track,note,velocity,time
0,40,80,0
0,76,127,0
0,42,80,8
0,43,80,3
0,40,80,8
0,42,80,8
0,43,80,8
0,40,80,8
0,42,80,8
0,43,80,8
0,40,80,8
0,42,80,8
0,43,80,1
0,40,80,8
0,42,80,8
0,43,80,8
0,40,80,6
0,42,80,8
0,43,80,8
0,40,80,8
0,42,80,8
0,43,80,8
0,40,80,8
0,42,80,8
0,43,80,8
0,40,80,8
0,42,80,8
0,43,80,8
0,40,80,8
0,42,80,8
0,43,80,8
0,40,80,8
0,42,80,8
0,43,80,8
0,40,80,8
0,42,80,8
0,43,80,8
0,40,80,6
0,42,80,8
0,43,80,3
0,40,80,8
0,42,80,8
0,43,80,8
0,40,80,8
0,42,80,8
0,43,80,7
0,40,80,8
0,42,80,8
0,43,80,8
0,40,80,8
0,42,80,8
0,43,80,8
0,40,80,8
0,42,80,8
0,43,80,8
0,40,80,8
0,42,80,8
0,43,80,8
0,40,80,8
0,42,80,8
0,43,80,8
0,40,80,8
0,42,80,8
0,43,80,8
0,40,80,8
0,42,80,8
0,43,80,5
0,40,80,8
0,42,80,8
0,43,80,8
0,40,80,8
0,42,80,8
0,43,80,8
0,28,80,0
0,40,80,0
0,40,80,0
0,36,112,0
0,49,116,0
0,51,74,2
0,30,80,31
0,42,80,0
0,42,80,0
0,51,93,0
0,38,106,0
0,31,80,1
0,43,80,0
0,43,80,0
0,51,93,0
0,36,117,0
0,28,80,21
0,40,80,0
0,40,80,0
0,36,106,0
0,51,97,0
0,51,91,362
0,30,80,40
0,42,80,0
0,42,80,0
0,38,97,0
0,51,89,0
0,31,80,21
0,43,80,0
0,43,80,0
0,36,106,0
0,51,93,0
0,33,80,21
0,45,80,0
0,45,80,0
0,36,106,0
0,51,97,0
0,51,91,362
0,35,80,40
0,47,80,0
0,47,80,0
0,38,97,0
0,51,89,0
0,36,80,21
0,48,80,0
0,48,80,0
0,36,106,0
0,51,93,0
0,33,80,21
0,45,80,0
0,45,80,0
0,69,127,0
0,64,127,0
0,60,127,0
0,36,106,0
0,51,97,0
0,86,57,362
0,51,91,0
0,86,57,17
0,85,56,2
0,85,54,17
0,84,58,17
0,84,60,7
0,83,64,17
0,83,59,17
0,82,60,6
0,51,89,0
0,82,60,17
0,81,55,2
0,81,61,6
0,80,50,17
0,80,57,17
0,79,56,6
0,79,52,17
0,78,52,17
0,51,93,0
0,78,56,6
0,77,58,2
0,77,53,17
0,76,49,5
0,76,52,17
0,75,43,17
0,75,49,7
0,40,80,17
0,28,80,0
0,40,80,0
0,36,112,0
0,49,116,0
0,51,74,0
0,42,80,40
0,30,80,0
0,42,80,0
0,51,93,0
0,38,106,0
0,43,80,21
0,31,80,0
0,43,80,0
0,51,93,0
0,36,117,0
0,40,80,21
0,28,80,0
0,40,80,0
0,36,106,0
0,51,97,0
0,51,91,362
0,42,80,40
0,30,80,0
0,42,80,0
0,38,97,0
0,51,89,0
0,43,80,21
0,31,80,0
0,43,80,0
0,36,106,0
0,51,93,0
0,45,80,21
0,33,80,0
0,45,80,0
0,36,106,0
0,51,97,0
0,51,91,362
0,47,80,40
0,35,80,0
0,47,80,0
0,38,97,0
0,51,89,0
0,48,80,21
0,36,80,0
0,48,80,0
0,36,106,0
0,51,93,0
0,33,80,21
0,45,80,0
0,45,80,0
0,36,106,0
0,51,97,0
0,51,91,362
0,35,80,40
0,47,80,0
0,47,80,0
0,38,102,0
0,51,89,0
0,38,100,122
0,36,80,21
0,48,80,0
0,48,80,0
0,45,108,0
0,51,93,0
0,45,108,122
0,28,80,21
0,40,80,0
0,88,80,0
0,40,80,0
0,76,80,0
0,36,112,0
0,49,116,0
0,90,80,17
0,78,80,0
0,91,80,17
0,79,80,0
0,88,80,17
0,76,80,0
0,90,80,17
0,78,80,0
0,91,80,17
0,79,80,0
0,76,80,17
0,64,80,0
0,78,80,17
0,66,80,0
0,79,80,17
0,67,80,0
0,76,80,17
0,64,80,0
0,78,80,17
0,66,80,0
0,79,80,17
0,67,80,0
0,64,80,17
0,52,80,0
0,50,83,0
0,66,80,17
0,54,80,0
0,50,62,80
0,67,80,2
0,55,80,0
0,50,61,0
0,50,87,2
0,64,80,2
0,52,80,0
0,48,86,0
0,66,80,17
0,54,80,0
0,48,87,0
0,67,80,17
0,55,80,0
0,48,90,0
0,52,80,17
0,40,80,0
0,47,106,0
0,54,80,17
0,42,80,0
0,47,92,0
0,55,80,17
0,43,80,0
0,47,102,0
0,52,80,17
0,40,80,0
0,43,80,0
0,54,80,17
0,42,80,0
0,43,98,0
0,55,80,17
0,43,80,0
0,43,104,0
0,42,80,17
0,30,80,0
0,42,80,0
0,36,112,0
0,49,116,0
0,51,74,362
0,44,80,40
0,32,80,0
0,44,80,0
0,51,93,0
0,38,106,0
0,45,80,21
0,33,80,0
0,45,80,0
0,51,93,0
0,36,117,0
0,42,80,21
0,30,80,0
0,42,80,0
0,36,106,0
0,51,97,0
0,51,91,362
0,44,80,40
0,32,80,0
0,44,80,0
0,38,97,0
0,51,89,0
0,45,80,21
0,33,80,0
0,45,80,0
0,36,106,0
0,51,93,0
0,47,80,21
0,35,80,0
0,47,81,0
0,36,106,0
0,51,97,0
0,51,91,362
0,49,80,21
0,37,80,0
0,49,81,0
0,38,97,0
0,51,89,0
0,62,80,1
0,50,80,2
0,38,80,0
0,36,106,0
0,51,93,0
0,35,80,21
0,47,80,0
0,47,80,0
0,59,127,0
0,36,106,0
0,51,97,0
0,62,127,1
0,66,127,0
0,51,91,0
0,76,58,21
0,76,68,17
0,78,67,6
0,51,89,0
0,78,65,17
0,76,65,2
0,76,68,6
0,33,80,17
0,45,80,0
0,78,62,0
0,45,80,0
0,36,106,0
0,49,113,0
0,78,67,17
0,76,66,2
0,76,65,17
0,73,61,17
0,73,58,6
0,66,55,16
0,30,80,15
0,42,80,0
0,42,80,0
0,36,112,0
0,51,116,0
0,51,74,0
0,32,80,40
0,44,80,0
0,44,80,0
0,51,93,0
0,38,106,0
0,33,80,21
0,45,80,0
0,45,80,0
0,51,93,0
0,36,117,0
0,30,80,21
0,42,80,0
0,42,80,0
0,36,106,0
0,51,97,0
0,51,91,362
0,32,80,40
0,44,80,0
0,44,80,0
0,38,97,0
0,51,89,0
0,33,80,21
0,45,80,0
0,45,80,0
0,36,106,0
0,51,93,0
0,35,80,21
0,47,80,0
0,47,81,0
0,36,106,0
0,51,97,0
0,51,91,362
0,37,80,21
0,49,80,0
0,49,81,0
0,38,97,0
0,51,89,0
0,62,80,1
0,38,80,2
0,50,80,0
0,36,106,0
0,51,93,0
0,47,80,21
0,35,80,0
0,47,80,0
0,36,106,0
0,51,97,0
0,38,102,362
0,51,91,0
0,38,100,122
0,49,80,40
0,37,80,0
0,49,80,0
0,45,108,0
0,51,89,0
0,45,108,122
0,50,80,21
0,38,80,0
0,50,80,0
0,43,98,0
0,51,93,0
0,43,92,122
0,42,80,21
0,30,80,0
0,90,80,0
0,42,80,0
0,78,80,0
0,36,112,0
0,49,116,0
0,92,80,17
0,80,80,0
0,93,80,17
0,81,80,0
0,90,80,17
0,78,80,0
0,92,80,17
0,80,80,0
0,93,80,17
0,81,80,0
0,78,80,17
0,66,80,0
0,80,80,17
0,68,80,0
0,81,80,17
0,69,80,0
0,78,80,17
0,66,80,0
0,80,80,17
0,68,80,0
0,81,80,17
0,69,80,0
0,66,80,17
0,54,80,0
0,68,80,17
0,56,80,0
0,69,80,17
0,57,80,0
0,66,80,17
0,54,80,0
0,68,80,17
0,56,80,0
0,69,80,17
0,57,80,0
0,54,80,17
0,42,80,0
0,56,80,17
0,44,80,0
0,57,80,17
0,45,80,0
0,54,80,17
0,42,80,0
0,56,80,17
0,44,80,0
0,57,80,17
0,45,80,0
0,43,80,17
0,31,80,0
0,55,80,0
0,36,112,0
0,49,116,0
0,45,80,40
0,33,80,0
0,57,80,0
0,51,93,0
0,38,106,0
0,46,80,21
0,34,80,0
0,58,80,0
0,51,93,0
0,36,117,0
0,43,80,21
0,31,80,0
0,55,80,0
0,36,106,0
0,51,97,0
0,51,91,362
0,45,80,40
0,33,80,0
0,57,80,0
0,38,97,0
0,51,89,0
0,46,80,21
0,34,80,0
0,58,80,0
0,36,106,0
0,51,93,0
0,48,80,21
0,36,80,0
0,60,80,0
0,36,106,0
0,51,97,0
0,51,91,362
0,50,80,40
0,38,80,0
0,62,80,0
0,38,97,0
0,51,89,0
0,58,127,16
0,55,80,5
0,43,80,0
0,67,80,0
0,36,106,0
0,51,93,0
0,67,127,2
0,62,127,4
0,51,97,362
0,51,91,0
0,38,86,6
0,51,89,0
0,36,84,37
0,51,93,0
0,31,80,22
0,43,80,0
0,55,80,0
0,36,112,0
0,51,116,0
0,51,74,0
0,33,80,40
0,45,80,0
0,57,80,0
0,51,93,0
0,38,106,0
0,34,80,21
0,46,80,0
0,58,80,0
0,51,93,0
0,36,117,0
0,31,80,21
0,43,80,0
0,55,80,0
0,36,106,0
0,51,97,0
0,51,91,362
0,33,80,40
0,45,80,0
0,57,80,0
0,38,97,0
0,51,89,0
0,34,80,21
0,46,80,0
0,58,80,0
0,36,106,0
0,51,93,0
0,36,80,21
0,48,80,0
0,60,80,0
0,36,106,0
0,51,97,0
0,51,91,362
0,38,80,40
0,50,80,0
0,62,80,0
0,38,97,0
0,51,89,0
0,58,127,16
0,55,80,5
0,43,84,0
0,67,80,0
0,36,106,0
0,51,93,0
0,67,127,2
0,62,127,4
0,36,106,362
0,51,97,0
0,51,91,0
0,36,80,36
0,38,80,6
0,51,89,0
0,39,80,20
0,51,79,0
0,51,93,37
0,51,85,5
0,41,80,22
0,29,80,0
0,65,80,0
0,51,81,0
0,36,94,0
0,51,87,122
0,36,102,0
0,51,87,0
0,36,98,0
0,51,91,122
0,36,92,0
0,43,80,40
0,31,80,0
0,67,80,0
0,51,74,0
0,36,95,0
0,51,91,122
0,36,95,0
0,45,80,21
0,33,80,0
0,69,79,0
0,51,93,0
0,36,92,0
0,51,93,122
0,36,102,0
0,51,91,122
0,36,104,0
0,51,89,122
0,36,104,0
0,41,80,21
0,29,80,0
0,77,80,0
0,77,80,0
0,74,80,0
0,51,91,0
0,36,97,0
0,51,99,122
0,36,97,0
0,43,80,21
0,31,80,0
0,79,80,0
0,79,80,0
0,76,80,0
0,38,98,0
0,51,97,0
0,36,102,0
0,38,98,122
0,36,100,0
0,45,80,21
0,33,80,0
0,81,80,0
0,81,80,0
0,77,80,0
0,45,84,0
0,36,97,0
0,45,64,122
0,36,95,0
0,31,80,21
0,43,80,0
0,82,68,0
0,79,80,0
0,36,112,0
0,49,116,0
0,84,68,17
0,81,80,0
0,86,68,17
0,82,80,0
0,82,68,17
0,79,80,0
0,84,68,17
0,81,80,0
0,86,68,17
0,82,80,0
0,70,68,17
0,67,80,0
0,72,68,17
0,69,80,0
0,74,68,17
0,70,80,0
0,70,68,17
0,67,80,0
0,72,68,17
0,69,80,0
0,74,68,17
0,70,80,0
0,58,68,17
0,55,80,0
0,50,83,0
0,60,68,17
0,57,80,0
0,50,47,0
0,50,62,2
0,62,68,2
0,58,80,0
0,50,61,0
0,50,87,2
0,58,68,2
0,55,80,0
0,48,97,0
0,60,68,17
0,57,80,0
0,48,48,0
0,48,81,2
0,62,68,2
0,58,80,0
0,48,68,0
0,48,88,2
0,46,53,2
0,43,80,0
0,47,80,0
0,48,53,8
0,45,80,0
0,47,65,0
0,47,90,2
0,50,53,2
0,46,80,0
0,47,74,0
0,47,80,2
0,46,53,2
0,43,80,0
0,45,92,0
0,48,53,17
0,45,80,0
0,45,58,0
0,45,80,2
0,50,53,2
0,46,80,0
0,45,75,0
0,45,83,2
0,42,80,2
0,30,80,0
0,81,68,0
0,78,80,0
0,43,102,0
0,83,68,17
0,80,80,0
0,43,63,0
0,43,80,2
0,85,68,2
0,81,80,0
0,43,61,0
0,43,68,2
0,81,68,2
0,78,80,0
0,43,108,0
0,83,68,17
0,80,80,0
0,43,39,0
0,43,80,2
0,85,68,2
0,81,80,0
0,43,60,0
0,43,72,2
0,38,87,7
0,69,68,2
0,66,80,0
0,38,97,10
0,71,68,12
0,68,80,0
0,38,95,7
0,73,68,10
0,69,80,0
0,38,92,10
0,69,68,12
0,66,80,0
0,43,91,7
0,71,68,10
0,68,80,0
0,43,95,10
0,73,68,12
0,69,80,0
0,57,68,17
0,54,80,0
0,43,88,0
0,59,68,17
0,56,80,0
0,43,86,0
0,61,68,17
0,57,80,0
0,43,95,0
0,57,68,17
0,54,80,0
0,45,70,0
0,43,70,0
0,59,68,17
0,56,80,0
0,45,72,0
0,43,72,0
0,61,68,17
0,57,80,0
0,43,77,0
0,45,79,0
0,45,53,17
0,42,80,0
0,41,85,0
0,43,87,0
0,47,53,17
0,44,80,0
0,41,80,0
0,43,77,0
0,49,53,17
0,45,80,0
0,41,92,0
0,43,87,0
0,45,53,17
0,42,80,0
0,43,108,0
0,47,53,17
0,44,80,0
0,45,80,17
0,49,53,5
0,38,87,7
0,28,80,10
0,40,80,0
0,79,68,0
0,76,80,0
0,38,97,10
0,81,68,12
0,78,80,0
0,38,95,7
0,83,68,10
0,79,80,0
0,38,92,10
0,79,68,12
0,76,80,0
0,43,91,7
0,81,68,10
0,78,80,0
0,43,95,10
0,83,68,12
0,79,80,0
0,38,87,7
0,67,68,10
0,64,80,0
0,38,97,10
0,69,68,12
0,66,80,0
0,43,91,7
0,71,68,10
0,67,80,0
0,43,95,10
0,67,68,12
0,64,80,0
0,38,95,7
0,69,68,10
0,66,80,0
0,38,92,10
0,71,68,12
0,67,80,0
0,43,87,7
0,55,68,10
0,52,80,0
0,43,97,10
0,57,68,12
0,54,80,0
0,38,95,7
0,59,68,10
0,55,80,0
0,38,92,10
0,55,68,12
0,52,80,0
0,38,91,7
0,57,68,10
0,54,80,0
0,38,95,10
0,59,68,12
0,55,80,0
0,43,53,17
0,40,80,0
0,43,102,0
0,45,53,17
0,42,80,0
0,43,63,0
0,43,80,2
0,47,53,2
0,43,80,0
0,43,61,0
0,43,68,2
0,43,53,2
0,40,80,0
0,43,108,0
0,45,53,17
0,42,80,0
0,43,39,0
0,43,80,2
0,47,53,2
0,43,80,0
0,43,60,0
0,43,72,2
0,40,80,2
0,79,68,0
0,76,80,0
0,38,80,0
0,40,80,17
0,81,68,0
0,78,80,0
0,38,80,0
0,40,80,17
0,83,68,0
0,79,80,0
0,38,80,0
0,40,80,17
0,79,68,0
0,76,80,0
0,38,80,0
0,81,68,17
0,78,80,0
0,83,68,17
0,79,80,0
0,79,68,17
0,76,80,0
0,40,80,17
0,81,68,0
0,78,80,0
0,38,80,0
0,40,80,17
0,83,68,0
0,79,80,0
0,38,80,0
0,40,80,17
0,79,68,0
0,76,80,0
0,38,80,0
0,81,68,17
0,78,80,0
0,83,68,17
0,79,80,0
0,79,68,17
0,76,80,0
0,40,80,17
0,81,68,0
0,78,80,0
0,38,80,0
0,40,80,17
0,83,68,0
0,79,80,0
0,38,80,0
0,40,80,17
0,79,68,0
0,76,80,0
0,38,80,0
0,81,68,17
0,78,80,0
0,83,68,17
0,79,80,0
0,79,68,17
0,76,80,0
0,40,80,17
0,81,68,0
0,78,80,0
0,38,80,0
0,40,80,17
0,83,68,0
0,79,80,0
0,38,80,0
0,40,80,17
0,79,68,0
0,76,80,0
0,38,80,0
0,40,80,17
0,81,68,0
0,78,80,0
0,38,80,0
0,40,80,17
0,83,68,0
0,80,80,0
0,57,43,0
0,36,80,0
0,52,98,2
0,64,83,2
0,76,68,0
0,76,80,0
0,55,80,0
0,36,117,0
0,68,91,0
0,71,95,15
0,76,87,15
0,76,75,12
0,71,73,2
0,68,63,2
0,64,75,2
0,52,76,11
0,52,81,7
0,64,79,7
0,68,87,2
0,71,88,12
0,76,85,7
0,76,70,7
0,71,69,2
0,68,55,2
0,64,64,2
0,52,72,11
0,52,83,12
0,64,79,7
0,68,87,2
0,71,83,2
0,76,77,7
0,76,71,2
