track,note,velocity,time
1,40,111,1056
1,35,105,52
1,40,103,18
1,35,96,8
1,40,111,54
1,35,105,52
1,40,103,18
1,35,96,8
1,40,111,54
1,35,105,52
1,40,103,18
1,35,96,8
1,40,111,54
1,35,105,52
1,40,103,18
1,35,96,8
1,40,119,54
1,35,119,46
1,40,119,48
1,35,119,46
1,40,119,48
1,35,119,46
1,40,113,48
1,42,119,54
1,43,101,42
1,44,119,24
1,39,119,24
1,44,119,40
1,39,119,28
1,44,119,40
1,39,119,28
1,44,119,40
1,39,111,56
1,44,119,18
1,42,119,24
1,37,119,86
1,45,111,74
1,42,119,46
1,44,119,52
1,45,119,10
1,40,116,42
1,45,110,36
1,47,119,18
1,42,119,24
1,39,119,384
1,40,119,56
1,35,98,44
1,40,119,100
1,35,98,40
1,37,119,44
1,39,119,48
1,40,119,38
1,35,119,46
1,40,119,48
1,35,119,46
1,40,119,48
1,35,119,46
1,40,113,48
1,42,119,54
1,43,101,42
1,44,119,24
1,39,119,24
1,44,119,40
1,39,119,28
1,44,119,40
1,39,119,28
1,44,119,40
1,39,111,56
1,44,119,18
1,42,119,24
1,37,119,86
1,45,111,74
1,42,119,46
1,44,119,52
1,45,119,10
1,40,116,42
1,45,110,36
1,47,119,18
1,42,119,24
1,39,119,384
1,40,119,58
1,35,98,50
1,40,119,100
1,40,68,86
1,42,119,74
1,44,119,74
1,45,119,44
1,40,119,88
1,45,119,24
1,40,119,22
1,45,119,34
1,40,119,48
1,45,111,44
1,40,119,42
1,37,119,38
1,40,110,40
1,35,107,42
1,40,101,50
1,40,114,114
1,42,119,24
1,44,119,66
1,45,119,64
1,40,119,88
1,45,119,24
1,40,119,22
1,45,119,34
1,40,119,48
1,45,111,44
1,40,119,42
1,37,119,38
1,40,108,42
1,35,95,54
1,40,119,46
1,35,119,24
1,47,95,76
1,39,119,72
1,42,119,30
1,47,110,384
1,40,119,1280
1,35,119,46
1,40,119,48
1,35,119,46
1,40,119,48
1,35,119,46
1,40,113,48
1,42,119,54
1,43,101,42
1,44,119,24
1,39,119,24
1,44,119,40
1,39,119,28
1,44,119,40
1,39,119,28
1,44,119,40
1,39,111,56
1,44,119,18
1,42,119,24
1,37,119,86
1,45,111,74
1,42,119,46
1,44,119,52
1,45,119,10
1,40,116,42
1,45,110,36
1,47,119,18
1,42,119,24
1,39,119,384
1,40,119,56
1,35,98,44
1,40,119,100
1,35,98,40
1,37,119,44
1,39,119,48
1,40,119,38
1,35,119,46
1,40,119,48
1,35,119,46
1,40,119,48
1,35,119,46
1,40,113,48
1,42,119,54
1,43,101,42
1,44,119,24
1,39,119,24
1,44,119,40
1,39,119,28
1,44,119,40
1,39,119,28
1,44,119,40
1,39,111,56
1,44,119,18
1,42,119,24
1,37,119,86
1,45,111,74
1,42,119,46
1,44,119,52
1,45,119,10
1,40,116,42
1,45,110,36
1,47,119,18
1,42,119,24
1,39,119,384
1,40,119,56
1,35,98,44
1,40,119,100
1,35,98,40
1,37,119,44
1,39,119,48
1,40,119,38
1,35,119,46
1,40,119,48
1,35,119,46
1,40,119,48
1,35,119,46
1,40,113,48
1,42,119,54
1,43,101,42
1,44,119,24
1,39,119,24
1,44,119,40
1,39,119,28
1,44,119,40
1,39,119,28
1,44,119,40
1,39,111,56
1,44,119,18
1,42,119,24
1,37,119,86
1,45,111,74
1,42,119,46
1,44,119,52
1,45,119,10
1,40,116,42
1,45,110,36
1,47,119,18
1,42,119,24
1,39,119,384
1,40,119,58
1,35,98,50
1,40,119,100
1,40,68,86
1,42,119,74
1,44,119,74
1,45,119,44
1,40,119,88
1,45,119,24
1,40,119,22
1,45,119,34
1,40,119,48
1,45,111,44
1,40,119,42
1,37,119,38
1,40,110,40
1,35,107,42
1,40,101,50
1,40,114,114
1,42,119,24
1,44,119,66
1,45,119,64
1,40,119,88
1,45,119,24
1,40,119,22
1,45,119,34
1,40,119,48
1,45,111,44
1,40,119,42
1,37,119,38
1,40,108,42
1,35,95,54
1,40,119,46
1,35,119,24
1,47,95,76
1,39,119,72
1,42,119,30
1,47,110,384
1,40,119,1280
1,35,119,46
1,40,119,48
1,35,119,46
1,40,119,48
1,35,119,46
1,40,113,48
1,42,119,54
1,43,101,42
1,44,119,24
1,39,119,24
1,44,119,40
1,39,119,28
1,44,119,40
1,39,119,28
1,44,119,40
1,39,111,56
1,44,119,18
1,42,119,24
1,37,119,86
1,45,111,74
1,42,119,46
1,44,119,52
1,45,119,10
1,40,116,42
1,45,110,36
1,47,119,18
1,42,119,24
1,40,119,384
1,40,119,56
1,35,98,44
1,40,119,100
1,40,98,40
1,42,119,44
1,44,119,48
1,45,119,38
1,40,116,72
1,45,110,36
1,47,119,18
1,42,119,24
1,40,119,384
1,40,119,56
1,35,98,44
1,40,119,100
1,40,98,40
1,42,119,44
1,44,119,48
1,45,119,38
1,40,116,72
1,45,110,36
1,47,119,18
1,42,119,24
1,40,119,384
1,40,119,58
1,40,76,74
1,35,119,188
1,37,119,2
1,40,119,64
2,47,117,34848
2,40,103,0
2,76,117,2302
2,80,117,40
2,71,106,0
2,80,99,108
2,71,94,0
2,44,113,24
2,51,111,0
2,72,106,2302
2,80,117,0
2,75,94,34
2,84,109,4
2,75,84,144
2,84,117,0
2,80,96,202
2,72,94,2
2,75,99,384
2,69,120,38
2,76,106,0
2,66,117,0
2,42,117,0
2,76,111,144
2,66,110,2
2,69,113,0
2,42,99,2
2,44,87,380
2,45,103,36
2,81,117,0
2,73,117,0
2,47,87,90
2,80,115,2
2,71,96,0
2,75,94,384
2,80,117,176
2,71,94,0
2,78,94,354
2,69,79,2
2,71,94,50
2,76,99,0
2,52,89,0
2,64,94,0
2,40,106,384
2,52,79,120
2,64,89,0
2,76,94,0
2,71,94,0
2,40,117,194
2,76,91,228
2,71,106,0
2,64,82,0
2,40,109,116
2,76,94,362
2,71,87,0
2,64,84,0
2,45,117,42
2,69,99,384
2,76,99,0
2,64,89,0
2,52,118,20
2,81,94,384
2,76,84,0
2,69,106,0
2,57,112,68
2,81,89,164
2,76,99,0
2,69,71,0
2,52,79,574
2,45,103,2
2,76,99,384
2,69,109,0
2,64,99,0
2,52,99,2
2,76,89,382
2,69,74,0
2,81,89,0
2,57,89,8
2,81,79,184
2,76,89,0
2,69,74,0
2,52,68,576
2,40,114,148
2,76,106,382
2,71,106,0
2,64,99,0
2,47,87,36
2,80,91,376
2,76,99,0
2,71,65,0
2,52,112,6
2,80,71,194
2,76,89,0
2,71,71,0
2,42,89,190
2,44,117,0
2,45,121,20
2,69,106,384
2,64,94,0
2,76,103,0
2,52,89,18
2,81,84,384
2,76,82,0
2,69,79,0
2,57,87,4
2,81,89,190
2,76,79,2
2,69,68,0
2,52,89,58
2,45,106,142
2,69,87,364
2,64,84,0
2,76,99,0
2,52,103,0
2,76,94,386
2,81,82,0
2,69,82,2
2,57,106,0
2,81,99,156
2,76,94,2
2,69,76,0
2,52,87,576
2,40,94,50
2,64,89,380
2,76,99,0
2,71,87,0
2,47,89,42
2,80,79,380
2,76,84,2
2,71,76,0
2,52,118,10
2,80,94,192
2,71,82,0
2,76,103,2
2,47,112,70
2,75,91,576
2,66,94,0
2,83,91,0
2,35,103,574
2,78,117,40
2,71,117,0
2,66,113,0
2,83,117,0
2,47,117,1236
2,40,103,0
2,76,117,2302
2,80,117,40
2,71,106,0
2,80,99,108
2,71,94,0
2,44,113,24
2,51,111,0
2,72,106,2302
2,80,117,0
2,75,94,34
2,84,109,4
2,75,84,144
2,84,117,0
2,80,96,202
2,72,94,2
2,75,99,384
2,69,120,38
2,76,106,0
2,66,117,0
2,42,117,0
2,76,111,144
2,66,110,2
2,69,113,0
2,42,99,2
2,44,87,380
2,45,103,36
2,81,117,0
2,73,117,0
2,47,87,90
2,80,115,2
2,71,96,0
2,75,94,384
2,80,117,176
2,71,94,0
2,78,94,354
2,69,79,2
2,71,94,50
2,76,99,0
2,52,89,0
2,64,94,0
2,40,106,384
2,52,79,120
2,64,89,0
2,76,94,0
2,71,94,0
2,40,117,194
2,76,91,228
2,71,106,0
2,64,82,0
2,40,109,116
2,76,94,362
2,71,87,0
2,64,84,0
2,47,117,42
2,40,103,0
2,76,117,2302
2,80,117,40
2,71,106,0
2,80,99,108
2,71,94,0
2,44,113,24
2,51,111,0
2,72,106,2302
2,80,117,0
2,75,94,34
2,84,109,4
2,75,84,144
2,84,117,0
2,80,96,202
2,72,94,2
2,75,99,384
2,69,120,38
2,76,106,0
2,66,117,0
2,42,117,0
2,76,111,144
2,66,110,2
2,69,113,0
2,42,99,2
2,44,87,380
2,45,103,36
2,81,117,0
2,73,117,0
2,47,87,90
2,80,115,2
2,71,96,0
2,75,94,384
2,80,117,176
2,71,94,0
2,78,94,354
2,69,79,2
2,71,94,50
2,76,99,0
2,52,89,0
2,64,94,0
2,40,106,384
2,52,79,120
2,64,89,0
2,76,94,0
2,71,94,0
2,40,117,194
2,76,91,228
2,71,106,0
2,64,82,0
2,40,109,116
2,76,94,362
2,71,87,0
2,64,84,0
2,47,117,42
2,40,103,0
2,76,117,2302
2,80,117,40
2,71,106,0
2,80,99,108
2,71,94,0
2,44,113,24
2,51,111,0
2,72,106,2302
2,80,117,0
2,75,94,34
2,84,109,4
2,75,84,144
2,84,117,0
2,80,96,202
2,72,94,2
2,75,99,384
2,69,120,38
2,76,106,0
2,66,117,0
2,42,117,0
2,76,111,144
2,66,110,2
2,69,113,0
2,42,99,2
2,44,87,380
2,45,103,36
2,81,117,0
2,73,117,0
2,47,87,90
2,80,115,2
2,71,96,0
2,75,94,384
2,80,117,176
2,71,94,0
2,78,94,354
2,69,79,2
2,71,94,50
2,76,99,0
2,52,89,0
2,64,94,0
2,40,106,384
2,52,79,120
2,64,89,0
2,76,94,0
2,71,94,0
2,40,117,194
2,76,91,228
2,71,106,0
2,64,82,0
2,40,109,116
2,76,94,362
2,71,87,0
2,64,84,0
2,45,117,42
2,69,99,384
2,76,99,0
2,64,89,0
2,52,118,20
2,81,94,384
2,76,84,0
2,69,106,0
2,57,112,68
2,81,89,164
2,76,99,0
2,69,71,0
2,52,79,574
2,45,103,2
2,76,99,384
2,69,109,0
2,64,99,0
2,52,99,2
2,76,89,382
2,69,74,0
2,81,89,0
2,57,89,8
2,81,79,184
2,76,89,0
2,69,74,0
2,52,68,576
2,40,114,148
2,76,106,382
2,71,106,0
2,64,99,0
2,47,87,36
2,80,91,376
2,76,99,0
2,71,65,0
2,52,112,6
2,80,71,194
2,76,89,0
2,71,71,0
2,42,89,190
2,44,117,0
2,45,121,20
2,69,106,384
2,64,94,0
2,76,103,0
2,52,89,18
2,81,84,384
2,76,82,0
2,69,79,0
2,57,87,4
2,81,89,190
2,76,79,2
2,69,68,0
2,52,89,58
2,45,106,142
2,69,87,364
2,64,84,0
2,76,99,0
2,52,103,0
2,76,94,386
2,81,82,0
2,69,82,2
2,57,106,0
2,81,99,156
2,76,94,2
2,69,76,0
2,52,87,576
2,40,94,50
2,64,89,380
2,76,99,0
2,71,87,0
2,47,89,42
2,80,79,380
2,76,84,2
2,71,76,0
2,52,118,10
2,80,94,192
2,71,82,0
2,76,103,2
2,47,112,70
2,35,117,0
2,75,91,576
2,66,94,0
2,83,91,0
2,35,103,190
2,78,117,40
2,71,117,0
2,66,113,0
2,83,117,0
2,47,117,1236
2,40,103,0
2,76,117,2302
2,80,117,40
2,71,106,0
2,80,99,108
2,71,94,0
2,44,113,24
2,51,111,0
2,72,106,2302
2,80,117,0
2,75,94,34
2,84,109,4
2,75,84,144
2,84,117,0
2,80,96,202
2,72,94,2
2,75,99,384
2,69,120,38
2,76,106,0
2,66,117,0
2,42,117,0
2,76,111,144
2,66,110,2
2,69,113,0
2,42,99,2
2,44,87,380
2,45,103,36
2,81,117,0
2,73,117,0
2,47,87,90
2,80,115,2
2,71,96,0
2,80,117,176
2,71,94,0
2,78,94,160
2,69,79,2
2,71,94,98
2,76,99,0
2,52,89,0
2,64,94,0
2,40,106,384
2,52,79,120
2,64,89,0
2,76,94,0
2,71,94,0
2,40,117,194
2,76,91,228
2,71,106,0
2,64,82,0
2,40,109,116
2,76,94,362
2,71,87,0
2,64,84,0
2,45,103,42
2,81,117,0
2,73,117,0
2,47,87,90
2,80,115,2
2,71,96,0
2,80,117,176
2,71,94,0
2,78,94,160
2,69,79,2
2,71,94,98
2,76,99,0
2,52,89,0
2,64,94,0
2,40,106,384
2,52,79,120
2,64,89,0
2,76,94,0
2,71,94,0
2,40,117,194
2,76,91,228
2,71,106,0
2,64,82,0
2,40,109,116
2,76,94,362
2,71,87,0
2,64,84,0
2,45,103,42
2,81,117,0
2,73,117,0
2,47,87,90
2,80,115,2
2,71,96,0
2,80,117,176
2,71,94,0
2,78,94,160
2,69,79,2
2,40,71,98
2,68,91,0
2,76,96,0
2,52,74,384
2,76,99,152
2,68,82,0
2,71,94,18
2,64,87,2
2,80,111,2
2,40,87,0
2,52,87,0
2,71,109,0
3,46,81,7200
3,47,91,128
3,40,94,22
3,46,81,0
3,47,91,128
3,40,94,22
3,46,81,0
3,47,91,128
3,40,94,22
3,46,81,0
3,47,91,128
3,40,94,22
3,46,81,0
3,47,91,128
3,40,94,22
3,47,104,0
3,56,102,384
3,59,94,198
3,54,115,42
3,55,89,436
3,56,70,128
3,52,104,630
3,51,116,662
3,55,87,20
3,56,75,192
3,56,87,0
3,60,79,80
3,60,80,0
3,63,89,0
3,60,83,768
3,56,89,0
3,54,108,64
3,57,114,18
3,57,111,22
3,59,94,384
3,61,89,10
3,57,94,768
3,59,99,6
3,57,89,768
3,56,99,40
3,56,91,84
3,59,89,576
3,64,91,18
3,57,91,768
3,52,111,72
3,64,94,16
3,59,102,384
3,56,89,328
3,52,104,10
3,55,94,384
3,56,73,94
3,52,89,6
3,56,113,650
3,68,106,1536
3,63,86,378
3,60,89,350
3,60,83,34
3,56,111,1920
3,54,87,160
3,57,89,0
3,57,94,22
3,59,99,384
3,61,104,378
3,59,104,16
3,59,81,20
3,59,83,46
3,57,94,384
3,56,87,0
3,56,73,22
3,56,111,84
3,59,89,14
3,64,104,2
3,57,99,324
3,52,99,768
3,57,111,726
3,52,111,686
3,57,101,736
3,52,111,0
3,52,99,76
3,64,109,12
3,59,91,0
3,52,104,6
3,57,109,62
3,52,111,768
3,57,99,710
3,57,84,44
3,64,84,0
3,57,94,0
3,52,96,768
3,57,104,760
3,64,104,46
3,57,94,0
3,52,116,8
3,59,119,12
3,52,117,384
3,54,108,1108
3,59,119,380
3,51,121,42
3,54,97,384
3,59,122,328
3,52,104,1294
3,56,92,26
3,56,104,362
3,47,92,192
3,55,81,38
3,54,89,228
3,52,73,192
3,56,99,388
3,52,89,768
3,56,92,530
3,59,79,960
3,60,66,0
3,63,76,192
3,68,87,18
3,63,79,384
3,60,84,342
3,56,81,336
3,56,99,80
3,51,87,768
3,56,99,698
3,51,96,704
3,54,116,112
3,57,94,26
3,57,81,60
3,59,89,30
3,61,87,384
3,57,92,18
3,59,84,64
3,59,79,28
3,59,70,70
3,57,89,4
3,56,87,384
3,56,92,74
3,46,111,716
3,47,81,20
3,40,94,576
3,47,104,0
3,56,92,384
3,59,84,198
3,54,116,42
3,55,89,436
3,56,70,128
3,52,104,582
3,51,115,672
3,55,87,20
3,56,75,192
3,56,87,0
3,60,79,80
3,60,80,0
3,63,89,0
3,60,73,768
3,56,89,0
3,54,108,64
3,57,107,18
3,57,111,22
3,59,94,384
3,61,79,10
3,57,94,768
3,59,99,6
3,57,89,768
3,56,99,40
3,56,81,84
3,59,89,576
3,64,81,0
3,57,81,768
3,52,111,72
3,64,94,16
3,59,92,384
3,56,79,328
3,52,94,10
3,55,94,384
3,56,73,94
3,52,89,6
3,56,111,650
3,68,106,1536
3,63,66,378
3,60,79,350
3,60,73,34
3,56,108,1920
3,54,87,160
3,57,89,0
3,57,94,22
3,59,99,384
3,61,104,378
3,59,104,16
3,59,81,188
3,59,63,20
3,57,94,384
3,56,87,0
