track,note,velocity,time
1,71,84,4960
1,70,81,10
1,71,87,10
1,77,88,10
1,75,84,10
1,71,87,202
1,68,87,10
1,75,98,8
1,75,84,576
1,74,80,10
1,75,81,10
1,77,84,10
1,75,78,10
1,73,87,202
1,67,72,10
1,74,84,8
1,73,85,576
1,72,78,10
1,73,69,10
1,79,76,10
1,77,79,10
1,73,79,202
1,70,79,10
1,77,90,8
1,71,87,576
1,70,81,10
1,71,87,10
1,75,86,10
1,71,88,10
1,70,92,10
1,71,88,10
1,74,90,10
1,75,88,86
1,74,94,6
1,71,86,0
1,76,100,800
1,71,98,114
1,69,98,112
1,67,96,34
1,69,98,66
1,71,98,130
1,69,87,80
1,74,92,1504
1,74,92,112
1,74,88,110
1,74,94,112
1,74,94,110
1,71,92,48
1,74,92,110
1,67,94,126
1,76,96,3090
1,74,92,106
1,76,96,148
1,74,86,110
1,76,94,112
1,74,94,64
1,76,96,114
1,69,88,128
1,74,88,2672
1,74,90,128
1,74,100,114
1,71,88,98
1,74,90,126
1,71,92,64
1,74,87,114
1,67,92,144
1,76,102,3010
1,74,88,142
1,76,94,128
1,74,94,112
1,76,98,178
1,74,92,130
1,71,98,178
1,69,92,144
1,71,92,94
1,69,87,82
1,74,92,2750
1,74,94,112
1,74,96,114
1,74,94,144
1,74,96,128
1,71,94,114
1,74,92,112
1,67,88,130
1,69,86,350
1,67,88,98
1,69,87,18
1,67,92,50
1,76,81,1248
1,74,84,112
1,76,87,142
1,74,88,80
1,76,88,146
1,74,87,78
1,76,88,128
1,69,88,256
1,71,86,64
1,69,86,96
1,71,87,82
1,69,90,64
1,74,97,912
1,74,83,84
1,74,93,16
1,74,104,32
1,74,85,54
1,74,89,96
1,74,103,86
1,74,104,150
1,71,95,48
1,74,106,54
1,67,102,128
1,69,101,528
1,67,84,44
1,64,88,118
1,67,86,80
1,71,84,928
1,70,81,10
1,71,87,10
1,77,88,10
1,75,84,10
1,71,87,202
1,68,87,10
1,75,98,8
1,75,84,576
1,74,80,10
1,75,81,10
1,77,84,10
1,75,78,10
1,73,87,202
1,67,72,10
1,74,90,8
1,73,79,576
1,72,71,10
1,73,77,10
1,79,81,10
1,77,84,10
1,73,86,202
1,70,84,10
1,77,90,8
1,71,87,576
1,70,81,10
1,71,87,10
1,75,86,10
1,71,88,10
1,70,92,10
1,71,88,10
1,74,90,10
1,75,88,86
1,74,94,6
1,71,86,6
1,74,94,840
1,74,102,128
1,71,98,130
1,67,88,130
1,69,92,144
1,71,96,834
1,69,98,112
1,74,92,1968
1,74,92,126
1,74,92,112
1,74,90,128
1,74,90,128
1,74,92,206
1,71,86,126
1,74,88,112
1,67,84,176
1,76,92,3072
1,74,92,130
1,76,94,160
1,74,92,206
1,74,92,128
1,76,94,130
1,74,92,96
1,74,90,128
1,76,92,64
1,69,86,66
1,74,88,162
1,74,87,3152
1,74,92,142
1,74,88,130
1,74,92,208
1,74,90,96
1,71,92,110
1,74,92,12
1,67,96,102
1,76,88,3024
1,74,92,112
1,76,86,240
1,74,92,130
1,76,88,334
1,74,88,144
1,76,87,224
1,74,88,190
1,69,92,816
1,71,94,98
1,69,90,126
1,71,90,96
1,69,92,64
1,74,100,1696
1,74,92,96
1,74,88,96
1,74,92,112
1,74,92,126
1,74,92,64
1,74,92,112
1,74,94,80
1,71,92,130
1,74,96,50
1,67,96,80
1,71,84,2736
1,70,81,10
1,71,87,10
1,77,88,10
1,75,84,10
1,71,87,202
1,68,87,10
1,75,98,8
1,75,84,576
1,74,80,10
1,75,81,10
1,77,84,10
1,75,78,10
1,73,87,202
1,67,72,10
1,74,90,8
1,73,79,576
1,72,71,10
1,73,77,10
1,79,81,10
1,77,84,10
1,73,86,202
1,70,84,10
1,77,90,8
1,71,87,576
1,70,81,10
1,71,87,10
1,75,86,10
1,71,88,10
1,70,92,10
1,71,88,10
1,74,90,10
1,75,88,86
1,74,94,6
1,71,86,6
1,74,90,794
1,71,94,114
1,67,92,128
1,69,94,96
1,71,88,576
1,69,86,98
1,71,87,48
1,69,92,0
1,74,92,1264
1,74,88,112
1,74,92,126
1,74,87,112
1,74,92,128
1,71,96,96
1,74,92,94
1,67,92,96
1,76,92,3008
1,74,86,112
1,76,92,142
1,74,90,128
1,76,88,128
1,74,86,114
1,76,92,112
1,69,86,128
1,74,92,2706
1,74,90,112
1,71,94,126
1,74,92,144
1,74,88,114
1,71,86,126
1,74,86,128
1,67,90,96
1,76,98,3010
1,74,92,114
1,76,92,112
1,74,88,94
1,76,88,116
1,74,88,64
1,76,90,94
1,74,90,96
1,76,94,224
1,74,90,94
1,71,94,130
1,74,90,126
1,71,92,64
1,69,87,96
1,69,88,126
1,74,94,2734
1,74,88,128
1,74,88,96
1,74,87,112
1,74,94,114
1,74,92,98
1,74,92,46
1,67,96,142
1,79,86,354
1,79,86,112
1,79,88,56
1,67,92,60
1,71,96,1740
1,70,88,114
1,71,92,76
1,76,94,160
1,74,92,80
1,71,94,114
1,74,92,66
1,69,92,62
1,74,96,2960
1,74,92,98
1,74,92,126
1,74,88,130
1,71,94,340
1,74,92,44
1,67,98,172
1,71,84,1582
1,70,81,10
1,71,87,10
1,77,88,10
1,75,84,10
1,71,87,202
1,68,87,10
1,75,98,8
1,75,84,576
1,74,80,10
1,75,81,10
1,77,84,10
1,75,78,10
1,73,87,202
1,67,72,10
1,74,90,8
1,73,79,576
1,72,71,10
1,73,77,10
1,79,81,10
1,77,84,10
1,73,86,202
1,70,84,10
1,77,90,8
1,71,87,576
1,70,81,10
1,71,87,10
1,75,86,10
1,71,88,10
1,70,92,10
1,71,88,10
1,74,90,10
1,75,88,86
1,74,94,6
1,71,86,6
2,44,102,4576
2,36,86,144
2,43,90,32
2,43,94,128
2,36,79,0
2,36,77,94
2,43,90,14
2,43,86,112
2,36,82,192
2,39,86,48
2,46,82,222
2,46,90,112
2,39,98,64
2,39,90,128
2,46,94,48
2,39,94,384
2,39,94,96
2,46,102,16
2,41,82,126
2,41,86,128
2,46,86,80
2,46,82,144
2,41,90,78
2,41,90,176
2,46,79,14
2,34,82,80
2,46,77,64
2,46,79,128
2,41,86,96
2,41,79,128
2,46,77,48
2,46,79,320
2,41,79,0
2,41,90,64
2,48,77,112
2,48,90,112
2,41,82,64
2,41,82,128
2,48,79,160
2,48,79,78
2,41,86,96
2,44,102,144
2,44,90,126
2,39,106,142
2,44,94,128
2,51,90,128
2,51,98,110
2,44,90,96
2,46,102,128
2,46,79,128
2,41,82,128
2,39,106,192
2,38,110,142
2,43,100,128
2,38,90,128
2,43,102,80
2,43,111,288
2,43,95,32
2,43,102,96
2,43,100,96
2,38,90,128
2,43,102,80
2,43,111,288
2,43,95,32
2,43,102,96
2,33,100,96
2,21,75,32
2,28,97,0
2,33,102,64
2,28,100,288
2,33,97,16
2,28,95,32
2,33,100,128
2,28,90,128
2,33,102,80
2,28,100,288
2,33,97,16
2,28,95,32
2,33,100,128
2,28,90,128
2,33,102,80
2,40,100,288
2,45,95,16
2,40,105,80
2,38,88,96
2,33,95,32
2,38,111,16
2,44,100,64
2,43,100,128
2,31,75,32
2,38,97,0
2,43,102,64
2,50,100,288
2,55,95,16
2,50,105,80
2,43,100,96
2,31,75,32
2,38,97,0
2,43,102,64
2,38,100,288
2,43,97,16
2,38,95,32
2,43,100,128
2,38,90,128
2,43,102,80
2,50,100,288
2,55,95,16
2,50,105,80
2,43,100,96
2,38,90,128
2,43,102,80
2,38,100,288
2,43,97,16
2,38,95,32
2,33,100,128
2,28,90,128
2,33,102,80
2,28,100,288
2,33,97,16
2,28,95,32
2,33,100,128
2,28,90,128
2,33,102,80
2,33,111,288
2,33,95,32
2,33,102,96
2,33,100,96
2,21,75,32
2,28,97,0
2,33,102,64
2,40,100,288
2,45,95,16
2,40,105,80
2,38,90,96
2,45,97,16
2,50,100,0
2,38,97,0
2,44,93,32
2,43,100,128
2,31,75,32
2,38,97,0
2,43,102,64
2,50,100,288
2,55,95,16
2,50,105,80
2,43,100,96
2,31,75,32
2,38,97,0
2,43,102,64
2,38,100,288
2,43,97,16
2,38,95,32
2,43,100,128
2,38,90,128
2,43,102,80
2,50,100,288
2,55,95,16
2,50,105,80
2,43,100,96
2,38,90,128
2,43,102,80
2,38,100,288
2,43,97,16
2,38,95,32
2,33,100,128
2,28,90,128
2,33,102,80
2,28,100,288
2,33,97,16
2,28,95,32
2,33,100,128
2,28,90,128
2,33,102,80
2,33,111,288
2,33,95,32
2,33,102,96
2,33,100,96
2,21,75,32
2,28,97,0
2,33,102,64
2,40,100,288
2,45,95,16
2,40,105,80
2,38,90,96
2,45,97,16
2,50,100,0
2,38,97,0
2,44,93,32
2,43,100,128
2,38,90,128
2,43,102,80
2,38,100,288
2,43,97,16
2,38,95,32
2,43,100,128
2,38,90,128
2,43,102,80
2,38,100,288
2,43,97,16
2,38,95,32
2,43,100,128
2,31,75,32
2,38,97,0
2,43,102,64
2,50,100,288
2,55,95,16
2,50,105,80
2,43,100,96
2,38,90,128
2,43,102,80
2,50,100,288
2,55,95,16
2,50,105,80
2,33,100,96
2,28,90,128
2,33,102,80
2,33,111,288
2,33,95,32
2,33,102,96
2,33,100,96
2,21,75,32
2,28,97,0
2,33,102,64
2,33,111,288
2,33,95,32
2,33,102,96
2,33,100,96
2,21,75,32
2,28,97,0
2,33,102,64
2,40,100,288
2,45,95,16
2,40,105,80
2,38,95,96
2,33,90,32
2,38,102,16
2,45,102,64
2,50,84,16
2,45,108,80
2,43,100,112
2,38,90,128
2,43,102,80
2,43,111,288
2,43,95,32
2,43,102,96
2,43,100,96
2,38,90,128
2,43,102,80
2,43,111,288
2,43,95,32
2,43,102,96
2,44,102,96
2,36,86,144
2,43,90,32
2,43,94,128
2,36,79,0
2,36,77,94
2,43,90,14
2,43,86,112
2,36,82,192
2,39,86,48
2,46,82,222
2,46,90,112
2,39,98,64
2,39,90,128
2,46,94,48
2,39,94,384
2,39,94,96
2,46,102,16
2,41,82,126
2,41,86,128
2,46,86,80
2,46,82,144
2,41,90,78
2,41,90,176
2,46,79,14
2,34,82,80
2,46,77,64
2,46,79,128
2,41,86,96
2,41,79,128
2,46,77,48
2,46,79,320
2,41,79,0
2,41,90,64
2,48,77,112
2,48,90,112
2,41,82,64
2,41,82,128
2,48,79,160
2,48,79,78
2,41,86,96
2,44,102,144
2,44,90,126
2,39,106,142
2,44,94,128
2,51,90,128
2,51,98,110
2,44,90,96
2,46,102,128
2,46,79,128
2,41,82,128
2,39,106,192
2,38,110,142
2,43,100,128
2,38,90,128
2,43,102,80
2,43,111,288
2,43,95,32
2,43,102,96
2,43,100,96
2,38,90,128
2,43,102,80
2,43,111,288
2,43,95,32
2,43,102,96
2,33,100,96
2,21,75,32
2,28,97,0
2,33,102,64
2,28,100,288
2,33,97,16
2,28,95,32
2,33,100,128
2,28,90,128
2,33,102,80
2,28,100,288
2,33,97,16
2,28,95,32
2,33,100,128
2,28,90,128
2,33,102,80
2,40,100,288
2,45,95,16
2,40,105,80
2,38,88,96
2,33,95,32
2,38,111,16
2,44,100,64
2,43,100,128
2,31,75,32
2,38,97,0
2,43,102,64
2,50,100,288
2,55,95,16
2,50,105,80
2,43,100,96
2,31,75,32
2,38,97,0
2,43,102,64
2,38,100,288
2,43,97,16
2,38,95,32
2,43,100,128
2,38,90,128
2,43,102,80
2,50,100,288
2,55,95,16
2,50,105,80
2,43,100,96
2,38,90,128
2,43,102,80
2,38,100,288
2,43,97,16
2,38,95,32
2,33,100,128
2,28,90,128
2,33,102,80
2,28,100,288
2,33,97,16
2,28,95,32
2,33,100,128
2,28,90,128
2,33,102,80
2,33,111,288
2,33,95,32
2,33,102,96
2,33,100,96
2,21,75,32
2,28,97,0
2,33,102,64
2,40,100,288
2,45,95,16
2,40,105,80
2,38,90,96
2,45,97,16
2,50,100,0
2,38,97,0
2,44,93,32
2,43,100,128
2,31,75,32
2,38,97,0
2,43,102,64
2,50,100,288
2,55,95,16
2,50,105,80
2,43,100,96
2,31,75,32
2,38,97,0
2,43,102,64
2,38,100,288
2,43,97,16
2,38,95,32
2,43,100,128
2,38,90,128
2,43,102,80
2,50,100,288
2,55,95,16
2,50,105,80
2,43,100,96
2,38,90,128
2,43,102,80
2,38,100,288
2,43,97,16
2,38,95,32
2,33,100,128
2,28,90,128
2,33,102,80
2,28,100,288
2,33,97,16
2,28,95,32
2,33,100,128
2,28,90,128
2,33,102,80
2,33,111,288
2,33,95,32
2,33,102,96
2,33,100,96
2,21,75,32
2,28,97,0
2,33,102,64
2,40,100,288
2,45,95,16
2,40,105,80
2,38,90,96
2,45,97,16
2,50,100,0
2,38,97,0
2,44,93,32
2,43,100,128
2,38,90,128
2,43,102,80
2,38,100,288
2,43,97,16
2,38,95,32
2,43,100,128
2,38,90,128
2,43,102,80
2,38,100,288
2,43,97,16
2,38,95,32
2,44,102,128
2,36,77,144
2,36,79,0
2,36,74,0
2,36,77,0
2,36,77,0
2,36,79,0
2,36,77,0
2,43,90,14
2,43,86,112
2,36,82,192
2,39,86,48
2,46,82,222
2,46,90,112
2,39,98,64
2,39,90,128
2,46,94,48
2,39,94,384
2,39,94,96
2,46,82,16
2,46,82,0
2,46,86,0
2,46,82,0
2,46,79,0
2,46,90,0
2,46,82,0
2,41,90,78
2,41,90,176
2,46,79,14
2,34,82,80
2,46,77,64
2,46,79,128
2,41,86,96
2,41,79,128
2,46,77,48
2,46,79,320
2,41,79,0
2,41,90,64
2,48,77,112
2,48,90,112
2,41,82,64
2,41,82,128
2,48,79,160
2,48,79,78
2,41,86,96
2,44,102,144
2,44,90,126
2,39,106,142
2,44,94,128
2,51,90,128
2,51,98,110
2,44,90,96
2,46,102,128
2,46,79,128
2,41,82,128
2,39,106,192
2,38,110,142
2,43,100,128
2,38,90,128
2,43,102,80
2,43,111,288
2,43,95,32
2,43,102,96
2,43,100,96
2,38,90,128
2,43,102,80
2,43,111,288
2,43,95,32
2,43,102,96
2,33,100,96
2,21,75,32
2,28,97,0
2,33,102,64
2,28,100,288
2,33,97,16
2,28,95,32
2,33,100,128
2,28,90,128
2,33,102,80
2,28,100,288
2,33,97,16
2,28,95,32
2,33,100,128
2,28,90,128
2,33,102,80
2,40,100,288
2,45,95,16
2,40,105,80
2,38,88,96
2,33,95,32
2,38,111,16
2,44,100,64
2,43,100,128
2,31,75,32
2,38,97,0
2,43,102,64
2,50,100,288
2,55,95,16
2,50,105,80
2,43,100,96
2,31,75,32
2,38,97,0
2,43,102,64
2,38,100,288
2,43,97,16
2,38,95,32
2,43,100,128
2,38,90,128
2,43,102,80
2,50,100,288
2,55,95,16
2,50,105,80
2,43,100,96
2,38,90,128
2,43,102,80
2,38,100,288
2,43,97,16
2,38,95,32
2,33,100,128
2,28,90,128
2,33,102,80
2,28,100,288
2,33,97,16
2,28,95,32
2,33,100,128
2,28,90,128
2,33,102,80
2,33,111,288
2,33,95,32
2,33,102,96
2,33,100,96
2,21,75,32
2,28,97,0
2,33,102,64
2,40,100,288
2,45,95,16
2,40,105,80
2,38,90,96
2,45,97,16
2,50,100,0
2,38,97,0
2,44,93,32
2,43,100,128
2,31,75,32
2,38,97,0
2,43,102,64
2,50,100,288
2,55,95,16
2,50,105,80
2,43,100,96
2,31,75,32
2,38,97,0
2,43,102,64
2,38,100,288
2,43,97,16
2,38,95,32
2,43,100,128
2,38,90,128
2,43,102,80
2,50,100,288
2,55,95,16
2,50,105,80
2,43,100,96
2,38,90,128
2,43,102,80
2,38,100,288
2,43,97,16
2,38,95,32
2,33,100,128
2,28,90,128
2,33,102,80
2,28,100,288
2,33,97,16
2,28,95,32
2,33,100,128
2,28,90,128
2,33,102,80
2,33,111,288
2,33,95,32
2,33,102,96
2,33,100,96
2,21,75,32
2,28,97,0
2,33,102,64
2,40,100,288
2,45,95,16
2,40,105,80
2,38,90,96
2,45,97,16
2,50,100,0
2,38,97,0
2,44,93,32
2,43,100,128
2,38,90,128
2,43,102,80
2,38,100,288
