track,note,velocity,time
1,77,91,37632
1,81,97,192
1,84,109,18
1,81,97,0
1,81,100,8
1,77,94,0
1,89,97,184
1,86,109,0
1,86,94,44
1,82,91,0
1,84,100,70
1,81,94,0
1,81,103,64
1,77,94,0
1,77,97,306
1,81,94,192
1,84,106,58
1,81,97,0
1,81,100,12
1,77,97,0
1,89,94,150
1,86,103,0
1,86,109,116
1,82,97,0
1,84,94,46
1,81,97,0
1,77,94,282
1,81,87,192
1,84,97,62
1,81,89,0
1,81,97,40
1,77,94,0
1,89,97,168
1,86,106,0
1,86,106,124
1,82,94,0
1,84,94,52
1,81,97,0
1,81,100,116
1,77,94,0
1,77,97,206
1,81,97,192
1,84,106,62
1,81,97,0
1,84,100,98
1,81,97,0
1,86,100,60
1,82,106,0
1,82,106,128
1,79,91,0
1,81,97,26
1,77,97,0
1,77,91,1600
1,81,97,192
1,84,109,18
1,81,97,0
1,81,100,8
1,77,94,0
1,89,97,184
1,86,109,0
1,86,94,44
1,82,91,0
1,84,100,70
1,81,94,0
1,81,103,64
1,77,94,0
1,77,97,306
1,81,94,192
1,84,106,58
1,81,97,0
1,81,100,12
1,77,97,0
1,89,94,150
1,86,103,0
1,86,109,116
1,82,97,0
1,84,94,46
1,81,97,0
1,77,94,282
1,81,87,192
1,84,97,62
1,81,89,0
1,81,97,40
1,77,94,0
1,89,97,168
1,86,106,0
1,86,106,124
1,82,94,0
1,84,94,52
1,81,97,0
1,81,100,116
1,77,94,0
1,77,97,206
1,81,97,192
1,84,106,62
1,81,97,0
1,84,100,98
1,81,97,0
1,86,100,60
1,82,106,0
1,82,106,128
1,79,91,0
1,81,97,26
1,77,97,0
1,84,97,1984
1,81,109,0
1,84,97,88
1,81,103,0
1,84,94,120
1,81,103,0
1,84,94,62
1,81,100,0
1,84,100,74
1,81,100,0
1,86,100,142
1,82,100,0
1,86,106,92
1,82,112,0
1,89,97,1824
1,86,106,0
1,89,94,50
1,86,106,0
1,89,87,52
1,86,97,0
1,89,97,74
1,86,97,0
1,88,89,4
1,84,103,0
1,86,89,70
1,82,94,0
1,84,100,22
1,81,97,0
1,84,100,214
1,81,100,0
1,84,97,30
1,81,91,0
1,84,94,54
1,81,97,0
1,84,94,56
1,81,94,0
1,84,97,28
1,81,94,0
1,86,94,118
1,82,97,0
1,86,103,122
1,82,106,0
1,89,106,1774
1,86,109,0
1,89,94,38
1,86,94,0
1,89,87,46
1,86,97,0
1,89,103,78
1,86,106,0
1,88,89,4
1,84,100,0
1,86,94,86
1,82,97,0
1,84,100,30
1,81,94,0
1,84,103,130
1,81,106,0
1,82,87,20
1,79,87,0
1,81,100,18
1,77,87,0
1,79,97,38
1,76,97,0
1,79,94,56
1,76,91,0
1,82,106,46
1,74,109,0
1,81,97,62
1,72,91,0
1,79,94,78
1,70,91,0
1,77,100,74
1,69,91,0
1,77,91,1750
1,81,97,192
1,84,109,18
1,81,97,0
1,81,100,8
1,77,94,0
1,89,97,184
1,86,109,0
1,86,94,44
1,82,91,0
1,84,100,70
1,81,94,0
1,81,103,64
1,77,94,0
1,77,97,306
1,81,94,192
1,84,106,58
1,81,97,0
1,81,100,12
1,77,97,0
1,89,94,150
1,86,103,0
1,86,109,116
1,82,97,0
1,84,94,46
1,81,97,0
1,77,94,282
1,81,87,192
1,84,97,62
1,81,89,0
1,81,97,40
1,77,94,0
1,89,97,168
1,86,106,0
1,86,106,124
1,82,94,0
1,84,94,52
1,81,97,0
1,81,100,116
1,77,94,0
1,77,97,206
1,81,97,192
1,84,106,62
1,81,97,0
1,84,100,98
1,81,97,0
1,86,100,60
1,82,106,0
1,82,106,128
1,79,91,0
1,81,97,26
1,77,97,0
1,84,97,1984
1,81,109,0
1,84,97,88
1,81,103,0
1,84,94,120
1,81,103,0
1,84,94,62
1,81,100,0
1,84,100,74
1,81,100,0
1,86,100,142
1,82,100,0
1,86,106,92
1,82,112,0
1,89,97,1824
1,86,106,0
1,89,94,50
1,86,106,0
1,89,87,52
1,86,97,0
1,89,97,74
1,86,97,0
1,88,89,4
1,84,103,0
1,86,89,70
1,82,94,0
1,84,100,22
1,81,97,0
1,84,100,214
1,81,100,0
1,84,97,30
1,81,91,0
1,84,94,54
1,81,97,0
1,84,94,56
1,81,94,0
1,84,97,28
1,81,94,0
1,86,94,118
1,82,97,0
1,86,103,122
1,82,106,0
1,89,106,1774
1,86,109,0
1,89,94,38
1,86,94,0
1,89,87,46
1,86,97,0
1,89,103,78
1,86,106,0
1,88,89,4
1,84,100,0
1,86,94,86
1,82,97,0
1,84,100,30
1,81,94,0
1,84,103,130
1,81,106,0
1,82,87,20
1,79,87,0
1,81,100,18
1,77,87,0
1,79,97,38
1,76,97,0
1,79,94,56
1,76,91,0
1,82,106,46
1,74,109,0
1,81,97,62
1,72,91,0
1,79,94,78
1,70,91,0
1,77,100,74
1,69,91,0
1,84,91,7894
1,88,97,192
1,91,109,18
1,88,97,0
1,88,100,8
1,84,94,0
1,96,97,184
1,93,109,0
1,93,94,44
1,89,91,0
1,91,100,70
1,88,94,0
1,88,103,64
1,84,94,0
1,84,97,306
1,88,94,192
1,91,106,58
1,88,97,0
1,88,100,12
1,84,97,0
1,96,94,150
1,93,103,0
1,93,109,116
1,89,97,0
1,91,94,46
1,88,97,0
1,84,94,282
1,88,87,192
1,91,97,62
1,88,89,0
1,88,97,40
1,84,94,0
1,96,97,168
1,93,106,0
1,93,106,124
1,89,94,0
1,91,94,52
1,88,97,0
1,88,100,116
1,84,94,0
1,84,97,206
1,88,97,192
1,91,106,62
1,88,97,0
1,91,100,98
1,88,97,0
1,93,100,60
1,89,106,0
1,89,106,128
1,86,91,0
1,88,97,26
1,84,97,0
1,79,97,1984
1,76,109,0
1,79,97,88
1,76,103,0
1,79,94,120
1,76,103,0
1,79,94,62
1,76,100,0
1,79,100,74
1,76,100,0
1,81,100,142
1,77,100,0
1,81,106,92
1,77,112,0
1,84,97,1824
1,81,106,0
1,84,94,50
1,81,106,0
1,84,87,52
1,81,97,0
1,84,97,74
1,81,97,0
1,83,89,4
1,79,103,0
1,81,89,70
1,77,94,0
1,79,100,22
1,76,97,0
1,79,100,214
1,76,100,0
1,79,97,30
1,76,91,0
1,79,94,54
1,76,97,0
1,79,94,56
1,76,94,0
1,79,97,28
1,76,94,0
1,81,94,118
1,77,97,0
1,81,103,122
1,77,106,0
1,84,106,1774
1,81,109,0
1,84,94,38
1,81,94,0
1,84,87,46
1,81,97,0
1,84,103,78
1,81,106,0
1,83,89,4
1,79,100,0
1,81,94,86
1,77,97,0
1,79,100,30
1,76,94,0
1,79,103,130
1,76,106,0
1,77,87,20
1,74,87,0
1,76,100,18
1,72,87,0
1,74,97,38
1,71,97,0
1,74,94,56
1,71,91,0
1,77,106,46
1,69,109,0
1,76,97,62
1,67,91,0
1,74,94,78
1,65,91,0
1,72,100,74
1,64,91,0
2,64,92,1056
2,60,101,0
2,55,92,0
2,64,80,58
2,60,80,0
2,55,77,0
2,64,86,336
2,60,86,0
2,55,86,0
2,64,80,336
2,60,80,0
2,55,77,0
2,64,86,336
2,60,86,0
2,55,86,0
2,64,80,336
2,60,80,0
2,55,77,0
2,64,86,336
2,60,86,0
2,55,86,0
2,64,80,336
2,60,80,0
2,55,77,0
2,64,86,336
2,60,86,0
2,55,86,0
2,64,80,336
2,60,80,0
2,55,77,0
2,64,86,336
2,60,86,0
2,55,86,0
2,64,80,336
2,60,80,0
2,55,77,0
2,64,86,336
2,60,86,0
2,55,86,0
2,64,80,336
2,60,80,0
2,55,77,0
2,64,86,336
2,60,86,0
2,55,86,0
2,64,80,336
2,60,80,0
2,55,77,0
2,64,86,336
2,60,86,0
2,55,86,0
2,72,62,336
2,67,58,0
2,64,62,0
2,72,64,312
2,67,60,0
2,64,71,0
2,72,64,310
2,69,74,0
2,65,71,0
2,72,62,306
2,69,66,0
2,65,62,0
2,72,68,308
2,67,74,0
2,64,66,0
2,72,68,310
2,67,60,0
2,64,52,0
2,72,62,308
2,67,54,0
2,64,62,0
2,72,66,310
2,67,56,0
2,64,66,0
2,72,44,306
2,67,60,0
2,64,40,0
2,72,58,302
2,67,44,0
2,64,56,0
2,72,52,322
2,69,62,0
2,65,62,0
2,72,58,312
2,69,60,0
2,65,64,0
2,72,60,304
2,67,60,0
2,64,62,0
2,72,71,304
2,67,66,0
2,64,66,0
2,72,60,310
2,67,64,0
2,64,66,0
2,72,62,336
2,67,58,0
2,64,64,0
2,72,66,326
2,67,62,0
2,64,66,0
2,72,71,330
2,67,62,0
2,64,66,0
2,72,71,310
2,69,66,0
2,65,66,0
2,72,66,316
2,69,56,0
2,65,71,0
2,72,68,310
2,67,64,0
2,64,64,0
2,72,58,314
2,67,60,0
2,64,62,0
2,72,71,332
2,67,62,0
2,64,66,0
2,72,52,312
2,67,52,0
2,64,56,0
2,72,64,318
2,67,60,0
2,64,62,0
2,72,68,312
2,67,58,0
2,64,60,0
2,71,60,326
2,67,60,0
2,62,62,0
2,71,62,328
2,67,60,0
2,62,71,0
2,72,52,324
2,67,58,0
2,64,52,0
2,72,54,324
2,67,54,0
2,64,56,0
2,72,60,324
2,67,52,0
2,64,54,0
2,72,58,306
2,67,58,0
2,64,60,0
2,72,56,310
2,67,56,0
2,64,58,0
2,72,62,316
2,67,54,0
2,64,62,0
2,72,64,308
2,67,50,0
2,64,60,0
2,72,68,310
2,67,60,0
2,64,60,0
2,72,62,310
2,67,58,0
2,64,62,0
2,72,64,312
2,67,60,0
2,64,71,0
2,72,64,310
2,69,74,0
2,65,71,0
2,72,62,306
2,69,66,0
2,65,62,0
2,72,68,308
2,67,74,0
2,64,66,0
2,72,68,310
2,67,60,0
2,64,52,0
2,72,62,308
2,67,54,0
2,64,62,0
2,72,66,310
2,67,56,0
2,64,66,0
2,72,44,306
2,67,60,0
2,64,40,0
2,72,58,302
2,67,44,0
2,64,56,0
2,72,52,322
2,69,62,0
2,65,62,0
2,72,58,312
2,69,60,0
2,65,64,0
2,72,60,304
2,67,60,0
2,64,62,0
2,72,71,304
2,67,66,0
2,64,66,0
2,72,60,310
2,67,64,0
2,64,66,0
2,72,62,336
2,67,58,0
2,64,64,0
2,72,66,326
2,67,62,0
2,64,66,0
2,72,71,330
2,67,62,0
2,64,66,0
2,72,71,310
2,69,66,0
2,65,66,0
2,72,66,316
2,69,56,0
2,65,71,0
2,72,68,310
2,67,64,0
2,64,64,0
2,72,58,314
2,67,60,0
2,64,62,0
2,72,71,332
2,67,62,0
2,64,66,0
2,72,52,312
2,67,52,0
2,64,56,0
2,72,64,318
2,67,60,0
2,64,62,0
2,72,68,312
2,67,58,0
2,64,60,0
2,71,60,326
2,67,60,0
2,62,62,0
2,71,62,328
2,67,60,0
2,62,71,0
2,72,52,324
2,67,58,0
2,64,52,0
2,72,54,324
2,67,54,0
2,64,56,0
2,72,60,324
2,67,52,0
2,64,54,0
2,72,58,306
2,67,58,0
2,64,60,0
2,72,56,310
2,67,56,0
2,64,58,0
2,72,62,316
2,67,54,0
2,64,62,0
2,72,64,308
2,67,50,0
2,64,60,0
2,72,68,310
2,67,60,0
2,64,60,0
2,69,60,310
2,65,62,0
2,60,62,0
2,69,62,340
2,65,60,0
2,60,74,0
2,69,60,344
2,65,54,0
2,60,60,0
2,69,68,352
2,65,74,0
2,60,74,0
2,69,66,336
2,65,68,0
2,60,66,0
2,69,64,344
2,65,64,0
2,60,74,0
2,69,56,334
2,65,64,0
2,60,62,0
2,69,64,332
2,65,74,0
2,60,74,0
2,81,62,328
2,77,58,0
2,72,50,0
2,81,66,342
2,77,64,0
2,72,58,0
2,82,71,328
2,77,64,0
2,74,60,0
2,82,66,344
2,77,74,0
2,74,64,0
2,81,66,330
2,77,64,0
2,72,56,0
2,81,60,342
2,77,62,0
2,72,64,0
2,77,64,338
2,72,58,0
2,69,64,0
2,77,60,324
2,72,62,0
2,69,62,0
2,77,62,328
2,72,60,0
2,69,62,0
2,77,50,324
2,72,64,0
2,69,54,0
2,77,64,328
2,74,64,0
2,70,62,0
2,77,58,320
2,74,74,0
2,70,66,0
2,77,56,318
2,72,71,0
2,69,56,0
2,77,62,322
2,72,66,0
2,69,62,0
2,77,62,324
2,72,60,0
2,69,62,0
2,77,58,322
2,72,66,0
2,69,56,0
2,77,60,324
2,72,66,0
2,69,60,0
2,77,56,332
2,72,66,0
2,69,54,0
2,77,60,326
2,74,68,0
2,70,62,0
2,77,62,324
2,74,74,0
2,70,68,0
2,77,62,314
2,72,66,0
2,69,62,0
2,77,62,332
2,72,71,0
2,69,64,0
2,77,62,326
2,72,66,0
2,69,62,0
2,77,62,324
2,72,68,0
2,69,64,0
2,77,68,328
2,72,71,0
2,69,71,0
2,77,77,324
2,72,74,0
2,69,80,0
2,76,68,328
2,72,62,0
2,67,74,0
2,76,66,328
2,72,62,0
2,67,71,0
2,77,62,334
2,72,68,0
2,69,68,0
2,77,62,328
2,72,71,0
2,69,62,0
2,77,62,324
2,72,71,0
2,69,60,0
2,77,66,326
2,72,71,0
2,69,68,0
2,77,62,326
2,72,74,0
2,69,68,0
2,77,62,326
2,72,74,0
2,69,71,0
2,77,68,330
2,72,74,0
2,69,74,0
2,77,71,330
2,72,83,0
2,69,74,0
2,81,62,328
2,77,58,0
2,72,50,0
2,81,66,342
2,77,64,0
2,72,58,0
2,82,71,328
2,77,64,0
2,74,60,0
2,82,66,344
2,77,74,0
2,74,64,0
2,81,66,330
2,77,64,0
2,72,56,0
2,81,60,342
2,77,62,0
2,72,64,0
2,77,64,338
2,72,58,0
2,69,64,0
2,77,60,324
2,72,62,0
2,69,62,0
2,77,62,328
2,72,60,0
2,69,62,0
2,77,50,324
2,72,64,0
2,69,54,0
2,77,64,328
2,74,64,0
2,70,62,0
2,77,58,320
2,74,74,0
2,70,66,0
2,77,56,318
2,72,71,0
2,69,56,0
2,77,62,322
2,72,66,0
2,69,62,0
2,77,62,324
2,72,60,0
2,69,62,0
2,77,58,322
2,72,66,0
2,69,56,0
2,77,60,324
2,72,66,0
2,69,60,0
2,77,56,332
2,72,66,0
2,69,54,0
2,77,60,326
2,74,68,0
2,70,62,0
2,77,62,324
2,74,74,0
2,70,68,0
2,77,62,314
2,72,66,0
2,69,62,0
2,77,62,332
2,72,71,0
2,69,64,0
2,77,62,326
2,72,66,0
2,69,62,0
2,77,62,324
2,72,68,0
2,69,64,0
2,77,68,328
2,72,71,0
2,69,71,0
2,77,77,324
2,72,74,0
2,69,80,0
2,76,68,328
2,72,62,0
2,67,74,0
2,76,66,328
2,72,62,0
2,67,71,0
2,77,62,334
2,72,68,0
2,69,68,0
2,77,62,328
2,72,71,0
2,69,62,0
2,77,62,324
2,72,71,0
2,69,60,0
2,77,66,326
2,72,71,0
2,69,68,0
2,77,62,326
2,72,74,0
2,69,68,0
2,77,62,326
2,72,74,0
2,69,71,0
2,77,68,330
2,72,74,0
2,69,74,0
2,77,71,330
2,72,83,0
2,69,74,0
2,72,60,328
2,69,64,0
2,65,64,0
2,72,71,326
2,69,74,0
2,65,71,0
2,72,71,328
2,69,71,0
2,65,71,0
2,72,74,328
2,69,77,0
2,65,71,0
2,74,71,330
2,70,80,0
2,65,77,0
2,74,77,332
2,70,64,0
2,65,74,0
2,74,71,326
2,70,74,0
2,65,74,0
2,74,68,332
2,70,74,0
2,65,71,0
2,74,71,330
2,70,80,0
2,65,74,0
2,74,71,328
2,70,74,0
2,65,74,0
2,74,71,328
2,70,74,0
2,65,71,0
2,74,71,330
2,70,74,0
2,65,74,0
2,74,68,334
2,70,77,0
2,65,74,0
2,74,86,334
2,70,74,0
2,65,80,0
2,74,80,332
2,70,74,0
2,65,77,0
2,74,89,330
2,70,80,0
2,65,86,0
2,72,74,334
2,69,71,0
2,65,77,0
2,72,77,324
2,69,74,0
2,65,77,0
2,72,77,324
2,69,74,0
2,65,77,0
2,72,77,326
2,69,74,0
2,65,77,0
2,72,71,328
2,69,71,0
2,65,71,0
