track,note,velocity,time
0,64,127,135
0,60,127,0
0,55,127,0
0,52,127,0
0,36,117,0
0,36,127,0
0,35,100,1
0,55,109,0
0,60,109,0
0,64,109,1
0,64,127,3
0,67,121,0
0,60,118,0
0,52,127,0
0,55,127,0
0,60,127,1
0,31,127,0
0,64,127,1
0,31,117,0
0,35,100,2
0,55,109,37
0,60,109,1
0,64,109,1
0,67,114,0
0,60,110,0
0,64,121,0
0,52,127,0
0,55,127,0
0,60,127,1
0,36,127,0
0,64,127,1
0,36,117,0
0,35,100,2
0,55,91,0
0,60,91,1
0,64,91,1
0,60,114,2
0,64,121,0
0,67,117,0
0,52,127,0
0,55,127,0
0,60,127,1
0,31,127,0
0,64,127,1
0,31,117,0
0,35,100,2
0,55,109,35
0,60,109,1
0,64,109,1
0,67,121,0
0,64,125,0
0,60,118,0
0,52,127,0
0,55,127,0
0,60,127,1
0,36,127,0
0,76,113,0
0,64,127,1
0,36,117,0
0,91,108,1
0,35,100,1
0,77,104,0
0,93,100,0
0,76,95,1
0,91,98,1
0,55,101,0
0,60,101,1
0,77,100,0
0,64,101,0
0,93,87,0
0,67,121,0
0,64,124,0
0,60,116,0
0,76,100,0
0,91,85,2
0,77,100,1
0,93,83,1
0,52,127,0
0,55,127,0
0,60,127,1
0,31,127,0
0,64,127,1
0,31,117,0
0,35,100,0
0,76,93,0
0,91,83,0
0,77,93,2
0,93,83,2
0,76,93,0
0,91,83,0
0,55,105,1
0,77,89,0
0,60,105,0
0,64,105,1
0,93,83,1
0,64,125,1
0,67,124,0
0,60,118,0
0,76,87,7
0,91,83,2
0,77,85,0
0,93,83,0
0,52,127,0
0,55,127,0
0,60,127,1
0,36,127,0
0,76,83,1
0,64,127,0
0,36,117,0
0,35,100,1
0,91,76,0
0,77,74,1
0,93,78,2
0,76,83,0
0,91,85,0
0,77,83,0
0,55,97,0
0,93,85,1
0,60,97,0
0,64,97,0
0,64,127,2
0,67,127,1
0,60,122,0
0,76,85,1
0,91,85,0
0,77,85,1
0,93,85,2
0,52,127,0
0,55,127,0
0,60,127,0
0,31,127,0
0,64,127,1
0,31,117,0
0,76,83,0
0,35,100,1
0,91,85,0
0,77,83,1
0,93,78,2
0,76,87,12
0,91,78,0
0,55,109,1
0,60,109,1
0,64,109,1
0,77,85,1
0,67,121,1
0,64,125,0
0,60,120,1
0,93,78,0
0,76,85,0
0,91,81,0
0,77,83,0
0,93,87,2
0,52,127,0
0,55,127,0
0,60,127,1
0,36,127,0
0,76,87,0
0,64,127,0
0,36,117,0
0,91,87,1
0,27,81,1
0,35,100,0
0,77,91,0
0,93,87,0
0,76,87,1
0,91,87,1
0,55,102,0
0,60,102,1
0,77,93,0
0,64,102,0
0,93,78,0
0,27,40,0
0,64,124,0
0,67,118,0
0,60,114,0
0,76,81,0
0,91,74,0
0,77,89,1
0,93,74,1
0,52,127,0
0,55,127,0
0,60,127,1
0,31,127,0
0,64,127,1
0,31,117,0
0,27,84,0
0,38,72,0
0,35,100,0
0,76,83,0
0,91,74,0
0,77,89,4
0,93,74,2
0,76,89,0
0,91,74,0
0,55,118,1
0,77,81,0
0,60,118,0
0,64,118,1
0,93,76,1
0,64,122,1
0,67,120,0
0,27,38,0
0,60,118,0
0,76,81,7
0,91,81,2
0,77,81,0
0,93,83,0
0,52,125,0
0,55,125,0
0,60,125,1
0,36,127,0
0,76,83,1
0,64,125,0
0,36,117,0
0,27,81,1
0,35,100,0
0,91,83,0
0,77,78,1
0,93,83,2
0,76,83,0
0,91,83,0
0,77,81,0
0,55,104,0
0,93,78,1
0,60,104,0
0,64,104,0
0,27,36,2
0,67,121,0
0,60,121,0
0,64,127,0
0,76,85,1
0,91,78,1
0,77,85,1
0,93,78,2
0,52,127,0
0,55,127,0
0,60,127,0
0,31,127,0
0,64,127,1
0,31,117,0
0,76,83,0
0,27,84,1
0,38,72,0
0,35,100,0
0,91,78,0
0,77,83,1
0,93,78,2
0,76,87,12
0,91,85,0
0,55,111,1
0,60,111,1
0,64,111,1
0,64,124,1
0,67,125,0
0,60,120,0
0,77,85,0
0,27,39,1
0,93,85,1
0,76,85,0
0,91,87,0
0,77,83,0
0,93,87,2
0,52,127,0
0,55,127,0
0,76,83,0
0,60,127,1
0,36,127,0
0,64,127,0
0,36,117,0
0,91,87,0
0,27,81,2
0,35,100,0
0,77,78,0
0,93,87,2
0,76,83,1
0,91,87,1
0,77,81,0
0,93,87,0
0,55,104,0
0,60,104,0
0,64,104,1
0,27,38,2
0,67,121,0
0,60,112,0
0,64,124,0
0,76,85,0
0,91,87,2
0,77,85,0
0,93,76,2
0,52,127,0
0,55,127,0
0,76,83,0
0,60,127,0
0,31,127,0
0,64,127,1
0,31,117,0
0,91,83,1
0,27,84,1
0,38,72,0
0,35,100,0
0,77,83,1
0,93,83,2
0,76,87,12
0,91,87,1
0,55,111,2
0,60,111,1
0,77,85,1
0,64,111,0
0,93,85,2
0,27,37,0
0,60,114,0
0,67,122,1
0,64,127,0
0,76,85,0
0,91,85,0
0,77,83,1
0,93,83,2
0,52,127,0
0,55,127,0
0,60,127,1
0,36,127,0
0,64,127,1
0,36,117,0
0,27,84,2
0,35,100,0
0,31,127,0
0,55,102,0
0,60,102,1
0,84,94,1
0,64,102,0
0,31,105,0
0,88,94,0
0,27,38,2
0,60,117,0
0,67,122,0
0,64,127,0
0,52,127,0
0,55,127,0
0,60,127,1
0,33,127,0
0,64,127,1
0,33,107,0
0,84,94,1
0,88,94,0
0,27,81,1
0,38,72,0
0,35,100,0
0,35,127,16
0,55,116,1
0,86,97,1
0,60,116,0
0,89,97,0
0,64,116,1
0,35,108,0
0,27,36,2
0,67,122,0
0,60,121,0
0,64,127,0
0,52,127,0
0,55,127,0
0,60,127,1
0,36,127,0
0,64,127,1
0,36,117,0
0,27,81,2
0,35,100,0
0,88,111,0
0,91,111,0
0,55,107,0
0,60,107,1
0,64,107,1
0,27,40,2
0,64,127,1
0,60,121,0
0,67,122,0
0,52,127,0
0,55,127,0
0,60,127,1
0,31,127,0
0,84,107,0
0,64,127,1
0,31,117,0
0,88,107,0
0,27,84,2
0,38,72,0
0,35,100,0
0,55,123,37
0,60,123,1
0,64,123,1
0,27,38,2
0,67,121,0
0,60,121,0
0,64,127,0
0,53,127,8
0,57,127,1
0,60,127,1
0,41,127,0
0,65,127,1
0,41,117,0
0,27,81,2
0,35,100,0
0,57,102,0
0,93,112,0
0,60,102,0
0,65,102,0
0,96,112,1
0,27,36,1
0,69,120,0
0,65,127,0
0,60,127,0
0,53,127,0
0,57,127,0
0,60,127,1
0,36,127,0
0,65,127,1
0,36,117,0
0,27,84,2
0,38,72,0
0,35,100,0
0,57,127,16
0,60,127,1
0,65,127,1
0,89,111,0
0,27,39,2
0,93,112,0
0,60,121,1
0,69,121,0
0,65,127,0
0,52,127,0
0,55,127,0
0,60,127,1
0,36,127,0
0,88,112,0
0,64,127,1
0,36,117,0
0,91,112,1
0,27,81,1
0,35,100,0
0,55,107,0
0,60,107,1
0,64,107,1
0,27,38,0
0,64,127,0
0,60,118,0
0,67,125,0
0,52,127,0
0,55,127,0
0,60,127,1
0,31,127,0
0,64,127,1
0,31,117,0
0,84,105,0
0,27,84,2
0,38,72,0
0,35,100,0
0,88,105,0
0,55,112,37
0,60,112,1
0,64,112,1
0,64,127,2
0,27,37,0
0,67,120,0
0,60,117,0
0,52,127,0
0,55,127,0
0,60,127,1
0,36,127,0
0,64,127,1
0,36,117,0
0,27,84,2
0,35,100,0
0,84,112,0
0,55,101,0
0,60,101,1
0,88,112,1
0,64,101,0
0,27,38,0
0,64,127,0
0,60,116,0
0,67,120,1
0,52,127,0
0,55,127,0
0,84,104,0
0,60,127,1
0,31,127,0
0,64,127,1
0,31,117,0
0,88,104,0
0,27,81,2
0,38,72,0
0,35,100,0
0,55,114,25
0,60,114,1
0,86,102,0
0,64,114,1
0,89,102,1
0,27,36,1
0,60,118,0
0,67,121,0
0,64,127,0
0,52,127,0
0,55,127,0
0,60,127,1
0,36,127,0
0,64,127,1
0,36,117,0
0,27,81,2
0,35,100,0
0,88,100,0
0,91,100,1
0,55,102,0
0,60,102,1
0,64,102,1
0,27,40,2
0,60,116,0
0,67,118,0
0,64,125,0
0,52,127,0
0,55,127,0
0,60,127,1
0,31,127,0
0,64,127,1
0,31,117,0
0,84,109,1
0,27,84,1
0,38,72,0
0,35,100,0
0,88,109,0
0,36,121,8
0,55,118,1
0,60,118,1
0,64,118,1
0,36,99,0
0,27,38,2
0,60,116,0
0,67,118,0
0,64,125,0
0,53,127,8
0,57,127,1
0,60,127,1
0,41,127,0
0,93,105,0
0,65,127,1
0,41,117,0
0,96,105,1
0,27,81,1
0,35,100,0
0,89,107,0
0,57,101,0
0,60,101,1
0,93,107,1
0,65,101,0
0,27,36,2
0,60,117,0
0,69,116,1
0,65,127,0
0,53,127,0
0,57,127,0
0,60,127,1
0,36,127,0
0,65,127,1
0,36,117,0
0,27,84,2
0,38,72,0
0,35,100,0
0,57,125,35
0,88,109,1
0,60,125,0
0,65,125,1
0,91,109,1
0,27,39,1
0,65,125,0
0,60,114,0
0,69,117,0
0,52,127,8
0,55,127,1
0,60,127,1
0,36,127,0
0,64,127,1
0,36,117,0
0,27,81,2
0,35,100,0
0,55,96,0
0,60,96,1
0,64,96,1
0,27,38,2
0,64,127,0
0,60,118,0
0,67,124,1
0,52,127,0
0,55,127,0
0,60,127,1
0,31,127,0
0,64,127,1
0,31,117,0
0,27,84,2
0,38,72,0
0,35,100,0
0,55,109,35
0,60,109,1
0,64,109,1
0,27,37,2
0,67,121,0
0,64,125,0
0,60,118,1
0,52,127,0
0,55,127,0
0,60,127,1
0,36,127,0
0,64,127,1
0,36,117,0
0,27,84,2
0,35,100,0
0,31,127,0
0,84,100,0
0,88,100,0
0,55,109,0
0,60,109,1
0,64,109,1
0,31,107,0
0,64,125,2
0,27,38,0
0,60,117,0
0,67,122,0
0,52,127,0
0,55,127,0
0,60,127,1
0,33,127,0
0,64,127,1
0,33,108,0
0,84,97,0
0,88,97,1
0,27,81,1
0,38,72,0
0,35,100,0
0,35,127,21
0,86,94,1
0,55,111,0
0,60,111,1
0,89,94,1
0,64,111,0
0,35,113,0
0,27,36,2
0,64,127,0
0,67,121,1
0,60,120,0
0,52,127,0
0,55,127,0
0,60,127,1
0,36,127,0
0,88,105,1
0,64,127,0
0,36,117,0
0,27,81,2
0,35,100,0
0,91,105,0
0,55,104,0
0,60,104,1
0,64,104,0
0,27,40,1
0,64,127,1
0,67,121,0
0,60,122,0
0,52,127,0
0,55,127,0
0,60,127,1
0,31,127,0
0,84,107,0
0,64,127,1
0,31,117,0
0,88,107,1
0,27,84,1
0,38,72,0
0,35,100,0
0,55,125,37
0,60,125,1
0,64,125,1
0,27,38,0
0,67,121,0
0,60,118,0
0,64,127,0
0,53,127,8
0,57,127,1
0,60,127,1
0,41,127,0
0,93,109,0
0,65,127,1
0,41,117,0
0,96,109,1
0,27,81,1
0,35,100,0
0,89,104,0
0,93,104,0
0,57,102,0
0,60,102,1
0,65,102,1
0,27,36,0
0,60,118,0
0,69,120,0
0,65,127,0
0,53,127,0
0,57,127,0
0,60,127,1
0,36,127,0
0,65,127,1
0,36,117,0
0,27,84,2
0,38,72,0
0,35,100,0
0,57,123,0
0,60,123,0
0,65,123,1
0,88,105,0
0,27,39,2
0,69,121,0
0,91,105,0
0,60,118,1
0,65,127,0
0,52,127,7
0,55,127,1
0,60,127,1
0,36,127,0
0,64,127,1
0,36,117,0
0,27,81,2
0,35,100,0
0,55,101,0
0,84,105,1
0,60,101,0
0,64,101,1
0,88,105,1
0,27,38,1
0,64,127,0
0,67,124,0
0,60,118,0
0,52,127,0
0,55,127,0
0,60,127,1
0,31,127,0
0,64,127,1
0,31,117,0
0,27,84,2
0,38,72,0
0,35,100,0
0,55,114,37
0,60,114,1
0,64,114,1
0,27,37,2
0,60,120,0
0,64,127,1
0,67,122,0
0,52,127,0
0,55,127,0
0,60,127,1
0,36,125,0
0,64,127,1
0,36,115,0
0,27,84,2
0,35,100,0
0,84,105,0
0,55,109,0
0,60,109,1
0,88,105,1
0,64,109,0
0,27,38,0
0,64,127,1
0,67,122,0
0,60,121,0
0,52,127,0
0,55,127,0
0,60,127,1
0,31,127,0
0,64,127,1
0,31,117,0
0,84,94,0
0,27,81,2
0,38,72,0
0,35,100,0
0,88,94,0
0,55,111,23
0,60,111,1
0,86,104,0
0,64,111,1
0,89,104,1
0,27,36,1
0,67,121,0
0,64,127,0
0,60,118,0
0,52,127,0
0,55,127,0
0,88,105,0
0,60,127,1
0,36,127,0
0,64,127,1
0,36,117,0
0,91,105,0
0,27,81,2
0,35,100,0
0,55,107,0
0,60,107,1
0,64,107,1
0,27,40,2
0,64,127,0
0,67,121,1
0,60,118,0
0,52,127,0
0,55,127,0
0,88,111,1
0,60,127,0
0,35,127,0
0,64,127,1
0,35,117,0
0,91,111,1
0,27,84,1
0,38,72,0
0,35,100,0
0,33,127,26
0,55,116,1
0,60,116,1
0,64,116,1
0,33,105,0
0,27,38,2
0,67,122,1
0,64,127,0
0,60,121,0
0,53,127,10
0,50,127,0
0,55,127,1
0,89,98,1
0,59,127,0
0,31,127,0
0,67,127,1
0,31,117,0
0,93,98,1
0,27,81,1
0,35,100,0
0,53,101,0
0,55,101,0
0,86,102,1
0,59,101,0
0,67,101,1
0,89,102,1
0,65,121,1
0,27,36,0
0,67,121,1
0,62,125,0
0,59,124,0
0,53,127,0
0,50,127,0
0,55,127,0
0,59,127,1
0,33,127,0
0,67,127,1
0,33,104,0
0,27,84,2
0,38,72,0
0,35,100,0
0,35,127,27
0,53,125,0
0,55,125,1
0,59,125,1
0,67,125,1
0,35,101,0
0,65,121,2
0,27,39,0
0,59,116,1
0,67,121,0
0,62,127,0
0,52,127,8
0,55,127,1
0,60,127,1
0,36,127,0
0,64,127,1
0,36,117,0
0,84,87,0
0,27,81,2
0,35,100,0
0,88,87,1
0,86,91,0
0,89,91,0
0,84,87,0
0,88,87,1
0,55,105,0
0,60,105,1
0,64,105,1
0,86,93,0
0,64,127,1
0,60,117,0
0,27,38,0
0,67,120,0
0,89,93,0
0,84,81,0
0,88,81,2
0,86,89,2
0,89,89,1
0,52,127,0
0,55,127,0
0,60,127,1
0,31,127,0
0,64,127,1
0,31,117,0
0,27,84,2
0,38,72,0
0,35,100,0
0,84,83,0
0,88,83,0
0,86,89,3
0,89,89,4
0,84,89,3
0,88,89,0
0,55,112,0
0,60,112,1
0,64,112,1
0,86,81,0
0,27,37,0
0,67,124,0
0,60,118,0
0,64,127,1
0,89,81,0
0,84,81,8
0,88,81,0
0,86,81,0
0,89,81,0
0,52,127,0
0,55,127,0
0,60,127,1
0,36,127,0
0,84,83,1
0,64,127,0
0,36,117,0
0,27,84,0
0,35,100,0
0,88,83,0
0,86,78,3
0,89,78,2
0,84,83,0
0,88,83,1
0,86,81,0
0,55,100,0
0,60,100,1
0,64,100,1
0,89,81,0
0,27,38,0
0,67,120,1
0,64,125,0
0,60,120,0
0,84,85,1
0,88,85,1
0,86,85,3
0,89,85,2
0,52,127,0
0,55,127,0
0,60,127,0
0,31,127,0
0,64,127,1
0,31,117,0
0,84,83,0
0,27,81,0
0,38,72,0
0,35,100,0
0,88,83,1
0,86,83,3
0,89,83,3
0,84,87,10
0,88,87,2
0,55,111,3
0,60,111,0
0,64,111,1
0,86,85,1
0,27,36,1
0,67,121,0
0,60,117,0
0,64,127,0
0,89,85,1
0,84,85,0
0,88,85,0
0,86,83,2
0,89,83,3
0,52,127,0
0,55,127,0
0,84,83,0
0,60,127,1
0,36,127,0
0,64,127,1
0,36,117,0
0,27,81,1
0,35,100,0
0,88,83,0
0,86,78,2
0,89,78,3
0,84,83,1
0,88,83,0
0,86,81,0
0,55,104,0
0,89,81,1
0,60,104,0
0,64,104,0
0,27,40,2
0,60,118,0
0,67,121,0
