track,note,velocity,time
1,48,97,1536
1,67,56,0
1,60,56,0
1,64,56,0
1,43,97,132
1,64,60,0
1,67,60,0
1,60,56,0
1,48,97,124
1,60,60,0
1,67,60,0
1,64,64,0
1,43,97,124
1,60,56,0
1,67,56,0
1,64,60,0
1,48,97,112
1,67,56,0
1,64,60,0
1,60,56,0
1,43,97,128
1,67,56,0
1,64,60,0
1,60,56,0
1,48,97,128
1,64,60,0
1,60,56,0
1,67,60,0
1,43,97,124
1,64,64,0
1,67,60,0
1,60,56,0
1,48,97,104
1,60,56,0
1,67,56,0
1,64,60,0
1,43,97,116
1,60,52,0
1,64,60,0
1,67,60,0
1,48,97,112
1,64,64,188
1,67,64,0
1,60,56,0
1,43,97,112
1,67,56,0
1,64,64,0
1,60,56,0
1,48,97,104
1,67,60,0
1,64,60,0
1,60,56,0
1,43,97,116
1,64,64,0
1,67,60,0
1,60,56,0
1,48,97,104
1,60,60,24
1,64,64,0
1,67,64,0
1,43,97,4
1,45,97,36
1,60,44,60
1,67,60,0
1,64,64,0
1,47,97,4
1,48,97,24
1,60,56,0
1,67,64,0
1,64,64,0
1,43,97,116
1,64,64,0
1,60,56,0
1,67,64,0
1,53,97,104
1,60,56,0
1,65,73,0
1,69,64,0
1,48,97,88
1,60,64,0
1,69,64,0
1,65,73,0
1,48,97,104
1,60,60,0
1,67,60,0
1,64,64,0
1,43,97,120
1,60,60,0
1,67,60,0
1,64,64,0
1,48,97,100
1,64,64,188
1,60,60,0
1,67,56,0
1,43,97,112
1,60,64,0
1,67,64,0
1,64,73,0
1,48,97,120
1,67,60,0
1,60,56,0
1,64,73,0
1,43,97,112
1,64,73,0
1,67,64,0
1,60,56,0
1,53,97,108
1,60,60,0
1,65,60,0
1,69,56,0
1,48,97,128
1,60,60,0
1,65,73,0
1,69,64,0
1,48,97,108
1,60,60,0
1,67,64,0
1,64,64,0
1,43,97,112
1,64,64,0
1,67,64,0
1,60,56,0
1,48,97,88
1,67,64,188
1,60,64,0
1,64,73,0
1,43,97,108
1,67,64,0
1,64,73,0
1,60,64,0
1,48,97,108
1,67,64,0
1,64,64,0
1,60,56,0
1,43,97,100
1,60,64,0
1,67,73,0
1,64,73,0
1,53,97,108
1,69,60,0
1,60,60,0
1,65,73,0
1,48,97,96
1,60,60,0
1,69,64,0
1,65,56,0
1,48,97,96
1,60,60,0
1,67,64,0
1,64,64,0
1,43,97,112
1,67,64,0
1,60,64,0
1,64,73,0
1,48,97,96
1,60,64,0
1,67,64,0
1,64,60,0
1,43,97,100
1,60,64,0
1,67,64,0
1,64,64,0
1,48,97,108
1,60,60,0
1,64,64,0
1,67,60,0
1,47,97,112
1,64,64,36
1,60,60,0
1,67,60,0
1,45,97,4
1,43,97,24
1,59,60,0
1,67,64,0
1,62,73,0
1,45,97,96
1,59,56,36
1,62,64,0
1,67,60,0
1,47,97,4
1,48,97,20
1,67,64,0
1,64,64,0
1,60,60,0
1,43,97,104
1,60,56,0
1,67,60,0
1,64,64,0
1,48,97,104
1,60,64,0
1,64,73,0
1,67,60,0
1,43,97,112
1,64,64,188
1,67,56,0
1,60,60,0
1,48,97,104
1,64,64,188
1,60,56,0
1,67,60,0
1,43,97,112
1,64,60,188
1,60,56,0
1,67,60,0
1,48,97,96
1,60,60,20
1,67,60,0
1,64,60,0
1,43,97,8
1,45,97,24
1,64,64,36
1,67,60,0
1,60,56,0
1,47,97,4
1,48,97,28
1,60,60,0
1,64,60,0
1,67,60,0
1,43,97,108
1,64,64,0
1,60,60,0
1,67,64,0
1,53,97,104
1,69,56,0
1,65,64,0
1,60,60,0
1,48,97,108
1,60,60,0
1,65,64,0
1,69,64,0
1,48,97,100
1,67,73,0
1,64,64,0
1,60,64,0
1,43,97,96
1,60,73,0
1,64,73,0
1,67,64,0
1,48,97,84
1,60,56,0
1,64,64,0
1,67,64,0
1,43,97,92
1,60,56,0
1,64,64,0
1,67,60,0
1,48,97,84
1,60,56,0
1,64,64,0
1,67,64,0
1,43,97,108
1,60,64,0
1,67,64,0
1,64,64,0
1,53,97,116
1,60,64,188
1,65,73,0
1,69,64,0
1,48,97,88
1,65,64,0
1,60,64,0
1,69,60,0
1,48,97,92
1,60,64,0
1,67,60,0
1,64,64,0
1,43,97,112
1,60,64,0
1,67,64,0
1,64,73,0
1,48,97,92
1,60,60,0
1,67,60,0
1,64,64,0
1,43,97,108
1,64,64,188
1,60,56,0
1,67,64,0
1,48,97,92
1,60,52,0
1,67,60,0
1,64,64,0
1,43,97,100
1,60,60,0
1,64,64,0
1,67,64,0
1,53,97,88
1,60,60,0
1,65,64,0
1,69,56,0
1,48,97,96
1,60,60,0
1,69,64,0
1,65,64,0
1,48,97,88
1,67,64,188
1,64,64,0
1,60,60,0
1,43,97,104
1,64,64,188
1,67,64,0
1,60,56,0
1,48,97,80
1,60,60,0
1,67,60,0
1,64,64,0
1,43,97,92
1,60,60,0
1,67,64,0
1,64,64,0
1,48,97,88
1,67,60,0
1,60,64,0
1,64,64,0
1,47,97,100
1,67,73,40
1,64,64,0
1,60,60,0
1,45,97,4
1,43,97,44
1,67,73,8
1,59,64,0
1,62,73,0
1,45,97,92
1,67,73,40
1,59,60,0
1,62,73,0
1,47,97,4
1,48,97,32
1,67,64,0
1,64,64,0
1,60,56,0
1,43,97,104
1,60,60,0
1,67,60,0
1,64,64,0
1,48,97,100
1,67,64,0
1,64,60,0
1,60,60,0
1,43,97,96
1,60,60,188
1,67,64,0
1,64,64,0
1,48,97,104
1,67,64,188
1,60,60,0
1,64,73,0
1,43,97,100
1,67,64,188
1,64,73,0
1,60,52,0
1,48,97,92
1,64,64,24
1,60,56,4
1,67,60,0
1,43,97,4
1,45,97,24
1,64,64,28
1,67,60,0
1,60,60,0
1,47,97,4
1,48,97,32
1,60,56,0
1,67,60,0
1,64,64,0
1,48,97,92
1,64,64,188
1,67,64,0
1,60,56,0
1,52,97,96
1,67,60,0
1,64,60,0
1,60,52,0
1,52,97,84
1,64,64,188
1,67,64,0
1,60,60,0
1,53,97,76
1,69,64,0
1,60,56,0
1,65,73,0
1,48,97,88
1,60,56,0
1,65,60,0
1,69,64,0
1,53,97,84
1,60,64,0
1,69,64,0
1,65,64,0
1,48,97,84
1,69,60,0
1,65,64,0
1,60,56,0
1,53,97,88
1,60,52,188
1,65,64,0
1,69,64,0
1,48,97,96
1,60,56,0
1,65,64,0
1,69,64,0
1,53,97,96
1,60,56,0
1,69,60,0
1,65,60,0
1,48,97,92
1,60,64,0
1,69,64,0
1,65,64,0
1,53,97,84
1,60,60,0
1,69,64,0
1,65,73,0
1,48,97,84
1,60,56,0
1,65,64,0
1,69,73,0
1,53,97,92
1,60,60,20
1,65,64,0
1,69,73,0
1,52,97,8
1,50,97,24
1,65,73,24
1,69,64,0
1,60,64,0
1,48,97,4
1,67,56,136
1,60,56,4
1,64,73,0
1,43,97,92
1,60,60,0
1,67,60,0
1,64,73,0
1,48,97,76
1,60,60,24
1,67,64,0
1,64,64,0
1,43,97,4
1,45,97,24
1,64,64,12
1,60,56,4
1,67,60,0
1,47,97,4
1,48,97,12
1,64,64,188
1,67,56,0
1,60,64,0
1,48,97,80
1,67,60,0
1,64,64,0
1,60,56,0
1,52,97,88
1,67,64,188
1,64,64,0
1,60,52,0
1,52,97,80
1,60,56,188
1,67,64,0
1,64,73,0
1,53,97,72
1,65,64,188
1,60,60,0
1,69,60,0
1,48,97,72
1,65,64,0
1,60,60,0
1,69,60,0
1,53,97,80
1,69,60,0
1,65,64,0
1,60,56,0
1,48,97,88
1,65,64,0
1,60,56,0
1,69,60,0
1,53,97,68
1,60,56,0
1,69,64,0
1,65,73,0
1,48,97,72
1,60,60,0
1,69,64,0
1,65,64,0
1,53,97,100
1,65,64,0
1,69,60,0
1,60,56,0
1,48,97,96
1,69,64,0
1,65,73,0
1,60,60,0
1,53,97,80
1,60,60,188
1,65,56,0
1,69,60,0
1,48,97,76
1,69,60,188
1,65,64,0
1,60,64,0
1,53,97,76
1,69,64,28
1,65,56,0
1,60,64,4
1,52,97,4
1,50,97,20
1,60,60,32
1,69,64,0
1,65,64,0
1,48,97,4
1,64,64,184
1,67,56,0
1,60,56,4
1,43,97,56
1,60,56,0
1,67,60,0
1,64,64,0
1,48,97,64
1,60,56,28
1,67,64,0
1,64,64,0
1,47,97,4
1,45,97,24
1,60,60,28
1,67,64,0
1,64,73,0
1,43,97,4
1,67,60,188
1,59,60,0
1,62,73,0
1,50,97,56
1,59,60,0
1,67,64,0
1,62,64,0
1,55,97,48
1,67,60,0
1,59,64,0
1,62,73,0
1,50,97,64
1,67,64,188
1,59,56,0
1,62,64,0
1,48,97,48
1,64,60,0
1,60,56,0
1,67,60,0
1,43,97,88
1,60,56,0
1,67,60,0
1,64,64,0
1,48,97,60
1,60,52,0
1,67,56,0
1,64,60,0
1,43,97,80
1,67,60,0
1,60,56,0
1,64,60,0
1,48,97,48
1,60,56,0
1,67,56,0
1,64,60,0
1,43,97,76
1,67,56,0
1,64,56,0
1,60,56,0
1,48,97,52
1,67,64,0
1,64,60,0
1,60,60,4
1,48,97,72
1,67,73,0
1,60,60,0
1,64,73,0
1,53,97,192
1,69,64,180
1,60,56,0
1,65,64,0
1,48,97,144
1,69,64,188
1,65,73,0
1,60,60,0
1,53,97,140
1,69,64,0
1,65,64,0
1,60,48,0
1,48,97,152
1,69,60,188
1,65,64,0
1,60,56,0
1,53,97,132
1,69,64,0
1,65,64,0
1,60,52,0
1,48,97,140
1,65,73,0
1,69,60,0
1,60,60,0
1,53,97,128
1,69,64,28
1,65,64,0
1,60,60,4
1,48,97,4
1,50,97,24
1,65,64,24
1,69,60,0
1,60,60,0
1,52,97,4
1,53,97,28
1,60,48,0
1,65,73,0
1,69,60,0
1,48,97,140
1,69,64,0
1,65,64,0
1,60,60,0
1,46,97,132
1,62,73,188
1,70,56,0
1,65,73,0
1,53,97,128
1,70,56,0
1,62,64,0
1,65,64,0
1,53,97,124
1,60,64,0
1,65,64,0
1,69,64,0
1,48,97,128
1,60,52,0
1,69,73,0
1,65,60,0
1,53,97,128
1,65,64,0
1,69,60,0
1,60,56,0
1,48,97,132
1,69,64,0
1,60,52,0
1,65,56,0
1,53,97,124
1,69,64,0
1,65,64,0
1,60,52,0
1,48,97,140
1,69,64,0
1,60,56,0
1,65,64,0
1,46,97,136
1,70,56,188
1,65,60,0
1,62,73,0
1,53,97,128
1,65,73,0
1,70,60,0
1,62,64,0
1,53,97,120
1,69,60,0
1,60,56,0
1,65,64,0
1,48,97,132
1,69,64,0
1,65,73,0
1,60,56,0
1,53,97,132
1,65,64,0
1,60,60,0
1,69,64,0
1,48,97,136
1,69,64,0
1,65,64,0
1,60,56,0
1,53,97,136
1,69,64,0
1,65,64,0
1,60,48,0
1,48,97,132
1,65,64,0
1,69,64,0
1,60,56,0
1,46,97,128
1,70,60,188
1,62,64,0
1,65,56,0
1,53,97,124
1,70,60,0
1,65,73,0
1,62,64,0
1,53,97,124
1,65,64,188
1,60,56,0
1,69,64,0
1,48,97,128
1,65,64,0
1,69,64,0
1,60,60,0
1,53,97,124
1,65,60,0
1,60,52,0
1,69,73,0
1,48,97,136
1,69,64,0
1,65,56,0
1,60,56,0
1,53,97,132
1,65,64,188
1,69,64,0
1,60,56,0
1,52,97,120
1,69,64,28
1,60,60,0
1,65,64,0
1,50,97,4
1,48,97,24
1,64,64,0
1,67,64,0
1,60,60,0
1,50,97,112
1,64,64,28
1,67,73,0
1,60,64,0
1,52,97,4
1,53,97,28
1,69,64,188
1,65,73,0
1,60,56,0
1,48,97,116
1,65,73,0
1,69,60,0
1,60,56,0
1,53,97,112
1,60,60,0
1,69,64,0
1,65,73,0
1,48,97,128
1,69,64,0
1,60,60,0
1,65,64,0
1,53,97,128
1,69,64,0
1,65,64,0
1,60,56,0
1,48,97,124
1,69,60,188
1,65,73,0
1,60,52,0
1,53,97,120
1,65,64,16
1,69,73,0
1,60,60,4
1,48,97,4
1,50,97,24
1,69,64,20
1,65,60,0
1,60,60,0
1,52,97,8
1,53,97,24
1,65,64,188
1,60,56,0
1,69,56,0
1,48,97,124
1,69,64,188
1,60,60,0
1,65,73,0
1,46,97,108
1,65,73,0
1,62,73,0
1,70,56,0
1,53,97,116
1,70,60,188
1,65,64,0
1,62,64,0
1,53,97,116
1,69,73,188
1,65,73,0
1,60,64,0
1,48,97,116
1,65,64,0
1,60,64,0
1,69,73,0
1,53,97,136
1,69,64,0
1,65,64,0
1,60,56,0
1,48,97,136
1,69,64,0
1,65,60,0
1,60,56,0
1,53,97,140
1,60,60,188
1,65,64,0
1,69,64,0
1,48,97,124
1,69,64,188
1,60,64,0
1,65,73,0
1,46,97,128
1,62,73,188
1,70,60,0
1,65,64,0
1,53,97,108
1,70,60,188
1,62,73,0
1,65,73,0
1,53,97,116
1,65,73,0
1,69,60,0
1,60,60,0
1,48,97,108
1,69,60,0
1,65,64,0
1,60,48,0
1,53,97,96
1,65,64,188
1,60,60,0
1,69,60,0
1,48,97,124
1,60,64,0
1,65,73,0
1,69,73,0
1,53,97,116
1,60,60,0
1,65,73,0
1,69,64,0
1,48,97,116
1,65,64,0
1,60,64,0
1,69,64,0
1,46,97,112
1,70,60,0
1,62,73,0
1,65,64,0
1,53,97,104
1,70,64,188
1,62,64,0
1,65,73,0
1,53,97,112
1,69,64,188
1,60,56,0
1,65,60,0
1,48,97,132
1,69,73,188
1,65,73,0
1,60,60,0
1,53,97,108
1,69,64,0
1,60,60,0
1,65,64,0
1,48,97,108
1,69,64,0
1,65,64,0
1,60,56,0
1,53,97,128
1,69,64,188
1,60,60,0
1,65,64,0
1,52,97,128
1,65,73,28
1,69,64,0
1,60,60,0
1,50,97,4
1,48,97,20
1,67,60,0
1,60,64,0
1,64,64,0
1,50,97,108
1,64,73,24
1,67,60,0
1,60,73,0
1,52,97,4
1,53,97,28
1,69,64,0
1,60,56,0
1,65,64,0
1,48,97,108
1,65,64,0
1,69,64,0
1,60,56,0
1,53,97,108
1,65,73,188
1,69,64,0
1,60,56,0
1,48,97,120
1,69,64,188
1,65,64,0
1,60,56,0
1,53,97,120
1,65,64,188
1,69,60,0
1,60,48,0
1,48,97,108
1,65,60,0
1,69,60,0
1,60,52,0
1,53,97,128
1,69,64,28
1,65,64,0
1,60,60,0
1,48,97,8
1,50,97,28
1,65,73,28
1,60,64,4
1,69,64,0
1,52,97,4
1,53,97,24
1,60,56,188
1,65,64,0
1,69,64,0
1,53,97,100
1,69,64,0
1,65,73,0
1,60,60,0
1,57,97,108
1,69,64,188
1,60,64,0
1,65,60,0
1,57,97,108
1,65,73,188
1,60,64,0
1,69,64,0
1,58,97,100
1,62,73,188
1,65,73,0
1,70,60,0
1,53,97,100
1,62,64,0
1,70,56,0
1,65,64,0
1,58,97,104
1,62,60,0
1,70,56,0
1,65,64,0
1,53,97,76
1,62,64,0
1,70,56,0
1,65,73,0
1,58,97,96
1,62,64,0
1,65,60,0
1,70,56,0
1,53,97,104
1,70,56,188
1,65,64,0
1,62,73,0
1,58,97,104
1,65,73,188
1,62,64,0
1,70,60,0
1,53,97,104
1,70,60,0
1,62,73,0
1,65,64,0
1,58,97,120
1,62,64,188
1,70,60,0
1,65,64,0
1,53,97,108
1,65,73,0
1,62,73,0
1,70,52,0
1,58,97,124
1,65,73,28
1,70,60,0
1,62,73,4
1,57,97,4
1,55,97,24
1,62,64,36
1,70,60,0
1,65,73,0
1,53,97,4
1,65,73,188
1,60,56,0
1,69,64,0
1,48,97,112
1,65,64,0
1,69,73,0
1,60,64,0
1,53,97,96
1,69,64,0
1,65,60,0
1,60,56,0
1,48,97,108
1,69,60,188
1,60,56,0
1,65,60,0
1,52,97,4
1,53,97,92
1,65,64,0
1,69,64,0
1,60,56,0
1,53,97,112
1,60,64,188
1,65,60,0
1,69,64,0
1,57,97,108
1,60,60,188
1,69,64,0
1,65,60,0
1,57,97,116
