track,note,velocity,time
1,62,94,48
1,64,83,48
1,66,83,16
1,67,91,48
1,69,82,16
1,71,85,192
1,72,83,0
1,74,94,192
1,74,91,96
1,74,75,80
1,74,99,128
1,76,80,0
1,74,87,32
1,72,80,16
1,71,76,64
1,62,73,0
1,71,84,192
1,71,80,80
1,72,89,0
1,71,76,16
1,71,83,112
1,69,84,32
1,62,77,48
1,69,85,16
1,69,87,80
1,71,82,0
1,69,76,208
1,71,82,0
1,62,88,496
1,64,80,0
1,66,86,32
1,67,94,96
1,69,89,32
1,71,88,32
1,72,90,0
1,74,88,0
1,74,90,112
1,74,77,96
1,74,94,160
1,76,84,16
1,74,89,192
1,72,84,16
1,72,80,80
1,71,81,48
1,62,86,0
1,71,87,208
1,71,80,48
1,72,91,0
1,71,81,176
1,71,88,96
1,69,91,16
1,69,91,80
1,71,80,16
1,72,87,32
1,71,75,64
1,69,75,16
1,67,82,32
1,74,104,1344
1,76,96,112
1,74,87,48
1,74,83,256
1,74,76,64
1,74,85,96
1,74,80,96
1,74,80,96
1,74,79,80
1,76,79,80
1,74,83,48
1,74,87,112
1,74,82,48
1,74,88,48
1,74,96,128
1,74,91,128
1,74,88,128
1,76,87,112
1,74,88,48
1,74,76,112
1,74,86,128
1,74,96,128
1,74,96,128
1,72,78,0
1,71,74,80
1,74,104,1280
1,76,92,128
1,74,97,80
1,74,86,240
1,74,80,96
1,74,94,112
1,74,91,112
1,74,96,112
1,74,90,112
1,76,92,112
1,74,96,48
1,74,101,144
1,74,90,48
1,74,88,48
1,74,106,144
1,74,99,128
1,74,94,112
1,74,96,128
1,69,97,16
1,69,80,112
1,71,87,16
1,72,99,0
1,72,97,112
1,71,74,16
1,69,82,0
1,67,90,96
1,62,94,16
1,64,83,48
1,66,83,16
1,67,91,48
1,69,82,16
1,71,85,192
1,72,83,0
1,74,94,192
1,74,91,96
1,74,75,80
1,74,99,128
1,76,80,0
1,74,87,32
1,72,80,16
1,71,76,64
1,62,73,0
1,71,84,192
1,71,80,80
1,72,89,0
1,71,76,16
1,71,83,112
1,69,84,32
1,62,77,48
1,69,85,16
1,69,87,80
1,71,82,0
1,69,76,208
1,71,82,0
1,74,104,528
1,76,96,112
1,74,87,48
1,74,83,192
1,74,76,64
1,74,85,96
1,74,80,96
1,74,80,96
1,74,79,80
1,76,79,80
1,74,83,48
1,74,87,112
1,74,82,48
1,74,88,48
1,74,96,128
1,74,91,128
1,74,88,128
1,76,87,112
1,74,88,48
1,74,76,112
1,74,86,128
1,74,96,128
1,74,96,128
1,72,78,0
1,71,74,80
1,74,104,1280
1,76,92,128
1,74,97,80
1,74,86,240
1,74,80,96
1,74,94,112
1,74,91,112
1,74,96,112
1,74,90,112
1,76,92,112
1,74,96,48
1,74,101,144
1,74,90,48
1,74,88,48
1,74,106,144
1,74,99,128
1,74,94,112
1,74,96,128
1,69,97,16
1,69,80,112
1,71,87,16
1,72,99,0
1,72,97,112
1,71,74,16
1,69,82,0
1,67,90,96
1,74,104,1680
1,76,96,112
1,74,87,48
1,74,83,256
1,74,76,64
1,74,85,96
1,74,80,96
1,74,80,96
1,74,79,80
1,76,79,80
1,74,83,48
1,74,87,112
1,74,82,48
1,74,88,48
1,74,96,128
1,74,91,128
1,74,88,128
1,76,87,112
1,74,88,48
1,74,76,112
1,74,86,128
1,74,96,128
1,74,96,128
1,72,78,0
1,71,74,80
1,74,104,1280
1,76,92,128
1,74,97,80
1,74,86,240
1,74,80,96
1,74,94,112
1,74,91,112
1,74,96,112
1,74,90,112
1,76,92,112
1,74,96,48
1,74,101,144
1,74,90,48
1,74,88,48
1,74,106,144
1,74,99,128
1,74,94,112
1,74,96,128
1,69,97,16
1,69,80,112
1,71,87,16
1,72,99,0
1,72,97,112
1,71,74,16
1,69,82,0
1,67,90,96
1,74,91,1648
1,76,86,112
1,74,75,96
1,74,73,96
1,74,74,80
1,74,58,32
1,74,71,192
1,74,71,80
1,74,72,80
1,74,69,176
1,74,71,64
1,74,68,80
1,74,66,64
1,74,62,80
1,74,91,112
1,76,87,1520
1,74,70,176
1,74,66,144
1,74,66,96
1,74,66,64
1,74,60,176
1,74,67,128
1,74,73,64
1,74,53,208
1,74,64,96
1,74,67,64
1,74,68,80
1,74,63,80
1,74,85,112
1,76,77,1536
1,74,69,1520
1,74,66,80
1,74,68,80
1,74,61,48
1,74,58,144
1,74,68,80
1,74,65,48
1,74,58,192
1,74,71,80
1,74,59,32
1,74,71,64
1,74,59,48
1,74,80,80
1,76,52,112
1,74,66,128
1,74,60,96
1,74,66,80
1,74,65,96
1,74,55,208
1,74,60,80
1,74,63,64
1,74,57,208
1,74,61,96
1,74,64,96
1,74,59,96
1,74,60,112
2,59,67,1488
2,62,69,0
2,67,73,0
2,66,85,208
2,69,77,16
2,74,78,0
2,62,72,16
2,67,79,0
2,71,66,0
2,66,75,80
2,69,72,16
2,74,74,0
2,62,69,32
2,67,76,0
2,71,68,0
2,66,61,1328
2,69,64,0
2,74,60,0
2,67,73,16
2,71,63,0
2,66,64,144
2,69,71,0
2,74,68,0
2,67,71,96
2,71,63,0
2,62,71,16
2,66,69,112
2,69,70,0
2,74,69,0
2,67,68,0
2,71,67,0
2,66,70,128
2,69,66,0
2,74,72,0
2,67,72,16
2,71,67,0
2,62,67,96
2,67,69,16
2,71,63,0
2,74,64,0
2,64,75,16
2,72,71,0
2,76,66,0
2,62,68,64
2,66,70,0
2,69,73,0
2,74,66,0
2,67,71,16
2,71,72,16
2,71,68,96
2,74,70,0
2,62,74,16
2,67,68,0
2,64,73,0
2,72,73,16
2,60,66,16
2,67,72,0
2,76,71,0
2,66,66,16
2,69,76,0
2,74,66,0
2,62,71,32
2,62,73,80
2,67,83,0
2,71,72,0
2,66,60,0
2,69,65,0
2,74,68,0
2,62,64,16
2,67,66,0
2,71,61,0
2,62,68,32
2,69,67,0
2,66,65,16
2,74,67,32
2,62,68,0
2,67,72,0
2,71,58,0
2,66,56,960
2,69,62,0
2,74,61,0
2,67,64,0
2,71,61,0
2,66,68,16
2,69,73,0
2,62,62,176
2,67,61,0
2,71,59,0
2,62,73,160
2,71,63,0
2,74,66,0
2,67,62,16
2,64,78,0
2,67,74,0
2,72,73,0
2,76,67,0
2,66,80,64
2,69,79,0
2,74,67,0
2,62,78,32
2,62,75,176
2,67,68,0
2,71,68,0
2,62,73,112
2,67,72,0
2,71,78,0
2,74,74,0
2,64,87,32
2,67,82,0
2,72,82,0
2,76,77,0
2,62,79,48
2,66,75,0
2,69,77,0
2,74,64,0
2,71,66,144
2,62,76,16
2,67,70,0
2,62,69,112
2,67,74,16
2,71,73,0
2,74,76,0
2,67,80,32
2,72,83,0
2,76,78,0
2,60,80,0
2,62,77,32
2,66,76,0
2,69,80,0
2,74,69,16
2,62,77,144
2,67,73,0
2,71,72,0
2,64,84,0
2,67,84,0
2,72,84,0
2,76,80,0
2,62,73,48
2,66,80,0
2,69,80,0
2,74,60,0
2,62,77,160
2,67,72,0
2,71,68,0
2,74,55,0
2,64,68,0
2,76,66,0
2,62,63,0
2,74,66,0
2,62,69,112
2,67,62,0
2,71,61,0
2,74,65,0
2,64,71,16
2,76,68,0
2,67,62,16
2,74,63,0
2,62,70,0
2,62,65,112
2,67,64,16
2,71,70,0
2,74,73,0
2,64,73,0
2,76,73,0
2,74,67,128
2,62,65,16
2,62,74,96
2,67,65,16
2,71,64,0
2,74,69,0
2,64,79,16
2,67,66,0
2,71,67,0
2,76,75,0
2,62,68,0
2,74,64,16
2,79,62,0
3,43,124,1520
3,38,115,128
3,43,127,128
3,38,115,128
3,43,120,144
3,38,110,128
3,43,120,176
3,38,107,144
3,38,103,160
3,33,110,144
3,38,98,144
3,33,105,160
3,38,102,160
3,33,110,160
3,38,108,128
3,33,108,192
3,38,95,192
3,43,107,32
3,38,101,144
3,43,108,128
3,38,86,112
3,43,117,128
3,38,84,128
3,43,110,128
3,38,102,96
3,38,97,192
3,33,100,160
3,38,102,128
3,33,108,192
3,38,110,128
3,33,105,176
3,38,108,128
3,33,105,160
3,43,107,144
3,38,103,96
3,43,108,112
3,38,105,64
3,43,101,16
3,31,112,32
3,38,105,1296
3,33,101,112
3,38,98,128
3,33,102,128
3,38,99,128
3,33,105,112
3,38,101,128
3,33,101,96
3,38,88,0
3,43,102,32
3,38,98,112
3,43,103,128
3,38,99,96
3,43,110,144
3,38,99,176
3,43,105,160
3,38,101,144
3,38,103,192
3,33,103,208
3,38,99,144
3,33,105,192
3,38,99,144
3,33,102,160
3,38,103,144
3,33,105,192
3,43,105,160
3,38,101,144
3,43,102,160
3,38,98,128
3,43,100,176
3,38,101,224
3,43,101,112
3,42,103,112
3,40,90,64
3,38,98,16
3,33,97,96
3,38,99,128
3,33,101,160
3,38,100,160
3,33,100,144
3,38,101,144
3,33,101,144
3,38,88,0
3,43,101,32
3,38,98,128
3,43,102,128
3,38,98,144
3,43,102,144
3,38,102,128
3,43,107,160
3,38,103,128
3,38,102,160
3,33,97,160
3,38,101,144
3,33,101,160
3,38,99,160
3,33,97,192
3,38,101,144
3,33,102,160
3,38,88,32
3,43,105,48
3,43,107,0
3,38,115,112
3,35,103,48
3,38,101,112
3,45,100,32
3,43,115,96
3,42,120,64
3,40,102,64
3,38,103,80
3,36,100,64
3,35,98,32
3,33,87,48
3,43,110,80
3,42,105,80
3,40,99,112
3,38,102,80
3,36,105,32
3,35,98,48
3,33,99,112
3,31,103,112
3,38,102,128
3,33,99,128
3,38,99,160
3,33,100,160
3,38,98,176
3,33,98,192
3,38,99,160
3,33,102,160
3,38,97,160
3,33,99,160
3,38,98,144
3,33,101,144
3,38,103,160
3,40,115,160
3,42,111,128
3,38,105,160
3,43,110,144
3,42,116,48
3,40,112,112
3,38,112,96
3,43,108,128
3,38,107,64
3,43,103,112
3,38,100,80
3,40,101,96
3,42,107,80
3,43,112,96
3,42,113,112
3,40,105,144
3,38,103,144
3,36,107,112
3,35,105,32
3,33,110,64
3,31,105,96
3,38,102,128
3,33,100,144
3,38,102,128
3,33,105,192
3,38,95,144
3,33,110,160
3,38,99,144
3,33,103,144
3,38,98,160
3,33,105,160
3,38,99,144
3,33,102,224
3,38,115,176
3,40,107,128
3,42,113,112
3,38,108,112
3,43,105,160
3,38,107,128
3,43,105,144
3,38,103,160
3,43,107,96
3,38,103,128
3,43,108,112
3,42,92,96
3,40,91,64
3,38,102,96
3,33,101,144
3,38,99,160
3,33,105,176
3,38,99,176
3,33,99,128
3,38,98,144
3,40,96,80
3,42,113,80
3,43,105,112
3,38,95,112
3,43,98,160
3,38,98,144
3,43,107,96
3,38,105,192
3,43,105,64
3,42,90,96
3,40,87,96
3,38,101,112
3,33,98,128
3,38,98,144
3,33,102,128
3,38,101,144
3,33,108,160
3,38,103,144
3,40,91,384
3,42,96,64
3,43,105,96
3,38,102,112
3,43,103,144
3,38,100,144
3,31,103,176
3,38,114,1248
3,33,109,144
3,38,109,160
3,33,102,144
3,38,99,144
3,33,105,112
3,38,101,128
3,33,101,96
3,38,88,0
3,43,102,32
3,38,98,112
3,43,103,128
3,38,99,96
3,43,110,144
3,38,99,176
3,43,105,160
3,38,101,144
3,38,103,192
3,33,103,208
3,38,99,144
3,33,105,192
3,38,99,144
3,33,102,160
3,38,103,144
3,33,105,192
3,43,105,160
3,38,108,144
3,35,110,144
3,38,107,144
3,45,99,48
3,43,107,96
3,42,109,96
3,40,101,96
3,38,102,96
3,36,99,64
3,35,100,0
3,33,101,16
3,43,110,96
3,42,105,80
3,40,99,112
3,38,102,80
3,36,105,32
3,35,98,48
3,33,99,112
3,31,103,112
3,38,102,128
3,33,99,128
3,38,99,160
3,33,100,160
3,38,98,176
3,33,98,192
3,38,99,160
3,33,102,160
3,38,97,160
3,33,99,160
3,38,98,144
3,33,101,144
3,38,103,160
3,40,115,160
3,42,111,128
3,38,105,160
3,43,110,144
3,42,116,48
3,40,112,112
3,38,112,96
3,43,108,128
3,38,107,64
3,43,103,112
3,38,100,80
3,40,101,96
3,42,107,80
3,43,112,96
3,42,113,112
3,40,105,144
3,38,103,144
3,36,107,112
3,35,105,32
3,33,110,64
3,31,105,96
3,38,102,128
3,33,100,144
3,38,102,128
3,33,105,192
3,38,95,144
3,33,110,160
3,38,99,144
3,33,103,144
3,38,98,160
3,33,105,160
3,38,99,144
3,33,102,224
3,38,115,176
3,40,107,128
3,42,113,112
3,38,108,112
3,43,105,160
3,38,107,128
3,43,105,144
3,38,103,160
3,43,117,96
3,38,109,64
3,43,121,32
3,38,112,48
3,40,125,48
3,42,125,48
3,43,110,64
3,42,105,80
3,40,99,112
3,38,102,80
3,36,105,32
3,35,98,48
3,33,99,112
3,31,103,112
3,38,102,128
3,33,99,128
3,38,99,160
3,33,100,160
3,38,98,176
3,33,98,192
3,38,99,160
3,33,102,160
3,38,97,160
3,33,99,160
3,38,98,144
3,33,101,144
3,38,103,160
3,40,115,160
3,42,111,128
3,38,105,160
3,43,110,144
3,42,116,48
3,40,112,112
3,38,112,96
3,43,108,128
3,38,107,64
3,43,103,112
3,38,100,80
3,40,101,96
3,42,107,80
3,43,112,96
3,42,113,112
3,40,105,144
3,38,103,144
3,36,107,112
3,35,105,32
3,33,110,64
3,31,105,96
3,38,102,128
3,33,100,144
3,38,102,128
3,33,105,192
3,38,95,144
3,33,110,160
3,38,99,144
3,33,103,144
3,38,98,160
3,33,105,160
3,38,99,144
3,33,102,224
3,38,115,176
3,40,107,128
3,42,113,112
3,38,108,112
3,43,105,160
3,38,107,128
3,43,105,144
3,38,103,160
3,43,127,96
3,38,105,64
3,43,114,16
3,42,100,16
3,40,96,0
3,38,92,16
3,43,105,16
3,38,110,144
3,43,102,144
3,38,103,128
3,43,101,144
3,38,105,128
3,43,107,160
3,38,100,192
3,43,100,144
3,38,95,192
3,43,102,144
3,38,92,160
3,43,100,176
3,38,98,176
3,43,94,0
3,38,79,16
3,40,98,192
3,42,107,0
3,43,108,48
3,38,95,112
3,43,95,160
3,38,95,176
3,43,107,160
3,38,96,160
3,43,110,160
3,38,98,160
3,43,101,192
3,38,100,144
3,43,102,224
3,38,102,160
3,43,102,160
3,38,99,160
3,43,88,64
3,38,86,32
3,40,90,48
3,42,95,64
3,43,103,80
3,38,89,96
3,43,95,128
3,38,95,144
3,43,99,128
3,38,96,160
3,43,98,144
3,38,93,160
3,43,96,144
3,38,92,160
3,43,97,192
3,38,92,144
3,43,98,160
3,38,102,224
3,43,103,160
3,38,92,32
3,40,89,16
3,42,98,48
3,43,103,64
3,38,95,144
3,43,100,160
3,38,97,224
3,43,98,160
3,38,98,176
3,43,98,160
3,38,98,192
3,43,103,160
3,38,99,192
3,43,98,176
3,38,100,176
3,45,105,64
3,43,103,96
3,42,104,64
3,40,98,96
3,38,101,96
3,36,107,64
3,35,103,32
3,33,108,80
3,31,110,48
4,71,97,1296
4,74,107,0
4,72,93,32
4,76,89,0
4,66,81,16
4,74,77,0
4,66,101,1312
4,74,90,0
4,66,89,64
4,74,89,0
4,66,89,80
4,74,86,0
4,66,92,80
4,74,89,0
4,66,88,80
4,74,90,0
4,66,90,80
4,74,84,0
4,67,95,96
4,76,90,16
4,66,97,48
4,74,91,0
4,66,108,112
4,74,100,0
4,66,96,48
4,74,90,0
4,66,92,32
4,74,92,0
4,66,99,96
4,74,100,0
4,74,90,80
4,66,92,16
4,66,92,96
4,74,92,0
4,67,100,80
4,76,93,0
4,66,99,80
4,74,97,0
4,66,101,112
4,74,99,0
4,66,101,112
4,74,94,0
4,66,99,112
4,74,99,0
4,66,103,112
4,74,102,0
4,64,99,112
4,72,102,0
4,62,93,96
4,71,93,0
4,71,95,1472
4,74,94,0
4,72,93,0
4,76,84,0
4,66,93,0
4,74,82,0
4,66,99,1312
4,74,99,0
4,66,95,64
4,74,90,0
4,66,97,112
4,74,97,0
4,66,96,96
4,74,91,0
4,66,96,128
4,74,92,0
4,66,96,112
4,74,90,0
4,67,100,112
4,76,93,0
