track,note,velocity,time
1,60,66,9598
1,55,69,6
1,60,67,160
1,55,59,6
1,60,70,428
1,55,65,4
1,60,65,658
1,55,65,4
1,60,63,142
1,55,62,6
1,60,68,440
1,55,63,8
1,55,61,644
1,60,59,4
1,60,64,138
1,55,57,4
1,60,62,426
1,55,63,4
1,60,61,642
1,55,59,4
1,60,61,152
1,55,56,4
1,60,63,436
1,55,61,6
1,59,67,642
1,55,65,6
1,59,57,152
1,55,58,4
1,59,62,418
1,55,64,6
1,59,63,668
1,55,66,4
1,59,64,146
1,55,67,6
1,59,60,452
1,55,62,4
1,60,62,634
1,55,66,4
1,60,63,148
1,55,63,4
1,60,68,440
1,55,71,6
1,55,68,672
1,60,62,6
1,55,61,160
1,60,65,4
1,60,70,448
1,55,63,4
1,60,66,612
1,55,65,46
1,60,62,156
1,55,62,4
1,55,62,444
1,60,60,6
1,60,68,682
1,55,68,6
1,55,62,162
1,60,63,4
1,60,71,450
1,55,68,6
1,60,57,664
1,55,67,6
1,60,65,150
1,55,64,6
1,60,64,446
1,55,65,6
1,60,65,682
1,55,61,6
1,60,61,146
1,55,63,4
1,60,66,462
1,55,62,6
1,59,60,668
1,55,64,6
1,59,62,160
1,55,65,4
1,55,66,444
1,59,63,4
1,59,58,684
1,55,63,4
1,59,61,142
1,55,59,6
1,59,62,452
1,55,68,4
1,60,64,674
1,55,63,4
1,60,67,168
1,55,63,6
1,55,65,458
1,60,66,6
1,60,61,682
1,55,68,4
1,55,63,174
1,60,62,4
1,55,72,458
1,60,61,6
1,57,70,678
1,60,70,6
1,57,63,168
1,60,63,6
1,57,69,448
1,60,69,6
1,57,73,632
1,60,62,6
1,60,62,220
1,57,65,6
1,60,70,452
1,57,72,4
1,60,69,676
1,55,73,4
1,55,70,154
1,60,66,6
1,60,65,444
1,55,69,4
1,55,65,676
1,60,59,4
1,60,63,178
1,55,62,6
1,60,69,446
1,55,71,6
1,60,67,688
1,55,70,4
1,60,60,174
1,55,60,4
1,60,66,436
1,55,68,6
1,60,60,700
1,55,66,4
1,55,61,144
1,60,61,6
1,60,73,446
1,55,73,4
1,59,66,674
1,55,67,4
1,59,65,170
1,55,65,6
1,59,71,436
1,55,67,4
1,59,63,690
1,55,70,6
1,59,68,146
1,55,69,4
1,59,73,446
1,55,72,6
1,55,66,666
1,60,63,6
1,55,62,146
1,60,60,6
1,55,70,450
1,60,70,4
1,60,65,656
1,55,74,6
1,60,60,150
1,55,63,6
1,55,77,468
1,60,65,4
1,60,73,674
1,57,69,6
1,60,65,160
1,57,67,4
1,60,76,426
1,57,74,4
1,57,65,674
1,60,63,6
1,60,66,140
1,57,70,4
1,57,74,456
1,60,68,6
1,55,67,668
1,60,63,6
1,55,69,172
1,60,62,4
1,60,70,444
1,55,70,6
1,59,77,676
1,55,71,4
1,59,65,162
1,55,68,6
1,59,69,436
1,55,70,4
1,60,66,672
1,55,79,4
1,60,63,170
1,55,63,4
1,60,64,448
1,55,73,6
1,57,69,682
1,60,72,4
1,57,62,180
1,60,65,6
1,60,69,446
1,57,76,4
1,60,59,668
1,55,67,6
1,55,64,160
1,60,66,6
1,55,71,448
1,60,66,4
1,59,71,658
1,55,72,6
1,59,63,152
1,55,66,6
1,59,72,444
1,55,62,6
1,60,67,668
1,55,67,4
1,55,63,168
1,60,62,4
1,60,62,456
1,55,70,6
1,60,60,684
1,55,66,6
1,60,60,168
1,55,62,6
1,60,66,444
1,55,71,4
1,60,66,684
1,55,69,4
1,60,67,160
1,55,59,4
1,60,70,428
1,55,65,4
1,60,65,656
1,55,65,6
1,60,63,142
1,55,62,4
1,60,68,440
1,55,63,6
1,55,61,644
1,60,59,4
1,60,64,138
1,55,57,4
1,60,62,424
1,55,63,6
1,60,61,642
1,55,59,4
1,60,61,152
1,55,56,4
1,60,63,436
1,55,61,6
1,59,67,642
1,55,65,6
1,59,57,152
1,55,58,6
1,59,62,418
1,55,64,6
1,59,63,666
1,55,66,6
1,59,64,146
1,55,67,4
1,59,60,452
1,55,62,4
1,60,62,630
1,55,66,6
1,60,63,148
1,55,63,6
1,60,68,440
1,55,71,6
1,55,68,672
1,60,62,6
1,55,61,160
1,60,65,4
1,60,70,446
1,55,63,6
1,60,66,610
1,55,65,48
1,60,62,156
1,55,62,4
1,55,62,446
1,60,60,4
1,60,68,682
1,55,68,6
1,55,62,160
1,60,63,4
1,60,71,450
1,55,68,6
1,60,57,662
1,55,67,6
1,60,65,150
1,55,64,6
1,60,64,450
1,55,65,4
1,60,65,682
1,55,61,6
1,60,61,146
1,55,63,6
1,60,66,462
1,55,62,6
1,59,60,670
1,55,64,4
1,59,62,160
1,55,65,6
1,55,66,444
1,59,63,6
1,59,58,684
1,55,63,4
1,59,61,142
1,55,59,6
1,59,62,450
1,55,68,4
1,60,64,672
1,55,63,6
1,60,67,170
1,55,63,4
1,55,65,458
1,60,66,4
1,60,61,680
1,55,68,6
1,55,63,176
1,60,62,4
1,55,72,458
1,60,61,6
1,57,70,678
1,60,70,6
1,57,63,170
1,60,63,6
1,57,69,450
1,60,69,4
1,57,73,632
1,60,62,4
1,60,62,218
1,57,65,4
1,60,70,450
1,57,72,6
1,60,69,676
1,55,73,4
1,55,70,154
1,60,66,4
1,60,65,442
1,55,69,6
1,55,65,676
1,60,59,4
1,60,63,178
1,55,62,4
1,60,69,446
1,55,71,6
1,60,67,688
1,55,70,4
1,60,60,172
1,55,60,4
1,60,66,436
1,55,68,6
1,60,60,700
1,55,66,4
1,55,61,148
1,60,61,4
1,60,73,446
1,55,73,4
1,59,66,674
1,55,67,4
1,59,65,170
1,55,65,6
1,59,71,436
1,55,67,4
1,59,63,690
1,55,70,6
1,59,68,146
1,55,69,4
1,59,73,446
1,55,72,6
1,55,66,664
1,60,63,6
1,55,62,146
1,60,60,6
1,55,70,450
1,60,70,4
1,60,65,656
1,55,74,6
1,60,60,150
1,55,63,6
1,55,77,466
1,60,65,6
1,60,73,674
1,57,69,4
1,60,65,160
1,57,67,4
1,60,76,424
1,57,74,6
1,57,65,676
1,60,63,6
1,60,66,138
1,57,70,6
1,57,74,458
1,60,68,4
1,55,67,666
1,60,63,4
1,55,69,170
1,60,62,6
1,60,70,446
1,55,70,4
1,59,77,676
1,55,71,4
1,59,65,162
1,55,68,4
1,59,69,434
1,55,70,6
1,60,61,672
1,55,68,4
1,55,63,174
1,60,62,4
1,55,72,458
1,60,61,6
1,57,70,680
1,60,70,4
1,57,63,172
1,60,63,4
1,57,69,450
1,60,69,4
1,57,73,632
1,60,62,4
1,60,62,216
1,57,65,4
1,60,70,450
1,57,72,6
1,60,69,676
1,55,73,4
1,55,70,154
1,60,66,4
1,60,65,442
1,55,69,6
1,55,65,674
1,60,59,6
1,60,63,178
1,55,62,4
1,60,69,448
1,55,71,4
1,60,67,688
1,55,70,4
1,60,60,174
1,55,60,4
1,60,66,436
1,55,68,6
1,60,60,698
1,55,66,6
1,55,61,144
1,60,61,6
1,60,73,444
1,55,73,6
1,59,66,674
1,55,67,4
1,59,65,172
1,55,65,4
1,59,71,434
1,55,67,6
1,59,63,690
1,55,70,6
1,59,68,146
1,55,69,4
1,59,73,446
1,55,72,6
1,55,66,666
1,60,63,4
1,55,62,146
1,60,60,6
1,55,70,450
1,60,70,4
1,60,65,656
1,55,74,6
1,60,60,150
1,55,63,6
1,55,77,468
1,60,65,4
1,60,73,672
1,57,69,6
1,60,65,160
1,57,67,6
1,60,76,424
1,57,74,6
1,57,65,674
1,60,63,6
1,60,66,140
1,57,70,4
1,57,74,458
1,60,68,4
1,55,67,666
1,60,63,6
1,55,69,168
1,60,62,6
1,60,70,442
1,55,70,6
1,59,77,676
1,55,71,4
1,59,65,162
1,55,68,6
1,59,69,436
1,55,70,4
1,60,66,672
1,55,79,4
1,60,63,170
1,55,63,6
1,60,64,450
1,55,73,4
1,57,69,678
1,60,72,4
1,57,62,180
1,60,65,6
1,60,69,446
1,57,76,2
1,60,59,666
1,55,67,4
1,55,64,160
1,60,66,6
1,55,71,446
1,60,66,6
1,59,71,660
1,55,72,4
1,59,63,150
1,55,66,4
1,59,72,442
1,55,62,6
1,60,66,672
1,55,79,4
1,60,63,170
1,55,63,6
1,60,64,448
1,55,73,6
1,57,69,682
1,60,72,4
1,57,62,180
1,60,65,4
1,60,69,446
1,57,76,4
1,60,59,672
1,55,67,4
1,55,64,160
1,60,66,6
1,55,71,448
1,60,66,4
1,59,71,660
1,55,72,4
1,59,63,152
1,55,66,6
1,59,72,442
1,55,62,6
1,60,66,670
1,55,79,6
1,60,63,170
1,55,63,4
1,60,64,450
1,55,73,4
1,57,69,680
1,60,72,6
1,57,62,180
1,60,65,6
1,60,69,442
1,57,76,6
1,60,59,668
1,55,67,4
1,55,64,162
1,60,66,4
1,55,71,446
1,60,66,6
1,62,74,644
1,59,77,4
1,55,72,4
1,59,74,158
1,62,74,8
1,55,70,6
1,55,70,442
1,59,74,0
1,62,84,0
1,55,82,202
1,60,82,38
1,64,88,56
2,48,79,3064
2,47,80,768
2,45,76,354
2,43,70,354
2,45,69,740
2,47,67,336
2,48,76,356
2,43,79,714
2,48,64,732
2,43,77,372
2,45,76,350
2,47,68,322
2,48,95,132
2,43,90,178
2,48,72,130
2,43,88,76
2,45,70,42
2,47,77,132
2,48,73,144
2,43,84,196
2,48,70,40
2,48,82,138
2,47,72,114
2,45,79,118
2,43,84,94
2,50,67,90
2,43,86,78
2,43,79,92
2,45,69,98
2,47,71,118
2,48,79,130
2,43,82,260
2,48,68,144
2,43,86,136
2,45,71,96
2,47,76,100
2,48,95,136
2,43,90,180
2,48,72,130
2,43,88,74
2,45,70,42
2,47,77,132
2,48,73,138
2,43,84,194
2,48,70,40
2,48,82,138
2,47,72,114
2,45,79,114
2,43,84,92
2,50,67,90
2,43,86,74
2,43,79,92
2,45,69,96
2,47,71,118
2,48,79,132
2,43,82,258
2,48,100,146
2,48,84,154
2,50,77,132
2,52,80,140
2,53,84,150
2,48,88,288
2,53,68,192
2,53,65,128
2,52,64,34
2,50,70,108
2,48,86,98
2,43,86,432
2,48,70,322
2,43,80,116
2,45,69,130
2,47,76,140
2,48,82,130
2,43,82,418
2,48,80,42
2,48,69,180
2,47,76,158
2,45,74,180
2,43,92,172
2,50,76,172
2,43,88,112
2,43,80,156
2,45,73,132
2,47,80,156
2,48,95,172
2,43,90,306
2,48,86,106
2,48,70,136
2,50,71,158
2,52,80,140
2,53,79,146
2,48,86,306
2,53,84,256
2,52,79,154
2,50,76,116
2,48,79,104
2,47,74,130
2,45,74,124
2,43,72,160
2,45,80,130
2,47,80,132
2,48,92,142
2,50,69,154
2,52,79,122
2,53,82,136
2,52,74,150
2,50,82,76
2,48,82,98
2,47,70,128
2,45,77,90
2,43,74,68
2,45,67,40
2,47,76,102
2,48,77,64
2,43,84,152
2,48,77,94
2,43,77,84
2,45,72,96
2,47,79,82
2,48,95,142
2,43,90,178
2,48,72,130
2,43,88,74
2,45,70,42
2,47,77,130
2,48,73,136
2,43,84,196
2,48,70,40
2,48,82,138
2,47,72,114
2,45,79,118
2,43,84,94
2,50,67,92
2,43,86,76
2,43,79,92
2,45,69,100
2,47,71,116
2,48,79,130
2,43,82,260
2,48,68,144
2,43,86,138
2,45,71,94
2,47,76,100
2,48,95,132
2,43,90,178
2,48,72,130
2,43,88,76
2,45,70,42
2,47,77,132
2,48,73,136
2,43,84,196
2,48,70,40
2,48,82,140
2,47,72,114
2,45,79,114
2,43,84,90
2,50,67,90
2,43,86,74
2,43,79,90
2,45,69,98
2,47,71,116
2,48,79,132
2,43,82,260
2,48,100,144
2,48,84,154
2,50,77,128
2,52,80,140
2,53,84,152
2,48,88,288
2,53,68,190
2,53,65,128
2,52,64,38
2,50,70,110
2,48,86,98
2,43,86,432
2,48,70,324
2,43,80,114
2,45,69,130
2,47,76,140
2,48,82,130
2,43,82,420
2,48,80,42
2,48,69,180
2,47,76,160
2,45,74,180
2,43,92,174
2,50,76,168
2,43,88,112
2,43,80,156
2,45,73,130
2,47,80,156
2,48,95,170
2,43,90,306
2,48,86,104
2,48,70,136
2,50,71,158
2,52,80,140
2,53,79,148
2,48,86,308
2,53,84,256
2,52,79,154
2,50,76,116
2,48,79,108
2,47,74,128
2,45,74,124
2,43,72,160
2,45,80,128
2,47,80,132
2,48,100,144
2,48,84,154
2,50,77,132
2,52,80,140
2,53,84,146
2,48,88,288
2,53,68,192
2,53,65,132
2,52,64,36
2,50,70,110
2,48,86,96
2,43,86,434
2,48,70,322
2,43,80,116
2,45,69,128
2,47,76,140
2,48,82,130
2,43,82,418
2,48,80,42
2,48,69,178
2,47,76,158
2,45,74,180
2,43,92,172
2,50,76,170
2,43,88,110
2,43,80,154
2,45,73,132
2,47,80,156
2,48,95,170
2,43,90,306
2,48,86,106
2,48,70,136
2,50,71,160
2,52,80,138
2,53,79,148
2,48,86,306
2,53,84,256
2,52,79,154
2,50,76,114
2,48,79,106
2,47,74,130
2,45,74,122
2,43,72,162
2,45,80,128
2,47,80,130
2,48,92,140
2,50,69,154
2,52,79,122
2,53,82,136
2,52,74,144
2,50,82,74
2,48,82,96
2,47,70,128
2,45,77,90
2,43,74,66
2,45,67,38
2,47,76,102
2,48,92,66
2,50,69,152
2,52,79,120
2,53,82,136
2,52,74,146
2,50,82,76
2,48,82,98
2,47,70,128
2,45,77,90
2,43,74,66
2,45,67,40
2,47,76,98
2,48,92,66
2,50,69,154
2,52,79,122
2,53,82,138
2,52,74,144
2,50,82,76
2,48,82,98
2,47,70,126
2,45,77,90
2,43,74,68
2,45,67,38
2,47,76,88
2,48,92,66
3,68,61,57492
3,64,62,6
3,65,69,8
3,69,58,4
3,65,69,170
3,69,76,0
3,67,71,136
3,64,69,4
3,64,56,88
3,67,57,6
3,69,66,16
3,65,62,6
3,64,60,190
3,67,66,0
3,62,63,208
3,65,72,2
3,62,60,218
3,65,59,4
3,67,62,96
3,64,62,4
3,62,61,230
3,65,69,0
3,64,65,216
3,60,52,4
3,76,62,1172
3,74,51,2690
3,76,57,336
3,79,57,1504
3,77,61,14
3,74,70,762
3,71,64,346
3,67,62,378
3,71,67,756
3,74,73,0
3,76,71,378
3,72,64,732
3,76,54,362
3,67,60,382
3,72,65,16
3,81,59,40
3,79,65,380
3,76,58,486
3,74,56,768
3,75,45,276
3,76,63,290
3,76,70,134
3,75,69,0
3,74,62,382
3,69,79,740
3,70,64,378
3,71,73,372
3,72,82,750
3,74,73,380
3,72,64,358
3,69,90,1098
3,68,91,60
3,69,90,56
3,72,84,56
3,81,95,76
3,77,76,238
3,66,75,1390
3,67,74,46
3,72,80,32
3,76,88,72
3,72,90,228
3,74,79,768
3,75,73,348
3,76,68,376
3,72,57,1522
3,71,77,704
3,70,55,388
3,69,77,378
3,79,86,628
3,88,84,22
3,84,82,388
3,82,80,374
3,81,76,1484
3,72,64,364
3,77,69,342
3,84,76,348
3,81,76,340
3,67,95,512
3,72,80,154
3,76,70,34
3,81,76,140
3,79,74,142
3,74,59,80
3,77,67,4
3,79,63,20
3,76,67,4
3,77,63,0
3,74,52,0
3,76,64,26
3,72,46,2
3,69,90,644
3,68,77,60
3,69,90,56
3,72,84,58
3,81,95,76
3,77,76,238
3,66,75,1390
3,67,74,46
3,72,80,32
3,76,88,72
3,72,90,226
3,74,79,768
3,75,73,348
3,76,68,374
3,72,57,1518
3,71,77,704
3,70,55,388
3,69,77,378
3,79,86,626
3,88,84,22
3,84,82,388
3,82,80,374
3,81,76,1484
3,72,64,362
3,77,69,340
3,84,76,348
3,81,76,340
3,67,95,514
3,72,80,152
3,76,70,24
3,81,76,140
3,79,74,122
3,74,59,92
3,77,67,4
3,79,63,20
3,76,67,4
3,77,63,0
3,74,52,0
3,76,64,24
3,72,46,4
3,81,65,992
3,77,73,4
3,81,71,310
3,77,73,0
3,79,66,264
3,76,58,2
3,76,60,80
3,79,70,4
3,81,70,126
3,77,73,2
3,76,62,364
3,79,72,4
