track,note,velocity,time
1,62,44,1520
1,59,42,0
1,67,48,0
1,66,60,192
1,69,52,20
1,74,53,0
1,62,47,4
1,67,54,0
1,71,41,0
1,66,50,80
1,69,47,16
1,74,49,0
1,71,43,16
1,62,44,0
1,67,51,0
1,66,36,1376
1,74,35,0
1,69,39,0
1,67,48,8
1,71,38,0
1,66,39,144
1,69,46,0
1,74,43,0
1,67,46,100
1,71,38,0
1,62,46,24
1,74,44,104
1,66,44,0
1,69,45,0
1,67,43,176
1,71,42,0
1,69,41,112
1,66,45,0
1,74,47,4
1,71,42,0
1,67,47,0
1,62,42,96
1,74,39,16
1,71,38,0
1,67,44,0
1,72,46,16
1,76,41,0
1,64,50,0
1,69,48,68
1,62,43,0
1,66,45,4
1,74,41,0
1,67,46,24
1,71,47,16
1,74,45,80
1,71,43,0
1,67,43,28
1,62,49,0
1,64,48,0
1,72,48,16
1,67,47,4
1,76,46,0
1,60,41,0
1,66,41,20
1,69,51,0
1,74,41,0
1,62,46,32
1,62,48,72
1,71,47,8
1,67,58,0
1,66,35,4
1,69,40,0
1,74,43,0
1,67,41,0
1,71,36,0
1,62,39,0
1,69,42,32
1,62,43,0
1,66,40,0
1,74,42,32
1,62,43,8
1,71,33,0
1,67,47,0
1,66,31,960
1,69,37,0
1,74,36,0
1,67,39,160
1,71,36,0
1,66,43,16
1,69,48,0
1,67,36,176
1,62,37,0
1,71,34,16
1,62,48,144
1,71,38,0
1,74,41,0
1,67,37,32
1,64,53,0
1,76,42,0
1,72,48,0
1,67,49,0
1,69,54,60
1,74,42,0
1,66,55,0
1,62,53,20
1,67,43,176
1,71,43,0
1,62,50,0
1,62,48,112
1,71,53,0
1,74,49,0
1,67,47,0
1,64,62,32
1,76,52,0
1,67,57,0
1,72,57,0
1,66,50,56
1,69,52,0
1,74,39,0
1,62,54,0
1,71,41,144
1,67,45,16
1,62,51,0
1,62,44,112
1,74,51,16
1,71,48,0
1,67,49,0
1,72,58,24
1,67,55,0
1,76,53,0
1,60,55,16
1,62,52,32
1,66,51,0
1,69,55,0
1,74,44,0
1,62,52,128
1,67,48,0
1,71,47,0
1,67,59,4
1,72,59,0
1,76,55,0
1,64,59,0
1,69,55,48
1,62,48,0
1,74,35,0
1,66,55,0
1,74,30,160
1,62,52,0
1,67,47,0
1,71,43,0
1,64,43,0
1,76,41,0
1,74,41,0
1,62,38,0
1,74,40,96
1,71,36,0
1,62,44,0
1,67,37,0
1,76,43,0
1,64,46,0
1,67,37,0
1,74,38,0
1,62,45,0
1,62,40,112
1,71,45,16
1,74,48,0
1,67,39,0
1,64,48,8
1,76,48,0
1,74,42,128
1,62,40,16
1,62,49,104
1,71,39,16
1,74,44,0
1,67,40,0
1,64,54,16
1,67,41,0
1,71,42,0
1,76,50,0
1,62,43,8
1,74,39,16
1,79,37,4
2,43,94,1536
2,38,85,112
2,43,98,120
2,38,85,120
2,43,90,128
2,38,80,120
2,43,90,164
2,38,77,128
2,38,73,156
2,33,80,128
2,38,68,136
2,33,75,144
2,38,72,144
2,33,80,152
2,38,78,120
2,33,78,176
2,38,65,192
2,43,77,20
2,38,71,128
2,43,78,112
2,38,56,96
2,43,87,112
2,38,54,112
2,43,80,112
2,38,72,92
2,38,67,176
2,33,70,144
2,38,72,116
2,33,78,188
2,38,80,112
2,33,75,164
2,38,78,116
2,33,75,152
2,43,77,128
2,38,73,80
2,43,78,108
2,38,75,48
2,43,71,0
2,31,82,24
2,38,75,1280
2,33,71,96
2,38,68,116
2,33,72,120
2,38,69,116
2,33,75,96
2,38,71,120
2,33,71,80
2,38,58,0
2,43,72,16
2,38,68,108
2,43,73,112
2,38,69,80
2,43,80,128
2,38,69,160
2,43,75,156
2,38,71,128
2,38,73,176
2,33,73,192
2,38,69,128
2,33,75,176
2,38,69,128
2,33,72,152
2,38,73,128
2,33,75,176
2,43,75,148
2,38,71,136
2,43,72,144
2,38,68,112
2,43,70,160
2,38,71,208
2,43,71,96
2,42,73,104
2,40,60,48
2,38,68,0
2,33,67,80
2,38,69,112
2,33,71,144
2,38,70,144
2,33,70,128
2,38,71,128
2,33,71,128
2,38,58,0
2,43,71,16
2,38,68,120
2,43,72,116
2,38,68,128
2,43,72,132
2,38,72,112
2,43,77,144
2,38,73,112
2,38,72,144
2,33,67,152
2,38,71,128
2,33,71,148
2,38,69,148
2,33,67,176
2,38,71,128
2,33,72,152
2,38,58,16
2,43,75,32
2,43,77,0
2,38,85,96
2,35,73,32
2,38,71,96
2,45,70,20
2,43,85,80
2,42,90,48
2,40,72,48
2,38,73,64
2,36,70,48
2,35,68,24
2,33,57,32
2,43,80,64
2,42,75,64
2,40,69,104
2,38,72,64
2,36,75,24
2,35,68,32
2,33,69,100
2,31,73,96
2,38,72,120
2,33,69,120
2,38,69,148
2,33,70,144
2,38,68,160
2,33,68,192
2,38,69,144
2,33,72,144
2,38,67,156
2,33,69,144
2,38,68,128
2,33,71,128
2,38,73,144
2,40,85,144
2,42,81,120
2,38,75,144
2,43,80,132
2,42,86,32
2,40,82,100
2,38,82,80
2,43,78,112
2,38,77,48
2,43,73,104
2,38,70,64
2,40,71,92
2,42,77,64
2,43,82,92
2,42,83,96
2,40,75,132
2,38,73,128
2,36,77,100
2,35,75,20
2,33,80,56
2,31,75,80
2,38,72,112
2,33,70,128
2,38,72,116
2,33,75,176
2,38,65,132
2,33,80,144
2,38,69,136
2,33,73,140
2,38,68,144
2,33,75,144
2,38,69,144
2,33,72,208
2,38,85,160
2,40,77,112
2,42,83,108
2,38,78,104
2,43,75,144
2,38,77,112
2,43,75,128
2,38,73,144
2,43,77,88
2,38,73,128
2,43,78,100
2,42,62,80
2,40,61,48
2,38,72,84
2,33,71,128
2,38,69,144
2,33,75,160
2,38,69,160
2,33,69,112
2,38,68,128
2,40,66,64
2,42,83,64
2,43,75,100
2,38,65,96
2,43,68,144
2,38,68,132
2,43,77,80
2,38,75,192
2,43,75,48
2,42,60,80
2,40,57,84
2,38,71,96
2,33,68,120
2,38,68,132
2,33,72,116
2,38,71,128
2,33,78,144
2,38,73,128
2,40,61,384
2,42,66,48
2,43,75,80
2,38,72,100
2,43,73,132
2,38,70,136
2,31,73,160
2,38,84,1232
2,33,79,136
2,38,79,144
2,33,72,128
2,38,69,136
2,33,75,96
2,38,71,120
2,33,71,80
2,38,58,0
2,43,72,16
2,38,68,100
2,43,73,112
2,38,69,80
2,43,80,128
2,38,69,160
2,43,75,156
2,38,71,128
2,38,73,176
2,33,73,192
2,38,69,128
2,33,75,176
2,38,69,128
2,33,72,148
2,38,73,132
2,33,75,176
2,43,75,148
2,38,78,140
2,35,80,128
2,38,77,132
2,45,69,32
2,43,77,80
2,42,79,80
2,40,71,80
2,38,72,80
2,36,69,56
2,35,70,0
2,33,71,0
2,43,80,84
2,42,75,64
2,40,69,104
2,38,72,64
2,36,75,28
2,35,68,32
2,33,69,96
2,31,73,96
2,38,72,116
2,33,69,116
2,38,69,156
2,33,70,144
2,38,68,160
2,33,68,192
2,38,69,144
2,33,72,144
2,38,67,148
2,33,69,144
2,38,68,132
2,33,71,128
2,38,73,148
2,40,85,144
2,42,81,124
2,38,75,144
2,43,80,128
2,42,86,32
2,40,82,96
2,38,82,80
2,43,78,116
2,38,77,48
2,43,73,104
2,38,70,64
2,40,71,84
2,42,77,64
2,43,82,92
2,42,83,96
2,40,75,128
2,38,73,128
2,36,77,96
2,35,75,24
2,33,80,56
2,31,75,80
2,38,72,112
2,33,70,128
2,38,72,116
2,33,75,176
2,38,65,128
2,33,80,144
2,38,69,140
2,33,73,136
2,38,68,148
2,33,75,144
2,38,69,144
2,33,72,208
2,38,85,160
2,40,77,112
2,42,83,104
2,38,78,108
2,43,75,148
2,38,77,112
2,43,75,128
2,38,73,144
2,43,87,92
2,38,79,48
2,43,91,16
2,38,82,32
2,40,95,32
2,42,95,32
2,43,80,48
2,42,75,64
2,40,69,104
2,38,72,64
2,36,75,24
2,35,68,32
2,33,69,96
2,31,73,96
2,38,72,116
2,33,69,120
2,38,69,152
2,33,70,144
2,38,68,164
2,33,68,192
2,38,69,144
2,33,72,144
2,38,67,148
2,33,69,144
2,38,68,128
2,33,71,128
2,38,73,148
2,40,85,144
2,42,81,124
2,38,75,144
2,43,80,128
2,42,86,32
2,40,82,96
2,38,82,80
2,43,78,112
2,38,77,48
2,43,73,108
2,38,70,64
2,40,71,84
2,42,77,64
2,43,82,92
2,42,83,96
2,40,75,128
2,38,73,128
2,36,77,96
2,35,75,24
2,33,80,56
2,31,75,80
2,38,72,116
2,33,70,128
2,38,72,120
2,33,75,176
2,38,65,128
2,33,80,144
2,38,69,136
2,33,73,136
2,38,68,148
2,33,75,144
2,38,69,144
2,33,72,208
2,38,85,160
2,40,77,112
2,42,83,104
2,38,78,104
2,43,75,144
2,38,77,112
2,43,75,132
2,38,73,144
2,43,100,88
2,38,75,48
2,43,84,4
2,42,70,8
2,40,66,0
2,38,62,12
2,43,75,4
2,38,80,128
2,43,72,128
2,38,73,116
2,43,71,132
2,38,75,116
2,43,77,144
2,38,70,176
2,43,70,128
2,38,65,192
2,43,72,136
2,38,62,144
2,43,70,164
2,38,68,160
2,43,64,384
2,38,49,0
2,40,68,192
2,42,77,0
2,43,78,32
2,38,65,104
2,43,65,144
2,38,65,160
2,43,77,152
2,38,66,144
2,43,80,156
2,38,68,144
2,43,71,176
2,38,70,128
2,43,72,212
2,38,72,144
2,43,72,144
2,38,69,144
2,43,58,48
2,38,56,16
2,40,60,32
2,42,65,48
2,43,73,64
2,38,59,88
2,43,65,112
2,38,65,128
2,43,69,116
2,38,66,152
2,43,68,128
2,38,63,152
2,43,66,132
2,38,62,144
2,43,67,180
2,38,62,128
2,43,68,144
2,38,72,208
2,43,73,144
2,38,62,16
2,40,59,12
2,42,68,36
2,43,73,52
2,38,65,128
2,43,70,148
2,38,67,208
2,43,68,148
2,38,68,160
2,43,68,148
2,38,68,176
2,43,73,144
2,38,69,192
2,43,68,160
2,38,70,160
2,45,75,52
2,43,73,80
2,42,74,48
2,40,68,80
2,38,71,96
2,36,77,48
2,35,73,20
2,33,78,64
2,31,80,32
3,62,87,15596
3,64,76,32
3,66,76,0
3,67,84,40
3,69,75,0
3,71,78,204
3,72,76,168
3,74,87,176
3,74,84,88
3,74,68,88
3,74,92,112
3,76,73,0
3,74,80,44
3,72,73,0
3,71,69,64
3,62,66,0
3,71,77,184
3,71,73,72
3,72,82,0
3,71,69,20
3,71,76,112
3,69,77,16
3,62,70,32
3,69,78,16
3,69,80,84
3,71,75,368
3,69,69,192
3,71,75,0
3,62,81,496
3,64,73,0
3,66,79,16
3,67,87,100
3,69,82,32
3,71,81,32
3,72,83,4
3,74,81,0
3,74,83,104
3,74,70,96
3,74,87,144
3,76,77,12
3,74,82,196
3,72,77,0
3,72,73,88
3,71,74,56
3,62,79,0
3,71,80,208
3,71,73,48
3,72,84,0
3,71,74,176
3,71,81,96
3,69,84,20
3,69,84,80
3,71,73,16
3,72,80,32
3,71,68,48
3,69,68,16
3,67,75,32
3,74,97,1488
3,76,89,120
3,74,80,36
3,74,76,264
3,74,69,48
3,74,78,80
3,74,73,88
3,74,73,104
3,74,72,80
3,76,72,88
3,74,76,44
3,74,80,108
3,74,75,32
3,74,81,48
3,74,89,128
3,74,84,128
3,74,81,128
3,76,80,112
3,74,81,32
3,74,69,96
3,74,79,128
3,74,89,132
3,74,89,128
3,72,71,0
3,71,67,80
3,74,97,1280
3,76,85,116
3,74,90,80
3,74,79,240
3,74,73,80
3,74,87,100
3,74,84,104
3,74,89,112
3,74,83,96
3,76,85,100
3,74,89,44
3,74,94,140
3,74,83,32
3,74,81,32
3,74,99,136
3,74,92,128
3,74,87,116
3,74,89,136
3,69,90,8
3,69,73,112
3,71,80,16
3,72,92,0
3,72,90,104
3,71,67,16
3,69,75,176
3,67,83,96
3,62,87,12620
3,64,76,32
3,66,76,0
3,67,84,40
3,69,75,0
3,71,78,204
3,72,76,168
3,74,87,176
3,74,84,88
3,74,68,88
3,74,92,112
3,76,73,0
3,74,80,36
3,72,73,0
3,71,69,64
3,62,66,0
3,71,77,184
3,71,73,72
3,72,82,0
3,71,69,20
3,71,76,112
3,69,77,16
3,62,70,32
3,69,78,16
3,69,80,88
3,71,75,368
3,69,69,192
3,71,75,0
3,74,97,1872
3,76,89,120
3,74,80,32
3,74,76,264
3,74,69,48
3,74,78,80
3,74,73,88
3,74,73,104
3,74,72,80
3,76,72,88
3,74,76,44
3,74,80,108
3,74,75,32
3,74,81,48
3,74,89,128
3,74,84,128
3,74,81,128
3,76,80,112
3,74,81,32
3,74,69,96
3,74,79,128
3,74,89,136
3,74,89,128
3,72,71,0
3,71,67,80
3,74,97,1280
3,76,85,112
3,74,90,80
3,74,79,236
3,74,73,80
3,74,87,100
3,74,84,104
3,74,89,112
3,74,83,96
3,76,85,100
3,74,89,44
3,74,94,140
3,74,83,36
3,74,81,32
3,74,99,136
3,74,92,128
3,74,87,120
3,74,89,136
3,69,90,8
3,69,73,116
3,71,80,16
3,72,92,0
3,72,90,104
3,71,67,16
3,69,75,176
3,67,83,96
3,74,97,1680
3,76,89,120
3,74,80,36
3,74,76,260
3,74,69,48
3,74,78,84
3,74,73,84
3,74,73,108
3,74,72,80
3,76,72,92
3,74,76,44
3,74,80,108
3,74,75,32
3,74,81,48
3,74,89,128
3,74,84,128
3,74,81,128
3,76,80,112
3,74,81,32
3,74,69,96
3,74,79,128
3,74,89,136
3,74,89,128
3,72,71,0
3,71,67,76
3,74,97,1280
3,76,85,112
3,74,90,80
3,74,79,236
3,74,73,80
3,74,87,100
3,74,84,108
3,74,89,112
3,74,83,96
3,76,85,100
3,74,89,44
3,74,94,140
3,74,83,36
3,74,81,32
3,74,99,136
3,74,92,128
3,74,87,120
3,74,89,136
3,69,90,12
3,69,73,112
3,71,80,16
3,72,92,0
3,72,90,104
3,71,67,16
3,69,75,176
3,67,83,92
3,74,84,1632
3,76,79,112
3,74,68,80
3,74,66,88
3,74,67,80
3,74,51,32
3,74,64,176
3,74,64,76
3,74,65,76
3,74,62,168
3,74,64,72
3,74,61,72
3,74,59,64
3,74,55,64
3,74,84,96
3,76,80,1536
3,74,63,176
3,74,59,128
3,74,59,96
3,74,59,64
3,74,53,188
3,74,60,112
3,74,66,56
3,74,46,192
3,74,57,92
3,74,60,64
3,74,61,80
3,74,56,64
3,74,78,96
3,76,70,1552
3,74,62,1508
3,74,59,64
3,74,61,68
3,74,54,32
3,74,51,144
3,74,61,72
3,74,58,48
3,74,51,176
3,74,64,80
3,74,52,32
3,74,64,48
3,74,52,44
3,74,73,76
3,76,45,120
3,74,59,124
3,74,53,96
3,74,59,80
3,74,58,80
3,74,48,208
3,74,53,88
3,74,56,60
3,74,50,204
3,74,54,96
3,74,57,80
3,74,52,80
3,74,53,96
4,74,60,3264
4,76,52,96
4,78,50,0
4,79,60,0
4,81,56,112
4,83,53,80
4,84,48,112
4,86,39,168
4,78,43,0
4,81,49,112
4,72,58,0
4,74,48,0
4,83,50,0
4,84,52,4
4,76,52,0
4,84,54,0
4,76,51,0
4,74,47,64
4,83,42,0
4,72,39,0
4,81,36,0
4,74,28,4
4,83,35,0
4,74,44,128
4,76,47,192
4,78,56,160
4,79,69,0
4,81,62,0
4,83,64,96
4,84,51,0
4,86,31,0
4,78,48,0
4,72,50,24
4,81,59,0
4,83,53,256
4,74,48,0
4,76,50,0
4,84,51,0
4,83,39,80
4,74,42,0
4,72,40,0
4,81,39,0
4,79,24,4
4,71,37,0
4,74,49,49400
4,76,42,0
4,78,50,0
4,79,65,20
4,81,53,96
4,83,56,64
4,84,38,16
4,86,36,4
4,78,41,0
4,81,31,0
4,72,26,0
4,74,41,384
4,83,51,0
4,76,48,96
4,84,50,0
4,76,44,48
4,84,52,0
4,74,41,16
4,83,33,0
4,72,34,0
4,81,32,0
4,74,32,20
4,83,25,0
4,74,43,160
4,76,37,192
4,78,49,160
