track,note,velocity,time
1,63,127,7108
1,72,125,8
1,75,127,4
1,63,127,128
1,72,125,176
1,75,127,4
1,63,127,92
1,68,124,168
1,72,122,0
1,63,127,92
1,68,123,180
1,72,125,0
1,63,127,8
1,75,126,12
1,72,123,0
1,63,127,96
1,72,127,176
1,75,127,0
1,63,127,72
1,72,127,164
1,68,124,0
1,63,127,0
1,68,123,176
1,72,120,0
1,63,126,8
1,72,127,180
1,75,126,0
1,63,126,8
1,72,127,88
1,75,127,4
1,74,125,20
1,70,127,4
1,73,124,76
1,69,127,0
1,68,127,96
1,72,127,4
1,62,127,976
1,70,126,16
1,65,127,4
1,62,122,192
1,70,127,120
1,65,127,4
1,62,122,0
1,67,127,52
1,62,120,160
1,67,127,92
1,62,127,128
1,70,127,88
1,65,127,8
1,62,127,4
1,70,127,96
1,65,127,16
1,62,127,172
1,67,127,108
1,62,121,124
1,67,127,92
1,63,127,0
1,69,127,192
1,63,127,104
1,69,119,108
1,63,127,0
1,65,127,0
1,69,127,96
1,68,119,40
1,67,125,16
1,66,127,0
1,65,127,16
1,63,127,896
1,64,127,0
1,65,127,32
1,67,127,616
1,69,127,0
1,67,127,76
1,65,127,112
1,63,127,136
1,62,127,32
1,60,127,8
1,58,127,144
1,60,127,172
1,58,126,16
1,62,127,4
1,65,127,700
1,64,127,120
1,63,127,32
1,62,127,28
1,63,127,540
1,65,127,32
1,63,127,120
1,62,127,4
1,60,127,0
1,58,123,16
1,57,127,176
1,55,127,28
1,57,127,60
1,58,127,84
1,55,127,16
1,51,127,828
1,52,127,12
1,53,127,0
1,54,127,184
1,58,127,8
1,58,127,260
1,60,127,8
1,61,127,0
1,60,127,8
1,58,127,188
1,56,127,4
1,54,127,172
1,51,127,84
1,53,127,8
1,54,127,52
1,51,127,1208
1,52,127,0
1,53,127,12
1,51,127,380
1,53,127,12
1,57,127,180
1,60,127,176
1,63,127,92
1,65,127,4
1,67,127,92
1,63,127,56
1,67,127,192
1,69,127,68
1,63,127,4
1,69,122,208
1,72,127,88
1,63,127,88
1,72,127,180
1,75,126,28
1,63,127,0
1,72,127,188
1,75,125,156
1,72,127,168
1,63,127,0
1,72,125,196
1,75,127,0
1,63,127,4
1,75,127,36
1,72,127,4
1,63,127,176
1,68,125,192
1,72,127,0
1,63,127,176
1,68,123,192
1,72,127,4
1,63,124,4
1,75,127,192
1,72,127,0
1,63,127,88
1,72,125,188
1,75,127,16
1,63,127,0
1,72,127,180
1,68,123,0
1,63,127,8
1,72,127,204
1,68,125,0
1,63,127,4
1,72,127,176
1,75,126,0
1,63,124,4
1,75,125,80
1,72,127,4
1,74,123,20
1,70,127,0
1,73,126,32
1,69,127,4
1,72,127,76
1,68,127,0
1,62,127,872
1,65,127,176
1,70,127,0
1,62,127,4
1,65,127,112
1,70,127,4
1,62,127,176
1,67,127,108
1,62,118,0
1,67,127,124
1,62,127,120
1,65,127,84
1,70,127,8
1,62,127,176
1,65,127,108
1,70,127,0
1,62,127,176
1,67,127,96
1,62,127,0
1,67,127,180
1,63,127,116
1,69,127,20
1,63,127,0
1,63,127,92
1,69,125,4
1,65,127,0
1,69,127,52
1,68,124,0
1,67,127,8
1,66,127,0
1,65,127,12
1,63,127,536
1,64,127,192
1,65,127,40
1,67,127,280
1,69,127,4
1,67,127,52
1,65,127,104
1,63,127,0
1,62,127,12
1,60,127,4
1,58,127,12
1,60,127,180
1,58,127,36
1,62,127,0
1,65,127,780
1,65,84,16
1,64,127,4
1,63,127,84
1,62,127,4
1,63,127,760
1,65,127,0
1,63,127,136
1,62,127,0
1,60,127,120
1,58,127,112
1,57,127,168
1,56,88,112
1,55,123,4
1,57,127,100
1,55,127,16
1,58,127,4
1,51,127,268
1,52,127,192
1,53,127,8
1,54,127,88
1,58,127,168
1,60,127,404
1,61,127,0
1,60,127,192
1,58,127,0
1,56,127,0
1,54,127,36
1,53,127,8
1,51,127,12
1,53,127,4
1,54,127,200
1,75,127,172
1,72,127,96
1,70,127,92
1,66,127,0
1,63,127,0
1,58,123,28
1,60,127,8
1,65,127,4
1,60,127,8
1,63,127,192
1,65,127,160
1,69,127,4
1,72,117,0
1,77,127,84
1,79,127,88
1,81,127,0
1,79,127,40
1,77,127,12
1,75,127,8
1,74,127,192
1,72,120,0
1,70,127,76
1,63,127,62620
1,72,127,200
1,75,127,4
1,63,127,88
1,75,127,164
1,72,127,4
1,73,97,0
1,63,127,4
1,72,123,152
1,68,127,4
1,63,127,16
1,68,123,176
1,72,125,4
1,63,127,12
1,72,127,0
1,75,127,0
1,73,98,16
1,63,127,116
1,75,127,4
1,72,122,0
1,63,127,24
1,72,122,168
1,68,123,4
1,63,127,4
1,68,125,196
1,72,125,4
1,63,127,8
1,72,123,192
1,75,123,0
1,63,127,176
1,75,125,80
1,72,125,0
1,70,125,20
1,74,119,4
1,73,121,36
1,69,127,4
1,68,127,52
1,72,127,4
1,62,127,1092
1,70,127,0
1,65,127,0
1,62,127,0
1,65,127,132
1,70,127,0
1,62,127,0
1,67,127,116
1,62,125,0
1,67,127,108
1,62,127,136
1,65,127,108
1,70,127,4
1,62,125,20
1,65,127,80
1,70,127,4
1,62,122,0
1,67,127,112
1,62,122,4
1,67,123,88
1,63,127,0
1,69,127,188
1,63,127,100
1,69,127,104
1,63,127,0
1,65,127,0
1,69,127,52
1,68,117,4
1,67,127,12
1,66,127,0
1,65,127,12
1,63,127,316
1,64,123,4
1,65,127,48
1,67,127,304
1,69,127,68
1,67,127,84
1,65,127,92
1,63,127,4
1,62,127,196
1,60,127,0
1,58,127,180
1,60,127,0
1,58,127,124
1,62,123,0
1,65,127,324
1,64,127,144
1,63,127,28
1,62,127,24
1,63,127,556
1,65,125,188
1,63,127,0
1,62,127,24
1,60,127,12
1,58,127,16
1,57,121,24
1,55,127,200
1,57,127,180
1,58,127,8
1,51,127,340
1,52,127,0
1,53,127,124
1,54,127,32
1,58,127,184
1,60,127,228
1,61,127,124
1,60,127,12
1,58,127,140
1,56,127,160
1,54,124,164
1,53,127,8
1,51,127,88
1,53,127,144
1,54,127,16
1,75,127,224
1,72,127,180
1,70,127,184
1,66,127,0
1,63,127,192
1,58,118,0
1,60,121,196
1,65,127,12
1,60,117,16
1,63,127,0
1,65,127,172
1,69,127,92
1,72,127,44
1,77,127,88
1,79,127,0
1,81,127,0
1,79,127,40
1,77,127,60
1,75,127,0
1,74,127,0
1,72,127,44
1,70,127,8
1,66,127,588
1,68,127,184
1,70,127,76
1,68,127,96
1,66,127,4
1,65,127,192
1,63,127,136
1,65,127,4
1,66,127,8
1,65,127,196
1,63,127,80
1,61,127,160
1,60,127,0
1,58,127,32
1,56,127,160
1,54,127,8
1,53,127,8
1,67,127,704
1,69,127,80
1,67,127,84
1,65,127,8
1,63,127,60
1,62,127,8
1,60,127,0
1,58,127,0
2,32,127,1540
2,39,127,60
2,42,127,16
2,44,127,12
2,32,127,244
2,39,127,24
2,42,127,20
2,44,127,4
2,32,127,164
2,39,127,56
2,42,127,20
2,44,127,20
2,32,127,116
2,39,127,104
2,42,127,20
2,44,127,24
2,32,127,88
2,39,127,576
2,42,127,36
2,39,127,20
2,32,127,64
2,39,127,4
2,42,127,16
2,39,127,16
2,32,127,88
2,39,127,576
2,42,127,16
2,39,127,28
2,32,127,64
2,39,127,576
2,42,127,16
2,34,127,488
2,41,127,0
2,46,127,192
2,41,127,16
2,34,127,44
2,41,127,576
2,46,127,188
2,41,127,32
2,29,127,36
2,36,127,576
2,45,127,16
2,36,127,16
2,29,127,8
2,36,127,576
2,45,127,8
2,36,127,384
2,33,127,16
2,36,127,20
2,41,127,192
2,36,127,376
2,29,127,24
2,36,127,576
2,41,127,8
2,29,127,384
2,34,127,44
2,41,127,576
2,46,127,176
2,41,123,376
2,34,127,44
2,34,127,4
2,29,127,28
2,34,127,192
2,29,127,24
2,26,127,84
2,33,127,64
2,42,127,192
2,33,127,376
2,26,127,60
2,33,127,28
2,42,127,192
2,26,127,376
2,31,127,96
2,38,127,8
2,43,127,192
2,38,127,16
2,31,127,28
2,38,127,28
2,43,127,192
2,38,127,380
2,30,127,8
2,37,127,572
2,42,127,8
2,37,127,4
2,30,127,8
2,37,127,12
2,42,127,8
2,37,127,16
2,39,127,28
2,34,127,16
2,39,126,192
2,34,127,36
2,27,127,16
2,34,127,16
2,39,127,8
2,34,127,32
2,29,127,24
2,36,127,20
2,41,127,192
2,36,127,4
2,29,127,8
2,36,127,156
2,41,127,8
2,36,127,72
2,29,127,48
2,36,127,28
2,41,127,8
2,36,127,0
2,29,127,24
2,36,127,576
2,41,127,8
2,36,127,16
2,32,127,96
2,39,127,576
2,42,127,180
2,39,127,376
2,32,127,24
2,39,127,4
2,42,127,192
2,39,127,24
2,32,127,36
2,39,127,576
2,42,127,148
2,39,127,360
2,32,127,40
2,39,127,576
2,42,127,168
2,34,127,368
2,41,127,24
2,46,127,12
2,41,127,32
2,34,127,44
2,41,127,56
2,46,127,0
2,41,127,16
2,29,127,36
2,36,127,36
2,45,127,8
2,36,127,384
2,29,127,4
2,36,127,28
2,45,127,192
2,36,127,20
2,33,127,8
2,36,127,0
2,41,127,192
2,36,127,28
2,29,127,20
2,36,127,20
2,41,127,8
2,29,127,4
2,34,127,24
2,41,126,576
2,46,127,172
2,41,125,372
2,34,127,24
2,29,127,44
2,34,127,192
2,29,127,380
2,26,117,68
2,33,127,8
2,42,127,192
2,33,127,8
2,26,127,384
2,33,127,564
2,42,127,20
2,26,127,0
2,31,127,56
2,38,127,100
2,43,127,192
2,38,123,372
2,31,127,372
2,38,127,4
2,43,127,24
2,38,127,384
2,30,127,376
2,37,127,52
2,42,127,12
2,37,127,36
2,30,127,16
2,37,127,52
2,42,127,8
2,37,127,0
2,39,127,96
2,34,127,576
2,39,127,176
2,34,127,368
2,27,127,8
2,34,127,576
2,39,127,8
2,34,127,384
2,29,124,136
2,36,127,24
2,45,127,12
2,36,126,8
2,29,127,384
2,36,127,16
2,45,127,16
2,29,127,384
2,34,127,16
2,41,127,48
2,46,127,60
2,41,127,20
2,34,127,24
2,41,127,152
2,46,127,12
2,41,127,380
2,34,127,8
2,34,127,180
2,41,127,8
2,41,126,148
2,46,121,192
2,46,122,132
2,41,124,192
2,41,123,128
2,34,127,192
2,34,127,132
2,41,127,8
2,41,124,112
2,34,127,192
2,34,127,140
2,41,127,8
2,34,127,380
2,27,127,360
2,27,127,156
2,30,127,20
2,30,123,200
2,34,127,192
2,34,127,208
2,30,127,8
2,30,127,112
2,27,127,8
2,27,127,140
2,34,127,192
2,34,126,120
2,27,127,192
2,27,127,140
2,34,127,196
2,27,127,372
2,29,127,152
2,36,125,28
2,41,127,20
2,36,124,384
2,29,127,376
2,36,127,12
2,41,127,8
2,29,127,380
2,34,127,40
2,41,127,60
2,46,127,8
2,41,123,16
2,34,127,80
2,41,121,576
2,46,127,176
2,41,122,12
2,34,127,120
2,41,124,576
2,46,127,44
2,41,125,36
2,34,127,80
2,41,121,576
2,46,127,8
2,34,127,384
2,27,127,36
2,34,127,80
2,39,127,192
2,34,127,24
2,27,127,12
2,34,127,156
2,39,127,192
2,34,127,24
2,29,127,60
2,36,127,12
2,41,127,192
2,36,127,24
2,29,127,12
2,36,127,576
2,41,127,180
2,29,127,376
2,34,127,372
2,41,121,4
2,46,127,192
2,41,123,8
2,34,127,80
2,41,126,20
2,46,127,12
2,41,125,380
2,36,127,24
2,43,127,104
2,48,127,192
2,43,127,376
2,36,127,12
2,43,127,768
2,36,127,376
2,29,127,16
2,36,127,92
2,41,127,192
2,36,127,376
2,41,127,16
2,41,127,4
2,39,127,72
2,37,127,8
2,36,127,384
2,34,127,32
2,34,127,120
2,41,127,8
2,41,127,76
2,46,127,0
2,46,127,132
2,41,127,192
2,41,127,136
2,34,127,8
2,34,127,124
2,41,124,8
2,41,126,136
2,34,127,20
2,34,127,160
2,41,125,192
2,34,127,360
2,27,127,8
2,27,127,148
2,30,127,12
2,30,127,112
2,34,127,0
2,34,127,112
2,30,127,12
2,30,127,108
2,27,127,8
2,27,127,128
2,34,127,20
2,34,125,176
2,27,127,192
2,27,127,140
2,34,127,192
2,27,127,368
2,29,127,60
2,36,127,28
2,41,127,8
2,29,127,28
2,36,127,576
2,41,127,8
2,34,127,24
2,29,127,36
2,34,127,8
2,34,127,132
2,29,127,44
2,34,127,20
2,36,127,136
2,43,127,0
2,48,112,192
2,36,125,376
2,29,127,80
2,36,127,64
2,41,127,192
2,29,121,376
2,34,127,24
2,41,123,12
2,46,127,192
2,41,124,360
2,34,127,32
2,41,127,576
2,34,127,188
2,32,127,476
2,39,127,576
2,42,127,184
2,39,127,24
2,32,127,80
2,39,127,88
2,42,127,192
2,39,126,16
2,32,127,88
2,39,127,88
2,42,127,16
2,39,126,28
2,32,127,72
2,39,127,576
2,42,127,8
2,34,127,356
2,41,127,68
2,46,127,8
2,41,126,384
2,34,127,76
2,41,127,20
2,46,127,8
2,41,127,380
2,29,127,60
2,36,127,80
2,45,127,192
2,36,127,16
2,29,127,20
2,36,127,40
2,45,127,192
2,36,127,16
2,29,127,384
2,36,127,52
2,45,127,192
2,36,127,376
2,29,127,380
2,36,127,572
2,41,127,176
2,29,127,16
2,34,127,60
2,41,124,576
2,46,127,4
2,41,127,16
2,34,127,36
2,29,127,56
2,34,127,192
2,29,127,376
2,26,127,104
2,33,127,56
2,42,127,8
2,33,127,16
2,26,127,28
2,33,127,48
2,42,127,8
2,26,127,4
2,31,127,24
2,38,127,44
2,43,127,192
2,38,127,376
2,31,127,376
2,38,127,72
2,43,127,20
2,38,127,384
2,30,127,12
2,37,127,36
2,42,127,8
2,37,127,8
2,30,127,384
2,37,127,572
2,42,127,8
2,37,127,16
2,39,127,44
2,34,127,28
2,39,127,192
2,34,127,16
2,27,127,12
2,34,127,24
2,39,127,196
2,34,127,376
2,29,127,24
2,36,127,112
2,41,127,4
2,36,127,384
2,29,127,364
2,36,127,76
2,41,127,8
2,29,127,0
2,34,127,24
2,41,126,576
2,46,127,4
2,41,121,24
2,34,127,8
2,41,126,576
2,46,127,16
2,41,127,384
2,39,127,76
2,29,127,2656
2,36,127,148
2,41,127,192
2,36,127,8
2,29,127,384
2,36,127,72
2,41,127,24
2,29,127,380
2,34,127,48
2,41,124,576
2,46,127,172
2,41,127,8
2,34,127,68
2,34,127,356
3,65,105,85444
3,70,98,192
3,72,92,156
3,73,109,0
3,72,118,80
3,70,119,40
3,69,102,180
3,70,94,100
3,70,126,3980
3,75,101,192
3,77,100,156
3,78,105,108
3,77,83,112
3,75,105,160
3,74,105,156
3,75,98,8
3,84,102,1792
3,85,105,108
3,87,94,152
3,85,113,184
3,84,90,24
3,82,98,16
3,81,97,192
3,84,97,124
3,83,95,104
3,82,73,120
3,80,109,1864
3,82,89,116
3,83,93,60
3,82,94,80
3,80,101,12
3,78,101,24
3,77,100,4
3,80,98,196
3,79,97,4
3,78,88,28
3,75,105,236
3,76,85,76
3,77,92,28
3,89,105,8
3,88,105,188
3,89,109,88
3,90,94,160
3,89,105,16
3,87,101,8
3,85,109,124
3,84,102,4
3,87,109,124
3,86,95,4
3,85,82,8
3,76,109,2024
3,79,105,32
3,82,119,52
3,85,113,108
3,84,97,176
3,83,109,16
3,82,105,84
3,81,80,12
3,65,118,4312
3,70,109,100
3,72,92,92
3,73,66,0
3,73,109,12
3,72,113,104
3,70,126,60
3,69,113,104
3,70,96,168
3,70,127,4044
3,75,96,96
3,77,95,24
3,78,96,120
3,77,109,108
3,75,119,0
3,74,118,192
3,75,98,112
3,88,102,7900
3,89,113,72
3,90,109,184
3,89,123,180
3,87,109,8
3,85,113,124
3,84,109,12
3,82,92,52
4,75,88,1928
4,82,89,0
4,78,87,4
4,72,85,0
4,75,93,620
4,82,89,0
4,78,91,0
4,72,90,0
4,75,93,624
4,82,93,4
4,78,91,0
4,72,94,0
4,82,89,612
4,75,89,0
4,78,88,0
4,72,89,0
4,82,91,616
