track,note,velocity,time
0,32,95,7679
0,32,95,480
0,32,95,479
0,47,77,4
0,35,99,357
0,38,77,1
0,38,95,116
0,34,127,2
0,42,77,1
0,35,99,233
0,45,77,2
0,35,99,1
0,42,95,0
0,57,99,0
0,47,99,4
0,71,63,3
0,74,63,1
0,78,63,2
0,59,45,2
0,62,45,1
0,66,45,1
0,90,65,0
0,64,119,2
0,42,95,3
0,42,95,5
0,42,99,3
0,38,109,0
0,42,99,6
0,78,127,3
0,66,71,1
0,81,127,1
0,69,71,1
0,42,95,2
0,83,127,2
0,71,71,1
0,42,95,3
0,85,127,2
0,73,71,1
0,35,99,2
0,42,95,0
0,47,99,2
0,86,127,2
0,74,71,0
0,85,127,1
0,73,71,1
0,42,95,7
0,83,127,1
0,74,69,1
0,42,95,7
0,42,99,5
0,39,127,2
0,42,99,2
0,38,109,0
0,45,99,2
0,27,119,2
0,42,95,6
0,47,99,1
0,69,63,1
0,42,95,9
0,73,63,2
0,35,99,108
0,42,95,0
0,47,99,3
0,69,63,1
0,73,63,0
0,76,63,0
0,57,45,0
0,61,45,0
0,64,45,0
0,88,65,0
0,42,95,21
0,88,127,5
0,76,71,1
0,42,95,112
0,85,127,1
0,73,71,2
0,42,99,7
0,38,109,0
0,42,99,2
0,81,127,2
0,69,71,0
0,42,95,6
0,85,127,2
0,73,71,1
0,64,63,1
0,42,95,6
0,81,127,1
0,69,63,1
0,69,71,1
0,35,99,4
0,42,95,0
0,76,127,3
0,64,63,0
0,69,63,0
0,73,63,0
0,47,99,0
0,64,71,0
0,52,45,1
0,57,45,1
0,61,45,1
0,85,65,1
0,42,95,18
0,81,127,1
0,69,71,2
0,42,95,5
0,42,99,2
0,76,127,2
0,64,71,1
0,42,99,5
0,38,109,0
0,45,99,2
0,69,127,1
0,57,71,1
0,71,127,1
0,59,71,1
0,42,95,8
0,47,99,2
0,73,127,1
0,62,63,1
0,61,71,1
0,62,63,49
0,42,95,9
0,69,127,2
0,66,63,1
0,57,71,1
0,35,99,1
0,42,95,0
0,71,127,1
0,62,63,0
0,66,63,0
0,71,63,0
0,35,99,0
0,59,71,1
0,50,45,1
0,54,39,1
0,59,29,1
0,83,65,1
0,42,95,20
0,42,95,7
0,42,99,2
0,38,109,0
0,57,99,0
0,35,99,2
0,71,127,4
0,59,63,0
0,74,63,0
0,66,63,0
0,78,47,0
0,71,87,0
0,71,59,1
0,66,55,2
0,42,95,15
0,42,95,19
0,35,99,119
0,42,95,0
0,78,53,3
0,66,59,1
0,42,95,3
0,47,99,2
0,71,79,1
0,59,67,1
0,83,79,1
0,42,95,6
0,42,99,2
0,38,109,0
0,49,99,2
0,73,127,3
0,78,59,1
0,73,89,1
0,61,67,1
0,85,79,1
0,66,61,1
0,42,95,8
0,50,99,2
0,74,127,1
0,74,89,2
0,62,67,0
0,86,79,1
0,42,95,13
0,35,99,3
0,42,95,0
0,78,65,3
0,66,63,2
0,42,95,4
0,35,99,2
0,74,127,1
0,74,89,1
0,62,67,1
0,42,95,108
0,42,99,5
0,38,109,0
0,35,99,2
0,73,127,3
0,78,71,1
0,73,89,1
0,61,67,1
0,66,67,1
0,42,95,4
0,42,95,2
0,38,79,0
0,35,99,2
0,35,99,7
0,38,103,0
0,35,99,2
0,69,127,3
0,78,77,1
0,69,89,1
0,57,67,0
0,66,69,1
0,42,95,8
0,42,99,2
0,66,95,1
0,66,89,1
0,54,67,1
0,42,95,3
0,38,119,0
0,42,99,1
0,38,85,0
0,30,99,3
0,78,81,2
0,66,71,1
0,35,99,6
0,42,95,0
0,33,99,3
0,71,127,2
0,71,89,1
0,59,67,0
0,42,95,10
0,35,99,2
0,42,95,0
0,57,99,0
0,71,63,1
0,74,63,0
0,78,63,0
0,47,99,0
0,78,87,0
0,59,45,3
0,62,45,1
0,66,45,1
0,90,65,1
0,64,119,1
0,42,95,22
0,42,95,22
0,42,99,1
0,38,109,0
0,42,99,7
0,78,127,3
0,66,71,1
0,81,127,1
0,69,71,1
0,42,95,3
0,83,127,2
0,71,71,1
0,42,95,2
0,85,127,1
0,73,71,1
0,35,99,1
0,42,95,0
0,47,99,2
0,86,127,2
0,74,71,0
0,85,127,2
0,73,71,2
0,42,95,6
0,83,127,1
0,74,69,2
0,42,95,7
0,42,99,5
0,39,127,2
0,42,99,1
0,38,109,0
0,45,99,2
0,27,119,2
0,42,95,8
0,47,99,2
0,69,63,56
0,42,95,10
0,73,63,2
0,35,99,109
0,42,95,0
0,47,99,2
0,69,63,1
0,73,63,0
0,76,63,0
0,57,45,0
0,61,45,0
0,64,45,0
0,88,65,0
0,42,95,20
0,88,127,3
0,76,71,1
0,42,95,110
0,85,127,2
0,73,71,1
0,42,99,6
0,38,109,0
0,42,99,2
0,81,127,2
0,69,71,1
0,42,95,7
0,85,127,2
0,73,71,1
0,64,63,1
0,42,95,6
0,81,127,2
0,69,63,1
0,69,71,1
0,35,99,5
0,42,95,0
0,76,127,1
0,64,63,0
0,69,63,0
0,73,63,0
0,47,99,0
0,64,71,0
0,52,45,2
0,57,45,1
0,61,45,1
0,85,65,1
0,42,95,21
0,81,127,2
0,69,71,1
0,42,95,8
0,42,99,1
0,76,127,2
0,64,71,1
0,42,99,4
0,38,109,0
0,45,99,3
0,69,127,1
0,57,71,1
0,71,127,2
0,59,71,1
0,42,95,5
0,47,99,2
0,73,127,2
0,62,63,1
0,61,71,1
0,62,63,1
0,62,63,1
0,42,95,9
0,69,127,2
0,66,63,1
0,57,71,1
0,35,99,4
0,42,95,0
0,71,127,1
0,62,63,0
0,35,99,0
0,66,63,1
0,71,63,2
0,59,71,1
0,50,45,1
0,54,39,1
0,59,29,1
0,83,65,1
0,66,55,1
0,42,95,21
0,42,95,6
0,42,99,14
0,38,109,0
0,49,99,0
0,35,99,2
0,71,127,3
0,59,63,1
0,71,59,1
0,74,63,0
0,78,63,0
0,78,47,0
0,71,89,0
0,66,59,2
0,42,95,13
0,42,95,17
0,35,99,119
0,42,95,0
0,78,53,3
0,66,61,1
0,42,95,2
0,47,99,2
0,71,85,2
0,59,67,0
0,83,79,1
0,42,95,8
0,42,99,3
0,38,109,0
0,49,99,2
0,73,127,3
0,78,59,1
0,73,95,1
0,61,67,1
0,85,79,1
0,66,63,1
0,42,95,7
0,50,99,2
0,74,127,2
0,74,95,1
0,62,67,1
0,86,79,0
0,42,95,9
0,35,99,2
0,42,95,0
0,78,65,2
0,66,67,1
0,42,95,5
0,35,99,2
0,74,127,1
0,74,95,1
0,62,67,1
0,42,95,109
0,42,99,4
0,38,109,0
0,35,99,3
0,73,127,3
0,78,71,1
0,73,95,1
0,61,67,1
0,66,69,1
0,42,95,5
0,42,95,3
0,35,99,2
0,59,127,1
0,35,99,11
0,38,95,0
0,35,99,2
0,74,127,2
0,78,77,2
0,74,95,0
0,62,67,1
0,66,71,1
0,42,95,4
0,42,99,3
0,47,109,1
0,73,127,1
0,73,95,1
0,61,67,1
0,42,95,7
0,42,99,118
0,38,109,0
0,30,99,2
0,78,81,2
0,66,87,1
0,50,127,0
0,42,95,5
0,33,99,2
0,43,127,2
0,71,127,1
0,71,95,1
0,59,67,1
0,35,99,5
0,42,95,0
0,57,89,0
0,47,99,2
0,59,63,2
0,62,63,0
0,66,63,0
0,78,79,0
0,42,95,19
0,42,95,1
0,42,99,17
0,38,109,0
0,42,99,8
0,42,95,7
0,42,95,120
0,35,99,2
0,42,95,0
0,47,99,7
0,42,95,5
0,42,95,119
0,42,99,2
0,42,99,1
0,38,109,0
0,45,99,4
0,42,95,5
0,47,99,2
0,42,95,5
0,35,99,118
0,42,95,0
0,40,99,2
0,57,63,2
0,61,63,1
0,64,63,1
0,42,95,12
0,42,95,119
0,42,99,1
0,38,109,0
0,45,99,5
0,42,95,1
0,38,99,2
0,64,63,2
0,55,63,0
0,59,63,1
0,62,63,1
0,42,95,12
0,35,99,1
0,42,95,0
0,42,95,239
0,43,99,2
0,42,95,4
0,42,99,119
0,38,109,0
0,50,99,4
0,42,95,7
0,42,95,120
0,35,99,3
0,42,95,0
0,49,99,3
0,57,63,2
0,61,63,0
0,64,63,1
0,42,95,11
0,42,95,119
0,47,99,2
0,42,99,1
0,38,109,0
0,45,99,3
0,42,95,2
0,50,99,1
0,59,63,2
0,62,63,0
0,66,63,1
0,42,95,11
0,35,99,1
0,42,95,0
0,42,95,239
0,42,99,2
0,42,95,2
0,42,99,1
0,38,109,0
0,38,99,7
0,42,95,3
0,42,99,5
0,42,95,3
0,35,99,118
0,42,95,0
0,45,99,2
0,57,63,2
0,61,63,2
0,64,63,0
0,42,95,13
0,42,95,119
0,40,99,2
0,42,99,8
0,38,109,0
0,37,99,3
0,42,95,4
0,43,99,2
0,55,63,2
0,59,63,0
0,62,63,1
0,42,95,9
0,35,99,2
0,42,95,0
0,42,95,2
0,38,99,3
0,42,95,5
0,46,99,3
0,38,109,0
0,31,99,3
0,42,95,7
0,42,95,120
0,35,99,1
0,42,95,0
0,57,99,0
0,35,99,4
0,59,63,3
0,62,63,1
0,66,63,1
0,71,67,1
0,74,67,1
0,78,67,0
0,78,75,0
0,42,95,14
0,42,95,119
0,46,99,2
0,38,109,0
0,30,99,6
0,42,95,4
0,42,95,119
0,35,99,1
0,42,95,0
0,35,99,7
0,42,95,6
0,42,95,119
0,30,99,2
0,46,99,2
0,38,109,0
0,33,99,3
0,42,95,5
0,35,99,3
0,42,95,4
0,35,99,2
0,42,95,0
0,40,99,2
0,57,63,2
0,61,63,2
0,64,63,0
0,69,65,0
0,73,65,0
0,76,65,0
0,76,75,0
0,42,95,18
0,42,95,119
0,46,99,1
0,38,109,0
0,33,99,7
0,42,95,8
0,31,99,2
0,64,63,3
0,55,63,1
0,59,63,0
0,62,63,0
0,67,63,0
0,71,63,0
0,74,63,0
0,71,69,0
0,42,95,20
0,35,99,2
0,42,95,0
0,42,95,1
0,43,99,2
0,42,95,4
0,46,99,3
0,38,109,0
0,50,99,3
0,42,95,6
0,42,95,119
0,35,99,113
0,42,95,0
0,49,99,3
0,52,63,2
0,57,63,1
0,61,63,0
0,64,61,0
0,69,61,0
0,73,61,0
0,73,75,0
0,42,95,19
0,42,95,119
0,47,99,2
0,46,99,15
0,38,109,0
0,45,99,4
0,42,95,1
0,50,99,1
0,54,63,2
0,59,63,1
0,62,63,0
0,62,57,0
0,71,57,0
0,66,57,0
0,74,75,0
0,42,95,21
0,35,99,4
0,42,95,0
0,42,95,2
0,42,99,3
0,42,95,1
0,46,99,2
0,38,109,0
0,38,99,8
0,42,95,4
0,42,99,5
0,42,95,3
0,35,99,116
0,42,95,0
0,45,99,2
0,52,63,2
0,57,63,0
0,61,63,0
0,69,55,0
0,64,55,0
0,73,55,0
0,73,75,0
0,42,95,21
0,42,95,119
0,40,99,2
0,55,95,1
0,38,109,0
0,37,99,3
0,38,89,2
0,57,97,0
0,43,99,1
0,50,63,3
0,55,63,1
0,59,63,1
0,67,57,2
0,74,57,0
0,71,57,0
0,67,75,0
0,42,95,16
0,35,99,5
0,42,95,0
0,42,95,11
0,31,99,4
0,67,107,2
0,42,95,6
0,69,111,1
0,42,99,112
0,38,109,0
0,43,99,2
0,71,113,2
0,73,117,1
0,42,95,9
0,74,119,2
0,42,95,2
0,76,123,2
0,35,99,1
0,42,95,0
0,31,99,2
0,78,125,3
0,67,53,1
0,71,53,0
0,67,79,2
0,71,79,0
0,74,79,0
0,42,95,15
0,79,127,2
0,42,95,8
0,42,99,13
0,38,109,0
0,43,99,3
0,42,95,5
0,79,127,2
0,67,53,2
0,71,53,1
0,67,79,0
0,71,79,1
0,74,79,1
0,42,95,5
0,35,99,119
0,42,95,0
0,31,99,4
0,42,95,7
0,42,95,120
0,42,99,5
0,38,109,0
0,43,99,3
0,42,95,7
0,42,95,1
0,35,99,118
0,42,95,0
0,31,99,2
0,78,67,2
0,73,99,1
0,42,95,11
0,79,67,2
0,74,99,1
0,42,95,4
0,42,99,8
0,38,109,0
0,43,99,2
0,42,95,10
0,79,67,5
0,74,99,1
0,42,95,2
0,35,99,3
0,42,95,0
0,31,99,3
0,42,95,5
0,67,107,2
0,42,95,3
0,69,111,2
0,42,99,3
0,38,109,0
0,43,99,2
0,71,113,2
0,73,117,112
0,42,95,8
0,74,119,1
0,42,95,2
0,76,123,2
0,35,99,110
0,42,95,0
0,31,99,2
0,78,125,2
0,91,69,1
0,74,67,1
0,67,79,0
0,71,79,0
0,42,95,16
0,79,127,1
0,42,95,9
0,42,99,16
0,38,109,0
0,43,99,4
0,42,95,6
0,79,125,5
0,67,79,2
0,71,79,1
0,74,67,1
0,42,95,1
0,35,99,119
0,42,95,0
0,31,99,3
0,42,95,8
0,42,95,120
0,42,99,4
0,38,109,0
0,43,99,3
0,42,95,5
0,74,95,2
0,42,95,4
0,35,99,118
0,42,95,0
0,31,99,2
0,78,99,2
0,73,95,1
0,42,95,10
0,79,99,2
0,74,95,2
0,42,95,6
0,42,99,8
0,38,109,0
0,43,99,4
0,42,95,7
0,42,95,1
0,35,99,115
0,38,95,0
0,78,121,2
0,42,99,0
0,78,99,0
0,73,61,0
0,78,89,0
0,90,69,2
0,73,83,1
0,35,99,16
0,38,95,0
0,42,99,3
0,78,125,1
0,78,89,1
0,78,99,1
0,73,83,1
0,35,99,8
0,38,95,0
0,42,99,2
0,78,123,2
0,78,89,1
0,78,99,1
0,73,83,1
0,35,99,9
0,38,95,0
0,42,99,2
0,78,125,2
0,78,89,1
0,78,99,1
0,73,83,1
0,35,99,9
0,38,109,0
0,42,99,2
0,78,121,2
0,78,89,1
0,78,95,1
0,73,83,1
0,35,99,11
0,38,95,0
0,57,99,0
0,42,99,3
0,78,121,2
0,78,99,1
0,78,89,0
0,73,83,1
0,35,99,7
0,42,99,0
0,45,99,2
0,81,103,2
0,69,79,2
0,35,99,1
0,42,99,0
0,40,99,3
0,76,101,1
0,64,67,2
0,35,99,7
0,38,95,0
0,42,99,2
0,78,123,2
0,78,89,1
0,73,61,1
0,78,99,1
0,73,83,1
0,35,99,4
0,38,95,0
0,42,99,2
0,78,125,2
0,78,89,1
0,78,99,1
0,73,83,1
0,35,99,9
0,38,95,0
0,42,99,2
0,78,123,2
0,78,89,1
0,78,99,1
0,73,83,1
0,35,99,10
0,38,95,0
0,42,99,2
0,78,121,2
0,78,89,1
0,78,99,1
0,73,83,1
0,35,99,9
0,38,109,0
0,42,99,2
0,78,125,2
0,78,99,2
0,78,89,0
0,73,83,1
0,35,99,4
0,38,95,0
0,57,99,0
0,42,99,4
0,78,121,2
0,78,89,1
0,78,99,1
0,73,83,1
0,64,109,1
0,38,99,13
0,35,99,2
0,35,99,11
0,38,119,0
0,38,99,3
0,96,83,4
0,95,83,100
0,93,83,5
0,91,83,4
0,89,83,22
0,88,83,25
0,38,115,4
0,40,99,3
0,86,83,6
0,84,83,7
0,83,83,11
0,81,83,23
0,38,107,4
0,79,83,13
0,77,83,29
0,76,83,23
0,74,83,19
0,72,83,3
0,35,99,3
0,42,95,0
0,57,99,0
0,47,99,2
0,71,83,2
0,71,63,1
0,74,63,1
0,78,63,2
0,78,99,1
0,78,69,1
0,71,47,0
0,74,47,0
0,78,47,0
0,90,79,2
0,90,65,1
0,69,83,7
0,42,95,14
0,42,95,1
0,38,99,3
0,42,99,1
0,38,109,0
0,39,65,0
0,42,99,4
0,78,99,2
0,42,95,5
0,45,99,2
0,42,95,3
0,76,99,3
0,69,67,1
0,35,99,2
0,42,95,0
0,47,99,2
0,78,99,2
0,71,67,1
0,42,95,8
0,78,63,3
0,90,65,1
0,42,95,9
0,38,99,3
0,42,99,3
0,38,109,0
0,39,65,0
0,42,99,5
0,78,63,1
0,90,65,1
0,42,95,5
0,45,99,2
0,42,95,4
0,35,99,115
0,42,95,0
0,69,63,2
0,73,63,0
0,78,63,0
0,40,99,0
0,69,47,0
0,73,47,0
0,76,47,0
0,88,79,2
0,90,65,1
0,42,95,22
0,42,95,119
