track,note,velocity,time
3,63,101,3072
3,63,0,424
3,63,118,56
3,63,0,72
3,63,105,24
3,63,0,96
3,62,109,0
3,63,105,96
3,62,0,6
3,58,100,378
3,63,0,3
3,58,0,341
3,60,100,40
3,60,0,93
3,63,109,3
3,63,0,76
3,63,88,20
3,60,107,96
3,63,0,8
3,58,101,88
3,60,0,4
3,63,94,92
3,58,0,4
3,63,0,79
3,63,103,13
3,63,0,84
3,65,80,12
3,65,0,81
3,66,96,15
3,65,86,96
3,66,0,1
3,63,94,95
3,65,0,3
3,60,98,93
3,63,0,10
3,60,0,86
3,63,90,0
3,63,0,189
3,63,94,3
3,63,0,73
3,63,89,23
3,63,0,87
3,63,98,9
3,63,0,433
3,63,101,47
3,63,0,77
3,63,86,19
3,63,0,70
3,63,80,26
3,65,100,96
3,63,0,9
3,63,100,375
3,65,0,6
3,63,0,372
3,65,101,6
3,65,0,379
3,67,109,5
3,67,0,353
3,68,103,127
3,70,101,96
3,68,0,2
3,72,92,94
3,70,0,14
3,72,0,77
3,70,94,5
3,70,0,86
3,67,94,10
3,67,0,77
3,63,100,19
3,63,0,82
3,67,101,14
3,67,0,187
3,65,109,5
3,65,0,904
3,65,111,56
3,66,109,96
3,65,0,13
3,66,0,79
3,65,107,4
3,63,105,96
3,65,0,7
3,61,101,89
3,63,0,7
3,63,101,89
3,61,0,10
3,63,0,168
3,63,94,14
3,63,0,96
3,66,103,0
3,66,0,87
3,66,103,9
3,65,98,96
3,66,0,57
3,63,101,39
3,65,0,2
3,61,118,94
3,63,0,5
3,61,0,72
3,62,116,19
3,62,0,768
3,63,100,0
3,63,0,734
3,43,111,34
3,55,101,0
3,43,0,183
3,58,96,9
3,46,101,0
3,55,0,2
3,46,0,179
3,62,88,11
3,50,92,0
3,58,0,11
3,65,107,181
3,53,96,0
3,50,0,19
3,62,0,5
3,43,92,168
3,55,96,0
3,53,0,13
3,65,0,1
3,58,105,178
3,46,98,0
3,43,0,5
3,55,0,3
3,50,98,184
3,62,98,0
3,46,0,2
3,58,0,8
3,53,103,182
3,65,103,0
3,62,0,19
3,50,0,3
3,53,0,167
3,65,0,11
3,51,101,1528
3,51,0,424
3,51,118,56
3,51,0,72
3,51,105,24
3,51,0,96
3,50,109,0
3,51,105,96
3,50,0,6
3,46,100,378
3,51,0,3
3,46,0,341
3,48,100,40
3,48,0,93
3,51,109,3
3,51,0,76
3,51,88,20
3,48,107,96
3,51,0,8
3,46,101,88
3,48,0,4
3,51,94,92
3,46,0,4
3,51,0,79
3,51,103,13
3,51,0,84
3,53,80,12
3,53,0,81
3,54,96,15
3,53,86,96
3,54,0,1
3,51,94,95
3,53,0,3
3,48,98,93
3,51,0,10
3,48,0,86
3,51,90,0
3,51,0,189
3,51,94,3
3,51,0,73
3,51,89,23
3,51,0,87
3,51,98,9
3,51,0,433
3,51,101,47
3,51,0,77
3,51,86,19
3,51,0,70
3,51,80,26
3,53,100,96
3,51,0,9
3,51,100,375
3,53,0,6
3,51,0,372
3,53,101,6
3,53,0,379
3,55,109,5
3,55,0,353
3,56,103,127
3,58,101,96
3,56,0,2
3,60,92,94
3,58,0,14
3,60,0,77
3,58,94,5
3,58,0,86
3,55,94,10
3,55,0,77
3,51,100,19
3,51,0,82
3,55,101,14
3,55,0,187
3,53,109,5
3,53,0,904
3,53,111,56
3,54,109,96
3,53,0,13
3,54,0,79
3,53,107,4
3,51,105,96
3,53,0,7
3,49,101,89
3,51,0,7
3,51,101,89
3,49,0,10
3,51,0,168
3,51,94,14
3,51,0,96
3,54,103,0
3,54,0,87
3,54,103,9
3,53,98,96
3,54,0,57
3,51,101,39
3,53,0,2
3,49,118,94
3,51,0,5
3,49,0,72
3,50,116,19
3,50,0,768
3,51,100,0
3,51,0,734
3,43,111,34
3,55,101,0
3,43,0,183
3,58,96,9
3,46,101,0
3,55,0,2
3,46,0,179
3,62,88,11
3,50,92,0
3,58,0,11
3,65,107,181
3,53,96,0
3,50,0,19
3,62,0,5
3,43,92,168
3,55,96,0
3,53,0,13
3,65,0,1
3,58,105,178
3,46,98,0
3,43,0,5
3,55,0,3
3,50,98,184
3,62,98,0
3,46,0,2
3,58,0,8
3,53,103,182
3,65,103,0
3,62,0,19
3,50,0,3
3,53,0,167
3,65,0,11
3,43,111,1528
3,55,101,0
3,43,0,183
3,58,96,9
3,46,101,0
3,55,0,2
3,46,0,179
3,62,88,11
3,50,92,0
3,58,0,11
3,65,107,181
3,53,96,0
3,50,0,19
3,62,0,5
3,43,92,168
3,55,96,0
3,53,0,13
3,65,0,1
3,58,105,178
3,46,98,0
3,43,0,5
3,55,0,3
3,50,98,184
3,62,98,0
3,46,0,2
3,58,0,8
3,53,103,182
3,65,103,0
3,62,0,19
3,50,0,3
3,53,0,167
3,65,0,11
3,53,113,1576
3,65,127,144
3,65,0,107
3,53,0,29
3,53,114,56
3,65,116,0
3,65,0,185
3,53,0,22
3,63,105,177
3,51,113,0
3,51,0,264
3,63,0,23
3,65,85,1
3,53,98,0
3,55,98,48
3,67,96,0
3,65,0,8
3,53,0,8
3,55,0,22
3,67,0,4
3,53,107,6
3,65,101,0
3,65,0,411
3,53,0,6
3,53,114,159
3,65,114,0
3,53,0,124
3,65,0,1
3,53,107,67
3,65,111,0
3,65,0,242
3,53,0,16
3,63,113,126
3,51,111,0
3,51,0,283
3,53,94,5
3,65,105,0
3,63,0,13
3,55,96,35
3,67,92,0
3,65,0,6
3,53,0,3
3,55,0,31
3,67,0,7
3,53,107,1
3,65,100,0
3,65,0,248
3,53,0,5
3,63,101,1283
3,63,0,424
3,63,118,56
3,63,0,72
3,63,105,24
3,63,0,96
3,62,109,0
3,63,105,96
3,62,0,6
3,58,100,378
3,63,0,3
3,58,0,341
3,60,100,40
3,60,0,93
3,63,109,3
3,63,0,76
3,63,88,20
3,60,107,96
3,63,0,8
3,58,101,88
3,60,0,4
3,63,94,92
3,58,0,4
3,63,0,79
3,63,103,13
3,63,0,84
3,65,80,12
3,65,0,81
3,66,96,15
3,65,86,96
3,66,0,1
3,63,94,95
3,65,0,3
3,60,98,93
3,63,0,10
3,60,0,86
3,63,90,0
3,63,0,189
3,63,94,3
3,63,0,73
3,63,89,23
3,63,0,87
3,63,98,9
3,63,0,433
3,63,101,47
3,63,0,77
3,63,86,19
3,63,0,70
3,63,80,26
3,65,100,96
3,63,0,9
3,63,100,375
3,65,0,6
3,63,0,372
3,65,101,6
3,65,0,379
3,67,109,5
3,67,0,353
3,68,103,127
3,70,101,96
3,68,0,2
3,72,92,94
3,70,0,14
3,72,0,77
3,70,94,5
3,70,0,86
3,67,94,10
3,67,0,77
3,63,100,19
3,63,0,82
3,67,101,14
3,67,0,187
3,65,109,5
3,65,0,904
3,65,111,56
3,66,109,96
3,65,0,13
3,66,0,79
3,65,107,4
3,63,105,96
3,65,0,7
3,61,101,89
3,63,0,7
3,63,101,89
3,61,0,10
3,63,0,168
3,63,94,14
3,63,0,96
3,66,103,0
3,66,0,87
3,66,103,9
3,65,98,96
3,66,0,57
3,63,101,39
3,65,0,2
3,61,118,94
3,63,0,5
3,61,0,72
3,62,116,19
3,62,0,768
3,63,100,0
3,63,0,734
3,43,111,34
3,55,101,0
3,43,0,183
3,58,96,9
3,46,101,0
3,55,0,2
3,46,0,179
3,62,88,11
3,50,92,0
3,58,0,11
3,65,107,181
3,53,96,0
3,50,0,19
3,62,0,5
3,43,92,168
3,55,96,0
3,53,0,13
3,65,0,1
3,58,105,178
3,46,98,0
3,43,0,5
3,55,0,3
3,50,98,184
3,62,98,0
3,46,0,2
3,58,0,8
3,53,103,182
3,65,103,0
3,62,0,19
3,50,0,3
3,53,0,167
3,65,0,11
3,43,111,1528
3,55,101,0
3,43,0,183
3,58,96,9
3,46,101,0
3,55,0,2
3,46,0,179
3,62,88,11
3,50,92,0
3,58,0,11
3,65,107,181
3,53,96,0
3,50,0,19
3,62,0,5
3,43,92,168
3,55,96,0
3,53,0,13
3,65,0,1
3,58,105,178
3,46,98,0
3,43,0,5
3,55,0,3
3,50,98,184
3,62,98,0
3,46,0,2
3,58,0,8
3,53,103,182
3,65,103,0
3,62,0,19
3,50,0,3
3,53,0,167
3,65,0,11
3,53,113,1576
3,65,127,144
3,65,0,107
3,53,0,29
3,53,114,56
3,65,116,0
3,65,0,185
3,53,0,22
3,63,105,177
3,51,113,0
3,51,0,264
3,63,0,23
3,65,85,1
3,53,98,0
3,55,98,48
3,67,96,0
3,65,0,8
3,53,0,8
3,55,0,22
3,67,0,4
3,53,107,6
3,65,101,0
3,65,0,411
3,53,0,6
3,53,114,159
3,65,114,0
3,53,0,124
3,65,0,1
3,53,107,67
3,65,111,0
3,65,0,242
3,53,0,16
3,63,113,126
3,51,111,0
3,51,0,283
3,53,94,5
3,65,105,0
3,63,0,13
3,55,96,35
3,67,92,0
3,65,0,6
3,53,0,3
3,55,0,31
3,67,0,7
3,53,107,1
3,65,100,0
3,65,0,248
3,53,0,5
3,53,113,1715
3,65,127,144
3,65,0,107
3,53,0,29
3,53,114,56
3,65,116,0
3,65,0,185
3,53,0,22
3,63,105,177
3,51,113,0
3,51,0,264
3,63,0,23
3,65,85,1
3,53,98,0
3,55,98,48
3,67,96,0
3,65,0,8
3,53,0,8
3,55,0,22
3,67,0,4
3,53,107,6
3,65,101,0
3,65,0,411
3,53,0,6
3,53,114,159
3,65,114,0
3,53,0,124
3,65,0,1
3,53,107,67
3,65,111,0
3,65,0,242
3,53,0,16
3,63,113,126
3,51,111,0
3,51,0,283
3,53,94,5
3,65,105,0
3,63,0,13
3,55,96,35
3,67,92,0
3,65,0,6
3,53,0,3
3,55,0,31
3,67,0,7
3,53,107,1
3,65,100,0
3,65,0,248
3,53,0,5
4,53,100,52788
4,65,98,2
4,53,0,130
4,65,0,3
4,53,101,57
4,65,111,2
4,55,105,379
4,53,0,2
4,67,100,3
4,65,0,16
4,53,86,274
4,65,88,3
4,55,0,3
4,67,0,2
4,51,80,49
4,63,89,0
4,53,0,8
4,65,0,0
4,50,89,13
4,51,0,13
4,63,0,11
4,62,94,2
4,62,0,374
4,50,0,0
4,53,101,189
4,65,101,0
4,65,0,136
4,53,0,0
4,53,101,56
4,65,90,0
4,53,0,382
4,55,98,3
4,67,105,4
4,65,0,8
4,53,80,268
4,55,0,7
4,65,96,0
4,67,0,17
4,53,0,20
4,63,89,16
4,51,77,8
4,65,0,1
4,51,0,35
4,63,0,0
4,50,86,5
4,62,74,2
4,50,0,368
4,62,0,3
4,53,100,1734
4,65,98,2
4,53,0,130
4,65,0,3
4,53,101,57
4,65,111,2
4,55,105,379
4,53,0,2
4,67,100,3
4,65,0,16
4,53,86,274
4,65,88,3
4,55,0,3
4,67,0,2
4,51,80,49
4,63,89,0
4,53,0,8
4,65,0,0
4,50,89,13
4,51,0,13
4,63,0,11
4,62,94,2
4,62,0,374
4,50,0,0
4,53,101,189
4,65,101,0
4,65,0,136
4,53,0,0
4,53,101,56
4,65,90,0
4,53,0,382
4,55,98,3
4,67,105,4
4,65,0,8
4,53,80,268
4,55,0,7
4,65,96,0
4,67,0,17
4,53,0,20
4,63,89,16
4,51,77,8
4,65,0,1
4,51,0,35
4,63,0,0
4,50,86,5
4,62,74,2
4,50,0,368
4,62,0,3
5,77,88,52796
5,65,85,0
5,65,0,128
5,77,0,7
5,77,96,51
5,65,90,3
5,67,89,384
5,79,89,3
5,65,0,4
5,77,0,12
5,77,80,359
5,65,86,1
5,79,0,16
5,67,0,16
5,77,0,372
5,65,0,4
5,77,96,173
5,65,100,5
5,65,0,130
5,77,0,0
5,65,103,59
5,77,94,0
5,67,98,379
5,65,0,5
5,79,100,1
5,77,0,10
5,67,0,280
5,79,0,2
5,79,113,11
5,67,100,6
5,77,101,75
5,79,0,4
5,65,98,0
5,67,0,3
5,65,0,278
5,77,0,3
5,77,88,1824
5,65,85,0
5,65,0,128
5,77,0,7
5,77,96,51
5,65,90,3
5,67,89,384
5,79,89,3
5,65,0,4
5,77,0,12
5,77,80,359
5,65,86,1
5,79,0,16
5,67,0,16
5,77,0,372
5,65,0,4
5,77,96,173
5,65,100,5
5,65,0,130
5,77,0,0
5,65,103,59
5,77,94,0
5,67,98,379
5,65,0,5
5,79,100,1
5,77,0,10
5,67,0,280
5,79,0,2
5,79,113,11
5,67,100,6
5,77,101,75
5,79,0,4
5,65,98,0
5,67,0,3
5,65,0,278
5,77,0,3
6,68,111,193
6,80,114,3
6,67,89,0
6,79,100,5
6,68,0,5
6,80,0,5
6,65,92,137
6,67,0,3
6,77,100,0
6,79,0,7
6,65,0,104
6,77,0,4
6,68,113,965
6,80,113,2
6,79,105,141
6,67,89,3
6,68,0,2
6,80,0,7
6,65,92,118
6,77,89,3
6,67,0,4
6,79,0,6
6,77,0,88
6,65,0,7
6,80,94,918
6,68,107,2
6,67,79,16
6,79,94,1
6,80,0,13
6,68,0,6
6,67,0,172
6,77,72,0
6,65,77,0
6,79,0,9
6,77,0,176
6,65,0,15
6,80,48,374
6,68,54,0
6,79,38,194
6,67,35,2
6,80,0,14
6,68,0,2
6,77,32,161
6,65,27,0
6,67,0,2
6,79,0,13
6,77,0,85
6,65,0,11
7,62,85,0
7,62,0,94
7,65,89,2
7,65,0,91
7,70,94,5
7,65,84,96
7,70,0,11
7,65,0,77
7,72,88,8
7,72,0,323
7,62,94,61
7,62,0,93
7,65,98,3
7,65,0,80
7,70,94,16
7,77,90,96
7,70,0,8
7,72,92,88
7,77,0,6
7,72,0,298
7,70,69,80
7,63,77,0
7,68,77,0
7,63,0,366
7,62,76,18
7,65,80,0
7,68,0,1
7,62,0,347
7,63,81,36
7,68,66,0
7,65,0,20
7,63,0,331
7,65,73,33
7,62,73,0
7,68,0,7
7,70,0,341
7,62,0,3
7,65,0,1
7,72,64,32
7,67,66,0
7,75,74,0
7,48,77,0
7,60,76,96
7,67,0,17
7,72,0,9
7,75,0,4
7,67,84,65
7,60,0,26
7,48,0,65
7,67,0,3
7,75,73,2
7,75,0,36
7,75,64,60
7,70,74,0
7,65,69,0
7,46,72,0
7,58,78,2
7,65,0,43
7,75,0,0
7,70,0,50
7,65,84,3
7,46,0,52
7,65,0,33
7,75,83,11
7,58,0,4
7,75,0,58
7,70,76,34
7,75,69,0
7,67,75,0
7,51,75,0
7,63,70,93
7,67,0,43
7,75,0,21
7,70,0,29
7,67,77,0
7,70,86,96
7,63,0,13
7,67,0,2
7,51,0,31
7,43,100,13
7,55,35,34
7,70,0,46
7,67,70,50
7,67,0,95
7,75,88,1
7,55,0,2
7,43,0,20
7,75,0,54
7,72,76,12
7,44,85,0
7,68,69,0
7,56,64,24
7,75,85,96
7,72,0,6
7,56,0,3
7,68,0,2
7,44,0,82
7,72,57,3
7,75,0,3
7,72,0,18
7,67,66,15
7,75,63,0
7,51,84,0
7,63,64,23
7,67,0,72
7,75,0,15
7,70,92,9
7,63,0,13
7,51,0,80
7,75,69,3
7,70,0,3
7,75,0,30
7,70,70,8
7,77,62,0
7,46,80,0
7,58,70,21
7,74,86,96
7,77,0,16
7,70,0,6
7,74,0,6
7,58,0,36
7,58,80,32
7,46,0,16
7,58,0,34
7,51,75,13
7,67,63,0
7,75,69,0
7,70,71,0
7,63,81,15
7,67,0,54
7,67,86,42
7,75,0,1
7,70,0,8
7,63,0,16
7,67,0,58
7,51,0,3
7,75,77,10
7,75,0,54
7,72,73,2
7,75,55,0
7,68,66,0
7,44,81,0
7,56,59,24
7,68,0,38
7,72,0,18
7,75,0,7
7,68,76,33
7,75,77,96
7,56,0,3
7,68,0,44
7,56,77,49
7,75,0,80
7,68,81,16
7,75,83,96
7,68,0,12
7,56,0,44
7,44,0,29
7,68,71,11
7,75,0,1
7,68,0,41
7,46,85,54
7,77,75,0
7,58,65,23
7,70,64,0
7,77,0,40
7,77,88,56
7,70,0,27
7,46,0,47
7,77,0,22
7,70,76,0
7,58,0,6
7,70,0,30
7,75,73,16
7,51,76,0
