track,note,velocity,time
1,63,127,2378
1,63,0,424
1,63,127,56
1,63,0,72
1,63,127,24
1,63,0,96
1,62,127,0
1,63,127,96
1,62,0,6
1,58,127,378
1,63,0,3
1,58,0,341
1,60,127,40
1,60,0,93
1,63,127,3
1,63,0,76
1,63,127,20
1,60,127,96
1,63,0,8
1,58,127,88
1,60,0,4
1,63,127,92
1,58,0,4
1,63,0,79
1,63,127,13
1,63,0,84
1,65,127,12
1,65,0,81
1,66,127,15
1,65,127,96
1,66,0,1
1,63,127,95
1,65,0,3
1,60,127,93
1,63,0,10
1,60,0,86
1,63,127,0
1,63,0,189
1,63,127,3
1,63,0,73
1,63,127,23
1,63,0,87
1,63,127,9
1,63,0,433
1,63,127,47
1,63,0,77
1,63,127,19
1,63,0,70
1,63,127,26
1,65,127,96
1,63,0,9
1,63,127,375
1,65,0,6
1,63,0,372
1,65,127,6
1,65,0,379
1,67,127,5
1,67,0,353
1,68,127,127
1,70,127,96
1,68,0,2
1,72,127,94
1,70,0,14
1,72,0,77
1,70,127,5
1,70,0,86
1,67,127,10
1,67,0,77
1,63,127,19
1,63,0,82
1,67,127,14
1,67,0,187
1,65,127,5
1,65,0,904
1,65,127,56
1,66,127,96
1,65,0,13
1,66,0,79
1,65,127,4
1,63,127,96
1,65,0,7
1,61,127,89
1,63,0,7
1,63,127,89
1,61,0,10
1,63,0,168
1,63,127,14
1,63,0,96
1,66,127,0
1,66,0,87
1,66,127,9
1,65,127,96
1,66,0,57
1,63,127,39
1,65,0,2
1,61,127,94
1,63,0,5
1,61,0,72
1,62,127,19
1,62,0,768
1,63,127,0
1,63,0,734
1,43,127,34
1,55,127,0
1,43,0,183
1,58,127,9
1,46,127,0
1,55,0,2
1,46,0,179
1,62,127,11
1,50,127,0
1,58,0,11
1,65,127,181
1,53,127,0
1,50,0,19
1,62,0,5
1,43,127,168
1,55,127,0
1,53,0,13
1,65,0,1
1,58,127,178
1,46,127,0
1,43,0,5
1,55,0,3
1,50,127,184
1,62,127,0
1,46,0,2
1,58,0,8
1,53,127,182
1,65,127,0
1,62,0,19
1,50,0,3
1,53,0,167
1,65,0,11
1,51,127,1528
1,51,0,424
1,51,127,56
1,51,0,72
1,51,127,24
1,51,0,96
1,50,127,0
1,51,127,96
1,50,0,6
1,46,127,378
1,51,0,3
1,46,0,341
1,48,127,40
1,48,0,93
1,51,127,3
1,51,0,76
1,51,127,20
1,48,127,96
1,51,0,8
1,46,127,88
1,48,0,4
1,51,127,92
1,46,0,4
1,51,0,79
1,51,127,13
1,51,0,84
1,53,127,12
1,53,0,81
1,54,127,15
1,53,127,96
1,54,0,1
1,51,127,95
1,53,0,3
1,48,127,93
1,51,0,10
1,48,0,86
1,51,127,0
1,51,0,189
1,51,127,3
1,51,0,73
1,51,127,23
1,51,0,87
1,51,127,9
1,51,0,433
1,51,127,47
1,51,0,77
1,51,127,19
1,51,0,70
1,51,127,26
1,53,127,96
1,51,0,9
1,51,127,375
1,53,0,6
1,51,0,372
1,53,127,6
1,53,0,379
1,55,127,5
1,55,0,353
1,56,127,127
1,58,127,96
1,56,0,2
1,60,127,94
1,58,0,14
1,60,0,77
1,58,127,5
1,58,0,86
1,55,127,10
1,55,0,77
1,51,127,19
1,51,0,82
1,55,127,14
1,55,0,187
1,53,127,5
1,53,0,904
1,53,127,56
1,54,127,96
1,53,0,13
1,54,0,79
1,53,127,4
1,51,127,96
1,53,0,7
1,49,127,89
1,51,0,7
1,51,127,89
1,49,0,10
1,51,0,168
1,51,127,14
1,51,0,96
1,54,127,0
1,54,0,87
1,54,127,9
1,53,127,96
1,54,0,57
1,51,127,39
1,53,0,2
1,49,127,94
1,51,0,5
1,49,0,72
1,50,127,19
1,50,0,768
1,51,127,0
1,51,0,734
1,43,127,34
1,55,127,0
1,43,0,183
1,58,127,9
1,46,127,0
1,55,0,2
1,46,0,179
1,62,127,11
1,50,127,0
1,58,0,11
1,65,127,181
1,53,127,0
1,50,0,19
1,62,0,5
1,43,127,168
1,55,127,0
1,53,0,13
1,65,0,1
1,58,127,178
1,46,127,0
1,43,0,5
1,55,0,3
1,50,127,184
1,62,127,0
1,46,0,2
1,58,0,8
1,53,127,182
1,65,127,0
1,62,0,19
1,50,0,3
1,53,0,167
1,65,0,11
1,43,127,1528
1,55,127,0
1,43,0,183
1,58,127,9
1,46,127,0
1,55,0,2
1,46,0,179
1,62,127,11
1,50,127,0
1,58,0,11
1,65,127,181
1,53,127,0
1,50,0,19
1,62,0,5
1,43,127,168
1,55,127,0
1,53,0,13
1,65,0,1
1,58,127,178
1,46,127,0
1,43,0,5
1,55,0,3
1,50,127,184
1,62,127,0
1,46,0,2
1,58,0,8
1,53,127,182
1,65,127,0
1,62,0,19
1,50,0,3
1,53,0,167
1,65,0,11
1,53,127,1576
1,65,127,144
1,65,0,107
1,53,0,29
1,53,127,56
1,65,127,0
1,65,0,185
1,53,0,22
1,63,127,177
1,51,127,0
1,51,0,264
1,63,0,23
1,65,127,1
1,53,127,0
1,55,127,48
1,67,127,0
1,65,0,8
1,53,0,8
1,55,0,22
1,67,0,4
1,53,127,6
1,65,127,0
1,65,0,411
1,53,0,6
1,53,127,159
1,65,127,0
1,53,0,124
1,65,0,1
1,53,127,67
1,65,127,0
1,65,0,242
1,53,0,16
1,63,127,126
1,51,127,0
1,51,0,283
1,53,127,5
1,65,127,0
1,63,0,13
1,55,127,35
1,67,127,0
1,65,0,6
1,53,0,3
1,55,0,31
1,67,0,7
1,53,127,1
1,65,127,0
1,65,0,248
1,53,0,5
1,63,127,1283
1,63,0,424
1,63,127,56
1,63,0,72
1,63,127,24
1,63,0,96
1,62,127,0
1,63,127,96
1,62,0,6
1,58,127,378
1,63,0,3
1,58,0,341
1,60,127,40
1,60,0,93
1,63,127,3
1,63,0,76
1,63,127,20
1,60,127,96
1,63,0,8
1,58,127,88
1,60,0,4
1,63,127,92
1,58,0,4
1,63,0,79
1,63,127,13
1,63,0,84
1,65,127,12
1,65,0,81
1,66,127,15
1,65,127,96
1,66,0,1
1,63,127,95
1,65,0,3
1,60,127,93
1,63,0,10
1,60,0,86
1,63,127,0
1,63,0,189
1,63,127,3
1,63,0,73
1,63,127,23
1,63,0,87
1,63,127,9
1,63,0,433
1,63,127,47
1,63,0,77
1,63,127,19
1,63,0,70
1,63,127,26
1,65,127,96
1,63,0,9
1,63,127,375
1,65,0,6
1,63,0,372
1,65,127,6
1,65,0,379
1,67,127,5
1,67,0,353
1,68,127,127
1,70,127,96
1,68,0,2
1,72,127,94
1,70,0,14
1,72,0,77
1,70,127,5
1,70,0,86
1,67,127,10
1,67,0,77
1,63,127,19
1,63,0,82
1,67,127,14
1,67,0,187
1,65,127,5
1,65,0,904
1,65,127,56
1,66,127,96
1,65,0,13
1,66,0,79
1,65,127,4
1,63,127,96
1,65,0,7
1,61,127,89
1,63,0,7
1,63,127,89
1,61,0,10
1,63,0,168
1,63,127,14
1,63,0,96
1,66,127,0
1,66,0,87
1,66,127,9
1,65,127,96
1,66,0,57
1,63,127,39
1,65,0,2
1,61,127,94
1,63,0,5
1,61,0,72
1,62,127,19
1,62,0,768
1,63,127,0
1,63,0,734
1,43,127,34
1,55,127,0
1,43,0,183
1,58,127,9
1,46,127,0
1,55,0,2
1,46,0,179
1,62,127,11
1,50,127,0
1,58,0,11
1,65,127,181
1,53,127,0
1,50,0,19
1,62,0,5
1,43,127,168
1,55,127,0
1,53,0,13
1,65,0,1
1,58,127,178
1,46,127,0
1,43,0,5
1,55,0,3
1,50,127,184
1,62,127,0
1,46,0,2
1,58,0,8
1,53,127,182
1,65,127,0
1,62,0,19
1,50,0,3
1,53,0,167
1,65,0,11
1,43,127,1528
1,55,127,0
1,43,0,183
1,58,127,9
1,46,127,0
1,55,0,2
1,46,0,179
1,62,127,11
1,50,127,0
1,58,0,11
1,65,127,181
1,53,127,0
1,50,0,19
1,62,0,5
1,43,127,168
1,55,127,0
1,53,0,13
1,65,0,1
1,58,127,178
1,46,127,0
1,43,0,5
1,55,0,3
1,50,127,184
1,62,127,0
1,46,0,2
1,58,0,8
1,53,127,182
1,65,127,0
1,62,0,19
1,50,0,3
1,53,0,167
1,65,0,11
1,53,127,1576
1,65,127,144
1,65,0,107
1,53,0,29
1,53,127,56
1,65,127,0
1,65,0,185
1,53,0,22
1,63,127,177
1,51,127,0
1,51,0,264
1,63,0,23
1,65,127,1
1,53,127,0
1,55,127,48
1,67,127,0
1,65,0,8
1,53,0,8
1,55,0,22
1,67,0,4
1,53,127,6
1,65,127,0
1,65,0,411
1,53,0,6
1,53,127,159
1,65,127,0
1,53,0,124
1,65,0,1
1,53,127,67
1,65,127,0
1,65,0,242
1,53,0,16
1,63,127,126
1,51,127,0
1,51,0,283
1,53,127,5
1,65,127,0
1,63,0,13
1,55,127,35
1,67,127,0
1,65,0,6
1,53,0,3
1,55,0,31
1,67,0,7
1,53,127,1
1,65,127,0
1,65,0,248
1,53,0,5
1,53,127,1715
1,65,127,144
1,65,0,107
1,53,0,29
1,53,127,56
1,65,127,0
1,65,0,185
1,53,0,22
1,63,127,177
1,51,127,0
1,51,0,264
1,63,0,23
1,65,127,1
1,53,127,0
1,55,127,48
1,67,127,0
1,65,0,8
1,53,0,8
1,55,0,22
1,67,0,4
1,53,127,6
1,65,127,0
1,65,0,411
1,53,0,6
1,53,127,159
1,65,127,0
1,53,0,124
1,65,0,1
1,53,127,67
1,65,127,0
1,65,0,242
1,53,0,16
1,63,127,126
1,51,127,0
1,51,0,283
1,53,127,5
1,65,127,0
1,63,0,13
1,55,127,35
1,67,127,0
1,65,0,6
1,53,0,3
1,55,0,31
1,67,0,7
1,53,127,1
1,65,127,0
1,65,0,248
1,53,0,5
2,63,101,3072
2,63,0,424
2,63,118,56
2,63,0,72
2,63,105,24
2,63,0,96
2,62,109,0
2,63,105,96
2,62,0,6
2,58,100,378
2,63,0,3
2,58,0,341
2,60,100,40
2,60,0,93
2,63,109,3
2,63,0,76
2,63,88,20
2,60,107,96
2,63,0,8
2,58,101,88
2,60,0,4
2,63,94,92
2,58,0,4
2,63,0,79
2,63,103,13
2,63,0,84
2,65,80,12
2,65,0,81
2,66,96,15
2,65,86,96
2,66,0,1
2,63,94,95
2,65,0,3
2,60,98,93
2,63,0,10
2,60,0,86
2,63,90,0
2,63,0,189
2,63,94,3
2,63,0,73
2,63,89,23
2,63,0,87
2,63,98,9
2,63,0,433
2,63,101,47
2,63,0,77
2,63,86,19
2,63,0,70
2,63,80,26
2,65,100,96
2,63,0,9
2,63,100,375
2,65,0,6
2,63,0,372
2,65,101,6
2,65,0,379
2,67,109,5
2,67,0,353
2,68,103,127
2,70,101,96
2,68,0,2
2,72,92,94
2,70,0,14
2,72,0,77
2,70,94,5
2,70,0,86
2,67,94,10
2,67,0,77
2,63,100,19
2,63,0,82
2,67,101,14
2,67,0,187
2,65,109,5
2,65,0,904
2,65,111,8
2,66,109,96
2,65,0,13
2,66,0,36
2,65,107,4
2,63,105,96
2,65,0,7
2,61,101,89
2,63,0,7
2,63,101,89
2,61,0,10
2,63,0,168
2,63,94,14
2,63,0,96
2,66,103,0
2,66,0,87
2,66,103,9
2,65,98,96
2,66,0,57
2,63,101,39
2,65,0,2
2,61,118,94
2,63,0,5
2,61,0,72
2,62,116,19
2,62,0,768
2,63,100,0
2,63,0,734
2,43,111,34
2,55,101,0
2,43,0,183
2,58,96,9
2,46,101,0
2,55,0,2
2,46,0,179
2,62,88,11
2,50,92,0
2,58,0,11
2,65,107,181
2,53,96,0
2,50,0,19
2,62,0,5
2,43,92,168
2,55,96,0
2,53,0,13
2,65,0,1
2,58,105,178
2,46,98,0
2,43,0,5
2,55,0,3
2,50,98,184
2,62,98,0
2,46,0,2
2,58,0,8
2,53,103,182
2,65,103,0
2,62,0,19
2,50,0,3
2,53,0,167
2,65,0,11
2,51,101,1528
2,51,0,424
2,51,118,56
2,51,0,72
2,51,105,24
2,51,0,96
2,50,109,0
2,51,105,96
2,50,0,6
2,46,100,378
2,51,0,3
2,46,0,341
2,48,100,40
2,48,0,93
2,51,109,3
2,51,0,76
2,51,88,20
2,48,107,96
2,51,0,8
2,46,101,88
2,48,0,4
2,51,94,92
2,46,0,4
2,51,0,79
2,51,103,13
2,51,0,84
2,53,80,12
2,53,0,81
2,54,96,15
2,53,86,96
2,54,0,1
2,51,94,95
2,53,0,3
2,48,98,93
2,51,0,10
2,48,0,86
2,51,90,0
2,51,0,189
2,51,94,3
2,51,0,73
2,51,89,23
2,51,0,87
2,51,98,9
2,51,0,433
2,51,101,47
2,51,0,77
2,51,86,19
2,51,0,70
2,51,80,26
2,53,100,96
2,51,0,9
2,51,100,375
2,53,0,6
2,51,0,372
2,53,101,6
2,53,0,379
2,55,109,5
2,55,0,353
2,56,103,127
2,58,101,96
2,56,0,2
2,60,92,94
2,58,0,14
2,60,0,77
2,58,94,5
2,58,0,86
2,55,94,10
2,55,0,77
2,51,100,19
2,51,0,82
2,55,101,14
2,55,0,187
2,53,109,5
2,53,0,904
2,53,111,56
2,54,109,96
2,53,0,13
2,54,0,79
2,53,107,4
2,51,105,96
2,53,0,7
2,49,101,89
2,51,0,7
2,51,101,89
2,49,0,10
2,51,0,168
2,51,94,14
2,51,0,96
2,54,103,0
2,54,0,87
2,54,103,9
2,53,98,96
2,54,0,57
2,51,101,39
2,53,0,2
2,49,118,94
2,51,0,5
2,49,0,72
2,50,116,19
2,50,0,768
2,51,100,0
2,51,0,734
2,43,111,34
2,55,101,0
2,43,0,183
2,58,96,9
2,46,101,0
2,55,0,2
2,46,0,179
2,62,88,11
2,50,92,0
2,58,0,11
2,65,107,181
2,53,96,0
2,50,0,19
2,62,0,5
2,43,92,168
2,55,96,0
2,53,0,13
2,65,0,1
2,58,105,178
2,46,98,0
2,43,0,5
2,55,0,3
2,50,98,184
2,62,98,0
2,46,0,2
2,58,0,8
2,53,103,182
2,65,103,0
2,62,0,19
2,50,0,3
2,53,0,167
2,65,0,11
2,43,111,1528
2,55,101,0
2,43,0,183
2,58,96,9
2,46,101,0
2,55,0,2
2,46,0,179
2,62,88,11
2,50,92,0
2,58,0,11
2,65,107,181
2,53,96,0
2,50,0,19
2,62,0,5
2,43,92,168
2,55,96,0
2,53,0,13
2,65,0,1
2,58,105,178
2,46,98,0
2,43,0,5
2,55,0,3
2,50,98,184
2,62,98,0
2,46,0,2
2,58,0,8
2,53,103,182
2,65,103,0
2,62,0,19
2,50,0,3
2,53,0,167
2,65,0,11
2,53,113,1576
2,65,127,144
2,65,0,107
2,53,0,29
2,53,114,56
2,65,116,0
2,65,0,185
2,53,0,22
2,63,105,177
2,51,113,0
2,51,0,264
2,63,0,23
2,65,85,1
2,53,98,0
2,55,98,48
2,67,96,0
2,65,0,8
2,53,0,8
2,55,0,22
2,67,0,4
2,53,107,6
2,65,101,0
2,65,0,411
2,53,0,6
2,53,114,159
2,65,114,0
2,53,0,124
2,65,0,1
2,53,107,67
2,65,111,0
2,65,0,242
2,53,0,16
2,63,113,126
2,51,111,0
2,51,0,283
2,53,94,5
2,65,105,0
2,63,0,13
2,55,96,35
2,67,92,0
2,65,0,6
2,53,0,3
2,55,0,31
2,67,0,7
2,53,107,1
2,65,100,0
2,65,0,248
2,53,0,5
2,63,101,1283
2,63,0,424
2,63,118,56
2,63,0,72
2,63,105,24
2,63,0,96
2,62,109,0
2,63,105,96
2,62,0,6
2,58,100,378
2,63,0,3
2,58,0,341
2,60,100,40
2,60,0,93
2,63,109,3
2,63,0,76
2,63,88,20
2,60,107,96
2,63,0,8
2,58,101,88
2,60,0,4
2,63,94,92
2,58,0,4
2,63,0,79
2,63,103,13
2,63,0,84
2,65,80,12
2,65,0,81
2,66,96,15
2,65,86,96
2,66,0,1
2,63,94,95
2,65,0,3
2,60,98,93
2,63,0,10
2,60,0,86
2,63,90,0
2,63,0,189
2,63,94,3
2,63,0,73
2,63,89,23
2,63,0,87
