track,note,velocity,time
1,63,101,3072
1,63,118,56
1,63,105,24
1,62,109,0
1,63,105,96
1,58,100,378
1,60,100,40
1,63,109,3
1,63,88,20
1,60,107,96
1,58,101,88
1,63,94,92
1,63,103,13
1,65,80,12
1,66,96,15
1,65,86,96
1,63,94,95
1,60,98,93
1,63,90,0
1,63,94,3
1,63,89,23
1,63,98,9
1,63,101,47
1,63,86,19
1,63,80,26
1,65,100,96
1,63,100,375
1,65,101,6
1,67,109,5
1,68,103,127
1,70,101,96
1,72,92,94
1,70,94,5
1,67,94,10
1,63,100,19
1,67,101,14
1,65,109,5
1,65,111,56
1,66,109,96
1,65,107,4
1,63,105,96
1,61,101,89
1,63,101,89
1,63,94,14
1,66,103,0
1,66,103,9
1,65,98,96
1,63,101,39
1,61,118,94
1,62,116,19
1,63,100,0
1,43,111,34
1,55,101,0
1,58,96,9
1,46,101,0
1,62,88,11
1,50,92,0
1,65,107,181
1,53,96,0
1,43,92,168
1,55,96,0
1,58,105,178
1,46,98,0
1,50,98,184
1,62,98,0
1,53,103,182
1,65,103,0
1,51,101,1528
1,51,118,56
1,51,105,24
1,50,109,0
1,51,105,96
1,46,100,378
1,48,100,40
1,51,109,3
1,51,88,20
1,48,107,96
1,46,101,88
1,51,94,92
1,51,103,13
1,53,80,12
1,54,96,15
1,53,86,96
1,51,94,95
1,48,98,93
1,51,90,0
1,51,94,3
1,51,89,23
1,51,98,9
1,51,101,47
1,51,86,19
1,51,80,26
1,53,100,96
1,51,100,375
1,53,101,6
1,55,109,5
1,56,103,127
1,58,101,96
1,60,92,94
1,58,94,5
1,55,94,10
1,51,100,19
1,55,101,14
1,53,109,5
1,53,111,56
1,54,109,96
1,53,107,4
1,51,105,96
1,49,101,89
1,51,101,89
1,51,94,14
1,54,103,0
1,54,103,9
1,53,98,96
1,51,101,39
1,49,118,94
1,50,116,19
1,51,100,0
1,43,111,34
1,55,101,0
1,58,96,9
1,46,101,0
1,62,88,11
1,50,92,0
1,65,107,181
1,53,96,0
1,43,92,168
1,55,96,0
1,58,105,178
1,46,98,0
1,50,98,184
1,62,98,0
1,53,103,182
1,65,103,0
1,43,111,1528
1,55,101,0
1,58,96,9
1,46,101,0
1,62,88,11
1,50,92,0
1,65,107,181
1,53,96,0
1,43,92,168
1,55,96,0
1,58,105,178
1,46,98,0
1,50,98,184
1,62,98,0
1,53,103,182
1,65,103,0
1,53,113,1576
1,65,127,144
1,53,114,56
1,65,116,0
1,63,105,177
1,51,113,0
1,65,85,1
1,53,98,0
1,55,98,48
1,67,96,0
1,53,107,6
1,65,101,0
1,53,114,159
1,65,114,0
1,53,107,67
1,65,111,0
1,63,113,126
1,51,111,0
1,53,94,5
1,65,105,0
1,55,96,35
1,67,92,0
1,53,107,1
1,65,100,0
1,63,101,1283
1,63,118,56
1,63,105,24
1,62,109,0
1,63,105,96
1,58,100,378
1,60,100,40
1,63,109,3
1,63,88,20
1,60,107,96
1,58,101,88
1,63,94,92
1,63,103,13
1,65,80,12
1,66,96,15
1,65,86,96
1,63,94,95
1,60,98,93
1,63,90,0
1,63,94,3
1,63,89,23
1,63,98,9
1,63,101,47
1,63,86,19
1,63,80,26
1,65,100,96
1,63,100,375
1,65,101,6
1,67,109,5
1,68,103,127
1,70,101,96
1,72,92,94
1,70,94,5
1,67,94,10
1,63,100,19
1,67,101,14
1,65,109,5
1,65,111,56
1,66,109,96
1,65,107,4
1,63,105,96
1,61,101,89
1,63,101,89
1,63,94,14
1,66,103,0
1,66,103,9
1,65,98,96
1,63,101,39
1,61,118,94
1,62,116,19
1,63,100,0
1,43,111,34
1,55,101,0
1,58,96,9
1,46,101,0
1,62,88,11
1,50,92,0
1,65,107,181
1,53,96,0
1,43,92,168
1,55,96,0
1,58,105,178
1,46,98,0
1,50,98,184
1,62,98,0
1,53,103,182
1,65,103,0
1,43,111,1528
1,55,101,0
1,58,96,9
1,46,101,0
1,62,88,11
1,50,92,0
1,65,107,181
1,53,96,0
1,43,92,168
1,55,96,0
1,58,105,178
1,46,98,0
1,50,98,184
1,62,98,0
1,53,103,182
1,65,103,0
1,53,113,1576
1,65,127,144
1,53,114,56
1,65,116,0
1,63,105,177
1,51,113,0
1,65,85,1
1,53,98,0
1,55,98,48
1,67,96,0
1,53,107,6
1,65,101,0
1,53,114,159
1,65,114,0
1,53,107,67
1,65,111,0
1,63,113,126
1,51,111,0
1,53,94,5
1,65,105,0
1,55,96,35
1,67,92,0
1,53,107,1
1,65,100,0
1,53,113,1715
1,65,127,144
1,53,114,56
1,65,116,0
1,63,105,177
1,51,113,0
1,65,85,1
1,53,98,0
1,55,98,48
1,67,96,0
1,53,107,6
1,65,101,0
1,53,114,159
1,65,114,0
1,53,107,67
1,65,111,0
1,63,113,126
1,51,111,0
1,53,94,5
1,65,105,0
1,55,96,35
1,67,92,0
1,53,107,1
1,65,100,0
2,53,100,52788
2,65,98,2
2,53,101,57
2,65,111,2
2,55,105,379
2,67,100,3
2,53,86,274
2,65,88,3
2,51,80,49
2,63,89,0
2,50,89,13
2,62,94,2
2,53,101,189
2,65,101,0
2,53,101,56
2,65,90,0
2,55,98,3
2,67,105,4
2,53,80,268
2,65,96,0
2,63,89,16
2,51,77,8
2,50,86,5
2,62,74,2
2,53,100,1734
2,65,98,2
2,53,101,57
2,65,111,2
2,55,105,379
2,67,100,3
2,53,86,274
2,65,88,3
2,51,80,49
2,63,89,0
2,50,89,13
2,62,94,2
2,53,101,189
2,65,101,0
2,53,101,56
2,65,90,0
2,55,98,3
2,67,105,4
2,53,80,268
2,65,96,0
2,63,89,16
2,51,77,8
2,50,86,5
2,62,74,2
3,77,88,52796
3,65,85,0
3,77,96,51
3,65,90,3
3,67,89,384
3,79,89,3
3,77,80,359
3,65,86,1
3,77,96,173
3,65,100,5
3,65,103,59
3,77,94,0
3,67,98,379
3,79,100,1
3,79,113,11
3,67,100,6
3,77,101,75
3,65,98,0
3,77,88,1824
3,65,85,0
3,77,96,51
3,65,90,3
3,67,89,384
3,79,89,3
3,77,80,359
3,65,86,1
3,77,96,173
3,65,100,5
3,65,103,59
3,77,94,0
3,67,98,379
3,79,100,1
3,79,113,11
3,67,100,6
3,77,101,75
3,65,98,0
4,68,111,193
4,80,114,3
4,67,89,0
4,79,100,5
4,65,92,137
4,77,100,0
4,68,113,965
4,80,113,2
4,79,105,141
4,67,89,3
4,65,92,118
4,77,89,3
4,80,101,918
4,68,114,2
4,67,90,16
4,79,107,1
4,77,89,0
4,65,94,0
4,80,111,374
4,68,124,0
4,79,101,194
4,67,94,2
4,77,101,161
4,65,86,0
5,62,85,0
5,65,89,2
5,70,94,5
5,65,84,96
5,72,88,8
5,62,94,61
5,65,98,3
5,70,94,16
5,77,90,96
5,72,92,88
5,70,69,80
5,63,77,0
5,68,77,0
5,62,76,18
5,65,80,0
5,63,81,36
5,68,66,0
5,65,73,33
5,62,73,0
5,72,64,32
5,67,66,0
5,75,74,0
5,48,77,0
5,60,76,96
5,67,84,65
5,75,73,2
5,75,64,60
5,70,74,0
5,65,69,0
5,46,72,0
5,58,78,2
5,65,84,3
5,75,83,11
5,70,76,34
5,75,69,0
5,67,75,0
5,51,75,0
5,63,70,93
5,67,77,0
5,70,86,96
5,43,100,13
5,55,35,34
5,67,70,50
5,75,88,1
5,72,76,12
5,44,85,0
5,68,69,0
5,56,64,24
5,75,85,96
5,72,57,3
5,67,66,15
5,75,63,0
5,51,84,0
5,63,64,23
5,70,92,9
5,75,69,3
5,70,70,8
5,77,62,0
5,46,80,0
5,58,70,21
5,74,86,96
5,58,80,32
5,51,75,13
5,67,63,0
5,75,69,0
5,70,71,0
5,63,81,15
5,67,86,42
5,75,77,10
5,72,73,2
5,75,55,0
5,68,66,0
5,44,81,0
5,56,59,24
5,68,76,33
5,75,77,96
5,56,77,49
5,68,81,16
5,75,83,96
5,68,71,11
5,46,85,54
5,77,75,0
5,58,65,23
5,70,64,0
5,77,88,56
5,70,76,0
5,75,73,16
5,51,76,0
5,70,67,0
5,67,52,0
5,63,70,36
5,67,69,3
5,75,83,0
5,77,52,10
5,70,76,0
5,46,84,0
5,58,76,29
5,70,82,51
5,58,72,41
5,51,81,48
5,79,67,0
5,70,70,0
5,63,71,13
5,70,83,0
5,63,78,56
5,56,77,3
5,80,75,0
5,72,77,0
5,68,76,7
5,72,84,8
5,80,88,22
5,51,84,8
5,70,71,0
5,79,77,0
5,63,67,16
5,70,77,13
5,79,84,12
5,70,64,2
5,46,86,0
5,77,80,0
5,58,75,13
5,70,76,49
5,77,80,59
5,46,86,58
5,58,76,96
5,70,76,68
5,58,76,56
5,46,84,34
5,58,76,96
5,70,88,96
5,46,78,24
5,77,76,0
5,47,81,5
5,78,70,0
5,71,65,0
5,75,75,0
5,59,83,21
5,71,89,45
5,78,84,29
5,67,36,65
5,70,78,0
5,51,90,0
5,75,77,0
5,63,75,4
5,67,84,20
5,75,90,8
5,78,73,68
5,47,78,0
5,71,75,0
5,75,77,0
5,59,86,5
5,71,101,58
5,78,70,33
5,44,105,75
5,56,74,64
5,63,82,92
5,68,96,15
5,70,105,0
5,56,65,75
5,63,96,38
5,56,63,57
5,44,86,43
5,75,94,56
5,70,94,0
5,68,94,0
5,44,94,0
5,56,75,16
5,68,85,1
5,75,109,28
5,56,72,86
5,70,96,5
5,56,86,10
5,44,105,16
5,62,85,64
5,65,89,2
5,70,94,5
5,65,84,96
5,72,88,8
5,62,94,61
5,65,98,3
5,70,94,16
5,77,90,96
5,72,92,88
5,70,69,80
5,63,77,0
5,68,77,0
5,62,76,18
5,65,80,0
5,63,81,36
5,68,66,0
5,65,73,33
5,62,73,0
5,62,85,10016
5,65,89,2
5,70,94,5
5,65,84,96
5,72,88,8
5,62,94,61
5,65,98,3
5,70,94,16
5,77,90,96
5,72,92,88
5,70,69,80
5,63,77,0
5,68,77,0
5,62,76,18
5,65,80,0
5,63,81,36
5,68,66,0
5,65,73,33
5,62,73,0
5,62,85,32
5,65,89,2
5,70,94,5
5,65,84,96
5,72,88,8
5,62,94,61
5,65,98,3
5,70,94,16
5,77,90,96
5,72,92,88
5,70,69,80
5,63,77,0
5,68,77,0
5,62,76,18
5,65,80,0
5,63,81,36
5,68,66,0
5,65,73,33
5,62,73,0
5,80,114,32
5,77,96,0
5,84,103,0
5,79,84,144
5,82,88,0
5,75,86,0
5,74,84,163
5,82,83,0
5,77,89,0
5,84,127,10
5,80,124,0
5,77,105,0
5,82,81,2
5,79,81,0
5,75,80,0
5,74,72,10
5,82,74,0
5,77,76,0
5,62,78,250
5,58,73,0
5,56,73,0
5,51,67,29
5,56,62,27
5,58,72,0
5,62,83,0
5,51,78,19
5,56,60,43
5,58,63,0
5,62,70,0
5,51,74,29
5,58,64,8
5,62,75,0
5,56,72,0
5,51,72,7
5,58,66,29
5,56,63,0
5,62,78,0
5,51,73,24
5,58,71,25
5,56,64,0
5,62,77,0
5,51,89,18
5,72,64,57
5,67,66,0
5,75,74,0
5,48,77,0
5,60,76,96
5,67,84,65
5,75,73,2
5,75,64,60
5,70,74,0
5,65,69,0
5,46,72,0
5,58,78,2
5,65,84,3
5,75,83,11
5,70,76,34
5,75,69,0
5,67,75,0
5,51,75,0
5,63,70,93
5,67,77,0
5,70,86,96
5,43,100,13
5,55,35,34
5,67,70,50
5,75,88,1
5,72,76,12
5,44,85,0
5,68,69,0
5,56,64,24
5,75,85,96
5,72,57,3
5,67,66,15
5,75,63,0
5,51,84,0
5,63,64,23
5,70,92,9
5,75,69,3
5,70,70,8
5,77,62,0
5,46,80,0
5,58,70,21
5,74,86,96
5,58,80,32
5,51,75,13
5,67,63,0
5,75,69,0
5,70,71,0
5,63,81,15
5,67,86,42
5,75,77,10
5,72,73,2
5,75,55,0
5,68,66,0
5,44,81,0
5,56,59,24
5,68,76,33
5,75,77,96
5,56,77,49
5,68,81,16
5,75,83,96
5,68,71,11
5,46,85,54
5,77,75,0
5,58,65,23
5,70,64,0
5,77,88,56
5,70,76,0
5,75,73,16
5,51,76,0
5,70,67,0
5,67,52,0
5,63,70,36
5,67,69,3
5,75,83,0
5,77,52,10
5,70,76,0
5,46,84,0
5,58,76,29
5,70,82,51
5,58,72,41
5,51,81,48
5,79,67,0
5,70,70,0
5,63,71,13
5,70,83,0
5,63,78,56
5,56,77,3
5,80,75,0
5,72,77,0
5,68,76,7
5,72,84,8
5,80,88,22
5,51,84,8
5,70,71,0
5,79,77,0
5,63,67,16
5,70,77,13
5,79,84,12
5,70,64,2
5,46,86,0
5,77,80,0
5,58,75,13
5,70,76,49
5,77,80,59
5,46,86,58
5,58,76,96
5,70,76,68
5,58,76,56
5,46,84,34
5,58,76,96
5,70,88,96
5,46,78,24
5,77,76,0
5,47,81,5
5,78,70,0
5,71,65,0
5,75,75,0
5,59,83,21
5,71,89,45
5,78,84,29
5,67,36,65
5,70,78,0
5,51,90,0
5,75,77,0
5,63,75,4
5,67,84,20
5,75,90,8
5,78,73,68
5,47,78,0
5,71,75,0
5,75,77,0
5,59,86,5
5,71,101,58
5,78,70,33
5,44,105,75
5,56,74,64
5,63,82,92
5,68,96,15
5,70,105,0
5,56,65,75
5,63,96,38
5,56,63,57
5,44,86,43
5,75,94,56
5,70,94,0
5,68,94,0
5,44,94,0
5,56,75,16
5,68,85,1
5,75,109,28
5,56,72,86
5,70,96,5
5,56,86,10
5,44,105,16
5,62,85,64
5,65,89,2
5,70,94,5
5,65,84,96
5,72,88,8
5,62,94,61
5,65,98,3
5,70,94,16
5,77,90,96
5,72,92,88
5,70,69,80
5,63,77,0
5,68,77,0
5,62,76,18
5,65,80,0
5,63,81,36
5,68,66,0
5,65,73,33
5,62,73,0
5,62,85,32
5,65,89,2
5,70,94,5
5,65,84,96
5,72,88,8
5,62,94,61
5,65,98,3
5,70,94,16
5,77,90,96
5,72,92,88
5,70,69,80
5,63,77,0
5,68,77,0
5,62,76,18
5,65,80,0
5,63,81,36
5,68,66,0
5,65,73,33
5,62,73,0
5,80,114,32
5,77,96,0
5,84,103,0
5,79,84,144
5,82,88,0
5,75,86,0
5,74,84,163
5,82,83,0
5,77,89,0
5,84,127,10
5,80,124,0
5,77,105,0
5,82,81,2
5,79,81,0
5,75,80,0
5,74,72,10
5,82,74,0
5,77,76,0
5,62,84,250
5,56,80,0
5,58,84,0
5,56,84,73
5,62,78,0
5,58,83,0
5,56,83,133
5,62,83,0
5,58,81,0
5,56,84,125
5,62,86,0
5,58,84,0
5,55,78,4
5,63,83,0
5,58,88,0
5,55,94,59
5,63,86,0
5,58,88,0
5,55,89,112
5,63,82,0
5,58,88,0
5,55,89,123
5,63,76,0
5,58,101,0
5,80,114,98
5,77,96,0
5,84,103,0
5,79,84,144
5,82,88,0
5,75,86,0
5,74,84,163
5,82,83,0
5,77,89,0
5,84,127,10
5,80,124,0
5,77,105,0
5,82,81,2
5,79,81,0
5,75,80,0
5,74,72,10
5,82,74,0
5,77,76,0
5,56,80,250
5,63,82,0
5,58,88,0
5,56,76,115
5,63,78,0
5,58,76,0
5,63,78,147
5,58,81,0
5,56,82,0
5,63,100,147
5,58,100,0
5,56,84,0
5,55,86,150
5,63,72,0
5,58,85,0
5,55,84,95
5,63,82,0
5,58,88,0
5,55,94,127
5,63,81,0
5,58,88,0
5,58,101,139
5,63,88,0
5,55,100,0
5,80,114,32
5,77,96,0
5,84,103,0
5,79,84,144
5,82,88,0
5,75,86,0
5,74,84,163
5,82,83,0
5,77,89,0
5,84,127,10
5,80,124,0
5,77,105,0
5,82,81,2
5,79,81,0
5,75,80,0
5,74,72,10
5,82,74,0
5,77,76,0
5,80,114,250
5,77,96,0
5,84,103,0
5,79,84,144
5,82,88,0
5,75,86,0
5,74,84,163
5,82,83,0
5,77,89,0
5,84,127,10
5,80,124,0
5,77,105,0
5,82,81,2
5,79,81,0
5,75,80,0
5,74,72,10
5,82,74,0
5,77,76,0
6,31,90,0
6,55,78,96
6,62,76,3
