track,note,velocity,time
1,62,85,0
1,65,89,176
1,70,94,10
1,65,84,184
1,72,88,20
1,62,94,148
1,65,98,176
1,70,94,32
1,77,90,192
1,72,92,176
1,68,77,170
1,63,77,0
1,70,69,8
1,65,80,6
1,62,76,8
1,68,66,74
1,63,81,6
1,62,73,18
1,65,73,8
1,48,77,80
1,75,74,8
1,67,66,0
1,72,64,8
1,60,76,6
1,67,84,118
1,75,73,0
1,46,72,112
1,65,69,6
1,70,74,2
1,75,64,0
1,58,78,12
1,65,84,0
1,75,83,16
1,51,75,46
1,67,75,6
1,75,69,4
1,70,76,6
1,63,70,182
1,67,77,2
1,70,86,180
1,43,100,6
1,55,35,60
1,67,70,106
1,75,88,0
1,68,69,26
1,44,85,0
1,72,76,4
1,56,64,22
1,75,85,188
1,72,57,4
1,51,84,4
1,75,63,2
1,67,66,4
1,63,64,16
1,70,92,16
1,75,69,0
1,46,80,116
1,77,62,6
1,70,70,4
1,58,70,12
1,74,86,190
1,58,80,74
1,70,71,80
1,75,69,6
1,67,63,0
1,51,75,26
1,63,81,14
1,67,86,0
1,75,77,10
1,44,81,86
1,68,66,4
1,75,55,2
1,72,73,10
1,56,59,44
1,68,76,56
1,75,77,192
1,56,77,80
1,68,81,16
1,75,83,190
1,68,71,0
1,77,75,90
1,46,85,12
1,70,64,4
1,58,65,16
1,77,88,122
1,70,76,26
1,67,52,116
1,70,67,6
1,51,76,4
1,75,73,6
1,63,70,20
1,67,69,4
1,75,83,22
1,46,84,84
1,70,76,6
1,77,52,12
1,58,76,34
1,70,82,120
1,58,72,54
1,70,70,100
1,79,67,16
1,51,81,6
1,63,71,6
1,70,83,118
1,63,78,108
1,72,77,158
1,80,75,4
1,56,77,16
1,68,76,166
1,72,84,10
1,80,88,44
1,79,77,116
1,70,71,0
1,51,84,6
1,63,67,172
1,70,77,30
1,79,84,26
1,77,80,108
1,46,86,4
1,70,64,2
1,58,75,0
1,70,76,96
1,77,80,112
1,46,86,124
1,58,76,200
1,70,76,152
1,58,76,112
1,46,84,64
1,58,76,196
1,70,88,184
1,77,76,40
1,46,78,22
1,75,75,42
1,71,65,2
1,78,70,0
1,47,81,6
1,59,83,10
1,71,89,100
1,78,84,54
1,75,77,138
1,51,90,0
1,70,78,8
1,67,36,24
1,63,75,142
1,67,84,22
1,75,90,26
1,75,77,136
1,71,75,2
1,47,78,0
1,78,73,4
1,59,86,2
1,71,101,112
1,78,70,70
1,44,105,138
1,56,74,124
1,63,82,158
1,70,105,26
1,68,96,4
1,56,65,134
1,63,96,76
1,56,63,124
1,44,86,82
1,44,94,120
1,68,94,2
1,70,94,0
1,75,94,4
1,56,75,8
1,68,85,18
1,75,109,50
1,56,72,182
1,70,96,14
1,56,86,30
1,44,105,32
1,62,85,144
1,65,89,176
1,70,94,10
1,65,84,184
1,72,88,20
1,62,94,148
1,65,98,176
1,70,94,32
1,77,90,192
1,72,92,176
1,68,77,170
1,63,77,0
1,70,69,8
1,65,80,6
1,62,76,8
1,68,66,74
1,63,81,6
1,62,73,18
1,65,73,8
1,62,85,20032
1,65,89,176
1,70,94,10
1,65,84,184
1,72,88,20
1,62,94,148
1,65,98,176
1,70,94,32
1,77,90,192
1,72,92,176
1,68,77,170
1,63,77,0
1,70,69,8
1,65,80,6
1,62,76,8
1,68,66,74
1,63,81,6
1,62,73,18
1,65,73,8
1,62,85,64
1,65,89,176
1,70,94,10
1,65,84,184
1,72,88,20
1,62,94,148
1,65,98,176
1,70,94,32
1,77,90,192
1,72,92,176
1,68,77,170
1,63,77,0
1,70,69,8
1,65,80,6
1,62,76,8
1,68,66,74
1,63,81,6
1,62,73,18
1,65,73,8
1,84,103,64
1,77,96,0
1,80,114,0
1,75,86,296
1,82,88,4
1,79,84,4
1,77,89,320
1,82,83,2
1,74,84,4
1,77,105,4
1,80,124,0
1,84,127,0
1,75,80,280
1,79,81,0
1,82,81,0
1,77,76,252
1,82,74,4
1,74,72,4
1,56,73,536
1,58,73,0
1,62,78,0
1,51,67,44
1,62,83,64
1,58,72,4
1,56,62,0
1,51,78,44
1,62,70,96
1,58,63,4
1,56,60,0
1,51,74,54
1,56,72,0
1,62,75,0
1,58,64,8
1,51,72,4
1,62,78,64
1,56,63,4
1,58,66,2
1,51,73,54
1,62,77,40
1,56,64,8
1,58,71,0
1,51,89,28
1,48,77,138
1,75,74,8
1,67,66,0
1,72,64,8
1,60,76,6
1,67,84,118
1,75,73,0
1,46,72,112
1,65,69,6
1,70,74,2
1,75,64,0
1,58,78,12
1,65,84,0
1,75,83,16
1,51,75,46
1,67,75,6
1,75,69,4
1,70,76,6
1,63,70,182
1,67,77,2
1,70,86,180
1,43,100,6
1,55,35,60
1,67,70,106
1,75,88,0
1,68,69,26
1,44,85,0
1,72,76,4
1,56,64,22
1,75,85,188
1,72,57,4
1,51,84,4
1,75,63,2
1,67,66,4
1,63,64,16
1,70,92,16
1,75,69,0
1,46,80,116
1,77,62,6
1,70,70,4
1,58,70,12
1,74,86,190
1,58,80,74
1,70,71,80
1,75,69,6
1,67,63,0
1,51,75,26
1,63,81,14
1,67,86,0
1,75,77,10
1,44,81,86
1,68,66,4
1,75,55,2
1,72,73,10
1,56,59,44
1,68,76,56
1,75,77,192
1,56,77,80
1,68,81,16
1,75,83,190
1,68,71,0
1,77,75,90
1,46,85,12
1,70,64,4
1,58,65,16
1,77,88,122
1,70,76,26
1,67,52,116
1,70,67,6
1,51,76,4
1,75,73,6
1,63,70,20
1,67,69,4
1,75,83,22
1,46,84,84
1,70,76,6
1,77,52,12
1,58,76,34
1,70,82,120
1,58,72,54
1,70,70,100
1,79,67,16
1,51,81,6
1,63,71,6
1,70,83,118
1,63,78,108
1,72,77,158
1,80,75,4
1,56,77,16
1,68,76,166
1,72,84,10
1,80,88,44
1,79,77,116
1,70,71,0
1,51,84,6
1,63,67,172
1,70,77,30
1,79,84,26
1,77,80,108
1,46,86,4
1,70,64,2
1,58,75,0
1,70,76,96
1,77,80,112
1,46,86,124
1,58,76,200
1,70,76,152
1,58,76,112
1,46,84,64
1,58,76,196
1,70,88,184
1,77,76,40
1,46,78,22
1,75,75,42
1,71,65,2
1,78,70,0
1,47,81,6
1,59,83,10
1,71,89,100
1,78,84,54
1,75,77,138
1,51,90,0
1,70,78,8
1,67,36,24
1,63,75,142
1,67,84,22
1,75,90,26
1,75,77,136
1,71,75,2
1,47,78,0
1,78,73,4
1,59,86,2
1,71,101,112
1,78,70,70
1,44,105,138
1,56,74,124
1,63,82,158
1,70,105,26
1,68,96,4
1,56,65,134
1,63,96,76
1,56,63,124
1,44,86,82
1,44,94,120
1,68,94,2
1,70,94,0
1,75,94,4
1,56,75,8
1,68,85,18
1,75,109,50
1,56,72,182
1,70,96,14
1,56,86,30
1,44,105,32
1,62,85,144
1,65,89,176
1,70,94,10
1,65,84,184
1,72,88,20
1,62,94,148
1,65,98,176
1,70,94,32
1,77,90,192
1,72,92,176
1,68,77,170
1,63,77,0
1,70,69,8
1,65,80,6
1,62,76,8
1,68,66,74
1,63,81,6
1,62,73,18
1,65,73,8
1,62,85,64
1,65,89,176
1,70,94,10
1,65,84,184
1,72,88,20
1,62,94,148
1,65,98,176
1,70,94,32
1,77,90,192
1,72,92,176
1,68,77,170
1,63,77,0
1,70,69,8
1,65,80,6
1,62,76,8
1,68,66,74
1,63,81,6
1,62,73,18
1,65,73,8
1,84,103,64
1,77,96,0
1,80,114,0
1,75,86,296
1,82,88,4
1,79,84,4
1,77,89,320
1,82,83,2
1,74,84,4
1,77,105,4
1,80,124,0
1,84,127,0
1,75,80,280
1,79,81,0
1,82,81,0
1,77,76,252
1,82,74,4
1,74,72,4
1,58,84,542
1,56,80,2
1,62,84,4
1,58,83,134
1,62,78,0
1,56,84,4
1,58,81,254
1,62,83,2
1,56,83,0
1,58,84,244
1,62,86,4
1,56,84,0
1,58,88,252
1,63,83,0
1,55,78,0
1,58,88,122
1,63,86,0
1,55,94,0
1,58,88,220
1,63,82,6
1,55,89,0
1,58,101,244
1,63,76,0
1,55,89,2
1,84,103,212
1,77,96,0
1,80,114,0
1,75,86,296
1,82,88,4
1,79,84,4
1,77,89,320
1,82,83,2
1,74,84,4
1,77,105,4
1,80,124,0
1,84,127,0
1,75,80,280
1,79,81,0
1,82,81,0
1,77,76,252
1,82,74,4
1,74,72,4
1,58,88,558
1,63,82,2
1,56,80,0
1,58,76,210
1,63,78,0
1,56,76,4
1,56,82,278
1,58,81,0
1,63,78,6
1,56,84,282
1,58,100,0
1,63,100,6
1,58,85,300
1,63,72,4
1,55,86,0
1,58,88,180
1,63,82,0
1,55,84,2
1,58,88,250
1,63,81,0
1,55,94,4
1,55,100,284
1,63,88,4
1,58,101,0
1,84,103,64
1,77,96,0
1,80,114,0
1,75,86,296
1,82,88,4
1,79,84,4
1,77,89,320
1,82,83,2
1,74,84,4
1,77,105,4
1,80,124,0
1,84,127,0
1,75,80,280
1,79,81,0
1,82,81,0
1,77,76,252
1,82,74,4
1,74,72,4
1,84,103,536
1,77,96,0
1,80,114,0
1,75,86,296
1,82,88,4
1,79,84,4
1,77,89,320
1,82,83,2
1,74,84,4
1,77,105,4
1,80,124,0
1,84,127,0
1,75,80,280
1,79,81,0
1,82,81,0
1,77,76,252
1,82,74,4
1,74,72,4
2,32,114,30732
2,34,109,748
2,36,127,90
2,34,120,6
2,27,113,754
2,31,127,22
2,32,113,742
2,39,101,790
2,34,92,712
2,38,103,60
2,39,120,50
2,38,120,60
2,36,113,48
2,34,116,70
2,32,120,28
2,34,113,10
2,27,118,774
2,34,109,776
2,27,109,766
2,32,113,732
2,39,109,780
2,34,105,128
2,34,105,900
2,35,105,128
2,39,113,118
2,35,111,70
2,32,105,36
2,32,105,896
2,31,98,708
2,31,101,102
2,38,103,186
2,38,92,102
2,31,98,204
2,31,114,80
2,38,98,190
2,38,94,132
2,32,109,186
2,32,113,110
2,34,109,204
2,34,109,108
2,32,98,192
2,32,113,140
2,34,105,192
2,34,111,170
2,31,98,16
2,31,101,102
2,38,103,186
2,38,92,102
2,31,98,204
2,31,114,80
2,38,98,190
2,43,124,142
2,44,109,192
2,43,113,4
2,41,109,192
2,39,107,180
2,46,109,164
2,43,116,94
2,44,105,192
2,43,116,10
2,41,113,192
2,39,113,186
2,48,114,142
2,46,116,8
2,29,125,384
2,29,109,178
2,29,122,152
2,27,113,154
2,32,105,134
2,34,98,188
2,34,101,108
2,29,103,202
2,29,120,142
2,29,114,144
2,29,118,78
2,27,94,194
2,32,111,118
2,34,92,0
2,34,101,76
2,32,103,78
2,31,109,112
2,32,111,0
2,36,103,138
2,39,105,180
2,44,89,328
2,36,127,86
2,34,120,6
2,27,113,754
2,31,127,22
2,32,113,742
2,39,101,790
2,34,92,712
2,38,103,60
2,39,120,50
2,38,120,60
2,36,113,48
2,34,116,70
2,32,120,28
2,34,113,10
2,27,118,774
2,34,109,776
2,27,109,766
2,32,113,732
2,39,109,780
2,34,105,128
2,34,105,900
2,35,105,128
2,39,113,118
2,35,111,70
2,32,105,36
2,32,105,896
2,31,98,708
2,31,101,102
2,38,103,186
2,38,92,102
2,31,98,204
2,31,114,80
2,38,98,190
2,38,94,132
2,32,109,186
2,32,113,110
2,34,109,204
2,34,109,108
2,32,98,192
2,32,114,26
2,32,113,140
2,34,105,192
2,34,109,0
2,34,111,170
2,31,98,68
2,31,101,102
2,38,103,186
2,38,92,102
2,31,98,204
2,31,114,80
2,38,98,190
2,43,124,142
2,44,109,192
2,43,113,4
2,41,109,192
2,39,107,180
2,46,109,164
2,43,116,94
2,44,114,192
2,43,116,0
2,41,113,192
2,39,113,186
2,43,105,142
2,41,101,36
2,39,98,24
2,38,105,192
2,29,125,36
2,29,109,178
2,29,122,152
2,27,113,154
2,32,105,134
2,34,98,188
2,34,101,108
2,29,103,202
2,29,120,142
2,29,114,144
2,29,118,78
2,27,94,194
2,32,111,118
2,34,92,0
2,34,101,76
2,32,118,72
2,36,109,1126
2,38,105,170
2,39,109,166
2,29,125,276
2,29,109,178
2,29,122,152
2,27,113,154
2,32,105,134
2,34,98,188
2,34,101,108
2,29,103,202
2,29,120,142
2,29,114,144
2,29,118,78
2,27,94,194
2,32,111,118
2,34,92,0
2,34,101,76
2,44,118,72
2,44,114,122
2,44,118,122
2,41,113,20
2,43,109,6
2,43,111,114
2,43,127,118
2,29,125,264
2,29,109,178
2,29,122,152
2,27,113,154
2,32,105,134
2,34,98,188
2,34,101,108
2,29,103,202
2,29,120,142
2,29,114,144
2,29,118,78
2,27,94,194
2,32,111,118
2,34,92,0
2,34,101,76
2,29,125,56
2,29,109,178
2,29,122,152
2,27,113,154
2,32,105,134
2,34,98,188
2,34,101,108
2,29,103,202
2,29,120,142
2,29,114,144
2,29,118,78
2,27,94,194
2,32,111,118
2,34,92,0
2,34,101,76
3,58,62,26112
3,65,58,0
3,55,55,0
3,62,73,0
3,65,16,38
3,57,55,6
3,62,61,4
3,55,56,2
3,65,52,0
3,62,66,6
3,58,64,0
3,62,73,154
3,57,80,2
3,65,66,4
3,56,73,268
3,58,75,4
3,51,65,0
3,58,48,54
3,53,69,10
3,50,60,10
3,58,66,198
3,56,67,4
3,51,64,4
3,58,64,202
3,50,64,4
3,53,81,2
3,55,75,0
3,63,64,0
3,60,75,0
3,58,72,180
3,63,55,6
3,53,59,4
3,58,63,222
3,63,59,6
3,55,61,4
3,63,56,272
3,60,69,2
3,56,56,0
3,63,60,114
3,55,61,6
3,58,64,4
3,62,50,282
3,58,54,2
3,65,40,14
3,63,62,246
3,55,61,10
3,58,70,0
3,63,55,196
3,56,56,6
3,60,66,0
3,62,61,280
3,58,64,4
3,65,50,10
3,63,58,294
3,58,61,4
3,55,56,6
3,62,59,294
3,58,59,0
3,65,48,10
3,63,61,214
3,58,58,0
3,67,52,28
3,63,59,278
3,68,66,6
3,60,56,4
3,63,61,276
3,58,60,6
3,67,59,2
3,62,58,274
3,65,54,0
3,58,52,0
3,63,85,34
3,66,84,0
3,59,92,4
3,63,76,162
3,58,88,0
3,55,81,4
3,63,81,0
3,59,76,2
3,66,78,0
3,51,76,362
3,62,89,0
3,56,70,2
3,58,59,6
3,51,83,144
3,58,78,268
3,63,82,4
3,56,80,0
3,65,57,14
3,58,64,0
3,62,61,0
3,55,57,0
3,57,63,10
3,62,62,0
3,65,58,6
3,62,61,16
3,58,61,0
3,55,46,10
3,65,56,0
3,57,61,228
3,62,59,0
3,65,59,6
3,51,75,294
3,56,75,0
3,58,66,4
3,58,61,204
3,50,62,12
3,53,89,4
3,51,65,232
3,56,67,6
3,58,69,6
3,58,59,226
3,53,70,8
3,50,62,2
3,65,57,4
3,58,64,0
3,62,61,0
3,55,57,0
3,57,63,10
3,62,62,0
3,65,58,6
3,62,61,16
3,58,61,0
3,55,46,10
3,65,56,0
3,57,61,228
3,62,59,0
3,65,59,6
3,51,75,294
3,56,75,0
3,58,66,4
3,58,61,204
3,50,62,12
3,53,89,4
3,51,65,232
3,56,67,6
3,58,69,6
3,58,59,226
3,53,70,8
3,50,62,2
3,60,81,244
3,68,75,0
3,65,74,0
3,63,72,296
3,70,73,2
3,67,72,0
3,65,74,266
3,70,64,6
3,62,62,0
3,68,70,192
3,65,67,0
3,60,74,0
3,67,73,194
3,63,64,0
3,70,69,6
3,65,72,208
3,70,61,8
3,62,70,2
3,58,74,4
3,56,70,0
3,63,66,2
3,51,78,17278
3,56,82,0
3,62,76,0
3,63,86,288
3,51,84,6
3,56,83,0
3,58,62,4
3,65,58,0
3,55,55,0
3,62,73,0
3,65,16,38
3,57,55,6
3,62,61,4
3,55,56,2
3,65,52,0
3,62,66,6
3,58,64,0
3,62,73,154
3,57,80,2
3,65,66,4
3,56,73,268
3,58,75,4
3,51,65,0
3,58,48,54
3,53,69,10
3,50,60,10
3,58,66,198
3,56,67,4
3,51,64,4
3,58,64,202
3,50,64,4
3,53,81,2
3,58,62,324
