track,note,velocity,time
0,43,110,382
0,55,94,0
0,50,75,96
0,55,55,0
0,65,114,0
0,50,0,93
0,55,0,0
0,65,0,1
0,55,105,2
0,58,105,0
0,62,105,0
0,70,114,0
0,43,0,93
0,70,0,1
0,53,110,2
0,77,114,0
0,53,0,93
0,55,0,0
0,58,0,0
0,62,0,0
0,55,0,1
0,77,0,0
0,50,110,2
0,62,94,0
0,72,114,0
0,53,75,96
0,57,55,0
0,53,0,93
0,57,0,0
0,57,100,3
0,62,100,0
0,65,100,0
0,50,0,93
0,57,0,0
0,62,0,0
0,65,0,0
0,53,110,3
0,53,0,93
0,62,0,1
0,72,0,0
0,43,110,2
0,55,94,0
0,50,75,96
0,55,55,0
0,65,114,0
0,50,0,93
0,55,0,0
0,65,0,1
0,55,105,2
0,58,105,0
0,62,105,0
0,70,114,0
0,43,0,93
0,70,0,1
0,53,110,2
0,77,114,0
0,53,0,93
0,55,0,0
0,58,0,0
0,62,0,0
0,55,0,1
0,77,0,0
0,50,110,2
0,62,94,0
0,72,114,0
0,53,75,96
0,57,55,0
0,53,0,93
0,57,0,0
0,57,100,3
0,62,100,0
0,65,100,0
0,50,0,93
0,57,0,0
0,62,0,0
0,65,0,0
0,53,110,3
0,60,84,48
0,60,0,20
0,53,0,25
0,62,0,1
0,72,0,0
0,44,110,2
0,70,89,0
0,72,89,0
0,75,89,0
0,51,75,96
0,56,55,0
0,51,0,93
0,56,0,0
0,70,0,1
0,72,0,0
0,75,0,0
0,56,105,2
0,60,105,0
0,63,105,0
0,70,89,0
0,72,89,0
0,75,89,0
0,44,0,93
0,70,0,1
0,72,0,0
0,75,0,0
0,53,110,2
0,68,89,0
0,53,0,93
0,56,0,0
0,60,0,0
0,63,0,0
0,68,0,1
0,46,110,2
0,70,89,0
0,75,89,0
0,53,85,96
0,58,55,0
0,53,0,93
0,58,0,0
0,70,0,1
0,75,0,0
0,58,105,2
0,62,85,0
0,70,79,0
0,74,79,0
0,75,79,0
0,62,0,45
0,63,105,3
0,46,0,45
0,58,0,0
0,63,0,0
0,53,110,3
0,53,0,93
0,70,0,1
0,74,0,0
0,75,0,0
0,44,110,2
0,70,89,0
0,72,89,0
0,75,89,0
0,51,75,96
0,56,55,0
0,51,0,93
0,56,0,0
0,70,0,1
0,72,0,0
0,75,0,0
0,56,105,2
0,60,105,0
0,63,105,0
0,70,89,0
0,72,89,0
0,75,89,0
0,44,0,93
0,70,0,1
0,72,0,0
0,75,0,0
0,53,110,2
0,68,89,0
0,53,0,93
0,56,0,0
0,60,0,0
0,63,0,0
0,68,0,1
0,46,110,2
0,70,89,0
0,75,89,0
0,53,75,96
0,58,55,0
0,53,0,93
0,58,0,0
0,70,0,1
0,75,0,0
0,58,105,2
0,62,85,0
0,70,79,0
0,74,79,0
0,75,79,0
0,62,0,45
0,63,105,3
0,46,0,45
0,58,0,0
0,63,0,0
0,53,110,3
0,58,84,48
0,58,0,20
0,53,0,25
0,70,0,1
0,74,0,0
0,75,0,0
0,48,110,2
0,60,109,0
0,60,104,0
0,63,104,0
0,67,104,0
0,60,0,46
0,60,0,0
0,63,0,0
0,67,0,0
0,55,55,2
0,60,93,0
0,63,109,0
0,60,0,46
0,55,0,47
0,55,105,3
0,60,105,0
0,63,105,0
0,63,104,0
0,72,104,0
0,55,0,92
0,48,0,1
0,63,0,1
0,63,0,0
0,72,0,0
0,55,100,2
0,65,109,0
0,67,93,0
0,67,0,46
0,55,0,47
0,60,0,0
0,63,0,0
0,46,110,3
0,62,104,0
0,65,104,0
0,70,104,0
0,65,0,46
0,53,75,2
0,58,55,0
0,63,109,0
0,63,0,46
0,53,0,47
0,58,0,0
0,62,0,1
0,65,0,0
0,70,0,0
0,53,100,2
0,58,100,0
0,62,100,0
0,63,109,0
0,63,0,46
0,53,0,46
0,46,0,1
0,53,100,3
0,63,109,0
0,63,0,46
0,53,0,47
0,58,0,0
0,62,0,0
0,51,110,3
0,58,104,0
0,63,109,0
0,63,104,0
0,67,104,0
0,51,0,45
0,58,0,1
0,63,0,0
0,67,0,0
0,55,75,2
0,58,55,0
0,58,104,0
0,55,0,92
0,58,0,1
0,58,0,1
0,55,105,2
0,58,105,0
0,63,105,0
0,63,104,0
0,55,0,93
0,63,0,1
0,63,0,0
0,55,85,2
0,58,109,0
0,70,104,0
0,55,0,93
0,58,0,0
0,63,0,0
0,58,0,1
0,55,85,2
0,58,109,0
0,63,92,0
0,65,92,0
0,55,0,45
0,63,0,1
0,65,0,0
0,70,0,0
0,55,75,2
0,58,55,0
0,55,0,92
0,58,0,1
0,55,100,3
0,58,100,0
0,63,100,0
0,63,91,0
0,67,91,0
0,70,91,0
0,63,0,46
0,55,0,47
0,58,0,1
0,67,0,0
0,70,0,0
0,53,100,2
0,63,84,0
0,63,0,46
0,58,84,2
0,58,0,20
0,53,0,25
0,58,0,0
0,63,0,0
0,44,110,3
0,60,109,0
0,63,104,0
0,68,104,0
0,72,104,0
0,60,0,46
0,63,0,0
0,68,0,0
0,72,0,0
0,51,75,2
0,56,55,0
0,62,109,0
0,63,86,0
0,51,0,93
0,56,0,0
0,62,0,1
0,56,105,2
0,60,105,0
0,63,105,0
0,63,109,0
0,68,104,0
0,72,104,0
0,63,0,46
0,44,0,47
0,63,0,1
0,68,0,0
0,72,0,0
0,53,100,2
0,60,109,0
0,63,86,0
0,63,0,46
0,53,0,47
0,56,0,0
0,60,0,0
0,63,0,0
0,60,0,1
0,51,110,2
0,58,109,0
0,63,104,0
0,67,104,0
0,70,104,0
0,58,0,46
0,63,0,0
0,67,0,0
0,70,0,0
0,55,55,2
0,63,109,0
0,63,86,0
0,63,0,46
0,55,0,47
0,55,100,3
0,58,100,0
0,63,100,0
0,63,109,0
0,67,104,0
0,63,0,46
0,51,0,47
0,63,0,1
0,67,0,0
0,53,100,2
0,58,109,0
0,63,86,0
0,63,0,46
0,53,0,47
0,55,0,0
0,58,0,0
0,63,0,0
0,58,0,1
0,46,110,2
0,62,104,0
0,65,104,0
0,67,109,0
0,70,104,0
0,62,0,46
0,65,0,0
0,67,0,0
0,70,0,0
0,53,55,2
0,62,85,0
0,65,109,0
0,53,0,93
0,62,0,1
0,65,0,0
0,58,105,2
0,62,105,0
0,63,109,0
0,65,105,0
0,65,95,0
0,46,0,93
0,63,0,1
0,65,0,0
0,53,100,2
0,60,109,0
0,70,104,0
0,70,0,46
0,53,0,47
0,58,0,0
0,62,0,0
0,65,0,0
0,60,0,1
0,51,110,2
0,63,109,0
0,63,88,0
0,65,104,0
0,70,88,0
0,63,0,46
0,65,0,0
0,70,0,0
0,55,55,2
0,63,84,0
0,63,0,46
0,63,0,0
0,55,0,47
0,58,100,3
0,63,100,0
0,63,91,0
0,67,100,0
0,67,109,0
0,67,104,0
0,70,91,0
0,58,0,44
0,51,0,1
0,63,0,1
0,67,0,0
0,67,0,0
0,70,0,0
0,58,100,2
0,60,109,0
0,60,84,48
0,60,0,20
0,58,0,25
0,63,0,0
0,67,0,0
0,60,0,1
0,44,110,2
0,60,104,0
0,63,109,0
0,63,104,0
0,68,104,0
0,60,0,46
0,63,0,0
0,68,0,0
0,51,75,2
0,56,55,0
0,60,84,0
0,60,0,46
0,51,0,47
0,56,0,0
0,56,105,3
0,60,105,0
0,63,105,0
0,74,116,0
0,44,0,93
0,74,0,1
0,44,100,2
0,75,119,0
0,44,0,93
0,56,0,0
0,60,0,0
0,63,0,0
0,75,0,1
0,51,110,2
0,70,94,0
0,70,0,46
0,51,0,46
0,63,0,2
0,51,75,2
0,56,55,0
0,63,109,0
0,63,0,46
0,51,0,47
0,56,0,0
0,56,105,3
0,60,105,0
0,63,105,0
0,63,109,0
0,63,0,46
0,51,100,50
0,63,109,0
0,63,0,46
0,51,0,47
0,56,0,0
0,60,0,0
0,63,0,0
0,46,110,3
0,62,94,0
0,63,109,0
0,65,94,0
0,70,94,0
0,53,55,48
0,65,0,46
0,53,0,47
0,62,0,1
0,70,0,0
0,58,105,2
0,62,105,0
0,65,105,0
0,46,0,93
0,53,100,3
0,53,0,93
0,58,0,0
0,62,0,0
0,65,0,0
0,63,0,1
0,51,110,2
0,58,109,0
0,63,94,0
0,67,94,0
0,70,94,0
0,63,0,46
0,67,0,0
0,55,55,2
0,70,0,46
0,55,0,47
0,58,0,1
0,58,100,2
0,63,100,0
0,67,100,0
0,58,0,92
0,51,0,1
0,58,100,3
0,58,0,93
0,63,0,0
0,67,0,0
0,46,110,3
0,62,104,0
0,65,109,0
0,65,104,0
0,70,104,0
0,62,0,46
0,65,0,0
0,70,0,0
0,53,55,2
0,62,104,0
0,53,0,93
0,62,0,1
0,58,105,2
0,62,105,0
0,65,105,0
0,65,104,0
0,46,0,93
0,65,0,1
0,65,0,0
0,53,100,2
0,70,104,0
0,70,0,46
0,53,0,47
0,58,0,0
0,62,0,0
0,65,0,0
0,51,110,3
0,63,104,0
0,67,109,0
0,67,104,0
0,70,104,0
0,55,55,48
0,63,0,46
0,67,0,0
0,70,0,0
0,55,0,47
0,58,100,3
0,63,100,0
0,67,100,0
0,58,0,92
0,51,0,1
0,67,0,1
0,58,100,2
0,58,84,48
0,58,0,20
0,58,0,25
0,63,0,0
0,67,0,0
0,56,110,3
0,60,104,0
0,63,104,0
0,68,104,0
0,56,0,44
0,60,0,2
0,56,55,2
0,60,75,0
0,60,74,0
0,68,109,0
0,63,0,46
0,68,0,0
0,56,0,47
0,60,0,0
0,68,0,1
0,60,105,2
0,63,105,0
0,63,104,0
0,68,105,0
0,68,104,0
0,70,109,0
0,60,0,46
0,63,0,0
0,68,0,48
0,70,0,0
0,56,100,2
0,72,109,0
0,56,0,93
0,60,0,0
0,63,0,0
0,68,0,0
0,72,0,1
0,51,110,2
0,63,104,0
0,67,104,0
0,70,109,0
0,70,104,0
0,70,0,46
0,58,85,2
0,67,109,0
0,58,0,93
0,63,0,1
0,67,0,0
0,67,0,0
0,70,0,0
0,58,100,2
0,63,100,0
0,63,109,0
0,67,100,0
0,51,0,93
0,63,0,1
0,51,100,2
0,67,109,0
0,60,84,48
0,60,0,20
0,51,0,25
0,58,0,0
0,63,0,0
0,67,0,0
0,46,110,3
0,62,104,0
0,65,104,0
0,70,104,0
0,67,0,46
0,53,55,2
0,65,109,0
0,65,0,46
0,70,0,0
0,53,0,47
0,58,105,3
0,62,105,0
0,65,105,0
0,65,104,0
0,70,104,0
0,62,0,46
0,58,0,46
0,46,0,1
0,65,0,1
0,70,0,0
0,58,100,2
0,62,84,0
0,62,0,46
0,58,0,47
0,62,0,0
0,65,0,0
0,65,0,1
0,48,103,2
0,48,0,45
0,50,103,3
0,50,0,45
0,53,95,3
0,53,0,93
0,46,110,3
0,58,105,0
0,62,105,0
0,65,105,0
0,65,112,0
0,58,0,92
0,46,0,1
0,65,0,1
0,58,100,2
0,70,112,0
0,70,0,46
0,58,0,47
0,62,0,0
0,65,0,0
0,46,110,3
0,77,112,0
0,77,0,46
0,53,55,50
0,82,112,0
0,82,0,46
0,53,0,47
0,58,105,3
0,62,105,0
0,65,105,0
0,46,0,93
0,53,100,3
0,58,109,0
0,53,0,93
0,58,0,0
0,62,0,0
0,65,0,0
0,58,0,1
0,47,110,2
0,66,109,0
0,71,112,0
0,66,0,46
0,71,0,0
0,54,55,2
0,59,85,0
0,65,109,0
0,75,112,0
0,54,0,93
0,59,0,0
0,65,0,1
0,75,0,0
0,59,105,2
0,63,105,0
0,63,109,0
0,66,105,0
0,78,112,0
0,47,0,93
0,59,0,0
0,63,0,0
0,66,0,0
0,63,0,1
0,78,0,0
0,53,100,2
0,61,109,0
0,83,112,0
0,83,0,46
0,58,84,2
0,58,0,20
0,53,0,25
0,61,0,1
0,51,110,2
0,63,109,0
0,70,104,0
0,75,104,0
0,82,104,0
0,63,0,46
0,70,0,0
0,75,0,0
0,82,0,0
0,55,55,2
0,63,109,0
0,70,89,0
0,55,0,93
0,63,0,1
0,58,100,2
0,63,100,0
0,67,100,0
0,67,109,0
0,75,104,0
0,79,104,0
0,70,0,46
0,58,0,46
0,51,0,1
0,67,0,1
0,75,0,0
0,79,0,0
0,58,100,2
0,58,109,0
0,70,89,0
0,70,0,46
0,58,0,47
0,63,0,0
0,67,0,0
0,58,0,1
0,47,110,2
0,66,109,0
0,71,104,0
0,75,104,0
0,78,104,0
0,66,0,46
0,71,0,0
0,75,0,0
0,78,0,0
0,54,55,2
0,59,85,0
0,65,109,0
0,71,104,0
0,54,0,93
0,59,0,0
0,65,0,1
0,71,0,0
0,59,105,2
0,63,105,0
0,63,109,0
0,66,105,0
0,75,104,0
0,47,0,93
0,59,0,0
0,63,0,0
0,66,0,0
0,63,0,1
0,75,0,0
0,53,100,2
0,61,109,0
0,78,104,0
0,78,0,46
0,53,0,47
0,61,0,1
0,44,110,2
0,62,109,0
0,68,104,0
0,70,104,0
0,74,104,0
0,68,0,46
0,70,0,0
0,74,0,0
0,56,75,2
0,68,88,0
0,56,0,93
0,68,0,1
0,56,100,2
0,58,100,0
0,62,100,0
0,70,104,0
0,74,104,0
0,44,0,93
0,70,0,1
0,74,0,0
0,44,100,2
0,68,88,0
0,44,0,93
0,56,0,0
0,58,0,0
0,62,0,0
0,68,0,1
0,51,110,2
0,70,104,0
0,74,104,0
0,70,0,94
0,74,0,0
0,56,75,2
0,68,88,0
0,56,0,93
0,56,105,3
0,58,105,0
0,62,105,0
0,70,104,0
0,68,0,46
0,51,0,47
0,62,0,1
0,51,100,2
0,63,109,0
0,74,104,0
0,70,0,46
0,74,0,0
0,51,0,47
0,56,0,0
0,58,0,0
0,62,0,0
0,44,110,3
0,68,104,0
0,72,104,0
0,75,104,0
0,68,0,46
0,72,0,0
0,75,0,0
0,56,75,2
0,68,74,0
0,56,0,93
0,68,0,1
0,56,100,2
0,60,100,0
0,63,100,0
0,72,84,0
0,44,0,93
0,72,0,1
0,44,100,2
0,68,104,0
0,75,104,0
0,68,0,46
0,44,0,47
0,56,0,0
0,60,0,0
0,63,0,0
0,75,0,1
0,51,110,2
0,68,84,0
0,56,75,96
0,72,104,0
0,68,0,46
0,72,0,0
0,56,0,47
0,56,105,3
0,60,105,0
0,63,105,0
0,68,104,0
0,72,104,0
0,75,104,0
0,68,0,46
0,72,0,0
0,75,0,0
0,51,0,47
0,63,0,1
0,53,100,2
0,60,84,48
0,60,0,20
0,53,0,2
0,56,0,0
0,60,0,0
0,63,0,0
0,43,110,3
0,43,109,0
0,55,109,0
0,50,75,96
0,53,127,0
0,55,55,0
0,50,0,93
0,55,0,0
0,53,0,1
0,55,0,0
0,55,105,2
0,58,105,0
0,58,109,0
0,58,127,0
0,62,105,0
0,43,0,93
0,58,0,1
0,53,110,2
0,65,127,0
0,53,0,93
0,55,0,0
0,58,0,0
0,62,0,0
0,43,0,1
0,58,0,0
0,65,0,0
0,50,110,2
0,50,109,0
0,60,127,0
0,62,109,0
0,53,75,96
0,57,55,0
0,53,0,93
0,57,0,0
0,62,0,1
0,57,100,2
0,62,100,0
0,65,100,0
0,65,109,0
0,50,0,93
0,57,0,0
0,62,0,0
0,65,0,0
0,53,110,3
0,53,0,93
0,50,0,1
0,60,0,0
0,65,0,0
0,43,110,2
0,43,109,0
0,55,109,0
0,50,75,96
0,53,127,0
0,55,55,0
0,50,0,93
0,55,0,0
0,53,0,1
0,55,0,0
0,55,105,2
0,58,105,0
0,58,109,0
0,58,127,0
0,62,105,0
0,43,0,93
0,58,0,1
0,53,110,2
0,65,127,0
0,53,0,93
0,55,0,0
0,58,0,0
0,62,0,0
0,43,0,1
0,58,0,0
0,65,0,0
0,50,110,2
0,50,109,0
0,60,127,0
0,62,109,0
0,53,75,96
0,57,55,0
0,53,0,93
0,57,0,0
0,62,0,1
0,57,100,2
0,62,100,0
0,65,100,0
0,65,109,0
0,50,0,93
0,57,0,0
0,62,0,0
0,65,0,0
0,53,110,3
0,60,84,48
0,60,0,20
0,53,0,25
0,50,0,1
