track,note,velocity,time
3,48,113,3612
3,31,124,968
3,33,113,32
3,36,117,280
3,36,126,88
3,36,119,32
3,36,121,88
3,36,125,32
3,36,111,88
3,36,126,32
3,36,108,88
3,36,117,32
3,36,114,88
3,36,113,32
3,36,120,88
3,36,109,32
3,36,121,88
3,36,123,32
3,36,124,88
3,36,113,32
3,36,114,88
3,36,110,32
3,36,114,88
3,36,120,32
3,36,127,88
3,36,117,32
3,36,111,88
3,36,123,32
3,36,114,88
3,36,120,32
3,36,123,88
3,36,114,32
3,31,112,88
3,33,121,32
3,31,112,88
3,36,119,32
3,36,119,88
3,36,117,32
3,36,124,88
3,36,120,32
3,36,127,88
3,36,127,32
3,36,120,88
3,36,124,32
3,36,115,88
3,36,110,32
3,36,109,88
3,36,110,32
3,33,123,88
3,31,119,32
3,28,120,88
3,29,114,32
3,29,122,88
3,29,112,32
3,29,125,88
3,29,125,32
3,29,117,88
3,29,117,32
3,29,125,88
3,29,115,32
3,29,124,88
3,29,110,32
3,29,119,88
3,29,110,32
3,29,126,88
3,33,113,32
3,35,123,88
3,36,110,32
3,36,118,88
3,36,119,32
3,36,127,88
3,36,125,32
3,36,115,88
3,36,119,32
3,33,108,88
3,31,108,32
3,31,125,88
3,31,124,32
3,31,110,88
3,31,127,32
3,31,108,88
3,33,116,32
3,35,111,88
3,36,117,32
3,36,118,88
3,36,119,32
3,36,116,88
3,36,108,32
3,36,115,88
3,36,125,32
3,36,108,88
3,36,110,32
3,36,115,88
3,36,110,32
3,36,115,88
3,36,123,32
3,31,109,88
3,33,115,32
3,31,110,88
3,36,118,32
3,36,126,88
3,36,108,32
3,36,109,88
3,36,117,32
3,36,126,88
3,36,117,32
3,36,117,88
3,36,121,32
3,36,126,88
3,36,121,32
3,36,120,88
3,36,119,32
3,33,126,88
3,31,110,32
3,28,122,88
3,29,113,32
3,29,123,88
3,29,117,32
3,29,122,88
3,29,110,32
3,29,112,88
3,29,115,32
3,29,126,88
3,29,117,32
3,29,108,88
3,29,124,32
3,29,109,88
3,29,111,32
3,29,110,88
3,33,120,32
3,35,123,88
3,36,114,32
3,36,124,88
3,36,111,32
3,36,125,88
3,36,117,32
3,36,112,88
3,36,114,32
3,33,116,88
3,31,110,32
3,31,121,88
3,31,123,32
3,31,118,88
3,31,127,32
3,31,109,88
3,33,116,32
3,35,122,88
3,36,110,32
3,36,120,88
3,36,110,32
3,36,123,88
3,36,108,32
3,36,120,88
3,36,123,32
3,36,126,88
3,36,126,32
3,36,125,88
3,36,116,32
3,36,118,88
3,36,113,32
3,31,124,88
3,33,124,32
3,35,127,88
3,36,126,32
3,36,115,88
3,36,110,32
3,36,114,88
3,36,125,32
3,36,125,88
3,36,126,32
3,36,110,88
3,36,126,32
3,36,112,88
3,36,116,32
3,36,118,88
3,36,109,32
3,33,110,88
3,31,126,32
3,28,117,88
3,29,119,32
3,29,110,88
3,29,121,32
3,29,113,88
3,29,124,32
3,29,111,88
3,29,122,32
3,29,115,88
3,29,126,32
3,29,109,88
3,29,110,32
3,29,119,88
3,29,109,32
3,29,120,88
3,33,120,32
3,35,109,88
3,36,124,32
3,36,120,88
3,36,110,32
3,36,110,88
3,36,118,32
3,36,117,88
3,36,126,32
3,33,126,88
3,31,117,32
3,31,119,88
3,31,123,32
3,31,119,88
3,31,125,32
3,31,120,88
3,33,117,32
3,35,113,88
3,36,108,32
3,36,115,88
3,36,116,32
3,36,110,88
3,36,115,32
3,36,117,88
3,36,127,32
3,36,121,88
3,36,126,32
3,36,121,88
3,36,112,32
3,36,109,88
3,36,119,32
3,31,112,88
3,33,123,32
3,31,116,88
3,36,116,32
3,36,121,88
3,36,116,32
3,36,112,88
3,36,117,32
3,36,119,88
3,36,110,32
3,36,112,88
3,36,113,32
3,36,126,88
3,36,110,32
3,36,117,88
3,36,113,32
3,36,112,88
3,36,121,32
3,31,118,88
3,29,127,32
3,29,118,88
3,29,119,32
3,29,111,88
3,29,122,32
3,29,109,88
3,29,113,32
3,29,109,88
3,29,116,32
3,29,122,88
3,29,125,32
3,29,124,88
3,29,122,32
3,29,111,88
3,33,108,32
3,35,115,88
3,36,114,32
3,36,120,88
3,36,112,32
3,36,117,88
3,36,122,32
3,36,124,88
3,36,111,32
3,33,114,88
3,31,124,32
3,31,113,88
3,31,120,32
3,31,109,88
3,31,115,32
3,31,116,88
3,33,115,32
3,35,118,88
3,36,125,32
3,36,119,88
3,36,114,32
3,36,113,88
3,36,124,32
3,36,120,88
3,36,113,32
3,36,127,88
3,36,125,32
3,36,116,88
3,36,114,32
3,36,122,88
3,36,116,32
3,31,109,88
3,33,108,32
3,31,113,88
3,36,125,32
3,36,119,88
3,36,122,32
3,36,120,88
3,36,111,32
3,36,124,88
3,36,123,32
3,36,119,88
3,28,119,32
3,28,124,88
3,28,119,32
3,28,112,88
3,28,108,32
3,28,125,88
3,28,111,32
3,28,121,88
3,29,112,32
3,29,121,88
3,29,126,32
3,29,112,88
3,29,120,32
3,29,121,88
3,29,122,32
3,36,121,88
3,29,122,32
3,29,123,88
3,29,123,32
3,29,119,88
3,29,123,32
3,29,117,88
3,33,118,32
3,35,117,88
3,36,120,32
3,36,119,88
3,36,111,32
3,36,120,88
3,36,124,32
3,36,109,88
3,36,122,32
3,33,115,88
3,31,126,32
3,31,118,88
3,31,109,32
3,31,122,88
3,31,112,32
3,31,111,88
3,33,124,32
3,35,113,88
3,36,117,32
3,36,125,88
3,36,119,32
3,36,126,88
3,36,109,32
3,36,124,88
3,36,114,32
3,36,119,88
3,36,117,32
3,36,126,88
3,36,116,32
3,36,112,88
3,36,120,32
3,31,109,88
3,33,113,32
3,31,114,88
3,36,127,32
3,36,123,88
3,36,124,32
3,36,112,88
3,36,120,32
3,36,113,88
3,36,122,32
3,36,127,88
3,36,116,32
3,36,120,88
3,36,117,32
3,36,117,88
3,36,127,32
3,33,126,88
3,31,109,32
3,28,121,88
3,29,109,32
3,29,114,88
3,29,117,32
3,29,111,88
3,29,112,32
3,29,121,88
3,29,124,32
3,29,127,88
3,29,120,32
3,29,127,88
3,29,119,32
3,29,119,88
3,29,127,32
3,29,114,88
3,33,127,32
3,35,110,88
3,36,117,32
3,36,113,88
3,36,123,32
3,36,114,88
3,36,118,32
3,36,127,88
3,36,116,32
3,33,123,88
3,31,118,32
3,31,110,88
3,31,125,32
3,31,114,88
3,31,111,32
3,31,121,88
3,33,120,32
3,35,112,88
3,36,119,32
3,36,109,88
3,36,124,32
3,36,125,88
3,36,126,32
3,36,125,88
3,36,126,32
3,36,112,88
3,36,119,32
3,36,127,88
3,36,114,32
3,36,115,88
3,36,124,32
3,31,127,88
3,33,114,32
3,35,113,88
3,36,118,32
3,36,110,88
3,36,115,32
3,36,123,88
3,36,119,32
3,36,123,88
3,36,119,32
3,36,109,88
3,36,122,32
3,36,110,88
3,36,119,32
3,36,109,88
3,36,126,32
3,33,109,88
3,31,111,32
3,28,113,88
3,29,114,32
3,29,113,88
3,29,126,32
3,29,123,88
3,29,113,32
3,29,126,88
3,29,115,32
3,29,122,88
3,29,124,32
3,29,108,88
3,29,108,32
3,29,118,88
3,29,110,32
3,29,118,88
3,33,108,32
3,35,109,88
3,36,120,32
3,36,115,88
3,36,123,32
3,36,115,88
3,36,121,32
3,36,113,88
3,36,127,32
3,33,113,88
3,31,116,32
3,31,122,88
3,31,123,32
3,31,119,88
3,31,108,32
3,31,120,88
3,33,117,32
3,35,111,88
3,36,124,32
3,36,127,88
3,36,126,32
3,36,124,88
3,36,110,32
3,36,117,88
3,36,124,32
3,36,122,88
3,36,124,32
3,36,112,88
3,36,123,32
3,36,125,88
3,36,125,32
3,36,119,88
3,36,124,32
3,36,125,88
3,36,112,32
3,28,113,136
3,28,111,32
3,29,108,136
3,29,123,32
3,30,108,136
3,30,112,32
3,31,122,136
3,31,110,32
3,31,109,136
3,31,121,32
3,36,122,136
3,36,119,32
3,43,108,48
3,48,112,4
3,48,112,88
3,48,120,32
3,48,113,88
3,48,109,32
3,46,123,88
3,43,118,32
3,40,110,88
3,36,109,32
3,36,121,88
3,36,109,32
3,36,121,88
3,36,125,32
3,36,112,88
3,36,127,32
3,36,122,88
3,36,117,32
3,36,108,88
3,36,123,32
3,36,123,88
3,36,124,32
3,33,118,88
3,31,126,32
3,28,121,88
3,29,110,32
3,29,122,88
3,29,113,32
3,29,111,88
3,29,118,32
3,29,113,88
3,29,118,32
3,29,124,88
3,29,111,32
3,29,124,88
3,29,110,32
3,29,112,88
3,29,119,32
3,29,118,88
3,33,116,32
3,35,116,88
3,36,123,32
3,36,124,88
3,36,108,32
3,36,117,88
3,36,117,32
3,36,117,88
3,36,116,32
3,33,119,88
3,31,120,32
3,31,125,88
3,31,123,32
3,31,127,88
3,31,127,32
3,31,123,88
3,33,108,32
3,35,123,88
3,36,114,32
3,36,120,88
3,36,116,32
3,36,111,88
3,36,117,32
3,36,110,88
3,36,123,32
3,36,120,88
3,36,127,32
3,36,113,88
3,36,123,32
3,36,108,88
3,36,120,32
3,31,126,88
3,33,122,32
3,35,108,88
3,36,122,32
3,36,118,280
3,36,111,88
3,36,121,32
3,36,125,88
3,36,116,32
3,36,112,88
3,28,121,32
3,28,109,48
3,28,123,88
3,28,122,32
3,28,109,88
3,28,124,32
3,28,118,88
3,29,110,32
3,29,127,88
3,29,120,32
3,29,122,88
3,29,126,32
3,29,111,88
3,29,124,32
3,30,110,280
3,38,114,48
3,38,108,88
3,36,116,32
3,36,126,88
3,33,110,32
3,35,121,88
3,36,118,32
3,36,123,88
3,36,118,32
3,36,116,88
3,36,118,32
3,36,111,88
3,36,127,32
3,33,117,88
3,31,112,32
3,31,126,88
3,31,114,32
3,31,122,88
3,31,116,32
3,31,109,88
3,33,109,32
3,35,109,88
3,36,118,32
3,36,121,88
3,36,109,32
3,36,124,88
3,36,121,32
3,36,117,88
3,36,114,32
3,36,112,88
3,36,123,32
3,36,110,88
3,36,111,32
3,36,119,88
3,36,112,32
3,31,111,88
3,33,118,32
3,35,113,88
3,36,116,32
3,36,126,88
3,36,121,32
3,36,114,88
3,36,108,32
3,36,109,88
3,36,124,32
3,36,124,88
3,40,123,32
3,28,124,88
3,28,121,32
3,28,112,88
3,28,118,32
3,28,109,88
3,28,112,32
3,28,109,88
3,29,115,32
3,29,109,88
3,29,126,32
3,29,126,88
3,29,112,32
3,29,111,88
3,29,109,32
3,29,117,88
3,30,117,32
3,30,126,88
3,30,113,32
3,30,126,88
3,30,108,32
3,30,113,88
3,30,119,32
3,30,127,88
3,36,118,32
3,36,113,88
3,36,112,32
3,36,113,88
3,36,124,32
3,36,120,88
3,36,114,32
3,33,126,88
3,31,123,32
3,31,108,88
3,31,113,32
3,31,124,88
3,31,108,32
3,31,110,88
3,33,122,32
3,35,112,88
3,36,120,32
3,36,118,88
3,36,120,32
3,36,125,88
3,36,127,32
3,36,110,88
3,36,120,32
3,36,127,88
3,36,112,32
3,36,116,88
3,36,119,32
3,36,121,88
3,36,120,32
3,31,121,88
3,33,121,32
3,31,124,88
3,36,110,32
3,36,120,88
3,36,109,32
3,36,125,88
3,36,122,32
3,36,109,88
3,36,124,32
3,36,125,88
3,40,115,32
3,28,113,88
3,28,108,32
3,28,109,88
3,28,120,32
3,28,120,88
3,28,108,32
3,28,119,88
3,29,115,32
3,29,127,88
3,29,110,32
3,29,112,88
3,29,122,32
3,29,122,88
3,29,117,32
3,29,124,88
3,30,112,32
3,30,115,88
3,30,109,32
3,36,114,88
3,39,121,32
3,39,120,88
3,36,113,32
3,39,127,88
3,31,115,32
3,31,123,88
3,31,112,32
3,31,121,88
3,31,116,32
3,31,125,88
3,31,125,32
3,31,121,88
3,31,124,32
3,31,116,88
3,31,127,32
3,31,119,88
3,31,110,32
3,31,125,88
3,33,119,32
3,35,112,88
3,36,126,32
3,36,110,88
3,36,116,32
3,36,121,88
3,36,109,32
3,36,113,88
3,36,109,32
3,36,110,88
3,36,122,32
3,36,122,88
3,36,122,32
3,36,119,88
3,36,127,32
3,31,117,88
3,33,125,32
3,31,116,88
3,36,118,32
3,36,121,88
3,36,121,32
3,36,114,88
3,36,120,32
3,36,113,88
3,36,125,32
3,36,118,88
3,40,114,32
3,28,116,88
3,28,109,32
3,28,126,88
3,28,110,32
3,28,112,88
3,28,124,32
3,28,113,88
3,29,117,32
3,29,126,88
3,29,118,32
3,29,121,88
3,29,123,32
3,29,110,88
3,29,125,32
3,29,127,88
3,30,124,32
3,30,113,88
3,30,118,32
3,30,127,88
3,30,111,32
3,30,120,88
3,30,126,32
3,30,114,88
3,31,123,32
3,31,109,88
3,31,114,32
3,31,116,88
3,31,108,32
3,31,121,88
3,31,115,32
3,33,116,88
3,31,110,32
3,31,127,88
3,31,113,32
3,31,122,88
3,31,117,32
3,31,108,88
3,33,114,32
3,35,124,88
3,36,112,32
3,36,111,88
3,36,113,32
3,36,127,88
3,36,120,32
3,36,121,88
3,36,115,32
3,36,117,88
3,36,125,32
3,36,125,88
3,36,115,32
3,36,109,88
3,36,109,32
3,31,116,88
3,33,126,32
3,31,123,88
3,36,114,32
3,36,125,88
3,36,112,32
3,36,118,88
3,36,116,32
3,36,116,88
3,36,122,32
3,36,118,88
3,40,117,32
3,40,108,88
3,40,119,32
3,40,119,88
3,40,123,32
3,40,120,88
3,40,117,32
3,40,127,88
3,41,116,32
3,29,122,88
3,29,123,32
3,29,108,88
3,29,112,32
3,29,111,88
3,29,108,32
3,29,121,88
3,30,108,32
3,30,114,88
3,30,114,32
3,42,118,88
3,39,113,32
3,39,111,88
3,36,114,32
3,30,125,88
3,31,117,32
3,31,126,88
3,31,113,32
3,31,112,88
3,31,117,32
3,31,124,88
3,31,118,32
3,31,125,88
3,31,118,32
3,31,116,88
3,31,125,32
3,31,109,88
3,31,124,32
3,31,114,88
3,33,122,32
3,35,123,88
3,36,113,32
3,48,116,88
3,46,126,32
3,45,118,88
3,43,115,32
3,41,109,88
3,39,114,32
3,38,122,88
3,36,118,32
3,36,119,664
3,36,113,20
4,72,114,3208
4,73,109,32
4,74,121,4
4,76,126,4
4,79,117,4
4,28,123,32
4,40,118,0
4,75,121,0
4,79,113,0
4,82,112,0
4,87,112,0
4,28,114,32
4,40,109,0
4,75,124,0
4,79,111,0
4,82,119,0
4,87,124,0
4,28,116,32
4,40,110,0
4,74,116,0
4,79,117,0
4,82,109,0
4,86,124,0
4,72,125,32
4,29,114,32
4,41,117,0
4,72,127,0
4,77,111,0
4,81,113,0
4,84,110,0
4,29,109,32
4,41,110,0
4,72,118,0
4,77,118,0
4,81,113,0
4,84,124,0
4,30,111,32
4,42,121,0
4,72,124,0
4,78,117,0
4,81,113,0
4,84,111,0
4,66,122,32
4,75,113,48
4,72,121,12
4,31,120,12
4,43,109,0
4,76,118,0
4,79,126,0
4,67,116,32
4,31,110,32
4,43,127,0
4,67,116,0
4,77,111,0
4,81,118,0
4,31,111,32
4,43,119,0
4,67,110,0
4,75,108,0
4,79,114,0
4,31,113,32
4,43,127,0
4,67,120,0
4,76,120,0
4,79,109,0
4,31,125,32
4,43,115,0
4,66,115,0
4,75,110,0
4,78,116,0
4,31,115,32
4,43,122,0
4,65,109,0
4,74,113,0
4,77,122,0
4,36,112,32
4,48,123,0
4,64,118,0
4,72,127,0
4,76,112,0
4,36,115,32
4,48,113,0
4,60,118,0
4,67,113,0
4,36,115,32
4,48,114,0
4,60,120,0
4,64,119,0
4,69,123,0
4,36,120,32
4,48,123,0
4,60,115,48
4,64,111,0
4,67,120,0
4,60,115,32
4,64,119,0
4,67,118,0
4,31,116,32
4,43,110,0
4,60,110,0
4,64,117,0
4,69,110,0
4,36,110,32
4,48,122,0
4,60,109,0
4,64,119,0
4,67,113,0
4,36,120,32
4,48,121,0
4,60,119,0
4,64,109,0
4,67,114,0
4,36,109,32
4,48,109,0
4,60,124,0
4,64,114,0
4,69,108,0
4,60,125,32
4,64,117,0
4,67,108,0
