track,note,velocity,time
1,52,35,5160
1,56,57,0
1,52,0,14
1,56,0,9
1,56,45,35
1,52,39,1
1,52,0,45
1,56,0,3
1,62,70,11
1,68,70,1
1,59,70,0
1,56,53,119
1,52,48,1
1,59,0,69
1,62,0,7
1,68,0,2
1,68,70,41
1,59,70,1
1,62,70,0
1,52,0,92
1,56,0,3
1,56,36,24
1,52,38,0
1,56,0,15
1,52,0,5
1,56,49,40
1,52,43,0
1,59,0,19
1,62,0,6
1,68,0,6
1,68,70,29
1,62,70,0
1,59,70,0
1,52,0,50
1,56,0,16
1,59,0,121
1,62,0,5
1,68,0,10
1,68,70,38
1,59,70,1
1,62,70,0
1,56,49,120
1,56,0,22
1,52,47,37
1,56,54,1
1,59,0,8
1,62,0,6
1,68,0,6
1,68,70,39
1,62,70,1
1,59,70,0
1,52,0,3
1,56,0,7
1,52,49,109
1,56,59,1
1,59,0,65
1,62,0,5
1,68,0,2
1,68,70,47
1,59,70,0
1,62,70,0
1,52,0,20
1,56,0,4
1,56,57,96
1,52,42,1
1,52,0,10
1,56,0,5
1,52,50,44
1,56,59,1
1,59,0,7
1,68,0,1
1,62,0,5
1,62,70,46
1,68,70,0
1,52,0,1
1,59,70,0
1,56,0,8
1,59,0,162
1,62,0,1
1,68,0,0
1,68,80,8
1,74,80,1
1,68,0,28
1,74,0,1
1,74,80,30
1,68,80,1
1,68,0,29
1,74,0,2
1,68,80,28
1,74,80,1
1,68,0,29
1,74,0,7
1,56,64,24
1,52,42,0
1,52,0,8
1,56,0,7
1,56,51,44
1,52,51,1
1,56,0,32
1,52,0,3
1,68,70,24
1,59,70,1
1,62,70,0
1,56,50,119
1,52,49,1
1,62,0,70
1,59,0,1
1,68,0,12
1,59,70,36
1,62,70,0
1,68,70,0
1,59,0,199
1,62,0,5
1,68,0,11
1,68,70,25
1,62,70,1
1,59,70,0
1,59,0,191
1,62,0,4
1,68,0,10
1,59,70,34
1,62,70,0
1,68,70,0
1,52,0,72
1,56,0,8
1,56,54,41
1,52,50,0
1,52,0,17
1,56,0,6
1,56,59,36
1,52,53,1
1,59,0,13
1,62,0,6
1,68,0,6
1,52,0,3
1,56,0,1
1,68,70,30
1,59,70,1
1,62,70,0
1,56,64,119
1,52,55,1
1,62,0,84
1,59,0,4
1,68,0,6
1,68,70,25
1,62,70,1
1,59,70,0
1,59,0,179
1,62,0,3
1,68,0,5
1,62,70,52
1,68,70,1
1,59,70,0
1,59,0,189
1,62,0,5
1,68,0,1
1,68,70,44
1,62,70,1
1,59,70,0
1,56,0,26
1,52,0,58
1,59,0,36
1,59,55,0
1,55,42,0
1,55,0,12
1,68,0,1
1,62,0,21
1,59,0,1
1,55,48,24
1,59,54,1
1,55,0,18
1,59,0,7
1,62,70,34
1,67,70,1
1,59,70,0
1,59,0,119
1,59,53,1
1,55,44,0
1,67,0,74
1,62,0,1
1,59,0,44
1,67,70,1
1,62,70,0
1,59,70,0
1,55,0,94
1,67,0,25
1,52,46,1
1,56,43,0
1,62,0,5
1,59,0,2
1,52,0,10
1,56,0,1
1,56,54,41
1,52,57,1
1,52,0,32
1,56,0,1
1,62,70,26
1,68,70,1
1,59,70,0
1,56,51,119
1,52,54,1
1,59,0,66
1,62,0,3
1,68,0,9
1,62,70,41
1,68,70,1
1,59,70,0
1,52,0,85
1,56,0,2
1,56,48,33
1,52,38,0
1,52,0,9
1,56,0,8
1,62,0,41
1,56,62,1
1,52,51,0
1,59,0,3
1,68,0,15
1,52,0,17
1,56,0,16
1,68,70,9
1,62,70,1
1,59,70,0
1,56,57,119
1,52,64,1
1,62,0,56
1,59,0,5
1,68,0,14
1,68,70,44
1,59,70,1
1,62,70,0
1,52,0,69
1,56,0,6
1,56,51,44
1,52,49,0
1,52,0,16
1,56,0,2
1,62,0,36
1,59,0,1
1,56,62,5
1,52,52,0
1,68,0,6
1,52,0,51
1,62,70,3
1,68,70,0
1,59,70,0
1,56,0,17
1,56,59,103
1,52,59,1
1,62,0,55
1,59,0,0
1,68,0,11
1,62,70,53
1,59,70,1
1,68,70,0
1,52,0,49
1,56,0,2
1,56,55,69
1,52,49,0
1,52,0,10
1,56,0,7
1,56,64,42
1,52,54,1
1,59,0,9
1,62,0,1
1,52,0,4
1,56,0,3
1,68,0,3
1,68,70,39
1,62,70,1
1,59,70,0
1,56,69,119
1,52,54,1
1,59,0,64
1,62,0,1
1,68,0,13
1,68,70,41
1,59,70,1
1,62,70,0
1,59,0,199
1,62,0,1
1,68,0,12
1,68,70,27
1,62,70,1
1,59,70,0
1,59,0,181
1,62,0,9
1,68,0,9
1,68,70,40
1,59,70,1
1,62,70,0
1,56,0,56
1,52,0,12
1,56,57,52
1,52,49,0
1,52,0,15
1,56,0,2
1,56,64,42
1,52,54,1
1,59,0,9
1,62,0,3
1,56,0,2
1,52,0,5
1,68,0,5
1,68,70,35
1,62,70,1
1,59,70,0
1,56,69,119
1,52,64,1
1,59,0,75
1,62,0,1
1,68,0,10
1,59,70,33
1,62,70,0
1,68,70,0
1,59,0,189
1,62,0,9
1,68,0,6
1,68,70,36
1,62,70,1
1,59,70,0
1,59,0,201
1,62,0,5
1,68,0,5
1,68,70,28
1,59,70,1
1,62,70,0
1,52,0,83
1,56,0,1
1,56,51,36
1,52,48,0
1,52,0,14
1,56,0,5
1,59,0,38
1,56,53,2
1,52,55,0
1,62,0,6
1,68,0,3
1,52,0,15
1,56,0,9
1,68,70,27
1,62,70,1
1,59,70,0
1,56,62,119
1,52,55,1
1,59,0,71
1,62,0,8
1,68,0,4
1,68,70,36
1,62,70,1
1,59,70,0
1,59,0,192
1,62,0,2
1,68,0,9
1,68,70,36
1,62,70,1
1,59,70,0
1,59,0,178
1,62,0,2
1,68,0,15
1,68,70,44
1,62,70,1
1,59,70,0
1,56,0,59
1,52,0,3
1,59,0,47
1,68,0,11
1,55,62,0
1,52,52,0
1,62,0,72
1,60,70,47
1,67,70,1
1,64,70,0
1,55,0,319
1,52,0,19
1,60,0,16
1,64,0,5
1,54,65,1
1,57,65,0
1,67,0,2
1,66,70,117
1,57,0,1
1,57,70,0
1,62,70,0
1,54,0,307
1,62,0,47
1,57,0,4
1,66,0,2
1,56,74,0
1,52,54,0
1,68,70,120
1,59,70,0
1,62,70,0
1,56,0,710
1,52,0,1
1,62,0,71
1,68,0,5
1,59,0,2
1,56,64,51
1,52,42,0
1,52,0,8
1,56,0,7
1,56,51,44
1,52,51,1
1,56,0,32
1,52,0,4
1,68,70,24
1,62,70,0
1,59,70,0
1,56,50,119
1,52,49,1
1,62,0,58
1,59,0,2
1,68,0,6
1,68,70,53
1,59,70,1
1,62,70,0
1,59,0,198
1,62,0,5
1,68,0,3
1,68,70,33
1,62,70,1
1,59,70,0
1,59,0,197
1,62,0,2
1,68,0,10
1,59,70,30
1,62,70,0
1,68,70,0
1,52,0,72
1,56,0,8
1,56,54,41
1,52,50,0
1,52,0,16
1,56,0,6
1,56,59,37
1,52,53,1
1,62,0,4
1,59,0,0
1,68,0,6
1,52,0,18
1,56,0,1
1,68,70,30
1,62,70,1
1,59,70,0
1,56,64,119
1,52,55,1
1,59,0,75
1,62,0,4
1,68,0,4
1,68,70,36
1,59,70,1
1,62,70,0
1,62,0,195
1,59,0,0
1,68,0,6
1,68,70,38
1,59,70,0
1,62,70,0
1,62,0,181
1,59,0,2
1,68,0,8
1,68,70,49
1,59,70,1
1,62,70,0
1,56,0,27
1,52,0,57
1,68,0,32
1,59,0,4
1,62,0,0
1,59,55,0
1,55,42,0
1,55,0,11
1,59,0,8
1,55,48,40
1,59,54,1
1,55,0,18
1,59,0,7
1,62,70,34
1,59,70,1
1,67,70,0
1,59,0,119
1,59,53,1
1,55,44,0
1,62,0,69
1,67,0,3
1,62,70,47
1,59,0,1
1,67,70,0
1,59,70,0
1,55,0,94
1,52,46,25
1,56,43,0
1,52,0,17
1,56,0,1
1,67,0,10
1,59,0,4
1,62,0,1
1,56,54,27
1,52,57,1
1,52,0,31
1,56,0,2
1,68,70,27
1,59,70,0
1,62,70,0
1,56,51,119
1,52,54,1
1,59,0,67
1,62,0,1
1,68,0,5
1,62,70,46
1,59,70,1
1,68,70,0
1,52,0,85
1,56,0,1
1,56,48,34
1,52,38,0
1,52,0,9
1,56,0,7
1,56,62,43
1,52,51,0
1,59,0,21
1,62,0,1
1,68,0,5
1,52,0,8
1,56,0,16
1,62,70,9
1,68,70,1
1,59,70,0
1,56,57,119
1,52,64,1
1,59,0,65
1,62,0,1
1,68,0,7
1,62,70,46
1,59,70,1
1,68,70,0
1,52,0,69
1,56,0,6
1,56,51,44
1,52,49,0
1,52,0,16
1,56,0,1
1,56,62,43
1,52,52,1
1,62,0,11
1,59,0,2
1,68,0,7
1,52,0,35
1,68,70,4
1,59,70,0
1,62,70,0
1,56,0,16
1,56,59,104
1,52,59,1
1,62,0,67
1,59,0,3
1,68,0,5
1,59,70,44
1,62,70,0
1,68,70,0
1,52,0,50
1,56,0,2
1,56,55,69
1,52,49,0
1,52,0,10
1,56,0,6
1,56,64,43
1,52,54,1
1,62,0,5
1,59,0,1
1,52,0,8
1,68,0,0
1,56,0,2
1,62,70,43
1,68,70,1
1,59,70,0
1,56,69,119
1,52,54,1
1,59,0,75
1,62,0,4
1,68,0,4
1,68,70,36
1,59,70,1
1,62,70,0
1,59,0,188
1,62,0,1
1,68,0,6
1,68,70,44
1,59,70,1
1,62,70,0
1,62,0,208
1,59,0,3
1,68,0,8
1,68,70,20
1,59,70,1
1,62,70,0
1,56,0,56
1,52,0,11
1,56,57,53
1,52,49,0
1,52,0,15
1,56,0,1
1,56,64,43
1,52,54,1
1,56,0,14
1,52,0,5
1,59,0,4
1,62,0,1
1,68,0,4
1,68,70,31
1,62,70,1
1,59,70,0
1,56,69,119
1,52,64,1
1,59,0,84
1,62,0,3
1,68,0,6
1,59,70,26
1,62,70,0
1,68,70,0
1,59,0,201
1,62,0,1
1,68,0,9
1,68,70,29
1,62,70,1
1,59,70,0
1,59,0,200
1,62,0,7
1,68,0,2
1,59,70,30
1,68,70,0
1,62,70,0
1,52,0,83
1,56,0,2
1,56,51,36
1,52,48,0
1,52,0,14
1,56,0,5
1,56,53,40
1,52,55,0
1,59,0,12
1,68,0,5
1,62,0,1
1,52,0,5
1,56,0,9
1,68,70,28
1,62,70,1
1,59,70,0
1,56,62,119
1,52,55,1
1,59,0,76
1,62,0,1
1,68,0,6
1,68,70,36
1,62,70,1
1,59,70,0
1,59,0,194
1,62,0,5
1,68,0,4
1,68,70,36
1,59,70,1
1,62,70,0
1,59,0,204
1,62,0,2
1,68,0,4
1,68,70,29
1,62,70,1
1,59,70,0
1,56,0,59
1,52,0,2
1,59,0,18
1,68,0,4
1,62,0,17
1,64,70,20
1,60,70,0
1,67,70,0
1,55,62,0
1,52,52,0
1,60,0,401
1,67,0,18
1,64,0,8
1,55,0,12
1,52,0,19
1,66,70,21
1,62,70,1
1,54,65,0
1,57,65,0
1,54,0,426
1,57,0,4
1,66,0,15
1,62,0,7
1,59,70,28
1,56,74,0
1,52,54,0
1,62,70,0
1,68,70,0
1,68,0,792
1,62,0,1
1,59,0,6
1,56,0,31
1,52,0,2
1,50,49,128
1,56,40,0
1,68,70,119
1,59,70,1
1,62,70,0
1,59,0,11
1,68,0,0
1,68,70,0
1,59,70,0
1,62,0,2
1,62,70,0
1,50,0,37
1,56,0,1
1,56,62,68
1,50,48,1
1,62,0,80
1,59,0,3
1,68,0,5
1,59,70,32
1,62,70,0
1,68,70,0
1,59,0,4
1,59,70,0
1,62,0,1
1,62,70,0
1,50,0,66
1,56,0,7
1,56,55,41
1,50,47,0
1,50,0,15
1,56,0,11
1,56,57,34
1,50,46,0
1,59,0,16
1,62,0,9
1,68,0,1
1,68,70,34
1,50,0,1
1,59,70,0
1,62,70,0
1,56,0,1
1,68,0,2
1,68,70,0
1,59,0,1
1,59,70,0
1,62,0,1
1,62,70,0
1,56,69,114
1,50,45,1
1,59,0,73
1,62,0,7
1,68,0,8
1,68,70,31
1,62,70,0
1,59,70,0
1,68,0,3
1,68,70,0
1,62,0,2
1,62,70,0
1,59,0,1
1,59,70,0
1,50,0,68
1,56,0,6
1,56,57,41
1,50,51,0
1,59,0,84
1,62,0,2
1,68,0,4
1,59,70,30
1,62,70,0
1,68,70,2
1,62,0,3
1,59,0,0
1,59,70,0
1,62,70,0
1,50,0,50
1,56,0,23
1,56,53,41
1,50,49,0
1,59,0,70
1,62,0,9
1,68,0,1
1,68,70,40
1,62,70,1
1,59,70,0
1,50,0,52
1,56,0,11
1,56,50,56
1,50,45,1
1,50,0,15
1,56,0,11
1,56,54,33
1,50,49,0
1,59,0,6
1,62,0,2
1,68,0,4
1,68,70,48
1,59,70,1
1,62,70,0
1,50,0,35
1,56,0,23
1,56,65,61
1,50,53,1
1,59,0,78
1,62,0,9
1,68,0,3
1,68,70,29
1,62,70,1
1,59,70,0
1,68,0,4
1,68,70,0
1,62,0,1
1,59,0,0
1,62,70,0
1,59,70,1
1,50,0,41
1,56,0,22
1,56,53,51
1,50,48,0
1,50,0,15
1,56,0,7
1,56,50,37
1,50,49,0
1,59,0,17
1,62,0,11
1,68,0,2
1,68,70,30
1,62,70,0
1,59,70,0
1,68,0,3
1,68,70,1
1,62,0,1
1,62,70,0
1,59,0,1
1,59,70,0
1,50,0,80
1,56,0,3
1,56,59,31
1,50,49,1
1,59,0,69
1,62,0,11
1,68,0,3
1,68,70,32
1,68,0,4
1,68,70,0
1,59,70,1
1,62,70,0
1,50,0,81
1,56,0,5
1,56,64,33
1,50,50,0
1,59,0,87
1,62,0,8
1,68,0,1
1,68,70,24
1,62,70,1
1,59,70,0
1,59,0,5
1,68,0,0
1,62,0,0
1,68,70,0
1,62,70,0
1,59,70,0
1,50,0,65
1,56,0,8
1,56,62,41
1,50,49,0
1,59,0,76
1,62,0,8
1,68,0,5
1,62,70,31
1,59,70,0
1,68,70,3
1,62,0,1
1,62,70,0
1,59,0,1
1,59,70,0
1,50,0,62
1,56,0,12
1,56,64,42
1,50,52,0
1,59,0,74
1,62,0,5
1,68,0,1
1,68,70,40
1,59,70,0
1,62,70,0
1,50,0,69
1,56,0,7
1,56,64,43
1,50,55,1
1,59,0,84
1,62,0,1
1,68,0,8
1,68,70,26
1,62,70,3
1,59,70,0
1,56,0,57
1,50,0,7
1,56,62,53
1,50,49,0
1,50,0,22
1,56,0,4
1,56,57,34
1,50,54,0
1,59,0,20
1,62,0,8
1,68,0,4
1,68,70,28
1,59,70,0
1,62,70,2
1,68,0,2
1,68,70,0
1,59,0,1
1,59,70,0
1,50,0,87
1,56,0,8
1,56,55,20
1,50,51,1
1,59,0,80
1,62,0,4
1,68,0,5
1,68,70,30
1,59,70,1
1,62,70,0
1,62,0,3
1,62,70,0
1,50,0,83
1,56,0,1
1,56,62,33
1,50,51,0
1,59,0,66
1,62,0,13
1,68,0,1
1,62,70,40
1,68,70,0
1,59,70,0
1,50,0,79
1,56,0,10
1,56,54,30
1,50,52,0
1,59,0,80
1,68,0,7
1,62,0,1
1,68,70,28
1,62,70,1
1,68,0,3
1,68,70,0
1,62,0,1
1,59,70,0
1,62,70,0
1,50,0,67
1,56,0,6
1,56,53,46
1,50,51,1
1,50,0,19
1,56,0,6
1,50,53,34
1,56,59,1
1,59,0,17
1,68,0,15
1,62,0,1
1,59,70,26
1,68,70,2
1,62,70,0
1,59,0,3
1,59,70,0
1,50,0,31
1,56,0,30
1,50,53,54
1,56,65,1
1,59,0,81
1,68,0,9
1,62,0,0
1,59,70,30
1,62,70,1
1,68,70,1
1,59,0,2
1,59,70,0
1,50,0,83
1,56,0,1
1,56,57,32
1,50,50,0
1,59,0,75
1,68,0,9
1,62,0,3
1,62,70,32
1,68,70,0
1,59,70,0
1,68,0,5
1,62,0,0
1,62,70,0
1,68,70,0
1,59,0,1
1,59,70,0
1,50,0,61
1,56,0,9
1,56,59,44
