track,note,velocity,time
1,50,122,13824
1,38,98,188
1,50,113,44
1,38,110,20
1,50,102,14
1,43,119,32
1,44,98,20
1,45,105,22
1,48,98,8
1,45,110,128
1,33,100,32
1,45,105,22
1,33,102,32
1,45,100,18
1,48,107,90
1,48,105,124
1,49,98,40
1,49,98,72
1,50,122,96
1,38,98,188
1,50,113,44
1,38,110,20
1,50,102,14
1,43,119,32
1,44,98,20
1,45,105,22
1,48,98,8
1,45,110,128
1,33,100,32
1,45,105,22
1,33,102,32
1,45,100,18
1,48,107,90
1,48,105,124
1,49,98,40
1,49,98,72
1,50,122,96
1,38,98,188
1,50,113,44
1,38,110,20
1,50,102,14
1,43,119,32
1,44,98,20
1,45,105,22
1,48,98,8
1,45,110,128
1,33,100,32
1,45,105,22
1,33,102,32
1,45,100,18
1,48,107,90
1,48,105,124
1,49,98,40
1,49,98,72
1,50,122,96
1,38,98,188
1,50,113,44
1,38,110,20
1,50,102,14
1,43,119,32
1,44,98,20
1,45,105,22
1,48,98,8
1,45,110,128
1,33,100,32
1,45,105,22
1,33,102,32
1,45,100,18
1,48,107,90
1,48,105,124
1,49,98,40
1,49,98,72
1,50,122,96
1,38,98,188
1,50,113,44
1,38,110,20
1,50,102,14
1,43,119,32
1,44,98,20
1,45,105,22
1,48,98,8
1,45,110,128
1,33,100,32
1,45,105,22
1,33,102,32
1,45,100,18
1,48,107,90
1,48,105,124
1,49,98,40
1,49,98,72
1,50,122,96
1,38,98,188
1,50,113,44
1,38,110,20
1,50,102,14
1,43,119,32
1,44,98,20
1,45,105,22
1,48,98,8
1,45,110,128
1,33,100,32
1,45,105,22
1,33,102,32
1,45,100,18
1,48,107,90
1,48,105,124
1,49,98,40
1,49,98,72
1,50,122,96
1,38,98,188
1,50,113,44
1,38,110,20
1,50,102,14
1,43,119,32
1,44,98,20
1,45,105,22
1,48,98,8
1,45,110,128
1,33,100,32
1,45,105,22
1,33,102,32
1,45,100,18
1,48,107,90
1,48,105,124
1,49,98,40
1,49,98,72
1,50,122,96
1,38,98,192
1,50,113,8
1,38,110,52
1,50,102,14
1,43,119,32
1,44,98,20
1,45,105,22
1,48,98,8
1,45,102,140
1,43,87,94
1,45,105,20
1,43,105,300
1,45,100,20
1,52,105,88
1,50,127,100
1,52,98,6
1,53,105,192
1,55,113,18
1,31,116,76
1,50,102,56
1,43,87,172
1,50,80,16
1,43,102,96
1,48,87,26
1,43,100,198
1,45,91,6
1,43,89,28
1,33,110,92
1,52,105,290
1,45,76,118
1,52,87,32
1,45,87,96
1,50,82,30
1,45,95,192
1,48,95,12
1,43,89,8
1,31,116,112
1,55,98,402
1,50,87,82
1,43,105,80
1,50,102,42
1,43,98,200
1,48,82,16
1,43,85,200
1,46,89,20
1,45,85,100
1,38,105,56
1,33,98,0
1,45,91,38
1,33,105,192
1,45,91,48
1,43,98,0
1,40,95,196
1,33,102,158
1,31,116,56
1,50,102,10
1,43,87,32
1,50,80,16
1,43,102,96
1,48,87,26
1,43,100,198
1,45,91,6
1,43,89,28
1,33,110,92
1,52,105,290
1,45,76,118
1,52,87,32
1,45,87,96
1,50,82,30
1,45,95,192
1,48,95,12
1,43,89,8
1,34,107,110
1,38,105,120
1,46,105,10
1,45,85,8
1,43,87,194
1,41,100,12
1,38,107,8
1,36,119,80
1,36,119,272
1,48,102,4
1,46,95,72
1,45,105,14
1,43,87,206
1,41,95,20
1,50,122,78
1,38,98,188
1,50,113,44
1,38,110,20
1,50,102,14
1,43,119,32
1,44,98,20
1,45,105,22
1,48,98,8
1,45,110,128
1,33,100,32
1,45,105,22
1,33,102,32
1,45,100,18
1,48,107,90
1,48,105,124
1,49,98,40
1,49,98,72
1,50,122,96
1,38,98,188
1,50,113,44
1,38,110,20
1,50,102,14
1,43,119,32
1,44,98,20
1,45,105,22
1,48,98,8
1,45,110,128
1,33,100,32
1,45,105,22
1,33,102,32
1,45,100,18
1,48,107,90
1,48,105,124
1,49,98,40
1,49,98,72
1,50,122,96
1,38,98,188
1,50,113,44
1,38,110,20
1,50,102,14
1,43,119,32
1,44,98,20
1,45,105,22
1,48,98,8
1,45,110,128
1,33,100,32
1,45,105,22
1,33,102,32
1,45,100,18
1,48,107,90
1,48,105,124
1,49,98,40
1,49,98,72
1,50,122,96
1,38,98,188
1,50,113,44
1,38,110,20
1,50,102,14
1,43,119,32
1,44,98,20
1,45,105,22
1,48,98,8
1,45,110,128
1,33,100,32
1,45,105,22
1,33,102,32
1,45,100,18
1,48,107,90
1,48,105,124
1,49,98,40
1,49,98,72
1,50,122,96
1,38,98,188
1,50,113,44
1,38,110,20
1,50,102,14
1,43,119,32
1,44,98,20
1,45,105,22
1,48,98,8
1,45,110,128
1,33,100,32
1,45,105,22
1,33,102,32
1,45,100,18
1,48,107,90
1,48,105,124
1,49,98,40
1,49,98,72
1,50,122,96
1,38,98,188
1,50,113,44
1,38,110,20
1,50,102,14
1,43,119,32
1,44,98,20
1,45,105,22
1,48,98,8
1,45,110,128
1,33,100,32
1,45,105,22
1,33,102,32
1,45,100,18
1,48,107,90
1,48,105,124
1,49,98,40
1,49,98,72
1,50,122,96
1,38,98,188
1,50,113,44
1,38,110,20
1,50,102,14
1,43,119,32
1,44,98,20
1,45,105,22
1,48,98,8
1,45,110,128
1,33,100,32
1,45,105,22
1,33,102,32
1,45,100,18
1,48,107,90
1,48,105,124
1,49,98,40
1,49,98,72
1,50,122,96
1,38,98,192
1,50,113,8
1,38,110,52
1,50,102,14
1,43,119,32
1,44,98,20
1,45,105,22
1,48,98,8
1,45,102,140
1,43,87,94
1,45,105,20
1,43,105,300
1,45,100,20
1,52,105,88
1,50,127,100
1,52,98,6
1,53,105,192
1,55,113,18
1,31,116,76
1,50,102,56
1,43,87,172
1,50,80,16
1,43,102,96
1,48,87,26
1,43,100,198
1,45,91,6
1,43,89,28
1,33,110,92
1,52,105,290
1,45,76,118
1,52,87,32
1,45,87,96
1,50,82,30
1,45,95,192
1,48,95,12
1,43,89,8
1,31,116,112
1,55,98,402
1,50,87,82
1,43,105,80
1,50,102,42
1,43,98,200
1,48,82,16
1,43,85,200
1,46,89,20
1,45,85,100
1,38,105,56
1,33,98,0
1,45,91,38
1,33,105,192
1,45,91,48
1,43,98,0
1,40,95,196
1,33,102,158
1,31,116,56
1,50,102,10
1,43,87,32
1,50,80,16
1,43,102,96
1,48,87,26
1,43,100,198
1,45,91,6
1,43,89,28
1,33,110,92
1,52,105,290
1,45,76,118
1,52,87,32
1,45,87,96
1,50,82,30
1,45,95,192
1,48,95,12
1,43,89,8
1,34,107,110
1,38,105,120
1,46,105,10
1,45,85,8
1,43,87,194
1,41,100,12
1,38,107,8
1,36,119,80
1,36,119,272
1,48,102,4
1,46,95,72
1,45,105,14
1,43,87,206
1,41,95,20
1,50,122,78
1,38,98,188
1,50,113,44
1,38,110,20
1,50,102,14
1,43,119,32
1,44,98,20
1,45,105,22
1,48,98,8
1,45,110,128
1,33,100,32
1,45,105,22
1,33,102,32
1,45,100,18
1,48,107,90
1,48,105,124
1,49,98,40
1,49,98,72
1,50,122,96
1,38,98,188
1,50,113,44
1,38,110,20
1,50,102,14
1,43,119,32
1,44,98,20
1,45,105,22
1,48,98,8
1,45,110,128
1,33,100,32
1,45,105,22
1,33,102,32
1,45,100,18
1,48,107,90
1,48,105,124
1,49,98,40
1,49,98,72
1,50,122,96
1,38,98,188
1,50,113,44
1,38,110,20
1,50,102,14
1,43,119,32
1,44,98,20
1,45,105,22
1,48,98,8
1,45,110,128
1,33,100,32
1,45,105,22
1,33,102,32
1,45,100,18
1,48,107,90
1,48,105,124
1,49,98,40
1,49,98,72
1,50,122,96
1,38,98,188
1,50,113,44
1,38,110,20
1,50,102,14
1,43,119,32
1,44,98,20
1,45,105,22
1,48,98,8
1,45,110,128
1,33,100,32
1,45,105,22
1,33,102,32
1,45,100,18
1,48,107,90
1,48,105,124
1,49,98,40
1,49,98,72
1,38,127,96
1,26,110,12144
1,38,105,20
1,26,110,150
1,38,107,24
1,50,122,17782
1,38,98,188
1,50,113,44
1,38,110,20
1,50,102,14
1,43,119,32
1,44,98,20
1,45,105,22
1,48,98,8
1,45,110,128
1,33,100,32
1,45,105,22
1,33,102,32
1,45,100,18
1,48,107,90
1,48,105,124
1,49,98,40
1,49,98,72
1,50,122,96
1,38,98,188
1,50,113,44
1,38,110,20
1,50,102,14
1,43,119,32
1,44,98,20
1,45,105,22
1,48,98,8
1,45,110,128
1,33,100,32
1,45,105,22
1,33,102,32
1,45,100,18
1,48,107,90
1,48,105,124
1,49,98,40
1,49,98,72
1,50,122,96
1,38,98,188
1,50,113,44
1,38,110,20
1,50,102,14
1,43,119,32
1,44,98,20
1,45,105,22
1,48,98,8
1,45,110,128
1,33,100,32
1,45,105,22
1,33,102,32
1,45,100,18
1,48,107,90
1,48,105,124
1,49,98,40
1,49,98,72
1,50,122,96
1,38,98,188
1,50,113,44
1,38,110,20
1,50,102,14
1,43,119,32
1,44,98,20
1,45,105,22
1,48,98,8
1,45,110,128
1,33,100,32
1,45,105,22
1,33,102,32
1,45,100,18
1,48,107,90
1,48,105,124
1,49,98,40
1,49,98,72
1,50,122,96
1,38,98,188
1,50,113,44
1,38,110,20
1,50,102,14
1,43,119,32
1,44,98,20
1,45,105,22
1,48,98,8
1,45,110,128
1,33,100,32
1,45,105,22
1,33,102,32
1,45,100,18
1,48,107,90
1,48,105,124
1,49,98,40
1,49,98,72
1,50,122,96
1,38,98,188
1,50,113,44
1,38,110,20
1,50,102,14
1,43,119,32
1,44,98,20
1,45,105,22
1,48,98,8
1,45,110,128
1,33,100,32
1,45,105,22
1,33,102,32
1,45,100,18
1,48,107,90
1,48,105,124
1,49,98,40
1,49,98,72
1,50,122,96
1,38,98,188
1,50,113,44
1,38,110,20
1,50,102,14
1,43,119,32
1,44,98,20
1,45,105,22
1,48,98,8
1,45,110,128
1,33,100,32
1,45,105,22
1,33,102,32
1,45,100,18
1,48,107,90
1,48,105,124
1,49,98,40
1,49,98,72
1,50,122,96
1,38,98,188
1,50,113,44
1,38,110,20
1,50,102,14
1,43,119,32
1,44,98,20
1,45,105,22
1,48,98,8
1,45,110,128
1,33,100,32
1,45,105,22
1,33,102,32
1,45,100,18
1,48,107,90
1,48,105,124
1,49,98,40
1,49,98,72
1,38,127,96
1,50,122,12158
1,38,98,188
1,50,113,44
1,38,110,20
1,50,102,14
1,43,119,32
1,44,98,20
1,45,105,22
1,48,98,8
1,45,110,128
1,33,100,32
1,45,105,22
1,33,102,32
1,45,100,18
1,48,107,90
1,48,105,124
1,49,98,40
1,49,98,72
1,50,122,96
1,38,98,188
1,50,113,44
1,38,110,20
1,50,102,14
1,43,119,32
1,44,98,20
1,45,105,22
1,48,98,8
1,45,110,128
1,33,100,32
1,45,105,22
1,33,102,32
1,45,100,18
1,48,107,90
1,48,105,124
1,49,98,40
1,49,98,72
1,50,122,96
1,38,98,188
1,50,113,44
1,38,110,20
1,50,102,14
1,43,119,32
1,44,98,20
1,45,105,22
1,48,98,8
1,45,110,128
1,33,100,32
1,45,105,22
1,33,102,32
1,45,100,18
1,48,107,90
1,48,105,124
1,49,98,40
1,49,98,72
1,50,122,96
1,38,98,188
1,50,113,44
1,38,110,20
1,50,102,14
1,43,119,32
1,44,98,20
1,45,105,22
1,48,98,8
1,45,110,128
1,33,100,32
1,45,105,22
1,33,102,32
1,45,100,18
1,48,107,90
1,48,105,124
1,49,98,40
1,49,98,72
1,38,127,96
2,60,110,2624
2,62,105,18
2,65,70,38
2,67,116,40
2,67,119,46
2,67,110,130
2,65,110,124
2,62,107,0
2,65,119,42
2,67,113,38
2,65,119,1670
2,67,107,38
2,69,107,42
2,72,107,94
2,69,107,40
2,67,95,8
2,65,105,64
2,67,110,1038
2,65,102,272
2,64,107,70
2,65,93,20
2,64,107,80
2,60,100,16
2,62,110,96
2,74,127,980
2,74,127,158
2,67,107,120
2,65,105,14
2,74,110,200
2,69,116,0
2,77,113,0
2,72,110,0
2,65,102,8
2,64,89,10
2,62,102,422
2,65,100,4
2,60,93,4
2,69,80,4
2,62,100,214
2,65,102,4
2,60,93,4
2,69,100,6
2,72,95,1940
2,69,78,4
2,72,113,242
2,69,100,4
2,65,105,1476
2,62,95,2
2,69,98,6
2,60,93,2
2,60,93,1104
2,62,87,78
2,62,100,140
2,60,95,6
2,62,100,302
2,65,98,4
2,69,100,4
2,60,95,2
2,69,105,240
2,62,102,4
2,60,95,4
2,65,91,4
2,67,122,1764
2,65,116,14
2,67,122,122
2,65,122,40
2,77,127,112
2,74,110,0
2,69,116,0
2,77,113,0
2,72,110,0
2,77,127,2928
2,74,110,0
2,69,116,0
2,77,113,0
2,72,110,0
2,77,127,2928
2,74,110,0
2,69,116,0
2,77,113,0
2,72,110,0
2,57,113,6000
2,65,113,0
2,62,119,0
2,58,107,0
2,64,110,704
2,60,105,0
2,67,105,0
2,55,105,0
2,57,105,0
2,57,113,720
2,65,113,0
2,62,119,0
2,58,107,0
2,67,110,704
2,65,91,288
2,64,102,8
2,62,110,288
2,65,100,232
2,57,100,96
2,62,98,26
2,60,98,96
2,57,113,14
2,57,113,76
2,65,113,0
2,62,119,0
2,58,107,0
2,64,110,704
2,60,105,0
2,67,105,0
2,55,105,0
2,57,105,0
2,65,102,730
2,62,89,4
2,69,95,2
2,65,93,116
2,69,95,4
2,62,80,4
2,69,110,22
2,62,110,58
2,74,110,120
2,69,116,0
2,77,113,0
2,72,110,0
2,64,78,2150
2,70,89,0
2,67,98,0
2,70,98,138
2,67,102,0
2,64,93,0
2,70,105,128
2,67,110,0
2,64,100,0
2,62,107,328
2,69,107,0
2,65,105,0
2,60,100,0
2,60,107,2994
2,65,107,0
2,62,113,0
2,69,107,0
2,60,113,2988
2,62,110,0
2,65,113,0
2,69,113,0
2,77,127,2968
2,74,110,0
2,69,116,0
2,77,113,0
2,72,110,0
2,77,127,2928
2,74,110,0
2,69,116,0
2,77,113,0
2,72,110,0
2,77,127,2928
2,74,110,0
2,69,116,0
2,77,113,0
2,72,110,0
2,57,113,6000
2,65,113,0
2,62,119,0
2,58,107,0
2,64,110,704
2,60,105,0
2,67,105,0
2,55,105,0
2,57,105,0
2,57,113,720
2,65,113,0
2,62,119,0
2,58,107,0
2,67,110,704
2,65,91,288
2,64,102,8
2,62,110,288
2,65,100,232
2,57,100,96
2,62,98,26
2,60,98,96
2,57,113,14
2,57,113,76
2,65,113,0
2,62,119,0
2,58,107,0
2,64,110,704
2,60,105,0
2,67,105,0
2,55,105,0
2,57,105,0
2,65,102,730
2,62,89,4
2,69,95,2
2,65,93,116
2,69,95,4
2,62,80,4
2,69,110,22
2,62,110,58
2,74,110,120
2,69,116,0
2,77,113,0
2,72,110,0
2,64,78,2150
2,70,89,0
2,67,98,0
2,70,98,138
2,67,102,0
2,64,93,0
2,70,105,128
2,67,110,0
2,64,100,0
2,62,107,328
2,69,107,0
2,65,105,0
2,60,100,0
2,60,107,2994
2,65,107,0
2,62,113,0
2,69,107,0
2,60,113,2988
2,62,110,0
2,65,113,0
2,69,113,0
2,74,110,2968
2,69,116,0
2,77,113,0
2,72,110,0
2,64,78,2150
2,70,89,0
2,67,98,0
2,70,98,138
2,67,102,0
2,64,93,0
2,70,105,128
2,67,110,0
2,64,100,0
2,62,107,328
2,69,107,0
2,65,105,0
2,60,100,0
2,60,107,2994
2,65,107,0
2,62,113,0
2,69,107,0
2,60,113,2988
2,62,110,0
2,65,113,0
2,69,113,0
2,64,105,1432
2,69,110,0
2,57,116,0
2,86,110,0
2,74,107,0
2,74,127,424
2,72,110,10
2,69,105,124
2,68,110,122
2,67,110,116
2,65,105,22
2,62,119,24
2,65,102,40
2,67,95,70
2,69,119,290
2,67,107,124
2,67,110,136
2,67,105,134
2,65,102,14
2,62,102,32
2,65,105,40
2,67,110,26
2,65,98,8
2,62,98,42
2,67,110,60
2,65,98,22
2,62,87,12
2,67,116,58
2,65,87,12
2,62,87,12
