track,note,velocity,time
1,36,127,1544
1,36,127,228
1,36,127,64
1,36,127,70
1,36,127,48
1,36,127,54
1,36,127,244
1,36,124,50
1,36,120,36
1,36,124,50
1,36,127,66
1,38,127,230
1,38,124,66
1,38,120,68
1,40,127,68
1,40,120,48
1,40,120,34
1,38,127,118
1,38,124,18
1,38,104,34
1,36,127,86
1,31,127,596
1,31,127,226
1,31,127,66
1,31,127,146
1,36,124,148
1,40,127,32
1,43,127,48
1,36,120,32
1,40,124,32
1,43,127,578
1,36,120,50
1,40,120,52
1,43,127,48
1,36,127,48
1,40,127,16
1,43,127,50
1,36,116,36
1,40,116,34
1,43,124,18
1,36,124,16
1,40,124,50
1,43,124,50
1,31,127,100
1,35,127,48
1,38,127,80
1,31,124,18
1,35,127,64
1,38,127,52
1,36,124,62
1,40,127,18
1,43,116,36
1,36,112,36
1,40,120,578
1,43,124,50
1,29,116,182
1,33,124,42
1,36,116,52
1,29,116,52
1,33,120,4
1,36,116,578
1,36,116,72
1,40,120,52
1,43,120,36
1,31,124,72
1,35,127,68
1,38,127,36
1,36,127,152
1,38,127,216
1,38,124,50
1,38,127,52
1,40,127,166
1,40,124,52
1,40,127,68
1,40,127,52
1,38,127,54
1,38,127,50
1,38,127,68
1,38,127,66
1,36,127,56
1,31,127,644
1,31,127,210
1,31,120,50
1,31,127,146
1,36,124,148
1,40,127,32
1,43,127,48
1,36,120,34
1,40,124,34
1,43,127,576
1,36,120,50
1,40,120,48
1,43,127,48
1,36,127,48
1,40,127,16
1,43,127,50
1,36,116,36
1,40,116,32
1,43,124,18
1,36,124,16
1,40,124,50
1,43,124,50
1,31,127,100
1,35,127,48
1,38,127,80
1,31,124,18
1,35,127,66
1,38,127,52
1,36,124,58
1,40,127,18
1,43,116,36
1,36,112,36
1,40,120,576
1,43,124,50
1,29,116,182
1,33,124,40
1,36,116,52
1,29,116,52
1,33,120,4
1,36,116,578
1,36,116,72
1,40,120,52
1,43,120,36
1,31,124,72
1,35,127,70
1,38,127,38
1,36,127,152
1,38,127,88
1,40,127,90
1,38,127,58
1,36,127,58
1,36,127,358
1,36,127,196
1,36,127,50
1,36,127,118
1,31,116,72
1,35,124,52
1,38,120,68
1,31,116,36
1,35,124,20
1,38,120,36
1,36,120,38
1,40,127,52
1,43,127,20
1,36,120,36
1,40,124,38
1,43,127,576
1,31,116,152
1,35,124,52
1,38,120,70
1,31,116,36
1,35,124,20
1,38,120,38
1,36,120,36
1,40,127,54
1,43,127,20
1,36,120,36
1,40,124,38
1,43,127,574
1,31,116,150
1,35,124,52
1,38,120,68
1,31,116,36
1,35,124,20
1,38,120,36
1,36,120,36
1,40,127,52
1,43,127,20
1,36,120,36
1,40,124,38
1,43,127,576
1,33,127,156
1,36,127,52
1,40,127,84
1,38,127,56
1,42,127,22
1,45,127,86
1,38,127,46
1,41,127,38
1,45,127,54
1,43,127,108
1,43,127,96
1,41,127,96
1,41,127,98
1,40,127,98
1,40,127,84
1,38,127,98
1,38,127,0
1,36,124,200
1,40,127,32
1,43,127,48
1,36,120,32
1,40,124,36
1,43,127,576
1,36,120,50
1,40,120,48
1,43,127,48
1,36,127,48
1,40,127,18
1,43,127,50
1,36,116,36
1,40,116,32
1,43,124,18
1,36,124,16
1,40,124,48
1,43,124,50
1,31,127,100
1,35,127,48
1,38,127,80
1,31,124,18
1,35,127,64
1,38,127,54
1,36,124,66
1,40,127,20
1,43,116,38
1,36,112,36
1,40,120,576
1,43,124,52
1,29,116,180
1,33,124,42
1,36,116,52
1,29,116,52
1,33,120,4
1,36,116,578
1,36,116,72
1,40,120,52
1,43,120,36
1,31,124,72
1,35,127,68
1,38,127,36
1,36,127,154
1,38,127,88
1,40,127,90
1,38,127,58
1,36,127,58
1,36,127,356
1,36,127,198
1,36,127,52
1,36,127,118
1,31,116,72
1,35,124,52
1,38,120,68
1,31,116,36
1,35,124,22
1,38,120,36
1,36,120,36
1,40,127,52
1,43,127,18
1,36,120,36
1,40,124,38
1,43,127,572
1,31,116,160
1,35,124,52
1,38,120,68
1,31,116,34
1,35,124,20
1,38,120,36
1,36,120,38
1,40,127,52
1,43,127,18
1,36,120,36
1,40,124,38
1,43,127,574
1,31,116,158
1,35,124,54
1,38,120,68
1,31,116,36
1,35,124,20
1,38,120,36
1,36,120,36
1,40,127,52
1,43,127,20
1,36,120,36
1,40,124,38
1,43,127,574
1,33,127,160
1,36,127,52
1,40,127,84
1,38,127,60
1,42,127,24
1,45,127,86
1,38,127,46
1,41,127,40
1,45,127,54
1,43,127,108
1,43,127,98
1,41,127,100
1,41,127,98
1,40,127,100
1,40,127,82
1,38,127,98
1,38,127,2
1,36,124,202
1,40,127,32
1,43,127,48
1,36,120,32
1,40,124,34
1,43,127,576
1,36,120,50
1,40,120,46
1,43,127,50
1,36,127,48
1,40,127,18
1,43,127,50
1,36,116,36
1,40,116,34
1,43,124,18
1,36,124,18
1,40,124,50
1,43,124,50
1,31,127,98
1,35,127,48
1,38,127,80
1,31,124,18
1,35,127,64
1,38,127,52
1,36,124,58
1,40,127,20
1,43,116,36
1,36,112,36
1,40,120,576
1,43,124,52
1,29,116,182
1,33,124,40
1,36,116,52
1,29,116,52
1,33,120,4
1,36,116,576
1,36,116,72
1,40,120,52
1,43,120,36
1,31,124,72
1,35,127,68
1,38,127,36
1,36,127,152
1,38,127,102
1,40,127,88
1,38,127,40
1,36,127,90
1,40,127,84
1,43,127,84
1,31,127,168
1,35,127,84
1,38,127,84
1,31,127,86
1,35,127,100
1,38,127,68
1,36,127,74
1,38,127,104
1,40,127,90
1,38,127,42
1,36,127,90
1,40,127,84
1,43,127,84
1,31,127,168
1,35,127,86
1,38,127,82
1,31,127,88
1,35,127,100
1,38,127,66
1,36,127,74
1,38,127,74
1,40,127,74
1,38,127,40
1,36,127,38
1,38,127,54
1,40,127,42
1,38,127,88
1,36,127,56
1,38,127,56
1,40,127,54
1,38,127,56
1,36,127,56
1,36,127,198
1,36,127,248
1,36,127,52
1,36,127,134
1,36,127,120
2,72,88,1542
2,76,80,0
2,67,84,92
2,74,112,66
2,69,92,2
2,77,100,0
2,71,88,68
2,79,80,0
2,69,104,148
2,74,108,0
2,77,104,0
2,72,84,178
2,76,80,0
2,67,76,2
2,67,127,20
2,67,76,80
2,72,76,2
2,76,72,0
2,67,72,208
2,72,88,192
2,76,84,0
2,67,84,2
2,76,92,48
2,72,127,2
2,72,96,320
2,67,88,2
2,76,88,0
2,76,104,80
2,67,96,2
2,72,120,0
2,71,104,258
2,74,96,0
2,67,91,2
2,74,112,34
2,71,100,2
2,72,80,9362
2,67,72,2
2,76,72,0
2,69,92,82
2,74,104,0
2,77,84,2
2,76,100,80
2,71,84,2
2,79,80,0
2,77,92,74
2,69,84,2
2,74,108,0
2,67,84,132
2,72,92,0
2,76,84,0
2,67,112,290
2,67,76,130
2,72,76,0
2,76,72,0
2,67,72,208
2,72,88,192
2,67,84,2
2,76,84,0
2,72,127,50
2,76,92,0
2,67,88,322
2,72,96,0
2,76,88,0
2,76,104,80
2,67,96,2
2,72,120,0
2,71,104,256
2,67,91,2
2,74,96,0
2,74,112,34
2,71,100,2
2,72,116,9364
2,76,112,0
2,67,96,2
2,69,104,84
2,74,112,0
2,77,104,0
2,71,100,50
2,76,116,0
2,79,104,2
2,69,100,68
2,74,100,0
2,77,92,0
2,72,96,116
2,76,76,0
2,67,92,2
2,72,127,98
2,76,127,0
2,76,112,224
2,67,108,2
2,72,120,0
2,67,84,82
2,72,99,0
2,76,86,0
2,67,76,24580
2,72,76,0
2,76,72,2
2,67,72,208
2,72,88,192
2,67,84,2
2,76,84,0
2,76,92,48
2,72,127,2
2,72,96,322
2,76,88,0
2,67,88,2
2,76,104,80
2,67,96,2
2,72,120,0
2,71,104,258
2,74,96,0
2,67,91,2
2,74,112,36
2,71,100,2
2,76,112,9364
2,67,96,2
2,72,116,0
2,69,104,84
2,74,112,0
2,77,104,2
2,71,100,52
2,76,116,0
2,79,104,2
2,69,100,68
2,74,100,0
2,77,92,0
2,67,92,116
2,72,96,0
2,76,76,0
2,72,127,98
2,76,127,0
2,76,112,224
2,67,108,2
2,72,120,0
2,67,84,82
2,76,86,0
2,72,99,2
2,67,76,24578
2,72,76,2
2,76,72,0
2,67,72,208
2,72,88,192
2,76,84,0
2,67,84,2
2,76,92,48
2,72,127,2
2,72,96,320
2,67,88,2
2,76,88,0
2,76,104,80
2,67,96,2
2,72,120,0
2,71,104,258
2,74,96,0
2,67,91,2
2,74,112,34
2,71,100,2
2,72,127,9362
2,76,127,0
2,67,127,2
2,74,127,76
2,69,127,2
2,77,127,0
2,79,127,64
2,71,127,2
2,76,127,0
2,69,127,64
2,74,127,0
2,77,127,0
2,67,127,114
2,72,127,0
2,76,127,0
2,74,127,96
2,67,127,2
2,71,127,0
2,74,127,62
2,67,127,2
2,71,127,0
2,72,127,66
2,76,127,0
2,67,127,2
2,69,127,82
2,74,127,0
2,77,127,0
2,71,127,68
2,76,127,0
2,79,127,0
2,77,127,64
2,69,127,2
2,74,127,0
2,67,127,114
2,72,127,0
2,76,127,0
2,71,127,98
2,74,127,0
2,67,127,2
2,67,127,66
2,71,127,0
2,74,127,0
2,67,112,66
2,72,124,0
2,76,120,0
2,69,116,50
2,74,127,0
2,77,124,0
2,76,127,96
2,79,127,0
2,71,120,2
2,74,127,80
2,69,127,2
2,77,127,0
2,72,127,114
2,76,127,0
2,67,127,2
2,74,127,48
2,69,127,2
2,77,127,0
2,71,127,66
2,76,127,0
2,79,127,2
2,69,127,82
2,74,127,0
2,77,127,0
2,76,127,112
2,67,127,2
2,72,127,0
2,74,127,64
2,69,127,2
2,77,127,0
2,71,127,96
2,76,127,0
2,79,127,2
2,77,127,112
2,69,127,2
2,74,127,0
2,67,127,130
2,72,127,0
2,76,127,0
2,76,127,80
2,67,127,2
2,72,127,0
2,67,127,114
2,72,127,0
2,76,127,0
3,67,98,18444
3,72,106,0
3,64,86,2
3,71,127,114
3,69,127,324
3,65,127,2
3,69,127,84
3,67,122,194
3,64,114,2
3,62,106,52
3,67,127,0
3,72,106,15412
3,64,86,2
3,67,98,0
3,71,127,114
3,65,127,324
3,69,127,0
3,69,127,82
3,67,122,194
3,64,114,2
3,62,106,52
3,67,127,0
3,67,86,3122
3,71,102,0
3,67,98,64
3,64,117,2
3,69,127,64
3,67,127,384
3,69,127,174
3,67,127,0
3,69,127,0
3,67,127,20
3,67,86,0
3,71,102,0
3,64,117,64
3,67,98,0
3,69,127,64
3,67,127,384
3,69,127,176
3,67,127,0
3,69,127,0
3,67,127,16
3,71,102,0
3,67,86,2
3,67,98,64
3,64,117,2
3,69,127,64
3,67,127,388
3,69,127,172
3,67,127,0
3,69,127,0
3,67,127,16
3,57,94,2
3,72,102,0
3,69,98,2
3,66,106,36
3,69,94,0
3,62,86,2
3,65,106,228
3,69,122,0
3,72,118,2
3,67,94,54
3,71,74,0
3,55,74,92
3,67,98,12392
3,72,106,0
3,64,86,2
3,71,127,112
3,69,127,324
3,65,127,2
3,69,127,82
3,64,114,192
3,67,122,0
3,62,106,52
3,67,127,0
3,71,102,3118
3,67,86,2
3,64,117,64
3,67,98,0
3,69,127,64
3,67,127,384
3,69,127,176
3,67,127,0
3,69,127,0
3,67,127,18
3,67,86,8
3,71,102,0
3,64,117,66
3,67,98,0
3,69,127,64
3,67,127,384
3,69,127,178
3,67,127,0
3,69,127,2
3,67,127,16
3,67,86,8
3,71,102,0
3,64,117,66
3,67,98,0
3,69,127,64
3,67,127,384
3,69,127,176
3,67,127,0
3,69,127,2
3,67,127,16
3,72,102,0
3,57,94,2
3,69,98,0
3,66,106,36
3,69,94,0
3,62,86,2
3,69,122,228
3,65,106,2
3,72,118,0
3,67,94,54
3,71,74,0
3,55,74,88
3,67,98,12390
3,72,106,0
3,64,86,2
3,71,127,114
3,69,127,320
3,65,127,2
3,69,127,80
3,67,122,190
3,64,114,2
3,67,127,50
3,62,106,2
4,72,101,1538
4,60,117,2
4,67,105,0
4,76,69,0
4,48,121,2
4,72,125,92
4,76,113,0
4,48,117,2
4,60,117,0
4,67,109,0
4,72,105,0
4,48,105,0
4,60,101,0
4,48,105,0
4,76,101,0
4,67,97,0
4,72,113,0
4,60,65,0
4,76,105,0
4,48,109,0
4,72,109,0
4,67,97,0
4,60,93,0
4,67,101,0
4,72,121,0
4,48,93,0
4,76,121,0
4,60,117,92
4,76,109,0
4,48,121,2
4,67,105,0
4,72,121,0
4,72,109,0
4,60,105,0
4,67,97,0
4,76,105,0
4,48,101,0
4,67,97,0
4,72,113,0
4,76,105,0
4,48,105,0
4,60,89,0
4,67,105,0
4,72,121,0
4,60,77,0
4,76,109,0
4,48,109,0
4,72,127,0
4,60,113,0
4,67,113,0
4,76,127,0
4,48,117,0
4,69,113,92
4,74,127,0
4,50,121,2
4,77,117,0
4,50,109,0
4,69,109,0
4,74,121,0
4,77,109,0
4,50,109,0
4,69,97,0
4,77,101,0
4,74,109,0
4,50,109,0
4,69,105,0
4,77,113,0
4,74,121,0
4,76,127,94
4,52,125,2
4,71,125,0
4,79,127,0
4,76,117,0
4,79,101,0
4,52,109,0
4,71,109,0
4,71,85,0
4,79,89,0
4,52,105,0
4,76,113,0
4,52,89,0
4,74,127,96
4,77,125,0
4,50,125,2
4,69,125,0
4,50,105,0
4,50,105,0
4,76,127,94
4,67,121,2
4,72,127,0
4,48,125,2
4,43,117,476
4,55,121,2
4,67,121,0
4,55,121,0
4,67,105,0
4,43,109,2
4,43,105,0
4,71,89,0
4,74,89,2
4,74,127,0
4,43,97,0
4,71,127,0
4,48,105,114
4,67,65,192
4,72,77,0
4,76,113,94
4,52,105,32
4,72,113,0
4,76,109,0
4,67,89,2
4,67,77,92
4,72,77,0
4,55,97,0
4,67,93,0
4,72,113,0
4,76,113,2
4,72,77,0
4,48,97,16
4,72,61,0
4,76,57,190
4,67,61,0
4,72,85,0
4,76,97,0
4,52,105,0
4,76,121,0
4,67,105,2
4,72,121,0
4,67,65,92
4,72,77,0
4,55,97,0
4,72,121,0
4,67,101,0
4,76,109,0
4,48,93,20
4,67,93,284
4,76,53,0
4,72,117,96
4,52,97,4
4,76,121,0
4,67,109,0
4,72,121,0
4,67,65,90
4,55,101,0
4,67,81,0
4,72,113,0
4,76,113,2
4,72,81,0
4,48,97,16
4,67,89,190
4,76,61,0
4,72,101,96
4,67,101,0
4,72,121,0
4,76,117,0
4,52,93,2
4,67,69,92
4,55,109,18
4,72,125,2
4,76,121,0
4,67,101,0
4,48,97,4
4,67,89,284
4,72,93,96
4,52,93,2
4,67,97,0
4,72,113,0
4,76,109,0
4,67,77,92
4,55,105,0
4,67,97,0
4,72,121,2
4,76,113,0
4,48,93,34
4,67,77,286
4,72,105,96
4,76,53,0
4,52,101,2
4,67,97,0
4,72,125,0
4,76,121,0
4,55,101,288
4,76,117,0
4,67,97,2
4,72,121,0
4,67,77,0
4,43,97,68
4,67,85,192
4,71,101,96
4,74,89,0
4,47,101,0
4,71,117,0
4,74,113,0
4,67,101,2
4,67,77,92
4,50,97,0
4,67,105,0
4,74,117,0
4,71,125,2
4,67,93,0
4,43,89,18
4,71,77,0
4,67,77,94
4,71,93,0
4,47,101,16
4,71,127,0
4,74,127,0
4,67,113,0
4,67,97,92
4,71,93,0
4,50,101,0
4,71,127,0
4,74,121,0
4,67,109,0
4,48,109,44
4,72,105,0
4,67,97,2
4,76,101,0
4,72,53,0
4,67,101,0
4,76,61,0
4,72,97,0
4,52,97,0
4,72,121,0
4,76,121,0
4,67,109,2
4,67,89,90
4,55,109,2
4,72,97,0
4,76,109,0
4,67,101,96
4,48,97,18
4,72,101,0
4,67,69,0
4,76,101,0
4,76,93,0
4,67,97,0
4,72,109,94
4,52,105,0
4,67,105,0
4,72,113,0
4,76,113,0
4,67,93,92
4,55,109,48
4,67,113,0
4,72,121,0
4,76,109,0
4,41,105,96
4,69,121,0
4,65,105,2
