track,note,velocity,time
1,36,127,0
1,36,127,140
1,36,127,163
1,36,127,150
1,36,127,63
1,36,127,503
1,36,127,360
1,36,127,725
1,36,127,788
1,36,127,725
1,36,127,788
1,36,127,725
1,37,127,788
1,37,127,140
1,37,127,163
1,37,127,150
1,37,127,63
1,36,127,983
1,36,127,725
1,36,127,788
1,36,127,725
1,36,127,788
1,36,127,725
1,36,127,788
1,36,127,725
1,36,127,788
1,36,127,725
1,36,127,788
1,36,127,725
1,36,127,788
1,36,127,725
1,36,127,788
1,36,127,725
1,36,127,788
1,36,127,725
1,36,127,788
1,36,127,725
1,36,127,788
1,36,127,725
1,36,127,788
1,36,127,725
1,36,127,788
1,36,127,725
1,36,127,788
1,36,127,725
1,36,127,788
1,36,127,725
1,36,127,788
1,36,127,725
1,36,127,788
1,36,127,725
1,36,127,788
1,36,127,725
1,36,127,788
1,36,127,725
1,36,127,788
1,36,127,725
1,36,127,308
1,36,127,400
1,36,127,725
1,36,127,788
1,36,127,725
1,36,127,788
1,36,127,725
1,36,127,788
1,36,127,725
1,36,127,788
1,36,127,725
1,36,127,788
1,36,127,725
1,36,127,788
1,36,127,725
1,36,127,788
1,36,127,725
1,36,127,788
1,36,127,725
1,36,127,788
1,36,127,725
1,36,127,788
1,36,127,725
1,37,127,788
1,37,127,140
1,37,127,163
1,37,127,150
1,37,127,63
1,36,127,983
1,36,127,725
1,36,127,788
1,36,127,725
1,36,127,788
1,36,127,725
1,36,127,788
1,36,127,725
1,36,127,788
1,36,127,725
1,36,127,788
1,36,127,725
1,36,127,788
1,36,127,725
1,36,127,788
1,36,127,725
1,36,127,788
1,36,127,725
1,36,127,788
1,36,127,725
1,36,127,788
1,36,127,725
1,36,127,788
1,36,127,725
1,36,127,788
1,36,127,725
1,36,127,788
1,36,127,725
1,36,127,788
1,36,127,725
1,36,127,788
1,36,127,725
1,36,127,788
1,36,127,725
1,36,127,788
1,36,127,725
1,36,127,788
1,36,127,725
1,36,127,788
1,36,127,725
1,36,127,308
1,36,127,400
1,36,127,725
1,36,127,788
1,36,127,725
1,36,127,788
1,36,127,725
1,36,127,788
1,36,127,725
1,36,127,788
1,36,127,725
1,36,127,788
1,36,127,725
1,36,127,788
1,36,127,725
1,36,127,788
1,36,127,725
1,36,127,788
1,36,127,725
1,36,127,788
1,36,127,725
1,36,127,788
1,36,127,725
1,37,127,788
1,37,127,140
1,37,127,163
1,37,127,150
1,37,127,63
1,36,127,983
1,36,127,725
1,36,127,788
1,36,127,725
1,36,127,788
1,36,127,725
1,36,127,788
1,36,127,725
1,36,127,788
1,36,127,725
1,36,127,788
1,36,127,725
1,36,127,788
1,36,127,725
1,36,127,788
1,36,127,725
1,36,127,788
1,36,127,725
1,36,127,788
1,36,127,725
1,36,127,788
1,36,127,725
1,36,127,788
1,36,127,725
1,36,127,788
1,36,127,725
1,36,127,788
1,36,127,725
1,36,127,788
1,36,127,725
1,36,127,788
1,36,127,725
1,36,127,788
1,36,127,725
1,36,127,788
1,36,127,725
1,36,127,788
1,36,127,725
1,36,127,788
1,36,127,725
1,36,127,788
1,36,127,725
1,36,127,788
1,36,127,725
1,36,127,788
1,36,127,725
1,36,127,788
1,36,127,725
1,36,127,788
1,36,127,725
1,36,127,788
1,36,127,725
1,36,127,788
1,36,127,725
1,36,127,788
1,36,127,725
1,36,127,788
1,36,127,725
1,36,127,788
1,36,127,725
1,36,127,788
1,36,127,725
1,36,127,788
1,36,127,725
1,36,127,788
1,36,127,725
1,36,127,788
1,36,127,725
1,36,127,788
1,36,127,725
1,36,127,788
1,36,127,725
1,36,127,788
1,36,127,725
1,36,127,788
1,36,127,725
1,36,127,788
1,36,127,725
1,36,127,788
1,36,127,725
1,36,127,788
1,36,127,725
1,36,127,788
1,36,127,725
1,36,127,788
1,36,127,725
1,36,127,788
1,36,127,725
1,36,127,788
1,36,127,725
1,36,127,788
1,36,127,725
1,36,127,788
1,36,127,725
1,36,127,788
1,36,127,725
1,36,127,788
1,36,127,725
1,36,127,788
1,36,127,725
1,36,127,788
1,36,127,725
1,36,127,788
1,36,127,725
1,36,127,788
1,36,127,725
1,36,127,788
1,36,127,725
1,36,127,788
1,36,127,725
1,36,127,788
1,36,127,725
1,36,127,788
1,36,127,725
1,36,127,788
1,36,127,725
1,36,127,788
1,36,127,725
1,36,127,788
1,36,127,725
1,36,127,788
1,36,127,725
1,36,127,788
1,36,127,725
1,36,127,788
1,36,127,725
1,36,127,788
1,36,127,725
1,36,127,788
1,36,127,725
1,36,127,788
1,36,127,725
1,36,127,788
1,36,127,725
1,36,127,788
1,36,127,725
1,36,127,788
1,36,127,725
1,36,127,788
1,36,127,725
1,36,127,788
1,36,127,725
1,36,127,788
1,36,127,725
1,36,127,788
1,36,127,725
1,36,127,788
1,36,127,725
1,36,127,788
1,36,127,725
1,36,127,788
1,36,127,725
1,36,127,788
1,36,127,725
1,36,127,788
1,36,127,725
1,36,127,788
1,36,127,725
1,36,127,788
1,36,127,725
1,36,127,788
1,36,127,725
1,36,127,788
1,36,127,725
1,36,127,788
1,36,127,725
1,36,127,788
1,36,127,725
1,36,127,788
1,36,127,725
1,36,127,788
1,36,127,725
1,36,127,788
1,36,127,725
1,36,127,788
1,36,127,725
1,36,127,788
1,36,127,725
1,36,127,788
1,36,127,725
1,36,127,788
1,36,127,725
1,36,127,788
1,36,127,725
1,36,127,788
1,36,127,725
1,36,127,788
1,36,127,725
1,36,127,788
1,36,127,725
1,36,127,788
1,36,127,725
1,36,127,788
1,36,127,725
1,36,127,788
1,36,127,725
1,36,127,788
1,36,127,725
1,37,127,788
1,37,127,140
1,37,127,163
1,37,127,150
1,37,127,63
2,38,115,0
2,38,115,153
2,38,115,168
2,38,115,165
2,38,115,65
2,38,115,1480
2,38,115,793
2,38,115,788
2,38,115,793
2,38,115,788
2,38,115,793
2,38,115,308
2,38,115,153
2,38,115,168
2,38,115,165
2,38,115,65
2,38,115,1480
2,38,115,793
2,38,115,788
2,38,115,793
2,38,115,788
2,38,115,793
2,38,115,788
2,38,115,793
2,38,115,788
2,38,115,793
2,38,115,788
2,38,115,793
2,38,115,788
2,38,115,793
2,38,115,788
2,38,115,793
2,38,115,788
2,38,115,793
2,38,115,788
2,38,115,793
2,38,115,788
2,38,115,793
2,38,115,788
2,38,115,793
2,38,115,788
2,38,115,793
2,38,115,788
2,38,115,793
2,38,115,788
2,38,115,793
2,38,115,788
2,38,115,793
2,38,115,788
2,38,115,793
2,38,115,788
2,38,115,793
2,38,115,788
2,38,115,793
2,38,115,308
2,38,115,145
2,38,115,160
2,38,115,158
2,38,115,148
2,38,115,1348
2,38,115,793
2,38,115,788
2,38,115,793
2,38,115,788
2,38,115,793
2,38,115,788
2,38,115,793
2,38,115,788
2,38,115,793
2,38,115,788
2,38,115,793
2,38,115,788
2,38,115,793
2,38,115,788
2,38,115,793
2,38,115,788
2,38,115,793
2,38,115,788
2,38,115,793
2,38,115,788
2,38,115,793
2,38,115,308
2,38,115,153
2,38,115,168
2,38,115,165
2,38,115,65
2,38,115,1480
2,38,115,793
2,38,115,788
2,38,115,793
2,38,115,788
2,38,115,793
2,38,115,788
2,38,115,793
2,38,115,788
2,38,115,793
2,38,115,788
2,38,115,793
2,38,115,788
2,38,115,793
2,38,115,788
2,38,115,793
2,38,115,788
2,38,115,793
2,38,115,788
2,38,115,793
2,38,115,788
2,38,115,793
2,38,115,788
2,38,115,793
2,38,115,788
2,38,115,793
2,38,115,788
2,38,115,793
2,38,115,788
2,38,115,793
2,38,115,788
2,38,115,793
2,38,115,788
2,38,115,793
2,38,115,788
2,38,115,793
2,38,115,788
2,38,115,793
2,38,115,308
2,38,115,145
2,38,115,160
2,38,115,158
2,38,115,148
2,38,115,1348
2,38,115,793
2,38,115,788
2,38,115,793
2,38,115,788
2,38,115,793
2,38,115,788
2,38,115,793
2,38,115,788
2,38,115,793
2,38,115,788
2,38,115,793
2,38,115,788
2,38,115,793
2,38,115,788
2,38,115,793
2,38,115,788
2,38,115,793
2,38,115,788
2,38,115,793
2,38,115,788
2,38,115,793
2,38,115,308
2,38,115,153
2,38,115,168
2,38,115,165
2,38,115,65
2,38,115,1480
2,38,115,793
2,38,115,788
2,38,115,793
2,38,115,788
2,38,115,793
2,38,115,788
2,38,115,793
2,38,115,788
2,38,115,793
2,38,115,788
2,38,115,793
2,38,115,788
2,38,115,793
2,38,115,788
2,38,115,793
2,38,115,788
2,38,115,793
2,38,115,788
2,38,115,793
2,38,115,788
2,38,115,793
2,38,115,788
2,38,115,793
2,38,115,788
2,38,115,793
2,38,115,788
2,38,115,793
2,38,115,788
2,38,115,793
2,38,115,788
2,38,115,793
2,38,115,788
2,38,115,793
2,38,115,788
2,38,115,793
2,38,115,788
2,38,115,793
2,38,115,788
2,38,115,793
2,38,115,788
2,38,115,793
2,38,115,788
2,38,115,793
2,38,115,788
2,38,115,793
2,38,115,788
2,38,115,793
2,38,115,788
2,38,115,793
2,38,115,788
2,38,115,793
2,38,115,788
2,38,115,793
2,38,115,788
2,38,115,793
2,38,115,788
2,38,115,793
2,38,115,788
2,38,115,793
2,38,115,788
2,38,115,793
2,38,115,788
2,38,115,793
2,38,115,788
2,38,115,793
2,38,115,788
2,38,115,793
2,38,115,788
2,38,115,793
2,38,115,788
2,38,115,793
2,38,115,788
2,38,115,793
2,38,115,788
2,38,115,793
2,38,115,788
2,38,115,793
2,38,115,788
2,38,115,793
2,38,115,788
2,38,115,793
2,38,115,788
2,38,115,793
2,38,115,788
2,38,115,793
2,38,115,788
2,38,115,793
2,38,115,788
2,38,115,793
2,38,115,788
2,38,115,793
2,38,115,788
2,38,115,793
2,38,115,788
2,38,115,793
2,38,115,788
2,38,115,793
2,38,115,788
2,38,115,793
2,38,115,788
2,38,115,793
2,38,115,788
2,38,115,793
2,38,115,788
2,38,115,793
2,38,115,788
2,38,115,793
2,38,115,788
2,38,115,793
2,38,115,788
2,38,115,793
2,38,115,788
2,38,115,793
2,38,115,788
2,38,115,793
2,38,115,788
2,38,115,793
2,38,115,788
2,38,115,793
2,38,115,788
2,38,115,793
2,38,115,788
2,38,115,793
2,38,115,788
2,38,115,793
2,38,115,788
2,38,115,793
2,38,115,788
2,38,115,793
2,38,115,788
2,38,115,793
2,38,115,788
2,38,115,793
2,38,115,788
2,38,115,793
2,38,115,788
2,38,115,793
2,38,115,788
2,38,115,793
2,38,115,788
2,38,115,793
2,38,115,788
2,38,115,793
2,38,115,788
2,38,115,793
2,38,115,788
2,38,115,793
2,38,115,788
2,38,115,793
2,38,115,788
2,38,115,793
2,38,115,788
2,38,115,793
2,38,115,788
2,38,115,793
2,38,115,788
2,38,115,793
2,38,115,788
2,38,115,793
2,38,115,788
2,38,115,793
2,38,115,788
2,38,115,793
2,38,115,788
2,38,115,793
2,38,115,788
2,38,115,793
2,38,115,788
2,38,115,793
2,38,115,788
2,38,115,793
2,38,115,788
2,38,115,793
2,38,115,788
2,38,115,793
2,38,115,788
2,38,115,793
2,38,115,788
2,38,115,793
2,38,115,788
2,38,115,793
2,38,115,788
2,38,115,793
2,38,115,788
2,38,115,793
2,38,115,788
2,38,115,793
2,38,115,788
2,38,115,793
2,38,115,788
2,38,115,793
2,38,115,788
2,38,115,793
2,38,115,788
2,38,115,793
2,38,115,788
2,38,115,793
2,38,115,308
2,38,115,153
2,38,115,168
2,38,115,165
2,38,115,65
3,38,111,24480
3,38,111,163
3,38,111,55
3,38,111,14918
3,38,111,163
3,38,111,55
3,46,111,30158
3,38,111,8
3,38,111,30453
3,38,111,163
3,38,111,55
3,46,111,30158
3,38,111,8
3,38,111,41973
3,38,111,163
3,38,111,55
3,38,111,68078
3,38,111,70
3,38,111,155
3,38,111,170
3,38,111,58
3,38,111,45275
3,38,111,70
3,38,111,155
3,38,111,170
3,38,111,58
4,42,107,0
4,42,127,158
4,42,102,153
4,42,62,155
4,42,109,60
4,42,104,968
4,42,107,43
4,42,81,30
4,42,104,53
4,42,96,35
4,42,112,35
4,42,107,33
4,46,120,53
4,42,102,13
4,42,105,40
4,42,95,38
4,42,72,53
4,42,127,38
4,42,73,35
4,42,105,35
4,46,127,43
4,42,117,30
4,42,120,75
4,42,109,28
4,42,114,45
4,42,112,33
4,42,107,25
4,42,127,8
4,46,120,35
4,42,122,10
4,42,66,35
4,42,122,33
4,42,96,43
4,42,127,38
4,42,117,25
4,42,91,18
4,46,127,40
4,42,65,120
4,42,80,45
4,42,98,25
4,42,127,38
4,42,64,38
4,42,99,43
4,42,127,25
4,46,126,43
4,42,103,25
4,42,103,35
4,42,77,30
4,42,90,50
4,42,114,40
4,42,117,25
4,42,127,33
4,42,86,43
4,46,116,0
4,42,95,15
4,42,127,158
4,42,85,153
4,42,101,155
4,42,106,60
4,42,127,968
4,42,100,43
4,42,127,30
4,42,113,53
4,42,117,35
4,42,105,35
4,42,82,33
4,46,110,53
4,42,56,13
4,42,98,40
4,42,108,38
4,42,112,53
4,42,98,38
4,42,118,35
4,42,107,35
4,46,120,43
4,42,120,30
4,42,109,75
4,42,112,28
4,42,70,45
4,42,113,33
4,42,82,25
4,42,120,8
4,46,115,35
4,42,54,10
4,42,101,35
4,42,74,33
4,42,105,43
4,42,126,38
4,42,116,25
4,42,97,18
4,46,91,40
4,42,108,120
4,42,79,43
4,42,90,30
4,42,98,53
4,42,127,35
4,42,83,35
4,42,94,33
4,46,97,53
4,42,66,13
4,42,52,40
4,42,101,38
4,42,72,53
4,42,79,38
4,42,103,35
4,42,96,35
4,46,115,43
4,42,127,30
4,42,127,75
4,42,127,28
4,42,127,45
4,42,127,33
4,42,112,25
4,42,94,8
4,46,109,35
4,42,107,10
4,42,80,35
4,42,94,33
4,42,92,43
4,42,80,38
4,42,111,25
4,42,70,18
4,46,117,40
4,42,88,120
4,42,127,43
4,42,103,30
4,42,52,53
4,42,79,35
4,42,46,35
4,42,56,33
4,46,127,53
4,42,94,13
4,42,106,40
4,42,72,38
4,42,93,53
4,42,125,38
4,42,92,35
4,42,93,35
4,46,114,43
4,42,114,30
4,42,103,75
4,42,105,28
4,42,106,45
4,42,86,33
4,42,96,25
4,42,102,8
4,46,127,35
4,42,98,10
4,42,89,35
4,42,127,33
4,42,44,43
4,42,99,38
4,42,56,25
4,42,127,18
4,46,120,40
4,42,127,120
4,42,127,43
4,42,112,30
4,42,100,53
4,42,94,35
4,42,106,35
4,42,109,33
4,46,119,53
4,42,93,13
4,42,71,40
4,42,105,38
4,42,102,53
4,42,81,38
4,42,81,35
4,42,109,35
4,46,116,43
4,42,76,30
4,42,83,75
4,42,56,28
4,42,108,45
4,42,127,33
4,42,100,25
4,42,127,8
4,46,127,35
4,42,103,10
4,42,120,35
4,42,73,33
4,42,107,43
4,42,110,38
4,42,127,25
4,42,59,18
4,46,119,40
4,42,107,120
4,42,119,43
4,42,125,30
4,42,104,53
4,42,110,35
4,42,63,35
4,42,90,33
4,46,127,53
4,42,127,13
4,42,84,40
4,42,62,38
4,42,74,53
4,42,113,38
4,42,92,35
4,42,108,35
4,46,127,43
4,42,119,30
4,42,107,75
4,42,125,28
4,42,107,45
4,42,127,33
4,42,127,25
4,42,127,8
4,46,95,35
4,42,90,10
4,42,127,35
4,42,59,33
4,42,111,43
4,42,83,38
4,42,78,25
4,42,127,18
4,46,73,40
4,42,106,120
4,42,110,43
4,42,93,30
4,42,65,53
4,42,77,35
4,42,67,35
4,42,56,33
4,46,121,53
4,42,104,13
4,42,102,40
4,42,86,38
4,42,58,53
4,42,115,38
4,42,76,35
4,42,103,35
4,46,66,43
4,42,127,30
4,42,124,75
4,42,90,28
4,42,105,45
4,42,106,33
4,42,115,25
4,42,110,8
4,46,97,35
4,42,99,10
4,42,82,35
4,42,46,33
4,42,127,43
4,42,114,38
4,42,94,25
4,42,89,18
4,46,68,40
4,42,90,120
4,42,93,43
4,42,112,30
4,42,93,53
4,42,110,35
4,42,118,35
4,42,120,33
4,46,105,53
