track,note,velocity,time
1,42,60,11616
1,57,60,0
1,42,0,160
1,57,0,0
1,42,60,32
1,42,0,160
1,42,60,32
1,42,0,160
1,42,60,32
1,42,0,160
1,42,60,32
1,42,0,160
1,42,60,32
1,42,0,160
1,42,60,32
1,42,0,160
1,42,60,32
1,42,0,160
1,42,60,32
1,42,0,160
1,42,60,32
1,42,0,160
1,42,60,32
1,42,0,160
1,42,60,32
1,42,0,160
1,42,60,32
1,42,0,160
1,42,60,32
1,42,0,160
1,42,60,32
1,42,0,160
1,42,60,32
1,42,0,160
1,42,60,32
1,42,0,160
1,42,60,32
1,42,0,160
1,42,60,32
1,42,0,160
1,42,60,32
1,42,0,160
1,42,60,32
1,42,0,160
1,42,60,32
1,42,0,160
1,42,60,32
1,42,0,160
1,42,60,32
1,42,0,160
1,42,60,32
1,42,0,160
1,42,60,32
1,42,0,160
1,42,60,32
1,42,0,160
1,42,60,32
1,42,0,160
1,42,60,32
1,42,0,160
1,42,60,32
1,42,0,160
1,42,60,32
1,42,0,160
1,42,60,32
1,42,0,160
1,42,60,32
1,42,0,160
1,42,60,32
1,42,0,160
1,42,60,32
1,42,0,160
1,42,60,32
1,42,0,160
1,42,60,32
1,57,60,0
1,42,0,160
1,57,0,0
1,42,60,32
1,42,0,94
1,42,60,2
1,42,0,46
1,42,60,2
1,42,0,46
1,42,60,2
1,42,0,160
1,42,60,32
1,42,0,94
1,46,60,2
1,46,0,94
1,42,60,2
1,42,0,160
1,42,60,32
1,42,0,94
1,42,60,2
1,42,0,46
1,42,60,2
1,42,0,46
1,42,60,2
1,42,0,160
1,42,60,32
1,42,0,94
1,46,60,2
1,46,0,94
1,42,60,2
1,42,0,160
1,42,60,32
1,42,0,94
1,42,60,2
1,42,0,46
1,42,60,2
1,42,0,46
1,42,60,2
1,42,0,160
1,42,60,32
1,42,0,94
1,46,60,2
1,46,0,94
1,42,60,2
1,42,0,160
1,42,60,32
1,42,0,94
1,42,60,2
1,42,0,46
1,42,60,2
1,42,0,46
1,42,60,2
1,42,0,160
1,42,60,32
1,42,0,94
1,46,60,2
1,46,0,94
1,42,60,2
1,57,60,0
1,42,0,160
1,57,0,0
1,42,60,32
1,42,0,94
1,42,60,2
1,42,0,46
1,42,60,2
1,42,0,46
1,42,60,2
1,42,0,160
1,42,60,32
1,42,0,94
1,46,60,2
1,46,0,94
1,42,60,2
1,42,0,160
1,42,60,32
1,42,0,94
1,42,60,2
1,42,0,46
1,42,60,2
1,42,0,46
1,42,60,2
1,42,0,160
1,42,60,32
1,42,0,94
1,46,60,2
1,46,0,94
1,42,60,2
1,42,0,160
1,42,60,32
1,42,0,94
1,42,60,2
1,42,0,46
1,42,60,2
1,42,0,46
1,42,60,2
1,42,0,160
1,42,60,32
1,42,0,94
1,46,60,2
1,46,0,94
1,42,60,2
1,42,0,160
1,42,60,32
1,42,0,94
1,42,60,2
1,42,0,46
1,42,60,2
1,42,0,46
1,42,60,2
1,42,0,160
1,42,60,32
1,42,0,94
1,46,60,2
1,46,0,94
1,42,60,2
1,42,0,160
1,42,60,32
1,42,0,94
1,42,60,2
1,42,0,46
1,42,60,2
1,42,0,46
1,42,60,2
1,42,0,160
1,42,60,32
1,42,0,94
1,46,60,2
1,46,0,94
1,42,60,2
1,42,0,160
1,42,60,32
1,42,0,94
1,42,60,2
1,42,0,46
1,42,60,2
1,42,0,46
1,42,60,2
1,42,0,160
1,42,60,32
1,42,0,94
1,46,60,2
1,46,0,94
1,42,60,2
1,42,0,160
1,42,60,32
1,42,0,94
1,42,60,2
1,42,0,46
1,42,60,2
1,42,0,46
1,42,60,2
1,42,0,160
1,42,60,32
1,42,0,94
1,46,60,2
1,46,0,94
1,42,60,2
1,42,0,160
1,42,60,32
1,42,0,94
1,42,60,2
1,42,0,46
1,42,60,2
1,42,0,46
1,42,60,2
1,42,0,160
1,42,60,32
1,42,0,94
1,46,60,2
1,46,0,94
1,42,60,2
1,42,0,160
1,42,60,32
1,42,0,160
1,42,60,32
1,42,0,160
1,42,60,32
1,42,0,160
1,42,60,32
1,57,60,0
1,42,0,720
1,57,0,0
1,42,60,48
1,57,60,0
1,42,0,160
1,57,0,0
1,42,60,32
1,42,0,160
1,42,60,32
1,42,0,160
1,42,60,32
1,42,0,160
1,42,60,32
1,42,0,160
1,42,60,32
1,42,0,160
1,42,60,32
1,42,0,160
1,42,60,32
1,42,0,160
1,42,60,32
1,42,0,160
1,42,60,32
1,42,0,160
1,42,60,32
1,42,0,160
1,42,60,32
1,42,0,160
1,42,60,32
1,42,0,160
1,42,60,32
1,42,0,160
1,42,60,32
1,42,0,160
1,42,60,32
1,42,0,160
1,42,60,32
1,42,0,160
1,42,60,32
1,42,0,160
1,42,60,32
1,42,0,160
1,42,60,32
1,42,0,160
1,42,60,32
1,42,0,160
1,42,60,32
1,42,0,160
1,42,60,32
1,42,0,160
1,42,60,32
1,42,0,160
1,42,60,32
1,42,0,160
1,42,60,32
1,42,0,160
1,42,60,32
1,42,0,160
1,42,60,32
1,42,0,160
1,42,60,32
1,42,0,160
1,42,60,32
1,42,0,160
1,42,60,32
1,42,0,160
1,42,60,32
1,42,0,160
1,42,60,32
1,42,0,160
1,42,60,32
1,42,0,160
1,42,60,32
1,42,0,160
1,42,60,32
1,42,0,160
1,42,60,32
1,42,0,160
1,42,60,32
1,42,0,160
1,42,60,32
1,42,0,160
1,42,60,32
1,42,0,160
1,42,60,32
1,42,0,160
1,42,60,32
1,42,0,160
1,42,60,32
1,42,0,160
1,42,60,32
1,42,0,160
1,42,60,32
1,57,60,0
1,42,0,160
1,57,0,0
1,42,60,32
1,42,0,160
1,42,60,32
1,42,0,160
1,42,60,32
1,42,0,160
1,42,60,32
1,42,0,160
1,42,60,32
1,42,0,160
1,42,60,32
1,42,0,160
1,42,60,32
1,42,0,160
1,42,60,32
1,42,0,160
1,42,60,32
1,42,0,160
1,42,60,32
1,42,0,160
1,42,60,32
1,42,0,160
1,42,60,32
1,42,0,160
1,42,60,32
1,42,0,160
1,42,60,32
1,42,0,160
1,42,60,32
1,42,0,160
1,42,60,32
1,42,0,160
1,42,60,32
1,42,0,160
1,42,60,32
1,42,0,160
1,42,60,32
1,42,0,160
1,42,60,32
1,42,0,160
1,42,60,32
1,42,0,160
1,42,60,32
1,42,0,160
1,42,60,32
1,42,0,160
1,42,60,32
1,42,0,160
1,42,60,32
1,42,0,160
1,42,60,32
1,42,0,160
1,42,60,32
1,42,0,160
1,42,60,32
1,42,0,160
1,42,60,32
1,42,0,160
1,42,60,32
1,42,0,160
1,42,60,32
1,42,0,160
1,42,60,32
1,42,0,160
1,42,60,32
1,42,0,160
1,42,60,32
1,42,0,160
1,42,60,32
1,42,0,160
1,42,60,32
1,57,60,0
1,42,0,160
1,57,0,0
1,42,60,32
1,42,0,94
1,42,60,2
1,42,0,46
1,42,60,2
1,42,0,46
1,42,60,2
1,42,0,160
1,42,60,32
1,42,0,94
1,46,60,2
1,46,0,94
1,42,60,2
1,42,0,160
1,42,60,32
1,42,0,94
1,42,60,2
1,42,0,46
1,42,60,2
1,42,0,46
1,42,60,2
1,42,0,160
1,42,60,32
1,42,0,94
1,46,60,2
1,46,0,94
1,42,60,2
1,42,0,160
1,42,60,32
1,42,0,94
1,42,60,2
1,42,0,46
1,42,60,2
1,42,0,46
1,42,60,2
1,42,0,160
1,42,60,32
1,42,0,94
1,46,60,2
1,46,0,94
1,42,60,2
1,42,0,160
1,42,60,32
1,42,0,94
1,42,60,2
1,42,0,46
1,42,60,2
1,42,0,46
1,42,60,2
1,42,0,160
1,42,60,32
1,42,0,94
1,46,60,2
1,46,0,94
1,42,60,2
1,42,0,160
1,42,60,32
1,42,0,94
1,42,60,2
1,42,0,46
1,42,60,2
1,42,0,46
1,42,60,2
1,42,0,160
1,42,60,32
1,42,0,94
1,46,60,2
1,46,0,94
1,42,60,2
1,42,0,160
1,42,60,32
1,42,0,94
1,42,60,2
1,42,0,46
1,42,60,2
1,42,0,46
1,42,60,2
1,42,0,160
1,42,60,32
1,42,0,94
1,46,60,2
1,46,0,94
1,42,60,2
1,42,0,160
1,42,60,32
1,42,0,94
1,42,60,2
1,42,0,46
1,42,60,2
1,42,0,46
1,42,60,2
1,42,0,160
1,42,60,32
1,42,0,94
1,46,60,2
1,46,0,94
1,42,60,2
1,42,0,160
1,42,60,32
1,42,0,94
1,42,60,2
1,42,0,46
1,42,60,2
1,42,0,46
1,42,60,2
1,42,0,160
1,42,60,32
1,42,0,94
1,46,60,2
1,46,0,94
1,42,60,2
1,42,0,160
1,42,60,32
1,42,0,94
1,42,60,2
1,42,0,46
1,42,60,2
1,42,0,46
1,42,60,2
1,42,0,160
1,42,60,32
1,42,0,94
1,46,60,2
1,46,0,94
1,42,60,2
1,42,0,160
1,42,60,32
1,42,0,94
1,42,60,2
1,42,0,46
1,42,60,2
1,42,0,46
1,42,60,2
1,42,0,160
1,42,60,32
1,42,0,94
1,46,60,2
1,46,0,94
1,42,60,2
1,42,0,160
1,42,60,32
1,42,0,94
1,42,60,2
1,42,0,46
1,42,60,2
1,42,0,46
1,42,60,2
1,42,0,160
1,42,60,32
1,42,0,94
1,46,60,2
1,46,0,94
1,42,60,2
1,42,0,160
1,42,60,32
1,42,0,94
1,42,60,2
1,42,0,46
1,42,60,2
1,42,0,46
1,42,60,2
1,42,0,160
1,42,60,32
1,42,0,94
1,46,60,2
1,46,0,94
1,42,60,2
1,57,60,0
1,42,0,160
1,57,0,0
1,42,60,32
1,42,0,94
1,42,60,2
1,42,0,46
1,42,60,2
1,42,0,46
1,42,60,2
1,42,0,160
1,42,60,32
1,42,0,94
1,46,60,2
1,46,0,94
1,42,60,2
1,42,0,160
1,42,60,32
1,42,0,94
1,42,60,2
1,42,0,46
1,42,60,2
1,42,0,46
1,42,60,2
1,42,0,160
1,42,60,32
1,42,0,94
1,46,60,2
1,46,0,94
1,42,60,2
1,42,0,160
1,42,60,32
1,42,0,94
1,42,60,2
1,42,0,46
1,42,60,2
1,42,0,46
1,42,60,2
1,42,0,160
1,42,60,32
1,42,0,94
1,46,60,2
1,46,0,94
1,42,60,2
1,42,0,160
1,42,60,32
1,42,0,94
1,42,60,2
1,42,0,46
1,42,60,2
1,42,0,46
1,42,60,2
1,42,0,160
1,42,60,32
1,42,0,94
1,46,60,2
1,46,0,94
1,42,60,2
1,42,0,160
1,42,60,32
1,42,0,94
1,42,60,2
1,42,0,46
1,42,60,2
1,42,0,46
1,42,60,2
1,42,0,160
1,42,60,32
1,42,0,94
1,46,60,2
1,46,0,94
1,57,60,2
1,57,0,336
1,42,60,48
1,42,0,126
1,42,60,2
1,42,0,126
1,46,60,2
1,46,0,126
1,42,60,2
1,57,60,0
1,42,0,720
1,57,0,0
2,36,75,11232
2,38,75,0
2,36,0,46
2,38,0,0
2,36,75,2
2,38,75,0
2,36,0,46
2,38,0,0
2,36,75,2
2,38,75,0
2,36,0,160
2,38,0,0
2,36,75,32
2,38,75,0
2,36,0,94
2,38,0,0
2,36,75,2
2,36,0,160
2,36,75,32
2,38,75,0
2,36,0,160
2,38,0,0
2,36,75,32
2,36,0,160
2,36,75,32
2,38,75,0
2,36,0,160
2,38,0,0
2,36,75,32
2,36,0,160
2,36,75,32
2,38,75,0
2,36,0,160
2,38,0,0
2,36,75,32
2,36,0,160
2,36,75,32
2,38,75,0
2,36,0,160
2,38,0,0
2,36,75,32
2,36,0,160
2,36,75,32
2,38,75,0
2,36,0,160
2,38,0,0
2,36,75,32
2,36,0,160
2,36,75,32
2,38,75,0
2,36,0,160
2,38,0,0
2,36,75,32
2,36,0,160
2,36,75,32
2,38,75,0
2,36,0,160
2,38,0,0
2,36,75,32
2,36,0,160
2,36,75,32
2,38,75,0
2,36,0,160
2,38,0,0
2,36,75,32
2,36,0,160
2,36,75,32
2,38,75,0
2,36,0,160
2,38,0,0
2,36,75,32
2,36,0,160
2,36,75,32
2,38,75,0
2,36,0,160
2,38,0,0
2,36,75,32
2,36,0,160
2,36,75,32
2,38,75,0
2,36,0,160
2,38,0,0
2,36,75,32
2,36,0,160
2,36,75,32
2,38,75,0
2,36,0,160
2,38,0,0
2,36,75,32
2,36,0,160
2,36,75,32
2,38,75,0
2,36,0,160
2,38,0,0
2,36,75,32
2,36,0,160
2,36,75,32
2,38,75,0
2,36,0,160
2,38,0,0
2,36,75,32
2,36,0,160
2,36,75,32
2,38,75,0
2,36,0,160
2,38,0,0
2,36,75,32
2,36,0,160
2,36,75,32
2,38,75,0
2,36,0,160
2,38,0,0
2,36,75,32
2,36,0,160
2,36,75,32
2,38,75,0
2,36,0,94
2,38,0,0
2,36,75,2
2,38,75,0
2,36,0,160
2,38,0,0
2,36,75,32
2,38,75,0
2,36,0,94
2,38,0,0
2,36,75,2
2,38,75,0
2,36,0,94
2,38,0,0
2,36,75,2
2,38,75,0
2,36,0,94
2,38,0,0
2,36,75,2
2,36,0,160
2,36,75,32
2,38,75,0
2,36,0,160
2,38,0,0
2,36,75,32
2,36,0,160
2,36,75,32
2,38,75,0
2,36,0,160
2,38,0,0
2,36,75,32
2,36,0,160
2,36,75,32
2,38,75,0
2,36,0,160
2,38,0,0
2,36,75,32
2,36,0,160
2,36,75,32
2,38,75,0
2,36,0,160
2,38,0,0
2,36,75,32
2,36,0,160
2,36,75,32
2,38,75,0
2,36,0,160
2,38,0,0
2,36,75,32
2,36,0,160
2,36,75,32
2,38,75,0
2,36,0,160
2,38,0,0
2,36,75,32
2,36,0,160
2,36,75,32
2,38,75,0
2,36,0,160
2,38,0,0
2,36,75,32
2,36,0,94
2,36,75,2
2,38,75,0
2,36,0,94
2,38,0,0
2,38,75,2
2,38,0,46
2,38,75,2
2,38,0,46
2,36,75,2
2,38,75,0
2,36,0,94
2,38,0,0
2,36,75,2
2,36,0,160
2,36,75,32
2,38,75,0
2,36,0,160
2,38,0,0
2,36,75,32
2,36,0,160
2,36,75,32
2,38,75,0
2,36,0,160
2,38,0,0
2,36,75,32
2,36,0,160
2,36,75,32
2,38,75,0
2,36,0,160
2,38,0,0
2,36,75,32
2,36,0,160
2,36,75,32
2,38,75,0
2,36,0,160
2,38,0,0
2,36,75,32
2,36,0,160
2,36,75,32
2,38,75,0
2,36,0,160
2,38,0,0
2,36,75,32
2,36,0,160
2,36,75,32
2,38,75,0
2,36,0,160
2,38,0,0
2,36,75,32
2,36,0,160
2,36,75,32
2,38,75,0
2,36,0,160
2,38,0,0
2,36,75,32
2,36,0,94
2,36,75,2
2,38,75,0
2,36,0,94
2,38,0,0
2,38,75,2
2,38,0,94
2,36,75,2
2,38,75,0
2,36,0,94
2,38,0,0
2,36,75,2
2,36,0,160
2,36,75,32
2,38,75,0
2,36,0,160
2,38,0,0
2,36,75,32
2,36,0,160
2,36,75,32
2,38,75,0
2,36,0,160
2,38,0,0
2,36,75,32
2,36,0,160
2,36,75,32
2,38,75,0
2,36,0,160
2,38,0,0
2,36,75,32
2,36,0,160
2,36,75,32
2,38,75,0
2,36,0,160
2,38,0,0
2,36,75,32
2,36,0,160
2,36,75,32
2,38,75,0
2,36,0,160
2,38,0,0
2,36,75,32
2,36,0,160
2,36,75,32
2,38,75,0
2,36,0,160
2,38,0,0
2,36,75,32
2,36,0,160
2,36,75,32
2,38,75,0
2,36,0,160
2,38,0,0
2,36,75,32
2,36,0,160
2,36,75,32
2,38,75,0
2,36,0,160
2,38,0,0
2,36,75,32
2,36,0,160
2,36,75,32
2,38,75,0
2,36,0,160
2,38,0,0
2,36,75,32
2,36,0,160
2,36,75,32
2,38,75,0
2,36,0,160
2,38,0,0
2,36,75,32
2,38,75,0
2,36,0,336
2,38,0,0
2,36,75,240
2,38,75,0
2,36,0,160
2,38,0,0
2,36,75,32
2,36,0,160
2,36,75,32
2,38,75,0
2,36,0,160
2,38,0,0
2,36,75,32
2,36,0,160
2,36,75,32
2,38,75,0
2,36,0,160
2,38,0,0
