track,note,velocity,time
0,36,42,1460
0,42,17,0
0,54,43,0
0,42,18,36
0,42,19,92
0,42,20,92
0,36,46,92
0,42,21,0
0,54,39,0
0,42,22,92
0,42,23,92
0,42,24,92
0,36,50,92
0,42,25,0
0,54,39,0
0,42,26,92
0,42,27,92
0,42,28,92
0,36,54,92
0,42,29,0
0,54,37,0
0,42,30,92
0,42,31,92
0,42,32,92
0,36,58,92
0,42,33,0
0,54,28,0
0,42,34,92
0,42,35,92
0,42,35,92
0,36,61,92
0,42,36,0
0,54,37,0
0,42,37,92
0,42,38,92
0,42,39,92
0,36,65,84
0,42,40,0
0,54,26,0
0,42,41,92
0,42,42,92
0,42,43,92
0,36,69,92
0,42,44,0
0,54,38,0
0,42,45,92
0,42,46,92
0,42,47,92
0,36,73,92
0,42,48,0
0,54,41,0
0,42,49,92
0,42,50,92
0,42,51,92
0,36,77,92
0,42,52,0
0,54,43,0
0,42,53,92
0,42,54,92
0,42,55,92
0,36,81,92
0,42,56,0
0,54,25,0
0,42,57,92
0,42,58,92
0,64,19,0
0,63,19,44
0,42,59,44
0,64,20,0
0,63,20,44
0,36,85,44
0,42,60,0
0,54,39,0
0,64,20,0
0,63,21,44
0,42,61,44
0,64,21,0
0,63,22,44
0,42,61,44
0,64,22,0
0,63,23,44
0,42,62,44
0,64,23,0
0,63,23,36
0,36,88,44
0,42,63,0
0,54,41,0
0,64,24,0
0,63,24,44
0,42,64,44
0,64,25,0
0,63,25,44
0,42,65,44
0,64,26,0
0,63,26,44
0,42,66,44
0,64,26,0
0,63,27,44
0,36,92,44
0,42,67,0
0,54,29,0
0,64,27,0
0,63,28,44
0,42,68,44
0,64,28,0
0,63,29,44
0,42,69,44
0,64,29,0
0,63,29,44
0,42,70,44
0,64,30,0
0,63,30,44
0,36,96,44
0,42,71,0
0,54,39,0
0,64,31,0
0,63,31,44
0,42,72,44
0,64,32,0
0,63,32,44
0,42,73,44
0,64,32,0
0,63,33,44
0,42,74,44
0,64,33,0
0,63,34,44
0,36,100,44
0,42,75,0
0,54,44,0
0,64,34,0
0,63,35,44
0,42,76,44
0,64,35,0
0,63,35,44
0,42,77,44
0,64,36,0
0,63,36,44
0,42,78,44
0,64,37,0
0,63,37,44
0,36,104,44
0,42,79,0
0,54,43,0
0,64,38,0
0,63,38,44
0,42,80,44
0,64,38,0
0,63,39,44
0,42,81,44
0,64,39,0
0,63,40,44
0,42,82,44
0,64,40,0
0,63,41,44
0,36,87,44
0,49,26,0
0,54,26,0
0,64,41,0
0,63,41,44
0,49,27,44
0,64,42,0
0,63,42,44
0,49,30,44
0,64,43,0
0,63,43,44
0,49,33,44
0,64,44,0
0,63,44,44
0,36,87,44
0,49,36,0
0,54,43,0
0,64,44,0
0,63,45,44
0,49,39,44
0,64,45,0
0,63,46,44
0,49,42,44
0,64,46,0
0,63,47,44
0,49,45,44
0,64,47,0
0,63,47,44
0,36,88,44
0,49,48,0
0,54,42,0
0,64,48,0
0,63,48,44
0,49,51,44
0,64,49,0
0,63,49,44
0,49,54,44
0,64,50,0
0,63,50,44
0,49,57,44
0,64,50,0
0,63,51,44
0,36,88,44
0,49,60,0
0,54,38,0
0,64,51,0
0,63,52,44
0,49,63,44
0,64,52,0
0,63,53,44
0,49,66,44
0,64,53,0
0,63,53,44
0,49,68,44
0,64,54,0
0,63,54,44
0,36,88,44
0,49,71,0
0,54,40,0
0,64,55,0
0,63,55,44
0,49,74,44
0,64,55,0
0,63,56,44
0,49,77,44
0,64,56,0
0,63,57,44
0,49,80,44
0,64,57,0
0,63,58,44
0,36,88,44
0,49,83,0
0,54,35,0
0,64,58,0
0,63,58,44
0,49,86,44
0,64,59,0
0,63,59,12
0,49,89,44
0,64,60,0
0,63,60,44
0,49,92,44
0,64,61,0
0,63,61,44
0,88,89,20
0,36,88,0
0,38,118,0
0,49,113,0
0,54,41,0
0,64,61,0
0,40,117,0
0,86,85,0
0,84,80,0
0,63,62,0
0,83,76,0
0,81,71,0
0,46,88,0
0,64,62,0
0,79,66,0
0,77,62,0
0,63,63,0
0,76,57,0
0,74,53,0
0,46,88,0
0,64,63,0
0,72,48,0
0,71,43,0
0,63,64,0
0,69,39,0
0,46,90,24
0,64,64,0
0,67,30,0
0,63,64,24
0,65,20,0
0,64,16,0
0,36,88,0
0,42,42,0
0,28,105,0
0,57,11,0
0,61,11,0
0,64,11,0
0,64,55,0
0,69,55,0
0,73,119,0
0,76,110,0
0,64,55,48
0,69,55,0
0,46,88,48
0,63,71,0
0,64,46,0
0,69,46,0
0,63,74,16
0,64,46,0
0,69,46,0
0,36,88,16
0,38,121,0
0,42,54,0
0,63,70,0
0,28,114,0
0,57,91,0
0,61,78,0
0,64,77,0
0,64,57,0
0,69,57,0
0,64,57,48
0,69,57,0
0,46,80,48
0,64,73,0
0,64,48,0
0,69,48,0
0,64,73,16
0,64,48,0
0,69,48,0
0,36,88,16
0,42,41,0
0,64,57,0
0,28,120,0
0,57,85,0
0,61,85,0
0,64,73,0
0,64,59,0
0,69,59,0
0,64,59,48
0,69,59,0
0,46,93,48
0,63,62,0
0,64,50,0
0,69,50,0
0,63,66,16
0,64,50,0
0,69,50,0
0,36,88,16
0,38,107,0
0,42,48,0
0,63,59,0
0,28,110,0
0,57,82,0
0,61,72,0
0,64,85,0
0,64,61,0
0,69,61,0
0,64,61,48
0,69,61,0
0,46,76,48
0,64,75,0
0,64,52,0
0,69,52,0
0,64,75,16
0,64,53,0
0,69,53,0
0,36,88,16
0,42,55,0
0,64,63,0
0,28,117,0
0,57,83,0
0,61,85,0
0,64,88,0
0,64,63,0
0,69,63,0
0,64,64,48
0,69,64,0
0,46,87,16
0,63,65,0
0,40,116,0
0,64,54,0
0,69,54,0
0,63,63,16
0,64,55,0
0,69,55,0
0,36,88,48
0,38,123,0
0,42,42,0
0,63,56,0
0,37,119,0
0,57,87,0
0,61,81,0
0,64,78,0
0,64,65,0
0,69,65,0
0,64,66,48
0,69,66,0
0,46,77,16
0,64,65,0
0,49,108,0
0,64,56,0
0,69,56,0
0,64,63,16
0,64,57,0
0,69,57,0
0,36,88,16
0,42,42,0
0,64,58,0
0,38,112,0
0,57,85,0
0,61,86,0
0,64,85,0
0,64,67,0
0,69,67,0
0,74,111,0
0,78,109,0
0,64,68,48
0,69,68,0
0,46,78,16
0,63,66,0
0,50,110,0
0,64,58,0
0,69,58,0
0,73,122,0
0,76,118,0
0,63,56,16
0,64,59,0
0,69,59,0
0,36,88,16
0,38,116,0
0,42,42,0
0,63,58,0
0,40,105,0
0,57,80,0
0,61,87,0
0,64,90,0
0,64,69,0
0,69,69,0
0,69,122,0
0,73,107,0
0,64,70,12
0,69,70,0
0,46,82,16
0,64,62,0
0,52,106,0
0,64,60,0
0,69,60,0
0,68,107,0
0,71,119,0
0,64,63,16
0,64,61,0
0,69,61,0
0,36,88,16
0,42,53,0
0,64,58,0
0,38,115,0
0,57,74,0
0,62,76,0
0,64,80,0
0,76,117,0
0,81,105,0
0,64,71,0
0,69,71,0
0,66,120,0
0,69,122,0
0,64,72,48
0,69,72,0
0,46,79,8
0,63,65,0
0,64,63,0
0,69,63,0
0,63,61,4
0,64,63,0
0,69,63,0
0,36,88,16
0,38,116,0
0,42,50,0
0,63,75,0
0,38,114,0
0,57,76,0
0,62,86,0
0,66,72,0
0,64,74,0
0,69,74,0
0,64,74,48
0,69,74,0
0,46,87,48
0,64,69,0
0,64,65,0
0,69,65,0
0,64,59,16
0,64,65,0
0,69,65,0
0,36,89,16
0,42,55,0
0,64,74,0
0,38,109,0
0,57,73,0
0,62,90,0
0,66,82,0
0,64,76,0
0,69,76,0
0,64,76,48
0,69,76,0
0,46,94,48
0,63,63,0
0,64,67,0
0,69,67,0
0,63,69,16
0,64,67,0
0,69,67,0
0,36,89,16
0,38,115,0
0,42,46,0
0,63,65,0
0,38,120,0
0,57,91,0
0,62,78,0
0,66,84,0
0,64,78,0
0,69,78,0
0,64,78,48
0,69,78,0
0,38,111,48
0,46,86,0
0,64,64,0
0,76,107,0
0,81,117,0
0,64,69,0
0,69,69,0
0,38,110,16
0,64,73,0
0,76,114,0
0,81,114,0
0,64,69,0
0,69,69,0
0,36,89,16
0,43,115,0
0,64,69,0
0,31,119,0
0,62,76,0
0,65,76,0
0,93,61,0
0,76,106,0
0,81,105,0
0,64,80,0
0,69,80,0
0,64,80,16
0,69,80,0
0,42,51,8
0,63,72,0
0,43,107,0
0,93,56,0
0,64,71,0
0,69,71,0
0,63,56,4
0,93,56,0
0,64,71,0
0,69,71,0
0,36,89,16
0,38,124,0
0,63,68,0
0,31,112,0
0,64,75,0
0,67,89,0
0,93,59,0
0,64,82,0
0,69,82,0
0,64,83,16
0,69,83,0
0,42,49,48
0,64,65,0
0,43,116,0
0,93,58,0
0,64,73,0
0,69,73,0
0,64,56,16
0,93,65,0
0,64,74,0
0,69,74,0
0,36,89,16
0,64,59,0
0,31,109,0
0,62,78,0
0,65,86,0
0,93,70,0
0,64,84,0
0,69,84,0
0,64,85,16
0,69,85,0
0,42,51,48
0,63,62,0
0,43,121,0
0,93,58,0
0,64,75,0
0,69,75,0
0,63,61,16
0,93,69,0
0,64,76,0
0,69,76,0
0,36,89,16
0,38,107,0
0,63,66,0
0,31,117,0
0,60,83,0
0,64,90,0
0,93,54,0
0,64,86,0
0,69,86,0
0,64,87,16
0,69,87,0
0,42,45,48
0,64,74,0
0,43,105,0
0,93,73,0
0,64,77,0
0,69,77,0
0,64,72,16
0,93,58,0
0,64,78,0
0,69,78,0
0,36,89,16
0,64,69,0
0,31,110,0
0,62,85,0
0,65,78,0
0,93,58,0
0,64,88,0
0,69,88,0
0,64,89,16
0,69,89,0
0,42,49,48
0,63,72,0
0,43,109,0
0,93,62,0
0,64,79,0
0,69,79,0
0,63,62,16
0,93,56,0
0,64,80,0
0,69,80,0
0,36,89,16
0,38,105,0
0,63,58,0
0,31,109,0
0,64,79,0
0,67,85,0
0,93,65,0
0,64,90,0
0,69,90,0
0,64,91,16
0,69,91,0
0,42,48,48
0,64,62,0
0,43,124,0
0,93,72,0
0,64,81,0
0,69,81,0
0,64,66,16
0,93,58,0
0,64,82,0
0,69,82,0
0,36,89,16
0,64,68,0
0,31,112,0
0,62,84,0
0,65,91,0
0,93,66,0
0,64,93,0
0,69,93,0
0,64,93,16
0,69,93,0
0,42,46,16
0,63,65,0
0,43,107,0
0,62,80,0
0,65,78,0
0,93,65,0
0,64,84,0
0,69,84,0
0,63,67,16
0,93,73,0
0,64,84,0
0,69,84,0
0,36,89,16
0,38,109,0
0,49,106,0
0,63,57,0
0,31,119,0
0,62,90,0
0,65,85,0
0,93,65,0
0,64,95,0
0,69,95,0
0,64,95,16
0,69,95,0
0,64,58,16
0,32,120,0
0,62,77,0
0,65,81,0
0,93,64,0
0,64,86,0
0,69,86,0
0,64,70,16
0,93,68,0
0,64,86,0
0,69,86,0
0,36,89,16
0,64,67,0
0,33,120,0
0,57,82,0
0,61,83,0
0,64,83,0
0,64,97,0
0,69,97,0
0,42,57,16
0,63,63,0
0,45,112,0
0,69,113,0
0,63,68,16
0,57,79,0
0,61,77,0
0,64,87,0
0,64,94,0
0,69,84,0
0,36,89,16
0,38,118,0
0,63,59,0
0,42,113,0
0,66,122,0
0,42,59,16
0,64,62,0
0,42,118,0
0,64,123,0
0,64,57,16
0,36,89,16
0,64,57,0
0,40,107,0
0,57,80,0
0,61,81,0
0,64,77,0
0,64,90,0
0,69,85,0
0,69,122,0
0,42,57,112
0,63,62,0
0,40,112,0
0,63,62,16
0,57,88,0
0,61,89,0
0,64,81,0
0,64,87,0
0,69,99,0
0,61,112,0
0,36,89,16
0,38,114,0
0,63,66,0
0,42,120,0
0,42,58,16
0,64,61,0
0,42,117,0
0,57,105,0
0,64,60,16
0,36,89,92
0,64,60,0
0,35,123,0
0,59,80,0
0,62,85,0
0,66,82,0
0,42,49,16
0,63,68,0
0,47,116,0
0,52,86,0
0,63,59,16
0,54,93,0
0,36,90,16
0,38,122,0
0,63,69,0
0,37,119,0
0,59,87,0
0,62,91,0
0,64,76,0
0,52,95,0
0,54,90,16
0,42,48,16
0,64,72,0
0,49,111,0
0,52,86,0
0,64,66,16
0,54,86,0
0,36,90,16
0,64,59,0
0,38,111,0
0,57,79,0
0,62,91,0
0,66,76,0
0,57,103,0
0,42,47,16
0,63,57,0
0,50,112,0
0,63,61,16
0,57,93,0
0,36,90,16
0,38,124,0
0,63,67,0
0,40,114,0
0,62,77,0
0,66,73,0
0,69,87,0
0,42,40,16
0,64,68,0
0,52,112,0
0,64,62,16
0,36,90,92
0,64,71,0
0,33,107,0
0,57,76,0
0,61,78,0
0,64,80,0
0,64,101,0
0,69,101,0
0,42,46,16
0,63,72,0
0,45,111,0
0,57,111,0
0,63,74,16
0,57,88,0
0,61,74,0
0,64,72,0
0,64,99,0
0,69,88,0
0,36,90,16
0,38,111,0
0,63,73,0
0,42,110,0
0,57,114,0
0,42,45,16
0,64,73,0
0,42,120,0
0,57,109,0
0,64,63,16
0,36,90,16
0,64,60,0
0,40,107,0
0,57,80,0
0,61,76,0
0,64,90,0
0,64,87,0
0,69,97,0
0,61,110,0
0,42,48,16
0,63,62,0
0,40,111,0
0,64,120,0
0,63,75,16
0,57,84,0
0,61,83,0
0,64,81,0
0,64,89,0
0,69,95,0
0,36,90,16
0,38,123,0
0,63,61,0
0,42,120,0
0,66,107,0
0,42,48,16
0,64,62,0
0,42,117,0
0,69,114,0
0,64,74,16
0,36,90,92
0,64,56,0
0,35,117,0
0,59,86,0
0,62,81,0
0,66,82,0
0,42,45,16
0,63,65,0
0,47,111,0
0,52,96,0
0,63,72,16
0,54,102,0
0,36,90,16
0,38,111,0
0,63,68,0
0,37,110,0
0,59,81,0
0,62,86,0
0,64,84,0
0,52,102,0
0,54,85,16
0,42,49,16
0,64,66,0
0,49,108,0
0,52,99,0
0,64,61,16
0,54,97,0
0,36,90,16
0,64,60,0
0,38,113,0
0,57,80,0
0,62,90,0
0,66,81,0
0,57,85,0
0,42,42,16
0,63,59,0
0,50,108,0
0,63,74,16
0,57,100,0
0,36,90,16
0,38,112,0
0,63,73,0
0,40,112,0
0,62,87,0
0,66,85,0
0,69,74,0
0,46,88,16
0,64,74,0
0,52,107,0
0,64,68,16
0,36,90,92
0,42,56,0
0,64,70,0
0,35,114,0
0,59,82,0
0,62,83,0
0,66,84,0
0,62,96,0
0,66,102,0
0,42,43,16
0,63,72,0
0,47,121,0
0,69,105,0
0,63,69,16
0,59,91,0
0,62,84,0
0,66,76,0
0,62,93,0
0,66,103,0
0,36,90,16
0,38,124,0
0,42,52,0
0,63,72,0
0,35,108,0
0,69,118,0
0,69,123,16
0,46,89,96
0,64,68,0
0,36,121,0
0,64,67,16
0,68,111,0
0,36,90,92
0,42,42,0
0,64,58,0
0,37,115,0
0,61,81,0
0,64,77,0
0,68,73,0
0,64,94,0
0,68,99,0
0,42,53,16
0,63,68,0
0,49,113,0
0,66,120,0
0,63,59,16
0,61,72,0
0,64,79,0
0,68,73,0
0,64,93,0
0,68,101,0
0,36,90,16
0,38,121,0
0,42,51,0
0,63,64,0
0,37,106,0
0,64,110,0
0,46,91,16
0,64,69,0
0,36,112,0
0,61,122,0
0,64,70,16
0,36,91,16
0,42,44,0
0,64,62,0
0,35,115,0
0,59,78,0
0,62,83,0
0,66,73,0
0,66,86,0
0,69,95,0
0,66,114,0
0,42,43,112
0,63,60,0
0,47,109,0
0,63,67,16
0,66,85,0
0,69,91,0
0,36,91,16
0,38,123,0
0,63,62,0
0,33,114,0
0,59,89,0
0,62,89,0
0,66,88,0
0,61,109,0
0,59,122,16
0,42,52,16
0,64,67,0
0,45,112,0
0,52,98,0
0,64,57,16
0,54,94,0
0,57,116,0
0,36,91,16
0,64,66,0
0,30,114,0
0,59,82,0
0,62,83,0
0,66,89,0
0,57,84,0
0,42,41,16
0,63,71,0
