track,note,velocity,time
0,35,113,1340
0,49,123,0
0,38,115,0
0,69,64,0
0,62,66,0
0,66,72,0
0,57,115,0
0,38,43,12
0,69,115,0
0,38,43,40
0,38,38,48
0,38,35,40
0,38,35,48
0,38,36,48
0,38,33,44
0,38,31,32
0,43,127,8
0,42,115,0
0,64,67,0
0,69,112,0
0,66,88,8
0,69,113,12
0,38,77,8
0,40,114,0
0,69,57,0
0,62,48,0
0,67,67,0
0,69,117,0
0,38,67,8
0,67,114,0
0,38,48,48
0,38,54,44
0,38,34,44
0,38,41,8
0,66,116,0
0,38,26,48
0,38,32,48
0,38,29,40
0,38,37,8
0,43,127,0
0,33,122,0
0,64,71,0
0,61,80,0
0,64,117,0
0,37,114,12
0,67,65,0
0,67,112,0
0,35,113,8
0,38,73,0
0,38,111,0
0,62,69,0
0,66,64,0
0,69,62,0
0,66,114,12
0,38,67,4
0,37,113,0
0,64,93,0
0,38,48,48
0,38,54,48
0,38,34,40
0,38,41,8
0,64,114,0
0,38,26,48
0,38,32,48
0,38,29,40
0,38,35,4
0,43,127,0
0,35,119,0
0,62,85,0
0,62,117,0
0,33,113,4
0,61,85,0
0,61,116,0
0,38,73,8
0,31,118,0
0,67,62,0
0,62,66,0
0,59,65,0
0,59,112,0
0,38,67,8
0,59,115,0
0,38,48,48
0,38,54,48
0,38,34,40
0,38,41,40
0,38,26,48
0,38,32,48
0,38,29,40
0,38,45,8
0,43,127,0
0,33,114,0
0,69,52,0
0,64,69,0
0,61,69,0
0,57,117,0
0,93,98,188
0,86,77,12
0,88,89,12
0,35,125,8
0,38,77,0
0,49,121,0
0,30,118,0
0,62,64,0
0,66,74,0
0,69,61,0
0,93,101,0
0,57,116,0
0,38,67,8
0,69,111,0
0,38,48,48
0,38,54,48
0,38,34,40
0,38,41,40
0,38,26,48
0,38,32,48
0,38,29,40
0,38,45,0
0,43,127,0
0,31,118,0
0,67,67,0
0,71,65,0
0,71,116,0
0,69,111,12
0,38,77,0
0,38,115,0
0,69,66,0
0,66,75,0
0,69,111,0
0,66,114,0
0,38,67,8
0,64,116,0
0,38,48,48
0,38,54,48
0,38,34,40
0,38,41,40
0,35,96,0
0,62,111,0
0,38,26,44
0,38,32,48
0,38,29,40
0,35,110,8
0,38,45,0
0,35,114,0
0,62,64,0
0,66,63,0
0,59,72,0
0,64,115,0
0,57,76,12
0,66,111,0
0,64,80,192
0,57,76,144
0,62,80,144
0,57,80,144
0,33,115,0
0,62,76,0
0,57,69,0
0,76,51,80
0,64,76,64
0,38,84,0
0,31,114,0
0,43,72,0
0,59,80,0
0,59,77,0
0,62,64,0
0,55,68,0
0,59,118,0
0,55,80,144
0,38,67,92
0,62,80,0
0,67,65,0
0,67,115,0
0,38,48,48
0,38,54,48
0,38,34,20
0,38,41,40
0,59,80,0
0,38,26,0
0,38,32,4
0,38,29,8
0,42,80,28
0,38,45,12
0,43,127,0
0,30,122,0
0,57,80,0
0,66,77,0
0,54,71,0
0,57,72,0
0,62,58,0
0,66,112,0
0,62,80,8
0,66,80,12
0,64,80,96
0,69,28,0
0,62,80,12
0,66,69,0
0,66,120,0
0,38,89,12
0,33,115,0
0,40,80,0
0,66,73,0
0,61,61,0
0,52,70,0
0,55,67,0
0,66,113,0
0,55,80,4
0,61,80,4
0,66,80,8
0,64,80,4
0,64,89,0
0,64,111,0
0,38,67,8
0,62,80,0
0,62,89,0
0,62,119,0
0,38,48,0
0,38,54,4
0,38,34,40
0,38,41,8
0,35,92,0
0,61,80,0
0,61,73,0
0,61,120,0
0,72,24,4
0,38,26,0
0,38,32,4
0,38,29,4
0,35,113,12
0,38,45,0
0,38,111,0
0,54,80,0
0,62,79,0
0,57,71,0
0,54,80,0
0,62,114,0
0,71,57,4
0,57,80,60
0,62,80,120
0,64,80,112
0,62,80,136
0,57,80,16
0,64,80,4
0,64,41,144
0,38,74,16
0,62,80,0
0,38,77,16
0,38,104,4
0,55,76,0
0,55,79,0
0,57,80,112
0,62,80,120
0,64,80,112
0,62,80,16
0,69,35,136
0,57,80,16
0,64,80,16
0,71,48,56
0,57,80,16
0,57,116,0
0,38,95,4
0,57,117,0
0,50,76,8
0,54,72,0
0,69,112,0
0,57,71,8
0,69,115,0
0,62,60,8
0,69,114,0
0,40,68,0
0,69,114,0
0,67,68,8
0,67,111,0
0,64,68,8
0,66,120,0
0,59,56,144
0,64,120,8
0,43,68,8
0,62,119,0
0,59,68,8
0,62,113,0
0,62,64,8
0,64,118,0
0,55,64,8
0,66,117,0
0,45,60,8
0,64,118,0
0,61,52,144
0,64,48,192
0,76,7,104
0,57,68,8
0,67,119,0
0,67,116,8
0,42,60,4
0,66,111,0
0,57,60,0
0,64,120,0
0,62,60,8
0,62,119,0
0,61,76,8
0,50,56,0
0,61,120,0
0,59,76,8
0,43,52,0
0,59,119,0
0,57,60,8
0,61,115,0
0,55,56,0
0,62,119,0
0,54,56,0
0,64,114,0
0,45,56,8
0,57,112,0
0,52,52,96
0,57,52,192
0,52,52,144
0,67,23,12
0,61,52,120
0,52,60,144
0,45,64,0
0,57,68,8
0,57,116,0
0,62,61,8
0,42,60,8
0,57,120,0
0,57,60,0
0,69,120,8
0,62,60,8
0,69,116,0
0,61,76,8
0,50,56,0
0,69,112,0
0,59,76,8
0,43,52,0
0,71,115,0
0,55,56,40
0,54,56,136
0,72,43,12
0,52,64,8
0,71,120,96
0,45,60,0
0,69,113,0
0,61,52,136
0,71,111,8
0,64,48,8
0,69,116,0
0,57,68,8
0,67,116,0
0,42,60,8
0,66,112,0
0,57,60,0
0,62,60,8
0,69,20,88
0,50,56,56
0,59,76,48
0,43,52,0
0,66,113,0
0,57,60,0
0,64,120,0
0,55,56,0
0,62,120,0
0,67,35,56
0,54,56,8
0,62,117,0
0,45,60,8
0,61,117,0
0,61,52,8
0,62,111,0
0,62,48,8
0,64,118,0
0,61,68,8
0,61,115,0
0,38,60,8
0,62,120,0
0,50,56,144
0,57,60,0
0,84,19,72
0,54,56,72
0,62,64,40
0,57,56,0
0,54,48,44
0,60,14,80
0,57,48,12
0,57,119,0
0,38,99,4
0,57,119,0
0,60,53,4
0,50,59,8
0,69,120,0
0,64,76,8
0,69,111,0
0,62,72,0
0,69,119,0
0,52,68,8
0,69,115,0
0,67,68,8
0,67,120,0
0,64,68,8
0,66,117,0
0,59,56,144
0,64,115,8
0,43,68,8
0,62,118,0
0,59,68,8
0,62,120,0
0,62,64,8
0,64,117,0
0,55,64,8
0,66,111,0
0,45,60,8
0,64,116,0
0,61,52,144
0,64,48,192
0,65,55,36
0,57,68,8
0,67,118,0
0,67,116,8
0,42,60,8
0,66,112,0
0,57,60,0
0,64,117,0
0,69,34,20
0,62,60,8
0,62,114,0
0,61,76,8
0,50,56,0
0,61,116,0
0,59,76,8
0,43,52,0
0,59,114,0
0,57,60,8
0,61,114,0
0,55,56,8
0,62,116,0
0,54,56,8
0,64,118,0
0,72,23,48
0,45,56,8
0,57,113,0
0,52,52,192
0,57,52,192
0,52,52,144
0,61,52,144
0,71,28,124
0,52,60,20
0,45,64,0
0,57,68,8
0,57,113,0
0,42,60,8
0,57,115,0
0,57,60,96
0,69,116,8
0,62,60,8
0,69,113,0
0,61,76,8
0,50,56,0
0,69,118,0
0,59,76,8
0,43,52,0
0,71,117,0
0,55,56,40
0,54,56,136
0,79,12,76
0,52,64,8
0,57,113,0
0,45,60,8
0,69,112,0
0,76,48,88
0,61,52,48
0,71,112,8
0,64,48,8
0,69,117,0
0,57,68,8
0,67,111,0
0,42,60,8
0,66,112,0
0,69,40,128
0,57,60,0
0,62,60,8
0,66,112,0
0,50,56,8
0,66,120,0
0,59,76,12
0,43,52,0
0,66,111,0
0,57,60,12
0,64,120,0
0,55,56,12
0,62,119,0
0,54,56,120
0,62,111,12
0,45,60,12
0,61,113,0
0,61,52,12
0,62,119,0
0,72,7,8
0,62,48,12
0,64,115,0
0,64,68,12
0,72,6,0
0,61,111,0
0,38,60,12
0,62,111,0
0,72,50,120
0,50,56,24
0,57,60,0
0,54,56,144
0,62,64,40
0,59,47,184
0,57,56,0
0,54,48,44
0,57,48,92
0,57,113,0
0,38,76,8
0,61,76,0
0,57,114,0
0,62,72,8
0,69,118,0
0,50,67,8
0,69,118,0
0,62,60,8
0,69,112,0
0,40,91,0
0,69,111,0
0,67,68,8
0,67,120,0
0,64,68,8
0,66,111,0
0,59,56,144
0,64,112,8
0,43,68,8
0,62,117,0
0,59,68,8
0,62,116,0
0,62,64,8
0,64,112,0
0,55,64,8
0,66,116,0
0,45,60,8
0,64,113,0
0,61,52,144
0,64,48,192
0,76,7,104
0,57,68,8
0,67,116,0
0,67,118,8
0,42,60,4
0,66,120,0
0,57,60,0
0,64,115,0
0,62,60,8
0,62,112,0
0,61,76,8
0,50,56,0
0,61,115,0
0,59,76,8
0,43,52,0
0,59,113,0
0,57,60,8
0,61,115,0
0,55,56,8
0,62,112,0
0,54,56,8
0,64,119,0
0,45,56,8
0,57,119,0
0,52,52,96
0,57,52,192
0,52,52,144
0,67,23,12
0,61,52,120
0,52,60,144
0,45,64,0
0,57,68,8
0,57,115,0
0,62,61,8
0,42,60,8
0,57,114,0
0,57,60,0
0,69,117,0
0,62,60,8
0,69,111,0
0,61,76,8
0,50,56,0
0,69,119,0
0,59,76,8
0,43,52,0
0,71,118,0
0,55,56,40
0,54,56,136
0,72,43,12
0,52,64,8
0,57,119,0
0,45,60,8
0,69,112,0
0,61,52,136
0,71,119,8
0,64,48,8
0,69,114,0
0,57,68,8
0,67,111,0
0,42,60,8
0,66,119,0
0,57,60,0
0,62,60,8
0,66,112,0
0,69,20,88
0,50,56,8
0,66,119,0
0,59,76,8
0,43,52,0
0,66,114,0
0,57,60,48
0,64,120,8
0,55,56,8
0,62,120,0
0,67,35,56
0,54,56,8
0,62,118,0
0,45,60,8
0,61,120,0
0,61,52,8
0,62,118,0
0,62,48,8
0,64,116,0
0,64,68,8
0,61,118,0
0,38,60,8
0,62,116,0
0,50,56,144
0,57,60,0
0,84,19,72
0,54,56,72
0,62,64,40
0,57,56,0
0,54,48,44
0,60,14,80
0,57,48,12
0,57,116,0
0,50,76,4
0,57,116,0
0,60,53,4
0,54,76,8
0,69,115,0
0,62,64,8
0,57,72,0
0,69,120,0
0,66,60,0
0,62,60,0
0,69,111,0
0,69,87,8
0,62,72,0
0,69,118,0
0,50,52,0
0,57,72,0
0,50,83,40
0,69,112,0
0,69,91,0
0,52,68,0
0,69,112,0
0,66,68,8
0,67,112,0
0,64,68,8
0,66,115,0
0,59,56,8
0,64,118,0
0,45,60,8
0,64,118,0
0,61,52,144
0,64,48,192
0,65,55,36
0,57,68,8
0,67,116,0
0,67,113,8
0,42,60,8
0,66,116,0
0,57,60,0
0,64,120,0
0,69,34,20
0,62,60,8
0,62,119,0
0,61,76,8
0,50,56,0
0,61,112,0
0,59,76,8
0,43,52,0
0,59,114,0
0,57,60,8
0,61,113,0
0,55,56,8
0,62,120,0
0,54,56,8
0,64,118,0
0,72,23,48
0,45,56,8
0,57,118,0
0,52,52,96
0,57,52,192
0,52,52,144
0,61,52,144
0,71,28,124
0,52,60,20
0,45,64,0
0,57,68,8
0,57,116,0
0,42,60,8
0,57,118,0
0,57,60,96
0,69,111,8
0,62,60,8
0,69,112,0
0,61,76,8
0,50,56,0
0,69,117,0
0,59,76,8
0,43,52,0
0,71,115,0
0,55,56,40
0,54,56,136
0,79,12,76
0,52,64,8
0,57,119,0
0,45,60,8
0,69,117,0
0,76,48,48
0,61,52,48
0,71,119,8
0,64,48,8
0,69,113,0
0,57,68,8
0,67,112,0
0,42,60,8
0,66,116,0
0,69,40,128
0,57,60,0
0,62,60,8
0,66,111,0
0,50,56,8
0,66,113,0
0,59,76,8
0,43,52,0
0,66,114,0
0,57,60,48
0,64,114,8
0,55,56,8
0,62,119,0
0,54,56,8
0,62,112,0
0,45,60,8
0,61,116,0
0,61,52,8
0,62,114,0
0,72,7,8
0,62,48,8
0,64,120,0
0,64,68,8
0,72,6,0
0,61,111,0
0,38,60,8
0,62,119,0
0,72,50,120
0,50,56,24
0,57,60,0
0,54,56,144
0,62,64,40
0,59,47,184
0,57,56,0
0,54,48,44
0,57,48,92
0,35,112,8
0,49,123,0
0,38,105,0
0,69,64,0
0,62,66,0
0,66,72,0
0,62,103,0
0,66,103,0
0,57,118,0
0,38,43,12
0,69,116,0
0,38,43,40
0,38,38,48
0,38,35,40
0,38,35,48
0,38,36,48
0,38,33,44
0,38,31,32
0,43,127,8
0,42,105,0
0,64,67,0
0,62,99,0
0,64,91,0
0,69,117,0
0,66,88,16
0,69,119,12
0,38,77,8
0,40,104,0
0,69,57,0
0,62,48,0
0,67,67,0
0,62,87,0
0,67,87,0
0,69,116,0
0,38,67,8
0,67,120,0
0,38,48,48
0,38,54,48
0,38,34,40
0,38,41,8
0,66,114,0
0,38,26,48
0,38,32,48
0,38,29,40
0,38,37,8
0,43,127,0
0,33,112,0
0,64,71,0
0,61,80,0
0,61,87,0
0,64,87,0
0,64,115,0
0,37,104,12
0,67,65,0
0,67,112,0
0,35,116,8
0,38,79,0
0,38,101,0
0,62,69,0
0,66,64,0
0,69,62,0
0,62,87,0
0,64,87,0
0,66,120,12
0,38,73,12
0,37,103,0
0,64,93,0
0,38,54,48
0,38,60,48
0,38,40,40
0,38,47,8
0,64,120,0
0,38,32,48
0,38,38,48
0,38,35,40
0,38,41,8
0,43,127,0
0,35,109,0
0,62,85,0
0,59,87,0
0,62,87,0
0,62,118,0
0,33,103,8
0,61,85,0
0,61,116,0
0,38,73,8
0,31,108,0
0,67,62,0
0,62,66,0
0,59,65,0
0,62,91,0
0,67,95,0
0,59,118,0
0,38,67,8
0,59,116,0
0,38,48,48
0,38,54,48
0,38,34,40
0,38,41,40
0,38,26,48
0,38,32,48
0,38,29,40
0,38,45,8
0,43,127,0
0,33,104,0
0,69,52,0
0,64,69,0
0,61,69,0
0,61,77,0
0,64,77,0
0,57,117,0
0,93,103,188
0,86,82,12
0,88,94,12
0,35,120,8
0,38,77,0
0,49,121,0
0,30,108,0
0,62,64,0
0,66,74,0
0,69,61,0
0,93,117,0
0,62,87,0
0,66,87,0
0,57,119,0
0,38,67,8
0,69,116,0
0,38,48,48
0,38,54,48
0,69,28,32
0,38,34,8
0,38,41,40
0,38,26,48
0,38,32,8
0,38,29,40
0,38,45,0
0,43,127,0
0,31,108,0
0,67,67,0
0,71,65,0
0,62,87,0
0,67,87,0
0,71,111,0
0,69,113,12
0,72,24,8
0,38,77,0
0,38,105,0
0,69,66,0
0,66,75,0
0,62,74,0
0,66,74,0
0,69,114,0
0,71,57,4
0,66,114,0
0,38,67,8
0,64,116,0
0,38,48,48
0,38,54,48
0,38,34,40
0,38,41,40
0,35,103,0
0,62,117,0
0,38,26,44
0,38,32,48
0,38,29,40
0,35,117,8
0,38,45,0
0,35,104,0
0,66,127,0
0,62,127,0
0,59,127,0
0,62,64,0
0,66,63,0
0,59,72,0
0,59,70,0
0,62,70,0
0,64,113,0
0,66,114,12
0,64,41,336
0,57,76,48
0,64,80,112
0,57,80,144
0,33,105,0
0,62,76,0
0,61,127,0
0,59,127,0
0,57,127,0
0,57,69,0
0,64,76,144
0,38,84,8
0,31,104,0
0,43,72,0
0,59,80,0
0,59,95,0
0,55,95,0
0,62,95,0
0,59,77,0
0,62,64,0
0,55,68,0
0,67,79,0
0,59,79,0
0,59,120,0
0,69,35,88
0,55,80,56
0,38,67,100
0,62,80,0
0,67,65,0
0,67,118,0
0,38,48,48
0,71,48,4
0,38,54,44
0,38,34,16
0,38,41,20
0,59,80,0
0,38,26,48
0,38,32,12
0,38,29,8
0,42,80,20
0,38,45,8
0,43,127,0
0,30,112,0
0,57,80,0
0,54,95,0
0,57,95,0
0,62,95,0
0,66,77,0
0,54,71,0
0,57,72,0
0,62,58,0
0,66,83,0
0,57,83,0
0,66,120,0
0,62,80,12
