track,note,velocity,time
0,29,91,1476
0,41,70,0
0,60,125,708
0,62,121,12
0,64,123,12
0,65,117,12
0,62,71,96
0,58,71,0
0,64,118,12
0,62,126,12
0,60,121,12
0,64,72,16
0,60,72,0
0,62,123,12
0,60,125,12
0,60,126,0
0,57,123,12
0,62,72,0
0,58,72,0
0,55,120,12
0,53,126,12
0,57,72,16
0,60,72,0
0,60,123,12
0,65,121,12
0,64,124,12
0,62,117,12
0,58,72,0
0,62,72,0
0,58,125,12
0,57,121,12
0,58,120,12
0,60,121,12
0,60,72,0
0,64,72,0
0,67,118,12
0,65,119,12
0,64,122,12
0,65,119,12
0,62,73,0
0,58,73,0
0,60,73,16
0,57,73,0
0,69,123,12
0,65,119,12
0,69,122,12
0,70,126,12
0,62,73,0
0,58,73,0
0,69,124,12
0,65,122,12
0,67,118,12
0,64,73,0
0,60,73,0
0,67,123,12
0,69,118,12
0,67,125,12
0,62,73,0
0,58,73,0
0,65,123,12
0,62,124,12
0,57,74,16
0,60,74,0
0,60,118,12
0,65,117,12
0,64,121,12
0,62,118,12
0,62,74,0
0,58,74,0
0,60,122,12
0,58,118,12
0,57,124,12
0,58,123,12
0,60,125,12
0,64,74,0
0,60,74,0
0,67,123,12
0,65,125,12
0,64,123,12
0,65,126,8
0,65,95,0
0,69,95,0
0,62,95,0
0,57,103,0
0,50,103,0
0,36,91,0
0,36,105,0
0,49,110,0
0,38,87,8
0,46,68,136
0,84,78,48
0,79,78,0
0,38,88,0
0,38,104,0
0,46,83,0
0,38,82,64
0,46,66,0
0,33,82,8
0,36,63,0
0,36,97,0
0,36,120,0
0,46,83,0
0,38,89,8
0,36,89,0
0,46,66,0
0,33,96,0
0,36,97,8
0,38,108,0
0,46,87,0
0,38,89,0
0,36,90,0
0,46,61,0
0,33,104,0
0,26,102,0
0,36,120,0
0,46,87,0
0,46,56,176
0,38,93,48
0,38,104,0
0,46,80,0
0,38,83,16
0,46,58,0
0,33,80,8
0,36,96,8
0,36,113,0
0,46,78,0
0,38,91,8
0,60,122,8
0,36,91,0
0,46,68,0
0,33,97,8
0,36,102,8
0,38,83,0
0,46,94,0
0,62,118,8
0,38,90,0
0,38,107,0
0,36,94,8
0,38,108,0
0,46,75,0
0,64,118,12
0,33,97,0
0,36,98,0
0,49,63,0
0,65,118,0
0,65,97,0
0,62,97,0
0,58,97,0
0,34,125,0
0,36,113,0
0,42,84,0
0,49,119,0
0,65,118,12
0,42,58,96
0,38,101,188
0,42,84,0
0,42,60,188
0,62,122,12
0,60,126,8
0,67,97,0
0,60,97,0
0,64,97,0
0,36,126,0
0,36,113,0
0,42,84,0
0,62,122,12
0,42,62,0
0,38,107,188
0,42,84,0
0,60,120,12
0,42,70,96
0,57,125,12
0,55,122,8
0,58,98,0
0,62,98,0
0,65,98,0
0,38,120,0
0,36,113,0
0,42,84,0
0,53,118,12
0,42,75,0
0,38,104,188
0,42,82,0
0,38,91,8
0,42,70,0
0,40,99,8
0,60,98,8
0,57,98,0
0,41,85,0
0,36,113,0
0,42,84,0
0,36,83,8
0,60,122,8
0,29,112,0
0,42,56,0
0,65,117,12
0,38,104,0
0,42,84,0
0,64,123,12
0,42,62,0
0,62,118,12
0,58,99,8
0,62,99,0
0,34,115,0
0,36,113,0
0,42,84,0
0,42,58,188
0,38,101,188
0,42,84,0
0,57,124,12
0,42,60,0
0,58,125,12
0,60,122,8
0,64,99,0
0,60,99,0
0,67,99,0
0,36,123,0
0,36,113,0
0,42,84,0
0,42,62,188
0,67,121,12
0,38,107,0
0,42,84,0
0,65,124,12
0,64,124,12
0,42,70,0
0,65,122,8
0,58,99,0
0,62,99,0
0,65,99,0
0,34,110,0
0,36,113,0
0,42,84,0
0,42,75,188
0,36,102,8
0,38,108,8
0,38,104,0
0,42,82,0
0,69,117,12
0,42,70,0
0,43,89,8
0,69,122,8
0,60,100,0
0,57,100,0
0,41,106,0
0,36,113,0
0,42,84,0
0,42,56,188
0,65,125,12
0,38,104,0
0,42,84,0
0,69,124,12
0,42,62,0
0,70,122,12
0,62,100,8
0,58,100,0
0,34,118,0
0,36,113,0
0,42,84,0
0,69,123,12
0,42,58,0
0,38,101,188
0,42,84,0
0,65,121,12
0,42,60,0
0,35,111,8
0,67,117,8
0,67,101,0
0,64,101,0
0,60,101,0
0,36,101,0
0,36,113,0
0,42,84,0
0,42,62,188
0,67,117,12
0,38,107,0
0,42,84,0
0,42,70,188
0,69,122,12
0,67,122,8
0,65,101,0
0,62,101,0
0,58,101,0
0,34,115,0
0,36,113,0
0,42,84,0
0,65,121,12
0,62,124,12
0,42,75,0
0,38,104,188
0,42,82,0
0,41,99,8
0,42,70,0
0,36,106,8
0,36,63,0
0,60,102,8
0,57,102,0
0,29,95,0
0,36,119,0
0,42,84,0
0,60,121,12
0,42,56,0
0,65,124,12
0,38,104,0
0,42,84,0
0,46,116,188
0,64,123,12
0,62,120,12
0,62,102,0
0,65,102,0
0,58,102,0
0,34,113,0
0,36,117,0
0,42,84,0
0,58,119,12
0,42,58,0
0,38,101,188
0,42,84,0
0,58,120,12
0,42,60,0
0,60,121,12
0,60,103,0
0,67,103,0
0,64,103,0
0,36,91,0
0,36,115,0
0,42,84,0
0,42,62,188
0,38,71,92
0,67,125,12
0,36,94,0
0,38,98,0
0,42,84,0
0,65,118,12
0,64,123,12
0,36,110,0
0,46,95,0
0,65,126,12
0,57,75,0
0,65,75,0
0,40,87,0
0,29,115,0
0,36,117,0
0,57,117,0
0,63,50,80
0,41,70,8
0,48,70,60
0,53,70,96
0,69,82,96
0,57,70,0
0,60,70,0
0,65,76,8
0,53,70,0
0,58,75,8
0,48,84,0
0,50,71,8
0,53,71,96
0,69,80,8
0,62,72,0
0,58,71,0
0,65,71,8
0,53,71,0
0,63,50,64
0,57,75,8
0,40,91,0
0,41,70,8
0,48,70,96
0,53,70,96
0,69,84,8
0,60,70,0
0,57,70,0
0,65,77,8
0,53,70,0
0,58,75,8
0,48,84,0
0,50,71,8
0,53,71,96
0,69,91,8
0,58,71,0
0,62,72,0
0,65,73,8
0,53,71,0
0,63,50,88
0,65,76,8
0,60,76,0
0,57,76,0
0,40,95,0
0,41,70,8
0,48,70,96
0,53,70,96
0,60,125,8
0,69,80,0
0,60,70,0
0,57,70,0
0,62,126,8
0,65,59,0
0,53,70,0
0,64,123,12
0,52,38,32
0,65,119,8
0,58,76,0
0,62,76,0
0,48,84,0
0,52,90,0
0,63,50,52
0,50,71,8
0,53,71,88
0,69,89,8
0,58,71,0
0,62,72,0
0,65,55,8
0,53,71,0
0,62,123,12
0,60,125,8
0,64,76,0
0,60,76,0
0,67,76,0
0,50,76,0
0,52,76,8
0,62,126,12
0,55,76,0
0,67,68,8
0,64,80,0
0,60,77,0
0,60,126,12
0,64,72,8
0,55,77,0
0,57,122,8
0,55,123,8
0,58,77,0
0,62,77,0
0,65,77,0
0,48,77,0
0,50,77,8
0,53,123,12
0,53,77,0
0,69,85,8
0,62,72,0
0,58,78,0
0,65,76,0
0,53,83,0
0,63,50,72
0,57,77,16
0,60,77,0
0,40,103,0
0,41,70,8
0,60,117,12
0,48,70,0
0,53,70,96
0,65,121,8
0,69,89,0
0,57,70,0
0,60,70,0
0,64,125,8
0,65,61,0
0,53,70,0
0,62,126,12
0,58,77,8
0,62,77,0
0,48,84,0
0,50,71,8
0,53,71,96
0,69,79,8
0,62,72,0
0,58,71,0
0,57,118,8
0,65,65,0
0,53,71,0
0,58,121,12
0,63,50,32
0,60,121,8
0,64,78,0
0,60,78,0
0,67,78,0
0,50,76,0
0,52,76,8
0,55,76,96
0,67,122,8
0,67,59,0
0,60,77,0
0,64,80,0
0,65,126,12
0,64,121,8
0,64,71,0
0,55,77,0
0,65,120,8
0,58,78,0
0,62,78,0
0,65,78,0
0,48,77,0
0,50,77,8
0,53,77,96
0,69,87,8
0,58,78,0
0,62,72,0
0,69,123,0
0,65,69,0
0,53,79,0
0,63,50,108
0,69,123,12
0,57,78,0
0,60,78,0
0,40,95,0
0,41,70,8
0,48,70,96
0,53,70,96
0,65,121,8
0,69,91,0
0,57,70,0
0,60,70,0
0,69,124,8
0,65,89,0
0,53,70,0
0,70,126,12
0,58,79,8
0,62,79,0
0,48,84,0
0,50,71,8
0,69,119,12
0,53,71,0
0,63,50,48
0,69,84,8
0,62,72,0
0,58,71,0
0,65,123,8
0,65,77,0
0,53,71,0
0,63,50,132
0,67,122,8
0,64,79,0
0,60,79,0
0,67,79,0
0,50,76,0
0,52,76,8
0,55,76,96
0,67,120,8
0,67,82,0
0,60,77,0
0,64,80,0
0,64,79,8
0,55,77,0
0,69,121,8
0,63,50,4
0,67,120,8
0,58,79,0
0,62,79,0
0,65,79,0
0,48,77,0
0,65,120,8
0,50,77,0
0,62,117,12
0,53,77,0
0,69,89,8
0,58,78,0
0,62,72,0
0,63,50,72
0,65,69,0
0,53,79,0
0,63,50,56
0,57,80,16
0,60,80,0
0,40,119,0
0,41,70,8
0,60,120,12
0,48,70,0
0,53,70,96
0,65,120,8
0,69,89,0
0,57,70,0
0,60,70,0
0,64,125,8
0,65,77,0
0,53,70,0
0,63,50,100
0,62,122,8
0,58,80,0
0,62,80,0
0,48,84,0
0,50,71,8
0,58,123,12
0,53,71,0
0,69,89,8
0,62,72,0
0,58,71,0
0,62,120,8
0,65,89,0
0,53,71,0
0,60,120,8
0,64,80,0
0,60,80,0
0,67,80,0
0,50,76,0
0,52,76,8
0,55,76,96
0,67,118,8
0,63,50,0
0,67,77,0
0,60,77,0
0,64,80,0
0,65,117,12
0,64,119,8
0,64,73,0
0,55,77,0
0,63,50,4
0,65,122,8
0,58,81,0
0,62,81,0
0,65,81,0
0,48,77,0
0,50,77,8
0,53,77,96
0,69,87,8
0,58,78,0
0,62,72,0
0,65,72,0
0,53,83,0
0,57,81,4
0,60,81,0
0,40,87,0
0,63,50,76
0,41,70,8
0,60,124,68
0,48,70,0
0,53,70,96
0,69,85,8
0,57,70,0
0,60,70,0
0,62,119,12
0,65,66,8
0,53,70,0
0,64,118,12
0,65,125,8
0,58,81,0
0,62,81,0
0,48,84,0
0,50,71,8
0,53,71,96
0,69,91,8
0,62,72,0
0,58,71,0
0,62,126,12
0,65,69,8
0,53,71,0
0,60,117,8
0,64,82,0
0,60,82,0
0,67,82,0
0,50,76,0
0,52,76,8
0,55,76,96
0,63,50,164
0,60,118,8
0,67,87,0
0,60,77,0
0,64,80,0
0,64,74,8
0,55,77,0
0,57,118,8
0,55,122,8
0,58,82,0
0,62,82,0
0,65,82,0
0,48,77,0
0,50,77,8
0,53,125,12
0,53,77,0
0,63,50,8
0,69,87,0
0,58,78,0
0,62,72,0
0,65,73,0
0,53,83,0
0,57,82,16
0,60,82,0
0,40,83,0
0,41,70,8
0,60,124,12
0,48,70,0
0,63,50,96
0,53,70,0
0,65,125,8
0,69,79,0
0,57,70,0
0,60,70,0
0,63,50,140
0,65,76,8
0,53,70,0
0,64,124,12
0,62,122,8
0,58,83,0
0,62,83,0
0,48,84,0
0,50,71,8
0,58,118,12
0,53,71,0
0,69,85,8
0,62,72,0
0,58,71,0
0,58,118,8
0,65,80,0
0,53,71,0
0,60,124,8
0,64,83,0
0,60,83,0
0,67,83,0
0,50,76,0
0,52,76,8
0,55,76,96
0,63,50,72
0,67,121,8
0,67,60,0
0,60,77,0
0,64,80,0
0,38,90,0
0,38,76,20
0,65,126,12
0,64,125,8
0,64,77,0
0,55,77,0
0,49,110,72
0,65,125,0
0,62,87,0
0,69,87,0
0,65,87,0
0,57,115,0
0,50,116,0
0,36,91,0
0,36,113,0
0,52,104,0
0,38,87,8
0,38,88,48
0,38,82,64
0,38,82,0
0,33,82,0
0,48,107,0
0,45,107,0
0,47,112,92
0,45,120,56
0,43,116,92
0,41,118,16
0,36,112,188
0,49,63,0
0,52,88,24
0,53,89,16
0,57,89,0
0,60,89,0
0,29,120,0
0,36,113,0
0,49,113,0
0,51,85,0
0,52,120,28
0,69,121,156
0,51,108,0
0,69,121,12
0,38,88,96
0,51,96,0
0,67,126,12
0,69,126,12
0,51,108,0
0,70,123,8
0,62,90,0
0,58,90,0
0,34,115,0
0,36,113,0
0,51,82,0
0,70,123,12
0,51,108,0
0,69,121,12
0,60,91,8
0,57,91,0
0,33,108,0
0,38,88,0
0,51,88,0
0,51,108,188
0,55,91,0
0,58,91,0
0,62,91,0
0,31,108,0
0,36,113,0
0,51,84,0
0,67,119,188
0,51,108,0
0,67,120,12
0,38,85,0
0,51,86,0
0,67,123,12
0,51,108,0
0,69,118,12
0,67,121,8
0,64,92,0
0,60,92,0
0,36,96,0
0,36,113,0
0,51,88,0
0,64,118,12
0,60,123,12
0,51,108,0
0,34,113,8
0,38,91,0
0,51,85,0
0,51,108,188
0,57,93,0
0,60,93,0
0,65,93,0
0,33,97,0
0,36,113,0
0,51,101,0
0,60,125,188
0,51,108,0
0,65,125,12
0,38,88,96
0,51,96,0
0,64,122,12
0,51,108,0
0,62,122,8
0,58,94,0
0,62,94,0
0,34,110,0
0,36,113,0
0,51,82,0
0,58,120,12
0,51,108,0
0,38,88,188
0,51,88,0
0,60,117,12
0,51,108,0
0,62,121,12
0,60,124,8
0,64,95,0
0,55,95,0
0,60,95,0
0,36,123,0
0,36,113,0
0,51,84,0
0,51,108,188
0,67,118,12
0,38,85,0
0,51,86,0
0,65,123,12
0,64,126,12
0,51,108,0
0,65,117,8
0,57,96,0
0,53,96,0
0,29,108,0
0,36,113,0
0,49,120,0
0,51,88,0
0,51,108,188
0,38,91,188
0,51,85,0
0,51,108,188
0,58,97,0
0,41,101,0
0,36,113,0
0,51,87,0
0,51,108,188
0,38,88,188
0,51,96,0
0,36,90,8
0,51,108,0
0,38,108,8
0,36,63,0
0,57,98,8
0,81,97,0
0,29,104,0
0,36,119,0
0,51,82,0
0,72,101,92
0,77,101,64
0,51,108,0
0,79,101,52
0,81,101,0
0,38,88,0
0,51,81,0
0,77,101,0
0,79,101,0
0,38,106,0
0,51,108,0
0,81,93,0
0,36,88,0
0,58,99,0
0,82,85,0
0,29,112,0
0,36,117,0
0,51,84,0
0,74,93,0
0,77,105,0
0,51,108,0
0,82,105,48
0,38,60,0
0,84,93,48
0,77,89,0
0,38,85,0
0,51,86,0
0,82,97,0
0,41,107,0
0,51,108,0
0,60,119,0
0,41,61,0
0,48,43,0
0,81,83,0
0,29,102,0
0,36,113,0
0,46,104,0
0,49,88,0
0,72,83,48
0,48,36,64
0,41,56,0
0,77,82,0
0,29,101,0
0,42,84,0
0,79,82,48
0,62,117,0
0,48,54,0
0,41,65,0
0,81,82,0
0,29,104,0
0,38,91,0
0,42,59,0
0,77,82,0
0,64,126,0
0,48,48,0
0,41,61,0
0,79,82,0
0,29,102,0
0,42,84,0
0,65,124,0
0,81,82,0
0,48,61,0
0,41,76,0
0,82,82,0
0,29,108,0
0,36,113,0
0,42,75,0
0,74,82,0
0,41,70,0
0,48,52,0
0,77,82,0
0,29,110,0
0,42,82,0
0,82,82,48
0,64,120,12
0,41,74,0
0,48,59,0
0,84,82,0
0,77,82,0
0,29,112,0
0,38,88,0
0,42,70,0
0,62,118,0
0,48,50,0
0,41,70,0
0,82,82,0
0,29,110,0
0,42,84,0
0,60,119,12
0,41,74,8
0,48,58,0
0,79,82,0
0,29,110,0
0,36,113,0
0,42,56,0
0,72,82,48
0,40,14,0
0,40,14,12
0,40,14,4
0,40,14,8
0,40,16,32
0,41,65,8
0,48,49,0
0,76,82,0
0,29,110,0
0,42,84,0
0,40,14,0
0,40,27,16
0,40,14,8
0,40,33,0
0,40,19,12
0,40,44,12
0,77,82,4
0,40,20,8
0,40,51,12
0,40,32,8
0,40,61,12
0,40,48,12
0,40,72,4
0,60,122,4
0,48,56,0
0,41,72,0
0,79,82,0
0,29,115,0
0,38,88,0
0,42,62,0
0,72,82,48
0,60,122,12
0,41,70,0
0,48,56,0
0,77,82,0
0,29,115,0
