track,note,velocity,time
1,63,127,0
1,41,127,0
1,53,127,0
1,55,127,0
1,58,127,0
1,65,127,0
1,65,0,80
1,63,0,0
1,58,0,0
1,58,127,40
1,63,127,0
1,65,127,0
1,65,0,80
1,58,0,0
1,63,0,0
1,58,127,40
1,63,127,0
1,65,127,0
1,65,0,80
1,58,0,0
1,63,0,0
1,36,127,20
1,36,0,20
1,41,0,0
1,41,127,0
1,58,127,0
1,63,127,0
1,65,127,0
1,41,0,40
1,39,127,0
1,63,0,40
1,58,0,0
1,65,0,0
1,55,0,40
1,53,0,0
1,39,0,0
1,37,127,0
1,49,127,0
1,53,127,0
1,63,127,0
1,65,127,0
1,56,127,0
1,56,0,80
1,63,0,0
1,65,0,0
1,63,127,40
1,65,127,0
1,56,127,0
1,56,0,80
1,63,0,0
1,65,0,0
1,49,0,40
1,37,0,0
1,53,0,0
1,36,127,0
1,48,127,0
1,55,127,0
1,63,127,0
1,65,127,0
1,58,127,0
1,58,0,80
1,63,0,0
1,65,0,0
1,65,127,40
1,63,127,0
1,58,127,0
1,58,0,80
1,65,0,0
1,63,0,0
1,48,0,40
1,36,0,0
1,55,0,0
1,41,127,0
1,55,127,0
1,53,127,0
1,63,127,0
1,65,127,0
1,58,127,0
1,58,0,80
1,63,0,0
1,65,0,0
1,63,127,40
1,65,127,0
1,58,127,0
1,58,0,80
1,63,0,0
1,65,0,0
1,63,127,40
1,65,127,0
1,58,127,0
1,58,0,80
1,63,0,0
1,65,0,0
1,36,127,20
1,36,0,20
1,41,0,0
1,41,127,0
1,63,127,0
1,65,127,0
1,58,127,0
1,41,0,40
1,39,127,0
1,65,0,40
1,63,0,0
1,58,0,0
1,55,0,40
1,53,0,0
1,39,0,0
1,37,127,0
1,49,127,0
1,63,127,0
1,65,127,0
1,56,127,0
1,56,0,80
1,63,0,0
1,65,0,0
1,63,127,40
1,65,127,0
1,56,127,0
1,56,0,80
1,63,0,0
1,65,0,0
1,49,0,40
1,37,0,0
1,36,127,0
1,55,127,0
1,48,127,0
1,63,127,0
1,65,127,0
1,58,127,0
1,58,0,40
1,55,0,0
1,48,0,0
1,36,0,0
1,65,0,0
1,63,0,0
1,34,127,60
1,46,127,0
1,46,0,20
1,34,0,0
1,36,127,0
1,48,127,0
1,48,0,40
1,36,0,0
1,39,127,0
1,51,127,0
1,51,0,60
1,39,0,0
1,36,127,0
1,48,127,0
1,48,0,20
1,36,0,0
1,56,127,0
1,63,127,0
1,60,127,0
1,65,127,0
1,53,127,0
1,41,127,0
1,41,0,60
1,53,0,0
1,60,0,340
1,56,0,0
1,63,0,0
1,65,0,0
1,56,127,60
1,60,127,0
1,63,127,0
1,65,127,0
1,65,0,400
1,56,0,0
1,60,0,0
1,63,0,0
1,56,127,80
1,60,127,0
1,63,127,0
1,65,127,0
1,65,0,400
1,56,0,0
1,60,0,0
1,63,0,0
1,56,127,80
1,60,127,0
1,63,127,0
1,65,127,0
1,65,0,400
1,56,0,0
1,60,0,0
1,63,0,0
1,60,127,220
1,56,127,0
1,65,127,0
1,65,0,40
1,56,0,0
1,60,0,0
1,58,127,0
1,55,127,0
1,63,127,0
1,63,0,20
1,55,0,0
1,58,0,0
1,56,127,0
1,60,127,0
1,60,0,40
1,56,0,0
1,58,127,0
1,63,127,0
1,55,127,0
1,55,0,80
1,63,0,0
1,58,0,0
1,60,127,0
1,65,127,0
1,56,127,0
1,56,0,40
1,65,0,0
1,60,0,0
1,60,127,260
1,56,127,0
1,65,127,0
1,65,0,40
1,56,0,0
1,60,0,0
1,58,127,0
1,55,127,0
1,63,127,0
1,63,0,20
1,55,0,0
1,58,0,0
1,51,127,0
1,56,127,0
1,60,127,0
1,60,0,40
1,56,0,0
1,51,0,0
1,55,127,0
1,58,127,0
1,63,127,0
1,63,0,80
1,58,0,0
1,55,0,0
1,60,127,0
1,56,127,0
1,65,127,0
1,65,0,40
1,56,0,0
1,60,0,0
1,56,127,120
1,61,127,0
1,53,127,0
1,58,127,0
1,58,0,380
1,56,0,0
1,61,0,0
1,53,0,0
1,61,127,100
1,53,127,0
1,56,127,0
1,58,127,0
1,58,0,380
1,61,0,0
1,53,0,0
1,56,0,0
1,65,127,240
1,60,127,0
1,56,127,0
1,56,0,40
1,60,0,0
1,65,0,0
1,63,127,0
1,58,127,0
1,55,127,0
1,55,0,20
1,58,0,0
1,63,0,0
1,56,127,0
1,60,127,0
1,60,0,40
1,56,0,0
1,63,127,0
1,58,127,0
1,55,127,0
1,55,0,80
1,58,0,0
1,63,0,0
1,56,127,0
1,60,127,0
1,65,127,0
1,65,0,40
1,60,0,0
1,56,0,0
1,56,127,200
1,60,127,0
1,65,127,0
1,65,0,40
1,60,0,0
1,56,0,0
1,60,127,20
1,56,127,0
1,65,127,0
1,65,0,40
1,56,0,0
1,60,0,0
1,58,127,0
1,55,127,0
1,63,127,0
1,63,0,20
1,55,0,0
1,58,0,0
1,51,127,0
1,56,127,0
1,60,127,0
1,60,0,40
1,56,0,0
1,51,0,0
1,55,127,0
1,58,127,0
1,63,127,0
1,63,0,80
1,58,0,0
1,55,0,0
1,60,127,0
1,56,127,0
1,65,127,0
1,65,0,40
1,56,0,0
1,60,0,0
1,58,127,140
1,63,127,0
1,65,127,0
1,65,0,80
1,63,0,0
1,58,0,0
1,63,127,40
1,65,127,0
1,58,127,0
1,58,0,80
1,65,0,0
1,63,0,0
1,63,127,40
1,65,127,0
1,58,127,0
1,58,0,80
1,65,0,0
1,63,0,0
1,36,127,20
1,36,0,20
1,41,127,0
1,63,127,0
1,65,127,0
1,58,127,0
1,41,0,40
1,39,127,0
1,63,0,40
1,58,0,0
1,65,0,0
1,39,0,40
1,37,127,0
1,49,127,0
1,63,127,0
1,65,127,0
1,56,127,0
1,56,0,80
1,63,0,0
1,65,0,0
1,63,127,40
1,65,127,0
1,56,127,0
1,56,0,80
1,63,0,0
1,65,0,0
1,49,0,40
1,37,0,0
1,36,127,0
1,55,127,0
1,48,127,0
1,63,127,0
1,65,127,0
1,58,127,0
1,58,0,40
1,55,0,0
1,48,0,0
1,36,0,0
1,65,0,0
1,63,0,0
1,58,127,300
1,46,127,0
1,34,127,0
1,34,0,20
1,46,0,0
1,58,0,0
1,60,127,0
1,36,127,0
1,48,127,0
1,48,0,40
1,36,0,0
1,60,0,0
1,63,127,0
1,39,127,0
1,51,127,0
1,51,0,60
1,39,0,0
1,63,0,0
1,60,127,0
1,48,127,0
1,36,127,0
1,36,0,20
1,48,0,0
1,60,0,0
1,56,127,0
1,63,127,0
1,60,127,0
1,65,127,0
1,53,127,0
1,41,127,0
1,41,0,60
1,53,0,0
1,60,0,340
1,56,0,0
1,63,0,0
1,65,0,0
1,56,127,60
1,60,127,0
1,63,127,0
1,65,127,0
1,65,0,400
1,56,0,0
1,60,0,0
1,63,0,0
1,56,127,220
1,65,127,0
1,60,127,0
1,60,0,40
1,65,0,0
1,56,0,0
1,58,127,0
1,63,127,0
1,55,127,0
1,55,0,20
1,63,0,0
1,58,0,0
1,60,127,0
1,56,127,0
1,56,0,40
1,60,0,0
1,63,127,0
1,55,127,0
1,58,127,0
1,58,0,80
1,55,0,0
1,63,0,0
1,60,127,0
1,56,127,0
1,65,127,0
1,65,0,40
1,56,0,0
1,60,0,0
1,65,127,260
1,56,127,0
1,60,127,0
1,60,0,40
1,56,0,0
1,65,0,0
1,63,127,0
1,55,127,0
1,58,127,0
1,58,0,20
1,55,0,0
1,63,0,0
1,51,127,0
1,56,127,0
1,60,127,0
1,60,0,40
1,56,0,0
1,51,0,0
1,55,127,0
1,58,127,0
1,63,127,0
1,63,0,80
1,58,0,0
1,55,0,0
1,65,127,0
1,56,127,0
1,60,127,0
1,60,0,40
1,56,0,0
1,65,0,0
1,53,127,120
1,58,127,0
1,56,127,0
1,61,127,0
1,61,0,380
1,53,0,0
1,58,0,0
1,56,0,0
1,61,127,100
1,53,127,0
1,56,127,0
1,58,127,0
1,58,0,380
1,61,0,0
1,53,0,0
1,56,0,0
1,56,127,120
1,60,127,0
1,63,127,0
1,65,127,0
1,65,0,360
1,56,0,0
1,60,0,0
1,63,0,0
1,63,127,120
1,41,127,0
1,53,127,0
1,55,127,0
1,58,127,0
1,65,127,0
1,65,0,80
1,63,0,0
1,58,0,0
1,58,127,40
1,63,127,0
1,65,127,0
1,65,0,80
1,58,0,0
1,63,0,0
1,58,127,40
1,63,127,0
1,65,127,0
1,65,0,80
1,58,0,0
1,63,0,0
1,36,127,20
1,36,0,20
1,41,0,0
1,41,127,0
1,58,127,0
1,63,127,0
1,65,127,0
1,41,0,40
1,39,127,0
1,63,0,40
1,58,0,0
1,65,0,0
1,55,0,40
1,53,0,0
1,39,0,0
1,37,127,0
1,49,127,0
1,53,127,0
1,63,127,0
1,65,127,0
1,56,127,0
1,56,0,80
1,63,0,0
1,65,0,0
1,63,127,40
1,65,127,0
1,56,127,0
1,56,0,80
1,63,0,0
1,65,0,0
1,49,0,40
1,37,0,0
1,53,0,0
1,36,127,0
1,48,127,0
1,55,127,0
1,63,127,0
1,65,127,0
1,58,127,0
1,58,0,80
1,63,0,0
1,65,0,0
1,65,127,40
1,63,127,0
1,58,127,0
1,58,0,80
1,65,0,0
1,63,0,0
1,48,0,40
1,36,0,0
1,55,0,0
1,61,127,120
1,65,127,0
1,70,127,0
1,70,0,40
1,65,0,0
1,61,0,0
1,60,127,0
1,63,127,0
1,68,127,0
1,68,0,20
1,63,0,0
1,60,0,0
1,58,127,0
1,61,127,0
1,65,127,0
1,65,0,40
1,61,0,0
1,58,0,0
1,60,127,0
1,63,127,0
1,68,127,0
1,68,0,80
1,63,0,0
1,60,0,0
1,65,127,0
1,61,127,0
1,70,127,0
1,70,0,40
1,61,0,0
1,65,0,0
1,61,127,200
1,65,127,0
1,70,127,0
1,70,0,40
1,65,0,0
1,61,0,0
1,61,127,20
1,65,127,0
1,70,127,0
1,70,0,40
1,65,0,0
1,61,0,0
1,60,127,0
1,63,127,0
1,68,127,0
1,68,0,20
1,63,0,0
1,60,0,0
1,58,127,0
1,61,127,0
1,65,127,0
1,65,0,40
1,61,0,0
1,58,0,0
1,60,127,0
1,63,127,0
1,68,127,0
1,68,0,80
1,63,0,0
1,60,0,0
1,65,127,0
1,61,127,0
1,70,127,0
1,70,0,40
1,61,0,0
1,65,0,0
1,56,127,200
1,60,127,0
1,65,127,0
1,65,127,0
1,65,0,40
1,56,0,0
1,60,0,0
1,65,0,0
1,56,127,20
1,60,127,0
1,65,127,0
1,65,0,40
1,60,0,0
1,56,0,0
1,55,127,0
1,63,127,0
1,63,0,20
1,55,0,0
1,53,127,0
1,60,127,0
1,60,0,40
1,53,0,0
1,55,127,0
1,63,127,0
1,58,127,0
1,58,0,80
1,63,0,0
1,55,0,0
1,56,127,0
1,65,127,0
1,60,127,0
1,60,0,40
1,65,0,0
1,56,0,0
1,60,127,200
1,65,127,0
1,65,127,0
1,56,127,0
1,56,0,40
1,60,0,0
1,65,0,0
1,65,0,0
1,60,127,20
1,65,127,0
1,56,127,0
1,56,0,40
1,65,0,0
1,60,0,0
1,55,127,0
1,63,127,0
1,63,0,20
1,55,0,0
1,56,127,0
1,60,127,0
1,60,0,40
1,56,0,0
1,55,127,0
1,58,127,0
1,63,127,0
1,63,127,0
1,63,0,60
1,55,0,20
1,58,0,0
1,63,0,0
1,56,127,0
1,65,127,0
1,63,127,0
1,60,127,0
1,60,0,40
1,56,0,0
1,65,0,0
1,63,0,0
1,61,127,200
1,65,127,0
1,70,127,0
1,70,0,40
1,65,0,0
1,61,0,0
1,61,127,20
1,65,127,0
1,70,127,0
1,70,0,40
1,65,0,0
1,61,0,0
1,60,127,0
1,63,127,0
1,68,127,0
1,68,0,20
1,63,0,0
1,60,0,0
1,58,127,0
1,61,127,0
1,65,127,0
1,65,0,40
1,61,0,0
1,58,0,0
1,60,127,0
1,63,127,0
1,68,127,0
1,68,0,80
1,63,0,0
1,60,0,0
1,65,127,0
1,61,127,0
1,70,127,0
1,70,0,40
1,61,0,0
1,65,0,0
1,61,127,200
1,65,127,0
1,70,127,0
1,70,0,40
1,65,0,0
1,61,0,0
1,61,127,20
1,65,127,0
1,70,127,0
1,70,0,40
1,65,0,0
1,61,0,0
1,60,127,0
1,63,127,0
1,68,127,0
1,68,0,20
1,63,0,0
1,60,0,0
1,58,127,0
1,61,127,0
1,65,127,0
1,65,0,40
1,61,0,0
1,58,0,0
1,60,127,0
1,63,127,0
1,68,127,0
1,68,0,80
1,63,0,0
1,60,0,0
1,65,127,0
1,61,127,0
1,70,127,0
1,70,0,40
1,61,0,0
1,65,0,0
1,58,127,180
1,64,127,0
1,67,127,0
1,60,127,0
1,60,0,60
1,58,0,0
1,64,0,0
1,67,0,0
1,58,127,20
1,64,127,0
1,67,127,0
1,60,127,0
1,60,0,60
1,58,0,0
1,64,0,0
1,67,0,0
1,60,127,40
1,67,127,0
1,64,127,0
1,58,127,0
1,58,0,60
1,60,0,0
1,67,0,0
1,64,0,0
1,58,127,20
1,64,127,0
1,67,127,0
1,60,127,0
1,60,0,60
1,58,0,0
1,64,0,0
1,67,0,0
1,58,127,40
1,64,127,0
1,67,127,0
1,60,127,0
1,60,0,60
1,58,0,0
1,64,0,0
1,67,0,0
1,58,127,20
1,64,127,0
1,67,127,0
1,60,127,0
1,60,0,100
1,58,0,0
1,64,0,0
1,67,0,0
1,65,127,80
1,61,127,0
1,70,127,0
1,70,0,40
1,61,0,0
1,65,0,0
1,60,127,0
1,68,127,0
1,68,0,20
1,60,0,0
1,65,127,0
1,61,127,0
1,70,127,0
1,70,0,60
1,61,0,0
1,65,0,0
1,68,127,0
1,60,127,0
1,60,0,40
1,68,0,0
1,70,127,0
1,65,127,0
1,61,127,0
1,61,0,60
1,65,0,0
1,70,0,0
1,68,127,0
1,63,127,0
1,60,127,0
1,60,0,20
1,63,0,0
1,68,0,0
1,65,127,0
1,61,127,0
1,70,127,0
1,70,0,20
1,61,0,0
1,65,0,0
1,63,127,0
1,67,127,0
1,72,127,0
1,72,0,120
1,67,0,0
1,63,0,0
1,65,127,100
1,61,127,0
1,70,127,0
1,70,0,40
1,61,0,0
1,65,0,0
1,60,127,0
1,68,127,0
1,68,0,20
1,60,0,0
1,65,127,0
1,61,127,0
1,70,127,0
1,70,0,60
1,61,0,0
1,65,0,0
1,68,127,0
1,60,127,0
1,60,0,40
1,68,0,0
1,63,127,0
1,72,127,0
1,68,127,0
1,65,127,0
1,65,0,60
1,63,0,0
1,72,0,0
1,68,0,0
1,60,127,20
1,68,127,0
1,65,127,0
1,65,0,40
1,68,0,0
1,60,0,0
1,58,127,20
1,63,127,0
1,67,127,0
1,67,0,40
1,63,0,0
1,58,0,0
1,56,127,20
1,60,127,0
1,65,127,0
1,65,0,40
1,60,0,0
1,56,0,0
1,60,127,0
1,68,127,0
1,65,127,0
1,65,0,80
1,68,0,0
1,60,0,0
1,56,127,0
1,60,127,0
1,65,127,0
1,65,0,40
1,60,0,0
1,56,0,0
1,56,127,20
1,65,127,0
1,60,127,0
1,60,0,40
1,65,0,0
1,56,0,0
1,58,127,0
1,63,127,0
1,55,127,0
1,55,0,20
1,63,0,0
1,58,0,0
1,60,127,0
1,56,127,0
1,56,0,40
1,60,0,0
1,63,127,0
1,55,127,0
1,58,127,0
1,58,0,80
1,55,0,0
1,63,0,0
1,60,127,0
1,56,127,0
1,65,127,0
1,65,0,40
1,56,0,0
1,60,0,0
1,56,127,200
1,65,127,0
1,60,127,0
1,60,0,40
1,65,0,0
1,56,0,0
1,56,127,20
1,65,127,0
1,60,127,0
1,60,0,40
1,65,0,0
1,56,0,0
1,58,127,0
1,63,127,0
1,55,127,0
1,55,0,20
1,63,0,0
1,58,0,0
1,60,127,0
1,56,127,0
1,56,0,40
1,60,0,0
1,63,127,0
1,55,127,0
1,58,127,0
1,58,0,80
1,55,0,0
1,63,0,0
1,60,127,0
1,56,127,0
