track,note,velocity,time
1,46,75,0
1,46,0,160
1,42,75,32
1,57,75,0
1,42,0,160
1,57,0,0
1,42,75,32
1,42,0,160
1,42,75,32
1,42,0,160
1,42,75,32
1,42,0,94
1,46,75,2
1,46,0,94
1,42,75,2
1,42,0,160
1,42,75,32
1,42,0,160
1,42,75,32
1,42,0,160
1,42,75,32
1,42,0,94
1,46,75,2
1,46,0,94
1,42,75,2
1,42,0,160
1,42,75,32
1,42,0,160
1,42,75,32
1,42,0,160
1,42,75,32
1,42,0,94
1,46,75,2
1,46,0,94
1,42,75,2
1,42,0,160
1,42,75,32
1,42,0,160
1,42,75,32
1,42,0,160
1,42,75,32
1,42,0,94
1,46,75,2
1,46,0,94
1,42,75,2
1,57,75,0
1,42,0,160
1,57,0,0
1,42,75,32
1,42,0,160
1,42,75,32
1,42,0,160
1,42,75,32
1,42,0,94
1,46,75,2
1,46,0,94
1,42,75,2
1,42,0,160
1,42,75,32
1,42,0,160
1,42,75,32
1,42,0,160
1,42,75,32
1,42,0,94
1,46,75,2
1,46,0,94
1,42,75,2
1,42,0,160
1,42,75,32
1,42,0,160
1,42,75,32
1,42,0,160
1,42,75,32
1,42,0,94
1,46,75,2
1,46,0,94
1,42,75,2
1,42,0,160
1,42,75,32
1,42,0,160
1,42,75,32
1,42,0,160
1,42,75,32
1,42,0,94
1,46,75,2
1,46,0,94
1,42,75,2
1,57,75,0
1,42,0,160
1,57,0,0
1,42,75,32
1,42,0,160
1,42,75,32
1,42,0,160
1,42,75,32
1,42,0,94
1,46,75,2
1,46,0,94
1,42,75,2
1,42,0,160
1,42,75,32
1,42,0,160
1,42,75,32
1,42,0,160
1,42,75,32
1,42,0,94
1,46,75,2
1,46,0,94
1,42,75,2
1,42,0,160
1,42,75,32
1,42,0,160
1,42,75,32
1,42,0,160
1,42,75,32
1,42,0,94
1,46,75,2
1,46,0,94
1,42,75,2
1,42,0,160
1,42,75,32
1,42,0,160
1,42,75,32
1,42,0,160
1,42,75,32
1,42,0,94
1,46,75,2
1,46,0,94
1,42,75,2
1,57,75,0
1,42,0,160
1,57,0,0
1,42,75,32
1,42,0,160
1,42,75,32
1,42,0,160
1,42,75,32
1,42,0,94
1,46,75,2
1,46,0,94
1,42,75,2
1,42,0,160
1,46,75,32
1,46,0,94
1,42,75,2
1,42,0,94
1,42,75,2
1,42,0,160
1,42,75,32
1,42,0,94
1,46,75,2
1,46,0,94
1,46,75,1442
1,46,0,94
1,42,75,2
1,57,75,0
1,42,0,160
1,57,0,0
1,42,75,32
1,42,0,160
1,42,75,32
1,42,0,160
1,42,75,32
1,42,0,94
1,46,75,2
1,46,0,94
1,42,75,2
1,42,0,160
1,42,75,32
1,42,0,160
1,42,75,32
1,42,0,160
1,42,75,32
1,42,0,94
1,46,75,2
1,46,0,94
1,42,75,2
1,42,0,160
1,42,75,32
1,42,0,160
1,42,75,32
1,42,0,160
1,42,75,32
1,42,0,94
1,46,75,2
1,46,0,94
1,42,75,2
1,42,0,160
1,42,75,32
1,42,0,160
1,42,75,32
1,42,0,160
1,42,75,32
1,42,0,94
1,46,75,2
1,46,0,94
1,42,75,2
1,57,75,0
1,42,0,160
1,57,0,0
1,42,75,32
1,42,0,160
1,42,75,32
1,42,0,160
1,42,75,32
1,42,0,94
1,46,75,2
1,46,0,94
1,42,75,2
1,42,0,160
1,42,75,32
1,42,0,160
1,42,75,32
1,42,0,160
1,42,75,32
1,42,0,94
1,46,75,2
1,46,0,94
1,42,75,2
1,42,0,160
1,42,75,32
1,42,0,160
1,42,75,32
1,42,0,160
1,42,75,32
1,42,0,94
1,46,75,2
1,46,0,94
1,42,75,2
1,42,0,160
1,46,75,512
1,46,0,94
1,42,75,2
1,42,0,160
1,42,75,32
1,57,75,0
1,42,0,160
1,57,0,0
1,42,75,32
1,42,0,160
1,42,75,32
1,42,0,94
1,46,75,2
1,46,0,94
1,42,75,2
1,42,0,160
1,42,75,32
1,57,75,0
1,42,0,160
1,57,0,0
1,42,75,32
1,42,0,160
1,42,75,32
1,42,0,94
1,46,75,2
1,46,0,94
1,42,75,2
1,42,0,160
1,42,75,32
1,42,0,160
1,42,75,32
1,42,0,160
1,42,75,32
1,42,0,94
1,46,75,2
1,57,75,0
1,46,0,94
1,57,0,0
1,42,75,2
1,42,0,160
1,42,75,32
1,42,0,160
1,42,75,32
1,42,0,160
1,42,75,32
1,42,0,94
1,46,75,2
1,57,75,0
1,46,0,94
1,57,0,0
1,42,75,2
1,42,0,160
1,42,75,32
1,57,75,0
1,42,0,160
1,57,0,0
1,42,75,32
1,42,0,160
1,42,75,32
1,42,0,94
1,46,75,2
1,46,0,94
1,42,75,2
1,42,0,160
1,42,75,32
1,57,75,0
1,42,0,160
1,57,0,0
1,42,75,32
1,42,0,160
1,42,75,32
1,42,0,94
1,46,75,2
1,57,75,0
1,46,0,94
1,57,0,0
1,42,75,2
1,42,0,160
1,42,75,32
1,42,0,160
1,42,75,32
1,42,0,160
1,42,75,32
1,42,0,94
1,46,75,2
1,57,75,0
1,46,0,94
1,57,0,0
1,42,75,386
1,57,75,0
1,42,0,160
1,57,0,0
1,42,75,32
1,42,0,160
1,42,75,32
1,42,0,160
1,42,75,32
1,42,0,94
1,46,75,2
1,46,0,94
1,42,75,2
1,42,0,160
1,42,75,32
1,42,0,160
1,42,75,32
1,42,0,160
1,42,75,32
1,42,0,94
1,46,75,2
1,46,0,94
1,42,75,2
1,42,0,160
1,42,75,32
1,42,0,160
1,42,75,32
1,42,0,160
1,42,75,32
1,42,0,94
1,46,75,2
1,46,0,94
1,42,75,2
1,42,0,160
1,42,75,32
1,42,0,160
1,42,75,32
1,42,0,160
1,42,75,32
1,42,0,94
1,46,75,2
1,46,0,94
1,42,75,2
1,57,75,0
1,42,0,160
1,57,0,0
1,42,75,32
1,42,0,160
1,42,75,32
1,42,0,160
1,42,75,32
1,42,0,94
1,46,75,2
1,46,0,94
1,42,75,2
1,42,0,160
1,42,75,32
1,42,0,160
1,42,75,32
1,42,0,160
1,42,75,32
1,42,0,94
1,46,75,2
1,46,0,94
1,42,75,2
1,42,0,160
1,42,75,32
1,42,0,160
1,42,75,32
1,42,0,160
1,42,75,32
1,42,0,94
1,46,75,2
1,46,0,94
1,42,75,2
1,42,0,160
1,46,75,512
1,46,0,94
1,42,75,2
1,42,0,160
1,42,75,32
1,57,75,0
1,42,0,160
1,57,0,0
1,42,75,32
1,42,0,160
1,42,75,32
1,42,0,94
1,46,75,2
1,46,0,94
1,42,75,2
1,42,0,160
1,42,75,32
1,57,75,0
1,42,0,160
1,57,0,0
1,42,75,32
1,42,0,160
1,42,75,32
1,42,0,94
1,46,75,2
1,46,0,94
1,42,75,2
1,42,0,160
1,42,75,32
1,57,75,0
1,42,0,160
1,57,0,0
1,42,75,32
1,42,0,160
1,42,75,32
1,42,0,94
1,46,75,2
1,46,0,94
1,42,75,2
1,42,0,160
1,42,75,32
1,42,0,160
1,42,75,32
1,57,75,0
1,42,0,94
1,57,0,0
1,46,75,2
1,46,0,94
1,42,75,2
1,42,0,94
1,46,75,2
1,46,0,94
1,42,75,2
1,42,0,160
1,42,75,32
1,57,75,0
1,42,0,160
1,57,0,0
1,42,75,32
1,42,0,160
1,42,75,32
1,42,0,94
1,46,75,2
1,46,0,94
1,42,75,2
1,42,0,160
1,42,75,32
1,57,75,0
1,42,0,160
1,57,0,0
1,42,75,32
1,42,0,160
1,42,75,32
1,42,0,94
1,46,75,2
1,46,0,94
1,42,75,2
1,42,0,160
1,42,75,32
1,42,0,160
1,42,75,32
1,42,0,160
1,42,75,32
1,42,0,94
1,46,75,2
1,57,75,0
1,46,0,94
1,57,0,0
1,42,75,386
1,42,0,160
1,42,75,32
1,42,0,160
1,42,75,32
1,42,0,160
1,42,75,32
1,42,0,94
1,46,75,2
1,46,0,94
1,42,75,2
1,42,0,160
1,42,75,32
1,42,0,160
1,42,75,32
1,42,0,160
1,42,75,32
1,42,0,94
1,46,75,2
1,46,0,94
1,42,75,2
1,42,0,160
1,42,75,32
1,42,0,160
1,42,75,32
1,42,0,160
1,42,75,32
1,42,0,94
1,46,75,2
1,46,0,94
1,42,75,2
1,42,0,160
1,42,75,32
1,42,0,160
1,42,75,32
1,42,0,160
1,42,75,32
1,42,0,94
1,46,75,2
1,46,0,94
1,42,75,2
1,57,75,0
1,42,0,160
1,57,0,0
1,42,75,32
1,42,0,160
1,42,75,32
1,42,0,160
1,42,75,32
1,42,0,94
1,46,75,2
1,46,0,94
1,42,75,2
1,42,0,160
1,42,75,32
1,42,0,160
1,42,75,32
1,42,0,160
1,42,75,32
1,42,0,94
1,46,75,2
1,46,0,94
1,42,75,2
1,57,75,0
1,42,0,160
1,57,0,0
1,42,75,32
1,42,0,160
1,42,75,32
1,42,0,160
1,42,75,32
1,42,0,94
1,46,75,2
1,46,0,94
1,42,75,2
1,42,0,160
1,42,75,32
1,42,0,160
1,42,75,32
1,42,0,160
1,42,75,32
1,42,0,94
1,46,75,2
1,46,0,94
1,42,75,2
1,42,0,160
1,42,75,32
1,42,0,160
1,42,75,32
1,57,75,0
1,42,0,256
1,57,0,0
1,46,75,32
1,46,0,94
1,42,75,2
1,57,75,0
1,42,0,160
1,57,0,0
1,42,75,32
1,42,0,160
1,42,75,32
1,42,0,160
1,42,75,32
1,42,0,94
1,46,75,2
1,46,0,94
1,42,75,2
1,42,0,160
1,42,75,32
1,42,0,160
1,42,75,32
1,42,0,160
1,42,75,32
1,42,0,94
1,46,75,2
1,46,0,94
1,42,75,2
1,42,0,160
1,42,75,32
1,42,0,160
1,42,75,32
1,42,0,160
1,42,75,32
1,42,0,94
1,46,75,2
1,46,0,94
1,42,75,2
1,42,0,160
1,42,75,32
1,42,0,160
1,42,75,32
1,42,0,160
1,42,75,32
1,42,0,94
1,46,75,2
1,46,0,94
1,42,75,2
1,57,75,0
1,42,0,160
1,57,0,0
1,42,75,32
1,42,0,160
1,42,75,32
1,42,0,160
1,42,75,32
1,42,0,94
1,46,75,2
1,46,0,94
1,42,75,2
1,42,0,160
1,42,75,32
1,42,0,160
1,42,75,32
1,42,0,160
1,42,75,32
1,42,0,94
1,46,75,2
1,46,0,94
1,42,75,2
1,42,0,160
1,42,75,32
1,42,0,160
1,42,75,32
1,42,0,160
1,42,75,32
1,42,0,94
1,46,75,2
1,46,0,94
1,42,75,2
1,42,0,160
1,42,75,32
1,42,0,160
1,42,75,32
1,42,0,160
1,42,75,32
1,42,0,94
1,46,75,2
1,46,0,94
1,42,75,2
1,57,75,0
1,42,0,160
1,57,0,0
1,42,75,32
1,42,0,160
1,42,75,32
1,42,0,160
1,42,75,32
1,42,0,94
1,46,75,2
1,46,0,94
1,42,75,2
1,42,0,160
1,42,75,32
1,42,0,94
1,46,75,2
1,46,0,94
1,42,75,2
1,42,0,160
1,42,75,32
1,42,0,94
1,46,75,2
1,46,0,94
1,42,75,2
1,42,0,160
1,42,75,32
1,42,0,160
1,42,75,32
1,42,0,160
1,42,75,32
1,42,0,94
1,46,75,2
1,46,0,94
1,42,75,2
1,42,0,160
1,46,75,512
1,46,0,94
1,42,75,2
1,42,0,160
1,42,75,32
1,57,75,0
1,42,0,160
1,57,0,0
1,42,75,32
1,42,0,160
1,42,75,32
1,42,0,94
1,46,75,2
1,46,0,94
1,42,75,2
1,42,0,160
1,42,75,32
1,57,75,0
1,42,0,160
1,57,0,0
1,42,75,32
1,42,0,160
1,42,75,32
1,42,0,94
1,46,75,2
1,46,0,94
1,42,75,2
1,42,0,160
1,42,75,32
1,57,75,0
1,42,0,160
1,57,0,0
1,42,75,32
1,42,0,160
1,42,75,32
1,42,0,94
1,46,75,2
1,46,0,94
1,42,75,2
1,42,0,160
1,42,75,32
1,42,0,160
1,42,75,32
1,57,75,0
1,42,0,94
1,57,0,0
1,46,75,2
1,46,0,94
1,42,75,2
1,42,0,94
1,46,75,2
1,46,0,94
1,42,75,2
1,42,0,160
1,42,75,32
1,57,75,0
1,42,0,160
1,57,0,0
1,42,75,32
1,42,0,160
1,42,75,32
1,42,0,94
1,46,75,2
1,46,0,94
1,42,75,2
1,42,0,160
1,42,75,32
1,57,75,0
1,42,0,160
1,57,0,0
1,42,75,32
1,42,0,160
1,42,75,32
1,42,0,94
1,46,75,2
1,46,0,94
1,42,75,2
1,42,0,160
1,42,75,32
1,42,0,160
1,42,75,32
1,42,0,160
1,42,75,32
1,42,0,94
1,46,75,2
1,57,75,0
1,46,0,94
1,57,0,0
1,46,75,674
1,46,0,94
1,42,75,2
1,42,0,160
1,42,75,32
1,42,0,160
1,42,75,32
1,42,0,94
1,46,75,2
1,57,75,0
1,46,0,94
1,57,0,0
1,42,75,2
1,57,75,0
1,42,0,94
1,57,0,0
1,46,75,2
1,57,75,0
1,46,0,94
1,57,0,0
1,42,75,2
1,42,0,160
1,42,75,32
1,57,75,0
1,42,0,160
1,57,0,0
1,42,75,32
1,42,0,160
1,42,75,32
1,42,0,94
1,46,75,2
1,46,0,94
1,42,75,2
1,42,0,160
1,42,75,32
1,57,75,0
1,42,0,160
1,57,0,0
1,42,75,32
1,42,0,160
1,42,75,32
1,42,0,94
1,46,75,2
1,57,75,0
1,46,0,94
1,57,0,0
1,42,75,386
1,42,0,160
1,42,75,32
1,42,0,160
1,42,75,32
1,42,0,160
1,42,75,32
1,42,0,94
1,46,75,2
1,46,0,94
1,42,75,2
1,42,0,160
1,42,75,32
1,42,0,160
1,42,75,32
1,42,0,160
1,42,75,32
1,42,0,94
1,46,75,2
1,46,0,94
1,42,75,0
1,42,0,7
1,42,75,0
1,42,0,7
1,42,75,0
1,42,0,7
1,42,75,0
1,42,0,18
1,46,75,0
1,46,0,18
1,42,75,0
1,42,0,19
1,42,75,11
1,42,0,9
1,42,75,1
1,42,0,19
1,42,75,11
1,42,0,4
1,46,75,2
1,46,0,19
1,42,75,0
1,57,75,0
1,42,0,4
1,57,0,0
1,42,75,4
1,42,0,8
1,42,75,8
1,42,0,12
1,42,75,12
1,42,0,12
1,46,75,2
1,46,0,14
1,42,75,0
1,42,0,160
1,42,75,32
1,42,0,160
1,42,75,32
1,42,0,160
1,42,75,32
1,42,0,94
1,46,75,2
1,46,0,94
2,36,92,192
2,36,0,160
2,36,92,32
2,38,92,0
2,36,0,160
2,38,0,0
2,36,92,32
2,36,0,160
2,36,92,32
2,38,92,0
2,36,0,160
2,38,0,0
2,36,92,32
2,36,0,160
2,36,92,32
2,38,92,0
2,36,0,160
2,38,0,0
2,36,92,32
2,36,0,160
2,36,92,32
2,38,92,0
2,36,0,160
2,38,0,0
2,36,92,32
2,36,0,160
2,36,92,32
2,38,92,0
2,36,0,160
2,38,0,0
2,36,92,32
2,36,0,160
2,36,92,32
2,38,92,0
2,36,0,160
2,38,0,0
2,36,92,32
2,36,0,160
2,36,92,32
2,38,92,0
2,36,0,160
2,38,0,0
2,36,92,32
2,36,0,160
2,36,92,32
2,38,92,0
2,36,0,160
2,38,0,0
2,36,92,32
2,36,0,160
2,36,92,32
2,38,92,0
2,36,0,160
2,38,0,0
2,36,92,32
2,36,0,160
2,36,92,32
2,38,92,0
2,36,0,160
2,38,0,0
2,36,92,32
2,36,0,160
2,36,92,32
2,38,92,0
2,36,0,160
2,38,0,0
2,36,92,32
2,36,0,160
2,36,92,32
2,38,92,0
2,36,0,160
2,38,0,0
2,36,92,32
2,36,0,160
2,36,92,32
2,38,92,0
2,36,0,160
2,38,0,0
2,36,92,32
2,36,0,160
2,36,92,32
2,38,92,0
2,36,0,160
2,38,0,0
2,36,92,32
2,36,0,160
2,36,92,32
2,38,92,0
2,36,0,160
2,38,0,0
2,36,92,32
2,36,0,160
2,36,92,32
2,38,92,0
2,36,0,160
2,38,0,0
2,36,92,32
2,36,0,160
2,36,92,32
2,38,92,0
2,36,0,160
2,38,0,0
2,36,92,32
2,36,0,160
2,36,92,32
2,38,92,0
2,36,0,160
2,38,0,0
