track,note,velocity,time
1,40,95,14594
1,35,74,8
1,40,90,22
1,40,92,124
1,35,73,10
1,40,87,18
1,39,82,88
1,39,85,108
1,37,89,96
1,32,85,20
1,37,83,16
1,37,95,126
1,32,72,16
1,37,79,24
1,37,91,110
1,37,97,116
1,35,91,4
1,33,95,96
1,28,69,22
1,33,91,12
1,33,95,120
1,28,69,16
1,33,78,12
1,33,84,102
1,33,88,108
1,38,84,96
1,33,65,14
1,38,77,22
1,38,91,124
1,33,82,18
1,38,79,22
1,38,85,92
1,26,101,12
1,40,95,26
1,35,74,8
1,40,90,22
1,40,92,124
1,35,73,10
1,40,87,18
1,39,82,88
1,39,85,108
1,37,89,96
1,32,85,20
1,37,83,16
1,37,95,126
1,32,72,16
1,37,79,24
1,37,91,110
1,37,97,116
1,35,91,4
1,33,95,96
1,28,69,22
1,33,91,12
1,33,95,120
1,28,69,16
1,33,78,12
1,33,84,102
1,33,88,108
1,38,84,96
1,33,65,14
1,38,77,22
1,38,91,124
1,33,82,18
1,38,79,22
1,38,85,92
1,26,101,12
1,32,83,26
1,35,92,70
1,39,81,84
1,44,81,60
1,44,93,184
1,42,76,2
1,40,77,12
1,39,71,12
1,37,89,4
1,40,88,84
1,44,85,90
1,49,85,94
1,49,81,152
1,47,81,96
1,44,79,112
1,37,86,18
1,30,95,86
1,33,90,56
1,37,95,82
1,42,95,50
1,42,99,104
1,40,74,96
1,39,79,0
1,37,81,96
1,35,81,92
1,44,79,476
1,42,91,2
1,49,75,12
1,47,79,12
1,37,75,10
1,35,96,96
1,37,78,188
1,35,85,16
1,35,101,34
1,40,112,18
1,40,84,64
1,40,98,50
1,40,85,48
1,44,97,20
1,47,91,116
1,35,106,88
1,42,85,64
1,42,103,116
1,44,71,28
1,45,99,30
1,44,71,16
1,42,79,4
1,33,102,86
1,40,99,44
1,40,85,46
1,40,87,48
1,40,90,44
1,44,89,18
1,47,90,112
1,35,106,98
1,44,88,40
1,42,95,16
1,42,85,104
1,44,70,0
1,45,82,20
1,44,91,96
1,42,82,2
1,33,104,40
1,40,95,92
1,40,81,42
1,40,90,50
1,40,90,46
1,44,91,36
1,47,96,114
1,47,91,118
1,42,83,96
1,35,98,22
1,42,91,44
1,42,93,98
1,44,71,12
1,45,79,32
1,44,86,96
1,42,86,16
1,33,112,64
1,40,95,26
1,35,74,8
1,40,90,22
1,40,92,124
1,35,73,10
1,40,87,18
1,39,82,88
1,39,85,108
1,37,89,96
1,32,85,20
1,37,83,16
1,37,95,126
1,32,72,16
1,37,79,24
1,37,91,110
1,37,97,116
1,35,91,4
1,33,95,96
1,28,69,22
1,33,91,12
1,33,95,120
1,28,69,16
1,33,78,12
1,33,84,102
1,33,88,108
1,38,84,96
1,33,65,14
1,38,77,22
1,38,91,124
1,33,82,18
1,38,79,22
1,38,85,92
1,26,101,12
1,40,95,26
1,35,74,8
1,40,90,22
1,40,92,124
1,35,73,12
1,40,87,18
1,40,91,30
1,39,82,50
1,39,85,108
1,47,89,2
1,37,89,66
1,32,85,20
1,37,83,16
1,37,95,126
1,32,72,16
1,37,79,24
1,37,91,110
1,37,97,116
1,35,91,4
1,33,95,96
1,28,69,22
1,33,91,12
1,33,95,120
1,28,69,16
1,33,78,12
1,33,84,102
1,33,88,108
1,38,84,96
1,33,65,14
1,38,77,22
1,38,91,124
1,33,82,18
1,38,79,24
1,38,85,90
1,26,101,12
1,32,83,26
1,35,92,70
1,39,81,84
1,44,81,60
1,44,93,184
1,42,76,2
1,40,77,12
1,39,71,12
1,37,89,4
1,40,88,84
1,44,85,90
1,49,85,94
1,49,81,152
1,44,81,96
1,44,79,112
1,37,86,18
1,30,95,86
1,33,90,56
1,37,95,82
1,42,95,50
1,44,88,56
1,45,88,26
1,44,88,4
1,42,82,12
1,39,74,20
1,47,89,26
1,35,99,768
1,40,112,42
1,40,84,66
1,40,98,48
1,40,85,48
1,44,97,20
1,47,91,116
1,35,106,88
1,42,85,64
1,42,103,116
1,44,71,28
1,45,99,30
1,44,71,16
1,42,79,4
1,33,102,86
1,40,99,44
1,40,85,46
1,40,87,48
1,40,90,44
1,44,89,18
1,47,90,112
1,35,106,98
1,42,95,136
1,42,85,104
1,44,70,0
1,45,82,20
1,44,91,96
1,42,82,2
1,33,104,40
1,40,95,92
1,40,81,42
1,40,90,50
1,40,90,46
1,44,91,36
1,49,96,114
1,44,96,24
1,47,91,22
1,42,83,94
1,35,98,22
1,42,91,44
1,42,93,98
1,44,71,12
1,45,79,32
1,44,86,96
1,42,86,16
1,33,112,64
1,49,90,4
1,40,102,20
1,40,95,24
1,35,74,8
1,40,90,22
1,40,92,124
1,35,73,12
1,40,87,16
1,44,82,88
1,44,85,108
1,37,89,96
1,32,85,20
1,37,83,16
1,37,95,126
1,32,72,16
1,37,79,24
1,37,91,110
1,37,97,116
1,35,91,4
1,33,95,96
1,28,88,22
1,33,91,12
1,33,95,120
1,28,89,16
1,33,78,12
1,32,84,102
1,32,88,108
1,30,120,98
1,25,105,20
1,30,114,36
1,30,120,116
1,25,97,10
1,30,117,32
1,30,123,136
1,49,68,292
1,54,89,0
1,40,95,118
1,35,74,8
1,40,90,22
1,40,92,124
1,35,73,10
1,40,87,18
1,44,85,86
1,39,114,22
1,35,81,70
1,32,114,36
1,37,89,66
1,32,85,20
1,37,83,16
1,37,95,126
1,32,72,16
1,37,79,24
1,37,91,110
1,37,91,120
1,37,81,46
1,35,91,16
1,33,95,96
1,28,86,22
1,33,91,12
1,33,95,120
1,28,85,16
1,33,78,12
1,32,84,102
1,32,88,108
1,30,111,94
1,52,84,10
1,57,88,0
1,33,127,4652
1,32,83,6144
1,35,92,70
1,39,81,84
1,44,81,60
1,44,93,184
1,42,76,2
1,40,77,10
1,39,71,14
1,37,89,4
1,40,88,84
1,44,85,90
1,49,85,94
1,49,81,150
1,44,81,0
1,44,79,110
1,37,86,20
1,30,95,86
1,33,90,56
1,37,95,82
1,42,95,50
1,44,86,48
1,45,102,22
1,44,89,0
1,42,99,2
1,39,86,18
1,35,89,98
1,35,95,56
1,35,98,52
1,35,96,46
1,35,92,42
1,35,88,56
1,35,90,58
1,35,91,44
1,35,101,48
1,35,106,70
1,35,106,84
1,35,102,80
1,36,106,68
1,48,96,390
1,41,112,78
1,41,84,64
1,41,98,50
1,41,85,48
1,45,97,20
1,48,91,116
1,48,94,84
1,43,96,36
1,36,99,34
1,43,85,126
1,43,103,116
1,45,71,28
1,46,99,30
1,45,71,16
1,43,79,4
1,34,102,86
1,36,91,94
1,38,98,2
1,41,99,38
1,41,85,46
1,41,87,48
1,41,90,44
1,45,89,18
1,48,90,112
1,48,84,96
1,43,90,14
1,36,104,12
1,45,69,38
1,43,95,62
1,43,85,104
1,45,70,0
1,46,82,20
1,45,91,96
1,43,82,2
1,34,104,40
1,36,106,20
1,41,95,52
1,41,81,42
1,41,90,50
1,41,90,46
1,45,91,36
1,50,96,114
1,45,83,24
1,48,91,20
1,43,83,96
1,36,98,22
1,45,78,22
1,43,91,62
1,43,93,96
1,45,71,12
1,46,79,32
1,45,86,96
1,43,86,16
1,34,112,62
1,34,112,38
1,36,99,28
1,36,102,58
1,48,90,192
1,48,89,116
1,36,99,18
1,38,95,66
1,38,104,48
1,50,91,192
1,50,74,130
1,38,95,20
1,43,91,100
1,43,106,44
1,55,79,4
1,55,77,122
1,43,88,28
1,48,89,36
1,46,97,192
1,45,98,16
1,43,94,14
1,41,112,38
1,41,84,64
1,41,98,50
1,41,85,48
1,45,97,20
1,48,91,116
1,48,94,84
1,43,96,36
1,36,99,34
1,45,81,30
1,43,89,32
1,43,96,56
1,45,71,26
1,46,99,30
1,45,71,16
1,43,79,4
1,34,102,86
1,36,91,94
1,38,98,2
1,41,99,38
1,41,85,46
1,41,87,48
1,41,90,44
1,45,89,18
1,50,90,112
1,48,84,58
1,43,90,14
1,36,104,12
1,45,69,38
1,43,85,62
1,43,88,56
1,43,99,54
1,45,70,56
1,46,82,20
1,45,91,96
1,43,82,2
1,34,104,40
1,36,106,20
1,41,79,54
1,53,91,94
1,52,89,8
1,50,91,80
1,45,95,10
1,50,96,4
1,45,83,24
1,48,91,20
1,43,83,96
1,36,98,22
1,45,78,22
1,43,92,64
1,43,92,58
1,43,101,54
1,45,71,50
1,46,79,32
1,45,86,96
1,43,86,16
1,34,112,4
1,36,112,32
1,41,112,0
1,41,84,50
1,41,98,50
1,41,85,16
1,45,97,22
1,48,91,116
1,48,94,84
1,43,96,24
1,36,99,4
1,45,81,30
1,43,89,28
1,43,96,56
1,45,71,26
1,46,99,6
1,45,71,4
1,43,79,4
1,34,102,86
1,36,91,94
1,38,98,2
1,41,99,38
1,41,85,46
1,41,87,48
1,41,90,44
1,45,89,18
1,50,90,112
1,48,84,58
1,43,90,14
2,68,110,33202
2,64,110,2
2,71,110,0
2,66,110,0
2,71,110,0
2,63,110,4
2,66,110,0
2,69,110,0
2,73,110,0
2,69,110,0
2,73,110,0
2,64,110,2
2,64,110,0
2,68,110,0
2,71,110,0
2,66,110,0
2,71,110,0
2,63,110,2
2,66,110,0
2,69,110,2
2,73,110,0
2,69,110,0
2,64,110,2
2,73,110,0
2,64,110,0
2,71,110,0
2,68,110,2
2,63,110,0
2,66,110,0
2,71,110,0
2,66,110,0
2,69,110,0
2,73,110,0
2,64,110,0
2,69,110,0
2,73,110,2
2,68,110,18462
2,64,110,2
2,71,110,0
2,66,110,0
2,71,110,0
2,63,110,4
2,66,110,0
2,69,110,0
2,73,110,0
2,69,110,0
2,73,110,0
2,64,110,2
2,64,110,0
2,68,110,0
2,71,110,0
2,66,110,0
2,71,110,0
2,63,110,2
2,66,110,0
2,69,110,2
2,73,110,0
2,69,110,0
2,64,110,2
2,73,110,0
2,64,110,0
2,71,110,0
2,68,110,2
2,63,110,0
2,66,110,0
2,71,110,0
2,66,110,0
2,69,110,0
2,73,110,0
2,64,110,0
2,69,110,0
2,73,110,2
2,69,121,32286
2,65,121,2
2,72,121,0
2,67,121,0
2,72,121,0
2,64,121,4
2,67,121,0
2,70,121,0
2,74,121,0
2,70,121,0
2,74,121,0
2,65,121,2
2,65,121,0
2,69,121,0
2,72,121,0
2,67,121,0
2,72,121,0
2,64,121,2
2,67,121,0
2,70,121,2
2,74,121,0
2,70,121,0
2,65,121,2
2,74,121,0
2,65,121,0
2,72,121,0
2,69,121,2
2,64,121,0
2,67,121,0
2,72,121,0
2,67,121,0
2,70,121,0
2,74,121,0
2,65,121,0
2,70,121,0
2,74,121,2
2,69,121,3102
2,65,121,2
2,72,121,0
2,67,121,0
2,72,121,0
2,64,121,4
2,67,121,0
2,70,121,0
2,74,121,0
2,70,121,0
2,74,121,0
2,65,121,2
2,65,121,0
2,69,121,0
2,72,121,0
2,67,121,0
2,72,121,0
2,64,121,2
2,67,121,0
2,70,121,2
2,74,121,0
2,70,121,0
2,65,121,2
2,74,121,0
2,65,121,0
2,72,121,0
2,69,121,2
2,64,121,0
2,67,121,0
2,72,121,0
2,67,121,0
2,70,121,0
2,74,121,0
2,65,121,0
2,70,121,0
2,74,121,2
2,69,121,30
2,65,121,2
2,72,121,0
2,67,121,0
2,72,121,0
2,64,121,4
2,67,121,0
2,70,121,0
2,74,121,0
2,70,121,0
2,74,121,0
2,65,121,2
2,65,121,0
2,69,121,0
2,72,121,0
2,67,121,0
2,72,121,0
2,64,121,2
2,67,121,0
2,70,121,2
2,74,121,0
3,64,102,9158
3,63,97,28
3,63,89,58
3,61,72,16
3,63,99,32
3,64,97,24
3,56,82,40
3,54,73,96
3,57,80,160
3,56,75,96
3,54,73,0
3,52,85,96
3,54,70,16
3,56,61,196
3,52,91,16
3,64,102,388
3,63,97,28
3,63,89,58
3,61,72,16
3,63,99,32
3,64,97,24
3,56,82,40
3,54,73,96
3,57,80,160
3,56,75,96
3,54,73,0
3,52,85,96
3,59,110,502
3,59,98,46
3,59,95,70
3,59,92,92
3,59,98,110
3,59,104,260
3,61,101,72
3,63,93,54
3,64,91,44
3,56,97,480
3,54,104,48
3,54,101,74
3,52,80,14
3,52,85,886
3,59,90,68
3,56,74,44
3,57,76,76
3,56,78,98
3,52,80,6
3,59,100,324
3,59,73,44
3,59,91,62
3,59,88,80
3,59,88,60
3,59,91,246
3,61,81,68
3,63,81,56
3,64,81,58
3,59,80,26
3,61,81,12
3,64,94,658
3,63,79,358
3,64,86,64
3,63,60,74
3,61,61,70
3,52,84,402
3,52,80,54
3,59,81,36
3,57,79,14
3,56,49,0
3,52,64,4
3,56,91,476
3,59,92,90
3,63,95,240
3,56,89,64
3,61,82,444
3,63,99,56
3,63,97,68
3,61,78,0
3,61,95,852
3,61,95,60
3,61,85,80
3,59,80,12
3,57,72,4
3,59,79,104
3,61,81,76
3,64,94,358
3,66,93,52
3,62,83,22
3,63,77,42
3,61,71,76
3,59,81,8
3,61,95,72
3,59,78,16
3,61,93,38
3,59,70,18
3,61,75,16
3,59,80,4
3,64,102,398
3,63,97,28
3,63,89,58
3,61,72,16
3,63,99,32
3,64,97,24
3,56,82,40
3,54,73,96
3,57,80,160
3,56,75,96
3,54,73,0
3,52,85,96
3,54,70,16
3,56,61,196
3,52,91,16
3,59,84,478
3,64,95,34
3,64,106,46
3,63,97,42
3,63,89,58
3,61,72,16
3,63,99,32
3,64,97,24
3,56,82,40
3,54,73,96
3,57,80,160
3,56,75,96
3,54,73,0
3,52,85,96
3,61,82,0
3,59,68,178
3,56,58,48
3,59,84,114
3,59,83,34
3,59,88,272
3,64,91,4
3,64,91,34
3,63,85,0
3,64,84,96
3,66,75,12
3,63,84,12
3,59,78,32
3,59,78,50
3,57,72,12
3,56,91,1130
3,59,74,64
3,59,88,98
3,59,92,78
3,59,91,68
3,59,91,106
3,59,90,228
3,61,87,86
3,63,84,72
3,64,83,116
3,56,87,186
3,54,93,62
3,54,71,92
3,56,70,82
3,52,74,2
3,49,79,466
3,52,94,92
3,59,80,94
3,57,73,288
3,56,87,318
3,59,90,36
3,59,74,82
3,59,84,54
3,59,87,102
3,59,84,90
3,59,81,316
3,61,81,60
3,63,87,82
3,64,86,78
3,63,79,118
3,61,82,6
3,63,89,68
3,61,68,6
3,64,94,188
3,63,84,20
3,63,91,88
3,64,84,336
3,61,60,2
3,63,78,62
3,61,68,4
3,59,75,390
3,57,70,8
3,56,78,32
3,57,80,34
3,56,59,6
3,52,80,12
3,56,89,662
3,59,88,88
3,63,91,214
3,64,79,70
3,63,82,48
3,64,71,6
3,63,67,56
3,61,101,154
3,63,95,64
3,61,84,50
3,63,83,4
3,61,84,50
3,64,86,88
3,63,91,78
3,61,81,64
3,63,85,0
3,61,84,46
3,61,84,200
3,61,82,68
3,59,88,8
3,61,87,80
3,59,76,44
3,57,77,0
3,64,90,584
3,66,93,58
3,63,72,402
3,61,71,42
3,59,79,48
3,61,87,86
3,59,81,26
3,61,82,50
3,59,86,26
3,61,87,28
3,59,85,6
3,64,102,280
3,63,97,28
3,63,89,58
3,61,72,16
3,63,99,32
3,64,97,24
3,56,82,40
3,54,73,96
3,57,80,160
3,56,75,96
3,54,73,0
3,52,85,96
3,54,70,16
3,56,61,196
3,52,91,16
3,59,84,478
3,64,95,34
3,64,106,46
3,63,97,42
3,63,89,58
3,61,72,16
3,63,99,32
3,64,97,24
3,56,82,40
3,54,73,96
3,57,80,160
3,56,75,96
3,54,73,0
3,52,85,96
3,61,82,0
3,59,68,178
3,56,58,48
3,59,84,114
3,59,83,34
3,59,88,272
3,64,91,4
3,64,91,34
3,63,85,0
3,64,84,96
3,66,75,12
3,63,84,12
3,59,78,32
3,59,78,50
3,57,72,12
3,64,80,182
3,63,84,34
3,59,73,28
3,64,84,94
3,63,74,12
3,59,88,2
3,61,79,102
3,59,80,10
3,61,73,0
3,59,88,64
3,61,67,16
3,61,79,36
3,68,87,962
3,66,93,46
3,64,92,24
3,66,95,4
3,64,85,4
3,63,87,4
3,64,80,0
3,61,89,18
3,68,87,2046
