track,note,velocity,time
1,35,82,13056
1,35,82,752
1,35,82,752
1,35,82,752
1,35,82,752
1,35,82,752
1,35,82,752
1,35,82,752
1,35,82,752
1,35,82,752
1,35,82,752
1,35,82,752
1,35,70,560
1,35,82,176
1,35,82,752
1,35,82,752
1,35,82,752
1,35,82,752
1,35,82,752
1,35,82,752
1,35,82,752
1,35,82,752
1,35,82,752
1,35,82,752
1,35,82,752
1,35,70,560
1,35,82,176
1,35,82,752
1,35,82,752
1,35,82,752
1,35,82,752
1,35,82,752
1,35,82,752
1,35,82,752
1,35,82,752
1,35,82,752
1,35,82,752
1,35,82,752
1,35,82,752
1,35,82,752
1,35,82,752
1,35,82,752
1,35,82,0
1,35,82,752
1,35,82,752
1,35,82,752
1,35,82,752
1,35,82,752
1,35,82,752
1,35,82,752
1,35,82,752
1,35,82,752
1,35,82,752
1,35,82,752
1,35,70,560
1,35,82,176
1,35,82,752
1,35,82,752
1,35,82,752
1,35,70,464
1,35,82,272
1,35,82,752
1,35,82,752
1,35,82,752
1,35,70,560
1,35,82,176
1,35,82,752
1,35,82,752
1,35,72,848
1,35,82,656
1,35,82,752
1,35,82,752
1,35,82,752
1,35,82,752
1,35,82,752
1,35,82,752
1,35,82,752
1,35,70,560
1,35,82,176
1,35,82,752
1,35,82,752
1,35,82,752
1,35,82,752
1,35,82,752
1,35,82,752
1,35,82,752
1,35,82,752
1,35,82,752
1,35,82,752
1,35,82,752
1,35,82,752
1,35,82,752
1,35,82,752
1,35,82,752
1,35,70,560
1,35,82,176
1,35,82,752
1,35,82,752
1,35,82,752
1,35,55,12752
1,35,82,200
1,35,82,752
1,35,82,752
1,35,82,752
1,35,70,560
1,35,82,176
1,35,82,752
1,35,82,752
1,35,82,752
1,35,82,752
1,35,72,848
1,35,82,656
1,35,82,752
1,35,82,752
1,35,82,752
1,35,70,560
1,35,82,176
1,35,82,752
1,35,82,752
1,35,82,752
1,35,82,752
1,35,82,752
1,35,82,752
1,35,82,752
1,35,70,560
1,35,82,176
1,35,82,752
1,35,82,752
1,35,82,752
1,35,82,752
1,35,82,752
1,35,82,752
1,35,82,752
1,35,70,560
1,35,82,176
1,35,82,752
1,35,82,752
1,35,82,752
1,35,70,560
1,35,82,176
1,35,82,752
1,35,82,752
1,35,82,752
1,35,82,752
1,35,82,752
1,35,82,752
1,35,82,752
1,35,82,752
1,35,82,752
1,35,82,752
1,35,82,752
1,35,70,560
1,35,82,176
1,35,82,752
1,35,82,752
1,35,82,752
2,40,91,13440
2,40,91,752
2,40,91,752
2,40,81,464
2,40,91,272
2,40,91,752
2,40,91,752
2,40,91,752
2,40,91,752
2,40,91,752
2,40,91,752
2,40,91,752
2,40,91,752
2,40,91,752
2,40,91,752
2,40,91,752
2,40,91,752
2,40,91,752
2,40,91,752
2,40,91,752
2,40,91,752
2,40,91,752
2,40,91,752
2,40,91,752
2,40,91,752
2,40,91,752
2,40,91,752
2,40,91,752
2,40,51,368
2,40,91,80
2,40,91,272
2,40,91,752
2,40,91,752
2,40,91,752
2,40,91,752
2,40,91,752
2,40,91,752
2,40,91,752
2,40,91,752
2,40,91,752
2,40,91,752
2,40,91,752
2,40,82,464
2,40,91,272
2,40,91,752
2,40,91,752
2,40,91,752
2,40,91,752
2,40,91,752
2,40,91,752
2,40,91,752
2,40,91,752
2,40,91,752
2,40,91,752
2,40,91,752
2,40,91,752
2,40,91,752
2,40,91,752
2,40,91,752
2,40,71,740
2,40,91,0
2,40,91,748
2,40,91,752
2,40,91,752
2,40,91,752
2,40,91,752
2,40,91,752
2,40,91,752
2,40,91,368
2,40,91,368
2,40,91,752
2,40,91,752
2,40,91,752
2,40,91,752
2,40,91,752
2,40,91,752
2,40,91,752
2,40,91,752
2,40,91,752
2,40,91,752
2,40,91,752
2,40,91,752
2,40,91,752
2,40,91,752
2,40,91,752
2,40,71,740
2,40,91,2
2,40,91,746
2,40,91,752
2,40,91,752
2,40,91,752
2,40,91,752
2,40,91,752
2,40,91,752
2,40,91,752
2,40,91,752
2,40,91,752
2,40,91,752
2,40,91,752
2,40,72,11504
2,40,81,112
2,40,81,112
2,40,84,688
2,40,91,560
2,40,91,752
2,40,91,752
2,40,91,752
2,40,91,752
2,40,91,752
2,40,91,752
2,40,91,752
2,40,87,464
2,40,91,272
2,40,87,272
2,40,78,272
2,40,73,134
2,40,91,26
2,40,84,80
2,40,91,656
2,40,91,752
2,40,91,752
2,40,91,752
2,40,91,752
2,40,91,752
2,40,91,752
2,40,91,752
2,40,91,752
2,40,91,752
2,40,91,752
2,40,91,752
2,40,91,752
2,40,91,752
2,40,91,752
2,40,75,464
2,40,91,272
2,40,91,752
2,40,91,752
2,40,91,752
2,40,75,560
2,40,91,176
2,40,91,752
2,40,91,752
2,40,91,752
2,40,91,752
2,40,91,752
2,40,91,752
2,40,91,752
2,40,91,752
2,40,91,752
2,40,91,752
2,40,91,752
2,40,91,752
2,40,91,752
2,40,91,752
2,40,91,752
2,40,91,752
2,40,91,752
2,40,91,752
2,40,91,752
2,40,91,752
3,46,89,12960
3,44,77,24
3,42,107,146
3,42,69,50
3,42,107,224
3,42,38,50
3,42,107,224
3,42,69,50
3,42,107,224
3,42,38,50
3,42,107,224
3,42,69,50
3,42,107,224
3,42,38,50
3,42,52,150
3,42,72,10
3,42,107,16
3,42,69,50
3,42,107,224
3,42,38,50
3,42,107,224
3,42,69,50
3,42,107,224
3,42,38,50
3,42,107,224
3,42,69,50
3,42,107,224
3,42,38,50
3,42,107,224
3,42,69,50
3,42,107,224
3,42,38,50
3,42,107,224
3,42,69,50
3,42,107,224
3,42,38,50
3,42,107,224
3,42,69,50
3,42,107,224
3,42,38,50
3,42,107,224
3,42,69,50
3,42,107,224
3,42,38,50
3,42,107,224
3,42,69,50
3,42,107,224
3,42,38,50
3,42,107,224
3,42,69,50
3,46,89,224
3,44,69,146
3,42,107,128
3,42,69,50
3,42,107,224
3,42,38,50
3,42,107,224
3,42,69,50
3,42,107,224
3,42,38,50
3,42,107,224
3,42,69,50
3,42,107,224
3,42,38,50
3,42,107,224
3,42,69,50
3,42,107,224
3,46,58,50
3,44,77,32
3,42,107,146
3,42,69,50
3,42,107,224
3,42,38,50
3,42,107,224
3,42,69,50
3,42,107,224
3,42,38,50
3,42,107,224
3,42,69,50
3,42,107,224
3,42,38,50
3,42,52,150
3,42,72,10
3,42,107,16
3,42,69,50
3,42,107,224
3,42,38,50
3,42,107,224
3,42,69,50
3,42,107,224
3,42,38,50
3,42,107,224
3,42,69,50
3,42,107,224
3,42,38,50
3,42,107,224
3,42,69,50
3,42,107,224
3,42,38,50
3,42,107,224
3,42,69,50
3,42,107,224
3,42,38,50
3,42,107,224
3,42,69,50
3,42,107,224
3,42,38,50
3,42,107,224
3,42,69,50
3,42,107,224
3,42,38,50
3,42,107,224
3,42,69,50
3,42,107,224
3,42,38,50
3,42,52,150
3,42,72,10
3,42,107,16
3,42,69,50
3,46,81,224
3,44,59,146
3,42,107,128
3,42,69,50
3,42,107,224
3,42,38,50
3,42,107,224
3,42,69,50
3,42,107,224
3,42,38,50
3,42,107,224
3,42,69,50
3,42,107,224
3,42,38,50
3,42,107,224
3,42,69,50
3,42,77,128
3,46,83,50
3,44,49,128
3,42,107,128
3,42,69,50
3,42,107,224
3,42,38,50
3,42,107,224
3,42,69,50
3,42,107,224
3,42,38,50
3,42,107,224
3,42,69,50
3,42,107,224
3,42,38,50
3,42,107,224
3,42,69,50
3,42,66,128
3,46,86,32
3,44,53,146
3,42,107,128
3,42,69,50
3,42,107,224
3,42,38,50
3,42,52,150
3,42,72,10
3,42,107,16
3,42,69,50
3,42,69,128
3,42,107,32
3,42,107,338
3,42,69,50
3,42,74,128
3,42,107,32
3,42,107,338
3,42,69,50
3,46,63,224
3,46,80,50
3,42,107,242
3,42,69,50
3,42,107,224
3,42,38,50
3,42,107,224
3,42,69,50
3,42,107,224
3,42,38,50
3,42,107,224
3,42,69,50
3,42,107,224
3,42,38,50
3,42,107,224
3,42,69,50
3,42,107,224
3,42,38,50
3,42,107,224
3,42,69,50
3,42,107,224
3,42,38,50
3,42,107,224
3,42,69,50
3,42,107,224
3,42,38,50
3,42,107,224
3,42,69,50
3,42,107,224
3,42,38,50
3,42,107,224
3,42,69,50
3,42,107,224
3,42,38,50
3,44,69,32
3,42,107,128
3,42,69,50
3,42,107,224
3,42,38,50
3,42,107,224
3,42,69,50
3,42,107,224
3,42,38,50
3,42,107,224
3,42,69,50
3,42,107,224
3,42,38,50
3,42,107,224
3,42,69,50
3,46,78,224
3,44,77,128
3,42,107,146
3,42,69,50
3,42,107,224
3,42,38,50
3,42,107,224
3,42,69,50
3,42,107,224
3,42,38,50
3,42,107,224
3,42,69,50
3,42,107,224
3,42,38,50
3,42,52,150
3,42,72,10
3,42,107,16
3,42,69,50
3,42,83,32
3,42,57,50
3,46,80,32
3,42,107,320
3,42,69,50
3,42,107,224
3,42,38,50
3,42,107,224
3,42,69,50
3,42,107,224
3,42,38,50
3,42,107,224
3,42,69,50
3,42,107,224
3,42,38,50
3,42,107,224
3,42,69,50
3,42,107,224
3,42,38,50
3,42,107,224
3,42,69,50
3,42,107,224
3,42,38,50
3,42,107,224
3,42,69,50
3,42,107,224
3,42,38,50
3,42,107,224
3,42,69,50
3,42,107,224
3,42,38,50
3,42,52,150
3,42,72,10
3,42,107,16
3,42,69,50
3,46,81,224
3,44,59,146
3,42,107,128
3,42,69,50
3,42,107,224
3,42,38,50
3,42,107,224
3,42,69,50
3,42,107,224
3,42,38,50
3,42,107,224
3,42,69,50
3,42,107,224
3,42,38,50
3,42,107,224
3,42,69,50
3,42,77,128
3,46,83,50
3,44,49,128
3,42,107,128
3,42,69,50
3,42,107,224
3,42,38,50
3,42,107,224
3,42,69,50
3,42,107,224
3,42,38,50
3,42,107,224
3,42,69,50
3,42,107,224
3,42,38,50
3,42,107,224
3,42,69,50
3,42,66,128
3,46,86,32
3,44,53,146
3,42,107,128
3,42,69,50
3,42,107,224
3,42,38,50
3,42,107,224
3,42,69,50
3,42,69,128
3,42,107,32
3,42,107,338
3,42,69,50
3,42,74,128
3,42,107,32
3,42,83,264
3,42,72,10
3,42,107,16
3,42,69,50
3,46,63,224
3,42,107,338
3,42,69,50
3,42,107,224
3,42,38,50
3,42,107,224
3,42,69,50
3,42,107,224
3,42,38,50
3,42,107,224
3,42,69,50
3,42,107,224
3,42,38,50
3,42,107,224
3,42,69,50
3,42,107,224
3,42,38,50
3,42,107,224
3,42,69,50
3,42,107,224
3,42,38,50
3,42,107,224
3,42,69,50
3,42,107,224
3,42,38,50
3,42,107,224
3,42,69,50
3,42,107,224
3,42,38,50
3,42,107,224
3,42,69,50
3,42,107,224
3,42,38,50
3,44,77,32
3,42,107,146
3,42,69,50
3,42,107,224
3,42,38,50
3,42,52,150
3,42,72,10
3,42,107,16
3,42,69,50
3,42,107,224
3,42,38,50
3,42,107,224
3,42,69,50
3,42,107,224
3,42,38,50
3,42,107,224
3,42,69,50
3,46,80,224
3,42,72,32
3,44,77,32
3,42,107,146
3,42,69,50
3,42,107,224
3,42,38,50
3,42,107,224
3,42,69,50
3,42,107,224
3,42,38,50
3,44,79,3584
3,44,79,2906
3,44,79,3002
3,46,63,3258
3,46,89,32
3,42,52,246
3,42,72,10
3,42,107,16
3,42,69,50
3,42,107,416
3,42,69,50
3,42,107,224
3,42,38,50
3,42,107,224
3,42,69,50
3,42,107,224
3,42,38,50
3,42,107,224
3,42,69,50
3,42,107,224
3,42,38,50
3,42,107,224
3,42,69,50
3,42,107,224
3,42,38,50
3,42,107,224
3,42,69,50
3,42,107,224
3,42,38,50
3,42,107,224
3,42,69,50
3,42,107,224
3,42,38,50
3,42,107,224
3,42,69,50
3,42,72,128
3,42,107,50
3,42,38,50
3,42,107,224
3,42,69,50
3,42,72,128
3,42,107,50
3,42,38,50
3,42,107,224
3,42,69,50
3,42,72,128
3,42,107,50
3,42,38,50
3,42,107,224
3,42,69,50
3,42,72,128
3,42,107,434
3,42,69,50
3,42,107,224
3,42,38,50
3,42,107,224
3,42,69,50
3,42,107,224
3,42,38,50
3,42,107,224
3,42,69,50
3,42,107,224
3,42,38,50
3,42,107,224
3,42,69,50
3,42,77,128
3,46,83,50
3,44,53,128
3,42,107,128
3,42,69,50
3,42,107,224
3,42,38,50
3,42,107,224
3,42,69,50
3,42,107,224
3,42,69,50
3,42,107,224
3,42,69,50
3,42,74,128
3,42,107,32
3,42,83,264
3,42,72,10
3,42,107,16
3,42,69,50
3,46,83,224
3,44,53,146
3,42,107,128
3,42,69,50
3,42,107,224
3,42,38,50
3,42,107,224
3,42,69,50
3,42,69,128
3,42,107,32
3,42,107,338
3,42,69,50
3,42,74,128
3,42,107,32
3,42,83,242
3,42,107,72
3,42,69,50
3,42,107,224
3,42,38,50
3,42,69,128
3,42,107,32
3,42,69,50
3,42,38,128
3,42,107,32
3,42,69,242
3,42,107,32
3,42,69,50
3,42,74,128
3,42,107,32
3,42,69,242
3,42,107,32
3,42,69,50
3,42,74,128
3,42,107,32
3,42,107,146
3,42,95,146
3,42,103,128
3,42,92,146
3,42,72,224
3,42,107,32
3,42,69,50
3,42,38,128
3,42,107,32
3,42,72,242
3,42,107,32
3,42,51,50
3,42,38,128
3,42,107,32
3,42,72,242
3,42,107,32
3,42,51,50
3,42,38,128
3,42,107,32
3,46,92,242
3,44,48,32
3,46,98,320
3,44,49,128
3,42,107,128
3,42,69,50
3,42,107,224
3,42,38,50
3,42,107,224
3,42,69,50
3,42,107,224
3,42,38,50
3,42,63,128
3,42,107,32
3,42,57,50
3,42,54,128
3,42,107,32
3,42,63,242
3,42,107,32
3,42,69,50
3,46,86,224
3,44,53,146
3,42,107,128
3,42,60,72
3,42,72,10
3,42,107,16
3,42,69,50
3,42,107,32
3,42,107,338
3,42,69,50
3,42,69,128
3,42,107,32
3,42,107,338
3,42,69,50
3,42,74,128
3,42,107,32
3,42,83,146
3,42,101,14
3,42,37,16
3,42,69,186
3,42,72,10
3,42,107,16
3,42,69,50
3,46,95,32
3,42,72,50
3,44,59,50
3,42,107,128
3,42,69,50
3,42,107,224
3,42,38,50
3,42,107,224
3,42,69,50
3,42,107,224
3,42,38,50
3,42,107,224
3,42,69,50
3,42,107,224
3,42,38,50
3,42,107,224
3,42,69,50
3,42,77,128
3,46,83,50
3,44,49,128
3,42,107,128
3,42,69,50
3,42,107,224
3,42,38,50
3,42,107,224
3,42,69,50
3,42,107,224
3,42,38,50
3,42,107,224
3,42,69,50
3,42,107,224
3,42,38,50
3,42,107,224
3,42,69,50
3,42,66,128
3,46,86,32
3,44,53,146
3,42,107,128
3,42,69,50
3,42,107,224
3,42,38,50
3,42,107,224
3,42,69,50
3,42,69,128
3,42,107,32
3,42,107,338
3,42,69,50
3,42,74,128
3,42,107,32
3,42,83,264
3,42,72,10
3,42,107,16
3,42,69,50
3,46,63,224
4,57,64,15936
4,49,70,176
4,49,70,12272
4,49,70,6128
4,49,70,9200
4,49,70,12272
4,49,70,6128
4,57,57,5936
4,49,70,176
4,49,70,3056
4,55,91,560
4,49,70,2480
4,49,70,3056
4,49,70,3056
4,57,70,1520
4,52,40,4208
4,49,31,368
4,52,40,2672
4,49,31,368
4,52,40,1904
4,49,31,368
4,57,70,3632
4,49,70,176
4,49,70,7664
4,49,70,6128
4,49,70,6128
4,57,73,2672
4,49,70,3440
4,49,70,3056
4,57,57,5936
4,49,70,176
5,65,61,15456
5,65,55,368
5,66,73,80
5,65,56,33584
5,65,56,176
5,65,29,6128
5,65,69,80
5,65,52,5352
5,65,73,12
5,66,73,268
5,65,63,3440
5,65,52,5448
5,65,73,12
5,65,73,268
5,43,91,3440
5,65,61,2192
5,65,52,264
5,65,73,12
5,65,72,364
5,65,66,3152
5,65,55,14480
5,65,55,112
5,66,49,112
5,66,73,3472
5,66,64,2960
5,66,64,176
5,66,64,176
5,65,55,1250
5,65,58,22
5,65,81,24
5,65,64,80
5,65,63,11504
5,65,29,290
