track,note,velocity,time
0,84,29,755
0,84,0,4
0,40,85,44
0,59,37,49
0,64,77,45
0,68,81,51
0,64,0,19
0,64,53,2
0,59,0,26
0,59,45,26
0,68,91,6
0,68,0,45
0,69,83,0
0,69,0,21
0,40,0,7
0,44,73,7
0,59,0,10
0,71,95,3
0,64,0,3
0,59,49,3
0,63,53,21
0,68,0,0
0,68,77,9
0,63,0,7
0,63,69,70
0,59,0,13
0,59,49,37
0,68,0,34
0,63,0,1
0,59,0,20
0,49,81,6
0,44,0,2
0,56,49,19
0,71,0,22
0,61,61,7
0,64,69,50
0,56,0,37
0,56,21,57
0,61,0,2
0,64,0,43
0,68,91,0
0,63,65,6
0,68,0,27
0,69,83,7
0,64,49,17
0,49,0,2
0,69,0,4
0,63,0,5
0,71,91,7
0,49,53,4
0,61,61,1
0,64,0,28
0,61,0,2
0,56,0,2
0,49,0,4
0,68,85,1
0,71,0,1
0,68,0,38
0,68,83,13
0,49,57,6
0,61,61,4
0,64,37,7
0,68,69,8
0,73,57,0
0,73,61,0
0,49,61,2
0,67,71,22
0,73,0,3
0,68,0,8
0,66,79,4
0,67,0,8
0,64,87,6
0,66,0,7
0,49,0,3
0,64,0,2
0,49,0,6
0,66,57,4
0,47,61,3
0,47,66,1
0,59,1,0
0,61,0,0
0,63,65,0
0,64,0,0
0,68,0,0
0,71,66,0
0,71,69,1
0,64,71,2
0,73,0,16
0,71,0,8
0,63,63,12
0,64,0,8
0,62,87,12
0,63,0,1
0,52,21,1
0,47,0,18
0,57,57,0
0,45,77,2
0,71,0,0
0,61,95,2
0,45,85,4
0,47,0,0
0,61,85,0
0,64,85,0
0,66,0,0
0,61,73,1
0,62,0,2
0,63,0,5
0,59,0,4
0,52,0,23
0,52,61,4
0,61,0,5
0,57,0,11
0,61,87,1
0,57,45,28
0,61,0,7
0,61,81,44
0,57,0,15
0,45,0,11
0,45,37,1
0,61,0,12
0,57,73,2
0,61,88,10
0,52,0,10
0,61,0,9
0,45,0,17
0,64,91,2
0,52,57,1
0,61,73,33
0,64,0,3
0,61,0,7
0,66,91,36
0,45,0,4
0,61,0,1
0,57,0,3
0,44,81,4
0,44,75,4
0,59,75,0
0,68,87,31
0,66,0,3
0,56,69,9
0,52,0,9
0,61,0,2
0,66,87,1
0,68,0,4
0,59,44,17
0,68,87,15
0,66,0,6
0,63,73,26
0,68,0,3
0,64,87,4
0,44,0,2
0,44,41,1
0,59,0,8
0,56,0,4
0,59,33,36
0,61,83,9
0,44,0,5
0,64,0,0
0,56,65,2
0,56,0,4
0,64,79,13
0,61,0,1
0,64,0,14
0,42,77,33
0,42,78,5
0,54,78,0
0,57,78,0
0,61,78,0
0,66,87,0
0,44,0,11
0,59,0,6
0,59,0,23
0,54,65,3
0,68,79,6
0,66,0,1
0,57,53,25
0,68,0,3
0,69,71,3
0,63,0,15
0,66,83,9
0,61,69,2
0,69,0,2
0,42,0,6
0,57,0,4
0,54,0,44
0,57,25,8
0,61,0,12
0,54,49,11
0,57,0,14
0,61,0,41
0,42,0,9
0,47,58,3
0,54,0,21
0,54,64,1
0,47,85,6
0,54,0,0
0,57,0,0
0,59,85,0
0,63,68,11
0,66,71,11
0,71,75,14
0,47,0,11
0,63,0,49
0,66,0,3
0,71,0,4
0,47,0,23
0,54,0,0
0,59,0,0
0,64,0,0
0,66,0,11
0,59,95,152
0,64,102,4
0,68,99,1
0,59,0,145
0,64,0,30
0,68,0,8
0,59,87,6
0,63,97,0
0,66,95,1
0,63,0,18
0,66,0,3
0,59,0,1
0,66,78,21
0,63,89,4
0,59,88,1
0,63,0,38
0,66,0,1
0,64,77,3
0,59,0,4
0,61,72,0
0,56,77,2
0,61,0,31
0,56,0,4
0,64,0,6
0,66,99,5
0,63,99,1
0,59,92,6
0,59,0,122
0,63,0,3
0,68,73,2
0,61,71,1
0,66,0,1
0,64,97,8
0,68,0,13
0,61,0,4
0,64,0,12
0,57,95,12
0,52,83,5
0,56,82,3
0,54,75,14
0,59,79,2
0,57,0,8
0,52,0,2
0,54,73,22
0,56,0,1
0,57,80,17
0,59,0,1
0,54,0,30
0,57,0,48
0,54,0,63
0,57,80,80
0,56,75,48
0,57,0,9
0,54,73,39
0,56,0,0
0,52,85,48
0,54,0,6
0,52,0,128
0,54,70,8
0,56,61,98
0,54,0,8
0,56,0,32
0,52,91,8
0,46,93,48
0,46,0,4
0,52,0,44
0,42,57,1
0,80,40,0
0,36,93,1
0,42,0,3
0,80,0,0
0,36,0,1
0,80,30,42
0,80,0,4
0,35,70,44
0,42,63,0
0,80,42,2
0,35,0,2
0,42,0,0
0,80,0,2
0,42,73,42
0,81,45,2
0,42,0,2
0,81,0,2
0,59,95,40
0,40,110,4
0,64,102,0
0,65,88,0
0,68,99,1
0,40,0,3
0,65,0,0
0,80,38,42
0,80,0,4
0,35,56,44
0,42,67,0
0,80,55,1
0,35,0,3
0,42,0,0
0,80,0,1
0,42,70,43
0,42,0,4
0,59,0,0
0,64,0,30
0,68,0,8
0,59,87,6
0,63,97,0
0,66,95,1
0,36,93,1
0,80,36,0
0,36,0,4
0,80,0,0
0,63,0,13
0,66,0,3
0,59,0,1
0,66,78,21
0,63,89,4
0,80,34,0
0,59,88,1
0,80,0,3
0,63,0,35
0,66,0,1
0,64,77,3
0,59,0,4
0,61,72,0
0,42,61,1
0,80,30,0
0,56,77,1
0,35,62,1
0,42,0,2
0,80,0,0
0,35,0,2
0,61,0,26
0,56,0,4
0,64,0,6
0,66,99,5
0,42,45,1
0,63,99,0
0,81,43,1
0,42,0,3
0,81,0,1
0,59,92,1
0,65,88,42
0,40,110,1
0,42,61,1
0,65,0,2
0,40,0,1
0,42,0,1
0,80,30,43
0,80,0,4
0,59,0,27
0,63,0,3
0,68,73,2
0,61,71,1
0,66,0,1
0,64,97,8
0,42,73,3
0,80,32,0
0,42,0,4
0,80,0,0
0,68,0,6
0,61,0,4
0,64,0,12
0,57,95,12
0,52,83,5
0,35,48,3
0,56,82,0
0,42,70,2
0,35,0,2
0,42,0,2
0,54,75,8
0,59,79,2
0,57,0,8
0,52,0,2
0,36,93,22
0,54,73,0
0,56,0,1
0,80,46,1
0,36,0,2
0,80,0,2
0,57,80,12
0,59,0,1
0,80,32,29
0,54,0,1
0,80,0,3
0,35,66,44
0,42,73,0
0,80,34,0
0,57,0,1
0,35,0,3
0,42,0,0
0,80,0,0
0,42,70,44
0,81,35,0
0,42,0,4
0,81,0,0
0,54,0,12
0,42,59,32
0,40,110,2
0,65,88,0
0,42,0,2
0,40,0,2
0,65,0,0
0,57,80,42
0,80,36,1
0,80,0,4
0,35,62,43
0,42,67,0
0,56,75,0
0,80,42,1
0,35,0,3
0,42,0,0
0,80,0,1
0,57,0,4
0,42,65,39
0,54,73,0
0,56,0,0
0,42,0,4
0,42,47,44
0,52,85,0
0,80,49,0
0,36,93,2
0,42,0,2
0,80,0,0
0,36,0,2
0,54,0,0
0,38,74,42
0,80,30,0
0,38,0,4
0,80,0,0
0,42,73,44
0,80,32,0
0,35,70,2
0,42,0,2
0,80,0,0
0,35,0,2
0,52,0,32
0,42,65,10
0,48,81,0
0,81,45,0
0,42,0,4
0,48,0,0
0,81,0,0
0,48,83,21
0,48,0,4
0,40,110,19
0,65,88,0
0,42,79,1
0,65,0,1
0,65,66,1
0,38,74,1
0,40,0,0
0,65,0,0
0,42,0,1
0,38,0,3
0,80,40,40
0,65,66,2
0,80,0,2
0,65,0,2
0,35,68,42
0,42,67,0
0,80,46,0
0,57,110,2
0,45,110,1
0,35,0,1
0,42,0,0
0,80,0,0
0,57,0,2
0,45,0,1
0,42,73,41
0,42,0,4
0,52,110,44
0,40,95,1
0,42,57,0
0,54,46,0
0,58,106,0
0,59,110,0
0,80,40,0
0,36,93,1
0,52,0,2
0,42,0,1
0,54,0,0
0,58,0,0
0,80,0,0
0,36,0,1
0,59,0,21
0,40,0,17
0,35,74,4
0,80,30,0
0,54,24,1
0,59,98,1
0,80,0,2
0,54,0,1
0,35,0,32
0,68,84,9
0,59,96,1
0,64,96,0
0,35,70,1
0,40,90,0
0,42,63,0
0,54,40,1
0,80,42,1
0,35,0,2
0,42,0,0
0,54,0,1
0,80,0,1
0,59,0,8
0,59,0,1
0,64,0,2
0,68,0,8
0,40,0,9
0,42,73,14
0,54,26,1
0,59,95,0
0,81,45,1
0,42,0,2
0,54,0,1
0,81,0,1
0,59,0,40
0,40,92,2
0,54,32,1
0,40,110,1
0,65,88,0
0,54,0,3
0,40,0,1
0,65,0,0
0,40,0,36
0,59,92,2
0,35,73,3
0,80,38,1
0,54,24,1
0,80,0,3
0,54,0,1
0,35,0,34
0,59,0,0
0,35,56,9
0,40,87,0
0,42,67,0
0,59,88,0
0,64,96,0
0,68,84,0
0,54,40,1
0,80,55,0
0,35,0,3
0,42,0,0
0,54,0,1
0,80,0,0
0,59,0,14
0,64,0,1
0,68,0,10
0,59,98,16
0,42,70,2
0,54,24,1
0,42,0,3
0,54,0,1
0,40,0,1
0,54,49,43
0,36,93,1
0,39,82,0
0,80,36,0
0,54,0,3
0,36,0,1
0,80,0,0
0,59,0,13
0,39,0,25
0,80,34,4
0,54,26,1
0,80,0,3
0,54,0,1
0,42,61,43
0,63,84,0
0,66,80,0
0,80,30,0
0,54,40,1
0,59,92,0
0,35,62,1
0,39,85,0
0,42,0,2
0,80,0,0
0,54,0,1
0,35,0,1
0,59,0,11
0,63,0,0
0,66,0,9
0,42,45,22
0,54,28,1
0,81,43,0
0,42,0,3
0,54,0,1
0,59,104,0
0,81,0,0
0,65,88,43
0,40,110,1
0,54,38,0
0,42,61,1
0,65,0,2
0,40,0,1
0,54,0,0
0,42,0,1
0,59,0,0
0,61,101,36
0,54,20,7
0,80,30,0
0,54,0,4
0,80,0,0
0,61,0,38
0,66,84,3
0,59,92,1
0,63,84,0
0,54,36,2
0,42,73,1
0,80,32,0
0,54,0,3
0,42,0,1
0,80,0,0
0,59,0,10
0,63,0,0
0,63,93,6
0,66,0,6
0,35,48,20
0,39,0,1
0,54,38,0
0,42,70,1
0,35,0,2
0,54,0,1
0,42,0,1
0,63,0,25
0,36,93,17
0,37,89,1
0,54,46,0
0,80,46,1
0,36,0,2
0,54,0,1
0,64,91,0
0,80,0,1
0,37,0,34
0,80,32,8
0,54,24,1
0,32,85,1
0,80,0,2
0,54,0,1
0,32,0,37
0,35,66,6
0,42,73,0
0,61,84,0
0,64,88,0
0,68,84,0
0,80,34,0
0,54,40,1
0,37,83,1
0,35,0,2
0,42,0,0
0,80,0,0
0,54,0,1
0,61,0,11
0,64,0,4
0,68,0,6
0,37,0,7
0,42,70,15
0,81,35,0
0,54,26,1
0,42,0,3
0,81,0,0
0,54,0,1
0,37,95,43
0,42,59,0
0,54,32,1
0,40,110,1
0,65,88,0
0,42,0,2
0,54,0,1
0,40,0,1
0,65,0,0
0,37,0,34
0,32,72,8
0,54,24,1
0,80,36,0
0,54,0,4
0,80,0,0
0,32,0,31
0,35,62,12
0,37,79,0
0,42,67,0
0,54,40,1
0,80,42,0
0,61,84,2
0,68,84,0
0,35,0,1
0,42,0,0
0,64,88,0
0,54,0,1
0,80,0,0
0,61,0,16
0,64,0,0
0,68,0,6
0,37,0,14
0,42,65,7
0,54,24,1
0,42,0,3
0,54,0,1
0,37,91,43
0,42,47,0
0,80,49,0
0,54,49,1
0,64,0,0
0,36,93,1
0,42,0,2
0,80,0,0
0,54,0,1
0,36,0,1
0,37,0,32
0,80,30,10
0,54,26,1
0,80,0,3
0,54,0,1
0,37,97,43
0,42,73,0
0,80,32,0
0,54,40,1
0,61,76,0
0,35,70,1
0,64,92,0
0,68,84,0
0,42,0,2
0,80,0,0
0,54,0,1
0,35,0,1
0,64,0,12
0,61,0,2
0,68,0,2
0,42,65,26
0,81,45,0
0,54,28,1
0,42,0,3
0,81,0,0
0,54,0,1
0,37,0,43
0,40,110,0
0,65,88,0
0,42,79,1
0,54,38,0
0,35,91,1
0,40,0,2
0,65,0,0
0,42,0,1
0,54,0,0
0,80,40,43
0,54,20,1
0,56,97,0
0,80,0,3
0,54,0,1
0,56,0,40
0,61,84,1
0,68,80,1
0,35,68,1
0,42,67,0
0,64,96,0
0,80,46,0
0,54,36,1
0,35,0,3
0,42,0,0
0,80,0,0
0,54,0,1
0,64,0,11
0,61,0,2
0,68,0,2
0,54,104,1
0,35,0,27
0,42,73,0
0,54,38,1
0,42,0,3
0,54,0,1
0,54,0,7
0,33,95,36
0,42,57,1
0,54,101,0
0,54,46,0
0,80,40,0
0,36,93,1
0,42,0,3
0,54,0,0
0,80,0,0
0,36,0,1
0,33,0,31
0,28,69,11
0,80,30,0
0,54,24,1
0,80,0,3
0,54,0,1
0,28,0,37
0,33,91,6
0,35,70,0
0,42,63,0
0,54,40,1
0,61,84,1
0,64,92,0
0,69,92,0
0,80,42,0
0,35,0,2
0,42,0,0
0,54,0,1
0,80,0,1
0,54,0,8
0,52,80,7
0,61,0,0
0,64,0,3
0,69,0,3
0,33,0,9
0,42,73,12
0,54,26,1
0,81,45,1
0,42,0,2
0,54,0,1
0,81,0,1
0,33,95,42
0,54,32,1
0,40,110,1
0,65,88,0
0,54,0,3
0,40,0,1
0,65,0,0
0,33,0,34
0,28,69,8
0,80,38,0
0,54,24,1
0,80,0,3
0,54,0,1
0,28,0,37
0,33,78,6
0,35,56,0
0,42,67,0
0,54,40,1
0,80,55,0
0,61,88,1
0,64,92,0
0,69,84,1
0,35,0,1
0,42,0,0
0,54,0,1
0,80,0,0
0,61,0,16
0,64,0,0
0,69,0,4
0,52,0,13
0,33,0,8
0,42,70,2
0,54,24,1
0,42,0,3
0,54,0,1
0,33,84,44
0,54,49,0
0,36,93,1
0,80,36,0
0,54,0,3
0,36,0,1
0,80,0,0
0,33,0,37
0,80,34,5
0,54,26,1
0,80,0,3
0,54,0,1
0,61,84,40
0,64,92,1
0,69,72,0
0,42,61,2
0,80,30,0
0,33,88,1
0,54,40,0
0,35,62,1
0,42,0,2
0,80,0,0
0,54,0,1
0,35,0,1
0,61,0,9
0,64,0,3
0,69,0,0
0,42,45,30
0,54,28,1
0,81,43,0
0,42,0,3
0,54,0,1
0,81,0,0
0,65,88,43
0,40,110,1
0,54,38,0
0,42,61,1
0,65,0,2
0,40,0,1
0,54,0,0
0,42,0,1
0,54,20,43
0,80,30,0
0,54,0,4
0,80,0,0
0,54,36,44
0,61,76,0
0,64,88,0
0,42,73,1
0,80,32,0
0,69,56,2
0,54,0,1
0,42,0,1
0,80,0,0
0,61,0,11
0,69,0,0
0,64,0,2
0,35,48,29
0,33,0,1
0,54,38,0
0,42,70,1
0,35,0,2
0,54,0,1
0,42,0,1
0,36,93,42
0,38,84,1
0,52,85,0
0,54,46,0
0,80,46,1
0,36,0,2
0,54,0,1
0,80,0,1
0,38,0,35
0,33,65,7
0,80,32,0
0,54,24,1
0,80,0,3
0,54,0,1
0,52,0,8
0,33,0,25
0,60,96,8
0,64,96,0
0,69,96,0
0,59,90,1
0,35,66,1
0,42,73,0
0,80,34,0
0,38,77,1
0,54,40,0
0,35,0,3
0,42,0,0
0,80,0,0
0,54,0,1
0,64,0,13
0,60,0,2
0,69,0,7
0,38,0,7
0,42,70,14
0,81,35,0
0,54,26,1
0,42,0,3
0,81,0,0
0,54,0,1
0,38,91,43
0,42,59,0
0,54,32,1
0,40,110,1
0,65,88,0
0,42,0,2
0,54,0,1
0,40,0,1
0,65,0,0
0,59,0,21
0,38,0,12
0,33,82,9
0,54,24,1
0,56,74,0
0,80,36,0
0,54,0,4
0,80,0,0
0,33,0,31
0,38,79,11
0,35,62,1
0,42,67,0
0,60,92,0
0,64,96,0
0,69,92,0
0,54,40,1
0,80,42,0
0,35,0,3
0,42,0,0
0,54,0,1
0,56,0,0
0,80,0,0
0,64,0,14
0,60,0,3
0,69,0,5
0,57,76,16
0,42,65,5
0,54,24,1
0,38,0,2
0,42,0,1
