track,note,velocity,time
1,72,67,2584
1,76,72,28
1,79,79,24
1,60,81,32
1,83,73,12
1,64,79,0
1,55,74,12
1,64,74,4
1,72,73,136
1,76,74,8
1,79,76,24
1,60,77,4
1,81,83,24
1,64,84,4
1,55,83,12
1,64,81,64
1,72,80,108
1,76,74,40
1,79,83,20
1,60,83,0
1,83,79,4
1,64,75,0
1,55,79,0
1,64,79,0
1,72,75,104
1,76,78,36
1,79,78,32
1,60,76,0
1,81,84,4
1,64,75,4
1,55,79,184
1,64,78,12
1,72,79,108
1,76,72,40
1,79,85,16
1,60,83,20
1,83,80,8
1,64,78,4
1,55,80,0
1,64,79,0
1,72,79,108
1,76,77,44
1,79,78,20
1,60,82,4
1,81,84,4
1,64,80,8
1,55,81,0
1,64,78,4
1,72,79,108
1,76,78,48
1,79,79,20
1,60,78,8
1,83,79,16
1,64,78,0
1,55,82,4
1,64,78,0
1,72,78,104
1,76,74,44
1,79,84,28
1,60,83,4
1,81,80,24
1,64,79,0
1,55,79,4
1,64,76,0
1,72,79,116
1,76,78,44
1,79,83,24
1,60,78,12
1,83,78,12
1,64,78,148
1,55,82,4
1,64,80,4
1,72,73,88
1,76,79,36
1,79,84,32
1,60,85,4
1,81,87,8
1,64,81,4
1,55,81,4
1,64,80,4
1,52,78,100
1,59,81,0
1,55,82,0
1,62,79,4
1,61,79,96
1,57,74,4
1,64,80,36
1,69,76,12
1,65,83,20
1,62,69,76
1,65,72,144
1,62,62,168
1,68,78,160
1,62,78,124
1,68,68,144
1,62,79,152
1,69,80,24
1,60,74,152
1,69,76,140
1,60,71,176
1,69,78,148
1,60,69,176
1,69,80,144
1,60,70,192
1,67,79,160
1,64,70,116
1,67,78,184
1,64,75,156
1,67,79,156
1,60,69,4
1,66,79,12
1,60,78,132
1,67,78,4
1,62,80,8
1,60,73,148
1,67,69,172
1,62,69,4
1,60,65,8
1,67,78,176
1,62,79,0
1,67,76,236
1,62,78,0
1,59,78,0
2,36,103,4192
2,31,100,208
2,36,102,188
2,31,100,252
2,36,104,252
2,31,101,292
2,36,101,308
2,31,101,308
2,36,108,256
2,31,107,224
2,36,104,256
2,31,103,248
2,36,104,296
2,31,100,256
2,36,108,264
2,31,108,252
2,38,110,1776
2,38,113,236
2,40,105,280
2,40,112,260
2,45,98,292
2,40,107,308
2,45,106,320
2,45,103,320
2,38,113,328
2,38,105,332
2,38,115,340
2,38,126,336
2,43,105,344
2,43,107,340
2,31,117,332
2,48,107,340
2,43,116,308
2,48,119,324
2,43,113,352
2,48,119,332
2,48,123,348
2,55,104,332
2,48,121,340
2,41,117,340
2,41,119,332
2,41,119,344
2,41,116,340
2,45,116,348
2,45,119,344
2,50,116,340
2,50,117,328
2,43,117,348
2,43,112,340
2,41,111,148
2,40,113,132
2,40,105,336
2,45,107,348
2,45,111,348
2,41,107,360
2,43,106,520
2,45,110,648
2,38,115,660
2,43,114,664
2,36,114,712
2,36,115,1156
2,43,112,480
2,43,114,96
2,36,127,676
2,43,127,476
2,43,127,96
2,36,127,668
2,43,108,484
2,43,114,100
2,33,108,672
2,45,117,0
2,40,110,480
2,33,107,96
2,45,107,0
2,38,123,680
2,38,119,472
2,40,123,96
2,45,116,672
2,33,107,0
2,52,107,96
2,57,119,96
2,59,116,96
2,60,108,96
2,48,107,12972
2,43,116,312
2,48,119,324
2,43,113,352
2,48,119,332
2,48,123,344
2,55,104,356
2,48,121,344
2,41,117,344
2,41,119,336
2,41,119,344
2,41,116,344
2,45,116,348
2,45,119,340
2,50,116,340
2,50,117,332
3,83,91,7212
3,81,78,8
3,83,80,8
3,81,80,496
3,83,78,360
3,81,72,728
3,71,72,364
3,69,66,176
3,68,58,184
3,72,91,412
3,71,84,76
3,69,86,8
3,86,78,3360
3,84,80,212
3,83,73,164
3,81,74,188
3,86,79,168
3,84,83,204
3,83,80,168
3,82,70,188
3,91,82,192
3,89,84,208
3,88,75,176
3,86,78,180
3,91,81,336
3,93,79,192
3,91,81,176
3,65,80,236
3,67,87,204
3,67,83,4
3,68,74,64
3,69,82,368
3,71,83,168
3,72,79,188
3,86,77,292
3,84,80,196
3,83,82,176
3,81,82,172
3,81,67,96
3,84,66,16
3,77,94,7808
3,76,83,0
3,74,84,100
3,72,91,80
3,71,79,4
3,69,92,60
3,68,79,36
3,64,90,0
3,57,95,8
3,86,78,12700
3,84,80,212
3,83,73,164
3,81,74,184
3,86,79,168
3,84,83,204
3,83,80,168
3,82,70,188
3,91,82,196
3,89,84,204
3,88,75,176
3,86,78,180
3,91,81,336
3,93,79,192
3,91,81,176
3,65,81,224
3,67,82,196
3,67,82,40
3,68,83,192
3,71,87,376
3,72,80,368
3,74,87,368
3,76,89,344
3,77,87,376
3,79,101,376
3,81,96,740
3,83,84,160
3,96,83,192
3,96,99,232
4,72,88,5304
4,74,89,132
4,76,89,120
4,76,90,24
4,67,90,12
4,72,105,164
4,74,90,148
4,76,86,108
4,79,91,120
4,72,80,1128
4,74,91,124
4,76,91,0
4,76,94,44
4,67,103,188
4,72,86,84
4,74,90,140
4,76,100,120
4,81,100,120
4,79,103,92
4,77,95,124
4,76,91,124
4,77,87,124
4,77,88,28
4,77,88,28
4,77,86,40
4,74,84,0
4,77,95,204
4,76,90,128
4,74,77,8
4,74,90,48
4,76,81,92
4,74,81,96
4,76,91,80
4,72,81,88
4,72,103,176
4,74,98,136
4,76,90,0
4,76,98,44
4,69,92,372
4,72,109,200
4,74,86,176
4,76,86,0
4,76,105,48
4,69,80,376
4,72,91,232
4,74,80,124
4,76,76,0
4,76,100,60
4,67,80,212
4,72,105,192
4,74,100,136
4,76,91,0
4,79,95,132
4,77,82,220
4,79,86,136
4,81,92,0
4,81,106,24
4,72,108,208
4,77,96,196
4,79,99,152
4,81,104,0
4,86,107,128
4,84,103,232
4,82,102,204
4,81,106,172
4,81,113,60
4,82,90,116
4,81,92,120
4,82,105,8
4,79,98,92
4,80,117,200
4,81,100,8
4,83,109,0
4,84,92,0
4,72,71,236
4,74,79,168
4,76,86,180
4,76,80,68
4,67,76,208
4,72,76,44
4,74,88,188
4,76,91,188
4,81,92,188
4,71,77,752
4,72,75,740
4,72,80,12928
4,74,81,48
4,76,85,0
4,76,79,8
4,67,74,204
4,72,74,4
4,74,82,64
4,76,77,8
4,79,90,0
4,72,65,560
4,74,76,52
4,76,73,4
4,76,69,36
4,67,65,156
4,72,66,188
4,74,73,0
4,76,77,64
4,81,74,0
4,79,79,24
4,77,69,0
4,76,74,76
4,76,77,32
4,77,77,120
4,76,70,8
4,77,90,0
4,74,69,0
4,77,86,204
4,76,79,124
4,74,66,4
4,74,78,24
4,76,79,120
4,74,73,12
4,76,68,0
4,72,79,0
4,72,90,88
4,74,77,120
4,76,81,0
4,76,82,44
4,69,72,760
4,72,82,348
4,74,86,124
4,76,90,100
4,76,91,56
4,69,70,788
4,72,79,408
4,74,90,120
4,76,88,108
4,76,80,48
4,67,70,20
4,72,86,896
4,74,103,0
4,76,98,0
4,79,90,8
4,77,103,148
4,79,82,132
4,81,82,0
4,81,95,36
4,72,86,192
4,77,103,176
4,79,103,148
4,81,105,0
4,86,103,0
4,84,90,144
4,82,109,184
4,81,90,180
4,81,105,72
4,82,79,132
4,81,98,48
4,82,90,56
4,79,88,4
4,80,105,148
4,81,105,192
4,83,100,16
4,84,105,0
4,72,100,148
4,74,92,188
4,76,86,0
4,76,91,60
4,67,95,12
4,72,90,320
4,74,90,140
4,76,95,104
4,81,97,136
4,79,104,740
4,84,106,184
5,83,59,7192
5,81,49,36
5,83,44,116
5,81,50,76
5,83,43,144
5,81,39,160
5,71,56,276
5,69,58,0
5,68,47,92
5,72,60,220
5,71,56,196
5,69,56,180
5,86,54,196
5,84,55,36
5,83,48,8
5,81,39,4
5,86,54,92
5,84,56,0
5,83,54,16
5,82,38,4
5,91,56,176
5,89,56,0
5,88,52,0
5,86,54,160
5,91,52,0
5,93,54,136
5,91,59,188
5,86,56,3004
5,84,49,0
5,83,49,32
5,81,49,64
5,81,47,152
5,84,48,4
5,84,47,8
5,86,52,184
5,88,52,0
5,88,54,48
5,79,55,188
5,84,58,28
5,86,59,96
5,88,59,172
5,91,54,48
5,84,59,112
5,86,63,188
5,88,60,140
5,88,52,56
5,79,55,32
5,84,56,84
5,86,57,4
5,88,59,4
5,93,56,192
5,91,57,68
5,89,58,192
5,88,54,204
5,88,55,96
5,89,54,92
5,88,54,68
5,89,56,60
5,86,57,84
5,89,56,20
5,88,57,68
5,86,55,4
5,86,58,4
5,88,55,84
5,86,55,96
5,88,52,84
5,84,55,40
5,72,44,108
5,74,58,52
5,76,56,80
5,76,53,60
5,72,38,120
5,74,36,4
5,76,39,196
5,76,50,76
5,86,54,196
5,84,55,40
5,83,48,4
5,81,39,8
5,86,54,92
5,84,56,0
5,83,54,16
5,82,38,4
5,91,56,176
5,89,56,0
5,88,52,0
5,86,54,160
5,91,52,0
5,93,54,132
5,91,59,188
6,60,53,17356
6,62,58,188
6,64,58,164
6,64,45,48
6,55,59,200
6,60,57,744
6,62,61,152
6,64,63,160
6,67,52,188
6,65,58,916
6,67,58,168
6,69,60,144
6,69,59,52
6,60,53,176
6,65,58,756
6,67,58,176
6,69,60,160
6,74,52,192
6,53,53,232
6,55,58,180
6,55,59,40
6,56,60,176
6,57,64,380
6,56,63,164
6,57,64,184
6,56,61,752
6,55,63,4
6,67,58,788
6,65,59,356
6,64,53,152
6,65,60,168
6,64,52,1508
6,72,60,956
6,60,64,0
6,62,68,144
6,74,76,0
6,64,63,168
6,76,75,4
6,64,68,40
6,76,70,0
6,67,62,0
6,55,79,0
6,60,65,568
6,72,67,148
6,62,70,148
6,74,75,0
6,64,72,152
6,76,77,0
6,79,70,176
6,67,66,4
6,60,72,960
6,72,68,4
6,62,70,184
6,74,73,4
6,76,73,168
6,64,74,0
6,76,70,44
6,64,75,4
6,55,77,188
6,67,61,0
6,60,65,732
6,72,63,8
6,62,69,164
6,74,69,0
6,64,65,172
6,76,70,8
6,81,65,176
6,69,65,0
6,79,66,944
6,67,65,4
6,77,67,180
6,65,73,0
6,64,59,156
6,76,60,4
6,64,64,40
6,76,74,4
6,77,67,92
6,65,65,4
6,64,64,76
6,76,67,8
6,65,73,60
6,77,66,4
6,62,76,84
6,74,67,0
6,77,61,536
6,65,59,8
6,76,61,168
6,64,64,0
6,74,58,180
6,62,59,4
6,74,63,48
6,62,60,4
6,64,58,92
6,76,63,4
6,74,67,20
6,62,64,0
6,76,67,68
6,64,60,4
6,72,60,96
6,60,65,4
6,72,60,112
6,74,60,196
6,76,58,156
6,76,60,60
6,72,59,116
6,74,66,176
6,76,61,184
6,76,59,68
6,69,53,380
6,67,55,784
6,83,52,3548
6,71,52,8
6,69,47,188
6,81,47,4
6,68,41,156
6,80,41,4
6,84,45,364
6,72,45,0
6,71,38,188
6,83,37,12
6,69,33,176
6,81,32,4
6,60,36,12
6,67,35,4
6,66,40,720
6,65,46,748
6,60,60,120
6,62,65,200
6,59,46,12
6,64,65,0
6,64,65,12
6,55,59,204
6,60,57,744
6,62,61,160
6,64,63,156
6,67,52,188
6,65,58,916
6,67,58,164
6,69,60,144
6,69,59,52
6,60,53,180
6,65,58,756
6,67,58,176
6,69,60,160
6,74,52,196
6,65,63,212
6,67,63,188
6,67,63,56
6,68,64,204
6,71,67,360
6,69,65,360
6,72,60,4
6,74,61,384
6,68,72,352
6,76,64,4
6,77,62,380
6,79,59,384
6,67,74,4
6,81,50,736
6,69,59,4
6,83,52,1488
6,71,60,0
6,72,52,736
6,84,56,4
6,84,52,72
6,72,53,8
7,45,96,10232
7,52,95,756
7,55,97,6500
7,57,99,384
7,59,98,748
7,58,95,752
7,48,111,720
7,50,102,776
7,55,97,712
7,54,92,760
7,62,97,48
7,53,89,224
7,55,101,192
7,53,96,168
7,52,94,172
7,60,97,736
7,53,104,760
7,62,90,4
7,55,90,768
7,64,92,0
7,65,90,1504
7,57,90,0
7,59,92,720
7,64,76,756
7,60,88,4
7,60,92,4
7,59,98,192
7,62,93,0
7,64,94,176
7,58,90,4
7,59,101,184
7,60,85,548
7,59,91,88
7,57,95,80
7,55,93,732
7,57,100,768
7,59,111,756
7,57,95,760
7,59,100,736
7,61,93,780
7,62,106,728
7,64,104,184
7,65,99,172
7,67,102,168
7,68,104,180
7,69,104,732
7,72,93,544
7,69,88,192
7,64,92,188
7,57,86,184
7,69,90,108
7,67,98,200
7,66,90,176
7,65,98,180
7,57,95,208
7,60,94,376
7,59,94,372
7,59,84,3540
7,62,84,4
7,57,76,172
7,60,76,4
7,56,76,156
7,59,76,8
7,64,74,360
7,60,74,0
7,59,80,196
7,62,81,8
7,57,72,152
7,60,72,8
7,55,97,3464
7,57,99,388
7,59,98,748
7,58,95,752
7,48,111,720
7,50,102,780
7,55,97,716
7,54,92,756
7,62,97,44
7,68,88,792
7,71,97,376
7,72,89,0
7,69,97,8
7,74,89,360
7,68,91,360
7,76,93,4
7,77,91,380
7,67,92,372
7,76,93,0
7,65,90,0
7,74,97,4
7,83,90,736
7,76,92,764
7,84,87,0
7,91,83,4
7,93,88,1520
7,86,81,4
7,77,89,0
7,76,96,1480
7,84,89,4
7,96,84,4
8,38,90,23268
8,43,90,764
8,41,89,540
8,40,86,176
8,45,89,756
8,41,88,756
8,43,92,0
8,45,88,768
8,38,90,4
8,43,83,768
8,36,94,28
8,64,103,6104
8,62,100,44
8,61,111,44
8,59,97,44
8,57,90,20
8,55,95,16
8,53,90,0
8,52,94,4
8,50,125,32
8,52,99,176
8,53,106,180
8,55,91,0
8,56,94,216
8,77,91,208
8,76,91,32
8,74,95,40
8,72,97,32
8,71,93,20
8,69,104,16
8,68,93,48
8,64,96,8
8,57,102,16
8,45,91,1516
8,50,102,0
8,43,97,772
8,36,92,108
8,40,90,16
8,45,89,384
8,38,88,376
8,40,82,340
8,45,77,380
8,38,90,1528
8,38,88,172
8,38,89,84
8,43,89,764
8,38,90,5376
8,50,88,4
8,43,92,8
8,62,91,28
8,53,89,160
8,55,90,0
8,53,93,168
8,41,91,4
8,52,86,160
8,40,92,4
8,60,87,744
8,45,93,16
8,53,90,752
8,41,91,8
8,62,88,360
8,64,89,368
8,55,83,4
8,43,90,8
8,45,95,752
8,38,91,752
8,62,88,4
8,53,90,0
8,43,91,748
8,36,87,736
8,48,88,0
8,55,85,8
8,64,84,0
8,57,82,752
8,65,80,0
8,64,84,1504
8,55,89,4
9,71,91,12108
9,69,94,200
9,68,82,188
9,72,97,316
9,71,98,200
9,69,93,0
9,67,91,80
9,66,82,68
9,65,91,84
9,68,94,7080
9,69,97,4
9,71,97,4
9,72,97,0
9,67,91,3276
9,72,91,4
9,71,90,52
9,69,87,124
10,64,106,25728
10,71,115,192
10,69,119,180
10,60,115,188
10,55,95,4584
10,57,93,776
10,59,106,752
10,60,96,544
10,59,108,0
10,57,97,100
10,55,89,768
10,57,99,752
10,59,100,740
10,64,93,168
10,62,99,92
10,61,95,84
10,59,103,88
10,57,95,4
10,55,99,8
10,53,85,44
10,52,95,36
10,50,98,16
10,52,104,192
10,53,105,188
10,55,101,168
10,56,91,168
10,57,98,772
10,55,90,3364
10,64,85,20
10,57,91,4
10,59,97,8
10,57,94,388
10,55,92,364
10,57,99,344
10,62,97,376
10,61,92,364
10,60,79,4
10,65,90,0
10,50,90,0
10,56,83,376
10,62,93,0
10,52,91,0
10,60,91,4
10,45,92,0
10,55,80,0
10,67,83,4
10,60,79,0
10,50,90,0
10,66,78,740
10,60,79,192
10,65,80,4
10,43,88,720
10,59,82,8
10,74,101,9420
10,72,100,196
10,71,93,168
10,69,95,180
10,67,86,1508
10,62,88,752
10,55,85,0
10,64,94,384
10,64,93,88
10,57,93,0
10,60,81,16
10,62,93,388
10,64,92,364
10,55,95,136
10,64,90,56
11,71,71,2476
11,69,62,68
11,71,69,60
11,69,70,0
11,71,71,244
11,69,72,96
11,71,69,80
11,69,62,168
11,71,59,336
11,69,63,256
11,71,67,92
11,69,70,28
