track,note,velocity,time
3,49,107,3067
3,49,0,575
3,51,97,10193
3,51,0,1067
3,46,84,1
3,51,88,27
3,46,74,17
3,51,74,23283
3,51,0,1069
3,46,86,64
3,51,107,212
3,51,0,1000
3,46,68,4
3,51,77,72
3,46,82,22
3,51,79,5
3,46,62,11
4,39,117,758
4,39,0,61
4,41,106,35
4,41,0,53
4,42,127,43
4,42,0,59
4,44,112,37
4,44,0,53
4,46,117,43
4,46,0,386
4,37,127,1534
4,37,0,656
4,39,99,880
4,39,0,202
4,34,99,950
4,34,0,208
4,34,95,752
4,34,0,139
4,39,95,53
4,39,0,217
4,34,122,935
4,34,0,187
4,34,104,773
4,34,0,123
4,32,104,69
4,32,0,245
4,32,122,907
4,32,0,222
4,32,117,546
4,32,0,102
4,33,98,90
4,33,0,141
4,34,95,51
4,34,0,218
4,34,104,934
4,34,0,188
4,37,95,580
4,37,0,140
4,38,88,52
4,38,0,110
4,39,97,82
4,39,0,236
4,34,97,916
4,34,0,232
4,39,93,920
4,39,0,194
4,34,91,958
4,34,0,220
4,39,112,932
4,39,0,200
4,34,112,952
4,34,0,209
4,34,97,559
4,34,0,134
4,37,99,58
4,37,0,106
4,39,86,86
4,39,0,184
4,34,99,968
4,34,0,231
4,37,104,537
4,37,0,104
4,38,103,88
4,38,0,99
4,39,95,93
4,39,0,189
4,34,97,963
4,34,0,184
4,34,95,584
4,34,0,110
4,37,89,82
4,37,0,98
4,39,97,94
4,39,0,176
4,34,97,976
4,34,0,221
4,34,97,547
4,34,0,94
4,37,86,98
4,37,0,100
4,39,93,92
4,39,0,192
4,34,95,960
4,34,0,196
4,34,91,572
4,34,0,110
4,37,104,82
4,37,0,98
4,39,104,94
4,39,0,178
4,34,104,974
4,34,0,260
4,34,107,508
4,34,0,116
4,37,112,76
4,37,0,83
4,39,97,109
4,39,0,235
4,34,93,917
4,34,0,336
4,34,97,432
4,34,0,100
4,37,99,92
4,37,0,94
4,39,104,98
4,39,0,203
4,34,112,949
4,34,0,696
4,34,122,72
4,34,0,139
4,33,101,53
4,33,0,124
4,32,122,68
4,32,0,312
4,32,122,840
4,32,0,266
4,32,107,502
4,32,0,144
4,33,95,48
4,33,0,115
4,34,107,77
4,34,0,411
4,34,107,741
4,34,0,596
4,37,93,172
4,37,0,103
4,38,95,89
4,38,0,85
4,39,97,107
4,39,0,328
4,34,112,824
4,34,0,329
4,34,91,439
4,34,0,132
4,37,86,60
4,37,0,112
4,39,93,80
4,39,0,364
4,34,107,788
4,34,0,536
4,34,86,232
4,34,0,109
4,37,99,83
4,37,0,135
4,39,112,57
4,39,0,200
4,34,112,952
4,34,0,209
4,34,97,559
4,34,0,134
4,37,99,58
4,37,0,106
4,39,86,86
4,39,0,184
4,34,99,968
4,34,0,231
4,37,104,537
4,37,0,104
4,38,103,88
4,38,0,99
4,39,95,93
4,39,0,189
4,34,97,963
4,34,0,184
4,34,95,584
4,34,0,110
4,37,89,82
4,37,0,98
4,39,97,94
4,39,0,176
4,34,97,976
4,34,0,221
4,34,97,547
4,34,0,94
4,37,86,98
4,37,0,100
4,39,93,92
4,39,0,192
4,34,95,960
4,34,0,196
4,34,91,572
4,34,0,110
4,37,104,82
4,37,0,98
4,39,104,94
4,39,0,178
4,34,104,974
4,34,0,260
4,34,107,508
4,34,0,116
4,37,112,76
4,37,0,83
4,39,97,109
4,39,0,235
4,34,93,917
4,34,0,336
4,34,97,432
4,34,0,100
4,37,99,92
4,37,0,94
4,39,104,98
4,39,0,203
4,34,112,949
4,34,0,696
4,34,122,72
4,34,0,139
4,33,101,53
4,33,0,124
4,32,122,68
4,32,0,312
4,32,122,840
4,32,0,266
4,32,107,502
4,32,0,144
4,33,95,48
4,33,0,115
4,34,107,77
4,34,0,411
4,34,107,741
4,34,0,596
4,37,93,172
4,37,0,103
4,38,95,89
4,38,0,85
4,39,97,107
4,39,0,328
4,34,112,824
4,34,0,329
4,34,91,439
4,34,0,132
4,37,86,60
4,37,0,112
4,39,93,80
4,39,0,364
4,34,107,788
4,34,0,536
4,34,86,232
4,34,0,109
4,37,99,83
4,37,0,135
4,39,112,57
4,39,0,200
4,34,112,952
4,34,0,209
4,34,97,559
4,34,0,134
4,37,99,58
4,37,0,106
4,39,86,86
4,39,0,184
4,34,99,968
4,34,0,231
4,37,104,537
4,37,0,104
4,38,103,88
4,38,0,99
4,39,95,93
4,39,0,189
4,34,97,963
4,34,0,184
4,34,95,584
4,34,0,110
4,37,89,82
4,37,0,98
4,39,97,94
4,39,0,176
4,34,97,976
4,34,0,221
4,34,97,547
4,34,0,94
4,37,86,98
4,37,0,100
4,39,93,92
4,39,0,192
4,34,95,124
4,34,91,90
4,37,104,82
4,37,0,98
4,39,104,88
4,34,104,166
4,34,107,72
4,37,112,76
4,37,0,83
4,39,97,71
4,34,93,47
4,34,97,105
4,34,0,100
4,37,99,84
4,39,104,12
5,58,72,4593
5,54,58,0
5,63,75,0
5,58,0,108
5,54,0,4
5,63,0,6
5,63,67,74
5,54,48,0
5,58,80,0
5,58,0,106
5,63,0,10
5,54,0,3
5,54,72,73
5,58,93,0
5,63,66,0
5,58,0,101
5,54,0,20
5,63,0,3
5,63,98,68
5,54,93,0
5,58,98,0
5,58,0,110
5,54,0,3
5,63,0,3
5,63,72,76
5,54,77,0
5,58,96,0
5,58,0,101
5,63,0,0
5,54,0,5
5,63,77,86
5,58,77,0
5,54,61,0
5,63,0,101
5,58,0,0
5,54,0,0
5,53,82,91
5,61,64,0
5,61,0,101
5,53,0,0
5,58,74,91
5,53,98,0
5,61,88,0
5,61,0,101
5,53,0,7
5,58,0,1
5,53,98,83
5,58,88,0
5,61,93,0
5,53,0,101
5,58,0,0
5,61,0,0
5,53,98,91
5,58,98,0
5,61,98,0
5,61,0,101
5,53,0,3
5,58,0,14
5,53,98,74
5,58,83,0
5,61,91,0
5,61,0,101
5,53,0,0
5,58,0,1
5,61,77,90
5,58,67,0
5,53,98,0
5,61,0,101
5,53,0,0
5,58,0,1
5,58,45,90
5,63,48,0
5,54,34,0
5,58,0,101
5,54,0,10
5,63,0,13
5,63,58,68
5,54,61,0
5,58,77,0
5,58,0,101
5,63,0,11
5,54,0,2
5,58,90,78
5,63,64,0
5,54,67,0
5,58,0,101
5,63,0,0
5,54,0,0
5,63,98,91
5,58,98,0
5,54,96,0
5,58,0,111
5,54,0,0
5,63,0,11
5,54,83,70
5,58,96,0
5,63,80,0
5,54,0,101
5,58,0,0
5,63,0,0
5,63,67,91
5,58,80,0
5,54,48,0
5,63,0,101
5,58,0,0
5,54,0,0
5,58,59,91
5,53,82,0
5,61,64,0
5,61,0,101
5,53,0,7
5,58,0,16
5,53,80,68
5,61,77,0
5,58,64,0
5,53,0,101
5,61,0,0
5,58,0,13
5,58,82,78
5,61,90,0
5,53,98,0
5,53,0,101
5,61,0,0
5,58,0,7
5,61,98,84
5,53,98,0
5,58,91,0
5,53,0,101
5,61,0,2
5,58,0,18
5,58,83,71
5,53,98,0
5,61,96,0
5,61,0,101
5,53,0,0
5,58,0,10
5,53,98,81
5,61,77,0
5,58,64,0
5,53,0,101
5,58,0,0
5,61,0,0
5,56,64,91
5,47,82,0
5,51,56,0
5,47,0,105
5,51,0,4
5,56,0,16
5,56,80,67
5,51,72,0
5,47,98,0
5,47,0,105
5,51,0,4
5,56,0,16
5,56,96,67
5,47,98,0
5,51,88,0
5,47,0,105
5,51,0,4
5,56,0,16
5,56,98,67
5,47,98,0
5,51,98,0
5,47,0,105
5,51,0,4
5,56,0,16
5,47,98,67
5,51,88,0
5,56,96,0
5,47,0,105
5,51,0,4
5,56,0,16
5,47,98,67
5,51,72,0
5,56,80,0
5,47,0,105
5,51,0,4
5,56,0,16
5,51,56,67
5,56,64,0
5,47,82,0
5,47,0,105
5,51,0,4
5,56,0,16
5,56,80,67
5,51,72,0
5,47,98,0
5,47,0,105
5,51,0,4
5,56,0,16
5,47,98,67
5,56,96,0
5,51,88,0
5,47,0,105
5,51,0,4
5,56,0,16
5,51,98,67
5,47,98,0
5,56,98,0
5,47,0,105
5,51,0,4
5,56,0,16
5,56,96,67
5,47,98,0
5,51,88,0
5,47,0,105
5,51,0,4
5,56,0,16
5,56,80,67
5,51,72,0
5,47,98,0
5,47,0,105
5,51,0,4
5,56,0,16
5,53,82,67
5,58,61,0
5,50,82,0
5,58,0,101
5,50,0,7
5,53,0,4
5,58,67,80
5,53,98,0
5,50,98,0
5,50,0,101
5,58,0,0
5,53,0,8
5,50,98,83
5,53,98,0
5,58,82,0
5,58,0,101
5,50,0,7
5,53,0,7
5,53,98,77
5,50,98,0
5,58,98,0
5,50,0,101
5,58,0,0
5,53,0,3
5,58,82,88
5,50,98,0
5,53,98,0
5,53,0,101
5,50,0,0
5,58,0,0
5,58,59,91
5,53,98,0
5,50,72,0
5,50,0,101
5,58,0,0
5,53,0,0
5,50,61,91
5,53,82,0
5,58,45,0
5,53,0,101
5,58,0,0
5,50,0,0
5,58,56,91
5,53,98,0
5,50,72,0
5,53,0,101
5,58,0,0
5,50,0,0
5,53,98,91
5,50,91,0
5,58,66,0
5,50,0,101
5,58,0,0
5,53,0,4
5,53,98,87
5,58,98,0
5,50,98,0
5,53,0,101
5,58,0,11
5,50,0,1
5,58,74,79
5,53,98,0
5,50,98,0
5,50,0,103
5,53,0,5
5,58,0,6
5,53,98,78
5,58,64,0
5,50,98,0
5,58,0,101
5,53,0,0
5,50,0,0
5,58,64,91
5,54,70,0
5,63,54,0
5,63,0,101
5,58,0,0
5,54,0,3
5,54,61,88
5,63,80,0
5,58,77,0
5,58,0,105
5,54,0,7
5,63,0,11
5,63,77,69
5,58,93,0
5,54,72,0
5,58,0,103
5,63,0,11
5,54,0,6
5,63,98,72
5,54,98,0
5,58,98,0
5,58,0,101
5,63,0,7
5,54,0,10
5,58,85,74
5,63,80,0
5,54,56,0
5,63,0,105
5,58,0,0
5,54,0,8
5,54,58,79
5,63,67,0
5,58,80,0
5,58,0,101
5,63,0,0
5,54,0,3
5,61,64,88
5,53,75,0
5,58,40,0
5,53,0,101
5,58,0,3
5,61,0,2
5,58,59,86
5,61,75,0
5,53,91,0
5,61,0,101
5,53,0,0
5,58,0,15
5,61,86,76
5,53,98,0
5,58,62,0
5,53,0,101
5,61,0,0
5,58,0,3
5,61,98,88
5,58,77,0
5,53,98,0
5,61,0,101
5,53,0,0
5,58,0,1
5,61,86,90
5,53,98,0
5,58,67,0
5,58,0,101
5,53,0,0
5,61,0,0
5,53,91,91
5,61,74,0
5,58,66,0
5,53,0,101
5,61,0,9
5,58,0,6
5,63,72,76
5,54,53,0
5,63,0,116
5,54,0,9
5,58,80,67
5,54,56,0
5,63,66,0
5,54,0,101
5,58,0,0
5,63,0,10
5,63,69,81
5,58,86,0
5,54,66,0
5,54,0,101
5,58,0,0
5,63,0,7
5,54,91,84
5,58,98,0
5,63,98,0
5,58,0,101
5,54,0,13
5,63,0,2
5,58,93,76
5,63,72,0
5,54,66,0
5,54,0,101
5,63,0,0
5,58,0,0
5,54,50,91
5,58,74,0
5,63,48,0
5,63,0,101
5,58,0,0
5,54,0,4
5,53,82,87
5,61,54,0
5,58,40,0
5,61,0,101
5,53,0,0
5,58,0,16
5,61,77,75
5,53,98,0
5,58,64,0
5,53,0,101
5,61,0,0
5,58,0,3
5,53,98,88
5,58,72,0
5,61,85,0
5,61,0,101
5,58,0,0
5,53,0,0
5,53,98,91
5,61,98,0
5,58,93,0
5,58,0,101
5,53,0,0
5,61,0,0
5,53,82,91
5,58,80,0
5,61,83,0
5,58,0,101
5,61,0,0
5,53,0,0
5,61,69,91
5,58,53,0
5,53,98,0
5,53,0,101
5,61,0,3
5,58,0,0
5,54,50,88
5,58,54,0
5,63,51,0
5,58,0,101
5,54,0,0
5,63,0,15
5,63,64,76
5,54,59,0
5,58,75,0
5,58,0,101
5,54,0,0
5,63,0,14
5,54,72,77
5,63,80,0
5,58,83,0
5,54,0,101
5,63,0,0
5,58,0,0
5,58,98,91
5,54,91,0
5,63,98,0
5,58,0,101
5,54,0,0
5,63,0,6
5,54,67,85
5,58,75,0
5,63,75,0
5,58,0,101
5,63,0,0
5,54,0,0
5,58,69,91
5,54,61,0
5,63,69,0
5,58,0,101
5,63,0,0
5,54,0,0
5,61,45,91
5,58,16,0
5,53,67,0
5,61,0,101
5,58,0,0
5,53,0,0
5,53,77,91
5,61,51,0
5,58,51,0
5,61,0,101
5,53,0,0
5,58,0,11
5,61,77,80
5,58,72,0
5,53,96,0
5,61,0,101
5,53,0,0
5,58,0,6
5,58,77,85
5,53,98,0
5,61,96,0
5,53,0,101
5,61,0,5
5,58,0,2
5,58,56,84
5,61,72,0
5,53,74,0
5,61,0,101
5,58,0,0
5,53,0,0
5,61,56,91
5,58,37,0
5,53,83,0
5,58,0,101
5,61,0,0
5,53,0,0
5,63,51,91
5,54,34,0
5,58,70,0
5,63,0,103
5,58,0,5
5,54,0,5
5,58,80,79
5,54,64,0
5,63,70,0
5,58,0,111
5,54,0,17
5,63,0,1
5,63,66,63
5,54,61,0
5,58,75,0
5,54,0,102
5,63,0,6
5,58,0,1
5,58,90,83
5,63,98,0
5,54,72,0
5,58,0,108
5,54,0,0
5,63,0,2
5,54,56,82
5,58,83,0
5,63,77,0
5,54,0,101
5,63,0,4
5,58,0,1
5,54,51,86
5,63,66,0
5,58,61,0
5,54,0,101
5,58,0,11
5,63,0,0
5,53,82,80
5,58,32,0
5,61,58,0
5,61,0,102
5,53,0,9
5,58,0,9
5,53,91,72
5,61,70,0
5,58,61,0
5,53,0,101
5,61,0,1
5,58,0,22
5,53,93,68
5,58,64,0
5,61,83,0
5,53,0,101
5,61,0,11
5,58,0,6
5,53,98,74
5,61,93,0
5,58,91,0
5,61,0,101
5,53,0,0
5,58,0,7
5,53,64,84
5,58,58,0
5,61,75,0
5,61,0,101
5,53,0,0
5,58,0,1
5,58,61,90
5,53,98,0
5,61,77,0
5,53,0,101
5,61,0,0
5,58,0,7
5,63,51,84
5,54,13,0
5,58,29,0
5,54,0,101
5,58,0,1
5,63,0,17
5,54,61,73
5,58,67,0
5,63,61,0
5,54,0,101
5,58,0,0
5,63,0,0
5,58,83,91
5,63,80,0
5,54,77,0
5,54,0,101
5,58,0,0
5,63,0,7
5,63,98,84
5,54,98,0
5,58,98,0
5,54,0,101
5,58,0,0
5,63,0,20
5,54,66,71
5,63,66,0
5,58,85,0
5,54,0,101
5,58,0,0
5,63,0,0
5,63,64,91
5,58,80,0
5,54,61,0
5,63,0,101
5,54,0,0
5,58,0,0
5,53,82,91
5,61,64,0
5,58,51,0
5,53,0,101
5,61,0,0
5,58,0,0
5,58,53,91
5,53,46,0
5,61,64,0
5,53,0,101
5,61,0,0
5,58,0,3
5,58,61,88
5,61,90,0
5,53,88,0
5,61,0,101
5,53,0,0
5,58,0,0
5,58,96,91
5,53,98,0
5,61,98,0
5,53,0,101
5,61,0,0
5,58,0,1
5,53,98,90
5,58,82,0
5,61,96,0
5,58,0,101
5,61,0,0
5,53,0,0
5,61,77,91
5,53,86,0
5,58,61,0
5,53,0,101
5,61,0,8
5,58,0,4
5,58,54,79
5,63,58,0
5,54,21,0
5,54,0,101
5,58,0,31
5,63,0,2
5,63,61,58
5,58,67,0
5,54,61,0
5,63,0,101
5,58,0,0
5,54,0,0
5,54,72,91
5,58,80,0
5,63,72,0
5,54,0,101
5,58,0,9
5,63,0,2
5,58,96,80
5,63,98,0
5,54,72,0
5,58,0,101
5,54,0,3
5,63,0,2
5,63,91,86
5,54,80,0
5,58,85,0
5,58,0,101
5,54,0,0
5,63,0,0
5,63,74,91
5,54,56,0
5,58,77,0
5,63,0,101
5,54,0,0
5,58,0,0
5,61,51,91
5,53,82,0
5,58,30,0
5,53,0,101
5,61,0,0
5,58,0,11
5,58,48,80
5,61,67,0
5,53,50,0
5,53,0,101
5,61,0,0
5,58,0,7
5,58,72,84
5,53,98,0
