track,note,velocity,time
0,42,64,687
0,42,59,92
0,62,56,92
0,42,56,92
0,42,61,92
0,39,113,0
0,42,59,92
0,62,57,0
0,62,60,92
0,42,64,92
0,42,64,92
0,63,62,0
0,63,62,92
0,42,58,92
0,42,56,92
0,64,53,0
0,42,56,92
0,39,107,0
0,64,56,0
0,42,59,92
0,42,65,188
0,64,57,0
0,42,56,36
0,62,59,92
0,42,56,92
0,42,61,92
0,39,102,0
0,42,61,92
0,62,58,0
0,62,57,92
0,42,60,92
0,42,65,92
0,63,55,0
0,63,53,92
0,42,63,92
0,42,62,92
0,64,58,0
0,38,114,16
0,42,58,0
0,39,102,0
0,64,58,0
0,42,63,32
0,42,62,188
0,64,59,0
0,36,120,92
0,42,58,0
0,49,119,0
0,39,115,0
0,65,93,0
0,42,59,92
0,62,56,16
0,42,59,16
0,36,115,16
0,38,118,0
0,42,64,0
0,46,115,0
0,65,115,0
0,69,117,0
0,42,56,16
0,62,54,0
0,62,59,8
0,42,62,32
0,36,118,84
0,42,58,0
0,39,101,0
0,63,61,0
0,63,56,32
0,42,60,16
0,42,58,16
0,64,60,0
0,36,113,16
0,38,120,0
0,42,64,0
0,46,114,0
0,64,59,0
0,65,121,0
0,69,113,0
0,42,65,16
0,42,58,16
0,64,56,0
0,36,117,16
0,42,63,0
0,39,107,0
0,42,65,16
0,62,58,16
0,42,58,92
0,36,119,92
0,38,116,0
0,42,57,0
0,42,65,92
0,62,57,0
0,62,54,92
0,42,56,92
0,36,114,92
0,42,65,0
0,39,116,0
0,63,61,0
0,63,60,92
0,42,64,16
0,65,91,0
0,72,97,0
0,42,61,64
0,64,57,0
0,36,111,92
0,38,111,0
0,42,59,0
0,64,62,0
0,42,57,92
0,65,91,16
0,72,100,0
0,42,61,96
0,64,60,0
0,36,116,16
0,42,65,0
0,39,101,0
0,62,95,0
0,77,98,0
0,38,74,0
0,50,70,0
0,42,62,36
0,62,57,92
0,42,63,92
0,36,112,92
0,38,111,0
0,42,56,0
0,42,61,92
0,62,62,0
0,62,56,16
0,79,95,0
0,42,59,92
0,36,111,92
0,42,64,0
0,39,112,0
0,63,57,0
0,63,59,92
0,42,59,16
0,79,92,0
0,42,63,92
0,64,53,0
0,36,114,16
0,38,117,0
0,42,60,0
0,64,55,0
0,84,99,0
0,42,64,92
0,42,62,188
0,64,54,0
0,36,116,92
0,42,58,0
0,39,111,0
0,42,63,92
0,62,55,92
0,42,56,16
0,36,112,16
0,38,115,0
0,42,65,0
0,42,62,16
0,62,61,0
0,62,60,16
0,42,57,16
0,36,114,16
0,42,65,0
0,39,108,0
0,63,58,0
0,63,61,16
0,42,59,32
0,42,63,92
0,64,59,0
0,36,113,92
0,38,112,0
0,42,64,0
0,64,57,0
0,76,95,0
0,74,89,16
0,72,85,12
0,71,81,8
0,69,77,8
0,67,74,0
0,65,72,8
0,42,58,4
0,64,69,0
0,62,65,4
0,60,63,0
0,59,59,12
0,57,56,0
0,64,53,0
0,55,52,4
0,53,46,0
0,52,42,12
0,50,40,0
0,48,35,4
0,47,34,0
0,45,29,16
0,43,26,4
0,41,21,8
0,42,65,8
0,64,56,0
0,40,17,0
0,38,12,8
0,36,7,16
0,35,1,0
0,36,120,8
0,42,56,0
0,49,117,0
0,39,109,0
0,43,73,0
0,55,72,0
0,53,88,0
0,67,84,0
0,72,86,0
0,33,1,0
0,42,65,16
0,62,55,92
0,42,64,92
0,36,114,92
0,38,118,0
0,42,57,0
0,46,115,0
0,65,119,0
0,69,117,0
0,42,63,92
0,62,62,0
0,62,61,0
0,42,57,88
0,36,113,92
0,42,62,0
0,39,113,0
0,63,55,0
0,63,60,92
0,42,61,64
0,42,57,92
0,64,55,0
0,36,115,92
0,38,114,0
0,42,64,0
0,46,111,0
0,64,59,0
0,65,112,0
0,69,117,0
0,42,56,92
0,42,64,84
0,64,60,0
0,36,111,92
0,42,64,0
0,39,119,0
0,42,61,92
0,62,53,28
0,53,81,0
0,42,64,92
0,36,118,92
0,38,118,0
0,42,64,0
0,42,58,92
0,62,53,0
0,62,53,28
0,53,70,0
0,42,61,92
0,36,119,92
0,42,63,0
0,39,100,0
0,63,56,0
0,63,62,92
0,42,65,28
0,53,50,0
0,42,63,92
0,64,55,0
0,36,119,92
0,38,114,0
0,42,64,0
0,64,62,0
0,42,62,92
0,53,30,28
0,42,65,96
0,64,60,0
0,36,120,24
0,42,62,0
0,39,109,0
0,48,73,0
0,60,73,0
0,72,88,0
0,77,80,0
0,42,61,92
0,62,61,92
0,42,63,92
0,36,120,92
0,38,114,0
0,42,63,0
0,79,122,0
0,84,114,0
0,42,59,92
0,62,54,0
0,62,57,92
0,42,64,92
0,36,116,92
0,42,59,0
0,39,119,0
0,63,59,0
0,63,55,92
0,42,62,32
0,42,58,32
0,64,62,0
0,36,111,48
0,38,116,0
0,42,59,0
0,46,112,0
0,64,59,0
0,42,59,16
0,42,65,188
0,64,58,0
0,36,117,92
0,42,60,0
0,39,101,0
0,79,122,0
0,84,116,0
0,42,60,92
0,38,115,28
0,46,113,0
0,62,57,0
0,42,63,92
0,36,118,92
0,38,113,0
0,42,64,0
0,46,120,0
0,42,63,16
0,62,58,0
0,62,56,20
0,42,62,48
0,36,114,92
0,38,118,0
0,42,59,0
0,46,118,0
0,39,119,0
0,63,57,0
0,79,115,0
0,84,115,0
0,67,111,0
0,65,110,0
0,64,104,0
0,62,101,8
0,60,98,0
0,59,94,4
0,57,89,8
0,63,60,8
0,55,85,0
0,53,79,0
0,52,72,0
0,50,66,0
0,48,60,20
0,38,120,0
0,42,59,0
0,46,118,0
0,47,55,0
0,45,49,4
0,43,44,8
0,41,36,4
0,42,56,12
0,64,61,0
0,40,30,0
0,38,25,0
0,36,17,4
0,35,12,20
0,36,120,12
0,38,113,0
0,42,59,0
0,46,112,0
0,64,57,0
0,79,122,0
0,84,122,0
0,69,105,0
0,82,119,0
0,67,104,0
0,65,95,0
0,64,90,4
0,62,86,4
0,60,83,0
0,59,78,4
0,42,56,4
0,57,73,8
0,55,67,5
0,53,61,16
0,52,54,0
0,38,112,7
0,46,117,0
0,50,47,0
0,48,39,0
0,47,32,0
0,45,24,0
0,42,61,16
0,64,60,0
0,43,16,4
0,41,10,0
0,40,1,0
0,38,1,0
0,36,114,8
0,42,56,0
0,49,116,0
0,39,109,0
0,70,89,0
0,72,89,0
0,77,90,0
0,63,85,0
0,70,75,0
0,72,75,0
0,77,69,0
0,77,114,0
0,82,120,0
0,58,82,0
0,60,85,0
0,65,89,0
0,82,119,0
0,42,57,4
0,41,110,0
0,65,84,0
0,62,53,4
0,41,112,0
0,70,81,0
0,72,90,0
0,77,84,0
0,65,89,0
0,42,64,12
0,70,88,0
0,72,90,0
0,77,81,0
0,36,112,12
0,38,120,0
0,42,60,0
0,46,115,0
0,39,117,0
0,70,89,0
0,72,88,0
0,77,89,0
0,82,116,0
0,42,62,12
0,62,59,0
0,62,62,16
0,36,115,0
0,70,88,0
0,72,85,0
0,77,85,0
0,77,123,0
0,82,117,0
0,42,64,12
0,70,89,0
0,72,88,0
0,77,84,0
0,36,112,12
0,42,65,0
0,63,56,0
0,39,109,0
0,69,89,0
0,72,90,0
0,77,81,0
0,69,74,0
0,77,119,0
0,81,123,0
0,57,88,0
0,81,117,0
0,63,55,12
0,42,63,16
0,34,113,0
0,69,88,0
0,72,90,0
0,77,82,0
0,42,61,12
0,64,62,0
0,36,108,0
0,69,82,0
0,72,81,0
0,77,89,0
0,77,122,0
0,81,119,0
0,36,115,12
0,38,120,0
0,42,59,0
0,46,112,0
0,39,114,0
0,64,61,0
0,69,90,0
0,72,90,0
0,77,90,0
0,81,119,0
0,42,59,12
0,39,115,0
0,69,90,12
0,72,86,0
0,77,81,0
0,77,115,0
0,79,115,0
0,42,58,12
0,64,56,0
0,39,108,0
0,69,87,0
0,72,88,0
0,77,84,0
0,36,117,12
0,42,64,0
0,39,114,0
0,67,86,0
0,72,85,0
0,77,86,0
0,63,85,0
0,67,75,0
0,55,84,0
0,42,60,4
0,41,113,0
0,65,89,0
0,41,111,4
0,67,83,0
0,72,83,0
0,77,89,0
0,65,89,0
0,42,64,12
0,67,82,0
0,72,82,0
0,77,84,0
0,36,112,12
0,38,113,0
0,42,61,0
0,46,118,0
0,67,88,0
0,72,81,0
0,77,83,0
0,42,65,12
0,36,112,92
0,67,83,0
0,72,89,0
0,77,89,0
0,77,121,0
0,79,117,0
0,42,64,12
0,67,86,0
0,72,82,0
0,77,85,0
0,36,116,12
0,42,57,0
0,39,109,0
0,69,87,0
0,72,89,0
0,77,83,0
0,69,70,0
0,77,116,0
0,79,122,0
0,57,87,0
0,34,116,12
0,42,61,12
0,69,86,0
0,72,89,0
0,77,90,0
0,42,60,12
0,36,113,0
0,69,83,0
0,72,86,0
0,77,85,0
0,77,115,0
0,81,119,0
0,36,111,12
0,38,118,0
0,42,57,0
0,46,118,0
0,69,88,0
0,72,82,0
0,77,86,0
0,42,60,12
0,39,113,92
0,69,81,0
0,72,83,0
0,77,85,0
0,38,118,12
0,42,56,0
0,46,116,0
0,39,109,0
0,69,90,0
0,72,82,0
0,77,86,0
0,36,113,12
0,42,62,0
0,36,108,0
0,69,81,0
0,74,84,0
0,77,84,0
0,60,84,0
0,74,74,0
0,62,80,0
0,42,65,4
0,38,114,0
0,62,84,0
0,62,57,4
0,38,114,0
0,69,82,0
0,74,86,0
0,77,88,0
0,62,82,0
0,42,62,12
0,69,88,0
0,74,82,0
0,77,83,0
0,36,117,12
0,38,118,0
0,42,60,0
0,46,116,0
0,39,107,0
0,69,88,0
0,74,89,0
0,77,81,0
0,72,119,0
0,79,120,0
0,42,65,12
0,62,62,0
0,62,53,92
0,33,114,0
0,69,81,0
0,74,85,0
0,77,87,0
0,42,65,12
0,69,83,0
0,74,84,0
0,77,85,0
0,72,117,0
0,79,118,0
0,36,119,12
0,42,65,0
0,63,53,0
0,36,112,0
0,69,85,0
0,74,84,0
0,77,89,0
0,63,53,12
0,42,62,20
0,31,110,0
0,69,85,0
0,74,82,0
0,77,89,0
0,74,114,0
0,77,115,0
0,42,56,12
0,64,58,0
0,33,110,0
0,69,90,0
0,74,86,0
0,77,89,0
0,36,116,12
0,38,113,0
0,42,60,0
0,46,114,0
0,39,119,0
0,64,62,0
0,69,81,0
0,74,82,0
0,77,83,0
0,42,61,12
0,36,107,0
0,69,85,12
0,74,81,0
0,77,85,0
0,42,65,12
0,64,55,0
0,36,115,0
0,69,86,0
0,74,81,0
0,77,85,0
0,36,116,12
0,42,65,0
0,36,107,0
0,69,81,0
0,74,83,0
0,77,85,0
0,42,58,12
0,38,113,0
0,38,113,12
0,69,89,0
0,74,88,0
0,77,83,0
0,42,60,12
0,69,83,0
0,74,81,0
0,77,90,0
0,36,114,12
0,38,112,0
0,42,56,0
0,46,111,0
0,69,85,0
0,74,89,0
0,77,89,0
0,42,57,12
0,33,109,92
0,69,82,0
0,74,84,0
0,77,83,0
0,42,60,12
0,69,88,0
0,74,89,0
0,77,86,0
0,36,114,12
0,42,59,0
0,36,110,0
0,69,85,0
0,74,90,0
0,77,84,0
0,31,110,12
0,42,56,12
0,69,90,0
0,74,86,0
0,77,82,0
0,42,58,12
0,33,111,0
0,69,82,0
0,74,81,0
0,77,88,0
0,36,114,12
0,38,116,0
0,42,62,0
0,46,113,0
0,69,82,0
0,74,89,0
0,77,89,0
0,42,61,12
0,36,108,92
0,69,87,0
0,74,81,0
0,77,85,0
0,38,118,12
0,42,60,0
0,46,117,0
0,69,89,0
0,74,89,0
0,77,85,0
0,36,116,12
0,42,65,0
0,49,115,0
0,31,116,0
0,70,85,0
0,74,87,0
0,77,84,0
0,55,85,0
0,70,74,0
0,74,66,0
0,77,123,0
0,84,114,0
0,58,88,0
0,62,88,0
0,42,61,4
0,31,109,0
0,55,82,0
0,62,59,4
0,31,115,0
0,70,87,0
0,74,89,0
0,77,87,0
0,55,86,0
0,42,62,12
0,70,86,0
0,74,84,0
0,77,83,0
0,36,112,12
0,38,112,0
0,42,58,0
0,46,115,0
0,39,105,0
0,70,86,0
0,74,89,0
0,77,88,0
0,42,56,12
0,62,57,0
0,62,59,92
0,38,115,0
0,70,85,0
0,74,83,0
0,77,87,0
0,77,120,0
0,84,118,0
0,42,58,12
0,70,81,0
0,74,82,0
0,77,88,0
0,36,119,12
0,42,64,0
0,63,53,0
0,41,113,0
0,70,87,0
0,74,86,0
0,77,81,0
0,77,117,0
0,82,116,0
0,63,62,12
0,42,65,20
0,36,115,0
0,70,90,0
0,74,87,0
0,77,86,0
0,42,62,12
0,64,56,0
0,38,110,0
0,70,83,0
0,74,89,0
0,77,90,0
0,77,115,0
0,82,121,0
0,36,120,12
0,38,120,0
0,42,60,0
0,46,120,0
0,39,105,0
0,64,59,0
0,70,87,0
0,74,81,0
0,77,84,0
0,42,56,12
0,38,113,0
0,70,89,12
0,74,86,0
0,77,84,0
0,77,114,0
0,81,121,0
0,42,59,12
0,64,61,0
0,38,111,0
0,70,88,0
0,74,86,0
0,77,90,0
0,36,114,12
0,42,64,0
0,31,111,0
0,70,89,0
0,74,90,0
0,77,82,0
0,55,88,0
0,42,61,4
0,31,112,0
0,55,82,0
0,31,116,4
0,70,90,0
0,74,87,0
0,77,81,0
0,55,84,0
0,42,63,12
0,70,85,0
0,74,85,0
0,77,81,0
0,36,118,12
0,38,116,0
0,42,62,0
0,46,112,0
0,70,87,0
0,74,81,0
0,77,83,0
0,42,64,12
0,38,107,92
0,70,89,0
0,74,88,0
0,77,85,0
0,77,115,0
0,81,118,0
0,42,58,12
0,70,84,0
0,74,88,0
0,77,82,0
0,36,111,12
0,42,60,0
0,41,116,0
0,70,81,0
0,74,82,0
0,77,88,0
0,77,114,0
0,81,116,0
0,36,108,12
0,42,56,12
0,70,87,0
0,74,87,0
0,77,82,0
0,42,65,12
0,38,108,0
0,70,82,0
0,74,90,0
0,77,86,0
0,77,118,0
0,82,117,0
0,36,114,12
0,38,113,0
0,42,65,0
0,46,113,0
0,70,84,0
0,74,86,0
0,77,83,0
0,42,64,12
0,38,107,92
0,70,81,0
0,74,86,0
0,77,85,0
0,38,117,12
0,42,61,0
0,46,120,0
0,38,113,0
0,70,83,0
0,74,83,0
0,77,87,0
0,36,119,12
0,42,64,0
0,36,116,0
0,70,90,0
0,74,84,0
0,77,81,0
0,60,85,0
0,42,63,4
0,36,109,0
0,60,83,0
0,62,57,4
0,36,111,0
0,70,88,0
0,74,82,0
0,77,86,0
0,60,82,0
0,42,62,12
0,70,87,0
0,74,84,0
0,77,88,0
0,36,112,12
0,38,111,0
0,42,57,0
0,46,111,0
0,39,111,0
0,70,82,0
0,74,89,0
0,77,87,0
0,77,119,0
0,84,115,0
0,42,59,12
0,62,56,0
0,62,61,92
0,31,113,0
0,70,90,0
0,74,87,0
0,77,90,0
0,42,62,12
0,70,84,0
0,74,85,0
0,77,82,0
0,77,115,0
0,84,119,0
0,36,114,12
0,42,58,0
0,63,59,0
0,34,115,0
0,70,89,0
0,74,83,0
0,77,87,0
0,63,61,12
0,42,60,20
0,29,115,0
0,70,86,0
0,74,89,0
0,77,83,0
0,77,121,0
0,84,119,0
0,42,61,12
0,64,60,0
0,31,109,0
0,70,81,0
0,74,82,0
0,77,89,0
0,36,117,12
0,38,120,0
0,42,60,0
0,46,120,0
0,39,119,0
0,64,61,0
0,70,88,0
0,74,84,0
0,77,83,0
0,42,63,12
0,34,107,0
0,70,90,12
0,74,86,0
0,77,82,0
0,42,63,12
0,64,62,0
0,34,113,0
0,70,90,0
0,74,85,0
0,77,86,0
0,36,113,12
0,42,65,0
0,36,112,0
0,70,81,0
0,74,89,0
0,77,87,0
0,60,83,0
0,42,61,4
0,36,107,0
0,60,82,0
0,62,55,4
0,36,116,0
0,70,83,0
0,74,81,0
0,77,85,0
0,60,88,0
0,79,116,0
0,84,115,0
0,42,63,12
0,70,90,0
0,74,88,0
