track,note,velocity,time
2,31,105,3072
2,31,86,78
2,31,94,86
2,31,83,86
2,31,90,94
2,31,86,82
2,31,91,90
2,31,85,88
2,31,100,100
2,31,91,90
2,31,96,90
2,31,91,100
2,31,100,110
2,31,100,82
2,33,92,16
2,35,86,192
2,36,91,184
2,36,87,90
2,36,105,90
2,36,94,110
2,36,92,108
2,36,92,98
2,36,94,100
2,36,93,110
2,38,84,14
2,38,77,90
2,38,91,110
2,38,83,90
2,38,89,90
2,38,86,90
2,38,95,98
2,38,86,80
2,31,87,2
2,31,75,88
2,31,96,88
2,31,86,90
2,31,87,110
2,31,86,90
2,31,90,108
2,31,89,88
2,31,95,100
2,31,83,100
2,31,86,102
2,31,90,100
2,31,90,108
2,31,90,98
2,33,92,24
2,35,86,6
2,36,84,192
2,36,92,102
2,36,98,108
2,36,83,90
2,36,95,100
2,36,94,88
2,36,98,110
2,36,89,108
2,38,86,14
2,38,82,90
2,38,90,100
2,38,86,100
2,38,87,92
2,38,77,90
2,38,85,80
2,38,86,92
2,31,84,22
2,31,83,80
2,31,89,88
2,31,86,98
2,31,95,100
2,31,88,82
2,31,98,100
2,31,86,82
2,31,100,100
2,31,84,90
2,31,95,90
2,31,92,110
2,31,95,100
2,31,92,80
2,33,100,108
2,35,95,32
2,36,97,6
2,36,92,90
2,36,105,110
2,36,97,92
2,36,104,108
2,36,98,100
2,36,101,110
2,36,98,102
2,38,101,24
2,38,84,102
2,38,100,120
2,38,86,98
2,38,96,120
2,38,84,98
2,38,95,98
2,38,83,90
2,31,94,6
2,31,91,82
2,31,98,100
2,31,86,88
2,31,95,98
2,31,91,98
2,31,95,98
2,31,89,90
2,31,95,100
2,31,88,98
2,31,98,100
2,31,92,88
2,31,96,110
2,31,100,98
2,33,92,34
2,35,90,192
2,36,95,4
2,36,94,90
2,36,105,106
2,36,94,92
2,36,105,120
2,36,101,90
2,36,103,108
2,36,101,110
2,38,100,14
2,38,87,90
2,38,100,108
2,38,91,90
2,38,103,110
2,38,90,90
2,38,94,90
2,38,96,90
2,40,105,192
2,40,86,106
2,40,98,106
2,40,87,94
2,40,100,112
2,40,88,102
2,40,92,100
2,40,84,100
2,40,90,108
2,40,86,100
2,40,86,120
2,40,88,98
2,40,89,110
2,40,87,108
2,38,100,110
2,38,83,98
2,36,98,14
2,36,94,90
2,36,100,100
2,36,96,90
2,36,105,98
2,36,92,80
2,36,104,108
2,36,98,98
2,38,86,192
2,38,83,90
2,38,103,90
2,38,88,100
2,38,86,98
2,38,84,72
2,38,95,80
2,30,104,16
2,31,89,192
2,31,81,88
2,31,105,100
2,31,88,108
2,31,101,110
2,31,91,100
2,31,96,98
2,31,91,88
2,31,98,110
2,31,90,100
2,31,101,100
2,31,92,98
2,31,96,110
2,31,95,80
2,33,86,24
2,35,86,14
2,36,98,192
2,36,98,90
2,36,103,100
2,36,92,110
2,36,105,120
2,36,95,110
2,36,104,108
2,36,98,100
2,38,94,14
2,38,81,100
2,38,95,110
2,38,90,100
2,38,92,110
2,38,87,100
2,38,88,88
2,38,92,90
2,31,98,14
2,31,87,98
2,31,105,108
2,31,86,98
2,31,96,98
2,31,92,98
2,31,103,110
2,31,94,100
2,31,100,108
2,31,96,92
2,31,105,110
2,31,98,88
2,31,105,100
2,31,103,90
2,33,87,24
2,35,86,4
2,36,95,2
2,36,98,100
2,36,100,110
2,36,94,108
2,36,96,98
2,36,97,102
2,36,104,110
2,36,102,90
2,38,95,24
2,38,87,98
2,38,95,98
2,38,91,108
2,38,100,110
2,38,88,88
2,38,105,90
2,38,100,110
2,40,87,192
2,40,82,98
2,40,96,108
2,40,86,100
2,40,94,108
2,40,86,98
2,40,100,110
2,40,86,100
2,40,101,108
2,40,83,100
2,40,100,118
2,40,85,90
2,40,95,108
2,40,92,110
2,40,103,98
2,38,89,32
2,36,101,14
2,36,97,82
2,36,101,108
2,36,94,70
2,36,105,100
2,36,100,90
2,36,98,108
2,36,105,102
2,38,105,14
2,38,101,98
2,38,105,102
2,38,98,98
2,38,105,118
2,38,96,80
2,38,103,92
2,30,105,4
2,31,105,32
2,31,90,82
2,31,105,98
2,31,105,80
2,31,105,98
2,31,95,90
2,31,105,98
2,31,86,98
2,31,105,108
2,31,91,90
2,31,105,108
2,31,103,100
2,31,105,120
2,31,96,80
2,33,98,60
2,35,100,32
2,36,105,192
2,36,100,96
2,36,105,108
2,36,103,110
2,36,105,118
2,36,95,98
2,36,105,120
2,36,101,100
2,38,105,90
2,38,100,92
2,38,105,110
2,38,92,100
2,38,105,108
2,38,96,100
2,38,105,100
2,30,105,14
2,31,105,64
2,31,89,64
2,31,105,98
2,31,92,100
2,31,105,90
2,31,95,88
2,31,105,98
2,31,89,90
2,31,105,100
2,31,92,98
2,31,105,110
2,31,103,98
2,31,105,108
2,31,100,100
2,33,87,6
2,35,88,22
2,36,97,192
2,36,88,80
2,36,105,98
2,36,90,98
2,36,105,108
2,36,96,110
2,36,105,120
2,36,98,120
2,38,105,4
2,38,87,110
2,38,98,90
2,38,95,88
2,38,103,100
2,38,83,90
2,38,101,80
2,30,103,14
2,31,75,0
2,31,84,112
2,31,105,100
2,31,82,100
2,31,96,108
2,31,86,88
2,31,100,110
2,31,87,90
2,31,105,110
2,31,96,108
2,31,96,98
2,31,86,98
2,31,95,100
2,31,94,98
2,33,86,14
2,35,89,192
2,36,103,186
2,36,96,98
2,36,104,108
2,36,100,118
2,36,105,118
2,36,101,100
2,36,105,110
2,36,103,118
2,38,101,62
2,38,89,100
2,38,101,110
2,38,90,98
2,38,100,110
2,38,92,98
2,38,100,110
2,38,100,88
2,31,86,4
2,31,87,78
2,31,105,100
2,31,94,90
2,31,101,108
2,31,89,82
2,31,95,100
2,31,100,90
2,31,105,108
2,31,94,90
2,31,105,108
2,31,86,108
2,31,105,110
2,31,105,88
2,33,96,14
2,35,96,24
2,36,101,192
2,36,101,98
2,36,105,110
2,36,104,110
2,36,105,118
2,36,103,88
2,36,104,110
2,36,100,108
2,38,105,54
2,38,95,100
2,38,105,98
2,38,96,100
2,38,105,108
2,38,101,98
2,38,105,120
2,38,100,90
2,31,98,192
2,31,80,78
2,31,105,100
2,31,94,90
2,31,105,108
2,31,91,98
2,31,105,110
2,31,95,100
2,31,105,100
2,31,98,100
2,31,103,100
2,31,95,90
2,31,101,100
2,31,103,90
2,33,92,4
2,35,95,32
2,36,105,192
2,36,103,98
2,36,105,106
2,36,105,100
2,36,105,120
2,36,102,100
2,36,105,100
2,36,103,100
2,38,103,192
2,38,90,98
2,38,105,110
2,38,103,110
2,38,105,110
2,38,101,100
2,38,105,118
2,38,98,110
2,40,95,192
2,40,86,98
2,40,103,100
2,40,92,110
2,40,95,108
2,40,88,108
2,40,105,110
2,40,86,90
2,40,98,110
2,40,92,100
2,40,105,118
2,40,86,100
2,40,105,118
2,40,95,100
2,38,94,108
2,38,105,82
2,36,100,34
2,36,97,92
2,36,105,108
2,36,105,90
2,36,105,108
2,36,102,88
2,36,105,108
2,36,100,88
2,38,105,90
2,38,96,88
2,38,105,88
2,38,105,88
2,38,105,100
2,38,101,78
2,38,105,90
2,38,105,92
2,31,105,192
2,31,101,90
2,31,105,108
2,31,105,78
2,31,105,80
2,31,91,92
2,31,105,102
2,31,95,88
2,31,105,108
2,31,95,78
2,31,105,100
2,31,101,90
2,31,105,110
2,31,105,88
2,33,103,44
2,35,101,192
2,36,105,2
2,36,101,100
2,36,105,100
2,36,99,98
2,36,105,100
2,36,105,100
2,36,105,108
2,36,105,100
2,38,105,44
2,38,98,90
2,38,105,100
2,38,105,90
2,38,105,100
2,36,100,14
2,35,105,192
2,33,105,172
2,31,105,152
2,31,94,88
2,31,105,90
2,31,91,80
2,31,105,90
2,31,90,98
2,31,105,118
2,31,91,90
2,31,105,98
2,31,95,90
2,31,105,100
2,31,100,100
2,31,105,98
2,31,103,90
2,33,105,32
2,35,105,192
2,36,105,60
2,36,105,90
2,36,105,108
2,36,104,98
2,36,105,108
2,36,105,100
2,36,105,120
2,36,105,108
2,38,88,192
2,38,101,88
2,38,105,108
2,38,105,98
2,38,105,118
2,38,105,98
2,38,105,108
2,38,105,100
2,40,100,4
2,40,91,90
2,40,103,110
2,40,87,100
2,40,105,118
2,40,91,98
2,40,105,110
2,40,94,108
2,40,105,120
2,40,91,100
2,40,105,110
2,40,101,108
2,40,103,120
2,40,105,108
2,40,105,118
2,38,95,22
2,36,105,16
2,36,99,88
2,36,105,100
2,36,105,100
2,36,105,108
2,36,105,90
2,36,105,98
2,36,105,108
2,38,101,192
2,38,103,98
2,38,105,108
2,38,100,100
2,38,105,108
2,38,105,98
2,36,105,110
2,35,92,44
2,33,105,44
2,33,105,80
2,33,105,88
2,33,95,90
2,33,105,108
2,33,105,90
2,33,105,108
2,33,105,100
2,33,105,108
2,33,94,100
2,33,105,100
2,33,91,100
2,33,105,90
2,33,100,92
2,33,105,100
2,35,101,4
2,36,103,2
2,36,103,98
2,36,105,100
2,36,105,108
2,36,105,110
2,36,105,90
2,36,105,98
2,36,105,110
2,38,105,34
2,38,105,100
2,38,105,90
2,38,105,102
2,38,105,80
2,36,105,4
2,35,105,192
2,33,105,170
2,31,105,4
2,31,98,100
2,31,105,100
2,31,94,80
2,31,105,98
2,31,98,90
2,31,105,100
2,31,101,100
2,31,105,108
2,31,101,100
2,31,105,110
2,31,105,100
2,31,105,100
2,31,105,90
2,33,105,60
2,35,105,192
2,36,105,2
2,36,105,98
2,36,105,110
2,36,105,90
2,36,105,108
2,36,105,80
2,36,105,100
2,36,105,102
2,38,105,14
2,38,98,100
2,38,105,100
2,38,103,90
2,38,103,100
2,38,105,88
2,38,105,100
2,36,105,6
2,31,105,12
2,31,98,60
2,31,105,98
2,31,95,100
2,31,105,100
2,31,98,100
2,31,105,110
2,31,100,98
2,31,105,118
2,31,98,110
2,31,105,110
2,31,105,100
2,31,105,110
2,31,105,88
2,33,105,44
2,35,105,192
2,36,99,4
2,36,105,88
2,36,105,118
2,36,105,90
2,36,105,118
2,36,105,80
2,36,105,110
2,36,105,110
2,38,105,4
2,38,105,90
2,38,105,100
2,38,94,90
2,38,105,108
2,36,105,12
2,35,105,192
2,33,105,154
2,31,105,22
2,31,101,80
2,31,105,90
2,31,101,90
2,31,105,100
2,31,101,88
2,31,105,112
2,31,105,88
2,31,105,98
2,31,105,90
2,31,105,98
2,31,105,88
2,31,105,110
2,31,105,96
2,33,105,96
2,35,101,22
2,36,105,192
2,36,102,88
2,36,105,120
2,36,100,110
2,36,105,118
2,36,104,80
2,36,105,108
2,36,104,112
2,38,105,192
2,38,103,108
2,38,105,108
2,38,100,100
2,38,105,106
2,38,105,100
2,38,105,100
2,38,103,102
2,40,105,192
2,40,89,98
2,40,105,100
2,40,89,100
2,40,105,116
2,40,90,98
2,40,105,110
2,40,95,108
2,40,103,118
2,40,94,100
2,40,105,120
2,40,92,110
2,40,105,120
2,40,105,118
2,40,105,110
2,38,94,192
2,36,102,186
2,36,92,82
2,36,105,90
2,36,98,100
2,36,104,110
2,36,105,78
2,36,105,110
2,36,103,100
2,38,105,4
2,38,94,108
2,38,105,98
2,38,85,90
2,38,105,100
2,38,105,80
2,36,105,192
2,35,103,186
2,31,105,160
2,31,86,90
2,31,105,98
2,31,90,100
2,31,105,98
2,31,90,100
2,31,105,108
2,31,100,90
2,31,105,108
2,31,101,110
2,31,105,110
2,31,105,110
2,31,105,100
2,31,100,108
2,33,100,14
2,35,105,192
2,36,105,172
2,36,105,100
2,36,105,118
2,36,105,98
2,36,105,106
2,36,105,100
2,36,105,98
2,36,105,108
2,38,105,24
2,38,92,100
2,38,105,100
2,38,101,108
2,38,105,110
2,38,105,100
2,36,102,4
2,35,105,192
2,31,105,166
2,31,86,96
2,31,105,100
2,31,95,88
2,31,105,110
2,31,95,100
2,31,105,120
2,31,92,110
2,31,105,118
2,31,98,100
2,31,105,110
2,31,105,110
2,31,101,128
2,31,100,100
2,33,91,14
2,35,96,0
2,36,102,192
2,36,97,90
2,36,105,108
2,36,98,110
2,36,105,118
2,36,98,100
2,36,105,110
2,36,105,98
2,38,105,192
2,38,95,88
2,38,105,100
2,38,91,108
2,38,105,100
2,38,105,110
2,36,102,2
2,35,105,192
2,31,105,182
2,31,90,88
2,31,105,100
2,31,90,100
2,31,105,108
2,31,96,100
2,31,105,110
2,31,89,120
2,31,105,106
2,31,91,108
2,31,105,110
2,31,96,108
2,31,105,108
2,31,100,110
2,33,105,32
2,35,98,4
2,36,90,14
2,36,105,102
2,36,105,110
2,36,100,100
2,36,105,118
2,36,97,108
2,36,105,120
2,36,95,110
2,38,105,42
2,38,90,118
2,38,105,118
2,38,105,108
2,38,105,120
2,38,105,100
2,36,105,16
2,35,105,192
2,31,105,14
2,31,100,90
2,31,105,110
2,31,96,98
2,31,105,110
2,31,101,108
2,31,105,118
2,31,101,98
2,31,105,110
2,31,100,90
2,31,105,118
2,31,101,88
2,31,105,108
2,31,105,90
2,33,105,34
2,35,103,192
2,36,105,14
2,36,105,100
2,36,105,118
2,36,105,108
2,36,105,116
2,36,101,110
2,36,105,110
2,36,100,110
2,38,103,14
2,38,105,100
2,38,105,118
2,38,105,118
2,38,105,118
2,38,105,110
2,36,105,14
2,35,105,192
2,31,105,4
3,62,91,52208
3,67,91,0
3,62,91,386
3,67,91,0
3,62,91,320
3,67,91,0
3,62,91,380
3,67,91,0
3,62,91,340
3,67,91,0
3,62,91,366
3,67,91,0
3,62,91,530
3,67,91,0
3,62,91,13
3,67,91,0
3,62,91,17
3,64,91,190
3,69,91,0
3,64,91,8
3,69,91,0
3,62,91,172
3,67,91,0
3,62,91,434
3,67,91,0
3,62,91,342
3,67,91,0
3,62,91,386
3,67,91,0
3,62,91,340
3,67,91,0
3,62,91,398
3,67,91,0
3,62,91,518
3,67,91,0
3,62,91,13
3,67,91,0
3,62,91,19
3,64,91,16
3,69,91,0
3,64,91,8
3,69,91,0
3,57,91,23328
3,62,91,0
3,57,91,186
3,62,91,0
3,57,91,12
3,62,91,0
3,57,91,20
3,62,91,0
3,62,91,20
3,67,91,0
3,62,91,386
3,67,91,0
3,62,91,320
3,67,91,0
3,62,91,380
3,67,91,0
3,62,91,340
3,67,91,0
3,62,91,366
3,67,91,0
3,62,91,530
3,67,91,0
3,62,91,13
3,67,91,0
3,62,91,23
3,64,91,188
3,69,91,0
3,64,91,8
3,69,91,0
3,62,91,172
3,67,91,0
3,62,91,434
3,67,91,0
3,62,91,342
3,67,91,0
3,62,91,386
3,67,91,0
3,62,91,340
3,67,91,0
3,62,91,398
3,67,91,0
3,62,91,518
3,67,91,0
3,62,91,13
3,67,91,0
3,62,91,19
3,64,91,8
3,69,91,0
3,64,91,8
3,69,91,0
3,57,91,11040
3,62,91,0
3,57,91,186
3,62,91,0
3,57,91,12
3,62,91,0
3,57,91,20
3,62,91,0
3,62,91,20
3,67,91,0
3,62,91,386
3,67,91,0
3,62,91,320
3,67,91,0
3,62,91,380
3,67,91,0
3,62,91,340
3,67,91,0
3,62,91,366
3,67,91,0
3,62,91,530
3,67,91,0
3,62,91,13
3,67,91,0
3,62,91,19
3,64,91,190
3,69,91,0
3,64,91,8
3,69,91,0
3,62,91,172
3,67,91,0
3,62,91,434
3,67,91,0
3,62,91,342
3,67,91,0
3,62,91,386
3,67,91,0
3,62,91,340
3,67,91,0
3,62,91,398
3,67,91,0
3,62,91,518
3,67,91,0
3,62,91,13
3,67,91,0
3,62,91,18
3,64,91,14
3,69,91,0
3,64,91,8
3,69,91,0
3,62,91,162
3,67,91,0
3,62,91,386
3,67,91,0
3,62,91,320
3,67,91,0
3,62,91,380
3,67,91,0
3,62,91,340
3,67,91,0
3,62,91,366
3,67,91,0
3,62,91,530
3,67,91,0
3,62,91,13
3,67,91,0
3,62,91,21
3,64,91,190
3,69,91,0
3,64,91,8
3,69,91,0
3,57,91,4972
3,62,91,0
3,57,91,186
3,62,91,0
