track,note,velocity,time
1,69,88,1132
1,69,0,144
1,60,86,44
1,69,89,0
1,65,90,0
1,41,83,0
1,41,0,152
1,60,0,36
1,69,0,0
1,65,0,0
1,62,87,4
1,43,89,0
1,65,95,0
1,70,109,0
1,43,0,144
1,62,0,44
1,65,0,0
1,70,0,0
1,65,98,4
1,69,88,0
1,60,97,0
1,45,96,0
1,45,0,176
1,65,0,12
1,69,0,0
1,60,0,0
1,64,75,12
1,48,80,0
1,60,71,0
1,67,83,0
1,67,0,380
1,64,0,0
1,67,53,4
1,64,50,0
1,72,44,0
1,72,0,184
1,67,0,0
1,64,0,4
1,67,81,0
1,72,81,0
1,64,78,4
1,64,0,516
1,67,0,0
1,48,0,0
1,60,0,0
1,72,0,0
1,47,63,60
1,67,79,0
1,62,78,0
1,59,69,0
1,35,75,0
1,59,0,564
1,62,0,0
1,62,71,4
1,59,62,0
1,55,56,0
1,47,0,316
1,47,63,4
1,59,0,56
1,67,0,0
1,62,0,0
1,55,0,0
1,62,63,8
1,67,70,0
1,59,53,0
1,35,0,160
1,47,0,12
1,59,0,0
1,62,0,4
1,67,0,8
1,58,71,12
1,53,80,4
1,65,75,0
1,62,80,0
1,34,77,0
1,46,67,0
1,58,0,188
1,58,38,4
1,53,0,188
1,53,67,4
1,58,0,124
1,58,58,4
1,58,0,60
1,53,0,0
1,65,0,0
1,62,0,0
1,46,0,0
1,53,60,4
1,58,56,0
1,62,64,0
1,65,59,0
1,46,39,0
1,62,0,188
1,58,0,0
1,58,38,4
1,62,47,0
1,53,0,180
1,53,73,4
1,58,0,124
1,58,67,4
1,58,0,40
1,53,0,0
1,46,0,0
1,34,0,0
1,62,0,0
1,65,0,0
1,69,79,28
1,53,71,0
1,65,76,0
1,41,78,0
1,60,75,0
1,53,0,504
1,53,70,4
1,69,0,60
1,60,0,0
1,65,0,0
1,69,94,4
1,65,93,0
1,60,90,0
1,60,0,172
1,69,0,0
1,53,0,0
1,41,0,0
1,65,0,0
1,67,90,20
1,64,88,0
1,52,61,0
1,60,82,0
1,40,70,4
1,40,0,188
1,52,0,0
1,67,0,0
1,64,0,0
1,60,0,0
1,60,76,4
1,57,78,0
1,65,70,4
1,38,75,0
1,50,71,0
1,69,65,0
1,57,0,164
1,60,0,0
1,65,0,4
1,69,0,4
1,50,0,4
1,38,0,0
1,67,83,16
1,60,71,0
1,64,75,0
1,48,80,0
1,64,0,380
1,67,0,0
1,72,44,4
1,64,50,0
1,67,53,0
1,67,0,184
1,72,0,0
1,64,0,4
1,72,81,0
1,67,81,0
1,64,78,4
1,64,0,516
1,72,0,0
1,48,0,0
1,60,0,0
1,67,0,0
1,59,69,60
1,67,79,0
1,35,75,0
1,62,78,0
1,47,63,0
1,62,0,564
1,59,0,0
1,62,71,4
1,55,56,0
1,59,62,0
1,47,0,316
1,47,63,4
1,55,0,56
1,67,0,0
1,62,0,0
1,59,0,0
1,67,70,8
1,59,53,0
1,62,63,0
1,35,0,160
1,59,0,12
1,47,0,0
1,62,0,4
1,67,0,8
1,58,71,12
1,53,80,4
1,65,75,0
1,62,80,0
1,34,77,0
1,46,67,0
1,58,0,188
1,58,38,4
1,53,0,188
1,53,67,4
1,58,0,124
1,58,58,4
1,58,0,60
1,53,0,0
1,65,0,0
1,62,0,0
1,46,0,0
1,58,56,4
1,53,60,0
1,62,64,0
1,46,39,0
1,65,59,0
1,62,0,188
1,58,0,0
1,62,47,4
1,58,38,0
1,53,0,180
1,53,73,4
1,58,0,124
1,58,67,4
1,58,0,40
1,53,0,0
1,65,0,0
1,34,0,0
1,46,0,0
1,62,0,0
1,53,71,28
1,41,78,0
1,60,75,0
1,65,76,0
1,69,79,0
1,53,0,504
1,53,70,4
1,65,0,60
1,69,0,0
1,60,0,0
1,60,90,4
1,65,93,0
1,69,94,0
1,69,0,172
1,60,0,0
1,53,0,0
1,41,0,0
1,65,0,0
1,60,82,20
1,52,61,0
1,64,88,0
1,67,90,0
1,40,70,4
1,40,0,188
1,64,0,0
1,60,0,0
1,52,0,0
1,67,0,0
1,60,76,4
1,57,78,0
1,65,70,4
1,50,71,0
1,38,75,0
1,69,65,0
1,57,0,164
1,60,0,0
1,65,0,4
1,69,0,4
1,38,0,4
1,50,0,0
1,64,90,16
1,60,97,0
1,57,98,0
1,53,94,0
1,55,88,576
1,62,93,0
1,59,90,0
1,53,0,28
1,57,0,0
1,64,0,0
1,60,0,0
1,59,0,344
1,55,0,0
1,62,0,0
1,59,81,4
1,62,87,0
1,55,80,0
1,53,97,200
1,57,97,0
1,64,90,0
1,60,97,0
1,55,0,20
1,59,0,0
1,62,0,0
1,59,97,552
1,55,93,0
1,62,100,0
1,57,0,32
1,60,0,0
1,53,0,0
1,64,0,0
1,55,0,284
1,55,94,4
1,59,0,60
1,62,0,4
1,59,98,0
1,62,101,4
1,62,0,184
1,59,0,0
1,55,0,0
1,60,97,0
1,64,91,0
1,57,97,0
1,53,105,0
1,55,104,576
1,62,101,0
1,59,102,0
1,53,0,8
1,57,0,0
1,60,0,0
1,64,0,0
1,62,0,572
1,53,105,4
1,60,104,0
1,57,89,0
1,62,107,0
1,55,0,8
1,59,0,0
1,57,0,556
1,60,0,0
1,57,116,4
1,60,107,0
1,65,101,0
1,62,0,8
1,53,0,0
1,60,0,560
1,57,0,0
1,65,0,0
1,55,101,16
1,60,104,0
1,64,97,0
1,64,0,172
1,60,0,4
1,60,68,8
1,64,71,0
1,55,0,100
1,55,52,36
1,64,0,52
1,60,0,0
1,60,68,8
1,64,71,0
1,55,0,48
1,55,65,76
1,60,0,48
1,55,0,12
1,64,0,4
1,60,93,0
1,65,89,0
1,57,101,4
1,60,0,144
1,57,0,4
1,65,0,4
1,60,81,36
1,65,76,0
1,57,74,0
1,65,0,152
1,60,0,4
1,57,0,4
1,65,102,32
1,57,98,0
1,60,104,0
1,60,0,160
1,57,0,0
1,65,0,0
1,55,90,40
1,64,86,0
1,60,96,0
1,64,0,144
1,55,0,4
1,60,0,4
1,64,75,36
1,60,78,0
1,55,68,4
1,55,0,32
1,55,61,92
1,64,0,4
1,60,0,12
1,60,90,44
1,64,91,0
1,55,0,80
1,55,62,48
1,64,0,12
1,60,0,4
1,55,0,12
1,60,89,36
1,65,90,0
1,57,90,0
1,57,0,128
1,65,0,8
1,60,0,0
1,60,89,56
1,65,87,0
1,57,83,0
1,57,0,68
1,57,90,60
1,65,0,12
1,60,0,4
1,57,0,8
1,57,100,40
1,65,100,0
1,60,107,0
1,60,0,140
1,65,0,0
1,57,0,0
1,55,118,60
1,64,107,0
1,60,116,0
1,60,0,104
1,55,0,0
1,64,0,12
1,60,98,1604
1,57,94,0
1,65,89,0
1,65,0,168
1,60,0,0
1,57,0,8
1,60,86,16
1,55,85,4
1,64,91,0
1,55,0,160
1,64,0,4
1,60,0,4
1,62,91,24
1,57,88,4
1,53,91,0
1,57,0,168
1,62,0,8
1,53,0,4
1,36,101,8
1,43,90,0
1,55,90,0
1,60,95,0
1,64,95,0
1,55,0,572
1,55,62,4
1,55,0,552
1,64,0,0
1,36,0,0
1,43,0,0
1,60,0,0
1,47,83,20
1,67,96,0
1,59,91,0
1,62,90,0
1,55,95,0
1,55,0,580
1,55,49,4
1,59,0,188
1,62,0,0
1,67,0,0
1,67,107,4
1,59,91,0
1,62,98,0
1,55,0,116
1,55,76,4
1,59,0,60
1,62,0,0
1,59,90,4
1,62,94,0
1,43,91,64
1,62,0,40
1,59,0,0
1,47,0,0
1,55,0,0
1,67,0,0
1,43,0,24
1,41,102,4
1,41,0,56
1,62,89,8
1,58,77,0
1,53,80,0
1,46,74,0
1,53,0,568
1,62,0,0
1,58,0,0
1,58,80,4
1,53,80,0
1,62,88,0
1,53,0,324
1,53,90,4
1,62,0,60
1,58,0,0
1,58,83,4
1,62,91,0
1,46,0,148
1,58,0,4
1,53,0,8
1,62,0,4
1,60,90,28
1,57,88,0
1,41,83,0
1,53,88,0
1,53,0,528
1,60,0,0
1,57,0,0
1,41,0,0
1,60,100,40
1,65,102,0
1,69,98,0
1,60,0,188
1,69,0,4
1,65,0,0
1,64,97,0
1,60,93,0
1,67,98,0
1,64,0,256
1,67,0,4
1,60,0,0
1,65,110,68
1,65,0,60
1,60,93,4
1,67,102,0
1,64,97,0
1,64,0,564
1,67,0,0
1,60,0,0
1,64,83,4
1,67,90,0
1,60,78,0
1,57,61,328
1,60,0,60
1,60,84,4
1,64,0,20
1,67,0,0
1,57,0,136
1,60,0,4
1,47,82,32
1,62,82,0
1,55,80,0
1,59,77,0
1,59,0,564
1,62,0,0
1,62,90,4
1,59,88,0
1,67,90,0
1,55,0,320
1,55,93,4
1,59,0,60
1,62,0,0
1,59,105,4
1,62,108,0
1,47,0,8
1,67,0,0
1,43,107,52
1,55,0,16
1,59,0,12
1,62,0,4
1,43,0,20
1,41,95,12
1,41,0,56
1,46,71,16
1,62,90,0
1,58,76,0
1,65,79,0
1,58,0,500
1,58,58,4
1,65,0,64
1,62,0,0
1,62,77,4
1,65,73,0
1,65,0,504
1,58,0,0
1,46,0,0
1,62,0,0
1,60,84,68
1,41,73,0
1,65,85,0
1,57,83,0
1,41,0,512
1,41,90,4
1,60,0,16
1,57,0,0
1,65,0,0
1,57,104,48
1,60,102,0
1,65,100,0
1,65,0,168
1,41,0,0
1,57,0,0
1,60,0,0
1,64,84,20
1,55,97,4
1,60,96,0
1,60,0,144
1,64,0,0
1,55,0,8
1,57,95,40
1,62,78,0
1,53,94,0
1,53,0,144
1,57,0,4
1,62,0,12
1,53,94,36
1,60,97,0
1,57,98,0
1,64,90,0
1,59,90,576
1,62,93,0
1,55,88,0
1,64,0,28
1,57,0,0
1,53,0,0
1,60,0,0
1,62,0,160
1,62,108,4
1,59,0,180
1,55,0,0
1,67,107,4
1,55,80,0
1,59,81,0
1,60,97,200
1,53,97,0
1,64,90,0
1,57,97,0
1,59,0,20
1,55,0,0
1,62,0,0
1,67,0,0
1,62,100,552
1,59,97,0
1,55,93,0
1,60,0,32
1,64,0,0
1,57,0,0
1,53,0,0
1,62,0,156
1,62,100,4
1,55,0,124
1,55,94,4
1,62,0,60
1,59,0,0
1,59,98,4
1,62,101,0
1,67,108,0
1,67,0,188
1,55,0,0
1,59,0,0
1,62,0,0
1,60,97,0
1,53,105,0
1,64,91,0
1,57,97,0
1,55,104,576
1,59,102,0
1,62,101,0
1,57,0,8
1,64,0,0
1,60,0,0
1,53,0,0
1,59,0,376
1,55,0,0
1,62,0,4
1,38,93,196
1,57,90,0
1,53,89,0
1,60,95,0
1,60,0,572
1,57,0,0
1,65,91,4
1,57,95,0
1,60,100,0
1,53,0,12
1,38,0,0
1,43,90,52
1,55,90,64
1,57,0,60
1,60,0,0
1,65,0,0
1,60,101,4
1,65,93,0
1,57,97,0
1,43,0,60
1,43,98,4
1,55,0,60
1,55,100,4
1,57,0,52
1,65,0,0
1,60,0,0
1,60,104,4
1,57,101,0
1,65,96,0
1,43,0,60
1,43,72,4
1,55,0,4
1,55,100,4
1,65,0,112
1,57,0,0
1,60,0,0
1,55,0,4
1,60,104,12
1,55,101,0
1,64,97,0
1,43,0,12
1,64,0,160
1,60,0,4
1,64,71,8
1,60,68,0
1,55,0,100
1,55,52,36
1,60,0,52
1,64,0,0
1,60,68,8
1,64,71,0
1,55,0,48
1,55,65,76
1,60,0,48
1,55,0,12
1,64,0,4
1,60,93,0
1,65,89,0
1,57,101,4
1,60,0,144
1,57,0,4
1,65,0,4
1,65,76,36
1,60,81,0
1,57,74,0
1,65,0,152
1,60,0,4
1,57,0,4
1,65,102,32
1,60,104,0
1,57,98,0
1,57,0,160
1,60,0,0
1,65,0,0
1,55,90,40
1,64,86,0
1,60,96,0
1,64,0,144
1,55,0,4
1,60,0,4
1,64,75,36
1,60,78,0
1,55,68,4
1,55,0,32
1,55,61,92
1,64,0,4
1,60,0,12
1,64,91,44
1,60,90,0
1,55,0,80
1,55,62,48
1,64,0,12
1,60,0,4
1,55,0,12
1,60,89,36
1,65,90,0
1,57,90,0
1,57,0,128
1,65,0,8
1,60,0,0
1,65,87,56
1,57,83,0
1,60,89,0
1,57,0,68
1,57,90,60
1,65,0,12
1,60,0,4
1,57,0,8
1,60,107,40
1,65,100,0
1,57,100,0
1,57,0,140
1,65,0,0
1,60,0,0
1,64,107,60
1,55,118,0
1,60,116,0
1,60,0,104
1,55,0,0
1,64,0,12
1,57,96,1608
1,60,100,0
1,65,93,0
1,65,0,152
1,57,0,8
1,60,0,4
1,60,100,32
1,55,90,0
1,64,85,0
1,64,0,168
1,55,0,4
1,60,0,0
1,57,105,16
1,62,90,0
1,53,100,0
1,53,0,180
1,57,0,0
1,62,0,16
1,60,95,0
1,36,98,0
1,64,93,0
1,55,90,0
1,48,51,512
1,55,0,60
1,64,0,0
1,60,0,0
1,55,72,4
1,64,76,0
1,60,80,0
1,55,0,244
1,55,56,4
1,48,0,132
1,48,60,4
1,48,0,188
1,55,0,0
1,36,0,0
1,64,0,0
1,60,0,0
1,43,76,4
1,58,80,0
1,53,83,0
1,62,90,0
1,31,68,384
1,62,0,176
1,53,0,0
1,58,0,0
1,58,101,16
1,67,110,0
1,62,107,0
1,43,0,188
1,43,78,4
1,62,0,116
1,58,0,0
1,62,102,4
1,58,109,0
1,53,98,0
1,53,0,248
1,67,0,0
1,31,0,0
1,43,0,0
1,58,0,0
1,62,0,0
1,48,76,8
1,60,96,0
1,55,90,4
1,64,90,0
1,36,90,4
1,48,0,508
1,48,76,4
1,64,0,60
1,60,0,0
1,55,0,0
1,60,100,4
1,64,96,0
1,55,102,0
1,55,0,380
1,55,69,4
1,31,73,128
1,55,0,52
1,60,0,0
1,64,0,0
1,48,0,0
1,36,0,0
1,58,87,12
1,55,83,0
1,62,91,0
1,43,66,504
1,62,0,68
1,55,0,0
1,58,0,0
1,55,90,4
1,58,99,0
1,62,100,0
1,55,0,188
1,55,76,4
1,43,0,172
1,43,66,12
1,58,0,108
1,55,0,0
1,31,0,4
1,62,0,4
1,43,0,12
1,60,78,72
1,64,85,0
1,57,84,0
1,60,0,348
1,60,69,36
1,62,76,120
1,64,0,8
1,60,0,16
1,57,0,4
1,62,0,12
1,65,79,24
1,62,79,0
1,60,84,4
1,57,79,0
1,65,0,316
1,65,90,64
1,62,0,52
1,62,75,76
1,60,0,4
1,57,0,8
1,62,0,8
1,65,0,8
1,58,73,40
1,63,92,4
1,67,101,0
1,67,0,480
1,60,71,24
1,63,0,4
1,58,0,24
1,60,0,8
1,63,94,28
1,67,104,0
1,62,96,0
1,62,0,324
1,67,0,0
1,63,0,0
1,60,62,4
1,60,0,8
1,63,88,56
1,67,93,0
1,62,90,0
1,60,72,120
1,62,0,16
1,63,0,4
1,60,0,4
1,67,0,12
1,60,91,36
1,57,93,0
1,64,91,0
1,64,0,380
1,60,0,0
1,64,80,4
1,60,77,0
1,57,0,124
1,57,73,4
1,57,0,60
1,60,0,0
1,64,0,0
1,65,91,4
1,57,85,0
1,60,88,0
1,57,0,188
1,57,74,4
1,60,0,116
1,65,0,0
1,60,85,4
1,65,90,0
1,57,0,188
1,57,72,4
1,57,0,32
1,65,0,0
1,60,0,0
1,65,93,36
1,60,90,0
1,57,89,0
1,57,0,188
1,57,78,4
1,60,0,120
1,65,0,0
1,65,108,4
1,60,102,0
1,57,0,188
1,57,51,4
1,57,0,60
1,60,0,0
1,65,0,0
1,59,79,4
1,65,78,4
1,62,78,0
1,55,81,4
1,55,0,188
1,62,0,0
1,59,0,0
1,62,78,4
1,55,78,0
1,59,82,0
1,59,0,180
1,62,0,0
1,59,114,4
1,62,112,0
1,62,0,136
1,65,0,0
1,55,0,0
1,59,0,0
1,55,101,64
1,60,104,0
1,64,97,0
1,64,0,172
1,60,0,4
1,60,68,8
1,64,71,0
1,55,0,100
1,55,52,36
1,64,0,52
1,60,0,0
1,64,71,8
1,60,68,0
1,55,0,48
1,55,65,76
1,60,0,48
