track,note,velocity,time
1,33,109,1136
1,45,111,0
1,55,113,0
1,60,115,0
1,64,120,0
1,45,100,24
1,33,106,16
1,38,115,144
1,50,120,0
1,57,113,0
1,59,110,0
1,62,114,0
1,66,120,0
1,52,109,88
1,55,103,8
1,57,112,16
1,57,109,136
1,57,108,136
1,55,103,24
1,52,109,96
1,33,105,24
1,45,99,0
1,55,110,0
1,60,106,0
1,64,114,0
1,45,112,120
1,33,110,176
1,45,96,96
1,55,111,0
1,60,117,0
1,64,118,0
1,33,97,136
1,38,114,152
1,50,117,0
1,57,110,0
1,59,113,0
1,62,114,0
1,66,123,0
1,52,112,88
1,55,106,0
1,57,109,16
1,57,107,136
1,57,113,128
1,55,108,0
1,52,113,0
1,33,115,144
1,45,113,0
1,55,110,0
1,60,112,0
1,64,114,0
1,45,98,152
1,33,110,112
1,45,92,96
1,55,111,0
1,60,110,0
1,64,117,0
1,33,106,120
1,38,112,144
1,50,114,0
1,57,111,0
1,59,112,0
1,62,112,0
1,66,120,0
1,52,106,40
1,55,102,96
1,57,110,0
1,57,91,136
1,59,44,0
1,57,112,16
1,55,107,24
1,52,110,96
1,33,101,8
1,45,109,0
1,55,107,0
1,60,109,0
1,64,115,0
1,45,112,32
1,33,112,384
1,45,91,88
1,55,108,0
1,60,109,0
1,64,123,0
1,33,102,120
1,38,113,152
1,50,114,0
1,57,111,0
1,59,104,0
1,62,113,0
1,66,124,0
1,52,112,80
1,55,104,96
1,57,111,8
1,57,103,136
1,57,110,128
1,55,105,24
1,52,109,88
1,33,104,24
1,45,110,0
1,55,108,0
1,60,109,0
1,64,113,0
1,45,101,120
1,33,102,344
1,45,88,56
1,55,114,0
1,60,110,0
1,64,114,0
1,33,90,104
1,31,112,128
1,53,118,0
1,58,116,0
1,62,124,0
1,43,104,576
1,31,93,160
1,31,103,112
1,43,91,80
1,53,105,0
1,58,111,0
1,62,119,0
1,31,108,128
1,43,103,32
1,41,110,128
1,48,121,0
1,57,114,0
1,64,119,0
1,41,96,160
1,48,110,0
1,57,103,0
1,64,114,0
1,41,106,136
1,48,119,0
1,57,109,0
1,64,121,0
1,41,84,152
1,48,103,0
1,57,84,0
1,64,101,0
1,41,103,136
1,48,114,0
1,57,107,0
1,64,117,0
1,41,104,88
1,48,112,0
1,57,108,0
1,64,120,0
1,41,114,328
1,48,124,0
1,57,111,0
1,64,123,0
1,57,91,56
1,62,117,0
1,46,111,192
1,53,67,192
1,57,89,48
1,62,84,0
1,65,101,0
1,57,90,144
1,62,113,48
1,53,103,48
1,41,93,32
1,57,102,0
1,60,103,0
1,64,111,0
1,48,90,176
1,57,63,16
1,57,103,72
1,60,120,0
1,41,118,184
1,48,113,16
1,55,102,144
1,60,121,0
1,46,111,40
1,57,108,0
1,62,120,0
1,53,95,168
1,57,81,184
1,57,110,104
1,62,119,0
1,53,114,184
1,57,123,128
1,62,124,0
1,46,101,112
1,55,108,56
1,57,113,0
1,60,118,0
1,55,88,56
1,55,107,64
1,57,107,0
1,60,117,0
1,53,67,0
1,57,110,64
1,60,115,0
1,53,85,192
1,46,115,0
1,53,73,144
1,57,93,192
1,62,123,0
1,57,102,56
1,53,107,208
1,57,117,120
1,62,115,0
1,55,76,24
1,60,96,0
1,41,118,64
1,48,101,32
1,57,108,56
1,64,121,0
1,60,111,192
1,48,112,160
1,57,111,0
1,60,117,0
1,41,89,16
1,53,81,0
1,50,120,16
1,57,74,64
1,57,103,72
1,60,121,0
1,50,119,136
1,53,89,192
1,57,91,176
1,53,107,104
1,57,102,0
1,60,126,0
1,50,102,8
1,40,125,64
1,52,89,128
1,52,104,128
1,57,101,0
1,59,112,0
1,52,121,16
1,57,111,0
1,59,113,0
1,64,126,0
1,52,107,176
1,52,118,112
1,57,120,0
1,59,125,0
1,40,124,104
1,33,109,56
1,45,111,0
1,55,113,0
1,60,115,0
1,64,120,0
1,45,100,24
1,33,106,16
1,38,115,144
1,50,120,0
1,57,113,0
1,59,110,0
1,62,114,0
1,66,120,0
1,52,109,88
1,55,103,8
1,57,112,16
1,57,109,136
1,57,108,136
1,55,103,24
1,52,109,96
1,33,105,24
1,45,99,0
1,55,110,0
1,60,106,0
1,64,114,0
1,45,112,120
1,33,110,176
1,45,96,96
1,55,111,0
1,60,117,0
1,64,118,0
1,33,97,136
1,38,114,152
1,50,117,0
1,57,110,0
1,59,113,0
1,62,114,0
1,66,123,0
1,52,112,88
1,55,106,0
1,57,109,16
1,57,107,136
1,57,113,128
1,55,108,0
1,52,113,0
1,33,115,144
1,45,113,0
1,55,110,0
1,60,112,0
1,64,114,0
1,45,98,152
1,33,110,112
1,45,92,96
1,55,111,0
1,60,110,0
1,64,117,0
1,33,106,120
1,38,112,144
1,50,114,0
1,57,111,0
1,59,112,0
1,62,112,0
1,66,120,0
1,52,106,40
1,55,102,96
1,57,110,0
1,57,91,136
1,59,44,0
1,57,112,16
1,55,107,24
1,52,110,96
1,33,101,8
1,45,109,0
1,55,107,0
1,60,109,0
1,64,115,0
1,45,112,32
1,33,112,384
1,45,91,88
1,55,108,0
1,60,109,0
1,64,123,0
1,33,102,120
1,38,113,152
1,50,114,0
1,57,111,0
1,59,104,0
1,62,113,0
1,66,124,0
1,52,112,80
1,55,104,96
1,57,111,8
1,57,103,136
1,57,110,128
1,55,105,24
1,52,109,88
1,33,104,24
1,45,110,0
1,55,108,0
1,60,109,0
1,64,113,0
1,45,101,120
1,33,102,344
1,45,88,56
1,55,114,0
1,60,110,0
1,64,114,0
1,33,90,104
1,31,112,128
1,53,118,0
1,58,116,0
1,62,124,0
1,43,104,576
1,31,93,160
1,31,103,112
1,43,91,80
1,53,105,0
1,58,111,0
1,62,119,0
1,31,108,128
1,43,103,32
1,41,110,128
1,48,121,0
1,57,114,0
1,64,119,0
1,41,96,160
1,48,110,0
1,57,103,0
1,64,114,0
1,41,106,136
1,48,119,0
1,57,109,0
1,64,121,0
1,41,84,152
1,48,103,0
1,57,84,0
1,64,101,0
1,41,103,136
1,48,114,0
1,57,107,0
1,64,117,0
1,41,104,88
1,48,112,0
1,57,108,0
1,64,120,0
1,41,114,328
1,48,124,0
1,57,111,0
1,64,123,0
1,57,91,56
1,62,117,0
1,46,111,192
1,53,67,192
1,57,89,48
1,62,84,0
1,65,101,0
1,57,90,144
1,62,113,48
1,53,103,48
1,41,93,32
1,57,102,0
1,60,103,0
1,64,111,0
1,48,90,176
1,57,63,16
1,57,103,72
1,60,120,0
1,41,118,184
1,48,113,16
1,55,102,144
1,60,121,0
1,46,111,40
1,57,108,0
1,62,120,0
1,53,95,168
1,57,81,184
1,57,110,104
1,62,119,0
1,53,114,184
1,57,123,128
1,62,124,0
1,46,101,112
1,55,108,56
1,57,113,0
1,60,118,0
1,55,88,56
1,55,107,64
1,57,107,0
1,60,117,0
1,53,67,0
1,57,110,64
1,60,115,0
1,53,85,192
1,46,115,0
1,53,73,144
1,57,93,192
1,62,123,0
1,57,102,56
1,53,107,208
1,57,117,120
1,62,115,0
1,55,76,24
1,60,96,0
1,41,118,64
1,48,101,32
1,57,108,56
1,64,121,0
1,60,111,192
1,48,112,160
1,57,111,0
1,60,117,0
1,41,89,16
1,53,81,0
1,50,120,16
1,57,74,64
1,57,103,72
1,60,121,0
1,50,119,136
1,53,89,192
1,57,91,176
1,53,107,104
1,57,102,0
1,60,126,0
1,50,102,8
1,53,104,64
1,57,98,0
1,64,105,0
1,53,109,88
1,57,101,0
1,60,107,0
1,64,107,0
1,43,109,192
1,31,103,192
1,53,115,16
1,57,105,0
1,60,108,0
1,64,112,0
1,43,111,192
1,31,98,0
1,53,93,0
1,57,74,0
1,60,93,0
1,64,89,0
1,36,86,0
1,55,78,0
1,64,89,0
1,55,71,120
1,59,87,0
1,64,88,0
1,48,91,88
1,55,64,112
1,36,49,112
1,55,84,0
1,59,78,0
1,64,84,0
1,57,110,8
1,64,114,0
1,41,83,192
1,53,64,40
1,53,63,112
1,57,71,0
1,53,102,128
1,57,94,0
1,60,111,0
1,53,84,136
1,53,103,72
1,57,88,0
1,60,115,0
1,41,103,0
1,46,113,40
1,53,98,0
1,62,104,0
1,60,20,96
1,53,107,128
1,58,106,0
1,62,119,0
1,46,103,168
1,53,81,96
1,58,76,96
1,53,111,0
1,58,96,0
1,62,118,0
1,46,112,0
1,45,109,64
1,52,68,0
1,57,76,0
1,60,89,0
1,52,76,8
1,57,90,32
1,52,95,128
1,57,102,0
1,60,111,0
1,45,99,96
1,52,78,32
1,52,100,144
1,57,84,0
1,60,105,0
1,52,103,120
1,57,92,0
1,60,114,0
1,43,106,64
1,53,80,0
1,58,90,0
1,53,109,160
1,58,103,0
1,62,114,0
1,43,105,32
1,53,84,0
1,48,110,104
1,55,76,0
1,60,73,96
1,55,102,104
1,60,119,0
1,48,88,104
1,55,88,0
1,57,111,40
1,60,120,0
1,53,84,184
1,41,105,16
1,57,106,128
1,60,115,0
1,41,90,24
1,57,109,96
1,64,121,0
1,57,73,64
1,53,76,120
1,57,84,0
1,50,98,40
1,53,98,0
1,57,98,0
1,60,112,0
1,53,84,24
1,57,109,0
1,50,80,0
1,50,108,120
1,53,80,0
1,57,74,96
1,53,108,144
1,57,95,0
1,60,119,0
1,50,85,40
1,40,110,24
1,57,107,0
1,59,115,0
1,52,104,192
1,57,109,0
1,59,114,0
1,40,65,48
1,52,91,0
1,57,33,0
1,40,118,80
1,52,88,0
1,52,119,96
1,59,113,0
1,64,123,0
1,40,85,72
1,52,76,0
1,40,89,104
1,52,73,0
1,59,81,0
1,45,108,96
1,52,101,0
1,57,100,0
1,60,111,0
1,52,84,152
1,55,103,0
1,60,119,0
1,45,81,136
1,45,114,152
1,52,104,24
1,55,106,0
1,60,114,0
1,45,100,104
1,54,111,40
1,57,107,0
1,62,109,0
1,50,56,192
1,54,82,136
1,54,109,152
1,57,101,0
1,62,108,0
1,52,82,8
1,54,102,120
1,54,113,96
1,57,100,0
1,62,109,0
1,45,104,16
1,55,79,0
1,60,104,0
1,57,110,184
1,60,119,0
1,45,81,136
1,55,70,0
1,45,111,152
1,55,92,64
1,57,104,0
1,60,112,0
1,45,110,80
1,54,124,56
1,57,115,0
1,50,69,24
1,57,100,256
1,62,117,0
1,50,75,24
1,57,62,0
1,50,103,8
1,62,42,0
1,57,74,152
1,62,59,0
1,69,93,0
1,45,112,56
1,60,115,0
1,64,75,0
1,55,106,168
1,60,106,0
1,64,112,0
1,45,94,0
1,45,109,136
1,55,99,64
1,60,113,0
1,55,82,80
1,54,116,120
1,57,88,0
1,50,89,96
1,54,93,0
1,57,81,104
1,54,98,144
1,57,97,0
1,62,118,0
1,50,71,32
1,57,73,192
1,57,97,96
1,64,121,0
1,50,68,80
1,62,79,0
1,45,114,136
1,55,95,0
1,60,101,0
1,57,112,136
1,60,115,0
1,45,86,120
1,45,114,136
1,55,102,72
1,60,118,0
1,45,72,0
1,57,77,0
1,54,106,32
1,57,103,0
1,50,95,96
1,54,68,24
1,57,72,128
1,54,98,144
1,57,99,0
1,62,108,0
1,50,66,0
1,54,91,144
1,54,96,120
1,57,80,0
1,62,94,0
1,50,57,80
1,54,119,0
1,57,101,0
1,62,111,0
1,45,97,56
1,52,109,0
1,57,108,0
1,60,114,0
1,52,55,80
1,55,85,120
1,52,112,136
1,57,110,0
1,60,117,0
1,45,77,184
1,55,111,88
1,60,113,0
1,45,84,96
1,57,102,160
1,60,111,0
1,50,89,96
1,54,80,64
1,54,70,120
1,57,65,0
1,54,110,136
1,57,96,0
1,62,108,0
1,50,50,144
1,54,89,16
1,50,61,112
1,57,92,0
1,62,99,0
1,50,102,152
1,45,107,48
1,55,111,0
1,60,112,0
1,64,114,0
1,57,71,8
1,55,96,8
1,60,97,0
1,55,104,96
1,60,124,0
1,45,91,160
1,57,100,16
1,55,113,136
1,60,111,0
1,64,115,0
1,45,68,64
1,57,98,0
1,50,103,48
1,54,115,0
1,57,89,0
1,62,105,0
1,57,48,64
1,54,82,128
1,57,68,0
1,54,107,144
1,57,114,0
1,62,115,0
1,50,92,40
1,54,83,16
1,54,105,136
1,57,100,0
1,62,108,0
1,52,114,8
1,45,119,0
1,55,91,0
1,60,93,0
1,57,54,16
1,55,114,128
1,60,109,0
1,64,112,0
1,52,108,152
1,57,73,96
1,45,109,24
1,55,71,0
1,60,87,0
1,55,110,96
1,60,109,0
1,45,112,48
1,57,77,0
1,50,115,112
1,54,111,0
1,57,91,0
1,60,105,0
1,62,73,8
1,54,78,96
1,57,58,0
1,54,108,144
1,57,79,0
1,60,90,0
1,50,94,96
1,57,106,104
1,62,120,0
1,50,96,112
1,57,101,120
1,60,109,0
1,64,118,0
1,45,115,88
1,55,73,32
1,55,84,136
1,60,101,0
1,55,105,152
1,60,125,0
1,45,94,144
1,57,80,0
1,45,95,112
1,60,86,0
1,57,89,144
1,62,108,0
1,50,111,96
1,57,60,152
1,62,73,96
1,57,106,160
1,64,123,0
1,60,78,96
1,50,106,104
1,55,78,0
1,57,86,0
1,62,119,0
1,57,73,72
1,50,104,8
1,60,76,0
1,33,109,80
1,45,111,0
1,55,113,0
1,60,115,0
1,64,120,0
1,45,100,24
1,33,106,16
1,38,115,144
1,50,120,0
1,57,113,0
1,59,110,0
1,62,114,0
1,66,120,0
1,52,109,88
1,55,103,8
1,57,112,16
1,57,109,136
1,57,108,136
1,55,103,24
1,52,109,96
1,33,105,24
1,45,99,0
1,55,110,0
1,60,106,0
1,64,114,0
1,45,112,120
1,33,110,176
1,45,96,96
1,55,111,0
1,60,117,0
1,64,118,0
1,33,97,136
1,38,114,152
1,50,117,0
1,57,110,0
1,59,113,0
1,62,114,0
1,66,123,0
1,52,112,88
1,55,106,0
1,57,109,16
1,57,107,136
1,57,113,128
1,55,108,0
1,52,113,0
1,33,115,144
1,45,113,0
1,55,110,0
1,60,112,0
1,64,114,0
1,45,98,152
1,33,110,112
1,45,92,96
1,55,111,0
1,60,110,0
1,64,117,0
1,33,106,120
1,38,112,144
1,50,114,0
1,57,111,0
1,59,112,0
1,62,112,0
1,66,120,0
1,52,106,40
1,55,102,96
1,57,110,0
1,57,91,136
1,59,44,0
1,57,112,16
1,55,107,24
1,52,110,96
1,33,101,8
1,45,109,0
1,55,107,0
1,60,109,0
1,64,115,0
1,45,112,32
1,33,112,384
1,45,91,88
1,55,108,0
1,60,109,0
1,64,123,0
1,33,102,120
1,38,113,152
1,50,114,0
1,57,111,0
1,59,104,0
1,62,113,0
1,66,124,0
1,52,112,80
1,55,104,96
1,57,111,8
1,57,103,136
1,57,110,128
1,55,105,24
1,52,109,88
1,33,104,24
1,45,110,0
1,55,108,0
1,60,109,0
1,64,113,0
1,45,101,120
1,33,102,344
1,45,88,56
1,55,114,0
1,60,110,0
1,64,114,0
1,33,90,104
1,31,112,128
1,53,118,0
1,58,116,0
1,62,124,0
1,43,104,576
1,31,93,160
1,31,103,112
1,43,91,80
1,53,105,0
1,58,111,0
1,62,119,0
1,31,108,128
1,43,103,32
1,41,110,128
1,48,121,0
1,57,114,0
1,64,119,0
1,41,96,160
1,48,110,0
1,57,103,0
1,64,114,0
1,41,106,136
1,48,119,0
1,57,109,0
1,64,121,0
1,41,84,152
1,48,103,0
1,57,84,0
1,64,101,0
1,41,103,136
1,48,114,0
1,57,107,0
1,64,117,0
1,41,104,88
1,48,112,0
1,57,108,0
1,64,120,0
1,41,114,328
1,48,124,0
1,57,111,0
1,64,123,0
1,57,91,56
1,62,117,0
1,46,111,192
1,53,67,192
1,57,89,48
1,62,84,0
1,65,101,0
1,57,90,144
1,62,113,48
1,53,103,48
1,41,93,32
1,57,102,0
1,60,103,0
1,64,111,0
1,48,90,176
1,57,63,16
1,57,103,72
1,60,120,0
1,41,118,184
1,48,113,16
1,55,102,144
1,60,121,0
1,46,111,40
1,57,108,0
1,62,120,0
1,53,95,168
1,57,81,184
1,57,110,104
1,62,119,0
1,53,114,184
1,57,123,128
1,62,124,0
