track,note,velocity,time
1,57,103,359
1,64,108,122
1,57,0,3
1,66,106,158
1,64,0,4
1,62,106,40
1,66,0,1
1,62,0,266
1,57,110,1
1,59,100,26
1,57,0,19
1,62,100,12
1,59,0,9
1,59,103,30
1,62,0,6
1,62,102,15
1,59,0,5
1,59,102,57
1,62,0,10
1,66,100,49
1,63,55,2
1,59,0,1
1,63,0,4
1,64,93,50
1,66,0,5
1,62,103,56
1,64,0,7
1,66,100,51
1,62,0,4
1,66,0,124
1,62,115,1
1,64,106,63
1,62,0,5
1,62,110,54
1,64,0,2
1,62,0,288
1,59,103,1
1,62,103,64
1,59,0,6
1,62,0,42
1,62,103,13
1,64,105,62
1,62,0,8
1,67,97,50
1,64,0,5
1,66,110,54
1,67,0,7
1,62,105,54
1,66,0,3
1,64,100,58
1,62,0,6
1,64,0,48
1,66,113,6
1,66,0,41
1,66,115,19
1,66,0,43
1,67,103,15
1,67,0,38
1,66,118,22
1,66,0,289
1,66,115,13
1,64,103,31
1,66,0,4
1,62,115,24
1,64,0,3
1,64,105,57
1,62,0,6
1,66,101,46
1,64,0,6
1,66,0,54
1,62,110,0
1,59,102,64
1,62,0,6
1,59,0,43
1,59,101,11
1,62,108,63
1,59,0,7
1,64,106,58
1,62,0,4
1,66,108,160
1,64,0,2
1,66,0,61
1,62,113,1
1,62,0,245
1,57,115,1
1,59,98,60
1,57,0,23
1,62,102,5
1,59,0,8
1,59,100,79
1,62,0,5
1,66,97,62
1,59,0,5
1,64,100,51
1,66,0,4
1,62,113,31
1,64,0,4
1,59,101,84
1,62,0,6
1,66,117,114
1,59,0,1
1,62,106,95
1,66,0,2
1,64,105,22
1,62,0,5
1,64,0,51
1,62,110,1
1,62,0,242
1,59,108,3
1,62,103,62
1,59,0,8
1,62,0,40
1,62,102,12
1,64,101,59
1,62,0,12
1,67,92,51
1,64,0,5
1,66,106,50
1,67,0,8
1,62,108,52
1,66,0,2
1,64,97,55
1,62,0,9
1,64,0,42
1,66,117,10
1,66,0,109
1,67,110,12
1,67,0,47
1,66,118,13
1,66,0,288
1,66,113,14
1,64,88,29
1,66,0,7
1,62,108,26
1,64,0,5
1,64,101,53
1,62,0,8
1,66,94,46
1,64,0,7
1,66,0,53
1,62,110,1
1,62,0,69
1,59,106,1
1,59,0,46
1,59,96,13
1,62,102,60
1,59,0,8
1,64,101,49
1,62,0,7
1,66,113,170
1,64,0,5
1,66,0,55
1,62,110,2
1,62,0,378
1,59,97,342
1,62,100,58
1,59,0,8
1,62,0,38
1,62,101,14
1,64,97,35
1,62,0,5
1,62,103,22
1,64,0,4
1,66,103,53
1,62,0,5
1,64,93,29
1,66,0,16
1,62,105,11
1,64,0,4
1,64,98,31
1,62,0,9
1,66,92,78
1,64,0,6
1,62,93,27
1,66,0,5
1,59,103,82
1,62,0,7
1,59,0,405
1,59,102,11
1,62,105,60
1,59,0,33
1,62,0,9
1,62,98,14
1,64,85,50
1,62,0,17
1,67,93,28
1,64,0,3
1,66,101,72
1,67,0,9
1,62,92,33
1,66,0,10
1,64,87,79
1,62,0,9
1,66,102,52
1,64,0,6
1,66,0,392
1,66,110,17
1,66,0,25
1,66,103,12
1,66,0,81
1,67,101,2
1,69,102,35
1,67,0,7
1,71,102,69
1,69,0,5
1,69,93,28
1,71,0,11
1,69,0,59
1,67,98,0
1,66,89,47
1,67,0,8
1,69,92,60
1,66,0,5
1,67,89,45
1,69,0,7
1,66,95,57
1,67,0,11
1,64,100,16
1,66,0,4
1,66,113,368
1,64,0,10
1,67,98,50
1,66,0,7
1,66,101,49
1,67,0,10
1,64,98,18
1,66,0,4
1,62,103,73
1,64,0,9
1,59,103,136
1,62,0,2
1,62,96,88
1,59,0,56
1,66,103,1
1,62,0,5
1,64,92,69
1,66,0,1
1,64,0,36
1,64,101,9
1,62,108,205
1,64,0,1
1,62,0,65
1,59,100,0
1,62,100,55
1,59,0,23
1,64,96,37
1,62,0,4
1,66,101,155
1,64,0,6
1,62,106,31
1,66,0,8
1,62,0,266
1,57,115,1
1,59,102,65
1,57,0,35
1,62,96,24
1,59,0,6
1,59,102,53
1,62,0,6
1,66,101,57
1,59,0,6
1,64,98,49
1,66,0,8
1,62,102,23
1,64,0,9
1,59,98,84
1,62,0,3
1,66,101,123
1,59,0,11
1,64,89,88
1,66,0,40
1,64,0,40
1,62,110,2
1,62,0,240
1,59,113,1
1,62,101,60
1,59,0,10
1,62,0,38
1,62,101,10
1,64,92,58
1,62,0,9
1,67,83,51
1,64,0,10
1,66,88,51
1,67,0,48
1,62,100,12
1,66,0,5
1,64,92,52
1,62,0,12
1,66,103,49
1,64,0,7
1,67,101,114
1,66,0,9
1,67,0,44
1,66,108,5
1,66,0,291
1,66,115,10
1,64,76,34
1,66,0,26
1,62,101,1
1,64,0,3
1,64,98,57
1,62,0,10
1,66,86,48
1,64,0,8
1,62,96,54
1,66,0,3
1,59,90,68
1,62,0,14
1,59,0,63
1,59,89,10
1,62,87,27
1,59,0,4
1,64,103,50
1,62,0,6
1,66,96,161
1,64,0,8
1,62,89,22
1,66,0,8
1,66,108,332
1,62,0,6
1,64,87,28
1,66,0,7
1,66,103,14
1,64,0,4
1,69,93,51
1,66,0,6
1,71,115,133
1,69,0,3
1,71,0,56
1,69,105,0
1,71,93,44
1,69,0,5
1,66,88,70
1,71,0,9
1,64,103,140
1,66,0,1
1,66,97,27
1,64,0,4
1,62,96,33
1,66,0,7
1,59,95,64
1,62,0,11
1,59,0,551
1,59,105,117
1,62,100,34
1,59,0,7
1,62,0,11
1,62,102,9
1,59,96,28
1,62,0,1
1,62,105,19
1,59,0,6
1,64,98,58
1,62,0,7
1,64,0,57
1,66,103,0
1,64,86,38
1,62,96,30
1,66,0,3
1,64,0,4
1,64,86,47
1,64,89,1
1,62,0,8
1,64,0,14
1,66,89,38
1,64,0,9
1,62,94,48
1,66,0,14
1,59,98,43
1,62,0,7
1,59,0,399
1,59,106,14
1,62,98,57
1,59,0,13
1,62,0,16
1,62,96,8
1,64,92,80
1,62,0,6
1,67,83,51
1,64,0,7
1,66,101,53
1,67,0,10
1,62,89,26
1,66,0,6
1,64,103,88
1,62,0,8
1,66,103,53
1,64,0,5
1,66,0,393
1,66,113,21
1,71,103,54
1,66,0,8
1,69,98,73
1,71,0,2
1,68,97,106
1,69,0,4
1,69,95,26
1,68,0,7
1,67,95,69
1,69,0,4
1,66,102,42
1,67,0,7
1,66,0,20
1,69,85,42
1,67,96,55
1,69,0,12
1,66,87,55
1,67,0,15
1,64,85,7
1,66,0,7
1,66,103,342
1,64,0,53
1,67,98,6
1,66,0,5
1,66,103,57
1,67,0,13
1,64,106,49
1,66,0,2
1,62,103,55
1,64,0,6
1,62,0,178
1,62,96,8
1,66,92,46
1,62,0,12
1,69,93,81
1,66,0,8
1,71,93,42
1,69,0,11
1,71,0,242
1,71,2,33
1,71,0,413
1,59,103,1
1,59,0,48
1,59,101,15
1,62,97,64
1,59,0,24
1,62,0,29
1,64,93,2
1,66,102,161
1,64,0,6
1,62,86,35
1,66,0,8
1,57,103,271
1,62,0,11
1,59,73,21
1,62,95,22
1,57,0,2
1,59,0,3
1,59,70,29
1,62,0,8
1,62,88,17
1,59,0,7
1,59,73,55
1,62,0,5
1,66,95,51
1,59,0,8
1,64,83,54
1,62,86,60
1,66,0,3
1,64,0,2
1,66,100,58
1,62,0,4
1,62,89,119
1,66,0,46
1,64,96,10
1,62,0,8
1,62,97,49
1,64,0,9
1,59,106,301
1,62,0,1
1,62,96,60
1,59,0,10
1,62,0,33
1,62,97,13
1,64,87,60
1,62,0,26
1,67,96,29
1,64,0,4
1,66,83,55
1,67,0,16
1,62,90,45
1,66,0,5
1,64,86,54
1,62,0,14
1,64,0,40
1,66,101,5
1,66,0,47
1,66,106,15
1,66,0,53
1,67,100,11
1,67,0,46
1,66,94,13
1,66,0,284
1,66,115,16
1,64,72,29
1,66,0,12
1,62,106,18
1,64,0,3
1,64,96,55
1,62,0,6
1,66,79,51
1,64,0,8
1,66,0,51
1,62,103,1
1,62,0,72
1,59,101,1
1,59,0,39
1,59,96,17
1,62,94,58
1,62,0,62
1,64,98,2
1,59,0,7
1,66,108,158
1,64,0,24
1,66,0,39
1,62,113,1
1,62,0,132
1,57,115,0
1,59,98,32
1,57,0,23
1,62,102,5
1,59,0,8
1,59,100,16
1,62,0,5
1,66,97,62
1,59,0,5
1,64,100,51
1,66,0,4
1,62,113,31
1,64,0,4
1,59,101,84
1,62,0,6
1,66,117,37
1,59,0,1
1,62,106,10
1,66,0,2
1,64,105,22
1,62,0,5
1,64,0,36
1,62,110,1
1,62,0,71
1,59,108,3
1,62,103,8
1,59,0,8
1,62,0,6
1,62,102,12
1,64,101,59
1,62,0,12
1,67,92,13
1,64,0,5
1,66,106,45
1,67,0,8
1,62,108,25
1,66,0,2
1,64,97,10
1,62,0,9
1,64,0,42
1,66,117,5
1,66,0,27
1,67,110,12
1,67,0,47
1,66,118,13
1,66,0,144
1,66,113,6
1,64,88,6
1,66,0,7
1,62,108,11
1,64,0,3
1,64,101,53
1,62,0,4
1,66,94,44
1,64,0,7
1,66,0,15
1,62,110,1
1,62,0,20
1,59,106,1
1,59,0,46
1,59,96,0
1,62,102,15
1,59,0,8
1,64,101,27
1,62,0,3
1,66,113,0
1,64,0,5
1,66,0,8
1,62,110,0
1,62,0,39
1,59,97,76
1,59,0,66
2,38,82,480
2,38,0,141
2,38,85,37
2,38,0,34
2,38,72,29
2,38,0,146
2,38,74,37
2,38,0,32
2,38,72,25
2,38,0,146
2,38,74,37
2,38,0,32
2,38,72,25
2,38,0,146
2,38,74,37
2,38,0,32
2,43,82,24
2,43,0,141
2,43,85,37
2,43,0,34
2,43,72,29
2,43,0,146
2,43,74,37
2,43,0,32
2,40,72,25
2,40,0,146
2,40,74,37
2,40,0,32
2,33,72,25
2,33,0,146
2,33,74,37
2,33,0,32
2,38,82,24
2,38,0,120
2,38,82,0
2,38,0,120
2,38,82,0
2,38,0,141
2,38,85,37
2,38,0,34
2,43,82,28
2,43,0,120
2,42,82,0
2,42,0,120
2,40,82,0
2,40,0,120
2,33,82,0
2,33,0,120
2,38,72,1
2,38,0,146
2,38,74,37
2,38,0,32
2,38,82,24
2,38,0,141
2,38,85,37
2,38,0,34
2,38,72,29
2,38,0,146
2,38,74,37
2,38,0,32
2,38,82,24
2,38,0,141
2,38,85,37
2,38,0,34
2,43,72,29
2,43,0,146
2,43,74,37
2,43,0,32
2,43,72,25
2,43,0,146
2,43,74,37
2,43,0,32
2,40,82,24
2,40,0,141
2,40,85,37
2,40,0,34
2,33,72,29
2,33,0,146
2,33,74,37
2,33,0,32
2,38,82,24
2,38,0,120
2,38,82,0
2,38,0,120
2,38,82,0
2,38,0,141
2,38,85,37
2,38,0,34
2,43,82,28
2,43,0,120
2,42,82,0
2,42,0,120
2,40,82,0
2,40,0,120
2,33,82,0
2,33,0,120
2,38,72,1
2,38,0,146
2,38,74,37
2,38,0,32
2,38,72,25
2,38,0,146
2,38,74,37
2,38,0,32
2,38,82,24
2,38,0,141
2,38,85,37
2,38,0,34
2,38,82,28
2,38,0,120
2,37,82,0
2,37,0,120
2,35,76,0
2,35,0,195
2,35,87,15
2,35,0,14
2,38,82,16
2,38,0,165
2,38,89,15
2,38,0,17
2,38,89,13
2,38,0,13
2,43,85,17
2,43,0,186
2,35,82,24
2,35,0,15
2,42,82,15
2,42,0,165
2,42,89,15
2,42,0,17
2,42,89,13
2,42,0,13
2,40,76,17
2,40,0,195
2,40,87,15
2,40,0,14
2,33,82,16
2,33,0,165
2,33,89,15
2,33,0,17
2,33,89,13
2,33,0,13
2,38,74,20
2,38,0,158
2,33,52,51
2,33,0,23
2,38,85,4
2,38,0,189
2,44,87,18
2,44,0,12
2,42,82,22
2,42,0,132
2,42,72,78
2,42,0,11
2,42,82,19
2,42,0,162
2,45,102,48
2,45,0,14
2,40,74,19
2,40,0,158
2,35,52,51
2,35,0,23
2,40,85,4
2,40,0,189
2,35,87,18
2,35,0,12
2,33,76,22
2,33,0,195
2,33,87,15
2,33,0,14
2,35,82,16
2,35,0,165
2,35,89,15
2,35,0,17
2,35,89,13
2,35,0,13
2,40,76,17
2,40,0,195
2,40,87,15
2,40,0,14
2,33,82,16
2,33,0,165
2,33,89,15
2,33,0,17
2,33,89,13
2,33,0,13
2,38,72,18
2,38,0,146
2,38,74,37
2,38,0,32
2,38,72,25
2,38,0,146
2,38,74,37
2,38,0,32
2,38,72,25
2,38,0,146
2,38,74,37
2,38,0,32
2,38,82,24
2,38,0,141
2,38,85,37
2,38,0,34
2,43,72,29
2,43,0,146
2,43,74,37
2,43,0,32
2,43,82,24
2,43,0,141
2,43,85,37
2,43,0,34
2,40,72,29
2,40,0,146
2,40,74,37
2,40,0,32
2,33,82,24
2,33,0,141
2,33,85,37
2,33,0,34
2,38,82,28
2,38,0,120
2,38,82,0
2,38,0,120
2,38,72,1
2,38,0,146
2,38,74,37
2,38,0,32
2,43,82,24
2,43,0,120
2,42,82,0
2,42,0,120
2,40,82,0
2,40,0,120
2,33,82,0
2,33,0,120
2,38,82,0
2,38,0,141
2,38,85,37
2,38,0,34
2,38,82,28
2,38,0,141
2,38,85,37
2,38,0,34
2,38,72,29
2,38,0,146
2,38,74,37
2,38,0,32
2,38,82,24
2,38,0,141
2,38,85,37
2,38,0,34
2,43,82,28
2,43,0,141
2,43,85,37
2,43,0,34
2,43,72,29
2,43,0,146
2,43,74,37
2,43,0,32
2,40,72,25
2,40,0,146
2,40,74,37
2,40,0,32
2,33,82,24
2,33,0,141
2,33,85,37
2,33,0,34
2,43,85,28
2,43,0,186
2,43,82,24
2,43,0,15
2,38,82,15
2,38,0,165
2,39,89,15
2,39,0,17
2,38,89,13
2,38,0,13
2,40,76,17
2,40,0,195
2,40,87,15
2,40,0,14
2,43,82,16
2,43,0,165
2,43,89,15
2,43,0,17
2,43,89,13
2,43,0,13
2,40,76,17
2,40,0,195
2,40,87,15
2,40,0,14
2,33,82,16
2,33,0,165
2,33,89,15
2,33,0,17
2,33,89,13
2,33,0,13
2,38,82,17
2,38,0,132
2,38,72,78
2,38,0,11
2,38,82,19
2,38,0,162
2,44,102,48
2,44,0,14
2,42,74,19
2,42,0,158
2,37,52,51
2,37,0,23
2,42,85,4
2,42,0,189
2,41,87,18
2,41,0,12
2,40,82,22
2,40,0,132
2,40,72,78
2,40,0,11
2,40,82,19
2,40,0,162
2,35,102,48
2,35,0,14
2,33,85,16
2,33,0,186
2,34,82,24
2,34,0,15
2,35,82,15
2,35,0,165
2,38,89,15
2,38,0,17
2,35,89,13
2,35,0,13
2,40,74,20
2,40,0,158
2,35,52,51
2,35,0,23
2,40,85,4
2,40,0,189
2,31,87,18
2,31,0,12
2,33,74,25
2,33,0,158
2,28,52,51
2,28,0,23
2,33,85,4
2,33,0,189
2,38,87,18
2,38,0,12
2,38,72,23
2,38,0,146
2,38,74,37
2,38,0,32
2,38,82,24
2,38,0,141
2,38,85,37
2,38,0,34
2,38,72,29
2,38,0,146
2,38,74,37
2,38,0,32
2,38,72,25
2,38,0,146
2,38,74,37
2,38,0,32
2,43,82,24
2,43,0,141
2,43,85,37
2,43,0,34
2,43,82,28
2,43,0,141
2,43,85,37
2,43,0,34
2,40,72,29
2,40,0,146
2,40,74,37
2,40,0,32
2,33,82,24
2,33,0,141
2,33,85,37
2,33,0,34
2,38,82,28
2,38,0,120
2,38,82,0
2,38,0,120
2,38,82,0
2,38,0,141
2,38,85,37
2,38,0,34
2,43,82,28
2,43,0,120
2,42,82,0
2,42,0,120
2,40,82,0
2,40,0,120
2,33,82,0
2,33,0,120
2,38,72,1
2,38,0,146
2,38,74,37
2,38,0,32
2,38,82,24
2,38,0,41
2,38,85,37
2,38,0,34
2,38,72,8
2,38,0,131
2,38,74,32
2,38,0,32
2,38,82,24
2,38,0,141
2,38,85,37
2,38,0,34
