track,note,velocity,time
1,54,84,1136
1,52,84,0
1,61,85,0
1,38,101,0
1,45,90,0
1,52,109,148
1,43,101,148
1,66,80,0
1,57,89,0
1,59,91,0
1,62,86,0
1,57,127,4
1,59,85,84
1,62,106,84
1,45,86,72
1,38,97,76
1,52,79,0
1,61,99,0
1,54,90,4
1,45,106,4
1,52,111,12
1,43,97,144
1,66,83,0
1,57,85,0
1,59,95,0
1,62,87,0
1,57,127,0
1,59,83,96
1,62,111,80
1,45,93,80
1,38,101,0
1,52,81,4
1,61,103,0
1,54,99,0
1,45,111,8
1,52,116,0
1,57,88,156
1,66,84,0
1,59,101,0
1,62,85,0
1,43,86,0
1,50,109,768
1,45,85,96
1,54,85,24
1,61,90,0
1,52,78,0
1,38,102,0
1,45,103,8
1,52,120,156
1,43,111,28
1,57,91,0
1,66,90,0
1,59,102,0
1,62,92,4
1,57,75,100
1,61,65,0
1,64,75,0
1,54,75,0
1,38,74,4
1,50,70,184
1,57,89,4
1,61,75,0
1,64,80,0
1,54,78,0
1,54,68,4
1,57,76,0
1,54,75,0
1,59,81,0
1,62,76,0
1,38,61,4
1,57,84,0
1,59,89,0
1,62,82,4
1,54,83,0
1,54,79,4
1,50,74,96
1,38,81,0
1,64,83,4
1,57,90,0
1,61,79,0
1,54,90,0
1,54,74,4
1,57,102,4
1,61,81,0
1,64,90,0
1,54,99,0
1,54,79,4
1,50,68,96
1,62,92,8
1,57,86,0
1,54,83,0
1,38,79,0
1,59,93,0
1,54,69,4
1,57,97,4
1,62,92,0
1,59,92,0
1,54,90,0
1,50,77,196
1,59,92,4
1,62,92,0
1,55,81,0
1,66,79,0
1,43,80,0
1,55,73,4
1,59,95,4
1,66,90,0
1,62,102,0
1,55,86,0
1,55,70,4
1,55,76,0
1,59,79,0
1,43,77,0
1,62,83,0
1,64,79,0
1,55,70,88
1,62,114,4
1,59,103,0
1,64,102,0
1,55,95,0
1,55,83,4
1,42,77,92
1,59,90,4
1,62,87,0
1,55,88,0
1,64,87,0
1,40,79,0
1,55,77,108
1,62,103,4
1,64,102,0
1,59,103,0
1,55,91,0
1,55,91,4
1,40,29,4
1,45,88,0
1,55,85,0
1,62,87,0
1,59,90,0
1,55,76,96
1,62,93,4
1,59,95,0
1,55,89,0
1,55,75,4
1,45,75,4
1,61,80,32
1,66,82,0
1,57,76,0
1,38,88,4
1,61,87,148
1,66,87,0
1,57,79,0
1,67,90,12
1,50,91,0
1,59,83,0
1,62,91,0
1,38,88,4
1,50,82,0
1,66,88,0
1,61,90,0
1,57,90,0
1,50,86,4
1,62,95,0
1,55,89,0
1,66,88,0
1,59,97,0
1,43,81,4
1,42,89,4
1,64,93,0
1,57,90,0
1,61,93,0
1,59,92,12
1,62,89,0
1,40,79,0
1,55,88,0
1,45,81,0
1,59,93,0
1,62,95,0
1,55,81,0
1,61,77,12
1,57,84,0
1,64,78,0
1,54,75,0
1,38,79,0
1,50,97,284
1,69,111,92
1,66,90,100
1,62,80,92
1,61,95,0
1,50,84,4
1,38,89,28
1,50,97,92
1,59,103,12
1,54,93,192
1,57,95,0
1,50,79,4
1,57,103,12
1,64,102,0
1,38,91,0
1,54,84,0
1,50,74,192
1,61,83,4
1,64,91,0
1,57,102,0
1,54,93,0
1,54,78,4
1,50,85,4
1,54,87,8
1,57,87,0
1,62,87,0
1,38,82,0
1,59,90,0
1,50,124,292
1,57,109,4
1,59,120,4
1,62,127,4
1,50,81,4
1,64,116,0
1,66,116,24
1,43,80,4
1,57,91,192
1,59,109,4
1,62,97,0
1,66,90,0
1,57,75,4
1,43,81,4
1,43,80,0
1,55,80,0
1,59,89,0
1,62,90,0
1,64,81,0
1,59,81,4
1,62,79,0
1,64,79,0
1,55,76,0
1,55,95,4
1,42,75,92
1,62,88,8
1,59,88,0
1,55,83,0
1,40,83,0
1,55,83,92
1,59,97,4
1,64,92,0
1,55,81,0
1,55,87,4
1,40,77,4
1,62,92,12
1,59,101,0
1,45,86,0
1,55,89,0
1,62,97,0
1,59,99,0
1,55,87,4
1,55,88,4
1,45,70,4
1,61,85,44
1,66,84,0
1,57,88,0
1,38,86,0
1,61,91,144
1,66,89,0
1,57,91,0
1,50,88,24
1,62,92,0
1,59,91,0
1,67,90,0
1,61,102,8
1,57,97,0
1,50,83,0
1,38,93,0
1,66,90,0
1,57,93,4
1,50,93,4
1,66,83,8
1,59,101,0
1,62,91,0
1,57,93,0
1,43,90,0
1,42,93,12
1,61,90,0
1,64,93,0
1,57,91,4
1,40,85,16
1,62,89,0
1,59,95,4
1,55,89,0
1,45,90,4
1,62,90,0
1,59,90,0
1,55,80,0
1,57,88,0
1,64,77,0
1,61,76,0
1,54,77,0
1,38,83,0
1,50,76,192
1,61,95,4
1,57,101,0
1,54,95,0
1,64,89,0
1,50,73,4
1,38,90,4
1,57,87,16
1,54,91,0
1,62,99,0
1,54,81,4
1,50,78,96
1,57,85,4
1,59,103,0
1,54,88,0
1,62,93,0
1,54,79,4
1,50,79,4
1,64,93,0
1,57,99,0
1,54,95,0
1,61,82,0
1,38,85,0
1,54,76,4
1,50,86,100
1,57,103,4
1,64,91,0
1,61,83,0
1,54,92,0
1,54,88,4
1,38,95,4
1,57,102,28
1,62,92,0
1,50,101,0
1,54,90,0
1,54,101,4
1,50,83,4
1,49,103,0
1,64,116,4
1,61,120,0
1,57,120,0
1,57,86,52
1,49,88,4
1,59,93,12
1,62,99,0
1,47,84,0
1,57,86,0
1,66,86,0
1,57,79,48
1,59,101,4
1,57,95,0
1,62,109,0
1,66,91,0
1,57,90,4
1,47,82,4
1,66,83,12
1,62,101,0
1,57,90,0
1,45,86,0
1,57,75,84
1,66,90,4
1,62,116,0
1,57,95,0
1,57,101,4
1,45,78,4
1,62,90,0
1,59,95,0
1,55,83,0
1,66,83,0
1,43,79,0
1,62,109,4
1,59,106,0
1,55,95,0
1,55,91,4
1,43,78,4
1,62,103,4
1,59,103,0
1,66,92,0
1,43,79,0
1,55,95,0
1,55,89,4
1,43,77,4
1,42,92,24
1,62,120,0
1,66,93,0
1,57,103,0
1,57,62,4
1,40,85,12
1,59,95,0
1,62,90,0
1,64,90,0
1,55,87,0
1,47,89,0
1,55,77,80
1,62,101,0
1,59,103,4
1,55,91,0
1,64,99,0
1,55,93,4
1,47,82,4
1,62,92,0
1,55,101,0
1,45,93,0
1,59,95,0
1,55,83,80
1,45,81,4
1,62,109,4
1,55,103,0
1,59,114,0
1,55,79,4
1,61,79,0
1,54,89,0
1,57,90,4
1,64,87,0
1,38,81,0
1,50,66,188
1,61,84,4
1,64,93,0
1,57,101,0
1,54,106,0
1,54,75,4
1,50,88,4
1,66,106,0
1,61,93,0
1,69,109,0
1,38,89,4
1,57,81,4
1,50,111,4
1,66,127,4
1,57,97,0
1,61,88,0
1,50,91,4
1,66,120,0
1,57,109,0
1,61,114,0
1,42,91,4
1,57,81,4
1,54,93,96
1,61,99,4
1,66,102,0
1,69,99,0
1,57,102,0
1,57,92,4
1,42,99,4
1,54,97,8
1,57,114,0
1,66,109,0
1,61,82,196
1,61,116,4
1,54,91,0
1,42,87,4
1,57,81,0
1,62,102,196
1,64,90,0
1,59,103,0
1,55,95,0
1,40,85,0
1,55,82,92
1,64,85,0
1,62,83,0
1,59,90,0
1,55,87,4
1,55,66,4
1,52,74,84
1,55,81,0
1,64,87,0
1,67,88,4
1,59,89,0
1,62,90,0
1,55,74,4
1,64,91,4
1,62,91,0
1,67,88,0
1,59,95,0
1,55,93,0
1,55,87,4
1,52,81,4
1,62,102,12
1,45,82,0
1,55,103,0
1,59,103,0
1,55,75,72
1,62,114,4
1,59,114,0
1,55,102,0
1,55,90,4
1,45,75,4
1,62,109,8
1,59,109,0
1,66,93,0
1,47,95,4
1,57,74,192
1,66,89,4
1,62,93,0
1,59,102,0
1,57,102,0
1,57,75,4
1,47,74,4
1,55,92,4
1,59,99,0
1,64,92,0
1,62,92,0
1,40,88,0
1,55,79,92
1,62,111,4
1,59,109,0
1,64,109,0
1,55,93,0
1,55,77,4
1,52,83,0
1,62,85,4
1,55,90,0
1,59,90,0
1,45,83,0
1,55,77,60
1,62,88,0
1,59,92,4
1,55,88,0
1,55,66,4
1,45,68,4
1,61,74,184
1,57,85,0
1,64,80,0
1,54,75,0
1,38,75,0
1,54,80,68
1,61,90,0
1,57,101,0
1,54,85,4
1,64,90,0
1,57,76,4
1,54,83,0
1,50,76,96
1,54,86,0
1,57,89,0
1,62,82,0
1,59,91,0
1,38,82,4
1,54,74,96
1,54,75,4
1,57,76,0
1,62,75,0
1,59,83,0
1,54,83,4
1,50,83,88
1,38,92,0
1,57,111,0
1,64,95,0
1,61,86,0
1,54,95,0
1,57,116,4
1,61,99,0
1,64,103,0
1,54,101,0
1,54,93,80
1,50,81,92
1,62,101,16
1,59,101,0
1,54,101,0
1,38,93,0
1,57,111,0
1,54,81,76
1,57,90,4
1,62,85,0
1,59,86,0
1,54,90,0
1,50,90,192
1,55,88,4
1,62,91,0
1,66,82,0
1,59,95,0
1,50,81,0
1,43,83,0
1,55,72,84
1,66,91,4
1,62,101,0
1,59,102,0
1,55,102,0
1,55,92,4
1,50,70,4
1,55,79,0
1,64,87,0
1,59,90,0
1,62,89,4
1,43,83,0
1,55,77,88
1,62,116,4
1,59,114,0
1,64,114,0
1,55,95,0
1,55,91,4
1,50,74,0
1,64,90,4
1,62,92,0
1,59,95,0
1,55,91,0
1,40,88,0
1,55,79,92
1,62,97,4
1,64,93,0
1,59,99,0
1,55,91,0
1,55,90,4
1,52,84,92
1,62,91,4
1,55,101,0
1,59,97,0
1,45,87,0
1,55,86,96
1,45,68,4
1,62,106,4
1,59,109,0
1,55,102,0
1,55,83,4
1,45,77,4
1,61,97,28
1,66,92,4
1,57,99,0
1,38,99,0
1,66,102,128
1,57,106,0
1,61,106,0
1,62,101,24
1,50,91,0
1,59,101,0
1,67,97,0
1,61,99,0
1,38,83,0
1,66,97,0
1,50,91,0
1,57,97,0
1,66,103,4
1,57,90,0
1,50,95,4
1,59,106,4
1,62,92,0
1,55,99,0
1,50,87,0
1,43,84,0
1,55,79,68
1,64,91,4
1,61,81,0
1,57,84,0
1,42,95,0
1,54,87,0
1,62,90,16
1,64,87,0
1,55,91,0
1,59,92,0
1,40,85,0
1,52,85,0
1,45,92,4
1,62,97,0
1,59,97,0
1,55,93,0
1,66,80,16
1,61,78,0
1,57,79,0
1,38,85,0
1,50,81,0
1,69,84,0
1,57,86,84
1,50,90,4
1,66,116,4
1,50,102,4
1,66,127,4
1,61,83,4
1,57,99,4
1,50,83,4
1,57,86,4
1,62,85,0
1,59,101,0
1,54,85,0
1,50,97,72
1,54,81,4
1,64,95,0
1,57,93,0
1,61,80,4
1,54,90,0
1,38,89,0
1,54,74,4
1,64,101,4
1,61,85,0
1,57,111,0
1,54,106,0
1,54,82,4
1,50,74,92
1,57,90,4
1,38,90,0
1,54,93,0
1,59,95,0
1,62,92,0
1,50,127,288
1,57,109,4
1,59,120,4
1,62,127,4
1,64,120,92
1,66,116,16
1,43,90,0
1,50,80,188
1,50,81,4
1,62,101,100
1,59,77,92
1,57,103,100
1,50,82,4
1,62,93,4
1,43,102,0
1,59,101,0
1,64,92,0
1,55,99,0
1,55,84,84
1,50,80,92
1,62,102,4
1,59,106,0
1,64,99,0
1,55,97,0
1,55,90,4
1,52,91,24
1,40,91,0
1,62,88,0
1,59,90,0
1,55,83,0
1,40,91,92
1,52,89,4
1,62,90,0
1,59,93,0
1,55,85,0
1,62,111,8
1,59,106,0
1,67,102,0
1,55,101,0
1,45,87,0
1,62,79,16
1,43,76,0
1,55,73,0
1,59,79,0
1,62,83,4
1,55,79,0
1,59,85,0
1,55,75,4
1,50,70,92
1,62,88,0
1,55,78,0
1,59,85,0
1,45,83,0
1,55,66,80
1,62,95,0
1,59,97,0
1,55,89,4
1,62,84,4
1,59,84,0
1,55,82,0
1,64,84,0
1,40,75,0
1,55,78,68
1,62,102,4
1,64,101,0
1,59,103,0
1,55,102,0
1,55,83,4
1,47,80,96
1,62,89,4
1,45,93,0
1,59,92,0
1,55,86,0
1,55,75,56
1,62,106,4
1,59,109,0
1,55,97,0
1,55,92,4
1,45,79,4
1,62,99,4
1,59,99,0
1,64,99,0
1,55,92,0
1,40,87,0
1,55,86,80
1,62,114,4
1,64,109,0
1,55,103,0
1,59,114,0
1,55,82,4
1,52,86,96
1,62,99,4
1,59,99,0
1,45,90,0
1,55,99,0
1,55,81,76
1,62,111,4
1,59,106,0
1,55,83,0
1,55,90,4
1,45,70,4
1,61,84,20
1,57,93,0
1,54,95,0
1,64,99,0
1,38,83,4
1,54,73,44
1,61,90,4
1,57,103,0
1,64,97,0
1,54,93,0
1,54,83,4
1,50,83,92
1,38,95,4
1,66,85,0
1,57,91,0
1,61,84,0
1,64,101,0
1,57,99,60
1,50,116,92
1,61,106,4
1,69,114,0
1,57,114,0
1,57,78,4
1,50,106,0
1,66,92,8
1,61,95,0
1,54,92,0
1,69,97,0
1,42,92,0
1,57,102,0
1,57,78,84
1,61,106,4
1,66,106,0
1,69,101,0
1,57,103,0
1,57,92,4
1,42,89,4
1,66,81,4
1,64,90,0
1,61,80,0
1,54,89,0
1,57,93,0
1,42,86,0
1,57,67,4
1,64,99,4
1,61,91,0
1,66,90,0
1,57,93,0
1,57,84,4
1,54,76,4
1,59,99,12
1,62,91,0
1,64,92,0
1,55,87,0
1,40,85,0
1,57,93,0
1,59,97,4
1,64,90,0
1,55,101,0
1,62,90,0
1,55,87,4
1,52,83,92
1,59,103,4
1,55,99,0
1,64,103,0
1,55,85,4
1,52,99,4
1,62,106,4
1,55,106,0
1,59,111,0
1,64,77,0
1,40,90,4
1,59,114,8
1,62,106,0
1,45,87,0
1,55,101,0
1,55,79,84
1,62,111,4
1,59,116,0
1,55,103,0
1,45,75,4
1,62,109,28
1,59,103,0
1,66,90,0
1,57,106,0
1,47,97,0
1,57,83,4
1,59,109,4
1,62,116,0
1,66,92,0
1,57,101,0
1,57,90,4
1,47,84,4
1,40,109,4
1,62,116,0
1,59,114,0
1,55,111,0
1,64,114,0
1,40,90,0
1,52,90,0
1,62,114,0
1,59,109,4
1,64,103,0
1,55,101,0
1,45,90,0
1,62,92,0
1,55,102,0
1,59,97,0
1,57,80,4
1,61,75,4
1,38,77,0
1,54,74,0
1,64,77,0
1,50,79,184
1,61,86,4
1,57,93,0
1,64,95,0
1,54,87,0
1,54,73,4
1,50,68,4
1,54,81,4
1,57,78,0
1,62,83,0
1,59,91,0
1,38,83,0
1,54,72,76
1,57,80,4
1,62,77,0
1,54,77,0
1,59,29,4
1,54,78,4
1,50,75,92
1,61,79,0
1,64,85,0
1,57,88,0
1,54,83,0
1,38,87,0
1,54,70,4
1,61,88,4
1,57,106,0
1,64,95,0
1,54,97,0
1,54,77,0
1,38,97,4
1,57,91,4
1,54,88,0
1,59,92,0
1,38,88,0
1,62,85,0
1,50,93,0
1,54,77,92
1,50,72,4
1,62,103,4
1,54,95,0
1,50,99,4
1,66,81,4
1,62,93,0
1,55,79,0
1,59,90,0
1,43,84,0
1,50,72,276
1,62,92,4
1,59,90,0
1,66,79,0
1,55,81,0
1,55,74,4
1,50,69,4
1,64,79,12
1,55,75,0
1,59,90,0
1,43,78,0
1,62,83,0
1,55,75,4
1,55,90,0
1,59,92,0
1,62,90,4
1,64,92,0
1,55,86,4
1,62,87,0
1,55,88,0
1,40,92,0
1,64,89,0
1,59,89,0
1,55,76,104
1,52,77,92
1,55,93,4
1,64,120,0
1,62,102,4
1,59,102,0
1,52,75,4
1,62,92,0
1,55,102,0
1,59,111,4
1,45,79,0
1,55,77,80
1,45,85,4
1,62,114,4
1,59,116,0
1,55,101,0
1,55,81,4
1,45,74,4
1,38,92,44
1,61,91,0
1,66,89,0
1,57,92,0
1,66,97,72
1,38,90,4
1,57,99,0
1,61,102,0
1,50,88,48
1,38,89,4
1,62,97,0
