track,note,velocity,time
1,28,110,1544
1,33,88,188
1,35,102,4
1,36,100,0
1,35,98,16
1,33,94,0
1,36,94,192
1,35,98,0
1,33,90,0
1,36,100,0
1,35,98,32
1,33,100,196
1,28,82,176
1,28,96,104
1,33,88,0
1,35,100,16
1,36,96,0
1,35,100,32
1,33,94,20
1,36,98,0
1,35,100,20
1,33,100,0
1,36,102,4
1,35,102,32
1,33,106,0
1,28,110,192
1,33,88,196
1,35,102,0
1,36,100,0
1,35,98,16
1,33,94,4
1,36,94,188
1,35,98,0
1,33,90,0
1,36,100,0
1,35,98,32
1,33,100,196
1,28,82,176
1,28,96,100
1,33,88,0
1,35,100,20
1,36,96,4
1,35,100,32
1,33,94,20
1,36,98,0
1,35,100,16
1,33,100,0
1,36,102,0
1,35,102,32
1,33,106,0
1,28,110,196
1,33,88,188
1,35,102,4
1,36,100,0
1,35,98,20
1,33,94,0
1,36,94,188
1,35,98,0
1,33,90,0
1,36,100,0
1,35,98,32
1,33,100,196
1,28,82,172
1,28,96,108
1,33,88,4
1,35,100,20
1,36,96,0
1,35,100,32
1,33,94,20
1,36,98,0
1,35,100,16
1,33,100,4
1,38,82,4
1,38,86,196
1,38,90,196
1,38,86,192
1,38,80,192
1,38,86,16
1,36,92,192
1,37,96,192
1,38,98,184
1,38,96,192
1,38,98,192
1,38,82,212
1,38,86,192
1,38,90,84
1,41,88,196
1,41,96,176
1,38,96,196
1,38,92,208
1,38,98,208
1,38,92,272
1,38,82,212
1,38,102,112
1,36,100,148
1,37,106,164
1,38,100,180
1,38,98,192
1,38,102,224
1,38,92,240
1,38,98,160
1,38,106,112
1,38,102,148
1,45,106,48
1,41,108,80
1,43,100,64
1,34,86,84
1,34,86,196
1,34,90,192
1,34,96,368
1,34,98,208
1,34,102,52
1,34,108,196
1,46,102,16
1,33,88,20
1,45,98,0
1,31,100,36
1,31,100,192
1,31,102,192
1,31,92,384
1,31,92,208
1,31,90,32
1,31,98,192
1,31,100,208
1,33,90,196
1,33,98,212
1,33,98,196
1,33,98,384
1,33,88,192
1,33,98,0
1,33,106,192
1,33,100,32
1,45,70,16
1,43,98,4
1,40,86,0
1,33,96,84
1,33,92,212
1,33,102,208
1,33,100,320
1,33,102,376
1,38,82,164
1,38,86,200
1,38,90,196
1,38,86,196
1,38,80,192
1,38,86,20
1,36,92,192
1,37,96,192
1,38,98,180
1,38,96,196
1,38,98,192
1,38,82,208
1,38,86,192
1,38,90,80
1,41,88,192
1,41,96,180
1,38,96,196
1,38,92,208
1,38,98,208
1,38,92,272
1,38,82,212
1,38,102,112
1,36,100,144
1,37,106,160
1,38,100,180
1,38,98,192
1,38,102,224
1,38,92,240
1,38,98,160
1,38,106,112
1,38,102,148
1,45,106,48
1,41,108,84
1,43,100,64
1,34,86,84
1,34,86,196
1,34,90,196
1,34,96,368
1,34,98,208
1,34,102,52
1,34,108,196
1,46,102,16
1,33,88,20
1,45,98,0
1,31,100,36
1,31,100,192
1,31,102,192
1,31,92,384
1,31,92,208
1,31,90,32
1,31,98,192
1,31,100,208
1,33,90,196
1,33,98,208
1,33,98,192
1,33,98,384
1,33,88,192
1,33,98,4
1,33,106,192
1,33,100,32
1,45,70,16
1,43,98,0
1,40,86,0
1,33,96,84
1,33,92,208
1,33,102,208
1,33,100,320
1,33,102,376
1,38,102,168
1,38,102,192
1,38,108,192
1,33,100,336
1,38,86,36
1,40,82,16
1,41,80,36
1,40,92,16
1,38,108,224
1,33,86,52
1,32,100,16
1,31,88,20
1,31,94,160
1,31,90,192
1,31,88,192
1,33,94,196
1,33,88,176
1,33,90,192
1,33,98,192
1,38,102,212
1,38,102,192
1,38,108,192
1,33,100,336
1,38,86,40
1,40,82,16
1,41,80,32
1,40,92,16
1,38,108,224
1,33,86,48
1,32,100,16
1,31,88,20
1,31,94,160
1,31,90,192
1,31,88,192
1,33,94,196
1,33,88,176
1,33,90,192
1,33,98,192
1,34,102,212
1,34,106,180
1,36,98,164
1,36,102,212
1,38,106,180
1,38,100,180
1,38,102,176
1,38,100,192
1,31,98,164
1,31,98,228
1,31,96,224
1,33,98,196
1,33,96,212
1,33,94,208
1,33,88,208
1,33,102,192
1,38,102,196
1,38,102,196
1,38,108,196
1,33,100,336
1,38,86,36
1,40,82,16
1,41,80,32
1,40,92,16
1,38,108,224
1,33,86,52
1,32,100,16
1,31,88,20
1,31,94,160
1,31,90,192
1,31,88,192
1,33,94,196
1,33,88,176
1,33,90,192
1,33,98,192
1,38,102,212
1,38,102,192
1,38,108,196
1,33,100,336
1,38,86,36
1,40,82,16
1,41,80,36
1,40,92,16
1,38,108,224
1,33,86,52
1,32,100,16
1,31,88,20
1,31,94,160
1,31,90,196
1,31,88,196
1,33,94,196
1,33,88,176
1,33,90,192
1,33,98,192
1,34,102,212
1,34,106,180
1,36,98,164
1,36,102,212
1,38,106,180
1,38,100,176
1,38,102,180
1,38,100,192
1,31,98,164
1,31,98,224
1,31,96,228
1,33,98,196
1,33,96,212
1,33,94,208
1,33,88,212
1,33,102,196
1,38,82,196
1,38,86,196
1,38,90,196
1,38,86,196
1,38,80,192
1,38,86,20
1,36,92,196
1,37,96,196
1,38,98,180
1,38,96,196
1,38,98,192
1,38,82,212
1,38,86,192
1,38,90,84
1,41,88,200
1,41,96,180
1,38,96,196
1,38,92,212
1,38,98,216
1,38,92,272
1,38,82,208
1,38,102,116
1,36,100,148
1,37,106,164
1,38,100,180
1,38,98,196
1,38,102,224
1,38,92,240
1,38,98,160
1,38,106,112
1,38,102,144
1,45,106,48
1,41,108,84
1,43,100,64
1,34,86,84
1,34,86,196
1,34,90,196
1,34,96,368
1,34,98,208
1,34,102,48
1,34,108,196
1,46,102,16
1,33,88,20
1,45,98,0
1,31,100,36
1,31,100,192
1,31,102,192
1,31,92,388
1,31,92,208
1,31,90,32
1,31,98,192
1,31,100,208
1,33,90,196
1,33,98,208
1,33,98,192
1,33,98,384
1,33,88,192
1,33,98,4
1,33,106,192
1,33,100,32
1,45,70,16
1,43,98,4
1,40,86,0
1,33,96,84
1,33,92,212
1,33,102,208
1,33,100,320
1,33,102,376
1,38,102,164
1,38,102,192
1,38,108,192
1,33,100,336
1,38,86,36
1,40,82,20
1,41,80,36
1,40,92,16
1,38,108,224
1,33,86,48
1,32,100,16
1,31,88,20
1,31,94,160
1,31,90,192
1,31,88,192
1,33,94,196
1,33,88,176
1,33,90,196
1,33,98,196
1,38,102,212
1,38,102,192
1,38,108,192
1,33,100,336
1,38,86,36
1,40,82,16
1,41,80,36
1,40,92,20
1,38,108,224
1,33,86,52
1,32,100,16
1,31,88,20
1,31,94,160
1,31,90,192
1,31,88,192
1,33,94,192
1,33,88,176
1,33,90,192
1,33,98,196
1,34,102,212
1,34,106,184
1,36,98,168
1,36,102,212
1,38,106,180
1,38,100,176
1,38,102,180
1,38,100,196
1,31,98,164
1,31,98,224
1,31,96,224
1,33,98,192
1,33,96,212
1,33,94,208
1,33,88,212
1,33,102,192
1,38,102,768
1,41,98,36
1,43,88,0
1,45,92,4
1,36,96,16
1,36,90,512
1,40,106,16
1,41,100,48
1,43,82,4
1,38,102,4
1,33,108,368
1,38,100,0
1,40,90,0
1,41,86,48
1,38,86,16
1,34,102,36
1,34,108,160
1,36,110,164
1,36,114,180
1,38,102,768
1,41,98,32
1,43,88,0
1,45,92,0
1,36,96,16
1,36,90,512
1,40,106,20
1,41,100,48
1,43,82,0
1,38,102,4
1,33,108,368
1,38,100,4
1,40,90,0
1,41,86,48
1,38,86,16
1,34,102,36
1,34,108,164
1,36,110,160
1,36,114,180
1,34,102,196
1,34,86,96
1,34,88,96
1,34,100,420
1,34,96,100
1,34,88,112
1,34,88,240
1,34,100,256
1,34,92,240
1,34,100,112
1,34,64,128
1,33,86,84
1,33,96,80
1,33,100,100
1,33,106,240
1,31,68,48
1,33,102,36
1,31,80,48
1,33,100,20
1,37,102,96
1,40,98,80
1,37,86,80
1,40,96,64
1,43,80,16
1,45,90,52
1,49,106,80
1,38,102,84
1,38,102,192
1,38,108,196
1,33,100,336
1,38,86,36
1,40,82,16
1,41,80,36
1,40,92,16
1,38,108,224
1,33,86,56
1,32,100,16
1,31,88,20
1,31,94,164
1,31,90,196
1,31,88,192
1,33,94,200
1,33,88,176
1,33,90,192
1,33,98,192
1,38,102,212
1,38,102,196
1,38,108,192
1,33,100,336
1,38,86,36
1,40,82,16
1,41,80,32
1,40,92,16
1,38,108,228
1,33,86,52
1,32,100,16
1,31,88,20
1,31,94,164
1,31,90,192
1,31,88,192
1,33,94,192
1,33,88,176
1,33,90,192
1,33,98,192
1,34,102,212
1,34,106,180
1,36,98,164
1,36,102,212
1,38,106,184
1,38,100,176
1,38,102,176
1,38,100,192
1,31,98,164
1,31,98,224
1,31,96,224
1,33,98,196
1,33,96,212
1,33,94,208
1,33,88,216
1,33,102,196
1,38,102,196
1,38,102,196
1,38,108,196
1,33,100,336
1,38,86,36
1,40,82,20
1,41,80,32
1,40,92,16
1,38,108,224
1,33,86,48
1,32,100,20
1,31,88,20
1,31,94,160
1,31,90,192
1,31,88,192
1,33,94,196
1,33,88,176
1,33,90,192
1,33,98,192
1,38,102,212
1,38,102,192
1,38,108,196
1,33,100,336
1,38,86,36
1,40,82,16
1,41,80,32
1,40,92,16
1,38,108,224
1,33,86,48
1,32,100,16
1,31,88,20
1,31,94,160
1,31,90,196
1,31,88,196
1,33,94,196
1,33,88,176
1,33,90,192
1,33,98,192
1,34,102,212
1,34,106,180
1,36,98,164
1,36,102,208
1,38,106,180
1,38,100,176
1,38,102,180
1,38,100,192
1,31,98,164
1,31,98,224
1,31,96,232
1,33,98,192
1,33,96,212
1,33,94,208
1,33,88,216
1,33,102,196
1,38,102,196
1,38,102,192
1,38,108,196
1,33,100,336
1,38,86,36
1,40,82,16
1,41,80,36
1,40,92,16
1,38,108,224
1,33,86,52
1,32,100,16
1,31,88,20
1,31,94,160
1,31,90,192
1,31,88,192
1,33,94,196
1,33,88,180
1,33,90,192
1,33,98,192
1,38,102,212
1,38,102,192
1,38,108,192
1,33,100,336
1,38,86,36
1,40,82,16
1,41,80,32
1,40,92,16
1,38,108,224
1,33,86,52
1,32,100,16
1,31,88,20
1,31,94,160
1,31,90,192
1,31,88,192
1,33,94,196
1,33,88,176
1,33,90,196
1,33,98,192
1,34,102,212
1,34,106,180
1,36,98,164
1,36,102,212
1,38,106,180
1,38,100,180
1,38,102,180
1,38,100,192
1,31,98,168
1,31,98,228
1,31,96,224
1,33,98,196
1,33,96,212
1,33,94,212
1,33,88,212
1,33,102,192
1,38,102,196
1,38,102,192
1,38,108,192
1,33,100,336
1,38,76,36
1,40,76,16
1,41,75,32
1,40,74,16
1,38,72,224
1,33,71,48
1,32,71,16
1,31,70,20
1,31,68,160
1,31,66,192
1,31,65,192
1,33,63,196
1,33,61,176
1,33,59,192
1,33,58,192
1,38,56,212
1,38,54,192
1,38,52,196
1,33,50,336
1,38,49,36
1,40,48,16
1,41,47,36
1,40,47,16
1,38,45,224
1,33,44,48
1,32,43,16
1,31,42,20
1,31,41,160
1,31,39,192
1,31,37,192
1,33,35,196
1,33,34,176
1,33,32,192
1,33,30,192
1,34,28,212
1,34,27,176
1,36,25,164
1,36,23,208
1,38,22,180
1,38,20,176
1,38,18,180
1,38,17,192
1,31,15,164
1,31,13,228
1,31,11,224
1,33,10,196
1,33,8,212
1,33,6,208
1,33,5,208
1,33,3,196
2,81,96,7684
2,79,94,0
2,76,92,0
2,84,94,0
2,81,96,36
2,76,106,0
2,79,106,0
2,84,108,0
2,81,98,2896
2,76,92,0
2,79,92,4
2,84,100,0
2,76,106,196
2,79,102,0
2,81,102,0
2,84,108,0
2,72,102,88820
2,74,98,0
2,69,98,0
2,77,88,0
2,74,98,2020
2,72,98,0
2,69,98,0
2,77,100,0
2,74,94,2208
2,72,98,0
2,69,92,0
2,77,96,0
2,74,98,2112
2,72,98,0
2,69,92,0
2,77,86,0
3,67,64,18820
3,69,64,4
3,76,64,0
3,72,64,0
3,69,64,4
3,74,64,0
3,77,64,0
3,84,38,127492
3,89,42,0
3,93,54,0
3,91,54,1536
3,88,46,0
3,89,64,1444
3,93,56,0
3,86,52,0
3,82,36,1508
3,91,54,16
3,88,50,0
3,84,54,4
3,89,66,20
3,84,62,0
3,93,60,0
3,91,60,1508
3,88,40,0
3,89,58,24
3,86,52,0
3,93,54,0
3,82,52,1508
3,91,62,0
3,88,60,0
3,84,60,0
3,82,48,728
3,89,60,0
3,86,46,0
3,88,48,20
3,93,46,0
3,81,50,736
3,85,48,64
4,57,74,19976
4,62,74,0
4,65,74,0
4,57,74,0
4,62,74,0
4,64,74,0
4,57,74,0
4,62,74,0
4,65,74,4
4,57,74,0
4,62,74,0
4,64,74,0
4,65,74,0
4,64,74,4
4,62,74,0
4,64,74,0
4,57,74,4
4,62,74,0
4,65,74,0
4,57,74,0
4,62,74,0
4,64,74,0
4,57,74,0
4,62,74,0
4,65,74,0
4,57,74,0
4,62,74,0
4,64,74,4
4,65,74,0
4,64,74,0
4,62,74,0
4,64,74,0
4,57,74,4
4,62,74,0
4,65,74,0
4,57,74,0
4,62,74,0
4,64,74,0
4,57,74,0
4,62,74,0
4,65,74,4
4,57,74,0
4,62,74,0
4,64,74,0
4,65,74,0
4,64,74,0
4,62,74,0
4,64,74,0
4,57,74,4
4,62,74,0
4,65,74,0
4,57,74,0
4,62,74,0
4,64,74,4
4,57,74,0
4,62,74,0
4,65,74,4
4,57,74,0
4,62,74,0
4,64,74,4
4,65,74,0
4,64,74,0
4,62,74,0
4,64,74,0
4,58,74,0
4,62,74,0
4,65,74,0
4,58,74,0
4,62,74,0
4,67,74,4
4,58,74,0
4,62,74,4
4,65,74,4
4,58,74,4
4,62,74,4
4,67,74,0
4,58,74,0
4,62,74,0
4,65,74,0
4,58,74,0
4,62,74,4
4,67,74,0
4,58,74,0
4,62,74,0
4,65,74,0
4,58,74,0
4,62,74,4
4,67,74,4
4,58,74,4
4,62,74,0
4,65,74,0
4,58,74,0
4,62,74,0
4,67,74,0
4,58,74,0
4,62,74,0
4,57,74,4
4,62,74,0
4,64,74,0
4,57,74,0
4,62,74,0
4,67,74,0
4,57,74,0
4,62,74,0
4,64,74,4
4,57,74,0
4,62,74,0
4,67,74,0
4,57,74,0
4,61,74,0
4,64,74,0
4,57,74,0
4,61,74,0
4,67,74,0
4,57,74,0
4,61,74,0
4,64,74,0
4,57,74,0
4,61,74,0
4,67,74,0
4,57,74,4
4,61,74,0
4,57,74,0
4,57,74,964
4,62,74,4
4,65,74,0
4,57,74,0
4,62,74,4
4,64,74,0
4,57,74,0
4,62,74,0
4,65,74,4
4,57,74,0
4,62,74,0
4,64,74,0
4,65,74,0
4,64,74,0
4,62,74,0
4,64,74,4
4,57,74,8
4,62,74,4
4,65,74,4
4,57,74,0
4,62,74,0
4,64,74,0
4,57,74,0
4,62,74,0
4,65,74,4
4,57,74,0
4,62,74,0
4,64,74,0
4,65,74,0
4,64,74,0
4,62,74,0
4,64,74,0
4,57,74,8
4,62,74,0
4,65,74,0
4,57,74,0
4,62,74,0
4,64,74,0
4,57,74,0
4,62,74,0
4,65,74,4
4,57,74,0
4,62,74,0
4,64,74,0
4,65,74,0
4,64,74,0
4,62,74,0
4,64,74,0
4,57,74,4
4,62,74,0
4,65,74,0
4,57,74,0
4,62,74,4
4,64,74,0
4,57,74,0
4,62,74,0
4,65,74,4
4,57,74,0
4,62,74,0
4,64,74,0
4,65,74,0
4,64,74,0
4,62,74,0
4,64,74,0
4,58,74,4
4,62,74,0
4,65,74,0
4,58,74,0
4,62,74,0
4,67,74,0
4,58,74,0
4,62,74,0
4,65,74,4
4,58,74,0
4,62,74,0
4,67,74,0
4,58,74,4
4,62,74,0
4,65,74,0
4,58,74,0
4,62,74,4
4,67,74,0
4,58,74,4
4,62,74,0
4,65,74,0
4,58,74,0
4,62,74,0
4,67,74,4
4,58,74,8
