track,note,velocity,time
0,45,123,1054
0,45,123,18
0,43,126,128
0,53,65,116
0,58,95,28
0,62,92,36
0,36,123,8
0,49,105,0
0,70,85,0
0,58,93,0
0,53,80,0
0,62,77,0
0,34,109,0
0,65,103,12
0,70,77,40
0,62,121,24
0,53,83,4
0,42,93,0
0,69,45,0
0,74,121,0
0,58,123,0
0,69,64,62
0,58,103,0
0,62,107,10
0,38,127,4
0,42,106,0
0,54,127,0
0,65,121,0
0,77,121,6
0,62,86,0
0,62,117,10
0,58,119,2
0,36,109,0
0,42,85,0
0,69,44,0
0,34,113,0
0,74,117,0
0,42,49,8
0,69,60,0
0,55,64,30
0,60,89,8
0,55,80,4
0,60,85,0
0,64,93,0
0,60,111,4
0,64,111,0
0,36,119,4
0,42,101,0
0,70,81,0
0,36,95,0
0,64,123,0
0,76,123,6
0,70,53,30
0,62,111,16
0,65,119,6
0,55,90,0
0,42,70,4
0,69,45,0
0,77,119,2
0,69,64,4
0,64,107,0
0,67,111,2
0,38,127,4
0,42,105,0
0,54,125,0
0,60,99,0
0,79,111,2
0,64,89,0
0,60,107,0
0,42,66,0
0,69,56,0
0,36,103,0
0,60,111,0
0,72,111,0
0,69,113,2
0,72,109,12
0,69,55,10
0,74,95,12
0,57,68,12
0,77,101,10
0,60,86,2
0,69,117,8
0,65,111,2
0,36,117,2
0,42,95,0
0,70,89,0
0,41,101,0
0,65,103,0
0,60,105,0
0,57,101,0
0,81,117,2
0,65,111,14
0,70,63,26
0,42,75,30
0,69,44,0
0,69,63,8
0,55,60,12
0,64,107,0
0,38,125,10
0,42,106,0
0,54,127,0
0,40,103,0
0,60,86,0
0,64,92,2
0,55,92,0
0,60,101,0
0,67,113,0
0,76,115,2
0,79,113,4
0,64,105,12
0,36,92,40
0,42,81,0
0,69,67,0
0,42,91,12
0,69,65,0
0,53,78,0
0,65,111,0
0,62,113,0
0,77,111,2
0,57,93,2
0,57,90,6
0,65,97,0
0,62,92,2
0,36,117,4
0,42,103,0
0,70,73,0
0,38,105,0
0,74,111,6
0,62,95,2
0,70,75,44
0,42,87,38
0,69,61,0
0,69,64,58
0,38,125,44
0,42,105,0
0,54,126,0
0,60,97,0
0,38,103,0
0,42,89,54
0,42,105,14
0,69,65,0
0,69,67,0
0,53,72,4
0,58,90,2
0,62,92,4
0,62,85,4
0,58,95,0
0,53,93,0
0,36,117,2
0,42,101,0
0,70,77,0
0,34,101,0
0,65,107,2
0,70,63,20
0,58,113,14
0,62,111,4
0,74,111,4
0,42,72,10
0,69,55,0
0,53,82,2
0,69,51,62
0,62,103,0
0,65,117,10
0,77,117,6
0,38,125,6
0,42,107,0
0,54,126,0
0,58,89,0
0,62,111,2
0,65,97,6
0,74,111,0
0,58,115,0
0,36,113,4
0,42,83,0
0,69,58,0
0,34,107,0
0,42,85,40
0,69,63,0
0,55,75,0
0,60,92,0
0,60,111,10
0,55,87,0
0,64,115,2
0,60,90,2
0,64,82,4
0,76,115,0
0,36,115,4
0,42,105,0
0,70,85,0
0,36,101,0
0,64,111,2
0,70,48,46
0,65,111,0
0,77,111,6
0,62,109,2
0,42,81,10
0,69,65,0
0,55,69,0
0,69,50,58
0,60,82,4
0,67,105,0
0,79,105,0
0,64,107,4
0,38,125,8
0,42,105,0
0,54,125,0
0,64,78,2
0,64,109,0
0,60,107,6
0,76,109,0
0,42,87,0
0,69,44,0
0,36,93,0
0,42,83,64
0,69,56,0
0,53,64,0
0,57,85,2
0,60,93,0
0,60,115,4
0,57,113,4
0,72,115,2
0,36,119,2
0,42,103,0
0,70,87,0
0,53,92,0
0,60,89,0
0,57,95,0
0,64,78,0
0,29,95,0
0,64,109,2
0,70,69,38
0,42,89,36
0,69,53,0
0,69,64,64
0,38,126,50
0,42,105,0
0,54,126,0
0,53,67,4
0,65,119,2
0,57,92,0
0,36,109,2
0,42,81,0
0,69,49,0
0,29,89,0
0,69,117,4
0,42,87,4
0,69,54,0
0,55,52,0
0,58,86,2
0,72,119,0
0,63,107,4
0,55,92,2
0,63,115,2
0,58,117,2
0,36,115,2
0,42,105,0
0,70,73,0
0,31,109,0
0,70,77,8
0,74,99,8
0,42,95,12
0,69,64,0
0,65,74,2
0,69,63,12
0,57,58,6
0,38,127,4
0,42,101,0
0,54,126,0
0,63,105,0
0,60,101,0
0,57,107,0
0,53,93,0
0,33,103,0
0,60,73,2
0,69,107,2
0,63,90,14
0,42,85,8
0,67,71,4
0,38,121,10
0,46,103,0
0,69,63,0
0,38,119,0
0,69,59,0
0,65,62,4
0,53,66,2
0,53,89,6
0,58,107,2
0,62,103,0
0,36,121,2
0,42,101,0
0,70,81,0
0,34,109,0
0,58,107,6
0,62,101,20
0,70,66,36
0,58,121,16
0,53,85,10
0,42,83,2
0,69,60,0
0,62,123,2
0,74,123,6
0,69,64,68
0,62,109,2
0,58,101,4
0,65,119,4
0,38,126,6
0,42,106,0
0,54,126,0
0,77,119,0
0,62,117,2
0,65,97,2
0,36,113,4
0,42,77,0
0,69,58,0
0,34,115,0
0,74,117,0
0,58,117,2
0,42,73,2
0,69,56,0
0,55,57,2
0,60,99,10
0,60,109,2
0,64,119,4
0,55,71,0
0,60,93,2
0,76,119,0
0,36,117,2
0,42,103,0
0,70,79,0
0,36,95,0
0,64,93,0
0,64,107,4
0,70,71,38
0,65,117,6
0,77,117,6
0,62,109,0
0,42,77,14
0,69,60,0
0,69,61,42
0,55,89,2
0,67,111,2
0,64,107,0
0,79,111,4
0,38,126,8
0,42,105,0
0,54,125,0
0,60,81,4
0,60,115,4
0,72,115,6
0,69,119,6
0,60,107,2
0,42,83,6
0,69,65,0
0,36,99,0
0,72,99,8
0,74,93,4
0,42,58,10
0,69,54,0
0,76,87,0
0,57,64,2
0,57,99,4
0,69,109,0
0,65,109,0
0,77,109,0
0,69,115,2
0,61,64,2
0,65,121,2
0,81,115,2
0,36,119,8
0,42,103,0
0,70,77,0
0,37,107,0
0,65,91,2
0,69,99,10
0,70,73,40
0,42,77,26
0,69,63,0
0,69,54,0
0,57,71,8
0,64,81,0
0,64,109,0
0,76,113,2
0,67,109,6
0,67,109,4
0,38,126,2
0,42,103,0
0,54,125,0
0,33,99,0
0,79,109,2
0,64,97,4
0,61,99,0
0,67,93,0
0,36,101,38
0,42,83,0
0,69,54,0
0,77,90,8
0,42,70,6
0,69,59,0
0,76,89,0
0,57,85,4
0,62,81,6
0,62,117,2
0,74,93,0
0,57,93,2
0,65,115,0
0,62,95,0
0,65,107,0
0,36,117,2
0,42,99,0
0,70,65,0
0,38,95,0
0,65,99,0
0,77,115,0
0,70,71,36
0,42,83,32
0,69,60,0
0,69,63,14
0,57,93,16
0,38,127,4
0,42,103,0
0,54,126,0
0,36,97,0
0,46,97,26
0,69,59,0
0,77,115,0
0,62,87,2
0,65,107,2
0,77,107,6
0,67,101,0
0,79,101,0
0,69,53,4
0,79,99,0
0,55,51,8
0,59,85,8
0,62,93,14
0,65,111,2
0,55,87,2
0,36,119,0
0,42,97,0
0,70,68,0
0,59,99,0
0,65,97,0
0,35,101,0
0,81,99,0
0,62,95,2
0,69,109,0
0,81,109,6
0,67,101,48
0,70,71,2
0,79,109,0
0,79,101,2
0,42,63,14
0,69,61,0
0,77,103,0
0,65,109,4
0,77,109,0
0,69,53,32
0,55,82,6
0,38,127,8
0,42,105,0
0,54,127,0
0,62,109,12
0,36,117,6
0,42,67,0
0,69,61,0
0,35,93,0
0,74,109,0
0,74,109,2
0,59,83,4
0,62,81,0
0,42,69,8
0,69,50,0
0,55,54,4
0,59,66,8
0,62,73,6
0,65,111,18
0,36,117,2
0,42,105,0
0,70,71,0
0,35,93,0
0,77,107,0
0,65,93,2
0,77,111,2
0,70,69,22
0,55,83,26
0,42,72,6
0,69,63,0
0,69,49,32
0,55,73,4
0,59,105,4
0,38,125,2
0,42,105,0
0,54,127,0
0,81,101,0
0,69,117,6
0,81,117,6
0,59,75,20
0,62,76,14
0,62,86,10
0,42,72,4
0,69,64,0
0,35,95,0
0,65,85,8
0,69,54,4
0,55,66,2
0,58,93,8
0,60,97,22
0,36,115,16
0,42,103,0
0,70,77,0
0,65,109,0
0,36,95,0
0,84,105,0
0,58,90,0
0,72,119,0
0,60,89,2
0,84,119,4
0,70,75,32
0,42,89,4
0,69,61,0
0,69,56,0
0,55,83,8
0,38,125,44
0,42,99,0
0,54,127,0
0,58,117,10
0,60,113,4
0,42,93,6
0,65,107,0
0,55,69,6
0,36,105,2
0,46,99,0
0,69,64,0
0,36,83,0
0,55,86,0
0,69,59,14
0,58,72,16
0,60,45,14
0,58,77,2
0,64,89,10
0,36,109,6
0,49,91,0
0,70,71,0
0,36,81,0
0,64,93,4
0,65,103,6
0,69,115,62
0,36,86,42
0,72,115,16
0,74,103,40
0,69,90,12
0,60,71,12
0,64,86,22
0,69,72,10
0,36,113,4
0,42,105,0
0,70,85,0
0,53,59,0
0,57,77,0
0,29,89,0
0,60,82,4
0,64,93,10
0,72,78,6
0,76,123,12
0,72,78,4
0,70,77,8
0,42,60,32
0,69,45,0
0,76,127,6
0,69,64,62
0,76,127,2
0,37,109,6
0,42,105,0
0,53,48,4
0,77,116,30
0,36,109,24
0,42,73,0
0,69,44,0
0,29,90,0
0,60,85,2
0,64,81,0
0,57,87,0
0,76,116,32
0,69,60,8
0,36,101,44
0,42,105,0
0,70,81,0
0,29,93,0
0,70,53,32
0,72,114,8
0,42,62,14
0,69,45,0
0,69,64,62
0,42,105,44
0,54,125,0
0,72,109,60
0,69,117,28
0,42,62,2
0,69,56,0
0,42,65,4
0,69,55,0
0,69,127,22
0,62,54,4
0,36,113,14
0,42,105,0
0,70,89,0
0,34,115,0
0,53,83,6
0,57,99,0
0,62,87,0
0,65,83,2
0,69,89,24
0,70,63,2
0,42,70,4
0,69,44,0
0,65,100,0
0,69,63,64
0,37,115,46
0,42,105,0
0,65,123,2
0,62,99,12
0,36,103,14
0,42,81,0
0,69,67,0
0,34,90,0
0,57,43,6
0,62,71,2
0,65,105,22
0,69,65,12
0,36,105,44
0,42,99,0
0,70,73,0
0,34,101,0
0,70,75,0
0,42,51,36
0,69,61,0
0,69,64,58
0,42,99,44
0,54,126,0
0,72,127,30
0,42,55,32
0,69,65,0
0,74,127,24
0,42,65,4
0,69,67,0
0,60,61,0
0,64,72,22
0,69,82,32
0,53,52,6
0,76,127,2
0,57,77,4
0,36,115,6
0,42,105,0
0,70,77,0
0,29,86,0
0,60,77,2
0,72,81,4
0,64,92,0
0,70,63,58
0,76,115,14
0,42,72,14
0,69,55,0
0,69,51,58
0,76,123,34
0,37,119,10
0,42,105,0
0,77,121,46
0,36,95,12
0,42,66,0
0,69,58,0
0,29,90,0
0,79,127,38
0,69,63,4
0,36,111,50
0,42,95,0
0,70,85,0
0,29,78,0
0,60,47,10
0,70,48,46
0,42,65,28
0,69,65,0
0,77,110,6
0,64,77,0
0,69,50,4
0,53,42,32
0,42,101,12
0,54,125,0
0,72,105,10
0,76,115,4
0,57,70,6
0,69,45,4
0,42,62,2
0,69,44,0
0,72,98,4
0,42,62,4
0,69,56,0
0,74,110,4
0,62,62,2
0,65,72,8
0,69,80,24
0,36,115,18
0,42,101,0
0,70,87,0
0,62,89,0
0,57,90,0
0,53,75,0
0,34,107,0
0,70,69,64
0,42,79,4
0,69,53,0
0,69,64,64
0,37,119,50
0,42,103,0
0,65,111,32
0,36,103,2
0,42,69,0
0,69,49,0
0,34,89,0
0,67,111,0
0,69,54,32
0,36,107,6
0,42,103,0
0,70,73,0
0,34,95,0
0,69,111,0
0,70,77,32
0,42,75,12
0,69,64,0
0,67,93,2
0,36,103,8
0,69,63,0
0,65,80,10
0,42,97,44
0,54,126,0
0,62,75,56
0,42,97,2
0,46,103,12
0,69,63,0
0,69,59,28
0,62,56,14
0,55,49,20
0,58,68,6
0,67,87,4
0,67,78,2
0,36,115,2
0,42,95,0
0,70,81,0
0,62,76,0
0,31,87,0
0,79,127,0
0,67,97,6
0,70,107,4
0,66,72,8
0,70,66,4
0,67,60,6
0,42,58,8
0,69,60,0
0,79,123,0
0,69,75,18
0,69,64,4
0,62,85,6
0,70,64,2
0,37,119,4
0,42,95,0
0,79,127,0
0,69,94,6
0,70,64,4
0,55,65,2
0,36,105,4
0,42,67,0
0,69,58,0
0,31,82,0
0,81,127,0
0,67,75,10
0,72,72,0
0,42,55,4
0,69,56,0
0,82,127,0
0,62,78,6
0,66,89,10
0,66,66,6
0,36,107,4
0,42,93,0
0,70,79,0
0,58,36,0
0,30,101,0
0,74,69,0
0,62,82,0
0,66,71,6
0,70,109,4
0,73,88,4
0,70,71,2
0,74,64,6
0,42,69,2
0,69,60,0
0,81,123,0
0,76,72,0
0,69,61,2
0,62,80,32
0,78,94,2
0,42,105,6
0,54,125,0
0,79,127,0
0,79,86,6
0,66,82,8
0,81,96,8
0,42,60,2
0,69,65,0
0,30,99,0
0,74,112,0
0,55,57,2
0,82,92,0
0,69,54,2
0,62,62,0
0,65,80,14
0,86,86,4
0,58,73,2
0,36,117,0
0,42,95,0
0,70,77,0
0,29,86,0
0,77,120,0
0,62,77,2
0,65,55,0
0,65,76,0
0,70,109,2
0,70,73,32
0,42,69,40
0,69,63,0
0,69,54,4
0,55,71,6
0,62,82,6
0,37,123,4
0,42,105,0
0,29,81,0
0,79,121,0
0,84,72,4
0,64,53,6
0,60,90,2
0,64,95,0
0,64,82,0
0,60,83,2
0,55,78,0
0,58,86,0
0,36,113,4
0,42,72,0
0,69,54,0
0,28,76,0
0,76,121,0
0,42,77,60
0,69,59,0
0,67,85,40
0,42,91,12
0,70,65,0
0,70,71,34
0,70,113,30
0,42,58,2
0,69,60,0
0,69,63,64
0,55,60,34
0,42,103,12
0,54,126,0
0,42,41,56
0,58,68,22
0,67,82,2
0,72,127,0
0,36,69,6
0,42,65,0
0,69,59,0
0,28,78,0
0,69,53,12
0,62,56,8
0,77,66,16
0,74,75,2
0,70,73,0
0,65,73,0
0,82,127,0
0,53,80,0
0,58,97,2
0,62,83,2
0,36,111,2
0,42,103,0
0,70,68,0
0,34,95,0
0,70,93,0
0,70,71,24
0,42,65,34
0,69,61,0
0,69,53,36
0,62,77,38
0,37,117,12
0,42,103,0
0,82,127,20
0,36,81,4
0,42,57,0
0,69,61,0
0,34,97,0
0,70,113,2
0,42,67,20
0,69,50,0
0,84,127,14
0,36,109,6
0,42,99,0
0,70,71,0
0,34,80,0
0,65,62,6
0,70,69,34
0,53,71,24
0,82,127,0
0,42,38,2
0,69,63,0
0,62,71,6
0,69,49,0
0,72,86,12
0,70,90,0
0,76,80,0
0,77,127,16
0,42,105,2
0,54,127,0
0,36,78,0
0,60,92,0
0,55,93,0
0,64,93,0
0,60,87,8
0,64,101,2
0,67,99,0
0,79,127,32
0,42,63,4
0,69,64,0
0,81,127,14
0,69,54,8
0,60,64,6
0,69,76,14
0,77,78,0
0,72,78,0
0,36,117,22
0,42,103,0
0,70,77,0
0,29,83,0
0,60,89,2
0,57,87,0
0,65,89,2
0,65,78,4
0,69,97,8
0,70,75,44
0,79,123,20
0,42,75,14
0,69,61,0
0,77,119,10
0,69,56,62
0,37,121,44
0,42,107,0
0,60,67,8
0,36,103,2
0,42,60,0
0,69,64,0
0,29,86,0
0,65,77,4
0,42,72,10
0,69,59,0
0,74,78,32
0,67,88,0
0,70,96,2
0,69,89,14
0,62,87,0
0,58,93,0
0,36,109,2
0,42,101,0
0,70,71,0
0,29,97,0
0,69,117,0
0,58,101,2
0,62,89,0
0,55,82,0
0,65,80,2
0,67,86,10
0,67,99,2
0,42,101,10
0,65,86,2
0,65,103,6
0,36,113,8
0,62,92,2
0,62,95,4
0,46,103,12
0,36,89,0
0,60,103,0
0,65,107,4
0,64,80,4
0,58,87,0
0,60,83,0
0,55,77,0
0,72,56,2
0,70,64,0
0,65,32,6
0,67,99,8
0,62,66,12
0,42,91,0
0,65,89,2
0,67,87,54
0,36,113,4
