track,note,velocity,time
1,75,100,1344
1,75,0,147
1,75,98,45
1,75,0,656
1,72,95,16
1,72,0,74
1,70,86,22
1,70,0,75
1,68,93,21
1,70,96,432
1,68,0,7
1,68,98,89
1,70,0,1
1,68,0,83
1,68,96,12
1,68,0,762
1,65,105,54
1,68,86,96
1,68,0,16
1,65,0,410
1,65,99,54
1,63,96,144
1,65,0,4
1,68,98,428
1,63,0,11
1,68,0,119
1,72,96,14
1,72,0,125
1,75,98,19
1,75,0,558
1,75,89,18
1,75,0,94
1,72,87,50
1,72,0,79
1,70,96,17
1,70,0,256
1,75,106,117
1,75,0,161
1,75,99,31
1,75,0,595
1,72,86,29
1,72,0,71
1,70,85,25
1,70,0,70
1,68,92,26
1,70,92,528
1,68,0,7
1,68,95,89
1,70,0,21
1,68,0,91
1,68,90,32
1,68,0,762
1,65,98,6
1,65,0,107
1,68,86,37
1,68,0,406
1,68,95,26
1,68,0,121
1,63,95,23
1,63,0,422
1,68,96,10
1,68,0,271
1,72,87,17
1,72,0,84
1,75,93,12
1,70,85,576
1,75,0,4
1,72,87,92
1,70,0,15
1,72,0,97
1,68,82,32
1,68,0,1037
1,68,96,259
1,68,0,190
1,77,110,2
1,77,0,47
1,77,98,16
1,77,0,75
1,75,105,21
1,75,0,80
1,73,97,16
1,75,110,150
1,73,0,27
1,75,0,135
1,77,99,30
1,77,0,116
1,75,117,28
1,72,103,353
1,75,0,20
1,72,0,96
1,75,98,28
1,75,0,399
1,72,105,33
1,72,0,126
1,70,106,18
1,70,0,704
1,75,121,16
1,75,0,80
1,74,117,15
1,79,108,518
1,74,0,27
1,77,108,69
1,79,0,11
1,77,0,92
1,75,106,41
1,75,0,291
1,75,108,119
1,75,0,221
1,75,96,19
1,72,94,528
1,75,0,3
1,72,0,68
1,70,90,25
1,70,0,70
1,68,95,26
1,70,100,528
1,68,0,4
1,68,100,92
1,70,0,6
1,68,0,91
1,68,91,47
1,68,0,757
1,65,105,11
1,68,89,96
1,68,0,11
1,65,0,424
1,68,86,45
1,68,0,66
1,65,103,30
1,65,0,75
1,63,100,21
1,68,99,384
1,63,0,17
1,68,0,139
1,72,96,36
1,72,0,170
1,75,95,22
1,70,80,384
1,75,0,5
1,70,0,262
1,72,85,21
1,72,0,89
1,68,88,7
1,68,0,155
1,75,114,437
1,75,0,157
1,75,106,35
1,75,0,541
1,72,92,2
1,72,0,81
1,70,96,15
1,70,0,84
1,68,86,12
1,68,0,522
1,70,100,6
1,68,100,96
1,70,0,6
1,68,0,82
1,68,91,8
1,68,0,777
1,65,98,39
1,68,98,96
1,68,0,11
1,65,0,419
1,65,108,50
1,65,0,175
1,63,103,17
1,68,102,384
1,63,0,19
1,68,0,139
1,72,96,34
1,72,0,165
1,75,90,27
1,75,0,394
1,75,95,38
1,75,0,93
1,72,98,3
1,72,0,130
1,70,102,14
1,70,0,1336
1,75,114,8
1,75,0,257
1,75,96,31
1,72,93,576
1,75,0,5
1,72,0,71
1,70,98,20
1,70,0,84
1,68,78,12
1,70,95,480
1,68,0,30
1,70,0,77
1,68,100,37
1,68,0,112
1,68,88,32
1,68,0,756
1,65,98,12
1,65,0,125
1,68,81,19
1,68,0,412
1,68,94,20
1,63,98,144
1,68,0,23
1,63,0,386
1,68,98,23
1,68,0,166
1,72,95,26
1,72,0,184
1,75,92,8
1,70,80,384
1,75,0,14
1,70,0,170
1,72,87,8
1,72,0,116
1,68,86,28
1,68,0,479
1,68,102,164
1,73,91,192
1,77,105,0
1,68,0,16
1,73,0,62
1,77,0,0
1,73,82,32
1,77,85,0
1,73,0,72
1,77,0,9
1,72,91,15
1,75,96,0
1,75,0,67
1,72,0,15
1,70,98,14
1,73,109,0
1,73,0,26
1,72,95,5
1,75,80,0
1,70,0,19
1,75,0,103
1,72,0,10
1,73,95,12
1,77,98,0
1,73,0,169
1,77,0,0
1,68,74,23
1,72,99,0
1,75,102,0
1,75,0,13
1,72,0,27
1,72,114,15
1,68,0,6
1,72,0,39
1,75,110,1
1,75,0,450
1,72,110,30
1,70,112,144
1,72,0,9
1,75,124,615
1,70,0,1
1,75,0,120
1,74,117,23
1,79,114,492
1,74,0,9
1,79,0,122
1,77,112,13
1,75,112,96
1,77,0,6
1,75,0,343
1,75,124,68
1,75,0,162
1,75,106,30
1,72,98,443
1,75,0,25
1,72,0,82
1,70,103,37
1,68,100,96
1,70,0,11
1,68,0,582
1,70,100,31
1,70,0,71
1,68,100,25
1,68,0,89
1,68,91,7
1,68,0,736
1,65,106,32
1,68,102,96
1,68,0,11
1,65,0,414
1,65,105,7
1,65,0,189
1,63,106,3
1,63,0,398
1,68,102,34
1,68,0,158
1,72,94,34
1,72,0,180
1,75,102,12
1,70,91,384
1,75,0,7
1,70,0,250
1,72,95,31
1,72,0,89
1,68,108,7
1,68,0,1270
1,68,71,6266
1,68,0,125
1,77,114,19
1,77,0,148
1,77,99,44
1,77,0,79
1,75,100,17
1,75,0,80
1,73,99,16
1,75,114,207
1,73,0,15
1,75,0,137
1,77,102,40
1,75,121,96
1,77,0,6
1,75,0,252
1,72,112,38
1,75,106,96
1,75,0,20
1,72,0,410
1,72,112,50
1,72,0,139
1,70,119,5
1,70,0,716
1,75,124,4
1,75,0,79
1,74,119,17
1,79,117,615
1,74,0,25
1,79,0,37
1,77,103,34
1,75,119,48
1,77,0,14
1,75,0,428
1,75,127,39
1,72,106,199
1,75,0,24
1,72,0,102
1,70,105,18
1,68,100,96
1,70,0,2
1,70,108,526
1,68,0,8
1,70,0,100
1,68,105,36
1,68,0,93
1,68,89,3
1,68,0,771
1,65,112,45
1,68,95,96
1,68,0,20
1,65,0,400
1,68,96,60
1,68,0,80
1,65,105,16
1,65,0,84
1,63,106,12
1,68,102,384
1,63,0,4
1,68,0,162
1,72,96,26
1,72,0,184
1,75,99,8
1,70,106,384
1,75,0,10
1,70,0,166
1,72,117,16
1,68,121,72
1,72,0,3
1,68,0,257
1,68,127,56
1,63,127,103
1,68,0,0
1,63,0,270
1,68,114,26
1,72,105,144
1,68,0,4
1,72,0,143
1,75,120,93
1,70,119,38
1,72,119,240
1,70,0,19
1,68,119,39
1,72,0,3
1,75,0,16
1,68,0,433
2,44,85,1536
2,44,0,343
2,39,90,41
2,39,0,338
2,44,92,46
2,44,0,357
2,46,88,27
2,46,0,148
2,48,103,44
2,48,0,171
2,49,89,21
2,49,0,361
2,44,91,23
2,44,0,355
2,49,84,29
2,49,0,347
2,44,74,37
2,44,0,315
2,44,102,69
2,44,0,348
2,39,99,36
2,39,0,338
2,44,99,46
2,44,0,379
2,48,105,5
2,48,0,329
2,51,81,55
2,51,0,370
2,46,84,14
2,46,0,342
2,39,102,42
2,39,0,383
2,41,98,1
2,41,0,157
2,43,95,35
2,43,0,166
2,44,98,26
2,44,0,375
2,39,89,9
2,39,0,366
2,44,96,18
2,44,0,374
2,46,94,10
2,46,0,139
2,48,102,53
2,48,0,174
2,49,93,18
2,49,0,379
2,44,94,5
2,44,0,366
2,49,75,18
2,49,0,356
2,44,80,28
2,44,0,156
2,49,83,36
2,49,0,165
2,44,97,27
2,44,0,373
2,48,87,11
2,48,0,346
2,51,93,38
2,39,97,384
2,39,0,5
2,51,0,343
2,44,98,36
2,44,0,374
2,39,96,10
2,39,0,369
2,44,95,15
2,44,0,356
2,46,101,28
2,46,0,142
2,48,103,50
2,48,0,165
2,49,123,27
2,49,0,347
2,44,111,37
2,44,0,361
2,49,101,23
2,49,0,379
2,44,95,5
2,44,0,161
2,49,86,31
2,49,0,175
2,44,101,17
2,44,0,326
2,39,102,58
2,39,0,364
2,44,100,20
2,44,0,378
2,39,101,6
2,39,0,172
2,44,107,20
2,44,0,175
2,51,101,17
2,51,0,357
2,46,92,27
2,46,0,321
2,46,105,63
2,46,0,333
2,46,100,51
2,46,0,314
2,51,107,70
2,51,0,351
2,39,104,33
2,39,0,375
2,51,112,9
2,51,0,347
2,39,105,37
2,39,0,328
2,44,111,56
2,44,0,365
2,39,106,19
2,39,0,356
2,44,101,28
2,44,0,343
2,46,108,41
2,46,0,161
2,48,108,31
2,48,0,143
2,49,97,49
2,44,92,384
2,49,0,3
2,44,0,366
2,49,87,15
2,49,0,352
2,44,93,32
2,44,0,157
2,49,90,35
2,49,0,165
2,44,99,27
2,44,0,379
2,48,105,5
2,48,0,352
2,51,86,32
2,51,0,347
2,51,96,37
2,51,0,352
2,44,107,32
2,44,0,352
2,39,107,32
2,39,0,361
2,37,103,23
2,37,0,364
2,39,101,20
2,39,0,146
2,39,107,46
2,39,0,106
2,44,85,86
2,44,0,343
2,39,90,41
2,39,0,338
2,44,92,46
2,44,0,357
2,46,88,27
2,46,0,148
2,48,103,44
2,48,0,171
2,49,89,21
2,49,0,361
2,44,91,23
2,44,0,355
2,49,84,29
2,49,0,347
2,44,74,37
2,44,0,315
2,44,102,69
2,44,0,348
2,39,99,36
2,39,0,338
2,44,99,46
2,44,0,379
2,48,105,5
2,48,0,329
2,51,81,55
2,51,0,370
2,46,84,14
2,46,0,342
2,39,102,42
2,39,0,383
2,41,98,1
2,41,0,157
2,43,95,35
2,43,0,166
2,44,98,26
2,44,0,375
2,39,89,9
2,39,0,366
2,44,96,18
2,44,0,374
2,46,94,10
2,46,0,139
2,48,102,53
2,48,0,174
2,49,93,18
2,49,0,379
2,44,94,5
2,44,0,366
2,49,75,18
2,49,0,356
2,44,80,28
2,44,0,156
2,49,83,36
2,49,0,165
2,44,97,27
2,44,0,373
2,48,87,11
2,48,0,346
2,51,93,38
2,39,97,384
2,39,0,5
2,51,0,343
2,44,98,36
2,44,0,374
2,39,96,10
2,39,0,369
2,44,95,15
2,44,0,356
2,46,101,28
2,46,0,142
2,48,103,50
2,48,0,165
2,49,123,27
2,49,0,347
2,44,111,37
2,44,0,361
2,49,101,23
2,49,0,379
2,44,95,5
2,44,0,161
2,49,86,31
2,49,0,175
2,44,101,17
2,44,0,326
2,39,102,58
2,39,0,364
2,44,100,20
2,44,0,378
2,39,101,6
2,39,0,172
2,44,107,20
2,44,0,175
2,51,101,17
2,51,0,357
2,46,92,27
2,46,0,321
2,46,105,63
2,46,0,333
2,46,100,51
2,46,0,314
2,51,107,70
2,51,0,351
2,39,104,33
2,39,0,375
2,51,112,9
2,51,0,347
2,39,105,37
2,39,0,328
2,44,111,56
2,44,0,365
2,39,106,19
2,39,0,356
2,44,101,28
2,44,0,343
2,46,108,41
2,46,0,161
2,48,108,31
2,48,0,143
2,49,97,49
2,44,92,384
2,49,0,3
2,44,0,366
2,49,87,15
2,49,0,352
2,44,93,32
2,44,0,157
2,49,90,35
2,49,0,165
2,44,99,27
2,44,0,379
2,48,105,5
2,48,0,352
2,51,86,32
2,51,0,347
2,51,96,37
2,51,0,352
2,44,107,32
2,44,0,352
2,39,107,32
2,39,0,361
2,37,103,23
2,37,0,364
2,39,101,20
2,39,0,146
2,39,107,46
2,39,0,106
2,49,127,86
2,49,0,352
2,49,107,32
2,49,0,320
2,49,116,64
2,49,0,360
2,44,114,24
2,44,0,173
2,41,106,19
2,41,0,170
2,44,119,22
2,44,0,360
2,39,104,24
2,39,0,366
2,44,110,18
2,44,0,351
2,48,107,33
2,48,0,183
2,48,112,9
2,48,0,156
2,44,106,36
2,44,0,357
2,39,103,27
2,39,0,188
2,44,96,4
2,44,0,170
2,39,110,22
2,39,0,369
2,43,103,15
2,43,0,170
2,46,108,22
2,46,0,152
2,44,113,40
2,44,0,360
2,39,110,24
2,39,0,379
2,49,101,5
2,49,0,156
2,44,108,36
2,44,0,184
2,51,116,8
2,51,0,175
2,39,112,17
2,39,0,175
2,49,123,17
2,49,0,347
2,44,111,37
2,44,0,361
2,49,101,23
2,49,0,379
2,44,95,5
2,44,0,161
2,49,86,31
2,49,0,175
2,44,101,17
2,44,0,326
2,39,102,58
2,39,0,364
2,44,100,20
2,44,0,378
2,39,101,6
2,39,0,172
2,44,107,20
2,44,0,175
2,51,101,17
2,51,0,357
2,46,92,27
2,46,0,321
2,46,105,63
2,46,0,333
2,46,100,51
2,46,0,314
2,51,107,70
2,51,0,351
2,39,104,33
2,39,0,375
2,51,112,9
2,51,0,347
2,39,105,37
2,39,0,328
2,44,111,56
2,44,0,365
2,39,106,19
2,39,0,356
2,44,101,28
2,44,0,343
2,46,108,41
2,46,0,161
2,48,108,31
2,48,0,143
2,49,97,49
2,44,92,384
2,49,0,3
2,44,0,366
2,49,87,15
2,49,0,352
2,44,93,32
2,44,0,157
2,49,90,35
2,49,0,165
2,44,99,27
2,44,0,379
2,48,105,5
2,48,0,352
2,51,86,32
2,51,0,347
2,51,96,37
2,51,0,352
2,53,127,32
2,53,0,340
2,51,127,44
2,51,0,359
2,50,121,25
2,50,0,367
2,49,118,17
2,49,0,352
2,48,112,32
2,48,0,371
2,39,116,13
2,39,0,368
2,51,115,16
2,51,0,354
2,39,103,30
2,39,0,361
2,44,119,23
2,44,0,747
2,32,110,21
2,32,0,586
3,56,117,1536
3,56,0,90
3,60,111,6
3,63,110,96
3,63,0,3
3,60,0,77
3,68,99,16
3,68,0,83
3,56,119,13
3,60,116,96
3,56,0,22
3,63,113,74
3,63,0,18
3,60,0,66
3,68,108,12
3,68,0,95
3,56,114,1
3,60,118,96
3,56,0,12
3,63,119,84
3,63,0,8
3,60,0,81
3,66,109,7
3,56,117,96
3,66,0,8
3,60,117,88
3,56,0,22
3,63,120,74
3,63,0,8
3,60,0,72
3,66,108,16
3,56,116,96
3,66,0,6
3,61,113,90
3,56,0,3
3,61,0,87
3,65,118,6
3,68,104,96
3,68,0,2
3,65,0,87
3,56,116,7
3,61,113,96
3,56,0,12
3,61,0,84
3,65,117,0
3,65,0,95
3,68,113,1
3,68,0,93
3,56,117,3
3,61,113,96
3,56,0,3
3,61,0,92
3,65,116,1
3,65,0,94
3,68,117,2
3,68,0,94
3,56,116,2
3,61,113,96
3,56,0,7
3,65,119,89
3,61,0,3
3,65,0,91
3,68,113,2
3,56,116,96
3,56,0,1
3,60,115,95
3,68,0,3
3,63,101,93
3,63,0,11
3,60,0,63
3,68,111,22
3,68,0,94
3,56,111,2
3,60,118,96
3,56,0,17
3,63,119,79
3,63,0,17
3,60,0,63
3,68,116,16
3,68,0,93
3,56,119,3
3,60,117,96
3,56,0,13
3,63,122,83
3,63,0,9
3,60,0,76
3,68,118,11
3,68,0,88
3,56,122,8
3,60,121,96
3,56,0,17
3,63,120,79
3,63,0,17
3,60,0,72
3,68,118,7
3,68,0,93
3,55,108,3
3,55,0,72
3,58,116,24
3,61,113,96
3,61,0,3
3,63,121,93
3,58,0,22
3,63,0,72
3,55,121,2
3,58,115,96
3,58,0,27
3,61,115,69
3,55,0,13
3,61,0,81
3,63,119,2
3,55,122,96
3,63,0,2
3,58,114,94
3,58,0,2
3,55,0,94
3,61,113,0
3,61,0,89
3,63,118,7
3,55,121,96
3,63,0,12
3,58,115,84
3,58,0,2
3,55,0,93
3,61,114,1
3,61,0,80
3,63,118,16
3,63,0,93
3,56,122,3
3,60,116,96
3,56,0,12
3,63,117,84
3,63,0,8
3,60,0,81
3,68,117,7
3,68,0,94
3,56,121,2
3,60,118,96
3,56,0,17
3,63,119,79
3,63,0,4
3,60,0,85
3,68,117,7
3,68,0,88
3,56,122,8
3,60,120,96
3,56,0,3
3,63,123,93
3,63,0,4
3,60,0,76
3,66,114,16
3,56,124,96
3,66,0,1
3,60,118,95
3,56,0,26
3,63,121,70
3,63,0,22
3,60,0,62
3,66,112,12
3,66,0,88
3,56,123,8
3,61,109,96
3,65,117,96
3,68,115,96
3,68,0,21
3,65,0,17
3,56,0,52
3,61,0,5
3,56,122,1
3,61,112,96
3,65,118,96
3,68,113,96
3,68,0,35
3,65,0,10
3,56,0,40
3,56,121,11
3,61,0,18
3,61,113,78
3,65,118,96
3,68,117,96
3,68,0,34
3,65,0,15
3,56,0,41
3,56,121,6
3,61,0,7
3,61,110,89
3,65,114,96
3,68,115,96
