track,note,velocity,time
1,47,97,8
1,47,0,256
1,52,67,0
1,52,0,128
1,40,82,0
1,40,0,360
1,47,97,8
1,47,0,256
1,52,67,0
1,52,0,128
1,45,82,0
1,45,0,360
1,52,92,8
1,52,0,256
1,57,64,0
1,57,0,128
1,40,80,0
1,40,0,360
1,54,92,8
1,54,0,256
1,59,64,0
1,59,0,128
1,47,80,0
1,47,0,360
1,52,68,8
1,52,0,752
1,73,87,16136
1,79,127,16
1,73,0,176
1,79,0,4
1,78,46,172
1,78,0,12
1,73,92,4
1,78,110,16
1,78,0,252
1,73,0,8
1,71,68,100
1,76,100,16
1,76,0,104
1,71,0,28
1,67,83,220
1,67,0,4
1,67,83,4
1,73,99,8
1,79,127,24
1,67,0,116
1,73,0,8
1,79,0,20
1,78,29,224
1,78,0,12
1,73,100,4
1,78,127,16
1,78,0,176
1,73,0,0
1,76,127,56
1,71,74,24
1,76,0,48
1,71,0,4
1,73,90,44
1,78,105,24
1,78,0,288
1,73,0,8
1,76,127,48
1,71,73,16
1,71,0,100
1,76,0,8
1,68,95,628
1,74,107,16
1,74,0,192
1,68,0,0
1,68,96,192
1,73,85,16
1,68,0,244
1,73,0,16
1,68,82,116
1,71,66,16
1,68,0,160
1,71,0,16
1,76,115,232
1,71,39,16
1,76,0,128
1,71,0,8
1,74,85,224
1,68,30,24
1,68,0,160
1,74,0,0
1,73,114,184
1,68,45,16
1,73,0,288
1,72,34,8
1,72,0,4
1,68,0,52
1,71,60,8
1,71,0,136
1,74,107,640
1,74,0,20
1,73,105,48
1,73,0,276
1,71,81,60
1,71,0,200
1,72,119,2504
1,72,0,288
1,76,127,8
1,76,0,104
1,75,127,296
1,75,0,176
1,71,102,64
1,71,0,88
1,73,127,40
1,73,0,196
1,76,127,8
1,76,0,160
1,71,104,240
1,71,0,12
1,73,127,4
1,73,0,216
1,76,127,24
1,76,0,64
1,79,127,32
1,79,0,88
1,78,127,8
1,78,0,104
1,79,127,8
1,79,0,88
1,78,127,8
1,78,0,88
1,79,127,8
1,79,0,88
1,78,127,8
1,78,0,88
1,79,127,16
1,79,0,104
1,76,127,24
1,76,0,96
1,78,127,32
1,78,0,88
1,76,127,32
1,76,0,128
1,73,125,0
1,73,0,100
1,71,127,12
1,69,127,136
1,71,0,104
1,69,0,12
1,71,127,12
1,71,0,116
1,71,111,20
1,71,0,100
1,71,127,28
1,71,0,112
1,73,120,16
1,73,0,92
1,71,113,12
1,71,0,80
1,76,113,64
1,76,0,144
1,79,127,0
1,79,0,164
1,76,127,8
1,76,0,112
1,73,92,40
1,73,0,188
1,71,127,44
1,71,0,40
1,68,67,24
1,68,0,168
1,71,127,24
1,71,0,88
1,76,127,8
1,71,127,16
1,71,0,388
1,76,0,16
1,76,127,104
1,71,127,0
1,76,0,288
1,71,0,28
1,71,127,68
1,76,127,0
1,76,0,240
1,71,0,16
1,73,127,24
1,76,127,8
1,76,0,144
1,73,0,8
1,73,127,8
1,76,127,8
1,76,0,124
1,73,0,4
1,73,127,232
1,78,127,16
1,78,0,172
1,73,0,24
1,73,123,20
1,76,127,8
1,76,0,100
1,73,0,0
1,73,127,8
1,76,127,16
1,76,0,56
1,73,0,0
1,73,127,48
1,76,127,8
1,73,0,104
1,76,0,8
1,73,127,32
1,78,127,16
1,78,0,160
1,73,0,48
1,73,127,32
1,76,127,24
1,85,13,64
1,85,0,4
1,76,0,24
1,73,0,12
1,71,127,248
1,71,0,128
1,73,127,8
1,73,0,212
1,76,127,12
1,76,0,96
1,78,127,56
1,78,0,192
1,78,127,8
1,78,0,192
1,76,127,64
1,76,0,88
1,73,127,56
1,73,0,192
1,73,127,8
1,73,0,192
1,71,127,64
1,71,0,88
1,66,127,56
1,66,0,192
1,66,127,8
1,66,0,192
1,64,127,64
1,64,0,384
1,68,127,16
1,68,0,124
1,71,127,20
1,71,0,68
1,73,123,36
1,73,0,112
1,74,127,8
1,74,0,272
1,74,127,8
1,74,0,320
1,73,127,40
1,73,0,192
1,71,127,72
1,71,0,104
1,73,119,24
1,73,0,84
1,76,127,36
1,76,0,68
1,78,127,44
1,78,0,60
1,73,127,8
1,79,127,16
1,73,0,112
1,79,0,32
1,73,127,16
1,78,127,8
1,78,0,120
1,73,0,12
1,71,90,188
1,76,127,16
1,76,0,188
1,71,0,12
1,76,105,56
1,76,0,4
1,73,127,108
1,73,0,224
1,68,127,24
1,71,127,8
1,76,127,16
1,71,0,48
1,68,0,8
1,76,0,8
1,71,120,40
1,71,0,84
1,74,127,68
1,76,127,16
1,74,0,192
1,71,80,24
1,76,0,24
1,71,0,64
1,73,100,56
1,76,113,16
1,73,0,216
1,76,0,4
1,71,69,20
1,71,0,88
1,74,111,48
1,76,127,8
1,74,0,208
1,76,0,32
1,71,69,0
1,71,0,84
1,73,100,56
1,76,113,16
1,76,0,220
1,73,0,0
1,71,69,20
1,71,0,92
1,74,111,44
1,76,127,8
1,74,0,208
1,76,0,32
1,71,69,0
1,71,0,84
1,73,100,32
1,76,113,16
1,73,0,216
1,76,0,4
1,50,127,36
1,50,0,16
1,40,127,0
1,40,0,136
1,50,127,896
1,50,0,16
1,40,127,0
1,40,0,136
1,50,127,896
1,50,0,16
1,40,127,8
1,40,0,136
1,50,127,896
1,50,0,16
1,40,127,0
1,40,0,136
1,50,127,896
1,50,0,16
1,40,127,0
1,40,0,136
1,50,127,896
1,50,0,16
1,40,127,0
1,40,0,136
1,67,127,4856
1,61,87,16
1,67,0,224
1,61,0,12
1,64,99,20
1,64,0,12
1,61,119,116
1,66,127,8
1,61,0,296
1,66,0,8
1,64,127,88
1,61,81,8
1,64,0,136
1,66,43,0
1,66,0,4
1,61,0,16
1,61,125,196
1,67,127,16
1,67,0,204
1,61,0,20
1,61,127,144
1,67,127,16
1,67,0,180
1,61,0,16
1,64,127,60
1,64,0,12
1,61,127,108
1,66,127,16
1,66,0,328
1,61,0,0
1,61,119,24
1,64,127,16
1,64,0,96
1,61,0,0
1,67,127,656
1,67,0,16
1,66,127,120
1,66,0,308
1,64,125,52
1,64,0,140
1,66,127,284
1,66,0,28
1,66,127,104
1,66,0,200
1,64,127,48
1,64,0,76
1,61,105,52
1,61,0,364
1,64,100,12
1,64,0,92
1,69,127,692
1,63,41,16
1,69,0,168
1,63,0,24
1,62,44,56
1,62,0,16
1,68,76,88
1,63,127,8
1,68,0,4
1,68,127,12
1,68,0,184
1,66,127,208
1,66,0,120
1,63,0,12
1,61,127,252
1,67,127,16
1,67,0,144
1,61,0,16
1,61,105,184
1,66,127,16
1,66,0,204
1,64,127,44
1,61,0,108
1,61,111,28
1,64,0,336
1,64,127,40
1,61,0,72
1,64,0,12
1,59,127,32
1,64,127,8
1,59,0,16
1,64,0,8
1,64,59,8
1,59,127,8
1,64,0,8
1,64,82,8
1,64,0,88
1,59,0,0
1,64,29,16
1,59,113,0
1,64,0,8
1,64,73,16
1,59,0,76
1,59,127,20
1,64,0,4
1,64,96,20
1,59,0,80
1,64,0,8
1,59,99,16
1,59,0,100
1,59,127,20
1,64,97,16
1,64,0,84
1,59,0,4
1,64,90,32
1,59,127,0
1,59,0,104
1,59,115,16
1,59,0,104
1,64,0,20
1,59,105,4
1,64,50,8
1,64,0,88
1,59,0,4
1,59,123,20
1,64,83,8
1,59,0,104
1,59,127,8
1,64,0,8
1,64,80,16
1,59,0,84
1,64,0,8
1,59,119,20
1,64,68,16
1,59,0,96
1,64,0,8
1,59,127,8
1,64,77,24
1,59,0,188
1,59,100,20
1,64,0,8
1,64,74,8
1,59,0,128
1,64,0,8
1,59,115,8
1,64,85,8
1,59,0,240
1,59,102,8
1,64,0,8
1,64,66,24
1,59,0,92
1,59,100,12
1,64,0,4
1,64,88,12
1,59,0,232
1,59,85,24
1,64,0,104
1,59,0,8
1,64,31,16
1,59,87,0
1,64,0,4
1,64,54,20
1,59,0,220
1,59,97,12
1,64,0,4
1,64,74,12
1,59,0,40
1,64,0,16
1,71,127,408
1,71,0,240
1,71,127,176
1,71,0,688
1,71,127,16
1,71,0,308
1,72,97,28
1,67,127,0
1,72,0,144
1,67,0,104
1,64,82,24
1,64,0,200
1,52,127,12
1,52,0,16
1,40,127,8
1,40,0,268
1,59,127,108
1,76,127,16
1,71,73,16
1,59,0,544
1,71,0,16
1,71,110,48
1,76,0,112
1,71,0,16
1,59,90,0
1,73,45,0
1,59,0,192
1,73,0,144
1,71,121,48
1,76,127,16
1,71,0,192
1,71,114,48
1,71,0,120
1,73,67,8
1,76,0,224
1,73,0,16
1,76,127,16
1,71,125,400
1,71,0,136
1,73,80,0
1,76,0,192
1,73,0,36
1,73,105,516
1,79,127,32
1,73,0,280
1,79,0,44
1,72,62,36
1,78,127,8
1,72,0,4
1,78,0,220
1,76,127,544
1,76,0,604
1,76,127,8
1,71,113,16
1,71,0,332
1,71,127,4
1,76,0,88
1,71,0,8
1,73,127,40
1,73,0,204
1,76,127,36
1,76,0,60
1,73,127,8
1,79,127,16
1,79,0,148
1,73,0,4
1,73,127,8
1,78,127,8
1,73,0,144
1,78,0,24
1,72,127,32
1,72,0,4
1,71,127,116
1,76,127,16
1,76,0,184
1,76,127,48
1,76,0,60
1,71,0,4
1,68,127,64
1,73,127,16
1,68,0,152
1,73,0,16
1,71,127,8
1,76,127,16
1,76,0,140
1,71,0,20
1,71,127,64
1,71,0,120
1,73,127,0
1,73,0,148
1,70,127,116
1,75,127,16
1,70,0,4
1,75,0,4
1,71,127,0
1,76,127,0
1,76,0,308
1,71,0,12
1,71,102,56
1,71,0,112
1,73,127,16
1,73,0,232
1,73,127,152
1,73,0,228
1,72,80,28
1,72,0,4
1,73,127,80
1,73,0,212
1,71,127,28
1,71,0,100
1,73,125,28
1,73,0,184
1,71,127,72
1,71,0,56
1,73,127,8
1,79,127,8
1,79,0,56
1,73,0,0
1,78,127,136
1,73,119,8
1,78,0,164
1,76,127,76
1,76,0,72
1,73,0,68
1,78,127,4
1,73,57,8
1,78,0,148
1,73,0,12
1,72,30,8
1,72,0,8
1,76,127,48
1,71,121,16
1,76,0,124
1,71,0,24
1,68,127,364
1,71,127,16
1,71,0,108
1,68,0,4
1,71,127,0
1,68,102,8
1,71,0,12
1,68,0,68
1,67,107,32
1,70,127,16
1,67,0,232
1,70,0,8
1,67,74,0
1,70,113,16
1,67,0,88
1,70,0,24
1,71,127,16
1,68,127,16
1,71,0,64
1,68,0,8
1,70,121,24
1,67,96,0
1,70,0,12
1,71,127,4
1,67,0,4
1,68,114,4
1,68,0,96
1,71,0,0
1,71,127,16
1,68,76,8
1,71,0,96
1,68,0,16
1,67,74,0
1,70,127,8
1,67,0,72
1,70,0,8
1,71,127,40
1,68,72,8
1,68,0,108
1,71,0,0
1,68,72,12
1,71,119,8
1,71,0,112
1,68,0,0
1,64,76,0
1,64,0,120
1,68,80,8
1,71,107,8
1,68,0,96
1,71,0,8
1,71,100,12
1,68,74,8
1,67,34,116
1,71,0,4
1,68,0,8
1,70,67,4
1,67,0,120
1,71,97,0
1,70,0,8
1,68,67,0
1,71,0,100
1,68,0,16
1,68,59,4
1,71,83,8
1,71,0,120
1,68,0,0
1,70,68,0
1,67,49,8
1,67,0,116
1,70,0,0
1,68,59,0
1,71,77,16
1,71,0,112
1,68,0,0
1,71,43,4
1,68,52,8
1,71,0,40
1,67,54,84
1,68,0,4
1,70,74,0
1,70,0,212
1,67,0,0
1,64,82,4616
1,64,0,1040
1,67,88,888
1,67,0,220
1,64,64,36
1,64,0,140
1,67,105,748
1,61,38,8
1,67,0,220
1,64,67,36
1,61,0,80
1,64,0,20
1,64,73,268
1,61,29,8
1,61,0,472
1,64,0,104
1,76,105,720
1,64,44,264
1,64,0,472
1,64,44,16
1,76,0,360
1,74,106,56
1,68,12,24
1,74,0,300
1,73,74,44
1,68,0,200
1,73,0,24
1,70,81,40
1,70,0,120
1,71,53,8
1,64,0,104
1,76,106,136
1,71,0,380
1,76,0,4
1,74,60,520
1,74,0,348
1,73,83,36
1,71,52,272
1,73,0,136
1,71,0,56
1,71,87,312
1,71,0,288
1,67,43,104
1,64,41,376
1,67,0,8
1,64,0,320
1,62,127,2968
1,68,127,8
1,71,127,16
1,76,127,16
1,62,0,528
1,68,0,16
1,71,0,32
1,76,0,32
2,40,88,2256
2,40,0,280
2,44,95,0
2,44,0,244
2,40,88,104
2,40,0,244
2,44,88,104
2,44,0,280
2,40,88,104
2,40,0,280
2,44,95,104
2,44,0,244
2,40,88,0
2,40,0,244
2,44,88,104
2,44,0,280
2,40,88,104
2,40,0,280
2,44,95,104
2,44,0,244
2,40,88,0
2,40,0,244
2,44,88,104
2,44,0,280
2,40,88,104
2,40,0,280
2,44,95,0
2,44,0,244
2,40,88,104
2,40,0,244
2,44,88,104
2,44,0,280
2,45,88,104
2,45,0,252
2,45,88,132
2,45,0,288
2,40,90,96
2,40,0,384
2,45,88,0
2,45,0,208
2,45,95,176
2,45,0,248
2,45,90,136
2,45,0,288
2,40,88,96
2,40,0,384
2,45,88,0
2,45,0,200
2,40,88,184
2,40,0,280
2,44,95,0
2,44,0,244
2,40,88,104
2,40,0,244
2,44,88,104
2,44,0,280
2,40,88,104
2,40,0,280
2,44,95,0
2,44,0,244
2,40,88,0
2,40,0,244
2,44,88,104
2,44,0,280
2,47,88,104
2,47,0,252
2,47,88,132
2,47,0,288
2,42,90,96
2,42,0,384
2,47,88,0
2,47,0,208
2,45,95,176
2,45,0,248
2,45,90,136
2,45,0,288
2,40,88,96
2,40,0,384
2,45,88,0
2,45,0,200
2,40,88,184
2,40,0,280
2,44,95,0
2,44,0,244
2,40,88,104
2,40,0,244
2,44,88,104
2,44,0,280
2,40,88,104
2,40,0,280
2,37,95,0
2,37,0,244
2,35,88,104
2,35,0,244
2,35,88,104
2,35,0,280
2,40,118,104
2,40,0,304
2,40,102,744
2,40,0,104
2,44,102,0
2,44,0,376
2,40,118,8
2,40,0,304
2,40,102,744
2,40,0,104
2,35,102,0
2,35,0,376
2,40,118,8
2,40,0,304
2,40,102,744
2,40,0,104
2,44,102,0
2,44,0,376
2,40,118,8
2,40,0,304
2,40,102,744
2,40,0,104
2,35,102,0
2,35,0,376
2,40,118,8
2,40,0,304
2,40,102,744
2,40,0,104
2,44,102,0
2,44,0,376
2,40,118,8
2,40,0,304
2,40,88,2768
2,40,0,304
2,44,88,80
2,44,0,304
2,40,88,80
2,40,0,304
2,44,88,80
2,44,0,304
2,45,88,80
2,45,0,252
2,45,88,132
2,45,0,288
2,40,90,96
2,40,0,384
2,45,88,0
2,45,0,208
2,45,95,176
2,45,0,248
2,45,90,136
2,45,0,288
2,40,88,96
2,40,0,384
2,45,88,0
2,45,0,200
2,40,88,184
2,40,0,280
2,44,95,104
2,44,0,280
2,47,88,104
2,47,0,280
2,44,88,104
2,44,0,280
2,40,88,104
2,40,0,280
2,44,95,104
2,44,0,280
2,47,88,104
2,47,0,280
2,44,88,104
2,44,0,280
2,47,88,104
2,47,0,252
2,47,88,132
2,47,0,288
2,42,90,96
2,42,0,384
2,47,88,0
2,47,0,208
2,45,95,176
2,45,0,248
2,45,90,136
2,45,0,288
2,40,88,96
2,40,0,384
2,45,88,0
2,45,0,200
2,40,88,184
2,40,0,280
2,44,95,104
2,44,0,280
2,47,88,104
2,47,0,280
2,44,88,104
2,44,0,280
2,40,88,104
2,40,0,280
2,37,95,104
2,37,0,280
2,35,88,104
2,35,0,280
2,35,88,104
2,35,0,280
2,40,88,104
2,40,0,280
2,44,95,104
2,44,0,280
2,47,88,104
2,47,0,280
2,44,88,104
2,44,0,280
2,40,88,104
2,40,0,280
2,44,95,104
2,44,0,280
2,47,88,104
2,47,0,280
2,44,88,104
2,44,0,280
2,40,88,104
2,40,0,280
2,44,95,104
2,44,0,280
2,47,88,104
2,47,0,280
2,44,88,104
2,44,0,280
2,40,88,104
2,40,0,280
2,37,95,104
2,37,0,280
2,35,88,104
2,35,0,280
2,40,88,104
2,40,0,280
