track,note,velocity,time
3,60,64,0
3,69,64,0
3,63,64,16
3,72,64,0
3,61,64,16
3,70,64,0
3,61,64,16
3,70,64,0
3,60,64,16
3,69,64,0
3,58,64,16
3,67,64,0
3,60,64,16
3,69,64,0
3,60,64,16
3,69,64,0
3,63,64,16
3,72,64,0
3,61,64,16
3,70,64,0
3,66,64,16
3,70,64,0
3,73,64,0
3,68,64,16
3,72,64,0
3,75,64,0
3,69,64,16
3,72,64,0
3,77,64,0
3,72,64,16
3,69,64,16
3,67,64,16
3,65,64,16
3,63,64,0
3,55,64,16
3,58,64,16
3,63,64,16
3,72,64,16
3,70,64,16
3,69,64,16
3,69,64,0
3,60,64,16
3,66,64,16
3,67,64,16
3,69,64,16
3,62,64,16
3,60,64,16
3,58,64,16
3,62,64,16
3,70,64,16
3,69,64,16
3,67,64,16
3,67,64,16
3,65,64,16
3,67,64,16
3,69,64,16
3,57,64,208
3,60,64,16
3,65,64,16
3,69,64,0
3,60,64,16
3,67,64,16
3,65,64,16
3,62,64,16
3,69,64,16
3,69,64,16
3,69,64,16
3,61,64,16
3,69,64,0
3,69,64,16
3,69,64,16
3,69,64,16
3,67,64,16
3,67,64,16
3,65,64,16
3,67,64,16
3,69,64,12
3,62,64,16
3,65,64,16
3,60,64,16
3,65,64,0
3,69,64,0
3,60,64,16
3,65,64,0
3,67,64,0
3,62,64,112
3,59,64,16
3,69,64,0
3,67,64,16
3,65,64,16
3,62,64,16
3,67,64,0
3,62,64,112
3,64,64,16
3,65,64,16
3,67,64,16
3,69,64,16
3,65,64,16
3,65,64,16
3,67,64,16
3,67,64,16
3,69,64,16
3,69,64,16
3,65,64,16
3,69,64,12
3,62,64,16
3,65,64,0
3,70,64,16
3,67,64,16
3,70,64,0
3,65,64,16
3,62,64,16
3,58,64,16
3,64,64,16
3,64,64,16
3,65,64,16
3,65,64,16
3,67,64,4
3,67,64,16
3,60,64,16
3,61,64,0
3,70,64,0
3,60,64,16
3,69,64,0
3,57,64,16
3,65,64,0
3,60,64,16
3,69,64,0
3,57,64,16
3,60,64,0
3,67,64,0
3,65,64,44
3,62,64,16
3,65,64,0
3,67,64,16
3,61,64,16
3,67,64,0
3,69,64,16
3,60,64,16
3,69,64,0
3,65,64,16
3,69,64,16
3,60,64,16
3,67,64,0
3,65,64,16
3,59,64,16
3,67,64,0
3,62,64,16
3,67,64,16
3,67,64,16
3,65,64,16
3,58,64,16
3,67,64,0
3,65,64,16
3,65,64,16
3,65,64,16
3,65,64,8
3,69,64,0
3,63,64,16
3,72,64,0
3,61,64,16
3,70,64,0
3,61,64,16
3,70,64,0
3,60,64,16
3,69,64,0
3,58,64,16
3,67,64,0
3,60,64,16
3,69,64,0
3,63,64,16
3,55,64,16
3,58,64,16
3,63,64,16
3,72,64,16
3,70,64,16
3,69,64,16
3,69,64,16
3,60,64,16
3,66,64,16
3,67,64,16
3,69,64,8
3,62,64,16
3,60,64,16
3,58,64,16
3,62,64,16
3,70,64,16
3,69,64,16
3,67,64,16
3,67,64,16
3,65,64,16
3,67,64,16
3,69,64,16
3,57,64,208
3,60,64,16
3,65,64,16
3,69,64,0
3,60,64,16
3,67,64,16
3,65,64,16
3,62,64,16
3,69,64,16
3,69,64,16
3,69,64,16
3,61,64,16
3,69,64,0
3,69,64,16
3,69,64,16
3,64,64,16
3,69,64,0
3,67,64,16
3,62,64,16
3,67,64,0
3,65,64,16
3,67,64,16
3,69,64,16
3,62,64,16
3,65,64,16
3,60,64,16
3,65,64,0
3,69,64,0
3,60,64,16
3,65,64,0
3,67,64,0
3,69,64,112
3,67,64,16
3,65,64,16
3,62,64,16
3,67,64,0
3,62,64,112
3,64,64,16
3,65,64,16
3,67,64,16
3,69,64,12
3,65,64,16
3,65,64,16
3,67,64,16
3,67,64,12
3,69,64,16
3,64,64,16
3,69,64,16
3,65,64,16
3,69,64,16
3,62,64,16
3,65,64,0
3,70,64,16
3,67,64,4
3,70,64,0
3,65,64,16
3,62,64,16
3,64,64,208
3,64,64,16
3,65,64,16
3,62,64,4
3,65,64,0
3,67,64,16
3,67,64,16
3,60,64,16
3,61,64,0
3,70,64,0
3,60,64,16
3,69,64,0
3,57,64,16
3,65,64,0
3,60,64,16
3,69,64,0
3,57,64,16
3,60,64,0
3,67,64,0
3,60,64,16
3,67,64,0
3,65,64,16
3,62,64,16
3,65,64,0
3,67,64,16
3,67,64,16
3,69,64,16
3,69,64,16
3,65,64,16
3,67,64,16
3,65,64,16
3,67,64,16
3,62,64,16
3,67,64,16
3,67,64,16
3,65,64,16
3,67,64,16
3,65,64,16
3,65,64,16
3,65,64,16
3,65,64,16
3,69,64,0
3,65,64,880
3,65,64,112
3,64,64,112
3,64,64,112
3,64,64,112
3,62,64,112
3,64,64,16
3,59,64,16
3,62,64,16
3,59,64,16
3,64,64,16
3,64,64,112
3,64,64,64
3,62,64,160
3,64,64,32
3,64,64,112
3,64,64,304
3,64,64,16
3,61,64,16
3,66,64,0
3,61,64,112
3,69,64,0
3,64,64,112
3,71,64,0
3,69,64,16
3,64,64,16
3,69,64,0
3,69,64,440
3,78,64,0
3,69,64,80
3,73,64,0
3,69,64,112
3,73,64,0
3,69,64,112
3,76,64,0
3,71,64,16
3,73,64,16
3,71,64,16
3,69,64,16
3,60,64,16
3,60,64,112
3,65,64,0
3,67,64,0
3,60,64,112
3,65,64,0
3,67,64,0
3,62,64,112
3,59,64,16
3,65,64,0
3,67,64,0
3,67,64,112
3,67,64,16
3,60,64,16
3,64,64,1456
3,67,64,0
3,72,64,0
3,67,64,16
3,69,64,16
3,64,64,16
3,67,64,0
3,72,64,0
3,67,64,16
3,69,64,16
3,65,64,16
3,72,64,0
3,67,64,16
3,69,64,16
3,64,64,4
3,67,64,0
3,72,64,0
3,72,64,164
3,72,64,16
3,65,64,16
3,70,64,0
3,74,64,0
3,72,64,16
3,72,64,16
3,64,64,16
3,67,64,0
3,72,64,0
3,65,64,112
3,70,64,0
3,74,64,0
3,72,64,16
3,67,64,16
3,72,64,0
3,76,64,0
3,61,64,192
3,64,64,0
3,69,64,0
3,61,64,16
3,64,64,0
3,69,64,0
3,61,64,16
3,64,64,0
3,71,64,0
3,61,64,16
3,64,64,0
3,71,64,0
3,64,64,16
3,73,64,0
3,64,64,16
3,73,64,0
3,64,64,16
3,69,64,0
3,66,64,16
3,69,64,0
3,73,64,0
3,66,64,208
3,69,64,0
3,74,64,0
3,66,64,4
3,69,64,0
3,74,64,0
3,62,64,0
3,64,64,0
3,68,64,0
3,62,64,16
3,64,64,0
3,68,64,0
3,62,64,16
3,66,64,0
3,69,64,0
3,62,64,16
3,66,64,0
3,69,64,0
3,62,64,16
3,68,64,0
3,71,64,0
3,62,64,16
3,68,64,0
3,71,64,0
3,64,64,16
3,64,64,16
3,74,64,0
3,64,64,16
3,73,64,0
3,69,64,16
3,66,64,4
3,74,64,0
3,64,64,16
3,73,64,0
3,61,64,92
3,66,64,0
3,69,64,0
3,61,64,16
3,66,64,0
3,69,64,0
3,61,64,16
3,64,64,0
3,71,64,0
3,61,64,16
3,64,64,0
3,71,64,0
3,61,64,16
3,73,64,0
3,61,64,16
3,73,64,0
3,61,64,16
3,69,64,0
3,61,64,0
3,64,64,0
3,71,64,0
3,61,64,16
3,64,64,0
3,69,64,0
3,63,64,16
3,66,64,0
3,71,64,0
3,62,64,208
3,71,64,0
3,62,64,16
3,71,64,0
3,62,64,16
3,71,64,0
3,62,64,16
3,69,64,0
3,71,64,0
3,62,64,16
3,66,64,0
3,69,64,0
3,62,64,16
3,66,64,0
3,69,64,0
3,61,64,16
3,66,64,0
3,69,64,0
3,68,64,112
3,69,64,16
3,64,64,208
3,73,64,0
3,63,64,68
3,71,64,0
3,62,64,4
3,66,64,0
3,69,64,16
3,62,64,16
3,73,64,0
3,69,64,16
3,69,64,16
3,69,64,16
3,69,64,16
3,69,64,16
3,73,64,16
3,76,64,0
4,41,64,0
4,36,64,304
4,41,64,16
4,36,64,976
4,41,64,16
4,48,64,304
4,54,64,16
4,48,64,16
4,53,64,16
4,41,64,0
4,39,64,16
4,39,64,112
4,38,64,112
4,42,64,112
4,43,64,16
4,53,64,16
4,46,64,0
4,58,64,16
4,48,64,0
4,41,64,112
4,48,64,208
4,55,64,16
4,45,64,0
4,45,64,112
4,50,64,112
4,45,64,0
4,48,64,112
4,50,64,112
4,43,64,0
4,50,64,16
4,43,64,0
4,53,64,112
4,43,64,0
4,58,64,112
4,53,64,0
4,48,64,0
4,58,64,16
4,53,64,0
4,48,64,0
4,58,64,16
4,52,64,0
4,48,64,0
4,41,64,112
4,41,64,112
4,41,64,16
4,43,64,112
4,43,64,112
4,43,64,16
4,48,64,112
4,43,64,112
4,36,64,16
4,41,64,16
4,41,64,112
4,40,64,16
4,38,64,16
4,38,64,112
4,50,64,112
4,43,64,0
4,50,64,112
4,43,64,16
4,53,64,16
4,48,64,0
4,53,64,112
4,48,64,0
4,55,64,16
4,53,64,16
4,41,64,112
4,48,64,16
4,53,64,16
4,41,64,16
4,39,64,304
4,39,64,112
4,38,64,112
4,42,64,112
4,43,64,16
4,48,64,112
4,41,64,16
4,48,64,400
4,55,64,16
4,45,64,0
4,45,64,112
4,50,64,112
4,48,64,112
4,50,64,112
4,43,64,0
4,50,64,16
4,43,64,0
4,53,64,112
4,43,64,0
4,58,64,112
4,53,64,0
4,48,64,0
4,58,64,112
4,52,64,0
4,48,64,0
4,41,64,112
4,41,64,304
4,43,64,16
4,43,64,112
4,43,64,16
4,43,64,112
4,48,64,16
4,43,64,112
4,36,64,16
4,41,64,112
4,41,64,112
4,40,64,16
4,38,64,16
4,38,64,16
4,50,64,496
4,43,64,0
4,59,64,112
4,50,64,0
4,43,64,16
4,58,64,112
4,53,64,0
4,48,64,0
4,58,64,16
4,53,64,0
4,48,64,0
4,55,64,112
4,53,64,16
4,40,64,1264
4,47,64,112
4,40,64,112
4,47,64,112
4,40,64,112
4,47,64,112
4,40,64,112
4,40,64,112
4,42,64,16
4,45,64,16
4,42,64,16
4,45,64,16
4,45,64,112
4,44,64,112
4,44,64,112
4,42,64,112
4,42,64,112
4,40,64,112
4,40,64,112
4,43,64,112
4,50,64,112
4,43,64,112
4,50,64,112
4,43,64,112
4,50,64,112
4,43,64,112
4,43,64,112
4,48,64,112
4,48,64,112
4,48,64,112
4,48,64,112
4,48,64,112
4,48,64,112
4,48,64,112
4,48,64,112
4,46,64,112
4,45,64,0
4,45,64,16
4,52,64,16
4,47,64,112
4,59,64,16
4,54,64,0
4,50,64,0
4,59,64,16
4,54,64,0
4,50,64,0
4,47,64,16
4,45,64,16
4,44,64,16
4,42,64,16
4,40,64,16
4,40,64,112
4,52,64,16
4,45,64,112
4,45,64,208
4,45,64,16
4,44,64,16
4,42,64,16
4,54,64,16
4,53,64,16
4,52,64,16
4,57,64,16
4,47,64,0
4,57,64,112
4,47,64,0
4,47,64,16
4,40,64,16
4,40,64,112
4,47,64,16
4,42,64,112
4,54,64,16
4,53,64,16
4,52,64,16
4,57,64,16
4,47,64,0
4,47,64,112
4,40,64,16
4,52,64,112
4,45,64,16
4,57,64,16
4,59,64,16
4,61,64,16
4,57,64,16
4,57,64,16
4,52,64,0
5,72,68,136
5,70,45,0
5,70,71,0
5,69,43,0
5,67,63,0
5,69,69,0
5,69,65,0
5,65,41,0
5,69,63,0
5,65,31,0
5,72,63,0
5,70,65,0
5,73,61,0
5,75,79,0
5,69,30,0
5,77,65,0
5,72,57,0
5,67,53,192
5,63,33,0
5,60,26,0
5,64,41,96
5,66,55,0
5,67,33,96
5,62,51,0
5,58,35,0
5,60,33,96
5,69,59,96
5,65,41,0
5,62,53,96
5,67,35,0
5,59,31,0
5,61,43,96
5,62,68,0
5,60,59,0
5,59,59,0
5,59,69,0
5,48,29,1248
5,60,51,0
5,60,51,96
5,65,61,192
5,67,65,0
5,69,72,0
5,65,61,0
5,62,55,0
5,69,72,0
5,70,45,0
5,65,35,0
5,60,75,0
5,64,65,192
5,65,68,0
5,67,65,0
5,70,79,192
5,69,66,0
5,65,49,0
5,70,79,96
5,69,63,0
5,67,78,0
5,62,61,0
5,65,68,0
5,62,49,0
5,61,74,96
5,60,78,0
5,59,61,0
5,58,75,96
5,69,59,384
5,72,72,0
5,70,39,0
5,70,74,96
5,69,61,0
5,67,37,0
5,69,57,0
5,67,53,0
5,60,30,0
5,64,55,1536
5,66,37,0
5,62,57,0
5,58,28,0
5,67,61,0
5,60,35,96
5,69,27,96
5,65,22,0
5,62,37,96
5,67,22,0
5,59,31,0
5,61,55,96
5,62,71,0
5,60,47,0
5,55,53,0
5,59,55,0
5,55,74,0
5,59,72,0
5,48,66,1248
5,60,49,0
5,60,61,192
5,65,49,192
5,67,69,0
5,69,57,0
5,62,43,0
5,70,65,0
5,60,57,0
5,64,61,192
5,65,57,0
5,67,57,0
5,62,39,0
5,70,69,0
5,69,61,0
5,65,41,0
5,60,55,96
5,70,65,0
5,69,55,0
5,65,43,0
5,62,33,0
5,67,74,0
5,65,74,0
5,62,55,0
5,61,68,96
5,60,77,0
5,59,65,0
5,58,69,0
5,57,14,0
5,60,47,96
5,60,90,11040
5,67,95,384
5,72,93,384
5,76,90,0
5,69,90,0
5,71,74,0
5,66,75,0
5,68,71,0
5,64,66,0
5,66,74,0
5,69,77,0
5,65,82,0
5,64,77,0
5,63,71,0
5,64,68,0
5,66,61,0
5,65,77,0
5,64,69,0
5,63,69,0
5,64,61,0
5,61,28,1536
5,57,30,0
5,45,51,0
5,73,29,0
5,69,29,0
5,64,26,0
6,64,77,1512
6,69,82,0
6,71,82,0
6,64,82,352
6,69,79,0
6,71,79,0
6,68,74,352
6,71,78,0
6,64,55,0
6,68,75,288
6,71,77,0
6,64,57,0
6,69,79,288
6,64,77,0
6,71,78,0
6,69,79,352
6,64,43,0
6,71,41,0
6,68,75,352
6,64,68,0
6,71,77,0
6,68,82,352
6,71,82,0
6,64,74,0
6,69,90,288
6,64,75,0
6,64,75,352
6,69,93,0
6,64,75,288
6,68,71,0
6,68,82,352
6,64,79,0
6,66,87,288
6,64,77,0
6,66,85,352
6,64,78,0
6,64,82,352
6,61,87,0
6,64,85,288
6,61,90,0
6,69,90,288
6,72,85,0
6,65,72,0
6,69,93,352
6,72,87,0
6,65,77,0
6,71,87,288
6,69,85,0
6,65,77,0
6,65,90,288
6,69,93,0
6,71,95,0
6,72,93,352
6,69,95,0
6,65,82,0
6,69,95,352
6,65,78,0
6,72,65,0
6,71,69,0
6,69,90,352
6,71,87,0
6,65,78,0
6,71,87,352
6,69,87,0
6,65,79,0
6,70,95,352
6,65,82,0
6,72,85,288
6,65,77,0
6,70,85,288
6,65,78,0
6,72,82,352
6,65,77,0
6,70,87,288
6,65,78,0
7,44,109,0
7,36,112,0
7,44,103,96
7,36,92,96
7,44,103,0
7,36,106,0
7,44,95,192
7,46,76,0
7,44,79,0
7,36,108,0
7,44,85,192
7,36,95,96
7,44,87,0
7,36,100,0
7,44,87,192
7,46,71,0
7,44,76,0
7,36,106,0
7,44,93,192
7,36,98,96
7,44,86,0
7,36,106,0
7,44,93,192
7,46,86,0
7,42,98,0
7,36,112,0
7,44,101,96
7,36,108,0
7,40,108,0
7,52,101,192
7,36,108,0
7,44,101,96
7,55,101,0
7,36,87,0
7,46,93,0
7,36,76,96
7,44,87,0
7,36,95,0
7,44,101,0
7,37,92,0
7,44,93,192
7,36,87,0
7,44,101,0
7,37,98,0
7,36,82,96
7,44,93,0
7,36,100,0
7,44,98,0
7,37,98,0
7,46,93,0
7,44,86,0
7,36,100,0
7,44,101,96
7,37,98,0
7,36,82,96
7,44,95,0
7,36,98,0
7,44,101,96
7,37,92,0
7,44,101,96
7,36,100,0
7,44,98,0
7,37,98,0
7,36,76,96
7,44,95,0
7,36,90,0
7,44,101,96
7,37,92,0
7,46,109,0
7,44,95,0
7,36,103,0
7,44,98,0
7,37,98,0
7,36,87,0
