track,note,velocity,time
0,57,115,1340
0,69,105,0
0,69,105,0
0,57,90,0
0,60,90,0
0,51,103,0
0,75,94,0
0,66,87,0
0,69,96,0
0,63,87,0
0,60,91,0
0,57,88,0
0,44,95,0
0,56,110,8
0,68,100,0
0,68,100,0
0,55,113,8
0,67,103,0
0,67,103,0
0,54,113,8
0,66,103,0
0,66,103,0
0,66,122,0
0,72,122,0
0,75,122,0
0,66,121,0
0,72,121,0
0,75,121,0
0,51,92,0
0,42,115,0
0,57,72,228
0,60,72,0
0,66,70,0
0,63,69,0
0,75,71,0
0,69,76,0
0,44,93,0
0,51,91,24
0,44,92,0
0,54,110,0
0,66,100,0
0,66,100,0
0,51,96,0
0,42,115,0
0,53,112,8
0,65,102,0
0,65,102,0
0,52,115,8
0,64,105,0
0,64,105,0
0,63,65,0
0,60,69,0
0,57,74,0
0,66,49,0
0,75,67,0
0,69,72,0
0,44,90,0
0,51,104,8
0,63,94,0
0,63,94,0
0,51,103,0
0,44,100,0
0,51,96,4
0,42,115,0
0,75,72,8
0,69,67,0
0,66,66,0
0,60,66,0
0,63,65,0
0,57,67,0
0,44,100,0
0,51,98,8
0,63,88,0
0,63,88,0
0,51,96,0
0,44,104,0
0,50,110,8
0,62,100,0
0,62,100,0
0,49,115,8
0,61,105,0
0,61,105,0
0,48,115,6
0,60,105,0
0,60,105,0
0,51,96,0
0,42,115,0
0,57,75,252
0,66,53,0
0,60,77,0
0,63,67,0
0,75,70,0
0,69,74,0
0,44,95,0
0,51,91,24
0,44,95,0
0,48,106,2
0,60,96,0
0,60,96,0
0,51,98,0
0,42,115,0
0,47,113,8
0,59,103,0
0,59,103,0
0,46,113,8
0,58,103,0
0,58,103,0
0,60,82,0
0,57,84,0
0,63,73,0
0,66,64,0
0,75,74,0
0,69,80,0
0,44,93,0
0,45,124,8
0,57,114,0
0,57,114,0
0,51,91,0
0,44,102,0
0,51,96,24
0,42,115,0
0,60,74,8
0,57,76,0
0,63,75,0
0,66,61,0
0,75,63,0
0,69,82,0
0,44,93,0
0,45,106,8
0,57,96,0
0,57,96,0
0,51,92,0
0,44,100,0
0,44,113,8
0,56,103,0
0,56,103,0
0,43,120,8
0,55,110,0
0,55,110,0
0,42,117,8
0,54,107,0
0,54,107,0
0,51,100,0
0,42,115,0
0,54,127,24
0,57,127,0
0,63,127,0
0,67,127,0
0,72,127,0
0,63,126,0
0,67,126,0
0,72,126,0
0,63,82,0
0,60,85,0
0,57,87,0
0,75,79,0
0,69,82,0
0,66,75,0
0,36,106,0
0,42,115,0
0,57,127,8
0,60,120,0
0,66,113,0
0,70,113,0
0,75,113,0
0,66,112,0
0,70,112,0
0,75,112,0
0,75,82,0
0,57,84,0
0,60,80,0
0,63,82,0
0,66,85,0
0,69,78,0
0,36,108,0
0,42,115,0
0,57,120,136
0,72,110,0
0,69,110,0
0,60,100,0
0,63,100,0
0,78,122,0
0,78,121,0
0,51,102,0
0,63,91,0
0,66,94,0
0,75,86,0
0,60,71,0
0,78,91,0
0,69,100,0
0,36,103,0
0,44,102,0
0,56,106,8
0,71,96,0
0,68,96,0
0,55,110,8
0,70,100,0
0,67,100,0
0,54,117,6
0,69,107,0
0,66,107,0
0,69,122,0
0,75,122,0
0,69,121,0
0,75,121,0
0,51,105,0
0,42,115,0
0,60,80,138
0,63,81,0
0,75,73,0
0,66,77,0
0,69,84,0
0,78,89,0
0,44,93,0
0,51,91,24
0,44,95,0
0,54,104,8
0,69,94,0
0,66,94,0
0,51,91,0
0,42,115,0
0,53,106,4
0,68,96,0
0,65,96,0
0,52,112,8
0,67,102,0
0,64,102,0
0,60,85,0
0,63,79,0
0,75,82,0
0,66,77,0
0,78,82,0
0,69,86,0
0,44,92,0
0,51,102,8
0,66,92,0
0,63,92,0
0,51,91,0
0,44,102,0
0,51,94,2
0,42,115,0
0,63,75,8
0,60,80,0
0,66,77,0
0,75,76,0
0,69,85,0
0,78,82,0
0,44,95,0
0,51,98,8
0,66,88,0
0,63,88,0
0,51,94,0
0,44,95,0
0,50,113,8
0,65,103,0
0,62,103,0
0,49,113,8
0,64,103,0
0,61,103,0
0,48,104,2
0,63,94,0
0,60,94,0
0,51,94,0
0,42,115,0
0,63,84,222
0,75,81,0
0,60,87,0
0,78,87,0
0,66,84,0
0,69,87,0
0,44,92,0
0,51,92,24
0,44,100,0
0,48,99,0
0,63,89,0
0,60,89,0
0,51,94,0
0,42,115,0
0,47,112,8
0,62,102,0
0,59,102,0
0,46,120,8
0,61,110,0
0,58,110,0
0,60,89,0
0,66,87,0
0,75,83,0
0,63,86,0
0,78,91,0
0,69,89,0
0,44,92,0
0,45,122,8
0,60,112,0
0,57,112,0
0,51,92,0
0,44,95,0
0,48,113,4
0,60,103,0
0,60,103,0
0,48,124,0
0,72,120,0
0,72,119,0
0,51,100,0
0,40,120,0
0,51,117,8
0,63,107,0
0,63,107,0
0,51,110,0
0,75,111,0
0,75,110,0
0,51,114,0
0,40,127,0
0,42,115,0
0,52,127,8
0,64,117,0
0,64,117,0
0,52,124,0
0,76,122,0
0,76,121,0
0,52,119,0
0,76,100,0
0,74,97,0
0,78,100,0
0,36,108,0
0,42,115,0
0,40,127,520
0,52,119,0
0,52,119,0
0,40,127,0
0,64,127,0
0,64,127,0
0,40,117,0
0,64,80,0
0,36,108,0
0,52,124,8
0,54,122,8
0,57,120,8
0,60,127,8
0,33,119,0
0,66,77,0
0,61,80,0
0,57,85,0
0,69,82,0
0,64,91,0
0,36,105,0
0,44,95,0
0,61,127,8
0,63,110,8
0,37,105,0
0,42,115,0
0,64,123,252
0,66,124,0
0,69,117,0
0,73,126,0
0,69,114,0
0,61,114,0
0,73,110,0
0,76,115,0
0,81,115,0
0,73,109,0
0,76,114,0
0,81,114,0
0,63,114,0
0,40,122,0
0,44,93,0
0,40,100,24
0,44,92,0
0,52,120,136
0,54,109,8
0,42,98,0
0,42,115,0
0,37,120,0
0,57,120,8
0,44,90,0
0,60,126,8
0,45,100,0
0,66,77,0
0,57,81,0
0,64,84,0
0,61,77,0
0,69,82,0
0,44,100,0
0,61,122,8
0,60,124,0
0,63,114,0
0,42,96,0
0,42,115,0
0,61,127,8
0,63,112,0
0,66,77,0
0,69,80,0
0,61,78,0
0,64,87,0
0,57,84,0
0,44,100,0
0,40,98,8
0,44,104,0
0,52,118,252
0,54,115,4
0,37,100,0
0,42,115,0
0,37,120,0
0,57,120,8
0,44,95,0
0,59,127,8
0,38,103,0
0,57,87,0
0,66,77,0
0,60,82,0
0,64,85,0
0,69,84,0
0,44,95,0
0,60,127,8
0,63,105,8
0,42,102,0
0,42,115,0
0,64,126,152
0,66,119,0
0,69,125,0
0,72,120,0
0,69,110,0
0,60,110,0
0,72,118,0
0,76,115,0
0,81,115,0
0,72,117,0
0,76,114,0
0,81,114,0
0,63,110,0
0,40,127,0
0,44,93,0
0,45,100,24
0,44,102,0
0,52,117,136
0,54,113,8
0,47,96,0
0,42,115,0
0,37,120,0
0,57,113,8
0,44,93,0
0,59,122,8
0,50,100,0
0,66,76,0
0,64,82,0
0,60,84,0
0,69,84,0
0,57,85,0
0,44,100,0
0,60,127,8
0,59,122,8
0,63,110,0
0,47,98,0
0,42,115,0
0,60,127,8
0,63,105,0
0,69,84,0
0,57,87,0
0,66,77,0
0,60,80,0
0,64,82,0
0,44,97,0
0,45,100,8
0,44,95,0
0,52,124,252
0,54,117,8
0,42,94,0
0,42,115,0
0,37,120,0
0,57,120,8
0,44,93,0
0,58,126,8
0,40,103,0
0,66,76,0
0,69,87,0
0,57,87,0
0,59,82,0
0,62,82,0
0,44,102,0
0,59,127,8
0,63,107,8
0,44,100,0
0,42,115,0
0,62,123,252
0,66,121,0
0,69,117,0
0,71,126,0
0,69,110,0
0,59,110,0
0,74,111,0
0,78,110,0
0,81,111,0
0,74,110,0
0,78,109,0
0,81,110,0
0,63,110,0
0,40,122,0
0,44,93,0
0,47,91,24
0,44,95,0
0,52,124,136
0,54,118,8
0,49,100,0
0,42,115,0
0,37,120,0
0,57,120,8
0,44,92,0
0,58,124,8
0,52,96,0
0,66,75,0
0,59,82,0
0,62,82,0
0,69,84,0
0,57,81,0
0,44,102,0
0,59,124,8
0,58,126,4
0,63,107,0
0,49,98,0
0,42,115,0
0,59,127,8
0,63,110,0
0,62,79,0
0,66,74,0
0,69,81,0
0,57,81,0
0,59,78,0
0,44,95,0
0,47,96,8
0,44,95,0
0,52,122,252
0,54,127,8
0,44,103,0
0,42,115,0
0,37,120,0
0,44,92,0
0,57,127,24
0,59,102,0
0,69,106,0
0,63,114,0
0,35,107,0
0,59,84,0
0,57,89,0
0,63,84,0
0,44,100,0
0,42,115,8
0,57,127,24
0,58,90,0
0,69,97,0
0,63,119,0
0,34,114,0
0,57,87,0
0,62,89,0
0,58,81,0
0,44,92,0
0,44,95,124
0,40,127,8
0,45,120,264
0,45,125,0
0,57,122,0
0,57,110,0
0,45,110,0
0,33,124,0
0,57,122,0
0,57,121,0
0,63,117,0
0,33,110,0
0,45,95,0
0,61,68,0
0,57,81,0
0,36,107,0
0,44,104,0
0,45,117,222
0,45,123,0
0,57,124,0
0,57,107,0
0,45,107,0
0,33,127,0
0,57,120,0
0,57,119,0
0,63,123,0
0,33,110,0
0,45,96,0
0,57,80,0
0,61,75,0
0,36,105,0
0,44,104,0
0,52,122,24
0,54,122,8
0,40,127,0
0,57,124,8
0,60,127,8
0,33,119,0
0,66,77,0
0,61,80,0
0,57,85,0
0,69,82,0
0,64,91,0
0,36,105,0
0,44,95,0
0,61,127,8
0,63,110,8
0,37,105,0
0,42,115,0
0,64,126,252
0,66,123,0
0,69,121,0
0,73,119,0
0,69,114,0
0,61,114,0
0,73,110,0
0,76,115,0
0,81,115,0
0,73,109,0
0,76,114,0
0,81,114,0
0,63,114,0
0,40,122,0
0,44,93,0
0,40,100,24
0,44,92,0
0,52,120,136
0,54,109,8
0,45,100,0
0,42,98,0
0,42,115,0
0,37,120,0
0,57,120,8
0,44,90,0
0,60,126,8
0,45,100,0
0,66,77,0
0,57,81,0
0,64,84,0
0,61,77,0
0,69,82,0
0,44,100,0
0,61,122,8
0,60,124,0
0,63,114,0
0,42,96,0
0,42,115,0
0,61,127,8
0,63,112,0
0,66,77,0
0,69,80,0
0,61,78,0
0,64,87,0
0,57,84,0
0,44,100,0
0,40,98,8
0,44,104,0
0,52,118,8
0,54,115,4
0,37,100,0
0,42,115,0
0,37,120,0
0,57,120,8
0,44,95,0
0,59,127,8
0,38,103,0
0,57,87,0
0,66,77,0
0,60,82,0
0,64,85,0
0,69,84,0
0,44,95,0
0,60,127,8
0,63,105,8
0,42,102,0
0,42,115,0
0,64,119,152
0,66,119,0
0,69,119,0
0,72,119,0
0,69,110,0
0,60,110,0
0,72,118,0
0,76,115,0
0,81,115,0
0,72,117,0
0,76,114,0
0,81,114,0
0,63,110,0
0,40,127,0
0,44,93,0
0,45,100,24
0,44,102,0
0,52,117,136
0,54,113,8
0,45,95,0
0,47,96,0
0,42,115,0
0,37,120,0
0,57,113,8
0,44,93,0
0,59,122,8
0,50,100,0
0,66,76,0
0,64,82,0
0,60,84,0
0,69,84,0
0,57,85,0
0,44,100,0
0,60,127,8
0,59,122,8
0,63,110,0
0,47,98,0
0,42,115,0
0,60,127,8
0,63,105,0
0,69,84,0
0,57,87,0
0,66,77,0
0,60,80,0
0,64,82,0
0,44,97,0
0,45,100,8
0,44,95,0
0,52,124,252
0,54,117,8
0,42,94,0
0,42,115,0
0,37,120,0
0,57,120,8
0,44,93,0
0,58,126,8
0,40,103,0
0,66,76,0
0,69,87,0
0,57,87,0
0,59,82,0
0,62,82,0
0,44,102,0
0,59,127,8
0,63,107,8
0,44,100,0
0,42,115,0
0,62,117,252
0,66,124,0
0,69,123,0
0,71,124,0
0,69,110,0
0,59,110,0
0,74,111,0
0,78,110,0
0,81,111,0
0,74,110,0
0,78,109,0
0,81,110,0
0,63,110,0
0,40,122,0
0,44,93,0
0,47,91,24
0,44,95,0
0,52,124,136
0,54,118,8
0,49,100,0
0,42,115,0
0,37,120,0
0,57,120,8
0,44,92,0
0,58,124,8
0,52,96,0
0,66,75,0
0,59,82,0
0,62,82,0
0,69,84,0
0,57,81,0
0,44,102,0
0,59,124,8
0,58,126,4
0,63,107,0
0,49,98,0
0,42,115,0
0,59,127,8
0,63,110,0
0,62,79,0
0,66,74,0
0,69,81,0
0,57,81,0
0,59,78,0
0,44,95,0
0,47,96,8
0,44,95,0
0,52,122,252
0,54,127,8
0,44,103,0
0,42,115,0
0,37,120,0
0,44,92,0
0,57,127,24
0,59,102,0
0,69,106,0
0,63,114,0
0,35,107,0
0,59,84,0
0,57,89,0
0,63,84,0
0,44,100,0
0,42,115,8
0,57,127,24
0,58,90,0
0,69,97,0
0,63,119,0
0,34,114,0
0,57,87,0
0,62,89,0
0,58,81,0
0,44,92,0
0,44,95,124
0,40,119,252
0,40,127,8
0,45,120,264
0,45,124,0
0,57,126,0
0,57,110,0
0,45,110,0
0,33,124,0
0,63,117,0
0,33,110,0
0,45,95,0
0,61,68,0
0,57,81,0
0,36,107,0
0,44,104,0
0,45,117,222
0,45,126,0
0,57,123,0
0,57,107,0
0,45,107,0
0,33,127,0
0,63,123,0
0,33,110,0
0,45,96,0
0,57,80,0
0,61,75,0
0,36,105,0
0,44,104,0
0,57,127,24
0,69,113,0
0,69,112,0
0,40,119,0
0,57,127,8
0,69,127,0
0,69,126,0
0,40,127,0
0,64,127,136
0,64,107,0
0,61,100,0
0,76,95,0
0,33,120,0
0,73,113,0
0,76,122,0
0,73,112,0
0,76,121,0
0,33,114,0
0,57,93,0
0,61,84,0
0,55,93,0
0,45,93,0
0,36,105,0
0,44,95,0
0,57,126,136
0,65,110,0
0,61,100,0
0,69,91,0
0,65,97,0
0,69,120,0
0,65,96,0
0,69,119,0
0,40,127,0
0,42,115,0
0,63,126,200
0,67,100,0
0,63,107,0
0,75,91,0
0,37,117,0
0,72,113,0
0,75,122,0
0,72,112,0
0,75,121,0
0,37,114,0
0,61,75,0
0,57,88,0
0,55,86,0
0,49,90,0
0,44,92,0
0,57,126,136
0,64,102,0
0,61,100,0
0,69,90,0
0,69,115,0
0,69,114,0
0,40,122,0
0,42,115,0
0,62,127,8
0,66,88,0
0,62,105,0
0,74,127,0
0,74,126,0
0,44,90,0
0,38,120,0
0,38,114,0
0,57,84,0
0,50,88,0
0,54,79,0
0,62,86,0
0,36,103,0
0,44,100,0
0,57,127,8
0,69,118,0
0,69,117,0
0,40,122,8
0,42,115,0
0,60,127,8
0,63,103,0
0,69,83,0
0,72,120,0
0,72,119,0
0,44,100,0
0,59,126,8
0,39,112,0
0,71,115,0
0,71,114,0
0,39,102,0
0,51,81,0
0,54,82,0
0,60,78,0
0,63,86,0
0,44,104,0
0,57,118,8
0,69,111,0
0,69,110,0
0,54,127,8
0,66,118,0
0,66,117,0
0,40,127,0
0,42,115,0
0,66,96,34
0,63,102,0
0,69,87,0
0,52,120,8
0,57,127,0
0,64,105,0
0,61,98,0
0,69,98,0
0,40,122,0
0,64,125,0
0,69,125,0
0,64,124,0
0,69,124,0
0,40,105,0
0,57,84,0
0,64,84,0
0,52,93,0
0,61,77,0
0,36,100,0
0,44,95,0
0,42,115,8
0,51,117,182
0,57,127,0
0,66,92,0
0,63,105,0
0,69,95,0
0,39,115,0
0,66,127,0
0,69,127,0
0,66,126,0
0,69,126,0
0,39,103,0
0,54,86,0
0,60,82,0
0,51,88,0
0,63,92,0
0,44,93,0
0,44,102,124
0,40,127,0
0,45,120,6
0,45,110,0
0,33,124,0
0,57,127,0
0,57,126,0
0,33,110,0
0,33,78,0
0,45,88,0
0,57,95,0
0,36,105,0
0,44,100,0
0,45,117,222
0,45,107,0
0,33,120,0
0,57,127,0
0,57,127,0
0,33,119,0
0,33,81,0
0,45,95,0
0,57,90,0
0,36,110,0
0,44,95,0
0,52,120,8
