track,note,velocity,time
0,71,68,224
0,76,60,0
0,59,62,0
0,73,54,0
0,45,57,0
0,64,62,0
0,52,66,46
0,73,0,47
0,59,0,0
0,71,0,0
0,76,0,0
0,59,73,1
0,73,61,0
0,76,71,0
0,71,73,0
0,52,0,47
0,52,60,1
0,73,0,47
0,64,0,0
0,45,0,0
0,76,0,0
0,73,61,1
0,45,73,0
0,69,69,0
0,64,61,0
0,76,59,0
0,57,66,1
0,59,0,2
0,52,0,0
0,71,0,0
0,52,70,47
0,64,0,47
0,76,0,0
0,73,0,0
0,45,0,0
0,69,0,0
0,45,74,1
0,69,66,0
0,76,54,0
0,73,56,0
0,64,65,0
0,47,70,23
0,49,84,23
0,73,0,47
0,69,0,0
0,66,71,1
0,69,73,0
0,50,73,0
0,73,53,0
0,62,59,0
0,57,0,3
0,49,0,0
0,47,0,0
0,45,0,0
0,76,0,0
0,52,0,0
0,64,0,0
0,62,0,46
0,62,47,1
0,62,0,47
0,66,0,0
0,73,0,0
0,69,0,0
0,69,81,1
0,62,79,0
0,73,64,0
0,66,68,0
0,62,0,46
0,62,77,1
0,57,72,47
0,50,0,47
0,50,59,1
0,71,86,48
0,59,77,1
0,57,0,5
0,57,73,1
0,69,84,0
0,71,0,5
0,76,76,12
0,59,0,1
0,73,0,0
0,73,52,1
0,76,61,0
0,45,64,0
0,64,66,0
0,59,65,0
0,71,75,0
0,88,90,1
0,69,0,2
0,57,0,4
0,62,0,0
0,69,0,0
0,66,0,0
0,50,0,0
0,52,77,20
0,73,0,7
0,71,0,0
0,76,0,0
0,64,0,0
0,59,0,0
0,59,60,1
0,64,66,0
0,71,77,0
0,76,64,0
0,73,61,0
0,52,0,23
0,52,70,1
0,73,0,17
0,76,0,0
0,64,0,0
0,45,0,0
0,45,72,1
0,73,53,0
0,69,71,0
0,76,59,0
0,64,64,0
0,57,65,0
0,59,0,1
0,52,0,0
0,71,0,0
0,52,78,3
0,76,0,8
0,69,0,0
0,64,0,0
0,73,0,0
0,45,0,0
0,69,70,1
0,73,52,0
0,76,64,0
0,64,63,0
0,45,84,0
0,47,73,23
0,49,93,23
0,78,54,2
0,73,0,3
0,69,0,0
0,73,49,1
0,50,73,0
0,66,46,0
0,69,74,0
0,62,62,0
0,66,50,0
0,45,0,1
0,49,0,0
0,64,0,0
0,57,0,0
0,47,0,0
0,52,0,0
0,76,0,0
0,62,0,1
0,62,49,1
0,62,0,25
0,69,0,0
0,73,0,0
0,66,0,0
0,66,72,1
0,69,77,0
0,73,50,0
0,62,65,0
0,62,0,1
0,62,75,1
0,57,53,12
0,57,76,1
0,57,0,4
0,59,80,5
0,73,0,5
0,57,0,0
0,69,0,0
0,62,0,0
0,66,0,0
0,50,0,0
0,59,0,11
0,78,0,2
0,66,0,2
0,45,43,1
0,71,51,0
0,76,38,0
0,64,56,0
0,64,61,1
0,52,58,0
0,61,59,0
0,61,41,1
0,59,49,0
0,61,0,4
0,61,39,1
0,59,0,1
0,59,42,1
0,64,0,11
0,71,0,0
0,59,0,1
0,61,0,0
0,71,70,0
0,64,65,0
0,59,65,1
0,61,58,0
0,61,0,1
0,52,0,2
0,52,62,1
0,45,0,21
0,61,0,0
0,57,57,1
0,45,64,0
0,69,60,0
0,61,58,0
0,64,0,9
0,59,0,0
0,71,0,0
0,52,0,0
0,52,58,10
0,57,83,15
0,69,0,1
0,61,0,0
0,61,78,1
0,69,86,0
0,59,87,3
0,57,0,1
0,57,0,1
0,57,52,0
0,61,0,13
0,59,0,0
0,69,0,1
0,57,0,0
0,50,66,0
0,61,46,0
0,66,51,0
0,62,52,0
0,69,51,1
0,57,56,0
0,61,66,1
0,52,0,3
0,45,0,0
0,61,0,11
0,57,0,1
0,57,37,1
0,62,70,0
0,62,0,9
0,61,64,4
0,62,0,1
0,69,0,0
0,61,0,0
0,66,0,0
0,61,51,1
0,69,58,0
0,66,53,0
0,62,54,0
0,61,0,4
0,62,65,2
0,62,0,12
0,57,0,2
0,57,48,1
0,61,50,0
0,62,0,1
0,69,0,0
0,61,0,0
0,66,0,0
0,69,51,1
0,62,38,0
0,66,44,0
0,61,33,0
0,61,0,1
0,62,0,1
0,61,0,0
0,69,0,0
0,66,0,0
0,69,72,1
0,66,61,0
0,61,75,0
0,62,72,0
0,61,70,3
0,57,0,5
0,57,56,1
0,61,0,1
0,62,73,6
0,88,0,21
0,62,0,4
0,61,0,5
0,64,0,0
0,76,0,0
0,49,63,1
0,61,58,0
0,64,72,0
0,68,58,0
0,56,60,0
0,59,61,0
0,69,0,1
0,66,0,0
0,62,0,0
0,50,0,0
0,57,0,0
0,64,86,2
0,76,0,7
0,64,0,17
0,64,74,6
0,64,0,26
0,64,62,6
0,64,0,1
0,61,0,0
0,68,0,0
0,59,0,0
0,59,73,1
0,61,73,0
0,64,81,0
0,68,73,0
0,64,0,1
0,56,0,15
0,56,56,1
0,66,89,22
0,66,0,23
0,59,0,2
0,59,64,1
0,66,50,0
0,69,70,0
0,57,61,0
0,47,63,0
0,62,80,0
0,68,0,1
0,64,0,0
0,49,0,0
0,61,0,0
0,56,0,0
0,64,73,0
0,62,65,27
0,64,0,1
0,57,0,18
0,57,50,1
0,62,0,24
0,69,0,23
0,59,0,0
0,66,0,0
0,62,0,0
0,66,65,1
0,62,80,0
0,69,77,0
0,59,78,0
0,61,67,32
0,57,0,15
0,57,66,1
0,61,0,11
0,62,80,8
0,62,0,26
0,57,0,1
0,66,0,0
0,62,0,0
0,47,0,0
0,59,0,0
0,69,0,0
0,68,67,2
0,45,66,0
0,61,60,0
0,64,70,0
0,52,61,0
0,59,57,0
0,61,57,1
0,52,0,46
0,52,62,1
0,61,0,31
0,64,0,8
0,61,0,0
0,59,0,0
0,61,70,1
0,64,73,0
0,71,80,0
0,59,65,0
0,61,0,4
0,64,0,1
0,61,54,0
0,69,70,0
0,64,62,1
0,57,60,1
0,64,0,10
0,61,0,0
0,71,0,0
0,59,0,0
0,59,79,1
0,64,83,0
0,71,91,0
0,61,81,0
0,85,65,2
0,69,0,1
0,61,0,1
0,64,0,0
0,69,49,0
0,83,66,0
0,57,0,1
0,61,39,0
0,64,49,0
0,57,54,1
0,85,0,3
0,64,0,5
0,71,0,0
0,61,0,0
0,83,0,1
0,64,80,0
0,61,72,0
0,71,95,0
0,81,65,0
0,59,0,1
0,59,84,1
0,66,84,6
0,64,0,1
0,61,0,1
0,69,0,0
0,64,59,0
0,45,66,0
0,57,0,1
0,61,53,0
0,69,69,0
0,57,64,1
0,80,65,0
0,81,0,3
0,66,0,7
0,68,101,3
0,68,0,3
0,54,72,3
0,57,0,6
0,61,0,0
0,69,0,0
0,80,0,0
0,78,50,0
0,45,0,1
0,50,70,0
0,66,53,0
0,62,62,0
0,61,53,0
0,69,70,0
0,57,65,0
0,38,64,0
0,69,91,1
0,64,0,5
0,71,0,0
0,59,0,0
0,45,0,0
0,52,0,0
0,68,0,0
0,62,0,2
0,62,35,7
0,69,0,10
0,69,83,6
0,69,0,19
0,69,83,6
0,62,0,1
0,66,0,0
0,69,0,0
0,61,0,0
0,66,55,1
0,69,73,0
0,62,66,0
0,61,54,0
0,69,0,15
0,68,73,8
0,57,0,1
0,57,60,1
0,68,0,20
0,66,71,3
0,61,0,23
0,62,0,0
0,69,0,1
0,66,0,0
0,61,54,0
0,62,61,0
0,69,65,1
0,66,51,0
0,66,0,18
0,69,80,4
0,69,0,40
0,69,0,31
0,66,0,0
0,62,0,0
0,61,0,0
0,66,61,1
0,69,70,0
0,61,72,0
0,62,70,0
0,81,60,0
0,78,0,3
0,69,88,24
0,69,0,15
0,38,0,3
0,50,0,2
0,57,0,0
0,50,70,1
0,57,70,0
0,33,62,0
0,69,91,1
0,69,0,8
0,61,0,8
0,62,0,1
0,69,0,0
0,66,0,0
0,57,0,0
0,50,0,0
0,64,73,0
0,49,67,0
0,68,72,0
0,59,73,0
0,61,61,0
0,56,68,0
0,68,77,0
0,54,0,1
0,37,80,0
0,33,0,1
0,80,49,0
0,81,0,7
0,56,67,39
0,68,0,9
0,66,78,7
0,66,0,23
0,61,0,4
0,64,0,0
0,68,0,0
0,59,0,0
0,64,73,0
0,59,70,1
0,68,78,0
0,61,65,0
0,64,80,0
0,64,0,25
0,68,79,1
0,56,0,21
0,56,67,1
0,68,0,4
0,66,73,5
0,61,0,36
0,64,0,0
0,57,67,0
0,42,60,1
0,64,76,0
0,61,58,0
0,30,82,0
0,78,53,0
0,57,64,1
0,66,65,0
0,37,0,1
0,56,0,1
0,68,0,1
0,49,0,0
0,56,0,0
0,80,0,0
0,59,0,0
0,66,0,6
0,49,58,40
0,61,0,12
0,57,0,1
0,64,0,0
0,66,0,0
0,61,79,0
0,66,81,1
0,57,77,0
0,64,88,0
0,81,58,0
0,78,0,3
0,66,78,22
0,30,0,10
0,66,0,10
0,49,0,2
0,30,82,0
0,49,67,1
0,68,84,0
0,68,0,32
0,30,0,3
0,57,0,0
0,35,81,2
0,59,59,0
0,69,87,0
0,57,0,1
0,64,0,0
0,61,0,0
0,61,59,1
0,64,64,0
0,47,70,0
0,57,65,0
0,49,0,5
0,42,0,0
0,66,0,0
0,69,0,36
0,68,75,4
0,57,0,1
0,57,53,1
0,68,0,21
0,69,85,5
0,57,0,20
0,64,0,0
0,61,0,0
0,61,75,1
0,57,74,0
0,64,78,0
0,69,0,3
0,68,72,4
0,68,0,25
0,69,80,5
0,47,0,5
0,47,61,1
0,35,0,32
0,69,0,4
0,47,0,4
0,57,0,0
0,63,68,1
0,59,64,0
0,57,64,0
0,54,58,0
0,47,62,0
0,78,57,0
0,35,78,1
0,81,0,1
0,64,0,0
0,61,0,0
0,66,78,25
0,66,0,24
0,54,0,4
0,63,0,0
0,57,0,0
0,59,0,0
0,59,73,1
0,57,71,0
0,63,62,0
0,54,64,0
0,68,79,0
0,69,87,26
0,68,0,1
0,47,0,20
0,47,38,1
0,69,0,1
0,54,0,7
0,57,0,0
0,54,53,1
0,40,55,0
0,62,63,0
0,52,44,0
0,57,74,0
0,28,78,0
0,35,0,1
0,71,73,1
0,47,0,1
0,59,0,0
0,63,0,0
0,52,0,11
0,52,70,1
0,62,0,8
0,62,72,1
0,66,74,8
0,69,85,2
0,74,68,2
0,71,0,1
0,59,0,4
0,52,64,29
0,52,0,2
0,52,48,1
0,52,0,1
0,57,76,0
0,57,0,2
0,59,81,1
0,59,0,18
0,61,73,0
0,78,0,27
0,45,66,22
0,35,64,0
0,35,0,1
0,71,58,0
0,59,50,0
0,45,55,0
0,64,61,0
0,61,50,0
0,88,41,0
0,71,39,0
0,64,35,0
0,76,35,0
0,69,34,0
0,52,36,0
0,28,0,1
0,69,0,5
0,57,0,0
0,40,0,0
0,62,0,0
0,52,0,0
0,66,0,0
0,74,0,0
0,54,0,0
0,52,56,42
0,61,0,40
0,42,54,6
0,42,0,1
0,64,0,0
0,61,0,0
0,59,0,0
0,71,0,0
0,64,71,1
0,59,68,0
0,61,60,0
0,71,71,0
0,45,0,31
0,52,0,16
0,45,64,0
0,52,59,1
0,45,0,27
0,61,0,18
0,61,61,1
0,45,0,1
0,69,65,0
0,35,75,0
0,35,0,1
0,57,49,0
0,45,62,0
0,45,55,0
0,59,0,6
0,64,0,0
0,71,0,0
0,52,0,0
0,57,74,40
0,76,40,0
0,64,0,1
0,52,66,1
0,76,0,46
0,83,51,0
0,69,0,1
0,61,0,0
0,61,84,1
0,69,86,0
0,64,66,0
0,42,65,0
0,42,0,1
0,57,0,2
0,45,0,33
0,57,0,11
0,45,62,0
0,57,59,1
0,45,0,44
0,61,0,2
0,85,49,0
0,52,0,1
0,69,0,0
0,57,0,0
0,66,56,0
0,62,52,0
0,61,49,0
0,38,76,0
0,54,37,0
0,35,74,0
0,35,0,1
0,64,0,0
0,69,65,0
0,50,50,0
0,57,58,0
0,73,42,0
0,66,54,0
0,83,0,1
0,52,0,1
0,45,0,0
0,71,0,0
0,57,0,45
0,57,44,1
0,57,69,1
0,57,0,19
0,59,80,3
0,59,0,21
0,61,0,1
0,62,0,0
0,66,0,0
0,69,0,1
0,61,56,0
0,62,53,0
0,66,49,0
0,69,60,1
0,42,79,0
0,42,0,1
0,61,87,0
0,61,0,28
0,62,70,2
0,57,0,15
0,57,45,1
0,62,0,13
0,38,0,4
0,61,67,1
0,45,58,6
0,61,0,7
0,62,70,3
0,61,0,13
0,62,0,0
0,66,0,0
0,69,0,0
0,45,0,1
0,69,66,0
0,62,45,0
0,66,32,0
0,61,37,0
0,35,92,1
0,35,0,1
0,50,78,0
0,62,0,1
0,61,70,1
0,73,0,30
0,69,0,1
0,66,0,6
0,73,61,6
0,69,66,0
0,61,0,13
0,69,0,33
0,61,0,2
0,69,0,0
0,66,0,0
0,62,0,0
0,66,53,1
0,62,65,0
0,61,50,0
0,69,75,0
0,68,67,0
0,71,73,0
0,42,64,0
0,42,0,1
0,73,0,9
0,50,0,13
0,45,71,2
0,45,0,20
0,62,77,1
0,57,0,1
0,68,0,0
0,66,55,0
0,69,70,0
0,57,58,1
0,38,77,0
0,61,78,0
0,71,0,11
0,85,0,4
0,62,80,9
0,61,0,5
0,69,0,17
0,88,0,0
0,76,0,1
0,61,0,0
0,50,0,1
0,54,0,0
0,66,0,0
0,62,0,0
0,57,0,0
0,66,0,0
0,69,0,0
0,68,61,0
0,49,61,0
0,64,67,0
0,59,55,0
0,61,51,0
0,37,67,0
0,83,48,0
0,52,32,0
0,68,35,1
0,35,82,0
0,35,0,1
0,64,60,0
0,61,40,0
0,56,50,0
0,62,0,1
0,64,80,1
0,38,0,1
0,62,0,4
0,64,0,25
0,64,70,8
0,56,53,7
0,64,0,19
0,64,70,7
0,64,0,12
0,64,65,6
0,68,0,3
0,61,0,0
0,42,73,0
0,42,0,1
0,64,0,0
0,59,0,0
0,61,67,0
0,68,78,0
0,59,69,1
0,64,83,0
0,64,0,10
0,64,70,4
0,68,0,8
0,37,0,11
0,56,0,12
0,56,68,1
0,37,68,0
0,64,0,5
0,37,0,42
0,54,38,1
0,59,38,0
0,62,55,0
0,56,0,1
0,64,0,0
0,61,0,0
0,59,0,0
0,35,66,0
0,35,82,0
0,35,0,1
0,47,68,0
0,66,49,0
0,62,70,0
0,59,65,0
0,69,66,0
0,68,0,3
0,64,0,0
0,61,0,0
0,49,0,0
0,56,0,0
0,62,87,44
0,62,0,46
0,69,0,0
0,66,0,0
0,59,0,0
0,62,0,1
0,62,74,0
0,59,64,0
0,66,54,0
0,69,73,0
0,42,64,0
0,42,0,1
0,61,77,0
0,35,0,36
0,61,0,5
0,62,79,5
0,54,56,1
0,35,79,0
0,62,0,23
0,61,73,2
0,52,0,12
0,83,0,7
0,35,0,0
0,59,0,3
0,59,0,0
0,54,0,0
0,62,0,0
0,59,62,1
0,68,59,0
0,64,68,0
0,61,56,0
0,45,68,0
0,33,72,0
0,52,37,0
0,57,37,0
0,61,50,0
0,85,45,0
0,52,37,0
0,35,86,0
0,35,0,1
0,62,0,2
0,66,0,0
0,47,0,0
0,69,0,0
0,54,0,0
0,52,60,45
0,64,0,47
0,61,0,0
0,59,0,0
0,71,75,1
0,64,70,0
0,59,69,0
0,61,62,0
0,42,65,1
0,42,0,1
0,68,0,3
0,61,0,30
0,56,61,10
0,64,0,3
0,61,0,0
0,57,71,0
0,45,0,1
0,33,0,0
0,61,61,0
0,69,66,0
0,64,61,0
0,45,65,1
0,57,65,0
0,56,0,2
0,85,0,23
0,59,0,20
0,71,0,1
0,64,0,0
0,59,76,0
0,56,71,0
0,85,56,0
0,35,92,0
0,35,0,1
0,61,0,0
0,57,0,0
0,71,95,0
0,64,84,0
0,61,75,1
0,52,0,1
0,69,0,0
0,57,0,0
0,54,72,21
0,56,0,9
0,54,0,14
0,64,0,0
0,61,0,0
0,69,64,1
0,61,30,0
0,64,51,0
0,52,75,0
0,83,58,1
0,57,58,1
0,85,0,6
0,52,0,16
0,49,82,0
0,64,0,23
