track,note,velocity,time
1,71,127,2400
1,71,0,120
1,69,127,0
1,69,0,240
1,67,127,0
1,67,0,60
1,66,127,0
1,66,0,60
1,67,127,0
1,67,0,60
1,66,127,0
1,66,0,60
1,64,127,0
1,64,0,360
1,66,127,600
1,66,0,120
1,66,127,0
1,66,0,60
1,67,127,0
1,67,0,60
1,69,127,0
1,69,0,240
1,67,127,0
1,67,0,60
1,67,127,0
1,67,0,120
1,66,127,0
1,66,0,180
1,64,127,0
1,64,0,240
1,62,127,0
1,62,0,120
1,62,127,0
1,62,0,600
1,69,127,840
1,69,0,120
1,69,127,0
1,69,0,120
1,64,127,0
1,64,0,60
1,69,127,0
1,69,0,120
1,71,127,0
1,71,0,120
1,72,127,0
1,72,0,30
1,71,127,0
1,71,0,30
1,69,127,0
1,69,0,120
1,69,127,0
1,69,0,120
1,67,127,0
1,67,0,120
1,67,127,0
1,67,0,120
1,67,127,0
1,67,0,120
1,66,127,0
1,66,0,60
1,66,127,0
1,66,0,30
1,64,127,0
1,64,0,30
1,62,127,0
1,62,0,180
1,62,127,0
1,62,0,60
1,67,127,0
1,67,0,60
1,67,127,0
1,67,0,180
1,64,127,0
1,64,0,60
1,62,127,0
1,62,0,60
1,62,127,0
1,62,0,600
1,67,127,840
1,67,0,60
1,69,127,0
1,69,0,60
1,71,127,0
1,71,0,120
1,69,127,0
1,69,0,120
1,67,127,0
1,67,0,120
1,66,127,0
1,66,0,120
1,64,127,0
1,64,0,480
1,57,127,540
1,57,0,60
1,66,127,0
1,66,0,120
1,66,127,0
1,66,0,60
1,67,127,0
1,67,0,60
1,69,127,0
1,69,0,120
1,67,127,0
1,67,0,240
1,67,127,120
1,67,0,60
1,66,127,0
1,66,0,60
1,64,127,0
1,64,0,240
1,62,127,0
1,62,0,120
1,62,127,0
1,62,0,600
1,69,127,960
1,69,0,120
1,69,127,0
1,69,0,120
1,69,127,0
1,69,0,60
1,71,127,0
1,71,0,60
1,72,127,0
1,72,0,60
1,71,127,0
1,71,0,60
1,69,127,0
1,69,0,240
1,67,127,120
1,67,0,60
1,67,127,0
1,67,0,120
1,66,127,0
1,66,0,120
1,66,127,0
1,66,0,120
1,64,127,0
1,64,0,120
1,64,127,0
1,64,0,120
1,62,127,0
1,62,0,120
1,64,127,0
1,64,0,180
1,67,127,0
1,69,127,120
1,69,0,40
1,71,127,0
1,67,0,20
1,71,0,20
1,69,127,0
1,69,0,40
1,67,127,0
1,67,0,840
1,67,127,240
1,67,0,120
1,69,127,0
1,69,0,60
1,71,127,0
1,71,0,180
1,74,127,0
1,74,0,240
1,72,127,0
1,72,0,60
1,71,127,0
1,71,0,60
1,64,127,0
1,64,0,480
1,72,127,840
1,72,0,60
1,72,127,0
1,72,0,60
1,72,127,0
1,72,0,120
1,72,127,0
1,72,0,120
1,72,127,0
1,72,0,60
1,74,127,0
1,74,0,180
1,74,127,0
1,74,0,360
1,71,127,0
1,71,0,60
1,69,127,0
1,69,0,60
1,67,127,0
1,67,0,480
1,71,127,360
1,71,0,60
1,71,127,0
1,71,0,60
1,72,127,0
1,72,0,120
1,71,127,0
1,71,0,120
1,69,127,0
1,69,0,120
1,67,127,0
1,67,0,120
1,69,127,0
1,69,0,360
1,62,127,60
1,62,0,60
1,72,127,0
1,72,0,120
1,71,127,0
1,71,0,120
1,69,127,0
1,69,0,120
1,67,127,0
1,67,0,60
1,69,127,0
1,69,0,420
1,62,127,60
1,62,0,60
1,72,127,0
1,72,0,120
1,72,127,0
1,72,0,120
1,72,127,0
1,72,0,60
1,74,127,0
1,74,0,60
1,71,127,0
1,71,0,120
1,69,127,0
1,69,0,60
1,67,127,0
1,67,0,240
1,69,127,0
1,69,0,60
1,71,127,0
1,71,0,600
1,62,127,180
1,62,0,60
1,67,127,0
1,67,0,60
1,69,127,0
1,69,0,180
1,71,127,0
1,71,0,120
1,74,127,0
1,74,0,120
1,72,127,0
1,72,0,180
1,71,127,0
1,71,0,60
1,64,127,0
1,64,0,60
1,62,127,0
1,62,0,60
1,60,127,0
1,60,0,360
1,60,127,660
1,60,0,60
1,72,127,0
1,72,0,60
1,72,127,0
1,72,0,120
1,72,127,0
1,72,0,180
1,72,127,0
1,72,0,120
1,74,127,0
1,74,0,180
1,74,127,0
1,74,0,60
1,74,127,0
1,74,0,120
1,71,127,0
1,71,0,600
1,71,127,360
1,71,0,60
1,71,127,0
1,71,0,60
1,71,127,0
1,71,0,120
1,71,127,0
1,71,0,60
1,72,127,0
1,72,0,180
1,71,127,0
1,71,0,60
1,69,127,0
1,69,0,120
1,67,127,0
1,67,0,60
1,67,127,0
1,67,0,480
1,67,127,0
1,67,0,60
1,67,127,0
1,67,0,60
1,72,127,0
1,72,0,120
1,71,127,0
1,71,0,60
1,69,127,0
1,69,0,120
1,67,127,0
1,67,0,60
1,69,127,0
1,69,0,480
1,62,127,0
1,62,0,60
1,62,127,0
1,62,0,60
1,72,127,0
1,72,0,120
1,71,127,0
1,71,0,240
1,69,127,0
1,69,0,60
1,67,127,0
1,67,0,60
1,69,127,0
1,69,0,40
1,71,127,0
1,71,0,40
1,69,127,0
1,69,0,40
1,67,127,0
1,67,0,840
1,62,127,180
1,62,0,60
1,71,127,0
1,71,0,60
1,71,127,0
1,71,0,120
1,72,127,0
1,72,0,120
1,71,127,0
1,71,0,180
1,67,127,0
1,67,0,120
1,69,127,0
1,69,0,120
1,67,127,0
1,67,0,60
1,66,127,0
1,66,0,60
1,64,127,0
1,64,0,360
1,66,127,600
1,66,0,120
1,66,127,0
1,66,0,60
1,67,127,0
1,67,0,60
1,69,127,0
1,69,0,240
1,67,127,0
1,67,0,60
1,67,127,0
1,67,0,120
1,66,127,0
1,66,0,180
1,64,127,0
1,64,0,240
1,62,127,0
1,62,0,120
1,62,127,0
1,62,0,600
1,69,127,840
1,69,0,120
1,69,127,0
1,69,0,120
1,64,127,0
1,64,0,60
1,69,127,0
1,69,0,120
1,71,127,0
1,71,0,120
1,72,127,0
1,72,0,30
1,71,127,0
1,71,0,30
1,69,127,0
1,69,0,120
1,69,127,0
1,69,0,120
1,67,127,0
1,67,0,120
1,67,127,0
1,67,0,120
1,67,127,0
1,67,0,120
1,66,127,0
1,66,0,60
1,66,127,0
1,66,0,30
1,64,127,0
1,64,0,30
1,62,127,0
1,62,0,180
1,62,127,0
1,62,0,60
1,67,127,0
1,67,0,60
1,67,127,0
1,67,0,180
1,64,127,0
1,64,0,60
1,62,127,0
1,62,0,60
1,62,127,0
1,62,0,600
1,67,127,840
1,67,0,60
1,69,127,0
1,69,0,60
1,71,127,0
1,71,0,120
1,69,127,0
1,69,0,120
1,67,127,0
1,67,0,120
1,66,127,0
1,66,0,120
1,64,127,0
1,64,0,480
1,57,127,540
1,57,0,60
1,66,127,0
1,66,0,120
1,66,127,0
1,66,0,60
1,67,127,0
1,67,0,60
1,69,127,0
1,69,0,120
1,67,127,0
1,67,0,240
1,67,127,120
1,67,0,60
1,66,127,0
1,66,0,60
1,64,127,0
1,64,0,240
1,62,127,0
1,62,0,120
1,62,127,0
1,62,0,600
1,69,127,960
1,69,0,120
1,69,127,0
1,69,0,120
1,69,127,0
1,69,0,60
1,71,127,0
1,71,0,60
1,72,127,0
1,72,0,60
1,71,127,0
1,71,0,60
1,69,127,0
1,69,0,240
1,67,127,120
1,67,0,60
1,67,127,0
1,67,0,120
1,66,127,0
1,66,0,120
1,66,127,0
1,66,0,120
1,64,127,0
1,64,0,120
1,64,127,0
1,64,0,120
1,62,127,0
1,62,0,120
1,64,127,0
1,64,0,180
1,67,127,0
1,69,127,120
1,69,0,40
1,71,127,0
1,67,0,20
1,71,0,20
1,69,127,0
1,69,0,40
1,67,127,0
1,67,0,840
1,67,127,240
1,67,0,120
1,69,127,0
1,69,0,60
1,71,127,0
1,71,0,180
1,74,127,0
1,74,0,240
1,72,127,0
1,72,0,60
1,71,127,0
1,71,0,60
1,64,127,0
1,64,0,480
1,72,127,840
1,72,0,60
1,72,127,0
1,72,0,60
1,72,127,0
1,72,0,120
1,72,127,0
1,72,0,120
1,72,127,0
1,72,0,60
1,74,127,0
1,74,0,180
1,74,127,0
1,74,0,360
1,71,127,0
1,71,0,60
1,69,127,0
1,69,0,60
1,67,127,0
1,67,0,480
1,71,127,360
1,71,0,60
1,71,127,0
1,71,0,60
1,72,127,0
1,72,0,120
1,71,127,0
1,71,0,120
1,69,127,0
1,69,0,120
1,67,127,0
1,67,0,120
1,69,127,0
1,69,0,360
1,62,127,60
1,62,0,60
1,72,127,0
1,72,0,120
1,71,127,0
1,71,0,120
1,69,127,0
1,69,0,120
1,67,127,0
1,67,0,60
1,69,127,0
1,69,0,420
1,62,127,60
1,62,0,60
1,72,127,0
1,72,0,120
1,72,127,0
1,72,0,120
1,72,127,0
1,72,0,60
1,74,127,0
1,74,0,60
1,71,127,0
1,71,0,120
1,69,127,0
1,69,0,60
1,67,127,0
1,67,0,240
1,69,127,0
1,69,0,60
1,71,127,0
1,71,0,600
1,62,127,180
1,62,0,60
1,67,127,0
1,67,0,60
1,69,127,0
1,69,0,180
1,71,127,0
1,71,0,120
1,74,127,0
1,74,0,120
1,72,127,0
1,72,0,180
1,71,127,0
1,71,0,60
1,64,127,0
1,64,0,60
1,62,127,0
1,62,0,60
1,60,127,0
1,60,0,360
1,60,127,660
1,60,0,60
1,72,127,0
1,72,0,60
1,72,127,0
1,72,0,120
1,72,127,0
1,72,0,180
1,72,127,0
1,72,0,120
1,74,127,0
1,74,0,180
1,74,127,0
1,74,0,60
1,74,127,0
1,74,0,120
1,71,127,0
1,71,0,600
1,71,127,360
1,71,0,60
1,71,127,0
1,71,0,60
1,71,127,0
1,71,0,120
1,71,127,0
1,71,0,60
1,72,127,0
1,72,0,180
1,71,127,0
1,71,0,60
1,69,127,0
1,69,0,120
1,67,127,0
1,67,0,60
1,67,127,0
1,67,0,480
1,67,127,0
1,67,0,60
1,67,127,0
1,67,0,60
1,72,127,0
1,72,0,120
1,71,127,0
1,71,0,60
1,69,127,0
1,69,0,60
1,69,127,0
1,69,0,60
1,67,127,0
1,67,0,60
1,69,127,0
1,69,0,480
1,62,127,0
1,62,0,60
1,62,127,0
1,62,0,60
1,72,127,0
1,72,0,120
1,71,127,0
1,71,0,240
1,69,127,0
1,69,0,60
1,67,127,0
1,67,0,60
1,69,127,0
1,69,0,40
1,71,127,0
1,71,0,40
1,69,127,0
1,69,0,40
1,67,127,0
1,67,0,840
1,62,127,180
1,62,0,60
1,71,127,0
1,71,0,60
1,71,127,0
1,71,0,120
1,72,127,0
1,72,0,120
1,71,127,0
1,71,0,180
1,69,127,0
1,69,0,60
1,67,127,0
1,67,0,60
1,69,127,0
1,69,0,60
1,67,127,0
1,67,0,60
1,64,127,0
1,64,0,240
1,67,127,180
1,67,0,60
1,72,127,0
1,72,0,120
1,71,127,0
1,71,0,120
1,69,127,0
1,69,0,60
1,67,127,0
1,67,0,180
1,69,127,0
1,69,0,120
1,71,127,0
1,71,0,120
1,62,127,60
1,62,0,60
1,62,127,0
1,62,0,60
1,72,127,0
1,72,0,120
1,71,127,0
1,71,0,180
1,69,127,0
1,69,0,60
1,67,127,0
1,67,0,120
1,69,127,60
1,69,0,40
1,71,127,0
1,71,0,40
1,69,127,0
1,69,0,40
1,67,127,0
1,67,0,840
2,43,120,1440
2,43,0,240
2,43,120,0
2,43,0,240
2,43,120,0
2,43,0,960
2,45,120,0
2,45,0,960
2,50,120,0
2,50,0,480
2,38,120,0
2,38,0,480
2,43,120,0
2,43,0,480
2,43,120,0
2,43,0,360
2,38,120,0
2,38,0,120
2,43,120,0
2,43,0,480
2,43,120,0
2,43,0,480
2,54,120,0
2,54,0,480
2,45,120,0
2,45,0,480
2,50,120,0
2,50,0,480
2,48,120,0
2,48,0,480
2,43,120,0
2,43,0,120
2,50,120,0
2,50,0,120
2,55,120,0
2,55,0,120
2,50,120,0
2,50,0,120
2,43,120,0
2,43,0,480
2,43,120,0
2,43,0,960
2,45,120,0
2,45,0,480
2,45,120,0
2,45,0,480
2,50,120,0
2,50,0,480
2,38,120,0
2,38,0,240
2,50,120,0
2,50,0,240
2,43,120,0
2,43,0,480
2,43,120,0
2,43,0,360
2,38,120,0
2,38,0,120
2,43,120,0
2,43,0,480
2,43,120,0
2,43,0,480
2,50,120,0
2,50,0,480
2,45,120,0
2,45,0,480
2,50,120,0
2,50,0,480
2,48,120,0
2,48,0,480
2,43,120,0
2,43,0,480
2,43,120,0
2,43,0,480
2,43,120,0
2,43,0,960
2,48,120,0
2,48,0,360
2,48,120,0
2,48,0,120
2,43,120,0
2,43,0,360
2,43,120,0
2,43,0,120
2,36,120,0
2,36,0,480
2,48,120,0
2,48,0,240
2,36,120,0
2,36,0,240
2,43,120,0
2,43,0,360
2,43,120,0
2,43,0,120
2,38,120,0
2,38,0,360
2,38,120,0
2,38,0,120
2,43,120,0
2,43,0,480
2,43,120,0
2,43,0,240
2,47,120,0
2,47,0,120
2,48,120,0
2,48,0,120
2,50,120,0
2,50,0,360
2,50,120,0
2,50,0,120
2,45,120,0
2,45,0,360
2,45,120,0
2,45,0,120
2,38,120,0
2,38,0,360
2,38,120,0
2,38,0,120
2,35,120,0
2,35,0,240
2,48,120,0
2,48,0,240
2,43,120,0
2,43,0,360
2,43,120,0
2,43,0,120
2,50,120,0
2,50,0,240
2,38,120,0
2,38,0,240
2,43,120,0
2,43,0,360
2,43,120,0
2,43,0,120
2,45,120,0
2,45,0,240
2,47,120,0
2,47,0,240
2,48,120,0
2,48,0,360
2,48,120,0
2,48,0,120
2,43,120,0
2,43,0,360
2,43,120,0
2,43,0,120
2,36,120,0
2,36,0,360
2,36,120,0
2,36,0,120
2,36,120,0
2,36,0,240
2,38,120,0
2,38,0,240
2,40,120,0
2,40,0,360
2,40,120,0
2,40,0,120
2,40,120,0
2,40,0,240
2,47,120,0
2,47,0,240
2,40,120,0
2,40,0,960
2,45,120,0
2,45,0,480
2,45,120,0
2,45,0,480
2,50,120,0
2,50,0,480
2,38,120,0
2,38,0,480
2,43,120,0
2,43,0,360
2,43,120,0
2,43,0,120
2,43,120,0
2,43,0,240
2,43,120,0
2,43,0,240
2,43,120,0
2,43,0,960
2,45,120,0
2,45,0,960
2,50,120,0
2,50,0,480
2,38,120,0
2,38,0,480
2,43,120,0
2,43,0,480
2,43,120,0
2,43,0,360
2,38,120,0
2,38,0,120
2,43,120,0
2,43,0,480
2,43,120,0
2,43,0,480
2,50,120,0
2,50,0,480
2,45,120,0
2,45,0,480
2,50,120,0
2,50,0,480
2,48,120,0
2,48,0,480
2,43,120,0
2,43,0,120
2,50,120,0
2,50,0,120
2,55,120,0
2,55,0,120
2,50,120,0
2,50,0,120
2,43,120,0
2,43,0,480
2,43,120,0
2,43,0,960
2,45,120,0
2,45,0,480
2,45,120,0
2,45,0,480
2,50,120,0
2,50,0,480
2,38,120,0
2,38,0,240
2,50,120,0
2,50,0,240
2,43,120,0
2,43,0,480
2,43,120,0
2,43,0,360
2,38,120,0
2,38,0,120
2,43,120,0
2,43,0,480
2,43,120,0
2,43,0,480
2,50,120,0
2,50,0,480
2,45,120,0
2,45,0,480
2,50,120,0
2,50,0,480
2,48,120,0
2,48,0,480
2,43,120,0
2,43,0,480
2,43,120,0
2,43,0,480
2,43,120,0
2,43,0,960
2,48,120,0
2,48,0,360
2,48,120,0
2,48,0,120
2,43,120,0
2,43,0,360
2,43,120,0
2,43,0,120
2,36,120,0
2,36,0,480
2,48,120,0
2,48,0,240
2,36,120,0
2,36,0,240
2,43,120,0
2,43,0,360
2,43,120,0
2,43,0,120
2,38,120,0
2,38,0,360
2,38,120,0
2,38,0,120
2,43,120,0
2,43,0,480
2,43,120,0
2,43,0,240
2,47,120,0
2,47,0,120
2,48,120,0
2,48,0,120
2,50,120,0
2,50,0,360
2,50,120,0
2,50,0,120
2,45,120,0
2,45,0,360
2,45,120,0
2,45,0,120
