track,note,velocity,time
1,41,127,7664
1,41,127,84
1,48,127,40
1,34,127,88
1,34,127,144
1,34,127,144
1,41,127,0
1,29,127,8
1,39,127,80
1,45,127,124
1,46,127,28
1,39,127,28
1,39,127,48
1,39,127,140
1,46,127,8
1,39,127,12
1,34,127,48
1,33,127,60
1,29,127,68
1,41,127,36
1,38,127,48
1,38,127,128
1,38,127,144
1,45,127,0
1,33,127,8
1,43,127,80
1,43,127,128
1,43,127,44
1,43,127,128
1,43,127,140
1,43,127,144
1,50,127,0
1,38,127,8
1,41,127,80
1,36,127,68
1,48,127,36
1,34,127,48
1,34,127,128
1,34,127,148
1,41,127,0
1,34,127,0
1,39,127,116
1,39,127,100
1,46,127,68
1,39,127,16
1,39,127,120
1,39,127,144
1,46,127,24
1,34,127,48
1,33,127,144
1,29,127,68
1,41,127,36
1,38,127,48
1,38,127,128
1,38,127,148
1,45,127,0
1,38,127,0
1,43,127,116
1,49,127,124
1,50,127,28
1,43,127,28
1,43,127,48
1,43,127,140
1,50,127,8
1,43,127,12
1,37,127,48
1,36,127,60
1,36,127,108
1,42,127,28
1,43,127,64
1,43,127,96
1,43,127,144
1,50,127,24
1,37,127,44
1,36,127,92
1,36,127,128
1,38,127,44
1,38,127,128
1,43,127,140
1,43,127,144
1,50,127,24
1,37,127,44
1,36,127,92
1,36,127,108
1,43,127,28
1,38,127,64
1,38,127,96
1,38,127,144
1,45,127,0
1,33,127,8
1,43,127,80
1,43,127,128
1,42,127,44
1,42,127,128
1,41,127,140
1,41,127,148
1,41,127,0
1,41,127,0
1,41,127,116
1,48,127,12
1,48,127,48
1,41,127,24
1,35,127,28
1,34,127,48
1,41,127,4
1,34,127,0
1,39,127,96
1,27,127,288
1,46,127,28
1,39,127,40
1,39,127,52
1,27,127,288
1,46,127,40
1,39,127,24
1,41,127,148
1,48,127,24
1,48,127,64
1,41,127,36
1,34,127,128
1,41,127,0
1,41,127,48
1,29,127,28
1,39,127,68
1,46,127,12
1,46,127,48
1,39,127,24
1,37,127,28
1,36,127,48
1,43,127,24
1,43,127,64
1,36,127,36
1,41,127,128
1,48,127,12
1,48,127,48
1,41,127,24
1,35,127,28
1,34,127,48
1,41,127,0
1,41,127,48
1,29,127,28
1,36,127,68
1,43,127,24
1,43,127,64
1,36,127,36
1,36,127,128
1,43,127,4
1,36,127,0
1,41,127,96
1,48,127,0
1,48,127,48
1,36,127,28
1,34,127,68
1,41,127,0
1,41,127,48
1,29,127,28
1,43,127,68
1,50,127,24
1,50,127,64
1,43,127,36
1,36,127,128
1,43,127,4
1,36,127,0
1,41,127,96
1,48,127,4
1,48,127,60
1,41,127,16
1,41,127,64
1,48,127,0
1,48,127,60
1,39,127,32
1,38,127,144
1,44,127,40
1,45,127,52
1,38,127,24
1,38,127,64
1,44,127,56
1,45,127,64
1,38,127,28
1,43,127,64
1,43,127,84
1,50,127,40
1,43,127,88
1,43,127,48
1,43,127,128
1,42,127,44
1,42,127,128
1,41,127,44
1,41,127,108
1,48,127,28
1,41,127,64
1,41,127,0
1,41,127,128
1,42,127,44
1,42,127,128
1,43,127,44
1,38,127,68
1,50,127,36
1,43,127,48
1,43,127,32
1,43,127,128
1,42,127,44
1,42,127,128
1,41,127,44
1,41,127,128
1,42,127,44
1,42,127,128
1,43,127,140
1,43,127,144
1,50,127,0
1,38,127,8
1,41,127,80
1,41,127,108
1,48,127,28
1,34,127,64
1,34,127,96
1,34,127,144
1,41,127,24
1,40,127,44
1,39,127,92
1,45,127,124
1,46,127,28
1,39,127,28
1,39,127,48
1,39,127,140
1,46,127,8
1,39,127,12
1,34,127,48
1,33,127,60
1,33,127,108
1,41,127,28
1,38,127,64
1,38,127,96
1,38,127,148
1,45,127,0
1,38,127,0
1,43,127,116
1,43,127,128
1,43,127,44
1,43,127,128
1,43,127,140
1,43,127,144
1,50,127,24
1,42,127,44
1,41,127,92
1,36,127,68
1,48,127,36
1,34,127,48
1,34,127,128
1,34,127,148
1,41,127,0
1,34,127,0
1,39,127,116
1,39,127,100
1,46,127,68
1,39,127,16
1,39,127,120
1,39,127,144
1,46,127,24
1,34,127,48
1,33,127,144
1,33,127,108
1,41,127,28
1,38,127,64
1,38,127,96
1,38,127,148
1,45,127,0
1,38,127,0
1,43,127,116
1,49,127,124
1,50,127,28
1,43,127,28
1,43,127,48
1,43,127,140
1,50,127,8
1,43,127,12
1,37,127,48
1,36,127,60
1,36,127,84
1,42,127,40
1,43,127,88
1,43,127,144
1,43,127,144
1,50,127,0
1,38,127,8
1,36,127,80
1,36,127,128
1,38,127,44
1,38,127,128
1,43,127,140
1,43,127,148
1,50,127,0
1,43,127,0
1,36,127,116
1,36,127,108
1,43,127,28
1,38,127,64
1,38,127,96
1,38,127,148
1,45,127,0
1,38,127,0
1,43,127,116
1,43,127,128
1,42,127,44
1,42,127,128
1,41,127,140
1,41,127,148
1,41,127,0
1,41,127,0
1,41,127,116
1,48,127,0
1,48,127,48
1,36,127,28
1,34,127,68
1,41,127,24
1,41,127,64
1,34,127,36
1,39,127,128
1,45,127,40
1,46,127,52
1,39,127,24
1,39,127,64
1,45,127,56
1,46,127,64
1,39,127,28
1,41,127,64
1,48,127,0
1,48,127,48
1,36,127,28
1,34,127,68
1,41,127,24
1,41,127,64
1,34,127,36
1,39,127,128
1,46,127,24
1,46,127,64
1,39,127,36
1,36,127,128
1,43,127,0
1,43,127,48
1,31,127,28
1,41,127,68
1,48,127,12
1,48,127,48
1,41,127,24
1,35,127,28
1,34,127,48
1,41,127,12
1,41,127,48
1,34,127,24
1,37,127,28
1,36,127,48
1,43,127,12
1,43,127,48
1,36,127,24
1,37,127,28
1,36,127,48
1,43,127,0
1,43,127,48
1,31,127,28
1,41,127,68
1,48,127,0
1,48,127,48
1,36,127,28
1,34,127,68
1,41,127,0
1,41,127,48
1,29,127,28
1,43,127,68
1,50,127,12
1,50,127,48
1,43,127,24
1,37,127,28
1,36,127,48
1,43,127,0
1,43,127,48
1,31,127,28
1,41,127,68
1,47,127,40
1,48,127,52
1,41,127,24
1,41,127,64
1,47,127,56
1,48,127,64
1,41,127,28
1,38,127,64
1,45,127,16
1,45,127,72
1,50,127,16
1,50,127,64
1,45,127,288
1,45,127,80
1,38,127,0
1,43,127,132
1,43,127,108
1,50,127,28
1,43,127,64
1,43,127,0
1,43,127,128
1,42,127,44
1,42,127,128
1,41,127,44
1,41,127,108
1,48,127,28
1,41,127,64
1,41,127,0
1,41,127,128
1,42,127,44
1,42,127,128
1,43,127,44
1,38,127,68
1,50,127,36
1,43,127,48
1,43,127,32
1,43,127,128
1,42,127,44
1,42,127,128
1,41,127,44
1,41,127,84
1,48,127,40
1,41,127,88
1,41,127,48
1,41,127,128
1,42,127,44
1,42,127,128
1,43,127,44
1,50,127,4
1,50,127,60
1,43,127,16
1,43,127,64
1,50,127,0
1,50,127,60
1,44,127,32
1,43,127,144
1,50,127,12
1,50,127,48
1,43,127,24
1,45,127,28
1,44,127,48
1,44,127,52
1,33,127,48
1,33,127,52
1,34,127,48
1,22,127,288
1,41,127,28
1,34,127,40
1,34,127,52
1,22,127,288
1,41,127,40
1,34,127,24
1,34,127,148
1,41,127,12
1,41,127,48
1,34,127,24
1,36,127,28
1,35,127,48
1,35,127,52
1,36,127,48
1,36,127,52
1,37,127,48
1,43,127,52
1,44,127,56
1,48,127,84
1,49,127,32
1,43,127,64
1,44,127,28
1,32,127,16
1,37,127,40
1,44,127,32
1,44,127,64
1,32,127,20
1,37,127,16
1,43,127,112
1,44,127,16
1,32,127,4
1,37,127,116
1,44,127,12
1,44,127,56
1,37,127,32
1,37,127,76
1,44,127,16
1,44,127,68
1,37,127,32
1,37,127,64
1,44,127,40
1,44,127,72
1,37,127,32
1,37,127,80
1,44,127,52
1,44,127,84
1,37,127,0
1,37,127,64
1,44,127,16
1,44,127,68
1,49,127,20
1,44,127,16
1,44,127,60
1,37,127,288
1,37,127,64
1,44,127,288
1,44,127,76
1,37,127,288
1,37,127,68
1,44,127,0
1,44,127,72
1,37,127,36
1,38,127,52
1,45,127,12
1,45,127,68
1,38,127,288
1,38,127,72
1,45,127,288
1,45,127,64
1,38,127,32
1,38,127,64
1,45,127,0
1,45,127,68
1,38,127,32
1,38,127,60
1,45,127,288
1,45,127,64
1,38,127,0
1,38,127,52
1,44,127,52
1,45,127,56
1,49,127,84
1,50,127,32
1,44,127,64
1,45,127,28
1,33,127,16
1,38,127,40
1,45,127,32
1,45,127,64
1,33,127,20
1,38,127,16
1,44,127,112
1,45,127,16
1,33,127,4
1,38,127,116
1,45,127,288
1,45,127,64
1,38,127,24
1,38,127,64
1,45,127,12
1,45,127,60
1,33,127,288
1,38,127,32
1,45,127,32
1,45,127,68
1,38,127,20
1,38,127,60
1,45,127,36
1,45,127,80
1,38,127,0
1,38,127,64
1,45,127,288
1,45,127,64
1,38,127,24
1,38,127,64
1,45,127,12
1,45,127,60
1,33,127,288
1,38,127,32
1,45,127,32
1,45,127,68
1,38,127,20
1,38,127,60
1,45,127,36
1,45,127,80
1,38,127,0
1,37,127,64
1,25,127,288
1,46,127,44
1,37,127,0
1,25,127,380
1,46,127,44
1,37,127,12
1,25,127,32
1,37,127,36
1,46,127,0
1,49,127,92
1,46,127,36
1,37,127,56
1,37,127,40
1,46,127,12
1,46,127,56
1,37,127,32
1,37,127,76
1,46,127,16
1,46,127,68
1,37,127,32
1,37,127,64
1,46,127,40
1,46,127,72
1,37,127,32
1,37,127,80
1,46,127,52
1,46,127,84
1,37,127,0
1,38,127,64
1,48,127,12
1,48,127,68
1,38,127,288
1,38,127,72
1,48,127,288
1,48,127,64
1,38,127,32
1,38,127,64
1,48,127,0
1,48,127,68
1,38,127,32
1,38,127,60
1,48,127,288
1,48,127,64
1,38,127,0
1,38,127,52
1,48,127,16
1,48,127,72
1,50,127,16
1,50,127,64
1,48,127,288
1,48,127,80
1,38,127,0
1,38,127,132
1,48,127,24
1,48,127,64
1,38,127,36
1,40,127,128
1,40,127,52
1,39,127,48
1,39,127,52
1,34,127,48
1,40,127,40
1,41,127,52
1,34,127,24
1,34,127,64
1,40,127,56
1,41,127,64
1,34,127,28
1,34,127,64
1,41,127,24
1,41,127,64
1,34,127,36
1,33,127,128
1,33,127,52
1,44,127,48
1,44,127,52
1,43,127,48
1,50,127,16
1,50,127,72
1,55,127,16
1,55,127,64
1,50,127,288
1,50,127,80
1,43,127,0
1,42,127,132
1,49,127,16
1,49,127,72
1,54,127,16
1,54,127,64
1,49,127,288
1,49,127,80
1,42,127,0
1,41,127,132
1,47,127,52
1,48,127,56
1,52,127,84
1,53,127,32
1,47,127,64
1,48,127,28
1,36,127,16
1,41,127,40
1,48,127,32
1,48,127,64
1,36,127,20
1,41,127,16
1,47,127,112
1,48,127,16
1,36,127,4
1,41,127,116
1,48,127,24
1,48,127,64
1,41,127,36
1,41,127,128
1,41,127,52
1,42,127,48
1,42,127,52
1,43,127,48
1,50,127,12
1,50,127,48
1,43,127,24
1,44,127,28
1,43,127,48
1,43,127,52
1,42,127,48
1,42,127,52
1,41,127,48
1,48,127,24
1,48,127,64
1,41,127,36
1,41,127,128
1,41,127,52
1,42,127,48
1,42,127,52
1,43,127,48
1,50,127,4
1,43,127,0
1,43,127,96
1,43,127,52
1,44,127,48
1,44,127,52
1,33,127,48
1,40,127,12
1,40,127,48
1,33,127,24
1,34,127,28
1,33,127,48
1,33,127,52
1,44,127,48
1,44,127,52
1,43,127,48
1,50,127,4
1,43,127,0
1,43,127,96
1,43,127,52
1,42,127,48
1,42,127,52
1,41,127,48
1,48,127,24
1,48,127,64
1,41,127,36
1,41,127,128
1,41,127,52
1,42,127,48
1,42,127,52
1,43,127,48
1,49,127,40
1,50,127,52
1,43,127,24
1,43,127,64
1,49,127,56
1,50,127,64
1,43,127,28
1,41,127,64
1,36,127,68
1,48,127,36
1,34,127,48
1,34,127,128
1,34,127,144
1,41,127,24
1,40,127,44
1,39,127,92
1,39,127,108
1,46,127,48
1,39,127,288
1,39,127,64
1,39,127,140
1,46,127,4
1,39,127,20
1,33,127,144
1,29,127,68
1,41,127,36
1,38,127,48
1,38,127,128
1,38,127,148
1,45,127,0
1,38,127,0
1,43,127,116
1,43,127,128
1,43,127,44
1,43,127,128
1,43,127,140
1,43,127,144
1,50,127,24
1,42,127,44
1,41,127,92
1,41,127,84
1,48,127,40
1,34,127,88
1,34,127,144
1,34,127,144
1,41,127,24
1,40,127,44
1,39,127,92
1,39,127,100
1,46,127,68
1,39,127,16
1,39,127,120
1,39,127,144
1,46,127,24
1,34,127,48
1,33,127,144
1,33,127,108
1,41,127,28
1,38,127,64
1,38,127,96
1,38,127,148
1,45,127,0
1,38,127,0
1,43,127,116
1,49,127,80
1,50,127,12
1,53,127,96
1,55,127,96
1,55,127,24
1,49,127,132
1,50,127,16
1,43,127,44
1,36,127,132
1,30,127,68
1,42,127,36
1,43,127,48
1,43,127,128
1,43,127,144
1,50,127,0
1,38,127,8
1,36,127,80
1,36,127,128
1,38,127,44
1,38,127,128
1,43,127,140
1,43,127,148
1,50,127,0
1,43,127,0
1,36,127,116
1,31,127,68
1,43,127,36
1,38,127,48
1,38,127,128
1,38,127,148
1,45,127,0
1,38,127,0
1,43,127,116
1,43,127,128
1,42,127,44
1,42,127,128
1,41,127,140
1,41,127,148
1,41,127,0
1,41,127,0
1,41,127,116
1,48,127,12
1,48,127,48
1,41,127,24
1,35,127,28
1,34,127,48
1,41,127,24
1,41,127,64
1,34,127,36
1,39,127,128
1,46,127,16
1,46,127,72
1,51,127,16
1,51,127,64
1,46,127,288
1,46,127,80
1,39,127,0
1,41,127,132
1,48,127,24
1,48,127,64
1,41,127,36
1,34,127,128
1,41,127,12
1,41,127,48
1,34,127,24
1,40,127,28
1,39,127,48
1,46,127,4
1,39,127,0
1,36,127,96
1,43,127,24
1,43,127,64
1,36,127,36
1,41,127,128
1,48,127,12
1,48,127,48
1,41,127,24
1,35,127,28
1,34,127,48
1,41,127,4
1,34,127,0
1,36,127,96
1,43,127,0
1,43,127,48
1,31,127,28
1,36,127,68
1,43,127,4
1,36,127,0
1,41,127,96
1,48,127,4
1,41,127,0
1,34,127,96
1,41,127,0
1,41,127,48
1,29,127,28
1,43,127,68
1,50,127,4
1,43,127,0
1,36,127,96
1,43,127,24
1,43,127,64
1,36,127,36
1,41,127,128
1,48,127,16
1,48,127,72
1,53,127,16
1,53,127,64
1,48,127,288
1,48,127,80
1,41,127,0
1,38,127,132
1,44,127,48
1,45,127,40
1,38,127,24
1,38,127,56
1,45,127,0
1,45,127,56
1,38,127,4
1,43,127,128
1,50,127,24
1,50,127,64
1,43,127,36
1,43,127,128
1,43,127,52
1,42,127,48
1,42,127,52
1,41,127,48
1,48,127,24
1,48,127,64
1,41,127,36
1,41,127,128
1,41,127,52
1,42,127,48
1,42,127,52
1,43,127,48
1,50,127,24
1,50,127,64
1,43,127,36
1,43,127,128
1,43,127,52
1,42,127,48
1,42,127,52
1,41,127,48
1,48,127,24
1,48,127,64
1,41,127,36
1,41,127,128
1,41,127,52
1,42,127,48
1,42,127,52
1,43,127,48
1,50,127,28
1,50,127,64
1,43,127,28
1,50,127,0
1,43,127,76
1,43,127,80
1,43,127,88
1,41,127,192
1,43,127,144
2,51,127,7680
2,65,127,0
2,56,127,0
2,60,127,0
2,63,127,192
2,68,127,0
2,72,127,48
2,77,127,96
2,67,127,32
2,63,127,0
2,60,127,0
2,56,127,0
2,62,127,0
2,65,127,0
2,55,127,0
2,58,127,0
2,51,127,32
2,55,127,48
2,71,127,0
2,60,127,0
2,65,127,0
2,60,127,32
2,64,127,0
2,54,127,0
2,71,127,0
2,56,127,0
2,60,127,192
2,66,127,0
2,69,127,48
2,74,127,96
2,54,127,32
2,69,127,0
2,58,127,0
2,62,127,0
2,53,127,0
2,69,127,0
2,58,127,0
2,62,127,0
2,52,127,96
2,67,127,0
2,58,127,0
