track,note,velocity,time
7,66,93,480
7,67,104,124
7,66,0,4
7,67,0,118
7,69,109,2
7,69,0,71
7,69,110,41
7,67,97,241
7,69,0,5
7,66,89,195
7,67,0,1
7,66,0,21
7,66,102,25
7,67,93,241
7,66,0,9
7,67,0,124
7,62,78,183
7,69,98,39
7,62,0,6
7,67,102,108
7,69,0,12
7,67,0,187
7,66,90,0
7,66,0,29
7,66,98,12
7,67,90,241
7,66,0,3
7,67,0,144
7,64,89,46
7,71,104,43
7,64,0,7
7,69,100,230
7,71,0,6
7,69,0,132
7,64,87,64
7,64,0,24
7,67,94,1
7,71,103,29
7,67,0,2
7,69,101,228
7,71,0,8
7,69,0,145
7,69,102,54
7,69,0,33
7,71,108,1
7,71,0,84
7,69,96,2
7,69,0,38
7,71,103,2
7,69,100,71
7,71,0,2
7,69,0,125
7,69,102,119
7,69,0,33
7,71,109,1
7,69,97,77
7,71,0,3
7,69,0,39
7,71,109,0
7,74,103,68
7,71,0,4
7,71,100,115
7,74,0,2
7,71,0,34
7,69,91,2
7,67,86,29
7,69,0,5
7,67,0,28
7,69,104,78
7,67,105,244
7,69,0,6
7,67,0,111
7,66,83,73
7,66,0,20
7,66,107,21
7,67,101,237
7,66,0,6
7,67,0,144
7,62,91,60
7,69,102,40
7,62,0,3
7,67,99,233
7,69,0,2
7,66,100,195
7,67,0,6
7,66,0,21
7,66,101,16
7,67,101,217
7,66,0,3
7,67,0,158
7,64,89,70
7,71,105,39
7,64,0,2
7,72,91,165
7,71,0,2
7,71,107,33
7,72,0,2
7,69,101,40
7,71,0,5
7,69,0,94
7,64,92,81
7,71,105,47
7,64,0,6
7,72,103,162
7,71,0,9
7,71,100,27
7,72,0,5
7,69,99,42
7,71,0,6
7,69,0,165
7,71,103,252
7,71,0,46
7,69,108,0
7,69,0,76
7,71,112,0
7,74,108,114
7,71,0,8
7,74,0,360
7,71,97,1
7,71,0,27
7,71,106,20
7,69,74,109
7,71,0,1
7,69,0,10
7,67,103,2
7,67,0,434
7,59,98,524
7,62,91,72
7,59,0,7
7,69,99,42
7,62,0,8
7,67,93,59
7,69,0,8
7,67,0,125
7,59,96,155
7,59,0,76
7,62,91,1
7,69,100,45
7,62,0,1
7,67,100,66
7,69,0,7
7,67,0,144
7,59,84,103
7,60,103,38
7,59,0,3
7,64,83,66
7,60,0,8
7,71,105,35
7,64,0,7
7,69,97,60
7,71,0,8
7,69,0,286
7,71,98,137
7,71,0,33
7,69,106,3
7,69,0,29
7,71,101,3
7,71,0,20
7,71,105,17
7,71,0,80
7,69,93,0
7,69,0,40
7,66,104,0
7,66,0,74
7,62,85,5
7,59,102,41
7,62,0,8
7,59,0,74
7,62,90,5
7,69,107,37
7,62,0,4
7,67,103,69
7,69,0,5
7,67,0,118
7,59,105,164
7,59,0,71
7,62,100,1
7,69,108,45
7,62,0,3
7,67,103,115
7,69,0,9
7,67,0,129
7,60,100,103
7,60,0,61
7,64,104,2
7,71,104,111
7,64,0,11
7,69,104,38
7,71,0,6
7,69,0,253
7,66,93,93
7,66,0,18
7,66,104,20
7,66,0,53
7,66,101,25
7,67,108,37
7,66,0,13
7,69,107,58
7,67,0,2
7,69,0,72
7,69,109,92
7,67,104,242
7,69,0,7
7,66,102,184
7,67,0,1
7,66,0,23
7,66,103,21
7,67,104,243
7,66,0,3
7,67,0,153
7,62,92,47
7,69,110,37
7,62,0,1
7,67,106,241
7,69,0,6
7,66,99,185
7,67,0,3
7,66,0,24
7,66,100,21
7,67,99,191
7,66,0,8
7,67,0,18
7,67,109,17
7,67,0,141
7,64,97,67
7,71,105,41
7,64,0,1
7,69,107,240
7,71,0,1
7,69,0,133
7,64,101,46
7,64,0,29
7,67,103,0
7,71,109,29
7,67,0,3
7,69,110,236
7,71,0,4
7,69,0,161
7,69,109,36
7,69,0,37
7,71,109,0
7,71,0,78
7,69,99,0
7,69,0,36
7,71,110,4
7,71,0,48
7,71,111,28
7,71,0,128
7,69,97,123
7,71,108,30
7,69,0,4
7,69,103,78
7,71,0,2
7,69,0,33
7,71,107,1
7,75,107,84
7,71,0,5
7,75,0,60
7,63,105,48
7,65,107,37
7,63,0,8
7,68,108,23
7,65,0,3
7,68,0,26
7,70,106,76
7,68,100,242
7,70,0,9
7,67,101,184
7,68,0,4
7,67,0,18
7,67,105,22
7,68,108,232
7,67,0,2
7,68,0,168
7,65,89,42
7,70,105,37
7,65,0,1
7,70,0,242
7,68,102,1
7,67,91,187
7,68,0,3
7,67,0,23
7,67,106,22
7,68,109,213
7,67,0,5
7,68,0,140
7,65,104,78
7,72,110,44
7,65,0,10
7,73,111,107
7,72,0,3
7,72,95,74
7,73,0,6
7,70,102,38
7,72,0,6
7,70,0,113
7,65,95,71
7,65,0,56
7,72,105,1
7,73,107,72
7,72,0,7
7,72,104,82
7,73,0,10
7,70,103,60
7,72,0,4
7,70,0,200
7,72,109,245
7,70,112,41
7,72,0,6
7,70,0,70
7,72,114,0
7,75,111,108
7,72,0,6
7,75,0,432
7,75,106,42
7,75,0,19
7,75,101,28
7,73,111,70
7,75,0,13
7,75,115,38
7,73,0,10
7,73,102,57
7,75,0,7
7,73,0,135
7,75,104,153
7,73,110,65
7,75,0,1
7,73,0,124
7,75,103,0
7,73,108,44
7,75,0,5
7,73,0,141
7,73,112,62
7,72,100,205
7,73,0,5
7,72,0,32
7,73,111,1
7,72,103,41
7,73,0,2
7,70,108,174
7,72,0,6
7,70,0,56
7,65,109,1
7,68,109,81
7,65,0,6
7,68,0,109
7,73,110,203
7,73,0,28
7,73,110,8
7,73,0,28
7,73,108,12
7,73,0,81
7,72,104,1
7,73,108,48
7,72,0,3
7,72,98,61
7,73,0,3
7,72,0,143
7,73,107,97
7,72,103,130
7,73,0,5
7,73,112,34
7,72,0,2
7,72,107,57
7,73,0,2
7,72,0,173
7,70,99,3
7,75,112,61
7,70,0,3
7,75,0,501
7,76,110,0
7,76,0,331
7,76,98,20
7,76,0,24
7,76,97,18
7,76,0,24
7,76,104,17
7,76,0,29
7,76,95,13
7,76,0,21
7,71,108,14
7,69,107,241
7,71,0,7
7,68,108,187
7,69,0,4
7,68,0,21
7,68,102,15
7,69,105,247
7,68,0,6
7,69,0,108
7,71,104,208
7,71,0,21
7,71,110,20
7,71,0,116
7,69,107,4
7,68,107,185
7,69,0,3
7,68,0,26
7,68,103,19
7,69,106,243
7,68,0,2
7,69,0,159
7,73,107,41
7,73,0,20
7,73,107,18
7,71,105,237
7,73,0,3
7,66,101,188
7,71,0,4
7,69,101,16
7,66,0,8
7,69,0,24
7,73,109,5
7,71,109,229
7,73,0,10
7,71,0,132
7,73,106,67
7,73,0,30
7,73,112,8
7,73,0,73
7,71,104,11
7,73,116,41
7,71,0,3
7,73,0,39
7,73,114,77
7,73,0,88
7,71,112,100
7,71,0,40
7,73,116,3
7,73,0,74
7,71,114,5
7,73,112,49
7,71,0,5
7,77,111,54
7,73,0,2
7,77,0,88
7,65,100,55
7,67,93,33
7,65,0,6
7,70,107,29
7,67,0,14
7,70,0,14
7,72,110,58
7,70,116,232
7,72,0,6
7,70,0,187
7,69,115,10
7,69,0,31
7,69,109,10
7,70,112,238
7,69,0,9
7,70,0,151
7,72,104,167
7,72,0,21
7,72,106,17
7,70,112,117
7,72,0,2
7,70,0,190
7,69,111,4
7,69,0,20
7,69,110,22
7,70,112,243
7,69,0,5
7,70,0,137
7,67,105,55
7,74,115,45
7,67,0,3
7,75,111,120
7,74,0,3
7,74,110,42
7,75,0,9
7,72,109,36
7,74,0,2
7,72,0,110
7,67,103,108
7,74,113,47
7,67,0,5
7,75,107,65
7,74,0,3
7,74,109,87
7,75,0,13
7,74,0,52
7,72,109,0
7,72,0,135
7,74,107,318
7,72,116,45
7,74,0,3
7,74,115,61
7,72,0,6
7,77,117,118
7,74,0,3
7,77,0,324
7,77,109,23
7,77,0,34
7,77,116,22
7,77,0,85
7,77,115,36
7,77,0,111
8,43,61,535
8,62,60,0
8,71,64,0
8,67,60,0
8,59,72,0
8,67,0,90
8,71,0,4
8,62,0,2
8,67,57,21
8,62,63,0
8,71,55,1
8,67,0,106
8,62,0,2
8,71,0,0
8,62,50,13
8,67,62,0
8,71,55,0
8,62,0,105
8,67,0,1
8,71,0,0
8,67,61,18
8,62,54,0
8,71,59,0
8,71,0,79
8,59,0,1
8,67,0,9
8,62,0,5
8,43,0,14
8,59,75,9
8,40,62,1
8,62,55,0
8,64,61,1
8,67,43,1
8,71,53,1
8,71,0,90
8,67,0,2
8,62,0,12
8,64,0,0
8,62,54,15
8,64,56,0
8,71,64,1
8,67,58,0
8,67,0,86
8,71,0,3
8,62,0,3
8,64,0,4
8,64,55,23
8,62,68,0
8,67,63,0
8,71,65,1
8,71,0,89
8,67,0,2
8,62,0,5
8,64,0,7
8,62,55,16
8,64,66,0
8,67,64,0
8,71,64,1
8,40,0,77
8,59,0,16
8,67,0,8
8,71,0,3
8,64,0,2
8,62,0,0
8,45,70,9
8,60,69,1
8,72,54,1
8,64,60,0
8,69,72,0
8,60,0,93
8,69,0,5
8,64,0,4
8,64,57,16
8,69,73,2
8,60,57,0
8,60,0,94
8,69,0,2
8,64,0,4
8,64,60,18
8,69,67,0
8,60,67,1
8,69,0,103
8,60,0,3
8,64,0,5
8,64,57,11
8,60,68,0
8,69,66,0
8,69,0,111
8,60,0,1
8,64,0,3
8,45,0,5
8,72,0,5
8,62,58,113
8,66,65,0
8,66,0,108
8,62,0,2
8,64,62,10
8,67,64,0
8,66,65,120
8,69,61,0
8,64,0,1
8,67,0,14
8,66,0,89
8,69,0,8
8,71,51,128
8,66,57,0
8,67,49,0
8,62,43,0
8,67,0,139
8,62,0,1
8,66,0,5
8,71,0,5
8,62,56,90
8,66,56,0
8,67,54,0
8,71,50,0
8,71,0,134
8,67,0,1
8,66,0,14
8,62,0,5
8,62,51,86
8,66,55,0
8,71,56,0
8,67,55,0
8,71,0,145
8,67,0,3
8,62,0,17
8,66,0,1
8,67,77,74
8,67,0,96
8,66,68,24
8,59,54,0
8,66,0,192
8,59,0,20
8,67,69,24
8,64,54,4
8,59,59,4
8,59,0,185
8,67,0,3
8,64,0,23
8,63,69,25
8,67,54,0
8,59,53,4
8,67,0,164
8,59,0,31
8,63,0,19
8,62,53,22
8,64,62,0
8,67,62,0
8,59,51,0
8,67,0,209
8,64,0,0
8,59,0,4
8,62,0,2
8,60,55,25
8,69,55,0
8,64,45,0
8,69,0,179
8,60,0,2
8,64,0,1
8,64,52,58
8,67,62,0
8,60,36,0
8,60,0,202
8,67,0,5
8,64,0,3
8,64,55,30
8,60,54,0
8,69,56,0
8,69,0,187
8,60,0,0
8,64,0,8
8,60,55,45
8,64,55,0
8,67,57,4
8,64,0,211
8,60,0,2
8,67,0,14
8,62,59,9
8,60,59,0
8,66,59,0
8,69,59,0
8,69,0,167
8,60,0,8
8,66,0,3
8,62,0,8
8,62,57,54
8,66,57,0
8,69,57,0
8,60,57,0
8,60,0,197
8,69,0,1
8,66,0,2
8,62,0,5
8,62,59,35
8,66,59,0
8,60,59,0
8,69,59,0
8,69,0,190
8,66,0,3
8,60,0,2
8,62,0,9
8,62,57,36
8,66,57,0
8,60,57,0
8,69,57,0
8,66,0,227
8,69,0,2
8,60,0,0
8,62,0,4
8,71,51,7
8,62,43,0
8,67,49,0
8,66,57,0
8,66,0,145
8,67,0,15
8,67,54,40
8,71,0,20
8,62,0,4
8,62,56,16
8,66,56,0
8,71,50,0
8,67,0,95
8,66,0,93
8,71,0,20
8,62,0,4
8,67,55,28
8,66,55,0
8,62,51,0
8,71,56,0
8,67,0,148
8,66,0,18
8,62,0,30
8,71,0,4
8,66,55,40
8,62,51,0
8,71,56,0
8,67,57,120
8,66,0,28
8,62,0,40
8,71,0,28
8,67,0,0
8,66,68,24
8,59,54,0
8,64,55,2
8,59,0,210
8,66,0,16
8,64,0,2
8,67,69,6
8,64,54,4
8,59,59,4
8,59,0,185
8,67,0,3
8,64,0,23
8,63,69,25
8,67,54,0
8,59,53,0
8,63,0,152
8,67,0,16
8,59,0,27
8,63,69,5
8,62,53,40
8,64,62,0
8,67,62,0
8,59,51,0
8,63,0,20
8,67,0,189
8,64,0,0
8,59,0,4
8,62,0,2
8,60,55,25
8,69,55,0
8,64,45,0
8,69,0,179
8,60,0,2
8,64,0,1
8,64,52,58
8,67,62,0
8,60,36,0
8,67,0,160
8,67,62,40
8,60,0,2
8,64,0,8
8,64,55,30
8,60,54,0
8,69,56,0
8,67,0,16
8,69,0,171
8,60,0,0
8,64,0,8
8,67,57,5
8,60,55,40
8,64,55,0
8,67,0,187
8,64,0,28
8,60,0,2
8,62,59,23
8,60,59,0
8,64,59,0
8,69,59,0
8,69,0,167
8,60,0,8
8,64,0,3
8,62,0,8
8,62,57,54
8,64,57,0
8,69,57,0
8,60,57,0
8,64,0,148
8,60,0,49
8,69,0,1
8,66,59,2
8,62,0,5
8,62,59,35
8,60,59,0
8,69,59,0
8,66,0,153
8,69,0,37
8,60,0,5
8,62,0,9
8,62,57,36
8,66,57,0
8,60,57,0
8,69,57,0
8,62,0,104
8,66,0,4
8,62,57,12
8,66,57,0
8,62,0,104
8,66,0,4
8,60,0,1
8,69,0,0
8,78,91,11
8,74,91,0
8,74,0,85
8,78,0,0
8,78,81,35
8,74,81,0
8,74,0,67
8,78,0,22
8,74,93,31
8,71,93,0
8,74,0,91
8,71,0,1
8,74,87,28
8,71,87,0
8,71,0,78
8,74,0,5
8,78,89,37
8,74,89,0
8,74,0,88
8,78,0,0
8,74,96,32
8,78,96,0
8,74,0,70
8,78,0,7
8,74,79,43
8,76,84,0
8,72,80,0
8,72,0,74
8,74,0,10
8,76,0,3
8,74,98,33
8,76,79,0
8,72,98,0
8,72,0,75
8,74,0,9
8,76,0,3
8,67,64,33
8,62,55,0
8,66,60,0
8,71,60,0
8,62,0,61
8,66,0,9
8,62,56,10
8,67,0,20
8,66,63,20
8,67,57,0
8,71,0,52
8,62,0,4
8,67,0,20
8,66,0,3
8,62,72,1
8,71,50,40
8,66,47,0
8,67,61,0
8,62,0,51
8,62,72,29
8,66,0,6
8,67,0,22
8,66,57,12
8,67,63,0
8,62,0,47
8,62,54,33
8,66,0,15
8,71,0,2
8,67,0,5
8,67,69,18
8,64,64,0
8,62,0,9
8,59,48,71
8,67,0,10
8,64,0,10
8,64,53,20
8,67,69,0
8,59,0,72
8,59,55,8
8,64,0,15
8,67,0,17
8,67,65,8
8,64,65,0
8,59,0,64
8,59,58,16
8,64,0,13
8,67,0,3
8,64,61,24
8,67,69,0
8,59,0,60
8,59,54,20
8,64,0,10
8,67,0,7
8,64,64,23
8,69,64,0
8,59,0,6
8,60,55,74
8,64,0,14
8,69,0,16
8,64,57,10
8,69,65,0
8,60,0,78
8,60,51,2
8,64,0,21
8,69,0,5
8,69,63,14
8,64,62,0
8,60,0,74
8,60,59,6
8,69,0,24
8,64,0,6
8,69,68,10
8,64,68,0
8,60,0,70
8,60,61,10
8,64,0,14
8,69,0,10
8,62,63,16
8,64,58,0
8,60,0,11
8,60,61,69
8,64,0,22
8,62,0,8
8,64,63,10
8,62,55,0
8,60,0,50
8,60,57,30
8,64,0,22
8,62,0,12
8,64,61,6
8,62,53,0
8,60,0,66
8,60,58,14
8,64,0,22
8,62,0,12
8,64,54,6
8,62,55,0
8,60,0,54
8,60,60,26
8,64,0,18
8,62,0,12
8,67,64,10
8,62,55,0
8,66,60,0
8,71,60,0
8,60,0,6
8,62,0,55
8,66,0,9
8,62,56,10
8,67,0,20
8,66,63,20
8,67,57,0
8,71,0,52
8,62,0,4
8,67,0,20
8,66,0,3
8,62,72,1
8,71,50,40
8,66,47,0
8,67,61,0
8,62,0,51
8,62,72,29
8,66,0,6
8,67,0,22
8,66,57,12
8,67,63,0
8,62,0,47
8,62,54,33
8,66,0,15
8,71,0,2
8,67,0,5
8,67,69,18
8,64,64,0
8,62,0,9
