track,note,velocity,time
1,62,90,3264
1,66,90,256
1,69,90,256
1,72,90,256
1,76,90,256
1,66,90,1600
1,60,90,0
1,57,90,0
1,59,90,64
1,66,90,64
1,60,90,0
1,57,90,0
1,59,90,64
1,66,90,64
1,60,90,0
1,57,90,0
1,59,90,64
1,66,90,64
1,60,90,0
1,57,90,0
1,66,90,1792
1,60,90,0
1,57,90,0
1,59,90,64
1,66,90,64
1,60,90,0
1,57,90,0
1,59,90,64
1,66,90,64
1,60,90,0
1,57,90,0
1,59,90,64
1,66,90,64
1,60,90,0
1,57,90,0
1,65,90,1792
1,59,90,0
1,55,90,0
1,64,90,64
1,65,90,64
1,59,90,0
1,55,90,0
1,64,90,64
1,65,90,64
1,59,90,0
1,55,90,0
1,64,90,64
1,65,90,64
1,59,90,0
1,55,90,0
1,66,90,1792
1,60,90,0
1,57,90,0
1,59,90,64
1,66,90,64
1,60,90,0
1,57,90,0
1,59,90,64
1,66,90,64
1,60,90,0
1,57,90,0
1,59,90,64
1,66,90,64
1,60,90,0
1,57,90,0
1,69,90,1792
1,64,90,0
1,61,90,0
1,57,90,0
1,69,90,256
1,64,90,0
1,61,90,0
1,57,90,0
1,67,90,1024
1,62,90,0
1,59,90,0
1,55,90,0
1,67,90,256
1,62,90,0
1,59,90,0
1,55,90,0
1,62,90,832
1,66,90,256
1,69,90,256
1,72,90,256
1,76,90,256
1,66,90,1600
1,60,90,0
1,57,90,0
1,59,90,64
1,66,90,64
1,60,90,0
1,57,90,0
1,59,90,64
1,66,90,64
1,60,90,0
1,57,90,0
1,59,90,64
1,66,90,64
1,60,90,0
1,57,90,0
1,66,90,1792
1,60,90,0
1,57,90,0
1,59,90,64
1,66,90,64
1,60,90,0
1,57,90,0
1,59,90,64
1,66,90,64
1,60,90,0
1,57,90,0
1,59,90,64
1,66,90,64
1,60,90,0
1,57,90,0
1,65,90,1792
1,59,90,0
1,55,90,0
1,64,90,64
1,65,90,64
1,59,90,0
1,55,90,0
1,64,90,64
1,65,90,64
1,59,90,0
1,55,90,0
1,64,90,64
1,65,90,64
1,59,90,0
1,55,90,0
1,66,90,1792
1,60,90,0
1,57,90,0
1,59,90,64
1,66,90,64
1,60,90,0
1,57,90,0
1,59,90,64
1,66,90,64
1,60,90,0
1,57,90,0
1,59,90,64
1,66,90,64
1,60,90,0
1,57,90,0
1,69,90,1792
1,64,90,0
1,61,90,0
1,57,90,0
1,69,90,256
1,64,90,0
1,61,90,0
1,57,90,0
1,67,90,1024
1,62,90,0
1,59,90,0
1,55,90,0
1,67,90,256
1,62,90,0
1,59,90,0
1,55,90,0
1,62,90,832
1,66,90,256
1,69,90,256
1,72,90,256
1,76,90,256
1,65,90,7360
1,59,90,0
1,55,90,0
1,65,90,96
1,59,90,0
1,55,90,0
1,65,90,32
1,59,90,0
1,55,90,0
1,65,90,1024
1,59,90,0
1,55,90,0
1,65,90,96
1,59,90,0
1,55,90,0
1,65,90,32
1,59,90,0
1,55,90,0
1,66,90,1024
1,60,90,0
1,57,90,0
1,66,90,96
1,60,90,0
1,57,90,0
1,66,90,32
1,60,90,0
1,57,90,0
1,66,90,1024
1,60,90,0
1,57,90,0
1,66,90,96
1,60,90,0
1,57,90,0
1,66,90,32
1,60,90,0
1,57,90,0
1,65,90,1024
1,59,90,0
1,55,90,0
1,65,90,96
1,59,90,0
1,55,90,0
1,65,90,32
1,59,90,0
1,55,90,0
1,65,90,1024
1,59,90,0
1,55,90,0
1,65,90,96
1,59,90,0
1,55,90,0
1,65,90,32
1,59,90,0
1,55,90,0
1,69,90,1024
1,64,90,0
1,61,90,0
1,57,90,0
1,69,90,256
1,64,90,0
1,61,90,0
1,57,90,0
1,69,90,256
1,64,90,0
1,61,90,0
1,57,90,0
1,69,90,256
1,64,90,0
1,61,90,0
1,57,90,0
1,69,90,256
1,64,90,0
1,61,90,0
1,57,90,0
1,66,90,1792
1,60,90,0
1,57,90,0
1,59,90,64
1,66,90,64
1,60,90,0
1,57,90,0
1,59,90,64
1,66,90,64
1,60,90,0
1,57,90,0
1,59,90,64
1,66,90,64
1,60,90,0
1,57,90,0
1,66,90,1792
1,60,90,0
1,57,90,0
1,59,90,64
1,66,90,64
1,60,90,0
1,57,90,0
1,59,90,64
1,66,90,64
1,60,90,0
1,57,90,0
1,59,90,64
1,66,90,64
1,60,90,0
1,57,90,0
1,65,90,1792
1,59,90,0
1,55,90,0
1,64,90,64
1,65,90,64
1,59,90,0
1,55,90,0
1,64,90,64
1,65,90,64
1,59,90,0
1,55,90,0
1,64,90,64
1,65,90,64
1,59,90,0
1,55,90,0
1,66,90,1792
1,60,90,0
1,57,90,0
1,59,90,64
1,66,90,64
1,60,90,0
1,57,90,0
1,59,90,64
1,66,90,64
1,60,90,0
1,57,90,0
1,59,90,64
1,66,90,64
1,60,90,0
1,57,90,0
1,69,90,1792
1,64,90,0
1,61,90,0
1,57,90,0
1,69,90,256
1,64,90,0
1,61,90,0
1,57,90,0
1,67,90,1024
1,62,90,0
1,59,90,0
1,55,90,0
1,67,90,256
1,62,90,0
1,59,90,0
1,55,90,0
1,62,90,832
1,66,90,256
1,69,90,256
1,72,90,256
1,76,90,256
1,66,90,1600
1,60,90,0
1,57,90,0
1,59,90,64
1,66,90,64
1,60,90,0
1,57,90,0
1,59,90,64
1,66,90,64
1,60,90,0
1,57,90,0
1,59,90,64
1,66,90,64
1,60,90,0
1,57,90,0
1,66,90,1792
1,60,90,0
1,57,90,0
1,59,90,64
1,66,90,64
1,60,90,0
1,57,90,0
1,59,90,64
1,66,90,64
1,60,90,0
1,57,90,0
1,59,90,64
1,66,90,64
1,60,90,0
1,57,90,0
1,65,90,1792
1,59,90,0
1,55,90,0
1,64,90,64
1,65,90,64
1,59,90,0
1,55,90,0
1,64,90,64
1,65,90,64
1,59,90,0
1,55,90,0
1,64,90,64
1,65,90,64
1,59,90,0
1,55,90,0
1,66,90,1792
1,60,90,0
1,57,90,0
1,59,90,64
1,66,90,64
1,60,90,0
1,57,90,0
1,59,90,64
1,66,90,64
1,60,90,0
1,57,90,0
1,59,90,64
1,66,90,64
1,60,90,0
1,57,90,0
1,69,90,1792
1,64,90,0
1,61,90,0
1,57,90,0
1,69,90,256
1,64,90,0
1,61,90,0
1,57,90,0
1,67,90,1024
1,62,90,0
1,59,90,0
1,55,90,0
1,67,90,256
1,62,90,0
1,59,90,0
1,55,90,0
1,62,90,832
1,66,90,256
1,69,90,256
1,72,90,256
1,76,90,256
1,65,90,7360
1,59,90,0
1,55,90,0
1,65,90,96
1,59,90,0
1,55,90,0
1,65,90,32
1,59,90,0
1,55,90,0
1,65,90,1024
1,59,90,0
1,55,90,0
1,65,90,96
1,59,90,0
1,55,90,0
1,65,90,32
1,59,90,0
1,55,90,0
1,66,90,1024
1,60,90,0
1,57,90,0
1,66,90,96
1,60,90,0
1,57,90,0
1,66,90,32
1,60,90,0
1,57,90,0
1,66,90,1024
1,60,90,0
1,57,90,0
1,66,90,96
1,60,90,0
1,57,90,0
1,66,90,32
1,60,90,0
1,57,90,0
1,65,90,1024
1,59,90,0
1,55,90,0
1,65,90,96
1,59,90,0
1,55,90,0
1,65,90,32
1,59,90,0
1,55,90,0
1,65,90,1024
1,59,90,0
1,55,90,0
1,65,90,96
1,59,90,0
1,55,90,0
1,65,90,32
1,59,90,0
1,55,90,0
1,69,90,1024
1,64,90,0
1,61,90,0
1,57,90,0
1,69,90,256
1,64,90,0
1,61,90,0
1,57,90,0
1,69,90,256
1,64,90,0
1,61,90,0
1,57,90,0
1,69,90,256
1,64,90,0
1,61,90,0
1,57,90,0
1,69,90,256
1,64,90,0
1,61,90,0
1,57,90,0
1,66,90,1792
1,60,90,0
1,57,90,0
1,59,90,64
1,66,90,64
1,60,90,0
1,57,90,0
1,59,90,64
1,66,90,64
1,60,90,0
1,57,90,0
1,59,90,64
1,66,90,64
1,60,90,0
1,57,90,0
1,66,90,1792
1,60,90,0
1,57,90,0
1,59,90,64
1,66,90,64
1,60,90,0
1,57,90,0
1,59,90,64
1,66,90,64
1,60,90,0
1,57,90,0
1,59,90,64
1,66,90,64
1,60,90,0
1,57,90,0
1,65,90,1792
1,59,90,0
1,55,90,0
1,64,90,64
1,65,90,64
1,59,90,0
1,55,90,0
1,64,90,64
1,65,90,64
1,59,90,0
1,55,90,0
1,64,90,64
1,65,90,64
1,59,90,0
1,55,90,0
1,66,90,1792
1,60,90,0
1,57,90,0
1,59,90,64
1,66,90,64
1,60,90,0
1,57,90,0
1,59,90,64
1,66,90,64
1,60,90,0
1,57,90,0
1,59,90,64
1,66,90,64
1,60,90,0
1,57,90,0
1,69,90,1792
1,64,90,0
1,61,90,0
1,57,90,0
1,69,90,256
1,64,90,0
1,61,90,0
1,57,90,0
1,67,90,1024
1,62,90,0
1,59,90,0
1,55,90,0
1,67,90,256
1,62,90,0
1,59,90,0
1,55,90,0
1,62,90,832
1,66,90,256
1,69,90,256
1,72,90,256
1,76,90,256
1,69,90,1600
1,64,90,0
1,61,90,0
1,57,90,0
1,69,90,256
1,64,90,0
1,61,90,0
1,57,90,0
1,67,90,1024
1,62,90,0
1,59,90,0
1,55,90,0
1,67,90,256
1,62,90,0
1,59,90,0
1,55,90,0
1,62,90,832
1,66,90,256
1,69,90,256
1,72,90,256
1,76,90,256
1,69,90,1600
1,64,90,0
1,61,90,0
1,57,90,0
1,69,90,256
1,64,90,0
1,61,90,0
1,57,90,0
1,67,90,1024
1,62,90,0
1,59,90,0
1,55,90,0
1,67,90,256
1,62,90,0
1,59,90,0
1,55,90,0
1,62,90,832
1,66,90,256
1,69,90,256
1,72,90,256
1,76,90,256
1,74,90,256
1,72,90,256
1,69,90,256
1,67,90,256
1,65,90,448
1,62,90,380
1,74,90,0
2,38,127,3264
2,42,127,256
2,45,127,256
2,48,127,256
2,52,127,256
2,38,127,1216
2,50,127,448
2,48,127,256
2,45,127,256
2,38,127,64
2,50,127,448
2,48,127,256
2,45,127,256
2,38,127,64
2,50,127,448
2,48,127,256
2,45,127,256
2,38,127,64
2,50,127,448
2,48,127,256
2,45,127,256
2,43,127,64
2,43,127,448
2,41,127,256
2,38,127,256
2,31,127,64
2,43,127,448
2,41,127,256
2,36,127,256
2,38,127,64
2,50,127,448
2,48,127,256
2,45,127,256
2,38,127,64
2,50,127,448
2,48,127,256
2,45,127,256
2,45,127,448
2,45,127,256
2,43,127,1024
2,43,127,256
2,38,127,832
2,42,127,256
2,45,127,256
2,48,127,256
2,52,127,256
2,38,127,1216
2,50,127,448
2,48,127,256
2,45,127,256
2,38,127,64
2,50,127,448
2,48,127,256
2,45,127,256
2,38,127,64
2,50,127,448
2,48,127,256
2,45,127,256
2,38,127,64
2,50,127,448
2,48,127,256
2,45,127,256
2,43,127,64
2,43,127,448
2,41,127,256
2,38,127,256
2,31,127,64
2,43,127,448
2,41,127,256
2,36,127,256
2,38,127,64
2,50,127,448
2,48,127,256
2,45,127,256
2,38,127,64
2,50,127,448
2,48,127,256
2,45,127,256
2,45,127,448
2,45,127,256
2,43,127,1024
2,43,127,256
2,38,127,832
2,42,127,256
2,45,127,256
2,48,127,256
2,52,127,256
2,38,127,6784
2,41,127,64
2,42,127,64
2,43,127,64
2,43,127,96
2,43,127,32
2,38,127,448
2,41,127,64
2,42,127,64
2,43,127,64
2,43,127,96
2,43,127,32
2,33,127,448
2,36,127,64
2,37,127,64
2,38,127,64
2,38,127,96
2,38,127,32
2,33,127,448
2,36,127,64
2,37,127,64
2,38,127,64
2,38,127,96
2,38,127,32
2,38,127,448
2,41,127,64
2,42,127,64
2,43,127,64
2,43,127,96
2,43,127,32
2,38,127,448
2,41,127,64
2,42,127,64
2,43,127,64
2,43,127,96
2,43,127,32
2,38,127,448
2,43,127,64
2,44,127,64
2,45,127,64
2,45,127,256
2,45,127,256
2,45,127,256
2,45,127,256
2,38,127,1408
2,50,127,448
2,48,127,256
2,45,127,256
2,38,127,64
2,50,127,448
2,48,127,256
2,45,127,256
2,38,127,64
2,50,127,448
2,48,127,256
2,45,127,256
2,38,127,64
2,50,127,448
2,48,127,256
2,45,127,256
2,43,127,64
2,43,127,448
2,41,127,256
2,38,127,256
2,31,127,64
2,43,127,448
2,41,127,256
2,36,127,256
2,38,127,64
2,50,127,448
2,48,127,256
2,45,127,256
2,38,127,64
2,50,127,448
2,48,127,256
2,45,127,256
2,45,127,448
2,45,127,256
2,43,127,1024
2,43,127,256
2,38,127,832
2,42,127,256
2,45,127,256
2,48,127,256
2,52,127,256
2,38,127,1216
2,50,127,448
2,48,127,256
2,45,127,256
2,38,127,64
2,50,127,448
2,48,127,256
2,45,127,256
2,38,127,64
2,50,127,448
2,48,127,256
2,45,127,256
2,38,127,64
2,50,127,448
2,48,127,256
2,45,127,256
2,43,127,64
2,43,127,448
2,41,127,256
2,38,127,256
2,31,127,64
2,43,127,448
2,41,127,256
2,36,127,256
2,38,127,64
2,50,127,448
2,48,127,256
2,45,127,256
2,38,127,64
2,50,127,448
2,48,127,256
2,45,127,256
2,45,127,448
2,45,127,256
2,43,127,1024
2,43,127,256
2,38,127,832
2,42,127,256
2,45,127,256
2,48,127,256
2,52,127,256
2,38,127,6784
2,41,127,64
2,42,127,64
2,43,127,64
2,43,127,96
2,43,127,32
2,38,127,448
2,41,127,64
2,42,127,64
2,43,127,64
2,43,127,96
2,43,127,32
2,33,127,448
2,36,127,64
2,37,127,64
2,38,127,64
2,38,127,96
2,38,127,32
2,33,127,448
2,36,127,64
2,37,127,64
2,38,127,64
2,38,127,96
2,38,127,32
2,38,127,448
2,41,127,64
2,42,127,64
2,43,127,64
2,43,127,96
2,43,127,32
2,38,127,448
2,41,127,64
2,42,127,64
2,43,127,64
2,43,127,96
2,43,127,32
2,38,127,448
2,43,127,64
2,44,127,64
2,45,127,64
2,45,127,256
2,45,127,256
2,45,127,256
2,45,127,256
2,38,127,1408
2,50,127,448
2,48,127,256
2,45,127,256
2,38,127,64
2,50,127,448
2,48,127,256
2,45,127,256
2,38,127,64
2,50,127,448
2,48,127,256
2,45,127,256
2,38,127,64
2,50,127,448
2,48,127,256
2,45,127,256
2,43,127,64
2,43,127,448
2,41,127,256
2,38,127,256
2,31,127,64
2,43,127,448
2,41,127,256
2,36,127,256
2,38,127,64
2,50,127,448
2,48,127,256
2,45,127,256
2,38,127,64
2,50,127,448
2,48,127,256
2,45,127,256
2,45,127,448
2,45,127,256
2,43,127,1024
2,43,127,256
2,38,127,832
2,42,127,256
2,45,127,256
2,48,127,256
2,52,127,256
2,45,127,1600
2,45,127,256
2,43,127,1024
2,43,127,256
2,38,127,832
2,42,127,256
2,45,127,256
2,48,127,256
2,52,127,256
2,45,127,1600
2,45,127,256
2,43,127,1024
2,43,127,256
2,38,127,832
2,42,127,256
2,45,127,256
2,48,127,256
2,52,127,256
2,50,127,256
2,48,127,256
2,45,127,256
2,43,127,256
2,41,127,448
2,38,127,380
3,42,127,0
3,42,127,704
3,42,127,704
3,42,127,320
3,42,127,320
3,42,127,320
3,42,127,320
3,42,127,128
3,38,127,0
3,36,127,0
3,42,127,320
3,38,127,0
3,36,127,0
3,42,127,320
3,38,127,0
3,36,127,0
3,42,127,320
3,38,127,0
3,36,127,0
3,42,127,320
3,38,127,0
3,36,127,0
3,42,127,128
3,42,127,320
3,36,127,128
3,42,127,128
3,38,127,0
3,36,127,128
3,42,127,128
3,36,127,0
3,57,127,0
3,57,127,16
3,42,127,64
3,42,127,128
3,38,127,0
3,42,127,128
3,36,127,0
3,42,127,128
3,42,127,128
3,36,127,0
3,42,127,128
3,38,127,0
3,42,127,128
3,36,127,0
3,42,127,128
3,36,127,0
3,42,127,128
3,42,127,128
3,38,127,0
3,42,127,128
3,36,127,0
3,42,127,128
3,42,127,128
3,36,127,0
3,42,127,128
3,38,127,0
3,49,127,124
3,42,127,4
3,36,127,0
3,57,127,120
3,42,127,4
3,36,127,0
3,42,127,128
3,42,127,124
3,38,127,0
3,42,127,128
3,36,127,0
3,42,127,128
3,42,127,128
3,36,127,0
3,42,127,128
