track,note,velocity,time
1,63,95,2672
1,60,97,0
1,56,99,0
1,63,101,212
1,58,95,0
1,66,104,0
1,66,85,104
1,63,95,4
1,58,82,0
1,61,99,124
1,65,97,4
1,58,87,0
1,58,97,124
1,61,104,0
1,65,94,0
1,61,104,152
1,58,104,0
1,65,100,0
1,56,101,156
1,63,101,0
1,60,97,0
1,56,74,72
1,63,77,0
1,60,81,0
1,54,97,128
1,58,107,0
1,61,101,4
1,63,97,152
1,56,107,0
1,60,97,0
1,58,79,224
1,63,85,0
1,66,78,0
1,66,85,52
1,63,95,4
1,58,82,0
1,61,99,124
1,65,97,4
1,58,87,0
1,58,97,124
1,61,104,0
1,65,94,0
1,61,104,152
1,58,104,0
1,65,100,0
1,56,101,156
1,63,101,0
1,60,97,0
1,56,74,72
1,63,77,0
1,60,81,0
1,54,97,128
1,58,107,0
1,61,101,4
1,63,97,152
1,56,107,0
1,60,97,0
1,58,79,224
1,63,85,0
1,66,78,0
1,66,85,52
1,63,95,4
1,58,82,0
1,61,99,124
1,65,97,4
1,58,87,0
1,58,97,124
1,61,104,0
1,65,94,0
1,61,104,152
1,58,104,0
1,65,100,0
1,56,101,156
1,63,101,0
1,60,97,0
1,56,74,72
1,63,77,0
1,60,81,0
1,54,97,128
1,58,107,0
1,61,101,4
1,63,97,152
1,56,107,0
1,60,97,0
1,58,79,224
1,63,85,0
1,66,78,0
1,66,85,52
1,63,95,4
1,58,82,0
1,61,99,124
1,65,97,4
1,58,87,0
1,58,97,124
1,61,104,0
1,65,94,0
1,61,104,152
1,58,104,0
1,65,100,0
1,68,104,148
1,72,98,0
1,63,104,0
1,63,87,68
1,72,88,0
1,68,99,0
1,70,91,124
1,61,99,0
1,66,104,0
1,68,107,148
1,63,99,0
1,72,95,0
1,70,97,324
1,66,107,8
1,63,104,0
1,63,82,96
1,66,99,0
1,70,93,0
1,70,101,116
1,61,99,0
1,65,94,0
1,61,89,136
1,70,91,0
1,65,90,0
1,70,97,136
1,61,99,0
1,65,92,0
1,63,101,148
1,72,100,0
1,68,110,0
1,63,89,88
1,68,107,0
1,72,97,0
1,70,91,128
1,61,97,0
1,66,104,0
1,68,101,136
1,63,99,8
1,72,94,0
1,70,89,376
1,63,99,0
1,66,99,0
1,66,93,104
1,63,79,0
1,70,85,0
1,70,93,140
1,61,99,0
1,65,95,0
1,70,82,144
1,61,85,0
1,65,76,0
1,70,95,156
1,61,107,0
1,65,95,8
1,68,99,204
1,63,97,0
1,72,94,0
1,70,82,8
1,66,81,0
1,68,87,144
1,72,83,0
1,63,81,0
1,66,91,144
1,73,81,0
1,65,80,0
1,70,73,0
1,77,80,1148
1,75,68,16
1,68,79,0
1,67,76,0
1,72,85,0
1,80,66,784
1,75,67,8
1,73,72,8
1,70,82,0
1,66,81,0
1,65,76,0
1,77,76,12
1,73,74,8
1,82,67,352
1,68,84,164
1,75,71,0
1,72,80,0
1,67,79,0
1,80,71,0
1,75,67,12
1,72,76,0
1,70,67,0
1,68,68,0
1,72,77,88
1,75,67,0
1,67,73,0
1,68,78,0
1,79,73,16
1,75,62,52
1,68,68,0
1,80,74,4
1,72,72,4
1,67,67,0
1,82,77,68
1,84,79,132
1,85,74,20
1,73,78,0
1,68,82,0
1,77,86,0
1,77,80,48
1,73,77,0
1,68,81,0
1,75,78,100
1,68,85,0
1,72,92,0
1,73,70,92
1,65,57,4
1,70,77,0
1,70,101,124
1,65,86,0
1,62,92,4
1,68,101,124
1,65,80,4
1,61,91,0
1,63,97,8
1,65,91,196
1,68,107,180
1,68,77,20
1,72,80,8
1,67,76,8
1,63,82,0
1,68,89,188
1,70,72,156
1,72,70,188
1,73,89,60
1,70,82,8
1,66,68,8
1,70,84,0
1,73,72,180
1,82,81,392
1,75,72,40
1,67,68,8
1,80,67,0
1,72,66,0
1,70,78,64
1,72,87,8
1,75,87,0
1,65,66,4
1,66,73,0
1,70,79,0
1,73,79,0
1,70,93,52
1,73,71,132
1,78,78,388
1,75,71,20
1,68,67,0
1,72,66,0
1,67,64,0
1,80,62,0
1,70,63,56
1,75,63,8
1,72,62,8
1,79,86,0
1,63,89,8
1,67,86,0
1,60,80,4
1,60,66,20
1,68,64,0
1,63,66,0
1,80,85,4
1,65,84,0
1,82,77,32
1,84,92,116
1,73,87,92
1,68,91,0
1,77,91,0
1,77,83,56
1,68,81,0
1,73,81,0
1,75,84,100
1,72,94,8
1,70,89,0
1,73,89,160
1,70,99,4
1,65,91,0
1,74,90,188
1,67,88,212
1,70,95,0
1,75,85,0
1,75,87,108
1,70,97,0
1,67,87,0
1,65,84,124
1,68,101,0
1,73,82,0
1,73,81,124
1,68,93,0
1,65,75,0
1,75,93,136
1,70,104,0
1,67,95,0
1,75,77,68
1,70,87,0
1,67,80,0
1,75,89,108
1,70,99,0
1,67,92,0
1,67,69,20
1,70,67,4
1,75,61,0
1,77,98,112
1,68,99,0
1,72,98,0
1,75,85,140
1,70,93,0
1,67,83,0
1,70,99,92
1,75,97,0
1,67,94,0
1,70,64,4
1,75,64,0
1,68,93,108
1,77,92,0
1,72,98,0
1,73,85,204
1,68,89,0
1,70,93,0
1,65,84,0
1,70,89,104
1,68,93,0
1,73,87,0
1,65,81,0
1,68,95,168
1,70,93,0
1,73,91,0
1,65,87,0
1,70,91,232
1,67,95,0
1,65,97,0
1,61,75,0
1,75,89,0
1,65,86,108
1,70,104,0
1,74,90,4
1,67,100,188
1,72,104,0
1,76,95,4
1,71,80,136
1,72,91,36
1,77,98,8
1,65,80,524
1,68,95,0
1,65,83,188
1,65,91,400
1,68,99,384
1,65,81,92
1,56,91,8
1,61,95,0
1,65,91,0
1,58,85,88
1,67,99,0
1,63,95,0
1,56,91,12
1,65,78,0
1,61,84,8
1,61,97,116
1,68,101,0
1,65,91,4
1,61,91,208
1,56,93,0
1,65,88,0
1,62,95,180
1,70,107,0
1,65,106,0
1,72,91,176
1,64,98,0
1,67,112,0
1,66,63,2732
1,70,68,0
1,73,61,0
1,66,78,32
1,70,82,0
1,73,77,0
1,66,104,40
1,73,101,0
1,70,113,0
1,73,93,28
1,77,98,0
1,68,107,4
1,72,91,44
1,75,84,0
1,67,79,0
1,70,101,68
1,65,88,0
1,73,95,0
1,68,101,96
1,73,95,0
1,65,97,0
1,70,113,96
1,75,95,0
1,67,100,0
1,75,91,76
1,70,104,0
1,67,92,0
1,73,93,32
1,68,110,0
1,65,90,0
1,73,79,124
1,65,77,0
1,68,93,0
1,75,97,40
1,70,107,0
1,67,100,0
1,70,99,120
1,75,91,0
1,67,91,0
1,67,69,20
1,75,77,0
1,70,85,0
1,72,97,148
1,68,93,0
1,77,97,0
1,75,85,180
1,70,99,0
1,67,88,4
1,70,104,96
1,67,92,0
1,75,99,0
1,70,75,76
1,67,71,0
1,75,75,0
1,68,95,48
1,72,98,0
1,77,98,0
1,73,84,188
1,65,79,0
1,68,91,0
1,73,95,96
1,65,84,0
1,68,101,0
1,68,82,76
1,73,78,0
1,65,74,0
1,72,83,48
1,63,95,0
1,68,101,0
1,80,97,488
1,68,84,0
1,68,85,96
1,80,78,4
1,80,69,100
1,68,76,0
1,68,79,32
1,80,79,0
1,68,79,16
1,80,87,0
1,66,66,48
1,78,93,0
1,78,81,88
1,66,77,0
1,77,98,84
1,65,69,8
1,63,84,48
1,75,87,8
1,73,97,84
1,61,75,0
1,75,91,88
1,63,85,0
1,68,85,100
1,72,85,0
1,63,81,0
1,68,91,124
1,63,87,0
1,72,87,8
1,68,74,80
1,72,87,64
1,68,93,0
1,63,87,0
1,66,84,68
1,78,87,0
1,66,72,64
1,78,82,0
1,65,80,112
1,77,102,0
1,75,81,60
1,63,99,0
1,61,79,104
1,73,99,0
1,70,78,64
1,67,88,32
1,72,80,0
1,75,75,0
1,75,75,0
1,72,76,0
1,70,68,216
1,68,67,200
1,66,77,100
1,73,73,4
1,70,82,8
1,65,67,0
1,82,78,1132
1,75,73,68
1,68,84,0
1,67,84,0
1,72,87,0
1,80,61,12
1,75,73,8
1,70,84,8
1,72,66,192
1,68,67,0
1,73,74,76
1,70,75,0
1,66,85,0
1,65,79,0
1,78,63,396
1,73,66,0
1,78,61,352
1,75,79,20
1,68,89,0
1,72,85,0
1,67,79,0
1,80,67,0
1,75,91,16
1,70,99,4
1,72,76,184
1,68,56,204
1,68,61,8
1,79,95,0
1,63,51,0
1,72,64,0
1,65,70,0
1,80,91,588
1,82,78,52
1,84,95,100
1,70,82,84
1,73,82,4
1,68,85,0
1,77,84,0
1,77,80,92
1,73,70,0
1,68,66,0
1,75,84,80
1,70,84,0
1,67,84,0
1,61,82,36
1,70,93,0
1,65,84,0
1,62,97,12
1,65,78,176
1,68,97,0
1,61,87,0
1,56,84,0
1,68,61,60
1,65,53,0
1,56,63,0
1,61,63,0
1,68,104,120
1,61,82,0
1,56,72,0
1,65,86,0
1,63,82,20
1,67,102,0
1,56,87,0
1,60,77,0
1,72,74,1160
1,65,78,12
1,58,67,0
1,61,77,0
1,66,67,0
1,73,73,12
1,70,71,4
1,70,82,76
1,73,91,140
1,82,72,376
1,67,90,0
1,63,75,0
1,56,74,0
1,60,81,0
1,80,82,12
1,72,73,4
1,70,89,80
1,75,81,0
1,72,70,96
1,68,68,192
1,66,81,68
1,61,82,0
1,58,67,0
1,65,83,0
1,73,67,20
1,73,66,36
1,77,75,572
1,75,60,8
1,67,106,8
1,63,79,0
1,56,101,0
1,60,83,0
1,68,64,572
1,72,68,8
1,79,75,92
1,67,73,8
1,63,70,8
1,65,62,4
1,60,75,4
1,56,75,0
1,80,66,20
1,68,68,4
1,70,77,20
1,82,58,0
1,84,80,144
1,72,73,8
1,73,87,28
1,68,91,0
1,77,91,0
1,77,83,56
1,68,81,0
1,73,81,0
1,75,84,100
1,68,89,8
1,72,94,0
1,73,89,160
1,70,99,4
1,65,91,0
1,74,90,4
1,70,95,212
1,75,85,0
1,67,88,0
1,75,72,92
1,70,77,0
1,67,75,8
1,75,87,108
1,70,97,0
1,67,87,0
1,73,82,124
1,68,101,0
1,65,84,0
1,73,81,124
1,68,93,0
1,65,75,0
1,75,93,136
1,70,104,0
1,67,95,0
1,75,77,68
1,70,87,0
1,67,80,0
1,75,89,108
1,70,99,0
1,67,92,0
1,67,69,20
1,70,67,4
1,75,61,0
1,77,98,112
1,68,99,0
1,72,98,0
1,75,85,140
1,70,93,0
1,67,83,0
1,70,99,92
1,75,97,0
1,67,94,0
1,70,64,4
1,75,64,0
1,68,93,108
1,77,92,0
1,72,98,0
1,73,85,204
1,68,89,0
1,70,93,0
1,65,84,0
1,70,89,104
1,68,93,0
1,73,87,0
1,65,81,0
1,68,95,168
1,70,93,0
1,73,91,0
1,65,87,0
1,73,91,192
1,70,95,0
1,65,97,0
1,61,75,0
1,65,86,108
1,70,104,0
1,74,90,4
1,67,100,188
1,72,104,0
1,76,95,4
1,71,80,136
1,72,91,36
1,77,98,8
1,65,80,524
1,68,95,0
1,65,83,188
1,65,91,400
1,68,99,384
1,65,81,92
1,56,91,8
1,61,95,0
1,65,91,0
1,58,85,88
1,63,95,0
1,67,99,0
1,56,91,12
1,65,78,0
1,61,84,8
1,68,101,116
1,65,91,0
1,61,97,0
1,61,91,212
1,56,93,0
1,65,88,0
1,62,95,180
1,70,107,0
1,65,106,0
1,67,112,176
1,72,91,0
1,64,98,0
1,72,88,44
1,68,91,0
1,65,81,0
1,72,90,8
1,68,84,20
1,73,75,4
1,70,81,0
1,66,89,0
1,73,93,64
1,77,98,0
1,68,107,4
1,72,91,44
1,75,84,0
1,67,79,0
1,70,101,68
1,73,95,0
1,65,88,0
1,68,101,96
1,73,95,0
1,65,97,0
1,70,113,96
1,75,95,0
1,67,100,0
1,75,91,76
1,70,104,0
1,67,92,0
1,73,93,32
1,68,110,0
1,65,90,0
1,73,79,124
1,65,77,0
1,68,93,0
1,75,97,40
1,70,107,0
1,67,100,0
1,70,99,120
1,75,91,0
1,67,91,0
1,67,69,20
1,75,77,0
1,70,85,0
1,72,97,148
1,68,93,0
1,77,97,0
1,75,85,180
1,70,99,0
1,67,88,4
1,70,104,96
1,67,92,0
1,75,99,0
1,70,75,76
1,67,71,0
1,75,75,0
1,68,95,48
1,72,98,0
1,77,98,0
1,73,84,188
1,65,79,0
1,68,91,0
1,73,95,96
1,65,84,0
1,68,101,0
1,68,82,76
1,73,78,0
1,65,74,0
1,63,95,48
1,68,101,0
1,72,83,0
1,72,80,24
1,68,75,0
1,63,73,0
1,80,85,4
1,80,65,116
1,80,87,136
1,70,77,60
1,78,88,8
1,66,74,0
1,61,85,8
1,78,80,76
1,77,95,104
1,75,78,76
1,73,87,136
1,63,82,64
1,72,80,0
1,68,81,0
1,73,74,80
1,63,68,8
1,68,66,28
1,73,73,104
1,63,85,24
1,72,94,4
1,68,59,192
1,70,99,100
1,66,91,0
1,61,104,0
1,73,78,0
1,61,78,72
1,73,58,0
1,70,78,8
1,66,78,0
1,70,93,92
1,62,94,0
1,65,100,0
1,64,104,152
1,72,95,0
1,67,106,0
1,60,104,0
1,67,87,12
1,65,86,8
1,68,87,0
1,72,85,0
1,73,89,1844
1,68,97,0
1,77,97,0
1,75,85,164
1,72,97,8
1,67,88,0
1,70,99,76
1,73,79,0
1,65,85,0
1,68,113,124
1,73,97,0
1,65,97,0
1,75,85,196
1,70,101,0
1,67,91,0
1,75,93,288
1,70,99,0
1,67,91,0
1,73,82,208
1,68,91,0
1,65,75,0
1,73,95,124
1,68,113,0
1,65,92,0
1,70,95,108
1,75,85,0
1,67,87,0
1,73,87,56
1,77,95,0
1,68,97,0
1,75,82,164
1,72,90,0
1,67,86,0
1,73,82,72
1,70,97,0
1,65,86,0
1,68,99,152
1,73,93,0
1,65,97,0
1,70,98,144
1,75,91,0
1,67,95,0
1,68,89,740
1,65,79,0
1,73,81,0
1,73,79,136
1,68,97,0
1,65,85,0
1,75,79,112
1,70,84,0
1,67,77,4
1,73,82,124
1,68,93,0
1,77,97,0
1,75,91,148
1,72,95,0
1,67,87,4
1,70,91,96
1,73,82,8
1,65,80,0
1,68,93,172
1,73,85,0
1,65,87,0
1,70,99,140
1,75,89,0
1,67,88,0
1,73,82,680
1,68,99,0
1,65,83,0
1,73,89,136
1,68,113,0
1,65,95,0
1,75,78,120
1,70,89,0
1,67,84,0
1,73,91,132
1,68,107,0
1,65,90,0
1,75,84,18040
1,70,99,0
1,67,95,0
1,75,93,112
1,70,101,0
1,67,100,0
1,77,97,100
1,72,102,0
1,68,107,0
1,75,87,164
1,70,97,0
1,67,87,0
1,75,93,108
1,70,101,0
1,67,94,0
1,72,95,124
1,77,102,0
1,68,91,0
1,68,93,196
1,73,87,0
1,65,87,0
1,73,95,260
1,65,92,0
1,68,107,0
1,72,95,236
1,63,101,0
1,68,101,0
1,75,89,464
1,68,89,0
1,72,91,8
1,68,89,100
1,75,89,0
1,72,91,0
1,68,84,48
1,75,89,0
1,72,90,0
1,66,87,100
1,70,91,0
1,73,84,0
1,66,81,88
1,70,89,0
1,73,79,0
1,78,95,196
1,70,85,8
1,66,82,0
1,73,85,0
1,75,84,168
1,68,84,0
1,80,82,0
1,72,87,4
1,75,89,284
1,68,89,0
1,72,91,8
1,68,89,100
1,75,89,0
1,72,91,0
1,68,84,48
1,75,89,0
1,72,90,0
1,70,91,100
1,73,84,0
1,66,87,0
1,70,89,88
1,66,81,0
1,73,79,0
1,70,85,204
1,66,82,0
1,73,85,0
1,75,84,168
1,68,84,0
1,72,87,4
1,75,89,284
1,68,89,0
1,72,91,8
1,68,89,100
1,75,89,0
1,72,91,0
1,68,84,48
1,75,89,0
1,72,90,0
1,70,91,100
1,73,84,0
1,66,87,0
1,66,81,96
1,70,89,0
1,73,79,0
1,66,82,100
1,70,85,0
1,73,85,0
1,73,89,176
1,77,95,0
1,68,99,0
1,75,84,64
1,72,98,0
1,67,85,0
1,70,104,100
1,73,97,0
1,65,85,0
1,73,85,100
1,75,85,0
