track,note,velocity,time
2,31,72,6524
2,33,77,0
2,35,76,4
2,36,77,116
2,36,72,184
2,36,72,684
2,36,70,252
2,31,79,0
2,36,80,28
2,35,69,4
2,33,69,0
2,28,74,92
2,33,74,668
2,33,76,244
2,28,80,0
2,33,75,4
2,36,71,192
2,33,79,16
2,38,69,4
2,38,79,164
2,33,79,0
2,33,69,120
2,29,76,4
2,29,72,128
2,26,75,0
2,29,70,4
2,33,78,4
2,38,76,196
2,33,70,44
2,43,73,4
2,31,80,12
2,31,79,64
2,31,77,112
2,31,76,48
2,31,69,0
2,35,76,60
2,38,70,44
2,43,71,112
2,31,75,32
2,36,80,4
2,31,74,64
2,36,80,44
2,36,69,472
2,36,75,252
2,31,74,0
2,36,74,4
2,35,73,0
2,33,73,4
2,28,72,100
2,33,73,24
2,33,74,484
2,33,70,232
2,28,69,4
2,33,80,0
2,36,69,208
2,33,77,12
2,38,80,4
2,38,76,168
2,33,75,0
2,33,78,128
2,29,71,4
2,29,79,148
2,26,75,4
2,29,78,4
2,33,71,0
2,38,77,196
2,33,73,56
2,43,76,0
2,31,80,20
2,31,79,60
2,31,77,108
2,31,74,44
2,31,79,4
2,35,73,40
2,38,78,52
2,43,86,236
2,36,78,12
2,36,72,164
2,31,75,8
2,31,76,268
2,36,72,4
2,40,75,244
2,43,79,0
2,31,79,4
2,36,74,252
2,36,70,180
2,31,76,0
2,31,71,208
2,33,72,4
2,33,72,236
2,36,78,0
2,33,75,4
2,38,73,8
2,38,79,244
2,33,76,8
2,38,74,0
2,43,80,252
2,38,79,164
2,31,80,20
2,43,78,80
2,31,75,8
2,36,71,12
2,36,70,188
2,31,69,4
2,31,71,212
2,33,69,4
2,33,69,224
2,36,71,4
2,33,76,0
2,38,69,20
2,38,69,228
2,33,77,4
2,38,77,4
2,43,75,252
2,31,79,272
2,33,76,0
2,35,72,4
2,36,69,144
2,31,81,176
2,36,69,36
2,36,72,80
2,36,72,248
2,31,69,0
2,36,71,4
2,35,78,48
2,33,73,56
2,28,69,192
2,33,73,40
2,33,78,92
2,33,75,244
2,28,76,4
2,33,72,4
2,36,77,192
2,33,74,16
2,38,76,0
2,38,76,172
2,33,71,0
2,33,69,116
2,29,74,4
2,29,71,116
2,26,70,4
2,29,73,0
2,33,77,0
2,38,77,56
2,33,79,52
2,43,77,4
2,31,75,8
2,31,73,64
2,31,72,104
2,31,71,60
2,31,75,4
2,31,79,44
2,32,77,36
2,32,72,108
2,44,72,8
2,32,77,28
2,37,75,4
2,32,80,176
2,37,75,12
2,37,79,188
2,37,77,244
2,32,69,4
2,37,73,4
2,36,74,36
2,34,76,40
2,29,76,92
2,34,76,28
2,34,78,96
2,34,81,228
2,29,69,4
2,34,79,4
2,37,76,200
2,34,80,16
2,39,69,4
2,39,71,176
2,34,76,4
2,34,73,124
2,30,71,0
2,30,70,116
2,27,70,4
2,30,76,4
2,34,77,0
2,39,69,20
2,34,70,44
2,44,77,4
2,32,70,12
2,32,76,68
2,32,78,136
2,32,70,68
2,44,74,8
2,32,69,28
2,32,70,4
2,32,79,104
2,32,73,64
2,44,87,4
2,32,72,36
2,44,72,0
2,44,80,164
2,39,78,4
2,39,72,44
2,32,74,108
2,32,78,176
2,39,69,0
2,38,73,12
2,37,78,4
2,32,80,160
2,37,69,8
2,41,74,24
2,42,84,20
2,42,70,212
2,37,75,4
2,37,78,128
2,30,73,28
2,30,72,216
2,37,76,4
2,37,70,96
2,42,70,4
2,30,71,120
2,37,72,4
2,37,79,0
2,44,76,48
2,44,72,68
2,39,76,4
2,32,77,4
2,32,74,0
2,33,92,4
2,33,69,256
2,45,90,12
2,33,80,0
2,33,77,8
2,45,92,8
2,33,70,4
2,33,77,0
2,45,95,12
2,33,69,8
2,33,75,12
2,38,86,4
2,33,72,176
2,38,86,48
2,38,78,112
2,38,76,248
2,33,69,0
2,38,73,0
2,38,60,132
2,37,78,0
2,35,78,36
2,30,69,92
2,35,78,32
2,35,71,96
2,35,70,232
2,30,79,4
2,35,73,0
2,38,74,208
2,35,76,16
2,40,70,4
2,40,74,168
2,35,70,0
2,35,75,68
2,31,75,0
2,31,73,96
2,28,79,0
2,31,74,4
2,35,72,4
2,40,75,180
2,35,78,52
2,45,77,4
2,33,73,16
2,33,79,52
2,33,75,120
2,33,80,320
2,33,69,0
2,33,80,56
2,34,69,252
2,34,72,104
2,46,74,8
2,34,71,32
2,39,77,4
2,34,69,172
2,39,77,52
2,39,79,180
2,39,71,244
2,34,75,4
2,39,75,0
2,39,74,164
2,38,78,40
2,36,74,0
2,31,70,96
2,36,74,20
2,36,80,92
2,36,73,232
2,31,80,0
2,36,69,0
2,39,75,192
2,36,78,24
2,41,80,4
2,41,77,160
2,36,81,4
2,36,73,112
2,32,80,0
2,32,72,112
2,29,74,0
2,32,81,0
2,36,80,4
2,41,74,40
2,36,77,4
2,46,90,4
2,34,73,20
2,34,70,60
2,34,80,104
2,34,71,336
2,34,71,48
2,38,75,0
2,41,95,56
2,34,90,92
2,34,92,48
2,39,71,40
2,34,77,180
2,39,71,44
2,39,69,176
2,39,74,240
2,34,72,0
2,39,70,4
2,39,80,152
2,38,72,52
2,36,72,0
2,31,75,88
2,36,72,32
2,36,74,84
2,36,74,236
2,31,80,4
2,36,74,0
2,39,78,192
2,36,72,24
2,41,71,4
2,41,70,172
2,36,80,0
2,36,79,104
2,32,77,4
2,32,73,124
2,29,72,0
2,32,77,0
2,36,76,0
2,41,72,180
2,36,75,52
2,46,76,4
2,34,73,16
2,34,77,48
2,34,69,120
2,34,70,328
2,34,72,4
2,38,78,48
2,41,77,44
2,34,72,4
2,46,78,0
2,34,71,148
2,27,75,0
3,50,72,84480
3,50,72,944
3,50,72,260
3,45,69,4
3,50,68,0
3,50,73,124
3,49,64,12
3,47,62,32
3,42,69,88
3,47,68,660
3,47,70,240
3,42,70,0
3,47,63,4
3,50,66,188
3,47,71,16
3,52,72,4
3,52,68,164
3,47,67,4
3,43,71,212
3,40,67,212
3,43,71,4
3,47,67,4
3,52,67,180
3,47,71,52
3,57,65,4
3,45,67,16
3,45,74,52
3,45,70,120
3,45,63,332
3,45,74,4
3,45,62,48
3,46,68,260
3,46,70,104
3,58,64,0
3,46,74,32
3,51,62,8
3,51,74,936
3,51,70,260
3,46,66,0
3,51,72,4
3,51,67,136
3,50,68,0
3,48,68,40
3,43,68,88
3,48,62,668
3,48,64,240
3,43,63,4
3,48,67,4
3,51,65,196
3,48,62,16
3,53,66,0
3,53,69,172
3,48,63,4
3,44,67,200
3,41,62,212
3,44,64,4
3,48,62,0
3,53,69,200
3,48,65,52
3,58,63,4
3,46,74,12
3,46,62,64
3,46,73,108
3,46,72,328
3,50,90,140
3,53,90,52
3,58,90,108
3,51,66,276
3,51,74,948
3,51,74,252
3,46,74,0
3,51,65,0
3,51,72,128
3,50,66,4
3,48,74,20
3,43,62,96
3,48,72,664
3,48,65,240
3,43,70,0
3,48,72,4
3,51,68,204
3,48,66,12
3,53,67,0
3,53,73,164
3,48,74,4
3,44,72,208
3,41,63,212
3,44,66,4
3,48,72,0
3,53,67,196
3,48,62,52
3,58,69,4
3,46,63,12
3,46,67,56
3,46,62,108
3,46,70,340
3,46,68,4
3,50,68,48
3,53,68,224
3,46,73,72
3,58,62,8
3,46,73,24
4,48,91,1536
4,74,87,0
4,76,89,0
4,79,93,0
4,76,69,20
4,74,67,4
4,79,68,0
4,79,70,248
4,74,68,4
4,76,69,4
4,79,87,272
4,74,88,4
4,76,90,0
4,47,71,64
4,72,88,32
4,76,94,0
4,71,88,4
4,45,71,8
4,71,75,36
4,72,73,0
4,76,72,4
4,76,75,36
4,48,79,4
4,69,73,0
4,72,71,4
4,45,78,8
4,76,68,4
4,69,100,0
4,72,98,4
4,76,99,36
4,81,85,0
4,50,74,4
4,77,85,4
4,76,85,320
4,77,85,0
4,81,85,0
4,45,85,28
4,77,66,4
4,74,69,4
4,81,69,0
4,81,68,284
4,74,72,8
4,77,69,0
4,74,64,32
4,43,90,4
4,79,67,0
4,71,64,4
4,31,66,288
4,67,70,4
4,62,69,0
4,71,78,4
4,33,80,8
4,72,79,8
4,69,82,0
4,62,81,4
4,67,76,12
4,71,79,8
4,35,78,0
4,74,76,0
4,74,87,20
4,76,94,4
4,79,96,0
4,36,78,4
4,67,95,4
4,76,83,8
4,79,94,4
4,67,88,8
4,72,96,0
4,71,89,8
4,76,85,0
4,67,89,8
4,79,85,0
4,72,83,20
4,76,91,0
4,79,97,0
4,67,95,4
4,71,85,8
4,64,96,12
4,72,88,0
4,76,86,0
4,69,94,12
4,76,96,0
4,64,90,4
4,72,86,0
4,71,86,16
4,76,97,0
4,72,84,4
4,68,97,0
4,67,84,12
4,72,94,4
4,69,93,4
4,76,85,4
4,77,85,8
4,76,90,4
4,81,96,0
4,69,87,8
4,74,92,8
4,81,93,0
4,77,97,4
4,69,89,8
4,69,95,12
4,76,85,0
4,73,91,4
4,77,96,0
4,69,86,12
4,72,86,0
4,77,84,4
4,74,90,4
4,67,84,16
4,71,86,0
4,76,93,4
4,74,82,4
4,69,89,12
4,71,86,0
4,67,86,0
4,74,86,0
4,74,88,20
4,76,83,0
4,71,87,4
4,67,82,4
4,71,85,0
4,76,96,0
4,74,95,0
4,79,95,8
4,79,93,0
4,69,85,4
4,71,90,0
4,74,82,0
4,79,90,0
4,67,96,4
4,76,85,0
4,74,86,4
4,79,89,20
4,67,90,0
4,72,90,0
4,76,92,0
4,67,82,20
4,79,85,0
4,71,88,4
4,76,96,0
4,67,93,16
4,72,85,4
4,76,82,0
4,79,97,4
4,72,93,12
4,76,90,4
4,64,88,0
4,71,82,0
4,64,88,20
4,72,97,0
4,69,85,4
4,76,83,0
4,68,92,8
4,72,88,4
4,71,96,4
4,76,86,4
4,72,84,8
4,76,89,8
4,67,89,4
4,69,88,0
4,76,93,8
4,81,85,8
4,69,93,4
4,77,94,0
4,69,92,12
4,81,96,0
4,77,88,4
4,74,88,4
4,76,91,12
4,77,83,0
4,69,84,4
4,73,87,0
4,69,92,12
4,74,88,4
4,77,84,4
4,72,82,0
4,67,95,16
4,76,92,0
4,74,90,0
4,71,89,4
4,67,85,12
4,69,82,0
4,71,97,8
4,74,97,4
4,67,90,8
4,76,92,8
4,71,94,0
4,74,87,4
4,74,84,0
4,76,93,0
4,71,83,0
4,79,82,4
4,69,95,408
4,79,95,0
4,74,94,0
4,71,83,0
4,79,91,0
4,74,83,8
4,76,84,0
4,76,93,12
4,74,85,4
4,79,84,4
4,72,92,12
4,79,97,0
4,76,96,8
4,72,93,24
4,76,84,0
4,79,84,0
4,76,93,16
4,71,93,0
4,79,92,0
4,76,87,20
4,79,93,0
4,72,93,4
4,76,93,20
4,74,86,4
4,79,93,0
4,79,96,12
4,72,90,4
4,76,91,4
4,64,94,16
4,62,83,4
4,67,92,4
4,64,88,220
4,62,90,4
4,67,87,0
4,64,86,176
4,60,84,4
4,67,97,8
4,64,83,184
4,67,88,8
4,60,93,0
4,60,96,208
4,59,91,4
4,64,83,4
4,60,92,196
4,59,91,4
4,64,86,4
4,60,83,168
4,57,86,8
4,64,97,4
4,64,91,216
4,60,85,0
4,57,96,4
4,65,85,224
4,69,98,8
4,64,96,0
4,64,87,208
4,65,86,0
4,69,85,8
4,69,90,204
4,65,82,4
4,62,85,8
4,69,95,212
4,62,86,4
4,65,97,4
4,60,87,212
4,65,89,4
4,69,95,4
4,69,85,196
4,60,91,8
4,65,84,4
4,67,95,188
4,64,89,4
4,60,97,0
4,62,96,188
4,59,89,4
4,67,84,4
4,67,94,232
4,64,93,4
4,62,93,4
4,67,97,216
4,64,91,8
4,62,95,4
4,64,87,176
4,67,94,4
4,60,84,4
4,64,83,192
4,60,92,8
4,67,95,0
4,59,86,212
4,60,93,0
4,64,85,0
4,59,97,200
4,60,86,4
4,64,92,4
4,57,92,176
4,60,83,0
4,64,92,4
4,57,89,212
4,60,97,0
4,64,94,8
4,69,86,224
4,64,94,4
4,65,90,4
4,64,88,216
4,69,97,4
4,65,89,4
4,65,90,212
4,69,84,0
4,62,84,4
4,65,92,212
4,60,83,4
4,69,90,8
4,59,91,208
4,62,96,0
4,65,88,4
4,67,83,204
4,62,97,8
4,71,97,0
4,69,85,12
4,72,91,0
4,62,90,4
4,74,95,16
4,71,91,4
4,67,83,4
4,74,96,8
4,67,88,4
4,76,93,0
4,79,84,0
4,72,87,16
4,76,89,8
4,79,96,0
4,67,87,0
4,71,94,16
4,67,94,4
4,76,96,0
4,79,85,0
4,67,90,12
4,72,86,4
4,60,64,4
4,76,93,4
4,76,100,24
4,59,100,4
4,67,100,0
4,71,100,8
4,57,95,44
4,76,96,0
4,71,97,4
4,72,86,4
4,64,82,8
4,72,93,0
4,69,96,8
4,76,83,0
4,71,94,16
4,76,88,0
4,68,89,4
4,72,83,0
4,72,88,16
4,76,88,0
4,67,88,4
4,69,86,0
4,69,91,12
4,76,96,0
4,77,82,8
4,81,84,4
4,74,87,8
4,81,87,4
4,77,83,0
4,69,84,4
4,73,83,12
4,77,97,0
4,76,96,4
4,69,95,8
4,77,92,12
4,69,96,4
4,72,96,0
4,74,89,0
4,71,84,16
4,67,82,4
4,74,87,4
4,76,90,0
4,71,65,56
4,74,65,0
4,76,72,4
4,67,69,8
4,67,89,88
4,69,92,0
4,71,88,0
4,74,84,0
4,71,94,140
4,76,91,4
4,74,84,4
4,67,96,4
4,71,87,136
4,74,90,0
4,67,90,8
4,76,90,4
4,77,97,72
4,68,84,4
4,75,83,0
4,72,94,8
4,75,94,8
4,77,92,4
4,80,90,0
4,72,97,0
4,68,92,152
4,75,95,0
4,80,87,0
4,77,95,4
4,73,92,8
4,77,91,4
4,68,89,4
4,80,97,4
4,68,83,12
4,77,86,0
4,80,90,4
4,72,93,4
4,73,97,8
4,61,93,8
4,77,90,0
4,68,94,0
4,60,84,144
4,77,82,0
4,72,85,8
4,80,85,0
4,72,95,16
4,73,91,0
4,77,82,0
4,58,90,8
4,82,92,0
4,70,97,8
4,65,82,8
4,77,93,0
4,73,84,4
4,77,87,12
4,69,91,4
4,72,84,0
4,73,84,0
4,70,93,16
4,77,96,0
4,73,83,4
4,68,96,4
4,80,97,28
4,70,95,4
4,73,90,0
4,77,92,4
4,70,92,28
4,82,96,0
4,77,83,0
4,78,96,8
4,78,87,12
4,82,86,0
4,70,86,4
4,75,87,0
4,74,95,12
4,77,84,0
4,78,88,4
4,70,97,8
4,70,92,12
4,75,96,0
4,78,82,0
4,73,89,4
4,44,92,16
4,61,93,8
4,68,86,0
4,63,93,4
4,44,94,120
4,63,97,0
4,56,90,4
4,61,84,0
4,61,89,0
4,56,88,4
4,65,86,4
4,61,87,0
4,44,85,4
4,66,93,0
4,68,94,4
4,63,87,0
4,61,94,0
4,66,96,0
4,63,91,4
4,44,97,4
4,56,83,0
4,68,92,0
4,58,90,24
4,70,86,0
4,60,84,16
4,72,90,4
4,75,84,20
4,63,89,4
4,65,95,16
4,77,85,8
4,78,86,44
4,66,84,0
4,68,92,0
4,44,80,8
4,80,87,0
4,63,77,112
4,68,83,0
4,59,78,8
4,63,79,184
4,59,77,4
4,66,80,4
4,39,82,120
4,51,83,72
4,59,79,96
4,63,78,4
4,68,79,0
4,44,81,20
4,66,79,252
4,59,83,4
4,63,82,0
4,44,78,192
4,63,83,16
4,59,79,8
4,66,81,4
4,38,80,376
4,66,81,156
4,59,79,4
4,63,83,0
4,37,79,24
4,65,82,252
4,68,79,8
4,59,78,0
4,59,80,276
4,65,81,4
4,68,81,0
4,37,78,128
4,41,76,100
4,59,81,120
4,68,78,4
4,65,80,4
4,42,80,84
4,61,78,252
4,68,81,4
4,70,76,0
4,61,84,132
4,70,76,0
4,66,79,4
4,37,78,124
4,61,76,12
4,68,76,0
4,70,82,8
4,37,81,124
4,42,83,160
4,73,76,248
4,65,78,8
4,66,83,0
4,69,76,4
4,69,81,352
4,66,83,4
