track,note,velocity,time
0,42,95,0
0,42,0,12
0,42,80,180
0,42,0,12
0,42,85,180
0,42,0,12
0,42,82,180
0,42,0,12
0,65,93,180
0,74,106,0
0,58,82,0
0,62,76,0
0,65,0,162
0,74,0,10
0,65,91,20
0,74,97,0
0,75,93,96
0,67,78,0
0,74,0,2
0,65,0,7
0,65,95,87
0,74,81,0
0,75,0,7
0,67,0,17
0,63,80,168
0,72,94,0
0,74,0,2
0,65,0,7
0,63,0,76
0,58,0,1
0,70,83,10
0,62,82,0
0,72,0,12
0,62,0,84
0,64,80,0
0,72,100,0
0,58,84,0
0,60,80,0
0,70,0,10
0,62,0,0
0,64,0,171
0,60,93,11
0,62,93,96
0,60,0,3
0,64,90,93
0,62,0,18
0,65,82,174
0,58,0,26
0,64,0,70
0,67,81,0
0,65,0,10
0,66,94,86
0,51,84,0
0,58,85,0
0,63,77,0
0,72,0,8
0,67,0,3
0,60,0,0
0,63,92,181
0,66,0,4
0,66,94,92
0,63,0,48
0,66,0,37
0,66,89,11
0,75,95,0
0,75,0,74
0,66,0,5
0,66,83,17
0,75,94,0
0,74,91,96
0,75,0,2
0,70,90,94
0,66,0,3
0,74,0,9
0,58,0,2
0,51,0,5
0,63,0,6
0,46,86,0
0,62,80,0
0,65,86,0
0,46,85,0
0,53,82,0
0,70,0,3
0,60,96,189
0,62,0,4
0,62,97,92
0,60,0,4
0,46,0,63
0,46,0,14
0,46,74,15
0,58,87,0
0,46,92,0
0,62,0,10
0,53,0,16
0,53,84,70
0,58,0,3
0,58,82,0
0,50,86,0
0,65,0,17
0,46,0,67
0,50,0,5
0,46,0,3
0,41,81,0
0,60,85,0
0,41,85,0
0,51,83,0
0,51,0,88
0,46,77,0
0,62,102,0
0,46,79,0
0,53,83,0
0,53,84,0
0,53,88,0
0,53,0,34
0,53,90,0
0,57,83,48
0,53,0,71
0,62,84,0
0,55,87,0
0,57,0,10
0,55,0,37
0,53,88,0
0,62,0,34
0,62,97,14
0,53,0,17
0,53,85,79
0,62,0,5
0,57,77,91
0,46,0,49
0,46,0,38
0,41,79,9
0,57,0,0
0,62,86,0
0,46,77,0
0,53,0,6
0,53,0,11
0,46,0,68
0,50,83,11
0,65,102,0
0,41,0,3
0,62,0,13
0,65,0,78
0,53,81,2
0,50,87,0
0,50,0,29
0,57,71,0
0,50,86,0
0,50,0,72
0,60,91,0
0,51,95,0
0,65,97,0
0,53,84,0
0,53,0,17
0,53,0,64
0,53,85,0
0,53,93,0
0,65,0,5
0,53,0,28
0,53,97,0
0,57,84,48
0,50,0,70
0,53,0,20
0,50,88,0
0,57,0,0
0,60,86,0
0,55,90,0
0,53,0,6
0,53,89,0
0,55,0,2
0,50,0,43
0,43,77,3
0,62,82,0
0,60,0,16
0,53,0,67
0,57,82,0
0,46,98,0
0,58,79,96
0,57,0,20
0,43,0,40
0,43,81,36
0,60,90,0
0,58,0,1
0,41,75,95
0,55,88,0
0,43,0,1
0,60,0,5
0,55,0,88
0,58,91,2
0,58,0,96
0,55,88,0
0,46,0,15
0,41,0,51
0,41,68,0
0,48,84,0
0,48,0,44
0,50,82,0
0,36,83,0
0,55,0,0
0,60,77,0
0,51,85,0
0,50,0,3
0,41,0,2
0,62,87,60
0,60,0,11
0,62,0,85
0,63,87,0
0,65,91,96
0,63,0,5
0,34,80,91
0,67,94,0
0,65,0,2
0,36,0,15
0,51,0,16
0,60,77,0
0,50,86,0
0,50,0,91
0,63,87,0
0,48,85,0
0,60,0,11
0,34,0,62
0,34,83,0
0,63,0,0
0,67,87,0
0,50,84,0
0,48,0,8
0,50,0,83
0,33,84,0
0,67,0,0
0,67,95,0
0,51,82,0
0,55,89,0
0,51,85,0
0,67,0,5
0,51,0,68
0,60,99,0
0,51,84,0
0,55,0,15
0,33,0,46
0,51,0,29
0,33,83,0
0,63,83,0
0,50,83,0
0,60,0,2
0,50,0,62
0,63,0,21
0,38,69,0
0,68,101,0
0,50,92,0
0,33,0,4
0,69,105,188
0,68,0,3
0,38,0,61
0,38,70,32
0,69,0,50
0,50,0,24
0,38,0,14
0,43,69,8
0,70,93,0
0,58,90,0
0,46,80,0
0,70,0,1
0,46,0,77
0,62,82,0
0,46,87,0
0,58,0,10
0,43,0,39
0,62,0,43
0,40,21,0
0,38,21,0
0,43,73,0
0,67,81,0
0,48,83,0
0,38,0,12
0,40,0,0
0,46,0,4
0,50,86,0
0,48,0,1
0,41,72,7
0,67,84,0
0,50,0,91
0,58,85,0
0,48,83,0
0,67,0,11
0,62,79,0
0,50,85,0
0,48,0,5
0,58,0,4
0,41,0,36
0,41,83,0
0,67,85,0
0,51,84,0
0,50,0,6
0,62,0,1
0,41,0,63
0,40,75,0
0,58,71,0
0,62,84,0
0,50,86,0
0,67,0,9
0,51,0,1
0,46,81,0
0,58,0,3
0,62,0,1
0,50,0,9
0,74,98,83
0,70,93,0
0,70,74,0
0,74,84,0
0,70,0,175
0,69,92,17
0,72,91,0
0,74,0,0
0,72,85,0
0,69,86,0
0,70,0,5
0,74,0,16
0,46,0,147
0,72,0,23
0,47,60,1
0,67,91,0
0,70,91,0
0,67,84,0
0,70,91,0
0,69,0,3
0,47,0,9
0,69,0,4
0,72,0,1
0,40,0,22
0,45,61,57
0,40,65,0
0,45,0,12
0,67,0,50
0,70,0,0
0,40,0,18
0,67,0,12
0,70,0,1
0,36,69,0
0,39,82,0
0,51,62,0
0,58,61,0
0,55,65,0
0,51,60,0
0,46,61,0
0,55,65,0
0,63,104,0
0,67,118,0
0,58,84,0
0,36,0,12
0,58,0,77
0,58,80,0
0,58,0,92
0,38,81,0
0,36,84,0
0,44,75,0
0,60,87,0
0,44,0,12
0,36,0,0
0,38,0,0
0,55,0,0
0,51,0,12
0,58,0,12
0,51,0,4
0,46,0,1
0,55,0,11
0,39,0,11
0,67,0,18
0,63,0,3
0,60,0,8
0,38,80,0
0,52,59,0
0,53,61,0
0,50,69,0
0,58,66,0
0,46,56,0
0,50,80,0
0,53,68,0
0,62,109,0
0,65,111,0
0,58,87,0
0,52,0,21
0,36,58,75
0,36,0,12
0,58,0,65
0,38,0,17
0,31,85,0
0,53,78,0
0,33,86,48
0,31,0,12
0,33,0,32
0,38,82,4
0,36,84,0
0,44,84,0
0,34,87,0
0,44,0,12
0,36,0,0
0,38,0,0
0,34,0,39
0,53,0,11
0,50,0,11
0,53,0,2
0,46,0,0
0,50,0,19
0,31,83,2
0,58,0,4
0,31,0,51
0,65,0,22
0,62,0,5
0,36,71,0
0,38,75,0
0,48,65,0
0,50,70,0
0,54,59,0
0,54,63,0
0,50,64,0
0,48,68,0
0,62,107,0
0,66,118,0
0,54,86,0
0,36,0,12
0,53,0,7
0,54,0,64
0,54,86,0
0,54,0,70
0,50,0,9
0,48,0,3
0,54,0,1
0,38,84,0
0,36,86,0
0,44,85,0
0,54,84,0
0,44,0,12
0,36,0,0
0,38,0,0
0,50,0,6
0,48,0,12
0,54,0,6
0,66,0,32
0,62,0,7
0,54,0,20
0,40,82,0
0,48,62,0
0,55,65,0
0,52,69,0
0,46,66,0
0,55,69,0
0,50,72,0
0,64,118,0
0,67,98,0
0,55,82,0
0,36,66,60
0,36,0,12
0,55,0,3
0,46,0,2
0,50,0,4
0,55,0,20
0,52,0,4
0,48,0,5
0,55,0,34
0,42,84,0
0,50,66,0
0,54,65,0
0,57,65,0
0,54,70,0
0,50,81,0
0,57,71,0
0,66,98,0
0,69,113,0
0,57,95,0
0,64,0,6
0,67,0,1
0,36,98,89
0,38,86,0
0,44,81,0
0,44,0,12
0,38,0,0
0,36,0,0
0,54,0,47
0,42,0,5
0,50,0,5
0,54,0,2
0,57,0,7
0,57,0,10
0,50,0,1
0,66,0,5
0,42,86,2
0,69,0,1
0,57,0,36
0,42,0,50
0,36,84,9
0,43,74,0
0,62,79,0
0,67,94,0
0,50,70,0
0,58,69,0
0,55,70,0
0,62,81,0
0,58,87,0
0,55,82,0
0,36,0,12
0,58,98,0
0,62,0,67
0,67,0,5
0,58,0,12
0,37,84,0
0,44,83,0
0,67,81,0
0,70,77,0
0,74,79,0
0,58,100,0
0,44,0,12
0,37,0,0
0,43,0,44
0,58,0,17
0,50,0,19
0,55,0,3
0,36,71,0
0,43,81,0
0,58,100,0
0,36,0,12
0,58,0,12
0,67,0,32
0,74,0,1
0,70,0,9
0,55,0,3
0,58,0,12
0,62,0,1
0,58,0,5
0,43,0,8
0,36,78,0
0,41,85,0
0,62,56,0
0,65,78,0
0,69,76,0
0,53,71,0
0,57,65,0
0,53,84,0
0,62,69,0
0,57,79,0
0,57,98,0
0,36,0,12
0,53,99,0
0,62,0,28
0,57,0,6
0,69,0,37
0,65,0,0
0,37,87,25
0,44,68,0
0,74,70,0
0,65,78,0
0,69,78,0
0,44,0,12
0,37,0,0
0,53,0,24
0,57,0,15
0,41,0,9
0,53,0,14
0,36,77,0
0,41,79,0
0,50,90,0
0,36,0,12
0,57,0,15
0,62,0,2
0,65,0,3
0,53,0,2
0,69,0,24
0,74,0,5
0,41,0,31
0,36,79,0
0,39,85,0
0,67,67,0
0,63,74,0
0,58,59,0
0,51,66,0
0,55,64,0
0,62,65,0
0,51,64,0
0,62,80,0
0,55,83,0
0,55,102,0
0,50,0,7
0,36,0,5
0,63,0,169
0,67,0,1
0,37,87,10
0,44,69,0
0,67,72,0
0,70,73,0
0,74,82,0
0,44,0,12
0,37,0,0
0,39,0,27
0,58,0,52
0,55,0,4
0,36,64,1
0,39,74,0
0,62,0,5
0,51,0,2
0,36,0,5
0,55,0,18
0,70,0,34
0,74,0,5
0,67,0,2
0,39,0,23
0,36,77,0
0,41,77,0
0,75,66,0
0,70,65,0
0,65,74,0
0,51,54,0
0,58,52,0
0,55,70,0
0,55,99,0
0,36,0,12
0,70,0,18
0,65,0,3
0,75,0,2
0,51,0,1
0,55,0,1
0,58,0,0
0,41,0,3
0,55,0,50
0,36,81,0
0,41,75,0
0,65,73,0
0,70,77,0
0,75,90,0
0,51,60,0
0,58,63,0
0,55,81,0
0,58,101,0
0,36,0,12
0,37,85,84
0,44,77,0
0,44,0,12
0,37,0,0
0,55,0,43
0,70,0,4
0,62,0,0
0,51,0,0
0,65,0,2
0,75,0,11
0,41,0,3
0,55,0,3
0,58,0,3
0,51,0,4
0,58,0,5
0,36,82,0
0,41,73,0
0,65,66,0
0,70,65,0
0,72,71,0
0,74,80,0
0,60,50,0
0,65,61,0
0,62,53,0
0,58,53,0
0,65,66,0
0,53,57,0
0,58,51,0
0,60,74,0
0,62,71,0
0,60,93,0
0,53,103,0
0,36,0,12
0,41,0,27
0,34,85,57
0,46,62,0
0,37,86,192
0,44,80,0
0,60,0,0
0,58,90,0
0,44,0,12
0,37,0,0
0,46,0,12
0,34,0,5
0,36,70,67
0,34,80,0
0,46,66,0
0,36,0,12
0,46,0,27
0,34,0,10
0,36,71,47
0,34,77,0
0,46,65,0
0,57,89,0
0,58,0,1
0,36,0,11
0,37,89,180
0,44,80,0
0,58,89,0
0,57,0,3
0,44,0,9
0,37,0,0
0,34,0,46
0,74,0,32
0,72,0,1
0,70,0,0
0,36,59,5
0,34,77,0
0,65,0,6
0,36,0,6
0,34,0,37
0,58,0,8
0,53,0,18
0,53,0,10
0,36,77,0
0,39,69,0
0,51,68,0
0,58,0,0
0,60,0,0
0,65,0,0
0,62,0,0
0,67,111,0
0,51,64,0
0,55,79,0
0,58,57,0
0,55,74,0
0,62,117,0
0,58,0,6
0,46,0,3
0,36,0,3
0,60,0,6
0,65,0,8
0,62,0,68
0,62,115,0
0,37,84,0
0,44,77,0
0,67,83,0
0,70,73,0
0,74,84,0
0,62,101,0
0,44,0,12
0,37,0,0
0,39,0,23
0,51,0,23
0,62,0,12
0,36,68,0
0,39,71,0
0,62,110,0
0,36,0,12
0,74,0,64
0,70,0,0
0,67,0,1
0,39,0,9
0,58,0,6
0,36,73,0
0,41,74,0
0,53,71,0
0,65,113,0
0,55,0,0
0,60,54,0
0,57,79,0
0,53,72,0
0,53,81,0
0,60,92,0
0,62,0,2
0,51,0,8
0,36,0,2
0,67,0,2
0,55,0,1
0,62,0,12
0,41,0,147
0,60,0,14
0,37,85,0
0,44,75,0
0,39,74,0
0,65,79,0
0,72,84,0
0,69,84,0
0,63,111,0
0,57,90,0
0,44,0,12
0,37,0,0
0,65,0,7
0,53,0,3
0,36,65,0
0,55,104,0
0,57,0,4
0,36,0,8
0,53,0,8
0,72,0,72
0,63,0,0
0,69,0,2
0,36,77,0
0,38,85,0
0,65,0,0
0,50,81,0
0,65,110,0
0,50,67,0
0,62,55,0
0,53,108,0
0,39,0,9
0,55,0,1
0,36,0,2
0,53,0,2
0,37,84,178
0,44,74,0
0,65,63,0
0,69,70,0
0,72,71,0
0,74,75,0
0,72,113,0
0,44,0,12
0,37,0,0
0,65,0,3
0,50,0,13
0,38,0,15
0,36,68,53
0,38,81,0
0,50,76,0
0,36,0,12
0,50,0,24
0,38,0,11
0,36,73,49
0,38,87,0
0,50,62,0
0,36,0,12
0,74,0,7
0,65,0,1
0,72,0,2
0,69,0,0
0,37,85,170
0,44,76,0
0,74,79,0
0,72,82,0
0,65,74,0
0,69,75,0
0,44,0,12
0,37,0,0
0,53,0,17
0,50,0,29
0,38,0,2
0,36,65,36
0,38,86,0
0,69,111,0
0,36,0,12
0,72,0,26
0,57,0,0
0,69,0,8
0,65,99,2
0,38,0,8
0,74,0,39
0,72,0,0
0,60,0,0
0,36,77,0
0,43,82,0
0,43,63,0
0,55,69,0
0,74,95,0
0,55,77,0
0,58,60,0
0,58,118,0
0,65,0,3
0,65,0,1
0,69,0,0
0,57,115,0
0,58,0,4
0,37,84,44
0,44,74,0
0,67,62,0
0,70,57,0
0,74,69,0
0,79,68,0
0,44,0,12
0,37,0,0
0,43,0,24
0,57,0,34
0,55,0,11
0,43,0,5
0,36,68,0
0,43,78,0
0,58,116,0
0,36,0,12
0,74,0,69
0,70,0,3
0,79,0,2
0,67,0,2
0,36,73,0
0,43,0,0
0,41,85,0
0,41,64,0
0,53,72,0
0,50,61,0
0,57,56,0
0,53,66,0
0,57,93,0
0,58,0,1
0,55,0,1
0,58,0,5
0,36,0,5
0,57,0,125
0,53,108,0
0,37,85,48
0,44,86,0
0,65,82,0
0,77,75,0
0,74,81,0
0,69,76,0
0,41,0,6
0,44,0,6
0,37,0,0
0,41,0,42
0,36,65,0
0,41,79,0
0,50,99,0
0,36,0,12
0,50,0,6
0,53,0,2
0,53,0,14
0,41,0,46
0,57,0,15
0,36,77,0
0,39,77,0
0,51,74,0
0,51,60,0
0,58,64,0
0,55,62,0
0,55,95,0
0,74,0,1
0,65,0,3
0,69,0,0
0,53,0,0
0,77,0,3
0,36,0,5
0,50,0,2
0,37,84,178
0,44,77,0
0,67,67,0
0,74,83,0
0,70,65,0
0,44,0,12
0,37,0,0
0,39,0,41
0,51,0,34
0,36,68,9
0,39,73,0
0,74,0,5
0,67,0,2
0,74,0,3
0,36,0,2
0,70,0,2
0,55,0,45
0,51,0,25
0,62,0,7
0,39,0,2
0,36,73,0
0,41,72,0
0,75,74,0
0,70,72,0
0,53,76,0
0,58,89,0
0,53,85,0
0,63,70,0
0,53,58,0
0,55,97,0
0,36,0,12
0,55,0,3
0,75,0,21
0,53,0,1
0,70,0,0
0,58,0,8
0,53,0,3
0,41,0,4
0,41,79,0
0,53,72,0
0,75,74,0
0,70,71,0
0,58,95,0
0,53,84,0
0,55,0,0
0,58,112,0
0,37,85,60
0,44,74,0
0,58,0,11
0,44,0,1
0,37,0,0
0,41,0,49
0,63,0,21
0,58,0,2
0,36,65,0
0,41,93,0
0,58,90,0
0,62,55,0
0,46,64,0
0,58,48,0
0,60,71,0
0,60,93,0
0,53,99,0
0,75,0,1
0,70,0,3
0,36,0,8
0,53,0,1
0,53,0,3
0,58,0,9
0,53,0,2
0,41,0,55
0,36,77,14
0,34,110,0
0,60,74,0
0,70,61,0
