track,note,velocity,time
3,36,93,1536
3,29,97,99
3,29,90,93
3,33,93,0
3,29,97,99
3,29,90,93
3,36,99,0
3,38,94,61
3,38,89,1152
3,38,97,23
3,31,93,135
3,31,93,96
3,36,93,96
3,36,97,99
3,36,90,93
3,36,107,0
3,36,81,45
3,38,92,109
3,36,92,19
3,36,93,0
3,36,92,19
3,36,93,0
3,24,93,96
3,36,97,3
3,36,90,93
3,36,97,3
3,36,90,93
3,36,94,0
3,36,89,1152
3,36,97,23
3,38,93,135
3,36,93,0
3,36,92,19
3,36,93,0
3,43,96,0
3,31,93,1344
3,36,92,74
3,36,97,3
3,36,90,93
3,31,107,0
3,31,81,45
3,34,97,93
3,34,90,93
3,36,93,0
3,36,92,115
3,36,93,0
3,29,93,96
3,29,92,115
3,28,93,0
3,33,92,115
3,31,92,19
3,29,93,0
3,29,93,96
3,28,93,0
3,33,92,115
3,31,92,19
3,29,92,19
3,29,93,0
3,28,93,96
3,33,92,19
3,38,92,19
3,38,92,19
3,43,94,9
3,36,94,0
3,36,89,1152
3,36,97,23
3,41,94,144
3,28,92,19
3,28,94,42
3,31,99,0
3,24,93,61
3,36,97,3
3,36,90,93
3,36,107,0
3,36,81,45
3,38,93,90
3,36,92,19
3,36,92,19
3,36,93,0
3,36,92,19
3,36,92,19
3,38,92,19
3,33,97,3
3,33,90,93
3,29,97,3
3,29,90,93
3,31,93,0
3,38,97,3
3,38,90,93
3,36,97,3
3,36,90,93
3,31,99,3
3,31,87,32
3,36,93,45
3,36,93,96
3,31,107,96
3,31,81,45
3,36,97,93
3,36,90,93
3,36,92,19
3,36,93,0
3,36,93,96
3,29,93,96
3,29,97,99
3,29,90,93
3,28,93,0
3,33,92,115
3,31,93,0
3,29,93,0
3,29,93,0
3,28,93,96
3,33,92,115
3,31,92,19
3,29,93,0
3,29,93,0
3,28,93,0
3,33,97,99
3,33,90,93
3,38,97,3
3,38,90,93
3,38,93,0
3,31,92,115
3,31,94,42
3,35,92,19
3,33,92,19
3,33,93,0
3,33,92,19
3,36,92,19
3,31,92,19
3,36,97,3
3,36,90,93
3,34,93,0
3,34,93,96
3,33,93,96
3,38,92,115
3,36,92,19
3,34,93,0
3,34,93,96
3,33,92,115
3,38,93,0
3,29,93,0
3,34,93,0
3,34,92,115
3,33,92,19
3,38,93,0
3,31,93,96
3,31,93,0
3,36,99,99
3,36,87,32
3,29,99,48
3,29,87,32
3,29,82,48
3,29,104,35
3,29,99,0
3,29,88,61
3,29,101,0
3,29,83,84
4,56,88,2304
4,59,69,0
4,62,64,0
4,65,96,0
4,56,94,77
4,62,81,192
4,55,82,0
4,60,103,0
4,64,88,0
4,57,80,384
4,56,97,0
4,62,93,0
4,55,94,0
4,60,61,0
4,64,80,0
4,67,73,0
4,60,84,100
4,57,81,0
4,60,95,0
4,62,69,0
4,65,83,0
4,57,106,208
4,59,97,0
4,65,93,0
4,59,97,0
4,65,93,0
4,59,82,0
4,67,103,0
4,71,88,0
4,62,80,384
4,55,82,0
4,64,103,0
4,67,88,0
4,60,80,384
4,57,94,0
4,60,61,0
4,65,80,0
4,69,73,0
4,60,84,100
4,55,97,0
4,64,93,0
4,55,97,0
4,64,93,0
4,59,97,0
4,64,93,0
4,55,97,0
4,64,93,0
4,57,97,0
4,65,93,0
4,56,97,0
4,65,93,0
4,59,97,0
4,67,93,0
4,55,82,0
4,64,103,0
4,67,88,0
4,60,80,384
4,57,81,0
4,60,95,0
4,65,69,0
4,69,83,0
4,57,106,208
4,55,97,32
4,64,93,0
4,55,103,7
4,64,85,188
4,59,97,0
4,64,93,0
4,55,97,0
4,64,93,0
4,58,94,0
4,62,61,0
4,65,80,0
4,69,73,0
4,62,84,100
4,53,88,0
4,58,69,0
4,62,64,0
4,65,96,0
4,53,94,77
4,62,81,192
4,55,97,0
4,64,93,0
4,58,94,32
4,62,61,0
4,65,80,0
4,69,73,0
4,62,84,106
4,53,82,0
4,62,103,0
4,65,88,0
4,58,80,384
4,55,97,32
4,64,93,0
4,53,97,7
4,62,93,0
4,58,97,0
4,64,93,0
4,57,97,0
4,65,93,0
4,59,88,0
4,62,69,0
4,67,64,0
4,71,96,0
4,59,94,77
4,67,81,192
4,55,82,0
4,62,103,0
4,64,88,0
4,59,80,384
4,55,97,0
4,60,93,0
4,52,103,0
4,60,85,188
4,57,97,0
4,65,93,0
4,59,97,0
4,67,93,0
4,55,82,0
4,62,103,0
4,64,88,0
4,59,80,384
4,55,97,0
4,60,93,0
4,52,97,0
4,60,93,0
4,57,88,0
4,60,69,0
4,65,64,0
4,69,96,0
4,57,94,77
4,65,81,192
4,59,88,0
4,62,69,0
4,67,64,0
4,71,96,0
4,59,94,77
4,67,81,192
4,55,97,0
4,62,93,0
4,52,88,0
4,57,69,0
4,60,64,0
4,64,96,0
4,52,94,77
4,60,81,192
4,55,97,0
4,64,93,0
4,60,97,0
4,66,93,0
4,57,81,0
4,60,95,0
4,65,69,0
4,69,83,0
4,57,106,208
4,55,81,0
4,60,95,0
4,64,69,0
4,67,83,0
4,55,106,208
4,53,81,0
4,57,95,0
4,60,69,0
4,64,83,0
4,53,106,208
4,55,81,0
4,60,95,0
4,64,69,0
4,67,83,0
4,55,106,208
4,60,94,0
4,62,61,0
4,65,80,0
4,69,73,0
4,62,84,100
4,59,97,0
4,67,93,0
4,55,82,0
4,64,103,0
4,67,88,0
4,60,80,384
4,57,94,0
4,60,61,0
4,65,80,0
4,69,73,0
4,60,84,100
4,55,97,0
4,64,93,0
4,55,97,0
4,64,93,0
4,59,97,0
4,64,93,0
4,55,103,0
4,57,82,32
4,65,103,0
4,69,88,0
4,60,80,576
4,56,88,0
4,60,69,0
4,65,64,0
4,68,96,0
4,56,94,77
4,65,81,192
4,55,97,0
4,64,93,0
4,55,82,32
4,60,103,0
4,64,88,0
4,57,80,576
4,57,82,0
4,64,103,0
4,67,88,0
4,60,80,384
4,57,97,0
4,65,93,0
4,55,82,0
4,64,103,0
4,67,88,0
4,60,80,384
4,55,97,0
4,64,93,0
4,58,94,0
4,62,61,0
4,65,80,0
4,69,73,0
4,62,84,100
4,53,97,0
4,62,93,0
4,55,88,0
4,60,69,0
4,64,64,0
4,67,96,0
4,55,94,77
4,64,81,192
4,57,81,0
4,58,95,0
4,62,69,0
4,65,83,0
4,57,106,208
4,53,82,0
4,62,103,0
4,65,88,0
4,58,80,384
4,55,97,0
4,64,93,0
4,53,82,32
4,62,103,0
4,65,88,0
4,58,80,576
4,58,97,0
4,64,93,0
4,57,82,0
4,65,103,0
4,69,88,0
4,60,80,384
4,59,82,0
4,67,103,0
4,71,88,0
4,62,80,384
4,55,82,0
4,62,103,0
4,64,88,0
4,59,80,384
4,55,97,0
4,60,93,0
4,52,97,32
4,60,93,0
4,57,97,32
4,65,93,0
4,59,82,7
4,67,103,0
4,71,88,0
4,62,80,384
4,55,82,0
4,62,103,0
4,64,88,0
4,59,80,384
4,55,97,0
4,60,93,0
4,52,103,0
4,57,97,32
4,65,93,0
4,59,97,7
4,67,93,0
4,55,82,0
4,62,103,0
4,64,88,0
4,59,80,384
4,52,97,0
4,60,93,0
4,55,97,32
4,64,93,0
4,60,97,7
4,66,93,0
4,57,94,0
4,60,61,0
4,65,80,0
4,69,73,0
4,60,84,100
4,52,97,0
4,60,93,0
4,52,97,0
4,60,93,0
4,56,97,0
4,60,93,0
4,55,97,0
4,60,93,0
4,58,97,0
4,64,93,0
4,58,97,0
4,65,93,0
4,58,97,0
4,64,93,0
4,53,82,0
4,62,103,0
4,65,88,0
4,58,80,384
4,55,97,0
4,64,93,0
4,55,82,0
4,60,103,0
4,64,88,0
4,57,80,384
4,60,97,0
4,65,93,0
4,57,103,0
4,65,85,188
4,53,97,0
4,62,93,0
4,55,82,0
4,64,103,0
4,67,88,0
4,60,80,384
4,55,97,0
4,60,93,0
4,60,97,32
4,65,93,0
4,58,97,7
4,63,93,0
4,53,82,0
4,62,103,0
4,65,88,0
4,58,80,384
4,55,97,0
4,64,93,0
4,55,97,0
4,60,93,0
4,60,97,0
4,65,93,0
4,57,82,32
4,65,103,0
4,69,88,0
4,60,80,576
4,59,82,0
4,65,103,0
4,67,88,0
4,62,80,384
4,53,81,0
4,58,89,0
4,62,79,0
4,65,86,0
4,53,79,135
4,58,92,61
4,57,98,32
4,65,71,0
4,69,88,0
4,57,97,170
4,72,86,384
4,57,91,144
4,65,77,132
4,69,93,384
4,57,93,0
4,60,93,0
4,65,93,0
4,69,89,35
4,57,99,6
4,60,77,0
4,65,91,0
5,72,102,8640
5,71,104,0
5,72,104,0
5,71,106,0
5,72,106,0
5,67,106,0
5,67,107,0
5,71,107,0
5,72,107,0
5,71,107,0
5,72,107,0
5,65,106,0
5,65,106,0
5,71,102,0
5,72,100,0
5,71,100,0
5,72,100,0
5,67,98,0
5,60,100,192
5,65,100,0
5,72,100,0
5,71,100,0
5,72,100,0
5,71,100,0
5,72,100,0
5,67,100,0
5,72,100,0
5,71,100,0
5,72,98,0
5,71,98,0
5,72,100,0
5,65,98,0
5,72,98,0
5,71,98,0
5,72,95,0
5,71,95,0
5,72,97,0
5,67,97,0
5,74,93,384
5,74,93,0
5,74,93,0
5,72,93,0
5,70,93,0
5,69,93,0
5,72,89,0
5,74,91,192
5,74,91,0
5,74,93,0
5,74,93,0
5,72,93,0
5,70,93,0
5,69,93,0
5,74,93,0
5,72,89,0
5,72,88,0
5,70,95,0
5,67,95,0
5,65,95,0
5,64,95,0
5,74,95,0
5,74,93,0
5,72,91,0
5,72,95,0
5,74,95,0
5,74,95,0
5,67,95,0
5,74,95,0
5,74,95,0
5,74,95,0
5,76,95,0
5,74,95,0
5,72,93,0
5,69,93,0
5,69,91,0
5,71,91,0
5,72,91,0
5,74,91,0
5,74,89,0
5,67,89,0
5,74,88,0
5,74,88,0
5,74,88,0
5,76,88,0
5,72,89,0
5,69,89,0
5,69,88,0
5,71,88,0
5,72,91,0
5,74,91,0
5,74,89,0
5,67,89,0
5,74,91,0
5,74,91,0
5,74,91,0
5,76,91,0
5,74,91,0
5,72,89,0
5,69,89,0
5,71,89,0
5,72,95,0
5,74,95,0
5,74,93,0
5,69,91,0
5,72,89,0
5,74,84,0
5,74,82,0
5,72,88,0
5,74,91,0
5,76,91,0
5,76,89,0
5,74,89,0
5,76,89,0
5,76,89,0
5,76,89,0
5,67,89,0
5,74,89,0
5,76,89,0
5,76,89,0
5,76,84,0
5,67,84,0
5,76,91,0
5,72,91,0
5,71,89,0
5,72,88,0
5,71,86,0
5,72,84,0
5,67,86,0
5,67,86,0
5,71,86,0
5,72,86,0
5,71,88,0
5,72,88,0
5,65,89,0
5,72,89,0
5,71,88,0
5,72,88,0
5,71,88,0
5,72,88,0
5,67,88,0
5,65,88,192
5,69,86,0
5,72,84,0
5,71,82,0
5,72,82,0
5,71,82,0
5,72,82,0
5,67,86,0
5,67,88,0
5,76,88,0
5,76,88,0
5,76,86,0
5,74,86,0
5,72,82,0
5,72,82,0
5,71,82,0
5,72,82,0
5,74,82,0
5,72,84,0
5,67,86,0
5,74,84,192
5,74,84,0
5,74,84,0
5,74,84,0
5,72,82,0
5,70,82,0
5,69,80,0
5,72,93,0
5,74,93,192
5,74,93,0
5,74,91,0
5,74,91,0
5,72,91,0
5,70,89,0
5,69,89,0
5,74,89,0
5,72,88,0
5,72,88,0
5,62,88,0
5,64,89,0
5,74,88,0
5,72,88,0
5,71,88,0
5,72,88,0
5,74,88,0
5,74,88,0
5,67,88,0
5,74,88,0
5,74,88,0
5,74,88,0
5,76,88,0
5,74,88,0
5,72,88,0
5,69,88,0
5,69,88,0
5,71,86,0
5,72,82,0
5,74,82,0
5,74,82,0
5,67,82,0
5,74,88,0
5,74,86,0
5,74,91,0
5,74,89,0
5,76,88,0
5,72,86,0
5,69,84,0
5,69,84,0
5,71,84,0
5,72,84,0
5,74,82,0
5,74,77,0
5,69,84,0
5,74,88,0
5,74,89,0
5,74,89,0
5,76,89,0
5,74,89,0
5,72,84,0
5,69,80,0
5,71,80,0
5,72,80,0
5,74,86,0
5,74,86,0
5,69,84,0
5,72,84,0
5,74,86,0
5,74,84,0
5,72,84,0
5,74,82,0
5,76,82,0
5,76,82,0
5,76,84,0
5,74,82,0
5,72,80,0
5,79,80,0
5,79,80,0
5,77,80,0
5,77,82,0
5,79,80,0
5,79,75,0
5,72,73,0
5,79,77,0
5,79,77,0
5,79,77,0
5,81,77,0
5,79,75,0
5,77,75,0
5,74,75,0
5,74,75,0
5,76,75,0
5,77,80,0
5,79,80,0
5,79,75,0
5,72,73,0
5,79,73,0
5,79,73,0
5,79,73,0
5,81,75,0
5,77,73,0
5,82,75,0
5,82,75,0
5,81,75,0
5,77,77,0
5,79,77,0
5,79,73,0
5,72,73,0
5,79,77,0
5,79,77,0
5,79,75,0
5,81,75,0
5,79,75,0
5,77,75,0
5,74,75,0
5,76,73,0
5,77,75,0
5,79,75,0
5,79,75,0
5,79,75,0
5,77,77,0
5,79,80,0
5,79,80,0
5,77,80,0
5,79,84,0
5,81,84,0
5,81,82,0
5,76,91,0
5,77,91,0
5,76,91,0
5,74,86,0
5,77,86,0
5,79,86,0
5,81,88,0
5,81,89,0
5,76,89,0
5,77,91,0
5,76,91,0
5,74,91,0
5,77,89,0
5,79,89,0
5,81,88,0
5,81,88,0
5,77,86,0
5,81,84,0
5,84,84,0
6,81,59,64512
6,89,59,0
6,83,59,0
6,91,59,0
6,79,59,0
6,86,59,0
6,79,59,0
6,84,59,0
6,76,59,0
6,84,59,0
6,81,59,0
6,89,59,0
6,83,59,0
6,91,59,0
6,79,59,0
6,86,59,0
6,79,59,0
6,84,59,0
6,76,59,0
6,84,59,0
6,81,59,0
6,89,59,0
6,83,59,0
6,91,59,0
6,79,59,0
6,86,59,0
6,76,59,0
6,84,59,0
6,79,59,0
6,88,59,0
6,84,59,0
6,90,59,0
6,81,59,0
6,89,59,0
6,76,59,0
6,84,59,0
6,76,59,0
6,84,59,0
6,80,59,0
6,84,59,0
6,79,59,0
6,84,59,0
6,82,59,0
6,88,59,0
6,82,59,0
6,89,59,0
6,82,59,0
6,88,59,0
6,77,59,0
6,86,59,0
6,79,59,0
6,88,59,0
6,79,59,0
6,84,59,0
6,84,59,0
6,89,59,0
6,81,59,0
6,89,59,0
6,77,59,0
6,86,59,0
6,79,59,0
6,88,59,0
6,79,59,0
6,84,59,0
6,84,59,0
6,89,59,0
6,82,59,0
6,87,59,0
6,77,59,0
6,86,59,0
6,79,59,0
6,88,59,0
6,79,59,0
6,84,59,0
6,84,59,0
6,89,59,0
6,81,59,0
6,89,59,0
6,83,59,0
6,89,59,0
6,77,59,0
6,86,59,0
6,81,59,0
6,89,59,0
6,81,59,0
6,89,59,0
6,81,59,0
6,89,59,0
7,52,53,384
7,60,75,0
7,64,63,0
7,55,63,6
7,55,50,45
7,52,32,7
7,56,65,0
7,59,55,0
7,53,54,9
7,56,72,218
7,50,48,6
7,53,63,0
7,59,69,0
7,55,79,0
7,57,69,0
7,48,51,6
7,52,68,3
7,48,42,58
7,55,86,125
7,48,62,6
7,52,77,0
7,57,83,0
7,48,27,45
7,52,21,0
7,50,69,16
7,53,78,0
7,50,53,122
7,56,75,0
7,59,63,0
7,53,63,6
7,53,50,45
7,50,32,7
7,55,67,9
7,52,65,3
7,55,53,185
7,60,70,16
7,64,65,42
7,60,70,436
7,52,55,16
7,55,46,67
7,52,51,131
7,64,61,0
7,60,75,0
7,57,63,3
7,53,55,6
7,60,66,134
7,53,53,51
7,60,56,121
7,57,54,7
7,60,61,74
7,53,69,16
7,56,78,0
7,53,53,128
7,59,75,0
7,62,63,0
7,56,63,6
7,56,50,45
7,53,32,7
7,53,69,16
7,55,78,0
7,53,53,122
7,59,75,0
7,62,63,0
7,55,63,6
7,55,50,45
7,53,32,7
7,62,65,0
7,67,55,0
7,59,54,9
7,62,72,218
7,55,48,6
7,59,63,0
7,67,69,0
