track,note,velocity,time
1,65,117,6142
1,69,113,0
1,62,117,0
1,58,117,0
1,62,0,88
1,58,0,0
1,65,0,6
1,69,0,0
1,58,117,50
1,65,117,0
1,69,109,0
1,62,117,0
1,62,0,40
1,65,0,4
1,58,0,4
1,69,0,0
1,58,117,96
1,65,117,0
1,62,117,0
1,69,117,0
1,62,0,272
1,58,0,16
1,65,0,0
1,69,0,0
1,63,117,192
1,60,117,0
1,67,117,0
1,56,115,0
1,60,0,96
1,67,0,0
1,56,0,0
1,63,0,4
1,63,117,44
1,67,117,0
1,60,117,0
1,56,115,0
1,56,0,46
1,63,0,2
1,67,0,0
1,60,0,0
1,63,117,96
1,67,117,0
1,56,117,0
1,60,117,0
1,60,0,278
1,63,0,10
1,67,0,0
1,56,0,8
1,65,117,184
1,58,117,0
1,69,117,0
1,62,117,0
1,69,0,102
1,62,0,0
1,58,0,2
1,65,0,4
1,69,117,36
1,65,117,0
1,62,117,0
1,58,117,0
1,69,0,40
1,65,0,0
1,62,0,0
1,58,0,0
1,58,117,104
1,69,117,0
1,62,117,0
1,65,117,0
1,62,0,238
1,58,0,2
1,65,0,0
1,69,0,8
1,63,117,232
1,56,117,0
1,67,117,0
1,60,117,0
1,63,0,192
1,56,0,0
1,67,0,0
1,60,0,0
1,65,117,96
1,62,117,0
1,58,117,0
1,69,117,0
1,62,0,256
1,58,0,4
1,65,0,4
1,69,0,0
1,68,127,216
1,65,127,0
1,63,127,0
1,72,127,0
1,53,127,0
1,41,127,0
1,75,127,0
1,68,0,264
1,72,0,0
1,65,0,8
1,63,0,8
1,68,127,56
1,65,127,0
1,72,127,0
1,63,127,0
1,72,0,40
1,63,0,0
1,68,0,6
1,65,0,2
1,68,127,96
1,65,124,0
1,72,127,0
1,63,127,0
1,68,0,32
1,72,0,0
1,65,0,8
1,63,0,0
1,75,0,32
1,41,0,36
1,53,0,4
1,70,126,32
1,74,127,0
1,67,127,0
1,63,127,0
1,51,127,0
1,39,127,0
1,74,0,192
1,63,0,0
1,67,0,4
1,70,0,12
1,39,0,144
1,51,0,8
1,69,127,72
1,63,127,0
1,66,127,0
1,72,127,0
1,38,127,0
1,50,127,0
1,66,0,152
1,69,0,16
1,72,0,0
1,63,0,8
1,50,0,312
1,38,0,8
1,70,127,80
1,65,127,0
1,67,127,0
1,62,127,0
1,55,127,0
1,43,127,0
1,65,0,120
1,67,0,0
1,70,0,8
1,62,0,0
1,43,0,388
1,55,0,4
1,68,127,104
1,72,127,0
1,63,127,0
1,65,127,0
1,53,127,0
1,41,127,0
1,75,127,0
1,65,0,118
1,72,0,2
1,63,0,0
1,68,0,8
1,65,127,160
1,68,127,0
1,63,127,0
1,72,127,0
1,65,0,38
1,63,0,0
1,68,0,2
1,72,0,0
1,75,0,80
1,41,0,24
1,65,127,0
1,68,122,0
1,72,127,0
1,63,120,0
1,53,0,16
1,65,0,16
1,68,0,0
1,63,0,8
1,72,0,8
1,74,127,96
1,67,127,0
1,70,127,0
1,63,127,0
1,51,127,0
1,39,127,0
1,67,0,238
1,74,0,2
1,70,0,0
1,63,0,0
1,39,0,256
1,51,0,16
1,69,127,64
1,72,127,0
1,63,127,0
1,66,127,0
1,50,127,0
1,38,127,0
1,63,0,160
1,66,0,0
1,69,0,8
1,72,0,0
1,69,127,120
1,72,127,0
1,66,127,0
1,63,111,0
1,69,0,32
1,66,0,0
1,63,0,0
1,72,0,8
1,69,127,104
1,66,126,0
1,72,127,0
1,63,114,0
1,63,0,24
1,66,0,8
1,69,0,6
1,72,0,0
1,38,0,18
1,50,0,8
1,65,127,80
1,67,127,0
1,70,127,0
1,62,127,0
1,55,127,0
1,43,127,0
1,67,0,120
1,65,0,8
1,70,0,8
1,62,0,0
1,43,0,16
1,55,0,8
1,67,120,120
1,75,122,0
1,72,125,0
1,70,127,0
1,57,127,0
1,67,0,120
1,75,0,0
1,72,0,0
1,70,0,0
1,57,0,8
1,69,127,16
1,72,127,0
1,67,125,0
1,63,122,0
1,60,127,0
1,69,0,120
1,72,0,0
1,67,0,0
1,63,0,0
1,60,0,8
1,70,127,16
1,65,127,0
1,62,127,0
1,67,127,0
1,58,127,0
1,65,0,304
1,67,0,0
1,70,0,8
1,62,0,0
1,58,0,24
1,67,125,144
1,75,127,0
1,72,125,0
1,70,122,0
1,81,127,0
1,72,0,104
1,70,0,0
1,67,0,4
1,75,0,0
1,81,0,36
1,69,127,0
1,67,127,0
1,72,118,0
1,63,127,0
1,84,127,0
1,69,0,120
1,67,0,0
1,72,0,0
1,63,0,0
1,84,0,0
1,65,125,24
1,67,125,0
1,62,127,0
1,70,125,0
1,82,127,0
1,65,0,310
1,82,0,0
1,67,0,2
1,62,0,8
1,70,0,0
1,72,127,160
1,70,116,0
1,67,127,0
1,63,122,0
1,72,0,384
1,70,0,0
1,67,0,0
1,63,0,0
1,69,127,0
1,63,106,0
1,66,125,0
1,72,127,0
1,69,0,384
1,63,0,0
1,66,0,0
1,72,0,0
1,70,127,0
1,74,127,0
1,67,127,0
1,63,127,0
1,70,0,192
1,74,0,0
1,67,0,0
1,63,0,0
1,70,127,0
1,74,127,0
1,63,127,0
1,66,127,0
1,70,0,192
1,74,0,0
1,63,0,0
1,66,0,0
1,74,127,0
1,70,127,0
1,68,127,0
1,65,127,0
1,74,0,384
1,70,0,0
1,68,0,0
1,65,0,0
1,75,125,0
1,72,127,0
1,68,127,0
1,65,122,0
1,87,127,288
1,84,127,24
1,80,120,24
1,77,127,24
1,80,0,132
1,87,0,20
1,84,0,0
1,77,0,22
1,75,0,74
1,72,0,4
1,65,0,4
1,68,0,8
1,70,127,24
1,74,127,0
1,67,127,0
1,63,127,0
1,91,127,288
1,86,127,24
1,82,116,24
1,79,127,24
1,91,0,94
1,82,0,0
1,86,0,2
1,79,0,16
1,70,0,136
1,67,0,0
1,74,0,8
1,63,0,8
1,75,127,24
1,72,127,0
1,68,127,0
1,65,120,0
1,65,0,580
1,72,0,4
1,75,0,6
1,68,0,2
1,70,127,176
1,74,127,0
1,67,127,0
1,63,125,0
1,70,0,448
1,74,0,0
1,67,0,16
1,63,0,0
1,76,127,16
1,72,127,0
1,76,0,288
1,72,0,0
1,65,125,0
1,68,125,0
1,75,127,0
1,72,127,0
1,87,127,288
1,84,127,24
1,80,104,48
1,77,125,0
1,77,0,110
1,84,0,6
1,80,0,4
1,87,0,16
1,68,0,40
1,75,0,0
1,72,0,0
1,65,0,24
1,74,127,32
1,77,127,0
1,70,122,0
1,67,127,0
1,77,0,240
1,70,0,4
1,67,0,4
1,74,0,16
1,76,127,24
1,67,127,0
1,72,127,0
1,70,122,0
1,70,0,382
1,67,0,2
1,72,0,0
1,76,0,8
1,68,127,88
1,75,127,0
1,65,127,0
1,84,127,0
1,72,127,0
1,82,127,144
1,84,0,16
1,72,0,108
1,75,0,2
1,68,0,10
1,65,0,0
1,84,127,8
1,82,0,12
1,65,127,84
1,72,127,0
1,63,127,0
1,82,127,0
1,68,127,0
1,84,0,6
1,82,0,48
1,80,127,0
1,63,0,50
1,68,0,0
1,65,0,6
1,72,0,16
1,80,0,72
1,82,127,0
1,70,127,0
1,80,127,0
1,67,127,0
1,74,127,0
1,77,127,0
1,82,0,16
1,80,0,48
1,79,127,0
1,74,0,72
1,77,0,8
1,70,0,8
1,67,0,0
1,79,0,48
1,80,127,8
1,80,0,96
1,70,127,0
1,73,127,0
1,67,127,0
1,76,127,0
1,79,127,0
1,79,0,48
1,77,127,0
1,76,0,80
1,73,0,8
1,67,0,0
1,70,0,4
1,79,127,4
1,77,0,16
1,79,0,80
1,80,127,0
1,80,0,88
1,75,127,8
1,65,127,0
1,72,127,0
1,68,127,0
1,72,0,140
1,75,0,4
1,65,0,0
1,68,0,0
1,78,120,48
1,74,120,0
1,70,120,0
1,82,120,0
1,66,120,0
1,74,0,560
1,78,0,8
1,66,0,0
1,70,0,6
1,82,0,0
1,58,100,194
1,65,100,0
1,62,100,0
1,69,100,0
1,62,0,102
1,58,0,2
1,69,0,0
1,65,0,6
1,65,100,34
1,69,100,0
1,58,100,0
1,62,100,0
1,62,0,36
1,65,0,4
1,69,0,0
1,58,0,0
1,58,100,104
1,65,100,0
1,62,100,0
1,69,100,0
1,62,0,88
1,69,0,0
1,65,0,4
1,58,0,4
1,58,100,192
1,65,100,0
1,69,100,0
1,62,100,0
1,62,0,32
1,58,0,16
1,65,0,0
1,69,0,2
1,56,100,0
1,60,100,0
1,63,100,0
1,67,100,0
1,60,0,88
1,67,0,0
1,56,0,8
1,63,0,0
1,63,100,48
1,67,100,0
1,56,100,0
1,60,100,0
1,60,0,40
1,56,0,4
1,63,0,4
1,67,0,0
1,63,100,96
1,60,100,0
1,67,100,0
1,56,100,0
1,67,0,112
1,63,0,6
1,60,0,2
1,56,0,8
1,56,100,112
1,60,100,0
1,67,100,0
1,63,100,0
1,60,0,46
1,67,0,2
1,63,0,0
1,56,0,8
1,65,100,40
1,69,100,0
1,62,100,0
1,58,100,0
1,65,0,88
1,62,0,0
1,58,0,0
1,69,0,8
1,69,100,48
1,58,100,0
1,62,100,0
1,65,100,0
1,58,0,46
1,65,0,0
1,62,0,2
1,69,0,2
1,58,100,94
1,65,100,0
1,69,100,0
1,62,100,0
1,65,0,232
1,69,0,8
1,62,0,0
1,58,0,32
1,65,100,96
1,69,100,0
1,58,100,0
1,62,100,0
1,62,0,36
1,65,0,12
1,69,0,0
1,58,0,0
1,56,100,0
1,67,100,0
1,63,100,0
1,60,100,0
1,67,0,48
1,63,0,0
1,60,0,0
1,56,0,16
1,58,100,0
1,62,100,0
1,65,100,0
1,69,100,0
1,58,0,152
1,62,0,0
1,65,0,0
1,69,0,0
1,68,127,328
1,65,127,0
1,63,127,0
1,72,127,0
1,53,127,0
1,41,127,0
1,75,127,0
1,68,0,264
1,72,0,0
1,65,0,8
1,63,0,8
1,68,127,56
1,65,127,0
1,72,127,0
1,63,127,0
1,72,0,40
1,63,0,0
1,68,0,4
1,65,0,4
1,68,127,96
1,65,124,0
1,72,127,0
1,63,127,0
1,68,0,32
1,72,0,0
1,65,0,8
1,63,0,0
1,75,0,32
1,41,0,36
1,53,0,4
1,70,126,32
1,74,127,0
1,67,127,0
1,63,127,0
1,51,127,0
1,39,127,0
1,74,0,192
1,63,0,0
1,67,0,4
1,70,0,12
1,39,0,144
1,51,0,8
1,69,127,72
1,63,127,0
1,66,127,0
1,72,127,0
1,38,127,0
1,50,127,0
1,66,0,152
1,69,0,16
1,72,0,0
1,63,0,8
1,50,0,312
1,38,0,8
1,70,127,80
1,65,127,0
1,67,127,0
1,62,127,0
1,55,127,0
1,43,127,0
1,65,0,120
1,67,0,0
1,70,0,8
1,62,0,0
1,43,0,388
1,55,0,4
1,68,127,104
1,72,127,0
1,63,127,0
1,65,127,0
1,53,127,0
1,41,127,0
1,75,127,0
1,65,0,116
1,72,0,4
1,63,0,0
1,68,0,8
1,65,127,160
1,68,127,0
1,63,127,0
1,72,127,0
1,65,0,36
1,63,0,0
1,68,0,4
1,72,0,0
1,75,0,80
1,41,0,24
1,65,127,0
1,68,122,0
1,72,127,0
1,63,120,0
1,53,0,16
1,65,0,16
1,68,0,0
1,63,0,8
1,72,0,8
1,74,127,0
1,67,127,0
1,70,127,0
1,63,127,0
1,51,127,0
1,39,127,0
1,67,0,236
1,74,0,4
1,70,0,0
1,63,0,0
1,39,0,256
1,51,0,16
1,69,127,64
1,72,127,0
1,63,127,0
1,66,127,0
1,50,127,0
1,38,127,0
1,63,0,160
1,66,0,0
1,69,0,8
1,72,0,0
1,69,127,120
1,72,127,0
1,66,127,0
1,63,111,0
1,69,0,32
1,66,0,0
1,63,0,0
1,72,0,8
1,69,127,104
1,66,126,0
1,72,127,0
1,63,114,0
1,63,0,24
1,66,0,8
1,69,0,4
1,72,0,0
1,38,0,20
1,50,0,8
1,65,127,80
1,67,127,0
1,70,127,0
1,62,127,0
1,55,127,0
1,43,127,0
1,67,0,120
1,65,0,8
1,70,0,8
1,62,0,0
1,43,0,16
1,55,0,8
1,67,120,120
1,75,122,0
1,72,125,0
1,70,127,0
1,57,127,0
1,67,0,120
1,75,0,0
1,72,0,0
1,70,0,0
1,57,0,8
1,69,127,16
1,72,127,0
1,67,125,0
1,63,122,0
1,60,127,0
1,69,0,120
1,72,0,0
1,67,0,0
1,63,0,0
1,60,0,8
1,70,127,16
1,65,127,0
1,62,127,0
1,67,127,0
1,58,127,0
1,65,0,304
1,67,0,0
1,70,0,8
1,62,0,0
1,58,0,24
1,67,125,144
1,75,127,0
1,72,125,0
1,70,122,0
1,81,127,0
1,72,0,104
1,70,0,0
1,67,0,4
1,75,0,0
1,81,0,36
1,69,127,0
1,67,127,0
1,72,118,0
1,63,127,0
1,84,127,0
1,69,0,120
1,67,0,0
1,72,0,0
1,63,0,0
1,84,0,0
1,65,125,24
1,67,125,0
1,62,127,0
1,70,125,0
1,82,127,0
1,65,0,308
1,82,0,0
1,67,0,4
1,62,0,8
1,70,0,0
1,72,127,160
1,70,116,0
1,67,127,0
1,63,122,0
1,72,0,384
1,70,0,0
1,67,0,0
1,63,0,0
1,69,127,0
1,63,106,0
1,66,125,0
1,72,127,0
1,69,0,384
1,63,0,0
1,66,0,0
1,72,0,0
1,70,127,0
1,74,127,0
1,67,127,0
1,63,127,0
1,70,0,144
1,74,0,0
1,67,0,0
1,63,0,0
1,70,127,48
1,74,127,0
1,63,127,0
1,66,127,0
1,70,0,192
1,74,0,0
1,63,0,0
1,66,0,0
1,74,127,0
1,70,127,0
1,68,127,0
1,65,127,0
1,74,0,96
1,70,0,0
1,68,0,0
1,65,0,0
1,75,125,288
1,72,127,0
1,68,127,0
1,65,122,0
1,87,127,288
1,84,127,24
1,80,120,24
1,77,127,24
1,80,0,134
1,87,0,18
1,84,0,0
1,77,0,22
1,75,0,74
1,72,0,4
1,65,0,4
1,68,0,8
1,70,127,24
1,74,127,0
1,67,127,0
1,63,127,0
1,91,127,288
1,86,127,24
1,82,116,24
1,79,127,24
1,91,0,94
1,82,0,0
1,86,0,2
1,79,0,16
1,70,0,136
1,67,0,0
1,74,0,8
1,63,0,8
1,75,127,24
1,72,127,0
1,68,127,0
1,65,120,0
1,65,0,578
1,72,0,6
1,75,0,4
1,68,0,4
1,70,127,176
1,74,127,0
1,67,127,0
1,63,125,0
1,70,0,448
1,74,0,0
1,67,0,16
1,63,0,0
1,76,127,16
1,72,127,0
1,76,0,288
1,72,0,0
1,65,125,0
1,68,125,0
1,75,127,0
1,72,127,0
1,87,127,288
1,84,127,24
1,80,104,48
1,77,125,0
1,77,0,108
1,84,0,10
1,80,0,2
1,87,0,16
1,68,0,40
1,75,0,0
1,72,0,0
1,65,0,24
1,74,127,32
1,77,127,0
1,70,122,0
1,67,127,0
1,77,0,240
1,70,0,4
1,67,0,4
1,74,0,16
1,76,127,24
1,67,127,0
1,72,127,0
1,70,122,0
1,70,0,380
1,67,0,4
1,72,0,0
1,76,0,8
1,68,127,88
1,75,127,0
1,65,127,0
1,84,127,0
1,72,127,0
1,82,127,144
1,84,0,16
1,72,0,110
1,75,0,2
1,68,0,8
1,65,0,0
1,84,127,8
1,82,0,14
1,65,127,82
1,72,127,0
1,63,127,0
1,82,127,0
1,68,127,0
1,84,0,6
1,82,0,48
1,80,127,0
1,63,0,50
1,68,0,0
1,65,0,6
1,72,0,16
1,80,0,72
1,82,127,0
1,70,127,0
1,80,127,0
1,67,127,0
1,74,127,0
1,77,127,0
1,82,0,16
1,80,0,48
1,79,127,0
1,74,0,72
1,77,0,8
1,70,0,8
1,67,0,0
1,79,0,48
1,80,127,8
1,80,0,96
1,70,127,0
1,73,127,0
1,67,127,0
1,76,127,0
1,79,127,0
1,79,0,48
1,77,127,0
1,76,0,80
1,73,0,8
1,67,0,0
1,70,0,4
1,79,127,4
1,77,0,16
1,79,0,80
1,80,127,0
1,80,0,88
1,75,127,8
1,65,127,0
