track,note,velocity,time
1,46,80,1140
1,53,74,184
1,60,93,188
1,60,90,4
1,53,75,4
1,62,90,192
1,58,77,192
1,46,76,4
1,58,84,8
1,65,88,4
1,46,67,0
1,53,82,184
1,58,92,4
1,60,90,188
1,53,83,4
1,62,90,188
1,46,66,4
1,58,77,0
1,53,89,48
1,46,55,4
1,57,97,0
1,53,75,180
1,62,90,192
1,62,91,4
1,53,78,4
1,60,90,188
1,57,91,4
1,46,72,0
1,53,78,192
1,62,90,192
1,62,100,4
1,53,79,4
1,63,88,192
1,65,80,88
1,58,85,8
1,65,85,0
1,39,85,0
1,46,80,188
1,55,94,192
1,58,77,4
1,67,98,192
1,62,74,384
1,51,94,80
1,58,83,4
1,70,92,4
1,62,80,0
1,70,94,4
1,62,88,0
1,58,72,4
1,51,65,4
1,72,87,0
1,63,85,0
1,74,90,200
1,65,75,0
1,41,91,84
1,74,90,0
1,65,86,0
1,53,84,188
1,75,95,196
1,67,80,4
1,72,89,384
1,63,88,0
1,58,68,376
1,63,64,4
1,72,75,0
1,41,86,16
1,67,90,0
1,75,95,4
1,53,84,188
1,58,83,192
1,60,89,192
1,53,75,4
1,63,77,192
1,41,76,4
1,53,72,8
1,46,70,4
1,65,85,0
1,60,87,0
1,53,73,180
1,65,83,0
1,60,83,0
1,53,73,4
1,53,55,4
1,57,84,68
1,65,80,0
1,46,66,0
1,53,73,196
1,57,80,4
1,60,90,4
1,65,43,0
1,53,89,4
1,57,95,4
1,65,89,4
1,53,70,4
1,60,86,24
1,46,64,0
1,65,80,0
1,62,77,4
1,65,82,0
1,53,64,0
1,65,49,4
1,46,64,4
1,60,81,0
1,57,71,0
1,65,71,0
1,53,80,192
1,57,101,4
1,60,91,4
1,53,75,4
1,58,89,4
1,60,90,4
1,46,71,4
1,62,91,4
1,53,72,20
1,58,72,0
1,63,83,4
1,62,83,0
1,67,90,0
1,48,83,0
1,63,77,4
1,55,74,0
1,60,79,0
1,67,89,0
1,48,84,4
1,55,78,4
1,46,69,20
1,63,88,0
1,60,83,4
1,67,94,4
1,55,84,184
1,63,84,4
1,62,87,0
1,67,90,0
1,46,63,4
1,60,83,0
1,55,75,4
1,44,91,0
1,63,88,0
1,60,93,0
1,67,97,0
1,51,87,184
1,55,59,200
1,63,88,4
1,67,97,0
1,60,95,0
1,44,91,4
1,51,91,4
1,41,83,4
1,63,75,0
1,58,78,0
1,60,88,0
1,67,90,0
1,53,72,4
1,58,64,0
1,67,84,0
1,63,78,0
1,60,85,0
1,46,68,84
1,62,83,0
1,57,75,0
1,60,74,0
1,65,78,0
1,53,76,188
1,57,63,4
1,60,68,4
1,60,66,4
1,57,78,4
1,62,78,52
1,60,71,0
1,57,70,0
1,65,74,0
1,46,58,0
1,53,78,192
1,57,90,0
1,65,47,4
1,60,98,4
1,53,82,4
1,62,83,4
1,65,83,4
1,53,68,4
1,53,74,72
1,46,65,0
1,60,78,0
1,62,81,0
1,65,71,0
1,53,62,4
1,62,78,0
1,60,72,0
1,65,76,0
1,46,56,76
1,62,80,4
1,57,72,0
1,60,74,0
1,65,69,4
1,53,69,184
1,57,83,4
1,60,104,4
1,53,93,4
1,62,108,4
1,65,101,4
1,53,88,4
1,63,88,52
1,62,89,0
1,48,82,0
1,67,97,0
1,55,76,576
1,63,99,4
1,60,96,0
1,67,102,0
1,55,64,4
1,63,77,32
1,46,66,0
1,62,87,0
1,67,90,0
1,55,68,576
1,63,101,4
1,62,101,0
1,67,100,0
1,60,80,384
1,55,70,4
1,44,83,0
1,60,88,0
1,63,77,0
1,67,90,0
1,51,66,572
1,63,109,4
1,67,109,0
1,60,101,4
1,63,87,4
1,58,91,0
1,60,97,0
1,67,104,0
1,41,90,0
1,53,83,4
1,63,94,0
1,58,109,0
1,60,110,0
1,67,118,0
1,60,102,40
1,62,102,0
1,53,101,0
1,58,117,4
1,62,110,0
1,53,101,0
1,58,120,40
1,62,112,0
1,55,114,0
1,58,123,24
1,63,109,0
1,55,112,0
1,65,105,764
1,60,108,0
1,57,102,4
1,65,108,4
1,60,114,0
1,57,105,0
1,58,117,32
1,55,107,0
1,63,109,12
1,63,111,4
1,58,120,0
1,55,110,4
1,62,102,60
1,60,102,0
1,53,102,8
1,58,114,4
1,62,107,0
1,53,105,0
1,62,108,48
1,55,114,0
1,58,123,0
1,63,107,40
1,58,120,4
1,55,110,4
1,57,108,72
1,65,110,0
1,60,112,0
1,60,122,4
1,57,114,4
1,63,107,404
1,58,120,0
1,67,118,0
1,55,122,0
1,46,78,124
1,62,104,0
1,53,90,192
1,58,92,196
1,62,100,4
1,60,101,200
1,58,89,4
1,50,74,192
1,43,97,4
1,62,114,0
1,50,98,172
1,58,105,192
1,65,97,192
1,62,110,16
1,55,89,0
1,39,94,0
1,46,89,192
1,58,107,192
1,55,95,4
1,58,101,52
1,63,101,0
1,55,102,0
1,41,93,0
1,65,89,572
1,65,116,4
1,58,105,4
1,48,97,192
1,58,88,4
1,63,87,0
1,67,94,0
1,53,90,0
1,63,83,4
1,67,84,4
1,70,95,192
1,58,64,4
1,63,83,4
1,58,91,84
1,60,95,0
1,62,95,0
1,53,95,0
1,60,101,4
1,58,101,0
1,62,97,0
1,53,90,0
1,60,91,76
1,53,83,0
1,62,91,0
1,57,97,0
1,60,85,4
1,60,112,4
1,62,110,4
1,65,97,192
1,55,97,52
1,62,88,0
1,60,87,0
1,53,94,0
1,55,102,4
1,60,97,0
1,62,88,0
1,53,65,4
1,57,100,72
1,62,90,0
1,60,93,0
1,53,94,0
1,60,74,4
1,60,114,4
1,62,100,4
1,65,116,188
1,63,88,24
1,67,104,0
1,55,96,0
1,60,95,0
1,63,109,4
1,67,116,0
1,62,114,0
1,60,72,168
1,63,111,4
1,62,114,0
1,67,116,0
1,60,75,4
1,60,101,8
1,58,83,0
1,67,105,0
1,63,77,0
1,67,120,4
1,58,123,0
1,63,97,0
1,60,114,0
1,63,101,4
1,67,120,0
1,60,107,0
1,58,111,0
1,56,111,8
1,63,89,0
1,67,116,0
1,60,104,0
1,56,117,4
1,60,105,0
1,63,77,0
1,67,110,0
1,66,61,0
1,56,117,4
1,60,108,0
1,63,88,0
1,67,110,0
1,63,111,56
1,60,118,0
1,67,120,0
1,57,120,0
1,63,114,4
1,60,101,0
1,67,120,0
1,63,117,4
1,60,112,0
1,69,114,0
1,65,114,4
1,63,123,4
1,65,118,0
1,69,118,0
1,60,107,0
1,60,108,4
1,62,104,0
1,65,101,0
1,62,114,4
1,60,114,0
1,65,114,0
1,58,101,4
1,62,98,0
1,65,91,4
1,58,106,4
1,62,106,0
1,65,106,0
1,58,120,56
1,62,112,0
1,55,114,0
1,58,123,24
1,63,109,0
1,55,112,0
1,65,105,764
1,60,108,0
1,57,102,4
1,65,108,4
1,60,114,0
1,57,105,0
1,58,117,32
1,55,107,0
1,63,109,12
1,63,111,4
1,58,120,0
1,55,110,4
1,62,102,60
1,60,102,0
1,53,102,8
1,60,89,4
1,58,114,4
1,62,107,0
1,53,105,0
1,62,108,48
1,55,114,0
1,58,123,0
1,63,107,40
1,58,120,4
1,55,110,4
1,57,108,72
1,65,110,0
1,60,112,0
1,60,122,4
1,57,114,4
1,63,107,404
1,58,120,0
1,67,118,0
1,55,122,0
1,58,111,124
1,62,114,0
1,55,102,0
1,67,122,0
1,67,127,0
1,62,118,4
1,58,107,0
1,58,111,4
1,62,116,0
1,67,124,0
1,65,105,32
1,60,116,0
1,57,112,0
1,65,102,4
1,60,110,0
1,57,112,0
1,57,101,4
1,60,108,0
1,65,104,0
1,62,112,40
1,58,101,0
1,67,90,0
1,58,70,4
1,67,78,0
1,62,90,0
1,74,115,192
1,70,109,192
1,63,111,80
1,70,97,4
1,60,104,0
1,67,112,0
1,63,67,4
1,67,78,0
1,60,72,0
1,70,71,0
1,63,109,4
1,67,116,0
1,70,105,0
1,60,108,0
1,70,89,4
1,67,95,0
1,63,89,0
1,60,93,0
1,63,103,24
1,58,107,0
1,65,107,0
1,60,105,0
1,65,69,4
1,58,44,0
1,60,72,0
1,63,57,0
1,58,103,4
1,65,100,0
1,63,92,0
1,60,104,0
1,63,101,0
1,58,107,4
1,65,102,0
1,60,110,0
1,63,94,48
1,65,100,0
1,58,105,0
1,60,107,0
1,63,109,4
1,67,116,0
1,65,116,0
1,60,104,0
1,69,108,32
1,63,107,8
1,65,108,0
1,60,108,0
1,63,92,4
1,65,97,0
1,69,95,0
1,60,90,0
1,63,101,44
1,67,108,0
1,62,101,0
1,60,100,0
1,63,99,4
1,67,110,0
1,62,108,0
1,60,105,0
1,63,105,0
1,60,108,0
1,67,118,0
1,62,110,4
1,67,127,56
1,63,97,0
1,58,120,0
1,60,112,0
1,58,114,4
1,67,122,0
1,63,92,0
1,60,110,0
1,58,107,4
1,67,116,0
1,63,91,0
1,60,108,0
1,67,120,88
1,63,99,0
1,56,114,0
1,60,105,0
1,63,92,4
1,56,117,0
1,67,116,0
1,60,108,0
1,56,101,4
1,67,97,0
1,60,94,0
1,63,66,0
1,63,101,156
1,67,120,0
1,58,114,0
1,60,110,0
1,67,83,4
1,58,64,0
1,60,86,0
1,63,77,0
1,63,105,4
1,65,104,0
1,69,108,0
1,60,100,0
1,69,112,4
1,63,123,0
1,65,116,0
1,60,110,0
1,60,102,16
1,62,102,0
1,53,101,0
1,58,117,4
1,62,110,0
1,53,101,0
1,58,120,40
1,62,112,0
1,55,114,0
1,58,123,24
1,63,109,0
1,55,112,0
1,65,105,764
1,60,108,0
1,57,102,4
1,65,108,4
1,60,114,0
1,57,105,0
1,58,117,32
1,55,107,0
1,63,109,12
1,63,111,4
1,58,120,0
1,55,110,4
1,62,102,60
1,60,102,0
1,53,102,8
1,58,114,4
1,62,107,0
1,53,105,0
1,62,108,48
1,55,114,0
1,58,123,0
1,63,107,40
1,58,120,4
1,55,110,4
1,57,108,72
1,65,110,0
1,60,112,0
1,60,122,4
1,57,114,4
1,63,97,20
1,60,101,0
1,55,100,0
1,63,107,4
1,60,112,0
1,55,108,0
1,63,109,4
1,60,110,0
1,55,105,0
1,62,102,4
1,64,102,0
1,55,101,0
1,60,117,4
1,64,110,0
1,55,101,0
1,60,120,40
1,64,112,0
1,57,114,0
1,60,123,24
1,65,109,0
1,57,112,0
1,67,105,764
1,62,108,0
1,59,102,4
1,67,108,4
1,62,114,0
1,59,105,0
1,60,117,32
1,57,107,0
1,65,109,12
1,65,111,4
1,60,120,0
1,57,110,4
1,64,102,60
1,62,102,0
1,55,102,8
1,60,114,4
1,64,107,0
1,55,105,0
1,64,108,48
1,57,114,0
1,60,123,0
1,65,107,40
1,60,120,4
1,57,110,4
1,59,108,72
1,67,110,0
1,62,112,0
1,62,122,4
1,59,114,4
1,65,107,404
1,60,120,0
1,69,118,0
1,57,122,0
1,62,102,128
1,64,102,0
1,55,101,0
1,60,117,4
1,64,110,0
1,55,101,0
1,60,120,40
1,64,112,0
1,57,114,0
1,60,123,24
1,65,109,0
1,57,112,0
1,67,105,764
1,62,108,0
1,59,102,4
1,67,108,4
1,62,114,0
1,59,105,0
1,60,117,32
1,57,107,0
1,65,109,12
1,65,111,4
1,60,120,0
1,57,110,4
1,64,102,60
1,62,102,0
1,55,102,8
1,60,114,4
1,64,107,0
1,55,105,0
1,64,108,48
1,57,114,0
1,60,123,0
1,65,107,40
1,60,120,4
1,57,110,4
1,59,108,72
1,67,110,0
1,62,112,0
1,62,122,4
1,59,114,4
1,65,107,404
1,60,120,0
1,69,118,0
1,57,122,0
2,55,69,25304
2,58,54,0
2,46,43,52
2,55,63,108
2,53,58,8
2,46,57,0
2,46,54,388
2,50,73,8
2,53,58,8
2,48,62,392
2,46,61,76
2,48,74,64
2,46,57,16
2,44,71,8
2,44,79,100
2,43,58,24
2,41,70,28
2,43,85,104
2,46,91,12
2,43,92,88
2,39,83,48
2,41,78,108
2,41,82,32
2,41,85,56
2,43,84,24
2,46,94,12
2,43,90,60
2,39,89,20
2,41,81,52
2,29,88,64
2,34,87,4
2,43,82,68
2,39,81,8
2,41,84,76
2,29,94,40
2,34,109,196
2,40,53,36
2,41,82,24
2,34,104,76
2,34,90,64
2,36,106,76
2,36,103,60
2,34,109,40
2,31,92,56
2,34,103,24
2,32,107,48
2,32,104,112
2,31,88,12
2,29,110,16
2,29,86,64
2,29,103,56
2,29,103,16
2,31,107,0
2,29,97,8
2,31,105,4
2,34,106,8
2,38,96,40
2,43,107,24
2,39,100,4
2,41,102,48
2,29,104,36
2,29,112,56
2,31,92,20
2,34,113,36
2,34,98,36
2,38,107,56
2,43,105,32
2,39,97,36
2,41,106,36
2,41,100,52
2,41,92,60
2,31,110,24
2,31,104,52
2,38,104,60
2,36,85,60
2,38,96,36
2,39,97,56
2,39,100,100
2,38,94,56
2,36,100,44
2,36,104,24
2,41,94,88
2,36,98,96
2,29,110,8
2,41,106,44
2,41,105,36
2,36,109,72
2,34,112,124
2,34,106,68
2,32,110,48
2,32,110,60
2,31,107,64
2,29,108,48
2,31,112,44
2,33,111,52
2,36,110,36
2,34,117,80
2,43,110,68
2,39,113,64
2,41,108,68
2,29,112,68
2,31,112,60
2,34,113,68
2,38,110,60
2,43,105,56
2,39,105,40
2,41,102,64
2,36,100,64
2,29,102,36
2,29,102,56
2,31,110,28
2,36,117,40
2,36,103,48
2,35,108,36
2,33,111,32
2,29,110,72
2,31,115,112
2,38,108,68
2,43,113,76
2,31,104,36
2,33,106,40
2,36,112,48
2,35,100,72
2,33,112,84
2,29,107,36
2,31,109,80
2,31,88,48
2,43,110,48
2,31,107,24
2,36,117,108
2,36,103,48
2,35,108,36
2,33,111,32
2,29,110,72
2,31,115,112
2,38,108,68
2,43,113,76
2,31,104,36
2,33,106,40
2,36,112,48
2,35,100,72
2,33,112,84
2,29,107,36
2,31,109,80
2,31,88,48
2,43,110,48
2,31,107,24
2,36,107,104
3,69,127,80200
3,69,127,8356
3,69,127,17572
4,65,80,13364
4,67,71,0
4,70,80,8
4,67,64,192
4,74,86,4
4,65,57,20
4,65,74,56
4,65,84,364
4,67,71,192
4,70,83,8
4,67,60,4
4,74,89,0
4,65,68,24
4,65,80,36
4,75,103,404
4,74,94,252
4,74,85,28
4,72,88,0
4,72,85,20
4,67,58,116
4,75,92,48
4,74,76,0
4,75,87,4
4,74,94,12
4,72,76,0
4,75,103,148
4,74,91,8
4,74,88,64
4,72,76,0
4,72,92,32
4,67,99,28
4,75,105,28
4,77,98,24
4,74,86,184
4,72,82,0
4,70,99,68
4,65,86,8
4,67,74,0
4,70,84,4
4,67,77,4
4,74,85,52
4,67,80,4
4,65,76,20
4,65,100,888
4,67,78,188
4,70,93,4
4,67,86,192
4,74,99,8
4,67,87,12
4,65,81,12
4,75,79,660
4,74,91,0
4,74,95,8
4,72,91,132
4,72,83,20
4,67,84,144
4,75,95,0
4,74,98,4
4,72,93,0
4,72,89,8
4,67,99,324
4,75,101,24
4,77,104,0
4,75,89,272
4,74,102,0
4,72,112,8
4,67,102,220
4,75,107,20
4,74,103,4
4,72,103,24
4,75,115,0
4,77,112,16
4,74,106,188
4,70,115,16
4,70,121,32
4,65,88,132
4,74,110,8
4,72,95,24
4,70,86,376
4,74,102,20
4,72,96,192
4,70,79,360
4,74,100,12
4,72,105,192
4,69,91,4
4,67,80,4
4,65,76,4
4,65,107,188
4,65,96,8
4,75,107,4
4,74,97,4
4,75,112,4
4,72,106,4
4,74,112,28
4,70,118,8
4,70,112,48
4,65,81,220
4,74,105,4
4,72,98,184
4,70,92,4
4,74,105,192
4,72,100,188
4,70,92,8
4,74,94,0
4,72,98,192
4,69,94,356
4,67,85,0
4,65,82,100
4,65,95,168
4,65,87,36
4,75,103,4
4,74,95,16
4,75,90,16
4,72,88,8
4,74,90,0
4,70,82,16
4,70,72,8
4,65,54,4852
4,65,79,8
4,67,82,200
4,70,75,4
4,67,78,4
4,74,91,0
4,67,75,12
4,65,73,0
4,65,62,288
4,65,83,16
