track,note,velocity,time
1,76,60,1136
1,73,54,0
1,71,68,0
1,64,62,0
1,59,62,0
1,45,57,0
1,52,66,184
1,71,73,4
1,73,61,0
1,76,71,0
1,59,73,0
1,52,60,4
1,69,69,4
1,64,61,0
1,45,73,0
1,73,61,0
1,76,59,0
1,57,66,4
1,52,70,188
1,64,65,4
1,73,56,0
1,69,66,0
1,45,74,0
1,76,54,0
1,47,70,92
1,49,84,92
1,73,53,4
1,69,73,0
1,50,73,0
1,66,71,0
1,62,59,0
1,62,47,4
1,66,68,4
1,73,64,0
1,62,79,0
1,69,81,0
1,62,77,4
1,57,72,188
1,50,59,4
1,59,77,196
1,57,73,4
1,73,52,4
1,64,66,0
1,71,75,0
1,76,61,0
1,45,64,0
1,59,65,0
1,52,77,160
1,64,66,4
1,73,61,0
1,71,77,0
1,76,64,0
1,59,60,0
1,52,70,4
1,73,53,4
1,64,64,0
1,69,71,0
1,76,59,0
1,45,72,0
1,57,65,0
1,52,78,176
1,73,52,4
1,64,63,0
1,45,84,0
1,76,64,0
1,69,70,0
1,47,73,92
1,49,93,92
1,66,46,4
1,50,73,0
1,73,49,0
1,62,62,0
1,69,74,0
1,62,49,4
1,62,65,4
1,73,50,0
1,66,72,0
1,69,77,0
1,62,75,4
1,57,53,200
1,45,43,84
1,71,51,0
1,52,58,4
1,64,61,0
1,61,41,4
1,59,49,0
1,61,39,4
1,59,42,4
1,71,70,0
1,64,65,0
1,61,58,4
1,59,65,0
1,52,62,4
1,61,58,4
1,45,64,0
1,69,60,0
1,57,57,0
1,52,58,160
1,61,78,4
1,69,86,0
1,57,52,4
1,61,46,0
1,62,52,0
1,66,51,0
1,50,66,0
1,69,51,4
1,57,56,0
1,57,37,4
1,61,51,4
1,66,53,0
1,62,54,0
1,69,58,0
1,57,48,4
1,61,33,4
1,66,44,0
1,69,51,0
1,62,38,0
1,61,75,4
1,62,72,0
1,66,61,0
1,69,72,0
1,57,56,4
1,68,58,4
1,61,58,0
1,59,61,0
1,64,72,0
1,56,60,0
1,49,63,0
1,68,73,4
1,64,81,0
1,61,73,0
1,59,73,0
1,56,56,4
1,66,50,4
1,59,64,0
1,47,63,0
1,62,80,0
1,69,70,0
1,57,61,0
1,57,50,4
1,66,65,4
1,62,80,0
1,59,78,0
1,69,77,0
1,57,66,4
1,68,67,8
1,61,60,0
1,45,66,0
1,52,61,0
1,64,70,0
1,59,57,0
1,52,62,4
1,59,65,4
1,71,80,0
1,61,70,0
1,64,73,0
1,61,54,0
1,69,70,0
1,64,62,4
1,57,60,4
1,64,83,4
1,71,91,0
1,61,81,0
1,59,79,0
1,69,49,0
1,64,49,0
1,61,39,0
1,57,54,4
1,64,80,4
1,61,72,0
1,71,95,0
1,59,84,4
1,64,59,0
1,69,69,0
1,61,53,0
1,57,64,4
1,50,70,4
1,61,53,0
1,57,65,0
1,66,53,0
1,62,62,0
1,69,70,0
1,62,35,60
1,66,55,4
1,61,54,0
1,69,73,0
1,62,66,0
1,57,60,4
1,61,54,0
1,62,61,0
1,66,51,4
1,69,65,0
1,61,72,4
1,66,61,0
1,62,70,0
1,69,70,0
1,50,70,4
1,57,70,0
1,68,72,0
1,61,61,0
1,59,73,0
1,64,73,0
1,49,67,0
1,56,67,192
1,61,65,4
1,68,78,0
1,59,70,0
1,64,80,0
1,56,67,4
1,42,60,4
1,61,58,0
1,64,76,0
1,66,65,4
1,57,64,0
1,49,58,184
1,61,79,0
1,64,88,4
1,66,81,0
1,57,77,0
1,49,67,4
1,61,59,4
1,64,64,0
1,57,65,0
1,47,70,0
1,57,53,4
1,64,78,4
1,61,75,0
1,57,74,0
1,47,61,4
1,63,68,4
1,59,64,0
1,54,58,0
1,57,64,0
1,47,62,0
1,63,62,4
1,54,64,0
1,57,71,0
1,59,73,0
1,47,38,4
1,62,63,4
1,54,53,0
1,57,74,0
1,52,44,0
1,40,55,0
1,52,70,4
1,62,72,4
1,66,74,96
1,69,85,96
1,74,68,192
1,52,48,4
1,71,58,392
1,64,61,0
1,45,55,0
1,61,50,0
1,59,50,0
1,52,56,168
1,71,71,4
1,59,68,0
1,61,60,0
1,64,71,0
1,52,59,4
1,61,61,4
1,69,65,0
1,45,62,4
1,57,49,0
1,52,66,168
1,69,86,4
1,61,84,0
1,57,59,4
1,61,49,0
1,62,52,0
1,66,56,0
1,69,65,4
1,57,58,0
1,50,50,0
1,57,44,4
1,61,56,0
1,62,53,0
1,66,49,0
1,69,60,4
1,57,45,4
1,61,37,4
1,62,45,0
1,66,32,0
1,69,66,0
1,61,50,4
1,66,53,0
1,62,65,0
1,69,75,0
1,57,58,4
1,68,61,0
1,64,67,0
1,61,51,0
1,49,61,0
1,59,55,0
1,56,53,196
1,68,78,0
1,61,67,0
1,59,69,4
1,64,83,0
1,56,68,4
1,66,49,4
1,47,68,0
1,62,70,0
1,59,65,0
1,69,66,0
1,66,54,4
1,62,74,0
1,69,73,0
1,59,64,0
1,54,56,192
1,61,56,4
1,68,59,0
1,45,68,0
1,64,68,0
1,59,62,0
1,52,60,180
1,71,75,4
1,61,62,0
1,64,70,0
1,59,69,0
1,64,61,0
1,69,66,0
1,61,61,0
1,57,65,4
1,45,65,0
1,59,76,0
1,64,84,0
1,71,95,0
1,61,75,4
1,64,51,4
1,61,30,0
1,69,64,0
1,57,58,8
1,64,80,0
1,61,74,0
1,71,91,0
1,59,92,4
1,69,68,0
1,64,63,0
1,61,58,4
1,57,71,0
1,50,68,4
1,66,51,0
1,61,48,0
1,62,57,0
1,69,71,0
1,57,52,180
1,61,61,4
1,62,65,0
1,66,56,0
1,69,70,0
1,57,49,4
1,61,53,4
1,62,60,0
1,66,61,0
1,69,70,0
1,61,64,4
1,50,58,0
1,66,64,0
1,62,68,0
1,69,76,0
1,57,56,4
1,68,72,4
1,61,63,0
1,64,76,0
1,49,67,0
1,59,66,0
1,56,50,188
1,68,81,4
1,61,67,0
1,64,83,0
1,59,68,0
1,56,61,4
1,66,51,4
1,61,61,0
1,42,60,0
1,57,70,0
1,64,78,0
1,49,58,172
1,61,73,4
1,66,61,0
1,64,79,0
1,69,80,0
1,57,74,0
1,49,68,4
1,64,88,0
1,61,85,0
1,57,86,4
1,47,91,0
1,57,66,92
1,47,65,4
1,64,90,4
1,61,87,0
1,57,91,0
1,57,72,4
1,54,87,4
1,47,86,0
1,63,87,0
1,57,84,0
1,59,84,0
1,54,72,4
1,54,91,4
1,63,89,0
1,57,88,0
1,59,88,0
1,47,83,4
1,66,74,4
1,62,94,0
1,52,73,0
1,69,87,0
1,57,83,0
1,40,87,4
1,57,66,4
1,52,104,4
1,66,85,4
1,62,102,0
1,69,91,0
1,57,104,0
1,57,85,4
1,40,98,4
1,66,72,4
1,62,92,0
1,57,94,0
1,69,81,0
1,52,104,0
1,57,98,4
1,52,102,4
1,66,91,4
1,62,102,0
1,69,94,0
1,52,104,4
1,57,81,108
1,64,84,0
1,69,85,0
1,73,78,0
1,73,69,4
1,69,76,0
1,64,79,0
1,68,79,4
1,57,79,0
1,73,74,0
1,64,74,0
1,68,85,4
1,73,84,0
1,64,80,0
1,57,56,4
1,68,72,4
1,56,72,0
1,71,81,4
1,66,74,0
1,63,85,0
1,66,71,4
1,68,65,0
1,63,75,0
1,71,77,0
1,68,72,4
1,71,85,0
1,62,91,0
1,49,79,0
1,65,86,0
1,68,71,4
1,62,79,0
1,65,80,0
1,71,77,0
1,62,62,4
1,54,70,192
1,66,63,0
1,61,74,0
1,69,73,0
1,64,80,0
1,69,75,4
1,66,67,0
1,64,84,0
1,61,84,0
1,54,61,4
1,69,80,8
1,64,87,0
1,47,81,0
1,61,77,0
1,69,85,12
1,66,79,0
1,59,94,0
1,63,87,0
1,66,91,0
1,62,100,0
1,69,88,0
1,52,85,0
1,62,102,8
1,66,97,0
1,50,94,0
1,69,92,0
1,61,93,24
1,49,89,0
1,64,90,0
1,68,84,0
1,59,88,0
1,66,85,16
1,62,91,0
1,59,77,0
1,57,86,0
1,47,86,0
1,73,73,4
1,69,83,0
1,57,84,0
1,64,75,0
1,73,79,4
1,69,94,0
1,64,91,0
1,57,67,4
1,64,87,8
1,68,93,0
1,73,84,0
1,57,80,0
1,68,87,4
1,73,82,0
1,64,83,0
1,56,73,4
1,68,66,0
1,66,72,0
1,63,84,0
1,71,80,0
1,68,77,4
1,71,91,0
1,66,81,0
1,63,81,0
1,56,58,4
1,65,79,12
1,68,64,0
1,71,80,0
1,49,65,0
1,62,79,0
1,62,83,4
1,65,78,0
1,71,80,0
1,68,61,0
1,66,56,384
1,54,67,0
1,61,71,0
1,64,80,0
1,69,68,0
1,66,61,4
1,61,78,0
1,69,73,0
1,64,84,0
1,54,62,4
1,64,85,4
1,61,74,0
1,69,76,0
1,47,73,0
1,66,67,12
1,63,78,0
1,69,77,0
1,59,80,0
1,62,56,0
1,66,59,0
1,52,56,0
1,69,51,0
1,62,54,4
1,66,68,4
1,69,62,4
1,74,59,188
1,45,55,72
1,73,33,0
1,64,56,0
1,71,65,0
1,59,45,4
1,76,54,4
1,52,73,192
1,64,67,4
1,73,52,0
1,71,76,0
1,59,62,0
1,76,64,0
1,52,69,4
1,64,64,4
1,69,68,0
1,73,53,0
1,45,73,0
1,57,62,0
1,76,57,0
1,52,64,176
1,45,68,4
1,64,64,0
1,73,54,0
1,69,73,0
1,76,58,0
1,47,70,92
1,49,85,96
1,62,71,0
1,50,68,0
1,73,55,0
1,66,66,0
1,69,67,4
1,73,54,0
1,66,61,0
1,62,62,0
1,69,73,4
1,62,79,4
1,57,79,192
1,59,70,384
1,57,78,4
1,64,72,4
1,73,67,0
1,71,70,0
1,45,66,0
1,59,60,0
1,76,63,0
1,52,68,196
1,64,61,4
1,71,70,0
1,73,53,0
1,76,54,0
1,59,40,0
1,52,65,4
1,73,53,4
1,57,61,0
1,69,70,0
1,64,64,0
1,76,60,0
1,45,64,0
1,52,65,168
1,73,60,4
1,76,55,0
1,64,61,0
1,69,71,0
1,45,70,0
1,47,70,96
1,49,73,92
1,50,68,4
1,73,53,0
1,62,57,0
1,66,55,0
1,69,65,0
1,62,64,4
1,57,65,192
1,69,62,4
1,81,65,192
1,52,49,84
1,61,47,0
1,64,62,0
1,71,58,0
1,45,58,0
1,71,73,0
1,64,70,4
1,61,55,0
1,52,56,4
1,61,54,0
1,45,68,4
1,61,65,0
1,69,73,0
1,52,61,164
1,61,64,4
1,64,74,0
1,69,74,0
1,52,61,4
1,66,56,4
1,61,53,0
1,69,59,0
1,62,64,0
1,50,39,4
1,57,49,184
1,61,58,4
1,66,61,0
1,62,65,0
1,69,70,0
1,57,54,4
1,61,44,0
1,50,43,0
1,62,52,0
1,69,63,4
1,66,42,0
1,61,81,0
1,66,87,0
1,62,87,0
1,69,81,4
1,57,57,4
1,68,61,4
1,61,61,0
1,59,67,0
1,49,65,0
1,64,70,0
1,56,60,160
1,68,78,4
1,61,74,0
1,64,85,0
1,59,80,0
1,56,55,4
1,66,50,0
1,69,66,4
1,62,73,0
1,59,60,0
1,47,70,0
1,57,23,156
1,66,59,4
1,62,77,0
1,59,73,0
1,69,72,0
1,54,54,192
1,56,66,192
1,45,70,0
1,61,60,0
1,64,70,0
1,61,54,4
1,71,66,4
1,61,52,0
1,64,64,0
1,59,62,0
1,68,18,0
1,56,47,4
1,64,83,4
1,59,81,0
1,71,100,0
1,61,91,0
1,68,40,4
1,56,64,0
1,64,21,0
1,71,84,4
1,64,64,0
1,61,73,0
1,59,71,0
1,68,59,4
1,57,69,0
1,66,50,4
1,62,64,0
1,61,50,0
1,69,69,0
1,50,66,0
1,57,55,0
1,66,58,4
1,61,62,0
1,62,64,0
1,69,74,0
1,61,13,4
1,57,65,0
1,61,61,4
1,66,56,0
1,62,65,0
1,69,71,0
1,50,77,4
1,61,81,0
1,66,78,0
1,69,83,0
1,62,81,0
1,57,59,4
1,68,64,4
1,64,70,0
1,61,56,0
1,59,62,0
1,49,56,4
1,56,54,172
1,68,81,4
1,61,77,0
1,59,74,0
1,64,88,0
1,56,51,4
1,61,55,4
1,66,46,0
1,42,61,0
1,57,64,0
1,64,71,0
1,69,66,0
1,49,58,168
1,66,78,4
1,61,78,0
1,64,88,0
1,57,80,0
1,49,99,4
1,64,92,4
1,61,93,0
1,57,95,0
1,47,102,4
1,57,70,4
1,64,104,0
1,57,104,4
1,61,99,0
1,47,84,4
1,57,60,4
1,63,74,4
1,66,73,0
1,59,95,0
1,57,90,0
1,47,98,0
1,57,61,100
1,66,74,0
1,63,78,0
1,59,94,0
1,57,86,4
1,47,68,4
1,66,73,4
1,57,88,0
1,62,91,0
1,69,85,0
1,52,86,0
1,57,55,4
1,66,89,4
1,62,106,0
1,57,110,0
1,69,92,0
1,57,70,4
1,52,69,4
1,66,93,4
1,62,100,0
1,57,104,0
1,69,92,0
1,52,92,0
1,57,67,4
1,66,97,4
1,62,104,0
1,69,94,0
1,57,104,0
1,57,86,4
1,52,90,4
1,66,91,4
1,62,96,0
1,69,94,0
1,40,84,0
1,57,114,0
1,52,94,0
1,57,68,112
1,40,51,4
1,40,89,0
1,52,89,0
1,66,89,0
1,62,89,0
1,57,89,0
1,69,91,4
1,40,98,4
1,52,98,0
1,66,104,4
1,69,104,0
1,62,104,0
1,57,104,0
1,52,104,0
1,40,104,0
1,65,95,632
1,46,107,4
1,58,101,0
1,62,102,0
1,58,104,4
1,65,102,0
1,62,106,0
1,46,56,4
1,46,110,4
1,62,100,0
1,57,100,0
1,65,95,0
1,57,114,4
1,62,110,0
1,65,108,0
1,46,107,4
1,60,106,4
1,57,106,0
1,55,108,0
1,64,104,0
1,45,90,0
1,55,114,0
1,60,110,0
1,64,110,4
1,57,117,0
1,63,97,4
1,54,97,0
1,57,91,0
1,60,92,0
1,50,97,4
1,54,117,4
1,63,104,0
1,57,108,0
1,60,104,0
1,50,95,4
1,55,98,192
1,58,97,0
1,62,104,0
1,43,100,0
1,58,113,4
1,55,117,0
1,62,114,0
1,55,84,4
1,43,79,4
1,58,101,4
1,62,104,0
1,53,106,0
1,48,112,0
1,48,83,4
1,58,107,0
1,60,106,0
1,64,106,0
1,55,114,0
1,48,114,0
1,48,91,4
1,63,110,4
1,58,110,0
1,53,117,0
1,67,114,0
1,53,95,4
1,51,117,12
1,67,108,0
1,58,116,0
1,60,117,0
1,63,110,0
1,51,89,4
1,62,112,12
1,65,108,0
1,57,104,0
1,50,106,0
1,60,112,0
1,50,83,4
1,58,113,20
1,60,117,0
1,55,114,0
1,63,110,0
1,48,106,0
1,48,92,4
1,62,106,16
1,46,117,0
1,65,102,0
1,58,101,0
1,58,116,4
1,65,112,0
1,62,117,0
1,46,117,4
1,58,110,4
1,62,108,0
1,57,106,0
1,65,102,0
1,46,77,4
1,57,110,4
1,65,110,0
1,62,110,0
1,58,113,0
1,46,87,4
1,57,112,16
1,55,108,0
1,64,106,0
1,45,100,0
1,60,106,0
1,55,114,4
1,57,114,0
1,64,108,0
1,60,106,0
1,45,91,4
1,63,104,12
1,54,113,0
1,57,106,0
1,60,97,0
1,50,98,0
1,63,107,4
1,54,116,0
1,57,110,0
1,60,97,0
1,50,88,48
1,58,99,12
1,43,100,0
1,62,112,0
1,55,104,0
1,62,117,4
1,58,113,0
1,55,117,0
1,43,92,60
1,43,90,4
1,48,108,16
1,53,98,0
1,58,99,0
1,62,112,0
1,48,88,4
1,60,110,20
1,55,108,0
1,58,116,0
1,64,112,0
1,48,110,0
1,48,78,4
1,63,107,8
1,58,104,0
1,53,102,0
1,67,110,0
1,53,110,8
1,63,99,0
1,55,106,0
1,58,99,0
1,55,70,4
1,58,64,4
1,58,104,4
1,63,113,0
1,55,92,0
1,53,97,4
1,64,104,4
1,62,108,0
1,58,116,0
1,55,117,0
1,52,117,0
1,55,77,4
1,64,73,4
1,62,91,0
1,55,75,0
1,58,84,0
1,55,84,4
1,62,108,4
1,58,110,0
1,55,106,0
1,64,100,0
