track,note,velocity,time
0,37,84,0
0,37,84,120
0,37,0,120
0,37,64,120
0,37,0,120
0,37,84,0
0,37,0,120
0,37,64,0
0,37,0,120
0,37,84,0
0,34,99,0
0,37,0,0
0,35,100,0
0,42,90,0
0,49,90,0
0,53,51,0
0,62,49,0
0,58,59,0
0,65,56,0
0,77,100,0
0,53,100,0
0,58,73,5
0,62,55,5
0,53,58,0
0,50,44,0
0,49,0,15
0,42,0,0
0,35,0,0
0,42,70,0
0,79,100,0
0,55,100,0
0,53,0,3
0,62,0,5
0,58,0,0
0,50,0,7
0,42,0,10
0,79,0,23
0,55,0,0
0,42,80,0
0,37,100,0
0,82,100,0
0,58,100,0
0,58,71,6
0,62,63,0
0,50,43,2
0,53,55,1
0,53,0,15
0,37,0,1
0,42,0,0
0,50,0,20
0,62,0,0
0,58,0,0
0,82,0,3
0,58,0,0
0,35,80,0
0,42,70,0
0,79,100,0
0,55,100,0
0,50,33,9
0,53,29,7
0,50,0,5
0,42,0,4
0,35,0,0
0,53,0,2
0,79,0,21
0,55,0,0
0,62,48,11
0,35,100,0
0,42,90,0
0,86,100,0
0,62,100,0
0,50,32,1
0,58,52,2
0,53,43,2
0,53,0,10
0,53,0,3
0,58,0,3
0,50,0,0
0,42,0,4
0,35,0,0
0,62,0,1
0,42,70,34
0,53,49,0
0,58,0,1
0,62,63,0
0,58,64,0
0,53,58,1
0,50,45,0
0,42,0,23
0,86,0,11
0,62,0,0
0,62,0,5
0,42,80,0
0,37,100,0
0,58,62,0
0,77,100,0
0,53,100,0
0,53,0,4
0,58,0,7
0,62,0,5
0,50,0,4
0,37,0,5
0,42,0,0
0,34,0,18
0,77,0,5
0,53,0,0
0,34,73,9
0,35,80,0
0,42,70,0
0,62,51,0
0,77,100,0
0,53,100,0
0,53,38,5
0,50,34,5
0,50,0,11
0,53,0,0
0,42,0,4
0,35,0,0
0,34,0,7
0,34,91,28
0,35,100,0
0,42,90,0
0,65,0,0
0,62,0,0
0,58,0,0
0,53,0,0
0,57,64,0
0,65,43,0
0,62,50,0
0,58,31,0
0,57,65,0
0,53,53,1
0,50,45,2
0,42,0,22
0,35,0,0
0,42,70,19
0,50,0,21
0,57,0,0
0,53,0,1
0,42,0,3
0,42,80,35
0,37,100,0
0,57,56,4
0,37,0,21
0,42,0,0
0,57,0,26
0,35,80,9
0,42,70,0
0,50,43,7
0,42,0,18
0,35,0,0
0,50,0,0
0,42,60,5
0,42,0,25
0,35,100,5
0,42,90,0
0,57,46,3
0,53,44,2
0,42,0,20
0,35,0,0
0,53,0,12
0,57,0,2
0,35,80,21
0,42,70,0
0,57,51,2
0,42,0,23
0,35,0,0
0,58,0,4
0,42,80,31
0,37,100,0
0,58,54,0
0,77,0,12
0,53,0,0
0,37,0,13
0,42,0,0
0,57,0,0
0,35,80,35
0,42,70,0
0,42,0,25
0,35,0,0
0,46,80,5
0,34,0,11
0,46,0,14
0,35,100,0
0,42,90,0
0,58,0,0
0,62,0,0
0,65,0,0
0,57,0,0
0,55,65,0
0,62,53,0
0,53,51,0
0,58,39,0
0,53,70,0
0,77,100,0
0,53,100,0
0,58,58,1
0,55,64,2
0,50,54,2
0,34,84,1
0,42,70,0
0,79,100,0
0,55,100,0
0,53,0,6
0,42,0,19
0,79,0,23
0,55,0,0
0,42,80,0
0,37,100,0
0,82,100,0
0,58,100,0
0,53,38,2
0,55,61,2
0,58,37,2
0,58,0,12
0,55,0,2
0,53,0,4
0,37,0,1
0,42,0,0
0,82,0,23
0,58,0,0
0,35,80,0
0,42,70,0
0,79,100,0
0,55,100,0
0,58,52,5
0,53,45,0
0,55,44,4
0,53,0,11
0,55,0,1
0,58,0,0
0,42,0,4
0,35,0,0
0,79,0,23
0,55,0,0
0,35,100,0
0,42,90,0
0,86,100,0
0,62,100,0
0,53,43,1
0,50,52,7
0,50,0,11
0,53,0,2
0,42,0,4
0,35,0,0
0,53,0,30
0,53,66,4
0,42,70,1
0,53,0,17
0,42,0,8
0,86,0,11
0,62,0,0
0,53,54,19
0,58,45,1
0,42,80,0
0,37,100,0
0,53,76,0
0,55,37,0
0,77,100,0
0,53,100,0
0,58,0,11
0,55,0,2
0,53,0,0
0,37,0,12
0,42,0,0
0,77,0,23
0,53,0,0
0,34,0,9
0,53,39,1
0,35,80,0
0,42,70,0
0,77,100,0
0,53,100,0
0,50,33,5
0,34,86,5
0,50,0,6
0,53,0,5
0,42,0,4
0,35,0,0
0,34,0,35
0,35,100,0
0,42,90,0
0,58,0,0
0,53,0,0
0,62,0,0
0,55,0,0
0,57,64,0
0,65,43,0
0,62,50,0
0,58,31,0
0,57,65,0
0,53,53,1
0,50,45,2
0,34,84,3
0,42,0,19
0,35,0,0
0,42,70,19
0,50,0,21
0,57,0,0
0,53,0,1
0,42,0,3
0,42,80,35
0,37,100,0
0,57,56,4
0,37,0,21
0,42,0,0
0,57,0,26
0,35,80,9
0,42,70,0
0,50,43,7
0,42,0,18
0,35,0,0
0,50,0,0
0,35,100,35
0,42,90,0
0,57,46,3
0,53,44,2
0,42,0,20
0,35,0,0
0,53,0,12
0,57,0,2
0,35,80,21
0,42,70,0
0,57,51,2
0,42,0,23
0,35,0,0
0,58,0,4
0,42,80,31
0,37,100,0
0,58,54,0
0,77,0,12
0,53,0,0
0,37,0,13
0,42,0,0
0,57,0,0
0,34,0,32
0,35,80,3
0,42,70,0
0,34,86,10
0,42,0,15
0,35,0,0
0,35,100,0
0,42,90,0
0,58,0,0
0,62,0,0
0,65,0,0
0,57,0,0
0,60,65,0
0,67,53,0
0,55,51,0
0,63,39,0
0,87,100,0
0,63,100,0
0,36,91,1
0,60,73,4
0,63,55,5
0,55,58,0
0,51,44,0
0,42,0,15
0,35,0,0
0,42,70,0
0,86,100,0
0,62,100,0
0,55,0,3
0,63,0,5
0,60,0,0
0,51,0,7
0,42,0,10
0,86,0,23
0,62,0,0
0,42,80,0
0,37,100,0
0,86,100,0
0,62,100,0
0,60,71,6
0,63,63,0
0,51,43,2
0,55,55,1
0,55,0,15
0,37,0,1
0,42,0,0
0,51,0,20
0,63,0,0
0,60,0,0
0,86,0,3
0,62,0,0
0,35,80,0
0,42,70,0
0,84,100,0
0,60,100,0
0,51,33,9
0,55,29,7
0,51,0,5
0,42,0,4
0,35,0,0
0,55,0,2
0,63,48,32
0,35,100,1
0,42,90,0
0,51,32,1
0,60,52,2
0,55,43,2
0,55,0,10
0,60,0,6
0,51,0,0
0,42,0,4
0,35,0,0
0,63,0,1
0,55,0,29
0,42,70,5
0,63,63,1
0,60,64,0
0,55,58,1
0,51,45,0
0,42,0,23
0,42,80,35
0,37,100,0
0,55,76,0
0,55,0,4
0,60,0,7
0,84,0,1
0,60,0,0
0,63,0,4
0,51,0,4
0,37,0,5
0,42,0,0
0,36,0,24
0,36,79,10
0,35,80,0
0,42,70,0
0,79,100,0
0,55,100,0
0,55,38,5
0,51,34,5
0,51,0,11
0,55,0,0
0,42,0,4
0,35,0,0
0,36,0,21
0,79,0,2
0,55,0,0
0,35,100,0
0,42,90,0
0,63,0,0
0,55,0,0
0,67,0,0
0,60,0,0
0,58,65,0
0,63,53,0
0,55,51,0
0,60,39,0
0,87,100,0
0,63,100,0
0,55,57,3
0,51,55,1
0,36,84,2
0,42,70,0
0,86,100,0
0,62,100,0
0,42,0,25
0,55,43,19
0,86,0,4
0,62,0,0
0,58,60,1
0,42,80,0
0,37,100,0
0,87,100,0
0,63,100,0
0,60,55,2
0,37,0,23
0,42,0,0
0,55,0,4
0,58,0,5
0,60,0,5
0,87,0,9
0,63,0,0
0,35,80,0
0,42,70,0
0,86,100,0
0,62,100,0
0,42,0,25
0,35,0,0
0,35,100,35
0,42,90,0
0,42,0,25
0,35,0,0
0,86,0,11
0,62,0,0
0,55,0,19
0,58,60,0
0,35,80,0
0,42,70,0
0,51,45,0
0,84,100,0
0,60,100,0
0,42,0,25
0,35,0,0
0,51,0,13
0,58,0,0
0,55,36,21
0,42,80,1
0,37,100,0
0,55,76,0
0,55,0,16
0,37,0,9
0,42,0,0
0,60,0,25
0,55,0,0
0,63,0,0
0,58,0,0
0,36,0,7
0,60,51,0
0,51,41,0
0,35,80,3
0,42,70,0
0,56,51,0
0,63,49,0
0,60,59,0
0,67,56,0
0,36,86,10
0,60,0,14
0,84,0,0
0,60,0,0
0,42,0,1
0,35,0,0
0,42,60,5
0,51,0,0
0,42,0,25
0,35,100,0
0,42,90,0
0,87,100,0
0,63,100,0
0,55,68,1
0,44,86,2
0,56,59,0
0,42,0,22
0,35,0,0
0,87,0,23
0,63,0,0
0,42,70,0
0,86,100,0
0,62,100,0
0,56,0,15
0,42,0,10
0,86,0,23
0,62,0,0
0,60,71,8
0,63,59,2
0,42,80,0
0,37,100,0
0,86,100,0
0,62,100,0
0,56,53,2
0,60,76,8
0,35,80,0
0,42,70,0
0,84,100,0
0,60,100,0
0,56,23,5
0,56,0,18
0,42,0,2
0,35,0,0
0,60,0,10
0,55,33,24
0,35,100,1
0,42,90,0
0,56,0,16
0,42,0,9
0,35,0,0
0,55,0,24
0,63,61,8
0,60,68,1
0,60,0,1
0,42,70,1
0,56,49,0
0,84,0,24
0,60,0,0
0,42,0,1
0,63,0,9
0,63,0,5
0,60,0,3
0,42,80,18
0,37,100,0
0,60,62,0
0,56,48,0
0,37,0,25
0,42,0,0
0,56,0,2
0,35,80,0
0,42,70,0
0,63,51,0
0,79,100,0
0,55,100,0
0,56,41,3
0,56,0,21
0,42,0,1
0,35,0,0
0,79,0,23
0,55,0,0
0,67,0,10
0,41,99,0
0,35,100,0
0,42,90,0
0,63,0,0
0,60,0,0
0,56,0,0
0,58,64,0
0,67,43,0
0,63,50,0
0,60,31,0
0,87,100,0
0,63,100,0
0,51,68,1
0,53,59,2
0,42,0,22
0,35,0,0
0,42,70,35
0,53,0,15
0,42,0,10
0,87,0,11
0,63,0,0
0,58,71,20
0,60,59,2
0,42,80,0
0,37,100,0
0,89,100,0
0,65,100,0
0,53,53,2
0,58,76,8
0,35,80,0
0,42,70,0
0,86,100,0
0,62,100,0
0,53,23,5
0,53,0,18
0,42,0,2
0,35,0,0
0,58,0,10
0,86,0,13
0,62,0,0
0,51,33,11
0,35,100,0
0,42,90,0
0,84,100,0
0,60,100,0
0,42,0,25
0,35,0,0
0,51,0,24
0,60,61,8
0,58,68,1
0,38,90,2
0,38,0,25
0,60,0,4
0,60,0,5
0,84,0,2
0,60,0,0
0,58,0,6
0,38,100,0
0,60,54,0
0,53,48,0
0,82,100,0
0,58,100,0
0,38,0,25
0,53,0,2
0,41,0,16
0,41,73,14
0,35,80,3
0,38,115,0
0,53,41,3
0,53,0,21
0,38,0,1
0,35,0,0
0,38,90,5
0,41,0,2
0,82,0,4
0,58,0,0
0,38,0,19
0,34,99,0
0,35,100,0
0,42,90,0
0,49,90,0
0,60,0,0
0,63,0,0
0,67,0,0
0,58,0,0
0,53,51,0
0,62,49,0
0,58,59,0
0,65,56,0
0,53,70,0
0,77,100,0
0,53,100,0
0,62,58,1
0,58,64,2
0,50,54,2
0,42,70,0
0,79,100,0
0,55,100,0
0,53,0,6
0,42,0,19
0,79,0,23
0,55,0,0
0,42,80,0
0,37,100,0
0,82,100,0
0,58,100,0
0,53,38,2
0,58,61,2
0,62,37,2
0,62,0,12
0,58,0,2
0,53,0,4
0,37,0,1
0,42,0,0
0,82,0,23
0,58,0,0
0,35,80,0
0,42,70,0
0,79,100,0
0,55,100,0
0,62,52,5
0,53,45,0
0,58,44,4
0,53,0,11
0,58,0,1
0,62,0,0
0,42,0,4
0,35,0,0
0,79,0,23
0,55,0,0
0,35,100,0
0,42,90,0
0,86,100,0
0,62,100,0
0,53,43,1
0,50,52,7
0,53,0,10
0,50,0,1
0,53,0,2
0,42,0,4
0,35,0,0
0,53,66,34
0,42,70,1
0,53,49,0
0,58,0,1
0,53,0,16
0,42,0,8
0,86,0,11
0,62,0,0
0,62,0,5
0,53,54,14
0,62,45,1
0,42,80,0
0,37,100,0
0,58,62,0
0,58,37,0
0,77,100,0
0,53,100,0
0,62,0,11
0,58,0,2
0,53,0,0
0,37,0,12
0,42,0,0
0,34,0,18
0,77,0,5
0,53,0,0
0,34,73,9
0,53,39,1
0,35,80,0
0,42,70,0
0,62,51,0
0,77,100,0
0,53,100,0
0,50,33,5
0,50,0,11
0,53,0,5
0,42,0,4
0,35,0,0
0,34,0,7
0,35,100,28
0,42,90,0
0,65,0,0
0,62,0,0
0,58,0,0
0,53,0,0
0,57,65,0
0,62,53,0
0,53,51,0
0,58,39,0
0,50,68,1
0,53,59,2
0,34,84,3
0,42,0,19
0,35,0,0
0,42,70,35
0,53,0,15
0,42,0,10
0,57,71,31
0,58,59,2
0,42,80,2
0,37,100,0
0,53,53,2
0,57,76,22
0,35,80,4
0,42,70,0
0,53,23,5
0,53,0,18
0,42,0,2
0,35,0,0
0,57,0,10
0,50,33,24
0,35,100,1
0,42,90,0
0,42,0,25
0,35,0,0
0,50,0,24
0,53,0,6
0,58,61,2
0,57,68,1
0,35,80,2
0,42,70,0
0,42,0,25
0,35,0,0
0,58,0,9
0,57,0,8
0,42,80,18
0,37,100,0
0,53,76,0
0,53,48,0
0,77,0,12
0,53,0,0
0,37,0,13
0,42,0,0
0,53,0,2
0,34,0,30
0,35,80,3
0,42,70,0
0,53,41,3
0,34,86,7
0,53,0,14
0,42,0,1
0,35,0,0
0,42,60,5
0,42,0,25
0,34,86,0
0,35,100,0
0,42,90,0
0,58,0,0
0,53,0,0
0,62,0,0
0,57,0,0
0,53,51,0
0,58,49,0
0,55,59,0
0,62,56,0
0,77,100,0
0,53,100,0
0,53,57,3
0,50,55,1
0,42,70,0
0,79,100,0
0,55,100,0
0,42,0,25
0,53,43,19
0,79,0,4
0,55,0,0
0,55,60,1
0,42,80,0
0,37,100,0
0,82,100,0
0,58,100,0
0,58,55,2
0,37,0,23
0,42,0,0
0,53,0,4
0,55,0,5
0,58,0,5
0,82,0,9
0,58,0,0
0,35,80,0
0,42,70,0
0,79,100,0
0,55,100,0
0,42,0,25
0,35,0,0
0,79,0,23
0,55,0,0
0,35,100,0
0,42,90,0
0,86,100,0
0,62,100,0
0,53,0,18
0,42,0,7
0,35,0,0
0,55,60,30
0,42,70,5
0,53,49,0
0,50,45,0
0,55,0,1
0,42,0,24
0,86,0,11
0,62,0,0
0,50,0,2
0,55,0,0
0,58,0,3
0,53,36,18
0,34,81,0
0,42,80,0
0,37,100,0
0,55,62,0
0,77,100,0
0,53,100,0
0,34,0,3
0,53,0,13
0,37,0,9
0,42,0,0
0,77,0,23
0,53,0,0
0,34,0,5
0,58,51,4
0,50,41,0
0,34,89,0
0,35,80,0
0,42,70,0
0,58,51,0
0,77,100,0
0,53,100,0
0,34,0,18
0,58,0,6
0,42,0,1
0,35,0,0
0,50,0,5
0,35,100,30
0,42,90,0
0,62,0,0
0,58,0,0
0,55,0,0
0,53,0,0
0,57,65,0
0,62,53,0
0,53,51,0
0,58,39,0
0,50,68,1
0,53,59,2
0,34,84,3
0,42,0,19
0,35,0,0
0,42,70,35
0,53,0,15
0,42,0,10
0,57,71,31
0,58,59,2
0,42,80,2
0,37,100,0
0,53,53,2
0,57,76,22
0,35,80,4
0,42,70,0
0,53,23,5
0,53,0,18
0,42,0,2
0,35,0,0
0,57,0,10
0,50,33,24
0,35,100,1
0,42,90,0
0,42,0,25
0,35,0,0
0,50,0,24
0,53,0,6
0,58,61,2
0,57,68,1
0,42,70,2
0,42,0,25
0,58,0,9
0,57,0,8
0,42,80,18
0,37,100,0
0,53,76,0
0,53,48,0
0,77,0,12
0,53,0,0
0,37,0,13
0,42,0,0
0,53,0,2
0,34,0,30
0,35,80,3
0,42,70,0
0,53,41,3
0,34,86,7
0,53,0,14
0,42,0,1
0,35,0,0
0,36,91,0
0,35,100,0
0,42,90,0
0,58,0,0
0,53,0,0
0,62,0,0
0,57,0,0
