track,note,velocity,time
1,42,69,368
1,42,69,384
1,42,85,384
1,42,85,384
1,51,5,23424
1,51,7,32
1,51,9,32
1,51,10,32
1,51,12,32
1,51,13,32
1,51,15,32
1,51,17,32
1,51,18,32
1,51,20,32
1,51,21,32
1,51,23,32
1,51,25,32
1,51,26,32
1,51,28,32
1,51,29,32
1,51,31,32
1,51,33,32
1,51,34,32
1,51,36,32
1,51,37,32
1,51,39,32
1,51,41,32
1,51,42,32
1,51,44,32
1,51,45,32
1,51,47,32
1,51,49,32
1,51,50,32
1,51,52,32
1,51,53,32
1,51,55,32
1,51,57,32
1,51,58,32
1,51,60,32
1,51,61,32
1,51,63,32
1,51,65,32
1,51,66,32
1,51,68,32
1,51,69,32
1,51,71,32
1,51,73,32
1,51,74,32
1,51,76,32
1,51,78,32
1,51,79,32
1,51,81,32
1,51,82,32
1,45,118,11520
1,45,118,192
1,41,125,192
1,49,120,384
1,36,118,0
1,42,120,768
1,38,118,0
1,42,77,384
1,36,81,192
1,42,113,192
1,36,118,0
1,42,59,384
1,42,120,384
1,38,125,0
1,42,56,384
1,42,113,384
1,36,125,0
1,42,46,384
1,42,120,384
1,38,125,0
1,42,42,384
1,42,113,384
1,36,125,0
1,42,91,384
1,38,89,192
1,38,118,192
1,45,125,192
1,41,125,192
1,36,58,192
1,49,120,192
1,36,125,0
1,42,59,384
1,42,120,384
1,38,125,0
1,42,63,384
1,36,62,192
1,42,120,192
1,36,118,0
1,42,50,384
1,42,120,384
1,38,125,0
1,42,53,384
1,42,113,384
1,36,125,0
1,42,83,384
1,38,75,192
1,38,118,192
1,45,118,192
1,41,118,192
1,36,89,192
1,49,113,192
1,36,125,0
1,51,91,1536
1,42,83,768
1,42,71,1536
1,42,83,1536
1,51,71,1536
1,51,83,768
1,36,97,0
1,42,83,384
1,42,113,384
1,37,113,0
1,42,71,384
1,42,113,384
1,36,118,0
1,42,59,384
1,42,120,384
1,37,120,0
1,42,63,384
1,42,120,384
1,36,118,0
1,42,28,576
1,42,120,192
1,37,120,0
1,42,59,384
1,42,83,384
1,36,109,0
1,42,53,576
1,42,120,192
1,37,120,0
1,42,83,384
1,42,120,384
1,36,118,0
1,42,56,384
1,42,113,384
1,37,120,0
1,42,53,384
1,36,62,192
1,42,113,192
1,36,118,0
1,42,46,384
1,42,113,384
1,37,120,0
1,42,59,384
1,42,113,384
1,36,125,0
1,42,63,384
1,42,120,384
1,37,120,0
1,42,44,384
1,36,75,192
1,42,120,192
1,36,125,0
1,42,77,384
1,42,120,384
1,37,120,0
1,51,91,768
1,36,125,0
1,42,71,384
1,42,113,384
1,37,120,0
1,42,26,384
1,42,113,384
1,36,125,0
1,42,48,384
1,42,120,384
1,37,120,0
1,42,56,384
1,42,120,384
1,36,125,0
1,42,53,384
1,42,120,384
1,37,120,0
1,42,56,384
1,36,52,192
1,42,113,192
1,36,118,0
1,42,53,384
1,42,120,384
1,37,120,0
1,42,59,384
1,42,113,384
1,36,125,0
1,42,48,384
1,42,113,384
1,37,127,0
1,42,56,384
1,42,120,384
1,36,125,0
1,42,53,384
1,42,120,384
1,37,120,0
1,42,77,384
1,42,113,384
1,36,125,0
1,42,67,384
1,44,77,384
1,37,120,0
1,44,77,384
1,46,71,192
1,36,75,0
1,49,100,192
1,36,125,0
1,38,125,384
1,45,118,384
1,36,118,0
1,41,125,192
1,41,118,192
1,36,109,192
1,49,127,192
1,36,125,0
1,51,100,384
1,51,120,384
1,38,125,0
1,51,77,384
1,36,81,192
1,51,120,192
1,36,125,0
1,51,91,384
1,51,120,384
1,38,125,0
1,51,91,384
1,51,120,384
1,36,125,0
1,51,42,384
1,51,120,384
1,38,125,0
1,51,83,384
1,36,70,192
1,51,120,192
1,36,125,0
1,51,113,384
1,38,75,192
1,38,118,192
1,45,125,192
1,41,125,192
1,36,118,192
1,49,120,192
1,36,127,0
1,51,91,384
1,51,120,384
1,38,125,0
1,51,83,384
1,36,75,192
1,51,120,192
1,36,125,0
1,51,67,384
1,51,71,192
1,51,120,192
1,38,118,0
1,51,83,384
1,36,89,192
1,51,120,192
1,36,125,0
1,51,77,384
1,38,109,192
1,38,125,192
1,45,118,192
1,41,118,192
1,51,67,192
1,36,97,0
1,51,120,192
1,36,125,0
1,51,77,384
1,51,120,384
1,38,118,0
1,49,100,768
1,36,125,0
1,51,77,384
1,51,113,384
1,38,118,0
1,51,83,384
1,36,66,192
1,51,120,192
1,36,125,0
1,51,77,384
1,51,120,384
1,38,118,0
1,51,83,384
1,51,120,384
1,36,125,0
1,51,91,384
1,51,120,384
1,38,125,0
1,51,83,384
1,36,52,192
1,51,120,192
1,36,125,0
1,51,67,384
1,51,113,384
1,38,125,0
1,51,77,384
1,49,113,384
1,36,125,0
1,51,77,384
1,51,113,384
1,38,118,0
1,51,113,384
1,36,89,192
1,49,120,192
1,36,125,0
1,51,113,384
1,38,81,192
1,38,125,192
1,45,125,192
1,41,118,192
1,36,70,192
1,49,120,192
1,36,127,0
1,51,100,384
1,36,81,192
1,51,120,192
1,38,125,0
1,51,83,384
1,51,113,384
1,36,125,0
1,51,83,384
1,51,120,384
1,38,109,0
1,51,77,384
1,51,120,384
1,36,125,0
1,51,71,384
1,51,120,384
1,38,125,0
1,51,100,384
1,36,70,192
1,49,120,192
1,36,125,0
1,51,120,384
1,38,109,192
1,38,125,192
1,45,125,192
1,41,125,192
1,36,109,192
1,49,127,192
1,36,125,0
1,51,100,384
1,51,120,384
1,38,125,0
1,51,77,384
1,36,81,192
1,51,120,192
1,36,125,0
1,51,91,384
1,51,120,384
1,38,125,0
1,51,91,384
1,51,120,384
1,36,125,0
1,51,42,384
1,51,120,384
1,38,125,0
1,51,83,384
1,36,70,192
1,51,120,192
1,36,125,0
1,51,113,384
1,38,75,192
1,38,118,192
1,45,125,192
1,41,125,192
1,36,118,192
1,49,120,192
1,36,127,0
1,51,91,384
1,51,120,384
1,38,125,0
1,51,83,384
1,36,75,192
1,51,120,192
1,36,125,0
1,51,67,384
1,51,71,192
1,51,120,192
1,38,118,0
1,51,83,384
1,36,89,192
1,51,120,192
1,36,125,0
1,51,77,384
1,38,109,192
1,38,125,192
1,45,118,192
1,41,118,192
1,51,67,192
1,36,97,0
1,51,120,192
1,36,125,0
1,51,77,384
1,51,120,384
1,38,118,0
1,49,127,768
1,36,125,0
1,51,100,384
1,51,120,384
1,38,125,0
1,51,77,384
1,36,81,192
1,51,120,192
1,36,125,0
1,51,91,384
1,51,120,384
1,38,125,0
1,51,91,384
1,51,120,384
1,36,125,0
1,51,42,384
1,51,120,384
1,38,125,0
1,51,83,384
1,36,70,192
1,51,120,192
1,36,125,0
1,51,113,384
1,38,75,192
1,38,118,192
1,45,125,192
1,41,125,192
1,36,118,192
1,49,120,192
1,36,127,0
1,51,91,384
1,51,120,384
1,38,125,0
1,51,83,384
1,36,75,192
1,51,120,192
1,36,125,0
1,51,67,384
1,51,71,192
1,51,120,192
1,38,118,0
1,51,83,384
1,36,89,192
1,51,120,192
1,36,125,0
1,51,77,384
1,38,109,192
1,38,125,192
1,45,118,192
1,41,118,192
1,51,67,192
1,36,97,0
1,49,100,192
1,36,118,0
1,51,113,384
1,36,109,0
1,51,120,384
1,38,109,0
1,45,118,192
1,41,125,192
1,36,109,192
1,49,127,192
1,36,125,0
1,51,100,384
1,51,120,384
1,38,125,0
1,51,77,384
1,36,81,192
1,51,120,192
1,36,125,0
1,51,91,384
1,51,120,384
1,38,125,0
1,51,91,384
1,51,120,384
1,36,125,0
1,51,42,384
1,51,120,384
1,38,125,0
1,51,83,384
1,36,70,192
1,51,120,192
1,36,125,0
1,51,113,384
1,38,75,192
1,38,118,192
1,45,125,192
1,41,125,192
1,36,118,192
1,49,120,192
1,36,127,0
1,51,91,384
1,51,120,384
1,38,125,0
1,51,83,384
1,36,75,192
1,51,120,192
1,36,125,0
1,51,67,384
1,51,71,192
1,51,120,192
1,38,118,0
1,51,83,384
1,36,89,192
1,51,120,192
1,36,125,0
1,51,77,384
1,38,109,192
1,38,125,192
1,45,118,192
1,41,118,192
1,51,67,192
1,36,97,0
1,49,100,192
1,36,118,0
1,51,113,384
1,36,109,0
1,51,120,384
1,38,109,0
1,45,118,192
1,41,125,192
1,36,109,192
1,49,113,192
1,36,125,0
2,54,113,96000
2,54,120,1536
2,54,120,1536
2,54,120,1536
2,54,120,1536
2,54,120,1536
2,54,120,1536
2,54,120,1536
2,54,120,1536
2,54,113,1536
2,54,120,1536
2,54,120,1536
2,54,120,1536
2,54,120,1536
2,54,120,1536
2,54,120,1536
2,54,120,1536
2,54,120,1536
2,54,120,1536
2,54,120,1536
2,54,120,1536
2,54,113,1536
2,54,120,1536
2,54,113,1536
2,54,120,1536
2,54,120,1536
2,54,120,1536
2,54,120,1536
2,54,120,1536
2,54,120,1536
2,54,120,1536
2,54,120,1536
2,54,120,1536
2,54,120,1536
3,62,99,1904
3,46,93,0
3,53,85,192
3,58,73,144
3,60,107,80
3,65,85,204
3,53,65,192
3,58,58,124
3,46,101,36
3,53,76,188
3,58,87,192
3,60,107,80
3,62,91,252
3,53,72,8
3,62,46,76
3,46,123,96
3,53,85,192
3,57,80,192
3,60,91,28
3,62,91,220
3,53,76,44
3,57,76,176
3,46,110,52
3,53,85,192
3,62,72,192
3,53,80,124
3,62,91,0
3,63,110,68
3,65,107,116
3,39,110,272
3,65,119,0
3,46,101,68
3,55,99,192
3,51,110,0
3,58,93,40
3,67,119,0
3,55,80,52
3,63,93,52
3,55,65,84
3,39,101,116
3,51,77,192
3,70,77,80
3,62,91,0
3,70,123,144
3,62,127,0
3,72,91,308
3,63,87,0
3,65,91,128
3,74,107,0
3,65,107,292
3,74,99,0
3,41,107,0
3,48,91,72
3,53,72,20
3,58,93,112
3,67,76,0
3,75,93,0
3,60,62,92
3,63,87,108
3,67,68,144
3,75,77,192
3,41,85,124
3,55,91,192
3,58,77,192
3,63,69,192
3,65,57,192
3,58,93,468
3,53,85,0
3,62,99,0
3,65,99,0
3,46,101,0
3,65,91,160
3,58,93,0
3,62,91,0
3,46,101,80
3,57,99,192
3,65,99,0
3,62,99,0
3,60,107,0
3,57,62,8
3,62,59,0
3,60,59,0
3,65,68,0
3,41,99,272
3,46,110,16
3,65,80,0
3,53,80,0
3,58,87,0
3,62,85,0
3,53,65,88
3,65,91,120
3,58,87,0
3,62,91,0
3,53,49,92
3,46,81,4
3,65,91,192
3,57,99,0
3,60,107,0
3,62,99,0
3,65,107,300
3,58,110,0
3,62,107,0
3,46,81,12
3,67,107,100
3,55,107,0
3,60,127,0
3,48,127,0
3,63,123,0
3,55,65,20
3,60,99,96
3,55,91,0
3,63,93,0
3,67,107,0
3,55,49,16
3,48,127,192
3,46,127,44
3,55,99,0
3,60,99,0
3,67,107,0
3,63,101,0
3,55,76,140
3,67,85,0
3,60,99,0
3,63,87,0
3,55,49,80
3,55,80,152
3,60,85,0
3,67,99,0
3,63,93,0
3,44,127,0
3,55,51,92
3,60,91,0
3,67,91,0
3,63,81,0
3,55,62,128
3,43,107,72
3,41,99,32
3,65,85,0
3,63,93,0
3,55,80,0
3,58,93,0
3,55,72,104
3,58,73,44
3,63,77,192
3,65,62,192
3,67,62,4
3,70,62,68
3,41,76,0
3,58,87,20
3,46,119,0
3,53,99,28
3,58,93,164
3,60,91,192
3,62,107,32
3,53,91,168
3,65,91,12
3,53,80,112
3,57,85,192
3,62,65,0
3,46,110,0
3,60,91,0
3,53,76,60
3,57,80,112
3,65,85,16
3,53,76,160
3,57,51,60
3,41,80,0
3,53,76,120
3,62,85,72
3,65,68,0
3,46,123,0
3,53,85,32
3,58,87,160
3,60,107,180
3,53,85,128
3,65,107,192
3,53,85,104
3,57,85,192
3,46,116,116
3,60,99,68
3,53,76,0
3,57,72,104
3,65,99,192
3,53,80,100
3,58,93,192
3,62,99,0
3,55,99,104
3,48,127,0
3,60,99,0
3,63,110,0
3,55,91,48
3,60,99,108
3,67,99,24
3,62,99,192
3,63,87,192
3,60,99,116
3,55,76,84
3,48,91,0
3,63,87,24
3,67,99,0
3,60,99,0
3,46,127,0
3,55,80,24
3,60,91,80
3,67,107,148
3,55,65,96
3,63,101,192
3,60,91,192
3,46,110,20
3,55,91,60
3,67,107,0
3,63,93,0
3,60,119,0
3,44,123,0
3,55,80,36
3,60,91,120
3,67,107,172
3,55,65,56
3,63,87,192
3,60,85,56
3,43,107,80
3,55,107,52
3,63,101,0
3,58,101,0
3,65,107,0
3,41,127,0
3,55,76,44
3,58,87,104
3,63,81,32
3,55,99,116
3,41,127,0
3,58,101,0
3,63,101,0
3,65,107,0
3,55,72,72
3,58,87,44
3,41,99,64
3,53,119,20
3,58,123,0
3,62,107,0
3,46,127,0
3,65,107,0
3,53,62,40
3,65,99,112
3,62,99,0
3,58,93,0
3,53,80,44
3,45,107,56
3,55,119,40
3,67,127,0
3,58,110,0
3,62,119,0
3,43,127,0
3,55,76,8
3,55,107,324
3,58,110,0
3,67,119,0
3,63,110,0
3,39,123,0
3,55,51,8
3,53,80,232
3,65,119,0
3,57,91,0
3,60,99,0
3,41,119,0
3,53,99,56
3,55,91,92
3,57,80,192
3,60,99,56
3,53,80,16
3,65,107,192
3,60,85,0
3,63,123,44
3,65,65,0
3,55,99,0
3,58,123,0
3,41,127,0
3,55,80,84
3,58,93,112
3,63,110,192
3,65,119,0
3,58,45,76
3,55,85,0
3,41,85,36
3,53,99,36
3,65,99,0
3,62,107,0
3,58,123,0
3,46,127,0
3,53,68,84
3,58,87,92
3,65,107,192
3,53,91,100
3,58,81,88
3,62,91,0
3,45,119,32
3,62,107,68
3,55,85,0
3,58,123,0
3,43,127,0
3,55,59,72
3,58,63,96
3,55,107,172
3,63,110,0
3,39,123,0
3,58,110,0
3,55,76,80
3,62,99,48
3,53,85,116
3,57,91,0
3,60,107,0
3,41,127,0
3,53,80,48
3,57,91,72
3,65,107,192
3,48,80,128
3,53,76,100
3,57,85,128
3,60,85,144
3,55,85,120
3,63,101,0
3,58,110,0
3,41,107,0
3,65,72,596
3,58,101,124
3,53,91,0
3,62,99,0
3,46,123,0
3,53,76,120
3,60,107,160
3,53,99,8
3,58,87,192
3,65,99,132
3,58,87,156
3,62,99,0
3,43,127,0
3,58,91,16
3,65,101,0
3,62,99,24
3,39,123,0
3,55,85,0
3,58,87,88
3,62,99,60
3,53,99,0
3,41,119,0
3,63,93,120
3,58,81,0
3,58,123,116
3,55,107,0
3,63,123,0
3,55,65,52
3,58,81,112
3,63,93,192
3,41,99,60
3,65,91,0
3,77,76,52
3,58,93,140
3,53,85,0
3,62,99,0
3,65,99,0
3,46,101,0
3,65,91,160
3,58,93,0
3,62,91,0
3,46,101,80
3,57,99,192
3,65,99,0
3,62,99,0
3,60,107,0
3,57,62,8
3,62,59,0
3,60,59,0
3,65,68,0
3,41,99,272
3,46,110,16
3,65,80,0
3,53,80,0
3,58,87,0
3,62,85,0
3,53,65,88
3,65,91,120
3,58,87,0
3,62,91,0
3,53,49,92
3,46,81,4
3,65,91,192
3,57,99,0
3,60,107,0
3,62,99,0
3,65,107,300
3,58,110,0
3,62,107,0
3,46,81,12
3,67,107,100
3,55,107,0
3,60,127,0
3,48,127,0
3,63,123,0
3,55,65,20
3,60,99,96
3,55,91,0
3,63,93,0
3,67,107,0
3,55,49,16
3,48,127,192
3,46,127,44
3,55,99,0
3,60,99,0
3,67,107,0
3,63,101,0
3,55,76,140
3,67,85,0
3,60,99,0
3,63,87,0
3,55,49,80
3,55,80,152
3,60,85,0
3,67,99,0
3,63,93,0
3,44,127,0
3,55,51,92
3,60,91,0
3,67,91,0
3,63,81,0
3,55,62,128
3,43,107,72
3,41,99,32
3,65,85,0
3,63,93,0
3,55,80,0
3,58,93,0
3,55,72,104
3,58,73,44
3,63,77,192
3,65,62,192
3,67,62,4
3,70,62,68
3,41,76,0
3,58,87,20
3,46,119,0
3,53,99,28
3,58,93,164
3,60,91,192
3,62,107,32
3,53,91,168
3,65,91,12
3,53,80,112
