track,note,velocity,time
2,60,120,0
3,36,94,3852
3,48,106,70
3,47,86,13
3,48,94,18
3,47,88,10
3,48,102,18
3,47,74,13
3,48,100,28
3,36,78,107
3,48,100,22
3,46,92,5
3,43,102,2
3,36,96,227
3,48,106,10
3,47,88,5
3,48,108,65
3,47,84,2
3,48,102,33
3,47,96,3
3,48,112,75
3,36,84,47
3,48,116,23
3,46,102,38
3,43,114,40
3,29,100,142
3,41,108,440
3,40,92,22
3,41,110,18
3,40,96,27
3,41,112,45
3,40,98,32
3,41,116,73
3,29,104,407
3,41,118,270
3,39,100,23
3,36,92,5
3,36,90,210
3,48,116,33
3,47,98,12
3,48,106,38
3,47,102,12
3,48,110,30
3,47,98,2
3,48,114,80
3,36,84,425
3,48,118,292
3,46,102,0
3,43,110,22
3,43,124,717
3,43,124,265
3,41,114,1207
3,41,122,270
3,36,106,960
3,40,94,325
3,43,110,280
3,46,110,240
3,50,116,293
3,36,94,405
3,48,106,70
3,47,86,13
3,48,94,18
3,47,88,10
3,48,102,18
3,47,74,13
3,48,100,28
3,36,78,107
3,48,100,22
3,46,92,5
3,43,102,2
3,36,96,227
3,48,106,10
3,47,88,5
3,48,108,65
3,47,84,2
3,48,102,33
3,47,96,3
3,48,112,75
3,36,84,47
3,48,116,23
3,46,102,38
3,43,114,40
3,29,100,142
3,41,108,440
3,40,92,22
3,41,110,18
3,40,96,27
3,41,112,45
3,40,98,32
3,41,116,73
3,29,104,407
3,41,118,270
3,39,100,23
3,36,92,5
3,36,90,210
3,48,116,33
3,47,98,12
3,48,106,38
3,47,102,12
3,48,110,30
3,47,98,2
3,48,114,80
3,36,84,425
3,48,118,292
3,46,102,0
3,43,110,22
3,43,124,717
3,43,124,265
3,41,114,1207
3,41,122,270
3,36,106,960
3,40,94,325
3,43,110,280
3,46,110,240
3,50,116,293
3,41,105,8118
3,41,105,127
3,39,105,17
3,39,105,127
3,38,105,40
3,38,105,105
3,36,105,10
3,36,105,123
3,41,105,45
3,41,105,97
3,39,105,48
3,39,105,93
3,38,105,53
3,38,105,117
3,36,105,22
3,36,105,100
3,36,105,97
3,36,105,105
3,34,105,7
3,34,105,122
3,33,105,45
3,33,105,112
3,31,105,40
3,31,105,127
3,36,105,110
3,36,105,92
3,34,105,35
3,34,105,112
3,33,105,57
3,33,105,103
3,31,105,18
3,31,105,128
3,41,105,145
3,41,105,80
3,39,105,57
3,39,105,93
3,38,105,110
3,38,105,115
3,36,105,18
3,36,105,110
3,41,105,57
3,41,105,93
3,39,105,75
3,39,105,158
3,38,105,128
3,38,105,128
3,36,105,100
3,36,105,123
3,43,105,88
3,36,94,3550
3,48,106,70
3,47,86,13
3,48,94,18
3,47,88,10
3,48,102,18
3,47,74,13
3,48,100,28
3,36,78,107
3,48,100,22
3,46,92,5
3,43,102,2
3,36,96,227
3,48,106,10
3,47,88,5
3,48,108,65
3,47,84,2
3,48,102,33
3,47,96,3
3,48,112,75
3,36,84,47
3,48,116,23
3,46,102,38
3,43,114,40
3,29,100,142
3,41,108,440
3,40,92,22
3,41,110,18
3,40,96,27
3,41,112,45
3,40,98,32
3,41,116,73
3,29,104,407
3,41,118,270
3,39,100,23
3,36,92,5
3,36,90,210
3,48,116,33
3,47,98,12
3,48,106,38
3,47,102,12
3,48,110,30
3,47,98,2
3,48,114,80
3,36,84,425
3,48,118,292
3,46,102,0
3,43,110,22
3,43,124,717
3,43,124,265
3,41,114,1207
3,41,122,270
3,36,106,960
3,40,94,325
3,43,110,280
3,46,110,240
3,50,116,293
3,36,94,405
3,48,106,70
3,47,86,13
3,48,94,18
3,47,88,10
3,48,102,18
3,47,74,13
3,48,100,28
3,36,78,107
3,48,100,22
3,46,92,5
3,43,102,2
3,36,96,227
3,48,106,10
3,47,88,5
3,48,108,65
3,47,84,2
3,48,102,33
3,47,96,3
3,48,112,75
3,36,84,47
3,48,116,23
3,46,102,38
3,43,114,40
3,29,100,142
3,41,108,440
3,40,92,22
3,41,110,18
3,40,96,27
3,41,112,45
3,40,98,32
3,41,116,73
3,29,104,407
3,41,118,270
3,39,100,23
3,36,92,5
3,36,90,210
3,48,116,33
3,47,98,12
3,48,106,38
3,47,102,12
3,48,110,30
3,47,98,2
3,48,114,80
3,36,84,425
3,48,118,292
3,46,102,0
3,43,110,22
3,43,124,717
3,43,124,265
3,41,114,1207
3,41,122,270
3,36,106,960
3,40,94,325
3,43,110,280
3,46,110,240
3,50,116,293
3,41,105,8118
3,41,105,127
3,39,105,17
3,39,105,127
3,38,105,40
3,38,105,105
3,36,105,10
3,36,105,123
3,41,105,45
3,41,105,97
3,39,105,48
3,39,105,93
3,38,105,53
3,38,105,117
3,36,105,22
3,36,105,100
3,36,105,97
3,36,105,105
3,34,105,7
3,34,105,122
3,33,105,45
3,33,105,112
3,31,105,40
3,31,105,127
3,36,105,110
3,36,105,92
3,34,105,35
3,34,105,112
3,33,105,57
3,33,105,103
3,31,105,18
3,31,105,128
3,41,105,145
3,41,105,80
3,39,105,57
3,39,105,93
3,38,105,110
3,38,105,115
3,36,105,18
3,36,105,110
3,41,105,57
3,41,105,93
3,39,105,75
3,39,105,158
3,38,105,128
3,38,105,128
3,36,105,100
3,36,105,123
3,43,105,88
3,36,94,3550
3,48,106,70
3,47,86,13
3,48,94,18
3,47,88,10
3,48,102,18
3,47,74,13
3,48,100,28
3,36,78,107
3,48,100,22
3,46,92,5
3,43,102,2
3,36,96,227
3,48,106,10
3,47,88,5
3,48,108,65
3,47,84,2
3,48,102,33
3,47,96,3
3,48,112,75
3,36,84,47
3,48,116,23
3,46,102,38
3,43,114,40
3,29,100,142
3,41,108,440
3,40,92,22
3,41,110,18
3,40,96,27
3,41,112,45
3,40,98,32
3,41,116,73
3,29,104,407
3,41,118,270
3,39,100,23
3,36,92,5
3,36,90,210
3,48,116,33
3,47,98,12
3,48,106,38
3,47,102,12
3,48,110,30
3,47,98,2
3,48,114,80
3,36,84,425
3,48,118,292
3,46,102,0
3,43,110,22
3,43,124,717
3,43,124,265
3,41,114,1207
3,41,122,270
3,36,106,960
3,40,94,325
3,43,110,280
3,46,110,240
3,50,116,293
3,36,94,405
3,48,106,70
3,47,86,13
3,48,94,18
3,47,88,10
3,48,102,18
3,47,74,13
3,48,100,28
3,36,78,107
3,48,100,22
3,46,92,5
3,43,102,2
3,36,96,227
3,48,106,10
3,47,88,5
3,48,108,65
3,47,84,2
3,48,102,33
3,47,96,3
3,48,112,75
3,36,84,47
3,48,116,23
3,46,102,38
3,43,114,40
3,29,100,142
3,41,108,440
3,40,92,22
3,41,110,18
3,40,96,27
3,41,112,45
3,40,98,32
3,41,116,73
3,29,104,407
3,41,118,270
3,39,100,23
3,36,92,5
3,36,90,210
3,48,116,33
3,47,98,12
3,48,106,38
3,47,102,12
3,48,110,30
3,47,98,2
3,48,114,80
3,36,84,425
3,48,118,292
3,46,102,0
3,43,110,22
3,43,124,717
3,43,124,265
3,41,114,1207
3,41,122,270
3,36,106,960
3,40,94,325
3,43,110,280
3,46,110,240
3,50,116,293
3,43,124,850
3,43,124,265
3,41,114,1207
3,41,122,270
3,36,106,960
3,40,94,325
3,43,110,280
3,46,110,240
3,50,116,293
3,43,124,850
3,43,124,265
3,41,114,1207
3,41,122,270
3,36,120,912
3,40,106,88
3,43,110,117
3,46,104,135
3,50,108,242
3,48,96,238
3,46,114,262
3,36,110,360
4,67,110,4332
4,72,110,0
4,64,96,5
4,72,112,767
4,67,110,0
4,64,98,8
4,67,104,762
4,72,106,8
4,64,98,5
4,72,106,755
4,67,104,2
4,64,90,10
4,67,108,788
4,72,110,0
4,64,94,0
4,67,106,798
4,72,112,0
4,64,100,5
4,72,114,710
4,67,110,0
4,64,96,5
4,72,106,752
4,67,112,5
4,64,92,0
4,69,120,755
4,65,92,0
4,72,116,3
4,69,118,713
4,65,88,0
4,72,118,2
4,72,112,775
4,69,118,0
4,65,86,3
4,72,110,695
4,69,114,3
4,65,80,0
4,67,110,802
4,72,110,5
4,64,100,5
4,67,106,785
4,72,108,2
4,64,96,5
4,67,106,742
4,72,106,5
4,64,100,0
4,67,108,785
4,72,104,0
4,64,98,5
4,71,90,792
4,67,80,3
4,74,106,7
4,71,106,205
4,74,100,2
4,67,88,3
4,65,78,1150
4,69,108,0
4,72,110,3
4,65,92,215
4,72,116,0
4,69,112,5
4,48,106,953
4,52,94,325
4,55,110,280
4,58,110,240
4,62,116,293
4,67,110,885
4,72,110,0
4,64,96,5
4,72,112,767
4,67,110,0
4,64,98,8
4,67,104,762
4,72,106,8
4,64,98,5
4,72,106,755
4,67,104,2
4,64,90,10
4,67,108,788
4,72,110,0
4,64,94,0
4,67,106,798
4,72,112,0
4,64,100,5
4,72,114,710
4,67,110,0
4,64,96,5
4,72,106,752
4,67,112,5
4,64,92,0
4,69,120,755
4,65,92,0
4,72,116,3
4,69,118,713
4,65,88,0
4,72,118,2
4,72,112,775
4,69,118,0
4,65,86,3
4,72,110,695
4,69,114,3
4,65,80,0
4,67,110,802
4,72,110,5
4,64,100,5
4,67,106,785
4,72,108,2
4,64,96,5
4,67,106,742
4,72,106,5
4,64,100,0
4,67,108,785
4,72,104,0
4,64,98,5
4,71,90,792
4,67,80,3
4,74,106,7
4,71,106,205
4,74,100,2
4,67,88,3
4,65,78,1150
4,69,108,0
4,72,110,3
4,65,92,215
4,72,116,0
4,69,112,5
4,48,106,953
4,52,94,325
4,55,110,280
4,58,110,240
4,62,116,293
4,60,114,8563
4,55,112,2
4,57,118,0
4,51,98,0
4,60,114,665
4,57,118,5
4,55,116,3
4,51,102,0
4,60,110,738
4,57,118,0
4,55,110,2
4,51,106,8
4,60,114,740
4,57,120,0
4,55,112,2
4,51,110,0
4,60,114,718
4,55,110,2
4,52,106,3
4,55,114,780
4,60,114,3
4,52,104,2
4,60,112,767
4,55,112,0
4,52,108,10
4,60,114,755
4,55,112,3
4,52,110,7
4,57,122,740
4,60,116,3
4,55,118,0
4,51,110,7
4,51,100,727
4,55,114,3
4,60,118,5
4,57,122,0
4,57,122,737
4,60,118,0
4,55,114,5
4,51,100,5
4,60,120,738
4,55,116,0
4,57,124,2
4,51,104,3
4,59,120,288
4,62,122,2
4,55,118,3
4,67,110,4062
4,72,110,0
4,64,96,5
4,72,112,767
4,67,110,0
4,64,98,8
4,67,104,762
4,72,106,8
4,64,98,5
4,72,106,755
4,67,104,2
4,64,90,10
4,67,108,788
4,72,110,0
4,64,94,0
4,67,106,798
4,72,112,0
4,64,100,5
4,72,114,710
4,67,110,0
4,64,96,5
4,72,106,752
4,67,112,5
4,64,92,0
4,69,120,755
4,65,92,0
4,72,116,3
4,69,118,713
4,65,88,0
4,72,118,2
4,72,112,775
4,69,118,0
4,65,86,3
4,72,110,695
4,69,114,3
4,65,80,0
4,67,110,802
4,72,110,5
4,64,100,5
4,67,106,785
4,72,108,2
4,64,96,5
4,67,106,742
4,72,106,5
4,64,100,0
4,67,108,785
4,72,104,0
4,64,98,5
4,71,90,792
4,67,80,3
4,74,106,7
4,71,106,205
4,74,100,2
4,67,88,3
4,65,78,1150
4,69,108,0
4,72,110,3
4,65,92,215
4,72,116,0
4,69,112,5
4,48,106,953
4,52,94,325
4,55,110,280
4,58,110,240
4,62,116,293
4,67,110,885
4,72,110,0
4,64,96,5
4,72,112,767
4,67,110,0
4,64,98,8
4,67,104,762
4,72,106,8
4,64,98,5
4,72,106,755
4,67,104,2
4,64,90,10
4,67,108,788
4,72,110,0
4,64,94,0
4,67,106,798
4,72,112,0
4,64,100,5
4,72,114,710
4,67,110,0
4,64,96,5
4,72,106,752
4,67,112,5
4,64,92,0
4,69,120,755
4,65,92,0
4,72,116,3
4,69,118,713
4,65,88,0
4,72,118,2
4,72,112,775
4,69,118,0
4,65,86,3
4,72,110,695
4,69,114,3
4,65,80,0
4,67,110,802
4,72,110,5
4,64,100,5
4,67,106,785
4,72,108,2
4,64,96,5
4,67,106,742
4,72,106,5
4,64,100,0
4,67,108,785
4,72,104,0
4,64,98,5
4,71,90,792
4,67,80,3
4,74,106,7
4,71,106,205
4,74,100,2
4,67,88,3
4,65,78,1150
4,69,108,0
4,72,110,3
4,65,92,215
4,72,116,0
4,69,112,5
4,48,106,953
4,52,94,325
4,55,110,280
4,58,110,240
4,62,116,293
4,60,114,8563
4,55,112,2
4,57,118,0
4,51,98,0
4,60,114,665
4,57,118,5
4,55,116,3
4,51,102,0
4,60,110,738
4,57,118,0
4,55,110,2
4,51,106,8
4,60,114,740
4,57,120,0
4,55,112,2
4,51,110,0
4,60,114,718
4,55,110,2
4,52,106,3
4,55,114,780
4,60,114,3
4,52,104,2
4,60,112,767
4,55,112,0
4,52,108,10
4,60,114,755
4,55,112,3
4,52,110,7
4,57,122,740
4,60,116,3
4,55,118,0
4,51,110,7
4,51,100,727
4,55,114,3
4,60,118,5
4,57,122,0
4,57,122,737
4,60,118,0
4,55,114,5
4,51,100,5
4,60,120,738
4,55,116,0
4,57,124,2
4,51,104,3
4,59,120,288
4,62,122,2
4,55,118,3
4,67,110,4062
4,72,110,0
4,64,96,5
4,72,112,767
4,67,110,0
4,64,98,8
4,67,104,762
4,72,106,8
4,64,98,5
4,72,106,755
4,67,104,2
4,64,90,10
4,67,108,788
4,72,110,0
4,64,94,0
4,67,106,798
4,72,112,0
4,64,100,5
4,72,114,710
4,67,110,0
4,64,96,5
4,72,106,752
4,67,112,5
4,64,92,0
4,69,120,755
4,65,92,0
4,72,116,3
4,69,118,713
4,65,88,0
4,72,118,2
4,72,112,775
4,69,118,0
4,65,86,3
4,72,110,695
4,69,114,3
4,65,80,0
4,67,110,802
4,72,110,5
4,64,100,5
4,67,106,785
4,72,108,2
4,64,96,5
4,67,106,742
4,72,106,5
4,64,100,0
4,67,108,785
4,72,104,0
4,64,98,5
4,71,90,792
4,67,80,3
4,74,106,7
4,71,106,205
4,74,100,2
4,67,88,3
4,65,78,1150
4,69,108,0
4,72,110,3
4,65,92,215
4,72,116,0
4,69,112,5
4,48,106,953
4,52,94,325
4,55,110,280
4,58,110,240
4,62,116,293
4,67,110,885
4,72,110,0
4,64,96,5
4,72,112,767
4,67,110,0
4,64,98,8
4,67,104,762
4,72,106,8
4,64,98,5
4,72,106,755
4,67,104,2
4,64,90,10
4,67,108,788
4,72,110,0
4,64,94,0
4,67,106,798
4,72,112,0
4,64,100,5
4,72,114,710
4,67,110,0
4,64,96,5
4,72,106,752
4,67,112,5
4,64,92,0
4,69,120,755
4,65,92,0
4,72,116,3
4,69,118,713
4,65,88,0
4,72,118,2
4,72,112,775
4,69,118,0
4,65,86,3
4,72,110,695
4,69,114,3
4,65,80,0
4,67,110,802
4,72,110,5
4,64,100,5
4,67,106,785
4,72,108,2
4,64,96,5
4,67,106,742
4,72,106,5
4,64,100,0
4,67,108,785
4,72,104,0
4,64,98,5
4,71,90,792
4,67,80,3
4,74,106,7
4,71,106,205
4,74,100,2
4,67,88,3
4,65,78,1150
4,69,108,0
4,72,110,3
4,65,92,215
4,72,116,0
4,69,112,5
4,48,106,953
4,52,94,325
4,55,110,280
4,58,110,240
4,62,116,293
4,71,90,910
4,67,80,3
4,74,106,7
4,71,106,205
4,74,100,2
4,67,88,3
4,65,78,1150
4,69,108,0
4,72,110,3
4,65,92,215
4,72,116,0
4,69,112,5
4,48,106,953
4,52,94,325
4,55,110,280
4,58,110,240
4,62,116,293
4,71,90,910
4,67,80,3
4,74,106,7
4,71,106,205
4,74,100,2
4,67,88,3
4,65,78,1150
4,69,108,0
4,72,110,3
4,65,92,215
4,72,116,0
4,69,112,5
4,36,120,905
4,40,106,88
4,43,110,117
4,46,104,135
4,50,108,242
4,48,96,238
4,46,114,262
4,36,110,360
5,60,120,4350
5,59,108,12
5,60,122,7
5,59,106,8
5,60,120,30
5,59,98,235
5,60,120,23
5,60,120,2233
5,59,112,0
5,60,118,5
5,59,104,252
5,60,116,0
5,59,104,278
5,60,120,27
5,60,122,2172
5,59,102,253
5,60,114,205
