track,note,velocity,time
0,62,99,1536
0,46,93,0
0,53,85,192
0,58,73,144
0,60,107,80
0,65,85,204
0,53,65,192
0,58,58,124
0,46,101,36
0,53,76,188
0,58,87,192
0,60,107,80
0,62,91,252
0,53,72,8
0,62,46,76
0,46,123,96
0,53,85,192
0,57,80,192
0,60,91,28
0,62,91,220
0,53,76,44
0,57,76,176
0,46,110,52
0,53,85,192
0,62,72,192
0,53,80,124
0,62,91,0
0,63,110,68
0,65,107,116
0,39,110,272
0,65,119,0
0,46,101,68
0,55,99,192
0,51,110,0
0,58,93,40
0,67,119,0
0,55,80,52
0,63,93,52
0,55,65,84
0,39,101,116
0,51,77,192
0,70,77,80
0,62,91,0
0,70,123,144
0,62,127,0
0,63,87,308
0,72,91,0
0,74,107,128
0,65,91,0
0,74,99,292
0,41,107,0
0,65,107,0
0,48,91,72
0,53,72,20
0,75,93,112
0,58,93,0
0,67,76,0
0,60,62,92
0,63,87,108
0,67,68,144
0,75,77,192
0,41,85,124
0,55,91,192
0,58,77,192
0,63,69,192
0,65,57,192
0,62,99,468
0,58,93,0
0,65,99,0
0,53,85,0
0,46,101,0
0,65,107,24
0,67,91,24
0,70,93,4
0,67,72,0
0,62,91,144
0,58,93,0
0,65,91,0
0,74,107,0
0,67,91,0
0,46,101,80
0,65,85,4
0,60,107,144
0,62,99,0
0,65,99,0
0,57,99,0
0,60,59,8
0,57,62,0
0,62,59,0
0,65,68,0
0,41,99,272
0,53,80,16
0,46,110,0
0,65,80,0
0,58,87,0
0,62,85,0
0,65,119,0
0,67,107,0
0,70,101,4
0,53,65,88
0,67,76,0
0,65,91,120
0,58,87,0
0,62,91,0
0,74,107,0
0,53,49,0
0,67,80,0
0,46,81,4
0,65,91,0
0,57,99,176
0,62,99,0
0,65,91,0
0,60,107,0
0,62,107,300
0,58,110,0
0,65,107,0
0,46,81,12
0,48,127,4
0,55,107,0
0,67,107,0
0,63,123,0
0,60,127,0
0,75,110,0
0,74,80,0
0,55,65,20
0,74,91,0
0,72,107,0
0,55,91,96
0,67,107,0
0,63,93,0
0,60,99,0
0,72,119,0
0,55,49,16
0,48,127,192
0,67,85,0
0,63,101,44
0,67,107,0
0,60,99,0
0,55,99,0
0,46,127,0
0,75,123,0
0,74,99,4
0,72,99,0
0,67,85,140
0,60,99,0
0,63,87,0
0,55,76,0
0,55,49,80
0,55,80,0
0,44,127,0
0,63,93,0
0,60,85,0
0,67,99,0
0,75,110,0
0,77,99,4
0,75,87,0
0,74,65,0
0,72,91,76
0,60,91,4
0,63,81,0
0,67,91,0
0,55,51,0
0,55,62,128
0,43,107,72
0,65,85,32
0,55,80,0
0,58,93,0
0,63,93,0
0,41,99,0
0,41,109,0
0,51,5,0
0,75,110,4
0,51,7,4
0,51,9,16
0,51,10,16
0,51,12,16
0,51,13,0
0,51,15,16
0,51,17,16
0,74,62,0
0,51,18,12
0,51,20,8
0,51,21,16
0,51,23,16
0,55,72,16
0,51,25,0
0,51,26,16
0,72,80,0
0,51,28,8
0,51,29,16
0,51,31,16
0,51,33,12
0,58,73,16
0,51,34,0
0,51,36,16
0,74,91,0
0,51,37,0
0,51,39,16
0,51,41,16
0,51,42,16
0,63,77,16
0,51,44,0
0,51,45,16
0,51,47,16
0,51,49,16
0,51,50,16
0,51,52,16
0,65,62,16
0,51,53,0
0,72,85,0
0,51,55,4
0,51,57,16
0,51,58,16
0,51,60,4
0,51,61,16
0,67,62,4
0,53,67,0
0,51,63,0
0,51,65,0
0,70,81,4
0,51,66,16
0,51,68,16
0,51,69,4
0,51,71,16
0,70,62,16
0,41,76,0
0,55,90,0
0,51,73,0
0,67,85,0
0,51,74,0
0,51,76,16
0,51,78,4
0,51,79,4
0,51,81,16
0,46,119,4
0,58,87,0
0,46,103,0
0,51,82,0
0,65,107,0
0,53,99,28
0,67,107,4
0,58,93,164
0,70,110,0
0,60,91,176
0,67,68,0
0,62,107,0
0,74,107,0
0,53,91,168
0,65,91,12
0,67,80,0
0,53,80,112
0,65,107,4
0,46,110,172
0,60,91,0
0,62,65,0
0,57,85,0
0,53,76,60
0,57,80,112
0,65,85,4
0,53,95,0
0,55,109,0
0,53,76,160
0,57,51,4
0,41,80,0
0,53,86,0
0,53,76,120
0,62,85,4
0,46,123,0
0,65,68,0
0,46,111,0
0,65,127,0
0,53,85,32
0,67,99,0
0,58,87,160
0,70,110,4
0,60,107,156
0,67,99,0
0,53,85,128
0,72,99,0
0,74,65,56
0,65,107,84
0,53,85,104
0,67,99,0
0,57,85,164
0,65,119,0
0,46,116,0
0,34,120,0
0,60,99,68
0,53,76,0
0,57,72,104
0,65,99,192
0,53,80,100
0,62,99,192
0,58,93,0
0,38,127,8
0,60,99,8
0,63,110,0
0,48,127,0
0,55,99,0
0,36,127,0
0,75,110,4
0,55,91,48
0,74,99,0
0,60,99,76
0,74,99,0
0,67,99,24
0,72,99,0
0,62,99,128
0,72,119,0
0,63,87,172
0,60,99,116
0,48,91,84
0,55,76,0
0,67,119,0
0,46,127,0
0,60,99,0
0,63,87,0
0,67,99,0
0,34,127,0
0,74,119,0
0,55,80,0
0,75,87,0
0,60,91,0
0,74,99,0
0,67,107,0
0,72,127,0
0,55,65,96
0,63,101,192
0,60,91,192
0,46,110,20
0,75,127,0
0,67,107,20
0,55,91,0
0,63,93,0
0,60,119,0
0,44,123,0
0,32,127,0
0,60,90,0
0,44,90,0
0,55,80,36
0,77,107,0
0,60,91,120
0,67,107,172
0,75,101,4
0,74,80,0
0,55,65,56
0,72,99,0
0,63,87,176
0,60,85,56
0,43,107,20
0,31,95,0
0,43,90,0
0,67,107,4
0,55,107,0
0,63,101,0
0,58,101,0
0,65,107,0
0,41,127,0
0,29,127,0
0,63,90,0
0,58,90,0
0,41,90,0
0,55,90,0
0,63,90,0
0,75,127,0
0,55,76,44
0,74,91,0
0,58,87,104
0,72,107,0
0,63,81,32
0,75,123,0
0,55,99,0
0,41,127,0
0,65,107,0
0,63,101,0
0,58,101,0
0,41,127,0
0,65,90,0
0,45,118,0
0,55,72,72
0,45,118,0
0,77,107,0
0,58,87,44
0,74,119,0
0,41,125,0
0,41,99,64
0,72,119,0
0,53,119,0
0,46,127,0
0,62,107,0
0,58,123,0
0,65,107,0
0,34,127,0
0,62,90,0
0,46,90,0
0,53,90,0
0,58,90,0
0,36,118,0
0,49,120,0
0,70,110,16
0,53,62,40
0,58,93,112
0,62,99,0
0,65,99,0
0,38,118,0
0,42,120,0
0,65,119,0
0,53,80,20
0,46,97,0
0,74,127,0
0,42,77,0
0,45,107,8
0,45,117,0
0,72,127,0
0,45,90,0
0,36,81,0
0,43,127,0
0,67,127,0
0,58,110,0
0,55,119,0
0,62,119,0
0,43,127,0
0,62,90,0
0,43,90,0
0,55,90,0
0,58,90,0
0,36,118,0
0,42,113,0
0,70,101,24
0,55,76,8
0,74,107,0
0,42,59,0
0,72,127,0
0,63,110,0
0,55,107,0
0,39,123,0
0,58,110,0
0,67,119,0
0,39,127,0
0,39,90,0
0,38,125,0
0,42,120,0
0,70,110,0
0,72,99,40
0,42,56,0
0,55,51,8
0,72,107,0
0,53,80,0
0,57,91,0
0,65,119,0
0,41,119,0
0,60,99,0
0,41,127,0
0,60,90,0
0,41,90,0
0,53,90,0
0,57,90,0
0,42,113,0
0,36,125,0
0,53,99,56
0,65,107,0
0,55,91,92
0,42,46,0
0,57,80,176
0,60,99,56
0,42,120,0
0,38,125,0
0,53,80,16
0,65,107,0
0,65,99,0
0,42,42,0
0,60,85,0
0,29,127,0
0,65,99,0
0,41,127,0
0,63,123,0
0,55,99,0
0,65,65,0
0,58,123,0
0,29,127,0
0,75,123,0
0,63,90,0
0,55,90,0
0,41,90,0
0,58,90,0
0,36,125,0
0,42,113,0
0,74,99,0
0,55,80,0
0,75,123,0
0,42,91,0
0,58,93,0
0,74,127,0
0,38,89,0
0,65,119,176
0,63,110,0
0,38,118,0
0,72,99,0
0,45,125,0
0,55,85,0
0,58,45,0
0,41,127,0
0,74,119,0
0,41,125,0
0,41,85,36
0,72,127,0
0,36,58,0
0,58,123,0
0,65,99,0
0,46,127,0
0,53,99,0
0,62,107,0
0,34,127,0
0,46,90,0
0,58,90,0
0,53,90,0
0,62,90,0
0,36,125,0
0,49,120,0
0,70,123,36
0,53,68,84
0,42,59,0
0,58,87,92
0,65,107,192
0,38,125,0
0,42,120,0
0,53,91,100
0,65,85,0
0,62,91,0
0,58,81,0
0,46,127,0
0,74,127,0
0,42,63,0
0,45,119,0
0,45,127,0
0,72,127,0
0,36,62,0
0,58,123,0
0,55,85,0
0,43,127,0
0,62,107,0
0,43,117,0
0,69,90,0
0,43,90,0
0,62,90,0
0,58,90,0
0,42,120,0
0,36,118,0
0,70,101,28
0,55,59,0
0,74,119,0
0,42,50,0
0,58,63,96
0,72,91,0
0,74,85,44
0,55,107,0
0,58,110,0
0,63,110,0
0,39,123,0
0,39,127,0
0,72,99,0
0,63,90,0
0,39,90,0
0,67,90,0
0,42,120,0
0,38,125,0
0,70,123,0
0,55,76,0
0,74,127,0
0,42,53,0
0,62,99,0
0,72,127,0
0,41,127,0
0,53,85,0
0,57,91,0
0,60,107,0
0,41,127,0
0,65,90,0
0,41,90,0
0,57,90,0
0,60,90,0
0,36,125,0
0,42,113,0
0,53,80,0
0,65,119,0
0,57,91,72
0,42,83,0
0,65,107,176
0,38,75,0
0,48,80,128
0,38,118,0
0,53,76,100
0,45,118,0
0,57,85,0
0,65,99,0
0,41,118,0
0,60,85,0
0,41,109,0
0,65,99,0
0,36,89,0
0,58,110,0
0,63,101,0
0,41,107,0
0,55,85,0
0,29,127,0
0,75,123,0
0,55,90,0
0,63,90,0
0,41,90,0
0,58,90,0
0,49,113,0
0,36,125,0
0,74,99,20
0,75,101,180
0,74,76,188
0,65,72,172
0,72,80,0
0,74,119,0
0,72,99,0
0,62,99,80
0,53,91,0
0,58,101,0
0,46,123,0
0,51,91,0
0,70,101,0
0,53,76,120
0,60,107,160
0,42,83,136
0,53,99,8
0,58,87,192
0,65,99,132
0,43,127,156
0,58,87,0
0,62,99,0
0,58,91,16
0,65,101,0
0,39,123,24
0,55,85,0
0,62,99,0
0,27,120,0
0,42,71,0
0,58,87,88
0,41,119,0
0,53,99,0
0,62,99,0
0,29,127,0
0,63,93,120
0,58,81,0
0,58,123,116
0,55,107,0
0,63,123,0
0,42,83,8
0,55,65,52
0,58,81,112
0,63,93,192
0,65,91,0
0,41,99,0
0,41,95,0
0,77,76,12
0,53,75,0
0,51,71,0
0,46,101,0
0,53,85,0
0,62,99,0
0,58,93,0
0,65,99,0
0,46,120,0
0,77,107,0
0,58,90,0
0,62,90,0
0,65,90,0
0,46,90,0
0,36,97,0
0,51,83,0
0,79,107,16
0,82,110,0
0,42,83,0
0,79,80,0
0,62,91,0
0,65,91,0
0,58,93,0
0,86,119,0
0,37,113,0
0,42,113,0
0,79,99,0
0,42,71,0
0,46,101,0
0,34,87,0
0,77,107,0
0,62,99,0
0,65,99,0
0,60,107,0
0,57,99,0
0,34,127,0
0,57,90,0
0,46,90,0
0,65,90,0
0,60,90,0
0,42,113,0
0,36,118,0
0,42,59,180
0,62,59,8
0,65,68,0
0,57,62,0
0,60,59,0
0,43,117,0
0,37,120,0
0,42,120,0
0,42,63,80
0,41,99,16
0,41,109,0
0,74,91,0
0,75,101,76
0,62,85,0
0,65,80,0
0,53,80,0
0,46,110,0
0,58,87,0
0,34,127,0
0,77,99,0
0,58,90,0
0,46,90,0
0,65,90,0
0,55,90,0
0,62,90,0
0,42,120,0
0,36,118,0
0,79,119,96
0,82,123,0
0,53,65,0
0,79,99,0
0,42,28,0
0,62,91,0
0,58,87,0
0,65,91,0
0,86,127,0
0,37,120,0
0,42,120,0
0,53,49,0
0,79,119,0
0,42,59,0
0,46,81,0
0,34,127,0
0,77,99,0
0,62,99,0
0,65,91,0
0,57,99,0
0,60,107,0
0,34,127,0
0,65,90,0
0,46,90,0
0,60,90,0
0,57,90,0
0,42,83,0
0,36,109,0
0,42,53,108
0,62,107,0
0,65,107,0
0,58,110,0
0,62,90,0
0,58,90,0
0,42,120,0
0,37,120,0
0,38,127,44
0,42,83,0
0,46,81,12
0,67,107,0
0,55,107,0
0,63,123,0
0,60,127,0
0,48,127,0
0,36,127,0
0,55,90,0
0,48,90,0
0,60,90,0
0,63,90,0
0,42,120,0
0,36,118,0
0,87,123,0
0,86,99,0
0,55,65,20
0,42,56,0
0,86,107,0
0,84,85,0
0,55,91,96
0,63,93,0
0,60,99,0
0,67,107,0
0,37,120,0
0,42,113,0
0,84,127,0
0,55,49,16
0,42,53,0
0,79,119,0
0,48,127,16
0,36,127,0
0,36,62,0
0,67,107,0
0,46,127,0
0,55,99,0
0,63,101,0
0,60,99,0
0,34,127,0
0,60,90,0
0,63,90,0
0,55,90,0
0,46,90,0
0,42,113,0
0,36,118,0
0,87,123,0
0,79,99,12
0,77,91,0
0,86,99,4
0,42,46,0
0,75,93,0
0,84,99,4
0,67,85,140
0,63,87,0
0,60,99,0
0,55,76,0
0,42,113,0
0,37,120,0
0,55,49,80
0,42,59,0
0,34,111,72
0,63,93,0
0,44,127,0
0,67,99,0
0,55,80,0
0,60,85,0
0,32,120,0
0,44,90,0
0,60,90,0
0,55,90,0
0,63,90,0
0,42,113,0
0,36,125,0
0,87,123,0
0,89,107,0
0,42,63,88
0,87,93,4
0,86,119,12
0,55,51,60
0,67,91,0
0,63,81,0
0,60,91,0
0,42,120,0
0,37,120,0
0,84,119,12
0,55,62,128
0,42,44,0
0,79,91,4
0,43,107,8
0,31,127,0
0,43,90,0
0,36,75,0
0,41,99,0
0,63,93,0
0,55,80,0
0,58,93,0
0,65,85,0
0,29,127,0
0,58,90,0
0,55,90,0
0,41,90,0
0,36,125,0
0,42,120,0
0,87,110,0
0,89,107,0
0,55,72,104
0,42,77,0
0,58,73,44
0,86,107,4
0,63,77,52
0,41,127,0
0,67,90,0
0,37,120,0
0,42,120,0
0,65,62,0
0,84,99,0
0,67,62,0
0,82,77,0
0,41,76,0
0,70,62,0
0,79,91,0
0,46,119,0
0,58,87,0
0,34,127,0
0,77,119,0
0,46,90,0
0,60,90,0
0,65,90,0
0,62,90,0
0,36,125,0
0,51,91,0
0,53,99,0
0,79,85,0
0,58,93,0
0,82,101,0
0,42,71,0
0,60,91,176
0,62,107,0
0,86,119,0
0,58,90,0
0,42,113,0
0,37,120,0
0,53,91,168
0,65,91,0
0,79,91,0
0,42,26,0
0,53,80,0
0,34,97,0
0,77,99,0
0,60,91,0
0,62,65,0
0,46,110,0
0,57,85,0
0,34,127,0
0,65,90,0
0,60,90,0
0,46,90,0
0,57,90,0
0,36,125,0
0,42,113,0
0,53,76,60
0,57,80,112
0,42,48,0
0,65,85,4
0,43,101,0
0,37,120,0
0,42,120,0
0,53,76,160
0,57,51,60
0,41,80,0
0,42,56,0
0,53,76,16
0,41,78,0
0,41,90,0
0,74,76,0
0,75,60,0
0,65,68,0
0,46,123,0
0,62,85,0
0,34,127,0
0,77,107,0
0,62,90,0
0,65,90,0
0,58,90,0
0,46,90,0
0,42,120,0
0,36,125,0
0,53,85,32
0,79,107,0
0,58,87,0
0,82,87,0
0,42,53,0
0,60,107,0
0,79,99,0
0,53,85,0
0,86,99,0
0,37,120,0
0,42,120,0
0,65,107,176
0,53,85,0
0,79,107,0
0,42,56,0
0,57,85,0
0,34,97,0
0,77,119,0
0,36,52,0
0,46,116,0
0,34,127,0
0,46,90,0
0,60,90,0
0,57,90,0
0,65,90,0
0,36,118,0
0,42,113,0
0,60,99,68
0,53,76,0
0,42,53,0
0,57,72,104
0,65,99,64
0,34,127,0
0,58,90,0
0,62,90,0
0,42,120,0
0,37,120,0
0,53,80,100
0,58,93,12
0,62,99,0
0,38,127,0
0,42,59,0
0,60,99,0
0,48,127,0
0,63,110,0
0,55,99,0
0,36,127,0
0,67,90,0
0,63,90,0
