track,note,velocity,time
3,42,120,572
3,42,0,4
3,42,80,380
3,42,0,4
3,42,80,380
3,42,0,4
3,42,80,380
3,42,0,4
3,42,64,1340
3,42,0,4
3,46,69,188
3,46,0,4
3,42,64,1340
3,42,0,4
3,46,65,188
3,46,0,4
3,42,60,1340
3,42,0,4
3,46,67,188
3,46,0,4
3,35,121,380
3,49,99,0
3,35,0,4
3,49,0,0
3,35,118,188
3,49,100,0
3,35,0,4
3,49,0,0
3,35,98,380
3,49,99,0
3,35,0,4
3,49,0,0
3,42,58,11708
3,42,0,4
3,42,60,188
3,42,0,4
3,42,63,572
3,42,0,4
3,46,72,956
3,46,0,4
3,37,93,188
3,42,65,0
3,37,0,4
3,42,0,0
3,42,65,380
3,42,0,4
3,37,87,380
3,42,58,0
3,37,0,4
3,42,0,0
3,35,120,380
3,42,62,0
3,35,0,4
3,42,0,0
3,37,89,380
3,55,69,0
3,37,0,4
3,55,0,0
3,35,100,188
3,35,0,4
3,35,123,188
3,42,61,0
3,35,0,4
3,42,0,0
3,37,88,380
3,55,62,0
3,37,0,4
3,55,0,0
3,35,95,188
3,35,0,4
3,35,118,188
3,42,59,0
3,35,0,4
3,42,0,0
3,37,94,380
3,55,65,0
3,37,0,4
3,55,0,0
3,35,121,380
3,42,62,0
3,35,0,4
3,42,0,0
3,37,95,380
3,55,64,0
3,37,0,4
3,55,0,0
3,35,95,188
3,35,0,4
3,35,116,188
3,42,66,0
3,35,0,4
3,42,0,0
3,37,93,380
3,55,67,0
3,37,0,4
3,55,0,0
3,35,123,380
3,42,65,0
3,35,0,4
3,42,0,0
3,37,94,380
3,55,65,0
3,37,0,4
3,55,0,0
3,35,114,380
3,42,66,0
3,35,0,4
3,42,0,0
3,35,123,188
3,35,0,4
3,37,96,188
3,55,65,0
3,37,0,4
3,55,0,0
3,35,102,188
3,35,0,4
3,46,67,380
3,46,0,4
3,42,60,92
3,42,0,4
3,37,95,92
3,55,65,0
3,37,0,4
3,55,0,0
3,35,98,188
3,35,0,4
3,35,116,188
3,42,66,0
3,35,0,4
3,42,0,0
3,37,96,380
3,42,58,0
3,55,63,0
3,37,0,4
3,42,0,0
3,55,0,0
3,35,121,380
3,42,60,0
3,35,0,4
3,42,0,0
3,37,94,380
3,42,59,0
3,55,66,0
3,37,0,4
3,42,0,0
3,55,0,0
3,35,121,380
3,42,66,0
3,35,0,4
3,42,0,0
3,37,87,380
3,42,64,0
3,55,71,0
3,37,0,4
3,42,0,0
3,55,0,0
3,35,101,188
3,35,0,4
3,35,121,188
3,42,67,0
3,35,0,4
3,42,0,0
3,35,123,188
3,35,0,4
3,37,91,188
3,42,66,0
3,55,66,0
3,37,0,4
3,42,0,0
3,55,0,0
3,35,100,188
3,35,0,4
3,35,120,188
3,42,62,0
3,35,0,4
3,42,0,0
3,37,90,380
3,42,59,0
3,55,63,0
3,37,0,4
3,42,0,0
3,55,0,0
3,35,102,188
3,35,0,4
3,35,115,188
3,42,61,0
3,35,0,4
3,42,0,0
3,37,96,380
3,42,67,0
3,55,71,0
3,37,0,4
3,42,0,0
3,55,0,0
3,35,121,380
3,51,101,0
3,35,0,4
3,51,0,0
3,45,88,572
3,45,0,4
3,48,89,380
3,48,0,4
3,48,89,188
3,48,0,4
3,35,119,380
3,35,0,4
3,35,101,572
3,35,0,4
3,48,87,380
3,48,0,4
3,48,95,188
3,48,0,4
3,45,90,188
3,45,0,4
3,35,122,188
3,42,66,0
3,35,0,4
3,42,0,0
3,37,96,380
3,55,64,0
3,37,0,4
3,55,0,0
3,35,121,380
3,42,63,0
3,35,0,4
3,42,0,0
3,37,90,380
3,55,71,0
3,37,0,4
3,55,0,0
3,35,103,188
3,35,0,4
3,35,114,188
3,42,67,0
3,35,0,4
3,42,0,0
3,37,94,380
3,55,66,0
3,37,0,4
3,55,0,0
3,35,103,188
3,35,0,4
3,35,121,188
3,42,66,0
3,35,0,4
3,42,0,0
3,37,88,380
3,55,69,0
3,37,0,4
3,55,0,0
3,35,122,380
3,42,62,0
3,35,0,4
3,42,0,0
3,37,93,380
3,55,71,0
3,37,0,4
3,55,0,0
3,35,116,380
3,42,63,0
3,35,0,4
3,42,0,0
3,37,89,380
3,55,63,0
3,37,0,4
3,55,0,0
3,35,117,380
3,42,63,0
3,35,0,4
3,42,0,0
3,37,88,380
3,55,62,0
3,37,0,4
3,55,0,0
3,35,95,188
3,51,97,0
3,35,0,4
3,51,0,0
3,35,122,380
3,35,0,4
3,42,66,92
3,42,0,4
3,37,96,92
3,55,63,0
3,37,0,4
3,55,0,0
3,35,102,188
3,35,0,4
3,35,116,188
3,42,66,0
3,35,0,4
3,42,0,0
3,37,94,380
3,42,65,0
3,55,71,0
3,37,0,4
3,42,0,0
3,55,0,0
3,35,117,380
3,42,58,0
3,35,0,4
3,42,0,0
3,37,95,380
3,42,60,0
3,55,63,0
3,37,0,4
3,42,0,0
3,55,0,0
3,35,95,188
3,35,0,4
3,35,114,188
3,42,65,0
3,35,0,4
3,42,0,0
3,37,96,380
3,42,65,0
3,55,62,0
3,37,0,4
3,42,0,0
3,55,0,0
3,35,98,188
3,35,0,4
3,35,115,188
3,42,64,0
3,35,0,4
3,42,0,0
3,37,92,380
3,42,61,0
3,55,66,0
3,37,0,4
3,42,0,0
3,55,0,0
3,35,121,380
3,42,63,0
3,35,0,4
3,42,0,0
3,35,120,188
3,42,67,0
3,35,0,4
3,42,0,0
3,35,115,572
3,55,67,0
3,35,0,4
3,55,0,0
3,42,66,380
3,42,0,4
3,35,116,380
3,42,61,0
3,35,0,4
3,42,0,0
3,42,62,380
3,42,0,4
3,35,122,380
3,35,0,4
3,42,58,380
3,55,71,0
3,42,0,4
3,55,0,0
3,35,115,380
3,42,59,0
3,35,0,4
3,42,0,0
3,37,96,380
3,55,65,0
3,37,0,4
3,55,0,0
3,35,102,188
3,35,0,4
3,35,116,188
3,42,59,0
3,35,0,4
3,42,0,0
3,37,96,380
3,55,70,0
3,37,0,4
3,55,0,0
3,35,97,188
3,35,0,4
3,35,123,188
3,42,65,0
3,35,0,4
3,42,0,0
3,37,90,380
3,55,71,0
3,37,0,4
3,55,0,0
3,35,115,380
3,42,62,0
3,35,0,4
3,42,0,0
3,37,87,380
3,55,70,0
3,37,0,4
3,55,0,0
3,35,103,188
3,35,0,4
3,35,123,188
3,42,67,0
3,35,0,4
3,42,0,0
3,37,93,380
3,55,63,0
3,37,0,4
3,55,0,0
3,35,116,380
3,42,61,0
3,35,0,4
3,42,0,0
3,37,95,380
3,55,71,0
3,37,0,4
3,55,0,0
3,35,119,380
3,42,58,0
3,35,0,4
3,42,0,0
3,35,121,188
3,35,0,4
3,37,94,188
3,55,63,0
3,37,0,4
3,55,0,0
3,35,98,188
3,35,0,4
3,46,70,380
3,46,0,4
3,42,66,92
3,42,0,4
3,37,92,92
3,55,62,0
3,37,0,4
3,55,0,0
3,35,98,188
3,35,0,4
3,35,117,188
3,42,67,0
3,35,0,4
3,42,0,0
3,37,87,380
3,42,60,0
3,55,71,0
3,37,0,4
3,42,0,0
3,55,0,0
3,35,115,380
3,42,62,0
3,35,0,4
3,42,0,0
3,37,88,380
3,42,67,0
3,55,64,0
3,37,0,4
3,42,0,0
3,55,0,0
3,35,115,380
3,42,66,0
3,35,0,4
3,42,0,0
3,37,93,380
3,42,67,0
3,55,63,0
3,37,0,4
3,42,0,0
3,55,0,0
3,35,100,188
3,35,0,4
3,35,119,188
3,42,60,0
3,35,0,4
3,42,0,0
3,35,121,188
3,35,0,4
3,37,96,188
3,42,61,0
3,55,68,0
3,37,0,4
3,42,0,0
3,55,0,0
3,35,98,188
3,35,0,4
3,35,121,188
3,42,64,0
3,35,0,4
3,42,0,0
3,37,92,380
3,42,67,0
3,55,70,0
3,37,0,4
3,42,0,0
3,55,0,0
3,35,99,188
3,35,0,4
3,35,119,188
3,42,65,0
3,35,0,4
3,42,0,0
3,37,89,380
3,42,63,0
3,55,65,0
3,37,0,4
3,42,0,0
3,55,0,0
3,43,114,1500
3,43,0,4
3,41,123,188
3,41,0,4
3,35,117,220
3,42,67,0
3,35,0,4
3,42,0,0
3,42,60,188
3,42,0,4
3,38,120,188
3,42,61,0
3,38,0,4
3,42,0,0
3,42,63,188
3,42,0,4
3,35,116,188
3,42,61,0
3,35,0,4
3,42,0,0
3,35,117,188
3,42,64,0
3,35,0,4
3,42,0,0
3,38,116,188
3,42,58,0
3,38,0,4
3,42,0,0
3,42,66,188
3,42,0,4
3,35,116,188
3,42,60,0
3,35,0,4
3,42,0,0
3,42,60,188
3,42,0,4
3,38,121,188
3,42,63,0
3,38,0,4
3,42,0,0
3,42,61,188
3,42,0,4
3,35,115,188
3,42,62,0
3,35,0,4
3,42,0,0
3,35,119,188
3,42,61,0
3,35,0,4
3,42,0,0
3,38,119,188
3,42,67,0
3,38,0,4
3,42,0,0
3,42,59,188
3,42,0,4
3,35,122,188
3,42,62,0
3,35,0,4
3,42,0,0
3,42,63,188
3,42,0,4
3,38,119,188
3,42,61,0
3,38,0,4
3,42,0,0
3,42,62,188
3,42,0,4
3,35,115,188
3,42,66,0
3,35,0,4
3,42,0,0
3,35,121,188
3,42,58,0
3,35,0,4
3,42,0,0
3,38,114,188
3,42,63,0
3,38,0,4
3,42,0,0
3,42,58,188
3,42,0,4
3,35,119,188
3,42,66,0
3,35,0,4
3,42,0,0
3,42,65,188
3,42,0,4
3,38,116,188
3,42,64,0
3,38,0,4
3,42,0,0
3,42,64,188
3,42,0,4
3,35,121,188
3,42,60,0
3,35,0,4
3,42,0,0
3,35,123,188
3,42,59,0
3,35,0,4
3,42,0,0
3,38,123,188
3,42,59,0
3,38,0,4
3,42,0,0
3,46,71,92
3,46,0,4
3,42,66,92
3,42,0,4
3,35,117,188
3,42,58,0
3,35,0,4
3,42,0,0
3,42,58,188
3,42,0,4
3,38,118,188
3,42,58,0
3,38,0,4
3,42,0,0
3,42,59,188
3,42,0,4
3,35,120,188
3,42,67,0
3,35,0,4
3,42,0,0
3,35,123,188
3,42,62,0
3,35,0,4
3,42,0,0
3,38,121,188
3,42,66,0
3,38,0,4
3,42,0,0
3,42,65,188
3,42,0,4
3,35,123,188
3,42,67,0
3,35,0,4
3,42,0,0
3,42,64,188
3,42,0,4
3,38,120,188
3,42,65,0
3,38,0,4
3,42,0,0
3,42,63,188
3,42,0,4
3,35,120,188
3,42,60,0
3,35,0,4
3,42,0,0
3,35,123,188
3,42,58,0
3,35,0,4
3,42,0,0
3,38,122,188
3,42,58,0
3,38,0,4
3,42,0,0
3,42,61,188
3,42,0,4
3,35,123,188
3,49,97,0
3,35,0,4
3,49,0,0
3,35,122,380
3,49,102,0
3,35,0,4
3,49,0,0
3,35,116,380
3,49,103,0
3,35,0,4
3,49,0,0
3,35,119,380
3,49,101,0
3,35,0,4
3,49,0,0
3,35,117,380
3,35,0,4
3,35,116,380
3,35,0,4
3,35,117,380
3,35,0,4
3,48,94,188
3,48,0,4
3,47,117,188
3,47,0,4
3,45,87,188
3,45,0,4
3,35,122,188
3,42,65,0
3,35,0,4
3,42,0,0
3,42,58,188
3,42,0,4
3,38,102,188
3,42,63,0
3,55,65,0
3,38,0,4
3,42,0,0
3,55,0,0
3,35,104,188
3,46,71,0
3,35,0,4
3,46,0,0
3,35,114,188
3,42,59,0
3,35,0,4
3,42,0,0
3,42,61,188
3,42,0,4
3,38,103,188
3,46,70,0
3,38,0,4
3,46,0,0
3,42,63,188
3,42,0,4
3,35,123,188
3,42,65,0
3,35,0,4
3,42,0,0
3,42,62,188
3,42,0,4
3,38,97,188
3,42,63,0
3,55,70,0
3,38,0,4
3,42,0,0
3,55,0,0
3,35,101,188
3,46,63,0
3,35,0,4
3,46,0,0
3,35,119,188
3,42,58,0
3,35,0,4
3,42,0,0
3,42,60,188
3,42,0,4
3,38,98,188
3,46,64,0
3,38,0,4
3,46,0,0
3,42,63,188
3,42,0,4
3,35,121,188
3,42,65,0
3,35,0,4
3,42,0,0
3,42,59,188
3,42,0,4
3,38,103,188
3,42,61,0
3,55,70,0
3,38,0,4
3,42,0,0
3,55,0,0
3,35,96,188
3,46,67,0
3,35,0,4
3,46,0,0
3,35,117,188
3,42,58,0
3,35,0,4
3,42,0,0
3,42,61,188
3,42,0,4
3,38,98,188
3,46,70,0
3,38,0,4
3,46,0,0
3,42,60,188
3,42,0,4
3,35,119,188
3,42,59,0
3,35,0,4
3,42,0,0
3,45,90,284
3,45,0,4
3,38,101,92
3,38,0,4
3,35,98,188
3,35,0,4
3,35,122,380
3,35,0,4
3,38,97,188
3,38,0,4
3,45,86,92
3,45,0,4
3,35,119,284
3,42,64,0
3,35,0,4
3,42,0,0
3,42,61,188
3,42,0,4
3,38,95,188
3,42,65,0
3,55,64,0
3,38,0,4
3,42,0,0
3,55,0,0
3,35,100,188
3,46,72,0
3,35,0,4
3,46,0,0
3,35,119,188
3,42,64,0
3,35,0,4
3,42,0,0
3,42,58,188
3,42,0,4
3,38,101,188
3,46,71,0
3,38,0,4
3,46,0,0
3,42,66,188
3,42,0,4
3,35,116,188
3,42,59,0
3,35,0,4
3,42,0,0
3,42,66,188
3,42,0,4
3,35,117,92
3,35,0,4
3,38,95,92
3,42,62,0
3,55,63,0
3,38,0,4
3,42,0,0
3,55,0,0
3,35,104,188
3,46,71,0
3,55,68,0
3,35,0,4
3,46,0,0
3,55,0,0
3,42,67,188
3,42,0,4
3,38,94,188
3,42,61,0
3,38,0,4
3,42,0,0
3,45,90,188
3,46,67,0
3,45,0,4
3,46,0,0
3,47,115,92
3,47,0,4
3,42,61,92
3,45,84,0
3,42,0,4
3,45,0,0
3,45,87,92
3,45,0,4
3,35,119,92
3,42,65,0
3,35,0,4
3,42,0,0
3,42,63,188
3,42,0,4
3,38,103,188
3,42,60,0
3,55,62,0
3,38,0,4
3,42,0,0
3,55,0,0
3,35,103,188
3,46,63,0
3,35,0,4
3,46,0,0
3,35,115,188
3,42,62,0
3,35,0,4
3,42,0,0
3,42,59,188
3,42,0,4
3,38,95,188
3,46,69,0
3,38,0,4
3,46,0,0
3,45,87,92
3,45,0,4
3,42,63,92
3,47,115,0
3,42,0,4
3,47,0,0
3,47,114,92
3,47,0,4
3,35,114,92
3,42,63,0
3,35,0,4
3,42,0,0
3,42,66,188
3,42,0,4
3,38,98,188
3,42,65,0
3,55,66,0
3,38,0,4
3,42,0,0
3,55,0,0
3,35,102,188
3,46,71,0
3,35,0,4
3,46,0,0
3,35,118,188
3,42,64,0
3,35,0,4
3,42,0,0
3,42,63,188
3,45,90,0
3,42,0,4
3,45,0,0
3,49,97,60
3,49,0,4
3,47,114,28
3,49,98,0
3,47,0,4
3,49,0,0
3,49,98,28
3,49,0,4
3,49,103,28
3,49,0,4
3,38,100,28
3,46,67,0
3,49,100,0
3,38,0,4
3,46,0,0
3,49,0,0
3,45,88,92
3,45,0,4
3,38,96,92
3,42,60,0
3,38,0,4
3,42,0,0
3,35,123,188
3,42,63,0
3,35,0,4
3,42,0,0
3,42,64,188
3,42,0,4
3,38,99,188
3,42,63,0
3,55,65,0
3,38,0,4
3,42,0,0
3,55,0,0
3,35,101,188
3,46,65,0
3,35,0,4
3,46,0,0
3,35,115,188
3,42,65,0
3,35,0,4
3,42,0,0
3,42,60,188
3,42,0,4
3,38,102,188
3,46,71,0
3,38,0,4
3,46,0,0
3,42,61,188
3,42,0,4
3,35,114,188
3,42,61,0
3,35,0,4
3,42,0,0
3,42,64,188
3,42,0,4
3,38,101,188
3,42,64,0
3,55,67,0
3,38,0,4
3,42,0,0
3,55,0,0
3,35,99,188
3,46,72,0
3,35,0,4
3,46,0,0
3,35,119,188
3,42,61,0
3,35,0,4
3,42,0,0
3,42,58,188
3,42,0,4
3,38,100,188
3,46,66,0
3,38,0,4
3,46,0,0
3,42,63,188
3,42,0,4
3,35,115,188
3,42,67,0
3,35,0,4
3,42,0,0
3,42,63,188
3,42,0,4
