track,note,velocity,time
0,43,66,0
0,53,59,0
0,58,70,0
0,62,110,0
0,35,90,0
0,56,90,0
0,51,90,0
0,49,100,0
0,65,115,0
0,70,100,0
0,69,100,0
0,43,105,4
0,69,0,0
0,65,0,0
0,56,0,0
0,51,0,0
0,35,0,0
0,70,0,0
0,49,0,0
0,42,60,30
0,70,50,0
0,69,40,0
0,43,0,15
0,69,0,15
0,70,0,0
0,42,0,0
0,43,108,5
0,56,90,25
0,51,90,0
0,70,70,0
0,69,50,0
0,69,0,20
0,56,0,0
0,51,0,0
0,70,0,0
0,35,70,30
0,42,60,0
0,70,50,0
0,69,80,0
0,43,0,15
0,38,93,5
0,69,0,10
0,35,0,0
0,42,0,0
0,70,0,0
0,35,90,30
0,56,90,0
0,51,90,0
0,70,100,0
0,69,100,0
0,69,0,30
0,51,0,0
0,35,0,0
0,56,0,0
0,70,0,0
0,42,60,5
0,70,50,0
0,69,40,0
0,38,0,2
0,43,108,3
0,69,0,20
0,70,0,0
0,42,0,0
0,62,0,30
0,43,0,0
0,53,0,0
0,58,0,0
0,51,90,0
0,70,70,0
0,69,50,0
0,69,0,5
0,70,0,0
0,51,0,0
0,42,96,22
0,43,0,3
0,42,61,0
0,57,53,0
0,61,98,0
0,35,70,0
0,42,60,0
0,56,100,0
0,70,50,0
0,69,80,0
0,69,0,0
0,56,0,0
0,35,0,0
0,42,0,0
0,70,0,0
0,61,0,15
0,42,0,10
0,41,102,2
0,51,87,3
0,53,78,0
0,55,87,0
0,58,87,0
0,60,87,0
0,35,90,0
0,51,90,0
0,70,100,0
0,69,100,0
0,57,0,3
0,42,0,0
0,69,0,7
0,35,0,0
0,51,0,0
0,70,0,0
0,42,60,15
0,70,50,0
0,69,40,0
0,69,0,25
0,70,0,0
0,42,0,0
0,41,0,5
0,41,87,10
0,51,90,10
0,70,70,0
0,69,50,0
0,69,0,30
0,70,0,0
0,51,0,0
0,41,0,20
0,35,70,0
0,42,60,0
0,70,50,0
0,69,80,0
0,36,102,5
0,69,0,5
0,35,0,0
0,42,0,0
0,70,0,0
0,35,90,5
0,51,90,0
0,70,100,0
0,69,100,0
0,69,0,5
0,35,0,0
0,51,0,0
0,70,0,0
0,36,0,5
0,42,60,0
0,70,50,0
0,69,40,0
0,41,102,5
0,69,0,10
0,70,0,0
0,42,0,0
0,51,0,20
0,55,0,0
0,53,0,0
0,60,0,0
0,58,0,0
0,51,90,0
0,70,70,0
0,69,50,0
0,69,0,5
0,70,0,0
0,51,0,0
0,41,0,2
0,42,108,13
0,52,91,5
0,57,91,0
0,68,91,0
0,61,91,0
0,35,70,0
0,42,60,0
0,70,50,0
0,69,80,0
0,69,0,10
0,35,0,0
0,42,0,0
0,70,0,0
0,42,0,5
0,61,0,0
0,52,0,0
0,57,0,0
0,68,0,0
0,43,66,0
0,53,59,0
0,58,70,0
0,62,110,0
0,35,90,0
0,38,90,0
0,51,90,0
0,70,100,0
0,69,100,0
0,43,108,5
0,69,0,10
0,51,0,0
0,35,0,0
0,38,0,0
0,70,0,0
0,42,60,0
0,70,50,0
0,69,40,0
0,43,0,2
0,69,0,3
0,70,0,0
0,42,0,0
0,43,108,20
0,38,90,5
0,51,90,0
0,70,70,0
0,69,50,0
0,69,0,0
0,38,0,0
0,51,0,0
0,70,0,0
0,43,0,5
0,35,70,0
0,42,60,0
0,70,50,0
0,69,80,0
0,38,102,10
0,69,0,0
0,35,0,0
0,42,0,0
0,70,0,0
0,35,90,30
0,51,90,0
0,70,100,0
0,69,100,0
0,69,0,5
0,35,0,0
0,51,0,0
0,70,0,0
0,65,30,0
0,38,0,12
0,65,0,0
0,42,60,0
0,65,100,0
0,70,50,0
0,69,40,0
0,43,102,5
0,41,99,5
0,69,0,15
0,42,0,0
0,65,0,0
0,70,0,0
0,41,0,5
0,62,0,5
0,43,0,0
0,53,0,0
0,58,0,0
0,51,90,0
0,70,70,0
0,69,50,0
0,69,0,0
0,70,0,0
0,51,0,0
0,42,105,22
0,43,0,3
0,42,61,0
0,57,53,0
0,61,98,0
0,35,70,0
0,38,100,0
0,42,60,0
0,65,100,0
0,70,50,0
0,69,80,0
0,69,0,0
0,38,0,0
0,42,0,0
0,35,0,0
0,70,0,0
0,65,0,0
0,61,0,10
0,42,0,7
0,60,91,8
0,51,91,0
0,67,91,0
0,35,90,0
0,51,90,0
0,62,90,0
0,69,100,0
0,41,102,2
0,57,0,0
0,42,0,0
0,69,0,7
0,35,0,0
0,51,0,0
0,62,0,0
0,42,60,20
0,62,70,0
0,69,40,0
0,69,0,5
0,62,0,0
0,42,0,0
0,41,0,10
0,51,0,5
0,60,0,0
0,67,0,0
0,42,117,7
0,57,91,3
0,61,91,0
0,64,91,0
0,56,90,0
0,51,90,0
0,62,90,0
0,69,50,0
0,69,0,5
0,56,0,0
0,51,0,0
0,62,0,0
0,65,40,0
0,42,0,5
0,43,78,5
0,58,87,0
0,62,87,0
0,65,87,0
0,70,87,0
0,65,0,0
0,35,70,0
0,42,60,0
0,62,70,0
0,65,90,0
0,69,80,0
0,43,117,5
0,69,0,0
0,62,0,0
0,35,0,0
0,42,0,0
0,65,0,0
0,64,0,20
0,57,0,0
0,61,0,0
0,43,0,25
0,67,102,0
0,67,0,8
0,70,108,0
0,70,0,3
0,72,108,0
0,62,0,0
0,58,0,0
0,70,0,0
0,65,0,0
0,43,0,0
0,72,0,7
0,75,99,0
0,41,105,0
0,53,66,0
0,63,59,0
0,72,110,0
0,35,90,0
0,56,90,0
0,51,90,0
0,49,100,0
0,62,90,0
0,65,115,0
0,69,100,0
0,72,0,5
0,69,0,0
0,62,0,0
0,56,0,0
0,51,0,0
0,35,0,0
0,65,0,0
0,49,0,0
0,42,60,30
0,63,80,0
0,69,40,0
0,72,100,5
0,69,0,25
0,63,0,0
0,42,0,0
0,41,0,10
0,75,0,4
0,72,0,10
0,68,108,0
0,53,80,0
0,56,90,0
0,51,90,0
0,62,90,0
0,69,50,0
0,68,70,7
0,69,0,13
0,56,0,0
0,51,0,0
0,62,0,0
0,53,0,5
0,48,107,5
0,35,70,0
0,42,60,0
0,63,80,0
0,69,80,0
0,68,0,3
0,68,0,4
0,69,0,13
0,35,0,0
0,42,0,0
0,63,0,0
0,63,0,1
0,53,0,7
0,48,0,11
0,34,105,11
0,46,66,0
0,56,59,0
0,65,110,0
0,35,90,0
0,56,90,0
0,51,90,0
0,62,90,0
0,69,100,0
0,65,0,30
0,69,0,0
0,51,0,0
0,35,0,0
0,56,0,0
0,62,0,0
0,42,60,0
0,63,80,0
0,69,40,0
0,75,127,0
0,65,100,1
0,69,0,10
0,63,0,0
0,42,0,0
0,34,0,10
0,75,0,6
0,65,0,8
0,46,80,6
0,51,90,0
0,63,80,0
0,69,50,0
0,74,99,0
0,63,70,5
0,69,0,23
0,63,0,0
0,51,0,0
0,74,0,2
0,46,0,18
0,72,105,0
0,41,107,2
0,35,70,0
0,42,60,0
0,56,100,0
0,62,100,0
0,69,80,0
0,63,0,8
0,69,0,7
0,56,0,0
0,35,0,0
0,42,0,0
0,62,0,0
0,56,0,1
0,72,0,3
0,46,0,4
0,41,0,11
0,74,105,0
0,39,100,0
0,62,68,0
0,67,76,0
0,63,74,0
0,58,78,0
0,35,90,0
0,51,90,0
0,63,70,0
0,69,100,0
0,63,0,25
0,69,0,0
0,35,0,0
0,51,0,0
0,63,0,0
0,58,0,3
0,62,0,0
0,67,0,1
0,70,100,0
0,82,100,0
0,42,60,0
0,56,100,0
0,62,90,0
0,69,40,0
0,74,0,28
0,69,0,0
0,42,0,0
0,56,0,0
0,62,0,0
0,70,0,1
0,82,0,1
0,67,102,0
0,51,90,18
0,63,70,0
0,69,50,0
0,69,0,30
0,63,0,0
0,51,0,0
0,67,0,12
0,39,0,0
0,48,91,18
0,67,85,0
0,62,87,0
0,63,82,0
0,58,87,0
0,35,70,0
0,42,60,0
0,56,90,0
0,62,90,0
0,69,80,0
0,69,0,30
0,56,0,0
0,35,0,0
0,42,0,0
0,62,0,0
0,63,0,4
0,58,0,5
0,62,0,0
0,67,0,2
0,48,0,5
0,46,100,14
0,35,90,0
0,56,100,0
0,51,90,0
0,62,90,0
0,69,100,0
0,69,0,30
0,51,0,0
0,35,0,0
0,56,0,0
0,62,0,0
0,67,117,0
0,70,95,2
0,82,102,0
0,42,60,0
0,63,70,0
0,69,40,0
0,69,0,30
0,63,0,0
0,42,0,0
0,46,0,1
0,67,0,11
0,70,0,4
0,82,0,10
0,70,105,0
0,34,95,2
0,56,100,0
0,51,90,0
0,62,90,0
0,69,50,0
0,69,0,30
0,56,0,0
0,51,0,0
0,62,0,0
0,70,0,4
0,72,105,0
0,62,82,4
0,67,89,0
0,58,89,0
0,63,80,0
0,35,70,0
0,42,60,0
0,63,70,0
0,69,80,0
0,34,0,15
0,63,0,3
0,72,0,6
0,58,0,0
0,69,0,6
0,35,0,0
0,42,0,0
0,63,0,0
0,62,0,5
0,67,0,1
0,74,108,0
0,33,98,4
0,45,66,0
0,55,59,0
0,63,110,0
0,35,90,0
0,38,90,0
0,51,90,0
0,62,90,0
0,69,100,0
0,63,0,30
0,69,0,0
0,51,0,0
0,35,0,0
0,38,0,0
0,62,0,0
0,74,0,12
0,75,102,0
0,42,60,8
0,63,80,0
0,69,40,0
0,63,100,5
0,69,0,25
0,63,0,0
0,42,0,0
0,75,0,8
0,63,0,16
0,74,117,0
0,38,90,2
0,51,90,0
0,62,90,0
0,69,50,0
0,60,70,7
0,69,0,23
0,38,0,0
0,51,0,0
0,62,0,0
0,74,0,16
0,75,93,0
0,35,70,2
0,42,60,0
0,63,80,0
0,69,80,0
0,60,0,8
0,33,0,6
0,75,0,6
0,74,102,0
0,69,0,2
0,35,0,0
0,42,0,0
0,63,0,0
0,55,0,1
0,45,0,7
0,38,105,22
0,50,66,0
0,60,59,0
0,69,110,0
0,35,90,0
0,51,90,0
0,62,90,0
0,69,100,0
0,69,0,30
0,69,0,0
0,35,0,0
0,51,0,0
0,62,0,0
0,38,90,30
0,42,60,0
0,63,80,0
0,69,40,0
0,69,100,5
0,69,0,25
0,38,0,0
0,42,0,0
0,63,0,0
0,74,0,4
0,38,0,6
0,70,102,0
0,69,0,4
0,50,80,6
0,51,90,0
0,63,80,0
0,69,50,0
0,66,70,7
0,69,0,23
0,63,0,0
0,51,0,0
0,70,0,8
0,50,0,12
0,66,105,0
0,45,107,6
0,35,70,0
0,38,100,0
0,42,60,0
0,62,100,0
0,69,80,0
0,66,0,8
0,69,0,22
0,42,0,0
0,35,0,0
0,38,0,0
0,62,0,0
0,60,0,1
0,50,0,7
0,66,0,8
0,45,0,3
0,69,105,0
0,55,105,4
0,54,91,0
0,69,91,0
0,58,91,0
0,62,91,0
0,35,90,0
0,51,90,0
0,62,90,0
0,69,100,0
0,69,0,24
0,69,0,6
0,35,0,0
0,51,0,0
0,62,0,0
0,42,60,30
0,62,70,0
0,69,40,0
0,69,102,0
0,69,0,26
0,69,0,0
0,62,0,0
0,42,0,0
0,55,0,14
0,62,0,6
0,54,0,0
0,69,0,0
0,58,0,0
0,69,102,0
0,55,105,4
0,53,91,0
0,67,91,0
0,58,91,0
0,62,91,0
0,56,90,0
0,51,90,0
0,62,90,0
0,69,50,0
0,69,0,30
0,56,0,0
0,51,0,0
0,62,0,0
0,65,40,0
0,69,0,18
0,65,0,12
0,35,70,0
0,42,60,0
0,62,70,0
0,65,90,0
0,69,80,0
0,67,84,0
0,67,0,20
0,69,102,0
0,69,0,4
0,62,0,0
0,35,0,0
0,42,0,0
0,65,0,0
0,55,0,14
0,62,0,6
0,53,0,0
0,67,0,0
0,58,0,0
0,43,105,10
0,58,58,0
0,65,102,0
0,43,66,0
0,35,90,0
0,51,90,0
0,62,90,0
0,65,90,0
0,69,100,0
0,69,0,30
0,62,0,0
0,35,0,0
0,51,0,0
0,65,0,0
0,45,20,0
0,65,30,0
0,69,0,14
0,65,0,8
0,67,127,0
0,65,0,4
0,45,0,0
0,42,60,0
0,56,90,0
0,45,90,0
0,62,70,0
0,65,100,0
0,69,40,0
0,43,0,5
0,58,0,0
0,67,0,25
0,69,0,0
0,56,0,0
0,45,0,0
0,42,0,0
0,65,0,0
0,62,0,0
0,43,0,10
0,70,96,0
0,55,80,6
0,43,61,0
0,58,53,0
0,51,90,0
0,45,115,0
0,62,90,0
0,69,50,0
0,62,98,9
0,70,0,21
0,69,0,0
0,51,0,0
0,45,0,0
0,62,0,0
0,65,30,0
0,55,0,20
0,72,105,0
0,62,0,2
0,50,107,6
0,65,0,0
0,35,70,0
0,42,60,0
0,45,100,0
0,62,70,0
0,65,100,0
0,69,80,0
0,58,0,8
0,43,0,0
0,72,0,8
0,69,0,14
0,42,0,0
0,45,0,0
0,35,0,0
0,65,0,0
0,62,0,0
0,50,0,19
0,75,102,0
0,73,51,6
0,41,107,0
0,68,58,0
0,75,102,0
0,53,66,0
0,35,90,0
0,56,90,0
0,51,90,0
0,49,100,0
0,62,90,0
0,65,115,0
0,69,100,0
0,73,0,6
0,69,0,24
0,62,0,0
0,56,0,0
0,51,0,0
0,35,0,0
0,65,0,0
0,49,0,0
0,75,0,22
0,42,60,8
0,63,80,0
0,69,40,0
0,53,0,5
0,68,0,0
0,75,0,9
0,69,0,16
0,63,0,0
0,42,0,0
0,68,108,0
0,53,61,16
0,68,53,0
0,56,90,0
0,51,90,0
0,62,90,0
0,69,50,0
0,72,98,9
0,69,0,21
0,56,0,0
0,51,0,0
0,62,0,0
0,68,0,2
0,41,0,18
0,72,0,4
0,35,105,6
0,35,70,0
0,42,60,0
0,63,80,0
0,69,80,0
0,68,0,8
0,53,0,0
0,69,0,22
0,35,0,0
0,42,0,0
0,63,0,0
0,35,0,18
0,34,105,12
0,46,66,0
0,56,59,0
0,65,110,0
0,35,90,0
0,56,90,0
0,51,90,0
0,62,90,0
0,69,100,0
0,65,0,30
0,69,0,0
0,51,0,0
0,35,0,0
0,56,0,0
0,62,0,0
0,75,108,0
0,42,60,0
0,63,80,0
0,69,40,0
0,65,100,5
0,69,0,25
0,63,0,0
0,42,0,0
0,34,0,10
0,75,0,2
0,74,102,0
0,65,0,0
0,46,80,6
0,51,90,0
0,63,80,0
0,69,50,0
0,63,70,7
0,74,0,15
0,69,0,8
0,63,0,0
0,51,0,0
0,72,105,0
0,46,0,0
0,41,107,10
0,35,70,0
0,42,60,0
0,56,100,0
0,62,100,0
0,69,80,0
0,63,0,8
0,72,0,16
0,69,0,6
0,56,0,0
0,35,0,0
0,42,0,0
0,62,0,0
0,56,0,1
0,46,0,7
0,41,0,11
0,74,102,0
0,39,91,8
0,62,85,0
0,65,85,0
0,55,85,0
0,70,85,0
0,51,82,0
0,35,90,0
0,51,90,0
0,63,70,0
0,69,100,0
0,69,0,30
0,35,0,0
0,51,0,0
0,63,0,0
0,42,60,30
0,56,100,0
0,62,90,0
0,69,40,0
0,74,0,12
0,67,102,0
0,69,0,4
0,42,0,0
0,56,0,0
0,62,0,0
0,51,90,30
0,63,70,0
0,69,50,0
0,69,0,30
0,63,0,0
0,51,0,0
0,67,0,6
0,35,70,24
0,42,60,0
0,56,90,0
0,62,90,0
0,69,80,0
0,69,0,30
0,56,0,0
0,35,0,0
0,42,0,0
0,62,0,0
0,39,0,30
0,46,98,0
0,35,90,0
0,56,100,0
0,51,90,0
0,62,90,0
0,69,100,0
0,69,0,30
0,51,0,0
0,35,0,0
0,56,0,0
0,62,0,0
0,42,60,30
0,63,70,0
0,69,40,0
0,67,117,0
0,69,0,26
0,63,0,0
0,42,0,0
0,67,0,16
0,70,96,0
0,56,100,4
0,51,90,0
0,62,90,0
0,69,50,0
0,51,0,4
0,55,0,10
0,62,0,0
0,65,0,0
0,70,0,0
0,69,0,16
0,56,0,0
0,51,0,0
0,62,0,0
0,70,0,4
0,72,105,0
0,35,70,2
0,42,60,0
0,63,70,0
0,69,80,0
0,72,0,28
0,46,0,1
