track,note,velocity,time
0,46,82,23
0,46,0,88
0,53,77,8
0,53,0,90
0,60,85,6
0,60,0,65
0,60,93,31
0,53,81,96
0,60,0,89
0,62,87,7
0,53,0,10
0,58,98,86
0,62,0,0
0,46,64,96
0,58,0,13
0,46,0,32
0,46,80,51
0,60,97,0
0,65,95,0
0,53,82,96
0,46,0,51
0,65,0,25
0,58,92,20
0,60,0,3
0,53,0,50
0,60,95,43
0,58,0,6
0,53,81,90
0,62,87,96
0,60,0,2
0,53,0,22
0,46,74,72
0,58,90,0
0,62,0,2
0,46,0,87
0,53,70,7
0,58,0,12
0,53,0,81
0,46,78,3
0,57,95,0
0,46,0,92
0,53,75,4
0,62,97,96
0,57,0,2
0,53,0,22
0,62,0,33
0,62,99,39
0,53,79,96
0,62,0,85
0,60,94,11
0,53,0,43
0,57,95,149
0,60,0,2
0,46,78,94
0,46,0,92
0,53,67,4
0,57,0,88
0,62,88,8
0,53,0,20
0,62,0,35
0,62,102,41
0,53,73,96
0,62,0,96
0,63,88,0
0,53,0,61
0,63,0,32
0,65,99,3
0,46,73,96
0,65,0,65
0,46,0,11
0,39,62,20
0,65,107,0
0,39,0,86
0,46,84,10
0,65,0,31
0,46,0,48
0,55,82,17
0,55,0,157
0,67,106,35
0,67,0,178
0,62,102,14
0,51,64,192
0,58,62,96
0,58,0,29
0,51,0,46
0,62,0,17
0,62,80,1
0,62,0,1
0,70,84,2
0,70,0,52
0,62,95,41
0,70,98,3
0,58,64,96
0,58,0,26
0,62,0,60
0,63,84,7
0,70,0,2
0,72,95,1
0,65,94,93
0,72,0,2
0,74,94,1
0,63,0,1
0,65,0,129
0,74,0,9
0,65,92,50
0,41,80,3
0,74,99,0
0,41,0,90
0,53,75,6
0,75,84,96
0,65,0,2
0,74,0,0
0,53,0,1
0,63,90,186
0,53,68,3
0,75,0,0
0,58,68,192
0,63,0,21
0,63,74,75
0,58,0,2
0,53,0,10
0,63,0,81
0,41,66,3
0,67,84,0
0,41,0,88
0,53,53,8
0,67,0,0
0,58,50,96
0,53,0,41
0,60,74,55
0,58,0,12
0,53,61,84
0,60,0,92
0,63,67,4
0,41,54,96
0,63,0,3
0,53,0,5
0,41,0,115
0,46,67,69
0,53,101,0
0,53,75,0
0,58,80,0
0,60,78,0
0,65,83,0
0,58,0,40
0,65,0,2
0,60,0,3
0,55,88,3
0,53,0,2
0,53,0,6
0,55,0,81
0,58,95,7
0,46,0,12
0,55,61,84
0,58,0,1
0,55,0,42
0,53,73,8
0,58,80,0
0,60,81,0
0,62,96,0
0,65,84,0
0,58,0,46
0,65,0,7
0,60,0,1
0,53,0,5
0,53,88,10
0,62,0,3
0,53,0,52
0,53,98,41
0,46,58,7
0,53,72,0
0,57,76,0
0,60,79,0
0,65,80,0
0,53,0,4
0,65,0,2
0,53,67,0
0,57,0,1
0,60,0,1
0,53,0,77
0,57,72,17
0,46,0,5
0,57,0,87
0,60,99,4
0,53,0,8
0,53,81,80
0,60,0,7
0,57,78,42
0,53,0,6
0,65,95,90
0,57,0,1
0,65,0,93
0,53,71,2
0,53,0,38
0,46,64,1
0,53,98,0
0,53,72,0
0,58,78,0
0,60,80,0
0,65,84,0
0,53,0,28
0,55,86,0
0,46,0,2
0,58,0,1
0,60,0,4
0,65,0,1
0,53,0,7
0,55,0,16
0,58,104,65
0,58,0,89
0,55,74,7
0,55,0,4
0,53,75,1
0,58,78,0
0,62,96,0
0,62,86,0
0,65,81,0
0,62,0,49
0,58,0,5
0,65,0,1
0,53,0,6
0,62,0,5
0,53,83,7
0,53,0,59
0,53,93,37
0,46,64,9
0,53,79,0
0,57,79,0
0,60,79,0
0,65,79,0
0,53,0,40
0,57,0,0
0,60,0,0
0,65,0,0
0,53,89,0
0,46,0,39
0,57,95,57
0,53,0,20
0,53,0,10
0,57,0,54
0,60,95,0
0,58,96,96
0,60,0,5
0,60,102,91
0,58,0,15
0,62,97,81
0,60,0,8
0,53,97,88
0,62,0,1
0,53,0,69
0,48,73,2
0,60,97,0
0,63,92,0
0,67,97,0
0,63,100,4
0,63,0,75
0,63,0,5
0,62,98,6
0,67,0,2
0,60,0,22
0,62,0,42
0,62,98,46
0,60,84,64
0,62,0,9
0,60,0,31
0,60,98,5
0,60,90,11
0,63,90,0
0,67,94,0
0,63,0,34
0,67,0,3
0,60,0,8
0,48,0,3
0,60,0,10
0,48,68,15
0,55,93,78
0,55,0,1
0,48,0,3
0,63,99,1
0,46,63,7
0,58,101,0
0,63,92,0
0,67,102,0
0,63,0,54
0,58,0,25
0,63,100,3
0,67,0,0
0,63,0,2
0,63,0,106
0,62,101,6
0,58,64,15
0,58,0,37
0,62,97,7
0,67,95,0
0,62,0,14
0,60,91,14
0,62,0,53
0,63,86,3
0,46,0,16
0,63,0,41
0,46,66,4
0,58,84,0
0,60,0,1
0,67,0,26
0,58,0,17
0,55,99,48
0,55,0,41
0,46,0,7
0,63,100,0
0,44,67,2
0,56,82,0
0,60,92,0
0,63,90,0
0,67,95,0
0,63,0,72
0,62,96,17
0,63,0,17
0,56,0,11
0,67,0,0
0,60,0,9
0,62,0,22
0,62,101,52
0,60,88,52
0,62,0,8
0,60,0,28
0,60,91,36
0,56,86,6
0,60,87,0
0,63,88,0
0,67,97,0
0,63,0,122
0,56,0,2
0,67,0,0
0,60,0,3
0,60,0,53
0,55,91,39
0,55,0,30
0,44,0,28
0,63,96,3
0,41,79,1
0,58,86,0
0,63,86,0
0,67,95,0
0,71,85,2
0,63,0,39
0,65,91,7
0,58,0,92
0,63,0,7
0,67,0,1
0,60,91,54
0,65,0,2
0,60,0,18
0,62,76,9
0,62,0,22
0,60,93,2
0,71,0,16
0,71,112,1
0,57,71,0
0,65,78,0
0,71,0,30
0,65,0,16
0,57,0,5
0,53,81,12
0,58,93,1
0,60,0,2
0,58,0,88
0,53,96,7
0,53,0,92
0,41,0,2
0,46,67,0
0,46,65,0
0,53,74,0
0,60,72,0
0,62,72,0
0,53,0,11
0,55,88,2
0,62,0,54
0,60,0,1
0,53,0,12
0,55,0,22
0,58,95,7
0,46,0,12
0,55,61,84
0,58,0,1
0,55,0,42
0,57,70,8
0,62,96,0
0,57,0,73
0,53,88,10
0,62,0,3
0,53,0,52
0,53,98,41
0,46,0,5
0,46,58,2
0,57,78,0
0,60,78,0
0,53,78,0
0,57,0,0
0,60,0,11
0,57,78,85
0,46,0,5
0,53,0,10
0,60,83,81
0,57,0,2
0,53,0,6
0,55,83,80
0,62,83,63
0,60,0,1
0,55,0,93
0,53,83,2
0,65,88,0
0,62,0,18
0,65,0,10
0,53,0,0
0,46,64,2
0,46,67,0
0,53,98,0
0,53,77,0
0,60,79,0
0,62,79,0
0,53,0,21
0,55,86,0
0,46,0,2
0,55,0,29
0,62,0,26
0,60,0,8
0,53,0,18
0,58,104,13
0,58,0,89
0,55,74,7
0,55,0,4
0,53,75,1
0,60,77,0
0,62,96,0
0,62,82,0
0,62,0,12
0,60,0,9
0,53,0,2
0,62,0,3
0,53,83,7
0,53,0,59
0,53,93,37
0,46,0,3
0,46,64,2
0,57,79,0
0,60,74,0
0,53,63,0
0,57,0,10
0,60,0,0
0,46,0,29
0,46,83,57
0,57,77,0
0,53,0,9
0,53,0,10
0,60,90,54
0,57,0,3
0,46,0,68
0,50,83,25
0,62,77,96
0,60,0,11
0,50,0,60
0,62,0,24
0,53,83,1
0,65,93,0
0,65,0,161
0,53,0,6
0,48,73,2
0,48,83,0
0,55,82,0
0,60,87,0
0,63,82,0
0,67,87,0
0,63,100,4
0,63,0,75
0,63,0,5
0,62,98,6
0,67,0,2
0,60,0,22
0,62,0,42
0,62,98,46
0,60,84,64
0,62,0,9
0,60,0,31
0,60,98,5
0,60,80,11
0,63,80,0
0,67,84,0
0,63,0,32
0,67,0,3
0,60,0,8
0,48,0,3
0,60,0,10
0,48,68,15
0,55,93,78
0,55,0,92
0,55,0,1
0,48,0,3
0,63,99,1
0,48,0,10
0,46,63,2
0,46,82,0
0,58,82,0
0,58,91,0
0,63,82,0
0,67,92,0
0,63,0,54
0,58,0,25
0,63,100,3
0,67,0,0
0,63,0,2
0,63,0,106
0,62,101,6
0,58,54,15
0,58,0,37
0,62,87,7
0,67,85,0
0,62,0,14
0,60,91,14
0,62,0,53
0,63,76,3
0,46,0,9
0,46,0,4
0,63,0,41
0,46,66,4
0,48,82,0
0,58,74,0
0,60,0,1
0,67,0,26
0,58,0,17
0,48,0,45
0,55,98,3
0,46,82,4
0,55,0,37
0,58,0,22
0,46,0,7
0,63,99,0
0,44,67,2
0,44,81,0
0,56,88,0
0,60,82,0
0,60,88,0
0,63,88,0
0,67,88,0
0,46,0,1
0,63,0,72
0,62,100,17
0,63,0,17
0,56,0,11
0,67,0,0
0,60,0,9
0,62,0,22
0,62,100,52
0,60,101,52
0,62,0,8
0,60,0,28
0,60,101,36
0,56,91,6
0,60,91,0
0,63,91,0
0,67,91,0
0,44,0,72
0,63,0,50
0,56,0,2
0,67,0,0
0,60,0,3
0,44,79,4
0,60,0,49
0,55,103,39
0,55,0,4
0,44,0,3
0,60,0,17
0,44,0,1
0,41,79,3
0,40,30,0
0,41,78,0
0,58,93,0
0,63,103,0
0,63,82,0
0,63,93,0
0,67,93,0
0,40,0,4
0,71,85,11
0,63,0,45
0,40,39,3
0,62,104,0
0,40,0,4
0,58,0,86
0,40,49,6
0,60,105,0
0,63,0,1
0,67,0,1
0,40,0,2
0,62,0,3
0,40,58,89
0,63,105,0
0,60,0,1
0,40,0,2
0,71,0,16
0,71,112,1
0,40,67,0
0,57,96,0
0,65,96,0
0,40,0,4
0,71,0,30
0,40,76,19
0,65,106,0
0,40,0,4
0,63,0,4
0,65,0,71
0,57,0,5
0,40,85,12
0,62,107,0
0,40,0,4
0,65,0,6
0,40,94,86
0,60,108,0
0,62,0,0
0,40,0,4
0,58,84,82
0,58,84,0
0,62,84,0
0,65,84,0
0,63,0,2
0,41,0,6
0,41,0,2
0,46,61,0
0,58,78,0
0,36,101,0
0,42,84,0
0,46,107,0
0,49,53,0
0,62,94,0
0,65,82,0
0,65,94,0
0,70,93,0
0,36,0,4
0,42,0,0
0,49,0,0
0,62,0,67
0,65,0,4
0,70,0,2
0,60,0,3
0,42,84,2
0,62,56,0
0,58,103,2
0,42,0,2
0,46,0,12
0,62,0,38
0,58,0,12
0,46,67,28
0,58,0,26
0,46,0,43
0,58,78,16
0,40,101,0
0,42,83,0
0,46,107,0
0,62,92,0
0,65,89,0
0,70,96,0
0,40,0,4
0,42,0,0
0,62,0,4
0,65,0,35
0,62,68,20
0,53,103,2
0,70,0,4
0,46,0,63
0,53,0,5
0,62,103,0
0,46,107,9
0,42,83,0
0,65,100,0
0,42,0,4
0,62,0,10
0,58,0,8
0,65,0,3
0,60,103,40
0,46,0,9
0,58,57,3
0,36,61,0
0,62,0,0
0,36,0,4
0,58,0,15
0,46,0,23
0,65,0,42
0,67,84,2
0,43,70,7
0,55,61,0
0,36,101,0
0,42,83,0
0,43,107,0
0,58,93,0
0,62,97,0
0,67,92,0
0,36,0,4
0,42,0,0
0,65,0,4
0,58,103,39
0,60,0,12
0,58,0,9
0,42,82,78
0,58,0,0
0,58,86,0
0,62,103,2
0,42,0,2
0,62,0,1
0,67,0,0
0,55,0,2
0,58,0,10
0,43,0,39
0,60,103,16
0,55,62,3
0,62,0,3
0,55,0,14
0,43,0,40
0,62,0,14
0,67,0,0
0,63,84,2
0,63,84,0
0,39,71,10
0,51,78,0
0,39,107,0
0,40,101,0
0,42,82,0
0,55,89,0
0,58,93,0
0,63,88,0
0,40,0,4
0,42,0,0
0,55,0,2
0,58,0,40
0,63,0,11
0,55,73,1
0,58,103,4
0,60,0,9
0,58,0,82
0,42,82,1
0,58,96,0
0,42,0,4
0,62,103,0
0,51,0,3
0,58,0,8
0,55,0,2
0,39,0,41
0,60,103,14
0,62,0,2
0,51,63,2
0,51,0,21
0,39,0,0
0,58,0,2
0,58,0,0
0,63,0,0
0,63,0,0
0,57,84,2
0,57,84,0
0,60,84,0
0,65,84,0
0,41,58,10
0,53,77,0
0,36,101,0
0,41,107,0
0,42,84,0
0,57,85,0
0,60,87,0
0,65,89,0
0,36,0,4
0,42,0,0
0,57,0,9
0,57,103,3
0,60,0,10
0,55,103,12
0,57,0,6
0,55,0,22
0,53,103,7
0,42,84,6
0,57,41,0
0,42,0,4
0,60,0,14
0,65,0,5
0,60,92,73
0,57,0,21
0,53,0,4
0,53,0,22
0,41,0,44
0,53,70,5
0,40,101,0
0,41,107,0
0,42,83,0
0,40,0,4
0,42,0,0
0,60,0,20
0,57,97,72
0,60,94,0
0,65,89,0
0,57,0,45
0,53,103,49
0,42,83,2
0,57,71,0
0,42,0,4
0,53,0,13
0,60,0,4
0,65,0,0
0,57,0,13
0,41,0,22
0,53,0,2
0,41,0,9
0,53,103,25
0,53,59,4
0,36,61,0
0,36,0,4
0,53,0,47
0,53,0,28
0,57,0,0
0,57,0,0
0,60,0,0
0,65,0,0
0,55,84,2
0,55,84,0
0,58,84,0
0,63,84,0
0,63,103,1
0,41,69,5
0,36,101,0
0,41,107,0
0,42,83,0
0,58,91,0
0,63,82,0
0,67,89,0
0,36,0,1
0,42,0,0
0,58,0,23
0,63,0,35
0,62,103,1
0,67,0,2
0,53,55,13
0,58,67,0
0,63,0,1
0,62,0,86
0,63,103,0
0,42,82,9
0,63,52,0
0,42,0,4
0,63,0,27
0,58,0,10
0,62,103,47
0,63,0,2
0,40,101,6
0,58,93,0
0,63,84,0
0,67,92,0
0,40,0,4
0,53,0,25
0,41,0,24
0,53,79,43
0,40,101,0
0,41,107,0
0,42,82,0
0,40,0,4
0,42,0,0
0,58,0,0
0,62,0,54
0,67,0,13
0,62,103,4
0,63,0,6
0,47,99,1
0,58,88,0
0,47,0,4
0,42,82,9
0,47,92,0
0,63,96,0
0,42,0,4
0,47,0,0
0,53,0,22
0,60,103,48
0,53,74,9
0,43,82,0
0,62,0,0
0,43,0,4
0,63,0,10
0,58,0,8
0,41,0,7
0,41,0,6
0,53,0,17
0,55,0,32
0,55,0,0
0,58,0,0
0,63,0,0
0,58,84,2
0,58,84,0
0,62,84,0
0,70,84,0
0,46,56,10
0,58,73,0
0,36,101,0
0,42,84,0
0,46,107,0
0,49,61,0
0,62,84,0
0,65,84,0
0,70,83,0
0,36,0,4
0,42,0,0
0,49,0,0
0,62,0,6
0,65,0,3
0,70,0,1
0,58,103,2
0,42,84,6
0,62,46,0
0,60,0,1
0,42,0,3
0,46,0,14
0,62,0,38
0,58,0,12
0,58,0,23
0,46,62,5
0,46,0,69
0,58,73,16
0,40,101,0
0,42,83,0
0,46,107,0
0,62,82,0
0,65,79,0
0,70,86,0
0,40,0,4
0,42,0,0
0,62,0,4
0,65,0,35
0,53,103,13
0,62,58,7
0,70,0,6
0,46,0,63
0,53,0,2
0,62,103,2
0,42,83,4
0,46,107,0
0,65,90,0
0,42,0,4
0,62,0,18
0,58,0,8
0,65,0,3
0,60,103,41
0,62,0,7
0,46,0,1
0,58,52,3
0,36,61,0
0,36,0,4
0,58,0,15
0,46,0,23
0,58,0,42
0,58,0,0
0,70,0,0
0,57,84,2
0,57,84,0
0,69,84,0
0,43,65,7
0,55,56,0
0,36,101,0
0,42,84,0
0,43,107,0
0,58,83,0
0,62,87,0
0,67,82,0
0,36,0,4
0,42,0,0
0,58,103,35
0,60,0,7
0,58,0,18
0,58,0,67
0,62,103,4
0,42,84,7
0,58,76,0
0,42,0,3
0,62,0,6
0,67,0,0
0,55,0,4
0,58,0,8
0,43,0,39
0,60,103,8
0,62,0,8
0,55,57,3
0,55,0,17
0,43,0,40
0,57,0,14
0,57,0,0
0,62,0,0
0,69,0,0
0,55,84,2
0,55,84,0
0,63,84,0
0,67,84,0
0,39,66,10
0,51,73,0
0,39,107,0
0,40,101,0
0,42,83,0
0,55,79,0
0,58,83,0
0,63,78,0
0,40,0,4
