track,note,velocity,time
3,42,69,368
3,42,69,384
3,42,85,384
3,42,85,384
3,51,5,23424
3,51,7,32
3,51,9,32
3,51,10,32
3,51,12,32
3,51,13,32
3,51,15,32
3,51,17,32
3,51,18,32
3,51,20,32
3,51,21,32
3,51,23,32
3,51,25,32
3,51,26,32
3,51,28,32
3,51,29,32
3,51,31,32
3,51,33,32
3,51,34,32
3,51,36,32
3,51,37,32
3,51,39,32
3,51,41,32
3,51,42,32
3,51,44,32
3,51,45,32
3,51,47,32
3,51,49,32
3,51,50,32
3,51,52,32
3,51,53,32
3,51,55,32
3,51,57,32
3,51,58,32
3,51,60,32
3,51,61,32
3,51,63,32
3,51,65,32
3,51,66,32
3,51,68,32
3,51,69,32
3,51,71,32
3,51,73,32
3,51,74,32
3,51,76,32
3,51,78,32
3,51,79,32
3,51,81,32
3,51,82,32
3,45,118,11520
3,45,118,192
3,41,125,192
3,49,120,384
3,36,118,0
3,42,120,768
3,38,118,0
3,42,77,384
3,36,81,192
3,42,113,192
3,36,118,0
3,42,59,384
3,42,120,384
3,38,125,0
3,42,56,384
3,42,113,384
3,36,125,0
3,42,46,384
3,42,120,384
3,38,125,0
3,42,42,384
3,42,113,384
3,36,125,0
3,42,91,384
3,38,89,192
3,38,118,192
3,45,125,192
3,41,125,192
3,36,58,192
3,49,120,192
3,36,125,0
3,42,59,384
3,42,120,384
3,38,125,0
3,42,63,384
3,36,62,192
3,42,120,192
3,36,118,0
3,42,50,384
3,42,120,384
3,38,125,0
3,42,53,384
3,42,113,384
3,36,125,0
3,42,83,384
3,38,75,192
3,38,118,192
3,45,118,192
3,41,118,192
3,36,89,192
3,49,113,192
3,36,125,0
3,51,91,1536
3,42,83,768
3,42,71,1536
3,42,83,1536
3,51,71,1536
3,51,83,768
3,36,97,0
3,42,83,384
3,42,113,384
3,37,113,0
3,42,71,384
3,42,113,384
3,36,118,0
3,42,59,384
3,42,120,384
3,37,120,0
3,42,63,384
3,42,120,384
3,36,118,0
3,42,28,576
3,42,120,192
3,37,120,0
3,42,59,384
3,42,83,384
3,36,109,0
3,42,53,576
3,42,120,192
3,37,120,0
3,42,83,384
3,42,120,384
3,36,118,0
3,42,56,384
3,42,113,384
3,37,120,0
3,42,53,384
3,36,62,192
3,42,113,192
3,36,118,0
3,42,46,384
3,42,113,384
3,37,120,0
3,42,59,384
3,42,113,384
3,36,125,0
3,42,63,384
3,42,120,384
3,37,120,0
3,42,44,384
3,36,75,192
3,42,120,192
3,36,125,0
3,42,77,384
3,42,120,384
3,37,120,0
3,51,91,768
3,36,125,0
3,42,71,384
3,42,113,384
3,37,120,0
3,42,26,384
3,42,113,384
3,36,125,0
3,42,48,384
3,42,120,384
3,37,120,0
3,42,56,384
3,42,120,384
3,36,125,0
3,42,53,384
3,42,120,384
3,37,120,0
3,42,56,384
3,36,52,192
3,42,113,192
3,36,118,0
3,42,53,384
3,42,120,384
3,37,120,0
3,42,59,384
3,42,113,384
3,36,125,0
3,42,48,384
3,42,113,384
3,37,127,0
3,42,56,384
3,42,120,384
3,36,125,0
3,42,53,384
3,42,120,384
3,37,120,0
3,42,77,384
3,42,113,384
3,36,125,0
3,42,67,384
3,44,77,384
3,37,120,0
3,44,77,384
3,46,71,192
3,36,75,0
3,49,100,192
3,36,125,0
3,38,125,384
3,45,118,384
3,36,118,0
3,41,125,192
3,41,118,192
3,36,109,192
3,49,127,192
3,36,125,0
3,51,100,384
3,51,120,384
3,38,125,0
3,51,77,384
3,36,81,192
3,51,120,192
3,36,125,0
3,51,91,384
3,51,120,384
3,38,125,0
3,51,91,384
3,51,120,384
3,36,125,0
3,51,42,384
3,51,120,384
3,38,125,0
3,51,83,384
3,36,70,192
3,51,120,192
3,36,125,0
3,51,113,384
3,38,75,192
3,38,118,192
3,45,125,192
3,41,125,192
3,36,118,192
3,49,120,192
3,36,127,0
3,51,91,384
3,51,120,384
3,38,125,0
3,51,83,384
3,36,75,192
3,51,120,192
3,36,125,0
3,51,67,384
3,51,71,192
3,51,120,192
3,38,118,0
3,51,83,384
3,36,89,192
3,51,120,192
3,36,125,0
3,51,77,384
3,38,109,192
3,38,125,192
3,45,118,192
3,41,118,192
3,51,67,192
3,36,97,0
3,51,120,192
3,36,125,0
3,51,77,384
3,51,120,384
3,38,118,0
3,49,100,768
3,36,125,0
3,51,77,384
3,51,113,384
3,38,118,0
3,51,83,384
3,36,66,192
3,51,120,192
3,36,125,0
3,51,77,384
3,51,120,384
3,38,118,0
3,51,83,384
3,51,120,384
3,36,125,0
3,51,91,384
3,51,120,384
3,38,125,0
3,51,83,384
3,36,52,192
3,51,120,192
3,36,125,0
3,51,67,384
3,51,113,384
3,38,125,0
3,51,77,384
3,49,113,384
3,36,125,0
3,51,77,384
3,51,113,384
3,38,118,0
3,51,113,384
3,36,89,192
3,49,120,192
3,36,125,0
3,51,113,384
3,38,81,192
3,38,125,192
3,45,125,192
3,41,118,192
3,36,70,192
3,49,120,192
3,36,127,0
3,51,100,384
3,36,81,192
3,51,120,192
3,38,125,0
3,51,83,384
3,51,113,384
3,36,125,0
3,51,83,384
3,51,120,384
3,38,109,0
3,51,77,384
3,51,120,384
3,36,125,0
3,51,71,384
3,51,120,384
3,38,125,0
3,51,100,384
3,36,70,192
3,49,120,192
3,36,125,0
3,51,120,384
3,38,109,192
3,38,125,192
3,45,125,192
3,41,125,192
3,36,109,192
3,49,127,192
3,36,125,0
3,51,100,384
3,51,120,384
3,38,125,0
3,51,77,384
3,36,81,192
3,51,120,192
3,36,125,0
3,51,91,384
3,51,120,384
3,38,125,0
3,51,91,384
3,51,120,384
3,36,125,0
3,51,42,384
3,51,120,384
3,38,125,0
3,51,83,384
3,36,70,192
3,51,120,192
3,36,125,0
3,51,113,384
3,38,75,192
3,38,118,192
3,45,125,192
3,41,125,192
3,36,118,192
3,49,120,192
3,36,127,0
3,51,91,384
3,51,120,384
3,38,125,0
3,51,83,384
3,36,75,192
3,51,120,192
3,36,125,0
3,51,67,384
3,51,71,192
3,51,120,192
3,38,118,0
3,51,83,384
3,36,89,192
3,51,120,192
3,36,125,0
3,51,77,384
3,38,109,192
3,38,125,192
3,45,118,192
3,41,118,192
3,51,67,192
3,36,97,0
3,51,120,192
3,36,125,0
3,51,77,384
3,51,120,384
3,38,118,0
3,49,127,768
3,36,125,0
3,51,100,384
3,51,120,384
3,38,125,0
3,51,77,384
3,36,81,192
3,51,120,192
3,36,125,0
3,51,91,384
3,51,120,384
3,38,125,0
3,51,91,384
3,51,120,384
3,36,125,0
3,51,42,384
3,51,120,384
3,38,125,0
3,51,83,384
3,36,70,192
3,51,120,192
3,36,125,0
3,51,113,384
3,38,75,192
3,38,118,192
3,45,125,192
3,41,125,192
3,36,118,192
3,49,120,192
3,36,127,0
3,51,91,384
3,51,120,384
3,38,125,0
3,51,83,384
3,36,75,192
3,51,120,192
3,36,125,0
3,51,67,384
3,51,71,192
3,51,120,192
3,38,118,0
3,51,83,384
3,36,89,192
3,51,120,192
3,36,125,0
3,51,77,384
3,38,109,192
3,38,125,192
3,45,118,192
3,41,118,192
3,51,67,192
3,36,97,0
3,49,100,192
3,36,118,0
3,51,113,384
3,36,109,0
3,51,120,384
3,38,109,0
3,45,118,192
3,41,125,192
3,36,109,192
3,49,127,192
3,36,125,0
3,51,100,384
3,51,120,384
3,38,125,0
3,51,77,384
3,36,81,192
3,51,120,192
3,36,125,0
3,51,91,384
3,51,120,384
3,38,125,0
3,51,91,384
3,51,120,384
3,36,125,0
3,51,42,384
3,51,120,384
3,38,125,0
3,51,83,384
3,36,70,192
3,51,120,192
3,36,125,0
3,51,113,384
3,38,75,192
3,38,118,192
3,45,125,192
3,41,125,192
3,36,118,192
3,49,120,192
3,36,127,0
3,51,91,384
3,51,120,384
3,38,125,0
3,51,83,384
3,36,75,192
3,51,120,192
3,36,125,0
3,51,67,384
3,51,71,192
3,51,120,192
3,38,118,0
3,51,83,384
3,36,89,192
3,51,120,192
3,36,125,0
3,51,77,384
3,38,109,192
3,38,125,192
3,45,118,192
3,41,118,192
3,51,67,192
3,36,97,0
3,49,100,192
3,36,118,0
3,51,113,384
3,36,109,0
3,51,120,384
3,38,109,0
3,45,118,192
3,41,125,192
3,36,109,192
3,49,113,192
3,36,125,0
4,54,113,96000
4,54,120,1536
4,54,120,1536
4,54,120,1536
4,54,120,1536
4,54,120,1536
4,54,120,1536
4,54,120,1536
4,54,120,1536
4,54,113,1536
4,54,120,1536
4,54,120,1536
4,54,120,1536
4,54,120,1536
4,54,120,1536
4,54,120,1536
4,54,120,1536
4,54,120,1536
4,54,120,1536
4,54,120,1536
4,54,120,1536
4,54,113,1536
4,54,120,1536
4,54,113,1536
4,54,120,1536
4,54,120,1536
4,54,120,1536
4,54,120,1536
4,54,120,1536
4,54,120,1536
4,54,120,1536
4,54,120,1536
4,54,120,1536
4,54,120,1536
5,62,99,1904
5,46,93,0
5,53,85,192
5,58,73,144
5,60,107,80
5,65,85,204
5,53,65,192
5,58,58,124
5,46,101,36
5,53,76,188
5,58,87,192
5,60,107,80
5,62,91,252
5,53,72,8
5,62,46,76
5,46,123,96
5,53,85,192
5,57,80,192
5,60,91,28
5,62,91,220
5,53,76,44
5,57,76,176
5,46,110,52
5,53,85,192
5,62,72,192
5,53,80,124
5,62,91,0
5,63,110,68
5,65,107,116
5,39,110,272
5,65,119,0
5,46,101,68
5,55,99,192
5,51,110,0
5,58,93,40
5,67,119,0
5,55,80,52
5,63,93,52
5,55,65,84
5,39,101,116
5,51,77,192
5,70,77,80
5,62,91,0
5,70,123,144
5,62,127,0
5,72,91,308
5,63,87,0
5,65,91,128
5,74,107,0
5,65,107,292
5,74,99,0
5,41,107,0
5,48,91,72
5,53,72,20
5,58,93,112
5,67,76,0
5,75,93,0
5,60,62,92
5,63,87,108
5,67,68,144
5,75,77,192
5,41,85,124
5,55,91,192
5,58,77,192
5,63,69,192
5,65,57,192
5,58,93,468
5,53,85,0
5,62,99,0
5,65,99,0
5,46,101,0
5,65,91,160
5,58,93,0
5,62,91,0
5,46,101,80
5,57,99,192
5,65,99,0
5,62,99,0
5,60,107,0
5,57,62,8
5,62,59,0
5,60,59,0
5,65,68,0
5,41,99,272
5,46,110,16
5,65,80,0
5,53,80,0
5,58,87,0
5,62,85,0
5,53,65,88
5,65,91,120
5,58,87,0
5,62,91,0
5,53,49,92
5,46,81,4
5,65,91,192
5,57,99,0
5,60,107,0
5,62,99,0
5,65,107,300
5,58,110,0
5,62,107,0
5,46,81,12
5,67,107,100
5,55,107,0
5,60,127,0
5,48,127,0
5,63,123,0
5,55,65,20
5,60,99,96
5,55,91,0
5,63,93,0
5,67,107,0
5,55,49,16
5,48,127,192
5,46,127,44
5,55,99,0
5,60,99,0
5,67,107,0
5,63,101,0
5,55,76,140
5,67,85,0
5,60,99,0
5,63,87,0
5,55,49,80
5,55,80,152
5,60,85,0
5,67,99,0
5,63,93,0
5,44,127,0
5,55,51,92
5,60,91,0
5,67,91,0
5,63,81,0
5,55,62,128
5,43,107,72
5,41,99,32
5,65,85,0
5,63,93,0
5,55,80,0
5,58,93,0
5,55,72,104
5,58,73,44
5,63,77,192
5,65,62,192
5,67,62,4
5,70,62,68
5,41,76,0
5,58,87,20
5,46,119,0
5,53,99,28
5,58,93,164
5,60,91,192
5,62,107,32
5,53,91,168
5,65,91,12
5,53,80,112
5,57,85,192
5,62,65,0
5,46,110,0
5,60,91,0
5,53,76,60
5,57,80,112
5,65,85,16
5,53,76,160
5,57,51,60
5,41,80,0
5,53,76,120
5,62,85,72
5,65,68,0
5,46,123,0
5,53,85,32
5,58,87,160
5,60,107,180
5,53,85,128
5,65,107,192
5,53,85,104
5,57,85,192
5,46,116,116
5,60,99,68
5,53,76,0
5,57,72,104
5,65,99,192
5,53,80,100
5,58,93,192
5,62,99,0
5,55,99,104
5,48,127,0
5,60,99,0
5,63,110,0
5,55,91,48
5,60,99,108
5,67,99,24
5,62,99,192
5,63,87,192
5,60,99,116
5,55,76,84
5,48,91,0
5,63,87,24
5,67,99,0
5,60,99,0
5,46,127,0
5,55,80,24
5,60,91,80
5,67,107,148
5,55,65,96
5,63,101,192
5,60,91,192
5,46,110,20
5,55,91,60
5,67,107,0
5,63,93,0
5,60,119,0
5,44,123,0
5,55,80,36
5,60,91,120
5,67,107,172
5,55,65,56
5,63,87,192
5,60,85,56
5,43,107,80
5,55,107,52
5,63,101,0
5,58,101,0
5,65,107,0
5,41,127,0
5,55,76,44
5,58,87,104
5,63,81,32
5,55,99,116
5,41,127,0
5,58,101,0
5,63,101,0
5,65,107,0
5,55,72,72
5,58,87,44
5,41,99,64
5,53,119,20
5,58,123,0
5,62,107,0
5,46,127,0
5,65,107,0
5,53,62,40
5,65,99,112
5,62,99,0
5,58,93,0
5,53,80,44
5,45,107,56
5,55,119,40
5,67,127,0
5,58,110,0
5,62,119,0
5,43,127,0
5,55,76,8
5,55,107,324
5,58,110,0
5,67,119,0
5,63,110,0
5,39,123,0
5,55,51,8
5,53,80,232
5,65,119,0
5,57,91,0
5,60,99,0
5,41,119,0
5,53,99,56
5,55,91,92
5,57,80,192
5,60,99,56
5,53,80,16
5,65,107,192
5,60,85,0
5,63,123,44
5,65,65,0
5,55,99,0
5,58,123,0
5,41,127,0
5,55,80,84
5,58,93,112
5,63,110,192
5,65,119,0
5,58,45,76
5,55,85,0
5,41,85,36
5,53,99,36
5,65,99,0
5,62,107,0
5,58,123,0
5,46,127,0
5,53,68,84
5,58,87,92
5,65,107,192
5,53,91,100
5,58,81,88
5,62,91,0
5,45,119,32
5,62,107,68
5,55,85,0
5,58,123,0
5,43,127,0
5,55,59,72
5,58,63,96
5,55,107,172
5,63,110,0
5,39,123,0
5,58,110,0
5,55,76,80
5,62,99,48
5,53,85,116
5,57,91,0
5,60,107,0
5,41,127,0
5,53,80,48
5,57,91,72
5,65,107,192
5,48,80,128
5,53,76,100
5,57,85,128
5,60,85,144
5,55,85,120
5,63,101,0
5,58,110,0
5,41,107,0
5,65,72,596
5,58,101,124
5,53,91,0
5,62,99,0
5,46,123,0
5,53,76,120
5,60,107,160
5,53,99,8
5,58,87,192
5,65,99,132
5,58,87,156
5,62,99,0
5,43,127,0
5,58,91,16
5,65,101,0
5,62,99,24
5,39,123,0
5,55,85,0
5,58,87,88
5,62,99,60
5,53,99,0
5,41,119,0
5,63,93,120
5,58,81,0
5,58,123,116
5,55,107,0
5,63,123,0
5,55,65,52
5,58,81,112
5,63,93,192
5,41,99,60
5,65,91,0
5,77,76,52
5,58,93,140
5,53,85,0
5,62,99,0
5,65,99,0
5,46,101,0
5,65,91,160
5,58,93,0
5,62,91,0
5,46,101,80
5,57,99,192
5,65,99,0
5,62,99,0
5,60,107,0
5,57,62,8
5,62,59,0
5,60,59,0
5,65,68,0
5,41,99,272
5,46,110,16
5,65,80,0
5,53,80,0
5,58,87,0
5,62,85,0
5,53,65,88
5,65,91,120
5,58,87,0
5,62,91,0
5,53,49,92
5,46,81,4
5,65,91,192
5,57,99,0
5,60,107,0
5,62,99,0
5,65,107,300
5,58,110,0
5,62,107,0
5,46,81,12
5,67,107,100
5,55,107,0
5,60,127,0
5,48,127,0
5,63,123,0
5,55,65,20
5,60,99,96
5,55,91,0
5,63,93,0
5,67,107,0
5,55,49,16
5,48,127,192
5,46,127,44
5,55,99,0
5,60,99,0
5,67,107,0
5,63,101,0
5,55,76,140
5,67,85,0
5,60,99,0
5,63,87,0
5,55,49,80
5,55,80,152
5,60,85,0
5,67,99,0
5,63,93,0
5,44,127,0
5,55,51,92
5,60,91,0
5,67,91,0
5,63,81,0
5,55,62,128
5,43,107,72
5,41,99,32
5,65,85,0
5,63,93,0
5,55,80,0
5,58,93,0
5,55,72,104
5,58,73,44
5,63,77,192
5,65,62,192
5,67,62,4
5,70,62,68
5,41,76,0
5,58,87,20
5,46,119,0
5,53,99,28
5,58,93,164
5,60,91,192
5,62,107,32
5,53,91,168
5,65,91,12
5,53,80,112
