track,note,velocity,time
2,36,73,39936
2,36,50,1296
2,36,73,144
2,36,50,1296
2,36,73,144
2,36,50,1296
2,36,73,144
2,36,73,1488
2,36,50,1296
2,36,73,144
2,36,50,1296
2,36,73,144
2,36,73,1488
2,36,66,7632
2,36,43,1296
2,36,66,144
2,36,43,1296
2,36,66,144
2,36,43,1296
2,36,66,144
2,36,43,1296
2,36,66,144
2,36,43,1296
2,36,66,144
2,36,43,1296
2,36,66,144
2,36,43,1296
2,36,66,144
2,36,43,1296
2,36,73,144
2,36,50,1296
2,36,73,144
2,36,50,1296
2,36,73,144
2,36,50,1296
2,36,73,144
2,36,73,1488
2,36,50,1296
2,36,73,144
2,36,50,1296
2,36,73,144
2,36,73,1488
2,36,50,1296
2,36,73,144
2,36,50,1296
2,36,73,144
2,36,50,1296
2,36,73,144
2,36,50,1296
2,36,73,144
2,36,73,1488
2,36,50,1296
2,36,73,144
2,36,73,1488
2,36,50,1296
2,36,73,144
2,36,50,1296
2,36,73,144
2,36,50,1296
2,36,73,144
2,36,73,1488
2,36,50,1296
2,36,73,144
2,36,50,1296
2,36,73,144
2,36,50,1296
2,36,73,144
2,36,50,1296
2,36,73,144
2,36,50,1296
2,36,73,144
2,36,50,1296
2,36,73,144
2,36,50,1296
2,36,73,144
2,36,50,1296
2,36,73,144
2,36,50,1296
2,36,73,144
2,36,50,1296
2,36,73,144
2,36,50,1296
2,36,73,144
2,36,50,1104
2,36,50,144
2,36,73,144
2,36,50,1296
2,36,73,144
2,36,50,1296
2,36,73,144
2,36,50,1104
2,36,50,144
2,36,73,144
2,36,64,900
2,36,73,540
2,36,50,1296
2,36,73,144
2,36,50,1296
2,36,73,144
2,36,50,1296
2,36,73,144
2,36,73,1488
2,36,50,1296
2,36,73,144
2,36,50,1296
2,36,73,144
2,36,50,1296
2,36,73,144
2,36,50,1296
3,37,91,59136
3,37,91,1488
3,37,91,1488
3,37,91,1488
3,37,91,1488
3,37,91,1488
3,37,91,1488
4,38,82,40704
4,38,82,1488
4,38,82,1488
4,38,62,1296
4,38,82,144
4,38,82,1488
4,38,82,1488
4,38,62,1296
4,38,82,144
4,38,34,19344
4,38,75,144
4,38,82,1872
4,38,82,1488
4,38,82,1488
4,38,62,1296
4,38,82,144
4,38,82,1488
4,38,82,1488
4,38,62,1296
4,38,82,144
4,38,82,1488
4,38,82,1488
4,38,82,1488
4,38,82,1488
4,38,57,1296
4,38,82,144
4,38,82,1488
4,38,52,912
4,38,82,144
4,38,82,1872
4,38,82,1488
4,38,82,1488
4,38,72,1104
4,38,82,144
4,38,82,1680
4,38,82,1488
4,38,82,1488
4,38,82,1488
4,38,82,1488
4,38,82,1488
4,38,82,1488
4,38,62,912
4,38,82,144
4,38,82,336
4,38,82,1488
4,38,82,1488
4,38,82,1488
4,38,82,1488
4,38,82,1488
4,38,82,1488
4,38,82,1488
4,38,62,912
4,38,66,144
4,38,69,144
4,38,82,144
4,38,82,1488
4,38,82,1488
4,38,82,1488
4,38,75,1104
4,38,78,144
4,38,82,1680
4,38,82,1488
4,38,82,1488
4,38,62,912
4,38,82,144
4,38,82,336
5,59,20,24624
5,59,23,48
5,59,23,96
5,59,20,48
5,59,23,48
5,59,26,0
5,59,23,48
5,59,23,48
5,59,23,96
5,59,29,48
5,59,29,48
5,59,29,0
5,59,31,48
5,59,32,48
5,59,32,96
5,59,32,48
5,59,32,48
5,59,32,0
5,59,32,48
5,59,32,48
5,59,32,96
5,59,34,48
5,59,34,48
5,59,37,0
5,59,43,48
5,59,43,48
5,59,46,96
5,59,49,48
5,59,52,48
5,59,52,0
5,59,58,48
5,59,66,48
5,59,20,9264
5,59,23,48
5,59,23,96
5,59,20,48
5,59,23,48
5,59,26,0
5,59,23,48
5,59,23,48
5,59,23,96
5,59,29,48
5,59,29,48
5,59,29,0
5,59,31,48
5,59,32,48
5,59,32,96
5,59,37,48
5,59,37,48
5,59,37,0
5,59,37,48
5,59,37,48
5,59,43,96
5,59,43,48
5,59,46,48
5,59,46,0
5,59,46,48
5,59,49,48
5,59,49,96
5,59,52,48
5,59,61,48
5,59,64,0
5,59,66,48
5,59,81,48
5,59,17,42288
5,59,20,48
5,59,29,96
5,59,37,48
5,59,40,48
5,59,46,0
5,59,58,48
5,59,81,48
5,59,17,8496
5,59,20,48
5,59,29,96
5,59,37,48
5,59,40,48
5,59,46,0
5,59,58,48
5,59,81,48
5,59,17,17712
5,59,20,48
5,59,29,96
5,59,37,48
5,59,40,48
5,59,46,0
5,59,58,48
5,59,81,48
5,59,17,11568
5,59,20,48
5,59,29,96
5,59,37,48
5,59,40,48
5,59,46,0
5,59,58,48
5,59,81,48
5,59,17,11568
5,59,20,48
5,59,29,96
5,59,37,48
5,59,40,48
5,59,46,0
5,59,58,48
5,59,81,48
6,51,23,24576
6,51,20,48
6,51,23,48
6,51,23,0
6,51,20,48
6,51,20,48
6,51,23,96
6,51,23,48
6,51,26,48
6,51,29,0
6,51,23,48
6,51,29,48
6,51,31,96
6,51,32,48
6,51,32,48
6,51,32,0
6,51,32,48
6,51,32,48
6,51,32,96
6,51,32,48
6,51,32,48
6,51,32,0
6,51,32,48
6,51,34,48
6,51,40,96
6,51,43,48
6,51,37,48
6,51,43,0
6,51,46,48
6,51,49,48
6,51,55,96
6,51,64,48
6,51,23,9264
6,51,20,48
6,51,23,48
6,51,23,0
6,51,20,48
6,51,20,48
6,51,23,96
6,51,23,48
6,51,26,48
6,51,29,0
6,51,23,48
6,51,29,48
6,51,31,96
6,51,32,48
6,51,32,48
6,51,32,0
6,51,37,48
6,51,37,48
6,51,37,96
6,51,37,48
6,51,40,48
6,51,40,0
6,51,43,48
6,51,43,48
6,51,46,96
6,51,49,48
6,51,49,48
6,51,49,0
6,51,55,48
6,51,55,48
6,51,64,96
6,51,75,48
6,51,17,42288
6,51,17,48
6,51,20,48
6,51,26,0
6,51,31,48
6,51,37,48
6,51,52,96
6,51,69,48
6,51,17,8496
6,51,17,48
6,51,20,48
6,51,26,0
6,51,31,48
6,51,37,48
6,51,52,96
6,51,69,48
6,51,17,17712
6,51,17,48
6,51,20,48
6,51,26,0
6,51,31,48
6,51,37,48
6,51,52,96
6,51,69,48
6,51,17,11568
6,51,17,48
6,51,20,48
6,51,26,0
6,51,31,48
6,51,37,48
6,51,52,96
6,51,69,48
6,51,17,11568
6,51,17,48
6,51,20,48
6,51,26,0
6,51,31,48
6,51,37,48
6,51,52,96
6,51,69,48
7,49,61,27648
7,49,78,12248
7,49,78,6104
7,49,78,4568
7,49,78,19928
7,49,78,6104
7,49,78,4568
7,49,78,1496
7,49,78,6104
7,49,78,3032
7,49,78,6104
7,49,78,6104
7,49,78,6104
7,49,78,6104
7,49,78,6104
7,49,78,6104
8,42,23,40128
8,42,85,154
8,42,23,128
8,42,85,154
8,42,23,128
8,42,85,154
8,42,23,128
8,42,85,154
8,42,23,128
8,42,85,154
8,42,23,128
8,42,85,154
8,42,23,128
8,42,85,154
8,42,23,128
8,42,85,154
8,42,23,128
8,42,85,154
8,42,23,128
8,42,85,154
8,42,23,128
8,42,85,154
8,42,23,128
8,42,85,154
8,42,23,128
8,42,85,154
8,42,23,1280
8,42,85,154
8,42,23,128
8,42,85,154
8,42,23,128
8,42,85,154
8,42,23,128
8,42,85,154
8,42,23,128
8,42,85,154
8,42,23,128
8,42,85,154
8,42,23,128
8,42,85,154
8,42,23,128
8,42,85,154
8,42,23,128
8,42,85,154
8,42,85,8768
8,42,23,128
8,42,85,154
8,42,23,128
8,42,85,154
8,42,23,128
8,42,85,154
8,42,23,128
8,42,85,154
8,42,23,128
8,42,85,154
8,42,23,128
8,42,85,154
8,42,23,128
8,42,85,154
8,42,23,128
8,42,85,154
8,42,23,128
8,42,85,154
8,42,23,128
8,42,85,154
8,42,23,128
8,42,85,154
8,42,23,128
8,42,85,154
8,42,23,128
8,42,85,154
8,42,23,128
8,42,85,154
8,42,23,128
8,42,85,154
8,42,23,128
8,42,85,154
8,42,23,128
8,42,85,154
8,42,23,128
8,42,85,154
8,42,23,128
8,42,85,154
8,42,23,128
8,42,85,154
8,42,23,128
8,42,85,154
8,42,23,128
8,42,85,154
8,42,23,128
8,42,85,154
8,42,23,128
8,42,85,154
8,42,23,128
8,42,85,154
8,42,23,128
8,42,85,154
8,42,23,128
8,42,85,154
8,42,23,128
8,42,85,154
8,42,23,1664
8,42,85,154
8,42,23,128
8,42,85,154
8,42,23,128
8,42,85,154
8,42,23,128
8,42,85,154
8,42,23,128
8,42,85,154
8,42,23,128
8,42,85,154
8,42,23,128
8,42,85,154
8,42,23,128
8,42,85,154
8,42,23,128
8,42,85,154
8,42,23,128
8,42,85,154
8,42,23,128
8,42,85,154
8,42,23,128
8,42,85,154
8,42,23,128
8,42,85,154
8,42,23,1280
8,42,85,154
8,42,23,128
8,42,85,154
8,42,23,128
8,42,85,154
8,42,23,128
8,42,85,154
8,42,23,128
8,42,85,154
8,42,23,128
8,42,85,154
8,42,23,128
8,42,85,154
8,42,23,128
8,42,85,154
8,42,23,128
8,42,85,154
8,42,85,1472
8,42,23,128
8,42,85,154
8,42,23,128
8,42,85,154
8,42,23,128
8,42,23,346
8,42,85,154
8,42,23,128
8,42,85,154
8,42,23,128
8,42,85,154
8,42,23,128
8,42,85,154
8,42,23,128
8,42,85,154
8,42,23,128
8,42,85,154
8,42,23,128
8,42,85,154
8,42,23,128
8,42,85,154
8,42,23,128
8,42,85,154
8,42,23,128
8,42,85,154
8,42,23,128
8,42,85,154
8,42,23,128
8,42,85,154
8,42,23,128
8,42,85,154
8,42,23,1280
8,42,85,154
8,42,23,128
8,42,85,154
8,42,23,128
8,42,85,154
8,42,23,128
8,42,23,1882
8,42,85,154
8,42,23,128
8,42,85,154
8,42,23,128
8,42,85,154
8,42,23,128
8,42,85,154
8,42,23,128
8,42,85,154
8,42,23,128
8,42,85,154
8,42,23,128
8,42,85,154
8,42,23,128
8,42,85,154
8,42,23,128
8,42,85,154
8,42,23,128
8,42,85,154
8,42,23,128
8,42,85,154
8,42,23,128
8,42,85,154
8,42,23,128
8,42,23,1498
8,42,85,154
8,42,23,128
8,42,85,154
8,42,23,128
8,42,85,154
8,42,23,128
8,42,85,154
8,42,23,128
8,42,85,154
8,42,23,128
8,42,85,154
8,42,23,128
8,42,85,154
8,42,23,128
8,42,85,154
8,42,23,128
8,42,85,154
8,42,23,128
8,42,85,154
8,42,23,128
8,42,85,154
8,42,23,128
8,42,85,154
8,42,23,128
8,42,85,154
8,42,23,128
8,42,85,154
8,42,23,128
8,42,85,154
8,42,23,128
8,42,23,346
8,42,85,154
8,42,23,128
8,42,85,154
8,42,23,128
8,42,85,154
8,42,23,128
8,42,85,154
8,42,23,128
8,42,85,154
8,42,23,128
8,42,85,154
8,42,23,128
8,42,85,154
8,42,23,128
8,42,85,154
8,42,23,128
8,42,85,154
8,42,23,128
8,42,85,154
8,42,23,128
8,42,85,154
8,42,23,128
8,42,85,154
8,42,23,1664
8,42,85,154
8,42,23,128
8,42,85,154
8,42,23,128
8,42,85,154
8,42,23,128
8,42,85,154
8,42,23,128
8,42,85,154
8,42,23,128
8,42,85,154
8,42,23,128
8,42,85,154
8,42,23,128
8,42,85,154
8,42,23,128
8,42,85,154
8,42,23,128
8,42,85,154
8,42,23,128
8,42,85,154
8,42,23,128
8,42,85,154
8,42,23,128
8,42,85,154
8,42,23,128
8,42,85,154
8,42,23,128
8,42,85,154
8,42,23,128
8,42,23,346
8,42,85,154
8,42,23,128
8,42,85,154
8,42,23,128
8,42,85,154
8,42,23,128
8,42,85,154
8,42,23,128
8,42,85,154
8,42,23,128
8,42,85,154
8,42,23,128
8,42,85,154
8,42,23,128
8,42,85,154
8,42,23,128
8,42,85,154
8,42,23,128
8,42,85,154
8,42,23,128
8,42,85,154
8,42,23,128
8,42,85,154
8,42,23,1664
8,42,85,154
8,42,23,128
8,42,85,154
8,42,23,128
8,42,85,154
8,42,23,128
8,42,85,154
8,42,23,128
8,42,85,154
8,42,23,128
8,42,85,154
8,42,23,128
8,42,85,154
8,42,23,128
8,42,85,154
8,42,23,128
8,42,85,154
8,42,23,128
8,42,85,154
8,42,23,128
8,42,85,154
8,42,23,128
8,42,85,154
8,42,23,128
8,42,23,1498
8,42,85,154
8,42,23,128
8,42,85,154
8,42,23,128
8,42,85,154
8,42,23,128
8,42,85,154
8,42,23,128
8,42,85,154
8,42,23,128
8,42,85,154
8,42,23,128
8,42,85,154
8,42,23,128
8,42,85,154
8,42,23,128
8,42,85,154
8,42,23,128
8,42,85,154
8,42,23,128
8,42,85,154
8,42,23,128
8,42,85,154
9,46,95,90624
10,48,49,38784
10,48,84,158
10,47,58,336
10,47,87,158
10,43,72,144
10,47,58,5712
10,47,87,158
10,43,72,144
10,47,66,4176
10,43,81,158
10,41,65,144
10,48,84,19152
10,47,58,336
10,47,87,158
10,43,72,144
10,47,58,5712
10,47,87,158
10,43,72,144
10,47,66,4176
10,43,81,158
10,41,65,144
10,47,58,7248
10,47,87,158
10,43,72,144
10,48,66,2256
10,48,84,144
10,47,69,144
10,47,87,158
10,43,72,144
10,48,84,5520
10,47,69,144
10,47,87,158
10,43,72,144
10,47,66,11472
10,47,66,350
10,43,81,158
10,43,65,144
10,47,58,11728
10,43,66,30
10,43,66,222
10,43,72,144
10,48,56,5500
10,50,86,24
10,47,58,154
10,47,87,158
10,43,72,144
10,47,66,5328
10,47,66,350
10,43,81,158
10,43,65,144
11,46,64,3066
11,53,52,192
11,60,56,188
11,60,77,24
11,53,52,36
11,62,56,192
11,58,49,168
11,46,41,48
11,60,73,2
11,46,60,8
11,65,73,6
11,53,52,186
11,58,56,188
11,60,81,38
11,53,48,36
11,62,56,192
11,46,36,28
11,58,56,2
11,53,40,62
11,57,72,6
11,46,60,4
11,53,52,192
11,62,56,188
11,62,87,18
11,53,46,36
11,60,66,192
11,57,58,42
11,53,37,6
11,46,60,10
11,53,52,192
11,62,63,24
11,62,84,18
11,53,50,36
11,63,72,192
11,65,78,4
11,46,41,48
11,39,60,16
11,65,91,4
11,46,52,188
11,55,56,188
11,58,47,188
11,67,91,14
11,62,73,0
11,51,60,26
11,58,40,186
11,62,60,64
11,70,52,6
11,70,82,22
11,62,82,2
11,58,41,22
11,63,64,22
11,72,73,4
11,65,81,16
11,74,91,4
11,74,85,20
11,65,56,2
11,41,60,6
11,53,40,186
11,67,60,20
11,75,64,6
11,63,51,14
11,72,50,12
11,53,38,2
11,58,32,404
11,63,56,50
11,41,60,10
11,67,82,6
11,63,82,0
11,53,40,180
11,58,48,198
11,60,71,176
11,53,38,46
11,63,60,6
11,41,46,24
11,53,48,40
11,46,64,10
11,60,64,8
11,65,68,2
11,53,52,166
11,58,32,384
11,60,64,30
11,53,52,6
11,65,71,4
11,46,31,50
11,53,41,78
11,60,59,22
11,46,60,4
11,57,58,0
11,65,63,6
11,53,52,186
11,57,50,16
11,60,73,34
11,53,47,2
11,57,56,184
11,46,33,46
11,65,56,2
11,53,40,62
11,46,64,8
11,60,64,8
11,65,68,2
11,53,52,182
11,58,32,384
11,62,66,30
11,53,52,6
11,65,71,4
11,46,31,50
11,53,41,78
11,60,59,22
11,46,60,4
11,57,58,0
11,65,63,6
11,53,52,186
11,57,50,16
11,60,73,34
11,58,52,28
11,53,47,8
11,60,64,18
11,46,33,46
11,62,82,0
11,53,60,54
11,62,64,16
11,63,64,0
11,67,74,0
11,48,54,0
11,67,76,2
11,63,64,4
11,60,60,0
11,62,64,0
11,55,52,10
11,48,40,4
11,55,48,188
11,62,64,22
11,63,64,0
11,67,74,0
11,46,54,0
11,62,73,56
11,67,76,10
11,63,64,4
11,55,52,0
11,60,64,4
11,46,40,2
11,55,48,172
11,60,64,22
11,63,64,0
11,67,75,0
11,44,60,0
11,51,40,184
11,60,73,28
11,56,44,2
11,67,76,8
11,63,64,4
11,51,52,0
11,44,40,6
11,51,48,188
11,41,60,22
11,70,52,2
11,67,72,2
11,63,72,0
11,60,48,4
11,53,46,762
11,63,60,64
11,41,46,24
11,53,48,40
11,58,57,4
11,65,68,6
11,62,64,0
11,46,64,0
11,53,52,166
11,58,32,24
11,60,64,30
11,53,52,6
11,57,65,0
11,65,41,4
11,46,31,50
11,53,41,78
