track,note,velocity,time
2,60,120,0
2,60,0,192
3,36,94,1541
3,36,0,159
3,48,106,28
3,48,0,99
3,47,86,5
3,47,0,77
3,48,94,7
3,48,0,110
3,47,88,4
3,47,0,73
3,48,102,7
3,48,0,103
3,47,74,5
3,47,0,71
3,48,100,11
3,48,0,136
3,36,78,43
3,36,0,105
3,48,100,9
3,48,0,199
3,46,92,2
3,46,0,94
3,43,102,1
3,43,0,101
3,36,96,91
3,36,0,179
3,48,106,4
3,48,0,102
3,47,88,2
3,47,0,71
3,48,108,26
3,48,0,103
3,47,84,1
3,47,0,68
3,48,102,13
3,48,0,103
3,47,96,1
3,47,0,62
3,48,112,30
3,48,0,158
3,36,84,19
3,36,0,106
3,48,116,9
3,48,0,179
3,46,102,15
3,46,0,81
3,43,114,16
3,43,0,131
3,29,100,57
3,41,108,176
3,29,0,13
3,41,0,84
3,40,92,9
3,40,0,84
3,41,110,7
3,41,0,90
3,40,96,11
3,40,0,69
3,41,112,18
3,41,0,88
3,40,98,13
3,40,0,64
3,41,116,29
3,29,104,163
3,41,0,18
3,41,118,108
3,29,0,30
3,41,0,168
3,39,100,9
3,39,0,95
3,36,92,2
3,36,0,107
3,36,90,84
3,36,0,173
3,48,116,13
3,48,0,94
3,47,98,5
3,47,0,78
3,48,106,15
3,48,0,96
3,47,102,5
3,47,0,75
3,48,110,12
3,48,0,96
3,47,98,1
3,47,0,69
3,48,114,32
3,36,84,170
3,48,0,2
3,48,118,117
3,36,0,138
3,48,0,41
3,46,102,0
3,46,0,86
3,43,110,9
3,43,0,93
3,43,124,287
3,43,0,96
3,43,124,106
3,43,0,93
3,41,114,483
3,41,0,91
3,41,122,108
3,41,0,88
3,36,106,384
3,36,0,62
3,40,94,130
3,40,0,80
3,43,110,112
3,43,0,96
3,46,110,96
3,46,0,75
3,50,116,117
3,50,0,515
3,36,94,162
3,36,0,159
3,48,106,28
3,48,0,99
3,47,86,5
3,47,0,77
3,48,94,7
3,48,0,110
3,47,88,4
3,47,0,73
3,48,102,7
3,48,0,103
3,47,74,5
3,47,0,71
3,48,100,11
3,48,0,136
3,36,78,43
3,36,0,105
3,48,100,9
3,48,0,199
3,46,92,2
3,46,0,94
3,43,102,1
3,43,0,101
3,36,96,91
3,36,0,179
3,48,106,4
3,48,0,102
3,47,88,2
3,47,0,71
3,48,108,26
3,48,0,103
3,47,84,1
3,47,0,68
3,48,102,13
3,48,0,103
3,47,96,1
3,47,0,62
3,48,112,30
3,48,0,158
3,36,84,19
3,36,0,106
3,48,116,9
3,48,0,179
3,46,102,15
3,46,0,81
3,43,114,16
3,43,0,131
3,29,100,57
3,41,108,176
3,29,0,13
3,41,0,84
3,40,92,9
3,40,0,84
3,41,110,7
3,41,0,90
3,40,96,11
3,40,0,69
3,41,112,18
3,41,0,88
3,40,98,13
3,40,0,64
3,41,116,29
3,29,104,163
3,41,0,18
3,41,118,108
3,29,0,30
3,41,0,168
3,39,100,9
3,39,0,95
3,36,92,2
3,36,0,107
3,36,90,84
3,36,0,173
3,48,116,13
3,48,0,94
3,47,98,5
3,47,0,78
3,48,106,15
3,48,0,96
3,47,102,5
3,47,0,75
3,48,110,12
3,48,0,96
3,47,98,1
3,47,0,69
3,48,114,32
3,36,84,170
3,48,0,2
3,48,118,117
3,36,0,138
3,48,0,41
3,46,102,0
3,46,0,86
3,43,110,9
3,43,0,93
3,43,124,287
3,43,0,96
3,43,124,106
3,43,0,93
3,41,114,483
3,41,0,91
3,41,122,108
3,41,0,88
3,36,106,384
3,36,0,62
3,40,94,130
3,40,0,80
3,43,110,112
3,43,0,96
3,46,110,96
3,46,0,75
3,50,116,117
3,50,0,515
3,41,105,3247
3,41,0,44
3,41,105,51
3,41,0,85
3,39,105,7
3,39,0,49
3,39,105,51
3,39,0,74
3,38,105,16
3,38,0,54
3,38,105,42
3,38,0,83
3,36,105,4
3,36,0,51
3,36,105,49
3,36,0,72
3,41,105,18
3,41,0,56
3,41,105,39
3,41,0,86
3,39,105,19
3,39,0,55
3,39,105,37
3,39,0,79
3,38,105,21
3,38,0,48
3,38,105,47
3,38,0,79
3,36,105,9
3,36,0,60
3,36,105,40
3,36,0,53
3,36,105,39
3,36,0,53
3,36,105,42
3,36,0,88
3,34,105,3
3,34,0,55
3,34,105,49
3,34,0,74
3,33,105,18
3,33,0,51
3,33,105,45
3,33,0,76
3,31,105,16
3,31,0,53
3,31,105,51
3,31,0,72
3,36,105,44
3,36,0,49
3,36,105,37
3,36,0,74
3,34,105,14
3,34,0,55
3,34,105,45
3,34,0,71
3,33,105,23
3,33,0,54
3,33,105,41
3,33,0,77
3,31,105,7
3,31,0,51
3,31,105,51
3,31,0,46
3,41,105,58
3,41,0,56
3,41,105,32
3,41,0,72
3,39,105,23
3,39,0,56
3,39,105,37
3,39,0,53
3,38,105,44
3,38,0,58
3,38,105,46
3,38,0,86
3,36,105,7
3,36,0,53
3,36,105,44
3,36,0,67
3,41,105,23
3,41,0,58
3,41,105,37
3,41,0,63
3,39,105,30
3,39,0,46
3,39,105,63
3,39,0,39
3,38,105,51
3,38,0,51
3,38,105,51
3,38,0,55
3,36,105,40
3,36,0,58
3,36,105,49
3,36,0,57
3,43,105,35
3,43,0,111
3,36,94,1420
3,36,0,159
3,48,106,28
3,48,0,99
3,47,86,5
3,47,0,77
3,48,94,7
3,48,0,110
3,47,88,4
3,47,0,73
3,48,102,7
3,48,0,103
3,47,74,5
3,47,0,71
3,48,100,11
3,48,0,136
3,36,78,43
3,36,0,105
3,48,100,9
3,48,0,199
3,46,92,2
3,46,0,94
3,43,102,1
3,43,0,101
3,36,96,91
3,36,0,179
3,48,106,4
3,48,0,102
3,47,88,2
3,47,0,71
3,48,108,26
3,48,0,103
3,47,84,1
3,47,0,68
3,48,102,13
3,48,0,103
3,47,96,1
3,47,0,62
3,48,112,30
3,48,0,158
3,36,84,19
3,36,0,106
3,48,116,9
3,48,0,179
3,46,102,15
3,46,0,81
3,43,114,16
3,43,0,131
3,29,100,57
3,41,108,176
3,29,0,13
3,41,0,84
3,40,92,9
3,40,0,84
3,41,110,7
3,41,0,90
3,40,96,11
3,40,0,69
3,41,112,18
3,41,0,88
3,40,98,13
3,40,0,64
3,41,116,29
3,29,104,163
3,41,0,18
3,41,118,108
3,29,0,30
3,41,0,168
3,39,100,9
3,39,0,95
3,36,92,2
3,36,0,107
3,36,90,84
3,36,0,173
3,48,116,13
3,48,0,94
3,47,98,5
3,47,0,78
3,48,106,15
3,48,0,96
3,47,102,5
3,47,0,75
3,48,110,12
3,48,0,96
3,47,98,1
3,47,0,69
3,48,114,32
3,36,84,170
3,48,0,2
3,48,118,117
3,36,0,138
3,48,0,41
3,46,102,0
3,46,0,86
3,43,110,9
3,43,0,93
3,43,124,287
3,43,0,96
3,43,124,106
3,43,0,93
3,41,114,483
3,41,0,91
3,41,122,108
3,41,0,88
3,36,106,384
3,36,0,62
3,40,94,130
3,40,0,80
3,43,110,112
3,43,0,96
3,46,110,96
3,46,0,75
3,50,116,117
3,50,0,515
3,36,94,162
3,36,0,159
3,48,106,28
3,48,0,99
3,47,86,5
3,47,0,77
3,48,94,7
3,48,0,110
3,47,88,4
3,47,0,73
3,48,102,7
3,48,0,103
3,47,74,5
3,47,0,71
3,48,100,11
3,48,0,136
3,36,78,43
3,36,0,105
3,48,100,9
3,48,0,199
3,46,92,2
3,46,0,94
3,43,102,1
3,43,0,101
3,36,96,91
3,36,0,179
3,48,106,4
3,48,0,102
3,47,88,2
3,47,0,71
3,48,108,26
3,48,0,103
3,47,84,1
3,47,0,68
3,48,102,13
3,48,0,103
3,47,96,1
3,47,0,62
3,48,112,30
3,48,0,158
3,36,84,19
3,36,0,106
3,48,116,9
3,48,0,179
3,46,102,15
3,46,0,81
3,43,114,16
3,43,0,131
3,29,100,57
3,41,108,176
3,29,0,13
3,41,0,84
3,40,92,9
3,40,0,84
3,41,110,7
3,41,0,90
3,40,96,11
3,40,0,69
3,41,112,18
3,41,0,88
3,40,98,13
3,40,0,64
3,41,116,29
3,29,104,163
3,41,0,18
3,41,118,108
3,29,0,30
3,41,0,168
3,39,100,9
3,39,0,95
3,36,92,2
3,36,0,107
3,36,90,84
3,36,0,173
3,48,116,13
3,48,0,94
3,47,98,5
3,47,0,78
3,48,106,15
3,48,0,96
3,47,102,5
3,47,0,75
3,48,110,12
3,48,0,96
3,47,98,1
3,47,0,69
3,48,114,32
3,36,84,170
3,48,0,2
3,48,118,117
3,36,0,138
3,48,0,41
3,46,102,0
3,46,0,86
3,43,110,9
3,43,0,93
3,43,124,287
3,43,0,96
3,43,124,106
3,43,0,93
3,41,114,483
3,41,0,91
3,41,122,108
3,41,0,88
3,36,106,384
3,36,0,62
3,40,94,130
3,40,0,80
3,43,110,112
3,43,0,96
3,46,110,96
3,46,0,75
3,50,116,117
3,50,0,515
3,41,105,3247
3,41,0,44
3,41,105,51
3,41,0,85
3,39,105,7
3,39,0,49
3,39,105,51
3,39,0,74
3,38,105,16
3,38,0,54
3,38,105,42
3,38,0,83
3,36,105,4
3,36,0,51
3,36,105,49
3,36,0,72
3,41,105,18
3,41,0,56
3,41,105,39
3,41,0,86
3,39,105,19
3,39,0,55
3,39,105,37
3,39,0,79
3,38,105,21
3,38,0,48
3,38,105,47
3,38,0,79
3,36,105,9
3,36,0,60
3,36,105,40
3,36,0,53
3,36,105,39
3,36,0,53
3,36,105,42
3,36,0,88
3,34,105,3
3,34,0,55
3,34,105,49
3,34,0,74
3,33,105,18
3,33,0,51
3,33,105,45
3,33,0,76
3,31,105,16
3,31,0,53
3,31,105,51
3,31,0,72
3,36,105,44
3,36,0,49
3,36,105,37
3,36,0,74
3,34,105,14
3,34,0,55
3,34,105,45
3,34,0,71
3,33,105,23
3,33,0,54
3,33,105,41
3,33,0,77
3,31,105,7
3,31,0,51
3,31,105,51
3,31,0,46
3,41,105,58
3,41,0,56
3,41,105,32
3,41,0,72
3,39,105,23
3,39,0,56
3,39,105,37
3,39,0,53
3,38,105,44
3,38,0,58
3,38,105,46
3,38,0,86
3,36,105,7
3,36,0,53
3,36,105,44
3,36,0,67
3,41,105,23
3,41,0,58
3,41,105,37
3,41,0,63
3,39,105,30
3,39,0,46
3,39,105,63
3,39,0,39
3,38,105,51
3,38,0,51
3,38,105,51
3,38,0,55
3,36,105,40
3,36,0,58
3,36,105,49
3,36,0,57
3,43,105,35
3,43,0,111
3,36,94,1420
3,36,0,159
3,48,106,28
3,48,0,99
3,47,86,5
3,47,0,77
3,48,94,7
3,48,0,110
3,47,88,4
3,47,0,73
3,48,102,7
3,48,0,103
3,47,74,5
3,47,0,71
3,48,100,11
3,48,0,136
3,36,78,43
3,36,0,105
3,48,100,9
3,48,0,199
3,46,92,2
3,46,0,94
3,43,102,1
3,43,0,101
3,36,96,91
3,36,0,179
3,48,106,4
3,48,0,102
3,47,88,2
3,47,0,71
3,48,108,26
3,48,0,103
3,47,84,1
3,47,0,68
3,48,102,13
3,48,0,103
3,47,96,1
3,47,0,62
3,48,112,30
3,48,0,158
3,36,84,19
3,36,0,106
3,48,116,9
3,48,0,179
3,46,102,15
3,46,0,81
3,43,114,16
3,43,0,131
3,29,100,57
3,41,108,176
3,29,0,13
3,41,0,84
3,40,92,9
3,40,0,84
3,41,110,7
3,41,0,90
3,40,96,11
3,40,0,69
3,41,112,18
3,41,0,88
3,40,98,13
3,40,0,64
3,41,116,29
3,29,104,163
3,41,0,18
3,41,118,108
3,29,0,30
3,41,0,168
3,39,100,9
3,39,0,95
3,36,92,2
3,36,0,107
3,36,90,84
3,36,0,173
3,48,116,13
3,48,0,94
3,47,98,5
3,47,0,78
3,48,106,15
3,48,0,96
3,47,102,5
3,47,0,75
3,48,110,12
3,48,0,96
3,47,98,1
3,47,0,69
3,48,114,32
3,36,84,170
3,48,0,2
3,48,118,117
3,36,0,138
3,48,0,41
3,46,102,0
3,46,0,86
3,43,110,9
3,43,0,93
3,43,124,287
3,43,0,96
3,43,124,106
3,43,0,93
3,41,114,483
3,41,0,91
3,41,122,108
3,41,0,88
3,36,106,384
3,36,0,62
3,40,94,130
3,40,0,80
3,43,110,112
3,43,0,96
3,46,110,96
3,46,0,75
3,50,116,117
3,50,0,515
3,36,94,162
3,36,0,159
3,48,106,28
3,48,0,99
3,47,86,5
3,47,0,77
3,48,94,7
3,48,0,110
3,47,88,4
3,47,0,73
3,48,102,7
3,48,0,103
3,47,74,5
3,47,0,71
3,48,100,11
3,48,0,136
3,36,78,43
3,36,0,105
3,48,100,9
3,48,0,199
3,46,92,2
3,46,0,94
3,43,102,1
3,43,0,101
3,36,96,91
3,36,0,179
3,48,106,4
3,48,0,102
3,47,88,2
3,47,0,71
3,48,108,26
3,48,0,103
3,47,84,1
3,47,0,68
3,48,102,13
3,48,0,103
3,47,96,1
3,47,0,62
3,48,112,30
3,48,0,158
3,36,84,19
3,36,0,106
3,48,116,9
3,48,0,179
3,46,102,15
3,46,0,81
3,43,114,16
3,43,0,131
3,29,100,57
3,41,108,176
3,29,0,13
3,41,0,84
3,40,92,9
3,40,0,84
3,41,110,7
3,41,0,90
3,40,96,11
3,40,0,69
3,41,112,18
3,41,0,88
3,40,98,13
3,40,0,64
3,41,116,29
3,29,104,163
3,41,0,18
3,41,118,108
3,29,0,30
3,41,0,168
3,39,100,9
3,39,0,95
3,36,92,2
3,36,0,107
3,36,90,84
3,36,0,173
3,48,116,13
3,48,0,94
3,47,98,5
3,47,0,78
3,48,106,15
3,48,0,96
3,47,102,5
3,47,0,75
3,48,110,12
3,48,0,96
3,47,98,1
3,47,0,69
3,48,114,32
3,36,84,170
3,48,0,2
3,48,118,117
3,36,0,138
3,48,0,41
3,46,102,0
3,46,0,86
3,43,110,9
3,43,0,93
3,43,124,287
3,43,0,96
3,43,124,106
3,43,0,93
3,41,114,483
3,41,0,91
3,41,122,108
3,41,0,88
3,36,106,384
3,36,0,62
3,40,94,130
3,40,0,80
3,43,110,112
3,43,0,96
3,46,110,96
3,46,0,75
3,50,116,117
3,50,0,515
3,43,124,340
3,43,0,96
3,43,124,106
3,43,0,93
3,41,114,483
3,41,0,91
3,41,122,108
3,41,0,88
3,36,106,384
3,36,0,62
3,40,94,130
3,40,0,80
3,43,110,112
3,43,0,96
3,46,110,96
3,46,0,75
3,50,116,117
3,50,0,515
3,43,124,340
3,43,0,96
3,43,124,106
3,43,0,93
3,41,114,483
3,41,0,91
3,41,122,108
3,41,0,88
3,36,120,365
3,36,0,150
3,40,106,35
3,40,0,136
3,43,110,47
3,43,0,122
3,46,104,54
3,46,0,97
3,50,108,97
3,50,0,118
3,48,96,95
3,48,0,118
3,46,114,105
3,46,0,141
3,36,110,144
3,36,0,768
4,67,110,1733
4,72,110,0
4,64,96,2
4,72,0,62
4,64,0,7
4,67,0,4
4,72,112,307
4,67,110,0
4,64,98,3
4,72,0,63
4,64,0,4
4,67,0,1
4,67,104,305
4,72,106,3
4,64,98,2
4,72,0,66
4,67,0,2
4,64,0,4
4,72,106,302
4,67,104,1
4,64,90,4
4,64,0,68
4,72,0,4
4,67,0,4
4,67,108,315
4,72,110,0
4,64,94,0
4,72,0,72
4,64,0,9
4,67,0,0
4,67,106,319
4,72,112,0
4,64,100,2
4,72,0,73
4,67,0,1
4,64,0,6
4,72,114,284
4,67,110,0
4,64,96,2
4,72,0,73
4,64,0,2
4,67,0,1
4,72,106,301
4,67,112,2
4,64,92,0
4,64,0,80
4,72,0,4
4,67,0,6
4,69,120,302
4,65,92,0
4,72,116,1
4,72,0,61
4,69,0,5
4,65,0,29
4,69,118,285
4,65,88,0
4,72,118,1
4,72,0,59
4,69,0,0
4,65,0,15
4,72,112,310
4,69,118,0
4,65,86,1
4,69,0,53
4,72,0,4
4,65,0,24
4,72,110,278
4,69,114,1
4,65,80,0
4,72,0,67
4,69,0,1
4,65,0,16
4,67,110,321
4,72,110,2
4,64,100,2
4,64,0,63
