track,note,velocity,time
0,36,101,1536
0,35,105,0
0,59,68,0
0,36,110,0
0,60,92,0
0,55,78,0
0,60,87,176
0,44,85,8
0,62,92,172
0,35,78,16
0,40,103,16
0,60,96,0
0,48,92,0
0,55,85,180
0,44,83,176
0,60,90,4
0,67,91,164
0,51,65,132
0,36,96,0
0,60,96,0
0,35,97,4
0,55,77,32
0,60,84,156
0,44,105,4
0,62,68,0
0,35,72,12
0,40,105,164
0,48,84,0
0,60,90,0
0,55,84,168
0,60,94,152
0,44,55,12
0,67,94,148
0,48,59,148
0,55,66,8
0,35,101,0
0,59,78,0
0,36,91,0
0,60,103,0
0,55,77,96
0,60,100,144
0,44,111,16
0,62,95,148
0,35,93,24
0,60,94,148
0,40,103,4
0,48,94,4
0,55,80,148
0,60,95,168
0,44,87,16
0,67,98,168
0,60,96,24
0,42,127,12
0,51,72,0
0,36,89,0
0,35,103,4
0,55,82,44
0,60,86,160
0,42,57,12
0,62,78,136
0,35,77,24
0,60,90,152
0,40,109,12
0,42,101,0
0,48,86,0
0,55,80,0
0,60,80,24
0,46,74,12
0,67,70,152
0,48,85,44
0,55,86,8
0,60,83,64
0,36,105,28
0,64,74,0
0,60,71,0
0,64,107,0
0,35,99,0
0,42,27,0
0,36,77,4
0,48,74,0
0,44,85,76
0,35,66,0
0,36,81,8
0,48,77,0
0,36,79,8
0,48,85,0
0,35,111,0
0,64,96,4
0,60,81,4
0,64,98,72
0,67,92,0
0,44,109,8
0,66,97,108
0,50,85,4
0,62,91,4
0,57,99,16
0,62,92,56
0,66,60,20
0,62,65,4
0,38,95,8
0,38,73,0
0,50,70,0
0,66,101,0
0,35,109,0
0,44,97,4
0,62,94,4
0,35,71,0
0,38,54,8
0,50,57,0
0,38,80,8
0,50,82,0
0,35,107,4
0,44,95,4
0,51,86,204
0,58,85,48
0,67,69,12
0,63,89,12
0,63,105,12
0,39,101,4
0,70,100,0
0,35,109,0
0,39,67,4
0,51,63,0
0,67,86,8
0,69,103,44
0,44,103,8
0,35,92,0
0,39,31,8
0,51,58,0
0,67,94,12
0,39,74,8
0,51,79,0
0,35,101,0
0,44,107,368
0,70,106,0
0,50,90,96
0,57,55,8
0,65,74,4
0,62,66,8
0,60,82,4
0,38,83,4
0,38,74,0
0,50,71,0
0,69,84,0
0,35,105,0
0,65,87,8
0,65,92,364
0,44,103,0
0,38,63,8
0,35,92,0
0,50,53,8
0,38,78,8
0,50,80,0
0,35,105,4
0,44,109,16
0,51,95,212
0,58,86,32
0,67,61,8
0,63,65,0
0,63,95,0
0,39,89,4
0,35,97,0
0,39,68,0
0,51,64,0
0,70,94,0
0,67,109,4
0,69,104,8
0,44,115,56
0,35,89,0
0,39,33,8
0,51,51,0
0,67,94,0
0,39,70,8
0,51,77,0
0,35,109,0
0,44,107,12
0,70,104,8
0,50,77,156
0,57,76,8
0,69,58,4
0,62,71,16
0,38,95,8
0,38,70,0
0,50,75,0
0,66,90,0
0,72,102,0
0,35,107,0
0,66,41,4
0,69,103,0
0,70,96,204
0,44,105,96
0,35,101,0
0,38,76,8
0,50,62,0
0,69,96,0
0,38,85,8
0,50,88,0
0,35,97,4
0,44,109,4
0,72,96,4
0,55,85,52
0,62,86,32
0,72,67,48
0,67,115,0
0,65,100,0
0,72,101,0
0,74,100,0
0,67,73,0
0,43,86,8
0,31,78,0
0,35,99,0
0,43,67,0
0,44,119,80
0,35,90,0
0,31,71,8
0,43,67,0
0,71,65,64
0,31,78,8
0,43,78,0
0,35,99,0
0,71,97,4
0,44,117,64
0,38,74,24
0,53,78,36
0,69,59,12
0,59,95,4
0,62,95,8
0,31,95,8
0,31,85,0
0,43,86,0
0,35,101,0
0,69,96,4
0,67,89,4
0,44,105,108
0,35,67,0
0,31,62,8
0,43,67,0
0,71,77,0
0,31,71,8
0,43,79,0
0,35,107,4
0,71,88,8
0,44,103,80
0,48,85,36
0,55,86,48
0,64,55,0
0,60,49,8
0,60,83,8
0,36,101,4
0,64,107,0
0,35,99,0
0,36,67,4
0,48,67,0
0,42,64,88
0,35,65,0
0,36,62,8
0,48,54,0
0,44,47,4
0,36,71,8
0,48,77,0
0,35,111,0
0,60,76,4
0,64,88,0
0,67,90,28
0,64,94,4
0,42,68,8
0,50,85,144
0,44,51,0
0,66,93,8
0,62,77,8
0,57,99,16
0,62,92,4
0,66,69,4
0,69,66,0
0,62,56,0
0,38,67,8
0,50,67,0
0,66,101,0
0,35,105,0
0,38,99,0
0,42,83,8
0,62,86,12
0,35,75,0
0,38,55,8
0,50,65,0
0,44,52,4
0,38,69,8
0,50,69,0
0,35,111,4
0,42,105,0
0,44,65,180
0,51,86,44
0,58,85,48
0,70,65,16
0,63,71,12
0,67,38,0
0,63,105,12
0,70,97,4
0,35,101,0
0,39,70,4
0,51,83,0
0,67,86,4
0,39,95,8
0,42,95,52
0,69,103,8
0,35,86,0
0,39,48,8
0,51,63,0
0,44,61,4
0,67,101,0
0,39,70,8
0,51,80,0
0,35,107,0
0,42,93,20
0,70,105,12
0,44,59,40
0,50,90,40
0,57,55,68
0,62,62,4
0,69,66,20
0,69,86,4
0,72,40,0
0,60,82,4
0,38,90,4
0,38,71,0
0,50,73,0
0,35,99,0
0,65,87,0
0,42,97,368
0,65,92,12
0,35,78,0
0,38,62,8
0,50,60,0
0,44,56,4
0,38,69,8
0,50,74,0
0,35,107,4
0,42,92,16
0,44,66,140
0,51,95,56
0,58,86,4
0,70,70,12
0,67,61,12
0,63,62,0
0,63,95,0
0,35,101,4
0,39,73,4
0,51,83,0
0,39,99,4
0,70,94,0
0,67,109,0
0,69,101,208
0,42,80,92
0,35,89,0
0,39,51,8
0,51,64,0
0,67,96,0
0,44,59,4
0,39,69,8
0,51,78,0
0,35,95,0
0,42,95,0
0,70,99,4
0,44,76,64
0,50,77,52
0,57,76,36
0,62,62,12
0,69,64,0
0,72,64,4
0,62,71,16
0,38,92,4
0,38,78,0
0,50,78,0
0,35,99,0
0,72,107,4
0,69,103,0
0,66,94,4
0,70,95,212
0,42,81,88
0,69,96,168
0,35,86,0
0,38,80,8
0,50,72,0
0,44,70,0
0,38,84,8
0,50,91,0
0,35,95,4
0,72,103,36
0,42,90,4
0,44,64,120
0,55,85,40
0,62,86,32
0,67,64,24
0,71,67,0
0,74,62,0
0,31,95,20
0,67,115,16
0,65,105,8
0,72,105,0
0,74,106,0
0,35,97,4
0,31,76,4
0,43,78,0
0,42,89,124
0,35,83,0
0,31,60,8
0,43,70,0
0,44,73,4
0,71,88,0
0,31,78,8
0,43,78,0
0,35,111,0
0,42,86,48
0,44,71,36
0,31,95,48
0,31,97,4
0,43,93,0
0,71,108,0
0,71,113,0
0,35,109,0
0,46,90,0
0,62,101,4
0,50,123,4
0,31,74,4
0,71,105,8
0,71,93,0
0,31,89,8
0,43,84,0
0,62,88,0
0,48,99,0
0,31,67,72
0,71,117,16
0,62,97,12
0,71,97,4
0,47,90,0
0,31,82,8
0,43,76,0
0,33,98,56
0,72,117,4
0,35,111,0
0,45,113,0
0,72,105,4
0,33,98,4
0,45,86,0
0,63,103,0
0,46,101,4
0,35,117,84
0,43,103,0
0,46,117,12
0,74,109,48
0,35,108,12
0,65,100,8
0,74,108,0
0,35,91,8
0,47,92,0
0,48,99,8
0,36,89,0
0,48,89,0
0,75,121,0
0,48,95,0
0,35,109,0
0,46,123,0
0,57,85,0
0,67,75,0
0,60,82,0
0,67,97,12
0,75,123,0
0,72,103,4
0,79,70,0
0,55,81,188
0,60,67,4
0,42,119,4
0,63,85,148
0,36,85,8
0,48,83,0
0,48,85,20
0,36,90,8
0,48,91,0
0,42,117,0
0,55,81,160
0,60,73,0
0,42,83,20
0,63,105,36
0,43,90,4
0,35,71,12
0,75,107,4
0,55,86,4
0,60,66,4
0,68,74,0
0,48,89,0
0,48,72,0
0,80,66,0
0,36,89,4
0,48,88,0
0,35,115,0
0,42,121,0
0,68,99,8
0,72,101,0
0,75,108,0
0,56,82,128
0,60,62,60
0,42,109,8
0,63,99,140
0,36,77,8
0,48,74,0
0,48,70,16
0,36,84,8
0,48,86,0
0,42,99,0
0,56,93,152
0,60,72,36
0,42,107,28
0,63,92,80
0,35,61,12
0,47,93,32
0,62,83,0
0,69,83,4
0,81,70,0
0,47,90,4
0,35,89,0
0,47,84,0
0,35,115,0
0,42,126,0
0,74,107,8
0,74,112,4
0,66,102,0
0,55,72,144
0,72,92,0
0,42,80,0
0,59,89,4
0,72,107,8
0,62,90,172
0,35,71,0
0,47,73,0
0,71,100,4
0,71,105,4
0,67,71,36
0,79,53,28
0,35,84,0
0,47,87,0
0,42,109,0
0,47,87,0
0,72,99,0
0,55,90,20
0,72,97,4
0,59,86,128
0,74,105,8
0,42,99,4
0,74,99,0
0,62,99,16
0,35,55,44
0,62,75,0
0,69,89,4
0,74,113,4
0,46,103,12
0,69,89,8
0,74,101,0
0,65,92,4
0,81,72,0
0,46,107,4
0,34,72,4
0,46,74,0
0,35,113,0
0,42,119,0
0,55,85,128
0,58,85,80
0,42,64,32
0,62,92,0
0,34,66,8
0,46,65,0
0,67,70,24
0,79,55,4
0,34,71,4
0,46,70,0
0,42,115,0
0,67,84,4
0,46,95,4
0,55,69,160
0,42,74,72
0,58,101,4
0,62,83,68
0,35,60,28
0,60,72,24
0,72,107,0
0,67,81,0
0,45,82,8
0,33,89,0
0,45,76,0
0,45,107,0
0,35,117,0
0,42,115,0
0,84,51,0
0,72,109,4
0,64,100,0
0,67,96,0
0,55,85,168
0,72,113,68
0,60,86,4
0,42,93,0
0,72,108,8
0,67,99,0
0,33,73,8
0,45,63,0
0,33,88,8
0,45,78,0
0,72,115,0
0,42,111,0
0,45,92,4
0,72,104,0
0,55,97,88
0,72,113,128
0,72,105,12
0,60,92,0
0,42,95,0
0,66,90,24
0,66,78,8
0,60,75,4
0,72,117,8
0,44,101,4
0,44,97,0
0,32,72,4
0,44,62,0
0,72,96,0
0,35,107,0
0,42,117,0
0,63,83,4
0,66,87,0
0,54,105,172
0,86,69,84
0,60,92,20
0,42,92,0
0,74,107,0
0,74,93,0
0,66,111,0
0,32,68,8
0,44,62,0
0,32,67,8
0,44,72,0
0,44,99,0
0,42,117,0
0,54,111,124
0,84,65,116
0,72,111,0
0,60,90,0
0,42,70,0
0,72,92,0
0,66,109,104
0,83,72,8
0,43,89,8
0,31,69,0
0,43,71,0
0,71,119,0
0,50,107,0
0,35,109,0
0,42,117,0
0,71,97,8
0,67,81,4
0,62,92,0
0,59,70,0
0,69,77,4
0,55,86,0
0,81,64,0
0,69,92,12
0,60,89,4
0,67,111,16
0,79,68,0
0,59,92,12
0,67,95,0
0,59,76,0
0,42,83,0
0,59,92,32
0,67,97,0
0,67,86,0
0,79,67,4
0,31,74,4
0,43,66,0
0,67,115,8
0,31,80,8
0,43,75,0
0,42,105,0
0,55,95,4
0,59,85,116
0,62,76,64
0,42,90,0
0,67,97,176
0,31,107,4
0,71,113,0
0,71,105,0
0,45,109,0
0,50,123,0
0,31,98,4
0,43,95,0
0,46,111,0
0,62,96,8
0,71,99,0
0,71,105,40
0,45,97,0
0,50,111,0
0,31,86,8
0,43,87,0
0,31,103,4
0,62,86,0
0,71,89,0
0,71,117,68
0,71,98,12
0,31,109,4
0,62,84,0
0,35,111,0
0,31,83,8
0,43,80,0
0,72,99,76
0,72,117,0
0,63,95,4
0,72,115,0
0,33,96,8
0,45,89,0
0,43,113,0
0,33,117,4
0,46,123,0
0,48,119,0
0,43,99,8
0,48,95,4
0,35,109,28
0,46,125,0
0,74,107,64
0,74,71,0
0,74,109,4
0,65,97,4
0,47,117,8
0,43,95,0
0,35,105,4
0,35,89,4
0,47,89,0
0,45,62,0
0,35,107,4
0,41,83,0
0,67,94,4
0,72,102,0
0,75,109,0
0,36,91,4
0,48,86,0
0,75,121,0
0,48,95,0
0,35,95,0
0,42,119,0
0,59,121,0
0,67,75,0
0,60,82,0
0,36,103,4
0,55,81,192
0,60,67,124
0,59,69,4
0,63,80,0
0,63,85,140
0,36,85,8
0,48,67,0
0,63,73,4
0,48,85,20
0,36,88,8
0,48,89,0
0,40,103,0
0,35,95,0
0,44,123,0
0,59,115,0
0,55,81,160
0,60,73,0
0,59,80,20
0,61,56,0
0,63,105,52
0,31,93,8
0,35,51,12
0,51,64,0
0,60,66,4
0,75,107,0
0,68,74,0
0,36,111,4
0,48,72,0
0,36,83,4
0,48,86,0
0,35,113,0
0,59,117,0
0,68,100,0
0,72,106,0
0,75,104,0
0,56,82,128
0,60,62,60
0,59,62,8
0,63,117,0
0,63,99,132
0,36,81,8
0,48,71,0
0,63,58,4
0,48,70,16
0,36,91,8
0,48,92,0
0,35,103,0
0,40,99,0
0,44,105,0
0,59,111,0
0,56,93,152
0,60,72,24
0,59,71,28
0,61,82,0
0,63,92,56
0,31,81,0
0,35,44,4
0,51,25,0
0,47,93,32
0,62,83,4
0,69,83,4
0,35,93,4
0,47,90,0
0,35,113,0
0,59,115,0
0,35,109,4
0,74,107,4
0,66,105,12
0,74,109,0
0,55,72,144
0,59,62,12
0,63,101,0
0,59,89,4
0,72,89,8
0,72,107,0
0,62,90,172
0,35,75,0
0,47,73,0
0,63,59,4
0,71,105,8
0,71,97,8
0,67,71,24
0,35,82,0
0,47,86,0
0,40,103,0
0,35,95,0
0,44,111,0
0,59,99,0
0,47,87,0
0,72,99,0
0,55,90,20
0,72,93,12
0,59,86,0
0,74,105,8
0,59,92,4
0,61,76,0
0,74,98,0
0,62,99,36
0,31,90,36
0,35,53,0
0,51,58,0
0,62,75,8
0,69,89,4
0,74,113,4
0,46,103,0
0,34,109,4
0,65,95,0
0,69,93,0
0,74,104,0
0,34,72,4
0,46,72,0
0,35,111,0
0,59,113,0
0,55,85,128
0,58,85,64
0,59,59,32
0,63,107,0
0,62,92,0
0,34,63,8
0,46,60,0
0,63,56,4
0,67,70,4
0,34,67,8
0,46,69,0
0,35,103,0
0,40,99,0
0,44,109,0
0,59,113,0
0,67,85,4
0,46,95,4
0,55,69,160
0,62,59,4
0,59,56,56
0,61,83,0
0,58,101,4
0,62,83,40
0,35,53,28
0,51,59,0
0,31,95,8
0,60,72,24
0,72,107,0
0,67,81,0
0,33,78,8
0,45,69,0
0,45,107,0
0,35,111,0
0,59,117,0
0,33,105,4
0,72,109,0
0,64,100,4
0,67,91,4
0,55,85,80
0,72,113,92
0,60,86,4
0,59,64,0
0,63,92,0
0,72,103,0
0,67,99,0
0,33,63,8
0,45,58,0
0,63,68,4
0,33,80,8
0,45,80,0
0,40,105,0
0,35,92,0
0,44,109,0
0,59,97,0
0,45,92,4
0,72,115,4
0,72,99,0
0,55,97,100
0,72,113,100
0,60,92,12
0,59,49,0
0,61,65,0
0,72,104,0
0,66,90,44
0,33,99,4
0,35,56,4
0,51,56,0
0,66,78,0
0,60,75,4
0,72,117,0
0,32,105,4
0,44,97,0
0,32,64,4
0,44,59,0
0,35,92,0
0,59,111,0
0,72,96,8
0,63,80,0
0,66,89,0
0,54,105,172
0,60,92,4
0,59,78,0
0,63,99,0
0,74,107,4
0,74,91,4
0,66,111,0
0,32,63,8
0,44,65,0
0,63,89,4
0,32,63,8
0,44,72,0
0,44,99,0
0,40,97,0
0,35,78,0
0,44,101,0
0,59,111,0
0,54,111,176
0,62,52,0
0,72,111,132
0,60,90,0
0,59,67,0
0,61,58,0
0,72,84,0
0,66,109,92
0,51,47,4
0,32,107,8
0,31,62,8
0,43,62,0
0,71,95,0
0,71,119,0
0,50,107,0
0,35,109,0
0,59,111,0
0,31,74,4
0,62,71,8
0,67,81,0
0,59,70,0
0,69,77,4
0,55,86,0
0,69,84,12
0,60,84,4
0,67,111,8
0,59,78,20
0,67,77,0
0,59,76,0
0,59,63,0
0,63,90,0
0,67,86,0
0,31,42,8
0,43,58,0
0,67,115,0
0,59,87,4
0,67,89,0
0,35,75,0
0,63,74,0
0,31,64,8
0,43,58,0
0,35,109,0
