track,note,velocity,time
1,67,101,3997
1,70,100,56
1,67,0,5
1,72,98,54
1,70,0,9
1,72,0,47
1,75,98,4
1,75,0,77
1,68,98,10
1,68,0,48
1,75,96,166
1,74,98,59
1,75,0,8
1,72,99,53
1,74,0,2
1,74,98,58
1,72,0,1
1,74,0,85
1,67,96,3
1,67,0,47
1,67,100,165
1,70,95,59
1,67,0,6
1,72,97,54
1,70,0,11
1,72,0,24
1,74,99,25
1,74,0,48
1,75,95,0
1,75,0,33
1,74,94,19
1,74,0,37
1,75,99,11
1,75,0,27
1,74,96,21
1,75,95,17
1,74,0,3
1,74,93,18
1,75,0,2
1,74,0,88
1,70,104,37
1,66,95,60
1,70,0,7
1,66,0,46
1,69,96,7
1,69,0,41
1,69,96,19
1,69,0,28
1,69,101,32
1,69,0,58
1,67,98,1
1,67,0,31
1,69,101,0
1,69,0,43
1,67,103,45
1,67,0,61
1,70,96,0
1,72,102,60
1,70,0,8
1,72,0,42
1,75,100,10
1,75,0,76
1,68,96,12
1,68,0,56
1,75,98,157
1,74,100,59
1,75,0,7
1,72,93,54
1,74,0,4
1,72,0,47
1,74,100,12
1,74,0,77
1,67,94,9
1,67,0,45
1,67,103,165
1,70,98,60
1,67,0,8
1,72,95,51
1,70,0,4
1,72,0,36
1,74,96,21
1,74,0,56
1,75,97,4
1,75,0,37
1,74,98,24
1,75,92,35
1,74,0,10
1,75,0,32
1,74,96,12
1,74,0,85
1,70,98,63
1,66,97,61
1,70,0,1
1,66,0,44
1,67,101,16
1,69,99,60
1,67,0,2
1,69,0,48
1,70,100,11
1,70,0,52
1,72,97,8
1,74,102,33
1,72,0,8
1,74,0,52
1,70,103,27
1,70,0,57
1,67,99,2
1,67,0,60
1,62,92,0
1,62,0,50
1,66,103,9
1,66,0,73
1,69,99,17
1,69,0,71
1,67,102,19
1,67,0,50
1,70,95,70
1,70,0,58
1,67,96,2
1,67,0,57
1,62,100,3
1,62,0,42
1,66,98,18
1,66,0,67
1,69,103,24
1,69,0,68
1,67,102,22
1,67,0,56
1,67,100,122
1,62,99,61
1,67,0,2
1,62,0,44
1,63,103,14
1,63,0,37
1,65,100,5
1,67,101,37
1,65,0,1
1,69,104,34
1,67,0,10
1,70,103,27
1,69,0,14
1,70,0,17
1,72,106,12
1,72,0,40
1,69,104,3
1,69,0,47
1,72,111,78
1,72,0,52
1,72,109,7
1,72,0,65
1,74,113,0
1,74,0,80
1,74,112,35
1,74,0,87
1,74,112,33
1,74,0,52
1,72,111,71
1,72,0,55
1,74,105,3
1,74,0,40
1,75,109,22
1,75,0,82
1,68,103,6
1,68,0,46
1,75,106,163
1,75,0,60
1,74,101,0
1,72,99,60
1,74,0,8
1,72,0,28
1,74,102,24
1,74,0,88
1,67,106,2
1,67,0,50
1,67,102,281
1,67,0,42
1,68,111,18
1,70,100,89
1,68,0,4
1,70,0,74
1,72,99,10
1,72,0,28
1,75,104,34
1,75,0,78
1,74,101,11
1,72,98,91
1,74,0,7
1,72,0,18
1,74,104,34
1,74,0,88
1,67,101,2
1,67,0,45
1,74,114,166
1,72,99,105
1,74,0,7
1,72,0,34
1,75,104,38
1,68,97,86
1,75,0,1
1,68,0,36
1,75,106,174
1,74,98,60
1,75,0,2
1,72,99,57
1,74,0,4
1,72,0,22
1,74,107,34
1,74,0,178
1,72,107,2
1,72,0,156
1,75,111,140
1,75,0,91
1,74,100,2
1,75,103,89
1,74,0,6
1,75,0,32
1,74,103,19
1,72,102,95
1,74,0,2
1,74,103,88
1,72,0,8
1,74,0,25
1,72,101,26
1,72,0,90
1,70,98,2
1,72,97,84
1,70,0,12
1,72,0,36
1,74,105,16
1,70,97,60
1,74,0,2
1,72,103,52
1,70,0,7
1,74,101,54
1,72,0,6
1,74,0,19
1,75,106,39
1,75,0,182
1,72,114,5
1,72,0,311
1,67,101,283
1,66,95,56
1,67,0,6
1,63,89,58
1,66,0,9
1,62,91,61
1,63,0,2
1,62,0,175
1,67,104,1555
1,70,98,59
1,67,0,7
1,72,93,54
1,70,0,11
1,72,0,34
1,75,99,15
1,75,0,88
1,68,96,1
1,68,0,50
1,75,99,161
1,75,0,56
1,74,99,4
1,72,96,60
1,74,0,7
1,72,0,26
1,74,99,27
1,67,96,90
1,74,0,2
1,67,0,39
1,67,99,172
1,70,93,57
1,67,0,11
1,72,97,48
1,70,0,8
1,72,0,20
1,74,101,32
1,75,92,58
1,74,0,4
1,75,0,41
1,74,92,17
1,75,93,35
1,74,0,8
1,75,0,28
1,74,99,20
1,74,0,95
1,70,101,53
1,66,92,59
1,70,0,6
1,66,0,32
1,69,106,22
1,67,90,57
1,69,0,6
1,67,0,27
1,69,100,28
1,67,96,34
1,69,0,8
1,67,0,32
1,69,101,19
1,69,0,55
1,67,105,37
1,70,95,60
1,67,0,3
1,72,99,56
1,70,0,3
1,72,0,39
1,75,104,18
1,75,0,83
1,68,96,7
1,68,0,42
1,75,100,168
1,74,98,61
1,75,0,5
1,72,101,54
1,74,0,4
1,72,0,18
1,74,101,38
1,74,0,88
1,67,94,2
1,67,0,40
1,67,98,173
1,70,94,55
1,67,0,7
1,72,96,51
1,70,0,2
1,72,0,26
1,74,113,39
1,74,0,36
1,75,104,15
1,75,0,32
1,74,101,19
1,74,0,31
1,75,103,13
1,75,0,31
1,74,98,14
1,74,0,93
1,70,104,71
1,70,0,58
1,66,98,2
1,66,0,33
1,67,105,32
1,69,92,51
1,67,0,5
1,70,96,35
1,69,0,3
1,72,99,78
1,70,0,5
1,74,95,33
1,72,0,2
1,74,0,71
1,70,103,13
1,67,97,56
1,70,0,9
1,62,95,55
1,67,0,1
1,62,0,54
1,66,95,5
1,69,99,87
1,66,0,3
1,67,97,85
1,69,0,3
1,67,0,40
1,70,95,81
1,67,94,61
1,70,0,1
1,62,91,59
1,67,0,1
1,62,0,50
1,66,100,11
1,66,0,85
1,69,95,5
1,69,0,83
1,67,99,5
1,67,0,52
1,67,105,129
1,67,0,60
1,62,94,0
1,62,0,42
1,63,104,18
1,63,0,35
1,65,104,11
1,65,0,32
1,67,98,10
1,69,99,35
1,67,0,8
1,70,100,30
1,69,0,12
1,70,0,18
1,72,107,13
1,72,0,42
1,69,103,5
1,69,0,47
1,72,109,65
1,72,0,47
1,72,99,11
1,72,0,57
1,74,106,3
1,74,0,73
1,74,103,46
1,74,0,75
1,74,107,45
1,74,0,60
1,74,109,59
1,72,99,61
1,74,0,4
1,72,0,31
1,75,104,24
1,75,0,87
1,68,96,2
1,68,0,48
1,75,98,164
1,74,99,59
1,75,0,8
1,72,99,53
1,74,0,7
1,72,0,29
1,74,103,24
1,74,0,87
1,67,99,3
1,67,0,45
1,67,95,286
1,67,0,50
1,68,94,9
1,70,95,90
1,68,0,7
1,70,0,76
1,72,96,6
1,72,0,46
1,75,94,14
1,75,0,81
1,74,96,8
1,72,95,91
1,74,0,5
1,72,0,18
1,74,99,36
1,74,0,91
1,67,95,0
1,67,0,46
1,74,97,165
1,72,98,98
1,74,0,9
1,72,0,47
1,75,96,25
1,75,0,91
1,68,96,0
1,68,0,45
1,75,95,165
1,74,98,60
1,75,0,2
1,72,95,58
1,74,0,7
1,72,0,20
1,74,101,33
1,74,0,175
1,72,96,4
1,72,0,181
1,75,104,120
1,75,0,83
1,74,95,5
1,75,93,91
1,74,0,10
1,75,0,31
1,74,95,19
1,72,98,90
1,74,0,6
1,72,0,81
1,74,96,3
1,74,0,46
1,72,96,13
1,72,0,90
1,70,92,2
1,72,93,89
1,70,0,9
1,72,0,46
1,74,98,6
1,74,0,60
1,70,89,0
1,72,96,60
1,70,0,16
1,72,0,42
1,74,96,2
1,74,0,53
1,75,106,8
1,75,0,175
1,72,99,5
1,72,0,308
1,67,99,277
1,66,98,74
1,67,0,1
1,66,0,70
1,63,89,8
1,63,0,80
1,62,91,1
1,62,0,250
1,67,100,8170
1,70,93,60
1,67,0,10
1,72,98,50
1,70,0,6
1,72,0,34
1,75,95,20
1,68,99,91
1,75,0,4
1,68,0,39
1,75,100,165
1,75,0,51
1,75,96,10
1,72,95,60
1,75,0,1
1,72,0,35
1,74,101,24
1,74,0,88
1,67,96,2
1,67,0,50
1,67,98,161
1,70,89,58
1,67,0,9
1,72,96,52
1,70,0,6
1,72,0,20
1,74,101,37
1,75,91,52
1,74,0,6
1,75,0,29
1,74,101,25
1,74,0,30
1,75,98,6
1,75,0,23
1,74,96,26
1,75,92,11
1,74,0,7
1,75,0,15
1,74,94,1
1,74,0,77
1,70,95,49
1,70,0,56
1,66,88,2
1,66,0,52
1,69,99,10
1,69,0,45
1,69,95,15
1,69,0,42
1,69,96,18
1,69,0,41
1,67,91,15
1,69,98,33
1,67,0,2
1,69,0,53
1,67,103,36
1,70,97,58
1,67,0,2
1,72,100,59
1,70,0,7
1,72,0,33
1,75,95,21
1,68,91,88
1,75,0,9
1,68,0,32
1,75,99,172
1,74,94,59
1,75,0,3
1,72,93,57
1,74,0,1
1,72,0,40
1,74,98,20
1,74,0,85
1,67,93,4
1,67,0,36
1,67,100,177
1,70,93,58
1,67,0,2
1,72,99,61
1,70,0,9
1,72,0,21
1,74,110,31
1,74,0,43
1,75,103,20
1,75,0,27
1,74,102,6
1,74,0,38
1,75,104,20
1,75,0,23
1,74,102,8
1,74,0,92
1,70,105,79
1,70,0,57
1,66,99,3
1,66,0,37
1,67,106,21
1,67,0,46
1,69,95,10
1,70,106,31
1,69,0,5
1,70,0,37
1,72,99,18
1,74,99,34
1,72,0,1
1,74,0,77
1,70,100,41
1,67,95,60
1,70,0,18
1,62,98,42
1,67,0,6
1,62,0,46
1,66,99,9
1,66,0,78
1,69,97,12
1,69,0,76
1,67,97,13
1,67,0,51
1,70,96,70
1,67,94,61
1,70,0,12
1,67,0,41
1,62,92,6
1,62,0,53
1,66,95,6
1,66,0,77
1,69,96,15
1,70,98,89
1,69,0,2
1,70,0,69
1,70,102,73
1,67,97,35
1,70,0,1
1,67,0,52
1,62,96,7
1,62,0,32
1,63,111,24
1,63,0,31
1,65,103,12
1,65,0,37
1,67,96,0
1,69,101,40
1,67,0,8
1,70,104,30
1,69,0,10
1,70,0,18
1,72,108,13
1,69,102,44
1,72,0,1
1,69,0,50
1,72,106,71
1,72,0,52
1,72,99,8
1,74,105,61
1,72,0,10
1,74,0,77
1,74,103,32
1,74,0,56
1,74,106,7
1,74,0,62
1,74,104,59
1,74,0,95
1,74,104,21
1,74,0,45
1,75,106,15
1,68,96,86
1,75,0,1
1,68,0,45
1,75,100,168
1,74,97,59
1,75,0,7
1,74,0,54
1,72,95,0
1,72,0,47
1,74,95,14
1,74,0,85
1,67,93,4
1,67,0,40
1,67,96,290
1,67,0,52
1,68,95,11
1,70,98,86
1,68,0,2
1,70,0,80
1,72,97,7
1,72,0,48
1,75,95,13
1,74,97,91
1,75,0,6
1,72,98,84
1,74,0,2
1,72,0,34
1,74,98,27
1,67,95,86
1,74,0,2
1,67,0,58
1,74,107,151
1,72,98,95
1,74,0,8
1,72,0,55
1,75,98,26
1,75,0,81
1,68,96,3
1,68,0,51
1,75,98,161
1,74,94,60
1,75,0,8
1,72,98,52
1,74,0,5
1,72,0,36
1,74,101,18
1,72,97,184
1,74,0,2
1,72,0,176
1,75,106,119
1,75,0,88
1,74,97,2
1,74,0,83
1,75,97,8
1,75,0,48
1,74,98,12
1,72,98,90
1,74,0,5
1,74,99,84
1,72,0,4
1,74,0,41
1,72,99,15
1,72,0,82
1,70,93,7
1,72,96,90
1,70,0,10
1,72,0,41
1,74,101,9
1,70,92,61
1,74,0,1
1,72,99,59
1,70,0,12
1,74,96,48
1,72,0,8
1,74,0,15
1,75,102,37
1,75,0,176
1,72,101,5
1,72,0,331
1,67,103,144
1,67,0,102
1,66,100,13
1,66,0,100
1,63,95,3
1,63,0,72
1,62,92,5
1,62,0,253
1,67,102,351
1,65,99,120
1,67,0,6
1,65,0,107
1,63,91,6
1,63,0,120
1,62,92,4
1,62,0,223
2,39,101,2027
2,39,0,58
2,40,84,0
2,40,0,60
2,41,94,0
2,41,0,58
2,42,84,1
2,42,0,57
2,43,92,3
2,43,0,75
2,43,87,14
2,43,0,36
2,38,93,56
2,43,88,120
2,38,0,2
2,43,0,88
2,42,85,0
2,42,0,90
2,41,89,0
2,41,0,78
2,41,90,12
2,41,0,37
2,36,93,52
2,36,0,115
2,41,93,5
2,41,0,92
2,42,87,1
2,42,0,85
2,31,93,6
2,43,90,86
2,31,0,5
2,43,0,41
2,38,94,48
2,38,0,117
2,43,93,0
2,43,0,88
2,42,87,4
2,42,0,86
2,41,91,5
2,41,0,75
2,30,94,12
2,30,0,28
2,30,94,4
2,30,0,57
2,31,96,1
2,31,0,46
2,29,111,256
2,29,0,57
2,29,96,33
2,29,0,15
2,29,102,16
2,29,0,46
2,34,100,71
2,34,0,106
2,29,95,12
2,29,0,40
2,39,98,81
2,39,0,76
2,39,85,15
2,39,0,13
2,39,96,17
2,39,0,61
2,34,85,1
2,34,0,22
2,39,98,35
2,39,0,121
2,34,87,0
2,34,0,60
2,39,93,2
2,39,0,40
2,33,102,20
2,33,0,100
2,33,91,17
2,33,0,113
2,38,95,10
2,38,0,111
2,38,93,7
2,38,0,75
2,31,101,44
2,31,0,80
2,31,90,13
2,31,0,17
2,31,96,14
2,31,0,35
2,31,96,25
2,31,0,36
2,31,101,21
2,31,0,105
2,31,98,15
2,31,0,66
2,29,97,56
2,29,0,67
2,29,82,23
2,29,0,10
2,29,90,17
2,29,0,62
2,32,96,1
2,32,0,61
2,34,95,0
2,34,0,72
2,34,90,47
2,34,0,58
2,38,94,0
2,38,0,55
2,39,97,7
2,39,0,60
2,39,94,26
2,39,0,90
2,34,85,2
2,34,0,55
2,39,98,8
2,39,0,108
2,34,97,12
2,34,0,63
2,33,98,57
2,33,0,66
2,33,84,24
2,33,0,16
2,33,92,14
2,33,0,57
2,36,92,0
2,36,0,50
2,38,93,10
2,38,0,103
2,33,100,17
2,33,0,78
2,31,98,41
2,31,0,81
2,31,86,10
2,31,0,16
2,31,89,16
2,31,0,42
2,31,86,16
2,31,0,42
2,31,90,18
2,31,0,42
2,31,87,17
2,31,0,46
2,31,91,15
2,31,0,45
2,31,95,15
2,31,0,38
2,36,100,24
2,36,0,73
2,36,95,14
2,36,0,78
2,31,94,13
2,31,0,57
2,36,100,242
2,36,0,82
2,38,93,8
2,38,0,82
2,31,96,7
2,31,0,58
2,36,106,243
2,36,0,235
2,38,100,4
2,38,0,112
2,38,98,10
2,38,0,87
2,43,99,33
2,43,0,120
2,42,94,0
2,42,0,110
2,41,93,9
2,41,0,55
2,29,90,188
2,29,0,70
2,29,87,18
2,29,0,15
2,29,93,15
2,29,0,58
2,32,84,1
2,32,0,50
2,34,91,11
2,34,0,111
2,29,90,8
2,29,0,60
2,34,90,0
2,34,0,40
2,39,90,23
2,39,0,62
2,39,87,26
2,39,0,27
2,34,83,1
2,34,0,55
2,34,85,10
2,34,0,26
2,36,88,1
2,36,0,30
2,39,87,0
2,39,0,30
2,39,89,32
2,39,0,53
2,34,82,4
2,34,0,60
2,36,89,1
2,36,0,25
2,29,99,37
2,29,0,83
2,31,90,5
2,31,0,88
2,32,84,1
2,32,0,61
2,34,90,2
2,34,0,83
2,36,96,5
2,36,0,85
2,38,90,4
2,38,0,50
2,39,91,13
2,39,0,83
2,34,88,4
2,34,0,91
2,31,88,0
2,31,0,66
2,36,96,53
2,36,0,158
2,29,91,25
2,29,0,66
2,29,80,22
2,29,0,13
2,29,91,16
2,29,0,60
2,32,84,0
2,32,0,52
2,34,92,8
2,34,0,98
2,29,87,23
2,29,0,75
2,36,95,47
2,36,0,71
2,36,88,19
2,36,0,25
2,31,88,3
2,31,0,30
2,34,89,0
2,34,0,30
2,36,95,0
2,36,0,192
2,29,101,110
2,29,0,75
2,29,91,13
2,29,0,72
2,29,92,18
2,29,0,45
2,34,85,15
2,34,0,73
2,34,91,17
2,34,0,70
