track,note,velocity,time
1,70,116,12284
1,71,116,312
1,70,116,304
1,63,116,64
1,63,116,56
1,63,116,56
1,63,116,64
1,63,116,136
1,63,115,52
1,65,116,52
1,66,116,128
1,65,116,128
1,61,116,128
1,63,116,136
1,63,116,496
1,63,116,64
1,70,116,36
1,71,116,304
1,70,116,320
1,63,116,56
1,63,116,56
1,63,116,48
1,63,116,56
1,63,116,144
1,63,112,64
1,65,116,64
1,66,116,128
1,65,116,136
1,61,116,140
1,63,116,144
1,63,116,496
1,63,116,52
1,65,116,40
1,66,116,128
1,65,116,112
1,61,116,128
1,63,116,156
1,63,116,496
1,63,116,64
1,65,116,24
1,66,116,112
1,65,116,112
1,61,116,128
1,63,116,144
1,78,76,224
1,70,116,64
1,78,91,0
1,78,96,32
1,70,116,32
1,78,94,0
1,70,116,128
1,78,99,0
1,66,116,0
1,75,99,0
1,68,116,88
1,77,102,0
1,66,116,224
1,77,91,0
1,66,116,32
1,77,91,0
1,66,116,16
1,77,91,0
1,66,116,112
1,77,91,0
1,65,116,96
1,73,99,0
1,61,116,128
1,68,96,0
1,63,116,96
1,70,105,0
1,70,116,224
1,78,94,0
1,70,116,48
1,78,91,0
1,70,116,40
1,78,96,48
1,70,116,32
1,78,91,0
1,70,116,128
1,78,102,0
1,66,116,64
1,75,102,0
1,68,116,80
1,77,102,0
1,66,116,240
1,77,87,0
1,66,116,44
1,77,89,0
1,66,116,32
1,77,89,0
1,66,116,120
1,77,91,0
1,65,116,112
1,73,99,0
1,61,116,96
1,68,94,0
1,63,116,116
1,70,99,0
1,63,116,272
1,70,96,0
1,63,116,48
1,70,89,0
1,63,116,32
1,70,74,0
1,63,116,128
1,70,99,0
1,65,116,128
1,73,102,0
1,61,116,128
1,68,99,0
1,63,116,120
1,70,105,0
1,63,116,280
1,70,99,0
1,63,116,48
1,70,89,0
1,63,116,36
1,70,74,0
1,63,116,140
1,70,99,0
1,65,116,128
1,73,99,0
1,61,116,100
1,68,99,0
1,63,116,128
1,70,108,0
1,70,116,33888
1,71,116,312
1,70,116,304
1,63,116,64
1,63,116,52
1,63,116,52
1,63,116,64
1,63,116,136
1,63,115,52
1,65,116,52
1,66,116,128
1,65,116,128
1,61,116,128
1,63,116,132
1,63,116,496
1,63,116,64
1,70,116,36
1,71,116,304
1,70,116,320
1,63,116,56
1,63,116,56
1,63,116,48
1,63,116,56
1,63,116,144
1,63,112,64
1,65,116,64
1,66,116,128
1,65,116,136
1,61,116,136
1,63,116,144
1,63,116,496
1,63,116,56
1,65,116,40
1,66,116,128
1,65,116,112
1,61,116,128
1,63,116,152
1,63,116,496
1,63,116,64
1,65,116,24
1,66,116,112
1,65,116,112
1,61,116,128
1,63,116,144
1,78,76,224
1,70,116,64
1,78,91,0
1,78,96,32
1,70,116,32
1,78,94,0
1,70,116,128
1,78,99,0
1,66,116,0
1,75,99,0
1,68,116,92
1,77,102,0
1,66,116,224
1,77,91,0
1,66,116,32
1,77,91,0
1,66,116,16
1,77,91,0
1,66,116,112
1,77,91,0
1,65,116,96
1,73,99,0
1,61,116,128
1,68,96,0
1,63,116,96
1,70,105,0
1,70,116,224
1,78,94,0
1,70,116,48
1,78,91,0
1,70,116,36
1,78,96,48
1,70,116,32
1,78,91,0
1,70,116,128
1,78,102,0
1,66,116,64
1,75,102,0
1,68,116,80
1,77,102,0
1,66,116,240
1,77,87,0
1,66,116,40
1,77,89,0
1,66,116,32
1,77,89,0
1,66,116,116
1,77,91,0
1,65,116,112
1,73,99,0
1,61,116,96
1,68,94,0
1,63,116,124
1,70,99,0
1,63,116,272
1,70,96,0
1,63,116,48
1,70,89,0
1,63,116,32
1,70,74,0
1,63,116,128
1,70,99,0
1,65,116,128
1,73,102,0
1,61,116,128
1,68,99,0
1,63,116,120
1,70,105,0
1,63,116,280
1,70,99,0
1,63,116,48
1,70,89,0
1,63,116,44
1,70,74,0
1,63,116,140
1,70,99,0
1,65,116,128
1,73,99,0
1,61,116,104
1,68,99,0
1,63,116,128
1,70,108,0
1,70,116,15456
1,78,99,0
1,66,116,0
1,75,99,0
1,68,116,88
1,77,102,0
1,66,116,224
1,77,91,0
1,66,116,32
1,77,91,0
1,66,116,16
1,77,91,0
1,66,116,112
1,77,91,0
1,65,116,96
1,73,99,0
1,61,116,128
1,68,96,0
1,63,116,96
1,70,105,0
1,70,116,224
1,78,94,0
1,70,116,48
1,78,91,0
1,70,116,40
1,78,96,48
1,70,116,32
1,78,91,0
1,70,116,128
1,78,102,0
1,66,116,64
1,75,102,0
1,68,116,80
1,77,102,0
1,66,116,240
1,77,87,0
1,66,116,40
1,77,89,0
1,66,116,32
1,77,89,0
1,66,116,120
1,77,91,0
1,65,116,112
1,73,99,0
1,61,116,96
1,68,94,0
1,63,116,120
1,70,99,0
1,63,116,272
1,70,96,0
1,63,116,48
1,70,89,0
1,63,116,32
1,70,74,0
1,63,116,128
1,70,99,0
1,65,116,128
1,73,102,0
1,61,116,128
1,68,99,0
1,63,116,124
1,70,105,0
1,63,116,280
1,70,99,0
1,63,116,48
1,70,89,0
1,63,116,40
1,70,74,0
1,63,116,140
1,70,99,0
1,65,116,128
1,73,99,0
1,61,116,100
1,68,99,0
1,63,116,128
1,70,108,0
1,70,116,13152
1,78,99,0
1,66,116,0
1,75,99,0
1,68,116,88
1,77,102,0
1,66,116,224
1,77,91,0
1,66,116,32
1,77,91,0
1,66,116,16
1,77,91,0
1,66,116,112
1,77,91,0
1,65,116,96
1,73,99,0
1,61,116,128
1,68,96,0
1,63,116,96
1,70,105,0
1,70,116,224
1,78,94,0
1,70,116,48
1,78,91,0
1,70,116,40
1,78,96,48
1,70,116,32
1,78,91,0
1,70,116,128
1,78,102,0
1,66,116,64
1,75,102,0
1,68,116,80
1,77,102,0
1,66,116,240
1,77,87,0
1,66,116,40
1,77,89,0
1,66,116,32
1,77,89,0
1,66,116,120
1,77,91,0
1,65,116,112
1,73,99,0
1,61,116,96
1,68,94,0
1,63,116,116
1,70,99,0
1,63,116,272
1,70,96,0
1,63,116,48
1,70,89,0
1,63,116,32
1,70,74,0
1,63,116,128
1,70,99,0
1,65,116,128
1,73,102,0
1,61,116,128
1,68,99,0
1,63,116,120
1,70,105,0
1,63,116,280
1,70,99,0
1,63,116,48
1,70,89,0
1,63,116,36
1,70,74,0
1,63,116,140
1,70,99,0
1,65,116,128
1,73,99,0
1,61,116,100
1,68,99,0
1,63,116,128
1,70,108,0
1,70,116,13152
1,71,116,308
1,70,116,304
1,63,116,64
1,63,116,52
1,63,116,52
1,63,116,64
1,63,116,136
1,63,115,56
1,65,116,60
1,66,116,128
1,65,116,128
1,61,116,128
1,63,116,136
1,63,116,496
1,63,116,64
1,70,116,36
1,71,116,304
1,70,116,320
1,63,116,56
1,63,116,56
1,63,116,48
1,63,116,56
1,63,116,144
1,63,112,64
1,65,116,64
1,66,116,128
1,65,116,136
1,61,116,136
1,63,116,144
1,63,116,496
1,63,116,56
1,65,116,36
1,66,116,128
1,65,116,112
1,61,116,128
1,63,116,152
1,63,116,496
1,63,116,64
1,65,116,24
1,66,116,112
1,65,116,112
1,61,116,128
1,63,116,144
1,78,76,224
1,70,116,64
1,78,91,0
1,78,96,32
1,70,116,32
1,78,94,0
1,70,116,128
1,78,99,0
1,66,116,0
1,75,99,0
1,68,116,92
1,77,102,0
1,66,116,224
1,77,91,0
1,66,116,32
1,77,91,0
1,66,116,16
1,77,91,0
1,66,116,112
1,77,91,0
1,65,116,96
1,73,99,0
1,61,116,128
1,68,96,0
1,63,116,96
1,70,105,0
1,70,116,224
1,78,94,0
1,70,116,48
1,78,91,0
1,70,116,44
1,78,96,48
1,70,116,32
1,78,91,0
1,70,116,128
1,78,102,0
1,66,116,64
1,75,102,0
1,68,116,80
1,77,102,0
1,66,116,240
1,77,87,0
1,66,116,40
1,77,89,0
1,66,116,32
1,77,89,0
1,66,116,116
1,77,91,0
1,65,116,112
1,73,99,0
1,61,116,96
1,68,94,0
1,63,116,124
1,70,99,0
1,63,116,272
1,70,96,0
1,63,116,48
1,70,89,0
1,63,116,32
1,70,74,0
1,63,116,128
1,70,99,0
1,65,116,128
1,73,102,0
1,61,116,128
1,68,99,0
1,63,116,120
1,70,105,0
1,63,116,280
1,70,99,0
1,63,116,48
1,70,89,0
1,63,116,40
1,70,74,0
1,63,116,140
1,70,99,0
1,65,116,128
1,73,99,0
1,61,116,104
1,68,99,0
1,63,116,128
1,70,108,0
1,70,116,33888
1,71,116,308
1,70,116,304
1,63,116,64
1,63,116,60
1,63,116,56
1,63,116,64
1,63,116,132
1,63,115,56
1,65,116,56
1,66,116,128
1,65,116,128
1,61,116,128
1,63,116,132
1,63,116,496
1,63,116,64
1,70,116,40
1,71,116,304
1,70,116,320
1,63,116,52
1,63,116,52
1,63,116,48
1,63,116,52
1,63,116,144
1,63,112,64
1,65,116,64
1,66,116,128
1,65,116,136
1,61,116,136
1,63,116,144
1,63,116,496
1,63,116,56
1,65,116,36
1,66,116,128
1,65,116,112
1,61,116,128
1,63,116,152
1,63,116,496
1,63,116,64
1,65,116,20
1,66,116,112
1,65,116,112
1,61,116,128
1,63,116,144
1,78,76,224
1,70,116,64
1,78,91,0
1,78,96,32
1,70,116,32
1,78,94,0
1,70,116,128
1,78,99,0
1,66,116,0
1,75,99,0
1,68,116,88
1,77,102,0
1,66,116,224
1,77,91,0
1,66,116,32
1,77,91,0
1,66,116,16
1,77,91,0
1,66,116,112
1,77,91,0
1,65,116,96
1,73,99,0
1,61,116,128
1,68,96,0
1,63,116,96
1,70,105,0
1,70,116,224
1,78,94,0
1,70,116,48
1,78,91,0
1,70,116,40
1,78,96,48
1,70,116,32
1,78,91,0
1,70,116,128
1,78,102,0
1,66,116,0
1,75,102,0
1,68,116,32
1,77,102,0
1,66,116,40
1,77,87,0
1,66,116,40
1,77,89,0
1,66,116,0
1,77,89,0
1,66,116,48
1,77,91,0
1,65,116,32
1,73,99,0
1,61,116,48
1,68,94,0
1,63,116,64
1,70,99,0
1,63,116,80
1,70,96,0
1,63,116,48
1,70,89,0
1,63,116,36
1,70,74,0
1,63,116,48
1,70,99,0
1,65,116,32
1,73,102,0
1,61,116,12
1,68,99,0
1,63,116,16
1,70,105,0
1,63,116,192
1,70,99,0
1,63,116,48
1,70,89,0
1,63,116,40
1,70,74,0
1,63,116,8
1,70,99,0
1,65,116,32
1,73,99,0
1,61,116,32
1,68,99,0
1,63,116,0
1,70,108,0
1,70,116,0
1,71,116,208
1,70,116,192
1,63,116,64
1,63,116,56
1,63,116,64
1,63,116,64
1,63,116,32
1,63,115,56
1,65,116,56
1,66,116,24
1,65,116,16
1,61,116,128
1,63,116,0
1,63,116,224
1,63,116,64
1,70,116,0
1,71,116,16
1,70,116,16
1,63,116,56
1,63,116,16
1,63,116,48
1,63,116,16
1,63,116,0
1,63,112,64
1,65,116,64
1,66,116,0
1,65,116,16
1,61,116,0
1,63,116,8
1,63,116,32
1,63,116,56
1,65,116,40
1,66,116,16
1,65,116,112
1,61,116,0
1,63,116,0
1,63,116,176
1,63,116,64
1,65,116,24
1,66,116,112
1,65,116,56
1,61,116,0
1,63,116,144
1,78,76,36
1,70,116,64
1,78,91,0
1,78,96,16
1,70,116,32
1,78,94,0
1,70,116,64
1,78,99,0
1,66,116,0
1,75,99,0
1,68,116,88
1,77,102,0
1,66,116,48
1,77,91,0
1,66,116,32
1,77,91,0
1,66,116,16
1,77,91,0
1,66,116,112
1,77,91,0
1,65,116,96
1,73,99,0
1,61,116,128
1,68,96,0
1,63,116,96
1,70,105,0
1,70,116,96
1,78,94,0
1,70,116,48
1,78,91,0
1,70,116,36
1,78,96,48
1,70,116,32
1,78,91,0
1,70,116,0
1,78,102,0
1,66,116,64
1,75,102,0
1,68,116,80
1,77,102,0
1,66,116,16
1,77,87,0
1,66,116,36
1,77,89,0
1,66,116,16
1,77,89,0
1,66,116,120
1,77,91,0
1,65,116,112
1,73,99,0
1,61,116,96
1,68,94,0
1,63,116,120
1,70,99,0
1,63,116,272
1,70,96,0
1,63,116,48
1,70,89,0
1,63,116,32
1,70,74,0
1,63,116,128
1,70,99,0
1,65,116,128
1,73,102,0
1,61,116,128
1,68,99,0
1,63,116,124
1,70,105,0
1,63,116,280
1,70,99,0
1,63,116,48
1,70,89,0
1,63,116,40
1,70,74,0
1,63,116,140
1,70,99,0
1,65,116,128
1,73,99,0
1,61,116,100
1,68,99,0
1,63,116,128
1,70,108,0
2,39,101,0
2,39,101,40
2,34,101,40
2,39,101,40
2,38,101,40
2,38,101,40
2,33,101,32
2,38,101,32
2,37,101,36
2,37,101,32
2,32,101,36
2,37,101,32
2,38,101,32
2,38,101,48
2,33,101,32
2,38,101,32
2,39,101,32
2,39,101,40
2,34,101,32
2,39,101,32
2,37,101,32
2,37,101,32
2,32,101,32
2,37,101,32
2,35,101,32
2,35,101,32
2,30,101,32
2,35,101,48
2,34,101,32
2,34,101,32
2,37,101,32
2,38,101,32
2,39,101,32
2,63,117,20
2,39,101,16
2,34,101,36
2,63,112,80
2,39,101,40
2,62,102,20
2,38,101,12
2,38,101,40
2,62,98,76
2,33,101,32
2,62,100,20
2,38,101,12
2,37,101,36
2,61,109,20
2,37,101,12
2,32,101,36
2,61,107,80
2,37,101,32
2,62,102,8
2,38,101,24
2,38,101,48
2,62,98,72
2,33,101,32
2,62,100,20
2,38,101,12
2,39,101,32
2,63,98,20
2,39,101,16
2,34,101,32
2,63,102,84
2,39,101,32
2,61,109,152
2,37,101,32
2,37,101,32
2,61,112,72
2,32,101,32
2,61,107,20
2,37,101,12
2,35,101,32
2,59,107,20
2,35,101,12
2,30,101,32
2,59,112,84
2,35,101,36
2,58,112,20
2,34,101,12
2,34,101,32
2,58,109,84
2,37,101,32
2,58,107,20
2,38,101,12
2,34,105,0
2,37,107,192
2,39,102,176
2,42,85,0
2,37,107,16
2,37,109,128
2,35,105,16
2,34,89,192
2,35,73,176
2,37,109,180
2,42,105,0
2,39,92,192
2,39,105,80
2,39,107,128
2,34,89,8
2,37,109,192
2,39,102,168
2,42,92,4
2,37,96,0
2,37,112,96
2,35,92,32
2,34,98,192
2,35,71,184
2,37,109,0
2,42,107,0
2,39,107,16
2,39,112,104
2,39,105,112
2,34,98,16
2,37,109,192
2,39,105,0
2,42,107,16
2,39,107,8
2,39,114,112
2,39,102,48
2,39,123,48
2,34,92,192
2,37,109,188
2,39,112,0
2,42,109,24
2,39,92,0
2,39,114,48
2,39,100,80
2,39,112,24
2,34,105,112
2,37,107,192
2,39,102,176
2,42,85,0
2,37,107,16
2,37,109,128
2,35,105,16
2,34,89,192
2,35,73,176
2,37,109,0
2,42,105,0
2,39,92,192
2,39,105,80
2,39,107,128
2,34,89,4
2,37,109,192
2,39,102,164
2,42,92,4
2,37,96,0
2,37,112,96
2,35,92,32
2,34,98,192
2,35,71,188
2,37,109,0
2,42,107,0
2,39,107,16
2,39,112,104
2,39,105,112
2,34,98,16
2,37,109,192
2,39,105,0
2,42,107,16
2,39,107,4
2,39,114,112
2,39,102,48
2,39,123,48
2,34,92,0
2,37,109,192
2,39,112,0
2,42,109,24
2,39,92,0
2,39,114,48
2,39,100,80
2,39,112,20
2,34,105,112
2,37,107,192
2,39,102,176
2,42,85,0
2,37,107,16
2,37,109,128
2,35,105,16
2,34,89,192
2,35,73,176
2,37,109,176
2,42,105,0
2,39,92,192
2,39,105,80
2,39,107,128
2,34,89,4
2,37,109,192
2,39,102,172
2,42,92,8
2,37,96,0
2,37,112,96
2,35,92,32
2,34,98,192
2,35,71,180
2,37,109,0
2,42,107,0
2,39,107,16
2,39,112,104
2,39,105,112
2,34,98,16
2,37,109,192
2,39,105,0
2,42,107,16
2,39,107,4
2,39,114,112
2,39,102,48
2,39,123,48
2,34,92,192
2,37,109,180
2,39,112,0
2,42,109,20
2,39,92,0
2,39,114,48
2,39,100,80
2,39,112,20
2,34,105,112
2,37,107,192
