track,note,velocity,time
0,40,127,1538
0,64,95,2
0,59,97,0
0,40,127,36
0,69,72,0
0,62,78,0
0,69,72,34
0,35,127,30
0,69,97,0
0,62,115,0
0,40,127,22
0,62,105,0
0,70,61,2
0,39,127,16
0,58,88,2
0,63,76,0
0,70,89,0
0,64,115,0
0,62,86,28
0,39,127,60
0,42,92,0
0,70,76,2
0,62,78,0
0,70,76,46
0,62,84,0
0,42,103,0
0,34,127,12
0,62,103,0
0,42,114,0
0,70,95,2
0,39,127,4
0,62,99,0
0,70,59,2
0,38,127,24
0,62,97,2
0,57,84,0
0,70,89,0
0,63,117,0
0,38,127,52
0,62,84,0
0,69,70,2
0,69,76,24
0,33,127,12
0,69,91,0
0,62,82,0
0,62,86,124
0,38,127,0
0,70,50,2
0,39,127,40
0,58,99,2
0,70,95,0
0,64,101,0
0,63,82,2
0,62,99,30
0,39,127,44
0,62,95,0
0,42,73,0
0,70,57,2
0,70,64,30
0,62,74,0
0,42,98,0
0,34,127,16
0,42,101,0
0,70,97,2
0,62,99,0
0,62,97,80
0,39,127,0
0,70,78,2
0,40,127,10
0,59,90,2
0,64,80,0
0,63,115,0
0,69,51,0
0,40,127,64
0,62,69,0
0,69,80,0
0,69,93,42
0,35,127,4
0,62,90,0
0,69,104,2
0,40,127,32
0,62,110,0
0,70,63,2
0,38,127,16
0,57,99,2
0,62,103,0
0,64,112,0
0,70,109,0
0,62,95,24
0,42,77,42
0,38,127,0
0,62,84,2
0,70,64,0
0,42,96,28
0,62,80,0
0,70,80,0
0,33,127,32
0,42,103,0
0,62,117,0
0,70,97,2
0,38,127,24
0,62,101,0
0,69,63,2
0,36,127,0
0,55,88,2
0,63,120,0
0,69,72,0
0,60,99,2
0,36,127,76
0,62,92,0
0,69,63,2
0,69,76,40
0,31,127,4
0,62,97,0
0,69,104,0
0,36,127,32
0,62,112,0
0,70,64,0
0,35,127,4
0,59,90,2
0,64,108,0
0,70,109,0
0,54,80,2
0,62,97,30
0,42,109,40
0,35,127,0
0,62,69,2
0,70,57,0
0,42,98,38
0,62,86,0
0,70,64,2
0,37,127,28
0,42,107,0
0,62,108,2
0,70,74,0
0,39,127,6
0,62,101,0
0,70,74,0
0,40,127,32
0,64,123,0
0,36,127,0
0,63,112,0
0,70,102,2
0,64,90,0
0,59,95,0
0,62,80,8
0,40,127,0
0,69,51,2
0,69,64,38
0,59,117,0
0,35,127,22
0,36,127,0
0,62,84,0
0,69,91,2
0,40,127,8
0,62,110,2
0,70,59,0
0,63,112,0
0,39,127,60
0,36,127,0
0,64,110,2
0,70,102,0
0,63,74,0
0,58,78,0
0,62,97,32
0,42,101,28
0,39,127,0
0,71,94,0
0,75,90,0
0,79,100,0
0,63,110,2
0,62,86,0
0,70,70,0
0,75,85,20
0,42,88,0
0,62,90,2
0,70,74,0
0,79,92,0
0,71,81,0
0,34,127,0
0,42,101,0
0,36,127,2
0,71,94,0
0,75,94,0
0,79,110,2
0,58,103,0
0,62,105,0
0,70,97,2
0,63,92,10
0,39,127,0
0,62,103,2
0,70,57,0
0,38,127,28
0,62,115,2
0,36,127,0
0,63,120,0
0,70,89,2
0,57,69,0
0,62,90,0
0,55,68,2
0,38,127,8
0,62,97,2
0,69,52,0
0,69,65,36
0,57,115,0
0,33,127,20
0,36,127,0
0,62,108,2
0,69,86,0
0,63,112,14
0,38,127,0
0,62,105,2
0,70,62,0
0,39,127,8
0,36,127,2
0,64,112,0
0,70,104,0
0,63,71,2
0,58,80,0
0,62,103,30
0,39,127,44
0,42,92,0
0,75,85,2
0,71,73,0
0,79,81,0
0,63,117,2
0,62,99,0
0,70,63,0
0,75,87,8
0,42,101,0
0,62,90,2
0,79,92,0
0,71,87,0
0,70,64,2
0,34,127,28
0,36,127,0
0,42,116,2
0,79,105,0
0,71,98,0
0,75,90,0
0,58,101,2
0,62,105,0
0,70,97,0
0,39,127,12
0,63,68,2
0,62,92,0
0,70,66,0
0,40,127,4
0,64,110,2
0,36,127,0
0,63,123,0
0,70,97,2
0,59,90,0
0,64,84,0
0,40,127,72
0,62,95,0
0,69,56,0
0,69,66,46
0,59,103,0
0,35,127,16
0,36,127,0
0,62,101,2
0,69,82,0
0,62,115,8
0,40,127,0
0,62,105,2
0,69,56,0
0,38,127,30
0,36,127,0
0,64,110,2
0,70,84,0
0,62,82,0
0,57,78,0
0,62,99,38
0,42,96,14
0,38,127,0
0,74,100,2
0,78,85,0
0,69,77,0
0,62,108,2
0,62,103,0
0,70,61,0
0,78,90,24
0,42,94,0
0,62,88,2
0,70,72,0
0,69,83,0
0,74,98,0
0,33,127,14
0,42,116,0
0,36,127,0
0,74,105,2
0,69,90,0
0,78,94,0
0,57,99,0
0,62,115,2
0,70,99,0
0,62,99,12
0,38,127,0
0,62,110,2
0,70,59,0
0,36,127,20
0,60,112,2
0,36,127,0
0,63,120,2
0,70,102,0
0,55,78,0
0,60,78,0
0,62,92,14
0,36,127,0
0,69,50,2
0,69,72,46
0,64,110,0
0,31,127,8
0,36,127,0
0,62,101,2
0,69,99,0
0,36,127,12
0,63,117,0
0,62,103,2
0,70,53,0
0,35,127,4
0,59,80,2
0,36,127,0
0,64,115,0
0,70,109,0
0,54,82,2
0,62,99,20
0,38,127,36
0,35,127,0
0,75,90,2
0,71,94,0
0,81,103,0
0,59,99,2
0,62,99,0
0,70,57,0
0,71,85,24
0,81,90,0
0,75,79,2
0,62,86,0
0,70,78,0
0,37,127,42
0,36,127,0
0,38,127,0
0,75,96,2
0,71,100,0
0,81,110,0
0,59,99,2
0,62,112,0
0,70,91,0
0,39,127,20
0,38,127,0
0,62,117,2
0,70,64,0
0,59,110,0
0,40,127,80
0,64,120,2
0,36,127,0
0,42,118,0
0,71,121,0
0,71,127,0
0,64,80,2
0,59,84,0
0,63,116,0
0,70,102,0
0,67,82,2
0,64,92,0
0,59,82,0
0,49,95,2
0,35,127,12
0,42,71,0
0,62,81,2
0,69,56,0
0,59,115,40
0,69,66,2
0,40,127,20
0,36,127,0
0,42,121,2
0,38,127,0
0,72,127,0
0,72,121,2
0,62,96,0
0,69,102,0
0,38,127,32
0,42,73,0
0,62,96,2
0,62,115,0
0,62,82,2
0,66,78,0
0,57,70,0
0,70,65,0
0,36,127,128
0,42,111,0
0,71,115,2
0,71,127,0
0,64,116,2
0,70,102,0
0,64,121,12
0,64,127,0
0,62,92,2
0,33,127,16
0,42,70,0
0,74,96,2
0,69,83,0
0,78,87,0
0,64,110,2
0,64,127,0
0,62,112,0
0,62,103,2
0,70,52,0
0,74,96,26
0,69,85,0
0,78,94,0
0,64,103,2
0,64,127,0
0,62,94,0
0,70,80,2
0,38,127,16
0,36,127,0
0,38,127,2
0,42,118,0
0,78,96,0
0,69,85,0
0,74,110,2
0,64,127,0
0,57,86,0
0,64,115,2
0,62,110,0
0,70,104,0
0,42,76,72
0,36,127,0
0,64,112,2
0,64,127,0
0,62,95,0
0,62,110,2
0,69,58,0
0,64,107,32
0,64,127,0
0,35,127,4
0,36,127,0
0,42,111,2
0,66,127,0
0,59,115,0
0,66,112,2
0,63,113,0
0,69,93,0
0,59,82,2
0,62,95,0
0,66,84,0
0,42,79,76
0,38,127,0
0,67,118,2
0,67,127,0
0,62,88,2
0,69,67,0
0,62,115,20
0,69,91,0
0,35,127,0
0,36,127,0
0,38,127,2
0,42,111,0
0,66,127,0
0,66,115,2
0,62,63,0
0,69,106,0
0,40,127,14
0,64,115,0
0,42,96,0
0,62,85,2
0,62,112,0
0,62,127,0
0,64,88,2
0,70,65,0
0,67,90,2
0,59,84,0
0,36,127,96
0,42,109,2
0,64,115,0
0,64,127,0
0,64,103,2
0,70,111,0
0,62,88,16
0,42,90,56
0,40,127,0
0,76,96,2
0,71,85,0
0,79,90,0
0,64,110,2
0,62,88,0
0,70,64,0
0,71,79,24
0,79,90,0
0,76,90,0
0,62,73,2
0,70,82,0
0,35,127,6
0,38,127,0
0,42,114,0
0,36,127,2
0,79,94,0
0,71,94,0
0,76,96,0
0,59,82,2
0,62,90,0
0,70,102,2
0,38,127,40
0,62,105,2
0,42,98,0
0,62,94,2
0,70,65,0
0,64,118,0
0,64,127,0
0,40,127,16
0,64,117,2
0,36,127,0
0,42,114,0
0,63,113,2
0,71,110,0
0,71,127,0
0,64,101,2
0,67,95,0
0,70,95,0
0,59,92,2
0,35,127,36
0,42,92,2
0,62,88,0
0,69,62,0
0,69,78,36
0,59,105,0
0,40,127,12
0,38,127,0
0,36,127,0
0,42,118,2
0,72,127,0
0,72,110,2
0,69,102,0
0,38,127,16
0,42,77,0
0,62,90,2
0,70,46,0
0,62,115,0
0,62,95,2
0,66,84,0
0,57,82,0
0,36,127,128
0,42,116,2
0,71,118,0
0,71,127,0
0,64,101,2
0,70,99,0
0,64,124,24
0,64,127,0
0,62,73,2
0,64,64,8
0,33,127,36
0,42,74,0
0,74,92,2
0,78,73,0
0,69,58,0
0,64,110,2
0,64,127,0
0,62,115,0
0,70,76,2
0,78,92,32
0,69,71,0
0,74,92,0
0,64,110,2
0,64,127,0
0,62,98,0
0,70,91,2
0,38,127,4
0,36,127,0
0,38,127,0
0,42,114,2
0,74,110,0
0,69,87,0
0,78,96,2
0,64,127,0
0,57,86,0
0,64,107,2
0,70,99,0
0,36,127,88
0,64,127,2
0,62,105,0
0,42,75,0
0,62,94,2
0,66,53,0
0,64,105,0
0,70,57,2
0,64,127,28
0,64,103,2
0,35,127,8
0,59,105,2
0,36,127,0
0,42,121,0
0,66,118,2
0,66,127,0
0,62,97,2
0,59,88,0
0,63,105,0
0,70,74,0
0,66,92,2
0,38,127,16
0,67,127,0
0,42,78,0
0,62,92,2
0,69,57,0
0,67,118,0
0,62,112,10
0,69,59,0
0,35,127,36
0,38,127,0
0,36,127,2
0,42,111,0
0,66,127,0
0,66,115,2
0,62,65,0
0,69,99,0
0,40,127,8
0,42,90,0
0,62,112,2
0,62,127,0
0,64,110,0
0,59,97,2
0,62,96,0
0,70,64,0
0,64,95,2
0,55,80,0
0,36,127,112
0,42,101,2
0,64,115,0
0,64,127,0
0,64,98,2
0,70,102,0
0,62,88,8
0,46,105,60
0,40,127,0
0,76,92,2
0,79,92,0
0,71,87,0
0,64,112,0
0,62,92,2
0,70,70,0
0,71,81,20
0,79,77,0
0,76,98,2
0,62,85,0
0,70,74,0
0,38,127,4
0,42,121,0
0,36,127,2
0,38,127,0
0,79,107,0
0,71,92,0
0,76,96,2
0,62,82,0
0,62,96,0
0,70,95,2
0,42,88,102
0,36,127,0
0,64,115,2
0,64,127,0
0,60,105,0
0,62,103,2
0,70,56,0
0,35,127,92
0,59,117,2
0,42,116,0
0,36,127,0
0,63,110,2
0,66,118,0
0,66,127,0
0,62,95,2
0,59,73,0
0,70,84,0
0,66,86,2
0,38,127,14
0,42,84,0
0,62,96,2
0,69,59,0
0,67,112,0
0,67,127,0
0,62,112,20
0,69,78,0
0,35,127,40
0,36,127,0
0,38,127,2
0,42,116,0
0,66,127,0
0,66,115,2
0,62,71,0
0,69,89,0
0,40,127,32
0,42,86,0
0,62,115,2
0,62,127,0
0,64,117,0
0,55,78,2
0,62,90,0
0,59,86,2
0,64,92,0
0,36,127,112
0,42,107,2
0,64,112,0
0,64,127,0
0,64,85,2
0,70,74,0
0,62,101,16
0,46,105,48
0,40,127,0
0,76,94,2
0,79,81,0
0,71,73,0
0,64,108,2
0,62,90,0
0,71,81,20
0,76,94,0
0,79,85,2
0,62,90,0
0,70,89,0
0,38,127,4
0,38,127,0
0,36,127,0
0,42,123,2
0,76,98,0
0,71,96,0
0,79,107,2
0,59,95,0
0,62,94,0
0,70,99,2
0,42,86,100
0,36,127,0
0,64,127,2
0,60,74,0
0,64,118,2
0,62,94,0
0,70,56,0
0,35,127,96
0,59,120,2
0,42,109,0
0,36,127,0
0,66,118,2
0,66,127,0
0,66,92,2
0,62,101,0
0,63,110,0
0,70,84,0
0,59,95,2
0,38,127,0
0,42,79,0
0,62,94,2
0,67,115,0
0,67,127,0
0,69,51,2
0,62,103,0
0,69,74,2
0,36,127,52
0,35,127,0
0,66,127,2
0,38,127,0
0,42,111,0
0,69,84,2
0,66,118,0
0,40,127,12
0,42,94,0
0,62,127,2
0,64,101,0
0,62,112,2
0,62,101,0
0,70,51,0
0,59,88,2
0,55,78,0
0,64,86,0
0,42,98,28
0,36,127,0
0,64,110,2
0,64,127,0
0,64,94,2
0,70,89,0
0,62,96,10
0,46,107,48
0,40,127,0
0,76,92,2
0,71,79,0
0,79,87,0
0,71,127,2
0,64,97,0
0,62,90,0
0,70,70,2
0,71,90,20
0,79,92,0
0,76,94,0
0,71,127,2
0,62,94,0
0,70,78,2
0,35,127,4
0,42,92,0
0,36,127,2
0,38,127,0
0,76,100,0
0,71,92,0
0,79,105,2
0,59,101,0
0,71,127,2
0,62,110,0
0,70,106,0
0,38,127,16
0,46,98,0
0,62,105,2
0,71,127,0
0,62,112,0
0,70,57,2
0,40,127,8
0,36,127,0
0,42,103,2
0,71,127,0
0,64,110,0
0,71,115,2
0,63,110,0
0,70,82,0
0,59,95,2
0,64,90,0
0,55,82,0
0,49,97,2
0,35,127,92
0,42,76,0
0,62,94,2
0,69,57,0
0,69,76,42
0,59,97,0
0,40,127,48
0,38,127,0
0,36,127,2
0,42,121,0
0,67,127,0
0,67,121,2
0,69,93,0
0,38,127,14
0,62,117,0
0,42,82,0
0,62,103,2
0,69,118,0
0,69,127,0
0,57,88,2
0,70,56,0
0,66,88,2
0,62,97,0
0,36,127,112
0,42,114,2
0,64,105,0
0,70,86,0
0,62,98,0
0,33,127,14
0,42,88,0
0,74,87,2
0,78,77,0
0,69,60,0
0,62,110,0
0,67,121,2
0,67,127,0
0,62,90,2
0,70,72,0
0,69,79,38
0,78,92,0
0,74,96,2
0,67,110,0
0,67,127,0
0,62,94,2
0,70,86,0
0,38,127,40
0,36,127,0
0,38,127,2
0,42,114,0
0,78,98,0
0,74,103,0
0,69,87,2
0,57,71,0
0,67,115,2
0,67,127,0
0,62,105,0
0,70,104,0
0,36,127,4
0,42,90,0
0,67,127,2
0,62,103,0
0,67,118,2
0,62,90,0
0,70,46,0
0,35,127,10
0,66,127,2
0,59,115,0
0,42,114,0
0,36,127,0
0,63,110,2
0,66,118,0
0,59,82,2
0,62,97,0
0,66,86,0
0,70,72,0
0,38,127,20
0,42,82,0
0,62,83,2
0,69,48,0
0,62,112,16
0,69,84,2
0,35,127,4
0,38,127,0
0,36,127,2
0,42,107,0
0,62,112,0
0,62,127,0
0,62,94,2
0,69,91,0
0,40,127,30
0,42,92,0
0,64,112,2
0,64,127,0
0,64,112,0
0,55,88,2
0,62,92,0
0,70,55,0
0,59,92,2
0,64,103,0
0,36,127,112
0,42,103,2
0,64,101,0
0,70,65,0
0,62,98,4
0,40,127,32
0,42,90,0
0,76,94,2
0,71,77,0
0,79,77,0
0,71,115,2
0,71,127,0
0,64,105,0
0,62,96,2
0,70,74,0
0,76,96,24
0,71,90,0
0,79,92,0
0,71,112,2
0,71,127,0
0,62,90,2
0,70,74,0
0,35,127,0
0,36,127,0
0,38,127,2
0,42,107,0
0,76,103,0
0,79,105,2
0,71,92,0
0,71,127,0
0,59,90,0
0,71,110,2
0,62,96,0
0,70,95,2
0,38,127,30
0,71,127,2
0,62,120,0
0,46,101,0
0,62,103,2
0,70,46,0
0,71,118,0
0,40,127,24
0,64,117,2
0,36,127,0
0,42,109,0
0,71,115,2
0,71,127,0
0,59,97,2
0,64,92,0
0,63,113,0
0,70,51,0
0,67,97,2
0,42,73,84
0,35,127,0
0,62,81,2
0,69,64,0
0,59,105,20
0,69,82,0
0,40,127,36
0,42,114,0
0,36,127,2
0,38,127,0
0,67,127,0
0,67,112,2
0,62,96,0
0,69,93,0
0,38,127,20
0,42,84,0
0,69,112,2
0,69,127,0
0,62,120,0
0,57,88,2
0,62,90,0
0,70,59,0
0,62,95,2
0,66,84,0
0,36,127,112
