track,note,velocity,time
0,42,110,1538
0,42,55,94
0,42,107,126
0,42,62,112
0,42,74,42
0,42,110,46
0,42,60,108
0,42,72,38
0,42,105,46
0,42,74,112
0,42,113,126
0,42,82,112
0,42,113,138
0,42,70,108
0,42,70,40
0,42,107,46
0,42,70,120
0,42,80,40
0,42,113,48
0,42,74,116
0,42,82,38
0,42,105,42
0,42,74,112
0,42,110,134
0,42,85,116
0,42,107,128
0,42,91,124
0,42,80,38
0,42,95,42
0,42,87,122
0,42,85,40
0,42,107,36
0,42,80,116
0,42,100,136
0,42,74,136
0,42,80,48
0,42,105,42
0,42,70,116
0,42,85,40
0,42,102,42
0,42,80,122
0,42,107,134
0,36,127,2
0,63,98,0
0,67,98,0
0,36,127,0
0,60,96,2
0,55,97,0
0,63,82,0
0,60,93,0
0,42,82,28
0,36,127,32
0,36,127,0
0,60,98,2
0,63,100,0
0,67,96,0
0,42,102,12
0,42,82,112
0,36,127,0
0,60,100,2
0,63,94,0
0,67,102,0
0,36,127,0
0,42,93,80
0,42,74,108
0,63,89,0
0,67,102,0
0,72,91,2
0,79,127,0
0,63,76,36
0,67,104,0
0,72,89,0
0,67,111,12
0,42,110,0
0,82,121,2
0,63,93,0
0,72,109,0
0,42,82,112
0,84,121,0
0,42,68,16
0,42,107,52
0,36,127,0
0,58,112,2
0,67,112,0
0,39,127,0
0,63,98,2
0,55,93,0
0,58,90,0
0,63,90,0
0,42,87,32
0,36,127,42
0,58,92,0
0,39,127,0
0,63,83,2
0,67,98,0
0,42,110,38
0,42,70,116
0,36,127,0
0,39,127,0
0,63,98,2
0,58,105,0
0,67,109,0
0,79,127,2
0,42,107,58
0,63,89,24
0,42,85,0
0,77,121,2
0,61,86,0
0,67,95,0
0,70,78,0
0,67,91,44
0,63,76,0
0,42,74,0
0,61,72,2
0,70,68,0
0,70,89,36
0,42,107,0
0,75,115,2
0,61,76,0
0,63,78,0
0,67,109,0
0,72,118,16
0,42,89,0
0,42,89,40
0,42,110,40
0,36,127,0
0,63,102,2
0,68,92,0
0,44,127,0
0,60,94,2
0,60,110,0
0,56,93,0
0,63,90,2
0,42,80,32
0,36,127,36
0,68,94,0
0,44,127,0
0,60,98,2
0,63,92,0
0,42,107,20
0,42,72,124
0,36,127,0
0,44,127,0
0,68,87,2
0,63,83,0
0,60,92,0
0,42,105,56
0,68,91,88
0,42,76,0
0,84,127,2
0,63,91,0
0,66,89,0
0,72,93,0
0,72,95,46
0,66,89,0
0,63,86,2
0,68,84,0
0,82,121,0
0,68,95,4
0,42,107,0
0,84,115,2
0,63,57,0
0,72,86,0
0,66,80,0
0,42,93,28
0,42,78,48
0,42,110,6
0,36,127,0
0,57,102,2
0,38,127,0
0,77,115,2
0,62,94,0
0,65,100,0
0,60,96,0
0,57,93,2
0,60,93,0
0,62,99,0
0,65,97,0
0,81,121,0
0,42,82,0
0,36,127,36
0,62,96,0
0,38,127,0
0,57,100,2
0,60,92,0
0,65,98,0
0,42,105,30
0,84,118,0
0,31,127,70
0,42,74,0
0,36,127,0
0,62,94,2
0,59,96,0
0,67,107,2
0,79,121,0
0,62,95,0
0,59,86,0
0,67,97,2
0,83,118,28
0,42,105,0
0,67,99,44
0,42,85,0
0,86,121,2
0,62,95,0
0,71,91,0
0,67,106,46
0,71,97,0
0,42,80,0
0,62,93,0
0,62,99,46
0,42,107,0
0,89,118,2
0,71,106,0
0,67,109,0
0,91,118,16
0,42,82,0
0,42,85,44
0,42,113,12
0,36,127,0
0,63,98,2
0,36,127,0
0,67,109,2
0,60,108,0
0,55,101,0
0,63,95,0
0,42,89,44
0,36,127,40
0,36,127,0
0,67,92,2
0,58,92,0
0,63,75,0
0,68,77,0
0,42,110,36
0,42,70,112
0,36,127,0
0,36,127,0
0,63,100,2
0,60,107,0
0,67,102,0
0,42,110,76
0,42,66,112
0,67,80,0
0,63,63,0
0,72,74,2
0,67,127,0
0,63,72,40
0,67,95,0
0,72,89,0
0,72,114,16
0,63,106,0
0,42,110,0
0,67,111,2
0,70,123,0
0,58,92,16
0,42,93,0
0,72,120,2
0,60,96,28
0,42,95,0
0,42,107,16
0,36,127,0
0,67,96,2
0,63,89,0
0,39,127,0
0,79,127,2
0,63,90,0
0,55,99,0
0,58,95,2
0,42,74,40
0,39,127,12
0,36,127,0
0,67,96,0
0,58,81,0
0,63,73,0
0,42,110,8
0,42,74,108
0,36,127,0
0,67,117,2
0,58,102,0
0,63,96,0
0,39,127,0
0,77,121,2
0,42,110,86
0,67,68,12
0,61,86,0
0,42,85,0
0,70,74,0
0,63,67,0
0,61,67,12
0,42,78,0
0,63,89,2
0,67,95,0
0,70,67,0
0,42,110,48
0,61,67,0
0,63,86,2
0,70,76,0
0,67,95,0
0,75,127,0
0,42,74,116
0,42,85,16
0,42,110,4
0,36,127,0
0,63,92,2
0,68,92,0
0,60,92,0
0,44,127,0
0,60,110,2
0,56,95,0
0,63,86,0
0,60,115,2
0,72,117,0
0,42,66,16
0,36,127,32
0,44,127,0
0,63,105,2
0,68,94,0
0,60,98,0
0,42,110,0
0,42,66,104
0,36,127,0
0,63,105,2
0,60,102,0
0,68,96,0
0,44,127,0
0,42,110,80
0,42,70,112
0,66,64,0
0,63,63,2
0,68,61,0
0,72,64,0
0,71,115,0
0,68,76,44
0,72,58,0
0,63,61,0
0,66,78,2
0,72,121,0
0,68,91,8
0,42,110,0
0,74,127,2
0,66,86,0
0,63,89,0
0,72,91,0
0,76,115,0
0,77,113,10
0,42,80,0
0,78,121,8
0,42,89,0
0,42,105,8
0,36,127,2
0,60,109,0
0,65,112,0
0,38,127,0
0,79,121,2
0,62,105,0
0,62,113,0
0,57,115,2
0,60,110,0
0,65,110,0
0,72,117,0
0,77,112,2
0,74,117,0
0,74,112,6
0,72,112,0
0,77,117,0
0,42,76,30
0,36,127,40
0,38,127,0
0,62,107,2
0,60,105,0
0,65,107,0
0,72,117,2
0,74,117,0
0,77,110,0
0,42,113,22
0,77,112,0
0,72,103,2
0,74,115,0
0,42,80,82
0,36,127,0
0,62,114,2
0,59,112,0
0,67,112,0
0,31,127,0
0,62,110,2
0,59,113,0
0,67,110,0
0,72,97,2
0,74,110,0
0,77,108,0
0,42,82,16
0,71,123,0
0,74,120,0
0,79,126,2
0,42,110,4
0,74,123,38
0,71,126,0
0,79,117,0
0,67,89,44
0,42,93,0
0,71,86,2
0,62,86,0
0,31,127,0
0,71,117,2
0,79,123,0
0,74,126,0
0,42,95,48
0,67,97,0
0,71,89,2
0,62,76,0
0,67,109,12
0,42,105,0
0,71,109,2
0,62,104,0
0,33,127,0
0,69,123,2
0,77,120,0
0,72,127,0
0,35,127,12
0,46,107,0
0,74,120,2
0,71,117,0
0,79,120,0
0,42,107,4
0,36,127,0
0,60,105,2
0,63,102,0
0,36,127,0
0,67,105,2
0,63,121,0
0,67,115,0
0,60,118,0
0,67,127,0
0,49,89,0
0,67,127,28
0,42,70,0
0,42,93,56
0,63,109,0
0,36,127,0
0,60,100,2
0,67,105,0
0,42,110,4
0,36,127,0
0,31,127,2
0,36,127,0
0,42,87,0
0,63,100,2
0,60,105,0
0,67,112,0
0,42,93,12
0,42,110,20
0,36,127,0
0,42,70,110
0,67,91,0
0,63,74,0
0,72,89,2
0,67,95,44
0,63,72,0
0,42,87,0
0,72,74,2
0,42,113,4
0,36,127,0
0,67,114,2
0,63,106,0
0,72,117,0
0,42,78,104
0,58,114,0
0,42,91,48
0,60,102,0
0,42,113,16
0,36,127,0
0,63,89,2
0,67,98,0
0,39,127,0
0,63,110,2
0,67,115,0
0,58,113,0
0,42,102,32
0,58,96,42
0,67,96,0
0,39,127,0
0,63,77,2
0,42,116,12
0,36,127,0
0,34,127,2
0,42,76,96
0,39,127,0
0,58,96,2
0,67,109,0
0,63,85,0
0,42,78,44
0,42,110,20
0,36,127,0
0,75,112,2
0,63,76,88
0,42,91,0
0,61,64,2
0,67,70,0
0,70,53,0
0,72,110,0
0,42,98,36
0,63,82,0
0,61,72,0
0,67,97,2
0,70,86,0
0,42,110,4
0,36,127,0
0,67,95,2
0,70,84,0
0,61,74,0
0,63,89,0
0,70,112,2
0,67,105,0
0,46,107,0
0,42,105,26
0,36,127,0
0,63,87,2
0,44,127,0
0,68,83,2
0,60,96,0
0,56,110,0
0,60,118,0
0,63,101,2
0,65,115,0
0,42,89,12
0,42,91,44
0,60,92,0
0,44,127,0
0,63,83,2
0,68,92,0
0,42,110,10
0,36,127,0
0,63,100,2
0,39,127,0
0,44,127,8
0,42,95,0
0,63,94,2
0,60,98,0
0,68,94,0
0,42,113,60
0,36,127,0
0,63,107,2
0,42,85,118
0,63,68,0
0,65,65,0
0,72,65,2
0,68,86,0
0,63,76,32
0,42,85,0
0,65,89,2
0,68,89,0
0,72,57,0
0,72,97,20
0,42,107,0
0,36,127,0
0,63,86,2
0,65,99,0
0,68,99,0
0,65,112,2
0,42,98,112
0,67,103,0
0,42,91,36
0,42,110,36
0,36,127,0
0,57,109,2
0,38,127,0
0,62,94,2
0,60,96,0
0,65,92,0
0,62,113,0
0,65,110,2
0,57,113,0
0,60,110,0
0,42,89,28
0,38,127,28
0,42,87,0
0,65,112,2
0,60,100,0
0,62,102,0
0,42,110,4
0,36,127,0
0,43,127,0
0,42,89,0
0,67,109,2
0,62,109,0
0,59,109,0
0,59,101,0
0,62,99,2
0,67,106,0
0,42,89,4
0,42,110,12
0,36,127,0
0,67,99,12
0,42,89,0
0,38,127,0
0,71,93,2
0,62,91,0
0,31,127,2
0,42,93,40
0,67,95,0
0,62,74,0
0,71,70,2
0,42,110,20
0,36,127,0
0,38,127,0
0,71,99,2
0,62,91,0
0,67,102,0
0,33,127,2
0,46,98,28
0,36,127,0
0,35,127,2
0,42,102,26
0,36,127,0
0,63,102,2
0,67,109,0
0,36,127,0
0,60,100,2
0,55,103,0
0,63,113,0
0,60,118,0
0,67,121,2
0,49,93,0
0,67,110,24
0,42,93,0
0,42,80,52
0,36,127,0
0,60,105,2
0,63,100,0
0,67,109,0
0,42,107,4
0,36,127,0
0,38,127,2
0,31,127,0
0,36,127,48
0,42,74,0
0,67,109,2
0,60,105,0
0,63,94,0
0,42,89,48
0,42,105,16
0,36,127,0
0,42,76,74
0,63,86,0
0,67,95,0
0,72,86,2
0,63,70,44
0,42,89,0
0,67,95,2
0,72,63,0
0,42,110,40
0,36,127,0
0,38,127,2
0,63,72,0
0,67,102,0
0,72,93,0
0,42,105,64
0,58,109,0
0,60,105,40
0,42,105,4
0,36,127,2
0,63,92,0
0,67,100,0
0,39,127,0
0,58,71,2
0,55,108,0
0,58,113,0
0,63,101,0
0,42,87,10
0,42,93,48
0,39,127,0
0,63,94,2
0,67,112,0
0,42,107,16
0,36,127,0
0,38,127,2
0,34,127,0
0,42,105,74
0,39,127,0
0,67,117,2
0,63,100,0
0,67,118,0
0,42,95,28
0,42,110,4
0,36,127,0
0,75,115,2
0,63,84,40
0,61,70,0
0,42,95,0
0,70,74,2
0,67,74,0
0,72,115,0
0,42,93,38
0,63,70,0
0,61,63,0
0,70,57,2
0,67,80,0
0,42,110,0
0,36,127,0
0,38,127,2
0,61,74,0
0,63,80,0
0,70,91,0
0,67,97,2
0,70,115,0
0,63,109,4
0,42,93,0
0,67,112,2
0,65,98,32
0,42,91,0
0,42,110,8
0,36,127,2
0,63,105,0
0,68,109,0
0,44,127,0
0,60,118,2
0,63,97,0
0,56,103,0
0,65,115,2
0,60,87,28
0,42,68,8
0,42,91,56
0,44,127,0
0,68,112,2
0,63,109,0
0,42,107,16
0,38,127,0
0,36,127,2
0,63,112,0
0,39,127,0
0,44,127,12
0,42,95,0
0,68,109,2
0,63,98,0
0,60,109,0
0,42,107,4
0,36,127,0
0,63,112,2
0,42,93,102
0,66,72,0
0,63,72,0
0,72,70,2
0,68,64,0
0,42,91,36
0,63,72,0
0,66,74,0
0,72,74,2
0,68,72,0
0,42,110,32
0,38,127,0
0,66,72,2
0,68,82,0
0,72,93,0
0,36,127,0
0,65,118,2
0,42,91,12
0,67,115,2
0,42,89,8
0,42,107,38
0,36,127,0
0,65,112,2
0,62,109,0
0,38,127,0
0,60,105,2
0,60,110,0
0,62,113,0
0,65,113,0
0,57,118,2
0,42,87,32
0,38,127,4
0,42,93,0
0,62,109,2
0,60,107,0
0,65,114,0
0,42,107,12
0,38,127,0
0,36,127,2
0,43,127,32
0,42,100,0
0,62,105,2
0,59,102,0
0,67,107,0
0,67,113,0
0,62,115,2
0,55,115,0
0,42,89,44
0,42,107,50
0,36,127,0
0,67,93,40
0,42,102,0
0,62,89,2
0,71,89,0
0,43,127,0
0,62,80,32
0,42,91,0
0,71,76,2
0,67,91,0
0,42,107,28
0,36,127,0
0,38,127,0
0,67,106,2
0,71,106,0
0,62,97,0
0,67,112,2
0,31,127,0
0,55,115,4
0,46,105,0
0,65,105,2
0,42,102,12
0,36,127,0
0,60,100,2
0,63,96,0
0,36,127,0
0,67,100,2
0,67,115,0
0,63,121,0
0,60,110,2
0,67,121,0
0,42,85,106
0,63,94,0
0,42,85,52
0,36,127,0
0,63,109,2
0,60,107,0
0,67,109,0
0,42,113,48
0,38,127,0
0,31,127,2
0,65,112,0
0,36,127,0
0,42,91,80
0,36,127,0
0,60,100,2
0,63,102,0
0,67,112,0
0,63,110,0
0,42,82,40
0,42,100,0
0,36,127,0
0,67,84,4
0,42,72,0
0,72,72,2
0,63,62,0
0,60,118,0
0,63,118,0
0,67,115,2
0,42,72,0
0,63,70,2
0,67,95,0
0,72,70,0
0,42,107,32
0,36,127,0
0,38,127,0
0,63,80,2
0,72,95,0
0,67,106,0
0,65,112,2
0,42,110,20
0,34,127,0
0,63,110,2
0,36,127,4
0,42,110,14
0,36,127,0
0,63,96,2
0,58,96,0
0,39,127,0
0,67,100,2
0,67,121,0
0,63,115,0
0,58,118,0
0,67,115,2
0,42,82,58
0,63,110,0
0,42,93,36
0,39,127,0
0,63,100,2
0,58,102,0
0,67,102,0
0,42,107,12
0,36,127,0
0,38,127,0
0,65,110,2
0,34,127,0
0,42,89,8
0,39,127,0
0,63,96,2
0,67,105,0
0,58,98,0
0,63,110,2
0,42,85,44
0,42,107,40
0,36,127,0
0,42,85,12
0,67,76,0
0,63,78,0
0,70,78,2
0,58,110,0
0,67,113,2
0,63,103,0
0,67,89,16
0,42,93,0
0,63,62,2
0,70,76,0
0,42,110,28
0,38,127,0
0,36,127,0
0,70,97,2
0,63,91,0
0,67,111,0
0,42,100,24
0,65,112,0
0,39,127,0
0,41,127,16
0,42,95,0
0,42,102,20
0,36,127,0
0,60,102,2
0,44,127,0
0,67,96,2
0,56,85,0
0,63,103,0
0,60,113,0
0,67,115,2
0,67,112,0
0,65,112,8
0,42,87,0
0,42,91,46
0,44,127,0
0,56,105,2
0,60,109,0
0,67,109,0
0,42,107,0
0,38,127,0
0,36,127,0
0,39,127,2
0,42,91,62
0,56,102,0
0,44,127,0
0,67,112,2
0,60,105,0
0,63,115,2
0,42,85,44
0,42,107,56
0,36,127,0
0,63,65,14
0,67,63,0
0,42,85,0
0,72,58,2
0,68,62,0
0,67,82,40
0,42,74,0
0,63,63,2
0,68,86,0
0,72,65,0
0,42,113,32
0,36,127,0
0,38,127,0
0,67,74,2
0,68,74,0
0,63,59,0
0,72,64,0
0,65,112,0
0,42,113,44
0,39,127,32
0,42,107,4
0,36,127,0
0,59,117,2
0,56,92,0
0,32,127,0
0,68,107,2
0,63,124,0
0,59,121,0
0,67,124,2
0,42,95,76
0,42,91,36
0,32,127,0
0,68,100,2
0,56,85,0
0,59,109,0
0,42,110,12
0,36,127,0
0,38,127,2
0,65,124,0
0,39,127,0
0,32,127,6
0,42,110,0
0,59,123,2
0,68,109,0
0,56,96,0
0,63,118,2
0,56,97,0
0,42,87,28
0,42,113,48
0,36,127,0
0,68,74,10
0,42,95,0
0,71,82,2
0,63,70,0
0,42,91,36
0,63,76,0
0,71,84,0
