track,note,velocity,time
1,60,127,14184
1,60,127,186
1,60,127,378
1,65,127,186
1,65,127,378
1,62,127,186
1,58,127,378
1,55,127,378
1,62,127,378
1,62,127,378
1,60,127,186
1,64,127,378
1,62,127,186
1,58,127,378
1,57,127,378
1,60,127,1530
1,60,127,186
1,69,127,378
1,67,127,186
1,65,127,378
1,62,127,378
1,58,127,378
1,55,127,378
1,62,127,378
1,62,127,378
1,60,127,186
1,65,127,378
1,64,127,186
1,67,127,378
1,65,127,378
1,60,127,1722
1,60,127,186
1,60,127,378
1,65,127,186
1,65,127,378
1,62,127,186
1,58,127,378
1,55,127,378
1,62,127,378
1,62,127,378
1,60,127,186
1,64,127,378
1,62,127,186
1,58,127,378
1,57,127,378
1,60,127,1530
1,60,127,186
1,69,127,378
1,67,127,186
1,65,127,378
1,62,127,378
1,58,127,378
1,55,127,378
1,62,127,378
1,62,127,378
1,60,127,186
1,65,127,378
1,64,127,186
1,67,127,378
1,65,127,378
1,65,127,1722
1,69,127,0
1,65,127,378
1,69,127,0
1,67,127,378
1,70,127,0
1,67,127,378
1,70,127,0
1,64,127,378
1,67,127,0
1,64,127,378
1,67,127,0
1,65,127,186
1,69,127,0
1,65,127,378
1,69,127,0
1,64,127,378
1,67,127,0
1,62,127,186
1,65,127,0
1,62,127,186
1,65,127,0
1,62,127,378
1,65,127,0
1,58,127,186
1,67,127,0
1,58,127,378
1,65,127,0
1,60,127,378
1,64,127,0
1,58,127,1338
1,62,127,0
1,57,127,186
1,60,127,0
1,60,127,378
1,69,127,0
1,58,127,186
1,67,127,0
1,57,127,378
1,65,127,0
1,62,127,378
1,58,127,378
1,55,127,378
1,62,127,378
1,62,127,378
1,60,127,186
1,65,127,378
1,58,127,378
1,64,127,0
1,58,127,378
1,67,127,0
1,57,127,378
1,65,127,0
1,65,127,1530
1,69,127,0
1,65,127,378
1,69,127,0
1,67,127,378
1,70,127,0
1,67,127,378
1,70,127,0
1,64,127,378
1,67,127,0
1,64,127,378
1,67,127,0
1,65,127,186
1,69,127,0
1,65,127,378
1,69,127,0
1,64,127,378
1,67,127,0
1,62,127,186
1,65,127,0
1,62,127,186
1,65,127,0
1,62,127,378
1,65,127,0
1,58,127,186
1,67,127,0
1,58,127,378
1,65,127,0
1,60,127,378
1,64,127,0
1,58,127,1338
1,62,127,0
1,57,127,186
1,60,127,0
1,60,127,378
1,69,127,0
1,58,127,186
1,67,127,0
1,57,127,378
1,65,127,0
1,62,127,378
1,58,127,378
1,55,127,378
1,62,127,378
1,62,127,378
1,60,127,186
1,65,127,378
1,58,127,378
1,64,127,0
1,58,127,378
1,67,127,0
1,57,127,378
1,65,127,0
1,57,112,1532
1,60,102,80
1,57,101,66
1,60,104,68
1,57,104,58
1,60,99,64
1,57,101,54
1,60,97,84
1,57,98,44
1,60,94,72
1,57,99,50
1,60,99,70
1,57,101,58
1,60,95,70
1,57,99,54
1,60,96,62
1,57,100,62
1,60,98,60
1,57,98,50
1,60,97,68
1,57,101,48
1,60,106,58
1,57,111,40
1,58,109,116
1,62,97,42
1,58,102,90
1,62,97,72
1,58,99,54
1,62,109,64
1,58,107,62
1,62,102,66
1,58,104,60
1,62,102,74
1,58,102,52
1,62,103,62
1,58,99,62
1,62,106,66
1,58,103,56
1,62,105,66
1,58,99,58
1,62,99,64
1,58,106,60
1,62,106,68
1,58,102,34
1,62,110,76
1,55,113,48
1,58,102,88
1,55,99,62
1,58,102,66
1,55,100,66
1,58,102,62
1,55,108,66
1,58,103,60
1,55,101,76
1,58,102,56
1,55,104,70
1,58,105,60
1,55,101,76
1,58,103,52
1,55,102,76
1,58,100,58
1,55,99,66
1,58,94,64
1,55,108,62
1,58,90,56
1,55,102,60
1,58,104,28
1,53,107,76
1,57,94,72
1,53,104,76
1,57,106,50
1,53,103,66
1,57,106,70
1,53,102,66
1,57,102,54
1,53,99,76
1,57,99,66
1,53,100,64
1,57,101,56
1,53,96,74
1,57,101,60
1,53,97,64
1,57,104,62
1,53,99,80
1,57,99,44
1,53,99,64
1,57,99,56
1,57,112,172
1,65,81,108
1,57,102,38
1,65,108,60
1,57,106,74
1,65,105,52
1,57,107,72
1,65,104,54
1,57,104,66
1,65,106,60
1,57,110,62
1,65,100,26
1,57,112,80
1,63,80,94
1,57,102,42
1,63,107,70
1,57,107,60
1,63,103,56
1,57,112,78
1,63,96,50
1,57,104,74
1,63,101,34
1,53,113,92
1,62,102,72
1,53,104,70
1,62,107,64
1,53,101,68
1,62,109,54
1,53,99,72
1,62,102,58
1,53,102,74
1,62,100,36
1,53,102,78
1,62,104,62
1,53,102,76
1,62,101,66
1,53,102,66
1,62,106,54
1,53,103,82
1,62,104,54
1,53,101,78
1,62,104,50
1,53,87,78
1,62,108,44
1,53,107,72
1,60,106,64
1,53,101,68
1,60,105,64
1,53,99,62
1,60,106,60
1,53,102,78
1,60,104,52
1,53,103,62
1,60,106,62
1,53,101,42
1,52,108,114
1,58,87,50
1,52,105,90
1,58,108,60
1,52,104,72
1,58,108,54
1,52,97,74
1,58,99,62
1,52,99,40
1,58,106,68
1,48,113,80
1,57,108,58
1,48,96,82
1,57,106,56
1,48,106,74
1,57,99,70
1,48,93,68
1,57,91,60
1,48,92,88
1,57,92,52
1,48,87,84
1,57,90,52
1,48,86,86
1,58,112,37514
1,61,102,80
1,58,101,66
1,61,104,68
1,58,104,58
1,61,99,64
1,58,101,54
1,61,97,84
1,58,98,44
1,61,94,72
1,58,99,50
1,61,99,70
1,58,101,58
1,61,95,70
1,58,99,54
1,61,96,62
1,58,100,62
1,61,98,60
1,58,98,50
1,61,97,68
1,58,101,48
1,61,106,58
1,58,111,40
1,59,109,116
1,63,97,42
1,59,102,90
1,63,97,72
1,59,99,54
1,63,109,64
1,59,107,62
1,63,102,66
1,59,104,60
1,63,102,74
1,59,102,52
1,63,103,62
1,59,99,62
1,63,106,66
1,59,103,56
1,63,105,66
1,59,99,58
1,63,99,64
1,59,106,60
1,63,106,68
1,59,102,34
1,63,110,76
1,56,113,48
1,59,102,88
1,56,99,62
1,59,102,66
1,56,100,66
1,59,102,62
1,56,108,66
1,59,103,60
1,56,101,76
1,59,102,56
1,56,104,70
1,59,105,60
1,56,101,76
1,59,103,52
1,56,102,76
1,59,100,58
1,56,99,66
1,59,94,64
1,56,108,62
1,59,90,56
1,56,102,60
1,59,104,28
1,54,107,76
1,58,94,72
1,54,104,76
1,58,106,50
1,54,103,66
1,58,106,70
1,54,102,66
1,58,102,54
1,54,99,76
1,58,99,66
1,54,100,64
1,58,101,56
1,54,96,74
1,58,101,60
1,54,97,64
1,58,104,62
1,54,99,80
1,58,99,44
1,54,99,64
1,58,99,56
1,58,112,172
1,66,81,108
1,58,102,38
1,66,108,60
1,58,106,74
1,66,105,52
1,58,107,72
1,66,104,54
1,58,104,66
1,66,106,60
1,58,110,62
1,66,100,26
1,58,112,80
1,64,80,94
1,58,102,42
1,64,107,70
1,58,107,60
1,64,103,56
1,58,112,78
1,64,96,50
1,58,104,74
1,64,101,34
1,54,113,92
1,63,102,72
1,54,104,70
1,63,107,64
1,54,101,68
1,63,109,54
1,54,99,72
1,63,102,58
1,54,102,74
1,63,100,36
1,54,102,78
1,63,104,62
1,54,102,76
1,63,101,66
1,54,102,66
1,63,106,54
1,54,103,82
1,63,104,54
1,54,101,78
1,63,104,50
1,54,87,78
1,63,108,44
1,54,107,72
1,61,106,64
1,54,101,68
1,61,105,64
1,54,99,62
1,61,106,60
1,54,102,78
1,61,104,52
1,54,103,62
1,61,106,62
1,54,101,42
1,53,108,114
1,59,87,50
1,53,105,90
1,59,108,60
1,53,104,72
1,59,108,54
1,53,97,74
1,59,99,62
1,53,99,40
1,59,106,68
1,49,113,80
1,58,108,58
1,49,96,82
1,58,106,56
1,49,106,74
1,58,99,70
1,49,93,68
1,58,91,60
1,49,92,88
1,58,92,52
1,49,87,84
1,58,90,52
1,49,86,86
1,58,127,43664
1,66,124,66
1,58,110,86
1,66,116,62
1,58,116,70
1,66,108,60
1,58,108,60
1,66,108,70
1,58,109,54
1,66,106,68
1,58,106,62
1,66,104,72
1,58,108,62
1,66,102,70
1,58,104,68
1,66,96,72
1,58,99,58
1,66,91,70
1,58,93,70
1,66,69,90
1,58,95,48
1,66,86,74
1,58,90,68
1,66,85,84
1,58,93,54
1,66,92,82
1,58,88,66
1,66,67,106
1,58,88,46
1,66,81,78
1,58,88,58
1,66,88,84
1,58,89,54
1,66,86,88
1,58,89,54
1,66,86,86
1,58,83,52
1,66,81,92
1,58,74,60
1,66,76,94
1,58,89,56
1,66,113,1966
1,78,115,0
1,66,124,194
1,78,118,0
1,78,123,178
1,66,127,2
2,29,127,14184
2,41,127,54
2,33,127,76
2,34,120,52
2,34,122,96
2,31,127,28
2,36,120,78
2,24,127,62
2,24,127,64
2,29,127,66
2,36,127,6
2,24,127,54
2,29,127,82
2,29,113,64
2,31,121,40
2,33,121,76
2,34,123,74
2,34,118,80
2,31,124,84
2,31,122,74
2,36,121,68
2,24,127,96
2,24,127,70
2,29,127,56
2,29,127,72
2,24,127,36
2,24,127,66
2,29,127,56
2,41,127,54
2,33,127,76
2,34,120,52
2,34,122,96
2,31,127,28
2,36,120,78
2,24,127,62
2,24,127,64
2,29,127,66
2,36,127,6
2,24,127,54
2,29,127,82
2,29,113,64
2,31,121,40
2,33,121,76
2,34,123,74
2,34,118,80
2,31,124,84
2,31,122,74
2,36,121,68
2,24,127,96
2,24,127,70
2,29,127,56
2,29,127,72
2,24,127,36
2,24,127,66
2,29,112,56
2,29,127,58
2,31,127,60
2,31,127,56
2,24,127,56
2,24,127,76
2,29,127,50
2,28,127,56
2,26,127,78
2,26,127,70
2,31,127,48
2,31,104,28
2,31,127,82
2,24,127,54
2,36,127,64
2,24,127,40
2,28,127,24
2,29,127,56
2,31,127,30
2,33,127,46
2,34,127,74
2,34,127,72
2,31,127,36
2,31,127,74
2,36,127,18
2,24,127,22
2,24,127,36
2,24,127,76
2,29,127,44
2,29,127,84
2,24,127,22
2,29,112,74
2,29,127,58
2,31,127,60
2,31,127,56
2,24,127,56
2,24,127,76
2,29,127,50
2,28,127,56
2,26,127,78
2,26,127,70
2,31,127,48
2,31,104,28
2,31,127,82
2,24,127,54
2,36,127,64
2,24,127,40
2,28,127,24
2,29,127,56
2,31,127,30
2,33,127,46
2,34,127,74
2,34,127,72
2,31,127,36
2,31,127,74
2,36,127,18
2,24,127,22
2,24,127,36
2,24,127,76
2,29,127,44
2,29,127,84
2,24,127,22
2,29,127,74
2,41,127,54
2,33,127,76
2,34,120,52
2,34,122,96
2,31,127,28
2,36,120,78
2,24,127,62
2,24,127,64
2,29,127,66
2,36,127,6
2,24,127,54
2,29,127,82
2,29,113,64
2,31,121,40
2,33,121,76
2,34,123,74
2,34,118,80
2,31,124,84
2,31,122,74
2,36,121,68
2,24,127,96
2,24,127,70
2,29,127,56
2,29,127,72
2,24,127,36
2,24,127,66
2,29,127,56
2,41,127,54
2,33,127,76
2,34,120,52
2,34,122,96
2,31,127,28
2,36,120,78
2,24,127,62
2,24,127,64
2,29,127,66
2,36,127,6
2,24,127,54
2,29,127,82
2,29,113,64
2,31,121,40
2,33,121,76
2,34,123,74
2,34,118,80
2,31,124,84
2,31,122,74
2,36,121,68
2,24,127,96
2,24,127,70
2,29,127,56
2,29,127,72
2,24,127,36
2,24,127,66
2,29,112,56
2,29,127,58
2,31,127,60
2,31,127,56
2,24,127,56
2,24,127,76
2,29,127,50
2,28,127,56
2,26,127,78
2,26,127,70
2,31,127,48
2,31,104,28
2,31,127,82
2,24,127,54
2,36,127,64
2,24,127,40
2,28,127,24
2,29,127,56
2,31,127,30
2,33,127,46
2,34,127,74
2,34,127,72
2,31,127,36
2,31,127,74
2,36,127,18
2,24,127,22
2,24,127,36
2,24,127,76
2,29,127,44
2,29,127,84
2,24,127,22
2,29,112,74
2,29,127,58
2,31,127,60
2,31,127,56
2,24,127,56
2,24,127,76
2,29,127,50
2,28,127,56
2,26,127,78
2,26,127,70
2,31,127,48
2,31,104,28
2,31,127,82
2,24,127,54
2,36,127,64
2,24,127,40
2,28,127,24
2,29,127,56
2,31,127,30
2,33,127,46
2,34,127,74
2,34,127,72
2,31,127,36
2,31,127,74
2,36,127,18
2,24,127,22
2,24,127,36
2,24,127,76
2,29,127,44
2,29,127,84
2,24,127,22
2,30,127,74
2,42,127,54
2,34,127,76
2,35,120,52
2,35,122,96
2,32,127,28
2,37,120,78
2,25,127,62
2,25,127,64
2,30,127,66
2,37,127,6
2,25,127,54
2,30,127,82
2,30,113,64
2,32,121,40
2,34,121,76
2,35,123,74
2,35,118,80
2,32,124,84
2,32,122,74
2,37,121,68
2,25,127,96
2,25,127,70
2,30,127,56
2,30,127,72
2,25,127,36
2,25,127,66
2,30,127,56
2,42,127,54
2,34,127,76
2,35,120,52
2,35,122,96
2,32,127,28
2,37,120,78
2,25,127,62
2,25,127,64
2,30,127,66
2,37,127,6
2,25,127,54
2,30,127,82
2,30,113,64
2,32,121,40
2,34,121,76
2,35,123,74
2,35,118,80
2,32,124,84
2,32,122,74
2,37,121,68
2,25,127,96
2,25,127,70
2,30,127,56
2,30,127,72
2,25,127,36
2,25,127,66
2,30,112,56
2,30,127,58
2,32,127,60
2,32,127,56
2,25,127,56
2,25,127,76
2,30,127,50
2,29,127,56
2,27,127,78
2,27,127,70
2,32,127,48
2,32,104,28
2,32,127,82
2,25,127,54
2,37,127,64
2,25,127,40
2,29,127,24
2,30,127,56
2,32,127,30
2,34,127,46
2,35,127,74
2,35,127,72
2,32,127,36
2,32,127,74
2,37,127,18
2,25,127,22
2,25,127,36
2,25,127,76
2,30,127,44
2,30,127,84
2,25,127,22
2,30,112,74
2,30,127,58
2,32,127,60
2,32,127,56
2,25,127,56
2,25,127,76
2,30,127,50
2,29,127,56
2,27,127,78
2,27,127,70
2,32,127,48
2,32,104,28
2,32,127,82
2,25,127,54
2,37,127,64
2,25,127,40
2,29,127,24
2,30,127,56
2,32,127,30
2,34,127,46
2,35,127,74
2,35,127,72
2,32,127,36
2,32,127,74
2,37,127,18
2,25,127,22
2,25,127,36
2,25,127,76
2,30,127,44
2,30,127,84
2,25,127,22
2,27,127,74
2,39,127,76
2,27,127,28
2,32,127,70
2,32,127,70
2,34,127,66
2,35,127,78
2,37,127,108
2,37,127,102
2,32,127,26
2,25,127,58
2,25,127,118
2,25,127,88
2,30,127,78
2,42,127,56
2,37,127,12
2,30,127,86
2,42,127,48
2,37,127,66
2,30,127,58
2,42,127,86
2,37,127,52
2,25,127,52
2,30,127,34
2,30,127,184
2,30,127,64
2,30,127,56
3,48,127,14184
3,53,127,0
3,55,127,0
3,57,123,0
3,48,112,54
3,53,127,0
3,57,127,0
3,60,127,0
3,50,127,0
3,53,127,0
3,55,127,0
3,58,126,0
3,50,115,0
3,53,118,0
3,55,122,0
3,46,118,0
3,48,120,0
3,52,127,0
3,55,124,0
3,46,99,0
3,48,101,0
3,48,127,0
3,53,127,0
3,57,127,0
3,53,126,0
3,55,127,0
3,57,122,0
3,60,127,0
3,60,127,0
3,53,120,0
3,57,114,0
3,51,121,0
3,55,127,0
3,57,119,0
3,50,127,0
3,53,127,0
3,58,127,0
3,50,127,0
3,53,127,0
3,55,127,0
3,58,127,0
3,46,127,0
3,48,116,0
3,53,127,0
3,46,126,0
3,48,127,0
3,52,127,0
3,45,127,0
3,48,127,0
3,53,127,0
3,48,127,0
3,53,124,0
3,55,123,0
3,48,127,0
3,53,127,0
3,55,127,0
3,57,123,0
3,48,112,54
3,53,127,0
3,57,127,0
3,60,127,0
3,50,127,0
3,53,127,0
3,55,127,0
3,58,126,0
3,50,115,0
3,53,118,0
3,55,122,0
3,46,118,0
3,48,120,0
3,52,127,0
3,55,124,0
3,46,99,0
3,48,101,0
3,48,127,0
3,53,127,0
3,57,127,0
3,53,126,0
3,55,127,0
3,57,122,0
3,60,127,0
3,60,127,0
