track,note,velocity,time
1,45,97,960
1,45,0,119
1,45,77,61
1,45,0,59
1,45,104,1
1,45,0,119
1,45,79,61
1,45,0,59
1,48,82,1
1,48,0,119
1,48,90,61
1,48,0,59
1,48,102,1
1,48,0,119
1,48,94,61
1,48,0,59
1,41,81,1
1,41,0,119
1,41,89,61
1,41,0,59
1,41,85,1
1,41,0,119
1,41,91,61
1,41,0,59
1,47,91,1
1,47,0,119
1,47,76,61
1,47,0,59
1,52,93,1
1,52,0,119
1,52,87,61
1,52,0,59
1,45,84,1
1,45,0,119
1,45,91,61
1,45,0,59
1,45,95,1
1,45,0,119
1,45,78,61
1,45,0,59
1,48,77,1
1,48,0,119
1,48,86,61
1,48,0,59
1,48,102,1
1,48,0,119
1,48,75,61
1,48,0,59
1,41,79,1
1,41,0,119
1,41,85,61
1,41,0,59
1,41,96,1
1,41,0,119
1,41,79,61
1,41,0,59
1,47,94,1
1,47,0,119
1,47,85,61
1,47,0,59
1,52,99,1
1,52,0,119
1,52,78,61
1,52,0,59
1,45,87,1
1,45,0,119
1,45,87,61
1,45,0,59
1,40,85,1
1,40,0,119
1,40,84,61
1,40,0,59
1,43,90,1
1,43,0,119
1,43,94,61
1,43,0,59
1,48,102,1
1,48,0,119
1,48,80,61
1,48,0,59
1,41,91,1
1,41,0,119
1,41,87,61
1,41,0,59
1,41,103,1
1,41,0,119
1,41,84,61
1,41,0,59
1,46,87,1
1,46,0,119
1,46,89,61
1,46,0,59
1,53,88,1
1,53,0,119
1,53,76,61
1,53,0,59
1,47,88,1
1,47,0,119
1,47,89,61
1,47,0,59
1,47,88,1
1,47,0,119
1,47,81,61
1,47,0,59
1,52,78,1
1,52,0,119
1,52,93,61
1,52,0,59
1,52,93,1
1,52,0,119
1,52,82,61
1,52,0,59
1,45,88,1
1,45,0,119
1,45,86,61
1,45,0,59
1,52,95,1
1,52,0,119
1,52,88,61
1,52,0,59
1,47,86,1
1,47,0,119
1,47,76,61
1,47,0,59
1,52,87,1
1,52,0,119
1,44,104,1
1,44,0,119
1,45,82,1
1,45,0,119
1,45,75,61
1,45,0,59
1,45,93,1
1,45,0,119
1,45,92,61
1,45,0,59
1,48,80,1
1,48,0,119
1,48,82,61
1,48,0,59
1,48,99,1
1,48,0,119
1,48,92,61
1,48,0,59
1,41,77,1
1,41,0,119
1,41,86,61
1,41,0,59
1,41,99,1
1,41,0,119
1,41,83,61
1,41,0,59
1,47,84,1
1,47,0,119
1,47,93,61
1,47,0,59
1,52,85,1
1,52,0,119
1,52,92,61
1,52,0,59
1,45,79,1
1,45,0,119
1,45,87,61
1,45,0,59
1,45,102,1
1,45,0,119
1,45,90,61
1,45,0,59
1,48,94,1
1,48,0,119
1,48,82,61
1,48,0,59
1,48,101,1
1,48,0,119
1,48,88,61
1,48,0,59
1,41,76,1
1,41,0,119
1,41,93,61
1,41,0,59
1,41,86,1
1,41,0,119
1,41,85,61
1,41,0,59
1,47,84,1
1,47,0,119
1,47,86,61
1,47,0,59
1,52,92,1
1,52,0,119
1,52,78,61
1,52,0,59
1,45,86,1
1,45,0,119
1,45,82,61
1,45,0,59
1,40,100,1
1,40,0,119
1,40,84,61
1,40,0,59
1,43,85,1
1,43,0,119
1,43,80,61
1,43,0,59
1,48,104,1
1,48,0,119
1,48,81,61
1,48,0,59
1,41,93,1
1,41,0,119
1,41,91,61
1,41,0,59
1,48,91,1
1,48,0,119
1,48,81,61
1,48,0,59
1,46,90,1
1,46,0,119
1,46,79,61
1,46,0,59
1,46,100,1
1,46,0,119
1,46,87,61
1,46,0,59
1,47,93,1
1,47,0,119
1,47,76,61
1,47,0,59
1,47,98,1
1,47,0,119
1,47,81,61
1,47,0,59
1,52,81,1
1,52,0,119
1,52,94,61
1,52,0,59
1,47,103,1
1,47,0,119
1,47,89,61
1,47,0,59
1,45,81,1
1,45,0,119
1,45,92,61
1,45,0,59
1,52,92,1
1,52,0,119
1,52,76,61
1,52,0,59
1,47,75,1
1,47,0,119
1,47,86,61
1,47,0,59
1,52,95,1
1,52,0,119
1,48,88,1
1,48,0,119
1,45,83,1
1,45,0,119
1,45,86,61
1,45,0,59
1,45,96,1
1,45,0,119
1,45,85,61
1,45,0,59
1,48,78,1
1,48,0,119
1,48,91,61
1,48,0,59
1,48,91,1
1,48,0,119
1,48,79,61
1,48,0,59
1,41,75,1
1,41,0,119
1,41,91,61
1,41,0,59
1,41,100,1
1,41,0,119
1,41,78,61
1,41,0,59
1,47,81,1
1,47,0,119
1,47,80,61
1,47,0,59
1,52,100,1
1,52,0,119
1,52,91,61
1,52,0,59
1,45,90,1
1,45,0,119
1,45,86,61
1,45,0,59
1,45,94,1
1,45,0,119
1,45,91,61
1,45,0,59
1,48,91,1
1,48,0,119
1,48,82,61
1,48,0,59
1,48,100,1
1,48,0,119
1,48,78,61
1,48,0,59
1,41,84,1
1,41,0,119
1,41,92,61
1,41,0,59
1,41,90,1
1,41,0,119
1,41,87,61
1,41,0,59
1,47,91,1
1,47,0,119
1,47,84,61
1,47,0,59
1,52,91,1
1,52,0,119
1,52,80,61
1,52,0,59
1,45,87,1
1,45,0,119
1,45,80,61
1,45,0,59
1,40,94,1
1,40,0,119
1,40,91,61
1,40,0,59
1,43,88,1
1,43,0,119
1,43,82,61
1,43,0,59
1,48,93,1
1,48,0,119
1,48,87,61
1,48,0,59
1,41,94,1
1,41,0,119
1,41,82,61
1,41,0,59
1,41,95,1
1,41,0,119
1,41,93,61
1,41,0,59
1,46,89,1
1,46,0,119
1,46,81,61
1,46,0,59
1,46,104,1
1,46,0,119
1,46,87,61
1,46,0,59
1,47,93,1
1,47,0,119
1,47,86,61
1,47,0,59
1,42,101,1
1,42,0,119
1,42,83,61
1,42,0,59
1,52,77,1
1,52,0,119
1,52,89,61
1,52,0,59
1,47,92,1
1,47,0,119
1,47,93,61
1,47,0,59
1,45,93,1
1,45,0,119
1,45,78,61
1,45,0,59
1,52,96,1
1,52,0,119
1,52,78,61
1,52,0,59
1,47,92,1
1,47,0,119
1,47,91,61
1,47,0,59
1,52,96,1
1,52,0,119
1,44,93,1
1,44,0,119
1,45,97,1
1,45,0,119
1,45,77,61
1,45,0,59
1,45,104,1
1,45,0,119
1,45,79,61
1,45,0,59
1,48,82,1
1,48,0,119
1,48,90,61
1,48,0,59
1,48,102,1
1,48,0,119
1,48,94,61
1,48,0,59
1,41,81,1
1,41,0,119
1,41,89,61
1,41,0,59
1,41,85,1
1,41,0,119
1,41,91,61
1,41,0,59
1,47,91,1
1,47,0,119
1,47,76,61
1,47,0,59
1,52,93,1
1,52,0,119
1,52,87,61
1,52,0,59
1,45,84,1
1,45,0,119
1,45,91,61
1,45,0,59
1,45,95,1
1,45,0,119
1,45,78,61
1,45,0,59
1,48,77,1
1,48,0,119
1,48,86,61
1,48,0,59
1,48,102,1
1,48,0,119
1,48,75,61
1,48,0,59
1,41,79,1
1,41,0,119
1,41,85,61
1,41,0,59
1,41,96,1
1,41,0,119
1,41,79,61
1,41,0,59
1,47,94,1
1,47,0,119
1,47,85,61
1,47,0,59
1,52,99,1
1,52,0,119
1,52,78,61
1,52,0,59
1,45,87,1
1,45,0,119
1,45,87,61
1,45,0,59
1,40,85,1
1,40,0,119
1,40,84,61
1,40,0,59
1,43,90,1
1,43,0,119
1,43,94,61
1,43,0,59
1,48,102,1
1,48,0,119
1,48,80,61
1,48,0,59
1,41,91,1
1,41,0,119
1,41,87,61
1,41,0,59
1,41,103,1
1,41,0,119
1,41,84,61
1,41,0,59
1,46,87,1
1,46,0,119
1,46,89,61
1,46,0,59
1,53,88,1
1,53,0,119
1,53,76,61
1,53,0,59
1,47,88,1
1,47,0,119
1,47,89,61
1,47,0,59
1,47,88,1
1,47,0,119
1,47,81,61
1,47,0,59
1,52,78,1
1,52,0,119
1,52,93,61
1,52,0,59
1,52,93,1
1,52,0,119
1,52,82,61
1,52,0,59
1,45,88,1
1,45,0,119
1,45,86,61
1,45,0,59
1,52,95,1
1,52,0,119
1,52,88,61
1,52,0,59
1,47,86,1
1,47,0,119
1,47,76,61
1,47,0,59
1,52,87,1
1,52,0,119
1,44,104,1
1,44,0,119
1,45,82,1
1,45,0,119
1,45,75,61
1,45,0,59
1,45,93,1
1,45,0,119
1,45,92,61
1,45,0,59
1,48,80,1
1,48,0,119
1,48,82,61
1,48,0,59
1,48,99,1
1,48,0,119
1,48,92,61
1,48,0,59
1,41,77,1
1,41,0,119
1,41,86,61
1,41,0,59
1,41,99,1
1,41,0,119
1,41,83,61
1,41,0,59
1,47,84,1
1,47,0,119
1,47,93,61
1,47,0,59
1,52,85,1
1,52,0,119
1,52,92,61
1,52,0,59
1,45,79,1
1,45,0,119
1,45,87,61
1,45,0,59
1,45,102,1
1,45,0,119
1,45,90,61
1,45,0,59
1,48,94,1
1,48,0,119
1,48,82,61
1,48,0,59
1,48,101,1
1,48,0,119
1,48,88,61
1,48,0,59
1,41,76,1
1,41,0,119
1,41,93,61
1,41,0,59
1,41,86,1
1,41,0,119
1,41,85,61
1,41,0,59
1,47,84,1
1,47,0,119
1,47,86,61
1,47,0,59
1,52,92,1
1,52,0,119
1,52,78,61
1,52,0,59
1,45,86,1
1,45,0,119
1,45,82,61
1,45,0,59
1,40,100,1
1,40,0,119
1,40,84,61
1,40,0,59
1,43,85,1
1,43,0,119
1,43,80,61
1,43,0,59
1,48,104,1
1,48,0,119
1,48,81,61
1,48,0,59
1,41,93,1
1,41,0,119
1,41,91,61
1,41,0,59
1,48,91,1
1,48,0,119
1,48,81,61
1,48,0,59
1,46,90,1
1,46,0,119
1,46,79,61
1,46,0,59
1,46,100,1
1,46,0,119
1,46,87,61
1,46,0,59
1,47,93,1
1,47,0,119
1,47,76,61
1,47,0,59
1,47,98,1
1,47,0,119
1,47,81,61
1,47,0,59
1,52,81,1
1,52,0,119
1,52,94,61
1,52,0,59
1,47,103,1
1,47,0,119
1,47,89,61
1,47,0,59
1,45,81,1
1,45,0,119
1,45,92,61
1,45,0,59
1,52,92,1
1,52,0,119
1,52,76,61
1,52,0,59
1,47,75,1
1,47,0,119
1,47,86,61
1,47,0,59
1,52,95,1
1,52,0,119
1,48,88,1
1,48,0,119
1,45,83,1
1,45,0,119
1,45,86,61
1,45,0,59
1,45,96,1
1,45,0,119
1,45,85,61
1,45,0,59
1,48,78,1
1,48,0,119
1,48,91,61
1,48,0,59
1,48,91,1
1,48,0,119
1,48,79,61
1,48,0,59
1,41,75,1
1,41,0,119
1,41,91,61
1,41,0,59
1,41,100,1
1,41,0,119
1,41,78,61
1,41,0,59
1,47,81,1
1,47,0,119
1,47,80,61
1,47,0,59
1,52,100,1
1,52,0,119
1,52,91,61
1,52,0,59
1,45,90,1
1,45,0,119
1,45,86,61
1,45,0,59
1,45,94,1
1,45,0,119
1,45,91,61
1,45,0,59
1,48,91,1
1,48,0,119
1,48,82,61
1,48,0,59
1,48,100,1
1,48,0,119
1,48,78,61
1,48,0,59
1,41,84,1
1,41,0,119
1,41,92,61
1,41,0,59
1,41,90,1
1,41,0,119
1,41,87,61
1,41,0,59
1,47,91,1
1,47,0,119
1,47,84,61
1,47,0,59
1,52,91,1
1,52,0,119
1,52,80,61
1,52,0,59
1,45,87,1
1,45,0,119
1,45,80,61
1,45,0,59
1,40,94,1
1,40,0,119
1,40,91,61
1,40,0,59
1,43,88,1
1,43,0,119
1,43,82,61
1,43,0,59
1,48,93,1
1,48,0,119
1,48,87,61
1,48,0,59
1,41,94,1
1,41,0,119
1,41,82,61
1,41,0,59
1,41,95,1
1,41,0,119
1,41,93,61
1,41,0,59
1,46,89,1
1,46,0,119
1,46,81,61
1,46,0,59
1,46,104,1
1,46,0,119
1,46,87,61
1,46,0,59
1,47,93,1
1,47,0,119
1,47,86,61
1,47,0,59
1,42,101,1
1,42,0,119
1,42,83,61
1,42,0,59
1,52,77,1
1,52,0,119
1,52,89,61
1,52,0,59
1,47,92,1
1,47,0,119
1,47,93,61
1,47,0,59
1,45,93,1
1,45,0,119
1,45,78,61
1,45,0,59
1,52,96,1
1,52,0,119
1,52,78,61
1,52,0,59
1,47,92,1
1,47,0,119
1,47,91,61
1,47,0,59
1,52,96,1
1,52,0,119
1,44,93,1
1,44,0,119
2,57,37,120
2,56,15,30
2,56,0,29
2,57,0,90
2,57,24,31
2,57,0,59
2,57,26,1
2,57,0,149
2,57,15,31
2,57,0,59
2,60,27,1
2,60,0,149
2,60,26,31
2,60,0,59
2,60,36,1
2,60,0,149
2,60,16,31
2,60,0,59
2,53,21,1
2,53,0,149
2,53,29,31
2,53,0,59
2,53,32,1
2,53,0,149
2,53,33,31
2,53,0,59
2,59,23,1
2,59,0,149
2,59,26,31
2,59,0,59
2,64,44,1
2,64,0,149
2,64,23,31
2,64,0,59
2,57,21,1
2,57,0,149
2,57,26,31
2,57,0,59
2,57,33,1
2,57,0,149
2,57,32,31
2,57,0,59
2,60,15,1
2,60,0,149
2,60,31,31
2,60,0,59
2,60,40,1
2,60,0,149
2,60,33,31
2,60,0,59
2,53,23,1
2,53,0,149
2,53,34,31
2,53,0,59
2,53,41,1
2,53,0,149
2,53,32,31
2,53,0,59
2,59,16,1
2,59,0,149
2,59,29,31
2,59,0,59
2,64,36,1
2,64,0,149
2,64,28,31
2,64,0,59
2,57,17,1
2,57,0,149
2,57,25,61
2,57,0,29
2,57,34,1
2,57,0,149
2,64,32,31
2,64,0,29
2,52,29,1
2,52,0,29
2,55,30,1
2,55,0,149
2,55,34,61
2,55,0,29
2,60,34,1
2,60,0,149
2,55,18,31
2,55,0,29
2,52,17,1
2,52,0,29
2,53,28,1
2,53,0,149
2,53,25,61
2,53,0,29
2,53,28,1
2,53,0,149
2,60,25,31
2,60,0,29
2,59,27,1
2,59,0,29
2,58,21,1
2,58,0,149
2,58,17,61
2,58,0,29
2,58,43,1
2,58,0,149
2,61,26,31
2,61,0,29
2,58,25,1
2,58,0,29
2,59,33,1
2,59,0,149
2,54,20,61
2,54,0,29
2,59,40,1
2,59,0,149
2,62,25,31
2,62,0,29
2,63,18,1
2,63,0,29
2,64,24,1
2,64,0,149
2,59,30,61
2,59,0,29
2,64,26,1
2,64,0,149
2,64,28,31
2,64,0,29
2,56,20,1
2,56,0,29
2,57,34,1
2,57,0,149
2,57,32,61
2,57,0,29
2,57,32,1
2,57,0,149
2,57,19,31
2,57,0,29
2,58,30,1
2,58,0,29
2,59,27,1
2,59,0,149
2,59,25,61
2,59,0,29
2,64,43,1
2,64,0,149
2,64,24,31
2,64,0,29
2,56,33,1
2,56,0,29
2,57,20,1
2,57,0,149
2,57,22,31
2,57,0,59
2,57,37,1
2,57,0,149
2,57,26,31
2,57,0,59
2,60,27,1
2,60,0,149
2,60,28,31
2,60,0,59
2,60,44,1
2,60,0,149
2,60,27,31
2,60,0,59
2,53,17,1
2,53,0,149
2,53,16,31
2,53,0,59
2,53,42,1
2,53,0,149
2,53,29,31
2,53,0,59
2,59,24,1
2,59,0,149
2,59,21,31
2,59,0,59
2,64,33,1
2,64,0,149
2,64,28,31
2,64,0,59
2,57,30,1
2,57,0,149
2,57,27,31
2,57,0,59
2,57,27,1
2,57,0,149
2,57,24,31
2,57,0,59
2,60,25,1
2,60,0,149
2,60,24,31
2,60,0,59
2,60,33,1
2,60,0,149
2,60,29,31
2,60,0,59
2,53,18,1
2,53,0,149
2,53,29,31
2,53,0,59
2,53,25,1
2,53,0,149
2,53,33,31
2,53,0,59
2,59,34,1
2,59,0,149
2,59,24,31
2,59,0,59
2,64,36,1
2,64,0,149
2,64,30,31
2,64,0,59
2,57,23,1
2,57,0,149
2,52,32,61
2,52,0,29
2,57,30,1
2,57,0,149
2,57,29,31
2,57,0,29
2,52,17,1
2,52,0,29
2,55,25,1
2,55,0,149
2,61,15,61
2,61,0,29
2,60,41,1
2,60,0,149
2,55,19,31
2,55,0,29
2,52,32,1
2,52,0,29
2,53,24,1
2,53,0,149
