track,note,velocity,time
1,36,127,480
1,36,0,120
1,36,127,120
1,36,127,60
1,36,0,60
1,36,0,60
1,36,127,60
1,36,0,120
1,36,127,120
1,36,127,60
1,36,0,60
1,36,0,60
1,36,127,60
1,36,0,120
1,36,127,120
1,36,127,60
1,36,0,60
1,36,0,60
1,36,127,60
1,36,0,120
1,36,127,120
1,36,127,60
1,36,0,60
1,36,0,60
1,36,127,60
1,36,0,120
1,36,127,120
1,36,127,60
1,36,0,60
1,36,0,60
1,36,127,60
1,36,0,120
1,36,127,120
1,36,127,60
1,36,0,60
1,36,0,60
1,36,127,60
1,36,0,120
1,36,127,120
1,36,127,60
1,36,0,60
1,36,0,60
1,36,127,60
1,36,0,120
1,36,127,120
1,36,127,60
1,36,0,60
1,36,0,60
1,36,127,60
1,36,0,120
1,36,127,120
1,36,127,60
1,36,0,60
1,36,0,60
1,36,127,60
1,36,0,120
1,36,127,120
1,36,127,60
1,36,0,60
1,36,0,60
1,36,127,60
1,36,0,120
1,36,127,120
1,36,127,60
1,36,0,60
1,36,0,60
1,36,127,60
1,36,0,120
1,36,127,120
1,36,127,60
1,36,0,60
1,36,0,60
1,36,127,60
1,36,0,120
1,36,127,120
1,36,127,60
1,36,0,60
1,36,0,60
1,36,127,60
1,36,0,120
1,36,127,120
1,36,127,60
1,36,0,60
1,36,0,60
1,36,127,60
1,36,0,120
1,36,127,120
1,36,127,60
1,36,0,60
1,36,0,60
1,36,127,60
1,36,0,120
1,36,127,120
1,36,127,60
1,36,0,60
1,36,0,60
1,36,127,60
1,36,127,60
1,36,0,60
1,36,0,60
1,36,127,0
1,36,127,60
1,36,127,60
1,36,0,60
1,36,0,60
1,36,127,0
1,36,0,60
1,36,127,0
1,36,0,120
1,36,0,60
1,36,127,0
1,36,127,60
1,36,0,120
1,36,127,0
1,36,0,60
1,36,0,0
1,36,127,60
1,36,0,120
1,36,127,0
1,36,0,60
1,36,127,60
1,36,127,120
1,36,0,60
1,36,0,0
1,36,127,60
1,36,0,120
1,36,127,0
1,36,0,60
1,36,127,60
1,36,127,120
1,36,0,60
1,36,0,0
1,36,127,60
1,36,0,120
1,36,127,0
1,36,0,60
1,36,127,60
1,36,127,120
1,36,0,60
1,36,0,0
1,36,127,60
1,36,0,120
1,36,127,0
1,36,0,60
1,36,127,60
1,36,127,120
1,36,0,60
1,36,0,0
1,36,127,60
1,36,0,120
1,36,127,0
1,36,0,60
1,36,127,60
1,36,127,120
1,36,0,60
1,36,0,0
1,36,127,60
1,36,0,120
1,36,127,0
1,36,0,60
1,36,127,60
1,36,127,120
1,36,0,60
1,36,0,0
1,36,127,60
1,36,0,120
1,36,127,0
1,36,0,60
1,36,127,60
1,36,127,120
1,36,0,60
1,36,0,0
1,36,127,60
1,36,0,120
1,36,127,0
1,36,0,60
1,36,127,60
1,36,0,120
1,36,127,120
1,36,127,60
1,36,0,60
1,36,0,60
1,36,127,60
1,36,0,120
1,36,127,120
1,36,127,60
1,36,0,60
1,36,0,60
1,36,127,60
1,36,0,120
1,36,127,120
1,36,127,60
1,36,0,60
1,36,0,60
1,36,127,60
1,36,0,120
1,36,127,120
1,36,127,60
1,36,0,60
1,36,0,60
1,36,127,60
1,36,0,120
1,36,127,120
1,36,127,60
1,36,0,60
1,36,0,60
1,36,127,60
1,36,0,120
1,36,127,120
1,36,127,60
1,36,0,60
1,36,0,60
1,36,127,60
1,36,0,120
1,36,127,120
1,36,127,60
1,36,0,60
1,36,0,60
1,36,127,60
1,36,0,120
1,36,127,120
1,36,127,60
1,36,0,60
1,36,0,60
1,36,127,60
1,36,0,120
1,36,127,120
1,36,127,60
1,36,0,60
1,36,0,60
1,36,127,60
1,36,0,120
1,36,127,120
1,36,127,60
1,36,0,60
1,36,0,60
1,36,127,60
1,36,0,120
1,36,127,120
1,36,127,60
1,36,0,60
1,36,0,60
1,36,127,60
1,36,0,120
1,36,127,120
1,36,127,60
1,36,0,60
1,36,0,60
1,36,127,60
1,36,127,60
1,36,0,60
1,36,0,60
1,36,127,0
1,36,127,60
1,36,127,60
1,36,0,60
1,36,0,60
1,36,127,0
1,36,0,60
1,36,127,0
1,36,0,120
1,36,0,60
1,36,127,0
1,36,127,60
1,36,0,120
1,36,127,0
1,36,0,60
1,36,0,0
1,36,127,60
1,36,0,120
1,36,127,0
1,36,0,60
1,36,127,60
1,36,127,120
1,36,0,60
1,36,0,0
1,36,127,60
1,36,0,120
1,36,127,0
1,36,0,60
1,36,127,60
1,36,127,120
1,36,0,60
1,36,0,0
1,36,127,60
1,36,0,120
1,36,127,0
1,36,0,60
1,36,127,60
1,36,127,120
1,36,0,60
1,36,0,0
1,36,127,60
1,36,0,120
1,36,127,0
1,36,0,60
1,36,127,60
1,36,127,120
1,36,0,60
1,36,0,0
1,36,127,60
1,36,0,120
1,36,127,0
1,36,0,60
1,36,127,60
1,36,127,120
1,36,0,60
1,36,0,0
1,36,127,60
1,36,0,120
1,36,127,0
1,36,0,60
1,36,127,60
1,36,127,120
1,36,0,60
1,36,0,0
1,36,127,60
1,36,0,120
1,36,127,0
1,36,0,60
1,36,127,60
1,36,127,120
1,36,0,60
1,36,0,0
1,36,127,60
1,36,0,120
1,36,127,0
1,36,0,60
1,36,127,60
1,36,0,120
1,36,127,120
1,36,127,60
1,36,0,60
1,36,0,60
1,36,127,60
1,36,0,120
1,36,127,120
1,36,127,60
1,36,0,60
1,36,0,60
1,36,127,60
1,36,0,120
1,36,127,120
1,36,127,60
1,36,0,60
1,36,0,60
1,36,127,60
1,36,0,120
1,36,127,120
1,36,127,60
1,36,0,60
1,36,0,60
1,36,127,60
1,36,0,120
1,36,127,120
1,36,127,60
1,36,0,60
1,36,0,60
1,36,127,60
1,36,0,120
1,36,127,120
1,36,127,60
1,36,0,60
1,36,0,60
1,36,127,60
1,36,0,120
1,36,127,120
1,36,127,60
1,36,0,60
1,36,0,60
1,36,127,60
1,36,0,120
1,36,127,120
1,36,127,60
1,36,0,60
1,36,0,60
1,36,127,60
1,36,0,120
1,36,127,120
1,36,127,60
1,36,0,60
1,36,0,60
1,36,127,60
1,36,0,120
1,36,127,120
1,36,127,60
1,36,0,60
1,36,0,60
1,36,127,60
1,36,0,120
1,36,127,120
1,36,127,60
1,36,0,60
1,36,0,60
1,36,127,60
1,36,0,120
1,36,127,120
1,36,127,60
1,36,0,60
1,36,0,60
1,36,127,60
1,36,127,60
1,36,0,60
1,36,0,60
1,36,127,0
1,36,127,60
1,36,127,60
1,36,0,60
1,36,0,60
1,36,127,0
1,36,0,60
1,36,127,0
1,36,0,120
1,36,0,60
1,36,127,0
1,36,127,60
1,36,0,120
1,36,127,0
1,36,0,60
1,36,0,0
1,36,127,60
1,36,0,120
1,36,127,0
1,36,0,60
1,36,127,60
1,36,127,120
1,36,0,60
1,36,0,0
1,36,127,60
1,36,0,120
1,36,127,0
1,36,0,60
1,36,127,60
1,36,127,120
1,36,0,60
1,36,0,0
1,36,127,60
1,36,0,120
1,36,127,0
1,36,0,60
1,36,127,60
1,36,127,120
1,36,0,60
1,36,0,0
1,36,127,60
1,36,0,120
1,36,127,0
1,36,0,60
1,36,127,60
1,36,127,120
1,36,0,60
1,36,0,0
1,36,127,60
1,36,0,120
1,36,127,0
1,36,0,60
1,36,127,60
1,36,127,120
1,36,0,60
1,36,0,0
1,36,127,60
1,36,0,120
1,36,127,0
1,36,0,60
1,36,127,60
1,36,127,120
1,36,0,60
1,36,0,0
1,36,127,60
1,36,0,120
1,36,127,0
1,36,0,60
1,36,127,60
1,36,127,120
1,36,0,60
1,36,0,0
1,36,127,60
1,36,0,120
1,36,127,0
1,36,0,60
1,36,127,60
1,36,0,120
1,36,127,0
1,36,0,60
1,36,127,60
1,36,0,120
1,36,127,0
1,36,0,60
1,36,127,60
1,36,127,120
1,36,0,60
1,36,0,0
1,36,127,60
1,36,0,120
1,36,127,0
1,36,0,60
1,36,127,60
1,36,127,120
1,36,0,60
1,36,0,0
1,36,127,60
1,36,0,120
1,36,127,0
1,36,0,60
1,36,127,60
1,36,127,120
1,36,0,60
1,36,0,0
1,36,127,60
1,36,0,120
1,36,127,0
1,36,0,60
1,38,100,60
1,36,100,0
1,36,0,120
1,38,0,0
1,38,100,230
1,38,100,10
1,38,0,110
1,38,0,10
1,38,100,0
1,36,100,0
1,36,0,120
1,38,0,0
1,38,100,360
1,36,100,0
1,38,100,0
1,38,0,120
1,36,0,0
1,38,0,0
1,38,100,230
1,38,100,10
1,38,0,110
1,38,0,10
1,38,100,360
1,38,100,11
1,38,0,109
1,36,100,0
1,38,0,11
1,36,0,109
1,38,100,830
1,36,100,10
1,38,0,110
1,36,0,10
2,42,127,480
2,42,127,60
2,42,0,60
2,42,127,0
2,42,0,60
2,42,127,0
2,42,0,60
2,42,127,0
2,42,0,60
2,42,127,0
2,42,0,60
2,42,127,0
2,42,0,60
2,42,127,0
2,42,0,60
2,42,127,0
2,42,0,60
2,42,127,0
2,42,0,60
2,42,127,0
2,42,0,60
2,42,127,0
2,42,0,60
2,42,127,0
2,42,0,60
2,42,127,0
2,42,0,60
2,42,127,0
2,42,0,60
2,42,127,0
2,42,0,60
2,42,127,0
2,42,0,60
2,42,127,0
2,42,0,60
2,42,127,0
2,42,0,60
2,42,127,0
2,42,0,60
2,42,127,0
2,42,0,60
2,42,127,0
2,42,0,60
2,42,127,0
2,42,0,60
2,42,127,0
2,42,0,60
2,42,127,0
2,42,0,60
2,42,127,0
2,42,0,60
2,42,127,0
2,42,0,60
2,42,127,0
2,42,0,60
2,42,127,0
2,42,0,60
2,42,127,0
2,42,0,60
2,42,127,0
2,42,0,60
2,42,127,0
2,42,0,60
2,42,127,0
2,42,0,60
2,42,127,0
2,42,0,60
2,42,127,0
2,42,0,60
2,42,127,0
2,42,0,60
2,42,127,0
2,42,0,60
2,42,127,0
2,42,0,60
2,42,127,0
2,42,0,60
2,42,127,0
2,42,0,60
2,42,127,0
2,42,0,60
2,42,127,0
2,42,0,60
2,42,127,0
2,42,0,60
2,42,127,0
2,42,0,60
2,42,127,0
2,42,0,60
2,42,127,0
2,42,0,60
2,42,127,0
2,42,0,60
2,42,127,0
2,42,0,60
2,42,127,0
2,42,0,60
2,42,127,0
2,42,0,60
2,42,127,0
2,42,0,60
2,42,127,0
2,42,0,60
2,42,127,0
2,42,0,60
2,42,127,0
2,42,0,60
2,42,127,0
2,42,0,60
2,42,127,0
2,42,0,60
2,42,127,0
2,42,0,60
2,42,127,0
2,42,0,60
2,42,127,0
2,42,0,60
2,42,127,0
2,42,0,60
2,42,127,0
2,42,0,60
2,42,127,0
2,42,0,60
2,42,127,0
2,42,0,60
2,42,127,0
2,42,0,60
2,42,127,0
2,42,0,60
2,42,127,0
2,42,0,60
2,42,127,0
2,42,0,60
2,42,127,0
2,42,0,60
2,42,127,0
2,42,0,60
2,42,127,0
2,42,0,60
2,42,127,0
2,42,0,60
2,42,127,0
2,42,0,60
2,42,127,0
2,42,0,60
2,42,127,0
2,42,0,60
2,42,127,0
2,42,0,60
2,42,127,0
2,42,0,60
2,42,127,0
2,42,0,60
2,42,127,0
2,42,0,60
2,42,127,0
2,42,0,60
2,42,127,0
2,42,0,60
2,42,127,0
2,42,0,60
2,42,127,0
2,42,0,60
2,42,127,0
2,42,0,60
2,42,127,0
2,42,0,60
2,42,127,0
2,42,0,60
2,42,127,0
2,42,0,60
2,42,127,0
2,42,0,60
2,42,127,0
2,42,0,60
2,42,127,0
2,42,0,60
2,42,127,0
2,42,0,60
2,42,127,0
2,42,0,60
2,42,127,0
2,42,0,60
2,42,127,0
2,42,0,60
2,42,127,0
2,42,0,60
2,42,127,0
2,42,0,60
2,42,127,0
2,42,0,60
2,42,127,0
2,42,0,60
2,42,127,0
2,42,0,60
2,42,127,0
2,42,0,60
2,42,127,0
2,42,0,60
2,42,127,0
2,42,0,60
2,42,127,0
2,42,0,60
2,42,127,0
2,42,0,60
2,42,127,0
2,42,0,60
2,42,127,0
2,42,0,60
2,42,127,0
2,42,0,60
2,42,127,0
2,42,0,60
2,42,127,0
2,42,0,60
2,42,127,0
2,42,0,60
2,42,127,0
2,42,0,60
2,42,127,0
2,42,0,60
2,42,127,0
2,42,0,60
2,42,127,0
2,42,0,60
2,42,127,0
2,42,0,60
2,42,127,0
2,42,0,60
2,42,127,0
2,42,0,60
2,42,127,0
2,42,0,60
2,42,127,0
2,42,0,60
2,42,127,0
2,42,0,60
2,42,127,0
2,42,0,60
2,42,127,0
2,42,0,60
2,42,127,0
2,42,0,60
2,42,127,0
2,42,0,60
2,42,127,0
2,42,0,60
2,42,127,0
2,42,0,60
2,42,127,0
2,42,0,60
2,42,127,0
2,42,0,60
2,42,127,0
2,42,0,60
2,42,127,0
2,42,0,60
2,42,127,0
2,42,0,60
2,42,127,0
2,42,0,60
2,42,127,0
2,42,0,60
2,42,127,0
2,42,0,60
2,42,127,0
2,42,0,60
2,42,127,0
2,42,0,60
2,42,127,0
2,42,0,60
2,42,0,60
2,42,127,180
2,42,0,120
2,42,127,0
2,42,0,120
2,42,127,0
2,42,0,120
2,42,127,0
2,42,0,120
2,42,127,0
2,42,0,120
2,42,127,0
2,42,0,120
2,42,127,0
2,42,0,120
2,42,127,0
2,42,0,120
2,42,127,0
2,42,0,120
2,42,127,0
2,42,0,120
2,42,127,0
2,42,0,120
2,42,127,0
2,42,0,120
2,42,127,0
2,42,0,120
2,42,127,0
2,42,0,120
2,42,127,0
2,42,0,120
2,42,127,0
2,42,0,120
2,42,127,0
2,42,0,120
2,42,127,0
2,42,0,120
2,42,127,0
2,42,0,120
2,42,127,0
2,42,0,120
2,42,127,0
2,42,0,120
2,42,127,0
2,42,0,120
2,42,127,0
2,42,0,120
2,42,127,0
2,42,0,120
2,42,127,0
2,42,0,120
2,42,127,0
2,42,0,120
2,42,127,0
2,42,0,120
2,42,127,0
2,42,0,120
2,42,127,0
2,42,0,120
2,42,127,0
2,42,0,120
2,42,127,0
2,42,0,120
2,42,127,0
2,42,0,120
2,42,127,0
2,42,0,60
2,42,127,0
2,42,0,60
2,42,127,0
2,42,0,60
2,42,127,0
2,42,0,60
2,42,127,0
2,42,0,60
2,42,127,0
2,42,0,60
2,42,127,0
2,42,0,60
2,42,127,0
2,42,0,60
2,42,127,0
2,42,0,60
2,42,127,0
2,42,0,60
2,42,127,0
2,42,0,60
2,42,127,0
2,42,0,60
2,42,127,0
2,42,0,60
2,42,127,0
2,42,0,60
2,42,127,0
2,42,0,60
2,42,127,0
2,42,0,60
2,42,127,0
2,42,0,60
2,42,127,0
2,42,0,60
2,42,127,0
2,42,0,60
2,42,127,0
2,42,0,60
2,42,127,0
2,42,0,60
2,42,127,0
2,42,0,60
2,42,127,0
2,42,0,60
2,42,127,0
2,42,0,60
2,42,127,0
2,42,0,60
2,42,127,0
2,42,0,60
2,42,127,0
2,42,0,60
2,42,127,0
2,42,0,60
2,42,127,0
2,42,0,60
2,42,127,0
2,42,0,60
2,42,127,0
2,42,0,60
2,42,127,0
2,42,0,60
2,42,127,0
2,42,0,60
2,42,127,0
2,42,0,60
2,42,127,0
2,42,0,60
2,42,127,0
2,42,0,60
2,42,127,0
2,42,0,60
2,42,127,0
2,42,0,60
2,42,127,0
2,42,0,60
2,42,127,0
2,42,0,60
2,42,127,0
2,42,0,60
2,42,127,0
2,42,0,60
2,42,127,0
2,42,0,60
2,42,127,0
2,42,0,60
2,42,127,0
2,42,0,60
2,42,127,0
2,42,0,60
2,42,127,0
2,42,0,60
2,42,127,0
2,42,0,60
2,42,127,0
2,42,0,60
2,42,127,0
2,42,0,60
2,42,127,0
2,42,0,60
2,42,127,0
2,42,0,60
2,42,127,0
2,42,0,60
2,42,127,0
2,42,0,60
2,42,127,0
2,42,0,60
2,42,127,0
2,42,0,60
2,42,127,0
2,42,0,60
2,42,127,0
2,42,0,60
2,42,127,0
2,42,0,60
2,42,127,0
2,42,0,60
