track,note,velocity,time
2,64,92,1920
2,64,0,70
2,64,90,35
2,72,112,121
2,72,0,78
2,64,0,19
2,72,106,15
2,72,0,86
2,71,114,39
2,71,0,79
2,71,98,44
2,71,0,84
2,69,98,36
2,69,0,80
2,69,92,34
2,69,0,95
2,64,102,36
2,64,0,89
2,64,98,30
2,72,121,135
2,64,0,2
2,72,0,76
2,72,96,39
2,72,0,98
2,71,108,30
2,71,0,77
2,71,104,33
2,71,0,86
2,69,110,32
2,69,0,85
2,69,111,27
2,69,0,115
2,66,111,13
2,66,0,69
2,66,104,42
2,72,117,123
2,66,0,30
2,72,0,66
2,72,104,22
2,72,0,88
2,71,64,2
2,71,0,8
2,71,106,21
2,71,0,85
2,71,94,30
2,71,0,93
2,69,121,43
2,69,0,85
2,69,108,31
2,69,0,94
2,66,112,11
2,66,0,94
2,66,86,35
2,72,125,117
2,66,0,13
2,72,0,73
2,72,120,32
2,72,0,79
2,71,110,36
2,71,0,77
2,71,96,30
2,71,0,89
2,69,119,44
2,69,0,77
2,69,115,33
2,69,0,100
2,65,111,17
2,59,48,0
2,59,0,23
2,65,0,80
2,65,96,30
2,72,121,124
2,72,0,81
2,65,0,22
2,72,122,11
2,72,0,87
2,71,125,33
2,71,0,84
2,71,102,28
2,71,0,96
2,69,114,29
2,69,0,82
2,69,125,43
2,69,0,92
2,67,119,38
2,67,0,80
2,67,78,24
2,72,125,126
2,72,0,86
2,67,0,8
2,72,122,25
2,72,0,83
2,71,122,41
2,71,0,87
2,71,120,36
2,71,0,92
2,69,125,41
2,69,0,19
2,69,125,97
2,69,0,59
2,64,114,65
2,70,32,11
2,70,0,1
2,64,0,69
2,64,100,36
2,64,0,96
2,71,123,28
2,71,0,8
2,72,90,5
2,71,74,0
2,71,0,1
2,72,0,75
2,72,98,31
2,72,0,78
2,71,125,42
2,71,0,80
2,69,123,140
2,64,52,20
2,69,0,63
2,69,104,28
2,64,0,83
2,69,0,16
2,64,112,50
2,64,0,86
2,64,94,34
2,64,0,90
2,72,125,28
2,64,74,12
2,72,0,70
2,72,102,30
2,64,0,79
2,72,0,14
2,71,126,34
2,64,82,1
2,71,0,62
2,71,116,36
2,64,0,87
2,71,0,13
2,69,125,34
2,64,90,2
2,69,0,78
2,69,125,34
2,64,0,91
2,69,0,20
2,64,92,17
2,64,0,79
2,64,90,36
2,72,112,123
2,72,0,78
2,64,0,15
2,72,106,17
2,72,0,83
2,71,114,43
2,71,0,80
2,71,98,42
2,71,0,83
2,69,98,36
2,69,0,83
2,69,92,30
2,69,0,97
2,64,102,36
2,64,0,87
2,64,98,29
2,72,121,135
2,64,0,14
2,72,0,64
2,72,96,41
2,72,0,97
2,71,108,24
2,71,0,85
2,71,104,30
2,71,0,90
2,69,110,30
2,69,0,85
2,69,111,26
2,69,0,115
2,66,111,15
2,66,0,73
2,66,104,35
2,72,117,128
2,66,0,29
2,72,0,65
2,72,104,20
2,72,0,83
2,71,64,1
2,71,0,17
2,71,106,19
2,71,0,84
2,71,94,30
2,71,0,95
2,69,121,41
2,69,0,86
2,69,108,32
2,69,0,92
2,66,112,15
2,66,0,91
2,66,86,34
2,72,125,116
2,66,0,8
2,72,0,76
2,72,120,35
2,72,0,79
2,71,110,36
2,71,0,72
2,71,96,34
2,71,0,87
2,69,119,47
2,69,0,80
2,69,115,30
2,69,0,100
2,65,111,20
2,59,48,0
2,59,0,24
2,65,0,74
2,65,96,32
2,72,121,125
2,72,0,79
2,65,0,21
2,72,122,14
2,72,0,87
2,71,125,36
2,71,0,79
2,71,102,29
2,71,0,95
2,69,114,33
2,69,0,82
2,69,125,39
2,69,0,93
2,67,119,38
2,67,0,81
2,67,78,33
2,72,125,112
2,72,0,90
2,67,0,0
2,72,122,31
2,72,0,86
2,71,122,39
2,71,0,89
2,71,120,34
2,71,0,94
2,69,125,37
2,69,0,19
2,69,125,99
2,69,0,57
2,64,114,69
2,70,32,2
2,70,0,1
2,64,0,73
2,64,100,34
2,64,0,102
2,71,123,31
2,71,0,10
2,72,90,7
2,71,74,0
2,71,0,1
2,72,0,66
2,72,98,30
2,72,0,84
2,71,125,43
2,71,0,74
2,69,123,141
2,64,52,21
2,69,0,67
2,69,104,28
2,64,0,79
2,69,0,16
2,64,112,41
2,64,0,95
2,64,94,20
2,64,0,104
2,72,125,25
2,64,74,15
2,72,0,66
2,72,102,34
2,64,0,80
2,72,0,14
2,71,126,33
2,64,82,0
2,71,0,63
2,71,116,33
2,64,0,91
2,71,0,7
2,69,125,39
2,64,90,3
2,69,0,73
2,69,125,34
2,64,0,99
2,69,0,18
2,64,92,23
2,64,0,69
2,64,90,37
2,72,112,124
2,72,0,78
2,64,0,17
2,72,106,12
2,72,0,88
2,71,114,40
2,71,0,76
2,71,98,45
2,71,0,86
2,69,98,38
2,69,0,77
2,69,92,29
2,69,0,98
2,64,102,41
2,64,0,85
2,64,98,25
2,72,121,138
2,64,0,1
2,72,0,77
2,72,96,46
2,72,0,97
2,71,108,22
2,71,0,82
2,71,104,32
2,71,0,87
2,69,110,32
2,69,0,82
2,69,111,29
2,69,0,115
2,66,111,15
2,66,0,70
2,66,104,39
2,72,117,131
2,66,0,29
2,72,0,65
2,72,104,20
2,72,0,84
2,71,64,0
2,71,0,17
2,71,106,15
2,71,0,79
2,71,94,36
2,71,0,94
2,69,121,41
2,69,0,87
2,69,108,30
2,69,0,96
2,66,112,17
2,66,0,88
2,66,86,32
2,72,125,119
2,66,0,9
2,72,0,74
2,72,120,35
2,72,0,75
2,71,110,37
2,71,0,78
2,71,96,26
2,71,0,95
2,69,119,42
2,69,0,79
2,69,115,31
2,69,0,101
2,65,111,19
2,59,48,1
2,59,0,22
2,65,0,74
2,65,96,28
2,72,121,130
2,72,0,77
2,65,0,24
2,72,122,12
2,72,0,86
2,71,125,39
2,71,0,79
2,71,102,28
2,71,0,94
2,69,114,34
2,69,0,84
2,69,125,34
2,69,0,93
2,67,119,41
2,67,0,86
2,67,78,28
2,72,125,116
2,72,0,90
2,67,0,1
2,72,122,28
2,72,0,86
2,71,122,34
2,71,0,90
2,71,120,37
2,71,0,94
2,69,125,40
2,69,0,11
2,69,125,104
2,69,0,60
2,64,114,61
2,70,32,14
2,70,0,1
2,64,0,65
2,64,100,34
2,64,0,97
2,71,123,35
2,71,0,12
2,72,90,4
2,71,74,2
2,71,0,1
2,72,0,67
2,72,98,29
2,72,0,80
2,71,125,46
2,71,0,76
2,69,123,141
2,64,52,19
2,69,0,69
2,69,104,28
2,64,0,79
2,69,0,14
2,64,112,42
2,64,0,92
2,64,94,34
2,64,0,93
2,72,125,30
2,64,74,0
2,72,0,78
2,72,102,29
2,64,0,81
2,72,0,14
2,71,126,38
2,64,82,0
2,71,0,58
2,71,116,35
2,64,0,91
2,71,0,10
2,69,125,37
2,64,90,1
2,69,0,78
2,69,125,30
2,64,0,100
2,69,0,13
2,60,125,20
2,65,117,2
2,65,0,78
2,60,0,12
2,77,126,132
2,72,126,0
2,77,0,279
2,72,0,19
2,65,106,65
2,69,125,0
2,65,0,118
2,69,0,4
2,67,74,108
2,71,125,0
2,71,0,316
2,67,0,14
2,72,125,50
2,67,64,0
2,67,0,90
2,72,0,11
2,72,104,19
2,72,0,3
2,72,125,95
2,67,84,7
2,67,0,85
2,72,0,13
2,71,116,33
2,67,70,14
2,71,0,207
2,67,0,58
2,60,113,65
2,65,86,0
2,60,0,135
2,65,0,2
2,77,113,96
2,72,98,0
2,77,0,313
2,72,0,19
2,69,120,41
2,65,72,2
2,65,0,102
2,64,48,0
2,69,0,3
2,68,76,3
2,68,0,14
2,64,0,0
2,67,72,100
2,71,123,0
2,67,0,292
2,71,0,13
2,72,126,45
2,66,76,1
2,67,64,22
2,66,0,1
2,67,0,76
2,72,0,42
2,91,70,46
2,91,0,1
2,67,86,46
2,72,118,1
2,72,0,90
2,67,0,3
2,71,114,51
2,67,56,0
2,71,0,177
2,67,0,42
2,71,106,7
2,67,56,1
2,71,0,54
2,67,0,45
2,65,82,46
2,60,94,2
2,51,60,0
2,51,0,35
2,54,40,4
2,54,0,34
2,60,0,27
2,65,0,0
2,72,115,126
2,77,116,0
2,77,0,278
2,72,0,16
2,69,125,63
2,64,78,3
2,64,0,12
2,65,72,0
2,69,0,108
2,65,0,10
2,67,78,95
2,71,121,0
2,71,0,317
2,67,0,23
2,72,126,26
2,67,68,21
2,72,0,96
2,67,0,24
2,72,125,85
2,67,78,13
2,72,0,80
2,67,0,14
2,71,113,30
2,67,70,0
2,67,0,175
2,71,0,9
2,71,117,34
2,67,64,1
2,71,0,64
2,67,0,37
2,65,78,60
2,60,117,5
2,65,0,78
2,60,0,5
2,77,123,124
2,72,116,0
2,76,48,643
2,77,0,1
2,76,0,3
2,72,0,10
2,73,52,28
2,73,0,24
2,79,117,35
2,74,92,0
2,74,0,971
2,79,0,0
2,64,114,1
2,64,0,68
2,56,52,16
2,64,92,10
2,64,0,123
2,72,121,21
2,72,0,87
2,72,94,23
2,72,0,80
2,56,0,7
2,71,125,44
2,71,0,86
2,71,115,30
2,71,0,94
2,69,125,33
2,69,0,83
2,69,114,30
2,69,0,107
2,64,115,19
2,64,0,78
2,64,96,39
2,64,0,104
2,72,122,11
2,72,0,91
2,72,125,28
2,72,0,79
2,71,125,45
2,71,0,99
2,71,121,23
2,71,0,100
2,69,125,5
2,69,0,99
2,69,123,38
2,69,0,93
2,65,113,19
2,65,0,83
2,65,90,30
2,65,0,110
2,72,125,23
2,72,0,91
2,72,123,24
2,72,0,82
2,71,122,34
2,71,0,88
2,71,125,27
2,71,0,92
2,69,125,42
2,69,0,72
2,69,124,33
2,69,0,97
2,65,119,25
2,65,0,79
2,65,110,44
2,65,0,101
2,72,125,17
2,72,0,95
2,72,124,22
2,72,0,91
2,71,114,26
2,71,0,95
2,71,119,24
2,71,0,95
2,69,125,26
2,69,0,93
2,69,125,21
2,69,0,107
2,64,110,13
2,64,0,95
2,64,90,36
2,64,0,127
2,72,106,16
2,72,0,67
2,72,125,27
2,72,0,96
2,71,125,30
2,71,0,92
2,71,108,16
2,71,0,82
2,69,70,9
2,69,0,2
2,69,125,31
2,69,0,94
2,69,104,23
2,69,0,113
2,64,98,1
2,68,60,0
2,69,48,32
2,68,0,1
2,69,0,6
2,64,0,52
2,64,94,36
2,64,0,106
2,72,125,24
2,72,0,91
2,72,125,22
2,72,0,88
2,71,125,39
2,71,0,84
2,71,118,26
2,71,0,99
2,69,125,16
2,69,0,95
2,69,125,41
2,69,0,109
2,65,116,11
2,65,0,81
2,65,111,38
2,65,0,90
2,72,125,21
2,72,0,87
2,72,125,30
2,72,0,91
2,71,125,31
2,71,0,83
2,71,123,27
2,71,0,98
2,69,125,40
2,69,0,86
2,69,125,38
2,69,0,115
2,65,112,23
2,65,0,80
2,69,125,18
2,72,116,122
2,72,0,91
2,69,0,30
2,72,125,9
2,69,119,0
2,69,0,100
2,72,0,0
2,70,104,0
2,73,86,0
2,70,0,9
2,66,111,8
2,73,0,2
2,66,0,21
2,67,96,0
2,71,125,85
2,74,121,125
2,74,0,118
2,71,0,2
2,74,125,2
2,71,125,23
2,74,0,74
2,67,0,31
2,71,0,4
2,64,114,0
2,64,0,68
2,56,52,14
2,64,92,10
2,64,0,123
2,72,121,23
2,72,0,86
2,72,94,22
2,72,0,80
2,56,0,5
2,71,125,45
2,71,0,87
2,71,115,33
2,71,0,94
2,69,125,27
2,69,0,89
2,69,114,28
2,69,0,104
2,64,115,27
2,64,0,75
2,64,96,32
2,64,0,112
2,72,122,6
2,72,0,96
2,72,125,17
2,72,0,84
2,71,125,49
2,71,0,100
2,71,121,21
2,71,0,99
2,69,125,17
2,69,0,93
2,69,123,40
2,69,0,90
2,65,113,26
2,65,0,73
2,65,90,35
2,65,0,105
2,72,125,21
2,72,0,93
2,72,123,25
2,72,0,82
2,71,122,31
2,71,0,88
2,71,125,26
2,71,0,97
2,69,125,38
2,69,0,79
2,69,124,28
2,69,0,99
2,65,119,24
2,65,0,80
2,65,110,38
2,65,0,106
2,72,125,23
2,72,0,90
2,72,124,25
2,72,0,90
2,71,114,27
2,71,0,88
2,71,119,28
2,71,0,93
2,69,125,25
2,69,0,91
2,69,125,24
2,69,0,103
2,64,110,20
2,64,0,95
2,64,90,33
2,64,0,123
2,72,106,18
2,72,0,73
2,72,125,27
2,72,0,95
2,71,125,27
2,71,0,93
2,71,108,17
2,71,0,78
2,69,70,13
2,69,0,5
2,69,125,29
2,69,0,91
2,69,104,22
2,69,0,114
2,68,60,1
2,64,98,0
2,68,0,35
2,69,48,0
2,69,0,6
2,64,0,49
2,64,94,37
2,64,0,101
2,72,125,37
2,72,0,88
2,72,125,19
2,72,0,91
2,71,125,32
2,71,0,90
2,71,118,20
2,71,0,100
2,69,125,23
2,69,0,92
2,69,125,40
2,69,0,107
2,65,116,11
2,65,0,80
2,65,111,43
2,65,0,85
2,72,125,31
2,72,0,87
2,72,125,26
2,72,0,88
2,71,125,26
2,71,0,85
2,71,123,27
2,71,0,102
2,69,125,36
2,69,0,87
2,69,125,42
2,69,0,111
2,65,112,22
2,65,0,82
2,69,125,18
2,72,116,114
2,72,0,93
2,69,0,34
2,72,125,1
2,69,119,0
2,69,0,107
2,70,104,0
2,73,86,2
2,72,0,1
2,70,0,7
2,73,0,10
2,66,111,0
2,66,0,20
2,67,96,0
2,71,125,85
2,74,121,135
2,74,0,110
2,71,0,1
2,74,125,2
2,74,0,98
2,67,0,29
2,64,92,3
2,64,0,87
2,64,90,34
2,72,112,120
2,72,0,79
2,64,0,17
2,72,106,16
2,72,0,87
2,71,114,42
2,71,0,77
2,71,98,45
2,71,0,83
2,69,98,35
2,69,0,78
2,69,92,33
2,69,0,95
2,64,102,44
2,64,0,82
2,64,98,31
2,72,121,133
2,64,0,7
2,72,0,72
2,72,96,44
2,72,0,101
2,71,108,22
2,71,0,81
2,71,104,29
2,71,0,92
2,69,110,27
2,69,0,85
2,69,111,29
2,69,0,112
2,66,111,13
2,66,0,75
2,66,104,38
2,72,117,124
2,66,0,33
2,72,0,66
2,72,104,14
2,72,0,91
2,71,64,0
2,71,0,16
2,71,106,16
2,71,0,83
2,71,94,32
2,71,0,94
2,69,121,36
2,69,0,91
2,69,108,30
2,69,0,91
2,66,112,18
2,66,0,89
2,66,86,25
2,72,125,127
2,66,0,10
2,72,0,74
2,72,120,35
2,72,0,76
2,71,110,33
2,71,0,80
2,71,96,33
2,71,0,89
2,69,119,43
2,69,0,78
2,69,115,32
2,69,0,103
2,59,48,19
2,65,111,0
2,59,0,21
2,65,0,76
2,65,96,33
2,72,121,124
2,72,0,78
2,65,0,25
2,72,122,12
2,72,0,81
2,71,125,41
2,71,0,80
2,71,102,27
2,71,0,95
2,69,114,27
2,69,0,91
2,69,125,36
2,69,0,90
2,67,119,41
2,67,0,86
2,67,78,27
2,72,125,118
2,72,0,90
2,67,0,2
2,72,122,28
2,72,0,84
2,71,122,38
2,71,0,87
2,71,120,38
2,71,0,91
2,69,125,36
2,69,0,23
2,69,125,98
2,69,0,60
2,64,114,64
2,70,32,13
2,70,0,1
2,64,0,62
2,64,100,40
2,64,0,97
2,71,123,29
2,71,0,13
2,72,90,8
2,71,74,0
2,71,0,1
2,72,0,67
2,72,98,21
2,72,0,91
2,71,125,40
2,71,0,78
2,69,123,139
2,64,52,19
2,69,0,65
2,69,104,32
2,64,0,78
2,69,0,19
2,64,112,50
2,64,0,85
2,64,94,32
2,64,0,93
2,72,125,22
2,64,74,18
2,72,0,65
2,72,102,33
2,64,0,76
2,72,0,17
2,71,126,37
2,64,82,2
2,71,0,56
2,71,116,39
2,64,0,89
2,71,0,7
2,69,125,33
2,64,90,0
2,69,0,79
2,69,125,33
2,64,0,103
2,69,0,12
2,64,92,14
2,64,0,80
2,64,90,36
2,72,112,125
2,72,0,76
2,64,0,19
2,72,106,16
2,72,0,86
2,71,114,36
2,71,0,85
