track,note,velocity,time
1,67,90,420
1,79,97,0
1,79,0,115
1,64,81,3
1,67,0,1
1,76,84,1
1,64,0,53
1,76,0,6
1,62,81,1
1,74,83,2
1,74,0,57
1,62,0,0
1,79,85,0
1,67,86,3
1,79,0,116
1,64,80,0
1,76,76,3
1,67,0,2
1,64,0,52
1,76,0,2
1,62,77,2
1,74,77,0
1,62,0,57
1,74,0,1
1,67,94,2
1,79,94,3
1,79,0,57
1,67,0,0
1,64,78,3
1,76,77,0
1,64,0,56
1,62,82,1
1,76,0,3
1,74,82,0
1,62,0,55
1,67,83,2
1,79,84,1
1,74,0,2
1,71,82,0
1,67,0,176
1,71,0,1
1,79,0,0
1,67,83,33
1,69,82,28
1,67,0,3
1,69,0,23
1,70,83,2
1,70,0,28
1,71,93,5
1,69,79,59
1,71,0,1
1,69,0,60
1,67,83,1
1,67,0,55
1,71,80,4
1,71,0,117
1,69,84,0
1,69,0,58
1,67,82,3
1,67,0,118
1,66,97,1
1,72,93,3
1,74,93,1
1,72,0,114
1,74,0,1
1,66,0,1
1,75,77,0
1,72,76,0
1,66,84,2
1,75,0,114
1,66,0,3
1,72,0,1
1,76,86,1
1,72,85,2
1,72,0,115
1,76,0,2
1,72,78,3
1,78,83,0
1,78,0,116
1,72,0,2
1,79,97,0
1,71,93,1
1,79,0,115
1,76,79,3
1,71,0,1
1,76,0,58
1,74,82,5
1,74,0,58
1,79,86,0
1,71,87,2
1,79,0,114
1,76,79,3
1,71,0,3
1,76,0,53
1,74,76,3
1,71,94,60
1,74,0,1
1,79,91,2
1,79,0,57
1,71,0,0
1,76,78,1
1,76,0,56
1,74,77,7
1,74,0,55
1,79,84,2
1,71,81,1
1,71,0,178
1,79,0,0
1,67,77,33
1,67,0,26
1,69,83,5
1,69,0,25
1,70,77,4
1,70,0,25
1,71,97,3
1,71,0,56
1,69,82,4
1,69,0,58
1,67,80,5
1,71,78,56
1,67,0,1
1,71,0,115
1,69,81,4
1,69,0,57
1,67,84,4
1,67,0,115
1,71,97,7
1,71,0,56
1,69,83,2
1,69,0,58
1,67,79,4
1,64,82,57
1,67,0,1
1,64,0,120
1,62,76,3
1,62,0,58
1,64,79,1
1,65,83,58
1,64,0,2
1,65,0,54
1,66,96,6
1,66,0,117
1,72,77,1
1,76,78,0
1,66,84,2
1,66,0,117
1,76,0,1
1,72,0,0
1,66,88,1
1,76,84,0
1,72,83,2
1,76,0,115
1,66,0,0
1,72,0,1
1,66,78,0
1,76,81,1
1,72,81,1
1,76,0,115
1,72,0,2
1,76,95,1
1,66,0,1
1,72,97,0
1,66,98,1
1,72,0,54
1,66,0,1
1,76,0,3
1,78,77,0
1,66,84,0
1,72,79,3
1,78,0,115
1,72,0,1
1,66,0,0
1,76,80,1
1,66,80,1
1,72,77,2
1,76,0,114
1,66,0,4
1,72,0,1
1,62,82,1
1,62,0,57
1,64,84,1
1,66,79,60
1,64,0,1
1,66,0,54
1,67,90,7
1,67,0,117
1,67,77,2
1,71,83,2
1,76,84,0
1,71,0,116
1,76,0,1
1,67,0,1
1,76,89,1
1,67,87,0
1,71,86,1
1,67,0,114
1,71,0,1
1,76,0,0
1,67,76,1
1,76,81,1
1,71,78,1
1,71,0,115
1,76,0,0
1,67,0,2
1,76,97,2
1,66,90,0
1,72,93,1
1,66,0,56
1,76,0,1
1,72,0,1
1,72,77,2
1,66,80,1
1,78,78,1
1,66,0,114
1,72,0,0
1,78,0,1
1,66,82,1
1,72,79,3
1,76,80,0
1,72,0,55
1,72,87,3
1,66,0,115
1,76,0,2
1,72,0,2
1,66,83,1
1,74,77,1
1,72,81,0
1,74,0,118
1,66,0,0
1,72,0,2
1,79,92,1
1,71,96,1
1,71,0,115
1,79,0,1
1,76,84,4
1,76,0,58
1,74,83,2
1,74,0,55
1,71,89,2
1,79,90,2
1,71,0,115
1,76,80,3
1,79,0,2
1,76,0,54
1,74,76,5
1,74,0,59
1,71,93,1
1,79,95,1
1,79,0,55
1,76,81,2
1,71,0,2
1,76,0,54
1,74,76,8
1,74,0,56
1,79,76,3
1,71,81,1
1,79,0,179
1,71,0,1
1,67,82,29
1,67,0,28
1,69,82,2
1,70,83,28
1,69,0,2
1,70,0,27
1,71,98,3
1,71,0,60
1,69,83,1
1,69,0,58
1,67,77,1
1,67,0,57
1,71,82,1
1,71,0,120
1,69,76,3
1,69,0,58
1,67,82,1
1,67,0,115
1,71,98,2
1,71,0,57
1,69,84,3
1,69,0,59
1,67,83,2
1,67,0,61
1,64,77,2
1,62,77,116
1,64,0,5
1,62,0,55
1,64,84,1
1,64,0,57
1,65,81,5
1,65,0,59
1,66,91,1
1,66,0,115
1,66,82,2
1,72,78,2
1,76,84,2
1,66,0,111
1,76,0,3
1,76,88,2
1,72,0,1
1,66,88,2
1,72,84,0
1,76,0,114
1,66,0,1
1,66,80,2
1,72,0,1
1,72,78,1
1,76,83,1
1,72,0,116
1,76,0,1
1,66,0,0
1,72,95,1
1,76,93,2
1,66,93,1
1,66,0,54
1,72,0,0
1,72,77,2
1,66,84,0
1,78,77,0
1,76,0,2
1,72,0,115
1,66,0,3
1,78,0,1
1,66,78,1
1,72,82,1
1,76,77,0
1,72,0,175
1,76,0,2
1,66,0,1
1,72,83,1
1,66,78,1
1,74,76,0
1,66,0,115
1,72,0,2
1,71,95,0
1,67,94,1
1,74,0,1
1,79,95,1
1,71,0,112
1,79,0,3
1,67,0,0
1,67,78,3
1,74,82,1
1,79,82,0
1,79,0,116
1,67,0,1
1,73,87,3
1,74,0,1
1,67,86,0
1,79,90,1
1,79,0,115
1,73,0,0
1,67,0,2
1,79,78,1
1,72,81,0
1,67,82,1
1,79,0,115
1,67,0,1
1,79,92,2
1,67,90,0
1,72,0,2
1,71,94,1
1,79,0,114
1,71,0,1
1,67,0,0
1,71,82,2
1,71,0,55
1,72,83,4
1,72,0,57
1,73,87,7
1,73,0,56
1,74,81,0
1,74,0,61
1,76,79,1
1,76,0,58
1,78,83,4
1,79,97,56
1,71,92,1
1,78,0,2
1,71,0,114
1,79,0,3
1,76,78,2
1,76,0,60
1,74,82,2
1,71,86,56
1,74,0,3
1,79,90,0
1,71,0,115
1,76,80,2
1,79,0,3
1,76,0,53
1,74,81,5
1,74,0,59
1,79,98,1
1,71,90,1
1,79,0,54
1,76,77,5
1,71,0,1
1,76,0,57
1,74,83,5
1,79,82,58
1,74,0,1
1,71,76,1
1,79,0,174
1,71,0,3
1,67,82,29
1,67,0,25
1,69,76,5
1,69,0,26
1,70,84,8
1,71,96,30
1,70,0,1
1,71,0,54
1,69,77,4
1,67,82,60
1,69,0,1
1,71,76,56
1,67,0,2
1,71,0,117
1,69,77,2
1,69,0,60
1,67,76,0
1,67,0,118
1,71,95,3
1,71,0,57
1,69,76,4
1,69,0,58
1,67,79,3
1,67,0,57
1,64,77,3
1,64,0,118
1,62,76,0
1,62,0,56
1,64,76,6
1,65,81,57
1,64,0,4
1,65,0,51
1,66,91,6
1,66,0,116
1,66,83,2
1,76,82,0
1,72,84,3
1,66,0,113
1,76,0,1
1,72,0,5
1,76,89,0
1,66,84,1
1,72,90,0
1,72,0,115
1,66,0,3
1,76,0,0
1,76,76,1
1,72,79,0
1,66,83,1
1,72,0,114
1,66,0,1
1,76,0,1
1,72,92,1
1,66,90,0
1,76,94,4
1,72,0,52
1,66,0,3
1,76,0,1
1,66,81,1
1,78,78,0
1,72,84,2
1,78,0,116
1,72,0,1
1,66,0,1
1,72,83,1
1,66,84,2
1,76,79,0
1,72,0,114
1,76,0,5
1,62,82,1
1,66,0,1
1,62,0,56
1,64,80,1
1,66,79,60
1,64,0,1
1,66,0,58
1,67,97,0
1,67,0,116
1,67,84,5
1,76,76,0
1,71,79,2
1,67,0,114
1,71,0,1
1,67,87,1
1,76,0,1
1,76,90,2
1,71,90,1
1,67,0,112
1,76,0,2
1,71,0,2
1,76,78,0
1,71,79,2
1,67,83,2
1,76,0,111
1,67,0,4
1,71,0,0
1,76,97,3
1,72,96,0
1,66,92,1
1,66,0,55
1,72,0,0
1,72,77,2
1,78,79,1
1,76,0,2
1,66,81,1
1,66,0,115
1,72,0,0
1,78,0,1
1,72,84,0
1,66,77,1
1,76,80,3
1,72,0,57
1,72,84,2
1,72,0,118
1,76,0,0
1,66,0,0
1,66,83,1
1,74,79,1
1,72,79,1
1,66,0,118
1,74,0,1
1,71,94,0
1,79,90,1
1,72,0,1
1,71,0,115
1,76,81,3
1,79,0,1
1,76,0,54
1,74,81,6
1,74,0,57
1,79,91,0
1,71,86,2
1,79,0,113
1,76,78,4
1,71,0,4
1,76,0,55
1,74,81,5
1,79,97,56
1,74,0,3
1,71,96,1
1,79,0,57
1,71,0,1
1,76,81,0
1,76,0,58
1,74,76,1
1,74,0,58
1,79,77,1
1,71,76,2
1,79,0,175
1,71,0,1
1,67,79,34
1,69,78,29
1,67,0,2
1,69,0,28
1,70,79,2
1,70,0,26
1,71,91,1
1,71,0,61
1,69,80,0
1,69,0,56
1,67,80,3
1,67,0,58
1,71,77,5
1,71,0,116
1,69,84,1
1,69,0,58
1,67,79,4
1,67,0,116
1,71,98,5
1,69,81,57
1,71,0,1
1,69,0,57
1,67,76,5
1,67,0,60
1,64,83,1
1,62,83,119
1,64,0,2
1,62,0,55
1,64,79,3
1,64,0,56
1,65,84,3
1,65,0,55
1,66,93,7
1,66,0,114
1,66,79,2
1,76,82,3
1,72,76,0
1,66,0,113
1,76,0,2
1,72,0,1
1,76,88,1
1,72,86,4
1,66,88,0
1,76,0,112
1,66,0,3
1,72,0,2
1,66,83,0
1,72,79,1
1,76,84,2
1,72,0,114
1,72,98,2
1,76,0,2
1,66,0,0
1,76,98,2
1,66,90,0
1,72,0,53
1,66,0,2
1,72,82,1
1,78,80,1
1,66,80,0
1,76,0,4
1,72,0,110
1,66,0,2
1,78,0,2
1,66,76,2
1,76,81,1
1,72,77,1
1,76,0,175
1,66,0,1
1,72,0,1
1,66,76,1
1,72,77,0
1,74,81,1
1,66,0,115
1,74,0,2
1,72,0,0
1,79,92,2
1,71,97,2
1,67,92,1
1,71,0,114
1,79,0,0
1,67,0,1
1,74,78,1
1,79,80,0
1,67,79,1
1,79,0,116
1,67,0,1
1,74,0,3
1,67,84,0
1,79,88,3
1,73,83,0
1,67,0,114
1,79,0,1
1,67,76,3
1,79,83,0
1,73,0,1
1,72,79,1
1,72,0,115
1,79,0,0
1,67,0,0
1,79,95,1
1,71,92,2
1,67,97,2
1,71,0,113
1,79,0,4
1,67,0,1
1,67,82,1
1,69,80,58
1,67,0,3
1,69,0,55
1,71,83,1
1,71,0,119
1,74,79,3
1,78,82,91
1,75,84,1
1,78,0,26
1,76,96,1
1,74,0,2
1,79,97,1
1,75,0,1
1,72,76,116
1,76,0,1
1,79,0,1
1,75,83,87
1,78,83,1
1,78,0,27
1,75,0,2
1,72,0,2
1,79,88,0
1,76,85,1
1,79,0,115
1,72,81,2
1,76,0,1
1,78,78,90
1,75,82,1
1,72,0,23
1,78,0,2
1,75,0,4
1,76,96,0
1,79,94,3
1,76,0,56
1,78,78,4
1,79,0,1
1,79,81,56
1,78,0,1
1,79,0,56
1,76,84,3
1,72,76,2
1,76,0,115
1,75,77,2
1,72,0,2
1,75,0,58
1,76,76,4
1,72,82,0
1,73,84,87
1,70,83,2
1,73,0,24
1,76,0,3
1,74,91,0
1,72,0,1
1,70,0,0
1,71,98,1
1,74,0,117
1,71,0,2
1,67,78,3
1,71,79,88
1,73,83,2
1,71,0,26
1,74,85,0
1,67,0,2
1,71,86,0
1,73,0,3
1,74,0,111
1,71,0,5
1,67,79,3
1,70,79,87
1,73,78,3
1,70,0,23
1,74,97,4
1,73,0,1
1,71,98,0
1,67,0,1
1,74,0,54
1,71,0,1
1,73,76,2
1,73,0,55
1,74,81,9
1,67,84,56
1,74,0,2
1,71,79,1
1,67,0,117
1,71,0,2
1,70,76,1
1,67,79,59
1,70,0,1
1,71,78,0
1,67,0,116
1,71,0,1
1,71,93,2
1,74,98,1
1,71,0,118
1,73,79,0
1,74,0,3
1,70,82,0
1,73,0,52
1,70,0,7
1,72,79,1
1,69,83,0
1,72,0,117
1,71,82,2
1,68,82,0
1,69,0,1
1,68,0,57
1,69,84,0
1,71,0,1
1,72,80,2
1,69,0,112
1,72,0,3
1,71,95,1
1,74,92,0
1,74,0,116
1,71,0,0
1,73,78,4
1,70,84,1
1,73,0,54
1,70,0,1
1,72,82,4
1,69,84,4
1,72,0,117
1,71,81,0
1,68,77,2
1,69,0,1
1,71,0,56
1,69,79,1
1,72,83,1
1,68,0,2
1,69,0,114
1,72,0,1
1,67,84,61
1,71,76,1
1,71,0,59
1,67,0,0
1,62,78,60
1,62,0,57
1,64,81,63
1,64,0,55
1,66,76,67
1,66,0,60
1,67,79,62
1,67,0,58
1,69,80,62
1,69,0,55
1,71,80,64
1,71,0,56
1,74,84,62
1,78,76,30
1,75,84,1
1,78,0,24
1,74,0,4
1,75,0,2
1,76,96,1
1,79,93,0
1,76,0,117
1,72,83,1
1,79,0,2
1,78,78,87
1,75,80,2
1,75,0,26
1,78,0,2
1,79,89,1
1,76,89,0
1,72,0,1
1,76,0,118
1,79,0,0
1,72,80,3
1,75,79,88
1,78,76,1
1,72,0,28
1,79,94,0
1,75,0,2
1,78,0,1
1,76,93,1
1,79,0,56
1,78,78,4
1,76,0,1
1,79,84,57
1,78,0,2
1,79,0,58
1,76,80,0
1,72,77,0
1,76,0,115
1,75,82,3
1,72,0,1
1,75,0,58
1,72,79,3
1,76,81,2
1,73,83,86
1,70,76,3
1,73,0,24
1,70,0,1
1,76,0,3
1,72,0,0
1,74,98,0
1,71,91,3
1,71,0,116
1,74,0,0
1,67,76,3
1,73,84,90
1,70,79,0
1,73,0,25
1,70,0,2
1,71,88,0
1,67,0,1
1,74,84,1
1,67,79,118
1,71,0,1
1,74,0,2
1,70,76,89
1,73,81,0
1,70,0,27
1,67,0,1
1,74,96,1
1,73,0,1
1,71,93,0
1,71,0,58
1,74,0,2
1,73,83,0
1,73,0,58
1,74,79,2
1,74,0,57
1,67,77,2
1,71,79,0
1,67,0,116
1,71,0,4
1,70,84,2
1,70,0,57
1,71,81,0
1,67,80,0
1,67,0,115
1,71,0,1
1,71,93,7
1,74,94,1
1,74,0,116
1,70,79,2
1,73,78,0
1,71,0,2
1,73,0,54
1,70,0,4
1,69,78,1
1,72,83,1
1,69,0,115
1,68,81,3
1,71,79,2
1,72,0,1
1,71,0,54
1,68,0,2
1,72,76,1
1,69,79,0
1,69,0,115
1,72,0,3
1,74,90,1
1,71,93,2
1,71,0,117
1,74,0,0
1,70,79,0
1,73,81,0
1,73,0,55
1,70,0,5
1,72,84,0
1,70,80,3
1,72,0,112
1,70,0,5
1,68,82,2
1,71,76,1
1,68,0,55
1,71,0,1
1,72,82,2
1,69,83,1
1,69,0,117
1,72,0,0
1,67,95,3
1,71,97,1
1,67,0,116
1,71,0,1
1,59,76,4
1,59,0,57
1,60,84,0
1,60,0,55
1,61,91,6
1,62,83,59
1,61,0,1
1,62,0,58
1,64,80,3
1,64,0,56
1,66,80,4
1,66,0,61
1,67,98,0
1,67,0,115
1,67,82,5
1,67,0,58
1,69,78,1
1,69,0,57
1,71,86,0
1,71,0,121
1,74,79,0
1,78,81,91
1,75,81,2
1,78,0,23
1,75,0,2
1,74,0,0
1,76,94,2
1,79,95,1
1,79,0,117
1,76,0,3
1,72,82,0
1,78,80,89
1,75,79,2
1,78,0,25
1,75,0,1
1,72,0,2
1,79,83,1
1,76,88,0
1,76,0,115
1,79,0,0
1,72,82,6
1,75,78,88
1,78,80,1
1,76,93,28
1,79,95,1
1,78,0,1
1,72,0,0
1,75,0,0
1,79,0,54
1,76,0,5
1,78,83,0
1,78,0,55
1,79,80,5
1,79,0,58
1,76,79,1
1,72,83,3
1,76,0,114
1,75,82,4
1,72,0,2
1,75,0,55
1,76,81,2
1,72,78,3
