track,note,velocity,time
1,63,127,11908
1,63,127,60
1,60,127,152
1,63,127,520
1,63,127,68
1,60,127,152
1,63,127,440
1,63,127,72
1,62,127,4
1,60,127,4
1,63,127,8
1,63,127,76
1,62,127,24
1,60,127,12
1,62,127,40
1,62,127,68
1,59,127,96
1,62,127,464
1,62,127,68
1,59,127,120
1,62,127,396
1,62,127,88
1,59,127,132
1,62,127,380
1,62,127,64
1,60,127,8
1,59,127,188
1,62,127,52
1,62,127,84
1,60,127,52
1,59,127,188
1,63,127,48
1,63,127,76
1,60,127,136
1,63,127,440
1,63,127,76
1,60,127,120
1,63,127,416
1,63,127,88
1,60,127,188
1,67,127,20
1,63,127,640
1,62,127,24
1,60,127,8
1,62,127,8
1,62,127,88
1,59,127,112
1,62,127,404
1,62,127,80
1,59,127,100
1,62,127,420
1,62,127,92
1,59,127,168
1,67,127,0
1,65,127,112
1,63,127,196
1,62,127,172
1,63,127,60
1,62,127,24
1,60,105,32
1,60,126,116
1,65,127,288
1,65,127,156
1,65,127,156
1,67,127,384
1,65,127,172
1,58,127,32
1,58,127,108
1,58,127,184
1,63,127,140
1,63,127,136
1,63,127,104
1,65,127,28
1,63,127,24
1,60,127,0
1,60,127,108
1,60,127,184
1,60,127,108
1,65,127,28
1,65,127,100
1,65,127,84
1,67,127,4
1,65,127,28
1,58,127,32
1,58,127,108
1,58,127,160
1,63,127,36
1,63,127,116
1,63,127,164
1,65,127,40
1,63,127,188
1,62,127,4
1,63,106,0
1,62,127,96
1,63,106,0
1,62,127,216
1,67,127,0
1,63,127,1300
1,63,127,12
1,60,127,120
1,63,127,356
1,63,127,120
1,60,127,140
1,63,127,312
1,62,127,68
1,60,127,8
1,63,127,68
1,62,127,36
1,60,127,16
1,62,127,44
1,62,127,88
1,59,127,128
1,61,98,0
1,62,127,700
1,62,127,80
1,59,127,144
1,62,127,400
1,62,127,100
1,59,127,180
1,62,127,344
1,63,127,120
1,62,120,188
1,63,127,8
1,62,109,192
1,60,106,36
1,63,127,0
1,62,113,192
1,60,117,4
1,63,127,200
1,63,127,84
1,60,127,156
1,63,127,540
1,63,127,64
1,60,127,160
1,72,127,0
1,67,127,652
1,63,120,144
1,62,124,36
1,60,122,188
1,62,127,0
1,62,127,60
1,59,127,84
1,62,127,404
1,62,127,44
1,59,127,144
1,62,127,400
1,62,127,68
1,59,127,148
1,71,118,20
1,72,127,1356
1,70,127,180
1,67,127,20
1,63,114,188
1,62,119,20
1,60,121,188
1,60,127,64
1,65,127,12
1,65,127,84
1,65,127,80
1,67,127,384
1,65,127,180
1,58,126,32
1,58,127,68
1,58,127,128
1,63,127,52
1,63,127,112
1,63,127,108
1,65,124,384
1,63,127,176
1,60,127,8
1,60,127,88
1,60,127,172
1,65,127,140
1,65,127,104
1,65,127,64
1,67,127,384
1,65,127,168
1,58,127,4
1,58,127,84
1,58,127,120
1,63,127,96
1,63,127,96
1,63,127,84
1,65,127,12
1,63,127,12
1,62,127,8
1,62,127,96
1,62,127,160
1,63,107,0
1,67,127,12
1,63,127,1392
1,63,127,48
1,60,127,164
1,63,127,696
1,63,127,60
1,60,127,156
1,63,127,568
1,62,127,28
1,63,94,0
1,60,122,160
1,63,127,184
1,62,127,348
1,60,127,16
1,62,126,192
1,62,127,48
1,59,127,132
1,62,127,476
1,62,127,28
1,59,127,108
1,62,127,524
1,62,127,32
1,59,127,156
1,62,127,660
1,63,127,1152
1,62,109,180
1,63,127,72
1,62,116,20
1,60,119,24
1,63,127,60
1,60,120,24
1,63,127,396
1,63,127,124
1,60,127,24
1,55,127,556
1,63,127,4
1,63,127,104
1,60,127,344
1,72,126,0
1,71,127,1796
1,67,127,148
1,65,117,4
1,62,118,200
1,59,121,148
1,57,122,164
1,55,127,140
1,62,127,156
1,62,127,128
1,59,127,12
1,62,127,768
1,62,127,100
1,59,127,24
1,71,121,8
1,72,127,1536
1,70,127,188
1,67,127,12
1,65,124,16
1,63,127,196
1,62,124,0
1,60,127,200
1,72,127,32
1,72,127,76
1,79,127,48
1,77,127,64
1,75,127,120
1,74,127,100
1,79,123,0
1,79,127,8
1,79,127,448
1,82,127,584
1,79,119,156
1,82,127,0
1,79,110,164
1,84,116,52
1,82,127,4836
1,79,123,156
1,77,126,12
1,75,127,100
1,74,123,12
1,72,123,0
1,73,115,372
1,74,127,16
1,74,123,36
1,71,111,12
1,74,127,964
1,74,127,60
1,71,111,144
1,79,119,4
1,82,127,1984
1,79,121,176
1,82,127,24
1,79,127,8
1,83,127,64
1,84,123,24
2,31,127,2692
2,31,127,104
2,31,127,92
2,31,127,104
2,31,127,116
2,31,127,140
2,31,127,104
2,31,127,76
2,31,127,136
2,31,127,80
2,31,127,76
2,31,127,68
2,31,127,72
2,31,127,80
2,31,127,80
2,31,127,92
2,31,127,104
2,43,127,8
2,31,127,192
2,43,127,4
2,31,127,192
2,43,127,160
2,31,127,188
2,43,127,36
2,36,127,12
2,31,127,168
2,36,127,112
2,31,127,136
2,36,127,152
2,31,127,140
2,36,127,140
2,31,127,12
2,34,127,196
2,35,127,20
2,36,127,4
2,31,127,196
2,36,127,152
2,31,127,176
2,36,127,156
2,31,127,132
2,36,127,152
2,31,127,128
2,36,127,144
2,31,127,64
2,36,127,124
2,31,127,84
2,38,127,120
2,31,127,140
2,38,127,128
2,31,127,156
2,38,127,132
2,31,127,152
2,38,127,140
2,31,127,144
2,38,127,132
2,31,127,148
2,38,127,124
2,31,127,144
2,38,127,116
2,31,127,108
2,38,127,136
2,31,127,152
2,36,127,124
2,31,127,144
2,36,127,104
2,31,127,36
2,34,127,192
2,35,127,4
2,36,127,196
2,31,127,132
2,36,127,116
2,31,127,120
2,36,127,140
2,31,127,108
2,36,127,144
2,31,127,104
2,36,127,124
2,31,127,68
2,36,127,140
2,31,127,108
2,38,127,136
2,31,127,160
2,38,127,112
2,31,127,156
2,38,127,132
2,31,127,156
2,38,127,112
2,31,127,112
2,38,127,116
2,31,127,168
2,38,127,128
2,31,127,128
2,38,127,140
2,31,127,120
2,38,127,140
2,31,127,188
2,36,127,136
2,31,127,144
2,36,127,100
2,36,127,108
2,38,127,4
2,39,127,192
2,41,127,44
2,36,127,136
2,41,127,68
2,36,127,12
2,41,127,52
2,34,127,68
2,29,127,120
2,34,127,84
2,36,127,28
2,38,127,188
2,39,127,20
2,34,127,76
2,39,127,64
2,34,127,384
2,39,127,4
2,36,127,44
2,31,127,44
2,36,127,40
2,36,127,108
2,38,127,16
2,39,127,192
2,41,127,52
2,36,127,60
2,41,127,88
2,36,127,20
2,41,127,44
2,34,127,28
2,29,127,64
2,34,127,108
2,36,127,28
2,38,127,32
2,39,127,64
2,34,127,112
2,39,127,92
2,34,127,44
2,31,127,168
2,31,127,96
2,31,127,180
2,30,127,0
2,43,127,40
2,41,127,32
2,39,127,76
2,38,127,76
2,31,127,88
2,36,127,20
2,31,127,104
2,36,127,140
2,31,127,88
2,36,127,144
2,31,127,104
2,36,127,152
2,31,127,72
2,36,127,140
2,31,127,28
2,36,127,136
2,31,127,36
2,38,127,124
2,31,127,92
2,38,127,128
2,31,127,28
2,38,127,140
2,31,127,128
2,38,127,128
2,31,127,124
2,38,127,116
2,31,127,124
2,38,127,128
2,31,127,120
2,38,127,132
2,31,127,104
2,38,127,128
2,31,127,132
2,36,127,124
2,36,127,0
2,31,127,112
2,36,127,140
2,31,127,192
2,34,127,16
2,35,127,48
2,36,127,64
2,31,127,40
2,36,127,116
2,31,127,48
2,36,127,104
2,31,127,68
2,36,127,88
2,31,127,60
2,36,127,120
2,31,127,20
2,36,127,108
2,31,127,76
2,38,127,128
2,31,127,28
2,38,127,104
2,31,127,60
2,38,127,120
2,31,127,124
2,38,127,112
2,31,127,104
2,34,127,0
2,38,127,124
2,31,127,132
2,38,127,112
2,31,127,108
2,38,127,120
2,31,127,52
2,38,127,104
2,31,127,68
2,36,127,140
2,31,127,40
2,36,127,80
2,36,127,120
2,38,127,32
2,39,127,20
2,41,127,56
2,36,127,72
2,41,127,80
2,36,127,36
2,41,127,24
2,34,127,56
2,29,127,180
2,34,127,116
2,36,127,40
2,38,127,188
2,39,127,172
2,34,127,72
2,39,127,112
2,34,127,68
2,36,127,100
2,31,127,72
2,36,127,4
2,36,127,140
2,38,127,192
2,39,127,32
2,41,127,60
2,36,127,24
2,41,127,92
2,36,127,72
2,34,127,140
2,29,127,124
2,34,127,112
2,36,127,72
2,38,127,4
2,39,127,84
2,34,127,88
2,39,127,76
2,34,127,100
2,31,127,228
2,31,127,96
2,31,127,204
2,43,127,116
2,41,127,8
2,39,127,140
2,38,127,124
2,31,127,140
2,36,127,16
2,31,127,120
2,36,127,116
2,31,127,128
2,36,127,120
2,31,127,92
2,36,127,152
2,31,127,152
2,36,127,132
2,31,127,104
2,36,127,140
2,31,127,64
2,38,127,136
2,31,127,112
2,38,127,128
2,31,127,172
2,38,127,144
2,31,127,204
2,38,127,136
2,31,127,160
2,38,127,128
2,31,127,164
2,38,127,124
2,31,127,156
2,38,127,120
2,31,127,136
2,38,127,124
2,31,127,108
2,36,127,140
2,31,127,140
2,36,127,104
2,31,127,24
2,34,127,192
2,35,127,68
2,36,127,40
2,31,127,88
2,36,127,140
2,31,127,120
2,36,127,132
2,31,127,216
2,36,127,140
2,31,127,164
2,36,127,164
2,31,127,104
2,36,127,124
2,31,127,108
2,38,127,124
2,31,127,104
2,38,127,148
2,31,127,164
2,38,127,140
2,31,127,152
2,38,127,148
2,31,127,168
2,38,127,152
2,31,127,160
2,38,127,148
2,31,127,116
2,34,127,0
2,38,127,164
2,31,127,104
2,38,127,92
2,31,127,96
2,36,127,156
2,31,127,112
2,36,127,124
2,31,127,32
2,34,127,40
2,35,127,60
2,36,127,56
2,31,127,84
2,36,127,140
2,31,127,112
2,36,127,144
2,31,127,148
2,36,127,140
2,31,127,116
2,36,127,168
2,31,127,124
2,36,127,128
2,31,127,116
2,38,127,152
2,31,127,128
2,38,127,124
2,31,127,144
2,38,127,144
2,31,127,136
2,38,127,112
2,31,127,132
2,34,127,0
2,38,127,140
2,31,127,148
2,38,127,124
2,31,127,228
2,38,127,172
2,31,127,140
2,38,127,128
2,31,127,188
2,36,127,136
2,36,127,0
2,31,127,196
2,36,127,144
2,31,127,76
2,34,127,192
2,36,127,32
2,31,127,92
2,36,127,124
2,31,127,28
2,36,127,124
2,31,127,96
2,36,127,140
2,31,127,32
2,34,127,52
2,36,127,60
2,31,127,28
2,36,127,136
2,31,127,52
2,38,127,112
2,31,127,12
2,38,127,112
2,31,127,108
2,38,127,132
2,31,127,84
2,38,127,136
2,31,127,32
2,34,127,0
2,38,127,124
2,31,127,120
2,38,127,132
2,31,127,112
2,38,127,124
2,31,127,140
2,38,127,104
2,31,127,148
2,36,127,124
2,31,127,108
2,36,127,120
2,31,127,44
2,34,127,48
2,36,127,96
2,34,127,28
2,31,127,72
2,36,127,120
3,79,105,7312
3,81,93,80
3,79,91,80
3,81,86,84
3,79,101,88
3,81,101,72
3,79,109,92
3,81,105,4
3,79,105,80
3,81,101,24
3,82,75,24
3,79,101,32
3,81,91,12
3,79,119,96
3,81,119,96
3,82,101,92
3,83,119,96
3,84,98,108
3,75,109,3672
3,72,91,0
3,77,91,20
3,74,93,0
3,75,81,0
3,79,93,0
3,75,115,996
3,72,98,20
3,77,88,12
3,74,91,0
3,75,86,12
3,79,91,0
3,74,93,4076
3,71,88,16
3,75,81,24
3,72,91,0
3,74,82,8
3,77,91,0
3,74,101,944
3,71,93,0
3,72,89,76
3,75,85,0
3,77,89,12
3,74,98,0
3,72,88,30172
3,75,105,0
3,77,83,24
3,74,80,0
3,75,86,8
3,79,91,0
3,75,115,968
3,72,98,0
3,77,86,36
3,74,89,0
3,75,88,12
3,79,93,0
3,74,96,4048
3,71,88,0
3,75,84,24
3,72,88,4
3,74,84,12
3,77,96,24
3,75,63,4
3,71,96,940
3,74,105,0
3,75,86,24
3,72,98,20
3,77,93,16
3,74,84,4
3,75,62,24
4,67,91,2692
4,55,60,188
4,53,52,0
4,71,85,624
4,74,75,0
4,71,95,60
4,67,95,0
4,74,94,4
4,76,95,52
4,72,105,0
4,67,103,0
4,67,100,164
4,74,98,0
4,77,101,0
4,71,94,0
4,74,94,232
4,71,91,0
4,79,92,0
4,67,94,0
4,79,110,28
4,81,88,92
4,82,93,64
4,83,91,12
4,82,88,0
4,84,108,72
4,79,87,15140
4,67,77,0
4,60,78,0
4,72,77,0
4,79,75,24
4,67,80,0
4,60,74,28
4,72,74,0
4,71,76,36
4,59,70,0
4,62,77,28
4,55,85,0
4,65,84,1540
4,48,84,128
4,63,76,0
4,72,76,0
4,67,83,0
4,68,84,140
4,77,95,0
4,53,84,0
4,58,90,60
4,82,83,0
4,74,81,0
4,63,93,12
4,75,87,0
4,67,94,0
4,60,74,60
4,72,81,0
4,53,82,84
4,68,79,0
4,77,74,4
4,58,90,216
4,82,96,0
4,74,92,0
4,75,88,16
4,67,95,0
4,63,93,4
4,71,67,68
4,55,90,0
4,79,71,4
4,79,71,14260
4,67,80,0
4,60,75,1536
4,72,70,0
4,67,94,8
4,79,83,0
4,60,71,56
4,72,66,0
4,71,72,36
4,59,71,0
4,55,75,2972
4,62,75,0
4,65,80,1500
4,48,88,40
4,63,78,0
4,72,80,4
4,67,83,0
4,77,90,312
4,68,85,0
4,53,87,0
4,82,81,24
4,58,91,0
4,74,82,0
4,75,81,44
4,63,92,0
4,67,80,0
4,60,73,60
4,72,84,0
4,53,87,4
4,77,79,0
4,68,89,0
4,58,89,260
4,82,80,0
4,74,83,0
4,75,84,220
4,63,94,0
4,67,96,4
4,79,71,48
4,55,80,0
4,71,79,0
4,79,77,14284
4,67,79,0
4,60,70,1436
4,72,64,8
4,79,82,100
4,67,91,0
4,60,78,4
4,72,78,4
4,71,72,20
4,59,78,0
4,62,70,52
4,55,68,0
4,65,79,1536
4,48,82,164
4,72,73,0
4,67,80,0
4,63,74,4
4,75,98,372
4,87,99,0
4,75,109,116
4,87,109,0
4,72,88,48
4,84,94,0
4,87,98,612
4,75,92,0
4,87,98,92
4,75,94,0
4,72,91,100
4,84,93,0
4,75,99,512
4,87,99,0
4,75,93,104
4,87,97,0
4,86,88,20
4,74,81,0
4,84,84,8
4,72,79,0
4,75,99,40
4,87,99,0
4,75,91,92
4,87,99,0
4,74,84,72
4,86,79,0
4,72,79,36
4,84,92,0
4,74,90,44
4,86,88,0
4,74,92,64
4,86,96,0
4,83,87,72
4,71,89,0
4,74,94,532
4,86,87,0
4,86,93,92
4,74,94,0
4,71,84,112
4,83,84,0
4,74,98,624
4,86,91,0
4,86,91,92
4,74,94,0
4,71,87,144
4,83,83,0
4,86,94,520
4,74,96,0
4,86,93,92
4,74,91,0
4,84,88,56
4,72,83,0
4,83,79,8
4,71,79,0
4,74,93,52
4,86,95,0
4,74,92,104
4,86,95,0
4,84,94,72
4,72,90,0
4,83,84,20
4,71,89,0
4,75,91,88
4,87,99,0
4,75,97,92
4,87,102,0
4,72,91,116
4,84,95,0
4,75,100,664
4,87,100,0
4,75,97,108
4,87,102,0
4,84,92,144
4,72,90,0
4,75,100,660
4,87,100,0
4,75,99,104
4,87,106,0
4,72,88,140
4,84,94,0
4,75,100,648
4,87,94,0
4,86,89,84
4,74,90,0
4,84,90,8
4,72,84,0
4,75,104,80
4,87,98,0
4,86,87,56
4,74,92,0
4,84,90,44
4,72,87,0
4,86,88,20
4,74,94,0
4,86,101,112
4,74,91,0
4,71,90,132
4,83,89,0
4,86,89,656
4,74,103,0
4,74,92,96
4,86,95,0
4,71,91,120
4,83,88,0
4,74,101,696
4,86,91,0
4,86,94,108
4,74,100,0
4,71,92,120
4,83,88,0
4,74,98,636
4,86,95,0
4,84,92,12
4,72,85,0
4,71,84,68
4,83,87,0
4,74,100,56
4,86,100,0
4,84,93,68
4,72,90,0
4,71,80,24
4,83,82,0
4,75,94,88
4,87,100,0
4,75,97,92
4,87,104,0
4,72,88,112
