track,note,velocity,time
1,59,89,2976
1,57,89,46
1,59,89,214
1,57,89,42
1,59,89,32
1,57,89,38
1,60,89,54
1,59,89,26
1,59,89,1544
1,59,89,58
1,59,89,70
1,59,89,86
1,59,89,556
1,60,89,4
1,60,89,26
1,57,89,890
1,57,89,22
1,55,89,0
1,57,89,26
1,55,89,184
1,57,89,2
1,55,89,210
1,57,89,178
1,60,89,76
1,59,89,1402
1,59,89,86
1,59,89,112
1,59,89,130
1,60,89,542
1,62,89,188
1,64,89,1202
1,64,89,18
1,64,89,8
1,60,89,20
1,60,89,116
1,57,89,12
1,60,89,22
1,62,89,18
1,62,89,1596
1,62,89,26
1,62,89,26
1,59,89,6
1,59,89,132
1,60,89,4
1,60,89,46
1,57,89,1314
1,60,89,20
1,57,89,62
1,60,89,0
1,57,89,88
1,60,89,12
1,57,89,90
1,60,89,6
1,59,89,280
1,55,89,244
1,57,89,44
1,62,89,554
1,62,89,74
1,60,89,42
1,60,89,46
1,59,89,38
1,59,89,124
1,55,89,344
1,60,89,30
1,60,89,50
1,62,89,42
1,64,89,82
1,64,89,592
1,62,89,40
1,59,89,700
1,60,89,10
1,60,89,30
1,55,89,1862
1,65,89,48
1,64,89,120
1,60,89,250
1,60,89,132
1,64,89,584
1,62,89,0
1,59,89,602
1,60,89,54
1,60,89,40
1,60,89,1268
1,60,89,52
1,59,89,22
1,59,89,50
1,57,89,18
1,59,89,230
1,57,89,6
1,59,89,24
1,57,89,14
1,59,89,70
1,57,89,60
1,60,89,0
1,57,89,270
1,59,89,1412
1,59,89,76
1,59,89,202
1,59,89,116
1,60,89,122
1,60,89,136
1,59,89,38
1,57,89,1002
1,55,89,12
1,57,89,36
1,57,89,58
1,57,89,42
1,55,89,118
1,57,89,36
1,60,89,54
1,59,89,1332
1,59,89,20
1,59,89,14
1,59,89,46
1,57,89,86
1,59,89,102
1,60,89,506
1,60,89,68
1,57,89,28
1,57,89,94
1,64,89,594
1,64,89,150
1,64,89,194
1,60,89,4
1,60,89,114
1,57,89,20
1,60,89,36
1,62,89,8
1,59,89,1296
1,62,89,106
1,62,89,50
1,62,89,120
1,59,89,36
1,59,89,124
1,60,89,4
1,60,89,110
1,60,89,1352
1,57,89,96
1,60,89,76
1,60,89,94
1,57,89,14
1,60,89,40
1,59,89,16
1,62,89,1372
1,62,89,66
1,60,89,140
1,60,89,92
1,59,89,76
1,55,89,214
1,60,89,40
1,60,89,50
1,62,89,46
1,64,89,66
1,64,89,742
1,62,89,44
1,59,89,700
1,60,89,190
1,60,89,28
1,55,89,1846
1,65,89,62
1,64,89,52
1,60,89,4
1,60,89,106
1,64,89,566
1,62,89,178
1,59,89,682
1,60,89,60
1,60,89,34
1,60,89,1248
1,60,89,40
1,59,89,74
1,59,89,32
1,57,89,112
1,52,89,4816
1,60,89,186
1,59,89,0
1,57,89,4
1,57,89,6062
1,57,89,134
1,60,89,306
1,60,89,24
1,60,89,24
1,57,89,16
1,59,89,16
1,59,89,20
1,59,89,1228
1,59,89,52
1,59,89,130
1,59,89,20
1,60,89,530
1,60,89,54
1,60,89,110
1,62,89,34
1,57,89,756
1,57,89,58
1,57,89,136
1,57,89,44
1,57,33,238
1,57,52,40
1,57,71,36
1,57,85,34
1,55,89,352
1,57,89,18
1,60,89,116
1,59,89,484
1,59,89,28
1,59,89,64
1,59,89,52
1,59,89,38
1,60,89,46
1,60,89,44
1,62,52,198
1,57,41,56
1,64,89,1056
1,64,89,126
1,64,89,38
1,64,89,22
1,60,89,28
1,60,89,126
1,57,89,186
1,60,89,34
1,62,89,70
1,62,89,1252
1,62,89,170
1,62,89,36
1,59,89,14
1,59,89,24
1,59,89,120
1,59,89,84
1,60,89,106
1,60,89,26
1,57,89,926
1,60,89,124
1,57,89,86
1,60,89,36
1,57,89,72
1,60,89,90
1,57,89,102
1,60,89,26
1,59,89,38
1,55,89,268
1,57,89,184
1,62,89,642
1,60,89,12
1,60,89,134
1,59,89,24
1,59,89,130
1,55,89,262
1,60,89,44
1,60,89,44
1,62,89,44
1,64,89,380
1,64,89,620
1,62,89,22
1,59,89,680
1,60,89,182
1,60,89,34
1,55,89,1826
1,65,89,60
1,64,89,110
1,60,89,0
1,60,89,126
1,64,89,498
1,62,89,2
1,59,89,572
1,60,89,56
1,60,89,44
1,60,89,808
1,60,89,54
1,55,89,234
1,60,89,34
1,60,89,50
1,62,89,42
1,64,89,80
1,64,89,596
1,62,89,26
1,59,89,642
1,60,89,12
1,60,89,32
1,55,89,1886
1,65,89,52
1,64,89,240
1,62,89,246
1,62,89,38
1,64,89,518
1,64,89,12
1,62,89,190
1,59,89,508
1,60,89,52
1,60,89,42
1,60,89,1202
1,60,89,52
1,59,89,52
1,59,89,46
1,60,89,112
1,60,89,4534
1,60,89,24
1,60,89,60
1,62,89,190
1,64,89,168
1,65,89,5128
1,65,89,58
1,64,89,44
1,62,89,46
1,62,89,58
1,64,89,560
1,62,89,946
1,60,89,946
1,59,89,172
1,60,89,10
2,69,78,28316
2,67,78,56
2,69,78,1028
2,69,78,50
2,69,78,2218
2,67,78,130
2,64,78,92
2,64,78,84
2,67,78,748
2,67,78,58
2,65,78,934
2,65,78,48
2,69,78,28576
2,67,78,44
2,69,78,1026
2,69,78,66
2,69,78,2208
2,67,78,128
2,64,78,92
2,64,78,98
2,67,78,742
2,67,78,48
2,65,78,942
2,65,78,54
2,69,78,40860
2,67,78,56
2,69,78,1020
2,69,78,48
2,69,78,2212
2,67,78,130
2,64,78,98
2,64,78,106
2,67,78,724
2,67,78,54
2,65,78,948
2,65,78,40
2,65,78,928
2,65,78,40
2,69,78,2478
2,67,78,24
2,69,78,1040
2,69,78,50
2,69,78,2222
2,67,78,132
2,65,78,78
2,65,78,110
2,67,78,522
2,67,78,162
2,67,78,56
2,65,78,942
2,65,78,42
3,72,82,88988
3,69,82,4
3,69,82,908
3,72,82,10
3,67,82,944
3,71,82,10
3,72,82,944
3,69,82,2
3,72,82,918
3,69,82,2
3,69,82,954
3,72,82,4
3,71,82,932
3,67,82,8
3,72,82,940
3,69,82,6
3,72,82,934
3,69,82,4
3,69,82,914
3,72,82,2
3,71,82,946
3,67,82,18
3,72,82,950
3,69,82,12
3,72,82,932
3,69,82,8
3,69,82,932
3,72,82,12
3,61,3,3164
3,62,6,6
3,63,9,4
3,64,11,16
3,65,11,2
3,66,20,12
3,67,20,20
3,68,26,0
3,69,32,38
3,70,32,2
3,71,32,14
3,64,61,20
3,67,61,2
3,72,61,2
3,62,61,1526
3,71,61,2
3,72,61,1520
3,69,61,0
3,65,61,0
3,74,61,26
3,71,61,4
3,67,61,6
3,72,61,6
3,64,61,4
3,67,61,0
3,71,61,0
3,62,61,0
3,72,61,1528
3,69,61,2
3,65,61,0
3,67,61,26
3,71,61,0
3,74,61,14
3,67,61,36
3,72,61,2
3,64,61,0
3,88,61,244
3,84,61,14
3,89,61,24
3,86,61,2
3,91,61,6
3,88,61,4
3,89,61,236
3,86,61,0
3,84,61,12
3,88,61,0
3,71,61,4
3,83,61,2
3,62,61,2
3,86,61,4
3,84,61,6
3,88,61,10
3,83,61,242
3,86,61,2
3,84,61,10
3,81,61,0
3,79,61,12
3,83,61,4
3,69,61,244
3,72,61,2
3,84,61,0
3,65,61,0
3,81,61,10
3,71,61,26
3,74,61,2
3,67,61,4
3,64,61,10
3,72,61,6
3,67,61,4
3,88,61,242
3,84,61,14
3,86,61,12
3,89,61,4
3,91,61,4
3,88,61,16
3,89,61,4
3,86,61,4
3,88,61,230
3,84,61,0
3,83,61,8
3,86,61,0
3,62,61,0
3,71,61,2
3,84,61,22
3,88,61,4
3,86,61,12
3,83,61,0
3,84,61,2
3,81,61,2
3,79,61,242
3,83,61,20
3,81,61,232
3,65,61,0
3,72,61,0
3,84,61,6
3,69,61,0
3,84,61,138
3,89,61,6
3,81,61,4
3,81,61,42
3,89,61,2
3,84,61,16
3,88,61,28
3,84,61,4
3,79,61,8
3,84,61,44
3,79,61,4
3,88,61,8
3,89,61,26
3,83,61,2
3,74,61,0
3,67,61,2
3,71,61,4
3,79,61,2
3,83,61,46
3,89,61,4
3,79,61,2
3,88,61,26
3,84,61,8
3,79,61,6
3,88,61,48
3,84,61,6
3,79,61,0
3,79,61,40
3,83,61,2
3,89,61,2
3,64,61,22
3,72,61,0
3,67,61,8
3,88,61,242
3,84,61,18
3,86,61,24
3,89,61,10
3,91,61,236
3,88,61,4
3,89,61,0
3,86,61,4
3,88,61,8
3,84,61,2
3,83,61,0
3,86,61,2
3,62,61,0
3,71,61,4
3,84,61,12
3,88,61,8
3,86,61,242
3,83,61,6
3,84,61,12
3,81,61,8
3,79,61,232
3,83,61,10
3,65,61,0
3,84,61,6
3,72,61,2
3,69,61,0
3,81,61,2
3,71,61,18
3,67,61,8
3,74,61,10
3,72,61,30
3,67,61,2
3,64,61,2
3,88,61,234
3,84,61,18
3,89,61,16
3,86,61,32
3,88,61,22
3,91,61,8
3,89,61,230
3,86,61,2
3,84,61,12
3,88,61,2
3,83,61,14
3,86,61,4
3,62,61,0
3,71,61,4
3,88,61,24
3,84,61,8
3,86,61,244
3,83,61,2
3,84,61,22
3,81,61,12
3,79,61,4
3,83,61,4
3,72,61,242
3,84,61,2
3,65,61,2
3,81,61,0
3,69,61,0
3,74,61,20
3,67,61,10
3,71,61,8
3,72,61,14
3,64,61,6
3,67,61,10
3,84,61,240
3,88,61,14
3,89,61,32
3,86,61,2
3,91,61,6
3,88,61,4
3,89,61,246
3,86,61,4
3,84,61,232
3,88,61,8
3,83,61,0
3,86,61,0
3,71,61,6
3,62,61,6
3,88,61,8
3,84,61,12
3,83,61,0
3,86,61,2
3,81,61,0
3,84,61,4
3,79,61,10
3,83,61,2
3,72,61,242
3,69,61,8
3,81,61,0
3,65,61,4
3,84,61,2
3,65,61,30
3,69,61,2
3,72,61,6
3,74,61,32
3,67,61,4
3,71,61,4
4,59,92,76314
4,64,92,6
4,45,92,14
4,45,88,278
4,60,88,4
4,59,88,2
4,64,88,12
4,57,88,2
4,64,88,84
4,45,88,4
4,59,88,6
4,60,88,4
4,57,88,52
4,50,88,202
4,65,88,6
4,59,88,2
4,59,88,284
4,65,88,8
4,62,88,12
4,50,88,4
4,57,88,368
4,65,88,54
4,59,88,12
4,50,88,4
4,62,88,10
4,57,88,72
4,52,92,190
4,64,92,8
4,57,92,4
4,59,92,314
4,52,92,0
4,57,92,4
4,64,92,4
4,55,92,376
4,59,92,34
4,64,92,8
4,52,92,6
4,57,92,14
4,55,92,176
4,65,92,238
4,59,92,4
4,53,92,6
4,53,88,284
4,59,88,4
4,65,88,4
4,60,88,18
4,57,84,14
4,65,84,42
4,60,84,4
4,59,84,6
4,53,84,0
4,57,88,44
4,45,93,216
4,64,93,12
4,59,93,6
4,45,83,274
4,60,83,2
4,59,83,6
4,64,83,6
4,57,83,6
4,59,83,82
4,60,83,6
4,45,83,6
4,64,83,0
4,57,83,38
4,59,93,200
4,65,93,6
4,50,93,4
4,65,88,282
4,50,88,2
4,62,88,2
4,59,88,2
4,57,83,382
4,62,88,78
4,65,88,2
4,59,88,2
4,50,88,10
4,57,88,0
4,52,93,194
4,64,93,2
4,57,93,0
4,52,83,322
4,59,83,6
4,57,83,2
4,64,83,4
4,55,88,368
4,57,83,40
4,64,83,4
4,52,83,2
4,59,83,4
4,55,83,200
4,59,93,224
4,53,93,8
4,65,93,6
4,59,83,290
4,53,83,6
4,65,83,8
4,60,83,6
4,57,83,360
4,53,93,60
4,59,93,0
4,65,93,4
4,60,93,0
4,45,100,224
4,57,100,10
4,64,100,6
4,33,100,2
4,60,100,8
4,57,100,1462
4,65,100,2
4,38,100,4
4,50,100,6
4,62,100,2
4,59,100,1478
4,28,100,4
4,55,100,2
4,52,100,10
4,64,100,2
4,65,100,1472
4,57,100,4
4,29,100,2
4,60,100,2
4,53,100,6
4,33,100,1468
4,60,100,12
4,64,100,0
4,57,100,0
4,45,100,8
4,50,100,1468
4,65,100,10
4,57,100,2
4,38,100,4
4,62,100,4
4,64,100,1478
4,28,100,0
4,55,100,0
4,59,100,2
4,52,100,8
4,29,100,1466
4,60,100,144
4,53,100,6
4,57,100,10
4,65,100,6
4,29,100,338
4,65,100,174
4,53,100,2
4,60,100,4
4,57,100,8
4,41,100,2
4,67,100,32
4,59,100,2
4,62,100,8
4,55,100,2
4,43,100,2
4,60,100,32
4,81,100,2
4,76,100,6
4,69,100,2
4,81,100,324
4,76,100,6
4,69,100,8
4,60,100,0
4,81,100,322
4,60,100,6
4,69,100,4
4,76,100,4
4,76,100,318
4,60,100,4
4,81,100,14
4,69,100,2
4,77,100,316
4,69,100,8
4,81,100,0
4,62,100,12
4,81,100,322
4,62,100,8
4,69,100,0
4,77,100,6
4,77,100,318
4,81,100,6
4,62,100,0
4,69,100,12
4,69,100,320
4,62,100,6
4,81,100,2
4,77,100,10
4,69,100,318
4,79,100,2
4,64,100,10
4,81,100,2
4,79,100,320
4,69,100,14
4,81,100,2
4,64,100,6
4,81,100,326
4,79,100,4
4,69,100,0
4,64,100,4
4,79,100,322
4,81,100,2
4,69,100,10
4,64,100,4
4,81,100,312
4,77,100,10
4,69,100,2
4,60,100,8
4,77,100,326
4,81,100,2
4,69,100,4
4,60,100,4
4,69,100,324
4,60,100,0
4,77,100,8
4,81,100,4
4,77,100,312
4,81,100,8
4,60,100,4
4,69,100,14
4,81,100,326
4,76,100,0
4,69,100,6
4,60,100,0
4,60,100,326
4,81,100,0
4,69,100,6
4,76,100,10
4,81,100,310
4,60,100,18
4,76,100,2
4,69,100,0
4,81,100,314
4,69,100,2
4,60,100,4
4,76,100,10
4,81,100,328
4,62,100,6
4,77,100,2
4,69,100,0
4,69,100,332
4,81,100,0
4,77,100,4
4,62,100,10
4,77,100,316
4,62,100,6
4,81,100,2
4,69,100,6
4,77,100,326
4,81,100,2
4,69,100,6
4,62,100,8
4,59,100,318
4,55,100,0
4,64,100,20
4,65,100,60
4,60,100,4
4,57,100,2
4,65,100,68
4,60,100,8
4,57,100,6
4,67,100,24
4,62,100,14
4,59,100,0
4,59,100,66
4,62,100,8
4,67,100,4
4,64,109,28
4,67,109,4
4,60,109,10
4,62,109,2
4,59,109,2
4,67,109,0
4,65,109,2
4,69,109,4
4,60,109,2
4,72,109,100
4,77,109,6
4,69,109,10
4,72,109,36
4,69,109,0
4,77,109,2
4,72,109,46
4,67,109,2
4,76,109,2
4,67,109,42
4,72,109,6
4,76,109,4
4,67,104,42
4,74,104,4
4,71,104,4
4,74,104,34
4,67,104,2
4,71,104,10
4,72,104,36
4,65,104,4
4,69,104,10
4,65,104,26
4,72,104,16
4,69,104,6
4,67,104,40
4,71,104,0
4,62,104,8
4,67,104,28
4,60,104,4
4,64,104,16
4,59,114,8
4,67,114,2
4,62,114,0
4,65,104,1524
4,60,104,0
4,69,104,2
4,69,109,98
4,77,109,6
4,72,109,0
4,77,114,4
4,72,114,2
4,69,114,4
4,72,114,34
4,76,114,8
4,67,114,8
4,76,114,38
4,67,114,4
4,72,114,0
4,74,114,36
4,67,114,10
4,71,114,2
4,67,109,40
4,74,109,0
4,71,109,24
4,65,109,32
4,72,109,2
4,69,109,2
4,72,109,38
4,69,109,4
4,65,109,2
4,74,104,44
4,71,104,10
4,67,104,2
4,67,109,36
4,60,109,2
4,64,109,4
4,59,109,0
4,67,109,4
4,62,109,4
4,65,109,1526
4,69,109,0
4,60,109,2
4,69,109,100
4,77,109,2
4,72,109,4
4,72,109,46
4,77,109,2
4,69,109,2
4,67,109,30
4,72,109,20
4,76,109,2
4,72,109,32
4,76,109,2
4,67,109,12
4,74,104,38
4,67,104,4
4,71,104,4
4,71,104,38
4,67,104,4
4,74,104,0
4,72,104,48
4,65,104,10
4,69,104,2
4,69,104,22
4,72,104,6
4,65,104,8
4,71,104,46
4,67,104,4
4,62,104,4
4,67,104,38
4,64,104,2
4,60,104,4
4,59,114,62
4,67,114,0
4,62,114,2
4,65,104,1522
4,60,104,4
4,69,104,0
4,62,127,44
