track,note,velocity,time
1,62,58,28
1,67,64,0
1,71,66,0
1,64,80,80
1,60,80,0
1,62,68,84
1,71,86,0
1,67,58,0
1,64,86,0
1,60,88,0
1,67,86,116
1,62,80,0
1,71,88,0
1,67,74,32
1,64,88,4
1,60,82,0
1,66,76,48
1,69,70,0
1,62,64,0
1,64,84,14504
1,70,84,0
1,72,84,0
1,67,84,0
1,64,84,84
1,70,84,0
1,72,84,0
1,67,84,0
1,72,84,1764
1,64,84,0
1,67,84,0
1,70,84,0
1,70,84,84
1,64,84,0
1,67,84,0
1,72,84,0
1,64,84,1764
1,72,84,0
1,67,84,0
1,70,84,0
1,64,84,84
1,70,84,0
1,67,84,0
1,72,84,0
1,74,80,3304
1,79,86,0
1,83,86,0
1,84,98,4
1,76,88,0
1,74,100,36
1,83,90,0
1,76,88,0
1,79,66,0
1,84,92,0
1,79,72,20
1,83,88,0
1,74,98,0
1,79,60,20
1,76,82,0
1,84,70,0
1,78,68,16
1,74,96,0
1,81,80,0
1,64,84,14148
1,70,84,0
1,72,84,0
1,67,84,0
1,64,84,88
1,70,84,0
1,72,84,0
1,67,84,0
1,72,84,1764
1,64,84,0
1,67,84,0
1,70,84,0
1,70,84,84
1,64,84,0
1,67,84,0
1,72,84,0
1,64,84,1764
1,72,84,0
1,67,84,0
1,70,84,0
1,64,84,88
1,70,84,0
1,67,84,0
1,72,84,0
1,74,80,3304
1,79,86,0
1,83,86,0
1,84,98,4
1,76,88,0
1,74,100,32
1,83,90,4
1,76,88,0
1,79,66,0
1,84,92,0
1,79,72,24
1,83,88,0
1,74,98,0
1,79,60,20
1,76,82,0
1,84,70,0
1,78,68,20
1,74,96,0
1,81,80,0
1,74,80,328
1,79,86,0
1,83,86,0
1,84,98,4
1,76,88,0
1,74,100,32
1,83,90,0
1,76,88,0
1,79,66,0
1,84,92,0
1,66,86,24
1,69,72,0
1,74,86,0
1,74,92,132
1,77,88,0
1,69,82,0
1,71,88,0
1,69,74,68
1,74,92,0
1,66,78,0
1,74,96,148
1,69,86,0
1,71,92,0
1,77,90,0
1,69,74,72
1,74,90,0
1,66,96,0
1,74,96,180
1,69,92,0
1,71,98,0
1,77,98,0
1,67,86,148
1,62,80,0
1,71,88,0
1,67,74,32
1,64,88,0
1,60,82,0
1,66,76,48
1,69,70,0
1,62,64,0
1,67,50,680
1,62,34,0
1,71,46,0
1,70,30,88
1,64,48,0
1,72,34,0
1,71,62,76
1,62,54,0
1,70,52,8
1,64,42,0
1,71,58,0
1,62,56,0
1,72,58,0
1,64,58,0
1,71,58,52
1,62,52,0
1,70,36,40
1,64,42,0
1,64,84,1720
1,70,84,0
1,72,84,0
1,67,84,0
1,64,84,84
1,70,84,0
1,72,84,0
1,67,84,0
1,72,84,1764
1,64,84,0
1,67,84,0
1,70,84,0
1,70,84,84
1,64,84,0
1,67,84,0
1,72,84,0
1,64,84,1764
1,72,84,0
1,67,84,4
1,70,84,0
1,64,84,88
1,70,84,0
1,67,84,0
1,72,84,0
1,74,80,3304
1,79,86,0
1,83,86,0
1,84,98,4
1,76,88,0
1,74,100,36
1,83,90,0
1,76,88,0
1,79,66,0
1,84,92,0
1,79,72,24
1,83,88,0
1,74,98,0
1,79,60,20
1,76,82,0
1,84,70,0
1,78,68,16
1,74,96,0
1,81,80,4
1,74,80,324
1,79,86,4
1,83,86,0
1,84,98,4
1,76,88,0
1,74,100,36
1,83,90,0
1,76,88,0
1,79,66,0
1,84,92,0
1,66,86,20
1,69,72,0
1,74,86,0
1,74,92,132
1,77,88,0
1,69,82,0
1,71,88,0
1,69,74,72
1,74,92,0
1,66,78,0
1,74,96,148
1,69,86,0
1,71,92,0
1,77,90,0
1,69,74,68
1,74,90,0
1,66,96,0
1,74,96,180
1,69,92,0
1,71,98,0
1,77,98,0
1,67,86,148
1,62,80,0
1,71,88,0
1,67,74,36
1,64,88,0
1,60,82,0
1,66,76,48
1,69,70,0
1,62,64,0
1,64,84,2212
1,70,84,0
1,72,84,0
1,67,84,0
1,64,84,80
1,70,84,0
1,72,84,0
1,67,84,0
1,72,84,1764
1,64,84,0
1,67,84,0
1,70,84,0
1,70,84,84
1,64,84,0
1,67,84,0
1,72,84,0
1,64,84,1764
1,72,84,0
1,67,84,0
1,70,84,0
1,64,84,84
1,70,84,0
1,67,84,0
1,72,84,0
1,74,80,3304
1,79,86,0
1,83,86,0
1,84,98,0
1,76,88,0
1,74,100,32
1,83,90,0
1,76,88,0
1,79,66,0
1,84,92,4
1,79,72,20
1,83,88,0
1,74,98,0
1,79,60,24
1,76,82,0
1,84,70,0
1,78,68,20
1,74,96,0
1,81,80,0
1,64,71,14148
1,70,71,0
1,72,71,0
1,67,71,0
1,64,68,84
1,70,68,0
1,72,68,0
1,67,68,0
1,72,47,1764
1,64,47,0
1,67,47,0
1,70,47,0
1,70,44,84
1,64,44,0
1,67,44,0
1,72,44,0
1,64,23,1764
1,72,23,0
1,67,23,0
1,70,23,4
1,64,20,84
1,70,20,0
1,67,20,0
1,72,20,0
2,55,100,1564
2,52,102,208
2,55,78,192
2,48,102,224
2,55,96,340
2,52,102,212
2,55,78,192
2,48,100,224
2,55,100,404
2,52,102,224
2,55,86,192
2,50,108,192
2,50,84,120
2,48,84,324
2,47,84,512
2,45,84,388
2,45,84,84
2,43,94,468
2,43,94,36
2,43,94,32
2,43,94,32
2,41,94,36
2,43,94,36
2,41,94,36
2,43,94,32
2,48,94,36
2,48,94,32
2,50,94,36
2,53,94,36
2,48,94,36
2,48,94,32
2,50,94,36
2,53,94,36
2,43,94,36
2,43,94,32
2,43,94,40
2,43,94,36
2,41,94,32
2,43,94,32
2,41,94,36
2,43,94,36
2,48,94,40
2,48,94,32
2,50,94,36
2,53,94,32
2,48,94,36
2,48,94,32
2,50,94,36
2,53,94,28
2,43,94,40
2,43,94,36
2,43,94,36
2,43,94,32
2,41,94,36
2,43,94,32
2,41,94,32
2,43,94,36
2,48,94,32
2,48,94,36
2,50,94,36
2,53,94,36
2,48,94,36
2,48,94,32
2,50,94,40
2,53,94,28
2,50,94,36
2,50,94,36
2,50,94,36
2,50,94,32
2,50,94,36
2,50,94,36
2,50,94,36
2,50,94,32
2,47,94,36
2,47,94,32
2,48,94,36
2,48,94,36
2,49,94,36
2,49,94,32
2,50,94,28
2,38,94,32
2,43,94,40
2,43,94,28
2,43,94,32
2,43,94,36
2,41,94,36
2,43,94,32
2,41,94,36
2,43,94,36
2,48,94,40
2,48,94,32
2,50,94,32
2,53,94,28
2,48,94,36
2,48,94,36
2,50,94,36
2,53,94,32
2,43,94,36
2,43,94,28
2,43,94,36
2,43,94,32
2,41,94,32
2,43,94,32
2,41,94,36
2,43,94,36
2,48,94,36
2,48,94,32
2,50,94,36
2,53,94,36
2,48,94,40
2,48,94,28
2,50,94,40
2,53,94,32
2,43,94,36
2,43,94,36
2,43,94,36
2,43,94,36
2,41,94,36
2,43,94,36
2,41,94,32
2,43,94,28
2,48,94,40
2,48,94,32
2,50,94,36
2,53,94,36
2,48,94,36
2,48,94,32
2,50,94,40
2,53,94,32
2,50,94,40
2,50,94,36
2,50,94,32
2,50,94,36
2,50,94,36
2,50,94,36
2,50,94,32
2,50,94,36
2,47,94,36
2,47,94,36
2,48,94,36
2,48,94,36
2,49,94,36
2,49,94,28
2,50,94,36
2,38,94,32
2,43,102,40
2,43,94,116
2,43,98,132
2,43,90,48
2,43,90,48
2,41,100,36
2,43,90,8
2,43,94,132
2,43,90,148
2,43,80,52
2,43,76,64
2,41,94,36
2,43,90,20
2,43,86,136
2,43,90,148
2,43,92,48
2,43,92,68
2,41,110,48
2,43,92,36
2,43,96,164
2,43,90,144
2,43,98,52
2,43,88,64
2,41,102,32
2,43,92,36
2,43,88,164
2,43,92,148
2,43,92,64
2,43,94,52
2,41,106,32
2,43,92,36
2,43,94,164
2,43,102,132
2,43,92,100
2,43,88,80
2,43,108,48
2,50,106,40
2,50,120,304
2,50,110,180
2,50,100,304
2,50,114,240
2,48,100,64
2,47,96,36
2,45,96,36
2,43,94,88
2,43,94,36
2,43,94,36
2,43,94,36
2,41,94,32
2,43,94,32
2,41,94,36
2,43,94,32
2,48,94,36
2,48,94,32
2,50,94,36
2,53,94,36
2,48,94,36
2,48,94,32
2,50,94,36
2,53,94,32
2,43,94,36
2,43,94,32
2,43,94,36
2,43,94,36
2,41,94,36
2,43,94,32
2,41,94,36
2,43,94,32
2,48,94,36
2,48,94,36
2,50,94,36
2,53,94,32
2,48,94,36
2,48,94,36
2,50,94,36
2,53,94,32
2,43,94,36
2,43,94,32
2,43,94,36
2,43,94,32
2,41,94,36
2,43,94,32
2,41,94,32
2,43,94,32
2,48,94,40
2,48,94,32
2,50,94,32
2,53,94,36
2,48,94,36
2,48,94,36
2,50,94,36
2,53,94,32
2,50,94,36
2,50,94,32
2,50,94,36
2,50,94,32
2,50,94,40
2,50,94,32
2,50,94,36
2,50,94,32
2,47,94,36
2,47,94,32
2,48,94,36
2,48,94,32
2,49,94,36
2,49,94,36
2,50,94,36
2,38,94,32
2,43,94,36
2,43,94,28
2,43,94,36
2,43,94,32
2,41,94,36
2,43,94,36
2,41,94,36
2,43,94,32
2,48,94,32
2,48,94,32
2,50,94,36
2,53,94,32
2,48,94,40
2,48,94,36
2,50,94,36
2,53,94,32
2,43,94,36
2,43,94,32
2,43,94,36
2,43,94,32
2,41,94,32
2,43,94,36
2,41,94,36
2,43,94,40
2,48,94,36
2,48,94,32
2,50,94,32
2,53,94,28
2,48,94,32
2,48,94,36
2,50,94,32
2,53,94,32
2,43,94,36
2,43,94,36
2,43,94,36
2,43,94,36
2,41,94,32
2,43,94,36
2,41,94,36
2,43,94,36
2,48,94,36
2,48,94,36
2,50,94,36
2,53,94,36
2,48,94,32
2,48,94,36
2,50,94,40
2,53,94,36
2,50,94,36
2,50,94,36
2,50,94,36
2,50,94,32
2,50,94,36
2,50,94,32
2,50,94,36
2,50,94,32
2,47,94,36
2,47,94,36
2,48,94,36
2,48,94,36
2,49,94,36
2,49,94,36
2,50,94,36
2,38,94,36
2,43,102,40
2,43,94,120
2,43,98,128
2,43,90,52
2,43,90,48
2,41,100,32
2,43,90,8
2,43,94,128
2,43,90,144
2,43,80,44
2,43,76,60
2,41,94,32
2,43,90,20
2,43,86,132
2,43,90,148
2,43,92,48
2,43,92,68
2,41,110,48
2,43,92,36
2,43,96,164
2,43,90,148
2,43,98,48
2,43,88,68
2,41,102,32
2,43,92,36
2,43,88,164
2,43,92,156
2,43,92,68
2,43,94,52
2,41,106,28
2,43,92,36
2,43,94,160
2,43,102,132
2,43,92,100
2,43,88,80
2,43,108,48
2,50,106,36
2,50,120,308
2,50,110,180
2,50,100,308
2,50,114,244
2,48,100,64
2,47,96,32
2,45,96,36
2,43,102,84
2,43,94,112
2,43,98,128
2,43,90,52
2,43,90,48
2,41,100,32
2,43,90,8
2,43,94,136
2,43,90,148
2,43,80,48
2,43,76,68
2,41,94,28
2,43,90,24
2,43,86,132
2,43,90,148
2,43,92,52
2,43,92,64
2,41,110,48
2,43,92,40
2,43,96,164
2,43,90,148
2,43,98,52
2,43,88,64
2,41,102,36
2,38,100,36
2,38,90,96
2,38,106,132
2,38,96,48
2,38,102,224
2,41,108,20
2,38,106,52
2,38,86,108
2,38,102,132
2,38,100,32
2,38,108,228
2,41,102,20
2,38,102,52
2,38,92,112
2,38,108,116
2,38,100,48
2,38,106,212
2,41,102,24
2,41,106,136
2,41,106,404
2,41,106,420
2,55,100,264
2,52,102,228
2,55,86,188
2,48,108,188
2,50,84,116
2,48,84,320
2,47,84,512
2,50,100,192
2,45,84,196
2,50,114,84
2,45,84,0
2,48,100,68
2,47,96,32
2,45,96,32
2,43,90,84
2,43,98,384
2,43,96,280
2,43,92,324
2,43,94,372
2,43,94,32
2,43,94,40
2,43,94,36
2,41,94,36
2,43,94,36
2,41,94,32
2,43,94,36
2,48,94,36
2,48,94,32
2,50,94,36
2,53,94,28
2,48,94,36
2,48,94,32
2,50,94,32
2,53,94,32
2,43,94,36
2,43,94,32
2,43,94,36
2,43,94,36
2,41,94,36
2,43,94,36
2,41,94,36
2,43,94,32
2,48,94,36
2,48,94,36
2,50,94,32
2,53,94,36
2,48,94,40
2,48,94,36
2,50,94,36
2,53,94,32
2,43,94,36
2,43,94,36
2,43,94,36
2,43,94,36
2,41,94,40
2,43,94,28
2,41,94,36
2,43,94,36
2,48,94,36
2,48,94,32
2,50,94,40
2,53,94,36
2,48,94,40
2,48,94,32
2,50,94,40
2,53,94,36
2,50,94,40
2,50,94,32
2,50,94,36
2,50,94,36
2,50,94,32
2,50,94,36
2,50,94,36
2,50,94,32
2,47,94,32
2,47,94,36
2,48,94,32
2,48,94,32
2,49,94,36
2,49,94,28
2,50,94,36
2,38,94,32
2,43,102,40
2,43,94,116
2,43,98,140
2,43,90,44
2,43,90,52
2,41,100,32
2,43,90,4
2,43,94,128
2,43,90,148
2,43,80,48
2,43,76,72
2,41,94,32
2,43,90,20
2,43,86,132
2,43,90,148
2,43,92,48
2,43,92,64
2,41,110,56
2,43,92,44
2,43,96,164
2,43,90,144
2,43,98,48
2,43,88,68
2,41,102,40
2,43,92,36
2,43,88,168
2,43,92,148
2,43,92,68
2,43,94,52
2,41,106,36
2,43,92,36
2,43,94,164
2,43,102,128
2,43,92,92
2,43,88,80
2,43,108,44
2,50,106,40
2,50,120,308
2,50,110,180
2,50,100,304
2,50,114,244
2,48,100,64
2,47,96,32
2,45,96,32
2,43,102,84
2,43,94,116
2,43,98,132
2,43,90,52
2,43,90,48
2,41,100,32
2,43,90,4
2,43,94,132
2,43,90,148
2,43,80,44
2,43,76,68
2,41,94,32
2,43,90,20
2,43,86,132
2,43,90,144
2,43,92,52
2,43,92,68
2,41,110,52
2,43,92,36
2,43,96,164
2,43,90,148
2,43,98,48
2,43,88,64
2,41,102,32
2,38,100,40
2,38,90,96
2,38,106,132
2,38,96,48
2,38,102,232
2,41,108,16
2,38,106,52
2,38,86,116
2,38,102,132
2,38,100,36
2,38,108,228
2,41,102,20
2,38,102,52
2,38,92,112
2,38,108,116
2,38,100,52
2,38,106,212
2,41,102,20
2,41,106,132
2,41,106,404
2,41,106,420
2,55,100,260
2,52,102,224
2,55,86,196
2,48,108,196
2,50,84,116
2,48,84,324
2,47,84,512
2,50,100,192
2,45,84,196
2,50,114,84
2,45,84,0
2,48,100,64
2,47,96,36
2,45,96,32
2,43,94,88
2,43,94,36
2,43,94,40
2,43,94,40
2,41,94,36
2,43,94,36
2,41,94,40
2,43,94,36
2,48,94,40
2,48,94,32
2,50,94,36
2,53,94,32
2,48,94,40
2,48,94,28
2,50,94,40
2,53,94,36
2,43,94,36
2,43,94,32
2,43,94,32
2,43,94,32
2,41,94,36
2,43,94,36
2,41,94,36
2,43,94,36
2,48,94,40
2,48,94,36
2,50,94,36
2,53,94,36
2,48,94,40
2,48,94,32
2,50,94,36
2,53,94,40
2,43,94,40
2,43,94,32
2,43,94,36
2,43,94,28
2,41,94,36
2,43,94,36
2,41,94,32
2,43,94,36
2,48,94,40
2,48,94,36
2,50,94,36
2,53,94,36
2,48,94,36
2,48,94,28
2,50,94,32
2,53,94,32
2,50,94,36
2,50,94,36
2,50,94,32
2,50,94,36
2,50,94,36
2,50,94,32
2,50,94,32
2,50,94,28
2,47,94,32
2,47,94,32
2,48,94,36
2,48,94,32
2,49,94,36
2,49,94,32
2,50,94,36
2,38,94,32
2,43,102,40
2,43,94,116
2,43,98,132
2,43,90,48
2,43,90,44
2,41,100,36
2,43,90,8
2,43,94,132
2,43,90,148
2,43,80,52
2,43,76,64
2,41,94,32
2,43,90,20
2,43,86,132
2,43,90,148
2,43,92,48
2,43,92,64
2,41,110,44
2,43,92,36
2,43,96,164
2,43,90,148
2,43,98,52
2,43,88,68
2,41,102,32
2,43,92,36
2,43,88,164
2,43,92,148
2,43,92,64
2,43,94,48
2,41,106,36
2,43,92,32
2,43,94,164
