track,note,velocity,time
1,33,103,1942
1,33,111,4
1,33,111,4
1,33,111,4
1,33,111,4
1,33,111,4
1,33,111,4
1,33,111,4
1,33,111,4
1,33,111,4
1,33,111,4
1,33,111,4
1,33,111,4
1,33,110,4
1,33,110,4
1,33,110,4
1,33,110,4
1,33,110,4
1,33,110,4
1,33,110,4
1,33,110,4
1,33,110,4
1,33,110,4
1,33,110,4
1,33,110,4
1,31,110,288
1,33,110,38
1,33,110,88
1,33,110,94
1,33,110,64
1,38,110,12
1,38,110,74
1,40,110,26
1,40,110,86
1,33,110,32
1,33,110,88
1,33,109,88
1,33,109,100
1,33,109,66
1,38,109,96
1,38,109,88
1,40,109,36
1,40,109,98
1,33,109,78
1,33,109,94
1,33,109,72
1,33,109,106
1,33,109,72
1,38,109,96
1,38,109,92
1,38,109,88
1,40,109,6
1,40,109,86
1,33,109,50
1,33,109,102
1,33,109,40
1,33,109,114
1,33,109,76
1,33,109,52
1,33,109,78
1,33,109,128
1,33,108,66
1,33,105,52
1,33,118,70
1,33,118,96
1,33,123,82
1,33,121,110
1,33,105,58
1,33,105,70
1,33,105,98
1,33,105,76
1,37,105,192
1,40,105,24
1,37,105,192
1,38,105,188
1,38,105,66
1,38,105,86
1,38,105,50
1,38,105,62
1,38,105,74
1,38,105,68
1,38,105,78
1,38,105,56
1,38,105,76
1,33,105,68
1,33,105,100
1,33,105,72
1,33,105,56
1,33,105,110
1,33,105,86
1,33,105,100
1,33,105,120
1,33,105,62
1,40,105,4
1,37,105,192
1,35,105,42
1,35,105,84
1,35,105,84
1,35,105,54
1,35,105,86
1,40,105,96
1,40,105,108
1,40,105,78
1,40,105,40
1,40,105,162
1,33,114,130
1,33,114,4
1,33,114,4
1,33,114,4
1,33,114,4
1,33,114,4
1,33,114,4
1,33,114,4
1,38,114,4
1,38,114,4
1,38,114,4
1,38,113,4
1,40,113,4
1,40,113,4
1,40,113,4
1,40,113,4
1,33,113,4
1,33,113,4
1,33,113,4
1,33,113,4
1,33,113,4
1,33,113,4
1,33,113,4
1,33,113,4
1,38,113,4
1,38,113,4
1,38,113,4
1,38,113,4
1,40,113,4
1,40,113,4
1,40,113,4
1,40,113,4
1,33,113,4
1,33,113,4
1,33,112,4
1,33,112,4
1,33,112,4
1,33,112,4
1,33,112,4
1,33,112,4
1,38,112,4
1,38,112,4
1,38,112,4
1,38,112,4
1,40,112,4
1,40,112,4
1,40,112,4
1,40,112,4
1,33,112,4
1,33,112,4
1,33,112,4
1,33,112,4
1,33,112,4
1,33,112,4
1,33,112,4
1,33,112,4
1,33,112,4
1,33,112,4
1,33,111,4
1,33,111,4
1,33,111,4
1,33,111,4
1,33,111,4
1,33,111,4
1,33,110,114
1,31,110,288
1,33,110,38
1,33,110,88
1,33,110,94
1,33,110,64
1,38,110,12
1,38,110,74
1,40,110,26
1,40,110,86
1,33,110,32
1,33,110,88
1,33,109,88
1,33,109,100
1,33,109,66
1,38,109,96
1,38,109,88
1,40,109,36
1,40,109,98
1,33,109,78
1,33,109,94
1,33,109,72
1,33,109,106
1,33,109,72
1,38,109,96
1,38,109,92
1,38,109,88
1,40,109,6
1,40,109,86
1,33,109,50
1,33,109,102
1,33,109,40
1,33,109,114
1,33,109,76
1,33,109,52
1,33,109,78
1,33,109,128
1,33,108,66
1,33,105,52
1,33,118,70
1,33,118,96
1,33,123,82
1,33,121,110
1,33,105,58
1,33,105,70
1,33,105,98
1,33,105,76
1,37,105,192
1,40,105,24
1,37,105,192
1,38,105,188
1,38,105,66
1,38,105,86
1,38,105,50
1,38,105,62
1,38,105,74
1,38,105,68
1,38,105,78
1,38,105,56
1,38,105,76
1,33,105,68
1,33,105,100
1,33,105,72
1,33,105,56
1,33,105,110
1,33,105,86
1,33,105,100
1,33,105,120
1,33,105,62
1,40,105,4
1,37,105,192
1,35,105,42
1,35,105,84
1,35,105,84
1,35,105,54
1,35,105,86
1,40,105,96
1,40,105,108
1,40,105,78
1,40,105,40
1,40,105,162
1,33,114,130
1,33,114,4
1,33,114,4
1,33,114,4
1,33,114,4
1,33,114,4
1,33,114,4
1,33,114,4
1,38,114,4
1,38,114,4
1,38,114,4
1,38,113,4
1,40,113,4
1,40,113,4
1,40,113,4
1,40,113,4
1,33,113,4
1,33,113,4
1,33,113,4
1,33,113,4
1,33,113,4
1,33,113,4
1,33,113,4
1,33,113,4
1,38,113,4
1,38,113,4
1,38,113,4
1,38,113,4
1,40,113,4
1,40,113,4
1,40,113,4
1,40,113,4
1,33,113,4
1,33,113,4
1,33,112,4
1,33,112,4
1,33,112,4
1,33,112,4
1,33,112,4
1,33,112,4
1,38,112,4
1,38,112,4
1,38,112,4
1,38,112,4
1,40,112,4
1,40,112,4
1,40,112,4
1,40,112,4
1,33,112,4
1,33,112,4
1,33,112,4
1,33,112,4
1,33,112,4
1,33,112,4
1,33,112,4
1,33,112,4
1,33,112,4
1,33,112,4
1,33,111,4
1,33,111,4
1,33,111,4
1,33,111,4
1,33,111,4
1,33,111,4
1,33,112,114
1,33,112,4
1,33,112,4
1,33,112,4
1,33,112,4
1,33,112,4
1,33,112,4
1,33,112,4
1,33,112,4
1,33,112,4
1,33,111,4
1,33,111,4
1,33,111,4
1,33,111,4
1,33,111,4
1,33,111,4
1,33,118,114
1,33,118,96
1,33,123,82
1,33,121,110
1,33,105,58
1,33,105,70
1,33,105,98
1,33,105,76
1,37,105,192
1,40,105,24
1,37,105,192
1,38,105,188
1,38,105,66
1,38,105,86
1,38,105,50
1,38,105,62
1,38,105,74
1,38,105,68
1,38,105,78
1,38,105,56
1,38,105,76
1,33,105,68
1,33,105,100
1,33,105,72
1,33,105,56
1,33,105,110
1,33,105,86
1,33,105,100
1,33,105,120
1,33,105,62
1,40,105,4
1,37,105,192
1,35,105,42
1,35,105,84
1,35,105,84
1,35,105,54
1,35,105,86
1,40,105,96
1,40,105,108
1,40,105,78
1,40,105,40
1,40,105,162
1,33,114,130
1,33,114,4
1,33,114,4
1,33,114,4
1,33,114,4
1,33,114,4
1,33,114,4
1,33,114,4
1,38,114,4
1,38,114,4
1,38,114,4
1,38,113,4
1,40,113,4
1,40,113,4
1,40,113,4
1,40,113,4
1,33,113,4
1,33,113,4
1,33,113,4
1,33,113,4
1,33,113,4
1,33,113,4
1,33,113,4
1,33,113,4
1,38,113,4
1,38,113,4
1,38,113,4
1,38,113,4
1,40,113,4
1,40,113,4
1,40,113,4
1,40,113,4
1,33,113,4
1,33,113,4
1,33,112,4
1,33,112,4
1,33,112,4
1,33,112,4
1,33,112,4
1,33,112,4
1,38,112,4
1,38,112,4
1,38,112,4
1,38,112,4
1,40,112,4
1,40,112,4
1,40,112,4
1,40,112,4
1,33,112,4
1,33,112,4
1,33,112,4
1,33,112,4
1,33,112,4
1,33,112,4
1,33,112,4
1,33,112,4
1,33,112,4
1,33,112,4
1,33,111,4
1,33,111,4
1,33,111,4
1,33,111,4
1,33,111,4
1,33,111,4
1,33,114,114
1,33,114,4
1,33,114,4
1,33,114,4
1,33,114,4
1,33,114,4
1,33,114,4
1,33,114,4
1,38,114,4
1,38,114,4
1,38,114,4
1,38,113,4
1,40,113,4
1,40,113,4
1,40,113,4
1,40,113,4
1,33,113,4
1,33,113,4
1,33,113,4
1,33,113,4
1,33,113,4
1,33,113,4
1,33,113,4
1,33,113,4
1,38,113,4
1,38,113,4
1,38,113,4
1,38,113,4
1,40,113,0
1,40,113,4
1,40,113,4
1,40,113,0
1,33,113,4
1,33,113,0
1,33,112,4
1,33,112,4
1,33,112,4
1,33,112,4
1,33,112,4
1,33,112,4
1,38,112,4
1,38,112,4
1,38,112,4
1,38,112,4
1,40,112,4
1,40,112,4
1,40,112,4
1,40,112,4
1,33,112,4
1,33,112,4
1,33,112,4
1,33,112,4
1,33,112,4
1,33,112,0
1,33,112,4
1,33,112,0
1,33,112,4
1,33,112,4
1,33,111,0
1,33,111,4
1,33,111,0
1,33,111,4
1,33,111,4
2,73,119,2008
2,64,104,0
2,69,117,0
2,64,104,12
2,69,102,0
2,74,106,0
2,64,97,86
2,73,119,0
2,69,117,0
2,73,116,368
2,69,108,0
2,64,97,0
2,64,104,88
2,69,108,0
2,74,112,0
2,69,106,136
2,64,97,0
2,73,104,0
2,64,102,384
2,73,119,0
2,69,108,0
2,74,112,98
2,64,108,0
2,69,110,0
2,73,104,146
2,64,102,0
2,69,114,0
2,69,110,608
2,64,102,0
2,73,116,0
2,69,112,302
2,62,94,0
2,66,104,0
2,68,116,108
2,71,117,0
2,64,91,0
2,69,110,242
2,73,119,0
2,64,95,0
2,62,98,222
2,66,101,0
2,69,106,0
2,68,110,138
2,64,91,0
2,71,106,0
2,73,113,228
2,64,97,0
2,69,112,0
2,62,94,256
2,66,104,0
2,69,106,0
2,64,95,186
2,71,108,0
2,68,116,0
2,64,95,272
2,69,106,0
2,73,110,0
2,69,114,134
2,74,110,0
2,64,106,0
2,64,97,162
2,69,112,0
2,73,113,0
2,64,80,202
2,69,98,0
2,73,95,0
2,73,99,64
2,64,83,0
2,69,95,0
2,69,92,64
2,64,80,0
2,73,99,0
2,73,99,64
2,69,94,0
2,64,81,0
2,67,100,64
2,64,78,0
2,73,101,0
2,67,91,64
2,64,80,0
2,73,99,0
2,67,83,64
2,73,99,0
2,64,76,0
2,67,91,64
2,64,78,0
2,73,95,0
2,66,78,64
2,69,91,0
2,62,80,0
2,66,85,64
2,62,84,0
2,69,95,0
2,69,91,64
2,66,75,0
2,62,83,0
2,62,84,64
2,66,74,0
2,69,86,0
2,69,94,64
2,65,84,0
2,62,85,0
2,65,73,64
2,62,78,0
2,69,83,0
2,65,80,64
2,62,83,0
2,69,90,0
2,62,84,64
2,69,90,0
2,65,80,0
2,61,77,64
2,64,84,0
2,69,92,0
2,61,70,64
2,64,74,0
2,69,91,0
2,69,88,64
2,64,80,0
2,61,70,0
2,61,68,64
2,64,79,0
2,69,90,0
2,61,77,64
2,64,81,0
2,69,91,0
2,69,95,64
2,64,85,0
2,61,79,0
2,61,71,64
2,64,80,0
2,69,86,0
2,64,85,64
2,61,68,0
2,69,92,0
2,71,84,64
2,62,85,0
2,66,84,0
2,71,79,64
2,66,84,0
2,62,80,0
2,62,84,64
2,71,80,0
2,66,84,0
2,71,81,64
2,66,87,0
2,62,84,0
2,64,87,64
2,68,82,0
2,71,80,0
2,64,85,64
2,68,89,0
2,71,78,0
2,71,80,64
2,64,86,0
2,68,87,0
2,64,87,64
2,71,80,0
2,68,87,0
2,64,88,166
2,61,78,0
2,69,100,0
2,69,100,150
2,64,88,0
2,61,84,0
2,64,91,158
2,61,85,0
2,69,102,0
2,61,91,168
2,69,104,0
2,64,95,0
2,62,91,174
2,66,95,0
2,69,97,0
2,69,95,132
2,66,89,0
2,62,90,0
2,68,77,164
2,64,92,0
2,71,94,0
2,64,90,160
2,68,85,0
2,71,92,0
2,69,100,184
2,61,77,0
2,64,91,0
2,61,82,158
2,64,91,0
2,69,98,0
2,61,87,174
2,69,102,0
2,64,90,0
2,69,102,186
2,61,87,0
2,64,95,0
2,66,93,180
2,62,95,0
2,69,98,0
2,69,98,140
2,66,93,0
2,62,95,0
2,64,91,150
2,71,97,0
2,68,82,0
2,71,92,152
2,68,89,0
2,64,87,0
2,61,81,168
2,64,94,0
2,69,102,0
2,64,94,186
2,61,84,0
2,69,104,0
2,61,85,198
2,69,102,0
2,64,94,0
2,69,106,186
2,64,95,0
2,61,89,0
2,66,93,176
2,69,100,0
2,62,95,0
2,62,88,142
2,66,91,0
2,69,98,0
2,68,84,200
2,71,94,0
2,64,94,0
2,71,88,196
2,68,87,0
2,64,90,0
2,61,82,252
2,69,98,0
2,64,83,0
2,61,78,188
2,69,98,0
2,64,90,0
2,64,94,172
2,61,84,0
2,69,102,0
2,64,95,154
2,61,85,0
2,69,100,0
2,69,97,188
2,61,81,0
2,64,95,0
2,64,91,196
2,61,85,0
2,69,98,0
2,61,84,148
2,69,100,0
2,64,94,0
2,64,94,170
2,61,89,0
2,69,102,0
2,73,116,200
2,69,110,0
2,64,102,0
2,69,112,302
2,66,104,0
2,62,94,0
2,64,91,108
2,71,117,0
2,68,116,0
2,64,95,242
2,69,110,0
2,73,119,0
2,66,101,222
2,69,106,0
2,62,98,0
2,64,91,138
2,68,110,0
2,71,106,0
2,73,113,228
2,69,112,0
2,64,97,0
2,62,94,256
2,66,104,0
2,69,106,0
2,64,95,186
2,71,108,0
2,68,116,0
2,73,110,272
2,69,106,0
2,64,95,0
2,69,114,134
2,64,106,0
2,74,110,0
2,73,113,162
2,69,112,0
2,64,97,0
2,64,80,202
2,73,95,0
2,69,98,0
2,73,99,64
2,64,83,0
2,69,95,0
2,69,92,64
2,64,80,0
2,73,99,0
2,64,81,64
2,69,94,0
2,73,99,0
2,73,101,64
2,67,100,0
2,64,78,0
2,64,80,64
2,67,91,0
2,73,99,0
2,64,76,64
2,73,99,0
2,67,83,0
2,67,91,64
2,64,78,0
2,73,95,0
2,66,78,64
2,62,80,0
2,69,91,0
2,62,84,64
2,69,95,0
2,66,85,0
2,69,91,64
2,66,75,0
2,62,83,0
2,66,74,64
2,69,86,0
2,62,84,0
2,65,84,64
2,69,94,0
2,62,85,0
2,62,78,64
2,65,73,0
2,69,83,0
2,62,83,64
2,69,90,0
2,65,80,0
2,62,84,64
2,69,90,0
2,65,80,0
2,64,84,64
2,61,77,0
2,69,92,0
2,64,74,64
2,69,91,0
2,61,70,0
2,61,70,64
2,64,80,0
2,69,88,0
2,61,68,64
2,69,90,0
2,64,79,0
2,69,91,64
2,61,77,0
2,64,81,0
2,69,95,64
2,61,79,0
2,64,85,0
2,61,71,64
2,69,86,0
2,64,80,0
2,64,85,64
2,69,92,0
2,61,68,0
2,66,84,64
2,62,85,0
2,71,84,0
2,62,80,64
2,66,84,0
2,71,79,0
2,62,84,64
2,71,80,0
2,66,84,0
2,62,84,64
2,71,81,0
2,66,87,0
2,68,82,64
2,71,80,0
2,64,87,0
2,64,85,64
2,68,89,0
2,71,78,0
2,64,86,64
2,68,87,0
2,71,80,0
2,64,87,64
2,68,87,0
2,71,80,0
2,69,100,166
2,64,88,0
2,61,78,0
2,64,88,150
2,61,84,0
2,69,100,0
2,69,102,158
2,61,85,0
2,64,91,0
2,61,91,168
2,64,95,0
2,69,104,0
2,62,91,174
2,66,95,0
2,69,97,0
2,62,90,132
2,66,89,0
2,69,95,0
2,64,92,164
2,71,94,0
2,68,77,0
2,68,85,160
2,64,90,0
2,71,92,0
2,64,91,184
2,61,77,0
2,69,100,0
2,61,82,158
2,69,98,0
2,64,91,0
2,61,87,174
2,64,90,0
2,69,102,0
2,64,95,186
2,69,102,0
2,61,87,0
2,62,95,180
2,66,93,0
2,69,98,0
2,66,93,140
2,62,95,0
2,69,98,0
2,64,91,150
2,71,97,0
2,68,82,0
2,68,89,152
2,71,92,0
2,64,87,0
2,69,102,168
2,61,81,0
2,64,94,0
2,61,84,186
2,64,94,0
2,69,104,0
2,69,102,198
2,64,94,0
2,61,85,0
2,69,106,186
2,61,89,0
2,64,95,0
2,69,100,176
2,66,93,0
2,62,95,0
2,69,98,142
2,66,91,0
2,62,88,0
2,68,84,200
2,64,94,0
2,71,94,0
2,71,88,196
2,68,87,0
2,64,90,0
2,61,125,252
2,69,120,0
2,73,125,0
2,64,110,0
2,62,122,154
2,69,125,0
2,74,125,0
2,64,108,210
2,61,116,0
2,73,125,0
2,69,125,0
2,62,122,182
2,69,122,0
2,74,125,0
2,61,119,214
2,69,117,0
2,73,123,0
2,64,98,0
2,62,117,242
2,69,117,0
2,74,114,0
2,61,119,266
2,64,106,0
2,73,125,0
2,69,122,0
2,69,120,312
2,62,125,0
2,74,122,0
2,35,53,56
2,36,55,10
2,38,62,34
2,40,68,28
2,41,74,22
2,43,78,18
2,45,82,18
2,47,86,16
2,48,90,18
2,50,94,16
2,52,97,14
2,53,101,16
2,55,104,14
2,57,108,12
