track,note,velocity,time
1,62,87,25248
1,69,87,0
1,62,0,84
1,69,0,0
1,72,95,12
1,65,87,2
1,65,0,165
1,72,0,4
1,65,79,19
1,72,87,2
1,65,0,79
1,72,0,5
1,74,95,6
1,67,79,11
1,74,0,148
1,67,0,32
1,76,95,6
1,67,87,15
1,76,0,141
1,67,0,3
1,60,96,127
1,67,106,3
1,64,96,0
1,64,0,97
1,60,0,4
1,67,0,5
1,72,105,84
1,67,96,1
1,64,110,2
1,72,0,119
1,64,0,2
1,67,0,26
1,69,107,44
1,65,108,1
1,62,114,1
1,65,0,57
1,62,0,7
1,69,0,4
1,64,93,26
1,67,121,2
1,72,118,0
1,67,0,222
1,64,0,3
1,72,0,2
1,69,96,152
1,64,95,5
1,72,109,0
1,72,0,67
1,69,0,13
1,64,0,0
1,72,113,11
1,69,91,0
1,64,96,5
1,64,0,62
1,72,0,8
1,69,0,13
1,74,98,9
1,67,108,2
1,62,118,2
1,74,0,162
1,67,0,6
1,62,0,0
1,65,96,20
1,76,108,2
1,60,109,10
1,76,0,124
1,74,96,12
1,74,0,41
1,72,98,5
1,65,0,24
1,60,0,10
1,72,0,46
1,72,102,113
1,76,117,2
1,67,106,2
1,76,0,95
1,72,0,8
1,67,0,3
1,67,107,82
1,76,116,1
1,72,96,2
1,67,0,82
1,72,0,3
1,76,0,4
1,69,115,1
1,65,108,0
1,74,116,2
1,65,0,140
1,69,0,4
1,74,0,11
1,67,109,37
1,72,110,0
1,64,103,1
1,72,0,154
1,67,0,6
1,64,0,0
1,65,101,22
1,69,104,1
1,60,91,1
1,69,0,75
1,65,0,10
1,60,0,3
1,72,106,7
1,69,114,5
1,65,109,12
1,72,0,126
1,69,0,7
1,65,0,9
1,65,108,38
1,74,108,1
1,69,101,0
1,74,0,192
1,72,94,4
1,65,0,80
1,69,0,34
1,72,0,9
1,69,116,64
1,74,118,2
1,69,0,76
1,74,0,1
1,76,104,18
1,72,108,2
1,67,108,2
1,67,0,160
1,76,0,4
1,72,0,0
1,72,126,27
1,67,118,1
1,76,124,0
1,72,0,137
1,76,0,2
1,67,0,3
1,72,114,45
1,67,115,1
1,76,104,3
1,72,0,77
1,76,0,1
1,67,0,2
1,69,113,12
1,74,115,1
1,65,104,1
1,65,0,83
1,74,0,4
1,69,0,1
1,67,123,7
1,72,126,2
1,64,126,2
1,67,0,149
1,72,0,2
1,64,0,4
1,69,116,32
1,65,124,3
1,74,116,1
1,74,0,155
1,69,0,1
1,65,0,0
1,74,106,35
1,65,102,2
1,69,95,0
1,74,0,130
1,69,0,10
1,65,0,11
1,64,109,37
1,67,89,0
1,76,102,1
1,76,0,46
1,74,97,3
1,72,122,47
1,74,0,2
1,67,0,73
1,64,0,23
1,72,0,59
1,72,107,36
1,60,107,1
1,65,100,1
1,72,0,63
1,65,0,14
1,60,0,9
1,67,92,5
1,76,95,3
1,60,98,0
1,76,0,366
1,60,0,8
1,67,0,2
1,69,87,15360
1,62,87,0
1,69,0,84
1,62,0,0
1,72,95,12
1,65,87,2
1,65,0,165
1,72,0,4
1,65,79,19
1,72,87,2
1,65,0,79
1,72,0,5
1,74,95,6
1,67,79,11
1,74,0,148
1,67,0,32
1,76,95,6
1,67,87,15
1,76,0,141
1,67,0,3
1,60,98,129
1,67,104,1
1,64,99,2
1,67,0,101
1,60,0,1
1,64,0,0
1,67,100,85
1,64,117,1
1,72,111,1
1,64,0,119
1,72,0,4
1,67,0,32
1,65,114,38
1,69,106,1
1,62,118,1
1,65,0,54
1,62,0,6
1,69,0,6
1,72,117,26
1,64,97,1
1,67,126,3
1,67,0,225
1,72,0,2
1,64,0,1
1,72,106,154
1,69,96,1
1,64,89,1
1,72,0,67
1,69,0,8
1,64,0,3
1,64,91,17
1,69,100,0
1,72,106,1
1,64,0,70
1,72,0,0
1,69,0,9
1,74,108,12
1,62,115,1
1,67,117,3
1,74,0,156
1,62,0,14
1,67,0,1
1,76,109,18
1,65,97,2
1,60,100,9
1,76,0,133
1,74,89,2
1,72,94,49
1,74,0,2
1,65,0,28
1,60,0,5
1,72,0,51
1,76,106,107
1,72,110,1
1,67,108,1
1,76,0,97
1,72,0,8
1,67,0,1
1,72,102,83
1,67,102,1
1,76,118,0
1,67,0,84
1,72,0,6
1,69,108,2
1,76,0,2
1,65,107,0
1,74,115,1
1,69,0,137
1,65,0,4
1,74,0,12
1,72,108,40
1,67,100,2
1,64,108,1
1,72,0,150
1,67,0,1
1,64,0,4
1,65,101,24
1,60,96,2
1,69,96,0
1,69,0,70
1,65,0,15
1,60,0,5
1,72,114,6
1,69,107,1
1,65,112,10
1,72,0,132
1,69,0,7
1,65,0,6
1,69,101,39
1,65,114,1
1,74,112,4
1,72,98,192
1,74,0,5
1,65,0,70
1,69,0,39
1,72,0,3
1,69,113,74
1,74,116,0
1,74,0,73
1,69,0,8
1,72,104,11
1,67,114,3
1,76,109,1
1,72,0,156
1,67,0,6
1,76,0,2
1,72,118,26
1,67,124,3
1,76,117,0
1,67,0,142
1,72,0,2
1,76,0,2
1,72,105,43
1,67,109,3
1,76,110,0
1,76,0,71
1,67,0,6
1,72,0,1
1,69,112,13
1,65,118,5
1,74,115,0
1,74,0,77
1,69,0,1
1,65,0,8
1,64,115,5
1,72,116,0
1,67,116,5
1,64,0,152
1,72,0,0
1,67,0,2
1,69,126,34
1,74,116,1
1,65,124,1
1,74,0,151
1,69,0,5
1,65,0,2
1,69,100,32
1,74,102,1
1,65,106,1
1,74,0,132
1,69,0,16
1,65,0,3
1,67,92,40
1,76,90,1
1,64,97,1
1,76,0,40
1,74,103,5
1,72,124,50
1,74,0,1
1,67,0,75
1,64,0,27
1,72,0,48
1,57,110,10123
1,65,110,0
1,69,110,0
1,57,0,165
1,65,0,0
1,69,0,0
1,65,110,27
1,69,110,2
1,57,118,1
1,69,0,53
1,57,0,1
1,65,0,7
1,59,110,24
1,71,109,3
1,67,109,0
1,71,0,420
1,59,0,8
1,67,0,1
1,69,93,143
1,65,89,1
1,57,96,2
1,57,0,80
1,69,0,2
1,65,0,4
1,69,93,10
1,65,92,1
1,57,91,0
1,69,0,71
1,65,0,0
1,57,0,9
1,67,89,19
1,57,75,1
1,71,101,2
1,57,0,175
1,59,91,4
1,59,0,199
1,67,0,17
1,71,0,31
1,69,100,148
1,57,102,2
1,65,103,1
1,69,0,47
1,65,0,1
1,57,0,6
1,65,114,35
1,69,110,4
1,57,108,1
1,57,0,68
1,69,0,1
1,65,0,6
1,69,89,16
1,65,91,4
1,57,88,11
1,65,0,24
1,69,0,3
1,57,0,7
1,59,107,46
1,71,109,0
1,67,106,3
1,67,0,61
1,59,0,7
1,71,0,0
1,59,97,36
1,67,107,2
1,71,104,0
1,71,0,128
1,59,0,1
1,67,0,0
1,60,103,240
1,57,108,0
1,69,107,1
1,57,0,76
1,60,0,2
1,69,0,3
1,57,101,18
1,60,98,2
1,69,104,0
1,69,0,62
1,57,0,1
1,60,0,0
1,69,100,16
1,57,100,13
1,72,91,1
1,62,116,8
1,72,0,358
1,77,108,19
1,77,0,347
1,79,93,41
1,79,0,448
1,79,96,30
1,62,0,78
1,64,102,18
1,79,0,80
1,77,104,15
1,76,107,47
1,77,0,1
1,64,0,4
1,62,98,42
1,76,0,2
1,74,98,13
1,69,0,59
1,62,0,13
1,57,0,2
1,74,0,2
1,60,99,8
1,67,96,2
1,64,98,0
1,60,0,95
1,67,0,0
1,64,0,9
1,67,99,84
1,72,112,1
1,64,115,3
1,72,0,114
1,64,0,6
1,67,0,29
1,65,115,38
1,62,107,4
1,69,111,1
1,65,0,51
1,69,0,9
1,62,0,7
1,64,89,24
1,72,117,1
1,67,124,2
1,64,0,223
1,72,0,2
1,67,0,4
1,69,99,152
1,72,100,3
1,64,92,1
1,72,0,70
1,69,0,14
1,64,0,0
1,72,113,10
1,64,99,0
1,69,100,1
1,64,0,71
1,72,0,2
1,69,0,3
1,74,98,18
1,62,111,1
1,67,111,0
1,74,0,165
1,62,0,6
1,67,0,4
1,65,97,15
1,76,115,3
1,60,102,9
1,76,0,125
1,74,88,12
1,72,93,43
1,74,0,5
1,65,0,29
1,60,0,5
1,72,0,52
1,76,106,105
1,72,105,1
1,67,105,3
1,76,0,96
1,72,0,2
1,67,0,4
1,76,110,86
1,72,103,0
1,67,96,1
1,67,0,84
1,72,0,4
1,69,112,3
1,76,0,1
1,74,106,1
1,65,110,2
1,65,0,134
1,69,0,9
1,74,0,6
1,72,98,43
1,64,103,4
1,67,104,0
1,72,0,152
1,64,0,0
1,67,0,3
1,69,108,24
1,60,93,1
1,65,96,2
1,69,0,76
1,60,0,8
1,65,0,3
1,69,106,7
1,72,109,4
1,65,114,12
1,72,0,123
1,69,0,13
1,65,0,11
1,74,105,33
1,65,105,4
1,69,94,0
1,72,89,192
1,74,0,5
1,65,0,76
1,69,0,35
1,72,0,1
1,69,115,75
1,74,104,0
1,69,0,72
1,74,0,5
1,72,107,18
1,67,109,1
1,76,106,0
1,72,0,105
1,67,0,8
1,76,0,21
1,67,103,59
1,76,107,1
1,72,107,1
1,67,0,98
1,72,0,9
1,76,0,16
1,76,103,64
1,72,102,2
1,67,97,2
1,67,0,81
1,76,0,8
1,72,0,1
1,65,105,2
1,74,114,1
1,69,114,1
1,69,0,81
1,74,0,2
1,65,0,7
1,64,116,8
1,67,115,0
1,72,106,1
1,72,0,148
1,67,0,3
1,64,0,5
1,65,116,33
1,69,115,0
1,74,97,3
1,74,0,135
1,69,0,7
1,65,0,4
1,65,126,44
1,74,110,1
1,69,117,0
1,74,0,132
1,65,0,3
1,69,0,3
1,69,114,51
1,65,105,2
1,76,99,2
1,65,0,37
1,69,0,7
1,67,117,1
1,74,108,0
1,64,106,1
1,76,0,3
1,67,0,39
1,64,0,0
1,65,116,5
1,72,108,1
1,62,124,0
1,74,0,2
1,65,0,100
1,62,0,1
1,72,0,1
1,62,98,86
1,65,96,2
1,69,99,0
1,65,0,85
1,69,0,0
1,62,0,1
1,67,126,7
1,72,103,1
1,64,107,3
1,72,0,714
1,64,0,16
1,67,0,26
1,60,99,777
1,64,98,2
1,67,96,0
1,60,0,95
1,67,0,0
1,64,0,9
1,67,99,84
1,72,112,1
1,64,115,3
1,72,0,114
1,64,0,6
1,67,0,29
1,65,115,38
1,62,107,4
1,69,111,1
1,65,0,50
1,69,0,9
1,62,0,7
1,64,89,24
1,72,117,1
1,67,124,2
1,64,0,124
1,72,0,2
1,67,0,4
1,69,99,90
1,72,100,3
1,64,92,1
1,72,0,70
1,69,0,14
1,64,0,0
1,72,113,10
1,64,99,0
1,69,100,1
1,64,0,68
1,72,0,2
1,69,0,3
1,74,98,18
1,62,111,1
1,67,111,0
1,74,0,65
1,62,0,6
1,67,0,4
1,65,97,15
1,76,115,3
1,60,102,9
1,76,0,35
1,74,88,12
1,72,93,43
1,74,0,5
1,65,0,29
1,60,0,5
1,72,0,52
1,76,106,94
1,72,105,1
1,67,105,3
1,76,0,2
1,72,0,2
1,67,0,4
1,76,110,86
1,72,103,0
1,67,96,1
1,67,0,84
1,72,0,4
1,69,112,3
1,76,0,1
1,74,106,1
1,65,110,2
1,65,0,132
1,69,0,9
1,74,0,6
1,72,98,43
1,64,103,2
1,67,104,0
1,72,0,152
1,64,0,0
1,67,0,3
1,69,108,24
1,60,93,1
1,65,96,2
1,69,0,68
1,60,0,8
1,65,0,3
1,69,106,7
1,72,109,4
1,65,114,12
1,72,0,33
1,69,0,13
1,65,0,11
1,74,105,33
1,65,105,4
1,69,94,0
1,72,89,94
1,74,0,5
1,65,0,76
1,69,0,18
1,72,0,1
1,74,104,75
1,69,115,0
1,69,0,72
1,74,0,5
2,88,81,1
2,88,0,35
2,88,78,21
2,88,0,77
2,86,82,17
2,86,0,70
2,88,73,1
2,88,0,56
2,84,75,111
2,84,0,91
2,84,64,1
2,84,0,33
2,84,72,24
2,84,0,83
2,81,72,13
2,81,0,75
2,84,83,1
2,84,0,44
2,81,70,117
2,81,0,81
2,79,58,117
2,79,0,73
2,88,76,1
2,88,0,35
2,88,78,21
2,88,0,77
2,86,82,17
2,86,0,70
2,88,73,1
2,88,0,56
2,84,75,111
2,84,0,91
2,84,64,1
2,84,0,33
2,84,72,24
2,84,0,83
2,81,72,13
2,81,0,75
2,84,83,1
2,84,0,44
2,81,70,117
2,81,0,81
2,88,76,1
2,88,0,35
2,88,78,21
2,88,0,77
2,86,82,17
2,86,0,70
2,88,73,1
2,88,0,56
2,84,75,111
2,84,0,91
2,84,64,1
2,84,0,33
2,84,72,24
2,84,0,83
2,81,72,13
2,81,0,75
2,84,83,1
2,84,0,44
2,81,70,117
2,81,0,81
2,79,58,111
2,79,0,73
2,88,76,1
2,88,0,35
2,88,78,21
2,88,0,77
2,86,82,17
2,86,0,70
2,88,73,1
2,88,0,56
2,84,75,111
2,84,0,91
2,84,64,1
2,84,0,33
2,84,72,24
2,84,0,83
2,81,72,13
2,81,0,75
2,84,83,1
2,84,0,44
2,81,70,117
2,81,0,81
2,88,81,766
2,88,0,47
2,88,78,9
2,88,0,77
2,86,82,17
2,86,0,70
2,88,73,1
2,88,0,70
2,84,75,97
2,84,0,91
2,84,71,1
2,84,0,33
2,84,72,24
2,84,0,83
2,81,72,13
2,81,0,75
2,84,83,1
2,84,0,44
2,81,70,117
2,81,0,81
3,67,81,0
3,64,80,1
3,65,74,1
3,62,84,1
3,64,0,5
3,67,0,2
3,62,0,62
3,65,0,2
3,64,85,1
3,67,84,2
3,64,0,73
3,69,75,1
3,65,88,0
3,67,0,3
3,65,0,674
3,69,0,12
3,64,81,2
3,67,77,0
3,65,80,5
3,62,76,0
3,64,0,3
3,67,0,1
3,62,0,65
3,65,0,3
3,64,85,0
3,67,82,2
3,64,0,72
3,69,75,1
3,65,85,3
3,67,0,2
3,65,0,677
3,69,0,9
3,64,85,2
3,67,80,1
3,62,83,1
3,65,81,4
3,64,0,3
3,67,0,2
3,62,0,61
3,65,0,7
3,67,81,5
3,64,85,0
3,64,0,77
3,65,87,3
3,69,87,2
3,67,0,1
3,65,0,604
3,69,0,1
3,64,63,1
3,67,63,0
3,64,0,2
3,67,0,0
3,65,79,0
3,62,79,0
3,65,0,73
3,62,0,0
3,67,71,1
3,64,87,0
3,64,0,503
3,67,0,6
3,67,78,2
3,64,78,0
3,67,0,414
3,64,0,0
3,65,74,3
3,62,84,1
3,62,0,64
3,65,0,2
3,64,85,3
3,67,84,2
3,64,0,75
3,65,88,3
3,69,75,0
3,67,0,1
3,65,0,676
3,69,0,12
3,67,77,0
3,64,81,3
3,65,80,6
3,62,76,1
3,67,0,2
3,64,0,0
3,62,0,67
3,65,0,2
3,64,85,2
3,67,82,2
3,64,0,74
3,69,75,3
3,65,85,0
3,67,0,4
3,65,0,679
3,69,0,9
3,64,85,4
3,67,80,1
3,62,83,3
3,65,81,4
3,64,0,3
3,67,0,4
3,62,0,63
3,65,0,7
3,67,81,7
3,64,85,0
3,64,0,1
3,65,87,4
3,69,87,1
3,67,0,3
3,65,0,622
3,69,0,1
3,67,63,1
3,64,63,0
3,67,0,2
3,64,0,0
3,65,79,0
3,62,79,0
3,65,0,73
3,62,0,0
3,64,87,1
3,67,71,0
3,64,0,503
3,67,0,6
4,38,114,56736
4,38,0,43
4,33,114,4
4,33,0,43
4,36,114,9
4,60,116,90
4,48,113,4
4,60,0,31
4,48,0,3
4,36,0,15
4,48,118,44
4,53,114,4
4,48,0,68
4,53,0,3
4,55,110,21
4,46,118,0
4,46,0,27
4,43,123,23
4,55,0,32
4,43,0,1
4,51,123,15
4,58,117,0
4,58,0,43
4,51,0,21
4,53,105,31
4,46,123,2
4,46,0,28
4,53,0,13
4,51,104,3
4,51,0,32
4,55,111,17
4,48,120,2
4,55,0,54
4,48,0,13
4,36,125,31
4,36,0,52
4,51,121,40
4,58,101,1
4,51,0,39
4,53,109,10
4,46,105,0
4,58,0,2
4,53,0,24
4,46,0,16
