track,note,velocity,time
1,52,115,3600
1,52,0,30
1,55,115,0
1,55,0,30
1,52,115,30
1,52,0,30
1,50,115,0
1,50,0,60
1,48,115,0
1,48,0,60
1,33,115,0
1,33,0,120
1,33,115,0
1,33,0,120
1,33,115,0
1,33,0,120
1,33,115,0
1,33,0,120
1,38,115,0
1,38,0,120
1,38,115,0
1,38,0,120
1,40,115,0
1,40,0,120
1,40,115,0
1,40,0,120
1,33,115,0
1,33,0,120
1,33,115,0
1,33,0,90
1,40,115,0
1,40,0,30
1,45,115,0
1,45,0,180
1,37,115,0
1,37,0,60
1,38,115,0
1,38,0,120
1,38,115,0
1,38,0,120
1,40,115,0
1,40,0,120
1,40,115,0
1,40,0,120
1,33,115,0
1,33,0,120
1,33,115,0
1,33,0,60
1,28,115,0
1,28,0,60
1,33,115,0
1,33,0,120
1,33,115,0
1,33,0,60
1,28,115,0
1,28,0,60
1,38,115,0
1,38,0,120
1,38,115,0
1,38,0,120
1,40,115,0
1,40,0,120
1,40,115,0
1,40,0,120
1,33,115,0
1,33,0,120
1,33,115,0
1,33,0,120
1,33,115,0
1,33,0,120
1,33,115,0
1,33,0,120
1,33,115,0
1,33,0,120
1,33,115,0
1,33,0,120
1,33,115,0
1,33,0,120
1,33,115,0
1,33,0,120
1,33,115,0
1,33,0,120
1,45,115,0
1,45,0,120
1,33,115,0
1,33,0,120
1,45,115,0
1,45,0,120
1,33,115,0
1,33,0,120
1,45,115,0
1,45,0,120
1,33,115,0
1,33,0,55
1,33,115,5
1,33,0,55
1,45,115,5
1,45,0,60
1,40,115,0
1,40,0,55
1,38,115,5
1,38,0,120
1,38,115,0
1,38,0,120
1,38,115,0
1,38,0,120
1,38,115,0
1,38,0,60
1,33,115,0
1,33,0,60
1,38,115,0
1,38,0,120
1,38,115,0
1,38,0,120
1,38,115,0
1,38,0,120
1,40,115,0
1,40,0,60
1,43,115,0
1,43,0,60
1,45,115,0
1,45,0,120
1,45,115,0
1,45,0,120
1,45,115,0
1,45,0,120
1,45,115,0
1,45,0,60
1,40,115,0
1,40,0,60
1,45,115,0
1,45,0,120
1,45,115,0
1,45,0,120
1,45,115,0
1,45,0,120
1,45,115,0
1,45,0,60
1,46,115,0
1,46,0,60
1,47,115,0
1,47,0,120
1,47,115,0
1,47,0,60
1,42,115,0
1,42,0,60
1,47,115,0
1,47,0,60
1,42,115,0
1,42,0,60
1,47,115,0
1,47,0,60
1,42,115,0
1,42,0,60
1,40,115,0
1,40,0,120
1,40,115,0
1,40,0,120
1,40,115,0
1,40,0,60
1,47,115,0
1,47,0,60
1,52,115,0
1,52,0,60
1,47,115,0
1,47,0,60
1,33,115,0
1,33,0,55
1,33,115,5
1,33,0,55
1,40,115,5
1,40,0,30
1,43,115,0
1,43,0,60
1,45,115,0
1,45,0,60
1,45,115,0
1,45,0,30
1,40,115,0
1,40,0,60
1,37,115,0
1,37,0,60
1,33,115,0
1,33,0,60
1,38,115,0
1,38,0,60
1,38,115,0
1,38,0,60
1,38,115,0
1,38,0,60
1,38,115,0
1,38,0,60
1,40,115,0
1,40,0,60
1,40,115,0
1,40,0,60
1,40,115,0
1,40,0,60
1,40,115,0
1,40,0,60
1,33,115,0
1,33,0,55
1,33,115,5
1,33,0,55
1,40,115,5
1,40,0,30
1,43,115,0
1,43,0,60
1,45,115,0
1,45,0,60
1,45,115,0
1,45,0,30
1,40,115,0
1,40,0,60
1,37,115,0
1,37,0,60
1,33,115,0
1,33,0,60
1,38,115,0
1,38,0,60
1,38,115,0
1,38,0,60
1,38,115,0
1,38,0,60
1,38,115,0
1,38,0,60
1,40,115,0
1,40,0,60
1,40,115,0
1,40,0,60
1,40,115,0
1,40,0,60
1,40,115,0
1,40,0,60
1,33,115,0
1,33,0,55
1,33,115,5
1,33,0,55
1,40,115,5
1,40,0,30
1,43,115,0
1,43,0,60
1,45,115,0
1,45,0,60
1,45,115,0
1,45,0,30
1,40,115,0
1,40,0,60
1,37,115,0
1,37,0,60
1,33,115,0
1,33,0,60
1,38,115,0
1,38,0,60
1,38,115,0
1,38,0,60
1,38,115,0
1,38,0,60
1,38,115,0
1,38,0,60
1,40,115,0
1,40,0,60
1,40,115,0
1,40,0,60
1,40,115,0
1,40,0,60
1,40,115,0
1,40,0,60
1,45,115,0
1,45,0,480
1,33,115,0
1,33,0,210
1,52,115,0
1,52,0,30
1,57,115,0
1,57,0,30
1,55,115,0
1,55,0,30
1,52,115,30
1,52,0,40
1,50,115,20
1,50,0,30
1,48,115,0
1,48,0,60
1,33,115,0
1,33,0,120
1,33,115,0
1,33,0,120
1,33,115,0
1,33,0,120
1,33,115,0
1,33,0,120
1,38,115,0
1,38,0,120
1,38,115,0
1,38,0,120
1,40,115,0
1,40,0,120
1,40,115,0
1,40,0,120
1,33,115,0
1,33,0,120
1,33,115,0
1,33,0,90
1,40,115,0
1,40,0,30
1,45,115,0
1,45,0,180
1,37,115,0
1,37,0,60
1,38,115,0
1,38,0,120
1,38,115,0
1,38,0,120
1,40,115,0
1,40,0,120
1,40,115,0
1,40,0,120
1,33,115,0
1,33,0,120
1,33,115,0
1,33,0,60
1,28,115,0
1,28,0,60
1,33,115,0
1,33,0,120
1,33,115,0
1,33,0,60
1,28,115,0
1,28,0,60
1,38,115,0
1,38,0,120
1,38,115,0
1,38,0,120
1,40,115,0
1,40,0,120
1,40,115,0
1,40,0,120
1,33,115,0
1,33,0,120
1,33,115,0
1,33,0,120
1,33,115,0
1,33,0,120
1,33,115,0
1,33,0,120
1,33,115,0
1,33,0,120
1,33,115,0
1,33,0,120
1,33,115,0
1,33,0,120
1,33,115,0
1,33,0,120
1,33,115,0
1,33,0,120
1,45,115,0
1,45,0,120
1,33,115,0
1,33,0,120
1,45,115,0
1,45,0,120
1,33,115,0
1,33,0,120
1,45,115,0
1,45,0,120
1,33,115,0
1,33,0,55
1,33,115,5
1,33,0,55
1,45,115,5
1,45,0,60
1,40,115,0
1,40,0,55
1,38,115,5
1,38,0,120
1,38,115,0
1,38,0,120
1,38,115,0
1,38,0,120
1,38,115,0
1,38,0,60
1,33,115,0
1,33,0,60
1,38,115,0
1,38,0,120
1,38,115,0
1,38,0,120
1,38,115,0
1,38,0,120
1,40,115,0
1,40,0,60
1,43,115,0
1,43,0,60
1,45,115,0
1,45,0,120
1,45,115,0
1,45,0,120
1,45,115,0
1,45,0,120
1,45,115,0
1,45,0,60
1,40,115,0
1,40,0,60
1,45,115,0
1,45,0,120
1,45,115,0
1,45,0,120
1,45,115,0
1,45,0,120
1,45,115,0
1,45,0,60
1,46,115,0
1,46,0,60
1,47,115,0
1,47,0,120
1,47,115,0
1,47,0,60
1,42,115,0
1,42,0,60
1,47,115,0
1,47,0,60
1,42,115,0
1,42,0,60
1,47,115,0
1,47,0,60
1,42,115,0
1,42,0,60
1,40,115,0
1,40,0,120
1,40,115,0
1,40,0,120
1,40,115,0
1,40,0,60
1,47,115,0
1,47,0,60
1,52,115,0
1,52,0,60
1,47,115,0
1,47,0,60
1,33,115,0
1,33,0,55
1,33,115,5
1,33,0,55
1,40,115,5
1,40,0,30
1,43,115,0
1,43,0,60
1,45,115,0
1,45,0,60
1,45,115,0
1,45,0,30
1,40,115,0
1,40,0,60
1,37,115,0
1,37,0,60
1,33,115,0
1,33,0,60
1,38,115,0
1,38,0,60
1,38,115,0
1,38,0,60
1,38,115,0
1,38,0,60
1,38,115,0
1,38,0,60
1,40,115,0
1,40,0,60
1,40,115,0
1,40,0,60
1,40,115,0
1,40,0,60
1,40,115,0
1,40,0,60
1,33,115,0
1,33,0,55
1,33,115,5
1,33,0,55
1,40,115,5
1,40,0,30
1,43,115,0
1,43,0,60
1,45,115,0
1,45,0,60
1,45,115,0
1,45,0,30
1,40,115,0
1,40,0,60
1,37,115,0
1,37,0,60
1,33,115,0
1,33,0,60
1,38,115,0
1,38,0,60
1,38,115,0
1,38,0,60
1,38,115,0
1,38,0,60
1,38,115,0
1,38,0,60
1,40,115,0
1,40,0,60
1,40,115,0
1,40,0,60
1,40,115,0
1,40,0,60
1,40,115,0
1,40,0,60
1,33,115,0
1,33,0,55
1,33,115,5
1,33,0,55
1,40,115,5
1,40,0,30
1,43,115,0
1,43,0,60
1,45,115,0
1,45,0,60
1,45,115,0
1,45,0,30
1,40,115,0
1,40,0,60
1,37,115,0
1,37,0,60
1,33,115,0
1,33,0,60
1,38,115,0
1,38,0,60
1,38,115,0
1,38,0,60
1,38,115,0
1,38,0,60
1,38,115,0
1,38,0,60
1,40,115,0
1,40,0,60
1,40,115,0
1,40,0,60
1,40,115,0
1,40,0,60
1,40,115,0
1,40,0,60
1,45,115,0
1,45,0,480
1,33,115,0
1,33,0,480
1,45,115,0
1,45,0,480
1,33,115,0
1,33,0,210
1,52,115,0
1,52,0,30
1,57,115,0
1,57,0,30
1,55,115,0
1,55,0,30
1,52,115,30
1,52,0,40
1,50,115,20
1,50,0,30
1,48,115,0
1,48,0,60
1,33,115,0
1,33,0,120
1,45,115,0
1,45,0,120
1,33,115,0
1,33,0,120
1,45,115,0
1,45,0,120
1,33,115,0
1,33,0,120
1,45,115,0
1,45,0,120
1,33,115,0
1,33,0,55
1,33,115,5
1,33,0,55
1,45,115,5
1,45,0,60
1,40,115,0
1,40,0,55
1,38,115,5
1,38,0,120
1,38,115,0
1,38,0,120
1,38,115,0
1,38,0,120
1,38,115,0
1,38,0,60
1,33,115,0
1,33,0,60
1,38,115,0
1,38,0,120
1,38,115,0
1,38,0,120
1,38,115,0
1,38,0,120
1,40,115,0
1,40,0,60
1,43,115,0
1,43,0,60
1,45,115,0
1,45,0,120
1,45,115,0
1,45,0,90
1,40,115,0
1,40,0,30
1,45,115,0
1,45,0,120
1,45,115,0
1,45,0,60
1,40,115,0
1,40,0,60
1,45,115,0
1,45,0,120
1,45,115,0
1,45,0,120
1,45,115,0
1,45,0,120
1,45,115,0
1,45,0,60
1,46,115,0
1,46,0,60
1,47,115,0
1,47,0,120
1,47,115,0
1,47,0,60
1,42,115,0
1,42,0,60
1,47,115,0
1,47,0,60
1,42,115,0
1,42,0,60
1,47,115,0
1,47,0,60
1,42,115,0
1,42,0,60
1,40,115,0
1,40,0,120
1,40,115,0
1,40,0,120
1,40,115,0
1,40,0,60
1,47,115,0
1,47,0,60
1,52,115,0
1,52,0,60
1,47,115,0
1,47,0,60
1,33,115,0
1,33,0,55
1,33,115,5
1,33,0,55
1,40,115,5
1,40,0,30
1,43,115,0
1,43,0,60
1,45,115,0
1,45,0,60
1,45,115,0
1,45,0,30
1,40,115,0
1,40,0,60
1,37,115,0
1,37,0,60
1,33,115,0
1,33,0,60
1,38,115,0
1,38,0,60
1,38,115,0
1,38,0,60
1,38,115,0
1,38,0,60
1,38,115,0
1,38,0,60
1,40,115,0
1,40,0,60
1,40,115,0
1,40,0,60
1,40,115,0
1,40,0,60
1,40,115,0
1,40,0,60
1,33,115,0
1,33,0,55
1,33,115,5
1,33,0,55
1,40,115,5
1,40,0,30
1,43,115,0
1,43,0,60
1,45,115,0
1,45,0,60
1,45,115,0
1,45,0,30
1,40,115,0
1,40,0,60
1,37,115,0
1,37,0,60
1,33,115,0
1,33,0,60
1,38,115,0
1,38,0,60
1,38,115,0
1,38,0,60
1,38,115,0
1,38,0,60
1,38,115,0
1,38,0,60
1,40,115,0
1,40,0,60
1,40,115,0
1,40,0,60
1,40,115,0
1,40,0,60
1,40,115,0
1,40,0,60
1,33,115,0
1,33,0,55
1,33,115,5
1,33,0,55
1,40,115,5
1,40,0,30
1,43,115,0
1,43,0,60
1,45,115,0
1,45,0,60
1,45,115,0
1,45,0,30
1,40,115,0
1,40,0,60
1,37,115,0
1,37,0,60
1,33,115,0
1,33,0,60
1,38,115,0
1,38,0,60
1,38,115,0
1,38,0,60
1,38,115,0
1,38,0,60
1,38,115,0
1,38,0,60
1,40,115,0
1,40,0,60
1,40,115,0
1,40,0,60
1,40,115,0
1,40,0,60
1,40,115,0
1,40,0,60
1,45,115,0
1,45,0,480
1,33,115,0
1,33,0,210
1,52,115,0
1,52,0,30
1,57,115,0
1,57,0,30
1,55,115,0
1,55,0,30
1,52,115,30
1,52,0,40
1,50,115,20
1,50,0,30
1,48,115,0
1,48,0,60
1,33,115,0
1,33,0,55
1,33,115,5
1,33,0,55
1,40,115,5
1,40,0,30
1,43,115,0
1,43,0,60
1,45,115,0
1,45,0,60
1,45,115,0
1,45,0,30
1,40,115,0
1,40,0,60
1,37,115,0
1,37,0,60
1,33,115,0
1,33,0,60
1,38,115,0
1,38,0,60
1,38,112,0
1,38,0,60
1,38,109,0
1,38,0,60
1,38,106,0
1,38,0,60
1,40,103,0
1,40,0,60
1,40,101,0
1,40,0,60
1,40,97,0
1,40,0,60
1,40,95,0
1,40,0,60
1,33,92,0
1,33,0,55
1,33,89,5
1,33,0,55
1,40,86,5
1,40,0,30
1,43,85,0
1,43,0,60
1,45,82,0
1,45,0,60
1,45,79,0
1,45,0,30
1,40,78,0
1,40,0,60
1,37,74,0
1,37,0,60
1,33,72,0
1,33,0,60
1,38,69,0
1,38,0,60
1,38,66,0
1,38,0,60
1,38,63,0
1,38,0,60
1,38,60,0
1,38,0,60
1,40,57,0
1,40,0,60
1,40,55,0
1,40,0,60
1,40,51,0
1,40,0,60
1,40,49,0
1,40,0,60
1,33,46,0
1,33,0,55
1,33,43,5
1,33,0,55
1,40,40,5
1,40,0,30
1,43,39,0
1,43,0,60
1,45,36,0
1,45,0,60
1,45,33,0
1,45,0,30
1,40,32,0
1,40,0,60
1,37,28,0
1,37,0,60
1,33,26,0
1,33,0,60
1,38,23,0
1,38,0,60
1,38,20,0
1,38,0,60
1,38,17,0
1,38,0,60
1,38,14,0
1,38,0,60
1,40,11,0
1,40,0,60
1,40,9,0
1,40,0,60
1,40,5,0
1,40,0,60
1,40,3,0
1,40,0,60
2,61,85,962
2,64,85,2
2,64,0,26
2,61,0,0
2,64,85,0
2,61,85,2
2,61,0,28
2,64,0,0
2,61,85,2
2,64,85,2
2,64,0,26
2,61,0,0
2,64,85,0
2,61,85,2
2,61,0,28
2,64,0,0
2,61,85,2
2,64,85,2
2,64,0,26
2,61,0,0
2,64,85,0
2,61,85,2
2,61,0,28
2,64,0,0
2,61,85,2
2,64,85,2
2,64,0,26
2,61,0,0
2,64,85,0
2,61,85,2
2,61,0,28
2,64,0,0
2,62,85,2
2,64,85,2
2,64,0,26
2,62,0,0
2,64,85,0
2,62,85,2
2,62,0,28
2,64,0,0
2,62,85,2
2,64,85,2
2,64,0,26
2,62,0,0
2,64,85,0
2,62,85,2
2,62,0,28
2,64,0,0
2,62,85,2
2,64,85,2
2,64,0,26
2,62,0,0
2,64,85,0
2,62,85,2
2,62,0,28
2,64,0,0
2,62,85,2
2,64,85,2
2,64,0,26
2,62,0,0
2,64,85,0
2,62,85,2
2,62,0,28
2,64,0,0
2,61,85,2
2,64,85,2
2,64,0,26
2,61,0,0
2,64,85,0
2,61,85,2
2,61,0,28
2,64,0,0
2,61,85,2
2,64,85,2
2,64,0,26
2,61,0,0
2,64,85,0
2,61,85,2
2,61,0,28
2,64,0,0
2,61,85,2
2,64,85,2
2,64,0,26
2,61,0,0
2,64,85,0
2,61,85,2
2,61,0,28
2,64,0,0
2,61,85,2
2,64,85,2
2,64,0,26
2,61,0,0
2,64,85,0
2,61,85,2
2,61,0,28
2,64,0,0
2,62,85,2
2,64,85,2
2,64,0,26
2,62,0,0
2,64,85,0
2,62,85,2
2,62,0,28
2,64,0,0
2,62,85,2
2,64,85,2
2,64,0,26
2,62,0,0
2,64,85,0
2,62,85,2
2,62,0,28
2,64,0,0
2,62,85,2
2,64,85,2
2,64,0,26
2,62,0,0
2,64,85,0
2,62,85,2
2,62,0,28
2,64,0,0
2,62,85,2
2,64,85,2
2,64,0,26
2,62,0,0
2,64,85,0
2,62,85,2
2,62,0,28
2,64,0,0
2,61,85,2
2,64,85,2
