track,note,velocity,time
1,35,127,3072
1,35,122,96
1,35,127,176
1,33,127,96
1,33,127,104
1,33,127,176
1,28,127,40
1,28,127,8
1,28,127,176
1,28,127,112
1,28,127,96
1,28,127,176
1,35,126,48
1,35,127,112
1,35,127,176
1,33,127,32
1,33,120,104
1,33,127,176
1,28,127,40
1,28,127,32
1,28,127,176
1,28,127,56
1,28,122,104
1,28,127,176
1,35,125,96
1,35,117,96
1,35,127,176
1,33,127,16
1,33,122,88
1,33,127,176
1,28,127,56
1,28,127,48
1,28,127,176
1,28,127,96
1,28,102,72
1,28,127,184
1,35,127,168
1,35,122,96
1,35,127,176
1,33,127,96
1,33,127,104
1,33,127,176
1,28,127,40
1,28,127,8
1,28,127,176
1,28,127,112
1,28,127,96
1,28,127,176
1,28,127,32
1,33,127,24
1,35,126,48
1,35,127,112
1,35,127,176
1,33,127,32
1,33,120,104
1,33,127,176
1,28,127,40
1,28,127,32
1,28,127,176
1,28,127,56
1,28,122,104
1,28,127,176
1,35,125,96
1,35,117,96
1,35,127,176
1,33,127,16
1,33,122,88
1,33,127,176
1,28,127,56
1,28,127,48
1,28,127,176
1,28,127,96
1,28,102,72
1,28,127,184
1,35,127,168
1,35,122,96
1,35,127,176
1,33,127,96
1,33,127,104
1,33,127,176
1,28,127,40
1,28,127,8
1,28,127,176
1,28,127,112
1,28,127,96
1,28,127,176
1,35,126,48
1,35,127,112
1,35,127,176
1,33,127,32
1,33,120,104
1,33,127,176
1,28,127,40
1,28,127,32
1,28,127,176
1,28,127,56
1,28,122,104
1,28,127,176
1,35,125,96
1,35,117,96
1,35,127,176
1,33,127,16
1,33,122,88
1,33,127,176
1,28,127,56
1,28,127,48
1,28,127,176
1,28,127,96
1,28,102,72
1,28,127,184
1,35,127,168
1,35,122,96
1,35,127,176
1,33,127,96
1,33,127,104
1,33,127,176
1,28,127,40
1,28,127,8
1,28,127,176
1,28,127,112
1,28,127,96
1,28,127,176
1,35,126,48
1,35,127,112
1,35,127,176
1,33,127,32
1,33,120,104
1,33,127,176
1,28,127,40
1,28,127,32
1,28,127,176
1,28,127,56
1,28,122,104
1,28,127,176
1,35,125,96
1,35,117,96
1,35,127,176
1,33,127,16
1,33,122,88
1,33,127,176
1,28,127,56
1,28,127,48
1,28,127,176
1,28,127,96
1,28,102,72
1,28,127,184
1,35,127,168
1,35,122,96
1,35,127,176
1,33,127,96
1,33,127,104
1,33,127,176
1,28,127,40
1,28,127,8
1,28,127,176
1,28,127,112
1,28,127,96
1,28,127,176
1,35,126,48
1,35,127,112
1,35,127,176
1,33,127,32
1,33,120,104
1,33,127,176
1,28,127,40
1,28,127,32
1,28,127,176
1,28,127,56
1,28,122,104
1,28,127,176
1,35,125,96
1,35,117,96
1,35,127,176
1,33,127,16
1,33,122,88
1,33,127,176
1,28,127,56
1,28,127,48
1,28,127,176
1,28,127,96
1,28,102,72
1,28,127,184
1,35,127,168
1,35,122,96
1,35,127,176
1,33,127,96
1,33,127,104
1,33,127,176
1,28,127,40
1,28,127,8
1,28,127,176
1,28,127,112
1,28,127,96
1,28,127,176
1,35,126,48
1,35,127,112
1,35,127,176
1,33,127,32
1,33,120,104
1,33,127,176
1,28,127,40
1,28,127,32
1,28,127,176
1,28,127,56
1,28,122,104
1,28,127,176
1,35,125,96
1,35,117,96
1,35,127,176
1,33,127,16
1,33,122,88
1,33,127,176
1,28,127,56
1,28,127,48
1,28,127,176
1,28,127,96
1,28,102,72
1,28,127,184
1,35,127,168
1,35,122,96
1,35,127,176
1,33,127,96
1,33,127,104
1,33,127,176
1,28,127,40
1,28,127,8
1,28,127,176
1,28,127,112
1,28,127,96
1,28,127,176
1,35,126,48
1,35,127,112
1,35,127,176
1,33,127,32
1,33,120,104
1,33,127,176
1,28,127,40
1,28,127,32
1,28,127,176
1,28,127,56
1,28,122,104
1,28,127,176
1,35,125,96
1,35,117,96
1,35,127,176
1,33,127,16
1,33,122,88
1,33,127,176
1,28,127,56
1,28,127,48
1,28,127,176
1,28,127,96
1,28,102,72
1,28,127,184
1,35,127,168
1,35,122,96
1,35,127,176
1,33,127,96
1,33,127,104
1,33,127,176
1,28,127,40
1,28,127,8
1,28,127,176
1,28,127,112
1,28,127,96
1,28,127,176
1,35,126,48
1,35,127,112
1,35,127,176
1,33,127,32
1,33,120,104
1,33,127,176
1,28,127,40
1,28,127,32
1,28,127,176
1,28,127,56
1,28,122,104
1,28,127,176
1,35,125,96
1,35,117,96
1,35,127,176
1,33,127,16
1,33,122,88
1,33,127,176
1,28,127,56
1,28,127,48
1,28,127,176
1,28,127,96
1,28,102,72
1,28,127,184
1,35,127,168
1,35,122,96
1,35,127,176
1,33,127,96
1,33,127,104
1,33,127,176
1,28,127,40
1,28,127,8
1,28,127,176
1,28,127,112
1,28,127,96
1,28,127,176
1,35,126,48
1,35,127,112
1,35,127,176
1,33,127,32
1,33,120,104
1,33,127,176
1,28,127,40
1,28,127,32
1,28,127,176
1,28,127,56
1,28,122,104
1,28,127,176
1,35,125,96
1,35,117,96
1,35,127,176
1,33,127,16
1,33,122,88
1,33,127,176
1,28,127,56
1,28,127,48
1,28,127,176
1,28,127,96
1,28,102,72
1,28,127,184
1,35,127,168
1,35,122,96
1,35,127,176
1,33,127,96
1,33,127,104
1,33,127,176
1,28,127,40
1,28,127,8
1,28,127,176
1,28,127,112
1,28,127,96
1,28,127,176
1,35,126,48
1,35,127,112
1,35,127,176
1,33,127,32
1,33,120,104
1,33,127,176
1,28,127,40
1,28,127,32
1,28,127,176
1,28,127,56
1,28,122,104
1,28,127,176
1,35,125,96
1,35,117,96
1,35,127,176
1,33,127,16
1,33,122,88
1,33,127,176
1,28,127,56
1,28,127,48
1,28,127,176
1,28,127,96
1,28,102,72
1,28,127,184
1,35,126,168
1,35,127,112
1,35,127,176
1,33,127,32
1,33,120,104
1,33,127,176
1,28,127,40
1,28,127,32
1,28,127,176
1,28,127,56
1,28,122,104
1,28,127,176
1,35,125,96
1,35,117,96
1,35,127,176
1,33,127,16
1,33,122,88
1,33,127,176
1,28,127,56
1,28,127,48
1,28,127,176
1,28,127,96
1,28,102,72
1,28,127,184
1,35,127,168
2,47,81,2976
2,50,77,32
2,54,78,32
2,59,83,32
2,45,91,8
2,49,78,8
2,52,81,8
2,57,94,8
2,40,80,8
2,44,74,8
2,47,73,8
2,52,89,8
2,40,80,8
2,44,74,8
2,47,73,8
2,50,89,8
2,47,81,0
2,50,77,0
2,54,78,32
2,59,83,32
2,45,91,8
2,49,78,8
2,52,81,8
2,57,94,8
2,40,80,8
2,44,74,8
2,47,73,8
2,52,89,8
2,40,80,8
2,44,74,8
2,47,73,8
2,50,89,8
2,47,81,0
2,50,77,0
2,54,78,32
2,59,83,32
2,45,91,8
2,49,78,8
2,52,81,8
2,57,94,8
2,40,80,8
2,44,74,8
2,47,73,8
2,52,89,8
2,40,80,8
2,44,74,8
2,47,73,8
2,50,89,8
2,47,81,0
2,50,77,0
2,54,78,32
2,59,83,32
2,45,91,8
2,49,78,8
2,52,81,8
2,57,94,8
2,40,80,8
2,44,74,8
2,47,73,8
2,52,89,8
2,40,80,8
2,44,74,8
2,47,73,8
2,50,89,8
2,47,81,0
2,50,77,0
2,54,78,32
2,59,83,32
2,45,91,8
2,49,78,8
2,52,81,8
2,57,94,8
2,40,80,8
2,44,74,8
2,47,73,8
2,52,89,8
2,40,80,8
2,44,74,8
2,47,73,8
2,50,89,8
2,47,81,0
2,50,77,0
2,54,78,32
2,59,83,32
2,45,91,8
2,49,78,8
2,52,81,8
2,57,94,8
2,40,80,8
2,44,74,8
2,47,73,8
2,52,89,8
2,40,80,8
2,44,74,8
2,47,73,8
2,50,89,8
2,47,81,0
2,50,77,0
2,54,78,32
2,59,83,32
2,45,91,8
2,49,78,8
2,52,81,8
2,57,94,8
2,40,80,8
2,44,74,8
2,47,73,8
2,52,89,8
2,40,80,8
2,44,74,8
2,47,73,8
2,50,89,8
2,47,81,0
2,50,77,0
2,54,78,32
2,59,83,32
2,45,91,8
2,49,78,8
2,52,81,8
2,57,94,8
2,40,80,8
2,44,74,8
2,47,73,8
2,52,89,8
2,40,80,8
2,44,74,8
2,47,73,8
2,50,89,8
2,47,81,0
2,50,77,0
2,54,78,32
2,59,83,32
2,45,91,8
2,49,78,8
2,52,81,8
2,57,94,8
2,40,80,8
2,44,74,8
2,47,73,8
2,52,89,8
2,40,80,8
2,44,74,8
2,47,73,8
2,50,89,8
2,47,81,0
2,50,77,0
2,54,78,32
2,59,83,32
2,45,91,8
2,49,78,8
2,52,81,8
2,57,94,8
2,40,80,8
2,44,74,8
2,47,73,8
2,52,89,8
2,40,80,8
2,44,74,8
2,47,73,8
2,50,89,8
2,47,81,0
2,50,77,0
2,54,78,32
2,59,83,32
2,45,91,8
2,49,78,8
2,52,81,8
2,57,94,8
2,40,80,8
2,44,74,8
2,47,73,8
2,52,89,8
2,40,80,8
2,44,74,8
2,47,73,8
2,50,89,8
2,47,81,0
2,50,77,0
2,54,78,32
2,59,83,32
2,45,91,8
2,49,78,8
2,52,81,8
2,57,94,8
2,40,80,8
2,44,74,8
2,47,73,8
2,52,89,8
2,40,80,8
2,44,74,8
2,47,73,8
2,50,89,8
2,47,81,0
2,50,77,0
2,54,78,32
2,59,83,32
2,45,91,8
2,49,78,8
2,52,81,8
2,57,94,8
2,40,80,8
2,44,74,8
2,47,73,8
2,52,89,8
2,40,80,8
2,44,74,8
2,47,73,8
2,50,89,8
2,47,81,0
2,50,77,0
2,54,78,32
2,59,83,32
2,45,91,8
2,49,78,8
2,52,81,8
2,57,94,8
2,40,80,8
2,44,74,8
2,47,73,8
2,52,89,8
2,40,80,8
2,44,74,8
2,47,73,8
2,50,89,8
2,47,81,0
2,50,77,0
2,54,78,32
2,59,83,32
2,45,91,8
2,49,78,8
2,52,81,8
2,57,94,8
2,40,80,8
2,44,74,8
2,47,73,8
2,52,89,8
2,40,80,8
2,44,74,8
2,47,73,8
2,50,89,8
2,47,81,0
2,50,77,0
2,54,78,32
2,59,83,32
2,45,91,8
2,49,78,8
2,52,81,8
2,57,94,8
2,40,80,8
2,44,74,8
2,47,73,8
2,52,89,8
2,40,80,8
2,44,74,8
2,47,73,8
2,50,89,8
2,47,81,0
2,50,77,0
2,54,78,32
2,59,83,32
2,45,91,8
2,49,78,8
2,52,81,8
2,57,94,8
2,40,80,8
2,44,74,8
2,47,73,8
2,52,89,8
2,40,80,8
2,44,74,8
2,47,73,8
2,50,89,8
2,47,81,0
2,50,77,0
2,54,78,32
2,59,83,32
2,45,91,8
2,49,78,8
2,52,81,8
2,57,94,8
2,40,80,8
2,44,74,8
2,47,73,8
2,52,89,8
2,40,80,8
2,44,74,8
2,47,73,8
2,50,89,8
2,47,81,0
2,50,77,0
2,54,78,32
2,59,83,32
2,45,91,8
2,49,78,8
2,52,81,8
2,57,94,8
2,40,80,8
2,44,74,8
2,47,73,8
2,52,89,8
2,40,80,8
2,44,74,8
2,47,73,8
2,50,89,8
2,47,81,0
2,50,77,0
2,54,78,32
2,59,83,32
2,45,91,8
2,49,78,8
2,52,81,8
2,57,94,8
2,40,80,8
2,44,74,8
2,47,73,8
2,52,89,8
2,40,80,8
2,44,74,8
2,47,73,8
2,50,89,8
2,47,81,0
2,50,77,0
2,54,78,32
2,59,83,32
2,45,91,8
2,49,78,8
2,52,81,8
2,57,94,8
2,40,80,8
2,44,74,8
2,47,73,8
2,52,89,8
2,40,80,8
2,44,74,8
2,47,73,8
2,50,89,8
2,52,89,0
2,40,80,8
2,44,74,8
2,47,73,8
2,50,89,8
2,47,81,0
2,50,77,0
2,54,78,32
2,59,83,32
2,45,91,8
2,49,78,8
2,52,81,8
2,57,94,8
2,40,80,8
2,44,74,8
2,47,73,8
2,52,89,8
2,40,80,8
2,44,74,8
2,47,73,8
2,50,89,8
2,59,83,0
2,45,91,8
2,49,78,8
2,52,81,8
2,57,94,8
2,40,80,8
2,44,74,8
2,47,73,8
2,52,89,8
2,40,80,8
2,44,74,8
2,47,73,8
2,50,89,8
2,47,81,0
2,50,77,0
2,54,78,32
2,59,83,32
2,45,91,8
2,49,78,8
2,52,81,8
2,57,94,8
2,40,80,8
2,44,74,8
2,47,73,8
2,52,89,8
2,40,80,8
2,44,74,8
2,47,73,8
2,50,89,8
2,47,81,0
2,50,77,0
2,54,78,32
2,59,83,32
2,45,91,8
2,49,78,8
2,52,81,8
2,57,94,8
2,40,80,8
2,44,74,8
2,47,73,8
2,52,89,8
2,40,80,8
2,44,74,8
2,47,73,8
2,50,89,8
2,47,81,0
2,50,77,0
2,54,78,32
2,59,83,32
2,45,91,8
2,49,78,8
2,52,81,8
2,57,94,8
2,40,80,8
2,44,74,8
2,47,73,8
2,52,89,8
2,40,80,8
2,44,74,8
2,47,73,8
2,50,89,8
2,47,81,0
2,50,77,0
2,54,78,32
2,59,83,32
2,45,91,8
2,49,78,8
2,52,81,8
2,57,94,8
2,40,80,8
2,44,74,8
2,47,73,8
2,52,89,8
2,40,80,8
2,44,74,8
2,47,73,8
2,50,89,8
2,47,81,0
2,50,77,0
2,54,78,32
2,59,83,32
2,45,91,8
2,49,78,8
2,52,81,8
2,57,94,8
2,40,80,8
2,44,74,8
2,47,73,8
2,52,89,8
2,40,80,8
2,44,74,8
2,47,73,8
2,50,89,8
2,47,81,0
2,50,77,0
2,54,78,32
2,59,83,32
2,45,91,8
2,49,78,8
2,52,81,8
2,57,94,8
2,40,80,8
2,44,74,8
2,47,73,8
2,52,89,8
2,40,80,8
2,44,74,8
2,47,73,8
2,50,89,8
2,47,81,0
2,50,77,0
2,54,78,32
2,59,83,32
2,45,91,8
2,49,78,8
2,52,81,8
2,57,94,8
2,40,80,8
2,44,74,8
2,47,73,8
2,52,89,8
2,40,80,8
2,44,74,8
2,47,73,8
2,50,89,8
2,47,81,0
2,50,77,0
2,54,78,32
2,59,83,32
2,45,91,8
2,49,78,8
2,52,81,8
2,57,94,8
2,40,80,8
2,44,74,8
2,47,73,8
2,52,89,8
2,40,80,8
2,44,74,8
2,47,73,8
2,50,89,8
2,47,81,0
2,50,77,0
2,54,78,32
2,59,83,32
2,45,91,8
2,49,78,8
2,52,81,8
2,57,94,8
2,40,80,8
2,44,74,8
2,47,73,8
2,52,89,8
2,40,80,8
2,44,74,8
2,47,73,8
2,50,89,8
2,47,81,0
2,50,77,0
2,54,78,32
2,47,89,0
2,50,91,0
2,54,90,0
2,45,95,324
2,49,91,64
2,52,89,24
2,40,76,528
2,44,95,48
2,47,92,32
2,40,84,232
2,47,71,216
2,52,57,392
2,56,45,448
3,40,71,206304
3,47,68,376
3,52,68,392
3,56,77,256
4,59,117,2304
4,65,90,0
4,66,96,0
4,65,51,8
4,64,53,4
4,63,51,8
4,62,51,8
4,61,46,0
4,60,52,4
4,59,105,4
4,59,117,24
4,65,117,0
4,59,96,256
4,61,64,16
4,60,104,0
4,62,89,16
4,64,80,16
4,62,89,256
4,61,86,8
4,59,117,208
4,57,80,928
4,59,79,168
4,55,54,176
4,56,86,16
4,62,78,720
4,66,101,24
4,62,104,0
4,64,104,8
4,62,105,216
4,61,106,368
4,59,103,12
4,61,98,184
4,59,99,8
4,59,102,80
4,57,117,8
4,56,100,568
4,57,74,1264
4,59,72,4
4,62,78,268
4,66,101,0
4,62,104,192
4,64,104,4
4,62,105,0
4,61,106,376
4,59,103,8
4,61,98,192
4,59,99,8
4,59,102,80
4,57,117,8
4,56,100,576
4,57,74,1264
4,59,72,8
4,57,60,10296
4,59,42,0
4,55,59,176
4,56,55,192
4,57,60,4184
4,59,42,0
4,55,59,176
4,56,55,192
4,57,60,4184
4,59,42,0
4,55,59,176
4,56,55,192
4,56,61,4392
4,57,69,0
4,59,67,192
4,62,78,6344
4,66,101,0
4,62,104,192
4,64,104,4
4,62,105,0
4,61,106,376
4,59,103,8
4,61,98,192
4,59,99,8
4,59,102,80
4,57,117,8
4,56,100,576
