track,note,velocity,time
1,36,95,3072
1,36,95,180
1,36,95,190
1,36,95,410
1,36,95,122
1,36,95,190
1,36,95,270
1,36,95,192
1,36,95,124
1,36,95,284
1,36,95,192
1,36,95,130
1,36,95,2
1,36,95,320
1,36,95,192
1,36,95,140
1,36,95,274
1,36,95,192
1,36,95,126
1,36,95,246
1,36,95,192
1,36,95,122
1,36,95,256
1,36,95,192
1,36,95,124
1,36,95,190
1,36,95,190
1,36,95,148
1,36,95,180
1,36,95,190
1,36,95,410
1,36,95,122
1,36,95,190
1,36,95,270
1,36,95,192
1,36,95,124
1,36,95,284
1,36,95,192
1,36,95,130
1,36,95,2
1,36,95,320
1,36,95,192
1,36,95,140
1,36,95,274
1,36,95,192
1,36,95,126
1,36,95,246
1,36,95,192
1,36,95,122
1,36,95,256
1,36,95,192
1,36,95,124
1,36,95,190
1,36,95,190
1,36,95,148
1,36,95,180
1,36,95,190
1,36,95,410
1,36,95,122
1,36,95,190
1,36,95,270
1,36,95,192
1,36,95,124
1,36,95,284
1,36,95,192
1,36,95,130
1,36,95,2
1,36,95,320
1,36,95,192
1,36,95,140
1,36,95,274
1,36,95,192
1,36,95,126
1,36,95,246
1,36,95,192
1,36,95,122
1,36,95,256
1,36,95,192
1,36,95,124
1,36,95,190
1,36,95,190
1,36,95,148
1,36,95,180
1,36,95,190
1,36,95,410
1,36,95,122
1,36,95,190
1,36,95,270
1,36,95,192
1,36,95,124
1,36,95,284
1,36,95,192
1,36,95,130
1,36,95,2
1,36,95,320
1,36,95,192
1,36,95,140
1,36,95,274
1,36,95,192
1,36,95,126
1,36,95,246
1,36,95,192
1,36,95,122
1,36,95,256
1,36,95,192
1,36,95,124
1,36,95,190
1,36,95,190
1,36,95,148
1,36,95,180
1,36,95,190
1,36,95,410
1,36,95,122
1,36,95,190
1,36,95,270
1,36,95,192
1,36,95,124
1,36,95,284
1,36,95,192
1,36,95,130
1,36,95,2
1,36,95,320
1,36,95,180
1,36,95,190
1,36,95,410
1,36,95,122
1,36,95,190
1,36,95,270
1,36,95,192
1,36,95,124
1,36,95,284
1,36,95,192
1,36,95,130
1,36,95,2
1,36,95,320
1,36,95,192
1,36,95,140
1,36,95,274
1,36,95,192
1,36,95,126
1,36,95,246
1,36,95,192
1,36,95,122
1,36,95,256
1,36,95,192
1,36,95,124
1,36,95,190
1,36,95,190
1,36,95,148
1,36,95,180
1,36,95,190
1,36,95,410
1,36,95,122
1,36,95,190
1,36,95,270
1,36,95,192
1,36,95,124
1,36,95,284
1,36,95,192
1,36,95,130
1,36,95,2
1,36,95,320
1,36,95,192
1,36,95,140
1,36,95,274
1,36,95,192
1,36,95,126
1,36,95,246
1,36,95,192
1,36,95,122
1,36,95,256
1,36,95,192
1,36,95,124
1,36,95,190
1,36,95,190
1,36,95,148
1,36,95,180
1,36,95,190
1,36,95,410
1,36,95,122
1,36,95,190
1,36,95,270
1,36,95,192
1,36,95,124
1,36,95,284
1,36,95,192
1,36,95,130
1,36,95,2
1,36,95,320
1,36,95,192
1,36,95,140
1,36,95,274
1,36,95,192
1,36,95,126
1,36,95,246
1,36,95,192
1,36,95,122
1,36,95,256
1,36,95,192
1,36,95,124
1,36,95,382
1,36,76,8
1,36,95,148
1,36,95,180
1,36,95,190
1,36,95,410
1,36,95,122
1,36,95,190
1,36,95,270
1,36,95,192
1,36,95,124
1,36,95,284
1,36,95,192
1,36,95,130
1,36,95,2
1,36,95,320
1,36,95,192
1,36,95,140
1,36,95,274
1,36,95,192
1,36,95,126
1,36,95,246
1,36,95,192
1,36,95,122
1,36,95,256
1,36,95,192
1,36,95,124
1,36,95,190
1,36,95,190
1,36,95,148
1,36,95,180
1,36,95,190
1,36,95,410
1,36,95,122
1,36,95,190
1,36,95,270
1,36,95,192
1,36,95,124
1,36,95,284
1,36,95,192
1,36,95,130
1,36,95,2
1,36,95,320
1,36,95,180
1,36,95,190
1,36,95,410
1,36,95,122
1,36,95,190
1,36,95,270
1,36,95,192
1,36,95,124
1,36,95,284
1,36,95,192
1,36,95,130
1,36,95,2
1,36,95,320
1,36,95,192
1,36,95,140
1,36,95,274
1,36,95,192
1,36,95,126
1,36,95,246
1,36,95,192
1,36,95,122
1,36,95,256
1,36,95,192
1,36,95,124
1,36,95,382
1,36,56,8
1,36,95,148
1,36,95,180
1,36,95,190
1,36,95,410
1,36,95,122
1,36,95,190
1,36,95,270
1,36,95,192
1,36,95,124
1,36,95,284
1,36,95,192
1,36,95,130
1,36,95,2
1,36,95,320
1,36,95,192
1,36,95,140
1,36,95,274
1,36,95,192
1,36,95,126
1,36,95,246
1,36,95,192
1,36,95,122
1,36,95,256
1,36,95,192
1,36,95,124
1,36,95,190
1,36,95,190
1,36,95,148
1,36,95,180
1,36,95,190
1,36,95,410
1,36,95,122
1,36,95,190
1,36,95,270
1,36,95,192
1,36,95,124
1,36,95,284
1,36,95,192
1,36,95,130
1,36,95,2
1,36,95,320
1,36,95,192
1,36,95,140
1,36,95,274
1,36,95,192
1,36,95,126
1,36,95,246
1,36,95,192
1,36,95,122
1,36,95,256
1,36,95,192
1,36,95,124
1,36,95,382
1,36,76,8
1,36,95,148
1,36,95,180
1,36,95,190
1,36,95,410
1,36,95,122
1,36,95,190
1,36,95,270
1,36,95,192
1,36,95,124
1,36,95,284
1,36,95,192
1,36,95,130
1,36,95,2
1,36,95,320
1,36,95,180
1,36,95,190
1,36,95,410
1,36,95,122
1,36,95,190
1,36,95,270
1,36,95,192
1,36,95,124
1,36,95,284
1,36,95,192
1,36,95,130
1,36,95,2
1,36,95,320
1,36,95,192
1,36,95,140
1,36,95,274
1,36,95,192
1,36,95,126
1,36,95,246
1,36,95,192
1,36,95,122
1,36,95,256
1,36,95,192
1,36,95,124
1,36,95,382
1,36,76,8
2,38,80,3456
2,38,86,396
2,38,82,348
2,38,106,100
2,38,82,912
2,38,80,276
2,38,82,272
2,38,82,256
2,38,122,2
2,38,82,528
2,38,82,228
2,38,82,228
2,38,82,174
2,38,86,132
2,38,82,194
2,38,114,86
2,38,76,912
2,38,82,288
2,38,80,506
2,38,86,396
2,38,82,348
2,38,82,276
2,38,82,336
2,38,80,276
2,38,82,272
2,38,82,256
2,38,82,224
2,38,82,228
2,38,82,228
2,38,82,174
2,38,86,132
2,38,82,194
2,38,80,262
2,38,76,238
2,38,82,288
2,38,80,506
2,38,86,396
2,38,82,348
2,38,82,276
2,38,82,336
2,38,80,276
2,38,82,272
2,38,82,256
2,38,82,224
2,38,82,228
2,38,82,228
2,38,82,174
2,38,86,132
2,38,82,194
2,38,80,262
2,38,76,238
2,38,126,112
2,38,118,352
2,38,80,528
2,38,86,396
2,38,82,348
2,38,106,276
2,38,82,736
2,38,80,276
2,38,82,272
2,38,54,80
2,38,127,144
2,38,82,224
2,38,82,228
2,38,82,228
2,38,82,174
2,38,82,692
2,38,80,262
2,38,76,238
2,38,54,112
2,38,92,144
2,38,126,176
2,38,80,528
2,38,86,396
2,38,82,348
2,38,82,276
2,38,82,336
2,38,80,276
2,38,82,272
2,38,1,80
2,38,54,144
2,38,88,2
2,38,80,528
2,38,86,396
2,38,82,348
2,38,82,276
2,38,82,336
2,38,80,276
2,38,82,272
2,38,82,256
2,38,82,224
2,38,82,228
2,38,82,228
2,38,82,174
2,38,86,132
2,38,82,194
2,38,80,262
2,38,76,238
2,38,126,112
2,38,118,352
2,38,80,528
2,38,86,396
2,38,82,348
2,38,82,276
2,38,82,336
2,38,80,276
2,38,82,272
2,38,82,256
2,38,82,224
2,38,82,228
2,38,82,228
2,38,84,350
2,38,82,736
2,38,80,262
2,38,76,238
2,38,126,112
2,38,118,352
2,38,80,528
2,38,86,396
2,38,82,348
2,38,106,276
2,38,82,736
2,38,80,276
2,38,82,272
2,38,54,80
2,38,127,144
2,38,82,224
2,38,82,228
2,38,82,228
2,38,82,174
2,38,82,692
2,38,80,262
2,38,76,238
2,38,54,112
2,38,92,144
2,38,126,176
2,38,80,528
2,38,86,396
2,38,82,348
2,38,82,276
2,38,82,336
2,38,80,276
2,38,82,272
2,38,82,256
2,38,82,224
2,38,82,228
2,38,82,228
2,38,112,350
2,38,82,736
2,38,80,262
2,38,76,238
2,38,126,112
2,38,96,144
2,38,118,176
2,38,80,528
2,38,86,396
2,38,82,348
2,38,82,276
2,38,82,336
2,38,80,276
2,38,82,272
2,38,82,256
2,38,80,224
2,38,86,396
2,38,82,348
2,38,82,276
2,38,82,336
2,38,80,276
2,38,82,272
2,38,82,256
2,38,82,224
2,38,82,228
2,38,82,228
2,38,82,174
2,38,86,132
2,38,82,194
2,38,80,262
2,38,76,238
2,38,127,288
2,38,118,176
2,38,80,528
2,38,86,396
2,38,82,348
2,38,82,276
2,38,82,336
2,38,80,276
2,38,82,272
2,38,82,256
2,38,82,224
2,38,82,228
2,38,82,228
2,38,127,350
2,38,82,736
2,38,80,262
2,38,76,238
2,38,64,112
2,38,96,144
2,38,127,176
2,38,80,528
2,38,86,396
2,38,82,348
2,38,106,276
2,38,82,736
2,38,80,276
2,38,82,272
2,38,54,80
2,38,96,144
2,38,127,2
2,38,82,528
2,38,82,228
2,38,82,228
2,38,82,174
2,38,82,692
2,38,80,262
2,38,76,238
2,38,54,112
2,38,92,144
2,38,126,176
2,38,80,528
2,38,86,396
2,38,82,348
2,38,82,276
2,38,82,336
2,38,80,276
2,38,82,272
2,38,82,256
2,38,80,224
2,38,86,396
2,38,82,348
2,38,106,276
2,38,82,736
2,38,80,276
2,38,82,272
2,38,54,80
2,38,96,144
2,38,82,224
2,38,82,228
2,38,82,228
2,38,127,350
2,38,82,736
2,38,80,262
2,38,76,238
2,38,54,112
2,38,92,144
2,38,126,176
3,82,95,3448
3,82,95,396
3,82,95,348
3,82,95,276
3,82,95,336
3,82,95,276
3,82,95,272
3,82,80,72
3,82,69,64
3,82,95,56
3,82,95,224
3,82,95,228
3,82,95,228
3,82,95,158
3,82,95,132
3,82,95,210
3,82,95,78
3,82,95,920
3,82,85,104
3,82,86,64
3,82,95,56
3,82,91,2
3,82,95,536
3,82,95,396
3,82,95,348
3,82,95,276
3,82,95,336
3,82,95,276
3,82,95,272
3,82,95,256
3,82,95,224
3,82,95,228
3,82,95,228
3,82,95,158
3,82,95,132
3,82,95,210
3,82,95,262
3,82,95,238
3,82,95,288
3,82,95,506
3,82,95,396
3,82,95,348
3,82,95,276
3,82,95,336
3,82,95,276
3,82,95,272
3,82,83,72
3,82,95,152
3,82,81,2
3,82,95,536
3,82,95,228
3,82,95,228
3,82,95,158
3,82,95,132
3,82,95,210
3,82,95,262
3,82,95,238
3,82,92,104
3,82,95,352
3,82,95,536
3,82,95,396
3,82,95,348
3,82,95,284
3,82,95,728
3,82,95,276
3,82,95,272
3,82,83,72
3,82,95,152
3,82,95,224
3,82,95,228
3,82,95,228
3,82,95,158
3,82,95,708
3,82,95,262
3,82,95,238
3,82,92,104
3,82,95,352
3,82,95,536
3,82,95,396
3,82,95,348
3,82,95,276
3,82,95,336
3,82,95,276
3,82,95,272
3,82,54,72
3,82,61,64
3,82,74,56
3,82,87,2
3,82,95,536
3,82,95,396
3,82,95,348
3,82,95,276
3,82,95,336
3,82,95,276
3,82,95,272
3,82,83,72
3,82,95,152
3,82,81,2
3,82,95,536
3,82,95,228
3,82,95,228
3,82,95,158
3,82,95,132
3,82,95,210
3,82,95,262
3,82,95,238
3,82,92,104
3,82,95,352
3,82,95,536
3,82,95,396
3,82,95,348
3,82,95,276
3,82,95,336
3,82,95,276
3,82,95,272
3,82,83,72
3,82,95,152
3,82,81,2
3,82,95,536
3,82,95,228
3,82,95,228
3,82,95,358
3,82,95,728
3,82,95,262
3,82,95,238
3,82,95,296
3,82,95,160
3,82,95,536
3,82,95,396
3,82,95,348
3,82,95,284
3,82,95,728
3,82,95,276
3,82,95,272
3,82,83,72
3,82,95,152
3,82,95,224
3,82,95,228
3,82,95,228
3,82,95,158
3,82,95,708
3,82,95,262
3,82,95,238
3,82,92,104
3,82,95,352
3,82,95,536
3,82,95,396
3,82,95,348
3,82,95,276
3,82,95,336
3,82,95,276
3,82,95,272
3,82,83,72
3,82,95,152
3,82,81,2
3,82,95,536
3,82,95,228
3,82,95,228
3,82,52,166
3,82,68,160
3,82,95,152
3,82,95,210
3,82,95,262
3,82,95,238
3,82,92,104
3,82,64,64
3,82,80,64
3,82,95,160
3,82,95,536
3,82,95,396
3,82,95,348
3,82,95,276
3,82,95,336
3,82,95,276
3,82,95,272
3,82,83,72
3,82,95,152
3,82,81,2
3,82,95,536
3,82,95,396
3,82,95,348
3,82,95,276
3,82,95,336
3,82,95,276
3,82,95,272
3,82,95,256
3,82,95,224
3,82,95,228
3,82,95,228
3,82,95,158
3,82,95,132
3,82,95,210
3,82,95,262
3,82,95,238
3,82,92,104
3,82,95,352
3,82,95,536
3,82,95,396
3,82,95,348
3,82,95,276
3,82,95,336
3,82,95,276
3,82,95,272
3,82,83,72
3,82,95,152
3,82,81,2
3,82,95,536
3,82,95,44
3,82,95,152
3,82,95,228
3,82,95,358
3,82,95,728
3,82,95,262
3,82,95,238
3,82,64,104
3,82,80,64
3,82,95,64
3,82,95,160
3,82,95,536
3,82,95,396
3,82,95,348
3,82,95,284
3,82,95,728
3,82,95,276
3,82,95,272
3,82,83,72
3,82,95,152
3,82,95,224
3,82,95,228
3,82,95,228
3,82,95,158
3,82,95,708
3,82,95,262
3,82,95,238
3,82,92,104
3,82,95,352
3,82,95,536
3,82,95,396
3,82,95,348
3,82,95,276
3,82,95,336
3,82,95,276
3,82,95,272
3,82,83,72
3,82,95,152
3,82,81,2
3,82,95,536
3,82,95,396
3,82,95,348
3,82,95,284
3,82,95,728
3,82,95,276
3,82,95,272
3,82,83,72
3,82,95,152
3,82,95,40
3,82,95,152
3,82,84,44
3,82,95,152
3,82,72,44
3,82,95,152
3,82,92,358
3,82,95,728
3,82,95,262
3,82,95,238
3,82,92,104
3,82,95,352
4,69,95,3448
4,69,95,396
4,69,95,348
4,69,95,276
4,69,95,336
4,69,95,276
4,69,95,272
4,69,95,256
4,69,95,224
4,69,95,228
4,69,95,228
4,69,95,158
4,69,95,132
4,69,95,210
4,69,95,262
4,69,90,238
4,69,95,288
4,69,95,506
4,69,95,396
4,69,95,348
4,69,95,276
4,69,95,336
4,69,95,276
4,69,95,272
4,69,95,256
4,69,95,224
4,69,95,228
4,69,95,228
4,69,95,158
4,69,95,132
4,69,95,210
4,69,95,262
4,69,90,238
4,69,95,288
4,69,95,506
4,69,95,396
4,69,95,348
4,69,95,276
4,69,95,336
4,69,95,276
4,69,95,272
4,69,95,256
4,69,95,224
4,69,95,228
4,69,95,228
4,69,95,158
4,69,95,132
4,69,95,210
4,69,95,262
4,69,90,238
4,69,95,288
4,69,95,506
4,69,95,396
4,69,95,348
4,69,95,276
4,69,95,336
4,69,95,276
4,69,95,272
4,69,95,256
4,69,95,224
4,69,95,228
4,69,95,228
4,69,95,158
4,69,95,708
4,69,95,262
4,69,90,238
4,69,95,288
4,69,95,506
4,69,95,396
4,69,95,348
4,69,95,276
4,69,95,336
4,69,95,276
4,69,95,272
4,69,95,1024
4,69,95,396
4,69,95,348
4,69,95,276
4,69,95,336
4,69,95,276
4,69,95,272
4,69,95,256
4,69,95,224
4,69,95,228
4,69,95,228
4,69,95,158
4,69,95,132
4,69,95,210
4,69,95,262
4,69,90,238
4,69,95,288
4,69,95,506
4,69,95,396
4,69,95,348
4,69,95,276
4,69,95,336
4,69,95,276
4,69,95,272
4,69,95,256
4,69,95,224
4,69,95,228
4,69,95,228
4,69,95,358
4,69,95,728
4,69,95,262
4,69,90,238
4,69,95,288
4,69,95,2
4,69,95,536
4,69,95,396
4,69,95,348
4,69,95,276
4,69,95,336
4,69,95,276
4,69,95,272
4,69,95,256
4,69,95,224
4,69,95,228
4,69,95,228
4,69,95,158
4,69,95,708
4,69,95,262
4,69,90,238
4,69,95,288
4,69,95,506
