track,note,velocity,time
1,72,100,13152
1,74,100,32
1,77,100,32
1,74,100,96
1,74,100,32
1,72,100,32
1,71,100,32
1,67,100,32
1,67,100,64
1,65,100,448
1,67,100,32
1,70,100,32
1,67,100,96
1,65,100,64
1,67,100,32
1,67,100,352
1,74,100,32
1,72,100,96
1,70,100,64
1,67,100,32
1,70,100,64
1,67,100,32
1,67,100,32
1,67,100,64
1,72,100,992
1,74,100,32
1,77,100,32
1,74,100,96
1,72,100,4
1,71,100,32
1,67,100,32
1,67,100,64
1,70,100,640
1,67,100,96
1,65,100,64
1,67,100,32
1,70,100,256
1,72,100,32
1,74,100,32
1,74,100,32
1,74,100,32
1,74,100,32
1,72,100,32
1,70,100,32
1,67,100,32
1,65,100,32
1,67,100,32
1,72,100,1024
1,74,100,32
1,76,100,32
1,72,100,32
1,74,100,32
1,71,100,64
1,74,100,832
1,76,100,32
1,77,100,32
1,77,100,32
1,76,100,32
1,74,100,64
1,76,100,32
1,77,100,32
1,76,100,96
1,74,100,128
1,74,100,32
1,72,100,96
1,76,100,96
1,74,100,32
1,74,100,0
1,71,100,32
1,71,100,64
1,69,100,32
1,67,100,32
1,72,100,1216
1,76,100,32
1,74,100,64
1,74,100,32
1,71,100,64
1,74,100,832
1,76,100,32
1,77,100,32
1,77,100,32
1,76,100,32
1,74,100,64
1,76,100,32
1,77,100,32
1,76,100,96
1,74,100,128
1,74,100,32
1,72,100,96
1,76,100,96
1,74,100,32
1,71,100,0
1,71,100,64
1,71,100,32
1,69,100,32
1,67,100,32
1,64,100,1024
1,67,100,32
1,70,100,32
1,70,100,32
1,69,100,32
1,67,100,32
1,67,100,32
1,67,100,64
1,67,100,64
1,72,100,3424
1,74,100,32
1,77,100,32
1,74,100,96
1,74,100,32
1,72,100,32
1,71,100,32
1,67,100,32
1,67,100,64
1,65,100,448
1,67,100,32
1,70,100,32
1,67,100,96
1,65,100,64
1,67,100,32
1,67,100,352
1,74,100,32
1,72,100,96
1,70,100,64
1,67,100,32
1,70,100,64
1,67,100,32
1,67,100,32
1,67,100,64
1,72,100,992
1,74,100,32
1,77,100,32
1,74,100,96
1,72,100,4
1,71,100,32
1,67,100,32
1,67,100,64
1,70,100,640
1,67,100,96
1,65,100,64
1,67,100,32
1,70,100,256
1,72,100,32
1,74,100,32
1,74,100,32
1,74,100,32
1,74,100,32
1,72,100,32
1,70,100,32
1,67,100,32
1,65,100,32
1,67,100,32
1,72,100,1024
1,74,100,32
1,76,100,32
1,72,100,32
1,74,100,32
1,71,100,64
1,74,100,832
1,76,100,32
1,77,100,32
1,77,100,32
1,76,100,32
1,74,100,64
1,76,100,32
1,77,100,32
1,76,100,96
1,74,100,128
1,74,100,32
1,72,100,96
1,76,100,96
1,74,100,32
1,74,100,0
1,71,100,32
1,71,100,64
1,69,100,32
1,67,100,32
1,72,100,1216
1,76,100,32
1,74,100,64
1,74,100,32
1,71,100,64
1,74,100,832
1,76,100,32
1,77,100,32
1,77,100,32
1,76,100,32
1,74,100,64
1,76,100,32
1,77,100,32
1,76,100,96
1,74,100,128
1,74,100,32
1,72,100,96
1,76,100,96
1,74,100,32
1,71,100,0
1,71,100,64
1,71,100,32
1,69,100,32
1,67,100,32
1,64,100,1024
1,67,100,32
1,70,100,32
1,70,100,32
1,69,100,32
1,67,100,32
1,67,100,32
1,67,100,64
1,67,100,64
1,77,100,2752
1,74,100,128
1,72,100,64
1,72,100,32
1,72,100,32
1,70,100,32
1,74,100,32
1,74,100,64
1,72,100,32
1,71,100,64
1,67,100,32
1,77,100,768
1,74,100,32
1,72,100,32
1,70,100,32
1,72,100,32
1,72,100,32
1,72,100,32
1,70,100,32
1,74,100,32
1,74,100,64
1,72,100,64
1,71,100,32
1,67,100,32
1,77,100,768
1,74,100,128
1,74,100,32
1,79,100,32
1,77,100,32
1,74,100,64
1,74,100,96
1,72,100,64
1,71,100,32
1,67,100,32
1,71,100,64
1,71,100,64
1,71,100,352
1,71,100,32
1,74,100,64
1,74,100,32
1,76,100,32
1,74,100,32
1,74,100,64
1,71,100,64
1,74,100,32
1,72,100,17696
1,72,100,32
1,72,100,32
1,74,100,32
1,77,100,32
1,74,100,96
1,72,100,32
1,65,100,1472
1,72,100,32
1,72,100,64
1,72,100,32
1,74,100,32
1,72,100,64
1,70,100,64
1,72,100,3488
1,72,100,32
1,72,100,32
1,74,100,32
1,77,100,32
1,74,100,96
1,72,100,32
1,72,100,32
1,74,100,64
1,65,100,352
1,74,100,32
1,72,100,32
1,72,100,32
1,70,100,32
1,70,100,32
1,69,100,64
1,69,100,32
1,67,100,32
1,65,100,32
1,72,100,288
1,72,100,32
1,74,100,32
1,77,100,32
1,74,100,96
1,72,100,32
1,72,100,32
1,72,100,64
1,65,100,256
1,65,100,32
1,69,100,32
1,72,100,32
1,72,100,64
1,72,100,64
1,69,100,32
1,74,100,32
1,72,100,64
1,72,100,64
1,69,100,96
1,67,100,64
1,65,100,32
1,72,100,896
1,74,100,32
1,77,100,32
1,74,100,96
1,72,100,4
1,71,100,32
1,67,100,32
1,67,100,64
1,70,100,640
1,67,100,96
1,65,100,64
1,67,100,32
1,70,100,256
1,72,100,32
1,74,100,32
1,74,100,32
1,74,100,32
1,74,100,32
1,72,100,32
1,70,100,32
1,67,100,32
1,65,100,32
1,67,100,32
1,72,100,1024
1,74,100,32
1,76,100,32
1,72,100,32
1,74,100,32
1,71,100,64
1,74,100,832
1,76,100,32
1,77,100,32
1,77,100,32
1,76,100,32
1,74,100,64
1,76,100,32
1,77,100,32
1,76,100,96
1,74,100,128
1,74,100,32
1,72,100,96
1,76,100,96
1,74,100,32
1,74,100,0
1,71,100,32
1,71,100,64
1,69,100,32
1,67,100,32
1,72,100,1216
1,76,100,32
1,74,100,64
1,74,100,32
1,71,100,64
1,74,100,832
1,76,100,32
1,77,100,32
1,77,100,32
1,76,100,32
1,74,100,64
1,76,100,32
1,77,100,32
1,76,100,96
1,74,100,128
1,74,100,32
1,72,100,96
1,76,100,96
1,74,100,32
1,71,100,0
1,71,100,64
1,71,100,32
1,69,100,32
1,67,100,32
1,64,100,2560
1,67,100,32
1,70,100,32
1,70,100,32
1,69,100,32
1,67,100,32
1,67,100,32
1,67,100,64
1,67,100,64
1,77,100,1792
1,74,100,64
1,74,100,32
1,72,100,32
1,70,100,64
1,70,100,32
1,67,100,32
1,67,100,192
1,76,100,1120
1,79,100,32
1,79,100,32
1,76,100,32
1,79,100,32
1,79,100,128
1,76,100,64
1,79,100,32
2,43,100,0
2,43,100,160
2,43,100,32
2,43,100,256
2,43,100,160
2,43,100,32
2,43,100,256
2,43,100,160
2,43,100,32
2,43,100,256
2,36,100,96
2,36,100,128
2,36,100,32
2,43,100,256
2,43,100,160
2,43,100,32
2,43,100,256
2,43,100,160
2,43,100,32
2,43,100,256
2,43,100,160
2,43,100,32
2,43,100,256
2,36,100,96
2,36,100,128
2,36,100,32
2,41,100,256
2,41,100,256
2,43,100,256
2,48,100,128
2,48,100,128
2,39,100,256
2,39,100,256
2,38,100,256
2,40,100,256
2,41,100,256
2,41,100,256
2,43,100,256
2,48,100,128
2,48,100,128
2,39,100,256
2,39,100,256
2,38,100,256
2,40,100,256
2,41,100,128
2,43,100,128
2,43,100,160
2,43,100,32
2,43,100,256
2,43,100,160
2,43,100,32
2,43,100,256
2,43,100,160
2,43,100,32
2,43,100,256
2,36,100,96
2,36,100,128
2,36,100,32
2,43,100,256
2,43,100,160
2,43,100,32
2,43,100,256
2,43,100,160
2,43,100,32
2,43,100,256
2,43,100,160
2,43,100,32
2,43,100,256
2,36,100,96
2,36,100,128
2,36,100,32
2,50,100,256
2,48,100,96
2,48,100,224
2,41,100,128
2,43,100,128
2,43,100,160
2,43,100,32
2,43,100,256
2,48,100,128
2,48,100,128
2,41,100,256
2,41,100,256
2,43,100,256
2,48,100,128
2,48,100,128
2,39,100,256
2,39,100,256
2,38,100,256
2,40,100,256
2,41,100,256
2,41,100,256
2,43,100,256
2,48,100,128
2,48,100,128
2,39,100,256
2,39,100,256
2,38,100,256
2,40,100,256
2,41,100,128
2,43,100,128
2,43,100,160
2,43,100,32
2,43,100,256
2,43,100,160
2,43,100,32
2,43,100,256
2,43,100,160
2,43,100,32
2,43,100,256
2,36,100,96
2,36,100,128
2,36,100,32
2,43,100,256
2,43,100,160
2,43,100,32
2,43,100,256
2,43,100,160
2,43,100,32
2,43,100,256
2,43,100,160
2,43,100,32
2,43,100,256
2,36,100,96
2,36,100,128
2,36,100,32
2,50,100,256
2,48,100,96
2,48,100,224
2,41,100,128
2,43,100,128
2,43,100,160
2,43,100,32
2,43,100,256
2,48,100,128
2,48,100,128
2,45,100,64
2,46,100,64
2,46,100,192
2,41,100,64
2,41,100,128
2,43,100,128
2,43,100,288
2,43,100,32
2,45,100,192
2,46,100,64
2,46,100,192
2,41,100,64
2,41,100,128
2,43,100,128
2,43,100,128
2,43,100,96
2,43,100,32
2,45,100,192
2,46,100,64
2,46,100,192
2,41,100,64
2,41,100,128
2,43,100,128
2,43,100,128
2,48,100,128
2,48,100,128
2,45,100,128
2,45,100,128
2,43,100,128
2,43,100,128
2,43,100,128
2,48,100,128
2,43,100,128
2,43,100,128
2,43,100,128
2,48,100,128
2,43,100,128
2,43,100,128
2,43,100,128
2,48,100,128
2,43,100,128
2,43,100,128
2,43,100,128
2,48,100,128
2,47,100,128
2,47,100,128
2,48,100,128
2,48,100,128
2,50,100,128
2,50,100,128
2,50,100,128
2,50,100,128
2,47,100,128
2,47,100,128
2,48,100,128
2,48,100,128
2,38,100,128
2,44,100,508
2,49,100,192
2,44,100,192
2,42,100,192
2,44,100,192
2,43,100,128
2,41,100,128
2,38,100,128
2,36,100,128
2,34,100,96
2,44,100,480
2,49,100,192
2,44,100,192
2,42,100,192
2,44,100,192
2,43,100,128
2,41,100,128
2,38,100,128
2,36,100,128
2,34,100,96
2,34,100,480
2,34,100,540
2,34,100,32
2,34,100,540
2,34,100,32
2,34,100,540
2,34,100,32
2,34,100,540
2,41,100,32
2,41,100,256
2,43,100,256
2,48,100,128
2,48,100,128
2,39,100,256
2,39,100,256
2,38,100,256
2,40,100,256
2,41,100,128
2,43,100,128
2,43,100,160
2,43,100,32
2,43,100,256
2,43,100,160
2,43,100,32
2,43,100,256
2,43,100,160
2,43,100,32
2,43,100,256
2,36,100,96
2,36,100,128
2,36,100,32
2,43,100,256
2,43,100,160
2,43,100,32
2,43,100,256
2,43,100,160
2,43,100,32
2,43,100,256
2,43,100,160
2,43,100,32
2,43,100,256
2,36,100,96
2,36,100,128
2,36,100,32
2,50,100,256
2,48,100,96
2,48,100,28
2,41,100,384
2,43,100,128
2,43,100,160
2,43,100,32
2,43,100,256
2,48,100,128
2,48,100,128
2,41,100,128
2,43,100,128
2,43,100,160
2,43,100,32
2,43,100,256
2,48,100,128
2,48,100,128
2,48,100,128
2,43,100,128
2,43,100,128
2,43,100,128
2,48,100,128
2,43,100,128
2,43,100,128
2,43,100,128
2,48,100,128
2,43,100,128
2,43,94,128
2,43,88,128
2,48,82,128
2,43,75,128
2,43,69,128
2,43,63,128
2,48,57,128
2,43,50,128
2,43,44,128
2,43,38,128
2,48,32,128
2,43,25,128
2,43,19,128
2,43,13,128
2,48,7,128
3,60,100,0
3,67,100,0
3,60,100,4
3,67,100,0
3,60,100,4
3,67,100,0
3,67,100,4
3,60,100,0
3,67,100,4
3,62,100,0
3,60,100,0
3,55,100,0
3,60,100,100
3,67,100,0
3,60,100,4
3,67,100,0
3,60,100,4
3,67,100,0
3,67,100,4
3,60,100,0
3,67,100,4
3,62,100,0
3,60,100,0
3,55,100,0
3,60,100,100
3,65,100,0
3,69,100,0
3,62,100,4
3,67,100,0
3,60,100,4
3,67,100,0
3,62,100,0
3,70,100,4
3,63,100,0
3,65,100,0
3,70,100,4
3,65,100,0
3,62,100,0
3,67,100,4
3,64,100,0
3,60,100,0
3,60,100,4
3,65,100,0
3,69,100,0
3,62,100,4
3,67,100,0
3,60,100,4
3,67,100,0
3,62,100,0
3,70,100,4
3,63,100,0
3,65,100,0
3,70,100,4
3,65,100,0
3,62,100,0
3,64,100,4
3,60,100,0
3,67,100,0
3,65,100,4
3,69,100,0
3,60,100,0
3,60,100,4
3,67,100,0
3,60,100,4
3,67,100,0
3,60,100,4
3,67,100,0
3,67,100,4
3,60,100,0
3,67,100,4
3,62,100,0
3,60,100,0
3,55,100,0
3,60,100,100
3,67,100,0
3,60,100,4
3,67,100,0
3,60,100,4
3,67,100,0
3,67,100,4
3,60,100,0
3,67,100,4
3,62,100,0
3,60,100,0
3,55,100,0
3,65,100,100
3,60,100,0
3,57,100,0
3,64,100,4
3,60,100,0
3,55,100,0
3,67,100,100
3,57,100,0
3,60,100,0
3,67,100,4
3,62,100,0
3,67,100,4
3,62,100,0
3,60,100,0
3,60,100,100
3,65,100,0
3,69,100,0
3,62,100,4
3,67,100,0
3,60,100,4
3,67,100,0
3,62,100,0
3,70,100,4
3,63,100,0
3,65,100,0
3,70,100,4
3,65,100,0
3,62,100,0
3,67,100,4
3,64,100,0
3,60,100,0
3,60,100,4
3,65,100,0
3,69,100,0
3,62,100,4
3,67,100,0
3,60,100,4
3,67,100,0
3,62,100,0
3,70,100,4
3,63,100,0
3,65,100,0
3,70,100,4
3,65,100,0
3,62,100,0
3,64,100,4
3,60,100,0
3,67,100,0
3,65,100,4
3,69,100,0
3,60,100,0
3,60,100,4
3,67,100,0
3,60,100,4
3,67,100,0
3,60,100,4
3,67,100,0
3,67,100,4
3,60,100,0
3,67,100,4
3,62,100,0
3,60,100,0
3,55,100,0
3,60,100,100
3,67,100,0
3,60,100,4
3,67,100,0
3,60,100,4
3,67,100,0
3,67,100,4
3,60,100,0
3,67,100,4
3,62,100,0
3,60,100,0
3,55,100,0
3,65,100,100
3,60,100,0
3,57,100,0
3,64,100,4
3,60,100,0
3,55,100,0
3,67,100,100
3,57,100,0
3,60,100,0
3,67,100,4
3,62,100,0
3,67,100,4
3,62,100,0
3,60,100,0
3,72,100,1056
3,69,100,0
3,65,100,0
3,74,100,64
3,70,100,0
3,65,100,0
3,72,100,4
3,69,100,0
3,65,100,0
3,72,100,4
3,67,100,0
3,72,100,4
3,69,100,0
3,65,100,0
3,74,100,4
3,70,100,0
3,65,100,0
3,72,100,4
3,69,100,0
3,65,100,0
3,72,100,4
3,67,100,0
3,72,100,4
3,69,100,0
3,65,100,0
3,74,100,4
3,70,100,0
3,65,100,0
3,72,100,4
3,69,100,0
3,65,100,0
3,74,100,4
3,67,100,0
3,60,100,4
3,69,100,0
3,62,100,0
3,69,100,4
3,67,100,0
3,74,100,256
3,67,100,0
3,74,100,4
3,72,100,0
3,67,100,0
3,74,100,4
3,67,100,0
3,74,100,4
3,72,100,0
3,67,100,0
3,74,100,4
3,67,100,0
3,74,100,4
3,72,100,0
3,67,100,0
3,74,100,4
3,67,100,0
3,74,100,4
3,72,100,0
3,67,100,0
3,55,100,4
3,62,100,0
3,69,100,0
3,55,100,4
3,62,100,0
3,69,100,0
3,69,100,4
3,62,100,0
3,55,100,0
3,55,100,4
3,62,100,0
3,69,100,0
3,55,100,4
3,62,100,0
3,69,100,0
3,69,100,4
3,62,100,0
3,55,100,0
3,65,110,4
3,57,110,0
3,60,110,0
3,70,110,4
3,65,110,0
3,62,110,0
3,65,110,4
3,60,110,0
3,57,110,0
3,63,110,28
3,55,110,0
3,59,110,0
3,65,110,4
3,60,110,0
3,57,110,0
3,65,110,4
3,69,110,0
3,60,110,0
3,64,110,4
3,60,110,0
3,67,110,0
3,64,110,4
3,60,110,0
3,55,110,0
3,69,110,4
3,60,110,0
3,62,110,0
3,60,110,4
3,58,110,0
3,65,110,0
3,65,110,100
3,57,110,0
3,60,110,0
3,70,110,4
3,65,110,0
3,62,110,0
3,65,110,4
3,60,110,0
3,57,110,0
3,63,110,28
3,55,110,0
3,59,110,0
3,65,110,4
3,60,110,0
3,57,110,0
