track,note,velocity,time
1,45,79,4584
1,57,91,16
1,45,76,244
1,57,77,0
1,42,88,188
1,54,100,8
1,50,81,228
1,62,86,4
1,45,58,1528
1,57,73,12
1,45,80,240
1,57,78,0
1,54,68,200
1,42,88,0
1,50,74,232
1,62,76,0
1,45,79,1384
1,57,91,16
1,45,76,244
1,57,77,0
1,42,88,188
1,54,100,8
1,50,81,228
1,62,86,4
1,45,79,1492
1,57,91,16
1,45,76,244
1,57,77,0
1,42,88,188
1,54,100,8
1,50,81,228
1,62,86,4
1,62,85,163956
1,57,96,0
1,50,99,8
2,64,103,4632
2,64,92,76
2,71,111,8
2,71,111,136
2,64,90,16
2,71,114,108
2,64,103,2244
2,64,99,96
2,71,114,36
2,71,105,120
2,64,101,28
2,68,116,156
2,66,118,208
2,64,101,1896
2,64,97,84
2,71,109,8
2,71,107,124
2,64,88,12
2,71,114,132
2,64,106,2256
2,64,96,92
2,71,110,24
2,71,105,128
2,64,94,8
2,68,113,128
2,66,116,256
2,64,103,1896
2,64,92,76
2,71,111,8
2,71,111,136
2,64,90,16
2,71,114,108
2,64,103,2244
2,64,99,96
2,71,114,36
2,71,105,120
2,64,101,28
2,68,116,156
2,66,118,208
2,64,103,1896
2,64,92,76
2,71,111,8
2,71,111,136
2,64,90,16
2,71,114,108
2,64,103,2244
2,64,99,96
2,71,114,36
2,71,105,120
2,64,101,28
2,68,116,156
2,66,118,208
3,52,72,96
3,64,69,0
3,59,74,8
3,71,76,748
3,69,78,556
3,76,71,532
3,59,127,12940
3,52,127,0
3,57,127,192
3,59,127,4800
3,52,127,0
3,57,127,192
3,59,127,4616
3,61,127,52
3,64,127,4
3,64,127,44
3,64,127,60
3,59,127,8
3,59,127,116
3,61,127,64
3,59,127,40
3,59,127,40
3,59,127,60
3,59,127,92
3,59,127,100
3,61,127,52
3,54,127,100
3,52,127,28
3,52,127,80
3,59,127,300
3,61,127,72
3,64,127,0
3,64,127,64
3,64,127,84
3,59,127,52
3,59,127,144
3,61,127,108
3,59,127,28
3,59,127,64
3,59,127,80
3,59,127,120
3,59,127,120
3,61,127,24
3,54,127,192
3,52,127,48
3,52,127,108
3,62,127,500
3,62,127,52
3,66,127,36
3,64,127,36
3,64,127,84
3,61,127,96
3,59,127,76
3,61,127,104
3,62,127,52
3,64,127,84
3,66,127,84
3,66,127,40
3,66,127,44
3,64,127,44
3,64,127,88
3,66,127,32
3,59,127,596
3,62,127,32
3,64,127,32
3,66,127,96
3,66,127,128
3,64,127,512
3,61,127,64
3,59,127,64
3,61,127,64
3,59,127,128
3,57,127,64
3,59,127,64
3,57,127,64
3,57,127,64
3,66,127,756
3,64,127,196
3,61,127,308
3,62,127,80
3,64,127,20
3,64,127,68
3,64,127,160
3,66,127,4
3,61,127,336
3,64,127,8
3,64,127,64
3,64,127,72
3,66,127,64
3,66,127,64
3,64,127,48
3,64,127,124
3,66,127,28
3,61,127,220
3,62,127,96
3,64,127,12
3,64,127,124
3,64,127,196
3,66,127,12
3,61,127,572
3,64,127,4
3,64,127,104
3,64,127,84
3,69,127,64
3,66,127,64
3,64,127,48
3,64,127,64
3,66,127,160
3,64,127,232
3,61,127,260
3,59,127,76
3,57,127,0
3,64,127,4
3,62,127,384
3,61,127,44
3,59,127,8
3,62,127,8
3,61,127,12
3,59,127,3772
3,61,127,76
3,64,127,4
3,64,127,44
3,64,127,52
3,59,127,16
3,59,127,96
3,61,127,68
3,59,127,56
3,59,127,60
3,59,127,56
3,59,127,112
3,59,127,104
3,61,126,24
3,54,127,136
3,52,127,24
3,52,127,96
3,59,127,340
3,61,127,88
3,64,127,32
3,64,127,48
3,64,127,68
3,59,127,32
3,59,127,148
3,61,127,64
3,59,127,100
3,59,127,76
3,59,127,68
3,59,127,116
3,59,127,108
3,61,127,36
3,54,127,196
3,52,127,56
3,52,127,104
3,62,127,544
3,62,127,56
3,66,127,36
3,64,127,52
3,64,127,84
3,61,127,100
3,59,127,52
3,61,127,76
3,62,127,56
3,64,127,88
3,66,127,92
3,66,127,56
3,66,127,64
3,64,127,44
3,64,127,80
3,66,127,72
3,59,127,784
3,62,127,32
3,64,127,32
3,66,127,96
3,66,127,128
3,64,127,512
3,61,127,64
3,59,127,64
3,61,127,64
3,59,127,128
3,57,127,64
3,59,127,64
3,57,127,64
3,57,127,64
3,66,127,1252
3,64,127,12
3,61,127,220
3,62,127,96
3,64,127,20
3,64,127,104
3,64,127,208
3,66,127,12
3,61,127,452
3,64,127,8
3,64,127,100
3,64,127,64
3,66,127,20
3,64,127,8
3,64,127,132
3,66,127,16
3,61,127,212
3,62,127,92
3,64,127,0
3,64,127,88
3,64,127,140
3,65,127,8
3,66,127,12
3,61,127,444
3,64,127,8
3,64,127,92
3,69,127,172
3,66,127,72
3,64,127,12
3,64,127,136
3,66,127,216
3,64,127,260
3,61,127,248
3,59,127,76
3,57,127,20
3,64,127,176
3,62,127,148
3,61,127,76
3,59,127,28
3,62,127,72
3,59,127,84
3,62,127,23772
3,62,127,52
3,66,127,36
3,64,127,36
3,64,127,84
3,61,127,96
3,59,127,76
3,61,127,104
3,62,127,52
3,64,127,84
3,66,127,84
3,66,127,40
3,66,127,44
3,64,127,44
3,64,127,88
3,66,127,32
3,59,127,596
3,62,127,32
3,64,127,32
3,66,127,96
3,66,127,128
3,64,127,512
3,61,127,64
3,59,127,64
3,61,127,64
3,59,127,128
3,57,127,64
3,59,127,64
3,57,127,64
3,57,127,64
3,66,127,756
3,64,127,196
3,61,127,308
3,62,127,80
3,64,127,52
3,64,127,104
3,64,127,208
3,66,127,12
3,61,127,452
3,64,127,8
3,64,127,100
3,64,127,64
3,66,127,20
3,64,127,8
3,64,127,132
3,66,127,16
3,61,127,212
3,62,127,92
3,64,127,0
3,64,127,88
3,64,127,140
3,65,127,8
3,66,127,12
3,61,127,444
3,64,127,8
3,64,127,92
3,69,127,172
3,66,127,72
3,64,127,12
3,64,127,136
3,66,127,216
3,64,127,260
3,61,127,248
3,64,127,20
3,59,127,56
3,57,127,20
3,64,127,104
3,64,127,176
3,64,127,208
3,62,127,148
3,66,127,8
3,61,127,68
3,59,127,28
3,61,127,448
3,64,127,8
3,64,127,100
3,64,127,64
3,66,127,20
3,64,127,8
3,64,127,132
3,66,127,16
3,61,127,212
3,62,127,92
3,64,127,0
3,64,127,88
3,64,127,140
3,65,127,8
3,66,127,12
3,61,127,444
3,64,127,8
3,64,127,92
3,69,127,172
3,66,127,72
3,64,127,12
3,64,127,136
3,66,127,216
3,64,127,260
4,71,127,29000
4,73,127,52
4,76,127,4
4,76,127,44
4,76,127,60
4,71,127,8
4,71,127,116
4,73,127,64
4,71,127,40
4,71,127,40
4,71,127,60
4,71,127,92
4,71,127,100
4,73,127,52
4,66,127,100
4,64,127,28
4,64,127,80
4,71,127,300
4,73,127,72
4,76,127,0
4,76,127,64
4,76,127,84
4,71,127,52
4,71,127,144
4,73,127,108
4,71,127,28
4,71,127,64
4,71,127,80
4,71,127,120
4,71,127,120
4,73,127,24
4,66,127,192
4,64,127,48
4,64,127,108
4,74,127,500
4,74,127,52
4,78,127,36
4,76,127,36
4,76,127,84
4,73,127,96
4,71,127,76
4,73,127,104
4,74,127,52
4,76,127,84
4,78,127,84
4,78,127,40
4,78,127,44
4,76,127,44
4,76,127,88
4,78,127,32
4,71,127,596
4,74,127,32
4,76,127,32
4,78,127,96
4,78,127,128
4,76,127,512
4,73,127,64
4,71,127,64
4,73,127,64
4,71,127,128
4,69,127,64
4,71,127,64
4,69,127,64
4,69,127,64
4,78,127,756
4,76,127,196
4,73,127,308
4,74,127,80
4,76,127,20
4,76,127,68
4,76,127,160
4,78,127,4
4,73,127,336
4,76,127,8
4,76,127,64
4,76,127,72
4,78,127,64
4,78,127,64
4,76,127,48
4,76,127,124
4,78,127,28
4,73,127,220
4,74,127,96
4,76,127,12
4,76,127,124
4,76,127,196
4,78,127,12
4,73,127,572
4,76,127,4
4,76,127,104
4,76,127,84
4,81,127,64
4,78,127,64
4,76,127,48
4,76,127,64
4,78,127,160
4,76,127,232
4,73,127,260
4,71,127,76
4,69,127,0
4,76,127,4
4,74,127,384
4,73,127,44
4,71,127,8
4,74,127,8
4,73,127,12
4,71,127,3772
4,73,127,76
4,76,127,4
4,76,127,44
4,76,127,52
4,71,127,16
4,71,127,96
4,73,127,68
4,71,127,56
4,71,127,60
4,71,127,56
4,71,127,112
4,71,127,104
4,73,126,24
4,66,127,136
4,64,127,24
4,64,127,96
4,71,127,340
4,73,127,88
4,76,127,32
4,76,127,48
4,76,127,68
4,71,127,32
4,71,127,148
4,73,127,64
4,71,127,100
4,71,127,76
4,71,127,68
4,71,127,116
4,71,127,108
4,73,127,36
4,66,127,196
4,64,127,56
4,64,127,104
4,74,127,544
4,74,127,56
4,78,127,36
4,76,127,52
4,76,127,84
4,73,127,100
4,71,127,52
4,73,127,76
4,74,127,56
4,76,127,88
4,78,127,92
4,78,127,56
4,78,127,64
4,76,127,44
4,76,127,80
4,78,127,72
4,71,127,784
4,74,127,32
4,76,127,32
4,78,127,96
4,78,127,128
4,76,127,512
4,73,127,64
4,71,127,64
4,73,127,64
4,71,127,128
4,69,127,64
4,71,127,64
4,69,127,64
4,69,127,64
4,78,127,1252
4,76,127,12
4,73,127,220
4,74,127,96
4,76,127,20
4,76,127,104
4,76,127,208
4,78,127,12
4,73,127,452
4,76,127,8
4,76,127,100
4,76,127,64
4,78,127,20
4,76,127,8
4,76,127,132
4,78,127,16
4,73,127,212
4,74,127,92
4,76,127,0
4,76,127,88
4,76,127,140
4,77,127,8
4,78,127,12
4,73,127,444
4,76,127,8
4,76,127,92
4,81,127,172
4,78,127,72
4,76,127,12
4,76,127,136
4,78,127,216
4,76,127,364
4,73,127,64
4,71,127,64
4,69,127,32
4,76,127,800
4,74,127,64
4,73,127,64
4,69,127,32
4,73,127,800
4,71,127,64
4,74,127,23560
4,74,127,52
4,78,127,36
4,76,127,36
4,76,127,84
4,73,127,96
4,71,127,76
4,73,127,104
4,74,127,52
4,76,127,84
4,78,127,84
4,78,127,40
4,78,127,44
4,76,127,44
4,76,127,88
4,78,127,32
4,71,127,596
4,74,127,32
4,76,127,32
4,78,127,96
4,78,127,128
4,76,127,512
4,73,127,64
4,71,127,64
4,73,127,64
4,71,127,128
4,69,127,64
4,71,127,64
4,69,127,64
4,69,127,64
4,78,127,756
4,76,127,196
4,73,127,308
4,74,127,80
4,76,127,52
4,76,127,104
4,76,127,208
4,78,127,12
4,73,127,452
4,76,127,8
4,76,127,100
4,76,127,64
4,78,127,20
4,76,127,8
4,76,127,132
4,78,127,16
4,73,127,212
4,74,127,92
4,76,127,0
4,76,127,88
4,76,127,140
4,77,127,8
4,78,127,12
4,73,127,444
4,76,127,8
4,76,127,92
4,81,127,172
4,78,127,72
4,76,127,12
4,76,127,136
4,78,127,216
4,73,127,364
4,74,127,32
4,76,127,76
4,76,127,104
4,76,127,208
4,78,127,12
4,73,127,452
4,76,127,8
4,76,127,100
4,76,127,64
4,78,127,20
4,76,127,8
4,76,127,132
4,78,127,16
4,73,127,212
4,74,127,92
4,76,127,0
4,76,127,88
4,76,127,140
4,77,127,8
4,78,127,12
4,73,127,444
4,76,127,8
4,76,127,92
4,81,127,172
4,78,127,72
4,76,127,12
4,76,127,136
4,78,127,216
4,76,127,364
4,76,127,0
4,73,127,256
4,71,127,64
4,69,127,32
4,76,127,800
4,74,127,64
4,73,127,64
4,69,127,32
4,73,127,608
4,71,127,128
4,62,127,11392
5,52,100,29184
5,52,100,64
5,59,100,32
5,59,100,128
5,52,100,32
5,59,100,64
5,59,100,64
5,52,100,448
5,52,100,64
5,59,100,32
5,59,100,128
5,52,100,32
5,59,100,64
5,59,100,64
5,49,100,448
5,49,100,64
5,56,100,32
5,56,100,128
5,49,100,32
5,56,100,64
5,56,100,64
5,50,100,448
5,50,100,64
5,54,100,32
5,54,100,128
5,50,100,32
5,54,100,64
5,54,100,64
5,52,100,448
5,52,100,64
5,59,100,32
5,59,100,128
5,52,100,32
5,59,100,64
5,59,100,64
5,52,100,448
5,52,100,64
5,59,100,32
5,59,100,128
5,52,100,32
5,59,100,64
5,59,100,64
5,49,100,448
5,49,100,64
5,56,100,32
5,56,100,128
5,49,100,32
5,56,100,64
5,56,100,64
5,50,100,448
5,50,100,64
5,54,100,32
5,54,100,128
5,50,100,32
5,54,100,64
5,54,100,64
5,57,100,448
5,59,100,0
5,62,100,0
5,54,100,0
5,57,100,192
5,54,100,0
5,62,100,0
5,61,100,192
5,57,100,0
5,54,100,0
5,59,100,192
5,56,100,0
5,52,100,0
5,57,100,448
5,59,100,0
5,62,100,0
5,54,100,0
5,57,100,192
5,54,100,0
5,62,100,0
5,61,100,192
5,57,100,0
5,54,100,0
5,59,100,192
5,56,100,0
5,52,100,0
5,59,100,64
5,56,100,0
5,52,100,0
5,61,100,256
5,57,100,0
5,54,100,0
5,59,100,192
5,56,100,0
5,52,100,0
5,57,100,448
5,59,100,0
5,62,100,0
5,54,100,0
5,57,100,192
5,54,100,0
5,62,100,0
5,74,100,192
5,69,100,0
5,66,100,0
5,74,100,64
5,69,100,0
5,66,100,0
5,69,100,32
5,66,100,0
5,74,100,0
5,74,100,128
5,69,100,0
5,66,100,0
5,74,100,32
5,69,100,0
5,66,100,0
5,74,100,64
5,69,100,0
5,66,100,0
5,74,100,64
5,69,100,0
5,66,100,0
5,69,100,32
5,66,100,0
5,74,100,0
5,74,100,32
5,69,100,0
5,66,100,0
5,74,100,64
5,69,100,0
5,66,100,0
5,69,100,32
5,66,100,0
5,74,100,0
5,74,100,32
5,69,100,0
5,66,100,0
5,74,100,64
5,69,100,0
5,66,100,0
5,69,100,32
5,66,100,0
5,74,100,0
5,74,100,128
5,69,100,0
5,66,100,0
5,74,100,32
5,69,100,0
5,66,100,0
5,74,100,64
5,69,100,0
5,66,100,0
5,74,100,64
5,69,100,0
5,66,100,0
5,69,100,32
5,66,100,0
5,74,100,0
5,74,100,32
5,69,100,0
5,66,100,0
5,64,100,128
5,69,100,0
5,64,100,128
5,69,100,0
5,64,100,128
5,69,100,0
5,64,100,128
5,69,100,0
5,64,100,128
5,69,100,0
5,64,100,128
5,69,100,0
5,64,100,128
5,69,100,0
5,64,100,128
5,69,100,0
5,64,100,128
5,69,100,0
5,64,100,128
5,69,100,0
5,64,100,128
5,69,100,0
5,64,100,128
5,69,100,0
5,64,100,128
5,69,100,0
5,64,100,128
5,69,100,0
5,64,100,128
5,69,100,0
5,64,100,128
5,69,100,0
5,64,100,128
5,69,100,0
5,64,100,128
5,69,100,0
5,64,100,128
5,69,100,0
5,64,100,128
5,69,100,0
5,64,100,128
5,69,100,0
5,64,100,128
5,69,100,0
5,64,100,128
5,69,100,0
5,64,100,128
5,69,100,0
5,64,100,128
5,69,100,0
5,64,100,128
5,69,100,0
5,64,100,128
5,69,100,0
5,64,100,128
5,69,100,0
5,64,100,128
5,69,100,0
5,64,100,128
5,69,100,0
5,64,100,128
5,69,100,0
5,64,100,128
5,69,100,0
5,64,100,128
5,61,100,0
5,69,100,0
5,69,100,508
5,66,100,0
5,62,100,0
5,52,100,508
5,52,100,64
5,59,100,32
5,59,100,128
5,52,100,32
5,59,100,64
5,59,100,64
5,52,100,448
5,52,100,64
5,59,100,32
5,59,100,128
5,52,100,32
5,56,100,64
5,54,100,128
5,52,100,128
5,52,100,64
5,59,100,32
5,59,100,128
5,52,100,32
5,59,100,64
5,59,100,64
5,52,100,448
5,52,100,64
5,59,100,32
5,59,100,128
5,52,100,32
5,56,100,64
5,54,100,128
5,52,100,128
5,52,100,64
5,59,100,32
5,59,100,128
5,52,100,32
5,59,100,64
5,59,100,64
5,52,100,448
5,52,100,64
5,59,100,32
5,59,100,128
5,52,100,32
5,59,100,64
5,59,100,64
5,49,100,448
5,49,100,64
5,56,100,32
5,56,100,128
5,49,100,32
5,56,100,64
5,56,100,64
5,50,100,448
5,50,100,64
5,54,100,32
