track,note,velocity,time
1,63,100,29376
1,63,100,0
1,66,100,0
1,66,100,64
1,66,100,0
1,66,100,0
1,66,100,0
1,68,100,0
1,63,100,1728
1,63,100,0
1,63,100,24
1,61,100,0
1,61,100,24
1,59,100,0
1,61,100,24
1,59,100,0
1,59,100,0
1,63,100,832
1,66,100,0
1,66,100,0
1,66,100,24
1,66,100,0
1,66,100,0
1,68,100,0
1,59,100,1728
1,59,100,0
1,63,100,0
1,63,100,16
1,63,100,0
1,61,100,0
1,61,100,0
1,61,100,0
1,61,100,0
1,59,100,0
1,61,100,16
1,59,100,0
1,59,100,16
1,63,100,768
1,61,100,0
1,61,100,0
1,54,100,192
1,63,100,0
1,64,100,0
1,64,100,0
1,63,100,0
1,63,100,24
1,61,100,24
1,61,100,24
1,59,100,0
1,59,100,24
1,56,100,0
1,63,100,1536
1,61,100,0
1,61,100,0
1,54,100,192
1,63,100,0
1,64,100,0
1,64,100,24
1,63,100,0
1,63,100,24
1,61,100,0
1,61,100,0
1,63,100,0
1,61,100,0
1,59,100,0
1,56,100,0
1,63,100,384
1,66,100,0
1,66,100,0
1,66,100,24
1,66,100,0
1,66,100,0
1,66,100,0
1,68,100,24
1,63,100,384
1,66,100,0
1,63,100,0
1,66,100,0
1,68,100,0
1,66,100,0
1,63,100,1152
1,66,100,0
1,63,100,0
1,63,100,0
1,61,100,0
1,59,100,0
1,59,100,0
1,56,100,0
1,63,100,768
1,66,100,0
1,63,100,0
1,66,100,0
1,68,100,0
1,66,100,0
1,64,100,576
1,64,64,192
1,63,100,0
1,61,100,32
1,59,100,0
1,63,100,0
1,63,64,384
1,56,100,24
1,56,100,0
1,59,100,0
1,59,100,0
1,59,100,0
1,59,100,0
1,63,100,192
1,63,100,0
1,66,100,0
1,66,100,64
1,66,100,0
1,66,100,0
1,66,100,0
1,68,100,0
1,63,100,1728
1,63,100,0
1,63,100,24
1,61,100,0
1,61,100,24
1,59,100,0
1,61,100,24
1,59,100,0
1,59,100,0
1,63,100,832
1,66,100,0
1,66,100,0
1,66,100,24
1,66,100,0
1,66,100,0
1,68,100,0
1,59,100,1728
1,63,100,0
1,63,100,16
1,63,100,0
1,61,100,0
1,61,100,0
1,59,100,0
1,61,100,16
1,59,100,0
1,59,100,16
1,63,100,768
1,61,100,0
1,61,100,0
1,54,100,192
1,63,100,0
1,64,100,0
1,64,100,0
1,63,100,0
1,63,100,24
1,61,100,24
1,61,100,24
1,59,100,0
1,59,100,24
1,56,100,0
1,63,100,1536
1,61,100,0
1,61,100,0
1,54,100,192
1,63,100,0
1,64,100,0
1,64,100,24
1,63,100,0
1,63,100,24
1,61,100,0
1,61,100,0
1,63,100,0
1,61,100,0
1,59,100,0
1,56,100,0
1,63,100,384
1,66,100,0
1,66,100,0
1,66,100,24
1,66,100,0
1,66,100,0
1,66,100,0
1,68,100,24
1,63,100,384
1,66,100,0
1,63,100,0
1,66,100,0
1,68,100,0
1,66,100,0
1,63,100,1152
1,66,100,0
1,63,100,0
1,63,100,0
1,61,100,0
1,59,100,0
1,59,100,0
1,56,100,0
1,63,100,768
1,66,100,0
1,63,100,0
1,66,100,0
1,68,100,0
1,66,100,0
1,64,100,576
1,64,64,192
1,64,64,0
1,63,100,0
1,61,100,32
1,59,100,0
1,63,100,0
1,63,64,384
1,63,64,0
1,56,100,24
1,56,100,0
1,59,100,0
1,59,100,0
1,59,100,0
1,59,100,0
1,63,100,24576
1,61,100,0
1,61,100,0
1,54,100,192
1,63,100,0
1,64,100,0
1,64,100,0
1,63,100,0
1,63,100,24
1,61,100,24
1,61,100,24
1,59,100,0
1,59,100,24
1,56,100,0
1,63,100,1536
1,61,100,0
1,61,100,0
1,54,100,192
1,63,100,0
1,64,100,0
1,64,100,24
1,63,100,0
1,63,100,24
1,61,100,0
1,61,100,0
1,63,100,0
1,61,100,0
1,59,100,0
1,56,100,0
1,63,100,384
1,66,100,0
1,66,100,0
1,66,100,24
1,66,100,0
1,66,100,0
1,66,100,0
1,68,100,24
1,63,100,384
1,66,100,0
1,63,100,0
1,66,100,0
1,68,100,0
1,66,100,0
1,63,100,1152
1,66,100,0
1,63,100,0
1,63,100,0
1,61,100,0
1,59,100,0
1,59,100,0
1,56,100,0
1,63,100,768
1,66,100,0
1,63,100,0
1,66,100,0
1,68,100,0
1,66,100,0
1,64,100,576
1,64,64,192
1,64,64,0
1,63,100,0
1,61,100,32
1,59,100,0
1,63,100,0
1,63,64,384
1,63,64,0
1,56,100,24
1,56,100,0
1,59,100,0
1,59,100,0
1,59,100,0
1,59,100,0
1,63,100,384
1,66,100,0
1,66,100,960
1,66,64,0
1,66,100,0
1,66,100,0
1,63,100,0
1,59,100,0
1,63,100,0
1,59,100,28
1,63,100,28
1,56,100,0
1,59,100,0
1,64,100,0
1,64,100,0
1,63,100,0
1,63,100,0
1,63,100,0
1,63,100,0
1,63,100,0
1,61,100,0
1,59,100,0
1,63,100,384
1,66,100,0
1,66,64,960
1,66,100,0
1,66,100,0
1,63,100,0
1,59,100,0
1,63,100,0
1,59,100,0
1,63,100,0
1,56,100,0
1,59,100,0
1,64,100,0
1,64,100,0
1,63,100,0
1,63,100,0
1,63,100,0
1,63,100,0
1,63,100,0
1,63,100,0
1,61,100,0
1,59,100,0
1,66,100,1920
1,68,100,0
1,63,100,0
1,63,100,0
1,61,100,0
1,63,100,0
1,59,100,0
1,63,100,0
1,56,100,0
1,59,100,0
1,59,100,0
1,64,100,0
1,63,100,0
1,63,100,0
1,63,100,0
1,63,100,0
1,66,100,0
1,63,100,0
1,61,100,0
1,59,100,0
1,66,100,1920
1,66,100,0
1,63,100,0
1,59,100,0
1,63,100,0
1,56,100,0
1,59,100,0
1,63,100,0
1,56,100,0
1,59,100,0
1,64,100,0
1,64,100,0
1,64,100,0
1,63,100,0
1,63,100,0
1,63,100,0
1,63,100,0
1,63,100,0
1,63,100,0
1,63,100,0
1,61,100,0
1,59,100,0
2,71,100,54144
2,71,100,0
2,71,100,0
2,71,100,0
2,71,100,384
2,71,100,0
2,71,100,0
2,71,100,0
2,71,100,384
2,71,100,0
2,71,100,0
2,71,100,0
2,71,100,28032
2,71,100,0
2,71,100,0
2,71,100,0
2,71,100,384
2,71,100,0
2,71,100,0
2,71,100,0
2,71,100,384
2,71,100,0
2,71,100,0
2,71,100,0
2,71,100,40320
2,71,100,0
2,71,100,0
2,71,100,0
2,71,100,384
2,71,100,0
2,71,100,0
2,71,100,0
2,71,100,384
2,71,100,0
2,71,100,0
2,71,100,0
2,75,100,3456
2,78,100,0
2,75,100,0
2,78,100,0
2,75,100,0
2,78,100,0
2,75,100,0
2,75,100,3456
2,68,100,0
2,78,100,0
2,71,100,0
2,78,100,0
2,71,100,0
2,78,100,0
2,71,100,0
2,75,100,3456
2,68,100,0
2,78,100,0
2,71,100,0
2,78,100,0
2,71,100,0
2,78,100,0
2,71,100,0
2,71,100,3456
2,80,100,0
2,78,100,0
2,71,100,0
2,71,100,0
2,80,100,0
2,78,100,0
2,71,100,0
2,78,100,0
2,71,100,0
3,66,100,54144
3,66,100,0
3,64,100,0
3,63,100,0
3,66,100,384
3,66,100,0
3,64,100,0
3,64,100,0
3,66,100,384
3,66,100,0
3,64,100,0
3,63,100,0
3,66,100,28032
3,66,100,0
3,64,100,0
3,63,100,0
3,66,100,384
3,66,100,0
3,64,100,0
3,64,100,0
3,66,100,384
3,66,100,0
3,64,100,0
3,63,100,0
3,66,100,40320
3,66,100,0
3,64,100,0
3,63,100,0
3,66,100,384
3,66,100,0
3,64,100,0
3,64,100,0
3,66,100,384
3,66,100,0
3,64,100,0
3,63,100,0
3,71,100,3456
3,68,100,0
3,71,100,0
3,66,100,0
3,71,100,0
3,66,100,0
3,71,100,0
3,66,100,0
3,75,100,3456
3,71,100,0
3,75,100,0
3,66,100,0
3,75,100,0
3,66,100,0
3,75,100,0
3,66,100,0
3,75,100,3456
3,71,100,0
3,75,100,0
3,66,100,0
3,75,100,0
3,66,100,0
3,75,100,0
3,66,100,0
3,75,100,3456
3,68,100,0
3,66,100,0
3,75,100,0
3,68,100,0
3,76,100,0
3,75,100,0
3,66,100,0
3,75,100,0
3,66,100,0
4,64,125,9216
4,59,125,0
4,59,125,0
4,66,125,0
4,52,125,0
4,59,125,0
4,59,125,0
4,52,125,0
4,66,125,0
4,59,125,0
4,64,125,0
4,59,125,0
4,59,125,0
4,66,125,0
4,54,125,0
4,61,125,0
4,56,125,0
4,61,125,0
4,54,125,0
4,56,125,0
4,59,125,0
4,52,125,0
4,59,125,0
4,52,125,0
4,53,125,564
4,54,125,8
4,52,125,0
4,55,75,0
4,56,75,0
4,57,75,0
4,58,75,0
4,59,75,0
4,60,75,0
4,61,75,0
4,62,75,0
4,63,75,0
4,64,75,0
4,65,75,0
4,66,75,0
4,67,75,0
4,68,75,0
4,69,75,0
4,70,75,0
4,71,75,0
4,72,75,0
4,73,75,0
4,74,75,0
4,75,75,0
4,76,75,0
4,83,100,4
4,76,100,0
4,83,100,64
4,78,100,0
4,83,100,64
4,78,100,0
4,83,100,128
4,78,100,0
4,83,100,128
4,78,100,0
4,83,100,128
4,80,100,0
4,83,100,64
4,78,100,0
4,83,100,64
4,78,100,0
4,83,100,128
4,78,100,0
4,83,100,128
4,78,100,0
4,83,100,128
4,76,100,0
4,83,100,64
4,78,100,0
4,83,100,64
4,78,100,0
4,83,100,128
4,78,100,0
4,83,100,128
4,78,100,0
4,81,100,64
4,76,100,0
4,81,100,64
4,76,100,0
4,80,100,64
4,76,100,0
4,80,100,64
4,76,100,0
4,80,100,128
4,76,100,0
4,76,100,64
4,78,100,0
4,78,100,64
4,76,100,0
4,76,100,64
4,71,100,0
4,83,100,64
4,76,100,0
4,83,100,64
4,78,100,0
4,83,100,64
4,78,100,0
4,83,100,128
4,78,100,0
4,83,100,128
4,78,100,0
4,83,100,128
4,80,100,0
4,83,100,64
4,78,100,0
4,83,100,64
4,78,100,0
4,83,100,128
4,78,100,0
4,83,100,128
4,78,100,0
4,83,100,128
4,76,100,0
4,83,100,64
4,78,100,0
4,83,100,64
4,78,100,0
4,83,100,128
4,78,100,0
4,83,100,128
4,78,100,0
4,78,100,0
4,76,100,0
4,78,97,128
4,76,97,0
4,78,94,128
4,76,94,0
4,78,90,128
4,76,90,0
4,78,87,128
4,75,87,0
4,78,84,128
4,75,84,0
4,78,80,128
4,73,80,0
4,71,80,0
4,78,77,128
4,73,77,0
4,71,77,0
4,66,75,128
4,63,75,0
4,59,75,0
4,66,75,0
4,63,75,0
4,59,75,0
4,63,75,0
4,66,75,0
4,59,75,0
4,66,75,0
4,64,75,0
4,59,75,0
4,56,75,0
4,66,75,0
4,64,75,0
4,59,75,0
4,56,75,0
4,66,75,0
4,64,75,0
4,59,75,0
4,56,75,0
4,66,75,0
4,64,75,0
4,59,75,0
4,56,75,0
4,66,75,0
4,64,75,0
4,59,75,0
4,56,75,0
4,66,75,0
4,64,75,0
4,59,75,0
4,56,75,0
4,66,75,0
4,61,75,0
4,58,75,0
4,66,75,0
4,64,75,0
4,59,75,0
4,56,75,0
4,66,75,0
4,64,75,0
4,59,75,0
4,56,75,0
4,66,75,0
4,63,75,0
4,59,75,0
4,66,75,0
4,63,75,0
4,59,75,0
4,63,75,0
4,66,75,0
4,59,75,0
4,66,75,0
4,64,75,0
4,59,75,0
4,56,75,0
4,66,75,0
4,64,75,0
4,59,75,0
4,56,75,0
4,66,75,0
4,64,75,0
4,59,75,0
4,56,75,0
4,66,75,0
4,64,75,0
4,59,75,0
4,56,75,0
4,66,75,0
4,64,75,0
4,59,75,0
4,56,75,0
4,66,75,0
4,64,75,0
4,59,75,0
4,56,75,0
4,66,75,0
4,61,75,0
4,58,75,0
4,66,75,0
4,64,75,0
4,59,75,0
4,56,75,0
4,66,75,0
4,64,75,0
4,59,75,0
4,56,75,0
4,66,75,0
4,63,75,0
4,59,75,0
4,66,75,0
4,61,75,0
4,58,75,0
4,66,75,0
4,61,75,0
4,58,75,0
4,66,75,0
4,63,75,0
4,59,75,0
4,68,75,0
4,64,75,0
4,59,75,0
4,66,75,0
4,63,75,0
4,59,75,0
4,64,75,0
4,59,75,0
4,56,75,0
4,64,75,0
4,59,75,0
4,56,75,0
4,64,75,0
4,59,75,0
4,56,75,0
4,59,75,0
4,56,75,0
4,59,75,0
4,56,75,0
4,59,75,0
4,56,75,0
4,66,75,0
4,63,75,0
4,59,75,0
4,66,75,0
4,61,75,0
4,58,75,0
4,66,75,0
4,61,75,0
4,58,75,0
4,66,75,0
4,63,75,0
4,59,75,0
4,68,75,0
4,64,75,0
4,59,75,0
4,66,75,0
4,63,75,0
4,59,75,0
4,64,75,0
4,59,75,0
4,56,75,0
4,64,75,0
4,59,75,0
4,56,75,0
4,64,75,0
4,59,75,0
4,56,75,0
4,66,75,0
4,61,75,0
4,58,75,0
4,66,75,0
4,61,75,0
4,58,75,0
4,66,75,0
4,61,75,0
4,58,75,0
4,53,75,0
4,54,75,8
4,52,75,4
4,55,75,0
4,56,75,0
4,57,75,0
4,58,75,0
4,59,75,0
4,60,75,0
4,61,75,0
4,62,75,0
4,63,75,0
4,64,75,0
4,65,75,0
4,66,75,0
4,67,75,0
4,68,75,0
4,69,75,0
4,70,75,0
4,71,75,0
4,72,75,0
4,73,75,0
4,74,75,0
4,75,75,0
4,76,75,0
4,76,75,4
4,71,75,0
4,78,75,64
4,71,75,0
4,78,75,64
4,71,75,0
4,78,75,128
4,71,75,0
4,78,75,128
4,71,75,0
4,80,75,128
4,71,75,0
4,78,75,64
4,71,75,0
4,78,75,64
4,71,75,0
4,78,75,128
4,71,75,0
4,78,75,128
4,71,75,0
4,76,75,128
4,71,75,0
4,78,75,64
4,71,75,0
4,78,75,64
4,71,75,0
4,78,75,128
4,71,75,0
4,78,75,128
4,71,75,0
4,81,75,64
4,76,75,0
4,81,75,64
4,76,75,0
4,80,75,64
4,76,75,0
4,80,75,64
4,76,75,0
4,80,75,128
4,76,75,0
4,76,75,64
4,78,75,0
4,78,75,64
4,76,75,0
4,76,75,64
4,71,75,0
4,76,75,64
4,71,75,0
4,78,75,64
4,71,75,0
4,78,75,64
4,71,75,0
4,78,75,128
4,71,75,0
4,78,75,128
4,71,75,0
4,80,75,128
4,71,75,0
4,78,75,64
4,71,75,0
4,78,75,64
4,71,75,0
4,78,75,128
4,71,75,0
4,78,75,128
4,71,75,0
4,81,75,128
4,78,75,0
4,73,75,0
4,78,75,128
4,73,75,0
4,71,75,0
4,69,75,128
4,73,75,0
4,71,75,0
4,69,75,128
4,66,75,0
4,71,75,0
4,68,75,128
4,64,75,0
4,66,75,0
4,68,75,128
4,66,75,0
4,64,75,0
4,68,75,128
4,66,75,0
4,64,75,0
4,68,75,128
4,66,75,0
4,64,75,0
4,66,75,128
4,63,75,0
4,59,75,0
4,66,75,0
4,63,75,0
4,59,75,0
4,63,75,0
4,66,75,0
4,59,75,0
4,66,75,0
4,64,75,0
4,59,75,0
4,56,75,0
4,66,75,0
4,64,75,0
4,59,75,0
4,56,75,0
4,66,75,0
4,64,75,0
4,59,75,0
4,56,75,0
4,66,75,0
4,64,75,0
4,59,75,0
4,56,75,0
4,66,75,0
4,64,75,0
4,59,75,0
4,56,75,0
4,66,75,0
4,64,75,0
4,59,75,0
4,56,75,0
4,66,75,0
4,61,75,0
4,58,75,0
4,66,75,0
4,64,75,0
4,59,75,0
4,56,75,0
4,66,75,0
4,64,75,0
4,59,75,0
4,56,75,0
4,66,75,0
4,63,75,0
4,59,75,0
4,66,75,0
4,63,75,0
4,59,75,0
4,63,75,0
4,66,75,0
4,59,75,0
4,66,75,0
4,64,75,0
4,59,75,0
4,56,75,0
4,66,75,0
4,64,75,0
4,59,75,0
4,56,75,0
4,66,75,0
4,64,75,0
4,59,75,0
4,56,75,0
4,66,75,0
4,64,75,0
4,59,75,0
4,56,75,0
4,66,75,0
4,64,75,0
4,59,75,0
4,56,75,0
4,66,75,0
4,64,75,0
