track,note,velocity,time
1,31,96,1496
1,32,98,960
1,45,90,932
1,45,90,960
1,45,90,960
1,45,90,960
1,38,90,960
1,33,90,960
1,38,90,960
1,33,90,960
1,38,90,948
1,45,90,960
1,38,90,960
1,42,90,960
1,40,90,948
1,45,90,988
1,33,90,990
1,35,93,192
1,37,89,192
1,38,90,216
1,42,87,216
1,45,90,244
1,38,90,232
1,45,90,960
1,50,83,960
1,42,91,1002
1,40,90,960
1,45,90,960
1,45,85,960
1,47,88,192
1,49,84,192
1,38,85,216
1,42,82,216
1,45,85,244
1,40,86,232
1,40,90,960
1,45,90,954
1,40,90,984
1,40,90,960
1,40,90,984
1,45,90,960
1,45,86,988
1,45,92,288
1,42,79,248
1,40,86,252
1,38,47,2258
1,38,92,9916
1,45,90,960
1,38,90,984
1,50,69,1008
1,45,86,1008
1,45,89,1022
1,38,90,984
1,38,90,1008
1,38,90,1056
1,38,90,1008
1,38,90,1008
1,45,90,1008
1,38,90,1012
1,42,86,984
1,45,80,1008
1,47,86,268
1,45,86,268
1,43,89,272
1,42,86,250
1,40,89,272
1,45,94,240
1,45,90,1032
1,38,90,1032
1,38,90,1032
1,43,90,1032
1,43,90,1032
1,38,90,1008
1,38,91,1032
1,43,90,1032
1,43,90,1032
1,45,74,1032
1,33,43,2880
1,38,42,3432
1,38,87,5184
1,45,91,960
1,38,86,984
1,45,89,984
1,38,89,1008
1,43,91,984
1,38,87,984
1,45,89,984
1,45,90,984
1,45,81,984
1,38,84,984
1,47,80,1008
1,40,77,1008
1,47,86,984
1,45,89,1008
1,45,89,1008
1,38,87,960
1,45,91,960
1,38,86,984
1,45,89,984
1,38,89,1008
1,43,91,984
1,38,87,984
1,45,89,984
1,45,90,984
1,45,81,984
1,38,84,984
1,47,80,1008
1,38,77,1008
1,45,86,984
1,38,90,1008
1,33,90,960
1,38,90,960
1,45,90,960
1,38,90,960
1,42,90,960
1,40,90,948
1,45,90,988
1,33,90,990
1,35,93,192
1,37,89,192
1,38,90,216
1,42,87,216
1,45,90,244
1,38,90,232
1,45,90,960
1,50,83,960
1,42,91,1002
1,40,90,960
1,45,90,960
1,45,85,960
1,47,88,192
1,49,84,192
1,38,85,216
1,42,82,216
1,45,85,244
1,40,86,232
1,40,90,960
1,45,90,954
1,40,90,984
1,40,90,960
1,40,90,984
1,45,90,960
1,45,86,988
1,45,92,288
1,42,79,248
1,40,86,252
1,38,47,2258
1,38,92,9916
1,45,90,960
1,38,90,984
1,50,69,1008
1,45,86,1008
1,45,89,1022
1,38,90,984
1,38,90,1008
1,38,90,1056
1,38,90,1008
1,38,90,1008
1,45,90,1008
1,38,90,1012
1,42,86,984
1,45,80,1008
1,47,86,268
1,45,86,268
1,43,89,272
1,42,86,250
1,40,89,272
1,45,94,240
1,45,90,1032
1,38,90,1032
1,38,90,1032
1,43,90,1032
1,43,90,1032
1,38,90,1008
1,38,91,1032
1,43,90,1032
1,43,90,1032
1,45,74,1032
1,33,43,2880
1,38,42,3432
1,38,87,5184
1,45,91,960
1,38,86,984
1,45,89,984
1,38,89,1008
1,43,91,984
1,38,87,984
1,45,89,984
1,45,90,984
1,45,81,984
1,38,84,984
1,47,80,1008
1,40,77,1008
1,47,86,984
1,45,89,1008
1,45,89,1008
1,38,87,960
1,45,91,960
1,38,86,984
1,45,89,984
1,38,89,1008
1,43,91,984
1,38,87,984
1,45,89,984
1,45,90,984
1,45,81,984
1,38,84,984
1,47,80,1008
1,47,86,240
1,46,86,264
1,45,86,272
1,49,86,1488
1,38,86,1738
1,33,86,384
1,47,97,0
1,46,100,188
1,45,100,92
1,45,97,284
1,45,97,82
1,45,98,224
1,38,108,186
1,38,108,570
2,62,120,24
2,74,127,72
2,83,109,0
2,74,116,624
2,83,96,0
2,74,112,240
2,83,92,0
2,73,112,336
2,81,92,0
2,71,106,10
2,79,86,0
2,69,103,6
2,78,83,0
2,69,91,1320
2,76,71,0
2,76,98,364
2,79,78,0
2,74,98,272
2,78,78,0
2,69,45,5208
2,74,60,384
2,78,49,14
2,81,63,24
2,81,57,674
2,78,54,8
2,79,63,384
2,79,54,688
2,79,63,190
2,78,54,300
2,76,60,268
2,74,54,288
2,69,45,888
2,74,60,384
2,78,49,14
2,81,63,0
2,81,57,674
2,78,54,8
2,79,63,384
2,79,54,688
2,79,63,190
2,78,54,300
2,76,60,268
2,74,54,288
2,64,51,72
2,68,52,24
2,86,50,1152
2,85,56,56
2,69,55,72
2,85,61,128
2,85,64,264
2,83,59,408
2,66,49,24
2,64,51,2
2,81,59,4
2,68,51,360
2,80,47,0
2,69,42,0
2,83,45,768
2,85,53,0
2,83,50,330
2,81,47,2
2,68,39,166
2,69,24,6536
2,66,39,1560
2,74,49,0
2,67,45,936
2,76,55,0
2,69,62,522
2,78,72,0
2,69,42,660
2,78,52,0
2,71,45,1080
2,79,55,0
2,69,56,0
2,78,66,0
2,69,49,696
2,78,59,0
2,67,49,1056
2,76,59,0
2,66,45,380
2,74,55,0
2,64,39,96
2,78,39,0
2,81,66,70
2,66,69,2
2,69,59,0
2,86,59,4
2,74,75,380
2,90,50,2
2,78,55,34
2,93,55,4
2,79,53,0
2,95,53,0
2,78,53,20
2,93,53,4
2,76,54,0
2,91,54,0
2,74,47,1128
2,90,47,24
2,83,51,8
2,81,53,366
2,88,50,96
2,80,49,48
2,74,59,16
2,90,59,0
2,73,57,328
2,88,57,4
2,71,67,0
2,86,67,0
2,73,59,8
2,88,59,4
2,79,80,5318
2,67,84,24
2,69,61,628
2,83,59,0
2,71,70,14
2,86,61,0
2,69,70,0
2,85,67,0
2,67,65,358
2,83,67,0
2,66,55,0
2,81,58,0
2,71,82,456
2,83,80,0
2,71,64,666
2,83,64,0
2,71,61,282
2,83,62,0
2,81,53,0
2,69,56,24
2,67,49,4
2,79,52,0
2,66,49,0
2,81,49,0
2,57,50,1752
2,64,44,0
2,62,44,24
2,81,67,1222
2,85,67,0
2,83,70,1056
2,86,70,0
2,69,77,768
2,78,97,0
2,69,58,634
2,78,78,0
2,69,59,310
2,78,79,0
2,67,55,360
2,76,75,0
2,66,51,0
2,69,71,0
2,69,49,12
2,78,69,0
2,69,45,414
2,78,64,0
2,67,55,34
2,69,75,0
2,66,48,384
2,74,68,0
2,71,52,264
2,76,87,0
2,73,53,96
2,78,88,0
2,74,63,246
2,79,98,0
2,78,61,384
2,81,81,0
2,79,68,96
2,83,88,0
2,78,67,298
2,81,87,0
2,74,71,410
2,78,72,0
2,74,80,288
2,81,71,0
2,73,56,72
2,79,74,0
2,83,74,282
2,73,51,10
2,76,62,0
2,73,61,122
2,76,84,0
2,73,57,14
2,79,81,0
2,78,74,0
2,74,52,4
2,81,101,192
2,74,58,330
2,74,71,2
2,74,75,672
2,76,85,0
2,74,66,292
2,78,77,0
2,76,85,30
2,71,74,0
2,79,85,360
2,83,85,358
2,86,85,2
2,85,74,360
2,83,85,372
2,73,60,330
2,81,85,10
2,85,67,1200
2,81,79,124
2,83,86,102
2,86,87,168
2,81,83,24
2,81,82,480
2,83,69,0
2,81,70,80
2,81,65,2
2,78,75,312
2,81,69,0
2,67,47,216
2,76,67,0
2,66,51,216
2,69,71,0
2,69,49,12
2,78,69,0
2,69,45,414
2,78,64,0
2,67,55,34
2,69,75,0
2,66,48,384
2,74,68,0
2,71,52,264
2,76,87,0
2,73,53,96
2,78,88,0
2,74,63,246
2,79,98,0
2,78,61,384
2,81,81,0
2,79,68,96
2,83,88,0
2,78,67,298
2,81,87,0
2,74,71,410
2,78,72,0
2,74,80,288
2,81,71,0
2,73,56,72
2,79,74,0
2,83,74,282
2,73,51,10
2,76,62,0
2,73,61,122
2,76,84,0
2,73,57,14
2,79,81,0
2,78,74,0
2,74,52,4
2,81,101,192
2,74,58,330
2,74,71,2
2,74,80,648
2,76,80,0
2,78,74,192
2,81,58,0
2,81,80,2
2,78,77,228
2,76,71,24
2,79,64,24
2,69,69,336
2,76,80,144
2,78,71,242
2,74,77,24
2,69,45,2894
2,74,60,384
2,78,49,14
2,81,63,24
2,81,57,674
2,78,54,8
2,79,63,384
2,79,54,688
2,79,63,190
2,78,54,300
2,76,60,268
2,74,54,288
2,69,45,888
2,74,60,384
2,78,49,14
2,81,63,0
2,81,57,674
2,78,54,8
2,79,63,384
2,79,54,688
2,79,63,190
2,78,54,300
2,76,60,268
2,74,54,288
2,66,39,312
2,74,49,0
2,67,45,936
2,76,55,0
2,69,62,522
2,78,72,0
2,69,42,660
2,78,52,0
2,71,45,1080
2,79,55,0
2,69,56,0
2,78,66,0
2,69,49,696
2,78,59,0
2,67,49,1056
2,76,59,0
2,66,45,380
2,74,55,0
2,64,39,96
2,78,39,0
2,81,66,70
2,66,69,2
2,69,59,0
2,86,59,4
2,74,75,380
2,90,50,2
2,78,55,34
2,93,55,4
2,79,53,0
2,95,53,0
2,78,53,20
2,93,53,4
2,76,54,0
2,91,54,0
2,74,47,1128
2,90,47,24
2,83,51,8
2,81,53,366
2,88,50,96
2,80,49,48
2,74,59,16
2,90,59,0
2,73,57,328
2,88,57,4
2,71,67,0
2,86,67,0
2,73,59,8
2,88,59,4
2,79,80,5318
2,67,84,24
2,69,61,628
2,83,59,0
2,71,70,14
2,86,61,0
2,69,70,0
2,85,67,0
2,67,65,358
2,83,67,0
2,66,55,0
2,81,58,0
2,71,82,456
2,83,80,0
2,71,64,666
2,83,64,0
2,71,61,282
2,83,62,0
2,81,53,0
2,69,56,24
2,67,49,4
2,79,52,0
2,66,49,0
2,81,49,0
2,57,50,1752
2,64,44,0
2,62,44,24
2,81,67,1222
2,85,67,0
2,83,70,1056
2,86,70,0
2,69,77,768
2,78,97,0
2,69,58,634
2,78,78,0
2,69,59,310
2,78,79,0
2,67,55,360
2,76,75,0
2,66,51,0
2,69,71,0
2,69,49,12
2,78,69,0
2,69,45,414
2,78,64,0
2,67,55,34
2,69,75,0
2,66,48,384
2,74,68,0
2,71,52,264
2,76,87,0
2,73,53,96
2,78,88,0
2,74,63,246
2,79,98,0
2,78,61,384
2,81,81,0
2,79,68,96
2,83,88,0
2,78,67,298
2,81,87,0
2,74,71,410
2,78,72,0
2,74,80,288
2,81,71,0
2,73,56,72
2,79,74,0
2,83,74,282
2,73,51,10
2,76,62,0
2,73,61,122
2,76,84,0
2,73,57,14
2,79,81,0
2,78,74,0
2,74,52,4
2,81,101,192
2,74,58,330
2,74,71,2
2,74,75,672
2,76,85,0
2,74,66,292
2,78,77,0
2,76,85,30
2,71,74,0
2,79,85,360
2,83,85,358
2,86,85,2
2,85,74,360
2,83,85,372
2,73,60,330
2,81,85,10
2,85,67,1200
2,81,79,124
2,83,86,102
2,86,87,168
2,81,83,24
2,81,82,480
2,83,69,0
2,81,70,80
2,81,65,2
2,78,75,312
2,81,69,0
2,67,47,216
2,76,67,0
2,66,51,216
2,69,71,0
2,69,49,12
2,78,69,0
2,69,45,414
2,78,64,0
2,67,55,34
2,69,75,0
2,66,48,384
2,74,68,0
2,71,52,264
2,76,87,0
2,73,53,96
2,78,88,0
2,74,63,246
2,79,98,0
2,78,61,384
2,81,81,0
2,79,68,96
2,83,88,0
2,78,67,298
2,81,87,0
2,74,71,410
2,78,72,0
2,74,80,288
2,81,71,0
2,73,56,72
2,79,74,0
2,83,74,282
2,73,51,10
2,76,62,0
2,73,61,122
2,76,84,0
2,73,57,14
2,79,81,0
2,78,74,0
2,74,52,4
2,81,101,192
2,74,58,330
2,74,71,2
2,74,80,648
2,76,80,24
2,78,74,192
2,81,58,0
2,78,80,222
2,81,80,0
2,74,80,240
2,78,77,0
2,76,71,264
2,79,64,0
2,69,83,120
2,76,86,240
2,74,86,480
2,78,86,0
2,69,96,648
2,74,101,0
2,69,92,80
2,76,101,0
2,69,101,166
2,78,97,0
2,69,90,0
2,69,98,166
2,74,98,0
2,69,102,190
2,76,120,0
2,69,90,0
2,69,102,90
2,69,90,2
2,69,92,2
2,74,102,224
2,66,99,2
2,74,101,0
2,69,90,440
2,69,92,2
2,66,112,176
2,74,106,0
3,69,90,12958
3,69,90,196
3,74,90,32
3,74,90,228
3,74,90,168
3,74,90,160
3,74,90,126
3,74,90,128
3,69,90,1266
3,69,90,280
3,69,90,206
3,67,90,32
3,66,86,432
3,64,86,0
3,62,83,360
3,74,90,510
3,74,90,252
3,74,90,214
3,69,90,230
3,69,90,230
3,69,90,240
3,69,90,196
3,69,90,186
3,69,90,272
3,66,90,264
3,69,90,248
3,67,90,6
3,66,83,0
3,64,84,0
3,62,76,10
3,64,86,426
3,64,90,114
3,64,90,192
3,66,92,6
3,68,92,360
3,69,90,6
3,64,90,0
3,64,90,220
3,62,95,6
3,61,83,0
3,68,89,14
3,68,83,92
3,68,83,114
3,68,74,74
3,66,77,62
3,68,83,220
3,69,90,34
3,64,90,768
3,64,90,200
3,64,90,788
3,64,90,300
3,66,77,816
3,68,89,312
3,69,90,42
3,69,90,156
3,69,72,168
3,71,80,72
3,69,69,22
3,66,52,298
3,64,51,10
3,69,63,98
3,68,60,6
3,71,66,158
3,69,57,28
3,62,45,3748
3,62,64,72
3,64,60,432
3,64,83,328
3,66,70,0
3,66,67,374
3,67,60,816
3,67,84,112
3,66,70,408
3,66,66,384
3,69,89,24
3,64,71,0
3,62,74,52
3,62,67,444
3,57,81,50
3,62,90,360
3,66,80,374
3,69,90,358
3,69,86,438
3,71,89,16
3,71,90,278
3,69,90,360
3,69,90,280
3,67,90,356
3,67,90,140
3,66,98,82
3,66,86,316
3,66,92,218
3,64,90,384
3,62,86,10
3,64,83,6
3,64,90,1028
3,64,90,212
3,66,75,66
3,67,90,384
3,66,75,22
3,64,90,384
3,66,83,376
3,69,87,0
3,62,80,408
3,67,90,628
3,71,90,768
3,74,90,328
3,73,79,378
3,71,90,296
3,69,90,64
3,74,90,1344
3,74,86,276
3,74,90,232
3,73,80,4
3,71,82,360
3,69,90,22
3,74,90,384
3,66,60,300
3,69,86,24
3,62,66,24
3,67,63,432
3,57,71,456
3,64,61,0
3,62,67,52
3,69,103,1546
3,71,112,924
3,74,112,824
3,66,117,218
3,66,104,304
3,66,112,272
3,64,101,148
3,57,96,208
3,66,104,222
3,66,104,240
3,66,96,136
3,66,98,90
3,66,100,82
3,66,102,98
3,69,90,290
3,69,96,192
3,74,90,42
3,69,94,192
3,66,75,186
3,66,71,350
3,67,90,294
3,69,90,192
3,71,90,114
3,69,90,638
3,74,90,796
3,74,90,182
3,74,86,180
3,66,60,66
3,66,92,104
3,64,90,960
3,67,90,10
3,66,86,408
3,69,90,316
3,62,90,54
3,64,90,332
3,66,77,408
3,64,90,22
3,67,90,0
3,71,90,384
3,74,92,56
3,73,84,24
3,71,90,12
3,69,90,32
3,69,90,396
3,71,90,360
3,74,96,366
3,66,117,238
3,66,104,304
3,66,112,272
3,64,101,100
3,57,96,208
3,66,104,270
3,66,104,240
3,66,96,136
3,66,98,90
3,66,100,82
3,66,102,98
3,69,90,290
3,69,96,192
3,74,90,42
3,69,94,192
3,66,75,186
3,66,71,350
3,67,90,294
3,69,90,192
3,71,90,114
3,69,90,638
3,74,90,796
3,74,90,182
3,74,86,180
3,66,60,66
3,66,92,104
3,64,90,960
3,67,90,10
3,66,86,408
3,69,90,316
3,62,90,54
3,62,90,356
3,64,91,360
3,66,79,376
3,69,87,0
3,66,81,360
3,64,90,356
3,57,90,322
3,64,90,368
3,62,96,24
3,69,90,2112
3,69,90,196
3,74,90,32
3,74,90,228
3,74,90,168
3,74,90,160
3,74,90,126
3,74,90,128
3,69,90,1266
3,69,90,280
3,69,90,206
3,67,90,32
3,66,86,432
3,64,86,0
3,62,83,360
3,74,90,510
3,74,90,252
3,74,90,214
3,69,90,230
3,69,90,230
3,69,90,240
3,69,90,196
3,69,90,186
3,69,90,272
3,66,90,264
3,69,90,248
3,67,90,6
3,66,83,0
3,64,84,0
3,62,76,10
3,64,86,426
3,64,90,114
3,64,90,192
3,66,92,6
3,68,92,360
3,69,90,6
3,64,90,0
3,64,90,220
3,62,95,6
3,61,83,0
3,68,89,14
3,68,83,92
3,68,83,114
3,68,74,74
3,66,77,62
3,68,83,220
3,69,90,34
