track,note,velocity,time
1,55,86,1136
1,62,81,0
1,70,88,0
1,69,82,16
1,70,77,0
1,72,87,16
1,70,80,384
1,69,94,320
1,70,80,0
1,51,80,0
1,63,85,0
1,67,89,0
1,58,92,0
1,60,93,384
1,46,73,368
1,53,88,0
1,62,89,0
1,45,81,16
1,53,87,0
1,60,92,0
1,43,82,0
1,55,89,0
1,58,80,0
1,62,89,1104
1,41,85,16
1,51,96,0
1,55,89,0
1,58,85,0
1,60,91,0
1,55,92,64
1,58,71,0
1,63,81,0
1,41,98,4
1,43,81,0
1,58,86,0
1,62,93,0
1,67,88,0
1,55,92,1504
1,65,89,768
1,39,68,48
1,58,91,0
1,63,91,0
1,67,92,0
1,51,91,0
1,55,88,64
1,58,89,0
1,46,81,48
1,53,93,0
1,62,83,0
1,45,77,0
1,57,91,0
1,60,87,0
1,43,85,144
1,55,83,0
1,58,77,0
1,62,82,0
1,67,87,736
1,41,85,32
1,55,88,0
1,58,86,0
1,63,89,0
1,65,87,1520
1,53,98,768
1,43,81,0
1,58,86,0
1,62,93,0
1,67,88,0
1,55,92,1535
1,65,89,768
1,39,68,48
1,58,91,0
1,63,91,0
1,67,92,0
1,51,91,0
1,55,88,64
1,58,89,0
1,46,81,48
1,53,93,0
1,62,83,0
1,45,77,0
1,57,91,0
1,60,87,0
1,43,85,144
1,55,83,0
1,58,77,0
1,62,82,0
1,67,87,736
1,41,85,32
1,55,88,0
1,58,86,0
1,63,89,0
1,65,87,1520
1,53,98,768
1,43,81,0
1,58,86,0
1,62,93,0
1,67,88,0
1,55,92,1535
1,65,89,768
1,39,68,48
1,58,91,0
1,63,91,0
1,67,92,0
1,51,91,0
1,55,88,64
1,58,89,0
1,46,81,48
1,53,93,0
1,62,83,0
1,45,77,0
1,57,91,0
1,60,87,0
1,43,85,144
1,55,83,0
1,58,77,0
1,62,82,0
1,67,87,736
1,41,85,32
1,55,88,0
1,58,86,0
1,63,89,0
1,65,87,1520
1,53,98,768
1,55,70,0
1,62,82,0
1,70,80,0
1,64,78,48
1,67,61,0
1,72,87,0
1,53,72,0
1,60,83,0
1,65,29,0
1,69,78,0
1,51,65,1536
1,72,78,0
1,74,85,1104
1,75,71,176
1,50,75,112
1,70,70,0
1,74,81,0
1,53,77,0
1,65,78,0
1,69,87,0
1,72,82,0
1,55,71,0
1,62,77,0
1,67,80,0
1,70,61,0
1,48,76,0
1,63,57,0
1,72,68,0
1,51,67,1520
1,70,76,0
1,55,61,16
1,62,65,0
1,67,77,0
1,70,59,0
1,48,59,80
1,60,58,0
1,64,78,0
1,53,59,0
1,65,78,0
1,69,66,0
1,72,82,1120
1,69,41,48
1,63,59,272
1,65,80,1008
1,67,75,288
1,62,81,144
1,65,71,0
1,50,71,16
1,70,76,0
1,57,68,32
1,60,82,0
1,69,85,0
1,55,67,0
1,62,70,0
1,67,67,0
1,70,81,0
1,48,77,48
1,60,80,0
1,63,77,0
1,51,66,0
1,63,75,0
1,70,72,0
1,55,70,0
1,62,68,0
1,67,66,0
1,70,71,0
1,48,68,0
1,63,54,0
1,72,66,0
1,60,76,768
1,55,66,128
1,62,70,0
1,67,73,0
1,70,72,0
1,48,75,0
1,64,82,0
1,70,53,0
1,72,65,0
1,53,71,96
1,60,68,0
1,65,78,0
1,69,70,0
1,67,81,928
1,69,72,16
1,63,51,0
1,72,75,672
1,65,47,48
1,58,58,96
1,62,72,0
1,70,78,0
1,74,71,64
1,57,67,16
1,69,77,0
1,72,76,0
1,55,52,0
1,67,68,0
1,70,78,0
1,74,54,0
1,48,66,736
1,63,67,0
1,72,83,0
1,51,63,0
1,70,77,0
1,55,78,0
1,62,82,0
1,71,87,0
1,74,81,752
1,79,93,288
1,91,89,688
1,55,70,22016
1,62,82,0
1,70,80,0
1,64,78,48
1,67,61,0
1,72,87,0
1,53,72,0
1,60,83,0
1,65,29,0
1,69,78,0
1,51,65,1536
1,72,78,0
1,74,85,1104
1,75,71,176
1,50,75,112
1,70,70,0
1,74,81,0
1,53,77,0
1,65,78,0
1,69,87,0
1,72,82,0
1,55,71,0
1,62,77,0
1,67,80,0
1,70,61,0
1,48,76,0
1,63,57,0
1,72,68,0
1,51,67,1520
1,70,76,0
1,55,61,16
1,62,65,0
1,67,77,0
1,70,59,0
1,48,59,80
1,60,58,0
1,64,78,0
1,53,59,0
1,65,78,0
1,69,66,0
1,72,82,1120
1,69,41,48
1,63,59,272
1,65,80,1008
1,67,75,288
1,62,81,144
1,65,71,0
1,50,71,16
1,70,76,0
1,57,68,32
1,60,82,0
1,69,85,0
1,55,67,0
1,62,70,0
1,67,67,0
1,70,81,0
1,48,77,48
1,60,80,0
1,63,77,0
1,51,66,0
1,63,75,0
1,70,72,0
1,55,70,0
1,62,68,0
1,67,66,0
1,70,71,0
1,48,68,0
1,63,54,0
1,72,66,0
1,60,76,768
1,55,66,128
1,62,70,0
1,67,73,0
1,70,72,0
1,48,75,0
1,64,82,0
1,70,53,0
1,72,65,0
1,53,71,96
1,60,68,0
1,65,78,0
1,69,70,0
1,67,81,928
1,69,72,16
1,63,51,0
1,72,75,672
1,65,47,48
1,58,58,96
1,62,72,0
1,70,78,0
1,74,71,64
1,57,67,16
1,69,77,0
1,72,76,0
1,55,52,0
1,67,68,0
1,70,78,0
1,74,54,0
1,48,66,736
1,63,67,0
1,72,83,0
1,51,63,0
1,70,77,0
1,55,78,0
1,62,82,0
1,71,87,0
1,74,81,752
1,79,93,288
1,91,89,688
2,41,122,25304
2,31,119,4
2,31,106,128
2,31,104,112
2,31,115,80
2,31,106,128
2,31,101,112
2,31,117,80
2,31,106,128
2,31,100,112
2,31,107,80
2,31,119,128
2,34,116,64
2,39,122,0
2,39,119,112
2,39,113,96
2,39,103,80
2,39,108,128
2,39,108,96
2,39,112,80
2,39,119,128
2,39,119,80
2,39,107,80
2,39,122,128
2,29,119,16
2,34,122,16
2,34,113,96
2,34,108,112
2,33,109,80
2,33,119,128
2,33,102,96
2,31,104,80
2,31,111,128
2,31,95,80
2,31,107,80
2,31,116,128
2,31,111,80
2,29,111,80
2,29,111,112
2,29,103,112
2,29,113,80
2,29,116,128
2,29,103,80
2,29,104,80
2,29,111,128
2,29,107,96
2,29,104,80
2,29,111,128
2,29,119,80
2,31,119,0
2,31,106,112
2,31,104,48
2,31,106,128
2,31,107,112
2,31,101,32
2,31,106,128
2,31,100,112
2,31,107,32
2,31,119,128
2,34,116,64
2,39,122,0
2,39,119,112
2,39,113,96
2,39,103,48
2,39,108,128
2,39,108,96
2,39,112,48
2,39,119,128
2,39,119,80
2,39,107,64
2,39,122,128
2,29,119,16
2,34,122,16
2,34,113,96
2,34,108,112
2,33,109,32
2,33,119,128
2,33,102,96
2,31,104,32
2,31,111,128
2,31,95,80
2,31,107,32
2,31,116,128
2,31,111,80
2,29,111,32
2,29,111,112
2,29,103,112
2,29,113,32
2,29,116,128
2,29,103,80
2,29,104,32
2,29,111,128
2,29,107,96
2,29,104,32
2,29,111,128
2,29,119,80
2,31,122,128
2,36,119,768
2,29,108,16
2,29,111,96
2,29,113,96
2,36,104,48
2,41,104,112
2,41,113,48
2,41,108,32
2,41,111,128
2,29,104,96
2,34,119,96
2,34,104,80
2,34,119,128
2,34,122,112
2,29,109,128
2,29,116,128
2,31,106,112
2,31,108,144
2,36,109,80
2,36,106,112
2,36,106,112
2,36,108,128
2,41,107,112
2,29,106,48
2,29,106,48
2,29,107,32
2,29,124,112
2,29,108,112
2,31,108,96
2,31,107,128
2,36,104,112
2,36,106,112
2,29,113,96
2,29,108,144
2,29,119,96
2,36,113,80
2,41,106,112
2,41,107,80
2,41,107,32
2,41,108,128
2,29,124,64
2,34,124,80
2,34,119,96
2,34,119,112
2,34,116,128
2,29,119,96
2,29,113,160
2,31,107,112
2,31,108,144
2,36,106,96
2,36,104,144
2,36,104,112
2,36,106,112
2,41,104,112
2,29,107,48
2,29,104,96
2,29,104,32
2,29,116,112
2,29,111,144
2,31,109,80
2,31,119,144
2,31,113,128
2,31,108,144
2,36,106,96
2,36,104,128
2,36,102,112
2,36,106,96
2,31,108,112
2,31,107,160
2,36,104,80
2,36,104,112
2,29,107,112
2,29,106,144
2,29,111,96
2,36,104,112
2,41,104,112
2,41,106,128
2,41,107,32
2,41,104,112
2,29,116,48
2,34,111,112
2,34,113,128
2,34,108,128
2,34,111,80
2,29,107,112
2,29,107,160
2,31,106,112
2,31,106,112
2,36,106,96
2,36,106,128
2,36,106,112
2,36,107,96
2,41,108,128
2,29,106,64
2,29,104,80
2,29,108,32
2,29,113,128
2,29,106,128
2,31,107,112
2,31,119,128
2,31,124,128
2,31,111,96
2,31,113,128
2,31,119,128
2,31,119,112
2,31,119,112
2,31,127,128
2,31,119,128
2,31,127,128
2,31,127,128
2,43,119,112
2,43,124,112
2,38,107,128
2,40,96,48
2,43,104,48
2,43,108,32
2,38,107,32
2,41,127,128
2,41,109,128
2,36,127,128
2,36,102,128
2,36,116,64
2,36,116,112
2,43,119,112
2,43,124,112
2,38,107,128
2,40,96,48
2,43,104,48
2,43,108,32
2,38,107,32
2,41,127,128
2,41,109,128
2,36,127,128
2,36,102,128
2,36,116,64
2,36,116,112
2,43,119,112
2,43,124,112
2,38,107,128
2,40,96,48
2,43,104,48
2,43,108,32
2,38,107,32
2,41,127,128
2,41,109,128
2,36,127,128
2,36,102,128
2,36,116,64
2,36,116,112
2,43,119,112
2,43,124,112
2,38,107,128
2,40,96,48
2,43,104,48
2,43,108,32
2,38,107,32
2,41,127,128
2,41,109,128
2,36,127,128
2,36,102,128
2,36,116,64
2,36,116,112
2,43,119,112
2,43,124,112
2,38,107,128
2,40,96,48
2,43,104,48
2,43,108,32
2,38,107,32
2,41,127,128
2,41,109,128
2,36,127,128
2,36,102,128
2,36,116,64
2,36,116,112
2,43,119,112
2,43,124,112
2,38,107,128
2,40,96,48
2,43,104,48
2,43,108,32
2,38,107,32
2,41,127,128
2,41,109,128
2,36,127,128
2,36,102,128
2,36,116,64
2,36,116,112
2,38,122,112
2,38,113,160
2,38,119,128
2,38,113,112
2,38,116,128
2,38,113,128
2,38,113,128
2,38,119,160
2,31,122,48
2,36,119,768
2,29,108,16
2,29,111,96
2,29,113,96
2,36,104,48
2,41,104,112
2,41,113,48
2,41,108,32
2,41,111,128
2,29,104,96
2,34,119,96
2,34,104,80
2,34,119,128
2,34,122,112
2,29,109,128
2,29,116,128
2,31,106,112
2,31,108,144
2,36,109,80
2,36,106,112
2,36,106,112
2,36,108,128
2,41,107,112
2,29,106,48
2,29,106,48
2,29,107,32
2,29,124,112
2,29,108,112
2,31,108,96
2,31,107,128
2,36,104,112
2,36,106,112
2,29,113,96
2,29,108,144
2,29,119,96
2,36,113,80
2,41,106,112
2,41,107,80
2,41,107,32
2,41,108,128
2,29,124,64
2,34,124,80
2,34,119,96
2,34,119,112
2,34,116,128
2,29,119,96
2,29,113,160
2,31,107,112
2,31,108,144
2,36,106,96
2,36,104,144
2,36,104,112
2,36,106,112
2,41,104,112
2,29,107,48
2,29,104,96
2,29,104,32
2,29,116,112
2,29,111,144
2,31,109,80
2,31,119,144
2,31,113,128
2,31,108,144
2,36,106,96
2,36,104,128
2,36,102,112
2,36,106,96
2,31,108,112
2,31,107,160
2,36,104,80
2,36,104,112
2,29,107,112
2,29,106,144
2,29,111,96
2,36,104,112
2,41,104,112
2,41,106,128
2,41,107,32
2,41,104,112
2,29,116,48
2,34,111,112
2,34,113,128
2,34,108,128
2,34,111,80
2,29,107,112
2,29,107,160
2,31,106,112
2,31,106,112
2,36,106,96
2,36,106,128
2,36,106,112
2,36,107,96
2,41,108,128
2,29,106,64
2,29,104,80
2,29,108,32
2,29,113,128
2,29,106,128
2,31,107,112
2,31,119,128
2,31,124,128
2,31,111,96
2,31,113,128
2,31,119,128
2,31,119,112
2,31,119,112
2,31,127,128
2,31,119,128
2,31,127,128
2,31,127,128
2,43,119,112
2,43,124,112
2,38,107,128
2,40,96,48
2,43,104,48
2,43,108,32
2,38,107,32
2,41,127,128
2,41,109,128
2,36,127,128
2,36,102,128
2,36,116,64
2,36,116,112
2,43,119,112
2,43,124,112
2,38,107,128
2,40,96,48
2,43,104,48
2,43,108,32
2,38,107,32
2,41,127,128
2,41,109,128
2,36,127,128
2,36,102,128
2,36,116,64
2,36,116,112
2,43,119,112
2,43,124,112
2,38,107,128
2,40,96,48
2,43,104,48
2,43,108,32
2,38,107,32
2,41,127,128
2,41,109,128
2,36,127,128
2,36,102,128
2,36,116,64
2,36,116,112
2,43,119,112
2,43,124,112
2,38,107,128
2,40,96,48
2,43,104,48
2,43,108,32
2,38,107,32
2,41,127,128
2,41,109,128
2,36,127,128
2,36,102,128
2,36,116,64
2,36,116,112
2,43,119,112
2,43,124,112
2,38,107,128
2,40,96,48
2,43,104,48
2,43,108,32
2,38,107,32
2,41,127,128
2,41,109,128
2,36,127,128
2,36,102,128
2,36,116,64
2,36,116,112
2,43,119,112
2,43,124,112
2,38,107,128
2,40,96,48
2,43,104,48
2,43,108,32
2,38,107,32
2,41,127,128
2,41,109,128
2,36,127,128
2,36,102,128
2,36,116,64
2,36,116,112
2,43,119,112
2,43,124,112
2,38,107,128
2,40,96,48
2,43,104,48
2,43,108,32
2,38,107,32
2,41,127,128
2,41,109,128
2,36,127,128
2,36,102,128
2,36,116,64
2,36,116,112
2,43,119,112
2,43,124,112
2,38,107,128
2,40,96,48
2,43,104,48
2,43,108,32
2,38,107,32
2,41,127,128
2,41,109,128
2,36,127,128
2,36,102,128
2,36,116,64
2,36,116,112
2,43,119,112
2,43,124,112
2,38,107,128
2,40,96,48
2,43,104,48
2,43,108,32
2,38,107,32
2,41,127,128
2,41,109,128
2,36,127,128
2,36,102,128
2,36,116,64
2,36,116,112
2,43,119,112
2,43,124,112
2,38,107,128
2,40,96,48
2,43,104,48
2,43,108,32
2,38,107,32
2,41,127,128
2,41,109,128
2,36,127,128
2,36,102,128
2,36,116,64
2,36,116,112
2,43,119,112
2,43,124,112
2,38,107,128
2,40,96,48
2,43,104,48
2,43,108,32
2,38,107,32
2,41,127,128
2,41,109,128
2,36,127,128
2,36,102,128
2,36,116,64
2,36,116,112
2,43,119,112
2,43,124,112
2,38,107,128
2,40,96,48
2,43,104,48
2,43,108,32
2,38,107,32
2,41,127,128
2,41,109,128
2,36,127,128
2,36,102,128
2,36,116,64
2,36,116,112
2,38,122,112
2,38,113,160
2,38,119,128
2,38,113,112
2,38,116,128
2,38,113,128
2,38,113,128
2,38,119,160
2,38,122,48
2,38,113,160
2,38,119,128
2,38,113,112
2,38,116,128
2,38,113,128
2,38,113,128
2,31,119,160
3,67,114,88840
3,71,117,0
3,74,117,0
3,67,114,160
3,71,114,0
3,74,106,0
3,67,112,128
3,71,121,0
3,74,109,0
3,67,99,64
3,71,103,0
3,74,112,0
3,67,117,208
3,71,121,0
3,74,117,0
3,65,114,496
3,69,112,0
3,72,106,0
3,64,109,448
3,67,114,0
3,72,109,0
3,67,114,464
3,71,117,0
3,74,117,0
3,67,114,160
3,71,114,0
3,74,106,0
3,67,112,128
3,71,121,0
3,74,109,0
3,67,99,64
3,71,103,0
3,74,112,0
3,67,117,208
3,71,121,0
3,74,117,0
3,65,114,496
3,69,112,0
3,72,106,0
3,64,109,448
3,67,114,0
3,72,109,0
3,67,114,464
3,71,117,0
3,74,117,0
3,67,114,160
3,71,114,0
3,74,106,0
3,67,112,128
3,71,121,0
3,74,109,0
3,67,99,64
3,71,103,0
3,74,112,0
3,67,117,208
3,71,121,0
3,74,117,0
3,65,114,496
3,69,112,0
3,72,106,0
3,64,109,448
3,67,114,0
3,72,109,0
3,67,114,464
3,71,117,0
3,74,117,0
3,67,114,160
3,71,114,0
3,74,106,0
3,67,112,128
3,71,121,0
3,74,109,0
3,67,99,64
3,71,103,0
3,74,112,0
3,67,117,208
3,71,121,0
3,74,117,0
3,65,114,496
3,69,112,0
3,72,106,0
3,64,109,448
3,67,114,0
