track,note,velocity,time
2,35,78,18816
2,35,78,720
2,35,78,720
2,35,78,720
2,35,78,720
2,35,78,720
2,35,78,720
2,35,78,720
2,35,78,336
2,35,78,336
2,35,78,336
2,35,78,336
2,35,78,336
2,35,78,336
2,35,78,336
2,35,78,336
2,35,78,336
2,35,78,336
2,35,78,336
2,35,78,336
2,35,78,336
2,35,78,336
2,35,78,336
2,35,78,336
2,35,69,144
2,35,78,144
2,35,78,336
2,35,78,336
2,35,78,336
2,35,78,336
2,35,60,248
2,35,78,40
2,35,78,336
2,35,60,248
2,35,78,40
2,35,78,336
2,35,78,1488
2,35,78,1488
2,35,78,336
2,35,78,336
2,35,78,336
2,35,78,336
2,35,78,336
2,35,78,336
2,35,78,336
2,35,69,144
2,35,78,144
2,35,78,336
2,35,78,336
2,35,78,336
2,35,78,336
2,35,78,336
2,35,78,336
2,35,78,336
2,35,69,144
2,35,78,144
2,35,78,336
2,35,78,336
2,35,78,336
2,35,78,336
2,35,78,336
2,35,78,336
2,35,78,336
2,35,69,144
2,35,78,144
2,35,78,336
2,35,78,336
2,35,78,336
2,35,78,336
2,35,78,336
2,35,78,336
2,35,78,336
2,35,69,144
2,35,78,144
2,35,78,336
2,35,78,336
2,35,78,336
2,35,78,336
2,35,78,336
2,35,78,336
2,35,78,336
2,35,78,336
2,35,78,336
2,35,78,336
2,35,78,336
2,35,78,336
2,35,78,336
2,35,78,336
2,35,78,336
2,35,69,144
2,35,78,144
2,35,78,336
2,35,78,336
2,35,78,336
2,35,78,336
2,35,78,336
2,35,78,336
2,35,78,336
2,35,78,336
2,35,78,336
2,35,78,336
2,35,78,336
2,35,78,336
2,35,78,336
2,35,78,336
2,35,78,336
2,35,69,144
2,35,78,144
2,35,78,336
2,35,78,336
2,35,78,336
2,35,78,336
2,35,78,336
2,35,78,336
2,35,78,336
2,35,78,336
2,35,78,336
2,35,78,336
2,35,78,336
2,35,78,336
2,35,78,336
2,35,78,336
2,35,78,336
2,35,69,144
2,35,78,144
2,35,78,336
2,35,78,336
2,35,78,336
2,35,78,336
2,35,60,248
2,35,78,40
2,35,78,336
2,35,60,248
2,35,78,40
2,35,78,336
2,35,78,1488
2,35,78,1488
2,35,78,336
2,35,78,336
2,35,78,336
2,35,78,336
2,35,78,336
2,35,78,336
2,35,78,336
2,35,69,144
2,35,78,144
2,35,78,336
2,35,78,336
2,35,78,336
2,35,78,336
2,35,78,336
2,35,78,336
2,35,78,336
2,35,69,144
2,35,78,144
2,35,78,336
2,35,78,336
2,35,78,336
2,35,78,336
2,35,78,336
2,35,78,336
2,35,78,336
2,35,69,144
2,35,78,144
2,35,78,336
2,35,78,336
2,35,78,336
2,35,78,336
2,35,78,336
2,35,78,336
2,35,78,336
2,35,69,144
2,35,78,144
2,35,78,336
2,35,78,336
2,35,78,336
2,35,78,336
2,35,78,336
2,35,78,336
2,35,78,336
2,35,78,336
2,35,78,336
2,35,78,336
2,35,78,336
2,35,78,336
2,35,78,336
2,35,78,336
2,35,78,336
2,35,69,144
2,35,78,144
2,35,78,336
2,35,78,336
2,35,78,336
2,35,78,336
2,35,78,336
2,35,78,336
2,35,78,336
2,35,78,336
2,35,78,336
2,35,78,336
2,35,78,336
2,35,78,336
2,35,78,336
2,35,78,336
2,35,78,336
2,35,69,144
2,35,78,144
2,35,78,336
2,35,78,336
2,35,78,336
2,35,78,336
2,35,60,248
2,35,78,40
2,35,78,336
2,35,60,248
2,35,78,40
2,35,78,336
2,35,78,1488
2,35,78,1488
2,35,78,336
2,35,78,336
2,35,78,336
2,35,78,336
2,35,78,336
2,35,78,336
2,35,78,336
2,35,69,144
2,35,78,144
2,35,78,336
2,35,78,336
2,35,78,336
2,35,78,336
2,35,78,336
2,35,78,336
2,35,78,336
2,35,69,144
2,35,78,144
2,35,78,336
2,35,78,336
2,35,78,336
2,35,78,336
2,35,78,336
2,35,78,336
2,35,78,336
2,35,69,144
2,35,78,144
2,35,78,336
2,35,78,336
2,35,78,336
2,35,78,336
2,35,78,336
2,35,78,336
2,35,78,336
2,35,69,144
2,35,78,144
2,35,78,336
2,35,78,336
2,35,78,336
2,35,78,336
2,35,78,336
2,35,78,336
2,35,78,336
2,35,69,144
2,35,78,144
2,35,78,336
2,35,78,336
2,35,78,336
2,35,78,336
2,35,78,336
2,35,78,336
2,35,78,336
2,35,69,144
2,35,78,144
2,35,78,336
2,35,78,336
2,35,78,336
2,35,78,336
2,35,78,336
2,35,78,336
2,35,78,336
2,35,69,144
2,35,78,144
2,35,78,336
2,35,78,336
2,35,78,336
2,35,78,336
2,35,78,336
2,35,78,336
2,35,78,336
2,35,69,144
3,38,72,36288
3,38,80,148
3,38,66,246
3,38,80,422
3,38,80,718
3,38,80,718
3,38,80,718
3,38,80,718
3,38,80,718
3,38,80,718
3,38,70,526
3,38,80,142
3,38,70,246
3,38,80,424
3,38,80,718
3,38,80,718
3,38,80,718
3,38,80,718
3,38,80,718
3,38,80,718
3,38,70,526
3,38,80,142
3,38,80,142
3,38,64,54
3,38,80,422
3,38,80,718
3,38,80,718
3,38,80,718
3,38,80,718
3,38,80,718
3,38,80,718
3,38,70,526
3,38,80,142
3,38,70,246
3,38,80,422
3,38,80,718
3,38,80,718
3,38,80,718
3,38,80,718
3,38,80,718
3,38,80,718
3,38,70,526
3,38,80,142
3,38,70,142
3,38,80,526
3,38,80,718
3,38,80,718
3,38,80,718
3,38,80,718
3,38,80,718
3,38,80,718
3,38,70,526
3,38,80,142
3,38,70,142
3,38,80,526
3,38,80,718
3,38,80,718
3,38,80,718
3,38,72,2830
3,38,80,148
3,38,66,246
3,38,80,422
3,38,80,718
3,38,80,718
3,38,80,718
3,38,80,718
3,38,80,718
3,38,80,718
3,38,70,526
3,38,80,142
3,38,70,246
3,38,80,422
3,38,80,718
3,38,80,718
3,38,80,718
3,38,80,718
3,38,80,718
3,38,80,718
3,38,68,246
3,38,58,142
3,38,75,38
3,38,80,142
3,38,70,246
3,38,80,422
3,38,80,718
3,38,80,718
3,38,80,718
3,38,80,718
3,38,80,718
3,38,80,718
3,38,70,438
3,38,80,230
3,38,73,142
3,38,80,526
3,38,80,718
3,38,80,718
3,38,80,718
3,38,80,718
3,38,80,718
3,38,80,718
3,38,70,438
3,38,80,230
3,38,70,246
3,38,80,422
3,38,80,718
3,38,80,718
3,38,80,718
3,38,72,2830
3,38,80,148
3,38,66,246
3,38,80,422
3,38,80,718
3,38,80,718
3,38,80,718
3,38,80,718
3,38,80,718
3,38,80,718
3,38,49,438
3,38,72,38
3,38,80,142
3,38,70,142
3,38,80,526
3,38,80,718
3,38,80,718
3,38,80,718
3,38,80,718
3,38,80,718
3,38,80,718
3,38,68,246
3,38,58,142
3,38,75,38
3,38,80,142
3,38,70,246
3,38,80,422
3,38,80,718
3,38,80,718
3,38,80,718
3,38,80,718
3,38,80,718
3,38,80,718
3,38,80,718
3,38,70,246
3,38,80,422
3,38,80,718
3,38,80,718
3,38,80,718
3,38,80,718
3,38,80,718
3,38,80,718
3,38,68,246
3,38,58,142
3,38,75,38
3,38,80,142
3,38,70,240
4,42,91,18432
4,42,91,138
4,42,91,142
4,42,91,142
4,42,91,152
4,42,91,142
4,42,91,150
4,42,91,146
4,42,91,142
4,42,91,138
4,42,91,142
4,42,91,142
4,42,91,152
4,42,91,142
4,42,91,150
4,42,91,146
4,42,91,142
4,42,91,138
4,42,91,142
4,42,91,142
4,42,91,152
4,42,91,142
4,42,91,150
4,42,91,146
4,42,91,142
4,42,91,138
4,42,91,142
4,42,91,142
4,42,91,152
4,42,91,142
4,42,91,150
4,42,91,146
4,42,91,142
4,42,91,138
4,42,91,142
4,42,91,142
4,42,91,152
4,42,91,142
4,42,91,150
4,42,91,146
4,42,91,142
4,42,91,138
4,42,91,142
4,42,91,142
4,42,91,152
4,42,91,142
4,42,91,150
4,42,91,146
4,42,91,142
4,42,91,138
4,42,91,142
4,42,91,142
4,42,91,152
4,42,91,142
4,42,91,150
4,42,91,146
4,42,91,142
4,42,91,138
4,42,91,142
4,42,91,142
4,42,91,152
4,42,91,142
4,42,91,150
4,42,91,146
4,42,91,142
4,42,91,138
4,42,91,142
4,42,91,142
4,42,91,152
4,42,91,142
4,42,91,150
4,42,91,146
4,42,91,142
4,42,91,138
4,42,91,142
4,42,91,142
4,42,91,152
4,42,91,142
4,42,91,150
4,42,91,146
4,42,91,3214
4,42,91,138
4,42,91,142
4,42,91,142
4,42,91,152
4,42,91,142
4,42,91,150
4,42,91,146
4,42,91,142
4,42,91,138
4,42,91,142
4,42,91,142
4,42,91,152
4,42,91,142
4,42,91,150
4,42,91,146
4,42,91,142
4,42,91,138
4,42,91,142
4,42,91,142
4,42,91,152
4,42,91,142
4,42,91,150
4,42,91,146
4,42,91,142
4,42,91,138
4,42,91,142
4,42,91,142
4,42,91,152
4,42,91,142
4,42,91,150
4,42,91,146
4,42,91,142
4,42,91,138
4,42,91,142
4,42,91,142
4,42,91,152
4,42,91,142
4,42,91,150
4,42,91,146
4,42,91,142
4,42,91,138
4,42,91,142
4,42,91,142
4,42,91,152
4,42,91,142
4,42,91,150
4,42,91,146
4,42,91,142
4,42,91,138
4,42,91,142
4,42,91,142
4,42,91,152
4,42,91,142
4,42,91,150
4,42,91,146
4,42,91,142
4,42,91,138
4,42,91,142
4,42,91,142
4,42,91,152
4,42,91,142
4,42,91,150
4,42,91,146
4,42,91,142
4,42,91,138
4,42,91,142
4,42,91,142
4,42,91,152
4,42,91,142
4,42,91,150
4,42,91,146
4,42,91,142
4,42,91,138
4,42,91,142
4,42,91,142
4,42,91,152
4,42,91,142
4,42,91,150
4,42,91,146
4,42,91,142
4,42,91,138
4,42,91,142
4,42,91,142
4,42,91,152
4,42,91,142
4,42,91,150
4,42,91,146
4,42,91,142
4,42,91,138
4,42,91,142
4,42,91,142
4,42,91,152
4,42,91,142
4,42,91,150
4,42,91,146
4,42,91,142
4,42,91,138
4,42,91,142
4,42,91,142
4,42,91,152
4,42,91,142
4,42,91,150
4,42,91,146
4,42,91,142
4,42,91,138
4,42,91,142
4,42,91,142
4,42,91,152
4,42,91,142
4,42,91,150
4,42,91,146
4,42,91,142
4,42,91,138
4,42,91,142
4,42,91,142
4,42,91,152
4,42,91,142
4,42,91,150
4,42,91,146
4,42,91,142
4,42,91,138
4,42,91,142
4,42,91,142
4,42,91,152
4,42,91,142
4,42,91,150
4,42,91,146
4,42,91,142
4,42,91,138
4,42,91,142
4,42,91,142
4,42,91,152
4,42,91,142
4,42,91,150
4,42,91,146
4,42,91,142
4,42,91,138
4,42,91,142
4,42,91,142
4,42,91,152
4,42,91,142
4,42,91,150
4,42,91,146
4,42,91,142
4,42,91,138
4,42,91,142
4,42,91,142
4,42,91,152
4,42,91,142
4,42,91,150
4,42,91,146
4,42,91,142
4,42,91,138
4,42,91,142
4,42,91,142
4,42,91,152
4,42,91,142
4,42,91,150
4,42,91,146
4,42,91,142
4,42,91,138
4,42,91,142
4,42,91,142
4,42,91,152
4,42,91,142
4,42,91,150
4,42,91,146
4,42,91,142
4,42,91,138
4,42,91,142
4,42,91,142
4,42,91,152
4,42,91,142
4,42,91,150
4,42,91,146
4,42,91,3214
4,42,91,138
4,42,91,142
4,42,91,142
4,42,91,152
4,42,91,142
4,42,91,150
4,42,91,146
4,42,91,142
4,42,91,138
4,42,91,142
4,42,91,142
4,42,91,152
4,42,91,142
4,42,91,62
4,42,91,46
4,42,91,146
4,42,91,142
4,42,91,138
4,42,91,142
4,42,91,142
4,42,91,152
4,42,91,142
4,42,91,150
4,42,91,146
4,42,91,142
4,42,91,138
4,42,91,142
4,42,91,142
4,42,91,152
4,42,91,142
4,42,91,150
4,42,91,146
4,42,91,142
4,42,91,138
4,42,91,142
4,42,91,142
4,42,91,152
4,42,91,142
4,42,91,150
4,42,91,146
4,42,91,54
4,42,91,38
4,42,91,138
4,42,91,142
4,42,91,142
4,42,91,152
4,42,91,54
4,42,91,38
4,42,91,150
4,42,91,146
4,42,91,54
4,42,91,38
4,42,91,138
4,42,91,142
4,42,91,142
4,42,91,152
4,42,91,142
4,42,91,150
4,42,91,146
4,42,91,142
4,42,91,138
4,42,91,142
4,42,91,142
4,42,91,152
4,42,91,142
4,42,91,150
4,42,91,146
4,42,91,142
4,42,91,138
4,42,91,142
4,42,91,142
4,42,91,152
4,42,91,142
4,42,91,150
4,42,91,146
4,42,91,142
4,42,91,138
4,42,91,142
4,42,91,142
4,42,91,152
4,42,91,142
4,42,91,150
4,42,91,146
4,42,91,54
4,42,91,38
4,42,91,138
4,42,91,142
4,42,91,142
4,42,91,152
4,42,91,142
4,42,91,150
4,42,91,146
4,42,91,142
4,42,91,138
4,42,91,142
4,42,91,142
4,42,91,152
4,42,91,142
4,42,91,150
4,42,91,146
4,42,91,142
4,42,91,138
4,42,91,142
4,42,91,142
4,42,91,152
4,42,91,142
4,42,91,150
4,42,91,146
4,42,91,142
4,42,91,138
4,42,91,142
4,42,91,142
4,42,91,152
4,42,91,142
4,42,91,150
4,42,91,146
4,42,91,142
4,42,91,138
4,42,91,142
4,42,91,142
4,42,91,152
4,42,91,142
4,42,91,150
4,42,91,146
4,42,91,142
4,42,91,138
4,42,91,142
4,42,91,142
4,42,91,152
4,42,91,142
4,42,91,150
4,42,91,146
4,42,91,54
4,42,91,38
4,42,91,138
4,42,91,142
4,42,91,142
4,42,91,152
4,42,91,142
4,42,91,150
4,42,91,146
4,42,91,142
4,42,91,138
4,42,91,142
4,42,91,142
4,42,91,152
4,42,91,142
4,42,91,150
4,42,91,146
4,42,91,142
4,42,91,330
4,42,91,334
4,42,91,334
4,42,91,338
4,42,91,330
4,42,91,334
4,42,91,334
4,42,91,338
4,42,91,138
4,42,91,142
4,42,91,142
4,42,91,152
4,42,91,142
4,42,91,150
4,42,91,146
4,42,91,142
4,42,91,138
4,42,91,142
4,42,91,142
4,42,91,152
4,42,91,142
4,42,91,150
4,42,91,146
4,42,91,142
4,42,91,138
4,42,91,142
4,42,91,142
4,42,91,152
4,42,91,142
4,42,91,150
4,42,91,146
4,42,91,142
4,42,91,138
4,42,91,142
4,42,91,142
4,42,91,152
4,42,91,142
4,42,91,150
4,42,91,146
4,42,91,142
4,42,91,138
4,42,91,142
4,42,91,142
4,42,91,152
4,42,91,142
4,42,91,150
4,42,91,146
4,42,91,142
4,42,91,138
4,42,91,142
4,42,91,142
4,42,91,152
4,42,91,142
4,42,91,150
4,42,91,146
4,42,91,142
4,42,91,138
4,42,91,142
4,42,91,142
4,42,91,152
4,42,91,142
4,42,91,150
4,42,91,146
4,42,91,142
4,42,91,138
4,42,91,142
4,42,91,142
4,42,91,152
4,42,91,142
4,42,91,150
4,42,91,146
4,42,91,142
4,42,91,138
4,42,91,142
4,42,91,142
4,42,91,152
4,42,91,142
4,42,91,150
4,42,91,146
4,42,91,142
4,42,91,138
4,42,91,142
4,42,91,142
4,42,91,152
4,42,91,142
4,42,91,150
4,42,91,146
4,42,91,142
4,42,91,138
4,42,91,142
4,42,91,142
4,42,91,152
4,42,91,142
4,42,91,150
4,42,91,146
4,42,91,142
4,42,91,138
4,42,91,142
4,42,91,142
4,42,91,152
4,42,91,142
4,42,91,150
4,42,91,146
4,42,91,142
4,42,91,138
4,42,91,142
4,42,91,142
4,42,91,152
4,42,91,142
4,42,91,150
4,42,91,146
4,42,91,142
4,42,91,138
4,42,91,142
4,42,91,142
4,42,91,152
4,42,91,142
4,42,91,150
4,42,91,146
4,42,91,142
4,42,91,138
4,42,91,142
4,42,91,142
4,42,91,152
4,42,91,142
4,42,91,150
4,42,91,146
4,42,91,142
4,42,91,138
4,42,91,142
4,42,91,142
4,42,91,152
4,42,91,142
4,42,91,150
4,42,91,146
5,49,82,6144
5,49,58,336
5,49,82,5712
5,49,58,336
5,49,82,5712
5,49,82,6096
5,49,58,336
5,49,82,5712
5,49,58,336
5,49,82,2640
5,49,58,336
5,49,82,2640
5,49,82,6096
5,49,82,6096
