track,note,velocity,time
1,65,67,3424
1,77,107,0
1,69,62,256
1,81,102,4
1,72,62,284
1,84,102,0
1,74,67,264
1,86,107,4
1,72,62,288
1,84,102,4
1,74,62,136
1,86,102,4
1,72,53,256
1,84,93,0
1,69,53,36
1,81,93,4
1,64,59,672
1,76,99,4
1,69,59,284
1,81,99,0
1,72,59,292
1,84,99,0
1,74,62,268
1,86,102,0
1,72,62,284
1,84,102,4
1,74,53,136
1,86,93,4
1,72,56,232
1,84,96,4
1,69,49,16
1,81,89,4
1,62,49,672
1,74,89,4
1,67,56,256
1,79,96,4
1,70,53,292
1,82,93,0
1,74,67,272
1,86,107,0
1,70,49,284
1,82,89,0
1,74,49,132
1,86,89,0
1,70,53,256
1,82,93,0
1,67,62,32
1,79,102,4
1,60,49,672
1,72,89,4
1,64,53,244
1,76,93,0
1,67,47,272
1,79,87,4
1,72,62,220
1,84,102,4
1,72,49,160
1,84,89,4
1,70,53,48
1,82,93,4
1,69,56,240
1,81,96,4
1,67,67,272
1,79,107,4
1,77,67,31384
1,81,76,196
1,84,73,184
1,86,87,216
1,84,73,220
1,86,82,108
1,84,73,224
1,81,76,8
1,76,82,644
1,81,79,240
1,84,69,240
1,86,87,224
1,84,73,216
1,86,73,120
1,84,79,232
1,81,69,12
1,75,76,636
1,79,63,196
1,84,69,236
1,86,82,224
1,84,73,220
1,86,69,120
1,84,67,180
1,79,69,12
1,74,82,660
1,78,82,224
1,81,73,240
1,86,82,260
1,82,63,224
1,86,76,128
1,82,67,232
1,79,73,28
1,77,69,19100
1,81,82,256
1,84,67,268
1,86,82,228
1,84,66,240
1,86,69,108
1,84,67,200
1,81,69,128
1,74,69,648
1,79,69,164
1,82,69,252
1,84,73,204
1,84,76,592
1,77,67,31716
1,81,76,196
1,84,73,184
1,86,87,224
1,84,73,220
1,86,82,108
1,84,73,228
1,81,76,12
1,76,82,644
1,81,79,244
1,84,69,244
1,86,87,228
1,84,73,212
1,86,73,116
1,84,79,228
1,81,69,12
1,75,76,636
1,79,63,196
1,84,69,236
1,86,82,224
1,84,73,220
1,86,69,120
1,84,67,180
1,79,69,20
1,74,82,660
1,78,82,224
1,81,73,240
1,86,82,260
1,82,63,220
1,86,76,128
1,82,67,236
1,79,73,28
1,77,84,19096
1,81,87,248
1,84,87,280
1,86,96,256
1,84,93,244
1,86,87,116
1,84,87,224
1,81,82,32
1,76,87,660
1,81,87,264
1,84,87,292
1,86,87,264
1,84,93,264
1,86,82,116
1,84,87,256
1,81,73,32
1,75,82,652
1,79,67,228
1,84,66,244
1,86,87,260
1,84,82,232
1,86,82,108
1,84,76,228
1,81,73,20
1,79,79,640
1,82,71,280
1,79,69,296
1,84,99,288
1,84,79,656
1,77,84,27160
1,81,87,248
1,84,87,284
1,86,96,248
1,84,93,244
1,86,87,112
1,84,87,224
1,81,82,32
1,76,87,664
1,81,87,260
1,84,87,292
1,86,87,260
1,84,93,268
1,86,82,116
1,84,87,260
1,81,73,28
1,75,82,652
1,79,67,228
1,84,66,248
1,86,87,256
1,84,82,236
1,86,82,112
1,84,76,228
1,81,73,20
1,79,79,640
1,82,71,276
1,79,69,300
1,84,99,288
1,84,79,656
1,77,84,1048
1,81,82,240
1,84,79,288
1,86,77,256
1,84,74,244
1,86,72,100
1,84,70,220
1,81,69,36
1,76,64,660
1,81,61,272
1,84,59,296
1,86,56,272
1,84,53,272
1,86,52,116
1,84,49,260
1,81,48,24
1,75,43,652
1,79,40,236
1,84,38,248
1,86,35,252
1,84,33,240
1,86,31,104
1,84,28,216
1,81,27,20
1,79,22,640
1,82,20,280
1,79,17,300
1,84,14,284
1,84,9,660
1,77,84,1052
1,81,82,244
1,84,79,292
1,86,77,248
1,84,74,244
1,86,72,100
1,84,70,216
1,81,69,32
1,76,64,664
1,81,61,272
1,84,59,304
1,86,56,276
1,84,53,272
1,86,52,116
1,84,49,256
1,81,48,24
1,75,43,660
1,79,40,236
1,84,38,248
1,86,35,252
1,84,33,232
1,86,31,112
1,84,28,228
1,81,27,28
1,79,22,640
1,82,20,272
1,79,17,296
1,84,14,292
1,84,9,660
2,69,63,3032
2,72,63,4
2,60,57,4
2,65,66,4
2,69,52,8
2,60,46,4
2,65,52,4
2,72,56,4
2,65,50,252
2,72,43,4
2,69,43,0
2,60,50,4
2,72,42,128
2,65,51,4
2,69,47,4
2,60,42,0
2,72,35,256
2,65,40,4
2,69,42,0
2,60,36,4
2,72,42,8
2,65,46,4
2,69,51,0
2,60,40,4
2,69,57,252
2,60,51,4
2,65,47,4
2,72,56,4
2,72,51,8
2,65,52,4
2,69,51,4
2,60,52,4
2,64,50,252
2,72,54,4
2,69,52,4
2,72,43,8
2,69,53,4
2,64,21,0
2,69,50,256
2,72,47,4
2,64,47,4
2,69,52,8
2,72,45,4
2,64,43,0
2,64,51,252
2,72,51,4
2,69,54,4
2,72,43,8
2,69,50,4
2,64,40,0
2,64,48,252
2,72,56,4
2,69,56,0
2,72,46,8
2,69,54,4
2,64,46,0
2,70,53,252
2,74,56,4
2,62,53,4
2,67,53,4
2,74,46,8
2,67,50,4
2,70,42,0
2,62,45,4
2,74,54,256
2,67,52,0
2,70,51,4
2,62,52,4
2,74,43,8
2,70,42,0
2,67,51,4
2,62,43,4
2,67,50,256
2,74,57,4
2,62,52,4
2,70,46,4
2,67,53,8
2,70,41,0
2,74,52,4
2,70,54,252
2,62,52,4
2,74,61,0
2,67,53,4
2,74,50,12
2,70,50,4
2,67,43,4
2,62,51,4
2,64,50,252
2,67,66,4
2,70,61,4
2,72,56,4
2,72,53,8
2,67,53,0
2,70,52,4
2,64,53,4
2,72,56,256
2,67,54,4
2,70,52,4
2,64,52,0
2,72,56,8
2,70,48,4
2,67,52,0
2,64,50,4
2,64,52,260
2,70,57,4
2,72,57,0
2,67,61,4
2,72,54,12
2,67,54,4
2,70,47,4
2,64,50,4
2,72,61,252
2,67,54,4
2,70,54,4
2,64,56,0
2,72,66,8
2,67,59,4
2,70,54,4
2,64,56,4
2,69,69,252
2,65,63,4
2,72,61,4
2,60,48,4
2,72,51,32
2,65,54,4
2,69,50,0
2,60,46,4
2,65,48,276
2,60,45,4
2,72,52,4
2,69,52,0
2,65,56,68
2,72,52,4
2,69,53,4
2,60,45,0
2,72,63,288
2,69,63,4
2,65,50,4
2,60,56,4
2,65,53,80
2,72,50,4
2,69,58,0
2,60,48,4
2,72,59,300
2,65,53,4
2,69,59,0
2,60,56,4
2,72,47,64
2,65,53,4
2,69,53,4
2,60,52,4
2,69,63,304
2,72,69,4
2,64,58,4
2,72,53,64
2,69,57,0
2,64,48,4
2,64,56,304
2,72,61,4
2,69,66,4
2,69,51,44
2,72,48,4
2,64,45,0
2,64,53,300
2,72,59,4
2,69,58,4
2,64,42,72
2,72,51,4
2,69,52,4
2,64,56,292
2,72,63,4
2,69,58,4
2,69,56,64
2,72,46,4
2,64,45,0
2,63,61,280
2,67,61,4
2,72,52,4
2,63,46,32
2,67,53,4
2,72,40,4
2,63,50,288
2,67,54,4
2,72,61,4
2,67,56,56
2,72,50,4
2,63,53,4
2,72,69,268
2,69,58,0
2,66,61,4
2,62,59,4
2,62,47,80
2,66,51,4
2,69,54,4
2,72,52,0
2,66,52,284
2,72,61,4
2,69,59,0
2,62,53,4
2,62,47,64
2,69,54,4
2,66,50,4
2,72,52,4
2,70,69,276
2,67,69,4
2,62,53,4
2,67,54,88
2,70,56,4
2,62,46,4
2,70,69,300
2,67,58,4
2,62,56,0
2,67,56,52
2,70,56,4
2,62,48,0
2,70,69,300
2,67,69,4
2,62,52,4
2,67,57,72
2,70,50,4
2,62,46,0
2,67,66,284
2,70,69,4
2,62,56,0
2,62,35,48
2,70,54,4
2,67,58,4
2,74,74,304
2,67,66,4
2,70,66,4
2,62,61,4
2,62,46,72
2,74,54,4
2,70,43,4
2,67,54,0
2,67,59,276
2,70,56,4
2,74,66,0
2,62,59,4
2,67,56,80
2,74,47,4
2,70,50,0
2,62,52,4
2,73,63,248
2,65,57,4
2,70,61,4
2,70,56,72
2,73,56,4
2,65,46,4
2,70,66,268
2,73,66,4
2,65,59,0
2,70,56,60
2,73,59,4
2,65,54,0
2,65,59,276
2,69,66,4
2,72,66,4
2,72,56,60
2,69,59,0
2,65,52,4
2,69,59,272
2,65,57,4
2,72,63,0
2,69,56,48
2,72,56,4
2,65,48,0
2,69,54,264
2,66,48,4
2,74,53,4
2,72,46,4
2,69,58,48
2,74,53,4
2,66,52,4
2,72,53,0
2,66,47,220
2,69,57,4
2,74,56,0
2,72,54,4
2,69,59,64
2,66,53,4
2,74,50,4
2,72,54,0
2,67,63,248
2,74,59,4
2,71,66,4
2,65,58,4
2,67,53,60
2,71,57,4
2,74,47,4
2,65,46,0
2,71,61,276
2,74,59,4
2,67,57,4
2,65,53,4
2,74,52,76
2,67,52,4
2,71,52,4
2,65,52,0
2,74,58,272
2,71,47,0
2,67,54,4
2,65,61,4
2,74,47,88
2,67,46,4
2,71,46,4
2,65,42,0
2,67,59,276
2,74,58,4
2,71,47,4
2,65,59,4
2,65,48,64
2,74,47,4
2,71,54,4
2,67,52,0
2,70,63,284
2,73,66,4
2,65,59,4
2,73,53,88
2,70,53,4
2,65,42,4
2,70,61,272
2,73,63,4
2,65,57,0
2,70,57,52
2,73,72,4
2,65,54,4
2,64,63,272
2,67,72,4
2,72,56,4
2,70,66,4
2,72,58,80
2,67,57,4
2,70,57,0
2,64,47,4
2,67,72,276
2,70,72,4
2,72,66,4
2,64,57,0
2,72,69,68
2,67,61,4
2,70,61,4
2,64,54,0
2,65,66,312
2,70,61,4
2,61,56,4
2,70,56,320
2,61,52,4
2,65,66,4
2,61,58,164
2,70,59,4
2,65,61,4
2,61,57,248
2,70,66,4
2,65,74,4
2,70,61,236
2,67,66,4
2,64,61,4
2,72,66,4
2,64,69,204
2,70,66,4
2,67,61,4
2,72,69,0
2,64,48,180
2,67,57,4
2,70,59,0
2,72,57,4
2,70,61,28
2,67,63,4
2,72,50,4
2,64,53,4
2,70,53,200
2,67,61,4
2,72,57,0
2,64,69,4
2,72,63,196
2,70,63,4
2,67,74,4
2,64,63,0
2,67,59,200
2,72,59,4
2,70,66,4
2,64,66,4
2,65,63,180
2,72,61,4
2,69,63,4
2,60,56,4
2,72,54,128
2,65,54,0
2,60,48,4
2,69,53,4
2,60,50,252
2,65,58,4
2,69,63,4
2,72,66,4
2,65,56,8
2,69,50,0
2,72,43,4
2,60,53,0
2,65,63,236
2,69,61,4
2,72,58,4
2,60,52,4
2,65,51,120
2,72,48,4
2,69,52,4
2,60,48,4
2,60,59,248
2,69,59,0
2,65,63,4
2,72,69,4
2,65,61,8
2,69,57,4
2,72,57,0
2,60,52,4
2,72,69,252
2,69,63,4
2,64,61,4
2,64,48,124
2,69,58,4
2,72,53,4
2,72,61,256
2,64,57,4
2,69,69,4
2,64,50,4
2,72,52,4
2,69,57,0
2,64,57,252
2,72,66,4
2,69,66,4
2,72,57,128
2,64,42,0
2,69,56,4
2,69,59,252
2,64,69,4
2,72,66,4
2,72,56,128
2,69,59,4
2,64,52,4
2,63,59,252
2,67,59,4
2,72,59,4
2,72,53,8
2,67,66,4
2,63,51,0
2,63,52,256
2,67,59,0
2,72,57,4
2,63,48,4
2,67,53,4
2,72,48,4
2,63,50,256
2,67,61,4
2,72,56,4
2,63,48,8
2,67,57,0
2,72,51,4
2,63,48,252
2,67,54,4
2,72,48,0
2,72,54,4
2,63,56,4
2,67,54,0
2,72,51,252
2,69,61,4
2,66,51,4
2,62,56,4
2,69,57,4
2,62,28,4
2,72,40,4
2,66,48,0
2,62,54,256
2,69,61,0
2,66,53,4
2,72,58,4
2,72,42,8
2,66,45,4
2,69,54,0
2,62,17,4
2,70,61,252
2,62,51,4
2,67,63,4
2,67,56,8
2,62,45,0
2,70,53,4
2,62,56,252
2,67,69,4
2,70,66,4
2,67,58,132
2,62,43,4
2,70,48,4
2,67,69,252
2,62,58,4
2,70,69,4
2,67,53,4
2,70,52,4
2,62,42,4
2,67,66,252
2,70,59,4
2,62,54,4
2,70,59,4
2,62,42,4
2,67,54,0
2,61,47,252
2,70,57,4
2,65,61,4
2,65,54,4
2,61,46,0
2,70,52,4
2,65,56,256
2,61,53,0
2,70,58,4
2,61,46,4
2,70,53,4
2,65,50,0
2,65,53,132
2,60,53,4
2,69,57,4
2,65,50,124
2,60,43,4
2,69,57,4
2,60,52,252
2,67,63,4
2,64,61,0
2,64,63,4
2,67,59,4
2,60,52,4
2,65,58,248
2,62,56,4
2,69,72,4
2,65,53,124
2,69,52,4
2,62,47,4
2,65,58,252
2,69,63,4
2,62,53,4
2,65,56,4
2,69,59,4
2,62,48,0
2,65,61,252
2,69,66,4
2,60,59,4
2,69,54,124
2,65,51,4
2,60,46,4
2,60,52,248
2,65,52,4
2,69,57,4
2,60,52,124
2,69,51,4
2,65,54,0
2,65,59,252
2,61,52,4
2,69,58,4
2,61,50,4
2,65,72,4
2,69,58,4
2,61,45,252
2,65,58,4
2,69,53,0
2,61,47,4
2,65,61,4
2,69,57,0
2,65,56,252
2,62,56,4
2,69,46,4
2,65,53,0
2,69,59,4
2,62,46,4
2,65,59,252
2,69,63,4
2,62,53,0
2,62,48,0
2,65,48,4
2,69,53,4
2,60,51,252
2,62,56,4
2,66,52,4
2,69,69,4
2,60,46,4
2,69,59,4
2,66,51,4
2,62,53,4
2,69,71,4
2,60,54,248
2,66,57,4
2,62,54,4
2,69,72,4
2,66,54,8
2,62,53,0
2,69,53,4
2,60,50,4
2,67,63,252
2,70,63,4
2,62,52,4
2,67,53,124
2,62,31,4
2,70,50,0
2,67,69,252
2,70,66,4
2,62,57,4
2,70,53,128
2,62,30,4
2,67,51,4
2,70,53,252
2,61,56,4
2,65,61,4
2,65,56,124
2,61,47,4
2,70,53,4
2,70,57,252
2,65,57,4
2,61,45,4
2,65,53,4
2,70,52,4
2,61,53,4
2,70,52,128
2,65,54,4
2,62,56,4
2,65,54,4
2,70,42,4
2,62,25,4
2,65,57,252
2,70,53,4
2,62,53,4
2,65,50,0
2,62,43,4
2,70,48,4
2,64,57,252
2,70,58,4
2,60,53,4
2,70,51,124
2,64,54,0
2,60,42,4
2,64,61,252
2,70,58,4
2,60,54,4
2,64,53,124
2,70,56,4
2,60,41,4
2,69,74,252
2,60,54,4
2,65,61,4
2,65,53,128
2,69,51,4
2,60,42,0
2,65,61,252
2,69,66,4
2,60,57,4
2,65,59,124
2,60,51,4
2,69,57,4
2,64,61,256
2,60,54,4
2,69,72,4
2,69,50,4
2,64,53,4
2,60,47,0
2,69,63,252
2,60,56,4
2,64,63,4
2,69,56,8
2,60,51,0
2,64,56,4
2,65,54,252
2,62,53,0
2,70,54,4
2,65,52,124
2,70,52,4
2,62,50,4
2,62,56,252
2,70,69,4
2,65,69,4
2,62,50,8
2,70,54,0
2,65,54,4
2,70,63,256
2,67,63,4
2,72,66,4
2,64,58,0
2,67,72,252
2,70,58,4
2,72,61,0
2,64,61,4
2,69,69,132
2,65,63,4
2,72,61,4
2,60,48,4
2,72,51,36
2,65,54,4
2,69,50,0
2,60,46,4
2,65,48,276
2,60,45,4
2,72,52,0
2,69,52,4
2,65,56,68
2,72,52,4
2,69,53,4
2,60,45,0
2,72,63,284
2,69,63,4
2,65,50,4
2,60,56,4
2,65,53,92
2,72,50,4
2,69,58,0
2,60,48,4
2,72,59,300
2,65,53,4
2,69,59,0
2,60,56,4
2,72,47,68
2,65,53,4
2,69,53,4
2,60,52,4
2,69,63,300
2,72,69,4
2,64,58,4
2,72,53,64
2,69,57,4
2,64,48,4
2,64,56,300
2,72,61,4
2,69,66,4
2,69,51,52
2,72,48,4
2,64,45,4
2,64,53,300
2,72,59,4
2,69,58,4
2,64,42,76
2,72,51,4
2,69,52,0
2,64,56,292
2,72,63,4
2,69,58,0
2,69,56,64
2,72,46,4
2,64,45,4
2,63,61,280
2,67,61,4
2,72,52,4
