track,note,velocity,time
1,64,127,1640
1,64,0,79
1,60,127,1
1,60,0,39
1,62,127,1
1,62,0,399
1,64,127,201
1,64,0,79
1,60,127,1
1,60,0,39
1,62,127,1
1,62,0,399
1,62,127,81
1,62,0,119
1,62,127,1
1,62,0,39
1,67,127,1
1,67,0,119
1,64,127,1
1,64,0,239
1,60,127,1
1,60,0,119
1,62,127,1
1,62,0,79
1,60,127,1
1,60,0,79
1,62,127,1
1,62,0,559
1,62,127,81
1,62,0,39
1,67,127,1
1,67,0,79
1,67,127,1
1,67,0,99
1,69,127,1
1,69,0,59
1,66,127,1
1,66,0,79
1,64,127,1
1,64,0,39
1,64,127,1
1,64,0,239
1,67,127,1
1,67,0,79
1,67,127,1
1,67,0,159
1,69,127,1
1,69,0,119
1,66,127,1
1,66,0,79
1,64,127,1
1,64,0,39
1,64,127,1
1,64,0,239
1,65,127,1
1,65,0,39
1,64,127,1
1,64,0,39
1,65,127,1
1,65,0,119
1,67,127,1
1,67,0,159
1,64,127,1
1,64,0,39
1,62,127,1
1,62,0,39
1,60,127,1
1,60,0,119
1,62,127,1
1,62,0,159
1,64,127,1
1,64,0,59
1,62,127,1
1,62,0,59
1,64,127,1
1,64,0,599
1,64,127,201
1,64,0,79
1,60,127,1
1,60,0,39
1,62,127,1
1,62,0,399
1,64,127,201
1,64,0,79
1,60,127,1
1,60,0,39
1,62,127,1
1,62,0,399
1,62,127,81
1,62,0,119
1,62,127,1
1,62,0,39
1,67,127,1
1,67,0,119
1,64,127,1
1,64,0,239
1,60,127,1
1,60,0,119
1,62,127,1
1,62,0,79
1,60,127,1
1,60,0,79
1,62,127,1
1,62,0,559
1,62,127,81
1,62,0,39
1,67,127,1
1,67,0,79
1,67,127,1
1,67,0,99
1,69,127,1
1,69,0,59
1,66,127,1
1,66,0,79
1,64,127,1
1,64,0,39
1,64,127,1
1,64,0,239
1,67,127,1
1,67,0,79
1,67,127,1
1,67,0,159
1,69,127,1
1,69,0,119
1,66,127,1
1,66,0,79
1,64,127,1
1,64,0,39
1,64,127,1
1,64,0,239
1,65,127,1
1,65,0,39
1,64,127,1
1,64,0,39
1,65,127,1
1,65,0,119
1,67,127,1
1,67,0,159
1,64,127,1
1,64,0,39
1,62,127,1
1,62,0,39
1,60,127,1
1,60,0,119
1,62,127,1
1,62,0,159
1,64,127,1
1,64,0,59
1,62,127,1
1,62,0,119
1,64,127,1
1,64,0,779
1,64,127,241
1,64,0,59
1,60,127,1
1,60,0,119
1,62,127,1
1,62,0,539
1,64,127,241
1,64,0,59
1,60,127,1
1,60,0,119
1,62,127,1
1,62,0,539
1,62,127,121
1,62,0,239
1,67,127,1
1,67,0,59
1,64,127,1
1,64,0,419
1,60,127,1
1,60,0,119
1,62,127,1
1,62,0,59
1,60,127,1
1,60,0,119
1,62,127,1
1,62,0,779
1,62,127,61
1,62,0,59
1,67,127,1
1,67,0,119
1,67,127,1
1,67,0,59
1,69,127,1
1,69,0,119
1,66,127,1
1,66,0,119
1,64,127,1
1,64,0,119
1,64,127,1
1,64,0,299
1,67,127,121
1,67,0,119
1,67,127,1
1,67,0,59
1,69,127,1
1,69,0,119
1,66,127,1
1,66,0,119
1,64,127,1
1,64,0,119
1,64,127,1
1,64,0,299
1,65,127,121
1,65,0,59
1,64,127,1
1,64,0,59
1,65,127,1
1,65,0,59
1,67,127,1
1,67,0,119
1,64,127,1
1,64,0,119
1,62,127,1
1,62,0,119
1,60,127,1
1,60,0,119
1,62,127,1
1,62,0,179
1,64,127,1
1,64,0,59
1,62,127,1
1,62,0,119
1,64,127,1
1,64,0,779
1,64,127,241
1,64,0,59
1,60,127,1
1,60,0,119
1,62,127,1
1,62,0,539
1,64,127,241
1,64,0,59
1,60,127,1
1,60,0,119
1,62,127,1
1,62,0,539
1,62,127,121
1,62,0,239
1,67,127,1
1,67,0,59
1,64,127,1
1,64,0,419
1,60,127,1
1,60,0,119
1,62,127,1
1,62,0,59
1,60,127,1
1,60,0,119
1,62,127,1
1,62,0,779
1,62,127,61
1,62,0,59
1,67,127,1
1,67,0,119
1,67,127,1
1,67,0,59
1,69,127,1
1,69,0,119
1,66,127,1
1,66,0,119
1,64,127,1
1,64,0,119
1,64,127,1
1,64,0,299
1,67,127,121
1,67,0,119
1,67,127,1
1,67,0,59
1,69,127,1
1,69,0,119
1,66,127,1
1,66,0,119
1,64,127,1
1,64,0,119
1,64,127,1
1,64,0,299
1,65,127,121
1,65,0,59
1,64,127,1
1,64,0,59
1,65,127,1
1,65,0,59
1,67,127,1
1,67,0,119
1,64,127,1
1,64,0,119
1,62,127,1
1,62,0,119
1,60,127,1
1,60,0,119
1,62,127,1
1,62,0,179
1,64,127,1
1,64,0,59
1,62,127,1
1,62,0,119
1,64,127,1
1,64,0,779
1,64,127,241
1,64,0,59
1,60,127,1
1,60,0,119
1,62,127,1
1,62,0,539
1,64,127,241
1,64,0,59
1,60,127,1
1,60,0,119
1,62,127,1
1,62,0,539
1,62,127,121
1,62,0,239
1,67,127,1
1,67,0,59
1,64,127,1
1,64,0,419
1,60,127,1
1,60,0,119
1,62,127,1
1,62,0,59
1,60,127,1
1,60,0,119
1,62,127,1
1,62,0,779
1,62,127,61
1,62,0,59
1,67,127,1
1,67,0,119
1,67,127,1
1,67,0,59
1,69,127,1
1,69,0,119
1,66,127,1
1,66,0,119
1,64,127,1
1,64,0,119
1,64,127,1
1,64,0,299
1,67,127,121
1,67,0,119
1,67,127,1
1,67,0,59
1,69,127,1
1,69,0,119
1,66,127,1
1,66,0,119
1,64,127,1
1,64,0,119
1,64,127,1
1,64,0,299
1,62,127,61
1,62,0,59
1,67,127,1
1,67,0,119
1,67,127,1
1,67,0,59
1,69,127,1
1,69,0,119
1,66,127,1
1,66,0,119
1,64,127,1
1,64,0,119
1,64,127,1
1,64,0,299
1,67,127,121
1,67,0,119
1,67,127,1
1,67,0,59
1,69,127,1
1,69,0,119
1,66,127,1
1,66,0,119
1,64,127,1
1,64,0,119
1,64,127,1
1,64,0,59
1,69,127,1
1,69,0,59
1,69,127,1
1,69,0,59
1,69,127,1
1,69,0,59
1,67,127,1
1,67,0,59
1,67,127,121
1,67,0,119
1,67,127,1
1,67,0,59
1,69,127,1
1,69,0,119
1,66,127,1
1,66,0,119
1,64,127,1
1,64,0,119
1,64,127,1
1,64,0,299
1,67,127,121
1,67,0,119
1,67,127,1
1,67,0,59
1,69,127,1
1,69,0,119
1,66,127,1
1,66,0,119
1,64,127,1
1,64,0,119
1,64,127,1
1,64,0,119
1,69,127,1
1,69,0,179
1,67,127,1
1,67,0,119
1,67,127,1
1,67,0,119
1,67,127,1
1,67,0,59
1,69,127,1
1,69,0,119
1,66,127,1
1,66,0,119
1,64,127,1
1,64,0,119
1,64,127,1
1,64,0,299
1,67,127,121
1,67,0,119
1,67,127,1
1,67,0,59
1,69,127,1
1,69,0,119
1,66,127,1
1,66,0,119
1,64,127,1
1,64,0,119
1,64,127,1
1,64,0,299
1,65,127,121
1,65,0,59
1,64,127,1
1,64,0,59
1,65,127,1
1,65,0,59
1,67,127,1
1,67,0,179
1,64,127,1
1,64,0,59
1,62,127,1
1,62,0,119
1,60,127,1
1,60,0,119
1,62,127,1
1,62,0,179
1,64,127,1
1,64,0,59
1,62,127,1
1,62,0,119
1,64,127,1
1,64,0,239
1,65,127,1
1,65,0,29
1,62,127,1
1,62,0,29
1,64,127,1
1,64,0,479
1,64,127,1
1,64,0,59
1,62,127,1
1,62,0,119
1,64,127,1
1,64,0,179
1,62,127,1
1,62,0,119
1,64,127,1
1,64,0,59
1,62,127,1
1,62,0,119
1,64,127,1
1,64,0,179
1,62,127,1
1,62,0,119
1,64,127,1
1,64,0,959
2,62,127,21600
2,62,0,60
2,67,127,0
2,67,0,120
2,69,127,0
2,69,0,480
2,70,127,0
2,70,0,120
2,69,127,0
2,69,0,120
2,67,127,0
2,67,0,120
2,65,127,0
2,65,0,599
2,67,127,1
2,67,0,30
2,65,127,0
2,65,0,30
2,64,127,0
2,64,0,480
2,62,127,360
2,62,0,120
2,66,127,0
2,66,0,60
2,64,127,0
2,64,0,120
2,62,127,0
2,62,0,120
2,64,127,0
2,64,0,60
2,66,127,0
2,66,0,60
2,73,127,780
2,73,0,60
2,76,127,0
2,76,0,120
2,74,127,0
2,74,0,480
2,73,127,0
2,73,0,300
2,73,127,0
2,73,0,60
2,76,127,0
2,76,0,120
2,74,127,0
2,74,0,1020
2,71,127,480
2,71,0,60
2,69,127,0
2,69,0,120
2,71,127,0
2,71,0,120
2,69,127,0
2,69,0,60
2,71,127,0
2,71,0,120
2,62,127,720
2,62,0,60
2,67,127,0
2,67,0,120
2,69,127,0
2,69,0,480
2,70,127,0
2,70,0,120
2,69,127,0
2,69,0,120
2,67,127,0
2,67,0,120
2,65,127,0
2,65,0,599
2,67,127,1
2,67,0,30
2,65,127,0
2,65,0,30
2,64,127,0
2,64,0,480
2,62,127,360
2,62,0,120
2,66,127,0
2,66,0,60
2,64,127,0
2,64,0,120
2,62,127,0
2,62,0,120
2,64,127,0
2,64,0,60
2,66,127,0
2,66,0,60
2,73,127,780
2,73,0,60
2,76,127,0
2,76,0,120
2,74,127,0
2,74,0,480
2,73,127,0
2,73,0,300
2,73,127,0
2,73,0,60
2,76,127,0
2,76,0,120
2,74,127,0
2,74,0,480
2,73,127,0
2,73,0,300
2,73,127,0
2,73,0,60
2,76,127,0
2,76,0,120
2,74,127,0
2,74,0,480
2,73,127,0
2,73,0,300
2,73,127,0
2,73,0,60
2,76,127,0
2,76,0,120
2,74,127,0
2,74,0,480
2,73,127,0
2,73,0,300
2,73,127,0
2,73,0,60
2,76,127,0
2,76,0,120
2,74,127,0
2,74,0,480
2,73,127,0
2,73,0,300
2,73,127,0
2,73,0,60
2,76,127,0
2,76,0,120
2,74,127,0
2,74,0,480
2,73,127,0
2,73,0,300
2,73,127,0
2,73,0,60
2,76,127,0
2,76,0,120
2,74,127,0
2,74,0,480
2,73,127,0
2,73,0,300
2,73,127,0
2,73,0,60
2,76,127,0
2,76,0,180
2,74,127,0
2,74,0,120
2,62,127,2640
2,62,0,120
2,64,127,0
2,68,127,0
2,73,127,0
2,76,127,0
2,76,0,960
2,64,0,0
2,68,0,0
2,73,0,0
3,64,127,21600
3,64,0,60
3,67,127,0
3,67,0,120
3,64,127,0
3,64,0,480
3,64,127,0
3,64,0,246
3,62,127,54
3,62,0,60
3,65,127,0
3,65,0,120
3,69,127,0
3,74,127,0
3,77,127,0
3,77,0,480
3,74,0,0
3,69,0,0
3,75,127,0
3,79,127,0
3,70,127,0
3,70,0,30
3,79,0,0
3,75,0,0
3,69,127,0
3,74,127,0
3,77,127,0
3,77,0,30
3,74,0,0
3,69,0,0
3,67,127,0
3,72,127,0
3,76,127,0
3,76,0,480
3,72,0,0
3,67,0,0
3,71,127,360
3,62,127,0
3,62,0,120
3,71,0,0
3,66,127,0
3,74,127,0
3,74,0,60
3,66,0,0
3,64,127,0
3,72,127,0
3,72,0,120
3,64,0,0
3,66,127,0
3,71,127,0
3,71,0,120
3,66,0,0
3,64,127,0
3,69,127,0
3,69,0,60
3,64,0,0
3,66,127,0
3,71,127,0
3,71,0,120
3,66,0,0
3,64,127,720
3,69,127,0
3,69,0,60
3,64,0,0
3,73,127,0
3,69,127,0
3,69,0,120
3,73,0,0
3,67,127,0
3,71,127,0
3,71,0,480
3,67,0,0
3,64,127,0
3,69,127,0
3,69,0,300
3,64,0,0
3,64,127,0
3,69,127,0
3,69,0,60
3,64,0,0
3,73,127,0
3,69,127,0
3,69,0,120
3,73,0,0
3,65,127,0
3,69,127,0
3,69,0,540
3,65,0,0
3,71,127,0
3,67,127,0
3,67,0,480
3,71,0,0
3,67,127,480
3,67,0,60
3,65,127,0
3,65,0,120
3,67,127,0
3,67,0,120
3,65,127,0
3,65,0,60
3,67,127,0
3,67,0,120
3,64,127,720
3,64,0,60
3,67,127,0
3,67,0,120
3,64,127,0
3,64,0,480
3,64,127,0
3,64,0,246
3,62,127,54
3,62,0,60
3,65,127,0
3,65,0,120
3,69,127,0
3,74,127,0
3,77,127,0
3,77,0,480
3,74,0,0
3,69,0,0
3,75,127,0
3,79,127,0
3,70,127,0
3,70,0,30
3,79,0,0
3,75,0,0
3,69,127,0
3,74,127,0
3,77,127,0
3,77,0,30
3,74,0,0
3,69,0,0
3,67,127,0
3,72,127,0
3,76,127,0
3,76,0,480
3,72,0,0
3,67,0,0
3,71,127,360
3,62,127,0
3,62,0,120
3,71,0,0
3,66,127,0
3,74,127,0
3,74,0,60
3,66,0,0
3,64,127,0
3,72,127,0
3,72,0,120
3,64,0,0
3,66,127,0
3,71,127,0
3,71,0,120
3,66,0,0
3,64,127,0
3,69,127,0
3,69,0,60
3,64,0,0
3,66,127,0
3,71,127,0
3,71,0,120
3,66,0,0
3,64,127,720
3,69,127,0
3,69,0,60
3,64,0,0
3,73,127,0
3,69,127,0
3,69,0,120
3,73,0,0
3,67,127,0
3,71,127,0
3,71,0,480
3,67,0,0
3,64,127,0
3,69,127,0
3,69,0,300
3,64,0,0
3,64,127,0
3,69,127,0
3,69,0,60
3,64,0,0
3,73,127,0
3,69,127,0
3,69,0,120
3,73,0,0
3,67,127,0
3,71,127,0
3,71,0,480
3,67,0,0
3,64,127,0
3,69,127,0
3,69,0,300
3,64,0,0
3,64,127,0
3,69,127,0
3,69,0,60
3,64,0,0
3,73,127,0
3,69,127,0
3,69,0,120
3,73,0,0
3,67,127,0
3,71,127,0
3,71,0,480
3,67,0,0
3,64,127,0
3,69,127,0
3,69,0,300
3,64,0,0
3,64,127,0
3,69,127,0
3,69,0,60
3,64,0,0
3,73,127,0
3,69,127,0
3,69,0,120
3,73,0,0
3,67,127,0
3,71,127,0
3,71,0,480
3,67,0,0
3,64,127,0
3,69,127,0
3,69,0,300
3,64,0,0
3,64,127,0
3,69,127,0
3,69,0,60
3,64,0,0
3,73,127,0
3,69,127,0
3,69,0,120
3,73,0,0
3,67,127,0
3,71,127,0
3,71,0,480
3,67,0,0
3,64,127,0
3,69,127,0
3,69,0,300
3,64,0,0
3,64,127,0
3,69,127,0
3,69,0,60
3,64,0,0
3,73,127,0
3,69,127,0
3,69,0,120
3,73,0,0
3,67,127,0
3,71,127,0
3,71,0,480
3,67,0,0
3,64,127,0
3,69,127,0
3,69,0,300
3,64,0,0
3,64,127,0
3,69,127,0
3,69,0,60
3,64,0,0
3,73,127,0
3,69,127,0
3,69,0,120
3,73,0,0
3,67,127,0
3,71,127,0
3,71,0,480
3,67,0,0
3,64,127,0
3,69,127,0
3,69,0,300
3,64,0,0
3,64,127,0
3,69,127,0
3,69,0,60
3,64,0,0
3,69,127,0
3,73,127,0
3,73,0,180
3,69,0,0
3,65,127,0
3,69,127,0
3,69,0,120
3,65,0,0
4,72,116,0
4,69,116,0
4,64,116,0
4,60,116,0
4,60,0,120
4,72,0,0
4,69,0,0
4,64,0,0
4,60,116,0
4,64,116,0
4,69,116,0
4,72,116,0
4,72,0,120
4,60,0,0
4,64,0,0
4,69,0,0
4,72,116,0
4,69,116,0
4,64,116,0
4,60,116,0
4,60,0,120
4,72,0,0
4,69,0,0
4,64,0,0
4,72,116,0
4,62,116,0
4,70,116,0
4,67,116,0
4,67,0,120
4,72,0,0
4,62,0,0
4,70,0,0
4,62,116,0
4,67,116,0
4,70,116,0
4,72,116,0
4,72,0,120
4,62,0,0
4,67,0,0
4,70,0,0
4,60,116,0
4,72,116,0
4,70,116,0
4,70,0,39
4,72,0,0
4,60,0,0
4,62,116,1
4,62,0,39
4,65,116,1
4,65,0,39
4,72,116,1
4,69,116,0
4,64,116,0
4,60,116,0
4,60,0,119
4,72,0,0
4,69,0,0
4,64,0,0
4,72,116,1
4,69,116,0
4,64,116,0
4,60,116,0
4,60,0,119
4,72,0,0
4,69,0,0
4,64,0,0
4,60,116,1
4,64,116,0
4,69,116,0
4,72,116,0
