track,note,velocity,time
1,28,98,4208
1,40,116,188
1,28,87,168
1,40,108,184
1,28,97,208
1,40,101,200
1,28,93,188
1,40,101,188
1,28,94,200
1,40,106,200
1,28,89,200
1,40,101,196
1,28,93,216
1,40,110,188
1,28,93,200
1,40,110,192
1,28,100,208
1,40,101,196
1,28,96,204
1,40,100,188
1,28,92,172
1,40,90,176
1,28,96,192
1,40,100,188
1,28,93,200
1,40,100,192
1,28,91,180
1,40,91,172
1,28,90,172
1,40,91,200
1,28,94,172
1,47,91,452
1,52,110,4
1,47,96,132
1,52,108,0
1,49,117,120
1,52,97,0
1,49,117,144
1,52,84,4
1,52,87,136
1,50,96,4
1,52,99,160
1,50,111,0
1,49,97,196
1,52,110,132
1,47,107,0
1,40,100,132
1,45,108,60
1,52,113,0
1,33,100,132
1,52,111,188
1,45,100,0
1,54,109,112
1,45,80,0
1,54,98,160
1,45,107,0
1,47,96,212
1,52,108,0
1,49,94,132
1,52,107,0
1,52,107,152
1,47,96,0
1,47,95,60
1,52,110,0
1,40,113,132
1,47,97,0
1,52,110,0
1,40,107,128
1,52,102,204
1,49,117,0
1,47,95,160
1,52,107,0
1,49,111,144
1,52,91,0
1,47,101,144
1,52,96,4
1,52,97,156
1,49,123,0
1,47,96,164
1,52,107,0
1,47,104,132
1,52,113,0
1,40,102,128
1,47,97,0
1,52,111,0
1,40,106,128
1,49,120,192
1,52,95,0
1,47,97,140
1,52,111,4
1,49,113,164
1,52,101,0
1,47,73,160
1,54,117,0
1,35,76,4
1,54,120,164
1,47,89,0
1,56,107,108
1,47,76,0
1,56,107,148
1,47,87,0
1,57,108,116
1,47,84,0
1,57,103,140
1,47,103,4
1,56,98,176
1,47,81,0
1,47,92,52
1,54,127,0
1,35,96,124
1,52,106,32
1,47,96,0
1,40,110,128
1,52,96,192
1,47,102,0
1,52,101,140
1,49,113,0
1,52,97,132
1,49,117,0
1,52,94,132
1,47,101,0
1,52,99,144
1,47,103,0
1,49,115,152
1,52,96,4
1,52,96,136
1,47,107,0
1,40,96,128
1,45,108,56
1,52,107,4
1,35,78,128
1,52,103,244
1,45,99,0
1,45,51,132
1,54,107,4
1,54,107,144
1,45,94,0
1,47,99,132
1,52,94,0
1,52,103,164
1,47,96,0
1,52,100,128
1,49,100,0
1,52,101,108
1,47,106,0
1,40,100,136
1,47,100,0
1,52,108,0
1,40,97,128
1,52,104,168
1,47,100,4
1,49,115,128
1,52,94,0
1,49,117,156
1,52,89,0
1,52,89,156
1,47,96,0
1,52,96,132
1,47,101,0
1,49,117,124
1,52,102,0
1,49,98,156
1,52,90,0
1,47,72,148
1,54,117,0
1,47,78,160
1,54,117,4
1,47,76,88
1,56,100,4
1,47,82,132
1,54,117,0
1,52,94,96
1,47,96,4
1,47,90,128
1,52,104,0
1,52,89,116
1,49,115,0
1,49,117,160
1,52,85,4
1,52,100,116
1,47,91,0
1,47,89,144
1,52,101,0
1,49,115,116
1,52,90,0
1,52,100,124
1,47,91,0
1,52,100,124
1,45,96,0
1,45,111,140
1,52,124,4
1,54,123,96
1,45,96,0
1,45,84,100
1,54,123,0
1,55,106,80
1,45,96,0
1,55,96,92
1,45,107,0
1,54,113,148
1,45,77,0
1,52,116,156
1,55,103,0
1,47,94,132
1,41,92,40
1,55,118,132
1,52,118,0
1,52,89,104
1,49,115,4
1,52,110,140
1,50,104,0
1,50,111,72
1,52,94,0
1,49,118,132
1,52,103,0
1,49,113,104
1,52,108,0
1,50,105,108
1,52,89,0
1,47,101,96
1,52,108,0
1,40,107,136
1,49,100,28
1,54,101,0
1,42,113,128
1,49,101,164
1,54,109,0
1,51,115,136
1,54,95,0
1,54,101,120
1,51,109,0
1,54,98,116
1,49,98,0
1,54,95,124
1,49,98,0
1,51,113,152
1,54,95,4
1,51,113,164
1,54,103,0
1,54,117,140
1,47,89,4
1,47,71,124
1,56,111,0
1,57,118,112
1,47,81,0
1,47,77,132
1,56,117,0
1,47,96,116
1,54,127,0
1,47,97,2000
1,52,108,0
1,52,101,128
1,47,96,0
1,49,117,108
1,52,99,0
1,49,115,144
1,52,100,0
1,52,99,104
1,47,97,0
1,52,101,104
1,47,102,0
1,49,115,104
1,52,96,8
1,52,102,120
1,47,104,0
1,45,102,100
1,52,102,0
1,45,106,96
1,52,104,0
1,45,70,88
1,54,101,0
1,54,103,180
1,45,97,0
1,52,89,104
1,47,91,0
1,52,102,120
1,47,97,0
1,49,115,92
1,52,86,0
1,52,99,152
1,49,111,4
1,52,99,112
1,47,91,0
1,47,93,116
1,52,100,0
1,49,113,96
1,52,100,0
1,47,96,132
1,52,100,0
1,47,89,112
1,54,109,0
1,54,107,124
1,47,96,0
1,56,107,100
1,47,71,4
1,54,115,132
1,47,90,4
1,47,84,104
1,52,107,0
1,47,89,112
1,52,103,0
1,49,98,108
1,52,89,8
1,52,101,144
1,49,117,0
1,47,89,96
1,52,102,0
1,47,91,116
1,52,102,0
1,49,113,96
1,52,95,0
1,47,92,128
1,52,101,4
1,47,93,120
1,52,99,4
1,47,89,84
1,52,104,0
1,49,115,104
1,52,97,0
1,49,117,132
1,52,93,0
1,52,101,100
1,47,93,0
1,52,97,104
1,47,96,0
1,49,113,100
1,52,96,0
1,47,92,120
1,52,104,0
1,52,100,112
1,45,95,0
1,45,97,88
1,52,103,0
1,45,80,76
1,54,107,0
1,54,103,124
1,45,96,0
1,52,99,116
1,47,101,0
1,52,96,116
1,47,94,0
1,49,109,108
1,52,90,0
1,49,111,120
1,52,94,0
1,52,96,92
1,47,93,0
1,52,101,112
1,47,96,0
1,49,107,100
1,52,93,0
1,52,96,128
1,47,95,0
1,47,80,92
1,54,100,4
1,54,109,144
1,47,91,0
1,56,107,76
1,47,76,0
1,54,101,116
1,47,88,4
1,47,96,120
1,52,80,8
1,52,100,92
1,47,96,0
1,52,94,132
1,49,109,4
1,52,104,148
1,49,109,0
1,47,88,116
1,52,101,0
1,47,96,120
1,52,103,0
1,49,111,116
1,52,96,0
1,52,100,128
1,47,103,0
1,47,91,160
1,52,110,4
1,47,96,132
1,52,108,0
1,49,117,120
1,52,97,0
1,49,117,144
1,52,84,4
1,52,87,136
1,50,96,4
1,52,99,160
1,50,111,0
1,49,97,196
1,52,110,132
1,47,107,0
1,40,100,132
1,45,108,60
1,52,113,0
1,33,100,132
1,52,111,188
1,45,100,0
1,54,109,112
1,45,80,0
1,54,98,160
1,45,107,0
1,47,96,212
1,52,108,0
1,49,94,132
1,52,107,0
1,52,107,152
1,47,96,0
1,47,95,60
1,52,110,0
1,40,113,132
1,47,97,0
1,52,110,0
1,40,107,128
1,52,102,204
1,49,117,0
1,47,95,160
1,52,107,0
1,49,111,144
1,52,91,0
1,47,101,144
1,52,96,4
1,52,97,156
1,49,123,0
1,47,96,164
1,52,107,0
1,47,104,132
1,52,113,0
1,40,102,128
1,47,97,0
1,52,111,0
1,40,106,128
1,49,120,192
1,52,95,0
1,47,97,140
1,52,111,4
1,49,113,164
1,52,101,0
1,47,73,160
1,54,117,0
1,35,76,4
1,54,120,164
1,47,89,0
1,56,107,108
1,47,76,0
1,56,107,148
1,47,87,0
1,57,108,116
1,47,84,0
1,57,103,140
1,47,103,4
1,56,98,176
1,47,81,0
1,47,92,52
1,54,127,0
1,35,96,124
1,52,106,32
1,47,96,0
1,40,110,128
1,52,96,192
1,47,102,0
1,52,101,140
1,49,113,0
1,52,97,132
1,49,117,0
1,52,94,132
1,47,101,0
1,52,99,144
1,47,103,0
1,49,115,152
1,52,96,4
1,52,96,136
1,47,107,0
1,40,96,128
1,45,108,56
1,52,107,4
1,35,78,128
1,52,103,244
1,45,99,0
1,45,51,132
1,54,107,4
1,54,107,144
1,45,94,0
1,47,99,132
1,52,94,0
1,52,103,164
1,47,96,0
1,52,100,128
1,49,100,0
1,52,101,108
1,47,106,0
1,40,100,136
1,47,100,0
1,52,108,0
1,40,97,128
1,52,104,168
1,47,100,4
1,49,115,128
1,52,94,0
1,49,117,156
1,52,89,0
1,52,89,156
1,47,96,0
1,52,96,132
1,47,101,0
1,49,117,124
1,52,102,0
1,49,98,156
1,52,90,0
1,47,72,148
1,54,117,0
1,47,78,160
1,54,117,4
1,47,76,88
1,56,100,4
1,47,82,132
1,54,117,0
1,52,94,96
1,47,96,4
1,47,90,128
1,52,104,0
1,52,89,116
1,49,115,0
1,49,117,160
1,52,85,4
1,52,100,116
1,47,91,0
1,47,89,144
1,52,101,0
1,49,115,116
1,52,90,0
1,52,100,124
1,47,91,0
1,52,100,124
1,45,96,0
1,45,111,140
1,52,124,4
1,54,123,96
1,45,96,0
1,45,84,100
1,54,123,0
1,55,106,80
1,45,96,0
1,55,96,92
1,45,107,0
1,54,113,148
1,45,77,0
1,52,116,156
1,55,103,0
1,47,94,132
1,41,92,40
1,55,118,132
1,52,118,0
1,52,89,104
1,49,115,4
1,52,110,140
1,50,104,0
1,50,111,72
1,52,94,0
1,49,118,132
1,52,103,0
1,49,113,104
1,52,108,0
1,50,105,108
1,52,89,0
1,47,101,96
1,52,108,0
1,40,107,136
1,49,100,28
1,54,101,0
1,42,113,128
1,49,101,164
1,54,109,0
1,51,115,136
1,54,95,0
1,54,101,120
1,51,109,0
1,54,98,116
1,49,98,0
1,54,95,124
1,49,98,0
1,51,113,152
1,54,95,4
1,51,113,164
1,54,103,0
1,54,117,140
1,47,89,4
1,47,71,124
1,56,111,0
1,57,118,112
1,47,81,0
1,47,77,132
1,56,117,0
1,47,96,116
1,54,127,0
1,47,97,2000
1,52,108,0
1,52,101,128
1,47,96,0
1,49,117,108
1,52,99,0
1,49,115,144
1,52,100,0
1,52,99,104
1,47,97,0
1,52,101,104
1,47,102,0
1,49,115,104
1,52,96,8
1,52,102,120
1,47,104,0
1,45,102,100
1,52,102,0
1,45,106,96
1,52,104,0
1,45,70,88
1,54,101,0
1,54,103,180
1,45,97,0
1,52,89,104
1,47,91,0
1,52,102,120
1,47,97,0
1,49,115,92
1,52,86,0
1,52,99,152
1,49,111,4
1,52,99,112
1,47,91,0
1,47,93,116
1,52,100,0
1,49,113,96
1,52,100,0
1,47,96,132
1,52,100,0
1,47,89,112
1,54,109,0
1,54,107,124
1,47,96,0
1,56,107,100
1,47,71,4
1,54,115,132
1,47,90,4
1,47,84,104
1,52,107,0
1,47,89,112
1,52,103,0
1,49,98,108
1,52,89,8
1,52,101,144
1,49,117,0
1,47,89,96
1,52,102,0
1,47,91,116
1,52,102,0
1,49,113,96
1,52,95,0
1,47,92,128
1,52,101,4
1,47,93,120
1,52,99,4
1,47,89,84
1,52,104,0
1,47,115,104
1,50,97,0
1,47,117,132
1,50,93,0
1,52,101,100
1,47,93,0
1,52,97,104
1,47,96,0
1,49,113,100
1,52,96,0
1,47,92,120
1,52,104,0
1,52,100,112
1,45,95,0
1,45,97,88
1,52,103,0
1,45,80,76
1,54,107,0
1,54,103,124
1,45,96,0
1,52,99,116
1,47,101,0
1,52,96,116
1,47,94,0
1,49,109,108
1,52,90,0
1,49,111,120
1,52,94,0
1,52,96,92
1,47,93,0
1,52,101,112
1,47,96,0
1,49,107,100
1,52,93,0
1,52,96,128
1,47,95,0
1,47,80,92
1,54,100,4
1,54,109,144
1,47,91,0
1,56,107,76
1,47,76,0
1,54,101,116
1,47,88,4
1,52,113,112
1,56,123,0
1,67,124,392
1,62,127,0
1,64,116,180
1,59,122,0
1,64,80,156
1,59,76,4
1,59,116,184
1,64,116,0
1,64,97,156
1,61,103,0
1,61,127,140
1,64,122,0
1,52,100,184
1,45,96,0
1,45,111,140
1,52,124,4
1,54,123,96
1,45,96,0
1,45,84,100
1,54,123,0
1,55,106,80
1,45,96,0
1,55,96,92
1,45,107,0
1,54,113,148
1,45,77,0
1,52,116,156
1,55,103,0
1,47,94,132
1,41,92,40
1,55,118,132
1,52,118,0
1,52,89,104
1,49,115,4
1,52,110,140
1,50,104,0
1,50,111,72
1,52,94,0
1,49,118,132
1,52,103,0
1,49,113,104
1,52,108,0
1,50,105,108
1,52,89,0
1,47,101,96
1,52,108,0
1,40,107,136
1,49,100,28
1,54,101,0
1,42,113,128
1,49,101,164
1,54,109,0
1,51,115,136
1,54,95,0
1,54,101,120
1,51,109,0
1,54,98,116
1,49,98,0
1,54,95,124
1,49,98,0
1,51,113,152
1,54,95,4
1,51,113,164
1,54,103,0
1,54,117,140
1,47,89,4
1,47,71,124
1,56,111,0
1,57,118,112
1,47,81,0
1,47,77,132
1,56,117,0
1,47,96,116
1,54,127,0
1,76,89,1996
1,80,84,0
1,88,96,4
1,88,106,168
1,80,105,0
1,76,104,0
1,86,87,136
1,76,90,4
1,80,76,0
1,86,102,160
1,80,107,0
1,76,107,0
1,83,88,152
1,76,86,0
1,80,83,0
1,76,97,176
1,80,113,0
1,83,104,0
1,52,110,4
1,64,120,240
1,69,106,0
1,52,114,4
1,64,116,132
1,69,103,0
1,74,116,0
1,74,116,156
1,64,117,0
1,69,110,0
1,69,101,108
1,64,108,0
1,73,111,0
1,73,111,160
1,64,111,0
1,69,108,0
1,52,95,24
1,71,103,16
1,64,106,0
1,68,113,0
1,71,97,140
1,64,86,0
1,68,79,0
1,71,111,148
1,64,101,4
1,68,107,0
1,71,81,120
1,68,70,0
1,64,70,0
1,64,103,148
1,71,118,0
1,68,111,4
1,71,93,116
1,64,84,0
1,68,77,4
1,71,96,156
1,64,97,0
1,68,89,0
1,66,81,168
1,59,75,4
1,59,88,168
1,66,117,0
1,59,78,120
1,68,90,0
1,59,96,108
1,68,107,0
1,55,102,92
1,56,109,256
1,64,110,80
1,62,120,0
1,55,103,100
1,52,101,4
1,59,120,4
1,64,86,56
1,57,89,4
1,64,107,136
1,57,110,0
1,57,81,120
1,66,103,0
1,66,105,120
1,57,94,0
1,64,86,144
1,59,83,0
1,64,108,136
1,59,103,0
1,64,92,120
1,61,117,0
1,61,115,136
1,64,108,0
1,59,80,120
1,66,107,8
1,59,88,116
1,66,120,0
1,59,84,100
1,68,107,0
1,68,105,116
1,59,86,0
1,28,98,148
1,64,122,188
1,40,116,0
1,28,87,136
1,62,111,8
1,61,113,160
1,40,108,0
1,62,114,144
1,28,97,0
1,61,127,160
1,40,101,0
1,59,107,164
1,28,93,0
1,61,113,56
1,40,101,56
1,55,113,8
1,28,94,36
1,64,120,200
1,40,106,0
1,62,97,104
1,28,89,0
1,61,111,136
1,40,101,4
1,62,102,168
1,28,93,4
1,61,120,172
1,40,110,0
1,28,93,168
1,59,110,4
1,61,107,60
1,40,110,48
1,55,104,12
1,28,100,28
1,40,101,196
1,68,120,12
1,28,96,148
1,66,123,4
1,64,107,116
1,40,100,0
1,66,117,124
1,28,92,4
1,64,108,120
1,40,90,4
1,62,101,180
1,28,96,0
1,64,101,60
1,61,115,52
1,40,100,0
1,28,93,172
1,64,106,8
1,68,126,0
1,71,106,0
1,28,100,188
1,71,107,4
1,64,106,0
1,68,126,0
2,28,113,4188
2,28,108,184
2,28,91,140
2,28,105,140
2,28,86,156
2,28,113,144
2,28,83,144
2,28,80,40
2,28,102,56
2,28,103,100
2,28,101,156
2,28,91,132
2,28,102,156
2,28,99,152
2,28,102,160
2,28,84,124
2,28,96,76
2,28,91,56
2,28,103,112
2,28,95,148
2,28,101,188
2,28,103,136
2,28,102,168
2,28,105,128
2,28,90,156
2,28,86,68
2,28,99,48
2,28,99,88
2,28,109,164
2,28,108,192
2,28,106,152
2,28,103,168
2,28,94,148
2,28,111,192
2,35,95,120
2,40,84,0
2,40,99,136
2,40,92,88
2,40,90,104
2,40,77,112
2,40,92,148
2,40,90,148
2,40,102,160
2,33,86,4
2,33,90,108
2,33,85,84
2,33,91,124
2,40,90,4
2,40,98,144
2,40,83,120
2,40,91,136
2,40,84,96
2,40,94,120
2,40,84,112
2,40,84,164
2,40,84,96
2,40,90,116
2,40,88,144
2,40,91,84
2,40,91,112
2,40,96,136
2,40,88,132
2,40,97,192
2,35,87,48
2,35,97,104
2,35,84,104
