track,note,velocity,time
1,47,111,10748
1,40,111,0
1,64,109,68
1,59,102,0
1,56,102,0
1,52,91,0
1,47,99,0
1,40,99,0
1,47,112,4
1,40,112,0
1,56,108,68
1,59,91,0
1,47,101,0
1,40,101,0
1,64,109,4
1,47,112,0
1,40,112,0
1,59,101,0
1,47,98,4
1,40,98,0
1,47,112,4
1,40,112,0
1,47,98,68
1,40,98,0
1,47,112,4
1,40,112,0
1,64,109,0
1,56,102,0
1,59,109,0
1,52,91,0
1,47,96,4
1,40,96,0
1,47,112,4
1,40,112,0
1,47,101,68
1,40,101,0
1,64,109,0
1,59,102,0
1,52,94,0
1,56,97,0
1,47,112,4
1,40,112,0
1,47,98,68
1,40,98,0
1,47,112,4
1,40,112,0
1,47,96,68
1,40,96,0
1,47,112,4
1,40,112,0
1,47,97,4
1,40,97,0
1,64,104,0
1,59,109,0
1,56,102,0
1,47,112,4
1,40,112,0
1,47,97,68
1,40,97,0
1,56,109,0
1,59,95,0
1,47,112,4
1,40,112,0
1,64,104,0
1,59,102,0
1,52,89,0
1,47,98,4
1,40,98,0
1,47,112,4
1,40,112,0
1,47,101,68
1,40,101,0
1,47,112,4
1,40,112,0
1,64,109,0
1,59,109,0
1,52,99,0
1,56,98,0
1,47,98,4
1,40,98,0
1,47,112,4
1,40,112,0
1,47,99,68
1,40,99,0
1,64,104,0
1,52,94,0
1,56,104,0
1,59,109,0
1,47,112,4
1,40,112,0
1,47,96,68
1,40,96,0
1,50,112,4
1,43,112,0
1,52,96,0
1,45,96,0
1,47,111,17668
1,40,111,0
1,64,109,68
1,59,102,0
1,56,102,0
1,52,91,0
1,47,99,0
1,40,99,0
1,47,112,4
1,40,112,0
1,56,108,68
1,59,91,0
1,47,101,0
1,40,101,0
1,64,109,4
1,47,112,0
1,40,112,0
1,59,101,0
1,47,98,4
1,40,98,0
1,47,112,4
1,40,112,0
1,47,98,68
1,40,98,0
1,47,112,4
1,40,112,0
1,64,109,0
1,56,102,0
1,59,109,0
1,52,91,0
1,47,96,4
1,40,96,0
1,47,112,4
1,40,112,0
1,47,101,68
1,40,101,0
1,64,109,0
1,59,102,0
1,52,94,0
1,56,97,0
1,47,112,4
1,40,112,0
1,47,98,68
1,40,98,0
1,47,112,4
1,40,112,0
1,47,96,68
1,40,96,0
1,47,112,4
1,40,112,0
1,47,97,4
1,40,97,0
1,64,104,0
1,59,109,0
1,56,102,0
1,47,112,4
1,40,112,0
1,47,97,68
1,40,97,0
1,56,109,0
1,59,95,0
1,47,112,4
1,40,112,0
1,64,104,0
1,59,102,0
1,52,89,0
1,47,98,4
1,40,98,0
1,47,112,4
1,40,112,0
1,47,101,68
1,40,101,0
1,47,112,4
1,40,112,0
1,64,109,0
1,59,109,0
1,52,99,0
1,56,98,0
1,47,98,4
1,40,98,0
1,47,112,4
1,40,112,0
1,47,99,68
1,40,99,0
1,64,104,0
1,52,94,0
1,56,104,0
1,59,109,0
1,47,112,4
1,40,112,0
1,47,96,68
1,40,96,0
1,50,112,4
1,43,112,0
1,52,96,0
1,45,96,0
1,47,111,4
1,40,111,0
1,47,99,68
1,40,99,0
1,64,109,0
1,59,106,0
1,56,93,0
1,47,112,4
1,40,112,0
1,56,91,68
1,47,101,0
1,40,101,0
1,47,112,4
1,40,112,0
1,56,93,0
1,59,99,0
1,64,109,0
1,47,98,4
1,40,98,0
1,47,112,4
1,40,112,0
1,47,98,68
1,40,98,0
1,47,112,4
1,40,112,0
1,64,109,0
1,59,107,0
1,56,98,0
1,47,96,68
1,40,96,0
1,52,93,4
1,47,112,0
1,40,112,0
1,47,101,4
1,40,101,0
1,56,104,0
1,59,108,0
1,64,103,0
1,47,112,4
1,40,112,0
1,47,98,68
1,40,98,0
1,47,112,4
1,40,112,0
1,47,96,68
1,40,96,0
1,47,112,4
1,40,112,0
1,47,97,4
1,40,97,0
1,64,109,0
1,56,98,0
1,59,109,0
1,52,96,0
1,47,112,4
1,40,112,0
1,47,97,68
1,40,97,0
1,52,97,0
1,56,92,0
1,47,112,4
1,40,112,0
1,64,109,0
1,59,98,0
1,56,93,0
1,47,98,68
1,40,98,0
1,47,112,4
1,40,112,0
1,47,101,4
1,40,101,0
1,47,112,4
1,40,112,0
1,64,109,0
1,59,109,0
1,56,96,0
1,47,98,4
1,40,98,0
1,47,112,4
1,40,112,0
1,47,99,68
1,40,99,0
1,64,109,0
1,59,109,0
1,56,94,0
1,47,112,4
1,40,112,0
1,47,96,68
1,40,96,0
1,47,112,4
1,40,112,0
1,47,96,4
1,40,96,0
1,52,111,4
1,45,111,0
1,52,99,68
1,45,99,0
1,69,103,0
1,64,107,0
1,61,96,0
1,52,112,4
1,45,112,0
1,52,101,68
1,45,101,0
1,52,112,4
1,45,112,0
1,69,96,0
1,61,101,0
1,64,108,0
1,52,98,4
1,45,98,0
1,52,112,4
1,45,112,0
1,52,98,68
1,45,98,0
1,52,112,4
1,45,112,0
1,69,109,0
1,64,109,0
1,61,106,0
1,52,96,4
1,45,96,0
1,52,112,4
1,45,112,0
1,52,101,68
1,45,101,0
1,64,100,0
1,69,109,0
1,61,99,0
1,52,112,4
1,45,112,0
1,52,98,68
1,45,98,0
1,52,112,4
1,45,112,0
1,52,96,68
1,45,96,0
1,47,112,4
1,40,112,0
1,47,97,68
1,40,97,0
1,64,109,0
1,59,109,0
1,56,95,0
1,47,112,4
1,40,112,0
1,47,97,68
1,40,97,0
1,47,112,4
1,40,112,0
1,64,109,0
1,59,109,0
1,56,101,0
1,47,98,4
1,40,98,0
1,47,112,4
1,40,112,0
1,47,101,68
1,40,101,0
1,47,112,4
1,40,112,0
1,64,109,0
1,59,102,0
1,56,102,0
1,47,98,4
1,40,98,0
1,47,112,4
1,40,112,0
1,47,99,68
1,40,99,0
1,64,109,0
1,59,109,0
1,56,97,0
1,47,112,4
1,40,112,0
1,47,96,68
1,40,96,0
1,47,112,4
1,40,112,0
1,47,96,4
1,40,96,0
1,54,112,4
1,47,112,0
1,54,101,68
1,47,101,0
1,63,109,0
1,59,97,0
1,54,112,4
1,47,112,0
1,54,99,68
1,47,100,0
1,47,111,4
1,59,107,0
1,54,94,0
1,47,98,4
1,63,109,0
1,54,112,4
1,47,112,0
1,54,98,68
1,47,98,0
1,54,112,4
1,47,112,0
1,71,109,0
1,66,108,0
1,63,103,0
1,54,98,4
1,47,98,0
1,54,113,4
1,47,113,0
1,54,100,68
1,47,100,0
1,71,98,0
1,66,109,0
1,47,112,4
1,66,106,0
1,71,105,0
1,66,100,4
1,71,105,0
1,54,98,0
1,47,98,0
1,71,109,4
1,66,98,0
1,52,100,0
1,68,109,0
1,64,109,0
1,71,102,0
1,54,112,1540
1,47,112,0
1,52,104,4
1,45,104,0
1,50,112,4
1,43,112,0
1,47,112,4
1,40,112,0
1,47,97,68
1,40,97,0
1,64,109,0
1,59,109,0
1,56,98,0
1,52,96,0
1,47,112,4
1,40,112,0
1,52,98,68
1,47,97,0
1,40,97,0
1,47,112,4
1,40,112,0
1,64,109,0
1,59,109,0
1,56,99,0
1,47,98,4
1,40,98,0
1,47,112,4
1,40,112,0
1,47,101,68
1,40,101,0
1,64,109,0
1,56,103,0
1,59,109,0
1,52,94,0
1,47,112,4
1,40,112,0
1,47,98,68
1,40,98,0
1,47,112,4
1,40,112,0
1,47,99,68
1,40,99,0
1,49,112,4
1,42,112,0
1,49,96,68
1,42,96,0
1,51,112,4
1,44,112,0
1,51,96,4
1,44,96,0
1,45,109,4
1,52,98,0
1,52,104,4
1,45,97,0
1,49,112,4
1,45,109,0
1,52,96,4
1,45,96,0
1,52,112,4
1,45,106,0
1,52,97,0
1,45,97,0
1,57,93,0
1,61,112,4
1,45,109,0
1,57,100,4
1,52,98,0
1,45,109,4
1,52,98,0
1,52,104,4
1,45,97,0
1,49,112,4
1,45,109,0
1,52,96,4
1,45,96,0
1,52,112,4
1,45,106,0
1,52,97,0
1,45,97,0
1,57,93,0
1,61,112,4
1,45,109,0
1,57,100,4
1,52,98,0
1,40,109,4
1,52,93,0
1,47,113,0
1,47,99,4
1,40,99,0
1,44,112,4
1,40,109,0
1,40,97,0
1,47,102,0
1,54,112,4
1,47,112,0
1,40,109,0
1,47,97,4
1,40,97,0
1,40,104,4
1,56,112,0
1,49,109,0
1,40,109,4
1,47,100,0
1,40,109,4
1,52,93,0
1,47,113,0
1,47,99,4
1,40,99,0
1,44,112,4
1,40,109,0
1,40,97,0
1,47,102,0
1,54,112,4
1,47,112,0
1,40,109,0
1,47,97,4
1,40,97,0
1,40,104,4
1,56,112,0
1,49,109,0
1,40,109,4
1,47,100,0
1,45,109,4
1,52,98,0
1,52,104,4
1,45,97,0
1,49,112,4
1,45,109,0
1,52,96,4
1,45,96,0
1,52,112,4
1,45,106,0
1,52,97,0
1,45,97,0
1,57,93,0
1,61,112,4
1,45,109,0
1,57,100,4
1,52,98,0
1,52,112,4
1,45,112,0
1,69,109,4
1,64,109,0
1,52,96,0
1,45,96,0
1,64,100,4
1,69,108,0
1,56,112,0
1,49,112,0
1,64,100,4
1,69,109,0
1,52,97,0
1,45,97,0
1,64,109,4
1,69,106,0
1,59,113,0
1,52,113,0
1,64,109,4
1,69,101,0
1,52,97,0
1,45,97,0
1,64,109,4
1,69,107,0
1,61,112,0
1,54,112,0
1,64,99,4
1,69,99,0
1,59,97,0
1,52,97,0
1,54,112,4
1,47,112,0
1,54,97,4
1,47,97,0
1,66,96,0
1,71,101,0
1,66,108,4
1,71,98,0
1,54,97,4
1,47,97,0
1,66,102,0
1,71,98,0
1,54,112,4
1,66,109,0
1,71,99,0
1,54,97,4
1,47,97,0
1,66,109,0
1,71,107,0
1,63,112,4
1,66,109,0
1,71,106,0
1,54,97,4
1,71,99,0
1,66,109,0
1,59,112,4
1,63,109,0
1,66,95,0
1,71,96,0
1,63,109,4
1,66,104,0
1,71,104,0
1,59,112,4
1,66,109,0
1,71,98,0
1,63,109,4
1,66,98,0
1,71,105,0
1,59,112,4
1,63,109,0
1,66,96,0
1,71,105,0
1,66,105,4
1,71,109,0
1,59,112,4
1,63,109,0
1,66,95,0
1,71,106,0
1,63,109,4
1,66,99,0
1,71,105,0
1,52,103,4
1,47,109,0
1,40,109,0
1,47,112,4
1,40,112,0
1,40,109,4
1,47,109,0
1,52,109,0
1,56,109,0
1,59,109,0
1,64,109,190
1,59,24,4
1,52,24,0
1,59,19,0
1,52,19,0
1,59,34,0
1,52,34,0
1,59,24,0
1,52,24,0
1,59,54,0
1,52,54,0
1,59,44,0
1,52,44,0
1,59,64,0
1,52,64,0
1,59,59,0
1,52,59,0
1,59,112,0
1,52,112,0
1,57,96,192
1,50,96,0
1,56,112,4
1,49,112,0
1,54,97,4
1,47,97,0
1,47,111,12292
1,40,111,0
1,47,99,68
1,40,99,0
1,64,109,0
1,59,106,0
1,56,93,0
1,47,112,4
1,40,112,0
1,56,91,68
1,47,101,0
1,40,101,0
1,47,112,4
1,40,112,0
1,56,93,0
1,59,99,0
1,64,109,0
1,47,98,4
1,40,98,0
1,47,112,4
1,40,112,0
1,47,98,68
1,40,98,0
1,47,112,4
1,40,112,0
1,64,109,0
1,59,107,0
1,56,98,0
1,47,96,68
1,40,96,0
1,52,93,4
1,47,112,0
1,40,112,0
1,47,101,4
1,40,101,0
1,56,104,0
1,59,108,0
1,64,103,0
1,47,112,4
1,40,112,0
1,47,98,68
1,40,98,0
1,47,112,4
1,40,112,0
1,47,96,68
1,40,96,0
1,47,112,4
1,40,112,0
1,47,97,4
1,40,97,0
1,64,109,0
1,56,98,0
1,59,109,0
1,52,96,0
1,47,112,4
1,40,112,0
1,47,97,68
1,40,97,0
1,52,97,0
1,56,92,0
1,47,112,4
1,40,112,0
1,64,109,0
1,59,98,0
1,56,93,0
1,47,98,68
1,40,98,0
1,47,112,4
1,40,112,0
1,47,101,4
1,40,101,0
1,47,112,4
1,40,112,0
1,64,109,0
1,59,109,0
1,56,96,0
1,47,98,4
1,40,98,0
1,47,112,4
1,40,112,0
1,47,99,68
1,40,99,0
1,64,109,0
1,59,109,0
1,56,94,0
1,47,112,4
1,40,112,0
1,47,96,68
1,40,96,0
1,47,112,4
1,40,112,0
1,47,96,4
1,40,96,0
1,52,111,4
1,45,111,0
1,52,99,68
1,45,99,0
1,69,103,0
1,64,107,0
1,61,96,0
1,52,112,4
1,45,112,0
1,52,101,68
1,45,101,0
1,52,112,4
1,45,112,0
1,69,96,0
1,61,101,0
1,64,108,0
1,52,98,4
1,45,98,0
1,52,112,4
1,45,112,0
1,52,98,68
1,45,98,0
1,52,112,4
1,45,112,0
1,69,109,0
1,64,109,0
1,61,106,0
1,52,96,4
1,45,96,0
1,52,112,4
1,45,112,0
1,52,101,68
1,45,101,0
1,64,100,0
1,69,109,0
1,61,99,0
1,52,112,4
1,45,112,0
1,52,98,68
1,45,98,0
1,52,112,4
1,45,112,0
1,52,96,68
1,45,96,0
1,47,112,4
1,40,112,0
1,47,97,68
1,40,97,0
1,64,109,0
1,59,109,0
1,56,95,0
1,47,112,4
1,40,112,0
1,47,97,68
1,40,97,0
1,47,112,4
1,40,112,0
1,64,109,0
1,59,109,0
1,56,101,0
1,47,98,4
1,40,98,0
1,47,112,4
1,40,112,0
1,47,101,68
1,40,101,0
1,47,112,4
1,40,112,0
1,64,109,0
1,59,102,0
1,56,102,0
1,47,98,4
1,40,98,0
1,47,112,4
1,40,112,0
1,47,99,68
1,40,99,0
1,64,109,0
1,59,109,0
1,56,97,0
1,47,112,4
1,40,112,0
1,47,96,68
1,40,96,0
1,47,112,4
1,40,112,0
1,47,96,4
1,40,96,0
1,54,112,4
1,47,112,0
1,54,101,68
1,47,101,0
1,63,109,0
1,59,97,0
1,54,112,4
1,47,112,0
1,54,99,68
1,47,100,0
1,47,111,4
1,59,107,0
1,54,94,0
1,47,98,4
1,63,109,0
1,54,112,4
1,47,112,0
1,54,98,68
1,47,98,0
1,54,112,4
1,47,112,0
1,71,109,0
1,66,108,0
1,63,103,0
1,54,98,4
1,47,98,0
1,54,113,4
1,47,113,0
1,54,100,68
1,47,100,0
1,71,98,0
1,66,109,0
1,47,112,4
1,66,106,0
1,71,105,0
1,66,100,4
1,71,105,0
1,54,98,0
1,47,98,0
1,71,109,4
1,66,98,0
1,52,100,0
1,68,109,0
1,64,109,0
1,71,102,0
1,54,112,1540
1,47,112,0
1,52,104,4
1,45,104,0
1,50,112,4
1,43,112,0
1,47,112,4
1,40,112,0
1,47,97,68
1,40,97,0
1,64,109,0
1,59,109,0
1,56,98,0
1,52,96,0
1,47,112,4
1,40,112,0
1,52,98,68
1,47,97,0
1,40,97,0
1,47,112,4
1,40,112,0
1,64,109,0
1,59,109,0
1,56,99,0
1,47,98,4
1,40,98,0
1,47,112,4
1,40,112,0
1,47,101,68
1,40,101,0
1,64,109,0
1,56,103,0
1,59,109,0
1,52,94,0
1,47,112,4
1,40,112,0
1,47,98,68
1,40,98,0
1,47,112,4
1,40,112,0
1,47,99,68
1,40,99,0
1,49,112,4
1,42,112,0
1,49,96,68
1,42,96,0
1,51,112,4
1,44,112,0
1,51,96,4
1,44,96,0
1,45,109,4
1,52,98,0
1,52,104,4
1,45,97,0
1,49,112,4
1,45,109,0
1,52,96,4
1,45,96,0
1,52,112,4
1,45,106,0
1,52,97,0
1,45,97,0
1,57,93,0
1,61,112,4
1,45,109,0
1,57,100,4
1,52,98,0
1,45,109,4
1,52,98,0
1,52,104,4
1,45,97,0
1,49,112,4
1,45,109,0
1,52,96,4
1,45,96,0
1,52,112,4
1,45,106,0
1,52,97,0
1,45,97,0
1,57,93,0
1,61,112,4
1,45,109,0
1,57,100,4
1,52,98,0
1,40,109,4
1,52,93,0
1,47,113,0
1,47,99,4
1,40,99,0
1,44,112,4
1,40,109,0
1,40,97,0
1,47,102,0
1,54,112,4
1,47,112,0
1,40,109,0
1,47,97,4
1,40,97,0
1,40,104,4
1,56,112,0
1,49,109,0
