track,note,velocity,time
1,57,94,1136
1,45,86,0
1,52,88,0
1,57,94,0
1,45,86,0
1,52,88,0
1,52,92,432
1,45,88,0
1,57,104,0
1,52,92,0
1,45,88,0
1,57,104,0
1,49,113,116
1,42,85,0
1,49,113,0
1,42,85,0
1,54,107,4
1,54,107,0
1,49,113,392
1,42,85,0
1,54,104,0
1,49,113,0
1,42,85,0
1,54,104,0
1,50,94,92
1,55,110,0
1,43,88,0
1,50,94,0
1,55,110,0
1,43,88,0
1,55,110,304
1,43,87,0
1,50,97,0
1,55,110,0
1,43,87,0
1,50,97,0
1,42,85,168
1,50,87,0
1,62,106,0
1,42,85,0
1,50,87,0
1,62,106,0
1,61,101,192
1,61,101,0
1,59,100,128
1,59,100,0
1,43,88,96
1,57,100,0
1,55,100,0
1,50,87,0
1,43,88,0
1,57,100,0
1,55,100,0
1,50,87,0
1,45,91,8
1,52,94,0
1,57,90,0
1,45,91,0
1,52,94,0
1,57,90,0
1,52,85,480
1,57,81,0
1,45,90,0
1,52,85,0
1,57,81,0
1,45,90,0
1,45,80,108
1,45,80,0
1,54,87,4
1,57,88,0
1,54,87,0
1,57,88,0
1,57,80,468
1,52,88,0
1,45,84,0
1,57,80,0
1,52,88,0
1,45,84,0
1,42,75,84
1,42,75,0
1,49,86,8
1,57,82,0
1,49,86,0
1,57,82,0
1,49,84,480
1,49,84,0
1,57,81,4
1,42,72,0
1,57,81,0
1,42,72,0
1,54,82,160
1,49,86,0
1,42,87,0
1,54,82,0
1,49,86,0
1,42,87,0
1,42,88,484
1,49,89,0
1,42,88,0
1,49,89,0
1,54,88,4
1,54,88,0
1,43,85,84
1,57,90,0
1,43,85,0
1,57,90,0
1,50,87,8
1,50,87,0
1,50,91,476
1,50,91,0
1,57,86,4
1,57,86,0
1,43,81,4
1,43,81,0
1,50,94,128
1,57,86,0
1,42,77,0
1,50,94,0
1,57,86,0
1,42,77,0
1,42,79,476
1,50,92,0
1,57,85,0
1,42,79,0
1,50,92,0
1,57,85,0
1,54,71,580
1,54,71,0
1,52,77,56
1,47,87,0
1,40,92,0
1,52,77,0
1,47,87,0
1,40,92,0
1,40,85,476
1,40,85,0
1,52,81,8
1,47,85,0
1,52,81,0
1,47,85,0
1,40,80,120
1,47,91,0
1,40,80,0
1,47,91,0
1,52,87,4
1,52,87,0
1,40,87,148
1,40,87,0
1,42,84,196
1,42,84,0
1,45,95,20
1,45,95,0
1,47,97,24
1,47,97,0
1,49,108,184
1,49,108,0
1,45,81,8
1,57,80,0
1,52,81,0
1,45,81,0
1,57,80,0
1,52,81,0
1,52,76,488
1,57,81,0
1,45,76,0
1,52,76,0
1,57,81,0
1,45,76,0
1,54,77,124
1,57,86,0
1,45,78,0
1,54,77,0
1,57,86,0
1,45,78,0
1,45,76,448
1,52,85,0
1,57,80,0
1,45,76,0
1,52,85,0
1,57,80,0
1,64,68,800
1,64,68,0
1,61,65,44
1,61,65,0
1,59,73,28
1,59,73,0
1,57,69,0
1,57,69,0
1,57,73,4
1,42,71,0
1,49,79,0
1,57,73,0
1,42,71,0
1,49,79,0
1,49,82,476
1,49,82,0
1,57,83,4
1,42,70,0
1,57,83,0
1,42,70,0
1,57,81,120
1,49,85,0
1,42,72,0
1,57,81,0
1,49,85,0
1,42,72,0
1,42,67,484
1,49,85,0
1,57,85,0
1,42,67,0
1,49,85,0
1,57,85,0
1,50,81,104
1,57,76,0
1,43,78,0
1,50,81,0
1,57,76,0
1,43,78,0
1,50,80,468
1,43,75,0
1,50,80,0
1,43,75,0
1,57,78,8
1,57,78,0
1,42,65,92
1,50,87,0
1,57,80,0
1,42,65,0
1,50,87,0
1,57,80,0
1,50,83,464
1,57,83,0
1,42,67,0
1,50,83,0
1,57,83,0
1,42,67,0
1,40,78,96
1,47,79,0
1,52,87,0
1,40,78,0
1,47,79,0
1,52,87,0
1,47,80,480
1,40,77,0
1,52,84,0
1,47,80,0
1,40,77,0
1,52,84,0
1,52,102,156
1,47,98,0
1,40,97,0
1,52,102,0
1,47,98,0
1,40,97,0
1,43,87,23176
1,50,87,0
1,43,87,0
1,50,87,0
1,50,86,104
1,42,91,0
1,50,86,0
1,42,91,0
1,43,98,88
1,50,104,0
1,43,98,0
1,50,104,0
1,57,94,20
1,45,86,0
1,52,88,0
1,57,94,0
1,45,86,0
1,52,88,0
1,52,92,432
1,45,88,0
1,57,104,0
1,52,92,0
1,45,88,0
1,57,104,0
1,49,113,116
1,42,85,0
1,49,113,0
1,42,85,0
1,54,107,4
1,54,107,0
1,49,113,392
1,42,85,0
1,54,104,0
1,49,113,0
1,42,85,0
1,54,104,0
1,50,94,92
1,55,110,0
1,43,88,0
1,50,94,0
1,55,110,0
1,43,88,0
1,55,110,304
1,43,87,0
1,50,97,0
1,55,110,0
1,43,87,0
1,50,97,0
1,42,85,168
1,50,87,0
1,62,106,0
1,42,85,0
1,50,87,0
1,62,106,0
1,61,101,192
1,61,101,0
1,59,100,128
1,59,100,0
1,43,88,96
1,57,100,0
1,55,100,0
1,50,87,0
1,43,88,0
1,57,100,0
1,55,100,0
1,50,87,0
1,45,91,8
1,52,94,0
1,57,90,0
1,45,91,0
1,52,94,0
1,57,90,0
1,57,81,480
1,52,85,0
1,45,90,0
1,57,81,0
1,52,85,0
1,45,90,0
1,45,80,108
1,45,80,0
1,54,87,4
1,57,88,0
1,54,87,0
1,57,88,0
1,57,80,468
1,52,88,0
1,45,84,0
1,57,80,0
1,52,88,0
1,45,84,0
1,57,72,104
1,57,72,0
1,64,73,4
1,64,73,0
1,42,75,0
1,42,75,0
1,57,50,4
1,57,50,0
1,49,86,4
1,49,86,0
1,49,84,4
1,49,84,0
1,57,81,4
1,42,72,0
1,57,81,0
1,42,72,0
1,49,86,160
1,42,87,0
1,49,86,0
1,42,87,0
1,49,89,484
1,42,88,0
1,49,89,0
1,42,88,0
1,52,67,4
1,52,67,0
1,57,69,388
1,57,69,0
1,57,84,32
1,57,84,0
1,54,87,12
1,54,87,0
1,57,78,12
1,43,85,0
1,57,78,0
1,43,85,0
1,59,56,4
1,59,56,0
1,50,87,4
1,50,87,0
1,55,76,12
1,55,76,0
1,59,62,464
1,55,68,0
1,50,91,0
1,59,62,0
1,55,68,0
1,50,91,0
1,57,72,4
1,57,72,0
1,43,81,4
1,43,81,0
1,50,94,112
1,57,86,0
1,42,77,0
1,50,94,0
1,57,86,0
1,42,77,0
1,42,79,476
1,50,92,0
1,57,85,0
1,42,79,0
1,50,92,0
1,57,85,0
1,52,77,196
1,47,87,0
1,40,92,0
1,52,77,0
1,47,87,0
1,40,92,0
1,59,90,468
1,59,90,0
1,40,85,8
1,40,85,0
1,52,81,8
1,47,85,0
1,52,81,0
1,47,85,0
1,64,79,364
1,64,79,0
1,40,80,120
1,47,91,0
1,40,80,0
1,47,91,0
1,52,87,4
1,52,87,0
1,40,87,148
1,40,87,0
1,42,84,196
1,42,84,0
1,45,95,20
1,45,95,0
1,47,97,24
1,47,97,0
1,49,108,184
1,49,108,0
1,45,81,8
1,57,80,0
1,52,81,0
1,45,81,0
1,57,80,0
1,52,81,0
1,69,68,104
1,69,68,0
1,88,76,184
1,76,73,0
1,88,76,0
1,76,73,0
1,64,64,180
1,64,64,0
1,57,81,8
1,52,76,0
1,45,76,0
1,57,81,0
1,52,76,0
1,45,76,0
1,69,59,0
1,69,59,0
1,88,86,192
1,76,85,0
1,88,86,0
1,76,85,0
1,64,73,104
1,64,73,0
1,54,77,124
1,57,86,0
1,45,78,0
1,54,77,0
1,57,86,0
1,45,78,0
1,69,60,60
1,69,60,0
1,88,83,180
1,76,80,0
1,88,83,0
1,76,80,0
1,64,70,80
1,64,70,0
1,45,76,4
1,52,85,0
1,57,80,0
1,45,76,0
1,52,85,0
1,57,80,0
1,69,47,4
1,69,47,0
1,88,80,12
1,76,81,0
1,88,80,0
1,76,81,0
1,64,68,4
1,64,68,0
1,57,73,84
1,42,71,0
1,49,79,0
1,57,73,0
1,42,71,0
1,49,79,0
1,69,51,12
1,69,51,0
1,76,79,192
1,88,87,0
1,76,79,0
1,88,87,0
1,64,73,180
1,64,73,0
1,49,82,4
1,49,82,0
1,57,83,4
1,42,70,0
1,57,83,0
1,42,70,0
1,69,54,372
1,69,54,0
1,88,84,180
1,76,79,0
1,88,84,0
1,76,79,0
1,64,59,92
1,64,59,0
1,57,81,120
1,49,85,0
1,42,72,0
1,57,81,0
1,49,85,0
1,42,72,0
1,69,51,100
1,69,51,0
1,88,80,180
1,76,80,0
1,88,80,0
1,76,80,0
1,42,67,100
1,49,85,0
1,57,85,0
1,64,66,0
1,42,67,0
1,49,85,0
1,57,85,0
1,64,66,0
1,69,56,388
1,69,56,0
1,88,86,184
1,76,80,0
1,88,86,0
1,76,80,0
1,64,69,96
1,64,69,0
1,50,81,104
1,57,76,0
1,43,78,0
1,50,81,0
1,57,76,0
1,43,78,0
1,69,55,92
1,69,55,0
1,88,84,180
1,76,70,0
1,88,84,0
1,76,70,0
1,50,80,176
1,43,75,0
1,64,73,0
1,50,80,0
1,43,75,0
1,64,73,0
1,57,78,8
1,57,78,0
1,69,60,384
1,69,60,0
1,88,79,172
1,88,79,0
1,76,81,8
1,76,81,0
1,64,66,112
1,64,66,0
1,42,65,92
1,50,87,0
1,57,80,0
1,42,65,0
1,50,87,0
1,57,80,0
1,69,52,72
1,69,52,0
1,88,80,180
1,76,80,0
1,88,80,0
1,76,80,0
1,64,70,176
1,64,70,0
1,50,83,8
1,57,83,0
1,42,67,0
1,50,83,0
1,57,83,0
1,42,67,0
1,69,54,0
1,69,54,0
1,88,80,192
1,76,87,0
1,88,80,0
1,76,87,0
1,64,61,180
1,64,61,0
1,40,78,96
1,47,79,0
1,52,87,0
1,40,78,0
1,47,79,0
1,52,87,0
1,69,37,12
1,69,37,0
1,88,80,100
1,76,84,0
1,88,80,0
1,76,84,0
1,47,80,180
1,52,84,0
1,40,77,0
1,64,73,0
1,47,80,0
1,52,84,0
1,40,77,0
1,64,73,0
1,88,80,112
1,76,84,0
1,88,80,0
1,76,84,0
1,40,97,156
1,47,98,0
1,52,102,0
1,40,97,0
1,47,98,0
1,52,102,0
2,33,124,1116
2,33,124,0
2,33,124,44
2,33,124,0
2,33,124,144
2,33,124,0
2,33,127,16
2,33,127,0
2,30,120,80
2,30,120,0
2,30,127,36
2,30,127,0
2,30,117,160
2,30,117,0
2,30,127,24
2,30,127,0
2,31,127,44
2,31,127,0
2,31,107,16
2,31,107,0
2,31,97,116
2,31,97,0
2,31,120,52
2,31,120,0
2,30,120,68
2,30,120,0
2,30,123,36
2,30,123,0
2,31,127,120
2,31,127,0
2,33,127,64
2,33,127,0
2,33,127,388
2,33,127,0
2,33,127,120
2,33,127,0
2,33,127,432
2,33,127,0
2,30,117,100
2,30,117,0
2,30,123,428
2,30,123,0
2,30,127,168
2,30,127,0
2,30,123,428
2,30,123,0
2,31,122,156
2,31,122,0
2,31,101,220
2,31,101,0
2,31,127,56
2,31,127,0
2,30,123,112
2,30,123,0
2,30,109,292
2,30,109,0
2,30,111,68
2,30,111,0
2,28,118,200
2,28,118,0
2,28,105,172
2,28,105,0
2,28,116,80
2,28,116,0
2,28,120,68
2,28,120,0
2,28,122,188
2,28,122,0
2,30,123,32
2,30,123,0
2,33,110,32
2,33,110,0
2,35,123,28
2,35,123,0
2,37,127,36
2,37,127,0
2,33,127,32
2,33,127,0
2,33,127,388
2,33,127,0
2,33,127,120
2,33,127,0
2,33,127,432
2,33,127,0
2,30,117,100
2,30,117,0
2,30,123,428
2,30,123,0
2,30,127,168
2,30,127,0
2,30,123,428
2,30,123,0
2,31,122,156
2,31,122,0
2,31,101,220
2,31,101,0
2,31,127,56
2,31,127,0
2,30,123,112
2,30,123,0
2,30,109,292
2,30,109,0
2,30,111,68
2,30,111,0
2,28,127,200
2,28,127,0
2,28,127,232
2,28,127,0
2,28,120,48
2,28,120,0
2,35,120,24
2,35,120,0
2,40,120,36
2,40,120,0
2,38,127,276
2,38,127,0
2,38,127,144
2,38,127,0
2,38,124,56
2,38,124,0
2,33,116,20
2,33,116,0
2,35,114,192
2,35,114,0
2,40,114,20
2,40,114,0
2,40,124,164
2,40,124,0
2,40,120,68
2,40,120,0
2,42,120,56
2,42,120,0
2,40,107,0
2,40,107,0
2,37,126,4
2,37,126,0
2,37,105,120
2,37,105,0
2,37,123,108
2,37,123,0
2,40,107,0
2,40,107,0
2,38,98,4
2,38,98,0
2,38,108,144
2,38,108,0
2,38,118,128
2,38,118,0
2,38,104,12
2,38,104,0
2,33,127,48
2,33,127,0
2,33,127,92
2,33,127,0
2,32,126,88
2,32,126,0
2,30,114,84
2,30,114,0
2,30,120,104
2,30,120,0
2,28,118,96
2,28,118,0
2,31,120,88
2,31,120,0
2,31,107,64
2,31,107,0
2,30,123,88
2,30,123,0
2,28,120,100
2,28,120,0
2,28,112,132
2,28,112,0
2,28,110,116
2,28,110,0
2,37,117,192
2,37,117,0
2,37,120,112
2,37,120,0
2,35,98,192
2,35,98,0
2,40,110,32
2,40,110,0
2,40,108,76
2,40,108,0
2,40,114,100
2,40,114,0
2,42,97,8
2,42,97,0
2,42,123,112
2,42,123,0
2,40,110,20
2,40,110,0
2,38,127,0
2,38,127,0
2,38,120,144
2,38,120,0
2,38,114,16
2,38,114,0
2,33,95,4
2,33,95,0
2,33,104,44
2,33,104,0
2,35,98,0
2,35,98,0
2,40,108,44
2,40,108,0
2,40,108,96
2,40,108,0
2,40,98,52
2,40,98,0
2,42,120,40
2,42,120,0
2,40,83,192
2,40,83,0
2,37,101,8
2,37,101,0
2,37,117,128
2,37,117,0
2,37,117,64
2,37,117,0
2,40,107,52
2,40,107,0
2,38,112,92
2,38,112,0
2,38,124,132
2,38,124,0
2,38,105,32
2,38,105,0
2,30,120,44
2,30,120,0
2,31,104,24
2,31,104,0
2,33,127,40
2,33,127,0
2,33,124,32
2,33,124,0
2,33,116,180
2,33,116,0
2,45,123,124
2,45,123,0
2,28,127,124
2,28,127,0
2,28,124,80
2,28,124,0
2,31,118,532
2,31,118,0
2,30,95,124
2,30,95,0
2,31,102,120
2,31,102,0
2,33,124,116
2,33,124,0
2,33,124,44
2,33,124,0
2,33,124,144
2,33,124,0
2,33,127,16
2,33,127,0
2,30,120,80
2,30,120,0
2,30,127,36
2,30,127,0
2,30,117,160
2,30,117,0
2,30,127,24
2,30,127,0
2,31,127,44
2,31,127,0
2,31,107,16
2,31,107,0
2,31,97,116
2,31,97,0
2,31,120,52
2,31,120,0
2,30,120,68
2,30,120,0
2,30,123,36
2,30,123,0
2,31,127,120
2,31,127,0
2,33,127,64
2,33,127,0
2,33,127,388
2,33,127,0
2,33,127,120
2,33,127,0
2,33,127,432
2,33,127,0
2,30,117,100
2,30,117,0
2,30,123,428
2,30,123,0
2,30,127,168
2,30,127,0
2,30,123,428
2,30,123,0
2,31,122,156
2,31,122,0
2,31,101,220
2,31,101,0
2,31,127,56
2,31,127,0
2,30,123,112
2,30,123,0
2,30,109,292
2,30,109,0
2,30,111,68
2,30,111,0
2,28,118,200
2,28,118,0
2,28,105,172
2,28,105,0
2,28,116,80
2,28,116,0
2,28,120,68
2,28,120,0
2,28,122,188
2,28,122,0
2,30,123,32
2,30,123,0
2,33,110,32
2,33,110,0
2,35,123,28
2,35,123,0
2,37,127,36
2,37,127,0
2,33,127,32
2,33,127,0
2,33,127,388
2,33,127,0
2,33,127,120
2,33,127,0
2,33,127,432
2,33,127,0
2,30,117,100
2,30,117,0
2,30,123,428
2,30,123,0
2,30,127,168
2,30,127,0
2,30,123,428
2,30,123,0
2,31,122,156
2,31,122,0
2,31,101,220
2,31,101,0
2,31,127,56
2,31,127,0
2,30,123,112
2,30,123,0
2,30,109,292
2,30,109,0
2,30,111,68
2,30,111,0
2,28,127,200
2,28,127,0
2,28,127,232
2,28,127,0
2,28,120,48
2,28,120,0
2,35,120,24
2,35,120,0
