track,note,velocity,time
1,61,127,23483
1,61,0,233
1,61,114,6
1,61,0,233
1,61,120,7
1,61,0,232
1,59,114,7
1,59,0,235
1,59,114,5
1,59,0,234
1,57,127,10
1,57,0,459
1,57,118,19
1,57,0,478
1,59,127,2
1,59,0,474
1,57,111,5
1,57,0,232
1,57,127,8
1,57,0,232
1,57,127,7
1,57,0,240
1,49,127,0
1,49,0,475
1,52,120,5
1,54,120,244
1,52,0,7
1,54,0,230
1,52,110,1
1,52,0,1445
1,62,127,1912
1,62,0,233
1,62,127,12
1,62,0,456
1,61,127,24
1,61,0,458
1,59,120,19
1,59,0,714
1,59,114,5
1,59,0,239
1,56,120,1
1,56,0,472
1,56,114,10
1,56,0,228
1,56,120,10
1,56,0,478
1,54,120,4
1,54,0,239
1,52,110,1
1,54,114,479
1,52,0,3
1,52,110,238
1,54,0,2
1,52,0,1927
1,61,110,1191
1,61,0,230
1,61,101,8
1,61,0,232
1,61,114,9
1,61,0,472
1,59,114,8
1,59,0,476
1,57,127,3
1,57,0,471
1,57,111,10
1,57,0,231
1,57,111,7
1,57,0,237
1,59,120,4
1,57,127,481
1,59,0,1
1,57,0,232
1,57,127,7
1,57,0,231
1,57,118,8
1,57,0,241
1,49,120,0
1,49,0,470
1,52,110,6
1,54,114,243
1,52,0,6
1,54,0,236
1,52,105,0
1,52,0,1927
1,52,114,953
1,52,0,230
1,52,114,12
1,52,0,456
1,52,120,22
1,52,0,566
1,52,90,16
1,52,0,235
1,52,93,5
1,52,0,235
1,52,86,4
1,52,0,235
1,61,110,4
1,64,105,240
1,61,0,4
1,61,120,237
1,64,0,8
1,61,0,468
1,57,118,2
1,57,0,1931
1,57,127,473
1,57,0,232
1,57,127,6
1,57,0,232
1,57,123,6
1,57,0,235
1,57,127,6
1,57,0,238
1,55,127,2
1,55,0,475
1,54,120,5
1,56,105,1440
1,54,0,7
1,58,127,238
1,56,0,10
1,58,0,233
1,58,127,236
1,61,101,475
1,58,0,2
1,58,104,239
1,61,0,12
1,56,114,225
1,58,0,7
1,54,105,235
1,56,0,7
1,54,0,228
1,54,120,7
1,56,114,1677
1,54,0,9
1,58,123,235
1,56,0,11
1,58,0,248
1,54,114,1183
1,54,0,226
1,54,114,12
1,54,0,238
1,53,127,0
1,52,120,241
1,53,0,11
1,52,0,219
1,52,114,10
1,56,120,479
1,52,0,4
1,56,0,468
1,56,105,12
1,56,0,231
1,56,101,5
1,56,0,238
1,59,120,3
1,59,0,466
1,59,120,14
1,59,0,230
1,59,120,8
1,59,0,468
1,61,120,14
1,61,0,478
1,64,114,1
1,61,114,483
1,64,0,6
1,61,0,105
1,59,114,9
1,59,0,111
1,57,118,8
1,57,0,1687
1,52,114,1196
1,52,0,226
1,52,93,9
1,52,0,236
1,54,127,5
1,54,0,465
1,54,114,18
1,54,0,231
1,54,105,8
1,54,0,231
1,54,105,8
1,54,0,236
1,58,104,3
1,58,0,235
1,58,114,6
1,58,0,232
1,58,123,8
1,58,0,231
1,58,114,9
1,58,0,234
1,61,120,8
1,61,0,229
1,61,105,9
1,61,0,230
1,61,110,10
1,61,0,234
1,61,73,14
1,61,0,219
1,66,120,13
1,66,0,238
1,61,127,1
1,61,0,228
1,61,114,12
1,61,0,234
1,63,127,7
1,63,0,1462
1,63,127,25
1,56,120,24
1,63,0,25
1,56,0,212
1,56,114,2
1,56,0,238
1,56,120,3
1,56,0,237
1,56,127,4
1,56,0,236
1,54,120,2
1,54,0,238
1,52,110,3
1,54,120,241
1,52,0,2
1,56,120,481
1,54,0,6
1,56,0,1663
1,52,120,252
1,52,0,233
1,52,114,9
1,52,0,225
1,52,114,10
1,52,0,233
1,61,127,5
1,64,114,239
1,61,0,7
1,61,127,235
1,64,0,11
1,61,0,229
1,59,114,0
1,59,0,239
1,57,127,0
1,57,0,1922
1,61,120,16797
1,61,0,236
1,61,114,6
1,61,0,481
1,59,114,2
1,59,0,234
1,57,127,4
1,57,0,460
1,57,127,20
1,57,0,236
1,57,127,6
1,59,127,482
1,57,0,6
1,59,0,226
1,57,127,4
1,57,0,493
1,47,110,231
1,49,105,238
1,47,0,4
1,52,110,237
1,49,0,9
1,54,120,468
1,52,0,6
1,54,0,473
1,52,110,3
1,52,0,1688
1,59,120,1192
1,59,0,235
1,61,101,2
1,61,0,240
1,62,127,1
1,62,0,456
1,62,127,26
1,62,0,456
1,64,127,20
1,64,0,466
1,62,127,15
1,62,0,230
1,62,127,9
1,62,0,240
1,61,120,1
1,61,0,477
1,59,120,4
1,59,0,229
1,59,105,9
1,59,0,239
1,56,114,1
1,56,0,233
1,56,114,9
1,54,114,239
1,56,0,4
1,54,0,227
1,54,114,9
1,54,0,235
1,52,114,5
1,52,0,456
1,52,120,26
1,52,0,1691
1,61,120,1188
1,61,0,232
1,61,110,7
1,61,0,233
1,61,114,7
1,61,0,456
1,57,127,22
1,57,0,456
1,57,127,25
1,57,0,456
1,57,127,25
1,57,0,456
1,59,120,23
1,59,0,479
1,57,127,2
1,57,127,243
1,57,0,222
1,57,0,6
1,57,127,9
1,57,0,230
1,47,114,11
1,49,86,238
1,47,0,9
1,52,114,231
1,49,0,8
1,54,114,472
1,52,0,9
1,52,120,231
1,54,0,7
1,52,0,1686
1,47,110,707
1,47,0,236
1,52,114,4
1,52,0,232
1,52,114,8
1,52,0,456
1,52,120,2
1,52,0,1133
1,52,110,240
1,52,0,230
1,52,97,8
1,52,0,231
1,52,110,8
1,61,93,243
1,52,0,3
1,61,0,237
1,64,110,0
1,61,127,239
1,64,0,6
1,61,0,472
1,57,127,3
1,57,0,1936
1,57,127,467
1,57,0,230
1,57,127,7
1,57,0,232
1,57,123,6
1,57,0,235
1,57,127,6
1,57,0,238
1,55,127,2
1,55,0,475
1,54,120,5
1,56,105,1440
1,54,0,7
1,58,127,238
1,56,0,10
1,58,0,233
1,58,127,236
1,61,101,475
1,58,0,2
1,58,104,239
1,61,0,12
1,56,114,225
1,58,0,7
1,54,105,235
1,56,0,7
1,54,0,228
1,54,120,7
1,56,114,1677
1,54,0,9
1,58,123,235
1,56,0,11
1,58,0,248
1,54,114,1183
1,54,0,226
1,54,114,12
1,54,0,238
1,53,127,0
1,52,120,241
1,53,0,11
1,52,0,219
1,52,114,10
1,56,120,479
1,52,0,4
1,56,0,468
1,56,105,12
1,56,0,231
1,56,101,5
1,56,0,238
1,59,120,3
1,59,0,466
1,59,120,14
1,59,0,230
1,59,120,8
1,59,0,468
1,61,120,14
1,61,0,478
1,64,114,1
1,61,114,483
1,64,0,6
1,61,0,105
1,59,114,9
1,59,0,111
1,57,118,8
1,57,0,1687
1,52,114,1196
1,52,0,226
1,52,93,9
1,52,0,236
1,54,127,5
1,54,0,465
1,54,114,18
1,54,0,231
1,54,105,8
1,54,0,231
1,54,105,8
1,54,0,236
1,58,104,3
1,58,0,235
1,58,114,6
1,58,0,232
1,58,123,8
1,58,0,231
1,58,114,9
1,58,0,234
1,61,120,8
1,61,0,229
1,61,105,9
1,61,0,230
1,61,110,10
1,61,0,234
1,61,73,14
1,61,0,219
1,66,120,13
1,66,0,238
1,61,127,1
1,61,0,228
1,61,114,12
1,61,0,234
1,63,127,7
1,63,0,1462
1,63,127,25
1,56,120,24
1,63,0,25
1,56,0,212
1,56,114,2
1,56,0,238
1,56,120,3
1,56,0,237
1,56,127,4
1,56,0,236
1,54,120,2
1,54,0,238
1,52,110,3
1,54,120,241
1,52,0,2
1,56,120,481
1,54,0,6
1,56,0,1663
1,52,120,252
1,52,0,233
1,52,114,9
1,52,0,225
1,52,114,10
1,52,0,233
1,61,127,5
1,64,114,239
1,61,0,7
1,61,127,235
1,64,0,11
1,61,0,229
1,59,114,0
1,59,0,239
1,57,127,0
1,57,0,1922
1,57,127,482
1,57,0,230
1,57,127,7
1,57,0,232
1,57,123,6
1,57,0,235
1,57,127,6
1,57,0,238
1,55,127,2
1,55,0,475
1,54,120,5
1,56,105,1440
1,54,0,7
1,58,127,238
1,56,0,10
1,58,0,233
1,58,127,236
1,61,101,475
1,58,0,2
1,58,104,239
1,61,0,12
1,56,114,225
1,58,0,7
1,54,105,235
1,56,0,7
1,54,0,228
1,54,120,7
1,56,114,1677
1,54,0,9
1,58,123,235
1,56,0,11
1,58,0,248
1,54,114,1183
1,54,0,226
1,54,114,12
1,54,0,238
1,53,127,0
1,52,120,241
1,53,0,11
1,52,0,219
1,52,114,10
1,56,120,479
1,52,0,4
1,56,0,468
1,56,105,12
1,56,0,231
1,56,101,5
1,56,0,238
1,59,120,3
1,59,0,466
1,59,120,14
1,59,0,230
1,59,120,8
1,59,0,468
1,61,120,14
1,61,0,478
1,64,114,1
1,61,114,483
1,64,0,6
1,61,0,105
1,59,114,9
1,59,0,111
1,57,118,8
1,57,0,1687
1,52,114,1196
1,52,0,226
1,52,93,9
1,52,0,236
1,54,127,5
1,54,0,465
1,54,114,18
1,54,0,231
1,54,105,8
1,54,0,231
1,54,105,8
1,54,0,236
1,58,104,3
1,58,0,235
1,58,114,6
1,58,0,232
1,58,123,8
1,58,0,231
1,58,114,9
1,58,0,234
1,61,120,8
1,61,0,229
1,61,105,9
1,61,0,230
1,61,110,10
1,61,0,234
1,61,73,14
1,61,0,219
1,66,120,13
1,66,0,238
1,61,127,1
1,61,0,228
1,61,114,12
1,61,0,234
1,63,127,7
1,63,0,1462
1,63,127,25
1,56,120,24
1,63,0,25
1,56,0,212
1,56,114,2
1,56,0,238
1,56,120,3
1,56,0,237
1,56,127,4
1,56,0,236
1,54,120,2
1,54,0,238
1,52,110,3
1,54,120,241
1,52,0,2
1,56,120,481
1,54,0,6
1,56,0,1663
1,52,120,252
1,52,0,233
1,52,114,9
1,52,0,225
1,52,114,10
1,52,0,233
1,61,127,5
1,64,114,239
1,61,0,7
1,61,127,235
1,64,0,11
1,61,0,229
1,59,114,0
1,59,0,239
1,57,127,0
1,57,0,1922
1,52,114,1203
1,52,0,226
1,52,93,9
1,52,0,236
1,54,127,5
1,54,0,465
1,54,114,18
1,54,0,231
1,54,105,8
1,54,0,231
1,54,105,8
1,54,0,236
1,58,104,3
1,58,0,235
1,58,114,6
1,58,0,232
1,58,123,8
1,58,0,231
1,58,114,9
1,58,0,234
1,61,120,8
1,61,0,229
1,61,105,9
1,61,0,230
1,61,110,10
1,61,0,234
1,61,73,14
1,61,0,219
1,66,120,13
1,66,0,238
1,61,127,1
1,61,0,228
1,61,114,12
1,61,0,234
1,63,127,7
1,63,0,1462
1,63,127,25
1,56,120,24
1,63,0,25
1,56,0,212
1,56,114,2
1,56,0,238
1,56,120,3
1,56,0,237
1,56,127,4
1,56,0,236
1,54,120,2
1,54,0,238
1,52,110,3
1,54,120,241
1,52,0,2
1,56,120,481
1,54,0,6
1,56,0,1663
1,52,120,252
1,52,0,233
1,52,114,9
1,52,0,225
1,52,114,10
1,52,0,233
1,61,127,5
1,64,114,239
1,61,0,7
1,61,127,235
1,64,0,11
1,61,0,229
1,59,114,0
1,59,0,239
1,57,127,0
1,57,0,1922
3,25,100,14346
3,25,0,239
3,25,100,1
3,25,0,239
3,26,117,1
3,26,0,239
3,26,97,1
3,26,0,239
3,27,117,1
3,27,0,239
3,27,108,1
3,27,0,239
3,28,110,1
3,28,0,239
3,28,95,1
3,28,0,239
3,33,127,1
3,33,0,239
3,33,101,1
3,33,0,239
3,33,117,1
3,33,0,239
3,33,108,1
3,33,0,239
3,33,104,1
3,33,0,239
3,33,101,1
3,33,0,239
3,33,108,1
3,33,0,239
3,33,101,1
3,33,0,239
3,33,113,1
3,33,0,239
3,33,108,1
3,33,0,239
3,33,101,1
3,33,0,239
3,33,108,1
3,33,0,239
3,33,101,1
3,33,0,239
3,33,108,1
3,33,0,239
3,33,104,1
3,33,0,239
3,33,104,1
3,33,0,239
3,33,113,1
3,33,0,239
3,33,101,1
3,33,0,239
3,33,108,1
3,33,0,239
3,33,108,1
3,33,0,239
3,33,113,1
3,33,0,239
3,33,117,1
3,33,0,239
3,33,117,1
3,33,0,239
3,33,104,1
3,33,0,239
3,33,127,1
3,33,0,480
3,33,127,1440
3,33,0,480
3,33,127,0
3,33,0,480
3,33,127,0
3,33,0,480
3,33,127,0
3,33,0,480
3,33,122,0
3,33,0,480
3,33,127,0
3,33,0,480
3,33,127,0
3,33,0,480
3,31,127,0
3,31,0,480
3,28,100,0
3,28,0,480
3,28,104,0
3,28,0,480
3,28,110,0
3,28,0,480
3,28,127,0
3,28,0,480
3,28,104,0
3,28,0,480
3,28,110,0
3,28,0,479
3,28,104,1
3,28,0,239
3,23,110,1
3,23,0,239
3,25,104,1
3,25,0,239
3,23,100,1
3,23,0,239
3,28,110,1
3,28,0,480
3,28,127,0
3,28,0,480
3,28,110,0
3,28,0,480
3,28,110,0
3,28,0,480
3,28,110,0
3,28,0,480
3,28,110,0
3,28,0,479
3,28,110,1
3,28,0,479
3,28,110,1
3,28,0,239
3,31,127,1
3,31,0,239
3,33,127,1
3,33,0,480
3,33,127,0
3,33,0,480
3,33,127,0
3,33,0,480
3,33,122,0
3,33,0,479
3,33,127,1
3,33,0,480
3,33,127,0
3,33,0,480
3,33,127,0
3,33,0,239
3,28,110,1
3,28,0,239
3,31,127,1
3,31,0,239
3,33,127,1
3,33,0,720
3,33,122,0
3,33,0,480
3,33,127,0
3,33,0,480
3,33,127,0
3,33,0,479
3,33,122,1
3,33,0,479
3,33,127,1
3,33,0,480
3,33,127,0
3,33,0,480
3,31,127,0
3,31,0,480
3,28,110,0
3,28,0,480
3,28,104,0
3,28,0,480
3,28,110,0
3,28,0,479
3,28,104,1
3,28,0,480
3,28,100,0
3,28,0,479
3,28,104,1
3,28,0,479
3,28,104,1
3,28,0,239
3,23,110,1
3,23,0,239
3,25,104,1
3,25,0,239
3,28,110,1
3,28,0,720
3,28,104,0
3,28,0,479
3,28,100,1
3,28,0,479
3,28,110,1
3,28,0,480
3,28,110,0
3,28,0,480
3,28,110,0
3,28,0,479
3,28,127,1
3,28,0,479
3,28,110,1
3,28,0,480
3,33,122,0
3,33,0,480
3,33,122,0
3,33,0,480
3,33,127,0
3,33,0,480
3,33,122,0
3,33,0,480
3,33,127,0
3,33,0,239
3,30,110,1681
3,30,0,239
3,30,104,1
3,30,0,239
3,33,113,1
3,33,0,239
3,34,117,1
3,34,0,239
3,37,110,1
3,37,0,239
3,37,100,1
3,37,0,239
3,33,117,1
3,33,0,239
3,34,122,1
3,34,0,239
3,30,104,1
3,30,0,239
3,30,104,1
3,30,0,239
3,33,104,1
3,33,0,239
3,34,122,1
3,34,0,239
3,37,104,1
3,37,0,239
3,37,110,1
3,37,0,239
3,33,117,1
3,33,0,239
3,34,122,1
3,34,0,239
3,30,110,1
3,30,0,239
3,30,110,1
3,30,0,239
3,33,113,1
3,33,0,239
3,34,113,1
3,34,0,239
3,37,110,1
3,37,0,239
3,37,104,1
3,37,0,239
3,33,113,1
3,33,0,239
3,34,122,1
3,34,0,239
3,30,110,1
3,30,0,239
3,30,110,1
3,30,0,239
3,33,117,1
3,33,0,239
3,34,117,1
3,34,0,239
3,30,127,1
3,30,0,239
3,29,127,241
3,29,0,239
3,28,110,241
3,28,0,239
3,28,104,1
3,28,0,239
3,31,108,1
3,31,0,239
3,32,100,1
3,32,0,239
3,35,104,1
3,35,0,239
3,35,104,1
3,35,0,239
3,31,113,1
3,31,0,239
3,32,104,1
3,32,0,239
3,28,127,1
3,28,0,239
3,28,104,1
3,28,0,239
3,31,113,1
3,31,0,239
3,32,104,1
3,32,0,239
3,35,100,1
3,35,0,239
3,35,104,1
3,35,0,239
3,31,122,1
3,31,0,239
3,32,104,1
3,32,0,239
3,33,127,1
3,33,0,239
3,33,127,1
3,33,0,239
3,36,113,1
3,36,0,239
3,37,104,1
3,37,0,239
3,40,100,1
3,40,0,239
3,40,95,1
3,40,0,239
3,36,113,1
3,36,0,239
3,37,100,1
3,37,0,239
3,33,127,1
3,33,0,239
3,33,122,1
3,33,0,239
3,36,108,1
3,36,0,239
3,37,100,1
3,37,0,239
