track,note,velocity,time
0,35,114,0
0,40,125,0
0,55,127,0
0,34,106,0
0,62,103,0
0,46,120,0
0,58,127,0
0,53,122,0
0,46,103,0
0,58,110,0
0,53,103,0
0,53,122,0
0,58,118,0
0,46,115,0
0,70,96,0
0,34,108,0
0,46,117,0
0,53,115,0
0,58,98,0
0,62,112,0
0,77,118,0
0,82,118,1
0,74,105,0
0,52,86,0
0,57,70,0
0,45,95,1
0,56,68,0
0,44,87,0
0,40,125,128
0,40,125,42
0,77,99,0
0,46,117,2
0,77,105,0
0,53,102,0
0,46,78,0
0,46,123,6
0,53,122,1
0,58,122,2
0,77,102,0
0,53,116,0
0,58,122,0
0,58,116,0
0,53,104,2
0,46,120,2
0,53,124,0
0,58,125,1
0,77,102,0
0,49,124,0
0,49,107,2
0,74,102,0
0,50,121,0
0,46,113,1
0,53,104,1
0,50,84,1
0,58,104,0
0,79,102,0
0,56,127,0
0,46,117,0
0,53,122,0
0,58,120,0
0,56,115,0
0,74,109,0
0,55,115,0
0,55,109,2
0,53,119,0
0,58,119,1
0,53,98,1
0,46,121,0
0,53,118,1
0,53,99,1
0,72,112,0
0,48,114,1
0,41,104,1
0,41,59,0
0,41,109,1
0,53,108,0
0,41,113,2
0,53,121,1
0,48,125,0
0,48,106,1
0,48,107,0
0,53,117,1
0,41,72,1
0,72,105,0
0,44,120,1
0,44,107,1
0,70,97,0
0,48,119,1
0,45,116,1
0,41,117,0
0,45,84,1
0,53,107,0
0,72,105,0
0,35,114,1
0,40,125,0
0,51,122,0
0,51,115,0
0,48,124,2
0,41,116,0
0,53,109,0
0,35,112,42
0,70,109,0
0,40,125,0
0,55,127,0
0,48,127,0
0,49,119,0
0,41,118,0
0,53,118,0
0,48,125,0
0,41,123,1
0,70,101,0
0,53,108,0
0,48,126,1
0,35,114,1
0,46,74,0
0,34,87,0
0,46,75,0
0,62,77,0
0,58,62,0
0,53,74,0
0,53,110,0
0,46,95,0
0,46,84,1
0,62,74,2
0,58,101,0
0,46,76,0
0,34,87,6
0,53,122,1
0,58,111,1
0,53,110,0
0,58,77,1
0,62,73,0
0,58,76,0
0,53,84,0
0,62,93,0
0,40,125,1
0,46,81,0
0,37,87,0
0,46,58,0
0,49,120,1
0,49,100,0
0,46,86,0
0,53,93,0
0,58,101,1
0,38,88,1
0,46,73,1
0,50,99,0
0,50,91,0
0,62,102,1
0,35,108,2
0,46,75,0
0,41,88,0
0,62,80,0
0,58,59,0
0,53,76,1
0,56,123,0
0,56,108,3
0,62,31,9
0,74,100,2
0,35,114,1
0,41,88,0
0,46,55,0
0,62,114,0
0,46,95,1
0,40,125,1
0,46,92,0
0,43,88,0
0,62,64,0
0,55,125,1
0,55,87,0
0,62,97,0
0,62,104,1
0,46,75,0
0,41,88,1
0,53,100,0
0,53,100,1
0,58,95,0
0,53,95,1
0,46,97,1
0,35,114,1
0,46,62,0
0,34,88,0
0,46,104,0
0,58,98,0
0,46,92,1
0,62,112,4
0,46,62,4
0,53,115,0
0,34,88,1
0,53,122,0
0,58,94,1
0,58,101,0
0,58,97,0
0,53,105,1
0,62,94,2
0,62,81,2
0,58,58,0
0,53,65,0
0,49,109,0
0,40,125,1
0,46,83,0
0,37,88,0
0,49,121,1
0,46,95,0
0,53,108,0
0,46,55,1
0,50,110,0
0,38,89,1
0,58,107,0
0,50,91,1
0,62,99,1
0,35,101,7
0,46,56,0
0,41,89,0
0,56,122,1
0,56,111,0
0,62,111,6
0,46,76,5
0,35,114,1
0,41,89,0
0,53,99,0
0,58,97,1
0,62,107,0
0,58,57,0
0,55,120,0
0,40,125,1
0,46,78,0
0,43,89,0
0,62,74,0
0,53,47,1
0,55,89,1
0,62,105,3
0,46,62,0
0,53,92,0
0,41,89,1
0,53,92,1
0,46,74,1
0,46,83,0
0,53,101,0
0,58,101,1
0,58,61,2
0,62,73,0
0,46,98,0
0,62,105,0
0,35,114,1
0,46,62,0
0,34,89,0
0,46,100,0
0,62,92,3
0,74,85,0
0,46,49,0
0,46,23,0
0,53,109,0
0,34,89,1
0,53,125,0
0,58,116,1
0,58,97,0
0,46,80,1
0,74,105,0
0,58,96,0
0,62,103,0
0,53,101,0
0,40,125,1
0,46,78,0
0,37,89,0
0,49,116,1
0,49,99,0
0,46,94,0
0,53,99,0
0,74,104,0
0,46,63,0
0,50,92,0
0,58,104,0
0,38,89,1
0,62,104,0
0,50,94,1
0,74,100,0
0,58,53,0
0,35,106,1
0,46,58,0
0,41,89,0
0,62,55,1
0,56,122,0
0,56,111,0
0,70,95,0
0,46,55,0
0,35,112,1
0,41,89,0
0,62,112,0
0,53,96,0
0,70,93,0
0,55,125,0
0,55,97,0
0,58,102,0
0,40,125,1
0,46,81,0
0,43,89,0
0,62,118,3
0,62,94,3
0,70,93,0
0,53,94,0
0,41,89,1
0,46,60,0
0,53,101,0
0,53,82,2
0,46,86,0
0,53,107,0
0,46,99,0
0,46,104,1
0,35,114,0
0,46,62,0
0,34,89,0
0,46,91,0
0,58,105,0
0,70,93,0
0,62,104,2
0,70,93,0
0,46,70,0
0,53,124,0
0,53,111,0
0,34,90,1
0,46,62,0
0,62,95,0
0,58,117,1
0,58,96,1
0,58,103,1
0,70,93,0
0,62,99,0
0,58,88,0
0,53,99,0
0,40,125,1
0,46,81,0
0,37,90,0
0,49,115,1
0,49,101,0
0,53,105,1
0,67,102,0
0,46,55,0
0,50,92,0
0,38,90,1
0,50,92,1
0,62,114,1
0,46,100,1
0,72,93,0
0,53,53,0
0,35,100,1
0,46,60,0
0,41,90,0
0,56,120,1
0,56,116,0
0,72,93,0
0,46,92,0
0,35,114,1
0,41,90,0
0,62,109,0
0,58,95,0
0,53,105,1
0,46,90,1
0,46,105,0
0,72,91,0
0,62,99,0
0,58,75,0
0,53,81,0
0,55,120,0
0,40,125,1
0,46,75,0
0,43,90,0
0,58,111,0
0,53,110,0
0,62,121,1
0,55,99,1
0,72,97,0
0,57,71,0
0,53,66,0
0,60,58,0
0,41,90,1
0,53,95,1
0,53,103,0
0,48,90,7
0,41,63,1
0,35,114,1
0,46,66,0
0,29,90,0
0,41,106,1
0,57,98,0
0,60,103,1
0,41,82,1
0,65,73,0
0,53,87,2
0,41,71,18
0,48,110,0
0,29,90,1
0,48,116,1
0,53,119,0
0,53,99,1
0,60,84,2
0,60,85,4
0,57,82,0
0,53,70,0
0,40,125,1
0,46,81,0
0,32,90,0
0,44,118,2
0,44,97,0
0,33,90,1
0,48,85,0
0,45,92,0
0,45,88,0
0,53,103,0
0,57,101,0
0,60,89,1
0,35,104,4
0,46,63,0
0,36,90,0
0,51,120,1
0,51,118,0
0,65,77,0
0,60,93,1
0,57,73,2
0,41,77,0
0,57,76,0
0,60,75,0
0,35,114,1
0,36,90,0
0,77,96,1
0,53,59,0
0,50,90,1
0,50,103,0
0,40,125,1
0,46,84,0
0,38,90,0
0,65,79,0
0,60,101,1
0,41,95,1
0,36,90,1
0,48,87,0
0,48,105,0
0,53,94,0
0,48,93,2
0,57,86,1
0,53,113,2
0,57,106,0
0,70,83,1
0,65,81,0
0,64,69,0
0,48,81,0
0,35,114,1
0,46,75,0
0,29,90,0
0,41,104,1
0,60,114,0
0,41,83,1
0,65,97,0
0,41,86,1
0,65,63,0
0,64,39,0
0,70,43,0
0,48,117,0
0,53,89,0
0,29,90,1
0,48,110,1
0,53,118,0
0,53,115,0
0,70,62,3
0,53,69,0
0,40,125,1
0,46,78,0
0,32,90,0
0,65,66,0
0,64,50,1
0,44,90,0
0,44,100,1
0,48,105,0
0,41,95,1
0,65,113,0
0,70,114,0
0,64,101,0
0,53,107,0
0,33,90,1
0,45,79,1
0,45,87,1
0,60,106,0
0,57,96,1
0,35,101,1
0,46,60,0
0,36,90,0
0,51,119,1
0,51,115,0
0,65,99,1
0,60,110,2
0,57,105,2
0,35,113,1
0,36,90,0
0,70,27,1
0,41,91,0
0,65,58,0
0,64,56,0
0,48,81,0
0,57,117,0
0,61,98,1
0,65,95,0
0,50,120,0
0,60,115,0
0,40,102,1
0,46,69,0
0,38,90,0
0,50,103,0
0,48,107,2
0,70,97,0
0,41,63,0
0,60,65,0
0,48,83,0
0,40,125,1
0,36,90,0
0,48,101,1
0,46,100,0
0,70,117,0
0,58,57,0
0,46,114,0
0,58,102,0
0,35,114,1
0,34,90,0
0,46,81,0
0,62,116,0
0,49,71,1
0,53,101,1
0,67,102,0
0,53,51,0
0,46,68,0
0,35,112,1
0,34,90,0
0,53,97,1
0,70,95,0
0,62,98,0
0,58,82,0
0,40,125,0
0,46,78,0
0,34,90,0
0,53,72,0
0,55,116,1
0,62,26,0
0,46,47,1
0,46,94,0
0,53,109,0
0,34,90,1
0,58,117,0
0,62,117,1
0,70,102,0
0,53,123,0
0,35,101,1
0,46,78,0
0,34,90,0
0,58,69,0
0,58,117,0
0,62,84,1
0,67,95,0
0,46,73,0
0,53,67,0
0,35,110,1
0,34,90,0
0,58,104,1
0,46,92,1
0,70,95,0
0,62,87,0
0,58,74,0
0,40,125,1
0,46,78,0
0,34,90,0
0,55,92,0
0,58,111,0
0,62,102,2
0,74,107,0
0,62,81,0
0,58,74,0
0,50,79,0
0,49,127,0
0,35,114,1
0,38,90,0
0,49,106,1
0,62,106,1
0,58,99,1
0,46,92,1
0,46,69,2
0,38,90,0
0,53,115,0
0,46,90,0
0,58,119,0
0,50,113,0
0,50,111,1
0,62,122,1
0,35,106,13
0,38,90,0
0,53,56,1
0,53,98,0
0,53,84,1
0,72,105,0
0,58,92,0
0,62,111,0
0,55,122,0
0,46,73,0
0,53,100,0
0,40,125,1
0,46,92,0
0,38,90,0
0,58,94,1
0,58,92,1
0,70,95,0
0,53,71,0
0,38,90,1
0,53,77,1
0,58,114,0
0,62,108,3
0,72,90,0
0,58,62,0
0,35,104,1
0,46,78,0
0,38,90,0
0,53,125,1
0,58,106,0
0,72,101,0
0,50,79,0
0,58,69,0
0,62,107,0
0,35,106,1
0,38,90,0
0,53,63,1
0,58,109,0
0,53,99,1
0,58,59,2
0,40,125,1
0,46,75,0
0,38,90,0
0,55,120,1
0,58,115,1
0,62,118,0
0,53,102,0
0,70,91,0
0,58,75,0
0,63,82,0
0,49,71,1
0,35,96,0
0,39,90,0
0,55,71,1
0,51,80,0
0,53,106,0
0,70,87,0
0,51,112,0
0,51,95,0
0,39,90,1
0,55,98,0
0,58,101,1
0,51,123,0
0,58,104,2
0,63,115,0
0,70,83,0
0,51,76,0
0,35,114,1
0,39,90,0
0,63,95,1
0,55,91,1
0,51,65,1
0,51,79,5
0,55,88,1
0,70,97,0
0,63,120,0
0,58,100,0
0,40,125,1
0,46,92,0
0,39,90,0
0,60,110,0
0,51,93,0
0,55,104,0
0,67,89,0
0,55,62,0
0,39,90,1
0,58,69,0
0,58,115,0
0,63,118,2
0,70,98,0
0,58,74,0
0,35,100,1
0,46,88,0
0,39,90,0
0,58,86,0
0,51,106,0
0,70,88,0
0,51,79,0
0,58,73,0
0,63,80,0
0,63,112,0
0,35,113,1
0,39,90,0
0,55,68,0
0,58,76,1
0,58,111,0
0,55,95,1
0,51,93,2
0,70,97,0
0,55,35,0
0,40,125,1
0,46,81,0
0,39,90,0
0,51,101,0
0,63,102,0
0,60,87,0
0,55,84,2
0,82,99,0
0,60,74,0
0,58,68,0
0,64,71,0
0,55,66,0
0,48,71,0
0,58,106,0
0,48,119,0
0,35,114,1
0,36,92,0
0,55,107,0
0,48,85,3
0,46,81,12
0,36,92,0
0,72,101,0
0,35,114,1
0,36,92,0
0,48,75,1
0,60,114,0
0,55,101,0
0,48,66,1
0,67,101,0
0,64,103,2
0,58,103,1
0,73,94,0
0,52,88,0
0,55,86,0
0,58,83,0
0,60,91,0
0,55,101,0
0,40,125,1
0,46,92,0
0,36,92,0
0,55,110,0
0,60,73,2
0,58,104,0
0,64,91,1
0,72,97,0
0,48,69,0
0,67,99,0
0,36,92,1
0,64,114,0
0,58,104,0
0,55,95,1
0,70,95,0
0,55,79,0
0,52,53,0
0,48,95,0
0,55,112,0
0,40,125,1
0,46,92,0
0,36,92,0
0,60,85,1
0,55,91,1
0,64,101,1
0,40,108,1
0,67,85,1
0,48,77,1
0,49,125,0
0,40,118,1
0,36,92,0
0,70,97,0
0,64,111,0
0,58,107,1
0,55,103,1
0,40,118,7
0,55,84,1
0,60,86,0
0,58,72,0
0,52,61,0
0,48,61,0
0,55,113,0
0,40,118,1
0,46,84,0
0,36,92,0
0,70,92,0
0,60,108,0
0,48,108,0
0,58,113,0
0,64,118,0
0,67,107,1
0,70,92,0
0,48,66,0
0,52,56,0
0,40,125,1
0,36,92,0
0,60,100,1
0,55,94,0
0,74,114,0
0,46,88,0
0,62,81,0
0,58,62,0
0,70,65,1
0,65,65,0
0,74,65,0
0,35,114,0
0,55,127,0
0,34,92,0
0,53,59,0
0,46,74,0
0,53,94,0
0,46,58,0
0,46,98,2
0,58,90,0
0,62,84,0
0,34,92,24
0,53,103,1
0,58,117,0
0,58,97,2
0,74,124,0
0,58,111,0
0,62,101,0
0,70,65,1
0,74,65,0
0,65,65,0
0,40,125,0
0,46,92,0
0,37,92,0
0,49,110,1
0,49,107,1
0,46,54,1
0,50,90,0
0,46,73,0
0,53,104,0
0,38,92,1
0,58,101,1
0,62,99,1
0,50,87,1
0,70,111,0
0,70,65,1
0,62,65,0
0,65,65,0
0,35,104,0
0,46,92,0
0,41,92,0
0,58,49,1
0,56,123,1
0,56,119,0
0,65,101,0
0,65,65,0
0,62,65,0
0,58,65,0
0,35,112,0
0,41,90,0
0,46,88,0
0,58,82,1
0,62,93,0
0,53,82,0
0,62,95,0
0,58,95,1
0,53,106,0
0,46,87,1
0,67,114,0
0,63,65,0
0,58,65,0
0,67,65,0
0,40,125,0
0,46,92,0
0,43,90,0
0,55,104,0
0,53,66,1
0,55,105,0
0,62,113,1
0,68,109,0
0,68,65,0
0,64,65,0
0,59,65,0
0,41,91,0
0,46,73,0
0,58,69,0
0,62,53,1
0,53,98,0
0,53,100,0
0,58,63,1
0,69,95,0
0,41,81,0
0,60,65,0
0,69,65,0
0,65,65,0
0,35,114,0
0,46,75,0
0,29,91,0
0,57,66,0
0,60,68,0
0,41,99,0
0,53,50,1
0,41,76,1
0,48,59,1
0,57,31,0
0,48,90,0
0,60,98,2
0,65,37,0
0,72,120,0
0,41,65,0
0,53,120,0
0,48,75,0
0,72,64,0
0,65,64,0
0,60,64,0
0,29,92,0
0,48,86,0
0,53,103,1
0,57,84,3
0,65,49,0
0,65,103,0
0,65,63,0
0,69,63,0
0,60,63,0
0,40,125,0
0,46,92,0
0,32,92,0
0,57,92,0
0,60,101,0
0,44,115,0
0,53,75,1
0,44,94,0
0,53,52,1
0,33,92,1
0,45,81,1
0,45,97,0
0,48,107,2
0,53,106,0
0,57,107,0
0,60,103,1
0,70,111,0
0,57,62,0
0,70,63,1
0,67,63,0
0,63,63,0
0,35,106,0
0,46,78,0
0,36,92,0
0,51,120,1
0,51,114,0
0,65,92,0
0,60,107,1
0,41,86,1
0,57,74,0
0,60,71,0
0,35,114,1
0,36,92,0
0,51,104,0
0,53,50,1
0,57,86,0
0,41,75,1
0,48,95,0
0,48,108,0
0,70,103,0
0,49,127,0
0,49,119,0
0,57,115,0
0,60,114,0
0,63,63,1
0,67,63,0
0,70,63,0
0,40,125,0
0,46,88,0
0,38,92,0
0,65,103,0
0,70,105,0
0,62,62,0
0,65,62,0
0,70,62,0
0,36,92,0
0,60,57,0
0,55,80,0
0,59,75,0
0,46,62,0
0,62,67,0
0,58,52,0
0,46,100,0
0,35,114,1
0,46,60,0
0,34,92,0
0,53,104,0
0,53,23,1
0,58,108,1
0,46,105,1
0,46,87,1
0,62,87,1
0,46,80,5
0,34,92,1
0,58,121,1
0,53,108,0
0,53,108,1
0,58,93,2
0,62,67,3
0,49,113,0
0,40,125,1
0,46,81,0
0,37,92,0
0,49,99,2
0,46,82,1
0,50,87,0
