track,note,velocity,time
1,51,86,37036
1,52,86,196
1,55,107,148
1,57,109,8
1,55,100,16
1,60,117,8
1,55,103,13040
1,57,103,4
1,58,103,184
1,59,99,4
1,55,107,420
1,57,98,192
1,60,110,0
1,60,107,8
1,53,104,2864
1,69,100,0
1,65,104,0
1,60,107,0
1,51,117,92
1,58,106,0
1,63,81,0
1,67,70,8
1,48,88,184
1,55,94,0
1,55,90,96
1,48,64,0
1,48,94,124
1,57,115,0
1,55,104,144
1,48,100,0
1,48,74,104
1,55,87,0
1,57,110,124
1,48,100,0
1,48,94,76
1,55,110,0
1,55,85,84
1,48,63,0
1,57,115,112
1,48,110,0
1,48,107,84
1,55,117,0
1,57,110,0
1,48,96,0
1,55,96,92
1,43,94,20
1,50,90,0
1,43,76,92
1,50,87,0
1,52,117,104
1,43,102,0
1,43,100,152
1,50,115,0
1,50,76,80
1,43,58,0
1,52,107,104
1,43,96,0
1,43,107,104
1,50,117,0
1,50,92,104
1,43,77,0
1,52,115,132
1,43,96,0
1,50,112,140
1,43,100,0
1,50,96,92
1,43,73,4
1,52,110,120
1,43,92,0
1,50,61,12
1,55,110,76
1,48,96,0
1,72,98,124
1,55,107,0
1,48,87,0
1,67,90,0
1,57,117,108
1,48,104,0
1,48,104,184
1,55,117,0
1,67,112,4
1,72,110,0
1,48,60,80
1,55,90,0
1,57,112,116
1,48,88,0
1,67,117,92
1,48,110,4
1,55,117,0
1,72,117,0
1,55,104,64
1,48,94,0
1,67,117,0
1,55,102,44
1,48,88,0
1,69,112,4
1,48,117,52
1,55,117,4
1,70,117,4
1,67,117,0
1,55,100,76
1,48,98,4
1,48,112,112
1,55,115,0
1,55,94,48
1,53,117,132
1,69,100,4
1,60,112,0
1,65,110,0
1,51,117,68
1,67,110,0
1,63,106,4
1,58,109,0
1,55,87,124
1,48,78,4
1,48,85,96
1,55,102,0
1,72,117,4
1,67,117,0
1,57,117,100
1,48,107,0
1,67,117,148
1,72,117,0
1,55,104,0
1,48,94,0
1,55,100,92
1,48,81,0
1,57,112,124
1,48,98,0
1,48,110,92
1,55,117,0
1,72,117,0
1,67,117,0
1,55,96,96
1,48,81,0
1,67,117,128
1,72,117,0
1,57,117,0
1,48,107,0
1,55,102,148
1,48,92,0
1,55,102,96
1,48,92,0
1,72,117,8
1,67,117,0
1,57,107,20
1,48,84,0
1,70,80,60
1,55,78,8
1,67,117,8
1,71,115,0
1,50,107,112
1,43,98,0
1,50,102,96
1,43,84,0
1,52,117,120
1,43,107,0
1,50,117,92
1,43,102,0
1,50,80,72
1,43,63,0
1,52,110,116
1,43,94,0
1,43,110,76
1,50,117,0
1,50,96,80
1,43,96,8
1,52,117,104
1,43,107,0
1,50,104,152
1,43,102,0
1,43,76,88
1,50,100,0
1,52,104,96
1,43,98,0
1,50,80,192
1,55,112,124
1,48,107,0
1,55,115,108
1,48,98,0
1,67,117,0
1,72,117,0
1,57,117,108
1,48,110,0
1,67,117,144
1,72,117,0
1,48,102,0
1,55,117,0
1,48,66,88
1,55,96,0
1,57,115,116
1,48,102,0
1,48,117,108
1,67,115,0
1,72,117,0
1,55,117,0
1,55,100,16
1,48,96,4
1,67,117,100
1,72,117,0
1,57,117,0
1,48,100,0
1,96,64,120
1,91,65,4
1,84,65,0
1,48,107,140
1,55,117,0
1,84,77,0
1,91,66,0
1,96,70,4
1,55,98,72
1,48,65,0
1,91,104,4
1,96,102,0
1,84,117,4
1,57,117,96
1,48,107,0
1,91,107,4
1,84,117,0
1,96,115,0
1,91,94,40
1,84,115,0
1,96,112,0
1,55,112,0
1,84,107,16
1,96,112,0
1,89,104,0
1,41,117,8
1,48,117,0
1,53,117,0
1,96,88,132
1,84,88,0
1,89,88,0
1,96,115,124
1,84,117,0
1,89,112,0
1,84,76,120
1,96,87,0
1,89,85,0
1,96,102,136
1,89,107,0
1,84,117,0
1,96,82,112
1,89,90,0
1,84,92,0
1,96,96,28
1,84,100,0
1,89,100,0
1,90,117,116
1,51,117,4
1,39,117,4
1,46,117,0
1,91,110,4
1,96,110,0
1,91,69,20
1,96,60,24
1,91,76,4
1,96,116,40
1,91,117,16
1,96,117,36
1,91,117,24
1,96,117,28
1,91,117,28
1,96,117,20
1,91,117,20
1,96,117,20
1,91,92,68
1,55,107,184
1,48,102,0
1,96,104,108
1,84,112,0
1,55,110,8
1,48,94,0
1,94,100,56
1,82,109,0
1,57,117,0
1,48,110,4
1,48,43,80
1,91,104,0
1,79,100,0
1,55,107,44
1,48,98,0
1,90,100,0
1,78,113,0
1,55,96,88
1,48,80,0
1,89,112,0
1,77,112,0
1,57,115,12
1,87,106,0
1,75,91,0
1,48,107,0
1,57,85,72
1,88,94,0
1,76,71,0
1,48,85,0
1,84,100,48
1,72,96,0
1,48,90,8
1,55,98,0
1,55,88,116
1,67,117,0
1,48,49,4
1,57,117,116
1,48,107,0
1,67,107,0
1,70,57,0
1,48,102,80
1,55,117,0
1,72,117,0
1,67,117,0
1,60,92,40
1,48,85,4
1,55,90,4
1,79,117,0
1,91,117,0
1,91,110,108
1,79,104,0
1,57,110,0
1,48,96,0
1,60,76,0
1,55,90,96
1,79,115,0
1,91,115,0
1,85,60,12
1,50,115,8
1,43,107,0
1,79,100,4
1,86,95,0
1,91,112,0
1,85,57,80
1,91,88,0
1,79,88,0
1,50,104,0
1,43,92,4
1,86,80,4
1,91,76,56
1,79,90,0
1,86,98,0
1,43,112,4
1,52,117,0
1,85,109,104
1,91,115,12
1,86,117,0
1,79,117,0
1,86,67,24
1,91,38,0
1,43,107,8
1,50,107,0
1,79,52,0
1,91,77,88
1,79,90,0
1,86,94,0
1,50,88,4
1,43,64,4
1,85,113,108
1,79,117,16
1,91,112,0
1,86,97,0
1,52,117,0
1,43,107,0
1,91,28,48
1,86,60,0
1,43,117,0
1,50,117,0
1,79,43,4
1,91,85,124
1,79,84,0
1,86,87,0
1,85,117,44
1,91,115,16
1,86,97,0
1,79,117,0
1,50,88,4
1,43,85,0
1,91,38,12
1,86,70,0
1,79,52,0
1,52,117,4
1,43,107,4
1,91,90,116
1,79,92,0
1,86,100,0
1,85,103,4
1,50,117,12
1,43,117,0
1,86,97,4
1,79,117,0
1,91,117,0
1,91,44,56
1,50,100,0
1,43,84,0
1,86,70,4
1,79,55,0
1,91,94,88
1,52,110,0
1,43,110,0
1,86,102,0
1,79,110,4
1,86,117,88
1,91,102,0
1,79,112,0
1,50,94,0
1,87,117,68
1,55,117,4
1,48,115,0
1,96,90,4
1,91,35,44
1,55,112,4
1,48,96,0
1,90,65,16
1,88,92,0
1,87,117,60
1,57,117,12
1,48,115,0
1,96,98,24
1,91,81,0
1,90,81,96
1,88,77,0
1,87,117,0
1,96,92,0
1,91,78,12
1,48,110,40
1,55,117,0
1,90,85,4
1,88,63,0
1,87,117,24
1,55,110,20
1,48,81,0
1,96,96,8
1,91,78,4
1,90,79,96
1,57,117,24
1,48,110,0
1,88,74,8
1,87,117,8
1,96,100,12
1,91,82,32
1,48,117,8
1,55,117,0
1,90,79,8
1,88,82,0
1,87,117,20
1,96,96,24
1,91,96,16
1,90,81,60
1,55,112,4
1,48,110,0
1,88,70,16
1,87,117,0
1,90,49,16
1,96,104,8
1,91,78,16
1,93,75,4
1,57,117,8
1,48,115,0
1,95,51,0
1,91,77,4
1,89,52,16
1,88,54,8
1,86,88,8
1,84,102,12
1,83,96,0
1,81,98,0
1,79,100,16
1,83,81,12
1,84,74,16
1,86,80,20
1,88,87,0
1,89,92,12
1,91,90,8
1,48,110,0
1,55,117,0
1,93,96,0
1,95,107,0
1,96,102,0
1,98,115,0
1,100,117,0
1,101,117,0
1,103,104,8
1,100,77,12
1,55,117,36
1,48,96,0
1,98,94,0
1,96,100,8
1,95,100,8
1,93,107,8
1,91,98,20
1,89,98,28
1,88,102,20
1,86,110,8
1,48,110,8
1,55,117,0
1,84,100,16
1,83,100,12
1,81,107,12
1,79,110,0
1,77,110,16
1,76,98,12
1,74,94,0
1,48,115,8
1,55,117,0
1,72,96,16
1,71,98,20
1,69,94,0
1,67,88,0
1,65,84,4
1,64,96,0
1,62,90,0
1,41,117,4
1,48,112,0
1,53,112,0
1,72,102,188
1,69,92,0
1,72,117,4
1,69,117,0
1,53,117,0
1,48,107,0
1,41,104,192
1,69,107,8
1,72,104,0
1,51,109,64
1,46,109,0
1,39,117,0
1,67,110,8
1,70,117,0
1,39,117,60
1,51,117,40
1,46,117,0
1,67,77,4
1,70,113,0
1,75,109,0
1,67,74,12
1,70,24,0
1,39,117,8
1,75,106,0
1,70,106,0
1,67,96,0
1,51,103,4
1,46,103,4
1,55,110,188
1,48,107,0
1,55,100,104
1,48,84,0
1,57,117,112
1,48,92,0
1,55,96,116
1,48,94,0
1,55,96,92
1,48,78,0
1,57,112,100
1,48,107,4
1,48,102,80
1,55,117,0
1,75,113,4
1,79,112,0
1,76,110,0
1,75,81,132
1,55,96,52
1,48,88,0
1,74,84,4
1,79,92,92
1,57,100,0
1,48,110,0
1,72,110,0
1,55,115,4
1,67,60,20
1,48,90,96
1,55,107,0
1,72,110,0
1,79,104,0
1,67,56,28
1,55,110,0
1,48,85,0
1,72,110,84
1,79,112,0
1,57,107,0
1,48,92,0
1,67,76,8
1,55,100,4
1,43,102,124
1,50,110,0
1,50,102,100
1,43,80,4
1,52,117,108
1,43,110,0
1,43,112,144
1,50,117,0
1,43,57,76
1,50,76,0
1,74,115,8
1,67,94,0
1,67,73,104
1,52,112,0
1,43,102,0
1,79,117,80
1,73,97,0
1,74,102,0
1,43,112,0
1,50,117,0
1,74,43,32
1,67,70,60
1,50,94,0
1,43,82,0
1,74,112,112
1,79,117,0
1,52,115,0
1,43,104,0
1,67,62,16
1,50,98,112
1,43,94,0
1,50,92,108
1,43,70,0
1,79,104,0
1,74,96,0
1,67,56,112
1,52,110,0
1,43,107,0
1,50,92,0
1,50,88,20
1,72,112,4
1,79,104,0
1,67,98,0
1,55,112,120
1,48,110,0
1,55,117,112
1,48,96,4
1,67,63,0
1,72,117,120
1,79,110,0
1,67,98,0
1,57,117,4
1,48,112,4
1,67,81,28
1,66,106,128
1,72,115,0
1,67,92,0
1,55,112,0
1,48,100,0
1,60,94,104
1,55,100,0
1,48,81,0
1,67,77,108
1,60,60,0
1,57,117,0
1,48,112,4
1,60,75,80
1,48,73,0
1,55,117,116
1,48,117,0
1,67,107,4
1,72,117,0
1,60,96,4
1,60,94,1252
1,55,117,0
1,48,112,0
1,55,78,56
1,48,61,0
1,57,117,80
1,48,94,0
1,62,90,4
1,63,87,92
1,55,107,8
1,48,98,0
1,55,96,76
1,48,78,0
1,62,92,84
1,57,117,0
1,48,104,0
1,48,104,60
1,60,87,0
1,55,117,4
1,60,63,64
1,55,77,4
1,48,80,0
1,62,104,104
1,57,117,0
1,48,102,0
1,55,100,120
1,63,94,0
1,48,88,4
1,55,90,100
1,48,63,0
1,57,117,112
1,48,107,0
1,62,102,0
1,55,117,92
1,48,102,0
1,60,90,100
1,60,74,60
1,55,98,8
1,48,82,0
1,57,117,96
1,48,104,0
1,62,110,0
1,55,102,164
1,48,90,0
1,63,103,4
1,55,92,100
1,48,74,0
1,57,115,108
1,48,104,0
1,62,100,0
1,55,112,28
1,48,98,0
1,60,92,8
1,55,90,72
1,48,84,4
1,60,96,4
1,57,115,84
1,48,107,0
1,62,100,0
1,55,107,100
1,48,94,0
1,63,103,0
1,63,79,92
1,55,96,0
1,48,77,0
1,62,98,76
1,57,110,0
1,48,94,0
1,55,82,4
1,60,100,76
1,48,100,0
1,41,107,4
1,48,96,52
1,41,80,0
1,60,75,0
1,50,117,92
1,41,117,0
1,62,110,0
1,63,100,140
1,48,117,0
1,41,117,0
1,48,68,84
1,41,44,0
1,62,102,100
1,50,115,0
1,41,112,0
1,48,115,32
1,41,117,0
1,60,94,0
1,48,98,64
1,41,92,0
1,60,92,8
1,50,115,96
1,41,112,0
1,62,110,0
1,48,107,116
1,41,107,0
1,63,106,8
1,48,87,96
1,41,70,0
1,62,112,116
1,50,110,0
1,41,104,0
1,48,94,192
1,60,94,112
1,55,115,0
1,48,104,0
1,60,69,52
1,55,110,4
1,48,85,0
1,57,117,104
1,48,110,0
1,62,115,4
1,63,106,120
1,55,115,0
1,48,107,0
1,55,94,80
1,48,54,0
1,62,115,112
1,57,117,0
1,48,112,0
1,48,107,20
1,55,117,0
1,60,92,4
1,55,94,76
1,48,81,0
1,60,87,4
1,57,115,96
1,62,112,0
1,48,104,4
1,48,102,160
1,55,115,0
1,63,106,4
1,48,65,68
1,55,94,0
1,63,64,4
1,57,110,88
1,48,92,0
1,62,98,4
1,55,92,16
1,60,70,4
1,50,100,124
1,43,94,4
1,62,94,0
1,67,92,0
1,50,102,76
1,43,78,0
1,52,117,116
1,43,104,0
1,62,110,0
1,67,96,0
1,43,115,188
1,50,117,0
1,50,70,76
1,43,36,0
1,52,115,88
1,43,94,0
1,62,115,8
1,67,96,0
1,43,102,84
1,50,117,0
1,50,94,96
1,43,80,4
1,62,117,4
1,67,112,0
1,52,117,92
1,43,100,0
1,62,117,164
1,67,112,0
1,50,110,0
1,43,98,0
1,50,94,108
1,43,70,0
1,62,117,112
1,67,110,0
1,52,115,0
1,43,100,0
1,50,96,8
1,60,117,120
1,67,110,0
1,55,117,0
1,48,117,0
1,41,117,2820
1,48,107,0
1,53,117,0
1,72,115,384
1,77,110,0
1,69,55,192
1,53,117,124
1,48,110,0
1,72,104,8
1,77,107,0
1,41,104,96
1,69,51,0
1,41,98,104
1,77,88,8
1,72,82,0
1,46,113,12
1,51,113,0
1,39,117,0
1,75,109,0
1,70,109,0
1,39,117,60
1,67,55,0
1,67,60,112
1,70,69,0
1,46,117,0
1,51,117,0
1,70,117,124
1,67,107,0
1,46,117,4
1,51,117,0
1,39,117,0
1,63,79,176
1,67,85,0
1,39,117,72
1,46,117,4
1,51,117,0
1,63,106,4
1,67,110,0
1,67,67,4
1,63,61,0
1,55,117,96
1,48,112,0
1,55,115,108
1,48,96,0
1,57,117,88
1,48,104,0
1,84,67,124
1,79,90,8
1,84,77,88
1,79,100,0
1,55,107,64
1,48,92,0
1,84,104,0
1,79,107,0
1,84,104,44
1,79,110,0
1,55,104,4
1,48,85,0
1,79,117,4
1,84,107,0
1,57,117,76
1,48,96,0
1,79,117,0
1,84,115,0
1,84,104,0
1,79,117,4
1,48,102,20
1,55,117,0
1,79,117,52
1,84,110,0
1,79,117,88
1,84,107,0
1,84,110,72
1,79,110,4
1,55,84,20
1,48,84,4
1,84,90,40
1,79,107,0
1,84,81,72
1,79,98,0
1,57,115,20
1,48,100,0
1,84,71,64
1,79,88,8
1,79,90,8
1,84,64,0
1,84,70,44
1,79,88,12
1,55,112,28
1,48,100,0
1,55,96,92
1,48,65,0
1,57,107,96
1,48,84,0
1,55,94,40
1,74,88,8
1,79,110,0
1,50,107,128
1,43,88,0
1,50,104,112
1,43,78,0
1,67,63,0
1,67,88,108
1,74,102,0
1,52,117,0
1,43,112,0
1,79,112,4
1,67,60,0
1,43,102,92
1,74,65,0
1,50,115,0
1,50,78,88
1,43,52,0
1,74,107,0
1,79,115,0
1,67,100,0
1,52,117,68
1,43,96,0
1,67,48,8
1,50,117,20
1,43,107,0
1,74,104,0
1,67,92,0
1,67,60,40
1,50,84,8
1,43,90,0
1,52,107,84
1,43,88,0
1,74,58,0
1,74,117,100
1,67,100,0
1,43,102,28
1,50,110,0
1,50,92,88
1,43,65,0
1,67,56,0
1,74,75,96
1,52,112,0
1,67,43,0
1,43,98,0
1,72,112,28
1,67,100,0
1,50,94,0
1,55,112,32
1,48,104,0
1,67,60,116
1,55,117,0
1,48,102,0
1,57,117,108
1,48,110,0
1,66,106,20
1,71,94,0
1,48,104,4
1,55,115,0
1,67,54,0
1,72,75,0
1,55,98,92
1,48,65,0
1,67,98,0
1,72,112,0
1,57,117,88
1,48,107,0
1,72,110,8
1,67,107,0
1,48,115,88
