track,note,velocity,time
1,60,73,4202
1,65,91,2
1,62,91,2
1,69,92,0
1,62,91,68
1,67,91,0
1,64,82,0
1,60,82,0
1,62,91,26
1,69,93,2
1,72,84,0
1,65,100,0
1,62,91,60
1,67,91,0
1,64,82,0
1,60,82,0
1,60,73,72
1,65,91,2
1,62,91,2
1,69,92,0
1,62,91,68
1,67,91,0
1,64,82,0
1,60,82,0
1,62,91,26
1,69,93,2
1,72,84,0
1,65,100,0
1,58,52,0
1,60,73,150
1,65,91,2
1,69,92,2
1,62,91,0
1,62,91,68
1,67,91,0
1,64,82,0
1,60,82,0
1,62,91,26
1,69,93,2
1,72,84,0
1,65,100,0
1,62,91,60
1,67,91,0
1,64,82,0
1,60,82,0
1,60,73,72
1,65,91,2
1,62,91,2
1,69,92,0
1,62,91,68
1,67,91,0
1,64,82,0
1,60,82,0
1,62,91,26
1,69,93,2
1,72,84,0
1,65,100,0
1,58,52,0
1,60,73,12438
1,65,91,2
1,62,91,2
1,69,92,0
1,62,91,162
1,67,91,0
1,64,82,0
1,60,82,0
1,69,108,192
1,65,111,16
1,62,91,30
1,58,66,0
1,65,100,2
1,72,85,0
1,69,87,0
1,60,73,170
1,65,91,2
1,69,92,2
1,62,91,0
1,62,91,162
1,67,91,0
1,64,82,0
1,60,82,0
1,69,108,192
1,65,111,16
1,62,91,30
1,58,70,0
1,65,100,2
1,72,85,0
1,69,87,0
1,60,73,170
1,65,91,2
1,69,92,2
1,62,91,0
1,62,91,68
1,67,91,0
1,64,82,0
1,60,82,0
1,62,91,26
1,69,93,2
1,72,84,0
1,65,100,0
1,62,91,60
1,67,91,0
1,64,82,0
1,60,82,0
1,60,73,72
1,65,91,2
1,62,91,2
1,69,92,0
1,62,91,68
1,67,91,0
1,64,82,0
1,60,82,0
1,62,91,26
1,69,93,2
1,72,84,0
1,65,100,0
1,58,52,0
1,60,73,150
1,65,91,2
1,69,92,2
1,62,91,0
1,62,91,68
1,67,91,0
1,64,82,0
1,60,82,0
1,62,91,26
1,69,93,2
1,72,84,0
1,65,100,0
1,62,91,60
1,67,91,0
1,64,82,0
1,60,82,0
1,60,73,72
1,65,91,2
1,62,91,2
1,69,92,0
1,62,91,68
1,67,91,0
1,64,82,0
1,60,82,0
1,62,91,26
1,69,93,2
1,72,84,0
1,65,100,0
1,58,52,0
1,60,73,12438
1,65,91,2
1,62,91,2
1,69,92,0
1,62,91,162
1,67,91,0
1,64,82,0
1,60,82,0
1,69,108,192
1,65,111,16
1,62,91,30
1,58,66,0
1,65,100,2
1,72,85,0
1,69,87,0
1,60,73,170
1,65,91,2
1,69,92,2
1,62,91,0
1,62,91,162
1,67,91,0
1,64,82,0
1,60,82,0
1,69,108,192
1,65,111,16
1,62,91,30
1,58,70,0
1,65,100,2
1,72,85,0
1,69,87,0
1,60,73,170
1,65,91,2
1,69,92,2
1,62,91,0
1,62,91,68
1,67,91,0
1,64,82,0
1,60,82,0
1,62,91,26
1,69,93,2
1,72,84,0
1,65,100,0
1,62,91,60
1,67,91,0
1,64,82,0
1,60,82,0
1,60,73,72
1,65,91,2
1,62,91,2
1,69,92,0
1,62,91,68
1,67,91,0
1,64,82,0
1,60,82,0
1,62,91,26
1,69,93,2
1,72,84,0
1,65,100,0
1,58,52,0
1,60,73,150
1,65,91,2
1,69,92,2
1,62,91,0
1,62,91,68
1,67,91,0
1,64,82,0
1,60,82,0
1,62,91,26
1,69,93,2
1,72,84,0
1,65,100,0
1,62,91,60
1,67,91,0
1,64,82,0
1,60,82,0
1,60,73,72
1,65,91,2
1,62,91,2
1,69,92,0
1,62,91,68
1,67,91,0
1,64,82,0
1,60,82,0
1,62,91,26
1,69,93,2
1,72,84,0
1,65,100,0
1,58,52,0
1,60,73,18582
1,65,91,2
1,62,91,2
1,69,92,0
1,62,91,162
1,67,91,0
1,64,82,0
1,60,82,0
1,62,91,72
1,58,70,0
1,65,100,2
1,72,85,0
1,69,87,0
1,60,73,170
1,65,91,2
1,69,92,2
1,62,91,0
1,62,91,68
1,67,91,0
1,64,82,0
1,60,82,0
1,62,91,26
1,69,93,2
1,72,84,0
1,65,100,0
1,62,91,60
1,67,91,0
1,64,82,0
1,60,82,0
1,60,73,72
1,65,91,2
1,62,91,2
1,69,92,0
1,62,91,68
1,67,91,0
1,64,82,0
1,60,82,0
1,62,91,26
1,69,93,2
1,72,84,0
1,65,100,0
1,58,52,0
1,60,73,150
1,65,91,2
1,69,92,2
1,62,91,0
1,62,91,68
1,67,91,0
1,64,82,0
1,60,82,0
1,62,91,26
1,69,93,2
1,72,84,0
1,65,100,0
1,62,91,60
1,67,91,0
1,64,82,0
1,60,82,0
1,60,73,72
1,65,91,2
1,62,91,2
1,69,92,0
1,62,91,68
1,67,91,0
1,64,82,0
1,60,82,0
1,62,91,26
1,69,93,2
1,72,84,0
1,65,100,0
1,58,52,0
2,41,83,2652
2,34,74,4
2,36,83,96
2,25,83,78
2,26,100,380
2,26,100,202
2,26,100,186
2,26,100,472
2,26,80,30
2,26,100,152
2,26,60,34
2,26,100,56
2,26,76,108
2,26,100,58
2,31,100,432
2,31,100,202
2,31,100,186
2,31,100,472
2,31,80,8
2,31,100,152
2,31,60,28
2,31,100,56
2,31,76,100
2,43,100,24
2,41,100,16
2,26,100,12
2,26,100,202
2,26,100,186
2,26,100,472
2,26,80,30
2,26,100,152
2,26,60,34
2,26,100,56
2,26,76,108
2,26,100,58
2,31,100,432
2,31,100,202
2,31,100,186
2,31,100,472
2,31,80,8
2,31,100,152
2,31,60,28
2,31,100,56
2,31,76,108
2,31,100,58
2,51,100,82
2,52,100,76
2,26,100,226
2,26,100,202
2,26,100,186
2,26,100,472
2,26,80,30
2,26,100,152
2,26,60,34
2,26,100,56
2,26,76,108
2,26,100,58
2,31,100,432
2,31,100,202
2,31,100,186
2,31,100,472
2,31,80,8
2,31,100,152
2,31,60,28
2,31,100,56
2,31,76,100
2,43,100,24
2,41,100,16
2,26,100,12
2,26,100,202
2,26,100,186
2,26,100,472
2,26,80,30
2,26,100,152
2,26,60,34
2,26,100,56
2,26,76,108
2,26,100,58
2,31,100,432
2,31,100,202
2,31,100,186
2,31,100,472
2,31,80,8
2,31,100,152
2,31,60,28
2,31,100,56
2,31,76,108
2,31,100,58
2,41,100,22
2,43,76,126
2,41,100,78
2,26,100,4
2,26,100,202
2,26,100,186
2,26,100,472
2,26,80,30
2,26,100,152
2,26,60,34
2,26,100,56
2,26,76,108
2,26,100,58
2,31,100,432
2,31,100,202
2,31,100,186
2,31,100,472
2,31,80,8
2,31,100,152
2,31,60,28
2,31,100,56
2,31,76,108
2,31,100,58
2,40,100,108
2,41,91,32
2,26,100,8
2,26,100,202
2,26,100,186
2,26,100,472
2,26,80,30
2,26,100,152
2,26,60,34
2,26,100,56
2,26,76,108
2,26,100,58
2,31,100,432
2,31,100,202
2,31,100,186
2,31,100,472
2,31,80,8
2,31,100,152
2,31,60,28
2,31,100,56
2,31,76,108
2,31,100,58
2,51,100,82
2,52,100,76
2,26,100,226
2,26,100,202
2,26,100,186
2,26,100,472
2,26,80,30
2,26,100,152
2,26,60,34
2,26,100,56
2,26,76,108
2,26,100,58
2,31,100,432
2,31,100,202
2,31,100,186
2,31,100,472
2,31,80,8
2,31,100,152
2,31,60,28
2,31,100,56
2,31,76,100
2,43,100,24
2,41,100,16
2,26,100,12
2,26,100,202
2,26,100,186
2,26,100,472
2,26,80,30
2,26,100,152
2,26,60,34
2,26,100,56
2,26,76,108
2,26,100,58
2,31,100,432
2,31,100,202
2,31,100,186
2,31,100,472
2,31,80,8
2,31,100,152
2,31,60,28
2,31,100,56
2,31,76,108
2,31,100,58
2,51,100,82
2,52,100,76
2,26,100,226
2,26,100,202
2,26,100,186
2,26,100,472
2,26,80,30
2,26,100,152
2,26,60,34
2,26,100,56
2,26,76,108
2,26,100,58
2,31,100,432
2,31,100,202
2,31,100,186
2,31,100,472
2,31,80,8
2,31,100,152
2,31,60,28
2,31,100,56
2,31,76,100
2,43,100,24
2,41,100,16
2,26,100,12
2,26,100,202
2,26,100,186
2,26,100,472
2,26,80,30
2,26,100,152
2,26,60,34
2,26,100,56
2,26,76,108
2,26,100,58
2,31,100,432
2,31,100,202
2,31,100,186
2,31,100,472
2,31,80,8
2,31,100,152
2,31,60,28
2,31,100,56
2,31,76,108
2,31,100,58
2,41,100,22
2,43,76,126
2,41,100,78
2,26,100,4
2,26,100,202
2,26,100,186
2,26,100,472
2,26,80,30
2,26,100,152
2,26,60,34
2,26,100,56
2,26,76,108
2,26,100,58
2,31,100,432
2,31,100,202
2,31,100,186
2,31,100,472
2,31,80,8
2,31,100,152
2,31,60,28
2,31,100,56
2,31,76,108
2,31,100,58
2,40,100,108
2,41,91,32
2,26,100,8
2,26,100,202
2,26,100,186
2,26,100,472
2,26,80,30
2,26,100,152
2,26,60,34
2,26,100,56
2,26,76,108
2,26,100,58
2,26,100,3504
2,26,100,202
2,26,100,186
2,26,100,472
2,26,80,30
2,26,100,152
2,26,60,34
2,26,100,56
2,26,76,108
2,26,100,58
2,31,100,432
2,31,100,202
2,31,100,186
2,31,100,472
2,31,80,8
2,31,100,152
2,31,60,28
2,31,100,56
2,31,76,100
2,43,100,24
2,41,100,16
2,26,100,12
2,26,100,202
2,26,100,186
2,26,100,472
2,26,80,30
2,26,100,152
2,26,60,34
2,26,100,56
2,26,76,108
2,26,100,58
2,31,100,432
2,31,100,202
2,31,100,186
2,31,100,472
2,31,80,8
2,31,100,152
2,31,60,28
2,31,100,56
2,31,76,108
2,31,100,58
2,51,100,82
2,52,100,76
2,26,100,226
2,26,100,202
2,26,100,186
2,26,100,472
2,26,80,30
2,26,100,152
2,26,60,34
2,26,100,56
2,26,76,108
2,26,100,58
2,31,100,432
2,31,100,202
2,31,100,186
2,31,100,472
2,31,80,8
2,31,100,152
2,31,60,28
2,31,100,56
2,31,76,100
2,43,100,24
2,41,100,16
2,26,100,12
2,26,100,202
2,26,100,186
2,26,100,472
2,26,80,30
2,26,100,152
2,26,60,34
2,26,100,56
2,26,76,108
2,26,100,58
2,31,100,432
2,31,100,202
2,31,100,186
2,31,100,472
2,31,80,8
2,31,100,152
2,31,60,28
2,31,100,56
2,31,76,108
2,31,100,58
2,41,100,22
2,43,76,126
2,41,100,78
2,26,100,6148
2,26,100,202
2,26,100,186
2,26,100,472
2,26,80,30
2,26,100,152
2,26,60,34
2,26,100,56
2,26,76,108
2,26,100,58
2,31,100,432
2,31,100,202
2,31,100,186
2,31,100,472
2,31,80,8
2,31,100,152
2,31,60,28
2,31,100,56
2,31,76,108
2,31,100,58
2,51,100,82
2,52,100,76
2,26,100,226
2,26,100,202
2,26,100,186
2,26,100,472
2,26,80,30
2,26,100,152
2,26,60,34
2,26,100,56
2,26,76,108
2,26,100,58
2,31,100,432
2,31,100,202
2,31,100,186
2,31,100,472
2,31,80,8
2,31,100,152
2,31,60,28
2,31,100,56
2,31,76,100
2,43,100,24
2,41,100,16
2,26,100,12
2,26,100,202
2,26,100,186
2,26,100,472
2,26,80,30
2,26,100,152
2,26,60,34
2,26,100,56
2,26,76,108
2,26,100,58
2,31,100,432
2,31,100,202
2,31,100,186
2,31,100,472
2,31,80,8
2,31,100,152
2,31,60,28
2,31,100,56
2,31,76,108
2,31,100,58
2,51,100,82
2,52,100,76
2,26,100,226
2,26,100,202
2,26,100,186
2,26,100,472
2,26,80,30
2,26,100,152
2,26,60,34
2,26,100,56
2,26,76,108
2,26,100,58
2,31,100,432
2,31,100,202
2,31,100,186
2,31,100,472
2,31,80,8
2,31,100,152
2,31,60,28
2,31,100,56
2,31,76,100
2,43,100,24
2,41,100,16
3,53,87,2628
3,65,101,0
3,46,66,14
3,58,77,0
3,70,91,0
3,48,67,8
3,60,78,0
3,72,92,0
3,77,105,8
3,73,98,0
3,49,73,4
3,61,84,0
3,72,84,0
3,68,73,6
3,69,93,1816
3,81,107,0
3,68,79,146
3,80,93,0
3,67,90,6
3,79,104,0
3,65,84,22
3,77,98,0
3,62,95,14
3,74,109,0
3,57,68,46
3,69,82,0
3,56,50,44
3,68,64,0
3,55,84,2
3,67,98,0
3,53,74,140
3,65,98,0
3,55,77,4
3,67,91,0
3,53,87,2832
3,65,101,0
3,46,67,14
3,58,77,0
3,70,91,0
3,48,68,8
3,60,78,0
3,72,92,0
3,77,105,8
3,73,101,0
3,49,64,4
3,61,74,0
3,72,94,0
3,68,73,6
3,69,75,1060
3,81,91,0
3,69,77,134
3,81,93,0
3,69,93,140
3,81,107,0
3,68,79,146
3,80,93,0
3,67,90,6
3,79,104,0
3,65,84,22
3,77,98,0
3,62,95,14
3,74,109,0
3,57,68,46
3,69,82,0
3,56,50,44
3,68,64,0
3,55,84,2
3,67,98,0
3,53,74,140
3,65,98,0
3,55,77,4
3,67,91,0
3,65,82,146
3,67,82,32
3,53,87,2532
3,65,101,0
3,46,67,14
3,58,77,0
3,70,91,0
3,48,68,8
3,60,78,0
3,72,92,0
3,77,105,8
3,73,102,0
3,49,64,4
3,61,74,0
3,72,84,0
3,68,73,6
3,69,93,26024
3,81,107,0
3,68,79,146
3,80,93,0
3,67,90,6
3,79,104,0
3,65,84,22
3,77,98,0
3,62,95,14
3,74,109,0
3,57,68,46
3,69,82,0
3,56,50,44
3,68,64,0
3,55,84,2
3,67,98,0
3,53,74,140
3,65,98,0
3,55,77,4
3,67,91,0
3,53,87,2832
3,65,101,0
3,46,67,14
3,58,77,0
3,70,91,0
3,48,68,8
3,60,78,0
3,72,92,0
3,77,105,8
3,73,101,0
3,49,64,4
3,61,74,0
3,72,94,0
3,68,73,6
3,69,75,1060
3,81,91,0
3,69,77,134
3,81,93,0
3,69,93,140
3,81,107,0
3,68,79,146
3,80,93,0
3,67,90,6
3,79,104,0
3,65,84,22
3,77,98,0
3,62,95,14
3,74,109,0
3,57,68,46
3,69,82,0
3,56,50,44
3,68,64,0
3,55,84,2
3,67,98,0
3,53,74,140
3,65,98,0
3,55,77,4
3,67,91,0
3,65,82,146
3,67,82,32
3,53,87,2532
3,65,101,0
3,46,67,14
3,58,77,0
3,70,91,0
3,48,68,8
3,60,78,0
3,72,92,0
3,77,105,8
3,73,102,0
3,49,64,4
3,61,74,0
3,72,84,0
3,68,73,6
3,69,93,26024
3,81,107,0
3,68,79,146
3,80,93,0
3,67,90,6
3,79,104,0
3,65,84,22
3,77,98,0
3,62,95,14
3,74,109,0
3,57,68,46
3,69,82,0
3,56,50,44
3,68,64,0
3,55,84,2
3,67,98,0
3,53,74,140
3,65,98,0
3,55,77,4
3,67,91,0
3,53,87,2832
3,65,101,0
3,46,67,14
3,58,77,0
3,70,91,0
3,48,68,8
3,60,78,0
3,72,92,0
3,77,105,8
3,73,101,0
3,49,64,4
3,61,74,0
3,72,94,0
3,68,73,6
3,69,75,1060
3,81,91,0
3,69,77,134
3,81,93,0
3,69,93,140
3,81,107,0
3,68,79,146
3,80,93,0
3,67,90,6
3,79,104,0
3,65,84,22
3,77,98,0
3,62,95,14
3,74,109,0
3,57,68,46
3,69,82,0
3,56,50,44
3,68,64,0
3,55,84,2
3,67,98,0
3,53,74,140
3,65,98,0
3,55,77,4
3,67,91,0
3,65,82,146
3,67,82,32
3,53,87,2532
3,65,101,0
3,46,67,14
3,58,77,0
3,70,91,0
3,48,68,8
3,60,78,0
3,72,92,0
3,77,105,8
3,73,102,0
3,49,64,4
3,61,74,0
3,72,84,0
3,68,73,6
3,69,93,26024
3,81,107,0
3,68,79,146
3,80,93,0
3,67,90,6
3,79,104,0
3,65,84,22
3,77,98,0
3,62,95,14
3,74,109,0
3,57,68,46
3,69,82,0
3,56,50,44
3,68,64,0
3,55,84,2
3,67,98,0
3,53,74,140
3,65,98,0
3,55,77,4
3,67,91,0
3,53,87,2832
3,65,101,0
3,46,67,14
3,58,77,0
3,70,91,0
3,48,68,8
3,60,78,0
3,72,92,0
3,77,105,8
3,73,101,0
3,49,64,4
3,61,74,0
