track,note,velocity,time
1,47,111,5374
1,40,111,0
1,40,0,62
1,47,0,0
1,64,109,34
1,59,102,0
1,56,102,0
1,52,91,0
1,47,99,0
1,40,99,0
1,64,0,1
1,47,0,61
1,40,0,0
1,59,0,32
1,52,0,0
1,56,0,0
1,47,112,2
1,40,112,0
1,40,0,62
1,47,0,0
1,56,108,34
1,59,91,0
1,47,101,0
1,40,101,0
1,40,0,62
1,47,0,0
1,59,0,32
1,64,109,2
1,47,112,0
1,40,112,0
1,59,101,0
1,40,0,62
1,47,0,0
1,56,0,32
1,64,0,0
1,59,0,0
1,47,98,2
1,40,98,0
1,40,0,62
1,47,0,0
1,47,112,2
1,40,112,0
1,40,0,62
1,47,0,0
1,47,98,34
1,40,98,0
1,40,0,62
1,47,0,0
1,47,112,2
1,40,112,0
1,64,109,0
1,56,102,0
1,59,109,0
1,52,91,0
1,40,0,62
1,47,0,0
1,59,0,32
1,56,0,0
1,52,0,0
1,64,0,0
1,47,96,2
1,40,96,0
1,40,0,62
1,47,0,0
1,47,112,2
1,40,112,0
1,40,0,62
1,47,0,0
1,47,101,34
1,40,101,0
1,64,109,0
1,59,102,0
1,52,94,0
1,56,97,0
1,40,0,62
1,47,0,0
1,47,112,2
1,40,112,0
1,40,0,62
1,47,0,0
1,47,98,34
1,40,98,0
1,40,0,62
1,47,0,0
1,47,112,2
1,40,112,0
1,40,0,62
1,47,0,0
1,47,96,34
1,40,96,0
1,40,0,62
1,47,0,0
1,47,112,2
1,40,112,0
1,40,0,62
1,47,0,0
1,59,0,32
1,64,0,0
1,56,0,0
1,47,97,2
1,40,97,0
1,64,104,0
1,59,109,0
1,56,102,0
1,40,0,62
1,47,0,0
1,64,0,32
1,52,0,0
1,56,0,0
1,59,0,0
1,47,112,2
1,40,112,0
1,40,0,62
1,47,0,0
1,47,97,34
1,40,97,0
1,56,109,0
1,59,95,0
1,40,0,62
1,47,0,0
1,59,0,32
1,47,112,2
1,40,112,0
1,64,104,0
1,59,102,0
1,52,89,0
1,40,0,62
1,47,0,0
1,64,0,32
1,56,0,0
1,52,0,0
1,59,0,0
1,47,98,2
1,40,98,0
1,40,0,62
1,47,0,0
1,47,112,2
1,40,112,0
1,40,0,62
1,47,0,0
1,47,101,34
1,40,101,0
1,40,0,62
1,47,0,0
1,47,112,2
1,40,112,0
1,64,109,0
1,59,109,0
1,52,99,0
1,56,98,0
1,40,0,62
1,47,0,0
1,52,0,32
1,59,0,0
1,56,0,0
1,64,0,0
1,47,98,2
1,40,98,0
1,40,0,62
1,47,0,0
1,47,112,2
1,40,112,0
1,40,0,62
1,47,0,0
1,47,99,34
1,40,99,0
1,64,104,0
1,52,94,0
1,56,104,0
1,59,109,0
1,40,0,62
1,47,0,0
1,47,112,2
1,40,112,0
1,40,0,62
1,47,0,0
1,47,96,34
1,40,96,0
1,40,0,62
1,47,0,0
1,50,112,2
1,43,112,0
1,43,0,62
1,50,0,0
1,52,0,34
1,52,96,0
1,45,96,0
1,45,0,62
1,64,0,32
1,56,0,0
1,59,0,0
1,52,0,0
1,47,111,8834
1,40,111,0
1,40,0,62
1,47,0,0
1,64,109,34
1,59,102,0
1,56,102,0
1,52,91,0
1,47,99,0
1,40,99,0
1,64,0,1
1,47,0,61
1,40,0,0
1,59,0,32
1,52,0,0
1,56,0,0
1,47,112,2
1,40,112,0
1,40,0,62
1,47,0,0
1,56,108,34
1,59,91,0
1,47,101,0
1,40,101,0
1,40,0,62
1,47,0,0
1,59,0,32
1,64,109,2
1,47,112,0
1,40,112,0
1,59,101,0
1,40,0,62
1,47,0,0
1,56,0,32
1,64,0,0
1,59,0,0
1,47,98,2
1,40,98,0
1,40,0,62
1,47,0,0
1,47,112,2
1,40,112,0
1,40,0,62
1,47,0,0
1,47,98,34
1,40,98,0
1,40,0,62
1,47,0,0
1,47,112,2
1,40,112,0
1,64,109,0
1,56,102,0
1,59,109,0
1,52,91,0
1,40,0,62
1,47,0,0
1,59,0,32
1,56,0,0
1,52,0,0
1,64,0,0
1,47,96,2
1,40,96,0
1,40,0,62
1,47,0,0
1,47,112,2
1,40,112,0
1,40,0,62
1,47,0,0
1,47,101,34
1,40,101,0
1,64,109,0
1,59,102,0
1,52,94,0
1,56,97,0
1,40,0,62
1,47,0,0
1,47,112,2
1,40,112,0
1,40,0,62
1,47,0,0
1,47,98,34
1,40,98,0
1,40,0,62
1,47,0,0
1,47,112,2
1,40,112,0
1,40,0,62
1,47,0,0
1,47,96,34
1,40,96,0
1,40,0,62
1,47,0,0
1,47,112,2
1,40,112,0
1,40,0,62
1,47,0,0
1,59,0,32
1,64,0,0
1,56,0,0
1,47,97,2
1,40,97,0
1,64,104,0
1,59,109,0
1,56,102,0
1,40,0,62
1,47,0,0
1,64,0,32
1,52,0,0
1,56,0,0
1,59,0,0
1,47,112,2
1,40,112,0
1,40,0,62
1,47,0,0
1,47,97,34
1,40,97,0
1,56,109,0
1,59,95,0
1,40,0,62
1,47,0,0
1,59,0,32
1,47,112,2
1,40,112,0
1,64,104,0
1,59,102,0
1,52,89,0
1,40,0,62
1,47,0,0
1,64,0,32
1,56,0,0
1,52,0,0
1,59,0,0
1,47,98,2
1,40,98,0
1,40,0,62
1,47,0,0
1,47,112,2
1,40,112,0
1,40,0,62
1,47,0,0
1,47,101,34
1,40,101,0
1,40,0,62
1,47,0,0
1,47,112,2
1,40,112,0
1,64,109,0
1,59,109,0
1,52,99,0
1,56,98,0
1,40,0,62
1,47,0,0
1,52,0,32
1,59,0,0
1,56,0,0
1,64,0,0
1,47,98,2
1,40,98,0
1,40,0,62
1,47,0,0
1,47,112,2
1,40,112,0
1,40,0,62
1,47,0,0
1,47,99,34
1,40,99,0
1,64,104,0
1,52,94,0
1,56,104,0
1,59,109,0
1,40,0,62
1,47,0,0
1,47,112,2
1,40,112,0
1,40,0,62
1,47,0,0
1,47,96,34
1,40,96,0
1,40,0,62
1,47,0,0
1,50,112,2
1,43,112,0
1,43,0,62
1,50,0,0
1,52,0,34
1,52,96,0
1,45,96,0
1,45,0,62
1,64,0,32
1,56,0,0
1,59,0,0
1,52,0,0
1,47,111,2
1,40,111,0
1,40,0,62
1,47,0,0
1,47,99,34
1,40,99,0
1,64,109,0
1,59,106,0
1,56,93,0
1,40,0,62
1,47,0,0
1,59,0,32
1,64,0,0
1,56,0,0
1,47,112,2
1,40,112,0
1,40,0,62
1,47,0,0
1,56,91,34
1,47,101,0
1,40,101,0
1,56,0,1
1,40,0,61
1,47,0,0
1,47,112,2
1,40,112,0
1,56,93,0
1,59,99,0
1,64,109,0
1,40,0,62
1,47,0,0
1,59,0,32
1,56,0,0
1,64,0,0
1,47,98,2
1,40,98,0
1,40,0,62
1,47,0,0
1,47,112,2
1,40,112,0
1,40,0,62
1,47,0,0
1,47,98,34
1,40,98,0
1,40,0,62
1,47,0,0
1,47,112,2
1,40,112,0
1,64,109,0
1,59,107,0
1,56,98,0
1,40,0,62
1,47,0,0
1,47,96,34
1,40,96,0
1,40,0,62
1,47,0,0
1,52,93,2
1,47,112,0
1,40,112,0
1,52,0,1
1,47,0,61
1,40,0,0
1,59,0,32
1,56,0,0
1,64,0,0
1,47,101,2
1,40,101,0
1,56,104,0
1,59,108,0
1,64,103,0
1,40,0,62
1,47,0,0
1,47,112,2
1,40,112,0
1,40,0,62
1,47,0,0
1,47,98,34
1,40,98,0
1,40,0,62
1,47,0,0
1,47,112,2
1,40,112,0
1,40,0,62
1,47,0,0
1,47,96,34
1,40,96,0
1,40,0,62
1,47,0,0
1,47,112,2
1,40,112,0
1,40,0,62
1,47,0,0
1,64,0,32
1,56,0,0
1,59,0,0
1,52,64,0
1,52,0,0
1,47,97,2
1,40,97,0
1,64,109,0
1,56,98,0
1,59,109,0
1,52,96,0
1,40,0,62
1,47,0,0
1,59,0,32
1,56,0,0
1,52,0,0
1,64,0,0
1,47,112,2
1,40,112,0
1,40,0,62
1,47,0,0
1,47,97,34
1,40,97,0
1,52,97,0
1,56,92,0
1,40,0,62
1,47,0,0
1,56,0,32
1,47,112,2
1,40,112,0
1,64,109,0
1,59,98,0
1,56,93,0
1,40,0,62
1,47,0,0
1,47,98,34
1,40,98,0
1,40,0,62
1,47,0,0
1,47,112,2
1,40,112,0
1,40,0,62
1,47,0,0
1,64,0,32
1,52,0,0
1,56,0,0
1,59,0,0
1,47,101,2
1,40,101,0
1,40,0,62
1,47,0,0
1,47,112,2
1,40,112,0
1,64,109,0
1,59,109,0
1,56,96,0
1,40,0,62
1,47,0,0
1,59,0,32
1,64,0,0
1,56,0,0
1,47,98,2
1,40,98,0
1,40,0,62
1,47,0,0
1,47,112,2
1,40,112,0
1,40,0,62
1,47,0,0
1,47,99,34
1,40,99,0
1,64,109,0
1,59,109,0
1,56,94,0
1,40,0,62
1,47,0,0
1,47,112,2
1,40,112,0
1,40,0,62
1,47,0,0
1,47,96,34
1,40,96,0
1,40,0,62
1,47,0,0
1,47,112,2
1,40,112,0
1,40,0,62
1,47,0,0
1,56,0,32
1,59,0,0
1,47,96,2
1,40,96,0
1,40,0,62
1,47,0,0
1,64,0,32
1,52,111,2
1,45,111,0
1,45,0,62
1,52,0,0
1,52,99,34
1,45,99,0
1,69,103,0
1,64,107,0
1,61,96,0
1,45,0,62
1,52,0,0
1,64,0,32
1,69,0,0
1,61,0,0
1,52,112,2
1,45,112,0
1,45,0,62
1,52,0,0
1,52,101,34
1,45,101,0
1,45,0,62
1,52,0,0
1,52,112,2
1,45,112,0
1,69,96,0
1,61,101,0
1,64,108,0
1,45,0,62
1,52,0,0
1,61,0,32
1,69,0,0
1,64,0,0
1,52,98,2
1,45,98,0
1,45,0,62
1,52,0,0
1,52,112,2
1,45,112,0
1,45,0,62
1,52,0,0
1,52,98,34
1,45,98,0
1,45,0,62
1,52,0,0
1,52,112,2
1,45,112,0
1,69,109,0
1,64,109,0
1,61,106,0
1,45,0,62
1,52,0,0
1,64,0,32
1,69,0,0
1,61,0,0
1,52,96,2
1,45,96,0
1,45,0,62
1,52,0,0
1,52,112,2
1,45,112,0
1,45,0,62
1,52,0,0
1,52,101,34
1,45,101,0
1,64,100,0
1,69,109,0
1,61,99,0
1,45,0,62
1,52,0,0
1,52,112,2
1,45,112,0
1,45,0,62
1,52,0,0
1,52,98,34
1,45,98,0
1,45,0,62
1,52,0,0
1,52,112,2
1,45,112,0
1,45,0,62
1,52,0,0
1,52,96,34
1,45,96,0
1,45,0,62
1,52,0,0
1,69,0,32
1,64,0,0
1,61,0,0
1,47,112,2
1,40,112,0
1,40,0,62
1,47,0,0
1,47,97,34
1,40,97,0
1,64,109,0
1,59,109,0
1,56,95,0
1,40,0,62
1,47,0,0
1,59,0,32
1,64,0,0
1,56,0,0
1,47,112,2
1,40,112,0
1,40,0,62
1,47,0,0
1,47,97,34
1,40,97,0
1,40,0,62
1,47,0,0
1,47,112,2
1,40,112,0
1,64,109,0
1,59,109,0
1,56,101,0
1,40,0,62
1,47,0,0
1,59,0,32
1,64,0,0
1,56,0,0
1,47,98,2
1,40,98,0
1,40,0,62
1,47,0,0
1,47,112,2
1,40,112,0
1,40,0,62
1,47,0,0
1,47,101,34
1,40,101,0
1,40,0,62
1,47,0,0
1,47,112,2
1,40,112,0
1,64,109,0
1,59,102,0
1,56,102,0
1,40,0,62
1,47,0,0
1,59,0,32
1,64,0,0
1,56,0,0
1,47,98,2
1,40,98,0
1,40,0,62
1,47,0,0
1,47,112,2
1,40,112,0
1,40,0,62
1,47,0,0
1,47,99,34
1,40,99,0
1,64,109,0
1,59,109,0
1,56,97,0
1,40,0,62
1,47,0,0
1,47,112,2
1,40,112,0
1,40,0,62
1,47,0,0
1,47,96,34
1,40,96,0
1,40,0,62
1,47,0,0
1,47,112,2
1,40,112,0
1,40,0,62
1,47,0,0
1,56,0,32
1,59,0,0
1,47,96,2
1,40,96,0
1,40,0,62
1,47,0,0
1,64,0,32
1,54,112,2
1,47,112,0
1,47,0,62
1,54,0,0
1,54,101,34
1,47,101,0
1,63,109,0
1,59,97,0
1,54,0,1
1,47,0,61
1,63,0,32
1,59,0,0
1,54,112,2
1,47,112,0
1,47,0,62
1,54,0,0
1,54,99,34
1,47,100,0
1,54,0,1
1,47,0,61
1,47,111,2
1,59,107,0
1,54,94,0
1,47,0,62
1,54,0,32
1,59,0,0
1,47,98,2
1,63,109,0
1,47,0,62
1,63,0,32
1,54,112,2
1,47,112,0
1,47,0,62
1,54,0,0
1,54,98,34
1,47,98,0
1,47,0,62
1,54,0,0
1,54,112,2
1,47,112,0
1,71,109,0
1,66,108,0
1,63,103,0
1,47,0,62
1,54,0,0
1,66,0,32
1,71,0,0
1,63,0,0
1,54,98,2
1,47,98,0
1,47,0,62
1,54,0,0
1,54,113,2
1,47,113,0
1,47,0,62
1,54,0,0
1,54,100,34
1,47,100,0
1,71,98,0
1,66,109,0
1,47,0,62
1,54,0,0
1,71,0,32
1,66,0,0
1,47,112,2
1,66,106,0
1,71,105,0
1,47,0,62
1,71,0,32
1,66,0,0
1,66,100,2
1,71,105,0
1,54,98,0
1,47,98,0
1,71,0,1
1,66,0,0
1,54,0,61
1,47,0,0
1,71,109,2
1,66,98,0
1,71,0,1
1,66,0,93
1,52,100,0
1,68,109,0
1,64,109,0
1,71,102,0
1,52,0,62
1,68,0,32
1,64,0,0
1,71,0,0
1,54,112,770
1,47,112,0
1,47,0,94
1,54,0,0
1,52,104,2
1,45,104,0
1,45,0,94
1,52,0,0
1,50,112,2
1,43,112,0
1,43,0,190
1,50,0,0
1,47,112,2
1,40,112,0
1,40,0,62
1,47,0,0
1,47,97,34
1,40,97,0
1,64,109,0
1,59,109,0
1,56,98,0
1,52,96,0
1,40,0,62
1,47,0,0
1,56,0,32
1,59,0,0
1,52,0,0
1,64,0,0
1,47,112,2
1,40,112,0
1,40,0,62
1,47,0,0
1,52,98,34
1,47,97,0
1,40,97,0
1,52,0,1
1,40,0,61
1,47,0,0
1,47,112,2
1,40,112,0
1,64,109,0
1,59,109,0
1,56,99,0
1,40,0,62
1,47,0,0
1,59,0,32
1,64,0,0
1,56,0,0
1,47,98,2
1,40,98,0
1,40,0,62
1,47,0,0
1,47,112,2
1,40,112,0
1,40,0,62
1,47,0,0
1,47,101,34
1,40,101,0
1,64,109,0
1,56,103,0
1,59,109,0
1,52,94,0
1,40,0,62
1,47,0,0
1,47,112,2
1,40,112,0
1,40,0,62
1,47,0,0
1,47,98,34
1,40,98,0
1,40,0,62
1,47,0,0
1,59,0,32
1,56,0,0
1,52,0,0
1,64,0,0
1,47,112,2
1,40,112,0
1,40,0,62
1,47,0,0
1,47,99,34
1,40,99,0
1,40,0,62
1,47,0,0
1,49,112,2
1,42,112,0
1,42,0,62
1,49,0,0
1,49,96,34
1,42,96,0
1,42,0,62
1,49,0,0
1,51,112,2
1,44,112,0
1,44,0,94
1,51,0,0
1,51,96,2
1,44,96,0
1,44,0,94
1,51,0,0
1,45,109,2
1,52,98,0
1,52,0,94
1,45,0,0
1,52,104,2
1,45,97,0
1,45,0,94
1,52,0,0
1,49,112,2
1,45,109,0
1,45,0,94
1,49,0,0
1,52,96,2
1,45,96,0
1,45,0,94
1,52,0,0
1,52,112,2
1,45,106,0
1,52,0,94
1,45,0,2
1,52,97,0
1,45,97,0
1,57,93,0
1,57,0,94
1,45,0,0
1,52,0,0
1,61,112,2
1,45,109,0
1,61,0,94
1,57,100,2
1,52,98,0
1,52,0,94
1,57,0,0
1,45,0,0
1,45,109,2
1,52,98,0
1,52,0,94
1,45,0,0
1,52,104,2
1,45,97,0
1,45,0,94
1,52,0,0
1,49,112,2
1,45,109,0
1,45,0,94
1,49,0,0
1,52,96,2
1,45,96,0
1,45,0,94
1,52,0,0
1,52,112,2
1,45,106,0
1,52,0,94
1,45,0,2
1,52,97,0
1,45,97,0
1,57,93,0
1,57,0,94
1,45,0,0
1,52,0,0
1,61,112,2
1,45,109,0
