track,note,velocity,time
1,38,126,1536
1,38,126,0
1,57,126,0
1,62,126,0
1,66,126,0
1,41,126,4
1,66,126,0
1,62,126,0
1,57,126,0
1,42,126,0
1,45,126,4
1,62,126,0
1,57,126,0
1,66,126,0
1,38,126,0
1,47,126,4
1,62,126,0
1,57,126,0
1,66,126,0
1,45,126,0
1,38,126,4
1,57,126,0
1,62,126,0
1,66,126,0
1,38,126,0
1,41,126,4
1,57,126,0
1,62,126,0
1,66,126,0
1,42,126,0
1,45,126,4
1,57,126,0
1,62,126,0
1,66,126,0
1,38,126,0
1,47,126,4
1,57,126,0
1,62,126,0
1,45,126,0
1,66,126,0
1,38,126,4
1,38,126,0
1,62,126,0
1,57,126,0
1,66,126,0
1,41,126,4
1,57,126,0
1,62,126,0
1,66,126,0
1,42,126,0
1,45,126,4
1,57,126,0
1,62,126,0
1,66,126,0
1,38,126,0
1,47,126,4
1,57,126,0
1,66,126,0
1,62,126,0
1,45,126,0
1,38,126,4
1,62,126,0
1,57,126,0
1,66,126,0
1,38,126,0
1,41,126,4
1,57,126,0
1,42,126,0
1,62,126,0
1,66,126,0
1,45,126,4
1,62,126,0
1,57,126,0
1,38,126,0
1,66,126,0
1,47,126,4
1,45,126,0
1,57,126,0
1,62,126,0
1,66,126,0
1,38,126,4
1,38,126,0
1,57,126,0
1,66,126,0
1,62,126,0
1,41,126,4
1,57,126,0
1,62,126,0
1,66,126,0
1,42,126,0
1,45,126,4
1,62,126,0
1,57,126,0
1,66,126,0
1,38,126,0
1,47,126,4
1,62,126,0
1,57,126,0
1,66,126,0
1,45,126,0
1,38,126,4
1,62,126,0
1,57,126,0
1,66,126,0
1,38,126,0
1,41,126,4
1,62,126,0
1,57,126,0
1,66,126,0
1,42,126,0
1,45,126,4
1,62,126,0
1,57,126,0
1,66,126,0
1,38,126,0
1,47,126,4
1,57,126,0
1,45,126,0
1,62,126,0
1,66,126,0
1,38,126,4
1,38,126,0
1,57,126,0
1,62,126,0
1,66,126,0
1,41,126,4
1,57,126,0
1,62,126,0
1,66,126,0
1,42,126,0
1,45,126,4
1,57,126,0
1,62,126,0
1,66,126,0
1,38,126,0
1,47,126,4
1,57,126,0
1,62,126,0
1,66,126,0
1,45,126,0
1,38,126,4
1,57,126,0
1,62,126,0
1,66,126,0
1,38,126,0
1,41,126,4
1,57,126,0
1,62,126,0
1,66,126,0
1,42,126,0
1,45,126,4
1,38,126,0
1,57,126,0
1,62,126,0
1,66,126,0
1,47,126,4
1,66,126,0
1,62,126,0
1,57,126,0
1,45,126,0
1,31,126,4
1,62,126,0
1,59,126,0
1,67,126,0
1,31,126,0
1,34,126,4
1,59,126,0
1,62,126,0
1,67,126,0
1,35,126,0
1,38,126,4
1,31,126,0
1,59,126,0
1,62,126,0
1,67,126,0
1,40,126,4
1,38,126,0
1,59,126,0
1,62,126,0
1,67,126,0
1,31,126,4
1,31,126,0
1,59,126,0
1,62,126,0
1,67,126,0
1,34,126,4
1,62,126,0
1,35,126,0
1,67,126,0
1,59,126,0
1,38,126,4
1,31,126,0
1,67,126,0
1,59,126,0
1,62,126,0
1,40,126,4
1,67,126,0
1,35,126,0
1,59,126,0
1,62,126,0
1,38,126,4
1,38,126,0
1,57,126,0
1,62,126,0
1,66,126,0
1,41,126,4
1,57,126,0
1,62,126,0
1,42,126,0
1,66,126,0
1,45,126,4
1,57,126,0
1,38,126,0
1,62,126,0
1,66,126,0
1,47,126,4
1,62,126,0
1,66,126,0
1,57,126,0
1,45,126,0
1,38,126,4
1,66,126,0
1,62,126,0
1,57,126,0
1,38,126,0
1,41,126,4
1,57,126,0
1,42,126,0
1,62,126,0
1,66,126,0
1,45,126,4
1,38,126,0
1,57,126,0
1,62,126,0
1,66,126,0
1,47,126,4
1,45,126,0
1,62,126,0
1,57,126,0
1,66,126,0
1,33,126,4
1,57,126,0
1,61,126,0
1,64,126,0
1,33,126,0
1,36,126,4
1,57,126,0
1,61,126,0
1,64,126,0
1,37,126,0
1,40,126,4
1,57,126,0
1,61,126,0
1,64,126,0
1,33,126,0
1,42,126,4
1,40,126,0
1,57,126,0
1,61,126,0
1,64,126,0
1,33,126,4
1,33,126,0
1,57,126,0
1,64,126,0
1,61,126,0
1,36,126,4
1,37,126,0
1,61,126,0
1,64,126,0
1,57,126,0
1,40,126,4
1,33,126,0
1,57,126,0
1,61,126,0
1,64,126,0
1,42,126,4
1,61,126,0
1,40,126,0
1,57,126,0
1,64,126,0
1,33,126,4
1,57,126,0
1,61,126,0
1,64,126,0
1,33,126,0
1,36,126,4
1,61,126,0
1,37,126,0
1,57,126,0
1,64,126,0
1,40,126,4
1,61,126,0
1,33,126,0
1,57,126,0
1,64,126,0
1,42,126,4
1,57,126,0
1,61,126,0
1,40,126,0
1,64,126,0
1,33,126,4
1,57,126,0
1,61,126,0
1,64,126,0
1,33,126,0
1,36,126,4
1,57,126,0
1,61,126,0
1,37,126,0
1,64,126,0
1,40,126,4
1,61,126,0
1,57,126,0
1,64,126,0
1,33,126,0
1,42,126,4
1,64,126,0
1,57,126,0
1,61,126,0
1,40,126,0
1,38,126,4
1,66,126,0
1,62,126,0
1,57,126,0
1,38,126,0
1,41,126,4
1,57,126,0
1,66,126,0
1,62,126,0
1,42,126,0
1,45,126,4
1,38,126,0
1,66,126,0
1,62,126,0
1,57,126,0
1,47,126,4
1,45,126,0
1,57,126,0
1,66,126,0
1,62,126,0
1,38,126,4
1,66,126,0
1,38,126,0
1,62,126,0
1,57,126,0
1,41,126,4
1,42,126,0
1,57,126,0
1,66,126,0
1,62,126,0
1,45,126,4
1,38,126,0
1,66,126,0
1,62,126,0
1,57,126,0
1,47,126,4
1,45,126,0
1,66,126,0
1,57,126,0
1,62,126,0
1,38,126,4
1,38,126,0
1,57,126,0
1,66,126,0
1,62,126,0
1,41,126,4
1,66,126,0
1,57,126,0
1,62,126,0
1,42,126,0
1,45,126,4
1,57,126,0
1,66,126,0
1,62,126,0
1,38,126,0
1,47,126,4
1,57,126,0
1,66,126,0
1,62,126,0
1,45,126,0
1,38,126,4
1,66,126,0
1,38,126,0
1,62,126,0
1,57,126,0
1,41,126,4
1,42,126,0
1,66,126,0
1,62,126,0
1,57,126,0
1,45,126,4
1,38,126,0
1,66,126,0
1,57,126,0
1,62,126,0
1,47,126,4
1,45,126,0
1,66,126,0
1,57,126,0
1,62,126,0
1,38,126,4
1,66,126,0
1,38,126,0
1,57,126,0
1,62,126,0
1,41,126,4
1,57,126,0
1,66,126,0
1,42,126,0
1,62,126,0
1,45,126,0
1,38,126,0
1,57,126,0
1,66,126,0
1,62,126,0
1,47,126,4
1,45,126,0
1,66,126,0
1,57,126,0
1,62,126,0
1,38,126,4
1,38,126,0
1,57,126,0
1,66,126,0
1,62,126,0
1,41,126,4
1,42,126,0
1,57,126,0
1,66,126,0
1,62,126,0
1,45,126,4
1,38,126,0
1,57,126,0
1,66,126,0
1,62,126,0
1,47,126,4
1,57,126,0
1,66,126,0
1,62,126,0
1,45,126,0
1,31,126,4
1,62,126,0
1,59,126,0
1,67,126,0
1,31,126,0
1,34,126,4
1,59,126,0
1,62,126,0
1,67,126,0
1,35,126,0
1,38,126,4
1,31,126,0
1,62,126,0
1,67,126,0
1,59,126,0
1,40,126,4
1,67,126,0
1,62,126,0
1,59,126,0
1,38,126,0
1,31,126,4
1,67,126,0
1,59,126,0
1,62,126,0
1,31,126,0
1,34,126,4
1,62,126,0
1,67,126,0
1,59,126,0
1,35,126,0
1,38,126,4
1,31,126,0
1,62,126,0
1,59,126,0
1,67,126,0
1,40,126,4
1,67,126,0
1,59,126,0
1,62,126,0
1,35,126,0
1,38,126,4
1,66,126,0
1,62,126,0
1,57,126,0
1,38,126,0
1,41,126,4
1,66,126,0
1,62,126,0
1,57,126,0
1,42,126,0
1,45,126,4
1,66,126,0
1,57,126,0
1,62,126,0
1,38,126,0
1,47,126,4
1,66,126,0
1,57,126,0
1,62,126,0
1,45,126,0
1,38,126,4
1,57,126,0
1,66,126,0
1,62,126,0
1,38,126,0
1,41,126,4
1,57,126,0
1,66,126,0
1,62,126,0
1,42,126,0
1,45,126,4
1,57,126,0
1,62,126,0
1,66,126,0
1,38,126,0
1,47,126,4
1,57,126,0
1,62,126,0
1,66,126,0
1,45,126,0
1,33,126,4
1,57,126,0
1,64,126,0
1,61,126,0
1,33,126,0
1,36,126,4
1,61,126,0
1,37,126,0
1,57,126,0
1,64,126,0
1,40,126,4
1,33,126,0
1,64,126,0
1,57,126,0
1,61,126,0
1,42,126,4
1,40,126,0
1,61,126,0
1,57,126,0
1,64,126,0
1,33,126,4
1,33,126,0
1,61,126,0
1,64,126,0
1,57,126,0
1,36,126,4
1,61,126,0
1,37,126,0
1,57,126,0
1,64,126,0
1,40,126,4
1,33,126,0
1,64,126,0
1,61,126,0
1,57,126,0
1,42,126,4
1,40,126,0
1,57,126,0
1,61,126,0
1,64,126,0
1,33,126,4
1,33,126,0
1,61,126,0
1,64,126,0
1,57,126,0
1,36,126,4
1,64,126,0
1,61,126,0
1,57,126,0
1,37,126,0
1,40,126,4
1,64,126,0
1,61,126,0
1,57,126,0
1,33,126,0
1,42,126,4
1,64,126,0
1,61,126,0
1,57,126,0
1,40,126,0
1,33,126,4
1,57,126,0
1,61,126,0
1,64,126,0
1,33,126,0
1,36,126,4
1,64,126,0
1,57,126,0
1,61,126,0
1,37,126,0
1,40,126,4
1,64,126,0
1,57,126,0
1,61,126,0
1,33,126,0
1,42,126,4
1,40,126,0
1,57,126,0
1,64,126,0
1,61,126,0
1,38,126,4
1,38,126,0
1,57,126,0
1,62,126,0
1,66,126,0
1,41,126,4
1,42,126,0
1,57,126,0
1,62,126,0
1,66,126,0
1,45,126,4
1,66,126,0
1,38,126,0
1,57,126,0
1,62,126,0
1,47,126,4
1,45,126,0
1,57,126,0
1,62,126,0
1,66,126,0
1,38,126,4
1,57,126,0
1,62,126,0
1,66,126,0
1,40,126,4
1,57,126,0
1,62,126,0
1,66,126,0
1,41,126,4
1,66,126,0
1,57,126,0
1,62,126,0
1,42,126,4
1,57,126,0
1,62,126,0
1,66,126,0
1,50,126,4
1,43,126,0
1,62,126,0
1,59,126,0
1,55,126,0
1,43,126,132
1,50,126,0
1,62,126,0
1,59,126,0
1,55,126,0
1,52,126,4
1,43,126,0
1,64,126,0
1,60,126,0
1,55,126,0
1,52,126,132
1,43,126,0
1,64,126,0
1,60,126,0
1,55,126,0
1,43,126,4
1,50,126,0
1,62,126,0
1,59,126,0
1,55,126,0
1,43,126,132
1,50,126,0
1,55,126,0
1,59,126,0
1,62,126,0
1,52,126,4
1,43,126,0
1,64,126,0
1,60,126,0
1,55,126,0
1,52,126,132
1,43,126,0
1,55,126,0
1,64,126,0
1,60,126,0
1,43,126,4
1,50,126,0
1,55,126,0
1,62,126,0
1,59,126,0
1,43,126,132
1,50,126,0
1,59,126,0
1,55,126,0
1,62,126,0
1,43,126,4
1,52,126,0
1,64,126,0
1,60,126,0
1,55,126,0
1,52,126,132
1,43,126,0
1,55,126,0
1,60,126,0
1,64,126,0
1,43,126,4
1,50,126,0
1,62,126,0
1,55,126,0
1,59,126,0
1,50,126,132
1,43,126,0
1,59,126,0
1,62,126,0
1,55,126,0
1,43,126,4
1,52,126,0
1,64,126,0
1,60,126,0
1,55,126,0
1,52,126,132
1,43,126,0
1,60,126,0
1,64,126,0
1,55,126,0
1,45,126,4
1,38,126,0
1,38,126,132
1,45,126,0
1,38,126,4
1,47,126,0
1,38,126,132
1,47,126,0
1,38,126,4
1,45,126,0
1,45,126,132
1,38,126,0
1,47,126,4
1,38,126,0
1,47,126,132
1,38,126,0
1,38,126,4
1,45,126,0
1,38,126,132
1,45,126,0
1,47,126,4
1,38,126,0
1,38,126,132
1,47,126,0
1,38,126,4
1,45,126,0
1,38,126,132
1,45,126,0
1,47,126,4
1,38,126,0
1,47,126,132
1,38,126,0
1,43,126,4
1,50,126,0
1,62,126,0
1,55,126,0
1,59,126,0
1,43,126,132
1,50,126,0
1,55,126,0
1,59,126,0
1,62,126,0
1,43,126,4
1,52,126,0
1,55,126,0
1,60,126,0
1,64,126,0
1,52,126,132
1,43,126,0
1,55,126,0
1,64,126,0
1,60,126,0
1,43,126,4
1,50,126,0
1,55,126,0
1,62,126,0
1,59,126,0
1,43,126,132
1,50,126,0
1,59,126,0
1,62,126,0
1,55,126,0
1,43,126,4
1,52,126,0
1,60,126,0
1,55,126,0
1,64,126,0
1,52,126,132
1,43,126,0
1,55,126,0
1,64,126,0
1,60,126,0
1,43,126,4
1,50,126,0
1,55,126,0
1,62,126,0
1,59,126,0
1,43,126,132
1,50,126,0
1,59,126,0
1,55,126,0
1,62,126,0
1,43,126,4
1,52,126,0
1,60,126,0
1,55,126,0
1,64,126,0
1,52,126,132
1,43,126,0
1,55,126,0
1,60,126,0
1,64,126,0
1,43,126,4
1,50,126,0
1,55,126,0
1,62,126,0
1,59,126,0
1,43,126,132
1,50,126,0
1,55,126,0
1,59,126,0
1,62,126,0
1,43,126,4
1,52,126,0
1,55,126,0
1,64,126,0
1,60,126,0
1,43,126,132
1,52,126,0
1,55,126,0
1,64,126,0
1,60,126,0
1,38,126,4
1,45,126,0
1,45,126,132
1,38,126,0
1,38,126,4
1,47,126,0
1,47,126,132
1,38,126,0
1,38,126,4
1,45,126,0
1,38,126,132
1,45,126,0
1,47,126,4
1,38,126,0
1,47,126,132
1,38,126,0
1,38,126,4
1,45,126,0
1,38,126,132
1,45,126,0
1,47,126,4
1,38,126,0
1,47,126,132
1,38,126,0
1,38,126,4
1,45,126,0
1,38,126,132
1,45,126,0
1,38,126,4
1,47,126,0
1,47,126,132
1,38,126,0
1,52,126,4
1,45,126,0
1,64,126,0
1,61,126,0
1,57,126,0
1,45,126,132
1,52,126,0
1,64,126,0
1,57,126,0
1,61,126,0
1,45,126,4
1,54,126,0
1,57,126,0
1,62,126,0
1,66,126,0
1,45,126,132
1,54,126,0
1,57,126,0
1,62,126,0
1,66,126,0
1,45,126,4
1,52,126,0
1,57,126,0
1,61,126,0
1,64,126,0
1,45,126,132
1,52,126,0
1,64,126,0
1,57,126,0
1,61,126,0
1,45,126,4
1,54,126,0
1,57,126,0
1,62,126,0
1,66,126,0
1,45,126,132
1,54,126,0
1,57,126,0
1,62,126,0
1,66,126,0
1,52,126,4
1,45,126,0
1,57,126,0
1,64,126,0
1,61,126,0
1,45,126,132
1,52,126,0
1,64,126,0
1,57,126,0
1,61,126,0
1,45,126,4
1,54,126,0
1,57,126,0
1,62,126,0
1,66,126,0
1,45,126,132
1,54,126,0
1,57,126,0
1,62,126,0
1,66,126,0
1,45,126,4
1,52,126,0
1,57,126,0
1,61,126,0
1,64,126,0
1,52,126,132
1,45,126,0
1,57,126,0
1,64,126,0
1,61,126,0
1,45,126,4
1,54,126,0
1,57,126,0
1,62,126,0
1,66,126,0
1,54,126,132
1,45,126,0
1,57,126,0
1,62,126,0
1,66,126,0
1,45,126,4
1,38,126,0
1,38,126,132
1,45,126,0
1,38,126,4
1,47,126,0
1,38,126,132
1,47,126,0
1,38,126,4
1,45,126,0
1,45,126,132
1,38,126,0
1,47,126,4
1,38,126,0
1,47,126,132
1,38,126,0
1,38,126,4
1,45,126,0
1,38,126,132
1,45,126,0
1,47,126,4
1,38,126,0
1,38,126,132
1,47,126,0
1,38,126,4
1,45,126,0
1,38,126,132
1,45,126,0
1,47,126,4
1,38,126,0
1,47,126,132
1,38,126,0
1,38,126,18436
1,38,126,0
1,57,126,0
1,66,126,0
1,62,126,0
1,41,126,4
1,66,126,0
1,57,126,0
1,62,126,0
1,42,126,0
1,45,126,4
1,57,126,0
1,66,126,0
1,62,126,0
1,38,126,0
1,47,126,4
1,57,126,0
1,66,126,0
1,62,126,0
1,45,126,0
1,38,126,4
1,66,126,0
1,38,126,0
1,62,126,0
1,57,126,0
1,41,126,4
1,42,126,0
1,66,126,0
