track,note,velocity,time
5,31,127,1152
5,31,0,218
5,35,127,22
5,38,127,240
5,35,0,8
5,38,0,6
5,43,127,39
5,43,0,91
5,38,127,38
5,38,0,36
5,42,108,25
5,42,0,44
5,45,127,5
5,45,0,39
5,42,127,14
5,42,0,225
5,31,127,15
5,31,0,237
5,35,127,3
5,35,0,240
5,38,127,0
5,38,0,202
5,43,127,38
5,43,0,217
5,36,127,23
5,40,127,240
5,36,0,3
5,43,127,237
5,40,0,2
5,43,0,236
5,40,127,2
5,40,0,192
5,31,127,48
5,31,0,232
5,35,127,8
5,38,127,240
5,35,0,12
5,38,0,188
5,43,127,40
5,43,0,209
5,38,127,31
5,38,0,236
5,42,127,4
5,45,127,240
5,42,0,5
5,42,127,235
5,45,0,38
5,42,0,154
5,31,127,48
5,31,0,232
5,35,127,8
5,38,127,240
5,35,0,4
5,38,0,194
5,43,127,42
5,43,0,231
5,38,127,9
5,38,0,63
5,38,127,97
5,38,0,38
5,38,127,42
5,38,0,89
5,38,127,71
5,38,0,49
5,38,127,31
5,38,0,151
5,33,127,9
5,33,0,65
5,38,127,15
5,38,0,158
5,33,127,2
5,33,0,56
5,31,127,24
5,31,0,218
5,35,127,22
5,38,127,240
5,35,0,8
5,38,0,6
5,43,127,39
5,43,0,91
5,38,127,38
5,38,0,36
5,42,108,25
5,42,0,44
5,45,127,5
5,45,0,39
5,42,127,14
5,42,0,225
5,31,127,15
5,31,0,237
5,35,127,3
5,35,0,240
5,38,127,0
5,38,0,202
5,43,127,38
5,43,0,217
5,36,127,23
5,40,127,240
5,36,0,3
5,43,127,237
5,40,0,2
5,43,0,236
5,40,127,2
5,40,0,192
5,31,127,48
5,31,0,232
5,35,127,8
5,38,127,240
5,35,0,12
5,38,0,188
5,43,127,40
5,43,0,209
5,31,127,31
5,31,0,225
5,35,127,15
5,38,127,240
5,35,0,8
5,38,0,229
5,35,127,3
5,35,0,176
5,38,127,64
5,38,0,223
5,42,127,17
5,45,127,240
5,42,0,2
5,42,127,238
5,45,0,8
5,42,0,217
5,38,127,15
5,38,0,223
5,36,127,17
5,36,0,233
5,35,127,7
5,35,0,222
5,33,127,18
5,33,0,132
5,31,127,108
5,31,0,218
5,35,127,22
5,38,127,240
5,35,0,8
5,38,0,6
5,43,127,39
5,43,0,91
5,38,127,38
5,38,0,36
5,42,108,25
5,42,0,44
5,45,127,5
5,45,0,39
5,42,127,14
5,42,0,225
5,31,127,15
5,31,0,237
5,35,127,3
5,35,0,240
5,38,127,0
5,38,0,202
5,43,127,38
5,43,0,217
5,36,127,23
5,40,127,240
5,36,0,3
5,43,127,237
5,40,0,2
5,43,0,236
5,40,127,2
5,40,0,192
5,31,127,48
5,31,0,232
5,35,127,8
5,38,127,240
5,35,0,12
5,38,0,188
5,43,127,40
5,43,0,209
5,38,127,31
5,38,0,236
5,42,127,4
5,45,127,240
5,42,0,5
5,42,127,235
5,45,0,38
5,42,0,154
5,31,127,48
5,31,0,232
5,35,127,8
5,38,127,240
5,35,0,4
5,38,0,194
5,43,127,42
5,43,0,231
5,38,127,9
5,38,0,63
5,38,127,97
5,38,0,38
5,38,127,42
5,38,0,89
5,38,127,71
5,38,0,49
5,38,127,31
5,38,0,151
5,33,127,9
5,33,0,65
5,38,127,15
5,38,0,158
5,33,127,2
5,33,0,56
5,31,127,24
5,31,0,218
5,35,127,22
5,38,127,240
5,35,0,8
5,38,0,6
5,43,127,39
5,43,0,91
5,38,127,38
5,38,0,36
5,42,108,25
5,42,0,44
5,45,127,5
5,45,0,39
5,42,127,14
5,42,0,225
5,31,127,15
5,31,0,237
5,35,127,3
5,35,0,240
5,38,127,0
5,38,0,202
5,43,127,38
5,43,0,217
5,36,127,23
5,40,127,240
5,36,0,3
5,43,127,237
5,40,0,2
5,43,0,236
5,40,127,2
5,40,0,192
5,31,127,48
5,31,0,232
5,35,127,8
5,38,127,240
5,35,0,12
5,38,0,188
5,43,127,40
5,43,0,209
5,31,127,31
5,31,0,225
5,35,127,15
5,38,127,240
5,35,0,8
5,38,0,229
5,35,127,3
5,35,0,176
5,38,127,64
5,38,0,223
5,42,127,17
5,45,127,240
5,42,0,2
5,42,127,238
5,45,0,8
5,42,0,217
5,38,127,15
5,38,0,223
5,36,127,17
5,36,0,233
5,35,127,7
5,35,0,222
5,33,127,18
5,33,0,132
5,31,127,108
5,31,0,218
5,35,127,22
5,38,127,240
5,35,0,8
5,38,0,6
5,43,127,39
5,43,0,91
5,38,127,38
5,38,0,36
5,42,108,25
5,42,0,44
5,45,127,5
5,45,0,39
5,42,127,14
5,42,0,225
5,31,127,15
5,31,0,237
5,35,127,3
5,35,0,240
5,38,127,0
5,38,0,202
5,43,127,38
5,43,0,217
5,36,127,23
5,40,127,240
5,36,0,3
5,43,127,237
5,40,0,2
5,43,0,236
5,40,127,2
5,40,0,192
5,31,127,48
5,31,0,232
5,35,127,8
5,38,127,240
5,35,0,12
5,38,0,188
5,43,127,40
5,43,0,209
5,38,127,31
5,38,0,236
5,42,127,4
5,45,127,240
5,42,0,5
5,42,127,235
5,45,0,38
5,42,0,154
5,31,127,48
5,31,0,232
5,35,127,8
5,38,127,240
5,35,0,4
5,38,0,194
5,43,127,42
5,43,0,231
5,31,127,9
5,31,0,217
5,33,127,23
5,33,0,221
5,34,127,19
5,34,0,240
5,35,127,0
5,35,0,167
5,36,127,73
5,36,0,201
5,40,127,39
5,40,0,193
5,43,127,47
5,43,0,194
5,40,127,46
5,40,0,201
5,41,127,39
5,41,0,179
5,41,127,61
5,41,0,198
5,36,127,42
5,36,0,171
5,36,127,69
5,36,0,157
5,31,127,83
5,31,0,208
5,35,127,32
5,35,0,230
5,38,127,10
5,38,0,227
5,35,127,13
5,35,0,211
5,31,127,29
5,31,0,219
5,33,127,21
5,33,0,238
5,34,127,2
5,34,0,182
5,35,127,58
5,35,0,169
5,36,127,71
5,36,0,201
5,40,127,39
5,40,0,193
5,43,127,47
5,43,0,194
5,40,127,46
5,40,0,201
5,41,127,39
5,41,0,179
5,41,127,61
5,41,0,198
5,36,127,42
5,36,0,171
5,36,127,69
5,36,0,157
5,38,127,83
5,38,0,130
5,38,127,110
5,38,0,134
5,38,127,106
5,38,0,158
5,26,127,2
5,26,0,75
5,38,127,5
5,38,0,102
5,26,127,58
5,26,0,55
5,27,127,25
5,27,0,213
5,28,127,27
5,28,0,229
5,29,127,11
5,30,127,240
5,29,0,8
5,30,0,166
5,31,127,66
5,31,0,236
5,35,127,4
5,35,0,229
5,38,127,11
5,38,0,225
5,35,127,15
5,35,0,197
5,36,127,43
5,40,127,240
5,36,0,4
5,40,0,230
5,43,127,6
5,43,0,219
5,40,127,21
5,40,0,217
5,31,127,23
5,31,0,232
5,35,127,8
5,35,0,236
5,38,127,4
5,38,0,232
5,35,127,8
5,35,0,157
5,36,127,83
5,36,0,221
5,40,127,19
5,43,127,240
5,40,0,4
5,43,0,233
5,40,127,3
5,40,0,172
5,31,127,68
5,31,0,227
5,35,114,13
5,35,0,237
5,38,127,3
5,38,0,219
5,35,127,21
5,35,0,156
5,38,127,84
5,38,0,219
5,42,127,21
5,45,127,240
5,42,0,14
5,45,0,221
5,42,127,5
5,42,0,191
5,31,127,49
5,31,0,234
5,35,127,6
5,35,0,212
5,38,127,28
5,38,0,231
5,31,127,9
5,31,0,266
5,38,127,134
5,38,0,40
5,38,127,40
5,38,0,88
5,38,127,72
5,38,0,40
5,38,127,40
5,38,0,81
5,38,127,79
5,38,0,44
5,38,127,36
5,38,0,79
5,38,127,81
5,38,0,66
5,31,127,14
5,31,0,218
5,35,127,22
5,38,127,240
5,35,0,8
5,38,0,6
5,43,127,39
5,43,0,91
5,38,127,38
5,38,0,36
5,42,108,25
5,42,0,44
5,45,127,5
5,45,0,39
5,42,127,14
5,42,0,225
5,31,127,15
5,31,0,237
5,35,127,3
5,35,0,240
5,38,127,0
5,38,0,202
5,43,127,38
5,43,0,217
5,36,127,23
5,40,127,240
5,36,0,3
5,43,127,237
5,40,0,2
5,43,0,236
5,40,127,2
5,40,0,192
5,31,127,48
5,31,0,232
5,35,127,8
5,38,127,240
5,35,0,12
5,38,0,188
5,43,127,40
5,43,0,209
5,31,127,31
5,31,0,225
5,35,127,15
5,38,127,240
5,35,0,8
5,38,0,229
5,35,127,3
5,35,0,176
5,38,127,64
5,38,0,223
5,42,127,17
5,45,127,240
5,42,0,2
5,42,127,238
5,45,0,8
5,42,0,217
5,38,127,15
5,38,0,223
5,36,127,17
5,36,0,233
5,35,127,7
5,35,0,222
5,33,127,18
5,33,0,132
5,31,127,108
5,31,0,218
5,35,127,22
5,38,127,240
5,35,0,8
5,38,0,6
5,43,127,39
5,43,0,91
5,38,127,38
5,38,0,36
5,42,108,25
5,42,0,44
5,45,127,5
5,45,0,39
5,42,127,14
5,42,0,225
5,31,127,15
5,31,0,237
5,35,127,3
5,35,0,240
5,38,127,0
5,38,0,202
5,43,127,38
5,43,0,217
5,36,127,23
5,40,127,240
5,36,0,3
5,43,127,237
5,40,0,2
5,43,0,236
5,40,127,2
5,40,0,192
5,31,127,48
5,31,0,232
5,35,127,8
5,38,127,240
5,35,0,12
5,38,0,188
5,43,127,40
5,43,0,209
5,38,127,31
5,38,0,236
5,42,127,4
5,45,127,240
5,42,0,5
5,42,127,235
5,45,0,38
5,42,0,154
5,31,127,48
5,31,0,232
5,35,127,8
5,38,127,240
5,35,0,4
5,38,0,194
5,43,127,42
5,43,0,231
5,31,127,9
5,31,0,217
5,33,127,23
5,33,0,221
5,34,127,19
5,34,0,240
5,35,127,0
5,35,0,167
5,36,127,73
5,36,0,201
5,40,127,39
5,40,0,193
5,43,127,47
5,43,0,194
5,40,127,46
5,40,0,201
5,41,127,39
5,41,0,179
5,41,127,61
5,41,0,198
5,36,127,42
5,36,0,171
5,36,127,69
5,36,0,157
5,31,127,83
5,31,0,208
5,35,127,32
5,35,0,230
5,38,127,10
5,38,0,227
5,35,127,13
5,35,0,211
5,31,127,29
5,31,0,219
5,33,127,21
5,33,0,238
5,34,127,2
5,34,0,182
5,35,127,58
5,35,0,169
5,36,127,71
5,36,0,201
5,40,127,39
5,40,0,193
5,43,127,47
5,43,0,194
5,40,127,46
5,40,0,201
5,41,127,39
5,41,0,179
5,41,127,61
5,41,0,198
5,36,127,42
5,36,0,171
5,36,127,69
5,36,0,157
5,38,127,83
5,38,0,130
5,38,127,110
5,38,0,134
5,38,127,106
5,38,0,158
5,26,127,2
5,26,0,75
5,38,127,5
5,38,0,102
5,26,127,58
5,26,0,55
5,27,127,25
5,27,0,213
5,28,127,27
5,28,0,229
5,29,127,11
5,30,127,240
5,29,0,8
5,30,0,166
5,31,127,66
5,31,0,236
5,35,127,4
5,35,0,229
5,38,127,11
5,38,0,225
5,35,127,15
5,35,0,197
5,36,127,43
5,40,127,240
5,36,0,4
5,40,0,230
5,43,127,6
5,43,0,219
5,40,127,21
5,40,0,217
5,31,127,23
5,31,0,232
5,35,127,8
5,35,0,236
5,38,127,4
5,38,0,232
5,35,127,8
5,35,0,157
5,36,127,83
5,36,0,221
5,40,127,19
5,43,127,240
5,40,0,4
5,43,0,233
5,40,127,3
5,40,0,172
5,31,127,68
5,31,0,227
5,35,114,13
5,35,0,237
5,38,127,3
5,38,0,219
5,35,127,21
5,35,0,156
5,38,127,84
5,38,0,219
5,42,127,21
5,45,127,240
5,42,0,14
5,45,0,221
5,42,127,5
5,42,0,191
5,31,127,49
5,35,127,240
5,31,0,9
5,35,0,211
5,38,127,20
5,38,0,10
5,35,127,29
5,35,0,80
5,36,127,29
5,36,0,18
5,40,127,9
5,40,0,33
5,43,127,14
5,43,0,155
5,40,127,28
5,40,0,113
5,31,127,127
5,31,0,227
5,35,114,13
5,35,0,237
5,38,127,3
5,38,0,219
5,35,127,21
5,35,0,156
5,38,127,84
5,38,0,219
5,42,127,21
5,45,127,240
5,42,0,14
5,45,0,221
5,42,127,5
5,42,0,191
5,31,127,49
5,35,127,240
5,31,0,9
5,35,0,211
5,38,127,20
5,38,0,10
5,35,127,29
5,35,0,80
5,36,127,29
5,36,0,18
5,40,127,9
5,40,0,33
5,43,127,14
5,43,0,155
5,40,127,28
5,40,0,113
5,31,127,127
5,31,0,227
5,35,114,13
5,35,0,237
5,38,127,3
5,38,0,219
5,35,127,21
5,35,0,156
5,38,127,84
5,38,0,219
5,42,127,21
5,45,127,240
5,42,0,14
5,45,0,221
5,42,127,5
5,42,0,191
5,31,127,49
5,31,0,218
5,35,127,22
5,35,0,16
5,38,127,28
5,38,0,1
5,43,127,24
5,43,0,83
5,43,127,34
5,38,127,64
5,43,0,1
5,38,0,60
5,35,127,0
5,35,0,202
5,31,127,38
5,31,0,2331
6,43,127,1128
6,50,127,0
6,43,0,206
6,50,0,7
6,59,127,27
6,55,127,0
6,62,127,0
6,59,0,39
6,55,0,1
6,62,0,15
6,55,127,425
6,59,127,0
6,62,127,0
6,59,0,34
6,55,0,2
6,62,0,20
6,57,127,424
6,54,127,0
6,62,127,0
6,50,127,0
6,57,0,39
6,54,0,9
6,62,0,1
6,50,0,4
6,62,127,427
6,57,127,0
6,54,127,0
6,57,0,49
6,62,0,11
6,54,0,11
6,43,120,409
6,62,127,0
6,59,127,0
6,55,127,0
6,59,0,37
6,55,0,9
6,62,0,4
6,43,0,10
6,55,127,420
6,59,127,0
6,62,127,0
6,59,0,41
6,55,0,3
6,62,0,9
6,60,127,427
6,64,127,0
6,55,127,0
6,48,127,0
6,55,0,43
6,60,0,4
6,64,0,7
6,48,0,2
6,67,127,424
6,60,127,0
6,64,127,0
6,60,0,47
6,64,0,2
6,67,0,11
6,59,127,420
6,55,127,0
6,62,127,0
6,59,0,37
6,55,0,4
6,62,0,6
6,59,127,433
6,62,127,0
6,55,114,0
6,59,0,37
6,55,0,7
6,62,0,3
6,57,127,433
6,66,127,0
6,62,127,0
6,57,0,42
6,62,0,1
6,66,0,10
6,57,127,427
6,66,127,0
6,62,127,0
6,62,0,43
6,57,0,2
6,66,0,14
6,43,127,421
6,62,127,0
6,55,127,0
6,59,127,0
6,59,0,44
6,55,0,1
6,62,0,4
6,43,0,2
6,43,127,429
6,62,127,0
6,59,127,0
6,55,127,0
6,59,0,42
6,55,0,2
6,43,0,8
6,62,0,6
6,50,127,342
6,66,127,0
6,62,127,0
6,57,127,0
6,50,0,37
6,62,0,2
6,66,0,2
6,57,0,4
6,62,127,35
6,66,127,0
6,50,127,0
6,57,120,0
6,50,0,46
6,62,0,1
6,66,0,10
6,57,0,2
6,62,127,101
6,50,127,0
6,66,127,0
6,57,120,0
6,62,0,31
6,50,0,3
6,66,0,5
6,57,0,4
6,66,127,37
6,62,127,0
6,57,114,0
6,50,127,0
6,62,0,40
6,57,0,3
6,50,0,5
6,66,0,6
6,50,127,106
6,62,127,0
6,66,127,0
6,57,127,0
6,62,0,36
6,50,0,2
6,66,0,6
6,57,0,3
6,62,127,33
6,66,127,0
6,57,120,0
6,50,127,0
6,62,0,39
6,50,0,10
6,57,0,0
6,66,0,3
6,66,127,108
6,50,127,0
6,62,127,0
6,57,127,0
6,62,0,33
6,57,0,4
6,66,0,1
6,50,0,1
6,43,127,41
6,50,127,0
6,43,0,206
6,50,0,7
6,59,127,27
6,55,127,0
6,62,127,0
6,59,0,39
6,55,0,1
6,62,0,15
6,55,127,425
6,59,127,0
6,62,127,0
6,59,0,34
6,55,0,2
6,62,0,20
6,57,127,424
6,54,127,0
6,62,127,0
6,50,127,0
6,57,0,39
6,54,0,9
6,62,0,1
6,50,0,4
6,62,127,427
6,57,127,0
6,54,127,0
6,57,0,49
6,62,0,11
6,54,0,11
6,43,120,409
6,62,127,0
6,59,127,0
6,55,127,0
6,59,0,37
6,55,0,9
6,62,0,4
6,43,0,10
6,55,127,420
6,59,127,0
6,62,127,0
6,59,0,41
6,55,0,3
6,62,0,9
6,60,127,427
6,64,127,0
6,55,127,0
6,48,127,0
