track,note,velocity,time
0,38,114,165
0,49,65,0
0,35,105,0
0,62,82,1
0,66,67,0
0,57,67,1
0,78,64,0
0,74,70,0
0,50,82,1
0,57,115,0
0,62,115,1
0,66,103,2
0,38,95,18
0,44,74,0
0,35,75,0
0,40,69,0
0,57,96,1
0,62,115,1
0,66,90,1
0,44,106,43
0,39,95,0
0,57,115,1
0,62,115,1
0,66,115,1
0,66,115,4
0,62,115,0
0,57,104,2
0,38,112,6
0,44,64,0
0,38,64,0
0,57,62,0
0,62,84,1
0,57,49,7
0,62,90,1
0,38,82,0
0,73,70,1
0,61,95,3
0,30,115,2
0,44,82,0
0,35,72,0
0,49,106,1
0,66,106,1
0,54,107,0
0,57,109,0
0,61,104,1
0,38,100,21
0,66,74,0
0,44,60,1
0,35,90,0
0,40,72,0
0,61,89,1
0,54,97,1
0,57,92,1
0,49,100,2
0,44,116,0
0,39,97,0
0,54,115,1
0,66,54,1
0,57,115,0
0,61,115,1
0,66,115,3
0,61,106,1
0,30,115,1
0,44,64,0
0,38,95,0
0,66,75,1
0,57,75,0
0,66,77,2
0,57,49,1
0,38,86,0
0,54,51,1
0,59,82,1
0,62,95,0
0,31,114,1
0,67,90,0
0,44,67,0
0,35,116,0
0,62,72,1
0,50,110,0
0,74,64,0
0,55,111,1
0,71,78,0
0,59,115,1
0,67,82,2
0,38,100,19
0,44,57,0
0,40,66,0
0,55,66,1
0,59,108,1
0,62,104,2
0,67,81,1
0,59,111,0
0,44,116,0
0,39,95,0
0,62,115,1
0,55,115,0
0,50,73,0
0,67,58,1
0,67,115,2
0,62,115,1
0,59,97,1
0,55,87,0
0,50,55,2
0,50,50,0
0,31,110,0
0,44,60,0
0,38,100,0
0,59,85,0
0,62,79,0
0,67,59,2
0,67,86,5
0,62,50,1
0,59,76,0
0,35,50,0
0,38,95,0
0,64,49,1
0,73,60,1
0,52,90,1
0,33,115,0
0,76,70,0
0,44,82,0
0,35,82,0
0,61,86,1
0,61,101,1
0,69,67,0
0,64,106,2
0,69,92,1
0,38,95,19
0,52,48,0
0,57,74,0
0,44,95,0
0,35,110,0
0,40,68,0
0,61,95,1
0,64,84,1
0,69,75,2
0,64,97,1
0,44,108,0
0,39,95,0
0,69,102,1
0,57,111,0
0,61,98,2
0,38,100,1
0,69,104,2
0,64,103,1
0,33,117,0
0,44,90,0
0,38,82,0
0,69,92,1
0,52,54,0
0,57,66,1
0,61,102,0
0,52,38,2
0,69,49,0
0,61,72,1
0,38,106,0
0,50,59,1
0,78,60,0
0,74,78,0
0,57,87,1
0,38,115,0
0,62,95,0
0,44,110,0
0,35,116,0
0,62,115,1
0,57,57,1
0,66,114,1
0,66,74,0
0,38,90,21
0,66,75,2
0,57,82,0
0,44,64,0
0,40,65,0
0,62,105,1
0,57,115,1
0,62,115,1
0,44,108,0
0,39,105,0
0,66,97,1
0,66,104,0
0,38,95,0
0,62,82,1
0,66,81,1
0,38,114,0
0,44,78,0
0,38,62,0
0,62,75,1
0,62,51,12
0,35,64,0
0,38,95,0
0,57,64,1
0,66,48,0
0,61,95,2
0,73,74,1
0,61,94,1
0,30,115,0
0,44,82,0
0,35,95,0
0,38,95,0
0,49,61,1
0,54,82,0
0,57,104,1
0,66,103,1
0,38,95,21
0,61,108,0
0,44,70,0
0,35,116,0
0,40,65,0
0,66,85,1
0,54,107,1
0,44,113,0
0,39,105,0
0,66,115,0
0,57,115,0
0,61,115,1
0,66,111,1
0,38,95,1
0,61,102,1
0,57,79,1
0,66,47,1
0,30,112,0
0,44,74,0
0,38,64,0
0,61,97,1
0,49,42,1
0,38,105,2
0,66,81,0
0,49,38,0
0,62,95,0
0,67,90,0
0,59,55,1
0,74,60,0
0,50,74,1
0,31,115,0
0,71,64,0
0,44,78,0
0,35,95,0
0,55,102,1
0,59,97,0
0,62,114,2
0,67,103,2
0,38,90,18
0,44,64,0
0,40,66,0
0,55,76,1
0,59,103,2
0,62,108,1
0,67,77,1
0,44,117,0
0,39,105,0
0,59,115,1
0,62,115,1
0,67,115,1
0,38,95,0
0,67,114,1
0,55,49,1
0,31,109,0
0,44,78,0
0,38,70,0
0,59,66,1
0,62,83,1
0,67,70,0
0,50,44,1
0,55,44,3
0,62,51,0
0,35,49,0
0,38,116,0
0,67,102,1
0,64,78,0
0,76,70,0
0,73,70,1
0,52,61,2
0,33,107,0
0,69,70,0
0,61,86,0
0,44,82,0
0,35,110,0
0,57,81,1
0,61,101,1
0,64,100,1
0,69,80,2
0,38,104,19
0,57,52,0
0,44,78,0
0,35,100,0
0,40,67,0
0,69,51,0
0,61,107,0
0,64,102,1
0,44,122,0
0,39,105,0
0,57,91,1
0,69,108,1
0,61,115,0
0,64,115,1
0,38,100,20
0,69,115,0
0,64,109,1
0,61,85,0
0,64,100,1
0,69,82,0
0,33,105,0
0,44,82,0
0,38,86,0
0,52,39,1
0,38,99,4
0,69,54,1
0,64,69,0
0,57,69,0
0,62,85,2
0,38,114,0
0,49,56,0
0,35,105,0
0,66,60,1
0,62,75,0
0,57,60,1
0,50,75,1
0,57,108,0
0,62,108,1
0,66,96,2
0,38,95,18
0,74,83,1
0,44,74,0
0,35,75,0
0,40,70,0
0,57,89,1
0,62,108,1
0,66,83,1
0,44,106,43
0,39,67,0
0,57,108,1
0,62,108,1
0,66,108,1
0,66,108,4
0,62,108,0
0,57,97,2
0,38,112,6
0,44,64,0
0,38,64,0
0,57,55,0
0,62,77,1
0,57,42,5
0,62,83,1
0,38,82,0
0,73,83,2
0,61,88,7
0,30,108,2
0,44,82,0
0,35,72,0
0,49,99,1
0,66,99,1
0,54,100,0
0,57,102,0
0,61,97,1
0,38,100,21
0,66,67,0
0,44,60,1
0,35,90,0
0,40,66,0
0,61,82,1
0,54,90,1
0,57,85,1
0,49,93,2
0,44,116,0
0,39,78,0
0,54,108,1
0,66,47,1
0,57,108,0
0,61,108,1
0,66,108,3
0,61,99,1
0,30,115,1
0,44,64,0
0,38,95,0
0,66,68,1
0,57,68,0
0,66,70,2
0,57,42,1
0,38,86,0
0,54,44,1
0,62,88,4
0,59,75,0
0,31,114,1
0,67,83,0
0,44,67,0
0,35,116,0
0,62,65,1
0,50,103,0
0,55,104,1
0,59,108,1
0,67,75,2
0,38,100,19
0,44,57,0
0,40,66,0
0,55,59,1
0,59,101,1
0,62,97,2
0,67,74,1
0,74,78,0
0,59,104,0
0,44,116,0
0,39,86,0
0,62,108,1
0,55,108,0
0,50,66,0
0,67,51,1
0,67,108,2
0,62,108,1
0,59,90,1
0,55,80,0
0,50,48,2
0,50,43,0
0,31,110,0
0,74,71,0
0,44,60,0
0,38,100,0
0,59,78,0
0,62,72,0
0,67,52,2
0,67,79,5
0,62,43,1
0,59,69,0
0,35,50,0
0,38,95,0
0,76,71,2
0,64,42,1
0,52,83,2
0,33,115,0
0,44,82,0
0,35,82,0
0,61,79,1
0,61,94,1
0,69,60,0
0,64,99,2
0,69,85,1
0,38,95,19
0,73,81,3
0,52,41,0
0,57,67,0
0,44,95,0
0,35,110,0
0,40,67,0
0,61,88,1
0,64,77,1
0,69,68,2
0,71,81,3
0,64,90,1
0,44,122,0
0,39,95,0
0,69,95,1
0,57,104,0
0,61,91,2
0,38,100,1
0,69,97,2
0,64,96,1
0,69,85,0
0,33,112,0
0,44,90,0
0,38,82,0
0,69,85,1
0,52,47,0
0,57,59,1
0,61,95,0
0,52,31,2
0,69,42,0
0,61,65,1
0,38,122,0
0,50,52,1
0,57,80,2
0,38,112,0
0,62,88,0
0,44,110,0
0,35,116,0
0,62,108,1
0,69,85,0
0,57,50,1
0,66,107,1
0,66,67,0
0,38,90,21
0,66,68,1
0,57,75,0
0,44,64,0
0,40,66,0
0,62,98,1
0,74,85,0
0,57,108,1
0,62,108,1
0,44,122,0
0,39,105,0
0,66,90,1
0,66,97,0
0,38,95,0
0,62,75,1
0,66,74,1
0,38,114,0
0,44,78,0
0,38,24,0
0,62,68,1
0,62,44,12
0,35,64,0
0,38,95,0
0,57,57,1
0,66,41,0
0,73,81,2
0,61,88,1
0,61,87,2
0,30,115,0
0,44,82,0
0,35,95,0
0,38,95,0
0,49,54,1
0,54,75,0
0,57,97,1
0,66,96,1
0,38,95,21
0,61,101,0
0,44,70,0
0,35,116,0
0,40,65,0
0,66,78,1
0,54,100,1
0,44,122,0
0,39,105,0
0,66,108,0
0,57,108,0
0,61,108,1
0,66,104,1
0,38,95,1
0,61,95,1
0,57,72,1
0,66,40,1
0,30,112,0
0,44,74,0
0,38,52,0
0,61,90,1
0,49,35,1
0,38,105,2
0,66,74,0
0,49,31,0
0,67,83,0
0,62,88,0
0,59,48,1
0,50,67,1
0,31,115,0
0,44,78,0
0,35,95,0
0,55,95,1
0,59,90,0
0,62,107,2
0,67,96,2
0,38,90,18
0,44,64,0
0,40,70,0
0,55,69,1
0,59,96,2
0,62,101,1
0,67,70,1
0,44,115,0
0,39,105,0
0,74,85,0
0,59,108,1
0,62,108,1
0,67,108,1
0,38,95,0
0,67,107,1
0,55,42,1
0,31,109,0
0,74,85,0
0,44,78,0
0,38,70,0
0,59,59,1
0,62,76,1
0,67,63,0
0,50,37,1
0,55,37,3
0,62,44,0
0,35,49,0
0,38,116,0
0,67,95,1
0,76,87,2
0,64,71,0
0,52,54,3
0,33,107,0
0,69,63,0
0,61,79,0
0,44,82,0
0,35,110,0
0,57,74,1
0,61,94,1
0,64,93,1
0,69,73,2
0,38,116,19
0,73,80,5
0,57,45,0
0,44,78,0
0,35,100,0
0,40,71,0
0,69,44,0
0,61,100,0
0,64,95,1
0,71,81,5
0,44,111,0
0,39,105,0
0,57,84,1
0,69,101,1
0,61,108,0
0,64,108,1
0,38,100,20
0,69,108,0
0,64,102,1
0,69,81,3
0,64,93,1
0,69,75,0
0,33,105,0
0,44,82,0
0,38,86,0
0,52,32,1
0,69,87,4
0,38,122,0
0,69,47,1
0,64,62,0
0,57,62,0
0,38,114,0
0,49,58,0
0,35,105,0
0,66,60,1
0,62,75,0
0,57,60,1
0,50,75,1
0,57,108,0
0,62,108,1
0,66,96,2
0,38,95,18
0,74,85,0
0,44,74,0
0,35,75,0
0,40,66,0
0,57,89,1
0,62,108,1
0,66,83,1
0,44,106,43
0,39,67,0
0,57,108,1
0,62,108,1
0,66,108,1
0,66,108,4
0,62,108,0
0,57,97,2
0,38,112,6
0,44,64,0
0,38,64,0
0,57,55,0
0,62,77,1
0,57,42,7
0,62,83,1
0,38,82,0
0,61,88,5
0,73,85,1
0,30,115,1
0,44,82,0
0,35,72,0
0,49,99,1
0,66,99,1
0,54,100,0
0,57,102,0
0,61,97,1
0,38,100,21
0,66,67,0
0,44,60,1
0,35,90,0
0,40,69,0
0,61,82,1
0,54,90,1
0,57,85,1
0,49,93,2
0,44,116,0
0,39,78,0
0,54,108,1
0,66,47,1
0,57,108,0
0,61,108,1
0,66,108,3
0,61,99,1
0,30,115,1
0,44,64,0
0,38,95,0
0,66,68,1
0,57,68,0
0,66,70,2
0,57,42,1
0,38,86,0
0,54,44,1
0,62,88,4
0,59,75,0
0,31,114,1
0,67,83,0
0,44,67,0
0,35,116,0
0,62,65,1
0,50,103,0
0,55,104,1
0,59,108,1
0,67,75,2
0,38,100,19
0,44,57,0
0,40,71,0
0,55,59,1
0,59,101,1
0,62,97,2
0,67,74,1
0,74,85,1
0,59,104,0
0,44,116,0
0,39,86,0
0,62,108,1
0,55,108,0
0,50,66,0
0,67,51,1
0,67,108,2
0,62,108,1
0,59,90,1
0,55,80,0
0,50,48,1
0,74,81,2
0,50,43,0
0,31,110,0
0,44,60,0
0,38,100,0
0,59,78,0
0,62,72,0
0,67,52,2
0,67,79,5
0,62,43,1
0,59,69,0
0,76,81,0
0,35,50,0
0,38,95,0
0,64,42,1
0,52,83,2
0,33,115,0
0,44,82,0
0,35,82,0
0,61,79,1
0,61,94,1
0,69,60,0
0,64,99,2
0,69,85,1
0,38,95,19
0,52,41,0
0,76,81,0
0,57,67,0
0,44,95,0
0,35,110,0
0,40,67,0
0,61,88,1
0,64,77,1
0,69,68,2
0,79,79,8
0,64,90,1
0,44,122,0
0,39,95,0
0,69,95,1
0,57,104,0
0,61,91,2
0,38,100,1
0,69,97,2
0,64,96,1
0,79,79,1
0,33,117,0
0,44,90,0
0,38,82,0
0,69,85,1
0,52,47,0
0,57,59,1
0,61,95,0
0,52,31,2
0,69,42,0
0,61,65,1
0,78,75,0
0,38,122,0
0,50,52,1
0,57,80,2
0,38,112,0
0,66,71,0
0,62,71,0
0,57,75,0
0,44,110,0
0,35,116,0
0,62,108,1
0,50,52,1
0,66,107,1
0,76,66,2
0,38,90,4
0,74,75,1
0,66,68,2
0,57,75,0
0,44,64,0
0,40,72,0
0,62,98,1
0,57,108,1
0,62,108,1
0,44,122,0
0,39,105,0
0,66,90,1
0,66,97,0
0,38,95,0
0,62,75,1
0,66,74,1
0,38,109,0
0,44,78,0
0,38,24,0
0,62,68,1
0,69,72,2
0,62,44,12
0,35,64,0
0,38,95,0
0,57,57,1
0,66,41,0
0,71,71,0
0,54,65,1
0,59,75,0
0,59,94,2
0,47,65,0
0,35,112,0
0,44,82,0
0,35,95,0
0,38,95,0
0,62,107,1
0,66,93,1
0,38,95,22
0,44,70,0
0,35,116,0
0,40,69,0
0,66,43,0
0,59,98,0
0,54,63,0
0,62,97,2
0,44,122,0
0,39,105,0
0,59,108,0
0,62,108,1
0,66,108,1
0,38,95,1
0,66,99,1
0,59,80,3
0,35,115,0
0,44,74,0
0,38,52,0
0,62,80,0
0,66,68,1
0,47,48,1
0,54,65,2
0,62,64,0
0,59,63,1
0,66,55,0
0,38,105,0
0,67,73,1
0,50,67,1
0,31,112,0
0,44,78,0
0,35,95,0
0,55,95,1
0,59,90,0
0,62,107,2
0,67,96,2
0,38,90,18
0,44,64,0
0,40,67,0
0,55,69,1
0,59,96,2
0,62,101,1
0,67,70,1
0,44,127,0
0,39,105,0
0,59,108,1
0,74,83,0
0,62,108,1
0,67,108,1
0,38,95,0
0,67,107,1
0,55,42,1
0,31,110,0
0,74,81,0
0,44,78,0
0,38,70,0
0,59,59,1
0,62,76,1
0,67,63,0
0,50,37,1
0,55,37,3
0,62,44,0
0,35,49,0
0,38,116,0
0,67,95,1
0,76,81,0
0,52,54,3
0,33,107,0
0,69,73,0
0,44,82,0
0,35,110,0
0,57,74,1
0,64,53,0
0,61,94,1
0,61,83,0
0,64,93,1
0,69,73,2
0,38,116,19
0,76,81,10
0,57,45,0
0,44,78,0
0,35,100,0
0,40,70,0
0,69,44,0
0,61,100,0
0,64,95,1
0,79,81,11
0,44,122,0
0,39,105,0
0,57,84,1
0,69,101,1
0,61,108,0
0,64,108,1
0,38,100,20
0,69,108,0
0,64,102,1
0,79,83,11
0,64,93,1
0,69,75,0
0,33,105,0
0,44,82,0
0,38,86,0
0,52,32,1
0,78,85,3
0,38,122,1
0,69,54,1
0,64,69,0
0,57,69,0
0,57,80,6
0,38,112,0
0,66,71,0
0,62,71,0
0,57,75,0
0,49,69,0
0,35,105,0
0,62,108,1
0,50,52,1
0,66,107,1
0,76,85,0
0,38,95,1
0,74,85,1
0,66,68,1
0,57,75,0
0,44,74,0
0,35,75,0
0,40,70,0
0,62,98,1
0,57,108,1
0,62,108,1
0,44,106,0
0,39,67,0
0,66,90,1
0,66,97,0
0,62,75,2
0,66,74,1
0,38,109,0
0,44,64,0
0,38,64,0
0,69,85,1
0,62,68,1
0,62,44,12
0,38,82,0
0,57,57,1
0,66,41,0
0,54,65,1
0,59,75,0
0,59,94,2
0,47,65,0
0,35,112,0
0,71,80,0
0,44,82,0
0,35,72,0
0,62,107,1
0,66,93,1
0,38,100,22
0,44,60,0
0,35,90,0
0,40,67,0
0,66,43,0
0,59,98,0
0,54,63,0
0,62,97,2
0,44,116,0
0,39,78,0
0,59,108,0
0,62,108,1
0,66,108,1
0,66,99,3
0,59,80,3
0,35,115,0
0,44,64,0
