track,note,velocity,time
0,43,122,218
0,47,122,1
0,50,122,1
0,43,104,2
0,55,122,0
0,59,42,0
0,62,59,0
0,67,41,0
0,59,122,1
0,67,122,1
0,59,0,146
0,55,0,2
0,59,107,1
0,55,107,2
0,47,0,31
0,50,0,2
0,47,122,1
0,55,0,0
0,50,116,2
0,59,0,0
0,55,116,1
0,67,0,0
0,39,76,2
0,59,117,0
0,67,116,1
0,39,0,3
0,59,0,144
0,55,0,1
0,59,106,2
0,55,106,1
0,47,0,31
0,50,0,2
0,47,122,1
0,55,0,1
0,50,122,1
0,59,0,1
0,55,122,1
0,67,0,0
0,59,122,2
0,67,122,1
0,59,0,147
0,55,0,2
0,59,105,1
0,55,106,2
0,47,0,31
0,50,0,1
0,47,117,2
0,55,0,0
0,50,122,1
0,59,0,1
0,55,116,1
0,67,0,1
0,39,76,1
0,59,116,0
0,67,116,2
0,39,0,2
0,43,0,45
0,67,0,2
0,59,0,2
0,55,0,1
0,67,111,0
0,59,118,2
0,55,115,1
0,47,0,30
0,50,0,2
0,43,0,1
0,47,122,0
0,50,122,2
0,55,0,0
0,59,0,1
0,67,0,1
0,55,122,1
0,38,104,1
0,39,76,0
0,59,118,0
0,67,118,1
0,39,0,3
0,67,0,47
0,59,0,1
0,55,0,1
0,50,0,1
0,67,101,0
0,59,101,1
0,55,101,1
0,50,101,1
0,38,0,4
0,47,0,28
0,50,0,2
0,43,122,2
0,55,0,0
0,47,122,1
0,59,0,0
0,50,122,1
0,67,0,0
0,43,98,1
0,55,122,1
0,59,122,1
0,67,122,1
0,59,0,146
0,55,0,2
0,59,107,1
0,55,107,2
0,47,0,31
0,50,0,2
0,47,122,1
0,55,0,0
0,50,116,2
0,59,0,0
0,55,116,1
0,67,0,0
0,39,77,1
0,59,117,1
0,67,116,1
0,39,0,2
0,59,0,145
0,55,0,1
0,59,106,2
0,55,106,1
0,47,0,31
0,50,0,2
0,47,122,1
0,55,0,1
0,50,122,1
0,59,0,1
0,55,122,1
0,67,0,0
0,59,122,2
0,67,122,1
0,59,0,147
0,55,0,2
0,59,105,1
0,55,106,2
0,47,0,31
0,50,0,1
0,47,117,2
0,55,0,0
0,50,122,1
0,59,0,1
0,55,116,1
0,39,79,1
0,59,97,0
0,67,0,0
0,71,118,0
0,59,116,1
0,67,116,2
0,39,0,1
0,67,0,48
0,59,0,2
0,55,0,1
0,67,111,0
0,59,118,2
0,55,115,1
0,47,0,30
0,50,0,2
0,43,0,1
0,47,122,0
0,59,0,1
0,71,0,0
0,50,122,1
0,55,0,0
0,59,0,1
0,67,0,1
0,39,78,1
0,55,122,0
0,60,94,0
0,72,117,0
0,59,118,1
0,67,118,1
0,39,0,2
0,67,0,48
0,59,0,1
0,55,0,1
0,50,0,1
0,67,101,0
0,59,101,1
0,55,101,1
0,50,101,1
0,43,0,8
0,47,0,24
0,50,0,2
0,59,0,0
0,60,0,0
0,62,0,0
0,67,0,0
0,43,122,2
0,55,0,0
0,47,122,1
0,59,0,0
0,72,0,0
0,31,106,1
0,50,122,0
0,55,75,0
0,62,42,0
0,62,93,0
0,67,41,0
0,67,0,0
0,71,44,0
0,74,122,0
0,55,122,2
0,59,122,1
0,67,122,1
0,62,0,48
0,74,0,3
0,61,92,1
0,73,121,0
0,61,0,36
0,73,0,3
0,62,91,1
0,74,121,0
0,62,0,52
0,59,0,2
0,74,0,1
0,55,0,1
0,61,90,0
0,73,120,0
0,59,107,1
0,55,107,2
0,47,0,31
0,50,0,2
0,61,0,0
0,47,122,1
0,55,0,0
0,50,116,2
0,59,0,0
0,73,0,0
0,39,76,1
0,55,106,0
0,62,92,0
0,67,0,0
0,74,119,0
0,59,117,2
0,67,116,1
0,39,0,1
0,62,0,88
0,74,0,1
0,61,89,3
0,73,118,0
0,73,0,55
0,74,117,1
0,47,0,33
0,50,0,2
0,47,122,1
0,55,0,0
0,61,0,0
0,50,122,2
0,59,0,0
0,55,122,2
0,62,90,0
0,67,0,0
0,59,122,2
0,67,122,1
0,55,0,89
0,57,75,4
0,59,0,54
0,55,0,2
0,59,105,1
0,55,106,2
0,74,0,0
0,47,0,31
0,50,0,1
0,57,0,1
0,47,117,1
0,55,0,0
0,50,122,1
0,59,0,1
0,39,76,1
0,55,116,0
0,59,76,0
0,67,0,1
0,59,116,1
0,39,0,2
0,67,116,0
0,62,0,7
0,47,0,78
0,50,0,2
0,43,0,1
0,47,122,0
0,59,0,0
0,50,122,2
0,55,0,0
0,59,0,0
0,67,0,1
0,39,76,1
0,55,77,0
0,74,120,0
0,55,122,1
0,59,118,1
0,67,118,1
0,39,0,1
0,55,0,84
0,50,0,1
0,59,0,1
0,47,0,1
0,55,0,1
0,67,0,0
0,67,0,0
0,71,0,0
0,45,122,2
0,31,0,1
0,50,122,0
0,74,0,0
0,38,109,1
0,57,76,0
0,66,44,0
0,69,43,0
0,76,121,0
0,57,122,1
0,62,122,1
0,66,122,1
0,45,0,182
0,50,0,2
0,45,122,1
0,57,0,0
0,62,0,1
0,50,116,1
0,57,116,1
0,66,0,0
0,76,0,0
0,39,77,1
0,74,114,0
0,62,117,1
0,66,116,1
0,39,0,2
0,57,0,88
0,55,76,4
0,45,0,88
0,50,0,2
0,45,122,1
0,57,0,0
0,55,0,1
0,50,122,1
0,62,0,0
0,57,122,2
0,66,0,0
0,54,78,1
0,62,122,1
0,66,122,1
0,74,0,3
0,54,0,87
0,55,78,4
0,62,0,53
0,57,0,2
0,62,105,1
0,57,106,2
0,45,0,31
0,50,0,1
0,45,117,2
0,55,0,0
0,57,0,0
0,50,122,1
0,62,0,1
0,57,116,1
0,39,79,1
0,57,78,0
0,66,0,0
0,62,116,1
0,66,116,2
0,39,0,1
0,66,0,48
0,62,0,2
0,57,0,1
0,66,111,0
0,62,118,2
0,57,115,1
0,38,0,20
0,45,0,10
0,50,0,2
0,45,122,1
0,57,0,1
0,50,122,1
0,57,0,0
0,62,0,1
0,66,0,1
0,38,109,1
0,39,78,0
0,54,77,0
0,57,122,0
0,62,118,1
0,66,118,1
0,39,0,2
0,66,0,48
0,62,0,1
0,57,0,1
0,50,0,0
0,66,101,0
0,62,101,1
0,74,121,0
0,57,101,1
0,50,101,1
0,45,0,6
0,43,122,2
0,50,0,0
0,54,0,0
0,62,0,0
0,66,0,0
0,69,0,0
0,48,122,2
0,57,0,0
0,38,0,1
0,52,122,0
0,62,0,0
0,74,0,0
0,36,109,1
0,55,76,0
0,55,122,0
0,62,98,0
0,64,41,0
0,64,122,0
0,66,0,0
0,67,41,0
0,72,45,0
0,74,121,0
0,60,122,1
0,62,0,51
0,74,0,1
0,60,94,3
0,72,120,0
0,72,0,34
0,60,0,2
0,59,98,4
0,71,118,0
0,59,0,52
0,60,0,0
0,55,0,1
0,60,107,2
0,71,0,0
0,55,107,1
0,60,97,0
0,72,119,0
0,48,0,32
0,52,0,2
0,48,122,1
0,55,0,1
0,52,116,1
0,60,0,0
0,55,117,2
0,64,0,0
0,39,76,1
0,60,117,0
0,64,116,2
0,39,0,2
0,60,0,40
0,67,92,4
0,72,0,0
0,79,121,8
0,79,0,95
0,72,118,1
0,48,0,30
0,48,122,3
0,52,0,0
0,55,0,2
0,52,122,1
0,67,0,0
0,60,0,1
0,55,122,1
0,64,0,1
0,60,94,1
0,60,122,0
0,64,122,2
0,72,0,140
0,60,0,9
0,48,0,29
0,60,0,1
0,52,0,3
0,50,117,1
0,55,0,0
0,43,0,1
0,54,122,1
0,55,0,1
0,64,0,0
0,64,0,0
0,67,0,0
0,72,0,0
0,57,116,1
0,36,0,2
0,38,109,1
0,38,89,0
0,39,76,0
0,57,77,0
0,62,124,0
0,66,45,0
0,69,43,0
0,74,45,0
0,74,119,0
0,66,116,1
0,39,0,3
0,50,0,84
0,54,0,1
0,74,0,0
0,50,106,2
0,57,0,0
0,54,106,1
0,62,0,1
0,57,106,1
0,66,0,0
0,39,76,2
0,62,122,0
0,72,116,0
0,66,106,1
0,39,0,3
0,72,0,51
0,71,115,1
0,54,0,30
0,66,0,0
0,57,0,1
0,62,0,0
0,50,0,3
0,43,122,1
0,38,0,1
0,57,0,0
0,66,0,0
0,69,0,0
0,74,0,0
0,47,122,1
0,50,122,1
0,38,0,1
0,55,122,0
0,31,89,1
0,43,109,0
0,43,89,0
0,55,76,0
0,59,122,0
0,62,61,0
0,67,44,0
0,71,44,0
0,67,122,2
0,47,0,181
0,71,0,0
0,50,0,2
0,47,122,1
0,55,0,1
0,50,116,1
0,59,0,1
0,55,116,1
0,67,0,1
0,39,77,1
0,59,117,0
0,67,116,2
0,39,0,2
0,50,0,179
0,47,0,1
0,55,0,0
0,50,122,2
0,59,0,1
0,31,0,1
0,43,0,0
0,54,122,0
0,55,0,0
0,67,0,0
0,71,0,0
0,67,0,1
0,43,0,2
0,57,122,0
0,26,89,1
0,38,109,0
0,38,90,0
0,54,75,0
0,62,122,0
0,66,45,0
0,69,44,0
0,66,122,2
0,62,0,146
0,57,0,2
0,62,105,1
0,57,106,2
0,50,0,29
0,54,0,1
0,43,0,2
0,50,117,0
0,57,0,0
0,54,122,1
0,57,116,2
0,62,0,0
0,66,0,2
0,62,116,1
0,39,79,1
0,59,97,0
0,71,121,0
0,66,116,1
0,39,0,3
0,66,0,46
0,62,0,2
0,57,0,2
0,66,111,0
0,62,118,1
0,57,115,2
0,50,0,29
0,54,0,2
0,50,122,1
0,57,0,0
0,54,122,2
0,57,122,1
0,59,0,0
0,62,0,0
0,71,0,0
0,66,0,2
0,38,0,1
0,62,118,0
0,39,78,1
0,40,95,0
0,60,94,0
0,72,123,0
0,66,118,1
0,39,0,3
0,62,0,47
0,57,0,1
0,54,0,1
0,62,101,1
0,66,0,0
0,57,101,1
0,54,101,1
0,66,101,1
0,26,0,35
0,38,0,0
0,54,0,0
0,60,0,0
0,62,0,0
0,66,0,0
0,69,0,0
0,50,0,1
0,43,122,1
0,66,0,0
0,40,0,1
0,47,122,0
0,72,0,0
0,31,90,1
0,43,109,0
0,50,122,0
0,54,0,0
0,55,75,0
0,57,0,0
0,62,42,0
0,62,93,0
0,62,0,0
0,67,41,0
0,71,44,0
0,74,120,0
0,55,122,2
0,59,122,1
0,67,122,1
0,62,0,48
0,74,0,3
0,61,92,1
0,73,120,0
0,61,0,36
0,73,0,3
0,62,91,1
0,74,121,0
0,74,0,49
0,62,0,3
0,59,0,2
0,55,0,2
0,61,90,0
0,73,120,0
0,59,107,1
0,55,107,2
0,47,0,31
0,73,0,1
0,50,0,1
0,61,0,0
0,47,122,1
0,55,0,0
0,50,116,2
0,59,0,0
0,39,76,1
0,55,106,0
0,62,92,0
0,67,0,0
0,74,120,0
0,59,117,2
0,67,116,1
0,39,0,1
0,74,0,87
0,62,0,1
0,61,89,4
0,73,119,0
0,73,0,46
0,74,119,10
0,47,0,33
0,50,0,2
0,47,122,1
0,55,0,0
0,61,0,0
0,50,122,2
0,59,0,0
0,55,122,2
0,62,90,0
0,67,0,0
0,59,122,2
0,67,122,1
0,74,0,38
0,74,110,15
0,55,0,36
0,74,0,3
0,57,75,1
0,71,114,0
0,59,0,54
0,55,0,2
0,59,105,1
0,55,106,2
0,47,0,31
0,50,0,1
0,57,0,1
0,47,117,1
0,55,0,0
0,50,122,1
0,59,0,1
0,39,76,1
0,55,116,0
0,59,76,0
0,67,0,1
0,59,116,1
0,71,0,1
0,39,0,1
0,67,116,0
0,62,0,7
0,47,0,78
0,50,0,2
0,43,0,1
0,47,122,0
0,59,0,0
0,50,122,2
0,55,0,0
0,59,0,0
0,67,0,1
0,39,76,1
0,55,77,0
0,74,121,0
0,55,122,1
0,59,118,1
0,67,118,1
0,39,0,1
0,31,0,79
0,55,0,5
0,50,0,1
0,59,0,1
0,74,0,0
0,47,0,1
0,55,0,1
0,67,0,0
0,67,0,0
0,71,0,0
0,45,122,2
0,43,0,1
0,50,122,0
0,26,89,1
0,38,109,0
0,38,89,0
0,57,76,0
0,66,44,0
0,69,43,0
0,76,121,0
0,57,122,1
0,62,122,1
0,66,122,1
0,45,0,182
0,50,0,2
0,45,122,1
0,57,0,0
0,62,0,1
0,50,116,1
0,57,116,1
0,66,0,0
0,76,0,0
0,39,77,1
0,74,122,0
0,62,117,1
0,66,116,1
0,39,0,2
0,57,0,88
0,55,76,4
0,74,0,34
0,45,0,54
0,50,0,2
0,45,122,1
0,57,0,0
0,55,0,1
0,50,122,1
0,62,0,0
0,57,122,2
0,66,0,0
0,54,78,1
0,62,122,1
0,66,122,1
0,54,0,90
0,38,0,3
0,55,78,1
0,26,0,44
0,38,0,0
0,26,90,4
0,38,89,0
0,50,109,0
0,62,0,5
0,57,0,2
0,62,105,1
0,57,106,2
0,45,0,31
0,50,0,1
0,45,117,2
0,55,0,0
0,57,0,0
0,50,122,1
0,62,0,1
0,57,116,1
0,39,79,1
0,57,78,0
0,66,0,0
0,62,116,1
0,66,116,2
0,39,0,1
0,50,0,43
0,38,109,1
0,66,0,4
0,62,0,2
0,57,0,1
0,66,111,0
0,62,118,2
0,57,115,1
0,45,0,30
0,50,0,2
0,45,122,1
0,57,0,1
0,50,122,1
0,57,0,0
0,62,0,1
0,38,0,1
0,66,0,0
0,38,109,1
0,39,78,0
0,54,77,0
0,57,122,0
0,62,118,1
0,66,118,1
0,39,0,2
0,66,0,48
0,62,0,1
0,57,0,1
0,50,0,1
0,66,101,0
0,62,101,1
0,74,119,0
0,57,101,1
0,50,101,1
0,74,0,27
0,45,0,5
0,26,0,2
0,38,0,0
0,43,122,0
0,50,0,0
0,54,0,0
0,62,0,0
0,66,0,0
0,69,0,0
0,48,122,2
0,57,0,0
0,38,0,1
0,52,122,0
0,62,0,0
0,36,109,1
0,36,90,0
0,55,76,0
0,55,122,0
0,62,98,0
0,64,41,0
0,64,122,0
0,66,0,0
0,67,41,0
0,72,45,0
0,74,117,0
0,60,122,1
0,62,0,51
0,74,0,3
0,60,94,1
0,72,120,0
0,60,0,36
0,72,0,3
0,59,98,1
0,71,119,0
0,59,0,52
0,60,0,0
0,71,0,0
0,55,0,1
0,60,107,2
0,55,107,1
0,60,97,0
0,72,118,0
0,48,0,32
0,52,0,2
0,48,122,1
0,55,0,1
0,52,116,1
0,60,0,0
0,55,117,2
0,64,0,0
0,39,76,1
0,60,117,0
0,64,116,2
0,39,0,2
0,60,0,40
0,67,92,4
0,72,0,0
0,79,118,8
0,79,0,95
0,72,118,1
0,48,0,30
0,48,122,3
0,52,0,0
0,55,0,2
0,52,122,1
0,67,0,0
0,60,0,1
0,55,122,1
0,36,0,1
0,64,0,0
0,36,109,1
0,60,94,0
0,60,122,0
0,64,122,2
0,72,0,126
0,36,0,15
0,36,109,1
0,60,0,7
0,48,0,29
0,60,0,1
0,52,0,3
0,50,117,1
0,55,0,0
0,43,0,1
0,54,122,1
0,55,0,1
0,64,0,0
0,64,0,0
0,67,0,0
0,72,0,0
0,57,116,1
0,36,0,2
0,26,91,1
0,36,0,0
0,38,109,0
0,39,76,0
0,57,77,0
0,62,124,0
0,66,45,0
0,69,43,0
0,74,45,0
0,74,119,0
0,66,116,1
0,39,0,3
0,50,0,84
0,54,0,1
0,50,106,2
0,57,0,0
0,54,106,1
0,62,0,1
0,57,106,1
0,66,0,0
0,74,0,1
0,39,76,1
0,62,122,0
0,72,119,0
0,66,106,1
0,39,0,3
0,72,0,50
0,71,117,2
0,54,0,30
0,66,0,0
0,57,0,1
0,62,0,0
0,50,0,3
0,43,122,1
0,26,0,1
0,57,0,0
0,66,0,0
0,69,0,0
0,74,0,0
0,47,122,1
0,50,122,1
0,38,0,1
0,55,122,0
0,31,91,1
0,43,109,0
0,43,91,0
0,55,76,0
0,59,122,0
0,62,61,0
0,67,44,0
0,71,44,0
0,67,122,2
0,71,0,122
0,47,0,59
0,50,0,2
0,47,122,1
0,55,0,1
0,50,116,1
0,59,0,1
0,55,116,1
0,67,0,1
0,39,77,1
0,59,117,0
0,67,116,2
