track,note,velocity,time
1,38,94,7000
1,38,0,710
1,43,94,58
1,43,0,363
1,45,94,21
1,45,0,6
1,38,94,2
1,38,0,710
1,43,94,58
1,43,0,363
1,45,94,21
1,45,0,10
1,38,94,2
1,38,0,536
1,37,94,40
1,37,0,112
1,35,94,16
1,35,0,232
1,33,94,24
1,33,0,111
1,32,94,17
1,32,0,243
1,28,94,13
1,28,0,108
1,33,94,20
1,33,0,717
1,33,94,51
1,33,0,15
1,33,94,49
1,33,0,742
1,38,94,26
1,38,0,635
1,33,94,5
1,33,0,51
1,32,94,13
1,32,0,52
1,31,94,12
1,31,0,336
1,33,94,48
1,33,0,279
1,37,94,41
1,37,0,59
1,38,94,5
1,38,0,597
1,38,94,43
1,38,0,47
1,42,94,17
1,42,0,63
1,43,94,1
1,43,0,135
1,43,94,57
1,43,0,25
1,43,94,39
1,43,0,62
1,44,94,2
1,44,0,63
1,45,94,1
1,45,0,305
1,50,94,79
1,50,0,560
1,49,94,16
1,49,0,102
1,47,94,26
1,47,0,237
1,45,94,19
1,45,0,115
1,44,94,13
1,44,0,253
1,40,94,3
1,40,0,108
1,45,94,20
1,45,0,255
1,41,94,1
1,41,0,119
1,46,94,9
1,46,0,213
1,42,94,43
1,42,0,127
1,47,94,1
1,47,0,342
1,42,94,42
1,42,0,51
1,35,94,13
1,35,0,159
1,33,94,33
1,33,0,39
1,35,94,25
1,35,0,45
1,33,94,19
1,33,0,50
1,31,94,14
1,31,0,282
1,38,94,38
1,38,0,61
1,31,94,3
1,31,0,189
1,32,94,3
1,32,0,85
1,32,94,43
1,32,0,62
1,33,94,2
1,33,0,94
1,38,94,34
1,38,0,48
1,30,94,16
1,30,0,191
1,31,94,1
1,31,0,183
1,32,94,9
1,32,0,110
1,33,94,18
1,33,0,28
1,31,94,36
1,31,0,282
1,38,94,38
1,38,0,61
1,31,94,3
1,31,0,189
1,32,94,3
1,32,0,85
1,32,94,43
1,32,0,62
1,33,94,2
1,33,0,99
1,38,94,29
1,38,0,48
1,37,94,16
1,37,0,191
1,35,94,1
1,35,0,183
1,33,94,9
1,33,0,110
1,33,94,18
1,33,0,28
1,31,94,36
1,31,0,287
1,38,94,33
1,38,0,61
1,31,94,3
1,31,0,189
1,32,94,3
1,32,0,85
1,32,94,43
1,32,0,62
1,33,94,2
1,33,0,261
1,33,94,59
1,33,0,63
1,45,94,1
1,45,0,342
1,46,94,42
1,46,0,721
1,47,94,47
1,47,0,746
1,45,94,22
1,45,0,1515
1,38,94,21
1,38,0,710
1,43,94,58
1,43,0,363
1,45,94,21
1,45,0,6
1,38,94,2
1,38,0,710
1,43,94,58
1,43,0,363
1,45,94,21
1,45,0,10
1,38,94,2
1,38,0,710
1,43,94,58
1,43,0,363
1,45,94,21
1,45,0,6
1,38,94,2
1,38,0,710
1,43,94,58
1,43,0,363
1,45,94,21
1,45,0,10
1,38,94,2
1,38,0,710
1,43,94,58
1,43,0,363
1,45,94,21
1,45,0,6
1,50,94,2
1,50,0,560
1,49,94,16
1,49,0,102
1,47,94,26
1,47,0,237
1,45,94,19
1,45,0,115
1,44,94,13
1,44,0,253
1,40,94,3
1,40,0,108
1,45,94,20
1,45,0,255
1,41,94,1
1,41,0,119
1,46,94,9
1,46,0,213
1,42,94,43
1,42,0,127
1,47,94,1
1,47,0,342
1,42,94,42
1,42,0,51
1,35,94,13
1,35,0,159
1,33,94,33
1,33,0,39
1,35,94,25
1,35,0,45
1,33,94,19
1,33,0,50
1,31,94,14
1,31,0,282
1,38,94,38
1,38,0,61
1,31,94,3
1,31,0,189
1,32,94,3
1,32,0,85
1,32,94,43
1,32,0,62
1,33,94,2
1,33,0,94
1,38,94,34
1,38,0,48
1,37,94,16
1,37,0,191
1,35,94,1
1,35,0,183
1,33,94,9
1,33,0,110
1,30,94,18
1,30,0,28
1,31,94,36
1,31,0,282
1,38,94,38
1,38,0,61
1,30,94,3
1,30,0,189
1,31,94,3
1,31,0,85
1,32,94,43
1,32,0,62
1,33,94,2
1,33,0,99
1,38,94,29
1,38,0,48
1,37,94,16
1,37,0,191
1,35,94,1
1,35,0,183
1,33,94,9
1,33,0,110
1,33,94,18
1,33,0,28
1,31,94,36
1,31,0,287
1,38,94,33
1,38,0,61
1,31,94,3
1,31,0,189
1,32,94,3
1,32,0,85
1,32,94,43
1,32,0,62
1,33,94,2
1,33,0,261
1,33,94,59
1,33,0,63
1,45,94,1
1,45,0,342
1,46,94,42
1,46,0,721
1,47,94,47
1,47,0,746
1,45,94,22
1,45,0,1515
1,38,94,21
1,38,0,710
1,43,94,58
1,43,0,363
1,45,94,21
1,45,0,6
1,38,94,2
1,38,0,710
1,43,94,58
1,43,0,363
1,45,94,21
1,45,0,10
1,38,94,2
1,38,0,536
1,37,94,40
1,37,0,112
1,35,94,16
1,35,0,232
1,33,94,24
1,33,0,111
1,32,94,17
1,32,0,243
1,28,94,13
1,28,0,108
1,33,94,20
1,33,0,8
1,37,94,1
1,37,0,138
1,40,94,1
1,40,0,127
1,45,94,1
1,45,0,201
1,45,94,30
1,45,0,125
1,33,94,3
1,33,0,61
1,38,94,3
1,38,0,702
1,43,94,66
1,43,0,221
1,43,94,35
1,43,0,54
1,44,94,10
1,44,0,48
1,45,94,16
1,45,0,62
1,40,94,2
1,40,0,126
1,33,94,2
1,33,0,171
1,38,94,21
1,38,0,619
1,38,94,85
1,38,0,58
1,43,94,6
1,43,0,232
1,43,94,24
1,43,0,50
1,44,94,14
1,44,0,39
1,45,94,25
1,45,0,63
1,40,94,1
1,40,0,108
1,33,94,20
1,33,0,151
1,50,94,41
1,50,0,560
1,49,94,16
1,49,0,102
1,47,94,26
1,47,0,237
1,45,94,19
1,45,0,115
1,44,94,13
1,44,0,253
1,40,94,3
1,40,0,108
1,45,94,20
1,45,0,255
1,41,94,1
1,41,0,119
1,46,94,9
1,46,0,213
1,42,94,43
1,42,0,127
1,47,94,1
1,47,0,342
1,42,94,42
1,42,0,51
1,35,94,13
1,35,0,159
1,33,94,33
1,33,0,39
1,35,94,25
1,35,0,45
1,33,94,19
1,33,0,50
1,31,94,14
1,31,0,282
1,38,94,38
1,38,0,61
1,31,94,3
1,31,0,189
1,32,94,3
1,32,0,85
1,32,94,43
1,32,0,62
1,33,94,2
1,33,0,94
1,38,94,34
1,38,0,48
1,37,94,16
1,37,0,191
1,35,94,1
1,35,0,183
1,33,94,9
1,33,0,110
1,30,94,18
1,30,0,28
1,31,94,36
1,31,0,282
1,38,94,38
1,38,0,61
1,30,94,3
1,30,0,189
1,31,94,3
1,31,0,85
1,32,94,43
1,32,0,62
1,33,94,2
1,33,0,99
1,38,94,29
1,38,0,48
1,37,94,16
1,37,0,191
1,35,94,1
1,35,0,183
1,33,94,9
1,33,0,110
1,33,94,18
1,33,0,28
1,31,94,36
1,31,0,287
1,38,94,33
1,38,0,61
1,31,94,3
1,31,0,189
1,32,94,3
1,32,0,85
1,32,94,43
1,32,0,62
1,33,94,2
1,33,0,261
1,33,94,59
1,33,0,63
1,45,94,1
1,45,0,342
1,46,94,42
1,46,0,721
1,47,94,47
1,47,0,746
1,45,94,22
1,45,0,1515
1,38,94,21
1,38,0,38
1,43,94,58
1,43,0,27
1,45,94,21
1,45,0,6
1,38,94,2
1,38,0,566
1,43,94,58
1,43,0,363
1,45,94,21
1,45,0,10
1,38,94,2
1,38,0,470
1,43,94,58
1,43,0,315
1,45,94,21
1,45,0,6
1,50,94,2
1,50,0,63
1,45,94,1
1,45,0,58
1,38,94,6
1,38,0,138
1,33,94,32
1,33,0,9
1,38,94,55
1,38,0,247
1,33,94,9
1,33,0,34
1,32,94,30
1,32,0,7
1,31,94,41
1,31,0,191
1,31,94,65
1,31,0,16
1,32,94,48
1,32,0,26
1,33,94,38
1,33,0,137
1,35,94,48
1,35,0,29
1,36,94,35
1,36,0,32
1,37,94,32
1,37,0,31
1,38,94,33
1,38,0,228
1,33,94,92
1,33,0,35
1,38,94,29
1,38,0,204
1,38,94,52
1,38,0,42
1,42,94,22
1,42,0,26
1,43,94,38
1,43,0,129
1,40,94,63
1,40,0,62
1,43,94,2
1,43,0,33
1,44,94,31
1,44,0,30
1,45,94,34
1,45,0,63
1,40,94,1
1,40,0,26
1,45,94,38
1,45,0,40
1,33,94,24
1,33,0,106
1,38,109,38
1,38,0,71
1,33,86,57
1,33,0,46
1,38,109,18
1,38,0,19
1,33,100,61
1,33,0,48
1,38,97,16
1,38,0,112
1,42,90,16
1,42,0,43
1,43,82,21
1,43,0,17
1,40,106,79
1,40,0,41
1,43,95,23
1,43,0,53
1,44,100,11
1,44,0,33
1,45,100,31
1,45,0,123
1,40,103,5
1,40,0,19
1,33,100,13
1,33,0,47
1,38,103,17
1,38,0,98
1,33,92,30
1,33,0,39
1,38,103,25
1,38,0,98
1,33,95,30
1,33,0,30
1,38,106,34
1,38,0,88
1,33,95,24
1,33,0,50
1,32,100,14
1,32,0,44
1,31,100,20
1,31,0,3
1,38,97,45
1,38,0,122
1,31,92,6
1,31,0,48
1,33,100,16
1,33,0,193
1,33,95,1
1,33,0,60
1,38,97,130
1,38,0,65
1,33,79,63
1,33,0,58
1,38,100,6
1,38,0,191
1,45,103,1
1,45,0,191
1,50,92,1
1,50,0,127
1,38,103,1
1,38,0,52
1,43,100,12
1,43,0,174
1,40,95,18
1,40,0,40
1,43,100,16
1,43,0,60
1,44,90,4
1,44,0,46
1,45,92,18
1,45,0,115
1,40,103,13
1,40,0,127
1,33,97,1
1,33,0,105
1,38,94,23
1,38,0,57
1,38,94,71
1,38,0,63
1,42,94,1
1,42,0,189
1,31,94,3
1,31,0,191
1,32,94,1
1,32,0,125
1,33,94,3
1,33,0,63
1,31,94,1
1,31,0,189
1,38,94,3
1,38,0,62
1,31,94,2
1,31,0,63
1,32,94,1
1,32,0,63
1,33,94,1
1,33,0,190
1,37,94,2
1,37,0,185
1,38,94,7
1,38,0,120
1,47,94,8
1,47,0,63
1,46,94,1
1,46,0,123
1,38,94,5
1,38,0,63
1,45,94,1
1,45,0,151
1,38,94,41
1,38,0,54
1,45,94,10
1,45,0,63
1,44,94,1
1,44,0,54
1,43,94,10
1,43,0,191
1,40,94,1
1,40,0,57
1,43,94,7
1,43,0,62
1,44,94,2
1,44,0,60
1,45,94,4
1,45,0,125
1,40,94,3
1,40,0,63
1,33,94,1
1,33,0,154
1,38,94,38
1,38,0,308
1,33,94,12
1,33,0,58
1,38,94,6
1,38,0,49
1,33,94,15
1,33,0,19
1,38,94,45
1,38,0,191
1,42,94,1
1,42,0,63
1,43,94,1
1,43,0,217
1,43,94,39
1,43,0,53
1,44,94,11
1,44,0,55
1,45,94,9
1,45,0,362
1,43,94,22
1,43,0,575
1,55,94,1
1,55,0,7
1,50,94,1
1,50,0,2
1,45,94,7
1,45,0,28
1,38,94,1
1,38,0,968
2,33,29,5726
2,45,40,0
2,55,42,0
2,59,42,0
2,62,50,0
2,62,0,141
2,55,0,26
2,59,0,0
2,55,56,118
2,59,65,0
2,62,58,0
2,59,0,202
2,55,0,5
2,62,0,5
2,45,0,21
2,33,0,9
2,33,52,16
2,45,54,0
2,52,78,0
2,55,76,0
2,57,80,0
2,61,71,0
2,55,0,496
2,61,0,7
2,57,0,4
2,33,0,3
2,52,0,2
2,45,0,12
2,38,61,10
2,50,70,0
2,54,67,0
2,57,74,0
2,62,67,0
2,54,0,48
2,62,0,10
2,50,0,1
2,57,0,4
2,38,0,2
2,31,61,11
2,43,70,0
2,55,71,0
2,59,71,0
2,62,71,0
2,31,0,50
2,55,0,6
2,59,0,0
2,62,0,4
2,43,0,7
2,33,57,9
2,45,64,0
2,57,68,0
2,61,69,0
2,64,65,0
2,33,0,54
2,61,0,1
2,64,0,2
2,57,0,9
2,45,0,12
2,38,54,2
2,50,71,0
2,54,63,0
2,57,73,0
2,62,70,0
2,54,0,31
2,62,0,9
2,57,0,4
2,38,0,3
2,50,0,2
2,31,60,13
2,43,70,0
2,55,67,0
2,59,67,0
2,62,66,0
2,59,0,41
2,31,0,3
2,55,0,0
2,62,0,3
2,43,0,4
2,33,60,5
2,45,67,0
2,57,70,0
2,61,71,0
2,64,63,0
2,33,0,26
2,61,0,17
2,64,0,0
2,57,0,7
2,45,0,7
2,38,64,15
2,50,73,0
2,54,63,0
2,57,74,0
2,62,70,0
2,54,0,44
2,38,0,8
2,50,0,0
2,57,0,0
2,62,0,2
2,37,61,15
2,49,69,0
2,57,74,0
2,61,77,0
2,64,67,0
2,49,0,28
2,37,0,4
2,64,0,9
2,61,0,4
2,57,0,6
2,35,63,17
2,47,68,0
2,54,61,0
2,59,78,0
2,62,73,0
2,54,0,173
2,35,0,4
2,47,0,0
2,59,0,6
2,62,0,3
2,33,78,15
2,45,56,0
2,52,68,0
2,57,76,0
2,61,65,0
2,45,0,32
2,57,0,4
2,33,0,3
2,52,0,0
2,61,0,0
2,32,65,20
2,44,59,0
2,52,62,0
2,56,77,0
2,59,76,0
2,44,0,161
2,32,0,6
2,56,0,6
2,28,70,19
2,40,56,0
2,56,59,0
2,62,82,0
2,52,0,34
2,28,0,7
2,40,0,0
2,59,0,3
2,56,0,2
2,62,0,1
2,55,66,26
2,59,73,0
2,62,68,0
2,59,0,689
2,55,0,40
2,62,0,10
2,52,57,13
2,57,63,0
2,61,49,0
2,61,0,256
2,52,0,3
2,57,0,0
2,52,71,58
2,57,80,0
2,61,74,0
2,52,0,153
2,52,27,39
2,61,0,25
2,57,0,1
2,52,0,53
2,38,61,113
2,50,70,0
2,54,67,0
2,57,74,0
2,62,67,0
2,54,0,48
2,62,0,10
2,50,0,1
2,57,0,4
2,38,0,2
2,31,61,11
2,43,70,0
2,55,71,0
2,59,71,0
2,62,71,0
2,31,0,50
2,55,0,6
2,59,0,0
2,62,0,4
2,43,0,7
2,33,57,9
2,45,64,0
2,57,68,0
2,61,69,0
2,64,65,0
2,33,0,54
2,61,0,1
2,64,0,2
2,57,0,9
2,45,0,12
2,38,54,2
2,50,71,0
2,54,63,0
2,57,73,0
2,62,70,0
2,54,0,31
2,62,0,9
2,57,0,4
2,38,0,3
2,50,0,2
2,31,60,13
2,43,70,0
2,55,67,0
2,59,67,0
2,62,66,0
2,59,0,41
2,31,0,3
2,55,0,0
2,62,0,3
2,43,0,4
2,33,60,5
2,45,67,0
2,57,70,0
2,61,71,0
2,64,63,0
2,33,0,26
2,61,0,17
2,64,0,0
2,57,0,7
2,45,0,7
2,38,86,15
2,50,84,0
2,54,80,0
2,57,84,0
2,62,78,0
2,54,0,426
2,62,0,14
2,57,0,3
2,50,0,9
2,38,0,34
2,37,71,7
2,49,80,0
2,57,73,0
2,61,84,0
2,64,78,0
2,64,0,48
2,61,0,5
2,57,0,4
2,49,0,10
2,37,0,3
2,35,74,2
2,47,84,0
2,54,89,0
2,59,100,0
2,62,80,0
2,62,0,180
2,47,0,2
2,54,0,1
2,59,0,10
2,35,0,16
2,33,71,5
2,45,74,0
2,52,76,0
2,57,80,0
2,61,80,0
2,57,0,50
2,61,0,0
2,52,0,4
2,45,0,25
2,33,0,8
2,32,59,7
2,44,74,0
2,52,70,0
2,56,94,0
2,59,89,0
2,52,0,189
2,44,0,5
2,32,0,1
2,28,65,11
2,40,73,0
2,52,68,0
2,56,0,14
2,59,0,17
2,52,0,28
2,33,73,4
2,45,68,0
2,52,68,0
2,57,84,0
2,61,84,0
2,40,0,2
2,28,0,2
2,45,0,8
2,29,73,11
2,41,68,0
2,33,0,5
2,57,0,21
2,61,0,19
2,52,0,3
2,41,0,2
2,29,0,4
2,34,69,5
2,46,84,0
2,54,77,0
2,58,94,0
2,61,77,0
2,54,0,193
2,34,0,7
2,46,0,15
2,30,67,1
2,42,77,0
2,54,47,0
2,54,0,33
2,58,0,19
2,61,0,2
2,42,0,26
2,30,0,3
2,35,78,1
2,47,89,0
2,54,77,0
2,59,86,0
2,62,80,0
2,54,0,480
2,54,42,43
2,54,0,12
