track,note,velocity,time
3,43,104,408
3,43,0,625
3,38,104,47
3,38,0,61
3,43,98,35
3,43,0,738
3,31,106,30
3,31,0,767
3,38,109,1
3,38,0,654
3,38,109,18
3,36,109,1
3,36,0,575
3,38,109,1
3,38,0,191
3,43,109,1
3,43,0,383
3,38,109,1
3,38,0,287
3,40,95,1
3,40,0,95
3,43,109,1
3,43,0,767
3,38,109,1
3,38,0,479
3,50,109,49
3,50,0,95
3,38,109,1
3,38,0,47
3,38,109,1
3,38,0,95
3,36,109,1
3,36,0,383
3,36,109,1
3,36,0,143
3,36,109,1
3,36,0,47
3,38,109,1
3,38,0,191
3,43,109,1
3,43,0,383
3,38,109,1
3,38,0,287
3,40,109,1
3,40,0,95
3,43,109,1
3,43,0,575
3,43,109,1
3,38,109,1
3,38,0,335
3,38,109,1
3,38,0,47
3,42,109,1
3,42,0,47
3,45,109,1
3,45,0,143
3,50,109,1
3,50,0,47
3,45,109,1
3,45,0,143
3,36,109,1
3,36,0,335
3,43,109,1
3,43,0,47
3,36,109,1
3,36,0,95
3,36,109,1
3,36,0,95
3,38,109,1
3,38,0,191
3,43,109,1
3,43,0,383
3,38,109,1
3,38,0,383
3,43,109,1
3,43,0,191
3,43,99,1
3,43,0,191
3,43,109,1
3,43,0,191
3,43,103,1
3,43,0,191
3,38,109,1
3,38,0,287
3,33,109,1
3,33,0,95
3,38,109,1
3,38,0,191
3,50,109,1
3,50,0,63
3,38,109,1
3,38,0,31
3,38,109,1
3,38,0,94
3,36,106,2
3,36,0,86
3,36,112,10
3,36,0,95
3,43,105,1
3,43,0,47
3,48,104,1
3,48,0,111
3,43,104,1
3,43,0,31
3,46,104,1
3,46,0,191
3,45,97,1
3,45,0,59
3,43,99,5
3,43,0,31
3,40,97,1
3,40,0,95
3,43,99,1
3,43,0,191
3,43,94,1
3,43,0,63
3,42,105,1
3,42,0,31
3,40,102,1
3,40,0,95
3,38,102,1
3,38,0,367
3,43,109,17
3,43,0,191
3,43,99,1
3,43,0,191
3,43,109,1
3,43,0,191
3,43,103,1
3,43,0,191
3,38,109,1
3,38,0,287
3,33,109,1
3,33,0,95
3,38,109,1
3,38,0,191
3,50,109,1
3,50,0,63
3,38,109,1
3,38,0,31
3,38,109,1
3,38,0,94
3,36,106,2
3,36,0,94
3,36,112,2
3,36,0,95
3,43,105,1
3,43,0,47
3,48,104,1
3,48,0,111
3,43,104,1
3,43,0,31
3,46,104,1
3,46,0,191
3,45,97,1
3,45,0,59
3,43,99,5
3,43,0,31
3,40,97,1
3,40,0,95
3,43,98,1
3,43,0,738
3,31,106,30
3,31,0,767
3,38,109,1
3,38,0,654
3,38,109,18
3,36,109,1
3,36,0,575
3,38,109,1
3,38,0,191
3,43,109,1
3,43,0,383
3,38,109,1
3,38,0,287
3,40,95,1
3,40,0,95
3,43,109,1
3,43,0,767
3,38,109,1
3,38,0,479
3,50,109,49
3,50,0,95
3,38,109,1
3,38,0,47
3,38,109,1
3,38,0,95
3,36,109,1
3,36,0,383
3,36,109,1
3,36,0,143
3,36,109,1
3,36,0,47
3,38,109,1
3,38,0,191
3,43,109,1
3,43,0,383
3,38,109,1
3,38,0,287
3,40,109,1
3,40,0,95
3,43,109,1
3,43,0,575
3,43,109,1
3,38,109,1
3,38,0,335
3,38,109,1
3,38,0,47
3,42,109,1
3,42,0,47
3,45,109,1
3,45,0,143
3,50,109,1
3,50,0,47
3,45,109,1
3,45,0,143
3,36,109,1
3,36,0,335
3,43,109,1
3,43,0,47
3,36,109,1
3,36,0,95
3,36,109,1
3,36,0,95
3,38,109,1
3,38,0,191
3,43,109,1
3,43,0,383
3,38,109,1
3,38,0,383
3,43,109,1
3,43,0,191
3,43,99,1
3,43,0,191
3,43,109,1
3,43,0,191
3,43,103,1
3,43,0,191
3,38,109,1
3,38,0,287
3,33,109,1
3,33,0,95
3,38,109,1
3,38,0,191
3,50,109,1
3,50,0,63
3,38,109,1
3,38,0,31
3,38,109,1
3,38,0,94
3,36,106,2
3,36,0,86
3,36,112,10
3,36,0,95
3,43,105,1
3,43,0,47
3,48,104,1
3,48,0,111
3,43,104,1
3,43,0,31
3,46,104,1
3,46,0,191
3,45,97,1
3,45,0,59
3,43,99,5
3,43,0,31
3,40,97,1
3,40,0,95
3,43,99,1
3,43,0,191
3,43,94,1
3,43,0,63
3,42,105,1
3,42,0,31
3,40,102,1
3,40,0,95
3,38,102,1
3,38,0,367
3,43,109,17
3,43,0,191
3,43,99,1
3,43,0,191
3,43,109,1
3,43,0,191
3,43,103,1
3,43,0,191
3,38,109,1
3,38,0,287
3,33,109,1
3,33,0,95
3,38,109,1
3,38,0,191
3,50,109,1
3,50,0,63
3,38,109,1
3,38,0,31
3,38,109,1
3,38,0,94
3,36,106,2
3,36,0,94
3,36,112,2
3,36,0,95
3,43,105,1
3,43,0,47
3,48,104,1
3,48,0,111
3,43,104,1
3,43,0,31
3,46,104,1
3,46,0,191
3,45,97,1
3,45,0,59
3,43,99,5
3,43,0,31
3,40,97,1
3,40,0,95
3,43,98,1
3,43,0,738
3,36,96,30
3,36,0,144
3,36,93,16
3,36,0,31
3,48,94,1
3,48,0,58
3,36,93,6
3,36,0,78
3,37,101,2
3,37,0,200
3,37,93,8
3,37,0,31
3,49,95,1
3,49,0,63
3,37,97,1
3,37,0,54
3,36,97,26
3,36,0,207
3,36,93,1
3,36,0,31
3,48,96,1
3,48,0,63
3,36,96,1
3,36,0,58
3,40,103,70
3,40,0,383
3,38,96,1
3,38,0,383
3,36,93,1
3,36,0,383
3,38,97,1
3,38,0,356
3,31,106,28
3,31,0,767
3,38,109,1
3,38,0,654
3,38,109,18
3,36,109,1
3,36,0,575
3,38,109,1
3,38,0,191
3,43,109,1
3,43,0,383
3,38,109,1
3,38,0,287
3,40,95,1
3,40,0,95
3,43,109,1
3,43,0,767
3,38,109,1
3,38,0,479
3,50,109,49
3,50,0,95
3,38,109,1
3,38,0,47
3,38,109,1
3,38,0,95
3,36,109,1
3,36,0,383
3,36,109,1
3,36,0,143
3,36,109,1
3,36,0,47
3,38,109,1
3,38,0,191
3,43,109,1
3,43,0,383
3,38,109,1
3,38,0,287
3,40,109,1
3,40,0,95
3,43,109,1
3,43,0,575
3,43,109,1
3,38,109,1
3,38,0,335
3,38,109,1
3,38,0,47
3,42,109,1
3,42,0,47
3,45,109,1
3,45,0,143
3,50,109,1
3,50,0,47
3,45,109,1
3,45,0,143
3,36,109,1
3,36,0,335
3,43,109,1
3,43,0,47
3,36,109,1
3,36,0,95
3,36,109,1
3,36,0,95
3,38,109,1
3,38,0,191
3,43,109,1
3,43,0,383
3,38,109,1
3,38,0,287
3,40,109,1
3,40,0,95
3,43,109,1
3,43,0,575
3,43,109,1
3,38,109,1
3,38,0,335
3,38,109,1
3,38,0,47
3,42,109,1
3,42,0,47
3,45,109,1
3,45,0,143
3,50,109,1
3,50,0,47
3,45,109,1
3,45,0,143
3,36,109,1
3,43,109,1
3,43,0,47
3,36,109,1
3,36,109,1
3,38,109,1
3,43,109,1
3,38,109,1
3,40,109,1
3,43,109,1
3,43,109,1
3,38,109,1
4,59,42,270
4,62,43,0
4,67,41,0
4,59,0,1532
4,62,0,0
4,67,0,0
4,62,42,4
4,67,41,0
4,71,44,0
4,67,0,764
4,71,0,0
4,66,44,4
4,69,43,0
4,62,0,764
4,66,0,0
4,69,0,0
4,64,41,4
4,67,41,0
4,72,45,0
4,64,0,572
4,67,0,0
4,72,0,0
4,66,45,4
4,69,43,0
4,74,45,0
4,66,0,188
4,69,0,0
4,74,0,0
4,62,45,4
4,67,44,0
4,71,44,0
4,67,0,380
4,71,0,0
4,66,45,4
4,69,44,0
4,62,0,380
4,66,0,0
4,69,0,0
4,62,42,4
4,67,41,0
4,71,44,0
4,67,0,764
4,71,0,0
4,66,44,4
4,69,43,0
4,62,0,764
4,66,0,0
4,69,0,0
4,64,41,4
4,67,41,0
4,72,45,0
4,64,0,572
4,67,0,0
4,72,0,0
4,66,45,4
4,69,43,0
4,74,45,0
4,66,0,188
4,69,0,0
4,74,0,0
4,62,45,4
4,67,44,0
4,71,44,0
4,67,0,380
4,71,0,0
4,66,45,4
4,69,44,0
4,62,0,380
4,66,0,0
4,69,0,0
4,62,42,4
4,67,41,0
4,71,44,0
4,67,0,764
4,71,0,0
4,66,44,4
4,69,43,0
4,62,0,764
4,66,0,0
4,69,0,0
4,64,41,4
4,67,41,0
4,72,45,0
4,64,0,572
4,67,0,0
4,72,0,0
4,66,45,4
4,69,43,0
4,74,45,0
4,66,0,188
4,69,0,0
4,74,0,0
4,67,44,4
4,71,44,0
4,74,45,0
4,74,0,188
4,76,45,4
4,76,0,92
4,78,45,4
4,67,0,92
4,71,0,0
4,78,0,0
4,66,45,4
4,69,44,0
4,79,45,0
4,79,0,92
4,81,45,4
4,81,0,92
4,83,45,4
4,83,0,92
4,84,45,4
4,66,0,92
4,69,0,0
4,84,0,0
4,67,45,4
4,71,45,0
4,74,45,0
4,86,45,0
4,67,0,764
4,71,0,0
4,74,0,0
4,66,45,4
4,69,45,0
4,74,45,0
4,86,0,476
4,83,45,4
4,83,0,92
4,84,45,4
4,84,0,92
4,86,45,4
4,66,0,92
4,69,0,0
4,74,0,0
4,86,0,0
4,67,45,4
4,72,45,0
4,76,45,0
4,88,45,0
4,72,0,380
4,70,45,4
4,73,45,0
4,67,0,380
4,70,0,0
4,73,0,0
4,76,0,0
4,88,0,0
4,67,45,4
4,71,45,0
4,74,45,0
4,86,45,0
4,67,0,380
4,71,0,0
4,66,45,4
4,69,45,0
4,66,0,380
4,69,0,0
4,74,0,0
4,86,0,0
4,67,45,4
4,71,45,0
4,74,45,0
4,86,45,0
4,67,0,764
4,71,0,0
4,74,0,0
4,66,45,4
4,69,45,0
4,74,45,0
4,86,0,476
4,83,45,4
4,83,0,92
4,84,45,4
4,84,0,92
4,86,45,4
4,66,0,92
4,69,0,0
4,74,0,0
4,86,0,0
4,67,45,4
4,72,45,0
4,76,45,0
4,88,45,0
4,72,0,380
4,70,45,4
4,73,45,0
4,67,0,380
4,70,0,0
4,73,0,0
4,76,0,0
4,88,0,0
4,67,31,4
4,71,29,0
4,74,31,0
4,86,31,0
4,67,0,764
4,71,0,0
4,74,0,0
4,86,0,0
4,62,42,4
4,67,41,0
4,71,44,0
4,67,0,764
4,71,0,0
4,66,44,4
4,69,43,0
4,62,0,764
4,66,0,0
4,69,0,0
4,64,41,4
4,67,41,0
4,72,45,0
4,64,0,572
4,67,0,0
4,72,0,0
4,66,45,4
4,69,43,0
4,74,45,0
4,66,0,188
4,69,0,0
4,74,0,0
4,62,45,4
4,67,44,0
4,71,44,0
4,67,0,380
4,71,0,0
4,66,45,4
4,69,44,0
4,62,0,380
4,66,0,0
4,69,0,0
4,62,42,4
4,67,41,0
4,71,44,0
4,67,0,764
4,71,0,0
4,66,44,4
4,69,43,0
4,62,0,764
4,66,0,0
4,69,0,0
4,64,41,4
4,67,41,0
4,72,45,0
4,64,0,572
4,67,0,0
4,72,0,0
4,66,45,4
4,69,43,0
4,74,45,0
4,66,0,188
4,69,0,0
4,74,0,0
4,62,45,4
4,67,44,0
4,71,44,0
4,67,0,380
4,71,0,0
4,66,45,4
4,69,44,0
4,62,0,380
4,66,0,0
4,69,0,0
4,62,42,4
4,67,41,0
4,71,44,0
4,67,0,764
4,71,0,0
4,66,44,4
4,69,43,0
4,62,0,764
4,66,0,0
4,69,0,0
4,64,41,4
4,67,41,0
4,72,45,0
4,64,0,572
4,67,0,0
4,72,0,0
4,66,45,4
4,69,43,0
4,74,45,0
4,66,0,188
4,69,0,0
4,74,0,0
4,67,44,4
4,71,44,0
4,74,45,0
4,74,0,188
4,76,45,4
4,76,0,92
4,78,45,4
4,67,0,92
4,71,0,0
4,78,0,0
4,66,45,4
4,69,44,0
4,79,45,0
4,79,0,92
4,81,45,4
4,81,0,92
4,83,45,4
4,83,0,92
4,84,45,4
4,66,0,92
4,69,0,0
4,84,0,0
4,67,45,4
4,71,45,0
4,74,45,0
4,86,45,0
4,67,0,764
4,71,0,0
4,74,0,0
4,66,45,4
4,69,45,0
4,74,45,0
4,86,0,476
4,83,45,4
4,83,0,92
4,84,45,4
4,84,0,92
4,86,45,4
4,66,0,92
4,69,0,0
4,74,0,0
4,86,0,0
4,67,45,4
4,72,45,0
4,76,45,0
4,88,45,0
4,72,0,380
4,70,45,4
4,73,45,0
4,67,0,380
4,70,0,0
4,73,0,0
4,76,0,0
4,88,0,0
4,67,45,4
4,71,45,0
4,74,45,0
4,86,45,0
4,67,0,380
4,71,0,0
4,66,45,4
4,69,45,0
4,66,0,380
4,69,0,0
4,74,0,0
4,86,0,0
4,67,45,4
4,71,45,0
4,74,45,0
4,86,45,0
4,67,0,764
4,71,0,0
4,74,0,0
4,66,45,4
4,69,45,0
4,74,45,0
4,86,0,476
4,83,45,4
4,83,0,92
4,84,45,4
4,84,0,92
4,86,45,4
4,66,0,92
4,69,0,0
4,74,0,0
4,86,0,0
4,67,45,4
4,72,45,0
4,76,45,0
4,88,45,0
4,72,0,380
4,70,45,4
4,73,45,0
4,67,0,380
4,70,0,0
4,73,0,0
4,76,0,0
4,88,0,0
4,67,43,4
4,71,43,0
4,74,38,0
4,86,38,0
4,67,0,764
4,71,0,0
4,74,0,0
4,86,0,0
4,60,45,4
4,64,46,0
4,67,46,0
4,76,48,0
4,60,0,340
4,64,0,0
4,67,0,0
4,61,48,4
4,64,47,0
4,67,46,0
4,61,0,380
4,64,0,0
4,67,0,0
4,60,45,4
4,64,44,0
4,67,46,0
4,64,0,311
4,76,0,1
4,60,0,1
4,67,0,2
4,64,38,109
4,67,38,0
4,71,38,0
4,64,0,380
4,67,0,0
4,71,0,0
4,62,38,4
4,66,38,0
4,69,38,0
4,62,0,380
4,66,0,0
4,69,0,0
4,60,38,4
4,64,38,0
4,67,38,0
4,60,0,380
4,64,0,0
4,67,0,0
4,62,38,4
4,66,38,0
4,69,38,0
4,62,0,380
4,66,0,0
4,69,0,0
4,62,42,4
4,67,41,0
4,71,44,0
4,67,0,764
4,71,0,0
4,66,44,4
4,69,43,0
4,62,0,764
4,66,0,0
4,69,0,0
4,64,41,4
4,67,41,0
4,72,45,0
4,64,0,572
4,67,0,0
4,72,0,0
4,66,45,4
4,69,43,0
4,74,45,0
4,66,0,188
4,69,0,0
4,74,0,0
4,62,45,4
4,67,44,0
4,71,44,0
4,67,0,380
4,71,0,0
4,66,45,4
4,69,44,0
4,62,0,380
4,66,0,0
4,69,0,0
4,62,42,4
4,67,41,0
4,71,44,0
4,67,0,764
4,71,0,0
4,66,44,4
4,69,43,0
4,62,0,764
4,66,0,0
4,69,0,0
4,64,41,4
4,67,41,0
4,72,45,0
4,64,0,572
4,67,0,0
4,72,0,0
4,66,45,4
4,69,43,0
4,74,45,0
4,66,0,188
4,69,0,0
4,74,0,0
4,62,45,4
4,67,44,0
4,71,44,0
4,67,0,380
4,71,0,0
4,66,45,4
4,69,44,0
4,62,0,380
4,66,0,0
4,69,0,0
4,62,42,4
4,67,41,0
4,71,44,0
4,67,0,764
4,71,0,0
4,66,44,4
4,69,43,0
4,62,0,764
4,66,0,0
4,69,0,0
4,64,41,4
4,67,41,0
4,72,45,0
4,64,0,572
4,67,0,0
4,72,0,0
4,66,45,4
4,69,43,0
4,74,45,0
4,66,0,188
4,69,0,0
4,74,0,0
4,62,45,4
4,67,44,0
4,71,44,0
4,67,0,380
4,71,0,0
4,66,45,4
4,69,44,0
4,62,0,380
4,66,0,0
4,69,0,0
4,62,42,4
4,67,41,0
4,71,44,0
4,67,0,764
4,71,0,0
4,66,44,4
4,69,43,0
4,62,0,764
4,66,0,0
4,69,0,0
4,64,41,4
4,67,41,0
4,72,45,0
4,66,45,3
4,69,43,0
4,74,45,0
4,62,45,4
4,67,44,0
4,71,44,0
4,66,45,4
4,69,44,0
4,62,42,4
4,67,41,0
