track,note,velocity,time
0,66,89,97
0,73,65,240
0,78,83,240
0,66,0,102
0,68,79,138
0,73,0,27
0,78,0,55
0,75,83,158
0,80,97,240
0,87,79,240
0,87,0,192
0,80,0,35
0,61,93,13
0,75,0,2
0,68,0,35
0,68,71,203
0,73,79,240
0,80,101,240
0,80,0,187
0,73,0,15
0,68,0,10
0,61,0,10
0,58,93,18
0,65,79,240
0,70,75,240
0,77,97,240
0,77,0,187
0,70,0,30
0,66,101,23
0,58,0,7
0,65,0,15
0,73,71,218
0,78,65,240
0,85,89,240
0,66,0,162
0,85,0,55
0,68,97,23
0,73,0,2
0,78,0,25
0,75,89,213
0,80,93,240
0,87,75,240
0,87,0,147
0,80,0,10
0,68,0,30
0,75,0,15
0,61,101,38
0,68,71,240
0,73,75,240
0,80,93,240
0,80,0,112
0,61,0,60
0,73,0,5
0,68,0,15
0,58,93,48
0,65,83,240
0,70,67,240
0,77,79,240
0,77,0,132
0,70,0,55
0,65,0,10
0,66,97,43
0,58,0,7
0,73,71,233
0,78,65,240
0,85,89,4
0,73,117,0
0,85,0,217
0,73,0,10
0,66,0,1
0,68,97,3
0,72,99,0
0,73,0,2
0,78,0,25
0,75,89,213
0,72,0,212
0,80,93,4
0,73,95,0
0,87,75,240
0,87,0,147
0,80,0,10
0,68,0,30
0,73,0,5
0,75,0,10
0,61,101,4
0,72,99,0
0,68,71,240
0,72,0,1
0,73,75,3
0,73,91,0
0,80,93,240
0,80,0,112
0,61,0,60
0,73,0,5
0,68,0,15
0,58,93,4
0,75,99,0
0,73,0,2
0,65,83,238
0,70,67,4
0,73,113,0
0,75,0,12
0,73,0,215
0,77,79,4
0,70,117,0
0,77,0,132
0,70,0,55
0,65,0,10
0,70,0,5
0,66,97,38
0,58,0,7
0,73,71,233
0,78,65,240
0,85,89,240
0,66,0,217
0,85,0,0
0,68,97,4
0,73,99,0
0,73,0,2
0,78,0,25
0,73,0,155
0,75,89,4
0,72,103,0
0,72,0,172
0,80,93,4
0,73,95,0
0,73,0,132
0,87,75,4
0,73,95,0
0,87,0,147
0,80,0,10
0,68,0,30
0,75,0,15
0,61,101,38
0,68,71,240
0,73,75,240
0,73,0,162
0,80,93,78
0,80,0,112
0,61,0,60
0,73,0,5
0,68,0,15
0,58,93,48
0,65,83,240
0,70,67,240
0,77,79,4
0,77,117,0
0,77,0,132
0,77,0,25
0,70,0,30
0,65,0,10
0,66,101,43
0,58,0,7
0,73,71,4
0,73,113,0
0,78,65,240
0,73,0,172
0,85,89,4
0,70,95,0
0,66,0,157
0,70,0,30
0,85,0,30
0,68,97,4
0,68,79,0
0,73,0,2
0,78,0,25
0,68,0,200
0,75,89,4
0,73,113,0
0,80,93,240
0,73,0,177
0,87,75,4
0,70,99,0
0,87,0,147
0,80,0,10
0,70,0,15
0,68,0,15
0,75,0,15
0,61,101,4
0,68,79,0
0,68,0,202
0,68,71,4
0,75,113,0
0,73,75,240
0,75,0,227
0,80,93,4
0,73,99,0
0,80,0,112
0,73,0,45
0,61,0,15
0,73,0,5
0,68,0,15
0,58,93,4
0,73,95,0
0,65,83,240
0,73,0,187
0,70,67,53
0,70,121,0
0,77,79,240
0,70,0,32
0,77,0,100
0,70,0,55
0,65,0,10
0,66,111,4
0,70,95,0
0,58,0,7
0,70,0,94
0,70,95,4
0,70,0,101
0,73,71,4
0,73,109,0
0,73,0,102
0,73,95,18
0,73,0,101
0,78,65,4
0,73,109,0
0,73,0,102
0,85,89,4
0,73,95,0
0,73,0,152
0,66,0,35
0,85,0,30
0,68,97,4
0,73,95,0
0,73,0,2
0,78,0,25
0,73,0,125
0,75,89,4
0,73,113,0
0,80,93,240
0,73,0,177
0,87,75,4
0,72,99,0
0,87,0,147
0,80,0,10
0,68,0,30
0,75,0,15
0,72,0,15
0,61,101,4
0,73,83,0
0,68,71,240
0,73,75,240
0,80,93,240
0,80,0,112
0,61,0,60
0,73,0,5
0,68,0,15
0,58,93,48
0,73,0,47
0,65,83,193
0,70,67,240
0,77,79,240
0,77,0,132
0,70,0,55
0,65,0,10
0,54,97,43
0,58,0,7
0,61,71,233
0,35,101,0
0,37,83,0
0,42,46,0
0,35,0,7
0,37,0,0
0,42,0,0
0,66,65,0
0,42,42,0
0,77,109,5
0,42,0,2
0,77,0,215
0,75,117,13
0,73,89,5
0,37,83,0
0,42,63,0
0,37,0,7
0,42,0,0
0,75,0,145
0,54,0,50
0,73,109,13
0,73,0,2
0,56,97,23
0,42,52,0
0,61,0,2
0,42,0,5
0,66,0,20
0,63,89,74
0,37,82,0
0,42,65,0
0,37,0,7
0,42,0,0
0,73,0,165
0,68,93,24
0,42,52,0
0,42,0,1
0,73,103,3
0,75,75,114
0,37,81,0
0,42,64,0
0,37,0,7
0,42,0,0
0,75,0,140
0,68,0,10
0,73,0,11
0,56,0,15
0,63,0,11
0,61,101,24
0,35,85,0
0,42,61,0
0,35,0,7
0,42,0,0
0,73,117,2
0,68,71,230
0,35,103,0
0,37,84,0
0,42,46,0
0,35,0,7
0,37,0,0
0,42,0,0
0,73,0,190
0,73,75,43
0,42,43,0
0,42,0,7
0,70,87,4
0,70,0,67
0,80,93,153
0,37,84,0
0,42,64,0
0,37,0,7
0,42,0,0
0,80,0,105
0,61,0,60
0,73,0,5
0,68,0,15
0,58,93,48
0,42,53,0
0,42,0,7
0,65,83,233
0,37,83,0
0,42,66,0
0,37,0,7
0,42,0,0
0,73,113,2
0,70,67,30
0,42,52,0
0,42,0,7
0,73,0,155
0,77,79,0
0,37,82,0
0,42,66,0
0,70,71,5
0,37,0,2
0,42,0,0
0,77,0,125
0,70,0,20
0,70,0,35
0,65,0,10
0,54,97,43
0,35,75,0
0,42,62,0
0,58,0,7
0,35,0,0
0,42,0,0
0,61,71,4
0,73,99,0
0,35,104,0
0,37,75,0
0,42,48,0
0,35,0,7
0,37,0,0
0,42,0,0
0,73,0,130
0,66,65,103
0,42,44,0
0,42,0,7
0,73,99,8
0,73,0,137
0,73,89,88
0,37,85,0
0,42,64,0
0,37,0,7
0,42,0,0
0,73,109,2
0,54,0,122
0,73,0,30
0,73,0,55
0,56,97,23
0,73,103,0
0,42,54,0
0,61,0,2
0,42,0,5
0,66,0,20
0,73,0,135
0,63,89,78
0,37,84,0
0,42,66,0
0,37,0,7
0,42,0,0
0,73,117,3
0,73,0,197
0,72,81,3
0,68,93,5
0,42,54,0
0,42,0,7
0,72,0,165
0,75,75,0
0,37,84,0
0,42,66,0
0,73,113,5
0,37,0,2
0,42,0,0
0,75,0,140
0,68,0,10
0,56,0,30
0,63,0,15
0,61,101,38
0,35,76,0
0,42,63,0
0,35,0,7
0,42,0,0
0,73,0,5
0,68,71,228
0,35,105,0
0,37,75,0
0,42,48,0
0,35,0,7
0,37,0,0
0,42,0,0
0,73,75,233
0,42,45,0
0,42,0,7
0,80,93,233
0,37,75,0
0,42,66,0
0,37,0,7
0,42,0,0
0,80,0,105
0,61,0,15
0,73,0,50
0,68,0,15
0,58,93,48
0,42,55,0
0,42,0,7
0,65,83,233
0,37,85,0
0,42,67,0
0,37,0,7
0,42,0,0
0,70,67,233
0,42,55,0
0,42,0,7
0,77,79,4
0,77,117,0
0,37,85,0
0,42,67,0
0,37,0,7
0,42,0,0
0,77,0,125
0,70,0,55
0,65,0,10
0,54,97,43
0,35,77,0
0,42,64,0
0,58,0,7
0,35,0,0
0,42,0,0
0,61,71,233
0,35,105,0
0,37,77,0
0,42,50,0
0,35,0,7
0,37,0,0
0,42,0,0
0,77,0,215
0,66,65,4
0,75,99,0
0,42,46,0
0,42,0,7
0,75,0,115
0,73,89,4
0,75,113,0
0,37,76,0
0,42,67,0
0,37,0,7
0,42,0,0
0,54,0,120
0,73,0,90
0,75,0,15
0,56,97,4
0,73,99,0
0,42,56,0
0,61,0,2
0,42,0,5
0,66,0,20
0,73,0,175
0,63,89,4
0,77,113,0
0,37,76,0
0,42,69,0
0,37,0,7
0,42,0,0
0,68,93,233
0,42,55,0
0,42,0,7
0,77,0,160
0,75,75,4
0,75,109,0
0,37,75,0
0,42,68,0
0,37,0,7
0,42,0,0
0,75,0,140
0,68,0,10
0,56,0,30
0,63,0,15
0,61,101,38
0,35,79,0
0,42,55,0
0,35,0,7
0,42,0,0
0,75,0,200
0,68,71,4
0,73,127,0
0,35,106,0
0,37,78,0
0,42,51,0
0,35,0,7
0,37,0,0
0,42,0,0
0,73,0,170
0,73,75,4
0,70,99,0
0,42,47,0
0,42,0,7
0,70,0,75
0,80,93,158
0,37,78,0
0,42,68,0
0,37,0,7
0,42,0,0
0,80,0,105
0,61,0,15
0,73,0,50
0,68,0,15
0,58,93,48
0,42,56,0
0,42,0,7
0,65,83,233
0,37,77,0
0,42,70,0
0,37,0,7
0,42,0,0
0,70,67,4
0,70,109,0
0,42,56,0
0,42,0,7
0,70,0,40
0,77,79,4
0,73,117,0
0,37,77,0
0,42,69,0
0,37,0,7
0,42,0,0
0,77,0,125
0,73,0,50
0,70,0,5
0,65,0,10
0,54,97,4
0,70,87,0
0,35,80,0
0,42,56,0
0,58,0,7
0,35,0,0
0,42,0,0
0,70,0,105
0,61,71,4
0,77,113,0
0,35,108,0
0,37,80,0
0,42,41,0
0,35,0,7
0,37,0,0
0,42,0,0
0,77,0,185
0,66,65,4
0,75,103,0
0,42,48,0
0,42,0,7
0,75,0,155
0,73,89,4
0,73,103,0
0,37,79,0
0,42,59,0
0,37,0,7
0,42,0,0
0,54,0,125
0,73,0,80
0,73,0,5
0,56,97,4
0,73,109,0
0,42,58,0
0,61,0,2
0,42,0,5
0,66,0,20
0,63,89,213
0,37,78,0
0,42,70,0
0,37,0,7
0,42,0,0
0,73,0,130
0,68,93,4
0,73,113,0
0,42,56,0
0,42,0,7
0,75,75,233
0,37,77,0
0,42,70,0
0,37,0,7
0,42,0,0
0,75,0,140
0,73,0,5
0,68,0,5
0,56,0,30
0,63,0,15
0,49,101,4
0,73,113,0
0,35,80,0
0,42,56,0
0,35,0,7
0,42,0,0
0,56,71,233
0,35,108,0
0,37,80,0
0,42,42,0
0,35,0,7
0,37,0,0
0,42,0,0
0,73,0,5
0,61,75,228
0,42,49,0
0,42,0,7
0,68,93,4
0,77,83,0
0,37,79,0
0,42,59,0
0,37,0,7
0,42,0,0
0,77,0,60
0,68,0,45
0,49,0,15
0,61,0,50
0,56,0,15
0,46,93,4
0,77,103,0
0,42,57,0
0,42,0,7
0,77,0,60
0,53,83,4
0,77,125,0
0,37,78,0
0,42,71,0
0,37,0,7
0,42,0,0
0,77,0,220
0,58,67,4
0,78,99,0
0,42,57,0
0,42,0,7
0,78,0,200
0,65,79,4
0,77,109,0
0,37,78,0
0,42,70,0
0,37,0,7
0,42,0,0
0,65,0,125
0,58,0,55
0,53,0,10
0,77,0,1
0,75,117,3
0,35,80,0
0,42,57,0
0,46,0,7
0,35,0,0
0,42,0,0
0,42,97,233
0,54,63,0
0,58,93,0
0,61,79,0
0,35,109,0
0,42,46,0
0,74,46,0
0,35,0,7
0,42,0,0
0,74,0,0
0,54,0,100
0,58,0,105
0,75,0,15
0,54,79,4
0,73,121,0
0,35,111,0
0,42,45,0
0,35,0,7
0,42,0,0
0,73,0,165
0,58,93,68
0,40,94,0
0,42,66,0
0,40,0,7
0,42,0,0
0,54,0,35
0,61,0,75
0,58,0,45
0,44,93,78
0,56,67,0
0,60,89,0
0,63,83,0
0,35,99,0
0,42,61,0
0,35,0,7
0,42,0,0
0,42,0,20
0,37,68,213
0,42,64,0
0,37,0,7
0,42,0,0
0,68,97,233
0,42,61,0
0,42,0,7
0,37,80,233
0,40,100,0
0,42,70,0
0,37,0,7
0,40,0,0
0,42,0,0
0,68,0,10
0,63,0,40
0,44,0,30
0,56,0,0
0,60,0,0
0,56,79,113
0,37,97,40
0,61,101,0
0,35,80,0
0,42,56,0
0,35,0,7
0,42,0,0
0,65,89,33
0,56,0,52
0,35,109,148
0,42,46,0
0,74,46,0
0,35,0,7
0,42,0,0
0,74,0,0
0,56,79,233
0,35,111,0
0,42,45,0
0,35,0,7
0,42,0,0
0,61,0,25
0,61,83,208
0,40,94,0
0,42,66,0
0,40,0,7
0,42,0,0
0,61,0,1
0,63,75,3
0,68,103,0
0,35,98,0
0,42,61,0
0,35,0,7
0,42,0,0
0,68,0,20
0,56,0,70
0,68,117,4
0,68,0,62
0,63,0,30
0,46,71,4
0,61,89,0
0,77,117,0
0,37,68,0
0,42,64,0
0,37,0,7
0,42,0,0
0,77,0,120
0,61,0,80
0,65,0,25
0,58,75,4
0,78,113,0
0,42,61,0
0,42,0,7
0,78,0,200
0,77,117,4
0,37,80,0
0,40,100,0
0,42,70,0
0,37,0,7
0,40,0,0
0,42,0,0
0,77,0,130
0,37,0,75
0,75,117,4
0,35,80,0
0,42,57,0
0,35,0,7
0,42,0,0
0,58,0,85
0,46,0,10
0,75,0,55
0,42,97,4
0,54,63,0
0,58,93,0
0,61,79,0
0,73,113,0
0,35,108,0
0,42,46,0
0,74,46,0
0,35,0,7
0,42,0,0
0,74,0,0
0,73,0,90
0,54,0,10
0,58,0,105
0,73,103,2
0,54,79,10
0,35,111,0
0,42,45,0
0,35,0,7
0,42,0,0
0,73,0,105
0,70,103,5
0,58,93,15
0,40,94,0
0,42,66,0
0,40,0,7
0,42,0,0
0,54,0,35
0,70,0,50
0,61,0,25
0,58,0,45
0,73,99,4
0,44,93,20
0,56,67,0
0,60,89,0
0,63,83,0
0,35,98,0
0,42,61,0
0,35,0,7
0,42,0,0
0,42,0,20
0,37,68,213
0,42,64,0
0,37,0,7
0,42,0,0
0,73,0,200
0,70,85,4
0,68,97,20
0,42,60,0
0,42,0,7
0,70,0,55
0,73,117,4
0,37,80,20
0,40,100,0
0,42,69,0
0,37,0,7
0,40,0,0
0,42,0,0
0,68,0,10
0,73,0,35
0,63,0,5
0,44,0,30
0,56,0,0
0,60,0,0
0,70,95,3
0,70,0,82
0,56,79,28
0,68,83,0
0,37,97,40
0,61,101,0
0,35,80,0
0,42,57,0
0,35,0,7
0,42,0,0
0,65,89,33
0,68,0,2
0,56,0,50
0,35,108,148
0,42,46,0
0,74,46,0
0,35,0,7
0,42,0,0
0,74,0,0
0,35,111,233
0,42,45,0
0,35,0,7
0,42,0,0
0,61,0,25
0,65,0,203
0,61,71,5
0,65,83,0
0,40,94,0
0,42,65,0
0,40,0,7
0,42,0,0
0,61,0,185
0,65,0,20
0,63,67,4
0,66,75,0
0,77,109,0
0,35,98,0
0,42,61,0
0,35,0,7
0,42,0,0
0,63,0,195
0,66,0,15
0,46,79,23
0,61,93,0
0,65,89,0
0,37,68,0
0,42,64,0
0,37,0,7
0,42,0,0
0,77,0,195
0,61,0,5
0,65,0,25
0,60,97,4
0,63,101,0
0,78,95,0
0,42,60,0
0,42,0,7
0,60,0,200
0,63,0,5
0,78,0,5
0,58,97,4
0,61,97,0
0,77,113,0
0,37,80,0
0,40,100,0
0,42,70,0
0,37,0,7
0,40,0,0
0,42,0,0
0,37,0,205
0,58,0,0
0,61,0,0
0,77,0,10
0,56,97,4
0,60,71,0
0,75,113,0
0,35,80,0
0,42,56,0
0,35,0,7
0,42,0,0
0,46,0,50
0,56,0,55
0,60,0,20
0,42,97,108
0,54,63,0
0,58,93,0
0,61,79,0
0,35,108,0
0,42,45,0
0,74,46,0
0,35,0,7
0,42,0,0
0,74,0,0
0,54,0,100
0,58,0,105
0,75,0,20
0,54,79,4
0,73,121,0
0,35,111,0
0,42,45,0
0,35,0,7
0,42,0,0
0,73,0,165
0,58,93,68
0,40,94,0
0,42,65,0
0,40,0,7
0,42,0,0
0,54,0,35
0,61,0,75
0,58,0,45
0,44,93,78
0,56,67,0
0,60,89,0
0,63,83,0
0,35,98,0
0,42,61,0
0,35,0,7
0,42,0,0
0,42,0,20
0,37,68,213
0,42,64,0
0,37,0,7
0,42,0,0
0,68,97,233
0,42,60,0
0,42,0,7
0,37,80,233
