track,note,velocity,time
1,28,54,1536
1,31,51,1536
1,40,54,1516
1,36,38,0
1,38,48,8
1,28,54,0
1,28,54,128
1,28,51,132
1,28,51,128
1,28,54,124
1,28,48,108
1,28,51,124
1,28,51,128
1,28,41,124
1,28,45,132
1,30,36,108
1,30,48,152
1,30,54,160
1,31,51,12
1,31,48,128
1,31,41,120
1,31,48,140
1,31,45,148
1,31,45,120
1,31,48,140
1,31,45,148
1,31,45,104
1,31,48,140
1,31,62,148
1,30,38,192
1,30,48,156
1,28,51,4
1,28,58,124
1,28,43,116
1,28,45,144
1,28,51,152
1,28,43,108
1,28,45,156
1,28,51,152
1,28,43,124
1,28,48,148
1,30,43,120
1,30,43,136
1,30,58,160
1,31,51,24
1,31,45,128
1,31,45,128
1,31,43,136
1,31,48,144
1,31,48,140
1,31,50,132
1,31,51,152
1,31,51,128
1,31,51,132
1,32,27,68
1,33,54,0
1,30,43,16
1,31,38,0
1,28,51,72
1,28,51,116
1,28,43,140
1,28,48,128
1,28,54,128
1,28,45,144
1,28,45,140
1,28,48,148
1,28,43,144
1,28,48,152
1,30,34,8
1,30,45,144
1,30,54,148
1,31,51,192
1,31,51,124
1,31,51,148
1,31,51,120
1,31,51,128
1,31,48,128
1,31,51,124
1,31,51,128
1,31,43,124
1,31,43,120
1,31,58,140
1,30,38,0
1,30,42,120
1,28,45,0
1,28,38,132
1,28,45,132
1,28,43,136
1,28,45,148
1,28,36,124
1,28,41,144
1,28,45,144
1,28,32,132
1,28,36,132
1,30,36,24
1,30,32,136
1,30,62,160
1,31,45,0
1,31,51,132
1,31,43,120
1,31,51,148
1,31,43,148
1,31,36,140
1,31,45,136
1,31,51,132
1,31,51,128
1,31,54,132
1,32,38,92
1,33,36,0
1,30,36,12
1,31,38,12
1,28,38,12
1,28,43,136
1,28,36,140
1,28,38,152
1,28,41,152
1,28,43,152
1,28,41,156
1,28,45,152
1,28,43,140
1,28,41,144
1,30,28,28
1,30,34,132
1,30,51,152
1,31,58,8
1,31,58,112
1,31,45,136
1,31,51,128
1,31,51,124
1,31,36,136
1,31,45,144
1,31,54,136
1,31,41,132
1,31,48,128
1,31,54,152
1,30,54,192
1,30,48,124
1,28,45,192
1,28,43,144
1,28,45,140
1,28,48,156
1,28,48,140
1,28,43,128
1,28,45,144
1,28,45,152
1,28,38,136
1,28,32,148
1,30,30,52
1,30,32,148
1,30,67,156
1,31,58,0
1,31,51,128
1,31,48,136
1,31,48,136
1,31,48,144
1,31,45,148
1,31,43,136
1,31,48,136
1,31,48,128
1,31,54,136
1,32,48,72
1,33,51,0
1,30,48,12
1,31,48,0
1,28,48,12
1,28,41,136
1,28,41,128
1,28,48,140
1,28,45,144
1,28,48,132
1,30,38,80
1,30,41,116
1,30,38,128
1,30,43,124
1,30,43,116
1,30,43,124
1,31,51,100
1,31,45,128
1,31,45,140
1,31,51,128
1,31,54,124
1,31,48,144
1,33,45,104
1,33,51,116
1,33,48,140
1,35,38,100
1,36,45,0
1,35,48,152
1,31,45,4
1,30,43,20
1,28,41,192
1,28,45,140
1,28,36,140
1,28,48,148
1,28,48,136
1,28,48,148
1,30,45,92
1,30,41,124
1,30,32,136
1,30,36,124
1,30,38,120
1,30,36,140
1,31,45,108
1,31,45,132
1,31,48,152
1,31,48,132
1,31,48,124
1,31,58,140
1,33,48,108
1,52,48,0
1,45,43,0
1,52,41,192
1,57,43,0
1,52,38,192
1,28,34,0
1,28,41,100
1,28,30,124
1,28,41,124
1,28,51,136
1,30,48,104
1,31,54,96
1,31,54,116
1,31,51,128
1,31,62,104
1,32,43,16
1,33,45,0
1,28,43,36
1,28,51,116
1,28,43,140
1,33,45,92
1,33,51,104
1,33,45,144
1,38,43,88
1,38,51,96
1,38,45,120
1,38,48,92
1,31,54,132
1,30,28,0
1,28,45,80
1,28,48,104
1,28,43,156
1,28,41,124
1,28,45,140
1,30,38,116
1,31,54,88
1,31,54,120
1,31,51,132
1,31,58,112
1,30,34,88
1,28,51,92
1,28,48,104
1,28,51,128
1,36,48,84
1,36,45,92
1,36,45,116
1,38,38,76
1,38,45,96
1,38,43,124
1,38,54,96
1,30,41,132
1,31,48,0
1,28,51,144
1,28,51,116
1,28,43,140
1,28,48,128
1,28,54,128
1,28,45,144
1,28,45,140
1,28,48,148
1,28,43,144
1,28,48,152
1,30,34,8
1,30,45,144
1,30,54,148
1,31,51,192
1,31,51,124
1,31,51,148
1,31,51,120
1,31,51,128
1,31,48,128
1,31,51,124
1,31,51,128
1,31,43,124
1,31,43,120
1,31,58,140
1,30,38,0
1,30,42,120
1,28,45,0
1,28,38,132
1,28,45,132
1,28,43,136
1,28,45,148
1,28,36,124
1,28,41,144
1,28,45,144
1,28,32,132
1,28,36,132
1,30,36,24
1,30,32,136
1,30,62,160
1,31,45,0
1,31,51,132
1,31,43,120
1,31,51,148
1,31,43,148
1,31,36,140
1,31,45,136
1,31,51,132
1,31,51,128
1,31,54,132
1,32,38,92
1,33,36,0
1,30,36,12
1,31,38,12
1,28,38,12
1,28,43,136
1,28,36,140
1,28,38,152
1,28,41,152
1,28,43,152
1,28,41,156
1,28,45,152
1,28,43,140
1,28,41,144
1,30,28,28
1,30,34,132
1,30,51,152
1,31,58,8
1,31,58,112
1,31,45,136
1,31,51,128
1,31,51,124
1,31,36,136
1,31,45,144
1,31,54,136
1,31,41,132
1,31,48,128
1,31,54,152
1,30,54,192
1,30,48,124
1,28,45,192
1,28,43,144
1,28,45,140
1,28,48,156
1,28,48,140
1,28,43,128
1,28,45,144
1,28,45,152
1,28,38,136
1,28,32,148
1,30,30,52
1,30,32,148
1,30,67,156
1,31,58,0
1,31,51,128
1,31,48,136
1,31,48,136
1,31,48,144
1,31,45,148
1,31,43,136
1,31,48,136
1,31,48,128
1,31,54,136
1,32,48,72
1,33,51,0
1,30,48,12
1,31,48,0
1,28,48,12
1,28,41,136
1,28,41,128
1,28,48,140
1,28,45,144
1,28,48,132
1,30,38,80
1,30,41,116
1,30,38,128
1,30,43,124
1,30,43,116
1,30,43,124
1,31,51,100
1,31,45,128
1,31,45,140
1,31,51,128
1,31,54,124
1,31,48,144
1,33,45,104
1,33,51,116
1,33,48,140
1,35,38,100
1,36,45,0
1,35,48,152
1,31,45,4
1,30,43,20
1,28,41,192
1,28,45,140
1,28,36,140
1,28,48,148
1,28,48,136
1,28,48,148
1,30,45,92
1,30,41,124
1,30,32,136
1,30,36,124
1,30,38,120
1,30,36,140
1,31,45,108
1,31,45,132
1,31,48,152
1,31,48,132
1,31,48,124
1,31,58,140
1,33,48,108
1,52,48,0
1,45,43,0
1,52,41,192
1,57,43,0
1,52,38,192
1,28,34,0
1,28,41,100
1,28,30,124
1,28,41,124
1,28,51,136
1,30,48,104
1,31,54,96
1,31,54,116
1,31,51,128
1,31,62,104
1,32,43,16
1,33,45,0
1,28,43,36
1,28,51,116
1,28,43,140
1,33,45,92
1,33,51,104
1,33,45,144
1,38,43,88
1,38,51,96
1,38,45,120
1,38,48,92
1,31,54,132
1,30,28,0
1,28,45,80
1,28,48,104
1,28,43,156
1,28,41,124
1,28,45,140
1,30,38,116
1,31,54,88
1,31,54,120
1,31,51,132
1,31,58,112
1,30,34,88
1,28,51,92
1,28,48,104
1,28,51,128
1,36,48,84
1,36,45,92
1,36,45,116
1,38,38,76
1,38,45,96
1,38,43,124
1,38,54,96
1,30,41,132
1,31,48,0
1,28,51,144
1,28,51,116
1,28,43,140
1,28,48,128
1,28,54,128
1,28,45,144
1,28,45,140
1,28,48,148
1,28,43,144
1,28,48,152
1,30,34,8
1,30,45,144
1,30,54,148
1,31,51,192
1,31,51,124
1,31,51,148
1,31,51,120
1,31,51,128
1,31,48,128
1,31,51,124
1,31,51,128
1,31,43,124
1,31,43,120
1,31,58,140
1,30,38,0
1,30,42,120
1,28,45,0
1,28,38,132
1,28,45,132
1,28,43,136
1,28,45,148
1,28,36,124
1,28,41,144
1,28,45,144
1,28,32,132
1,28,36,132
1,30,36,24
1,30,32,136
1,30,62,160
1,31,45,0
1,31,51,132
1,31,43,120
1,31,51,148
1,31,43,148
1,31,36,140
1,31,45,136
1,31,51,132
1,31,51,128
1,31,54,132
1,32,38,92
1,33,36,0
1,30,36,12
1,31,38,12
1,28,38,12
1,28,43,136
1,28,36,140
1,28,38,152
1,28,41,152
1,28,43,152
1,28,41,156
1,28,45,152
1,28,43,140
1,28,41,144
1,30,28,28
1,30,34,132
1,30,51,152
1,31,58,8
1,31,58,112
1,31,45,136
1,31,51,128
1,31,51,124
1,31,36,136
1,31,45,144
1,31,54,136
1,31,41,132
1,31,48,128
1,31,54,152
1,30,54,192
1,30,48,124
1,28,45,192
1,28,43,144
1,28,45,140
1,28,48,156
1,28,48,140
1,28,43,128
1,28,45,144
1,28,45,152
1,28,38,136
1,28,32,148
1,30,30,52
1,30,32,148
1,30,67,156
1,31,58,0
1,31,51,128
1,31,48,136
1,31,48,136
1,31,48,144
1,31,45,148
1,31,43,136
1,31,48,136
1,31,48,128
1,31,54,136
1,32,48,72
1,33,51,0
1,30,48,12
1,31,48,0
1,28,48,12
1,28,41,136
1,28,41,128
1,28,48,140
1,28,45,144
1,28,48,132
1,30,38,80
1,30,41,116
1,30,38,128
1,30,43,124
1,30,43,116
1,30,43,124
1,31,51,100
1,31,45,128
1,31,45,140
1,31,51,128
1,31,54,124
1,31,48,144
1,33,45,104
1,33,51,116
1,33,48,140
1,35,38,100
1,36,45,0
1,35,48,152
1,31,45,4
1,30,43,20
1,28,41,192
1,28,45,140
1,28,36,140
1,28,48,148
1,28,48,136
1,28,48,148
1,30,45,92
1,30,41,124
1,30,32,136
1,30,36,124
1,30,38,120
1,30,36,140
1,31,45,108
1,31,45,132
1,31,48,152
1,31,48,132
1,31,48,124
1,31,58,140
1,33,48,108
1,52,48,0
1,45,43,0
1,52,41,192
1,57,43,0
1,52,38,192
1,28,34,0
1,28,41,100
1,28,30,124
1,28,41,124
1,28,51,136
1,30,48,104
1,31,54,96
1,31,54,116
1,31,51,128
1,31,62,104
1,32,43,16
1,33,45,0
1,28,43,36
1,28,51,116
1,28,43,140
1,33,45,92
1,33,51,104
1,33,45,144
1,38,43,88
1,38,51,96
1,38,45,120
1,38,48,92
1,31,54,132
1,30,28,0
1,28,45,80
1,28,48,104
1,28,43,156
1,28,41,124
1,28,45,140
1,30,38,116
1,31,54,88
1,31,54,120
1,31,51,132
1,31,58,112
1,30,34,88
1,28,51,92
1,28,48,104
1,28,51,128
1,36,48,84
1,36,45,92
1,36,45,116
1,38,38,76
1,38,45,96
1,38,43,124
1,38,54,96
1,30,41,132
1,31,48,0
1,28,45,144
1,28,54,108
1,28,45,136
1,28,51,116
1,28,62,120
1,30,54,96
1,31,51,92
1,31,43,124
1,31,58,124
1,31,62,116
1,32,38,16
1,33,51,0
1,28,51,44
1,28,58,88
1,28,43,132
1,33,54,52
1,33,51,96
1,33,38,124
1,38,51,64
1,38,51,92
1,38,43,108
1,38,54,88
1,30,51,116
1,31,36,0
1,28,48,64
1,28,51,104
1,28,51,136
1,28,51,120
1,28,54,120
1,28,43,124
1,31,54,88
1,31,51,116
1,31,48,128
1,31,48,108
1,30,45,64
1,28,51,88
1,28,54,108
1,28,54,120
1,36,54,88
1,36,48,92
1,36,43,108
1,38,51,92
1,38,51,120
1,38,58,84
1,30,51,100
1,31,54,0
1,28,54,132
1,28,58,108
1,28,51,144
1,28,54,128
1,28,62,124
1,28,58,128
1,28,59,128
1,28,62,128
1,28,51,108
1,35,48,100
1,36,51,0
1,35,62,344
1,28,54,80
1,28,58,108
1,28,51,144
1,28,54,128
1,28,62,124
1,28,58,128
1,28,59,128
1,28,62,128
1,28,51,108
1,35,48,100
1,36,51,0
1,35,62,344
1,28,54,80
1,28,58,108
1,28,51,144
1,28,54,128
1,28,62,124
1,28,58,128
1,28,59,128
1,28,62,128
1,28,51,108
1,35,48,100
1,36,51,0
1,35,62,344
1,28,54,80
1,28,58,108
1,28,51,144
1,28,54,128
1,28,62,124
1,28,58,128
1,28,59,128
1,28,62,128
1,28,51,108
1,35,48,100
1,36,51,0
1,35,62,344
1,28,67,96
2,71,79,68364
2,71,106,60
2,71,88,64
2,71,106,56
2,71,79,46860
2,71,106,60
2,71,88,64
2,71,106,56
2,71,79,46848
2,71,62,40
2,66,72,32
2,67,67,12
2,66,26,32
2,83,67,10068
2,71,58,8
2,71,67,76
2,83,67,0
2,78,62,112
2,66,51,12
2,66,54,76
2,78,67,4
2,67,67,4
2,79,71,0
2,83,67,3836
2,71,58,8
2,71,67,76
2,83,67,0
2,78,62,112
2,66,51,12
2,66,54,76
2,78,67,4
2,67,67,4
2,79,71,0
3,60,32,548
3,72,43,8
3,71,43,0
3,59,36,4
3,67,45,4
3,55,26,12
3,52,51,356
3,64,45,4
3,67,48,1132
3,55,32,8
3,50,43,368
3,62,45,0
3,67,45,788
3,55,29,0
3,57,29,12
3,69,38,4
3,71,54,8
3,59,38,8
3,57,28,8
3,69,38,0
3,67,45,12
3,55,29,0
3,60,36,0
3,72,45,4
3,59,32,4
3,71,41,8
3,69,45,0
3,57,34,8
3,66,51,36
3,54,51,0
3,64,48,28
3,40,48,8
3,67,34,8
3,52,34,16
3,59,32,8
3,64,48,168
3,55,54,4
3,52,54,24
3,59,36,0
3,64,41,32
3,40,41,4
3,67,36,0
3,52,48,0
3,59,29,8
3,64,41,200
3,55,43,8
3,52,54,12
3,59,38,12
3,64,43,32
3,40,48,4
3,67,30,4
3,52,51,20
3,59,27,0
3,64,51,192
3,55,43,20
3,52,45,20
3,59,45,4
3,64,48,16
3,40,51,8
3,67,48,0
3,59,45,32
3,52,48,8
3,42,48,12
3,66,43,0
3,69,38,8
3,62,41,0
3,54,29,0
3,67,41,40
3,71,43,4
3,43,51,4
3,62,43,0
3,50,48,4
3,67,45,0
3,55,48,4
3,50,41,0
3,62,43,0
3,43,45,8
3,67,45,0
3,71,32,8
3,62,38,28
3,50,51,4
3,67,45,4
3,55,41,0
3,50,41,4
3,62,41,0
3,67,51,0
3,43,45,8
3,71,41,4
3,62,34,48
3,50,48,4
3,55,45,4
3,67,45,0
3,50,45,24
3,62,43,16
3,67,51,0
3,43,45,8
3,71,34,12
3,62,43,12
3,55,48,0
3,42,62,52
3,66,48,0
3,69,36,4
3,54,34,0
3,62,54,4
3,64,48,100
3,40,48,8
3,67,34,8
3,52,34,16
3,59,32,8
3,64,48,168
3,55,54,4
3,52,54,24
3,59,36,0
3,64,41,32
3,40,41,4
3,67,36,0
3,52,48,0
3,59,29,8
3,64,41,200
3,55,43,8
3,52,54,12
3,59,38,12
3,64,43,32
3,40,48,4
3,67,30,4
3,52,51,20
3,59,27,0
3,64,51,192
3,55,43,20
3,52,45,20
3,59,45,4
3,64,48,16
3,40,51,8
3,67,48,0
3,59,45,32
3,52,48,8
3,42,48,12
3,66,43,0
3,69,38,8
3,62,41,0
3,54,29,0
3,67,41,40
3,71,43,4
3,43,51,4
3,62,43,0
3,50,48,4
3,67,45,0
3,55,48,4
3,50,41,0
3,62,43,0
3,43,45,8
3,67,45,0
3,71,32,8
3,62,38,28
3,50,51,4
3,67,45,4
3,55,41,0
3,50,41,4
3,62,41,0
3,67,51,0
3,43,45,8
3,71,41,4
3,62,34,48
3,50,48,4
3,55,45,4
3,67,45,0
3,50,45,24
3,62,43,16
3,67,51,0
3,43,45,8
3,71,34,12
3,62,43,12
3,55,48,0
3,42,62,52
3,66,48,0
3,69,36,4
3,54,34,0
3,62,54,4
3,40,41,92
3,52,43,4
3,55,54,200
3,52,45,12
3,40,48,16
3,52,43,12
3,55,48,208
3,52,51,12
3,40,43,20
3,52,45,16
3,55,48,208
3,52,58,4
3,40,45,0
3,52,48,12
3,42,58,4
3,54,36,204
3,43,54,32
3,50,43,4
3,55,51,8
3,50,45,12
3,43,45,4
3,50,48,200
3,55,51,0
3,50,41,8
3,43,41,8
3,50,51,188
3,55,43,184
