track,note,velocity,time
1,83,110,6432
1,83,0,46
1,83,110,2
1,83,0,46
1,83,110,2
1,83,0,94
1,79,110,2
1,79,0,46
1,79,110,2
1,79,0,46
1,81,110,2
1,81,0,94
1,83,110,2
1,83,0,94
1,81,110,2
1,81,0,46
1,79,110,2
1,79,0,46
1,76,110,2
1,76,0,94
1,83,110,98
1,83,0,46
1,83,110,2
1,83,0,46
1,83,110,2
1,83,0,94
1,81,110,2
1,81,0,46
1,79,110,2
1,79,0,46
1,81,110,2
1,81,0,94
1,81,110,2
1,81,0,46
1,81,110,2
1,81,0,46
1,81,110,2
1,81,0,46
1,83,110,2
1,83,0,142
1,83,110,98
1,83,0,46
1,83,110,2
1,83,0,46
1,83,110,2
1,83,0,94
1,81,110,2
1,81,0,46
1,79,110,2
1,79,0,46
1,81,110,2
1,81,0,94
1,81,110,2
1,81,0,46
1,81,110,2
1,81,0,46
1,83,110,2
1,83,0,46
1,81,110,2
1,81,0,46
1,76,110,2
1,76,0,94
1,79,110,2
1,79,0,94
1,76,110,2
1,76,0,46
1,76,110,2
1,76,0,46
1,76,110,2
1,76,0,46
1,76,110,2
1,76,0,46
1,76,110,2
1,76,0,46
1,76,110,2
1,76,0,46
1,79,110,2
1,79,0,94
1,76,110,2
1,76,0,94
1,81,110,2
1,81,0,94
1,81,110,2
1,81,0,46
1,83,110,2
1,83,0,208
1,76,110,1280
1,76,0,46
1,78,110,2
1,78,0,46
1,79,110,2
1,79,0,46
1,76,110,2
1,76,0,46
1,76,110,2
1,76,0,94
1,76,110,2
1,76,0,94
1,76,110,2
1,76,0,46
1,76,110,2
1,76,0,46
1,79,110,2
1,79,0,94
1,76,110,2
1,76,0,46
1,76,110,2
1,76,0,46
1,76,110,2
1,76,0,160
1,79,110,32
1,79,0,94
1,76,110,2
1,76,0,46
1,76,110,2
1,76,0,46
1,76,110,2
1,76,0,94
1,76,110,2
1,76,0,46
1,76,110,2
1,76,0,46
1,79,110,2
1,79,0,46
1,79,110,2
1,79,0,46
1,76,110,2
1,76,0,46
1,83,110,2
1,83,0,142
1,81,110,2
1,81,0,94
1,83,110,2
1,83,0,160
1,83,110,1472
1,83,0,46
1,83,110,2
1,83,0,46
1,83,110,2
1,83,0,94
1,79,110,2
1,79,0,46
1,79,110,2
1,79,0,46
1,81,110,2
1,81,0,94
1,83,110,2
1,83,0,94
1,81,110,2
1,81,0,46
1,79,110,2
1,79,0,46
1,76,110,2
1,76,0,94
1,83,110,98
1,83,0,46
1,83,110,2
1,83,0,46
1,83,110,2
1,83,0,94
1,81,110,2
1,81,0,46
1,79,110,2
1,79,0,46
1,81,110,2
1,81,0,94
1,81,110,2
1,81,0,46
1,81,110,2
1,81,0,46
1,81,110,2
1,81,0,46
1,83,110,2
1,83,0,142
1,83,110,98
1,83,0,46
1,83,110,2
1,83,0,46
1,83,110,2
1,83,0,94
1,81,110,2
1,81,0,46
1,79,110,2
1,79,0,46
1,81,110,2
1,81,0,94
1,81,110,2
1,81,0,46
1,81,110,2
1,81,0,46
1,83,110,2
1,83,0,46
1,81,110,2
1,81,0,46
1,76,110,2
1,76,0,94
1,79,110,2
1,79,0,94
1,76,110,2
1,76,0,46
1,76,110,2
1,76,0,46
1,76,110,2
1,76,0,46
1,76,110,2
1,76,0,46
1,76,110,2
1,76,0,46
1,76,110,2
1,76,0,46
1,79,110,2
1,79,0,94
1,76,110,2
1,76,0,94
1,81,110,2
1,81,0,94
1,81,110,2
1,81,0,46
1,83,110,2
1,83,0,208
1,76,110,1280
1,76,0,46
1,78,110,2
1,78,0,46
1,79,110,2
1,79,0,46
1,76,110,2
1,76,0,46
1,76,110,2
1,76,0,94
1,76,110,2
1,76,0,94
1,76,110,2
1,76,0,46
1,76,110,2
1,76,0,46
1,79,110,2
1,79,0,94
1,76,110,2
1,76,0,46
1,76,110,2
1,76,0,46
1,76,110,2
1,76,0,160
1,79,110,32
1,79,0,94
1,76,110,2
1,76,0,46
1,76,110,2
1,76,0,46
1,76,110,2
1,76,0,94
1,76,110,2
1,76,0,46
1,76,110,2
1,76,0,46
1,79,110,2
1,79,0,46
1,79,110,2
1,79,0,46
1,76,110,2
1,76,0,46
1,83,110,2
1,83,0,142
1,81,110,2
1,81,0,94
1,83,110,2
1,83,0,160
1,83,110,10688
1,83,0,94
1,83,110,2
1,83,0,46
1,81,110,2
1,81,0,46
1,79,110,2
1,79,0,94
1,81,110,2
1,81,0,94
1,76,110,2
1,76,0,160
1,79,110,32
1,79,0,94
1,81,110,2
1,81,0,126
1,81,110,2
1,81,0,126
1,83,110,2
1,83,0,126
1,81,110,2
1,81,0,62
1,79,110,2
1,79,0,62
1,76,110,2
1,76,0,224
1,81,110,128
1,81,0,94
1,83,110,2
1,83,0,94
1,79,110,2
1,79,0,94
1,81,110,2
1,81,0,160
1,79,110,128
1,79,0,94
1,81,110,2
1,81,0,94
1,81,110,2
1,81,0,94
1,79,110,2
1,79,0,94
1,83,110,2
1,83,0,256
1,83,110,320
1,83,0,94
1,83,110,2
1,83,0,94
1,79,110,2
1,79,0,94
1,81,110,2
1,81,0,160
1,81,110,128
1,81,0,94
1,81,110,2
1,81,0,126
1,81,110,2
1,81,0,126
1,83,110,2
1,83,0,126
1,81,110,2
1,81,0,62
1,79,110,2
1,79,0,62
1,76,110,2
1,76,0,224
1,81,110,128
1,81,0,94
1,83,110,2
1,83,0,94
1,79,110,2
1,79,0,94
1,81,110,2
1,81,0,160
1,79,110,128
1,79,0,94
1,81,110,2
1,81,0,142
1,81,110,2
1,81,0,142
1,79,110,2
1,79,0,46
1,83,110,2
1,83,0,208
1,79,110,32
1,79,0,94
1,78,110,2
1,78,0,94
1,76,110,2
1,76,0,160
1,83,110,32
1,83,0,94
1,81,110,2
1,81,0,256
1,79,110,32
1,79,0,94
1,81,110,2
1,81,0,256
1,79,110,32
1,79,0,94
1,78,110,2
1,78,0,256
1,78,110,32
1,78,0,94
1,79,110,2
1,79,0,256
1,76,110,1184
1,76,0,94
1,76,110,2
1,76,0,94
1,76,110,2
1,76,0,160
1,83,110,32
1,83,0,94
1,81,110,2
1,81,0,256
1,79,110,32
1,79,0,94
1,81,110,2
1,81,0,256
1,79,110,32
1,79,0,94
1,81,110,2
1,81,0,256
1,83,110,32
1,83,0,94
1,83,110,2
1,83,0,256
1,83,110,1472
1,83,0,94
1,83,110,2
1,83,0,46
1,81,110,2
1,81,0,46
1,79,110,2
1,79,0,94
1,81,110,2
1,81,0,94
1,76,110,2
1,76,0,160
1,79,110,32
1,79,0,94
1,81,110,2
1,81,0,126
1,81,110,2
1,81,0,126
1,83,110,2
1,83,0,126
1,81,110,2
1,81,0,62
1,79,110,2
1,79,0,62
1,76,110,2
1,76,0,224
1,81,110,128
1,81,0,94
1,83,110,2
1,83,0,94
1,79,110,2
1,79,0,94
1,81,110,2
1,81,0,160
1,79,110,128
1,79,0,94
1,81,110,2
1,81,0,94
1,81,110,2
1,81,0,94
1,79,110,2
1,79,0,94
1,83,110,2
1,83,0,256
1,83,110,320
1,83,0,94
1,83,110,2
1,83,0,94
1,79,110,2
1,79,0,94
1,81,110,2
1,81,0,160
1,81,110,128
1,81,0,94
1,81,110,2
1,81,0,126
1,81,110,2
1,81,0,126
1,83,110,2
1,83,0,126
1,81,110,2
1,81,0,62
1,79,110,2
1,79,0,62
1,76,110,2
1,76,0,224
1,81,110,128
1,81,0,94
1,83,110,2
1,83,0,94
1,79,110,2
1,79,0,94
1,81,110,2
1,81,0,160
1,79,110,128
1,79,0,94
1,81,110,2
1,81,0,142
1,81,110,2
1,81,0,142
1,79,110,2
1,79,0,46
1,83,110,2
1,83,0,208
1,79,110,32
1,79,0,94
1,78,110,2
1,78,0,94
1,76,110,2
1,76,0,160
1,83,110,32
1,83,0,94
1,81,110,2
1,81,0,256
1,79,110,32
1,79,0,94
1,81,110,2
1,81,0,256
1,79,110,32
1,79,0,94
1,78,110,2
1,78,0,256
1,78,110,32
1,78,0,94
1,79,110,2
1,79,0,256
1,76,110,1184
1,76,0,94
1,76,110,2
1,76,0,94
1,76,110,2
1,76,0,160
1,83,110,32
1,83,0,94
1,81,110,2
1,81,0,256
1,79,110,32
1,79,0,94
1,81,110,2
1,81,0,256
1,79,110,32
1,79,0,94
1,81,110,2
1,81,0,256
1,83,110,32
1,83,0,94
1,83,110,2
1,83,0,256
1,81,110,1376
1,81,0,46
1,81,110,2
1,81,0,94
1,79,110,2
1,79,0,46
1,81,110,2
1,81,0,94
1,81,110,98
1,81,0,46
1,81,110,2
1,81,0,94
1,79,110,2
1,79,0,46
1,81,110,2
1,81,0,94
1,81,110,2
1,81,0,94
1,81,110,2
1,81,0,94
1,79,110,2
1,79,0,94
1,81,110,2
1,81,0,94
1,83,110,2
1,83,0,94
1,81,110,2
1,81,0,46
1,79,110,2
1,79,0,94
1,76,110,2
1,76,0,142
1,76,110,50
1,76,0,46
1,81,110,2
1,81,0,94
1,80,110,2
1,80,0,94
1,81,110,2
1,81,0,94
1,80,110,2
1,80,0,94
1,81,110,2
1,81,0,94
1,80,110,2
1,80,0,94
1,81,110,2
1,81,0,142
1,80,110,2
1,80,0,46
1,81,110,2
1,81,0,46
1,80,110,2
1,80,0,94
1,81,110,2
1,81,0,94
1,83,110,2
1,83,0,142
1,81,110,2
1,81,0,46
1,79,110,2
1,79,0,46
1,76,110,2
1,76,0,256
1,81,110,32
1,81,0,94
1,79,110,2
1,79,0,94
1,81,110,2
1,81,0,94
1,79,110,2
1,79,0,94
1,81,110,2
1,81,0,46
1,81,110,2
1,81,0,46
1,79,110,2
1,79,0,46
1,81,110,2
1,81,0,142
1,79,110,50
1,79,0,46
1,81,110,2
1,81,0,94
1,81,110,2
1,81,0,46
1,81,110,2
1,81,0,142
1,79,110,2
1,79,0,94
1,76,110,2
1,76,0,160
1,81,110,224
1,81,0,94
1,79,110,2
1,79,0,94
1,81,110,2
1,81,0,94
1,79,110,2
1,79,0,94
1,83,110,2
1,83,0,94
1,83,110,2
1,83,0,46
1,83,110,2
1,83,0,190
1,81,110,2
1,81,0,46
1,83,110,2
1,83,0,46
1,81,110,2
1,81,0,142
1,83,110,2
1,83,0,94
1,81,110,2
1,81,0,94
1,81,110,2
1,81,0,46
1,83,110,2
1,83,0,46
1,81,110,2
1,81,0,46
1,76,110,2
1,76,0,208
1,83,110,4640
1,83,0,126
1,81,110,2
1,81,0,126
1,79,110,2
1,79,0,126
1,81,110,2
1,81,0,126
1,79,110,2
1,79,0,126
1,76,110,2
1,76,0,126
1,83,110,2
1,83,0,126
1,81,110,2
1,81,0,126
1,79,110,2
1,79,0,126
1,81,110,2
1,81,0,126
1,79,110,2
1,79,0,126
1,81,110,2
1,81,0,126
1,83,110,2
1,83,0,336
1,83,110,1104
1,83,0,94
1,83,110,2
1,83,0,126
1,81,110,2
1,81,0,126
1,79,110,2
1,79,0,126
1,81,110,2
1,81,0,126
1,79,110,2
1,79,0,126
1,76,110,2
1,76,0,126
1,83,110,2
1,83,0,126
1,81,110,2
1,81,0,126
1,79,110,2
1,79,0,126
1,81,110,2
1,81,0,126
1,79,110,2
1,79,0,126
1,81,110,2
1,81,0,126
1,83,110,2
1,83,0,336
1,79,110,1200
1,83,110,0
1,79,0,720
1,83,0,0
1,79,110,432
1,79,0,126
1,78,110,2
1,78,0,126
1,79,110,2
1,79,0,126
1,79,110,2
1,79,0,528
1,76,110,624
1,76,0,126
1,78,110,2
1,78,0,126
1,79,110,2
1,79,0,126
1,83,110,2
1,83,0,528
1,76,110,624
1,76,0,126
1,78,110,2
1,78,0,126
1,79,110,2
1,79,0,126
1,83,110,2
1,83,0,528
1,79,110,1008
1,83,110,0
1,79,0,720
1,83,0,0
1,79,110,432
1,79,0,126
1,78,110,2
1,78,0,126
1,79,110,2
1,79,0,126
1,79,110,2
1,79,0,528
1,76,110,624
1,76,0,126
1,78,110,2
1,78,0,126
1,79,110,2
1,79,0,126
1,83,110,2
1,83,0,528
1,84,110,624
1,84,0,160
1,83,110,32
1,83,0,94
1,81,110,2
1,81,0,190
1,83,110,2
1,83,0,432
1,83,110,1008
1,83,0,126
1,81,110,2
1,81,0,126
1,79,110,2
1,79,0,126
1,81,110,2
1,81,0,126
1,79,110,2
1,79,0,126
1,76,110,2
1,76,0,126
1,83,110,2
1,83,0,126
1,81,110,2
1,81,0,126
1,79,110,2
1,79,0,126
1,81,110,2
1,81,0,126
1,79,110,2
1,79,0,126
1,81,110,2
1,81,0,126
1,83,110,2
1,83,0,336
1,83,110,1104
1,83,0,94
1,83,110,2
1,83,0,126
1,81,110,2
1,81,0,126
1,79,110,2
1,79,0,126
1,81,110,2
1,81,0,126
1,79,110,2
1,79,0,126
1,76,110,2
1,76,0,126
1,83,110,2
1,83,0,126
1,81,110,2
1,81,0,126
1,79,110,2
1,79,0,126
1,81,110,2
1,81,0,126
1,79,110,2
1,79,0,126
1,81,110,2
1,81,0,126
1,83,110,2
1,83,0,336
1,79,110,1200
1,83,110,0
1,79,0,720
1,83,0,0
1,79,110,432
1,79,0,126
1,78,110,2
1,78,0,126
1,79,110,2
1,79,0,126
1,79,110,2
1,79,0,528
1,76,110,624
1,76,0,126
1,78,110,2
1,78,0,126
1,79,110,2
1,79,0,126
1,83,110,2
1,83,0,528
1,76,110,624
1,76,0,126
1,78,110,2
1,78,0,126
1,79,110,2
1,79,0,126
1,83,110,2
1,83,0,528
1,79,110,1008
1,83,110,0
1,79,0,720
1,83,0,0
1,79,110,432
1,79,0,126
1,78,110,2
1,78,0,126
1,79,110,2
1,79,0,126
1,79,110,2
1,79,0,528
1,76,110,624
1,76,0,126
1,78,110,2
1,78,0,126
1,79,110,2
1,79,0,126
1,83,110,2
1,83,0,528
1,84,110,624
1,84,0,160
1,83,110,32
1,83,0,94
1,81,110,2
1,81,0,190
1,83,110,2
1,83,0,432
1,76,110,54432
1,76,0,94
1,78,110,2
1,78,0,256
1,78,110,32
1,78,0,256
1,78,110,32
1,78,0,160
1,79,110,32
1,79,0,256
1,78,110,32
1,78,0,256
1,79,110,32
1,79,0,160
1,81,110,32
1,81,0,720
1,76,110,720
1,76,0,94
1,78,110,2
1,78,0,256
1,78,110,32
1,78,0,256
1,78,110,32
1,78,0,160
1,79,110,32
1,79,0,256
1,78,110,32
1,78,0,256
1,79,110,32
1,79,0,160
1,81,110,32
1,81,0,720
1,74,110,720
1,74,0,94
1,76,110,2
1,76,0,256
1,76,110,32
1,76,0,256
1,76,110,32
1,76,0,160
1,77,110,32
1,77,0,256
1,77,110,32
1,77,0,256
1,77,110,32
1,77,0,160
1,76,110,32
1,76,0,256
1,76,110,32
1,76,0,256
1,76,110,32
1,76,0,160
1,77,110,32
1,77,0,256
1,77,110,32
1,77,0,256
1,77,110,32
1,77,0,160
1,74,110,32
1,74,0,928
1,78,110,2144
1,78,0,256
1,78,110,32
1,78,0,256
1,78,110,32
1,78,0,160
1,79,110,32
1,79,0,256
1,78,110,32
1,78,0,256
1,79,110,32
1,79,0,160
1,81,110,32
1,81,0,720
1,76,110,720
1,76,0,94
1,78,110,2
1,78,0,256
1,78,110,32
1,78,0,256
1,78,110,32
1,78,0,160
1,79,110,32
1,79,0,256
1,78,110,32
1,78,0,256
1,79,110,32
1,79,0,160
1,81,110,32
1,81,0,720
1,74,110,720
1,74,0,94
1,76,110,2
1,76,0,256
1,76,110,32
1,76,0,256
1,76,110,32
1,76,0,160
1,77,110,32
1,77,0,256
1,77,110,32
1,77,0,256
1,77,110,32
1,77,0,160
1,76,110,32
1,76,0,256
1,76,110,32
1,76,0,256
1,76,110,32
1,76,0,160
1,77,110,32
1,77,0,256
1,77,110,32
1,77,0,256
1,77,110,32
1,77,0,160
1,74,110,32
1,74,0,928
1,72,110,2144
1,72,0,336
1,72,110,240
1,72,0,160
1,70,110,32
1,70,0,256
1,72,110,32
1,72,0,256
1,72,110,32
1,72,0,160
1,74,110,32
1,74,0,160
1,69,110,1184
1,69,0,160
