track,note,velocity,time
1,88,100,4416
1,83,100,0
1,83,100,0
1,76,100,0
1,76,100,0
1,79,100,0
1,76,100,0
1,76,100,0
1,79,100,0
1,76,100,0
1,76,100,0
1,79,100,0
1,76,100,0
1,76,100,0
1,79,100,0
1,76,100,0
1,76,100,0
1,79,100,0
1,76,100,0
1,76,100,0
1,79,100,0
1,76,100,0
1,76,100,0
1,79,100,0
1,76,100,0
1,76,100,0
1,79,100,0
1,76,100,0
1,76,100,0
1,79,100,0
1,76,100,0
1,76,100,0
1,79,100,0
1,76,100,0
1,76,100,0
1,79,100,0
1,76,100,0
1,76,100,0
1,79,100,0
1,76,100,0
1,76,100,0
1,79,100,0
1,76,100,0
1,76,100,0
1,79,100,0
1,76,100,0
1,76,100,0
1,79,100,0
1,76,100,0
1,76,100,0
1,79,100,0
1,76,100,0
1,76,100,0
1,79,100,0
1,76,100,0
1,76,100,0
1,79,100,0
1,76,100,0
1,76,100,0
1,79,100,0
1,76,100,0
1,76,100,0
1,79,100,0
1,76,100,0
1,76,100,0
1,79,100,0
1,76,100,0
1,81,100,0
1,76,100,0
1,76,100,0
1,81,100,0
1,76,100,0
1,76,100,0
1,81,100,0
1,76,100,0
1,84,100,0
1,76,100,0
1,76,100,0
1,84,100,0
1,76,100,0
1,76,100,0
1,84,100,0
1,76,100,0
1,84,100,0
1,83,100,0
1,81,100,0
1,79,100,0
1,84,100,0
1,83,100,0
1,81,100,0
1,79,100,0
1,81,100,0
1,76,100,0
1,76,100,0
1,81,100,0
1,76,100,0
1,76,100,0
1,81,100,0
1,76,100,0
1,81,100,0
1,76,100,0
1,76,100,0
1,81,100,0
1,76,100,0
1,76,100,0
1,81,100,0
1,76,100,0
1,84,100,0
1,76,100,0
1,76,100,0
1,84,100,0
1,76,100,0
1,76,100,0
1,84,100,0
1,76,100,0
1,84,100,0
1,83,100,0
1,81,100,0
1,79,100,0
1,84,100,0
1,83,100,0
1,81,100,0
1,79,100,0
1,81,100,0
1,76,100,0
1,76,100,0
1,81,100,0
1,76,100,0
1,76,100,0
1,81,100,0
1,76,100,0
1,76,100,0
1,76,100,0
1,79,100,0
1,76,100,0
1,76,100,0
1,79,100,0
1,76,100,0
1,76,100,0
1,79,100,0
1,76,100,0
1,76,100,0
1,79,100,0
1,76,100,0
1,76,100,0
1,79,100,0
1,76,100,0
1,76,100,0
1,79,100,0
1,76,100,0
1,76,100,0
1,79,100,0
1,76,100,0
1,76,100,0
1,79,100,0
1,76,100,0
1,76,100,0
1,79,100,0
1,76,100,0
1,76,100,0
1,79,100,0
1,76,100,0
1,76,100,0
1,79,100,0
1,76,100,0
1,76,100,0
1,79,100,0
1,76,100,0
1,76,100,0
1,79,100,0
1,76,100,0
1,76,100,0
1,79,100,0
1,76,100,0
1,76,100,0
1,79,100,0
1,76,100,0
1,76,100,0
1,79,100,0
1,76,100,0
1,76,100,0
1,79,100,0
1,76,100,0
1,76,100,0
1,79,100,0
1,76,100,0
1,76,100,0
1,79,100,0
1,76,100,0
1,76,100,0
1,79,100,0
1,76,100,0
1,76,100,0
1,79,100,0
1,76,100,0
1,81,100,0
1,76,100,0
1,76,100,0
1,81,100,0
1,76,100,0
1,76,100,0
1,81,100,0
1,76,100,0
1,84,100,0
1,76,100,0
1,76,100,0
1,84,100,0
1,76,100,0
1,76,100,0
1,84,100,0
1,76,100,0
1,84,100,0
1,83,100,0
1,81,100,0
1,79,100,0
1,84,100,0
1,83,100,0
1,81,100,0
1,79,100,0
1,81,100,0
1,76,100,0
1,76,100,0
1,81,100,0
1,76,100,0
1,76,100,0
1,81,100,0
1,76,100,0
1,81,100,0
1,76,100,0
1,76,100,0
1,81,100,0
1,76,100,0
1,76,100,0
1,81,100,0
1,76,100,0
1,84,100,0
1,76,100,0
1,76,100,0
1,84,100,0
1,76,100,0
1,76,100,0
1,84,100,0
1,76,100,0
1,84,100,0
1,83,100,0
1,81,100,0
1,79,100,0
1,84,100,0
1,83,100,0
1,81,100,0
1,79,100,0
1,81,100,0
1,76,100,0
1,76,100,0
1,81,100,0
1,76,100,0
1,76,100,0
1,81,100,0
1,76,100,0
1,64,100,0
1,71,100,0
1,64,100,0
1,64,100,0
1,64,100,0
1,71,100,0
1,64,100,0
1,64,100,0
1,64,100,0
1,71,100,0
1,64,100,0
1,64,100,0
1,64,100,0
1,71,100,0
1,64,100,0
1,64,100,0
1,64,100,0
1,71,100,0
1,64,100,0
1,64,100,0
1,64,100,0
1,71,100,0
1,64,100,0
1,64,100,0
1,64,100,0
1,71,100,0
1,64,100,0
1,64,100,0
1,64,100,0
1,71,100,0
1,64,100,0
1,64,100,0
1,71,100,96
1,69,100,0
1,66,100,0
1,71,100,0
1,69,100,0
1,66,100,0
1,71,100,0
1,69,100,0
1,66,100,0
1,71,100,0
1,69,100,0
1,71,100,0
1,69,100,0
1,71,100,0
1,72,100,0
1,64,100,0
1,71,100,0
1,64,100,0
1,64,100,0
1,64,100,0
1,71,100,0
1,64,100,0
1,64,100,0
1,64,100,0
1,71,100,0
1,64,100,0
1,64,100,0
1,64,100,0
1,71,100,0
1,64,100,0
1,64,100,0
1,64,100,0
1,71,100,0
1,64,100,0
1,64,100,0
1,64,100,0
1,71,100,0
1,64,100,0
1,64,100,0
1,64,100,0
1,71,100,0
1,64,100,0
1,64,100,0
1,64,100,0
1,71,100,0
1,64,100,0
1,64,100,0
1,71,100,96
1,69,100,0
1,66,100,0
1,71,100,0
1,69,100,0
1,66,100,0
1,71,100,0
1,69,100,0
1,66,100,0
1,71,100,0
1,69,100,0
1,71,100,0
1,69,100,0
1,71,100,0
1,72,100,0
1,64,100,0
1,71,100,0
1,64,100,0
1,64,100,0
1,64,100,0
1,71,100,0
1,64,100,0
1,64,100,0
1,64,100,0
1,71,100,0
1,64,100,0
1,64,100,0
1,64,100,0
1,71,100,0
1,64,100,0
1,64,100,0
1,64,100,0
1,71,100,0
1,64,100,0
1,64,100,0
1,64,100,0
1,71,100,0
1,64,100,0
1,64,100,0
1,64,100,0
1,71,100,0
1,64,100,0
1,64,100,0
1,64,100,0
1,71,100,0
1,64,100,0
1,64,100,0
1,71,100,96
1,69,100,0
1,66,100,0
1,71,100,0
1,69,100,0
1,66,100,0
1,71,100,0
1,69,100,0
1,66,100,0
1,71,100,0
1,69,100,0
1,71,100,0
1,69,100,0
1,71,100,0
1,72,100,0
1,64,100,0
1,71,100,0
1,64,100,0
1,64,100,0
1,64,100,0
1,71,100,0
1,64,100,0
1,64,100,0
1,64,100,0
1,71,100,0
1,64,100,0
1,64,100,0
1,64,100,0
1,71,100,0
1,64,100,0
1,64,100,0
1,64,100,0
1,71,100,0
1,64,100,0
1,64,100,0
1,64,100,0
1,71,100,0
1,64,100,0
1,64,100,0
1,64,100,0
1,71,100,0
1,64,100,0
1,64,100,0
1,64,100,0
1,71,100,0
1,64,100,0
1,64,100,0
1,71,100,96
1,69,100,0
1,66,100,0
1,71,100,0
1,69,100,0
1,66,100,0
1,71,100,0
1,69,100,0
1,66,100,0
1,71,100,0
1,69,100,0
1,71,100,0
1,69,100,0
1,71,100,0
1,72,100,0
1,60,100,0
1,60,100,0
1,60,100,0
1,60,100,0
1,60,100,0
1,60,100,0
1,60,100,0
1,60,100,0
1,60,100,0
1,62,100,0
1,64,100,0
1,71,100,0
1,71,100,0
1,64,100,0
1,64,100,0
1,71,100,0
1,71,100,0
1,64,100,0
1,71,100,0
1,64,100,0
1,71,100,0
1,64,100,0
1,64,100,0
1,71,100,0
1,71,100,0
1,64,100,0
1,71,100,0
1,64,100,0
1,64,100,0
1,71,100,0
1,71,100,0
1,64,100,0
1,64,100,0
1,71,100,0
1,64,100,0
1,71,100,0
1,60,100,0
1,60,100,0
1,60,100,0
1,60,100,0
1,60,100,0
1,60,100,0
1,60,100,0
1,60,100,0
1,60,100,0
1,60,100,0
1,74,100,0
1,67,100,0
1,74,100,0
1,67,100,0
1,67,100,0
1,67,100,0
1,67,100,0
1,67,100,0
1,67,100,0
1,67,100,0
1,67,100,0
1,67,100,0
1,67,100,0
1,67,100,0
1,67,100,0
1,60,100,0
1,60,100,0
1,60,100,0
1,60,100,0
1,60,100,0
1,60,100,0
1,60,100,0
1,60,100,0
1,60,100,0
1,62,100,0
1,64,100,0
1,71,100,0
1,71,100,0
1,64,100,0
1,64,100,0
1,71,100,0
1,64,100,0
1,71,100,0
1,71,100,0
1,64,100,0
1,64,100,0
1,71,100,0
1,64,100,0
1,71,100,0
1,71,100,0
1,64,100,0
1,64,100,0
1,71,100,0
1,64,100,0
1,71,100,0
1,71,100,0
1,64,100,0
1,64,100,0
1,71,100,0
1,71,100,0
1,64,100,0
1,60,100,0
1,60,100,0
1,60,100,0
1,60,100,0
1,60,100,0
1,60,100,0
1,60,100,0
1,60,100,0
1,60,100,0
1,60,100,0
1,59,100,0
1,66,100,0
1,59,100,0
1,66,100,0
1,71,100,0
1,71,100,0
1,71,100,0
1,69,100,0
1,66,100,0
1,59,100,0
1,59,100,0
1,71,100,0
1,71,100,0
1,71,100,0
1,69,100,0
1,66,100,0
1,60,100,0
1,60,100,0
1,72,100,0
1,72,100,0
1,72,100,0
1,70,100,0
1,67,100,0
1,62,100,0
1,62,100,0
1,74,100,0
1,74,100,0
1,74,100,0
1,72,100,0
1,69,100,0
1,64,100,96
1,71,100,0
1,64,100,0
1,64,100,0
1,64,100,0
1,71,100,0
1,64,100,0
1,64,100,0
1,64,100,0
1,71,100,0
1,64,100,0
1,64,100,0
1,64,100,0
1,71,100,0
1,64,100,0
1,64,100,0
1,64,100,0
1,71,100,0
1,64,100,0
1,64,100,0
1,64,100,0
1,71,100,0
1,64,100,0
1,64,100,0
1,64,100,0
1,71,100,0
1,64,100,0
1,64,100,0
1,64,100,0
1,71,100,0
1,64,100,0
1,64,100,0
1,71,100,96
1,69,100,0
1,66,100,0
1,71,100,0
1,69,100,0
1,66,100,0
1,71,100,0
1,69,100,0
1,66,100,0
1,71,100,0
1,69,100,0
1,71,100,0
1,69,100,0
1,71,100,0
1,72,100,0
1,64,100,0
1,71,100,0
1,64,100,0
1,64,100,0
1,64,100,0
1,71,100,0
1,64,100,0
1,64,100,0
1,64,100,0
1,71,100,0
1,64,100,0
1,64,100,0
1,64,100,0
1,71,100,0
1,64,100,0
1,64,100,0
1,64,100,0
1,71,100,0
1,64,100,0
1,64,100,0
1,64,100,0
1,71,100,0
1,64,100,0
1,64,100,0
1,64,100,0
1,71,100,0
1,64,100,0
1,64,100,0
1,64,100,0
1,71,100,0
1,64,100,0
1,64,100,0
1,71,100,96
1,69,100,0
1,66,100,0
1,71,100,0
1,69,100,0
1,66,100,0
1,71,100,0
1,69,100,0
1,66,100,0
1,71,100,0
1,69,100,0
1,71,100,0
1,69,100,0
1,71,100,0
1,72,100,0
1,64,100,0
1,71,100,0
1,64,100,0
1,64,100,0
1,64,100,0
1,71,100,0
1,64,100,0
1,64,100,0
1,64,100,0
1,71,100,0
1,64,100,0
1,64,100,0
1,64,100,0
1,71,100,0
1,64,100,0
1,64,100,0
1,64,100,0
1,71,100,0
1,64,100,0
1,64,100,0
1,64,100,0
1,71,100,0
1,64,100,0
1,64,100,0
1,64,100,0
1,71,100,0
1,64,100,0
1,64,100,0
1,64,100,0
1,71,100,0
1,64,100,0
1,64,100,0
1,71,100,96
1,69,100,0
1,66,100,0
1,71,100,0
1,69,100,0
1,66,100,0
1,71,100,0
1,69,100,0
1,66,100,0
1,71,100,0
1,69,100,0
1,71,100,0
1,69,100,0
1,71,100,0
1,72,100,0
1,64,100,0
1,71,100,0
1,64,100,0
1,64,100,0
1,64,100,0
1,71,100,0
1,64,100,0
1,64,100,0
1,64,100,0
1,71,100,0
1,64,100,0
1,64,100,0
1,64,100,0
1,71,100,0
1,64,100,0
1,64,100,0
1,64,100,0
1,71,100,0
1,64,100,0
1,64,100,0
1,64,100,0
1,71,100,0
1,64,100,0
1,64,100,0
1,64,100,0
1,71,100,0
1,64,100,0
1,64,100,0
1,64,100,0
1,71,100,0
1,64,100,0
1,64,100,0
1,71,100,96
1,69,100,0
1,66,100,0
1,71,100,0
1,69,100,0
1,66,100,0
1,71,100,0
1,69,100,0
1,66,100,0
1,71,100,0
1,69,100,0
1,71,100,0
1,69,100,0
1,71,100,0
1,72,100,0
1,60,100,0
1,60,100,0
1,60,100,0
1,60,100,0
1,60,100,0
1,60,100,0
1,60,100,0
1,60,100,0
1,60,100,0
1,62,100,0
1,64,100,0
1,71,100,0
1,71,100,0
1,64,100,0
1,64,100,0
1,71,100,0
1,71,100,0
1,64,100,0
1,71,100,0
1,64,100,0
1,71,100,0
1,64,100,0
1,64,100,0
1,71,100,0
1,71,100,0
1,64,100,0
1,71,100,0
1,64,100,0
1,64,100,0
1,71,100,0
1,71,100,0
1,64,100,0
1,64,100,0
1,71,100,0
1,64,100,0
1,71,100,0
1,60,100,0
1,60,100,0
1,60,100,0
1,60,100,0
1,60,100,0
1,60,100,0
1,60,100,0
1,60,100,0
1,60,100,0
1,60,100,0
1,74,100,0
1,67,100,0
1,74,100,0
1,67,100,0
1,67,100,0
1,67,100,0
1,67,100,0
1,67,100,0
1,67,100,0
1,67,100,0
1,67,100,0
1,67,100,0
1,67,100,0
1,67,100,0
1,67,100,0
1,60,100,0
1,60,100,0
1,60,100,0
1,60,100,0
1,60,100,0
1,60,100,0
1,60,100,0
1,60,100,0
1,60,100,0
1,62,100,0
1,64,100,0
1,71,100,0
1,71,100,0
1,64,100,0
1,64,100,0
1,71,100,0
1,64,100,0
1,71,100,0
1,71,100,0
1,64,100,0
1,64,100,0
1,71,100,0
1,64,100,0
1,71,100,0
1,71,100,0
1,64,100,0
1,64,100,0
1,71,100,0
1,64,100,0
1,71,100,0
1,71,100,0
1,64,100,0
1,64,100,0
1,71,100,0
1,71,100,0
1,64,100,0
1,60,100,0
1,60,100,0
1,60,100,0
1,60,100,0
1,60,100,0
1,60,100,0
1,60,100,0
1,60,100,0
1,60,100,0
1,60,100,0
1,59,100,0
1,66,100,0
1,59,100,0
1,66,100,0
1,71,100,0
1,71,100,0
1,71,100,0
1,69,100,0
1,66,100,0
1,59,100,0
1,59,100,0
1,71,100,0
1,71,100,0
1,71,100,0
1,69,100,0
1,66,100,0
1,60,100,0
1,60,100,0
1,72,100,0
1,72,100,0
1,72,100,0
1,70,100,0
1,67,100,0
1,62,100,0
1,62,100,0
1,74,100,0
1,74,100,0
1,74,100,0
1,72,100,0
1,69,100,0
1,83,100,96
1,81,100,0
1,79,100,0
1,79,100,0
1,79,100,0
1,78,100,0
1,78,100,0
1,78,100,0
1,76,100,0
1,76,100,0
1,76,100,0
1,74,100,0
1,76,100,0
1,76,100,0
1,74,100,0
1,71,100,0
1,83,100,48
1,81,100,0
1,79,100,0
1,79,100,0
1,79,100,0
1,78,100,0
1,78,100,0
1,78,100,0
1,76,100,0
1,76,100,0
1,76,100,0
1,74,100,0
1,83,100,0
1,81,100,0
1,79,100,0
1,79,100,0
1,79,100,0
1,78,100,0
1,78,100,0
1,78,100,0
1,76,100,0
1,76,100,0
1,76,100,0
1,74,100,0
1,76,100,0
1,76,100,0
1,74,100,0
1,71,100,0
1,83,100,48
1,81,100,0
1,79,100,0
1,79,100,0
1,79,100,0
1,78,100,0
1,78,100,0
1,78,100,0
1,76,100,0
1,76,100,0
1,76,100,0
1,74,100,0
1,55,100,0
1,62,100,0
1,57,100,96
1,64,100,0
1,57,100,0
1,64,100,0
1,57,100,0
1,64,100,0
1,64,100,96
1,71,100,0
1,64,100,0
1,71,100,0
1,64,100,0
1,71,100,0
1,62,100,0
1,69,100,0
1,62,100,0
1,69,100,0
1,62,100,0
1,69,100,0
1,62,100,0
1,69,100,0
1,62,100,0
1,69,100,0
1,62,100,0
1,69,100,0
1,64,100,0
1,71,100,0
1,64,100,0
1,71,100,0
1,55,100,0
1,62,100,0
1,57,100,96
1,64,100,0
1,57,100,0
