track,note,velocity,time
1,69,110,6624
1,69,0,94
1,74,110,2
1,74,0,94
1,76,110,2
1,76,0,46
1,77,110,2
1,77,0,142
1,79,110,2
1,79,0,94
1,77,110,2
1,77,0,94
1,76,110,2
1,76,0,46
1,72,110,2
1,72,0,94
1,72,110,98
1,72,0,46
1,72,110,2
1,72,0,46
1,72,110,2
1,72,0,46
1,70,110,2
1,70,0,94
1,70,110,2
1,70,0,94
1,74,110,2
1,74,0,94
1,77,110,2
1,77,0,46
1,77,110,2
1,77,0,46
1,79,110,2
1,79,0,94
1,74,110,2
1,74,0,94
1,69,110,50
1,69,0,46
1,74,110,2
1,74,0,94
1,76,110,2
1,76,0,94
1,77,110,2
1,77,0,94
1,79,110,2
1,79,0,94
1,77,110,2
1,77,0,94
1,76,110,2
1,76,0,46
1,72,110,2
1,72,0,142
1,74,110,866
1,74,0,94
1,76,110,2
1,76,0,46
1,76,110,2
1,76,0,46
1,77,110,2
1,77,0,94
1,79,110,2
1,79,0,46
1,77,110,2
1,77,0,142
1,76,110,2
1,76,0,46
1,72,110,2
1,72,0,142
1,69,110,2
1,69,0,46
1,72,110,2
1,72,0,142
1,69,110,2
1,69,0,94
1,72,110,2
1,72,0,94
1,77,110,2
1,77,0,94
1,77,110,2
1,77,0,46
1,79,110,2
1,79,0,94
1,74,110,2
1,74,0,142
1,69,110,50
1,69,0,46
1,74,110,2
1,74,0,46
1,76,110,2
1,76,0,94
1,77,110,2
1,77,0,142
1,79,110,2
1,79,0,94
1,77,110,2
1,77,0,46
1,76,110,2
1,76,0,94
1,72,110,2
1,72,0,142
1,74,110,386
1,74,0,94
1,72,110,2
1,72,0,94
1,70,110,2
1,70,0,46
1,70,110,2
1,70,0,142
1,77,110,386
1,77,0,94
1,77,110,2
1,77,0,94
1,76,110,2
1,76,0,46
1,77,110,2
1,77,0,142
1,77,110,386
1,77,0,94
1,77,110,2
1,77,0,94
1,77,110,2
1,77,0,46
1,77,110,2
1,77,0,142
1,77,110,2
1,77,0,94
1,77,110,2
1,77,0,94
1,79,110,2
1,79,0,94
1,81,110,2
1,81,0,94
1,79,110,2
1,79,0,94
1,77,110,2
1,77,0,46
1,74,110,2
1,74,0,46
1,74,110,2
1,74,0,94
1,74,110,2
1,74,0,160
1,74,110,320
1,74,0,94
1,74,110,2
1,74,0,94
1,69,110,2
1,69,0,46
1,70,110,2
1,70,0,142
1,77,110,386
1,77,0,94
1,77,110,2
1,77,0,94
1,76,110,2
1,76,0,46
1,77,110,2
1,77,0,142
1,77,110,386
1,77,0,94
1,77,110,2
1,77,0,94
1,76,110,2
1,76,0,94
1,77,110,2
1,77,0,94
1,76,110,2
1,76,0,46
1,77,110,2
1,77,0,94
1,79,110,2
1,79,0,142
1,81,110,2
1,81,0,94
1,79,110,2
1,79,0,94
1,77,110,2
1,77,0,46
1,74,110,2
1,74,0,46
1,74,110,2
1,74,0,94
1,74,110,2
1,74,0,160
1,86,110,12800
1,86,0,256
1,81,110,32
1,81,0,160
1,86,110,32
1,86,0,160
1,88,110,32
1,88,0,94
1,89,110,2
1,89,0,190
1,89,110,2
1,89,0,160
1,88,110,32
1,88,0,190
1,88,110,2
1,88,0,160
1,86,110,32
1,86,0,256
1,86,110,32
1,86,0,94
1,86,110,2
1,86,0,190
1,88,110,2
1,88,0,160
1,89,110,32
1,89,0,190
1,91,110,2
1,91,0,256
1,89,110,32
1,89,0,160
1,88,110,32
1,88,0,160
1,86,110,32
1,86,0,160
1,86,110,224
1,86,0,160
1,88,110,32
1,88,0,160
1,89,110,32
1,89,0,126
1,91,110,2
1,91,0,126
1,93,110,2
1,93,0,126
1,94,110,2
1,94,0,94
1,93,110,2
1,93,0,816
1,86,110,912
1,86,0,256
1,81,110,32
1,81,0,160
1,86,110,32
1,86,0,160
1,88,110,32
1,88,0,94
1,89,110,2
1,89,0,256
1,91,110,32
1,91,0,160
1,89,110,32
1,89,0,160
1,88,110,32
1,88,0,160
1,86,110,32
1,86,0,160
1,86,110,224
1,86,0,160
1,88,110,32
1,88,0,94
1,89,110,2
1,89,0,190
1,91,110,2
1,91,0,160
1,89,110,32
1,89,0,190
1,88,110,2
1,88,0,160
1,86,110,32
1,86,0,256
1,86,110,32
1,86,0,160
1,86,110,32
1,86,0,160
1,88,110,32
1,88,0,160
1,89,110,32
1,89,0,160
1,91,110,32
1,91,0,160
1,93,110,32
1,93,0,160
1,94,110,32
1,94,0,160
1,93,110,32
1,93,0,720
1,89,110,240
1,89,0,160
1,89,110,32
1,89,0,160
1,88,110,32
1,88,0,94
1,89,110,2
1,89,0,432
1,93,110,624
1,93,0,160
1,93,110,32
1,93,0,160
1,91,110,32
1,91,0,94
1,93,110,2
1,93,0,432
1,89,110,528
1,89,0,256
1,89,110,32
1,89,0,94
1,89,110,2
1,89,0,160
1,89,110,32
1,89,0,94
1,91,110,2
1,91,0,94
1,89,110,98
1,89,0,160
1,89,110,32
1,89,0,160
1,91,110,32
1,91,0,160
1,93,110,32
1,93,0,160
1,91,110,32
1,91,0,160
1,91,110,32
1,91,0,160
1,86,110,32
1,86,0,160
1,89,110,32
1,89,0,94
1,86,110,2
1,86,0,160
1,89,110,704
1,89,0,160
1,89,110,32
1,89,0,160
1,88,110,32
1,88,0,94
1,89,110,2
1,89,0,432
1,93,110,624
1,93,0,160
1,93,110,32
1,93,0,160
1,91,110,32
1,91,0,94
1,93,110,2
1,93,0,624
1,91,110,48
1,91,0,352
1,89,110,128
1,89,0,94
1,89,110,2
1,89,0,94
1,89,110,2
1,89,0,160
1,89,110,32
1,89,0,256
1,89,110,32
1,89,0,94
1,89,110,2
1,89,0,190
1,91,110,2
1,91,0,94
1,93,110,98
1,93,0,190
1,91,110,2
1,91,0,160
1,91,110,32
1,91,0,190
1,86,110,2
1,86,0,160
1,86,110,32
1,86,0,256
1,86,110,1280
1,86,0,256
1,81,110,32
1,81,0,160
1,86,110,32
1,86,0,160
1,88,110,32
1,88,0,94
1,89,110,2
1,89,0,190
1,91,110,2
1,91,0,160
1,89,110,32
1,89,0,190
1,88,110,2
1,88,0,160
1,84,110,32
1,84,0,256
1,93,110,224
1,93,0,160
1,93,110,32
1,93,0,94
1,93,110,2
1,93,0,190
1,91,110,2
1,91,0,160
1,91,110,32
1,91,0,256
1,86,110,32
1,86,0,94
1,86,110,2
1,86,0,256
1,81,110,128
1,81,0,94
1,86,110,2
1,86,0,160
1,88,110,32
1,88,0,94
1,89,110,2
1,89,0,256
1,91,110,32
1,91,0,160
1,89,110,32
1,89,0,94
1,88,110,2
1,88,0,160
1,84,110,32
1,84,0,256
1,86,110,1568
1,86,0,160
1,86,110,32
1,86,0,160
1,88,110,32
1,88,0,94
1,89,110,2
1,89,0,190
1,91,110,2
1,91,0,160
1,89,110,32
1,89,0,190
1,88,110,2
1,88,0,94
1,84,110,2
1,84,0,160
1,88,110,224
1,88,0,160
1,88,110,32
1,88,0,160
1,84,110,32
1,84,0,94
1,89,110,2
1,89,0,256
1,89,110,32
1,89,0,94
1,91,110,2
1,91,0,190
1,91,110,2
1,91,0,94
1,86,110,2
1,86,0,160
1,86,110,320
1,86,0,94
1,86,110,2
1,86,0,94
1,88,110,2
1,88,0,160
1,89,110,32
1,89,0,190
1,91,110,2
1,91,0,160
1,93,110,32
1,93,0,256
1,94,110,32
1,94,0,94
1,93,110,2
1,93,0,432
1,94,110,48
1,94,0,336
1,89,110,240
1,89,0,160
1,89,110,32
1,89,0,160
1,88,110,32
1,88,0,94
1,89,110,2
1,89,0,256
1,93,110,320
1,93,0,94
1,93,110,2
1,93,0,94
1,91,110,2
1,91,0,46
1,93,110,2
1,93,0,208
1,89,110,320
1,89,0,94
1,89,110,2
1,89,0,94
1,89,110,2
1,89,0,46
1,89,110,2
1,89,0,142
1,89,110,2
1,89,0,94
1,89,110,2
1,89,0,94
1,91,110,2
1,91,0,94
1,93,110,2
1,93,0,94
1,91,110,2
1,91,0,94
1,91,110,2
1,91,0,30
1,93,110,2
1,93,0,30
1,91,110,2
1,91,0,30
1,86,110,2
1,86,0,94
1,86,110,2
1,86,0,94
1,89,110,386
1,89,0,94
1,89,110,2
1,89,0,94
1,88,110,2
1,88,0,46
1,89,110,2
1,89,0,208
1,93,110,320
1,93,0,94
1,93,110,2
1,93,0,94
1,91,110,2
1,91,0,46
1,93,110,2
1,93,0,208
1,89,110,320
1,89,0,94
1,89,110,2
1,89,0,94
1,89,110,2
1,89,0,46
1,89,110,2
1,89,0,142
1,89,110,2
1,89,0,94
1,89,110,2
1,89,0,94
1,93,110,98
1,93,0,94
1,91,110,2
1,91,0,94
1,91,110,2
1,91,0,94
1,86,110,2
1,86,0,94
1,86,110,2
1,86,0,160
1,94,110,43616
1,94,0,94
1,93,110,2
1,93,0,94
1,91,110,2
1,91,0,94
1,93,110,2
1,93,0,352
1,93,110,896
1,93,0,46
1,91,110,2
1,91,0,46
1,91,110,2
1,91,0,94
1,89,110,2
1,89,0,94
1,91,110,2
1,91,0,352
1,91,110,896
1,91,0,46
1,93,110,2
1,93,0,46
1,91,110,2
1,91,0,94
1,89,110,2
1,89,0,94
1,91,110,2
1,91,0,256
1,93,110,608
1,93,0,94
1,93,110,2
1,93,0,94
1,93,110,2
1,93,0,94
1,93,110,2
1,93,0,624
1,94,110,1008
1,94,0,94
1,93,110,2
1,93,0,94
1,91,110,2
1,91,0,94
1,93,110,2
1,93,0,352
1,93,110,896
1,93,0,46
1,91,110,2
1,91,0,46
1,91,110,2
1,91,0,94
1,89,110,2
1,89,0,94
1,91,110,2
1,91,0,352
1,91,110,896
1,91,0,46
1,93,110,2
1,93,0,46
1,91,110,2
1,91,0,94
1,89,110,2
1,89,0,94
1,91,110,2
1,91,0,256
1,93,110,608
1,93,0,94
1,93,110,2
1,93,0,94
1,93,110,2
1,93,0,94
1,93,110,2
1,93,0,1392
1,91,110,48
1,91,0,94
1,86,110,12290
1,86,0,256
1,81,110,32
1,81,0,160
1,86,110,32
1,86,0,160
1,88,110,32
1,88,0,94
1,89,110,2
1,89,0,190
1,91,110,2
1,91,0,160
1,89,110,32
1,89,0,190
1,88,110,2
1,88,0,160
1,84,110,32
1,84,0,256
1,93,110,224
1,93,0,160
1,93,110,32
1,93,0,94
1,93,110,2
1,93,0,190
1,91,110,2
1,91,0,160
1,91,110,32
1,91,0,256
1,86,110,32
1,86,0,94
1,86,110,2
1,86,0,256
1,81,110,128
1,81,0,94
1,86,110,2
1,86,0,160
1,88,110,32
1,88,0,94
1,89,110,2
1,89,0,256
1,91,110,32
1,91,0,160
1,89,110,32
1,89,0,94
1,88,110,2
1,88,0,160
1,84,110,32
1,84,0,256
1,86,110,1568
1,86,0,160
1,86,110,32
1,86,0,160
1,88,110,32
1,88,0,94
1,89,110,2
1,89,0,190
1,91,110,2
1,91,0,160
1,89,110,32
1,89,0,190
1,88,110,2
1,88,0,94
1,84,110,2
1,84,0,160
1,88,110,224
1,88,0,160
1,88,110,32
1,88,0,160
1,84,110,32
1,84,0,94
1,89,110,2
1,89,0,256
1,89,110,32
1,89,0,94
1,91,110,2
1,91,0,190
1,91,110,2
1,91,0,94
1,86,110,2
1,86,0,160
1,86,110,320
1,86,0,94
1,86,110,2
1,86,0,94
1,88,110,2
1,88,0,160
1,89,110,32
1,89,0,190
1,91,110,2
1,91,0,160
1,93,110,32
1,93,0,256
1,94,110,32
1,94,0,94
1,93,110,2
1,93,0,432
1,94,110,48
1,94,0,336
1,89,110,240
1,89,0,160
1,89,110,32
1,89,0,160
1,88,110,32
1,88,0,94
1,89,110,2
1,89,0,256
1,93,110,320
1,93,0,94
1,93,110,2
1,93,0,94
1,91,110,2
1,91,0,46
1,93,110,2
1,93,0,208
1,89,110,320
1,89,0,94
1,89,110,2
1,89,0,94
1,89,110,2
1,89,0,46
1,89,110,2
1,89,0,142
1,89,110,2
1,89,0,94
1,89,110,2
1,89,0,94
1,91,110,2
1,91,0,94
1,93,110,2
1,93,0,94
1,91,110,2
1,91,0,94
1,91,110,2
1,91,0,30
1,93,110,2
1,93,0,30
1,91,110,2
1,91,0,30
1,86,110,2
1,86,0,94
1,86,110,2
1,86,0,94
1,89,110,386
1,89,0,94
1,89,110,2
1,89,0,94
1,88,110,2
1,88,0,46
1,89,110,2
1,89,0,208
1,93,110,320
1,93,0,94
1,93,110,2
1,93,0,94
1,91,110,2
1,91,0,46
1,93,110,2
1,93,0,208
1,89,110,320
1,89,0,94
1,89,110,2
1,89,0,94
1,89,110,2
1,89,0,46
1,89,110,2
1,89,0,142
1,89,110,2
1,89,0,94
1,89,110,2
1,89,0,94
1,93,110,98
1,93,0,94
1,91,110,2
1,91,0,94
1,91,110,2
1,91,0,94
1,86,110,2
1,86,0,94
1,86,110,2
1,86,0,160
1,89,110,320
1,89,0,94
1,89,110,2
1,89,0,94
1,88,110,2
1,88,0,46
1,89,110,2
1,89,0,208
1,93,110,320
1,93,0,94
1,93,110,2
1,93,0,94
1,91,110,2
1,91,0,46
1,93,110,2
1,93,0,208
1,89,110,320
1,89,0,94
1,89,110,2
1,89,0,94
1,89,110,2
1,89,0,46
1,89,110,2
1,89,0,142
1,89,110,2
1,89,0,94
1,89,110,2
1,89,0,94
1,91,110,2
1,91,0,94
1,93,110,2
1,93,0,94
1,91,110,2
1,91,0,94
1,91,110,2
1,91,0,30
1,93,110,2
1,93,0,30
1,91,110,2
1,91,0,30
1,86,110,2
1,86,0,94
1,86,110,2
1,86,0,160
1,89,110,320
1,89,0,94
1,89,110,2
1,89,0,94
1,88,110,2
1,88,0,46
1,89,110,2
1,89,0,208
1,93,110,320
1,93,0,94
1,93,110,2
1,93,0,94
1,91,110,2
1,91,0,46
1,93,110,2
1,93,0,304
1,91,110,32
1,91,0,94
1,89,110,0
1,89,0,12
1,89,110,2
1,89,0,9
1,89,110,2
1,89,0,6
1,89,110,2
1,89,0,13
1,89,110,2
1,89,0,10
1,89,110,2
1,89,0,7
1,91,110,3
1,91,0,14
1,93,110,13
1,93,0,5
1,91,110,2
1,91,0,16
1,89,110,0
1,89,0,94
1,86,110,2
1,86,0,94
1,86,110,2
1,86,0,336
1,74,110,6768
1,74,0,46
1,76,110,2
1,76,0,142
1,77,110,2
1,77,0,94
1,79,110,2
1,79,0,94
1,77,110,2
1,77,0,46
1,76,110,2
1,76,0,94
1,72,110,2
1,72,0,46
1,72,110,2
1,72,0,94
1,67,110,50
1,67,0,46
1,72,110,2
1,72,0,94
1,67,110,2
1,67,0,46
1,70,110,2
1,70,0,18
1,77,110,0
1,77,0,18
1,77,110,0
1,77,0,18
1,79,110,0
1,79,0,18
1,74,110,0
1,74,0,336
2,62,110,0
2,62,0,46
2,62,110,2
2,62,0,46
2,57,110,2
2,57,0,46
2,57,110,2
2,57,0,46
2,62,110,2
2,62,0,46
2,62,110,2
2,62,0,46
2,64,110,2
2,64,0,46
2,64,110,2
2,64,0,46
2,65,110,2
2,65,0,46
2,65,110,2
2,65,0,46
2,64,110,2
2,64,0,46
2,64,110,2
2,64,0,46
2,62,110,2
2,62,0,46
2,62,110,2
2,62,0,46
2,64,110,2
2,64,0,46
2,57,110,2
2,57,0,46
2,60,110,2
2,60,0,46
2,60,110,2
2,60,0,46
2,55,110,2
2,55,0,46
2,55,110,2
2,55,0,46
2,60,110,2
2,60,0,46
2,60,110,2
2,60,0,46
2,62,110,2
2,62,0,46
2,62,110,2
2,62,0,46
2,64,110,2
2,64,0,46
2,64,110,2
2,64,0,46
2,62,110,2
2,62,0,46
2,62,110,2
2,62,0,46
2,60,110,2
2,60,0,46
2,60,110,2
2,60,0,46
2,64,110,2
2,64,0,46
2,60,110,2
2,60,0,46
2,62,110,2
2,62,0,46
2,62,110,2
2,62,0,46
2,57,110,2
2,57,0,46
2,57,110,2
2,57,0,46
2,62,110,2
2,62,0,46
2,62,110,2
2,62,0,46
2,64,110,2
2,64,0,46
2,64,110,2
2,64,0,46
2,65,110,2
2,65,0,46
