track,note,velocity,time
1,76,110,25056
1,76,0,256
1,78,110,32
1,78,0,256
1,79,110,32
1,79,0,160
1,81,110,32
1,81,0,256
1,79,110,32
1,79,0,256
1,78,110,32
1,78,0,160
1,76,110,32
1,76,0,256
1,79,110,32
1,79,0,256
1,78,110,32
1,78,0,160
1,74,110,32
1,74,0,256
1,78,110,32
1,78,0,256
1,76,110,224
1,76,0,256
1,78,110,32
1,78,0,256
1,79,110,32
1,79,0,160
1,81,110,32
1,81,0,256
1,79,110,32
1,79,0,256
1,78,110,32
1,78,0,160
1,76,110,32
1,76,0,256
1,79,110,32
1,79,0,256
1,78,110,32
1,78,0,160
1,74,110,32
1,74,0,160
1,76,110,608
1,76,0,256
1,78,110,32
1,78,0,256
1,79,110,32
1,79,0,160
1,81,110,32
1,81,0,256
1,79,110,32
1,79,0,256
1,78,110,32
1,78,0,160
1,76,110,32
1,76,0,256
1,79,110,32
1,79,0,256
1,78,110,32
1,78,0,160
1,74,110,32
1,74,0,256
1,78,110,32
1,78,0,256
1,76,110,224
1,76,0,256
1,78,110,32
1,78,0,256
1,79,110,32
1,79,0,160
1,81,110,32
1,81,0,256
1,79,110,32
1,79,0,256
1,78,110,32
1,78,0,160
1,76,110,32
1,76,0,256
1,79,110,32
1,79,0,256
1,78,110,32
1,78,0,160
1,74,110,32
1,74,0,160
1,81,110,608
1,81,0,256
1,83,110,32
1,83,0,256
1,84,110,32
1,84,0,160
1,86,110,32
1,86,0,256
1,84,110,32
1,84,0,256
1,83,110,32
1,83,0,160
1,81,110,32
1,81,0,256
1,84,110,32
1,84,0,256
1,83,110,32
1,83,0,160
1,79,110,32
1,79,0,256
1,83,110,32
1,83,0,256
1,81,110,128
1,81,0,94
1,81,110,2
1,81,0,256
1,83,110,32
1,83,0,256
1,84,110,32
1,84,0,160
1,86,110,32
1,86,0,256
1,84,110,32
1,84,0,256
1,83,110,32
1,83,0,160
1,81,110,32
1,81,0,256
1,84,110,32
1,84,0,256
1,83,110,32
1,83,0,160
1,79,110,32
1,79,0,160
1,81,110,608
1,81,0,256
1,83,110,32
1,83,0,256
1,84,110,32
1,84,0,160
1,86,110,32
1,86,0,256
1,84,110,32
1,84,0,256
1,83,110,32
1,83,0,160
1,81,110,32
1,81,0,256
1,84,110,32
1,84,0,256
1,83,110,32
1,83,0,160
1,79,110,32
1,79,0,256
1,83,110,32
1,83,0,256
1,81,110,224
1,81,0,256
1,83,110,32
1,83,0,256
1,84,110,32
1,84,0,160
1,86,110,32
1,86,0,256
1,84,110,32
1,84,0,256
1,83,110,32
1,83,0,160
1,81,110,32
1,81,0,256
1,84,110,32
1,84,0,256
1,83,110,32
1,83,0,160
1,79,110,32
1,79,0,160
1,76,110,608
1,76,0,94
1,76,110,2
1,76,0,256
1,76,110,32
1,76,0,94
1,76,110,2
1,76,0,256
1,79,110,32
1,79,0,94
1,76,110,2
1,76,0,256
1,79,110,32
1,79,0,94
1,76,110,2
1,76,0,256
1,81,110,32
1,81,0,94
1,76,110,2
1,76,0,256
1,81,110,32
1,81,0,94
1,76,110,2
1,76,0,256
1,76,110,800
1,76,0,94
1,76,110,2
1,76,0,256
1,76,110,32
1,76,0,94
1,76,110,2
1,76,0,256
1,79,110,32
1,79,0,94
1,76,110,2
1,76,0,256
1,79,110,32
1,79,0,94
1,76,110,2
1,76,0,256
1,81,110,32
1,81,0,94
1,76,110,2
1,76,0,256
1,81,110,32
1,81,0,94
1,76,110,2
1,76,0,256
1,84,110,32
1,84,0,94
1,83,110,2
1,83,0,94
1,81,110,2
1,81,0,94
1,79,110,2
1,79,0,94
1,81,110,2
1,81,0,160
1,76,110,224
1,76,0,94
1,76,110,2
1,76,0,256
1,76,110,32
1,76,0,94
1,76,110,2
1,76,0,256
1,79,110,32
1,79,0,94
1,76,110,2
1,76,0,256
1,79,110,32
1,79,0,94
1,76,110,2
1,76,0,256
1,81,110,32
1,81,0,94
1,76,110,2
1,76,0,256
1,81,110,32
1,81,0,94
1,76,110,2
1,76,0,256
1,76,110,800
1,76,0,94
1,76,110,2
1,76,0,256
1,76,110,32
1,76,0,94
1,76,110,2
1,76,0,256
1,79,110,32
1,79,0,94
1,76,110,2
1,76,0,256
1,79,110,32
1,79,0,94
1,76,110,2
1,76,0,256
1,81,110,32
1,81,0,94
1,76,110,2
1,76,0,256
1,81,110,32
1,81,0,94
1,76,110,2
1,76,0,256
1,76,110,800
1,76,0,1104
1,79,110,432
1,79,0,720
1,78,110,48
1,78,0,720
1,79,110,48
1,79,0,1104
1,79,110,432
1,79,0,720
1,78,110,48
1,78,0,720
1,79,110,48
1,79,0,1104
1,79,110,432
1,79,0,720
1,78,110,48
1,78,0,720
1,79,110,48
1,79,0,160
1,78,110,32
1,78,0,94
1,76,110,2
1,76,0,816
1,79,110,432
1,79,0,528
1,78,110,48
1,78,0,160
1,78,110,32
1,78,0,720
1,79,110,48
1,79,0,1104
1,82,110,432
1,82,0,720
1,81,110,48
1,81,0,720
1,82,110,48
1,82,0,720
1,86,110,816
1,86,0,720
1,84,110,48
1,84,0,720
1,86,110,48
1,86,0,1104
1,86,110,432
1,86,0,528
1,84,110,48
1,84,0,160
1,84,110,32
1,84,0,720
1,82,110,48
1,82,0,2832
1,76,110,49392
1,76,0,256
1,78,110,32
1,78,0,256
1,79,110,32
1,79,0,160
1,81,110,32
1,81,0,256
1,79,110,32
1,79,0,256
1,78,110,32
1,78,0,160
1,76,110,32
1,76,0,256
1,79,110,32
1,79,0,256
1,78,110,32
1,78,0,160
1,74,110,32
1,74,0,256
1,78,110,32
1,78,0,256
1,76,110,224
1,76,0,256
1,78,110,32
1,78,0,256
1,79,110,32
1,79,0,160
1,81,110,32
1,81,0,256
1,79,110,32
1,79,0,256
1,78,110,32
1,78,0,160
1,76,110,32
1,76,0,256
1,79,110,32
1,79,0,256
1,78,110,32
1,78,0,160
1,74,110,32
1,74,0,160
1,76,110,608
1,76,0,256
1,78,110,32
1,78,0,256
1,79,110,32
1,79,0,160
1,81,110,32
1,81,0,256
1,79,110,32
1,79,0,256
1,78,110,32
1,78,0,160
1,76,110,32
1,76,0,256
1,79,110,32
1,79,0,256
1,78,110,32
1,78,0,160
1,74,110,32
1,74,0,256
1,78,110,32
1,78,0,256
1,76,110,224
1,76,0,256
1,78,110,32
1,78,0,256
1,79,110,32
1,79,0,160
1,81,110,32
1,81,0,256
1,79,110,32
1,79,0,256
1,78,110,32
1,78,0,160
1,76,110,32
1,76,0,256
1,79,110,32
1,79,0,256
1,78,110,32
1,78,0,160
1,74,110,32
1,74,0,160
1,81,110,608
1,81,0,256
1,83,110,32
1,83,0,256
1,84,110,32
1,84,0,160
1,86,110,32
1,86,0,256
1,84,110,32
1,84,0,256
1,83,110,32
1,83,0,160
1,81,110,32
1,81,0,256
1,84,110,32
1,84,0,256
1,83,110,32
1,83,0,160
1,79,110,32
1,79,0,256
1,83,110,32
1,83,0,256
1,81,110,128
1,81,0,94
1,81,110,2
1,81,0,256
1,83,110,32
1,83,0,256
1,84,110,32
1,84,0,160
1,86,110,32
1,86,0,256
1,84,110,32
1,84,0,256
1,83,110,32
1,83,0,160
1,81,110,32
1,81,0,256
1,84,110,32
1,84,0,256
1,83,110,32
1,83,0,160
1,79,110,32
1,79,0,160
1,81,110,608
1,81,0,256
1,83,110,32
1,83,0,256
1,84,110,32
1,84,0,160
1,86,110,32
1,86,0,256
1,84,110,32
1,84,0,256
1,83,110,32
1,83,0,160
1,81,110,32
1,81,0,256
1,84,110,32
1,84,0,256
1,83,110,32
1,83,0,160
1,79,110,32
1,79,0,256
1,83,110,32
1,83,0,256
1,81,110,224
1,81,0,256
1,83,110,32
1,83,0,256
1,84,110,32
1,84,0,160
1,86,110,32
1,86,0,256
1,84,110,32
1,84,0,256
1,83,110,32
1,83,0,160
1,81,110,32
1,81,0,256
1,84,110,32
1,84,0,256
1,83,110,32
1,83,0,160
1,79,110,32
1,79,0,160
1,76,110,608
1,76,0,94
1,76,110,2
1,76,0,256
1,76,110,32
1,76,0,94
1,76,110,2
1,76,0,256
1,79,110,32
1,79,0,94
1,76,110,2
1,76,0,256
1,79,110,32
1,79,0,94
1,76,110,2
1,76,0,256
1,81,110,32
1,81,0,94
1,76,110,2
1,76,0,256
1,81,110,32
1,81,0,94
1,76,110,2
1,76,0,256
1,76,110,800
1,76,0,94
1,76,110,2
1,76,0,256
1,76,110,32
1,76,0,94
1,76,110,2
1,76,0,256
1,79,110,32
1,79,0,94
1,76,110,2
1,76,0,256
1,79,110,32
1,79,0,94
1,76,110,2
1,76,0,256
1,81,110,32
1,81,0,94
1,76,110,2
1,76,0,256
1,81,110,32
1,81,0,94
1,76,110,2
1,76,0,256
1,84,110,32
1,84,0,94
1,83,110,2
1,83,0,94
1,81,110,2
1,81,0,94
1,79,110,2
1,79,0,94
1,81,110,2
1,81,0,160
1,76,110,224
1,76,0,94
1,76,110,2
1,76,0,256
1,76,110,32
1,76,0,94
1,76,110,2
1,76,0,256
1,79,110,32
1,79,0,94
1,76,110,2
1,76,0,256
1,79,110,32
1,79,0,94
1,76,110,2
1,76,0,256
1,81,110,32
1,81,0,94
1,76,110,2
1,76,0,256
1,81,110,32
1,81,0,94
1,76,110,2
1,76,0,256
1,76,110,800
1,76,0,94
1,76,110,2
1,76,0,256
1,76,110,32
1,76,0,94
1,76,110,2
1,76,0,256
1,79,110,32
1,79,0,94
1,76,110,2
1,76,0,256
1,79,110,32
1,79,0,94
1,76,110,2
1,76,0,256
1,81,110,32
1,81,0,94
1,76,110,2
1,76,0,256
1,81,110,32
1,81,0,94
1,76,110,2
1,76,0,256
1,76,110,800
1,76,0,1104
1,79,110,432
1,79,0,720
1,78,110,48
1,78,0,720
1,79,110,48
1,79,0,1104
1,79,110,432
1,79,0,720
1,78,110,48
1,78,0,720
1,79,110,48
1,79,0,1104
1,79,110,432
1,79,0,720
1,78,110,48
1,78,0,720
1,79,110,48
1,79,0,160
1,78,110,32
1,78,0,94
1,76,110,2
1,76,0,816
1,79,110,432
1,79,0,528
1,78,110,48
1,78,0,160
1,78,110,32
1,78,0,720
1,79,110,48
1,79,0,1104
1,82,110,432
1,82,0,720
1,81,110,48
1,81,0,720
1,82,110,48
1,82,0,720
1,86,110,816
1,86,0,720
1,84,110,48
1,84,0,720
1,86,110,48
1,86,0,1104
1,86,110,432
1,86,0,528
1,84,110,48
1,84,0,160
1,84,110,32
1,84,0,720
1,79,110,48
1,79,0,720
1,86,110,48
1,86,0,2256
2,83,110,61920
2,83,0,1104
2,83,110,432
2,83,0,720
2,81,110,48
2,81,0,720
2,83,110,48
2,83,0,1104
2,83,110,432
2,83,0,720
2,81,110,48
2,81,0,720
2,83,110,48
2,83,0,1104
2,83,110,432
2,83,0,720
2,81,110,48
2,81,0,720
2,83,110,48
2,83,0,160
2,81,110,32
2,81,0,94
2,79,110,2
2,79,0,816
2,74,110,1968
2,74,0,1104
2,79,110,432
2,79,0,720
2,77,110,48
2,77,0,720
2,79,110,48
2,79,0,720
2,79,110,816
2,79,0,720
2,77,110,48
2,77,0,720
2,79,110,48
2,79,0,1104
2,82,110,432
2,82,0,528
2,81,110,48
2,81,0,160
2,81,110,32
2,81,0,720
2,79,110,48
2,79,0,2832
2,83,110,86256
2,83,0,1104
2,83,110,432
2,83,0,720
2,81,110,48
2,81,0,720
2,83,110,48
2,83,0,1104
2,83,110,432
2,83,0,720
2,81,110,48
2,81,0,720
2,83,110,48
2,83,0,1104
2,83,110,432
2,83,0,720
2,81,110,48
2,81,0,720
2,83,110,48
2,83,0,160
2,81,110,32
2,81,0,94
2,79,110,2
2,79,0,816
2,74,110,1968
2,74,0,1104
2,79,110,432
2,79,0,720
2,77,110,48
2,77,0,720
2,79,110,48
2,79,0,720
2,79,110,816
2,79,0,720
2,77,110,48
2,77,0,720
2,79,110,48
2,79,0,1104
2,82,110,432
2,82,0,528
2,81,110,48
2,81,0,160
2,81,110,32
2,81,0,720
3,68,110,0
3,68,0,32
3,69,110,64
3,69,0,32
3,71,110,64
3,71,0,32
3,69,110,64
3,69,0,32
3,73,110,64
3,73,0,32
3,71,110,160
3,71,0,32
3,68,110,160
3,68,0,32
3,69,110,64
3,69,0,32
3,71,110,64
3,71,0,32
3,69,110,64
3,69,0,32
3,73,110,64
3,73,0,32
3,71,110,160
3,71,0,32
3,68,110,160
3,68,0,32
3,69,110,64
3,69,0,32
3,71,110,64
3,71,0,32
3,69,110,64
3,69,0,32
3,73,110,64
3,73,0,32
3,71,110,160
3,71,0,32
3,68,110,160
3,68,0,32
3,69,110,64
3,69,0,32
3,71,110,64
3,71,0,32
3,69,110,64
3,69,0,32
3,73,110,64
3,73,0,32
3,71,110,160
3,71,0,32
3,68,110,160
3,68,0,32
3,69,110,64
3,69,0,32
3,71,110,64
3,71,0,32
3,69,110,64
3,69,0,32
3,73,110,64
3,73,0,32
3,71,110,160
3,71,0,32
3,68,110,160
3,68,0,32
3,69,110,64
3,69,0,32
3,71,110,64
3,71,0,32
3,69,110,64
3,69,0,32
3,73,110,64
3,73,0,32
3,71,110,160
3,71,0,32
3,68,110,160
3,68,0,32
3,69,110,64
3,69,0,32
3,71,110,64
3,71,0,32
3,69,110,64
3,69,0,32
3,73,110,64
3,73,0,32
3,71,110,160
3,71,0,32
3,68,110,160
3,68,0,32
3,69,110,64
3,69,0,32
3,71,110,64
3,71,0,32
3,69,110,64
3,69,0,32
3,73,110,64
3,73,0,32
3,71,110,160
3,71,0,32
3,68,110,160
3,68,0,32
3,69,110,64
3,69,0,32
3,71,110,64
3,71,0,32
3,69,110,64
3,69,0,32
3,73,110,64
3,73,0,32
3,71,110,160
3,71,0,32
3,68,110,160
3,68,0,32
3,69,110,64
3,69,0,32
3,71,110,64
3,71,0,32
3,69,110,64
3,69,0,32
3,73,110,64
3,73,0,32
3,71,110,160
3,71,0,32
3,68,110,160
3,68,0,32
3,69,110,64
3,69,0,32
3,71,110,64
3,71,0,32
3,69,110,64
3,69,0,32
3,73,110,64
3,73,0,32
3,71,110,160
3,71,0,32
3,68,110,160
3,68,0,32
3,69,110,64
3,69,0,32
3,71,110,64
3,71,0,32
3,69,110,64
3,69,0,32
3,73,110,64
3,73,0,32
3,71,110,160
3,71,0,32
3,68,110,160
3,68,0,32
3,69,110,64
3,69,0,32
3,71,110,64
3,71,0,32
3,69,110,64
3,69,0,32
3,73,110,64
3,73,0,32
3,71,110,160
3,71,0,32
3,68,110,160
3,68,0,32
3,69,110,64
3,69,0,32
3,71,110,64
3,71,0,32
3,69,110,64
3,69,0,32
3,73,110,64
3,73,0,32
3,71,110,160
3,71,0,32
3,68,110,160
3,68,0,32
3,69,110,64
3,69,0,32
3,71,110,64
3,71,0,32
3,69,110,64
3,69,0,32
3,73,110,64
3,73,0,32
3,71,110,160
3,71,0,32
3,68,110,160
3,68,0,32
3,69,110,64
3,69,0,94
3,71,110,2
3,71,0,94
3,69,110,2
3,69,0,94
3,68,110,2
3,68,0,816
3,72,110,48
3,72,0,256
3,71,110,32
3,71,0,94
3,72,110,2
3,72,0,94
3,71,110,2
3,71,0,94
3,72,110,2
3,72,0,94
3,71,110,2
3,71,0,94
3,76,110,2
3,76,0,160
3,76,110,32
3,76,0,160
3,72,110,32
3,72,0,336
3,72,110,48
3,72,0,256
3,71,110,32
3,71,0,94
3,72,110,2
3,72,0,94
3,71,110,2
3,71,0,94
3,72,110,2
3,72,0,94
3,71,110,2
3,71,0,94
3,71,110,2
3,71,0,94
3,74,110,2
3,74,0,94
3,74,110,2
3,74,0,94
3,74,110,2
3,74,0,94
3,76,110,2
3,76,0,94
3,74,110,2
3,74,0,94
3,72,110,2
3,72,0,94
3,71,110,2
3,71,0,94
3,72,110,2
3,72,0,256
3,71,110,32
3,71,0,94
3,72,110,2
3,72,0,94
3,71,110,2
3,71,0,94
3,72,110,2
3,72,0,94
3,71,110,2
3,71,0,94
3,76,110,2
3,76,0,160
3,76,110,32
3,76,0,160
