track,note,velocity,time
1,57,110,2304
1,57,0,94
1,57,110,2
1,57,0,94
1,57,110,2
1,57,0,94
1,69,110,2
1,69,0,94
1,57,110,2
1,57,0,94
1,57,110,2
1,57,0,94
1,67,110,2
1,67,0,94
1,57,110,2
1,57,0,94
1,57,110,2
1,57,0,94
1,66,110,2
1,66,0,94
1,57,110,2
1,57,0,94
1,57,110,2
1,57,0,94
1,67,110,2
1,67,0,94
1,57,110,2
1,57,0,94
1,57,110,2
1,57,0,94
1,66,110,2
1,66,0,94
1,57,110,2
1,57,0,94
1,57,110,2
1,57,0,94
1,64,110,2
1,64,0,94
1,57,110,2
1,57,0,94
1,57,110,2
1,57,0,94
1,60,110,2
1,60,0,94
1,59,110,2
1,59,0,94
1,60,110,2
1,60,0,94
1,57,110,2
1,57,0,94
1,57,110,2
1,57,0,94
1,57,110,2
1,57,0,94
1,69,110,2
1,69,0,94
1,57,110,2
1,57,0,94
1,57,110,2
1,57,0,94
1,67,110,2
1,67,0,94
1,57,110,2
1,57,0,94
1,57,110,2
1,57,0,94
1,66,110,2
1,66,0,94
1,57,110,2
1,57,0,94
1,57,110,2
1,57,0,94
1,67,110,2
1,67,0,94
1,57,110,2
1,57,0,94
1,57,110,2
1,57,0,94
1,66,110,2
1,66,0,94
1,57,110,2
1,57,0,94
1,57,110,2
1,57,0,94
1,60,110,2
1,67,110,0
1,60,0,160
1,67,0,0
1,60,110,32
1,67,110,0
1,60,0,160
1,67,0,0
1,60,110,32
1,67,110,0
1,60,0,160
1,67,0,0
1,57,110,32
1,57,0,94
1,57,110,2
1,57,0,94
1,57,110,2
1,57,0,94
1,69,110,2
1,69,0,94
1,57,110,2
1,57,0,94
1,57,110,2
1,57,0,94
1,67,110,2
1,67,0,94
1,57,110,2
1,57,0,94
1,57,110,2
1,57,0,94
1,66,110,2
1,66,0,94
1,57,110,2
1,57,0,94
1,57,110,2
1,57,0,94
1,67,110,2
1,67,0,94
1,57,110,2
1,57,0,94
1,57,110,2
1,57,0,94
1,66,110,2
1,66,0,94
1,57,110,2
1,57,0,94
1,57,110,2
1,57,0,94
1,64,110,2
1,64,0,94
1,57,110,2
1,57,0,94
1,57,110,2
1,57,0,94
1,60,110,2
1,60,0,94
1,59,110,2
1,59,0,94
1,60,110,2
1,60,0,94
1,57,110,2
1,57,0,94
1,57,110,2
1,57,0,94
1,57,110,2
1,57,0,94
1,69,110,2
1,69,0,94
1,57,110,2
1,57,0,94
1,57,110,2
1,57,0,94
1,67,110,2
1,67,0,94
1,57,110,2
1,57,0,94
1,57,110,2
1,57,0,94
1,66,110,2
1,66,0,94
1,57,110,2
1,57,0,94
1,57,110,2
1,57,0,94
1,67,110,2
1,67,0,94
1,57,110,2
1,57,0,94
1,57,110,2
1,57,0,94
1,66,110,2
1,66,0,94
1,57,110,2
1,57,0,94
1,57,110,2
1,57,0,94
1,60,110,2
1,67,110,0
1,60,0,160
1,67,0,0
1,60,110,32
1,67,110,0
1,60,0,160
1,67,0,0
1,60,110,32
1,67,110,0
1,60,0,160
1,67,0,0
1,52,110,32
1,52,0,94
1,52,110,2
1,52,0,94
1,52,110,2
1,52,0,94
1,52,110,2
1,52,0,94
1,52,110,2
1,52,0,94
1,52,110,2
1,52,0,94
1,55,110,2
1,62,110,0
1,55,0,160
1,62,0,0
1,55,110,32
1,62,110,0
1,55,0,160
1,62,0,0
1,55,110,32
1,62,110,0
1,55,0,160
1,62,0,0
1,52,110,32
1,52,0,94
1,52,110,2
1,52,0,94
1,52,110,2
1,52,0,94
1,52,110,2
1,52,0,94
1,52,110,2
1,52,0,94
1,52,110,2
1,52,0,94
1,57,110,2
1,57,0,94
1,57,110,2
1,57,0,94
1,57,110,2
1,57,0,94
1,57,110,2
1,57,0,94
1,55,110,2
1,55,0,94
1,54,110,2
1,54,0,94
1,52,110,2
1,52,0,94
1,52,110,2
1,52,0,94
1,52,110,2
1,52,0,94
1,52,110,2
1,52,0,94
1,52,110,2
1,52,0,94
1,52,110,2
1,52,0,94
1,55,110,2
1,62,110,0
1,55,0,160
1,62,0,0
1,55,110,32
1,62,110,0
1,55,0,160
1,62,0,0
1,55,110,32
1,62,110,0
1,55,0,160
1,62,0,0
1,52,110,32
1,52,0,94
1,52,110,2
1,52,0,94
1,52,110,2
1,52,0,94
1,52,110,2
1,52,0,94
1,52,110,2
1,52,0,94
1,52,110,2
1,52,0,94
1,69,110,2
1,76,110,0
1,81,110,0
1,69,0,94
1,76,0,0
1,81,0,0
1,69,110,2
1,76,110,0
1,81,110,0
1,69,0,94
1,76,0,0
1,81,0,0
1,69,110,2
1,76,110,0
1,81,110,0
1,69,0,94
1,76,0,0
1,81,0,0
1,69,110,2
1,76,110,0
1,81,110,0
1,69,0,256
1,76,0,0
1,81,0,0
1,52,110,32
1,52,0,94
1,52,110,2
1,52,0,94
1,52,110,2
1,52,0,94
1,52,110,2
1,52,0,94
1,52,110,2
1,52,0,94
1,52,110,2
1,52,0,94
1,55,110,2
1,62,110,0
1,55,0,160
1,62,0,0
1,55,110,32
1,62,110,0
1,55,0,160
1,62,0,0
1,55,110,32
1,62,110,0
1,55,0,160
1,62,0,0
1,52,110,32
1,52,0,94
1,52,110,2
1,52,0,94
1,52,110,2
1,52,0,94
1,52,110,2
1,52,0,94
1,52,110,2
1,52,0,94
1,52,110,2
1,52,0,94
1,57,110,2
1,57,0,94
1,57,110,2
1,57,0,94
1,57,110,2
1,57,0,94
1,57,110,2
1,57,0,94
1,55,110,2
1,55,0,94
1,54,110,2
1,54,0,94
1,52,110,2
1,52,0,94
1,52,110,2
1,52,0,94
1,52,110,2
1,52,0,94
1,52,110,2
1,52,0,94
1,52,110,2
1,52,0,94
1,52,110,2
1,52,0,94
1,55,110,2
1,62,110,0
1,55,0,160
1,62,0,0
1,55,110,32
1,62,110,0
1,55,0,160
1,62,0,0
1,55,110,32
1,62,110,0
1,55,0,160
1,62,0,0
1,52,110,32
1,52,0,94
1,52,110,2
1,52,0,94
1,52,110,2
1,52,0,94
1,52,110,2
1,52,0,94
1,52,110,2
1,52,0,94
1,52,110,2
1,52,0,94
1,69,110,2
1,76,110,0
1,81,110,0
1,69,0,94
1,76,0,0
1,81,0,0
1,69,110,2
1,76,110,0
1,81,110,0
1,69,0,94
1,76,0,0
1,81,0,0
1,69,110,2
1,76,110,0
1,81,110,0
1,69,0,94
1,76,0,0
1,81,0,0
1,69,110,2
1,76,110,0
1,81,110,0
1,69,0,256
1,76,0,0
1,81,0,0
1,57,110,32
1,57,0,94
1,57,110,2
1,57,0,94
1,57,110,2
1,57,0,94
1,69,110,2
1,69,0,94
1,57,110,2
1,57,0,94
1,57,110,2
1,57,0,94
1,67,110,2
1,67,0,94
1,57,110,2
1,57,0,94
1,57,110,2
1,57,0,94
1,66,110,2
1,66,0,94
1,57,110,2
1,57,0,94
1,57,110,2
1,57,0,94
1,67,110,2
1,67,0,94
1,57,110,2
1,57,0,94
1,57,110,2
1,57,0,94
1,66,110,2
1,66,0,94
1,57,110,2
1,57,0,94
1,57,110,2
1,57,0,94
1,64,110,2
1,64,0,94
1,57,110,2
1,57,0,94
1,57,110,2
1,57,0,94
1,60,110,2
1,60,0,94
1,59,110,2
1,59,0,94
1,60,110,2
1,60,0,94
1,57,110,2
1,57,0,94
1,57,110,2
1,57,0,94
1,57,110,2
1,57,0,94
1,69,110,2
1,69,0,94
1,57,110,2
1,57,0,94
1,57,110,2
1,57,0,94
1,67,110,2
1,67,0,94
1,57,110,2
1,57,0,94
1,57,110,2
1,57,0,94
1,66,110,2
1,66,0,94
1,57,110,2
1,57,0,94
1,57,110,2
1,57,0,94
1,67,110,2
1,67,0,94
1,57,110,2
1,57,0,94
1,57,110,2
1,57,0,94
1,66,110,2
1,66,0,94
1,57,110,2
1,57,0,94
1,57,110,2
1,57,0,94
1,60,110,2
1,67,110,0
1,60,0,160
1,67,0,0
1,60,110,32
1,67,110,0
1,60,0,160
1,67,0,0
1,60,110,32
1,67,110,0
1,60,0,160
1,67,0,0
1,57,110,32
1,57,0,94
1,57,110,2
1,57,0,94
1,57,110,2
1,57,0,94
1,69,110,2
1,69,0,94
1,57,110,2
1,57,0,94
1,57,110,2
1,57,0,94
1,67,110,2
1,67,0,94
1,57,110,2
1,57,0,94
1,57,110,2
1,57,0,94
1,66,110,2
1,66,0,94
1,57,110,2
1,57,0,94
1,57,110,2
1,57,0,94
1,67,110,2
1,67,0,94
1,57,110,2
1,57,0,94
1,57,110,2
1,57,0,94
1,66,110,2
1,66,0,94
1,57,110,2
1,57,0,94
1,57,110,2
1,57,0,94
1,64,110,2
1,64,0,94
1,57,110,2
1,57,0,94
1,57,110,2
1,57,0,94
1,60,110,2
1,60,0,94
1,59,110,2
1,59,0,94
1,60,110,2
1,60,0,94
1,57,110,2
1,57,0,94
1,57,110,2
1,57,0,94
1,57,110,2
1,57,0,94
1,69,110,2
1,69,0,94
1,57,110,2
1,57,0,94
1,57,110,2
1,57,0,94
1,67,110,2
1,67,0,94
1,57,110,2
1,57,0,94
1,57,110,2
1,57,0,94
1,66,110,2
1,66,0,94
1,57,110,2
1,57,0,94
1,57,110,2
1,57,0,94
1,67,110,2
1,67,0,94
1,57,110,2
1,57,0,94
1,57,110,2
1,57,0,94
1,66,110,2
1,66,0,94
1,57,110,2
1,57,0,94
1,57,110,2
1,57,0,94
1,60,110,2
1,67,110,0
1,60,0,160
1,67,0,0
1,60,110,32
1,67,110,0
1,60,0,160
1,67,0,0
1,60,110,32
1,67,110,0
1,60,0,160
1,67,0,0
1,52,110,32
1,52,0,94
1,52,110,2
1,52,0,94
1,52,110,2
1,52,0,94
1,52,110,2
1,52,0,94
1,52,110,2
1,52,0,94
1,52,110,2
1,52,0,94
1,55,110,2
1,62,110,0
1,55,0,160
1,62,0,0
1,55,110,32
1,62,110,0
1,55,0,160
1,62,0,0
1,55,110,32
1,62,110,0
1,55,0,160
1,62,0,0
1,52,110,32
1,52,0,94
1,52,110,2
1,52,0,94
1,52,110,2
1,52,0,94
1,52,110,2
1,52,0,94
1,52,110,2
1,52,0,94
1,52,110,2
1,52,0,94
1,57,110,2
1,57,0,94
1,57,110,2
1,57,0,94
1,57,110,2
1,57,0,94
1,57,110,2
1,57,0,94
1,55,110,2
1,55,0,94
1,54,110,2
1,54,0,94
1,52,110,2
1,52,0,94
1,52,110,2
1,52,0,94
1,52,110,2
1,52,0,94
1,52,110,2
1,52,0,94
1,52,110,2
1,52,0,94
1,52,110,2
1,52,0,94
1,55,110,2
1,62,110,0
1,55,0,160
1,62,0,0
1,55,110,32
1,62,110,0
1,55,0,160
1,62,0,0
1,55,110,32
1,62,110,0
1,55,0,160
1,62,0,0
1,52,110,32
1,52,0,94
1,52,110,2
1,52,0,94
1,52,110,2
1,52,0,94
1,52,110,2
1,52,0,94
1,52,110,2
1,52,0,94
1,52,110,2
1,52,0,94
1,69,110,2
1,76,110,0
1,81,110,0
1,69,0,94
1,76,0,0
1,81,0,0
1,69,110,2
1,76,110,0
1,81,110,0
1,69,0,94
1,76,0,0
1,81,0,0
1,69,110,2
1,76,110,0
1,81,110,0
1,69,0,94
1,76,0,0
1,81,0,0
1,69,110,2
1,76,110,0
1,81,110,0
1,69,0,256
1,76,0,0
1,81,0,0
1,52,110,32
1,52,0,94
1,52,110,2
1,52,0,94
1,52,110,2
1,52,0,94
1,52,110,2
1,52,0,94
1,52,110,2
1,52,0,94
1,52,110,2
1,52,0,94
1,55,110,2
1,62,110,0
1,55,0,160
1,62,0,0
1,55,110,32
1,62,110,0
1,55,0,160
1,62,0,0
1,55,110,32
1,62,110,0
1,55,0,160
1,62,0,0
1,52,110,32
1,52,0,94
1,52,110,2
1,52,0,94
1,52,110,2
1,52,0,94
1,52,110,2
1,52,0,94
1,52,110,2
1,52,0,94
1,52,110,2
1,52,0,94
1,57,110,2
1,57,0,94
1,57,110,2
1,57,0,94
1,57,110,2
1,57,0,94
1,57,110,2
1,57,0,94
1,55,110,2
1,55,0,94
1,54,110,2
1,54,0,94
1,52,110,2
1,52,0,94
1,52,110,2
1,52,0,94
1,52,110,2
1,52,0,94
1,52,110,2
1,52,0,94
1,52,110,2
1,52,0,94
1,52,110,2
1,52,0,94
1,55,110,2
1,62,110,0
1,55,0,160
1,62,0,0
1,55,110,32
1,62,110,0
1,55,0,160
1,62,0,0
1,55,110,32
1,62,110,0
1,55,0,160
1,62,0,0
1,52,110,32
1,52,0,94
1,52,110,2
1,52,0,94
1,52,110,2
1,52,0,94
1,52,110,2
1,52,0,94
1,52,110,2
1,52,0,94
1,52,110,2
1,52,0,94
1,69,110,2
1,76,110,0
1,81,110,0
1,69,0,94
1,76,0,0
1,81,0,0
1,69,110,2
1,76,110,0
1,81,110,0
1,69,0,94
1,76,0,0
1,81,0,0
1,69,110,2
1,76,110,0
1,81,110,0
1,69,0,94
1,76,0,0
1,81,0,0
1,69,110,2
1,76,110,0
1,81,110,0
1,69,0,256
1,76,0,0
1,81,0,0
1,84,110,32
1,84,0,1104
1,88,110,48
1,88,0,160
1,88,110,32
1,88,0,160
1,89,110,32
1,89,0,160
1,91,110,32
1,91,0,160
1,89,110,32
1,89,0,160
1,88,110,32
1,88,0,160
1,86,110,32
1,86,0,1104
1,90,110,48
1,90,0,94
1,90,110,2
1,90,0,94
1,90,110,2
1,90,0,94
1,91,110,2
1,91,0,94
1,91,110,2
1,91,0,94
1,91,110,2
1,91,0,94
1,93,110,2
1,93,0,94
1,93,110,2
1,93,0,94
1,93,110,2
1,93,0,94
1,93,110,2
1,93,0,94
1,91,110,2
1,91,0,94
1,90,110,2
1,90,0,94
1,87,110,2
1,87,0,720
1,87,110,48
1,87,0,336
1,82,110,48
1,82,0,528
1,82,110,48
1,82,0,160
1,84,110,32
1,84,0,160
1,84,110,32
1,84,0,94
1,86,110,2
1,86,0,94
1,84,110,2
1,84,0,2256
1,84,110,48
1,84,0,1104
1,88,110,48
1,88,0,160
1,88,110,32
1,88,0,160
1,89,110,32
1,89,0,160
1,91,110,32
1,91,0,160
1,89,110,32
1,89,0,160
1,88,110,32
1,88,0,160
1,86,110,32
1,86,0,1104
1,90,110,48
1,90,0,94
1,90,110,2
1,90,0,94
1,90,110,2
1,90,0,94
1,91,110,2
1,91,0,94
1,91,110,2
1,91,0,94
1,91,110,2
1,91,0,94
1,93,110,2
1,93,0,94
1,93,110,2
1,93,0,94
1,93,110,2
1,93,0,94
1,93,110,2
1,93,0,94
1,91,110,2
1,91,0,94
1,90,110,2
1,90,0,94
1,87,110,2
1,87,0,720
1,87,110,48
1,87,0,336
1,82,110,48
1,82,0,528
1,82,110,48
1,82,0,160
1,84,110,32
1,84,0,160
1,84,110,32
1,84,0,94
1,86,110,2
1,86,0,94
1,84,110,2
1,84,0,2256
1,67,110,48
1,67,0,94
1,66,110,2
1,66,0,94
1,62,110,2
1,62,0,94
1,67,110,2
1,67,0,94
1,66,110,2
1,66,0,94
1,62,110,2
1,62,0,94
1,67,110,2
1,67,0,94
1,66,110,2
1,66,0,94
1,62,110,2
1,62,0,94
1,67,110,2
1,67,0,94
1,66,110,2
1,66,0,94
1,62,110,2
1,62,0,94
1,67,110,2
1,67,0,94
1,66,110,2
1,66,0,94
1,62,110,2
1,62,0,94
1,67,110,2
1,67,0,94
1,66,110,2
1,66,0,94
1,62,110,2
1,62,0,94
1,67,110,2
1,67,0,94
1,66,110,2
1,66,0,94
1,62,110,2
1,62,0,94
1,62,110,2
1,62,0,160
1,69,110,128
1,69,0,94
1,67,110,2
1,67,0,94
1,62,110,2
1,62,0,94
1,69,110,2
1,69,0,94
1,67,110,2
1,67,0,94
1,62,110,2
1,62,0,94
1,69,110,2
1,69,0,94
1,67,110,2
1,67,0,94
1,62,110,2
1,62,0,94
1,69,110,2
1,69,0,94
1,67,110,2
1,67,0,94
1,62,110,2
1,62,0,94
1,69,110,2
1,69,0,94
1,67,110,2
1,67,0,94
