track,note,velocity,time
1,64,110,9216
1,64,0,94
1,64,110,2
1,64,0,352
1,66,110,32
1,66,0,94
1,68,110,2
1,68,0,94
1,68,110,98
1,68,0,94
1,71,110,2
1,71,0,94
1,71,110,98
1,71,0,94
1,73,110,2
1,73,0,94
1,68,110,2
1,68,0,94
1,68,110,2
1,68,0,94
1,68,110,2
1,68,0,94
1,68,110,2
1,68,0,94
1,68,110,2
1,68,0,46
1,69,110,2
1,69,0,46
1,68,110,2
1,68,0,94
1,68,110,146
1,68,0,46
1,68,110,2
1,68,0,94
1,68,110,2
1,68,0,94
1,68,110,2
1,68,0,94
1,68,110,2
1,68,0,46
1,69,110,2
1,69,0,208
1,69,110,464
1,69,0,46
1,69,110,2
1,69,0,94
1,69,110,2
1,69,0,142
1,71,110,2
1,71,0,46
1,69,110,2
1,69,0,94
1,66,110,2
1,66,0,160
1,64,110,992
1,64,0,94
1,64,110,2
1,64,0,352
1,66,110,32
1,66,0,94
1,68,110,2
1,68,0,142
1,68,110,2
1,68,0,46
1,68,110,2
1,68,0,94
1,71,110,2
1,71,0,160
1,71,110,32
1,71,0,94
1,73,110,2
1,73,0,94
1,68,110,2
1,68,0,94
1,68,110,2
1,68,0,94
1,69,110,2
1,69,0,94
1,68,110,2
1,68,0,46
1,69,110,2
1,69,0,46
1,68,110,2
1,68,0,190
1,68,110,98
1,68,0,94
1,68,110,2
1,68,0,46
1,66,110,2
1,66,0,94
1,66,110,2
1,66,0,142
1,69,110,2
1,69,0,256
1,69,110,512
1,69,0,94
1,69,110,2
1,69,0,142
1,71,110,2
1,71,0,46
1,69,110,2
1,69,0,46
1,66,110,2
1,66,0,304
1,66,110,800
1,66,0,46
1,66,110,2
1,66,0,46
1,67,110,2
1,67,0,142
1,67,110,2
1,67,0,46
1,67,110,2
1,67,0,46
1,68,110,2
1,68,0,142
1,68,110,2
1,68,0,94
1,68,110,2
1,68,0,94
1,65,110,2
1,65,0,94
1,63,110,2
1,63,0,94
1,65,110,2
1,65,0,94
1,65,110,2
1,65,0,94
1,67,110,2
1,67,0,352
1,67,110,608
1,67,0,46
1,67,110,2
1,67,0,46
1,67,110,2
1,67,0,142
1,67,110,2
1,67,0,46
1,67,110,2
1,67,0,46
1,68,110,2
1,68,0,142
1,68,110,2
1,68,0,94
1,68,110,2
1,68,0,94
1,65,110,2
1,65,0,46
1,63,110,2
1,63,0,142
1,65,110,2
1,65,0,94
1,65,110,2
1,65,0,46
1,67,110,2
1,67,0,208
1,65,110,32
1,65,0,94
1,60,110,674
1,60,0,94
1,64,110,2
1,64,0,94
1,64,110,2
1,64,0,352
1,66,110,32
1,66,0,94
1,68,110,2
1,68,0,94
1,68,110,98
1,68,0,94
1,71,110,2
1,71,0,94
1,71,110,98
1,71,0,94
1,73,110,2
1,73,0,94
1,68,110,2
1,68,0,94
1,68,110,2
1,68,0,94
1,68,110,2
1,68,0,94
1,68,110,2
1,68,0,94
1,68,110,2
1,68,0,46
1,69,110,2
1,69,0,46
1,68,110,2
1,68,0,94
1,68,110,146
1,68,0,46
1,68,110,2
1,68,0,94
1,68,110,2
1,68,0,94
1,68,110,2
1,68,0,94
1,68,110,2
1,68,0,46
1,69,110,2
1,69,0,208
1,69,110,464
1,69,0,46
1,69,110,2
1,69,0,94
1,69,110,2
1,69,0,142
1,71,110,2
1,71,0,46
1,69,110,2
1,69,0,94
1,66,110,2
1,66,0,160
1,64,110,992
1,64,0,94
1,64,110,2
1,64,0,352
1,66,110,32
1,66,0,94
1,68,110,2
1,68,0,142
1,68,110,2
1,68,0,46
1,68,110,2
1,68,0,94
1,71,110,2
1,71,0,160
1,71,110,32
1,71,0,94
1,73,110,2
1,73,0,94
1,68,110,2
1,68,0,94
1,68,110,2
1,68,0,94
1,69,110,2
1,69,0,94
1,68,110,2
1,68,0,46
1,69,110,2
1,69,0,46
1,68,110,2
1,68,0,190
1,68,110,98
1,68,0,94
1,68,110,2
1,68,0,46
1,66,110,2
1,66,0,94
1,66,110,2
1,66,0,142
1,69,110,2
1,69,0,256
1,69,110,512
1,69,0,94
1,69,110,2
1,69,0,142
1,71,110,2
1,71,0,46
1,69,110,2
1,69,0,46
1,66,110,2
1,66,0,304
1,66,110,800
1,66,0,46
1,66,110,2
1,66,0,46
1,67,110,2
1,67,0,256
1,67,110,128
1,67,0,94
1,67,110,2
1,67,0,94
1,68,110,2
1,68,0,94
1,68,110,2
1,68,0,160
1,65,110,32
1,65,0,94
1,63,110,2
1,63,0,94
1,65,110,2
1,65,0,94
1,65,110,2
1,65,0,46
1,67,110,2
1,67,0,208
1,65,110,32
1,65,0,94
1,67,110,674
1,67,0,94
1,68,110,2
1,68,0,46
1,67,110,2
1,67,0,208
1,67,110,224
1,67,0,94
1,68,110,2
1,68,0,94
1,68,110,2
1,68,0,94
1,68,110,2
1,68,0,94
1,65,110,2
1,65,0,94
1,65,110,2
1,65,0,94
1,65,110,2
1,65,0,94
1,67,110,2
1,67,0,256
1,67,110,704
1,67,0,94
1,67,110,2
1,67,0,94
1,67,110,2
1,67,0,160
1,64,110,32
1,64,0,94
1,67,110,194
1,67,0,94
1,68,110,2
1,68,0,160
1,68,110,32
1,68,0,94
1,68,110,2
1,68,0,94
1,70,110,2
1,70,0,94
1,68,110,2
1,68,0,94
1,68,110,2
1,68,0,46
1,67,110,2
1,67,0,142
1,60,110,866
1,60,0,94
1,60,110,2
1,60,0,160
1,67,110,320
1,67,0,94
1,68,110,2
1,68,0,46
1,68,110,2
1,68,0,142
1,68,110,98
1,68,0,94
1,63,110,2
1,63,0,94
1,65,110,2
1,65,0,94
1,67,110,2
1,67,0,46
1,68,110,2
1,68,0,46
1,67,110,2
1,67,0,160
1,78,110,11216
1,78,0,46
1,78,110,2
1,78,0,46
1,78,110,2
1,78,0,46
1,78,110,2
1,78,0,94
1,76,110,2
1,76,0,94
1,78,110,2
1,78,0,256
1,78,110,944
1,78,0,46
1,78,110,2
1,78,0,46
1,78,110,2
1,78,0,46
1,78,110,2
1,78,0,94
1,76,110,2
1,76,0,94
1,78,110,2
1,78,0,256
1,86,110,51776
1,86,0,256
1,88,110,32
1,88,0,544
1,76,110,800
1,76,0,160
1,83,110,32
1,83,0,160
1,76,110,32
1,76,0,94
1,76,110,2
1,76,0,256
1,81,110,32
1,81,0,286
1,79,110,2
1,79,0,256
1,76,110,224
1,76,0,160
1,86,110,32
1,86,0,160
1,76,110,32
1,76,0,160
1,76,110,992
1,76,0,160
1,83,110,32
1,83,0,160
1,76,110,32
1,76,0,94
1,76,110,2
1,76,0,256
1,81,110,32
1,81,0,286
1,79,110,2
1,79,0,256
1,79,110,224
1,79,0,160
1,86,110,32
1,86,0,352
1,74,110,992
1,74,0,160
1,72,110,32
1,72,0,160
1,74,110,32
1,74,0,94
1,74,110,2
1,74,0,256
1,81,110,32
1,81,0,286
1,83,110,2
1,83,0,256
1,79,110,224
1,79,0,160
1,74,110,32
1,74,0,256
1,76,110,32
1,76,0,256
1,76,110,800
1,76,0,160
1,74,110,32
1,74,0,160
1,76,110,32
1,76,0,94
1,76,110,2
1,76,0,256
1,81,110,32
1,81,0,286
1,79,110,2
1,79,0,256
1,88,110,416
1,88,0,544
1,76,110,800
1,76,0,160
1,83,110,32
1,83,0,160
1,76,110,32
1,76,0,94
1,76,110,2
1,76,0,256
1,81,110,32
1,81,0,286
1,79,110,2
1,79,0,256
1,76,110,224
1,76,0,160
1,86,110,32
1,86,0,160
1,76,110,32
1,76,0,160
1,76,110,992
1,76,0,160
1,83,110,32
1,83,0,160
1,76,110,32
1,76,0,94
1,76,110,2
1,76,0,256
1,81,110,32
1,81,0,286
1,79,110,2
1,79,0,256
1,79,110,224
1,79,0,160
1,86,110,32
1,86,0,352
1,74,110,992
1,74,0,160
1,72,110,32
1,72,0,160
1,74,110,32
1,74,0,94
1,74,110,2
1,74,0,256
1,81,110,32
1,81,0,286
1,83,110,2
1,83,0,256
1,79,110,224
1,79,0,160
1,74,110,32
1,74,0,256
1,76,110,32
1,76,0,256
1,76,110,800
1,76,0,160
1,74,110,32
1,74,0,160
1,76,110,32
1,76,0,94
1,76,110,2
1,76,0,256
1,81,110,32
1,81,0,286
1,79,110,2
1,79,0,256
1,78,110,10320
1,78,0,46
1,78,110,2
1,78,0,46
1,78,110,2
1,78,0,46
1,78,110,2
1,78,0,94
1,76,110,2
1,76,0,94
1,78,110,2
1,78,0,256
1,78,110,944
1,78,0,46
1,78,110,2
1,78,0,46
1,78,110,2
1,78,0,46
1,78,110,2
1,78,0,94
1,76,110,2
1,76,0,94
1,78,110,2
1,78,0,256
1,78,110,944
1,78,0,46
1,78,110,2
1,78,0,46
1,78,110,2
1,78,0,46
1,78,110,2
1,78,0,94
1,76,110,2
1,76,0,94
1,78,110,2
1,78,0,256
1,78,110,944
1,78,0,46
1,78,110,2
1,78,0,46
1,78,110,2
1,78,0,46
1,78,110,2
1,78,0,94
1,76,110,2
1,76,0,94
1,78,110,2
1,78,0,256
2,64,110,0
2,64,0,448
2,66,110,32
2,66,0,94
2,68,110,2
2,68,0,94
2,66,110,2
2,66,0,94
2,64,110,2
2,64,0,94
2,63,110,2
2,63,0,94
2,61,110,2
2,61,0,94
2,59,110,2
2,59,0,94
2,71,110,2
2,71,0,382
2,69,110,2
2,69,0,94
2,67,110,2
2,67,0,94
2,66,110,2
2,66,0,94
2,64,110,2
2,64,0,94
2,62,110,2
2,62,0,94
2,61,110,2
2,61,0,94
2,59,110,2
2,59,0,94
2,57,110,2
2,57,0,94
2,61,110,2
2,61,0,670
2,61,110,2
2,61,0,94
2,61,110,2
2,61,0,94
2,61,110,2
2,61,0,94
2,59,110,2
2,59,0,94
2,56,110,2
2,56,0,94
2,59,110,2
2,59,0,958
2,64,110,194
2,64,0,448
2,66,110,32
2,66,0,94
2,68,110,2
2,68,0,94
2,66,110,2
2,66,0,94
2,64,110,2
2,64,0,94
2,63,110,2
2,63,0,94
2,61,110,2
2,61,0,94
2,59,110,2
2,59,0,94
2,71,110,2
2,71,0,382
2,69,110,2
2,69,0,94
2,67,110,2
2,67,0,94
2,66,110,2
2,66,0,94
2,64,110,2
2,64,0,94
2,62,110,2
2,62,0,94
2,61,110,2
2,61,0,94
2,59,110,2
2,59,0,94
2,57,110,2
2,57,0,94
2,61,110,2
2,61,0,670
2,61,110,2
2,61,0,94
2,61,110,2
2,61,0,94
2,61,110,2
2,61,0,94
2,59,110,2
2,59,0,94
2,56,110,2
2,56,0,94
2,59,110,2
2,59,0,448
2,56,110,32
2,56,0,46
2,59,110,2
2,59,0,46
2,56,110,2
2,56,0,544
2,40,110,32
2,40,0,46
2,47,110,2
2,47,0,46
2,52,110,2
2,52,0,46
2,47,110,2
2,47,0,46
2,52,110,2
2,52,0,46
2,47,110,2
2,47,0,46
2,40,110,2
2,40,0,46
2,47,110,2
2,47,0,46
2,52,110,2
2,52,0,46
2,47,110,2
2,47,0,46
2,52,110,2
2,52,0,46
2,47,110,2
2,47,0,46
2,40,110,2
2,40,0,46
2,47,110,2
2,47,0,46
2,52,110,2
2,52,0,46
2,47,110,2
2,47,0,46
2,52,110,2
2,52,0,46
2,47,110,2
2,47,0,46
2,40,110,2
2,40,0,46
2,47,110,2
2,47,0,46
2,52,110,2
2,52,0,46
2,47,110,2
2,47,0,46
2,52,110,2
2,52,0,46
2,47,110,2
2,47,0,46
2,49,110,2
2,49,0,46
2,56,110,2
2,56,0,46
2,61,110,2
2,61,0,46
2,56,110,2
2,56,0,46
2,61,110,2
2,61,0,46
2,56,110,2
2,56,0,46
2,49,110,2
2,49,0,46
2,56,110,2
2,56,0,46
2,61,110,2
2,61,0,46
2,56,110,2
2,56,0,46
2,61,110,2
2,61,0,46
2,56,110,2
2,56,0,46
2,49,110,2
2,49,0,46
2,56,110,2
2,56,0,46
2,61,110,2
2,61,0,46
2,56,110,2
2,56,0,46
2,61,110,2
2,61,0,46
2,56,110,2
2,56,0,46
2,49,110,2
2,49,0,46
2,56,110,2
2,56,0,46
2,61,110,2
2,61,0,46
2,56,110,2
2,56,0,46
2,61,110,2
2,61,0,46
2,56,110,2
2,56,0,46
2,50,110,2
2,50,0,46
2,57,110,2
2,57,0,46
2,62,110,2
2,62,0,46
2,57,110,2
2,57,0,46
2,62,110,2
2,62,0,46
2,57,110,2
2,57,0,46
2,50,110,2
2,50,0,46
2,57,110,2
2,57,0,46
2,62,110,2
2,62,0,46
2,57,110,2
2,57,0,46
2,62,110,2
2,62,0,46
2,57,110,2
2,57,0,46
2,50,110,2
2,50,0,46
2,57,110,2
2,57,0,46
2,62,110,2
2,62,0,46
2,57,110,2
2,57,0,46
2,62,110,2
2,62,0,46
2,57,110,2
2,57,0,46
2,50,110,2
2,50,0,46
2,57,110,2
2,57,0,46
2,62,110,2
2,62,0,46
2,57,110,2
2,57,0,46
2,62,110,2
2,62,0,46
2,57,110,2
2,57,0,46
2,47,110,2
2,47,0,46
2,54,110,2
2,54,0,46
2,59,110,2
2,59,0,46
2,54,110,2
2,54,0,46
2,59,110,2
2,59,0,46
2,54,110,2
2,54,0,46
2,47,110,2
2,47,0,46
2,54,110,2
2,54,0,46
2,59,110,2
2,59,0,46
2,54,110,2
2,54,0,46
2,59,110,2
2,59,0,46
2,54,110,2
2,54,0,46
2,47,110,2
2,47,0,46
2,54,110,2
2,54,0,46
2,59,110,2
2,59,0,46
2,54,110,2
2,54,0,46
2,59,110,2
2,59,0,46
2,54,110,2
2,54,0,46
2,47,110,2
2,47,0,46
2,54,110,2
2,54,0,46
2,59,110,2
2,59,0,46
2,54,110,2
2,54,0,46
2,59,110,2
2,59,0,46
2,54,110,2
2,54,0,46
2,40,110,2
2,40,0,46
2,47,110,2
2,47,0,46
2,52,110,2
2,52,0,46
2,47,110,2
2,47,0,46
2,52,110,2
2,52,0,46
2,47,110,2
2,47,0,46
2,40,110,2
2,40,0,46
2,47,110,2
2,47,0,46
2,52,110,2
2,52,0,46
2,47,110,2
2,47,0,46
2,52,110,2
2,52,0,46
2,47,110,2
2,47,0,46
2,40,110,2
2,40,0,46
2,47,110,2
2,47,0,46
2,52,110,2
2,52,0,46
2,47,110,2
2,47,0,46
2,52,110,2
2,52,0,46
2,47,110,2
2,47,0,46
2,40,110,2
2,40,0,46
2,47,110,2
2,47,0,46
2,52,110,2
2,52,0,46
2,47,110,2
2,47,0,46
2,52,110,2
2,52,0,46
2,47,110,2
2,47,0,46
2,49,110,2
2,49,0,46
2,56,110,2
2,56,0,46
2,61,110,2
2,61,0,46
2,56,110,2
2,56,0,46
2,61,110,2
2,61,0,46
2,56,110,2
2,56,0,46
2,49,110,2
2,49,0,46
2,56,110,2
2,56,0,46
2,61,110,2
2,61,0,46
2,56,110,2
2,56,0,46
2,61,110,2
2,61,0,46
2,56,110,2
2,56,0,46
2,49,110,2
2,49,0,46
2,56,110,2
2,56,0,46
2,61,110,2
2,61,0,46
2,56,110,2
2,56,0,46
2,61,110,2
2,61,0,46
2,56,110,2
2,56,0,46
2,49,110,2
2,49,0,46
2,56,110,2
2,56,0,46
2,61,110,2
2,61,0,46
2,56,110,2
2,56,0,46
2,61,110,2
2,61,0,46
2,56,110,2
2,56,0,46
2,50,110,2
2,50,0,46
2,57,110,2
2,57,0,46
2,62,110,2
2,62,0,46
2,57,110,2
2,57,0,46
2,62,110,2
2,62,0,46
2,57,110,2
2,57,0,46
2,50,110,2
2,50,0,46
2,57,110,2
2,57,0,46
2,62,110,2
2,62,0,46
2,57,110,2
2,57,0,46
2,62,110,2
2,62,0,46
2,57,110,2
2,57,0,46
2,50,110,2
2,50,0,46
2,57,110,2
2,57,0,46
2,62,110,2
2,62,0,46
2,57,110,2
2,57,0,46
2,62,110,2
2,62,0,46
2,57,110,2
2,57,0,46
2,50,110,2
2,50,0,46
2,57,110,2
2,57,0,46
2,62,110,2
2,62,0,46
2,57,110,2
2,57,0,46
2,62,110,2
2,62,0,46
