track,note,velocity,time
1,45,104,0
1,45,0,39
1,45,102,21
1,45,0,39
1,45,107,21
1,45,0,39
1,57,107,21
1,57,0,39
1,45,106,21
1,45,0,39
1,45,102,21
1,45,0,39
1,55,108,21
1,55,0,39
1,45,100,21
1,45,0,39
1,45,100,21
1,45,0,39
1,54,101,21
1,54,0,39
1,45,103,21
1,45,0,39
1,45,105,21
1,45,0,39
1,55,107,21
1,55,0,39
1,45,100,21
1,45,0,39
1,45,107,21
1,45,0,39
1,54,101,21
1,54,0,39
1,45,101,21
1,45,0,39
1,45,108,21
1,45,0,39
1,52,104,21
1,52,0,39
1,45,106,21
1,45,0,39
1,45,104,21
1,45,0,39
1,48,113,21
1,48,0,39
1,47,111,21
1,47,0,39
1,48,111,21
1,48,0,39
1,45,102,21
1,45,0,39
1,45,108,21
1,45,0,39
1,45,107,21
1,45,0,39
1,57,107,21
1,57,0,39
1,45,101,21
1,45,0,39
1,45,104,21
1,45,0,39
1,55,104,21
1,55,0,39
1,45,101,21
1,45,0,39
1,45,108,21
1,45,0,39
1,54,105,21
1,54,0,39
1,45,108,21
1,45,0,39
1,45,108,21
1,45,0,39
1,55,107,21
1,55,0,39
1,45,104,21
1,45,0,39
1,45,109,21
1,45,0,39
1,54,109,21
1,54,0,39
1,45,109,21
1,45,0,39
1,45,109,21
1,45,0,39
1,48,104,21
1,55,101,0
1,60,103,0
1,60,0,89
1,55,0,0
1,48,0,0
1,55,102,31
1,48,104,0
1,60,106,0
1,60,0,89
1,48,0,0
1,55,0,0
1,48,116,31
1,60,112,0
1,45,101,0
1,45,0,39
1,60,0,50
1,48,0,0
1,45,104,31
1,45,0,39
1,45,102,21
1,45,0,39
1,45,107,21
1,45,0,39
1,57,107,21
1,57,0,39
1,45,106,21
1,45,0,39
1,45,102,21
1,45,0,39
1,55,108,21
1,55,0,39
1,45,100,21
1,45,0,39
1,45,100,21
1,45,0,39
1,54,101,21
1,54,0,39
1,45,103,21
1,45,0,39
1,45,105,21
1,45,0,39
1,55,107,21
1,55,0,39
1,45,100,21
1,45,0,39
1,45,107,21
1,45,0,39
1,54,101,21
1,54,0,39
1,45,101,21
1,45,0,39
1,45,108,21
1,45,0,39
1,52,104,21
1,52,0,39
1,45,106,21
1,45,0,39
1,45,104,21
1,45,0,39
1,48,113,21
1,48,0,39
1,47,111,21
1,47,0,39
1,48,111,21
1,48,0,39
1,45,102,21
1,45,0,39
1,45,108,21
1,45,0,39
1,45,107,21
1,45,0,39
1,57,107,21
1,57,0,39
1,45,101,21
1,45,0,39
1,45,104,21
1,45,0,39
1,55,104,21
1,55,0,39
1,45,101,21
1,45,0,39
1,45,108,21
1,45,0,39
1,54,105,21
1,54,0,39
1,45,108,21
1,45,0,39
1,45,108,21
1,45,0,39
1,55,107,21
1,55,0,39
1,45,104,21
1,45,0,39
1,45,109,21
1,45,0,39
1,54,109,21
1,54,0,39
1,45,109,21
1,45,0,39
1,45,109,21
1,45,0,39
1,48,104,21
1,55,101,0
1,60,103,0
1,60,0,89
1,55,0,0
1,48,0,0
1,55,102,31
1,48,104,0
1,60,106,0
1,60,0,89
1,48,0,0
1,55,0,0
1,48,116,31
1,60,112,0
1,45,101,0
1,45,0,89
1,60,0,0
1,48,0,0
1,40,103,31
1,40,0,39
1,40,104,21
1,40,0,39
1,40,106,21
1,40,0,39
1,40,107,21
1,40,0,39
1,40,102,21
1,40,0,39
1,40,112,21
1,40,0,39
1,43,109,21
1,50,105,0
1,50,0,89
1,43,0,0
1,43,101,31
1,50,102,0
1,50,0,89
1,43,0,0
1,43,104,31
1,50,103,0
1,50,0,89
1,43,0,0
1,40,99,31
1,40,0,39
1,40,99,21
1,40,0,39
1,40,97,21
1,40,0,39
1,40,96,21
1,40,0,39
1,40,99,21
1,40,0,39
1,40,109,21
1,40,0,39
1,45,120,21
1,45,0,39
1,45,127,21
1,45,0,39
1,45,127,21
1,45,0,39
1,45,120,21
1,45,0,39
1,43,110,21
1,43,0,39
1,41,98,21
1,41,0,39
1,40,106,21
1,40,0,39
1,40,109,21
1,40,0,39
1,40,107,21
1,40,0,39
1,40,109,21
1,40,0,39
1,40,106,21
1,40,0,39
1,40,111,21
1,40,0,39
1,43,105,21
1,50,109,0
1,50,0,89
1,43,0,0
1,43,109,31
1,50,106,0
1,50,0,89
1,43,0,0
1,43,113,31
1,50,113,0
1,50,0,89
1,43,0,0
1,40,107,31
1,40,0,39
1,40,105,21
1,40,0,39
1,40,103,21
1,40,0,39
1,40,103,21
1,40,0,39
1,40,103,21
1,40,0,39
1,40,112,21
1,40,0,39
1,57,103,21
1,64,109,0
1,69,107,0
1,69,0,39
1,64,0,0
1,57,0,0
1,57,103,21
1,64,104,0
1,69,103,0
1,69,0,39
1,64,0,0
1,57,0,0
1,57,109,21
1,64,107,0
1,69,104,0
1,69,0,39
1,64,0,0
1,57,0,0
1,57,109,21
1,64,108,0
1,69,106,0
1,69,0,100
1,64,0,0
1,57,0,0
1,40,103,80
1,40,0,39
1,40,104,21
1,40,0,39
1,40,106,21
1,40,0,39
1,40,107,21
1,40,0,39
1,40,102,21
1,40,0,39
1,40,112,21
1,40,0,39
1,43,109,21
1,50,105,0
1,50,0,89
1,43,0,0
1,43,101,31
1,50,104,0
1,50,0,89
1,43,0,0
1,43,107,31
1,50,107,0
1,50,0,89
1,43,0,0
1,40,102,31
1,40,0,39
1,40,100,21
1,40,0,39
1,40,107,21
1,40,0,39
1,40,106,21
1,40,0,39
1,40,109,21
1,40,0,39
1,40,112,21
1,40,0,39
1,45,104,21
1,45,0,39
1,45,102,21
1,45,0,39
1,45,112,21
1,45,0,39
1,45,108,21
1,45,0,39
1,43,108,21
1,43,0,39
1,41,108,21
1,41,0,39
1,40,106,21
1,40,0,39
1,40,109,21
1,40,0,39
1,40,107,21
1,40,0,39
1,40,109,21
1,40,0,39
1,40,106,21
1,40,0,39
1,40,111,21
1,40,0,39
1,43,105,21
1,50,109,0
1,50,0,89
1,43,0,0
1,43,109,31
1,50,106,0
1,50,0,89
1,43,0,0
1,43,113,31
1,50,113,0
1,50,0,89
1,43,0,0
1,40,107,31
1,40,0,39
1,40,105,21
1,40,0,39
1,40,103,21
1,40,0,39
1,40,103,21
1,40,0,39
1,40,103,21
1,40,0,39
1,40,112,21
1,40,0,39
1,57,103,21
1,64,109,0
1,69,107,0
1,69,0,39
1,64,0,0
1,57,0,0
1,57,103,21
1,64,104,0
1,69,103,0
1,69,0,39
1,64,0,0
1,57,0,0
1,57,109,21
1,64,107,0
1,69,104,0
1,69,0,39
1,64,0,0
1,57,0,0
1,57,109,21
1,64,108,0
1,69,106,0
1,69,0,100
1,64,0,0
1,57,0,0
1,45,104,80
1,45,0,39
1,45,102,21
1,45,0,39
1,45,107,21
1,45,0,39
1,57,107,21
1,57,0,39
1,45,106,21
1,45,0,39
1,45,102,21
1,45,0,39
1,55,108,21
1,55,0,39
1,45,100,21
1,45,0,39
1,45,100,21
1,45,0,39
1,54,101,21
1,54,0,39
1,45,103,21
1,45,0,39
1,45,105,21
1,45,0,39
1,55,107,21
1,55,0,39
1,45,100,21
1,45,0,39
1,45,107,21
1,45,0,39
1,54,101,21
1,54,0,39
1,45,101,21
1,45,0,39
1,45,108,21
1,45,0,39
1,52,104,21
1,52,0,39
1,45,106,21
1,45,0,39
1,45,104,21
1,45,0,39
1,48,113,21
1,48,0,39
1,47,111,21
1,47,0,39
1,48,111,21
1,48,0,39
1,45,102,21
1,45,0,39
1,45,108,21
1,45,0,39
1,45,107,21
1,45,0,39
1,57,107,21
1,57,0,39
1,45,101,21
1,45,0,39
1,45,104,21
1,45,0,39
1,55,104,21
1,55,0,39
1,45,101,21
1,45,0,39
1,45,108,21
1,45,0,39
1,54,105,21
1,54,0,39
1,45,108,21
1,45,0,39
1,45,108,21
1,45,0,39
1,55,107,21
1,55,0,39
1,45,104,21
1,45,0,39
1,45,109,21
1,45,0,39
1,54,109,21
1,54,0,39
1,45,109,21
1,45,0,39
1,45,109,21
1,45,0,39
1,48,104,21
1,55,101,0
1,60,103,0
1,60,0,89
1,55,0,0
1,48,0,0
1,55,102,31
1,48,104,0
1,60,106,0
1,60,0,89
1,48,0,0
1,55,0,0
1,48,106,31
1,60,102,0
1,45,101,0
1,45,0,39
1,60,0,50
1,48,0,0
1,45,104,31
1,45,0,39
1,45,102,21
1,45,0,39
1,45,107,21
1,45,0,39
1,57,107,21
1,57,0,39
1,45,106,21
1,45,0,39
1,45,102,21
1,45,0,39
1,55,108,21
1,55,0,39
1,45,100,21
1,45,0,39
1,45,100,21
1,45,0,39
1,54,101,21
1,54,0,39
1,45,103,21
1,45,0,39
1,45,105,21
1,45,0,39
1,55,107,21
1,55,0,39
1,45,100,21
1,45,0,39
1,45,107,21
1,45,0,39
1,54,101,21
1,54,0,39
1,45,101,21
1,45,0,39
1,45,108,21
1,45,0,39
1,52,104,21
1,52,0,39
1,45,106,21
1,45,0,39
1,45,104,21
1,45,0,39
1,48,113,21
1,48,0,39
1,47,111,21
1,47,0,39
1,48,111,21
1,48,0,39
1,45,102,21
1,45,0,39
1,45,101,21
1,45,0,39
1,45,107,21
1,45,0,39
1,57,107,21
1,57,0,39
1,45,101,21
1,45,0,39
1,45,104,21
1,45,0,39
1,55,104,21
1,55,0,39
1,45,101,21
1,45,0,39
1,45,108,21
1,45,0,39
1,54,105,21
1,54,0,39
1,45,108,21
1,45,0,39
1,45,108,21
1,45,0,39
1,55,107,21
1,55,0,39
1,45,104,21
1,45,0,39
1,45,109,21
1,45,0,39
1,54,109,21
1,54,0,39
1,45,109,21
1,45,0,39
1,45,109,21
1,45,0,39
1,48,104,21
1,55,101,0
1,60,103,0
1,60,0,89
1,55,0,0
1,48,0,0
1,55,102,31
1,48,104,0
1,60,106,0
1,60,0,89
1,48,0,0
1,55,0,0
1,48,116,31
1,60,112,0
1,45,101,0
1,45,0,89
1,60,0,0
1,48,0,0
1,40,103,31
1,40,0,39
1,40,104,21
1,40,0,39
1,40,106,21
1,40,0,39
1,40,107,21
1,40,0,39
1,40,102,21
1,40,0,39
1,40,112,21
1,40,0,39
1,43,109,21
1,50,105,0
1,50,0,89
1,43,0,0
1,43,101,31
1,50,104,0
1,50,0,89
1,43,0,0
1,43,107,31
1,50,107,0
1,50,0,89
1,43,0,0
1,40,102,31
1,40,0,39
1,40,100,21
1,40,0,39
1,40,107,21
1,40,0,39
1,40,106,21
1,40,0,39
1,40,109,21
1,40,0,39
1,40,112,21
1,40,0,39
1,45,104,21
1,45,0,39
1,45,102,21
1,45,0,39
1,45,112,21
1,45,0,39
1,45,108,21
1,45,0,39
1,43,108,21
1,43,0,39
1,41,108,21
1,41,0,39
1,40,106,21
1,40,0,39
1,40,109,21
1,40,0,39
1,40,107,21
1,40,0,39
1,40,109,21
1,40,0,39
1,40,106,21
1,40,0,39
1,40,111,21
1,40,0,39
1,43,105,21
1,50,104,0
1,50,0,89
1,43,0,0
1,43,109,31
1,50,106,0
1,50,0,89
1,43,0,0
1,43,113,31
1,50,113,0
1,50,0,89
1,43,0,0
1,40,107,31
1,40,0,39
1,40,105,21
1,40,0,39
1,40,103,21
1,40,0,39
1,40,103,21
1,40,0,39
1,40,103,21
1,40,0,39
1,40,112,21
1,40,0,39
1,57,103,21
1,64,109,0
1,69,107,0
1,69,0,39
1,64,0,0
1,57,0,0
1,57,103,21
1,64,104,0
1,69,103,0
1,69,0,39
1,64,0,0
1,57,0,0
1,57,109,21
1,64,107,0
1,69,104,0
1,69,0,39
1,64,0,0
1,57,0,0
1,57,109,21
1,64,108,0
1,69,106,0
1,69,0,100
1,64,0,0
1,57,0,0
1,40,103,80
1,40,0,39
1,40,104,21
1,40,0,39
1,40,106,21
1,40,0,39
1,40,107,21
1,40,0,39
1,40,102,21
1,40,0,39
1,40,112,21
1,40,0,39
1,43,109,21
1,50,105,0
1,50,0,89
1,43,0,0
1,43,101,31
1,50,104,0
1,50,0,89
1,43,0,0
1,43,107,31
1,50,107,0
1,50,0,89
1,43,0,0
1,40,102,31
1,40,0,39
1,40,100,21
1,40,0,39
1,40,107,21
1,40,0,39
1,40,106,21
1,40,0,39
1,40,109,21
1,40,0,39
1,40,112,21
1,40,0,39
1,45,104,21
1,45,0,39
1,45,102,21
1,45,0,39
1,45,112,21
1,45,0,39
1,45,108,21
1,45,0,39
1,43,108,21
1,43,0,39
1,41,108,21
1,41,0,39
1,40,106,21
1,40,0,39
1,40,109,21
1,40,0,39
1,40,107,21
1,40,0,39
1,40,109,21
1,40,0,39
1,40,106,21
1,40,0,39
1,40,111,21
1,40,0,39
1,43,105,21
1,50,104,0
1,50,0,89
1,43,0,0
1,43,109,31
1,50,106,0
1,50,0,89
1,43,0,0
1,43,113,31
1,50,113,0
1,50,0,89
1,43,0,0
1,40,107,31
1,40,0,39
1,40,105,21
1,40,0,39
1,40,103,21
1,40,0,39
1,40,103,21
1,40,0,39
1,40,103,21
1,40,0,39
1,40,112,21
1,40,0,39
1,57,103,21
1,64,109,0
1,69,107,0
1,69,0,39
1,64,0,0
1,57,0,0
1,57,103,21
1,64,104,0
1,69,103,0
1,69,0,39
1,64,0,0
1,57,0,0
1,57,109,21
1,64,107,0
1,69,104,0
1,69,0,39
1,64,0,0
1,57,0,0
1,57,109,21
1,64,108,0
1,69,106,0
1,69,0,100
1,64,0,0
1,57,0,0
1,72,106,80
1,72,0,719
1,76,106,1
1,76,0,119
1,76,106,1
1,76,0,119
1,77,106,1
1,77,0,119
1,79,106,1
1,79,0,119
1,77,106,1
1,77,0,119
1,76,106,1
1,76,0,119
1,74,106,1
1,74,0,719
1,78,106,1
1,78,0,45
1,78,106,15
1,78,0,45
1,78,106,15
1,78,0,45
1,79,106,15
1,79,0,45
1,79,106,15
1,79,0,45
1,79,106,15
1,79,0,45
1,81,106,15
1,81,0,45
1,81,106,15
1,81,0,45
1,81,106,15
1,81,0,45
1,81,106,15
1,81,0,45
1,79,106,15
1,79,0,45
1,77,106,15
1,77,0,45
1,75,106,15
1,75,0,719
1,70,106,1
1,70,0,239
1,70,106,121
1,70,0,119
1,72,106,1
1,72,0,119
1,74,106,1
1,74,0,119
1,72,106,1
1,72,0,719
1,72,106,1
1,79,106,0
1,79,0,59
1,77,106,1
1,77,0,59
1,75,106,1
1,75,0,59
1,79,106,1
1,79,0,59
1,77,106,1
1,77,0,59
1,75,106,1
1,75,0,59
1,79,106,1
1,79,0,59
1,77,106,1
1,77,0,59
1,75,106,1
1,75,0,59
1,79,106,1
1,79,0,59
1,77,106,1
1,77,0,59
1,75,106,1
1,75,0,59
1,72,0,0
1,72,106,1
1,72,0,719
1,76,106,1
1,76,0,119
1,76,106,1
1,76,0,119
1,77,106,1
1,77,0,119
1,79,106,1
1,79,0,119
1,77,106,1
1,77,0,119
1,76,106,1
1,76,0,119
1,74,106,1
1,74,0,719
1,78,106,1
1,78,0,59
1,78,106,1
1,78,0,59
1,78,106,1
1,78,0,59
1,79,106,1
1,79,0,59
1,79,106,1
1,79,0,59
1,79,106,1
1,79,0,59
1,81,106,1
1,81,0,59
1,81,106,1
1,81,0,59
1,81,106,1
1,81,0,59
1,81,106,1
1,81,0,59
1,79,106,1
1,79,0,59
1,77,106,1
1,77,0,59
1,75,106,1
1,75,0,710
1,70,106,10
1,70,0,239
1,70,106,121
1,70,0,119
1,72,106,1
1,72,0,119
1,74,106,1
1,74,0,119
1,72,106,1
1,72,0,1439
1,67,107,1
1,67,0,39
1,66,81,21
1,66,0,39
1,62,95,21
1,62,0,39
1,67,94,21
1,67,0,39
1,66,98,21
1,66,0,39
1,62,99,21
1,62,0,39
1,67,99,21
1,67,0,39
1,66,89,21
1,66,0,39
1,62,97,21
1,62,0,39
1,67,99,21
1,67,0,39
1,66,98,21
1,66,0,39
1,62,96,21
1,62,0,39
1,67,91,21
1,67,0,39
1,66,96,21
1,66,0,39
1,62,91,21
1,62,0,39
