track,note,velocity,time
1,98,100,2260
1,96,99,4
1,95,94,12
1,93,97,8
1,91,99,4
1,89,99,4
1,88,106,0
1,86,106,0
1,84,106,0
1,83,106,0
1,81,102,12
1,79,100,12
1,77,93,16
1,76,92,12
1,74,97,0
1,72,99,16
1,71,95,12
1,69,88,12
1,67,92,16
1,65,90,16
1,64,91,16
1,62,90,16
1,60,95,16
1,59,92,12
1,57,87,12
1,55,92,12
1,36,104,4
1,60,104,0
1,62,104,0
1,64,115,0
1,67,104,0
1,53,92,4
1,52,94,8
1,50,69,0
1,48,99,0
1,40,104,36
1,60,104,0
1,64,115,0
1,68,94,0
1,41,94,60
1,60,115,0
1,64,104,0
1,67,104,0
1,69,94,0
1,38,104,72
1,60,104,0
1,62,104,0
1,65,115,0
1,69,104,0
1,43,104,36
1,60,115,0
1,65,127,0
1,69,94,0
1,67,86,384
1,36,104,32
1,60,104,0
1,62,104,0
1,64,115,0
1,67,104,0
1,40,104,48
1,60,104,0
1,64,115,0
1,68,94,0
1,41,104,32
1,60,115,0
1,64,115,0
1,66,55,0
1,67,104,0
1,69,104,0
1,38,104,52
1,60,115,0
1,62,115,0
1,64,104,0
1,65,115,0
1,69,104,0
1,43,104,20
1,60,104,0
1,65,104,0
1,69,94,0
1,36,104,16
1,60,94,0
1,62,94,0
1,64,94,0
1,67,94,0
1,40,104,24
1,56,104,0
1,64,115,0
1,60,104,768
1,56,104,96
1,41,104,24
1,55,104,0
1,57,115,0
1,60,104,0
1,64,104,0
1,46,94,24
1,56,104,0
1,60,115,0
1,62,104,0
1,67,115,0
1,65,94,80
1,62,86,364
1,36,104,36
1,55,104,0
1,60,86,0
1,64,104,0
1,40,104,48
1,56,104,0
1,60,115,0
1,64,104,0
1,56,94,72
1,41,94,20
1,55,104,0
1,57,115,0
1,60,115,0
1,64,104,0
1,72,107,152
1,81,93,0
1,69,104,28
1,76,88,0
1,64,97,4
1,72,90,0
1,60,81,0
1,69,92,0
1,46,86,12
1,56,86,0
1,60,104,0
1,62,104,0
1,67,104,0
1,65,86,752
1,43,86,32
1,60,104,0
1,64,115,0
1,67,104,0
1,42,104,36
1,54,104,0
1,60,115,0
1,64,104,0
1,72,110,244
1,81,103,0
1,69,96,36
1,76,82,0
1,64,105,4
1,72,93,0
1,60,96,4
1,69,91,0
1,41,104,56
1,55,104,0
1,57,104,0
1,60,115,0
1,61,86,0
1,64,115,0
1,40,94,40
1,55,115,0
1,59,127,0
1,60,51,0
1,62,104,0
1,38,104,28
1,57,115,0
1,60,127,0
1,65,115,0
1,40,104,28
1,55,104,0
1,60,104,0
1,64,104,0
1,41,104,28
1,53,115,0
1,57,115,0
1,60,115,0
1,43,104,16
1,53,115,0
1,57,127,0
1,60,104,0
1,36,104,16
1,55,115,0
1,60,104,0
1,62,115,0
1,64,115,0
1,67,104,0
1,40,104,68
1,60,115,0
1,64,115,0
1,68,104,0
1,41,104,44
1,60,127,0
1,64,115,0
1,67,104,0
1,69,104,0
1,38,115,56
1,60,127,0
1,65,127,0
1,69,127,0
1,67,86,384
1,43,94,44
1,57,115,0
1,60,127,0
1,65,127,0
1,64,94,384
1,36,115,0
1,43,63,0
1,55,115,0
1,60,115,0
1,62,115,0
1,64,104,0
1,62,19,4
1,40,104,40
1,56,104,0
1,60,127,0
1,64,115,0
1,41,115,28
1,57,115,0
1,60,127,0
1,64,104,0
1,67,115,0
1,38,104,52
1,57,115,0
1,60,127,0
1,65,127,0
1,43,115,44
1,57,115,0
1,60,127,0
1,65,115,0
1,36,104,0
1,60,94,0
1,62,94,0
1,64,94,0
1,67,94,0
1,40,104,28
1,56,104,0
1,64,115,0
1,60,104,768
1,56,104,96
1,41,104,24
1,55,104,0
1,57,115,0
1,60,104,0
1,64,104,0
1,46,94,24
1,56,104,0
1,60,115,0
1,62,104,0
1,67,115,0
1,65,94,80
1,62,86,360
1,36,104,40
1,55,104,0
1,60,86,0
1,64,104,0
1,40,104,0
1,56,104,0
1,60,115,0
1,64,104,0
1,56,94,72
1,41,94,20
1,55,104,0
1,57,115,0
1,60,115,0
1,64,104,0
1,46,86,12
1,56,86,0
1,60,104,0
1,62,104,0
1,67,104,0
1,65,86,768
1,43,86,32
1,60,104,0
1,64,115,0
1,67,104,0
1,42,104,40
1,54,104,0
1,60,115,0
1,64,104,0
1,41,104,108
1,55,104,0
1,57,104,0
1,60,115,0
1,61,86,0
1,64,115,0
1,40,94,40
1,55,115,0
1,59,127,0
1,60,51,0
1,62,104,0
1,38,104,28
1,57,115,0
1,60,127,0
1,65,127,0
1,40,104,32
1,55,115,0
1,60,104,0
1,64,104,0
1,41,115,48
1,53,115,0
1,57,115,0
1,60,115,0
1,43,127,24
1,53,115,0
1,57,115,0
1,60,115,0
1,36,104,0
1,55,115,0
1,60,104,0
1,62,115,0
1,64,115,0
1,67,104,0
1,40,104,68
1,60,115,0
1,64,115,0
1,68,104,0
1,41,104,44
1,60,127,0
1,64,115,0
1,67,104,0
1,69,104,0
1,38,115,56
1,60,127,0
1,65,127,0
1,69,127,0
1,67,86,384
1,43,94,48
1,57,115,0
1,60,127,0
1,65,127,0
1,64,94,384
1,36,115,0
1,43,63,0
1,55,115,0
1,60,115,0
1,62,115,0
1,64,104,0
1,62,19,4
1,40,104,40
1,56,104,0
1,60,127,0
1,64,115,0
1,41,115,28
1,57,115,0
1,60,127,0
1,64,104,0
1,67,115,0
1,38,104,52
1,57,115,0
1,60,127,0
1,65,127,0
1,43,115,44
1,57,115,0
1,60,127,0
1,65,115,0
1,36,104,0
1,55,115,0
1,60,104,0
1,62,115,0
1,64,115,0
1,67,104,0
1,40,104,68
1,60,115,0
1,64,115,0
1,68,104,0
1,41,104,44
1,60,127,0
1,64,115,0
1,67,104,0
1,69,104,0
1,38,115,52
1,60,127,0
1,65,127,0
1,69,127,0
1,67,86,384
1,43,94,48
1,57,115,0
1,60,127,0
1,65,127,0
1,64,94,384
1,36,115,0
1,43,63,0
1,55,115,0
1,60,115,0
1,62,115,0
1,64,104,0
1,62,19,4
1,40,104,40
1,56,104,0
1,60,127,0
1,64,115,0
1,41,115,28
1,57,115,0
1,60,127,0
1,64,104,0
1,67,115,0
1,38,104,48
1,57,115,0
1,60,127,0
1,65,127,0
1,43,115,44
1,57,115,0
1,60,127,0
1,65,115,0
1,36,104,0
1,56,115,0
1,62,115,0
1,65,104,0
1,56,104,112
1,48,73,768
1,36,115,32
1,55,115,0
1,60,115,0
1,62,104,0
1,64,104,0
1,55,79,84
1,48,63,40
1,36,115,16
1,56,104,0
1,62,127,0
1,65,115,0
1,56,86,136
1,45,115,44
1,55,115,0
1,57,115,0
1,61,104,0
1,64,115,0
1,42,104,52
1,54,115,0
1,58,104,0
1,61,104,0
1,63,44,0
1,64,127,0
1,41,104,0
1,53,94,0
1,57,115,0
1,60,104,0
1,64,104,0
1,40,94,44
1,55,104,0
1,59,127,0
1,62,115,0
1,38,115,48
1,57,115,0
1,60,127,0
1,65,127,0
1,40,115,24
1,55,104,0
1,60,94,0
1,64,94,0
1,41,94,40
1,53,127,0
1,57,127,0
1,60,127,0
1,43,104,16
1,53,115,0
1,57,104,0
1,60,115,0
1,36,104,0
1,60,94,0
1,62,94,0
1,64,94,0
1,67,94,0
1,40,104,32
1,56,104,0
1,64,115,0
1,60,104,768
1,56,104,96
1,41,104,24
1,55,104,0
1,57,115,0
1,60,104,0
1,64,104,0
1,46,94,24
1,56,104,0
1,60,115,0
1,62,104,0
1,67,115,0
1,65,94,80
1,62,86,360
1,36,104,40
1,55,104,0
1,60,86,0
1,64,104,0
1,40,104,0
1,56,104,0
1,60,115,0
1,64,104,0
1,56,94,72
1,41,94,20
1,55,104,0
1,57,115,0
1,60,115,0
1,64,104,0
1,46,86,12
1,56,86,0
1,60,104,0
1,62,104,0
1,67,104,0
1,65,86,768
1,43,86,32
1,60,104,0
1,64,115,0
1,67,104,0
1,42,104,40
1,54,104,0
1,60,115,0
1,64,104,0
1,72,104,136
1,81,93,0
1,69,90,44
1,76,81,0
1,64,100,4
1,72,97,0
1,60,87,4
1,69,92,0
1,41,104,4
1,55,104,0
1,57,104,0
1,60,115,0
1,61,86,0
1,64,115,0
1,40,94,40
1,55,115,0
1,59,127,0
1,60,51,0
1,62,104,0
1,38,104,28
1,57,115,0
1,60,127,0
1,65,115,0
1,40,104,32
1,55,104,0
1,60,104,0
1,64,104,0
1,41,104,28
1,53,115,0
1,57,115,0
1,60,115,0
1,43,104,16
1,53,115,0
1,57,127,0
1,60,104,0
1,36,104,16
1,55,115,0
1,60,104,0
1,62,115,0
1,64,115,0
1,67,104,0
1,40,104,68
1,60,115,0
1,64,115,0
1,68,104,0
1,41,104,44
1,60,127,0
1,64,115,0
1,67,104,0
1,69,104,0
1,38,115,56
1,60,127,0
1,65,127,0
1,69,127,0
1,67,86,384
1,43,94,44
1,57,115,0
1,60,127,0
1,65,127,0
1,64,94,384
1,36,115,24
1,43,63,0
1,55,115,0
1,60,115,0
1,62,115,0
1,64,104,0
1,62,19,4
1,40,104,40
1,56,104,0
1,60,127,0
1,64,115,0
1,41,115,28
1,57,115,0
1,60,127,0
1,64,104,0
1,67,115,0
1,38,104,48
1,57,115,0
1,60,127,0
1,65,127,0
1,43,115,44
1,57,115,0
1,60,127,0
1,65,115,0
1,36,104,0
1,55,115,0
1,60,104,0
1,62,115,0
1,64,115,0
1,67,104,0
1,40,104,68
1,60,115,0
1,64,115,0
1,68,104,0
1,41,104,44
1,60,127,0
1,64,115,0
1,67,104,0
1,69,104,0
1,38,115,52
1,60,127,0
1,65,127,0
1,69,127,0
1,67,86,384
1,43,94,44
1,57,115,0
1,60,127,0
1,65,127,0
1,64,94,384
1,36,115,0
1,43,63,0
1,55,115,0
1,60,115,0
1,62,115,0
1,64,104,0
1,62,19,4
1,40,104,40
1,56,104,0
1,60,127,0
1,64,115,0
1,41,115,28
1,57,115,0
1,60,127,0
1,64,104,0
1,67,115,0
1,38,104,52
1,57,115,0
1,60,127,0
1,65,127,0
1,43,115,44
1,57,115,0
1,60,127,0
1,65,115,0
1,36,104,0
1,55,115,0
1,60,104,0
1,62,115,0
1,64,115,0
1,67,104,0
1,40,104,68
1,60,115,0
1,64,115,0
1,68,104,0
1,41,104,44
1,60,127,0
1,64,115,0
1,67,104,0
1,69,104,0
1,38,115,52
1,60,127,0
1,65,127,0
1,69,127,0
1,67,86,384
1,43,94,48
1,57,115,0
1,60,127,0
1,65,127,0
1,64,94,384
1,36,115,0
1,43,63,0
1,55,115,0
1,60,115,0
1,62,115,0
1,64,104,0
1,62,19,4
1,40,104,44
1,56,104,0
1,60,127,0
1,64,115,0
1,41,115,28
1,57,115,0
1,60,127,0
1,64,104,0
1,67,115,0
1,38,104,52
1,57,115,0
1,60,127,0
1,65,127,0
1,43,115,44
1,57,115,0
1,60,127,0
1,65,115,0
1,36,104,0
1,55,115,0
1,60,104,0
1,62,115,0
1,64,115,0
1,67,104,0
2,36,119,2652
2,36,119,556
2,28,119,592
2,28,119,520
2,26,101,64
2,28,101,0
2,31,109,0
2,28,109,192
2,29,109,20
2,29,109,604
2,26,119,612
2,31,109,652
2,31,109,264
2,33,109,64
2,36,119,144
2,36,119,636
2,28,119,592
2,28,119,588
2,26,101,64
2,28,101,4
2,31,109,0
2,28,109,192
2,29,109,16
2,29,109,636
2,26,119,644
2,31,109,600
2,31,109,264
2,33,109,64
2,36,119,112
2,36,119,648
2,28,119,636
2,28,101,564
2,26,109,0
2,28,94,192
2,31,109,4
2,28,101,16
2,29,119,8
2,29,109,640
2,34,119,636
2,31,101,24
2,33,109,384
2,36,119,0
2,36,119,648
2,28,119,636
2,28,101,564
2,26,109,0
2,28,94,192
2,31,109,8
2,28,101,192
2,29,119,8
2,29,109,640
2,34,119,632
2,31,101,28
2,33,109,384
2,31,109,344
2,43,127,552
2,31,109,64
2,30,109,536
2,30,83,548
2,30,127,56
2,29,127,4
2,29,119,616
2,28,109,24
2,26,119,384
2,28,109,20
2,29,119,384
2,31,119,372
2,36,109,380
2,33,109,92
2,31,109,96
2,33,119,88
2,36,127,92
2,28,127,656
2,28,119,608
2,26,94,64
2,28,109,8
2,31,109,192
2,28,101,16
2,29,127,192
2,41,127,564
2,29,109,64
2,28,94,440
2,26,119,152
2,31,109,16
2,33,109,384
2,36,119,0
2,36,127,648
2,28,119,652
2,28,119,568
2,26,101,64
2,28,109,0
2,31,109,192
2,28,101,28
2,29,119,192
2,41,127,576
2,29,101,64
2,28,119,224
2,26,109,240
2,28,109,384
2,29,109,368
2,31,109,360
2,36,119,356
2,36,119,648
2,28,119,636
2,28,101,564
2,26,109,0
2,28,94,192
2,31,109,12
2,28,101,192
2,29,119,8
2,29,109,640
2,34,119,632
2,31,101,28
2,33,109,384
2,36,119,344
2,36,119,652
2,28,119,636
2,28,101,564
2,26,109,0
2,28,94,192
2,31,109,8
2,28,101,192
2,29,119,8
2,29,109,644
2,34,119,636
2,31,101,24
2,33,109,384
2,31,109,344
2,43,127,556
2,31,109,64
2,30,109,540
2,30,83,544
2,30,127,48
2,29,127,0
2,29,119,620
2,28,109,24
2,26,119,384
2,28,109,20
2,29,119,384
2,31,119,4
2,36,109,384
2,33,109,92
2,31,109,96
2,33,119,92
2,36,127,92
2,28,127,656
2,28,119,608
2,26,94,64
2,28,109,8
2,31,109,192
2,28,101,16
2,29,127,192
2,41,127,564
2,29,109,64
2,28,94,440
2,26,119,152
2,31,109,20
2,33,109,0
2,36,119,0
2,36,127,648
2,28,119,652
2,28,119,568
2,26,101,64
2,28,109,0
2,31,109,192
2,28,101,24
2,29,119,192
2,41,127,576
2,29,101,64
2,28,119,220
2,26,109,240
2,28,109,384
2,29,109,368
2,31,109,360
2,36,109,356
2,33,109,80
2,31,109,96
2,33,119,88
2,36,127,92
2,28,127,660
2,28,119,608
2,26,94,64
2,28,109,8
2,31,109,192
2,28,101,16
2,29,127,192
2,41,127,560
2,29,109,64
2,28,94,440
2,26,119,148
2,31,109,16
2,33,109,0
2,36,119,0
2,36,127,644
2,28,119,652
2,28,119,568
2,26,101,64
2,28,109,0
2,31,109,192
2,28,101,24
2,29,119,192
2,41,127,576
2,29,101,64
2,28,119,220
2,26,109,240
2,28,109,384
2,29,109,364
2,31,109,364
2,36,109,356
2,48,109,1524
2,36,119,1520
2,32,109,104
2,33,101,16
2,30,119,0
2,29,127,16
2,28,119,1152
2,26,119,4
2,31,127,4
2,33,119,384
2,36,119,372
2,36,119,624
2,28,119,636
2,28,101,564
2,26,109,0
2,28,94,192
2,31,109,8
2,28,101,192
2,29,119,8
2,29,109,644
2,34,119,632
2,31,101,24
2,33,109,384
2,36,119,344
2,36,119,652
2,28,119,636
2,28,101,564
2,26,109,0
2,28,94,192
2,31,109,8
2,28,101,192
2,29,119,8
2,29,109,644
2,34,119,632
2,31,101,24
2,33,109,384
2,31,109,344
2,43,127,552
2,31,109,64
2,30,109,536
2,30,83,544
2,30,127,48
2,29,127,0
2,29,119,616
2,28,109,24
2,26,119,384
2,28,109,20
2,29,119,384
2,31,119,372
2,36,109,380
2,33,109,92
2,31,109,96
2,33,119,92
2,36,127,92
2,28,127,656
2,28,119,608
2,26,94,64
2,28,109,8
2,31,109,192
2,28,101,20
2,29,127,192
2,41,127,560
2,29,109,64
2,28,94,440
2,26,119,152
2,31,109,20
2,33,109,384
2,36,119,0
2,36,127,648
2,28,119,652
2,28,119,568
2,26,101,64
2,28,109,0
2,31,109,192
2,28,101,28
2,29,119,192
2,41,127,576
2,29,101,64
2,28,119,220
2,26,109,240
2,28,109,384
2,29,109,368
2,31,109,360
2,36,109,356
2,33,109,80
2,31,109,92
2,33,119,92
2,36,127,92
2,28,127,656
2,28,119,608
2,26,94,64
2,28,109,12
2,31,109,192
2,28,101,16
2,29,127,192
2,41,127,564
2,29,109,64
2,28,94,440
2,26,119,148
2,31,109,16
2,33,109,0
2,36,119,0
2,36,127,644
