track,note,velocity,time
1,63,90,899
1,64,96,5
1,40,78,2
1,57,98,4
1,33,92,0
1,59,90,39
1,47,90,6
1,48,90,6
1,60,99,0
1,50,103,2
1,62,90,0
1,47,94,36
1,59,100,2
1,55,107,41
1,57,95,5
1,63,90,224
1,64,96,6
1,40,78,2
1,57,98,4
1,33,92,0
1,59,90,39
1,47,90,6
1,48,90,6
1,60,99,0
1,50,103,2
1,62,90,0
1,47,94,36
1,59,100,2
1,55,107,41
1,57,95,5
1,63,87,5985
1,40,106,8
1,64,110,1
1,57,103,2
1,33,95,2
1,59,95,208
1,47,86,0
1,60,101,7
1,48,98,1
1,50,93,3
1,62,100,3
1,62,112,12
1,55,105,45
1,57,100,4
1,64,111,643
1,40,103,1
1,57,93,3
1,33,88,3
1,47,93,168
1,59,100,3
1,48,100,4
1,60,103,0
1,50,95,10
1,62,100,0
1,59,111,0
1,55,107,24
1,57,100,8
1,63,93,6751
1,40,110,6
1,64,100,4
1,57,105,4
1,33,97,2
1,64,122,621
1,40,108,5
1,57,90,3
1,33,107,0
1,59,90,336
1,47,88,0
1,48,100,2
1,60,110,0
1,50,99,4
1,62,101,1
1,59,105,12
1,55,105,36
1,57,99,7
1,64,122,1006
1,40,108,5
1,57,90,3
1,33,107,0
1,59,90,336
1,47,88,0
1,48,100,2
1,60,110,0
1,50,99,4
1,62,101,1
1,59,105,12
1,55,105,36
1,57,99,7
1,59,123,427
1,60,123,0
1,64,123,0
1,62,118,48
1,62,110,36
1,55,101,50
1,64,122,1011
1,40,108,5
1,57,90,3
1,33,107,0
1,59,90,336
1,47,88,0
1,48,100,2
1,60,110,0
1,50,99,4
1,62,101,1
1,59,105,12
1,55,105,36
1,57,99,7
1,64,122,1006
1,40,108,5
1,57,90,3
1,33,107,0
1,59,90,336
1,47,88,0
1,48,100,2
1,60,110,0
1,50,99,4
1,62,101,1
1,59,105,12
1,55,105,36
1,57,99,7
1,64,122,1006
1,40,108,5
1,57,90,3
1,33,107,0
1,59,90,336
1,47,88,0
1,48,100,2
1,60,110,0
1,50,99,4
1,62,101,1
1,59,105,12
1,55,105,36
1,57,99,7
1,64,122,8686
1,40,108,5
1,57,90,3
1,33,107,0
1,59,90,336
1,47,88,0
1,48,100,2
1,60,110,0
1,50,99,4
1,62,101,1
1,59,105,12
1,55,105,36
1,57,99,7
1,60,117,20
1,57,93,1
1,55,93,49
1,56,105,7
1,57,121,13
1,64,122,670
1,40,108,5
1,57,90,1
1,33,107,0
1,59,90,341
1,47,88,0
1,48,100,2
1,60,110,0
1,50,99,4
1,62,101,1
1,59,105,12
1,55,105,36
1,57,99,7
1,64,122,1030
1,40,108,5
1,57,90,1
1,33,107,0
1,59,90,341
1,47,88,0
1,48,100,2
1,60,110,0
1,50,99,4
1,62,101,1
1,59,105,12
1,55,105,36
1,57,99,7
1,64,122,1030
1,40,108,5
1,57,90,1
1,33,107,0
1,59,90,341
1,47,88,0
1,48,100,2
1,60,110,0
1,50,99,4
1,62,101,1
1,59,105,12
1,55,105,36
1,57,99,7
1,64,122,1030
1,40,108,5
1,57,90,1
1,33,107,0
1,59,90,341
1,47,88,0
1,48,100,2
1,60,110,0
1,50,99,4
1,62,101,1
1,59,105,12
1,55,105,36
1,57,99,7
1,64,122,1030
1,40,108,5
1,57,90,1
1,33,107,0
1,59,90,341
1,47,88,0
1,48,100,2
1,60,110,0
1,50,99,4
1,62,101,1
1,59,105,12
1,55,105,36
1,57,99,7
1,64,122,1030
1,40,108,5
1,57,90,1
1,33,107,0
1,64,122,2163
1,40,108,5
1,57,90,1
1,33,107,0
1,59,90,341
1,47,88,0
1,48,100,2
1,60,110,0
1,50,99,4
1,62,101,1
1,59,105,12
1,55,105,36
1,57,99,7
1,64,122,1030
1,40,108,5
1,57,90,1
1,33,107,0
1,72,102,432
1,48,102,0
1,76,110,5
1,52,110,0
1,79,117,11
1,55,106,1
1,57,120,23
1,81,120,0
1,64,120,1
1,72,120,0
1,81,127,8
1,57,127,0
1,64,127,1
1,72,127,0
1,64,127,12
1,72,127,0
1,81,127,1
1,57,127,0
2,33,100,7194
2,31,77,35
2,33,101,26
2,31,88,43
2,33,101,22
2,36,99,87
2,33,95,10
2,31,106,55
2,32,110,15
2,33,115,17
2,33,106,50
2,31,94,39
2,33,107,25
2,31,91,45
2,33,105,25
2,36,103,53
2,33,98,44
2,31,83,46
2,32,106,15
2,33,99,19
2,33,112,51
2,31,88,39
2,33,106,19
2,31,85,47
2,33,102,20
2,33,99,20
2,33,85,40
2,36,98,12
2,40,93,12
2,43,102,30
2,44,99,20
2,45,84,20
2,33,95,56
2,31,84,47
2,33,99,20
2,31,81,48
2,33,96,27
2,33,99,20
2,33,95,63
2,40,88,67
2,43,95,27
2,44,108,14
2,45,96,22
2,33,102,69
2,31,83,38
2,33,102,16
2,31,88,36
2,33,102,19
2,33,102,5
2,33,85,48
2,36,87,14
2,40,91,8
2,43,93,15
2,44,96,11
2,45,99,13
2,33,102,43
2,31,83,38
2,33,102,16
2,31,88,36
2,33,102,19
2,33,102,5
2,33,85,48
2,36,87,14
2,40,91,8
2,43,93,15
2,44,96,11
2,45,99,13
2,33,102,43
2,31,83,38
2,33,102,16
2,31,88,36
2,33,102,19
2,33,102,5
2,33,85,48
2,36,87,14
2,40,91,8
2,43,93,15
2,44,96,11
2,45,99,13
2,33,102,43
2,31,83,38
2,33,102,16
2,31,88,36
2,33,102,19
2,33,102,5
2,33,85,48
2,36,87,14
2,40,91,8
2,43,93,15
2,44,96,11
2,45,99,13
2,33,102,43
2,31,83,38
2,33,102,16
2,31,88,36
2,33,102,19
2,33,102,5
2,33,85,48
2,36,87,14
2,40,91,8
2,43,93,15
2,44,96,11
2,45,99,13
2,33,90,44
2,33,85,15
2,33,113,19
2,35,107,46
2,35,96,21
2,36,106,27
2,36,106,23
2,38,110,29
2,33,109,37
2,31,89,38
2,33,106,16
2,31,94,35
2,33,110,18
2,36,101,83
2,33,99,9
2,31,95,35
2,32,104,8
2,33,103,11
2,33,110,39
2,31,95,34
2,33,106,16
2,31,96,29
2,33,105,18
2,36,107,39
2,33,101,31
2,31,77,36
2,32,100,9
2,33,119,14
2,33,101,54
2,31,76,42
2,33,109,16
2,31,95,33
2,33,109,20
2,36,107,99
2,33,102,15
2,31,98,42
2,32,94,7
2,33,95,10
2,33,110,41
2,31,94,45
2,33,105,19
2,31,102,49
2,33,100,25
2,36,110,45
2,33,103,37
2,31,103,43
2,32,106,8
2,33,95,6
2,33,109,49
2,31,83,45
2,33,100,16
2,31,100,50
2,33,102,16
2,36,94,96
2,33,102,10
2,31,102,46
2,32,83,3
2,33,92,7
2,33,110,55
2,31,95,43
2,33,103,18
2,31,95,37
2,33,105,18
2,36,102,36
2,33,107,38
2,31,106,54
2,32,106,8
2,33,100,13
2,33,107,48
2,31,86,40
2,33,102,8
2,31,85,44
2,33,106,20
2,36,103,97
2,33,93,7
2,31,107,47
2,32,79,4
2,33,88,7
2,33,117,42
2,31,76,29
2,33,105,13
2,31,72,58
2,33,100,17
2,36,99,49
2,33,92,33
2,31,86,46
2,32,71,5
2,33,88,17
2,33,109,47
2,31,100,43
2,33,96,12
2,31,85,41
2,33,98,14
2,33,95,17
2,33,88,50
2,36,89,10
2,40,99,4
2,43,109,22
2,44,108,9
2,45,88,19
2,33,95,49
2,31,83,37
2,33,99,13
2,31,95,54
2,33,89,16
2,33,91,18
2,33,86,55
2,36,93,19
2,40,94,7
2,43,105,21
2,44,110,8
2,45,99,14
2,33,121,43
2,31,106,45
2,33,115,15
2,31,93,49
2,33,95,17
2,33,119,10
2,33,117,48
2,40,84,51
2,43,99,12
2,44,92,5
2,45,95,19
2,33,103,49
2,31,98,49
2,33,119,11
2,31,86,48
2,33,93,27
2,33,106,15
2,33,121,48
2,40,76,49
2,43,101,8
2,44,108,11
2,45,103,12
2,33,105,50
2,31,85,41
2,33,112,10
2,31,90,52
2,33,95,17
2,33,109,13
2,33,115,39
2,40,77,60
2,43,88,3
2,44,99,11
2,45,106,13
2,33,110,49
2,31,95,46
2,33,106,10
2,31,100,57
2,33,90,17
2,33,99,21
2,33,81,57
2,36,83,10
2,40,98,9
2,43,112,19
2,44,116,10
2,45,111,9
2,33,96,47
2,31,91,51
2,33,102,7
2,31,87,42
2,33,102,19
2,33,94,13
2,33,94,44
2,36,79,13
2,40,95,4
2,43,100,23
2,44,96,5
2,45,88,10
2,33,88,60
2,33,87,8
2,33,93,26
2,35,100,44
2,35,103,17
2,36,103,19
2,36,99,15
2,38,100,8
2,40,75,1
2,33,96,32
2,31,68,51
2,33,91,14
2,31,83,51
2,33,99,15
2,36,112,106
2,33,81,9
2,31,100,61
2,32,82,4
2,33,83,8
2,33,109,50
2,31,87,31
2,33,99,11
2,31,92,33
2,33,101,13
2,36,106,58
2,33,95,4
2,31,85,54
2,32,92,7
2,33,113,5
2,33,106,56
2,31,102,50
2,33,105,2
2,31,94,45
2,33,112,14
2,36,103,90
2,33,105,50
2,31,103,41
2,32,114,6
2,33,102,3
2,33,121,46
2,31,110,40
2,33,115,12
2,31,99,51
2,33,99,16
2,33,112,13
2,36,95,17
2,36,105,16
2,36,115,12
2,31,105,17
2,32,122,12
2,33,100,25
2,31,101,46
2,33,105,11
2,31,102,47
2,33,109,19
2,36,105,80
2,33,103,11
2,31,103,38
2,32,125,5
2,33,112,6
2,33,113,44
2,31,107,36
2,33,110,10
2,31,115,36
2,33,117,15
2,36,117,52
2,33,112,8
2,31,109,28
2,32,125,3
2,33,113,10
2,33,103,23
2,31,100,53
2,33,106,10
2,31,93,45
2,33,85,14
2,33,109,13
2,33,106,59
2,36,107,7
2,40,107,9
2,43,100,12
2,44,122,10
2,45,93,14
2,33,105,24
2,31,100,37
2,33,121,16
2,31,101,41
2,33,107,18
2,33,109,15
2,33,84,44
2,36,103,14
2,40,110,13
2,43,99,12
2,44,112,10
2,45,106,7
2,33,100,42
2,33,106,11
2,33,115,12
2,35,112,9
2,35,105,15
2,36,96,20
2,36,115,19
2,38,117,19
2,40,88,2
2,33,105,12
2,31,98,47
2,33,100,13
2,31,101,35
2,33,113,17
2,36,113,77
2,33,95,6
2,31,110,35
2,32,122,10
2,33,105,10
2,33,107,34
2,31,95,35
2,33,107,11
2,31,101,36
2,33,113,16
2,36,109,48
2,33,110,5
2,31,98,33
2,32,112,14
2,33,112,22
2,33,112,39
2,31,93,41
2,33,99,19
2,31,102,28
2,33,113,25
2,36,112,93
2,33,96,14
2,31,100,47
2,32,114,14
2,33,98,17
2,33,101,41
2,31,95,39
2,33,107,9
2,31,99,44
2,33,95,23
2,36,105,52
2,33,100,0
2,31,99,36
2,32,110,5
2,33,95,11
2,33,110,49
2,31,96,35
2,33,102,17
2,31,100,42
2,33,105,22
2,36,107,95
2,33,71,8
2,31,101,47
2,32,114,6
2,33,106,20
2,33,112,47
2,31,103,41
2,33,101,13
2,31,100,46
2,33,109,16
2,36,109,41
2,33,105,11
2,31,112,40
2,32,119,12
2,33,99,19
2,33,110,43
2,31,98,56
2,33,100,15
2,31,107,39
2,33,113,21
2,36,110,89
2,33,85,15
2,31,102,33
2,32,108,9
2,33,109,14
2,33,107,52
2,31,105,45
2,33,107,13
2,31,106,53
2,33,96,14
2,36,113,46
2,33,103,100
2,31,103,37
2,32,125,6
2,33,102,9
2,33,109,48
2,31,102,44
2,33,109,8
2,31,103,39
2,33,110,17
2,33,113,18
2,33,107,51
2,36,102,5
2,40,103,10
2,43,79,9
2,44,125,6
2,45,92,6
2,33,113,43
2,31,106,34
2,33,103,16
2,31,102,41
2,33,99,13
2,33,106,13
2,33,80,42
2,36,88,10
2,40,117,9
2,43,105,15
2,44,122,5
2,45,110,13
2,33,105,30
2,31,95,37
2,33,113,18
2,31,98,37
2,33,105,14
2,33,109,18
2,33,96,38
2,36,110,22
2,40,103,18
2,43,95,11
2,44,119,13
2,45,98,12
2,33,101,40
2,31,102,30
2,33,110,11
2,31,101,39
2,33,112,5
2,33,103,7
2,33,100,42
2,36,107,12
2,40,106,12
2,43,91,14
2,44,114,8
2,45,93,13
2,33,102,45
2,31,101,41
2,33,107,5
2,31,102,38
2,33,110,14
2,36,88,85
2,33,96,14
2,31,94,31
2,32,119,3
2,33,98,14
2,33,109,39
2,31,99,33
2,33,110,4
2,31,96,41
2,33,88,13
2,33,88,21
2,36,96,20
2,36,98,12
2,36,113,24
2,28,107,17
2,31,103,8
2,33,115,16
2,31,99,38
2,33,117,9
2,31,98,47
2,33,109,15
2,36,102,97
2,33,85,9
2,31,100,36
2,32,114,9
2,33,109,10
2,33,105,38
2,31,103,39
2,33,105,6
2,31,107,44
2,33,110,13
2,36,106,53
2,33,100,5
2,31,100,45
2,32,125,8
2,33,112,9
2,33,103,46
2,31,85,43
2,33,105,9
2,31,106,44
2,33,105,14
2,36,109,83
2,33,91,9
2,31,103,36
2,32,116,8
2,33,96,6
2,33,107,51
2,31,95,38
2,33,98,14
2,31,100,35
2,33,109,17
2,36,109,47
2,33,112,5
2,31,105,40
2,32,125,8
2,33,95,8
2,33,106,46
2,31,102,39
2,33,100,10
2,31,103,48
2,33,101,12
2,33,102,18
2,33,99,52
2,36,105,12
2,40,101,11
2,43,95,5
2,44,122,5
2,45,83,8
2,33,99,41
2,31,101,46
2,33,115,4
2,31,101,36
2,33,117,16
2,33,121,20
2,33,109,393
2,31,95,40
2,33,112,7
2,31,95,39
2,33,102,6
2,33,95,14
2,33,88,39
2,36,95,8
2,40,105,9
2,43,93,4
2,44,125,8
2,45,100,6
2,33,101,47
2,31,95,43
2,33,113,13
2,31,96,37
2,33,112,10
2,33,115,13
2,33,86,45
2,36,96,9
2,40,103,10
2,43,89,13
2,44,96,6
2,45,101,6
2,33,101,35
2,31,99,47
2,33,109,4
2,31,95,35
2,33,109,7
2,33,119,12
2,33,105,44
2,36,103,9
2,40,103,11
2,43,98,14
2,44,125,13
2,45,99,9
2,33,96,38
2,31,93,42
2,33,105,7
2,31,93,33
2,33,98,13
2,33,99,20
2,33,89,41
2,36,102,9
2,40,105,11
2,43,93,16
2,44,119,7
2,45,107,10
2,33,105,42
2,31,106,38
2,33,123,10
2,31,93,36
2,33,92,13
2,33,112,17
2,33,78,51
2,36,91,11
2,40,113,16
2,43,101,22
2,44,110,11
2,45,103,5
2,33,101,47
2,33,94,16
2,33,101,22
2,35,110,32
2,35,107,28
2,36,112,23
2,36,98,21
2,38,103,19
2,40,91,4
2,33,91,13
2,31,79,42
2,33,91,11
2,31,94,33
2,33,113,23
2,36,89,81
2,33,102,13
2,31,93,46
2,32,102,4
2,33,90,17
2,33,98,45
2,31,95,44
2,33,100,8
2,31,80,53
2,33,100,15
2,36,103,50
2,33,102,2
2,31,95,50
2,32,71,5
2,33,98,13
2,33,102,43
2,31,98,42
2,33,107,12
2,31,107,37
2,33,107,11
2,36,103,84
2,33,110,12
2,31,102,29
2,32,116,8
2,33,96,11
2,33,115,41
2,31,105,39
2,33,113,12
2,31,95,44
2,33,96,14
2,33,101,22
2,36,98,26
2,36,109,18
2,36,115,26
2,28,95,11
2,31,112,8
2,33,95,12
2,31,95,58
2,33,110,11
2,31,101,42
2,33,109,15
2,36,85,87
2,33,112,17
2,31,98,48
2,32,125,8
2,33,107,18
2,33,100,44
2,31,105,41
2,33,113,12
2,31,98,35
2,33,103,11
2,36,112,51
2,33,105,100
2,31,101,44
2,32,122,7
2,33,101,6
2,33,106,47
2,31,95,44
2,33,113,12
2,31,102,40
2,33,115,17
2,36,109,98
2,33,115,13
2,31,102,47
2,32,125,10
2,33,103,11
2,33,119,49
2,31,102,43
2,33,112,9
2,31,95,44
2,33,113,25
2,36,109,64
2,33,99,1
2,31,93,48
2,32,112,6
2,33,96,10
2,33,101,58
2,31,95,45
2,33,105,11
2,31,93,44
2,33,82,13
2,33,107,21
2,33,78,49
2,36,92,16
2,40,106,11
2,43,109,22
2,44,116,12
2,45,100,15
2,33,107,44
