track,note,velocity,time
1,36,85,1296
1,44,85,0
1,44,85,24
1,38,85,0
1,46,85,0
1,44,85,0
1,44,85,24
1,36,85,0
1,44,85,24
1,36,85,0
1,46,85,0
1,38,85,0
1,39,85,0
1,44,85,24
1,36,85,24
1,44,85,0
1,44,85,24
1,38,85,0
1,46,85,0
1,44,85,24
1,36,85,24
1,44,85,0
1,44,85,24
1,36,85,0
1,46,85,0
1,38,85,0
1,39,85,0
1,44,85,24
1,44,85,0
1,36,85,0
1,44,85,24
1,38,85,0
1,46,85,0
1,44,85,0
1,36,85,24
1,44,85,0
1,44,85,24
1,36,85,0
1,38,85,0
1,39,85,0
1,46,85,0
1,44,85,24
1,44,85,24
1,36,85,0
1,44,85,24
1,38,85,0
1,46,85,0
1,44,85,24
1,44,85,24
1,36,85,0
1,44,85,24
1,36,85,0
1,46,85,0
1,38,85,0
1,39,85,0
1,44,85,48
1,36,85,0
1,44,85,24
1,46,85,0
1,38,85,0
1,44,85,24
1,44,85,24
1,36,85,0
1,44,85,24
1,36,85,0
1,46,85,0
1,39,85,0
1,38,85,0
1,44,85,24
1,36,85,0
1,44,85,24
1,38,85,0
1,46,85,0
1,44,85,24
1,36,85,24
1,44,85,0
1,36,85,24
1,44,85,0
1,46,85,24
1,38,85,0
1,39,85,0
1,36,85,0
1,44,85,0
1,44,73,24
1,38,85,0
1,46,85,0
1,44,85,24
1,36,85,24
1,44,85,0
1,36,85,24
1,44,85,0
1,39,85,0
1,38,85,0
1,46,85,0
1,44,85,24
1,36,85,0
1,44,81,24
1,38,85,0
1,46,85,0
1,44,85,72
1,36,85,0
1,44,85,24
1,36,85,0
1,38,85,24
1,39,85,0
1,46,85,0
1,36,85,0
1,44,85,0
1,44,85,24
1,38,85,0
1,46,85,0
1,44,85,0
1,44,85,24
1,36,85,0
1,44,85,24
1,36,85,0
1,46,85,0
1,38,85,0
1,39,85,0
1,44,85,24
1,36,85,24
1,44,85,0
1,44,85,24
1,38,85,0
1,46,85,0
1,44,85,24
1,36,85,24
1,44,85,0
1,44,85,24
1,36,85,0
1,46,85,0
1,38,85,0
1,39,85,0
1,44,85,24
1,44,85,0
1,36,85,0
1,44,85,24
1,38,85,0
1,46,85,0
1,44,85,0
1,36,85,24
1,44,85,0
1,44,85,24
1,36,85,0
1,38,85,0
1,39,85,0
1,46,85,0
1,44,85,24
1,44,85,24
1,36,85,0
1,44,85,24
1,38,85,0
1,46,85,0
1,44,85,24
1,44,85,24
1,36,85,0
1,44,85,24
1,36,85,0
1,46,85,0
1,38,85,0
1,39,85,0
1,44,85,48
1,36,85,0
1,44,85,24
1,46,85,0
1,38,85,0
1,44,85,24
1,44,85,24
1,36,85,0
1,44,85,24
1,36,85,0
1,46,85,0
1,39,85,0
1,38,85,0
1,44,85,24
1,36,85,0
1,44,85,24
1,38,85,0
1,46,85,0
1,44,85,24
1,36,85,24
1,44,85,0
1,36,85,24
1,44,85,0
1,46,85,24
1,38,85,0
1,39,85,0
1,36,85,0
1,44,85,0
1,44,73,24
1,38,85,0
1,46,85,0
1,44,85,24
1,36,85,24
1,44,85,0
1,36,85,24
1,44,85,0
1,39,85,0
1,38,85,0
1,46,85,0
1,44,85,24
1,36,85,0
1,44,81,24
1,38,85,0
1,46,85,0
1,44,85,72
1,36,85,0
1,44,85,24
1,36,85,0
1,38,85,24
1,39,85,0
1,46,85,0
1,36,85,0
1,44,85,0
1,44,85,24
1,38,85,0
1,46,85,0
1,44,85,0
1,44,85,24
1,36,85,0
1,44,85,24
1,36,85,0
1,46,85,0
1,38,85,0
1,39,85,0
1,44,85,24
1,36,85,24
1,44,85,0
1,44,85,24
1,38,85,0
1,46,85,0
1,44,85,24
1,36,85,24
1,44,85,0
1,44,85,24
1,36,85,0
1,46,85,0
1,38,85,0
1,39,85,0
1,44,85,24
1,44,85,0
1,36,85,0
1,44,85,24
1,38,85,0
1,46,85,0
1,44,85,0
1,36,85,24
1,44,85,0
1,44,85,24
1,36,85,0
1,38,85,0
1,39,85,0
1,46,85,0
1,44,85,24
1,44,85,24
1,36,85,0
1,44,85,24
1,38,85,0
1,46,85,0
1,44,85,24
1,44,85,24
1,36,85,0
1,44,85,24
1,36,85,0
1,46,85,0
1,38,85,0
1,39,85,0
1,44,85,48
1,36,85,0
1,44,85,24
1,46,85,0
1,38,85,0
1,44,85,24
1,44,85,24
1,36,85,0
1,44,85,24
1,36,85,0
1,46,85,0
1,39,85,0
1,38,85,0
1,44,85,24
1,36,85,0
1,44,85,24
1,38,85,0
1,46,85,0
1,44,85,24
1,36,85,24
1,44,85,0
1,36,85,24
1,44,85,0
1,46,85,24
1,38,85,0
1,39,85,0
1,36,85,0
1,44,85,0
1,44,73,24
1,38,85,0
1,46,85,0
1,44,85,24
1,36,85,24
1,44,85,0
1,36,85,24
1,44,85,0
1,39,85,0
1,38,85,0
1,46,85,0
1,44,85,24
1,36,85,0
1,44,81,24
1,38,85,0
1,46,85,0
1,44,85,72
1,36,85,0
1,44,85,24
1,36,85,0
1,38,85,24
1,39,85,0
1,46,85,0
1,36,85,0
1,44,85,0
1,44,85,24
1,38,85,0
1,46,85,0
1,44,85,0
1,44,85,24
1,36,85,0
1,44,85,24
1,36,85,0
1,46,85,0
1,38,85,0
1,39,85,0
1,44,85,24
1,36,85,24
1,44,85,0
1,44,85,24
1,38,85,0
1,46,85,0
1,44,85,24
1,36,85,24
1,44,85,0
1,44,85,24
1,36,85,0
1,46,85,0
1,38,85,0
1,39,85,0
1,44,85,24
1,44,85,0
1,36,85,0
1,44,85,24
1,38,85,0
1,46,85,0
1,44,85,0
1,36,85,24
1,44,85,0
1,44,85,24
1,36,85,0
1,38,85,0
1,39,85,0
1,46,85,0
1,44,85,24
1,44,85,24
1,36,85,0
1,44,85,24
1,38,85,0
1,46,85,0
1,44,85,24
1,44,85,24
1,36,85,0
1,44,85,24
1,36,85,0
1,46,85,0
1,38,85,0
1,39,85,0
1,44,85,48
1,36,85,0
1,44,85,24
1,46,85,0
1,38,85,0
1,44,85,24
1,44,85,24
1,36,85,0
1,44,85,24
1,36,85,0
1,46,85,0
1,39,85,0
1,38,85,0
1,44,85,24
1,36,85,0
1,44,85,24
1,38,85,0
1,46,85,0
1,44,85,24
1,36,85,24
1,44,85,0
1,36,85,24
1,44,85,0
1,46,85,24
1,38,85,0
1,39,85,0
1,36,85,0
1,44,85,0
1,44,73,24
1,38,85,0
1,46,85,0
1,44,85,24
1,36,85,24
1,44,85,0
1,36,85,24
1,44,85,0
1,39,85,0
1,38,85,0
1,46,85,0
1,44,85,24
1,36,85,0
1,44,81,24
1,38,85,0
1,46,85,0
1,44,85,72
1,36,85,0
1,44,85,24
1,36,85,0
1,38,85,24
1,39,85,0
1,46,85,0
1,36,85,0
1,44,85,0
1,44,85,24
1,38,85,0
1,46,85,0
1,44,85,0
1,44,85,24
1,36,85,0
1,44,85,24
1,36,85,0
1,46,85,0
1,38,85,0
1,39,85,0
1,44,85,24
1,36,85,24
1,44,85,0
1,44,85,24
1,38,85,0
1,46,85,0
1,44,85,24
1,36,85,24
1,44,85,0
1,44,85,24
1,36,85,0
1,46,85,0
1,38,85,0
1,39,85,0
1,44,85,24
1,44,85,0
1,36,85,0
1,44,85,24
1,38,85,0
1,46,85,0
1,44,85,0
1,36,85,24
1,44,85,0
1,44,85,24
1,36,85,0
1,38,85,0
1,39,85,0
1,46,85,0
1,44,85,24
1,44,85,24
1,36,85,0
1,44,85,24
1,38,85,0
1,46,85,0
1,44,85,24
1,44,85,24
1,36,85,0
1,44,85,24
1,36,85,0
1,46,85,0
1,38,85,0
1,39,85,0
1,44,85,48
1,36,85,0
1,44,85,24
1,46,85,0
1,38,85,0
1,44,85,24
1,44,85,24
1,36,85,0
1,44,85,24
1,36,85,0
1,46,85,0
1,39,85,0
1,38,85,0
1,44,85,24
1,36,85,0
1,44,85,24
1,38,85,0
1,46,85,0
1,44,85,24
1,36,85,24
1,44,85,0
1,36,85,24
1,44,85,0
1,46,85,24
1,38,85,0
1,39,85,0
1,36,85,0
1,44,85,0
1,44,73,24
1,38,85,0
1,46,85,0
1,44,85,24
1,36,85,24
1,44,85,0
1,36,85,24
1,44,85,0
1,39,85,0
1,38,85,0
1,46,85,0
1,44,85,24
1,36,85,0
1,44,81,24
1,38,85,0
1,46,85,0
1,44,85,72
1,36,85,0
1,44,85,24
1,36,85,0
1,38,85,24
1,39,85,0
1,46,85,0
1,36,85,0
1,44,85,0
1,44,85,24
1,38,85,0
1,46,85,0
1,44,85,0
1,44,85,24
1,36,85,0
1,44,85,24
1,36,85,0
1,46,85,0
1,38,85,0
1,39,85,0
1,44,85,24
1,36,85,24
1,44,85,0
1,44,85,24
1,38,85,0
1,46,85,0
1,44,85,24
1,36,85,24
1,44,85,0
1,44,85,24
1,36,85,0
1,46,85,0
1,38,85,0
1,39,85,0
1,44,85,24
1,44,85,0
1,36,85,0
1,44,85,24
1,38,85,0
1,46,85,0
1,44,85,0
1,36,85,24
1,44,85,0
1,44,85,24
1,36,85,0
1,38,85,0
1,39,85,0
1,46,85,0
1,44,85,24
1,44,85,24
1,36,85,0
1,44,85,24
1,38,85,0
1,46,85,0
1,44,85,24
1,44,85,24
1,36,85,0
1,44,85,24
1,36,85,0
1,46,85,0
1,38,85,0
1,39,85,0
1,44,85,48
1,36,85,0
1,44,85,24
1,46,85,0
1,38,85,0
1,44,85,24
1,44,85,24
1,36,85,0
1,44,85,24
1,36,85,0
1,46,85,0
1,39,85,0
1,38,85,0
1,44,85,24
1,36,85,0
1,44,85,24
1,38,85,0
1,46,85,0
1,44,85,24
1,36,85,24
1,44,85,0
1,36,85,24
1,44,85,0
1,46,85,24
1,38,85,0
1,39,85,0
1,36,85,0
1,44,85,0
1,44,73,24
1,38,85,0
1,46,85,0
1,44,85,24
1,36,85,24
1,44,85,0
1,36,85,24
1,44,85,0
1,39,85,0
1,38,85,0
1,46,85,0
1,44,85,24
1,36,85,0
1,44,81,24
1,38,85,0
1,46,85,0
1,44,85,72
1,36,85,0
1,44,85,24
1,36,85,0
1,38,85,24
1,39,85,0
1,46,85,0
1,36,85,0
1,44,85,0
1,44,85,24
1,38,85,0
1,46,85,0
1,44,85,0
1,44,85,24
1,36,85,0
1,44,85,24
1,36,85,0
1,46,85,0
1,38,85,0
1,39,85,0
1,44,85,24
1,36,85,24
1,44,85,0
1,44,85,24
1,38,85,0
1,46,85,0
1,44,85,24
1,36,85,24
1,44,85,0
1,44,85,24
1,36,85,0
1,46,85,0
1,38,85,0
1,39,85,0
1,44,85,24
1,44,85,0
1,36,85,0
1,44,85,24
1,38,85,0
1,46,85,0
1,44,85,0
1,36,85,24
1,44,85,0
1,44,85,24
1,36,85,0
1,38,85,0
1,39,85,0
1,46,85,0
1,44,85,24
1,44,85,24
1,36,85,0
1,44,85,24
1,38,85,0
1,46,85,0
1,44,85,24
1,44,85,24
1,36,85,0
1,44,85,24
1,36,85,0
1,46,85,0
1,38,85,0
1,39,85,0
2,29,127,0
2,31,127,3
2,32,127,1
2,29,127,2
2,31,127,387
2,24,127,2
2,31,127,154
2,32,127,92
2,29,127,2
2,31,127,384
2,24,127,0
2,32,127,2
2,29,127,4
2,31,127,379
2,24,127,5
2,36,127,190
2,34,127,100
2,32,127,1
2,29,127,3
2,31,127,376
2,24,127,3
2,36,127,191
2,31,127,95
2,32,127,91
2,29,127,136
2,32,127,285
2,31,127,0
2,24,127,5
2,32,127,1
2,29,127,2
2,31,127,388
2,24,127,4
2,32,127,166
2,29,127,4
2,31,127,380
2,24,127,2
2,32,127,0
2,29,127,2
2,31,127,37
2,24,127,0
2,32,127,1
2,29,127,3
2,31,127,388
2,24,127,3
2,36,127,2
2,34,127,89
2,32,127,0
2,29,127,1
2,32,127,283
2,31,127,95
2,24,127,1
2,32,127,119
2,29,127,2
2,31,127,387
2,24,127,3
2,32,127,1
2,29,127,2
2,31,127,286
2,32,127,49
2,31,127,2
2,31,127,11
2,24,127,5
2,32,127,0
2,29,127,2
2,31,127,289
2,32,127,47
2,31,127,3
2,24,127,0
2,36,127,0
2,32,127,193
2,29,127,1
2,31,127,1
2,29,127,1
2,31,127,97
2,36,127,271
2,24,127,47
3,68,127,0
3,72,127,0
3,75,127,0
3,75,110,36
3,72,110,0
3,75,127,36
3,72,127,0
3,68,127,0
3,75,127,36
3,72,127,0
3,75,127,38
3,72,127,0
3,68,127,0
3,72,127,34
3,75,127,0
3,68,127,36
3,75,127,0
3,72,127,0
3,75,116,36
3,72,116,0
3,72,127,34
3,74,127,0
3,65,127,0
3,72,127,32
3,74,127,0
3,72,127,32
3,74,127,0
3,65,127,0
3,72,118,32
3,74,118,0
3,65,127,32
3,72,127,0
3,74,127,0
3,74,127,32
3,72,127,0
3,65,127,32
3,72,127,0
3,74,127,0
3,72,124,30
3,74,124,0
3,71,127,34
3,74,127,0
3,67,127,0
3,71,110,32
3,74,110,0
3,71,127,32
3,74,127,0
3,67,127,0
3,71,127,32
3,74,127,0
3,67,127,35
3,71,127,0
3,74,127,0
3,71,127,32
3,74,127,0
3,71,127,31
3,67,127,0
3,74,127,0
3,71,116,31
3,74,116,0
3,72,127,32
3,68,127,0
3,75,127,0
3,72,127,32
3,75,127,0
3,72,127,31
3,68,127,0
3,75,127,0
3,72,118,28
3,75,118,0
3,67,127,30
3,72,127,0
3,75,127,0
3,72,122,31
3,75,122,0
3,65,127,3
3,72,127,0
3,75,127,0
3,67,124,27
3,72,124,0
3,75,124,0
3,68,127,34
3,72,127,0
3,75,127,0
3,75,110,36
3,72,110,0
3,75,127,36
3,72,127,0
3,68,127,0
3,75,127,36
3,72,127,0
3,75,127,38
3,72,127,0
3,68,127,0
3,72,127,34
3,75,127,0
3,68,127,36
3,75,127,0
3,72,127,0
3,75,116,36
3,72,116,0
3,72,127,34
3,74,127,0
3,65,127,0
3,72,127,32
3,74,127,0
3,72,127,32
3,74,127,0
3,65,127,0
3,72,118,32
3,74,118,0
3,65,127,32
3,72,127,0
3,74,127,0
3,74,127,32
3,72,127,0
3,65,127,32
3,72,127,0
3,74,127,0
3,72,124,30
3,74,124,0
3,71,127,34
3,74,127,0
3,67,127,0
3,71,110,32
3,74,110,0
3,71,127,32
3,74,127,0
3,67,127,0
3,71,127,32
3,74,127,0
3,67,127,35
3,71,127,0
3,74,127,0
3,71,127,32
3,74,127,0
3,71,127,31
3,67,127,0
3,74,127,0
3,71,116,31
3,74,116,0
3,72,127,32
3,68,127,0
3,75,127,0
3,72,127,32
3,75,127,0
3,72,127,31
3,68,127,0
3,75,127,0
3,72,118,28
3,75,118,0
3,67,127,30
3,72,127,0
3,75,127,0
3,72,122,31
3,75,122,0
3,65,127,30
3,72,127,0
3,75,127,0
3,67,124,27
3,72,124,0
3,75,124,0
3,72,127,34
3,75,127,0
3,68,127,0
3,75,110,31
3,72,110,0
3,72,127,33
3,75,127,0
3,68,127,0
3,72,127,34
3,75,127,0
3,68,127,34
3,72,127,0
3,75,127,0
3,72,127,32
3,75,127,0
3,68,127,36
3,72,127,0
3,75,127,0
3,75,116,32
3,72,116,0
3,72,127,33
3,74,127,0
3,65,127,0
3,72,127,30
3,74,127,0
3,72,127,32
3,74,127,0
3,65,127,0
3,72,118,32
3,74,118,0
3,72,127,32
3,65,127,0
3,74,127,0
3,72,122,32
3,74,122,0
3,65,127,32
3,72,127,0
3,74,127,0
3,72,124,26
3,74,124,0
3,71,127,35
3,67,127,0
3,74,127,0
3,71,110,30
3,74,110,0
3,67,127,32
3,71,127,0
3,74,127,0
3,71,127,32
3,74,127,0
3,71,127,35
3,74,127,0
3,67,127,0
3,71,127,32
3,74,127,0
3,71,127,32
3,74,127,0
3,67,127,0
3,71,116,28
3,74,116,0
3,72,127,35
3,75,127,0
3,67,127,0
3,72,127,31
3,75,127,0
3,67,127,33
3,72,127,0
3,75,127,0
3,72,118,31
3,75,118,0
3,67,127,31
