track,note,velocity,time
1,71,100,668
1,62,100,0
1,66,100,0
1,71,97,34
1,66,97,0
1,62,97,0
1,71,95,21
1,66,95,0
1,62,95,0
1,71,95,28
1,66,95,0
1,62,95,0
1,62,99,125
1,68,107,0
1,64,109,0
1,68,85,9
1,62,77,0
1,64,92,0
1,68,89,16
1,64,90,0
1,62,85,0
1,71,93,22
1,62,93,0
1,67,86,0
1,71,91,6
1,62,101,0
1,67,86,0
1,71,93,1
1,67,72,0
1,62,101,0
1,71,98,6
1,67,93,0
1,62,101,0
1,71,93,1
1,67,96,0
1,62,101,0
1,71,99,6
1,62,99,0
1,67,99,0
1,69,98,11
1,61,96,0
1,66,92,0
1,71,101,84
1,66,104,0
1,62,91,0
1,71,96,50
1,66,96,0
1,62,83,0
1,71,98,35
1,66,100,0
1,62,81,0
1,71,100,32
1,66,100,0
1,62,100,0
1,68,94,120
1,62,90,0
1,64,97,0
1,68,80,5
1,62,75,0
1,64,92,1
1,68,70,16
1,62,69,0
1,64,83,0
1,71,103,69
1,74,103,0
1,67,103,0
1,67,98,12
1,71,104,0
1,74,101,0
1,71,98,8
1,74,98,0
1,67,98,0
1,71,99,20
1,74,99,0
1,67,99,0
1,71,98,5
1,74,98,0
1,67,98,0
1,71,105,17
1,67,105,0
1,76,105,0
1,66,99,64
1,69,99,0
1,73,99,0
1,66,106,28649
1,62,99,1
1,69,107,0
1,71,107,0
1,62,55,66
1,69,111,27
1,71,92,3
1,78,123,348
1,74,109,0
1,81,79,63
1,78,104,24
1,74,96,1
1,74,67,0
1,74,73,15
1,74,109,53
1,76,61,70
1,74,97,22
1,73,104,8
1,69,90,1145
1,70,78,21
1,71,78,12
1,74,80,2
1,69,91,15
1,70,70,14
1,71,82,10
1,74,78,0
1,71,91,72
1,70,72,3
1,73,102,35
1,69,93,0
1,88,80,411
1,89,85,21
1,88,75,16
1,86,75,2
1,83,85,4
1,88,78,20
1,89,70,20
1,88,82,5
1,89,85,4
1,88,83,16
1,86,79,7
1,83,86,9
1,76,96,1339
1,78,106,3
1,83,113,4
1,76,96,38
1,78,94,62
1,74,100,15
1,71,80,4
1,68,68,67
1,74,77,1
1,71,86,2
1,68,52,93
1,71,75,2
1,74,73,0
1,68,63,15
1,74,78,1
1,71,84,0
1,68,72,9
1,71,88,1
1,74,90,0
1,68,67,8
1,74,89,0
1,71,99,0
1,67,83,138
1,76,85,0
1,71,86,0
1,76,95,71
1,71,97,0
1,67,96,0
1,74,90,6
1,71,75,0
1,67,79,1
1,66,102,81
1,73,94,1
1,69,109,0
1,76,82,19
1,77,69,20
1,78,58,6
1,81,73,7
1,76,71,16
1,77,78,12
1,78,61,9
1,81,74,3
1,76,78,20
1,77,71,14
1,78,63,5
1,81,81,9
1,76,75,17
1,77,63,14
1,78,56,1
1,81,75,3
1,76,67,20
1,77,75,10
1,78,55,4
1,81,75,3
1,76,78,11
1,77,63,19
1,78,70,7
1,83,91,779
1,88,99,0
1,86,78,2
1,83,100,14
1,88,97,0
1,86,75,29
1,83,86,14
1,88,95,3
1,86,85,21
1,83,85,10
1,81,109,620
1,78,109,1
1,74,96,0
1,76,95,2
1,78,109,3
1,71,95,0
1,74,97,3
1,69,90,2
1,71,95,4
1,74,84,1
1,62,93,6
1,64,88,0
1,66,86,5
1,64,67,47
1,62,86,24
1,59,62,1
1,64,93,35
1,62,79,3
2,35,112,665
2,35,111,50
2,35,110,41
2,35,100,6
2,35,114,3
2,35,105,5
2,40,102,59
2,40,94,65
2,40,105,1
2,40,105,2
2,40,111,3
2,43,110,50
2,43,110,45
2,43,109,50
2,43,104,7
2,43,107,1
2,42,104,12
2,42,105,62
2,42,102,61
2,42,105,1
2,42,95,11
2,42,110,1
2,35,111,46
2,35,111,48
2,35,113,48
2,35,104,8
2,35,111,6
2,35,107,8
2,40,105,62
2,40,100,58
2,40,106,2
2,40,99,10
2,40,110,4
2,43,110,48
2,43,110,49
2,43,110,49
2,43,100,7
2,43,105,1
2,43,96,9
2,42,100,65
2,42,100,66
2,42,108,3
2,42,102,8
2,42,108,3
2,42,102,9
2,35,114,6
2,35,112,45
2,35,105,8
2,35,109,3
2,35,110,48
2,35,103,7
2,40,110,98
2,40,92,5
2,40,109,2
2,40,108,42
2,40,101,9
2,43,111,4
2,43,107,48
2,43,109,49
2,43,92,8
2,43,107,3
2,43,96,2
2,42,106,68
2,42,101,60
2,42,108,1
2,42,104,10
2,42,110,3
2,47,111,44
2,35,108,44
2,35,93,5
2,47,108,4
2,47,103,11
2,35,111,8
2,35,100,4
2,40,98,65
2,40,99,60
2,40,105,3
2,40,98,8
2,40,106,1
2,40,100,27
2,43,102,8
2,43,108,52
2,43,108,51
2,43,97,6
2,43,105,3
2,42,99,12
2,42,101,67
2,42,103,64
2,42,107,1
2,42,102,8
2,42,109,2
2,35,107,51
2,35,105,10
2,38,90,66
2,40,105,5
2,40,104,9
2,42,98,58
2,35,106,1
2,35,106,12
2,38,97,64
2,40,107,9
2,40,106,11
2,43,110,89
2,43,109,40
2,43,107,45
2,38,93,18
2,43,104,2
2,42,98,25
2,42,107,57
2,37,97,48
2,42,102,4
2,42,100,2
2,42,111,4
2,35,110,45
2,35,106,6
2,38,104,65
2,40,108,8
2,40,105,11
2,42,100,66
2,35,108,0
2,35,102,14
2,38,94,66
2,40,107,7
2,40,106,10
2,43,109,97
2,43,111,45
2,43,111,44
2,38,97,3
2,43,102,0
2,42,106,19
2,42,102,57
2,37,97,51
2,42,108,2
2,42,100,1
2,42,109,2
2,35,113,52
2,35,103,8
2,35,108,3
2,35,109,60
2,35,104,9
2,35,104,5
2,40,105,35
2,40,106,60
2,40,100,61
2,40,105,1
2,40,99,2
2,40,109,1
2,43,111,51
2,43,111,48
2,43,109,43
2,43,96,11
2,43,108,3
2,42,103,18
2,42,105,50
2,37,99,52
2,42,110,6
2,42,101,2
2,42,111,1
2,35,106,49
2,35,106,4
2,35,109,3
2,35,110,60
2,35,100,5
2,35,109,6
2,35,103,34
2,40,103,3
2,40,102,34
2,40,104,64
2,40,106,1
2,40,97,7
2,40,102,2
2,40,89,10
2,43,110,10
2,43,108,47
2,43,107,48
2,43,98,9
2,43,104,5
2,43,98,12
2,42,98,3
2,42,107,23
2,37,99,60
2,42,107,1
2,42,91,8
2,42,107,3
2,35,110,56
2,35,106,9
2,38,98,69
2,40,109,8
2,40,104,15
2,42,97,62
2,35,109,1
2,35,105,8
2,38,95,65
2,40,105,7
2,40,105,8
2,43,109,90
2,43,110,44
2,43,110,40
2,38,98,10
2,43,105,0
2,42,101,19
2,42,99,56
2,37,104,55
2,42,109,6
2,42,100,9
2,42,107,4
2,35,110,56
2,35,104,6
2,38,98,67
2,40,110,8
2,40,102,6
2,42,96,59
2,35,110,4
2,35,102,11
2,38,97,65
2,40,106,11
2,40,103,4
2,43,109,87
2,43,109,47
2,43,109,45
2,38,102,10
2,43,108,0
2,42,105,18
2,42,98,62
2,37,91,61
2,42,109,7
2,42,96,1
2,42,109,2
2,35,114,56
2,35,114,54
2,35,112,54
2,35,100,9
2,35,107,5
2,40,101,26
2,40,104,54
2,40,99,60
2,40,104,4
2,40,102,12
2,40,109,1
2,43,108,46
2,43,92,7
2,43,104,7
2,38,101,9
2,43,108,0
2,43,87,1
2,43,109,4
2,42,104,9
2,42,101,58
2,37,99,59
2,42,100,2
2,42,98,7
2,42,111,2
2,35,113,50
2,35,98,5
2,35,108,2
2,35,109,64
2,35,104,11
2,35,111,1
2,35,99,9
2,40,101,69
2,40,102,53
2,40,109,1
2,43,110,106
2,43,108,44
2,43,109,50
2,43,104,4
2,43,107,1
2,42,107,16
2,42,107,58
2,37,106,54
2,42,109,9
2,42,102,6
2,42,104,1
2,33,112,56
2,33,101,3
2,35,111,0
2,35,109,3
2,35,99,58
2,38,108,1
2,38,96,11
2,40,109,8
2,40,102,1
2,33,110,80
2,33,102,1
2,35,107,0
2,35,104,4
2,38,109,72
2,38,101,4
2,40,110,10
2,40,108,5
2,35,115,88
2,35,120,669
2,35,112,673
2,35,106,45
2,35,110,52
2,35,102,7
2,35,109,5
2,35,106,7
2,40,105,66
2,40,99,63
2,40,105,1
2,40,100,5
2,40,110,1
2,35,111,34
2,35,111,41
2,35,112,42
2,35,100,6
2,35,110,5
2,35,106,9
2,40,102,66
2,40,99,59
2,40,108,2
2,40,100,3
2,40,110,1
2,43,109,46
2,43,109,39
2,43,109,42
2,43,102,3
2,43,109,2
2,42,105,15
2,42,107,61
2,42,103,59
2,42,109,4
2,42,98,6
2,42,110,4
2,35,112,59
2,35,106,7
2,35,112,2
2,35,111,51
2,35,104,6
2,35,108,5
2,35,104,11
2,40,106,67
2,40,104,67
2,40,105,1
2,40,100,2
2,40,110,1
2,43,108,41
2,43,110,40
2,43,108,45
2,43,95,6
2,43,107,4
2,42,101,12
2,42,100,55
2,37,98,58
2,42,105,8
2,42,94,2
2,42,110,2
2,35,111,51
2,35,105,6
2,38,94,71
2,40,110,10
2,40,98,5
2,42,106,61
2,35,112,0
2,35,101,6
2,38,97,67
2,40,105,12
2,40,100,3
2,43,109,90
2,43,108,44
2,43,108,45
2,43,96,4
2,43,107,3
2,42,100,17
2,42,105,61
2,37,101,55
2,42,109,8
2,42,98,1
2,42,107,1
2,35,111,47
2,35,106,8
2,38,100,63
2,40,108,8
2,40,100,11
2,42,97,60
2,35,112,0
2,35,101,9
2,38,95,63
2,40,109,0
2,40,104,8
2,43,110,87
2,43,109,46
2,43,109,45
2,38,97,13
2,43,110,0
2,42,101,20
2,42,105,53
2,37,97,53
2,42,109,8
2,42,92,6
2,42,105,1
2,35,113,53
2,35,110,45
2,35,108,52
2,35,104,11
2,35,109,4
2,35,105,9
2,40,106,63
2,40,100,66
2,40,107,5
2,40,100,11
2,40,106,4
2,43,109,51
2,43,109,47
2,43,109,47
2,38,99,15
2,43,109,1
2,42,102,14
2,42,99,62
2,37,98,59
2,42,110,1
2,42,90,11
2,42,105,1
2,35,115,32
2,35,113,45
2,35,112,44
2,35,103,3
2,35,111,6
2,35,107,7
2,40,107,64
2,40,97,55
2,40,105,2
2,40,104,1
2,40,111,1
2,43,109,54
2,43,110,44
2,43,109,45
2,38,97,13
2,43,102,0
2,42,102,19
2,42,105,55
2,37,104,58
2,42,110,7
2,42,102,6
2,42,110,2
2,35,114,51
2,35,112,46
2,35,113,48
2,35,102,8
2,35,107,4
2,35,105,8
2,40,104,64
2,35,102,60
2,40,107,0
2,40,100,10
2,40,107,3
2,43,110,49
2,43,110,43
2,43,110,47
2,38,98,12
2,43,107,0
2,42,102,20
2,42,104,59
2,37,100,63
2,42,110,10
2,42,100,1
2,42,107,2
2,35,114,49
2,35,113,50
2,35,111,51
2,35,95,7
2,35,107,6
2,35,104,11
2,40,107,68
2,35,97,61
2,40,106,11
2,40,101,8
2,40,109,1
2,43,110,55
2,43,110,45
2,43,109,43
2,43,100,7
2,43,111,4
2,42,104,21
2,42,103,62
2,37,98,61
2,42,109,13
2,42,100,6
2,42,105,2
2,35,111,6
2,35,113,48
2,35,113,48
2,35,102,7
2,35,111,1
2,35,107,6
2,40,103,61
2,35,102,59
2,40,110,3
2,40,101,7
2,40,105,2
2,43,109,48
2,43,109,43
2,43,109,47
2,43,95,3
2,43,109,2
2,42,100,10
2,42,105,62
2,37,104,58
2,42,109,8
2,42,104,9
2,42,111,1
2,35,113,48
2,35,112,50
2,35,113,51
2,35,100,4
2,35,109,7
2,35,103,7
2,40,102,64
2,35,100,62
2,40,109,0
2,40,65,5
2,40,108,2
2,43,108,49
2,43,109,44
2,43,109,41
2,38,100,8
2,43,107,0
2,42,101,30
2,42,102,60
2,37,99,65
2,42,109,9
2,42,95,7
2,42,109,4
2,35,112,51
2,35,113,48
2,35,112,45
2,35,98,8
2,35,111,3
2,35,104,7
2,40,98,60
2,35,97,63
2,40,108,3
2,40,97,9
2,40,109,3
2,43,108,49
2,43,108,45
2,43,109,50
2,38,100,8
2,43,109,0
2,42,102,28
2,47,109,61
2,45,97,32
2,47,102,29
2,47,99,4
2,47,94,1
2,47,93,1
2,47,98,1
2,47,104,1
2,52,77,63
2,52,84,65
2,52,86,7
2,52,84,10
2,52,83,4
3,78,92,754
3,71,88,0
3,74,93,0
3,71,83,173
3,78,85,0
3,74,76,1
3,78,88,173
3,68,87,0
3,71,86,0
3,68,87,173
3,78,82,0
3,71,83,0
3,79,83,175
3,71,71,0
3,74,80,0
3,71,76,169
3,79,88,0
3,74,80,0
3,73,78,171
3,69,77,0
3,78,87,0
3,78,110,172
3,69,107,0
3,73,107,0
3,75,44,6
3,72,62,2
3,78,82,113
3,71,78,0
3,74,83,0
3,78,85,165
3,71,86,0
3,74,83,1
3,78,80,167
3,68,85,0
3,74,68,1
3,68,92,167
3,78,82,0
3,74,83,0
3,71,76,169
3,74,81,0
3,79,87,0
3,71,79,169
3,79,84,0
3,74,83,0
3,78,80,168
3,73,74,0
3,69,76,0
3,78,102,166
3,73,102,1
3,69,105,0
3,75,31,0
3,77,65,3
3,71,74,117
3,78,81,1
3,74,82,0
3,71,80,174
3,78,85,0
3,74,82,0
3,78,71,172
3,68,70,0
3,74,83,0
3,68,81,172
3,78,77,0
3,74,84,1
3,74,76,173
3,71,71,0
3,79,81,0
3,71,73,168
3,79,83,0
3,74,79,0
3,78,76,167
3,73,71,1
3,69,71,0
3,73,82,171
3,78,88,0
3,69,81,0
3,78,74,110
3,71,77,0
3,74,69,0
3,78,84,174
3,71,87,0
3,74,80,0
3,68,84,162
3,78,78,0
3,74,67,1
3,68,87,169
3,78,80,0
3,74,74,1
3,79,80,165
3,74,74,2
3,71,73,0
3,79,80,164
3,71,73,0
3,74,75,0
3,73,70,167
3,69,71,0
3,78,80,0
3,73,88,165
3,78,90,0
3,69,88,0
3,78,74,131
3,71,75,0
3,74,79,0
3,68,77,166
3,78,70,0
3,74,64,2
3,78,78,165
3,71,79,0
3,74,71,0
3,68,85,168
3,78,78,0
3,74,59,2
3,71,73,167
3,79,84,0
3,74,83,0
3,79,78,166
3,71,67,0
3,74,70,0
3,73,74,165
3,78,81,2
3,69,65,0
3,73,87,173
3,78,92,0
3,69,83,0
3,78,71,132
3,71,77,0
3,74,76,0
3,78,74,164
3,68,82,0
3,74,68,2
3,78,80,165
3,71,80,0
3,74,81,1
3,68,85,163
3,78,81,0
3,74,76,0
3,79,83,167
3,71,72,0
3,74,76,0
3,79,83,155
3,71,73,0
3,74,73,1
3,73,70,161
3,78,76,0
3,69,67,1
3,78,98,162
3,73,94,0
3,69,94,0
3,71,73,124
3,78,74,0
3,74,76,0
3,78,78,171
3,71,76,0
3,74,74,0
3,78,78,165
3,68,85,0
3,74,71,0
3,68,85,166
3,78,82,0
3,74,75,0
3,71,73,169
3,79,84,0
3,74,85,0
3,79,78,160
3,71,69,0
3,74,76,1
3,73,79,157
3,78,79,0
3,69,79,0
3,78,102,161
3,73,87,0
3,69,97,0
3,77,64,2
3,75,45,1
3,70,44,7
3,78,70,117
3,71,71,0
3,74,76,0
3,78,78,167
3,71,81,0
3,74,76,0
3,68,82,159
3,78,75,0
3,74,69,2
3,68,84,165
3,78,78,0
3,74,74,1
3,74,79,166
3,79,83,1
3,71,71,0
3,79,81,161
3,71,71,1
3,74,75,0
3,78,77,155
3,73,74,0
3,69,67,0
3,73,74,165
3,78,82,0
3,69,76,0
3,71,76,134
3,78,70,0
3,74,79,0
3,68,78,164
3,78,70,0
3,74,63,2
3,71,78,164
3,78,76,0
3,74,84,0
3,68,76,158
3,78,64,0
3,74,68,2
3,71,76,157
3,79,88,1
3,74,79,1
3,79,78,149
3,71,71,0
3,74,73,0
3,73,70,163
3,78,73,0
3,69,64,1
3,73,78,164
3,78,88,0
3,69,80,0
3,78,66,133
3,71,71,0
3,74,71,0
3,68,77,160
3,78,61,1
3,74,70,0
3,71,83,164
3,78,74,0
3,74,70,2
3,68,80,160
3,78,76,0
3,74,75,0
