track,note,velocity,time
1,43,116,286
1,45,112,7
1,47,116,5
1,43,114,8
1,45,123,38
1,48,108,8
1,50,112,11
1,52,112,11
1,50,111,4
1,47,116,9
1,43,115,41
1,45,106,21
1,45,86,1
1,47,102,8
1,50,108,38
1,47,110,25
1,48,93,0
1,47,106,10
1,45,110,12
1,43,113,26
1,43,115,48
1,45,103,18
1,47,108,5
1,43,116,28
1,45,93,5
1,48,118,10
1,50,115,17
1,52,99,0
1,50,118,10
1,47,113,7
1,43,113,37
1,45,103,7
1,45,120,3
1,47,106,0
1,50,116,2
1,47,116,40
1,48,112,0
1,47,114,7
1,45,116,12
1,43,112,12
1,43,83,9
1,47,87,1
1,55,90,2
1,50,86,0
1,59,91,1
1,67,92,1
1,59,92,2
1,67,91,1
1,55,84,2
1,67,90,35
1,59,91,2
1,55,86,1
1,50,69,1
1,47,78,0
1,43,68,1
1,67,91,1
1,59,93,0
1,55,88,1
1,50,83,0
1,47,79,1
1,43,78,3
1,47,86,0
1,55,91,0
1,67,91,1
1,59,91,0
1,55,80,1
1,47,80,0
1,59,80,0
1,59,90,7
1,52,77,1
1,64,79,0
1,47,69,1
1,64,91,1
1,59,92,1
1,55,89,1
1,52,78,0
1,64,87,40
1,59,86,1
1,55,74,1
1,52,69,2
1,47,61,1
1,64,92,0
1,59,92,0
1,55,87,1
1,52,80,1
1,47,78,1
1,40,52,3
1,55,88,2
1,64,87,1
1,55,90,1
1,60,91,0
1,52,81,1
1,64,81,0
1,48,79,1
1,52,77,2
1,55,81,1
1,60,47,17
1,40,72,6
1,47,88,1
1,52,84,0
1,55,87,1
1,59,83,1
1,52,79,1
1,55,90,1
1,59,89,0
1,64,71,2
1,45,68,6
1,52,72,1
1,57,86,1
1,60,91,0
1,64,90,1
1,64,91,1
1,60,91,1
1,57,88,0
1,64,92,36
1,60,90,1
1,57,85,1
1,52,72,1
1,45,79,1
1,64,94,1
1,60,91,1
1,57,85,1
1,52,72,1
1,45,78,1
1,52,82,0
1,45,75,1
1,57,88,0
1,60,87,0
1,64,80,1
1,64,92,2
1,60,91,1
1,52,72,2
1,43,55,43
1,47,74,1
1,50,78,0
1,55,88,1
1,67,90,0
1,59,92,0
1,43,67,2
1,47,72,0
1,67,89,1
1,59,91,1
1,55,86,0
1,47,88,1
1,43,78,0
1,67,90,0
1,59,91,0
1,55,83,0
1,50,74,0
1,47,81,1
1,43,86,1
1,47,90,0
1,50,88,0
1,55,91,0
1,59,92,1
1,67,87,0
1,47,66,3
1,47,87,6
1,40,67,0
1,52,85,0
1,55,89,0
1,59,87,1
1,64,61,1
1,64,86,2
1,59,72,0
1,55,75,1
1,64,92,28
1,59,93,1
1,55,87,1
1,52,81,0
1,47,82,2
1,40,76,1
1,64,90,0
1,59,89,1
1,55,81,1
1,52,63,3
1,52,80,0
1,55,90,0
1,59,92,0
1,64,89,1
1,48,78,0
1,55,90,0
1,52,82,0
1,60,92,1
1,64,77,1
1,48,80,1
1,52,86,1
1,55,91,1
1,60,91,0
1,64,81,1
1,60,76,1
1,50,88,2
1,55,89,1
1,47,81,1
1,59,77,0
1,47,78,0
1,55,92,1
1,59,92,1
1,64,67,1
1,52,84,8
1,57,91,1
1,60,92,1
1,64,94,44
1,60,91,2
1,57,88,2
1,45,77,0
1,52,79,1
1,64,94,0
1,60,90,2
1,57,86,1
1,52,78,1
1,52,84,0
1,57,90,1
1,60,91,1
1,64,91,0
1,59,75,1
1,50,82,2
1,55,85,1
1,47,85,0
1,59,82,1
1,43,78,0
1,59,72,2
1,47,82,3
1,59,92,1
1,67,91,0
1,55,85,2
1,67,92,0
1,59,93,1
1,55,90,1
1,50,81,0
1,47,83,0
1,50,85,1
1,55,91,0
1,40,72,4
1,47,78,1
1,52,77,1
1,55,83,1
1,64,83,3
1,59,86,2
1,47,84,1
1,52,85,0
1,55,92,0
1,59,92,1
1,64,83,0
1,64,93,0
1,59,92,1
1,52,81,1
1,47,77,1
1,55,92,3
1,59,93,0
1,64,89,2
1,52,61,3
1,55,92,3
1,60,92,0
1,52,83,0
1,48,80,0
1,64,80,1
1,48,86,5
1,55,88,1
1,60,91,0
1,64,76,1
1,55,66,5
1,50,83,4
1,55,89,2
1,47,80,0
1,59,87,1
1,47,76,0
1,50,81,1
1,55,90,1
1,59,93,1
1,52,77,7
1,64,86,3
1,57,89,0
1,60,92,1
1,64,92,0
1,60,90,0
1,57,91,1
1,52,82,1
1,45,76,1
1,45,81,0
1,52,73,1
1,45,88,3
1,52,82,0
1,60,89,1
1,57,85,2
1,64,94,0
1,60,93,0
1,57,89,2
1,52,75,0
1,52,83,0
1,57,89,1
1,60,91,1
1,64,86,0
1,60,54,1
1,52,49,2
1,57,67,0
1,50,78,2
1,47,87,0
1,55,86,0
1,59,82,0
1,43,78,4
1,67,69,45
1,43,83,0
1,47,85,0
1,55,87,0
1,50,77,0
1,59,82,1
1,67,92,0
1,59,94,1
1,55,92,1
1,67,92,0
1,55,92,0
1,50,82,0
1,47,88,1
1,59,81,2
1,40,77,7
1,52,80,0
1,55,85,0
1,59,79,1
1,47,81,0
1,64,81,46
1,40,80,2
1,52,83,0
1,55,88,0
1,59,92,1
1,64,86,1
1,64,93,0
1,59,93,1
1,55,92,0
1,52,88,1
1,47,83,0
1,52,74,0
1,59,91,1
1,64,81,0
1,52,61,4
1,48,83,7
1,52,84,1
1,55,89,1
1,60,88,1
1,48,74,1
1,60,87,1
1,64,73,1
1,64,93,0
1,60,90,1
1,55,92,0
1,52,84,1
1,64,93,1
1,60,92,1
1,55,89,0
1,48,81,1
1,52,81,0
1,55,87,0
1,60,91,0
1,64,85,1
1,60,69,2
1,50,46,2
1,50,70,4
1,57,86,2
1,62,88,1
1,66,83,0
1,62,80,2
1,57,84,1
1,62,84,0
1,66,65,1
1,66,92,1
1,62,90,0
1,57,90,1
1,50,83,0
1,45,77,1
1,66,93,0
1,62,91,0
1,57,87,1
1,45,73,2
1,62,88,1
1,66,92,0
1,50,89,1
1,57,91,0
1,62,89,1
1,66,92,1
1,62,81,11
1,66,92,1
1,62,89,0
1,57,88,1
1,50,88,0
1,57,90,1
1,62,88,0
1,66,93,0
1,66,80,2
1,45,83,1
1,50,87,0
1,57,90,0
1,62,90,1
1,66,91,1
1,43,78,2
1,55,85,0
1,50,84,0
1,59,85,1
1,47,78,0
1,67,69,47
1,43,76,1
1,50,79,0
1,55,79,0
1,59,79,1
1,67,92,0
1,59,91,0
1,55,92,1
1,50,85,0
1,67,92,0
1,59,92,0
1,55,89,1
1,50,86,1
1,47,88,0
1,43,67,1
1,55,92,0
1,59,91,0
1,67,89,1
1,55,91,1
1,60,90,1
1,52,82,1
1,64,71,0
1,48,81,1
1,64,76,4
1,52,74,0
1,60,90,0
1,64,79,1
1,64,92,2
1,62,48,2
1,45,78,0
1,50,74,1
1,57,78,1
1,66,92,0
1,62,90,0
1,57,90,1
1,50,85,0
1,45,84,1
1,62,90,0
1,66,90,1
1,62,78,1
1,66,70,0
1,57,77,1
1,43,85,0
1,47,85,1
1,50,86,0
1,55,89,1
1,59,91,0
1,67,84,1
1,67,71,2
1,50,71,0
1,55,83,1
1,59,79,0
1,67,92,1
1,59,92,0
1,55,90,1
1,43,74,2
1,67,92,1
1,59,91,1
1,55,91,1
1,47,75,0
1,50,82,1
1,55,92,0
1,59,91,1
1,67,91,0
1,50,76,1
1,52,86,6
1,55,92,0
1,48,86,1
1,60,91,0
1,64,66,47
1,52,70,0
1,55,90,0
1,60,92,1
1,64,93,1
1,64,74,1
1,60,76,0
1,50,74,10
1,62,87,3
1,57,85,0
1,66,62,1
1,66,83,1
1,62,79,1
1,45,67,1
1,50,88,0
1,66,73,1
1,62,90,0
1,57,89,1
1,57,68,0
1,62,68,0
1,40,65,7
1,52,83,0
1,47,86,1
1,55,92,0
1,59,92,0
1,64,90,1
1,55,78,1
1,59,77,1
1,64,94,1
1,59,93,0
1,55,91,1
1,52,86,0
1,47,80,1
1,40,66,2
1,64,93,0
1,59,94,0
1,55,91,1
1,52,83,0
1,40,71,2
1,52,80,2
1,47,78,0
1,40,61,1
1,64,85,1
1,60,90,2
1,48,78,0
1,64,83,1
1,52,81,1
1,64,71,1
1,52,83,1
1,55,89,0
1,60,91,1
1,64,89,0
1,64,73,2
1,45,78,11
1,50,81,0
1,62,90,4
1,57,90,0
1,66,73,1
1,66,93,3
1,57,89,1
1,57,91,0
1,62,91,1
1,66,93,0
1,62,72,3
1,57,78,1
1,43,71,2
1,47,87,1
1,55,92,1
1,59,92,0
1,67,89,1
1,67,76,1
1,47,80,1
1,67,91,0
1,59,94,1
1,55,93,0
1,43,78,2
1,67,92,0
1,59,93,1
1,55,91,1
1,50,88,0
1,47,91,3
1,59,92,1
1,67,88,0
1,48,88,8
1,52,87,0
1,55,92,0
1,60,90,1
1,64,72,48
1,55,91,0
1,60,92,1
1,64,93,0
1,60,79,6
1,45,77,6
1,50,82,0
1,57,85,2
1,62,83,0
1,66,93,0
1,62,89,0
1,57,91,1
1,50,82,1
1,57,90,0
1,62,90,0
1,66,92,1
1,57,74,5
1,43,85,7
1,47,84,0
1,50,85,0
1,55,91,0
1,59,91,0
1,67,90,1
1,67,72,1
1,67,92,0
1,59,93,0
1,55,90,0
1,47,80,1
1,67,92,0
1,59,93,2
1,55,92,0
1,50,83,1
1,47,79,1
1,55,94,1
1,50,81,1
1,67,92,0
1,67,84,2
1,60,74,7
1,48,77,0
1,52,68,1
1,64,94,0
1,60,92,0
1,55,91,0
1,52,85,1
1,60,79,1
1,64,70,0
1,64,91,0
1,60,91,0
1,55,78,1
1,45,76,6
1,50,79,0
1,66,73,0
1,62,84,3
1,57,87,1
1,66,92,1
1,62,91,1
1,57,91,1
1,57,91,1
1,50,76,0
1,62,89,1
1,66,92,0
1,62,74,3
1,50,87,3
1,55,92,0
1,59,92,1
1,67,90,2
1,43,54,0
1,47,65,1
1,43,73,5
1,47,80,0
1,50,78,1
1,67,91,0
1,59,92,1
1,55,91,1
1,67,92,0
1,59,92,1
1,55,88,1
1,43,81,1
1,55,92,0
1,50,78,0
1,59,88,1
1,67,77,0
1,67,72,4
1,52,62,1
1,55,83,1
1,47,76,1
1,59,92,0
1,64,79,0
1,64,87,2
1,55,75,1
1,47,80,0
1,52,78,1
1,40,73,1
1,64,93,1
1,59,92,1
1,55,94,0
1,52,83,0
1,59,93,1
1,64,95,0
1,55,92,0
1,60,92,0
1,52,86,1
1,64,79,0
1,48,83,3
1,42,46,5
1,48,79,0
1,52,86,0
1,55,92,1
1,60,91,1
1,64,94,0
1,64,79,1
1,52,49,4
1,62,79,5
1,50,87,0
1,47,85,0
1,55,87,1
1,47,83,1
1,50,89,0
1,55,91,1
1,59,92,1
1,45,81,4
1,52,88,1
1,57,92,1
1,60,93,1
1,64,89,0
1,45,90,0
1,52,87,0
1,57,92,1
1,60,91,0
1,64,87,1
1,64,95,0
1,60,91,1
1,57,90,1
1,52,77,2
1,57,92,0
1,60,90,0
1,64,90,1
1,64,82,1
1,60,85,1
1,52,72,1
1,43,86,0
1,47,89,0
1,50,82,0
1,55,92,0
1,59,90,1
1,67,83,2
1,59,83,1
1,47,80,0
1,50,70,1
1,67,92,3
1,59,92,0
1,55,89,1
1,50,83,0
1,67,90,1
1,59,91,1
1,55,87,1
1,43,78,2
1,47,85,2
1,50,85,0
1,55,90,0
1,59,92,0
1,67,88,1
1,43,75,0
1,40,84,0
1,52,85,1
1,47,83,0
1,55,90,0
1,59,89,1
1,47,85,0
1,52,75,0
1,55,85,0
1,59,83,1
1,40,61,1
1,64,93,0
1,59,91,0
1,55,92,1
1,52,85,0
1,40,77,1
1,64,89,1
1,59,90,0
1,55,85,0
1,52,69,1
1,52,81,0
1,55,92,0
1,59,92,0
1,64,87,1
1,47,58,5
1,48,86,9
1,52,87,0
1,55,91,1
1,60,90,2
1,52,86,0
1,55,92,1
1,60,90,1
1,64,92,1
1,43,87,12
1,50,86,0
1,55,91,1
1,59,92,0
1,67,74,1
1,47,85,0
1,50,85,0
1,55,92,0
1,67,89,1
1,59,94,0
1,50,54,1
1,57,81,4
1,66,95,1
1,62,91,0
1,45,59,0
1,50,76,0
1,57,86,1
1,62,90,0
1,66,93,1
1,66,93,1
1,57,80,2
1,66,94,0
1,62,92,1
1,57,85,0
1,62,91,0
1,66,92,1
1,47,88,9
1,50,88,1
1,43,81,0
1,55,92,1
1,59,92,0
1,67,92,1
1,67,69,1
1,55,86,0
1,59,86,0
1,67,79,1
1,67,95,0
1,59,95,1
1,55,86,1
1,43,79,2
1,67,92,7
1,59,93,1
1,55,84,0
1,59,93,3
1,67,94,0
1,52,86,0
1,47,76,1
1,59,95,2
1,64,95,0
1,55,84,1
1,59,88,0
1,64,81,1
1,64,93,1
1,59,93,1
1,55,89,1
1,64,95,1
1,59,94,1
1,55,91,1
1,59,93,1
1,64,96,0
1,64,78,1
1,55,93,8
1,48,81,0
1,52,87,0
1,60,92,1
1,64,90,0
1,52,80,0
1,55,93,0
1,60,92,1
1,64,94,1
1,64,77,3
1,47,80,0
1,50,86,1
1,55,93,1
1,59,94,1
1,62,79,0
1,50,87,1
1,55,94,0
1,62,95,1
1,59,98,0
1,45,69,4
1,52,86,1
1,57,90,0
1,60,74,0
1,52,74,1
1,57,82,1
1,60,87,1
1,64,77,1
1,64,96,0
1,60,92,0
1,57,88,0
1,52,76,1
1,64,95,0
1,60,94,2
1,57,85,1
1,52,85,0
1,57,89,1
1,60,92,0
1,64,94,1
1,64,78,1
1,60,76,1
1,43,81,12
1,50,88,0
1,55,92,0
1,59,92,1
1,67,90,1
1,47,89,2
1,59,83,1
1,67,77,0
1,67,92,0
1,59,90,1
1,55,89,1
1,67,93,0
1,59,93,1
1,55,90,1
1,43,72,1
1,59,88,3
1,67,86,1
1,50,90,3
1,59,90,0
1,43,67,1
1,47,90,0
1,55,92,0
1,59,93,1
1,40,80,1
1,64,81,1
1,64,80,4
1,52,63,34
1,64,96,1
1,59,94,0
1,52,82,1
1,55,90,0
1,64,95,1
1,59,94,1
1,55,89,2
1,52,83,0
1,59,92,1
1,64,95,0
1,64,79,2
1,48,83,0
1,52,87,1
1,55,92,1
1,60,91,0
1,64,91,1
1,48,85,0
1,52,88,0
1,55,93,1
1,60,91,0
1,64,89,2
1,64,84,4
1,60,83,1
1,50,80,1
1,55,93,0
1,59,92,1
1,67,89,0
1,47,80,1
1,50,88,0
1,47,82,0
1,55,93,1
1,59,94,0
1,67,92,1
1,45,75,3
1,50,86,1
1,62,90,1
1,57,90,2
1,66,88,1
1,57,78,0
1,62,82,0
1,66,74,2
1,66,94,0
1,62,92,0
1,57,90,0
1,50,78,1
1,66,93,1
1,62,91,1
1,45,74,1
1,57,90,1
1,62,91,0
1,66,92,2
1,66,87,0
1,62,90,1
1,57,91,0
1,62,92,1
1,66,93,0
1,66,70,1
1,62,80,1
1,66,72,1
1,66,93,0
1,62,91,0
1,57,88,1
1,50,90,0
1,57,91,0
1,62,90,0
1,66,91,1
1,66,78,4
1,57,92,1
1,50,90,0
1,62,93,1
1,66,93,0
1,55,89,2
1,50,90,0
1,59,92,1
1,67,83,0
1,47,81,1
1,43,67,0
1,67,74,3
1,59,73,10
1,67,93,5
1,59,94,0
1,55,90,0
1,50,85,0
1,47,85,3
1,43,71,1
1,67,93,1
1,59,93,1
1,55,90,1
1,47,83,0
1,43,73,0
1,55,93,2
1,67,92,1
1,48,80,10
1,52,86,0
1,55,93,1
1,60,92,1
1,64,92,1
1,52,80,0
1,55,90,1
1,60,93,0
1,64,92,1
1,64,70,1
1,50,74,7
1,57,86,1
1,62,89,1
1,66,77,2
1,66,94,1
1,62,91,1
1,57,83,1
1,50,86,0
1,57,92,0
1,62,90,0
1,66,93,2
1,43,78,7
1,47,87,1
1,55,90,2
1,50,83,0
1,59,87,1
1,67,68,0
1,67,72,3
1,47,72,2
1,50,80,0
1,55,81,0
