track,note,velocity,time
1,66,74,521
1,70,81,1
1,67,85,21
1,71,92,0
1,78,77,305
1,82,84,1
1,79,87,21
1,83,94,0
1,66,82,305
1,70,89,1
1,67,88,21
1,71,95,0
1,78,81,309
1,82,88,0
1,79,91,22
1,83,98,0
1,66,81,312
1,70,88,2
1,67,87,10
1,71,94,0
1,78,81,132
1,82,88,2
1,79,88,10
1,83,95,0
1,66,83,128
1,70,90,2
1,67,86,10
1,71,93,0
1,78,81,130
1,82,88,2
1,79,83,10
1,83,90,0
1,67,83,137
1,71,90,1
1,79,73,52
1,83,80,1
1,67,65,50
1,71,72,1
1,79,74,50
1,83,81,0
1,67,74,50
1,71,81,0
1,79,74,52
1,83,81,1
1,67,61,52
1,71,68,1
1,79,74,46
1,83,81,1
1,67,74,48
1,71,81,0
1,67,78,48
1,71,85,0
1,67,82,48
1,71,89,1
1,67,86,48
1,71,93,1
1,67,91,48
1,71,98,1
1,67,95,48
1,71,102,0
1,67,99,48
1,71,106,0
1,67,103,48
1,71,110,1
1,67,113,48
1,71,120,1
1,67,92,144
1,55,82,3
1,79,89,1
1,67,92,37
1,55,82,3
1,79,89,1
1,69,97,35
1,57,87,3
1,81,94,1
1,69,92,38
1,57,82,3
1,81,89,1
1,64,94,37
1,52,84,3
1,76,91,1
1,64,92,40
1,52,82,3
1,76,89,1
1,67,103,40
1,36,112,1
1,55,88,2
1,36,92,1
1,79,89,1
1,67,85,116
1,55,80,3
1,67,97,1
1,72,97,0
1,76,93,1
1,79,89,0
1,67,76,8
1,55,82,3
1,79,89,1
1,69,76,36
1,31,112,1
1,57,82,2
1,31,92,1
1,81,89,1
1,69,76,20
1,57,82,3
1,81,89,1
1,64,94,36
1,52,82,3
1,67,93,1
1,72,93,0
1,76,88,1
1,76,89,0
1,64,85,32
1,52,82,1
1,76,89,1
1,67,103,24
1,36,112,1
1,55,89,2
1,36,92,1
1,79,89,1
1,67,85,116
1,55,82,3
1,67,97,1
1,72,88,1
1,76,93,0
1,79,89,0
1,67,72,2
1,55,82,3
1,79,89,1
1,69,85,30
1,31,112,1
1,57,82,2
1,31,92,1
1,81,89,1
1,69,76,20
1,57,82,3
1,81,89,1
1,72,76,30
1,60,82,3
1,67,93,1
1,72,97,1
1,76,88,0
1,84,89,0
1,72,76,2
1,60,82,1
1,84,89,1
1,38,112,32
1,59,82,3
1,38,92,1
1,67,64,110
1,71,73,0
1,59,90,3
1,67,93,2
1,71,97,0
1,74,93,0
1,83,89,0
1,65,60,24
1,31,112,1
1,69,60,0
1,57,87,2
1,31,92,1
1,81,89,1
1,64,60,30
1,67,73,0
1,55,88,3
1,67,93,2
1,71,88,0
1,74,93,0
1,79,89,0
1,72,90,1
1,62,73,28
1,38,112,1
1,65,73,0
1,53,91,2
1,38,92,1
1,60,90,1
1,77,89,0
1,65,89,98
1,53,82,3
1,67,93,1
1,71,97,1
1,74,93,0
1,77,89,0
1,65,72,6
1,53,82,1
1,77,89,1
1,67,89,26
1,31,112,1
1,55,82,2
1,31,92,1
1,79,89,1
1,67,76,20
1,55,82,3
1,79,89,1
1,62,89,34
1,50,82,3
1,67,97,1
1,71,93,0
1,74,93,0
1,74,89,0
1,62,72,6
1,50,82,3
1,74,89,1
1,65,89,24
1,38,112,1
1,38,92,2
1,53,87,0
1,77,89,1
1,65,80,116
1,53,82,3
1,67,93,1
1,71,93,0
1,74,93,1
1,77,89,0
1,65,76,12
1,53,82,3
1,77,89,1
1,67,76,38
1,31,112,1
1,55,82,2
1,31,92,1
1,79,89,1
1,67,76,20
1,55,82,3
1,79,89,1
1,62,80,30
1,50,82,3
1,67,93,1
1,71,93,1
1,74,93,0
1,74,89,0
1,62,76,6
1,50,82,3
1,74,89,1
1,65,98,18
1,38,112,1
1,38,92,2
1,53,89,0
1,77,89,1
1,65,76,116
1,53,82,3
1,67,97,1
1,71,93,1
1,74,93,0
1,77,89,0
1,65,76,4
1,53,82,3
1,77,89,1
1,67,89,36
1,31,112,1
1,55,82,2
1,31,92,1
1,79,89,1
1,67,80,20
1,55,82,3
1,79,89,1
1,71,80,26
1,59,82,3
1,67,93,1
1,71,93,1
1,74,93,0
1,83,89,0
1,71,89,12
1,59,82,3
1,83,89,1
1,36,112,30
1,36,92,3
1,57,73,0
1,65,76,104
1,69,80,0
1,57,90,3
1,67,93,2
1,72,88,0
1,76,88,0
1,81,89,0
1,64,76,34
1,31,112,1
1,67,76,0
1,55,92,2
1,31,92,1
1,79,89,1
1,62,80,30
1,65,76,0
1,53,87,3
1,67,93,2
1,72,88,0
1,76,93,0
1,77,89,0
1,60,80,40
1,36,112,1
1,64,80,0
1,52,88,2
1,36,92,1
1,76,89,1
1,67,82,104
1,31,112,1
1,55,82,2
1,31,92,1
1,67,93,1
1,72,93,0
1,76,93,0
1,79,89,0
1,67,78,8
1,55,82,3
1,79,89,1
1,69,83,34
1,33,112,1
1,57,82,2
1,33,92,1
1,81,89,1
1,69,74,32
1,57,82,2
1,81,89,2
1,64,91,28
1,35,112,1
1,52,82,2
1,35,92,1
1,67,97,1
1,72,93,0
1,76,88,0
1,76,89,0
1,64,82,36
1,52,82,1
1,76,89,0
1,67,103,30
1,36,112,1
1,55,88,2
1,36,92,1
1,79,89,0
1,67,85,116
1,55,80,3
1,67,97,1
1,72,97,0
1,76,93,1
1,79,89,0
1,67,76,8
1,55,82,3
1,79,89,1
1,69,76,36
1,31,112,1
1,57,82,2
1,31,92,1
1,81,89,1
1,69,76,20
1,57,82,3
1,81,89,1
1,64,94,36
1,52,82,3
1,67,93,1
1,72,93,0
1,76,88,1
1,76,89,0
1,64,85,32
1,52,82,1
1,76,89,1
1,67,103,24
1,36,112,1
1,55,89,2
1,36,92,1
1,79,89,1
1,67,85,116
1,55,82,3
1,67,97,1
1,72,88,1
1,76,93,0
1,79,89,0
1,67,72,2
1,55,82,3
1,79,89,1
1,69,85,30
1,31,112,1
1,57,82,2
1,31,92,1
1,81,89,1
1,69,76,20
1,57,82,3
1,81,89,1
1,72,76,30
1,60,82,3
1,67,93,1
1,72,97,1
1,76,88,0
1,84,89,0
1,72,76,2
1,60,82,1
1,84,89,1
1,38,112,32
1,59,82,3
1,38,92,1
1,67,64,110
1,71,73,0
1,59,90,3
1,67,93,2
1,71,97,0
1,74,93,0
1,83,89,0
1,65,60,24
1,31,112,1
1,69,60,0
1,57,87,2
1,31,92,1
1,81,89,1
1,64,60,30
1,67,73,1
1,55,88,2
1,67,93,2
1,71,88,0
1,74,93,0
1,79,89,0
1,72,90,1
1,62,73,28
1,38,112,1
1,65,73,0
1,53,91,2
1,38,92,1
1,77,89,0
1,60,90,1
1,65,89,98
1,53,82,3
1,67,93,1
1,71,97,1
1,74,93,0
1,77,89,0
1,65,72,6
1,53,82,1
1,77,89,1
1,67,89,26
1,31,112,1
1,31,92,2
1,55,82,0
1,79,89,1
1,67,76,20
1,55,82,2
1,79,89,2
1,62,89,34
1,50,82,3
1,67,97,1
1,71,93,0
1,74,93,0
1,74,89,0
1,62,72,6
1,50,82,3
1,74,89,1
1,65,89,24
1,38,112,1
1,53,87,2
1,38,92,1
1,77,89,1
1,65,80,116
1,53,82,3
1,67,93,1
1,71,93,0
1,74,93,1
1,77,89,0
1,65,76,12
1,53,82,3
1,77,89,1
1,67,76,38
1,31,112,1
1,31,92,2
1,55,82,0
1,79,89,1
1,67,76,20
1,55,82,3
1,79,89,1
1,62,80,30
1,50,82,3
1,67,93,1
1,71,93,1
1,74,93,0
1,74,89,0
1,62,76,6
1,50,82,3
1,74,89,1
1,65,98,18
1,38,112,1
1,53,89,2
1,38,92,1
1,77,89,1
1,67,76,116
1,55,82,3
1,67,97,1
1,71,93,1
1,74,93,0
1,79,89,0
1,67,76,4
1,55,82,3
1,69,89,36
1,31,112,1
1,31,92,2
1,57,82,0
1,81,89,1
1,69,80,20
1,57,82,3
1,71,80,26
1,59,82,3
1,67,93,1
1,71,93,0
1,74,93,1
1,83,89,0
1,71,89,12
1,59,82,3
1,72,100,30
1,36,116,1
1,60,73,2
1,36,96,1
1,84,89,1
1,69,109,80
1,45,112,1
1,57,90,2
1,45,92,1
1,64,93,1
1,67,88,0
1,72,88,0
1,81,89,1
1,71,91,2
1,83,89,2
1,69,91,2
1,81,89,1
1,67,78,2
1,43,112,1
1,55,92,2
1,43,92,1
1,79,89,1
1,64,82,6
1,40,112,1
1,52,87,2
1,40,92,1
1,64,93,1
1,67,88,0
1,72,93,0
1,76,89,1
1,60,100,2
1,36,114,1
1,48,88,2
1,36,94,1
1,72,89,1
1,64,104,82
1,31,115,1
1,67,110,0
1,55,91,2
1,31,95,1
1,64,93,1
1,67,93,0
1,72,93,0
1,76,82,1
1,79,82,1
1,63,104,25
1,66,104,0
1,33,114,1
1,54,91,2
1,33,94,1
1,75,82,2
1,78,82,0
1,62,113,15
1,35,113,1
1,65,104,0
1,35,93,2
1,53,84,0
1,64,97,1
1,67,93,1
1,72,88,0
1,74,82,1
1,77,82,0
1,60,84,1
1,64,84,0
1,67,84,1
1,60,94,7
1,64,90,0
1,36,112,1
1,52,97,2
1,36,92,1
1,72,72,1
1,76,82,1
1,64,97,120
1,67,97,0
1,72,93,1
1,31,112,104
1,31,92,3
1,64,103,34
1,67,103,1
1,55,84,2
1,64,93,1
1,67,93,1
1,72,88,0
1,76,72,1
1,79,82,1
1,67,94,3
1,76,94,0
1,36,112,1
1,64,97,2
1,36,92,1
1,79,72,2
1,88,82,0
1,64,97,120
1,67,97,1
1,72,93,0
1,31,112,104
1,31,92,3
1,65,90,48
1,74,103,1
1,62,88,2
1,64,93,1
1,67,93,1
1,72,88,0
1,77,72,1
1,86,82,0
1,65,90,9
1,36,112,1
1,74,94,0
1,62,88,2
1,36,92,1
1,77,72,2
1,86,82,0
1,64,97,120
1,67,97,0
1,72,93,1
1,64,90,15
1,31,112,1
1,72,94,0
1,60,84,2
1,31,92,1
1,76,72,2
1,84,82,0
1,64,93,120
1,67,93,1
1,72,88,0
1,36,112,92
1,36,92,3
1,64,94,63
1,67,103,1
1,55,88,2
1,64,97,1
1,67,97,1
1,72,93,0
1,76,72,1
1,79,82,1
1,63,103,20
1,66,103,0
1,31,112,1
1,54,88,2
1,31,92,1
1,75,72,2
1,78,82,0
1,62,103,31
1,65,103,1
1,53,88,2
1,64,93,1
1,67,93,1
1,72,88,0
1,74,72,1
1,77,82,0
1,60,84,1
1,64,84,1
1,67,84,0
1,60,103,6
1,36,112,1
1,64,103,0
1,52,88,2
1,36,92,1
1,72,72,2
1,76,82,0
1,64,97,120
1,67,97,1
1,72,93,0
1,31,112,104
1,31,92,3
1,64,90,38
1,67,94,1
1,55,84,2
1,64,93,1
1,67,93,1
1,72,88,0
1,76,72,1
1,79,82,1
1,64,94,3
1,36,112,1
1,74,103,0
1,36,92,2
1,62,93,0
1,76,72,2
1,86,82,0
1,64,97,120
1,67,97,1
1,72,93,0
1,31,112,104
1,31,92,3
1,64,90,46
1,72,103,1
1,60,84,2
1,64,93,1
1,67,93,1
1,72,88,0
1,81,72,1
1,84,82,1
1,59,84,1
1,62,84,0
1,67,84,1
1,65,90,6
1,38,112,1
1,71,94,0
1,38,92,2
1,59,84,0
1,77,72,2
1,79,72,1
1,83,72,0
1,62,93,120
1,67,93,1
1,71,93,0
1,31,112,108
1,31,92,3
1,62,93,120
1,67,93,1
1,71,93,0
1,38,112,102
1,38,92,3
1,65,103,46
1,69,94,1
1,57,88,2
1,62,93,1
1,67,93,1
1,71,93,0
1,77,72,1
1,81,82,1
1,64,90,18
1,31,112,1
1,67,94,0
1,55,88,2
1,31,92,1
1,76,72,2
1,79,82,0
1,63,103,20
1,66,103,1
1,54,93,2
1,62,93,1
1,67,93,0
1,71,93,1
1,75,72,1
1,78,82,1
1,59,84,1
1,62,84,1
1,67,84,0
1,62,111,6
1,38,112,1
1,65,102,0
1,38,92,2
1,53,88,0
1,74,72,2
1,77,82,1
1,62,93,120
1,67,93,1
1,71,93,0
1,31,112,108
1,31,92,3
1,64,81,24
1,67,93,1
1,55,88,2
1,62,93,1
1,67,93,1
1,71,93,0
1,76,72,1
1,79,82,1
1,71,89,13
1,74,93,0
1,38,112,1
1,62,88,2
1,38,92,1
1,83,72,2
1,86,82,0
1,62,93,120
1,67,93,1
1,71,93,0
1,31,112,108
1,31,92,3
1,69,93,34
1,72,93,1
1,60,88,2
1,62,93,1
1,67,93,0
1,71,93,1
1,81,72,1
1,84,82,1
1,69,102,26
1,38,112,1
1,72,93,0
1,60,88,2
1,38,92,1
1,81,72,2
1,84,82,0
1,62,93,120
1,67,93,1
1,71,93,0
1,65,81,18
1,31,112,1
1,67,85,0
1,71,85,0
1,59,84,2
1,31,92,1
1,79,72,2
1,83,82,0
1,62,93,120
1,67,93,1
1,71,93,0
1,38,112,102
1,38,92,3
1,71,83,28
1,74,91,1
1,62,88,2
1,62,93,1
1,67,93,1
1,71,93,0
1,83,72,1
1,86,82,0
1,71,87,20
1,74,87,0
1,31,112,1
1,62,88,2
1,31,92,1
1,83,72,2
1,86,82,0
1,69,83,12
1,72,91,1
1,60,84,2
1,62,93,1
1,67,93,0
1,71,93,1
1,81,72,1
1,84,82,1
1,69,79,25
1,38,112,1
1,72,91,0
1,60,88,2
1,38,92,1
1,81,72,2
1,84,82,0
1,62,93,120
1,67,93,0
1,71,93,1
1,67,75,2
1,31,112,1
1,71,79,0
1,59,88,2
1,31,92,1
1,79,72,2
1,83,82,0
1,62,93,120
1,67,93,1
1,71,93,0
1,38,112,102
1,38,92,3
1,59,88,24
1,79,72,2
1,83,82,0
1,67,87,36
1,71,83,1
1,62,93,3
1,67,93,1
1,71,93,0
1,59,84,15
1,79,72,2
1,83,82,1
1,69,79,14
1,72,87,0
1,31,112,1
1,31,92,2
1,60,84,0
1,81,72,2
1,84,82,0
1,71,87,22
1,74,87,1
1,62,93,2
1,62,93,1
1,67,93,0
1,71,93,1
1,83,72,1
1,86,82,1
1,60,84,1
1,64,84,0
1,67,84,1
1,64,91,6
1,36,116,1
1,67,91,0
1,72,83,0
1,60,84,2
1,36,96,1
1,76,72,2
1,79,72,0
1,81,72,0
1,84,72,0
1,45,112,90
1,45,92,3
1,64,97,1
1,67,97,0
1,72,93,1
1,81,72,13
1,43,112,21
1,43,92,3
1,79,72,98
1,40,112,33
1,40,92,3
1,64,93,1
1,67,93,0
1,72,88,1
1,81,72,1
1,36,114,82
1,36,94,3
1,76,72,2
1,79,72,0
1,81,72,1
1,84,72,0
1,67,97,81
1,31,115,1
1,55,82,2
1,31,95,1
1,64,97,1
1,67,97,0
1,72,93,0
1,79,89,0
1,67,100,8
1,55,82,3
1,79,89,1
1,69,92,35
1,33,114,1
1,33,94,2
1,57,87,0
1,81,94,1
1,69,102,38
1,57,82,3
1,81,89,1
1,64,106,32
1,35,113,1
1,52,84,2
1,35,93,2
1,64,93,0
1,67,93,0
1,72,88,0
1,76,91,0
1,64,85,39
1,52,82,1
1,76,89,1
1,67,103,32
1,36,112,1
1,55,88,2
1,36,92,1
1,79,89,1
1,67,85,116
1,55,80,3
1,67,97,1
1,72,97,0
1,76,93,1
1,79,89,0
1,67,76,8
1,55,82,3
1,79,89,1
1,69,76,36
1,31,112,1
1,31,92,2
1,57,82,0
1,81,89,1
1,69,76,20
1,57,82,3
1,81,89,1
1,64,94,36
1,52,82,3
1,67,93,1
1,72,93,1
1,76,88,0
1,76,89,0
1,64,85,32
1,52,82,1
1,76,89,1
1,67,103,24
1,36,112,1
1,55,89,2
1,36,92,1
1,79,89,1
1,67,85,116
1,55,82,3
1,67,97,1
1,72,88,1
1,76,93,0
1,79,89,0
1,67,72,2
1,55,82,3
1,79,89,1
1,69,85,30
1,31,112,1
1,31,92,2
1,57,82,0
1,81,89,1
1,69,76,20
1,57,82,3
1,81,89,1
1,72,76,30
1,60,82,3
1,67,93,1
1,72,97,1
1,76,88,0
1,84,89,0
1,72,76,2
