track,note,velocity,time
1,40,105,19196
1,40,105,96
1,35,105,96
1,40,105,40
1,40,105,96
1,40,105,96
1,41,105,22
1,38,105,32
1,40,105,32
1,40,105,96
1,35,105,192
1,40,105,32
1,40,105,96
1,40,105,96
1,41,105,22
1,38,105,32
1,40,105,32
1,40,105,96
1,35,105,96
1,40,105,40
1,40,105,96
1,40,105,96
1,41,105,22
1,38,105,32
1,40,105,32
1,40,105,96
1,35,105,192
1,40,105,32
1,40,105,96
1,40,105,96
1,41,105,22
1,38,105,32
1,40,105,32
1,40,105,96
1,35,105,96
1,40,105,40
1,40,105,96
1,40,105,96
1,41,105,22
1,38,105,32
1,40,105,32
1,40,105,96
1,35,105,192
1,40,105,32
1,40,105,96
1,40,105,96
1,41,105,22
1,38,105,32
1,40,105,32
1,40,105,96
1,35,105,96
1,40,105,40
1,40,105,96
1,40,105,96
1,41,105,22
1,38,105,32
1,40,105,32
1,40,105,96
1,35,105,192
1,40,105,32
1,40,105,96
1,40,105,96
1,41,105,22
1,38,105,32
1,40,105,32
1,40,105,96
1,35,105,96
1,40,105,40
1,40,105,96
1,40,105,96
1,41,105,22
1,38,105,32
1,40,105,32
1,40,105,96
1,35,105,192
1,40,105,32
1,40,105,96
1,40,105,96
1,41,105,22
1,38,105,32
1,40,105,32
1,40,105,96
1,35,105,96
1,40,105,40
1,40,105,96
1,40,105,96
1,41,105,22
1,38,105,32
1,38,105,32
1,38,105,96
1,33,105,192
1,38,105,32
1,38,105,96
1,38,105,96
1,40,105,22
1,41,105,32
1,40,105,32
1,40,105,96
1,35,105,96
1,40,105,40
1,40,105,96
1,40,105,96
1,41,105,22
1,38,105,32
1,40,105,32
1,40,105,96
1,35,105,192
1,40,105,32
1,40,105,96
1,40,105,96
1,41,105,22
1,38,105,32
1,40,105,32
1,40,105,96
1,35,105,96
1,40,105,40
1,40,105,96
1,40,105,96
1,41,105,22
1,38,105,32
1,38,105,32
1,38,105,96
1,33,105,192
1,38,105,32
1,38,105,96
1,38,105,96
1,40,105,22
1,41,105,32
1,40,105,32
1,40,105,96
1,35,105,96
1,40,105,40
1,40,105,96
1,40,105,96
1,41,105,22
1,38,105,32
1,40,105,32
1,40,105,96
1,35,105,192
1,40,105,32
1,40,105,96
1,40,105,96
1,41,105,22
1,38,105,32
1,40,105,32
1,40,105,96
1,35,105,96
1,40,105,40
1,40,105,96
1,40,105,96
1,41,105,22
1,38,105,32
1,38,105,32
1,38,105,96
1,33,105,192
1,38,105,32
1,38,105,96
1,38,105,96
1,40,105,22
1,41,105,32
1,40,105,32
1,40,105,96
1,35,105,96
1,40,105,40
1,40,105,96
1,40,105,96
1,41,105,22
1,38,105,32
1,40,105,32
1,40,105,96
1,35,105,192
1,40,105,32
1,40,105,96
1,40,105,96
1,41,105,22
1,38,105,32
1,40,105,32
1,40,105,96
1,35,105,96
1,40,105,40
1,40,105,96
1,40,105,96
1,41,105,22
1,38,105,32
1,38,105,32
1,38,105,96
1,33,105,192
1,38,105,32
1,38,105,96
1,38,105,96
1,40,105,22
1,41,105,32
1,40,105,32
1,40,105,96
1,35,105,96
1,40,105,40
1,40,105,96
1,40,105,96
1,41,105,22
1,38,105,32
1,40,105,32
1,40,105,96
1,35,105,192
1,40,105,32
1,40,105,96
1,40,105,96
1,41,105,22
1,38,105,32
1,40,105,32
1,40,105,96
1,35,105,96
1,40,105,40
1,40,105,96
1,40,105,96
1,41,105,22
1,38,105,32
1,38,105,32
1,38,105,96
1,33,105,192
1,38,105,32
1,38,105,96
1,38,105,96
1,40,105,22
1,41,105,32
1,40,105,32
1,40,105,96
1,35,105,96
1,40,105,40
1,40,105,96
1,40,105,96
1,41,105,22
1,38,105,32
1,40,105,32
1,40,105,96
1,35,105,192
1,40,105,32
1,40,105,96
1,40,105,96
1,41,105,22
1,38,105,32
1,40,105,32
1,40,105,96
1,35,105,96
1,40,105,40
1,40,105,96
1,40,105,96
1,41,105,22
1,38,105,32
1,38,105,32
1,38,105,96
1,33,105,192
1,38,105,32
1,38,105,96
1,38,105,96
1,40,105,22
1,41,105,32
1,40,105,32
1,40,105,96
1,35,105,96
1,40,105,40
1,40,105,96
1,40,105,96
1,41,105,22
1,38,105,32
1,40,105,32
1,40,105,96
1,35,105,192
1,40,105,32
1,40,105,96
1,40,105,96
1,41,105,22
1,38,105,32
1,40,105,32
1,40,105,96
1,35,105,96
1,40,105,40
1,40,105,96
1,40,105,96
1,41,105,22
1,38,105,32
1,38,105,32
1,38,105,96
1,33,105,192
1,38,105,32
1,38,105,96
1,38,105,96
1,40,105,22
1,41,105,32
1,40,105,34
1,40,105,96
1,35,105,96
1,40,105,40
1,40,105,96
1,40,105,96
1,41,105,22
1,38,105,32
1,40,105,32
1,40,105,96
1,35,105,192
1,40,105,32
1,40,105,96
1,40,105,96
1,41,105,22
1,38,105,32
1,40,105,32
1,40,105,96
1,35,105,96
1,40,105,40
1,40,105,96
1,40,105,96
1,41,105,22
1,38,105,32
1,38,105,32
1,38,105,96
1,33,105,192
1,38,105,32
1,38,105,96
1,38,105,96
1,40,105,22
1,41,105,32
1,40,105,32
1,40,105,96
1,35,105,96
1,40,105,40
1,40,105,96
1,40,105,96
1,41,105,22
1,38,105,32
1,40,105,32
1,40,105,96
1,35,105,192
1,40,105,32
1,40,105,96
1,40,105,96
1,41,105,22
1,38,105,32
1,40,105,32
1,40,105,96
1,35,105,96
1,40,105,40
1,40,105,96
1,40,105,96
1,41,105,22
1,38,105,32
1,38,112,32
1,33,112,112
1,38,112,110
1,40,112,82
1,38,112,88
1,33,112,100
1,40,105,6176
1,40,105,96
1,35,105,96
1,40,105,40
1,40,105,96
1,40,105,96
1,41,105,22
1,38,105,32
1,40,105,32
1,40,105,96
1,35,105,192
1,40,105,32
1,40,105,96
1,40,105,96
1,41,105,22
1,38,105,32
1,40,105,32
1,40,105,96
1,35,105,96
1,40,105,40
1,40,105,96
1,40,105,96
1,41,105,22
1,38,105,32
1,40,105,32
1,40,105,96
1,35,105,192
1,40,105,32
1,40,105,96
1,40,105,96
1,41,105,22
1,38,105,32
1,40,105,32
1,40,105,96
1,35,105,96
1,40,105,40
1,40,105,96
1,40,105,96
1,41,105,22
1,38,105,32
1,40,105,32
1,40,105,96
1,35,105,192
1,40,105,32
1,40,105,96
1,40,105,96
1,41,105,22
1,38,105,32
1,40,105,32
1,40,105,96
1,35,105,96
1,40,105,40
1,40,105,96
1,40,105,96
1,41,105,22
1,38,105,32
1,38,105,32
1,38,105,96
1,33,105,192
1,38,105,32
1,38,105,96
1,38,105,96
1,40,105,22
1,41,105,32
1,40,105,32
1,40,105,96
1,35,105,96
1,40,105,40
1,40,105,96
1,40,105,96
1,41,105,22
1,38,105,32
1,40,105,32
1,40,105,96
1,35,105,192
1,40,105,32
1,40,105,96
1,40,105,96
1,41,105,22
1,38,105,32
1,40,105,32
1,40,105,96
1,35,105,96
1,40,105,40
1,40,105,96
1,40,105,96
1,41,105,22
1,38,105,32
1,38,105,32
1,38,105,96
1,33,105,192
1,38,105,32
1,38,105,96
1,38,105,96
1,40,105,22
1,41,105,32
1,40,105,32
1,40,105,96
1,35,105,96
1,40,105,40
1,40,105,96
1,40,105,96
1,41,105,22
1,38,105,32
1,40,105,32
1,40,105,96
1,35,105,192
1,40,105,32
1,40,105,96
1,40,105,96
1,41,105,22
1,38,105,32
1,40,105,32
1,40,105,96
1,35,105,96
1,40,105,40
1,40,105,96
1,40,105,96
1,41,105,22
1,38,105,32
1,38,105,32
1,38,105,96
1,33,105,192
1,38,105,32
1,38,105,96
1,38,105,96
1,40,105,22
1,41,105,32
1,40,105,32
1,40,105,96
1,35,105,96
1,40,105,40
1,40,105,96
1,40,105,96
1,41,105,22
1,38,105,32
1,40,105,32
1,40,105,96
1,35,105,192
1,40,105,32
1,40,105,96
1,40,105,96
1,41,105,22
1,38,105,32
1,40,105,32
1,40,105,96
1,35,105,96
1,40,105,40
1,40,105,96
1,40,105,96
1,41,105,22
1,38,105,32
1,38,105,32
1,38,105,96
1,33,105,192
1,38,105,32
1,38,105,96
1,38,105,96
1,40,105,22
1,41,105,32
1,40,105,32
1,40,105,96
1,35,105,96
1,40,105,40
1,40,105,96
1,40,105,96
1,41,105,22
1,38,105,32
1,40,105,32
1,40,105,96
1,35,105,192
1,40,105,32
1,40,105,96
1,40,105,96
1,41,105,22
1,38,105,32
1,40,105,32
1,40,105,96
1,35,105,96
1,40,105,40
1,40,105,96
1,40,105,96
1,41,105,22
1,38,105,32
1,38,105,32
1,38,105,96
1,33,105,192
1,38,105,32
1,38,105,96
1,38,105,96
1,40,105,22
1,41,105,32
1,40,105,32
1,40,105,96
1,35,105,96
1,40,105,40
1,40,105,96
1,40,105,96
1,41,105,22
1,38,105,32
1,40,105,32
1,40,105,96
1,35,105,192
1,40,105,32
1,40,105,96
1,40,105,96
1,41,105,22
1,38,105,32
1,40,105,32
1,40,105,96
1,35,105,96
1,40,105,40
1,40,105,96
1,40,105,96
1,41,105,22
1,38,105,32
1,38,105,32
1,38,105,96
1,33,105,192
1,38,105,32
1,38,105,96
1,38,105,96
1,40,105,22
1,41,105,32
1,40,105,32
1,40,105,96
1,35,105,96
1,40,105,40
1,40,105,96
1,40,105,96
1,41,105,22
1,38,105,32
1,40,105,32
1,40,105,96
1,35,105,192
1,40,105,32
1,40,105,96
1,40,105,96
1,41,105,22
1,38,105,32
1,40,105,32
1,40,105,96
1,35,105,96
1,40,105,40
1,40,105,96
1,40,105,96
1,41,105,22
1,38,105,32
1,38,105,32
1,38,105,96
1,33,105,192
1,38,105,32
1,38,105,96
1,38,105,96
1,40,105,22
1,41,105,32
1,40,105,32
1,40,105,96
1,35,105,96
1,40,105,40
1,40,105,96
1,40,105,96
1,41,105,22
1,38,105,32
1,40,105,32
1,40,105,96
1,35,105,192
1,40,105,32
1,40,105,96
1,40,105,96
1,41,105,22
1,38,105,32
1,40,105,32
1,40,105,96
1,35,105,96
1,40,105,40
1,40,105,96
1,40,105,96
1,41,105,22
1,38,105,32
1,38,105,32
1,38,105,96
1,33,105,192
1,38,105,32
1,38,105,96
1,38,105,96
1,40,105,22
1,41,105,32
1,41,95,32
1,40,95,2
2,52,67,37070
2,59,87,0
2,64,87,0
2,57,67,6
2,62,87,0
2,65,87,0
2,53,67,6
2,52,67,6
2,59,87,0
2,64,87,0
2,57,67,6
2,62,87,0
2,65,87,0
2,53,67,6
2,52,67,6
2,59,87,0
2,64,87,0
2,71,66,0
2,72,66,6
2,57,67,6
2,62,87,0
2,65,87,0
2,69,66,0
2,53,67,6
2,52,67,30
2,59,87,0
2,64,87,0
2,71,66,0
2,83,44,0
2,84,44,6
2,81,44,6
2,83,44,6
2,83,44,102
2,72,66,6
2,84,44,0
2,57,67,6
2,62,87,0
2,65,87,0
2,69,66,0
2,81,44,0
2,53,67,6
2,88,44,0
2,52,67,6
2,59,87,0
2,64,87,0
2,71,66,0
2,83,44,0
2,84,44,6
2,86,44,6
2,83,44,6
2,83,44,102
2,72,66,6
2,84,44,0
2,57,67,6
2,62,87,0
2,65,87,0
2,69,66,0
2,81,44,0
2,53,67,6
2,88,44,0
2,52,67,6
2,59,87,0
2,64,87,0
2,71,66,0
2,72,66,6
2,57,67,6
2,62,87,0
2,65,87,0
2,69,66,0
2,53,67,6
2,52,67,34
2,59,87,0
2,64,87,0
2,71,66,0
2,72,66,6
2,57,67,6
2,62,87,0
2,65,87,0
2,69,66,0
2,53,67,6
2,52,67,6
2,59,87,0
2,64,87,0
2,71,66,0
2,72,66,6
2,50,67,6
2,57,67,0
2,62,87,0
2,65,87,0
2,69,66,0
2,52,67,13638
2,59,87,0
2,64,87,0
2,57,67,6
2,62,87,0
2,65,87,0
2,53,67,6
2,52,67,6
2,59,87,0
2,64,87,0
2,57,67,6
2,62,87,0
2,65,87,0
2,53,67,6
2,52,67,6
2,59,87,0
2,64,87,0
2,71,66,0
2,72,66,6
2,57,67,6
2,62,87,0
2,65,87,0
2,69,66,0
2,53,67,6
2,52,67,6
2,59,87,0
2,64,87,0
2,71,66,0
2,72,66,6
2,57,67,6
2,62,87,0
2,65,87,0
2,69,66,0
2,53,67,6
2,52,67,6
2,59,87,0
2,64,87,0
2,71,66,0
2,72,66,6
2,57,67,6
2,62,87,0
2,65,87,0
2,69,66,0
2,53,67,6
2,52,67,6
2,59,87,0
2,64,87,0
2,71,66,0
2,72,66,6
2,57,67,6
2,62,87,0
2,65,87,0
2,69,66,0
2,53,67,6
2,52,67,6
2,59,87,0
2,64,87,0
2,71,66,0
2,72,66,6
2,57,67,6
2,62,87,0
2,65,87,0
2,69,66,0
2,53,67,6
2,52,67,6
2,59,87,0
2,64,87,0
2,71,66,0
2,72,66,6
2,57,67,6
2,62,87,0
2,65,87,0
2,69,66,0
2,53,67,6
2,53,74,6
2,57,74,0
2,62,74,0
2,86,75,96
2,98,75,0
2,52,74,74
2,56,74,0
2,59,74,0
2,88,75,0
2,100,75,0
3,69,120,67708
3,69,80,28
3,69,121,28
3,69,121,90
3,69,120,44
3,71,120,22
3,69,88,108
3,71,88,22
3,69,64,126
3,71,64,22
3,69,41,130
3,71,41,6
3,69,28,126
3,71,28,2
3,69,120,706
3,69,80,28
3,69,121,28
3,69,121,90
3,69,120,44
3,71,120,22
3,69,88,108
3,71,88,22
3,69,64,126
3,71,64,22
3,69,41,130
3,71,41,6
3,69,28,126
3,71,28,2
3,69,120,706
3,69,80,28
3,69,121,28
3,69,121,90
3,69,120,44
3,69,120,34
3,71,120,22
3,69,88,108
3,71,88,22
3,69,64,126
3,71,64,22
3,69,41,130
3,71,41,6
3,69,28,126
3,71,28,2
3,69,120,706
3,69,80,28
3,69,121,28
3,69,121,90
3,69,120,44
3,71,120,22
3,69,88,108
3,71,88,22
3,69,64,126
3,71,64,22
3,69,41,130
3,71,41,6
3,69,28,126
3,71,28,2
3,69,120,706
3,69,80,28
3,69,121,28
3,69,121,90
3,69,120,44
3,71,120,22
3,69,88,108
3,71,88,22
3,69,64,126
3,71,64,22
3,69,41,130
3,71,41,6
3,69,28,126
3,71,28,2
3,69,120,706
3,69,80,28
3,69,121,28
3,69,121,90
3,71,120,16
3,71,120,2
3,69,120,30
3,69,120,8
3,71,84,2
3,69,101,2
3,67,120,42
3,67,82,192
3,67,54,192
3,64,119,192
3,64,119,182
3,68,119,4
3,64,119,6
3,64,119,130
3,68,119,12
3,69,119,2
3,69,119,122
3,71,119,2
3,68,119,2
3,64,119,30
3,64,119,114
3,64,119,48
3,64,119,158
3,68,119,2
3,64,119,30
3,64,119,124
3,62,119,2
3,64,119,1308
3,64,119,182
3,68,119,4
3,64,119,6
3,64,119,130
3,68,119,12
3,69,119,2
3,69,119,122
3,71,119,2
3,68,119,2
3,64,119,30
3,64,119,114
3,64,119,48
3,64,119,158
3,68,119,2
3,64,119,30
3,64,119,124
3,62,119,2
3,69,120,13020
3,69,80,28
3,69,121,28
3,69,121,90
3,69,120,44
3,71,120,22
3,69,88,108
3,71,88,22
3,69,64,126
3,71,64,22
3,69,41,130
3,71,41,6
3,69,28,126
3,71,28,2
3,69,120,706
3,69,80,28
3,69,121,28
3,69,121,90
3,69,120,44
3,71,120,22
3,69,88,108
3,71,88,22
3,69,64,126
3,71,64,22
3,69,41,130
3,71,41,6
3,69,28,126
3,71,28,2
3,69,120,706
3,69,80,28
3,69,121,28
3,69,121,90
3,69,120,44
3,71,120,22
3,69,88,108
3,71,88,22
3,69,64,126
3,71,64,22
3,69,41,130
3,71,41,6
3,69,28,126
3,71,28,2
3,69,120,706
3,69,80,28
3,69,121,28
3,69,121,90
3,71,120,16
3,71,120,2
3,69,120,30
3,69,120,8
3,71,84,2
3,69,101,2
3,67,120,42
3,67,82,192
3,69,120,2
3,69,80,28
3,67,54,28
3,69,121,0
3,69,121,2
3,69,120,44
3,71,120,22
3,69,88,108
3,71,88,22
3,69,64,126
3,71,64,22
3,69,41,130
