track,note,velocity,time
1,59,97,7920
1,59,97,24
1,55,97,24
1,59,97,48
1,59,97,24
1,55,97,24
1,59,97,240
1,59,97,24
1,55,97,24
1,59,97,48
1,59,97,24
1,55,97,24
1,59,97,240
1,59,97,24
1,55,97,24
1,59,97,48
1,59,97,24
1,55,97,24
1,59,97,240
1,59,97,24
1,55,97,24
1,59,97,48
1,59,97,24
1,55,97,24
1,57,97,16536
1,59,97,24
1,60,97,24
1,59,97,24
1,59,97,24
1,59,97,24
1,60,97,24
1,59,97,24
1,57,97,48
1,52,97,24
1,59,97,24
1,60,97,24
1,59,97,24
1,57,97,216
1,59,97,24
1,60,97,24
1,59,97,24
1,57,97,48
1,55,97,24
1,59,97,24
1,60,97,24
1,59,97,24
1,57,97,216
1,59,97,24
1,60,97,24
1,59,97,24
1,57,97,48
1,52,97,24
1,59,97,24
1,60,97,24
1,59,97,24
1,57,97,216
1,59,97,24
1,60,97,24
1,59,97,24
1,57,97,48
1,55,72,48
1,55,72,24
1,55,72,24
1,55,72,24
1,59,72,24
1,59,72,24
1,59,72,24
1,59,72,24
1,59,72,24
1,57,72,48
1,55,72,48
1,55,72,24
1,55,72,24
1,55,72,24
1,59,72,24
1,59,72,24
1,59,72,24
1,59,72,24
1,59,72,24
1,57,72,48
1,55,72,48
1,55,72,24
1,55,72,24
1,55,72,24
1,59,72,24
1,59,72,24
1,59,72,24
1,59,72,24
1,59,72,24
1,57,72,48
1,55,72,48
1,55,72,24
1,55,72,24
1,55,72,24
1,59,72,24
1,59,72,24
1,59,72,24
1,59,72,24
1,59,72,24
1,57,72,48
1,55,97,7728
1,57,97,24
1,59,97,24
1,60,97,24
1,59,97,24
1,57,97,216
1,59,97,24
1,60,97,24
1,59,97,24
1,57,97,48
1,52,97,48
1,52,97,24
1,59,97,24
1,60,97,24
1,59,97,24
1,57,97,216
1,59,97,24
1,60,97,24
1,59,97,24
1,57,97,48
1,55,97,48
1,57,97,24
1,59,97,24
1,60,97,24
1,59,97,24
1,59,97,216
1,59,97,24
1,60,97,24
1,59,97,24
1,57,97,48
1,52,97,48
1,52,97,24
1,59,97,24
1,60,97,24
1,59,97,24
1,57,97,216
1,59,97,24
1,60,97,24
1,59,97,24
1,57,97,48
1,55,72,48
1,55,72,24
1,55,72,24
1,55,72,24
1,59,72,24
1,59,72,24
1,59,72,24
1,59,72,24
1,59,72,24
1,57,72,48
1,55,72,48
1,55,72,24
1,55,72,24
1,55,72,24
1,59,72,24
1,59,72,24
1,59,72,24
1,59,72,24
1,59,72,24
1,57,72,48
1,55,72,48
1,55,72,24
1,55,72,24
1,55,72,24
1,59,72,24
1,59,72,24
1,59,72,24
1,59,72,24
1,59,72,24
1,57,72,48
1,55,72,48
1,55,72,24
1,55,72,24
1,55,72,24
1,59,72,24
1,59,72,24
1,59,72,24
1,59,72,24
1,59,72,24
1,57,72,48
1,59,97,288
1,59,97,24
1,55,97,24
1,59,97,48
1,59,97,24
1,55,97,24
1,59,97,240
1,59,97,24
1,55,97,24
1,59,97,48
1,59,97,24
1,55,97,24
1,59,97,240
1,59,97,24
1,55,97,24
1,59,97,48
1,59,97,24
1,55,97,24
1,59,97,240
1,59,97,24
1,55,97,24
1,59,97,48
1,59,97,24
1,55,97,24
1,59,97,16656
1,59,97,48
1,59,97,48
1,60,97,48
1,59,97,96
1,59,97,336
1,59,97,48
1,59,97,48
1,60,97,48
1,59,97,48
1,57,97,48
1,55,97,48
1,59,97,48
1,59,97,48
1,55,97,48
1,54,97,48
1,55,97,48
1,57,97,48
1,55,97,48
1,59,97,288
1,59,97,48
1,55,97,48
1,54,97,48
1,55,97,48
1,57,97,48
1,59,97,48
1,59,97,288
1,59,97,48
1,59,97,48
1,60,97,48
1,59,97,96
1,59,97,336
1,59,97,48
1,59,97,48
1,60,97,48
1,59,97,48
1,57,97,48
1,55,97,48
1,59,97,48
1,59,97,48
1,55,97,48
1,54,97,48
1,55,97,48
1,57,97,48
1,55,97,48
1,59,97,288
1,59,97,48
1,55,97,48
1,60,97,288
1,60,97,48
1,59,97,48
1,55,97,48
2,62,90,15120
2,62,86,48
2,59,86,24
2,59,86,48
2,59,86,48
2,60,86,24
2,59,86,48
2,55,86,24
2,55,86,48
2,62,86,72
2,62,86,48
2,59,86,24
2,59,86,48
2,59,86,48
2,60,86,24
2,59,86,48
2,55,86,24
2,55,86,48
2,55,86,216
2,55,86,48
2,55,86,48
2,55,86,48
2,54,86,48
2,55,86,48
2,57,86,24
2,59,86,72
2,55,86,24
2,54,86,96
2,55,86,48
2,57,86,24
2,54,86,72
2,55,86,48
2,67,80,22464
2,67,80,24
2,59,80,24
2,60,80,24
2,62,80,24
2,62,80,24
2,62,80,24
2,64,80,24
2,62,80,24
2,60,80,48
2,67,80,48
2,67,80,24
2,59,80,24
2,60,80,24
2,62,80,24
2,62,80,24
2,62,80,24
2,64,80,24
2,62,80,24
2,60,80,48
2,67,80,48
2,67,80,24
2,59,80,24
2,60,80,24
2,62,80,24
2,62,80,24
2,62,80,24
2,64,80,24
2,62,80,24
2,60,80,48
2,67,80,48
2,67,80,24
2,59,80,24
2,60,80,24
2,62,80,24
2,62,80,24
2,62,80,24
2,64,80,24
2,62,80,24
2,60,80,48
2,67,80,15408
2,67,80,24
2,59,80,24
2,60,80,24
2,62,80,24
2,62,80,24
2,62,80,24
2,64,80,24
2,62,80,24
2,60,80,48
2,67,80,48
2,67,80,24
2,59,80,24
2,60,80,24
2,62,80,24
2,62,80,24
2,62,80,24
2,64,80,24
2,62,80,24
2,60,80,48
2,67,80,48
2,67,80,24
2,59,80,24
2,60,80,24
2,62,80,24
2,62,80,24
2,62,80,24
2,64,80,24
2,62,80,24
2,60,80,48
2,67,80,48
2,67,80,24
2,59,80,24
2,60,80,24
2,62,80,24
2,62,80,24
2,62,80,24
2,64,80,24
2,62,80,24
2,60,80,48
2,62,90,7488
2,62,86,48
2,59,86,24
2,59,86,48
2,59,86,48
2,60,86,24
2,59,86,48
2,55,86,24
2,55,86,48
2,62,86,72
2,62,86,48
2,59,86,24
2,59,86,48
2,59,86,48
2,60,86,24
2,59,86,48
2,55,86,24
2,55,86,48
2,55,86,216
2,55,86,48
2,55,86,48
2,55,86,48
2,54,86,48
2,55,86,48
2,57,86,24
2,59,86,72
2,55,86,24
2,54,86,96
2,55,86,48
2,57,86,24
2,54,86,72
2,55,86,48
3,50,80,79200
3,55,80,24
3,50,80,0
3,55,80,48
3,50,80,0
3,50,80,2712
3,55,80,0
3,50,80,48
3,55,80,0
3,50,80,2592
3,50,80,24
3,55,80,0
3,50,80,48
3,55,80,0
4,50,100,7680
4,43,100,0
4,55,100,0
4,57,100,0
4,45,100,0
4,55,100,0
4,43,100,0
4,48,100,0
4,55,100,0
4,43,100,0
4,50,100,0
4,45,100,0
4,57,100,0
4,43,100,0
4,48,100,0
4,55,100,0
4,55,100,0
4,43,100,0
4,50,100,0
4,45,100,0
4,57,100,0
4,55,100,0
4,43,100,0
4,48,100,0
4,50,100,0
4,43,100,0
4,55,100,0
4,57,100,0
4,45,100,0
4,43,100,0
4,55,100,0
4,48,100,0
4,52,100,0
4,45,100,0
4,57,100,0
4,50,80,0
4,55,80,0
4,43,80,0
4,43,80,12
4,50,80,0
4,55,80,0
4,43,80,12
4,55,80,0
4,50,80,0
4,43,80,12
4,50,80,0
4,55,80,0
4,43,80,12
4,50,80,0
4,55,80,0
4,55,80,12
4,43,80,0
4,50,80,0
4,55,80,12
4,50,80,0
4,43,80,0
4,50,80,12
4,55,80,0
4,43,80,0
4,50,80,12
4,43,80,0
4,55,80,0
4,43,80,12
4,50,80,0
4,55,80,0
4,50,80,12
4,43,80,0
4,55,80,0
4,55,80,12
4,43,80,0
4,50,80,0
4,55,80,12
4,43,80,0
4,50,80,0
4,43,80,12
4,50,80,0
4,55,80,0
4,50,80,12
4,55,80,0
4,43,80,0
4,45,80,12
4,52,80,0
4,57,80,0
4,52,80,12
4,40,80,0
4,47,80,0
4,47,80,12
4,40,80,0
4,52,80,0
4,47,80,12
4,40,80,0
4,52,80,0
4,40,80,12
4,47,80,0
4,52,80,0
4,47,80,12
4,40,80,0
4,52,80,0
4,47,80,12
4,40,80,0
4,52,80,0
4,47,80,12
4,40,80,0
4,52,80,0
4,52,80,12
4,47,80,0
4,40,80,0
4,55,80,12
4,48,80,0
4,60,80,0
4,55,80,12
4,48,80,0
4,60,80,0
4,60,80,12
4,55,80,0
4,48,80,0
4,48,80,12
4,60,80,0
4,55,80,0
4,48,80,12
4,55,80,0
4,60,80,0
4,48,80,12
4,55,80,0
4,60,80,0
4,55,80,12
4,60,80,0
4,48,80,0
4,45,80,12
4,57,80,0
4,52,80,0
4,43,80,12
4,55,80,0
4,50,80,0
4,50,80,12
4,43,80,0
4,55,80,0
4,50,80,12
4,55,80,0
4,43,80,0
4,43,80,12
4,50,80,0
4,55,80,0
4,55,80,12
4,43,80,0
4,50,80,0
4,50,80,12
4,43,80,0
4,55,80,0
4,43,80,12
4,55,80,0
4,50,80,0
4,43,80,12
4,50,80,0
4,55,80,0
4,50,80,12
4,55,80,0
4,43,80,0
4,55,80,12
4,50,80,0
4,43,80,0
4,50,80,12
4,43,80,0
4,55,80,0
4,50,80,12
4,43,80,0
4,55,80,0
4,43,80,12
4,50,80,0
4,55,80,0
4,50,80,12
4,43,80,0
4,55,80,0
4,50,80,12
4,55,80,0
4,43,80,0
4,52,80,12
4,57,80,0
4,45,80,0
4,52,80,12
4,47,80,0
4,40,80,0
4,40,80,12
4,52,80,0
4,47,80,0
4,40,80,12
4,47,80,0
4,52,80,0
4,40,80,12
4,52,80,0
4,47,80,0
4,40,80,12
4,52,80,0
4,47,80,0
4,47,80,12
4,52,80,0
4,40,80,0
4,47,80,12
4,52,80,0
4,40,80,0
4,47,80,12
4,40,80,0
4,52,80,0
4,48,80,12
4,55,80,0
4,60,80,0
4,48,80,12
4,60,80,0
4,55,80,0
4,60,80,12
4,48,80,0
4,55,80,0
4,60,80,12
4,48,80,0
4,55,80,0
4,60,80,12
4,55,80,0
4,48,80,0
4,60,80,12
4,55,80,0
4,48,80,0
4,55,80,12
4,60,80,0
4,48,80,0
4,45,80,12
4,57,80,0
4,52,80,0
4,43,80,12
4,50,80,0
4,55,80,0
4,55,80,12
4,50,80,0
4,43,80,0
4,55,80,12
4,43,80,0
4,50,80,0
4,43,80,12
4,50,80,0
4,55,80,0
4,50,80,12
4,55,80,0
4,43,80,0
4,55,80,12
4,50,80,0
4,43,80,0
4,43,80,12
4,50,80,0
4,55,80,0
4,55,80,12
4,50,80,0
4,43,80,0
4,45,80,12
4,38,80,0
4,50,80,0
4,45,80,12
4,50,80,0
4,38,80,0
4,45,80,12
4,38,80,0
4,50,80,0
4,50,80,12
4,45,80,0
4,38,80,0
4,38,80,12
4,50,80,0
4,45,80,0
4,50,80,12
4,45,80,0
4,38,80,0
4,45,80,12
4,38,80,0
4,50,80,0
4,50,80,12
4,38,80,0
4,45,80,0
4,40,80,12
4,52,80,0
4,47,80,0
4,52,80,12
4,40,80,0
4,47,80,0
4,47,80,12
4,40,80,0
4,52,80,0
4,40,80,12
4,52,80,0
4,47,80,0
4,40,80,12
4,47,80,0
4,52,80,0
4,47,80,12
4,40,80,0
4,52,80,0
4,52,80,12
4,47,80,0
4,40,80,0
4,52,80,12
4,47,80,0
4,40,80,0
4,48,80,12
4,43,80,0
4,36,80,0
4,36,80,12
4,43,80,0
4,48,80,0
4,36,80,12
4,43,80,0
4,48,80,0
4,43,80,12
4,36,80,0
4,48,80,0
4,43,80,12
4,48,80,0
4,36,80,0
4,36,80,12
4,48,80,0
4,43,80,0
4,43,80,12
4,36,80,0
4,48,80,0
4,43,80,12
4,36,80,0
4,48,80,0
4,43,80,12
4,55,80,0
4,50,80,0
4,43,80,12
4,55,80,0
4,50,80,0
4,50,80,12
4,55,80,0
4,43,80,0
4,50,80,12
4,55,80,0
4,43,80,0
4,55,80,12
4,50,80,0
4,43,80,0
4,55,80,12
4,43,80,0
4,50,80,0
4,43,80,12
4,50,80,0
4,55,80,0
4,43,80,12
4,55,80,0
4,50,80,0
4,45,80,12
4,50,80,0
4,38,80,0
4,38,80,12
4,45,80,0
4,50,80,0
4,45,80,12
4,50,80,0
4,38,80,0
4,45,80,12
4,50,80,0
4,38,80,0
4,45,80,12
4,38,80,0
4,50,80,0
4,38,80,12
4,45,80,0
4,50,80,0
4,50,80,12
4,38,80,0
4,45,80,0
4,45,80,12
4,50,80,0
4,38,80,0
4,40,80,12
4,47,80,0
4,52,80,0
4,40,80,12
4,52,80,0
4,47,80,0
4,52,80,12
4,47,80,0
4,40,80,0
4,47,80,12
4,40,80,0
4,52,80,0
4,52,80,12
4,40,80,0
4,47,80,0
4,52,80,12
4,40,80,0
4,47,80,0
4,40,80,12
4,47,80,0
4,52,80,0
4,52,80,12
4,47,80,0
4,40,80,0
4,43,80,12
4,48,80,0
4,36,80,0
4,36,80,12
4,48,80,0
4,43,80,0
4,36,80,12
4,43,80,0
4,48,80,0
4,36,80,12
4,43,80,0
4,48,80,0
4,48,80,12
4,36,80,0
4,43,80,0
4,43,80,12
4,36,80,0
4,48,80,0
4,36,80,12
4,43,80,0
4,48,80,0
4,36,80,12
4,48,80,0
4,43,80,0
4,43,75,12
4,50,75,0
4,55,75,0
4,50,75,42
4,43,75,0
4,55,75,0
4,50,75,42
4,55,75,0
4,43,75,0
4,55,75,42
4,43,75,0
4,50,75,0
4,55,75,42
4,43,75,0
4,50,75,0
4,50,75,42
4,43,75,0
4,55,75,0
4,55,75,42
4,50,75,0
4,43,75,0
4,50,75,42
4,43,75,0
4,55,75,0
4,55,75,42
4,50,75,0
4,43,75,0
4,55,75,42
4,50,75,0
4,43,75,0
4,43,75,42
4,50,75,0
4,55,75,0
4,43,75,42
4,50,75,0
4,55,75,0
4,43,75,42
4,50,75,0
4,55,75,0
4,50,75,42
4,43,75,0
4,55,75,0
4,55,75,42
4,43,75,0
4,50,75,0
4,45,75,42
4,57,75,0
4,52,75,0
4,47,75,42
4,52,75,0
4,40,75,0
4,40,75,42
4,52,75,0
4,47,75,0
4,40,75,42
4,52,75,0
4,47,75,0
4,47,75,42
4,52,75,0
4,40,75,0
4,40,75,42
4,52,75,0
4,47,75,0
4,40,75,42
4,47,75,0
4,52,75,0
4,40,75,42
4,52,75,0
4,47,75,0
4,52,75,42
4,40,75,0
4,47,75,0
4,60,75,42
4,48,75,0
4,55,75,0
4,48,75,42
4,60,75,0
4,55,75,0
4,60,75,42
4,48,75,0
4,55,75,0
4,60,75,42
4,48,75,0
4,55,75,0
4,48,75,42
4,60,75,0
4,55,75,0
4,60,75,42
4,55,75,0
4,48,75,0
4,48,75,42
4,60,75,0
4,55,75,0
4,54,75,42
4,59,75,0
4,47,75,0
4,55,75,42
4,50,75,0
4,43,75,0
4,43,75,42
4,55,75,0
4,50,75,0
4,55,75,42
4,43,75,0
4,50,75,0
4,43,75,42
4,55,75,0
4,50,75,0
4,43,75,42
4,55,75,0
4,50,75,0
4,55,75,42
4,43,75,0
4,50,75,0
4,55,75,42
4,43,75,0
4,50,75,0
4,55,75,42
4,50,75,0
4,43,75,0
4,50,75,42
4,55,75,0
4,43,75,0
4,43,75,42
4,50,75,0
4,55,75,0
4,50,75,42
4,43,75,0
4,55,75,0
4,50,75,42
4,55,75,0
4,43,75,0
4,50,75,42
4,55,75,0
4,43,75,0
4,55,75,42
4,50,75,0
4,43,75,0
4,50,75,42
4,43,75,0
4,55,75,0
4,45,75,42
4,52,75,0
4,57,75,0
4,40,75,42
4,47,75,0
4,52,75,0
4,40,75,42
4,47,75,0
4,52,75,0
4,40,75,42
4,52,75,0
4,47,75,0
4,52,75,42
4,47,75,0
4,40,75,0
4,47,75,42
4,52,75,0
4,40,75,0
4,40,75,42
4,52,75,0
4,47,75,0
4,52,75,42
4,47,75,0
4,40,75,0
4,47,75,42
4,52,75,0
