track,note,velocity,time
1,64,127,9120
1,64,0,240
1,60,127,0
1,60,0,240
1,59,127,480
1,59,0,240
1,60,127,0
1,60,0,240
1,64,127,480
1,64,0,240
1,60,127,0
1,60,0,240
1,59,127,480
1,59,0,240
1,60,127,0
1,60,0,240
1,64,127,480
1,64,0,240
1,60,127,0
1,60,0,240
1,59,127,480
1,59,0,240
1,60,127,0
1,60,0,240
1,64,127,480
1,64,0,240
1,60,127,0
1,60,0,240
1,59,127,480
1,59,0,240
1,60,127,0
1,60,0,240
1,64,127,480
1,64,0,240
1,65,127,0
1,65,0,240
1,64,127,480
1,64,0,240
1,60,127,0
1,60,0,240
1,64,127,480
1,64,0,240
1,60,127,0
1,60,0,240
1,55,127,240
1,55,0,240
1,59,127,0
1,59,0,240
1,60,127,0
1,60,0,240
1,64,127,480
1,64,0,240
1,60,127,0
1,60,0,240
1,59,127,480
1,59,0,240
1,60,127,0
1,60,0,240
1,64,127,480
1,64,0,240
1,60,127,0
1,60,0,240
1,55,127,240
1,55,0,240
1,59,127,0
1,59,0,240
1,60,127,0
1,60,0,240
1,64,127,480
1,64,0,120
1,64,127,0
1,64,0,120
1,64,127,0
1,64,0,240
1,64,127,0
1,64,0,240
1,64,127,240
1,64,0,120
1,65,127,0
1,65,0,120
1,64,127,0
1,64,0,240
1,62,127,0
1,62,0,240
1,62,127,240
1,62,0,120
1,64,127,0
1,64,0,120
1,62,127,0
1,62,0,240
1,60,127,0
1,60,0,240
1,65,127,240
1,65,0,120
1,65,127,0
1,65,0,120
1,65,127,0
1,65,0,240
1,60,127,0
1,64,127,120
1,64,0,240
1,60,0,0
1,64,127,0
1,64,0,120
1,64,127,0
1,64,0,240
1,64,127,0
1,64,0,120
1,64,127,0
1,64,0,240
1,60,127,0
1,60,0,120
1,60,127,0
1,60,0,240
1,60,127,0
1,60,0,240
1,60,127,0
1,60,0,240
1,62,127,0
1,62,0,120
1,62,127,0
1,62,0,240
1,62,127,0
1,62,0,120
1,62,127,0
1,62,0,240
1,62,127,0
1,62,0,120
1,65,127,0
1,65,0,240
1,60,127,0
1,60,0,120
1,60,127,0
1,60,0,240
1,60,127,0
1,60,0,240
1,60,127,0
1,60,0,240
1,64,127,0
1,64,0,120
1,64,127,0
1,64,0,240
1,64,127,0
1,64,0,120
1,64,127,0
1,64,0,240
1,64,127,0
1,64,0,120
1,64,127,0
1,64,0,240
1,60,127,0
1,60,0,120
1,60,127,0
1,60,0,240
1,60,127,0
1,60,0,240
1,60,127,0
1,60,0,240
1,62,127,0
1,62,0,120
1,62,127,0
1,62,0,240
1,62,127,0
1,62,0,120
1,62,127,0
1,62,0,240
1,62,127,0
1,62,0,120
1,65,127,0
1,65,0,240
1,60,127,0
1,60,0,120
1,60,127,0
1,60,0,240
1,60,127,0
1,60,0,240
1,60,127,0
1,60,0,240
1,64,127,8160
1,64,0,240
1,60,127,0
1,60,0,240
1,59,127,480
1,59,0,240
1,60,127,0
1,60,0,240
1,64,127,480
1,64,0,240
1,60,127,0
1,60,0,240
1,59,127,480
1,59,0,240
1,60,127,0
1,60,0,240
1,60,127,360
1,60,0,120
1,60,127,0
1,60,0,240
1,64,127,0
1,64,0,240
1,65,127,0
1,65,0,240
1,64,127,0
1,64,0,240
1,62,127,0
1,62,0,240
1,64,127,0
1,64,0,120
1,60,127,0
1,60,0,360
1,60,127,600
1,60,0,120
1,59,127,0
1,59,0,120
1,59,127,0
1,59,0,120
1,59,127,0
1,59,0,120
1,59,127,0
1,59,0,120
1,59,127,0
1,59,0,120
1,59,127,0
1,59,0,120
1,59,127,0
1,59,0,120
1,60,127,0
1,60,0,120
1,64,127,480
1,64,0,120
1,64,127,0
1,64,0,120
1,64,127,0
1,64,0,240
1,64,127,0
1,64,0,240
1,64,127,240
1,64,0,120
1,65,127,0
1,65,0,120
1,64,127,0
1,64,0,240
1,62,127,0
1,62,0,240
1,62,127,240
1,62,0,120
1,64,127,0
1,64,0,120
1,62,127,0
1,62,0,240
1,60,127,0
1,60,0,240
1,65,127,240
1,65,0,120
1,65,127,0
1,65,0,120
1,65,127,0
1,65,0,240
1,60,127,0
1,64,127,120
1,64,0,240
1,60,0,0
1,64,127,0
1,64,0,120
1,64,127,0
1,64,0,240
1,64,127,0
1,64,0,120
1,64,127,0
1,64,0,240
1,60,127,0
1,60,0,120
1,60,127,0
1,60,0,240
1,60,127,0
1,60,0,240
1,60,127,0
1,60,0,240
1,62,127,0
1,62,0,120
1,62,127,0
1,62,0,240
1,62,127,0
1,62,0,120
1,62,127,0
1,62,0,240
1,62,127,0
1,62,0,120
1,65,127,0
1,65,0,240
1,60,127,0
1,60,0,120
1,60,127,0
1,60,0,240
1,60,127,0
1,60,0,240
1,60,127,0
1,60,0,240
1,64,127,0
1,64,0,120
1,64,127,0
1,64,0,240
1,64,127,0
1,64,0,120
1,64,127,0
1,64,0,240
1,64,127,0
1,64,0,120
1,64,127,0
1,64,0,240
1,60,127,0
1,60,0,120
1,60,127,0
1,60,0,240
1,60,127,0
1,60,0,240
1,60,127,0
1,60,0,240
1,62,127,0
1,62,0,120
1,62,127,0
1,62,0,240
1,62,127,0
1,62,0,120
1,62,127,0
1,62,0,240
1,62,127,0
1,62,0,120
1,65,127,0
1,65,0,240
1,60,127,0
1,60,0,120
1,60,127,0
1,60,0,240
1,60,127,0
1,60,0,240
1,60,127,0
1,60,0,240
1,64,127,15840
1,64,0,120
1,64,127,0
1,64,0,120
1,64,127,0
1,64,0,240
1,64,127,0
1,64,0,240
1,64,127,240
1,64,0,120
1,65,127,0
1,65,0,120
1,64,127,0
1,64,0,240
1,62,127,0
1,62,0,240
1,62,127,240
1,62,0,120
1,64,127,0
1,64,0,120
1,62,127,0
1,62,0,240
1,60,127,0
1,60,0,240
1,65,127,240
1,65,0,120
1,65,127,0
1,65,0,120
1,65,127,0
1,65,0,240
1,60,127,0
1,60,0,240
1,64,127,240
1,64,0,120
1,64,127,0
1,64,0,120
1,64,127,0
1,64,0,240
1,64,127,0
1,64,0,240
1,64,127,240
1,64,0,120
1,65,127,0
1,65,0,120
1,64,127,0
1,64,0,240
1,62,127,0
1,62,0,240
1,62,127,240
1,62,0,120
1,64,127,0
1,64,0,120
1,62,127,0
1,62,0,240
1,60,127,0
1,60,0,240
1,65,127,240
1,65,0,120
1,65,127,0
1,65,0,120
1,65,127,0
1,65,0,240
1,60,127,0
1,60,0,240
1,64,127,240
1,64,0,120
1,64,127,0
1,64,0,120
1,64,127,0
1,64,0,240
1,64,127,0
1,64,0,240
1,64,127,240
1,64,0,120
1,65,127,0
1,65,0,120
1,64,127,0
1,64,0,240
1,62,127,0
1,62,0,240
1,62,127,240
1,62,0,120
1,64,127,0
1,64,0,120
1,62,127,0
1,62,0,240
1,60,127,0
1,60,0,240
1,65,127,240
1,65,0,120
1,65,127,0
1,65,0,120
1,65,127,0
1,65,0,240
1,60,127,0
1,60,0,240
1,64,127,240
1,64,0,120
1,64,127,0
1,64,0,120
1,64,127,0
1,64,0,240
1,64,127,0
1,64,0,240
1,64,127,240
1,64,0,120
1,65,127,0
1,65,0,120
1,64,127,0
1,64,0,240
1,62,127,0
1,62,0,240
1,62,127,240
1,62,0,120
1,64,127,0
1,64,0,120
1,62,127,0
1,62,0,240
1,60,127,0
1,60,0,240
1,62,127,240
1,62,0,120
1,64,127,0
1,64,0,120
1,62,127,0
1,62,0,240
1,60,127,0
1,60,0,240
1,65,127,240
1,65,0,120
1,65,127,0
1,65,0,120
1,64,127,0
1,64,0,240
1,60,127,0
1,60,0,3720
2,64,127,9124
2,64,0,240
2,60,127,0
2,60,0,240
2,59,127,480
2,59,0,240
2,60,127,0
2,60,0,240
2,64,127,480
2,64,0,240
2,60,127,0
2,60,0,240
2,59,127,480
2,59,0,240
2,60,127,0
2,60,0,240
2,64,127,480
2,64,0,240
2,60,127,0
2,60,0,240
2,59,127,480
2,59,0,240
2,60,127,0
2,60,0,240
2,64,127,480
2,64,0,240
2,60,127,0
2,60,0,240
2,59,127,480
2,59,0,240
2,60,127,0
2,60,0,240
2,64,127,480
2,64,0,240
2,65,127,0
2,65,0,240
2,64,127,480
2,64,0,240
2,60,127,0
2,60,0,240
2,64,127,480
2,64,0,240
2,60,127,0
2,60,0,240
2,55,127,240
2,55,0,240
2,59,127,0
2,59,0,240
2,60,127,0
2,60,0,240
2,64,127,480
2,64,0,240
2,60,127,0
2,60,0,240
2,59,127,480
2,59,0,240
2,60,127,0
2,60,0,240
2,64,127,480
2,64,0,240
2,60,127,0
2,60,0,240
2,55,127,240
2,55,0,240
2,59,127,0
2,59,0,240
2,60,127,0
2,60,0,240
2,64,127,480
2,64,0,120
2,64,127,0
2,64,0,120
2,64,127,0
2,64,0,240
2,64,127,0
2,64,0,240
2,64,127,240
2,64,0,120
2,65,127,0
2,65,0,120
2,64,127,0
2,64,0,240
2,62,127,0
2,62,0,240
2,62,127,240
2,62,0,120
2,64,127,0
2,64,0,120
2,62,127,0
2,62,0,240
2,60,127,0
2,60,0,240
2,65,127,240
2,65,0,120
2,65,127,0
2,65,0,120
2,65,127,0
2,65,0,240
2,60,127,0
2,64,127,120
2,64,0,240
2,60,0,0
2,64,127,0
2,64,0,120
2,64,127,0
2,64,0,240
2,64,127,0
2,64,0,120
2,64,127,0
2,64,0,240
2,60,127,0
2,60,0,120
2,60,127,0
2,60,0,240
2,60,127,0
2,60,0,240
2,60,127,0
2,60,0,240
2,62,127,0
2,62,0,120
2,62,127,0
2,62,0,240
2,62,127,0
2,62,0,120
2,62,127,0
2,62,0,240
2,62,127,0
2,62,0,120
2,65,127,0
2,65,0,240
2,60,127,0
2,60,0,120
2,60,127,0
2,60,0,240
2,60,127,0
2,60,0,240
2,60,127,0
2,60,0,240
2,64,127,0
2,64,0,120
2,64,127,0
2,64,0,240
2,64,127,0
2,64,0,120
2,64,127,0
2,64,0,240
2,64,127,0
2,64,0,120
2,64,127,0
2,64,0,240
2,60,127,0
2,60,0,120
2,60,127,0
2,60,0,240
2,60,127,0
2,60,0,240
2,60,127,0
2,60,0,240
2,62,127,0
2,62,0,120
2,62,127,0
2,62,0,240
2,62,127,0
2,62,0,120
2,62,127,0
2,62,0,240
2,62,127,0
2,62,0,120
2,65,127,0
2,65,0,240
2,60,127,0
2,60,0,120
2,60,127,0
2,60,0,240
2,60,127,0
2,60,0,240
2,60,127,0
2,60,0,240
2,64,127,8160
2,64,0,240
2,60,127,0
2,60,0,240
2,59,127,480
2,59,0,240
2,60,127,0
2,60,0,240
2,64,127,480
2,64,0,240
2,60,127,0
2,60,0,240
2,59,127,480
2,59,0,240
2,60,127,0
2,60,0,240
2,60,127,360
2,60,0,120
2,60,127,0
2,60,0,240
2,64,127,0
2,64,0,240
2,65,127,0
2,65,0,240
2,64,127,0
2,64,0,240
2,62,127,0
2,62,0,240
2,64,127,0
2,64,0,120
2,60,127,0
2,60,0,360
2,60,127,600
2,60,0,120
2,59,127,0
2,59,0,120
2,59,127,0
2,59,0,120
2,59,127,0
2,59,0,120
2,59,127,0
2,59,0,120
2,59,127,0
2,59,0,120
2,59,127,0
2,59,0,120
2,59,127,0
2,59,0,120
2,60,127,0
2,60,0,120
2,64,127,480
2,64,0,120
2,64,127,0
2,64,0,120
2,64,127,0
2,64,0,240
2,64,127,0
2,64,0,240
2,64,127,240
2,64,0,120
2,65,127,0
2,65,0,120
2,64,127,0
2,64,0,240
2,62,127,0
2,62,0,240
2,62,127,240
2,62,0,120
2,64,127,0
2,64,0,120
2,62,127,0
2,62,0,240
2,60,127,0
2,60,0,240
2,65,127,240
2,65,0,120
2,65,127,0
2,65,0,120
2,65,127,0
2,65,0,240
2,60,127,0
2,64,127,120
2,64,0,240
2,60,0,0
2,64,127,0
2,64,0,120
2,64,127,0
2,64,0,240
2,64,127,0
2,64,0,120
2,64,127,0
2,64,0,240
2,60,127,0
2,60,0,120
2,60,127,0
2,60,0,240
2,60,127,0
2,60,0,240
2,60,127,0
2,60,0,240
2,62,127,0
2,62,0,120
2,62,127,0
2,62,0,240
2,62,127,0
2,62,0,120
2,62,127,0
2,62,0,240
2,62,127,0
2,62,0,120
2,65,127,0
2,65,0,240
2,60,127,0
2,60,0,120
2,60,127,0
2,60,0,240
2,60,127,0
2,60,0,240
2,60,127,0
2,60,0,240
2,64,127,0
2,64,0,120
2,64,127,0
2,64,0,240
2,64,127,0
2,64,0,120
2,64,127,0
2,64,0,240
2,64,127,0
2,64,0,120
2,64,127,0
2,64,0,240
2,60,127,0
2,60,0,120
2,60,127,0
2,60,0,240
2,60,127,0
2,60,0,240
2,60,127,0
2,60,0,240
2,62,127,0
2,62,0,120
2,62,127,0
2,62,0,240
2,62,127,0
2,62,0,120
2,62,127,0
2,62,0,240
2,62,127,0
2,62,0,120
2,65,127,0
2,65,0,240
2,60,127,0
2,60,0,120
2,60,127,0
2,60,0,240
2,60,127,0
2,60,0,240
2,60,127,0
2,60,0,240
2,64,127,15840
2,64,0,120
2,64,127,0
2,64,0,120
2,64,127,0
2,64,0,240
2,64,127,0
2,64,0,240
2,64,127,240
2,64,0,120
2,65,127,0
2,65,0,120
2,64,127,0
2,64,0,240
2,62,127,0
2,62,0,240
2,62,127,240
2,62,0,120
2,64,127,0
2,64,0,120
2,62,127,0
2,62,0,240
2,60,127,0
2,60,0,240
2,65,127,240
2,65,0,120
2,65,127,0
2,65,0,120
2,65,127,0
2,65,0,240
2,60,127,0
2,60,0,240
2,64,127,240
2,64,0,120
2,64,127,0
2,64,0,120
2,64,127,0
2,64,0,240
2,64,127,0
2,64,0,240
2,64,127,240
2,64,0,120
2,65,127,0
2,65,0,120
2,64,127,0
2,64,0,240
2,62,127,0
2,62,0,240
2,62,127,240
2,62,0,120
2,64,127,0
2,64,0,120
2,62,127,0
2,62,0,240
2,60,127,0
2,60,0,240
2,65,127,240
2,65,0,120
2,65,127,0
2,65,0,120
2,65,127,0
2,65,0,240
2,60,127,0
2,60,0,240
2,64,127,240
2,64,0,120
2,64,127,0
2,64,0,120
2,64,127,0
2,64,0,240
2,64,127,0
2,64,0,240
2,64,127,240
2,64,0,120
2,65,127,0
2,65,0,120
2,64,127,0
2,64,0,240
2,62,127,0
2,62,0,240
2,62,127,240
2,62,0,120
2,64,127,0
2,64,0,120
2,62,127,0
2,62,0,240
2,60,127,0
2,60,0,240
2,65,127,240
2,65,0,120
2,65,127,0
2,65,0,120
2,65,127,0
2,65,0,240
2,60,127,0
2,60,0,240
2,64,127,240
2,64,0,120
2,64,127,0
2,64,0,120
2,64,127,0
2,64,0,240
2,64,127,0
2,64,0,240
2,64,127,240
2,64,0,120
2,65,127,0
2,65,0,120
2,64,127,0
2,64,0,240
2,62,127,0
2,62,0,240
2,62,127,240
2,62,0,120
2,64,127,0
2,64,0,120
2,62,127,0
2,62,0,240
2,60,127,0
2,60,0,240
2,62,127,240
2,62,0,120
2,64,127,0
2,64,0,120
2,62,127,0
2,62,0,240
2,60,127,0
2,60,0,240
2,65,127,240
2,65,0,120
2,65,127,0
2,65,0,120
2,64,127,0
2,64,0,240
2,60,127,0
2,60,0,3720
3,65,127,18000
3,65,0,240
3,65,127,720
3,65,0,240
3,59,127,240
3,59,0,240
3,62,127,0
3,62,0,240
3,55,127,0
3,55,0,240
3,60,127,7680
3,60,0,360
3,60,127,0
3,60,0,120
3,60,127,0
3,60,0,240
3,60,127,0
3,60,0,120
3,60,127,0
3,60,0,240
3,55,127,0
3,55,0,120
3,55,127,0
3,55,0,240
3,55,127,0
3,55,0,240
3,55,127,0
3,55,0,240
3,59,127,0
3,59,0,120
3,59,127,0
3,59,0,240
3,59,127,0
3,59,0,120
3,59,127,0
3,59,0,240
3,59,127,0
3,59,0,120
3,60,127,0
3,60,0,240
3,57,127,0
3,57,0,120
3,57,127,0
3,57,0,240
3,57,127,0
3,57,0,240
3,55,127,0
3,55,0,240
3,60,127,0
3,60,0,360
3,60,127,0
3,60,0,120
