track,note,velocity,time
0.0,54.0,127.0,0.0
0.0,66.0,127.0,240.0
0.0,54.0,127.0,0.0
0.0,70.0,127.0,0.0
0.0,58.0,127.0,0.0
0.0,66.0,127.0,240.0
0.0,54.0,127.0,0.0
0.0,49.0,127.0,0.0
0.0,66.0,127.0,0.0
0.0,54.0,127.0,0.0
0.0,70.0,127.0,0.0
0.0,58.0,127.0,0.0
0.0,66.0,127.0,240.0
0.0,54.0,127.0,0.0
0.0,51.0,127.0,0.0
0.0,66.0,127.0,0.0
0.0,54.0,127.0,0.0
0.0,70.0,127.0,0.0
0.0,58.0,127.0,0.0
0.0,66.0,127.0,240.0
0.0,54.0,127.0,0.0
0.0,47.0,127.0,0.0
0.0,66.0,127.0,0.0
0.0,54.0,127.0,0.0
0.0,70.0,127.0,0.0
0.0,58.0,127.0,0.0
0.0,66.0,127.0,240.0
0.0,54.0,127.0,0.0
0.0,54.0,127.0,0.0
0.0,66.0,127.0,0.0
0.0,54.0,127.0,0.0
0.0,70.0,127.0,0.0
0.0,58.0,127.0,0.0
0.0,66.0,127.0,240.0
0.0,54.0,127.0,0.0
0.0,49.0,127.0,0.0
0.0,66.0,127.0,0.0
0.0,54.0,127.0,0.0
0.0,70.0,127.0,0.0
0.0,58.0,127.0,0.0
0.0,66.0,127.0,240.0
0.0,54.0,127.0,0.0
0.0,51.0,127.0,0.0
0.0,66.0,127.0,0.0
0.0,54.0,127.0,0.0
0.0,70.0,127.0,0.0
0.0,58.0,127.0,0.0
0.0,66.0,127.0,240.0
0.0,54.0,127.0,0.0
0.0,51.0,77.0,0.0
0.0,47.0,127.0,0.0
0.0,35.0,127.0,0.0
0.0,51.0,77.0,0.0
0.0,66.0,127.0,0.0
0.0,54.0,127.0,0.0
0.0,35.0,127.0,0.0
0.0,70.0,127.0,0.0
0.0,58.0,127.0,0.0
0.0,35.0,127.0,0.0
0.0,66.0,127.0,0.0
0.0,54.0,127.0,0.0
0.0,35.0,127.0,0.0
0.0,51.0,77.0,0.0
0.0,54.0,127.0,0.0
0.0,30.0,127.0,0.0
0.0,51.0,77.0,0.0
0.0,66.0,127.0,0.0
0.0,54.0,127.0,0.0
0.0,30.0,127.0,0.0
0.0,51.0,77.0,0.0
0.0,70.0,127.0,0.0
0.0,58.0,127.0,0.0
0.0,30.0,127.0,0.0
0.0,51.0,77.0,0.0
0.0,66.0,127.0,0.0
0.0,54.0,127.0,0.0
0.0,30.0,127.0,0.0
0.0,51.0,77.0,0.0
0.0,51.0,77.0,3.0
0.0,49.0,127.0,0.0
0.0,37.0,127.0,0.0
0.0,51.0,77.0,0.0
0.0,66.0,127.0,0.0
0.0,54.0,127.0,0.0
0.0,37.0,127.0,0.0
0.0,51.0,77.0,0.0
0.0,70.0,127.0,0.0
0.0,58.0,127.0,0.0
0.0,37.0,127.0,0.0
0.0,51.0,77.0,0.0
0.0,66.0,127.0,0.0
0.0,54.0,127.0,0.0
0.0,37.0,127.0,0.0
0.0,51.0,77.0,0.0
0.0,51.0,127.0,0.0
0.0,39.0,127.0,0.0
0.0,51.0,77.0,0.0
0.0,66.0,127.0,0.0
0.0,54.0,127.0,0.0
0.0,39.0,127.0,0.0
0.0,51.0,77.0,0.0
0.0,70.0,127.0,0.0
0.0,58.0,127.0,0.0
0.0,39.0,127.0,0.0
0.0,51.0,77.0,0.0
0.0,66.0,127.0,0.0
0.0,54.0,127.0,0.0
0.0,39.0,127.0,0.0
0.0,51.0,77.0,0.0
0.0,47.0,127.0,0.0
0.0,35.0,127.0,0.0
0.0,51.0,77.0,0.0
0.0,66.0,127.0,0.0
0.0,54.0,127.0,0.0
0.0,35.0,127.0,0.0
0.0,51.0,77.0,0.0
0.0,70.0,127.0,0.0
0.0,58.0,127.0,0.0
0.0,35.0,127.0,0.0
0.0,51.0,77.0,0.0
0.0,66.0,127.0,0.0
0.0,54.0,127.0,0.0
0.0,35.0,127.0,0.0
0.0,51.0,77.0,0.0
0.0,54.0,127.0,0.0
0.0,30.0,127.0,0.0
0.0,51.0,77.0,0.0
0.0,66.0,127.0,0.0
0.0,54.0,127.0,0.0
0.0,30.0,127.0,0.0
0.0,51.0,77.0,0.0
0.0,70.0,127.0,0.0
0.0,58.0,127.0,0.0
0.0,30.0,127.0,0.0
0.0,51.0,77.0,0.0
0.0,66.0,127.0,0.0
0.0,54.0,127.0,0.0
0.0,30.0,127.0,0.0
0.0,51.0,77.0,0.0
0.0,49.0,127.0,0.0
0.0,37.0,127.0,0.0
0.0,51.0,77.0,0.0
0.0,66.0,127.0,0.0
0.0,54.0,127.0,0.0
0.0,37.0,127.0,0.0
0.0,51.0,77.0,0.0
0.0,70.0,127.0,0.0
0.0,58.0,127.0,0.0
0.0,37.0,127.0,0.0
0.0,51.0,77.0,0.0
0.0,66.0,127.0,0.0
0.0,54.0,127.0,0.0
0.0,37.0,127.0,0.0
0.0,51.0,77.0,0.0
0.0,51.0,127.0,0.0
0.0,39.0,127.0,0.0
0.0,51.0,77.0,0.0
0.0,66.0,127.0,0.0
0.0,54.0,127.0,0.0
0.0,39.0,127.0,0.0
0.0,51.0,77.0,0.0
0.0,70.0,127.0,0.0
0.0,58.0,127.0,0.0
0.0,39.0,127.0,0.0
0.0,51.0,77.0,0.0
0.0,66.0,127.0,0.0
0.0,54.0,127.0,0.0
0.0,39.0,127.0,0.0
0.0,51.0,77.0,0.0
0.0,47.0,127.0,0.0
0.0,35.0,127.0,0.0
0.0,51.0,77.0,0.0
0.0,66.0,127.0,0.0
0.0,54.0,127.0,0.0
0.0,35.0,127.0,0.0
0.0,54.0,127.0,0.0
0.0,51.0,77.0,0.0
0.0,70.0,127.0,0.0
0.0,58.0,127.0,0.0
0.0,35.0,127.0,0.0
0.0,58.0,127.0,0.0
0.0,51.0,77.0,0.0
0.0,66.0,127.0,0.0
0.0,54.0,127.0,0.0
0.0,35.0,127.0,0.0
0.0,59.0,127.0,0.0
0.0,51.0,77.0,0.0
0.0,54.0,127.0,0.0
0.0,30.0,127.0,0.0
0.0,58.0,127.0,0.0
0.0,51.0,77.0,0.0
0.0,66.0,127.0,0.0
0.0,54.0,127.0,0.0
0.0,30.0,127.0,0.0
0.0,51.0,77.0,0.0
0.0,70.0,127.0,0.0
0.0,58.0,127.0,0.0
0.0,30.0,127.0,0.0
0.0,51.0,77.0,0.0
0.0,66.0,127.0,0.0
0.0,54.0,127.0,0.0
0.0,30.0,127.0,0.0
0.0,51.0,77.0,0.0
0.0,49.0,127.0,0.0
0.0,37.0,127.0,0.0
0.0,51.0,77.0,0.0
0.0,66.0,127.0,0.0
0.0,54.0,127.0,0.0
0.0,37.0,127.0,0.0
0.0,56.0,127.0,0.0
0.0,51.0,77.0,0.0
0.0,70.0,127.0,0.0
0.0,58.0,127.0,0.0
0.0,37.0,127.0,0.0
0.0,56.0,127.0,0.0
0.0,51.0,77.0,0.0
0.0,66.0,127.0,0.0
0.0,54.0,127.0,0.0
0.0,37.0,127.0,0.0
0.0,56.0,127.0,0.0
0.0,51.0,77.0,0.0
0.0,51.0,127.0,0.0
0.0,39.0,127.0,0.0
0.0,56.0,127.0,0.0
0.0,51.0,77.0,0.0
0.0,66.0,127.0,0.0
0.0,54.0,127.0,0.0
0.0,39.0,127.0,0.0
0.0,58.0,127.0,0.0
0.0,51.0,77.0,0.0
0.0,70.0,127.0,0.0
0.0,58.0,127.0,0.0
0.0,39.0,127.0,0.0
0.0,58.0,127.0,0.0
0.0,51.0,77.0,0.0
0.0,66.0,127.0,0.0
0.0,54.0,127.0,0.0
0.0,39.0,127.0,0.0
0.0,51.0,77.0,0.0
0.0,47.0,127.0,0.0
0.0,35.0,127.0,0.0
0.0,51.0,77.0,0.0
0.0,66.0,127.0,0.0
0.0,54.0,127.0,0.0
0.0,35.0,127.0,0.0
0.0,54.0,127.0,0.0
0.0,51.0,77.0,0.0
0.0,70.0,127.0,0.0
0.0,58.0,127.0,0.0
0.0,35.0,127.0,0.0
0.0,58.0,127.0,0.0
0.0,51.0,77.0,0.0
0.0,66.0,127.0,0.0
0.0,54.0,127.0,0.0
0.0,35.0,127.0,0.0
0.0,59.0,127.0,0.0
0.0,51.0,77.0,0.0
0.0,54.0,127.0,0.0
0.0,30.0,127.0,0.0
0.0,58.0,127.0,0.0
0.0,51.0,77.0,0.0
0.0,66.0,127.0,0.0
0.0,54.0,127.0,0.0
0.0,30.0,127.0,0.0
0.0,51.0,77.0,0.0
0.0,70.0,127.0,0.0
0.0,58.0,127.0,0.0
0.0,30.0,127.0,0.0
0.0,51.0,77.0,0.0
0.0,66.0,127.0,0.0
0.0,54.0,127.0,0.0
0.0,30.0,127.0,0.0
0.0,51.0,77.0,0.0
0.0,49.0,127.0,0.0
0.0,37.0,127.0,0.0
0.0,51.0,77.0,0.0
0.0,66.0,127.0,0.0
0.0,54.0,127.0,0.0
0.0,37.0,127.0,0.0
0.0,56.0,127.0,0.0
0.0,51.0,77.0,0.0
0.0,70.0,127.0,0.0
0.0,58.0,127.0,0.0
0.0,37.0,127.0,0.0
0.0,56.0,127.0,0.0
0.0,51.0,77.0,0.0
0.0,66.0,127.0,0.0
0.0,54.0,127.0,0.0
0.0,37.0,127.0,0.0
0.0,58.0,127.0,0.0
0.0,51.0,77.0,0.0
0.0,51.0,127.0,0.0
0.0,39.0,127.0,0.0
0.0,56.0,127.0,0.0
0.0,51.0,77.0,0.0
0.0,66.0,127.0,0.0
0.0,54.0,127.0,0.0
0.0,39.0,127.0,0.0
0.0,54.0,127.0,0.0
0.0,51.0,77.0,0.0
0.0,70.0,127.0,0.0
0.0,58.0,127.0,0.0
0.0,39.0,127.0,0.0
0.0,54.0,127.0,0.0
0.0,51.0,77.0,0.0
0.0,66.0,127.0,0.0
0.0,54.0,127.0,0.0
0.0,39.0,127.0,0.0
0.0,46.0,127.0,0.0
0.0,47.0,127.0,0.0
0.0,35.0,127.0,0.0
0.0,36.0,127.0,0.0
0.0,66.0,127.0,0.0
0.0,54.0,127.0,0.0
0.0,35.0,127.0,0.0
0.0,54.0,127.0,0.0
0.0,36.0,127.0,0.0
0.0,70.0,127.0,0.0
0.0,58.0,127.0,0.0
0.0,35.0,127.0,0.0
0.0,54.0,127.0,0.0
0.0,40.0,127.0,0.0
0.0,42.0,127.0,0.0
0.0,66.0,127.0,0.0
0.0,54.0,127.0,0.0
0.0,35.0,127.0,0.0
0.0,54.0,127.0,0.0
0.0,42.0,57.0,0.0
0.0,54.0,127.0,0.0
0.0,30.0,127.0,0.0
0.0,54.0,127.0,0.0
0.0,36.0,127.0,0.0
0.0,42.0,127.0,0.0
0.0,66.0,127.0,0.0
0.0,54.0,127.0,0.0
0.0,30.0,127.0,0.0
0.0,54.0,127.0,0.0
0.0,36.0,127.0,0.0
0.0,42.0,57.0,0.0
0.0,70.0,127.0,0.0
0.0,58.0,127.0,0.0
0.0,30.0,127.0,0.0
0.0,54.0,127.0,0.0
0.0,40.0,127.0,0.0
0.0,42.0,127.0,0.0
0.0,66.0,127.0,0.0
0.0,54.0,127.0,0.0
0.0,30.0,127.0,0.0
0.0,42.0,57.0,0.0
0.0,49.0,127.0,0.0
0.0,37.0,127.0,0.0
0.0,36.0,127.0,0.0
0.0,42.0,127.0,0.0
0.0,66.0,127.0,0.0
0.0,54.0,127.0,0.0
0.0,37.0,127.0,0.0
0.0,51.0,127.0,0.0
0.0,36.0,127.0,0.0
0.0,42.0,57.0,0.0
0.0,70.0,127.0,0.0
0.0,58.0,127.0,0.0
0.0,37.0,127.0,0.0
0.0,54.0,127.0,0.0
0.0,40.0,127.0,0.0
0.0,42.0,127.0,0.0
0.0,66.0,127.0,0.0
0.0,54.0,127.0,0.0
0.0,37.0,127.0,0.0
0.0,54.0,127.0,0.0
0.0,42.0,57.0,0.0
0.0,51.0,127.0,0.0
0.0,39.0,127.0,0.0
0.0,54.0,127.0,0.0
0.0,42.0,127.0,0.0
0.0,36.0,127.0,0.0
0.0,66.0,127.0,0.0
0.0,54.0,127.0,0.0
0.0,39.0,127.0,0.0
0.0,54.0,127.0,0.0
0.0,36.0,127.0,0.0
0.0,42.0,57.0,0.0
0.0,70.0,127.0,0.0
0.0,58.0,127.0,0.0
0.0,39.0,127.0,0.0
0.0,54.0,127.0,0.0
0.0,40.0,127.0,0.0
0.0,42.0,127.0,0.0
0.0,66.0,127.0,0.0
0.0,54.0,127.0,0.0
0.0,39.0,127.0,0.0
0.0,42.0,57.0,0.0
0.0,47.0,127.0,0.0
0.0,35.0,127.0,0.0
0.0,36.0,127.0,0.0
0.0,42.0,127.0,0.0
0.0,66.0,127.0,0.0
0.0,54.0,127.0,0.0
0.0,35.0,127.0,0.0
0.0,54.0,127.0,0.0
0.0,36.0,127.0,0.0
0.0,42.0,57.0,0.0
0.0,70.0,127.0,0.0
0.0,58.0,127.0,0.0
0.0,35.0,127.0,0.0
0.0,59.0,127.0,0.0
0.0,40.0,127.0,0.0
0.0,42.0,127.0,0.0
0.0,66.0,127.0,0.0
0.0,54.0,127.0,0.0
0.0,35.0,127.0,0.0
0.0,59.0,127.0,0.0
0.0,42.0,57.0,0.0
0.0,54.0,127.0,0.0
0.0,30.0,127.0,0.0
0.0,58.0,127.0,0.0
0.0,42.0,127.0,0.0
0.0,36.0,127.0,0.0
0.0,66.0,127.0,0.0
0.0,54.0,127.0,0.0
0.0,30.0,127.0,0.0
0.0,56.0,127.0,0.0
0.0,36.0,127.0,0.0
0.0,42.0,57.0,0.0
0.0,70.0,127.0,0.0
0.0,58.0,127.0,0.0
0.0,30.0,127.0,0.0
0.0,54.0,127.0,0.0
0.0,40.0,127.0,0.0
0.0,42.0,127.0,0.0
0.0,66.0,127.0,0.0
0.0,54.0,127.0,0.0
0.0,30.0,127.0,0.0
0.0,58.0,127.0,0.0
0.0,42.0,57.0,0.0
0.0,49.0,127.0,0.0
0.0,37.0,127.0,0.0
0.0,56.0,127.0,0.0
0.0,36.0,127.0,0.0
0.0,46.0,127.0,0.0
0.0,49.0,127.0,0.0
0.0,66.0,127.0,0.0
0.0,54.0,127.0,0.0
0.0,37.0,127.0,0.0
0.0,70.0,127.0,0.0
0.0,58.0,127.0,0.0
0.0,37.0,127.0,0.0
0.0,36.0,87.0,0.0
0.0,66.0,127.0,0.0
0.0,54.0,127.0,0.0
0.0,37.0,127.0,0.0
0.0,40.0,127.0,0.0
0.0,46.0,127.0,0.0
0.0,55.0,127.0,0.0
0.0,49.0,127.0,0.0
0.0,37.0,127.0,0.0
0.0,66.0,127.0,0.0
0.0,54.0,127.0,0.0
0.0,37.0,127.0,0.0
0.0,36.0,87.0,0.0
0.0,70.0,127.0,0.0
0.0,58.0,127.0,0.0
0.0,37.0,127.0,0.0
0.0,36.0,127.0,0.0
0.0,46.0,127.0,0.0
0.0,49.0,127.0,0.0
0.0,66.0,127.0,0.0
0.0,54.0,127.0,0.0
0.0,37.0,127.0,0.0
0.0,56.0,127.0,0.0
0.0,47.0,127.0,0.0
0.0,35.0,127.0,0.0
0.0,58.0,127.0,0.0
0.0,36.0,87.0,0.0
0.0,66.0,127.0,0.0
0.0,54.0,127.0,0.0
0.0,35.0,127.0,0.0
0.0,56.0,127.0,0.0
0.0,40.0,127.0,0.0
0.0,46.0,127.0,0.0
0.0,55.0,127.0,0.0
0.0,70.0,127.0,0.0
0.0,58.0,127.0,0.0
0.0,35.0,127.0,0.0
0.0,58.0,127.0,0.0
0.0,66.0,127.0,0.0
0.0,54.0,127.0,0.0
0.0,35.0,127.0,0.0
0.0,56.0,127.0,0.0
0.0,36.0,87.0,0.0
0.0,47.0,127.0,0.0
0.0,35.0,127.0,0.0
0.0,58.0,127.0,0.0
0.0,36.0,127.0,0.0
0.0,46.0,127.0,0.0
0.0,66.0,127.0,0.0
0.0,54.0,127.0,0.0
0.0,35.0,127.0,0.0
0.0,56.0,127.0,0.0
0.0,40.0,127.0,0.0
0.0,40.0,127.0,3.0
0.0,70.0,127.0,0.0
0.0,58.0,127.0,0.0
0.0,35.0,127.0,0.0
0.0,54.0,127.0,0.0
0.0,40.0,127.0,0.0
0.0,66.0,127.0,0.0
0.0,54.0,127.0,0.0
0.0,35.0,127.0,0.0
0.0,56.0,127.0,0.0
0.0,38.0,127.0,0.0
0.0,54.0,127.0,0.0
0.0,42.0,127.0,0.0
0.0,49.0,127.0,0.0
0.0,49.0,127.0,0.0
0.0,42.0,127.0,0.0
0.0,54.0,127.0,0.0
0.0,30.0,127.0,0.0
0.0,58.0,127.0,0.0
0.0,36.0,127.0,0.0
0.0,49.0,127.0,0.0
0.0,46.0,127.0,0.0
0.0,30.0,127.0,0.0
0.0,30.0,127.0,0.0
0.0,40.0,127.0,0.0
0.0,46.0,97.0,0.0
0.0,61.0,127.0,0.0
0.0,49.0,127.0,0.0
0.0,56.0,127.0,0.0
0.0,61.0,127.0,0.0
0.0,49.0,127.0,0.0
0.0,56.0,127.0,0.0
0.0,30.0,127.0,0.0
0.0,56.0,127.0,0.0
0.0,61.0,87.0,0.0
0.0,36.0,127.0,0.0
0.0,61.0,127.0,0.0
0.0,49.0,127.0,0.0
0.0,56.0,127.0,0.0
0.0,61.0,127.0,0.0
0.0,56.0,127.0,0.0
0.0,49.0,127.0,0.0
0.0,37.0,127.0,0.0
0.0,56.0,127.0,0.0
0.0,61.0,87.0,0.0
0.0,36.0,127.0,0.0
0.0,46.0,127.0,0.0
0.0,61.0,127.0,0.0
0.0,56.0,127.0,0.0
0.0,49.0,127.0,0.0
0.0,37.0,127.0,0.0
0.0,61.0,127.0,0.0
0.0,56.0,127.0,0.0
0.0,49.0,127.0,0.0
0.0,37.0,127.0,0.0
0.0,40.0,127.0,0.0
0.0,46.0,97.0,0.0
0.0,63.0,127.0,0.0
0.0,58.0,127.0,0.0
0.0,51.0,127.0,0.0
0.0,63.0,127.0,0.0
0.0,58.0,127.0,0.0
0.0,51.0,127.0,0.0
0.0,37.0,127.0,0.0
0.0,36.0,127.0,0.0
0.0,58.0,127.0,0.0
0.0,63.0,127.0,0.0
0.0,51.0,127.0,0.0
0.0,51.0,127.0,0.0
0.0,58.0,127.0,0.0
0.0,63.0,127.0,0.0
0.0,39.0,127.0,0.0
0.0,36.0,127.0,0.0
0.0,46.0,127.0,0.0
0.0,51.0,127.0,0.0
0.0,58.0,127.0,0.0
0.0,63.0,127.0,0.0
0.0,39.0,127.0,0.0
0.0,54.0,127.0,0.0
0.0,51.0,127.0,0.0
0.0,58.0,127.0,0.0
0.0,63.0,127.0,0.0
0.0,39.0,127.0,0.0
0.0,54.0,127.0,0.0
0.0,40.0,127.0,0.0
0.0,46.0,97.0,0.0
0.0,47.0,127.0,0.0
0.0,59.0,127.0,0.0
0.0,54.0,127.0,0.0
0.0,59.0,127.0,0.0
0.0,54.0,127.0,0.0
0.0,47.0,127.0,0.0
0.0,39.0,127.0,0.0
0.0,54.0,127.0,0.0
0.0,36.0,127.0,0.0
0.0,59.0,127.0,0.0
0.0,54.0,127.0,0.0
0.0,47.0,127.0,0.0
0.0,47.0,127.0,0.0
0.0,54.0,127.0,0.0
0.0,59.0,127.0,0.0
0.0,35.0,127.0,0.0
0.0,58.0,127.0,0.0
0.0,36.0,127.0,0.0
0.0,46.0,127.0,0.0
0.0,47.0,127.0,0.0
0.0,54.0,127.0,0.0
0.0,59.0,127.0,0.0
0.0,35.0,127.0,0.0
0.0,56.0,127.0,0.0
0.0,40.0,127.0,0.0
0.0,38.0,127.0,0.0
0.0,47.0,127.0,0.0
0.0,54.0,127.0,0.0
0.0,59.0,127.0,0.0
0.0,35.0,127.0,0.0
0.0,54.0,127.0,0.0
0.0,36.0,127.0,0.0
0.0,46.0,97.0,0.0
0.0,47.0,127.0,0.0
0.0,54.0,127.0,0.0
0.0,59.0,127.0,0.0
0.0,35.0,127.0,0.0
0.0,56.0,127.0,0.0
0.0,40.0,127.0,0.0
0.0,38.0,127.0,0.0
0.0,54.0,127.0,0.0
0.0,42.0,127.0,0.0
0.0,49.0,127.0,0.0
0.0,54.0,127.0,0.0
0.0,49.0,127.0,0.0
0.0,42.0,127.0,0.0
0.0,30.0,127.0,0.0
0.0,58.0,127.0,0.0
0.0,63.0,87.0,0.0
0.0,46.0,127.0,0.0
0.0,49.0,127.0,0.0
0.0,36.0,127.0,0.0
0.0,42.0,127.0,0.0
0.0,49.0,127.0,0.0
0.0,54.0,127.0,0.0
0.0,30.0,127.0,0.0
0.0,42.0,127.0,0.0
0.0,49.0,127.0,0.0
0.0,54.0,127.0,0.0
0.0,30.0,127.0,0.0
0.0,40.0,127.0,0.0
0.0,46.0,97.0,0.0
0.0,61.0,127.0,0.0
0.0,49.0,127.0,0.0
0.0,56.0,127.0,0.0
0.0,61.0,127.0,0.0
0.0,49.0,127.0,0.0
0.0,56.0,127.0,0.0
0.0,30.0,127.0,0.0
0.0,56.0,127.0,0.0
0.0,61.0,87.0,0.0
0.0,36.0,127.0,0.0
0.0,61.0,127.0,0.0
0.0,49.0,127.0,0.0
0.0,56.0,127.0,0.0
0.0,61.0,127.0,0.0
0.0,56.0,127.0,0.0
0.0,49.0,127.0,0.0
0.0,37.0,127.0,0.0
0.0,56.0,127.0,0.0
0.0,61.0,87.0,0.0
0.0,36.0,127.0,0.0
0.0,46.0,127.0,0.0
0.0,61.0,127.0,0.0
0.0,56.0,127.0,0.0
0.0,49.0,127.0,0.0
0.0,37.0,127.0,0.0
0.0,61.0,127.0,0.0
0.0,56.0,127.0,0.0
0.0,49.0,127.0,0.0
0.0,37.0,127.0,0.0
0.0,40.0,127.0,0.0
0.0,46.0,97.0,0.0
0.0,63.0,127.0,0.0
0.0,58.0,127.0,0.0
0.0,51.0,127.0,0.0
0.0,63.0,127.0,0.0
0.0,58.0,127.0,0.0
0.0,51.0,127.0,0.0
0.0,37.0,127.0,0.0
0.0,36.0,127.0,0.0
0.0,58.0,127.0,0.0
0.0,63.0,127.0,0.0
0.0,51.0,127.0,0.0
0.0,51.0,127.0,0.0
0.0,58.0,127.0,0.0
0.0,63.0,127.0,0.0
0.0,39.0,127.0,0.0
0.0,46.0,127.0,0.0
0.0,36.0,127.0,0.0
0.0,51.0,127.0,0.0
0.0,58.0,127.0,0.0
0.0,63.0,127.0,0.0
0.0,39.0,127.0,0.0
0.0,54.0,127.0,0.0
0.0,40.0,127.0,0.0
0.0,40.0,127.0,3.0
0.0,51.0,127.0,0.0
0.0,58.0,127.0,0.0
0.0,63.0,127.0,0.0
0.0,39.0,127.0,0.0
0.0,54.0,127.0,0.0
0.0,46.0,97.0,0.0
0.0,40.0,127.0,0.0
0.0,47.0,127.0,0.0
0.0,59.0,127.0,0.0
0.0,54.0,127.0,0.0
0.0,59.0,127.0,0.0
0.0,54.0,127.0,0.0
0.0,47.0,127.0,0.0
0.0,39.0,127.0,0.0
0.0,56.0,127.0,0.0
0.0,36.0,127.0,0.0
0.0,59.0,127.0,0.0
0.0,54.0,127.0,0.0
0.0,47.0,127.0,0.0
0.0,47.0,127.0,0.0
0.0,54.0,127.0,0.0
0.0,59.0,127.0,0.0
0.0,35.0,127.0,0.0
0.0,58.0,127.0,0.0
0.0,46.0,127.0,0.0
0.0,36.0,127.0,0.0
0.0,47.0,127.0,0.0
0.0,54.0,127.0,0.0
0.0,59.0,127.0,0.0
0.0,35.0,127.0,0.0
0.0,56.0,127.0,0.0
0.0,40.0,127.0,0.0
0.0,36.0,127.0,3.0
0.0,47.0,127.0,0.0
0.0,54.0,127.0,0.0
0.0,59.0,127.0,0.0
0.0,35.0,127.0,0.0
0.0,54.0,127.0,0.0
0.0,46.0,97.0,0.0
0.0,38.0,127.0,0.0
0.0,47.0,127.0,0.0
0.0,54.0,127.0,0.0
0.0,59.0,127.0,0.0
0.0,35.0,127.0,0.0
0.0,56.0,127.0,0.0
0.0,36.0,127.0,0.0
0.0,54.0,127.0,0.0
0.0,42.0,127.0,0.0
0.0,49.0,127.0,0.0
0.0,42.0,127.0,0.0
0.0,49.0,127.0,0.0
0.0,54.0,127.0,0.0
0.0,30.0,127.0,0.0
0.0,58.0,127.0,0.0
0.0,66.0,87.0,0.0
0.0,46.0,127.0,0.0
0.0,49.0,127.0,0.0
0.0,36.0,127.0,0.0
0.0,42.0,127.0,0.0
0.0,49.0,127.0,0.0
0.0,54.0,127.0,0.0
0.0,30.0,127.0,0.0
0.0,42.0,127.0,0.0
0.0,49.0,127.0,0.0
0.0,54.0,127.0,0.0
0.0,30.0,127.0,0.0
0.0,58.0,127.0,0.0
0.0,66.0,87.0,0.0
0.0,40.0,127.0,0.0
0.0,46.0,97.0,0.0
0.0,61.0,127.0,0.0
0.0,49.0,127.0,0.0
0.0,56.0,127.0,0.0
0.0,61.0,127.0,0.0
0.0,49.0,127.0,0.0
0.0,56.0,127.0,0.0
0.0,30.0,127.0,0.0
0.0,36.0,127.0,0.0
0.0,61.0,127.0,0.0
0.0,49.0,127.0,0.0
0.0,56.0,127.0,0.0
0.0,61.0,127.0,0.0
0.0,56.0,127.0,0.0
0.0,49.0,127.0,0.0
0.0,37.0,127.0,0.0
0.0,56.0,127.0,0.0
0.0,65.0,87.0,0.0
0.0,36.0,127.0,0.0
0.0,46.0,127.0,0.0
0.0,61.0,127.0,0.0
0.0,56.0,127.0,0.0
0.0,49.0,127.0,0.0
0.0,37.0,127.0,0.0
0.0,61.0,127.0,0.0
0.0,56.0,127.0,0.0
0.0,49.0,127.0,0.0
0.0,37.0,127.0,0.0
0.0,40.0,127.0,0.0
0.0,46.0,97.0,0.0
0.0,63.0,127.0,0.0
0.0,58.0,127.0,0.0
0.0,51.0,127.0,0.0
0.0,63.0,127.0,0.0
0.0,58.0,127.0,0.0
0.0,51.0,127.0,0.0
0.0,37.0,127.0,0.0
0.0,36.0,127.0,0.0
0.0,58.0,127.0,0.0
0.0,63.0,127.0,0.0
0.0,51.0,127.0,0.0
0.0,51.0,127.0,0.0
0.0,58.0,127.0,0.0
0.0,63.0,127.0,0.0
0.0,39.0,127.0,0.0
0.0,54.0,127.0,0.0
0.0,36.0,127.0,0.0
0.0,46.0,127.0,0.0
0.0,51.0,127.0,0.0
0.0,58.0,127.0,0.0
0.0,63.0,127.0,0.0
0.0,39.0,127.0,0.0
0.0,54.0,127.0,0.0
0.0,51.0,127.0,0.0
0.0,58.0,127.0,0.0
0.0,63.0,127.0,0.0
0.0,39.0,127.0,0.0
0.0,54.0,127.0,0.0
0.0,40.0,127.0,0.0
0.0,46.0,97.0,0.0
0.0,47.0,127.0,0.0
0.0,59.0,127.0,0.0
0.0,54.0,127.0,0.0
0.0,59.0,127.0,0.0
0.0,54.0,127.0,0.0
0.0,47.0,127.0,0.0
0.0,39.0,127.0,0.0
0.0,54.0,127.0,0.0
0.0,36.0,127.0,0.0
0.0,59.0,127.0,0.0
0.0,54.0,127.0,0.0
0.0,47.0,127.0,0.0
0.0,47.0,127.0,0.0
0.0,54.0,127.0,0.0
0.0,59.0,127.0,0.0
0.0,35.0,127.0,0.0
0.0,58.0,127.0,0.0
0.0,36.0,127.0,0.0
0.0,46.0,127.0,0.0
0.0,47.0,127.0,0.0
0.0,54.0,127.0,0.0
0.0,59.0,127.0,0.0
0.0,35.0,127.0,0.0
0.0,56.0,127.0,0.0
0.0,40.0,127.0,0.0
0.0,38.0,127.0,0.0
0.0,47.0,127.0,0.0
0.0,54.0,127.0,0.0
0.0,59.0,127.0,0.0
0.0,35.0,127.0,0.0
0.0,54.0,127.0,0.0
0.0,36.0,127.0,0.0
0.0,46.0,97.0,0.0
0.0,47.0,127.0,0.0
0.0,54.0,127.0,0.0
0.0,59.0,127.0,0.0
0.0,35.0,127.0,0.0
0.0,40.0,127.0,0.0
0.0,38.0,127.0,0.0
0.0,54.0,127.0,3.0
0.0,54.0,127.0,0.0
0.0,42.0,127.0,0.0
0.0,49.0,127.0,0.0
0.0,54.0,127.0,0.0
0.0,49.0,127.0,0.0
0.0,42.0,127.0,0.0
0.0,30.0,127.0,0.0
0.0,58.0,127.0,0.0
0.0,46.0,127.0,0.0
0.0,49.0,127.0,0.0
0.0,36.0,127.0,0.0
0.0,42.0,127.0,0.0
0.0,49.0,127.0,0.0
0.0,54.0,127.0,0.0
0.0,30.0,127.0,0.0
0.0,58.0,127.0,0.0
0.0,54.0,127.0,0.0
0.0,49.0,127.0,0.0
0.0,42.0,127.0,0.0
0.0,30.0,127.0,0.0
0.0,58.0,127.0,0.0
0.0,40.0,127.0,0.0
0.0,46.0,97.0,0.0
0.0,61.0,127.0,0.0
0.0,49.0,127.0,0.0
0.0,56.0,127.0,0.0
0.0,61.0,127.0,0.0
0.0,49.0,127.0,0.0
0.0,56.0,127.0,0.0
0.0,30.0,127.0,0.0
0.0,58.0,127.0,0.0
0.0,36.0,127.0,0.0
0.0,61.0,127.0,0.0
0.0,49.0,127.0,0.0
0.0,56.0,127.0,0.0
0.0,61.0,127.0,0.0
0.0,56.0,127.0,0.0
0.0,49.0,127.0,0.0
0.0,37.0,127.0,0.0
0.0,58.0,127.0,0.0
0.0,36.0,127.0,0.0
0.0,46.0,127.0,0.0
0.0,49.0,127.0,0.0
0.0,56.0,127.0,0.0
0.0,61.0,127.0,0.0
0.0,37.0,127.0,0.0
0.0,56.0,127.0,0.0
0.0,0.0,0.0,0.0
0.0,0.0,0.0,0.0
0.0,0.0,0.0,0.0
0.0,0.0,0.0,0.0
0.0,0.0,0.0,0.0
0.0,0.0,0.0,0.0
0.0,0.0,0.0,0.0
0.0,0.0,0.0,0.0
0.0,0.0,0.0,0.0
0.0,0.0,0.0,0.0
0.0,0.0,0.0,0.0
0.0,0.0,0.0,0.0
0.0,0.0,0.0,0.0
0.0,0.0,0.0,0.0
0.0,0.0,0.0,0.0
0.0,0.0,0.0,0.0
0.0,0.0,0.0,0.0
0.0,0.0,0.0,0.0
0.0,0.0,0.0,0.0
0.0,0.0,0.0,0.0
0.0,0.0,0.0,0.0
0.0,0.0,0.0,0.0
0.0,0.0,0.0,0.0
0.0,0.0,0.0,0.0
0.0,0.0,0.0,0.0
0.0,0.0,0.0,0.0
0.0,0.0,0.0,0.0
0.0,0.0,0.0,0.0
0.0,0.0,0.0,0.0
0.0,0.0,0.0,0.0
0.0,0.0,0.0,0.0
0.0,0.0,0.0,0.0
0.0,0.0,0.0,0.0
0.0,0.0,0.0,0.0
0.0,0.0,0.0,0.0
0.0,0.0,0.0,0.0
0.0,0.0,0.0,0.0
0.0,0.0,0.0,0.0
0.0,0.0,0.0,0.0
0.0,0.0,0.0,0.0
0.0,0.0,0.0,0.0
0.0,0.0,0.0,0.0
0.0,0.0,0.0,0.0
0.0,0.0,0.0,0.0
0.0,0.0,0.0,0.0
0.0,0.0,0.0,0.0
0.0,0.0,0.0,0.0
0.0,0.0,0.0,0.0
0.0,0.0,0.0,0.0
0.0,0.0,0.0,0.0
0.0,0.0,0.0,0.0
0.0,0.0,0.0,0.0
0.0,0.0,0.0,0.0
0.0,0.0,0.0,0.0
0.0,0.0,0.0,0.0
0.0,0.0,0.0,0.0
0.0,0.0,0.0,0.0
0.0,0.0,0.0,0.0
0.0,0.0,0.0,0.0
0.0,0.0,0.0,0.0
0.0,0.0,0.0,0.0
0.0,0.0,0.0,0.0
0.0,0.0,0.0,0.0
0.0,0.0,0.0,0.0
0.0,0.0,0.0,0.0
0.0,0.0,0.0,0.0
0.0,0.0,0.0,0.0
0.0,0.0,0.0,0.0
0.0,0.0,0.0,0.0
0.0,0.0,0.0,0.0
0.0,0.0,0.0,0.0
0.0,0.0,0.0,0.0
0.0,0.0,0.0,0.0
0.0,0.0,0.0,0.0
0.0,0.0,0.0,0.0
0.0,0.0,0.0,0.0
0.0,0.0,0.0,0.0
0.0,0.0,0.0,0.0
0.0,0.0,0.0,0.0
0.0,0.0,0.0,0.0
0.0,0.0,0.0,0.0
0.0,0.0,0.0,0.0
