track,note,velocity,time
3,54,127,32640
3,42,127,0
3,49,127,0
3,61,127,7
3,49,127,0
3,56,127,0
3,61,127,0
3,49,127,0
3,56,127,0
3,63,127,7
3,58,127,0
3,51,127,0
3,58,127,0
3,63,127,0
3,51,127,0
3,47,127,7
3,59,127,0
3,54,127,0
3,59,127,0
3,54,127,0
3,47,127,0
3,54,127,0
3,42,127,0
3,49,127,0
3,61,127,7
3,49,127,0
3,56,127,0
3,61,127,0
3,49,127,0
3,56,127,0
3,63,127,7
3,58,127,0
3,51,127,0
3,58,127,0
3,63,127,0
3,51,127,0
3,47,127,7
3,59,127,0
3,54,127,0
3,59,127,0
3,54,127,0
3,47,127,0
3,54,127,0
3,42,127,0
3,49,127,0
3,61,127,7
3,49,127,0
3,56,127,0
3,61,127,0
3,49,127,0
3,56,127,0
3,63,127,7
3,58,127,0
3,51,127,0
3,58,127,0
3,63,127,0
3,51,127,0
3,47,127,7
3,59,127,0
3,54,127,0
3,59,127,0
3,54,127,0
3,47,127,0
3,54,127,0
3,42,127,0
3,49,127,0
3,61,127,7
3,49,127,0
3,56,127,0
3,61,127,0
3,49,127,0
3,56,127,0
3,63,127,7
3,58,127,0
3,51,127,0
3,58,127,0
3,51,127,0
3,63,127,0
3,63,127,7
3,58,127,0
3,51,127,0
3,51,127,18
3,58,127,0
3,63,127,0
3,61,127,455
3,49,127,0
3,56,127,0
3,61,127,7
3,56,127,0
3,49,127,0
3,49,127,18
3,56,127,0
3,61,127,0
3,59,127,455
3,47,127,0
3,54,127,17280
3,42,127,0
3,49,127,0
3,61,127,7
3,49,127,0
3,56,127,0
3,61,127,0
3,49,127,0
3,56,127,0
3,63,127,7
3,58,127,0
3,51,127,0
3,58,127,0
3,63,127,0
3,51,127,0
3,47,127,7
3,59,127,0
3,54,127,0
3,59,127,0
3,54,127,0
3,47,127,0
3,54,127,0
3,42,127,0
3,49,127,0
3,61,127,7
3,49,127,0
3,56,127,0
3,61,127,0
3,49,127,0
3,56,127,0
3,63,127,7
3,58,127,0
3,51,127,0
3,58,127,0
3,63,127,0
3,51,127,0
3,47,127,7
3,59,127,0
3,54,127,0
3,59,127,0
3,54,127,0
3,47,127,0
3,54,127,0
3,42,127,0
3,49,127,0
3,61,127,7
3,49,127,0
3,56,127,0
3,61,127,0
3,49,127,0
3,56,127,0
3,63,127,7
3,58,127,0
3,51,127,0
3,58,127,0
3,63,127,0
3,51,127,0
3,47,127,7
3,59,127,0
3,54,127,0
3,59,127,0
3,54,127,0
3,47,127,0
3,54,127,0
3,42,127,0
3,49,127,0
3,61,127,7
3,49,127,0
3,56,127,0
3,61,127,0
3,49,127,0
3,56,127,0
3,63,127,7
3,58,127,0
3,51,127,0
3,58,127,0
3,51,127,0
3,63,127,0
3,63,127,7
3,58,127,0
3,51,127,0
3,51,127,18
3,58,127,0
3,63,127,0
3,61,127,455
3,49,127,0
3,56,127,0
3,61,127,7
3,56,127,0
3,49,127,0
3,49,127,18
3,56,127,0
3,61,127,0
3,63,127,455
3,51,127,0
3,54,127,19200
3,42,127,0
3,49,127,0
3,61,127,7
3,49,127,0
3,56,127,0
3,61,127,0
3,49,127,0
3,56,127,0
3,63,127,7
3,58,127,0
3,51,127,0
3,58,127,0
3,63,127,0
3,51,127,0
3,47,127,7
3,59,127,0
3,54,127,0
3,59,127,0
3,54,127,0
3,47,127,0
3,54,127,0
3,42,127,0
3,49,127,0
3,61,127,7
3,49,127,0
3,56,127,0
3,61,127,0
3,49,127,0
3,56,127,0
3,63,127,7
3,58,127,0
3,51,127,0
3,58,127,0
3,63,127,0
3,51,127,0
3,47,127,7
3,59,127,0
3,54,127,0
3,59,127,0
3,54,127,0
3,47,127,0
3,54,127,0
3,42,127,0
3,49,127,0
3,61,127,7
3,49,127,0
3,56,127,0
3,61,127,0
3,49,127,0
3,56,127,0
3,63,127,7
3,58,127,0
3,51,127,0
3,58,127,0
3,63,127,0
3,51,127,0
3,47,127,7
3,59,127,0
3,54,127,0
3,59,127,0
3,54,127,0
3,47,127,0
3,54,127,0
3,42,127,0
3,49,127,0
3,61,127,7
3,49,127,0
3,56,127,0
3,61,127,0
3,49,127,0
3,56,127,0
3,63,127,7
3,58,127,0
3,51,127,0
3,58,127,0
3,51,127,0
3,63,127,0
3,63,127,7
3,58,127,0
3,51,127,0
3,51,127,18
3,58,127,0
3,63,127,0
3,61,127,455
3,49,127,0
3,56,127,0
3,61,127,7
3,56,127,0
3,49,127,0
3,49,127,18
3,56,127,0
3,61,127,0
3,54,127,455
3,42,127,0
3,49,127,0
3,61,127,7
3,49,127,0
3,56,127,0
3,61,127,0
3,49,127,0
3,56,127,0
3,63,127,7
3,58,127,0
3,51,127,0
3,58,127,0
3,63,127,0
3,51,127,0
3,47,127,7
3,59,127,0
3,54,127,0
3,59,127,0
3,54,127,0
3,47,127,0
3,54,127,0
3,42,127,0
3,49,127,0
3,61,127,7
3,49,127,0
3,56,127,0
3,61,127,0
3,49,127,0
3,56,127,0
3,63,127,7
3,58,127,0
3,51,127,0
3,58,127,0
3,63,127,0
3,51,127,0
3,47,127,7
3,59,127,0
3,54,127,0
3,59,127,0
3,54,127,0
3,47,127,0
3,54,127,0
3,42,127,0
3,49,127,0
3,61,127,7
3,49,127,0
3,56,127,0
3,61,127,0
3,49,127,0
3,56,127,0
3,63,127,7
3,58,127,0
3,51,127,0
3,58,127,0
3,63,127,0
3,51,127,0
3,47,127,7
3,59,127,0
3,54,127,0
3,59,127,0
3,54,127,0
3,47,127,0
3,54,127,0
3,42,127,0
3,49,127,0
3,61,127,7
3,49,127,0
3,56,127,0
3,61,127,0
3,49,127,0
3,56,127,0
3,63,127,7
3,58,127,0
3,51,127,0
3,58,127,0
3,51,127,0
3,63,127,0
3,63,127,7
3,58,127,0
3,51,127,0
3,51,127,18
3,58,127,0
3,63,127,0
3,61,127,455
3,49,127,0
3,56,127,0
3,61,127,7
3,56,127,0
3,49,127,0
3,49,127,18
3,56,127,0
3,61,127,0
3,54,127,455
3,42,127,0
3,49,127,0
3,61,127,7
3,49,127,0
3,56,127,0
3,61,127,0
3,49,127,0
3,56,127,0
3,63,127,7
3,58,127,0
3,51,127,0
3,58,127,0
3,63,127,0
3,51,127,0
3,47,127,7
3,59,127,0
3,54,127,0
3,59,127,0
3,54,127,0
3,47,127,0
3,54,127,0
3,42,127,0
3,49,127,0
3,61,127,7
3,49,127,0
3,56,127,0
3,61,127,0
3,49,127,0
3,56,127,0
3,63,127,7
3,58,127,0
3,51,127,0
3,58,127,0
3,63,127,0
3,51,127,0
3,47,127,7
3,59,127,0
3,54,127,0
3,59,127,0
3,54,127,0
3,47,127,0
3,54,127,0
3,42,127,0
3,49,127,0
3,61,127,7
3,49,127,0
3,56,127,0
3,61,127,0
3,49,127,0
3,56,127,0
3,63,127,7
3,58,127,0
3,51,127,0
3,58,127,0
3,63,127,0
3,51,127,0
3,47,127,7
3,59,127,0
3,54,127,0
3,59,127,0
3,54,127,0
3,47,127,0
3,54,127,0
3,42,127,0
3,49,127,0
3,61,127,7
3,49,127,0
3,56,127,0
3,61,127,0
3,49,127,0
3,56,127,0
3,63,127,7
3,58,127,0
3,51,127,0
3,58,127,0
3,51,127,0
3,63,127,0
3,63,127,7
3,58,127,0
3,51,127,0
3,51,127,18
3,58,127,0
3,63,127,0
3,61,127,455
3,49,127,0
3,56,127,0
3,61,127,7
3,56,127,0
3,49,127,0
3,49,127,18
3,56,127,0
3,61,127,0
3,54,127,455
3,47,127,0
3,59,127,0
4,54,127,960
4,66,127,240
4,70,127,0
4,66,127,240
4,49,127,0
4,66,127,0
4,70,127,0
4,66,127,240
4,51,127,0
4,66,127,0
4,70,127,0
4,66,127,240
4,47,127,0
4,66,127,0
4,70,127,0
4,66,127,240
4,54,127,0
4,66,127,0
4,70,127,0
4,66,127,240
4,49,127,0
4,66,127,0
4,70,127,0
4,66,127,240
4,51,127,0
4,66,127,0
4,70,127,0
4,66,127,240
4,47,127,0
4,66,127,0
4,70,127,0
4,66,127,240
4,54,127,0
4,66,127,0
4,70,127,0
4,66,127,240
4,49,127,0
4,66,127,0
4,70,127,0
4,66,127,240
4,51,127,0
4,66,127,0
4,70,127,0
4,66,127,240
4,47,127,0
4,66,127,0
4,70,127,0
4,66,127,240
4,54,127,0
4,66,127,0
4,70,127,0
4,66,127,240
4,49,127,0
4,66,127,0
4,70,127,0
4,66,127,240
4,51,127,0
4,66,127,0
4,70,127,0
4,66,127,240
4,47,127,0
4,66,127,0
4,70,127,0
4,66,127,240
4,54,127,0
4,66,127,0
4,70,127,0
4,66,127,240
4,49,127,0
4,66,127,0
4,70,127,0
4,66,127,240
4,51,127,0
4,66,127,0
4,70,127,0
4,66,127,240
4,47,127,0
4,66,127,0
4,70,127,0
4,66,127,240
4,54,127,0
4,66,127,0
4,70,127,0
4,66,127,240
4,49,127,0
4,66,127,0
4,70,127,0
4,66,127,240
4,51,127,0
4,66,127,0
4,70,127,0
4,66,127,240
4,47,127,0
4,66,127,0
4,70,127,0
4,66,127,240
4,54,127,0
4,66,127,0
4,70,127,0
4,66,127,240
4,49,127,0
4,66,127,0
4,70,127,0
4,66,127,240
4,51,127,0
4,66,127,0
4,70,127,0
4,66,127,240
4,47,127,0
4,66,127,0
4,70,127,0
4,66,127,240
4,54,127,0
4,66,127,0
4,70,127,0
4,66,127,240
4,49,127,0
4,66,127,0
4,70,127,0
4,66,127,240
4,49,127,0
4,66,127,0
4,70,127,0
4,66,127,240
4,47,127,0
4,66,127,0
4,70,127,0
4,66,127,240
4,47,127,0
4,66,127,0
4,70,127,0
4,66,127,240
4,66,127,13440
4,70,127,0
4,66,127,240
4,66,127,0
4,70,127,0
4,66,127,240
4,66,127,0
4,70,127,0
4,66,127,240
4,66,127,0
4,70,127,0
4,66,127,240
4,66,127,0
4,70,127,0
4,66,127,240
4,66,127,0
4,70,127,0
4,66,127,240
4,66,127,0
4,70,127,0
4,66,127,240
4,66,127,0
4,70,127,0
4,66,127,240
4,47,127,0
4,47,127,120
4,47,127,120
4,47,127,120
4,42,127,120
4,42,127,120
4,42,127,120
4,42,127,120
4,49,127,120
4,49,127,120
4,49,127,120
4,49,127,120
4,51,127,120
4,51,127,120
4,51,127,120
4,51,127,120
4,47,127,120
4,47,127,120
4,47,127,120
4,47,127,120
4,42,127,120
4,42,127,120
4,42,127,120
4,42,127,120
4,49,127,120
4,49,127,120
4,49,127,120
4,49,127,120
4,51,127,120
4,51,127,120
4,51,127,120
4,51,127,120
4,47,127,120
4,47,127,120
4,47,127,120
4,47,127,120
4,42,127,120
4,42,127,120
4,42,127,120
4,42,127,120
4,49,127,120
4,49,127,120
4,49,127,120
4,49,127,120
4,51,127,120
4,51,127,120
4,51,127,120
4,51,127,120
4,47,127,120
4,47,127,120
4,47,127,120
4,47,127,120
4,42,127,120
4,42,127,120
4,42,127,120
4,42,127,120
4,49,127,120
4,49,127,120
4,49,127,120
4,49,127,120
4,49,127,120
4,49,127,120
4,49,127,120
4,49,127,120
4,47,127,120
4,47,127,120
4,47,127,120
4,47,127,120
4,47,127,120
4,47,127,120
4,47,127,120
4,47,127,120
4,70,127,17880
4,66,127,0
4,70,127,0
4,66,127,0
4,59,127,960
4,70,127,0
4,66,127,0
4,70,127,0
4,66,127,0
4,54,127,1200
4,54,127,0
4,54,127,0
4,58,127,0
4,59,127,240
4,54,127,487
4,54,127,0
4,54,127,0
4,58,127,0
4,59,127,240
4,54,127,487
4,54,127,0
4,54,127,0
4,58,127,0
4,59,127,240
4,54,127,487
4,54,127,0
4,54,127,0
4,58,127,0
4,59,127,240
4,54,127,487
4,54,127,0
4,66,127,240
4,54,57,0
4,54,97,0
4,58,127,240
4,54,127,0
4,58,127,240
4,54,127,0
4,66,127,0
4,54,57,0
4,54,97,0
4,58,127,240
4,54,127,0
4,58,127,240
4,54,127,0
4,66,127,0
4,54,57,0
4,54,97,0
4,58,127,240
4,54,127,0
4,58,127,240
4,54,127,0
4,66,127,0
4,54,57,0
4,54,97,0
4,58,127,240
4,54,127,0
4,58,127,240
4,54,127,0
4,66,127,0
4,54,57,0
4,54,97,0
4,58,127,240
4,54,127,0
4,58,127,240
4,54,127,0
4,66,127,0
4,54,57,0
4,54,97,0
4,58,127,240
4,54,127,0
4,58,127,240
4,54,127,0
4,66,127,0
4,54,57,0
4,54,97,0
4,58,127,240
4,54,127,0
4,58,127,240
4,54,127,0
4,66,127,0
4,54,57,0
4,66,127,17520
4,70,127,0
4,66,127,240
4,66,127,0
4,70,127,0
4,66,127,240
4,66,127,0
4,70,127,0
4,66,127,240
4,66,127,0
4,70,127,0
4,66,127,240
4,66,127,0
4,70,127,0
4,66,127,240
4,66,127,0
4,70,127,0
4,66,127,240
4,66,127,0
4,70,127,0
4,66,127,240
4,66,127,0
4,70,127,0
4,66,127,240
4,66,127,0
4,70,127,0
4,66,127,240
4,66,127,0
4,70,127,0
4,66,127,240
4,66,127,0
4,70,127,0
4,66,127,240
4,66,127,0
4,70,127,0
4,66,127,240
4,66,127,0
4,70,127,0
4,66,127,240
4,66,127,0
4,70,127,0
4,66,127,240
4,66,127,0
4,70,127,0
4,66,127,240
4,66,127,0
4,70,127,0
4,66,127,240
4,66,127,0
4,70,127,0
4,66,127,240
4,66,127,0
4,70,127,0
4,66,127,240
4,66,127,0
4,70,127,0
4,66,127,240
4,66,127,0
4,70,127,0
4,66,127,240
4,66,127,0
4,70,127,0
4,66,127,240
4,66,127,0
4,70,127,0
4,66,127,240
4,66,127,0
4,70,127,0
4,66,127,240
4,66,127,0
4,70,127,0
4,66,127,240
4,66,127,0
4,70,127,0
4,66,127,240
4,66,127,0
4,70,127,0
4,66,127,240
4,66,127,0
4,70,127,0
4,66,127,240
4,66,127,0
4,70,127,0
4,66,127,240
4,66,127,0
4,70,127,0
4,66,127,240
4,66,127,0
4,70,127,0
4,66,127,240
4,66,127,0
4,70,127,0
4,66,127,240
4,66,127,0
4,70,127,0
4,66,127,240
4,66,127,0
4,70,127,0
4,66,127,240
4,66,127,0
4,70,127,0
4,66,127,240
4,66,127,0
4,70,127,0
4,66,127,240
4,66,127,0
4,70,127,0
4,47,127,0
5,49,127,32640
5,42,127,0
5,54,127,0
5,61,127,7
5,49,127,0
5,56,127,0
5,61,127,0
5,56,127,0
5,49,127,0
5,61,127,0
5,56,127,0
5,49,127,0
5,61,127,0
5,56,127,0
5,49,127,0
5,63,127,0
5,58,127,0
5,51,127,0
5,51,127,0
5,58,127,0
5,63,127,0
5,51,127,0
5,58,127,0
5,63,127,0
5,51,127,0
5,58,127,0
5,63,127,0
5,59,127,0
5,54,127,0
5,47,127,0
5,47,127,0
5,54,127,0
5,59,127,0
5,47,127,0
5,54,127,0
5,59,127,0
5,47,127,0
5,54,127,0
5,59,127,0
5,47,127,0
5,54,127,0
5,59,127,0
5,54,127,0
5,49,127,0
5,42,127,0
5,42,127,0
5,49,127,0
5,54,127,0
5,42,127,0
5,49,127,0
5,54,127,0
5,61,127,0
5,49,127,0
5,56,127,0
5,61,127,0
5,56,127,0
5,49,127,0
5,61,127,0
5,56,127,0
5,49,127,0
5,61,127,0
5,56,127,0
5,49,127,0
5,63,127,0
5,58,127,0
5,51,127,0
5,51,127,0
5,58,127,0
5,63,127,0
5,51,127,0
5,58,127,0
5,63,127,0
5,51,127,0
5,58,127,0
5,63,127,0
5,59,127,0
5,54,127,0
5,47,127,0
5,47,127,0
5,54,127,0
5,59,127,0
5,47,127,0
5,54,127,0
5,59,127,0
5,47,127,0
5,54,127,0
5,59,127,0
5,47,127,0
5,54,127,0
5,59,127,0
5,42,127,0
5,49,127,0
5,54,127,0
5,42,127,0
5,49,127,0
5,54,127,0
5,42,127,0
5,49,127,0
5,54,127,0
5,61,127,0
5,49,127,0
5,56,127,0
5,61,127,0
5,56,127,0
5,49,127,0
5,61,127,0
5,56,127,0
5,49,127,0
5,61,127,0
5,56,127,0
