track,note,velocity,time
0,33,100,1810
0,33,100,0
0,33,100,0
0,33,100,0
0,33,100,0
0,64,100,0
0,33,100,0
0,33,100,0
0,61,100,0
0,33,100,0
0,35,100,0
0,35,100,0
0,35,100,0
0,35,100,0
0,35,100,0
0,64,100,0
0,35,100,0
0,35,100,0
0,61,100,0
0,35,100,0
0,38,100,0
0,38,100,0
0,38,100,0
0,38,100,0
0,38,100,0
0,64,100,0
0,38,100,0
0,38,100,0
0,61,100,0
0,38,100,0
0,40,100,0
0,64,100,0
0,40,100,0
0,40,100,0
0,66,100,0
0,40,100,0
0,40,100,0
0,64,100,0
0,40,100,0
0,40,100,0
0,61,100,0
0,40,100,0
0,33,100,0
0,33,100,0
0,33,100,0
0,33,100,0
0,33,100,0
0,64,100,0
0,33,100,0
0,33,100,0
0,61,100,0
0,33,100,0
0,35,100,0
0,35,100,0
0,35,100,0
0,35,100,0
0,35,100,0
0,64,100,0
0,35,100,0
0,35,100,0
0,61,100,0
0,35,100,0
0,38,100,0
0,38,100,0
0,38,100,0
0,38,100,0
0,38,100,0
0,64,100,0
0,38,100,0
0,38,100,0
0,61,100,0
0,38,100,0
0,40,100,0
0,64,100,0
0,40,100,0
0,40,100,0
0,66,100,0
0,40,100,0
0,40,100,0
0,64,100,0
0,40,100,0
0,40,100,0
0,61,100,0
0,40,100,0
0,45,100,0
0,33,100,0
0,64,100,0
0,55,100,0
0,35,100,0
0,49,100,240
0,33,100,0
0,46,60,0
0,45,100,0
0,33,100,0
0,61,100,0
0,46,60,0
0,45,100,0
0,33,100,0
0,46,100,0
0,52,100,0
0,33,100,0
0,57,100,0
0,46,60,0
0,45,100,0
0,33,100,0
0,46,60,0
0,49,100,0
0,33,100,0
0,61,100,0
0,46,100,0
0,45,100,0
0,33,100,0
0,46,60,0
0,45,100,0
0,35,100,0
0,64,100,0
0,46,100,0
0,50,100,240
0,35,100,0
0,46,60,0
0,45,100,0
0,35,100,0
0,66,100,0
0,46,60,0
0,45,100,0
0,35,100,0
0,46,100,0
0,50,100,0
0,35,100,0
0,64,100,0
0,46,60,0
0,45,100,0
0,35,100,0
0,46,60,0
0,50,100,0
0,35,100,0
0,46,100,0
0,45,100,0
0,35,100,0
0,46,60,0
0,45,100,0
0,38,100,0
0,64,100,0
0,46,100,0
0,49,100,240
0,38,100,0
0,46,60,0
0,45,100,0
0,38,100,0
0,61,100,0
0,46,60,0
0,45,100,0
0,38,100,0
0,46,100,0
0,52,100,0
0,38,100,0
0,57,100,0
0,46,60,0
0,45,100,0
0,38,100,0
0,46,60,0
0,49,100,0
0,38,100,0
0,61,100,0
0,46,100,0
0,45,100,0
0,38,100,0
0,46,60,0
0,45,100,0
0,40,100,0
0,64,100,0
0,46,100,0
0,50,100,240
0,40,100,0
0,46,60,0
0,45,100,0
0,40,100,0
0,66,100,0
0,46,60,0
0,45,100,0
0,40,100,0
0,46,100,0
0,50,100,0
0,40,100,0
0,64,100,0
0,46,60,0
0,45,100,0
0,40,100,0
0,46,60,0
0,50,100,0
0,40,100,0
0,46,100,0
0,45,100,0
0,40,100,0
0,46,60,0
0,45,100,0
0,33,100,0
0,64,100,0
0,46,100,0
0,49,100,240
0,33,100,0
0,46,60,0
0,45,100,0
0,33,100,0
0,61,100,0
0,46,60,0
0,45,100,0
0,33,100,0
0,46,100,0
0,52,100,0
0,33,100,0
0,64,100,0
0,46,60,0
0,45,100,0
0,33,100,0
0,46,60,0
0,49,100,0
0,33,100,0
0,61,100,0
0,46,100,0
0,45,100,0
0,33,100,0
0,46,60,0
0,45,100,0
0,35,100,0
0,64,100,0
0,46,100,0
0,50,100,240
0,35,100,0
0,46,60,0
0,45,100,0
0,35,100,0
0,66,100,0
0,46,60,0
0,45,100,0
0,35,100,0
0,46,100,0
0,50,100,0
0,35,100,0
0,64,100,0
0,46,60,0
0,45,100,0
0,35,100,0
0,46,60,0
0,50,100,0
0,35,100,0
0,61,100,0
0,46,100,0
0,45,100,0
0,35,100,0
0,46,60,0
0,45,100,0
0,38,100,0
0,64,100,0
0,46,100,0
0,49,100,240
0,38,100,0
0,46,60,0
0,45,100,0
0,38,100,0
0,61,100,0
0,46,60,0
0,45,100,0
0,38,100,0
0,46,100,0
0,52,100,0
0,38,100,0
0,64,100,0
0,46,60,0
0,45,100,0
0,38,100,0
0,46,60,0
0,49,100,0
0,38,100,0
0,61,100,0
0,46,100,0
0,45,100,0
0,38,100,0
0,46,60,0
0,47,100,0
0,40,100,0
0,40,100,0
0,64,100,0
0,46,120,0
0,61,100,0
0,62,100,0
0,61,100,0
0,45,100,0
0,33,100,0
0,55,100,0
0,35,100,0
0,49,100,160
0,33,100,0
0,46,100,0
0,50,100,0
0,40,100,0
0,45,100,0
0,33,100,0
0,47,100,0
0,35,100,0
0,35,100,0
0,45,100,120
0,33,100,0
0,46,100,0
0,50,100,0
0,40,100,0
0,52,100,160
0,33,100,0
0,46,100,0
0,35,100,0
0,45,100,0
0,33,100,0
0,46,100,0
0,50,100,0
0,40,100,0
0,49,100,160
0,33,100,0
0,47,100,0
0,35,100,0
0,35,100,0
0,45,100,0
0,33,100,0
0,50,100,0
0,46,100,0
0,40,100,0
0,47,100,160
0,35,100,0
0,46,100,0
0,35,100,0
0,49,100,160
0,35,100,0
0,46,100,0
0,50,100,0
0,40,100,0
0,47,100,0
0,35,100,0
0,47,100,0
0,35,100,0
0,35,100,0
0,47,100,120
0,35,100,0
0,46,100,0
0,50,100,0
0,40,100,0
0,52,100,160
0,35,100,0
0,46,100,0
0,35,100,0
0,47,100,0
0,35,100,0
0,46,100,0
0,50,100,0
0,40,100,0
0,49,100,160
0,35,100,0
0,47,100,0
0,35,100,0
0,35,100,0
0,47,100,0
0,35,100,0
0,46,100,0
0,50,100,0
0,40,100,0
0,45,100,160
0,38,100,0
0,46,100,0
0,35,100,0
0,49,100,160
0,38,100,0
0,46,100,0
0,50,100,0
0,40,100,0
0,45,100,0
0,38,100,0
0,47,100,0
0,35,100,0
0,35,100,0
0,45,100,120
0,38,100,0
0,46,100,0
0,50,100,0
0,40,100,0
0,52,100,160
0,38,100,0
0,46,100,0
0,35,100,0
0,45,100,0
0,38,100,0
0,46,100,0
0,50,100,0
0,40,100,0
0,49,100,160
0,38,100,0
0,47,100,0
0,35,100,0
0,35,100,0
0,45,100,0
0,38,100,0
0,46,100,0
0,50,100,0
0,40,100,0
0,47,100,160
0,40,100,0
0,46,100,0
0,35,100,0
0,50,100,160
0,40,100,0
0,46,100,0
0,50,100,0
0,40,100,0
0,47,100,0
0,40,100,0
0,47,100,0
0,35,100,0
0,35,100,0
0,47,100,120
0,40,100,0
0,46,100,0
0,50,100,0
0,40,100,0
0,50,100,160
0,40,100,0
0,46,100,0
0,35,100,0
0,47,100,0
0,40,100,0
0,46,100,0
0,50,100,0
0,40,100,0
0,50,100,160
0,40,100,0
0,47,100,0
0,35,100,0
0,35,100,0
0,47,100,0
0,40,100,0
0,46,100,0
0,50,100,0
0,40,100,0
0,45,100,160
0,33,100,0
0,46,100,0
0,35,100,0
0,49,100,160
0,33,100,0
0,46,100,0
0,50,100,0
0,40,100,0
0,45,100,0
0,33,100,0
0,47,100,0
0,35,100,0
0,35,100,0
0,45,100,120
0,33,100,0
0,46,100,0
0,50,100,0
0,40,100,0
0,52,100,160
0,33,100,0
0,46,100,0
0,35,100,0
0,45,100,0
0,33,100,0
0,46,100,0
0,50,100,0
0,40,100,0
0,49,100,160
0,33,100,0
0,47,100,0
0,35,100,0
0,35,100,0
0,45,100,0
0,33,100,0
0,46,100,0
0,50,100,0
0,40,100,0
0,47,100,160
0,35,100,0
0,46,100,0
0,35,100,0
0,50,100,160
0,35,100,0
0,46,100,0
0,50,100,0
0,40,100,0
0,47,100,0
0,35,100,0
0,47,100,0
0,35,100,0
0,35,100,0
0,47,100,120
0,35,100,0
0,46,100,0
0,50,100,0
0,40,100,0
0,50,100,160
0,35,100,0
0,46,100,0
0,35,100,0
0,47,100,0
0,35,100,0
0,46,100,0
0,50,100,0
0,40,100,0
0,50,100,160
0,35,100,0
0,47,100,0
0,35,100,0
0,35,100,0
0,47,100,0
0,35,100,0
0,46,100,0
0,50,100,0
0,40,100,0
0,45,100,160
0,38,100,0
0,46,100,0
0,35,100,0
0,49,100,160
0,38,100,0
0,46,100,0
0,50,100,0
0,40,100,0
0,45,100,0
0,38,100,0
0,47,100,0
0,35,100,0
0,35,100,0
0,45,100,120
0,38,100,0
0,46,100,0
0,50,100,0
0,40,100,0
0,52,100,160
0,38,100,0
0,46,100,0
0,35,100,0
0,45,100,0
0,38,100,0
0,46,100,0
0,50,100,0
0,40,100,0
0,49,100,160
0,38,100,0
0,47,100,0
0,35,100,0
0,35,100,0
0,45,100,0
0,38,100,0
0,46,100,0
0,50,100,0
0,40,100,0
0,47,100,160
0,40,100,0
0,50,100,0
0,40,100,0
0,57,100,160
0,50,100,0
0,40,100,0
0,35,100,0
0,55,100,0
0,50,100,0
0,57,100,0
0,40,100,0
0,55,100,0
0,35,100,0
0,50,100,0
0,57,100,0
0,40,100,0
0,55,100,0
0,35,100,0
0,50,100,0
0,57,100,0
0,40,100,0
0,50,100,0
0,40,100,0
0,45,100,0
0,52,100,0
0,33,100,0
0,61,100,0
0,55,100,0
0,35,100,0
0,33,100,0
0,69,100,0
0,50,100,0
0,40,100,0
0,33,100,0
0,57,100,0
0,69,100,0
0,35,100,0
0,35,100,0
0,33,100,0
0,57,100,0
0,69,100,0
0,50,100,0
0,40,100,0
0,33,100,0
0,57,100,0
0,69,100,0
0,35,100,0
0,33,100,0
0,57,100,0
0,69,100,0
0,50,100,0
0,40,100,0
0,33,100,0
0,59,100,0
0,69,100,0
0,35,100,0
0,35,100,0
0,33,100,0
0,57,100,0
0,50,100,0
0,69,100,0
0,40,100,0
0,38,100,0
0,61,100,0
0,69,100,0
0,35,100,0
0,38,100,0
0,69,100,0
0,50,100,0
0,40,100,0
0,38,100,0
0,57,100,0
0,69,100,0
0,35,100,0
0,35,100,0
0,38,100,0
0,57,100,0
0,69,100,0
0,50,100,0
0,40,100,0
0,38,100,0
0,57,100,0
0,69,100,0
0,35,100,0
0,38,100,0
0,57,100,0
0,69,100,0
0,50,100,0
0,40,100,0
0,38,100,0
0,64,100,0
0,69,100,0
0,35,100,0
0,35,100,0
0,38,100,0
0,62,100,0
0,69,100,0
0,50,100,0
0,40,100,0
0,42,100,0
0,61,100,0
0,69,100,0
0,35,100,0
0,42,100,0
0,61,100,0
0,69,100,0
0,50,100,0
0,40,100,0
0,42,100,0
0,57,100,0
0,69,100,0
0,35,100,0
0,35,100,0
0,42,100,0
0,57,100,0
0,69,100,0
0,50,100,0
0,40,100,0
0,40,100,0
0,59,100,0
0,69,100,0
0,35,100,0
0,40,100,0
0,57,100,0
0,69,100,0
0,50,100,0
0,40,100,0
0,40,100,0
0,69,100,0
0,35,100,0
0,35,100,0
0,40,100,0
0,57,100,0
0,69,100,0
0,50,100,0
0,40,100,0
0,33,100,0
0,69,100,0
0,35,100,0
0,33,100,0
0,69,100,0
0,50,100,0
0,40,100,0
0,33,100,0
0,33,100,0
0,69,100,0
0,50,100,0
0,40,100,0
0,33,100,0
0,33,100,0
0,69,100,0
0,50,100,0
0,40,100,0
0,33,100,0
0,64,100,0
0,33,100,0
0,64,100,0
0,69,100,0
0,50,100,0
0,40,100,0
0,33,100,0
0,61,100,0
0,69,100,0
0,35,100,0
0,33,100,0
0,69,100,0
0,50,100,0
0,40,100,0
0,33,100,0
0,57,100,0
0,69,100,0
0,35,100,0
0,35,100,0
0,33,100,0
0,57,100,0
0,69,100,0
0,50,100,0
0,40,100,0
0,33,100,0
0,57,100,0
0,69,100,0
0,35,100,0
0,33,100,0
0,69,100,0
0,50,100,0
0,40,100,0
0,33,100,0
0,64,100,0
0,69,100,0
0,35,100,0
0,35,100,0
0,33,100,0
0,64,100,0
0,69,100,0
0,50,100,0
0,40,100,0
0,38,100,0
0,61,100,0
0,69,100,0
0,35,100,0
0,38,100,0
0,69,100,0
0,50,100,0
0,40,100,0
0,38,100,0
0,57,100,0
0,69,100,0
0,35,100,0
0,35,100,0
0,38,100,0
0,57,100,0
0,69,100,0
0,50,100,0
0,40,100,0
0,38,100,0
0,57,100,0
0,69,100,0
0,35,100,0
0,38,100,0
0,57,100,0
0,69,100,0
0,50,100,0
0,40,100,0
0,38,100,0
0,59,100,0
0,69,100,0
0,35,100,0
0,35,100,0
0,38,100,0
0,59,100,0
0,69,100,0
0,50,100,0
0,40,100,0
0,42,100,0
0,61,100,0
0,69,100,0
0,35,100,0
0,42,100,0
0,61,100,0
0,69,100,0
0,50,100,0
0,40,100,0
0,42,100,0
0,57,100,0
0,69,100,0
0,35,100,0
0,35,100,0
0,42,100,0
0,57,100,0
0,69,100,0
0,50,100,0
0,40,100,0
0,40,100,0
0,59,100,0
0,69,100,0
0,35,100,0
0,40,100,0
0,69,100,0
0,50,100,0
0,40,100,0
0,40,100,0
0,61,100,0
0,69,100,0
0,35,100,0
0,35,100,0
0,40,100,0
0,69,100,0
0,50,100,0
0,40,100,0
0,33,100,0
0,57,100,0
0,69,100,0
0,35,100,0
0,33,100,0
0,50,100,0
0,40,100,0
0,50,100,0
0,40,100,0
0,33,100,0
0,50,100,0
0,40,100,0
0,50,100,0
0,40,100,0
0,33,100,0
0,50,100,0
0,40,100,0
0,50,100,0
0,40,100,0
0,33,100,0
0,55,100,0
0,35,100,0
0,45,100,720
0,33,100,0
0,55,100,0
0,35,100,0
0,49,100,160
0,33,100,0
0,46,100,0
0,50,100,0
0,40,100,0
0,45,100,0
0,33,100,0
0,47,100,0
0,35,100,0
0,35,100,0
0,45,100,120
0,33,100,0
0,46,100,0
0,50,100,0
0,40,100,0
0,52,100,160
0,33,100,0
0,46,100,0
0,35,100,0
0,45,100,0
0,33,100,0
0,46,100,0
0,50,100,0
0,40,100,0
0,49,100,160
0,33,100,0
0,47,100,0
0,35,100,0
0,35,100,0
0,45,100,0
0,33,100,0
0,50,100,0
0,46,100,0
0,40,100,0
0,47,100,160
0,35,100,0
0,46,100,0
0,35,100,0
0,50,100,160
0,35,100,0
0,46,100,0
0,50,100,0
0,40,100,0
0,47,100,0
0,35,100,0
0,47,100,0
0,35,100,0
0,35,100,0
0,47,100,120
0,35,100,0
0,46,100,0
0,50,100,0
0,40,100,0
0,50,100,160
0,35,100,0
0,46,100,0
0,35,100,0
0,47,100,0
0,35,100,0
0,46,100,0
0,50,100,0
0,40,100,0
0,50,100,160
0,35,100,0
0,47,100,0
0,35,100,0
0,35,100,0
0,47,100,0
0,35,100,0
0,46,100,0
0,50,100,0
0,40,100,0
0,45,100,160
0,38,100,0
0,46,100,0
0,35,100,0
0,49,100,160
0,38,100,0
0,46,100,0
0,50,100,0
0,40,100,0
0,45,100,0
0,38,100,0
0,47,100,0
0,35,100,0
0,35,100,0
0,45,100,120
0,38,100,0
0,46,100,0
0,50,100,0
0,40,100,0
0,52,100,160
0,38,100,0
0,46,100,0
0,35,100,0
0,45,100,0
0,38,100,0
0,46,100,0
0,50,100,0
0,40,100,0
0,49,100,160
0,38,100,0
0,47,100,0
0,35,100,0
0,35,100,0
0,45,100,0
0,38,100,0
0,46,100,0
0,50,100,0
0,40,100,0
0,47,100,160
0,40,100,0
0,46,100,0
0,35,100,0
0,50,100,160
0,40,100,0
0,46,100,0
0,50,100,0
0,40,100,0
0,47,100,0
0,40,100,0
0,47,100,0
0,35,100,0
0,35,100,0
0,47,100,120
0,40,100,0
0,46,100,0
0,50,100,0
0,40,100,0
0,50,100,160
0,40,100,0
0,46,100,0
0,35,100,0
0,47,100,0
0,40,100,0
0,46,100,0
0,50,100,0
0,40,100,0
0,50,100,160
0,40,100,0
0,47,100,0
0,35,100,0
0,35,100,0
0,47,100,0
0,40,100,0
0,46,100,0
0,50,100,0
0,40,100,0
0,45,100,160
0,33,100,0
0,46,100,0
