track,note,velocity,time
0.0,43.0,96.0,0.0
0.0,43.0,96.0,0.0
0.0,50.0,96.0,0.0
0.0,43.0,96.0,0.0
0.0,48.0,96.0,0.0
0.0,43.0,96.0,0.0
0.0,47.0,96.0,0.0
0.0,43.0,96.0,0.0
0.0,43.0,96.0,0.0
0.0,43.0,96.0,0.0
0.0,50.0,96.0,0.0
0.0,43.0,96.0,0.0
0.0,48.0,96.0,0.0
0.0,43.0,96.0,0.0
0.0,47.0,96.0,0.0
0.0,43.0,96.0,0.0
0.0,43.0,96.0,0.0
0.0,43.0,96.0,0.0
0.0,50.0,96.0,0.0
0.0,43.0,96.0,0.0
0.0,48.0,96.0,0.0
0.0,43.0,96.0,0.0
0.0,47.0,96.0,0.0
0.0,43.0,96.0,0.0
0.0,48.0,96.0,0.0
0.0,43.0,96.0,0.0
0.0,47.0,96.0,0.0
0.0,43.0,96.0,0.0
0.0,48.0,96.0,0.0
0.0,43.0,96.0,0.0
0.0,47.0,96.0,0.0
0.0,43.0,96.0,0.0
0.0,43.0,127.0,0.0
0.0,50.0,127.0,0.0
0.0,55.0,127.0,0.0
0.0,43.0,96.0,0.0
0.0,35.0,112.0,0.0
0.0,42.0,112.0,0.0
0.0,49.0,112.0,0.0
0.0,42.0,112.0,0.0
0.0,43.0,96.0,0.0
0.0,42.0,112.0,0.0
0.0,42.0,112.0,0.0
0.0,50.0,96.0,0.0
0.0,35.0,112.0,0.0
0.0,42.0,112.0,0.0
0.0,59.0,127.0,0.0
0.0,42.0,112.0,0.0
0.0,43.0,96.0,0.0
0.0,42.0,112.0,0.0
0.0,59.0,127.0,0.0
0.0,42.0,112.0,0.0
0.0,48.0,96.0,0.0
0.0,35.0,112.0,0.0
0.0,42.0,112.0,0.0
0.0,42.0,112.0,0.0
0.0,43.0,96.0,0.0
0.0,42.0,112.0,0.0
0.0,42.0,112.0,0.0
0.0,47.0,96.0,0.0
0.0,35.0,112.0,0.0
0.0,42.0,112.0,0.0
0.0,55.0,127.0,0.0
0.0,42.0,112.0,0.0
0.0,43.0,96.0,0.0
0.0,42.0,112.0,0.0
0.0,42.0,112.0,0.0
0.0,45.0,127.0,0.0
0.0,52.0,127.0,0.0
0.0,57.0,127.0,0.0
0.0,43.0,96.0,0.0
0.0,35.0,112.0,0.0
0.0,42.0,112.0,0.0
0.0,42.0,112.0,0.0
0.0,43.0,96.0,0.0
0.0,42.0,112.0,0.0
0.0,42.0,112.0,0.0
0.0,50.0,96.0,0.0
0.0,35.0,112.0,0.0
0.0,42.0,112.0,0.0
0.0,59.0,127.0,0.0
0.0,42.0,112.0,0.0
0.0,43.0,96.0,0.0
0.0,42.0,112.0,0.0
0.0,59.0,127.0,0.0
0.0,42.0,112.0,0.0
0.0,48.0,96.0,0.0
0.0,35.0,112.0,0.0
0.0,42.0,112.0,0.0
0.0,42.0,112.0,0.0
0.0,43.0,96.0,0.0
0.0,42.0,112.0,0.0
0.0,42.0,112.0,0.0
0.0,47.0,96.0,0.0
0.0,35.0,112.0,0.0
0.0,42.0,112.0,0.0
0.0,55.0,127.0,0.0
0.0,42.0,112.0,0.0
0.0,43.0,96.0,0.0
0.0,42.0,112.0,0.0
0.0,42.0,112.0,0.0
0.0,48.0,127.0,0.0
0.0,55.0,127.0,0.0
0.0,60.0,127.0,0.0
0.0,43.0,96.0,0.0
0.0,35.0,112.0,0.0
0.0,42.0,112.0,0.0
0.0,42.0,112.0,0.0
0.0,43.0,96.0,0.0
0.0,42.0,112.0,0.0
0.0,42.0,112.0,0.0
0.0,50.0,96.0,0.0
0.0,35.0,112.0,0.0
0.0,42.0,112.0,0.0
0.0,42.0,112.0,0.0
0.0,43.0,96.0,0.0
0.0,42.0,112.0,0.0
0.0,42.0,112.0,0.0
0.0,48.0,96.0,0.0
0.0,35.0,112.0,0.0
0.0,42.0,112.0,0.0
0.0,42.0,112.0,0.0
0.0,43.0,96.0,0.0
0.0,42.0,112.0,0.0
0.0,42.0,112.0,0.0
0.0,47.0,96.0,0.0
0.0,35.0,112.0,0.0
0.0,42.0,112.0,0.0
0.0,42.0,112.0,0.0
0.0,43.0,96.0,0.0
0.0,42.0,112.0,0.0
0.0,42.0,112.0,0.0
0.0,48.0,96.0,0.0
0.0,35.0,112.0,0.0
0.0,42.0,112.0,0.0
0.0,42.0,112.0,0.0
0.0,43.0,96.0,0.0
0.0,42.0,112.0,0.0
0.0,42.0,112.0,0.0
0.0,47.0,96.0,0.0
0.0,35.0,112.0,0.0
0.0,42.0,112.0,0.0
0.0,42.0,112.0,0.0
0.0,43.0,96.0,0.0
0.0,42.0,112.0,0.0
0.0,42.0,112.0,0.0
0.0,48.0,96.0,0.0
0.0,35.0,112.0,0.0
0.0,42.0,112.0,0.0
0.0,42.0,112.0,0.0
0.0,43.0,96.0,0.0
0.0,42.0,112.0,0.0
0.0,42.0,112.0,0.0
0.0,47.0,96.0,0.0
0.0,35.0,112.0,0.0
0.0,42.0,112.0,0.0
0.0,42.0,112.0,0.0
0.0,43.0,96.0,0.0
0.0,42.0,112.0,0.0
0.0,42.0,112.0,0.0
0.0,43.0,127.0,0.0
0.0,50.0,127.0,0.0
0.0,55.0,127.0,0.0
0.0,43.0,96.0,0.0
0.0,35.0,112.0,0.0
0.0,42.0,112.0,0.0
0.0,42.0,112.0,0.0
0.0,43.0,96.0,0.0
0.0,42.0,112.0,0.0
0.0,42.0,112.0,0.0
0.0,50.0,96.0,0.0
0.0,35.0,112.0,0.0
0.0,42.0,112.0,0.0
0.0,59.0,127.0,0.0
0.0,42.0,112.0,0.0
0.0,43.0,96.0,0.0
0.0,42.0,112.0,0.0
0.0,59.0,127.0,0.0
0.0,42.0,112.0,0.0
0.0,48.0,96.0,0.0
0.0,35.0,112.0,0.0
0.0,42.0,112.0,0.0
0.0,42.0,112.0,0.0
0.0,43.0,96.0,0.0
0.0,42.0,112.0,0.0
0.0,42.0,112.0,0.0
0.0,47.0,96.0,0.0
0.0,35.0,112.0,0.0
0.0,42.0,112.0,0.0
0.0,55.0,127.0,0.0
0.0,42.0,112.0,0.0
0.0,43.0,96.0,0.0
0.0,42.0,112.0,0.0
0.0,42.0,112.0,0.0
0.0,45.0,127.0,0.0
0.0,52.0,127.0,0.0
0.0,57.0,127.0,0.0
0.0,43.0,96.0,0.0
0.0,35.0,112.0,0.0
0.0,42.0,112.0,0.0
0.0,42.0,112.0,0.0
0.0,43.0,96.0,0.0
0.0,42.0,112.0,0.0
0.0,42.0,112.0,0.0
0.0,50.0,96.0,0.0
0.0,35.0,112.0,0.0
0.0,42.0,112.0,0.0
0.0,59.0,127.0,0.0
0.0,42.0,112.0,0.0
0.0,43.0,96.0,0.0
0.0,42.0,112.0,0.0
0.0,59.0,127.0,0.0
0.0,42.0,112.0,0.0
0.0,48.0,96.0,0.0
0.0,35.0,112.0,0.0
0.0,42.0,112.0,0.0
0.0,42.0,112.0,0.0
0.0,43.0,96.0,0.0
0.0,42.0,112.0,0.0
0.0,42.0,112.0,0.0
0.0,47.0,96.0,0.0
0.0,35.0,112.0,0.0
0.0,42.0,112.0,0.0
0.0,55.0,127.0,0.0
0.0,42.0,112.0,0.0
0.0,43.0,96.0,0.0
0.0,42.0,112.0,0.0
0.0,42.0,112.0,0.0
0.0,48.0,127.0,0.0
0.0,55.0,127.0,0.0
0.0,60.0,127.0,0.0
0.0,43.0,96.0,0.0
0.0,35.0,112.0,0.0
0.0,42.0,112.0,0.0
0.0,42.0,112.0,0.0
0.0,43.0,96.0,0.0
0.0,42.0,112.0,0.0
0.0,42.0,112.0,0.0
0.0,50.0,96.0,0.0
0.0,35.0,112.0,0.0
0.0,42.0,112.0,0.0
0.0,42.0,112.0,0.0
0.0,43.0,96.0,0.0
0.0,42.0,112.0,0.0
0.0,42.0,112.0,0.0
0.0,48.0,96.0,0.0
0.0,35.0,112.0,0.0
0.0,42.0,112.0,0.0
0.0,42.0,112.0,0.0
0.0,43.0,96.0,0.0
0.0,42.0,112.0,0.0
0.0,42.0,112.0,0.0
0.0,47.0,96.0,0.0
0.0,35.0,112.0,0.0
0.0,42.0,112.0,0.0
0.0,42.0,112.0,0.0
0.0,43.0,96.0,0.0
0.0,42.0,112.0,0.0
0.0,42.0,112.0,0.0
0.0,48.0,96.0,0.0
0.0,35.0,112.0,0.0
0.0,42.0,112.0,0.0
0.0,42.0,112.0,0.0
0.0,43.0,96.0,0.0
0.0,42.0,112.0,0.0
0.0,42.0,112.0,0.0
0.0,47.0,96.0,0.0
0.0,35.0,112.0,0.0
0.0,42.0,112.0,0.0
0.0,42.0,112.0,0.0
0.0,43.0,96.0,0.0
0.0,42.0,112.0,0.0
0.0,42.0,112.0,0.0
0.0,48.0,96.0,0.0
0.0,35.0,112.0,0.0
0.0,42.0,112.0,0.0
0.0,42.0,112.0,0.0
0.0,43.0,96.0,0.0
0.0,42.0,112.0,0.0
0.0,42.0,112.0,0.0
0.0,47.0,96.0,0.0
0.0,35.0,112.0,0.0
0.0,42.0,112.0,0.0
0.0,71.0,127.0,0.0
0.0,42.0,112.0,0.0
0.0,43.0,96.0,0.0
0.0,42.0,112.0,0.0
0.0,42.0,112.0,0.0
0.0,43.0,127.0,0.0
0.0,50.0,127.0,0.0
0.0,55.0,127.0,0.0
0.0,43.0,96.0,0.0
0.0,35.0,112.0,0.0
0.0,42.0,112.0,0.0
0.0,46.0,112.0,0.0
0.0,71.0,127.0,0.0
0.0,42.0,112.0,0.0
0.0,43.0,96.0,0.0
0.0,42.0,112.0,0.0
0.0,67.0,127.0,0.0
0.0,42.0,112.0,0.0
0.0,50.0,96.0,0.0
0.0,35.0,112.0,0.0
0.0,42.0,112.0,0.0
0.0,46.0,112.0,0.0
0.0,59.0,127.0,0.0
0.0,42.0,112.0,0.0
0.0,43.0,96.0,0.0
0.0,42.0,112.0,0.0
0.0,59.0,127.0,0.0
0.0,67.0,127.0,0.0
0.0,42.0,112.0,0.0
0.0,48.0,96.0,0.0
0.0,35.0,112.0,0.0
0.0,42.0,112.0,0.0
0.0,46.0,112.0,0.0
0.0,42.0,112.0,0.0
0.0,43.0,96.0,0.0
0.0,42.0,112.0,0.0
0.0,42.0,112.0,0.0
0.0,47.0,96.0,0.0
0.0,35.0,112.0,0.0
0.0,42.0,112.0,0.0
0.0,46.0,112.0,0.0
0.0,55.0,127.0,0.0
0.0,71.0,127.0,0.0
0.0,42.0,112.0,0.0
0.0,43.0,96.0,0.0
0.0,42.0,112.0,0.0
0.0,42.0,112.0,0.0
0.0,45.0,127.0,0.0
0.0,52.0,127.0,0.0
0.0,57.0,127.0,0.0
0.0,43.0,96.0,0.0
0.0,35.0,112.0,0.0
0.0,42.0,112.0,0.0
0.0,46.0,112.0,0.0
0.0,71.0,127.0,0.0
0.0,42.0,112.0,0.0
0.0,43.0,96.0,0.0
0.0,42.0,112.0,0.0
0.0,67.0,127.0,0.0
0.0,42.0,112.0,0.0
0.0,50.0,96.0,0.0
0.0,35.0,112.0,0.0
0.0,42.0,112.0,0.0
0.0,46.0,112.0,0.0
0.0,59.0,127.0,0.0
0.0,42.0,112.0,0.0
0.0,43.0,96.0,0.0
0.0,42.0,112.0,0.0
0.0,59.0,127.0,0.0
0.0,67.0,127.0,0.0
0.0,42.0,112.0,0.0
0.0,48.0,96.0,0.0
0.0,35.0,112.0,0.0
0.0,42.0,112.0,0.0
0.0,46.0,112.0,0.0
0.0,42.0,112.0,0.0
0.0,43.0,96.0,0.0
0.0,42.0,112.0,0.0
0.0,42.0,112.0,0.0
0.0,47.0,96.0,0.0
0.0,35.0,112.0,0.0
0.0,42.0,112.0,0.0
0.0,46.0,112.0,0.0
0.0,55.0,127.0,0.0
0.0,71.0,127.0,0.0
0.0,42.0,112.0,0.0
0.0,43.0,96.0,0.0
0.0,42.0,112.0,0.0
0.0,42.0,112.0,0.0
0.0,48.0,127.0,0.0
0.0,55.0,127.0,0.0
0.0,60.0,127.0,0.0
0.0,43.0,96.0,0.0
0.0,35.0,112.0,0.0
0.0,42.0,112.0,0.0
0.0,46.0,112.0,0.0
0.0,71.0,127.0,0.0
0.0,42.0,112.0,0.0
0.0,43.0,96.0,0.0
0.0,42.0,112.0,0.0
0.0,67.0,127.0,0.0
0.0,42.0,112.0,0.0
0.0,50.0,96.0,0.0
0.0,35.0,112.0,0.0
0.0,42.0,112.0,0.0
0.0,46.0,112.0,0.0
0.0,42.0,112.0,0.0
0.0,43.0,96.0,0.0
0.0,42.0,112.0,0.0
0.0,67.0,127.0,0.0
0.0,42.0,112.0,0.0
0.0,48.0,96.0,0.0
0.0,35.0,112.0,0.0
0.0,42.0,112.0,0.0
0.0,46.0,112.0,0.0
0.0,42.0,112.0,0.0
0.0,43.0,96.0,0.0
0.0,42.0,112.0,0.0
0.0,42.0,112.0,0.0
0.0,47.0,96.0,0.0
0.0,35.0,112.0,0.0
0.0,42.0,112.0,0.0
0.0,46.0,112.0,0.0
0.0,71.0,127.0,0.0
0.0,42.0,112.0,0.0
0.0,43.0,96.0,0.0
0.0,42.0,112.0,0.0
0.0,42.0,112.0,0.0
0.0,48.0,96.0,0.0
0.0,35.0,112.0,0.0
0.0,42.0,112.0,0.0
0.0,46.0,112.0,0.0
0.0,71.0,127.0,0.0
0.0,42.0,112.0,0.0
0.0,43.0,96.0,0.0
0.0,42.0,112.0,0.0
0.0,67.0,127.0,0.0
0.0,42.0,112.0,0.0
0.0,47.0,96.0,0.0
0.0,35.0,112.0,0.0
0.0,42.0,112.0,0.0
0.0,46.0,112.0,0.0
0.0,42.0,112.0,0.0
0.0,43.0,96.0,0.0
0.0,42.0,112.0,0.0
0.0,67.0,127.0,0.0
0.0,42.0,112.0,0.0
0.0,48.0,96.0,0.0
0.0,35.0,112.0,0.0
0.0,42.0,112.0,0.0
0.0,46.0,112.0,0.0
0.0,42.0,112.0,0.0
0.0,43.0,96.0,0.0
0.0,42.0,112.0,0.0
0.0,42.0,112.0,0.0
0.0,47.0,96.0,0.0
0.0,35.0,112.0,0.0
0.0,42.0,112.0,0.0
0.0,46.0,112.0,0.0
0.0,71.0,127.0,0.0
0.0,42.0,112.0,0.0
0.0,43.0,96.0,0.0
0.0,42.0,112.0,0.0
0.0,42.0,112.0,0.0
0.0,43.0,127.0,0.0
0.0,50.0,127.0,0.0
0.0,55.0,127.0,0.0
0.0,43.0,96.0,0.0
0.0,35.0,112.0,0.0
0.0,42.0,112.0,0.0
0.0,46.0,112.0,0.0
0.0,71.0,127.0,0.0
0.0,42.0,112.0,0.0
0.0,43.0,96.0,0.0
0.0,42.0,112.0,0.0
0.0,67.0,127.0,0.0
0.0,42.0,112.0,0.0
0.0,50.0,96.0,0.0
0.0,35.0,112.0,0.0
0.0,42.0,112.0,0.0
0.0,46.0,112.0,0.0
0.0,59.0,127.0,0.0
0.0,42.0,112.0,0.0
0.0,43.0,96.0,0.0
0.0,42.0,112.0,0.0
0.0,59.0,127.0,0.0
0.0,67.0,127.0,0.0
0.0,42.0,112.0,0.0
0.0,48.0,96.0,0.0
0.0,35.0,112.0,0.0
0.0,42.0,112.0,0.0
0.0,46.0,112.0,0.0
0.0,42.0,112.0,0.0
0.0,43.0,96.0,0.0
0.0,42.0,112.0,0.0
0.0,42.0,112.0,0.0
0.0,47.0,96.0,0.0
0.0,35.0,112.0,0.0
0.0,42.0,112.0,0.0
0.0,46.0,112.0,0.0
0.0,55.0,127.0,0.0
0.0,67.0,127.0,0.0
0.0,42.0,112.0,0.0
0.0,43.0,96.0,0.0
0.0,42.0,112.0,0.0
0.0,42.0,112.0,0.0
0.0,45.0,127.0,0.0
0.0,52.0,127.0,0.0
0.0,57.0,127.0,0.0
0.0,43.0,96.0,0.0
0.0,35.0,112.0,0.0
0.0,42.0,112.0,0.0
0.0,46.0,112.0,0.0
0.0,66.0,127.0,0.0
0.0,42.0,112.0,0.0
0.0,43.0,96.0,0.0
0.0,42.0,112.0,0.0
0.0,42.0,112.0,0.0
0.0,50.0,96.0,0.0
0.0,35.0,112.0,0.0
0.0,42.0,112.0,0.0
0.0,46.0,112.0,0.0
0.0,59.0,127.0,0.0
0.0,66.0,127.0,0.0
0.0,42.0,112.0,0.0
0.0,43.0,96.0,0.0
0.0,42.0,112.0,0.0
0.0,59.0,127.0,0.0
0.0,69.0,127.0,0.0
0.0,42.0,112.0,0.0
0.0,48.0,96.0,0.0
0.0,35.0,112.0,0.0
0.0,42.0,112.0,0.0
0.0,46.0,112.0,0.0
0.0,42.0,112.0,0.0
0.0,43.0,96.0,0.0
0.0,42.0,112.0,0.0
0.0,42.0,112.0,0.0
0.0,47.0,96.0,0.0
0.0,35.0,112.0,0.0
0.0,42.0,112.0,0.0
0.0,46.0,112.0,0.0
0.0,55.0,127.0,0.0
0.0,66.0,127.0,0.0
0.0,42.0,112.0,0.0
0.0,43.0,96.0,0.0
0.0,42.0,112.0,0.0
0.0,42.0,112.0,0.0
0.0,48.0,127.0,0.0
0.0,55.0,127.0,0.0
0.0,60.0,127.0,0.0
0.0,43.0,96.0,0.0
0.0,35.0,112.0,0.0
0.0,42.0,112.0,0.0
0.0,46.0,112.0,0.0
0.0,67.0,127.0,0.0
0.0,42.0,112.0,0.0
0.0,43.0,96.0,0.0
0.0,42.0,112.0,0.0
0.0,42.0,112.0,0.0
0.0,50.0,96.0,0.0
0.0,35.0,112.0,0.0
0.0,42.0,112.0,0.0
0.0,46.0,112.0,0.0
0.0,42.0,112.0,0.0
0.0,43.0,96.0,0.0
0.0,42.0,112.0,0.0
0.0,42.0,112.0,0.0
0.0,48.0,96.0,0.0
0.0,35.0,112.0,0.0
0.0,42.0,112.0,0.0
0.0,46.0,112.0,0.0
0.0,42.0,112.0,0.0
0.0,43.0,96.0,0.0
0.0,42.0,112.0,0.0
0.0,42.0,112.0,0.0
0.0,47.0,96.0,0.0
0.0,35.0,112.0,0.0
0.0,42.0,112.0,0.0
0.0,46.0,112.0,0.0
0.0,42.0,112.0,0.0
0.0,43.0,96.0,0.0
0.0,42.0,112.0,0.0
0.0,42.0,112.0,0.0
0.0,43.0,96.0,0.0
0.0,35.0,112.0,0.0
0.0,42.0,112.0,0.0
0.0,46.0,112.0,0.0
0.0,49.0,112.0,0.0
0.0,66.0,127.0,0.0
0.0,66.0,127.0,0.0
0.0,69.0,127.0,0.0
0.0,66.0,127.0,0.0
0.0,43.0,127.0,0.0
0.0,31.0,96.0,0.0
0.0,38.0,112.0,0.0
0.0,46.0,112.0,0.0
0.0,49.0,112.0,0.0
0.0,43.0,96.0,0.0
0.0,50.0,96.0,0.0
0.0,67.0,127.0,0.0
0.0,45.0,127.0,0.0
0.0,31.0,96.0,0.0
0.0,35.0,112.0,0.0
0.0,47.0,127.0,0.0
0.0,31.0,96.0,0.0
0.0,38.0,112.0,0.0
0.0,46.0,112.0,0.0
0.0,48.0,127.0,0.0
0.0,31.0,96.0,0.0
0.0,35.0,112.0,0.0
0.0,47.0,127.0,0.0
0.0,31.0,96.0,0.0
0.0,38.0,112.0,0.0
0.0,46.0,112.0,0.0
0.0,31.0,96.0,0.0
0.0,31.0,96.0,0.0
0.0,38.0,112.0,0.0
0.0,46.0,112.0,0.0
0.0,31.0,96.0,0.0
0.0,31.0,96.0,0.0
0.0,38.0,112.0,0.0
0.0,46.0,112.0,0.0
0.0,31.0,96.0,0.0
0.0,35.0,112.0,0.0
0.0,47.0,127.0,0.0
0.0,31.0,96.0,0.0
0.0,38.0,112.0,0.0
0.0,46.0,112.0,0.0
0.0,48.0,127.0,0.0
0.0,31.0,96.0,0.0
0.0,35.0,112.0,0.0
0.0,47.0,127.0,0.0
0.0,31.0,96.0,0.0
0.0,38.0,112.0,0.0
0.0,46.0,112.0,0.0
0.0,31.0,96.0,0.0
0.0,35.0,112.0,0.0
0.0,45.0,127.0,0.0
0.0,31.0,96.0,0.0
0.0,38.0,112.0,0.0
0.0,46.0,112.0,0.0
0.0,31.0,96.0,0.0
0.0,35.0,112.0,0.0
0.0,40.0,127.0,0.0
0.0,28.0,96.0,0.0
0.0,38.0,112.0,0.0
0.0,46.0,112.0,0.0
0.0,40.0,96.0,0.0
0.0,47.0,96.0,0.0
0.0,45.0,127.0,0.0
0.0,28.0,96.0,0.0
0.0,35.0,112.0,0.0
0.0,47.0,127.0,0.0
0.0,28.0,96.0,0.0
0.0,38.0,112.0,0.0
0.0,46.0,112.0,0.0
0.0,48.0,127.0,0.0
0.0,28.0,96.0,0.0
0.0,35.0,112.0,0.0
0.0,47.0,127.0,0.0
0.0,28.0,96.0,0.0
0.0,38.0,112.0,0.0
0.0,46.0,112.0,0.0
0.0,28.0,96.0,0.0
0.0,28.0,96.0,0.0
0.0,38.0,112.0,0.0
0.0,46.0,112.0,0.0
0.0,28.0,96.0,0.0
0.0,36.0,96.0,0.0
0.0,38.0,112.0,0.0
0.0,46.0,112.0,0.0
0.0,48.0,96.0,0.0
0.0,55.0,96.0,0.0
0.0,36.0,96.0,0.0
0.0,35.0,112.0,0.0
0.0,47.0,127.0,0.0
0.0,36.0,96.0,0.0
0.0,38.0,112.0,0.0
0.0,46.0,112.0,0.0
0.0,48.0,127.0,0.0
0.0,36.0,96.0,0.0
0.0,35.0,112.0,0.0
0.0,47.0,127.0,0.0
0.0,36.0,96.0,0.0
0.0,38.0,112.0,0.0
0.0,46.0,112.0,0.0
0.0,36.0,96.0,0.0
0.0,35.0,112.0,0.0
0.0,45.0,127.0,0.0
0.0,36.0,96.0,0.0
0.0,38.0,112.0,0.0
0.0,46.0,112.0,0.0
0.0,36.0,96.0,0.0
0.0,35.0,112.0,0.0
0.0,43.0,127.0,0.0
0.0,31.0,96.0,0.0
0.0,38.0,112.0,0.0
0.0,46.0,112.0,0.0
0.0,49.0,112.0,0.0
0.0,43.0,96.0,0.0
0.0,50.0,96.0,0.0
0.0,45.0,127.0,0.0
0.0,31.0,96.0,0.0
0.0,35.0,112.0,0.0
0.0,47.0,127.0,0.0
0.0,31.0,96.0,0.0
0.0,38.0,112.0,0.0
0.0,46.0,112.0,0.0
0.0,48.0,127.0,0.0
0.0,31.0,96.0,0.0
0.0,35.0,112.0,0.0
0.0,47.0,127.0,0.0
0.0,31.0,96.0,0.0
0.0,38.0,112.0,0.0
0.0,46.0,112.0,0.0
0.0,31.0,96.0,0.0
0.0,31.0,96.0,0.0
0.0,38.0,112.0,0.0
0.0,46.0,112.0,0.0
0.0,31.0,96.0,0.0
0.0,31.0,96.0,0.0
0.0,38.0,112.0,0.0
0.0,46.0,112.0,0.0
0.0,31.0,96.0,0.0
0.0,35.0,112.0,0.0
0.0,47.0,127.0,0.0
0.0,31.0,96.0,0.0
0.0,38.0,112.0,0.0
0.0,46.0,112.0,0.0
0.0,48.0,127.0,0.0
0.0,31.0,96.0,0.0
0.0,35.0,112.0,0.0
0.0,47.0,127.0,0.0
0.0,31.0,96.0,0.0
0.0,38.0,112.0,0.0
0.0,46.0,112.0,0.0
0.0,31.0,96.0,0.0
0.0,35.0,112.0,0.0
0.0,45.0,127.0,0.0
0.0,31.0,96.0,0.0
0.0,38.0,112.0,0.0
0.0,46.0,112.0,0.0
0.0,31.0,96.0,0.0
0.0,35.0,112.0,0.0
0.0,40.0,127.0,0.0
0.0,28.0,96.0,0.0
0.0,38.0,112.0,0.0
0.0,46.0,112.0,0.0
0.0,40.0,96.0,0.0
0.0,47.0,96.0,0.0
0.0,45.0,127.0,0.0
0.0,28.0,96.0,0.0
0.0,35.0,112.0,0.0
0.0,47.0,127.0,0.0
0.0,28.0,96.0,0.0
0.0,38.0,112.0,0.0
0.0,46.0,112.0,0.0
0.0,48.0,127.0,0.0
0.0,28.0,96.0,0.0
0.0,35.0,112.0,0.0
0.0,47.0,127.0,0.0
0.0,28.0,96.0,0.0
0.0,38.0,112.0,0.0
0.0,46.0,112.0,0.0
0.0,28.0,96.0,0.0
0.0,28.0,96.0,0.0
0.0,38.0,112.0,0.0
0.0,46.0,112.0,0.0
0.0,28.0,96.0,0.0
0.0,36.0,96.0,0.0
0.0,38.0,112.0,0.0
0.0,46.0,112.0,0.0
0.0,48.0,96.0,0.0
0.0,55.0,96.0,0.0
0.0,36.0,96.0,0.0
0.0,35.0,112.0,0.0
0.0,47.0,127.0,0.0
0.0,36.0,96.0,0.0
0.0,38.0,112.0,0.0
0.0,46.0,112.0,0.0
0.0,48.0,127.0,0.0
0.0,36.0,96.0,0.0
0.0,35.0,112.0,0.0
0.0,47.0,127.0,0.0
0.0,36.0,96.0,0.0
0.0,35.0,112.0,0.0
0.0,38.0,112.0,0.0
0.0,46.0,112.0,0.0
0.0,36.0,96.0,0.0
0.0,35.0,112.0,0.0
0.0,38.0,112.0,0.0
0.0,45.0,127.0,0.0
0.0,36.0,96.0,0.0
0.0,35.0,112.0,0.0
0.0,38.0,112.0,0.0
0.0,46.0,112.0,0.0
0.0,36.0,96.0,0.0
0.0,35.0,112.0,0.0
0.0,38.0,112.0,0.0
0.0,55.0,127.0,0.0
0.0,43.0,96.0,0.0
0.0,38.0,112.0,0.0
0.0,49.0,112.0,0.0
0.0,43.0,96.0,0.0
0.0,50.0,96.0,0.0
0.0,55.0,127.0,0.0
0.0,43.0,96.0,0.0
0.0,35.0,112.0,0.0
0.0,47.0,127.0,0.0
0.0,43.0,96.0,0.0
0.0,35.0,112.0,0.0
0.0,48.0,127.0,0.0
0.0,43.0,96.0,0.0
0.0,38.0,112.0,0.0
0.0,49.0,112.0,0.0
0.0,50.0,127.0,0.0
0.0,43.0,96.0,0.0
0.0,35.0,112.0,0.0
0.0,43.0,96.0,0.0
0.0,35.0,112.0,0.0
0.0,43.0,96.0,0.0
0.0,38.0,112.0,0.0
0.0,49.0,112.0,0.0
0.0,43.0,96.0,0.0
0.0,35.0,112.0,0.0
0.0,38.0,96.0,0.0
0.0,35.0,112.0,0.0
0.0,38.0,96.0,0.0
0.0,38.0,112.0,0.0
0.0,49.0,112.0,0.0
0.0,50.0,127.0,0.0
0.0,38.0,96.0,0.0
0.0,35.0,112.0,0.0
0.0,52.0,127.0,0.0
0.0,38.0,96.0,0.0
0.0,35.0,112.0,0.0
0.0,50.0,127.0,0.0
0.0,38.0,96.0,0.0
0.0,38.0,112.0,0.0
0.0,49.0,112.0,0.0
0.0,38.0,96.0,0.0
0.0,35.0,112.0,0.0
0.0,48.0,127.0,0.0
0.0,38.0,96.0,0.0
0.0,38.0,112.0,0.0
0.0,49.0,112.0,0.0
0.0,38.0,96.0,0.0
0.0,38.0,112.0,0.0
0.0,55.0,127.0,0.0
0.0,40.0,96.0,0.0
0.0,38.0,112.0,0.0
0.0,49.0,112.0,0.0
0.0,40.0,96.0,0.0
0.0,47.0,96.0,0.0
0.0,55.0,127.0,0.0
0.0,40.0,96.0,0.0
0.0,35.0,112.0,0.0
0.0,47.0,127.0,0.0
0.0,40.0,96.0,0.0
0.0,35.0,112.0,0.0
0.0,48.0,127.0,0.0
0.0,40.0,96.0,0.0
0.0,38.0,112.0,0.0
0.0,49.0,112.0,0.0
0.0,50.0,127.0,0.0
0.0,40.0,96.0,0.0
0.0,35.0,112.0,0.0
0.0,40.0,96.0,0.0
0.0,35.0,112.0,0.0
0.0,40.0,96.0,0.0
0.0,38.0,112.0,0.0
0.0,49.0,112.0,0.0
0.0,40.0,96.0,0.0
0.0,35.0,112.0,0.0
0.0,36.0,96.0,0.0
0.0,35.0,112.0,0.0
0.0,48.0,96.0,0.0
0.0,55.0,96.0,0.0
0.0,36.0,96.0,0.0
0.0,38.0,112.0,0.0
0.0,49.0,112.0,0.0
0.0,50.0,127.0,0.0
0.0,36.0,96.0,0.0
0.0,35.0,112.0,0.0
0.0,52.0,127.0,0.0
0.0,36.0,96.0,0.0
0.0,35.0,112.0,0.0
0.0,50.0,127.0,0.0
0.0,36.0,96.0,0.0
0.0,38.0,112.0,0.0
0.0,49.0,112.0,0.0
0.0,36.0,96.0,0.0
0.0,35.0,112.0,0.0
0.0,48.0,127.0,0.0
0.0,36.0,96.0,0.0
0.0,38.0,112.0,0.0
0.0,49.0,112.0,0.0
0.0,36.0,96.0,0.0
0.0,38.0,112.0,0.0
0.0,55.0,127.0,0.0
0.0,31.0,96.0,0.0
0.0,38.0,112.0,0.0
0.0,49.0,112.0,0.0
0.0,43.0,96.0,0.0
0.0,50.0,96.0,0.0
0.0,55.0,127.0,0.0
0.0,31.0,96.0,0.0
0.0,35.0,112.0,0.0
0.0,47.0,127.0,0.0
0.0,31.0,96.0,0.0
0.0,35.0,112.0,0.0
0.0,48.0,127.0,0.0
0.0,31.0,96.0,0.0
0.0,38.0,112.0,0.0
0.0,49.0,112.0,0.0
0.0,50.0,127.0,0.0
0.0,31.0,96.0,0.0
0.0,35.0,112.0,0.0
0.0,31.0,96.0,0.0
0.0,35.0,112.0,0.0
0.0,31.0,96.0,0.0
0.0,38.0,112.0,0.0
0.0,49.0,112.0,0.0
0.0,31.0,96.0,0.0
0.0,35.0,112.0,0.0
0.0,38.0,96.0,0.0
0.0,35.0,112.0,0.0
0.0,38.0,96.0,0.0
0.0,38.0,112.0,0.0
0.0,49.0,112.0,0.0
0.0,50.0,127.0,0.0
0.0,38.0,96.0,0.0
0.0,35.0,112.0,0.0
0.0,52.0,127.0,0.0
0.0,38.0,96.0,0.0
0.0,35.0,112.0,0.0
0.0,50.0,127.0,0.0
0.0,38.0,96.0,0.0
0.0,38.0,112.0,0.0
0.0,49.0,112.0,0.0
0.0,38.0,96.0,0.0
0.0,35.0,112.0,0.0
0.0,48.0,127.0,0.0
0.0,38.0,96.0,0.0
0.0,38.0,112.0,0.0
0.0,49.0,112.0,0.0
0.0,0.0,0.0,0.0
0.0,0.0,0.0,0.0
0.0,0.0,0.0,0.0
0.0,0.0,0.0,0.0
0.0,0.0,0.0,0.0
0.0,0.0,0.0,0.0
0.0,0.0,0.0,0.0
0.0,0.0,0.0,0.0
0.0,0.0,0.0,0.0
0.0,0.0,0.0,0.0
0.0,0.0,0.0,0.0
0.0,0.0,0.0,0.0
0.0,0.0,0.0,0.0
0.0,0.0,0.0,0.0
0.0,0.0,0.0,0.0
0.0,0.0,0.0,0.0
0.0,0.0,0.0,0.0
0.0,0.0,0.0,0.0
0.0,0.0,0.0,0.0
0.0,0.0,0.0,0.0
0.0,0.0,0.0,0.0
0.0,0.0,0.0,0.0
0.0,0.0,0.0,0.0
0.0,0.0,0.0,0.0
0.0,0.0,0.0,0.0
0.0,0.0,0.0,0.0
0.0,0.0,0.0,0.0
0.0,0.0,0.0,0.0
0.0,0.0,0.0,0.0
0.0,0.0,0.0,0.0
0.0,0.0,0.0,0.0
0.0,0.0,0.0,0.0
0.0,0.0,0.0,0.0
0.0,0.0,0.0,0.0
0.0,0.0,0.0,0.0
0.0,0.0,0.0,0.0
0.0,0.0,0.0,0.0
0.0,0.0,0.0,0.0
0.0,0.0,0.0,0.0
0.0,0.0,0.0,0.0
0.0,0.0,0.0,0.0
0.0,0.0,0.0,0.0
0.0,0.0,0.0,0.0
0.0,0.0,0.0,0.0
0.0,0.0,0.0,0.0
0.0,0.0,0.0,0.0
0.0,0.0,0.0,0.0
0.0,0.0,0.0,0.0
0.0,0.0,0.0,0.0
0.0,0.0,0.0,0.0
0.0,0.0,0.0,0.0
0.0,0.0,0.0,0.0
0.0,0.0,0.0,0.0
0.0,0.0,0.0,0.0
0.0,0.0,0.0,0.0
0.0,0.0,0.0,0.0
0.0,0.0,0.0,0.0
0.0,0.0,0.0,0.0
0.0,0.0,0.0,0.0
0.0,0.0,0.0,0.0
0.0,0.0,0.0,0.0
0.0,0.0,0.0,0.0
0.0,0.0,0.0,0.0
0.0,0.0,0.0,0.0
0.0,0.0,0.0,0.0
0.0,0.0,0.0,0.0
0.0,0.0,0.0,0.0
0.0,0.0,0.0,0.0
0.0,0.0,0.0,0.0
0.0,0.0,0.0,0.0
