track,note,velocity,time
1,64,80,22320
1,64,80,48
1,63,80,48
1,59,80,48
1,63,80,312
1,59,80,48
1,61,80,24
1,61,80,48
1,61,80,24
1,63,80,24
1,59,80,24
1,56,80,48
1,59,80,24
1,63,80,1152
1,64,80,48
1,66,80,48
1,63,80,24
1,63,80,48
1,64,80,48
1,63,80,72
1,59,80,24
1,59,80,48
1,59,80,48
1,66,80,48
1,64,80,24
1,64,80,48
1,63,80,48
1,59,80,48
1,59,80,312
1,63,80,72
1,59,80,24
1,63,80,48
1,59,80,48
1,61,80,48
1,61,80,24
1,63,80,48
1,59,80,48
1,59,80,48
1,64,80,912
1,64,80,48
1,63,80,48
1,66,80,48
1,63,80,24
1,63,80,48
1,63,80,24
1,64,80,24
1,63,80,48
1,59,80,24
1,64,80,192
1,59,80,48
1,59,80,48
1,64,80,912
1,64,80,48
1,63,80,48
1,59,80,48
1,64,80,144
1,64,80,48
1,63,80,48
1,59,80,48
1,63,80,312
1,59,80,48
1,61,80,24
1,61,80,48
1,63,80,24
1,63,80,24
1,59,80,24
1,63,80,1032
1,63,80,24
1,64,80,48
1,66,80,48
1,63,80,24
1,63,80,48
1,64,80,48
1,63,80,48
1,59,80,24
1,66,80,288
1,66,80,24
1,64,80,24
1,64,80,48
1,59,80,48
1,59,80,48
1,66,80,312
1,66,80,72
1,63,80,24
1,63,80,48
1,64,80,48
1,63,80,48
1,59,80,24
1,63,80,48
1,64,80,48
1,59,80,48
1,64,80,1032
1,64,80,24
1,63,80,48
1,66,80,48
1,63,80,24
1,63,80,48
1,64,80,24
1,63,80,48
1,59,80,24
1,66,80,648
1,63,80,24
1,63,80,48
1,59,80,48
1,59,80,48
1,63,80,528
1,61,80,48
1,61,80,528
1,61,80,48
1,61,80,48
1,63,80,48
1,59,80,48
1,59,80,48
1,56,80,168
1,59,80,48
1,64,80,24
1,64,80,48
1,64,80,48
1,59,80,48
1,59,80,48
1,64,80,3168
1,63,80,48
1,66,80,48
1,64,80,24
1,64,80,48
1,63,80,48
1,61,80,48
1,61,80,528
1,66,80,48
1,64,80,24
1,63,80,48
1,63,80,24
1,64,80,48
1,63,80,24
1,61,80,24
1,61,80,24
1,61,80,48
1,66,80,48
1,64,80,24
1,64,80,48
1,59,80,48
1,59,80,48
1,66,80,648
1,64,80,24
1,64,80,24
1,64,80,48
1,64,80,24
1,64,80,48
1,64,80,24
1,64,80,24
1,59,80,24
1,59,80,48
1,61,80,48
1,63,80,2952
1,63,80,24
1,63,80,24
1,61,80,48
1,63,80,24
1,61,80,24
1,59,80,48
1,63,80,2112
1,63,80,24
1,63,80,24
1,61,80,48
1,63,80,24
1,61,80,24
1,59,80,48
1,64,80,144
1,64,80,48
1,63,80,48
1,59,80,48
1,63,80,312
1,59,80,48
1,61,80,24
1,61,80,48
1,63,80,24
1,59,80,24
1,59,80,24
1,63,80,1152
1,64,80,48
1,66,80,48
1,63,80,24
1,63,80,48
1,64,80,48
1,63,80,72
1,59,80,24
1,59,80,48
1,59,80,48
1,66,80,48
1,64,80,24
1,64,80,48
1,59,80,48
1,59,80,48
1,63,80,312
1,63,80,72
1,59,80,24
1,63,80,48
1,59,80,48
1,61,80,48
1,61,80,24
1,63,80,48
1,59,80,48
1,59,80,48
1,64,80,912
1,64,80,48
1,63,80,48
1,66,80,48
1,63,80,24
1,63,80,48
1,63,80,24
1,64,80,24
1,63,80,48
1,59,80,24
1,64,80,192
1,59,80,48
1,59,80,48
1,63,80,1392
1,61,80,48
1,61,80,528
1,61,80,48
1,61,80,48
1,63,80,48
1,59,80,48
1,59,80,48
1,56,80,168
1,59,80,48
1,64,80,24
1,64,80,48
1,64,80,48
1,59,80,48
1,59,80,48
1,64,80,3168
1,63,80,48
1,66,80,48
1,64,80,24
1,64,80,48
1,63,80,48
1,61,80,48
1,61,80,528
1,66,80,48
1,64,80,24
1,63,80,48
1,63,80,24
1,64,80,48
1,63,80,24
1,61,80,24
1,61,80,24
1,61,80,48
1,66,80,48
1,64,80,24
1,64,80,48
1,59,80,48
1,59,80,48
1,66,80,648
1,64,80,24
1,64,80,24
1,64,80,48
1,64,80,24
1,64,80,48
1,64,80,24
1,64,80,24
1,59,80,24
1,59,80,48
1,61,80,48
1,63,80,2952
1,63,80,24
1,63,80,24
1,61,80,48
1,63,80,24
1,61,80,24
1,59,80,48
1,63,80,2112
1,63,80,24
1,63,80,24
1,61,80,48
1,63,80,24
1,61,80,24
1,59,80,48
1,63,80,2112
1,63,80,24
1,63,80,24
1,61,80,48
1,63,80,24
1,61,80,24
1,59,80,48
1,63,80,2112
1,63,80,24
1,63,80,24
1,61,80,48
1,63,80,24
1,61,80,24
1,59,80,48
1,63,80,19104
1,63,80,24
1,63,80,24
1,61,80,48
1,63,80,24
1,61,80,24
1,59,80,48
1,63,80,2112
1,63,80,24
1,63,80,24
1,61,80,48
1,63,80,24
1,61,80,24
1,59,80,48
1,59,80,2112
1,63,80,0
1,59,80,24
1,63,80,0
1,59,80,24
1,63,80,0
1,58,80,48
1,61,80,0
1,58,80,24
1,63,80,0
1,58,80,24
1,61,80,0
1,54,80,48
1,59,80,0
1,63,80,2112
1,63,80,24
1,63,80,24
1,61,80,48
1,63,80,24
1,61,80,24
1,59,80,48
2,66,80,55440
2,66,80,48
2,66,80,528
2,66,80,48
2,66,80,48
2,66,80,48
2,66,80,48
2,64,80,48
2,64,80,168
2,64,80,48
2,64,80,552
2,64,80,48
2,63,80,48
2,63,80,8256
2,63,80,24
2,63,80,48
2,63,80,24
2,59,80,32
2,59,80,32
2,63,80,24
2,63,80,48
2,63,80,24
2,59,80,32
2,59,80,32
2,63,80,24
2,63,80,48
2,63,80,24
2,59,80,32
2,59,80,32
2,66,80,864
2,63,80,24
2,63,80,48
2,63,80,24
2,59,80,32
2,59,80,32
2,63,80,24
2,63,80,48
2,63,80,24
2,59,80,32
2,59,80,32
2,64,80,24
2,64,80,48
2,64,80,24
2,59,80,32
2,59,80,32
2,66,80,17904
2,66,80,48
2,66,80,528
2,66,80,48
2,66,80,48
2,66,80,48
2,66,80,48
2,64,80,48
2,64,80,168
2,64,80,48
2,64,80,552
2,64,80,48
2,63,80,48
2,63,80,8256
2,63,80,24
2,63,80,48
2,63,80,24
2,59,80,32
2,59,80,32
2,63,80,24
2,63,80,48
2,63,80,24
2,59,80,32
2,59,80,32
2,63,80,24
2,63,80,48
2,63,80,24
2,59,80,32
2,59,80,32
2,63,80,864
2,63,80,24
2,63,80,48
2,63,80,24
2,59,80,32
2,59,80,32
2,63,80,24
2,63,80,48
2,63,80,24
2,59,80,32
2,59,80,32
2,63,80,24
2,63,80,48
2,63,80,24
2,59,80,32
2,59,80,32
2,66,80,864
2,63,80,24
2,63,80,48
2,63,80,24
2,59,80,32
2,59,80,32
2,63,80,24
2,63,80,48
2,63,80,24
2,59,80,32
2,59,80,32
2,63,80,24
2,63,80,48
2,63,80,24
2,59,80,32
2,59,80,32
2,63,80,864
2,63,80,24
2,63,80,48
2,63,80,24
2,59,80,32
2,59,80,32
2,63,80,24
2,63,80,48
2,63,80,24
2,59,80,32
2,59,80,32
2,63,80,24
2,63,80,48
2,63,80,24
2,59,80,32
2,59,80,32
2,63,80,18144
2,63,80,24
2,63,80,48
2,63,80,24
2,59,80,32
2,59,80,32
2,63,80,24
2,63,80,48
2,63,80,24
2,59,80,32
2,59,80,32
2,64,80,24
2,64,80,48
2,64,80,24
2,59,80,32
2,59,80,32
2,66,80,864
2,63,80,24
2,63,80,48
2,63,80,24
2,59,80,32
2,59,80,32
2,63,80,24
2,63,80,48
2,63,80,24
2,59,80,32
2,59,80,32
2,63,80,24
2,63,80,48
2,63,80,24
2,59,80,32
2,59,80,32
2,66,80,864
2,63,80,24
2,63,80,48
2,63,80,24
2,59,80,32
2,59,80,32
2,63,80,24
2,63,80,48
2,63,80,24
2,59,80,32
2,59,80,32
2,64,80,24
2,64,80,48
2,64,80,24
2,59,80,32
2,59,80,32
2,63,80,864
2,63,80,24
2,63,80,48
2,63,80,24
2,59,80,32
2,59,80,32
2,63,80,24
2,63,80,48
2,63,80,24
2,59,80,32
2,59,80,32
2,63,80,24
2,63,80,48
2,63,80,24
2,59,80,32
2,59,80,32
3,59,80,0
3,71,80,0
3,66,80,0
3,66,80,48
3,71,80,0
3,59,80,0
3,59,80,48
3,71,80,0
3,66,80,0
3,66,80,48
3,71,80,0
3,59,80,0
3,59,80,15408
3,71,80,0
3,66,80,0
3,59,80,24
3,71,80,0
3,66,80,0
3,59,80,24
3,71,80,0
3,66,80,0
3,59,80,24
3,71,80,0
3,66,80,0
3,59,80,24
3,71,80,0
3,66,80,0
3,59,80,24
3,71,80,0
3,66,80,0
3,59,80,24
3,71,80,0
3,66,80,0
3,59,80,24
3,71,80,0
3,66,80,0
3,54,80,24
3,66,80,0
3,61,80,0
3,54,80,24
3,66,80,0
3,61,80,0
3,54,80,24
3,66,80,0
3,61,80,0
3,54,80,24
3,66,80,0
3,61,80,0
3,54,80,24
3,66,80,0
3,61,80,0
3,54,80,24
3,66,80,0
3,61,80,0
3,54,80,24
3,66,80,0
3,61,80,0
3,54,80,24
3,66,80,0
3,61,80,0
3,64,80,24
3,59,80,0
3,52,80,0
3,64,80,24
3,59,80,0
3,52,80,0
3,64,80,24
3,59,80,0
3,52,80,0
3,64,80,24
3,59,80,0
3,52,80,0
3,64,80,24
3,59,80,0
3,52,80,0
3,64,80,24
3,59,80,0
3,52,80,0
3,64,80,24
3,59,80,0
3,52,80,0
3,64,80,24
3,59,80,0
3,52,80,0
3,64,80,24
3,59,80,0
3,52,80,0
3,64,80,24
3,59,80,0
3,52,80,0
3,64,80,24
3,59,80,0
3,52,80,0
3,64,80,24
3,59,80,0
3,52,80,0
3,64,80,24
3,59,80,0
3,52,80,0
3,64,80,24
3,59,80,0
3,52,80,0
3,64,80,24
3,59,80,0
3,52,80,0
3,64,80,24
3,59,80,0
3,52,80,0
3,66,80,24
3,71,80,0
3,59,80,0
3,66,80,24
3,71,80,0
3,59,80,0
3,66,80,24
3,71,80,0
3,59,80,0
3,66,80,24
3,71,80,0
3,59,80,0
3,71,80,24
3,59,80,0
3,66,80,0
3,66,80,24
3,71,80,0
3,59,80,0
3,66,80,24
3,71,80,0
3,59,80,0
3,66,80,24
3,71,80,0
3,59,80,0
3,68,80,24
3,73,80,0
3,61,80,0
3,68,80,24
3,73,80,0
3,61,80,0
3,68,80,24
3,73,80,0
3,61,80,0
3,68,80,24
3,73,80,0
3,61,80,0
3,68,80,24
3,73,80,0
3,61,80,0
3,68,80,24
3,73,80,0
3,61,80,0
3,68,80,24
3,73,80,0
3,61,80,0
3,68,80,24
3,73,80,0
3,61,80,0
3,52,80,24
3,59,80,0
3,64,80,0
3,52,80,24
3,59,80,0
3,64,80,0
3,52,80,24
3,59,80,0
3,64,80,0
3,52,80,24
3,59,80,0
3,64,80,0
3,52,80,24
3,59,80,0
3,64,80,0
3,52,80,24
3,59,80,0
3,64,80,0
3,52,80,24
3,59,80,0
3,64,80,0
3,52,80,24
3,59,80,0
3,64,80,0
3,64,80,24
3,59,80,0
3,52,80,0
3,64,80,24
3,59,80,0
3,52,80,0
3,64,80,24
3,59,80,0
3,52,80,0
3,64,80,24
3,59,80,0
3,52,80,0
3,64,80,24
3,59,80,0
3,52,80,0
3,64,80,24
3,59,80,0
3,52,80,0
3,64,80,24
3,59,80,0
3,52,80,0
3,64,80,24
3,59,80,0
3,52,80,0
3,66,80,24
3,71,80,0
3,59,80,0
3,66,80,24
3,71,80,0
3,59,80,0
3,66,80,24
3,71,80,0
3,59,80,0
3,66,80,24
3,71,80,0
3,59,80,0
3,66,80,24
3,71,80,0
3,59,80,0
3,66,80,24
3,71,80,0
3,59,80,0
3,66,80,24
3,71,80,0
3,59,80,0
3,66,80,24
3,71,80,0
3,59,80,0
3,61,80,24
3,66,80,0
3,54,80,0
3,61,80,24
3,66,80,0
3,54,80,0
3,61,80,24
3,66,80,0
3,54,80,0
3,61,80,24
3,66,80,0
3,54,80,0
3,61,80,24
3,66,80,0
3,54,80,0
3,61,80,24
3,66,80,0
3,54,80,0
3,61,80,24
3,66,80,0
3,54,80,0
3,61,80,24
3,66,80,0
3,54,80,0
3,64,80,24
3,59,80,0
3,52,80,0
3,64,80,24
3,59,80,0
3,52,80,0
3,64,80,24
3,59,80,0
3,52,80,0
3,64,80,24
3,59,80,0
3,52,80,0
3,64,80,24
3,59,80,0
3,52,80,0
3,64,80,24
3,59,80,0
3,52,80,0
3,52,80,24
3,59,80,0
3,64,80,0
3,52,80,24
3,59,80,0
3,64,80,0
3,52,80,24
3,59,80,0
3,64,80,0
3,52,80,24
3,59,80,0
3,64,80,0
3,52,80,24
3,59,80,0
3,64,80,0
3,52,80,24
3,59,80,0
3,64,80,0
3,52,80,24
3,59,80,0
3,64,80,0
3,59,80,24
3,71,80,0
3,66,80,0
3,59,80,24
3,71,80,0
3,66,80,0
3,59,80,24
3,71,80,0
3,66,80,0
3,59,80,24
3,71,80,0
3,66,80,0
3,59,80,24
3,71,80,0
3,66,80,0
3,59,80,24
3,71,80,0
3,66,80,0
3,59,80,24
3,71,80,0
3,66,80,0
3,59,80,24
3,71,80,0
3,66,80,0
3,61,80,24
3,73,80,0
3,68,80,0
3,61,80,24
3,73,80,0
3,68,80,0
3,61,80,24
3,73,80,0
3,68,80,0
3,61,80,24
3,73,80,0
3,68,80,0
3,61,80,24
3,73,80,0
3,68,80,0
3,61,80,24
3,73,80,0
3,68,80,0
3,61,80,24
3,73,80,0
3,68,80,0
3,61,80,24
3,73,80,0
3,68,80,0
3,64,80,24
3,59,80,0
3,52,80,0
3,64,80,24
3,59,80,0
3,52,80,0
3,64,80,24
3,59,80,0
3,52,80,0
3,64,80,24
3,59,80,0
3,52,80,0
3,64,80,24
3,59,80,0
3,52,80,0
3,64,80,24
3,59,80,0
3,52,80,0
3,64,80,24
3,59,80,0
3,52,80,0
3,64,80,24
3,59,80,0
3,52,80,0
3,64,80,24
3,59,80,0
3,52,80,0
3,64,80,24
3,59,80,0
3,52,80,0
3,64,80,24
3,59,80,0
3,52,80,0
3,64,80,24
3,59,80,0
3,52,80,0
3,64,80,24
3,59,80,0
3,52,80,0
3,64,80,24
3,59,80,0
3,52,80,0
3,64,80,24
3,59,80,0
3,52,80,0
3,64,80,24
3,59,80,0
3,52,80,0
3,66,80,24
3,71,80,0
3,59,80,0
3,66,80,24
3,71,80,0
3,59,80,0
3,66,80,24
3,71,80,0
3,59,80,0
3,66,80,24
3,71,80,0
3,59,80,0
3,66,80,24
3,71,80,0
3,59,80,0
3,66,80,24
3,71,80,0
3,59,80,0
3,66,80,24
3,71,80,0
3,59,80,0
3,66,80,24
3,71,80,0
3,59,80,0
3,59,80,24
3,71,80,0
3,66,80,0
3,66,80,864
3,71,80,0
3,59,80,0
3,66,80,24
3,71,80,0
3,59,80,0
3,66,80,24
3,71,80,0
3,59,80,0
3,66,80,24
3,71,80,0
3,59,80,0
3,66,80,24
3,71,80,0
3,59,80,0
3,66,80,24
3,71,80,0
3,59,80,0
3,66,80,24
3,71,80,0
3,59,80,0
3,66,80,24
3,71,80,0
3,59,80,0
3,61,80,24
3,66,80,0
3,54,80,0
3,61,80,24
3,66,80,0
3,54,80,0
3,61,80,24
3,66,80,0
3,54,80,0
3,61,80,24
3,66,80,0
3,54,80,0
3,61,80,24
3,66,80,0
3,54,80,0
3,61,80,24
3,66,80,0
3,54,80,0
3,61,80,24
3,66,80,0
3,54,80,0
3,61,80,24
3,66,80,0
3,54,80,0
3,52,80,24
3,59,80,0
3,64,80,0
3,52,80,24
3,59,80,0
3,64,80,0
3,52,80,24
3,59,80,0
3,64,80,0
3,52,80,24
3,59,80,0
3,64,80,0
3,52,80,24
3,59,80,0
3,64,80,0
3,52,80,24
3,59,80,0
3,64,80,0
3,52,80,24
3,59,80,0
3,64,80,0
3,52,80,24
3,59,80,0
3,64,80,0
3,52,80,24
