track,note,velocity,time
1,45,100,0
1,52,100,192
1,48,100,64
1,45,100,4
1,52,100,192
1,48,100,64
1,43,100,4
1,52,100,160
1,48,100,112
1,43,100,4
1,52,100,180
1,48,100,64
1,41,100,4
1,52,100,192
1,48,100,64
1,41,100,4
1,52,100,192
1,48,100,64
1,38,100,4
1,52,100,192
1,48,100,64
1,41,100,4
1,52,100,192
1,48,100,64
1,45,100,4
1,52,100,192
1,48,100,64
1,45,100,4
1,52,100,192
1,48,100,64
1,43,100,4
1,52,100,192
1,48,100,64
1,43,100,4
1,52,100,192
1,48,100,64
1,41,100,4
1,52,100,192
1,48,100,64
1,41,100,4
1,52,100,192
1,48,100,64
1,38,100,4
1,52,100,192
1,48,100,64
1,41,100,4
1,52,100,192
1,48,100,64
1,48,100,24580
1,55,100,4
1,53,100,4
1,48,100,4
1,55,100,4
1,53,100,4
1,50,100,4
1,55,100,4
1,53,100,4
1,50,100,4
1,55,100,4
1,53,100,4
1,45,100,4
1,50,100,4
1,48,100,4
1,45,100,4
1,50,100,4
1,48,100,4
1,41,100,4
1,50,100,4
1,48,100,4
1,41,100,4
1,50,100,4
1,48,100,4
1,48,100,4
1,55,100,4
1,53,100,4
1,48,100,4
1,55,100,4
1,53,100,4
1,50,100,4
1,55,100,4
1,53,100,4
1,50,100,4
1,55,100,4
1,53,100,4
1,45,100,4
1,50,100,4
1,48,100,4
1,45,100,4
1,50,100,4
1,48,100,4
1,41,100,4
1,50,100,4
1,48,100,4
1,41,100,4
1,50,100,4
1,48,100,4
1,48,100,12292
1,55,100,4
1,53,100,4
1,48,100,4
1,55,100,4
1,53,100,4
1,50,100,4
1,55,100,4
1,53,100,4
1,50,100,4
1,55,100,4
1,53,100,4
1,45,100,4
1,50,100,4
1,48,100,4
1,45,100,4
1,50,100,4
1,48,100,4
1,41,100,4
1,50,100,4
1,48,100,4
1,41,100,4
1,50,100,4
1,48,100,4
1,48,100,4
1,55,100,4
1,53,100,4
1,48,100,4
1,55,100,4
1,53,100,4
1,50,100,4
1,55,100,4
1,53,100,4
1,50,100,4
1,55,100,4
1,53,100,4
1,45,100,4
1,50,100,4
1,48,100,4
1,45,100,4
1,50,100,4
1,48,100,4
1,41,100,4
1,50,100,4
1,48,100,4
1,41,100,4
1,50,100,4
1,48,100,4
1,45,100,4
1,52,100,192
1,48,100,64
1,45,100,4
1,52,100,192
1,48,100,64
1,43,100,4
1,52,100,192
1,48,100,64
1,43,100,4
1,52,100,192
1,48,100,64
1,41,100,4
1,52,100,192
1,48,100,64
1,41,100,4
1,52,100,192
1,48,100,64
1,38,100,4
1,52,100,192
1,48,100,64
1,41,100,4
1,52,100,192
1,48,100,64
1,45,100,4
1,52,100,192
1,48,100,64
1,45,100,4
1,52,100,192
1,48,100,64
1,43,100,4
1,52,100,192
1,48,100,64
1,43,100,4
1,52,100,192
1,48,100,64
1,41,100,4
1,52,100,192
1,48,100,64
1,41,100,4
1,52,100,192
1,48,100,64
1,38,100,4
1,52,100,192
1,48,100,64
1,41,100,4
1,52,100,192
1,48,100,64
1,48,100,24580
1,55,100,4
1,53,100,4
1,48,100,4
1,55,100,4
1,53,100,4
1,50,100,4
1,55,100,4
1,53,100,4
1,50,100,4
1,55,100,4
1,53,100,4
1,45,100,4
1,50,100,4
1,48,100,4
1,45,100,4
1,50,100,4
1,48,100,4
1,41,100,4
1,50,100,4
1,48,100,4
1,41,100,4
1,50,100,4
1,48,100,4
1,48,100,4
1,55,100,4
1,53,100,4
1,48,100,4
1,55,100,4
1,53,100,4
1,50,100,4
1,55,100,4
1,53,100,4
1,50,100,4
1,55,100,4
1,53,100,4
1,45,100,4
1,50,100,4
1,48,100,4
1,45,100,4
1,50,100,4
1,48,100,4
1,41,100,4
1,50,100,4
1,48,100,4
1,41,100,4
1,50,100,4
1,48,100,4
1,48,100,12292
1,55,100,4
1,53,100,4
1,48,100,4
1,55,100,4
1,53,100,4
1,50,100,4
1,55,100,4
1,53,100,4
1,50,100,4
1,55,100,4
1,53,100,4
1,45,100,4
1,50,100,4
1,48,100,4
1,45,100,4
1,50,100,4
1,48,100,4
1,41,100,4
1,50,100,4
1,48,100,4
1,41,100,4
1,50,100,4
1,48,100,4
1,48,100,4
1,55,100,4
1,53,100,4
1,48,100,4
1,55,100,4
1,53,100,4
1,50,100,4
1,55,100,4
1,53,100,4
1,50,100,4
1,55,100,4
1,53,100,4
1,45,100,4
1,50,100,4
1,48,100,4
1,45,100,4
1,50,100,4
1,48,100,4
1,41,100,4
1,50,100,4
1,48,100,4
1,41,100,4
1,50,100,4
1,48,100,4
1,48,60,4
1,55,60,4
1,53,60,4
1,48,60,4
1,55,60,4
1,53,60,4
1,50,60,4
1,55,60,4
1,53,60,4
1,50,60,4
1,55,60,4
1,53,60,4
1,45,60,4
1,52,60,4
1,50,60,4
1,45,60,4
1,52,60,4
1,50,60,4
1,41,60,4
1,52,60,4
1,50,60,4
1,41,60,4
1,52,60,4
1,50,60,4
1,48,60,4
1,55,60,4
1,53,60,4
1,48,60,4
1,55,60,4
1,53,60,4
1,50,60,4
1,55,60,4
1,53,60,4
1,50,60,4
1,55,60,4
1,53,60,4
1,45,60,4
1,52,60,4
1,50,60,4
1,45,60,4
1,52,60,4
1,50,60,4
1,41,60,4
1,52,60,4
1,50,60,4
1,41,60,4
1,52,60,4
1,50,60,4
1,48,60,4
1,55,60,4
1,53,60,4
1,48,60,4
1,55,60,4
1,53,60,4
1,50,60,4
1,55,60,4
1,53,60,4
1,50,60,4
1,55,60,4
1,53,60,4
1,45,60,4
1,52,60,4
1,50,60,4
1,45,60,4
1,52,60,4
1,50,60,4
1,41,60,4
1,52,60,4
1,50,60,4
1,41,60,4
1,52,60,4
1,50,60,4
1,48,60,4
1,55,60,4
1,53,60,4
1,48,60,4
1,55,60,4
1,53,60,4
1,50,60,4
1,55,60,4
1,53,60,4
1,50,60,4
1,55,60,4
1,53,60,4
1,45,60,4
1,52,60,4
1,50,60,4
1,45,60,4
1,52,60,4
1,50,60,4
1,41,60,4
1,52,60,4
1,50,60,4
1,41,60,4
1,52,60,4
1,50,60,4
1,48,120,12292
1,55,120,4
1,53,120,4
1,48,120,4
1,55,120,4
1,53,120,4
1,50,120,4
1,55,120,4
1,53,120,4
1,50,120,4
1,55,120,4
1,53,120,4
1,45,120,4
1,50,120,4
1,48,120,4
1,45,120,4
1,50,120,4
1,48,120,4
1,41,120,4
1,50,120,4
1,48,120,4
1,41,120,4
1,50,120,4
1,48,120,4
1,48,120,4
1,55,120,4
1,53,120,4
1,48,120,4
1,55,120,4
1,53,120,4
1,50,120,4
1,55,120,4
1,53,120,4
1,50,120,4
1,55,120,4
1,53,120,4
1,45,120,4
1,50,120,4
1,48,120,4
1,45,120,4
1,50,120,4
1,48,120,4
1,41,120,4
1,50,120,4
1,48,120,4
1,41,120,4
1,50,120,4
1,48,120,4
1,48,120,4
1,55,120,4
1,53,120,4
1,48,120,4
1,55,120,4
1,53,120,4
1,50,120,4
1,55,120,4
1,53,120,4
1,50,120,4
1,55,120,4
1,53,120,4
1,45,120,4
1,50,120,4
1,48,120,4
1,45,120,4
1,50,120,4
1,48,120,4
1,41,120,4
1,50,120,4
1,48,120,4
1,41,120,4
1,50,120,4
1,48,120,4
1,48,120,4
1,55,120,4
1,53,120,4
1,48,120,4
1,55,120,4
1,53,120,4
1,50,120,4
1,55,120,4
1,53,120,4
1,50,120,4
1,55,120,4
1,53,120,4
1,45,120,4
1,50,120,4
1,48,120,4
1,45,120,4
1,50,120,4
1,48,120,4
1,41,120,4
1,50,120,4
1,48,120,4
1,41,120,4
1,50,120,4
1,48,120,4
1,48,120,4
2,36,100,12288
2,36,100,64
2,36,100,64
2,36,100,64
2,36,100,64
2,36,100,64
2,36,100,64
2,36,100,64
2,29,100,64
2,29,100,64
2,29,100,64
2,29,100,64
2,29,100,64
2,29,100,64
2,29,100,64
2,29,100,64
2,33,100,64
2,33,100,64
2,33,100,64
2,33,100,64
2,33,100,64
2,33,100,64
2,33,100,64
2,33,100,64
2,29,100,64
2,29,100,64
2,29,100,64
2,29,100,64
2,29,100,64
2,29,100,64
2,29,100,64
2,29,100,64
2,36,100,64
2,36,100,64
2,36,100,64
2,36,100,64
2,36,100,64
2,36,100,64
2,36,100,64
2,36,100,64
2,29,100,64
2,29,100,64
2,29,100,64
2,29,100,64
2,29,100,64
2,29,100,64
2,29,100,64
2,29,100,64
2,33,100,64
2,33,100,64
2,33,100,64
2,33,100,64
2,33,100,64
2,33,100,64
2,33,100,64
2,33,100,64
2,29,100,64
2,29,100,64
2,29,100,64
2,29,100,64
2,29,100,64
2,29,100,64
2,29,100,64
2,29,100,64
2,36,100,64
2,36,100,64
2,36,100,64
2,36,100,64
2,36,100,64
2,36,100,64
2,36,100,64
2,36,100,64
2,29,100,64
2,29,100,64
2,29,100,64
2,29,100,64
2,29,100,64
2,29,100,64
2,29,100,64
2,29,100,64
2,33,100,64
2,33,100,64
2,33,100,64
2,33,100,64
2,33,100,64
2,33,100,64
2,33,100,64
2,33,100,64
2,29,100,64
2,29,100,64
2,29,100,64
2,29,100,64
2,29,100,64
2,29,100,64
2,29,100,64
2,29,100,64
2,36,100,64
2,36,100,64
2,36,100,64
2,36,100,64
2,36,100,64
2,36,100,64
2,36,100,64
2,36,100,64
2,29,100,64
2,29,100,64
2,29,100,64
2,29,100,64
2,29,100,64
2,29,100,64
2,29,100,64
2,29,100,64
2,33,100,64
2,33,100,64
2,33,100,64
2,33,100,64
2,33,100,64
2,33,100,64
2,33,100,64
2,33,100,64
2,29,100,64
2,29,100,64
2,29,100,64
2,29,100,64
2,29,100,64
2,29,100,64
2,29,100,64
2,29,100,64
2,36,100,64
2,36,100,11260
2,36,100,64
2,36,100,64
2,36,100,64
2,36,100,64
2,36,100,64
2,36,100,64
2,36,100,64
2,38,100,64
2,38,100,64
2,38,100,64
2,38,100,64
2,38,100,64
2,38,100,64
2,38,100,64
2,38,100,64
2,33,100,64
2,33,100,64
2,33,100,64
2,33,100,64
2,33,100,64
2,33,100,64
2,33,100,64
2,33,100,64
2,29,100,64
2,29,100,64
2,29,100,64
2,29,100,64
2,29,100,64
2,29,100,64
2,29,100,64
2,29,100,64
2,36,100,64
2,36,100,64
2,36,100,64
2,36,100,64
2,36,100,64
2,36,100,64
2,36,100,64
2,36,100,64
2,38,100,64
2,38,100,64
2,38,100,64
2,38,100,64
2,38,100,64
2,38,100,64
2,38,100,64
2,38,100,64
2,33,100,64
2,33,100,64
2,33,100,64
2,33,100,64
2,33,100,64
2,33,100,64
2,33,100,64
2,33,100,64
2,29,100,64
2,29,100,64
2,29,100,64
2,29,100,64
2,29,100,64
2,29,100,64
2,29,100,64
2,29,100,64
2,36,100,64
2,36,100,64
2,38,100,196
2,38,100,64
2,33,100,196
2,33,100,64
2,29,100,196
2,29,100,64
2,36,100,196
2,36,100,64
2,38,100,196
2,38,100,64
2,33,100,196
2,33,100,64
2,29,100,196
2,29,100,64
2,36,100,12484
2,36,100,64
2,36,100,64
2,36,100,64
2,36,100,64
2,36,100,64
2,36,100,64
2,36,100,64
2,29,100,64
2,29,100,64
2,29,100,64
2,29,100,64
2,29,100,64
2,29,100,64
2,29,100,64
2,29,100,64
2,33,100,64
2,33,100,64
2,33,100,64
2,33,100,64
2,33,100,64
2,33,100,64
2,33,100,64
2,33,100,64
2,29,100,64
2,29,100,64
2,29,100,64
2,29,100,64
2,29,100,64
2,29,100,64
2,29,100,64
2,29,100,64
2,36,100,64
2,36,100,64
2,36,100,64
2,36,100,64
2,36,100,64
2,36,100,64
2,36,100,64
2,36,100,64
2,29,100,64
2,29,100,64
2,29,100,64
2,29,100,64
2,29,100,64
2,29,100,64
2,29,100,64
2,29,100,64
2,33,100,64
2,33,100,64
2,33,100,64
2,33,100,64
2,33,100,64
2,33,100,64
2,33,100,64
2,33,100,64
2,29,100,64
2,29,100,64
2,29,100,64
2,29,100,64
2,29,100,64
2,29,100,64
2,29,100,64
2,29,100,64
2,36,100,64
2,36,100,64
2,36,100,64
2,36,100,64
2,36,100,64
2,36,100,64
2,36,100,64
2,36,100,64
2,29,100,64
2,29,100,64
2,29,100,64
2,29,100,64
2,29,100,64
2,29,100,64
2,29,100,64
2,29,100,64
2,33,100,64
2,33,100,64
2,33,100,64
2,33,100,64
2,33,100,64
2,33,100,64
2,33,100,64
2,33,100,64
2,29,100,64
2,29,100,64
2,29,100,64
2,29,100,64
2,29,100,64
2,29,100,64
2,29,100,64
2,29,100,64
2,36,100,64
2,36,100,64
2,36,100,64
2,36,100,64
2,36,100,64
2,36,100,64
2,36,100,64
2,36,100,64
2,29,100,64
2,29,100,64
2,29,100,64
2,29,100,64
2,29,100,64
2,29,100,64
2,29,100,64
2,29,100,64
2,33,100,64
2,33,100,64
2,33,100,64
2,33,100,64
2,33,100,64
2,33,100,64
2,33,100,64
2,33,100,64
2,29,100,64
2,29,100,64
2,29,100,64
2,29,100,64
2,29,100,64
2,29,100,64
2,29,100,64
2,29,100,64
2,36,100,64
2,36,100,11260
2,36,100,64
2,36,100,64
2,36,100,64
2,36,100,64
2,36,100,64
2,36,100,64
2,36,100,64
2,38,100,64
2,38,100,64
2,38,100,64
2,38,100,64
2,38,100,64
2,38,100,64
2,38,100,64
2,38,100,64
2,33,100,64
2,33,100,64
2,33,100,64
2,33,100,64
2,33,100,64
2,33,100,64
2,33,100,64
2,33,100,64
2,29,100,64
2,29,100,64
2,29,100,64
2,29,100,64
2,29,100,64
2,29,100,64
2,29,100,64
2,29,100,64
2,36,100,64
2,36,100,64
2,36,100,64
2,36,100,64
2,36,100,64
2,36,100,64
2,36,100,64
2,36,100,64
2,38,100,64
2,38,100,64
2,38,100,64
2,38,100,64
2,38,100,64
2,38,100,64
2,38,100,64
2,38,100,64
2,33,100,64
2,33,100,64
2,33,100,64
2,33,100,64
2,33,100,64
2,33,100,64
2,33,100,64
2,33,100,64
2,29,100,64
2,29,100,64
2,29,100,64
2,29,100,64
2,29,100,64
2,29,100,64
2,29,100,64
2,29,100,64
2,36,100,64
2,36,100,64
2,38,100,196
2,38,100,64
2,33,100,196
2,33,100,64
2,29,100,196
2,29,100,64
2,36,100,196
2,36,100,64
2,38,100,196
2,38,100,64
2,33,100,196
2,33,100,64
2,29,100,196
2,29,100,64
2,36,100,196
2,41,100,4
2,43,100,4
2,41,100,4
2,36,100,4
2,41,100,4
2,43,100,4
2,45,100,4
2,41,100,768
2,36,100,4
2,41,100,4
2,43,100,4
2,41,100,4
2,36,100,4
2,41,100,4
2,43,100,4
2,45,100,4
2,41,100,4
2,36,100,4
2,41,100,4
2,43,100,4
2,41,100,4
2,36,100,4
2,41,100,4
2,43,100,4
2,45,100,4
2,41,100,4
2,36,100,4
2,36,100,64
2,38,100,196
2,38,100,64
2,33,100,196
2,33,100,64
2,29,100,196
2,29,100,64
2,36,100,196
2,36,100,64
2,38,100,196
2,38,100,64
2,33,100,196
2,33,100,64
2,29,100,196
2,29,100,64
2,36,100,196
2,36,100,64
2,38,100,196
2,38,100,64
2,33,100,196
2,33,100,64
2,29,100,196
2,29,100,64
2,36,100,196
2,36,100,64
2,38,100,196
2,38,100,64
2,33,100,196
2,33,100,64
2,29,100,196
2,29,100,64
2,36,120,196
3,64,100,61440
3,62,100,4
3,60,100,4
3,62,100,4
3,64,100,4
3,62,100,4
3,60,100,4
3,62,100,4
3,64,100,61444
3,62,100,4
3,60,100,4
3,62,100,4
3,64,100,4
3,62,100,4
3,60,100,4
3,62,100,4
3,64,100,36868
3,62,100,4
3,60,100,4
3,62,100,4
3,64,100,4
3,62,100,4
3,60,100,4
3,62,100,4
3,64,100,4
3,62,100,4
3,60,100,4
3,62,100,4
3,64,100,4
3,62,100,4
3,60,100,4
3,62,100,4
4,60,100,49152
4,60,100,4
4,60,100,4
4,60,100,4
4,60,100,4
4,60,100,4
4,60,100,4
4,60,100,4
4,62,100,4
