track,note,velocity,time
0,52,100,0
0,57,100,0
0,52,100,0
0,57,100,0
0,57,0,120
0,52,0,0
0,52,100,0
0,57,100,0
0,57,0,120
0,52,0,0
0,52,100,0
0,57,100,0
0,57,0,120
0,52,0,0
0,52,100,0
0,57,100,0
0,57,0,120
0,52,0,0
0,52,100,0
0,57,100,0
0,57,0,120
0,52,0,0
0,52,100,0
0,57,100,0
0,57,0,120
0,52,0,0
0,52,100,0
0,57,100,0
0,57,0,120
0,52,0,0
0,57,100,0
0,52,100,0
0,45,100,0
0,33,100,0
0,55,100,0
0,35,100,0
0,35,0,60
0,45,0,60
0,52,0,0
0,57,0,0
0,45,100,0
0,57,100,0
0,33,0,0
0,33,100,0
0,55,0,0
0,57,65,0
0,35,100,60
0,57,0,60
0,45,0,0
0,45,100,0
0,64,100,0
0,33,0,0
0,33,100,0
0,35,0,0
0,57,0,0
0,50,100,0
0,40,100,0
0,57,65,0
0,40,0,60
0,50,0,0
0,45,0,60
0,45,100,0
0,57,100,0
0,33,0,0
0,33,100,0
0,57,0,0
0,35,100,0
0,57,65,0
0,35,0,60
0,57,0,60
0,45,0,0
0,64,0,0
0,45,100,0
0,33,0,0
0,33,100,0
0,57,0,0
0,57,65,0
0,50,100,60
0,40,100,0
0,45,0,60
0,45,100,0
0,57,100,0
0,33,0,0
0,33,100,0
0,40,0,0
0,50,0,0
0,57,0,0
0,57,65,0
0,35,100,60
0,57,0,60
0,45,0,0
0,45,100,0
0,64,100,0
0,33,0,0
0,33,100,0
0,35,0,0
0,57,0,0
0,50,100,0
0,40,100,0
0,57,65,0
0,40,0,60
0,50,0,0
0,35,100,0
0,45,0,60
0,45,100,0
0,57,100,0
0,33,0,0
0,33,100,0
0,35,0,0
0,57,0,0
0,57,65,0
0,57,0,120
0,45,0,0
0,64,0,0
0,49,100,0
0,33,0,0
0,37,100,0
0,57,0,0
0,35,100,0
0,57,65,0
0,35,0,60
0,49,0,60
0,49,100,0
0,57,100,0
0,37,0,0
0,37,100,0
0,57,0,0
0,57,65,0
0,35,100,60
0,57,0,60
0,49,0,0
0,49,100,0
0,64,100,0
0,37,0,0
0,37,100,0
0,35,0,0
0,57,0,0
0,50,100,0
0,40,100,0
0,57,65,0
0,40,0,60
0,50,0,0
0,49,0,60
0,49,100,0
0,57,100,0
0,37,0,0
0,37,100,0
0,57,0,0
0,50,100,0
0,40,100,0
0,57,65,0
0,40,0,60
0,50,0,0
0,35,100,0
0,57,0,60
0,49,0,0
0,64,0,0
0,50,100,0
0,37,0,0
0,38,100,0
0,35,0,0
0,57,0,0
0,57,65,0
0,40,100,60
0,50,100,0
0,50,0,60
0,50,100,0
0,57,100,0
0,38,0,0
0,38,100,0
0,50,0,0
0,40,0,0
0,57,0,0
0,57,65,0
0,35,100,60
0,57,0,60
0,50,0,0
0,50,100,0
0,64,100,0
0,38,0,0
0,38,100,0
0,35,0,0
0,57,0,0
0,50,100,0
0,40,100,0
0,57,65,0
0,40,0,60
0,50,0,0
0,50,100,0
0,40,100,0
0,50,0,60
0,50,100,0
0,57,100,0
0,38,0,0
0,38,100,0
0,40,0,0
0,50,0,0
0,57,0,0
0,57,65,0
0,57,0,120
0,50,0,0
0,64,0,0
0,45,100,0
0,38,0,0
0,33,100,0
0,57,0,0
0,55,100,0
0,35,100,0
0,35,0,60
0,45,0,60
0,45,100,0
0,57,100,0
0,33,0,0
0,33,100,0
0,55,0,0
0,57,65,0
0,35,100,60
0,57,0,60
0,45,0,0
0,45,100,0
0,64,100,0
0,33,0,0
0,33,100,0
0,35,0,0
0,57,0,0
0,50,100,0
0,40,100,0
0,57,65,0
0,40,0,60
0,50,0,0
0,45,0,60
0,45,100,0
0,57,100,0
0,33,0,0
0,33,100,0
0,57,0,0
0,35,100,0
0,57,65,0
0,35,0,60
0,57,0,60
0,45,0,0
0,64,0,0
0,45,100,0
0,33,0,0
0,33,100,0
0,57,0,0
0,57,65,0
0,50,100,60
0,40,100,0
0,45,0,60
0,45,100,0
0,57,100,0
0,33,0,0
0,33,100,0
0,40,0,0
0,50,0,0
0,57,0,0
0,57,65,0
0,35,100,60
0,57,0,60
0,45,0,0
0,45,100,0
0,64,100,0
0,33,0,0
0,33,100,0
0,35,0,0
0,57,0,0
0,50,100,0
0,40,100,0
0,57,65,0
0,40,0,60
0,50,0,0
0,45,0,60
0,45,100,0
0,57,100,0
0,33,0,0
0,33,100,0
0,57,0,0
0,57,65,0
0,35,100,60
0,57,0,60
0,45,0,0
0,64,0,0
0,49,100,0
0,33,0,0
0,37,100,0
0,35,0,0
0,57,0,0
0,50,100,0
0,40,100,0
0,57,65,0
0,40,0,60
0,50,0,0
0,49,0,60
0,49,100,0
0,57,100,0
0,37,0,0
0,37,100,0
0,57,0,0
0,35,100,0
0,57,65,0
0,35,0,60
0,47,100,0
0,50,100,0
0,57,0,60
0,49,0,0
0,49,100,0
0,64,100,0
0,37,0,0
0,37,100,0
0,50,0,0
0,47,0,0
0,57,0,0
0,57,65,0
0,35,100,60
0,49,0,60
0,49,100,0
0,57,100,0
0,37,0,0
0,37,100,0
0,35,0,0
0,57,0,0
0,50,100,0
0,40,100,0
0,57,65,0
0,40,0,60
0,50,0,0
0,57,0,60
0,49,0,0
0,64,0,0
0,50,100,0
0,37,0,0
0,38,100,0
0,57,0,0
0,35,100,0
0,57,65,0
0,35,0,60
0,50,100,0
0,47,100,0
0,50,0,60
0,50,100,0
0,57,100,0
0,38,0,0
0,38,100,0
0,47,0,0
0,50,0,0
0,57,0,0
0,57,65,0
0,35,100,60
0,57,0,60
0,50,0,0
0,50,100,0
0,64,100,0
0,38,0,0
0,38,100,0
0,35,0,0
0,57,0,0
0,35,100,0
0,45,100,0
0,45,0,60
0,35,0,0
0,45,100,0
0,35,100,0
0,50,0,60
0,50,100,0
0,57,100,0
0,38,0,0
0,38,100,0
0,35,0,0
0,45,0,0
0,50,100,0
0,40,100,0
0,40,0,60
0,50,0,0
0,57,0,60
0,50,0,0
0,64,0,0
0,45,100,0
0,38,0,0
0,33,100,0
0,55,100,0
0,35,100,0
0,35,0,60
0,45,0,60
0,45,100,0
0,57,100,0
0,33,0,0
0,33,100,0
0,55,0,0
0,57,65,0
0,35,100,60
0,57,0,60
0,45,0,0
0,45,100,0
0,64,100,0
0,33,0,0
0,33,100,0
0,35,0,0
0,57,0,0
0,50,100,0
0,40,100,0
0,57,65,0
0,40,0,60
0,50,0,0
0,45,0,60
0,45,100,0
0,57,100,0
0,33,0,0
0,33,100,0
0,57,0,0
0,35,100,0
0,57,65,0
0,35,0,60
0,57,0,60
0,45,0,0
0,64,0,0
0,45,100,0
0,33,0,0
0,33,100,0
0,57,0,0
0,57,65,0
0,50,100,60
0,40,100,0
0,45,0,60
0,45,100,0
0,57,100,0
0,33,0,0
0,33,100,0
0,40,0,0
0,50,0,0
0,57,0,0
0,57,65,0
0,35,100,60
0,57,0,60
0,45,0,0
0,45,100,0
0,64,100,0
0,33,0,0
0,33,100,0
0,35,0,0
0,57,0,0
0,50,100,0
0,40,100,0
0,57,65,0
0,40,0,60
0,50,0,0
0,45,0,60
0,45,100,0
0,57,100,0
0,33,0,0
0,33,100,0
0,57,0,0
0,35,100,0
0,57,65,0
0,35,0,60
0,57,0,60
0,45,0,0
0,64,0,0
0,49,100,0
0,33,0,0
0,37,100,0
0,57,0,0
0,35,100,0
0,57,65,0
0,35,0,60
0,49,0,60
0,49,100,0
0,57,100,0
0,37,0,0
0,37,100,0
0,57,0,0
0,57,65,0
0,35,100,60
0,57,0,60
0,49,0,0
0,49,100,0
0,64,100,0
0,37,0,0
0,37,100,0
0,35,0,0
0,57,0,0
0,50,100,0
0,40,100,0
0,57,65,0
0,40,0,60
0,50,0,0
0,49,0,60
0,49,100,0
0,57,100,0
0,37,0,0
0,37,100,0
0,57,0,0
0,50,100,0
0,40,100,0
0,57,65,0
0,40,0,60
0,50,0,0
0,35,100,0
0,57,0,60
0,49,0,0
0,64,0,0
0,50,100,0
0,37,0,0
0,38,100,0
0,35,0,0
0,57,0,0
0,57,65,0
0,40,100,60
0,50,100,0
0,50,0,60
0,50,100,0
0,57,100,0
0,38,0,0
0,38,100,0
0,50,0,0
0,40,0,0
0,57,0,0
0,57,65,0
0,35,100,60
0,57,0,60
0,50,0,0
0,50,100,0
0,64,100,0
0,38,0,0
0,38,100,0
0,35,0,0
0,57,0,0
0,50,100,0
0,40,100,0
0,57,65,0
0,40,0,60
0,50,0,0
0,50,100,0
0,40,100,0
0,50,0,60
0,50,100,0
0,57,100,0
0,38,0,0
0,38,100,0
0,40,0,0
0,50,0,0
0,57,0,0
0,57,65,0
0,57,0,120
0,50,0,0
0,64,0,0
0,45,100,0
0,38,0,0
0,33,100,0
0,57,0,0
0,55,100,0
0,35,100,0
0,35,0,60
0,45,0,60
0,45,100,0
0,57,100,0
0,33,0,0
0,33,100,0
0,55,0,0
0,57,65,0
0,35,100,60
0,57,0,60
0,45,0,0
0,45,100,0
0,64,100,0
0,33,0,0
0,33,100,0
0,35,0,0
0,57,0,0
0,50,100,0
0,40,100,0
0,57,65,0
0,40,0,60
0,50,0,0
0,45,0,60
0,45,100,0
0,57,100,0
0,33,0,0
0,33,100,0
0,57,0,0
0,35,100,0
0,57,65,0
0,35,0,60
0,57,0,60
0,45,0,0
0,64,0,0
0,45,100,0
0,33,0,0
0,33,100,0
0,57,0,0
0,57,65,0
0,50,100,60
0,40,100,0
0,45,0,60
0,45,100,0
0,57,100,0
0,33,0,0
0,33,100,0
0,40,0,0
0,50,0,0
0,57,0,0
0,57,65,0
0,35,100,60
0,57,0,60
0,45,0,0
0,45,100,0
0,64,100,0
0,33,0,0
0,33,100,0
0,35,0,0
0,57,0,0
0,50,100,0
0,40,100,0
0,57,65,0
0,40,0,60
0,50,0,0
0,45,0,60
0,45,100,0
0,57,100,0
0,33,0,0
0,33,100,0
0,57,0,0
0,57,65,0
0,35,100,60
0,57,0,60
0,45,0,0
0,64,0,0
0,49,100,0
0,33,0,0
0,37,100,0
0,35,0,0
0,57,0,0
0,50,100,0
0,40,100,0
0,40,0,60
0,50,0,0
0,50,100,0
0,40,100,0
0,49,0,60
0,49,100,0
0,57,100,0
0,37,0,0
0,37,100,0
0,40,0,0
0,50,0,0
0,69,100,0
0,35,100,0
0,35,0,60
0,35,100,0
0,57,0,60
0,49,0,0
0,49,100,0
0,64,100,0
0,37,0,0
0,37,100,0
0,35,0,0
0,69,0,0
0,50,100,0
0,40,100,0
0,40,0,60
0,50,0,0
0,49,0,60
0,49,100,0
0,57,100,0
0,37,0,0
0,37,100,0
0,50,100,0
0,40,100,0
0,40,0,60
0,50,0,0
0,50,100,0
0,40,100,0
0,57,0,60
0,49,0,0
0,64,0,0
0,50,100,0
0,37,0,0
0,38,100,0
0,40,0,0
0,50,0,0
0,69,100,0
0,35,100,0
0,35,0,60
0,35,100,0
0,50,0,60
0,50,100,0
0,57,100,0
0,38,0,0
0,38,100,0
0,35,0,0
0,69,0,0
0,50,100,0
0,40,100,0
0,40,0,60
0,50,0,0
0,35,100,0
0,50,100,0
0,64,100,0
0,38,0,0
0,38,100,0
0,35,0,0
0,50,100,0
0,40,100,0
0,64,100,0
0,40,0,60
0,50,0,0
0,47,100,0
0,50,100,0
0,50,100,0
0,57,100,0
0,38,0,0
0,38,100,0
0,50,0,0
0,47,0,0
0,43,100,0
0,47,100,0
0,64,0,0
0,61,100,0
0,47,0,60
0,43,0,0
0,52,100,0
0,45,100,0
0,38,0,0
0,33,100,0
0,55,100,0
0,35,100,0
0,69,100,0
0,35,100,0
0,61,0,0
0,64,100,0
0,35,0,60
0,69,0,0
0,33,100,0
0,35,0,0
0,44,100,0
0,64,0,0
0,61,100,0
0,44,0,60
0,35,100,0
0,33,0,60
0,33,100,0
0,35,0,0
0,65,40,0
0,54,120,0
0,44,100,0
0,44,0,60
0,54,0,0
0,65,0,0
0,33,100,0
0,44,100,0
0,61,0,0
0,57,100,0
0,44,0,60
0,69,100,0
0,35,100,0
0,33,100,0
0,55,0,0
0,35,0,0
0,69,0,0
0,44,100,0
0,57,0,0
0,64,100,0
0,44,0,60
0,54,40,0
0,33,0,60
0,33,100,0
0,54,0,0
0,69,100,0
0,44,100,0
0,35,100,0
0,35,0,60
0,44,0,0
0,69,0,0
0,33,0,60
0,33,100,0
0,65,40,0
0,54,120,0
0,44,100,0
0,64,0,0
0,44,0,60
0,54,0,0
0,65,0,0
0,35,100,0
0,33,100,0
0,35,0,0
0,44,100,0
0,64,100,0
0,44,0,60
0,54,40,0
0,37,100,0
0,54,0,0
0,69,100,0
0,35,100,0
0,64,0,0
0,64,100,0
0,35,0,60
0,69,0,0
0,37,100,0
0,44,100,0
0,64,0,0
0,61,100,0
0,44,0,60
0,35,100,0
0,37,100,0
0,35,0,0
0,65,40,0
0,54,120,0
0,44,100,0
0,61,0,0
0,64,100,0
0,44,0,60
0,54,0,0
0,65,0,0
0,37,100,0
0,44,100,0
0,64,0,0
0,61,100,0
0,44,0,60
0,69,100,0
0,35,100,0
0,38,100,0
0,35,0,0
0,69,0,0
0,44,100,0
0,61,0,0
0,64,100,0
0,44,0,60
0,54,40,0
0,38,100,0
0,54,0,0
0,69,100,0
0,44,100,0
0,35,100,0
0,64,0,0
0,61,100,0
0,35,0,60
0,44,0,0
0,69,0,0
0,38,100,0
0,65,40,0
0,54,120,0
0,44,100,0
0,61,0,0
0,64,100,0
0,44,0,60
0,54,0,0
0,65,0,0
0,35,100,0
0,38,100,0
0,35,0,0
0,44,100,0
0,64,0,0
0,61,100,0
0,44,0,60
0,54,40,0
0,33,100,0
0,54,0,0
0,69,100,0
0,35,100,0
0,61,0,0
0,64,100,0
0,35,0,60
0,69,0,0
0,33,0,60
0,33,100,0
0,44,100,0
0,44,0,60
0,35,100,0
0,33,100,0
0,35,0,0
0,65,40,0
0,54,120,0
0,44,100,0
0,64,0,0
0,61,100,0
0,44,0,60
0,54,0,0
0,65,0,0
0,33,0,60
0,33,100,0
0,44,100,0
0,44,0,60
0,69,100,0
0,35,100,0
0,33,0,60
0,33,100,0
0,35,0,0
0,69,0,0
0,44,100,0
0,61,0,0
0,44,0,60
0,54,40,0
0,33,100,0
0,54,0,0
0,69,100,0
0,44,100,0
0,35,100,0
0,61,100,0
0,35,0,60
0,44,0,0
0,69,0,0
0,33,100,0
0,65,40,0
0,54,120,0
0,44,100,0
0,61,0,0
0,64,100,0
0,44,0,60
0,54,0,0
0,65,0,0
0,35,100,0
0,33,100,0
0,35,0,0
0,44,100,0
0,64,0,0
0,61,100,0
0,44,0,60
0,54,40,0
0,37,100,0
0,54,0,0
0,69,100,0
0,35,100,0
0,61,0,0
0,64,100,0
0,35,0,60
0,69,0,0
0,37,0,60
0,37,100,0
0,44,100,0
0,44,0,60
0,35,100,0
0,37,100,0
0,35,0,0
0,65,40,0
0,54,120,0
0,44,100,0
0,64,0,0
0,61,100,0
0,44,0,60
0,54,0,0
0,65,0,0
0,37,0,60
0,37,100,0
0,44,100,0
0,44,0,60
0,69,100,0
0,35,100,0
0,37,0,60
0,38,100,0
0,35,0,0
0,69,0,0
0,44,100,0
0,61,0,0
0,62,100,0
0,44,0,60
0,54,40,0
0,38,0,60
0,38,100,0
0,54,0,0
0,69,100,0
0,44,100,0
0,35,100,0
0,35,0,60
0,44,0,0
0,69,0,0
0,38,100,0
0,65,40,0
0,54,120,0
0,44,100,0
0,62,0,0
0,64,100,0
0,44,0,60
0,54,0,0
0,65,0,0
0,35,100,0
0,38,100,0
0,35,0,0
0,44,100,0
0,64,0,0
0,64,100,0
0,44,0,60
0,54,40,0
0,33,100,0
0,54,0,0
0,69,100,0
0,35,100,0
0,64,0,0
0,64,100,0
0,35,0,60
0,69,0,0
0,33,100,0
0,44,100,0
0,64,0,0
0,61,100,0
0,44,0,60
0,35,100,0
0,33,0,60
0,33,100,0
0,35,0,0
0,65,40,0
