track,note,velocity,time
0.0,59.0,80.0,0.0
0.0,71.0,80.0,0.0
0.0,66.0,80.0,0.0
0.0,66.0,80.0,0.0
0.0,71.0,80.0,0.0
0.0,59.0,80.0,0.0
0.0,35.0,80.0,0.0
0.0,49.0,80.0,0.0
0.0,36.0,80.0,0.0
0.0,57.0,80.0,0.0
0.0,49.0,80.0,24.0
0.0,40.0,80.0,0.0
0.0,49.0,80.0,24.0
0.0,36.0,80.0,0.0
0.0,49.0,80.0,24.0
0.0,40.0,80.0,0.0
0.0,49.0,80.0,24.0
0.0,36.0,80.0,0.0
0.0,49.0,80.0,24.0
0.0,40.0,80.0,0.0
0.0,49.0,80.0,24.0
0.0,36.0,80.0,0.0
0.0,49.0,80.0,24.0
0.0,40.0,80.0,0.0
0.0,36.0,80.0,24.0
0.0,49.0,80.0,0.0
0.0,40.0,80.0,24.0
0.0,49.0,80.0,0.0
0.0,36.0,80.0,24.0
0.0,49.0,80.0,0.0
0.0,40.0,80.0,24.0
0.0,49.0,80.0,0.0
0.0,36.0,80.0,24.0
0.0,49.0,80.0,0.0
0.0,40.0,80.0,24.0
0.0,49.0,80.0,0.0
0.0,36.0,80.0,24.0
0.0,49.0,80.0,0.0
0.0,40.0,80.0,24.0
0.0,49.0,80.0,0.0
0.0,66.0,80.0,48.0
0.0,71.0,80.0,0.0
0.0,59.0,80.0,0.0
0.0,59.0,80.0,0.0
0.0,71.0,80.0,0.0
0.0,66.0,80.0,0.0
0.0,35.0,80.0,0.0
0.0,36.0,80.0,0.0
0.0,49.0,80.0,0.0
0.0,57.0,80.0,0.0
0.0,40.0,80.0,24.0
0.0,49.0,80.0,0.0
0.0,36.0,80.0,24.0
0.0,49.0,80.0,0.0
0.0,40.0,80.0,24.0
0.0,49.0,80.0,0.0
0.0,36.0,80.0,24.0
0.0,49.0,80.0,0.0
0.0,40.0,80.0,24.0
0.0,49.0,80.0,0.0
0.0,36.0,80.0,24.0
0.0,49.0,80.0,0.0
0.0,40.0,80.0,24.0
0.0,49.0,80.0,0.0
0.0,36.0,80.0,24.0
0.0,49.0,80.0,0.0
0.0,40.0,80.0,24.0
0.0,49.0,80.0,0.0
0.0,36.0,80.0,24.0
0.0,49.0,80.0,0.0
0.0,40.0,80.0,24.0
0.0,49.0,80.0,0.0
0.0,36.0,80.0,24.0
0.0,49.0,80.0,0.0
0.0,40.0,80.0,24.0
0.0,49.0,80.0,0.0
0.0,36.0,80.0,24.0
0.0,49.0,80.0,0.0
0.0,40.0,80.0,24.0
0.0,49.0,80.0,0.0
0.0,59.0,80.0,48.0
0.0,71.0,80.0,0.0
0.0,66.0,80.0,0.0
0.0,59.0,80.0,0.0
0.0,71.0,80.0,0.0
0.0,66.0,80.0,0.0
0.0,35.0,80.0,0.0
0.0,57.0,80.0,0.0
0.0,36.0,80.0,0.0
0.0,49.0,80.0,0.0
0.0,40.0,80.0,24.0
0.0,49.0,80.0,0.0
0.0,36.0,80.0,24.0
0.0,49.0,80.0,0.0
0.0,40.0,80.0,24.0
0.0,49.0,80.0,0.0
0.0,36.0,80.0,24.0
0.0,49.0,80.0,0.0
0.0,40.0,80.0,24.0
0.0,49.0,80.0,0.0
0.0,36.0,80.0,24.0
0.0,49.0,80.0,0.0
0.0,40.0,80.0,24.0
0.0,49.0,80.0,0.0
0.0,49.0,80.0,24.0
0.0,36.0,80.0,0.0
0.0,49.0,80.0,24.0
0.0,40.0,80.0,0.0
0.0,49.0,80.0,24.0
0.0,36.0,80.0,0.0
0.0,49.0,80.0,24.0
0.0,40.0,80.0,0.0
0.0,49.0,80.0,24.0
0.0,36.0,80.0,0.0
0.0,49.0,80.0,24.0
0.0,40.0,80.0,0.0
0.0,49.0,80.0,24.0
0.0,36.0,80.0,0.0
0.0,49.0,80.0,24.0
0.0,40.0,80.0,0.0
0.0,66.0,80.0,48.0
0.0,71.0,80.0,0.0
0.0,59.0,80.0,0.0
0.0,66.0,80.0,0.0
0.0,71.0,80.0,0.0
0.0,59.0,80.0,0.0
0.0,35.0,80.0,0.0
0.0,57.0,80.0,0.0
0.0,49.0,80.0,0.0
0.0,36.0,80.0,0.0
0.0,49.0,80.0,24.0
0.0,40.0,80.0,0.0
0.0,49.0,80.0,24.0
0.0,36.0,80.0,0.0
0.0,49.0,80.0,24.0
0.0,40.0,80.0,0.0
0.0,49.0,80.0,24.0
0.0,36.0,80.0,0.0
0.0,49.0,80.0,24.0
0.0,40.0,80.0,0.0
0.0,49.0,80.0,24.0
0.0,36.0,80.0,0.0
0.0,49.0,80.0,24.0
0.0,40.0,80.0,0.0
0.0,49.0,80.0,24.0
0.0,36.0,80.0,0.0
0.0,49.0,80.0,24.0
0.0,40.0,80.0,0.0
0.0,49.0,80.0,24.0
0.0,36.0,80.0,0.0
0.0,49.0,80.0,24.0
0.0,40.0,80.0,0.0
0.0,49.0,80.0,24.0
0.0,36.0,80.0,0.0
0.0,57.0,80.0,24.0
0.0,49.0,80.0,0.0
0.0,40.0,80.0,0.0
0.0,49.0,80.0,24.0
0.0,36.0,80.0,0.0
0.0,49.0,80.0,24.0
0.0,40.0,80.0,0.0
0.0,66.0,80.0,48.0
0.0,71.0,80.0,0.0
0.0,59.0,80.0,0.0
0.0,35.0,80.0,0.0
0.0,35.0,80.0,0.0
0.0,57.0,80.0,0.0
0.0,42.0,80.0,0.0
0.0,36.0,80.0,0.0
0.0,42.0,80.0,24.0
0.0,40.0,80.0,0.0
0.0,40.0,80.0,48.0
0.0,42.0,80.0,0.0
0.0,43.0,80.0,24.0
0.0,35.0,80.0,0.0
0.0,36.0,80.0,0.0
0.0,42.0,80.0,0.0
0.0,40.0,80.0,0.0
0.0,35.0,80.0,24.0
0.0,35.0,80.0,0.0
0.0,42.0,80.0,0.0
0.0,36.0,80.0,0.0
0.0,40.0,80.0,24.0
0.0,40.0,80.0,0.0
0.0,42.0,80.0,0.0
0.0,35.0,80.0,24.0
0.0,42.0,80.0,0.0
0.0,43.0,80.0,24.0
0.0,35.0,80.0,0.0
0.0,36.0,80.0,0.0
0.0,42.0,80.0,0.0
0.0,40.0,80.0,0.0
0.0,44.0,80.0,24.0
0.0,44.0,80.0,0.0
0.0,36.0,80.0,0.0
0.0,42.0,80.0,0.0
0.0,40.0,80.0,24.0
0.0,42.0,80.0,0.0
0.0,46.0,80.0,48.0
0.0,42.0,80.0,0.0
0.0,47.0,80.0,24.0
0.0,44.0,80.0,0.0
0.0,40.0,80.0,0.0
0.0,42.0,80.0,0.0
0.0,36.0,80.0,0.0
0.0,44.0,80.0,24.0
0.0,44.0,80.0,0.0
0.0,36.0,80.0,0.0
0.0,42.0,80.0,0.0
0.0,47.0,80.0,24.0
0.0,42.0,80.0,0.0
0.0,40.0,80.0,0.0
0.0,44.0,80.0,24.0
0.0,44.0,80.0,0.0
0.0,42.0,80.0,0.0
0.0,47.0,80.0,24.0
0.0,40.0,80.0,0.0
0.0,42.0,80.0,0.0
0.0,36.0,80.0,0.0
0.0,59.0,80.0,24.0
0.0,71.0,80.0,0.0
0.0,66.0,80.0,0.0
0.0,40.0,80.0,0.0
0.0,40.0,80.0,0.0
0.0,36.0,80.0,0.0
0.0,42.0,80.0,0.0
0.0,40.0,80.0,24.0
0.0,42.0,80.0,0.0
0.0,44.0,80.0,48.0
0.0,42.0,80.0,0.0
0.0,47.0,80.0,24.0
0.0,40.0,80.0,0.0
0.0,40.0,80.0,0.0
0.0,42.0,80.0,0.0
0.0,36.0,80.0,0.0
0.0,40.0,80.0,24.0
0.0,40.0,80.0,0.0
0.0,36.0,80.0,0.0
0.0,42.0,80.0,0.0
0.0,47.0,80.0,24.0
0.0,42.0,80.0,0.0
0.0,40.0,80.0,0.0
0.0,40.0,80.0,24.0
0.0,42.0,80.0,0.0
0.0,47.0,80.0,24.0
0.0,40.0,80.0,0.0
0.0,40.0,80.0,0.0
0.0,42.0,80.0,0.0
0.0,36.0,80.0,0.0
0.0,40.0,80.0,24.0
0.0,40.0,80.0,0.0
0.0,36.0,80.0,0.0
0.0,42.0,80.0,0.0
0.0,40.0,80.0,24.0
0.0,42.0,80.0,0.0
0.0,44.0,80.0,48.0
0.0,42.0,80.0,0.0
0.0,47.0,80.0,24.0
0.0,40.0,80.0,0.0
0.0,40.0,80.0,0.0
0.0,42.0,80.0,0.0
0.0,36.0,80.0,0.0
0.0,40.0,80.0,24.0
0.0,40.0,80.0,0.0
0.0,36.0,80.0,0.0
0.0,42.0,80.0,0.0
0.0,47.0,80.0,24.0
0.0,42.0,80.0,0.0
0.0,40.0,80.0,0.0
0.0,40.0,80.0,24.0
0.0,40.0,80.0,0.0
0.0,42.0,80.0,0.0
0.0,47.0,80.0,24.0
0.0,40.0,80.0,0.0
0.0,42.0,80.0,0.0
0.0,36.0,80.0,0.0
0.0,59.0,80.0,24.0
0.0,71.0,80.0,0.0
0.0,66.0,80.0,0.0
0.0,35.0,80.0,0.0
0.0,35.0,80.0,0.0
0.0,36.0,80.0,0.0
0.0,42.0,80.0,0.0
0.0,40.0,80.0,24.0
0.0,42.0,80.0,0.0
0.0,40.0,80.0,48.0
0.0,42.0,80.0,0.0
0.0,43.0,80.0,24.0
0.0,35.0,80.0,0.0
0.0,40.0,80.0,0.0
0.0,42.0,80.0,0.0
0.0,36.0,80.0,0.0
0.0,35.0,80.0,24.0
0.0,35.0,80.0,0.0
0.0,36.0,80.0,0.0
0.0,42.0,80.0,0.0
0.0,40.0,80.0,24.0
0.0,40.0,80.0,0.0
0.0,42.0,80.0,0.0
0.0,35.0,80.0,24.0
0.0,42.0,80.0,0.0
0.0,43.0,80.0,24.0
0.0,35.0,80.0,0.0
0.0,40.0,80.0,0.0
0.0,42.0,80.0,0.0
0.0,36.0,80.0,0.0
0.0,44.0,80.0,24.0
0.0,44.0,80.0,0.0
0.0,42.0,80.0,0.0
0.0,36.0,80.0,0.0
0.0,42.0,80.0,24.0
0.0,40.0,80.0,0.0
0.0,46.0,80.0,48.0
0.0,42.0,80.0,0.0
0.0,47.0,80.0,24.0
0.0,44.0,80.0,0.0
0.0,36.0,80.0,0.0
0.0,42.0,80.0,0.0
0.0,40.0,80.0,0.0
0.0,44.0,80.0,24.0
0.0,44.0,80.0,0.0
0.0,42.0,80.0,0.0
0.0,36.0,80.0,0.0
0.0,47.0,80.0,24.0
0.0,40.0,80.0,0.0
0.0,42.0,80.0,0.0
0.0,44.0,80.0,24.0
0.0,44.0,80.0,0.0
0.0,42.0,80.0,0.0
0.0,47.0,80.0,24.0
0.0,36.0,80.0,0.0
0.0,42.0,80.0,0.0
0.0,40.0,80.0,0.0
0.0,66.0,80.0,24.0
0.0,71.0,80.0,0.0
0.0,59.0,80.0,0.0
0.0,40.0,80.0,0.0
0.0,40.0,80.0,0.0
0.0,42.0,80.0,0.0
0.0,36.0,80.0,0.0
0.0,42.0,80.0,24.0
0.0,40.0,80.0,0.0
0.0,44.0,80.0,48.0
0.0,42.0,80.0,0.0
0.0,47.0,80.0,24.0
0.0,40.0,80.0,0.0
0.0,36.0,80.0,0.0
0.0,42.0,80.0,0.0
0.0,40.0,80.0,0.0
0.0,40.0,80.0,24.0
0.0,40.0,80.0,0.0
0.0,42.0,80.0,0.0
0.0,36.0,80.0,0.0
0.0,47.0,80.0,24.0
0.0,42.0,80.0,0.0
0.0,40.0,80.0,0.0
0.0,40.0,80.0,24.0
0.0,42.0,80.0,0.0
0.0,47.0,80.0,24.0
0.0,40.0,80.0,0.0
0.0,36.0,80.0,0.0
0.0,42.0,80.0,0.0
0.0,40.0,80.0,0.0
0.0,40.0,80.0,24.0
0.0,40.0,80.0,0.0
0.0,42.0,80.0,0.0
0.0,36.0,80.0,0.0
0.0,42.0,80.0,24.0
0.0,40.0,80.0,0.0
0.0,44.0,80.0,48.0
0.0,42.0,80.0,0.0
0.0,47.0,80.0,24.0
0.0,40.0,80.0,0.0
0.0,36.0,80.0,0.0
0.0,42.0,80.0,0.0
0.0,40.0,80.0,0.0
0.0,40.0,80.0,24.0
0.0,40.0,80.0,0.0
0.0,42.0,80.0,0.0
0.0,36.0,80.0,0.0
0.0,47.0,80.0,24.0
0.0,40.0,80.0,0.0
0.0,42.0,80.0,0.0
0.0,40.0,80.0,24.0
0.0,40.0,80.0,0.0
0.0,42.0,80.0,0.0
0.0,47.0,80.0,24.0
0.0,36.0,80.0,0.0
0.0,42.0,80.0,0.0
0.0,40.0,80.0,0.0
0.0,66.0,80.0,24.0
0.0,71.0,80.0,0.0
0.0,59.0,80.0,0.0
0.0,35.0,80.0,0.0
0.0,35.0,80.0,0.0
0.0,42.0,80.0,0.0
0.0,36.0,80.0,0.0
0.0,42.0,80.0,24.0
0.0,40.0,80.0,0.0
0.0,40.0,80.0,48.0
0.0,42.0,80.0,0.0
0.0,43.0,80.0,24.0
0.0,35.0,80.0,0.0
0.0,36.0,80.0,0.0
0.0,42.0,80.0,0.0
0.0,40.0,80.0,0.0
0.0,35.0,80.0,24.0
0.0,35.0,80.0,0.0
0.0,42.0,80.0,0.0
0.0,36.0,80.0,0.0
0.0,40.0,80.0,24.0
0.0,42.0,80.0,0.0
0.0,40.0,80.0,0.0
0.0,35.0,80.0,24.0
0.0,42.0,80.0,0.0
0.0,43.0,80.0,24.0
0.0,35.0,80.0,0.0
0.0,36.0,80.0,0.0
0.0,42.0,80.0,0.0
0.0,40.0,80.0,0.0
0.0,44.0,80.0,24.0
0.0,44.0,80.0,0.0
0.0,36.0,80.0,0.0
0.0,42.0,80.0,0.0
0.0,40.0,80.0,24.0
0.0,42.0,80.0,0.0
0.0,46.0,80.0,48.0
0.0,42.0,80.0,0.0
0.0,47.0,80.0,24.0
0.0,44.0,80.0,0.0
0.0,40.0,80.0,0.0
0.0,42.0,80.0,0.0
0.0,36.0,80.0,0.0
0.0,44.0,80.0,24.0
0.0,44.0,80.0,0.0
0.0,36.0,80.0,0.0
0.0,42.0,80.0,0.0
0.0,47.0,80.0,24.0
0.0,42.0,80.0,0.0
0.0,40.0,80.0,0.0
0.0,44.0,80.0,24.0
0.0,44.0,80.0,0.0
0.0,42.0,80.0,0.0
0.0,47.0,80.0,24.0
0.0,40.0,80.0,0.0
0.0,42.0,80.0,0.0
0.0,36.0,80.0,0.0
0.0,59.0,80.0,24.0
0.0,71.0,80.0,0.0
0.0,66.0,80.0,0.0
0.0,40.0,80.0,0.0
0.0,40.0,80.0,0.0
0.0,51.0,80.0,0.0
0.0,36.0,80.0,0.0
0.0,42.0,80.0,0.0
0.0,40.0,80.0,24.0
0.0,42.0,80.0,0.0
0.0,44.0,80.0,48.0
0.0,42.0,80.0,0.0
0.0,47.0,80.0,24.0
0.0,40.0,80.0,0.0
0.0,40.0,80.0,0.0
0.0,42.0,80.0,0.0
0.0,36.0,80.0,0.0
0.0,40.0,80.0,24.0
0.0,40.0,80.0,0.0
0.0,36.0,80.0,0.0
0.0,42.0,80.0,0.0
0.0,47.0,80.0,24.0
0.0,40.0,80.0,0.0
0.0,42.0,80.0,0.0
0.0,40.0,80.0,24.0
0.0,42.0,80.0,0.0
0.0,47.0,80.0,24.0
0.0,40.0,80.0,0.0
0.0,42.0,80.0,0.0
0.0,36.0,80.0,0.0
0.0,40.0,80.0,24.0
0.0,47.0,80.0,0.0
0.0,52.0,80.0,0.0
0.0,36.0,80.0,0.0
0.0,42.0,80.0,0.0
0.0,40.0,80.0,24.0
0.0,42.0,80.0,0.0
0.0,44.0,80.0,48.0
0.0,42.0,80.0,0.0
0.0,47.0,80.0,24.0
0.0,40.0,80.0,0.0
0.0,42.0,80.0,0.0
0.0,36.0,80.0,0.0
0.0,40.0,80.0,24.0
0.0,36.0,80.0,0.0
0.0,42.0,80.0,0.0
0.0,47.0,80.0,24.0
0.0,42.0,80.0,0.0
0.0,40.0,80.0,0.0
0.0,40.0,80.0,24.0
0.0,42.0,80.0,0.0
0.0,47.0,80.0,24.0
0.0,40.0,80.0,0.0
0.0,42.0,80.0,0.0
0.0,36.0,80.0,0.0
0.0,66.0,80.0,24.0
0.0,71.0,80.0,0.0
0.0,59.0,80.0,0.0
0.0,35.0,80.0,0.0
0.0,35.0,80.0,0.0
0.0,42.0,80.0,0.0
0.0,36.0,80.0,0.0
0.0,42.0,80.0,24.0
0.0,40.0,80.0,0.0
0.0,40.0,80.0,48.0
0.0,42.0,80.0,0.0
0.0,43.0,80.0,24.0
0.0,35.0,80.0,0.0
0.0,36.0,80.0,0.0
0.0,42.0,80.0,0.0
0.0,40.0,80.0,0.0
0.0,35.0,80.0,24.0
0.0,35.0,80.0,0.0
0.0,42.0,80.0,0.0
0.0,36.0,80.0,0.0
0.0,40.0,80.0,24.0
0.0,42.0,80.0,0.0
0.0,40.0,80.0,0.0
0.0,35.0,80.0,24.0
0.0,42.0,80.0,0.0
0.0,43.0,80.0,24.0
0.0,35.0,80.0,0.0
0.0,36.0,80.0,0.0
0.0,42.0,80.0,0.0
0.0,40.0,80.0,0.0
0.0,44.0,80.0,24.0
0.0,44.0,80.0,0.0
0.0,36.0,80.0,0.0
0.0,42.0,80.0,0.0
0.0,40.0,80.0,24.0
0.0,42.0,80.0,0.0
0.0,46.0,80.0,48.0
0.0,42.0,80.0,0.0
0.0,47.0,80.0,24.0
0.0,44.0,80.0,0.0
0.0,40.0,80.0,0.0
0.0,42.0,80.0,0.0
0.0,36.0,80.0,0.0
0.0,44.0,80.0,24.0
0.0,44.0,80.0,0.0
0.0,36.0,80.0,0.0
0.0,42.0,80.0,0.0
0.0,47.0,80.0,24.0
0.0,42.0,80.0,0.0
0.0,40.0,80.0,0.0
0.0,44.0,80.0,24.0
0.0,44.0,80.0,0.0
0.0,42.0,80.0,0.0
0.0,47.0,80.0,24.0
0.0,40.0,80.0,0.0
0.0,42.0,80.0,0.0
0.0,36.0,80.0,0.0
0.0,71.0,80.0,24.0
0.0,59.0,80.0,0.0
0.0,66.0,80.0,0.0
0.0,40.0,80.0,0.0
0.0,40.0,80.0,0.0
0.0,40.0,80.0,0.0
0.0,40.0,80.0,12.0
0.0,40.0,80.0,12.0
0.0,40.0,80.0,12.0
0.0,44.0,80.0,12.0
0.0,40.0,80.0,0.0
0.0,40.0,80.0,12.0
0.0,47.0,80.0,12.0
0.0,40.0,80.0,0.0
0.0,40.0,80.0,0.0
0.0,40.0,80.0,12.0
0.0,40.0,80.0,12.0
0.0,40.0,80.0,0.0
0.0,40.0,80.0,0.0
0.0,40.0,80.0,12.0
0.0,47.0,80.0,12.0
0.0,40.0,80.0,0.0
0.0,40.0,80.0,12.0
0.0,40.0,80.0,12.0
0.0,40.0,80.0,0.0
0.0,40.0,80.0,12.0
0.0,47.0,80.0,12.0
0.0,40.0,80.0,0.0
0.0,40.0,80.0,0.0
0.0,40.0,80.0,12.0
0.0,40.0,80.0,12.0
0.0,40.0,80.0,0.0
0.0,40.0,80.0,0.0
0.0,64.0,80.0,144.0
0.0,64.0,80.0,48.0
0.0,63.0,80.0,48.0
0.0,59.0,80.0,48.0
0.0,59.0,80.0,0.0
0.0,71.0,80.0,0.0
0.0,66.0,80.0,0.0
0.0,66.0,80.0,0.0
0.0,71.0,80.0,0.0
0.0,59.0,80.0,0.0
0.0,35.0,80.0,0.0
0.0,57.0,80.0,0.0
0.0,36.0,80.0,0.0
0.0,49.0,80.0,0.0
0.0,59.0,80.0,24.0
0.0,71.0,80.0,0.0
0.0,66.0,80.0,0.0
0.0,66.0,80.0,0.0
0.0,71.0,80.0,0.0
0.0,59.0,80.0,0.0
0.0,35.0,80.0,0.0
0.0,40.0,80.0,0.0
0.0,49.0,80.0,0.0
0.0,59.0,80.0,24.0
0.0,71.0,80.0,0.0
0.0,66.0,80.0,0.0
0.0,35.0,80.0,0.0
0.0,36.0,80.0,0.0
0.0,49.0,80.0,0.0
0.0,59.0,80.0,24.0
0.0,71.0,80.0,0.0
0.0,66.0,80.0,0.0
0.0,66.0,80.0,0.0
0.0,71.0,80.0,0.0
0.0,59.0,80.0,0.0
0.0,35.0,80.0,0.0
0.0,40.0,80.0,0.0
0.0,49.0,80.0,0.0
0.0,59.0,80.0,24.0
0.0,71.0,80.0,0.0
0.0,66.0,80.0,0.0
0.0,66.0,80.0,0.0
0.0,71.0,80.0,0.0
0.0,59.0,80.0,0.0
0.0,35.0,80.0,0.0
0.0,36.0,80.0,0.0
0.0,49.0,80.0,0.0
0.0,63.0,80.0,24.0
0.0,59.0,80.0,0.0
0.0,71.0,80.0,0.0
0.0,66.0,80.0,0.0
0.0,66.0,80.0,0.0
0.0,71.0,80.0,0.0
0.0,59.0,80.0,0.0
0.0,35.0,80.0,0.0
0.0,40.0,80.0,0.0
0.0,49.0,80.0,0.0
0.0,59.0,80.0,24.0
0.0,71.0,80.0,0.0
0.0,66.0,80.0,0.0
0.0,35.0,80.0,0.0
0.0,36.0,80.0,0.0
0.0,49.0,80.0,0.0
0.0,59.0,80.0,24.0
0.0,59.0,80.0,0.0
0.0,71.0,80.0,0.0
0.0,66.0,80.0,0.0
0.0,66.0,80.0,0.0
0.0,71.0,80.0,0.0
0.0,59.0,80.0,0.0
0.0,35.0,80.0,0.0
0.0,40.0,80.0,0.0
0.0,49.0,80.0,0.0
0.0,61.0,80.0,24.0
0.0,54.0,80.0,0.0
0.0,66.0,80.0,0.0
0.0,61.0,80.0,0.0
0.0,54.0,80.0,0.0
0.0,66.0,80.0,0.0
0.0,61.0,80.0,0.0
0.0,42.0,80.0,0.0
0.0,49.0,80.0,0.0
0.0,36.0,80.0,0.0
0.0,54.0,80.0,24.0
0.0,66.0,80.0,0.0
0.0,61.0,80.0,0.0
0.0,54.0,80.0,0.0
0.0,66.0,80.0,0.0
0.0,61.0,80.0,0.0
0.0,42.0,80.0,0.0
0.0,49.0,80.0,0.0
0.0,40.0,80.0,0.0
0.0,61.0,80.0,24.0
0.0,54.0,80.0,0.0
0.0,66.0,80.0,0.0
0.0,61.0,80.0,0.0
0.0,42.0,80.0,0.0
0.0,49.0,80.0,0.0
0.0,36.0,80.0,0.0
0.0,61.0,80.0,24.0
0.0,54.0,80.0,0.0
0.0,66.0,80.0,0.0
0.0,61.0,80.0,0.0
0.0,54.0,80.0,0.0
0.0,66.0,80.0,0.0
0.0,61.0,80.0,0.0
0.0,42.0,80.0,0.0
0.0,49.0,80.0,0.0
0.0,40.0,80.0,0.0
0.0,63.0,80.0,24.0
0.0,54.0,80.0,0.0
0.0,66.0,80.0,0.0
0.0,61.0,80.0,0.0
0.0,54.0,80.0,0.0
0.0,66.0,80.0,0.0
0.0,61.0,80.0,0.0
0.0,42.0,80.0,0.0
0.0,49.0,80.0,0.0
0.0,36.0,80.0,0.0
0.0,59.0,80.0,24.0
0.0,54.0,80.0,0.0
0.0,66.0,80.0,0.0
0.0,61.0,80.0,0.0
0.0,54.0,80.0,0.0
0.0,66.0,80.0,0.0
0.0,61.0,80.0,0.0
0.0,42.0,80.0,0.0
0.0,49.0,80.0,0.0
0.0,40.0,80.0,0.0
0.0,54.0,80.0,24.0
0.0,66.0,80.0,0.0
0.0,61.0,80.0,0.0
0.0,42.0,80.0,0.0
0.0,49.0,80.0,0.0
0.0,36.0,80.0,0.0
0.0,56.0,80.0,24.0
0.0,54.0,80.0,0.0
0.0,66.0,80.0,0.0
0.0,61.0,80.0,0.0
0.0,54.0,80.0,0.0
0.0,66.0,80.0,0.0
0.0,61.0,80.0,0.0
0.0,42.0,80.0,0.0
0.0,49.0,80.0,0.0
0.0,40.0,80.0,0.0
0.0,59.0,80.0,24.0
0.0,64.0,80.0,0.0
0.0,59.0,80.0,0.0
0.0,52.0,80.0,0.0
0.0,64.0,80.0,0.0
0.0,59.0,80.0,0.0
0.0,52.0,80.0,0.0
0.0,40.0,80.0,0.0
0.0,36.0,80.0,0.0
0.0,49.0,80.0,0.0
0.0,64.0,80.0,24.0
0.0,59.0,80.0,0.0
0.0,52.0,80.0,0.0
0.0,64.0,80.0,0.0
0.0,59.0,80.0,0.0
0.0,52.0,80.0,0.0
0.0,40.0,80.0,0.0
0.0,57.0,80.0,0.0
0.0,40.0,80.0,0.0
0.0,49.0,80.0,0.0
0.0,64.0,80.0,24.0
0.0,59.0,80.0,0.0
0.0,52.0,80.0,0.0
0.0,40.0,80.0,0.0
0.0,36.0,80.0,0.0
0.0,49.0,80.0,0.0
0.0,64.0,80.0,24.0
0.0,59.0,80.0,0.0
0.0,52.0,80.0,0.0
0.0,64.0,80.0,0.0
0.0,59.0,80.0,0.0
0.0,52.0,80.0,0.0
0.0,40.0,80.0,0.0
0.0,40.0,80.0,0.0
0.0,49.0,80.0,0.0
0.0,64.0,80.0,24.0
0.0,59.0,80.0,0.0
0.0,52.0,80.0,0.0
0.0,64.0,80.0,0.0
0.0,59.0,80.0,0.0
0.0,52.0,80.0,0.0
0.0,40.0,80.0,0.0
0.0,36.0,80.0,0.0
0.0,49.0,80.0,0.0
0.0,64.0,80.0,24.0
0.0,59.0,80.0,0.0
0.0,52.0,80.0,0.0
0.0,64.0,80.0,0.0
0.0,59.0,80.0,0.0
0.0,52.0,80.0,0.0
0.0,40.0,80.0,0.0
0.0,57.0,80.0,0.0
0.0,40.0,80.0,0.0
0.0,49.0,80.0,0.0
0.0,64.0,80.0,24.0
0.0,59.0,80.0,0.0
0.0,52.0,80.0,0.0
0.0,40.0,80.0,0.0
0.0,36.0,80.0,0.0
0.0,49.0,80.0,0.0
0.0,64.0,80.0,24.0
0.0,59.0,80.0,0.0
0.0,52.0,80.0,0.0
0.0,64.0,80.0,0.0
0.0,59.0,80.0,0.0
0.0,52.0,80.0,0.0
0.0,40.0,80.0,0.0
0.0,40.0,80.0,0.0
0.0,49.0,80.0,0.0
0.0,64.0,80.0,24.0
0.0,59.0,80.0,0.0
0.0,52.0,80.0,0.0
0.0,64.0,80.0,0.0
0.0,59.0,80.0,0.0
0.0,52.0,80.0,0.0
0.0,40.0,80.0,0.0
0.0,49.0,80.0,0.0
0.0,36.0,80.0,0.0
0.0,64.0,80.0,24.0
0.0,59.0,80.0,0.0
0.0,52.0,80.0,0.0
0.0,64.0,80.0,0.0
0.0,59.0,80.0,0.0
0.0,52.0,80.0,0.0
0.0,40.0,80.0,0.0
0.0,57.0,80.0,0.0
0.0,49.0,80.0,0.0
0.0,40.0,80.0,0.0
0.0,64.0,80.0,24.0
0.0,59.0,80.0,0.0
0.0,52.0,80.0,0.0
0.0,40.0,80.0,0.0
0.0,49.0,80.0,0.0
0.0,36.0,80.0,0.0
0.0,64.0,80.0,24.0
0.0,59.0,80.0,0.0
0.0,52.0,80.0,0.0
0.0,64.0,80.0,0.0
0.0,59.0,80.0,0.0
0.0,52.0,80.0,0.0
0.0,40.0,80.0,0.0
0.0,49.0,80.0,0.0
0.0,40.0,80.0,0.0
0.0,63.0,80.0,24.0
0.0,64.0,80.0,0.0
0.0,59.0,80.0,0.0
0.0,52.0,80.0,0.0
0.0,64.0,80.0,0.0
0.0,59.0,80.0,0.0
0.0,52.0,80.0,0.0
0.0,40.0,80.0,0.0
0.0,40.0,80.0,0.0
0.0,40.0,80.0,12.0
0.0,64.0,80.0,12.0
0.0,59.0,80.0,0.0
0.0,52.0,80.0,0.0
0.0,64.0,80.0,0.0
0.0,59.0,80.0,0.0
0.0,52.0,80.0,0.0
0.0,40.0,80.0,0.0
0.0,40.0,80.0,0.0
0.0,40.0,80.0,12.0
0.0,64.0,80.0,12.0
0.0,64.0,80.0,0.0
0.0,59.0,80.0,0.0
0.0,52.0,80.0,0.0
0.0,64.0,80.0,0.0
0.0,59.0,80.0,0.0
0.0,52.0,80.0,0.0
0.0,40.0,80.0,0.0
0.0,40.0,80.0,0.0
0.0,40.0,80.0,12.0
0.0,64.0,80.0,12.0
0.0,59.0,80.0,0.0
0.0,52.0,80.0,0.0
0.0,64.0,80.0,0.0
0.0,59.0,80.0,0.0
0.0,52.0,80.0,0.0
0.0,40.0,80.0,0.0
0.0,40.0,80.0,0.0
0.0,40.0,80.0,12.0
0.0,66.0,80.0,12.0
0.0,66.0,80.0,0.0
0.0,71.0,80.0,0.0
0.0,59.0,80.0,0.0
0.0,59.0,80.0,0.0
0.0,71.0,80.0,0.0
0.0,66.0,80.0,0.0
0.0,35.0,80.0,0.0
0.0,49.0,80.0,0.0
0.0,36.0,80.0,0.0
0.0,63.0,80.0,24.0
0.0,66.0,80.0,0.0
0.0,71.0,80.0,0.0
0.0,59.0,80.0,0.0
0.0,59.0,80.0,0.0
0.0,71.0,80.0,0.0
0.0,66.0,80.0,0.0
0.0,35.0,80.0,0.0
0.0,49.0,80.0,0.0
0.0,40.0,80.0,0.0
0.0,66.0,80.0,24.0
0.0,71.0,80.0,0.0
0.0,59.0,80.0,0.0
0.0,35.0,80.0,0.0
0.0,49.0,80.0,0.0
0.0,36.0,80.0,0.0
0.0,63.0,80.0,24.0
0.0,66.0,80.0,0.0
0.0,71.0,80.0,0.0
0.0,59.0,80.0,0.0
0.0,59.0,80.0,0.0
0.0,71.0,80.0,0.0
0.0,66.0,80.0,0.0
0.0,35.0,80.0,0.0
0.0,49.0,80.0,0.0
0.0,40.0,80.0,0.0
0.0,71.0,80.0,24.0
0.0,59.0,80.0,0.0
0.0,66.0,80.0,0.0
0.0,59.0,80.0,0.0
0.0,71.0,80.0,0.0
0.0,66.0,80.0,0.0
0.0,35.0,80.0,0.0
0.0,49.0,80.0,0.0
0.0,36.0,80.0,0.0
0.0,64.0,80.0,24.0
0.0,66.0,80.0,0.0
0.0,71.0,80.0,0.0
0.0,59.0,80.0,0.0
0.0,59.0,80.0,0.0
0.0,71.0,80.0,0.0
0.0,66.0,80.0,0.0
0.0,35.0,80.0,0.0
0.0,49.0,80.0,0.0
0.0,40.0,80.0,0.0
0.0,66.0,80.0,24.0
0.0,71.0,80.0,0.0
0.0,59.0,80.0,0.0
0.0,35.0,80.0,0.0
0.0,49.0,80.0,0.0
0.0,36.0,80.0,0.0
0.0,66.0,80.0,24.0
0.0,71.0,80.0,0.0
0.0,59.0,80.0,0.0
0.0,59.0,80.0,0.0
0.0,71.0,80.0,0.0
0.0,66.0,80.0,0.0
0.0,35.0,80.0,0.0
0.0,49.0,80.0,0.0
0.0,40.0,80.0,0.0
0.0,63.0,80.0,24.0
0.0,68.0,80.0,0.0
0.0,73.0,80.0,0.0
0.0,61.0,80.0,0.0
0.0,61.0,80.0,0.0
0.0,73.0,80.0,0.0
0.0,68.0,80.0,0.0
0.0,37.0,80.0,0.0
0.0,36.0,80.0,0.0
0.0,49.0,80.0,0.0
0.0,59.0,80.0,24.0
0.0,68.0,80.0,0.0
0.0,73.0,80.0,0.0
0.0,61.0,80.0,0.0
0.0,61.0,80.0,0.0
0.0,73.0,80.0,0.0
0.0,68.0,80.0,0.0
0.0,37.0,80.0,0.0
0.0,40.0,80.0,0.0
0.0,49.0,80.0,0.0
0.0,68.0,80.0,24.0
0.0,73.0,80.0,0.0
0.0,61.0,80.0,0.0
0.0,37.0,80.0,0.0
0.0,36.0,80.0,0.0
0.0,49.0,80.0,0.0
0.0,59.0,80.0,24.0
0.0,68.0,80.0,0.0
0.0,73.0,80.0,0.0
0.0,61.0,80.0,0.0
0.0,61.0,80.0,0.0
0.0,73.0,80.0,0.0
0.0,68.0,80.0,0.0
0.0,37.0,80.0,0.0
0.0,40.0,80.0,0.0
0.0,49.0,80.0,0.0
0.0,0.0,0.0,0.0
0.0,0.0,0.0,0.0
0.0,0.0,0.0,0.0
0.0,0.0,0.0,0.0
0.0,0.0,0.0,0.0
0.0,0.0,0.0,0.0
0.0,0.0,0.0,0.0
0.0,0.0,0.0,0.0
0.0,0.0,0.0,0.0
0.0,0.0,0.0,0.0
0.0,0.0,0.0,0.0
0.0,0.0,0.0,0.0
0.0,0.0,0.0,0.0
0.0,0.0,0.0,0.0
0.0,0.0,0.0,0.0
0.0,0.0,0.0,0.0
