track,note,velocity,time
0,53,100,1840
0,58,127,0
0,59,127,0
0,63,127,0
0,59,127,120
0,63,127,0
0,59,127,0
0,63,127,0
0,59,127,0
0,63,127,0
0,59,127,0
0,63,127,0
0,59,127,0
0,63,127,0
0,59,127,0
0,63,127,0
0,59,127,0
0,63,127,0
0,59,127,0
0,63,127,0
0,59,127,120
0,63,127,0
0,59,127,0
0,63,127,0
0,59,127,0
0,63,127,0
0,59,127,0
0,63,127,0
0,59,127,0
0,63,127,0
0,59,127,0
0,63,127,0
0,59,127,0
0,63,127,0
0,59,127,0
0,63,127,0
0,59,127,120
0,63,127,0
0,59,127,0
0,63,127,0
0,59,127,0
0,63,127,0
0,59,127,0
0,63,127,0
0,59,127,0
0,63,127,0
0,59,127,0
0,63,127,0
0,59,127,0
0,63,127,0
0,54,127,0
0,59,127,0
0,54,127,0
0,59,127,0
0,54,127,0
0,59,127,0
0,54,127,0
0,59,127,0
0,54,127,0
0,59,127,0
0,54,127,0
0,59,127,0
0,54,127,0
0,59,127,0
0,59,127,0
0,54,127,0
0,63,127,220
0,59,127,0
0,59,127,100
0,63,127,0
0,59,127,0
0,63,127,0
0,59,127,0
0,63,127,0
0,59,127,0
0,63,127,0
0,59,127,0
0,63,127,0
0,59,127,0
0,63,127,0
0,59,127,0
0,63,127,0
0,59,127,0
0,63,127,0
0,59,127,120
0,63,127,0
0,59,127,0
0,63,127,0
0,59,127,0
0,63,127,0
0,59,127,0
0,63,127,0
0,59,127,0
0,63,127,0
0,59,127,0
0,63,127,0
0,59,127,0
0,63,127,0
0,59,127,0
0,63,127,0
0,59,127,120
0,63,127,0
0,59,127,0
0,63,127,0
0,59,127,0
0,63,127,0
0,59,127,0
0,63,127,0
0,59,127,0
0,63,127,0
0,59,127,0
0,63,127,0
0,59,127,0
0,63,127,0
0,54,127,0
0,59,127,0
0,54,127,0
0,59,127,0
0,54,127,0
0,59,127,0
0,54,127,0
0,59,127,0
0,54,127,0
0,59,127,0
0,54,127,0
0,59,127,0
0,54,127,0
0,59,127,0
0,54,127,0
0,59,127,0
0,59,127,4
0,63,127,0
0,54,127,0
0,59,127,0
0,35,127,0
0,35,100,0
0,46,100,0
0,35,100,0
0,35,100,0
0,46,100,0
0,46,100,0
0,46,100,0
0,59,127,120
0,63,127,0
0,54,127,0
0,59,127,0
0,59,127,0
0,63,127,0
0,59,127,0
0,54,127,0
0,35,127,0
0,63,127,0
0,59,127,0
0,63,127,0
0,54,127,0
0,59,127,0
0,35,100,0
0,59,127,0
0,63,127,0
0,59,127,0
0,54,127,0
0,35,127,0
0,63,127,0
0,38,100,0
0,46,100,0
0,59,127,0
0,63,127,0
0,54,127,0
0,59,127,0
0,59,127,0
0,63,127,0
0,59,127,0
0,54,127,0
0,35,127,0
0,63,127,0
0,35,100,0
0,59,127,0
0,63,127,0
0,54,127,0
0,59,127,0
0,59,127,0
0,63,127,0
0,61,127,0
0,56,127,0
0,37,127,0
0,64,127,0
0,46,100,0
0,59,127,120
0,63,127,0
0,56,127,0
0,61,127,0
0,59,127,0
0,63,127,0
0,61,127,0
0,56,127,0
0,37,127,0
0,63,127,0
0,35,100,0
0,46,100,0
0,59,127,0
0,63,127,0
0,56,127,0
0,61,127,0
0,59,127,0
0,63,127,0
0,61,127,0
0,56,127,0
0,37,127,0
0,61,127,0
0,46,100,0
0,38,100,0
0,59,127,0
0,63,127,0
0,56,127,0
0,61,127,0
0,59,127,0
0,63,127,0
0,61,127,0
0,56,127,0
0,37,127,0
0,59,127,0
0,46,100,0
0,35,100,0
0,59,127,0
0,63,127,0
0,56,127,0
0,61,127,0
0,46,100,0
0,38,100,0
0,59,127,0
0,63,127,0
0,51,127,0
0,56,127,0
0,32,127,0
0,35,100,0
0,46,100,0
0,46,100,0
0,59,127,120
0,63,127,0
0,51,127,0
0,56,127,0
0,59,127,0
0,63,127,0
0,51,127,0
0,56,127,0
0,32,127,0
0,59,127,0
0,63,127,0
0,51,127,0
0,56,127,0
0,35,100,0
0,59,127,0
0,63,127,0
0,51,127,0
0,56,127,0
0,32,127,0
0,38,100,0
0,46,100,0
0,59,127,0
0,63,127,0
0,51,127,0
0,56,127,0
0,59,127,0
0,63,127,0
0,51,127,0
0,56,127,0
0,32,127,0
0,35,100,0
0,59,127,0
0,63,127,0
0,51,127,0
0,56,127,0
0,54,100,0
0,59,100,0
0,47,127,0
0,52,127,0
0,28,127,0
0,46,100,0
0,54,100,0
0,59,100,0
0,47,127,0
0,52,127,0
0,54,100,0
0,59,100,0
0,47,127,0
0,52,127,0
0,28,127,0
0,35,100,0
0,46,100,0
0,54,100,0
0,59,100,0
0,47,127,0
0,52,127,0
0,54,100,0
0,59,100,0
0,47,127,0
0,52,127,0
0,28,127,0
0,46,100,0
0,38,100,0
0,54,100,0
0,59,100,0
0,47,127,0
0,52,127,0
0,54,100,0
0,59,100,0
0,47,127,0
0,52,127,0
0,28,127,0
0,46,100,0
0,35,100,0
0,54,100,0
0,59,100,0
0,47,127,0
0,52,127,0
0,46,100,0
0,38,100,0
0,59,127,0
0,63,127,0
0,54,127,0
0,59,127,0
0,35,127,0
0,35,100,0
0,46,100,0
0,46,100,0
0,59,127,120
0,63,127,0
0,54,127,0
0,59,127,0
0,59,127,0
0,63,127,0
0,59,127,0
0,54,127,0
0,35,127,0
0,63,127,0
0,59,127,0
0,63,127,0
0,54,127,0
0,59,127,0
0,35,100,0
0,59,127,0
0,63,127,0
0,59,127,0
0,54,127,0
0,35,127,0
0,63,127,0
0,38,100,0
0,46,100,0
0,59,127,0
0,63,127,0
0,54,127,0
0,59,127,0
0,59,127,0
0,63,127,0
0,59,127,0
0,54,127,0
0,35,127,0
0,63,127,0
0,35,100,0
0,59,127,0
0,63,127,0
0,54,127,0
0,59,127,0
0,59,127,0
0,63,127,0
0,61,127,0
0,56,127,0
0,37,127,0
0,64,127,0
0,46,100,0
0,59,127,120
0,63,127,0
0,56,127,0
0,61,127,0
0,59,127,0
0,63,127,0
0,61,127,0
0,56,127,0
0,37,127,0
0,63,127,0
0,35,100,0
0,46,100,0
0,59,127,0
0,63,127,0
0,56,127,0
0,61,127,0
0,59,127,0
0,63,127,0
0,61,127,0
0,56,127,0
0,37,127,0
0,61,127,0
0,46,100,0
0,38,100,0
0,59,127,0
0,63,127,0
0,56,127,0
0,61,127,0
0,59,127,0
0,63,127,0
0,61,127,0
0,56,127,0
0,37,127,0
0,59,127,0
0,46,100,0
0,35,100,0
0,59,127,0
0,63,127,0
0,56,127,0
0,61,127,0
0,46,100,0
0,38,100,0
0,59,127,0
0,63,127,0
0,51,127,0
0,56,127,0
0,32,127,0
0,35,100,0
0,46,100,0
0,46,100,0
0,59,127,120
0,63,127,0
0,51,127,0
0,56,127,0
0,59,127,0
0,63,127,0
0,51,127,0
0,56,127,0
0,32,127,0
0,59,127,0
0,63,127,0
0,51,127,0
0,56,127,0
0,35,100,0
0,59,127,0
0,63,127,0
0,51,127,0
0,56,127,0
0,32,127,0
0,38,100,0
0,46,100,0
0,59,127,0
0,63,127,0
0,51,127,0
0,56,127,0
0,59,127,0
0,63,127,0
0,51,127,0
0,56,127,0
0,32,127,0
0,35,100,0
0,59,127,0
0,63,127,0
0,51,127,0
0,56,127,0
0,54,100,0
0,59,100,0
0,47,127,0
0,52,127,0
0,28,127,0
0,46,100,0
0,54,100,0
0,59,100,0
0,47,127,0
0,52,127,0
0,54,100,0
0,59,100,0
0,47,127,0
0,52,127,0
0,28,127,0
0,35,100,0
0,46,100,0
0,54,100,0
0,59,100,0
0,47,127,0
0,52,127,0
0,54,100,0
0,59,100,0
0,47,127,0
0,52,127,0
0,28,127,0
0,38,100,0
0,46,100,0
0,54,100,0
0,59,100,0
0,47,127,0
0,52,127,0
0,54,100,0
0,59,100,0
0,47,127,0
0,52,127,0
0,28,127,0
0,35,100,0
0,46,100,0
0,47,100,60
0,54,100,0
0,59,100,0
0,47,127,0
0,52,127,0
0,38,100,0
0,46,100,0
0,47,100,60
0,59,127,0
0,63,127,0
0,54,127,0
0,59,127,0
0,35,127,0
0,35,100,0
0,46,100,0
0,46,100,0
0,59,127,120
0,63,127,0
0,54,127,0
0,59,127,0
0,59,127,0
0,63,127,0
0,59,127,0
0,54,127,0
0,35,127,0
0,66,127,0
0,59,127,0
0,63,127,0
0,54,127,0
0,59,127,0
0,35,100,0
0,59,127,0
0,63,127,0
0,59,127,0
0,54,127,0
0,35,127,0
0,66,127,0
0,38,100,0
0,46,100,0
0,59,127,0
0,63,127,0
0,54,127,0
0,59,127,0
0,59,127,0
0,63,127,0
0,59,127,0
0,54,127,0
0,35,127,0
0,66,127,0
0,35,100,0
0,59,127,0
0,63,127,0
0,54,127,0
0,59,127,0
0,59,127,0
0,63,127,0
0,61,127,0
0,56,127,0
0,37,127,0
0,64,127,0
0,46,100,0
0,59,127,120
0,63,127,0
0,56,127,0
0,61,127,0
0,59,127,0
0,63,127,0
0,61,127,0
0,56,127,0
0,37,127,0
0,64,127,0
0,35,100,0
0,46,100,0
0,59,127,0
0,63,127,0
0,56,127,0
0,61,127,0
0,59,127,0
0,63,127,0
0,61,127,0
0,56,127,0
0,37,127,0
0,64,127,0
0,46,100,0
0,38,100,0
0,59,127,0
0,63,127,0
0,56,127,0
0,61,127,0
0,59,127,0
0,63,127,0
0,61,127,0
0,56,127,0
0,37,127,0
0,63,127,0
0,46,100,0
0,35,100,0
0,59,127,0
0,63,127,0
0,56,127,0
0,61,127,0
0,46,100,0
0,38,100,0
0,59,127,0
0,63,127,0
0,51,127,0
0,56,127,0
0,32,127,0
0,35,100,0
0,46,100,0
0,46,100,0
0,59,127,120
0,63,127,0
0,51,127,0
0,56,127,0
0,59,127,0
0,63,127,0
0,51,127,0
0,56,127,0
0,32,127,0
0,59,127,0
0,63,127,0
0,51,127,0
0,56,127,0
0,35,100,0
0,59,127,0
0,63,127,0
0,51,127,0
0,56,127,0
0,32,127,0
0,38,100,0
0,46,100,0
0,59,127,0
0,63,127,0
0,51,127,0
0,56,127,0
0,59,127,0
0,63,127,0
0,51,127,0
0,56,127,0
0,32,127,0
0,35,100,0
0,59,127,0
0,63,127,0
0,51,127,0
0,56,127,0
0,54,100,0
0,59,100,0
0,47,127,0
0,52,127,0
0,28,127,0
0,46,100,0
0,54,100,0
0,59,100,0
0,47,127,0
0,52,127,0
0,54,100,0
0,59,100,0
0,47,127,0
0,52,127,0
0,28,127,0
0,35,100,0
0,46,100,0
0,54,100,0
0,59,100,0
0,47,127,0
0,52,127,0
0,54,100,0
0,59,100,0
0,47,127,0
0,52,127,0
0,28,127,0
0,46,100,0
0,38,100,0
0,54,100,0
0,59,100,0
0,47,127,0
0,52,127,0
0,54,100,0
0,59,100,0
0,47,127,0
0,52,127,0
0,28,127,0
0,46,100,0
0,35,100,0
0,54,100,0
0,59,100,0
0,47,127,0
0,52,127,0
0,46,100,0
0,38,100,0
0,59,127,0
0,63,127,0
0,54,127,0
0,59,127,0
0,35,127,0
0,35,100,0
0,46,100,0
0,46,100,0
0,59,127,120
0,63,127,0
0,54,127,0
0,59,127,0
0,59,127,0
0,63,127,0
0,59,127,0
0,54,127,0
0,35,127,0
0,63,127,0
0,59,127,0
0,63,127,0
0,54,127,0
0,59,127,0
0,35,100,0
0,59,127,0
0,63,127,0
0,59,127,0
0,54,127,0
0,35,127,0
0,63,127,0
0,38,100,0
0,46,100,0
0,59,127,0
0,63,127,0
0,54,127,0
0,59,127,0
0,59,127,0
0,63,127,0
0,59,127,0
0,54,127,0
0,35,127,0
0,63,127,0
0,35,100,0
0,59,127,0
0,63,127,0
0,54,127,0
0,59,127,0
0,59,127,0
0,63,127,0
0,61,127,0
0,56,127,0
0,37,127,0
0,64,127,0
0,46,100,0
0,59,127,120
0,63,127,0
0,56,127,0
0,61,127,0
0,59,127,0
0,63,127,0
0,61,127,0
0,56,127,0
0,37,127,0
0,63,127,0
0,35,100,0
0,46,100,0
0,59,127,0
0,63,127,0
0,56,127,0
0,61,127,0
0,59,127,0
0,63,127,0
0,61,127,0
0,56,127,0
0,37,127,0
0,61,127,0
0,46,100,0
0,38,100,0
0,59,127,0
0,63,127,0
0,56,127,0
0,61,127,0
0,59,127,0
0,63,127,0
0,61,127,0
0,56,127,0
0,37,127,0
0,59,127,0
0,46,100,0
0,35,100,0
0,59,127,0
0,63,127,0
0,56,127,0
0,61,127,0
0,46,100,0
0,38,100,0
0,59,127,0
0,63,127,0
0,51,127,0
0,56,127,0
0,32,127,0
0,35,100,0
0,46,100,0
0,46,100,0
0,59,127,120
0,63,127,0
0,51,127,0
0,56,127,0
0,59,127,0
0,63,127,0
0,51,127,0
0,56,127,0
0,32,127,0
0,59,127,0
0,63,127,0
0,51,127,0
0,56,127,0
0,35,100,0
0,59,127,0
0,63,127,0
0,51,127,0
0,56,127,0
0,32,127,0
0,38,100,0
0,46,100,0
0,59,127,0
0,63,127,0
0,51,127,0
0,56,127,0
0,59,127,0
0,63,127,0
0,51,127,0
0,56,127,0
0,32,127,0
0,35,100,0
0,59,127,0
0,63,127,0
0,51,127,0
0,56,127,0
0,54,100,0
0,59,100,0
0,47,127,0
0,52,127,0
0,28,127,0
0,46,100,0
0,54,100,0
0,59,100,0
0,47,127,0
0,52,127,0
0,54,100,0
0,59,100,0
0,47,127,0
0,52,127,0
0,28,127,0
0,35,100,0
0,46,100,0
0,54,100,0
0,59,100,0
0,47,127,0
0,52,127,0
0,54,100,0
0,59,100,0
0,47,127,0
0,52,127,0
0,28,127,0
0,46,100,0
0,38,100,0
0,54,100,0
0,59,100,0
0,47,127,0
0,52,127,0
0,54,100,0
0,59,100,0
0,47,127,0
0,52,127,0
0,28,127,0
0,46,100,0
0,35,100,0
0,54,100,0
0,59,100,0
0,47,127,0
0,52,127,0
0,46,100,0
0,38,100,0
0,30,100,0
0,66,127,0
0,42,127,0
0,49,127,0
0,54,127,0
0,46,100,0
0,38,100,0
0,57,100,0
0,35,100,0
0,30,100,120
0,49,127,0
0,42,127,0
0,54,127,0
0,35,100,0
0,30,100,0
0,42,127,0
0,49,127,0
0,54,127,0
0,30,100,120
0,42,127,0
0,49,127,0
0,54,127,0
0,35,100,0
0,30,100,0
0,66,127,0
0,42,127,0
0,49,127,0
0,54,127,0
0,38,100,0
0,35,100,0
0,57,100,0
0,46,100,0
0,64,127,0
0,46,100,0
0,46,100,0
0,63,127,0
0,59,127,0
0,46,100,0
0,38,100,0
0,46,100,0
0,35,100,0
0,66,127,0
0,47,127,0
0,54,127,0
0,59,127,0
0,46,100,0
0,38,100,0
0,57,100,0
0,35,100,0
0,35,100,0
0,54,127,0
0,47,127,0
0,59,127,0
0,35,100,0
0,35,100,0
0,54,127,0
0,47,127,0
0,59,127,0
0,35,100,0
0,54,127,0
0,47,127,0
0,59,127,0
0,35,100,0
0,35,100,0
0,66,127,0
0,54,127,0
0,47,127,0
0,59,127,0
0,38,100,0
0,35,100,0
0,57,100,0
0,46,100,0
0,64,127,0
0,46,100,0
0,46,100,0
0,63,127,0
0,59,127,0
0,46,100,0
0,38,100,0
0,46,100,0
0,32,100,0
0,66,127,0
0,44,127,0
0,51,127,0
0,56,127,0
0,46,100,0
0,38,100,0
0,57,100,0
0,35,100,0
0,32,100,0
0,44,127,0
0,51,127,0
0,56,127,0
0,35,100,0
0,32,100,0
0,44,127,0
0,51,127,0
0,56,127,0
0,32,100,0
0,44,127,0
0,51,127,0
0,56,127,0
0,35,100,0
0,32,100,0
0,66,127,0
0,44,127,0
0,51,127,0
0,56,127,0
0,38,100,0
0,35,100,0
0,57,100,0
0,46,100,0
0,64,127,0
0,46,100,0
0,46,100,0
0,63,127,0
0,63,127,0
0,46,100,0
0,38,100,0
0,46,100,0
0,30,100,0
0,66,127,0
0,42,127,0
0,49,127,0
0,54,127,0
0,46,100,0
0,38,100,0
0,57,100,0
0,35,100,0
0,30,100,0
0,49,127,0
0,42,127,0
