track,note,velocity,time
0,61,102,848
0,64,94,0
0,64,100,32
0,62,98,32
0,61,102,32
0,52,73,0
0,57,68,0
0,61,73,0
0,73,22,0
0,76,22,0
0,81,22,0
0,45,81,0
0,64,103,0
0,73,30,32
0,76,30,0
0,81,30,0
0,73,39,0
0,76,39,0
0,81,39,0
0,64,102,0
0,73,47,0
0,76,47,0
0,81,47,0
0,73,56,0
0,76,56,0
0,81,56,0
0,73,64,0
0,76,64,0
0,81,64,0
0,73,60,0
0,76,60,0
0,81,61,0
0,73,61,0
0,76,63,0
0,81,59,0
0,73,65,0
0,76,66,0
0,81,62,0
0,73,67,0
0,76,61,0
0,81,67,0
0,73,67,0
0,76,60,0
0,81,67,0
0,73,64,0
0,76,61,0
0,81,63,0
0,73,65,0
0,76,67,0
0,81,62,0
0,73,61,0
0,76,68,0
0,81,66,0
0,73,67,0
0,76,63,0
0,81,65,0
0,73,60,0
0,76,67,0
0,81,63,0
0,73,68,0
0,76,60,0
0,81,64,0
0,45,75,0
0,73,60,0
0,76,67,0
0,81,63,0
0,73,62,0
0,76,64,0
0,81,68,0
0,73,63,0
0,76,67,0
0,81,64,0
0,73,65,0
0,76,63,0
0,81,60,0
0,73,68,0
0,76,62,0
0,81,60,0
0,73,59,0
0,76,59,0
0,81,60,0
0,64,94,0
0,73,68,0
0,76,64,0
0,81,63,0
0,73,63,0
0,76,67,0
0,81,64,0
0,64,99,0
0,73,65,0
0,76,62,0
0,81,60,0
0,73,68,0
0,76,59,0
0,81,64,0
0,64,101,0
0,73,68,0
0,76,61,0
0,81,63,0
0,73,66,0
0,76,60,0
0,81,62,0
0,69,94,0
0,73,65,0
0,76,59,0
0,81,64,0
0,73,66,0
0,76,63,0
0,81,59,0
0,73,65,0
0,76,67,0
0,81,64,0
0,68,95,0
0,54,71,28
0,73,68,0
0,78,60,0
0,81,68,0
0,42,81,0
0,66,99,0
0,73,66,0
0,78,65,0
0,81,61,0
0,73,61,0
0,78,62,0
0,81,62,0
0,73,60,0
0,78,68,0
0,81,60,0
0,73,64,0
0,78,67,0
0,81,63,0
0,73,59,0
0,78,59,0
0,81,61,0
0,73,65,0
0,78,62,0
0,81,67,0
0,73,66,0
0,78,61,0
0,81,68,0
0,73,63,0
0,78,68,0
0,81,66,0
0,73,65,0
0,78,59,0
0,81,65,0
0,73,59,0
0,78,68,0
0,81,62,0
0,73,68,0
0,78,62,0
0,81,59,0
0,73,68,0
0,78,60,0
0,81,68,0
0,73,62,0
0,78,63,0
0,81,65,0
0,73,59,0
0,78,60,0
0,81,63,0
0,73,67,0
0,78,64,0
0,81,64,0
0,73,61,0
0,78,68,0
0,81,68,0
0,42,74,0
0,73,62,48
0,78,59,0
0,81,62,0
0,73,63,48
0,78,63,0
0,81,67,0
0,73,66,48
0,78,66,0
0,81,66,0
0,73,65,0
0,78,68,0
0,81,63,0
0,73,64,0
0,78,59,0
0,81,64,0
0,73,68,0
0,78,67,0
0,81,63,0
0,66,101,0
0,73,60,0
0,78,59,0
0,81,63,0
0,73,59,0
0,78,60,0
0,81,67,0
0,66,95,0
0,73,61,0
0,78,61,0
0,81,60,0
0,73,60,0
0,78,63,0
0,81,62,0
0,66,96,0
0,73,65,0
0,78,59,0
0,81,60,0
0,73,62,0
0,78,67,0
0,81,64,0
0,68,100,0
0,73,61,0
0,78,60,0
0,81,64,0
0,73,67,0
0,78,67,0
0,81,62,0
0,73,66,0
0,78,64,0
0,81,61,0
0,69,95,0
0,52,74,28
0,73,63,0
0,76,65,0
0,81,68,0
0,45,83,0
0,69,94,0
0,73,59,0
0,76,61,0
0,81,63,0
0,73,68,0
0,76,62,0
0,81,60,0
0,64,102,0
0,73,68,0
0,76,64,0
0,81,68,0
0,73,65,0
0,76,67,0
0,81,65,0
0,73,65,0
0,76,68,0
0,81,61,0
0,73,68,0
0,76,63,0
0,81,60,0
0,61,99,0
0,73,62,0
0,76,59,0
0,81,62,0
0,64,98,0
0,73,63,0
0,76,62,0
0,81,63,0
0,73,68,0
0,76,61,0
0,81,64,0
0,73,60,0
0,76,66,0
0,81,67,0
0,73,67,0
0,76,60,0
0,81,65,0
0,73,63,0
0,76,66,0
0,81,60,0
0,73,67,0
0,76,59,0
0,81,61,0
0,73,68,0
0,76,62,0
0,81,63,0
0,73,65,0
0,76,60,0
0,81,62,0
0,73,63,0
0,76,68,0
0,81,65,0
0,45,82,0
0,73,64,0
0,76,63,0
0,81,66,0
0,73,63,0
0,76,64,0
0,81,60,0
0,73,67,0
0,76,63,0
0,81,61,0
0,73,61,0
0,76,64,0
0,81,66,0
0,73,62,0
0,76,59,0
0,81,59,0
0,73,61,0
0,76,60,0
0,81,65,0
0,61,95,0
0,73,60,0
0,76,68,0
0,81,61,0
0,73,67,0
0,76,61,0
0,81,68,0
0,64,100,0
0,73,67,0
0,76,63,0
0,81,61,0
0,73,65,0
0,76,68,0
0,81,64,0
0,64,97,0
0,73,61,0
0,76,60,0
0,81,64,0
0,73,66,0
0,76,68,0
0,81,67,0
0,73,63,0
0,76,62,0
0,81,67,0
0,73,66,0
0,76,64,0
0,81,68,0
0,62,97,0
0,73,59,0
0,76,62,0
0,81,60,0
0,61,96,0
0,56,72,28
0,59,74,0
0,76,67,0
0,80,61,0
0,83,65,0
0,40,83,0
0,59,102,0
0,76,63,0
0,80,65,0
0,83,62,0
0,76,62,0
0,80,61,0
0,83,66,0
0,76,60,0
0,80,63,0
0,83,59,0
0,76,65,0
0,80,62,0
0,83,67,0
0,76,61,0
0,80,63,0
0,83,64,0
0,76,63,48
0,80,61,0
0,83,66,0
0,76,61,0
0,80,65,0
0,83,67,0
0,76,66,0
0,80,63,0
0,83,60,0
0,76,67,0
0,80,67,0
0,83,64,0
0,76,68,0
0,80,67,0
0,83,68,0
0,76,61,0
0,80,59,0
0,83,59,0
0,76,63,0
0,80,61,0
0,83,64,0
0,76,68,0
0,80,61,0
0,83,61,0
0,76,67,0
0,80,65,0
0,83,66,0
0,76,68,0
0,80,59,0
0,83,66,0
0,76,66,0
0,80,63,0
0,83,59,0
0,40,76,0
0,76,67,0
0,80,67,0
0,83,66,0
0,76,59,0
0,80,67,0
0,83,61,0
0,76,67,0
0,80,64,0
0,83,64,0
0,76,67,0
0,80,67,0
0,83,63,0
0,76,67,0
0,80,67,0
0,83,68,0
0,76,62,0
0,80,59,0
0,83,60,0
0,61,99,0
0,76,59,0
0,80,62,0
0,83,60,0
0,76,66,0
0,80,64,0
0,83,65,0
0,64,97,0
0,76,64,0
0,80,61,0
0,83,61,0
0,76,60,0
0,80,67,0
0,83,63,0
0,64,102,0
0,76,66,0
0,80,63,0
0,83,66,0
0,76,63,0
0,80,65,0
0,83,62,0
0,76,61,0
0,80,68,0
0,83,65,0
0,76,63,0
0,80,65,0
0,83,64,0
0,62,99,0
0,76,63,0
0,80,65,0
0,83,66,0
0,61,101,0
0,57,72,28
0,61,73,0
0,57,74,0
0,73,62,0
0,76,60,0
0,81,68,0
0,45,75,0
0,57,82,0
0,66,101,0
0,73,65,0
0,76,59,0
0,81,59,0
0,59,71,32
0,73,68,0
0,76,66,0
0,81,63,0
0,59,75,0
0,66,102,0
0,73,63,0
0,76,60,0
0,81,63,0
0,64,72,32
0,73,66,0
0,76,61,0
0,81,64,0
0,64,82,0
0,64,102,0
0,73,61,0
0,76,59,0
0,81,62,0
0,61,75,40
0,73,64,0
0,76,67,0
0,81,68,0
0,61,74,0
0,73,66,0
0,76,61,0
0,81,66,0
0,73,59,0
0,76,68,0
0,81,64,0
0,73,63,0
0,76,60,0
0,81,60,0
0,73,59,0
0,76,63,0
0,81,59,0
0,73,61,0
0,76,63,0
0,81,59,0
0,73,62,0
0,76,66,0
0,81,61,0
0,73,59,0
0,76,66,0
0,81,60,0
0,73,63,0
0,76,62,0
0,81,59,0
0,73,63,0
0,76,64,0
0,81,61,0
0,57,70,28
0,73,60,0
0,76,68,0
0,81,67,0
0,45,80,0
0,57,83,0
0,73,68,0
0,76,60,0
0,81,65,0
0,59,71,40
0,73,62,0
0,76,64,0
0,81,59,0
0,59,74,0
0,73,64,0
0,76,64,0
0,81,64,0
0,64,71,40
0,73,67,0
0,76,64,0
0,81,59,0
0,64,80,0
0,73,64,0
0,76,61,0
0,81,63,0
0,61,67,40
0,73,63,0
0,76,62,0
0,81,64,0
0,61,76,0
0,61,100,0
0,73,62,0
0,76,59,0
0,81,68,0
0,73,66,0
0,76,67,0
0,81,63,0
0,64,98,0
0,73,63,0
0,76,67,0
0,81,67,0
0,73,62,0
0,76,63,0
0,81,64,0
0,64,103,0
0,73,59,0
0,76,63,0
0,81,65,0
0,73,66,0
0,76,59,0
0,81,67,0
0,69,98,0
0,73,59,0
0,76,66,0
0,81,68,0
0,73,64,0
0,76,62,0
0,81,61,0
0,73,60,0
0,76,66,0
0,81,68,0
0,68,103,0
0,54,73,28
0,69,68,0
0,73,64,0
0,78,61,0
0,81,60,0
0,42,80,0
0,69,82,0
0,66,102,0
0,73,68,0
0,78,68,0
0,81,67,0
0,68,72,40
0,73,63,0
0,78,63,0
0,81,59,0
0,68,79,0
0,73,65,0
0,78,66,0
0,81,63,0
0,61,76,40
0,73,63,0
0,78,65,0
0,81,63,0
0,61,78,0
0,73,61,0
0,78,65,0
0,81,67,0
0,66,67,40
0,73,60,0
0,78,62,0
0,81,65,0
0,66,83,0
0,73,61,0
0,78,67,0
0,81,61,0
0,73,63,0
0,78,60,0
0,81,60,0
0,73,65,0
0,78,61,0
0,81,63,0
0,73,61,0
0,78,67,0
0,81,63,0
0,73,60,0
0,78,68,0
0,81,65,0
0,73,65,0
0,78,62,0
0,81,62,0
0,73,68,0
0,78,64,0
0,81,65,0
0,73,62,0
0,78,66,0
0,81,62,0
0,73,68,0
0,78,59,0
0,81,63,0
0,69,67,28
0,73,62,0
0,78,62,0
0,81,61,0
0,42,79,0
0,69,75,0
0,73,60,0
0,78,59,0
0,81,63,0
0,68,68,40
0,73,65,0
0,78,68,0
0,81,66,0
0,68,79,0
0,73,65,0
0,78,61,0
0,81,68,0
0,61,71,40
0,73,65,0
0,78,65,0
0,81,65,0
0,61,81,0
0,73,68,0
0,78,67,0
0,81,67,0
0,66,68,40
0,73,66,0
0,78,60,0
0,81,65,0
0,66,74,0
0,66,102,0
0,73,59,0
0,78,61,0
0,81,64,0
0,73,65,0
0,78,61,0
0,81,63,0
0,66,97,0
0,73,63,0
0,78,61,0
0,81,67,0
0,73,67,0
0,78,59,0
0,81,59,0
0,66,102,0
0,73,67,0
0,78,59,0
0,81,67,0
0,73,59,0
0,78,60,0
0,81,67,0
0,68,103,0
0,73,64,0
0,78,65,0
0,81,59,0
0,73,66,0
0,78,67,0
0,81,67,0
0,73,65,0
0,78,60,0
0,81,66,0
0,69,98,0
0,62,73,28
0,66,71,0
0,74,65,0
0,78,60,0
0,81,67,0
0,38,81,0
0,66,81,0
0,69,95,0
0,74,62,0
0,78,61,0
0,81,66,0
0,64,74,32
0,74,65,0
0,78,61,0
0,81,65,0
0,64,81,0
0,66,99,0
0,74,67,0
0,78,68,0
0,81,62,0
0,62,74,40
0,74,60,0
0,78,62,0
0,81,62,0
0,62,81,0
0,74,66,0
0,78,65,0
0,81,63,0
0,74,60,0
0,78,65,0
0,81,68,0
0,74,68,0
0,78,64,0
0,81,59,0
0,74,65,0
0,78,68,0
0,81,65,0
0,74,63,0
0,78,62,0
0,81,68,0
0,74,68,0
0,78,62,0
0,81,64,0
0,66,96,0
0,74,66,0
0,78,67,0
0,81,62,0
0,74,65,0
0,78,61,0
0,81,65,0
0,68,95,0
0,74,62,0
0,78,65,0
0,81,61,0
0,74,64,0
0,78,65,0
0,81,63,0
0,69,94,0
0,74,60,0
0,78,65,0
0,81,64,0
0,61,70,28
0,64,74,0
0,73,60,0
0,76,62,0
0,81,62,0
0,37,75,0
0,49,82,0
0,69,97,0
0,73,62,0
0,76,61,0
0,81,63,0
0,59,74,24
0,73,62,0
0,76,59,0
0,81,67,0
0,59,81,0
0,64,100,0
0,73,65,0
0,76,62,0
0,81,66,0
0,57,67,40
0,73,65,0
0,76,64,0
0,81,62,0
0,57,74,0
0,73,66,0
0,76,62,0
0,81,63,0
0,61,70,40
0,73,59,0
0,76,67,0
0,81,59,0
0,61,77,0
0,73,66,0
0,76,67,0
0,81,67,0
0,73,63,0
0,76,62,0
0,81,59,0
0,73,66,0
0,76,59,0
0,81,66,0
0,73,61,0
0,76,65,0
0,81,67,0
0,73,64,0
0,76,68,0
0,81,63,0
0,73,67,0
0,76,65,0
0,81,65,0
0,69,103,0
0,73,66,0
0,76,68,0
0,81,65,0
0,73,61,0
0,76,62,0
0,81,68,0
0,71,101,0
0,73,62,0
0,76,60,0
0,81,59,0
0,52,67,28
0,56,74,0
0,59,68,0
0,68,68,0
0,76,61,0
0,80,59,0
0,83,61,0
0,40,83,0
0,68,82,0
0,71,97,0
0,76,62,0
0,80,61,0
0,83,66,0
0,66,76,40
0,76,68,0
0,80,59,0
0,83,67,0
0,66,76,0
0,76,59,0
0,80,67,0
0,83,63,0
0,64,68,40
0,76,62,0
0,80,68,0
0,83,63,0
0,64,80,0
0,76,62,0
0,80,68,0
0,83,63,0
0,76,63,0
0,80,66,0
0,83,65,0
0,76,60,0
0,80,59,0
0,83,65,0
0,76,66,0
0,80,62,0
0,83,59,0
0,76,59,0
0,80,64,0
0,83,64,0
0,76,59,0
0,80,61,0
0,83,67,0
0,76,66,0
0,80,65,0
0,83,59,0
0,76,66,0
0,80,63,0
0,83,64,0
0,76,62,0
0,80,67,0
0,83,68,0
0,76,59,0
0,80,61,0
0,83,63,0
0,76,63,0
0,80,59,0
0,83,66,0
0,68,71,28
0,76,67,0
0,80,62,0
0,83,60,0
0,40,77,0
0,68,81,0
0,76,65,0
0,80,65,0
0,83,66,0
0,66,67,32
0,76,62,0
0,80,60,0
0,83,66,0
0,66,79,0
0,76,59,0
0,80,62,0
0,83,60,0
0,64,68,40
0,76,61,0
0,80,61,0
0,83,59,0
0,64,82,0
0,76,61,0
0,80,62,0
0,83,64,0
0,76,66,0
0,80,63,0
0,83,59,0
0,64,103,0
0,76,63,0
0,80,68,0
0,83,68,0
0,76,68,0
0,80,63,0
0,83,61,0
0,69,94,0
0,76,60,0
0,80,62,0
0,83,61,0
0,76,62,0
0,80,60,0
0,83,63,0
0,69,100,0
0,76,61,0
0,80,60,0
0,83,67,0
0,76,63,0
0,80,63,0
0,83,65,0
0,71,96,0
0,76,64,0
0,80,62,0
0,83,68,0
0,76,61,0
0,80,62,0
0,83,64,0
0,74,100,0
0,76,65,0
0,80,62,0
0,83,65,0
0,36,112,28
0,69,31,0
0,33,123,0
0,45,71,0
0,52,76,0
0,57,72,0
0,61,70,0
0,57,76,0
0,45,76,0
0,57,96,0
0,36,117,32
0,69,32,0
0,33,124,0
0,69,36,20
0,59,73,0
0,59,95,0
0,73,97,0
0,69,37,92
0,37,100,20
0,69,30,0
0,64,68,0
0,64,96,0
0,69,32,92
0,69,31,20
0,61,74,0
0,61,103,0
0,69,32,92
0,36,114,88
0,69,31,0
0,33,124,0
0,69,30,24
0,69,33,92
0,69,31,24
0,37,97,32
0,69,30,0
0,69,30,64
0,36,118,92
0,69,34,0
0,33,123,0
0,69,29,92
0,36,118,28
0,69,38,0
0,33,124,0
0,57,70,0
0,36,116,32
0,69,29,0
0,33,117,0
0,69,31,40
0,59,70,0
0,69,38,92
0,37,100,32
0,69,32,0
0,64,70,0
0,69,37,92
0,69,36,40
0,61,68,0
0,64,101,0
0,69,29,92
0,36,116,32
0,69,33,0
0,33,123,0
0,69,101,0
0,69,31,92
0,69,38,32
0,71,103,0
0,69,33,92
0,37,103,32
0,69,35,0
0,49,68,0
0,37,74,0
0,73,103,0
0,69,36,36
0,69,38,32
0,69,103,0
0,69,30,92
0,36,119,32
0,69,34,0
0,38,117,0
0,50,74,0
0,54,67,0
0,62,72,0
