track,note,velocity,time
1,64,68,0
1,60,68,0
1,55,68,0
1,64,68,128
1,60,68,0
1,55,68,0
1,52,68,64
1,55,68,32
1,64,68,32
1,62,68,64
1,60,68,64
1,62,68,32
1,62,68,32
1,62,68,64
1,59,68,0
1,55,68,0
1,62,68,128
1,59,68,0
1,55,68,0
1,55,68,64
1,59,68,32
1,64,68,32
1,62,68,64
1,65,68,64
1,64,68,64
1,60,68,64
1,57,68,0
1,52,68,0
1,60,68,128
1,57,68,0
1,52,68,0
1,52,68,64
1,57,68,32
1,59,68,32
1,55,68,0
1,60,68,64
1,59,68,32
1,59,68,32
1,55,68,64
1,60,68,64
1,55,68,0
1,53,68,0
1,60,68,192
1,55,68,0
1,52,68,0
1,60,68,64
1,55,68,0
1,52,68,0
1,57,68,128
1,53,68,0
1,50,68,0
1,64,68,128
1,60,68,0
1,55,68,0
1,67,68,128
1,64,68,0
1,60,68,0
1,67,68,64
1,67,68,64
1,64,68,0
1,60,68,0
1,65,68,64
1,64,68,64
1,65,68,64
1,67,68,32
1,62,68,0
1,59,68,0
1,67,68,128
1,62,68,0
1,59,68,0
1,67,68,96
1,67,68,32
1,62,68,0
1,59,68,0
1,67,68,64
1,71,68,64
1,67,68,0
1,62,68,0
1,72,68,64
1,72,68,32
1,69,68,0
1,64,68,0
1,69,68,64
1,64,68,0
1,60,68,0
1,69,68,64
1,64,68,0
1,60,68,0
1,64,68,96
1,72,68,32
1,67,68,0
1,64,68,0
1,71,68,64
1,69,68,32
1,64,68,0
1,60,68,0
1,69,68,32
1,64,68,0
1,60,68,0
1,67,68,64
1,60,68,32
1,69,68,0
1,67,68,96
1,65,68,32
1,65,68,128
1,65,68,128
1,62,68,0
1,57,68,0
1,65,68,64
1,62,68,0
1,57,68,0
1,64,68,64
1,60,68,0
1,55,68,0
1,67,68,128
1,64,68,0
1,60,68,0
1,67,68,64
1,67,68,64
1,64,68,0
1,60,68,0
1,65,68,64
1,64,68,64
1,65,68,64
1,67,68,32
1,62,68,0
1,59,68,0
1,67,68,128
1,62,68,0
1,59,68,0
1,67,68,128
1,62,68,0
1,59,68,0
1,67,68,64
1,71,68,32
1,67,68,0
1,62,68,0
1,74,68,96
1,74,68,32
1,72,68,128
1,69,68,0
1,64,68,0
1,72,68,128
1,69,68,0
1,64,68,0
1,67,68,96
1,76,68,32
1,72,68,0
1,67,68,0
1,74,68,64
1,72,68,64
1,67,68,0
1,64,68,0
1,71,68,64
1,67,68,32
1,65,68,0
1,72,68,0
1,71,68,64
1,69,68,32
1,69,68,32
1,65,68,128
1,60,68,0
1,55,68,0
1,65,68,128
1,60,68,0
1,55,68,0
1,65,68,64
1,60,68,0
1,55,68,0
1,65,68,64
1,62,68,0
1,57,68,0
1,69,68,96
1,74,68,32
1,69,68,0
1,65,68,0
1,76,68,64
1,74,68,32
1,71,68,0
1,67,68,0
1,74,68,32
1,71,68,0
1,67,68,0
1,76,68,64
1,74,68,64
1,71,68,0
1,67,68,0
1,67,68,96
1,76,68,32
1,71,68,0
1,67,68,0
1,77,68,64
1,76,68,192
1,71,68,0
1,67,68,0
1,74,68,64
1,72,68,32
1,69,68,0
1,64,68,0
1,72,68,32
1,69,68,0
1,64,68,0
1,72,68,64
1,74,68,64
1,71,68,0
1,67,68,0
1,76,68,64
1,77,68,32
1,72,68,0
1,69,68,0
1,76,68,192
1,76,68,64
1,74,68,32
1,74,68,32
1,69,68,0
1,65,68,0
1,74,68,320
1,69,68,0
1,65,68,0
1,72,68,64
1,65,68,96
1,69,68,0
1,69,68,32
1,65,68,0
1,67,68,96
1,79,68,96
1,79,68,64
1,79,68,64
1,77,68,64
1,76,68,32
1,76,68,128
1,72,68,0
1,67,68,0
1,72,68,96
1,76,68,32
1,72,68,0
1,67,68,0
1,74,68,64
1,72,68,64
1,67,68,0
1,74,68,32
1,74,68,32
1,71,68,192
1,67,68,0
1,74,68,64
1,71,68,0
1,67,68,0
1,67,68,96
1,76,68,32
1,71,68,0
1,67,68,0
1,74,68,64
1,72,68,64
1,74,68,32
1,74,68,32
1,72,68,32
1,69,68,96
1,64,68,0
1,72,68,128
1,69,68,0
1,64,68,0
1,69,68,64
1,67,68,64
1,64,68,0
1,69,68,0
1,71,68,64
1,72,68,32
1,67,68,0
1,64,68,0
1,72,68,32
1,67,68,0
1,64,68,0
1,74,68,64
1,74,68,32
1,69,68,0
1,65,68,0
1,76,68,96
1,65,68,64
1,72,68,0
1,69,68,0
1,67,68,96
1,79,68,32
1,79,68,64
1,79,68,64
1,77,68,64
1,76,68,32
1,72,68,128
1,67,68,0
1,72,68,96
1,72,68,32
1,67,68,0
1,74,68,64
1,72,68,64
1,67,68,0
1,74,68,32
1,74,68,32
1,71,68,192
1,76,68,64
1,74,68,64
1,71,68,0
1,67,68,0
1,67,68,96
1,76,68,32
1,71,68,0
1,67,68,0
1,74,68,64
1,72,68,64
1,74,68,32
1,74,68,32
1,72,68,32
1,69,68,96
1,64,68,0
1,72,68,128
1,69,68,0
1,64,68,0
1,69,68,128
1,67,68,0
1,64,68,0
1,71,68,64
1,72,68,32
1,67,68,0
1,64,68,0
1,72,68,32
1,67,68,0
1,64,68,0
1,74,68,64
1,69,68,32
1,65,68,0
1,74,68,0
1,76,68,64
1,72,68,192
1,72,68,64
1,72,68,64
1,71,68,32
1,72,68,32
1,67,68,192
1,64,68,0
1,67,68,192
1,64,68,0
1,60,68,0
1,67,68,64
1,64,68,0
1,60,68,0
1,64,68,192
1,60,68,0
1,55,68,0
1,67,68,128
1,64,68,0
1,60,68,0
1,67,68,64
1,67,68,64
1,64,68,0
1,60,68,0
1,65,68,64
1,64,68,64
1,65,68,64
1,67,68,32
1,62,68,0
1,59,68,0
1,67,68,128
1,62,68,0
1,59,68,0
1,67,68,96
1,67,68,32
1,62,68,0
1,59,68,0
1,67,68,64
1,71,68,64
1,67,68,0
1,62,68,0
1,72,68,64
1,72,68,32
1,69,68,0
1,64,68,0
1,69,68,64
1,64,68,0
1,60,68,0
1,69,68,64
1,64,68,0
1,60,68,0
1,64,68,96
1,72,68,32
1,67,68,0
1,64,68,0
1,71,68,64
1,69,68,32
1,64,68,0
1,60,68,0
1,69,68,32
1,64,68,0
1,60,68,0
1,67,68,64
1,60,68,32
1,69,68,0
1,67,68,96
1,65,68,32
1,65,68,128
1,65,68,128
1,62,68,0
1,57,68,0
1,65,68,64
1,62,68,0
1,57,68,0
1,64,68,64
1,60,68,0
1,55,68,0
1,67,68,128
1,64,68,0
1,60,68,0
1,67,68,64
1,67,68,64
1,64,68,0
1,60,68,0
1,65,68,64
1,64,68,64
1,65,68,64
1,67,68,32
1,62,68,0
1,59,68,0
1,67,68,128
1,62,68,0
1,59,68,0
1,67,68,128
1,62,68,0
1,59,68,0
1,67,68,64
1,71,68,32
1,67,68,0
1,62,68,0
1,74,68,96
1,74,68,32
1,72,68,128
1,69,68,0
1,64,68,0
1,72,68,128
1,69,68,0
1,64,68,0
1,67,68,96
1,76,68,32
1,72,68,0
1,67,68,0
1,74,68,64
1,72,68,64
1,67,68,0
1,64,68,0
1,71,68,64
1,67,68,32
1,65,68,0
1,72,68,0
1,71,68,64
1,69,68,32
1,69,68,32
1,65,68,128
1,60,68,0
1,55,68,0
1,65,68,128
1,60,68,0
1,55,68,0
1,65,68,64
1,60,68,0
1,55,68,0
1,65,68,64
1,62,68,0
1,57,68,0
1,69,68,96
1,74,68,32
1,69,68,0
1,65,68,0
1,76,68,64
1,74,68,32
1,71,68,0
1,67,68,0
1,74,68,32
1,71,68,0
1,67,68,0
1,76,68,64
1,74,68,64
1,71,68,0
1,67,68,0
1,67,68,96
1,76,68,32
1,71,68,0
1,67,68,0
1,77,68,64
1,76,68,192
1,71,68,0
1,67,68,0
1,74,68,64
1,72,68,32
1,69,68,0
1,64,68,0
1,72,68,32
1,69,68,0
1,64,68,0
1,72,68,64
1,74,68,64
1,71,68,0
1,67,68,0
1,76,68,64
1,77,68,32
1,72,68,0
1,69,68,0
1,76,68,192
1,76,68,64
1,74,68,32
1,74,68,32
1,69,68,0
1,65,68,0
1,74,68,320
1,69,68,0
1,65,68,0
1,72,68,64
1,65,68,96
1,69,68,0
1,69,68,32
1,65,68,0
1,67,68,96
1,79,68,96
1,79,68,64
1,79,68,64
1,77,68,64
1,76,68,32
1,76,68,128
1,72,68,0
1,67,68,0
1,72,68,96
1,76,68,32
1,72,68,0
1,67,68,0
1,74,68,64
1,72,68,64
1,67,68,0
1,74,68,32
1,74,68,32
1,71,68,192
1,67,68,0
1,74,68,64
1,71,68,0
1,67,68,0
1,67,68,96
1,76,68,32
1,71,68,0
1,67,68,0
1,74,68,64
1,72,68,64
1,74,68,32
1,74,68,32
1,72,68,32
1,69,68,96
1,64,68,0
1,72,68,128
1,69,68,0
1,64,68,0
1,69,68,64
1,67,68,64
1,64,68,0
1,69,68,0
1,71,68,64
1,72,68,32
1,67,68,0
1,64,68,0
1,72,68,32
1,67,68,0
1,64,68,0
1,74,68,64
1,74,68,32
1,69,68,0
1,65,68,0
1,76,68,96
1,65,68,64
1,72,68,0
1,69,68,0
1,67,68,96
1,79,68,32
1,79,68,64
1,79,68,64
1,77,68,64
1,76,68,32
1,72,68,128
1,67,68,0
1,72,68,96
1,72,68,32
1,67,68,0
1,74,68,64
1,72,68,64
1,67,68,0
1,74,68,32
1,74,68,32
1,71,68,192
1,76,68,64
1,74,68,64
1,71,68,0
1,67,68,0
1,67,68,96
1,76,68,32
1,71,68,0
1,67,68,0
1,74,68,64
1,72,68,64
1,74,68,32
1,74,68,32
1,72,68,32
1,69,68,96
1,64,68,0
1,72,68,128
1,69,68,0
1,64,68,0
1,69,68,128
1,67,68,0
1,64,68,0
1,71,68,64
1,72,68,32
1,67,68,0
1,64,68,0
1,72,68,32
1,67,68,0
1,64,68,0
1,74,68,64
1,69,68,32
1,65,68,0
1,74,68,0
1,76,68,64
1,72,68,192
1,72,68,64
1,72,68,64
1,71,68,32
1,72,68,32
1,69,68,192
1,64,68,0
1,72,68,128
1,69,68,0
1,64,68,0
1,64,68,32
1,69,68,32
1,72,68,32
1,74,68,32
1,71,68,0
1,67,68,0
1,67,68,64
1,79,68,64
1,74,68,0
1,71,68,0
1,77,68,128
1,72,68,0
1,76,68,64
1,74,68,64
1,72,68,64
1,72,68,64
1,67,68,0
1,64,68,0
1,72,68,128
1,67,68,0
1,64,68,0
1,64,68,32
1,67,68,32
1,72,68,32
1,69,68,32
1,65,68,0
1,60,68,0
1,72,68,256
1,67,68,0
1,71,68,64
1,69,68,64
1,67,68,64
1,69,68,64
1,64,68,0
1,60,68,0
1,67,68,128
1,62,68,0
1,59,68,0
1,64,68,128
1,60,68,0
1,55,68,0
1,65,68,128
1,60,68,0
1,55,68,0
1,65,68,128
1,62,68,0
1,57,68,0
1,69,68,96
1,74,68,32
1,69,68,0
1,65,68,0
1,76,68,64
1,74,68,32
1,71,68,0
1,67,68,0
1,74,68,32
1,71,68,0
1,67,68,0
1,76,68,64
1,74,68,64
1,71,68,0
1,67,68,0
1,67,68,96
1,76,68,32
1,71,68,0
1,67,68,0
1,77,68,64
1,76,68,192
1,71,68,0
1,67,68,0
1,74,68,64
1,72,68,32
1,69,68,0
1,64,68,0
1,72,68,32
1,69,68,0
1,64,68,0
1,72,68,64
1,74,68,64
1,71,68,0
1,67,68,0
1,76,68,64
1,77,68,32
1,72,68,0
1,69,68,0
1,76,68,192
1,76,68,64
1,74,68,32
1,74,68,32
1,69,68,0
1,65,68,0
1,74,68,320
1,69,68,0
1,65,68,0
1,72,68,64
1,65,68,96
1,69,68,0
1,69,68,32
1,65,68,0
1,67,68,96
1,79,68,96
1,79,68,64
1,79,68,64
1,77,68,64
1,76,68,32
1,76,68,128
1,72,68,0
1,67,68,0
1,72,68,96
1,76,68,32
1,72,68,0
1,67,68,0
1,74,68,64
1,72,68,64
1,67,68,0
1,74,68,32
1,74,68,32
1,71,68,192
1,67,68,0
1,74,68,64
1,71,68,0
1,67,68,0
1,67,68,96
1,76,68,32
1,71,68,0
1,67,68,0
1,74,68,64
1,72,68,64
1,74,68,32
1,74,68,32
1,72,68,32
1,69,68,96
1,64,68,0
1,72,68,128
1,69,68,0
1,64,68,0
1,69,68,64
1,67,68,64
1,64,68,0
1,69,68,0
1,71,68,64
1,72,68,32
1,67,68,0
1,64,68,0
1,72,68,32
1,67,68,0
1,64,68,0
1,74,68,64
1,74,68,32
1,69,68,0
1,65,68,0
1,76,68,96
1,65,68,64
1,72,68,0
1,69,68,0
1,67,68,96
1,79,68,32
1,79,68,64
1,79,68,64
1,77,68,64
1,76,68,32
1,72,68,128
1,67,68,0
1,72,68,96
1,72,68,32
1,67,68,0
1,74,68,64
1,72,68,64
1,67,68,0
1,74,68,32
1,74,68,32
1,71,68,192
1,76,68,64
1,74,68,64
1,71,68,0
1,67,68,0
1,67,68,96
1,76,68,32
1,71,68,0
1,67,68,0
1,74,68,64
1,72,68,64
1,74,68,32
1,74,68,32
1,72,68,32
1,69,68,96
1,64,68,0
1,72,68,128
1,69,68,0
1,64,68,0
1,69,68,128
1,67,68,0
1,64,68,0
1,71,68,64
1,72,68,32
1,67,68,0
1,64,68,0
1,72,68,32
1,67,68,0
1,64,68,0
1,74,68,64
1,69,68,32
1,65,68,0
1,74,68,0
1,76,68,64
1,72,68,192
1,72,68,64
1,72,68,64
1,71,68,32
1,72,68,32
1,67,68,192
1,64,68,0
1,67,68,192
1,64,68,0
1,60,68,0
1,67,68,64
1,64,68,0
1,60,68,0
2,67,100,6528
2,67,100,64
2,67,100,64
2,65,100,64
2,64,100,64
2,65,100,64
2,67,100,32
2,67,100,320
2,67,100,32
2,67,100,64
2,71,100,64
2,72,100,64
2,72,100,32
2,69,100,64
2,67,100,256
2,72,100,32
2,71,100,64
2,69,100,32
2,69,100,32
2,67,100,64
2,69,100,32
2,67,100,96
2,65,100,32
2,67,100,1280
2,67,100,64
2,67,100,64
2,65,100,64
2,64,100,64
2,65,100,64
2,67,100,32
2,67,100,512
2,67,100,64
2,71,100,32
2,71,100,32
2,74,100,64
2,74,100,32
2,67,100,320
2,76,100,32
2,74,100,64
2,72,100,64
2,71,100,64
2,72,100,32
2,71,100,64
2,69,100,32
2,69,100,32
2,69,100,1088
2,74,100,32
2,76,100,64
2,74,100,32
2,74,100,32
2,76,100,64
2,67,100,448
2,76,100,32
2,77,100,64
2,76,100,64
2,74,100,64
2,72,100,32
2,72,100,32
2,72,100,64
2,74,100,64
2,76,100,64
2,77,100,32
2,76,100,128
2,76,100,64
2,74,100,32
2,74,100,32
2,76,100,224
2,76,100,64
2,74,100,32
2,72,100,64
2,69,100,32
2,67,100,320
2,79,100,32
2,79,100,64
2,79,100,64
2,77,100,64
2,76,100,32
2,72,100,224
2,76,100,32
2,74,100,64
2,72,100,64
2,74,100,32
2,74,100,32
2,67,100,416
2,76,100,32
2,74,100,64
2,72,100,64
2,74,100,32
2,74,100,32
2,72,100,32
2,69,100,320
2,69,100,64
2,71,100,64
2,72,100,32
2,72,100,32
2,74,100,64
2,74,100,32
2,76,100,64
2,67,100,480
2,79,100,32
2,79,100,64
2,79,100,64
2,77,100,64
2,76,100,32
2,72,100,416
2,74,100,224
2,72,100,64
2,74,100,32
2,74,100,32
2,76,100,64
2,67,100,352
2,76,100,32
2,74,100,64
2,72,100,64
2,74,100,32
2,74,100,32
2,72,100,32
2,69,100,512
2,71,100,64
2,72,100,32
2,72,100,32
2,74,100,64
2,74,100,32
2,76,100,64
2,72,100,448
2,72,100,64
2,72,100,64
2,71,100,32
2,72,100,32
2,67,100,1152
2,67,100,64
2,67,100,64
2,65,100,64
2,64,100,64
2,65,100,64
2,67,100,32
2,67,100,320
2,67,100,32
2,67,100,64
2,71,100,64
2,72,100,64
2,72,100,32
2,69,100,64
2,67,100,256
2,72,100,32
2,71,100,64
2,69,100,32
2,69,100,32
2,67,100,64
2,69,100,32
