track,note,velocity,time
1,59,100,1920
1,62,100,56
1,59,0,4
1,62,0,16
1,62,100,12
1,59,100,93
1,62,0,3
1,62,100,24
1,59,0,7
1,64,100,83
1,62,0,6
1,64,0,137
1,62,100,38
1,62,0,101
1,62,100,18
1,60,100,59
1,62,0,6
1,59,100,24
1,60,0,4
1,60,100,28
1,59,0,6
1,59,100,24
1,60,0,5
1,55,100,23
1,59,0,1
1,55,0,49
1,55,100,15
1,55,0,58
1,52,100,0
1,55,100,27
1,52,0,6
1,55,0,27
1,60,100,0
1,60,0,48
1,60,100,12
1,59,100,57
1,60,0,5
1,55,100,57
1,59,0,5
1,52,100,54
1,55,0,2
1,50,100,180
1,52,0,4
1,52,100,26
1,50,0,2
1,52,0,212
1,50,100,0
1,50,0,18
1,50,100,11
1,48,100,54
1,50,0,5
1,48,0,24
1,47,100,0
1,47,0,116
1,59,100,1928
1,59,0,59
1,60,100,1
1,60,0,359
1,62,100,1
1,62,0,119
1,59,100,1
1,59,0,29
1,60,100,1
1,60,0,29
1,59,100,1
1,59,0,299
1,57,100,1
1,57,0,59
1,59,100,1
1,59,0,59
1,60,100,1
1,60,0,359
1,62,100,1
1,62,0,119
1,59,100,1
1,59,0,29
1,60,100,1
1,60,0,29
1,59,100,1
1,59,0,179
1,60,100,1
1,60,0,119
1,62,100,1
1,62,0,119
1,63,100,1
1,63,0,179
1,60,100,1
1,60,0,29
1,59,100,1
1,59,0,29
1,60,100,1
1,60,0,149
1,60,100,31
1,60,0,29
1,62,100,1
1,62,0,29
1,63,100,1
1,63,0,239
1,60,100,1
1,60,0,179
1,62,100,1
1,62,0,59
1,62,100,1
1,62,0,960
1,64,100,0
1,62,100,60
1,64,0,4
1,62,0,39
1,62,100,15
1,62,0,61
1,59,100,0
1,62,100,30
1,59,0,6
1,64,100,84
1,62,0,4
1,64,0,65
1,71,100,112
1,69,100,58
1,71,0,2
1,67,100,60
1,69,0,4
1,67,0,91
1,64,100,0
1,67,100,25
1,64,0,7
1,69,100,20
1,67,0,8
1,69,0,24
1,64,100,0
1,64,0,170
1,67,100,9
1,67,0,54
1,67,100,14
1,67,0,36
1,67,100,18
1,69,100,56
1,67,0,6
1,69,0,26
1,64,100,0
1,64,0,131
1,64,100,16
1,62,100,59
1,64,0,6
1,64,100,54
1,62,0,6
1,64,0,175
1,62,100,1
1,62,0,17
1,62,100,11
1,60,100,58
1,62,0,4
1,59,100,22
1,60,0,2
1,59,0,159
1,64,100,24
1,62,100,62
1,64,0,5
1,62,0,37
1,62,100,18
1,62,0,63
1,59,100,1
1,62,100,27
1,59,0,6
1,64,100,85
1,62,0,7
1,64,0,125
1,64,100,22
1,67,100,28
1,64,0,7
1,67,0,125
1,67,100,15
1,67,0,14
1,67,100,13
1,67,0,29
1,64,100,0
1,64,0,28
1,67,100,1
1,67,0,16
1,67,100,12
1,69,100,34
1,67,0,7
1,69,0,50
1,64,100,3
1,64,0,81
1,67,100,14
1,72,100,28
1,67,0,2
1,72,0,47
1,72,100,16
1,71,100,54
1,72,0,7
1,67,100,55
1,71,0,3
1,64,100,56
1,67,0,4
1,64,0,178
1,62,100,0
1,62,0,30
1,69,100,2
1,69,0,210
1,67,100,0
1,67,0,15
1,67,100,14
1,67,0,209
1,59,100,62
1,62,100,56
1,59,0,4
1,62,0,16
1,62,100,12
1,59,100,93
1,62,0,3
1,62,100,24
1,59,0,7
1,64,100,83
1,62,0,6
1,64,0,137
1,62,100,38
1,62,0,101
1,62,100,18
1,60,100,59
1,62,0,6
1,59,100,24
1,60,0,4
1,60,100,28
1,59,0,6
1,59,100,24
1,60,0,5
1,55,100,23
1,59,0,1
1,55,0,89
1,52,100,33
1,55,100,27
1,52,0,6
1,55,0,27
1,60,100,0
1,60,0,48
1,60,100,12
1,59,100,57
1,60,0,5
1,55,100,57
1,59,0,5
1,52,100,54
1,55,0,2
1,50,100,180
1,52,0,4
1,52,100,26
1,50,0,2
1,52,0,212
1,50,100,0
1,50,0,18
1,50,100,11
1,48,100,54
1,50,0,5
1,48,0,24
1,47,100,0
1,47,0,116
1,59,100,1928
1,59,0,59
1,60,100,1
1,60,0,359
1,62,100,1
1,62,0,119
1,59,100,1
1,59,0,29
1,60,100,1
1,60,0,29
1,59,100,1
1,59,0,299
1,57,100,1
1,57,0,59
1,59,100,1
1,59,0,59
1,60,100,1
1,60,0,359
1,62,100,1
1,62,0,119
1,59,100,1
1,59,0,29
1,60,100,1
1,60,0,29
1,59,100,1
1,59,0,179
1,60,100,1
1,60,0,119
1,62,100,1
1,62,0,119
1,63,100,1
1,63,0,179
1,60,100,1
1,60,0,29
1,59,100,1
1,59,0,29
1,60,100,1
1,60,0,149
1,60,100,31
1,60,0,29
1,62,100,1
1,62,0,29
1,63,100,1
1,63,0,239
1,60,100,1
1,60,0,179
1,62,100,1
1,62,0,59
1,62,100,1
1,62,0,960
1,64,100,0
1,62,100,60
1,64,0,4
1,62,0,39
1,62,100,15
1,62,0,61
1,59,100,0
1,62,100,30
1,59,0,6
1,64,100,84
1,62,0,4
1,64,0,65
1,71,100,112
1,69,100,58
1,71,0,2
1,67,100,60
1,69,0,4
1,67,0,91
1,64,100,0
1,67,100,25
1,64,0,7
1,69,100,20
1,67,0,8
1,69,0,24
1,64,100,0
1,64,0,170
1,67,100,9
1,67,0,54
1,67,100,14
1,67,0,36
1,67,100,18
1,69,100,56
1,67,0,6
1,69,0,26
1,64,100,0
1,64,0,131
1,64,100,16
1,62,100,59
1,64,0,6
1,64,100,54
1,62,0,6
1,64,0,175
1,62,100,1
1,62,0,17
1,62,100,11
1,60,100,58
1,62,0,4
1,59,100,22
1,60,0,2
1,59,0,159
1,64,100,24
1,62,100,62
1,64,0,5
1,62,0,37
1,62,100,18
1,62,0,63
1,59,100,1
1,62,100,27
1,59,0,6
1,64,100,85
1,62,0,7
1,64,0,125
1,64,100,22
1,67,100,28
1,64,0,7
1,67,0,125
1,67,100,15
1,67,0,14
1,67,100,13
1,67,0,29
1,64,100,0
1,64,0,28
1,67,100,1
1,67,0,16
1,67,100,12
1,69,100,34
1,67,0,7
1,69,0,50
1,64,100,3
1,64,0,81
1,67,100,14
1,72,100,28
1,67,0,2
1,72,0,47
1,72,100,16
1,71,100,54
1,72,0,7
1,67,100,55
1,71,0,3
1,64,100,56
1,67,0,4
1,64,0,178
1,62,100,0
1,62,0,30
1,69,100,2
1,69,0,210
1,67,100,0
1,67,0,15
1,67,100,14
1,67,0,209
1,67,127,62
1,67,0,239
1,66,122,1
1,66,0,239
1,65,100,1
1,65,0,239
1,64,100,1
1,64,0,179
1,67,100,61
1,67,0,59
1,67,100,1
1,67,0,59
1,67,100,1
1,67,0,59
1,69,100,1
1,69,0,59
1,64,100,1
1,64,0,179
1,62,100,1
1,62,0,29
1,69,100,1
1,69,0,209
1,67,100,1
1,67,0,29
1,67,100,1
1,67,0,239
1,67,100,31
1,67,0,239
1,66,100,1
1,66,0,239
1,65,100,1
1,65,0,239
1,64,100,1
1,64,0,179
1,67,100,61
1,67,0,59
1,67,100,1
1,67,0,59
1,67,100,1
1,67,0,59
1,69,100,1
1,69,0,59
1,64,100,1
1,64,0,179
1,62,100,1
1,62,0,29
1,69,100,1
1,69,0,209
1,67,100,1
1,67,0,29
1,67,100,1
1,67,0,269
2,79,100,3810
2,79,0,30
2,76,100,0
2,74,100,58
2,76,0,6
2,74,0,37
2,74,100,15
2,71,100,58
2,74,0,1
2,74,100,33
2,71,0,5
2,76,100,83
2,74,0,3
2,76,0,91
2,71,100,56
2,74,100,30
2,71,0,4
2,76,100,23
2,74,0,2
2,79,100,31
2,76,0,2
2,81,100,62
2,79,0,4
2,79,100,84
2,81,0,1
2,79,0,16
2,79,100,11
2,81,100,31
2,79,0,5
2,81,0,26
2,76,100,0
2,76,0,102
2,76,100,20
2,79,100,30
2,76,0,1
2,79,0,29
2,84,100,0
2,84,0,49
2,84,100,13
2,83,100,58
2,84,0,3
2,79,100,58
2,83,0,3
2,79,0,54
2,76,100,2
2,74,100,177
2,76,0,5
2,74,0,25
2,81,100,3
2,81,0,210
2,79,100,0
2,79,0,30
2,79,100,1
2,78,100,208
2,79,0,48
2,79,100,10
2,78,0,3
2,81,100,358
2,79,0,8
2,78,100,112
2,81,0,6
2,79,100,26
2,78,0,3
2,78,100,26
2,79,0,5
2,76,100,295
2,78,0,1
2,78,100,59
2,76,0,10
2,78,0,51
2,79,100,0
2,81,100,358
2,79,0,7
2,78,100,113
2,81,0,5
2,79,100,26
2,78,0,3
2,78,100,27
2,79,0,4
2,79,100,174
2,78,0,1
2,81,100,120
2,79,0,8
2,82,100,111
2,81,0,7
2,79,100,176
2,82,0,5
2,78,100,22
2,79,0,5
2,79,100,28
2,78,0,4
2,79,0,162
2,79,100,16
2,81,100,26
2,79,0,2
2,82,100,27
2,81,0,4
2,79,100,235
2,82,0,4
2,81,100,180
2,79,0,4
2,81,0,41
2,81,100,14
2,88,100,358
2,81,0,2
2,88,0,40
2,88,100,18
2,86,100,30
2,88,0,4
2,88,100,24
2,86,0,1
2,86,100,30
2,88,0,5
2,83,100,214
2,86,0,3
2,81,100,23
2,83,0,4
2,79,100,24
2,81,0,1
2,81,100,119
2,79,0,6
2,81,0,24
2,88,100,31
2,86,100,60
2,88,0,4
2,86,0,39
2,86,100,15
2,86,0,61
2,83,100,0
2,86,100,30
2,83,0,6
2,88,100,84
2,86,0,4
2,88,0,65
2,95,100,112
2,93,100,58
2,95,0,2
2,91,100,60
2,93,0,4
2,91,0,91
2,88,100,0
2,91,100,25
2,88,0,7
2,93,100,20
2,91,0,8
2,93,0,24
2,88,100,0
2,88,0,170
2,91,100,9
2,91,0,54
2,91,100,14
2,91,0,36
2,91,100,18
2,93,100,56
2,91,0,6
2,93,0,26
2,88,100,0
2,88,0,131
2,88,100,16
2,86,100,59
2,88,0,6
2,88,100,54
2,86,0,6
2,88,0,175
2,86,100,1
2,86,0,17
2,86,100,11
2,84,100,58
2,86,0,4
2,83,100,22
2,84,0,2
2,83,0,159
2,88,100,24
2,86,100,62
2,88,0,5
2,86,0,37
2,86,100,18
2,86,0,63
2,83,100,1
2,86,100,27
2,83,0,6
2,88,100,85
2,86,0,7
2,88,0,125
2,88,100,22
2,91,100,28
2,88,0,7
2,91,0,125
2,91,100,15
2,91,0,14
2,91,100,13
2,91,0,29
2,88,100,0
2,88,0,28
2,91,100,1
2,91,0,16
2,91,100,12
2,93,100,34
2,91,0,7
2,93,0,50
2,88,100,3
2,88,0,81
2,91,100,14
2,96,100,28
2,91,0,2
2,96,0,47
2,96,100,16
2,95,100,54
2,96,0,7
2,91,100,55
2,95,0,3
2,88,100,56
2,91,0,4
2,88,0,178
2,86,100,0
2,86,0,30
2,93,100,2
2,93,0,210
2,91,100,0
2,91,0,15
2,91,100,14
2,91,0,209
2,79,100,1952
2,79,0,30
2,76,100,0
2,74,100,58
2,76,0,6
2,74,0,37
2,74,100,15
2,71,100,58
2,74,0,1
2,74,100,33
2,71,0,5
2,76,100,83
2,74,0,3
2,76,0,91
2,71,100,56
2,74,100,30
2,71,0,4
2,76,100,23
2,74,0,2
2,79,100,31
2,76,0,2
2,81,100,62
2,79,0,4
2,79,100,84
2,81,0,1
2,79,0,16
2,79,100,11
2,81,100,31
2,79,0,5
2,81,0,26
2,76,100,0
2,76,0,102
2,76,100,20
2,79,100,30
2,76,0,1
2,79,0,29
2,84,100,0
2,84,0,49
2,84,100,13
2,83,100,58
2,84,0,3
2,79,100,58
2,83,0,3
2,79,0,54
2,76,100,2
2,74,100,177
2,76,0,5
2,74,0,25
2,81,100,3
2,81,0,210
2,79,100,0
2,79,0,30
2,79,100,1
2,78,100,208
2,79,0,48
2,79,100,10
2,78,0,3
2,81,100,358
2,79,0,8
2,78,100,112
2,81,0,6
2,79,100,26
2,78,0,3
2,78,100,26
2,79,0,5
2,76,100,295
2,78,0,1
2,78,100,59
2,76,0,10
2,78,0,51
2,79,100,0
2,81,100,358
2,79,0,7
2,78,100,113
2,81,0,5
2,79,100,26
2,78,0,3
2,78,100,27
2,79,0,4
2,79,100,174
2,78,0,1
2,81,100,120
2,79,0,8
2,82,100,111
2,81,0,7
2,79,100,176
2,82,0,5
2,78,100,22
2,79,0,5
2,79,100,28
2,78,0,4
2,79,0,162
2,79,100,16
2,81,100,26
2,79,0,2
2,82,100,27
2,81,0,4
2,79,100,235
2,82,0,4
2,81,100,180
2,79,0,4
2,81,0,41
2,81,100,14
2,88,100,358
2,81,0,2
2,88,0,40
2,88,100,18
2,86,100,30
2,88,0,4
2,88,100,24
2,86,0,1
2,86,100,30
2,88,0,5
2,83,100,214
2,86,0,3
2,81,100,23
2,83,0,4
2,79,100,24
2,81,0,1
2,81,100,119
2,79,0,6
2,81,0,24
2,88,100,31
2,86,100,60
2,88,0,4
2,86,0,39
2,86,100,15
2,86,0,61
2,83,100,0
2,86,100,30
2,83,0,6
2,88,100,84
2,86,0,4
2,88,0,65
2,95,100,112
2,93,100,58
2,95,0,2
2,91,100,60
2,93,0,4
2,91,0,91
2,88,100,0
2,91,100,25
2,88,0,7
2,93,100,20
2,91,0,8
2,93,0,24
2,88,100,0
2,88,0,170
2,91,100,9
2,91,0,54
2,91,100,14
2,91,0,36
2,91,100,18
2,93,100,56
2,91,0,6
2,93,0,26
2,88,100,0
2,88,0,131
2,88,100,16
2,86,100,59
2,88,0,6
2,88,100,54
2,86,0,6
2,88,0,175
2,86,100,1
2,86,0,17
2,86,100,11
2,84,100,58
2,86,0,4
2,83,100,22
2,84,0,2
2,83,0,159
2,88,100,24
2,86,100,62
2,88,0,5
2,86,0,37
2,86,100,18
2,86,0,63
2,83,100,1
2,86,100,27
2,83,0,6
2,88,100,85
2,86,0,7
2,88,0,125
2,88,100,22
2,91,100,28
2,88,0,7
2,91,0,125
2,91,100,15
2,91,0,14
2,91,100,13
2,91,0,29
2,88,100,0
2,88,0,28
2,91,100,1
2,91,0,16
2,91,100,12
2,93,100,34
2,91,0,7
2,93,0,50
2,88,100,3
2,88,0,81
2,91,100,14
2,96,100,28
2,91,0,2
2,96,0,47
2,96,100,16
2,95,100,54
2,96,0,7
2,91,100,55
2,95,0,3
2,88,100,56
2,91,0,4
2,88,0,178
2,86,100,0
2,86,0,30
2,93,100,2
2,93,0,210
2,91,100,0
2,91,0,15
2,91,100,14
2,91,0,209
2,83,100,62
2,83,0,239
2,81,100,1
2,81,0,209
2,81,100,31
2,81,0,239
2,79,100,1
2,79,0,179
2,76,100,1
2,76,0,29
2,79,100,1
2,79,0,29
2,84,100,1
2,84,0,59
2,84,100,1
2,84,0,59
2,83,100,1
2,83,0,59
2,79,100,1
2,79,0,59
2,76,100,1
2,76,0,29
2,74,100,1
2,76,100,0
2,74,0,29
2,76,0,120
2,74,100,1
2,74,0,59
2,81,100,1
2,81,0,179
2,79,100,1
2,79,0,29
2,79,100,1
2,79,0,269
2,83,100,1
2,83,0,149
2,84,100,1
2,84,0,29
2,83,100,1
2,83,0,59
2,81,100,1
2,81,0,239
2,86,100,1
2,86,0,89
2,84,100,1
2,84,0,59
2,83,100,1
2,83,0,59
2,81,100,1
2,81,0,29
2,81,100,1
2,81,0,29
2,83,100,1
2,81,100,0
2,81,0,29
2,83,0,0
2,79,100,1
2,76,100,120
2,76,0,29
2,79,0,0
2,79,100,1
2,79,0,29
2,84,100,1
2,84,0,59
2,84,100,1
2,84,0,59
2,83,100,1
2,83,0,59
2,79,100,1
2,79,0,59
2,76,100,1
2,77,100,0
2,77,0,29
2,74,100,1
2,74,0,29
2,76,0,120
2,74,100,1
2,74,0,29
2,81,100,1
2,81,0,209
2,79,100,1
2,79,0,29
2,79,100,1
2,79,0,269
3,31,94,0
3,31,0,115
3,31,91,65
3,31,0,40
3,38,87,20
3,38,0,235
3,31,94,5
3,31,0,115
3,31,91,65
3,31,0,40
3,36,87,20
3,36,0,235
3,36,95,5
3,36,0,125
