track,note,velocity,time
0,40,97,464
0,40,0,1
0,40,102,31
0,40,0,1
0,40,107,31
0,40,0,1
0,40,110,31
0,40,0,1
0,40,113,31
0,40,0,1
0,57,100,91
0,57,78,1
0,62,77,0
0,69,98,1
0,66,113,0
0,54,106,0
0,50,102,0
0,60,107,0
0,38,127,0
0,46,68,0
0,46,0,1
0,62,104,0
0,49,73,0
0,35,113,0
0,35,0,1
0,49,0,0
0,50,0,39
0,60,0,3
0,54,0,7
0,66,0,5
0,69,0,2
0,62,0,0
0,57,0,1
0,57,0,1
0,62,0,2
0,38,0,2
0,46,99,0
0,46,0,1
0,35,113,0
0,57,66,0
0,57,0,1
0,35,0,0
0,68,106,0
0,49,91,0
0,59,107,0
0,53,96,0
0,65,90,0
0,37,123,0
0,56,94,0
0,56,71,1
0,61,69,0
0,61,108,5
0,59,0,32
0,53,0,3
0,68,0,0
0,49,0,1
0,65,0,6
0,37,0,1
0,56,0,13
0,61,0,0
0,46,102,0
0,46,0,1
0,49,59,0
0,35,113,0
0,35,0,1
0,49,0,0
0,48,92,0
0,64,102,0
0,52,88,0
0,67,87,0
0,58,106,0
0,36,125,0
0,56,0,2
0,60,74,1
0,55,76,1
0,61,0,1
0,55,103,0
0,60,105,4
0,47,113,54
0,40,103,0
0,40,0,1
0,47,0,0
0,40,113,63
0,47,113,0
0,47,0,1
0,40,0,0
0,36,0,54
0,55,0,4
0,55,0,5
0,60,0,0
0,60,0,0
0,47,113,0
0,40,113,0
0,40,0,1
0,47,0,0
0,52,0,15
0,48,0,3
0,58,0,2
0,64,0,5
0,67,0,3
0,55,106,31
0,55,73,2
0,58,97,1
0,48,94,0
0,64,110,0
0,52,87,0
0,67,100,0
0,36,127,0
0,46,59,0
0,46,0,1
0,35,113,0
0,57,72,0
0,57,0,1
0,35,0,0
0,60,63,0
0,60,108,0
0,58,0,33
0,52,0,6
0,48,0,1
0,67,0,9
0,60,0,7
0,60,0,0
0,55,0,1
0,36,0,4
0,64,0,0
0,55,0,0
0,54,100,1
0,46,77,0
0,46,0,1
0,35,113,0
0,49,83,0
0,49,0,1
0,35,0,0
0,66,100,0
0,47,98,0
0,51,94,0
0,57,96,0
0,63,100,0
0,35,125,0
0,59,69,2
0,59,109,0
0,54,64,2
0,63,0,31
0,51,0,0
0,66,0,0
0,57,0,0
0,47,0,12
0,54,0,1
0,59,0,9
0,35,0,2
0,59,0,1
0,54,0,1
0,58,75,1
0,46,102,0
0,46,0,1
0,57,80,0
0,35,113,0
0,35,0,1
0,57,0,0
0,65,96,0
0,56,93,0
0,50,88,0
0,62,92,0
0,46,100,0
0,34,123,0
0,53,66,0
0,53,102,4
0,58,104,4
0,58,0,54
0,53,0,1
0,65,0,3
0,62,0,1
0,50,0,16
0,56,0,0
0,46,0,0
0,34,0,6
0,47,113,6
0,35,113,0
0,57,90,0
0,40,113,0
0,40,0,1
0,35,0,0
0,47,0,0
0,57,0,0
0,60,94,0
0,48,98,0
0,41,96,0
0,29,122,0
0,48,65,0
0,46,83,0
0,46,0,1
0,53,77,0
0,53,75,1
0,53,0,2
0,58,0,2
0,53,0,40
0,48,0,4
0,29,0,6
0,41,0,3
0,48,0,0
0,60,0,0
0,53,0,1
0,48,67,1
0,46,85,1
0,46,0,1
0,53,69,0
0,40,113,0
0,35,113,0
0,49,109,0
0,49,0,1
0,40,0,0
0,35,0,0
0,50,98,0
0,62,92,0
0,43,96,0
0,55,92,0
0,31,120,0
0,53,0,20
0,48,0,0
0,54,75,0
0,49,75,0
0,42,93,12
0,42,0,1
0,49,0,0
0,54,0,0
0,50,74,0
0,55,74,1
0,61,85,57
0,43,0,1
0,64,103,2
0,42,63,2
0,42,0,1
0,50,0,0
0,31,0,13
0,55,0,1
0,62,0,5
0,50,0,4
0,55,0,5
0,50,104,1
0,43,90,0
0,40,111,0
0,40,0,1
0,61,0,0
0,62,92,0
0,31,100,1
0,50,81,0
0,42,90,0
0,42,0,1
0,55,76,0
0,64,0,1
0,65,85,0
0,55,0,51
0,62,0,3
0,65,0,3
0,42,75,3
0,42,0,1
0,62,96,0
0,50,0,1
0,65,99,2
0,50,0,6
0,43,0,3
0,31,0,2
0,31,80,17
0,42,83,0
0,35,80,0
0,35,0,1
0,62,0,0
0,42,0,0
0,43,69,0
0,50,71,0
0,65,0,1
0,50,67,1
0,55,58,1
0,61,104,1
0,64,104,1
0,61,0,11
0,62,88,0
0,64,0,1
0,65,74,0
0,55,0,29
0,50,0,12
0,62,0,1
0,62,93,4
0,42,79,0
0,42,0,1
0,65,0,0
0,65,82,2
0,31,0,10
0,50,0,2
0,43,0,0
0,62,0,12
0,65,0,2
0,43,75,3
0,50,78,0
0,42,109,0
0,40,113,0
0,40,0,1
0,42,0,0
0,31,108,0
0,61,104,0
0,50,65,1
0,55,64,1
0,64,104,0
0,64,0,14
0,61,0,0
0,65,88,0
0,62,94,0
0,55,0,34
0,62,0,8
0,62,93,3
0,65,0,1
0,42,90,1
0,42,0,1
0,50,0,0
0,65,98,0
0,53,55,1
0,62,70,0
0,59,67,0
0,50,69,0
0,55,69,0
0,50,0,7
0,43,0,1
0,59,0,3
0,31,0,0
0,62,0,5
0,53,0,0
0,50,0,11
0,62,0,1
0,65,0,1
0,55,0,2
0,31,97,0
0,43,63,1
0,50,70,0
0,55,59,0
0,50,53,0
0,61,104,0
0,35,80,0
0,42,96,0
0,42,0,1
0,35,0,0
0,64,104,2
0,64,0,13
0,61,0,0
0,65,86,0
0,62,94,0
0,55,0,35
0,50,0,1
0,62,0,6
0,65,0,4
0,62,99,0
0,42,90,2
0,42,0,1
0,65,96,0
0,43,0,7
0,31,0,3
0,50,0,0
0,62,0,17
0,65,0,1
0,40,113,1
0,40,0,1
0,50,88,1
0,43,80,0
0,31,110,0
0,50,64,0
0,42,93,0
0,42,0,1
0,55,58,0
0,61,105,2
0,64,104,2
0,64,0,11
0,65,92,0
0,61,0,1
0,62,93,0
0,55,0,32
0,62,0,11
0,53,70,2
0,59,78,0
0,62,78,0
0,55,61,0
0,42,93,0
0,42,0,1
0,65,0,0
0,62,102,0
0,65,97,3
0,50,0,4
0,43,0,1
0,31,0,0
0,65,0,14
0,62,0,1
0,50,0,1
0,55,0,7
0,43,69,0
0,50,68,0
0,31,104,0
0,42,85,0
0,35,88,0
0,35,0,1
0,42,0,0
0,50,73,0
0,55,65,0
0,60,106,3
0,53,0,28
0,60,0,1
0,58,102,0
0,55,0,18
0,55,89,12
0,55,67,1
0,42,90,0
0,42,0,1
0,58,0,0
0,53,63,1
0,43,0,8
0,50,0,0
0,31,0,2
0,62,0,3
0,59,0,2
0,53,0,4
0,50,0,5
0,42,87,6
0,42,0,1
0,55,0,0
0,50,73,0
0,53,42,1
0,50,61,0
0,59,62,0
0,43,65,0
0,62,63,0
0,31,108,0
0,55,56,0
0,40,113,0
0,40,0,1
0,60,106,2
0,55,0,10
0,60,0,25
0,31,0,8
0,59,0,4
0,53,0,2
0,55,0,1
0,62,0,2
0,29,92,7
0,58,112,0
0,46,75,0
0,46,0,1
0,50,0,0
0,62,67,1
0,59,73,0
0,53,58,0
0,55,67,0
0,43,0,5
0,59,0,9
0,53,0,1
0,62,0,1
0,50,0,8
0,29,0,1
0,55,0,3
0,31,117,2
0,42,64,0
0,42,0,1
0,43,60,0
0,50,52,1
0,35,98,0
0,35,0,1
0,55,67,0
0,50,57,0
0,55,0,3
0,50,0,3
0,42,90,0
0,42,0,1
0,31,0,1
0,50,0,1
0,43,0,2
0,58,0,4
0,43,45,2
0,31,117,0
0,42,105,0
0,42,0,1
0,40,113,0
0,40,0,1
0,50,50,0
0,55,67,1
0,50,59,0
0,55,111,1
0,55,0,28
0,53,58,0
0,55,0,26
0,53,0,1
0,50,0,3
0,65,80,1
0,67,74,0
0,59,81,0
0,62,92,0
0,42,64,0
0,42,0,1
0,55,104,0
0,55,58,1
0,43,0,2
0,50,0,1
0,31,0,4
0,65,0,3
0,67,0,1
0,62,0,0
0,59,0,2
0,55,0,18
0,50,59,0
0,43,66,1
0,50,75,0
0,31,117,0
0,55,56,0
0,42,67,0
0,35,96,0
0,35,0,1
0,42,0,0
0,55,0,61
0,42,85,0
0,42,0,1
0,59,67,1
0,55,56,0
0,43,0,3
0,50,0,1
0,31,0,8
0,59,0,3
0,50,0,12
0,31,112,3
0,55,0,1
0,65,78,0
0,50,85,0
0,67,78,0
0,62,92,0
0,43,78,0
0,50,59,0
0,40,113,0
0,40,0,1
0,55,60,0
0,42,105,0
0,42,0,1
0,62,0,9
0,65,0,0
0,67,0,6
0,55,0,23
0,50,0,1
0,43,0,6
0,55,0,4
0,55,61,13
0,42,85,1
0,42,0,1
0,60,112,1
0,31,0,1
0,50,0,2
0,31,110,1
0,55,0,1
0,55,67,1
0,50,39,0
0,42,61,0
0,35,100,0
0,35,0,1
0,42,0,0
0,50,93,0
0,43,91,0
0,83,107,1
0,77,112,0
0,86,112,0
0,77,0,4
0,83,0,0
0,86,0,2
0,50,0,10
0,31,0,4
0,55,0,1
0,50,0,1
0,43,0,6
0,26,104,2
0,42,85,0
0,42,0,1
0,88,93,0
0,84,87,0
0,79,85,1
0,79,0,12
0,88,0,2
0,84,0,1
0,26,0,3
0,60,0,3
0,28,127,9
0,40,113,1
0,40,0,1
0,50,80,0
0,43,75,0
0,50,62,0
0,58,115,0
0,42,105,0
0,42,0,1
0,55,58,0
0,86,107,1
0,83,97,0
0,77,82,0
0,83,0,2
0,77,0,4
0,86,0,0
0,50,0,6
0,55,0,1
0,43,0,1
0,42,67,3
0,42,0,1
0,83,93,0
0,86,93,0
0,77,97,2
0,55,65,0
0,86,0,3
0,83,0,0
0,77,0,2
0,58,0,4
0,50,0,0
0,53,63,2
0,35,108,0
0,35,0,1
0,55,0,0
0,28,0,0
0,55,104,0
0,42,71,0
0,42,0,1
0,43,89,0
0,77,87,0
0,29,125,0
0,50,93,1
0,73,112,0
0,55,0,23
0,53,0,4
0,52,56,1
0,53,82,0
0,43,0,18
0,73,0,1
0,50,0,0
0,74,78,1
0,53,0,7
0,50,104,2
0,52,0,2
0,50,56,0
0,73,78,1
0,42,77,1
0,42,0,1
0,71,100,0
0,74,0,3
0,77,0,2
0,73,0,4
0,72,78,0
0,50,0,5
0,72,0,4
0,71,0,5
0,50,0,4
0,46,56,0
0,77,112,2
0,70,89,1
0,40,113,0
0,40,0,1
0,29,0,0
0,43,93,0
0,50,95,0
0,72,96,0
0,48,105,0
0,42,83,0
0,42,0,1
0,30,127,0
0,48,0,31
0,77,0,9
0,50,0,6
0,72,0,3
0,43,0,1
0,70,0,4
0,46,0,3
0,46,108,4
0,50,78,1
0,46,64,0
0,40,113,0
0,40,0,1
0,46,0,0
0,74,92,0
0,65,95,1
0,55,66,1
0,46,0,19
0,50,85,7
0,55,87,0
0,30,0,3
0,43,104,0
0,67,65,1
0,31,106,0
0,35,113,0
0,42,99,0
0,42,0,1
0,35,0,0
0,65,0,2
0,67,0,37
0,55,0,6
0,50,0,8
0,74,0,7
0,74,75,1
0,62,64,0
0,65,59,0
0,55,69,0
0,67,76,0
0,50,72,0
0,55,42,0
0,42,61,2
0,42,0,1
0,65,0,9
0,67,0,1
0,62,0,1
0,74,0,2
0,55,0,1
0,31,0,9
0,50,0,3
0,55,0,2
0,35,92,1
0,74,101,0
0,55,70,1
0,52,78,0
0,40,113,1
0,42,85,0
0,42,0,1
0,40,0,0
0,43,0,23
0,74,0,24
0,52,0,0
0,55,0,9
0,62,76,5
0,55,74,0
0,42,93,0
0,42,0,1
0,50,33,0
0,74,90,0
0,55,0,11
0,62,0,2
0,50,0,8
0,74,0,0
0,35,0,10
0,38,97,0
0,35,100,0
0,42,77,0
0,42,0,1
0,35,0,0
0,53,75,0
0,74,80,1
0,67,71,0
0,65,60,0
0,55,62,0
0,74,100,0
0,67,0,17
0,65,0,3
0,74,0,4
0,53,0,26
0,50,37,12
0,42,85,0
0,42,0,1
0,74,0,16
0,50,0,7
0,55,0,3
0,38,0,3
0,55,71,2
0,62,81,0
0,55,58,0
0,52,74,0
0,72,96,0
0,40,92,1
0,42,96,0
0,42,0,1
0,40,113,0
0,40,0,1
0,62,0,7
0,55,0,2
0,52,0,42
0,55,0,3
0,55,74,7
0,50,77,0
0,71,92,0
0,42,90,1
0,42,0,1
0,72,0,0
0,67,63,0
0,65,56,0
0,74,65,0
0,67,0,15
0,74,0,3
0,65,0,0
0,71,0,1
0,72,99,12
0,40,0,1
0,31,108,0
0,42,79,0
0,35,113,0
0,35,0,1
0,42,0,0
0,72,0,51
0,50,0,7
0,55,0,4
0,62,77,0
0,55,75,1
0,50,59,0
0,55,21,0
0,72,95,0
0,42,83,0
0,42,0,1
0,55,0,8
0,62,0,2
0,72,0,10
0,50,0,7
0,31,0,3
0,55,0,0
0,35,102,0
0,72,99,0
0,74,74,1
0,65,65,0
0,67,74,0
0,55,62,0
0,52,76,0
0,42,73,0
0,40,113,0
0,40,0,1
0,42,0,0
0,67,0,16
0,65,0,1
0,74,0,6
0,52,0,23
0,72,0,3
0,73,105,12
0,42,70,0
0,42,0,1
0,50,53,1
0,55,0,24
0,35,0,0
0,50,0,3
0,38,94,3
0,35,113,0
0,35,0,1
0,53,74,0
0,62,70,1
0,55,58,0
0,42,68,0
0,42,0,1
0,62,0,3
0,53,0,22
0,50,38,13
0,42,85,0
0,42,0,1
0,55,73,0
0,62,77,0
0,65,70,1
0,74,74,0
0,67,73,0
0,62,0,12
0,67,0,4
0,55,0,0
0,65,0,1
0,73,0,3
0,50,0,1
0,74,0,1
0,38,0,1
0,55,0,0
0,55,66,7
0,74,96,0
0,40,113,0
0,40,0,1
0,40,104,0
0,52,74,0
0,42,87,1
0,42,0,1
0,55,0,5
0,50,0,22
0,74,0,16
0,52,0,1
0,55,0,1
0,55,70,7
0,62,64,0
0,50,75,0
0,55,81,0
0,42,87,0
0,42,0,1
0,72,94,1
0,55,0,10
0,62,0,1
0,72,0,10
0,40,0,3
0,31,104,6
0,42,87,0
0,35,113,0
0,35,0,1
0,42,0,0
0,65,53,0
0,67,63,0
0,74,63,0
0,74,100,1
0,55,92,0
0,50,84,0
0,65,0,12
0,67,0,3
0,74,0,7
0,50,0,4
0,74,0,21
0,55,0,3
0,67,74,12
0,74,73,0
0,65,73,0
0,50,74,0
0,55,53,0
0,74,97,0
0,42,83,0
0,42,0,1
0,55,74,1
0,62,68,0
0,62,0,10
0,55,0,2
0,67,0,3
0,65,0,1
0,74,0,5
0,74,0,6
0,50,0,0
0,31,0,2
0,55,0,0
0,35,102,1
0,74,98,0
0,42,90,0
0,42,0,1
0,52,70,0
0,55,49,1
0,40,113,0
0,40,0,1
0,52,0,48
0,74,0,2
0,55,0,0
0,55,67,11
0,62,77,0
0,42,83,0
0,42,0,1
0,55,19,0
0,50,51,0
0,72,105,0
0,55,0,5
0,62,0,2
0,50,0,19
0,72,0,1
0,55,0,2
0,35,0,1
0,38,104,1
0,74,82,2
0,67,70,0
0,65,70,0
0,55,62,0
0,53,77,0
0,74,106,0
0,42,85,0
0,35,113,0
0,35,0,1
0,42,0,0
0,65,0,14
0,67,0,0
0,74,0,13
0,53,0,27
0,74,0,3
0,72,93,5
0,42,93,0
0,42,0,1
0,72,0,21
0,55,0,2
0,38,0,3
0,40,106,4
0,72,96,1
0,52,69,1
0,55,49,0
0,42,79,0
0,40,113,0
0,40,0,1
0,42,0,0
0,72,0,42
0,52,0,10
0,55,0,5
0,50,66,4
0,55,67,0
0,72,94,0
0,74,81,2
0,65,58,0
0,67,69,0
0,55,82,0
0,62,85,0
0,42,85,0
0,42,0,1
0,65,0,13
0,67,0,4
0,74,0,0
0,72,0,2
0,62,0,4
0,40,0,5
0,72,97,1
0,55,0,1
0,31,110,1
0,35,113,0
0,42,67,0
0,42,0,1
0,35,0,0
0,50,0,57
0,72,0,1
0,55,71,3
0,62,76,0
0,70,97,0
0,55,0,1
