track,note,velocity,time
1,41,113,1152
1,41,0,60
1,40,85,4
1,40,0,62
1,38,102,2
1,38,0,48
1,34,119,16
1,34,0,59
1,36,107,5
1,36,0,44
1,38,113,20
1,38,0,44
1,31,113,20
1,31,0,80
1,31,102,112
1,31,0,1948
1,31,89,932
1,31,0,705
1,31,80,63
1,31,0,696
1,31,89,72
1,31,0,721
1,31,80,47
1,31,0,732
1,36,102,36
1,36,0,700
1,36,89,68
1,36,0,760
1,31,89,8
1,31,0,714
1,31,85,54
1,31,0,740
1,38,93,28
1,38,0,710
1,38,93,58
1,38,0,716
1,31,113,52
1,31,0,103
1,41,113,1177
1,41,0,50
1,29,127,14
1,29,0,121
1,31,102,71
1,31,0,189
1,38,89,195
1,38,0,197
1,31,107,187
1,31,0,259
1,38,107,125
1,38,0,169
1,29,113,23
1,29,0,119
1,31,107,73
1,31,0,209
1,31,89,111
1,31,0,57
1,38,107,7
1,38,0,194
1,38,102,126
1,38,0,48
1,43,102,16
1,43,0,194
1,43,93,126
1,38,89,64
1,43,0,4
1,38,0,76
1,38,93,48
1,38,0,59
1,43,89,5
1,43,0,114
1,38,89,14
1,38,0,57
1,31,102,7
1,31,0,195
1,31,93,125
1,31,0,55
1,38,107,9
1,38,0,181
1,38,93,139
1,38,0,52
1,43,98,12
1,43,0,196
1,43,98,124
1,43,0,93
1,31,102,99
1,31,0,60
1,43,89,4
1,43,0,107
1,31,89,21
1,31,0,58
1,36,98,6
1,36,0,194
1,36,93,126
1,31,107,64
1,36,0,3
1,31,0,286
1,36,98,95
1,36,0,192
1,36,93,128
1,31,89,64
1,36,0,5
1,31,0,56
1,31,89,67
1,36,102,64
1,31,0,2
1,36,0,159
1,31,98,31
1,31,0,212
1,31,93,108
1,31,0,56
1,38,107,8
1,38,0,195
1,38,93,125
1,38,0,48
1,43,98,16
1,43,0,192
1,43,93,128
1,31,93,64
1,43,0,5
1,31,0,74
1,31,93,49
1,31,0,64
1,43,98,0
1,43,0,120
1,31,93,8
1,31,0,61
1,38,102,3
1,38,0,183
1,38,98,137
1,38,0,55
1,33,102,9
1,33,0,299
1,38,102,85
1,38,0,196
1,38,102,124
1,38,0,64
1,33,102,0
1,33,0,60
1,33,107,68
1,33,0,64
1,38,107,0
1,38,0,149
1,31,119,43
1,31,0,121
1,31,113,839
1,31,0,179
1,34,107,13
1,34,0,182
1,35,113,10
1,35,0,143
1,36,102,49
1,36,0,283
1,31,113,101
1,31,0,276
1,36,107,108
1,36,0,330
1,31,93,54
1,31,0,178
1,36,102,14
1,36,0,164
1,31,93,28
1,31,0,342
1,38,102,42
1,38,0,354
1,43,98,30
1,31,107,384
1,43,0,8
1,31,0,302
1,36,107,74
1,36,0,293
1,31,102,91
1,31,0,317
1,36,102,67
1,36,0,300
1,36,107,84
1,36,0,189
1,37,93,3
1,37,0,171
1,38,107,21
1,38,0,298
1,33,107,86
1,33,0,350
1,38,107,34
1,38,0,328
1,33,107,56
1,33,0,164
1,38,113,28
1,38,0,96
1,36,102,96
1,36,0,283
1,31,113,101
1,31,0,276
1,36,107,108
1,36,0,330
1,31,93,54
1,31,0,178
1,36,102,14
1,36,0,164
1,31,113,28
1,31,0,56
1,38,107,712
1,38,0,106
1,38,119,86
1,38,0,115
1,31,102,77
1,31,0,353
1,38,102,31
1,38,0,332
1,43,98,52
1,43,0,366
1,38,93,18
1,38,0,264
1,43,102,56
1,43,0,49
1,31,98,15
1,31,0,380
1,38,102,4
1,38,0,340
1,43,102,44
1,43,0,352
1,38,93,32
1,31,102,192
1,38,0,8
1,31,0,140
1,31,107,44
1,31,0,209
1,31,89,111
1,31,0,57
1,38,107,7
1,38,0,194
1,38,102,126
1,38,0,48
1,43,102,16
1,43,0,194
1,43,93,126
1,38,89,64
1,43,0,4
1,38,0,76
1,38,93,48
1,38,0,59
1,43,89,5
1,43,0,114
1,38,89,14
1,38,0,57
1,31,102,7
1,31,0,195
1,31,93,125
1,31,0,55
1,38,107,9
1,38,0,181
1,38,93,139
1,38,0,52
1,43,98,12
1,43,0,196
1,43,98,124
1,43,0,93
1,31,102,99
1,31,0,60
1,43,89,4
1,43,0,107
1,31,89,21
1,31,0,58
1,36,98,6
1,36,0,194
1,36,93,126
1,31,107,64
1,36,0,3
1,31,0,286
1,36,98,95
1,36,0,192
1,36,93,128
1,31,89,64
1,36,0,5
1,31,0,56
1,31,89,67
1,36,102,64
1,31,0,2
1,36,0,159
1,31,89,31
1,31,0,1063
1,38,102,473
1,38,0,183
1,38,98,137
1,38,0,55
1,33,102,9
1,33,0,299
1,38,102,85
1,38,0,196
1,38,102,124
1,38,0,64
1,33,102,0
1,33,0,60
1,33,107,68
1,33,0,64
1,38,107,0
1,38,0,149
1,31,119,43
1,31,0,121
1,31,113,839
1,31,0,179
1,34,107,13
1,34,0,182
1,35,113,10
1,35,0,143
1,36,102,49
1,36,0,283
1,31,113,101
1,31,0,276
1,36,107,108
1,36,0,330
1,31,93,54
1,31,0,178
1,36,102,14
1,36,0,164
1,31,93,28
1,31,0,342
1,38,102,42
1,38,0,354
1,43,98,30
1,31,107,384
1,43,0,8
1,31,0,302
1,36,107,74
1,36,0,293
1,31,102,91
1,31,0,317
1,36,102,67
1,36,0,300
1,36,107,84
1,36,0,189
1,37,93,3
1,37,0,171
1,38,107,21
1,38,0,298
1,33,107,86
1,33,0,350
1,38,107,34
1,38,0,328
1,33,107,56
1,33,0,164
1,38,113,28
1,38,0,96
1,36,102,96
1,36,0,283
1,31,113,101
1,31,0,276
1,36,107,108
1,36,0,330
1,31,93,54
1,31,0,178
1,36,102,14
1,36,0,164
1,31,113,28
1,31,0,56
1,38,107,712
1,38,0,106
1,38,119,86
1,38,0,115
1,31,102,77
1,31,0,189
1,38,89,195
1,38,0,197
1,31,107,187
1,31,0,259
1,38,107,125
1,38,0,169
1,29,113,23
1,29,0,119
1,36,102,73
1,36,0,283
1,31,113,101
1,31,0,276
1,36,107,108
1,36,0,330
1,31,93,54
1,31,0,178
1,36,102,14
1,36,0,164
1,31,93,28
1,31,0,342
1,38,102,42
1,38,0,354
1,43,98,30
1,31,107,384
1,43,0,8
1,31,0,302
1,36,107,74
1,36,0,293
1,31,102,91
1,31,0,317
1,36,102,67
1,36,0,300
1,36,107,84
1,36,0,189
1,37,93,3
1,37,0,171
1,38,107,21
1,38,0,298
1,33,107,86
1,33,0,350
1,38,107,34
1,38,0,328
1,33,107,56
1,33,0,164
1,38,113,28
1,38,0,96
1,36,98,96
1,36,0,763
1,48,89,5
1,48,0,720
1,38,113,48
1,38,0,102
1,38,107,90
1,38,0,101
1,38,107,91
1,38,0,105
1,38,107,87
1,38,0,108
1,38,107,84
1,38,0,108
1,38,107,84
1,38,0,106
1,38,102,86
1,38,0,111
1,38,113,81
1,38,0,110
1,38,107,82
1,38,0,149
1,38,113,43
1,38,0,66
1,38,113,20
1,38,0,168
1,37,107,24
1,37,0,120
1,36,102,72
1,36,0,283
1,31,113,101
1,31,0,276
1,36,107,108
1,36,0,330
1,31,93,54
1,31,0,178
1,36,102,14
1,36,0,164
1,31,93,28
1,31,0,342
1,38,102,42
1,38,0,354
1,43,98,30
1,31,107,384
1,43,0,8
1,31,0,302
1,36,107,74
1,36,0,293
1,31,102,91
1,31,0,317
1,36,102,67
1,36,0,300
1,36,107,84
1,36,0,189
1,37,93,3
1,37,0,171
1,38,107,21
1,38,0,298
1,33,107,86
1,33,0,350
1,38,107,34
1,38,0,328
1,33,107,56
1,33,0,164
1,38,113,28
1,38,0,96
1,36,102,96
1,36,0,283
1,31,113,101
1,31,0,276
1,36,107,108
1,36,0,330
1,31,93,54
1,31,0,178
1,36,102,14
1,36,0,164
1,43,113,28
1,43,0,176
1,41,113,16
1,41,0,175
1,40,107,17
1,40,0,181
1,38,102,11
1,38,0,143
1,38,113,49
1,38,0,118
1,38,107,74
1,38,0,109
1,31,102,83
1,31,0,353
1,38,102,31
1,38,0,332
1,43,98,52
1,43,0,366
1,38,93,18
1,38,0,264
1,43,102,56
1,43,0,49
1,31,113,15
1,31,0,56
1,38,107,712
1,38,0,106
1,38,119,86
1,38,0,115
1,31,102,77
1,31,0,353
1,38,102,31
1,38,0,332
1,43,98,52
1,43,0,366
1,38,93,18
1,38,0,264
1,43,102,56
1,43,0,49
1,31,98,15
1,31,0,380
1,38,102,4
1,38,0,340
1,43,102,44
1,43,0,352
1,38,93,32
1,31,102,192
1,38,0,8
1,31,0,140
1,31,102,44
1,31,0,353
1,38,102,31
1,38,0,332
1,43,98,52
1,43,0,366
1,38,93,18
1,38,0,264
1,43,102,56
1,43,0,49
1,41,113,399
1,41,0,60
1,40,85,4
1,40,0,62
1,38,102,2
1,38,0,48
1,34,119,16
1,34,0,59
1,36,107,5
1,36,0,44
1,38,113,20
1,38,0,44
1,31,113,20
1,31,0,80
1,31,102,112
1,31,0,1948
1,43,102,676
1,41,107,64
1,43,0,24
1,41,0,33
1,38,102,7
1,38,0,48
1,41,98,16
1,41,0,60
1,31,127,4
1,31,0,77
1,43,127,115
1,43,0,2304
2,43,102,1728
2,67,107,0
2,55,98,0
2,62,107,0
2,55,0,409
2,62,0,51
2,67,0,30
2,43,0,92
2,77,127,11
2,77,0,29
2,74,89,16
2,74,0,32
2,77,85,12
2,77,0,25
2,74,72,12
2,74,0,27
2,77,76,9
2,77,0,25
2,74,72,7
2,74,0,27
2,77,76,15
2,77,0,21
2,74,80,5
2,74,0,31
2,77,59,21
2,77,0,15
2,74,64,4
2,74,0,28
2,77,76,16
2,77,0,23
2,74,76,0
2,74,0,33
2,77,72,14
2,77,0,21
2,74,72,8
2,74,0,29
2,77,68,9
2,77,0,18
2,74,72,15
2,74,0,31
2,77,62,3
2,77,0,17
2,74,72,20
2,77,68,26
2,74,0,5
2,77,0,16
2,74,62,21
2,77,72,22
2,74,0,3
2,77,0,15
2,74,72,22
2,77,98,17
2,74,0,16
2,77,0,12
2,93,85,362
2,91,98,8
2,89,93,12
2,93,0,2
2,88,68,13
2,91,0,7
2,86,46,16
2,89,0,5
2,84,53,20
2,88,0,3
2,83,72,19
2,86,0,3
2,81,89,15
2,84,0,5
2,79,85,4
2,83,0,5
2,77,80,12
2,81,0,6
2,76,68,13
2,79,0,5
2,74,72,14
2,77,0,5
2,72,64,16
2,76,0,2
2,71,62,17
2,74,0,3
2,69,64,15
2,72,0,6
2,67,62,11
2,71,0,7
2,65,57,12
2,69,0,6
2,64,53,10
2,67,0,7
2,62,57,5
2,65,0,8
2,60,80,4
2,64,0,2
2,62,0,7
2,60,0,3
2,43,107,9248
2,55,85,192
2,67,98,0
2,62,93,0
2,67,0,82
2,55,0,2
2,62,0,1
2,74,72,334
2,79,76,0
2,67,60,0
2,74,0,32
2,79,0,5
2,67,0,7
2,74,93,102
2,79,102,0
2,67,72,0
2,74,0,31
2,67,0,8
2,79,0,4
2,79,89,134
2,74,93,0
2,67,72,0
2,43,0,17
2,74,0,11
2,79,0,1
2,67,0,6
2,43,98,29
2,55,80,192
2,62,85,0
2,59,89,0
2,55,0,64
2,59,0,1
2,62,0,3
2,55,55,80
2,55,0,65
2,50,89,63
2,50,0,43
2,59,98,21
2,62,89,0
2,55,89,0
2,50,93,192
2,55,0,10
2,50,0,14
2,59,0,11
2,62,0,4
2,53,60,0
2,59,93,0
2,62,89,0
2,53,0,36
2,59,0,10
2,62,0,10
2,50,98,17
2,50,0,12
2,62,102,140
2,55,93,0
2,59,107,0
2,59,0,35
2,55,0,1
2,62,0,3
2,50,89,22
2,43,0,28
2,50,0,9
2,43,102,75
2,62,72,4
2,59,80,0
2,53,80,0
2,53,0,144
2,59,0,26
2,62,0,1
2,50,89,21
2,50,0,98
2,59,93,30
2,62,98,0
2,55,85,0
2,59,0,40
2,55,0,4
2,62,0,3
2,50,76,145
2,50,0,52
2,62,46,12
2,55,93,0
2,62,0,1
2,55,0,60
2,55,72,25
2,55,0,128
2,50,89,0
2,50,0,57
2,62,93,7
2,59,93,0
2,62,0,38
2,59,0,3
2,62,98,73
2,55,89,0
2,59,102,0
2,62,0,98
2,59,0,14
2,55,0,20
2,50,93,57
2,55,98,64
2,43,0,7
2,50,0,14
2,55,0,60
2,59,76,46
2,59,0,44
2,48,93,6
2,55,93,0
2,58,107,192
2,58,0,53
2,55,0,42
2,55,98,205
2,55,0,52
2,58,107,12
2,58,0,52
2,55,98,76
2,55,0,61
2,60,89,3
2,60,0,60
2,60,98,68
2,60,0,21
2,55,98,16
2,55,0,62
2,58,113,66
2,58,0,102
2,55,98,13
2,55,0,44
2,48,0,8
2,58,102,12
2,58,0,69
2,55,89,59
2,55,0,21
2,43,98,3
2,62,76,192
2,55,76,0
2,59,89,0
2,62,0,32
2,55,0,4
2,59,0,13
2,50,89,47
2,50,0,46
2,55,80,18
2,55,0,97
2,50,85,31
2,50,0,44
2,55,93,118
2,67,102,0
2,62,102,0
2,55,0,28
2,62,0,6
2,67,0,5
2,62,98,128
2,67,98,0
2,55,89,0
2,62,0,15
2,55,0,6
2,67,0,3
2,55,93,63
2,62,98,0
2,67,102,0
2,62,0,31
2,55,0,1
2,67,0,13
2,43,0,86
2,55,80,8
2,67,93,0
2,62,93,0
2,62,0,1
2,55,0,2
2,67,0,5
2,50,113,19
2,57,93,192
2,62,93,0
2,54,85,0
2,62,0,87
2,54,0,3
2,57,0,20
2,54,64,19
2,62,93,0
2,57,93,0
2,50,0,6
2,62,0,67
2,54,0,6
2,57,0,7
2,50,102,42
2,50,0,44
2,55,72,20
2,54,80,0
2,54,0,48
2,55,0,0
2,50,102,80
2,50,0,49
2,62,89,15
2,57,93,0
2,62,0,48
2,57,0,16
2,62,98,64
2,57,107,0
2,62,0,64
2,57,0,6
2,50,102,112
2,50,0,18
2,57,93,21
2,62,98,0
2,62,0,46
2,54,89,34
2,57,0,12
2,54,0,12
2,43,119,21
2,50,113,0
2,50,0,80
2,43,0,4
2,67,113,876
2,55,119,0
2,67,0,69
2,55,0,6
2,70,107,36
2,58,113,0
2,58,0,26
2,70,0,6
2,71,107,82
2,59,102,0
2,71,0,76
2,59,0,1
2,64,85,115
2,36,89,0
2,60,85,0
2,67,89,0
2,60,0,57
2,36,0,15
2,60,68,5
2,60,0,124
2,60,48,68
2,64,0,5
2,60,0,82
2,67,0,5
2,48,80,36
2,48,0,13
2,62,107,23
2,67,102,0
2,67,0,105
2,62,0,11
2,58,113,12
2,58,0,6
2,60,85,16
2,64,98,0
2,67,93,0
2,64,0,48
2,60,0,0
2,67,0,8
2,58,72,66
2,60,80,54
2,67,85,0
2,64,89,0
2,58,0,4
2,58,59,100
2,64,0,10
2,60,0,5
2,67,0,2
2,58,0,47
2,62,93,0
2,67,85,0
2,60,93,128
2,62,0,11
2,67,0,9
2,60,0,10
2,55,85,19
2,74,59,32
2,71,59,0
2,67,64,0
2,62,85,0
2,74,0,39
2,71,0,8
2,67,0,11
2,62,0,2
2,74,89,121
2,71,98,0
2,65,85,0
2,71,0,37
2,74,0,2
2,65,0,2
2,62,93,88
2,62,0,59
2,74,76,5
2,65,72,0
2,71,89,0
2,55,0,50
2,65,0,13
2,74,0,57
2,65,64,8
2,71,0,1
2,71,80,63
2,65,0,7
2,71,0,45
2,50,93,76
2,50,0,7
2,43,93,20
2,50,93,28
2,62,102,28
2,43,0,8
2,50,0,10
2,57,93,90
2,57,0,14
2,62,0,7
2,48,93,5
2,59,60,192
2,67,80,0
2,64,85,0
2,59,0,43
2,64,0,14
2,67,0,2
2,55,72,56
2,55,0,57
2,60,72,6
2,64,85,0
2,67,80,0
2,64,0,2
2,67,0,7
2,60,0,1
2,55,93,56
2,55,0,43
2,66,41,1
2,58,64,0
2,66,0,13
2,58,0,39
2,58,85,76
2,62,98,0
2,62,0,34
2,58,0,1
2,67,98,68
2,62,98,0
2,58,89,0
2,62,0,40
2,67,0,6
2,58,0,2
2,55,51,16
2,55,0,43
2,62,89,85
2,67,89,0
2,58,72,0
