track,note,velocity,time
1,34,84,6496
1,65,73,4
1,46,91,0
1,58,100,6
1,53,60,204
1,58,60,8
1,61,91,18
1,53,64,186
1,58,73,18
1,46,82,6
1,53,64,198
1,58,64,12
1,61,100,26
1,53,61,14
1,58,75,14
1,32,84,0
1,44,91,4
1,63,73,4
1,56,100,2
1,51,60,204
1,56,60,8
1,63,91,18
1,51,64,186
1,56,73,18
1,44,82,26
1,51,64,198
1,56,64,12
1,63,100,26
1,56,61,14
1,53,75,14
1,34,84,0
1,65,73,4
1,46,91,0
1,58,100,6
1,53,60,204
1,58,60,8
1,61,91,18
1,53,64,186
1,58,73,18
1,46,82,6
1,53,64,198
1,58,64,12
1,61,100,26
1,53,61,14
1,58,75,14
1,32,84,0
1,44,91,4
1,63,73,4
1,56,100,2
1,51,60,204
1,56,60,8
1,63,91,18
1,51,64,186
1,56,73,18
1,48,82,26
1,51,64,198
1,56,64,12
1,63,100,26
1,46,69,4
1,60,61,4
1,56,75,14
1,48,70,2
1,37,84,12
1,65,73,0
1,49,91,0
1,61,100,6
1,53,60,204
1,56,60,8
1,61,91,18
1,53,64,186
1,56,73,18
1,61,78,2
1,49,82,4
1,53,64,198
1,56,64,12
1,65,100,26
1,51,69,4
1,61,61,4
1,56,75,14
1,52,70,2
1,29,84,12
1,41,91,0
1,57,100,6
1,51,60,204
1,53,60,8
1,60,91,18
1,51,64,186
1,53,73,18
1,51,82,22
1,41,82,4
1,57,50,198
1,53,76,12
1,65,100,26
1,53,61,14
1,57,75,14
1,34,84,0
1,65,73,4
1,46,91,0
1,58,100,6
1,53,60,204
1,58,60,8
1,61,91,18
1,53,64,186
1,58,73,18
1,46,82,6
1,53,64,198
1,58,64,12
1,61,100,26
1,49,69,10
1,53,61,4
1,58,75,14
1,51,70,2
1,29,84,12
1,41,91,0
1,51,73,4
1,57,100,2
1,53,60,204
1,57,60,8
1,65,91,18
1,53,76,186
1,57,82,18
1,57,64,10
1,29,81,8
1,41,91,4
1,60,82,0
1,65,97,6
1,34,84,18
1,65,73,4
1,46,91,0
1,58,100,6
1,53,60,204
1,58,60,8
1,61,91,18
1,53,64,186
1,58,73,18
1,65,73,26
1,46,82,0
1,53,64,198
1,58,64,12
1,61,100,26
1,53,61,14
1,34,73,12
1,58,75,2
1,32,84,0
1,44,91,4
1,63,73,2
1,56,100,2
1,51,60,204
1,56,60,8
1,63,91,18
1,51,64,186
1,56,73,16
1,39,69,2
1,58,82,0
1,63,82,0
1,44,82,10
1,56,73,0
1,32,71,0
1,51,64,22
1,68,76,8
1,63,94,0
1,58,89,6
1,56,80,22
1,68,82,20
1,63,95,4
1,56,90,2
1,53,65,2
1,41,69,2
1,34,84,12
1,65,73,4
1,46,91,0
1,58,100,4
1,53,60,204
1,58,60,8
1,61,91,18
1,53,64,186
1,61,60,18
1,58,73,0
1,41,72,2
1,46,82,6
1,34,70,0
1,65,81,0
1,53,64,198
1,58,64,12
1,61,100,26
1,53,61,14
1,58,75,14
1,32,84,0
1,44,91,4
1,63,73,4
1,56,100,2
1,51,60,204
1,56,60,8
1,63,91,18
1,51,64,186
1,56,73,8
1,39,73,2
1,32,72,10
1,44,82,2
1,51,64,198
1,56,64,12
1,63,100,26
1,46,69,4
1,60,61,4
1,34,66,2
1,36,63,10
1,56,75,4
1,48,70,2
1,37,84,12
1,65,73,0
1,49,91,0
1,61,100,6
1,53,60,204
1,56,60,8
1,61,91,18
1,53,64,186
1,56,73,18
1,61,78,2
1,49,82,4
1,53,64,198
1,56,64,12
1,65,100,26
1,51,69,4
1,37,64,4
1,61,61,0
1,39,64,10
1,56,75,4
1,52,70,2
1,29,84,12
1,41,91,0
1,57,100,6
1,51,60,204
1,53,60,8
1,60,91,18
1,51,64,186
1,53,73,18
1,51,82,22
1,41,82,4
1,57,50,198
1,53,76,12
1,57,73,22
1,65,100,4
1,53,61,14
1,57,75,14
1,34,84,0
1,65,73,4
1,46,91,0
1,58,100,6
1,53,60,204
1,58,60,8
1,61,91,18
1,53,64,186
1,58,73,10
1,41,73,4
1,46,82,6
1,34,71,0
1,53,64,198
1,58,64,12
1,61,100,26
1,53,61,14
1,35,64,12
1,58,75,2
1,47,70,2
1,36,84,8
1,48,91,0
1,60,73,4
1,64,100,2
1,55,60,204
1,60,60,8
1,64,91,18
1,55,76,186
1,60,82,18
1,29,84,18
1,41,91,4
1,63,73,4
1,57,100,2
1,53,60,204
1,60,60,8
1,65,91,8
1,53,76,186
1,65,82,18
1,63,82,30
1,53,102,24
1,58,93,0
1,62,99,2
1,46,91,0
1,34,84,2
1,55,91,52
1,62,82,0
1,55,82,40
1,62,64,4
1,62,60,0
1,57,100,8
1,41,82,2
1,62,94,0
1,57,104,2
1,53,82,2
1,34,80,2
1,46,82,0
1,61,66,4
1,58,56,2
1,62,60,64
1,53,73,2
1,65,82,38
1,57,91,2
1,62,98,0
1,53,73,6
1,57,82,12
1,65,91,2
1,62,91,4
1,41,73,0
1,27,84,0
1,39,91,0
1,62,91,4
1,58,91,0
1,63,73,2
1,55,73,194
1,55,73,30
1,62,100,2
1,58,100,2
1,63,91,0
1,58,91,20
1,63,82,2
1,62,91,0
1,55,82,4
1,34,69,4
1,63,97,2
1,67,97,4
1,62,91,2
1,58,91,0
1,27,71,2
1,39,82,0
1,60,73,42
1,63,73,4
1,67,73,0
1,63,100,46
1,60,104,0
1,67,95,2
1,67,73,26
1,27,64,6
1,63,73,0
1,58,88,0
1,39,60,0
1,57,82,20
1,63,91,4
1,67,82,0
1,28,73,2
1,40,82,2
1,29,84,6
1,41,91,0
1,57,91,4
1,60,91,2
1,63,73,0
1,53,91,2
1,62,82,48
1,63,73,2
1,53,91,0
1,58,82,2
1,58,64,32
1,62,82,0
1,53,82,2
1,63,73,2
1,53,82,28
1,60,82,0
1,63,64,0
1,36,72,2
1,63,96,0
1,60,103,2
1,53,91,2
1,29,70,2
1,41,82,0
1,53,60,50
1,57,73,192
1,60,91,8
1,63,82,0
1,53,91,2
1,53,73,46
1,60,88,174
1,34,84,0
1,46,91,2
1,58,82,8
1,53,73,2
1,67,101,0
1,63,98,0
1,58,82,50
1,62,91,2
1,65,82,2
1,53,78,82
1,58,77,20
1,62,91,10
1,41,73,0
1,53,91,10
1,58,91,0
1,34,72,0
1,62,91,2
1,46,82,0
1,65,82,2
1,53,73,24
1,58,91,84
1,65,91,26
1,58,91,0
1,53,91,0
1,62,91,4
1,48,69,18
1,36,66,10
1,49,70,22
1,37,63,4
1,38,84,6
1,50,91,6
1,66,102,4
1,62,91,0
1,57,82,2
1,60,101,0
1,57,73,60
1,62,91,42
1,62,100,34
1,66,82,0
1,57,82,0
1,60,91,4
1,57,82,2
1,62,91,12
1,50,73,2
1,38,64,2
1,67,100,26
1,57,91,4
1,51,82,2
1,39,82,0
1,62,100,0
1,67,64,32
1,63,79,2
1,58,64,0
1,63,91,24
1,67,91,2
1,58,82,0
1,51,69,4
1,63,71,2
1,58,74,8
1,46,70,6
1,39,84,8
1,51,91,0
1,58,91,4
1,63,91,6
1,67,100,0
1,58,73,58
1,63,73,184
1,58,91,16
1,63,64,2
1,51,82,2
1,67,94,0
1,50,82,40
1,38,82,2
1,37,73,38
1,49,91,8
1,64,91,18
1,55,91,0
1,60,91,0
1,48,82,6
1,36,82,4
1,55,91,60
1,64,91,0
1,58,82,4
1,64,91,28
1,58,91,4
1,55,91,30
1,48,64,2
1,64,91,12
1,36,84,0
1,58,100,2
1,55,82,0
1,48,91,2
1,55,64,40
1,58,82,164
1,64,101,20
1,60,91,0
1,58,91,0
1,55,82,8
1,55,93,32
1,48,73,14
1,60,91,8
1,63,82,6
1,41,82,0
1,57,82,4
1,67,82,0
1,53,82,0
1,53,82,60
1,41,82,86
1,60,91,102
1,41,91,2
1,53,91,2
1,57,91,2
1,63,91,0
1,67,91,6
1,53,82,98
1,41,91,80
1,60,91,70
1,53,82,2
1,65,100,2
1,41,91,0
1,63,91,2
1,57,73,0
1,53,91,98
1,41,82,74
1,60,91,58
1,41,91,0
1,53,91,0
1,57,82,0
1,65,82,2
1,63,82,0
1,29,100,176
1,58,93,6
1,53,102,0
1,46,91,2
1,62,99,0
1,34,84,2
1,55,91,52
1,62,82,0
1,55,82,40
1,62,64,4
1,62,60,0
1,57,100,8
1,41,82,2
1,62,94,0
1,57,104,2
1,53,82,2
1,34,80,2
1,46,82,0
1,61,66,4
1,58,56,2
1,62,60,64
1,53,73,2
1,65,82,38
1,57,91,2
1,62,98,0
1,53,73,6
1,57,82,12
1,65,91,2
1,62,91,4
1,41,73,0
1,27,84,0
1,39,91,0
1,62,91,4
1,58,91,0
1,63,73,2
1,55,73,194
1,55,73,30
1,62,100,2
1,58,100,2
1,63,91,0
1,58,91,20
1,63,82,2
1,62,91,0
1,55,82,4
1,34,69,4
1,63,97,2
1,67,97,4
1,62,91,2
1,58,91,0
1,27,71,2
1,39,82,0
1,60,73,42
1,63,73,4
1,67,73,0
1,63,100,46
1,60,104,0
1,67,95,2
1,67,73,26
1,27,64,6
1,63,73,0
1,58,88,0
1,39,60,0
1,57,82,20
1,63,91,4
1,67,82,0
1,28,73,2
1,40,82,2
1,29,84,6
1,41,91,0
1,57,91,4
1,60,91,2
1,63,73,0
1,53,91,2
1,62,82,48
1,63,73,2
1,53,91,0
1,58,82,2
1,58,64,32
1,62,82,0
1,53,82,2
1,63,73,2
1,53,82,28
1,60,82,0
1,63,64,0
1,36,72,2
1,63,96,0
1,60,103,2
1,53,91,2
1,29,70,2
1,41,82,0
1,53,60,50
1,57,73,192
1,60,91,8
1,63,82,0
1,53,91,2
1,53,73,46
1,60,88,174
1,34,84,0
1,46,91,2
1,58,82,8
1,53,73,2
1,67,101,0
1,63,98,0
1,58,82,50
1,62,91,2
1,65,82,2
1,53,78,82
1,58,77,20
1,62,91,10
1,41,73,0
1,53,91,10
1,58,91,0
1,34,72,0
1,62,91,2
1,46,82,0
1,65,82,2
1,53,73,24
1,58,91,84
1,65,91,26
1,58,91,0
1,53,91,0
1,62,91,4
1,48,69,18
1,36,66,10
1,49,70,22
1,37,63,4
1,38,84,6
1,50,91,6
1,66,102,4
1,62,91,0
1,57,82,2
1,60,101,0
1,57,73,60
1,62,91,42
1,62,100,34
1,66,82,0
1,57,82,0
1,60,91,4
1,57,82,2
1,62,91,12
1,50,73,2
1,38,64,2
1,67,100,26
1,57,91,4
1,51,82,2
1,39,82,0
1,62,100,0
1,67,64,32
1,63,79,2
1,58,64,0
1,63,91,24
1,67,91,2
1,58,82,0
1,51,69,4
1,63,71,2
1,58,74,8
1,46,70,6
1,39,84,8
1,51,91,0
1,58,91,4
1,63,91,6
1,67,100,0
1,58,73,58
1,63,73,184
1,58,91,16
1,63,64,2
1,51,82,2
1,67,94,0
1,50,82,40
1,38,82,2
1,37,73,38
1,49,91,8
1,64,91,18
1,55,91,0
1,60,91,0
1,48,82,6
1,36,82,4
1,55,91,60
1,64,91,0
1,58,82,4
1,64,91,28
1,58,91,4
1,55,91,30
1,48,64,2
1,64,91,12
1,36,84,0
1,58,100,2
1,55,82,0
1,48,91,2
1,55,64,40
1,58,82,164
1,64,101,20
1,60,91,0
1,58,91,0
1,55,82,8
1,55,93,32
1,48,73,14
1,60,91,8
1,63,82,6
1,41,82,0
1,57,82,4
1,67,82,0
1,53,82,0
1,53,82,60
1,41,82,86
1,60,91,102
1,41,91,2
1,53,91,2
1,57,91,2
1,63,91,0
1,67,91,6
1,53,82,98
1,41,91,80
1,60,91,70
1,53,82,2
1,65,100,2
1,41,91,0
1,63,91,2
1,57,73,0
1,53,91,98
1,41,82,74
1,60,91,58
1,41,91,0
1,53,91,0
1,57,82,0
1,65,82,2
1,63,82,0
1,59,93,216
1,54,102,0
1,47,91,2
1,63,99,0
1,35,84,2
1,56,91,52
1,63,82,0
1,56,82,40
1,63,64,4
1,63,60,0
1,58,100,8
1,42,82,2
1,63,94,0
1,58,104,2
1,54,82,2
1,35,80,2
1,47,82,0
1,62,66,4
1,59,56,2
1,63,60,64
1,54,73,2
1,66,82,38
1,58,91,2
1,63,98,0
1,54,73,6
1,58,82,12
1,66,91,2
1,63,91,4
1,42,73,0
1,28,84,0
1,40,91,0
1,63,91,4
1,59,91,0
1,64,73,2
1,56,73,194
1,56,73,30
1,63,100,2
1,59,100,2
1,64,91,0
1,59,91,20
1,64,82,2
1,63,91,0
1,56,82,4
1,35,69,4
1,64,97,2
1,68,97,4
1,63,91,2
1,59,91,0
1,28,71,2
1,40,82,0
1,61,73,42
1,64,73,4
1,68,73,0
1,64,100,46
1,61,104,0
1,68,95,2
1,68,73,26
1,28,64,6
1,64,73,0
1,59,88,0
1,40,60,0
1,58,82,20
1,64,91,4
1,68,82,0
1,29,73,2
1,41,82,2
1,30,84,6
1,42,91,0
1,58,91,4
1,61,91,2
1,64,73,0
1,54,91,2
1,63,82,48
1,64,73,2
1,54,91,0
1,59,82,2
1,59,64,32
1,63,82,0
1,54,82,2
1,64,73,2
1,54,82,28
1,61,82,0
1,64,64,0
1,37,72,2
1,64,96,0
1,61,103,2
1,54,91,2
1,30,70,2
1,42,82,0
1,54,60,50
1,58,73,192
1,61,91,8
1,64,82,0
1,54,91,2
1,54,73,46
1,61,88,174
1,35,84,0
1,47,91,2
1,59,82,8
1,54,73,2
1,68,101,0
1,64,98,0
1,59,82,50
1,63,91,2
1,66,82,2
1,54,78,82
1,59,77,20
1,63,91,10
1,42,73,0
1,54,91,10
1,59,91,0
1,35,72,0
1,63,91,2
1,47,82,0
1,66,82,2
1,54,73,24
1,59,91,84
1,66,91,26
1,59,91,0
1,54,91,0
1,63,91,4
1,49,69,18
1,37,66,10
1,50,70,22
1,38,63,4
1,39,84,6
1,51,91,6
1,67,102,4
1,63,91,0
1,58,82,2
1,61,101,0
1,58,73,60
1,63,91,42
1,63,100,34
1,67,82,0
1,58,82,0
1,61,91,4
1,58,82,2
1,63,91,12
1,51,73,2
1,39,64,2
1,68,100,26
1,58,91,4
1,52,82,2
1,40,82,0
1,63,100,0
1,68,64,32
1,64,79,2
1,59,64,0
1,64,91,24
1,68,91,2
1,59,82,0
1,52,69,4
1,64,71,2
1,59,74,8
1,47,70,6
1,40,84,8
1,52,91,0
1,59,91,4
1,64,91,6
1,68,100,0
1,59,73,58
1,64,73,184
1,59,91,16
1,64,64,2
1,52,82,2
1,68,94,0
1,51,82,40
1,39,82,2
1,38,73,38
1,50,91,8
1,65,91,18
1,56,91,0
1,61,91,0
1,49,82,6
1,37,82,4
1,56,91,60
1,65,91,0
1,59,82,4
1,65,91,28
1,59,91,4
1,56,91,30
1,49,64,2
1,65,91,12
1,37,84,0
1,59,100,2
1,56,82,0
1,49,91,2
1,56,64,40
1,59,82,164
1,65,101,20
1,61,91,0
1,59,91,0
1,56,82,8
1,56,93,32
1,49,73,14
1,61,91,8
1,64,82,6
1,42,82,0
1,58,82,4
1,68,82,0
1,54,82,0
1,54,82,60
1,42,82,86
1,61,91,102
1,42,91,2
1,54,91,2
1,58,91,2
1,64,91,0
1,68,91,6
1,54,82,98
1,42,91,80
1,61,91,70
1,54,82,2
1,66,100,2
1,42,91,0
1,64,91,2
1,58,73,0
1,54,91,98
1,42,82,74
1,61,91,58
1,42,91,0
1,54,91,0
1,58,82,0
1,66,82,2
1,64,82,0
1,30,100,176
1,59,93,6
1,54,102,0
1,47,91,2
1,63,99,0
1,35,84,2
1,56,91,52
1,63,82,0
1,56,82,40
1,63,64,4
1,63,60,0
1,58,100,8
1,42,82,2
1,63,94,0
1,58,104,2
1,54,82,2
1,35,80,2
1,47,82,0
1,62,66,4
1,59,56,2
1,63,60,64
1,54,73,2
1,66,82,38
1,58,91,2
1,63,98,0
1,54,73,6
1,58,82,12
1,66,91,2
1,63,91,4
1,42,73,0
1,28,84,0
1,40,91,0
1,63,91,4
1,59,91,0
1,64,73,2
1,56,73,102
1,56,73,14
1,63,100,2
1,59,100,2
