track,note,velocity,time
0,37,64,0
0,37,64,1
0,37,64,1
0,37,64,1
0,67,88,1
0,60,72,0
0,63,68,0
0,49,80,0
0,36,127,0
0,36,116,30
0,42,79,125
0,36,116,33
0,40,108,90
0,42,113,4
0,36,113,0
0,44,127,5
0,36,124,15
0,42,69,21
0,36,116,136
0,42,113,45
0,36,113,0
0,36,108,7
0,54,104,10
0,66,88,2
0,67,36,14
0,55,37,3
0,42,71,105
0,58,88,98
0,40,104,1
0,42,106,1
0,44,127,0
0,36,106,0
0,70,88,2
0,42,72,0
0,42,127,168
0,36,127,0
0,31,120,6
0,58,116,7
0,55,76,1
0,62,100,0
0,65,60,5
0,42,79,221
0,31,124,90
0,40,108,29
0,42,113,7
0,36,113,0
0,44,127,5
0,31,120,4
0,42,69,42
0,31,120,34
0,31,96,55
0,42,113,7
0,36,113,0
0,54,108,2
0,66,84,7
0,67,68,1
0,55,68,2
0,42,71,0
0,40,104,183
0,42,106,1
0,44,127,0
0,36,106,0
0,58,104,1
0,70,104,3
0,42,72,0
0,42,127,74
0,36,127,0
0,29,124,2
0,63,96,4
0,51,96,2
0,56,96,8
0,63,84,0
0,53,92,2
0,60,76,5
0,42,79,213
0,29,124,88
0,40,108,26
0,42,113,7
0,36,113,0
0,44,127,5
0,29,124,33
0,42,69,77
0,29,120,137
0,42,113,45
0,36,113,0
0,29,100,2
0,42,71,73
0,40,104,5
0,42,106,1
0,44,127,0
0,36,106,0
0,42,72,0
0,42,127,60
0,36,127,0
0,34,127,5
0,56,116,8
0,60,76,1
0,62,88,0
0,55,80,2
0,42,79,118
0,34,124,0
0,40,108,29
0,42,113,7
0,36,113,0
0,44,127,5
0,34,124,34
0,42,69,8
0,34,116,14
0,42,113,44
0,36,113,0
0,58,112,1
0,34,112,15
0,42,71,0
0,59,84,7
0,35,108,4
0,40,104,5
0,42,106,1
0,44,127,0
0,36,106,0
0,42,72,0
0,66,88,69
0,49,80,6
0,36,127,0
0,63,92,4
0,60,104,1
0,70,88,1
0,67,72,1
0,36,120,8
0,42,79,6
0,36,116,16
0,40,108,3
0,42,113,7
0,36,113,0
0,44,127,5
0,36,116,18
0,42,69,23
0,36,124,130
0,42,113,50
0,36,113,0
0,36,96,5
0,66,116,2
0,54,108,0
0,55,52,3
0,67,49,2
0,42,71,0
0,70,112,154
0,40,104,0
0,42,106,1
0,44,127,0
0,36,106,0
0,58,96,2
0,42,72,0
0,42,127,0
0,36,127,0
0,58,116,7
0,55,68,0
0,62,88,1
0,53,88,0
0,65,76,4
0,31,116,9
0,42,79,182
0,31,108,22
0,40,108,0
0,42,113,7
0,36,113,0
0,44,127,5
0,31,112,8
0,42,69,3
0,31,112,141
0,42,113,39
0,36,113,0
0,54,120,5
0,66,96,7
0,31,92,3
0,67,56,33
0,55,96,8
0,42,71,76
0,58,104,218
0,70,104,7
0,40,104,5
0,42,106,1
0,44,127,0
0,36,106,0
0,42,72,4
0,42,127,72
0,36,127,0
0,53,104,11
0,56,104,0
0,63,88,3
0,60,68,0
0,51,104,3
0,29,120,4
0,63,96,0
0,42,79,213
0,29,120,22
0,40,108,2
0,42,113,7
0,36,113,0
0,44,127,5
0,29,124,1
0,42,69,10
0,29,116,110
0,29,112,51
0,42,113,4
0,36,113,0
0,42,71,96
0,40,104,240
0,42,106,1
0,44,127,0
0,36,106,0
0,42,72,0
0,42,127,54
0,36,127,0
0,56,92,1
0,53,76,3
0,34,116,0
0,60,60,3
0,63,80,2
0,42,79,225
0,34,112,11
0,40,108,23
0,42,113,7
0,36,113,0
0,44,127,5
0,34,124,34
0,42,69,1
0,34,108,143
0,60,60,35
0,42,113,0
0,36,113,0
0,56,96,0
0,53,72,0
0,63,84,5
0,34,96,7
0,42,71,0
0,40,104,40
0,42,106,1
0,44,127,0
0,36,106,0
0,59,92,5
0,42,72,0
0,67,88,0
0,60,72,0
0,63,68,0
0,49,75,0
0,36,127,0
0,36,116,19
0,42,79,6
0,36,116,33
0,40,108,90
0,42,113,4
0,36,113,0
0,44,127,5
0,36,124,15
0,42,69,21
0,36,116,136
0,42,113,45
0,36,113,0
0,36,108,7
0,60,116,4
0,60,104,27
0,42,71,78
0,60,100,116
0,40,104,28
0,42,106,1
0,44,127,0
0,36,106,0
0,63,116,5
0,67,100,98
0,42,72,20
0,65,108,70
0,42,127,9
0,36,127,0
0,31,120,6
0,58,116,7
0,55,76,1
0,62,100,0
0,65,60,5
0,63,127,107
0,60,92,14
0,42,79,5
0,31,124,90
0,40,108,29
0,42,113,7
0,36,113,0
0,44,127,5
0,31,120,4
0,42,69,13
0,31,120,118
0,31,96,55
0,42,113,7
0,36,113,0
0,42,71,3
0,63,120,81
0,40,104,5
0,42,106,1
0,44,127,0
0,36,106,0
0,65,104,30
0,67,96,44
0,42,72,12
0,65,100,5
0,42,127,74
0,36,127,0
0,29,124,2
0,56,96,14
0,63,84,0
0,53,92,2
0,60,76,5
0,42,79,213
0,29,124,88
0,40,108,8
0,42,113,6
0,36,113,0
0,44,127,1
0,29,124,10
0,42,69,56
0,29,120,137
0,42,113,45
0,36,113,0
0,29,100,2
0,42,71,73
0,40,104,10
0,42,106,1
0,44,127,0
0,36,106,0
0,63,104,13
0,65,68,46
0,63,88,4
0,60,84,13
0,42,72,27
0,42,127,60
0,36,127,0
0,66,124,2
0,34,127,5
0,56,116,8
0,60,76,1
0,62,88,0
0,55,80,2
0,67,100,16
0,65,35,186
0,42,79,3
0,64,44,32
0,62,50,13
0,34,124,0
0,40,108,29
0,42,113,7
0,36,113,0
0,44,127,5
0,34,124,34
0,42,69,8
0,34,116,14
0,42,113,44
0,36,113,0
0,58,112,1
0,34,112,15
0,42,71,0
0,59,84,7
0,35,108,4
0,40,104,5
0,42,106,1
0,44,127,0
0,36,106,0
0,42,72,0
0,66,88,69
0,49,75,6
0,36,127,0
0,63,92,4
0,60,104,1
0,70,88,1
0,67,72,1
0,36,120,8
0,42,79,6
0,36,116,16
0,40,108,3
0,42,113,7
0,36,113,0
0,44,127,5
0,36,116,18
0,42,69,23
0,36,124,130
0,42,113,50
0,36,113,0
0,36,96,5
0,60,116,24
0,42,71,11
0,63,120,28
0,40,104,48
0,42,106,1
0,44,127,0
0,36,106,0
0,67,104,9
0,42,72,66
0,70,124,20
0,42,127,108
0,36,127,0
0,58,116,7
0,55,68,0
0,62,88,1
0,53,88,0
0,65,76,4
0,31,116,26
0,42,79,204
0,31,108,22
0,40,108,0
0,42,113,7
0,36,113,0
0,44,127,3
0,31,112,40
0,42,69,69
0,31,112,141
0,42,113,39
0,36,113,0
0,31,92,15
0,42,71,76
0,40,104,29
0,42,106,1
0,44,127,0
0,36,106,0
0,70,124,26
0,71,116,24
0,72,112,7
0,42,72,0
0,42,127,72
0,36,127,0
0,53,104,8
0,56,104,0
0,63,88,3
0,60,68,0
0,29,120,7
0,67,120,17
0,42,79,196
0,29,120,22
0,40,108,2
0,42,113,7
0,36,113,0
0,44,127,5
0,29,124,5
0,42,69,4
0,29,116,95
0,29,112,51
0,42,113,4
0,36,113,0
0,42,71,96
0,69,80,4
0,67,56,10
0,40,104,28
0,42,106,1
0,44,127,0
0,36,106,0
0,65,92,2
0,63,112,32
0,42,72,66
0,65,108,54
0,42,127,54
0,36,127,0
0,66,112,0
0,56,92,1
0,53,76,3
0,34,116,0
0,60,60,3
0,63,80,2
0,67,112,54
0,42,79,169
0,34,112,11
0,40,108,23
0,42,113,7
0,36,113,0
0,44,127,5
0,34,124,3
0,42,69,1
0,34,108,143
0,60,60,35
0,42,113,0
0,36,113,0
0,56,96,0
0,53,72,0
0,63,84,5
0,34,96,7
0,42,71,23
0,40,104,40
0,42,106,1
0,44,127,0
0,36,106,0
0,59,92,5
0,42,72,0
0,52,68,136
0,57,92,0
0,62,100,3
0,48,96,0
0,62,80,1
0,64,58,1
0,49,70,1
0,36,127,0
0,59,60,1
0,67,96,0
0,57,64,1
0,36,127,0
0,42,79,2
0,36,116,98
0,40,108,44
0,42,113,7
0,36,113,0
0,44,127,5
0,36,112,86
0,42,69,75
0,36,116,91
0,36,116,63
0,63,124,22
0,42,113,7
0,36,113,0
0,64,124,18
0,42,71,0
0,67,104,48
0,35,60,28
0,40,104,66
0,42,106,1
0,44,127,0
0,36,106,0
0,42,72,29
0,72,96,3
0,74,68,21
0,60,76,19
0,64,76,4
0,55,54,1
0,57,72,1
0,42,127,11
0,36,127,0
0,33,108,1
0,45,80,6
0,57,108,4
0,60,100,0
0,64,60,1
0,55,104,4
0,74,112,41
0,42,79,175
0,72,124,44
0,33,124,13
0,40,108,18
0,42,113,7
0,36,113,0
0,44,127,5
0,74,80,20
0,72,68,53
0,33,124,13
0,69,88,15
0,67,76,3
0,42,69,29
0,33,120,141
0,67,64,40
0,42,113,0
0,36,113,0
0,69,116,3
0,33,116,19
0,42,71,0
0,75,127,228
0,40,104,11
0,42,106,1
0,44,127,0
0,36,106,0
0,76,124,11
0,42,72,0
0,29,124,12
0,42,127,3
0,36,127,0
0,41,100,1
0,74,120,0
0,62,88,10
0,65,92,2
0,67,92,1
0,57,92,0
0,62,64,0
0,69,76,2
0,60,49,0
0,76,72,65
0,74,64,54
0,72,92,36
0,42,79,20
0,29,120,21
0,69,104,68
0,40,108,36
0,42,113,7
0,36,113,0
0,44,127,5
0,29,127,6
0,42,69,39
0,29,120,9
0,29,108,38
0,42,113,9
0,36,113,0
0,72,80,0
0,42,71,0
0,40,104,90
0,42,106,1
0,44,127,0
0,36,106,0
0,69,116,22
0,67,104,10
0,42,72,7
0,69,120,10
0,42,127,100
0,36,127,0
0,60,84,2
0,57,76,1
0,53,76,1
0,31,108,3
0,64,47,1
0,57,108,1
0,43,76,2
0,60,100,1
0,53,92,1
0,64,45,8
0,42,79,1
0,31,112,97
0,40,108,36
0,42,113,7
0,36,113,0
0,44,127,5
0,31,112,93
0,42,69,65
0,31,112,127
0,62,76,41
0,31,104,2
0,60,80,5
0,53,100,0
0,57,92,2
0,42,113,4
0,36,113,0
0,62,76,4
0,42,71,0
0,40,104,240
0,42,106,1
0,44,127,0
0,36,106,0
0,42,72,0
0,57,76,5
0,52,84,1
0,62,84,6
0,49,75,4
0,36,127,0
0,36,112,4
0,59,108,0
0,64,116,1
0,62,100,2
0,57,88,4
0,67,80,2
0,48,68,0
0,42,79,6
0,36,120,32
0,40,108,8
0,42,113,7
0,36,113,0
0,44,127,5
0,36,120,16
0,42,69,30
0,36,120,125
0,42,113,62
0,36,113,0
0,36,100,0
0,64,120,17
0,42,71,52
0,67,120,113
0,40,104,127
0,42,106,1
0,44,127,0
0,36,106,0
0,42,72,0
0,71,124,11
0,42,127,28
0,36,127,0
0,64,88,6
0,57,64,1
0,60,76,1
0,55,72,0
0,33,112,7
0,45,92,14
0,67,100,1
0,60,100,1
0,57,92,3
0,55,92,1
0,64,50,2
0,74,112,79
0,42,79,126
0,33,120,29
0,72,124,7
0,40,108,87
0,42,113,4
0,36,113,0
0,44,127,5
0,76,80,92
0,74,68,6
0,33,120,15
0,72,80,5
0,69,108,39
0,42,69,22
0,33,116,135
0,42,113,2
0,36,113,0
0,33,112,1
0,42,71,0
0,75,127,53
0,40,104,6
0,42,106,1
0,44,127,0
0,36,106,0
0,76,96,15
0,42,72,2
0,42,127,1
0,36,127,0
0,29,116,8
0,74,116,0
0,41,92,1
0,60,92,1
0,53,88,0
0,57,76,1
0,64,56,4
0,62,100,2
0,60,96,2
0,57,88,1
0,67,92,0
0,76,76,2
0,74,60,57
0,72,108,34
0,42,79,25
0,69,108,44
0,29,104,4
0,40,108,21
0,42,113,7
0,36,113,0
0,44,127,5
0,29,116,3
0,42,69,33
0,29,116,11
0,29,120,56
0,42,113,6
0,36,113,0
0,42,71,0
0,40,104,87
0,42,106,1
0,44,127,0
0,36,106,0
0,69,112,40
0,71,88,2
0,69,80,27
0,67,112,2
0,42,72,2
0,69,108,15
0,57,92,103
0,53,100,2
0,31,116,0
0,60,88,1
0,43,64,0
0,59,84,5
0,42,127,0
0,36,127,0
0,64,84,2
0,53,85,2
0,64,84,0
0,42,79,234
0,31,112,1
0,40,108,0
0,42,113,5
0,36,113,0
0,44,127,2
0,31,120,20
0,42,69,20
0,31,116,138
0,59,108,35
0,42,113,14
0,36,113,0
0,31,92,5
0,42,71,0
0,40,104,32
0,42,106,1
0,44,127,0
0,36,106,0
0,42,72,5
0,67,116,149
0,91,64,0
0,49,70,0
0,36,127,0
0,36,127,2
0,67,88,4
0,63,92,0
0,36,108,1
0,60,88,1
0,42,79,6
0,36,116,7
0,67,108,1
0,40,108,34
0,42,113,7
0,36,113,0
0,44,127,5
0,36,116,93
0,42,69,72
0,36,108,95
0,36,116,53
0,67,80,26
0,60,84,5
0,63,84,0
0,42,113,3
0,36,113,0
0,42,71,0
0,60,100,37
0,67,104,2
0,63,100,1
0,96,64,2
0,40,104,10
0,42,106,1
0,44,127,0
0,36,106,0
0,42,72,0
0,66,124,42
0,63,80,4
0,59,72,1
0,67,64,1
0,42,127,3
0,36,127,0
0,35,124,3
0,98,64,1
0,67,96,1
0,59,100,1
0,63,84,2
0,35,112,2
0,67,116,6
0,42,79,208
0,35,120,11
0,65,108,13
0,40,108,7
0,42,113,7
0,36,113,0
0,44,127,5
0,35,120,14
0,42,69,29
0,35,120,133
0,63,127,24
0,35,120,52
0,42,113,0
0,36,113,0
0,63,116,22
0,42,71,18
0,63,120,124
0,63,100,36
0,40,104,15
0,42,106,1
0,44,127,0
0,36,106,0
0,65,96,21
0,63,88,81
0,42,72,36
0,66,116,30
0,42,127,7
0,36,127,0
0,58,88,7
0,63,72,1
0,67,68,0
0,58,68,0
0,63,72,0
0,91,64,1
0,34,120,3
0,67,88,0
0,67,41,4
0,34,127,1
0,42,79,207
0,66,112,60
0,67,100,8
0,34,116,11
0,65,46,14
0,40,108,9
0,42,113,7
0,36,113,0
0,44,127,5
0,64,34,3
0,62,68,7
0,60,58,13
0,59,54,2
0,34,120,9
0,42,69,44
0,34,112,41
0,58,124,42
0,63,116,1
0,67,60,4
0,34,124,19
0,42,113,10
0,36,113,0
0,42,71,25
0,72,112,8
0,67,80,7
0,58,104,1
0,63,96,1
0,98,64,36
0,40,104,18
0,42,106,1
0,44,127,0
0,36,106,0
0,42,72,0
0,57,100,64
0,63,92,0
0,67,104,2
0,67,60,1
0,33,104,1
0,66,56,0
0,57,96,0
0,63,104,1
0,42,127,18
0,36,127,0
0,33,127,4
0,96,64,7
0,42,79,191
0,33,124,67
0,70,124,29
0,40,108,10
0,42,113,7
0,36,113,0
0,44,127,5
0,73,108,2
0,72,68,7
0,74,46,3
0,70,50,34
0,33,120,0
0,67,116,5
0,66,96,10
0,42,69,2
0,65,88,13
0,33,124,48
0,63,92,6
0,33,124,50
0,42,113,6
0,36,113,0
0,60,96,12
0,42,71,0
0,63,120,39
0,40,104,5
0,42,106,1
0,44,127,0
0,36,106,0
0,60,84,28
0,42,72,8
0,42,127,6
0,36,127,0
0,91,64,4
0,36,116,3
0,63,112,1
0,67,96,0
0,60,96,1
0,67,100,4
0,36,96,1
0,42,79,74
0,67,112,16
0,36,116,10
0,40,108,17
0,42,113,7
0,36,113,0
0,44,127,5
0,36,108,6
0,42,69,39
0,36,124,116
0,36,112,61
0,63,120,2
0,67,88,0
0,60,88,2
0,42,113,8
0,36,113,0
0,42,71,0
0,60,100,38
0,67,68,1
0,63,108,1
0,40,104,32
0,42,106,1
0,44,127,0
0,36,106,0
0,42,72,0
0,63,92,6
0,67,68,1
0,59,76,1
0,67,116,23
0,42,127,3
0,36,127,0
0,63,112,4
0,59,108,1
0,96,64,0
0,67,96,1
0,35,124,1
0,35,100,3
0,42,79,166
0,35,120,16
0,65,108,13
0,40,108,12
0,42,113,7
0,36,113,0
0,44,127,5
0,35,124,11
0,42,69,29
0,35,116,121
0,63,108,24
0,98,64,4
0,35,120,3
0,42,113,7
0,36,113,0
0,63,120,19
