track,note,velocity,time
0,40,105,10
0,64,106,2
0,71,118,0
0,47,113,0
0,52,113,0
0,52,105,0
0,59,105,2
0,71,79,0
0,71,0,5
0,40,97,6
0,40,89,0
0,52,79,0
0,64,91,0
0,68,79,0
0,71,91,0
0,76,87,0
0,64,0,6
0,64,79,0
0,68,0,4
0,71,0,6
0,76,0,2
0,68,89,0
0,71,93,0
0,76,97,8
0,71,0,12
0,40,0,36
0,52,0,2
0,40,0,0
0,68,0,0
0,64,0,0
0,76,0,0
0,33,105,2
0,33,101,2
0,54,88,0
0,59,90,0
0,63,99,0
0,33,87,0
0,45,77,0
0,66,73,0
0,71,83,0
0,75,91,0
0,59,0,350
0,63,0,6
0,54,0,12
0,33,0,0
0,75,0,10
0,71,0,2
0,33,97,2
0,52,65,2
0,57,101,0
0,61,93,0
0,73,75,0
0,33,0,296
0,66,0,6
0,45,0,4
0,73,0,12
0,57,0,34
0,33,0,2
0,61,0,2
0,33,0,22
0,44,83,4
0,32,80,2
0,56,71,0
0,59,64,0
0,44,89,0
0,64,83,0
0,68,75,0
0,71,83,0
0,71,0,24
0,68,0,4
0,64,0,14
0,44,0,16
0,44,0,8
0,42,99,12
0,42,55,0
0,61,52,0
0,64,75,0
0,69,65,0
0,64,0,38
0,61,0,4
0,42,0,0
0,69,0,2
0,40,87,14
0,40,77,2
0,59,85,0
0,64,91,0
0,68,83,0
0,42,0,2
0,59,0,34
0,56,0,4
0,52,0,4
0,64,0,1
0,40,0,5
0,40,0,2
0,68,0,0
0,32,0,0
0,59,0,0
0,35,101,2
0,35,67,0
0,57,31,0
0,61,33,0
0,64,43,0
0,35,81,0
0,47,77,0
0,57,91,0
0,61,75,0
0,64,81,0
0,61,0,8
0,57,0,12
0,64,0,6
0,57,27,0
0,61,41,0
0,64,34,0
0,61,0,6
0,57,0,2
0,64,0,6
0,57,34,0
0,61,46,0
0,64,41,0
0,61,0,16
0,64,0,14
0,57,0,6
0,35,0,4
0,57,16,0
0,61,16,0
0,64,16,0
0,35,0,22
0,64,0,12
0,61,0,0
0,57,0,0
0,47,0,6
0,33,77,0
0,45,70,0
0,57,83,0
0,61,89,0
0,64,87,0
0,69,89,0
0,64,0,12
0,61,0,6
0,57,0,4
0,35,0,4
0,40,0,8
0,64,0,2
0,52,0,0
0,71,0,0
0,59,0,2
0,61,0,2
0,57,0,4
0,64,0,2
0,69,0,0
0,69,90,10
0,57,58,8
0,61,73,0
0,64,65,0
0,69,65,0
0,69,0,2
0,69,90,26
0,47,0,8
0,52,0,10
0,69,0,8
0,69,87,6
0,61,0,2
0,64,0,2
0,57,0,0
0,69,0,2
0,33,0,6
0,45,0,6
0,32,87,18
0,59,79,0
0,64,85,0
0,68,71,0
0,69,0,11
0,68,86,3
0,68,0,8
0,66,87,16
0,59,0,30
0,66,0,2
0,64,88,6
0,56,64,16
0,64,0,36
0,68,0,2
0,56,0,4
0,64,0,8
0,32,0,16
0,33,77,28
0,52,70,0
0,57,77,0
0,61,65,0
0,69,88,370
0,69,0,46
0,69,83,26
0,57,0,108
0,61,0,10
0,69,0,10
0,33,0,12
0,28,65,4
0,56,55,0
0,59,49,0
0,52,0,504
0,52,65,52
0,56,0,144
0,52,0,12
0,59,0,6
0,28,0,10
0,30,95,20
0,52,87,0
0,57,87,0
0,61,75,0
0,69,82,2
0,61,0,16
0,69,0,24
0,57,0,2
0,30,0,10
0,69,87,12
0,32,99,4
0,59,95,0
0,69,0,87
0,68,85,3
0,59,0,2
0,32,0,0
0,33,105,4
0,57,77,0
0,61,91,0
0,68,0,98
0,69,86,12
0,69,0,152
0,68,81,16
0,68,0,86
0,66,80,18
0,57,0,34
0,61,0,34
0,57,70,30
0,66,0,84
0,64,72,4
0,64,0,90
0,66,72,24
0,52,0,176
0,57,0,2
0,33,0,0
0,35,73,4
0,54,69,0
0,64,87,0
0,66,0,182
0,64,0,198
0,59,69,4
0,54,0,132
0,54,53,60
0,63,59,192
0,54,0,606
0,54,62,66
0,63,0,8
0,59,0,34
0,35,0,2
0,54,0,48
0,33,89,4
0,57,70,0
0,61,71,0
0,64,81,0
0,69,83,0
0,69,89,8
0,69,0,38
0,69,87,24
0,69,0,148
0,69,91,4
0,61,0,4
0,57,0,0
0,64,0,12
0,69,0,6
0,33,0,28
0,32,71,16
0,59,62,0
0,64,60,0
0,68,50,0
0,69,0,90
0,68,81,8
0,68,0,162
0,66,80,10
0,66,0,195
0,64,82,3
0,68,0,220
0,64,0,20
0,64,0,4
0,59,0,30
0,32,0,22
0,30,56,4
0,57,71,0
0,61,67,0
0,64,63,0
0,69,83,366
0,64,0,54
0,57,0,22
0,61,0,10
0,30,0,18
0,28,67,2
0,52,54,0
0,56,64,0
0,59,67,0
0,69,0,28
0,52,0,348
0,56,0,6
0,59,0,4
0,40,97,32
0,56,101,96
0,59,103,0
0,64,107,0
0,28,0,120
0,56,0,2
0,59,0,8
0,64,0,2
0,40,0,26
0,30,95,34
0,52,81,0
0,57,85,0
0,61,75,0
0,69,86,6
0,61,0,10
0,57,0,22
0,30,0,6
0,69,0,2
0,32,85,10
0,59,83,0
0,64,91,0
0,69,84,16
0,64,0,76
0,59,0,0
0,32,0,0
0,33,93,4
0,57,93,0
0,61,95,0
0,69,0,14
0,68,84,4
0,68,0,86
0,69,80,24
0,57,0,6
0,69,0,8
0,68,77,12
0,57,81,12
0,68,0,108
0,66,80,16
0,66,0,140
0,64,75,4
0,64,0,104
0,57,0,2
0,33,0,4
0,52,0,2
0,61,0,2
0,35,69,2
0,54,54,0
0,59,63,0
0,64,73,0
0,66,68,2
0,66,0,64
0,59,0,307
0,35,0,0
0,54,0,0
0,64,0,0
0,35,23,13
0,54,42,0
0,59,46,0
0,63,53,0
0,63,0,755
0,35,0,0
0,54,0,0
0,59,0,0
0,49,43,13
0,56,42,0
0,61,59,0
0,64,34,0
0,49,75,0
0,56,89,0
0,61,87,0
0,64,97,0
0,76,96,4
0,76,0,14
0,76,96,16
0,76,0,72
0,76,96,10
0,76,0,60
0,76,97,30
0,56,0,86
0,61,0,2
0,76,0,4
0,64,0,4
0,56,60,18
0,61,85,0
0,64,77,0
0,76,97,4
0,76,0,152
0,78,96,10
0,78,0,98
0,80,97,26
0,64,0,32
0,61,0,2
0,56,0,2
0,49,0,54
0,64,0,0
0,61,0,0
0,49,0,2
0,47,69,2
0,59,31,0
0,63,55,0
0,47,69,0
0,56,64,0
0,59,65,0
0,63,67,0
0,80,0,64
0,78,97,10
0,78,0,134
0,76,97,10
0,76,0,126
0,75,97,6
0,75,0,174
0,75,90,28
0,59,0,160
0,75,0,2
0,63,0,4
0,56,0,6
0,47,0,2
0,59,0,38
0,63,0,0
0,47,0,0
0,56,0,3
0,45,65,1
0,56,35,0
0,61,51,0
0,64,47,0
0,45,65,0
0,52,75,0
0,56,63,0
0,61,77,0
0,73,92,2
0,73,0,50
0,73,92,30
0,73,0,40
0,45,0,12
0,56,0,2
0,61,0,2
0,73,91,8
0,52,0,2
0,73,0,36
0,45,65,2
0,52,46,0
0,56,63,0
0,61,63,0
0,73,94,32
0,73,0,162
0,75,94,24
0,61,0,130
0,56,0,22
0,52,0,4
0,45,0,0
0,61,0,6
0,45,0,0
0,56,0,2
0,44,67,2
0,59,50,0
0,44,62,0
0,64,72,0
0,75,0,4
0,76,92,2
0,76,0,118
0,71,87,6
0,71,0,109
0,69,82,3
0,69,0,183
0,68,78,3
0,64,0,192
0,44,0,6
0,68,0,46
0,64,0,4
0,44,0,8
0,59,0,0
0,42,54,4
0,57,51,0
0,64,70,0
0,69,83,0
0,30,75,0
0,57,70,0
0,61,73,0
0,69,0,8
0,61,0,238
0,30,0,4
0,57,0,8
0,30,97,58
0,57,85,0
0,61,81,0
0,42,0,66
0,57,0,26
0,30,0,0
0,61,0,0
0,44,78,4
0,32,99,0
0,59,95,0
0,59,0,92
0,32,0,2
0,45,90,2
0,33,99,0
0,57,75,0
0,61,81,0
0,64,85,0
0,44,0,4
0,69,70,110
0,69,0,54
0,69,88,32
0,69,0,64
0,69,91,26
0,64,0,48
0,61,0,0
0,57,0,8
0,69,0,16
0,57,53,22
0,61,65,0
0,64,52,0
0,69,89,8
0,69,0,156
0,68,76,14
0,64,0,122
0,57,0,2
0,61,0,2
0,33,0,18
0,68,0,38
0,57,0,4
0,45,0,2
0,66,76,10
0,47,49,8
0,54,53,0
0,59,65,0
0,47,63,0
0,54,63,0
0,59,51,0
0,64,81,0
0,66,0,158
0,66,79,38
0,64,0,126
0,54,0,6
0,59,0,4
0,66,0,10
0,54,40,42
0,59,59,0
0,64,64,0
0,64,0,306
0,54,0,18
0,59,0,18
0,54,0,8
0,59,0,2
0,47,0,6
0,64,0,4
0,59,51,0
0,54,47,0
0,59,71,0
0,63,62,0
0,66,27,384
0,59,0,288
0,63,0,16
0,54,0,4
0,47,0,4
0,66,0,2
0,59,0,0
0,40,63,4
0,56,46,0
0,59,52,0
0,64,35,0
0,64,81,0
0,76,93,0
0,52,95,0
0,28,85,0
0,59,71,0
0,64,87,0
0,68,75,0
0,76,84,4
0,40,21,12
0,68,0,2
0,59,0,6
0,64,0,8
0,59,77,2
0,64,89,0
0,68,81,0
0,40,0,10
0,76,0,12
0,75,85,4
0,40,65,0
0,75,0,4
0,75,84,10
0,76,0,28
0,64,0,0
0,64,0,2
0,68,0,6
0,40,0,2
0,59,0,6
0,28,0,2
0,64,0,12
0,56,0,0
0,52,0,10
0,54,57,4
0,63,49,0
0,63,93,0
0,75,87,0
0,51,77,0
0,28,81,0
0,40,70,0
0,59,64,0
0,63,79,0
0,66,75,0
0,75,0,40
0,76,72,374
0,76,0,46
0,59,0,34
0,28,0,4
0,59,0,2
0,63,0,0
0,66,0,0
0,40,0,2
0,54,0,4
0,40,0,0
0,63,0,0
0,51,0,0
0,45,64,4
0,57,63,0
0,61,46,0
0,64,60,0
0,76,86,0
0,49,64,0
0,45,97,0
0,57,73,0
0,59,77,0
0,61,77,0
0,64,87,0
0,75,0,8
0,63,0,0
0,71,85,4
0,59,95,4
0,76,0,38
0,75,85,4
0,75,0,70
0,75,89,28
0,75,0,80
0,73,86,12
0,57,0,50
0,61,0,6
0,64,0,2
0,59,0,0
0,73,0,18
0,57,64,14
0,59,64,0
0,61,67,0
0,64,69,0
0,73,89,16
0,45,0,92
0,57,0,76
0,73,0,1
0,59,0,1
0,71,74,2
0,61,0,4
0,45,81,0
0,64,0,8
0,71,0,72
0,71,83,28
0,64,0,40
0,61,0,4
0,57,0,6
0,71,0,4
0,59,0,6
0,45,0,10
0,49,0,6
0,45,0,2
0,40,73,2
0,56,55,0
0,59,78,0
0,64,70,0
0,59,85,0
0,71,97,0
0,47,77,0
0,40,79,0
0,59,62,0
0,64,71,0
0,68,77,0
0,71,0,94
0,71,76,26
0,52,89,66
0,71,0,28
0,59,0,94
0,68,0,12
0,64,0,12
0,52,0,4
0,40,0,16
0,40,0,12
0,59,0,2
0,64,0,0
0,56,0,0
0,40,88,12
0,56,78,0
0,59,86,0
0,64,88,0
0,40,62,0
0,52,85,0
0,59,87,0
0,64,89,0
0,68,89,0
0,64,0,150
0,59,0,30
0,40,0,8
0,40,0,0
0,64,0,0
0,56,0,0
0,39,90,4
0,59,90,0
0,63,86,0
0,66,90,0
0,39,77,0
0,63,85,0
0,66,83,0
0,59,0,6
0,68,0,8
0,52,0,10
0,66,0,130
0,63,0,6
0,63,0,2
0,59,0,4
0,66,0,6
0,39,0,8
0,39,0,8
0,37,53,4
0,59,62,0
0,64,67,0
0,68,67,0
0,37,87,0
0,59,89,0
0,64,97,0
0,68,81,0
0,76,86,6
0,68,0,270
0,59,0,6
0,64,0,6
0,59,69,34
0,64,77,0
0,68,77,0
0,76,0,6
0,75,83,4
0,75,0,34
0,68,81,4
0,64,0,8
0,68,0,2
0,59,0,12
0,68,0,18
0,64,0,0
0,59,0,0
0,37,0,18
0,37,0,20
0,44,76,8
0,59,54,0
0,63,64,0
0,66,35,0
0,32,67,0
0,59,53,0
0,63,70,0
0,66,67,0
0,63,0,12
0,59,0,8
0,66,0,4
0,68,0,6
0,59,47,30
0,63,67,0
0,66,62,0
0,32,0,20
0,76,79,0
0,63,0,2
0,59,0,0
0,66,0,2
0,76,0,24
0,63,0,10
0,66,0,4
0,59,0,2
0,44,0,8
0,45,71,2
0,57,62,0
0,61,51,0
0,64,71,0
0,45,91,0
0,59,85,0
0,64,89,0
0,76,87,8
0,76,0,50
0,75,85,4
0,75,0,66
0,75,90,30
0,75,0,76
0,73,87,16
0,64,0,58
0,59,0,0
0,73,0,14
0,57,55,26
0,61,39,0
0,64,58,0
0,73,87,4
0,73,0,178
0,71,78,10
0,71,0,80
0,57,0,0
0,61,0,12
0,71,81,16
0,64,0,24
0,61,0,34
0,45,0,6
0,64,0,0
0,57,0,0
0,45,0,10
0,47,64,10
0,54,57,0
0,59,59,0
0,64,71,0
0,47,67,0
0,54,64,0
0,59,75,0
0,64,77,0
0,71,0,88
0,71,82,24
0,71,0,116
0,47,0,108
0,64,0,2
0,59,0,0
0,54,0,0
0,47,0,6
0,54,0,2
0,64,0,14
0,59,0,4
0,47,71,20
0,54,78,0
0,59,93,0
0,64,101,0
0,47,87,0
0,54,95,0
0,59,99,0
0,64,99,0
0,54,0,158
0,64,0,4
0,64,0,22
0,66,99,8
0,54,79,0
0,63,99,0
0,47,0,118
0,54,0,24
0,63,0,2
0,59,0,2
0,47,0,8
0,47,0,8
0,54,0,2
0,59,0,0
0,59,0,20
0,66,0,4
0,71,0,4
0,40,90,0
0,59,73,0
0,64,80,0
0,68,70,0
0,40,97,0
0,59,91,0
0,64,95,0
0,68,87,0
0,80,85,6
0,59,95,6
0,64,77,2
0,76,70,0
0,68,0,236
0,59,0,6
0,64,0,6
0,59,89,16
0,64,87,0
0,68,89,0
0,80,0,55
0,78,84,3
0,78,0,94
0,78,82,20
0,64,0,24
0,68,0,12
0,40,0,4
0,59,0,8
0,68,0,12
0,40,0,2
0,64,0,4
0,39,88,24
0,63,93,0
0,66,71,0
0,39,85,0
0,59,62,0
0,63,87,0
0,66,75,0
0,76,0,4
0,64,0,0
0,63,67,4
0,75,40,2
0,63,0,10
0,66,0,0
0,59,0,4
0,59,70,30
0,63,77,0
0,66,83,0
0,78,0,42
0,78,86,52
0,78,0,46
0,78,92,46
0,78,0,84
0,39,0,10
0,80,87,2
0,37,107,2
0,59,0,46
0,66,0,24
0,63,0,6
0,59,0,6
0,63,0,2
0,80,0,8
0,37,0,0
0,66,0,2
0,39,0,0
0,36,90,2
0,60,69,0
0,63,73,0
0,69,80,0
0,81,94,0
0,36,99,0
0,60,91,0
0,63,91,0
0,69,93,0
0,59,0,4
0,60,81,6
0,81,0,122
0,80,87,14
0,80,0,76
0,80,89,30
0,69,0,28
0,60,0,14
0,63,0,6
0,69,0,34
0,68,69,14
0,60,73,0
0,63,83,0
0,68,89,0
0,80,0,166
0,78,87,12
0,78,0,80
0,78,90,30
0,60,0,10
0,36,0,2
0,68,0,0
0,63,0,12
0,36,0,12
0,68,0,36
0,60,0,2
0,63,0,0
0,60,0,4
0,61,91,16
0,49,82,2
0,61,67,0
0,64,78,0
0,68,90,0
0,37,81,0
0,61,77,0
0,64,85,0
0,68,87,0
0,64,75,4
0,75,0,4
0,63,0,2
0,76,75,0
0,78,0,162
0,76,88,8
0,76,0,4
0,80,91,6
0,68,0,2
0,61,0,2
0,64,0,4
0,61,95,32
0,64,101,0
0,68,97,0
0,80,0,76
0,80,91,28
0,64,0,46
0,68,0,6
0,61,0,8
0,49,0,14
0,80,0,12
0,47,110,2
0,59,93,0
0,63,99,0
0,66,95,0
0,78,92,16
0,64,0,22
0,68,0,8
0,61,0,0
0,63,0,106
0,66,0,2
0,59,0,4
0,37,0,24
0,47,0,6
0,78,0,1
0,45,86,3
0,57,63,0
0,61,59,0
0,64,78,0
0,76,89,0
0,33,83,0
0,57,81,0
