track,note,velocity,time
0,39,77,157
0,39,64,4
0,51,110,0
0,58,112,3
0,63,110,0
0,67,110,4
0,63,110,2
0,58,110,2
0,67,110,0
0,58,110,0
0,67,110,0
0,63,110,3
0,63,110,189
0,68,110,5
0,58,110,3
0,58,110,35
0,63,110,1
0,51,110,1
0,67,110,1
0,39,64,1
0,67,110,281
0,58,110,1
0,63,110,2
0,67,110,356
0,63,110,1
0,58,116,5
0,68,110,0
0,63,110,0
0,58,110,2
0,39,64,33
0,51,110,1
0,58,116,0
0,67,110,0
0,67,105,2
0,63,110,2
0,67,105,7
0,67,105,58
0,67,105,58
0,63,110,123
0,67,110,1
0,58,116,2
0,65,105,57
0,65,105,27
0,58,116,118
0,63,110,0
0,67,110,4
0,67,105,7
0,63,105,78
0,63,110,121
0,58,116,1
0,67,110,3
0,48,64,30
0,63,110,8
0,55,110,0
0,60,110,0
0,48,110,1
0,63,105,2
0,48,64,10
0,63,105,54
0,63,105,62
0,63,105,64
0,55,110,120
0,63,110,2
0,60,110,2
0,63,105,37
0,63,105,54
0,44,64,80
0,44,64,12
0,44,110,1
0,60,110,1
0,63,110,4
0,58,110,3
0,62,105,38
0,60,105,4
0,60,110,1
0,63,110,0
0,56,116,1
0,58,105,40
0,67,110,126
0,63,110,0
0,51,110,2
0,67,105,2
0,39,64,2
0,58,110,3
0,39,64,5
0,67,105,25
0,67,105,60
0,67,105,55
0,63,110,119
0,67,110,2
0,58,120,5
0,67,105,6
0,65,105,241
0,63,110,103
0,58,110,2
0,67,110,8
0,70,105,20
0,63,105,59
0,58,112,3
0,63,110,4
0,67,110,0
0,48,64,195
0,48,64,6
0,63,110,3
0,48,110,2
0,55,110,0
0,63,105,1
0,60,110,2
0,63,105,18
0,63,105,58
0,63,105,62
0,60,110,4
0,63,110,0
0,55,110,4
0,62,105,38
0,63,105,19
0,58,110,0
0,60,110,1
0,44,64,1
0,44,64,0
0,63,110,1
0,44,110,3
0,62,105,40
0,60,105,1
0,43,64,3
0,63,110,1
0,58,120,3
0,43,110,0
0,43,64,0
0,58,105,1
0,41,64,152
0,41,64,5
0,41,110,0
0,68,105,0
0,65,110,4
0,60,117,1
0,68,110,1
0,68,105,24
0,68,105,66
0,68,105,56
0,60,110,117
0,65,110,6
0,68,110,3
0,67,105,40
0,67,105,23
0,65,110,113
0,68,110,4
0,60,114,4
0,68,105,20
0,65,105,59
0,65,110,4
0,60,110,0
0,68,110,3
0,48,64,9
0,67,110,11
0,48,110,2
0,48,64,1
0,67,105,2
0,60,110,2
0,63,110,2
0,67,105,45
0,67,105,13
0,67,105,63
0,63,110,4
0,60,110,4
0,67,110,3
0,65,105,19
0,65,105,34
0,46,64,21
0,46,64,8
0,60,110,7
0,46,110,0
0,67,110,0
0,63,110,4
0,67,105,61
0,63,105,80
0,63,110,0
0,67,110,3
0,60,110,3
0,44,64,28
0,44,64,7
0,44,110,4
0,63,110,0
0,63,105,0
0,60,110,3
0,63,105,70
0,63,105,2
0,63,105,59
0,63,110,1
0,60,110,4
0,63,105,51
0,63,105,42
0,46,64,0
0,46,64,1
0,62,110,3
0,46,110,1
0,65,110,2
0,62,105,38
0,67,105,0
0,62,110,4
0,65,110,1
0,65,105,10
0,39,64,2
0,63,64,34
0,67,64,1
0,39,64,0
0,67,110,2
0,63,110,0
0,58,116,4
0,67,105,0
0,51,110,5
0,67,105,11
0,67,105,56
0,67,105,69
0,67,110,117
0,63,110,1
0,58,116,2
0,67,105,78
0,65,105,40
0,67,110,116
0,58,116,4
0,63,110,2
0,67,105,4
0,63,105,14
0,67,110,9
0,63,110,0
0,58,116,1
0,48,64,5
0,55,110,26
0,60,64,1
0,63,105,1
0,48,64,0
0,63,110,4
0,60,110,0
0,48,110,2
0,63,105,55
0,63,105,60
0,63,105,51
0,55,110,6
0,60,110,3
0,63,110,3
0,62,105,36
0,63,105,37
0,44,64,0
0,44,64,2
0,58,110,0
0,44,110,3
0,60,110,1
0,63,110,0
0,62,105,38
0,60,105,4
0,56,116,0
0,58,64,1
0,63,110,1
0,60,110,2
0,58,105,39
0,67,64,16
0,67,110,1
0,39,64,2
0,39,64,0
0,67,105,1
0,58,110,2
0,51,110,0
0,63,110,0
0,67,105,26
0,67,105,63
0,67,105,61
0,58,120,117
0,67,110,0
0,63,110,4
0,67,105,85
0,65,105,39
0,67,110,116
0,58,110,5
0,63,110,1
0,70,105,28
0,63,105,80
0,67,110,12
0,58,112,3
0,63,110,3
0,48,64,17
0,48,64,9
0,63,64,0
0,63,110,4
0,60,110,2
0,63,105,0
0,55,110,1
0,48,110,0
0,60,64,15
0,63,105,17
0,63,105,66
0,63,105,58
0,60,110,18
0,63,110,4
0,55,110,3
0,62,105,2
0,63,105,19
0,44,64,2
0,44,64,1
0,44,110,1
0,58,110,3
0,60,110,0
0,63,110,2
0,62,105,1
0,60,105,0
0,43,64,3
0,43,64,1
0,58,120,0
0,58,64,0
0,43,110,3
0,63,110,1
0,58,105,2
0,41,64,2
0,41,64,3
0,68,110,3
0,68,64,0
0,65,64,0
0,68,105,0
0,41,110,2
0,65,110,1
0,60,117,3
0,68,105,25
0,68,105,64
0,68,105,61
0,65,110,118
0,60,110,3
0,68,110,2
0,68,105,59
0,67,105,1
0,60,114,115
0,65,110,3
0,68,110,1
0,68,105,0
0,65,105,82
0,60,110,20
0,65,110,1
0,68,110,7
0,48,64,12
0,67,110,7
0,63,110,1
0,48,64,2
0,60,110,1
0,67,105,0
0,63,64,3
0,48,110,1
0,67,64,1
0,67,105,50
0,67,105,15
0,67,105,60
0,60,110,14
0,63,110,0
0,67,110,3
0,67,105,48
0,65,105,40
0,46,64,32
0,67,110,9
0,46,64,0
0,46,110,1
0,63,110,4
0,60,110,0
0,67,105,87
0,63,105,20
0,60,110,36
0,67,110,3
0,63,110,1
0,44,64,6
0,60,64,18
0,63,64,1
0,60,110,5
0,44,64,1
0,63,105,1
0,63,110,3
0,44,110,1
0,63,105,62
0,63,105,8
0,63,105,63
0,60,110,36
0,63,110,6
0,63,105,83
0,46,64,0
0,65,64,3
0,65,110,3
0,62,110,1
0,62,64,0
0,46,110,1
0,63,105,1
0,46,64,2
0,62,105,40
0,62,105,92
0,62,110,22
0,62,105,2
0,65,110,6
0,67,105,3
0,51,77,11
0,63,64,3
0,68,64,2
0,58,116,2
0,51,110,1
0,27,105,2
0,63,110,1
0,68,110,3
0,51,64,2
0,65,105,55
0,63,105,35
0,63,110,41
0,58,112,2
0,68,110,5
0,67,64,23
0,63,110,11
0,67,110,6
0,58,116,0
0,51,110,1
0,34,105,2
0,58,110,45
0,67,110,1
0,39,105,4
0,63,110,4
0,34,105,2
0,43,64,3
0,43,64,1
0,62,110,3
0,67,74,0
0,59,74,0
0,59,110,1
0,43,110,2
0,31,105,0
0,67,110,1
0,55,105,243
0,62,110,0
0,59,110,2
0,67,110,1
0,57,105,39
0,31,105,1
0,59,105,20
0,65,74,33
0,59,110,4
0,31,105,3
0,62,110,2
0,67,110,1
0,60,105,47
0,62,105,122
0,59,110,35
0,62,110,3
0,67,110,2
0,55,105,56
0,48,64,22
0,63,74,14
0,67,110,0
0,60,74,1
0,62,105,0
0,48,110,2
0,48,64,0
0,36,105,1
0,60,110,3
0,63,112,1
0,63,105,32
0,63,110,30
0,67,110,1
0,60,110,0
0,36,105,85
0,46,64,8
0,46,64,0
0,58,74,4
0,58,110,6
0,63,110,1
0,34,105,2
0,46,110,1
0,67,110,1
0,58,110,46
0,63,110,3
0,67,110,3
0,44,64,20
0,44,64,2
0,60,74,1
0,60,110,7
0,63,110,3
0,44,110,1
0,32,105,0
0,63,110,53
0,58,105,1
0,60,110,3
0,60,105,59
0,62,105,40
0,46,64,0
0,46,64,1
0,62,74,15
0,65,74,0
0,34,105,4
0,46,120,0
0,62,110,1
0,65,110,0
0,63,105,20
0,65,105,41
0,65,110,55
0,62,110,2
0,58,105,20
0,34,105,63
0,51,64,207
0,51,64,5
0,65,105,1
0,63,74,0
0,51,110,1
0,67,74,2
0,27,105,1
0,63,110,0
0,67,110,0
0,70,110,3
0,67,105,55
0,63,110,121
0,67,110,5
0,70,110,3
0,27,105,10
0,39,105,10
0,67,110,118
0,70,110,1
0,63,110,2
0,27,105,5
0,31,105,10
0,34,105,10
0,55,64,2
0,55,64,7
0,63,110,7
0,70,110,2
0,31,105,0
0,67,110,4
0,43,64,17
0,43,64,12
0,60,74,4
0,43,110,3
0,67,110,0
0,62,110,1
0,60,110,2
0,31,105,1
0,60,110,60
0,55,105,4
0,62,110,2
0,67,110,1
0,57,105,9
0,31,105,1
0,59,105,39
0,62,110,11
0,67,110,0
0,59,74,1
0,43,76,2
0,59,110,2
0,60,105,18
0,62,105,18
0,59,110,11
0,67,110,2
0,53,74,1
0,53,110,1
0,41,78,0
0,62,110,4
0,55,105,48
0,63,74,5
0,48,64,3
0,48,64,0
0,48,110,6
0,60,110,1
0,62,105,3
0,36,105,1
0,63,110,0
0,67,110,0
0,63,105,36
0,60,114,44
0,63,110,3
0,67,110,2
0,55,105,39
0,46,64,1
0,46,64,6
0,46,110,0
0,62,105,2
0,34,105,0
0,67,110,0
0,58,110,1
0,63,110,3
0,63,105,37
0,58,110,60
0,63,110,4
0,67,110,0
0,51,105,21
0,44,64,6
0,44,64,7
0,60,74,7
0,58,105,1
0,32,105,2
0,58,110,0
0,44,110,0
0,60,110,1
0,63,110,3
0,60,105,46
0,63,110,51
0,58,110,2
0,60,110,1
0,51,105,83
0,32,105,1
0,41,64,14
0,41,64,1
0,56,74,1
0,41,110,2
0,56,110,1
0,29,105,0
0,51,105,0
0,63,110,1
0,60,110,0
0,53,105,26
0,60,110,0
0,63,110,0
0,41,105,4
0,56,110,3
0,55,105,19
0,46,64,5
0,58,74,2
0,63,74,1
0,63,110,2
0,65,110,1
0,46,110,0
0,34,105,3
0,53,105,0
0,58,110,1
0,46,64,4
0,65,110,62
0,58,110,2
0,63,110,3
0,62,74,27
0,34,105,13
0,46,110,0
0,62,110,1
0,65,110,1
0,58,110,1
0,62,110,21
0,58,110,2
0,41,105,3
0,65,110,2
0,67,80,12
0,60,89,0
0,59,90,33
0,66,81,0
0,58,90,0
0,65,81,0
0,57,96,4
0,64,87,0
0,56,102,16
0,63,93,0
0,55,89,14
0,62,80,0
0,54,99,15
0,61,90,0
0,53,86,11
0,60,77,0
0,52,78,5
0,59,69,0
0,51,83,5
0,58,74,0
0,50,87,17
0,57,78,0
0,56,87,17
0,49,96,0
0,55,76,16
0,48,85,0
0,47,102,13
0,54,93,0
0,46,79,18
0,53,70,0
0,45,64,8
0,52,55,0
0,51,90,7
0,44,99,0
0,65,74,1
0,69,74,0
0,53,64,0
0,65,110,7
0,69,110,1
0,49,72,2
0,35,127,0
0,65,74,0
0,60,74,0
0,69,105,0
0,29,105,0
0,60,110,1
0,53,64,0
0,53,110,2
0,69,105,53
0,69,105,44
0,42,86,1
0,69,105,54
0,60,110,118
0,40,127,3
0,42,92,0
0,69,110,2
0,65,110,1
0,69,105,75
0,42,56,1
0,67,105,39
0,69,110,57
0,65,110,2
0,35,127,1
0,42,89,0
0,41,105,0
0,60,110,1
0,69,105,7
0,41,105,120
0,35,100,0
0,42,62,0
0,65,105,59
0,65,110,64
0,40,127,1
0,42,89,0
0,69,110,3
0,60,110,1
0,41,105,82
0,42,54,0
0,62,74,21
0,50,64,7
0,50,64,1
0,50,110,6
0,57,110,1
0,65,110,1
0,65,105,0
0,38,105,1
0,62,110,0
0,35,127,0
0,42,89,0
0,62,74,0
0,65,74,0
0,65,105,57
0,65,105,4
0,42,71,0
0,65,105,55
0,57,110,65
0,65,110,1
0,40,127,4
0,42,92,0
0,62,110,3
0,64,105,77
0,42,56,3
0,65,105,38
0,60,74,4
0,46,64,4
0,60,110,18
0,46,64,1
0,65,110,1
0,62,110,2
0,46,116,0
0,35,127,0
0,42,89,0
0,34,105,0
0,64,105,1
0,34,105,0
0,35,100,0
0,42,66,0
0,62,105,1
0,57,74,3
0,57,110,22
0,62,110,2
0,40,127,3
0,42,92,0
0,65,110,3
0,60,105,31
0,42,69,123
0,69,74,2
0,65,74,3
0,53,64,0
0,53,64,4
0,65,110,2
0,69,105,3
0,29,105,1
0,53,110,0
0,35,127,0
0,42,89,0
0,60,74,0
0,65,74,0
0,60,110,3
0,69,110,1
0,69,105,54
0,69,105,52
0,42,71,2
0,69,105,58
0,40,127,122
0,42,92,0
0,60,110,0
0,65,110,0
0,69,110,1
0,69,105,69
0,42,56,1
0,67,105,39
0,60,110,120
0,35,127,1
0,42,89,0
0,41,105,0
0,65,110,1
0,69,110,1
0,72,105,17
0,35,100,10
0,42,66,0
0,65,105,71
0,69,110,71
0,60,110,1
0,65,110,3
0,40,127,0
0,42,92,0
0,29,67,0
0,42,69,101
0,62,74,8
0,50,64,1
0,65,110,16
0,50,64,1
0,57,110,2
0,62,110,0
0,65,105,0
0,38,105,1
0,50,110,0
0,35,127,0
0,42,96,0
0,65,74,0
0,62,74,0
0,65,105,1
0,65,105,53
0,42,79,2
0,65,105,59
0,65,110,82
0,62,110,2
0,40,127,1
0,42,84,0
0,57,110,2
0,64,105,38
0,42,71,2
0,65,105,59
0,46,64,37
0,65,110,1
0,46,120,5
0,35,127,0
0,42,89,0
0,34,105,0
0,62,110,1
0,46,64,11
0,64,105,1
0,35,100,1
0,42,79,0
0,62,105,3
0,60,74,2
0,45,64,0
0,45,64,1
0,45,110,0
0,65,74,2
0,60,74,0
0,60,119,0
0,57,73,0
0,40,127,0
0,33,105,0
0,65,110,1
0,60,105,0
0,35,100,83
0,43,64,6
0,43,64,3
0,67,74,0
0,58,74,0
0,67,110,0
0,58,105,1
0,31,105,1
0,58,116,0
0,49,76,0
0,35,127,0
0,62,74,0
0,55,120,1
0,62,110,0
0,58,74,18
0,58,105,58
0,58,105,37
0,42,69,2
0,58,105,74
0,67,110,36
0,58,120,1
0,40,127,4
0,42,96,0
0,62,110,3
0,57,105,20
0,42,71,0
0,57,105,31
0,58,120,32
0,67,110,0
0,35,127,5
0,42,92,0
0,43,68,0
0,62,110,3
0,58,105,10
0,35,100,119
0,42,75,0
0,55,105,21
0,58,120,81
0,67,110,3
0,40,127,1
0,42,89,0
0,62,110,4
0,31,105,70
0,42,73,0
0,50,64,6
0,57,74,2
0,65,74,0
0,57,105,3
0,57,112,0
0,50,64,1
0,50,120,1
0,38,105,0
0,35,127,0
0,42,89,0
0,57,74,0
0,62,74,0
0,65,110,2
0,62,110,1
0,57,105,45
0,57,105,12
0,42,81,3
0,57,105,44
0,62,110,87
0,65,110,3
0,40,127,0
0,42,73,0
0,57,114,2
0,55,105,39
0,42,81,1
0,38,105,20
0,55,105,43
0,48,64,4
0,48,64,17
0,36,105,1
0,48,110,0
0,35,127,0
0,42,92,0
0,60,74,0
0,57,114,1
0,65,110,0
0,60,117,0
0,57,105,32
0,35,100,41
0,42,81,0
0,53,105,69
0,57,110,98
0,65,114,1
0,49,72,1
0,40,127,0
0,60,114,1
0,62,74,5
0,58,74,12
0,46,64,0
0,46,120,2
0,53,110,1
0,53,105,1
0,46,64,0
0,34,105,1
0,58,112,0
0,35,127,0
0,42,89,0
0,62,74,0
0,58,74,0
0,62,110,3
0,53,105,50
0,53,105,62
0,42,92,2
0,53,105,44
0,58,120,100
0,62,110,2
0,53,120,0
0,40,127,3
0,42,92,0
0,53,105,38
0,34,105,1
0,42,79,0
0,53,105,49
0,64,74,1
0,48,64,0
0,60,74,3
0,48,114,2
0,55,110,0
0,64,110,2
0,35,127,3
0,42,86,0
0,64,74,0
0,60,74,0
0,36,105,0
0,48,64,0
0,60,110,4
0,36,105,2
0,35,100,0
0,42,81,0
0,52,105,65
0,52,105,33
0,55,112,0
0,60,110,0
0,40,127,3
0,42,89,0
0,64,110,1
0,57,105,3
0,42,86,0
0,57,74,0
0,45,64,3
0,62,74,0
0,57,110,3
0,45,110,1
0,45,74,0
