track,note,velocity,time
4,27,105,31630
4,34,105,18
4,39,105,240
4,34,105,3
4,31,105,13
4,31,105,143
4,31,105,155
4,36,105,960
4,36,105,85
4,34,105,240
4,32,105,958
4,34,105,22
4,34,105,63
4,27,105,32
4,27,105,10
4,39,105,10
4,27,105,10
4,31,105,10
4,34,105,10
4,31,105,10
4,31,105,62
4,31,105,10
4,43,76,15
4,41,78,0
4,36,105,36
4,34,105,40
4,32,105,960
4,32,105,98
4,29,105,60
4,41,105,4
4,34,105,480
4,34,105,87
4,41,105,26
4,29,105,37
4,41,105,60
4,41,105,141
4,41,105,82
4,38,105,21
4,34,105,60
4,34,105,153
4,29,105,455
4,41,105,960
4,29,67,250
4,38,105,480
4,34,105,60
4,33,105,33
4,31,105,6
4,43,68,37
4,31,105,70
4,38,105,8
4,38,105,121
4,36,105,20
4,34,105,17
4,34,105,115
4,36,105,97
4,36,105,122
4,33,105,17
4,33,105,109
4,43,105,11
4,33,105,1
4,38,105,50
4,38,105,67
4,36,105,240
4,36,105,145
4,34,105,1
4,34,105,92
4,36,105,43
4,36,105,114
4,31,105,80
4,29,105,240
4,29,105,122
4,41,105,120
4,33,105,15
4,33,105,10
4,36,105,10
4,33,105,10
4,29,105,10
4,33,105,10
4,36,105,10
4,33,105,10
4,33,105,60
4,33,105,108
4,45,105,500
4,38,105,20
4,36,105,40
4,36,105,120
4,34,105,720
4,34,105,100
4,32,105,40
4,38,105,2
4,41,105,40
4,34,105,20
4,39,105,87
4,39,105,46
4,39,105,64
4,39,105,185
4,34,105,720
4,34,105,90
4,32,105,21
4,30,105,960
4,32,105,87
4,32,105,161
4,29,105,720
4,29,105,45
4,29,105,90
4,29,105,55
4,41,70,45
4,34,105,10
4,34,105,65
4,32,105,27
4,32,105,89
4,32,105,88
4,30,105,83
4,42,105,480
4,30,105,238
4,32,105,21
4,32,105,136
4,39,105,240
4,32,105,229
4,37,105,40
4,32,105,4
4,32,105,40
4,29,105,40
4,25,105,40
4,29,105,40
4,32,105,40
4,29,105,40
4,32,105,40
4,37,105,40
4,34,105,40
4,34,105,126
4,34,105,168
4,39,105,4
4,39,105,52
4,37,105,40
4,37,105,182
4,37,105,57
4,35,105,17
4,35,105,40
4,37,105,10
4,37,105,55
4,32,105,20
4,37,105,10
4,42,105,10
4,42,105,97
4,30,105,240
4,30,105,113
4,42,105,1
4,30,105,5
4,34,105,18
4,34,105,102
4,46,105,25
4,46,105,3
4,39,105,0
4,39,105,82
4,37,105,40
4,35,105,960
4,35,105,70
4,32,105,40
4,32,105,102
4,32,105,115
4,37,105,240
4,37,105,64
4,37,105,118
4,32,105,100
4,35,105,0
4,37,120,10
4,36,70,28
4,35,70,28
4,34,70,24
4,33,70,1
4,32,70,2
4,31,70,2
4,30,70,2
4,29,70,7
4,28,70,10
4,27,70,16
4,26,70,11
4,25,70,25
4,24,70,0
4,35,70,0
4,39,100,16201
4,37,100,1
4,39,100,10
4,41,100,5
4,34,100,10
4,39,100,5
4,37,100,13
4,35,100,960
4,47,100,479
4,35,100,2
4,37,100,240
4,37,100,146
4,30,100,29
4,42,100,960
4,30,100,811
4,34,105,7
4,34,105,63
4,34,105,72
4,39,105,3
4,37,105,24
4,37,105,195
4,35,105,13
4,35,105,54
4,32,105,5
4,32,105,78
4,37,105,7
4,32,105,31
4,32,105,40
4,37,105,25
4,49,72,1
4,49,76,12
4,47,68,483
4,46,71,221
4,44,72,477
5,67,105,4638
5,67,105,62
5,67,105,58
5,67,105,58
5,65,105,57
5,65,105,27
5,67,105,78
5,63,105,78
5,63,105,63
5,63,105,54
5,63,105,62
5,63,105,64
5,63,105,92
5,63,105,54
5,62,105,38
5,60,105,39
5,58,105,60
5,67,105,130
5,67,105,54
5,67,105,60
5,67,105,55
5,67,105,19
5,65,105,241
5,70,105,20
5,63,105,59
5,63,105,232
5,63,105,60
5,63,105,58
5,63,105,62
5,62,105,38
5,63,105,19
5,62,105,40
5,60,105,34
5,58,105,6
5,68,105,159
5,68,105,61
5,68,105,66
5,68,105,56
5,67,105,40
5,67,105,23
5,68,105,20
5,65,105,59
5,67,105,52
5,67,105,45
5,67,105,53
5,67,105,63
5,65,105,19
5,65,105,34
5,67,105,61
5,63,105,80
5,63,105,237
5,63,105,70
5,63,105,61
5,63,105,59
5,63,105,79
5,63,105,42
5,62,105,38
5,67,105,58
5,65,105,57
5,67,105,115
5,67,105,63
5,67,105,56
5,67,105,69
5,67,105,78
5,65,105,40
5,67,105,7
5,63,105,14
5,63,105,102
5,63,105,55
5,63,105,60
5,63,105,51
5,62,105,36
5,63,105,37
5,62,105,38
5,60,105,39
5,58,105,39
5,67,105,113
5,67,105,55
5,67,105,63
5,67,105,61
5,67,105,85
5,65,105,39
5,70,105,39
5,63,105,239
5,63,105,104
5,63,105,61
5,63,105,66
5,63,105,58
5,62,105,2
5,63,105,19
5,62,105,1
5,60,105,10
5,58,105,2
5,68,105,171
5,68,105,56
5,68,105,64
5,68,105,61
5,68,105,59
5,67,105,1
5,68,105,240
5,65,105,234
5,67,105,103
5,67,105,50
5,67,105,69
5,67,105,60
5,67,105,48
5,65,105,40
5,67,105,240
5,63,105,20
5,63,105,173
5,63,105,62
5,63,105,72
5,63,105,63
5,63,105,83
5,63,105,38
5,62,105,121
5,62,105,97
5,62,105,61
5,67,105,3
5,65,105,55
5,63,105,35
5,55,105,613
5,57,105,39
5,59,105,20
5,60,105,47
5,62,105,122
5,55,105,56
5,62,105,37
5,63,105,32
5,58,105,452
5,60,105,59
5,62,105,40
5,63,105,20
5,65,105,41
5,58,105,20
5,65,105,6
5,67,105,55
5,55,105,538
5,57,105,19
5,59,105,39
5,60,105,18
5,62,105,18
5,55,105,56
5,62,105,19
5,63,105,36
5,55,105,39
5,62,105,2
5,63,105,37
5,51,105,79
5,58,105,20
5,60,105,46
5,51,105,364
5,51,105,14
5,53,105,26
5,55,105,246
5,53,105,16
5,69,105,10
5,69,105,53
5,69,105,54
5,69,105,54
5,69,105,75
5,67,105,39
5,69,105,40
5,65,105,59
5,65,105,60
5,65,105,57
5,65,105,54
5,65,105,55
5,64,105,77
5,65,105,38
5,64,105,79
5,62,105,59
5,60,105,77
5,69,105,124
5,69,105,54
5,69,105,52
5,69,105,58
5,69,105,69
5,67,105,39
5,72,105,241
5,65,105,228
5,65,105,75
5,65,105,61
5,65,105,53
5,65,105,59
5,64,105,38
5,65,105,59
5,64,105,39
5,62,105,122
5,60,105,12
5,58,105,10
5,58,105,58
5,58,105,49
5,58,105,74
5,57,105,20
5,57,105,31
5,58,105,10
5,55,105,21
5,57,105,77
5,57,105,45
5,57,105,52
5,57,105,44
5,55,105,39
5,55,105,43
5,57,105,40
5,53,105,79
5,53,105,155
5,53,105,50
5,53,105,62
5,53,105,44
5,53,105,38
5,53,105,49
5,52,105,75
5,52,105,33
5,57,105,38
5,57,105,842
5,59,105,2
5,61,105,119
5,62,105,5
5,64,105,0
5,57,105,38
5,64,105,240
5,65,105,29
5,60,105,450
5,62,105,59
5,64,105,21
5,65,105,59
5,67,105,19
5,60,105,45
5,67,105,38
5,69,105,37
5,57,105,505
5,59,105,20
5,61,105,39
5,62,105,38
5,64,105,121
5,57,105,20
5,64,105,38
5,65,105,37
5,57,105,361
5,64,105,234
5,65,105,0
5,57,105,2
5,64,105,40
5,65,105,20
5,57,105,57
5,64,105,240
5,65,105,38
5,66,105,27
5,66,105,41
5,66,105,67
5,66,105,65
5,65,105,20
5,65,105,45
5,66,105,240
5,63,105,60
5,65,105,34
5,65,105,51
5,65,105,51
5,65,105,51
5,63,105,38
5,63,105,38
5,65,105,240
5,61,105,218
5,61,105,107
5,61,105,54
5,61,105,61
5,61,105,63
5,61,105,59
5,61,105,143
5,60,105,79
5,60,105,36
5,60,105,70
5,65,105,21
5,53,105,51
5,53,105,68
5,65,105,59
5,63,105,58
5,63,105,21
5,61,105,17
5,56,105,697
5,56,105,45
5,68,105,20
5,66,105,48
5,66,105,36
5,65,105,3
5,58,105,545
5,60,105,31
5,62,105,37
5,63,105,332
5,65,105,33
5,58,105,26
5,65,105,6
5,66,105,12
5,61,105,559
5,63,105,8
5,65,105,116
5,66,105,39
5,68,105,30
5,61,105,66
5,68,105,30
5,66,105,30
5,58,105,737
5,60,105,8
5,62,105,36
5,63,105,3
5,65,105,15
5,58,105,27
5,65,105,241
5,66,105,10
5,58,105,35
5,65,105,237
5,66,105,18
5,54,105,76
5,61,105,14
5,63,105,15
5,54,105,65
5,54,105,48
5,56,105,51
5,58,105,71
5,56,105,2
5,58,105,10
5,58,105,56
5,58,105,59
5,58,105,64
5,58,105,64
5,56,105,37
5,58,105,39
5,54,105,79
5,54,105,105
5,54,105,61
5,54,105,63
5,54,105,70
5,53,105,18
5,54,105,122
5,53,105,37
5,51,105,77
5,49,105,31
5,58,105,146
5,58,105,55
5,58,105,64
5,58,105,72
5,58,105,50
5,56,105,20
5,61,105,22
5,54,105,56
5,54,105,117
5,54,105,58
5,54,105,59
5,54,105,63
5,53,105,2
5,54,105,36
5,53,105,37
5,51,105,53
5,49,105,70
5,71,105,131
5,71,105,46
5,71,105,57
5,71,105,65
5,70,105,32
5,70,105,40
5,71,105,59
5,68,105,35
5,70,105,74
5,70,105,28
5,70,105,56
5,68,105,72
5,68,105,46
5,70,105,59
5,66,105,58
5,66,105,297
5,66,105,58
5,66,105,67
5,66,105,65
5,66,105,46
5,66,105,63
5,65,105,73
5,65,105,72
5,65,105,55
5,70,105,15
5,65,105,40
5,65,105,73
5,70,105,37
5,68,105,57
5,68,105,60
5,66,105,366
5,61,105,880
5,61,105,62
5,73,105,18
5,71,105,79
5,71,105,76
5,70,105,28
5,70,105,10
5,75,105,31
5,70,105,54
5,66,105,65
5,66,105,41
5,66,105,10
5,66,105,50
5,68,105,79
5,70,105,57
5,68,105,1
5,49,105,785
5,58,105,124
5,56,105,76
5,66,105,4
5,66,105,61
6,69,107,62552
6,71,105,247
6,73,106,219
6,74,105,216
6,76,105,227
6,69,100,210
6,72,106,530
6,74,105,232
6,76,106,231
6,77,106,216
6,79,106,227
6,72,105,3
6,79,105,1
6,81,105,487
6,88,97,18
6,89,93,8
6,81,101,3
6,88,95,8
6,89,93,10
6,81,97,6
6,88,95,15
6,89,95,9
6,81,93,3
6,88,95,3
6,89,104,20
6,75,70,1556
6,77,70,1853
6,73,69,1916
6,72,70,954
6,75,100,10
6,73,89,2
6,75,96,2651
6,78,86,942
6,77,69,198
6,75,69,830
6,73,89,3
6,75,86,108
6,73,77,111
6,72,88,92
6,73,75,88
6,72,85,107
6,70,90,121
6,70,105,3
6,72,104,218
6,74,104,19
6,75,105,34
6,77,104,11
6,70,105,3
6,77,105,51
6,78,105,231
6,73,100,217
6,75,100,9
6,77,105,218
6,78,105,226
6,80,105,224
6,73,105,235
6,80,105,234
6,78,103,219
6,70,110,514
6,82,100,8
6,72,110,220
6,84,103,11
6,74,110,214
6,86,100,5
6,75,110,192
6,87,105,5
6,89,100,231
6,77,110,0
6,82,104,198
6,70,110,1
6,77,105,198
6,89,100,3
6,78,105,374
6,90,100,2
6,70,107,325
6,82,107,3
6,77,100,196
6,89,105,1
6,90,100,330
6,78,100,7
6,66,108,367
6,85,103,223
6,73,104,8
6,87,102,326
6,75,102,9
6,66,110,334
6,68,110,607
6,70,105,296
6,68,95,238
6,83,56,9818
6,82,46,3
6,78,46,1916
6,77,55,1441
6,75,45,462
6,77,70,4
6,74,76,248
6,75,69,89
6,77,76,74
6,70,67,127
6,70,95,3832
6,82,100,2393
6,72,110,233
6,84,100,3
6,86,97,214
6,74,110,0
6,87,100,201
6,75,110,8
6,77,110,206
6,89,100,4
6,70,110,189
6,82,100,0
6,77,110,229
6,89,99,1
6,78,110,357
6,90,100,4
6,70,110,4
6,82,100,0
6,89,100,211
6,77,110,6
6,90,99,364
6,78,110,3
6,66,110,2
6,78,104,0
6,73,109,211
6,85,100,4
6,87,95,355
6,75,105,2
6,78,87,322
6,66,78,3
6,68,73,576
6,80,78,3
6,82,81,295
6,70,59,5
6,80,78,260
6,68,70,3
7,63,64,17852
7,67,64,1
7,60,64,37
7,58,64,56
7,67,64,16
7,63,64,12
7,60,64,22
7,58,64,20
7,68,64,7
7,65,64,0
7,63,64,41
7,67,64,2
7,60,64,18
7,63,64,1
7,65,64,33
7,62,64,4
7,63,64,33
7,68,64,2
7,67,64,46
7,67,74,65
7,59,74,0
7,65,74,33
7,63,74,36
7,60,74,1
7,58,74,31
7,60,74,49
7,62,74,16
7,65,74,0
7,63,74,16
7,67,74,3
7,60,74,4
7,59,74,37
7,53,74,481
7,63,74,5
7,60,74,36
7,56,74,37
7,58,74,13
7,63,74,1
7,62,74,27
7,65,74,4
7,69,74,0
7,62,74,1897
7,60,74,953
7,57,74,71
7,69,74,30
7,65,74,3
7,62,74,1910
7,60,74,55
7,67,74,14
7,58,74,4
7,57,74,16
7,65,74,4
7,62,74,1893
7,58,74,12
7,64,74,21
7,60,74,3
7,57,74,946
7,62,74,7
7,61,74,49
7,57,60,3
7,65,83,1
7,62,62,7
7,58,75,20
7,60,85,1
7,64,94,4
7,65,80,940
7,57,64,2
7,64,70,38
7,62,66,3
7,61,89,951
7,62,65,37
7,65,70,3
7,60,82,959
7,58,56,957
7,65,68,5
7,62,68,0
7,63,55,0
7,66,68,2
7,58,75,2
7,61,64,1
7,65,62,7
7,56,73,50
7,58,52,60
7,66,64,8
7,63,51,927
7,60,83,8
7,65,64,19
7,58,69,12
7,57,69,954
7,61,59,30
7,58,79,3
7,56,89,13
7,58,68,51
7,66,89,2
7,63,55,0
7,60,82,2
7,61,49,6
7,65,62,3
7,56,100,12
7,65,66,0
7,63,75,0
7,58,77,0
7,58,110,25
7,60,110,175
7,62,110,239
7,63,110,30
7,65,110,19
7,58,110,50
7,63,100,266
7,54,75,4
7,59,74,30
7,61,110,68
7,63,110,240
7,65,110,27
7,53,67,7
7,56,56,1
7,66,110,12
7,68,110,44
7,61,110,21
7,54,35,35
7,58,84,6
7,68,110,6
7,66,105,231
7,53,70,1678
7,63,81,3
7,62,72,962
7,66,81,25
7,63,89,1
7,58,75,3
7,59,65,38
7,56,81,10
7,61,64,1
7,65,65,25
7,66,42,5040
7,61,46,0
7,63,49,0
7,59,59,18
7,66,56,16
7,70,48,3
7,61,48,5
7,63,50,2370
7,66,41,2
7,59,50,3
7,58,50,458
7,61,50,3
7,63,49,27
7,68,49,2
7,59,57,3
7,66,46,1926
7,58,51,2
7,61,63,9
7,59,62,8
7,63,51,2
7,56,47,970
7,61,47,0
7,65,64,482
7,58,47,437
7,63,63,14
7,62,58,16
7,65,68,982
7,66,46,3
7,58,60,3
7,63,50,901
7,59,55,36
7,61,53,495
7,54,51,2
7,66,75,12
7,65,88,125
7,66,77,111
7,68,79,219
7,61,55,192
7,66,60,0
7,61,62,2
7,58,62,3
7,63,53,13
7,65,66,3
7,63,89,4
7,66,79,2
7,58,73,3
7,61,92,5
7,63,69,35
7,59,90,4
7,56,89,29
7,61,92,961
7,65,83,1897
8,39,77,487
8,48,64,5808
8,44,64,886
8,39,64,1001
8,48,64,1854
8,44,64,972
8,43,64,475
8,41,64,460
8,48,64,1881
8,46,64,948
8,44,64,971
8,46,64,965
8,39,64,2
8,48,64,5
8,44,64,973
8,39,64,3
8,48,64,1898
8,44,64,966
8,43,64,2
8,41,64,466
8,48,64,1895
8,46,64,955
8,44,64,9
8,46,64,0
8,51,77,944
8,43,64,1922
8,48,64,1893
8,46,64,941
8,44,64,920
8,46,64,952
8,51,64,922
8,55,64,1400
8,43,64,491
8,48,64,1915
8,46,64,936
8,44,64,934
8,41,64,945
8,46,64,984
8,53,64,1877
8,50,64,1877
8,46,64,973
8,53,64,934
8,50,64,1906
8,46,64,19
8,45,64,1
8,43,64,471
8,50,64,1916
8,48,64,4
8,46,64,1
8,48,64,7
8,50,83,1912
8,48,82,989
8,46,109,930
8,48,85,6
8,53,85,11
8,45,88,1923
8,50,83,5
8,48,75,965
