track,note,velocity,time
2,60,105,4971
2,57,105,72
2,60,0,8
2,62,105,57
2,57,0,4
2,62,0,181
2,60,105,8
2,60,0,442
2,60,105,2609
2,57,105,80
2,60,0,3
2,57,0,87
2,62,105,0
2,60,105,131
2,62,0,2
2,57,105,156
2,60,0,2
2,53,105,160
2,57,0,3
2,53,0,664
2,53,105,918
2,52,105,162
2,53,0,1
2,50,105,157
2,52,0,2
2,58,105,486
2,50,0,16
2,58,0,548
2,58,105,67
2,58,0,150
2,58,105,25
2,58,0,143
2,58,105,30
2,58,0,128
2,58,105,25
2,58,0,140
2,57,105,17
2,57,0,145
2,55,105,21
2,55,0,790
2,60,105,922
2,57,105,70
2,60,0,8
2,62,105,85
2,57,0,1
2,62,0,183
2,60,105,10
2,60,0,428
2,60,105,695
2,57,105,77
2,60,0,10
2,62,105,78
2,57,0,2
2,62,0,145
2,60,105,1
2,60,0,165
2,57,105,0
2,57,0,164
2,53,105,5
2,53,0,685
2,53,105,898
2,52,105,160
2,53,0,10
2,52,0,149
2,50,105,3
2,58,105,480
2,50,0,15
2,58,0,562
2,58,105,79
2,58,0,131
2,58,105,31
2,58,0,123
2,58,105,26
2,58,0,125
2,58,105,39
2,57,105,151
2,58,0,9
2,55,105,156
2,57,0,11
2,60,105,472
2,55,0,7
2,60,0,581
2,60,105,64
2,60,0,125
2,60,105,33
2,60,0,121
2,60,105,39
2,60,0,116
2,60,105,36
2,58,105,128
2,60,0,11
2,57,105,165
2,58,0,7
2,62,105,485
2,57,0,15
2,62,0,588
2,62,105,47
2,62,0,117
2,62,105,40
2,62,0,103
2,62,105,49
2,62,0,113
2,62,105,36
2,60,105,144
2,62,0,5
2,58,105,170
2,60,0,12
2,58,0,503
2,67,105,0
2,65,105,595
2,67,0,7
2,64,105,100
2,65,0,16
2,62,105,88
2,64,0,20
2,62,0,82
2,60,105,3
2,58,105,104
2,60,0,21
2,57,105,95
2,58,0,20
2,55,105,90
2,57,0,7
2,57,105,139
2,55,0,6
2,57,0,385
2,65,105,125
2,64,105,708
2,65,0,4
2,62,105,96
2,64,0,16
2,64,105,101
2,62,0,18
2,65,105,229
2,64,0,8
2,65,0,234
2,65,105,40
2,65,0,193
2,53,105,9
2,53,0,236
2,62,105,4
2,60,105,696
2,62,0,10
2,58,105,97
2,60,0,15
2,60,105,93
2,58,0,14
2,62,105,221
2,60,0,22
2,62,0,207
2,62,105,40
2,62,0,125
2,50,105,9
2,58,105,262
2,50,0,5
2,58,0,45
2,58,105,39
2,58,0,121
2,58,105,30
2,58,0,112
2,58,105,30
2,58,0,120
2,58,105,35
2,57,105,153
2,58,0,5
2,57,0,170
2,55,105,0
2,55,0,935
2,60,105,91
2,57,105,73
2,60,0,1
2,57,0,82
2,62,105,10
2,62,0,160
2,60,105,10
2,60,0,315
2,60,105,2713
2,57,105,77
2,60,0,3
2,62,105,82
2,57,0,10
2,60,105,137
2,62,0,2
2,60,0,153
2,57,105,0
2,53,105,168
2,57,0,4
2,53,0,405
2,53,105,1193
2,53,0,155
2,52,105,8
2,52,0,154
2,50,105,8
2,58,105,475
2,50,0,2
2,58,0,511
2,58,105,129
2,58,0,125
2,58,105,29
2,58,0,131
2,58,105,36
2,58,0,133
2,58,105,37
2,58,0,138
2,57,105,6
2,57,0,158
2,55,105,12
2,55,0,723
2,60,105,1048
2,60,0,79
2,57,105,8
2,57,0,86
2,62,105,11
2,62,0,160
2,60,105,15
2,60,0,425
2,60,105,626
2,60,0,75
2,57,105,9
2,62,105,89
2,57,0,11
2,60,105,161
2,62,0,12
2,60,0,133
2,57,105,5
2,53,105,157
2,57,0,1
2,53,0,590
2,53,105,1019
2,52,105,150
2,53,0,6
2,52,0,159
2,50,105,1
2,58,105,467
2,50,0,7
2,58,0,531
2,58,105,101
2,58,0,150
2,58,105,33
2,58,0,125
2,58,105,36
2,58,0,120
2,58,105,34
2,57,105,127
2,58,0,1
2,57,0,159
2,55,105,1
2,60,105,494
2,55,0,9
2,60,0,569
2,60,105,72
2,60,0,125
2,60,105,29
2,60,0,119
2,60,105,38
2,60,0,124
2,60,105,38
2,58,105,135
2,60,0,2
2,58,0,193
2,57,105,1
2,62,105,479
2,57,0,6
2,62,0,564
2,62,105,92
2,62,0,124
2,62,105,39
2,62,0,93
2,62,105,50
2,62,0,105
2,62,105,47
2,60,105,150
2,62,0,10
2,60,0,172
2,58,105,8
2,58,0,475
2,67,105,6
2,65,105,621
2,67,0,4
2,64,105,105
2,65,0,17
2,62,105,78
2,64,0,20
2,60,105,87
2,62,0,3
2,58,105,107
2,60,0,18
2,57,105,87
2,58,0,10
2,57,0,100
2,55,105,0
2,57,105,139
2,55,0,6
2,57,0,414
2,65,105,69
2,64,105,764
2,65,0,1
2,62,105,94
2,64,0,8
2,64,105,100
2,62,0,10
2,65,105,217
2,64,0,8
2,65,0,213
2,65,105,44
2,65,0,210
2,53,105,5
2,53,0,259
2,62,105,2
2,60,105,758
2,62,0,1
2,58,105,82
2,60,0,8
2,60,105,102
2,58,0,2
2,62,105,223
2,60,0,22
2,62,0,207
2,62,105,49
2,50,105,229
2,62,0,11
2,58,105,255
2,50,0,4
2,58,0,26
2,58,105,55
2,58,0,110
2,58,105,33
2,58,0,110
2,58,105,28
2,58,0,123
2,58,105,35
2,57,105,156
2,58,0,5
2,55,105,160
2,57,0,1
2,55,0,769
2,53,105,1333
2,53,0,105
2,53,105,45
2,53,0,108
2,53,105,45
2,53,0,112
2,53,105,47
2,53,0,126
2,55,105,19
2,55,0,135
2,55,105,44
2,55,0,352
2,55,105,779
2,55,0,111
2,55,105,44
2,55,0,96
2,55,105,44
2,55,0,109
2,55,105,46
2,55,0,144
2,57,105,11
2,57,0,143
2,57,105,41
2,57,0,317
2,53,105,790
2,53,0,119
2,53,105,44
2,53,0,102
2,53,105,44
2,53,0,100
2,53,105,53
2,53,0,151
2,55,105,10
2,55,0,130
2,55,105,42
2,55,0,119
2,55,105,50
2,55,0,95
2,55,105,48
2,55,0,101
2,55,105,60
2,55,0,127
2,55,105,44
2,55,0,133
2,57,105,6
2,57,0,121
2,57,105,51
2,57,0,143
2,57,105,39
2,57,0,105
2,57,105,40
2,57,0,106
2,57,105,52
2,57,0,118
2,57,105,51
2,58,105,168
2,57,0,1
2,58,0,104
2,58,105,46
2,58,0,312
2,52,105,685
2,53,105,242
2,52,0,2
2,65,105,191
2,53,0,15
2,64,105,214
2,65,0,6
2,64,0,229
2,53,105,8
2,55,105,235
2,53,0,6
2,65,105,224
2,55,0,16
2,64,105,214
2,65,0,12
2,55,105,243
2,64,0,3
2,57,105,239
2,55,0,11
2,67,105,235
2,57,0,25
2,65,105,205
2,67,0,5
2,57,105,249
2,65,0,14
2,59,105,246
2,57,0,4
2,59,0,220
2,69,105,4
2,67,105,253
2,69,0,9
2,67,0,40
2,67,105,73
2,67,0,934
2,64,105,190
2,64,0,101
2,64,105,37
2,64,0,68
2,64,105,39
2,64,0,101
2,62,105,19
2,60,105,210
2,62,0,6
2,60,0,215
2,65,105,9
2,65,0,556
2,62,105,556
2,62,0,106
2,62,105,38
2,62,0,79
2,62,105,30
2,62,0,102
2,60,105,19
2,60,0,211
2,59,105,6
2,59,0,205
2,64,105,3
2,64,0,515
2,60,105,614
2,60,0,88
2,60,105,40
2,60,0,75
2,60,105,34
2,60,0,70
2,60,105,40
2,60,0,139
2,59,105,6
2,59,0,135
2,57,105,10
2,57,0,139
2,62,105,17
2,62,0,143
2,62,105,44
2,62,0,97
2,62,105,34
2,62,0,95
2,62,105,49
2,62,0,131
2,62,105,46
2,62,0,105
2,62,105,41
2,62,0,104
2,62,105,46
2,62,0,118
2,62,105,56
2,62,0,108
2,62,105,32
2,62,0,119
2,62,105,49
2,59,105,180
2,62,0,7
2,59,0,154
2,56,105,0
2,56,0,154
2,55,105,26
2,55,0,369
2,60,105,88
2,53,105,487
2,60,0,3
2,59,105,490
2,53,0,12
2,52,105,441
2,59,0,1
2,57,105,490
2,52,0,9
2,50,105,457
2,57,0,8
2,56,105,477
2,50,0,8
2,56,0,57
2,48,105,6
2,48,0,1429
2,49,105,0
2,49,0,1000
2,50,105,2
2,50,0,909
2,65,105,1797
2,64,105,726
2,65,0,10
2,62,105,93
2,64,0,9
2,62,0,101
2,64,105,7
2,65,105,255
2,64,0,12
2,65,0,205
2,65,105,45
2,53,105,232
2,65,0,11
2,53,0,228
2,62,105,10
2,60,105,736
2,62,0,8
2,58,105,68
2,60,0,4
2,60,105,105
2,58,0,5
2,60,0,234
2,62,105,9
2,62,0,203
2,62,105,57
2,50,105,250
2,62,0,15
2,58,105,235
2,50,0,2
2,58,0,113
2,58,105,45
2,58,0,125
2,58,105,36
2,58,0,119
2,58,105,33
2,58,0,130
2,58,105,39
2,58,0,150
2,57,105,5
2,57,0,151
2,55,105,23
2,55,0,762
2,57,105,330
2,57,0,110
2,57,105,48
2,57,0,104
2,57,105,50
2,57,0,97
2,57,105,61
2,55,105,160
2,57,0,7
2,55,0,167
2,53,105,3
2,53,0,400
2,60,105,370
2,57,105,80
2,60,0,3
2,62,105,90
2,57,0,5
2,62,0,140
2,60,105,8
2,60,0,297
2,60,105,757
2,60,0,76
2,57,105,2
2,62,105,100
2,57,0,3
2,62,0,157
2,60,105,4
2,60,0,164
2,57,105,1
2,53,105,183
2,57,0,10
2,53,0,427
2,53,105,1638
2,52,105,161
2,53,0,1
2,52,0,179
2,50,105,1
2,58,105,463
2,50,0,1
2,58,0,394
2,58,105,236
2,58,0,81
2,58,105,34
2,58,0,79
2,58,105,36
2,58,0,80
2,58,105,46
2,58,0,180
2,57,105,3
2,55,105,212
2,57,0,6
2,55,0,642
2,57,105,533
2,57,0,132
2,57,105,41
2,57,0,120
2,57,105,62
2,57,0,144
2,57,105,38
2,57,0,148
2,55,105,5
2,55,0,180
2,65,105,3
2,65,0,1870
3,64,61,20265
3,65,61,480
3,65,0,480
3,67,62,0
3,67,0,462
3,64,0,18
3,62,58,0
3,65,58,0
3,69,58,0
3,69,0,936
3,67,59,24
3,69,58,480
3,67,0,58
3,65,0,413
3,62,0,1
3,62,61,8
3,65,61,0
3,70,61,0
3,69,0,50
3,60,65,910
3,64,65,0
3,69,65,0
3,62,0,23
3,70,0,4
3,65,0,1
3,70,64,452
3,69,0,32
3,70,0,426
3,60,0,8
3,64,0,12
3,60,70,2
3,65,70,0
3,69,70,0
3,72,72,480
3,69,0,15
3,62,70,465
3,70,70,0
3,72,0,5
3,60,0,13
3,65,0,345
3,62,0,82
3,67,66,35
3,76,66,0
3,69,69,480
3,72,69,0
3,77,69,0
3,70,0,13
3,67,0,14
3,76,0,15
3,69,0,435
3,62,67,3
3,65,67,0
3,69,67,0
3,77,0,41
3,72,0,0
3,65,0,431
3,58,64,8
3,67,64,0
3,69,0,2
3,62,0,469
3,64,64,9
3,72,64,0
3,58,0,10
3,69,48,470
3,65,58,0
3,74,58,0
3,67,0,8
3,72,0,5
3,64,0,4
3,65,0,398
3,74,0,51
3,69,0,5
3,62,58,9
3,65,58,0
3,58,58,0
3,58,0,412
3,62,0,0
3,65,0,1
3,58,52,547
3,65,52,0
3,62,52,0
3,65,0,451
3,58,0,14
3,62,0,12
3,55,45,3
3,64,45,0
3,60,45,0
3,64,0,1091
3,55,0,5
3,60,0,7
3,62,64,7057
3,64,60,480
3,65,67,480
3,64,0,11
3,60,66,469
3,64,66,0
3,58,66,0
3,65,0,10
3,62,0,5
3,55,97,465
3,65,70,480
3,57,92,0
3,64,0,25
3,55,0,12
3,67,67,443
3,65,0,30
3,57,0,18
3,58,0,419
3,60,0,26
3,67,0,4
3,79,65,463
3,79,0,271
3,77,68,689
3,77,0,283
3,79,65,677
3,79,0,271
3,77,68,209
3,77,0,283
3,74,54,1157
3,76,58,480
3,76,0,477
3,77,61,3
3,77,0,477
3,76,58,3
3,74,0,475
3,72,64,5
3,77,64,480
3,76,0,45
3,79,64,435
3,77,0,20
3,77,64,460
3,74,64,0
3,72,0,6
3,79,0,11
3,79,64,943
3,77,0,21
3,81,66,459
3,79,0,25
3,79,67,455
3,81,0,25
3,81,64,935
3,76,64,0
3,74,0,12
3,79,0,4
3,82,64,464
3,81,0,30
3,72,70,450
3,77,70,0
3,69,70,0
3,82,0,18
3,76,0,4
3,69,0,430
3,72,0,5
3,77,0,23
3,65,67,0
3,69,67,0
3,72,67,0
3,69,0,452
3,65,0,0
3,67,67,28
3,62,70,0
3,70,70,0
3,72,0,5
3,62,0,440
3,67,0,7
3,70,0,28
3,82,70,0
3,67,66,0
3,76,66,0
3,82,0,480
3,81,69,0
3,72,69,0
3,77,69,0
3,67,0,27
3,76,0,15
3,81,0,435
3,62,70,3
3,65,70,0
3,69,70,0
3,77,0,41
3,72,0,0
3,65,0,431
3,58,72,8
3,67,72,0
3,69,0,2
3,62,0,469
3,64,70,9
3,72,70,0
3,58,0,10
3,69,64,470
3,65,64,0
3,74,64,0
3,67,0,8
3,72,0,5
3,64,0,4
3,65,0,398
3,74,0,51
3,69,0,5
3,62,58,9
3,65,58,0
3,58,58,0
3,58,0,412
3,62,0,0
3,65,0,1
3,58,52,547
3,65,52,0
3,62,52,0
3,65,0,451
3,58,0,14
3,62,0,12
3,55,45,3
3,64,45,0
3,60,45,0
3,64,0,1091
3,55,0,5
3,60,0,7
3,64,58,8497
3,65,64,160
3,64,0,86
3,65,0,566
3,65,77,148
3,62,77,0
3,64,69,160
3,67,69,0
3,65,0,80
3,62,0,8
3,64,0,589
3,67,0,4
3,67,82,119
3,64,82,0
3,65,77,160
3,69,77,0
3,67,0,83
3,64,0,8
3,65,0,580
3,69,0,6
3,69,87,123
3,65,87,0
3,67,79,160
3,71,79,0
3,69,0,57
3,65,0,3
3,67,0,711
3,71,0,1
3,60,79,508
3,72,79,0
3,84,79,0
3,72,0,502
3,60,0,0
3,84,0,8
3,84,79,450
3,60,79,0
3,72,79,0
3,72,0,902
3,60,0,31
3,69,76,27
3,57,76,0
3,81,76,0
3,84,0,20
3,71,79,460
3,59,79,0
3,83,79,0
3,81,0,90
3,69,0,15
3,57,0,15
3,83,0,200
3,59,0,0
3,71,0,0
3,59,80,160
3,71,80,0
3,83,80,0
3,59,0,912
3,83,0,40
3,68,77,8
3,56,77,0
3,80,77,0
3,71,0,1
3,57,80,479
3,69,80,0
3,81,80,0
3,68,0,90
3,80,0,15
3,56,0,0
3,57,0,306
3,69,0,5
3,81,0,6
3,57,80,58
3,69,80,0
3,81,80,0
3,57,0,880
3,69,0,21
3,81,0,6
3,57,79,53
3,69,79,0
3,81,79,0
3,57,0,430
3,56,75,50
3,80,75,0
3,68,75,0
3,69,0,45
3,81,0,10
3,68,0,361
3,56,0,10
3,80,0,1
3,68,70,53
3,56,70,0
3,80,70,0
3,56,0,452
3,68,0,11
3,55,64,17
3,67,64,0
3,79,64,0
3,80,0,10
3,67,0,350
3,55,0,0
3,79,0,15
3,72,73,105
3,71,70,960
3,72,0,12
3,69,69,948
3,71,0,22
3,68,64,938
3,69,0,10
3,68,0,487
3,65,75,943
3,61,72,480
3,65,0,780
3,64,83,20
3,61,0,467
3,62,86,13
3,58,86,0
3,64,0,16
3,67,83,624
3,70,83,0
3,58,0,37
3,67,0,413
3,70,0,10
3,67,88,20
3,70,88,0
3,62,0,16
3,67,0,270
3,70,0,12
3,65,92,22
3,69,92,0
3,64,92,480
3,67,92,0
3,69,0,17
3,65,0,1
3,64,0,459
3,72,94,3
3,72,0,130
3,69,94,30
3,72,94,0
3,67,0,20
3,67,94,780
3,70,94,0
3,69,0,10
3,72,0,10
3,69,94,140
3,60,80,0
3,65,80,0
3,67,0,12
3,70,0,16
3,69,0,444
3,77,82,8
3,72,82,0
3,62,80,480
3,70,80,0
3,72,0,5
3,60,0,13
3,62,0,427
3,65,0,35
3,77,0,0
3,67,76,0
3,76,76,0
3,76,0,480
3,69,79,0
3,72,79,0
3,77,79,0
3,70,0,13
3,67,0,14
3,69,0,450
