track,note,velocity,time
1,31,75,399
1,31,0,710
1,38,72,58
1,38,0,717
1,40,74,51
1,40,0,767
1,36,79,1
1,36,0,759
1,31,72,9
1,31,0,767
1,38,76,1
1,38,0,767
1,40,74,1
1,40,0,767
1,36,76,1
1,36,0,767
1,31,69,1
1,31,0,767
1,36,76,1
1,36,0,376
1,38,74,8
1,38,0,383
1,31,81,13825
1,31,0,710
1,38,78,58
1,38,0,717
1,40,80,51
1,40,0,767
1,36,85,1
1,36,0,759
1,31,78,9
1,31,0,767
1,38,82,1
1,38,0,767
1,40,80,1
1,40,0,767
1,36,82,1
1,36,0,767
1,31,75,1
1,31,0,767
1,36,73,1
1,36,0,376
1,38,74,8
1,38,0,383
1,31,83,1
1,31,0,710
1,38,80,58
1,38,0,717
1,40,82,51
1,40,0,767
1,36,87,1
1,36,0,759
1,31,80,9
1,31,0,767
1,38,84,1
1,38,0,767
1,40,82,1
1,40,0,767
1,36,84,1
1,36,0,767
1,31,77,1
1,31,0,767
1,36,75,1
1,36,0,376
1,38,76,8
1,38,0,383
1,31,84,9217
1,31,0,710
1,38,81,58
1,38,0,717
1,40,83,51
1,40,0,767
1,36,88,1
1,36,0,759
1,31,81,9
1,31,0,767
1,38,85,1
1,38,0,767
1,40,83,1
1,40,0,767
1,36,85,1
1,36,0,767
1,31,78,1
1,31,0,767
1,36,76,1
1,36,0,376
1,38,77,8
1,38,0,383
1,31,86,1
1,31,0,710
1,38,83,58
1,38,0,717
1,40,85,51
1,40,0,767
1,36,90,1
1,36,0,759
1,31,83,9
1,31,0,767
1,38,87,1
1,38,0,767
1,40,85,1
1,40,0,767
1,36,87,1
1,36,0,767
1,31,80,1
1,31,0,767
1,36,78,1
1,36,0,376
1,38,79,8
1,38,0,383
1,33,92,1
1,33,0,710
1,40,89,58
1,40,0,717
1,42,91,51
1,42,0,767
1,38,96,1
1,38,0,759
1,33,89,9
1,33,0,767
1,40,93,1
1,40,0,767
1,42,91,1
1,42,0,767
1,38,93,1
1,38,0,767
1,33,86,1
1,33,0,767
1,38,84,1
1,38,0,376
1,40,85,8
1,40,0,383
1,33,95,1
1,33,0,710
1,40,92,58
1,40,0,717
1,42,94,51
1,42,0,767
1,38,99,1
1,38,0,759
1,33,92,9
1,33,0,767
1,40,96,1
1,40,0,767
1,42,94,1
1,42,0,767
1,38,96,1
1,38,0,767
1,33,89,1
1,33,0,767
1,38,87,1
1,38,0,376
1,40,88,8
1,40,0,383
1,33,63,3265
1,33,0,527
2,43,50,326
2,59,50,0
2,62,49,0
2,74,72,6
2,79,75,365
2,74,0,12
2,43,0,383
2,59,0,0
2,62,0,0
2,50,51,2
2,55,46,0
2,62,46,0
2,78,78,378
2,55,0,4
2,54,49,2
2,79,0,8
2,81,74,189
2,78,0,7
2,79,80,174
2,50,0,4
2,54,0,0
2,62,0,0
2,52,49,2
2,55,52,0
2,59,46,0
2,81,0,0
2,52,0,766
2,55,0,0
2,59,0,0
2,48,50,2
2,55,50,0
2,62,49,0
2,62,0,382
2,60,49,2
2,81,69,170
2,79,0,8
2,83,62,189
2,48,0,15
2,55,0,0
2,60,0,0
2,43,48,2
2,59,48,0
2,62,48,0
2,81,0,2
2,43,0,764
2,59,0,0
2,62,0,0
2,50,51,2
2,54,51,0
2,62,51,0
2,81,69,364
2,83,0,7
2,84,72,133
2,81,0,7
2,83,67,116
2,84,0,15
2,79,66,119
2,83,0,2
2,50,0,3
2,54,0,0
2,62,0,0
2,52,50,2
2,55,50,0
2,59,51,0
2,79,0,567
2,91,74,4
2,90,83,191
2,52,0,4
2,55,0,0
2,59,0,0
2,48,46,2
2,55,50,0
2,64,49,0
2,91,0,38
2,86,73,100
2,90,0,6
2,91,90,123
2,86,0,3
2,90,76,126
2,91,0,8
2,86,69,122
2,90,0,12
2,83,66,108
2,86,0,7
2,48,0,113
2,55,0,0
2,64,0,0
2,43,52,2
2,59,52,0
2,62,48,0
2,86,78,9
2,83,0,31
2,64,77,720
2,69,77,0
2,43,0,6
2,59,0,0
2,62,0,0
2,48,59,2
2,55,59,0
2,60,59,0
2,86,0,4
2,69,0,117
2,69,66,2
2,72,76,0
2,64,0,62
2,67,66,69
2,71,76,0
2,72,0,18
2,69,0,23
2,48,0,87
2,55,0,0
2,60,0,0
2,38,59,2
2,50,55,0
2,57,53,0
2,62,55,0
2,66,68,1
2,69,82,0
2,67,0,4
2,71,0,2
2,64,66,121
2,67,78,0
2,66,0,13
2,69,0,0
2,62,0,111
2,62,62,4
2,66,72,0
2,64,0,15
2,67,0,0
2,48,86,41
2,62,0,1
2,66,0,0
2,55,58,1
2,50,0,3
2,57,0,0
2,50,86,38
2,55,0,0
2,54,68,2
2,48,0,5
2,50,0,75
2,52,91,4
2,54,0,3
2,55,68,2
2,50,91,91
2,55,0,2
2,57,71,2
2,52,0,12
2,52,95,76
2,57,0,2
2,55,70,2
2,50,0,8
2,54,91,78
2,57,75,0
2,55,0,2
2,52,0,1
2,57,0,106
2,52,95,1
2,60,79,0
2,57,69,1
2,54,0,16
2,57,0,0
2,54,94,86
2,59,73,0
2,62,76,0
2,52,0,1
2,60,0,25
2,38,0,22
2,62,0,84
2,59,0,2
2,60,75,6
2,43,68,1
2,55,80,0
2,62,78,0
2,54,0,16
2,60,0,398
2,59,74,16
2,59,0,382
2,55,0,11
2,36,44,2
2,43,0,0
2,52,33,0
2,55,34,0
2,62,0,0
2,36,0,329
2,52,0,0
2,55,0,0
2,38,46,5
2,54,34,0
2,57,33,0
2,40,68,331
2,55,38,0
2,60,75,0
2,38,0,3
2,54,0,0
2,57,0,0
2,62,79,90
2,60,0,7
2,62,0,78
2,64,85,4
2,62,89,96
2,64,0,16
2,40,0,73
2,55,0,0
2,42,61,3
2,57,61,0
2,64,95,0
2,62,0,12
2,66,98,78
2,64,0,3
2,64,103,107
2,66,0,17
2,62,73,86
2,66,100,0
2,64,0,1
2,62,0,131
2,60,81,8
2,43,69,1
2,55,98,0
2,62,81,0
2,67,98,0
2,66,0,16
2,42,0,6
2,57,0,0
2,60,0,392
2,59,80,16
2,59,0,371
2,62,0,22
2,67,0,0
2,38,56,2
2,43,0,0
2,50,53,0
2,55,0,0
2,57,65,0
2,62,61,0
2,67,75,0
2,67,0,376
2,66,75,8
2,66,0,334
2,38,0,6
2,57,0,2
2,62,0,0
2,50,0,6
2,40,71,36
2,52,71,0
2,60,80,0
2,64,81,0
2,67,81,0
2,60,0,382
2,59,91,2
2,40,0,382
2,52,0,0
2,59,0,0
2,64,0,0
2,67,0,0
2,36,49,2
2,48,40,0
2,55,69,0
2,60,71,0
2,64,73,0
2,36,0,351
2,48,0,0
2,55,0,0
2,60,0,0
2,64,0,0
2,38,65,33
2,50,58,0
2,57,55,0
2,62,51,0
2,66,51,0
2,38,0,303
2,50,0,0
2,57,0,0
2,62,0,0
2,66,0,0
2,43,93,81
2,55,92,0
2,59,100,0
2,62,94,0
2,55,0,171
2,59,0,0
2,62,0,0
2,43,0,85
2,55,89,128
2,59,99,0
2,62,91,0
2,55,0,171
2,59,0,0
2,62,0,0
2,42,93,213
2,54,97,0
2,57,98,0
2,62,94,0
2,54,0,170
2,57,0,0
2,62,0,0
2,42,0,86
2,54,98,128
2,57,100,0
2,62,96,0
2,54,0,170
2,57,0,1
2,62,0,0
2,40,93,213
2,52,92,0
2,55,96,0
2,59,101,0
2,62,94,0
2,52,0,171
2,55,0,0
2,59,0,0
2,62,0,0
2,40,0,85
2,52,95,128
2,55,100,0
2,59,100,0
2,62,93,0
2,52,0,171
2,55,0,0
2,59,0,0
2,62,0,0
2,36,93,213
2,48,96,0
2,52,100,0
2,55,89,0
2,60,86,0
2,48,0,171
2,52,0,0
2,55,0,0
2,60,0,0
2,36,0,85
2,50,95,128
2,54,98,0
2,57,101,0
2,50,0,171
2,54,0,0
2,57,0,0
2,43,93,213
2,55,92,0
2,59,100,0
2,62,94,0
2,55,0,171
2,59,0,0
2,62,0,0
2,43,0,85
2,55,89,128
2,59,99,0
2,62,91,0
2,55,0,171
2,59,0,0
2,62,0,0
2,42,93,213
2,54,97,0
2,57,98,0
2,62,94,0
2,54,0,170
2,57,0,0
2,62,0,0
2,42,0,86
2,54,98,128
2,57,100,0
2,62,96,0
2,54,0,170
2,57,0,1
2,62,0,0
2,40,93,213
2,52,92,0
2,55,96,0
2,59,101,0
2,62,94,0
2,52,0,171
2,55,0,0
2,59,0,0
2,62,0,0
2,40,0,85
2,52,95,128
2,55,100,0
2,59,100,0
2,62,93,0
2,52,0,171
2,55,0,0
2,59,0,0
2,62,0,0
2,36,93,213
2,48,94,0
2,52,100,0
2,60,90,0
2,52,0,205
2,60,0,0
2,48,0,3
2,36,0,48
2,38,79,128
2,50,79,0
2,54,79,0
2,57,79,0
2,38,0,35
2,50,0,0
2,54,0,0
2,57,0,0
2,43,66,0
2,59,66,0
2,62,65,0
2,74,75,6
2,79,78,323
2,74,0,12
2,43,0,383
2,59,0,0
2,62,0,0
2,50,67,2
2,55,62,0
2,62,62,0
2,78,81,378
2,55,0,4
2,54,65,2
2,79,0,8
2,81,77,189
2,78,0,7
2,79,83,174
2,50,0,4
2,54,0,0
2,62,0,0
2,52,65,2
2,55,68,0
2,59,62,0
2,81,0,0
2,52,0,766
2,55,0,0
2,59,0,0
2,48,66,2
2,55,66,0
2,62,65,0
2,62,0,382
2,60,65,2
2,81,72,170
2,79,0,8
2,83,65,189
2,48,0,15
2,55,0,0
2,60,0,0
2,43,64,2
2,59,64,0
2,62,64,0
2,81,0,2
2,43,0,764
2,59,0,0
2,62,0,0
2,50,67,2
2,54,67,0
2,62,67,0
2,81,72,364
2,83,0,7
2,84,75,133
2,81,0,7
2,83,70,116
2,84,0,15
2,79,69,119
2,83,0,2
2,50,0,3
2,54,0,0
2,62,0,0
2,52,66,2
2,55,66,0
2,59,67,0
2,79,0,567
2,91,77,4
2,90,86,191
2,52,0,4
2,55,0,0
2,59,0,0
2,48,62,2
2,55,66,0
2,64,65,0
2,91,0,38
2,86,76,100
2,90,0,6
2,91,93,123
2,86,0,3
2,90,79,126
2,91,0,8
2,86,72,122
2,90,0,12
2,83,69,108
2,86,0,7
2,48,0,113
2,55,0,0
2,64,0,0
2,43,68,2
2,59,68,0
2,62,68,0
2,86,81,9
2,83,0,31
2,81,80,720
2,43,0,6
2,59,0,0
2,62,0,0
2,48,68,2
2,55,68,0
2,60,68,0
2,86,0,4
2,81,0,117
2,84,79,2
2,83,79,131
2,84,0,18
2,48,0,110
2,55,0,0
2,60,0,0
2,38,68,2
2,54,68,0
2,57,68,0
2,62,68,0
2,81,85,1
2,83,0,6
2,79,81,121
2,81,0,13
2,78,75,115
2,79,0,15
2,78,0,110
2,38,0,1
2,54,0,0
2,57,0,0
2,62,0,0
2,43,71,2
2,59,71,0
2,62,70,0
2,74,79,6
2,79,82,365
2,74,0,12
2,43,0,383
2,59,0,0
2,62,0,0
2,50,72,2
2,55,67,0
2,62,67,0
2,78,85,378
2,55,0,4
2,54,70,2
2,79,0,8
2,81,81,189
2,78,0,7
2,79,87,174
2,50,0,4
2,54,0,0
2,62,0,0
2,52,70,2
2,55,73,0
2,59,67,0
2,81,0,0
2,52,0,766
2,55,0,0
2,59,0,0
2,48,71,2
2,55,71,0
2,62,70,0
2,62,0,382
2,60,70,2
2,81,76,170
2,79,0,8
2,83,69,189
2,48,0,15
2,55,0,0
2,60,0,0
2,43,69,2
2,59,69,0
2,62,69,0
2,81,0,2
2,43,0,764
2,59,0,0
2,62,0,0
2,50,72,2
2,54,72,0
2,62,72,0
2,81,76,364
2,83,0,7
2,84,79,133
2,81,0,7
2,83,74,116
2,84,0,15
2,79,73,119
2,83,0,2
2,50,0,3
2,54,0,0
2,62,0,0
2,52,71,2
2,55,71,0
2,59,72,0
2,79,0,567
2,91,81,4
2,90,90,191
2,52,0,4
2,55,0,0
2,59,0,0
2,48,67,2
2,55,71,0
2,64,70,0
2,91,0,38
2,86,80,100
2,90,0,6
2,91,97,123
2,86,0,3
2,90,83,126
2,91,0,8
2,86,76,122
2,90,0,12
2,83,73,108
2,86,0,7
2,48,0,113
2,55,0,0
2,64,0,0
2,43,73,2
2,59,73,0
2,62,73,0
2,86,85,9
2,83,0,31
2,81,84,720
2,43,0,6
2,59,0,0
2,62,0,0
2,48,73,2
2,55,73,0
2,60,73,0
2,86,0,4
2,81,0,117
2,84,83,2
2,83,83,131
2,84,0,18
2,48,0,110
2,55,0,0
2,60,0,0
2,38,73,2
2,54,73,0
2,57,73,0
2,62,73,0
2,81,89,1
2,83,0,6
2,79,85,121
2,81,0,13
2,78,79,115
2,79,0,15
2,62,0,35
2,78,0,0
2,54,0,35
2,57,0,0
2,48,103,6
2,60,103,0
2,55,74,2
2,50,103,38
2,55,0,0
2,62,103,0
2,54,84,2
2,48,0,5
2,60,0,0
2,50,0,78
2,62,0,0
2,52,108,4
2,64,108,0
2,54,0,3
2,55,84,2
2,50,107,91
2,62,107,0
2,55,0,2
2,57,87,2
2,52,0,12
2,64,0,0
2,52,111,76
2,64,111,0
2,57,0,2
2,55,86,2
2,50,0,8
2,62,0,0
2,54,107,78
2,57,91,0
2,66,107,0
2,55,0,2
2,52,0,1
2,64,0,0
2,57,0,106
2,52,111,1
2,60,94,0
2,64,111,0
2,57,84,1
2,54,0,16
2,57,0,0
2,66,0,0
2,54,108,86
2,59,87,0
2,62,91,0
2,66,108,0
2,52,0,1
2,64,0,0
2,60,0,25
2,62,0,106
2,59,0,2
2,38,0,5
2,60,89,1
2,43,82,1
2,55,94,0
2,62,76,0
2,67,94,0
2,54,0,16
2,66,0,0
2,60,0,398
2,59,78,16
2,59,0,382
2,55,0,11
2,67,0,0
2,36,91,2
2,43,0,0
2,52,91,0
2,55,91,0
2,62,0,0
2,67,91,0
2,72,78,0
2,76,71,0
2,36,0,329
2,52,0,0
2,55,0,0
2,67,0,0
2,72,0,0
2,76,0,0
2,38,91,5
2,54,91,0
2,57,91,0
2,66,91,0
2,69,78,0
2,74,71,0
2,69,0,329
2,36,67,2
2,55,66,0
2,60,66,0
2,64,66,0
2,69,71,0
2,38,0,3
2,54,0,0
2,57,0,0
2,66,0,0
2,74,0,0
2,36,0,364
2,55,0,0
2,60,0,0
2,64,0,0
2,69,0,0
2,38,71,3
2,57,71,0
2,62,71,0
2,66,61,0
2,71,53,0
2,38,0,397
2,57,0,0
2,62,0,0
2,66,0,0
2,71,0,0
2,36,103,1
2,48,103,0
2,60,103,0
2,55,74,2
2,50,103,91
2,55,0,0
2,62,103,0
2,54,84,2
2,48,0,5
2,60,0,0
2,50,0,78
2,62,0,0
2,52,108,4
2,64,108,0
2,54,0,3
2,55,84,2
2,50,107,91
2,62,107,0
2,55,0,2
2,57,87,2
2,52,0,12
2,64,0,0
2,52,111,76
2,64,111,0
2,57,0,2
2,55,86,2
2,50,0,8
2,62,0,0
2,36,0,69
2,38,107,9
2,54,107,0
2,57,91,0
2,66,107,0
2,55,0,2
2,52,0,1
2,64,0,0
2,57,0,106
2,52,111,1
2,60,94,0
2,64,111,0
2,57,84,1
2,54,0,16
2,57,0,0
2,66,0,0
2,54,108,86
2,59,87,0
2,62,91,0
2,66,108,0
2,52,0,1
2,64,0,0
2,60,0,25
2,62,0,106
2,59,0,2
2,59,89,6
2,40,82,1
2,52,94,0
2,64,76,0
2,67,94,0
2,54,0,16
2,66,0,0
2,38,0,45
2,67,0,194
2,67,96,3
2,71,113,0
2,64,0,178
2,67,0,1
2,71,0,0
2,66,78,4
2,69,114,0
2,66,0,190
2,69,0,0
2,64,74,2
2,67,106,0
2,59,0,186
2,52,0,2
2,40,0,2
2,64,0,0
2,67,0,0
2,40,101,2
2,55,101,0
2,64,101,0
2,71,101,0
2,79,101,0
2,40,0,382
2,55,0,0
2,64,0,0
2,71,0,0
2,79,0,0
2,38,93,2
2,54,93,0
2,59,93,0
2,71,93,0
2,78,93,0
2,38,0,382
