track,note,velocity,time
1,66,42,21588
1,66,0,220
1,66,47,100
1,66,0,304
1,66,40,68
1,66,0,480
1,66,40,64
1,66,0,216
1,66,45,76
1,66,0,176
1,66,49,128
1,66,0,528
1,66,32,84
1,66,0,1040
1,71,33,5764
1,71,0,52
1,71,40,76
1,71,0,264
1,71,39,108
1,71,0,204
1,71,58,84
1,71,0,228
1,71,57,36
1,71,0,204
1,71,44,84
1,71,0,168
1,71,33,128
1,71,0,488
1,71,62,668
1,71,0,192
1,71,70,36
1,71,0,152
1,71,72,40
1,71,0,56
1,71,75,80
1,71,0,56
1,71,80,108
1,73,86,436
1,71,0,12
1,73,0,100
1,73,49,96
1,73,0,620
1,71,52,2612
1,71,0,140
1,71,57,156
1,71,0,448
1,71,44,188
1,71,0,52
1,71,54,68
1,71,0,256
1,71,70,80
1,71,0,260
1,71,41,104
1,71,0,308
1,71,49,152
1,71,0,252
1,71,37,232
1,71,0,216
1,71,22,188
1,71,0,200
1,67,52,3340
1,67,0,124
1,67,47,204
1,67,0,40
1,67,68,68
1,67,0,28
1,67,80,92
1,67,0,44
1,67,80,44
1,67,70,132
1,67,0,20
1,67,0,560
1,67,44,44
1,67,0,48
1,66,53,7616
1,66,0,260
1,66,63,84
1,66,0,220
1,66,57,160
1,66,0,388
1,66,57,256
1,66,0,40
1,66,62,60
1,66,0,112
1,66,76,104
1,66,0,92
1,66,44,140
1,66,0,576
1,66,35,2004
1,73,48,708
1,66,0,80
1,74,54,656
1,73,0,56
1,76,52,708
1,74,0,32
1,78,48,848
1,76,0,28
1,76,57,1268
1,78,0,28
1,74,60,196
1,76,0,28
1,74,0,192
1,73,46,12
1,73,0,992
1,66,39,200
1,71,45,376
1,66,0,100
1,71,0,176
1,71,48,152
1,71,0,676
1,71,70,164
1,73,64,248
1,71,0,28
1,74,74,184
1,73,0,24
1,67,55,616
1,74,0,8
1,67,0,416
1,67,48,116
1,67,0,620
1,67,48,100
1,67,0,428
1,69,70,84
1,71,85,216
1,69,0,40
1,73,72,176
1,71,0,28
1,74,87,160
1,73,0,4
1,76,85,228
1,74,0,32
1,78,85,44
1,76,0,32
1,79,95,8
1,78,0,24
1,81,85,80
1,79,0,16
1,81,0,152
1,79,78,28
1,79,0,84
1,81,78,16
1,79,78,88
1,81,0,28
1,76,64,652
1,79,0,4
1,78,59,296
1,76,0,16
1,78,0,752
1,78,40,4
1,78,0,1164
1,66,68,740
1,73,68,96
1,66,0,28
1,74,91,196
1,73,0,28
1,76,89,632
1,74,0,16
1,78,82,240
1,76,0,16
1,78,0,208
1,76,88,0
1,74,89,216
1,76,0,4
1,74,0,180
1,73,85,68
1,74,80,56
1,73,0,4
1,73,87,56
1,74,0,16
1,73,0,900
1,66,80,8
1,71,95,232
1,66,0,52
1,71,0,312
1,71,98,116
1,71,0,592
1,71,110,100
1,71,0,84
1,73,98,0
1,74,107,28
1,73,0,28
1,79,112,436
1,74,0,4
1,79,0,632
1,79,93,60
1,79,0,12
1,79,100,52
1,79,0,92
1,79,100,84
1,79,0,60
1,79,91,88
1,76,93,332
1,79,0,64
1,76,0,480
1,73,82,112
1,78,87,160
1,73,0,36
1,78,0,476
1,78,66,132
1,78,0,940
1,76,89,16
1,76,0,204
1,76,98,36
1,76,0,116
1,76,96,32
1,73,72,308
1,76,0,32
1,70,74,708
1,73,0,24
1,74,89,152
1,70,0,24
1,74,0,876
1,74,55,112
1,74,0,112
1,69,107,960
1,76,105,324
1,69,0,52
1,77,105,312
1,76,0,56
1,79,113,24
1,77,0,12
1,81,98,8
1,79,0,60
1,81,0,1104
1,79,95,0
1,77,102,192
1,79,0,80
1,76,89,40
1,77,0,52
1,69,96,104
1,76,0,8
1,69,0,140
1,74,102,32
1,74,0,104
1,74,100,84
1,74,0,84
1,73,76,64
1,73,0,152
1,73,87,60
1,66,98,936
1,73,0,20
1,71,89,220
1,66,0,28
1,71,0,8
1,71,64,4
1,71,0,300
2,54,42,21588
2,54,0,220
2,54,47,100
2,54,0,304
2,54,40,68
2,54,0,480
2,54,40,64
2,54,0,216
2,54,45,76
2,54,0,176
2,54,49,128
2,54,0,528
2,54,32,84
2,54,0,1040
2,59,33,5764
2,59,0,52
2,59,40,76
2,59,0,264
2,59,39,108
2,59,0,204
2,59,58,84
2,59,0,228
2,59,57,36
2,59,0,204
2,59,44,84
2,59,0,168
2,59,33,128
2,59,0,488
2,59,62,668
2,59,0,192
2,59,70,36
2,59,0,152
2,59,72,40
2,59,0,56
2,59,75,80
2,59,0,56
2,59,80,108
2,61,86,436
2,59,0,12
2,61,0,100
2,61,49,96
2,61,0,620
2,59,52,2612
2,59,0,140
2,59,57,156
2,59,0,448
2,59,44,188
2,59,0,52
2,59,54,68
2,59,0,256
2,59,70,80
2,59,0,260
2,59,41,104
2,59,0,308
2,59,49,152
2,59,0,252
2,59,37,232
2,59,0,216
2,59,22,188
2,59,0,200
2,55,52,3340
2,55,0,124
2,55,47,204
2,55,0,40
2,55,68,68
2,55,0,28
2,55,80,92
2,55,0,44
2,55,80,44
2,55,70,132
2,55,0,20
2,55,0,560
2,55,44,44
2,55,0,48
2,54,53,7616
2,54,0,260
2,54,63,84
2,54,0,220
2,54,57,160
2,54,0,388
2,54,57,256
2,54,0,40
2,54,62,60
2,54,0,112
2,54,76,104
2,54,0,92
2,54,44,140
2,54,0,576
2,54,35,2004
2,61,48,708
2,54,0,80
2,62,54,656
2,61,0,56
2,64,52,708
2,62,0,32
2,66,48,848
2,64,0,28
2,64,57,1268
2,66,0,28
2,62,60,196
2,64,0,28
2,62,0,192
2,61,46,12
2,61,0,992
2,54,39,200
2,59,45,376
2,54,0,100
2,59,0,176
2,59,48,152
2,59,0,676
2,59,70,164
2,61,64,248
2,59,0,28
2,62,74,184
2,61,0,24
2,55,55,616
2,62,0,8
2,55,0,416
2,55,48,116
2,55,0,620
2,55,48,100
2,55,0,428
2,57,70,84
2,59,85,216
2,57,0,40
2,61,72,176
2,59,0,28
2,62,87,160
2,61,0,4
2,64,85,228
2,62,0,32
2,66,85,44
2,64,0,32
2,67,95,8
2,66,0,24
2,69,85,80
2,67,0,16
2,69,0,152
2,67,78,28
2,67,0,84
2,69,78,16
2,67,78,88
2,69,0,28
2,64,64,652
2,67,0,4
2,66,59,296
2,64,0,16
2,66,0,752
2,66,40,4
2,66,0,1164
2,54,68,740
2,61,68,96
2,54,0,28
2,62,91,196
2,61,0,28
2,64,89,632
2,62,0,16
2,66,82,240
2,64,0,16
2,66,0,208
2,64,88,0
2,62,89,216
2,64,0,4
2,62,0,180
2,61,85,68
2,62,80,56
2,61,0,4
2,61,87,56
2,62,0,16
2,61,0,900
2,54,80,8
2,59,95,232
2,54,0,52
2,59,0,312
2,59,98,116
2,59,0,592
2,59,110,100
2,59,0,84
2,61,98,0
2,62,107,28
2,61,0,28
2,67,112,436
2,62,0,4
2,67,0,632
2,67,93,60
2,67,0,12
2,67,100,52
2,67,0,92
2,67,100,84
2,67,0,60
2,67,91,88
2,64,93,332
2,67,0,64
2,64,0,480
2,61,82,112
2,66,87,160
2,61,0,36
2,66,0,476
2,66,66,132
2,66,0,940
2,64,89,16
2,64,0,204
2,64,98,36
2,64,0,116
2,64,96,32
2,61,72,308
2,64,0,32
2,58,74,708
2,61,0,24
2,62,89,152
2,58,0,24
2,62,0,876
2,62,55,112
2,62,0,112
2,57,107,960
2,64,105,324
2,57,0,52
2,65,105,312
2,64,0,56
2,67,113,24
2,65,0,12
2,69,98,8
2,67,0,60
2,69,0,1104
2,67,95,0
2,65,102,192
2,67,0,80
2,64,89,40
2,65,0,52
2,57,96,104
2,64,0,8
2,57,0,140
2,62,102,32
2,62,0,104
2,62,100,84
2,62,0,84
2,61,76,64
2,61,0,152
2,61,87,60
2,54,98,936
2,61,0,20
2,59,89,220
2,54,0,28
2,59,0,8
2,59,64,4
2,59,0,300
3,35,42,12
3,47,42,96
3,35,0,176
3,47,0,24
3,62,47,540
3,59,55,8
3,54,40,16
3,59,0,76
3,62,0,16
3,54,0,8
3,35,33,712
3,47,53,44
3,47,0,12
3,35,0,8
3,62,40,224
3,59,57,12
3,55,52,12
3,55,0,2280
3,59,0,8
3,62,0,28
3,59,53,28
3,61,44,4
3,59,0,80
3,61,0,12
3,59,44,200
3,61,33,4
3,61,0,312
3,59,0,0
3,35,33,588
3,47,32,68
3,35,0,168
3,47,0,12
3,54,35,484
3,59,49,8
3,62,30,8
3,59,0,540
3,62,0,16
3,54,0,20
3,54,28,376
3,59,41,12
3,62,28,12
3,62,0,756
3,59,0,0
3,54,0,8
3,54,25,428
3,59,34,8
3,62,19,8
3,54,0,812
3,59,0,8
3,62,0,4
3,54,46,228
3,54,0,212
3,35,30,664
3,47,47,60
3,35,0,144
3,47,0,8
3,54,38,684
3,59,52,4
3,62,38,12
3,54,0,76
3,59,0,8
3,62,0,4
3,59,62,432
3,54,51,0
3,62,49,4
3,59,0,4
3,62,0,4
3,54,0,4
3,59,49,0
3,62,33,8
3,54,48,4
3,59,0,20
3,62,0,4
3,54,0,4
3,35,63,264
3,47,66,52
3,35,0,8
3,47,0,12
3,62,74,332
3,59,54,4
3,62,0,8
3,59,0,4
3,62,70,32
3,59,53,4
3,59,0,184
3,62,0,0
3,62,56,544
3,59,39,4
3,62,0,12
3,59,0,4
3,33,85,4
3,45,82,4
3,33,0,4
3,45,0,8
3,57,82,440
3,61,72,8
3,57,0,144
3,61,0,36
3,57,48,356
3,61,52,8
3,57,0,20
3,61,0,32
3,57,44,116
3,61,45,4
3,57,0,160
3,61,0,4
3,31,66,540
3,43,64,36
3,31,0,4
3,43,0,4
3,55,64,360
3,59,66,12
3,59,0,48
3,55,0,24
3,59,60,464
3,55,68,20
3,55,0,48
3,59,0,0
3,61,80,264
3,61,0,152
3,62,60,268
3,55,60,24
3,59,59,0
3,59,0,12
3,55,0,12
3,62,0,24
3,37,68,28
3,37,0,148
3,59,60,492
3,55,52,16
3,55,0,8
3,59,0,8
3,59,38,296
3,55,43,16
3,59,0,116
3,55,0,16
3,30,55,224
3,42,48,32
3,30,0,4
3,42,0,8
3,54,46,364
3,58,57,4
3,58,0,300
3,54,0,0
3,28,63,440
3,40,56,4
3,28,0,100
3,40,0,44
3,62,57,4
3,58,58,4
3,55,48,4
3,55,0,12
3,58,0,0
3,62,0,4
3,58,45,0
3,62,46,4
3,55,36,4
3,55,0,4
3,58,0,8
3,62,0,4
3,62,36,28
3,58,40,4
3,55,48,0
3,58,0,4
3,62,0,4
3,55,0,12
3,57,105,124
3,45,98,12
3,33,91,4
3,57,0,62
3,45,0,16
3,33,0,4
3,57,80,578
3,57,0,340
3,57,86,1140
3,62,85,40
3,57,0,4
3,62,0,20
3,62,91,328
3,30,58,356
3,62,0,24
3,42,68,12
3,30,0,8
3,42,0,4
3,58,53,88
3,54,59,12
3,58,0,64
3,54,0,8
3,62,48,1420
3,35,52,12
3,35,0,88
3,62,0,240
3,54,30,240
3,59,52,4
3,62,39,16
3,54,0,516
3,62,0,20
3,59,0,16
3,59,29,428
3,54,41,4
3,62,28,8
3,54,0,708
3,62,0,4
3,59,0,0
3,54,26,372
3,59,40,4
3,62,24,24
3,54,0,552
3,59,0,32
3,62,0,24
3,54,35,540
3,61,24,792
3,62,40,136
3,61,0,16
3,62,0,268
3,54,0,224
3,62,53,1144
3,62,0,316
3,61,23,56
3,61,0,284
3,35,49,4
3,47,47,64
3,35,0,116
3,47,0,36
3,62,47,500
3,59,55,4
3,54,53,4
3,59,0,848
3,62,0,0
3,54,0,8
3,59,63,288
3,54,53,20
3,61,62,96
3,59,0,12
3,61,0,352
3,62,60,88
3,62,0,16
3,54,0,8
3,35,56,392
3,47,64,36
3,35,0,116
3,47,0,16
3,62,62,16
3,59,76,4
3,55,61,4
3,59,0,108
3,62,0,12
3,55,0,24
3,55,63,300
3,57,80,508
3,55,0,36
3,59,80,108
3,57,0,28
3,61,64,164
3,59,0,28
3,62,87,136
3,61,0,12
3,62,0,8
3,59,58,64
3,61,70,60
3,59,0,20
3,61,0,4
3,35,68,8
3,47,74,48
3,35,0,12
3,47,0,12
3,62,55,396
3,59,58,4
3,54,56,4
3,59,0,92
3,62,0,4
3,54,0,12
3,59,51,108
3,54,42,4
3,62,37,4
3,54,0,88
3,59,0,4
3,62,0,12
3,54,22,76
3,62,19,8
3,59,26,4
3,54,0,552
3,59,0,4
3,62,0,4
3,54,68,420
3,61,62,0
3,62,85,12
3,61,0,28
3,62,0,4
3,62,72,240
3,62,0,244
3,61,57,4
3,61,0,80
3,54,0,4
3,35,76,0
3,47,70,8
3,35,0,4
3,47,0,12
3,62,80,364
3,59,89,4
3,54,78,4
3,54,0,48
3,59,0,28
3,62,0,20
3,54,72,292
3,62,85,4
3,59,87,8
3,59,0,172
3,54,0,4
3,62,0,36
3,61,82,232
3,62,100,144
3,61,0,16
3,62,0,4
3,35,98,8
3,47,100,20
3,35,0,12
3,47,0,28
3,59,76,308
3,62,98,4
3,59,0,76
3,62,0,20
3,59,70,328
3,62,95,4
3,59,0,4
3,62,0,8
3,59,85,8
3,62,91,4
3,62,0,4
3,59,0,12
3,33,107,44
3,45,110,28
3,33,0,4
3,45,0,4
3,57,85,468
3,61,82,4
3,57,0,4
3,61,0,108
3,57,74,88
3,61,64,4
3,57,0,68
3,61,0,4
3,61,63,16
3,57,72,4
3,61,0,8
3,57,0,8
3,31,91,16
3,43,76,4
3,31,0,132
3,43,0,8
3,55,87,268
3,59,72,4
3,59,0,12
3,55,0,8
3,59,85,628
3,55,89,16
3,59,0,56
3,55,0,12
3,61,100,200
3,61,0,120
3,62,100,188
3,59,85,12
3,55,70,8
3,59,0,28
3,55,0,4
3,62,0,224
3,25,98,56
3,37,116,28
3,25,0,84
3,37,0,8
3,55,78,468
3,59,85,4
3,55,0,4
3,59,0,8
3,59,80,264
3,55,78,4
3,59,0,12
3,55,0,24
3,30,95,344
3,42,107,52
3,30,0,112
3,42,0,24
3,54,80,60
3,58,85,8
3,54,0,4
3,58,0,4
3,28,82,148
3,40,91,8
3,28,0,12
3,40,0,4
3,62,74,360
3,55,64,8
3,58,70,4
3,62,0,80
3,55,0,4
3,58,0,8
3,62,61,404
3,58,64,4
3,55,61,4
3,55,0,112
3,62,0,8
3,58,0,4
3,58,52,424
3,55,62,8
3,62,54,4
3,62,0,64
3,58,0,0
3,55,0,12
3,57,116,112
3,33,102,4
3,45,110,4
3,57,0,14
3,45,0,13
3,33,0,6
3,57,100,599
3,57,0,316
3,57,89,368
3,62,100,60
3,57,0,4
3,62,0,24
3,62,98,272
3,42,105,468
3,30,98,0
3,62,0,12
3,54,87,512
3,61,89,4
3,58,87,4
3,52,52,0
3,30,0,164
3,42,0,44
3,58,0,12
3,54,0,4
3,52,0,40
3,61,0,4
3,59,93,480
3,50,93,0
3,54,99,4
3,42,91,4
3,35,92,4
3,47,90,0
3,35,0,60
3,42,0,20
3,47,0,12
3,42,39,256
3,35,26,16
3,47,28,0
3,35,0,884
3,42,0,32
3,47,0,24
3,50,0,448
3,59,0,4
3,54,0,24
3,54,100,340
3,54,0,140
3,55,91,120
3,61,80,0
3,40,80,4
3,47,85,8
3,61,0,32
3,55,0,44
3,40,0,4
3,47,0,20
3,52,96,392
3,52,0,324
3,35,45,56
3,42,39,12
3,47,33,4
3,59,88,0
3,59,0,172
3,54,49,420
3,59,54,4
3,50,45,0
3,35,0,168
3,42,0,52
3,47,0,4
3,59,0,76
3,50,0,4
3,54,0,8
3,54,43,176
3,59,40,8
3,50,28,16
3,42,38,568
3,47,23,4
3,35,33,16
3,50,0,188
3,54,0,108
3,59,0,24
3,35,0,304
3,47,0,44
3,42,0,16
3,54,58,112
3,54,0,92
3,55,34,300
3,61,45,8
3,40,42,8
3,47,33,8
3,61,0,164
3,55,0,52
3,47,0,440
3,40,0,36
3,52,36,240
3,52,0,92
3,59,41,584
3,42,34,24
3,47,24,12
3,35,28,16
3,59,0,132
3,54,34,376
