track,note,velocity,time
0,45,72,630
0,57,57,112
0,45,0,73
0,45,65,13
0,57,0,7
0,55,72,3
0,55,0,61
0,45,0,1
0,54,65,2
0,52,81,3
0,52,0,62
0,50,81,3
0,50,0,50
0,52,80,3
0,52,0,63
0,50,85,3
0,50,0,25
0,45,75,3
0,54,0,65
0,45,0,1
0,53,55,2
0,52,89,1
0,52,0,67
0,50,86,3
0,50,0,56
0,52,72,3
0,52,0,66
0,50,91,3
0,50,0,18
0,45,74,3
0,53,0,56
0,52,72,3
0,69,57,137
0,69,0,53
0,69,70,18
0,57,42,112
0,69,0,14
0,57,0,34
0,52,0,13
0,55,65,3
0,57,61,13
0,72,63,133
0,57,0,35
0,45,0,1
0,62,108,20
0,55,0,8
0,72,0,2
0,26,82,1
0,38,77,0
0,38,69,0
0,49,55,0
0,54,81,0
0,57,56,0
0,66,65,0
0,66,69,1
0,49,0,3
0,62,89,1
0,74,114,1
0,38,0,83
0,38,0,1
0,45,66,4
0,45,71,2
0,57,0,17
0,66,0,0
0,45,0,23
0,45,0,2
0,54,0,0
0,57,58,4
0,62,0,0
0,62,59,1
0,54,79,1
0,54,72,0
0,66,57,1
0,57,0,151
0,62,0,2
0,66,0,5
0,62,0,3
0,57,57,13
0,62,66,0
0,66,63,0
0,62,0,79
0,74,0,6
0,64,85,2
0,57,0,83
0,64,0,0
0,66,0,0
0,66,95,18
0,57,59,4
0,62,61,1
0,66,61,0
0,66,0,82
0,57,91,12
0,57,0,43
0,59,97,6
0,57,0,30
0,66,0,2
0,62,0,1
0,54,0,1
0,54,0,0
0,26,0,8
0,66,0,1
0,59,60,3
0,59,83,0
0,66,58,0
0,35,72,1
0,23,87,1
0,35,82,0
0,62,62,1
0,35,0,57
0,35,0,1
0,42,67,5
0,42,78,1
0,59,0,19
0,66,0,2
0,59,0,1
0,62,0,0
0,42,0,19
0,42,0,1
0,66,58,5
0,50,76,1
0,59,57,0
0,59,83,0
0,62,61,0
0,50,70,2
0,59,0,78
0,59,0,85
0,59,0,3
0,66,0,0
0,62,0,1
0,50,0,11
0,62,54,12
0,66,54,0
0,59,53,1
0,59,76,0
0,52,71,1
0,59,0,164
0,62,0,3
0,59,0,6
0,66,0,0
0,52,0,5
0,62,54,10
0,59,57,1
0,50,66,1
0,59,75,1
0,66,58,0
0,57,80,90
0,62,0,27
0,59,0,3
0,66,0,1
0,59,0,44
0,57,0,8
0,50,0,4
0,50,0,0
0,23,0,8
0,38,77,4
0,62,66,0
0,66,57,1
0,69,65,0
0,26,81,1
0,38,82,0
0,62,91,0
0,62,55,1
0,38,0,87
0,38,0,2
0,62,0,5
0,45,69,1
0,45,69,1
0,64,88,1
0,66,0,62
0,62,0,2
0,69,0,0
0,64,0,14
0,66,97,9
0,45,0,1
0,45,0,1
0,62,57,3
0,54,76,2
0,54,74,0
0,57,55,0
0,66,57,0
0,66,0,79
0,57,88,4
0,62,0,70
0,57,0,1
0,66,0,4
0,62,0,5
0,57,0,10
0,62,96,13
0,62,66,4
0,57,61,1
0,66,61,1
0,57,83,2
0,62,0,81
0,64,88,3
0,57,0,81
0,57,0,2
0,66,0,1
0,62,0,2
0,64,0,8
0,66,88,9
0,62,56,1
0,66,62,0
0,57,76,1
0,57,51,1
0,66,0,90
0,57,85,3
0,57,0,71
0,66,0,9
0,57,0,1
0,62,0,0
0,54,0,4
0,54,0,0
0,26,0,8
0,61,83,4
0,62,57,1
0,23,86,1
0,35,75,0
0,35,73,1
0,61,57,0
0,66,60,0
0,57,0,2
0,61,97,9
0,35,0,26
0,35,0,1
0,42,64,3
0,42,74,2
0,61,0,35
0,62,0,1
0,66,0,4
0,61,0,1
0,42,0,15
0,42,0,2
0,61,0,1
0,66,60,3
0,59,52,1
0,59,82,0
0,62,60,0
0,50,73,1
0,50,73,0
0,59,84,5
0,59,0,119
0,66,0,0
0,62,0,1
0,59,0,6
0,59,57,16
0,59,77,1
0,62,56,1
0,66,58,0
0,62,0,105
0,59,0,3
0,59,0,2
0,66,0,1
0,23,0,11
0,50,0,3
0,59,53,1
0,59,0,0
0,33,79,2
0,45,79,0
0,62,58,0
0,45,82,1
0,66,58,0
0,59,68,1
0,59,0,118
0,62,0,0
0,66,0,2
0,45,0,54
0,50,0,2
0,33,0,8
0,45,0,0
0,59,0,2
0,59,80,2
0,31,82,2
0,43,76,0
0,67,63,0
0,71,57,0
0,64,60,1
0,43,69,1
0,64,89,3
0,67,0,81
0,64,0,1
0,71,0,1
0,59,0,10
0,67,66,17
0,59,82,1
0,64,61,0
0,59,61,2
0,59,0,87
0,31,0,2
0,43,0,0
0,59,0,0
0,43,0,2
0,57,55,3
0,42,79,1
0,30,78,0
0,42,68,1
0,57,80,0
0,64,0,57
0,67,0,2
0,64,0,23
0,57,0,3
0,57,0,6
0,30,0,1
0,42,0,0
0,42,0,1
0,59,54,1
0,67,62,0
0,28,74,1
0,40,71,0
0,59,82,0
0,64,66,1
0,40,69,1
0,66,89,85
0,59,0,82
0,67,0,0
0,66,0,1
0,59,0,5
0,64,0,0
0,67,89,13
0,59,57,2
0,59,68,1
0,64,64,1
0,67,58,0
0,67,0,83
0,59,88,12
0,59,0,43
0,64,88,6
0,59,0,28
0,67,0,3
0,64,0,1
0,28,0,2
0,40,0,0
0,40,0,2
0,59,0,8
0,36,69,2
0,64,60,0
0,67,62,0
0,71,56,0
0,24,77,2
0,36,78,0
0,59,78,0
0,36,0,8
0,36,0,2
0,43,71,6
0,43,70,1
0,64,0,62
0,67,0,0
0,71,0,1
0,59,0,14
0,43,0,11
0,43,0,1
0,52,66,3
0,59,79,0
0,64,62,0
0,59,55,1
0,52,71,1
0,67,65,0
0,64,0,80
0,59,0,6
0,59,0,3
0,57,61,5
0,57,75,0
0,64,0,59
0,67,0,5
0,57,0,23
0,57,0,4
0,59,59,5
0,64,62,1
0,67,59,2
0,59,80,1
0,66,84,85
0,59,0,81
0,66,0,2
0,67,0,1
0,64,0,2
0,59,0,4
0,67,94,11
0,59,53,3
0,59,72,0
0,67,61,0
0,64,64,1
0,67,0,83
0,59,83,12
0,59,0,43
0,64,92,6
0,59,0,29
0,67,0,1
0,52,0,2
0,64,0,0
0,52,0,2
0,24,0,8
0,59,0,2
0,37,69,3
0,25,79,1
0,37,81,0
0,59,77,0
0,61,61,1
0,67,55,0
0,71,56,0
0,37,0,57
0,37,0,1
0,43,69,4
0,43,74,2
0,61,0,34
0,67,0,0
0,71,0,2
0,59,0,11
0,43,0,9
0,43,0,2
0,59,78,4
0,49,73,2
0,59,57,0
0,49,67,1
0,64,59,0
0,67,59,0
0,64,0,79
0,59,0,7
0,59,0,2
0,57,59,5
0,57,81,0
0,64,0,62
0,67,0,3
0,57,0,22
0,57,0,4
0,64,63,5
0,67,61,1
0,57,53,2
0,57,77,0
0,57,0,74
0,64,89,11
0,57,69,8
0,61,73,2
0,67,0,73
0,64,0,3
0,57,0,4
0,64,0,4
0,57,0,7
0,61,0,2
0,66,92,0
0,57,77,1
0,59,67,1
0,57,66,2
0,62,82,0
0,66,0,89
0,57,0,1
0,59,0,1
0,67,84,1
0,62,0,1
0,61,64,2
0,64,68,0
0,57,71,1
0,49,0,81
0,49,0,1
0,25,0,7
0,61,0,3
0,64,0,0
0,38,71,1
0,57,0,0
0,57,0,0
0,55,59,1
0,59,55,0
0,26,80,1
0,38,83,0
0,50,54,1
0,64,77,0
0,59,79,1
0,67,0,1
0,67,93,9
0,50,0,28
0,59,0,0
0,55,0,1
0,50,57,2
0,59,62,0
0,55,51,1
0,59,0,71
0,38,0,14
0,38,0,2
0,50,0,5
0,55,0,0
0,59,0,0
0,50,58,2
0,55,56,0
0,59,76,1
0,38,75,1
0,59,57,0
0,38,71,2
0,59,0,29
0,59,54,2
0,59,0,69
0,38,0,19
0,38,0,2
0,50,0,2
0,67,0,0
0,59,0,1
0,64,0,2
0,54,54,1
0,38,80,1
0,38,76,0
0,50,62,0
0,57,79,0
0,57,58,1
0,62,80,0
0,66,92,4
0,57,0,70
0,50,0,18
0,54,0,0
0,57,55,1
0,50,54,2
0,54,52,0
0,57,0,37
0,38,0,18
0,38,0,0
0,57,0,4
0,54,0,1
0,50,0,1
0,50,57,2
0,54,59,0
0,38,80,1
0,38,67,0
0,57,60,0
0,57,80,1
0,57,0,92
0,57,55,4
0,57,0,38
0,26,0,17
0,38,0,0
0,38,0,0
0,50,0,5
0,54,0,0
0,57,0,2
0,62,0,0
0,66,0,0
0,31,86,2
0,43,87,0
0,59,70,0
0,43,67,2
0,67,102,0
0,67,0,47
0,66,96,13
0,47,35,22
0,66,0,6
0,47,62,3
0,64,95,3
0,64,0,26
0,62,102,18
0,62,0,32
0,50,57,6
0,50,77,3
0,59,96,3
0,59,0,54
0,62,98,3
0,54,47,27
0,54,61,3
0,62,0,4
0,64,94,6
0,64,0,35
0,66,97,10
0,66,0,27
0,67,90,15
0,55,0,4
0,55,69,1
0,55,48,2
0,54,0,4
0,54,0,0
0,55,65,5
0,62,68,0
0,67,0,39
0,66,102,6
0,50,0,14
0,66,0,23
0,64,94,11
0,47,0,14
0,64,0,28
0,62,101,8
0,62,0,28
0,62,106,17
0,62,0,76
0,59,96,13
0,55,0,20
0,50,0,14
0,47,0,1
0,43,0,1
0,55,0,0
0,59,0,36
0,57,102,13
0,38,59,4
0,31,0,5
0,38,89,4
0,43,0,5
0,55,0,1
0,59,0,0
0,62,0,0
0,38,87,2
0,26,91,1
0,54,65,0
0,57,71,0
0,62,70,0
0,57,0,69
0,66,99,3
0,38,0,2
0,45,72,3
0,45,68,7
0,66,0,75
0,45,0,14
0,66,94,1
0,54,58,2
0,54,69,3
0,54,0,4
0,57,69,3
0,57,66,0
0,57,0,91
0,57,73,1
0,64,68,6
0,57,0,2
0,64,77,4
0,64,88,17
0,62,83,15
0,64,0,3
0,66,76,1
0,66,82,2
0,64,0,13
0,66,0,5
0,54,0,6
0,64,0,0
0,66,73,3
0,62,0,124
0,66,0,6
0,57,0,21
0,66,0,2
0,54,0,10
0,45,0,24
0,26,0,2
0,38,0,0
0,57,0,0
0,62,0,0
0,66,0,0
0,33,86,3
0,33,87,0
0,55,77,0
0,60,74,0
0,64,73,0
0,38,0,1
0,45,69,1
0,64,97,0
0,64,0,47
0,62,99,13
0,62,0,28
0,52,62,3
0,60,95,3
0,60,0,26
0,59,96,18
0,59,0,32
0,60,76,9
0,57,100,3
0,57,0,54
0,59,94,3
0,59,0,34
0,60,97,6
0,60,0,35
0,62,92,10
0,62,0,27
0,52,0,7
0,60,0,0
0,45,0,1
0,64,96,7
0,33,0,13
0,33,0,0
0,55,0,0
0,38,87,3
0,38,88,0
0,54,90,0
0,38,68,2
0,54,61,0
0,60,64,0
0,64,0,37
0,62,95,6
0,62,0,37
0,60,96,11
0,60,0,42
0,59,102,8
0,38,0,26
0,54,0,0
0,60,0,0
0,59,0,2
0,57,105,13
0,38,0,4
0,38,0,1
0,54,0,0
0,60,0,0
0,64,0,0
0,43,81,2
0,31,84,1
0,53,85,0
0,59,73,0
0,62,84,0
0,43,63,2
0,53,68,0
0,59,69,0
0,57,0,44
0,59,94,3
0,59,0,34
0,60,100,6
0,60,0,35
0,62,93,10
0,62,0,27
0,43,0,8
0,53,0,0
0,59,0,0
0,31,0,20
0,53,0,0
0,59,0,0
0,62,0,0
0,43,0,2
0,62,98,0
0,36,83,1
0,52,68,0
0,55,66,0
0,36,66,2
0,36,81,0
0,64,98,85
0,62,0,3
0,43,61,3
0,64,0,81
0,52,74,7
0,64,96,9
0,43,0,104
0,52,0,0
0,36,0,1
0,36,0,11
0,36,0,9
0,52,0,0
0,55,0,0
0,36,81,0
0,36,88,0
0,52,64,0
0,55,66,0
0,60,68,0
0,36,61,2
0,43,66,0
0,52,67,0
0,64,0,71
0,76,67,22
0,64,69,1
0,76,58,0
0,64,106,8
0,36,0,65
0,43,0,0
0,52,0,0
0,76,0,19
0,36,0,1
0,64,0,0
0,76,0,0
0,36,0,2
0,78,75,0
0,36,85,1
0,66,75,0
0,78,75,0
0,64,0,1
0,36,68,1
0,36,84,0
0,42,68,0
0,52,60,0
0,66,113,7
0,42,0,64
0,66,0,17
0,66,0,1
0,78,0,2
0,67,81,1
0,78,0,0
0,79,77,2
0,79,80,1
0,43,67,1
0,67,103,2
0,36,0,69
0,43,0,0
0,52,0,0
0,52,0,8
0,55,0,0
0,60,0,0
0,67,0,10
0,36,0,2
0,36,0,0
0,79,0,0
0,66,82,1
0,79,0,0
0,40,84,2
0,40,88,0
0,55,84,0
0,59,77,0
0,64,68,0
0,78,83,0
0,78,83,1
0,40,69,1
0,52,72,0
0,55,69,0
0,67,0,2
0,66,113,5
0,78,0,12
0,66,0,1
0,78,0,0
0,79,80,2
0,67,68,1
0,79,78,0
0,66,0,11
0,67,95,6
0,79,0,27
0,67,0,1
0,79,0,0
0,78,80,2
0,66,72,1
0,78,76,0
0,67,0,9
0,66,110,3
0,40,0,52
0,40,0,10
0,40,87,2
0,40,88,1
0,40,0,72
0,52,0,0
0,55,0,0
0,40,0,13
0,40,0,0
0,38,91,3
0,38,87,0
0,38,76,2
0,52,72,0
0,55,72,0
0,66,0,35
0,66,0,8
0,78,0,1
0,78,0,1
0,67,90,1
0,79,101,1
0,79,94,1
0,67,98,3
0,38,0,70
0,52,0,0
0,55,0,0
0,67,0,10
0,38,0,8
0,67,0,0
0,79,0,0
0,69,118,1
0,38,0,1
0,79,0,0
0,38,92,1
0,69,89,0
0,81,92,0
0,38,80,2
0,81,87,0
0,38,74,2
0,52,74,0
0,55,77,0
0,69,0,80
0,69,0,9
0,71,106,0
0,81,0,2
0,81,0,0
0,71,92,1
0,83,97,2
0,83,102,0
0,38,0,73
0,52,0,0
0,55,0,0
0,83,0,19
0,38,0,1
0,55,0,0
0,59,0,0
0,64,0,0
0,71,0,0
0,83,0,0
0,71,0,1
0,38,0,1
0,81,109,0
0,37,87,1
0,57,97,0
0,61,93,0
0,64,94,0
0,73,96,0
0,81,98,0
0,69,99,1
0,37,83,1
0,37,95,0
0,49,80,0
0,52,80,0
0,57,75,0
0,69,110,2
0,69,0,116
0,81,0,7
0,69,0,2
0,81,0,0
0,83,101,1
0,71,107,0
0,71,99,0
0,83,88,0
0,83,0,45
0,71,0,1
0,83,0,0
0,71,0,1
0,81,99,1
0,69,103,1
0,81,104,0
0,69,111,3
0,37,0,52
0,37,0,8
0,37,96,3
0,37,84,1
0,37,0,41
0,49,0,0
0,52,0,0
0,57,0,0
0,81,0,19
0,37,0,1
0,37,0,0
0,57,0,0
0,61,0,0
0,64,0,0
0,69,0,0
0,73,0,0
0,81,0,0
0,81,107,2
0,35,103,1
0,35,87,0
0,59,114,0
0,64,101,0
0,69,94,0
0,74,97,0
0,81,103,0
0,35,89,2
0,50,85,0
0,55,80,0
0,35,0,25
0,50,0,0
0,55,0,0
0,69,0,11
0,81,0,0
0,35,0,2
0,35,0,0
0,59,0,0
0,64,0,0
0,74,0,0
0,81,0,0
0,69,98,1
0,81,102,0
0,33,105,2
0,33,88,0
0,57,110,0
0,61,104,0
0,64,103,0
0,76,104,0
0,81,115,0
0,33,92,2
0,49,86,0
0,55,92,0
0,69,0,39
0,69,112,28
0,62,87,18
0,62,0,9
0,64,18,3
0,64,0,12
0,66,53,3
0,66,0,5
0,67,80,3
0,67,0,6
0,69,85,1
0,69,0,5
0,33,0,3
0,49,0,0
0,55,0,0
0,71,78,0
0,71,0,7
0,69,0,1
0,73,84,2
0,69,0,8
0,73,0,0
0,81,0,0
0,33,0,2
0,33,0,0
0,57,0,0
0,61,0,0
0,64,0,0
0,76,0,0
0,81,0,0
0,74,78,1
0,26,88,2
0,26,91,0
0,38,79,0
0,38,99,0
0,49,55,0
0,54,100,0
0,57,71,0
0,62,94,0
0,66,72,0
0,74,98,0
0,86,93,0
0,66,92,1
0,62,90,1
0,49,0,2
0,74,118,1
0,74,107,1
0,38,0,81
