track,note,velocity,time
5,60,105,4971
5,57,105,72
5,60,0,8
5,62,105,57
5,57,0,4
5,62,0,181
5,60,105,8
5,60,0,442
5,60,105,2609
5,57,105,80
5,60,0,3
5,57,0,87
5,62,105,0
5,60,105,131
5,62,0,2
5,57,105,156
5,60,0,2
5,53,105,160
5,57,0,3
5,53,0,664
5,53,105,918
5,52,105,162
5,53,0,1
5,50,105,157
5,52,0,2
5,58,105,486
5,50,0,16
5,58,0,548
5,58,105,67
5,58,0,150
5,58,105,25
5,58,0,143
5,58,105,30
5,58,0,128
5,58,105,25
5,58,0,140
5,57,105,17
5,57,0,145
5,55,105,21
5,55,0,790
5,60,105,922
5,57,105,70
5,60,0,8
5,62,105,85
5,57,0,1
5,62,0,183
5,60,105,10
5,60,0,428
5,60,105,695
5,57,105,77
5,60,0,10
5,62,105,78
5,57,0,2
5,62,0,145
5,60,105,1
5,60,0,165
5,57,105,0
5,57,0,164
5,53,105,5
5,53,0,685
5,53,105,898
5,52,105,160
5,53,0,10
5,52,0,149
5,50,105,3
5,58,105,480
5,50,0,15
5,58,0,562
5,58,105,79
5,58,0,131
5,58,105,31
5,58,0,123
5,58,105,26
5,58,0,125
5,58,105,39
5,57,105,151
5,58,0,9
5,55,105,156
5,57,0,11
5,60,105,472
5,55,0,7
5,60,0,581
5,60,105,64
5,60,0,125
5,60,105,33
5,60,0,121
5,60,105,39
5,60,0,116
5,60,105,36
5,58,105,128
5,60,0,11
5,57,105,165
5,58,0,7
5,62,105,485
5,57,0,15
5,62,0,588
5,62,105,47
5,62,0,117
5,62,105,40
5,62,0,103
5,62,105,49
5,62,0,113
5,62,105,36
5,60,105,144
5,62,0,5
5,58,105,170
5,60,0,12
5,58,0,503
5,67,105,0
5,65,105,595
5,67,0,7
5,64,105,100
5,65,0,16
5,62,105,88
5,64,0,20
5,62,0,82
5,60,105,3
5,58,105,104
5,60,0,21
5,57,105,95
5,58,0,20
5,55,105,90
5,57,0,7
5,57,105,139
5,55,0,6
5,57,0,385
5,65,105,125
5,64,105,708
5,65,0,4
5,62,105,96
5,64,0,16
5,64,105,101
5,62,0,18
5,65,105,229
5,64,0,8
5,65,0,234
5,65,105,40
5,65,0,193
5,53,105,9
5,53,0,236
5,62,105,4
5,60,105,696
5,62,0,10
5,58,105,97
5,60,0,15
5,60,105,93
5,58,0,14
5,62,105,221
5,60,0,22
5,62,0,207
5,62,105,40
5,62,0,125
5,50,105,9
5,58,105,262
5,50,0,5
5,58,0,45
5,58,105,39
5,58,0,121
5,58,105,30
5,58,0,112
5,58,105,30
5,58,0,120
5,58,105,35
5,57,105,153
5,58,0,5
5,57,0,170
5,55,105,0
5,55,0,935
5,60,105,91
5,57,105,73
5,60,0,1
5,57,0,82
5,62,105,10
5,62,0,160
5,60,105,10
5,60,0,315
5,60,105,2713
5,57,105,77
5,60,0,3
5,62,105,82
5,57,0,10
5,60,105,137
5,62,0,2
5,60,0,153
5,57,105,0
5,53,105,168
5,57,0,4
5,53,0,405
5,53,105,1193
5,53,0,155
5,52,105,8
5,52,0,154
5,50,105,8
5,58,105,475
5,50,0,2
5,58,0,511
5,58,105,129
5,58,0,125
5,58,105,29
5,58,0,131
5,58,105,36
5,58,0,133
5,58,105,37
5,58,0,138
5,57,105,6
5,57,0,158
5,55,105,12
5,55,0,723
5,60,105,1048
5,60,0,79
5,57,105,8
5,57,0,86
5,62,105,11
5,62,0,160
5,60,105,15
5,60,0,425
5,60,105,626
5,60,0,75
5,57,105,9
5,62,105,89
5,57,0,11
5,60,105,161
5,62,0,12
5,60,0,133
5,57,105,5
5,53,105,157
5,57,0,1
5,53,0,590
5,53,105,1019
5,52,105,150
5,53,0,6
5,52,0,159
5,50,105,1
5,58,105,467
5,50,0,7
5,58,0,531
5,58,105,101
5,58,0,150
5,58,105,33
5,58,0,125
5,58,105,36
5,58,0,120
5,58,105,34
5,57,105,127
5,58,0,1
5,57,0,159
5,55,105,1
5,60,105,494
5,55,0,9
5,60,0,569
5,60,105,72
5,60,0,125
5,60,105,29
5,60,0,119
5,60,105,38
5,60,0,124
5,60,105,38
5,58,105,135
5,60,0,2
5,58,0,193
5,57,105,1
5,62,105,479
5,57,0,6
5,62,0,564
5,62,105,92
5,62,0,124
5,62,105,39
5,62,0,93
5,62,105,50
5,62,0,105
5,62,105,47
5,60,105,150
5,62,0,10
5,60,0,172
5,58,105,8
5,58,0,475
5,67,105,6
5,65,105,621
5,67,0,4
5,64,105,105
5,65,0,17
5,62,105,78
5,64,0,20
5,60,105,87
5,62,0,3
5,58,105,107
5,60,0,18
5,57,105,87
5,58,0,10
5,57,0,100
5,55,105,0
5,57,105,139
5,55,0,6
5,57,0,414
5,65,105,69
5,64,105,764
5,65,0,1
5,62,105,94
5,64,0,8
5,64,105,100
5,62,0,10
5,65,105,217
5,64,0,8
5,65,0,213
5,65,105,44
5,65,0,210
5,53,105,5
5,53,0,259
5,62,105,2
5,60,105,758
5,62,0,1
5,58,105,82
5,60,0,8
5,60,105,102
5,58,0,2
5,62,105,223
5,60,0,22
5,62,0,207
5,62,105,49
5,50,105,229
5,62,0,11
5,58,105,255
5,50,0,4
5,58,0,26
5,58,105,55
5,58,0,110
5,58,105,33
5,58,0,110
5,58,105,28
5,58,0,123
5,58,105,35
5,57,105,156
5,58,0,5
5,55,105,160
5,57,0,1
5,55,0,769
5,53,105,1333
5,53,0,105
5,53,105,45
5,53,0,108
5,53,105,45
5,53,0,112
5,53,105,47
5,53,0,126
5,55,105,19
5,55,0,135
5,55,105,44
5,55,0,352
5,55,105,779
5,55,0,111
5,55,105,44
5,55,0,96
5,55,105,44
5,55,0,109
5,55,105,46
5,55,0,144
5,57,105,11
5,57,0,143
5,57,105,41
5,57,0,317
5,53,105,790
5,53,0,119
5,53,105,44
5,53,0,102
5,53,105,44
5,53,0,100
5,53,105,53
5,53,0,151
5,55,105,10
5,55,0,130
5,55,105,42
5,55,0,119
5,55,105,50
5,55,0,95
5,55,105,48
5,55,0,101
5,55,105,60
5,55,0,127
5,55,105,44
5,55,0,133
5,57,105,6
5,57,0,121
5,57,105,51
5,57,0,143
5,57,105,39
5,57,0,105
5,57,105,40
5,57,0,106
5,57,105,52
5,57,0,118
5,57,105,51
5,58,105,168
5,57,0,1
5,58,0,104
5,58,105,46
5,58,0,312
5,52,105,685
5,53,105,242
5,52,0,2
5,65,105,191
5,53,0,15
5,64,105,214
5,65,0,6
5,64,0,229
5,53,105,8
5,55,105,235
5,53,0,6
5,65,105,224
5,55,0,16
5,64,105,214
5,65,0,12
5,55,105,243
5,64,0,3
5,57,105,239
5,55,0,11
5,67,105,235
5,57,0,25
5,65,105,205
5,67,0,5
5,57,105,249
5,65,0,14
5,59,105,246
5,57,0,4
5,59,0,220
5,69,105,4
5,67,105,253
5,69,0,9
5,67,0,40
5,67,105,73
5,67,0,934
5,64,105,190
5,64,0,101
5,64,105,37
5,64,0,68
5,64,105,39
5,64,0,101
5,62,105,19
5,60,105,210
5,62,0,6
5,60,0,215
5,65,105,9
5,65,0,556
5,62,105,556
5,62,0,106
5,62,105,38
5,62,0,79
5,62,105,30
5,62,0,102
5,60,105,19
5,60,0,211
5,59,105,6
5,59,0,205
5,64,105,3
5,64,0,515
5,60,105,614
5,60,0,88
5,60,105,40
5,60,0,75
5,60,105,34
5,60,0,70
5,60,105,40
5,60,0,139
5,59,105,6
5,59,0,135
5,57,105,10
5,57,0,139
5,62,105,17
5,62,0,143
5,62,105,44
5,62,0,97
5,62,105,34
5,62,0,95
5,62,105,49
5,62,0,131
5,62,105,46
5,62,0,105
5,62,105,41
5,62,0,104
5,62,105,46
5,62,0,118
5,62,105,56
5,62,0,108
5,62,105,32
5,62,0,119
5,62,105,49
5,59,105,180
5,62,0,7
5,59,0,154
5,56,105,0
5,56,0,154
5,55,105,26
5,55,0,369
5,60,105,88
5,53,105,487
5,60,0,3
5,59,105,490
5,53,0,12
5,52,105,441
5,59,0,1
5,57,105,490
5,52,0,9
5,50,105,457
5,57,0,8
5,56,105,477
5,50,0,8
5,56,0,57
5,48,105,6
5,48,0,1429
5,49,105,0
5,49,0,1000
5,50,105,2
5,50,0,909
5,65,105,1797
5,64,105,726
5,65,0,10
5,62,105,93
5,64,0,9
5,62,0,101
5,64,105,7
5,65,105,255
5,64,0,12
5,65,0,205
5,65,105,45
5,53,105,232
5,65,0,11
5,53,0,228
5,62,105,10
5,60,105,736
5,62,0,8
5,58,105,68
5,60,0,4
5,60,105,105
5,58,0,5
5,60,0,234
5,62,105,9
5,62,0,203
5,62,105,57
5,50,105,250
5,62,0,15
5,58,105,235
5,50,0,2
5,58,0,113
5,58,105,45
5,58,0,125
5,58,105,36
5,58,0,119
5,58,105,33
5,58,0,130
5,58,105,39
5,58,0,150
5,57,105,5
5,57,0,151
5,55,105,23
5,55,0,762
5,57,105,330
5,57,0,110
5,57,105,48
5,57,0,104
5,57,105,50
5,57,0,97
5,57,105,61
5,55,105,160
5,57,0,7
5,55,0,167
5,53,105,3
5,53,0,400
5,60,105,370
5,57,105,80
5,60,0,3
5,62,105,90
5,57,0,5
5,62,0,140
5,60,105,8
5,60,0,297
5,60,105,757
5,60,0,76
5,57,105,2
5,62,105,100
5,57,0,3
5,62,0,157
5,60,105,4
5,60,0,164
5,57,105,1
5,53,105,183
5,57,0,10
5,53,0,427
5,53,105,1638
5,52,105,161
5,53,0,1
5,52,0,179
5,50,105,1
5,58,105,463
5,50,0,1
5,58,0,394
5,58,105,236
5,58,0,81
5,58,105,34
5,58,0,79
5,58,105,36
5,58,0,80
5,58,105,46
5,58,0,180
5,57,105,3
5,55,105,212
5,57,0,6
5,55,0,642
5,57,105,533
5,57,0,132
5,57,105,41
5,57,0,120
5,57,105,62
5,57,0,144
5,57,105,38
5,57,0,148
5,55,105,5
5,55,0,180
5,65,105,3
5,65,0,1870
6,64,61,20265
6,65,61,480
6,65,0,480
6,67,62,0
6,67,0,462
6,64,0,18
6,62,58,0
6,65,58,0
6,69,58,0
6,69,0,936
6,67,59,24
6,69,58,480
6,67,0,58
6,65,0,413
6,62,0,1
6,62,61,8
6,65,61,0
6,70,61,0
6,69,0,50
6,60,65,910
6,64,65,0
6,69,65,0
6,62,0,23
6,70,0,4
6,65,0,1
6,70,64,452
6,69,0,32
6,70,0,426
6,60,0,8
6,64,0,12
6,60,70,2
6,65,70,0
6,69,70,0
6,72,72,480
6,69,0,15
6,62,70,465
6,70,70,0
6,72,0,5
6,60,0,13
6,65,0,345
6,62,0,82
6,67,66,35
6,76,66,0
6,69,69,480
6,72,69,0
6,77,69,0
6,70,0,13
6,67,0,14
6,76,0,15
6,69,0,435
6,62,67,3
6,65,67,0
6,69,67,0
6,72,0,41
6,77,0,0
6,65,0,431
6,58,64,8
6,67,64,0
6,69,0,2
6,62,0,469
6,64,64,9
6,72,64,0
6,58,0,10
6,69,48,470
6,65,58,0
6,74,58,0
6,67,0,8
6,72,0,5
6,64,0,4
6,65,0,398
6,74,0,51
6,69,0,5
6,62,58,9
6,65,58,0
6,58,58,0
6,58,0,412
6,62,0,0
6,65,0,1
6,58,52,547
6,65,52,0
6,62,52,0
6,65,0,451
6,58,0,14
6,62,0,12
6,55,45,3
6,64,45,0
6,60,45,0
6,64,0,1091
6,55,0,5
6,60,0,7
6,62,64,7057
6,64,60,480
6,65,67,480
6,64,0,11
6,60,66,469
6,64,66,0
6,58,66,0
6,65,0,10
6,62,0,5
6,55,97,465
6,65,70,480
6,57,92,0
6,64,0,25
6,55,0,12
6,67,67,443
6,65,0,30
6,57,0,18
6,58,0,419
6,60,0,26
6,67,0,4
6,79,65,463
6,79,0,271
6,77,68,689
6,77,0,283
6,79,65,677
6,79,0,271
6,77,68,209
6,77,0,283
6,74,54,1157
6,76,58,480
6,76,0,477
6,77,61,3
6,77,0,477
6,76,58,3
6,74,0,475
6,72,64,5
6,77,64,480
6,76,0,45
6,79,64,435
6,77,0,20
6,77,64,460
6,74,64,0
6,72,0,6
6,79,0,11
6,79,64,943
6,77,0,21
6,81,66,459
6,79,0,25
6,79,67,455
6,81,0,25
6,81,64,935
6,76,64,0
6,74,0,12
6,79,0,4
6,82,64,464
6,81,0,30
6,72,70,450
6,77,70,0
6,69,70,0
6,82,0,18
6,76,0,4
6,69,0,430
6,72,0,5
6,77,0,23
6,65,67,0
6,69,67,0
6,72,67,0
6,69,0,452
6,65,0,0
6,67,67,28
6,62,70,0
6,70,70,0
6,72,0,5
6,62,0,440
6,67,0,7
6,70,0,28
6,82,70,0
6,67,66,0
6,76,66,0
6,82,0,480
6,81,69,0
6,72,69,0
6,77,69,0
6,67,0,27
6,76,0,15
6,81,0,435
6,62,70,3
6,65,70,0
6,69,70,0
6,72,0,41
6,77,0,0
6,65,0,431
6,58,72,8
6,67,72,0
6,69,0,2
6,62,0,469
6,64,70,9
6,72,70,0
6,58,0,10
6,69,64,470
6,65,64,0
6,74,64,0
6,67,0,8
6,72,0,5
6,64,0,4
6,65,0,398
6,74,0,51
6,69,0,5
6,62,58,9
6,65,58,0
6,58,58,0
6,58,0,412
6,62,0,0
6,65,0,1
6,58,52,547
6,65,52,0
6,62,52,0
6,65,0,451
6,58,0,14
6,62,0,12
6,55,45,3
6,64,45,0
6,60,45,0
6,64,0,1091
6,55,0,5
6,60,0,7
6,64,58,8497
6,65,64,160
6,64,0,86
6,65,0,566
6,65,77,148
6,62,77,0
6,64,69,160
6,67,69,0
6,65,0,80
6,62,0,8
6,64,0,589
6,67,0,4
6,67,82,119
6,64,82,0
6,65,77,160
6,69,77,0
6,67,0,83
6,64,0,8
6,65,0,580
6,69,0,6
6,69,87,123
6,65,87,0
6,67,79,160
6,71,79,0
6,69,0,57
6,65,0,3
6,67,0,711
6,71,0,1
6,60,79,508
6,72,79,0
6,84,79,0
6,72,0,502
6,60,0,0
6,84,0,8
6,84,79,450
6,60,79,0
6,72,79,0
6,72,0,902
6,60,0,31
6,69,76,27
6,57,76,0
6,81,76,0
6,84,0,20
6,71,79,460
6,59,79,0
6,83,79,0
6,81,0,90
6,69,0,15
6,57,0,15
6,71,0,200
6,59,0,0
6,83,0,0
6,59,80,160
6,71,80,0
6,83,80,0
6,59,0,912
6,83,0,40
6,68,77,8
6,56,77,0
6,80,77,0
6,71,0,1
6,57,80,479
6,69,80,0
6,81,80,0
6,68,0,90
6,80,0,15
6,56,0,0
6,57,0,306
6,69,0,5
6,81,0,6
6,57,80,58
6,69,80,0
6,81,80,0
6,57,0,880
6,69,0,21
6,81,0,6
6,57,79,53
6,69,79,0
6,81,79,0
6,57,0,430
6,56,75,50
6,80,75,0
6,68,75,0
6,69,0,45
6,81,0,10
6,68,0,361
6,56,0,10
6,80,0,1
6,68,70,53
6,56,70,0
6,80,70,0
6,56,0,452
6,68,0,11
6,55,64,17
6,67,64,0
6,79,64,0
6,80,0,10
6,55,0,350
6,67,0,0
6,79,0,15
6,72,73,105
6,71,70,960
6,72,0,12
6,69,69,948
6,71,0,22
6,68,64,938
6,69,0,10
6,68,0,487
6,65,75,943
6,61,72,480
6,65,0,780
6,64,83,20
6,61,0,467
6,62,86,13
6,58,86,0
6,64,0,16
6,67,83,624
6,70,83,0
6,58,0,37
6,67,0,413
6,70,0,10
6,67,88,20
6,70,88,0
6,62,0,16
6,67,0,270
6,70,0,12
6,65,92,22
6,69,92,0
6,64,92,480
6,67,92,0
6,69,0,17
6,65,0,1
6,64,0,459
6,72,94,3
6,72,0,130
6,69,94,30
6,72,94,0
6,67,0,20
6,67,94,780
6,70,94,0
6,69,0,10
6,72,0,10
6,69,94,140
6,60,80,0
6,65,80,0
6,67,0,12
6,70,0,16
6,69,0,444
6,77,82,8
6,72,82,0
6,62,80,480
6,70,80,0
6,72,0,5
6,60,0,13
6,62,0,427
6,65,0,35
6,77,0,0
6,67,76,0
6,76,76,0
6,76,0,480
6,69,79,0
6,72,79,0
6,77,79,0
6,70,0,13
6,67,0,14
6,69,0,450
