track,note,velocity,time
0,57,31,0
0,38,57,0
0,50,57,0
0,62,59,0
0,66,88,279
0,57,61,10
0,66,62,10
0,64,56,3
0,62,50,2
0,55,73,18
0,54,65,103
0,66,68,25
0,67,74,18
0,69,70,30
0,71,68,213
0,73,56,5
0,74,70,25
0,57,65,217
0,26,65,0
0,66,74,22
0,55,73,2
0,54,97,25
0,66,68,60
0,67,68,25
0,69,82,40
0,71,86,37
0,73,88,28
0,74,78,30
0,42,55,185
0,59,79,0
0,64,77,0
0,59,61,0
0,64,61,2
0,42,61,3
0,64,91,18
0,59,91,0
0,42,75,0
0,78,80,10
0,76,64,0
0,74,60,120
0,73,80,10
0,64,99,178
0,58,77,175
0,58,61,8
0,58,97,25
0,76,70,83
0,78,56,25
0,76,74,40
0,74,60,10
0,73,74,27
0,66,74,23
0,61,79,55
0,62,67,52
0,59,67,0
0,47,61,5
0,62,61,0
0,59,61,0
0,74,86,18
0,35,97,0
0,59,95,0
0,62,99,0
0,54,97,5
0,61,59,5
0,45,57,10
0,61,61,0
0,57,61,7
0,33,97,5
0,61,89,0
0,62,65,60
0,44,43,5
0,56,61,2
0,59,61,8
0,54,83,0
0,59,95,0
0,32,85,0
0,74,70,5
0,73,62,17
0,76,74,0
0,74,78,20
0,73,68,10
0,74,74,22
0,57,61,3
0,54,61,5
0,57,73,10
0,42,51,0
0,42,43,0
0,57,69,0
0,62,69,0
0,69,78,0
0,74,93,5
0,81,89,0
0,57,107,0
0,62,107,0
0,47,67,205
0,47,73,13
0,62,91,0
0,57,83,0
0,62,74,7
0,62,79,100
0,57,77,0
0,69,70,0
0,71,70,20
0,64,61,8
0,50,61,3
0,45,65,5
0,57,67,8
0,62,69,0
0,45,61,0
0,69,74,7
0,76,37,5
0,52,85,20
0,47,55,0
0,55,69,2
0,55,61,0
0,47,61,0
0,62,61,0
0,74,71,12
0,47,107,3
0,35,99,0
0,62,107,0
0,55,107,0
0,64,77,8
0,57,59,2
0,49,51,3
0,57,61,10
0,49,61,0
0,64,61,5
0,76,85,2
0,49,97,0
0,37,105,0
0,64,107,0
0,57,107,0
0,67,96,0
0,62,67,0
0,55,69,5
0,50,67,0
0,79,67,17
0,74,87,3
0,55,91,5
0,62,61,0
0,55,61,0
0,38,90,0
0,57,104,0
0,50,94,0
0,55,104,0
0,62,90,0
0,50,61,2
0,67,86,5
0,66,38,35
0,54,77,5
0,54,61,10
0,57,75,0
0,78,69,0
0,66,68,8
0,26,69,3
0,66,80,10
0,57,77,33
0,14,80,18
0,26,105,0
0,74,80,0
0,66,74,2
0,64,56,13
0,62,68,3
0,55,90,0
0,55,90,5
0,55,77,8
0,69,107,8
0,62,105,0
0,55,105,0
0,69,77,5
0,67,93,0
0,54,59,2
0,69,31,5
0,54,102,5
0,66,65,3
0,66,88,172
0,67,86,17
0,69,82,37
0,71,78,20
0,73,68,2
0,74,82,40
0,57,69,202
0,26,95,3
0,74,80,0
0,86,80,0
0,66,80,32
0,57,95,3
0,55,77,5
0,76,85,2
0,69,81,0
0,62,95,3
0,57,105,0
0,55,101,0
0,67,81,0
0,54,83,2
0,54,73,0
0,57,81,0
0,62,67,0
0,74,73,7
0,66,41,0
0,66,74,2
0,67,82,10
0,69,78,0
0,71,82,2
0,73,74,8
0,62,99,8
0,74,74,5
0,28,91,0
0,69,85,0
0,64,69,8
0,42,47,3
0,59,83,0
0,59,67,0
0,64,67,5
0,78,88,0
0,30,75,5
0,71,95,0
0,42,95,0
0,76,73,2
0,71,89,0
0,76,99,2
0,71,112,0
0,76,56,2
0,74,68,0
0,88,53,0
0,73,88,15
0,71,92,5
0,58,83,0
0,70,50,2
0,58,67,3
0,70,83,10
0,58,100,0
0,64,94,0
0,76,78,50
0,78,56,2
0,76,74,10
0,74,58,12
0,73,80,22
0,66,80,3
0,59,61,0
0,62,61,0
0,66,65,0
0,62,61,0
0,47,67,0
0,35,51,0
0,78,65,2
0,74,81,0
0,74,82,0
0,71,81,2
0,71,81,0
0,62,87,0
0,66,97,0
0,35,81,0
0,47,91,0
0,62,84,5
0,74,81,7
0,47,47,8
0,61,89,10
0,57,61,7
0,61,61,0
0,45,59,0
0,45,69,0
0,61,87,0
0,54,95,0
0,33,67,0
0,73,99,2
0,33,69,5
0,86,61,3
0,54,73,0
0,76,85,8
0,44,83,5
0,59,73,2
0,59,61,0
0,56,61,0
0,32,69,0
0,74,85,3
0,44,87,0
0,62,85,0
0,54,79,0
0,32,73,0
0,59,81,0
0,74,78,5
0,73,74,0
0,76,78,0
0,74,86,0
0,73,68,5
0,82,83,12
0,86,73,2
0,83,93,5
0,74,82,2
0,57,61,0
0,54,61,3
0,64,70,0
0,57,67,2
0,42,65,2
0,64,47,5
0,42,77,8
0,62,67,0
0,57,59,0
0,69,57,0
0,81,71,7
0,30,57,5
0,81,85,2
0,69,82,0
0,57,107,5
0,62,107,0
0,69,107,0
0,62,68,17
0,47,67,2
0,62,73,3
0,47,67,0
0,69,69,0
0,57,69,0
0,62,87,0
0,62,82,0
0,35,53,0
0,57,65,15
0,62,73,0
0,69,86,5
0,64,61,20
0,45,77,12
0,45,65,8
0,57,67,0
0,64,67,0
0,62,77,0
0,33,59,0
0,69,86,0
0,57,49,5
0,55,77,7
0,47,73,0
0,55,61,5
0,47,61,0
0,79,89,0
0,35,69,2
0,35,95,0
0,47,107,0
0,62,107,0
0,55,107,0
0,49,61,95
0,64,70,5
0,57,61,0
0,49,65,2
0,64,73,0
0,57,73,3
0,37,45,2
0,81,77,0
0,88,85,0
0,49,107,3
0,37,97,0
0,57,107,0
0,64,107,0
0,86,75,5
0,74,67,0
0,67,78,15
0,62,69,7
0,55,61,3
0,50,79,0
0,69,36,10
0,62,70,0
0,55,61,0
0,50,61,2
0,62,107,3
0,55,107,0
0,57,107,0
0,38,99,0
0,50,99,0
0,26,73,8
0,55,105,0
0,79,71,5
0,74,85,0
0,67,96,3
0,62,69,5
0,55,73,0
0,57,69,0
0,66,56,0
0,78,49,117
0,54,61,0
0,54,59,10
0,62,77,0
0,57,71,0
0,50,69,0
0,38,69,0
0,54,69,0
0,66,80,8
0,45,95,0
0,33,91,0
0,57,95,0
0,61,107,0
0,45,75,0
0,64,97,0
0,57,75,0
0,33,108,0
0,64,100,0
0,57,88,0
0,45,88,0
0,61,86,0
0,33,58,2
0,62,89,117
0,62,101,3
0,57,91,0
0,64,93,242
0,64,105,23
0,61,107,0
0,61,113,12
0,61,101,20
0,57,91,0
0,31,96,25
0,43,106,3
0,43,97,15
0,69,93,0
0,31,70,2
0,43,107,10
0,61,107,0
0,31,105,0
0,57,101,0
0,62,107,43
0,62,107,20
0,57,101,0
0,64,89,13
0,69,82,10
0,64,105,13
0,61,107,0
0,69,96,2
0,74,90,15
0,57,73,0
0,61,101,0
0,61,95,7
0,76,90,55
0,62,95,0
0,67,95,0
0,57,95,0
0,67,70,0
0,57,70,0
0,62,66,0
0,38,80,0
0,79,116,0
0,74,116,0
0,69,116,0
0,57,100,5
0,62,106,0
0,55,110,0
0,79,100,2
0,50,110,3
0,38,96,0
0,78,96,40
0,66,95,0
0,66,78,8
0,78,96,7
0,62,106,5
0,57,96,0
0,54,98,0
0,78,72,18
0,54,98,5
0,38,74,407
0,66,98,3
0,50,92,0
0,62,96,2
0,57,106,0
0,69,96,202
0,61,64,2
0,58,72,3
0,64,74,5
0,64,95,0
0,58,95,0
0,61,95,0
0,30,80,0
0,79,90,22
0,58,112,0
0,30,98,0
0,61,112,0
0,42,112,0
0,64,112,0
0,70,98,13
0,73,98,0
0,76,88,0
0,78,96,47
0,54,95,18
0,35,80,2
0,76,90,3
0,35,100,0
0,47,92,2
0,64,106,3
0,61,98,0
0,54,98,0
0,66,84,5
0,74,86,10
0,59,70,0
0,66,70,0
0,62,56,2
0,59,95,2
0,62,95,0
0,33,80,3
0,74,90,7
0,54,84,13
0,62,92,0
0,74,78,0
0,71,88,0
0,45,100,2
0,59,106,0
0,33,100,0
0,32,80,225
0,32,90,12
0,59,110,3
0,44,106,0
0,62,96,0
0,54,90,0
0,54,98,47
0,74,96,13
0,73,88,45
0,62,92,5
0,66,90,0
0,59,80,0
0,78,90,0
0,59,88,15
0,74,86,5
0,69,70,12
0,78,88,13
0,62,95,5
0,57,95,0
0,66,95,0
0,66,98,5
0,38,80,0
0,69,92,0
0,50,110,2
0,57,100,0
0,38,112,3
0,62,106,0
0,76,90,35
0,76,96,97
0,74,96,45
0,62,70,48
0,66,78,2
0,57,66,0
0,74,90,5
0,57,96,104
0,69,96,75
0,40,80,13
0,69,95,27
0,52,95,0
0,76,55,0
0,81,55,0
0,71,59,0
0,68,90,5
0,59,106,0
0,64,110,0
0,52,100,3
0,40,110,0
0,76,96,0
0,81,88,0
0,71,88,0
0,78,88,2
0,76,90,5
0,35,80,0
0,76,96,35
0,74,92,0
0,79,78,0
0,62,110,2
0,67,106,0
0,59,106,0
0,35,106,5
0,47,110,0
0,74,96,20
0,33,80,5
0,69,69,3
0,76,96,5
0,69,92,3
0,73,78,0
0,76,78,0
0,57,110,2
0,45,110,0
0,33,110,0
0,64,112,0
0,62,106,0
0,69,96,17
0,74,100,25
0,76,86,7
0,67,95,33
0,57,95,0
0,38,80,5
0,67,78,2
0,62,68,5
0,57,56,0
0,74,100,0
0,79,92,0
0,50,112,5
0,38,110,0
0,62,106,0
0,57,110,0
0,55,110,0
0,79,100,0
0,78,96,57
0,66,74,35
0,66,95,0
0,78,106,7
0,54,98,3
0,78,84,15
0,81,88,0
0,76,96,80
0,54,98,47
0,74,90,15
0,62,88,275
0,66,84,0
0,57,80,0
0,50,96,5
0,38,88,0
0,57,100,18
0,69,96,0
0,58,66,0
0,64,67,0
0,61,66,0
0,64,95,10
0,61,95,0
0,58,95,0
0,30,80,0
0,64,112,15
0,42,106,0
0,58,112,3
0,30,112,0
0,61,112,0
0,79,96,3
0,73,106,8
0,78,78,0
0,82,90,0
0,78,96,70
0,54,95,20
0,61,106,0
0,35,110,0
0,47,100,0
0,35,80,0
0,64,110,2
0,54,112,0
0,76,96,8
0,73,98,13
0,76,106,0
0,66,90,0
0,54,106,140
0,78,80,25
0,62,95,8
0,59,95,0
0,33,80,0
0,54,66,0
0,59,70,0
0,62,68,0
0,74,90,3
0,59,110,10
0,54,112,0
0,33,112,0
0,62,100,0
0,45,110,0
0,71,92,5
0,74,110,0
0,76,90,115
0,54,106,7
0,71,96,25
0,32,80,230
0,66,106,2
0,62,100,0
0,59,92,0
0,44,106,3
0,32,98,0
0,78,98,5
0,74,96,70
0,59,80,3
0,73,106,50
0,62,96,7
0,66,84,0
0,59,78,0
0,74,86,35
0,59,52,18
0,57,40,8
0,66,56,2
0,69,90,5
0,57,95,0
0,74,78,0
0,33,80,2
0,81,58,0
0,62,88,17
0,54,66,0
0,33,106,3
0,57,84,0
0,45,96,0
0,86,76,8
0,82,86,5
0,83,92,10
0,86,66,0
0,66,106,0
0,35,80,0
0,81,88,5
0,66,84,0
0,57,92,2
0,35,92,3
0,62,96,0
0,47,96,0
0,57,88,2
0,64,90,3
0,62,78,7
0,64,68,7
0,33,80,0
0,33,96,0
0,45,74,0
0,62,100,3
0,57,96,0
0,64,110,0
0,74,80,3
0,69,100,3
0,55,95,0
0,35,80,0
0,47,106,2
0,67,110,0
0,55,112,0
0,35,110,0
0,62,110,0
0,67,100,3
0,67,86,0
0,86,70,5
0,79,70,3
0,88,70,15
0,81,70,0
0,37,80,0
0,69,106,0
0,64,65,0
0,57,45,3
0,49,112,0
0,57,110,0
0,37,112,0
0,64,112,0
0,69,82,0
0,76,78,0
0,67,96,30
0,67,96,48
0,93,55,33
0,81,55,2
0,67,96,18
0,62,45,0
0,38,40,0
0,55,30,5
0,62,28,0
0,57,28,0
0,79,64,13
0,74,68,0
0,50,92,2
0,38,96,0
0,62,106,0
0,55,110,0
0,57,92,3
0,64,88,5
0,54,16,190
0,54,90,37
0,66,74,15
0,78,34,0
0,66,88,279
0,26,86,0
0,62,72,0
0,26,75,0
0,35,127,0
0,50,72,5
0,50,64,5
0,54,48,0
0,57,66,0
0,49,84,0
0,57,64,5
0,62,68,0
0,57,82,0
0,66,106,5
0,44,108,415
0,54,112,0
0,40,121,0
0,44,93,190
0,35,127,0
0,44,108,3
0,35,127,0
0,44,81,5
0,69,112,8
0,62,110,0
0,55,110,0
0,44,108,0
0,54,122,0
0,40,121,0
0,57,68,0
0,62,72,0
0,67,82,3
0,69,77,2
0,67,93,3
0,50,56,2
0,55,82,5
0,44,99,0
0,44,108,5
0,35,127,0
0,54,107,0
0,26,90,0
0,66,65,3
0,54,54,7
0,66,66,0
0,57,50,0
0,62,60,0
0,50,50,0
0,54,64,2
0,44,86,15
0,66,106,178
0,44,108,5
0,54,112,0
0,40,121,0
0,67,70,10
0,44,93,28
0,35,127,0
0,69,96,50
0,44,108,15
0,35,127,0
0,71,68,5
0,44,81,28
0,73,88,43
0,44,108,35
0,54,122,0
0,40,121,0
0,74,82,62
0,44,99,23
0,66,96,63
0,62,72,5
0,57,56,2
0,54,54,0
0,50,64,0
0,26,86,3
0,44,108,0
0,35,127,0
0,57,74,2
0,44,86,3
0,44,108,130
0,54,112,0
0,40,121,0
0,44,93,5
0,35,127,0
0,44,108,8
0,35,127,0
0,57,100,0
0,44,81,5
0,76,85,2
0,69,81,0
0,62,100,3
0,57,110,0
0,55,106,0
0,44,108,0
0,54,122,0
0,40,121,0
0,67,81,2
0,55,82,2
0,57,56,0
0,50,64,0
0,55,64,0
0,64,76,0
0,46,91,5
0,26,70,0
0,44,108,5
0,35,127,0
0,54,78,0
0,57,86,0
0,62,72,0
0,26,90,0
0,74,73,7
0,66,71,0
0,57,38,0
0,62,44,3
0,50,60,0
0,54,36,0
0,64,54,0
0,54,88,2
0,44,86,0
0,44,108,125
0,54,112,0
0,40,121,0
0,66,106,2
0,67,58,30
0,44,93,20
0,35,127,0
0,69,96,48
0,44,108,125
0,35,127,0
0,71,82,25
0,44,81,13
0,73,96,7
0,44,108,128
0,54,122,0
0,40,121,0
0,74,86,48
0,62,104,10
0,44,99,0
0,28,91,35
0,69,90,28
0,29,57,0
0,64,74,8
0,42,52,5
0,59,88,0
0,59,77,7
0,64,77,8
0,30,75,17
0,35,127,3
0,57,58,0
0,71,100,0
0,42,100,0
0,30,77,0
0,71,89,5
0,76,99,2
0,78,106,0
0,44,86,190
0,44,108,190
0,54,112,0
0,40,121,0
0,76,78,30
0,44,93,18
0,35,127,0
0,74,78,32
0,73,96,22
0,44,108,23
0,35,127,0
0,44,81,80
0,71,97,98
0,44,108,0
0,54,122,0
0,40,121,0
0,44,99,10
0,30,71,58
0,58,88,35
0,58,77,5
0,44,108,25
0,35,127,0
0,58,105,0
0,64,99,0
0,30,83,0
0,70,83,0
0,44,86,112
0,76,90,187
0,44,108,3
0,54,112,0
0,40,121,0
0,78,80,42
0,44,93,28
0,35,127,0
0,76,96,47
0,44,108,133
0,35,127,0
0,74,78,0
0,44,81,10
0,73,96,35
0,44,108,133
0,54,122,0
0,40,121,0
0,66,80,28
0,46,96,3
0,74,96,7
0,59,71,5
0,62,71,3
0,66,70,10
0,62,66,0
0,47,72,0
0,35,51,0
0,78,65,2
0,74,81,3
0,71,81,0
0,71,86,0
0,62,92,0
0,66,102,0
0,35,86,0
0,47,96,0
0,35,83,0
0,44,108,0
0,35,127,0
0,44,86,3
0,44,108,5
0,54,112,0
0,40,121,0
0,62,89,0
0,44,93,8
0,35,127,0
0,47,52,0
0,61,94,10
0,57,71,5
0,61,71,0
0,45,64,0
0,44,108,0
0,35,127,0
0,45,74,0
0,61,92,0
0,54,100,0
0,33,72,0
0,33,90,0
0,73,99,2
0,33,69,12
0,44,81,3
0,44,108,5
0,54,122,0
0,40,121,0
0,54,78,0
0,76,85,45
0,44,99,10
0,44,88,23
0,59,78,2
0,59,71,0
0,56,71,0
0,32,69,0
0,74,85,10
0,44,108,0
