track,note,velocity,time
1,35,112,1272
1,35,0,0
1,35,112,257
1,35,0,0
1,35,96,320
1,35,0,0
1,35,112,193
1,35,0,0
1,35,112,256
1,35,0,0
1,35,96,321
1,35,0,0
1,35,112,192
1,35,0,0
1,35,112,256
1,35,0,1
1,35,96,320
1,35,0,0
1,35,112,192
1,35,0,1
1,35,112,256
1,35,0,0
1,35,96,321
1,35,0,0
1,35,112,192
1,35,0,0
1,35,112,256
1,35,0,1
1,35,96,320
1,35,0,0
1,35,112,192
1,35,0,0
1,35,112,257
1,35,0,0
1,35,96,320
1,35,0,1
1,35,112,192
1,35,0,0
1,35,112,256
1,35,0,0
1,35,96,321
1,35,0,0
1,35,112,192
1,35,0,0
1,35,112,257
1,35,0,0
1,35,96,320
1,35,0,0
1,35,112,193
1,35,0,0
1,35,112,256
1,35,0,0
1,35,96,321
1,35,0,0
1,35,112,192
1,35,0,0
1,35,112,257
1,35,0,0
1,35,96,320
1,35,0,0
1,35,112,193
1,35,0,0
1,35,112,256
1,35,0,0
1,35,96,321
1,35,0,0
1,35,112,192
1,35,0,0
1,35,112,256
1,35,0,1
1,35,96,320
1,35,0,0
1,35,112,192
1,35,0,1
1,35,112,256
1,35,0,0
1,35,96,321
1,35,0,0
1,35,112,192
1,35,0,0
1,35,112,256
1,35,0,1
1,35,96,320
1,35,0,0
1,35,112,192
1,35,0,0
1,35,112,257
1,35,0,0
1,35,96,320
1,35,0,1
1,35,112,192
1,35,0,0
1,35,112,256
1,35,0,0
1,35,96,321
1,35,0,0
1,35,112,192
1,35,0,0
1,35,112,257
1,35,0,0
1,35,96,320
1,35,0,0
1,35,112,193
1,35,0,0
1,35,112,256
1,35,0,0
1,35,96,321
1,35,0,0
1,35,112,192
1,35,0,0
1,35,112,257
1,35,0,0
1,35,96,320
1,35,0,0
1,35,112,193
1,35,0,0
1,35,112,256
1,35,0,0
1,35,96,321
1,35,0,0
1,35,112,192
1,35,0,0
1,35,112,256
1,35,0,1
1,35,96,320
1,35,0,0
1,35,112,192
1,35,0,1
1,35,112,256
1,35,0,0
1,35,96,321
1,35,0,0
1,35,112,192
1,35,0,0
1,35,112,256
1,35,0,0
1,35,96,321
1,35,0,0
1,35,112,192
1,35,0,0
1,35,112,257
1,35,0,0
1,35,96,320
1,35,0,1
1,35,112,192
1,35,0,0
1,35,112,256
1,35,0,0
1,35,96,321
1,35,0,0
1,35,112,192
1,35,0,0
1,35,112,257
1,35,0,0
1,35,96,320
1,35,0,0
1,35,112,193
1,35,0,0
1,35,112,256
1,35,0,0
1,35,96,321
1,35,0,0
1,35,112,192
1,35,0,0
1,35,112,257
1,35,0,0
1,35,96,320
1,35,0,0
1,35,112,193
1,35,0,0
1,35,112,256
1,35,0,0
1,35,96,321
1,35,0,0
1,35,112,192
1,35,0,0
1,35,112,256
1,35,0,1
1,35,96,320
1,35,0,0
1,35,112,192
1,35,0,1
1,35,112,256
1,35,0,0
1,35,96,320
1,35,0,1
1,35,112,192
1,35,0,0
1,35,112,256
1,35,0,0
1,35,96,321
1,35,0,0
1,35,112,192
1,35,0,0
1,35,112,257
1,35,0,0
1,35,96,320
1,35,0,1
1,35,112,192
1,35,0,0
1,35,112,256
1,35,0,0
1,35,96,321
1,35,0,0
1,35,112,192
1,35,0,0
1,35,112,257
1,35,0,0
1,35,96,320
1,35,0,0
1,35,112,193
1,35,0,0
1,35,112,256
1,35,0,0
1,35,96,321
1,35,0,0
1,35,112,192
1,35,0,0
1,35,112,257
1,35,0,0
1,35,96,320
1,35,0,0
1,35,112,193
1,35,0,0
1,35,112,256
1,35,0,0
1,35,96,321
1,35,0,0
1,35,112,192
1,35,0,0
1,35,112,256
1,35,0,1
1,35,96,320
1,35,0,0
1,35,112,192
1,35,0,1
1,35,112,256
1,35,0,0
1,35,96,321
1,35,0,0
1,35,112,192
1,35,0,0
1,35,112,256
1,35,0,1
1,35,96,320
1,35,0,0
1,35,112,192
1,35,0,0
1,35,112,257
1,35,0,0
1,35,96,320
1,35,0,1
1,35,112,192
1,35,0,0
1,35,112,256
1,35,0,0
1,35,96,321
1,35,0,0
1,35,112,192
1,35,0,0
1,35,112,257
1,35,0,0
1,35,96,320
1,35,0,0
1,35,112,193
1,35,0,0
1,35,112,256
1,35,0,0
1,35,96,321
1,35,0,0
1,35,112,192
1,35,0,0
1,35,112,257
1,35,0,0
1,35,96,320
1,35,0,0
1,35,112,193
1,35,0,0
1,35,112,256
1,35,0,0
1,35,96,321
1,35,0,0
1,35,112,192
1,35,0,0
1,35,112,256
1,35,0,1
1,35,96,320
1,35,0,0
1,35,112,192
1,35,0,1
1,35,112,256
1,35,0,0
1,35,96,321
1,35,0,0
1,35,112,192
1,35,0,0
1,35,112,256
1,35,0,1
1,35,96,320
1,35,0,0
1,35,112,192
1,35,0,0
1,35,112,257
1,35,0,0
1,35,96,320
1,35,0,1
1,35,112,192
1,35,0,0
1,35,112,256
1,35,0,0
1,35,96,321
1,35,0,0
1,35,112,192
1,35,0,0
1,35,112,257
1,35,0,0
1,35,96,320
1,35,0,0
1,35,112,193
1,35,0,0
1,35,112,256
1,35,0,0
1,35,96,321
1,35,0,0
1,35,112,192
1,35,0,0
1,35,112,257
1,35,0,0
1,35,96,320
1,35,0,0
1,35,112,193
1,35,0,0
1,35,112,256
1,35,0,0
1,35,96,321
1,35,0,0
1,35,112,192
1,35,0,0
1,35,112,256
1,35,0,1
1,35,96,320
1,35,0,0
1,35,112,192
1,35,0,1
1,35,112,256
1,35,0,0
1,35,96,320
1,35,0,1
1,35,112,192
1,35,0,0
1,35,112,256
1,35,0,0
1,35,96,321
1,35,0,0
1,35,112,192
1,35,0,0
1,35,112,257
1,35,0,0
1,35,96,320
1,35,0,1
1,35,112,192
1,35,0,0
1,35,112,256
1,35,0,0
1,35,96,321
1,35,0,0
1,35,112,192
1,35,0,0
1,35,112,257
1,35,0,0
1,35,96,320
1,35,0,0
1,35,112,193
1,35,0,0
1,35,112,256
1,35,0,0
1,35,96,321
1,35,0,0
1,35,112,192
1,35,0,0
1,35,112,257
1,35,0,0
1,35,96,320
1,35,0,0
1,35,112,193
1,35,0,0
1,35,112,256
1,35,0,0
1,35,96,321
1,35,0,0
1,35,112,192
1,35,0,0
1,35,112,256
1,35,0,1
1,35,96,320
1,35,0,0
1,35,112,192
1,35,0,1
1,35,112,256
1,35,0,0
1,35,96,321
1,35,0,0
1,35,112,192
1,35,0,0
1,35,112,256
1,35,0,0
1,35,96,321
1,35,0,0
1,35,112,192
1,35,0,0
1,35,112,257
1,35,0,0
1,35,96,320
1,35,0,1
1,35,112,192
1,35,0,0
1,35,112,256
1,35,0,0
1,35,96,321
1,35,0,0
1,35,112,192
1,35,0,0
1,35,112,257
1,35,0,0
1,35,96,320
1,35,0,0
1,35,112,193
1,35,0,0
1,35,112,256
1,35,0,0
1,35,96,321
1,35,0,0
1,35,112,192
1,35,0,0
1,35,112,257
1,35,0,0
1,35,96,320
1,35,0,0
1,35,112,192
1,35,0,1
1,35,112,256
1,35,0,0
1,35,96,321
1,35,0,0
1,35,112,192
1,35,0,0
1,35,112,256
1,35,0,1
1,35,96,320
1,35,0,0
1,35,112,192
1,35,0,1
1,35,112,256
1,35,0,0
1,35,96,321
1,35,0,0
1,35,112,192
1,35,0,0
1,35,112,256
1,35,0,0
1,35,96,321
1,35,0,0
1,35,112,192
1,35,0,0
1,35,112,257
1,35,0,0
1,35,96,320
1,35,0,1
1,35,112,192
1,35,0,0
1,35,112,256
1,35,0,0
1,35,96,321
1,35,0,0
1,35,112,192
1,35,0,0
1,35,112,257
1,35,0,0
1,35,96,320
1,35,0,0
1,35,112,193
1,35,0,0
1,35,112,256
1,35,0,0
1,35,96,321
1,35,0,0
1,35,112,192
1,35,0,0
1,35,112,257
1,35,0,0
1,35,96,320
1,35,0,0
1,35,112,192
1,35,0,1
1,35,112,256
1,35,0,0
1,35,96,321
1,35,0,0
1,35,112,192
1,35,0,0
1,35,112,256
1,35,0,1
1,35,96,320
1,35,0,0
1,35,112,192
1,35,0,1
1,35,112,256
1,35,0,0
1,35,96,320
1,35,0,1
1,35,112,192
1,35,0,0
1,35,112,256
1,35,0,0
1,35,96,321
1,35,0,0
1,35,112,192
1,35,0,0
1,35,112,257
1,35,0,0
1,35,96,320
1,35,0,1
1,35,112,192
1,35,0,0
1,35,112,256
1,35,0,0
1,35,96,321
1,35,0,0
1,35,112,192
1,35,0,0
1,35,112,257
1,35,0,0
1,35,96,320
1,35,0,0
1,35,112,193
1,35,0,0
1,35,112,256
1,35,0,0
1,35,96,321
1,35,0,0
1,35,112,192
1,35,0,0
1,35,112,257
1,35,0,0
1,35,96,320
1,35,0,0
1,35,112,192
1,35,0,1
1,35,112,256
1,35,0,0
1,35,96,321
1,35,0,0
1,35,112,192
1,35,0,0
1,35,112,256
1,35,0,1
1,35,96,320
1,35,0,0
1,35,112,192
1,35,0,1
1,35,112,256
1,35,0,0
1,35,96,320
1,35,0,1
1,35,112,192
1,35,0,0
1,35,112,256
1,35,0,0
1,35,96,321
1,35,0,0
1,35,112,192
1,35,0,0
1,35,112,257
1,35,0,0
1,35,96,320
1,35,0,0
1,35,112,193
1,35,0,0
1,35,112,256
1,35,0,0
1,35,96,321
1,35,0,0
1,35,112,192
1,35,0,0
1,35,112,257
1,35,0,0
1,35,96,320
1,35,0,0
1,35,112,193
1,35,0,0
1,35,112,256
1,35,0,0
1,35,96,321
1,35,0,0
1,35,112,192
1,35,0,0
1,35,112,257
1,35,0,0
1,35,96,320
1,35,0,0
1,35,112,193
1,35,0,0
1,35,112,256
1,35,0,0
1,35,96,321
1,35,0,0
1,35,112,192
1,35,0,0
1,35,112,256
1,35,0,1
1,35,96,320
1,35,0,0
1,35,112,192
1,35,0,1
1,35,112,256
1,35,0,0
1,35,96,320
1,35,0,1
1,35,112,192
1,35,0,0
1,35,112,256
1,35,0,0
1,35,96,321
1,35,0,0
1,35,112,192
1,35,0,0
1,35,112,257
1,35,0,0
1,35,96,320
1,35,0,1
1,35,112,192
1,35,0,0
1,35,112,256
1,35,0,0
1,35,96,321
1,35,0,0
1,35,112,192
1,35,0,0
1,35,112,257
1,35,0,0
1,35,96,320
1,35,0,0
1,35,112,193
1,35,0,0
1,35,112,256
1,35,0,0
1,35,96,321
1,35,0,0
1,35,112,192
1,35,0,0
1,35,112,257
1,35,0,0
1,35,96,320
1,35,0,0
1,35,112,192
1,35,0,1
1,35,112,256
1,35,0,0
1,35,96,321
1,35,0,0
1,35,112,192
1,35,0,0
1,35,112,256
1,35,0,1
1,35,96,320
1,35,0,0
1,35,112,192
1,35,0,1
1,35,112,256
1,35,0,0
1,35,96,320
1,35,0,1
1,35,112,192
1,35,0,0
1,35,112,256
1,35,0,0
1,35,96,321
1,35,0,0
1,35,112,192
1,35,0,0
1,35,112,257
1,35,0,0
1,35,96,320
1,35,0,0
1,35,112,193
1,35,0,0
1,35,112,256
1,35,0,0
1,35,96,321
1,35,0,0
1,35,112,192
1,35,0,0
1,35,112,257
1,35,0,0
1,35,96,320
1,35,0,0
1,35,112,193
1,35,0,0
1,35,112,256
1,35,0,0
1,35,96,321
1,35,0,0
1,35,112,192
1,35,0,0
1,35,112,257
1,35,0,0
1,35,96,320
1,35,0,0
1,35,112,193
1,35,0,0
1,35,112,256
1,35,0,0
1,35,96,321
1,35,0,0
1,35,112,192
1,35,0,0
1,35,112,256
1,35,0,1
1,35,96,320
1,35,0,0
1,35,112,192
1,35,0,1
1,35,112,256
1,35,0,0
1,35,96,320
1,35,0,1
1,35,112,192
1,35,0,0
1,35,112,256
1,35,0,0
1,35,96,321
1,35,0,0
1,35,112,192
1,35,0,0
1,35,112,257
1,35,0,0
1,35,96,320
1,35,0,0
1,35,112,193
1,35,0,0
1,35,112,256
1,35,0,0
1,35,96,321
1,35,0,0
1,35,112,192
1,35,0,0
1,35,112,257
1,35,0,0
1,35,96,320
1,35,0,0
1,35,112,193
1,35,0,0
1,35,112,256
1,35,0,0
1,35,96,321
1,35,0,0
1,35,112,192
1,35,0,0
1,35,112,257
1,35,0,0
1,35,96,320
1,35,0,0
1,35,112,192
1,35,0,1
1,35,112,256
1,35,0,0
1,35,96,321
1,35,0,0
1,35,112,192
1,35,0,0
1,35,112,256
1,35,0,1
1,35,96,320
1,35,0,0
1,35,112,192
1,35,0,1
1,35,112,256
1,35,0,0
1,35,96,320
1,35,0,1
1,35,112,192
1,35,0,0
1,35,112,256
1,35,0,0
1,35,96,321
1,35,0,0
1,35,112,192
1,35,0,0
1,35,112,257
1,35,0,0
1,35,96,320
1,35,0,0
1,35,112,193
1,35,0,0
1,35,112,256
1,35,0,0
1,35,96,321
1,35,0,0
1,35,112,192
1,35,0,0
1,35,112,257
1,35,0,0
1,35,96,320
1,35,0,0
1,35,112,193
1,35,0,0
1,35,112,256
1,35,0,0
1,35,96,321
1,35,0,0
1,35,112,192
1,35,0,0
1,35,112,257
1,35,0,0
1,35,96,320
1,35,0,0
1,35,112,192
1,35,0,1
1,35,112,256
1,35,0,0
1,35,96,321
1,35,0,0
1,35,112,192
1,35,0,0
1,35,112,256
1,35,0,1
1,35,96,320
1,35,0,0
1,35,112,192
1,35,0,1
1,35,112,256
1,35,0,0
1,35,96,320
1,35,0,1
1,35,112,192
1,35,0,0
1,35,112,256
1,35,0,0
1,35,96,321
1,35,0,0
1,35,112,192
1,35,0,0
1,35,112,257
1,35,0,0
1,35,96,320
1,35,0,0
1,35,112,193
1,35,0,0
1,35,112,256
1,35,0,0
1,35,96,321
1,35,0,0
1,35,112,192
1,35,0,0
1,35,112,257
1,35,0,0
1,35,96,320
1,35,0,0
1,35,112,193
1,35,0,0
1,35,112,256
1,35,0,0
1,35,96,321
1,35,0,0
1,35,112,192
1,35,0,0
1,35,112,257
1,35,0,0
1,35,96,320
1,35,0,0
1,35,112,192
1,35,0,1
1,35,112,256
1,35,0,0
1,35,96,321
1,35,0,0
1,35,112,192
1,35,0,0
1,35,112,256
1,35,0,1
1,35,96,320
1,35,0,0
1,35,112,192
1,35,0,1
1,35,112,256
1,35,0,0
1,35,96,320
1,35,0,1
1,35,112,192
1,35,0,0
1,35,112,256
1,35,0,0
1,35,96,321
1,35,0,0
1,35,112,192
1,35,0,0
1,35,112,257
1,35,0,0
1,35,96,320
1,35,0,0
1,35,112,193
1,35,0,0
1,35,112,256
1,35,0,0
1,35,96,321
1,35,0,0
1,35,112,192
1,35,0,0
1,35,112,257
1,35,0,0
1,35,96,320
1,35,0,0
1,35,112,193
1,35,0,0
1,35,112,256
1,35,0,0
1,35,96,321
1,35,0,0
1,35,112,192
1,35,0,0
1,35,112,257
1,35,0,0
1,35,96,320
1,35,0,0
1,35,112,192
1,35,0,1
1,35,112,256
1,35,0,0
1,35,96,321
1,35,0,0
1,35,112,192
1,35,0,0
1,35,112,256
1,35,0,1
1,35,96,320
1,35,0,0
1,35,112,192
1,35,0,0
1,35,112,257
1,35,0,0
1,35,96,320
1,35,0,1
1,35,112,192
1,35,0,0
1,35,112,256
1,35,0,0
1,35,96,321
1,35,0,0
1,35,112,192
1,35,0,0
1,35,112,257
1,35,0,0
1,35,96,320
1,35,0,0
1,35,112,193
1,35,0,0
1,35,112,256
1,35,0,0
1,35,96,321
1,35,0,0
1,35,112,64
1,35,0,0
2,51,117,124639
2,51,0,0
3,53,100,124575
3,53,0,0
4,54,103,760
4,54,0,0
4,54,103,127
4,54,0,0
4,54,103,64
4,54,0,0
4,54,103,128
4,54,0,0
4,54,103,64
4,54,0,0
4,54,103,128
4,54,0,1
4,54,103,64
4,54,0,0
4,54,103,128
4,54,0,0
4,54,103,64
4,54,0,0
4,54,103,128
4,54,0,1
4,54,103,64
4,54,0,0
4,54,103,128
4,54,0,0
4,54,103,64
4,54,0,0
4,54,103,128
4,54,0,0
4,54,103,64
4,54,0,0
4,54,103,128
4,54,0,1
4,54,103,63
4,54,0,1
