track,note,velocity,time
1,29,87,774
1,32,95,200
1,36,82,4
1,35,99,178
1,33,91,193
1,26,87,8
1,31,79,380
1,36,79,6
1,31,69,289
1,36,82,78
1,31,79,110
1,24,84,129
1,31,82,272
1,36,84,12
1,36,87,189
1,29,87,125
1,36,68,62
1,29,68,193
1,29,73,58
1,31,82,181
1,38,68,93
1,31,69,186
1,31,76,96
1,36,76,6
1,36,71,114
1,38,79,41
1,31,82,366
1,36,73,58
1,31,73,165
1,36,79,12
1,36,55,72
1,29,79,5
1,29,79,584
1,31,84,91
1,32,91,64
1,32,84,92
1,31,84,193
1,33,79,9
1,26,82,11
1,38,71,193
1,31,79,199
1,36,79,374
1,31,63,3
1,36,79,90
1,31,68,153
1,36,79,198
1,31,119,344
1,36,115,37
1,31,103,2
1,36,111,67
1,31,103,178
1,40,111,190
1,39,107,2
1,38,107,381
1,33,103,3
1,38,103,68
1,33,99,1
1,26,111,185
1,33,84,325
1,38,87,1
1,33,99,6
1,31,91,25
1,38,95,388
1,38,99,30
1,31,91,3
1,31,79,57
1,31,103,34
1,29,107,193
1,28,103,2
1,28,68,27
1,40,82,73
1,28,87,2
1,28,95,28
1,28,79,46
1,40,87,6
1,28,87,3
1,29,111,44
1,29,107,47
1,27,91,42
1,26,111,50
1,28,115,95
1,36,91,13
1,35,99,7
1,33,107,202
1,28,64,318
1,33,103,67
1,26,95,8
1,26,61,35
1,26,82,33
1,38,69,191
1,31,91,3
1,31,67,50
1,31,95,39
1,31,67,15
1,36,82,21
1,31,79,3
1,36,99,74
1,31,95,5
1,24,99,7
1,31,82,247
1,36,84,12
1,36,87,189
1,29,87,125
1,36,68,62
1,29,68,193
1,29,73,58
1,31,82,181
1,38,68,93
1,31,69,186
1,31,76,96
1,36,76,6
1,36,71,114
1,38,79,41
1,31,82,366
1,36,73,58
1,31,73,165
1,36,79,12
1,36,55,72
1,29,79,5
1,29,79,584
1,31,84,91
1,32,91,64
1,32,84,92
1,31,84,193
1,33,79,9
1,26,82,11
1,38,71,193
1,31,79,199
1,36,79,374
1,31,63,3
1,36,79,90
1,31,68,153
1,36,79,198
1,31,119,344
1,36,115,37
1,31,103,2
1,36,111,67
1,31,103,178
1,40,111,190
1,39,107,2
1,38,107,381
1,33,103,3
1,38,103,68
1,33,99,1
1,26,111,185
1,33,84,325
1,38,87,1
1,33,99,6
1,31,91,25
1,38,95,388
1,38,99,30
1,31,91,3
1,31,79,57
1,31,103,34
1,29,107,193
1,28,103,2
1,28,68,27
1,40,82,73
1,28,87,2
1,28,95,28
1,28,79,46
1,40,87,6
1,28,87,3
1,29,111,44
1,29,107,47
1,27,91,42
1,26,111,50
1,28,115,95
1,36,91,13
1,35,99,7
1,33,107,202
1,28,64,318
1,33,103,67
1,26,95,8
1,26,61,35
1,26,82,33
1,38,69,191
1,31,91,3
1,31,67,50
1,31,95,39
1,31,67,15
1,36,82,21
1,31,79,3
1,36,99,74
1,31,95,5
1,24,99,7
1,31,82,247
1,36,84,12
1,36,87,189
1,29,87,125
1,36,68,62
1,29,68,193
1,29,73,58
1,31,82,181
1,38,68,93
1,31,69,186
1,31,76,96
1,36,76,6
1,36,71,114
1,38,79,41
1,31,82,366
1,36,73,58
1,31,73,165
1,36,79,12
1,36,55,72
1,29,79,5
1,29,79,584
1,31,84,91
1,32,91,64
1,32,84,92
1,31,84,193
1,33,79,9
1,26,82,11
1,38,71,193
1,31,79,199
1,36,79,374
1,31,63,3
1,36,79,90
1,31,68,153
1,36,79,198
1,31,119,344
1,36,115,37
1,31,103,2
1,36,111,67
1,31,103,178
1,40,111,190
1,39,107,2
1,38,107,381
1,33,103,3
1,38,103,68
1,33,99,1
1,26,111,185
1,33,84,325
1,38,87,1
1,33,99,6
1,31,91,25
1,38,95,388
1,38,99,30
1,31,91,3
1,31,79,57
1,31,103,34
1,29,107,193
1,28,103,2
1,28,68,27
1,40,82,73
1,28,87,2
1,28,95,28
1,28,79,46
1,40,87,6
1,28,87,3
1,29,111,44
1,29,107,47
1,27,91,42
1,26,111,50
1,28,115,95
1,36,91,13
1,35,99,7
1,33,107,202
1,28,64,318
1,33,103,67
1,26,95,8
1,26,61,35
1,26,82,33
1,38,69,191
1,31,91,3
1,31,115,119
1,36,119,41
1,38,103,32
1,40,119,41
1,36,87,24
1,41,107,30
1,44,99,409
1,38,107,732
1,26,111,362
1,36,123,33
1,24,119,84
2,64,33,9
2,60,50,5
2,64,35,12
2,60,50,7
2,64,41,9
2,60,52,8
2,64,55,4
2,60,58,10
2,60,53,25
2,64,52,1
2,60,58,8
2,64,53,6
2,60,64,6
2,64,57,1
2,60,63,6
2,64,64,2
2,64,60,25
2,60,62,18
2,64,46,3
2,60,57,5
2,64,62,4
2,60,66,1
2,64,61,3
2,60,51,20
2,67,42,144
2,64,62,1
2,67,57,8
2,64,63,7
2,67,56,5
2,64,53,10
2,67,55,8
2,64,57,3
2,67,56,11
2,64,61,7
2,67,55,9
2,64,56,5
2,67,52,10
2,64,64,17
2,67,20,14
2,66,60,43
2,63,64,7
2,66,52,11
2,63,56,2
2,66,64,3
2,63,57,3
2,66,52,7
2,63,62,1
2,66,56,8
2,63,61,2
2,66,67,4
2,63,64,10
2,66,53,14
2,63,52,3
2,65,64,51
2,62,67,2
2,65,62,8
2,62,68,3
2,65,58,4
2,62,64,8
2,65,61,7
2,62,63,9
2,65,56,7
2,62,58,12
2,65,55,10
2,62,55,5
2,65,55,12
2,62,55,3
2,65,53,10
2,62,61,1
2,65,55,10
2,62,15,14
2,65,43,10
2,62,53,1
2,65,42,8
2,62,42,12
2,65,52,3
2,62,55,7
2,65,51,2
2,62,50,7
2,65,42,5
2,62,53,12
2,65,51,1
2,62,55,13
2,65,27,4
2,62,50,11
2,65,48,17
2,62,52,14
2,65,46,0
2,62,45,10
2,65,46,14
2,62,52,11
2,65,17,4
2,62,45,16
2,65,28,6
2,65,46,55
2,62,27,6
2,65,42,22
2,62,27,10
2,65,22,12
2,62,42,16
2,65,16,25
2,65,55,35
2,62,27,9
2,65,51,11
2,62,56,4
2,65,57,6
2,62,63,11
2,65,57,3
2,62,58,11
2,65,58,3
2,62,55,10
2,65,57,6
2,62,58,7
2,65,58,6
2,62,61,5
2,65,58,5
2,62,63,10
2,65,61,20
2,62,51,11
2,65,52,8
2,62,57,3
2,65,62,3
2,62,57,7
2,65,52,5
2,62,55,5
2,65,46,20
2,62,55,26
2,67,56,94
2,71,47,20
2,67,58,13
2,71,50,6
2,67,56,13
2,71,48,17
2,67,46,13
2,71,56,1
2,67,53,5
2,71,55,8
2,67,56,5
2,71,53,3
2,67,53,6
2,71,52,4
2,67,56,3
2,71,56,5
2,67,56,4
2,71,55,0
2,67,52,6
2,71,48,19
2,67,55,9
2,71,52,21
2,67,55,3
2,72,43,4
2,72,50,28
2,67,53,2
2,72,52,9
2,67,57,11
2,72,57,3
2,67,55,11
2,72,52,4
2,67,52,12
2,72,55,3
2,67,55,13
2,72,53,5
2,67,55,10
2,72,52,4
2,67,51,5
2,72,48,5
2,67,55,12
2,72,47,3
2,67,51,11
2,72,47,1
2,67,52,14
2,72,16,5
2,67,34,12
2,72,32,0
2,67,35,8
2,67,36,64
2,64,56,23
2,67,42,7
2,64,57,3
2,67,52,2
2,64,57,8
2,67,52,3
2,64,58,9
2,67,55,3
2,64,57,10
2,67,53,2
2,64,55,9
2,67,55,19
2,64,55,12
2,67,51,1
2,64,56,10
2,67,46,15
2,64,43,10
2,67,30,8
2,64,45,3
2,67,34,20
2,64,33,17
2,67,43,19
2,64,50,12
2,68,25,24
2,65,55,6
2,68,47,2
2,65,61,9
2,68,50,25
2,65,55,12
2,68,50,0
2,65,55,14
2,68,52,17
2,65,56,12
2,68,55,1
2,65,53,10
2,68,55,1
2,65,57,13
2,68,51,1
2,65,56,17
2,68,53,1
2,65,58,11
2,68,53,2
2,65,52,10
2,68,47,5
2,65,52,8
2,68,41,18
2,65,47,16
2,68,28,0
2,65,57,6
2,62,56,18
2,65,55,10
2,62,66,2
2,65,58,4
2,62,62,2
2,65,55,4
2,62,58,8
2,65,58,5
2,62,64,9
2,65,55,4
2,62,61,7
2,65,46,5
2,62,55,7
2,65,41,4
2,62,61,11
2,65,47,3
2,62,57,8
2,65,53,3
2,62,55,11
2,65,51,1
2,62,55,12
2,65,56,17
2,64,42,6
2,60,28,20
2,64,51,12
2,60,51,1
2,64,51,6
2,60,51,9
2,64,52,2
2,60,51,12
2,64,53,0
2,60,47,12
2,64,56,5
2,60,57,12
2,64,56,2
2,60,55,14
2,64,51,0
2,60,53,13
2,64,45,3
2,60,48,17
2,64,40,12
2,60,53,20
2,64,37,7
2,72,26,46
2,69,28,9
2,72,38,8
2,69,50,3
2,72,50,4
2,69,56,14
2,72,52,19
2,69,58,11
2,72,50,17
2,69,58,15
2,72,61,2
2,69,55,13
2,72,53,19
2,69,46,6
2,72,45,3
2,69,48,21
2,69,52,33
2,72,41,12
2,65,43,166
2,62,50,20
2,65,56,6
2,62,61,3
2,65,55,0
2,62,56,10
2,65,52,21
2,62,61,13
2,65,55,20
2,62,55,16
2,65,57,16
2,62,55,9
2,65,58,5
2,62,57,9
2,65,57,5
2,62,63,10
2,65,46,4
2,62,62,11
2,65,47,20
2,62,55,19
2,65,33,16
2,62,50,19
2,65,50,18
2,62,55,13
2,65,28,23
2,67,46,18
2,71,48,12
2,67,55,4
2,71,52,3
2,67,53,9
2,71,51,3
2,67,51,12
2,71,47,17
2,67,41,9
2,71,48,2
2,67,46,3
2,71,45,2
2,67,34,10
2,71,42,15
2,67,51,5
2,71,25,0
2,71,46,27
2,64,33,19
2,60,31,15
2,64,45,1
2,60,51,13
2,64,46,0
2,60,50,10
2,64,50,3
2,60,43,10
2,64,46,5
2,60,53,1
2,64,55,6
2,60,58,9
2,64,52,4
2,60,52,10
2,64,53,5
2,60,51,6
2,64,45,6
2,60,51,10
2,64,45,0
2,60,45,11
2,64,40,1
2,60,42,12
2,64,42,13
2,60,29,13
2,64,36,5
2,60,26,9
2,64,41,0
2,60,27,11
2,64,20,11
2,64,33,9
2,60,50,5
2,64,35,12
2,60,50,7
2,64,41,9
2,60,52,8
2,64,55,4
2,60,58,10
2,60,53,25
2,64,52,1
2,60,58,8
2,64,53,6
2,60,64,6
2,64,57,1
2,60,63,6
2,64,64,2
2,64,60,25
2,60,62,18
2,64,46,3
2,60,57,5
2,64,62,4
2,60,66,1
2,64,61,3
2,60,51,20
2,67,42,144
2,64,62,1
2,67,57,8
2,64,63,7
2,67,56,5
2,64,53,10
2,67,55,8
2,64,57,3
2,67,56,11
2,64,61,7
2,67,55,9
2,64,56,5
2,67,52,10
2,64,64,17
2,67,20,14
2,66,60,43
2,63,64,7
2,66,52,11
2,63,56,2
2,66,64,3
2,63,57,3
2,66,52,7
2,63,62,1
2,66,56,8
2,63,61,2
2,66,67,4
2,63,64,10
2,66,53,14
2,63,52,3
2,65,64,51
2,62,67,2
2,65,62,8
2,62,68,3
2,65,58,4
2,62,64,8
2,65,61,7
2,62,63,9
2,65,56,7
2,62,58,12
2,65,55,10
2,62,55,5
2,65,55,12
2,62,55,3
2,65,53,10
2,62,61,1
2,65,55,10
2,62,15,14
2,65,43,10
2,62,53,1
2,65,42,8
2,62,42,12
2,65,52,3
2,62,55,7
2,65,51,2
2,62,50,7
2,65,42,5
2,62,53,12
2,65,51,1
2,62,55,13
2,65,27,4
2,62,50,11
2,65,48,17
2,62,52,14
2,65,46,0
2,62,45,10
2,65,46,14
2,62,52,11
2,65,17,4
2,62,45,16
2,65,28,6
2,65,46,55
2,62,27,6
2,65,42,22
2,62,27,10
2,65,22,12
2,62,42,16
2,65,16,25
2,65,55,35
2,62,27,9
2,65,51,11
2,62,56,4
2,65,57,6
2,62,63,11
2,65,57,3
2,62,58,11
2,65,58,3
2,62,55,10
2,65,57,6
2,62,58,7
2,65,58,6
2,62,61,5
2,65,58,5
2,62,63,10
2,65,61,20
2,62,51,11
2,65,52,8
2,62,57,3
2,65,62,3
2,62,57,7
2,65,52,5
2,62,55,5
2,65,46,20
2,62,55,26
2,67,56,94
2,71,47,20
2,67,58,13
2,71,50,6
2,67,56,13
2,71,48,17
2,67,46,13
2,71,56,1
2,67,53,5
2,71,55,8
2,67,56,5
2,71,53,3
2,67,53,6
2,71,52,4
2,67,56,3
2,71,56,5
2,67,56,4
2,71,55,0
2,67,52,6
2,71,48,19
2,67,55,9
2,71,52,21
2,67,55,3
2,72,43,4
2,72,50,28
2,67,53,2
2,72,52,9
2,67,57,11
2,72,57,3
2,67,55,11
2,72,52,4
2,67,52,12
2,72,55,3
2,67,55,13
2,72,53,5
2,67,55,10
2,72,52,4
2,67,51,5
2,72,48,5
2,67,55,12
2,72,47,3
2,67,51,11
2,72,47,1
2,67,52,14
2,72,16,5
2,67,34,12
2,72,32,0
2,67,35,8
2,67,36,64
2,64,56,23
2,67,42,7
2,64,57,3
2,67,52,2
2,64,57,8
2,67,52,3
2,64,58,9
2,67,55,3
2,64,57,10
2,67,53,2
2,64,55,9
2,67,55,19
2,64,55,12
2,67,51,1
2,64,56,10
2,67,46,15
2,64,43,10
2,67,30,8
2,64,45,3
2,67,34,20
2,64,33,17
2,67,43,19
2,64,50,12
2,68,25,24
2,65,55,6
2,68,47,2
2,65,61,9
2,68,50,25
2,65,55,12
2,68,50,0
2,65,55,14
2,68,52,17
2,65,56,12
2,68,55,1
2,65,53,10
2,68,55,1
2,65,57,13
2,68,51,1
2,65,56,17
2,68,53,1
2,65,58,11
2,68,53,2
2,65,52,10
2,68,47,5
2,65,52,8
2,68,41,18
2,65,47,16
2,68,28,0
2,65,57,6
2,62,56,18
2,65,55,10
2,62,66,2
2,65,58,4
2,62,62,2
2,65,55,4
2,62,58,8
2,65,58,5
2,62,64,9
2,65,55,4
2,62,61,7
2,65,46,5
2,62,55,7
2,65,41,4
2,62,61,11
2,65,47,3
2,62,57,8
2,65,53,3
2,62,55,11
2,65,51,1
2,62,55,12
2,65,56,17
2,64,42,6
2,60,28,20
2,64,51,12
2,60,51,1
2,64,51,6
2,60,51,9
2,64,52,2
2,60,51,12
2,64,53,0
2,60,47,12
2,64,56,5
2,60,57,12
2,64,56,2
2,60,55,14
2,64,51,0
2,60,53,13
2,64,45,3
2,60,48,17
2,64,40,12
2,60,53,20
2,64,37,7
2,72,26,46
2,69,28,9
2,72,38,8
2,69,50,3
2,72,50,4
2,69,56,14
2,72,52,19
2,69,58,11
2,72,50,17
2,69,58,15
2,72,61,2
2,69,55,13
2,72,53,19
2,69,46,6
2,72,45,3
2,69,48,21
2,69,52,33
2,72,41,12
2,65,43,166
2,62,50,20
2,65,56,6
2,62,61,3
2,65,55,0
2,62,56,10
2,65,52,21
2,62,61,13
2,65,55,20
2,62,55,16
2,65,57,16
2,62,55,9
2,65,58,5
2,62,57,9
2,65,57,5
2,62,63,10
2,65,46,4
2,62,62,11
2,65,47,20
2,62,55,19
2,65,33,16
2,62,50,19
2,65,50,18
2,62,55,13
2,65,28,23
2,67,46,18
2,71,48,12
2,67,55,4
2,71,52,3
2,67,53,9
2,71,51,3
2,67,51,12
2,71,47,17
2,67,41,9
2,71,48,2
2,67,46,3
2,71,45,2
2,67,34,10
2,71,42,15
2,67,51,5
2,71,25,0
2,71,46,27
2,64,33,19
2,60,31,15
2,64,45,1
2,60,51,13
2,64,46,0
2,60,50,10
2,64,50,3
2,60,43,10
2,64,46,5
2,60,53,1
2,64,55,6
2,60,58,9
2,64,52,4
2,60,52,10
2,64,53,5
2,60,51,6
2,64,45,6
2,60,51,10
2,64,45,0
2,60,45,11
2,64,40,1
2,60,42,12
2,64,42,13
2,60,29,13
2,64,36,5
2,60,26,9
2,64,41,0
2,60,27,11
2,64,20,11
2,64,33,9
2,60,50,5
2,64,35,12
2,60,50,7
2,64,41,9
2,60,52,8
2,64,55,4
2,60,58,10
2,60,53,25
2,64,52,1
