track,note,velocity,time
0,45,113,0
0,55,72,240
0,52,85,240
0,64,97,240
0,55,72,60
0,64,109,45
0,55,72,44
0,45,112,25
0,55,73,188
0,52,85,240
0,64,96,240
0,55,72,60
0,64,109,53
0,55,73,8
0,45,112,25
0,55,72,188
0,52,85,240
0,64,96,218
0,55,73,60
0,64,109,40
0,55,72,44
0,50,107,0
0,62,72,119
0,57,66,240
0,65,83,240
0,57,61,2
0,62,106,54
0,57,64,27
0,50,107,2
0,62,73,229
0,57,66,164
0,65,82,240
0,57,61,104
0,62,106,43
0,57,65,27
0,45,113,2
0,55,72,28
0,52,85,240
0,64,96,240
0,55,72,60
0,64,109,53
0,55,73,44
0,45,112,3
0,55,72,18
0,52,85,118
0,64,97,240
0,55,72,60
0,61,96,53
0,55,73,44
0,45,112,25
0,55,73,188
0,52,85,240
0,64,96,240
0,55,73,60
0,62,90,29
0,61,88,0
0,50,107,0
0,62,73,197
0,57,66,240
0,65,82,240
0,57,61,104
0,62,107,2
0,57,64,12
0,50,106,2
0,62,73,229
0,57,66,240
0,65,83,240
0,57,61,104
0,62,106,39
0,57,65,27
0,45,112,0
0,76,105,196
0,55,72,33
0,76,104,142
0,52,85,22
0,77,105,13
0,61,83,12
0,79,105,62
0,55,72,60
0,64,108,53
0,55,73,44
0,45,113,25
0,76,104,181
0,55,72,7
0,76,105,149
0,52,84,4
0,77,104,8
0,61,83,5
0,79,104,21
0,55,72,0
0,64,109,53
0,55,73,44
0,45,112,25
0,55,73,188
0,76,105,1
0,76,105,59
0,52,84,3
0,77,104,18
0,61,82,7
0,79,104,41
0,55,73,60
0,64,109,25
0,77,105,27
0,76,105,2
0,55,72,5
0,74,104,2
0,50,106,0
0,73,104,176
0,62,73,10
0,74,105,14
0,57,67,13
0,76,104,2
0,65,82,22
0,77,105,19
0,57,68,0
0,62,107,54
0,57,74,5
0,50,107,2
0,74,105,210
0,62,73,19
0,74,104,85
0,57,66,25
0,76,105,1
0,65,83,28
0,77,104,226
0,57,68,54
0,77,104,1
0,62,106,2
0,76,105,5
0,74,105,8
0,57,75,2
0,45,113,2
0,76,104,5
0,55,72,3
0,76,104,142
0,52,84,22
0,77,105,13
0,61,83,12
0,79,105,62
0,55,73,60
0,64,108,53
0,55,72,44
0,52,49,0
0,57,48,0
0,61,49,0
0,52,55,0
0,57,54,0
0,61,55,0
0,45,113,25
0,76,104,181
0,55,72,7
0,76,104,149
0,52,85,4
0,77,105,8
0,61,83,5
0,79,104,21
0,55,72,0
0,64,109,53
0,55,72,44
0,52,53,0
0,57,52,0
0,61,53,0
0,52,57,0
0,57,56,0
0,61,57,0
0,45,112,25
0,55,73,34
0,76,105,0
0,52,85,63
0,76,105,0
0,61,82,23
0,77,104,0
0,79,105,17
0,67,56,6
0,55,72,19
0,81,104,0
0,69,54,1
0,64,109,19
0,77,104,0
0,55,73,34
0,76,105,0
0,50,106,0
0,74,105,0
0,62,72,0
0,73,104,0
0,74,104,2
0,57,67,13
0,76,105,2
0,65,82,22
0,77,105,19
0,57,69,3
0,62,107,0
0,57,74,5
0,50,59,0
0,53,59,0
0,57,58,0
0,62,58,0
0,50,44,0
0,53,44,0
0,57,45,0
0,62,45,0
0,50,107,2
0,74,104,3
0,62,72,19
0,74,104,85
0,57,66,25
0,76,105,1
0,65,83,33
0,77,104,226
0,62,87,54
0,77,105,1
0,57,96,2
0,76,105,5
0,74,104,8
0,50,86,2
0,64,49,224
0,34,85,2
0,46,105,0
0,52,40,0
0,57,41,0
0,58,41,0
0,62,40,0
0,52,74,0
0,57,64,0
0,58,51,0
0,62,67,0
0,74,105,2
0,64,49,12
0,57,93,13
0,64,52,125
0,34,84,7
0,52,78,0
0,64,52,129
0,62,100,13
0,52,41,0
0,57,41,0
0,58,40,0
0,62,40,0
0,52,64,0
0,57,66,0
0,58,55,0
0,62,74,0
0,64,53,12
0,34,85,7
0,64,53,55
0,52,83,13
0,64,52,34
0,34,85,7
0,57,92,0
0,64,52,30
0,38,84,7
0,52,91,0
0,64,53,125
0,34,85,0
0,46,105,0
0,52,40,0
0,57,41,0
0,58,41,0
0,62,40,0
0,52,75,0
0,58,69,0
0,62,80,0
0,64,53,12
0,57,92,13
0,64,52,125
0,34,86,7
0,52,79,0
0,64,52,129
0,62,100,13
0,52,41,0
0,57,41,0
0,58,40,0
0,62,40,0
0,52,71,0
0,57,74,0
0,58,54,0
0,62,71,0
0,64,53,12
0,34,88,7
0,64,53,55
0,52,82,13
0,64,52,34
0,41,87,7
0,57,93,0
0,64,52,30
0,52,91,13
0,64,53,125
0,73,104,0
0,33,87,0
0,45,96,0
0,52,40,0
0,57,41,0
0,61,41,0
0,52,65,0
0,57,64,0
0,61,74,0
0,70,104,64
0,69,105,1
0,64,52,12
0,57,88,13
0,64,53,125
0,33,90,7
0,52,77,0
0,64,52,129
0,37,88,7
0,61,93,0
0,52,40,0
0,57,41,0
0,61,41,0
0,52,67,0
0,57,77,0
0,61,68,0
0,64,52,12
0,33,89,7
0,64,52,59
0,52,84,13
0,64,53,25
0,40,89,7
0,57,76,0
0,64,53,79
0,38,88,7
0,52,81,0
0,64,52,114
0,33,86,7
0,45,96,0
0,52,40,0
0,57,41,0
0,61,40,0
0,52,76,0
0,57,65,0
0,61,82,0
0,64,53,12
0,57,75,0
0,64,53,74
0,33,91,7
0,52,83,0
0,64,52,71
0,61,92,13
0,52,41,0
0,57,40,0
0,61,40,0
0,52,75,0
0,57,71,0
0,61,88,0
0,64,53,12
0,33,90,7
0,64,53,119
0,52,85,13
0,64,52,7
0,33,91,7
0,64,90,0
0,64,52,129
0,61,80,13
0,64,49,7
0,34,85,7
0,46,105,0
0,52,41,0
0,57,40,0
0,58,40,0
0,62,41,0
0,52,75,0
0,57,64,0
0,58,50,0
0,62,67,0
0,74,105,9
0,64,48,12
0,57,93,13
0,74,104,5
0,64,53,120
0,34,84,7
0,52,78,0
0,64,53,129
0,62,100,13
0,52,40,0
0,57,41,0
0,58,40,0
0,62,40,0
0,52,65,0
0,57,66,0
0,58,54,0
0,62,75,0
0,74,104,15
0,64,53,12
0,74,105,4
0,34,85,3
0,64,53,55
0,52,83,13
0,64,52,34
0,41,84,7
0,57,93,0
0,64,52,30
0,74,105,9
0,52,90,4
0,64,53,125
0,34,84,0
0,46,104,0
0,52,41,0
0,57,40,0
0,58,40,0
0,62,41,0
0,52,75,0
0,58,68,0
0,62,80,0
0,74,104,34
0,64,52,12
0,57,93,13
0,64,53,125
0,34,85,7
0,52,78,0
0,64,53,9
0,62,101,13
0,52,40,0
0,57,41,0
0,58,40,0
0,62,40,0
0,52,71,0
0,57,74,0
0,58,55,0
0,62,71,0
0,74,104,8
0,64,53,12
0,34,85,7
0,64,53,10
0,52,83,13
0,74,105,21
0,64,52,34
0,41,84,7
0,57,92,0
0,74,104,60
0,64,52,30
0,46,107,13
0,52,90,0
0,64,53,5
0,33,84,0
0,45,96,0
0,52,41,0
0,57,40,0
0,61,40,0
0,52,64,0
0,57,65,0
0,61,74,0
0,73,105,10
0,70,105,30
0,64,53,10
0,69,104,5
0,57,89,8
0,64,52,125
0,33,85,7
0,52,77,0
0,64,53,129
0,61,92,13
0,52,41,0
0,57,40,0
0,61,41,0
0,52,66,0
0,57,77,0
0,61,69,0
0,64,52,12
0,33,85,7
0,64,52,59
0,52,84,13
0,64,53,14
0,40,84,2
0,57,77,0
0,64,53,79
0,52,81,13
0,64,52,104
0,33,84,0
0,45,96,0
0,52,40,0
0,57,41,0
0,61,41,0
0,52,64,0
0,57,64,0
0,61,75,0
0,64,52,12
0,57,74,13
0,64,52,71
0,33,85,7
0,52,83,0
0,64,53,71
0,61,92,13
0,52,40,0
0,57,41,0
0,61,41,0
0,52,67,0
0,57,76,0
0,61,68,0
0,43,75,18
0,77,77,6
0,89,71,6
0,64,52,0
0,65,96,5
0,33,84,7
0,76,80,98
0,88,63,5
0,64,98,4
0,64,53,9
0,37,85,0
0,52,85,0
0,74,81,73
0,62,97,2
0,86,56,3
0,64,52,17
0,40,85,0
0,64,91,0
0,72,75,98
0,60,96,5
0,84,50,2
0,64,52,11
0,37,84,0
0,61,80,0
0,84,57,0
0,34,99,0
0,70,75,0
0,65,45,0
0,77,45,0
0,59,97,0
0,54,49,0
0,58,65,0
0,62,64,0
0,65,65,0
0,46,61,0
0,53,60,0
0,58,61,0
0,62,61,0
0,58,97,0
0,82,50,2
0,52,104,0
0,77,105,20
0,54,48,144
0,34,100,7
0,54,47,0
0,59,97,13
0,54,47,0
0,52,105,12
0,82,53,0
0,34,98,3
0,54,48,0
0,74,104,12
0,54,51,33
0,77,104,4
0,34,99,3
0,54,50,0
0,85,89,0
0,41,101,7
0,54,50,0
0,34,100,7
0,59,96,0
0,54,49,0
0,77,105,8
0,52,105,4
0,54,49,22
0,77,105,23
0,34,106,7
0,54,46,0
0,59,96,30
0,54,46,0
0,52,104,12
0,82,52,0
0,29,103,7
0,54,49,0
0,34,105,7
0,54,51,0
0,38,102,7
0,54,50,0
0,85,88,0
0,29,106,7
0,54,50,0
0,34,99,0
0,59,97,0
0,54,49,0
0,52,105,12
0,54,48,14
0,75,45,6
0,34,100,4
0,54,47,0
0,59,96,190
0,54,47,0
0,75,40,10
0,52,104,2
0,82,53,0
0,34,99,7
0,54,48,0
0,54,51,190
0,75,43,91
0,34,99,7
0,54,50,0
0,85,89,0
0,41,100,7
0,54,50,0
0,74,104,13
0,34,99,7
0,59,97,0
0,54,49,0
0,77,104,5
0,52,105,7
0,54,49,48
0,77,105,11
0,75,45,96
0,34,100,7
0,54,46,0
0,77,105,22
0,59,96,20
0,54,46,0
0,75,40,10
0,52,104,2
0,82,53,0
0,77,104,6
0,34,98,7
0,54,49,0
0,77,104,16
0,54,51,35
0,77,105,6
0,75,43,91
0,77,104,3
0,34,99,0
0,54,50,0
0,85,89,0
0,41,101,7
0,54,50,0
0,34,98,7
0,59,97,0
0,54,49,0
0,52,104,1
0,54,48,144
0,77,105,21
0,75,44,75
0,34,100,7
0,54,47,0
0,77,105,54
0,59,97,100
0,54,47,0
0,75,40,10
0,52,105,2
0,82,52,0
0,77,104,46
0,34,99,7
0,54,48,0
0,38,99,0
0,54,51,0
0,77,105,38
0,75,43,21
0,41,100,7
0,54,50,0
0,85,88,0
0,77,104,60
0,38,100,7
0,54,50,0
0,64,44,0
0,76,44,3
0,45,60,1
0,57,61,0
0,60,60,6
0,52,60,0
0,33,101,7
0,59,96,0
0,54,49,0
0,57,65,0
0,60,64,0
0,64,65,0
0,52,105,12
0,76,104,3
0,54,49,144
0,76,105,63
0,33,100,7
0,54,46,0
0,59,96,190
0,54,46,0
0,52,104,12
0,82,53,0
0,33,101,7
0,54,49,0
0,54,51,190
0,75,43,5
0,33,101,4
0,54,50,0
0,85,89,0
0,40,100,0
0,54,50,0
0,33,101,0
0,59,97,0
0,54,49,0
0,52,105,12
0,54,48,144
0,33,100,7
0,54,47,0
0,59,96,190
0,54,47,0
0,52,104,12
0,82,52,0
0,28,100,7
0,54,48,0
0,33,101,0
0,54,51,0
0,75,42,21
0,36,101,0
0,54,50,0
0,85,88,0
0,33,100,0
0,54,50,0
0,74,105,2
0,29,94,0
0,62,45,0
0,74,45,0
0,59,97,0
0,54,49,0
0,57,64,0
0,59,64,0
0,62,65,0
0,53,61,0
0,57,61,0
0,62,60,0
0,52,105,0
0,35,89,7
0,54,49,0
0,38,93,7
0,54,46,0
0,35,88,7
0,59,96,0
0,54,46,0
0,52,104,12
0,82,52,0
0,71,104,5
0,38,92,7
0,54,49,0
0,54,51,190
0,75,42,91
0,38,93,7
0,54,50,0
0,85,88,0
0,74,104,35
0,35,92,7
0,54,50,0
0,29,89,7
0,59,97,0
0,54,49,0
0,52,104,12
0,74,105,6
0,54,48,144
0,74,105,31
0,29,89,89
0,54,47,0
0,59,97,190
0,54,47,0
0,52,105,12
0,82,53,0
0,29,92,120
0,54,48,0
0,54,51,190
0,75,43,21
0,35,93,7
0,54,50,0
0,85,89,0
0,70,104,138
0,54,50,19
0,74,104,41
0,34,92,7
0,59,96,0
0,54,49,0
0,53,65,0
0,58,64,0
0,58,60,0
0,52,105,11
0,54,49,55
0,74,105,2
0,34,96,45
0,74,104,0
0,54,46,0
0,74,105,49
0,59,96,3
0,54,46,0
0,52,104,12
0,82,53,0
0,74,105,32
0,34,95,25
0,54,49,0
0,74,104,50
0,54,51,14
0,75,43,21
0,74,105,36
0,34,93,8
0,54,50,0
0,85,89,0
0,41,92,7
0,54,50,0
0,34,92,7
0,59,97,0
0,54,49,0
0,52,105,12
0,74,104,63
0,54,48,15
0,34,93,43
0,54,47,0
0,74,104,2
0,59,96,35
0,54,47,0
0,74,105,7
0,52,104,5
0,82,52,0
0,34,93,57
0,54,48,0
0,74,105,15
0,38,96,7
0,54,51,0
0,74,104,15
0,75,42,6
0,41,92,7
0,54,50,0
0,85,88,0
0,74,104,39
0,38,89,7
0,54,50,0
0,33,94,0
0,64,44,0
0,76,44,0
0,59,97,0
0,54,49,0
0,57,64,0
0,60,65,0
0,64,65,0
0,57,61,0
0,60,61,0
0,52,105,0
0,72,105,6
0,54,49,144
0,72,105,67
0,33,93,57
0,54,46,0
0,59,96,190
0,54,46,0
0,52,104,12
0,82,52,0
0,33,95,57
0,54,49,0
0,54,51,190
0,75,42,91
0,33,92,49
0,54,50,0
0,85,88,0
0,36,93,7
0,54,50,0
0,33,92,7
0,59,97,0
0,54,49,0
0,52,104,12
0,54,48,144
0,33,98,57
0,54,47,0
0,59,97,190
0,54,47,0
0,52,105,12
0,82,53,0
0,28,99,7
0,54,48,0
0,33,101,7
0,54,51,0
0,75,43,21
0,72,104,1
0,36,96,7
0,54,50,0
0,85,89,0
0,33,98,7
0,54,50,0
0,74,104,1
0,34,93,0
0,65,45,0
0,77,44,0
0,59,96,0
0,54,49,0
0,58,64,0
0,62,64,0
0,65,65,0
0,53,54,0
0,58,54,0
0,62,55,0
0,52,105,5
0,54,49,144
0,75,42,70
0,34,97,57
0,54,46,0
0,59,96,190
0,54,46,0
0,75,43,0
0,52,104,12
0,82,53,0
0,34,94,57
0,54,49,0
0,54,51,190
0,75,43,91
0,34,92,49
0,54,50,0
0,85,89,0
0,38,93,7
0,54,50,0
0,34,92,7
0,59,97,0
0,54,49,0
0,52,105,12
0,54,48,144
0,70,105,50
0,75,42,19
0,34,93,57
0,54,47,0
0,72,104,11
0,59,96,48
0,54,47,0
0,75,43,0
0,52,104,12
0,82,52,0
0,29,93,7
0,54,48,0
0,70,105,16
0,34,96,7
0,54,51,0
0,75,42,21
0,38,93,7
0,54,50,0
0,85,88,0
0,34,88,7
0,54,50,0
0,33,94,0
0,64,45,0
0,76,45,0
0,59,97,0
0,54,49,0
0,57,64,0
0,60,65,0
0,64,65,0
0,52,54,0
0,57,55,0
0,60,55,0
0,69,105,0
0,52,105,1
0,54,49,144
0,75,42,70
0,33,93,57
0,54,46,0
0,59,96,2
0,54,46,0
0,75,43,0
0,52,104,4
0,82,52,0
0,33,95,2
0,54,49,0
0,54,51,82
0,75,43,91
0,33,92,49
0,54,50,0
0,85,88,0
0,36,92,7
0,54,50,0
0,33,93,7
0,59,97,0
0,54,49,0
0,52,104,12
0,54,48,144
0,75,42,70
0,33,99,57
0,54,47,0
0,59,97,190
0,54,47,0
0,75,42,0
0,52,105,12
0,82,53,0
0,28,98,7
0,54,48,0
0,57,54,0
0,33,100,7
0,54,51,0
0,75,43,21
0,36,97,7
0,54,50,0
0,85,89,0
0,33,98,7
0,54,50,0
0,84,60,0
0,33,85,0
0,45,113,0
0,59,96,0
0,54,49,0
0,52,105,6
0,33,83,38
0,55,72,0
0,54,49,0
0,76,104,8
0,76,105,112
0,52,84,2
0,54,46,0
0,33,86,7
0,61,83,0
0,59,96,0
0,54,46,0
0,79,104,3
0,52,104,9
0,82,52,0
0,33,87,38
0,54,49,0
0,79,104,10
0,55,73,60
