track,note,velocity,time
2,26,88,2772
2,32,116,1
2,38,116,1
2,40,94,5
2,40,0,186
2,35,95,6
2,35,0,186
2,33,96,6
2,33,0,378
2,38,106,6
2,38,0,702
2,33,113,18
2,33,0,35
2,26,118,13
2,26,0,376
2,30,106,8
2,30,0,376
2,35,101,8
2,35,0,376
2,33,90,8
2,33,0,376
2,32,76,8
2,33,70,8
2,35,70,9
2,33,70,9
2,35,78,9
2,35,0,186
2,37,76,6
2,37,0,186
2,38,70,6
2,38,0,751
2,38,58,17
2,38,0,762
2,26,110,0
2,26,110,19
2,26,110,40
2,33,107,1
2,38,105,40
2,26,110,21
2,26,88,65
2,26,110,39
2,26,110,39
2,33,110,5
2,38,110,1
2,33,110,1
2,30,110,8
2,30,90,24
2,30,105,36
2,30,110,14
2,30,90,24
2,42,95,10
2,35,110,3
2,35,90,24
2,33,105,36
2,32,101,14
2,32,84,24
2,44,88,36
2,30,88,14
2,35,88,14
2,33,90,14
2,35,90,14
2,37,90,14
2,38,110,14
2,26,90,14
2,26,105,36
2,33,90,4
2,38,100,4
2,26,85,14
2,26,93,38
2,33,100,5
2,33,101,14
2,33,102,14
2,33,104,14
2,31,105,14
2,31,100,14
2,31,107,14
2,31,102,14
2,31,108,14
2,31,103,14
2,31,109,14
2,31,105,14
2,26,120,0
2,26,115,19
2,26,0,74
2,26,120,22
2,26,120,19
2,26,100,12
2,26,117,32
2,30,115,38
2,35,120,21
2,35,100,24
2,33,115,36
2,32,120,14
2,32,100,24
2,32,105,10
2,38,119,3
2,38,112,36
2,38,100,24
2,38,115,36
2,38,98,14
2,38,0,47
2,33,92,1
2,33,0,47
2,38,98,1
2,38,0,47
2,40,118,1
2,40,0,186
2,35,116,6
2,35,0,186
2,33,119,6
2,33,0,378
2,26,120,6
2,26,115,19
2,26,0,74
2,26,120,22
2,26,100,19
2,26,117,32
2,26,120,38
2,26,100,12
2,30,115,30
2,35,120,21
2,35,100,24
2,33,115,36
2,32,120,14
2,32,100,24
2,32,105,36
2,32,104,14
2,26,119,14
2,26,100,11
2,35,115,36
2,35,93,14
2,35,0,31
2,33,118,17
2,33,0,275
2,28,110,13
2,28,0,40
2,33,105,8
2,33,0,42
2,33,119,6
2,33,0,186
2,33,116,6
2,33,0,186
2,34,119,6
2,34,0,90
2,34,111,6
2,34,0,90
2,34,116,6
2,34,0,90
2,34,110,6
2,34,0,90
2,34,119,6
2,34,0,90
2,34,111,6
2,34,0,90
2,34,116,6
2,34,0,90
2,34,109,6
2,34,0,90
2,27,120,6
2,27,115,19
2,27,0,74
2,27,120,22
2,34,115,19
2,34,0,74
2,39,120,22
2,27,100,12
2,27,117,32
2,31,115,38
2,43,98,10
2,36,118,10
2,36,99,24
2,34,106,36
2,34,97,14
2,33,93,36
2,34,70,24
2,34,0,378
2,36,64,6
2,36,0,378
2,34,74,6
2,34,0,762
2,39,90,6
2,39,0,762
2,27,90,6
2,27,0,762
3,30,86,4309
3,62,83,19
3,59,80,15
3,64,89,566
3,58,83,4
3,35,76,170
3,54,61,17
3,62,100,22
3,54,79,44
3,33,83,4
3,61,98,1
3,32,80,196
3,50,70,0
3,59,96,2
3,42,89,20
3,54,76,4
3,57,77,1
3,57,102,2
3,62,98,1
3,54,73,4
3,57,73,2
3,62,73,0
3,35,81,1
3,54,80,1
3,57,80,1
3,62,80,0
3,52,73,4
3,57,73,2
3,62,83,0
3,45,85,1
3,43,84,337
3,50,77,6
3,62,103,0
3,58,103,1
3,45,91,4
3,57,92,0
3,64,103,0
3,49,90,1
3,50,101,11
3,62,101,0
3,55,101,1
3,38,101,1
3,54,76,772
3,26,120,13
3,62,110,571
3,67,117,0
3,57,106,1
3,62,80,7
3,66,93,0
3,57,79,1
3,62,82,6
3,62,98,9
3,67,106,1
3,57,90,1
3,62,85,6
3,66,90,0
3,57,83,1
3,30,82,735
3,52,71,23
3,59,74,1
3,64,79,0
3,71,102,3
3,71,98,9
3,70,97,14
3,35,76,723
3,54,61,17
3,62,100,6
3,54,79,44
3,33,83,4
3,61,98,1
3,32,80,364
3,50,70,0
3,59,96,2
3,42,86,20
3,54,81,4
3,57,82,1
3,62,80,3
3,57,116,2
3,62,119,1
3,54,73,4
3,57,73,2
3,62,73,0
3,47,81,1
3,54,79,1
3,57,78,1
3,62,80,0
3,52,73,4
3,57,73,2
3,62,83,0
3,45,85,1
3,47,92,337
3,62,113,0
3,67,115,0
3,59,116,1
3,57,91,4
3,64,88,0
3,69,88,0
3,49,87,1
3,50,94,11
3,62,95,0
3,55,96,1
3,38,92,1
3,50,58,25
3,54,76,0
3,45,113,1
3,57,110,0
3,61,112,0
3,57,110,13
3,62,110,1
3,57,112,6
3,64,111,0
3,57,110,13
3,61,108,0
3,61,120,8
3,43,121,1
3,57,122,0
3,57,120,14
3,62,119,1
3,57,121,6
3,64,124,1
3,57,125,10
3,61,127,0
3,38,107,5
3,50,110,0
3,57,109,0
3,62,110,0
3,67,110,0
3,50,97,14
3,57,94,0
3,38,95,1
3,62,93,0
3,66,90,0
3,42,107,10
3,58,98,0
3,64,109,1
3,67,103,1
3,66,109,17
3,62,102,1
3,47,93,1
3,59,93,0
3,66,86,3
3,57,86,4
3,62,86,0
3,45,86,1
3,44,102,7
3,56,102,0
3,62,102,0
3,59,102,2
3,59,82,13
3,56,82,1
3,62,82,1
3,44,82,1
3,44,96,10
3,56,96,0
3,59,96,2
3,62,96,1
3,38,102,14
3,54,102,0
3,62,102,0
3,57,102,2
3,54,86,16
3,57,87,2
3,62,89,1
3,40,109,14
3,56,110,0
3,59,109,0
3,64,108,0
3,35,107,12
3,55,107,0
3,59,107,0
3,62,107,0
3,33,112,12
3,55,112,0
3,61,112,0
3,64,112,0
3,45,102,12
3,55,102,0
3,61,102,0
3,64,102,0
3,38,108,12
3,50,110,0
3,57,109,0
3,62,110,0
3,67,113,0
3,50,92,14
3,57,92,0
3,62,90,1
3,66,90,0
3,45,117,60
3,45,0,8
3,38,124,7
3,42,107,10
3,58,98,0
3,61,109,1
3,67,103,1
3,66,96,100
3,64,103,4
3,59,102,1
3,47,93,1
3,54,93,0
3,66,96,1
3,54,86,7
3,57,86,0
3,62,86,0
3,45,86,1
3,44,80,3
3,56,80,0
3,62,80,0
3,59,80,2
3,62,71,16
3,45,70,3
3,62,70,0
3,66,70,0
3,54,70,2
3,47,60,15
3,45,70,13
3,62,70,0
3,64,70,0
3,57,70,2
3,47,90,21
3,62,90,1
3,55,90,1
3,59,90,0
3,64,89,11
3,49,75,2
3,57,75,0
3,55,75,2
3,50,68,13
3,67,68,1
3,62,68,2
3,57,68,1
3,38,56,1
3,50,55,1
3,57,57,2
3,62,55,3
3,66,58,4
3,26,116,2
3,62,110,569
3,67,117,0
3,57,106,1
3,62,83,7
3,66,93,0
3,57,82,1
3,57,99,17
3,62,101,2
3,66,104,0
3,62,0,285
3,62,86,1
3,57,0,95
3,57,81,2
3,54,75,98
3,57,0,80
3,62,0,0
3,66,0,10
3,62,98,6
3,67,106,1
3,57,90,1
3,62,84,6
3,66,88,0
3,57,80,1
3,64,88,664
3,64,0,42
3,66,80,3
3,42,92,23
3,71,106,19
3,66,0,3
3,64,94,5
3,71,101,12
3,70,97,11
3,47,89,723
3,54,92,17
3,62,100,1
3,54,93,44
3,45,95,4
3,61,101,1
3,44,85,364
3,50,89,0
3,59,96,2
3,42,89,20
3,54,76,4
3,57,77,1
3,57,116,2
3,62,119,1
3,54,73,4
3,57,73,2
3,62,73,0
3,47,81,1
3,54,80,1
3,57,80,1
3,62,80,0
3,52,73,4
3,57,73,2
3,62,83,0
3,45,85,1
3,47,110,337
3,62,113,0
3,67,115,0
3,59,116,1
3,57,92,4
3,64,92,0
3,69,92,0
3,49,90,1
3,50,101,11
3,62,101,0
3,55,101,1
3,38,101,1
3,69,83,477
3,69,0,95
3,74,81,1
3,74,0,95
3,79,80,1
3,79,0,95
3,78,83,8
3,45,120,1
3,57,125,0
3,61,125,0
3,57,122,13
3,62,118,1
3,57,124,6
3,64,127,0
3,57,117,0
3,61,122,0
3,61,124,8
3,43,124,1
3,57,127,0
3,57,126,14
3,62,122,1
3,57,117,6
3,64,127,1
3,57,124,10
3,61,125,0
3,38,117,3
3,50,120,0
3,57,119,0
3,62,120,0
3,67,120,0
3,50,103,14
3,57,105,0
3,38,108,1
3,62,106,0
3,66,105,0
3,50,100,14
3,57,100,0
3,54,100,1
3,62,100,0
3,42,117,10
3,58,108,0
3,64,119,1
3,67,113,1
3,66,119,17
3,62,112,1
3,47,103,1
3,59,103,0
3,66,101,3
3,57,100,4
3,62,100,0
3,45,100,1
3,44,99,7
3,56,98,0
3,62,99,0
3,59,100,2
3,59,100,13
3,56,99,1
3,62,100,1
3,44,100,1
3,44,106,10
3,56,106,0
3,59,106,2
3,62,106,1
3,38,112,14
3,54,112,0
3,62,112,0
3,57,112,2
3,54,101,16
3,57,101,2
3,62,101,1
3,40,114,14
3,56,114,0
3,59,114,0
3,64,114,0
3,35,105,12
3,55,105,0
3,59,105,0
3,62,105,0
3,33,110,12
3,55,110,0
3,61,110,0
3,64,110,0
3,45,110,12
3,55,106,0
3,61,103,0
3,64,108,0
3,38,115,12
3,50,116,0
3,57,116,0
3,62,115,0
3,67,118,0
3,50,108,14
3,57,108,0
3,62,110,1
3,66,107,0
3,45,118,60
3,45,0,8
3,38,125,7
3,42,108,10
3,58,106,0
3,61,109,1
3,67,107,1
3,66,98,100
3,64,107,4
3,59,107,1
3,47,105,1
3,54,105,0
3,66,97,1
3,54,103,7
3,57,103,0
3,62,103,0
3,45,103,1
3,44,102,7
3,56,102,0
3,62,102,0
3,59,102,2
3,62,93,16
3,45,102,3
3,62,102,0
3,66,102,0
3,54,102,2
3,47,100,13
3,62,102,0
3,71,102,0
3,54,102,2
3,45,107,13
3,62,107,0
3,64,107,0
3,55,107,2
3,59,107,0
3,45,107,21
3,64,107,1
3,55,107,1
3,59,107,0
3,62,107,0
3,64,107,11
3,45,97,2
3,62,97,0
3,55,97,2
3,59,97,0
3,46,110,1
3,56,105,0
3,60,112,0
3,63,112,0
3,70,114,0
3,46,112,16
3,56,111,0
3,60,109,0
3,63,111,0
3,70,113,0
3,46,112,19
3,56,110,0
3,60,110,0
3,63,111,0
3,70,113,0
3,46,112,2
3,56,111,0
3,60,111,0
3,63,114,0
3,70,118,0
3,39,121,16
3,51,120,0
3,58,120,0
3,63,118,0
3,68,120,0
3,51,103,14
3,58,108,0
3,39,102,1
3,63,101,0
3,67,104,0
3,51,100,14
3,58,102,0
3,39,101,1
3,55,100,0
3,63,104,0
3,43,113,10
3,59,104,0
3,62,115,1
3,68,115,1
3,67,117,15
3,65,122,17
3,55,108,1
3,48,104,1
3,60,103,0
3,67,107,12
3,67,0,9
3,55,101,3
3,58,101,4
3,63,117,0
3,46,101,1
3,65,107,8
3,65,0,7
3,60,122,3
3,45,104,7
3,51,104,0
3,57,104,0
3,69,90,565
3,77,106,13
3,70,101,3
3,46,98,10
3,55,98,0
3,75,91,4
3,48,91,9
3,63,90,2
3,70,92,1
3,70,88,11
3,63,91,1
3,46,93,2
3,58,88,0
3,70,91,9
3,63,88,17
3,58,79,12
3,51,95,2
3,63,91,0
3,68,93,1
3,70,98,1
3,39,91,1
3,58,91,0
3,63,91,0
3,67,86,7
4,66,90,1292
4,66,83,11
4,64,83,1
4,62,74,3
4,66,86,144
4,67,86,1
4,69,89,2
4,71,87,1
4,73,83,8
4,74,84,1
4,66,75,1
4,66,85,170
4,67,81,6
4,69,91,1
4,71,89,1
4,73,91,3
4,74,91,7
4,78,89,3
4,76,63,39
4,74,83,1
4,73,90,1
4,76,78,341
4,78,94,1
4,76,76,1
4,74,78,2
4,73,85,1
4,66,80,1
4,74,80,6
4,74,85,657
4,73,86,1
4,76,86,2
4,74,77,1
4,73,85,1
4,74,82,1
4,69,83,1
4,62,75,1
4,69,84,74
4,71,82,1
4,69,82,2
4,67,85,261
4,67,90,18
4,66,80,31
4,66,86,22
4,66,87,116
4,66,0,75
4,66,83,21
4,64,83,1
4,62,74,3
4,66,86,347
4,67,86,1
4,69,89,2
4,71,87,1
4,73,83,8
4,74,84,1
4,66,75,1
4,66,85,170
4,67,81,6
4,69,91,1
4,71,89,1
4,73,91,3
4,74,91,7
4,78,89,3
4,76,63,98
4,74,83,1
4,73,90,1
4,76,78,341
4,78,94,1
4,76,76,1
4,74,78,2
4,73,85,1
4,66,80,1
4,74,80,6
4,74,85,657
4,73,86,1
4,76,86,2
4,74,77,1
4,73,85,1
4,74,82,1
4,69,83,1
4,62,75,1
4,69,84,74
4,71,82,1
4,69,82,2
4,67,85,261
4,67,90,18
4,66,80,31
4,66,86,22
4,69,119,1364
4,74,116,1
4,76,121,2
4,79,119,6
4,78,102,6
4,78,110,16
4,69,111,105
4,79,103,1
4,78,102,1
4,76,109,6
4,74,100,11
4,74,107,23
4,74,107,150
4,73,105,189
4,74,103,2
4,78,102,1
4,76,96,7
4,76,98,14
4,74,96,1
4,74,97,18
4,69,98,11
4,78,100,1
4,76,102,13
4,76,106,24
4,74,99,3
4,76,107,96
4,69,104,2
4,74,107,95
4,76,104,5
4,79,117,9
4,78,102,6
4,78,105,16
4,76,104,13
4,76,0,90
4,74,102,6
4,74,0,283
4,69,98,1
4,79,100,1
4,78,98,1
4,76,104,6
4,78,97,11
4,74,102,23
4,76,98,15
4,71,98,15
4,74,99,6
4,73,100,189
4,74,99,2
4,69,99,96
4,66,99,1
4,66,96,64
4,64,97,1
4,62,85,1
4,69,90,1
4,67,75,1
4,67,83,32
4,67,87,34
4,66,88,1
4,66,96,14
4,66,0,43
4,66,93,5
4,64,93,1
4,62,84,3
4,66,96,347
4,67,96,1
4,69,99,2
4,71,97,1
4,73,93,8
4,74,94,1
4,66,89,1
4,66,95,170
4,67,91,6
4,69,101,1
4,71,99,1
4,73,101,3
4,74,101,7
4,78,99,3
4,76,73,98
4,74,93,1
4,73,100,1
4,76,88,341
4,78,104,1
4,76,86,1
4,74,88,2
4,73,95,1
4,66,90,1
4,74,95,6
4,74,95,657
4,73,96,1
4,76,96,2
4,74,87,1
4,73,95,1
4,74,92,1
4,69,93,1
4,62,85,1
4,69,94,74
4,71,92,1
4,69,92,2
4,67,91,261
4,67,100,18
4,66,90,31
4,66,96,22
4,69,117,1364
4,74,116,1
4,76,120,2
4,79,112,6
4,78,111,6
4,78,111,16
4,69,111,105
4,79,113,1
4,78,111,1
4,76,112,6
4,74,104,11
4,74,111,23
4,74,112,150
4,73,113,189
4,74,112,2
4,78,112,1
4,76,109,7
4,76,111,14
4,74,109,1
4,74,110,18
4,69,111,11
4,78,113,1
4,76,106,13
4,76,112,24
4,74,112,3
4,76,111,96
4,69,112,2
4,74,111,95
4,76,110,5
4,79,112,9
4,78,111,6
4,78,111,16
4,76,111,13
4,76,0,90
4,74,111,6
4,74,0,283
4,69,111,1
4,79,113,1
4,78,111,1
4,76,112,6
4,78,104,11
4,74,111,23
4,76,111,15
4,71,111,15
4,74,112,6
4,73,113,189
4,74,112,2
4,69,112,2
4,66,112,12
4,76,114,16
4,74,109,10
4,81,119,10
4,82,127,5
4,75,111,1730
4,74,112,3
4,75,111,6
4,70,101,12
4,67,100,16
4,67,0,239
4,67,100,47
4,65,89,13
4,65,0,63
4,63,81,38
4,63,0,63
4,70,102,27
4,70,100,15
4,70,100,12
4,70,0,63
4,70,100,40
4,70,0,63
4,80,101,35
4,80,0,760
4,82,103,8
4,82,0,762
5,38,74,48
5,50,84,0
5,57,67,0
5,62,84,0
5,57,108,0
5,57,0,40
5,55,108,0
5,54,108,0
5,57,108,0
5,55,108,0
5,54,108,0
5,42,74,5
5,59,74,0
5,59,0,0
5,54,74,8
5,58,74,0
5,42,0,760
5,58,0,0
5,47,74,5
5,59,74,0
5,47,0,376
5,59,0,0
5,45,74,8
5,57,74,0
5,45,0,376
5,54,0,0
5,57,0,0
5,44,74,8
