track,note,velocity,time
1,48,98,3456
1,48,98,200
1,48,95,180
1,43,78,78
1,48,93,16
1,43,82,64
1,47,100,38
1,47,98,168
1,47,108,180
1,43,82,98
1,47,98,32
1,43,72,84
1,45,120,36
1,45,100,242
1,45,100,208
1,40,74,64
1,45,100,14
1,40,78,94
1,43,78,22
1,43,84,214
1,43,91,184
1,43,71,60
1,43,69,82
1,43,84,74
1,45,80,42
1,47,93,20
1,48,100,16
1,48,95,190
1,48,98,198
1,43,74,86
1,48,89,10
1,43,84,62
1,47,120,40
1,47,84,198
1,47,95,184
1,43,93,106
1,47,89,22
1,43,82,60
1,45,127,34
1,45,108,184
1,45,120,208
1,40,84,86
1,45,127,0
1,40,89,104
1,43,76,30
1,43,89,186
1,43,93,162
1,43,95,66
1,43,93,70
1,43,89,76
1,45,105,16
1,47,108,18
1,48,102,12
1,48,95,198
1,48,100,176
1,43,69,90
1,48,93,24
1,43,80,64
1,47,102,42
1,47,127,206
1,47,105,228
1,43,82,92
1,47,102,16
1,43,93,140
1,45,127,30
1,45,110,210
1,45,110,222
1,40,84,122
1,45,108,12
1,40,84,98
1,40,102,62
1,40,93,134
1,47,110,132
1,40,100,24
1,40,95,136
1,40,102,84
1,40,95,160
1,41,100,60
1,41,108,204
1,41,93,212
1,41,98,194
1,41,84,112
1,48,105,40
1,48,98,212
1,48,98,200
1,43,74,98
1,48,102,20
1,43,100,74
1,38,108,58
1,38,102,180
1,38,102,198
1,38,98,200
1,38,91,122
1,43,105,36
1,43,91,206
1,43,105,194
1,43,106,214
1,45,113,54
1,47,127,46
1,48,102,40
1,48,95,198
1,48,100,176
1,43,69,90
1,48,93,24
1,43,80,64
1,47,102,42
1,47,127,206
1,47,105,228
1,43,82,92
1,47,102,16
1,43,93,140
1,45,127,30
1,45,110,210
1,45,110,222
1,40,84,122
1,45,108,12
1,40,84,98
1,40,102,62
1,40,93,134
1,47,110,132
1,40,100,24
1,40,95,136
1,40,102,84
1,40,95,160
1,41,100,60
1,41,108,204
1,41,93,212
1,41,98,194
1,41,84,112
1,48,105,40
1,48,98,212
1,48,98,200
1,43,74,98
1,48,102,20
1,43,100,74
1,38,108,58
1,38,102,180
1,38,102,198
1,38,98,200
1,38,91,122
1,43,105,36
1,43,91,206
1,43,105,194
1,43,106,214
1,45,113,54
1,47,127,46
1,43,71,40
1,45,74,116
1,47,78,18
1,50,91,108
1,52,80,186
1,53,95,20
1,48,98,224
1,48,84,168
1,48,95,180
1,48,98,200
1,36,98,70
1,41,84,10
1,41,89,156
1,41,98,168
1,41,91,178
1,41,93,120
1,43,61,24
1,43,93,186
1,43,58,50
1,43,78,6
1,43,91,208
1,43,84,118
1,48,102,46
1,48,105,186
1,48,108,202
1,48,105,214
1,48,105,146
1,41,95,34
1,41,93,210
1,41,84,204
1,41,91,196
1,43,84,126
1,43,98,148
1,43,95,200
1,43,91,226
1,48,120,148
1,48,105,208
1,48,102,218
1,48,108,218
1,43,100,236
1,43,102,176
1,43,105,178
1,43,127,210
1,48,98,226
1,48,84,168
1,48,95,180
1,48,98,200
1,36,98,70
1,41,84,10
1,41,89,156
1,41,98,168
1,41,91,178
1,41,93,120
1,43,61,24
1,43,93,186
1,43,58,50
1,43,78,6
1,43,91,208
1,43,84,118
1,48,102,46
1,48,105,186
1,48,108,202
1,48,105,214
1,48,105,146
1,45,102,34
1,45,127,160
1,45,127,136
1,45,100,150
1,45,105,134
1,40,91,10
1,40,108,94
1,40,93,122
1,40,100,144
1,45,108,158
1,38,69,1206
1,38,93,220
1,38,72,166
1,38,63,118
1,38,84,42
1,38,69,236
1,38,93,220
1,38,72,166
1,38,63,118
1,38,84,42
1,38,69,236
1,38,93,220
1,38,72,166
1,38,63,118
1,38,84,42
1,38,69,236
1,38,93,220
1,38,72,166
1,38,63,118
1,38,84,42
1,40,72,236
1,40,84,262
1,33,65,108
1,40,98,32
1,34,101,152
1,34,108,248
1,29,85,138
1,34,101,128
1,33,91,136
1,33,95,252
1,33,95,202
1,33,89,198
1,33,95,192
1,33,95,200
1,33,98,194
1,33,100,212
1,38,95,186
1,38,78,180
1,38,81,180
1,38,89,134
1,33,72,38
1,31,78,46
1,31,93,224
1,31,102,188
1,31,105,214
1,38,102,180
1,38,95,190
1,38,108,176
1,28,11,10
1,31,89,128
1,32,104,84
1,33,108,52
1,25,9,72
1,33,120,128
1,33,102,168
1,33,120,162
1,38,95,202
1,38,78,180
1,38,81,180
1,38,89,134
1,33,72,38
1,31,78,46
1,31,93,224
1,31,102,188
1,31,105,214
1,38,102,180
1,38,95,190
1,38,108,176
1,28,11,10
1,31,89,128
1,32,104,84
1,33,108,52
1,25,9,72
1,33,120,128
1,33,102,168
1,33,120,162
1,38,127,202
1,36,108,768
1,36,93,108
1,36,98,228
1,36,89,222
1,36,100,196
1,31,87,56
1,48,93,6
1,48,86,220
1,48,86,214
1,43,86,90
1,48,86,4
1,43,87,38
1,47,87,28
1,47,87,232
1,47,87,214
1,43,87,78
1,47,87,18
1,43,87,48
1,45,87,12
1,45,87,206
1,45,87,200
1,40,88,52
1,45,88,14
1,40,88,72
1,43,88,20
1,43,88,198
1,43,88,198
1,43,88,126
1,43,88,38
1,45,88,38
1,47,88,24
1,48,100,24
1,48,95,190
1,48,98,198
1,43,74,86
1,48,89,10
1,43,84,62
1,47,120,40
1,47,84,198
1,47,95,184
1,43,93,106
1,47,89,22
1,43,82,60
1,45,127,34
1,45,108,184
1,45,120,208
1,40,84,86
1,45,127,0
1,40,89,104
1,43,76,30
1,43,89,186
1,43,93,162
1,43,95,66
1,43,93,70
1,43,89,76
1,45,105,16
1,47,108,18
1,48,102,12
1,48,95,198
1,48,100,176
1,43,69,90
1,48,93,24
1,43,80,64
1,47,102,42
1,47,127,206
1,47,105,228
1,43,82,92
1,47,102,16
1,43,93,140
1,45,127,30
1,45,110,210
1,45,110,222
1,40,84,122
1,45,108,12
1,40,84,98
1,40,102,62
1,40,93,134
1,47,110,132
1,40,100,24
1,40,95,136
1,40,102,84
1,40,95,160
1,41,100,60
1,41,108,204
1,41,93,212
1,41,98,194
1,41,84,112
1,48,105,40
1,48,98,212
1,48,98,200
1,43,74,98
1,48,102,20
1,43,100,74
1,38,108,58
1,38,102,180
1,38,102,198
1,38,98,200
1,38,91,122
1,43,105,36
1,43,91,206
1,43,105,194
1,43,106,214
1,45,113,54
1,47,127,46
1,43,71,40
1,45,74,116
1,47,78,18
1,50,91,108
1,52,80,186
1,53,95,20
1,48,98,224
1,48,84,168
1,48,95,180
1,48,98,200
1,36,98,70
1,41,84,10
1,41,89,156
1,41,98,168
1,41,91,178
1,41,93,120
1,43,61,24
1,43,93,186
1,43,58,50
1,43,78,6
1,43,91,208
1,43,84,118
1,48,102,46
1,48,105,186
1,48,108,202
1,48,105,214
1,48,105,146
1,41,95,34
1,41,93,210
1,41,84,204
1,41,91,196
1,43,84,126
1,43,98,148
1,43,95,200
1,43,91,226
1,48,120,148
1,48,105,208
1,48,102,218
1,48,108,218
1,43,100,236
1,43,102,176
1,43,105,178
1,43,127,210
1,48,98,226
1,48,84,168
1,48,95,180
1,48,98,200
1,36,98,70
1,41,84,10
1,41,89,156
1,41,98,168
1,41,91,178
1,41,93,120
1,43,61,24
1,43,93,186
1,43,58,50
1,43,78,6
1,43,91,208
1,43,84,118
1,48,102,46
1,48,105,186
1,48,108,202
1,48,105,214
1,48,105,146
1,45,102,34
1,45,127,160
1,45,127,136
1,45,100,150
1,45,105,134
1,40,91,10
1,40,108,94
1,40,93,122
1,40,100,144
1,45,108,158
1,38,102,1206
1,38,100,212
1,38,100,216
1,38,102,212
1,40,104,4
1,42,102,18
1,43,104,22
1,43,109,198
1,43,106,230
1,43,109,208
1,42,109,128
1,40,106,30
1,38,111,128
1,38,109,180
1,38,111,202
1,38,113,204
1,40,113,128
1,42,115,8
1,43,118,22
1,43,102,190
1,43,109,124
1,43,109,172
1,42,109,0
1,40,113,32
1,38,100,40
1,38,102,4742
1,38,98,134
1,38,108,140
1,38,95,114
1,38,127,38
1,38,127,206
1,38,102,124
1,38,120,84
1,38,120,184
1,38,120,154
1,38,91,6
1,38,127,382
1,38,108,130
1,38,105,130
1,50,95,6
1,38,105,128
1,38,98,140
1,38,102,152
1,38,98,170
1,50,98,256
1,31,104,124
1,31,102,148
1,31,93,144
1,31,76,160
1,31,74,92
1,33,82,38
1,33,100,152
1,33,91,142
1,33,91,98
1,35,100,40
1,37,108,18
1,38,102,38
1,38,102,134
1,38,102,134
1,38,98,134
1,38,108,140
1,38,100,134
1,38,95,134
1,38,109,134
1,38,109,134
1,38,100,134
1,38,113,134
1,38,112,134
1,38,111,134
1,38,109,134
1,38,108,134
1,38,107,134
1,38,102,134
1,38,102,134
1,38,102,134
1,38,98,134
1,38,108,140
1,38,100,134
1,38,95,134
1,38,109,134
1,38,109,134
1,38,100,134
1,38,113,134
1,38,112,134
1,38,111,134
1,38,109,134
1,38,108,134
1,38,107,134
1,38,127,134
1,36,108,768
1,36,93,108
1,36,98,228
1,36,89,222
1,36,100,196
1,31,87,56
1,48,93,6
1,48,86,220
1,48,86,214
1,43,86,90
1,48,86,4
1,43,87,38
1,47,87,28
1,47,87,232
1,47,87,214
1,43,87,78
1,47,87,18
1,43,87,48
1,45,87,12
1,45,87,206
1,45,87,200
1,40,88,52
1,45,88,14
1,40,88,72
1,43,88,20
1,43,88,198
1,43,88,198
1,43,88,126
1,43,88,38
1,45,88,38
1,47,88,24
1,48,100,24
1,48,95,190
1,48,98,198
1,43,74,86
1,48,89,10
1,43,84,62
1,47,120,40
1,47,84,198
1,47,95,184
1,43,93,106
1,47,89,22
1,43,82,60
1,45,127,34
1,45,108,184
1,45,120,208
1,40,84,86
1,45,127,0
1,40,89,104
1,43,76,30
1,43,89,186
1,43,93,162
1,43,95,66
1,43,93,70
1,43,89,76
1,45,105,16
1,47,108,18
1,48,100,80
1,48,95,190
1,48,98,198
1,43,74,86
1,48,89,10
1,43,84,62
1,47,120,40
1,47,84,8
1,47,95,96
1,43,93,106
1,47,89,22
1,43,82,32
1,45,113,34
1,45,108,128
1,45,120,160
1,40,84,86
1,45,127,0
1,40,89,40
1,43,76,30
1,43,118,80
1,43,93,162
1,43,95,64
1,43,93,70
1,43,89,76
1,45,105,16
1,47,108,18
1,48,100,12
1,48,95,88
1,48,98,120
1,43,74,86
1,48,89,10
1,43,84,62
1,47,120,40
1,47,84,184
1,47,95,160
1,43,93,0
1,47,89,22
1,43,82,56
1,45,127,34
1,45,108,152
1,45,120,120
1,40,84,48
1,45,127,0
1,40,89,16
1,43,76,30
1,43,89,112
1,43,93,162
1,43,95,48
1,43,93,8
1,43,89,76
1,45,105,16
1,47,108,18
1,48,100,12
1,48,95,0
2,76,127,9600
2,72,127,50
2,74,127,50
2,76,127,50
2,77,127,50
2,79,127,50
2,81,127,50
2,83,127,50
2,84,127,50
2,86,127,50
2,88,127,50
2,89,127,50
2,91,127,50
2,86,127,50
2,83,127,50
2,79,127,50
2,74,127,50
2,71,127,50
2,67,127,50
2,69,127,50
2,71,127,50
2,74,127,50
2,72,127,50
2,71,127,50
2,72,127,50
2,69,127,50
2,67,127,50
2,69,127,50
2,71,127,50
2,72,127,50
2,74,127,50
2,76,127,50
2,77,127,50
2,79,127,50
2,81,127,50
2,83,127,50
2,86,127,50
2,83,127,50
2,79,127,50
2,74,127,50
2,71,127,50
2,69,127,50
2,67,127,50
2,69,127,50
2,71,127,50
2,74,127,50
2,72,127,50
2,71,127,50
2,72,127,50
2,55,85,10674
2,59,105,18
2,62,103,32
2,67,112,18
2,69,112,18
2,71,112,18
2,72,114,18
2,60,114,0
2,79,92,36
2,67,92,0
2,60,92,6
2,72,92,0
2,71,90,28
2,59,90,0
2,79,97,10
2,67,97,0
2,81,85,768
2,69,85,0
2,76,92,26
2,88,92,0
2,86,87,10
2,74,87,0
2,72,90,768
2,84,90,0
2,71,81,2
2,83,81,0
2,81,112,384
2,69,112,0
2,83,92,16
2,71,92,0
2,55,92,88
2,67,127,0
2,69,112,96
2,57,76,0
2,59,85,44
2,71,120,0
2,74,127,160
2,62,127,0
2,64,97,146
2,76,127,0
2,65,127,40
2,77,127,0
2,55,98,898
2,67,98,0
2,69,98,72
2,57,98,0
2,59,98,30
2,71,98,0
2,72,98,54
2,60,98,0
2,62,98,52
2,74,98,0
2,76,98,128
2,64,98,0
2,79,98,38
2,67,98,0
2,77,98,128
2,65,98,0
2,74,99,50
2,62,99,0
2,72,99,96
2,60,99,0
2,74,99,74
2,62,99,0
2,72,100,106
2,60,100,0
2,62,100,52
2,74,100,0
2,76,100,10
2,64,100,0
2,77,100,50
2,65,100,0
2,79,100,64
2,67,100,0
2,69,100,2
2,81,100,0
2,71,100,50
2,83,100,0
2,84,100,50
2,72,100,0
2,79,101,166
2,67,101,0
2,81,101,60
2,69,101,0
2,71,101,28
2,83,101,0
2,84,101,30
2,72,101,0
2,86,101,52
2,74,101,0
2,88,101,18
2,76,101,0
2,89,101,74
2,77,101,0
2,76,101,384
2,88,101,0
2,86,102,382
2,74,102,0
2,72,102,16
2,84,102,0
2,71,102,6
2,83,102,0
2,81,102,384
2,69,102,0
2,79,102,30
2,67,102,0
2,77,103,36
2,65,103,0
2,79,103,384
2,67,103,0
2,55,66,154
2,67,127,0
2,68,127,48
2,56,54,0
2,57,54,50
2,69,127,0
2,58,54,50
2,70,127,0
2,71,127,50
2,59,54,0
2,60,61,50
2,72,127,0
2,61,66,50
2,73,127,0
2,74,127,50
2,62,73,0
2,63,75,50
2,75,127,0
2,76,127,50
2,64,73,0
2,77,127,50
2,65,68,0
2,78,127,50
2,66,66,0
2,91,70,50
2,79,70,0
2,89,73,18
2,77,32,0
2,62,99,18
2,74,99,0
2,60,99,96
2,72,99,0
2,74,99,74
2,62,99,0
2,72,100,106
2,60,100,0
2,62,100,52
2,74,100,0
2,64,100,10
2,76,100,0
2,65,100,50
2,77,100,0
2,79,100,64
2,67,100,0
2,69,100,2
2,81,100,0
2,71,100,50
2,83,100,0
2,84,100,50
2,72,100,0
2,67,101,166
2,79,101,0
2,81,101,60
2,69,101,0
2,83,101,28
2,71,101,0
2,84,101,30
2,72,101,0
2,86,101,52
2,74,101,0
2,88,101,18
2,76,101,0
2,89,81,74
2,88,85,54
2,86,76,20
2,84,70,0
2,83,64,18
2,88,72,6
2,93,41,2044
2,72,127,360
2,79,94,16
2,74,94,4
2,81,97,24
2,76,90,32
2,84,92,104
2,79,83,256
2,86,94,18
2,81,100,6
2,88,97,24
2,93,120,84
2,86,100,16
2,91,100,12
2,84,74,22
2,89,70,22
2,82,96,256
2,88,87,26
2,81,92,2
2,86,83,12
2,79,85,2
2,84,90,24
2,86,85,152
2,79,97,26
2,81,97,28
2,74,92,24
2,79,77,18
2,78,83,146
2,74,92,30
2,69,64,384
2,59,96,64
2,71,96,0
2,67,96,54
2,55,96,0
2,73,96,82
2,61,96,0
2,57,96,64
2,69,96,0
2,62,96,76
2,74,96,0
2,71,96,82
2,59,96,0
2,64,96,64
2,76,96,0
2,61,96,72
2,73,96,0
2,66,96,72
2,78,96,0
2,62,96,70
2,74,96,0
2,79,98,72
2,67,98,0
2,76,103,80
2,64,103,0
2,81,105,70
2,78,110,72
2,66,110,0
2,83,112,74
2,71,112,0
2,79,114,72
2,67,114,0
2,85,114,76
2,73,114,0
2,81,112,72
2,69,112,0
2,86,110,68
2,74,110,0
2,71,110,76
2,83,110,0
2,76,110,60
2,88,110,0
2,73,107,70
2,85,107,0
2,90,105,70
2,78,105,0
2,86,103,80
2,74,103,0
2,93,101,70
2,81,101,0
2,78,83,166
2,74,92,30
2,69,64,384
2,59,98,64
2,71,98,0
2,67,98,54
2,55,98,0
2,61,98,82
2,73,98,0
2,57,98,64
2,69,98,0
2,74,98,76
2,62,98,0
2,71,98,82
2,59,98,0
2,76,98,64
2,64,98,0
2,73,98,72
2,61,98,0
