track,note,velocity,time
3,65,71,3889
3,65,71,0
3,65,0,59
3,65,0,0
3,74,86,1
3,74,86,0
3,74,0,59
3,74,0,0
3,75,83,1
3,75,83,0
3,75,0,59
3,75,0,0
3,77,90,1
3,77,90,0
3,77,0,59
3,77,0,0
3,75,82,1
3,75,82,0
3,75,0,179
3,75,0,0
3,74,76,1
3,74,76,0
3,74,0,179
3,74,0,0
3,72,85,1
3,72,85,0
3,72,0,59
3,72,0,0
3,70,80,1
3,70,80,0
3,70,0,119
3,70,0,0
3,70,83,1
3,70,83,0
3,70,0,179
3,70,0,0
3,67,85,1
3,67,85,0
3,67,0,59
3,67,0,0
3,67,84,1
3,67,84,0
3,67,0,239
3,67,0,0
3,65,83,661
3,65,83,0
3,65,0,59
3,65,0,0
3,74,91,1
3,74,91,0
3,74,0,59
3,74,0,0
3,75,88,1
3,75,88,0
3,75,0,59
3,75,0,0
3,77,90,1
3,77,90,0
3,77,0,59
3,77,0,0
3,75,87,1
3,75,87,0
3,75,0,119
3,75,0,0
3,74,88,1
3,74,88,0
3,74,0,239
3,74,0,0
3,72,90,1
3,72,90,0
3,72,0,59
3,72,0,0
3,70,72,1
3,70,72,0
3,70,0,119
3,70,0,0
3,70,78,1
3,70,78,0
3,70,0,479
3,70,0,0
3,72,88,721
3,75,77,0
3,75,0,59
3,72,0,0
3,74,86,1
3,77,84,0
3,77,0,59
3,74,0,0
3,79,89,1
3,75,82,0
3,75,0,59
3,79,0,0
3,77,79,1
3,74,80,0
3,74,0,239
3,77,0,0
3,75,80,1
3,72,83,0
3,72,0,59
3,75,0,0
3,70,79,1
3,75,84,0
3,75,0,119
3,70,0,0
3,72,90,1
3,75,88,0
3,75,0,119
3,72,0,0
3,72,90,1
3,77,90,0
3,77,0,479
3,72,0,0
3,75,78,721
3,72,82,0
3,72,0,59
3,75,0,0
3,77,87,1
3,74,84,0
3,74,0,59
3,77,0,0
3,79,88,1
3,75,82,0
3,75,0,59
3,79,0,0
3,77,86,1
3,74,85,0
3,74,0,239
3,77,0,0
3,72,80,1
3,75,77,0
3,75,0,59
3,72,0,0
3,70,84,1
3,75,84,0
3,75,0,119
3,70,0,0
3,72,74,1
3,75,79,0
3,75,0,119
3,72,0,0
3,77,88,1
3,72,83,0
3,79,90,240
3,79,0,239
3,81,85,1
3,81,0,359
3,72,0,0
3,77,0,0
3,74,76,361
3,74,0,59
3,75,75,1
3,75,0,59
3,77,71,1
3,77,0,59
3,75,83,1
3,75,0,239
3,74,77,1
3,74,0,59
3,72,80,1
3,72,0,179
3,70,79,1
3,70,0,59
3,70,77,1
3,70,0,179
3,67,85,1
3,67,0,59
3,67,82,1
3,67,0,239
3,74,89,1
3,74,0,79
3,72,83,1
3,72,0,79
3,70,73,1
3,70,0,79
3,70,78,1
3,70,0,119
3,72,93,1
3,72,0,119
3,65,77,181
3,65,0,59
3,74,83,1
3,74,0,59
3,75,82,1
3,75,0,59
3,77,84,1
3,77,0,59
3,75,82,1
3,75,0,239
3,74,78,1
3,74,0,59
3,72,79,1
3,72,0,179
3,70,72,1
3,70,0,59
3,70,67,1
3,70,0,479
3,74,76,1
3,74,0,79
3,75,82,1
3,75,0,79
3,77,79,1
3,77,0,79
3,70,82,1
3,70,0,239
3,72,83,241
3,75,74,0
3,75,0,59
3,72,0,0
3,74,85,1
3,77,84,0
3,77,0,59
3,74,0,0
3,75,84,1
3,79,85,0
3,79,0,59
3,75,0,0
3,77,86,1
3,74,85,0
3,74,0,239
3,77,0,0
3,75,84,1
3,72,81,0
3,72,0,59
3,75,0,0
3,70,79,1
3,75,86,0
3,75,0,179
3,70,0,0
3,72,86,1
3,77,88,0
3,77,0,59
3,72,0,0
3,77,86,1
3,72,86,0
3,72,0,479
3,77,0,0
3,65,83,661
3,65,0,59
3,72,83,1
3,75,74,0
3,75,0,59
3,72,0,0
3,74,85,1
3,77,84,0
3,77,0,59
3,74,0,0
3,79,85,1
3,75,84,0
3,75,0,59
3,79,0,0
3,74,85,1
3,77,86,0
3,77,0,239
3,74,0,0
3,72,81,1
3,75,84,0
3,75,0,59
3,72,0,0
3,75,86,1
3,70,79,0
3,70,0,179
3,75,0,0
3,77,88,1
3,72,86,0
3,72,0,59
3,77,0,0
3,72,85,1
3,77,88,0
3,79,83,240
3,79,0,239
3,81,91,1
3,81,0,359
3,77,0,0
3,72,0,0
3,74,95,301
3,74,106,0
3,74,0,59
3,74,0,0
3,79,112,1
3,70,95,0
3,70,0,59
3,79,0,0
3,81,106,1
3,72,104,0
3,72,0,59
3,81,0,0
3,82,120,1
3,74,99,0
3,74,0,59
3,82,0,0
3,72,104,1
3,81,111,0
3,81,0,239
3,72,0,0
3,79,105,1
3,70,100,0
3,70,0,59
3,79,0,0
3,70,100,1
3,77,103,0
3,77,0,119
3,70,0,0
3,75,108,1
3,70,95,0
3,70,0,119
3,75,0,0
3,77,110,1
3,72,104,0
3,72,0,239
3,77,0,0
3,70,95,1
3,77,105,0
3,77,0,239
3,70,0,0
3,74,95,661
3,74,100,0
3,74,0,59
3,74,0,0
3,70,77,1
3,79,100,0
3,79,0,59
3,70,0,0
3,81,105,1
3,72,101,0
3,72,0,59
3,81,0,0
3,82,105,1
3,74,101,0
3,74,0,59
3,82,0,0
3,72,104,1
3,81,106,0
3,81,0,239
3,72,0,0
3,79,106,1
3,70,97,0
3,70,0,59
3,79,0,0
3,70,99,1
3,77,102,0
3,77,0,119
3,70,0,0
3,75,100,1
3,70,101,0
3,75,0,59
3,77,101,1
3,77,0,59
3,70,0,0
3,77,101,1
3,72,103,0
3,72,0,239
3,70,98,1
3,70,0,239
3,77,0,0
3,70,75,721
3,79,103,0
3,79,0,59
3,70,0,0
3,72,101,1
3,81,108,0
3,81,0,59
3,72,0,0
3,74,98,1
3,82,103,0
3,82,0,59
3,74,0,0
3,72,103,1
3,81,111,0
3,81,0,239
3,72,0,0
3,79,108,1
3,70,77,0
3,70,0,59
3,79,0,0
3,77,102,1
3,70,100,0
3,70,0,119
3,77,0,0
3,70,69,1
3,75,101,0
3,75,0,59
3,77,101,1
3,77,0,59
3,70,0,0
3,72,100,1
3,77,107,0
3,77,0,239
3,72,0,0
3,70,97,1
3,74,100,0
3,74,0,179
3,75,95,1
3,75,0,29
3,74,100,1
3,74,0,29
3,70,0,0
3,72,93,1
3,65,88,0
3,65,0,479
3,72,0,0
3,72,90,181
3,72,90,0
3,72,0,59
3,72,0,0
3,72,82,1
3,72,79,0
3,72,0,59
3,72,0,0
3,74,83,1
3,74,90,0
3,74,0,59
3,74,0,0
3,75,88,1
3,75,84,0
3,75,0,59
3,75,0,0
3,74,90,1
3,74,89,0
3,74,0,239
3,74,0,0
3,72,85,1
3,72,84,0
3,72,0,59
3,72,0,0
3,70,83,1
3,70,79,0
3,70,0,119
3,70,0,0
3,69,93,1
3,69,88,0
3,69,0,59
3,69,0,0
3,70,86,1
3,70,90,0
3,70,0,59
3,70,0,0
3,70,88,1
3,70,97,0
3,70,0,479
3,70,0,0
3,65,101,1621
3,65,92,0
3,65,0,59
3,65,0,0
3,74,96,1
3,74,88,0
3,74,0,59
3,74,0,0
3,75,90,1
3,75,87,0
3,75,0,59
3,75,0,0
3,77,88,1
3,77,95,0
3,77,0,59
3,77,0,0
3,75,86,1
3,75,88,0
3,75,0,239
3,75,0,0
3,74,96,1
3,74,89,0
3,74,0,59
3,74,0,0
3,72,86,1
3,72,89,0
3,72,0,179
3,72,0,0
3,70,103,1
3,70,88,0
3,70,0,59
3,70,0,0
3,70,86,1
3,70,86,0
3,70,0,179
3,70,0,0
3,67,88,1
3,67,90,0
3,67,0,59
3,67,0,0
3,67,89,1
3,67,88,0
3,67,0,239
3,67,0,0
3,65,99,661
3,65,87,0
3,65,0,59
3,65,0,0
3,74,97,1
3,74,85,0
3,74,0,59
3,74,0,0
3,75,90,1
3,75,84,0
3,75,0,59
3,75,0,0
3,77,99,1
3,77,88,0
3,77,0,59
3,77,0,0
3,75,87,1
3,75,97,0
3,75,0,239
3,75,0,0
3,74,90,1
3,74,88,0
3,74,0,59
3,74,0,0
3,72,85,1
3,72,90,0
3,72,0,119
3,72,0,0
3,70,93,1
3,70,83,0
3,70,0,119
3,70,0,0
3,70,92,1
3,70,90,0
3,70,0,479
3,70,0,0
3,72,86,661
3,67,77,0
3,67,0,59
3,72,0,0
3,75,92,1
3,72,86,0
3,72,0,59
3,75,0,0
3,77,92,1
3,74,80,0
3,74,0,59
3,77,0,0
3,79,88,1
3,75,80,0
3,75,0,59
3,79,0,0
3,74,85,1
3,77,92,0
3,77,0,239
3,74,0,0
3,72,84,1
3,75,101,0
3,75,0,59
3,72,0,0
3,75,84,1
3,70,83,0
3,70,0,179
3,75,0,0
3,75,90,1
3,72,86,0
3,72,0,59
3,75,0,0
3,77,101,1
3,72,89,0
3,72,0,479
3,77,0,0
3,75,92,721
3,72,88,0
3,72,0,59
3,75,0,0
3,74,76,1
3,77,92,0
3,77,0,59
3,74,0,0
3,79,96,1
3,75,80,0
3,75,0,59
3,79,0,0
3,77,90,1
3,74,76,0
3,74,0,119
3,77,0,0
3,75,84,1
3,72,85,0
3,72,0,239
3,75,0,0
3,75,88,1
3,70,82,0
3,70,0,59
3,75,0,0
3,75,78,1
3,72,78,0
3,72,0,119
3,75,0,0
3,72,94,1
3,77,88,0
3,79,90,240
3,79,0,239
3,81,97,1
3,81,0,359
3,77,0,0
3,72,0,0
3,74,96,301
3,74,107,0
3,74,0,59
3,74,0,0
3,70,96,1
3,79,112,0
3,79,0,59
3,70,0,0
3,72,105,1
3,81,107,0
3,81,0,59
3,72,0,0
3,82,120,1
3,74,100,0
3,74,0,59
3,82,0,0
3,81,111,1
3,72,105,0
3,72,0,239
3,81,0,0
3,79,106,1
3,70,95,0
3,70,0,59
3,79,0,0
3,70,95,1
3,77,104,0
3,77,0,119
3,70,0,0
3,75,108,1
3,70,95,0
3,75,0,59
3,77,118,1
3,77,0,59
3,70,0,0
3,77,110,1
3,72,105,0
3,72,0,239
3,77,0,0
3,77,106,1
3,70,96,0
3,70,0,239
3,77,0,0
3,74,101,661
3,74,95,0
3,74,0,59
3,74,0,0
3,79,101,1
3,70,77,0
3,70,0,59
3,79,0,0
3,72,102,1
3,81,106,0
3,81,0,59
3,72,0,0
3,74,102,1
3,82,106,0
3,82,0,59
3,74,0,0
3,72,105,1
3,81,107,0
3,81,0,239
3,72,0,0
3,79,107,1
3,70,98,0
3,70,0,59
3,79,0,0
3,77,103,1
3,70,100,0
3,70,0,119
3,77,0,0
3,70,102,1
3,75,95,0
3,75,0,59
3,77,102,1
3,77,0,59
3,70,0,0
3,77,102,1
3,72,104,0
3,72,0,239
3,70,99,1
3,70,0,239
3,77,0,0
3,79,104,721
3,70,75,0
3,70,0,59
3,79,0,0
3,81,108,1
3,72,102,0
3,72,0,59
3,81,0,0
3,82,104,1
3,74,99,0
3,74,0,59
3,82,0,0
3,72,104,1
3,81,111,0
3,81,0,239
3,72,0,0
3,79,108,1
3,70,77,0
3,70,0,59
3,79,0,0
3,77,103,1
3,70,95,0
3,70,0,119
3,77,0,0
3,75,102,1
3,70,69,0
3,75,0,59
3,77,102,1
3,77,0,59
3,70,0,0
3,72,101,1
3,77,107,0
3,77,0,239
3,72,0,0
3,74,101,1
3,70,98,0
3,74,0,179
3,75,95,1
3,75,0,29
3,74,101,1
3,74,0,29
3,70,0,0
3,65,104,1
3,72,108,0
3,72,0,479
3,65,0,0
3,72,106,181
3,72,106,0
3,72,0,59
3,72,0,0
3,72,98,1
3,72,95,0
3,72,0,59
3,72,0,0
3,74,106,1
3,74,99,0
3,74,0,59
3,74,0,0
3,75,104,1
3,75,100,0
3,75,0,59
3,75,0,0
3,74,105,1
3,74,106,0
3,74,0,239
3,74,0,0
3,72,100,1
3,72,101,0
3,72,0,59
3,72,0,0
3,70,99,1
3,70,95,0
3,70,0,119
3,70,0,0
3,69,104,1
3,69,108,0
3,69,0,59
3,69,0,0
3,70,102,1
3,70,106,0
3,70,0,59
3,70,0,0
3,70,108,1
3,70,106,0
3,70,0,839
3,70,0,0
3,72,83,361
3,72,88,0
3,72,0,59
3,72,0,0
3,74,88,1
3,74,89,0
3,74,0,59
3,74,0,0
3,75,87,1
3,75,86,0
3,75,0,119
3,75,0,0
3,74,86,1
3,74,83,0
3,74,0,239
3,74,0,0
3,72,90,1
3,72,88,0
3,72,0,239
3,72,0,0
3,70,79,1
3,70,90,0
3,70,0,239
3,70,0,0
3,69,91,1
3,69,90,0
3,69,0,239
3,69,0,0
3,70,88,1
3,70,86,0
3,70,0,959
3,70,0,0
4,62,104,0
4,62,0,179
4,60,84,1
4,60,0,179
4,65,110,1
4,65,0,359
4,70,99,1
4,70,0,119
4,69,85,1
4,69,0,59
4,67,89,1
4,67,0,59
4,65,90,1
4,65,0,179
4,67,108,1
4,67,0,179
4,58,95,1
4,58,0,359
4,65,88,1
4,65,0,239
4,62,96,1
4,62,0,179
4,60,99,1
4,60,0,179
4,65,115,1
4,65,0,359
4,70,95,1
4,70,0,119
4,69,91,1
4,69,0,59
4,67,76,1
4,67,0,59
4,65,96,1
4,65,0,179
4,67,89,1
4,67,0,179
4,58,93,1
4,58,0,569
4,53,103,31
4,65,92,0
4,62,86,0
4,46,97,0
4,53,0,179
4,53,92,1
4,53,0,59
4,53,87,1
4,53,0,419
4,53,84,1
4,53,0,59
4,53,92,1
4,53,0,239
4,65,0,0
4,62,0,0
4,46,0,0
4,70,80,1
4,51,86,0
4,63,73,0
4,67,73,0
4,65,71,0
4,65,0,179
4,63,0,0
4,67,0,0
4,70,0,0
4,69,90,1
4,60,85,0
4,65,84,0
4,51,0,239
4,51,82,1
4,51,0,59
4,65,0,0
4,60,0,0
4,69,0,0
4,77,88,1
4,79,90,0
4,75,73,0
4,51,90,0
4,82,88,0
4,82,0,179
4,77,0,0
4,75,0,0
4,79,0,0
4,81,93,1
4,77,93,0
4,72,89,0
4,51,0,239
4,51,84,1
4,51,0,59
4,72,0,0
4,77,0,0
4,81,0,0
4,53,93,1
4,65,90,0
4,46,87,0
4,62,91,0
4,53,0,179
4,53,87,1
4,53,0,59
4,53,88,1
4,53,0,419
4,53,87,1
4,53,0,59
4,53,87,1
4,53,0,239
4,65,0,0
4,46,0,0
4,62,0,0
4,65,82,1
4,51,84,0
4,63,74,0
4,67,84,0
4,70,82,0
4,70,0,179
4,63,0,0
4,67,0,0
4,65,0,0
4,60,82,1
4,65,79,0
4,69,91,0
4,51,0,239
4,51,88,1
4,51,0,59
4,69,0,0
4,65,0,0
4,60,0,0
4,82,88,1
4,79,90,0
4,77,88,0
4,51,88,0
4,75,75,0
4,75,0,179
4,82,0,0
4,77,0,0
4,79,0,0
4,81,91,1
4,77,86,0
4,72,83,0
4,51,0,239
4,51,88,1
4,51,0,59
4,72,0,0
4,77,0,0
4,81,0,0
4,72,90,1
4,63,82,0
4,48,79,0
4,67,89,0
4,48,0,179
4,48,80,1
4,48,0,59
4,67,0,0
4,63,0,0
4,72,0,0
4,72,96,1
4,48,86,0
4,63,84,0
4,63,0,59
4,72,0,0
4,74,88,1
4,65,71,0
4,65,0,59
4,74,0,0
4,75,84,1
4,67,72,0
4,67,0,59
4,75,0,0
4,74,82,1
4,65,76,0
4,48,0,59
4,48,83,1
4,65,0,179
4,74,0,0
4,63,76,1
4,72,88,0
4,72,0,59
4,63,0,0
4,48,0,0
4,63,80,1
4,48,84,0
4,70,86,0
4,70,0,119
4,63,0,0
4,63,76,1
4,72,90,0
4,72,0,119
4,63,0,0
4,48,0,0
4,41,94,1
4,65,79,0
4,72,94,0
4,70,88,0
4,53,97,0
4,53,0,179
4,53,88,1
4,53,0,59
4,53,90,1
4,53,0,239
4,72,0,0
4,70,0,0
4,65,0,0
4,65,78,1
4,53,88,0
4,72,90,0
4,69,93,0
4,53,0,179
4,53,93,1
4,53,0,59
4,53,84,1
4,53,0,119
