track,note,velocity,time
1,31,92,2652
1,36,64,192
1,31,80,4
1,43,80,84
1,35,66,12
1,36,60,16
1,36,80,132
1,38,68,24
1,31,64,4
1,43,72,12
1,35,68,60
1,36,64,4
1,36,84,128
1,35,60,4
1,33,60,12
1,40,54,12
1,45,66,4
1,33,64,20
1,38,72,20
1,28,64,84
1,30,88,4
1,31,88,12
1,33,76,4
1,36,68,92
1,38,76,32
1,30,80,156
1,31,88,40
1,43,76,36
1,35,66,92
1,36,66,4
1,36,46,176
1,36,56,44
1,38,68,164
1,31,72,4
1,31,58,144
1,31,64,44
1,35,80,72
1,36,72,4
1,36,48,112
1,36,72,48
1,35,88,4
1,33,64,4
1,33,58,132
1,33,80,48
1,40,88,12
1,38,72,4
1,38,50,88
1,38,84,80
1,28,64,16
1,30,88,4
1,35,68,4
1,33,88,4
1,33,54,72
1,33,76,36
1,33,80,56
1,38,84,16
1,33,50,36
1,38,84,4
1,39,92,4
1,35,66,24
1,40,84,4
1,35,52,28
1,28,88,0
1,38,80,128
1,36,72,8
1,36,56,140
1,31,80,12
1,31,54,64
1,31,80,72
1,35,92,96
1,40,84,8
1,38,84,136
1,36,66,8
1,28,76,140
1,30,84,32
1,31,84,36
1,38,66,28
1,38,58,304
1,31,92,4
1,43,80,48
1,42,76,4
1,40,80,8
1,38,76,224
1,36,66,16
1,38,66,136
1,31,76,8
1,30,88,4
1,28,66,4
1,40,64,12
1,38,72,8
1,36,62,8
1,36,50,108
1,38,68,0
1,38,66,148
1,31,76,16
1,38,66,24
1,43,92,4
1,31,62,12
1,35,102,0
1,35,88,76
1,40,107,4
1,35,62,24
1,28,64,0
1,38,88,4
1,36,97,24
1,28,97,104
1,30,92,36
1,31,80,0
1,38,72,20
1,43,92,0
1,38,64,0
1,31,92,36
1,30,92,28
1,28,84,8
1,40,84,100
1,38,72,12
1,36,68,4
1,28,80,148
1,31,84,12
1,38,62,124
1,43,88,4
1,31,97,4
1,30,92,52
1,28,97,16
1,40,88,128
1,38,66,12
1,36,88,8
1,31,102,184
1,30,88,4
1,28,66,4
1,38,68,12
1,36,58,8
1,33,60,8
1,38,68,4
1,38,72,72
1,31,64,4
1,47,20,768
2,43,78,2632
2,50,74,384
2,43,62,0
2,50,64,384
2,43,58,0
2,50,62,384
2,43,66,0
2,50,70,384
2,55,60,0
2,48,76,0
2,55,70,384
2,60,62,768
2,52,64,4
2,54,60,0
2,55,44,0
2,47,60,0
2,45,72,0
2,43,72,0
2,50,64,384
2,43,68,12
2,50,58,384
2,55,66,0
2,48,64,0
2,52,64,384
2,55,64,0
2,52,66,0
2,57,68,0
2,52,56,0
2,55,62,0
2,47,66,0
2,45,74,0
2,52,56,384
2,45,64,0
2,52,64,384
2,50,72,0
2,54,64,384
2,57,74,0
2,52,66,0
2,54,64,0
2,57,62,0
2,52,56,0
2,54,74,0
2,50,66,0
2,45,66,0
2,52,66,384
2,45,76,0
2,52,56,384
2,50,64,0
2,54,66,384
2,57,62,0
2,52,66,0
2,54,66,0
2,57,72,0
2,54,64,0
2,60,68,0
2,50,82,0
2,43,72,0
2,50,64,384
2,43,64,0
2,50,41,384
2,55,66,0
2,48,62,0
2,55,66,384
2,60,68,0
2,52,64,0
2,54,54,0
2,55,60,0
2,47,68,0
2,45,66,0
2,43,60,0
2,50,74,340
2,43,52,0
2,50,66,384
2,55,64,4
2,48,66,0
2,52,64,384
2,55,66,0
2,52,66,0
2,57,70,0
2,52,64,48
2,55,49,12
2,47,58,0
2,45,74,0
2,52,76,384
2,45,64,4
2,52,72,384
2,50,74,12
2,54,70,384
2,57,64,28
2,52,66,4
2,54,70,4
2,57,68,0
2,52,64,8
2,54,82,4
2,50,68,4
2,45,74,0
2,52,72,384
2,45,72,0
2,52,70,384
2,50,72,0
2,54,70,384
2,57,62,8
2,52,66,12
2,54,62,4
2,57,62,4
2,54,70,32
2,60,68,4
2,51,70,348
2,52,74,0
2,55,70,0
2,59,76,0
2,48,72,16
2,55,70,384
2,48,68,12
2,55,78,12
2,59,68,0
2,50,66,0
2,55,70,12
2,57,64,0
2,59,74,0
2,54,74,576
2,52,66,0
2,55,76,0
2,59,64,0
2,52,46,12
2,48,68,12
2,55,68,384
2,48,74,12
2,55,68,12
2,59,66,0
2,50,78,0
2,55,68,0
2,57,64,0
2,55,72,0
2,54,64,0
2,52,64,0
2,55,70,0
2,59,68,0
2,52,66,12
2,48,70,0
2,55,68,384
2,48,60,12
2,55,72,0
2,59,66,0
2,50,74,4
2,52,66,12
2,55,72,8
2,57,70,0
2,59,64,4
2,57,64,16
2,60,76,0
2,50,74,0
2,43,66,0
2,50,70,384
2,55,76,0
2,54,66,0
2,52,70,0
2,55,78,0
2,59,66,0
2,48,72,0
2,55,62,384
2,48,62,12
2,55,66,8
2,59,62,0
2,50,70,0
2,55,66,0
2,57,54,0
2,59,66,0
2,54,68,0
2,52,68,0
2,55,68,0
2,59,68,0
2,52,54,12
2,48,74,0
2,55,66,768
2,48,66,12
2,55,66,4
2,50,74,0
2,55,72,0
2,57,66,4
2,55,66,0
2,54,64,0
2,52,66,0
2,55,72,0
2,59,68,0
2,52,84,12
2,48,52,0
2,55,68,384
2,48,66,12
2,55,72,0
2,59,66,0
2,50,78,0
2,52,64,8
2,55,72,8
2,57,64,0
2,59,68,0
2,57,64,0
2,60,76,0
2,50,64,4
2,43,74,0
2,50,56,384
3,57,72,3380
3,59,74,0
3,60,64,0
3,59,58,0
3,57,52,0
3,59,54,0
3,60,50,0
3,59,64,0
3,62,36,192
3,71,66,0
3,72,76,0
3,74,98,0
3,72,58,0
3,71,64,0
3,69,72,0
3,67,66,0
3,67,74,12
3,64,66,0
3,62,56,960
3,71,76,0
3,72,72,0
3,74,90,0
3,72,74,0
3,71,78,0
3,69,74,0
3,67,60,0
3,67,76,12
3,69,74,1152
3,71,64,0
3,72,74,0
3,71,74,0
3,69,78,0
3,67,74,0
3,69,72,0
3,69,74,12
3,69,82,1152
3,71,68,0
3,72,72,0
3,71,68,0
3,69,62,0
3,67,66,0
3,69,78,0
3,69,72,12
3,62,66,904
3,71,90,0
3,72,66,0
3,74,72,0
3,72,72,0
3,71,76,0
3,69,64,0
3,67,72,0
3,67,74,12
3,64,74,0
3,62,60,960
3,71,76,0
3,72,68,0
3,74,70,0
3,72,68,0
3,71,76,0
3,69,64,0
3,67,76,0
3,67,66,12
3,69,74,1152
3,71,56,0
3,72,74,0
3,71,74,0
3,69,54,0
3,67,64,0
3,69,72,0
3,69,70,12
3,69,70,1152
3,71,66,0
3,72,82,0
3,71,78,0
3,69,46,0
3,67,72,0
3,69,72,0
3,69,72,12
3,71,72,1728
3,76,98,0
3,78,78,0
3,79,72,0
3,78,82,0
3,76,94,0
3,74,82,0
3,72,90,0
3,74,69,0
3,74,95,12
3,74,90,12
3,76,78,1152
3,78,74,0
3,79,68,0
3,78,76,0
3,76,78,0
3,74,74,0
3,72,72,0
3,74,70,0
3,76,68,1152
3,78,76,0
3,79,68,0
3,78,76,0
3,76,90,0
3,74,74,0
3,72,82,0
3,74,70,0
3,71,72,0
3,69,70,0
3,67,74,0
3,62,60,576
3,69,82,0
3,71,68,0
3,72,62,0
3,71,68,0
3,71,58,12
3,67,74,0
3,66,68,0
3,67,62,0
3,57,64,768
3,59,68,0
3,60,62,0
3,59,62,0
3,71,90,960
3,76,78,0
3,78,78,0
3,79,74,0
3,78,86,0
3,76,78,0
3,74,74,0
3,72,102,0
3,74,60,0
3,74,86,12
3,74,94,12
3,76,78,1152
3,78,90,0
3,79,62,0
3,78,82,0
3,76,74,0
3,74,94,0
3,72,78,0
3,74,86,0
3,76,78,1152
3,78,74,0
3,79,60,0
3,78,74,0
3,76,86,0
3,74,74,0
3,72,82,0
3,74,72,0
3,71,74,0
3,69,56,0
3,67,64,0
3,64,56,576
3,69,74,0
3,71,68,0
3,72,70,0
3,71,66,0
3,71,52,12
3,67,74,0
3,66,72,0
3,67,74,0
3,57,64,768
3,59,54,0
3,60,66,0
3,59,62,0
4,59,56,5280
4,55,58,4
4,50,44,20
4,52,34,876
4,55,35,4
4,55,64,76
4,52,40,32
4,59,46,8
4,57,40,16
4,55,58,16
4,55,62,60
4,50,25,144
4,52,57,20
4,50,54,40
4,50,54,1392
4,50,54,104
4,52,62,16
4,55,68,96
4,55,92,88
4,52,42,36
4,59,56,4
4,60,64,4
4,59,76,24
4,52,44,8
4,55,31,24
4,62,64,68
4,60,52,12
4,60,33,1344
4,71,84,4
4,69,40,28
4,60,22,4
4,67,68,4
4,66,56,4
4,57,22,4
4,64,64,0
4,62,66,4
4,57,39,8
4,57,56,68
4,59,64,0
4,60,48,0
4,62,33,0
4,60,46,0
4,67,46,1936
4,66,88,0
4,62,52,0
4,66,52,0
4,64,84,0
4,60,42,0
4,64,58,0
4,62,64,0
4,59,40,0
4,62,66,0
4,60,64,0
4,57,38,0
4,60,54,0
4,59,56,0
4,55,44,0
4,62,56,0
4,69,34,1012
4,71,72,28
4,62,36,4
4,69,66,8
4,69,46,4
4,71,64,0
4,67,46,0
4,62,32,0
4,57,54,116
4,59,38,4
4,52,42,1064
4,57,60,192
4,62,68,192
4,67,44,4
4,62,27,192
4,57,40,64
4,52,30,192
4,57,58,32
4,62,42,192
4,67,40,64
4,62,42,172
4,57,32,148
4,52,27,8
4,62,68,28
4,64,46,0
4,60,39,8
4,71,88,2620
4,69,42,28
4,66,54,40
4,64,48,16
4,62,37,4
4,59,80,4
4,57,42,0
4,59,52,16
4,60,32,4
4,54,42,1360
4,55,62,20
4,57,88,16
4,59,66,28
4,60,62,12
4,59,64,16
4,60,72,4
4,62,88,4
4,64,68,12
4,66,102,8
4,67,76,4
4,69,80,20
4,71,92,4
4,67,66,4
4,71,88,1604
4,72,56,8
4,71,84,20
4,69,44,20
4,67,54,20
4,62,72,4
4,60,45,24
4,62,60,96
4,59,66,28
4,60,56,92
4,62,39,376
4,62,64,48
4,69,64,16
4,69,72,36
4,71,64,12
4,71,80,64
4,72,88,4
4,71,60,16
4,67,44,4
4,62,56,4
4,60,40,0
4,59,58,4
4,60,39,12
4,62,84,40
4,59,52,36
4,55,56,8
4,55,46,124
4,62,72,4
4,67,84,20
4,64,42,8
4,62,56,24
4,59,54,192
4,67,84,36
4,66,54,32
4,62,64,4
4,55,44,8
4,60,54,8
4,62,36,4
4,60,56,264
4,59,33,8
4,59,62,348
4,60,62,16
4,62,72,8
4,64,84,4
4,62,72,212
4,62,68,444
4,74,88,8
4,74,88,48
4,71,60,16
4,71,68,52
4,67,68,4
4,67,68,52
4,66,60,84
4,69,66,4
4,64,64,4
4,64,72,112
4,66,66,4
4,67,97,52
4,66,46,8
4,64,52,36
4,66,54,4
4,62,66,4
4,57,72,164
4,59,84,36
4,62,102,36
4,59,84,4
4,62,97,24
4,64,62,12
4,62,62,24
4,59,56,32
4,57,62,0
4,55,80,4
4,52,46,760
4,57,66,96
4,62,84,4
4,60,60,4
4,59,62,4
4,57,62,4
4,55,64,20
4,57,54,8
4,59,64,4
4,60,68,20
4,62,68,4
4,64,68,4
4,67,76,12
4,69,66,40
4,67,74,28
4,64,68,0
4,62,80,44
4,59,66,32
4,57,66,16
4,59,97,44
4,57,39,4
4,55,48,0
4,57,54,8
4,59,84,16
4,55,46,4
4,50,56,4
4,48,48,20
4,62,31,2040
4,69,60,192
4,67,44,28
4,62,44,4
4,50,48,576
4,57,44,4
4,59,35,24
5,52,32,2572
5,57,30,0
5,62,42,0
5,55,44,8
5,57,34,20
5,62,42,152
5,60,48,8
5,55,38,4
5,52,30,0
5,57,42,0
5,62,36,0
5,55,46,20
5,60,48,0
5,59,48,20
5,57,42,8
5,60,42,0
5,54,48,20
5,57,46,0
5,62,46,0
5,52,44,64
5,57,46,0
5,60,48,0
5,62,58,32
5,64,58,12
5,66,52,8
5,67,46,76
5,62,40,208
5,67,52,200
5,62,42,204
5,69,48,252
5,62,44,188
5,71,54,212
5,62,42,192
5,67,50,196
5,62,34,176
5,67,54,208
5,62,34,196
5,69,50,236
5,62,34,216
5,71,56,252
5,62,34,212
5,67,50,228
5,62,42,260
5,67,54,252
5,62,44,276
5,69,48,236
5,62,42,248
5,71,54,260
5,62,46,232
5,67,54,280
5,62,38,208
5,67,56,276
5,62,36,244
5,69,48,248
5,62,36,224
5,71,52,264
5,62,27,236
5,67,38,208
5,60,34,200
5,67,56,216
5,60,25,232
5,64,62,196
5,60,34,200
5,67,58,224
5,60,32,180
5,66,52,176
5,62,40,196
5,66,54,280
5,62,34,160
5,67,56,232
5,62,40,224
5,69,54,264
5,62,40,216
5,64,58,228
5,60,21,196
5,64,56,212
5,60,44,204
5,64,58,220
5,60,36,212
5,67,58,256
5,60,36,240
5,66,56,192
5,62,42,208
5,66,54,252
5,67,54,192
5,69,52,244
5,59,38,16
5,66,56,0
5,67,46,4
5,60,42,8
5,59,46,32
5,62,46,0
5,66,56,20
5,69,48,0
5,64,58,12
5,67,44,0
5,64,50,32
5,72,66,0
5,62,48,4
5,71,54,0
5,66,58,24
5,69,54,0
5,64,48,4
5,67,52,0
5,62,46,16
5,59,36,2304
5,60,30,16
5,64,44,0
5,62,42,12
5,60,36,1344
5,59,40,12
5,67,62,8
5,71,56,384
5,66,50,4
5,69,62,0
5,64,50,4
5,67,54,0
5,62,54,4
5,66,54,0
5,60,48,40
5,64,62,0
5,59,48,8
5,62,54,0
5,62,62,36
5,67,62,0
5,71,58,0
5,66,58,8
5,69,62,0
5,59,54,8
5,64,56,0
5,67,66,0
5,60,42,124
5,62,58,16
5,67,62,0
5,71,62,0
5,64,58,44
5,67,66,0
5,71,58,0
5,67,58,8
5,72,74,0
5,62,56,8
5,67,56,0
5,71,58,0
5,62,62,4
5,66,58,0
5,69,66,0
5,59,52,12
5,64,58,0
5,67,56,0
5,62,52,4
5,60,28,100
5,64,52,0
5,62,38,8
5,57,30,2304
5,52,36,768
6,55,64,8696
6,64,66,0
6,67,66,4
6,69,64,4
6,62,56,4
6,62,64,1492
6,67,56,8
6,71,60,4
6,69,52,4
6,66,54,80
6,64,54,108
6,57,60,80
6,62,66,4
6,69,76,384
6,64,62,4
6,67,66,0
6,74,52,0
6,66,58,8
6,69,56,0
6,71,58,12
6,67,56,12
6,62,36,0
6,57,46,8
6,59,54,24
6,66,54,112
6,57,52,0
6,60,52,72
6,55,44,0
6,64,54,28
6,57,44,52
6,60,56,0
6,55,48,12
6,54,50,16
6,62,56,0
6,57,52,0
6,60,54,16
6,62,54,0
6,55,52,0
6,64,60,4
6,54,50,20
6,62,54,0
6,57,54,0
6,63,56,44
6,54,56,0
6,59,66,0
6,64,64,4
6,55,62,0
6,60,48,96
6,59,56,8
6,62,62,0
6,57,66,76
6,66,64,0
6,64,66,28
6,67,76,0
6,59,72,0
6,55,56,4
6,60,66,0
6,59,54,12
6,62,44,0
6,59,29,80
6,57,62,20
6,54,64,0
6,52,44,8
6,59,60,0
6,55,60,0
6,60,60,8
6,55,36,0
6,52,60,0
6,62,58,72
6,55,56,0
6,59,58,0
6,60,46,12
6,57,46,24
6,43,66,228
6,50,80,8
6,55,76,4
6,54,84,4
6,62,84,0
6,55,66,4
6,59,66,0
6,64,66,768
6,62,66,4
6,60,56,12
6,59,62,4
6,62,56,0
6,64,80,136
6,64,64,24
6,60,64,0
6,55,64,0
6,59,62,44
6,62,64,0
6,54,76,12
6,57,64,0
6,59,62,8
6,52,66,0
6,55,58,0
6,60,66,12
6,59,46,8
6,62,64,0
6,64,62,4
6,62,58,20
6,52,48,4
6,60,56,0
6,50,56,20
6,50,23,68
6,59,46,0
7,35,75,2492
7,69,40,0
7,69,29,180
7,69,22,180
7,44,75,0
7,69,20,180
7,54,75,180
7,37,75,0
7,54,34,180
7,44,75,180
7,69,25,180
7,35,75,0
7,35,75,180
7,69,40,0
7,69,29,180
7,69,25,180
7,44,75,0
7,69,20,180
7,37,75,180
7,54,75,0
7,54,29,180
7,44,75,180
7,69,27,180
7,35,75,180
