track,note,velocity,time
0,51,116,452
0,46,87,0
0,62,97,0
0,62,89,0
0,60,89,16
0,60,81,0
0,65,96,16
0,65,97,0
0,70,79,20
0,70,91,0
0,69,80,16
0,69,83,0
0,67,97,8
0,67,88,0
0,51,115,8
0,51,83,0
0,65,82,0
0,65,95,0
0,67,79,16
0,67,81,0
0,58,87,16
0,58,95,0
0,67,114,192
0,45,93,20
0,53,89,0
0,57,80,0
0,60,89,0
0,53,76,0
0,57,86,0
0,60,78,0
0,65,124,20
0,62,122,20
0,63,117,20
0,51,102,20
0,46,98,0
0,53,81,0
0,62,91,0
0,62,80,0
0,58,86,0
0,62,83,0
0,65,113,0
0,60,89,16
0,60,87,0
0,65,84,16
0,65,94,0
0,58,89,384
0,70,86,20
0,70,83,0
0,69,94,16
0,69,83,0
0,67,95,8
0,67,98,0
0,63,114,0
0,51,119,8
0,51,83,0
0,65,93,0
0,65,92,0
0,55,76,0
0,65,83,0
0,65,107,0
0,63,116,0
0,67,94,16
0,62,108,0
0,63,107,0
0,67,95,16
0,58,81,0
0,58,84,20
0,51,17,20
0,51,23,20
0,51,29,20
0,51,35,20
0,51,41,20
0,51,47,20
0,51,53,20
0,51,58,20
0,51,64,20
0,51,70,20
0,51,76,20
0,51,82,20
0,51,88,20
0,51,94,20
0,51,100,20
0,51,105,4
0,51,111,0
0,46,84,0
0,53,80,0
0,58,96,0
0,62,83,0
0,53,108,284
0,42,56,4
0,62,112,0
0,63,117,20
0,65,122,20
0,63,80,20
0,63,112,0
0,62,116,20
0,53,86,96
0,42,71,20
0,62,92,0
0,60,120,0
0,58,89,20
0,58,121,0
0,39,92,20
0,53,80,0
0,55,79,0
0,58,92,0
0,58,110,0
0,53,111,20
0,42,66,20
0,55,113,0
0,67,98,20
0,58,98,20
0,42,58,384
0,46,95,20
0,53,80,0
0,58,86,0
0,62,88,0
0,53,107,288
0,42,56,20
0,62,109,0
0,63,118,20
0,65,121,20
0,53,87,20
0,58,79,0
0,63,92,0
0,63,116,0
0,62,120,20
0,42,60,20
0,60,115,0
0,53,84,20
0,58,80,0
0,62,97,0
0,58,105,0
0,39,79,20
0,53,98,0
0,55,87,0
0,58,84,0
0,58,120,0
0,42,59,384
0,58,88,20
0,70,87,20
0,42,71,20
0,58,85,20
0,50,96,20
0,65,88,0
0,48,98,20
0,63,94,0
0,62,86,20
0,63,83,20
0,60,84,20
0,42,62,96
0,62,123,0
0,63,110,28
0,62,119,28
0,53,86,20
0,62,83,0
0,60,117,0
0,58,124,20
0,43,97,20
0,63,97,0
0,58,112,0
0,42,54,20
0,58,110,0
0,53,81,20
0,62,92,0
0,62,121,0
0,60,108,20
0,41,97,20
0,53,88,0
0,58,88,0
0,60,91,0
0,63,93,0
0,60,117,0
0,62,80,8
0,63,87,8
0,60,84,8
0,42,69,20
0,58,95,0
0,60,80,0
0,58,96,20
0,65,92,0
0,57,95,20
0,60,106,0
0,57,118,20
0,57,111,20
0,42,60,96
0,62,93,20
0,48,91,20
0,55,94,0
0,63,96,0
0,62,84,20
0,63,86,20
0,60,86,20
0,42,71,96
0,63,123,92
0,62,105,20
0,63,113,20
0,53,87,20
0,62,94,0
0,62,117,0
0,55,82,20
0,63,83,0
0,60,112,0
0,42,56,20
0,58,112,0
0,53,83,20
0,62,90,0
0,62,111,0
0,41,83,20
0,53,91,0
0,58,83,0
0,60,94,0
0,60,123,0
0,60,113,20
0,42,71,20
0,58,94,0
0,60,97,0
0,58,85,20
0,65,87,0
0,48,88,20
0,57,79,0
0,42,53,384
0,53,93,20
0,60,93,20
0,53,96,20
0,46,96,20
0,53,96,0
0,58,86,0
0,62,95,0
0,53,93,0
0,62,83,0
0,53,118,288
0,42,58,20
0,62,112,0
0,63,110,20
0,65,110,20
0,53,94,20
0,58,98,0
0,63,90,0
0,63,79,0
0,63,111,0
0,62,111,20
0,60,108,20
0,42,53,20
0,53,98,0
0,58,82,0
0,62,87,0
0,62,77,0
0,58,123,20
0,39,79,20
0,53,83,0
0,55,95,0
0,58,97,0
0,55,75,0
0,58,87,0
0,58,120,0
0,55,116,20
0,42,60,20
0,55,105,0
0,70,86,20
0,65,92,20
0,67,85,20
0,58,82,20
0,42,68,96
0,63,83,20
0,58,86,20
0,46,89,20
0,53,84,0
0,58,84,0
0,62,84,0
0,53,88,0
0,62,80,0
0,53,117,116
0,62,115,20
0,42,54,96
0,63,115,20
0,65,124,20
0,53,95,20
0,58,91,0
0,63,80,0
0,63,78,0
0,63,118,0
0,62,109,20
0,60,114,20
0,42,64,20
0,53,92,0
0,58,88,0
0,62,81,0
0,62,74,0
0,58,112,20
0,58,114,20
0,39,87,20
0,53,89,0
0,55,91,0
0,58,92,0
0,55,82,0
0,58,74,0
0,42,66,384
0,58,94,20
0,67,80,0
0,60,96,20
0,69,86,0
0,62,94,20
0,70,91,0
0,42,61,96
0,63,88,20
0,72,91,0
0,65,83,20
0,74,88,0
0,48,84,20
0,67,97,0
0,75,94,0
0,63,85,0
0,55,91,0
0,63,80,0
0,65,79,8
0,74,92,0
0,62,80,0
0,67,91,8
0,75,84,0
0,63,92,0
0,63,80,8
0,72,94,0
0,60,93,0
0,42,65,96
0,55,120,0
0,63,105,20
0,67,80,20
0,75,90,0
0,62,114,0
0,65,97,20
0,74,86,0
0,53,83,0
0,62,82,0
0,62,118,0
0,60,107,20
0,58,118,20
0,42,58,20
0,60,79,0
0,75,87,0
0,55,93,0
0,63,88,0
0,62,115,20
0,60,117,20
0,41,79,20
0,53,98,0
0,58,81,0
0,58,87,0
0,65,86,0
0,42,68,384
0,65,90,20
0,58,91,20
0,57,89,20
0,57,74,0
0,60,120,0
0,57,119,20
0,57,115,20
0,42,56,20
0,57,86,0
0,65,89,0
0,48,80,20
0,67,83,0
0,75,94,0
0,55,80,0
0,63,82,0
0,65,97,20
0,74,93,0
0,67,85,20
0,75,81,0
0,55,107,0
0,63,88,20
0,72,87,0
0,63,105,0
0,42,58,96
0,62,112,20
0,63,109,20
0,63,95,20
0,62,117,0
0,53,80,20
0,62,91,0
0,53,78,0
0,62,87,0
0,60,112,20
0,58,105,20
0,42,53,20
0,55,87,0
0,63,81,0
0,55,92,0
0,63,85,0
0,67,107,20
0,41,81,20
0,58,90,0
0,65,86,0
0,58,87,0
0,65,83,0
0,65,106,0
0,42,57,384
0,58,87,20
0,65,94,0
0,57,83,20
0,65,93,0
0,57,80,0
0,42,67,20
0,42,92,0
0,62,96,0
0,66,82,0
0,69,90,0
0,66,83,0
0,60,85,20
0,43,98,20
0,58,86,0
0,62,83,0
0,67,86,0
0,55,81,0
0,58,91,0
0,67,75,0
0,62,117,288
0,42,65,20
0,58,86,0
0,67,80,0
0,67,123,0
0,60,79,20
0,69,79,0
0,69,107,0
0,62,91,20
0,70,85,0
0,70,119,0
0,60,84,20
0,69,86,0
0,69,111,0
0,39,96,20
0,57,74,0
0,60,84,0
0,65,84,0
0,67,107,20
0,58,80,20
0,67,91,0
0,42,65,20
0,57,83,0
0,65,88,0
0,63,90,0
0,65,124,0
0,55,80,20
0,63,88,0
0,62,117,0
0,46,81,20
0,58,87,0
0,62,79,0
0,65,81,0
0,53,74,0
0,58,91,0
0,62,81,0
0,65,107,0
0,62,110,20
0,42,65,20
0,58,90,0
0,62,93,0
0,65,83,0
0,62,110,0
0,60,94,20
0,62,92,20
0,45,97,20
0,57,98,0
0,60,97,0
0,65,90,0
0,53,89,0
0,57,80,0
0,60,83,0
0,42,60,20
0,60,92,0
0,60,87,0
0,72,84,20
0,43,83,20
0,62,81,0
0,67,92,0
0,70,98,0
0,58,91,0
0,58,77,0
0,62,76,0
0,67,76,0
0,62,124,288
0,42,67,20
0,67,118,0
0,69,115,20
0,70,120,20
0,39,91,20
0,60,97,0
0,69,83,0
0,57,75,0
0,60,84,0
0,65,85,0
0,69,120,0
0,67,119,20
0,42,54,20
0,58,94,0
0,67,91,0
0,55,90,0
0,58,77,0
0,63,81,0
0,65,114,0
0,67,118,20
0,46,97,20
0,53,90,0
0,58,92,0
0,62,88,0
0,53,88,0
0,62,86,0
0,65,124,20
0,65,110,20
0,42,56,192
0,60,89,20
0,62,86,20
0,41,96,20
0,53,90,0
0,57,97,0
0,60,83,0
0,53,94,0
0,74,78,0
0,86,80,0
0,57,88,0
0,60,89,0
0,60,80,20
0,42,62,32
0,60,79,0
0,42,94,20
0,54,90,0
0,57,88,0
0,62,97,0
0,54,93,0
0,43,96,20
0,55,85,0
0,58,94,0
0,62,89,0
0,58,84,0
0,58,89,0
0,62,75,0
0,67,92,0
0,55,89,20
0,42,67,20
0,55,79,0
0,58,97,0
0,67,117,0
0,57,93,20
0,60,85,0
0,69,108,0
0,58,90,20
0,62,91,0
0,70,118,0
0,39,95,20
0,57,89,0
0,65,91,0
0,57,77,0
0,60,82,0
0,65,85,0
0,69,109,0
0,46,88,20
0,58,79,20
0,67,88,0
0,42,66,20
0,43,82,0
0,55,83,0
0,58,90,0
0,63,85,0
0,67,106,20
0,63,95,20
0,70,89,0
0,65,119,0
0,67,113,20
0,46,85,20
0,58,80,0
0,62,91,0
0,65,90,0
0,53,79,0
0,62,87,0
0,65,108,0
0,62,108,20
0,42,64,20
0,58,81,0
0,62,121,0
0,53,81,20
0,58,84,20
0,65,81,20
0,45,88,20
0,53,93,0
0,57,81,0
0,60,94,0
0,72,82,0
0,84,87,0
0,57,84,0
0,60,76,0
0,60,109,0
0,58,114,20
0,42,53,20
0,43,91,0
0,55,96,0
0,58,96,0
0,62,96,0
0,70,83,0
0,82,79,0
0,55,82,0
0,58,79,0
0,62,91,0
0,48,79,20
0,55,95,0
0,63,83,0
0,63,93,0
0,60,89,0
0,63,84,0
0,53,91,8
0,62,86,0
0,62,93,0
0,55,94,8
0,63,90,0
0,63,91,0
0,51,86,8
0,60,81,0
0,60,91,0
0,53,123,0
0,42,55,20
0,60,119,0
0,62,111,28
0,63,112,28
0,53,84,20
0,58,91,0
0,65,80,0
0,41,81,0
0,58,87,0
0,65,77,0
0,62,122,0
0,60,105,20
0,42,68,20
0,41,91,0
0,57,95,0
0,57,74,0
0,58,115,0
0,60,121,20
0,58,111,20
0,46,87,20
0,62,97,0
0,62,80,0
0,58,114,0
0,60,90,16
0,60,92,0
0,42,71,96
0,65,98,16
0,65,90,0
0,58,81,308
0,42,65,20
0,70,93,0
0,70,97,0
0,69,80,16
0,69,97,0
0,67,97,8
0,67,91,0
0,51,87,8
0,65,94,0
0,65,94,4
0,58,97,16
0,60,89,20
0,67,86,16
0,67,84,0
0,42,61,96
0,58,82,16
0,58,79,0
0,67,75,0
0,70,75,0
0,75,84,0
0,77,84,0
0,79,85,0
0,82,80,0
0,87,78,0
0,36,109,16
0,38,112,12
0,38,117,16
0,45,118,8
0,45,108,16
0,45,119,16
0,41,102,12
0,36,90,24
0,36,109,20
0,42,55,0
0,49,121,0
0,34,112,0
0,53,85,0
0,58,93,0
0,62,83,0
0,62,84,0
0,42,55,188
0,36,78,92
0,53,119,0
0,38,121,20
0,42,70,0
0,62,106,0
0,42,66,20
0,63,118,0
0,36,87,16
0,29,113,0
0,65,111,0
0,36,116,8
0,42,56,0
0,34,119,0
0,53,87,0
0,58,88,0
0,63,83,0
0,63,75,0
0,63,115,0
0,42,63,20
0,62,120,0
0,36,78,20
0,60,121,0
0,38,109,20
0,42,62,0
0,53,84,0
0,58,90,0
0,62,84,0
0,62,86,0
0,42,65,20
0,58,117,0
0,46,71,92
0,36,105,16
0,42,66,0
0,39,111,0
0,53,90,0
0,55,87,0
0,58,86,0
0,65,92,0
0,58,109,0
0,42,62,188
0,36,87,20
0,55,109,0
0,38,119,20
0,42,62,0
0,63,75,0
0,55,112,0
0,42,54,20
0,62,84,0
0,36,86,16
0,34,112,0
0,36,120,8
0,42,69,0
0,39,117,0
0,58,77,0
0,70,85,20
0,58,92,0
0,42,57,8
0,69,83,0
0,57,91,0
0,36,90,8
0,65,79,0
0,53,85,0
0,38,107,20
0,42,59,0
0,60,83,0
0,46,89,16
0,41,117,0
0,60,88,0
0,48,95,0
0,43,103,8
0,36,108,8
0,42,54,0
0,34,107,0
0,53,96,0
0,58,93,0
0,62,93,0
0,62,80,0
0,42,68,188
0,53,124,0
0,36,79,20
0,62,110,0
0,38,111,92
0,42,52,0
0,42,54,20
0,63,108,0
0,36,77,16
0,41,111,0
0,65,113,0
0,36,107,8
0,42,59,0
0,34,120,0
0,53,92,0
0,58,79,0
0,63,83,0
0,63,85,0
0,63,110,0
0,42,66,20
0,62,112,0
0,36,89,92
0,38,113,20
0,42,66,0
0,53,79,0
0,58,81,0
0,62,97,0
0,62,76,0
0,60,109,0
0,42,64,20
0,62,109,0
0,58,110,20
0,36,102,16
0,42,61,0
0,39,104,0
0,53,94,0
0,55,96,0
0,58,96,0
0,65,83,0
0,58,117,0
0,42,54,188
0,36,83,92
0,38,106,92
0,42,64,0
0,42,63,20
0,51,80,0
0,36,78,16
0,34,109,0
0,53,95,0
0,36,102,8
0,42,55,0
0,39,120,0
0,55,97,0
0,63,82,0
0,42,54,92
0,42,57,92
0,36,88,92
0,38,121,16
0,42,69,0
0,43,115,0
0,51,86,0
0,55,85,0
0,58,80,0
0,62,87,0
0,42,53,188
0,46,88,92
0,36,112,16
0,42,54,0
0,36,121,0
0,67,82,0
0,75,84,0
0,63,76,0
0,65,86,20
0,74,94,0
0,42,68,20
0,67,80,0
0,75,97,0
0,36,90,20
0,63,93,0
0,72,86,0
0,55,107,0
0,38,117,20
0,42,60,0
0,63,113,0
0,42,71,20
0,65,98,0
0,74,80,0
0,62,114,0
0,36,87,16
0,31,105,0
0,67,95,0
0,75,81,0
0,63,107,0
0,36,118,8
0,42,52,0
0,36,107,0
0,65,98,0
0,74,91,0
0,65,75,0
0,62,106,0
0,42,52,188
0,36,85,20
0,63,89,0
0,72,95,0
0,60,110,0
0,38,102,20
0,42,58,0
0,63,85,0
0,58,110,0
0,42,59,20
0,62,79,0
0,70,80,0
0,39,106,16
0,62,117,0
0,36,112,8
0,42,57,0
0,41,110,0
0,60,90,0
0,65,86,0
0,69,87,0
0,65,92,0
0,60,109,0
0,42,68,188
0,36,83,92
0,38,110,20
0,42,61,0
0,60,82,0
0,65,93,0
0,69,94,0
0,42,54,20
0,57,88,0
0,65,79,0
0,36,80,16
0,36,112,0
0,58,95,0
0,67,93,0
0,60,115,0
0,36,118,8
0,42,58,0
0,41,105,0
0,57,93,0
0,65,91,0
0,57,92,0
0,57,117,20
0,42,64,96
0,36,74,20
0,57,115,0
0,38,111,20
0,42,65,0
0,53,90,0
0,53,110,20
0,42,64,16
0,41,118,0
0,60,95,0
0,62,83,20
0,36,117,16
0,42,59,0
0,36,117,0
0,67,94,0
0,75,91,0
0,63,85,0
0,67,88,0
0,65,82,20
0,74,80,0
0,42,57,20
0,67,95,0
0,75,97,0
0,36,86,20
0,63,98,0
0,72,80,0
0,38,103,92
0,42,53,0
0,63,123,0
0,42,69,20
0,62,109,0
0,36,76,16
0,31,117,0
0,63,107,0
0,36,102,8
0,42,71,0
0,36,114,0
0,62,80,0
0,70,96,0
0,62,75,0
0,65,89,0
0,62,105,0
0,60,119,20
0,42,65,96
0,36,78,92
0,38,106,20
0,42,57,0
0,63,82,0
0,72,98,0
0,60,90,0
0,63,77,0
0,58,106,0
0,67,106,20
0,42,60,96
0,42,53,20
0,65,124,0
0,36,109,16
0,42,68,0
0,41,120,0
0,58,86,0
0,60,92,0
0,65,82,0
0,58,89,0
0,65,91,0
0,65,115,0
0,42,68,188
0,36,89,92
0,38,111,92
0,42,67,0
0,42,53,16
0,41,105,0
0,58,83,0
0,36,83,20
0,65,95,0
0,36,112,16
0,42,57,0
0,41,113,0
0,57,98,0
0,60,93,0
0,65,93,0
0,69,81,0
0,72,92,0
0,77,79,0
0,45,111,92
0,36,92,188
0,45,106,16
0,42,109,0
0,57,86,0
0,60,91,0
0,66,82,0
0,66,88,0
