track,note,velocity,time
2,72,127,144
2,72,0,95
2,69,127,1
2,69,0,47
2,67,127,1
2,67,0,47
2,69,127,1
2,69,0,31
2,62,127,1
2,62,0,15
2,64,127,1
2,64,0,47
2,67,127,1
2,67,0,31
2,64,127,1
2,64,0,15
2,62,127,1
2,62,0,31
2,60,127,1
2,60,0,15
2,62,127,1
2,62,0,31
2,64,127,1
2,64,0,15
2,62,127,1
2,62,0,95
2,67,127,145
2,67,0,31
2,64,127,1
2,62,127,16
2,64,0,7
2,62,0,24
2,60,127,1
2,62,127,16
2,60,0,7
2,62,0,24
2,64,127,1
2,64,0,15
2,62,127,1
2,62,0,95
2,62,127,145
2,63,127,0
2,62,0,7
2,63,0,16
2,62,127,9
2,60,127,16
2,62,0,7
2,60,0,24
2,57,127,1
2,57,0,15
2,60,127,1
2,60,0,47
2,72,127,337
2,76,127,0
2,76,0,95
2,72,0,0
2,69,127,1
2,74,127,0
2,74,0,47
2,69,0,0
2,67,127,1
2,72,127,0
2,72,0,47
2,67,0,0
2,69,127,1
2,74,127,0
2,69,0,15
2,74,0,8
2,62,127,9
2,67,127,0
2,67,0,15
2,62,0,0
2,64,127,1
2,69,127,0
2,69,0,39
2,64,0,8
2,67,127,1
2,72,127,0
2,72,0,23
2,67,0,8
2,64,127,1
2,67,127,0
2,67,0,15
2,64,0,0
2,62,121,1
2,65,127,0
2,65,0,31
2,62,0,0
2,60,120,1
2,64,126,0
2,64,0,15
2,65,127,1
2,62,127,0
2,60,0,7
2,62,0,24
2,65,0,0
2,64,127,1
2,67,127,0
2,67,0,15
2,64,0,0
2,62,127,1
2,65,127,0
2,65,0,95
2,62,0,0
2,66,122,145
2,67,127,0
2,71,127,0
2,72,127,0
2,71,0,7
2,66,0,0
2,67,0,16
2,72,0,0
2,64,127,9
2,67,127,0
2,67,0,15
2,64,0,0
2,62,119,1
2,65,127,0
2,65,0,31
2,62,0,0
2,60,126,1
2,64,122,0
2,64,0,15
2,60,0,0
2,62,127,1
2,65,127,0
2,67,126,24
2,65,0,7
2,62,0,0
2,64,127,1
2,67,0,7
2,64,0,8
2,62,127,1
2,65,127,0
2,65,0,95
2,62,0,0
2,62,124,145
2,63,127,0
2,65,127,0
2,67,127,0
2,65,0,7
2,62,0,0
2,63,0,24
2,67,0,0
2,62,126,1
2,65,127,0
2,62,0,15
2,60,127,1
2,64,127,0
2,65,0,7
2,60,0,16
2,64,0,8
2,57,126,1
2,60,127,0
2,57,0,15
2,64,127,1
2,64,0,47
2,60,0,0
2,64,127,0
2,64,0,31
2,62,127,1
2,62,0,15
2,64,127,1
2,64,0,31
2,62,127,1
2,62,0,13
2,64,127,1
2,64,0,15
2,64,127,17
2,64,0,15
2,67,127,33
2,67,0,63
2,60,127,33
2,60,0,15
2,62,127,1
2,62,0,23
2,62,127,25
2,62,0,23
2,60,126,9
2,60,0,15
2,62,127,1
2,62,0,47
2,60,127,1
2,60,0,31
2,64,127,17
2,64,0,31
2,60,127,1
2,60,0,15
2,62,127,33
2,62,0,63
2,64,127,1
2,64,0,39
2,60,127,9
2,60,0,31
2,60,127,1
2,60,0,15
2,64,127,289
2,64,0,39
2,60,127,9
2,60,0,31
2,60,127,1
2,60,0,15
2,62,127,369
2,62,0,15
2,64,127,1
2,64,0,31
2,62,126,1
2,62,0,15
2,64,127,1
2,64,0,47
2,62,127,1
2,62,0,39
2,64,127,9
2,64,0,23
2,64,127,9
2,64,0,15
2,67,127,33
2,67,0,39
2,67,127,9
2,67,0,7
2,60,127,89
2,60,0,15
2,62,123,1
2,62,0,31
2,60,124,1
2,60,0,15
2,62,127,1
2,62,0,23
2,62,127,9
2,60,127,16
2,62,0,7
2,60,0,24
2,64,127,17
2,64,0,39
2,60,127,9
2,60,0,39
2,62,127,9
2,62,0,23
2,62,127,9
2,62,0,15
2,64,127,1
2,64,0,31
2,60,127,17
2,60,0,31
2,60,127,1
2,60,0,15
2,64,127,289
2,64,0,31
2,60,127,17
2,60,0,23
2,60,127,9
2,60,0,15
2,69,127,97
2,69,0,39
2,67,127,9
2,67,0,15
2,67,127,17
2,67,0,15
2,64,127,0
2,64,0,23
2,62,127,25
2,62,0,31
2,60,127,1
2,60,0,15
2,57,127,1
2,57,0,31
2,55,126,1
2,55,0,7
2,72,127,9
2,72,0,95
2,69,127,1
2,69,0,47
2,67,127,1
2,67,0,39
2,69,127,9
2,69,0,23
2,62,127,9
2,62,0,15
2,64,124,1
2,64,0,39
2,67,127,9
2,67,0,31
2,64,127,1
2,64,0,15
2,62,127,1
2,62,0,31
2,60,126,1
2,60,0,15
2,62,127,1
2,62,0,31
2,64,125,1
2,64,0,15
2,62,127,1
2,62,0,95
2,69,127,1
2,69,0,31
2,69,127,17
2,69,0,23
2,69,122,9
2,69,0,7
2,67,127,57
2,67,0,31
2,64,127,1
2,62,127,16
2,64,0,7
2,62,0,24
2,60,126,1
2,62,127,16
2,60,0,7
2,62,0,24
2,64,123,1
2,64,0,15
2,62,126,1
2,62,0,95
2,69,127,1
2,69,0,31
2,69,127,17
2,69,0,23
2,69,125,9
2,69,0,7
2,62,127,57
2,63,127,0
2,62,0,7
2,63,0,24
2,62,127,1
2,62,0,15
2,60,127,1
2,60,0,31
2,57,127,1
2,57,0,15
2,60,127,1
2,60,0,135
2,69,127,9
2,69,0,39
2,67,127,9
2,67,0,15
2,67,127,17
2,67,0,15
2,64,127,1
2,64,0,23
2,62,127,25
2,62,0,31
2,60,127,1
2,60,0,23
2,76,126,41
2,76,0,95
2,74,127,1
2,74,0,47
2,72,127,1
2,72,0,47
2,74,127,1
2,74,0,31
2,67,123,1
2,67,0,15
2,69,127,1
2,69,0,47
2,72,127,1
2,72,0,31
2,67,127,1
2,67,0,15
2,65,123,1
2,65,0,31
2,64,126,1
2,64,0,15
2,65,127,1
2,65,0,31
2,67,122,1
2,67,0,15
2,65,127,1
2,65,0,95
2,69,127,1
2,69,0,23
2,69,127,25
2,69,0,23
2,69,127,9
2,69,0,7
2,72,127,57
2,72,0,31
2,67,127,1
2,67,0,15
2,65,126,1
2,65,0,31
2,64,121,1
2,64,0,15
2,65,127,1
2,65,0,31
2,67,125,1
2,67,0,15
2,65,127,1
2,65,0,87
2,69,127,9
2,69,0,31
2,69,127,17
2,69,0,23
2,69,125,9
2,69,0,7
2,67,126,57
2,65,124,32
2,67,0,7
2,65,0,8
2,64,127,1
2,64,0,31
2,60,121,1
2,60,0,15
2,64,126,1
2,64,0,95
2,60,127,49
2,60,0,15
2,64,127,33
2,64,0,31
2,67,127,1
2,67,0,15
2,69,127,1
2,69,0,23
2,67,127,25
2,67,0,23
2,60,127,9
2,60,0,55
2,64,127,57
2,64,0,15
2,64,127,33
2,64,0,31
2,62,122,1
2,62,0,15
2,64,126,1
2,64,0,31
2,62,126,1
2,62,0,15
2,64,127,1
2,64,0,23
2,64,127,9
2,64,0,15
2,67,127,33
2,67,0,71
2,60,127,25
2,60,0,15
2,62,127,1
2,62,0,23
2,62,127,25
2,62,0,31
2,60,125,1
2,60,0,15
2,62,127,1
2,62,0,47
2,60,127,1
2,60,0,31
2,64,127,17
2,64,0,31
2,60,127,1
2,60,0,15
2,62,127,33
2,62,0,55
2,64,127,9
2,64,0,39
2,60,127,9
2,60,0,23
2,60,127,9
2,60,0,15
2,64,127,289
2,64,0,31
2,60,127,17
2,60,0,23
2,60,127,9
2,60,0,15
2,62,127,369
2,62,0,15
2,64,127,1
2,64,0,23
2,62,127,9
2,62,0,15
2,64,127,1
2,64,0,47
2,62,127,1
2,62,0,39
2,64,127,9
2,64,0,31
2,64,127,1
2,64,0,15
2,67,126,33
2,67,0,39
2,67,124,9
2,67,0,7
2,60,127,89
2,60,0,15
2,62,127,1
2,62,0,31
2,60,127,1
2,60,0,15
2,62,127,1
2,62,0,23
2,62,127,9
2,62,0,15
2,60,127,1
2,60,0,31
2,64,127,17
2,64,0,31
2,60,127,17
2,60,0,31
2,62,127,17
2,62,0,23
2,62,127,9
2,62,0,15
2,64,127,1
2,64,0,23
2,60,127,25
2,60,0,23
2,60,127,9
2,60,0,15
2,64,127,289
2,64,0,31
2,60,127,17
2,60,0,23
2,60,127,9
2,60,0,15
2,69,127,97
2,69,0,39
2,67,127,9
2,67,0,23
2,67,127,9
2,67,0,15
2,64,127,1
2,64,0,15
2,62,127,33
2,62,0,31
2,60,127,1
2,60,0,15
2,57,127,1
2,57,0,31
2,55,127,1
2,55,0,7
2,72,127,9
2,72,0,95
2,69,127,1
2,69,0,47
2,67,127,1
2,67,0,47
2,69,127,1
2,69,0,31
2,62,127,1
2,62,0,15
2,64,127,1
2,64,0,39
2,67,127,9
2,67,0,31
2,64,127,1
2,64,0,15
2,62,127,1
2,62,0,31
2,60,122,1
2,60,0,15
2,62,127,1
2,64,127,24
2,62,0,7
2,64,0,8
2,62,126,9
2,62,0,79
2,69,127,17
2,69,0,23
2,69,127,25
2,69,0,23
2,69,127,9
2,69,0,15
2,67,127,49
2,67,0,31
2,64,127,1
2,64,0,15
2,62,122,1
2,62,0,31
2,60,127,1
2,60,0,15
2,62,127,1
2,62,0,31
2,64,127,1
2,64,0,15
2,62,127,1
2,62,0,87
2,69,127,9
2,69,0,23
2,69,127,25
2,69,0,23
2,69,125,9
2,69,0,7
2,62,127,57
2,63,127,0
2,62,0,7
2,63,0,24
2,62,127,1
2,62,0,15
2,60,127,1
2,60,0,31
2,57,127,1
2,57,0,15
2,60,127,1
2,60,0,111
2,69,127,33
2,69,0,23
2,67,127,25
2,67,0,15
2,67,126,17
2,67,0,15
2,64,127,1
2,64,0,23
2,62,127,25
2,62,0,23
2,60,127,1
2,60,0,15
2,76,127,57
2,76,0,95
2,74,127,1
2,74,0,47
2,72,126,1
2,72,0,47
2,74,127,1
2,74,0,23
2,67,127,9
2,67,0,15
2,69,123,1
2,69,0,47
2,72,127,1
2,72,0,31
2,67,127,1
2,67,0,15
2,65,127,1
2,65,0,31
2,64,122,1
2,64,0,15
2,65,127,1
2,67,120,24
2,65,0,7
2,67,0,8
2,65,125,9
2,65,0,87
2,69,127,9
2,69,0,23
2,69,127,25
2,69,0,23
2,69,126,9
2,69,0,7
2,72,127,57
2,72,0,31
2,67,127,1
2,67,0,15
2,65,127,1
2,65,0,31
2,64,121,1
2,64,0,15
2,65,127,1
2,65,0,31
2,67,126,1
2,67,0,15
2,65,127,1
2,65,0,87
2,69,126,9
2,69,0,23
2,69,127,25
2,69,0,23
2,69,124,9
2,69,0,7
2,67,127,57
2,67,0,31
2,65,123,1
2,64,127,16
2,65,0,7
2,64,0,24
2,60,122,1
2,60,0,15
2,64,127,1
2,64,0,103
2,60,127,41
2,60,0,15
2,64,127,33
2,64,0,31
2,67,127,1
2,67,0,15
2,57,127,0
2,57,0,23
2,55,127,25
2,55,0,23
2,48,127,9
2,48,0,15
2,64,127,49
2,64,0,95
2,62,127,1
2,62,0,47
2,60,127,1
2,60,0,47
2,62,127,1
2,62,0,31
2,55,126,1
2,55,0,15
2,57,127,1
2,57,0,31
2,60,127,17
2,60,0,31
2,55,126,1
2,55,0,15
2,53,125,1
2,53,0,31
2,52,118,1
2,52,0,15
2,53,127,1
2,53,0,31
2,55,120,1
2,55,0,15
2,53,126,1
2,53,0,191
2,60,127,49
2,60,0,31
2,55,127,1
2,55,0,15
2,53,127,1
2,53,0,31
2,52,124,1
2,52,0,15
2,53,127,1
2,53,0,31
2,55,123,1
2,55,0,15
2,53,126,1
2,53,0,183
2,55,127,57
2,53,126,32
2,55,0,7
2,52,126,9
2,53,0,7
2,52,0,24
2,48,122,1
2,48,0,15
2,52,127,1
2,52,0,95
2,60,127,116
2,60,0,23
2,60,127,9
2,60,0,7
3,48,69,96
3,48,0,31
3,55,68,1
3,60,68,16
3,64,68,0
3,64,0,15
3,60,0,0
3,60,67,17
3,64,68,0
3,64,0,15
3,60,0,0
3,55,0,2
3,48,66,127
3,48,0,15
3,55,68,1
3,60,68,0
3,64,68,0
3,64,0,15
3,60,0,0
3,55,0,0
3,55,67,17
3,60,67,0
3,64,66,0
3,64,0,15
3,60,0,0
3,55,0,0
3,48,64,33
3,48,0,15
3,60,68,1
3,64,68,0
3,67,68,0
3,67,0,15
3,64,0,16
3,60,0,0
3,60,66,1
3,64,66,0
3,67,67,0
3,67,0,15
3,64,0,0
3,60,0,0
3,50,68,33
3,50,0,15
3,62,68,1
3,57,68,0
3,65,68,0
3,65,0,15
3,57,0,0
3,62,0,0
3,57,66,17
3,62,67,0
3,65,66,0
3,65,0,15
3,62,0,0
3,57,0,0
3,57,68,33
3,57,0,15
3,62,67,1
3,65,67,0
3,69,67,0
3,69,0,15
3,65,0,0
3,62,0,0
3,62,67,17
3,65,66,0
3,69,67,0
3,69,0,15
3,65,0,0
3,62,0,0
3,62,68,145
3,57,68,0
3,65,68,0
3,57,0,15
3,65,0,16
3,62,0,0
3,57,67,1
3,62,67,0
3,65,67,0
3,65,0,15
3,62,0,0
3,57,0,0
3,41,68,33
3,41,0,15
3,57,68,1
3,60,68,0
3,65,68,0
3,65,0,15
3,60,0,0
3,57,0,0
3,57,66,17
3,60,67,0
3,65,67,0
3,65,0,15
3,60,0,0
3,57,0,0
3,53,65,33
3,53,0,15
3,65,68,1
3,60,68,0
3,69,68,0
3,69,0,15
3,60,0,0
3,65,0,16
3,60,67,1
3,65,67,0
3,69,67,0
3,69,0,15
3,65,0,0
3,60,0,0
3,48,64,225
3,48,0,15
3,55,68,1
3,60,68,0
3,64,68,0
3,64,0,15
3,60,0,0
3,55,0,0
3,55,66,17
3,60,67,0
3,64,67,0
3,64,0,15
3,60,0,0
3,55,0,0
3,48,67,33
3,48,0,15
3,60,68,1
3,64,67,0
3,67,68,0
3,67,0,15
3,64,0,0
3,60,0,0
3,60,66,17
3,64,67,0
3,67,67,0
3,67,0,15
3,64,0,0
3,60,0,0
3,55,69,97
3,55,0,15
3,57,68,1
3,57,0,15
3,60,66,1
3,60,0,15
3,62,68,1
3,62,0,15
3,64,67,1
3,64,0,15
3,67,68,1
3,67,0,15
3,48,68,33
3,48,0,15
3,55,68,1
3,60,68,0
3,64,68,0
3,64,0,15
3,60,0,0
3,55,0,0
3,55,66,17
3,60,66,0
3,64,66,0
3,64,0,15
3,60,0,0
3,55,0,0
3,48,67,33
3,48,0,15
3,60,67,1
3,55,67,0
3,64,67,0
3,67,67,0
3,67,0,15
3,60,0,0
3,55,0,0
3,64,0,0
3,48,66,161
3,48,0,15
3,55,68,1
3,60,68,0
3,64,68,0
3,64,0,15
3,55,0,0
3,60,0,16
3,55,66,1
3,60,67,0
3,64,66,0
3,64,0,15
3,60,0,0
3,55,0,0
3,50,67,33
3,50,0,15
3,62,68,1
3,57,68,0
3,65,68,0
3,65,0,15
3,57,0,0
3,62,0,0
3,62,67,17
3,57,65,0
3,65,66,0
3,65,0,15
3,57,0,0
3,62,0,0
3,50,66,33
3,50,0,15
3,62,67,1
3,57,67,0
3,65,67,0
3,69,67,0
3,57,0,15
3,62,0,16
3,65,0,0
3,69,0,0
3,62,67,1
3,57,66,0
3,65,66,0
3,69,67,0
3,69,0,15
3,62,0,0
3,57,0,0
3,65,0,0
3,50,68,129
3,50,0,15
3,62,67,1
3,57,67,0
3,65,67,0
3,57,0,15
3,65,0,16
3,62,0,0
3,57,67,1
3,62,66,0
3,65,66,0
3,65,0,15
3,62,0,0
3,57,0,0
3,41,67,33
3,41,0,15
3,57,68,1
3,60,68,0
3,65,68,0
3,65,0,15
3,60,0,0
3,57,0,0
3,57,66,17
3,60,66,0
3,65,65,0
3,65,0,15
3,60,0,0
3,57,0,0
3,53,65,33
3,53,0,15
3,60,67,1
3,65,68,0
3,69,68,0
3,60,0,15
3,69,0,16
3,65,0,0
3,60,67,1
3,65,66,0
3,69,67,0
3,69,0,15
3,65,0,0
3,60,0,0
3,48,66,225
3,48,0,15
3,55,68,1
3,60,68,0
3,64,68,0
3,64,0,15
