track,note,velocity,time
5,70,60,240
5,79,60,0
5,68,60,0
5,77,60,0
5,72,60,0
5,80,60,0
5,70,60,0
5,79,60,0
5,79,60,600
5,80,60,0
5,82,60,0
5,82,60,0
5,86,60,0
5,77,60,0
5,75,60,0
5,80,60,0
5,84,60,0
5,82,60,0
5,74,60,0
5,72,60,0
5,80,60,0
5,72,60,0
5,80,60,0
5,70,60,0
5,79,60,0
5,82,60,0
5,75,60,0
5,79,60,480
5,80,60,0
5,82,60,0
5,82,60,0
5,77,60,0
5,74,60,0
5,72,60,0
5,75,60,0
5,80,60,0
5,79,60,0
5,70,60,0
5,75,60,0
5,68,60,0
5,75,60,0
5,67,60,0
5,70,60,0
5,70,60,0
5,68,60,0
5,75,60,0
5,72,60,0
5,65,60,0
5,70,60,0
5,74,60,0
5,82,60,0
5,87,60,0
5,80,60,0
5,84,60,0
5,77,60,0
5,82,60,0
5,86,60,0
5,67,60,0
5,70,60,0
5,70,60,0
5,68,60,0
5,75,60,0
5,72,60,0
5,65,60,0
5,70,60,0
5,74,60,0
5,82,60,0
5,87,60,0
5,80,60,0
5,84,60,0
5,77,60,0
5,82,60,0
5,86,60,0
5,68,60,0
5,72,60,0
5,77,60,0
5,68,60,0
5,77,60,0
5,70,60,0
5,79,60,0
5,72,60,0
5,80,60,0
5,70,60,0
5,79,60,0
5,68,60,0
5,77,60,0
5,68,60,0
5,75,60,0
5,68,60,0
5,77,60,0
5,77,60,0
5,75,60,0
5,70,60,0
5,70,60,120
5,75,60,0
5,77,60,0
5,82,60,0
5,77,60,0
5,75,60,0
5,70,60,0
5,70,60,0
5,77,60,0
5,74,60,0
5,68,60,0
5,77,60,0
5,72,60,0
5,68,60,0
5,77,60,0
5,70,60,0
5,79,60,0
5,72,60,0
5,80,60,0
5,70,60,0
5,79,60,0
5,68,60,0
5,77,60,0
5,68,60,0
5,75,60,0
5,68,60,0
5,77,60,0
5,77,60,0
5,75,60,0
5,70,60,0
5,70,60,120
5,75,60,0
5,77,60,0
5,82,60,0
5,77,60,0
5,75,60,0
5,70,60,0
5,70,60,0
5,74,60,0
5,77,60,0
5,67,60,0
5,70,60,0
5,70,60,0
5,68,60,0
5,75,60,0
5,72,60,0
5,65,60,0
5,70,60,0
5,74,60,0
5,82,60,0
5,87,60,0
5,80,60,0
5,84,60,0
5,77,60,0
5,82,60,0
5,86,60,0
5,67,60,0
5,70,60,0
5,70,60,0
5,68,60,0
5,75,60,0
5,72,60,0
5,65,60,0
5,70,60,0
5,74,60,0
5,82,60,0
5,87,60,0
5,80,60,0
5,84,60,0
5,77,60,0
5,82,60,0
5,86,60,0
5,68,60,0
5,72,60,0
5,77,60,0
5,68,60,0
5,77,60,0
5,70,60,0
5,79,60,0
5,72,60,0
5,80,60,0
5,70,60,0
5,79,60,0
5,68,60,0
5,77,60,0
5,68,60,0
5,75,60,0
5,70,60,0
5,77,60,0
5,77,60,0
5,75,60,0
5,70,60,0
5,70,60,120
5,75,60,0
5,77,60,0
5,82,60,0
5,77,60,0
5,75,60,0
5,70,60,0
5,70,60,0
5,77,60,0
5,74,60,0
5,68,60,0
5,77,60,0
5,72,60,0
5,68,60,0
5,77,60,0
5,70,60,0
5,79,60,0
5,72,60,0
5,80,60,0
5,70,60,0
5,79,60,0
5,68,60,0
5,77,60,0
5,68,60,0
5,75,60,0
5,77,60,0
5,70,60,0
5,77,60,0
5,75,60,0
5,70,60,0
5,70,60,120
5,75,60,0
5,77,60,0
5,82,60,0
5,77,60,0
5,75,60,0
5,70,60,0
5,70,60,0
5,74,60,0
5,77,60,0
5,72,60,0
5,79,60,0
5,75,60,0
5,75,60,0
5,79,60,0
5,84,60,0
5,87,60,0
5,79,60,0
5,84,60,0
5,86,60,0
5,82,60,0
5,77,60,0
5,84,60,0
5,75,60,0
5,80,60,0
5,82,60,0
5,75,60,0
5,80,60,0
5,75,60,0
5,82,60,0
5,79,60,0
5,77,60,0
5,82,60,0
5,75,60,0
5,82,60,0
5,77,60,0
5,70,60,0
5,70,60,120
5,77,60,0
5,82,60,0
5,89,60,0
5,87,60,0
5,86,60,0
5,87,60,0
5,79,60,0
5,84,60,0
5,79,60,0
5,84,60,0
5,75,60,0
5,82,60,0
5,86,60,0
5,77,60,0
5,80,60,0
5,75,60,0
5,84,60,0
5,82,60,0
5,75,60,0
5,80,60,0
5,75,60,0
5,82,60,0
5,77,60,0
5,79,60,0
5,82,60,0
5,75,60,0
5,82,60,0
5,77,60,0
5,70,60,0
5,70,60,120
5,77,60,0
5,82,60,0
5,89,60,0
5,87,60,0
5,86,60,0
5,79,60,0
5,84,60,0
5,75,60,0
5,75,60,0
5,84,60,0
5,79,60,0
5,82,60,0
5,77,60,0
5,86,60,0
5,75,60,0
5,80,60,0
5,84,60,0
5,75,60,0
5,82,60,0
5,80,60,0
5,75,60,0
5,82,60,0
5,77,60,0
5,79,60,0
5,82,60,0
5,75,60,0
5,82,60,0
5,77,60,0
5,70,60,0
5,70,60,120
5,77,60,0
5,82,60,0
5,77,60,0
5,70,60,0
5,68,60,0
5,72,60,0
5,75,60,0
5,80,60,0
5,68,60,0
5,72,60,0
5,80,60,0
5,75,60,0
5,68,60,0
5,72,60,0
5,77,60,0
5,65,60,0
5,63,60,0
5,75,60,0
5,74,60,0
5,62,60,0
5,63,60,0
5,75,60,0
5,63,60,0
5,75,60,0
5,70,60,0
5,77,60,0
5,82,60,0
5,75,60,0
5,79,60,480
5,80,60,0
5,82,60,0
5,82,60,0
5,77,60,0
5,86,60,0
5,75,60,0
5,80,60,0
5,84,60,0
5,82,60,0
5,74,60,0
5,72,60,0
5,80,60,0
5,70,60,0
5,79,60,0
5,70,60,0
5,67,60,0
5,70,60,0
5,68,60,0
5,75,60,0
5,72,60,0
5,65,60,0
5,70,60,0
5,74,60,0
5,82,60,0
5,87,60,0
5,80,60,0
5,84,60,0
5,77,60,0
5,82,60,0
5,86,60,0
5,70,60,0
5,79,60,0
5,70,60,0
5,67,60,0
5,70,60,0
5,68,60,0
5,75,60,0
5,72,60,0
5,65,60,0
5,70,60,0
5,74,60,0
5,82,60,0
5,87,60,0
5,80,60,0
5,84,60,0
5,77,60,0
5,82,60,0
5,86,60,0
5,65,60,0
5,68,60,0
5,72,60,0
5,68,60,0
5,77,60,0
5,70,60,0
5,79,60,0
5,72,60,0
5,80,60,0
5,70,60,0
5,79,60,0
5,68,60,0
5,77,60,0
5,68,60,0
5,75,60,0
5,68,60,0
5,77,60,0
5,77,60,0
5,75,60,0
5,70,60,0
5,70,60,120
5,75,60,0
5,77,60,0
5,82,60,0
5,77,60,0
5,75,60,0
5,70,60,0
5,70,60,0
5,77,60,0
5,74,60,0
5,65,60,0
5,68,60,0
5,72,60,0
5,68,60,0
5,77,60,0
5,70,60,0
5,79,60,0
5,72,60,0
5,80,60,0
5,70,60,0
5,79,60,0
5,68,60,0
5,77,60,0
5,68,60,0
5,75,60,0
5,68,60,0
5,77,60,0
5,77,60,0
5,75,60,0
5,70,60,0
5,70,60,120
5,75,60,0
5,77,60,0
5,82,60,0
5,77,60,0
5,75,60,0
5,70,60,0
5,70,60,0
5,74,60,0
5,77,60,0
5,72,60,0
5,79,60,0
5,75,60,0
5,75,60,0
5,79,60,0
5,84,60,0
5,87,60,0
5,79,60,0
5,84,60,0
5,86,60,0
5,82,60,0
5,77,60,0
5,84,60,0
5,75,60,0
5,80,60,0
5,82,60,0
5,75,60,0
5,80,60,0
5,75,60,0
5,82,60,0
5,79,60,0
5,77,60,0
5,82,60,0
5,75,60,0
5,82,60,0
5,77,60,0
5,70,60,0
5,70,60,120
5,77,60,0
5,82,60,0
5,89,60,0
5,87,60,0
5,86,60,0
5,87,60,0
5,79,60,0
5,84,60,0
5,79,60,0
5,84,60,0
5,75,60,0
5,82,60,0
5,86,60,0
5,77,60,0
5,80,60,0
5,75,60,0
5,84,60,0
5,82,60,0
5,75,60,0
5,80,60,0
5,75,60,0
5,82,60,0
5,77,60,0
5,79,60,0
5,82,60,0
5,75,60,0
5,82,60,0
5,77,60,0
5,70,60,0
5,70,60,120
5,77,60,0
5,82,60,0
5,89,60,0
5,87,60,0
5,86,60,0
5,79,60,0
5,84,60,0
5,75,60,0
5,75,60,0
5,84,60,0
5,79,60,0
5,82,60,0
5,77,60,0
5,86,60,0
5,75,60,0
5,80,60,0
5,84,60,0
5,75,60,0
5,82,60,0
5,80,60,0
5,75,60,0
5,82,60,0
5,77,60,0
5,79,60,0
5,82,60,0
5,75,60,0
5,82,60,0
5,77,60,0
5,70,60,0
5,70,60,120
5,77,60,0
5,82,60,0
5,77,60,0
5,70,60,0
5,68,60,0
5,72,60,0
5,75,60,0
5,80,60,0
5,68,60,0
5,72,60,0
5,80,60,0
5,75,60,0
5,68,60,0
5,72,60,0
5,77,60,0
5,65,60,0
5,63,60,0
5,75,60,0
5,74,60,0
5,62,60,0
5,63,60,0
5,75,60,0
5,67,60,0
5,70,60,0
5,75,60,0
5,70,60,0
5,79,60,0
5,75,60,0
5,82,60,0
5,79,60,0
5,75,60,0
5,82,60,0
5,86,60,0
5,79,60,0
5,75,60,0
5,87,60,0
5,82,60,0
5,75,60,0
5,79,60,0
5,80,60,0
5,84,60,0
5,87,60,0
5,75,60,0
5,84,60,120
5,80,60,0
5,75,60,0
5,84,60,0
5,80,60,0
5,75,60,0
5,72,60,0
5,80,60,0
5,75,60,0
5,68,60,0
5,72,60,0
5,75,60,0
5,70,60,0
5,74,60,0
5,77,60,0
5,75,60,0
5,82,60,0
5,77,60,0
5,86,60,0
5,80,60,0
5,75,60,0
5,84,60,0
5,70,60,0
5,67,60,0
6,51,60,228
6,58,60,240
6,63,60,240
6,51,60,0
6,58,60,240
6,56,60,0
6,63,60,240
6,51,60,0
6,58,60,0
6,58,60,0
6,58,60,0
6,58,60,0
6,58,60,0
6,56,60,0
6,56,60,0
6,56,60,0
6,56,60,0
6,51,60,0
6,58,60,0
6,58,60,0
6,58,60,0
6,58,60,0
6,58,60,0
6,56,60,0
6,56,60,0
6,56,60,0
6,55,60,0
6,53,60,0
6,53,60,0
6,53,60,0
6,53,60,0
6,53,60,0
6,46,60,0
6,58,60,0
6,58,60,0
6,58,60,0
6,58,60,0
6,58,60,0
6,58,60,0
6,56,60,0
6,55,60,0
6,53,60,0
6,53,60,0
6,53,60,0
6,53,60,0
6,53,60,0
6,46,60,0
6,58,60,0
6,58,60,0
6,58,60,0
6,58,60,0
6,58,60,0
6,58,60,0
6,53,60,0
6,51,60,0
6,58,60,0
6,58,60,0
6,58,60,0
6,58,60,0
6,58,60,0
6,56,60,0
6,51,60,0
6,44,60,0
6,51,60,0
6,58,60,0
6,58,60,0
6,58,60,0
6,58,60,0
6,58,60,0
6,56,60,0
6,51,60,0
6,56,60,0
6,55,60,0
6,53,60,0
6,53,60,0
6,53,60,0
6,53,60,0
6,53,60,0
6,46,60,0
6,58,60,0
6,58,60,0
6,58,60,0
6,58,60,0
6,58,60,0
6,58,60,0
6,56,60,0
6,55,60,0
6,53,60,0
6,53,60,0
6,53,60,0
6,53,60,0
6,53,60,0
6,46,60,0
6,58,60,0
6,58,60,0
6,58,60,0
6,58,60,0
6,58,60,0
6,58,60,0
6,59,47,0
6,47,38,0
6,48,60,0
6,60,60,0
6,60,60,0
6,60,60,0
6,56,60,0
6,63,60,120
6,68,60,120
6,67,60,0
6,65,60,0
6,51,60,0
6,58,60,120
6,63,60,0
6,65,60,0
6,67,60,0
6,50,60,0
6,48,60,0
6,55,60,120
6,60,60,0
6,62,60,0
6,63,60,0
6,67,60,0
6,72,60,0
6,75,60,0
6,56,60,0
6,63,60,120
6,68,60,120
6,67,60,0
6,65,60,0
6,51,60,0
6,58,60,120
6,63,60,0
6,65,60,0
6,67,60,0
6,50,60,0
6,48,60,0
6,55,60,120
6,60,60,0
6,62,60,0
6,63,60,0
6,67,60,0
6,72,60,0
6,75,60,0
6,56,60,0
6,63,60,120
6,68,60,120
6,67,60,0
6,65,60,0
6,51,60,0
6,58,60,120
6,63,60,0
6,65,60,0
6,67,60,0
6,50,60,0
6,53,60,0
6,53,60,0
6,53,60,0
6,58,60,0
6,51,60,0
6,70,60,240
6,56,60,0
6,63,60,240
6,63,60,0
6,56,60,0
6,63,60,240
6,63,60,0
6,51,60,0
6,51,60,0
6,51,60,0
6,51,60,0
6,51,60,0
6,51,60,0
6,56,60,0
6,56,60,0
6,56,60,0
6,56,60,0
6,56,60,0
6,56,60,0
6,51,60,0
6,51,60,0
6,51,60,0
6,51,60,0
6,51,60,0
6,51,60,0
6,56,60,0
6,56,60,0
6,56,60,0
6,56,60,0
6,56,60,0
6,55,60,0
6,65,60,0
6,65,60,0
6,65,60,0
6,65,60,0
6,65,60,0
6,46,60,0
6,58,60,0
6,58,60,0
6,58,60,0
6,58,60,0
6,58,60,0
6,58,60,0
6,56,60,0
6,55,60,0
6,53,60,0
6,53,60,0
6,53,60,0
6,53,60,0
6,53,60,0
6,46,60,0
6,58,60,0
6,58,60,0
6,58,60,0
6,58,60,0
6,58,60,0
6,58,60,0
6,55,60,0
6,43,60,0
6,48,60,0
6,60,60,0
6,60,60,0
6,60,60,0
6,56,60,0
6,63,60,120
6,68,60,120
6,67,60,0
6,65,60,0
6,51,60,0
6,58,60,120
6,63,60,0
6,65,60,0
6,67,60,0
6,50,60,0
6,48,60,0
6,55,60,120
6,60,60,0
6,62,60,0
6,63,60,0
6,67,60,0
6,72,60,0
6,75,60,0
6,56,60,0
6,63,60,120
6,68,60,120
6,67,60,0
6,65,60,0
6,51,60,0
6,58,60,120
6,63,60,0
6,65,60,0
6,67,60,0
6,50,60,0
6,48,60,0
6,55,60,120
6,60,60,0
6,62,60,0
6,63,60,0
6,67,60,0
6,72,60,0
6,75,60,0
6,56,60,0
6,63,60,120
6,68,60,120
6,67,60,0
6,65,60,0
6,51,60,0
6,58,60,120
6,63,60,0
6,65,60,0
6,67,60,0
6,50,60,0
6,53,60,0
6,53,60,0
6,53,60,0
6,58,60,0
6,48,60,0
6,60,60,0
6,60,60,0
6,60,60,0
6,46,60,0
6,58,60,0
6,58,60,0
6,58,60,0
6,53,60,0
6,53,60,0
6,53,60,0
6,58,60,240
6,46,60,0
6,58,60,0
6,46,60,0
6,58,60,0
6,46,60,0
6,58,60,0
6,46,60,0
6,63,60,0
6,56,60,0
6,51,60,0
6,58,60,0
7,58,60,8256
7,67,60,0
7,68,60,0
7,70,60,0
7,68,60,0
7,67,60,0
7,65,60,0
7,63,60,0
7,67,60,0
7,60,60,0
7,60,60,0
7,58,60,1320
7,67,60,0
7,68,60,0
7,70,60,0
7,68,60,0
7,67,60,0
7,65,60,0
7,63,60,0
7,63,60,0
7,65,60,1440
7,67,60,0
7,68,60,0
7,67,60,0
7,65,60,0
7,63,60,0
7,65,60,0
7,65,60,0
7,65,60,1440
7,67,60,0
7,68,60,0
7,67,60,0
7,65,60,0
7,63,60,0
7,65,60,0
7,65,60,0
7,58,60,0
7,60,60,0
7,62,60,0
7,67,60,3120
7,65,60,0
7,63,60,0
7,63,60,0
7,65,60,0
7,67,60,2880
7,68,60,0
7,70,60,0
7,63,60,0
7,65,60,480
7,67,60,0
7,68,60,0
7,67,60,0
7,65,60,0
7,63,60,0
7,65,60,0
7,65,60,0
7,65,60,1440
7,67,60,0
7,68,60,0
7,67,60,0
7,65,60,0
7,63,60,0
7,65,60,0
7,65,60,0
7,58,60,0
7,60,60,0
7,62,60,0
7,67,60,600
7,72,60,0
7,63,60,0
7,74,60,0
7,65,60,0
7,75,60,0
7,67,60,0
7,65,60,0
7,74,60,0
7,72,60,0
7,63,60,0
7,63,60,0
7,70,60,0
7,63,60,0
7,68,60,0
7,70,60,0
7,65,60,0
7,70,60,0
7,70,60,0
7,63,60,0
7,67,60,1320
7,72,60,0
7,63,60,0
7,74,60,0
7,65,60,0
7,75,60,0
7,67,60,0
7,65,60,0
7,74,60,0
7,63,60,0
