track,note,velocity,time
0,67,70,0
0,55,70,0
0,60,70,0
0,64,70,0
0,79,81,0
0,72,78,0
0,36,90,0
0,35,64,0
0,46,70,0
0,46,0,60
0,35,0,0
0,42,60,0
0,72,0,59
0,79,0,0
0,42,0,1
0,72,72,0
0,79,76,0
0,42,70,0
0,37,74,0
0,36,0,15
0,37,0,45
0,42,0,0
0,36,78,0
0,42,60,0
0,35,54,0
0,67,0,30
0,64,0,0
0,60,0,0
0,55,0,0
0,36,0,15
0,79,0,14
0,72,0,0
0,42,0,1
0,35,0,0
0,72,61,0
0,79,68,0
0,36,90,0
0,42,70,0
0,35,64,0
0,35,0,60
0,42,0,0
0,48,70,0
0,35,64,0
0,42,60,0
0,72,0,59
0,79,0,0
0,35,0,1
0,48,0,0
0,42,0,0
0,55,75,0
0,67,75,0
0,64,75,0
0,60,75,0
0,79,76,0
0,72,65,0
0,42,70,0
0,37,74,0
0,36,0,15
0,37,0,45
0,42,0,0
0,36,90,0
0,35,64,0
0,42,60,0
0,42,0,30
0,35,0,0
0,36,0,15
0,72,0,14
0,79,0,0
0,64,0,1
0,55,0,0
0,67,0,0
0,60,0,0
0,55,70,0
0,60,70,0
0,64,70,0
0,67,70,0
0,72,70,0
0,79,75,0
0,36,90,0
0,42,70,0
0,35,64,0
0,35,0,60
0,42,0,0
0,42,60,0
0,79,0,59
0,72,0,0
0,42,0,1
0,79,69,0
0,72,76,0
0,42,70,0
0,37,74,0
0,36,0,15
0,37,0,45
0,42,0,0
0,36,88,0
0,35,54,0
0,42,60,0
0,55,0,30
0,67,0,0
0,64,0,0
0,60,0,0
0,36,0,15
0,72,0,14
0,79,0,0
0,35,0,1
0,42,0,0
0,72,75,0
0,79,76,0
0,36,96,0
0,42,70,0
0,35,64,0
0,35,0,60
0,42,0,0
0,55,60,0
0,42,60,0
0,72,0,59
0,79,0,0
0,55,0,1
0,42,0,0
0,60,65,0
0,72,80,0
0,79,82,0
0,42,70,0
0,37,74,0
0,36,0,15
0,42,0,45
0,60,0,0
0,37,0,0
0,64,70,0
0,36,76,0
0,35,64,0
0,42,60,0
0,42,0,30
0,35,0,0
0,36,0,15
0,72,0,14
0,79,0,0
0,64,0,1
0,64,70,0
0,55,70,0
0,67,70,0
0,60,70,0
0,79,80,0
0,72,78,0
0,36,94,0
0,35,64,0
0,42,70,0
0,42,0,60
0,35,0,0
0,42,60,0
0,72,0,59
0,79,0,0
0,42,0,1
0,79,82,0
0,72,74,0
0,37,74,0
0,42,70,0
0,36,0,15
0,42,0,45
0,37,0,0
0,36,83,0
0,42,60,0
0,35,54,0
0,64,0,30
0,60,0,0
0,67,0,0
0,55,0,0
0,36,0,15
0,72,0,14
0,79,0,0
0,42,0,1
0,35,0,0
0,72,76,0
0,79,68,0
0,36,95,0
0,35,64,0
0,42,70,0
0,42,0,60
0,35,0,0
0,42,60,0
0,35,64,0
0,72,0,59
0,79,0,0
0,42,0,1
0,35,0,0
0,79,73,0
0,72,70,0
0,42,70,0
0,37,74,0
0,36,0,15
0,42,0,45
0,37,0,0
0,36,81,0
0,35,64,0
0,42,60,0
0,42,0,30
0,35,0,0
0,36,0,15
0,72,0,14
0,79,0,0
0,48,70,0
0,64,70,0
0,67,70,0
0,55,70,0
0,60,70,0
0,79,76,0
0,72,75,0
0,36,76,0
0,42,70,0
0,35,64,0
0,35,0,60
0,42,0,0
0,42,60,0
0,72,0,59
0,79,0,0
0,42,0,1
0,72,73,0
0,79,78,0
0,37,74,0
0,42,70,0
0,36,0,15
0,42,0,45
0,37,0,0
0,36,89,0
0,42,60,0
0,35,54,0
0,48,0,30
0,60,0,0
0,67,0,0
0,55,0,0
0,64,0,0
0,36,0,15
0,79,0,14
0,72,0,0
0,42,0,1
0,35,0,0
0,79,76,0
0,72,74,0
0,36,94,0
0,42,70,0
0,35,64,0
0,35,0,60
0,42,0,0
0,55,60,0
0,42,60,0
0,35,64,0
0,79,0,59
0,72,0,0
0,42,0,1
0,55,0,0
0,35,0,0
0,60,68,0
0,60,65,0
0,72,78,0
0,79,78,0
0,37,74,0
0,42,70,0
0,36,0,15
0,60,0,44
0,60,0,1
0,37,0,0
0,42,0,0
0,62,82,0
0,64,70,0
0,36,80,0
0,35,64,0
0,42,60,0
0,42,0,30
0,35,0,0
0,42,74,0
0,36,0,15
0,62,0,14
0,79,0,0
0,72,0,0
0,64,0,1
0,42,0,0
0,64,86,0
0,67,70,0
0,55,70,0
0,60,70,0
0,64,70,0
0,79,74,0
0,72,79,0
0,36,99,0
0,35,64,0
0,42,70,0
0,42,0,60
0,35,0,0
0,42,60,0
0,72,0,59
0,79,0,0
0,42,0,1
0,72,79,0
0,79,80,0
0,42,70,0
0,37,74,0
0,36,0,15
0,37,0,45
0,42,0,0
0,36,88,0
0,35,54,0
0,42,60,0
0,64,0,30
0,55,0,0
0,60,0,0
0,67,0,0
0,36,0,15
0,79,0,14
0,64,0,0
0,72,0,0
0,42,0,1
0,35,0,0
0,72,80,0
0,79,80,0
0,36,98,0
0,35,64,0
0,42,70,0
0,42,0,60
0,35,0,0
0,64,91,0
0,55,60,0
0,42,60,0
0,64,0,59
0,72,0,0
0,79,0,0
0,55,0,1
0,42,0,0
0,65,85,0
0,60,65,0
0,79,75,0
0,72,81,0
0,42,70,0
0,37,74,0
0,36,0,15
0,42,0,45
0,60,0,0
0,37,0,0
0,64,70,0
0,36,89,0
0,35,64,0
0,42,60,0
0,65,0,29
0,35,0,1
0,42,0,0
0,64,83,0
0,36,0,15
0,79,0,14
0,64,0,0
0,72,0,0
0,64,0,1
0,64,86,0
0,55,70,0
0,67,70,0
0,65,70,0
0,59,70,0
0,62,70,0
0,79,80,0
0,71,77,0
0,31,103,0
0,42,70,0
0,35,64,0
0,35,0,60
0,42,0,0
0,42,60,0
0,64,0,29
0,62,82,1
0,62,0,29
0,71,0,0
0,79,0,0
0,42,0,1
0,62,84,0
0,79,72,0
0,71,69,0
0,42,70,0
0,37,74,0
0,31,0,15
0,37,0,45
0,42,0,0
0,31,79,0
0,35,54,0
0,42,60,0
0,65,0,30
0,55,0,0
0,62,0,0
0,59,0,0
0,67,0,0
0,31,0,15
0,62,0,14
0,79,0,0
0,71,0,0
0,35,0,1
0,42,0,0
0,79,71,0
0,71,70,0
0,31,99,0
0,42,70,0
0,35,64,0
0,35,0,60
0,42,0,0
0,55,70,0
0,42,60,0
0,79,0,59
0,71,0,0
0,55,0,1
0,42,0,0
0,59,75,0
0,62,75,0
0,65,75,0
0,67,75,0
0,79,81,0
0,71,68,0
0,37,74,0
0,42,70,0
0,31,0,15
0,42,0,45
0,37,0,0
0,62,84,0
0,31,87,0
0,35,64,0
0,42,60,0
0,42,0,30
0,35,0,0
0,31,0,15
0,62,0,14
0,71,0,0
0,79,0,0
0,65,0,1
0,59,0,0
0,62,0,0
0,67,0,0
0,60,85,0
0,57,70,0
0,65,70,0
0,60,70,0
0,69,70,0
0,77,82,0
0,29,91,0
0,35,64,0
0,42,70,0
0,60,0,50
0,65,0,0
0,57,0,0
0,35,0,10
0,42,0,0
0,42,60,0
0,69,0,59
0,77,0,0
0,42,0,1
0,57,70,0
0,77,84,0
0,69,65,0
0,42,70,0
0,37,74,0
0,29,0,15
0,57,0,35
0,42,0,10
0,37,0,0
0,60,60,0
0,29,92,0
0,35,54,0
0,42,60,0
0,29,0,45
0,60,0,5
0,69,0,9
0,77,0,0
0,35,0,1
0,42,0,0
0,59,70,0
0,55,70,0
0,67,70,0
0,62,70,0
0,77,76,0
0,69,76,0
0,31,88,0
0,42,70,0
0,35,64,0
0,62,0,50
0,67,0,0
0,55,0,0
0,59,0,0
0,42,0,10
0,35,0,0
0,55,60,0
0,42,60,0
0,35,64,0
0,60,0,29
0,60,89,1
0,60,0,29
0,77,0,0
0,69,0,0
0,55,0,1
0,35,0,0
0,42,0,0
0,62,86,0
0,55,65,0
0,79,79,0
0,71,76,0
0,42,70,0
0,37,74,0
0,31,0,15
0,42,0,45
0,55,0,0
0,37,0,0
0,59,60,0
0,31,77,0
0,42,60,0
0,35,64,0
0,62,0,29
0,42,0,1
0,35,0,0
0,64,86,0
0,42,74,0
0,31,0,15
0,79,0,14
0,71,0,0
0,59,0,1
0,42,0,0
0,48,70,0
0,64,70,0
0,55,70,0
0,60,70,0
0,79,78,0
0,72,72,0
0,36,97,0
0,42,70,0
0,35,64,0
0,64,0,59
0,35,0,1
0,42,0,0
0,64,85,0
0,42,60,0
0,72,0,59
0,79,0,0
0,42,0,1
0,79,78,0
0,72,76,0
0,42,70,0
0,37,74,0
0,36,0,15
0,37,0,45
0,42,0,0
0,36,81,0
0,35,54,0
0,42,60,0
0,48,0,30
0,55,0,0
0,60,0,0
0,64,0,0
0,36,0,15
0,72,0,14
0,64,0,0
0,79,0,0
0,42,0,1
0,35,0,0
0,79,84,0
0,72,82,0
0,36,87,0
0,42,70,0
0,35,64,0
0,35,0,60
0,42,0,0
0,35,64,0
0,42,60,0
0,79,0,59
0,72,0,0
0,35,0,1
0,42,0,0
0,60,80,0
0,79,84,0
0,72,81,0
0,42,70,0
0,37,74,0
0,36,0,15
0,60,0,44
0,42,0,1
0,37,0,0
0,62,86,0
0,36,81,0
0,35,64,0
0,42,60,0
0,62,0,29
0,35,0,1
0,42,0,0
0,60,72,0
0,36,0,15
0,79,0,14
0,72,0,0
0,60,0,0
0,64,86,1
0,55,70,0
0,64,70,0
0,60,70,0
0,72,81,0
0,79,84,0
0,36,79,0
0,35,64,0
0,42,70,0
0,42,0,60
0,35,0,0
0,42,60,0
0,79,0,59
0,72,0,0
0,42,0,1
0,72,76,0
0,79,82,0
0,42,70,0
0,37,74,0
0,36,0,15
0,37,0,45
0,42,0,0
0,36,86,0
0,42,60,0
0,35,54,0
0,60,0,30
0,64,0,0
0,55,0,0
0,36,0,15
0,64,0,14
0,79,0,0
0,72,0,0
0,35,0,1
0,42,0,0
0,72,80,0
0,79,82,0
0,36,88,0
0,35,64,0
0,42,70,0
0,42,0,60
0,35,0,0
0,64,91,0
0,55,60,0
0,42,60,0
0,35,64,0
0,64,0,59
0,72,0,0
0,79,0,0
0,55,0,1
0,42,0,0
0,35,0,0
0,65,85,0
0,60,65,0
0,72,80,0
0,79,85,0
0,37,74,0
0,42,70,0
0,36,0,15
0,37,0,45
0,60,0,0
0,42,0,0
0,64,70,0
0,36,76,0
0,35,64,0
0,42,60,0
0,65,0,29
0,35,0,1
0,42,0,0
0,64,83,0
0,36,0,15
0,72,0,14
0,64,0,0
0,79,0,0
0,64,0,1
0,64,86,0
0,67,70,0
0,62,70,0
0,65,70,0
0,59,70,0
0,71,78,0
0,79,84,0
0,31,98,0
0,42,70,0
0,35,64,0
0,35,0,60
0,42,0,0
0,42,60,0
0,64,0,29
0,62,82,1
0,62,0,29
0,79,0,0
0,71,0,0
0,42,0,1
0,62,84,0
0,71,80,0
0,79,82,0
0,42,70,0
0,37,74,0
0,31,0,15
0,37,0,45
0,42,0,0
0,31,94,0
0,35,54,0
0,42,60,0
0,59,0,30
0,62,0,0
0,65,0,0
0,67,0,0
0,31,0,15
0,71,0,14
0,79,0,0
0,62,0,0
0,35,0,1
0,42,0,0
0,71,74,0
0,79,77,0
0,31,93,0
0,42,70,0
0,35,64,0
0,35,0,60
0,42,0,0
0,55,70,0
0,42,60,0
0,71,0,59
0,79,0,0
0,55,0,1
0,42,0,0
0,62,75,0
0,65,75,0
0,67,75,0
0,59,75,0
0,55,75,0
0,71,77,0
0,79,88,0
0,42,70,0
0,37,74,0
0,31,0,15
0,37,0,45
0,42,0,0
0,62,84,0
0,31,89,0
0,35,64,0
0,42,60,0
0,42,0,30
0,35,0,0
0,46,74,0
0,31,0,15
0,79,0,14
0,62,0,0
0,71,0,0
0,55,0,1
0,65,0,0
0,46,0,0
0,67,0,0
0,59,0,0
0,62,0,0
0,60,85,0
0,60,70,0
0,65,70,0
0,57,70,0
0,53,70,0
0,69,76,0
0,77,83,0
0,29,93,0
0,35,64,0
0,42,70,0
0,53,0,50
0,57,0,0
0,65,0,0
0,60,0,0
0,35,0,10
0,42,0,0
0,53,70,0
0,42,60,0
0,77,0,59
0,69,0,0
0,53,0,1
0,42,0,0
0,57,60,0
0,77,83,0
0,69,75,0
0,37,74,0
0,42,70,0
0,29,0,15
0,37,0,45
0,57,0,0
0,42,0,0
0,57,65,0
0,69,65,0
0,60,65,0
0,65,65,0
0,29,78,0
0,42,60,0
0,35,54,0
0,29,0,45
0,65,0,5
0,57,0,0
0,60,0,0
0,69,0,0
0,69,0,9
0,77,0,0
0,35,0,1
0,42,0,0
0,59,70,0
0,55,70,0
0,62,70,0
0,69,77,0
0,77,86,0
0,31,96,0
0,42,70,0
0,35,64,0
0,62,0,50
0,55,0,0
0,59,0,0
0,42,0,10
0,35,0,0
0,35,64,0
0,42,60,0
0,60,0,29
0,60,89,1
0,60,0,29
0,69,0,0
0,77,0,0
0,42,0,1
0,35,0,0
0,62,86,0
0,55,70,0
0,71,69,0
0,79,79,0
0,42,70,0
0,37,74,0
0,31,0,15
0,55,0,35
0,42,0,10
0,37,0,0
0,59,60,0
0,31,75,0
0,35,64,0
0,42,60,0
0,62,0,29
0,35,0,1
0,42,0,0
0,64,86,0
0,31,0,15
0,59,0,5
0,71,0,9
0,79,0,0
0,48,70,1
0,55,70,0
0,60,70,0
0,64,70,0
0,79,85,0
0,72,79,0
0,36,93,0
0,35,64,0
0,42,70,0
0,64,0,59
0,42,0,1
0,35,0,0
0,64,97,0
0,42,60,0
0,72,0,59
0,79,0,0
0,42,0,1
0,72,75,0
0,79,69,0
0,42,70,0
0,37,74,0
0,36,0,15
0,37,0,45
0,42,0,0
0,36,86,0
0,42,60,0
0,35,54,0
0,48,0,30
0,60,0,0
0,64,0,0
0,55,0,0
0,36,0,15
0,79,0,14
0,64,0,0
0,72,0,0
0,35,0,1
0,42,0,0
0,72,69,0
0,79,79,0
0,36,90,0
0,42,70,0
0,35,64,0
0,35,0,60
0,42,0,0
0,48,70,0
0,42,60,0
0,35,64,0
0,72,0,59
0,79,0,0
0,42,0,1
0,48,0,0
0,35,0,0
0,64,89,0
0,67,75,0
0,60,75,0
0,64,75,0
0,55,75,0
0,72,76,0
0,79,78,0
0,42,70,0
0,37,74,0
0,36,0,15
0,64,0,44
0,42,0,1
0,37,0,0
0,65,82,0
0,36,81,0
0,42,60,0
0,35,64,0
0,65,0,29
0,35,0,1
0,42,0,0
0,64,79,0
0,42,74,0
0,36,0,15
0,64,0,14
0,79,0,0
0,72,0,0
0,67,0,1
0,64,0,0
0,42,0,0
0,55,0,0
0,60,0,0
0,67,88,0
0,59,70,0
0,48,70,0
0,67,70,0
0,64,70,0
0,62,70,0
0,72,82,0
0,71,72,0
0,79,83,0
0,36,93,0
0,35,64,0
0,42,70,0
0,42,0,60
0,35,0,0
0,42,60,0
0,79,0,59
0,72,0,0
0,71,0,0
0,42,0,1
0,72,83,0
0,71,71,0
0,79,81,0
0,37,74,0
0,42,70,0
0,36,0,15
0,37,0,45
0,42,0,0
0,36,91,0
0,42,60,0
0,35,54,0
0,62,0,30
0,67,0,0
0,48,0,0
0,59,0,0
0,64,0,0
0,36,0,15
0,71,0,14
0,79,0,0
0,72,0,0
0,42,0,1
0,35,0,0
0,79,80,0
0,72,81,0
0,71,72,0
0,36,97,0
0,42,70,0
0,35,64,0
0,67,0,59
0,42,0,1
0,35,0,0
0,67,85,0
0,42,60,0
0,35,64,0
0,67,0,59
0,71,0,0
0,79,0,0
0,72,0,0
0,42,0,1
0,35,0,0
0,67,85,0
0,79,83,0
0,72,81,0
0,71,76,0
0,42,70,0
0,37,74,0
0,36,0,15
0,67,0,44
0,42,0,1
0,37,0,0
0,67,85,0
0,36,79,0
0,35,64,0
0,42,60,0
0,42,0,30
0,35,0,0
0,36,0,15
0,72,0,14
0,79,0,0
0,71,0,0
0,67,0,0
0,67,84,1
0,67,70,0
