track,note,velocity,time
1,36,80,2652
1,36,54,6532
1,29,64,16
1,31,64,8
1,33,60,4
1,41,54,12
1,43,56,8
1,31,66,20
1,36,60,8
1,40,62,56
1,41,56,4
1,43,64,4
1,31,64,4
1,33,54,20
1,45,60,4
1,40,56,4
1,33,62,20
1,31,58,8
1,29,54,12
1,28,64,8
1,31,60,4
1,43,62,32
1,31,66,8
1,41,64,8
1,36,58,168
1,31,54,168
1,29,64,4
1,36,58,160
1,36,42,124
1,41,64,4
1,41,42,88
1,43,64,0
1,31,62,8
1,36,58,8
1,29,66,56
1,31,60,44
1,36,46,20
1,29,64,24
1,31,64,20
1,36,54,20
1,41,62,8
1,29,64,100
1,31,62,20
1,36,60,44
1,40,64,12
1,41,62,4
1,38,58,4
1,43,68,8
1,31,64,32
1,36,58,8
1,29,66,16
1,31,66,8
1,36,58,12
1,41,64,16
1,43,66,60
1,35,64,4
1,33,62,12
1,31,68,8
1,29,64,16
1,31,60,4
1,36,60,12
1,43,58,24
1,48,64,4
1,40,64,12
1,41,58,24
1,29,64,44
1,31,64,68
1,43,56,24
1,45,66,16
1,40,54,576
1,33,58,44
1,31,64,4
1,29,58,40
1,36,52,4
1,28,56,12
1,31,66,8
1,43,64,16
1,43,64,88
1,41,60,4
1,36,62,196
1,36,48,124
1,41,66,4
1,36,58,180
1,41,64,180
1,41,56,116
1,43,68,4
1,31,66,24
1,36,64,8
1,36,54,216
1,40,66,12
1,41,64,12
1,43,64,16
1,36,56,72
1,35,60,4
1,33,60,4
1,31,66,8
1,29,72,20
1,31,52,28
1,36,62,164
1,36,46,112
1,36,48,72
1,31,62,104
1,36,54,8
1,36,48,144
1,40,64,8
1,28,66,28
1,29,64,12
1,41,62,12
1,43,50,4
1,31,62,16
1,36,54,28
1,40,66,8
1,41,42,12
1,43,64,4
1,31,66,4
1,36,54,12
1,36,52,136
1,40,66,8
1,28,66,8
1,29,66,4
1,29,66,72
1,31,68,8
1,31,66,100
1,36,60,4
1,36,38,148
1,40,66,8
1,40,60,80
1,41,64,20
1,29,68,132
1,31,60,16
1,31,64,72
1,31,72,84
1,31,64,84
1,36,64,12
1,36,52,112
1,40,66,8
1,28,68,4
1,29,64,12
1,31,58,164
1,31,64,148
1,36,60,72
1,36,38,96
1,40,62,4
1,40,64,64
1,41,64,20
1,40,60,20
1,38,56,16
1,43,62,8
1,31,62,8
1,36,62,8
1,40,64,144
1,28,66,576
1,29,66,4
1,41,64,148
1,43,56,12
1,31,58,4
1,36,60,12
1,36,48,180
1,40,80,12
1,28,62,8
1,29,64,24
1,41,60,176
1,43,60,8
1,31,66,8
1,36,62,24
1,36,42,164
1,40,66,12
1,28,64,4
1,29,66,12
1,41,60,100
1,43,52,4
1,31,62,8
1,36,52,4
1,36,50,176
1,40,64,12
1,28,64,20
1,29,66,4
1,40,66,20
1,38,64,4
1,31,64,24
1,36,62,4
2,48,96,2632
2,60,108,0
2,67,78,12
2,69,74,12
2,67,100,12
2,60,92,12
2,72,92,192
2,71,88,12
2,69,84,12
2,69,82,12
2,67,100,12
2,67,96,12
2,64,88,12
2,67,84,12
2,72,82,12
2,72,100,12
2,69,92,12
2,69,84,12
2,67,86,12
2,67,86,12
2,62,88,12
2,60,86,192
2,60,96,12
2,67,76,960
2,69,88,12
2,67,100,12
2,60,86,12
2,72,96,192
2,71,100,12
2,69,82,12
2,69,84,12
2,67,92,12
2,67,86,12
2,64,86,12
2,67,86,12
2,72,88,12
2,72,112,12
2,69,84,12
2,69,86,12
2,67,84,12
2,67,70,12
2,62,76,12
2,60,86,192
2,60,84,12
2,48,86,768
2,53,86,12
2,57,80,0
2,55,92,12
2,59,86,0
2,57,82,12
2,52,76,12
2,45,92,12
2,52,86,12
2,53,86,12
2,57,84,0
2,52,72,12
2,48,86,12
2,55,80,12
2,59,88,12
2,55,84,12
2,53,84,12
2,57,82,0
2,48,84,12
2,52,84,0
2,53,86,12
2,57,84,0
2,48,78,12
2,52,78,0
2,53,82,12
2,57,84,0
2,55,88,12
2,48,76,12
2,52,82,12
2,55,80,12
2,53,76,12
2,57,86,0
2,48,84,12
2,48,68,12
2,52,68,0
2,55,80,0
2,53,82,12
2,55,84,12
2,59,74,0
2,60,92,12
2,55,86,12
2,53,74,12
2,57,80,0
2,60,86,0
2,60,86,12
2,59,88,12
2,55,80,12
2,52,84,12
2,55,78,12
2,53,88,12
2,57,100,0
2,55,80,12
2,59,86,0
2,48,76,12
2,52,76,0
2,55,80,0
2,53,88,12
2,55,78,12
2,59,82,0
2,57,66,12
2,60,86,0
2,55,86,12
2,53,88,12
2,55,84,12
2,52,86,12
2,55,84,12
2,48,86,12
2,60,82,12
2,53,78,12
2,57,92,0
2,55,82,12
2,59,80,0
2,57,86,12
2,52,72,12
2,45,88,12
2,57,100,12
2,53,86,12
2,57,86,0
2,48,78,12
2,52,78,0
2,55,86,0
2,55,86,12
2,55,76,12
2,55,82,12
2,59,82,0
2,53,84,12
2,57,80,0
2,48,80,12
2,52,84,0
2,53,74,12
2,57,86,0
2,48,82,12
2,52,84,0
2,53,86,12
2,57,76,0
2,55,82,12
2,59,88,12
2,60,86,12
2,55,84,12
2,48,86,12
2,60,84,12
2,53,74,12
2,57,84,0
2,55,78,12
2,48,82,12
2,52,76,0
2,55,76,0
2,57,86,12
2,55,80,12
2,53,72,12
2,57,82,0
2,55,86,12
2,48,74,12
2,52,74,0
2,55,78,0
2,48,74,12
2,53,76,0
2,57,80,0
2,48,84,12
2,52,86,12
2,53,82,12
2,55,80,12
2,55,82,12
2,48,84,12
2,52,82,12
2,53,86,12
2,55,84,12
2,53,86,12
2,48,76,12
2,52,84,0
2,55,84,0
2,52,74,12
2,56,82,0
2,52,84,12
2,56,86,0
2,53,86,12
2,57,82,0
2,60,76,0
2,55,84,12
2,60,84,0
2,55,86,12
2,48,76,12
2,52,82,0
2,55,84,0
2,52,76,12
2,56,84,0
2,52,84,12
2,53,76,12
2,57,74,0
2,60,82,0
2,55,82,12
2,60,86,0
2,55,86,12
2,48,68,12
2,52,84,0
2,55,86,0
2,52,82,12
2,56,96,0
2,52,84,12
2,53,72,12
2,57,80,0
2,60,76,0
2,55,82,12
2,60,84,0
2,55,86,12
2,48,76,12
2,52,86,0
2,55,86,0
2,52,82,12
2,56,86,0
2,52,86,12
2,53,86,12
2,57,82,0
2,52,80,12
2,55,88,0
2,59,82,0
2,50,84,12
2,53,78,0
2,55,84,12
2,48,72,12
2,52,76,0
2,55,82,0
2,52,66,12
2,56,82,0
2,52,74,12
2,56,80,0
2,53,74,12
2,57,80,0
2,60,76,0
2,55,82,12
2,60,84,0
2,55,84,12
2,48,80,12
2,52,82,0
2,55,86,0
2,52,80,12
2,56,86,0
2,52,78,12
2,53,82,12
2,57,72,0
2,60,78,0
2,55,82,12
2,60,86,0
2,55,84,12
2,48,78,12
2,52,74,0
2,55,84,0
2,52,78,12
2,56,84,0
2,52,74,12
2,53,68,12
2,57,82,0
2,60,82,0
2,55,84,12
2,60,86,0
2,55,84,12
2,48,84,12
2,52,86,0
2,55,82,0
2,52,80,12
2,56,84,0
2,52,76,12
2,53,84,12
2,57,84,0
2,52,76,12
2,55,78,0
2,59,84,0
2,50,84,12
2,53,76,0
2,55,80,12
2,48,76,12
2,52,86,0
2,55,84,0
3,64,86,5684
3,72,92,0
3,67,104,0
3,71,86,0
3,65,74,0
3,69,84,0
3,67,88,0
3,71,86,0
3,64,86,0
3,72,96,0
3,67,76,0
3,71,76,0
3,65,86,0
3,69,84,0
3,72,66,0
3,74,70,0
3,72,90,0
3,67,72,0
3,76,74,192
3,74,60,12
3,72,70,12
3,72,68,12
3,72,64,12
3,72,60,12
3,72,68,12
3,72,62,12
3,76,62,12
3,76,66,12
3,74,56,12
3,74,60,12
3,72,56,12
3,72,68,12
3,67,60,12
3,72,64,192
3,72,72,12
3,72,64,960
3,74,66,0
3,72,68,0
3,67,66,0
3,76,68,192
3,74,60,12
3,72,64,12
3,72,60,12
3,72,82,12
3,72,64,12
3,72,66,12
3,72,66,12
3,76,70,12
3,76,62,12
3,74,56,12
3,74,54,12
3,72,60,12
3,72,66,12
3,67,62,12
3,72,62,192
3,72,70,12
3,72,84,768
3,74,68,12
3,76,86,12
3,76,84,12
3,74,84,12
3,77,80,12
3,76,86,12
3,74,74,12
3,72,84,12
3,76,92,12
3,67,76,12
3,72,84,12
3,72,86,12
3,65,68,12
3,67,86,12
3,72,84,12
3,72,100,12
3,71,84,12
3,69,82,12
3,67,84,12
3,67,76,12
3,72,82,12
3,72,86,12
3,69,84,12
3,67,74,12
3,67,88,12
3,67,88,12
3,72,82,12
3,72,92,12
3,69,78,12
3,67,72,12
3,67,84,12
3,67,78,12
3,72,82,12
3,72,86,12
3,69,84,12
3,67,84,12
3,67,80,12
3,67,76,12
3,64,84,12
3,69,72,192
3,71,78,0
3,72,84,0
3,71,82,0
3,65,82,0
3,69,86,0
3,67,76,192
3,69,74,0
3,67,82,0
3,60,84,0
3,72,104,192
3,71,76,12
3,69,84,12
3,67,92,12
3,65,96,12
3,64,88,12
3,67,82,12
3,67,86,12
3,69,82,12
3,64,86,12
3,62,92,12
3,60,76,12
3,60,84,12
3,67,76,192
3,69,84,0
3,67,84,0
3,60,74,0
3,72,84,192
3,71,80,12
3,69,84,12
3,69,86,12
3,67,74,12
3,67,86,12
3,64,80,12
3,67,82,12
3,67,84,12
3,69,82,12
3,69,84,12
3,64,74,12
3,62,86,12
3,60,78,12
3,60,86,12
3,72,88,12
3,74,76,12
3,76,86,12
3,76,80,40
3,74,74,4
3,74,80,12
3,74,82,12
3,74,78,12
3,74,88,12
3,72,66,12
3,76,86,12
3,76,82,104
3,74,80,24
3,72,96,12
3,72,92,12
3,76,86,192
3,74,72,8
3,74,82,12
3,67,86,12
3,72,92,12
3,72,92,12
3,69,84,12
3,67,78,12
3,67,84,12
3,67,80,12
3,72,78,12
3,72,92,12
3,69,72,12
3,67,72,12
3,67,84,12
3,67,86,12
3,72,92,12
3,72,88,12
3,69,82,12
3,67,84,12
3,67,86,12
3,67,74,12
3,64,82,12
3,72,92,12
3,74,72,12
3,76,86,12
3,76,82,12
3,74,76,12
3,74,100,12
3,72,80,12
3,74,66,12
3,76,82,12
3,74,88,12
3,72,84,12
3,76,88,12
3,72,82,12
3,74,70,12
3,76,84,12
3,76,84,12
3,74,78,12
3,74,80,12
3,74,80,12
3,76,74,12
3,74,82,12
3,72,96,12
3,72,78,96
3,72,86,12
3,71,74,12
3,72,88,12
3,67,80,12
3,72,104,12
3,65,80,12
3,72,96,12
3,64,88,12
3,72,96,12
3,64,80,12
3,62,85,12
3,64,86,0
3,72,88,12
3,65,76,12
3,72,96,12
3,67,76,12
3,72,85,12
3,71,76,12
3,72,92,12
3,67,78,12
3,72,100,12
3,65,76,12
3,72,100,12
3,64,66,12
3,72,86,12
3,62,86,12
3,60,84,0
3,67,84,0
3,72,92,12
3,71,66,12
3,72,84,12
3,67,86,12
3,72,88,12
3,65,74,12
3,72,100,12
3,64,82,12
3,72,82,12
3,64,82,12
3,62,74,12
3,64,78,0
3,72,84,12
3,65,72,12
3,72,86,12
3,67,64,12
3,72,80,12
3,71,72,12
3,72,72,12
3,67,76,12
3,72,92,12
3,65,72,12
3,72,84,12
3,64,82,12
3,72,84,12
3,62,84,12
3,60,84,0
3,67,86,0
3,69,86,12
3,72,86,12
3,76,104,12
3,74,94,12
3,72,82,12
3,74,80,192
3,72,86,12
3,76,92,12
3,74,80,12
3,69,74,12
3,72,70,12
3,76,86,192
3,79,86,12
3,76,76,4
3,74,78,12
3,72,96,12
3,69,84,12
3,72,88,12
3,77,108,12
3,76,80,12
3,74,84,12
3,69,82,12
3,72,80,12
3,76,100,12
3,74,76,12
3,72,86,12
3,74,74,12
3,76,74,12
3,69,86,12
3,72,82,12
3,77,112,12
3,76,72,12
3,76,96,12
3,74,84,12
3,74,72,12
3,69,86,12
3,72,88,12
3,76,88,192
3,74,82,12
3,74,76,12
3,72,100,12
3,69,78,12
3,72,86,12
3,77,108,12
3,76,86,12
3,74,84,12
3,69,82,12
3,72,86,12
3,76,88,12
3,74,80,12
3,72,96,12
3,74,84,192
3,72,88,12
3,76,86,12
3,74,78,12
3,69,88,12
3,72,86,12
3,76,88,192
3,79,84,12
3,76,82,12
3,74,78,12
3,72,88,12
3,69,80,12
3,72,88,12
3,77,104,12
3,76,86,12
3,74,82,12
3,69,84,12
3,72,84,12
3,76,86,12
3,74,76,12
3,72,96,12
3,74,82,12
3,76,100,12
3,69,82,12
3,72,84,12
3,77,104,12
3,76,78,12
3,76,88,12
3,74,80,12
3,74,100,12
3,69,88,12
3,72,86,12
3,76,88,192
3,74,80,12
3,74,80,12
3,72,84,12
3,69,82,12
3,72,88,12
3,77,104,12
3,76,84,12
3,74,84,12
3,69,82,12
3,72,82,12
3,72,92,12
4,55,48,21216
4,60,66,192
4,55,56,16
4,59,66,192
4,52,36,0
4,57,64,192
4,59,64,120
4,59,48,56
4,57,72,212
4,52,52,4
4,55,46,192
4,53,54,4
4,60,72,0
4,55,44,384
4,60,46,164
4,64,64,192
4,62,54,0
4,55,48,20
4,62,68,4
4,59,58,72
4,57,56,52
4,60,52,12
4,65,80,0
4,64,64,0
4,55,39,192
4,60,56,188
4,57,39,116
4,60,50,168
4,65,72,12
4,64,66,24
4,55,35,192
4,60,54,112
4,57,50,36
4,53,37,176
4,60,72,180
4,59,46,376
4,50,38,188
4,55,46,160
4,55,36,204
4,60,64,192
4,57,76,8
4,55,54,212
4,60,68,20
4,57,60,192
4,55,48,312
4,60,64,192
4,57,58,104
4,62,66,4
4,55,46,168
4,59,60,24
4,52,46,200
4,60,58,192
4,55,62,372
4,53,34,12
4,60,68,192
4,55,46,16
4,53,60,8
4,52,66,256
4,55,68,20
4,60,68,28
4,55,72,12
4,53,56,12
4,55,58,8
4,52,52,0
4,55,60,384
4,60,62,16
4,57,46,12
4,60,60,384
4,65,60,156
4,62,66,172
4,55,52,40
4,59,64,192
4,60,62,12
4,52,56,4
4,57,66,192
4,53,50,552
4,57,58,4
4,60,72,4
4,59,46,4
4,55,50,192
4,62,76,180
4,55,44,144
4,60,66,120
4,55,56,28
4,62,76,8
4,55,56,56
4,60,80,72
4,60,62,48
4,55,50,192
4,57,68,20
4,60,76,4
4,59,52,8
4,50,56,192
4,55,64,124
4,59,56,124
4,60,54,4
4,52,36,12
4,57,48,192
4,60,60,136
4,64,84,8
4,52,46,16
4,60,64,192
4,59,52,8
4,53,62,4
4,55,40,192
4,60,88,24
4,48,40,384
4,55,54,176
4,60,66,116
4,50,37,572
4,55,62,188
4,62,80,184
4,57,66,180
4,55,68,184
4,57,62,0
4,53,54,8
4,60,80,0
4,55,72,4
4,48,48,384
4,60,76,172
4,55,68,288
4,53,40,20
4,55,64,12
4,48,18,384
4,60,66,168
4,57,54,24
4,53,37,192
4,57,66,172
4,55,62,368
4,55,52,44
4,48,56,28
4,55,48,192
4,60,72,184
4,60,64,76
4,55,62,384
4,48,54,120
4,55,42,124
4,53,52,60
4,55,64,256
4,60,66,0
4,53,64,0
4,55,58,24
4,62,76,0
4,48,56,264
4,55,64,192
4,60,64,0
4,52,62,48
4,60,68,0
4,53,28,184
4,53,52,132
4,60,66,0
4,55,68,12
4,62,64,0
4,55,58,272
4,60,80,192
4,55,48,168
4,53,76,0
4,60,54,176
4,55,50,192
4,60,68,160
4,52,50,180
4,60,35,160
4,55,56,40
4,60,62,180
4,52,54,188
4,60,48,168
4,55,60,192
4,60,54,180
4,53,64,32
4,60,50,176
4,55,44,12
4,60,60,8
4,50,58,192
4,60,56,180
4,59,66,12
4,55,48,148
4,52,62,160
4,60,56,172
4,59,58,8
4,60,62,12
4,55,62,4
4,60,37,192
4,59,48,8
4,60,50,192
4,57,68,172
4,60,42,180
4,59,48,4
4,60,58,0
4,55,64,32
4,60,46,192
4,59,54,8
4,60,56,192
