track,note,velocity,time
1,56,80,480
1,58,80,24
1,60,80,24
1,56,80,24
1,56,80,264
1,56,80,12
1,56,80,12
1,58,80,24
1,60,80,24
1,56,80,24
1,58,80,264
1,58,80,12
1,58,80,12
1,61,80,24
1,61,80,24
1,63,80,24
1,61,80,204
1,61,80,12
1,61,80,24
1,58,80,24
1,58,80,24
1,56,80,24
1,56,80,384
1,58,80,24
1,60,80,24
1,56,80,24
1,56,80,264
1,56,80,12
1,56,80,12
1,58,80,24
1,60,80,24
1,56,80,24
1,58,80,264
1,58,80,12
1,61,80,36
1,61,80,12
1,63,80,36
1,63,80,12
1,58,80,24
1,58,80,12
1,58,80,36
1,58,80,12
1,61,80,12
1,56,80,24
1,56,80,24
1,58,80,12
1,56,80,12
1,58,80,504
1,61,80,24
1,61,80,12
1,63,80,36
1,63,80,12
1,58,80,48
1,58,80,48
1,61,80,24
1,61,80,24
1,58,80,24
1,58,80,168
1,58,80,12
1,61,80,36
1,61,80,24
1,63,80,24
1,63,80,12
1,58,80,24
1,58,80,12
1,58,80,24
1,61,80,12
1,61,80,24
1,61,80,12
1,61,80,24
1,56,80,24
1,56,80,264
1,56,80,12
1,56,80,12
1,58,80,24
1,58,80,24
1,56,80,24
1,58,80,24
1,56,80,24
1,61,80,144
1,61,80,12
1,61,80,12
1,63,80,24
1,63,80,24
1,65,80,12
1,61,80,24
1,65,80,384
1,61,80,24
1,61,80,24
1,61,80,12
1,63,80,24
1,58,80,24
1,61,80,24
1,61,80,24
1,61,80,12
1,61,80,12
1,61,80,24
1,61,80,24
1,56,80,24
1,56,80,4224
1,58,80,24
1,60,80,24
1,56,80,24
1,56,80,264
1,56,80,12
1,56,80,12
1,58,80,24
1,60,80,12
1,56,80,36
1,58,80,264
1,58,80,12
1,58,80,12
1,61,80,24
1,61,80,12
1,61,80,36
1,63,80,12
1,58,80,24
1,58,80,12
1,61,80,36
1,61,80,12
1,61,80,12
1,58,80,24
1,56,80,24
1,58,80,24
1,56,80,12
1,56,80,384
1,58,80,24
1,60,80,24
1,56,80,24
1,56,80,264
1,56,80,12
1,56,80,12
1,58,80,24
1,60,80,12
1,60,80,36
1,58,80,264
1,58,80,12
1,58,80,12
1,61,80,24
1,61,80,24
1,61,80,12
1,63,80,12
1,58,80,24
1,58,80,12
1,61,80,36
1,61,80,12
1,61,80,12
1,58,80,24
1,56,80,24
1,61,80,384
1,61,80,24
1,65,80,24
1,61,80,48
1,63,80,24
1,61,80,264
1,61,80,12
1,61,80,12
1,63,80,24
1,65,80,12
1,63,80,36
1,66,80,264
1,66,80,12
1,66,80,12
1,63,80,12
1,61,80,12
1,61,80,12
1,61,80,24
1,61,80,12
1,61,80,12
1,63,80,12
1,58,80,24
1,58,80,24
1,61,80,24
1,61,80,12
1,61,80,12
1,61,80,24
1,61,80,24
1,56,80,24
1,56,80,264
1,56,80,24
1,58,80,24
1,58,80,12
1,58,80,12
1,61,80,24
1,61,80,12
1,63,80,12
1,58,80,24
1,58,80,24
1,58,80,24
1,58,80,12
1,58,80,12
1,61,80,24
1,61,80,24
1,63,80,24
1,65,80,264
1,65,80,12
1,65,80,12
1,65,80,12
1,63,80,12
1,61,80,24
1,63,80,24
1,65,80,24
1,63,80,24
1,65,80,84
1,65,80,12
1,65,80,24
1,63,80,24
1,61,80,24
1,63,80,12
1,61,80,12
1,61,80,1104
1,61,80,24
1,61,80,24
1,58,80,24
1,56,80,24
1,58,80,24
1,61,80,984
1,61,80,24
1,61,80,24
1,61,80,24
1,58,80,24
1,56,80,24
1,58,80,24
1,65,80,1104
1,65,80,24
1,66,80,24
1,65,80,24
1,63,80,24
1,65,80,24
1,65,80,984
1,65,80,24
1,65,80,24
1,65,80,24
1,61,80,24
1,63,80,24
1,61,80,24
1,61,80,4944
1,61,80,24
1,61,80,24
1,58,80,24
1,56,80,24
1,58,80,24
1,61,80,1104
1,61,80,24
1,63,80,24
1,58,80,24
1,58,80,24
1,56,80,24
1,65,80,1104
1,65,80,24
1,66,80,24
1,65,80,24
1,63,80,24
1,65,80,24
1,65,80,984
1,65,80,24
1,65,80,24
1,65,80,24
1,61,80,24
1,63,80,24
1,61,80,24
1,63,80,624
1,58,80,24
1,63,80,744
1,58,80,24
1,63,80,624
1,58,80,24
1,56,80,1488
1,58,80,24
1,60,80,24
1,56,80,24
1,56,80,264
1,56,80,12
1,56,80,12
1,58,80,24
1,60,80,24
1,56,80,24
1,58,80,264
1,58,80,12
1,58,80,12
1,61,80,24
1,61,80,24
1,63,80,24
1,61,80,204
1,61,80,12
1,61,80,24
1,58,80,24
1,58,80,24
1,56,80,24
1,56,80,384
1,58,80,24
1,60,80,24
1,56,80,24
1,56,80,264
1,56,80,12
1,56,80,12
1,58,80,24
1,60,80,24
1,56,80,24
1,58,80,264
1,58,80,12
1,58,80,12
1,61,80,24
1,61,80,24
1,63,80,12
1,58,80,12
1,61,80,24
1,65,80,96
1,65,80,12
1,63,80,12
1,61,80,24
1,61,80,12
1,61,80,24
1,61,80,24
1,61,80,204
1,61,80,12
1,65,80,24
1,61,80,24
1,61,80,12
1,63,80,36
1,61,80,264
1,61,80,12
1,61,80,12
1,63,80,24
1,65,80,12
1,63,80,36
1,65,80,204
1,65,80,12
1,65,80,12
1,63,80,24
1,61,80,12
1,63,80,36
1,58,80,24
1,61,80,24
1,61,80,24
1,58,80,12
1,61,80,12
1,61,80,24
1,61,80,12
1,61,80,36
1,65,80,144
1,65,80,48
1,63,80,24
1,63,80,12
1,63,80,36
1,65,80,264
1,65,80,12
1,65,80,12
1,65,80,24
1,65,80,12
1,65,80,36
1,65,80,204
1,65,80,12
1,68,80,24
1,65,80,24
1,65,80,24
1,63,80,24
1,61,80,12
1,63,80,12
1,65,80,12
1,63,80,12
1,65,80,144
1,65,80,12
1,65,80,12
1,65,80,24
1,68,80,24
1,65,80,24
1,68,80,72
1,70,80,96
1,65,80,24
1,66,80,24
1,65,80,1512
1,65,80,24
1,66,80,24
1,65,80,24
1,63,80,24
1,65,80,24
1,65,80,984
1,65,80,24
1,65,80,24
1,65,80,24
1,61,80,24
1,63,80,24
1,61,80,24
1,65,80,984
1,65,80,24
1,65,80,24
1,66,80,24
1,65,80,24
1,63,80,24
1,65,80,24
1,65,80,984
1,65,80,24
1,65,80,24
1,65,80,24
1,61,80,24
1,63,80,24
1,61,80,24
1,63,80,624
1,58,80,24
1,63,80,744
1,58,80,24
1,65,80,504
1,58,80,48
2,70,80,3180
2,70,80,12
2,70,80,24
2,70,80,24
2,70,80,24
2,68,80,24
2,70,80,3144
2,70,80,12
2,70,80,12
2,70,80,24
2,70,80,24
2,70,80,12
2,68,80,12
2,70,80,3324
2,70,80,12
2,70,80,24
2,70,80,12
2,70,80,24
2,68,80,24
2,68,80,60
2,70,80,24
2,73,80,24
2,73,80,96
2,73,80,0
2,73,80,24
2,73,80,0
2,73,80,24
2,73,80,0
2,73,80,12
2,73,80,0
2,73,80,24
2,73,80,0
2,70,80,24
2,70,80,24
2,68,80,24
2,70,80,12
2,73,80,12
2,73,80,0
2,73,80,24
2,73,80,0
2,73,80,24
2,73,80,0
2,73,80,24
2,73,80,0
2,73,80,13704
2,73,80,12
2,73,80,12
2,73,80,0
2,73,80,12
2,73,80,12
2,73,80,12
2,73,80,24
2,73,80,12
2,73,80,12
2,73,80,12
2,73,80,24
2,73,80,24
2,70,80,24
2,70,80,12
2,70,80,12
2,70,80,24
2,70,80,24
2,68,80,24
2,68,80,120
2,70,80,24
2,66,80,600
2,66,80,24
2,66,80,24
2,73,80,24
2,73,80,48
2,73,80,0
2,73,80,12
2,73,80,0
2,73,80,12
2,73,80,0
2,73,80,12
2,73,80,0
2,73,80,12
2,73,80,0
2,73,80,24
2,73,80,0
2,73,80,24
2,73,80,0
2,70,80,24
2,70,80,0
2,70,80,24
2,70,80,0
2,73,80,84
2,73,80,0
2,73,80,12
2,73,80,0
2,73,80,24
2,73,80,0
2,73,80,24
2,73,80,0
2,73,80,24
2,73,80,0
2,73,80,12
2,73,80,0
2,73,80,12
2,73,80,0
2,65,80,2904
2,65,80,0
2,65,80,24
2,65,80,0
2,65,80,24
2,65,80,0
2,66,80,24
2,66,80,0
2,66,80,24
2,66,80,0
2,66,80,24
2,66,80,0
2,66,80,24
2,66,80,0
2,61,80,264
2,61,80,0
2,61,80,0
2,61,80,12
2,61,80,0
2,61,80,0
2,61,80,12
2,61,80,0
2,61,80,0
2,63,80,24
2,63,80,0
2,63,80,0
2,63,80,12
2,63,80,0
2,63,80,0
2,69,80,144
2,69,80,0
2,69,80,24
2,69,80,0
2,70,80,24
2,70,80,0
2,70,80,24
2,70,80,0
2,66,80,24
2,66,80,0
2,61,80,24
2,61,80,0
2,65,80,264
2,65,80,0
2,65,80,0
2,65,80,12
2,65,80,0
2,65,80,0
2,65,80,12
2,65,80,0
2,65,80,0
2,61,80,24
2,61,80,0
2,61,80,0
2,63,80,12
2,63,80,0
2,63,80,0
2,69,80,24
2,69,80,0
2,69,80,24
2,69,80,0
2,69,80,24
2,69,80,0
2,70,80,24
2,70,80,0
2,70,80,24
2,70,80,0
2,70,80,24
2,70,80,0
2,68,80,24
2,68,80,0
2,61,80,624
2,61,80,0
2,58,80,24
2,58,80,0
2,63,80,624
2,63,80,0
2,58,80,24
2,58,80,0
2,65,80,3168
2,65,80,0
2,65,80,24
2,65,80,0
2,66,80,24
2,66,80,0
2,66,80,24
2,66,80,0
2,66,80,24
2,66,80,0
2,66,80,24
2,65,80,1104
2,65,80,0
2,65,80,24
2,65,80,0
2,66,80,24
2,66,80,0
2,66,80,24
2,66,80,0
2,66,80,24
2,66,80,0
2,68,80,24
2,73,80,264
2,65,80,0
2,65,80,0
2,65,80,0
2,73,80,12
2,65,80,0
2,65,80,0
2,65,80,0
2,73,80,12
2,66,80,0
2,66,80,0
2,66,80,0
2,73,80,24
2,65,80,0
2,65,80,0
2,65,80,0
2,73,80,12
2,66,80,0
2,66,80,0
2,66,80,0
2,69,80,144
2,69,80,0
2,69,80,24
2,69,80,0
2,70,80,24
2,70,80,0
2,70,80,24
2,70,80,0
2,66,80,24
2,66,80,0
2,61,80,24
2,61,80,0
2,65,80,264
2,65,80,0
2,65,80,0
2,65,80,12
2,65,80,0
2,65,80,0
2,65,80,12
2,65,80,0
2,65,80,0
2,61,80,24
2,61,80,0
2,61,80,0
2,63,80,12
2,63,80,0
2,63,80,0
2,69,80,24
2,69,80,0
2,69,80,24
2,69,80,0
2,69,80,24
2,69,80,0
2,70,80,24
2,70,80,0
2,70,80,24
2,70,80,0
2,70,80,24
2,70,80,0
2,68,80,24
2,68,80,0
2,70,80,624
2,70,80,768
2,70,80,648
2,66,80,24
2,70,80,4188
2,70,80,12
2,70,80,24
2,70,80,24
2,70,80,24
2,68,80,24
2,68,80,384
2,68,80,24
2,68,80,24
2,68,80,24
2,68,80,264
2,68,80,12
2,68,80,12
2,68,80,24
2,68,80,24
2,68,80,24
2,70,80,264
2,70,80,12
2,70,80,12
2,70,80,24
2,70,80,24
2,70,80,12
2,70,80,12
2,70,80,24
2,70,80,96
2,70,80,12
2,70,80,12
2,70,80,24
2,70,80,12
2,70,80,24
2,68,80,24
2,68,80,204
2,68,80,12
2,68,80,24
2,68,80,24
2,68,80,12
2,69,80,36
2,69,80,264
2,69,80,12
2,69,80,12
2,69,80,24
2,69,80,12
2,70,80,36
2,70,80,204
2,70,80,12
2,70,80,12
2,70,80,24
2,70,80,12
2,70,80,36
2,70,80,24
2,70,80,24
2,70,80,24
2,70,80,12
2,70,80,12
2,70,80,24
2,70,80,12
2,68,80,36
2,68,80,144
2,68,80,48
2,68,80,24
2,68,80,12
2,69,80,36
2,69,80,264
2,69,80,12
2,69,80,12
2,69,80,24
2,69,80,12
2,70,80,36
2,73,80,1224
2,73,80,0
2,73,80,12
2,73,80,0
2,73,80,12
2,73,80,0
2,73,80,24
2,73,80,0
2,73,80,24
2,73,80,0
2,73,80,24
2,73,80,0
2,65,80,1512
2,65,80,0
2,65,80,0
2,73,80,0
2,65,80,12
2,65,80,0
2,65,80,0
2,73,80,0
2,66,80,12
2,66,80,0
2,66,80,0
2,73,80,0
2,65,80,24
2,65,80,0
2,65,80,0
2,73,80,0
2,66,80,12
2,66,80,0
2,66,80,0
2,73,80,0
2,69,80,144
2,69,80,0
2,69,80,24
2,69,80,0
2,70,80,24
2,70,80,0
2,70,80,24
2,70,80,0
2,66,80,24
2,66,80,0
2,61,80,24
2,61,80,0
2,65,80,264
2,65,80,0
2,65,80,0
2,65,80,12
2,65,80,0
2,65,80,0
2,65,80,12
2,65,80,0
2,65,80,0
2,61,80,24
2,61,80,0
2,61,80,0
2,63,80,12
2,63,80,0
2,63,80,0
2,69,80,24
2,69,80,0
2,69,80,24
2,69,80,0
2,69,80,24
2,69,80,0
2,70,80,24
2,70,80,0
2,70,80,24
2,70,80,0
2,70,80,24
2,70,80,0
2,68,80,24
2,68,80,0
2,65,80,264
2,65,80,0
2,65,80,0
2,73,80,0
2,65,80,12
2,65,80,0
2,65,80,0
2,73,80,0
2,66,80,12
2,66,80,0
2,66,80,0
2,73,80,0
2,65,80,24
2,65,80,0
2,65,80,0
2,73,80,0
2,66,80,12
2,66,80,0
2,66,80,0
2,73,80,0
2,69,80,24
2,69,80,24
2,69,80,0
2,69,80,24
2,69,80,0
2,70,80,24
2,70,80,0
2,70,80,24
2,70,80,0
2,66,80,24
2,66,80,0
2,61,80,24
2,61,80,0
2,65,80,264
2,65,80,0
2,65,80,0
2,65,80,12
2,65,80,0
2,65,80,0
2,65,80,12
2,65,80,0
2,65,80,0
2,61,80,24
2,61,80,0
2,61,80,0
2,63,80,12
2,63,80,0
2,63,80,0
2,69,80,24
2,69,80,0
2,69,80,24
2,69,80,0
2,69,80,24
2,69,80,0
2,70,80,24
2,70,80,0
2,70,80,24
2,70,80,0
2,70,80,24
2,70,80,0
2,68,80,24
2,68,80,0
2,61,80,264
2,61,80,0
2,61,80,12
2,61,80,0
2,61,80,12
2,61,80,0
2,63,80,24
2,63,80,0
2,63,80,24
2,61,80,264
2,61,80,0
2,61,80,12
2,61,80,0
2,61,80,12
2,61,80,0
2,63,80,24
2,63,80,0
2,63,80,24
2,65,80,264
2,65,80,0
2,65,80,12
2,65,80,0
2,65,80,12
2,61,80,24
2,61,80,0
2,61,80,24
2,61,80,0
3,61,80,0
3,56,80,0
3,49,80,0
3,56,80,24
3,61,80,0
3,49,80,0
3,61,80,24
3,56,80,0
3,49,80,0
3,56,80,12
3,61,80,0
3,49,80,0
3,61,80,12
3,56,80,0
3,49,80,0
3,56,80,12
3,61,80,0
3,49,80,0
3,53,80,492
3,60,80,0
3,65,80,0
3,65,80,24
3,53,80,0
3,60,80,0
3,53,80,24
3,60,80,0
3,65,80,0
3,53,80,12
3,65,80,0
3,60,80,0
3,53,80,12
3,60,80,0
3,65,80,0
3,60,80,12
3,65,80,0
3,53,80,0
3,66,80,492
3,61,80,0
3,54,80,0
3,61,80,24
3,66,80,0
3,54,80,0
3,66,80,24
3,61,80,0
3,54,80,0
3,61,80,12
3,66,80,0
3,54,80,0
3,66,80,12
3,61,80,0
3,54,80,0
3,61,80,12
3,66,80,0
3,54,80,0
3,51,80,492
3,58,80,0
3,63,80,0
3,63,80,24
3,58,80,0
3,51,80,0
3,51,80,24
3,63,80,0
3,58,80,0
3,63,80,12
3,58,80,0
3,51,80,0
3,58,80,12
3,63,80,0
3,51,80,0
3,51,80,12
3,63,80,0
3,58,80,0
3,49,80,492
3,56,80,0
3,61,80,0
3,49,80,24
3,56,80,0
3,61,80,0
3,49,80,24
3,56,80,0
3,61,80,0
3,61,80,12
3,56,80,0
3,49,80,0
3,56,80,12
3,61,80,0
3,49,80,0
3,61,80,12
3,56,80,0
3,49,80,0
3,65,80,492
3,60,80,0
3,53,80,0
3,60,80,24
3,65,80,0
3,53,80,0
3,65,80,24
3,60,80,0
3,53,80,0
3,60,80,12
