track,note,velocity,time
1,77,52,0
1,77,0,1440
1,74,52,0
1,74,0,880
1,77,53,0
1,75,59,80
1,77,0,20
1,75,0,460
1,74,55,0
1,74,0,1440
1,67,52,0
1,67,0,960
1,69,57,480
1,69,0,480
1,75,58,0
1,75,0,480
1,75,56,0
1,75,0,480
1,75,58,0
1,75,49,360
1,77,51,40
1,75,0,20
1,75,0,0
1,75,54,20
1,77,0,20
1,74,55,20
1,75,0,20
1,74,0,460
1,75,56,0
1,75,0,480
1,79,57,0
1,79,0,1320
1,77,48,0
1,77,0,120
1,74,52,0
1,74,0,960
1,82,70,480
1,82,0,1440
1,70,61,0
1,70,0,1320
1,70,54,0
1,70,0,120
1,79,66,0
1,79,0,1440
1,67,60,0
1,67,0,234
1,67,49,6
1,67,0,48
1,69,49,0
1,69,0,48
1,67,49,0
1,67,0,48
1,66,49,0
1,66,0,48
1,67,51,0
1,67,0,48
1,75,57,0
1,75,0,480
1,72,55,0
1,72,0,480
1,69,55,0
1,69,0,240
1,77,50,0
1,86,63,0
1,86,0,240
1,77,0,0
1,79,60,0
1,76,48,0
1,76,0,240
1,79,0,0
1,81,58,0
1,75,46,0
1,75,0,240
1,81,0,0
1,74,44,0
1,82,55,0
1,82,0,240
1,74,0,0
1,73,41,0
1,77,52,0
1,77,0,240
1,73,0,0
1,80,60,0
1,72,48,0
1,72,0,240
1,80,0,0
1,70,46,0
1,78,58,0
1,78,0,240
1,70,0,0
1,72,57,0
1,69,45,0
1,69,0,240
1,72,0,0
1,68,43,0
1,74,55,0
1,74,0,240
1,68,0,0
1,67,42,0
1,75,54,0
1,75,0,240
1,67,0,0
1,70,52,0
1,66,41,0
1,66,0,240
1,70,0,0
1,65,43,240
1,74,55,0
1,74,0,240
1,65,0,0
1,67,54,0
1,64,43,0
1,64,0,240
1,67,0,0
1,63,41,0
1,69,52,0
1,69,0,240
1,63,0,0
1,62,40,0
1,70,50,0
1,70,0,240
1,62,0,0
1,65,47,0
1,65,0,240
1,58,51,0
1,58,0,240
1,70,77,1200
1,73,77,0
1,82,90,0
1,82,0,1440
1,73,0,0
1,70,0,0
1,70,71,0
1,66,71,0
1,78,84,0
1,78,0,960
1,66,0,0
1,70,0,0
1,71,66,0
1,83,78,0
1,75,66,0
1,75,0,480
1,83,0,0
1,71,0,0
1,70,71,0
1,73,71,0
1,82,84,0
1,82,0,1440
1,73,0,0
1,70,0,0
1,70,68,0
1,78,80,0
1,66,68,0
1,66,0,1440
1,78,0,0
1,70,0,0
1,73,76,0
1,85,90,0
1,82,76,0
1,82,0,960
1,85,0,0
1,73,0,0
1,82,87,0
1,70,73,0
1,78,73,0
1,78,0,480
1,70,0,0
1,82,0,0
1,90,93,0
1,78,78,0
1,82,78,0
1,82,0,960
1,78,0,0
1,90,0,0
1,85,84,0
1,82,73,0
1,73,69,0
1,73,0,360
1,82,0,0
1,85,0,0
1,80,68,0
1,83,79,0
1,71,68,0
1,71,0,120
1,83,0,0
1,80,0,0
1,71,67,0
1,80,67,0
1,83,79,0
1,83,0,480
1,80,0,0
1,71,0,0
1,78,61,0
1,70,61,0
1,82,71,0
1,82,0,480
1,70,0,0
1,78,0,0
1,70,43,1920
1,82,51,0
1,73,43,0
1,73,0,1440
1,82,0,0
1,70,0,0
1,66,39,0
1,70,39,0
1,78,48,0
1,78,0,960
1,70,0,0
1,66,0,0
1,75,37,0
1,83,44,0
1,71,37,0
1,71,0,480
1,83,0,0
1,75,0,0
1,70,39,0
1,73,39,0
1,82,48,0
1,82,0,1440
1,73,0,0
1,70,0,0
1,70,38,0
1,66,38,0
1,78,46,0
1,78,0,1440
1,66,0,0
1,70,0,0
1,73,43,0
1,82,43,0
1,85,51,0
1,85,0,960
1,82,0,0
1,73,0,0
1,70,40,0
1,82,49,0
1,78,40,0
1,78,0,480
1,82,0,0
1,70,0,0
1,82,44,0
1,78,44,0
1,90,52,0
1,90,0,960
1,78,0,0
1,82,0,0
1,85,48,0
1,82,40,0
1,73,38,0
1,73,0,360
1,82,0,0
1,85,0,0
1,80,38,0
1,71,38,0
1,83,46,0
1,83,0,120
1,71,0,0
1,80,0,0
1,71,38,0
1,83,46,0
1,80,38,0
1,80,0,480
1,83,0,0
1,71,0,0
1,70,38,0
1,78,38,0
1,82,44,0
1,82,0,480
1,78,0,0
1,70,0,0
1,77,62,1920
1,65,46,240
1,65,0,240
1,77,0,0
1,64,36,0
1,67,46,0
1,67,0,240
1,64,0,0
1,63,37,0
1,69,48,0
1,69,0,240
1,63,0,0
1,70,52,0
1,62,41,0
1,62,0,240
1,70,0,0
1,72,50,0
1,60,45,0
1,60,0,240
1,72,0,0
1,74,60,0
1,74,0,240
1,65,49,0
1,65,0,240
1,64,38,0
1,67,49,0
1,67,0,240
1,64,0,0
1,63,39,0
1,69,51,0
1,69,0,240
1,63,0,0
1,70,55,0
1,62,44,0
1,62,0,240
1,70,0,0
1,74,53,0
1,74,0,240
1,79,64,0
1,67,52,240
1,67,0,240
1,79,0,0
1,69,52,0
1,66,41,0
1,66,0,240
1,69,0,0
1,71,54,0
1,65,41,0
1,65,0,240
1,71,0,0
1,72,58,0
1,63,46,0
1,63,0,240
1,72,0,0
1,74,56,0
1,62,50,0
1,62,0,240
1,74,0,0
1,75,74,0
1,67,60,240
1,67,0,240
1,75,0,0
1,69,62,0
1,66,47,0
1,66,0,240
1,69,0,0
1,65,49,0
1,71,63,0
1,71,0,240
1,65,0,0
1,63,55,0
1,72,70,0
1,72,0,240
1,63,0,0
1,75,68,0
1,75,0,240
1,81,81,0
1,69,66,240
1,69,0,240
1,81,0,0
1,68,53,0
1,71,67,0
1,71,0,240
1,68,0,0
1,73,71,0
1,67,53,0
1,67,0,240
1,73,0,0
1,65,61,0
1,74,76,0
1,74,0,240
1,65,0,0
1,77,74,0
1,77,0,240
1,82,90,0
1,70,73,240
1,70,0,240
1,82,0,0
1,69,58,0
1,72,75,0
1,72,0,240
1,69,0,0
1,74,76,0
1,68,58,0
1,68,0,240
1,74,0,0
1,67,66,0
1,75,83,0
1,75,0,240
1,67,0,0
1,66,73,0
1,78,81,0
1,78,0,240
1,66,0,0
1,77,84,240
1,77,0,240
1,82,79,0
1,78,79,0
1,87,92,0
1,87,0,240
1,78,0,0
1,82,0,0
1,77,85,0
1,77,0,240
1,82,77,0
1,78,77,0
1,87,91,0
1,87,0,240
1,78,0,0
1,82,0,0
1,77,86,0
1,77,0,240
1,78,82,0
1,87,96,0
1,82,82,0
1,82,0,240
1,87,0,0
1,78,0,0
1,77,89,0
1,77,0,240
1,78,80,0
1,87,95,0
1,82,80,0
1,82,0,240
1,87,0,0
1,78,0,0
1,77,91,0
1,77,0,240
1,82,85,0
1,78,85,0
1,87,101,0
1,87,0,240
1,78,0,0
1,82,0,0
1,77,93,0
1,77,0,240
1,78,79,0
1,87,100,0
1,87,0,240
1,78,0,0
1,86,92,0
1,77,73,0
1,77,0,240
1,86,0,0
1,79,89,0
1,76,70,0
1,76,0,240
1,79,0,0
1,75,60,0
1,81,78,0
1,81,0,240
1,75,0,0
1,82,85,0
1,74,67,0
1,74,0,240
1,82,0,0
1,73,59,0
1,77,76,0
1,77,0,240
1,73,0,0
1,72,63,0
1,80,80,0
1,80,0,240
1,72,0,0
1,78,76,0
1,70,59,0
1,70,0,240
1,78,0,0
1,69,59,0
1,72,75,0
1,72,0,240
1,69,0,0
1,74,72,0
1,68,57,0
1,68,0,240
1,74,0,0
1,67,60,0
1,75,76,0
1,75,0,240
1,67,0,0
1,66,55,0
1,70,69,0
1,70,0,240
1,66,0,0
1,73,78,0
1,65,62,0
1,65,0,240
1,73,0,0
1,64,55,0
1,72,70,0
1,72,0,240
1,64,0,0
1,67,70,0
1,63,54,0
1,63,0,240
1,67,0,0
1,62,53,0
1,68,66,0
1,68,0,240
1,62,0,0
1,61,55,0
1,69,70,0
1,69,0,240
1,61,0,0
1,63,65,0
1,60,52,0
1,60,0,240
1,63,0,0
1,58,57,0
1,66,73,0
1,66,0,240
1,58,0,0
1,65,65,0
1,57,52,0
1,57,0,240
1,65,0,0
1,56,55,0
1,60,70,0
1,60,0,240
1,56,0,0
1,55,47,0
1,62,60,0
1,62,0,240
1,55,0,0
1,63,69,0
1,54,52,0
1,54,0,240
1,53,50,0
1,57,62,0
1,57,0,240
1,53,0,0
1,63,0,0
1,58,57,0
1,62,73,0
1,53,57,0
1,53,0,240
1,62,0,0
1,58,0,0
1,66,44,1440
1,75,56,0
1,75,0,240
1,66,0,0
1,69,54,0
1,65,43,0
1,65,0,240
1,69,0,0
1,64,39,0
1,70,50,0
1,70,0,240
1,64,0,0
1,63,40,0
1,72,50,0
1,66,47,240
1,66,0,240
1,72,0,0
1,63,0,0
1,62,45,0
1,65,45,0
1,70,45,0
1,74,58,0
1,74,0,480
1,62,0,0
1,65,0,0
1,70,0,0
1,75,56,1200
1,66,44,0
1,66,0,240
1,75,0,0
1,65,43,0
1,69,54,0
1,69,0,240
1,65,0,0
1,70,50,0
1,64,39,0
1,64,0,240
1,70,0,0
1,63,40,0
1,72,50,0
1,66,47,240
1,66,0,240
1,72,0,0
1,63,0,0
1,65,45,0
1,70,45,0
1,62,45,0
1,74,58,0
1,74,0,480
1,65,0,0
1,70,0,0
1,62,0,0
1,67,58,960
1,62,58,0
1,55,49,0
1,58,49,0
1,58,0,720
1,62,0,0
1,60,54,0
1,60,0,240
1,63,58,0
1,63,0,240
1,62,51,0
1,62,0,240
1,55,0,0
1,67,0,0
1,58,48,0
1,53,48,0
1,62,57,0
1,65,57,0
1,62,0,960
1,58,0,480
1,53,0,0
1,65,0,0
1,58,49,0
1,62,58,0
1,55,49,0
1,67,58,0
1,62,0,720
1,58,0,0
1,60,54,0
1,60,0,240
1,63,58,0
1,63,0,240
1,62,51,0
1,62,0,240
1,55,0,0
1,67,0,0
1,53,48,0
1,58,48,0
1,62,57,0
1,65,57,0
1,65,0,4320
1,53,0,0
1,58,0,0
1,62,0,0
1,60,60,2880
1,53,60,0
1,63,71,0
1,65,71,0
1,65,0,1440
1,60,0,0
1,53,0,0
1,63,0,0
1,65,71,0
1,58,61,0
1,62,72,0
1,53,61,0
1,53,0,1440
1,65,0,0
1,58,0,0
1,62,0,0
2,34,50,0
2,34,0,137
2,53,40,0
2,53,0,240
2,52,32,0
2,55,40,0
2,55,0,91
2,52,0,0
2,51,32,0
2,57,41,0
2,57,0,240
2,51,0,0
2,50,35,0
2,58,44,0
2,58,0,103
2,50,0,0
2,48,35,0
2,60,45,0
2,60,0,240
2,48,0,0
2,46,50,0
2,46,0,162
2,53,28,0
2,62,36,0
2,62,0,240
2,53,0,0
2,52,35,0
2,55,44,0
2,55,0,155
2,52,0,0
2,51,37,0
2,57,47,0
2,57,0,240
2,51,0,0
2,50,40,0
2,58,50,0
2,58,0,162
2,50,0,0
2,46,40,0
2,46,0,240
2,39,50,0
2,39,0,103
2,55,39,0
2,55,0,240
2,57,40,0
2,54,32,0
2,54,0,103
2,57,0,0
2,53,31,0
2,59,39,0
2,59,0,240
2,53,0,0
2,51,35,0
2,60,44,0
2,60,0,80
2,51,0,0
2,50,36,0
2,62,47,0
2,62,0,240
2,50,0,0
2,48,50,0
2,48,0,103
2,63,41,0
2,55,32,0
2,55,0,240
2,63,0,0
2,54,35,0
2,57,44,0
2,57,0,126
2,54,0,0
2,53,37,0
2,59,47,0
2,59,0,240
2,53,0,0
2,51,40,0
2,60,50,0
2,60,0,114
2,51,0,0
2,63,52,0
2,48,41,0
2,48,0,240
2,63,0,0
2,41,50,0
2,41,0,80
2,66,42,0
2,58,33,0
2,58,0,240
2,66,0,0
2,65,43,0
2,57,34,0
2,57,0,103
2,65,0,0
2,56,31,0
2,60,39,0
2,60,0,240
2,56,0,0
2,63,40,0
2,55,32,0
2,55,0,91
2,63,0,0
2,58,37,0
2,54,29,0
2,54,0,240
2,58,0,0
2,41,50,0
2,41,0,148
2,63,41,0
2,54,32,0
2,54,0,240
2,63,0,0
2,62,45,0
2,53,36,0
2,53,0,186
2,62,0,0
2,52,31,0
2,55,39,0
2,55,0,240
2,52,0,0
2,51,31,0
2,57,39,0
2,57,0,123
2,51,0,0
2,53,36,0
2,53,0,240
2,46,50,0
2,46,0,141
2,53,41,0
2,53,0,240
2,52,32,0
2,55,41,0
2,55,0,162
2,52,0,0
2,51,28,0
2,57,36,0
2,57,0,240
2,51,0,0
2,50,32,0
2,58,41,0
2,58,0,141
2,50,0,0
2,48,28,0
2,60,36,0
2,60,0,240
2,48,0,0
2,46,50,0
2,46,0,114
2,53,28,0
2,62,36,0
2,62,0,240
2,53,0,0
2,52,32,0
2,55,41,0
2,55,0,91
2,52,0,0
2,51,28,0
2,57,36,0
2,57,0,240
2,51,0,0
2,50,32,0
2,58,41,0
2,58,0,125
2,50,0,0
2,48,29,0
2,60,37,0
2,60,0,240
2,48,0,0
2,43,50,0
2,43,0,80
2,62,42,0
2,62,0,240
2,61,33,0
2,64,42,0
2,64,0,137
2,61,0,0
2,60,33,0
2,66,43,0
2,66,0,240
2,60,0,0
2,58,36,0
2,67,46,0
2,67,0,137
2,58,0,0
2,57,37,0
2,69,48,0
2,69,0,240
2,57,0,0
2,46,50,0
2,46,0,127
2,58,40,0
2,58,0,240
2,57,32,0
2,60,40,0
2,60,0,106
2,57,0,0
2,56,32,0
2,62,41,0
2,62,0,240
2,56,0,0
2,55,35,0
2,63,44,0
2,63,0,169
2,55,0,0
2,53,38,0
2,65,48,0
2,65,0,240
2,53,0,0
2,39,50,0
2,39,0,137
2,55,40,0
2,55,0,240
2,54,32,0
2,57,40,0
2,57,0,137
2,54,0,0
2,53,32,0
2,59,41,0
2,59,0,240
2,53,0,0
2,51,35,0
2,60,44,0
2,60,0,125
2,51,0,0
2,50,36,0
2,62,46,0
2,62,0,240
2,50,0,0
2,48,50,0
2,48,0,149
2,55,32,0
2,63,40,0
2,63,0,240
2,55,0,0
2,54,32,0
2,57,40,0
2,57,0,103
2,54,0,0
2,53,32,0
2,59,41,0
2,59,0,240
2,53,0,0
2,51,35,0
2,60,44,0
2,60,0,194
2,51,0,0
2,48,35,0
2,63,45,0
2,63,0,240
2,48,0,0
2,41,50,0
2,41,0,149
2,74,50,0
2,65,40,0
2,65,0,240
2,74,0,0
2,67,48,0
2,64,38,0
2,64,0,114
2,67,0,0
2,69,46,0
2,63,36,0
2,63,0,240
2,69,0,0
2,62,35,0
2,70,44,0
2,70,0,91
2,62,0,0
2,65,41,0
2,61,32,0
2,61,0,240
2,65,0,0
2,60,38,0
2,68,48,0
2,68,0,103
2,60,0,0
2,66,46,0
2,58,36,0
2,58,0,240
2,66,0,0
2,57,36,0
2,60,45,0
2,60,0,149
2,57,0,0
2,56,34,0
2,62,44,0
2,62,0,240
2,56,0,0
2,63,43,0
2,55,33,0
2,55,0,103
2,63,0,0
2,54,32,0
2,58,41,0
2,58,0,240
2,54,0,0
2,46,50,0
2,46,0,114
2,53,34,0
2,62,43,0
2,62,0,240
2,53,0,0
2,52,34,0
2,55,43,0
2,55,0,126
2,52,0,0
2,51,32,0
2,57,41,0
2,57,0,240
2,51,0,0
2,50,32,0
2,58,40,0
2,58,0,137
2,50,0,0
2,53,37,0
2,53,0,240
2,46,50,0
2,46,0,125
2,53,35,0
2,62,44,0
2,62,0,240
2,53,0,0
2,52,32,0
2,55,41,0
2,55,0,114
2,52,0,0
2,51,30,0
2,57,38,0
2,57,0,240
2,51,0,0
2,50,29,0
2,58,36,0
2,58,0,125
2,50,0,0
2,46,32,0
2,46,0,240
2,30,64,0
2,30,0,103
2,49,41,0
2,58,49,0
2,58,0,240
2,49,0,0
2,61,53,0
2,54,44,0
2,54,0,240
2,61,0,0
2,63,48,0
2,58,40,0
2,58,0,240
2,63,0,0
2,54,46,0
2,61,55,0
2,61,0,240
2,54,0,0
2,49,42,0
2,58,50,0
2,58,0,240
2,49,0,0
2,54,44,0
2,61,53,0
2,61,0,126
2,54,0,0
