track,note,velocity,time
0,31,78,96
0,50,45,0
0,43,80,0
0,50,58,18
0,43,83,0
0,31,66,0
0,31,68,24
0,43,83,0
0,50,50,0
0,50,48,10
0,43,80,0
0,31,72,0
0,43,80,10
0,50,50,0
0,31,65,0
0,31,74,8
0,43,96,0
0,50,58,0
0,31,78,22
0,50,63,0
0,43,96,0
0,43,78,118
0,50,52,0
0,31,76,0
0,43,72,32
0,50,48,0
0,31,65,0
0,31,74,30
0,50,48,0
0,43,83,0
0,31,78,12
0,50,48,0
0,43,80,0
0,31,72,9
0,50,57,0
0,43,83,0
0,31,80,9
0,50,55,0
0,43,100,0
0,31,89,24
0,50,62,0
0,43,100,0
0,43,96,120
0,50,66,0
0,43,83,29
0,50,74,0
0,50,76,32
0,43,105,0
0,50,68,32
0,43,110,0
0,43,89,9
0,50,78,0
0,43,120,9
0,50,78,0
0,43,124,31
0,50,76,0
0,43,80,126
0,50,63,0
0,50,74,31
0,43,96,0
0,50,78,33
0,43,110,0
0,50,83,33
0,43,105,0
0,50,76,10
0,43,96,0
0,50,89,12
0,43,124,0
0,50,42,173
0,43,96,0
0,43,89,34
0,50,41,0
0,47,100,23
0,54,36,0
0,47,96,33
0,54,35,0
0,45,92,17
0,52,35,0
0,43,83,22
0,50,23,0
0,43,86,28
0,50,24,0
0,47,100,13
0,54,32,0
0,47,96,32
0,54,38,0
0,45,92,5
0,52,40,0
0,43,74,19
0,50,39,0
0,43,86,29
0,50,28,0
0,47,92,15
0,54,40,0
0,47,96,34
0,54,32,0
0,48,86,20
0,55,44,0
0,48,96,33
0,55,33,0
0,54,46,24
0,47,100,0
0,48,105,17
0,55,34,0
0,43,89,23
0,50,65,0
0,43,86,30
0,50,62,0
0,47,78,27
0,54,46,0
0,47,86,27
0,54,53,0
0,45,78,41
0,52,48,0
0,43,86,23
0,50,59,0
0,50,53,29
0,43,83,0
0,47,92,22
0,54,36,0
0,47,89,32
0,54,45,0
0,45,89,38
0,52,48,0
0,50,48,23
0,43,86,0
0,43,80,26
0,50,44,0
0,54,37,24
0,47,86,0
0,47,89,31
0,54,38,0
0,48,80,32
0,55,70,0
0,55,76,31
0,48,83,0
0,55,92,33
0,48,96,0
0,55,96,34
0,48,110,0
0,48,120,34
0,55,115,0
0,43,124,169
0,50,86,0
0,43,115,15
0,50,83,0
0,43,124,18
0,50,96,0
0,43,115,15
0,50,92,0
0,50,89,9
0,43,115,0
0,43,124,5
0,50,100,0
0,43,124,23
0,50,100,0
0,43,124,121
0,50,92,0
0,43,100,26
0,50,92,0
0,43,120,25
0,50,96,0
0,50,96,21
0,43,105,0
0,50,86,10
0,43,120,0
0,50,100,8
0,43,120,0
0,50,105,28
0,43,124,0
0,43,120,126
0,50,100,0
0,43,110,20
0,50,96,0
0,43,120,22
0,50,100,0
0,50,100,14
0,43,105,0
0,43,120,12
0,50,92,0
0,50,100,9
0,43,120,0
0,50,100,29
0,43,124,0
0,50,92,123
0,43,124,0
0,43,110,20
0,50,100,0
0,50,110,19
0,43,120,0
0,50,120,23
0,43,124,0
0,50,120,2
0,43,124,0
0,43,92,3243
0,43,89,35
0,43,86,31
0,43,83,32
0,47,89,27
0,47,86,39
0,47,83,35
0,47,86,33
0,52,89,33
0,52,96,34
0,52,89,34
0,52,92,34
0,48,92,33
0,48,92,35
0,48,92,34
0,48,96,35
0,43,80,32
0,43,74,31
0,43,83,33
0,43,86,32
0,47,86,30
0,47,89,38
0,47,86,37
0,47,89,35
0,52,96,34
0,52,89,37
0,52,92,35
0,52,96,36
0,48,92,34
0,48,89,36
0,48,89,35
0,48,92,34
0,43,78,34
0,43,76,35
0,43,83,32
0,43,78,29
0,47,89,28
0,47,86,35
0,47,92,36
0,47,92,36
0,52,92,37
0,52,92,38
0,52,92,36
0,52,96,36
0,48,89,36
0,48,86,36
0,48,89,37
0,48,92,36
0,43,63,34
0,43,74,31
0,43,72,32
0,43,80,31
0,47,83,32
0,47,80,38
0,47,80,36
0,47,86,36
0,52,92,35
0,52,89,40
0,52,86,36
0,52,86,35
0,48,76,35
0,48,92,35
0,48,89,36
0,48,86,38
0,43,100,36
0,43,92,29
0,43,92,27
0,43,86,29
0,47,105,29
0,47,92,29
0,47,96,28
0,45,86,22
0,43,74,28
0,43,76,30
0,43,76,31
0,43,80,31
0,47,105,28
0,47,115,79
0,43,86,3066
0,43,83,32
0,43,86,34
0,43,78,32
0,47,92,30
0,47,80,36
0,47,86,34
0,47,83,36
0,52,92,35
0,52,92,34
0,52,89,35
0,52,89,34
0,48,92,33
0,48,89,34
0,48,86,35
0,48,86,34
0,43,76,33
0,43,63,29
0,43,72,31
0,43,70,30
0,47,89,20
0,47,89,36
0,47,86,35
0,47,89,36
0,52,92,34
0,52,86,36
0,52,89,35
0,52,92,35
0,48,80,31
0,48,92,35
0,48,92,34
0,48,92,35
0,43,80,31
0,43,72,33
0,43,76,31
0,43,80,30
0,47,89,24
0,47,89,35
0,47,92,35
0,47,86,37
0,52,92,34
0,52,92,34
0,52,86,34
0,52,86,33
0,48,92,31
0,48,92,35
0,48,89,33
0,48,96,35
0,43,78,34
0,43,76,31
0,43,76,28
0,43,76,28
0,47,83,24
0,47,89,36
0,47,80,36
0,47,83,37
0,52,92,35
0,52,89,37
0,52,89,36
0,52,89,36
0,48,92,35
0,48,89,35
0,48,92,37
0,48,100,36
0,43,78,33
0,43,76,31
0,43,76,28
0,43,76,28
0,47,83,24
0,47,89,36
0,47,80,36
0,47,83,37
0,52,92,35
0,52,89,37
0,52,89,36
0,52,89,36
0,48,92,35
0,48,89,35
0,48,92,37
0,48,100,36
0,43,92,0
0,43,92,15
0,43,86,19
0,43,83,15
0,43,86,11
0,43,92,10
0,43,92,28
0,43,86,115
0,43,83,14
0,43,92,14
0,43,74,11
0,43,80,8
0,43,83,11
0,43,89,23
0,43,83,111
0,43,83,5
0,43,86,23
0,43,76,6
0,43,86,9
0,43,86,6
0,43,96,16
0,43,74,113
0,43,65,10
0,43,78,22
0,43,78,12
0,43,70,9
0,43,78,6
0,43,86,18
0,43,86,107
0,43,86,12
0,43,80,17
0,43,86,15
0,43,76,9
0,43,83,8
0,43,89,24
0,43,83,115
0,43,76,10
0,43,83,13
0,43,80,13
0,43,76,7
0,43,83,8
0,43,86,19
0,43,80,119
0,43,78,15
0,43,80,12
0,43,74,12
0,43,76,6
0,43,80,5
0,43,89,22
0,43,78,120
0,43,80,14
0,43,83,16
0,43,86,9
0,43,89,9
0,43,89,10
0,43,83,29
0,43,83,2436
0,43,83,30
0,43,83,32
0,43,80,31
0,47,89,31
0,47,83,35
0,47,86,35
0,47,89,36
0,48,89,30
0,48,89,35
0,48,96,33
0,48,92,34
0,48,96,33
0,48,89,34
0,48,96,32
0,48,96,33
0,43,86,32
0,43,83,32
0,43,86,34
0,43,78,32
0,47,92,30
0,47,80,36
0,47,86,34
0,47,83,36
0,52,92,35
0,52,92,34
0,52,89,35
0,52,89,34
0,48,92,33
0,48,89,34
0,48,86,35
0,48,86,34
0,43,76,33
0,43,63,29
0,43,72,31
0,43,70,30
0,47,89,20
0,47,89,36
0,47,86,35
0,47,89,36
0,52,92,34
0,52,86,36
0,52,89,35
0,52,92,35
0,48,80,31
0,48,92,35
0,48,92,34
0,48,92,35
0,43,80,31
0,43,72,33
0,43,76,31
0,43,80,30
0,47,89,24
0,47,89,35
0,47,92,35
0,47,86,37
0,52,92,34
0,52,92,34
0,52,86,34
0,52,86,33
0,48,92,31
0,48,92,35
0,48,89,33
0,48,96,35
0,43,78,34
0,43,76,31
0,43,76,28
0,43,76,28
0,47,83,24
0,47,89,36
0,47,80,36
0,47,83,37
0,48,92,35
0,48,89,37
0,48,89,36
0,48,89,36
0,48,92,35
0,48,89,35
0,48,92,37
0,48,100,36
0,43,78,33
0,43,76,31
0,43,76,28
0,43,76,28
0,47,83,24
0,47,89,36
0,47,80,36
0,47,83,37
0,48,92,35
0,48,89,37
0,48,89,36
0,48,89,36
0,48,92,35
0,48,89,35
0,48,92,37
0,48,100,36
0,43,78,33
0,43,76,31
0,43,76,28
0,43,76,28
0,47,83,24
0,47,89,36
0,47,80,36
0,47,83,37
0,48,92,35
0,48,89,37
0,48,89,36
0,48,89,36
0,48,92,35
0,48,89,35
0,48,92,37
0,48,100,36
0,43,78,33
0,43,76,31
0,43,76,28
0,43,76,28
0,47,83,24
0,47,89,36
0,47,80,36
0,47,83,37
0,48,92,35
0,48,89,37
0,48,89,36
0,48,89,36
0,48,92,35
0,48,89,35
0,48,92,37
0,48,100,36
1,91,25,216
1,86,25,16
1,91,25,26
1,91,25,155
1,86,25,47
1,91,25,57
1,95,59,22539
1,91,63,4
1,95,58,93
1,91,70,3
1,95,78,95
1,91,72,48
1,95,76,96
1,91,70,0
1,95,68,62
1,91,70,2
1,95,72,96
1,91,70,3
1,95,74,97
1,91,83,3
1,95,74,99
1,91,76,3
1,95,72,94
1,91,70,3
1,95,76,103
1,91,70,2
1,95,74,103
1,91,78,6
1,95,76,101
1,91,63,2
1,95,72,106
1,91,66,2
1,95,74,101
1,91,72,1
1,95,62,104
1,91,80,0
1,95,76,105
1,91,70,1
1,95,96,109
1,91,89,0
1,95,89,77
1,91,80,48
1,95,96,88
1,91,86,3
1,95,92,91
1,91,76,48
1,95,83,89
1,91,89,1
1,95,83,83
1,91,83,1
1,95,86,103
1,91,86,1
1,95,89,89
1,91,80,48
1,95,86,62
1,91,80,48
1,95,92,70
1,91,86,48
1,95,89,67
1,91,89,48
1,95,83,83
1,91,76,0
1,95,86,50
1,91,80,48
1,95,86,89
1,91,80,0
1,94,78,92
1,91,78,2
1,94,78,88
1,91,78,10
1,95,76,87
1,91,83,0
1,95,80,87
1,91,86,8
1,94,67,95
1,91,86,1
1,94,78,83
1,91,86,3
1,95,86,89
1,91,80,2
1,95,89,76
1,91,86,0
1,94,71,91
1,91,83,48
1,94,85,93
1,91,83,4
1,95,83,104
1,91,83,1
1,95,83,75
1,91,89,4
1,94,74,98
1,91,86,4
1,94,74,103
1,91,80,6
1,95,76,103
1,91,68,48
1,95,66,3
1,91,76,48
1,95,68,137
1,91,66,45
1,95,58,140
1,91,66,45
2,31,92,984
2,31,89,25
2,31,89,27
2,31,83,25
2,31,86,7
2,31,86,11
2,31,89,26
2,31,80,117
2,31,89,27
2,31,89,31
2,31,92,29
2,31,96,30
2,31,66,172
2,31,74,33
2,31,74,34
2,35,80,5
2,35,78,34
2,35,89,34
2,33,65,10
2,31,66,48
2,31,66,30
2,31,76,31
2,35,80,12
2,35,70,29
2,35,80,31
2,33,74,6
2,31,68,13
2,31,72,31
2,31,80,32
2,35,74,16
2,35,70,34
2,35,86,33
2,36,80,12
2,36,68,31
2,36,78,33
2,35,92,10
2,36,89,7
2,31,80,14
2,31,83,31
2,31,83,29
2,35,80,11
2,35,83,29
2,35,92,30
2,33,74,8
2,31,70,7
2,31,68,28
2,31,66,31
2,35,78,9
2,35,74,31
2,35,83,31
2,33,72,7
2,31,72,7
2,31,70,30
2,31,66,29
2,35,78,7
2,35,74,31
2,35,76,32
2,36,76,13
2,36,96,27
2,36,105,28
2,36,110,27
2,36,120,28
2,31,92,167
2,31,89,25
2,31,89,27
2,31,83,25
2,31,86,7
2,31,86,11
2,31,89,26
2,31,92,117
2,31,89,25
2,31,89,27
2,31,83,25
2,31,86,7
2,31,86,11
2,31,89,26
2,31,92,117
2,31,89,25
2,31,89,27
2,31,83,25
2,31,86,7
2,31,86,11
2,31,89,26
2,31,80,117
2,31,89,27
2,31,89,31
2,31,92,29
2,31,96,30
2,31,80,172
2,31,76,30
2,35,76,7
2,35,76,31
2,33,86,12
2,31,74,4
2,31,83,27
2,35,76,10
2,35,78,30
2,33,72,5
2,31,74,7
2,31,76,25
2,35,86,18
2,35,78,27
2,36,86,4
2,36,70,30
2,36,76,29
2,36,78,28
2,35,89,2
2,35,92,16
2,36,92,5
2,36,100,26
2,31,80,7
2,31,76,30
2,35,76,7
2,35,76,31
2,33,86,12
2,31,74,4
2,31,83,27
2,35,76,10
2,35,78,30
2,33,72,5
2,31,74,7
2,31,76,25
2,35,86,18
2,35,78,27
2,36,89,4
2,36,89,19
2,36,100,25
2,36,89,33
2,36,115,29
2,36,105,77
2,31,74,0
2,31,78,13
2,31,78,18
2,31,78,15
2,35,83,16
2,35,80,16
2,35,83,17
2,35,86,16
2,40,80,18
2,40,74,17
2,40,78,18
2,40,78,19
2,36,83,21
2,36,83,16
2,36,76,20
2,36,83,22
2,31,74,0
2,31,78,13
2,31,78,18
2,31,78,15
2,35,83,16
2,35,80,16
2,35,83,17
2,35,86,16
2,40,80,18
2,40,74,17
2,40,78,18
2,40,78,19
2,36,83,21
2,36,83,16
2,36,76,20
2,36,83,22
2,31,74,0
2,31,78,13
2,31,78,18
2,31,78,15
2,35,83,16
2,35,80,16
2,35,83,17
2,35,86,16
2,40,80,18
2,40,74,17
2,40,78,18
2,40,78,19
2,36,83,21
2,36,83,16
2,36,76,20
2,36,83,22
2,31,74,0
2,31,78,13
2,31,78,18
2,31,78,15
2,35,83,16
2,35,80,16
2,35,83,17
2,35,86,16
2,40,80,18
2,40,74,17
2,40,78,18
2,40,78,19
2,36,83,21
2,36,83,16
2,36,76,20
2,36,83,22
2,31,89,23
2,31,89,19
2,31,89,22
2,31,86,16
2,35,86,3
2,35,83,23
2,35,83,24
2,33,74,9
2,31,83,8
2,31,83,17
2,31,76,24
2,31,86,22
2,35,89,4
2,35,100,76
2,31,80,0
2,31,76,30
2,35,76,7
2,35,76,31
2,33,86,12
2,31,74,4
2,31,83,27
2,35,76,10
2,35,78,30
2,33,72,5
2,31,74,7
2,31,76,25
2,35,86,18
2,35,78,27
2,36,86,4
2,36,70,30
2,36,76,29
2,36,78,28
2,35,89,2
2,35,92,16
2,36,92,5
2,36,100,26
2,31,80,7
2,31,76,30
2,35,76,7
2,35,76,31
2,33,86,12
2,31,74,4
2,31,83,27
2,35,76,10
2,35,78,30
2,33,72,5
2,31,74,7
2,31,76,25
2,35,86,18
2,35,78,27
2,36,92,4
2,36,86,32
2,36,86,15
2,36,83,21
2,36,96,16
2,36,96,27
2,36,92,20
2,36,105,23
2,31,74,20
2,31,78,13
2,31,78,18
2,31,78,15
2,35,83,16
2,35,80,16
2,35,83,17
2,35,86,16
2,40,80,18
2,40,74,17
2,40,78,18
2,40,78,19
2,36,83,21
2,36,83,16
2,36,76,20
2,36,83,22
2,31,74,0
2,31,78,13
2,31,78,18
2,31,78,15
2,35,83,16
2,35,80,16
2,35,83,17
2,35,86,16
2,40,80,18
2,40,74,17
2,40,78,18
2,40,78,19
2,36,83,21
2,36,83,16
2,36,76,20
2,36,83,22
2,31,74,0
2,31,78,13
2,31,78,18
2,31,78,15
2,35,83,16
2,35,80,16
2,35,83,17
2,35,86,16
2,40,80,18
2,40,74,17
2,40,78,18
2,40,78,19
2,36,83,21
2,36,83,16
2,36,76,20
2,36,83,22
2,31,74,0
2,31,78,13
2,31,78,18
2,31,78,15
2,35,83,16
2,35,80,16
2,35,83,17
2,35,86,16
2,40,80,18
2,40,74,17
2,40,78,18
2,40,78,19
2,36,83,21
2,36,83,16
2,36,76,20
2,36,83,22
2,31,74,0
2,31,78,13
2,31,78,18
2,31,78,15
2,35,83,16
2,35,80,16
2,35,83,17
2,35,86,16
2,40,80,18
2,40,74,17
2,40,78,18
2,40,78,19
2,36,83,21
2,36,83,16
2,36,76,20
2,36,83,22
2,31,86,23
2,31,80,17
2,31,83,23
2,31,80,17
2,31,80,8
2,31,89,8
2,31,89,26
2,31,83,120
2,31,80,11
2,31,96,15
2,31,83,13
2,31,86,10
2,31,80,8
2,31,96,24
2,31,86,120
2,31,78,15
2,31,96,23
2,31,74,17
2,31,89,8
2,31,76,7
2,31,92,27
2,31,86,120
2,31,83,19
2,31,100,23
2,31,80,14
2,31,80,8
2,31,74,7
2,31,83,25
2,31,89,117
2,31,86,20
