track,note,velocity,time
1,55,75,0
1,62,75,0
1,67,75,0
1,55,75,2
1,62,75,0
1,67,75,0
1,55,75,194
1,62,75,0
1,67,75,0
1,55,75,2
1,62,75,0
1,67,75,0
1,52,75,2
1,62,75,0
1,67,75,0
1,52,75,2
1,62,75,0
1,67,75,0
1,55,75,2
1,62,75,0
1,67,75,0
1,55,75,2
1,62,75,0
1,67,75,0
1,55,75,194
1,62,75,0
1,67,75,0
1,55,75,2
1,62,75,0
1,67,75,0
1,52,75,2
1,62,75,0
1,67,75,0
1,52,75,2
1,62,75,0
1,67,75,0
1,55,75,2
1,62,75,0
1,67,75,0
1,55,75,2
1,62,75,0
1,67,75,0
1,55,75,194
1,62,75,0
1,67,75,0
1,55,75,2
1,62,75,0
1,67,75,0
1,52,75,2
1,62,75,0
1,67,75,0
1,52,75,2
1,62,75,0
1,67,75,0
1,55,75,2
1,62,75,0
1,67,75,0
1,71,75,0
1,74,75,0
1,79,75,0
1,55,75,98
1,62,75,0
1,67,75,0
1,55,75,2
1,62,75,0
1,67,75,0
1,55,75,194
1,62,75,0
1,67,75,0
1,55,75,2
1,62,75,0
1,67,75,0
1,52,75,2
1,62,75,0
1,67,75,0
1,52,75,2
1,62,75,0
1,67,75,0
1,55,75,2
1,62,75,0
1,67,75,0
1,55,75,2
1,62,75,0
1,67,75,0
1,55,75,194
1,62,75,0
1,67,75,0
1,55,75,2
1,62,75,0
1,67,75,0
1,52,75,2
1,62,75,0
1,67,75,0
1,52,75,2
1,62,75,0
1,67,75,0
1,55,75,2
1,62,75,0
1,67,75,0
1,55,75,2
1,62,75,0
1,67,75,0
1,55,75,194
1,62,75,0
1,67,75,0
1,55,75,2
1,62,75,0
1,67,75,0
1,52,75,2
1,62,75,0
1,67,75,0
1,52,75,2
1,62,75,0
1,67,75,0
1,55,75,2
1,62,75,0
1,67,75,0
1,55,75,2
1,62,75,0
1,67,75,0
1,55,75,194
1,62,75,0
1,67,75,0
1,55,75,2
1,62,75,0
1,67,75,0
1,52,75,2
1,62,75,0
1,67,75,0
1,52,75,2
1,57,75,0
1,62,75,0
1,57,75,2
1,62,75,0
1,69,75,0
1,74,75,0
1,78,75,0
1,57,75,2
1,62,75,0
1,69,75,0
1,74,75,0
1,78,75,0
1,57,75,194
1,62,75,0
1,69,75,0
1,74,75,0
1,78,75,0
1,57,75,2
1,62,75,0
1,69,75,0
1,74,75,0
1,78,75,0
1,59,75,0
1,64,75,0
1,71,75,0
1,76,75,0
1,80,75,0
1,59,75,2
1,64,75,0
1,71,75,0
1,76,75,0
1,80,75,0
1,67,75,0
1,71,75,0
1,55,75,2
1,62,75,0
1,67,75,0
1,72,75,0
1,76,75,0
1,55,75,2
1,62,75,0
1,67,75,0
1,72,75,0
1,76,75,0
1,55,75,194
1,60,75,0
1,67,75,0
1,72,75,0
1,76,75,0
1,55,75,2
1,60,75,0
1,67,75,0
1,72,75,0
1,76,75,0
1,57,75,0
1,57,75,2
1,64,75,0
1,69,75,0
1,55,75,32
1,62,75,0
1,67,75,0
1,55,75,2
1,62,75,0
1,67,75,0
1,55,75,194
1,62,75,0
1,67,75,0
1,55,75,2
1,62,75,0
1,67,75,0
1,52,75,2
1,62,75,0
1,67,75,0
1,52,75,2
1,62,75,0
1,67,75,0
1,55,75,2
1,62,75,0
1,67,75,0
1,71,75,0
1,74,75,0
1,79,75,0
1,55,75,240
1,62,75,0
1,67,75,0
1,55,75,2
1,62,75,0
1,67,75,0
1,55,75,194
1,62,75,0
1,67,75,0
1,55,75,2
1,62,75,0
1,67,75,0
1,52,75,2
1,62,75,0
1,67,75,0
1,52,75,2
1,62,75,0
1,67,75,0
1,55,75,2
1,62,75,0
1,67,75,0
1,55,75,2
1,62,75,0
1,67,75,0
1,55,75,194
1,62,75,0
1,67,75,0
1,55,75,2
1,62,75,0
1,67,75,0
1,52,75,2
1,62,75,0
1,67,75,0
1,52,75,2
1,62,75,0
1,67,75,0
1,55,75,2
1,62,75,0
1,67,75,0
1,55,75,2
1,62,75,0
1,67,75,0
1,55,75,194
1,62,75,0
1,67,75,0
1,55,75,2
1,62,75,0
1,67,75,0
1,52,75,2
1,62,75,0
1,67,75,0
1,52,75,2
1,62,75,0
1,67,75,0
1,55,75,2
1,62,75,0
1,67,75,0
1,55,75,2
1,62,75,0
1,67,75,0
1,55,75,194
1,62,75,0
1,67,75,0
1,55,75,2
1,62,75,0
1,67,75,0
1,55,75,2
1,62,75,0
1,67,75,0
1,43,75,2
1,52,75,2
1,57,75,2
1,62,75,0
1,69,75,0
1,74,75,0
1,78,75,0
1,57,75,2
1,62,75,0
1,69,75,0
1,74,75,0
1,78,75,0
1,57,75,194
1,62,75,0
1,69,75,0
1,74,75,0
1,78,75,0
1,57,75,2
1,62,75,0
1,69,75,0
1,74,75,0
1,78,75,0
1,59,75,2
1,64,75,0
1,71,75,0
1,76,75,0
1,80,75,0
1,55,75,98
1,60,75,0
1,67,75,0
1,72,75,0
1,76,75,0
1,55,75,2
1,60,75,0
1,67,75,0
1,72,75,0
1,76,75,0
1,55,75,194
1,60,75,0
1,67,75,0
1,72,75,0
1,76,75,0
1,55,75,2
1,60,75,0
1,67,75,0
1,72,75,0
1,76,75,0
1,57,75,2
1,64,75,0
1,69,75,0
1,57,75,2
1,64,75,0
1,69,75,0
1,57,75,2
1,64,75,0
1,69,75,0
1,55,75,2
1,62,75,0
1,67,75,0
1,55,75,2
1,62,75,0
1,67,75,0
1,55,75,194
1,62,75,0
1,67,75,0
1,55,75,2
1,62,75,0
1,67,75,0
1,52,75,2
1,62,75,0
1,67,75,0
1,52,75,2
1,62,75,0
1,67,75,0
1,55,75,2
1,62,75,0
1,67,75,0
1,55,75,2
1,62,75,0
1,67,75,0
1,55,75,194
1,62,75,0
1,67,75,0
1,55,75,2
1,62,75,0
1,67,75,0
1,40,75,2
1,40,75,2
1,57,75,2
1,62,75,0
1,69,75,0
1,74,75,0
1,78,75,0
1,57,75,2
1,62,75,0
1,69,75,0
1,74,75,0
1,78,75,0
1,57,75,194
1,62,75,0
1,69,75,0
1,74,75,0
1,78,75,0
1,57,75,2
1,62,75,0
1,69,75,0
1,74,75,0
1,78,75,0
1,59,75,2
1,64,75,0
1,71,75,0
1,76,75,0
1,80,75,0
1,40,75,2
1,55,75,2
1,60,75,0
1,67,75,0
1,72,75,0
1,76,75,0
1,55,75,2
1,60,75,0
1,67,75,0
1,72,75,0
1,76,75,0
1,55,75,194
1,60,75,0
1,67,75,0
1,72,75,0
1,76,75,0
1,55,75,2
1,60,75,0
1,67,75,0
1,72,75,0
1,76,75,0
1,57,75,2
1,64,75,0
1,69,75,0
1,57,75,2
1,64,75,0
1,69,75,0
1,55,75,2
1,62,75,0
1,67,75,0
1,55,75,2
1,62,75,0
1,67,75,0
1,55,75,194
1,62,75,0
1,67,75,0
1,55,75,2
1,62,75,0
1,67,75,0
1,52,75,2
1,62,75,0
1,67,75,0
1,52,75,2
1,62,75,0
1,67,75,0
1,55,75,2
1,62,75,0
1,67,75,0
1,71,75,0
1,74,75,0
1,79,75,0
1,55,75,48
1,62,75,0
1,67,75,0
1,72,75,0
1,76,75,0
1,55,75,2
1,62,75,0
1,67,75,0
1,72,75,0
1,76,75,0
1,55,75,194
1,62,75,0
1,67,75,0
1,72,75,0
1,76,75,0
1,55,75,2
1,62,75,0
1,67,75,0
1,72,75,0
1,76,75,0
1,57,75,2
1,62,75,0
1,69,75,0
1,74,75,0
1,78,75,0
1,57,75,2
1,62,75,0
1,69,75,0
1,74,75,0
1,78,75,0
1,55,75,50
1,62,75,0
1,67,75,0
1,55,75,2
1,62,75,0
1,67,75,0
1,55,75,194
1,62,75,0
1,67,75,0
1,55,75,2
1,62,75,0
1,67,75,0
1,59,75,2
1,64,75,0
1,71,75,0
1,76,75,0
1,79,75,0
1,59,75,2
1,64,75,0
1,71,75,0
1,76,75,0
1,79,75,0
1,57,75,0
1,62,75,0
1,69,75,0
1,74,75,0
1,78,75,0
1,57,75,2
1,62,75,0
1,69,75,0
1,74,75,0
1,78,75,0
1,57,75,2
1,62,75,0
1,69,75,0
1,74,75,0
1,78,75,0
1,57,75,194
1,62,75,0
1,69,75,0
1,74,75,0
1,78,75,0
1,57,75,2
1,62,75,0
1,69,75,0
1,74,75,0
1,78,75,0
1,55,75,0
1,60,75,0
1,67,75,0
1,72,75,0
1,76,75,0
1,55,75,2
1,60,75,0
1,67,75,0
1,72,75,0
1,76,75,0
1,55,75,2
1,60,75,0
1,67,75,0
1,72,75,0
1,76,75,0
1,55,75,2
1,62,75,0
1,67,75,0
1,55,75,2
1,62,75,0
1,67,75,0
1,55,75,194
1,62,75,0
1,67,75,0
1,55,75,2
1,62,75,0
1,67,75,0
1,57,75,2
1,62,75,0
1,69,75,0
1,74,75,0
1,78,75,0
1,57,75,2
1,62,75,0
1,69,75,0
1,74,75,0
1,78,75,0
1,55,75,2
1,62,75,0
1,67,75,0
1,72,75,0
1,76,75,0
1,55,75,2
1,62,75,0
1,67,75,0
1,72,75,0
1,76,75,0
1,55,75,194
1,62,75,0
1,67,75,0
1,72,75,0
1,76,75,0
1,55,75,2
1,62,75,0
1,67,75,0
1,72,75,0
1,76,75,0
1,57,75,2
1,62,75,0
1,69,75,0
1,74,75,0
1,78,75,0
1,57,75,2
1,62,75,0
1,69,75,0
1,74,75,0
1,78,75,0
1,55,75,50
1,62,75,0
1,67,75,0
1,55,75,2
1,62,75,0
1,67,75,0
1,55,75,194
1,62,75,0
1,67,75,0
1,55,75,2
1,62,75,0
1,67,75,0
1,59,75,2
1,64,75,0
1,71,75,0
1,76,75,0
1,79,75,0
1,59,75,2
1,64,75,0
1,71,75,0
1,76,75,0
1,79,75,0
1,57,75,0
1,62,75,0
1,69,75,0
1,74,75,0
1,78,75,0
1,57,75,2
1,62,75,0
1,69,75,0
1,74,75,0
1,78,75,0
1,57,75,2
1,62,75,0
1,69,75,0
1,74,75,0
1,78,75,0
1,57,75,194
1,62,75,0
1,69,75,0
1,74,75,0
1,78,75,0
1,57,75,2
1,62,75,0
1,69,75,0
1,74,75,0
1,78,75,0
1,55,75,0
1,60,75,0
1,67,75,0
1,72,75,0
1,76,75,0
1,55,75,2
1,60,75,0
1,67,75,0
1,72,75,0
1,76,75,0
1,55,75,2
1,60,75,0
1,67,75,0
1,72,75,0
1,76,75,0
1,55,75,2
1,62,75,0
1,67,75,0
1,55,75,2
1,62,75,0
1,67,75,0
1,55,75,194
1,62,75,0
1,67,75,0
1,55,75,2
1,62,75,0
1,67,75,0
1,52,75,2
1,62,75,0
1,67,75,0
1,52,75,2
1,62,75,0
1,67,75,0
1,55,75,2
1,62,75,0
1,67,75,0
1,55,75,2
1,62,75,0
1,67,75,0
1,55,75,194
1,62,75,0
1,67,75,0
1,55,75,2
1,62,75,0
1,67,75,0
1,52,75,2
1,62,75,0
1,67,75,0
1,52,75,2
1,62,75,0
1,67,75,0
1,55,75,2
1,62,75,0
1,67,75,0
1,55,75,2
1,62,75,0
1,67,75,0
1,55,75,194
1,62,75,0
1,67,75,0
1,55,75,2
1,62,75,0
1,67,75,0
1,52,75,2
1,62,75,0
1,67,75,0
1,52,75,2
1,62,75,0
1,67,75,0
1,55,75,2
1,62,75,0
1,67,75,0
1,71,75,0
1,74,75,0
2,55,45,960
2,62,45,0
2,67,45,0
2,55,45,2
2,62,45,0
2,67,45,0
2,55,45,2
2,62,45,0
2,67,45,0
2,55,45,2
2,62,45,0
2,67,45,0
2,55,45,578
2,62,45,0
2,67,45,0
2,55,45,2
2,62,45,0
2,67,45,0
2,55,45,2
2,62,45,0
2,67,45,0
2,55,45,2
2,62,45,0
2,67,45,0
2,55,45,2114
2,62,45,0
2,67,45,0
2,55,45,2
2,62,45,0
2,67,45,0
2,55,45,2
2,62,45,0
2,67,45,0
2,55,45,2
2,62,45,0
2,67,45,0
2,55,45,1346
2,62,45,0
2,67,45,0
2,55,45,2
2,62,45,0
2,67,45,0
2,55,45,2
2,62,45,0
2,67,45,0
2,55,45,2
2,62,45,0
2,67,45,0
2,62,45,578
2,69,45,0
2,72,45,0
2,60,45,608
2,67,45,0
2,72,45,0
2,60,45,2
2,67,45,0
2,72,45,0
2,60,45,2
2,67,45,0
2,72,45,0
2,60,45,2
2,67,45,0
2,72,45,0
2,55,45,578
2,62,45,0
2,67,45,0
2,55,45,1376
2,62,45,0
2,67,45,0
2,55,45,2
2,62,45,0
2,67,45,0
2,55,45,2
2,62,45,0
2,67,45,0
2,55,45,2
2,62,45,0
2,67,45,0
2,55,45,578
2,62,45,0
2,67,45,0
2,55,45,2
2,62,45,0
2,67,45,0
2,55,45,2
2,62,45,0
2,67,45,0
2,55,45,2
2,62,45,0
2,67,45,0
2,55,45,578
2,62,45,0
2,67,45,0
2,55,45,2
2,62,45,0
2,67,45,0
2,55,45,2
2,62,45,0
2,67,45,0
2,55,45,2
2,62,45,0
2,67,45,0
2,55,45,578
2,62,45,0
2,67,45,0
2,55,45,2
2,62,45,0
2,67,45,0
2,55,45,2
2,62,45,0
2,67,45,0
2,55,45,2
2,62,45,0
2,67,45,0
2,55,45,578
2,62,45,0
2,67,45,0
2,55,45,2
2,62,45,0
2,67,45,0
2,55,45,2
2,62,45,0
2,67,45,0
2,55,45,2
2,62,45,0
2,67,45,0
2,64,45,290
2,71,45,0
2,76,45,0
2,64,45,2
2,71,45,0
2,76,45,0
2,60,45,194
2,67,45,0
2,72,45,0
2,60,45,2
2,67,45,0
2,72,45,0
2,60,45,2
2,72,45,0
2,55,45,626
2,62,45,0
2,67,45,0
2,55,45,2
2,62,45,0
2,67,45,0
2,55,45,2
2,62,45,0
2,67,45,0
2,55,45,2
2,62,45,0
2,67,45,0
2,55,45,578
2,62,45,0
2,67,45,0
2,55,45,2
2,62,45,0
2,67,45,0
2,55,45,2
2,62,45,0
2,67,45,0
2,55,45,2
2,62,45,0
2,67,45,0
2,55,45,578
2,62,45,0
2,67,45,0
2,55,45,2
2,62,45,0
2,67,45,0
2,55,45,2
2,62,45,0
2,67,45,0
2,55,45,2
2,62,45,0
2,67,45,0
2,64,45,290
2,71,45,0
2,76,45,0
2,64,45,2
2,71,45,0
2,76,45,0
2,60,45,194
2,67,45,0
2,72,45,0
2,60,45,2
2,67,45,0
2,72,45,0
2,60,45,2
2,67,45,0
2,72,45,0
2,57,45,338
2,64,45,0
2,69,45,0
2,57,45,2
2,64,45,0
2,69,45,0
2,55,45,290
2,62,45,0
2,67,45,0
2,55,45,2
2,62,45,0
2,67,45,0
2,60,45,1346
2,67,45,0
2,72,45,0
2,60,45,2
2,67,45,0
2,72,45,0
2,60,45,2
2,67,45,0
2,72,45,0
2,60,45,2
2,67,45,0
2,72,45,0
2,62,45,290
2,69,45,0
2,74,45,0
2,55,45,242
2,62,45,0
2,67,45,0
2,71,45,0
2,55,45,2
2,62,45,0
2,67,45,0
2,71,45,0
2,55,45,2
2,62,45,0
2,67,45,0
2,71,45,0
2,55,45,2
2,62,45,0
2,67,45,0
2,71,45,0
2,62,45,578
2,69,45,0
2,74,45,0
2,62,45,2
2,69,45,0
2,74,45,0
2,55,45,674
2,62,45,0
2,67,45,0
2,55,45,2
2,62,45,0
2,67,45,0
2,55,45,50
2,62,45,0
2,67,45,0
2,60,45,578
2,67,45,0
2,72,45,0
2,60,45,2
2,67,45,0
2,72,45,0
2,60,45,2
2,67,45,0
2,72,45,0
2,60,45,2
2,67,45,0
2,72,45,0
2,62,45,290
2,69,45,0
2,74,45,0
2,55,45,242
2,62,45,0
2,67,45,0
2,71,45,0
2,55,45,2
2,62,45,0
2,67,45,0
2,71,45,0
2,55,45,2
2,62,45,0
2,67,45,0
2,71,45,0
2,55,45,2
2,62,45,0
2,67,45,0
2,71,45,0
2,62,45,578
2,69,45,0
2,74,45,0
2,62,45,2
2,69,45,0
2,74,45,0
2,55,45,674
2,62,45,0
2,67,45,0
2,55,45,2
