track,note,velocity,time
1,55,100,0
1,62,100,0
1,67,100,0
1,67,100,50
1,55,100,0
1,62,100,0
1,67,0,0
1,55,0,0
1,62,0,0
1,67,0,0
1,55,0,0
1,62,0,0
1,55,100,20
1,62,100,0
1,67,100,0
1,55,100,60
1,62,100,0
1,67,100,0
1,67,0,0
1,55,0,0
1,62,0,0
1,52,100,60
1,62,100,0
1,67,100,0
1,55,0,0
1,67,0,0
1,62,0,0
1,52,100,60
1,62,100,0
1,67,100,0
1,52,0,0
1,67,0,0
1,62,0,0
1,55,100,60
1,62,100,0
1,67,100,0
1,52,0,0
1,67,0,0
1,62,0,0
1,55,100,60
1,62,100,0
1,67,100,0
1,55,0,0
1,67,0,0
1,62,0,0
1,62,100,60
1,55,100,0
1,67,100,0
1,55,0,0
1,67,0,0
1,62,0,0
1,55,100,30
1,62,100,0
1,67,100,0
1,62,0,0
1,67,0,0
1,55,0,0
1,55,100,30
1,62,100,0
1,67,100,0
1,55,0,0
1,67,0,0
1,62,0,0
1,55,100,30
1,62,100,0
1,67,100,0
1,55,0,0
1,67,0,0
1,62,0,0
1,67,100,30
1,55,100,0
1,62,100,0
1,55,0,0
1,67,0,0
1,62,0,0
1,55,100,60
1,62,100,0
1,67,100,0
1,67,0,0
1,62,0,0
1,55,0,0
1,52,100,60
1,62,100,0
1,67,100,0
1,55,0,0
1,67,0,0
1,62,0,0
1,52,100,60
1,62,100,0
1,67,100,0
1,52,0,0
1,67,0,0
1,62,0,0
1,55,100,60
1,62,100,0
1,67,100,0
1,52,0,0
1,67,0,0
1,62,0,0
1,55,100,60
1,62,100,0
1,67,100,0
1,55,0,0
1,67,0,0
1,62,0,0
1,55,100,60
1,62,100,0
1,67,100,0
1,55,0,0
1,67,0,0
1,62,0,0
1,55,100,30
1,62,100,0
1,67,100,0
1,55,0,0
1,67,0,0
1,62,0,0
1,55,100,30
1,62,100,0
1,67,100,0
1,55,0,0
1,67,0,0
1,62,0,0
1,67,100,30
1,55,100,0
1,62,100,0
1,55,0,0
1,67,0,0
1,62,0,0
1,55,100,30
1,62,100,0
1,67,100,0
1,67,0,0
1,62,0,0
1,55,0,0
1,55,100,60
1,62,100,0
1,67,100,0
1,55,0,0
1,67,0,0
1,62,0,0
1,52,100,60
1,62,100,0
1,67,100,0
1,55,0,0
1,67,0,0
1,62,0,0
1,52,100,60
1,62,100,0
1,67,100,0
1,52,0,0
1,67,0,0
1,62,0,0
1,55,100,60
1,62,100,0
1,67,100,0
1,74,100,0
1,79,100,0
1,71,100,0
1,52,0,0
1,67,0,0
1,62,0,0
1,71,0,360
1,67,0,60
1,62,0,0
1,79,0,0
1,55,0,0
1,74,0,0
1,55,100,60
1,62,100,0
1,67,100,0
1,55,100,60
1,62,100,0
1,67,100,0
1,67,0,0
1,55,0,0
1,62,0,0
1,55,0,60
1,62,0,0
1,67,0,0
1,55,100,120
1,62,100,0
1,67,100,0
1,55,100,60
1,62,100,0
1,67,100,0
1,67,0,0
1,55,0,0
1,62,0,0
1,52,100,60
1,62,100,0
1,67,100,0
1,55,0,0
1,67,0,0
1,62,0,0
1,52,100,60
1,62,100,0
1,67,100,0
1,52,0,0
1,67,0,0
1,62,0,0
1,55,100,60
1,62,100,0
1,67,100,0
1,52,0,0
1,67,0,0
1,62,0,0
1,55,100,60
1,62,100,0
1,67,100,0
1,55,0,0
1,67,0,0
1,62,0,0
1,55,100,60
1,62,100,0
1,67,100,0
1,55,0,0
1,67,0,0
1,62,0,0
1,55,100,30
1,62,100,0
1,67,100,0
1,55,0,0
1,67,0,0
1,62,0,0
1,55,100,30
1,62,100,0
1,67,100,0
1,55,0,0
1,67,0,0
1,62,0,0
1,55,100,30
1,62,100,0
1,67,100,0
1,55,0,0
1,67,0,0
1,62,0,0
1,55,100,30
1,62,100,0
1,67,100,0
1,55,0,0
1,67,0,0
1,62,0,0
1,55,100,60
1,62,100,0
1,67,100,0
1,55,0,0
1,67,0,0
1,62,0,0
1,52,100,60
1,62,100,0
1,67,100,0
1,55,0,0
1,67,0,0
1,62,0,0
1,52,100,60
1,62,100,0
1,67,100,0
1,52,0,0
1,67,0,0
1,62,0,0
1,55,100,60
1,62,100,0
1,67,100,0
1,52,0,0
1,67,0,0
1,62,0,0
1,55,100,60
1,62,100,0
1,67,100,0
1,55,0,0
1,67,0,0
1,62,0,0
1,55,0,60
1,62,0,0
1,67,0,0
1,55,100,120
1,62,100,0
1,67,100,0
1,55,100,60
1,62,100,0
1,67,100,0
1,67,0,0
1,55,0,0
1,62,0,0
1,52,100,60
1,62,100,0
1,67,100,0
1,55,0,0
1,67,0,0
1,62,0,0
1,67,100,60
1,52,100,0
1,62,100,0
1,52,0,0
1,67,0,0
1,62,0,0
1,55,100,60
1,62,100,0
1,67,100,0
1,67,0,0
1,62,0,0
1,52,0,0
1,55,100,60
1,62,100,0
1,67,100,0
1,55,0,0
1,67,0,0
1,62,0,0
1,55,100,60
1,62,100,0
1,67,100,0
1,55,0,0
1,67,0,0
1,62,0,0
1,55,100,30
1,62,100,0
1,67,100,0
1,55,0,0
1,67,0,0
1,62,0,0
1,55,100,30
1,62,100,0
1,67,100,0
1,55,0,0
1,67,0,0
1,62,0,0
1,55,100,30
1,62,100,0
1,67,100,0
1,55,0,0
1,67,0,0
1,62,0,0
1,55,100,30
1,62,100,0
1,67,100,0
1,55,0,0
1,67,0,0
1,62,0,0
1,55,100,60
1,62,100,0
1,67,100,0
1,55,0,0
1,67,0,0
1,62,0,0
1,52,100,60
1,62,100,0
1,67,100,0
1,55,0,0
1,67,0,0
1,62,0,0
1,52,100,60
1,57,100,0
1,62,100,0
1,52,0,0
1,67,0,0
1,62,0,0
1,57,100,60
1,62,100,0
1,69,100,0
1,74,100,0
1,78,100,0
1,52,0,0
1,62,0,0
1,57,0,0
1,57,100,60
1,62,100,0
1,69,100,0
1,74,100,0
1,78,100,0
1,69,0,0
1,57,0,0
1,78,0,0
1,62,0,0
1,74,0,0
1,62,100,60
1,69,100,0
1,72,100,0
1,57,0,0
1,69,0,0
1,78,0,0
1,74,0,0
1,62,0,0
1,57,100,120
1,62,100,0
1,69,100,0
1,74,100,0
1,78,100,0
1,72,0,0
1,62,0,0
1,69,0,0
1,57,100,60
1,62,100,0
1,69,100,0
1,74,100,0
1,78,100,0
1,69,0,0
1,57,0,0
1,78,0,0
1,62,0,0
1,74,0,0
1,80,100,30
1,59,100,0
1,64,100,0
1,71,100,0
1,76,100,0
1,57,0,0
1,69,0,0
1,78,0,0
1,74,0,0
1,62,0,0
1,80,100,30
1,59,100,0
1,64,100,0
1,71,100,0
1,76,100,0
1,80,0,0
1,64,0,0
1,76,0,0
1,71,0,0
1,59,0,0
1,67,100,60
1,71,100,0
1,80,0,0
1,64,0,0
1,76,0,0
1,71,0,0
1,59,0,0
1,55,100,60
1,62,100,0
1,67,100,0
1,72,100,0
1,76,100,0
1,71,0,0
1,67,0,0
1,55,100,60
1,62,100,0
1,67,100,0
1,72,100,0
1,76,100,0
1,55,0,0
1,72,0,0
1,62,0,0
1,67,0,0
1,76,0,0
1,60,100,60
1,67,100,0
1,72,100,0
1,55,0,0
1,67,0,0
1,76,0,0
1,72,0,0
1,62,0,0
1,60,100,30
1,67,100,0
1,72,100,0
1,72,0,0
1,60,0,0
1,67,0,0
1,60,100,30
1,67,100,0
1,72,100,0
1,60,0,0
1,72,0,0
1,67,0,0
1,60,100,30
1,67,100,0
1,72,100,0
1,60,0,0
1,72,0,0
1,67,0,0
1,55,100,30
1,62,100,0
1,67,100,0
1,72,100,0
1,76,100,0
1,60,0,0
1,72,0,0
1,67,0,0
1,55,100,60
1,62,100,0
1,67,100,0
1,72,100,0
1,76,100,0
1,67,0,0
1,55,0,0
1,76,0,0
1,62,0,0
1,72,0,0
1,57,100,30
1,55,0,0
1,67,0,0
1,72,0,0
1,76,0,0
1,62,0,0
1,57,100,30
1,64,100,0
1,69,100,0
1,57,0,0
1,55,100,120
1,62,100,0
1,67,100,0
1,57,0,0
1,69,0,0
1,64,0,0
1,55,100,60
1,62,100,0
1,67,100,0
1,55,0,0
1,67,0,0
1,62,0,0
1,55,100,60
1,62,100,0
1,67,100,0
1,55,0,0
1,67,0,0
1,62,0,0
1,55,100,120
1,62,100,0
1,67,100,0
1,55,0,0
1,67,0,0
1,62,0,0
1,55,100,60
1,62,100,0
1,67,100,0
1,55,0,0
1,67,0,0
1,62,0,0
1,52,100,60
1,62,100,0
1,67,100,0
1,55,0,0
1,67,0,0
1,62,0,0
1,52,100,60
1,62,100,0
1,67,100,0
1,52,0,0
1,67,0,0
1,62,0,0
1,55,100,60
1,62,100,0
1,67,100,0
1,71,100,0
1,74,100,0
1,79,100,0
1,52,0,0
1,67,0,0
1,62,0,0
1,71,0,360
1,67,0,0
1,62,0,0
1,79,0,0
1,55,0,0
1,74,0,0
1,55,100,120
1,62,100,0
1,67,100,0
1,55,100,60
1,62,100,0
1,67,100,0
1,67,0,0
1,55,0,0
1,62,0,0
1,55,0,60
1,62,0,0
1,67,0,0
1,55,100,120
1,62,100,0
1,67,100,0
1,55,100,60
1,62,100,0
1,67,100,0
1,67,0,0
1,55,0,0
1,62,0,0
1,52,100,60
1,62,100,0
1,67,100,0
1,55,0,0
1,67,0,0
1,62,0,0
1,52,100,60
1,62,100,0
1,67,100,0
1,52,0,0
1,67,0,0
1,62,0,0
1,55,100,60
1,62,100,0
1,67,100,0
1,52,0,0
1,67,0,0
1,62,0,0
1,55,100,60
1,62,100,0
1,67,100,0
1,55,0,0
1,67,0,0
1,62,0,0
1,55,0,60
1,62,0,0
1,67,0,0
1,55,100,120
1,62,100,0
1,67,100,0
1,55,100,60
1,62,100,0
1,67,100,0
1,67,0,0
1,55,0,0
1,62,0,0
1,52,100,60
1,62,100,0
1,67,100,0
1,55,0,0
1,67,0,0
1,62,0,0
1,52,100,60
1,62,100,0
1,67,100,0
1,52,0,0
1,67,0,0
1,62,0,0
1,55,100,60
1,62,100,0
1,67,100,0
1,52,0,0
1,67,0,0
1,62,0,0
1,55,100,60
1,62,100,0
1,67,100,0
1,55,0,0
1,67,0,0
1,62,0,0
1,55,0,60
1,62,0,0
1,67,0,0
1,55,100,120
1,62,100,0
1,67,100,0
1,55,100,60
1,62,100,0
1,67,100,0
1,67,0,0
1,55,0,0
1,62,0,0
1,52,100,60
1,62,100,0
1,67,100,0
1,55,0,0
1,67,0,0
1,62,0,0
1,52,100,60
1,62,100,0
1,67,100,0
1,52,0,0
1,67,0,0
1,62,0,0
1,55,100,60
1,62,100,0
1,67,100,0
1,52,0,0
1,67,0,0
1,62,0,0
1,55,100,60
1,62,100,0
1,67,100,0
1,55,0,0
1,67,0,0
1,62,0,0
1,55,0,60
1,62,0,0
1,67,0,0
1,55,100,120
1,62,100,0
1,67,100,0
1,55,100,60
1,62,100,0
1,67,100,0
1,67,0,0
1,55,0,0
1,62,0,0
1,81,100,60
1,69,100,0
1,55,0,0
1,67,0,0
1,62,0,0
1,62,100,60
1,74,100,0
1,81,0,0
1,69,0,0
1,57,100,60
1,62,100,0
1,69,100,0
1,74,100,0
1,78,100,0
1,62,0,0
1,74,0,0
1,57,100,60
1,62,100,0
1,69,100,0
1,74,100,0
1,78,100,0
1,57,0,0
1,74,0,0
1,62,0,0
1,69,0,0
1,78,0,0
1,57,0,60
1,74,0,0
1,78,0,0
1,62,0,0
1,69,0,0
1,57,100,120
1,62,100,0
1,69,100,0
1,74,100,0
1,78,100,0
1,57,100,60
1,62,100,0
1,69,100,0
1,74,100,0
1,78,100,0
1,78,0,0
1,74,0,0
1,57,0,0
1,69,0,0
1,62,0,0
1,59,100,60
1,64,100,0
1,71,100,0
1,76,100,0
1,80,100,0
1,57,0,0
1,69,0,0
1,78,0,0
1,74,0,0
1,62,0,0
1,59,0,60
1,76,0,0
1,80,0,0
1,64,0,0
1,71,0,0
1,55,100,60
1,60,100,0
1,67,100,0
1,72,100,0
1,76,100,0
1,55,100,60
1,60,100,0
1,67,100,0
1,72,100,0
1,76,100,0
1,76,0,0
1,72,0,0
1,55,0,0
1,67,0,0
1,60,0,0
1,55,0,60
1,72,0,0
1,76,0,0
1,60,0,0
1,67,0,0
1,55,100,120
1,60,100,0
1,67,100,0
1,72,100,0
1,76,100,0
1,55,100,60
1,60,100,0
1,67,100,0
1,72,100,0
1,76,100,0
1,76,0,0
1,72,0,0
1,55,0,0
1,67,0,0
1,60,0,0
1,57,100,60
1,64,100,0
1,69,100,0
1,55,0,0
1,67,0,0
1,76,0,0
1,72,0,0
1,60,0,0
1,57,100,60
1,64,100,0
1,69,100,0
1,69,0,0
1,57,0,0
1,64,0,0
1,57,100,30
1,64,100,0
1,69,100,0
1,57,0,0
1,69,0,0
1,64,0,0
1,55,100,30
1,62,100,0
1,67,100,0
1,57,0,0
1,69,0,0
1,64,0,0
1,55,100,60
1,62,100,0
1,67,100,0
1,55,0,0
1,67,0,0
1,62,0,0
1,55,0,60
1,62,0,0
1,67,0,0
1,55,100,120
1,62,100,0
1,67,100,0
1,55,100,60
1,62,100,0
1,67,100,0
1,67,0,0
1,55,0,0
1,62,0,0
1,52,100,60
1,62,100,0
1,67,100,0
1,55,0,0
1,67,0,0
1,62,0,0
1,52,100,60
1,62,100,0
1,67,100,0
1,52,0,0
1,67,0,0
1,62,0,0
1,55,100,60
1,62,100,0
1,67,100,0
1,52,0,0
1,67,0,0
1,62,0,0
1,55,100,60
1,62,100,0
1,67,100,0
1,55,0,0
1,67,0,0
1,62,0,0
1,55,0,60
1,62,0,0
1,67,0,0
1,55,100,120
1,62,100,0
1,67,100,0
1,55,100,60
1,62,100,0
1,67,100,0
1,67,0,0
1,55,0,0
1,62,0,0
1,76,100,60
1,64,100,0
1,55,0,0
1,67,0,0
1,62,0,0
1,76,100,60
1,64,100,0
1,76,0,0
1,64,0,0
1,57,100,60
1,62,100,0
1,69,100,0
1,74,100,0
1,78,100,0
1,76,0,0
1,64,0,0
1,57,100,60
1,62,100,0
1,69,100,0
1,74,100,0
1,78,100,0
1,57,0,0
1,74,0,0
1,62,0,0
1,69,0,0
1,78,0,0
1,57,0,60
1,74,0,0
1,78,0,0
1,62,0,0
1,69,0,0
1,57,100,120
1,62,100,0
1,69,100,0
1,74,100,0
1,78,100,0
1,57,100,60
1,62,100,0
1,69,100,0
1,74,100,0
1,78,100,0
1,78,0,0
1,74,0,0
1,57,0,0
1,69,0,0
1,62,0,0
1,80,100,60
1,59,100,0
1,64,100,0
1,71,100,0
1,76,100,0
1,57,0,0
1,69,0,0
1,78,0,0
1,74,0,0
1,62,0,0
1,64,100,60
1,76,100,0
1,80,0,0
1,64,0,0
1,76,0,0
1,71,0,0
1,59,0,0
1,55,100,60
1,60,100,0
1,67,100,0
1,72,100,0
1,76,100,0
1,76,0,0
1,64,0,0
1,55,100,60
1,60,100,0
1,67,100,0
1,72,100,0
1,76,100,0
1,55,0,0
1,72,0,0
1,60,0,0
1,67,0,0
1,76,0,0
1,55,0,60
1,72,0,0
1,76,0,0
1,60,0,0
1,67,0,0
1,55,100,120
1,60,100,0
1,67,100,0
1,72,100,0
1,76,100,0
1,55,100,60
1,60,100,0
1,67,100,0
1,72,100,0
1,76,100,0
1,76,0,0
1,72,0,0
1,55,0,0
1,67,0,0
1,60,0,0
1,57,100,60
1,64,100,0
1,69,100,0
1,55,0,0
1,67,0,0
1,76,0,0
1,72,0,0
1,60,0,0
1,57,100,60
1,64,100,0
1,69,100,0
1,69,0,0
1,57,0,0
1,64,0,0
1,55,100,60
1,62,100,0
1,67,100,0
1,57,0,0
1,69,0,0
1,64,0,0
1,55,100,60
1,62,100,0
1,67,100,0
1,55,0,0
1,67,0,0
1,62,0,0
1,55,0,60
1,62,0,0
1,67,0,0
1,55,100,120
1,62,100,0
1,67,100,0
1,55,100,60
1,62,100,0
1,67,100,0
1,67,0,0
1,55,0,0
1,62,0,0
1,52,100,60
