track,note,velocity,time
0,52,72,214
0,57,125,0
0,61,63,0
0,64,63,0
0,69,55,0
0,69,63,0
0,45,113,4
0,57,115,22
0,64,109,188
0,64,114,58
0,52,74,4
0,57,81,164
0,61,90,4
0,64,99,176
0,69,116,192
0,45,107,0
0,52,77,4
0,57,107,2
0,57,115,84
0,64,107,196
0,64,117,40
0,57,83,202
0,61,103,2
0,64,110,180
0,69,95,150
0,52,94,0
0,52,116,4
0,57,112,0
0,45,112,2
0,57,115,22
0,64,97,188
0,64,114,58
0,52,90,4
0,57,101,164
0,61,99,4
0,64,99,176
0,69,108,8
0,45,107,0
0,52,77,4
0,57,107,2
0,57,114,84
0,64,95,196
0,64,112,40
0,52,84,4
0,57,83,42
0,61,103,2
0,64,110,2
0,69,95,150
0,52,94,4
0,69,55,174
0,61,63,0
0,69,63,0
0,64,63,2
0,52,116,2
0,57,112,0
0,45,112,4
0,57,115,22
0,76,99,18
0,64,97,170
0,76,99,8
0,64,114,50
0,52,90,4
0,74,97,24
0,57,101,156
0,61,99,4
0,64,99,176
0,73,94,82
0,69,108,8
0,45,107,0
0,52,77,4
0,57,107,2
0,71,94,28
0,57,114,84
0,66,55,148
0,73,91,32
0,62,63,2
0,66,63,0
0,59,63,2
0,64,95,0
0,64,112,40
0,71,99,12
0,64,55,120
0,57,63,0
0,61,63,0
0,64,63,2
0,52,84,2
0,57,83,162
0,61,103,2
0,69,95,0
0,62,55,24
0,64,110,0
0,59,63,2
0,62,63,0
0,55,63,10
0,69,95,138
0,50,112,4
0,57,63,0
0,57,112,0
0,62,116,0
0,54,63,4
0,62,73,0
0,62,55,4
0,57,115,22
0,69,95,128
0,69,97,60
0,69,96,52
0,66,114,2
0,54,70,36
0,69,95,2
0,57,95,162
0,62,99,176
0,66,112,94
0,69,89,0
0,50,95,4
0,62,88,0
0,69,97,54
0,57,115,104
0,69,97,18
0,69,96,14
0,66,114,58
0,68,94,26
0,54,84,132
0,66,97,140
0,57,101,24
0,62,99,176
0,66,108,192
0,64,55,104
0,40,112,4
0,47,112,0
0,56,63,0
0,59,63,0
0,64,63,0
0,64,116,0
0,59,115,22
0,64,95,28
0,64,112,58
0,56,80,188
0,59,95,164
0,64,99,176
0,56,102,26
0,52,101,170
0,64,88,0
0,59,108,196
0,62,55,126
0,54,63,20
0,57,63,0
0,62,63,0
0,64,90,6
0,64,114,58
0,61,55,126
0,61,63,26
0,52,63,2
0,56,63,0
0,56,84,2
0,59,101,164
0,59,55,140
0,54,63,0
0,50,63,2
0,59,63,4
0,64,99,2
0,66,94,182
0,68,108,8
0,57,55,138
0,57,63,0
0,49,63,0
0,52,63,0
0,52,96,2
0,57,102,0
0,45,105,2
0,66,96,2
0,57,103,22
0,64,98,56
0,64,97,88
0,64,114,58
0,52,90,4
0,57,101,164
0,61,99,4
0,64,99,176
0,69,108,8
0,64,88,4
0,40,101,2
0,52,91,0
0,59,107,0
0,59,108,90
0,64,90,28
0,64,114,58
0,56,84,188
0,59,101,164
0,64,99,176
0,76,101,166
0,68,108,26
0,52,116,4
0,57,112,0
0,61,63,0
0,69,63,0
0,76,104,0
0,64,63,2
0,45,112,2
0,57,115,22
0,64,97,52
0,76,101,2
0,64,114,58
0,74,100,44
0,52,90,4
0,57,101,164
0,61,99,4
0,64,99,176
0,73,99,116
0,69,108,8
0,45,107,0
0,71,101,2
0,52,77,2
0,57,107,2
0,57,114,84
0,73,99,0
0,66,55,8
0,62,63,0
0,66,63,0
0,59,63,0
0,64,95,0
0,71,103,4
0,64,112,6
0,64,55,162
0,57,63,0
0,61,63,0
0,64,63,2
0,52,84,2
0,69,100,152
0,57,83,6
0,61,103,2
0,62,55,24
0,64,110,0
0,59,63,2
0,62,63,0
0,55,63,10
0,69,95,138
0,52,94,4
0,50,112,4
0,57,63,0
0,57,112,0
0,62,116,0
0,54,63,4
0,62,73,0
0,62,55,4
0,57,115,22
0,69,102,8
0,69,97,180
0,69,100,68
0,66,114,58
0,69,101,62
0,54,70,10
0,57,95,164
0,62,99,176
0,69,91,92
0,66,112,22
0,69,96,42
0,50,95,4
0,62,88,0
0,69,101,24
0,57,115,104
0,69,97,12
0,69,97,24
0,66,114,58
0,68,94,60
0,54,84,76
0,57,101,164
0,66,91,8
0,62,99,136
0,66,108,192
0,64,55,90
0,40,112,4
0,47,112,0
0,56,63,0
0,59,63,0
0,64,63,0
0,64,116,0
0,59,115,22
0,64,95,28
0,64,112,58
0,64,95,22
0,56,80,166
0,59,95,164
0,64,99,176
0,56,102,26
0,52,101,170
0,64,88,0
0,59,108,174
0,62,55,126
0,54,63,20
0,57,63,0
0,62,63,0
0,64,90,6
0,64,114,58
0,61,55,126
0,61,63,26
0,52,63,2
0,56,63,0
0,56,84,2
0,59,101,164
0,59,55,140
0,54,63,0
0,50,63,2
0,59,63,4
0,64,99,2
0,64,102,190
0,68,108,0
0,57,55,138
0,57,63,0
0,49,63,0
0,52,63,0
0,52,96,2
0,57,102,0
0,45,105,4
0,66,99,10
0,57,103,22
0,69,99,78
0,64,97,86
0,69,95,12
0,64,114,46
0,52,90,4
0,57,101,164
0,61,99,4
0,64,99,176
0,69,108,8
0,64,88,4
0,40,101,2
0,52,91,0
0,59,107,0
0,59,108,90
0,64,90,28
0,64,114,58
0,56,84,188
0,59,101,164
0,64,99,176
0,71,98,190
0,68,108,2
0,36,105,4
0,40,107,0
0,42,73,0
0,45,89,0
0,45,107,0
0,57,47,0
0,61,83,0
0,57,83,2
0,64,83,0
0,52,121,2
0,71,101,2
0,57,118,4
0,61,83,22
0,73,98,0
0,42,48,2
0,64,83,0
0,64,86,0
0,73,97,0
0,61,83,2
0,64,83,0
0,37,114,2
0,42,65,0
0,52,109,0
0,57,113,6
0,61,117,8
0,64,127,2
0,73,96,12
0,61,83,2
0,64,83,0
0,36,90,2
0,42,57,0
0,45,89,0
0,64,122,0
0,61,120,2
0,57,108,2
0,73,98,6
0,61,82,2
0,64,82,0
0,36,103,2
0,40,89,0
0,42,73,0
0,45,112,0
0,52,112,0
0,57,112,0
0,61,82,2
0,64,82,0
0,73,98,0
0,42,56,2
0,64,122,0
0,37,111,4
0,42,70,0
0,45,89,0
0,52,104,0
0,57,113,0
0,61,117,4
0,64,126,4
0,73,101,6
0,61,82,4
0,64,82,0
0,40,89,2
0,42,54,0
0,64,115,0
0,61,115,2
0,57,108,4
0,73,102,0
0,61,82,0
0,64,82,2
0,36,103,2
0,40,107,0
0,42,73,0
0,45,89,0
0,45,107,0
0,52,121,4
0,57,118,4
0,73,101,22
0,61,82,2
0,64,82,2
0,42,54,2
0,64,86,0
0,73,100,2
0,61,82,2
0,64,82,0
0,37,109,2
0,42,70,0
0,52,109,0
0,57,113,6
0,61,117,8
0,64,127,2
0,73,100,10
0,61,82,0
0,64,82,2
0,36,90,2
0,42,51,0
0,45,89,0
0,64,122,0
0,61,120,2
0,57,108,2
0,71,96,154
0,62,82,0
0,36,103,2
0,40,89,0
0,42,73,0
0,45,112,0
0,52,112,0
0,57,112,0
0,69,98,0
0,61,82,0
0,64,82,0
0,42,50,2
0,64,122,0
0,37,114,4
0,42,57,0
0,45,89,0
0,52,104,0
0,57,113,0
0,61,117,8
0,64,126,4
0,69,88,2
0,61,82,2
0,64,82,0
0,40,89,2
0,42,62,0
0,64,115,0
0,61,115,2
0,57,108,4
0,74,104,18
0,66,82,2
0,36,102,2
0,38,89,0
0,42,73,0
0,45,107,0
0,50,107,0
0,62,82,0
0,54,108,4
0,57,117,4
0,74,100,16
0,62,81,6
0,42,48,4
0,66,85,0
0,74,102,22
0,62,81,2
0,66,81,0
0,37,114,2
0,42,65,0
0,54,96,0
0,57,112,6
0,62,117,8
0,66,126,2
0,74,100,10
0,62,81,0
0,66,81,0
0,36,81,4
0,38,89,0
0,42,70,0
0,66,121,0
0,62,120,2
0,57,107,2
0,74,103,18
0,62,81,0
0,66,81,0
0,33,89,4
0,36,103,0
0,42,70,0
0,45,112,0
0,54,99,0
0,57,111,0
0,74,102,20
0,62,81,0
0,66,81,0
0,42,70,4
0,66,121,0
0,74,101,2
0,37,111,4
0,38,89,0
0,42,70,0
0,54,91,0
0,66,81,0
0,62,81,2
0,57,112,0
0,62,117,0
0,66,125,4
0,74,100,6
0,33,89,6
0,42,70,0
0,66,81,0
0,66,114,0
0,62,81,2
0,62,115,2
0,57,107,4
0,66,81,0
0,74,101,0
0,62,81,0
0,36,103,0
0,38,89,0
0,42,61,0
0,50,107,0
0,54,108,4
0,57,117,4
0,74,103,18
0,66,81,8
0,62,81,2
0,42,70,2
0,66,85,0
0,74,104,14
0,62,81,2
0,66,81,0
0,37,109,2
0,42,70,0
0,54,96,0
0,57,112,6
0,62,117,8
0,66,126,2
0,74,104,8
0,62,81,2
0,66,81,0
0,36,91,2
0,38,89,0
0,42,65,0
0,66,121,0
0,62,120,2
0,57,107,2
0,74,103,16
0,66,81,0
0,62,81,2
0,33,89,2
0,36,103,0
0,42,73,0
0,50,112,0
0,54,99,0
0,57,111,0
0,42,61,4
0,66,121,0
0,62,81,0
0,66,81,0
0,37,114,4
0,38,89,0
0,42,73,0
0,54,91,0
0,74,99,0
0,57,112,0
0,62,117,8
0,66,125,4
0,74,102,8
0,62,80,2
0,66,80,0
0,39,89,2
0,42,62,0
0,66,114,0
0,62,115,2
0,57,107,4
0,42,57,76
0,76,106,0
0,64,80,2
0,68,80,0
0,36,103,2
0,40,89,0
0,40,107,0
0,42,73,0
0,47,107,0
0,59,80,2
0,52,121,2
0,56,118,4
0,76,100,20
0,64,80,6
0,68,80,0
0,42,48,2
0,64,86,0
0,76,99,16
0,64,80,2
0,68,80,0
0,37,114,2
0,42,65,0
0,52,109,0
0,56,113,6
0,59,117,8
0,64,127,2
0,76,99,10
0,64,80,2
0,68,80,0
0,36,90,2
0,40,89,0
0,42,57,0
0,64,122,0
0,59,120,2
0,56,108,2
0,76,98,2
0,64,80,2
0,68,80,0
0,35,89,2
0,36,103,0
0,42,73,0
0,47,112,0
0,52,112,0
0,56,112,0
0,42,56,4
0,64,122,0
0,64,80,2
0,68,80,0
0,37,111,2
0,40,89,0
0,42,70,0
0,52,104,0
0,76,99,0
0,56,113,0
0,59,117,8
0,64,126,4
0,76,99,4
0,68,80,4
0,64,80,2
0,35,89,2
0,42,54,0
0,64,115,0
0,59,115,2
0,56,108,4
0,76,99,18
0,64,80,2
0,68,80,0
0,36,103,2
0,40,89,0
0,42,73,0
0,47,107,0
0,52,121,4
0,56,118,4
0,76,99,16
0,64,80,8
0,68,80,0
0,42,54,4
0,64,86,0
0,76,99,20
0,64,80,2
0,68,80,0
0,37,109,2
0,42,70,0
0,52,109,0
0,56,113,6
0,59,117,8
0,64,127,2
0,76,99,8
0,64,80,2
0,68,80,0
0,36,90,2
0,40,89,0
0,42,51,0
0,64,122,0
0,59,120,2
0,56,108,2
0,76,105,20
0,64,79,2
0,68,79,0
0,35,89,2
0,36,103,0
0,42,73,0
0,47,112,0
0,52,112,0
0,56,112,0
0,42,50,4
0,64,122,0
0,37,114,4
0,40,89,0
0,42,57,0
0,52,104,0
0,56,113,0
0,59,117,8
0,64,126,4
0,74,104,2
0,42,62,10
0,44,89,0
0,57,79,0
0,62,79,0
0,64,115,0
0,66,79,0
0,59,115,2
0,56,108,4
0,36,102,4
0,40,107,0
0,42,73,0
0,45,89,0
0,45,107,0
0,62,79,0
0,66,79,0
0,74,102,0
0,52,121,4
0,57,118,4
0,42,48,12
0,61,79,0
0,64,79,0
0,64,86,0
0,73,100,0
0,37,114,4
0,42,65,0
0,52,109,0
0,57,113,6
0,61,117,8
0,64,127,2
0,36,81,4
0,42,70,0
0,45,89,0
0,64,122,0
0,61,120,2
0,57,108,2
0,44,45,2
0,57,91,0
0,61,91,0
0,64,91,0
0,69,91,0
0,73,91,0
0,57,72,52
0,61,72,0
0,64,72,0
0,69,72,0
0,73,72,0
0,44,40,100
0,44,40,376
0,57,90,0
0,61,90,0
0,64,90,0
0,69,90,0
0,73,90,0
0,57,71,52
0,61,71,0
0,64,71,0
0,69,71,0
0,73,71,0
0,44,43,86
0,57,90,0
0,61,90,0
0,64,90,0
0,69,90,0
0,73,90,0
0,57,72,52
0,61,72,0
0,64,72,0
0,69,72,0
0,73,72,0
0,44,40,114
0,57,90,0
0,61,90,0
0,64,90,0
0,69,90,0
0,73,90,0
0,38,89,52
0,42,61,0
0,47,112,0
0,50,108,0
0,52,75,0
0,52,112,0
0,57,72,0
0,61,72,0
0,64,75,0
0,64,72,0
0,64,122,0
0,69,72,0
0,73,72,0
0,37,89,2
0,42,73,0
0,47,103,0
0,52,104,0
0,56,113,0
0,59,117,8
0,64,126,4
0,35,89,4
0,43,103,0
0,46,52,0
0,64,115,0
0,59,115,2
0,56,108,4
0,33,89,4
0,36,103,0
0,40,107,0
0,45,107,0
0,53,55,0
0,57,83,0
0,57,47,0
0,61,83,0
0,64,77,0
0,64,83,0
0,73,101,0
0,73,77,0
0,52,121,4
0,57,118,4
0,53,53,26
0,61,83,0
0,64,83,0
0,64,86,0
0,73,98,0
0,37,114,4
0,52,109,0
0,53,55,0
0,61,83,0
0,64,83,0
0,73,97,0
0,57,113,6
0,61,117,8
0,64,127,2
0,36,90,20
0,45,89,0
0,53,52,0
0,61,83,0
0,64,83,0
0,64,122,0
0,61,120,2
0,57,108,2
0,73,98,6
0,36,103,4
0,40,89,0
0,45,112,0
0,52,112,0
0,53,55,0
0,57,112,0
0,61,82,0
0,64,82,0
0,53,53,4
0,64,122,0
0,37,111,4
0,45,89,0
0,52,104,0
0,53,55,0
0,61,82,0
0,64,82,0
0,73,102,0
0,57,113,0
0,61,117,4
0,64,126,4
0,73,101,20
0,40,89,6
0,53,55,0
0,61,82,0
0,64,82,0
0,64,115,0
0,61,115,2
0,57,108,4
0,33,89,4
0,36,103,0
0,40,107,0
0,45,107,0
0,53,55,0
0,61,82,0
0,64,82,0
0,52,121,4
0,57,118,4
0,73,101,20
0,53,53,6
0,61,82,0
0,64,82,0
0,64,86,0
0,73,100,2
0,37,109,4
0,52,109,0
0,53,55,0
0,61,82,0
0,64,82,0
0,57,113,6
0,61,117,8
0,64,127,2
0,73,100,10
0,36,90,4
0,45,89,0
0,53,52,0
0,61,82,0
0,64,82,0
0,64,122,0
0,61,120,2
0,57,108,2
0,71,96,154
0,36,103,4
0,40,89,0
0,45,112,0
0,52,112,0
0,53,55,0
0,57,112,0
0,62,82,0
0,69,98,0
0,53,53,0
0,61,82,0
0,64,82,0
0,64,122,0
0,37,114,4
0,45,89,0
0,52,104,0
0,53,55,0
0,57,113,0
0,61,117,8
0,64,126,4
0,69,88,2
0,40,89,4
0,53,55,0
0,61,82,0
0,64,82,0
0,64,115,0
0,61,115,2
0,57,108,10
0,74,104,16
0,36,102,4
0,38,89,0
0,45,107,0
0,50,107,0
0,53,55,0
0,62,82,0
0,66,69,0
0,66,82,0
0,74,69,0
0,54,108,1
0,57,117,4
0,74,100,16
0,53,53,10
0,62,81,0
0,66,85,0
0,74,102,18
0,37,114,4
0,53,55,0
0,54,96,0
0,62,81,0
0,66,81,0
0,57,112,6
0,62,117,8
0,66,126,2
0,74,100,10
0,36,81,10
0,38,89,0
0,53,52,0
0,62,81,0
0,66,81,0
0,66,121,0
0,62,120,2
0,57,107,2
0,74,103,14
0,33,89,4
0,36,103,0
0,45,112,0
0,53,55,0
0,54,99,0
0,57,111,0
0,62,81,0
0,66,81,0
0,74,102,16
0,53,53,4
0,62,81,0
0,66,81,0
0,66,121,0
0,74,101,0
0,37,111,4
0,38,89,0
0,53,55,0
0,54,91,0
0,62,81,0
0,66,81,0
0,57,112,0
0,62,117,0
0,66,125,4
0,74,100,20
0,33,89,6
0,53,55,0
0,62,81,0
0,66,81,0
0,66,114,0
0,62,115,2
0,57,107,4
0,74,101,0
0,36,103,0
0,38,89,0
0,50,107,0
0,53,55,0
0,62,81,0
0,66,81,0
