track,note,velocity,time
2,36,127,32632
2,36,127,189
2,36,127,113
2,36,127,169
2,36,127,142
2,36,127,115
2,36,127,135
2,36,127,113
2,36,127,121
2,36,127,161
2,36,127,125
2,36,127,114
2,36,127,140
2,36,127,140
2,36,127,115
2,36,127,148
2,36,127,144
2,36,127,123
2,36,127,159
2,36,127,128
2,36,127,120
2,36,127,167
2,36,127,139
2,36,127,124
2,36,127,323
2,36,127,189
2,36,127,113
2,36,127,169
2,36,127,142
2,36,127,115
2,36,127,135
2,36,127,113
2,36,127,121
2,36,127,161
2,36,127,125
2,36,127,114
2,36,127,140
2,36,127,140
2,36,127,115
2,36,127,148
2,36,127,144
2,36,127,123
2,36,127,159
2,36,127,128
2,36,127,120
2,36,127,167
2,36,127,139
2,36,127,124
2,36,127,323
2,36,127,189
2,36,127,113
2,36,127,169
2,36,127,142
2,36,127,115
2,36,127,135
2,36,127,113
2,36,127,121
2,36,127,161
2,36,127,125
2,36,127,114
2,36,127,140
2,36,127,140
2,36,127,115
2,36,127,148
2,36,127,144
2,36,127,123
2,36,127,159
2,36,127,128
2,36,127,120
2,36,127,167
2,36,127,139
2,36,127,124
2,36,127,323
2,36,127,189
2,36,127,113
2,36,127,169
2,36,127,142
2,36,127,115
2,36,127,135
2,36,127,113
2,36,127,121
2,36,127,161
2,36,127,125
2,36,127,114
2,36,127,140
2,36,127,140
2,36,127,115
2,36,127,148
2,36,127,144
2,36,127,123
2,36,127,159
2,36,127,128
2,36,127,120
2,36,127,167
2,36,127,139
2,36,127,124
2,36,127,323
2,36,127,189
2,36,127,113
2,36,127,169
2,36,127,142
2,36,127,115
2,36,127,135
2,36,127,113
2,36,127,121
2,36,127,161
2,36,127,125
2,36,127,114
2,36,127,140
2,36,127,140
2,36,127,115
2,36,127,148
2,36,127,144
2,36,127,123
2,36,127,159
2,36,127,128
2,36,127,120
2,36,127,167
2,36,127,139
2,36,127,124
2,36,127,323
2,36,127,189
2,36,127,113
2,36,127,169
2,36,127,142
2,36,127,115
2,36,127,135
2,36,127,113
2,36,127,121
2,36,127,161
2,36,127,125
2,36,127,114
2,36,127,140
2,36,127,140
2,36,127,115
2,36,127,148
2,36,127,144
2,36,127,123
2,36,127,159
2,36,127,128
2,36,127,120
2,36,127,167
2,36,127,139
2,36,127,124
2,36,127,323
2,36,127,189
2,36,127,113
2,36,127,169
2,36,127,142
2,36,127,115
2,36,127,135
2,36,127,113
2,36,127,121
2,36,127,161
2,36,127,125
2,36,127,114
2,36,127,140
2,36,127,140
2,36,127,115
2,36,127,148
2,36,127,144
2,36,127,123
2,36,127,159
2,36,127,128
2,36,127,120
2,36,127,167
2,36,127,139
2,36,127,124
2,36,127,323
2,36,127,189
2,36,127,113
2,36,127,169
2,36,127,142
2,36,127,115
2,36,127,135
2,36,127,113
2,36,127,121
2,36,127,161
2,36,127,125
2,36,127,114
2,36,127,240
2,36,127,4704
2,36,127,189
2,36,127,113
2,36,127,169
2,36,127,142
2,36,127,115
2,36,127,135
2,36,127,113
2,36,127,121
2,36,127,161
2,36,127,125
2,36,127,114
2,36,127,140
2,36,127,140
2,36,127,115
2,36,127,148
2,36,127,144
2,36,127,123
2,36,127,159
2,36,127,128
2,36,127,120
2,36,127,167
2,36,127,139
2,36,127,124
2,36,127,323
2,36,127,189
2,36,127,113
2,36,127,169
2,36,127,142
2,36,127,115
2,36,127,135
2,36,127,113
2,36,127,121
2,36,127,161
2,36,127,125
2,36,127,114
2,36,127,140
2,36,127,140
2,36,127,115
2,36,127,148
2,36,127,144
2,36,127,123
2,36,127,159
2,36,127,128
2,36,127,120
2,36,127,167
2,36,127,139
2,36,127,124
2,36,127,323
2,36,127,189
2,36,127,113
2,36,127,169
2,36,127,142
2,36,127,115
2,36,127,135
2,36,127,113
2,36,127,121
2,36,127,161
2,36,127,125
2,36,127,114
2,36,127,140
2,36,127,140
2,36,127,115
2,36,127,148
2,36,127,144
2,36,127,123
2,36,127,159
2,36,127,128
2,36,127,120
2,36,127,167
2,36,127,139
2,36,127,124
2,36,127,323
2,36,127,189
2,36,127,113
2,36,127,169
2,36,127,142
2,36,127,115
2,36,127,135
2,36,127,113
2,36,127,121
2,36,127,161
2,36,127,125
2,36,127,114
2,36,127,140
2,36,127,140
2,36,127,115
2,36,127,148
2,36,127,144
2,36,127,123
2,36,127,159
2,36,127,128
2,36,127,120
2,36,127,167
2,36,127,139
2,36,127,124
2,36,127,323
2,36,127,189
2,36,127,113
2,36,127,169
2,36,127,142
2,36,127,115
2,36,127,135
2,36,127,113
2,36,127,121
2,36,127,161
2,36,127,125
2,36,127,114
2,36,127,140
2,36,127,140
2,36,127,115
2,36,127,148
2,36,127,144
2,36,127,123
2,36,127,159
2,36,127,128
2,36,127,120
2,36,127,167
2,36,127,139
2,36,127,124
3,37,110,33012
3,37,110,544
3,37,110,527
3,37,110,540
3,37,110,601
3,37,110,589
3,37,110,581
3,37,110,571
3,37,110,584
3,37,110,578
3,37,110,597
3,37,110,591
3,37,110,596
3,37,110,594
3,37,110,372
3,37,110,616
3,37,110,645
3,37,110,544
3,37,110,527
3,37,110,540
3,37,110,601
3,37,110,589
3,37,110,581
3,37,110,571
3,37,110,584
3,37,110,578
3,37,110,597
3,37,110,591
3,37,110,596
3,37,110,594
3,37,110,619
3,37,110,616
3,37,110,645
3,37,110,544
3,37,110,527
3,37,110,540
3,37,110,601
3,37,110,589
3,37,110,581
3,37,110,571
3,37,110,584
3,37,110,578
3,37,110,597
3,37,110,591
3,37,110,596
3,37,110,594
3,37,110,619
3,37,110,616
3,37,110,645
3,37,110,544
3,37,110,527
3,37,110,540
3,37,110,601
3,37,110,589
3,37,110,581
3,37,110,571
3,37,110,584
3,37,110,578
3,37,110,597
3,37,110,591
3,37,110,596
3,37,110,594
3,37,104,427
3,37,110,191
3,37,95,424
3,37,110,96
3,37,110,645
3,37,110,544
3,37,110,527
3,37,110,540
3,37,110,601
3,37,110,589
3,37,110,581
3,37,110,571
3,37,110,584
3,37,110,578
3,37,110,597
3,37,110,591
3,37,110,596
3,37,110,594
3,37,110,619
3,37,110,616
3,37,110,645
3,37,110,544
3,37,110,527
3,37,110,540
3,37,110,601
3,37,110,589
3,37,110,581
3,37,110,571
3,37,110,584
3,37,110,578
3,37,110,597
3,37,110,591
3,37,110,596
3,37,110,594
3,37,110,619
3,37,110,616
3,37,110,645
3,37,110,544
3,37,110,527
3,37,110,540
3,37,110,601
3,37,110,589
3,37,110,581
3,37,110,571
3,37,110,584
3,37,110,578
3,37,110,597
3,37,110,591
3,37,110,596
3,37,110,594
3,37,110,619
3,37,110,616
3,37,110,645
3,37,110,544
3,37,110,527
3,37,110,540
3,37,110,601
3,37,110,589
3,37,110,581
3,37,110,379
3,37,110,5384
3,37,110,544
3,37,110,527
3,37,110,540
3,37,110,601
3,37,110,589
3,37,110,581
3,37,110,571
3,37,110,584
3,37,110,578
3,37,110,597
3,37,110,591
3,37,110,596
3,37,110,594
3,37,110,619
3,37,110,616
3,37,110,645
3,37,110,544
3,37,110,527
3,37,110,540
3,37,110,601
3,37,110,589
3,37,110,581
3,37,110,571
3,37,110,584
3,37,110,578
3,37,110,597
3,37,110,591
3,37,110,596
3,37,110,594
3,37,110,619
3,37,110,616
3,37,110,645
3,37,110,544
3,37,110,527
3,37,110,540
3,37,110,601
3,37,110,589
3,37,110,581
3,37,110,571
3,37,110,584
3,37,110,578
3,37,110,597
3,37,110,591
3,37,110,596
3,37,110,594
3,37,110,619
3,37,110,616
3,37,110,645
3,37,110,544
3,37,110,527
3,37,110,540
3,37,110,601
3,37,110,589
3,37,110,581
3,37,110,571
3,37,110,584
3,37,110,578
3,37,110,597
3,37,110,591
3,37,110,596
3,37,110,594
3,37,110,619
3,37,110,616
3,37,110,645
3,37,110,544
3,37,110,527
3,37,110,540
3,37,110,601
3,37,110,589
3,37,110,581
3,37,110,571
3,37,110,584
3,37,110,578
3,37,110,597
3,37,110,591
3,37,110,596
3,37,110,594
3,37,110,619
3,37,110,616
4,42,127,32624
4,42,75,144
4,42,127,138
4,42,56,132
4,42,127,131
4,42,67,137
4,42,127,140
4,42,64,134
4,42,127,140
4,42,72,139
4,42,127,134
4,42,96,133
4,42,127,141
4,42,80,136
4,42,127,133
4,42,96,135
4,42,127,139
4,42,100,134
4,42,127,141
4,42,106,135
4,42,127,135
4,42,96,139
4,42,127,142
4,42,106,136
4,42,127,140
4,42,83,137
4,42,127,145
4,42,96,133
4,42,127,143
4,42,96,134
4,42,127,136
4,42,106,132
4,42,127,142
4,42,106,134
4,42,127,135
4,42,96,132
4,42,127,141
4,42,96,134
4,42,127,140
4,42,93,135
4,42,127,138
4,42,93,137
4,42,127,144
4,42,96,135
4,42,127,136
4,42,80,133
4,42,127,146
4,42,106,133
4,42,127,143
4,42,93,134
4,42,127,148
4,42,83,135
4,42,127,148
4,42,77,134
4,42,127,141
4,42,80,136
4,42,127,149
4,42,77,138
4,42,127,148
4,42,80,138
4,42,127,147
4,42,96,137
4,42,127,145
4,42,104,139
4,44,127,191
4,44,127,288
4,44,127,325
4,44,127,330
4,44,127,327
4,44,127,329
4,44,127,327
4,44,127,326
4,44,127,329
4,44,127,331
4,44,127,328
4,44,127,327
4,44,127,323
4,44,127,328
4,44,106,328
4,44,127,338
4,44,127,332
4,44,127,338
4,44,112,328
4,44,127,341
4,44,112,332
4,44,127,339
4,44,106,331
4,44,127,336
4,44,106,327
4,44,127,328
4,44,106,331
4,44,127,328
4,44,96,333
4,44,127,346
4,44,100,330
4,44,127,339
4,42,127,335
4,42,75,144
4,42,127,138
4,42,56,132
4,42,127,131
4,42,67,137
4,42,127,140
4,42,64,134
4,42,127,140
4,42,72,139
4,42,127,134
4,42,96,133
4,42,127,141
4,42,80,136
4,42,127,133
4,42,96,135
4,42,127,139
4,42,100,134
4,42,127,141
4,42,106,135
4,42,127,135
4,42,96,139
4,42,127,142
4,42,106,136
4,42,127,140
4,42,83,137
4,42,127,145
4,42,96,133
4,42,127,143
4,42,96,134
4,42,127,136
4,42,106,132
4,42,127,142
4,42,106,134
4,42,127,135
4,42,96,132
4,42,127,141
4,42,96,134
4,42,127,140
4,42,93,135
4,42,127,138
4,42,93,137
4,42,127,144
4,42,96,135
4,42,127,136
4,42,80,133
4,42,127,146
4,42,106,133
4,42,127,143
4,42,93,134
4,42,127,148
4,42,83,135
4,42,127,148
4,42,77,134
4,42,127,141
4,42,80,136
4,42,127,149
4,42,77,138
4,42,127,148
4,42,80,138
4,42,127,147
4,42,96,137
4,42,127,145
4,42,104,139
4,42,127,191
4,42,75,144
4,42,127,138
4,42,56,132
4,42,127,131
4,42,67,137
4,42,127,140
4,42,64,134
4,42,127,140
4,42,72,139
4,42,127,134
4,42,96,133
4,42,127,141
4,42,80,136
4,42,127,133
4,42,96,135
4,42,127,139
4,42,100,134
4,42,127,141
4,42,106,135
4,42,127,135
4,42,96,139
4,42,127,142
4,42,106,136
4,42,127,140
4,42,83,137
4,42,127,145
4,42,96,133
4,42,127,143
4,42,96,134
4,42,127,136
4,42,106,132
4,42,127,142
4,42,106,134
4,42,127,135
4,42,96,132
4,42,127,141
4,42,96,134
4,42,127,140
4,42,93,135
4,42,127,138
4,42,93,137
4,42,127,144
4,42,96,135
4,42,127,136
4,42,80,133
4,42,127,146
4,42,106,133
4,42,127,143
4,42,93,134
4,42,127,148
4,42,83,135
4,42,127,148
4,42,77,134
4,42,127,141
4,42,80,136
4,42,127,149
4,42,77,138
4,42,127,148
4,42,80,138
4,42,127,147
4,42,96,137
4,42,127,145
4,42,104,139
4,42,127,191
4,42,75,144
4,42,127,138
4,42,56,132
4,42,127,131
4,42,67,137
4,42,127,140
4,42,64,134
4,42,127,140
4,42,72,139
4,42,127,134
4,42,96,133
4,42,127,141
4,42,80,136
4,42,127,133
4,42,96,135
4,42,127,139
4,42,100,134
4,42,127,141
4,42,106,135
4,42,127,135
4,42,96,139
4,42,127,142
4,42,106,136
4,42,127,140
4,42,83,137
4,42,127,145
4,42,96,133
4,42,127,143
4,42,96,134
4,42,127,136
4,42,106,132
4,42,127,142
4,42,106,134
4,42,127,135
4,42,96,132
4,42,127,141
4,42,96,134
4,42,127,140
4,42,93,135
4,42,127,138
4,42,93,137
4,42,127,144
4,42,96,135
4,42,127,136
4,42,80,133
4,42,127,146
4,42,106,133
4,42,127,143
4,42,93,134
4,42,127,148
4,42,83,135
4,42,127,148
4,42,77,134
4,42,127,141
4,42,80,136
4,42,127,149
4,42,77,138
4,42,127,148
4,42,80,138
4,42,127,147
4,42,96,137
4,42,127,145
4,42,104,139
4,42,127,191
4,42,75,144
4,42,127,138
4,42,56,132
4,42,127,131
4,42,67,137
4,42,127,140
4,42,64,134
4,42,127,140
4,42,72,139
4,42,127,134
4,42,96,133
4,42,127,141
4,42,80,136
4,42,127,133
4,42,96,135
4,42,127,139
4,42,100,134
4,42,127,141
4,42,106,135
4,42,127,135
4,42,96,139
4,42,127,142
4,42,106,136
4,42,127,140
4,42,83,137
4,42,127,145
4,42,96,133
4,42,127,143
4,42,96,134
4,42,127,136
4,42,106,132
4,42,127,142
4,42,106,134
4,42,127,135
4,42,96,132
4,42,127,141
4,42,96,134
4,42,127,140
4,42,93,135
4,42,127,138
4,42,93,137
4,42,127,144
4,42,96,135
4,42,127,136
4,42,80,133
4,42,127,146
4,42,106,133
4,42,127,143
4,42,93,134
4,42,127,148
4,42,83,135
4,42,127,148
4,42,77,134
4,42,127,141
4,42,80,136
4,42,127,149
4,42,77,138
4,42,127,148
4,42,80,138
4,42,127,147
4,42,96,137
4,42,127,145
4,42,104,139
4,42,127,191
4,42,75,144
4,42,127,138
4,42,56,132
4,42,127,131
4,42,67,137
4,42,127,140
4,42,64,134
4,42,127,140
4,42,72,139
4,42,127,134
4,42,96,133
4,42,127,141
4,42,80,136
4,42,127,133
4,42,96,135
4,42,127,139
4,42,100,134
4,42,127,141
4,42,106,135
4,42,127,135
4,42,96,139
4,42,127,142
4,42,106,136
4,42,127,140
4,42,83,137
4,42,127,145
4,42,96,133
4,42,127,143
4,42,96,134
4,42,127,136
4,42,106,132
4,42,127,142
4,42,106,134
4,42,127,135
4,42,96,132
4,42,127,141
4,42,96,134
4,42,127,140
4,42,93,135
4,42,127,138
4,42,93,137
4,42,127,144
4,42,96,135
4,42,127,136
4,42,80,133
4,42,127,146
4,42,106,133
4,42,127,143
4,42,93,134
4,42,127,148
4,42,83,135
4,42,127,148
4,42,77,134
4,42,127,141
4,42,80,136
4,42,127,149
4,42,77,138
4,42,127,148
4,42,80,138
4,42,127,147
4,42,96,137
4,42,127,145
4,42,104,139
4,42,127,191
4,42,75,144
4,42,127,138
4,42,56,132
4,42,127,131
4,42,67,137
4,42,127,140
4,42,64,134
4,42,127,140
4,42,72,139
4,42,127,134
4,42,96,133
4,42,127,141
4,42,80,136
4,42,127,133
4,42,96,135
4,42,127,139
4,42,100,134
4,42,127,141
4,42,106,135
4,42,127,135
4,42,96,139
4,42,127,142
4,42,106,136
4,42,127,140
4,42,83,137
4,42,127,145
4,42,96,133
4,42,127,143
4,42,96,134
4,42,127,136
4,42,106,132
4,42,127,4750
4,42,75,144
4,42,127,138
4,42,56,132
4,42,127,131
4,42,67,137
4,42,127,140
4,42,64,134
4,42,127,140
4,42,72,139
4,42,127,134
4,42,96,133
4,42,127,141
4,42,80,136
4,42,127,133
4,42,96,135
4,42,127,139
4,42,100,134
4,42,127,141
4,42,106,135
4,42,127,135
4,42,96,139
4,42,127,142
4,42,106,136
4,42,127,140
4,42,83,137
4,42,127,145
4,42,96,133
4,42,127,143
4,42,96,134
4,42,127,136
4,42,106,132
4,42,127,142
4,42,106,134
4,42,127,135
4,42,96,132
4,42,127,141
4,42,96,134
4,42,127,140
4,42,93,135
4,42,127,138
4,42,93,137
4,42,127,144
4,42,96,135
4,42,127,136
4,42,80,133
4,42,127,146
4,42,106,133
4,42,127,143
