track,note,velocity,time
0,58,92,1896
0,53,92,0
0,62,80,0
0,34,100,0
0,58,80,0
0,35,104,0
0,62,92,0
0,42,100,0
0,65,80,0
0,35,48,48
0,42,39,48
0,58,99,0
0,42,110,144
0,40,90,0
0,58,99,48
0,42,64,32
0,35,75,0
0,34,71,0
0,34,100,42
0,35,92,0
0,58,99,20
0,42,81,0
0,42,50,144
0,70,80,0
0,42,93,0
0,62,80,0
0,65,80,0
0,40,90,0
0,42,54,0
0,60,80,0
0,67,80,0
0,63,80,0
0,62,80,2
0,58,80,0
0,65,80,0
0,63,80,0
0,60,92,0
0,58,92,0
0,54,92,0
0,42,81,0
0,66,80,0
0,60,80,0
0,34,116,0
0,35,104,0
0,63,92,0
0,35,75,48
0,58,99,48
0,42,64,0
0,42,81,144
0,40,90,0
0,58,99,48
0,42,64,10
0,34,71,0
0,35,32,0
0,34,116,48
0,35,104,0
0,58,99,8
0,42,71,0
0,42,35,144
0,40,90,0
0,66,80,0
0,63,80,0
0,42,64,0
0,70,80,0
0,65,80,8
0,62,80,0
0,68,80,0
0,42,54,0
0,66,80,0
0,63,80,0
0,46,81,0
0,60,80,0
0,65,80,0
0,86,66,0
0,62,80,0
0,58,92,0
0,62,92,0
0,34,116,0
0,58,80,0
0,89,66,0
0,53,92,0
0,35,92,0
0,42,81,0
0,35,60,16
0,58,99,0
0,42,58,0
0,42,81,0
0,40,90,0
0,58,99,48
0,42,64,20
0,35,60,0
0,34,83,0
0,34,116,48
0,35,104,0
0,42,93,18
0,58,99,0
0,42,46,144
0,42,93,0
0,62,80,0
0,65,80,0
0,70,80,0
0,40,90,0
0,42,33,0
0,63,80,0
0,67,80,0
0,60,80,0
0,58,80,2
0,62,80,0
0,65,80,0
0,42,93,0
0,34,116,0
0,35,104,0
0,60,92,0
0,63,80,0
0,63,92,0
0,54,92,0
0,58,92,0
0,87,66,0
0,66,80,0
0,84,66,0
0,60,80,0
0,35,92,48
0,42,39,48
0,58,99,0
0,42,110,144
0,40,90,0
0,58,99,48
0,42,41,36
0,35,48,0
0,34,61,0
0,35,104,48
0,34,116,0
0,42,93,0
0,58,99,0
0,70,80,0
0,40,90,0
0,66,80,0
0,42,110,0
0,63,80,0
0,62,80,0
0,42,64,0
0,65,80,0
0,68,80,0
0,66,80,0
0,63,80,0
0,60,80,0
0,46,64,0
0,62,80,0
0,42,71,0
0,53,92,0
0,34,100,0
0,62,92,0
0,58,80,0
0,35,104,0
0,58,92,0
0,65,80,0
0,35,75,0
0,42,50,0
0,58,99,0
0,42,93,16
0,40,90,0
0,62,102,0
0,58,99,0
0,34,71,0
0,35,48,0
0,42,54,0
0,34,100,0
0,35,92,0
0,42,81,6
0,58,99,0
0,42,50,2
0,58,95,0
0,42,93,0
0,40,90,0
0,42,54,6
0,53,91,0
0,56,102,2
0,34,116,0
0,42,81,0
0,60,92,0
0,54,92,0
0,35,104,0
0,58,92,0
0,63,92,0
0,35,92,48
0,58,99,0
0,42,46,0
0,42,81,30
0,40,90,0
0,58,99,0
0,35,48,10
0,34,71,0
0,42,46,0
0,34,116,48
0,35,104,0
0,58,99,8
0,42,81,0
0,42,46,144
0,40,90,144
0,42,71,0
0,42,64,144
0,46,71,48
0,35,92,0
0,62,92,0
0,53,92,0
0,42,64,0
0,58,92,0
0,34,116,0
0,35,104,48
0,42,41,48
0,58,99,0
0,40,90,144
0,42,110,0
0,53,87,48
0,58,99,0
0,34,83,20
0,58,103,0
0,42,43,0
0,35,48,0
0,34,116,18
0,60,89,0
0,35,104,0
0,63,105,8
0,42,93,0
0,58,99,0
0,62,108,44
0,42,41,0
0,60,104,48
0,42,93,8
0,40,90,0
0,58,83,22
0,42,58,0
0,60,104,20
0,58,92,0
0,35,92,0
0,60,92,0
0,54,92,0
0,63,92,0
0,34,116,0
0,42,81,0
0,35,75,4
0,42,50,0
0,62,86,0
0,58,99,0
0,58,97,8
0,42,93,6
0,40,90,0
0,58,99,12
0,34,61,6
0,42,54,0
0,35,75,0
0,35,92,6
0,34,116,0
0,42,93,0
0,58,99,0
0,42,64,144
0,40,90,144
0,42,93,0
0,42,54,144
0,46,58,48
0,42,71,0
0,62,92,0
0,53,92,0
0,58,92,0
0,35,104,0
0,34,100,0
0,35,75,48
0,58,99,48
0,42,50,0
0,40,90,144
0,42,93,0
0,58,99,48
0,35,48,32
0,34,71,0
0,42,54,0
0,35,92,42
0,53,81,0
0,34,100,0
0,58,99,0
0,42,81,0
0,62,103,0
0,42,50,142
0,58,98,0
0,40,90,6
0,42,93,0
0,42,54,6
0,53,83,0
0,56,101,12
0,42,81,0
0,63,92,0
0,60,92,0
0,54,92,0
0,35,104,0
0,58,92,0
0,34,116,0
0,35,92,48
0,58,99,6
0,42,46,0
0,40,90,18
0,42,81,0
0,58,99,24
0,35,48,10
0,42,46,0
0,34,71,0
0,34,116,48
0,35,104,0
0,42,81,8
0,58,99,0
0,42,46,144
0,40,90,144
0,42,71,0
0,42,64,144
0,46,71,48
0,62,92,0
0,34,116,0
0,53,92,0
0,35,92,0
0,58,92,0
0,42,64,0
0,35,104,48
0,58,99,48
0,42,41,0
0,42,110,144
0,40,90,0
0,53,84,48
0,58,99,0
0,35,48,20
0,58,103,0
0,34,83,0
0,42,43,0
0,60,94,0
0,34,116,0
0,35,104,0
0,58,99,6
0,63,108,0
0,42,93,0
0,42,41,48
0,62,99,0
0,60,103,48
0,42,93,0
0,40,90,0
0,42,58,30
0,58,78,0
0,60,108,6
0,60,92,0
0,54,92,0
0,34,116,0
0,63,92,0
0,58,92,0
0,42,81,0
0,35,92,0
0,35,75,0
0,62,90,10
0,42,50,0
0,58,99,0
0,58,98,22
0,42,93,10
0,40,90,0
0,58,99,10
0,35,75,4
0,42,54,0
0,34,61,0
0,34,116,8
0,35,92,0
0,58,99,0
0,42,93,0
0,42,64,144
0,42,93,10
0,40,90,0
0,42,54,144
0,46,58,48
0,35,92,48
0,34,116,0
0,42,81,0
0,35,75,48
0,58,99,48
0,42,50,0
0,40,90,144
0,42,93,0
0,58,99,48
0,42,54,36
0,35,75,0
0,34,61,0
0,34,116,48
0,35,92,0
0,42,93,0
0,58,99,0
0,53,92,0
0,53,84,0
0,42,64,2
0,55,84,0
0,58,88,0
0,60,83,0
0,42,93,0
0,58,83,0
0,40,90,0
0,48,83,0
0,48,96,0
0,50,82,0
0,42,54,0
0,55,82,0
0,46,58,0
0,53,94,0
0,42,71,0
0,35,104,0
0,34,100,0
0,89,66,0
0,58,82,0
0,53,82,0
0,62,82,0
0,35,75,0
0,42,50,0
0,58,99,0
0,62,80,0
0,62,110,0
0,65,80,0
0,58,80,0
0,40,90,40
0,65,80,0
0,62,80,0
0,58,80,0
0,42,93,0
0,62,92,0
0,58,80,22
0,58,99,0
0,62,80,0
0,65,80,0
0,62,90,0
0,34,71,6
0,35,48,0
0,62,80,0
0,62,79,0
0,58,80,0
0,65,80,0
0,42,54,0
0,63,80,8
0,34,100,0
0,67,80,0
0,35,92,0
0,60,80,0
0,63,101,0
0,42,81,20
0,58,99,0
0,65,80,4
0,62,101,0
0,62,80,0
0,58,80,0
0,42,50,0
0,62,80,10
0,58,80,0
0,65,80,0
0,55,80,16
0,42,93,0
0,40,90,0
0,60,103,0
0,60,80,0
0,63,80,0
0,58,80,12
0,62,80,0
0,53,80,0
0,58,91,0
0,42,54,0
0,60,92,0
0,42,81,0
0,35,104,0
0,87,66,0
0,63,92,0
0,34,116,0
0,55,92,0
0,58,92,0
0,35,92,48
0,42,46,2
0,63,80,0
0,60,80,0
0,60,103,0
0,58,99,0
0,55,80,0
0,60,80,42
0,60,86,0
0,63,80,0
0,42,81,0
0,40,90,0
0,55,80,0
0,58,99,34
0,63,80,0
0,55,80,0
0,60,80,0
0,60,81,0
0,63,80,2
0,55,80,0
0,35,48,0
0,60,80,0
0,60,81,0
0,42,46,0
0,34,71,0
0,65,80,4
0,35,104,0
0,62,80,0
0,58,80,0
0,34,116,0
0,62,102,0
0,42,81,8
0,58,99,0
0,60,80,6
0,63,80,0
0,55,80,0
0,60,83,0
0,42,46,0
0,60,79,24
0,63,80,0
0,60,80,0
0,40,90,2
0,60,80,0
0,55,80,0
0,60,112,0
0,42,71,0
0,63,80,0
0,60,80,42
0,55,80,0
0,58,83,16
0,42,64,0
0,53,80,0
0,62,80,0
0,58,80,0
0,63,80,18
0,60,80,0
0,54,80,0
0,89,66,0
0,46,71,0
0,60,102,0
0,90,66,0
0,35,92,0
0,60,92,0
0,42,64,0
0,54,92,0
0,63,92,0
0,34,116,0
0,58,92,0
0,35,104,24
0,62,81,0
0,58,80,0
0,42,41,0
0,58,99,0
0,58,99,0
0,40,90,18
0,42,110,0
0,58,99,4
0,42,43,10
0,35,48,0
0,34,83,0
0,35,104,18
0,34,116,0
0,58,99,18
0,42,93,0
0,42,41,144
0,58,80,96
0,40,90,0
0,63,80,0
0,58,90,0
0,42,93,0
0,54,80,0
0,58,80,48
0,58,105,0
0,54,80,0
0,63,80,0
0,42,58,6
0,89,66,0
0,34,116,0
0,55,94,0
0,58,80,0
0,42,81,0
0,35,92,0
0,53,92,0
0,58,92,0
0,62,92,0
0,53,80,0
0,62,80,0
0,35,75,14
0,58,99,8
0,42,50,0
0,40,90,144
0,42,93,0
0,58,99,48
0,34,61,36
0,42,54,0
0,35,75,0
0,35,92,48
0,34,116,0
0,42,93,0
0,58,99,0
0,53,92,0
0,53,80,0
0,55,80,0
0,42,64,0
0,60,80,0
0,58,88,0
0,42,93,0
0,58,80,0
0,40,90,0
0,48,96,0
0,48,79,0
0,50,79,0
0,42,54,0
0,53,94,0
0,46,58,0
0,55,79,0
0,89,66,0
0,62,79,0
0,35,104,0
0,53,79,0
0,58,79,0
0,34,100,0
0,42,71,0
0,35,75,0
0,58,80,0
0,58,99,0
0,42,50,0
0,62,110,0
0,62,80,0
0,65,80,0
0,40,90,54
0,42,93,0
0,58,80,0
0,65,80,0
0,62,80,0
0,62,88,0
0,62,99,48
0,58,99,0
0,65,80,0
0,62,80,0
0,58,80,0
0,34,71,6
0,62,80,0
0,65,80,0
0,42,54,0
0,35,48,0
0,58,80,0
0,34,100,6
0,67,80,0
0,35,92,0
0,60,80,0
0,63,80,0
0,63,108,0
0,42,81,20
0,58,99,0
0,62,111,2
0,58,80,0
0,65,80,0
0,42,50,0
0,62,80,0
0,65,80,4
0,58,80,0
0,62,80,0
0,40,90,32
0,60,80,0
0,60,106,0
0,63,80,0
0,42,93,0
0,55,80,0
0,62,80,18
0,58,88,0
0,58,80,0
0,42,54,0
0,53,80,0
0,58,92,0
0,34,116,0
0,60,92,0
0,87,66,0
0,55,92,0
0,35,104,0
0,63,92,0
0,42,81,0
0,35,92,48
0,63,80,14
0,60,104,0
0,55,80,0
0,42,46,0
0,60,80,0
0,58,99,0
0,55,80,28
0,40,90,0
0,42,81,0
0,63,80,0
0,60,80,0
0,60,92,0
0,55,80,4
0,60,91,0
0,63,80,0
0,58,99,0
0,60,80,0
0,35,48,10
0,55,80,0
0,60,80,0
0,63,80,0
0,42,46,0
0,34,71,0
0,60,92,0
0,34,116,4
0,62,80,0
0,35,104,0
0,65,80,0
0,58,80,0
0,62,107,0
0,42,81,8
0,58,99,0
0,60,80,14
0,42,46,0
0,55,80,0
0,63,80,0
0,60,98,0
0,60,80,20
0,63,80,0
0,60,77,0
0,63,80,10
0,40,90,0
0,60,80,0
0,42,71,0
0,55,80,0
0,60,95,0
0,60,80,12
0,55,80,0
0,58,77,4
0,58,80,0
0,53,80,0
0,42,64,0
0,62,80,0
0,60,106,2
0,54,80,0
0,60,80,0
0,46,71,0
0,63,80,0
0,89,66,0
0,42,64,0
0,34,116,0
0,35,92,0
0,60,92,0
0,63,92,0
0,58,92,0
0,90,66,0
0,54,92,0
0,35,104,16
0,62,82,0
0,58,99,30
0,42,41,0
0,58,101,0
0,58,80,0
0,40,90,2
0,42,110,0
0,58,99,26
0,35,48,16
0,34,83,0
0,42,43,0
0,35,104,40
0,34,116,0
0,42,93,12
0,58,99,0
0,42,41,42
0,54,80,4
0,40,90,0
0,62,110,0
0,63,80,0
0,42,93,0
0,58,80,0
0,58,80,26
0,54,80,0
0,63,80,0
0,42,58,96
0,60,79,16
0,65,80,0
0,35,104,0
0,58,80,0
0,49,100,0
0,58,92,0
0,89,66,0
0,62,92,0
0,62,80,0
0,53,92,0
0,34,100,0
0,62,97,0
0,60,78,0
0,58,84,30
0,35,48,0
0,42,39,4
0,58,99,0
0,42,110,8
0,40,90,0
0,58,99,2
0,74,98,10
0,34,71,10
0,35,75,0
0,42,64,0
0,35,92,2
0,34,100,0
0,42,81,4
0,58,99,0
0,42,50,4
0,67,98,40
0,65,80,0
0,62,80,0
0,70,80,0
0,40,90,0
0,42,93,0
0,70,98,4
0,72,98,18
0,70,98,28
0,60,80,0
0,63,80,0
0,42,54,0
0,67,80,0
0,62,80,2
0,65,80,0
0,58,80,0
0,66,77,0
0,58,92,0
0,54,92,0
0,42,81,0
0,35,104,0
0,66,80,0
0,60,92,0
0,90,66,0
0,63,80,0
0,63,92,0
0,60,80,0
0,34,116,0
0,35,75,48
0,42,64,48
0,58,99,0
0,42,81,144
0,40,90,0
0,58,99,48
0,70,98,12
0,75,98,10
0,34,71,0
0,35,32,0
0,42,64,0
0,77,98,12
0,35,104,14
0,34,116,0
0,58,99,8
0,42,71,0
0,78,98,10
0,80,98,4
0,42,35,8
0,77,98,4
0,63,80,0
0,66,80,0
0,42,64,0
0,70,80,0
0,40,90,0
0,42,54,8
0,68,80,0
0,62,80,0
0,65,80,0
0,63,80,0
0,75,98,0
0,46,81,0
0,60,80,0
0,66,80,0
0,58,80,0
0,65,80,0
0,34,116,0
0,62,80,0
0,53,92,0
0,42,81,0
0,58,92,0
0,62,92,0
0,35,92,0
0,89,66,0
0,74,98,24
0,35,60,8
0,42,58,48
0,58,99,0
0,77,98,8
0,74,98,20
0,42,81,0
0,40,90,0
0,58,99,2
0,42,64,6
0,35,60,0
0,34,83,0
0,35,104,20
0,34,116,0
0,58,99,10
0,42,93,0
0,42,46,106
0,70,80,0
0,65,80,0
0,62,80,0
0,42,93,0
0,40,90,0
0,74,98,98
0,42,33,0
0,67,80,0
0,60,80,0
0,63,80,0
0,65,98,4
0,58,80,2
0,62,80,0
0,65,80,0
0,58,92,0
0,34,116,0
0,60,92,0
0,63,92,0
0,42,93,0
0,63,80,0
0,35,104,0
0,60,80,0
0,54,92,0
0,87,66,0
0,66,80,0
0,68,98,6
0,35,92,2
0,42,39,12
0,58,99,0
0,40,90,10
0,42,110,0
0,58,99,6
0,42,41,18
0,35,48,0
0,34,61,0
0,66,98,34
0,34,116,6
0,35,104,0
0,65,98,8
0,58,99,0
0,42,93,0
0,63,98,12
0,70,80,0
0,63,80,0
0,42,110,0
0,66,80,0
0,40,90,0
0,42,64,6
0,68,80,0
0,62,80,0
0,65,80,0
0,65,87,0
0,66,80,0
0,63,80,0
0,46,64,0
0,60,80,0
0,63,86,12
0,42,71,0
0,53,92,0
0,34,100,0
0,35,104,0
0,58,92,0
0,62,92,0
0,62,80,28
0,35,75,10
0,42,50,48
0,58,99,0
0,42,93,144
0,40,90,0
0,53,88,18
0,58,99,0
0,42,54,32
0,34,71,0
0,35,48,0
0,58,93,0
0,35,92,16
0,60,98,0
0,34,100,0
0,62,110,6
0,42,81,0
0,58,99,0
0,42,50,112
0,58,106,32
0,40,90,10
0,42,93,0
0,53,84,34
0,42,54,0
0,56,99,4
0,35,104,0
0,34,116,0
0,63,92,0
0,60,92,0
0,54,92,0
0,58,92,0
0,42,81,0
0,35,92,48
0,58,99,48
0,42,46,0
0,40,90,12
0,42,81,0
0,58,99,20
0,70,80,0
0,54,58,0
0,42,46,10
0,34,71,0
0,70,80,0
0,35,48,0
0,34,116,40
0,70,80,0
0,35,104,0
0,58,99,8
0,42,81,0
0,70,80,0
0,66,80,32
0,42,46,66
