track,note,velocity,time
0,26,114,404
0,62,96,0
0,38,95,0
0,57,84,0
0,57,0,378
0,26,0,5
0,62,0,0
0,38,0,0
0,44,77,97
0,44,0,6
0,57,81,229
0,26,118,5
0,38,90,0
0,62,92,2
0,57,0,184
0,26,0,5
0,38,0,0
0,62,0,2
0,43,89,44
0,31,114,3
0,67,95,0
0,59,83,2
0,43,0,306
0,31,0,3
0,67,0,0
0,59,0,2
0,44,75,167
0,44,0,6
0,43,97,231
0,31,115,3
0,67,98,0
0,59,89,2
0,43,0,186
0,31,0,3
0,67,0,0
0,59,0,2
0,33,110,47
0,69,94,0
0,45,96,0
0,61,86,0
0,33,0,331
0,69,0,0
0,45,0,0
0,61,0,0
0,44,75,149
0,44,0,6
0,61,83,231
0,33,114,3
0,69,90,0
0,45,90,2
0,61,0,188
0,33,0,3
0,69,0,0
0,45,0,2
0,59,86,42
0,31,110,3
0,67,83,0
0,43,86,0
0,59,0,185
0,31,0,3
0,67,0,0
0,43,0,0
0,69,86,49
0,45,93,0
0,33,115,3
0,61,91,0
0,44,73,240
0,44,0,6
0,69,0,212
0,45,0,0
0,61,0,0
0,33,0,3
0,59,92,14
0,31,112,5
0,43,88,0
0,67,86,2
0,59,0,179
0,31,0,5
0,43,0,0
0,67,0,2
0,38,99,49
0,26,110,3
0,62,89,0
0,57,84,0
0,38,0,380
0,26,0,3
0,62,0,0
0,57,0,0
0,44,78,97
0,44,0,6
0,57,88,229
0,62,89,2
0,38,94,0
0,26,110,3
0,57,0,186
0,62,0,2
0,38,0,0
0,26,0,3
0,59,83,44
0,31,116,5
0,43,98,0
0,67,95,2
0,59,0,304
0,31,0,5
0,43,0,0
0,67,0,2
0,44,79,167
0,44,0,6
0,43,98,231
0,59,93,0
0,31,109,3
0,67,96,0
0,43,0,188
0,59,0,0
0,31,0,3
0,67,0,0
0,69,95,46
0,45,97,0
0,33,110,3
0,61,88,0
0,69,0,328
0,45,0,0
0,33,0,3
0,61,0,0
0,44,76,149
0,44,0,6
0,33,108,234
0,69,86,0
0,45,87,2
0,61,90,0
0,33,0,191
0,69,0,0
0,45,0,2
0,61,0,0
0,31,113,45
0,67,87,0
0,43,88,0
0,59,84,0
0,31,0,188
0,67,0,0
0,43,0,0
0,59,0,0
0,33,107,52
0,40,60,0
0,69,90,0
0,61,88,0
0,45,91,2
0,40,0,4
0,40,82,226
0,40,0,1
0,47,100,7
0,44,82,0
0,40,93,0
0,40,0,1
0,47,0,5
0,44,0,0
0,61,0,212
0,33,0,3
0,69,0,0
0,45,0,2
0,59,83,12
0,67,92,2
0,43,94,0
0,31,117,3
0,43,92,0
0,40,84,0
0,35,88,0
0,43,0,6
0,40,0,0
0,35,0,0
0,59,0,175
0,67,0,2
0,43,0,0
0,31,0,3
0,26,119,54
0,49,68,0
0,35,109,0
0,62,103,0
0,38,89,0
0,57,86,0
0,49,0,6
0,35,0,0
0,42,44,234
0,42,0,6
0,62,0,135
0,26,0,2
0,38,0,0
0,57,0,0
0,46,44,97
0,40,103,0
0,46,0,6
0,40,0,0
0,66,117,1
0,66,0,203
0,57,81,7
0,26,107,5
0,42,46,0
0,40,63,0
0,35,88,0
0,38,95,0
0,62,106,2
0,42,0,4
0,40,0,0
0,35,0,0
0,62,104,1
0,57,0,161
0,26,0,5
0,38,0,0
0,62,0,2
0,62,0,0
0,59,84,42
0,67,103,2
0,31,119,3
0,42,62,0
0,35,115,0
0,43,87,0
0,42,0,6
0,35,0,0
0,67,110,2
0,67,0,188
0,42,44,22
0,42,0,6
0,64,107,1
0,59,0,29
0,67,0,2
0,31,0,3
0,43,0,0
0,46,54,169
0,40,103,0
0,46,0,6
0,40,0,0
0,64,0,9
0,67,107,222
0,43,93,0
0,59,84,0
0,31,110,3
0,42,51,0
0,40,54,0
0,35,84,0
0,42,0,6
0,40,0,0
0,35,0,0
0,67,0,182
0,43,0,0
0,59,0,0
0,31,0,3
0,33,108,49
0,42,58,0
0,35,106,0
0,61,92,0
0,69,107,2
0,45,95,0
0,42,0,4
0,35,0,0
0,69,109,2
0,69,0,198
0,42,52,12
0,40,62,0
0,42,0,6
0,40,0,0
0,66,113,2
0,33,0,69
0,61,0,0
0,69,0,2
0,45,0,0
0,66,0,72
0,69,115,2
0,46,46,5
0,40,103,0
0,46,0,6
0,40,0,0
0,69,0,127
0,67,112,1
0,69,107,12
0,45,96,0
0,33,118,3
0,42,45,0
0,40,44,0
0,35,91,0
0,61,92,2
0,42,0,4
0,40,0,0
0,35,0,0
0,69,0,29
0,45,0,0
0,33,0,3
0,61,0,2
0,67,93,36
0,31,114,3
0,42,55,0
0,35,110,0
0,59,78,0
0,43,83,1
0,42,0,4
0,35,0,0
0,67,0,24
0,31,0,3
0,59,0,0
0,43,0,2
0,69,107,36
0,45,95,0
0,33,106,3
0,42,53,0
0,35,84,0
0,61,83,0
0,42,0,5
0,35,0,0
0,46,47,199
0,40,99,0
0,46,0,6
0,40,0,0
0,67,0,150
0,69,0,62
0,45,0,0
0,61,0,0
0,33,0,3
0,59,88,14
0,31,109,5
0,42,52,0
0,40,47,0
0,35,87,0
0,67,97,2
0,43,91,0
0,42,0,4
0,40,0,0
0,35,0,0
0,59,0,175
0,31,0,5
0,67,0,2
0,43,0,0
0,26,112,52
0,42,61,0
0,35,114,0
0,62,102,0
0,38,91,0
0,57,84,0
0,42,0,6
0,35,0,0
0,42,49,234
0,42,0,6
0,57,0,132
0,26,0,5
0,62,0,0
0,38,0,0
0,46,50,97
0,40,104,0
0,46,0,6
0,40,0,0
0,78,1,1
0,78,117,0
0,78,0,203
0,78,0,0
0,57,81,7
0,26,112,5
0,42,51,0
0,35,84,0
0,62,100,2
0,38,94,0
0,42,0,4
0,35,0,0
0,74,1,1
0,74,99,0
0,57,0,161
0,26,0,5
0,62,0,2
0,38,0,0
0,74,0,0
0,74,0,0
0,31,112,47
0,42,58,0
0,35,113,0
0,67,107,0
0,43,92,0
0,59,82,2
0,42,0,4
0,35,0,0
0,79,1,2
0,79,107,0
0,79,0,188
0,79,0,0
0,42,51,22
0,40,49,0
0,42,0,6
0,40,0,0
0,76,1,1
0,76,101,0
0,31,0,34
0,67,0,0
0,43,0,0
0,59,0,2
0,46,46,167
0,40,94,0
0,46,0,6
0,40,0,0
0,76,0,9
0,76,0,0
0,31,108,225
0,42,49,0
0,40,69,0
0,35,92,0
0,43,91,0
0,67,98,2
0,59,89,0
0,42,0,4
0,40,0,0
0,35,0,0
0,31,0,185
0,43,0,0
0,67,0,2
0,59,0,0
0,33,119,47
0,42,64,0
0,35,114,0
0,45,99,0
0,61,93,0
0,69,107,2
0,42,0,4
0,35,0,0
0,81,1,2
0,81,113,0
0,81,0,198
0,81,0,0
0,42,55,12
0,42,0,6
0,78,1,2
0,78,102,0
0,33,0,69
0,45,0,0
0,61,0,0
0,69,0,2
0,78,0,72
0,78,0,0
0,81,1,2
0,81,116,0
0,46,44,5
0,40,101,0
0,46,0,6
0,40,0,0
0,81,0,127
0,81,0,0
0,79,1,1
0,79,116,0
0,61,89,12
0,33,115,3
0,42,49,0
0,40,50,0
0,35,84,0
0,69,104,0
0,45,88,0
0,42,0,6
0,40,0,0
0,35,0,0
0,61,0,29
0,33,0,3
0,69,0,0
0,45,0,0
0,67,94,36
0,59,86,0
0,31,106,3
0,42,53,0
0,35,113,0
0,43,85,1
0,42,0,4
0,35,0,0
0,67,0,24
0,59,0,0
0,31,0,3
0,43,0,2
0,33,107,39
0,42,53,0
0,40,51,0
0,35,87,0
0,45,96,0
0,61,88,0
0,69,101,1
0,42,0,4
0,40,0,0
0,35,0,0
0,46,50,199
0,40,102,0
0,46,0,6
0,40,0,0
0,61,0,212
0,69,0,2
0,33,0,1
0,45,0,0
0,59,82,14
0,67,97,2
0,43,92,0
0,31,111,3
0,42,49,0
0,40,44,0
0,35,91,0
0,42,0,6
0,40,0,0
0,35,0,0
0,59,0,175
0,67,0,2
0,43,0,0
0,31,0,3
0,26,111,54
0,42,58,0
0,35,107,0
0,38,91,0
0,57,82,0
0,62,107,2
0,42,0,4
0,35,0,0
0,79,0,30
0,79,0,0
0,42,45,204
0,42,0,6
0,62,104,4
0,26,0,131
0,38,0,0
0,57,0,0
0,62,0,2
0,62,0,25
0,46,52,70
0,40,101,0
0,46,0,6
0,40,0,0
0,66,113,3
0,66,0,146
0,62,110,2
0,57,91,5
0,38,93,2
0,26,112,3
0,42,47,0
0,35,91,0
0,62,104,2
0,42,0,4
0,35,0,0
0,62,0,160
0,57,0,20
0,38,0,2
0,26,0,3
0,62,0,2
0,59,91,42
0,67,97,2
0,43,87,0
0,31,118,3
0,42,62,0
0,35,114,0
0,42,0,6
0,35,0,0
0,67,115,4
0,42,55,220
0,40,44,0
0,42,0,6
0,40,0,0
0,59,0,60
0,67,0,2
0,43,0,0
0,31,0,3
0,67,0,157
0,46,52,12
0,40,100,0
0,46,0,6
0,40,0,0
0,43,97,231
0,59,85,0
0,31,114,3
0,42,47,0
0,35,87,0
0,67,98,2
0,42,0,4
0,35,0,0
0,43,0,182
0,59,0,0
0,31,0,3
0,67,0,2
0,69,107,3
0,33,111,5
0,42,58,0
0,35,105,0
0,61,88,0
0,69,101,2
0,45,95,0
0,42,0,4
0,35,0,0
0,69,0,230
0,42,45,4
0,42,0,6
0,66,114,3
0,33,0,4
0,61,0,0
0,69,0,2
0,45,0,0
0,46,45,147
0,40,103,0
0,46,0,6
0,40,0,0
0,66,0,87
0,69,112,4
0,33,109,68
0,42,53,0
0,40,39,0
0,35,87,0
0,69,98,2
0,45,93,0
0,63,86,0
0,42,0,4
0,40,0,0
0,35,0,0
0,33,0,187
0,69,0,2
0,45,0,0
0,63,0,0
0,69,0,8
0,47,87,34
0,35,105,3
0,42,54,0
0,35,114,0
0,63,78,0
0,71,98,2
0,42,0,4
0,35,0,0
0,71,107,1
0,47,0,140
0,35,0,3
0,63,0,0
0,71,0,2
0,23,106,50
0,42,52,0
0,35,90,0
0,59,99,0
0,35,91,0
0,54,80,0
0,42,0,5
0,35,0,0
0,54,0,17
0,23,0,3
0,59,0,0
0,35,0,0
0,37,86,16
0,25,107,3
0,46,48,0
0,40,95,0
0,35,105,0
0,61,96,0
0,56,78,0
0,46,0,5
0,40,0,0
0,35,0,0
0,37,0,24
0,25,0,3
0,61,0,0
0,56,0,0
0,54,82,47
0,27,108,5
0,42,49,0
0,40,52,0
0,35,90,0
0,63,99,2
0,39,96,0
0,42,0,4
0,40,0,0
0,35,0,0
0,54,0,175
0,27,0,5
0,71,0,2
0,63,0,0
0,39,0,0
0,56,84,47
0,28,111,5
0,80,92,0
0,42,54,0
0,35,114,0
0,64,105,0
0,40,94,2
0,42,0,4
0,35,0,0
0,42,47,234
0,42,0,6
0,56,0,132
0,28,0,5
0,64,0,0
0,40,0,2
0,80,1,1
0,80,114,0
0,46,48,23
0,40,95,0
0,46,0,6
0,40,0,0
0,80,0,172
0,80,0,0
0,76,1,4
0,76,91,0
0,59,89,3
0,40,91,2
0,28,112,3
0,42,47,0
0,40,54,0
0,35,88,0
0,64,104,2
0,42,0,4
0,40,0,0
0,35,0,0
0,59,0,180
0,40,0,2
0,28,0,3
0,64,0,2
0,76,0,2
0,76,0,0
0,80,0,26
0,81,93,16
0,61,83,0
0,33,113,3
0,42,53,0
0,35,114,0
0,69,99,0
0,45,96,0
0,42,0,6
0,35,0,0
0,81,1,3
0,81,110,0
0,42,48,213
0,42,0,6
0,61,0,62
0,33,0,3
0,69,0,0
0,45,0,0
0,81,0,134
0,81,0,0
0,46,55,35
0,40,93,0
0,46,0,6
0,40,0,0
0,45,90,231
0,61,84,0
0,33,116,3
0,42,47,0
0,40,53,0
0,35,84,0
0,69,97,0
0,42,0,6
0,40,0,0
0,35,0,0
0,81,0,179
0,45,0,3
0,61,0,0
0,33,0,3
0,69,0,0
0,80,98,46
0,64,105,0
0,28,109,0
0,42,53,0
0,35,109,0
0,40,98,0
0,80,1,2
0,80,115,0
0,59,86,0
0,42,0,4
0,35,0,0
0,80,0,209
0,80,0,0
0,76,1,4
0,76,108,0
0,42,45,8
0,42,0,6
0,64,0,82
0,28,0,3
0,40,0,0
0,59,0,2
0,76,0,127
0,76,0,0
0,46,55,20
0,40,98,0
0,46,0,6
0,40,0,0
0,80,1,2
0,80,102,0
0,80,0,188
0,80,0,0
0,80,0,15
0,33,117,2
0,81,1,0
0,81,114,0
0,42,51,0
0,35,85,0
0,45,89,0
0,57,84,0
0,81,83,2
0,69,106,0
0,42,0,4
0,35,0,0
0,33,0,32
0,45,0,0
0,57,0,0
0,69,0,2
0,33,106,39
0,42,56,0
0,35,107,0
0,69,103,0
0,45,93,0
0,57,87,2
0,42,0,4
0,35,0,0
0,81,0,72
0,33,0,110
0,69,0,0
0,45,0,0
0,57,0,2
0,69,106,47
0,45,90,0
0,33,111,3
0,81,85,0
0,42,46,0
0,40,48,0
0,35,95,0
0,57,80,2
0,42,0,4
0,40,0,0
0,35,0,0
0,81,0,65
0,81,0,0
0,69,0,147
0,45,0,0
0,33,0,3
0,81,0,2
0,57,0,0
0,71,95,14
0,35,104,3
0,79,89,0
0,46,50,0
0,40,93,0
0,47,89,0
0,59,82,2
0,46,0,4
0,40,0,0
0,79,0,165
0,71,0,14
0,35,0,3
0,47,0,0
0,59,0,2
0,78,97,47
0,49,94,0
0,37,112,3
0,42,44,0
0,40,52,0
0,35,89,0
0,73,102,0
0,61,80,2
0,42,0,4
0,40,0,0
0,35,0,0
0,49,0,177
0,37,0,3
0,73,0,0
0,61,0,2
0,74,101,49
0,38,118,3
0,49,68,0
0,35,109,0
0,50,89,0
0,62,88,0
0,49,0,6
0,35,0,0
0,74,0,174
0,38,0,3
0,50,0,0
0,62,0,0
0,38,114,57
0,42,55,0
0,35,84,0
0,74,107,0
0,50,90,0
0,66,92,0
0,42,0,6
0,35,0,0
0,46,48,0
0,40,104,0
0,57,102,0
0,74,116,2
0,46,0,4
0,40,0,0
0,86,117,1
0,62,107,3
0,66,98,10
0,38,0,123
0,74,0,0
0,50,0,0
0,66,0,0
0,74,0,62
0,86,0,5
0,69,87,25
0,78,96,2
0,54,98,0
0,42,117,3
0,42,49,0
0,40,51,0
0,35,86,0
0,42,0,2
0,40,0,0
0,35,0,0
0,69,99,1
0,81,99,5
0,69,0,168
0,81,0,5
0,69,0,1
0,78,0,2
0,54,0,0
0,42,0,3
0,78,0,9
0,57,0,13
0,62,0,10
0,66,0,10
0,79,105,4
0,55,95,0
0,71,91,0
0,43,115,3
0,42,61,0
0,35,104,0
0,71,112,1
0,42,0,1
0,35,0,0
0,83,105,2
0,79,0,67
0,55,0,0
0,71,0,0
0,43,0,3
0,43,98,46
0,31,117,3
0,42,45,0
0,35,90,0
0,67,105,0
0,59,83,2
0,42,0,4
0,35,0,0
0,46,50,234
0,40,93,0
0,59,111,0
0,46,0,6
0,40,0,0
0,62,102,4
0,67,112,10
0,43,0,120
0,31,0,3
0,67,0,0
0,59,0,2
0,71,0,1
0,83,0,5
0,43,90,86
0,31,117,3
0,42,44,0
0,40,50,0
0,35,91,0
0,67,100,0
0,59,94,0
0,42,0,6
0,40,0,0
0,35,0,0
0,43,0,182
0,31,0,3
0,67,0,0
0,59,0,0
0,45,97,46
0,33,118,0
0,42,58,0
0,35,116,0
0,69,100,0
0,61,87,0
0,69,113,2
0,42,0,4
0,35,0,0
0,81,117,1
0,59,0,16
0,62,0,10
0,67,0,10
0,69,0,122
0,81,0,5
0,45,0,10
0,33,0,3
0,69,0,0
0,61,0,0
0,45,97,54
0,61,93,0
0,33,114,3
0,42,54,0
0,40,47,0
0,35,94,0
0,69,109,2
0,42,0,4
0,40,0,0
0,35,0,0
0,71,103,3
0,83,112,5
0,71,0,186
0,83,0,5
0,69,101,4
0,81,106,5
0,46,50,15
0,40,104,0
0,61,102,0
0,46,0,6
0,40,0,0
0,64,108,4
0,69,112,10
0,45,0,120
