track,note,velocity,time
1,25,127,192
1,49,127,0
1,37,127,0
1,37,0,148
1,49,0,0
1,25,0,0
1,25,66,288
1,49,66,0
1,37,66,0
1,37,0,8
1,49,0,0
1,25,0,0
1,25,127,88
1,49,127,0
1,37,127,0
1,37,0,132
1,49,0,0
1,25,0,0
1,25,93,64
1,49,93,0
1,37,93,0
1,37,0,8
1,49,0,0
1,25,0,0
1,25,127,76
1,49,127,0
1,37,127,0
1,37,0,124
1,49,0,0
1,25,0,0
1,25,127,192
1,49,127,0
1,37,127,0
1,37,0,148
1,49,0,0
1,25,0,0
1,25,66,288
1,49,66,0
1,37,66,0
1,37,0,8
1,49,0,0
1,25,0,0
1,25,127,88
1,49,127,0
1,37,127,0
1,37,0,132
1,49,0,0
1,25,0,0
1,25,93,64
1,49,93,0
1,37,93,0
1,37,0,8
1,49,0,0
1,25,0,0
1,25,127,76
1,49,127,0
1,37,127,0
1,37,0,124
1,49,0,0
1,25,0,0
1,25,127,192
1,49,127,0
1,37,127,0
1,37,0,148
1,49,0,0
1,25,0,0
1,25,66,288
1,49,66,0
1,37,66,0
1,37,0,8
1,49,0,0
1,25,0,0
1,25,127,88
1,49,127,0
1,37,127,0
1,37,0,132
1,49,0,0
1,25,0,0
1,25,93,64
1,49,93,0
1,37,93,0
1,37,0,8
1,49,0,0
1,25,0,0
1,25,127,76
1,49,127,0
1,37,127,0
1,37,0,124
1,49,0,0
1,25,0,0
1,25,127,192
1,49,127,0
1,37,127,0
1,37,0,148
1,49,0,0
1,25,0,0
1,25,66,288
1,49,66,0
1,37,66,0
1,37,0,8
1,49,0,0
1,25,0,0
1,25,127,88
1,49,127,0
1,37,127,0
1,37,0,132
1,49,0,0
1,25,0,0
1,25,93,64
1,49,93,0
1,37,93,0
1,37,0,8
1,49,0,0
1,25,0,0
1,25,127,76
1,49,127,0
1,37,127,0
1,37,0,124
1,49,0,0
1,25,0,0
1,25,127,192
1,49,127,0
1,37,127,0
1,37,0,148
1,49,0,0
1,25,0,0
1,25,66,288
1,49,66,0
1,37,66,0
1,37,0,8
1,49,0,0
1,25,0,0
1,25,127,88
1,49,127,0
1,37,127,0
1,37,0,132
1,49,0,0
1,25,0,0
1,25,93,64
1,49,93,0
1,37,93,0
1,37,0,8
1,49,0,0
1,25,0,0
1,25,127,76
1,49,127,0
1,37,127,0
1,37,0,124
1,49,0,0
1,25,0,0
1,25,127,192
1,49,127,0
1,37,127,0
1,37,0,148
1,49,0,0
1,25,0,0
1,25,66,288
1,49,66,0
1,37,66,0
1,37,0,8
1,49,0,0
1,25,0,0
1,25,127,88
1,49,127,0
1,37,127,0
1,37,0,132
1,49,0,0
1,25,0,0
1,25,93,64
1,49,93,0
1,37,93,0
1,37,0,8
1,49,0,0
1,25,0,0
1,25,127,76
1,49,127,0
1,37,127,0
1,37,0,124
1,49,0,0
1,25,0,0
1,25,127,192
1,49,127,0
1,37,127,0
1,37,0,148
1,49,0,0
1,25,0,0
1,25,66,288
1,49,66,0
1,37,66,0
1,37,0,8
1,49,0,0
1,25,0,0
1,25,127,88
1,49,127,0
1,37,127,0
1,37,0,132
1,49,0,0
1,25,0,0
1,25,93,64
1,49,93,0
1,37,93,0
1,37,0,8
1,49,0,0
1,25,0,0
1,25,127,76
1,49,127,0
1,37,127,0
1,37,0,124
1,49,0,0
1,25,0,0
1,25,127,192
1,49,127,0
1,37,127,0
1,37,0,148
1,49,0,0
1,25,0,0
1,25,66,288
1,49,66,0
1,37,66,0
1,37,0,8
1,49,0,0
1,25,0,0
1,25,127,88
1,49,127,0
1,37,127,0
1,37,0,132
1,49,0,0
1,25,0,0
1,25,93,64
1,49,93,0
1,37,93,0
1,37,0,8
1,49,0,0
1,25,0,0
1,25,127,76
1,49,127,0
1,37,127,0
1,37,0,124
1,49,0,0
1,25,0,0
1,25,127,192
1,49,127,0
1,37,127,0
1,37,0,148
1,49,0,0
1,25,0,0
1,25,66,288
1,49,66,0
1,37,66,0
1,37,0,8
1,49,0,0
1,25,0,0
1,25,127,88
1,49,127,0
1,37,127,0
1,37,0,132
1,49,0,0
1,25,0,0
1,25,93,64
1,49,93,0
1,37,93,0
1,37,0,8
1,49,0,0
1,25,0,0
1,25,127,76
1,49,127,0
1,37,127,0
1,37,0,124
1,49,0,0
1,25,0,0
1,25,127,192
1,49,127,0
1,37,127,0
1,37,0,148
1,49,0,0
1,25,0,0
1,25,66,288
1,49,66,0
1,37,66,0
1,37,0,8
1,49,0,0
1,25,0,0
1,25,127,88
1,49,127,0
1,37,127,0
1,37,0,132
1,49,0,0
1,25,0,0
1,25,93,64
1,49,93,0
1,37,93,0
1,37,0,8
1,49,0,0
1,25,0,0
1,25,127,76
1,49,127,0
1,37,127,0
1,37,0,124
1,49,0,0
1,25,0,0
1,25,127,192
1,49,127,0
1,37,127,0
1,37,0,148
1,49,0,0
1,25,0,0
1,25,66,288
1,49,66,0
1,37,66,0
1,37,0,8
1,49,0,0
1,25,0,0
1,25,127,88
1,49,127,0
1,37,127,0
1,37,0,132
1,49,0,0
1,25,0,0
1,25,93,64
1,49,93,0
1,37,93,0
1,37,0,8
1,49,0,0
1,25,0,0
1,25,127,76
1,49,127,0
1,37,127,0
1,37,0,124
1,49,0,0
1,25,0,0
1,25,127,192
1,49,127,0
1,37,127,0
1,37,0,148
1,49,0,0
1,25,0,0
1,25,66,288
1,49,66,0
1,37,66,0
1,37,0,8
1,49,0,0
1,25,0,0
1,25,127,88
1,49,127,0
1,37,127,0
1,37,0,132
1,49,0,0
1,25,0,0
1,25,93,64
1,49,93,0
1,37,93,0
1,37,0,8
1,49,0,0
1,25,0,0
1,25,127,76
1,49,127,0
1,37,127,0
1,37,0,124
1,49,0,0
1,25,0,0
1,25,127,192
1,49,127,0
1,37,127,0
1,37,0,148
1,49,0,0
1,25,0,0
1,25,66,288
1,49,66,0
1,37,66,0
1,37,0,8
1,49,0,0
1,25,0,0
1,25,127,88
1,49,127,0
1,37,127,0
1,37,0,132
1,49,0,0
1,25,0,0
1,25,93,64
1,49,93,0
1,37,93,0
1,37,0,8
1,49,0,0
1,25,0,0
1,25,127,76
1,49,127,0
1,37,127,0
1,37,0,124
1,49,0,0
1,25,0,0
1,25,127,192
1,49,127,0
1,37,127,0
1,37,0,148
1,49,0,0
1,25,0,0
1,25,66,288
1,49,66,0
1,37,66,0
1,37,0,8
1,49,0,0
1,25,0,0
1,25,127,88
1,49,127,0
1,37,127,0
1,37,0,132
1,49,0,0
1,25,0,0
1,25,93,64
1,49,93,0
1,37,93,0
1,37,0,8
1,49,0,0
1,25,0,0
1,25,127,76
1,49,127,0
1,37,127,0
1,37,0,124
1,49,0,0
1,25,0,0
1,25,127,3464
1,49,127,0
1,37,127,0
1,37,0,92
1,49,0,0
1,25,0,0
1,13,127,4
1,37,127,0
1,25,127,0
1,25,0,92
1,37,0,0
1,13,0,0
1,26,127,4
1,50,127,0
1,38,127,0
1,38,0,92
1,50,0,0
1,26,0,0
1,25,102,4
1,49,102,0
1,37,102,0
1,37,0,92
1,49,0,0
1,25,0,0
1,25,127,2692
1,49,127,0
1,37,127,0
1,37,0,92
1,49,0,0
1,25,0,0
1,13,127,4
1,37,127,0
1,25,127,0
1,25,0,92
1,37,0,0
1,13,0,0
1,26,127,4
1,50,127,0
1,38,127,0
1,38,0,92
1,50,0,0
1,26,0,0
1,25,102,4
1,49,102,0
1,37,102,0
1,37,0,92
1,49,0,0
1,25,0,0
3,49,100,780
3,49,0,32
3,25,100,4
3,37,100,4
3,25,0,32
3,37,0,8
3,25,100,0
3,49,100,12
3,49,0,32
3,25,0,0
3,25,100,8
3,37,100,8
3,25,0,32
3,37,0,8
3,25,100,0
3,25,0,128
3,49,100,780
3,49,0,32
3,25,100,4
3,37,100,4
3,25,0,32
3,37,0,8
3,25,100,0
3,49,100,12
3,49,0,32
3,25,0,0
3,25,100,8
3,37,100,8
3,25,0,32
3,37,0,8
3,25,100,0
3,25,0,128
3,49,100,780
3,49,0,32
3,25,100,4
3,37,100,4
3,25,0,32
3,37,0,8
3,25,100,0
3,49,100,12
3,49,0,32
3,25,0,0
3,25,100,8
3,37,100,8
3,25,0,32
3,37,0,8
3,25,100,0
3,25,0,128
3,25,124,12288
3,25,0,80
3,37,111,16
3,37,0,80
3,25,93,16
3,25,0,88
3,49,102,8
3,49,0,80
3,26,127,16
3,38,96,96
3,26,0,8
3,38,0,56
3,25,84,32
3,25,0,80
3,37,77,16
3,37,0,64
3,25,96,32
3,25,0,76
3,37,79,20
3,37,0,56
3,25,55,40
3,25,0,44
3,49,77,52
3,49,0,56
3,25,58,40
3,25,0,48
3,37,55,48
3,37,0,64
3,25,84,32
3,25,0,64
3,37,84,32
3,37,0,72
3,25,91,24
3,25,0,84
3,37,79,12
3,37,0,68
3,25,102,28
3,25,0,96
3,37,74,0
3,37,0,64
3,26,127,32
3,26,0,88
3,38,86,8
3,38,0,72
3,25,102,24
3,25,0,68
3,37,84,28
3,37,0,64
3,25,84,32
3,25,0,68
3,37,74,28
3,37,0,76
3,25,84,20
3,25,0,56
3,49,77,40
3,49,0,68
3,25,64,28
3,25,0,48
3,37,72,48
3,37,0,68
3,37,74,124
3,37,0,76
3,25,84,20
3,25,0,64
3,37,79,32
3,37,0,76
3,25,96,20
3,25,0,68
3,37,89,28
3,37,0,76
3,26,127,20
3,26,0,84
3,38,91,12
3,38,0,52
3,25,84,44
3,25,0,68
3,37,96,28
3,37,0,68
3,25,105,28
3,25,0,68
3,37,35,28
3,37,0,68
3,25,77,28
3,25,0,64
3,49,79,32
3,49,0,80
3,25,93,16
3,25,0,64
3,37,79,32
3,37,0,80
3,25,84,16
3,25,0,52
3,37,99,44
3,37,0,92
3,25,127,4
3,25,0,80
3,37,102,16
3,37,0,80
3,25,114,16
3,25,0,68
3,37,102,28
3,37,0,80
3,26,89,16
3,26,0,84
3,38,124,12
3,38,0,76
3,25,114,20
3,25,0,72
3,37,79,24
3,37,0,76
3,25,84,20
3,25,0,72
3,37,74,24
3,37,0,68
3,25,66,28
3,25,0,60
3,49,69,36
3,49,0,68
3,25,79,28
3,25,0,48
3,37,55,48
3,37,0,52
3,25,64,44
3,25,0,40
3,37,96,56
3,37,0,96
3,25,93,0
3,25,0,84
3,37,86,12
3,37,0,80
3,25,114,16
3,25,0,76
3,37,81,20
3,37,0,80
3,26,120,16
3,26,0,80
3,38,108,16
3,38,0,64
3,25,99,32
3,25,0,72
3,37,89,24
3,37,0,72
3,25,117,24
3,25,0,76
3,37,64,20
3,37,0,88
3,25,96,8
3,25,0,64
3,49,86,32
3,49,0,80
3,25,58,16
3,25,0,44
3,37,79,52
3,37,0,80
3,25,84,16
3,25,0,56
3,37,84,40
3,37,0,80
3,25,108,16
3,25,0,72
3,37,84,24
3,37,0,80
3,25,89,16
3,25,0,64
3,37,69,32
3,37,0,60
3,26,114,36
3,26,0,80
3,38,102,16
3,38,0,64
3,25,89,32
3,25,0,68
3,37,74,28
3,37,0,60
3,25,117,36
3,25,0,68
3,37,55,28
3,37,0,68
3,25,84,28
3,25,0,64
3,49,66,32
3,49,0,80
3,25,58,16
3,25,0,52
3,37,58,44
3,37,0,76
3,25,72,20
3,25,0,64
3,37,102,32
3,37,0,88
3,25,91,8
3,25,0,72
3,37,84,24
3,37,0,64
3,25,89,32
3,25,0,72
3,37,74,24
3,37,0,80
3,26,126,16
3,26,0,80
3,38,89,16
3,38,0,64
3,25,96,32
3,25,0,72
3,37,79,24
3,37,0,68
3,25,102,28
3,25,0,68
3,37,79,28
3,37,0,64
3,25,108,32
3,25,0,72
3,49,105,24
3,49,0,84
3,25,74,12
3,25,0,64
3,37,74,32
3,37,0,76
3,25,61,20
3,25,0,52
3,37,77,44
3,37,0,80
3,25,127,16
3,25,0,72
3,37,96,24
3,37,0,84
3,25,117,12
3,25,0,76
3,37,84,20
3,37,0,80
3,26,127,16
3,26,0,80
3,38,93,16
3,38,0,64
3,25,102,32
3,25,0,80
3,37,93,16
3,37,0,68
3,25,111,28
3,25,0,72
3,37,79,24
3,37,0,80
3,25,105,16
3,25,0,80
3,49,93,16
3,49,0,92
3,25,89,4
3,25,0,72
3,37,84,24
3,37,0,80
3,25,99,16
3,25,0,72
3,37,96,24
3,37,0,56
3,25,93,40
3,25,0,84
3,37,86,12
3,37,0,80
3,25,114,16
3,25,0,76
3,37,81,20
3,37,0,80
3,26,120,16
3,26,0,80
3,38,108,16
3,38,0,64
3,25,99,32
3,25,0,72
3,37,89,24
3,37,0,72
3,25,117,24
3,25,0,76
3,37,64,20
3,37,0,88
3,25,96,8
3,25,0,64
3,49,86,32
3,49,0,80
3,25,58,16
3,25,0,44
3,37,79,52
3,37,0,80
3,25,84,16
3,25,0,56
3,37,84,40
3,37,0,80
3,25,108,16
3,25,0,72
3,37,84,24
3,37,0,80
3,25,89,16
3,25,0,64
3,37,69,32
3,37,0,60
3,26,114,36
3,26,0,80
3,38,102,16
3,38,0,64
3,25,89,32
3,25,0,68
3,37,74,28
3,37,0,60
3,25,117,36
3,25,0,68
3,37,55,28
3,37,0,68
3,25,84,28
3,25,0,64
3,49,66,32
3,49,0,80
3,25,58,16
3,25,0,52
3,37,58,44
3,37,0,76
3,25,72,20
3,25,0,64
3,37,102,32
3,37,0,88
3,25,91,8
3,25,0,72
3,37,84,24
3,37,0,64
3,25,89,32
3,25,0,72
3,37,74,24
3,37,0,80
3,26,126,16
3,26,0,80
3,38,89,16
3,38,0,64
3,25,96,32
3,25,0,72
3,37,79,24
3,37,0,68
3,25,102,28
3,25,0,68
3,37,79,28
3,37,0,64
3,25,108,32
3,25,0,72
3,49,105,24
3,49,0,84
3,25,74,12
3,25,0,64
3,37,74,32
3,37,0,76
3,25,61,20
3,25,0,52
3,37,77,44
3,37,0,80
3,25,127,16
3,25,0,72
3,37,96,24
3,37,0,84
3,25,117,12
3,25,0,76
3,37,84,20
3,37,0,80
3,26,127,16
3,26,0,80
3,38,93,16
3,38,0,64
3,25,102,32
3,25,0,80
3,37,93,16
3,37,0,68
3,25,111,28
3,25,0,72
3,37,79,24
3,37,0,80
3,25,105,16
3,25,0,80
3,49,93,16
3,49,0,92
3,25,89,4
3,25,0,72
3,37,84,24
3,37,0,80
3,25,99,16
3,25,0,72
3,37,96,24
3,37,0,56
4,70,117,13824
4,70,0,48
4,70,45,48
4,70,0,44
4,70,67,52
4,70,0,40
4,70,79,56
4,70,0,76
4,54,117,20
4,54,0,80
4,70,67,16
4,70,0,32
4,70,67,64
4,70,0,40
4,70,67,56
4,70,0,32
4,70,95,64
4,70,0,48
4,70,79,48
4,70,0,48
4,70,59,48
4,70,0,48
4,70,86,48
4,70,0,60
4,54,117,36
4,54,0,72
4,70,67,24
4,70,0,36
4,70,56,60
4,70,0,36
4,70,67,60
4,70,0,32
4,70,98,64
4,70,0,48
4,70,74,48
4,70,0,44
4,70,89,52
4,70,0,44
4,70,89,52
4,70,0,60
4,54,117,36
4,54,0,72
4,70,98,24
4,70,0,36
4,70,86,60
4,70,0,44
4,70,76,52
4,70,0,36
4,70,83,60
4,70,0,48
4,70,54,48
4,70,0,44
4,70,79,52
4,70,0,48
4,70,92,48
4,70,0,60
4,54,117,36
4,54,0,76
4,70,45,20
4,70,0,48
4,70,54,48
4,70,0,44
4,70,95,52
4,70,0,36
4,70,104,60
4,70,0,52
4,70,86,44
4,70,0,48
4,70,83,48
4,70,0,48
4,70,54,48
4,70,0,64
4,54,117,32
4,54,0,80
4,70,64,16
4,70,0,40
4,70,76,56
4,70,0,48
4,70,54,48
4,70,0,40
4,70,110,56
4,70,0,56
4,70,48,40
4,70,0,48
4,70,83,48
4,70,0,48
4,70,81,48
4,70,0,56
4,54,117,40
4,54,0,88
4,70,101,8
4,70,0,32
4,70,71,64
4,70,0,44
4,70,76,52
4,70,0,44
4,70,117,52
4,70,0,48
4,70,86,48
4,70,0,48
4,70,95,48
4,70,0,48
