track,note,velocity,time
2,41,116,8336
2,36,97,4
2,41,0,8
2,36,0,124
2,36,93,60
2,36,0,144
2,36,93,144
2,36,0,156
2,36,85,132
2,36,0,232
2,36,89,56
2,36,0,136
2,36,89,152
2,36,0,168
2,31,97,24
2,31,0,108
2,31,89,84
2,31,0,164
2,31,89,124
2,31,0,168
2,31,97,120
2,31,0,192
2,31,105,96
2,31,0,124
2,31,97,164
2,38,89,192
2,31,0,4
2,38,0,84
2,38,105,104
2,38,0,156
2,38,109,132
2,38,0,140
2,38,105,148
2,38,0,188
2,38,93,100
2,40,97,288
2,38,0,4
2,40,0,176
2,41,97,12
2,41,0,68
2,41,89,124
2,41,0,160
2,40,105,32
2,40,0,344
2,38,97,40
2,38,0,80
2,38,89,112
2,38,0,140
2,40,101,52
2,40,0,364
2,36,97,20
2,36,0,132
2,36,93,60
2,36,0,144
2,36,93,144
2,36,0,156
2,36,85,132
2,36,0,232
2,36,89,56
2,36,0,136
2,36,89,152
2,36,0,168
2,31,97,24
2,31,0,108
2,31,89,84
2,31,0,164
2,31,89,124
2,31,0,168
2,31,97,120
2,31,0,192
2,31,105,96
2,31,0,124
2,31,97,164
2,38,89,192
2,31,0,4
2,38,0,84
2,38,105,104
2,38,0,156
2,38,109,132
2,38,0,140
2,38,105,148
2,38,0,188
2,38,93,100
2,40,97,288
2,38,0,4
2,40,0,176
2,41,97,12
2,41,0,68
2,41,89,124
2,41,0,160
2,40,105,32
2,40,0,344
2,38,97,40
2,38,0,80
2,38,89,112
2,38,0,140
2,40,101,52
2,40,0,364
2,36,97,20
2,36,0,132
2,36,93,60
2,36,0,144
2,36,93,144
2,36,0,156
2,36,85,132
2,36,0,232
2,36,89,56
2,36,0,136
2,36,89,152
2,36,0,168
2,31,97,24
2,31,0,108
2,31,89,84
2,31,0,164
2,31,89,124
2,31,0,168
2,31,97,120
2,31,0,192
2,31,105,96
2,31,0,124
2,31,97,164
2,38,89,192
2,31,0,4
2,38,0,84
2,38,105,104
2,38,0,156
2,38,109,132
2,38,0,140
2,38,105,148
2,38,0,188
2,38,93,100
2,40,97,288
2,38,0,4
2,40,0,176
2,41,97,12
2,41,0,68
2,41,89,124
2,41,0,160
2,40,105,32
2,40,0,344
2,38,97,40
2,38,0,80
2,38,89,112
2,38,0,140
2,40,101,52
2,40,0,364
2,36,97,20
2,36,0,132
2,36,93,60
2,36,0,144
2,36,93,144
2,36,0,156
2,36,85,132
2,36,0,232
2,36,89,56
2,36,0,136
2,36,89,152
2,36,0,168
2,31,97,24
2,31,0,108
2,31,89,84
2,31,0,164
2,31,89,124
2,31,0,168
2,31,97,120
2,31,0,192
2,31,105,96
2,31,0,124
2,31,97,164
2,38,89,192
2,31,0,4
2,38,0,84
2,38,105,104
2,38,0,156
2,38,109,132
2,38,0,140
2,38,105,148
2,38,0,188
2,38,93,100
2,40,97,288
2,38,0,4
2,40,0,176
2,41,97,12
2,41,0,68
2,41,89,124
2,41,0,160
2,40,105,32
2,40,0,344
2,38,97,40
2,38,0,80
2,38,89,112
2,38,0,140
2,40,101,52
2,40,0,364
2,38,97,20
2,38,0,216
2,38,101,360
2,38,0,132
2,33,97,60
2,33,0,164
2,33,85,412
2,40,105,192
2,33,0,48
2,40,0,100
2,40,97,428
2,43,101,192
2,40,0,4
2,43,0,148
2,43,97,424
2,43,0,120
2,38,105,72
2,38,0,208
2,38,97,368
2,38,0,124
2,33,93,68
2,33,0,172
2,33,93,404
2,40,101,192
2,33,0,16
2,40,0,124
2,40,93,436
2,43,89,192
2,40,0,4
2,43,0,100
2,38,85,88
2,40,85,96
2,38,0,28
2,43,81,68
2,40,0,8
2,43,0,152
2,40,101,32
2,40,0,132
2,36,97,60
2,36,0,132
2,36,93,60
2,36,0,144
2,36,93,144
2,36,0,156
2,36,85,132
2,36,0,232
2,36,89,56
2,36,0,136
2,36,89,152
2,36,0,168
2,31,97,24
2,31,0,108
2,31,89,84
2,31,0,164
2,31,89,124
2,31,0,168
2,31,97,120
2,31,0,192
2,31,105,96
2,31,0,124
2,31,97,164
2,38,89,192
2,31,0,4
2,38,0,84
2,38,105,104
2,38,0,156
2,38,109,132
2,38,0,140
2,38,105,148
2,38,0,188
2,38,93,100
2,40,97,288
2,38,0,4
2,40,0,176
2,41,97,12
2,41,0,68
2,41,89,124
2,41,0,160
2,40,105,32
2,40,0,344
2,38,97,40
2,38,0,80
2,38,89,112
2,38,0,140
2,40,101,52
2,40,0,364
2,36,97,20
2,36,0,132
2,36,93,60
2,36,0,144
2,36,93,144
2,36,0,156
2,36,85,132
2,36,0,232
2,36,89,56
2,36,0,136
2,36,89,152
2,36,0,168
2,31,97,24
2,31,0,108
2,31,89,84
2,31,0,164
2,31,89,124
2,31,0,168
2,31,97,120
2,31,0,192
2,31,105,96
2,31,0,124
2,31,97,164
2,38,89,192
2,31,0,4
2,38,0,84
2,38,105,104
2,38,0,156
2,38,109,132
2,38,0,140
2,38,105,148
2,38,0,188
2,38,93,100
2,40,97,288
2,38,0,4
2,40,0,176
2,41,97,12
2,41,0,68
2,41,89,124
2,41,0,160
2,40,105,32
2,40,0,344
2,38,97,40
2,38,0,80
2,38,89,112
2,38,0,140
2,40,101,52
2,40,0,364
2,38,97,20
2,38,0,216
2,38,101,360
2,38,0,132
2,33,97,60
2,33,0,164
2,33,85,412
2,40,105,192
2,33,0,48
2,40,0,100
2,40,97,428
2,43,101,192
2,40,0,4
2,43,0,148
2,43,97,424
2,43,0,120
2,38,105,72
2,38,0,208
2,38,97,368
2,38,0,124
2,33,93,68
2,33,0,172
2,33,93,404
2,40,101,192
2,33,0,16
2,40,0,124
2,40,93,436
2,43,89,192
2,40,0,4
2,43,0,100
2,38,85,88
2,40,85,96
2,38,0,28
2,43,81,68
2,40,0,8
2,43,0,152
2,40,101,32
2,40,0,132
2,35,97,60
2,35,0,216
2,35,101,360
2,35,0,132
2,30,97,60
2,30,0,164
2,30,85,412
2,37,105,192
2,30,0,48
2,37,0,100
2,37,97,428
2,40,101,192
2,37,0,4
2,40,0,148
2,40,97,424
2,40,0,120
2,35,105,72
2,35,0,208
2,35,97,368
2,35,0,124
2,30,93,68
2,30,0,172
2,30,93,404
2,37,101,192
2,30,0,16
2,37,0,124
2,37,93,436
2,40,89,192
2,37,0,4
2,40,0,100
2,35,85,88
2,37,85,96
2,35,0,28
2,40,81,68
2,37,0,8
2,40,0,152
2,37,101,32
2,37,0,132
2,36,97,60
2,36,0,132
2,36,93,60
2,36,0,144
2,36,93,144
2,36,0,156
2,36,85,132
2,36,0,232
2,36,89,56
2,36,0,136
2,36,89,152
2,36,0,168
2,31,97,24
2,31,0,108
2,31,89,84
2,31,0,164
2,31,89,124
2,31,0,168
2,31,97,120
2,31,0,192
2,31,105,96
2,31,0,124
2,31,97,164
2,38,89,192
2,31,0,4
2,38,0,84
2,38,105,104
2,38,0,156
2,38,109,132
2,38,0,140
2,38,105,148
2,38,0,188
2,38,93,100
2,40,97,288
2,38,0,4
2,40,0,176
2,41,97,12
2,41,0,68
2,41,89,124
2,41,0,160
2,40,105,32
2,40,0,344
2,38,97,40
2,38,0,80
2,38,89,112
2,38,0,140
2,40,101,52
2,40,0,364
2,36,97,20
2,36,0,132
2,36,93,60
2,36,0,144
2,36,93,144
2,36,0,156
2,36,85,132
2,36,0,232
2,36,89,56
2,36,0,136
2,36,89,152
2,36,0,168
2,31,97,24
2,31,0,108
2,31,89,84
2,31,0,164
2,31,89,124
2,31,0,168
2,31,97,120
2,31,0,192
2,31,105,96
2,31,0,124
2,31,97,164
2,38,89,192
2,31,0,4
2,38,0,84
2,38,105,104
2,38,0,156
2,38,109,132
2,38,0,140
2,38,105,148
2,38,0,188
2,38,93,100
2,40,97,288
2,38,0,4
2,40,0,176
2,41,97,12
2,41,0,68
2,41,89,124
2,41,0,160
2,40,105,32
2,40,0,344
2,38,97,40
2,38,0,80
2,38,89,112
2,38,0,140
2,40,101,52
2,40,0,96
2,30,89,96
2,30,0,192
2,31,97,0
2,31,0,212
2,31,89,364
2,31,0,172
2,30,101,20
2,30,0,176
2,30,89,400
2,33,101,192
2,30,0,24
2,33,0,156
2,33,89,396
2,35,97,192
2,33,0,20
2,35,0,132
2,30,97,424
2,30,0,172
2,31,97,20
2,31,0,212
2,31,89,364
2,31,0,172
2,30,101,20
2,30,0,176
2,30,89,400
2,33,101,192
2,30,0,24
2,33,0,156
2,33,89,396
2,33,0,192
2,35,97,0
2,35,0,32
2,42,97,0
2,42,0,4
2,36,89,0
2,36,0,92
2,36,97,100
2,36,0,184
2,36,101,104
2,36,0,156
2,36,101,132
2,36,0,192
2,38,97,0
2,38,0,192
2,40,77,0
2,40,0,192
2,41,97,0
2,43,93,192
2,41,0,4
2,43,0,92
2,43,93,96
2,43,0,192
2,43,101,96
2,43,0,176
2,43,93,112
2,43,0,260
2,41,85,28
2,41,0,244
2,40,93,44
2,40,0,180
2,38,85,12
2,38,0,92
2,38,85,100
2,38,0,176
2,38,93,112
2,38,0,204
2,38,105,84
2,38,0,132
2,38,85,60
2,38,0,176
2,39,101,16
2,39,0,192
2,40,93,0
2,40,0,176
2,41,97,16
2,40,97,384
2,41,0,36
2,38,89,348
2,40,0,36
2,38,0,344
2,41,105,4
2,41,0,376
2,36,97,196
2,36,0,188
2,36,101,100
2,36,0,156
2,36,101,132
2,36,0,192
2,38,97,0
2,40,77,192
2,38,0,4
2,41,97,188
2,40,0,4
2,43,93,188
2,41,0,8
2,43,0,92
2,43,93,92
2,43,0,196
2,43,101,92
2,43,0,180
2,43,93,108
2,43,0,264
2,41,85,24
2,41,0,248
2,40,93,40
2,40,0,184
2,38,101,12
2,38,0,100
2,38,93,92
2,38,0,176
2,38,97,112
2,38,0,188
2,38,85,100
2,38,0,180
2,41,101,108
2,41,0,252
2,38,101,36
2,38,0,156
2,36,85,36
2,45,105,192
2,36,0,20
2,45,0,144
2,36,93,28
2,46,97,192
2,36,0,16
2,46,0,160
2,36,69,16
2,47,97,192
2,36,0,20
2,47,0,164
2,36,93,8
2,36,0,160
2,48,77,32
2,48,0,168
2,38,97,24
2,38,0,216
2,38,101,360
2,38,0,132
2,33,97,60
2,33,0,164
2,33,85,412
2,40,105,192
2,33,0,48
2,40,0,100
2,40,97,428
2,43,101,192
2,40,0,4
2,43,0,148
2,43,97,424
2,43,0,120
2,38,105,72
2,38,0,208
2,38,97,368
2,38,0,124
2,33,93,68
2,33,0,172
2,33,93,404
2,40,101,192
2,33,0,16
2,40,0,124
2,40,93,436
2,43,89,192
2,40,0,4
2,43,0,100
2,38,85,88
2,40,85,96
2,38,0,28
2,43,81,68
2,40,0,8
2,43,0,152
2,40,101,32
2,40,0,132
2,36,97,248
2,36,0,188
2,36,101,100
2,36,0,156
2,36,101,132
2,36,0,192
2,38,97,0
2,40,77,192
2,38,0,4
2,41,97,188
2,40,0,4
2,43,93,188
2,41,0,8
2,43,0,92
2,43,93,92
2,43,0,196
2,43,101,92
2,43,0,180
2,43,93,108
2,43,0,264
2,41,85,24
2,41,0,248
2,40,93,40
2,40,0,184
2,38,101,12
2,38,0,116
2,38,113,76
2,38,0,180
2,38,101,108
2,38,0,192
2,38,105,96
2,38,0,260
2,46,97,28
2,46,0,272
2,45,93,16
2,41,105,192
2,45,0,12
2,41,0,348
2,40,101,24
2,40,0,364
2,38,99,20
2,38,0,384
2,40,93,0
2,40,0,364
2,36,97,208
2,36,0,188
2,36,101,100
2,36,0,156
2,36,101,132
2,36,0,192
2,38,97,0
2,40,77,192
2,38,0,4
2,41,97,188
2,40,0,4
2,43,93,188
2,41,0,8
2,43,0,92
2,43,93,92
2,43,0,196
2,43,101,92
2,43,0,180
2,43,93,108
2,43,0,264
2,41,85,24
2,41,0,248
2,40,93,40
2,40,0,184
2,38,109,12
2,38,0,116
2,38,101,76
2,38,0,144
2,36,93,144
2,36,0,208
2,38,97,80
2,38,0,156
2,38,97,132
2,38,0,268
2,36,101,20
2,36,0,152
2,36,85,40
2,45,105,192
2,36,0,20
2,45,0,144
2,36,93,28
2,46,97,192
2,36,0,16
2,46,0,160
2,36,69,16
2,47,97,192
2,36,0,20
2,47,0,164
2,36,93,8
2,36,0,160
2,48,77,32
2,48,0,168
2,36,97,212
2,36,0,188
2,36,101,100
2,36,0,156
2,36,101,132
2,36,0,192
2,38,97,0
2,40,77,192
2,38,0,4
2,41,97,188
2,40,0,4
2,43,93,188
2,41,0,8
2,43,0,92
2,43,93,92
2,43,0,196
2,43,101,92
2,43,0,180
2,43,93,108
2,43,0,264
2,41,85,24
2,41,0,248
2,40,93,40
2,40,0,184
2,38,101,12
2,38,0,168
2,38,73,24
2,38,0,156
2,38,105,132
2,38,0,160
2,38,101,128
2,46,97,192
2,38,0,20
2,46,0,164
2,45,93,8
2,45,0,176
2,43,93,16
2,43,0,152
2,44,101,40
2,44,0,344
2,43,93,40
2,43,0,380
2,41,97,4
2,41,0,364
2,38,101,20
2,38,0,368
2,36,97,204
2,36,0,188
2,36,101,100
2,36,0,156
2,36,101,132
2,36,0,192
2,38,97,0
2,40,77,192
2,38,0,4
2,41,97,188
2,40,0,4
2,43,93,188
2,41,0,8
2,43,0,92
2,43,93,92
2,43,0,196
2,43,101,92
2,43,0,180
2,43,93,108
2,43,0,264
2,41,85,24
2,41,0,248
2,40,93,40
2,40,0,184
2,38,105,12
2,38,0,116
2,38,105,76
2,38,0,156
2,38,101,132
2,38,0,136
2,38,113,152
2,38,0,152
2,38,101,136
2,45,97,0
2,45,0,56
2,38,0,164
2,47,93,68
2,40,97,0
2,47,0,128
2,40,0,32
2,41,91,32
2,41,0,96
2,45,99,0
2,45,0,184
2,41,79,8
2,41,0,96
2,46,91,0
2,46,0,164
2,41,83,28
2,47,87,96
2,41,0,20
2,41,87,76
2,47,0,16
2,47,71,80
2,41,0,32
2,47,0,44
2,48,91,20
2,48,0,176
2,41,91,16
2,41,0,24
2,38,97,0
2,38,0,216
2,38,101,360
2,38,0,132
2,33,97,60
2,33,0,164
2,33,85,412
2,40,105,192
2,33,0,48
2,40,0,100
2,40,97,428
2,43,101,192
2,40,0,4
2,43,0,148
2,43,97,424
2,43,0,120
2,38,105,72
2,38,0,208
2,38,97,368
2,38,0,124
2,33,93,68
2,33,0,172
2,33,93,404
2,40,101,192
2,33,0,16
2,40,0,124
2,40,93,436
2,43,89,192
2,40,0,4
2,43,0,100
2,38,85,88
2,40,85,96
2,38,0,28
2,43,81,68
2,40,0,8
2,43,0,152
2,40,101,32
2,40,0,132
2,35,97,60
2,35,0,216
2,35,101,360
2,35,0,132
2,30,97,60
2,30,0,164
2,30,85,412
2,37,105,192
2,30,0,48
2,37,0,100
2,37,97,428
2,40,101,192
2,37,0,4
2,40,0,148
2,40,97,424
2,40,0,120
2,35,105,72
2,35,0,208
2,35,97,368
2,35,0,124
2,30,93,68
2,30,0,172
2,30,93,404
2,37,101,192
2,30,0,16
2,37,0,124
2,37,93,436
2,40,89,192
2,37,0,4
2,40,0,100
2,35,85,88
2,37,85,96
2,35,0,28
2,40,81,68
2,37,0,8
2,40,0,152
2,37,101,32
2,37,0,132
2,36,97,60
2,36,0,216
2,36,101,360
2,36,0,132
2,31,97,60
2,31,0,164
2,31,85,412
2,38,105,192
2,31,0,48
2,38,0,100
2,38,97,428
2,41,101,192
2,38,0,4
2,41,0,148
2,41,97,424
2,41,0,120
2,36,105,72
2,36,0,208
2,36,97,368
2,36,0,124
2,31,93,68
2,31,0,172
2,31,93,404
2,38,101,192
2,31,0,16
2,38,0,124
2,38,93,436
2,41,89,192
2,38,0,4
2,41,0,100
2,36,85,88
2,38,85,96
2,36,0,28
2,41,81,68
2,38,0,8
2,41,0,152
2,38,101,32
2,38,0,132
2,38,97,60
2,38,0,216
2,38,101,360
2,38,0,132
2,33,97,60
2,33,0,164
2,33,85,412
2,40,105,192
2,33,0,48
2,40,0,100
2,40,97,428
2,43,101,192
