track,note,velocity,time
1,38,99,2676
1,45,91,40
1,45,91,140
1,44,99,0
1,45,71,28
1,41,95,24
1,42,87,12
1,36,95,12
1,43,83,16
1,43,87,124
1,44,99,0
1,45,83,28
1,41,103,0
1,42,79,192
1,38,99,0
1,45,91,40
1,45,91,140
1,44,99,0
1,45,71,28
1,41,95,24
1,42,87,12
1,36,95,12
1,43,83,16
1,43,87,124
1,44,99,0
1,45,83,28
1,41,103,0
1,42,79,192
1,38,99,0
1,45,91,40
1,45,91,140
1,44,99,0
1,45,71,28
1,41,95,24
1,42,87,12
1,36,95,12
1,43,83,16
1,43,87,124
1,44,99,0
1,45,83,28
1,39,103,0
1,40,79,192
1,35,103,0
1,42,83,384
1,42,103,116
1,50,95,16
1,51,95,192
1,46,99,24
1,47,103,4
1,34,103,36
1,41,83,0
1,41,87,100
1,45,99,0
1,46,95,192
1,49,99,52
1,50,99,192
1,38,99,20
1,45,91,40
1,45,91,140
1,44,99,0
1,45,71,28
1,41,95,24
1,42,87,12
1,36,95,12
1,43,83,16
1,43,87,124
1,44,99,0
1,45,83,28
1,41,103,0
1,42,79,192
1,38,99,0
1,45,91,40
1,45,91,140
1,44,99,0
1,45,71,28
1,41,95,24
1,42,87,12
1,36,95,12
1,43,83,16
1,43,87,124
1,44,99,0
1,45,83,28
1,39,103,0
1,40,79,192
1,41,95,0
1,45,103,384
1,45,99,112
1,44,95,28
1,45,107,192
1,48,115,184
1,45,107,12
1,40,115,24
1,44,103,0
1,44,107,132
1,43,99,192
1,44,111,188
1,47,115,4
1,44,115,4
1,38,99,0
1,45,91,40
1,45,91,140
1,44,99,0
1,45,71,28
1,41,95,24
1,42,87,12
1,36,95,12
1,43,83,16
1,43,87,124
1,44,99,0
1,45,83,28
1,41,103,0
1,42,79,192
1,38,99,0
1,45,91,40
1,45,91,140
1,44,99,0
1,45,71,28
1,41,95,24
1,42,87,12
1,36,95,12
1,43,83,16
1,43,87,124
1,44,99,0
1,45,83,28
1,41,103,0
1,42,79,192
1,38,99,0
1,45,91,40
1,45,91,140
1,44,99,0
1,45,71,28
1,41,95,24
1,42,87,12
1,36,95,12
1,43,83,16
1,43,87,124
1,44,99,0
1,45,83,28
1,39,103,0
1,40,79,192
1,41,95,0
1,45,103,384
1,45,99,112
1,44,95,28
1,45,107,192
1,48,115,184
1,45,107,12
1,40,115,24
1,44,103,0
1,44,107,132
1,43,99,192
1,44,111,188
1,47,115,4
1,44,115,4
1,40,115,0
1,40,119,156
1,38,111,28
1,36,115,44
1,36,111,172
1,40,123,160
1,40,123,176
1,35,111,176
1,35,111,152
1,40,115,160
1,40,119,156
1,38,111,28
1,36,115,44
1,36,111,172
1,40,123,160
1,40,123,176
1,35,111,176
1,35,111,152
1,42,107,160
1,42,103,164
1,40,87,24
1,38,103,32
1,38,91,156
1,42,99,24
1,42,107,60
1,42,107,156
1,37,95,160
1,37,103,140
1,40,111,148
1,40,123,112
1,38,99,36
1,36,119,76
1,35,123,108
1,38,99,124
1,45,91,40
1,45,91,140
1,44,99,0
1,45,71,28
1,41,95,24
1,42,87,12
1,36,95,12
1,43,83,16
1,43,87,124
1,44,99,0
1,45,83,28
1,41,103,0
1,42,79,192
1,38,99,0
1,45,91,40
1,45,91,140
1,44,99,0
1,45,71,28
1,41,95,24
1,42,87,12
1,36,95,12
1,43,83,16
1,43,87,124
1,44,99,0
1,45,83,28
1,41,103,0
1,42,79,192
1,38,99,0
1,45,91,40
1,45,91,140
1,44,99,0
1,45,71,28
1,41,95,24
1,42,87,12
1,36,95,12
1,43,83,16
1,43,87,124
1,44,99,0
1,45,83,28
1,41,103,0
1,42,79,192
1,38,99,0
1,45,91,40
1,45,91,140
1,44,99,0
1,45,71,28
1,41,95,24
1,42,87,12
1,36,95,12
1,43,83,16
1,43,87,124
1,44,99,0
1,45,83,28
1,39,103,0
1,40,79,192
1,41,95,0
1,45,103,384
1,45,99,112
1,44,95,28
1,45,107,192
1,48,115,184
1,45,107,12
1,40,115,24
1,44,103,0
1,44,107,132
1,43,99,192
1,44,111,188
1,47,115,4
1,44,115,4
1,42,115,0
1,42,119,156
1,40,111,28
1,38,115,44
1,38,111,172
1,42,123,160
1,42,123,176
1,37,111,176
1,37,111,152
1,42,95,160
1,42,87,144
1,40,75,24
1,38,87,36
1,38,83,160
1,42,83,192
1,42,99,52
1,42,95,184
1,37,95,152
1,37,103,144
1,40,103,164
1,40,103,120
1,38,87,28
1,36,103,60
1,35,103,76
1,38,99,96
1,45,91,40
1,45,91,140
1,44,99,0
1,45,71,28
1,41,95,24
1,42,87,12
1,36,95,12
1,43,83,16
1,43,87,124
1,44,99,0
1,45,83,28
1,41,103,0
1,42,79,192
1,38,99,0
1,45,91,40
1,45,91,140
1,44,99,0
1,45,71,28
1,41,95,24
1,42,87,12
1,36,95,12
1,43,83,16
1,43,87,124
1,44,99,0
1,45,83,28
1,39,103,0
1,40,79,192
1,35,103,0
1,42,83,384
1,42,103,116
1,50,95,16
1,51,95,192
1,46,99,24
1,47,103,4
1,34,103,36
1,41,83,0
1,41,87,100
1,45,99,0
1,46,95,192
1,49,99,52
1,50,99,192
1,40,107,20
1,39,107,192
1,37,99,8
1,33,107,8
1,33,107,232
1,37,103,192
1,39,107,4
1,39,111,56
1,39,107,84
1,40,115,920
1,39,107,24
1,37,99,20
1,33,111,48
1,37,99,316
1,40,107,192
1,42,103,12
1,42,103,72
1,42,107,84
1,42,99,920
1,38,103,192
1,37,107,36
1,35,107,28
1,35,103,316
1,33,107,36
1,31,111,40
1,31,107,44
1,31,115,84
1,31,115,956
1,43,115,16
1,31,111,36
1,43,123,68
1,33,103,544
1,33,111,56
1,33,107,64
1,33,115,60
1,38,99,200
1,45,91,40
1,45,91,140
1,44,99,0
1,45,71,28
1,41,95,24
1,42,87,12
1,36,95,12
1,43,83,16
1,43,87,124
1,44,99,0
1,45,83,28
1,41,103,0
1,42,79,192
1,38,99,0
1,45,91,40
1,45,91,140
1,44,99,0
1,45,71,28
1,41,95,24
1,42,87,12
1,36,95,12
1,43,83,16
1,43,87,124
1,44,99,0
1,45,83,28
1,39,103,0
1,40,79,192
1,38,99,0
1,45,91,40
1,45,91,140
1,44,99,0
1,45,71,28
1,41,95,24
1,42,87,12
1,36,95,12
1,43,83,16
1,43,87,124
1,44,99,0
1,45,83,28
1,39,103,0
1,40,79,192
1,38,99,0
1,45,91,40
1,45,91,140
1,44,99,0
1,45,71,28
1,41,95,24
1,42,87,12
1,36,95,12
1,43,83,16
1,43,87,124
1,44,99,0
1,45,83,28
1,39,103,0
1,40,79,192
1,41,95,0
1,45,103,384
1,45,99,112
1,44,95,28
1,45,107,192
1,48,115,184
1,45,107,12
1,40,115,24
1,44,103,0
1,44,107,132
1,43,99,192
1,44,111,188
1,47,115,4
1,44,115,4
1,40,115,0
1,40,119,156
1,38,111,28
1,36,115,44
1,36,111,172
1,40,123,160
1,40,123,176
1,35,111,176
1,35,111,152
1,40,115,160
1,40,111,124
1,38,95,44
1,36,99,56
1,36,107,176
1,40,103,164
1,40,103,148
1,35,91,176
1,37,95,36
1,39,107,40
1,40,99,12
1,42,103,72
1,42,99,140
1,40,99,36
1,38,99,52
1,38,99,184
1,42,97,188
1,42,99,184
1,37,91,188
1,37,99,160
1,42,103,208
1,42,99,140
1,40,99,36
1,38,99,52
1,38,99,184
1,42,97,188
1,42,99,184
1,37,91,188
1,37,99,160
1,40,115,208
1,40,119,156
1,38,111,28
1,36,115,44
1,36,111,172
1,40,123,160
1,40,123,176
1,35,111,176
1,35,111,152
1,40,115,160
1,40,111,124
1,38,95,44
1,36,99,56
1,36,107,176
1,40,103,164
1,40,103,148
1,35,91,176
1,37,95,36
1,39,107,40
1,40,99,12
1,42,103,72
1,42,99,140
1,40,99,36
1,38,99,52
1,38,99,184
1,42,97,188
1,42,99,184
1,37,91,188
1,37,99,160
1,42,103,208
1,42,99,140
1,40,99,36
1,38,99,52
1,38,99,184
1,42,97,188
1,42,99,184
1,37,91,188
1,37,99,160
1,40,115,208
1,40,119,156
1,38,111,28
1,36,115,44
1,36,111,172
1,40,123,160
1,40,123,176
1,35,111,176
1,35,111,152
1,40,115,160
1,40,111,124
1,38,95,44
1,36,99,56
1,36,107,176
1,40,103,164
1,40,103,148
1,35,91,176
1,37,95,36
1,39,107,40
1,40,99,12
1,42,103,72
1,42,99,140
1,40,99,36
1,38,99,52
1,38,99,184
1,42,97,188
1,42,99,184
1,37,91,188
1,37,99,160
1,40,103,208
1,40,103,120
1,38,87,28
1,36,103,60
1,35,103,76
1,38,99,96
1,26,103,0
2,38,115,2656
2,62,115,192
2,69,111,0
2,66,111,0
2,38,103,32
2,66,111,4
2,69,111,0
2,62,103,0
2,38,111,32
2,69,107,192
2,66,107,0
2,62,103,0
2,38,115,8
2,69,107,8
2,62,103,0
2,66,107,0
2,40,115,32
2,60,111,192
2,64,111,0
2,69,111,0
2,40,115,60
2,69,107,192
2,60,111,0
2,64,107,0
2,40,115,20
2,69,107,192
2,64,107,0
2,60,111,0
2,40,119,24
2,60,111,16
2,69,111,0
2,64,111,0
2,38,115,44
2,62,115,192
2,66,111,0
2,69,111,0
2,38,103,32
2,66,111,4
2,69,111,0
2,62,103,0
2,38,111,32
2,66,107,192
2,62,103,0
2,69,107,0
2,38,115,8
2,62,103,8
2,69,107,0
2,66,107,0
2,40,115,32
2,60,111,192
2,69,111,0
2,64,111,0
2,40,115,60
2,69,107,192
2,60,111,0
2,64,107,0
2,40,115,20
2,69,107,192
2,60,111,0
2,64,107,0
2,40,119,24
2,69,111,16
2,64,111,0
2,60,111,0
2,38,115,44
2,62,115,192
2,69,111,0
2,66,111,0
2,38,103,32
2,62,103,4
2,69,111,0
2,66,111,0
2,38,111,32
2,62,103,192
2,69,107,0
2,66,107,0
2,38,115,8
2,66,107,8
2,62,103,0
2,69,107,0
2,40,115,32
2,69,111,192
2,60,111,0
2,64,111,0
2,40,115,60
2,60,111,192
2,64,107,0
2,69,107,0
2,40,115,20
2,69,107,192
2,64,107,0
2,60,111,0
2,40,119,24
2,69,111,16
2,60,111,0
2,64,111,0
2,66,107,236
2,63,99,0
2,71,79,0
2,66,103,284
2,71,99,0
2,63,95,0
2,71,103,284
2,66,99,0
2,63,99,0
2,66,103,280
2,71,91,0
2,63,99,0
2,65,95,308
2,62,103,0
2,74,99,0
2,65,95,240
2,74,111,0
2,62,79,0
2,74,107,256
2,62,91,0
2,65,95,0
2,62,99,264
2,65,103,0
2,74,111,0
2,38,115,76
2,69,111,192
2,66,111,0
2,62,115,0
2,38,103,32
2,66,111,4
2,69,111,0
2,62,103,0
2,38,111,32
2,69,107,192
2,66,107,0
2,62,103,0
2,38,115,8
2,62,103,8
2,66,107,0
2,69,107,0
2,40,115,32
2,60,111,192
2,69,111,0
2,64,111,0
2,40,115,60
2,60,111,192
2,69,107,0
2,64,107,0
2,40,115,20
2,69,107,192
2,60,111,0
2,64,107,0
2,40,119,24
2,60,111,16
2,64,111,0
2,69,111,0
2,38,115,44
2,69,111,192
2,62,115,0
2,66,111,0
2,38,103,32
2,66,111,4
2,62,103,0
2,69,111,0
2,38,111,32
2,66,107,192
2,69,107,0
2,62,103,0
2,38,115,8
2,62,103,8
2,69,107,0
2,66,107,0
2,40,115,32
2,64,111,192
2,69,111,0
2,60,111,0
2,40,115,60
2,60,111,192
2,64,107,0
2,69,107,0
2,40,115,20
2,64,107,192
2,69,107,0
2,60,111,0
2,40,119,24
2,60,111,16
2,69,111,0
2,64,111,0
2,41,111,44
2,72,111,8
2,69,95,0
2,65,111,0
2,41,115,76
2,65,99,192
2,72,95,0
2,69,87,0
2,41,115,80
2,72,103,192
2,65,99,0
2,69,99,0
2,41,119,104
2,65,103,192
2,69,95,0
2,72,103,0
2,40,115,60
2,68,95,192
2,64,95,0
2,71,91,0
2,40,119,92
2,68,91,192
2,71,91,0
2,64,103,0
2,40,119,104
2,68,95,192
2,64,103,0
2,71,99,0
2,40,123,112
2,68,95,4
2,64,99,0
2,71,91,0
2,38,115,96
2,62,115,192
2,66,111,0
2,69,111,0
2,38,103,32
2,69,111,4
2,62,103,0
2,66,111,0
2,38,111,32
2,62,103,192
2,66,107,0
2,69,107,0
2,38,115,8
2,69,107,8
2,62,103,0
2,66,107,0
2,40,115,32
2,69,111,192
2,60,111,0
2,64,111,0
2,40,115,60
2,69,107,192
2,64,107,0
2,60,111,0
2,40,115,20
2,64,107,192
2,69,107,0
2,60,111,0
2,40,119,24
2,64,111,16
2,60,111,0
2,69,111,0
2,38,115,44
2,62,115,192
2,69,111,0
2,66,111,0
2,38,103,32
2,66,111,4
2,69,111,0
2,62,103,0
2,38,111,32
2,66,107,192
2,62,103,0
2,69,107,0
2,38,115,8
2,66,107,8
2,62,103,0
2,69,107,0
2,40,115,32
2,64,111,192
2,60,111,0
2,69,111,0
2,40,115,60
2,64,107,192
2,60,111,0
2,69,107,0
2,40,115,20
2,69,107,192
2,60,111,0
2,64,107,0
2,40,119,24
2,60,111,16
2,69,111,0
2,64,111,0
2,38,115,44
2,62,115,192
2,69,111,0
2,66,111,0
2,38,103,32
2,62,103,4
2,69,111,0
2,66,111,0
2,38,111,32
2,62,103,192
2,69,107,0
2,66,107,0
2,38,115,8
2,62,103,8
2,66,107,0
2,69,107,0
2,40,115,32
2,69,111,192
2,60,111,0
2,64,111,0
2,40,115,60
2,60,111,192
2,64,107,0
2,69,107,0
2,40,115,20
2,64,107,192
2,69,107,0
2,60,111,0
2,40,119,24
2,60,111,16
2,64,111,0
2,69,111,0
2,41,111,44
2,65,111,8
2,69,95,0
2,72,111,0
2,41,115,76
2,72,95,192
2,65,99,0
2,69,87,0
2,41,115,80
2,69,99,192
2,72,103,0
2,65,99,0
2,41,119,104
2,72,103,192
2,65,103,0
2,69,95,0
2,40,115,60
2,68,95,192
2,64,95,0
2,71,91,0
2,40,119,92
2,68,91,192
2,71,91,0
2,64,103,0
2,40,119,104
2,71,99,192
2,64,103,0
2,68,95,0
2,40,123,112
2,64,99,4
2,71,91,0
2,68,95,0
2,67,103,96
2,71,107,0
2,52,91,0
2,67,103,68
2,71,107,0
2,67,95,108
2,52,99,0
2,71,103,0
2,67,95,52
2,71,107,0
2,48,95,88
2,70,103,0
2,67,107,0
2,70,103,252
2,67,99,0
2,48,91,0
2,52,95,236
2,67,107,0
2,71,107,0
2,67,95,228
2,71,95,0
2,52,103,0
2,69,99,76
2,74,111,0
2,47,99,108
2,76,87,0
2,71,107,0
2,74,103,32
2,69,99,0
2,71,95,100
2,66,107,0
2,47,99,0
2,67,103,236
2,52,91,0
2,71,107,0
2,67,103,68
2,71,107,0
2,71,103,108
2,52,99,0
2,67,95,0
2,67,95,52
2,71,107,0
2,48,95,88
2,70,103,0
2,67,107,0
2,67,99,252
2,70,103,0
2,48,91,0
2,52,95,236
2,71,107,0
2,67,107,0
2,52,103,228
2,67,95,0
2,71,95,0
2,69,99,76
2,74,111,0
2,47,99,108
2,76,87,0
2,71,107,0
2,69,99,32
2,74,103,0
2,66,107,100
2,71,95,0
2,47,99,0
2,66,111,236
2,54,99,0
2,69,99,0
2,73,115,0
2,73,111,44
2,66,107,0
2,69,99,0
2,73,107,116
2,69,95,0
2,66,107,0
2,54,99,0
2,73,99,108
2,66,99,0
2,69,67,0
2,66,91,88
2,69,87,0
2,50,99,0
2,72,83,0
2,66,115,76
2,69,91,0
2,72,103,0
2,50,91,56
2,69,107,12
2,73,111,0
2,66,107,0
2,54,95,192
2,69,111,32
2,66,107,0
2,66,103,96
2,54,91,0
2,69,99,0
2,68,103,28
2,71,95,0
2,49,99,92
2,73,107,0
2,69,67,0
2,71,95,8
2,68,107,0
2,49,103,88
2,65,103,0
2,68,111,0
2,52,95,168
2,67,99,0
2,71,107,0
2,64,111,0
2,64,103,4
2,67,91,0
2,71,95,0
2,52,99,96
2,67,91,0
2,64,83,0
2,71,79,0
