track,note,velocity,time
1,35,91,2652
1,34,87,768
1,32,99,36
1,29,115,16
1,36,75,384
1,36,79,120
1,36,63,99
1,36,83,109
1,29,99,64
1,36,87,22
1,35,91,73
1,34,87,768
1,32,99,36
1,29,103,16
1,36,83,384
1,36,83,106
1,36,75,120
1,36,79,119
1,29,95,45
1,36,87,192
1,32,95,25
1,39,95,4
1,39,83,98
1,39,83,117
1,39,91,116
1,32,99,69
1,39,103,5
1,34,99,76
1,41,75,384
1,41,67,96
1,41,83,67
1,41,79,102
1,34,91,21
1,41,87,192
1,35,99,29
1,34,95,19
1,32,99,34
1,29,103,92
1,36,83,384
1,36,83,106
1,36,75,120
1,36,79,119
1,29,95,45
1,36,87,192
1,32,95,25
1,39,95,4
1,39,83,98
1,39,83,117
1,39,91,116
1,32,99,69
1,39,103,5
1,34,99,76
1,41,75,384
1,41,67,96
1,41,83,67
1,41,79,102
1,34,91,21
1,41,87,192
1,35,99,29
1,34,95,19
1,32,99,34
1,34,95,92
1,34,99,192
1,45,91,4
1,46,87,34
1,45,91,0
1,46,83,11
1,29,107,11
1,29,103,192
1,40,95,192
1,41,87,23
1,40,87,0
1,41,95,13
1,34,95,35
1,34,83,192
1,45,87,48
1,46,87,10
1,45,83,192
1,46,91,15
1,36,91,22
1,36,83,78
1,36,91,78
1,35,79,29
1,36,87,42
1,34,95,561
1,34,99,192
1,45,91,4
1,46,87,34
1,45,91,0
1,46,83,11
1,29,107,11
1,29,103,192
1,40,95,192
1,41,87,23
1,40,87,0
1,41,95,13
1,34,87,35
1,34,87,22
1,45,83,32
1,46,91,11
1,45,87,192
1,36,99,147
1,36,91,109
1,36,107,68
1,36,95,88
1,35,103,81
1,34,95,44
1,32,103,58
1,29,103,92
1,36,83,384
1,36,83,106
1,36,75,120
1,36,79,119
1,29,95,45
1,36,87,192
1,32,95,25
1,39,95,4
1,39,83,98
1,39,83,117
1,39,91,116
1,32,99,69
1,39,103,5
1,34,99,76
1,41,75,384
1,41,67,96
1,41,83,67
1,41,79,102
1,34,91,21
1,41,87,192
1,35,99,29
1,34,95,19
1,32,99,34
1,29,103,92
1,36,83,384
1,36,83,106
1,36,75,120
1,36,79,119
1,29,95,45
1,36,87,192
1,32,95,25
1,39,95,4
1,39,83,98
1,39,83,117
1,39,91,116
1,32,99,69
1,39,103,5
1,34,99,76
1,41,75,384
1,41,67,96
1,41,83,67
1,41,79,102
1,34,91,21
1,41,87,192
1,35,99,29
1,34,95,19
1,32,99,34
1,34,95,92
1,34,99,192
1,45,91,4
1,46,87,34
1,45,91,0
1,46,83,11
1,29,107,11
1,29,103,192
1,40,95,192
1,41,87,23
1,40,87,0
1,41,95,13
1,34,95,35
1,34,83,192
1,45,87,48
1,46,87,10
1,45,83,192
1,46,91,15
1,36,91,22
1,36,83,78
1,36,91,78
1,35,79,29
1,36,87,42
1,34,95,561
1,34,99,192
1,45,91,4
1,46,87,34
1,45,91,0
1,46,83,11
1,29,107,11
1,29,103,192
1,40,95,192
1,41,87,23
1,40,87,0
1,41,95,13
1,34,87,35
1,34,87,192
1,45,83,32
1,46,91,11
1,45,87,192
1,36,91,147
1,36,91,49
1,36,95,98
1,36,91,91
1,36,91,94
1,37,95,25
1,38,91,243
1,38,83,90
1,38,99,98
1,40,91,235
1,40,87,87
1,40,91,90
1,38,91,254
1,38,71,91
1,38,91,95
1,35,87,45
1,35,83,90
1,34,95,4
1,35,87,15
1,38,91,219
1,38,83,90
1,38,99,98
1,40,91,235
1,40,87,87
1,40,91,90
1,38,91,254
1,38,71,91
1,38,91,95
1,35,87,45
1,35,83,90
1,34,95,4
1,35,87,15
1,38,91,219
1,38,83,90
1,38,99,98
1,40,91,235
1,40,87,87
1,40,91,90
1,38,91,254
1,38,71,91
1,38,91,95
1,35,87,45
1,35,83,90
1,34,95,4
1,35,87,15
1,38,91,219
1,38,83,90
1,38,99,98
1,40,91,235
1,40,87,87
1,40,91,90
1,38,95,254
1,38,95,94
1,38,95,109
1,35,107,85
1,34,99,0
1,33,107,52
1,32,107,768
1,29,103,19
1,36,83,384
1,36,83,106
1,36,75,120
1,36,79,119
1,29,95,45
1,36,87,192
1,32,95,25
1,39,95,4
1,39,83,98
1,39,83,117
1,39,91,116
1,32,99,69
1,39,103,5
1,34,99,76
1,41,75,384
1,41,67,96
1,41,83,67
1,41,79,102
1,34,91,21
1,41,87,192
1,35,99,29
1,34,95,19
1,32,99,34
1,29,103,92
1,36,83,384
1,36,83,106
1,36,75,120
1,36,79,119
1,29,95,45
1,36,87,192
1,32,95,25
1,39,95,4
1,39,83,98
1,39,83,117
1,39,91,116
1,32,99,69
1,39,103,5
1,34,99,76
1,41,75,384
1,41,67,96
1,41,83,67
1,41,79,102
1,34,91,21
1,41,87,192
1,35,99,29
1,34,95,19
1,32,99,34
1,34,95,92
1,34,99,192
1,45,91,4
1,46,87,34
1,45,91,0
1,46,83,11
1,29,107,11
1,29,103,192
1,40,95,192
1,41,87,23
1,40,87,0
1,41,95,13
1,34,95,35
1,34,83,192
1,45,87,48
1,46,87,10
1,45,83,192
1,46,91,15
1,36,91,22
1,36,83,78
1,36,91,78
1,35,79,29
1,36,87,42
1,34,95,561
1,34,99,192
1,45,91,4
1,46,87,34
1,45,91,0
1,46,83,11
1,29,107,11
1,29,103,192
1,40,95,192
1,41,87,23
1,40,87,0
1,41,95,13
1,34,87,35
1,34,87,192
1,45,83,32
1,46,91,11
1,45,87,192
1,36,91,147
1,36,91,49
1,36,95,98
1,36,91,91
1,36,91,94
1,37,95,25
1,38,91,243
1,38,83,90
1,38,99,98
1,40,91,235
1,40,87,87
1,40,91,90
1,38,91,254
1,38,71,91
1,38,91,95
1,35,87,45
1,35,83,90
1,34,95,4
1,35,87,15
1,38,91,219
1,38,83,90
1,38,99,98
1,40,91,235
1,40,87,87
1,40,91,90
1,38,91,254
1,38,71,91
1,38,91,95
1,35,87,45
1,35,83,90
1,34,95,4
1,35,87,15
1,38,91,219
1,38,83,90
1,38,99,98
1,40,91,235
1,40,87,87
1,40,91,90
1,38,91,254
1,38,71,91
1,38,91,95
1,35,87,45
1,35,83,90
1,34,95,4
1,35,87,15
1,38,91,219
1,38,83,90
1,38,99,98
1,40,91,235
1,40,87,87
1,40,91,90
1,38,95,254
1,38,95,94
1,38,95,109
1,35,107,85
1,34,99,0
1,33,107,52
1,32,107,768
1,29,103,19
1,41,87,0
1,29,91,26
1,41,99,18
1,29,95,34
1,41,79,0
1,29,107,65
1,41,75,0
1,32,91,58
1,44,83,192
1,32,95,63
1,44,87,192
1,32,95,72
1,44,87,0
1,32,95,56
1,44,91,0
1,34,87,50
1,46,95,8
1,34,79,35
1,46,83,192
1,34,87,63
1,46,83,192
1,34,95,57
1,46,95,192
1,35,95,89
1,34,107,384
1,33,99,28
1,32,103,0
1,29,103,36
1,41,87,0
1,29,91,26
1,41,99,18
1,29,95,34
1,41,79,0
1,29,107,65
1,41,75,0
1,32,91,58
1,44,83,192
1,32,95,63
1,44,87,192
1,32,95,72
1,44,87,0
1,32,95,56
1,44,91,0
1,34,87,50
1,46,95,8
1,34,79,35
1,46,83,192
1,34,87,63
1,46,83,192
1,34,95,57
1,46,95,192
1,35,95,89
1,34,107,384
1,33,99,28
1,32,103,0
1,29,103,36
1,41,87,0
1,29,91,26
1,41,99,18
1,29,95,34
1,41,79,0
1,29,107,65
1,41,75,0
1,32,91,58
1,44,83,192
1,32,95,63
1,44,87,192
1,32,95,72
1,44,87,0
1,32,95,56
1,44,91,0
1,34,87,50
1,46,95,8
1,34,79,35
1,46,83,192
1,34,87,63
1,46,83,192
1,34,95,57
1,46,95,192
1,35,95,89
1,34,107,384
1,33,99,28
1,32,103,0
1,29,103,36
1,41,87,0
1,29,91,26
1,41,99,18
1,29,95,34
1,41,79,0
1,29,107,65
1,41,75,0
1,32,91,58
1,44,83,192
1,32,95,63
1,44,87,192
1,32,95,72
1,44,87,0
1,32,95,56
1,44,91,0
1,34,87,50
1,46,95,8
1,34,79,35
1,46,83,192
1,34,87,63
1,46,83,192
1,34,95,57
1,46,95,192
1,35,95,89
1,34,107,384
1,33,99,28
1,32,103,0
1,29,103,36
1,41,87,0
1,29,91,26
1,41,99,18
1,29,95,34
1,41,79,0
1,29,107,65
1,41,75,0
1,32,91,58
1,44,83,192
1,32,95,63
1,44,87,192
1,32,95,72
1,44,87,0
1,32,95,56
1,44,91,0
1,34,87,50
1,46,95,8
1,34,79,35
1,46,83,192
1,34,87,63
1,46,83,192
1,34,95,57
1,46,95,192
1,35,95,89
1,34,107,384
1,33,99,28
1,32,103,0
1,29,119,804
1,29,109,10
2,57,99,4360
2,65,111,0
2,60,107,0
2,65,103,261
2,60,103,0
2,57,103,0
2,60,103,280
2,57,107,0
2,65,103,0
2,57,107,284
2,60,115,0
2,65,111,0
2,35,103,95
2,47,99,0
2,34,99,768
2,46,103,0
2,32,99,3
2,44,91,0
2,65,107,266
2,57,107,0
2,60,103,0
2,57,111,253
2,65,107,0
2,60,103,0
2,65,103,264
2,57,107,0
2,60,103,0
2,65,83,255
2,60,99,0
2,57,99,0
2,60,103,284
2,56,103,0
2,63,99,0
2,60,107,284
2,56,111,0
2,63,99,0
2,60,107,286
2,63,103,0
2,56,111,0
2,56,103,284
2,60,111,0
2,63,99,0
2,58,107,297
2,62,111,0
2,65,91,0
2,58,107,280
2,62,99,0
2,65,103,0
2,58,107,294
2,62,95,0
2,65,103,0
2,58,107,295
2,62,111,0
2,65,107,0
2,35,99,100
2,47,119,0
2,34,107,19
2,46,107,0
2,32,95,16
2,44,103,0
2,65,107,226
2,57,107,0
2,60,103,0
2,57,111,253
2,65,107,0
2,60,103,0
2,65,103,264
2,57,107,0
2,60,103,0
2,65,83,255
2,60,99,0
2,57,99,0
2,60,103,284
2,56,103,0
2,63,99,0
2,60,107,284
2,56,111,0
2,63,99,0
2,60,107,286
2,63,103,0
2,56,111,0
2,56,103,284
2,60,111,0
2,63,99,0
2,58,107,297
2,62,111,0
2,65,91,0
2,58,107,280
2,62,99,0
2,65,103,0
2,58,107,294
2,62,95,0
2,65,103,0
2,58,107,295
2,62,111,0
2,65,107,0
2,35,99,100
2,47,119,0
2,34,107,19
2,46,107,0
2,32,95,16
2,44,103,0
2,70,111,226
2,62,107,0
2,65,99,0
2,70,111,277
2,62,111,0
2,65,95,0
2,70,107,260
2,61,107,0
2,65,111,0
2,65,107,270
2,70,111,0
2,61,103,0
2,65,115,248
2,69,107,0
2,60,115,0
2,65,107,276
2,60,111,0
2,69,103,0
2,65,107,282
2,68,111,0
2,60,111,0
2,68,107,260
2,65,107,0
2,60,115,0
2,62,103,254
2,65,111,0
2,70,103,0
2,62,103,263
2,65,107,0
2,70,111,0
2,70,111,279
2,65,111,0
2,61,111,0
2,65,107,277
2,61,115,0
2,70,107,0
2,60,99,99
2,64,115,0
2,60,103,98
2,64,111,0
2,60,103,99
2,64,115,0
2,59,99,93
2,63,107,0
2,60,107,101
2,64,119,0
2,70,111,835
2,62,107,0
2,65,99,0
2,70,111,277
2,62,111,0
2,65,95,0
2,70,107,260
2,61,107,0
2,65,111,0
2,65,107,270
2,70,111,0
2,61,103,0
2,65,115,248
2,69,107,0
2,60,115,0
2,65,107,276
2,60,111,0
2,69,103,0
2,65,107,282
2,68,111,0
2,60,111,0
2,68,107,260
2,65,107,0
2,60,115,0
2,62,107,254
2,70,111,0
2,65,103,0
2,70,115,256
2,62,103,0
2,65,111,0
2,65,115,275
2,70,107,0
2,61,107,0
2,70,107,284
2,65,111,0
2,61,107,0
2,64,123,76
2,60,107,0
2,64,115,109
2,60,107,0
2,64,115,108
2,60,103,0
2,64,119,105
2,60,103,0
2,63,107,115
2,59,99,0
2,58,99,102
2,62,111,0
2,60,103,21
2,56,107,0
2,65,107,262
2,57,107,0
2,60,103,0
2,57,111,253
2,65,107,0
2,60,103,0
2,65,103,264
2,57,107,0
2,60,103,0
2,65,83,255
2,60,99,0
2,57,99,0
2,60,103,284
2,56,103,0
2,63,99,0
2,60,107,284
2,56,111,0
2,63,99,0
2,60,107,286
2,63,103,0
2,56,111,0
2,56,103,284
2,60,111,0
2,63,99,0
2,58,107,297
2,62,111,0
2,65,91,0
2,58,107,280
2,62,99,0
2,65,103,0
2,58,107,294
2,62,95,0
2,65,103,0
2,58,107,295
2,62,111,0
2,65,107,0
2,35,99,100
2,47,119,0
2,34,107,19
2,46,107,0
2,32,95,16
2,44,103,0
2,65,107,226
2,57,107,0
2,60,103,0
2,57,111,253
2,65,107,0
2,60,103,0
2,65,103,264
2,57,107,0
2,60,103,0
2,65,83,255
2,60,99,0
2,57,99,0
2,60,103,284
2,56,103,0
2,63,99,0
2,60,107,284
2,56,111,0
2,63,99,0
2,60,107,286
2,63,103,0
2,56,111,0
2,56,103,284
2,60,111,0
2,63,99,0
2,58,107,297
2,62,111,0
2,65,91,0
2,58,107,280
2,62,99,0
2,65,103,0
2,58,107,294
2,62,95,0
2,65,103,0
2,58,107,295
2,62,111,0
2,65,107,0
2,35,99,100
2,47,119,0
2,34,107,19
2,46,107,0
2,32,95,16
2,44,103,0
2,70,111,226
2,62,107,0
2,65,99,0
2,70,111,277
2,62,111,0
2,65,95,0
2,70,107,260
2,61,107,0
2,65,111,0
2,65,107,270
2,70,111,0
2,61,103,0
2,65,115,248
2,69,107,0
2,60,115,0
2,65,107,276
2,60,111,0
2,69,103,0
2,65,107,282
2,68,111,0
2,60,111,0
2,68,107,260
2,65,107,0
2,60,115,0
2,62,103,254
2,65,111,0
2,70,103,0
2,62,103,263
2,65,107,0
2,70,111,0
2,70,111,279
2,65,111,0
2,61,111,0
2,65,107,277
2,61,115,0
2,70,107,0
2,60,99,99
2,64,115,0
2,60,103,98
2,64,111,0
2,60,103,99
2,64,115,0
2,59,99,93
2,63,107,0
2,60,107,101
2,64,119,0
2,70,111,835
2,62,107,0
2,65,99,0
2,70,111,277
2,62,111,0
2,65,95,0
2,70,107,260
2,61,107,0
2,65,111,0
2,65,107,270
2,70,111,0
2,61,103,0
2,65,115,248
2,69,107,0
2,60,115,0
2,65,107,276
2,60,111,0
2,69,103,0
2,65,107,282
2,68,111,0
2,60,111,0
2,68,107,260
2,65,107,0
2,60,115,0
2,62,107,254
2,65,111,0
2,70,111,0
2,62,111,253
2,65,115,0
2,70,107,0
2,65,111,268
2,70,103,0
2,61,107,0
2,65,107,267
2,70,107,0
2,61,103,0
2,64,111,87
2,67,107,0
2,72,111,0
2,64,111,119
2,72,103,0
2,67,103,0
2,67,91,112
2,64,107,0
2,72,103,0
2,64,111,104
2,67,111,0
2,72,111,0
2,64,111,108
2,67,107,0
2,72,119,0
2,68,95,94
2,64,107,0
2,73,111,0
2,62,103,296
2,69,107,0
2,65,111,0
2,62,115,296
2,65,111,0
2,69,111,0
2,67,115,292
2,64,115,0
2,71,119,0
2,67,111,290
2,64,119,0
2,71,107,0
2,62,111,290
2,65,115,0
2,69,115,0
2,65,115,298
2,62,119,0
2,69,111,0
2,62,111,277
2,59,99,0
2,66,111,0
2,59,103,277
2,62,119,0
2,66,115,0
2,62,103,295
2,69,107,0
2,65,111,0
2,62,115,296
2,65,111,0
2,69,111,0
2,67,115,292
2,64,115,0
2,71,119,0
2,67,111,290
2,64,119,0
2,71,107,0
2,62,111,290
2,65,115,0
2,69,115,0
2,65,115,298
2,62,119,0
2,69,111,0
2,62,111,277
2,59,99,0
2,66,111,0
2,59,103,277
2,62,119,0
2,66,115,0
2,62,103,295
2,69,107,0
2,65,111,0
2,62,115,296
2,65,111,0
2,69,111,0
2,67,115,292
2,64,115,0
2,71,119,0
2,67,111,290
2,64,119,0
2,71,107,0
2,62,111,290
2,65,115,0
2,69,115,0
2,65,115,298
2,62,119,0
2,69,111,0
2,62,111,277
2,59,99,0
2,66,111,0
2,59,103,277
2,62,119,0
2,66,115,0
2,62,115,295
2,65,111,0
2,69,107,0
2,62,111,298
