track,note,velocity,time
1,48,100,768
1,48,100,0
1,48,0,380
1,48,0,0
1,51,100,4
1,51,100,0
1,51,0,380
1,51,0,0
1,55,100,4
1,55,100,0
1,55,0,1532
1,55,0,0
1,53,100,196
1,53,100,0
1,53,0,380
1,53,0,0
1,51,100,4
1,51,100,0
1,51,0,188
1,51,0,0
1,53,100,4
1,53,100,0
1,53,0,380
1,53,0,0
1,51,100,4
1,51,100,0
1,51,0,380
1,51,0,0
1,48,100,4
1,48,100,0
1,48,0,2300
1,48,0,0
1,48,100,4
1,48,100,0
1,48,0,380
1,48,0,0
1,51,100,4
1,51,100,0
1,51,0,380
1,51,0,0
1,55,100,4
1,55,100,0
1,55,0,1532
1,55,0,0
1,53,100,196
1,53,100,0
1,53,0,380
1,53,0,0
1,51,100,4
1,51,100,0
1,51,0,188
1,51,0,0
1,53,100,4
1,53,100,0
1,53,0,380
1,53,0,0
1,51,100,4
1,51,100,0
1,51,0,380
1,51,0,0
1,48,100,4
1,48,100,0
1,48,0,2300
1,48,0,0
1,48,100,4
1,48,100,0
1,48,0,380
1,48,0,0
1,51,100,4
1,51,100,0
1,51,0,380
1,51,0,0
1,55,100,4
1,55,100,0
1,55,0,1532
1,55,0,0
1,53,100,196
1,53,100,0
1,53,0,380
1,53,0,0
1,51,100,4
1,51,100,0
1,51,0,188
1,51,0,0
1,53,100,4
1,53,100,0
1,53,0,380
1,53,0,0
1,51,100,4
1,51,100,0
1,51,0,380
1,51,0,0
1,53,100,4
1,53,100,0
1,53,0,188
1,53,0,0
1,51,100,4
1,51,100,0
1,51,0,188
1,51,0,0
1,48,100,4
1,48,100,0
1,48,0,188
1,48,0,0
1,48,100,4
1,48,100,0
1,48,0,1532
1,48,0,0
1,55,100,196
1,55,100,0
1,55,0,380
1,55,0,0
1,59,100,4
1,59,100,0
1,59,0,380
1,59,0,0
1,62,100,4
1,62,100,0
1,62,0,1532
1,62,0,0
1,62,100,196
1,62,100,0
1,62,0,188
1,62,0,0
1,63,100,4
1,63,100,0
1,63,0,188
1,63,0,0
1,62,100,4
1,62,100,0
1,62,0,188
1,62,0,0
1,63,100,4
1,63,100,0
1,63,0,380
1,63,0,0
1,62,100,4
1,62,100,0
1,62,0,380
1,62,0,0
1,67,100,4
1,67,100,0
1,67,100,576
1,67,100,0
1,67,0,44
1,67,0,0
1,65,100,52
1,65,100,0
1,65,0,44
1,65,0,0
1,63,100,4
1,63,100,0
1,63,0,44
1,67,0,0
1,67,0,0
1,63,0,0
1,62,100,4
1,62,100,0
1,62,0,1532
1,62,0,0
1,48,100,4
1,48,100,0
1,48,0,380
1,48,0,0
1,51,100,4
1,51,100,0
1,51,0,380
1,51,0,0
1,55,100,4
1,55,100,0
1,55,0,1532
1,55,0,0
1,53,100,196
1,53,100,0
1,53,0,380
1,53,0,0
1,51,100,4
1,51,100,0
1,51,0,188
1,51,0,0
1,53,100,4
1,53,100,0
1,53,0,380
1,53,0,0
1,51,100,4
1,51,100,0
1,51,0,380
1,51,0,0
1,48,100,4
1,48,100,0
1,48,0,1532
1,48,0,0
1,53,100,196
1,53,100,0
1,53,0,380
1,53,0,0
1,51,100,4
1,51,100,0
1,51,0,188
1,51,0,0
1,53,100,4
1,53,100,0
1,53,0,380
1,53,0,0
1,51,100,4
1,51,100,0
1,51,0,380
1,51,0,0
1,48,100,4
1,48,100,0
1,48,0,1532
1,48,0,0
1,53,100,196
1,53,100,0
1,53,0,380
1,53,0,0
1,51,100,4
1,51,100,0
1,51,0,188
1,51,0,0
1,53,100,4
1,53,100,0
1,53,0,380
1,53,0,0
1,51,100,4
1,51,100,0
1,51,0,380
1,51,0,0
1,48,100,4
1,48,100,0
1,48,0,1532
1,48,0,0
1,60,100,388
1,60,100,0
1,62,100,192
1,62,100,0
1,60,0,92
1,60,0,0
1,62,0,96
1,62,0,0
1,63,100,4
1,63,100,0
1,65,100,192
1,65,100,0
1,63,0,92
1,63,0,0
1,65,0,96
1,65,0,0
1,67,100,4
1,67,100,0
1,67,0,380
1,67,0,0
1,72,100,4
1,72,100,0
1,72,0,572
1,72,0,0
1,67,100,4
1,67,100,0
1,67,0,380
1,67,0,0
1,67,100,772
1,67,100,0
1,67,0,188
1,67,0,0
1,67,100,4
1,67,100,0
1,67,0,188
1,67,0,0
1,65,100,4
1,65,100,0
1,65,0,188
1,65,0,0
1,67,100,4
1,67,100,0
1,67,0,188
1,67,0,0
1,65,100,4
1,65,100,0
1,65,0,188
1,65,0,0
1,67,100,4
1,67,100,0
1,67,0,188
1,67,0,0
1,65,100,4
1,65,100,0
1,65,0,188
1,65,0,0
1,67,100,4
1,67,100,0
1,67,0,188
1,67,0,0
1,65,100,4
1,65,100,0
1,65,0,188
1,65,0,0
1,63,100,4
1,63,100,0
1,63,0,188
1,63,0,0
1,60,100,4
1,60,100,0
1,60,0,1532
1,60,0,0
1,67,100,1156
1,67,100,0
1,67,0,188
1,67,0,0
1,67,100,4
1,67,100,0
1,67,0,188
1,67,0,0
1,65,100,4
1,65,100,0
1,65,0,92
1,65,0,0
1,67,100,4
1,67,100,0
1,67,0,188
1,67,0,0
1,65,100,4
1,65,100,0
1,65,0,92
1,65,0,0
1,67,100,4
1,67,100,0
1,67,0,380
1,67,0,0
1,65,100,4
1,65,100,0
1,65,0,188
1,65,0,0
1,67,100,4
1,67,100,0
1,67,0,380
1,67,0,0
1,65,100,4
1,65,100,0
1,65,0,380
1,65,0,0
1,67,100,196
1,67,100,0
1,67,0,140
1,67,0,0
1,67,100,52
1,67,100,0
1,67,0,140
1,67,0,0
1,67,100,52
1,67,100,0
1,67,0,140
1,67,0,0
1,70,100,52
1,70,100,0
1,72,100,192
1,72,100,0
1,70,0,92
1,70,0,0
1,70,100,292
1,70,100,0
1,70,0,188
1,72,0,0
1,72,0,0
1,70,0,0
1,72,100,4
1,72,100,0
1,72,0,380
1,72,0,0
1,70,100,4
1,70,100,0
1,70,0,188
1,70,0,0
1,72,100,4
1,72,100,0
1,72,0,1532
1,72,0,0
1,67,100,196
1,67,100,0
1,67,0,188
1,67,0,0
1,70,100,4
1,70,100,0
1,70,0,188
1,70,0,0
1,70,100,4
1,70,100,0
1,70,0,188
1,70,0,0
1,67,100,4
1,67,100,0
1,67,0,92
1,67,0,0
1,70,100,4
1,70,100,0
1,70,0,188
1,70,0,0
1,67,100,4
1,67,100,0
1,67,0,92
1,67,0,0
1,70,100,4
1,70,100,0
1,70,0,380
1,70,0,0
1,67,100,4
1,67,100,0
1,67,0,188
1,67,0,0
1,70,100,4
1,70,100,0
1,70,0,380
1,70,0,0
1,67,100,4
1,67,100,0
1,67,0,188
1,67,0,0
1,70,100,4
1,70,100,0
1,70,0,380
1,70,0,0
1,67,100,4
1,67,100,0
1,67,0,188
1,67,0,0
1,70,100,4
1,70,100,0
1,70,0,188
1,70,0,0
1,67,100,4
1,67,100,0
1,67,0,188
1,67,0,0
1,70,100,4
1,70,100,0
1,70,0,92
1,70,0,0
1,67,100,4
1,67,100,0
1,67,0,92
1,67,0,0
1,65,100,4
1,65,100,0
1,65,0,188
1,65,0,0
1,67,100,4
1,67,100,0
1,67,0,92
1,67,0,0
1,65,100,4
1,65,100,0
1,65,0,92
1,65,0,0
1,63,100,4
1,63,100,0
1,63,0,188
1,63,0,0
1,65,100,4
1,65,100,0
1,65,0,92
1,65,0,0
1,63,100,4
1,63,100,0
1,63,0,92
1,63,0,0
1,62,100,4
1,62,100,0
1,62,0,188
1,62,0,0
1,63,100,4
1,63,100,0
1,63,0,92
1,63,0,0
1,62,100,4
1,62,100,0
1,62,0,92
1,62,0,0
1,60,100,4
1,60,100,0
1,60,0,188
1,60,0,0
1,62,100,4
1,62,100,0
1,62,0,380
1,62,0,0
1,60,100,4
1,60,100,0
1,60,0,188
1,60,0,0
1,55,100,4
1,55,100,0
1,55,0,188
1,55,0,0
1,60,100,4
1,60,100,0
1,60,0,188
1,60,0,0
1,58,100,4
1,58,100,0
1,58,0,92
1,58,0,0
1,55,100,4
1,55,100,0
1,55,0,92
1,55,0,0
1,58,100,4
1,58,100,0
1,58,0,188
1,58,0,0
1,58,100,4
1,58,100,0
1,58,0,92
1,58,0,0
1,56,100,4
1,56,100,0
1,56,0,92
1,56,0,0
1,55,100,4
1,55,100,0
1,55,0,764
1,55,0,0
1,62,100,580
1,62,100,0
1,62,0,188
1,62,0,0
1,65,100,4
1,65,100,0
1,65,0,188
1,65,0,0
1,67,100,4
1,67,100,0
1,67,0,188
1,67,0,0
1,62,100,196
1,62,100,0
1,62,0,188
1,62,0,0
1,65,100,4
1,65,100,0
1,65,0,188
1,65,0,0
1,67,100,4
1,67,100,0
1,67,0,188
1,67,0,0
1,67,100,388
1,67,100,0
1,67,0,92
1,67,0,0
1,55,100,4
1,55,100,0
1,55,0,188
1,55,0,0
1,48,100,2020
1,48,100,0
1,48,0,380
1,48,0,0
1,51,100,4
1,51,100,0
1,51,0,380
1,51,0,0
1,55,100,4
1,55,100,0
1,55,0,1532
1,55,0,0
1,53,100,196
1,53,100,0
1,53,0,380
1,53,0,0
1,51,100,4
1,51,100,0
1,51,0,188
1,51,0,0
1,53,100,4
1,53,100,0
1,53,0,380
1,53,0,0
1,51,100,4
1,51,100,0
1,51,0,380
1,51,0,0
1,48,100,4
1,48,100,0
1,48,0,2300
1,48,0,0
1,48,100,4
1,48,100,0
1,48,0,380
1,48,0,0
1,51,100,4
1,51,100,0
1,51,0,380
1,51,0,0
1,55,100,4
1,55,100,0
1,55,0,1532
1,55,0,0
1,53,100,196
1,53,100,0
1,53,0,380
1,53,0,0
1,51,100,4
1,51,100,0
1,51,0,188
1,51,0,0
1,53,100,4
1,53,100,0
1,53,0,380
1,53,0,0
1,51,100,4
1,51,100,0
1,51,0,380
1,51,0,0
1,48,100,4
1,48,100,0
1,48,0,2300
1,48,0,0
1,55,100,4
1,55,100,0
1,55,0,380
1,55,0,0
1,59,100,4
1,59,100,0
1,59,0,380
1,59,0,0
1,62,100,4
1,62,100,0
1,62,0,1532
1,62,0,0
1,62,100,196
1,62,100,0
1,62,0,188
1,62,0,0
1,63,100,4
1,63,100,0
1,63,0,188
1,63,0,0
1,62,100,4
1,62,100,0
1,62,0,188
1,62,0,0
1,63,100,4
1,63,100,0
1,63,0,380
1,63,0,0
1,62,100,4
1,62,100,0
1,62,0,380
1,62,0,0
1,67,100,4
1,67,100,0
1,67,100,576
1,67,100,0
1,67,0,44
1,67,0,0
1,65,100,52
1,65,100,0
1,65,0,44
1,65,0,0
1,63,100,4
1,63,100,0
1,63,0,44
1,67,0,0
1,67,0,0
1,63,0,0
1,62,100,4
1,62,100,0
1,62,0,1532
1,62,0,0
1,48,100,4
1,48,100,0
1,48,0,380
1,48,0,0
1,51,100,4
1,51,100,0
1,51,0,380
1,51,0,0
1,55,100,4
1,55,100,0
1,55,0,1532
1,55,0,0
1,53,100,196
1,53,100,0
1,53,0,380
1,53,0,0
1,51,100,4
1,51,100,0
1,51,0,188
1,51,0,0
1,53,100,4
1,53,100,0
1,53,0,380
1,53,0,0
1,51,100,4
1,51,100,0
1,51,0,380
1,51,0,0
1,48,100,4
1,48,100,0
1,48,0,2300
1,48,0,0
1,48,100,4
1,48,100,0
1,48,0,380
1,48,0,0
1,51,100,4
1,51,100,0
1,51,0,380
1,51,0,0
1,55,100,4
1,55,100,0
1,55,0,1532
1,55,0,0
1,53,100,196
1,53,100,0
1,53,0,380
1,53,0,0
1,51,100,4
1,51,100,0
1,51,0,188
1,51,0,0
1,53,100,4
1,53,100,0
1,53,0,380
1,53,0,0
1,51,100,4
1,51,100,0
1,51,0,380
1,51,0,0
1,48,100,4
1,48,100,0
1,48,0,2300
1,48,0,0
1,55,100,4
1,55,100,0
1,55,0,380
1,55,0,0
1,59,100,4
1,59,100,0
1,59,0,380
1,59,0,0
1,62,100,4
1,62,100,0
1,62,0,1532
1,62,0,0
1,62,100,196
1,62,100,0
1,62,0,188
1,62,0,0
1,63,100,4
1,63,100,0
1,63,0,188
1,63,0,0
1,62,100,4
1,62,100,0
1,62,0,188
1,62,0,0
1,63,100,4
1,63,100,0
1,63,0,380
1,63,0,0
1,62,100,4
1,62,100,0
1,62,0,380
1,62,0,0
1,67,100,4
1,67,100,0
1,67,100,576
1,67,100,0
1,67,0,44
1,67,0,0
1,65,100,52
1,65,100,0
1,65,0,44
1,65,0,0
1,63,100,4
1,63,100,0
1,63,0,44
1,67,0,0
1,67,0,0
1,63,0,0
1,62,100,4
1,62,100,0
1,62,0,1532
1,62,0,0
1,48,100,4
1,48,100,0
1,48,0,380
1,48,0,0
1,51,100,4
1,51,100,0
1,51,0,380
1,51,0,0
1,55,100,4
1,55,100,0
1,55,0,1532
1,55,0,0
1,53,100,196
1,53,100,0
1,53,0,380
1,53,0,0
1,51,100,4
1,51,100,0
1,51,0,188
1,51,0,0
1,53,100,4
1,53,100,0
1,53,0,380
1,53,0,0
1,51,100,4
1,51,100,0
1,51,0,380
1,51,0,0
1,48,100,4
1,48,100,0
1,48,0,188
1,48,0,0
1,48,100,4
1,48,100,0
1,48,0,92
1,48,0,0
1,53,100,1444
1,53,100,0
1,53,0,380
1,53,0,0
1,51,100,4
1,51,100,0
1,51,0,188
1,51,0,0
1,53,100,4
1,53,100,0
1,53,0,380
1,53,0,0
1,51,100,4
1,51,100,0
1,51,0,380
1,51,0,0
1,48,100,4
1,48,100,0
1,48,0,188
1,48,0,0
1,48,100,4
1,48,100,0
1,48,0,92
1,48,0,0
1,48,100,1444
1,48,100,0
1,48,0,188
1,48,0,0
1,53,100,4
1,53,100,0
1,53,0,188
1,53,0,0
1,51,100,4
1,51,100,0
1,51,0,188
1,51,0,0
1,53,100,4
1,53,100,0
1,53,0,380
1,53,0,0
1,55,100,4
1,55,100,0
1,55,0,380
1,55,0,0
1,60,100,4
1,60,100,0
1,60,0,8828
1,60,0,0
1,60,100,4
1,60,100,0
1,60,0,384
1,60,0,0
1,58,100,0
1,58,100,0
1,58,0,1532
1,58,0,0
2,55,100,1728
2,60,100,0
2,63,100,0
2,63,0,188
2,60,0,0
2,55,0,0
2,55,100,196
2,60,100,0
2,63,100,0
2,63,0,92
2,60,0,0
2,55,0,0
2,55,100,292
2,60,100,0
2,63,100,0
2,63,0,188
2,60,0,0
2,55,0,0
2,55,100,196
2,60,100,0
2,63,100,0
2,63,0,92
2,60,0,0
2,55,0,0
2,56,100,292
2,60,100,0
2,65,100,0
2,65,0,188
2,60,0,0
2,56,0,0
2,65,100,196
2,60,100,0
2,56,100,0
2,56,0,92
2,60,0,0
2,65,0,0
2,56,100,292
2,60,100,0
2,65,100,0
2,65,0,188
2,60,0,0
2,56,0,0
2,65,100,196
2,60,100,0
2,56,100,0
2,56,0,92
2,60,0,0
2,65,0,0
2,55,100,292
2,60,100,0
2,63,100,0
2,63,0,188
2,60,0,0
2,55,0,0
2,55,100,196
2,60,100,0
2,63,100,0
2,63,0,92
2,60,0,0
2,55,0,0
2,55,100,292
2,60,100,0
2,63,100,0
2,63,0,188
2,60,0,0
2,55,0,0
2,55,100,196
2,60,100,0
2,63,100,0
2,63,0,92
2,60,0,0
2,55,0,0
2,55,100,292
2,60,100,0
2,63,100,0
2,63,0,188
2,60,0,0
2,55,0,0
2,55,100,196
2,60,100,0
2,63,100,0
2,63,0,92
2,60,0,0
2,55,0,0
2,55,100,292
2,60,100,0
2,63,100,0
2,63,0,188
2,60,0,0
2,55,0,0
2,55,100,196
2,60,100,0
2,63,100,0
2,63,0,92
2,60,0,0
2,55,0,0
2,55,100,292
2,60,100,0
2,63,100,0
2,63,0,188
2,60,0,0
2,55,0,0
2,55,100,196
2,60,100,0
2,63,100,0
2,63,0,92
2,60,0,0
2,55,0,0
2,55,100,292
2,60,100,0
2,63,100,0
2,63,0,188
2,60,0,0
2,55,0,0
2,55,100,196
2,60,100,0
2,63,100,0
2,63,0,92
2,60,0,0
2,55,0,0
2,56,100,292
2,60,100,0
2,65,100,0
2,65,0,188
