track,note,velocity,time
1,41,116,8336
1,36,97,4
1,36,93,60
1,36,93,144
1,36,85,132
1,36,89,56
1,36,89,152
1,31,97,24
1,31,89,84
1,31,89,124
1,31,97,120
1,31,105,96
1,31,97,164
1,38,89,192
1,38,105,104
1,38,109,132
1,38,105,148
1,38,93,100
1,40,97,288
1,41,97,12
1,41,89,124
1,40,105,32
1,38,97,40
1,38,89,112
1,40,101,52
1,36,97,20
1,36,93,60
1,36,93,144
1,36,85,132
1,36,89,56
1,36,89,152
1,31,97,24
1,31,89,84
1,31,89,124
1,31,97,120
1,31,105,96
1,31,97,164
1,38,89,192
1,38,105,104
1,38,109,132
1,38,105,148
1,38,93,100
1,40,97,288
1,41,97,12
1,41,89,124
1,40,105,32
1,38,97,40
1,38,89,112
1,40,101,52
1,36,97,20
1,36,93,60
1,36,93,144
1,36,85,132
1,36,89,56
1,36,89,152
1,31,97,24
1,31,89,84
1,31,89,124
1,31,97,120
1,31,105,96
1,31,97,164
1,38,89,192
1,38,105,104
1,38,109,132
1,38,105,148
1,38,93,100
1,40,97,288
1,41,97,12
1,41,89,124
1,40,105,32
1,38,97,40
1,38,89,112
1,40,101,52
1,36,97,20
1,36,93,60
1,36,93,144
1,36,85,132
1,36,89,56
1,36,89,152
1,31,97,24
1,31,89,84
1,31,89,124
1,31,97,120
1,31,105,96
1,31,97,164
1,38,89,192
1,38,105,104
1,38,109,132
1,38,105,148
1,38,93,100
1,40,97,288
1,41,97,12
1,41,89,124
1,40,105,32
1,38,97,40
1,38,89,112
1,40,101,52
1,38,97,20
1,38,101,360
1,33,97,60
1,33,85,412
1,40,105,192
1,40,97,428
1,43,101,192
1,43,97,424
1,38,105,72
1,38,97,368
1,33,93,68
1,33,93,404
1,40,101,192
1,40,93,436
1,43,89,192
1,38,85,88
1,40,85,96
1,43,81,68
1,40,101,32
1,36,97,60
1,36,93,60
1,36,93,144
1,36,85,132
1,36,89,56
1,36,89,152
1,31,97,24
1,31,89,84
1,31,89,124
1,31,97,120
1,31,105,96
1,31,97,164
1,38,89,192
1,38,105,104
1,38,109,132
1,38,105,148
1,38,93,100
1,40,97,288
1,41,97,12
1,41,89,124
1,40,105,32
1,38,97,40
1,38,89,112
1,40,101,52
1,36,97,20
1,36,93,60
1,36,93,144
1,36,85,132
1,36,89,56
1,36,89,152
1,31,97,24
1,31,89,84
1,31,89,124
1,31,97,120
1,31,105,96
1,31,97,164
1,38,89,192
1,38,105,104
1,38,109,132
1,38,105,148
1,38,93,100
1,40,97,288
1,41,97,12
1,41,89,124
1,40,105,32
1,38,97,40
1,38,89,112
1,40,101,52
1,38,97,20
1,38,101,360
1,33,97,60
1,33,85,412
1,40,105,192
1,40,97,428
1,43,101,192
1,43,97,424
1,38,105,72
1,38,97,368
1,33,93,68
1,33,93,404
1,40,101,192
1,40,93,436
1,43,89,192
1,38,85,88
1,40,85,96
1,43,81,68
1,40,101,32
1,35,97,60
1,35,101,360
1,30,97,60
1,30,85,412
1,37,105,192
1,37,97,428
1,40,101,192
1,40,97,424
1,35,105,72
1,35,97,368
1,30,93,68
1,30,93,404
1,37,101,192
1,37,93,436
1,40,89,192
1,35,85,88
1,37,85,96
1,40,81,68
1,37,101,32
1,36,97,60
1,36,93,60
1,36,93,144
1,36,85,132
1,36,89,56
1,36,89,152
1,31,97,24
1,31,89,84
1,31,89,124
1,31,97,120
1,31,105,96
1,31,97,164
1,38,89,192
1,38,105,104
1,38,109,132
1,38,105,148
1,38,93,100
1,40,97,288
1,41,97,12
1,41,89,124
1,40,105,32
1,38,97,40
1,38,89,112
1,40,101,52
1,36,97,20
1,36,93,60
1,36,93,144
1,36,85,132
1,36,89,56
1,36,89,152
1,31,97,24
1,31,89,84
1,31,89,124
1,31,97,120
1,31,105,96
1,31,97,164
1,38,89,192
1,38,105,104
1,38,109,132
1,38,105,148
1,38,93,100
1,40,97,288
1,41,97,12
1,41,89,124
1,40,105,32
1,38,97,40
1,38,89,112
1,40,101,52
1,30,89,96
1,31,97,0
1,31,89,364
1,30,101,20
1,30,89,400
1,33,101,192
1,33,89,396
1,35,97,192
1,30,97,424
1,31,97,20
1,31,89,364
1,30,101,20
1,30,89,400
1,33,101,192
1,33,89,396
1,35,97,0
1,42,97,0
1,36,89,0
1,36,97,100
1,36,101,104
1,36,101,132
1,38,97,0
1,40,77,0
1,41,97,0
1,43,93,192
1,43,93,96
1,43,101,96
1,43,93,112
1,41,85,28
1,40,93,44
1,38,85,12
1,38,85,100
1,38,93,112
1,38,105,84
1,38,85,60
1,39,101,16
1,40,93,0
1,41,97,16
1,40,97,384
1,38,89,348
1,41,105,4
1,36,97,196
1,36,101,100
1,36,101,132
1,38,97,0
1,40,77,192
1,41,97,188
1,43,93,188
1,43,93,92
1,43,101,92
1,43,93,108
1,41,85,24
1,40,93,40
1,38,101,12
1,38,93,92
1,38,97,112
1,38,85,100
1,41,101,108
1,38,101,36
1,36,85,36
1,45,105,192
1,36,93,28
1,46,97,192
1,36,69,16
1,47,97,192
1,36,93,8
1,48,77,32
1,38,97,24
1,38,101,360
1,33,97,60
1,33,85,412
1,40,105,192
1,40,97,428
1,43,101,192
1,43,97,424
1,38,105,72
1,38,97,368
1,33,93,68
1,33,93,404
1,40,101,192
1,40,93,436
1,43,89,192
1,38,85,88
1,40,85,96
1,43,81,68
1,40,101,32
1,36,97,248
1,36,101,100
1,36,101,132
1,38,97,0
1,40,77,192
1,41,97,188
1,43,93,188
1,43,93,92
1,43,101,92
1,43,93,108
1,41,85,24
1,40,93,40
1,38,101,12
1,38,113,76
1,38,101,108
1,38,105,96
1,46,97,28
1,45,93,16
1,41,105,192
1,40,101,24
1,38,99,20
1,40,93,0
1,36,97,208
1,36,101,100
1,36,101,132
1,38,97,0
1,40,77,192
1,41,97,188
1,43,93,188
1,43,93,92
1,43,101,92
1,43,93,108
1,41,85,24
1,40,93,40
1,38,109,12
1,38,101,76
1,36,93,144
1,38,97,80
1,38,97,132
1,36,101,20
1,36,85,40
1,45,105,192
1,36,93,28
1,46,97,192
1,36,69,16
1,47,97,192
1,36,93,8
1,48,77,32
1,36,97,212
1,36,101,100
1,36,101,132
1,38,97,0
1,40,77,192
1,41,97,188
1,43,93,188
1,43,93,92
1,43,101,92
1,43,93,108
1,41,85,24
1,40,93,40
1,38,101,12
1,38,73,24
1,38,105,132
1,38,101,128
1,46,97,192
1,45,93,8
1,43,93,16
1,44,101,40
1,43,93,40
1,41,97,4
1,38,101,20
1,36,97,204
1,36,101,100
1,36,101,132
1,38,97,0
1,40,77,192
1,41,97,188
1,43,93,188
1,43,93,92
1,43,101,92
1,43,93,108
1,41,85,24
1,40,93,40
1,38,105,12
1,38,105,76
1,38,101,132
1,38,113,152
1,38,101,136
1,45,97,0
1,47,93,68
1,40,97,0
1,41,91,32
1,45,99,0
1,41,79,8
1,46,91,0
1,41,83,28
1,47,87,96
1,41,87,76
1,47,71,80
1,48,91,20
1,41,91,16
1,38,97,0
1,38,101,360
1,33,97,60
1,33,85,412
1,40,105,192
1,40,97,428
1,43,101,192
1,43,97,424
1,38,105,72
1,38,97,368
1,33,93,68
1,33,93,404
1,40,101,192
1,40,93,436
1,43,89,192
1,38,85,88
1,40,85,96
1,43,81,68
1,40,101,32
1,35,97,60
1,35,101,360
1,30,97,60
1,30,85,412
1,37,105,192
1,37,97,428
1,40,101,192
1,40,97,424
1,35,105,72
1,35,97,368
1,30,93,68
1,30,93,404
1,37,101,192
1,37,93,436
1,40,89,192
1,35,85,88
1,37,85,96
1,40,81,68
1,37,101,32
1,36,97,60
1,36,101,360
1,31,97,60
1,31,85,412
1,38,105,192
1,38,97,428
1,41,101,192
1,41,97,424
1,36,105,72
1,36,97,368
1,31,93,68
1,31,93,404
1,38,101,192
1,38,93,436
1,41,89,192
1,36,85,88
1,38,85,96
1,41,81,68
1,38,101,32
1,38,97,60
1,38,101,360
1,33,97,60
1,33,85,412
1,40,105,192
1,40,97,428
1,43,101,192
1,43,97,424
1,38,105,72
1,38,97,368
1,33,93,68
1,33,93,404
1,40,101,192
1,40,93,436
1,43,89,192
1,38,85,88
1,40,85,96
1,43,81,68
1,40,101,32
1,35,97,60
1,35,101,360
1,30,97,60
1,30,85,412
1,37,105,192
1,37,97,428
1,40,101,192
1,40,97,424
1,35,105,72
1,35,101,388
1,30,117,192
1,30,109,404
1,37,105,0
1,37,97,408
1,40,109,24
1,40,105,396
1,35,101,0
1,35,105,32
2,48,99,2652
2,36,107,0
2,48,103,76
2,36,99,0
2,48,107,72
2,36,107,0
2,48,107,68
2,36,87,0
2,46,107,4
2,45,99,8
2,43,99,44
2,31,111,0
2,43,107,92
2,31,115,0
2,43,111,68
2,31,111,0
2,31,99,76
2,43,107,0
2,41,103,0
2,40,103,8
2,38,99,36
2,26,107,0
2,38,95,76
2,26,103,0
2,26,107,96
2,38,95,0
2,38,99,84
2,26,107,0
2,26,91,48
2,38,83,0
2,28,95,16
2,40,99,0
2,41,91,192
2,29,107,0
2,29,103,84
2,41,103,0
2,43,99,192
2,31,95,0
2,31,95,104
2,43,103,0
2,44,95,40
2,32,107,0
2,32,99,116
2,44,103,0
2,34,95,4
2,46,99,0
2,47,103,124
2,35,91,0
2,36,87,16
2,48,103,0
2,48,111,68
2,36,87,0
2,36,95,88
2,48,95,0
2,36,91,72
2,48,107,0
2,46,99,24
2,34,91,0
2,45,99,24
2,33,95,0
2,43,91,192
2,31,107,0
2,43,91,84
2,31,103,0
2,31,83,56
2,43,103,0
2,31,107,64
2,43,111,0
2,29,103,40
2,41,99,0
2,40,99,24
2,28,95,0
2,26,107,8
2,38,99,0
2,38,95,76
2,26,103,0
2,38,95,96
2,26,107,0
2,38,99,84
2,26,107,0
2,26,91,48
2,38,83,0
2,28,95,16
2,40,99,0
2,41,91,192
2,29,107,0
2,41,103,84
2,29,103,0
2,31,95,192
2,43,99,0
2,43,103,104
2,31,95,0
2,32,107,40
2,44,95,0
2,44,103,116
2,32,99,0
2,34,95,4
2,46,99,0
2,35,91,124
2,47,103,0
2,36,103,16
2,48,107,0
2,36,107,80
2,48,111,0
2,36,95,88
2,48,95,0
2,36,103,112
2,48,95,0
2,50,111,8
2,38,99,0
2,52,91,24
2,40,99,0
2,43,107,192
2,55,103,0
2,55,103,92
2,43,95,0
2,43,99,68
2,55,103,0
2,43,95,84
2,55,91,0
2,41,83,24
2,53,103,0
2,40,83,36
2,52,91,0
2,38,95,20
2,50,91,0
2,50,95,112
2,38,83,0
2,38,103,96
2,50,99,0
2,38,107,80
2,50,99,0
2,50,91,68
2,38,103,0
2,50,103,72
2,38,83,0
2,29,95,52
2,41,95,0
2,29,99,112
2,41,103,0
2,31,87,16
2,43,103,0
2,44,99,52
2,32,91,0
2,44,91,112
2,32,99,0
2,47,107,8
2,35,95,0
2,36,111,88
2,48,103,0
2,43,107,1536
2,62,87,0
2,58,99,0
2,55,71,0
2,31,103,0
2,38,111,60
2,50,103,0
2,65,59,0
2,38,111,56
2,65,87,0
2,50,115,0
2,65,79,76
2,38,111,0
2,50,115,0
2,50,107,92
2,38,107,0
2,65,87,0
2,65,91,48
2,50,99,0
2,38,99,0
2,40,107,76
2,67,111,0
2,52,115,0
2,53,115,16
2,41,103,0
2,68,111,0
2,48,91,72
2,64,99,0
2,36,91,0
2,48,107,112
2,64,83,0
2,36,107,0
2,36,103,72
2,64,91,0
2,48,103,0
2,48,111,72
2,64,102,0
2,36,111,0
2,48,95,56
2,64,91,0
2,36,95,0
2,36,99,60
2,64,91,0
2,48,99,0
2,58,91,16
2,43,119,0
2,31,119,0
2,62,91,0
2,38,111,52
2,50,103,0
2,65,59,0
2,50,115,56
2,65,87,0
2,38,111,0
2,65,79,76
2,38,111,0
2,50,115,0
2,50,107,92
2,38,107,0
2,65,87,0
2,38,99,48
2,50,99,0
2,65,91,0
2,67,111,76
2,52,115,0
2,40,107,0
2,41,103,16
2,68,111,0
2,53,115,0
2,66,111,72
2,50,119,0
2,38,107,0
2,69,115,0
2,50,103,348
2,69,99,0
2,38,87,0
2,66,111,0
2,33,115,0
2,45,103,0
2,64,103,0
2,60,103,0
2,64,107,368
2,33,107,0
2,60,103,0
2,45,107,0
2,67,103,52
2,52,107,0
2,40,119,0
2,64,107,0
2,67,95,368
2,40,111,0
2,52,111,0
2,64,95,0
2,70,95,52
2,67,79,0
2,55,119,0
2,43,111,0
2,70,103,396
2,43,115,0
2,55,111,0
2,67,95,0
2,38,107,32
2,66,111,0
2,50,119,0
2,69,115,0
2,66,111,348
2,38,87,0
2,69,99,0
2,50,103,0
2,33,115,0
2,45,103,0
2,60,103,0
2,64,103,0
2,45,107,368
2,64,107,0
2,33,107,0
2,60,103,0
2,40,119,52
2,52,107,0
2,67,103,0
2,64,107,0
2,40,111,368
2,64,95,0
2,67,95,0
2,52,111,0
2,43,111,52
2,70,95,0
2,55,119,0
2,67,79,0
2,70,103,396
2,67,95,0
2,55,111,0
2,43,115,0
2,64,99,32
2,36,99,0
2,67,87,0
2,48,99,0
2,64,83,48
2,67,95,0
2,48,95,0
2,36,107,0
2,67,95,96
2,64,111,0
2,48,87,0
2,36,103,0
2,67,99,88
2,64,95,0
2,48,103,0
2,36,103,0
2,48,91,52
2,36,107,0
2,67,95,0
2,64,91,0
2,36,99,76
2,48,103,0
2,67,83,0
2,64,91,0
2,58,99,40
2,31,115,0
2,43,95,0
2,62,95,0
2,65,103,56
2,38,115,0
2,50,115,0
2,69,95,0
2,38,91,48
2,50,95,0
2,69,103,0
2,65,95,0
2,50,119,108
2,65,103,0
2,38,95,0
2,69,107,0
2,65,87,120
2,69,103,0
2,38,99,0
2,50,111,0
2,50,107,116
2,65,99,0
2,38,99,0
2,69,107,0
2,65,59,84
2,52,119,0
2,40,107,0
2,69,99,0
2,41,111,64
2,68,107,0
2,53,115,0
2,65,99,0
2,67,87,368
2,48,99,0
2,64,99,0
2,36,99,0
2,64,83,48
2,36,107,0
2,48,95,0
2,67,95,0
2,67,95,96
2,48,87,0
2,36,103,0
2,64,111,0
2,64,95,88
2,36,103,0
2,48,103,0
2,67,99,0
2,67,95,52
2,48,91,0
2,36,107,0
2,64,91,0
2,48,103,76
2,64,91,0
2,36,99,0
2,67,83,0
2,43,95,40
2,62,95,0
2,31,115,0
2,58,99,0
2,38,115,56
2,69,95,0
2,65,103,0
2,50,115,0
2,69,103,48
2,38,91,0
2,65,95,0
2,50,95,0
2,69,107,108
2,50,119,0
2,38,95,0
2,65,103,0
2,65,87,120
2,38,99,0
2,69,103,0
2,50,111,0
2,38,99,116
2,50,107,0
2,69,107,0
2,65,99,0
2,52,119,84
2,69,99,0
2,65,59,0
2,40,107,0
2,53,115,64
2,41,111,0
2,68,107,0
2,65,99,0
2,50,119,368
2,69,115,0
2,66,111,0
2,38,107,0
2,38,87,348
2,50,103,0
2,66,111,0
2,69,99,0
2,60,103,0
2,45,103,0
2,64,103,0
2,33,115,0
2,45,107,368
2,64,107,0
2,33,107,0
2,60,103,0
2,52,107,52
2,67,103,0
2,64,107,0
2,40,119,0
2,40,111,368
2,52,111,0
2,64,95,0
2,67,95,0
2,55,119,52
2,67,79,0
2,70,95,0
2,43,111,0
2,55,111,396
2,43,115,0
2,67,95,0
2,70,103,0
2,50,119,32
2,66,111,0
2,38,107,0
2,69,115,0
2,66,111,348
2,38,87,0
2,50,103,0
2,69,99,0
2,45,103,0
2,64,103,0
2,60,103,0
2,33,115,0
2,60,103,368
2,64,107,0
2,33,107,0
2,45,107,0
2,52,107,52
2,40,119,0
2,67,103,0
2,64,107,0
2,64,95,368
2,67,95,0
2,52,111,0
2,40,111,0
2,43,111,52
2,70,95,0
2,67,79,0
2,55,119,0
2,67,95,396
2,55,111,0
2,70,103,0
2,43,115,0
2,47,119,32
2,35,107,0
2,66,115,0
2,63,111,0
2,47,103,348
2,35,87,0
2,66,99,0
2,63,111,0
2,57,103,0
2,61,103,0
