track,note,velocity,time
1,45,106,1536
1,45,84,136
1,45,87,128
1,45,88,134
1,45,87,110
1,45,91,124
1,45,76,94
1,45,76,102
1,45,78,118
1,45,83,108
1,45,91,120
1,45,78,84
1,45,84,130
1,45,90,108
1,45,90,82
1,45,93,116
1,45,87,118
1,50,79,38
1,50,81,96
1,50,72,76
1,45,84,2
1,45,95,110
1,50,80,16
1,50,83,86
1,50,91,100
1,45,84,30
1,45,93,124
1,50,85,8
1,50,90,102
1,50,95,102
1,43,104,72
1,43,87,128
1,43,95,128
1,45,106,56
1,45,88,130
1,45,102,136
1,43,104,128
1,43,90,140
1,43,93,132
1,45,88,138
1,45,88,140
1,45,90,138
1,50,104,138
1,50,88,132
1,50,93,142
1,50,87,128
1,45,95,32
1,45,87,132
1,45,97,148
1,46,94,40
1,46,97,156
1,46,97,144
1,46,109,150
1,46,94,60
1,48,99,76
1,48,95,122
1,48,118,152
1,48,102,116
1,41,112,112
1,41,106,120
1,41,95,88
1,46,101,96
1,46,109,168
1,46,105,98
1,41,99,128
1,41,104,168
1,41,87,96
1,46,105,134
1,46,105,168
1,46,101,72
1,41,104,158
1,41,97,194
1,41,95,82
1,46,105,116
1,46,109,176
1,46,101,72
1,41,102,144
1,41,104,156
1,41,91,84
1,41,99,132
1,41,104,126
1,41,97,94
1,45,91,138
1,45,78,84
1,45,84,130
1,45,90,108
1,45,90,82
1,45,93,116
1,45,87,118
1,50,79,38
1,50,81,96
1,50,72,76
1,45,84,2
1,45,95,110
1,50,80,16
1,50,83,86
1,50,91,100
1,45,84,30
1,45,93,124
1,50,85,8
1,50,90,102
1,50,95,102
1,43,104,72
1,43,87,128
1,43,95,128
1,45,106,56
1,45,88,130
1,45,102,136
1,43,104,128
1,43,90,140
1,43,93,132
1,45,88,138
1,45,88,140
1,45,90,138
1,50,104,138
1,50,88,132
1,50,93,142
1,50,87,128
1,45,95,32
1,45,87,132
1,45,97,148
1,46,94,40
1,46,97,156
1,46,97,144
1,46,109,150
1,46,94,60
1,48,99,76
1,48,95,122
1,48,118,152
1,48,102,116
1,41,112,112
1,41,106,120
1,41,95,88
1,46,101,96
1,46,109,168
1,46,105,98
1,41,99,128
1,41,104,168
1,41,87,96
1,46,105,134
1,46,105,168
1,46,101,72
1,41,104,158
1,41,97,194
1,41,95,82
1,46,105,116
1,46,109,176
1,46,101,72
1,41,104,144
1,41,97,194
1,41,95,82
1,46,105,116
1,46,109,176
1,46,101,72
1,45,91,144
1,45,78,84
1,45,84,130
1,45,90,108
1,45,90,82
1,45,93,116
1,45,87,118
1,50,79,38
1,50,81,96
1,50,72,76
1,45,84,2
1,45,95,110
1,50,80,16
1,50,83,86
1,50,91,100
1,45,84,30
1,45,93,124
1,50,85,8
1,50,90,102
1,50,95,102
1,45,84,72
1,45,95,110
1,50,80,16
1,50,83,86
1,50,91,100
1,45,84,30
1,45,93,124
1,50,85,8
1,50,90,102
1,50,95,102
1,43,104,72
1,43,87,128
1,43,95,128
1,45,106,56
1,45,88,130
1,45,102,136
1,43,104,128
1,43,90,140
1,43,93,132
1,45,88,138
1,45,88,140
1,45,90,138
1,50,104,138
1,50,88,132
1,50,93,142
1,50,87,128
1,45,95,32
1,45,87,132
1,45,97,148
1,46,94,40
1,46,97,156
1,46,97,144
1,46,109,150
1,46,94,60
1,48,99,76
1,48,95,122
1,48,118,152
1,48,102,116
1,41,112,112
1,41,106,120
1,41,95,88
1,46,101,96
1,46,109,168
1,46,105,98
1,41,99,128
1,41,104,168
1,41,87,96
1,46,105,134
1,46,105,168
1,46,101,72
1,41,104,158
1,41,97,194
1,41,95,82
1,46,105,116
1,46,109,176
1,46,101,72
1,41,104,144
1,41,97,194
1,41,95,82
1,46,105,116
1,46,109,176
1,46,101,72
1,41,112,144
1,41,106,120
1,41,95,88
1,46,101,96
1,46,109,168
1,46,105,98
1,41,99,128
1,41,104,168
1,41,87,96
1,46,105,134
1,46,105,168
1,46,101,72
1,41,122,158
2,45,96,1536
2,64,71,384
2,60,84,0
2,57,73,0
2,45,71,80
2,57,53,134
2,60,61,0
2,64,59,0
2,60,80,146
2,57,69,0
2,64,69,0
2,64,61,122
2,60,68,0
2,57,58,0
2,45,80,176
2,64,68,372
2,60,87,0
2,57,73,0
2,45,69,122
2,60,66,130
2,57,59,0
2,64,58,0
2,60,84,146
2,57,71,0
2,64,71,0
2,60,71,114
2,64,65,0
2,57,65,0
2,45,65,18
2,60,84,384
2,57,73,0
2,64,69,0
2,45,66,98
2,60,75,148
2,64,66,0
2,57,61,0
2,60,80,140
2,64,69,0
2,57,69,0
2,45,68,98
2,57,62,84
2,60,69,0
2,64,65,0
2,45,68,146
2,60,82,360
2,64,69,0
2,57,69,0
2,50,75,86
2,62,77,192
2,66,79,0
2,57,69,0
2,62,75,66
2,66,72,0
2,57,65,0
2,45,69,0
2,57,71,384
2,60,84,0
2,64,73,0
2,50,77,80
2,66,75,192
2,57,71,0
2,62,80,0
2,62,75,114
2,57,62,0
2,66,69,0
2,45,71,10
2,60,84,382
2,64,75,0
2,57,73,0
2,45,73,10
2,58,10,92
2,54,54,64
2,62,66,0
2,57,77,0
2,62,69,118
2,54,60,0
2,57,84,0
2,62,71,72
2,54,64,0
2,57,82,0
2,43,90,70
2,55,75,384
2,62,71,0
2,58,79,0
2,55,77,108
2,62,75,0
2,58,83,0
2,45,77,6
2,57,68,384
2,60,80,0
2,64,69,0
2,45,71,166
2,64,68,298
2,60,80,0
2,57,68,0
2,43,73,136
2,55,63,362
2,62,68,0
2,58,69,0
2,43,63,110
2,55,73,250
2,62,71,0
2,58,79,0
2,45,82,12
2,57,71,384
2,60,82,0
2,64,69,0
2,45,63,136
2,57,68,346
2,60,82,0
2,64,68,0
2,50,71,192
2,65,73,384
2,62,65,0
2,69,69,0
2,69,69,140
2,65,77,0
2,62,66,0
2,45,71,6
2,64,75,350
2,67,69,0
2,60,66,0
2,67,68,114
2,64,71,0
2,60,63,0
2,46,83,110
2,65,66,384
2,58,58,0
2,62,75,0
2,57,50,0
2,65,65,74
2,58,56,0
2,62,75,0
2,57,58,0
2,48,71,26
2,64,73,384
2,67,66,0
2,60,66,0
2,67,66,106
2,64,73,0
2,60,66,0
2,69,103,208
2,64,87,0
2,41,84,0
2,48,75,0
2,62,75,50
2,60,75,74
2,69,100,36
2,64,90,0
2,48,71,0
2,41,82,0
2,62,84,76
2,60,65,50
2,69,103,30
2,64,84,0
2,48,66,0
2,41,80,0
2,62,82,26
2,69,96,32
2,64,96,0
2,46,87,0
2,53,71,0
2,62,73,192
2,60,82,2
2,69,84,76
2,64,77,0
2,53,66,0
2,46,83,0
2,62,75,32
2,60,68,80
2,69,90,12
2,64,84,0
2,53,68,0
2,46,75,0
2,62,80,14
2,69,93,6
2,41,84,0
2,48,77,0
2,64,87,0
2,62,82,192
2,60,71,18
2,69,93,62
2,48,69,0
2,41,73,0
2,64,82,0
2,62,82,20
2,60,77,160
2,69,90,46
2,64,90,0
2,48,66,0
2,41,80,0
2,62,80,14
2,69,96,18
2,64,93,0
2,46,83,0
2,53,62,0
2,62,73,192
2,60,75,10
2,69,96,2
2,53,69,0
2,46,83,0
2,64,90,0
2,62,82,192
2,60,77,10
2,69,96,52
2,64,90,0
2,53,73,0
2,46,79,0
2,62,82,10
2,69,96,4
2,64,90,0
2,48,75,0
2,41,82,0
2,62,84,192
2,60,80,6
2,69,96,44
2,64,93,0
2,48,71,0
2,41,80,0
2,62,84,192
2,60,75,28
2,69,96,68
2,64,84,0
2,48,66,0
2,41,73,0
2,62,69,14
2,69,96,34
2,64,93,0
2,46,83,0
2,53,65,0
2,62,75,192
2,60,77,10
2,69,100,66
2,64,93,0
2,46,92,0
2,53,73,0
2,62,82,144
2,60,75,34
2,69,96,36
2,64,90,0
2,53,71,0
2,46,79,0
2,62,84,6
2,69,103,108
2,64,90,0
2,48,68,0
2,41,73,0
2,62,75,180
2,60,80,12
2,69,96,66
2,41,82,0
2,48,71,0
2,64,87,0
2,62,80,186
2,60,75,10
2,69,93,2
2,64,84,0
2,48,75,0
2,41,84,0
2,62,69,192
2,69,103,50
2,64,84,0
2,41,84,0
2,48,71,0
2,62,77,178
2,60,73,66
2,69,96,46
2,48,73,0
2,41,84,0
2,64,90,0
2,62,80,96
2,60,75,54
2,69,103,112
2,64,87,0
2,48,71,0
2,41,82,0
2,62,84,50
2,45,65,84
2,60,84,384
2,57,73,0
2,64,69,0
2,45,66,98
2,60,75,148
2,64,66,0
2,57,61,0
2,60,80,140
2,64,69,0
2,57,69,0
2,45,68,98
2,57,62,84
2,60,69,0
2,64,65,0
2,45,68,146
2,60,82,360
2,64,69,0
2,57,69,0
2,50,75,86
2,62,77,192
2,66,79,0
2,57,69,0
2,62,75,66
2,66,72,0
2,57,65,0
2,45,69,0
2,57,71,384
2,60,84,0
2,64,73,0
2,50,77,80
2,66,75,192
2,57,71,0
2,62,80,0
2,62,75,114
2,57,62,0
2,66,69,0
2,45,71,10
2,60,84,382
2,64,75,0
2,57,73,0
2,45,73,10
2,58,10,92
2,54,54,64
2,62,66,0
2,57,77,0
2,62,69,118
2,54,60,0
2,57,84,0
2,62,71,72
2,54,64,0
2,57,82,0
2,43,90,70
2,55,75,384
2,62,71,0
2,58,79,0
2,55,77,108
2,62,75,0
2,58,83,0
2,45,77,6
2,57,68,384
2,60,80,0
2,64,69,0
2,45,71,166
2,64,68,298
2,60,80,0
2,57,68,0
2,43,73,136
2,55,63,362
2,62,68,0
2,58,69,0
2,43,63,110
2,55,73,250
2,62,71,0
2,58,79,0
2,45,82,12
2,57,71,384
2,60,82,0
2,64,69,0
2,45,63,136
2,57,68,346
2,60,82,0
2,64,68,0
2,50,71,192
2,65,73,384
2,62,65,0
2,69,69,0
2,69,69,140
2,65,77,0
2,62,66,0
2,45,71,6
2,64,75,350
2,67,69,0
2,60,66,0
2,67,68,114
2,64,71,0
2,60,63,0
2,46,83,110
2,65,66,384
2,58,58,0
2,62,75,0
2,57,50,0
2,65,65,74
2,58,56,0
2,62,75,0
2,57,58,0
2,48,71,26
2,64,73,384
2,67,66,0
2,60,66,0
2,67,66,106
2,64,73,0
2,60,66,0
2,69,103,208
2,64,87,0
2,41,84,0
2,48,75,0
2,62,75,50
2,60,75,74
2,69,100,40
2,64,90,0
2,48,71,0
2,41,82,0
2,62,84,76
2,60,65,50
2,69,103,106
2,64,84,0
2,48,66,0
2,41,80,0
2,62,82,26
2,69,96,8
2,64,96,0
2,46,87,0
2,53,71,0
2,62,73,192
2,60,82,2
2,69,84,76
2,64,77,0
2,53,66,0
2,46,83,0
2,62,75,32
2,60,68,80
2,69,90,16
2,64,84,0
2,53,68,0
2,46,75,0
2,62,80,14
2,69,93,34
2,41,84,0
2,48,77,0
2,64,87,0
2,62,82,192
2,60,71,18
2,69,93,62
2,48,69,0
2,41,73,0
2,64,82,0
2,62,82,192
2,60,77,160
2,69,90,32
2,64,90,0
2,48,66,0
2,41,80,0
2,62,80,14
2,69,96,46
2,64,93,0
2,46,83,0
2,53,62,0
2,62,73,192
2,60,75,10
2,69,96,66
2,53,69,0
2,46,83,0
2,64,90,0
2,62,82,192
2,60,77,10
2,69,96,0
2,64,90,0
2,53,73,0
2,46,79,0
2,62,82,10
2,69,96,98
2,64,90,0
2,48,75,0
2,41,82,0
2,62,84,192
2,60,80,6
2,69,96,70
2,64,93,0
2,48,71,0
2,41,80,0
2,62,84,192
2,60,75,28
2,69,96,88
2,64,84,0
2,48,66,0
2,41,73,0
2,62,69,14
2,69,96,42
2,64,93,0
2,46,83,0
2,53,65,0
2,62,75,192
2,60,77,10
2,69,100,66
2,64,93,0
2,46,92,0
2,53,73,0
2,62,82,176
2,60,75,34
2,69,96,112
2,64,90,0
2,53,71,0
2,46,79,0
2,62,84,6
2,69,96,8
2,64,90,0
2,48,75,0
2,41,82,0
2,62,84,192
2,60,80,6
2,69,96,20
2,64,93,0
2,48,71,0
2,41,80,0
2,62,84,192
2,60,75,28
2,69,96,88
2,64,84,0
2,48,66,0
2,41,73,0
2,62,69,8
2,69,96,102
2,64,93,0
2,46,83,0
2,53,65,0
2,62,75,192
2,60,77,10
2,69,100,48
2,64,93,0
2,46,92,0
2,53,73,0
2,62,82,192
2,60,75,32
2,69,96,112
2,64,90,0
2,53,71,0
2,46,79,0
2,62,84,6
2,45,65,108
2,60,84,384
2,57,73,0
2,64,69,0
2,45,66,98
2,60,75,148
2,64,66,0
2,57,61,0
2,60,80,140
2,64,69,0
2,57,69,0
2,45,68,98
2,57,62,84
2,60,69,0
2,64,65,0
2,45,68,146
2,60,82,360
2,64,69,0
2,57,69,0
2,50,75,86
2,62,77,192
2,66,79,0
2,57,69,0
2,62,75,66
2,66,72,0
2,57,65,0
2,45,69,0
2,57,71,384
2,60,84,0
2,64,73,0
2,50,77,80
2,66,75,192
2,57,71,0
2,62,80,0
2,62,75,114
2,57,62,0
2,66,69,0
2,45,71,10
2,60,84,382
2,64,75,0
2,57,73,0
2,45,73,10
2,58,10,92
2,54,54,64
2,62,66,0
2,57,77,0
2,62,69,118
2,54,60,0
2,57,84,0
2,62,71,72
2,54,64,0
2,57,82,0
2,45,69,70
2,57,65,0
2,57,71,384
2,60,84,0
2,64,73,0
2,50,77,80
2,66,75,192
2,57,71,0
2,62,80,0
2,62,75,114
2,57,62,0
2,66,69,0
2,45,71,10
2,60,84,382
2,64,75,0
2,57,73,0
2,45,73,10
2,58,10,92
2,54,54,64
2,62,66,0
2,57,77,0
2,62,69,118
2,54,60,0
2,57,84,0
2,62,71,72
2,54,64,0
2,57,82,0
2,43,90,70
2,55,75,384
2,62,71,0
2,58,79,0
2,55,77,108
2,62,75,0
2,58,83,0
2,45,77,6
2,57,68,384
2,60,80,0
2,64,69,0
2,45,71,166
2,64,68,298
2,60,80,0
2,57,68,0
2,43,73,136
2,55,63,362
2,62,68,0
2,58,69,0
2,43,63,110
2,55,73,250
2,62,71,0
2,58,79,0
2,45,82,12
2,57,71,384
2,60,82,0
2,64,69,0
2,45,63,136
2,57,68,346
2,60,82,0
2,64,68,0
2,50,71,192
2,65,73,384
2,62,65,0
2,69,69,0
2,69,69,140
2,65,77,0
2,62,66,0
2,45,71,6
2,64,75,350
2,67,69,0
2,60,66,0
2,67,68,114
2,64,71,0
2,60,63,0
2,46,83,110
2,65,66,384
2,58,58,0
2,62,75,0
2,57,50,0
2,65,65,74
2,58,56,0
2,62,75,0
2,57,58,0
2,48,71,26
2,64,73,384
2,67,66,0
2,60,66,0
2,67,66,106
2,64,73,0
2,60,66,0
2,69,103,208
2,64,87,0
2,41,84,0
2,48,75,0
2,62,75,50
2,60,75,74
2,69,100,40
2,64,90,0
2,48,71,0
2,41,82,0
2,62,84,76
2,60,65,50
2,69,103,106
2,64,84,0
2,48,66,0
2,41,80,0
2,62,82,26
2,69,96,8
2,64,96,0
2,46,87,0
2,53,71,0
2,62,73,192
2,60,82,2
2,69,84,76
2,64,77,0
2,53,66,0
2,46,83,0
2,62,75,32
2,60,68,80
2,69,90,16
2,64,84,0
2,53,68,0
2,46,75,0
2,62,80,14
2,69,93,34
2,41,84,0
2,48,77,0
2,64,87,0
2,62,82,192
2,60,71,18
2,69,93,62
2,48,69,0
2,41,73,0
2,64,82,0
2,62,82,192
2,60,77,160
2,69,90,32
2,64,90,0
2,48,66,0
2,41,80,0
2,62,80,14
2,69,96,46
2,64,93,0
2,46,83,0
2,53,62,0
2,62,73,192
2,60,75,10
2,69,96,66
2,53,69,0
2,46,83,0
2,64,90,0
2,62,82,192
2,60,77,10
2,69,96,0
2,64,90,0
2,53,73,0
2,46,79,0
2,62,82,10
2,69,96,98
2,64,90,0
2,48,75,0
2,41,82,0
2,62,84,192
2,60,80,6
2,69,96,70
2,64,93,0
2,48,71,0
2,41,80,0
2,62,84,192
2,60,75,28
2,69,96,88
2,64,84,0
2,48,66,0
2,41,73,0
2,62,69,14
