track,note,velocity,time
0,71,101,0
0,71,85,14
0,71,85,14
0,71,92,38
0,71,85,14
0,71,85,14
0,71,92,38
0,71,85,14
0,71,85,14
0,71,93,14
0,71,92,38
0,71,89,14
0,71,85,14
0,71,85,14
0,71,86,14
0,71,89,14
0,71,97,38
0,71,85,14
0,71,86,14
0,71,107,38
0,71,89,14
0,71,89,14
0,71,92,14
0,71,98,38
0,71,85,14
0,71,85,14
0,35,125,14
0,59,87,0
0,71,95,0
0,35,122,0
0,44,100,0
0,82,86,0
0,71,88,14
0,42,76,0
0,69,80,0
0,71,91,3
0,44,68,0
0,82,77,0
0,54,82,13
0,42,87,0
0,70,67,0
0,54,86,18
0,71,95,0
0,35,116,0
0,44,100,0
0,82,74,0
0,71,86,2
0,42,82,0
0,69,80,0
0,59,77,14
0,71,97,0
0,44,67,0
0,82,74,0
0,35,124,8
0,42,69,0
0,70,70,0
0,35,112,16
0,59,87,0
0,71,98,0
0,35,110,0
0,44,82,0
0,82,71,0
0,71,86,14
0,42,71,0
0,69,75,0
0,71,91,5
0,44,62,0
0,82,68,0
0,54,82,14
0,71,95,0
0,42,72,0
0,70,61,0
0,54,81,14
0,35,113,0
0,40,126,0
0,44,95,0
0,82,71,0
0,71,91,24
0,42,80,0
0,69,74,0
0,59,77,14
0,71,85,0
0,46,100,0
0,82,73,0
0,35,125,5
0,71,86,0
0,35,105,0
0,42,62,0
0,70,67,0
0,35,99,13
0,59,83,0
0,71,91,0
0,35,96,0
0,44,90,0
0,82,75,0
0,71,85,14
0,42,82,0
0,69,78,0
0,71,88,0
0,44,68,0
0,82,74,0
0,54,82,14
0,42,82,0
0,70,70,0
0,54,78,16
0,71,107,0
0,35,113,0
0,44,95,0
0,82,80,0
0,71,86,0
0,42,69,0
0,69,75,0
0,59,85,14
0,71,86,0
0,44,76,0
0,82,68,0
0,35,121,4
0,42,76,0
0,70,65,0
0,35,99,14
0,62,86,0
0,71,98,0
0,35,105,0
0,44,80,0
0,82,74,0
0,71,85,6
0,42,69,0
0,69,80,0
0,35,125,14
0,71,86,0
0,44,68,0
0,82,71,0
0,61,88,14
0,71,91,0
0,42,76,0
0,70,74,0
0,35,110,10
0,44,95,0
0,82,74,0
0,30,125,24
0,71,97,0
0,42,76,0
0,69,84,0
0,57,88,14
0,71,92,0
0,46,90,0
0,82,74,0
0,35,125,0
0,71,92,0
0,42,71,0
0,70,65,0
0,43,80,11
0,55,80,0
0,79,80,0
0,35,109,3
0,59,86,0
0,71,95,0
0,35,116,0
0,44,87,0
0,57,101,0
0,82,75,0
0,71,89,14
0,42,71,0
0,69,78,0
0,71,85,6
0,44,69,0
0,82,68,0
0,54,86,9
0,42,72,0
0,70,72,0
0,54,77,6
0,71,98,0
0,35,113,0
0,40,126,0
0,44,90,0
0,82,74,0
0,71,85,2
0,42,62,0
0,69,78,0
0,59,77,5
0,71,85,0
0,44,72,0
0,82,68,0
0,35,121,6
0,42,78,0
0,70,70,0
0,35,101,4
0,59,87,0
0,71,103,0
0,35,110,0
0,44,80,0
0,82,74,0
0,71,85,5
0,42,68,0
0,69,74,0
0,71,85,3
0,44,65,0
0,82,73,0
0,54,84,7
0,42,72,0
0,70,74,0
0,54,74,1
0,71,101,0
0,35,113,0
0,44,87,0
0,82,77,0
0,71,86,1
0,42,72,0
0,69,80,0
0,59,83,5
0,71,86,0
0,46,80,0
0,82,74,0
0,35,121,5
0,35,110,0
0,42,65,0
0,70,68,0
0,35,99,2
0,59,87,0
0,71,96,0
0,35,100,0
0,44,80,0
0,82,75,0
0,71,85,1
0,42,74,0
0,69,82,0
0,71,85,3
0,44,69,0
0,50,126,0
0,82,74,0
0,54,76,4
0,42,74,0
0,70,70,0
0,54,79,3
0,71,101,0
0,35,110,0
0,44,82,0
0,82,75,0
0,71,85,6
0,42,74,0
0,48,126,0
0,50,126,0
0,69,80,0
0,59,80,10
0,71,89,0
0,44,72,0
0,82,71,0
0,35,118,5
0,71,95,0
0,42,69,0
0,70,65,0
0,35,89,3
0,62,85,0
0,71,85,0
0,35,113,0
0,44,80,0
0,47,126,0
0,82,75,0
0,71,85,3
0,42,78,0
0,69,80,0
0,35,124,2
0,71,85,0
0,44,67,0
0,82,75,0
0,61,84,2
0,71,97,0
0,42,74,0
0,45,126,0
0,70,70,0
0,35,110,7
0,43,122,0
0,44,76,0
0,82,74,0
0,30,125,1
0,71,88,0
0,42,82,0
0,69,78,0
0,57,88,14
0,71,88,0
0,43,125,0
0,45,88,0
0,46,80,0
0,82,73,0
0,35,104,14
0,41,125,0
0,42,74,0
0,70,72,0
0,59,79,16
0,62,83,0
0,66,81,0
0,35,125,0
0,59,87,0
0,71,101,0
0,35,110,0
0,44,80,0
0,49,101,0
0,82,86,0
0,71,86,14
0,42,80,0
0,69,80,0
0,71,85,0
0,44,69,0
0,82,77,0
0,54,82,14
0,42,76,0
0,70,67,0
0,54,86,18
0,71,101,0
0,35,106,0
0,40,88,0
0,44,80,0
0,82,74,0
0,71,85,2
0,42,76,0
0,69,80,0
0,59,77,14
0,71,85,0
0,44,71,0
0,82,74,0
0,35,121,8
0,42,72,0
0,70,70,0
0,35,101,15
0,59,87,0
0,71,91,0
0,35,110,0
0,44,80,0
0,82,71,0
0,71,85,14
0,42,71,0
0,69,75,0
0,71,85,0
0,44,71,0
0,82,68,0
0,54,82,14
0,71,95,0
0,42,62,0
0,70,61,0
0,54,81,14
0,35,102,0
0,40,126,0
0,44,74,0
0,82,71,0
0,71,92,24
0,42,74,0
0,69,74,0
0,59,77,14
0,71,85,0
0,46,76,0
0,82,73,0
0,35,121,5
0,71,85,0
0,35,110,0
0,42,72,0
0,70,67,0
0,57,79,14
0,61,82,0
0,64,80,0
0,35,109,0
0,59,83,0
0,71,85,0
0,35,91,0
0,44,78,0
0,82,75,0
0,71,86,14
0,42,72,0
0,69,78,0
0,71,86,14
0,44,72,0
0,82,74,0
0,54,82,14
0,71,85,0
0,42,74,0
0,70,70,0
0,54,78,14
0,71,103,0
0,35,110,0
0,40,126,0
0,44,82,0
0,82,80,0
0,71,85,0
0,42,78,0
0,69,75,0
0,59,85,14
0,71,85,0
0,44,68,0
0,82,68,0
0,35,124,4
0,42,78,0
0,70,65,0
0,83,127,12
0,35,96,3
0,62,86,0
0,71,127,0
0,71,111,0
0,35,110,0
0,44,82,0
0,82,74,0
0,81,127,5
0,69,127,3
0,71,85,0
0,42,69,0
0,69,80,0
0,78,125,10
0,35,124,3
0,66,127,0
0,71,85,0
0,44,65,0
0,82,71,0
0,76,123,10
0,61,88,3
0,64,127,0
0,71,93,0
0,42,67,0
0,70,74,0
0,83,127,10
0,71,127,3
0,35,102,0
0,40,126,0
0,44,78,0
0,82,74,0
0,81,127,10
0,30,125,3
0,69,127,0
0,71,97,0
0,42,82,0
0,69,84,0
0,78,127,7
0,29,84,3
0,57,88,0
0,66,127,0
0,71,86,0
0,45,126,0
0,46,82,0
0,82,74,0
0,76,127,9
0,35,94,3
0,64,127,0
0,42,74,0
0,43,125,0
0,70,65,0
0,55,79,13
0,59,79,0
0,62,79,0
0,66,74,0
0,35,118,0
0,59,86,0
0,71,101,0
0,35,110,0
0,44,80,0
0,82,75,0
0,71,86,14
0,42,82,0
0,69,78,0
0,71,91,1
0,44,74,0
0,82,68,0
0,54,86,14
0,42,80,0
0,70,72,0
0,54,77,14
0,71,114,0
0,35,100,0
0,40,126,0
0,44,80,0
0,82,74,0
0,71,85,2
0,42,78,0
0,69,78,0
0,59,77,14
0,71,89,0
0,44,78,0
0,82,68,0
0,35,124,6
0,71,89,0
0,42,72,0
0,70,70,0
0,35,91,13
0,59,87,0
0,35,110,0
0,44,78,0
0,82,74,0
0,71,97,24
0,42,71,0
0,69,74,0
0,71,86,14
0,44,68,0
0,82,73,0
0,54,84,7
0,71,85,0
0,42,76,0
0,70,74,0
0,54,74,13
0,71,96,0
0,35,105,0
0,40,126,0
0,44,76,0
0,82,77,0
0,71,85,1
0,42,76,0
0,69,80,0
0,59,83,14
0,71,92,0
0,46,78,0
0,82,74,0
0,35,112,5
0,35,105,0
0,42,74,0
0,70,68,0
0,57,79,16
0,61,81,0
0,64,80,0
0,35,96,0
0,59,87,0
0,71,101,0
0,35,84,0
0,44,82,0
0,82,75,0
0,71,85,14
0,42,68,0
0,69,82,0
0,71,91,14
0,44,69,0
0,82,74,0
0,54,76,6
0,42,74,0
0,70,70,0
0,54,79,17
0,71,103,0
0,35,106,0
0,44,78,0
0,48,125,0
0,50,126,0
0,82,75,0
0,71,89,14
0,42,69,0
0,69,80,0
0,59,80,14
0,71,85,0
0,44,71,0
0,82,71,0
0,35,124,5
0,71,103,0
0,42,74,0
0,48,126,0
0,70,65,0
0,81,127,11
0,35,84,3
0,62,85,0
0,69,127,0
0,35,102,0
0,44,74,0
0,82,75,0
0,81,127,5
0,69,127,3
0,71,103,0
0,42,76,0
0,69,80,0
0,35,125,13
0,71,91,0
0,44,61,0
0,47,126,0
0,82,75,0
0,81,127,11
0,61,84,3
0,69,127,0
0,71,91,0
0,42,76,0
0,70,70,0
0,82,127,10
0,70,127,3
0,71,86,0
0,35,110,0
0,44,68,0
0,82,74,0
0,82,127,10
0,30,120,3
0,70,127,0
0,71,92,0
0,42,78,0
0,45,126,0
0,69,78,0
0,57,88,13
0,71,91,0
0,46,82,0
0,82,73,0
0,82,127,11
0,35,115,3
0,70,127,0
0,71,85,0
0,42,76,0
0,70,72,0
0,59,79,8
0,62,83,0
0,66,81,0
0,35,121,0
0,62,87,0
0,71,85,0
0,44,82,0
0,71,89,4
0,42,74,0
0,62,77,5
0,71,95,0
0,44,64,0
0,61,77,4
0,42,68,0
0,71,96,12
0,44,80,0
0,61,74,14
0,71,85,0
0,42,67,0
0,59,79,5
0,71,85,0
0,44,67,0
0,42,76,3
0,62,80,24
0,71,97,0
0,44,72,0
0,71,85,2
0,42,71,0
0,62,77,14
0,71,85,0
0,44,60,0
0,61,75,2
0,71,86,0
0,42,67,0
0,44,76,6
0,61,71,24
0,71,96,0
0,42,71,0
0,59,82,7
0,71,85,0
0,46,78,0
0,71,85,0
0,42,68,0
0,57,79,14
0,61,82,0
0,64,80,0
0,61,81,0
0,71,85,0
0,44,76,0
0,71,85,5
0,42,59,0
0,61,76,14
0,71,85,0
0,44,62,0
0,59,77,4
0,42,78,0
0,71,98,5
0,44,76,0
0,59,77,14
0,71,85,0
0,42,69,0
0,57,77,7
0,71,85,0
0,44,69,0
0,42,80,14
0,83,127,21
0,61,83,3
0,71,127,0
0,71,114,0
0,44,76,0
0,81,127,4
0,69,127,3
0,71,85,0
0,42,59,0
0,78,114,10
0,61,77,3
0,66,124,0
0,71,85,0
0,44,65,0
0,76,115,2
0,59,77,3
0,64,125,0
0,71,89,0
0,42,72,0
0,83,127,2
0,71,127,3
0,44,76,0
0,81,127,10
0,59,77,3
0,69,127,0
0,71,85,0
0,42,68,0
0,78,127,5
0,57,77,3
0,66,127,0
0,71,85,0
0,46,95,0
0,76,127,10
0,64,127,2
0,42,68,0
0,55,79,13
0,59,79,0
0,62,79,0
0,66,74,0
0,62,78,0
0,71,85,0
0,44,78,0
0,71,85,1
0,42,69,0
0,62,77,14
0,71,85,0
0,44,68,0
0,61,75,3
0,42,80,0
0,71,103,6
0,44,78,0
0,61,75,14
0,71,85,0
0,42,71,0
0,59,78,3
0,71,85,0
0,44,68,0
0,42,69,5
0,62,85,24
0,71,107,0
0,44,80,0
0,71,85,8
0,42,71,0
0,62,78,14
0,71,85,0
0,44,62,0
0,61,76,2
0,71,93,0
0,42,61,0
0,44,67,4
0,61,74,24
0,71,107,0
0,42,76,0
0,59,77,7
0,71,85,0
0,46,80,0
0,71,85,3
0,42,74,0
0,57,79,14
0,61,81,0
0,64,80,0
0,61,83,0
0,71,85,0
0,44,78,0
0,71,85,11
0,42,72,0
0,61,81,14
0,71,86,0
0,44,69,0
0,59,77,6
0,42,71,0
0,71,114,7
0,44,76,0
0,59,80,14
0,71,85,0
0,42,68,0
0,57,77,8
0,71,85,0
0,44,64,0
0,42,59,4
0,81,127,21
0,61,86,3
0,69,127,0
0,71,123,0
0,44,68,0
0,81,122,8
0,69,127,3
0,71,86,0
0,42,76,0
0,61,83,13
0,71,85,0
0,44,62,0
0,81,127,4
0,59,77,3
0,69,127,0
0,71,88,0
0,42,76,0
0,82,127,4
0,70,127,3
0,44,65,0
0,82,112,10
0,59,80,3
0,70,122,0
0,71,117,0
0,42,90,0
0,57,81,6
0,71,86,0
0,46,78,0
0,82,127,11
0,70,127,1
0,71,85,0
0,42,82,0
0,55,74,8
0,59,79,0
0,62,79,0
0,66,74,0
0,31,118,0
0,35,119,0
0,49,101,0
0,82,86,0
0,69,80,24
0,82,77,2
0,70,67,24
0,74,105,4
0,40,126,0
0,82,74,0
0,69,80,17
0,82,74,24
0,31,99,24
0,35,100,0
0,70,70,0
0,31,93,19
0,71,98,0
0,35,94,0
0,82,71,0
0,69,75,7
0,31,118,24
0,35,119,0
0,82,68,0
0,70,61,24
0,76,105,2
0,40,126,0
0,82,71,0
0,31,115,15
0,35,116,0
0,69,74,0
0,74,105,9
0,82,73,0
0,70,67,24
0,54,74,1
0,57,79,0
0,62,79,0
0,30,125,0
0,35,126,0
0,82,75,0
0,69,78,24
0,82,74,1
0,70,70,1
0,40,126,9
0,82,80,0
0,69,75,2
0,82,68,3
0,30,91,24
0,35,92,0
0,70,65,0
0,30,91,20
0,35,92,0
0,82,74,0
0,69,80,12
0,30,125,24
0,35,126,0
0,82,71,0
0,70,74,24
0,40,126,24
0,82,74,0
0,30,120,15
0,35,121,0
0,69,84,0
0,82,74,24
0,70,65,1
0,54,74,1
0,57,79,0
0,61,75,0
0,30,120,0
0,35,121,0
0,82,75,0
0,69,78,24
0,82,68,23
0,70,72,24
0,40,125,24
0,82,74,0
0,69,78,24
0,66,105,24
0,82,68,0
0,30,105,4
0,67,81,0
0,35,106,0
0,70,70,0
0,30,89,18
0,69,71,0
0,35,90,0
0,82,74,0
0,69,74,11
0,30,120,24
0,67,81,0
0,35,121,0
0,82,73,0
0,70,74,23
0,66,98,5
0,40,126,0
0,82,77,0
0,30,115,17
0,35,116,0
0,69,80,0
0,64,98,3
0,82,74,0
0,70,68,4
0,54,70,1
0,59,79,0
0,62,78,0
0,35,112,0
0,35,113,0
0,82,75,0
0,66,87,24
0,69,82,0
0,62,105,12
0,82,74,0
0,70,70,24
0,40,126,24
0,82,75,0
0,69,80,24
0,82,71,5
0,35,115,4
0,35,116,0
0,70,65,0
0,35,90,4
0,35,91,0
0,82,75,0
0,69,80,4
0,35,124,3
0,35,125,0
0,82,75,0
0,70,70,24
0,40,126,24
0,82,74,0
0,33,125,18
0,35,126,0
0,69,78,0
0,82,73,24
0,70,72,24
0,55,72,1
0,59,79,0
0,62,79,0
0,66,74,0
0,31,124,0
0,35,125,0
0,82,86,0
0,69,80,24
0,82,77,10
0,70,67,24
0,74,112,2
0,40,126,0
0,82,74,0
0,69,80,9
0,82,74,24
0,31,105,24
0,35,106,0
0,70,70,0
0,31,99,17
0,71,105,0
0,35,100,0
0,82,71,0
0,69,75,8
0,31,124,24
0,35,125,0
0,82,68,0
0,70,61,24
0,76,98,10
0,40,126,0
0,82,71,0
0,31,121,18
0,35,122,0
0,69,74,0
0,73,105,24
0,82,73,0
0,70,67,22
0,54,74,1
0,57,79,0
0,61,77,0
0,30,125,0
0,35,126,0
0,82,75,0
0,69,78,24
0,82,74,8
0,70,70,3
0,40,126,2
0,82,80,0
0,69,75,18
0,82,68,6
0,30,115,7
0,35,116,0
0,70,65,0
0,30,105,16
0,35,106,0
0,82,74,0
0,69,80,12
0,30,125,24
0,35,126,0
0,82,71,0
0,70,74,24
0,40,126,24
0,82,74,0
0,54,74,1
0,59,79,0
0,62,79,0
0,31,125,0
0,35,126,0
0,69,84,0
0,82,74,24
0,45,122,24
0,70,65,0
0,54,73,1
