track,note,velocity,time
1,67,100,12096
1,67,100,4
1,69,100,0
1,69,100,4
1,69,100,4
1,69,100,4
1,69,100,4
1,69,100,4
1,69,100,4
1,69,100,4
1,69,100,4
1,71,100,4
1,74,100,580
1,74,100,4
1,74,100,4
1,74,100,4
1,74,100,4
1,74,100,4
1,74,100,4
1,74,100,4
1,74,100,4
1,74,100,4
1,73,100,4
1,71,100,4
1,69,100,4
1,66,100,4
1,69,100,580
1,69,100,4
1,69,100,4
1,69,100,4
1,69,100,4
1,69,100,4
1,69,100,4
1,69,100,4
1,69,100,4
1,69,100,4
1,69,100,4
1,69,100,4
1,69,100,4
1,69,100,4
1,69,100,4
1,69,100,4
1,71,100,4
1,74,100,580
1,74,100,4
1,74,100,4
1,74,100,4
1,74,100,4
1,74,100,4
1,74,100,4
1,74,100,4
1,74,100,4
1,74,100,4
1,74,100,4
1,73,100,4
1,71,100,4
1,69,100,4
1,66,100,4
1,66,100,964
1,66,100,4
1,69,100,4
1,69,100,4
1,69,100,4
1,69,100,4
1,69,100,4
1,69,100,4
1,69,100,4
1,69,100,4
1,69,100,4
1,69,100,4
1,69,100,4
1,69,100,4
1,71,100,4
1,64,100,196
1,64,100,4
1,64,100,4
1,64,100,4
1,64,100,4
1,64,100,4
1,64,100,4
1,62,100,4
1,62,100,4
1,64,100,4
1,62,100,4
1,59,100,4
1,69,100,964
1,69,100,4
1,69,100,4
1,69,100,4
1,69,100,4
1,69,100,4
1,69,100,4
1,69,100,4
1,69,100,4
1,69,100,4
1,69,100,4
1,69,100,4
1,69,100,4
1,71,100,4
1,71,100,196
1,71,100,4
1,71,100,4
1,71,100,4
1,71,100,4
1,71,100,4
1,71,100,4
1,62,100,4
1,62,100,4
1,62,100,4
1,62,100,4
1,62,100,4
1,62,100,4
1,62,100,4
1,62,100,4
1,64,100,4
1,62,100,4
1,59,100,4
1,76,100,196
1,78,100,4
1,79,100,4
1,79,100,4
1,79,100,4
1,79,100,4
1,78,100,4
1,78,100,4
1,76,100,4
1,76,100,4
1,76,100,580
1,76,100,4
1,78,100,4
1,79,100,4
1,79,100,4
1,79,100,4
1,79,100,4
1,81,100,4
1,78,100,4
1,76,100,4
1,76,100,4
1,76,100,4
1,76,100,4
1,76,100,4
1,76,100,4
1,76,100,388
1,79,100,4
1,79,100,4
1,79,100,4
1,79,100,4
1,78,100,4
1,78,100,4
1,78,100,4
1,76,100,4
1,76,100,4
1,76,100,4
1,76,100,772
1,78,100,4
1,79,100,4
1,79,100,4
1,79,100,4
1,79,100,4
1,81,100,4
1,81,100,4
1,81,100,4
1,78,100,4
1,78,100,4
1,78,100,4
1,71,100,772
1,71,100,4
1,71,100,4
1,71,100,4
1,71,100,4
1,69,100,4
1,69,100,4
1,69,100,4
1,66,100,4
1,67,100,4
1,67,100,4
1,67,100,964
1,69,100,4
1,69,100,0
1,69,100,4
1,69,100,4
1,69,100,4
1,69,100,4
1,69,100,4
1,69,100,4
1,69,100,4
1,69,100,4
1,69,100,4
1,69,100,4
1,71,100,4
1,71,100,580
1,71,100,4
1,71,100,4
1,71,100,4
1,62,100,4
1,62,100,4
1,62,100,4
1,62,100,4
1,62,100,4
1,62,100,4
1,62,100,292
1,62,100,4
1,64,100,4
1,62,100,4
1,59,100,4
1,69,100,1060
1,69,100,4
1,69,100,4
1,69,100,4
1,69,100,4
1,69,100,4
1,69,100,4
1,69,100,4
1,69,100,4
1,69,100,4
1,69,100,4
1,69,100,4
1,69,100,4
1,71,100,4
1,64,100,772
1,64,100,4
1,64,100,4
1,62,100,4
1,62,100,4
1,62,100,4
1,62,100,4
1,64,100,4
1,62,100,4
1,59,100,4
1,76,100,580
1,76,100,4
1,76,100,4
1,76,100,4
1,78,100,4
1,79,100,4
1,79,100,4
1,79,100,4
1,79,100,4
1,78,100,4
1,78,100,4
1,78,100,4
1,78,100,4
1,78,100,4
1,76,100,4
1,79,100,964
1,79,100,4
1,79,100,4
1,79,100,4
1,81,100,4
1,81,100,4
1,81,100,4
1,78,100,4
1,76,100,4
1,76,100,4
1,79,100,1156
1,79,100,4
1,79,100,4
1,78,100,4
1,78,100,4
1,78,100,4
1,76,100,4
1,76,100,964
1,79,100,4
1,79,100,4
1,79,100,4
1,81,100,4
1,78,100,4
1,76,100,4
1,76,100,4
1,79,100,1348
1,79,100,4
1,79,100,4
1,78,100,4
1,78,100,4
1,78,100,4
1,76,100,4
1,76,100,192
1,76,100,4
1,76,100,4
1,74,100,4
1,74,100,4
1,74,100,4
1,74,100,4
1,74,100,4
1,74,100,4
1,72,100,4
1,71,100,4
1,69,100,4
1,72,100,580
1,74,100,4
1,76,100,4
1,77,100,4
1,77,100,4
1,77,100,4
1,77,100,4
1,76,100,4
1,76,100,4
1,76,100,4
1,74,100,4
1,76,100,580
1,76,100,4
1,76,100,4
1,76,100,4
1,76,100,4
1,76,100,4
1,76,100,4
1,74,100,4
1,74,100,4
1,74,100,4
1,72,100,4
1,71,100,4
1,69,100,4
1,77,100,388
1,77,100,4
1,77,100,4
1,77,100,4
1,76,100,4
1,77,100,4
1,77,100,4
1,77,100,4
1,77,100,4
1,76,100,4
1,76,100,4
1,76,100,4
1,74,100,4
1,74,100,196
1,74,100,4
1,74,100,4
1,74,100,4
1,74,100,4
1,76,100,4
1,76,100,4
1,76,100,4
1,74,100,4
1,74,100,4
1,74,100,4
1,74,100,4
1,74,100,4
1,72,100,4
1,71,100,4
1,69,100,4
1,69,100,4
1,72,100,4
1,74,100,4
1,76,100,4
1,77,100,4
1,77,100,4
1,77,100,4
1,77,100,4
1,76,100,4
1,76,100,4
1,76,100,4
1,74,100,4
1,76,100,1156
1,76,100,4
1,76,100,4
1,76,100,4
1,76,100,4
1,76,100,4
1,74,100,4
1,74,100,4
1,74,100,4
1,72,100,4
1,71,100,4
1,69,100,4
1,77,100,1348
1,77,100,4
1,77,100,4
1,76,100,4
1,76,100,4
1,76,100,4
1,74,100,4
1,76,100,1156
1,76,100,4
1,76,100,4
1,76,100,4
1,74,100,4
1,74,100,4
1,74,100,4
1,74,100,4
1,72,100,4
1,71,100,4
1,69,100,4
1,76,100,964
1,77,100,4
1,77,100,4
1,77,100,4
1,77,100,4
1,76,100,4
1,76,100,4
1,79,100,4
1,74,100,4
1,74,100,580
1,74,100,4
1,74,100,4
1,76,100,4
1,76,100,4
1,74,100,4
1,74,100,4
1,72,100,4
1,71,100,4
1,69,100,4
1,77,100,1348
1,76,100,4
1,76,100,4
1,76,100,4
1,76,100,4
1,74,100,4
1,78,100,12096
1,79,100,0
1,79,100,196
1,79,100,4
1,78,100,4
1,78,100,4
1,76,100,4
1,78,100,1156
1,79,100,4
1,79,100,4
1,79,100,4
1,72,100,4
1,72,100,4
1,71,100,4
1,77,100,1156
1,77,100,4
1,77,100,4
1,76,100,4
1,76,100,4
1,74,100,4
1,74,100,4
1,77,100,1156
1,77,100,4
1,77,100,4
1,77,100,4
1,70,100,4
1,70,100,4
1,70,100,4
1,77,100,1540
1,77,100,4
1,75,100,4
1,75,100,4
1,75,100,4
1,74,100,4
1,74,100,4
1,75,100,964
1,77,100,4
1,77,100,4
1,77,100,4
1,77,100,4
1,75,100,4
1,75,100,4
1,74,100,4
1,68,100,4
1,68,100,4
1,76,100,4036
1,76,100,4
1,76,100,4
1,76,100,4
1,76,100,4
1,76,100,4
1,74,100,4
1,74,100,4
1,74,100,4
1,74,100,4
1,74,100,4
1,74,100,4
1,72,100,4
1,71,100,4
1,69,100,4
1,72,100,580
1,74,100,4
1,76,100,4
1,77,100,4
1,77,100,4
1,77,100,4
1,77,100,4
1,76,100,4
1,76,100,4
1,76,100,0
1,76,100,4
1,76,100,4
1,76,100,4
1,74,100,4
1,74,100,4
1,74,100,4
1,72,100,196
1,74,100,4
1,76,100,4
1,74,100,4
1,74,100,4
1,74,100,4
1,74,100,4
1,74,100,4
1,74,100,4
1,74,100,4
1,74,100,4
1,72,100,4
1,71,100,4
1,69,100,4
1,74,100,196
1,76,100,4
1,77,100,4
1,77,100,4
1,77,100,4
1,77,100,4
1,77,100,4
1,77,100,4
1,76,100,4
1,76,100,4
1,76,100,4
1,76,100,4
1,74,100,4
1,72,100,388
1,74,100,4
1,74,100,4
1,74,100,4
1,76,100,4
1,76,100,4
1,76,100,4
1,74,100,580
1,72,100,4
1,71,100,4
1,69,100,4
1,72,100,580
1,74,100,4
1,76,100,4
1,77,100,4
1,77,100,4
1,77,100,4
1,76,100,4
1,76,100,4
1,76,100,4
1,79,100,4
1,74,100,4
1,72,100,580
1,74,100,4
1,76,100,4
1,76,100,4
1,76,100,4
1,76,100,4
1,74,100,4
1,74,100,4
1,74,100,4
1,72,100,4
1,71,100,4
1,69,100,4
1,72,100,580
1,74,100,4
1,76,100,4
1,77,100,4
1,77,100,4
1,77,100,4
1,77,100,4
1,76,100,4
1,76,100,196
1,76,100,4
1,74,100,4
1,76,100,1156
1,76,100,4
1,74,100,4
1,74,100,4
1,74,100,4
1,74,100,4
1,72,100,4
1,71,100,4
1,69,100,4
1,77,100,1156
1,77,100,4
1,77,100,4
1,76,100,4
1,76,100,4
1,76,100,4
1,76,100,4
1,74,100,4
1,76,100,1156
1,76,100,4
1,76,100,4
1,76,100,4
1,74,100,4
1,74,100,4
1,72,100,4
1,71,100,4
1,69,100,4
1,77,100,196
1,77,100,4
1,77,100,4
1,77,100,4
1,77,100,4
1,76,100,4
1,76,100,4
1,76,100,4
1,76,100,4
1,76,100,4
1,74,100,4
1,72,100,388
1,72,100,4
1,74,100,4
1,74,100,4
1,76,100,4
1,76,100,4
1,74,100,4
1,74,100,4
1,72,100,4
1,71,100,4
1,69,100,4
2,69,100,0
2,66,100,0
2,62,100,0
2,62,100,96
2,66,100,0
2,69,100,0
2,62,100,224
2,66,100,0
2,69,100,0
2,69,100,64
2,66,100,0
2,62,100,0
2,62,100,96
2,66,100,0
2,69,100,0
2,62,100,224
2,66,100,0
2,69,100,0
2,64,100,64
2,67,100,0
2,71,100,0
2,64,100,96
2,67,100,0
2,71,100,0
2,64,100,224
2,67,100,0
2,71,100,0
2,64,100,64
2,67,100,0
2,71,100,0
2,64,100,96
2,67,100,0
2,71,100,0
2,64,100,224
2,67,100,0
2,71,100,0
2,59,100,64
2,62,100,0
2,66,100,0
2,59,100,96
2,62,100,0
2,66,100,0
2,59,100,224
2,62,100,0
2,66,100,0
2,59,100,64
2,62,100,0
2,66,100,0
2,59,100,96
2,62,100,0
2,66,100,0
2,59,100,224
2,62,100,0
2,66,100,0
2,59,100,64
2,62,100,0
2,66,100,0
2,59,100,96
2,62,100,0
2,66,100,0
2,59,100,224
2,62,100,0
2,66,100,0
2,59,100,64
2,62,100,0
2,66,100,0
2,59,100,96
2,62,100,0
2,66,100,0
2,59,100,224
2,62,100,0
2,66,100,0
2,69,100,64
2,66,100,0
2,62,100,0
2,62,100,96
2,66,100,0
2,69,100,0
2,62,100,224
2,66,100,0
2,69,100,0
2,69,100,64
2,66,100,0
2,62,100,0
2,62,100,96
2,66,100,0
2,69,100,0
2,62,100,224
2,66,100,0
2,69,100,0
2,64,100,64
2,67,100,0
2,71,100,0
2,64,100,96
2,67,100,0
2,71,100,0
2,64,100,224
2,67,100,0
2,71,100,0
2,64,100,64
2,67,100,0
2,71,100,0
2,64,100,96
2,67,100,0
2,71,100,0
2,64,100,224
2,67,100,0
2,71,100,0
2,59,100,64
2,62,100,0
2,66,100,0
2,59,100,96
2,62,100,0
2,66,100,0
2,59,100,224
2,62,100,0
2,66,100,0
2,59,100,64
2,62,100,0
2,66,100,0
2,59,100,96
2,62,100,0
2,66,100,0
2,59,100,224
2,62,100,0
2,66,100,0
2,59,100,64
2,62,100,0
2,66,100,0
2,59,100,96
2,62,100,0
2,66,100,0
2,59,100,224
2,62,100,0
2,66,100,0
2,59,100,64
2,62,100,0
2,66,100,0
2,59,100,96
2,62,100,0
2,66,100,0
2,59,100,224
2,62,100,0
2,66,100,0
2,69,100,64
2,66,100,0
2,62,100,0
2,62,100,96
2,66,100,0
2,69,100,0
2,62,100,224
2,66,100,0
2,69,100,0
2,69,100,64
2,66,100,0
2,62,100,0
2,62,100,96
2,66,100,0
2,69,100,0
2,62,100,224
2,66,100,0
2,69,100,0
2,64,100,64
2,67,100,0
2,71,100,0
2,64,100,96
2,67,100,0
2,71,100,0
2,64,100,224
2,67,100,0
2,71,100,0
2,64,100,64
2,67,100,0
2,71,100,0
2,64,100,96
2,67,100,0
2,71,100,0
2,64,100,224
2,67,100,0
2,71,100,0
2,59,100,64
2,62,100,0
2,66,100,0
2,59,100,96
2,62,100,0
2,66,100,0
2,59,100,224
2,62,100,0
2,66,100,0
2,59,100,64
2,62,100,0
2,66,100,0
2,59,100,96
2,62,100,0
2,66,100,0
2,59,100,224
2,62,100,0
2,66,100,0
2,59,100,64
2,62,100,0
2,66,100,0
2,59,100,96
2,62,100,0
2,66,100,0
2,59,100,224
2,62,100,0
2,66,100,0
2,59,100,64
2,62,100,0
2,66,100,0
2,59,100,96
2,62,100,0
2,66,100,0
2,59,100,224
2,62,100,0
2,66,100,0
2,69,100,64
2,66,100,0
2,62,100,0
2,62,100,96
2,66,100,0
2,69,100,0
2,62,100,224
2,66,100,0
2,69,100,0
2,69,100,64
2,66,100,0
2,62,100,0
2,62,100,96
2,66,100,0
2,69,100,0
2,62,100,224
2,66,100,0
2,69,100,0
2,64,100,64
2,67,100,0
2,71,100,0
2,64,100,96
2,67,100,0
2,71,100,0
2,64,100,224
2,67,100,0
2,71,100,0
2,64,100,64
2,67,100,0
2,71,100,0
2,64,100,96
2,67,100,0
2,71,100,0
2,64,100,224
2,67,100,0
2,71,100,0
2,59,100,64
2,62,100,0
2,66,100,0
2,59,100,96
2,62,100,0
2,66,100,0
2,59,100,224
2,62,100,0
2,66,100,0
2,59,100,64
2,62,100,0
2,66,100,0
2,59,100,96
2,62,100,0
2,66,100,0
2,59,100,224
2,62,100,0
2,66,100,0
2,59,100,64
2,62,100,0
2,66,100,0
2,59,100,96
2,62,100,0
2,66,100,0
2,59,100,224
2,62,100,0
2,66,100,0
2,59,100,64
2,62,100,0
2,66,100,0
2,59,100,96
2,62,100,0
2,66,100,0
2,59,100,224
2,62,100,0
2,66,100,0
2,71,100,0
2,76,100,0
2,79,100,0
2,71,100,4
2,74,100,0
2,78,100,0
2,67,100,4
2,71,100,0
2,76,100,0
2,64,100,4
2,67,100,0
2,71,100,0
2,69,100,4
2,66,100,0
2,74,100,0
2,67,100,4
2,71,100,0
2,76,100,0
2,71,100,4
2,76,100,0
2,79,100,0
2,71,100,4
2,74,100,0
2,78,100,0
2,67,100,4
2,71,100,0
2,76,100,0
2,64,100,4
2,67,100,0
2,71,100,0
2,69,100,4
2,66,100,0
2,74,100,0
2,67,100,4
2,71,100,0
2,76,100,0
2,69,100,0
2,66,100,0
2,62,100,0
2,62,100,96
2,66,100,0
2,69,100,0
2,62,100,224
2,66,100,0
2,69,100,0
2,69,100,64
2,66,100,0
2,62,100,0
2,62,100,96
2,66,100,0
2,69,100,0
2,62,100,224
2,66,100,0
2,69,100,0
2,64,100,64
2,67,100,0
2,71,100,0
2,64,100,96
2,67,100,0
2,71,100,0
2,64,100,224
2,67,100,0
2,71,100,0
2,64,100,64
2,67,100,0
2,71,100,0
2,64,100,96
2,67,100,0
2,71,100,0
2,64,100,224
2,67,100,0
2,71,100,0
2,59,100,64
2,62,100,0
2,66,100,0
2,59,100,96
2,62,100,0
2,66,100,0
2,59,100,224
2,62,100,0
2,66,100,0
2,59,100,64
2,62,100,0
2,66,100,0
2,59,100,96
2,62,100,0
2,66,100,0
2,59,100,224
2,62,100,0
2,66,100,0
2,59,100,64
2,62,100,0
2,66,100,0
2,59,100,96
2,62,100,0
2,66,100,0
2,59,100,224
2,62,100,0
2,66,100,0
2,59,100,64
2,62,100,0
2,66,100,0
2,59,100,96
2,62,100,0
2,66,100,0
2,59,100,224
2,62,100,0
2,66,100,0
