track,note,velocity,time
3,40,95,66620
3,33,98,7
3,35,97,12
3,40,103,0
3,33,96,3840
3,35,105,7
3,40,114,120
3,40,116,240
3,35,73,30
3,33,111,13
3,45,98,240
3,40,96,120
3,45,115,5
3,40,107,18
3,33,116,50
3,34,78,0
3,35,105,9
3,35,108,104
3,35,103,103
3,35,83,30
3,35,88,60
3,35,109,68
3,35,116,62
3,35,114,67
3,35,119,72
3,28,115,270
3,40,112,240
3,35,72,30
3,33,111,13
3,45,99,240
3,40,96,120
3,45,114,5
3,40,107,18
3,33,116,50
3,34,79,0
3,35,105,9
3,35,108,104
3,35,109,150
3,35,96,150
3,40,80,11765
3,40,65,69
3,47,67,90
3,47,64,60
3,40,80,30
3,40,83,154
3,33,85,330
3,33,82,390
3,36,82,420
3,35,83,60
3,40,88,90
3,40,91,102
3,40,97,72
3,42,90,25
3,43,95,480
3,36,104,60
3,41,100,34
3,35,101,65
3,40,101,65
3,38,100,65
3,36,100,65
3,40,99,18720
3,33,103,7
3,35,100,12
3,40,106,0
3,33,101,3840
3,35,108,7
3,40,119,120
3,40,121,240
3,35,76,30
3,33,115,13
3,45,102,240
3,40,100,120
3,45,119,5
3,40,111,18
3,33,120,50
3,34,82,0
3,35,109,9
3,35,113,104
3,35,106,103
3,35,86,30
3,35,93,60
3,35,112,68
3,35,121,62
3,35,119,67
3,35,122,72
3,28,119,270
3,40,116,240
3,35,76,30
3,33,115,13
3,45,103,240
3,40,100,120
3,45,118,5
3,40,111,18
3,33,121,50
3,34,82,0
3,35,108,9
3,35,101,240
3,35,68,30
3,35,99,90
3,35,121,90
3,35,116,82
3,35,113,75
3,35,116,87
3,28,118,59
3,40,117,240
3,35,77,30
3,33,114,13
3,45,102,240
3,40,101,120
3,45,119,5
3,40,110,18
3,33,120,50
3,34,83,0
3,35,108,9
3,35,113,104
3,35,113,150
3,35,100,150
3,35,113,120
3,35,100,30
3,35,106,50
3,35,109,50
3,35,111,50
3,28,122,30
3,40,124,240
3,35,81,30
3,33,119,13
3,45,108,240
3,40,104,120
3,45,123,5
3,40,116,18
3,33,125,50
3,34,89,0
3,35,112,9
3,35,119,104
3,35,110,103
3,35,92,30
3,35,99,60
3,35,119,68
3,35,124,62
3,35,122,67
3,35,127,72
3,28,123,270
3,28,122,60
3,35,104,30
3,40,119,60
3,40,114,40
3,40,123,23
3,35,119,25
3,28,118,30
3,33,119,17
3,45,108,240
3,40,104,120
3,45,123,5
3,40,117,18
3,33,124,50
3,34,88,0
3,35,113,9
3,35,107,240
3,35,74,30
3,35,104,60
3,35,125,60
3,35,122,60
3,35,117,60
3,35,125,60
3,28,126,62
4,40,67,3235
4,47,40,480
4,50,47,0
4,55,35,480
4,40,58,183
4,47,41,10
4,50,52,13
4,45,66,0
4,52,35,480
4,45,59,90
4,52,38,480
4,48,56,48
4,54,47,480
4,57,53,480
4,47,58,0
4,54,50,455
4,59,67,480
4,40,64,23
4,47,39,240
4,55,59,480
4,40,62,144
4,47,37,120
4,55,40,480
4,40,68,17
4,52,53,480
4,55,61,480
4,59,60,480
4,64,66,960
4,52,51,30
4,55,59,115
4,45,74,22
4,52,60,320
4,55,75,321
4,60,66,972
4,64,63,52
4,55,65,21
4,52,44,35
4,48,71,22
4,54,54,477
4,57,66,457
4,64,69,38
4,47,75,10
4,59,60,465
4,63,78,481
4,54,57,482
4,40,79,6
4,52,52,495
4,55,62,277
4,59,63,491
4,40,72,52
4,47,61,5
4,40,71,46
4,42,64,5
4,47,69,329
4,50,68,65
4,55,86,61
4,47,61,140
4,55,53,28
4,47,58,1
4,50,52,9
4,47,41,168
4,48,57,9
4,52,72,32
4,55,64,13
4,48,49,37
4,52,68,29
4,55,69,0
4,48,35,56
4,45,62,32
4,48,67,10
4,53,76,38
4,45,58,74
4,48,69,56
4,53,67,20
4,47,64,66
4,51,72,10
4,54,73,34
4,47,59,144
4,51,62,30
4,54,62,12
4,52,79,62
4,55,68,24
4,59,87,44
4,52,43,87
4,59,60,62
4,52,65,38
4,50,52,54
4,55,70,17
4,59,73,42
4,50,43,86
4,55,64,9
4,59,64,24
4,48,75,3
4,52,77,38
4,55,90,55
4,40,78,77
4,47,55,479
4,52,58,1
4,40,55,99
4,47,37,80
4,52,54,33
4,45,59,24
4,52,52,479
4,55,68,21
4,60,63,754
4,62,71,7
4,60,44,3
4,55,34,71
4,48,47,5
4,54,43,480
4,57,46,490
4,47,48,10
4,54,45,105
4,59,44,503
4,48,47,51
4,54,43,520
4,57,46,550
4,40,65,1298
4,52,56,16
4,56,64,34
4,59,69,66
4,56,55,15
4,52,42,4
4,59,62,2
4,52,57,14
4,40,75,5
4,56,66,30
4,59,62,48
4,52,43,56
4,56,56,12
4,59,53,6
4,45,73,21
4,52,58,33
4,57,71,47
4,61,64,58
4,61,62,90
4,57,59,7
4,45,73,46
4,57,64,28
4,61,64,43
4,52,51,102
4,61,73,13
4,57,66,25
4,52,50,101
4,47,67,28
4,51,62,37
4,54,71,28
4,59,75,28
4,59,58,10
4,51,65,14
4,54,68,11
4,47,62,72
4,51,71,28
4,54,75,7
4,59,64,39
4,47,68,29
4,51,67,15
4,54,65,24
4,59,70,0
4,40,76,25
4,40,65,0
4,52,56,10
4,56,65,34
4,59,69,66
4,56,54,15
4,52,43,4
4,59,62,2
4,52,56,14
4,40,75,5
4,56,67,30
4,59,62,48
4,52,42,56
4,56,57,12
4,59,53,6
4,45,72,21
4,52,58,33
4,57,71,47
4,61,64,58
4,61,63,90
4,57,59,7
4,45,72,46
4,57,65,28
4,61,64,43
4,52,50,102
4,61,73,13
4,57,67,25
4,52,50,101
4,47,66,28
4,51,63,37
4,54,71,28
4,59,74,28
4,59,58,10
4,51,65,14
4,54,68,11
4,47,63,16
4,63,47,6
4,59,36,2
4,54,59,3
4,63,50,52
4,54,48,5
4,59,49,45
4,47,61,4
4,63,50,1
4,54,56,4
4,47,67,50
4,59,71,4
4,54,78,5
4,63,60,11
4,47,99,68
4,59,98,3
4,63,73,4
4,54,91,1
4,63,82,41
4,59,95,7
4,54,90,5
4,47,90,3
4,47,93,28
4,54,97,9
4,63,96,12
4,59,106,4
4,47,79,31
4,54,85,9
4,59,96,6
4,56,86,9
4,59,77,40
4,64,76,43
4,56,69,122
4,56,85,52
4,64,88,4
4,59,93,10
4,56,84,67
4,59,92,9
4,64,87,9
4,59,91,59
4,56,52,23
4,52,58,2
4,56,69,83
4,52,81,12
4,64,90,38
4,59,78,4
4,56,57,62
4,57,64,34
4,61,63,49
4,64,87,68
4,57,62,110
4,61,71,17
4,57,60,30
4,64,86,8
4,61,83,69
4,57,91,3
4,64,90,5
4,57,68,150
4,57,75,150
4,61,87,47
4,64,84,4
4,57,78,23
4,59,85,10
4,66,78,5
4,63,77,4
4,59,69,77
4,66,70,43
4,63,87,4
4,59,84,4
4,66,56,25
4,63,69,6
4,59,73,5
4,66,52,10
4,63,40,25
4,59,37,24
4,63,57,59
4,66,68,4
4,63,68,78
4,59,71,5
4,66,74,4
4,59,91,58
4,66,91,3
4,63,92,5
4,63,79,57
4,66,82,4
4,59,76,4
4,59,87,76
4,63,93,15
4,66,80,4
4,56,68,53
4,59,69,23
4,64,85,68
4,56,68,57
4,56,84,54
4,64,89,4
4,59,92,10
4,56,85,6
4,59,93,9
4,64,94,9
4,59,73,59
4,56,52,23
4,52,58,2
4,56,85,25
4,59,75,0
4,64,74,0
4,64,94,21
4,59,79,4
4,56,57,90
4,57,64,34
4,61,62,49
4,64,95,68
4,57,62,110
4,61,71,17
4,57,61,30
4,64,86,8
4,61,83,69
4,57,90,3
4,64,94,5
4,57,69,150
4,57,75,150
4,61,86,47
4,64,84,4
4,57,79,19
4,61,75,5
4,64,76,7
4,64,68,32
4,57,79,15
4,59,84,42
4,63,77,0
4,66,79,29
4,59,68,77
4,66,71,11
4,63,86,4
4,59,84,4
4,66,57,25
4,63,69,6
4,59,72,5
4,40,66,772
4,47,41,500
4,52,51,500
4,55,44,40
4,40,58,183
4,52,53,10
4,55,52,470
4,59,47,30
4,45,67,0
4,52,40,10
4,55,51,498
4,60,48,3
4,45,58,90
4,55,39,82
4,60,51,387
4,52,29,90
4,48,56,34
4,54,36,480
4,57,45,480
4,64,43,480
4,47,50,40
4,54,46,480
4,59,63,480
4,40,64,23
4,47,39,280
4,55,59,480
4,40,62,144
4,47,37,120
4,55,40,480
4,40,68,17
4,52,53,480
4,55,61,480
4,59,60,480
4,52,52,90
4,55,61,30
4,59,61,230
4,45,64,52
4,52,54,290
4,55,61,131
4,59,46,479
4,60,53,23
4,62,63,12
4,59,54,7
4,55,47,10
4,48,70,96
4,54,54,477
4,57,67,457
4,64,69,38
4,47,74,10
4,59,60,465
4,63,79,481
4,54,57,482
4,40,78,6
4,52,52,495
4,55,63,277
4,59,62,491
4,40,73,52
4,47,61,5
4,40,70,46
4,42,65,5
4,47,68,329
4,50,68,65
4,55,87,61
4,47,61,140
4,55,52,28
4,47,58,1
4,50,53,9
4,47,41,156
4,48,56,9
4,52,72,32
4,55,65,13
4,48,48,37
4,52,69,29
4,55,69,0
4,48,34,56
4,45,63,32
4,48,66,10
4,53,76,38
4,45,59,74
4,48,69,56
4,53,66,20
4,47,64,66
4,51,73,10
4,54,73,34
4,47,58,144
4,51,62,30
4,54,63,12
4,52,78,62
4,55,69,24
4,59,87,44
4,52,42,87
4,59,61,62
4,52,64,38
4,50,52,54
4,55,71,17
4,59,73,42
4,50,42,86
4,55,64,9
4,59,65,24
4,48,75,3
4,52,76,38
4,55,90,55
4,40,67,660
4,47,40,480
4,52,47,480
4,55,35,30
4,40,58,183
4,47,41,10
4,55,52,480
4,45,62,30
4,52,35,480
4,55,49,495
4,60,56,10
4,64,48,475
4,45,59,150
4,55,43,256
4,60,44,44
4,64,52,51
4,48,57,30
4,54,46,410
4,64,39,264
4,57,53,10
4,47,52,10
4,54,47,290
4,63,34,480
4,59,48,10
4,48,55,598
4,54,41,537
4,57,46,601
4,64,46,534
4,40,65,61
4,52,57,66
4,56,64,84
4,59,68,66
4,56,55,23
4,52,42,4
4,59,63,2
4,52,57,14
4,40,74,5
4,56,67,30
4,59,62,48
4,52,42,56
4,56,57,12
4,59,53,6
4,45,72,21
4,52,58,33
4,57,71,47
4,61,65,58
4,61,62,90
4,57,58,7
4,45,73,46
4,57,64,28
4,61,65,43
4,52,51,102
4,61,72,13
4,57,67,25
4,52,50,101
4,47,66,28
4,51,63,37
4,54,71,28
4,59,74,28
4,59,58,10
4,51,65,14
4,54,69,11
4,47,62,72
4,51,70,28
4,54,75,7
4,59,64,39
4,47,69,29
4,51,67,15
4,54,64,24
4,59,71,0
4,59,64,47
4,54,54,7
4,63,53,0
4,40,65,9
4,52,56,16
4,56,64,1
4,59,69,66
4,56,55,15
4,52,42,4
4,59,62,2
4,52,57,14
4,40,74,5
4,56,67,30
4,59,63,48
4,52,42,56
4,56,57,12
4,59,52,6
4,45,72,21
4,52,59,33
4,57,71,47
4,61,64,58
4,61,62,90
4,57,59,7
4,45,73,46
4,57,64,28
4,61,64,43
4,52,51,102
4,61,72,13
4,57,67,25
4,52,51,101
4,47,66,28
4,51,63,37
4,54,70,28
4,59,74,28
4,59,59,10
4,51,65,14
4,54,68,11
4,47,62,16
4,63,47,6
4,59,37,2
4,54,58,3
4,63,50,52
4,54,49,5
4,59,48,45
4,47,61,4
4,63,51,1
4,54,56,4
4,47,67,50
4,59,70,4
4,54,78,5
4,63,61,11
4,47,99,68
4,59,98,3
4,63,72,4
4,54,91,1
4,63,83,41
4,59,94,7
4,54,90,5
4,47,91,3
4,47,92,28
4,54,97,9
4,63,97,12
4,59,106,4
4,47,79,31
4,54,84,9
4,59,96,6
4,56,87,9
4,59,77,40
4,64,76,43
4,56,68,122
4,56,85,52
4,64,89,4
4,59,92,10
4,56,84,67
4,59,93,9
4,64,86,9
4,59,91,59
4,56,53,23
4,52,58,2
4,56,69,83
4,52,80,12
4,64,90,38
4,59,79,4
4,56,57,62
4,57,64,34
4,61,62,49
4,64,87,68
4,57,63,110
4,61,70,17
4,57,60,30
4,64,87,8
4,61,82,69
4,57,91,3
4,64,91,5
4,57,68,150
4,57,75,150
4,61,86,47
4,64,84,4
4,57,79,23
4,59,85,10
4,66,78,5
4,63,76,4
4,59,69,77
4,66,71,43
4,63,86,4
4,59,84,4
4,66,57,25
4,63,68,6
4,59,73,5
4,66,53,10
4,63,40,25
4,59,37,24
4,63,56,59
4,66,68,4
4,63,69,78
4,59,71,5
4,66,74,4
4,59,90,58
4,66,91,3
4,63,93,5
4,63,78,57
4,66,82,4
4,59,77,4
4,59,86,76
4,63,93,15
4,66,81,4
4,56,68,53
4,59,69,23
4,64,84,68
4,56,68,57
4,56,85,54
4,64,89,4
4,59,92,10
4,56,84,6
4,59,93,9
4,64,95,9
4,59,72,59
4,56,52,23
4,52,59,2
4,56,84,25
4,59,75,0
4,64,75,0
4,64,94,21
4,59,79,4
4,56,56,90
4,57,64,34
4,61,63,49
4,64,95,68
4,57,62,110
4,61,70,17
4,57,61,30
4,64,87,8
4,61,82,69
4,57,90,3
4,64,95,5
4,57,68,150
4,57,75,150
4,61,87,47
4,64,84,4
4,57,79,19
4,61,74,5
4,64,76,7
4,64,69,32
4,57,79,15
4,59,84,42
4,63,76,0
4,66,79,29
4,59,79,77
4,63,86,37
4,66,70,0
4,59,85,31
4,66,72,146
4,63,77,6
4,59,91,5
4,63,58,22
4,59,63,5
4,66,62,23
4,59,38,21
4,63,59,5
4,66,57,15
4,59,52,9
4,63,64,5
4,66,59,20
4,59,59,9
4,63,66,4
4,66,74,23
4,59,77,4
4,63,74,4
4,66,79,45
4,63,73,5
4,59,76,4
4,66,79,48
4,59,80,3
4,63,72,4
4,63,75,48
4,66,75,3
4,59,62,13
4,63,72,25
4,66,81,5
4,56,99,29
4,59,86,30
4,64,84,62
4,56,69,30
4,59,68,0
4,56,85,47
4,64,89,4
4,59,92,10
4,56,85,6
4,59,92,9
4,64,94,9
4,59,73,59
4,56,53,23
4,52,58,2
4,56,84,25
4,59,75,0
4,64,75,0
4,64,94,21
4,59,78,4
4,56,57,90
4,57,64,34
4,61,63,49
4,64,95,68
4,57,62,110
4,61,71,17
4,57,60,30
4,64,86,8
4,61,83,69
4,57,91,3
4,64,94,5
4,57,68,150
4,57,75,150
4,61,87,47
4,64,84,4
4,57,78,19
4,61,75,5
4,64,76,7
4,64,69,32
4,57,79,15
4,59,84,42
4,63,77,0
4,66,78,29
4,59,68,77
4,66,71,11
4,63,87,4
4,59,84,4
4,66,56,25
4,63,69,6
4,59,73,5
4,59,110,44
4,63,102,4
4,54,111,4
4,54,84,25
4,59,81,4
4,63,95,5
4,54,78,14
4,59,91,4
4,63,84,3
4,59,100,20
4,54,95,3
4,63,85,7
4,56,92,22
4,64,86,0
4,59,97,10
4,64,85,28
4,56,80,4
4,59,104,11
4,56,73,24
4,59,82,0
4,64,83,38
4,56,73,27
4,56,90,54
4,64,93,4
4,59,96,10
4,59,96,76
4,56,107,9
4,64,101,0
4,59,94,59
4,56,56,23
4,52,63,2
4,56,73,83
4,52,84,12
4,64,96,38
4,59,85,4
4,56,62,62
4,57,69,34
4,61,67,49
4,64,92,68
4,57,69,110
4,61,76,17
4,57,66,30
4,64,93,8
4,61,89,69
4,57,94,3
4,64,94,5
4,57,75,150
4,57,81,150
4,61,92,47
4,64,90,4
4,57,85,23
4,59,90,10
4,66,85,5
4,63,83,4
4,59,74,77
4,66,77,43
4,63,92,4
4,59,90,4
4,66,61,25
4,63,73,6
4,59,78,5
4,66,58,10
4,63,45,25
4,59,43,24
4,63,60,34
4,66,72,4
4,63,75,10
4,59,76,5
4,66,81,4
4,59,95,23
4,66,94,3
4,63,97,5
4,63,84,10
4,66,88,4
4,59,83,4
4,59,93,7
4,63,96,15
4,66,84,4
4,56,91,53
4,59,73,23
4,64,104,68
4,56,72,117
4,56,91,54
4,64,98,4
