track,note,velocity,time
15,35,81,4608
15,51,64,0
15,44,103,380
15,51,76,4
15,51,76,248
15,51,61,120
15,38,55,248
15,44,94,116
15,51,76,4
15,51,72,244
15,35,48,0
15,51,64,116
15,35,81,0
15,51,84,380
15,44,96,4
15,51,75,248
15,51,58,116
15,44,102,376
15,51,94,0
15,51,63,244
15,38,54,4
15,51,70,116
15,44,102,380
15,51,88,0
15,51,50,248
15,38,72,0
15,51,68,116
15,35,48,248
15,51,87,120
15,44,100,4
15,38,86,0
15,51,53,244
15,51,64,120
15,35,72,0
15,51,78,376
15,44,101,4
15,51,68,248
15,51,77,116
15,51,78,376
15,44,100,0
15,51,73,244
15,38,60,0
15,51,73,116
15,44,96,380
15,51,112,4
15,51,63,248
15,51,71,116
15,44,96,376
15,51,86,0
15,51,86,248
15,51,69,112
15,35,72,256
15,44,105,120
15,51,105,0
15,35,58,0
15,51,71,240
15,38,89,0
15,51,69,116
15,44,103,376
15,51,100,0
15,51,77,252
15,38,89,0
15,35,72,116
15,51,64,0
15,51,78,376
15,44,101,4
15,51,68,248
15,51,77,116
15,51,78,376
15,44,100,0
15,35,60,244
15,51,73,0
15,51,64,116
15,35,72,0
15,51,78,376
15,44,101,4
15,51,68,248
15,51,77,116
15,51,78,376
15,44,100,0
15,51,73,244
15,35,60,0
15,35,50,116
15,38,50,0
15,49,50,0
15,42,70,304
15,51,90,0
15,35,40,204
15,51,60,0
15,35,60,20
15,51,80,0
15,42,80,304
15,51,100,0
15,35,40,204
15,51,60,0
15,35,50,20
15,51,80,0
15,38,40,204
15,42,70,20
15,51,90,0
15,35,40,204
15,51,100,0
15,35,60,20
15,38,40,0
15,51,80,0
15,42,80,304
15,51,100,0
15,35,40,204
15,51,60,0
15,35,50,20
15,51,80,0
15,38,40,204
15,42,70,20
15,51,90,0
15,35,40,204
15,51,100,0
15,35,60,20
15,38,40,0
15,51,80,0
15,42,80,304
15,51,100,0
15,35,40,204
15,51,60,0
15,35,50,20
15,51,80,0
15,42,70,304
15,51,90,0
15,35,40,204
15,51,60,0
15,35,60,20
15,51,80,0
15,42,80,304
15,51,100,0
15,35,40,204
15,51,60,0
15,35,50,20
15,51,80,0
15,42,70,304
15,51,90,0
15,35,40,204
15,51,60,0
15,35,60,20
15,51,80,0
15,42,80,304
15,51,100,0
15,35,40,204
15,51,60,0
15,35,50,20
15,51,80,0
15,38,40,204
15,42,70,20
15,51,90,0
15,35,40,204
15,51,100,0
15,35,60,20
15,51,80,0
15,38,50,204
15,42,80,20
15,51,100,0
15,35,40,204
15,38,60,0
15,51,60,0
15,35,50,20
15,51,80,0
15,38,40,204
15,42,70,20
15,51,90,0
15,35,40,204
15,51,100,0
15,35,60,20
15,51,80,0
15,38,50,204
15,42,80,20
15,51,100,0
15,35,40,204
15,38,60,0
15,51,60,0
15,35,50,20
15,51,80,0
15,38,40,204
15,42,70,20
15,51,90,0
15,35,40,204
15,51,100,0
15,35,60,20
15,38,40,0
15,51,80,0
15,42,80,304
15,51,100,0
15,35,40,204
15,51,60,0
15,35,50,20
15,51,80,0
15,38,40,204
15,42,70,20
15,51,90,0
15,35,40,204
15,51,100,0
15,35,60,20
15,38,40,0
15,51,80,0
15,42,80,304
15,51,100,0
15,35,40,204
15,51,60,0
15,35,50,20
15,51,80,0
15,38,40,204
15,42,70,20
15,51,90,0
15,35,40,204
15,51,100,0
15,35,60,20
15,38,40,0
15,51,80,0
15,42,80,304
15,51,100,0
15,35,40,204
15,51,60,0
15,35,50,20
15,51,80,0
15,42,70,304
15,51,90,0
15,35,40,204
15,51,60,0
15,35,60,20
15,51,80,0
15,42,80,304
15,51,100,0
15,35,40,204
15,51,60,0
15,35,50,20
15,51,80,0
15,38,40,204
15,42,70,20
15,51,90,0
15,35,40,204
15,51,100,0
15,35,60,20
15,38,40,0
15,51,80,0
15,42,80,304
15,51,100,0
15,35,40,204
15,51,60,0
15,38,81,20
15,35,50,0
15,51,80,0
15,38,81,167
15,42,70,39
15,51,90,0
15,35,40,204
15,51,100,0
15,35,60,20
15,51,80,0
15,38,50,204
15,42,80,20
15,51,100,0
15,35,40,204
15,38,60,0
15,51,60,0
15,35,50,20
15,51,80,0
15,38,40,204
15,42,70,20
15,51,90,0
15,35,40,204
15,51,100,0
15,35,60,20
15,38,40,0
15,51,80,0
15,42,80,304
15,51,100,0
15,35,40,204
15,51,60,0
15,35,50,20
15,51,80,0
15,49,56,176
15,35,69,0
15,38,40,28
15,51,90,20
15,51,100,204
15,51,80,20
15,49,58,176
15,35,69,0
15,38,50,28
15,51,100,20
15,38,60,204
15,51,60,0
15,51,80,20
15,49,56,176
15,35,69,0
15,51,90,20
15,38,20,204
15,51,90,0
15,38,70,20
15,51,80,0
15,38,40,48
15,49,58,48
15,35,69,0
15,38,20,28
15,51,100,20
15,38,60,0
15,38,30,48
15,35,40,76
15,38,70,0
15,51,70,0
15,35,50,20
15,51,80,0
15,38,40,204
15,42,70,20
15,51,90,0
15,35,40,204
15,51,100,0
15,35,60,20
15,51,80,0
15,38,50,204
15,42,80,20
15,51,100,0
15,35,40,204
15,38,60,0
15,51,60,0
15,35,50,20
15,51,80,0
15,38,40,204
15,42,70,20
15,51,90,0
15,35,40,204
15,51,100,0
15,35,60,20
15,38,40,0
15,51,80,0
15,42,80,304
15,51,100,0
15,35,40,204
15,51,60,0
15,35,50,20
15,51,80,0
15,38,40,204
15,42,70,20
15,51,90,0
15,35,40,204
15,51,100,0
15,35,60,20
15,38,40,0
15,51,80,0
15,42,80,304
15,51,100,0
15,35,40,204
15,51,60,0
15,35,50,20
15,51,80,0
15,42,70,304
15,51,90,0
15,35,40,204
15,51,60,0
15,35,60,20
15,51,80,0
15,42,80,304
15,51,100,0
15,35,40,204
15,51,60,0
15,35,50,20
15,51,80,0
15,38,40,204
15,42,70,20
15,51,90,0
15,35,40,204
15,51,100,0
15,35,60,20
15,38,40,0
15,51,80,0
15,42,80,304
15,51,100,0
15,35,40,204
15,51,60,0
15,35,50,20
15,51,80,0
15,42,70,304
15,51,90,0
15,35,40,204
15,51,60,0
15,35,60,20
15,51,80,0
15,42,80,304
15,51,100,0
15,35,40,204
15,51,60,0
15,35,50,20
15,51,80,0
15,38,40,204
15,42,70,20
15,51,90,0
15,35,40,204
15,51,100,0
15,35,60,20
15,51,80,0
15,38,50,204
15,42,80,20
15,51,100,0
15,35,40,204
15,38,60,0
15,51,60,0
15,35,50,20
15,51,80,0
15,38,40,204
15,42,70,20
15,51,90,0
15,35,40,204
15,51,100,0
15,35,60,20
15,38,40,0
15,51,80,0
15,40,69,176
15,42,103,4
15,35,72,0
15,42,80,116
15,42,64,0
15,51,100,0
15,35,68,184
15,51,60,12
15,40,81,20
15,35,50,0
15,51,80,0
15,42,70,288
15,51,90,0
15,40,81,176
15,35,40,28
15,51,60,0
15,35,60,20
15,51,80,0
15,42,80,304
15,51,100,0
15,35,40,204
15,51,60,0
15,35,50,20
15,51,80,0
15,42,70,304
15,51,90,0
15,35,40,204
15,51,60,0
15,35,60,20
15,51,80,0
15,40,69,240
15,40,69,0
15,40,100,0
15,42,80,0
15,51,100,0
15,35,40,204
15,51,60,0
15,40,81,20
15,35,50,0
15,51,80,0
15,42,70,288
15,51,90,0
15,40,81,176
15,35,40,28
15,51,100,0
15,35,60,20
15,51,80,0
15,42,80,304
15,51,100,0
15,35,40,204
15,51,60,0
15,35,50,20
15,51,80,0
15,42,70,304
15,51,90,0
15,35,40,204
15,51,100,0
15,35,60,20
15,51,80,0
15,40,69,176
15,35,72,4
15,42,103,0
15,42,80,116
15,42,64,0
15,51,100,0
15,35,40,204
15,51,60,0
15,40,81,20
15,35,50,0
15,51,80,0
15,42,70,288
15,51,90,0
15,40,81,176
15,35,40,28
15,51,100,0
15,35,60,20
15,51,80,0
15,42,80,304
15,51,100,0
15,35,40,204
15,51,60,0
15,35,50,20
15,51,80,0
15,42,70,304
15,51,90,0
15,35,40,204
15,51,100,0
15,35,60,20
15,51,80,0
15,42,80,304
15,51,100,0
15,35,40,204
15,51,60,0
15,35,50,20
15,51,80,0
15,40,74,176
15,42,70,58
15,51,90,0
15,35,40,204
15,51,100,0
15,40,82,20
15,35,60,0
15,51,80,0
15,40,89,304
15,42,80,0
15,51,100,0
15,35,40,204
15,51,60,0
15,35,50,20
15,49,118,4
15,40,118,0
15,40,113,180
15,51,90,116
15,42,70,0
15,40,37,0
15,50,79,44
15,40,36,120
15,51,100,24
15,35,40,0
15,40,103,16
15,51,80,4
15,35,60,0
15,40,41,44
15,47,99,120
15,40,32,120
15,51,100,4
15,42,80,0
15,40,48,40
15,40,45,120
15,35,40,28
15,57,113,16
15,35,50,4
15,38,40,204
15,42,70,20
15,51,90,0
15,35,40,204
15,51,100,0
15,35,60,20
15,51,80,0
15,38,50,204
15,42,80,20
15,51,100,0
15,35,40,204
15,38,60,0
15,51,60,0
15,35,50,20
15,51,80,0
15,42,70,304
15,51,90,0
15,35,40,204
15,51,60,0
15,35,60,20
15,51,80,0
15,42,80,304
15,51,100,0
15,40,81,176
15,35,40,28
15,51,60,0
15,35,50,20
15,51,80,0
15,38,40,204
15,42,70,20
15,51,90,0
15,40,81,176
15,35,40,28
15,51,100,0
15,35,60,20
15,51,80,0
15,38,50,204
15,42,80,20
15,51,100,0
15,35,40,204
15,38,60,0
15,51,60,0
15,35,50,20
15,51,80,0
15,38,40,204
15,42,70,20
15,51,90,0
15,35,40,204
15,51,100,0
15,35,60,20
15,51,80,0
15,38,50,204
15,42,80,20
15,51,100,0
15,35,40,204
15,51,60,0
15,40,69,36
15,40,69,0
15,35,50,0
15,51,80,0
15,40,100,0
15,40,91,176
15,35,76,0
15,51,90,39
15,40,21,44
15,35,76,124
15,40,54,4
15,51,100,16
15,35,60,20
15,51,80,0
15,40,115,4
15,35,76,176
15,40,127,8
15,51,100,39
15,40,54,8
15,40,38,56
15,40,33,116
15,35,40,16
15,51,60,0
15,35,50,20
15,51,80,0
15,40,127,4
15,40,113,180
15,51,90,116
15,40,37,0
15,35,76,0
15,50,79,19
15,40,36,120
15,35,40,24
15,51,90,0
15,40,103,16
15,35,60,4
15,51,80,0
15,40,41,44
15,47,99,120
15,40,32,120
15,51,100,4
15,40,48,40
15,40,45,120
15,35,40,28
15,51,70,0
15,40,69,36
15,40,69,0
15,49,113,16
15,35,50,0
15,40,100,0
15,40,88,176
15,35,75,0
15,49,88,0
15,42,70,39
15,51,90,0
15,35,40,204
15,51,60,0
15,35,60,20
15,51,80,0
15,42,80,304
15,51,100,0
15,35,40,204
15,51,60,0
15,35,50,20
15,51,80,0
15,38,40,204
15,42,70,20
15,51,90,0
15,35,40,204
15,51,100,0
15,35,60,20
15,51,80,0
15,38,50,204
15,42,80,20
15,51,100,0
15,35,40,204
15,38,60,0
15,51,60,0
15,35,50,20
15,51,80,0
15,38,40,204
15,42,70,20
15,51,90,0
15,35,40,204
15,51,100,0
15,35,60,20
15,51,80,0
15,38,50,204
15,42,80,20
15,51,100,0
15,35,40,204
15,38,60,0
15,51,60,0
15,35,50,20
15,51,80,0
15,42,70,304
15,51,90,0
15,35,40,204
15,51,60,0
15,35,60,20
15,51,80,0
15,42,80,304
15,51,100,0
15,35,40,204
15,51,60,0
15,35,50,20
15,51,80,0
15,38,40,204
15,42,70,20
15,51,90,0
15,35,40,204
15,51,100,0
15,35,60,20
15,38,40,0
15,51,80,0
15,42,80,304
15,51,100,0
15,35,40,204
15,51,60,0
15,35,50,20
15,51,80,0
15,42,70,304
15,51,90,0
15,35,40,204
15,51,60,0
15,35,60,20
15,51,80,0
15,42,80,304
15,51,100,0
15,35,40,204
15,51,60,0
15,35,50,20
15,51,80,0
15,38,40,204
15,42,70,20
15,51,90,0
15,35,40,204
15,51,100,0
15,35,60,20
15,51,80,0
15,38,50,204
15,42,80,20
15,51,100,0
15,35,40,204
15,38,60,0
15,51,60,0
15,35,50,20
15,51,80,0
15,42,70,304
15,51,90,0
15,35,40,204
15,38,20,0
15,51,90,0
15,35,60,20
15,38,70,0
15,51,80,0
15,38,40,48
15,38,20,76
15,38,60,20
15,42,80,0
15,51,100,0
15,38,30,48
15,35,40,76
15,38,70,0
15,51,70,0
15,51,80,20
15,38,100,0
15,35,50,0
15,35,75,176
15,38,88,0
15,42,70,39
15,51,90,0
15,35,40,204
15,51,100,0
15,35,60,20
15,51,80,0
15,38,50,204
15,42,80,20
15,51,100,0
15,35,40,204
15,38,60,0
15,51,60,0
15,35,50,20
15,51,80,0
15,42,70,304
15,51,90,0
15,35,40,204
15,51,60,0
15,35,60,20
15,51,80,0
15,42,80,304
15,51,100,0
15,35,40,204
15,51,60,0
15,35,50,20
15,51,80,0
15,42,70,304
15,51,90,0
15,35,40,204
15,51,60,0
15,35,60,20
15,51,80,0
15,42,80,304
15,51,100,0
15,35,40,204
15,51,60,0
15,35,50,20
15,51,80,0
15,38,40,204
15,42,70,20
15,51,90,0
15,35,40,204
15,51,100,0
15,35,60,20
15,51,80,0
15,38,50,204
15,42,80,20
15,51,100,0
15,35,40,204
15,38,60,0
15,51,60,0
15,35,50,20
15,51,80,0
15,42,70,304
15,51,90,0
15,35,40,204
15,51,60,0
15,35,60,20
15,51,80,0
15,42,80,304
15,51,100,0
15,35,40,204
15,51,60,0
15,35,50,20
15,51,80,0
15,38,40,204
15,42,70,20
15,51,90,0
15,35,40,204
15,51,100,0
15,35,60,20
15,51,80,0
15,38,50,204
15,42,80,20
15,51,100,0
15,35,40,204
15,38,60,0
15,51,60,0
15,35,50,20
15,51,80,0
15,42,70,304
15,51,90,0
15,35,40,204
15,51,60,0
15,35,60,20
15,51,80,0
15,42,80,304
15,51,100,0
15,35,40,204
15,51,60,0
15,35,50,20
15,51,80,0
15,38,113,176
15,42,70,120
15,51,90,0
15,38,20,4
15,38,41,52
15,38,43,116
15,35,40,20
15,51,90,0
15,35,60,20
15,51,80,0
15,50,91,4
15,38,35,48
15,38,68,124
15,42,80,116
15,51,100,0
15,47,77,4
15,38,63,52
15,38,65,120
15,35,40,16
15,51,70,0
15,35,50,20
15,51,80,0
15,49,120,8
15,38,40,204
15,42,70,20
15,51,90,0
15,35,40,204
15,51,100,0
15,35,60,20
15,51,80,0
15,38,50,204
15,42,80,20
15,51,100,0
15,35,40,204
15,38,60,0
15,51,60,0
15,35,50,20
15,51,80,0
15,38,40,204
15,42,70,20
15,51,90,0
15,35,40,204
15,51,100,0
15,35,60,20
15,51,80,0
15,38,50,204
15,42,80,20
15,51,100,0
15,35,40,204
15,38,60,0
15,51,60,0
15,35,50,20
15,51,80,0
15,42,70,304
15,51,90,0
15,35,40,204
15,51,60,0
15,35,60,20
15,51,80,0
15,42,80,304
15,51,100,0
15,35,40,204
15,51,60,0
15,35,50,20
15,51,80,0
15,38,40,204
15,42,70,20
15,51,90,0
15,35,40,204
15,51,100,0
15,35,60,20
15,51,80,0
15,38,50,204
15,42,80,20
15,51,100,0
15,35,40,204
15,38,60,0
15,51,60,0
15,35,50,20
15,51,80,0
15,38,40,204
15,42,70,20
15,51,90,0
15,35,40,204
15,51,100,0
15,35,60,20
15,38,40,0
15,51,80,0
15,42,80,304
15,51,100,0
15,35,40,204
15,51,60,0
15,35,50,20
15,51,80,0
15,42,70,304
15,51,90,0
15,35,40,204
15,51,60,0
15,35,60,20
15,51,80,0
15,42,80,304
15,51,100,0
15,35,40,204
15,51,60,0
15,35,50,20
15,51,80,0
15,42,70,304
15,51,90,0
15,35,40,204
15,51,60,0
15,35,60,20
15,51,80,0
15,42,80,304
15,51,100,0
15,35,40,204
15,51,60,0
15,35,50,20
15,51,80,0
15,42,70,304
15,51,90,0
15,35,40,204
15,38,20,0
15,51,90,0
15,35,60,20
15,38,70,0
15,51,80,0
15,38,40,48
15,38,20,76
15,38,60,20
15,42,80,0
15,51,100,0
15,38,30,48
15,35,40,76
15,38,70,0
15,51,70,0
15,38,81,20
15,35,50,0
