track,note,velocity,time
3,93,84,1
3,88,68,2
3,85,26,5
3,81,64,1
3,93,68,2
3,88,66,7
3,85,62,1
3,81,60,1
3,93,90,1
3,88,44,5
3,85,54,0
3,81,56,11
3,93,80,2
3,88,70,7
3,85,72,1
3,81,66,7
3,93,72,4
3,88,66,4
3,85,68,1
3,81,62,4
3,93,98,3
3,88,82,4
3,85,62,5
3,81,62,2
3,93,82,6
3,88,76,5
3,85,68,6
3,81,48,0
3,93,74,12
3,88,62,12
3,85,68,6
3,81,58,11
3,93,82,0
3,88,66,0
3,85,66,2
3,81,56,0
3,93,76,2
3,88,68,1
3,85,66,1
3,81,42,3
3,93,76,7
3,88,70,0
3,85,66,2
3,81,54,3
4,46,77,15360
4,58,87,288
4,46,109,61
4,58,77,34
4,46,103,52
4,50,91,96
4,53,109,83
4,58,115,90
4,48,105,90
4,48,75,59
4,48,95,50
4,48,81,56
4,48,93,55
4,48,93,60
4,46,109,96
4,43,93,93
4,41,113,3
4,41,95,55
4,41,93,62
4,41,87,56
4,43,85,5
4,43,81,52
4,43,95,56
4,43,93,61
4,48,103,0
4,48,95,51
4,48,93,51
4,48,73,55
4,48,93,52
4,48,87,54
4,46,89,2
4,43,103,96
4,41,99,0
4,41,103,52
4,41,113,60
4,41,99,51
4,43,99,11
4,43,95,56
4,43,95,60
4,43,105,62
4,45,105,0
4,45,83,56
4,45,95,57
4,45,91,59
4,45,95,61
4,45,93,63
4,45,103,65
4,43,109,6
4,41,109,4
4,41,93,58
4,41,95,61
4,41,105,62
4,43,109,10
4,43,85,54
4,43,103,52
4,43,105,60
4,48,99,1
4,48,91,55
4,48,99,58
4,48,91,58
4,48,93,57
4,48,90,52
4,48,95,49
4,48,95,51
4,41,113,96
4,41,93,48
4,41,103,54
4,41,95,56
4,43,109,2
4,43,95,67
4,43,103,66
4,43,95,65
4,48,109,10
4,48,91,54
4,48,103,54
4,48,95,57
4,48,93,55
4,48,85,58
4,48,85,58
4,48,85,59
4,46,91,16
4,46,97,41
4,46,115,31
4,46,109,24
4,46,85,20
4,50,117,96
4,53,117,93
4,58,109,95
4,48,97,9
4,48,99,16
4,48,109,12
4,48,109,15
4,48,109,14
4,48,101,21
4,48,105,15
4,48,105,30
4,48,98,14
4,48,93,25
4,48,101,19
4,48,96,19
4,48,114,17
4,45,90,2
4,47,93,96
4,52,103,0
4,52,95,6
4,52,105,20
4,52,105,12
4,52,95,26
4,52,104,17
4,52,105,17
4,52,97,21
4,52,101,27
4,52,106,20
4,52,103,20
4,52,109,16
4,52,98,18
4,52,119,17
4,50,105,96
4,48,101,68
4,45,113,5
4,45,101,22
4,45,109,13
4,45,95,17
4,45,105,18
4,45,97,20
4,45,105,15
4,45,95,24
4,45,101,21
4,45,98,16
4,45,96,23
4,45,93,27
4,45,101,20
4,45,95,29
4,45,93,31
4,48,97,13
4,48,93,16
4,48,97,17
4,48,93,29
4,48,101,14
4,48,91,20
4,48,96,16
4,48,90,21
4,48,88,6
4,48,90,30
4,48,97,18
4,48,88,30
4,48,98,18
4,48,93,24
4,48,105,11
4,45,119,15
4,45,93,0
4,45,93,14
4,45,87,14
4,45,105,12
4,45,97,24
4,45,93,11
4,45,96,24
4,45,105,9
4,45,101,26
4,45,105,11
4,45,98,9
4,45,105,9
4,45,105,0
4,45,97,0
4,48,101,14
4,48,87,20
4,48,97,15
4,48,96,21
4,48,91,0
4,48,91,0
4,48,101,24
4,48,95,12
4,48,81,0
4,48,91,0
4,48,93,17
4,48,91,24
4,48,97,17
4,48,91,26
4,48,87,20
4,45,119,10
4,45,93,20
4,45,109,16
4,45,93,26
4,45,105,16
4,45,91,25
4,45,91,6
4,45,91,24
4,45,101,16
4,45,91,27
4,45,93,7
4,45,97,21
4,45,97,12
4,45,83,24
4,45,109,12
4,48,106,15
4,48,101,21
4,48,97,16
4,48,87,29
4,48,91,13
4,48,95,31
4,48,99,10
4,48,93,26
4,48,90,8
4,48,91,0
4,48,97,0
4,48,90,8
4,48,93,16
4,48,90,27
4,48,97,14
4,45,113,15
4,45,96,19
4,45,95,21
4,45,95,0
4,45,99,0
4,45,93,19
4,45,87,18
4,45,96,25
4,45,86,14
4,45,93,14
4,45,93,19
4,45,93,17
4,45,97,24
4,45,96,13
4,45,91,23
4,48,97,20
4,45,57,3744
4,45,58,56
4,45,59,57
4,45,60,59
4,45,60,61
4,45,61,63
4,45,62,65
4,43,63,6
4,41,64,4
4,41,65,58
4,41,66,61
4,41,67,62
4,43,68,10
4,43,69,54
4,43,70,52
4,43,71,60
4,48,72,1
4,48,73,55
4,48,74,58
4,48,75,58
4,48,76,57
4,48,76,52
4,48,77,49
4,48,78,51
4,41,79,96
4,41,80,48
4,41,81,54
4,41,82,56
4,43,83,2
4,43,84,67
4,43,85,66
4,43,86,65
4,48,87,10
4,48,88,54
4,48,89,54
4,48,90,57
4,48,91,55
4,48,92,58
4,48,93,58
4,48,93,59
4,57,103,16
4,55,106,96
4,53,100,90
4,57,88,89
4,59,100,86
4,57,97,80
4,55,101,89
4,59,91,87
4,60,94,89
4,59,91,85
4,57,105,82
4,59,106,79
4,60,105,90
4,59,93,84
4,57,97,3
4,60,100,96
4,41,99,5
4,41,103,34
4,41,113,24
4,41,99,26
4,43,99,11
4,43,95,27
4,43,95,21
4,43,105,17
4,45,105,0
4,45,83,19
4,45,95,10
4,45,91,28
4,43,95,26
4,43,93,18
4,43,103,14
4,43,109,13
4,53,119,24
4,52,109,288
4,50,119,1
4,48,105,288
4,46,111,5
4,46,93,3
4,58,87,288
4,46,107,61
4,58,77,34
4,46,103,52
4,50,91,96
4,53,109,83
4,58,115,90
4,48,97,90
4,48,99,16
4,48,109,12
4,48,109,15
4,48,109,14
4,48,101,21
4,48,105,15
4,48,105,30
4,48,98,14
4,48,93,25
4,48,101,19
4,48,96,19
4,48,114,17
4,45,90,2
4,47,93,96
4,52,103,0
4,52,95,6
4,52,105,20
4,52,105,12
4,52,95,26
4,52,104,17
4,52,105,17
4,52,97,21
4,52,101,27
4,52,106,20
4,52,103,20
4,52,109,16
4,52,98,18
4,52,119,17
4,50,105,96
4,48,101,68
4,45,113,5
4,45,101,22
4,45,109,13
4,45,95,17
4,45,105,18
4,45,97,20
4,45,105,15
4,45,95,24
4,45,101,21
4,45,98,16
4,45,96,23
4,45,93,27
4,45,101,20
4,45,95,29
4,45,93,31
4,48,97,13
4,48,93,16
4,48,97,17
4,48,93,29
4,48,101,14
4,48,91,20
4,48,96,16
4,48,90,21
4,48,88,6
4,48,90,30
4,48,97,18
4,48,88,30
4,48,98,18
4,48,93,24
4,48,105,11
4,45,119,15
4,45,93,0
4,45,93,14
4,45,87,14
4,45,105,12
4,45,97,24
4,45,93,11
4,45,96,24
4,45,105,9
4,45,101,26
4,45,105,11
4,45,98,9
4,45,105,9
4,45,105,0
4,45,97,0
4,48,101,14
4,48,87,20
4,48,97,15
4,48,96,21
4,48,91,0
4,48,91,0
4,48,101,24
4,48,95,12
4,48,81,0
4,48,91,0
4,48,93,17
4,48,91,24
4,48,97,17
4,48,91,26
4,48,87,20
4,45,119,10
4,45,93,20
4,45,109,16
4,45,93,26
4,45,105,16
4,45,91,25
4,45,91,6
4,45,91,24
4,45,101,16
4,45,91,27
4,45,93,7
4,45,97,21
4,45,97,12
4,45,83,24
4,45,109,12
4,48,106,15
4,48,101,21
4,48,97,16
4,48,87,29
4,48,91,13
4,48,95,31
4,48,99,10
4,48,93,26
4,48,90,8
4,48,91,0
4,48,97,0
4,48,90,8
4,48,93,16
4,48,90,27
4,48,97,14
4,45,113,15
4,45,96,19
4,45,95,21
4,45,95,0
4,45,99,0
4,45,93,19
4,45,87,18
4,45,96,25
4,45,86,14
4,45,93,14
4,45,93,19
4,45,93,17
4,45,97,24
4,45,96,13
4,45,91,23
4,48,97,20
4,48,101,0
4,48,97,16
4,48,87,29
4,48,91,13
4,48,95,31
4,48,99,10
4,48,93,26
4,48,90,8
4,48,91,0
4,48,97,0
4,48,90,8
4,48,93,16
4,48,90,27
4,48,97,14
4,45,113,15
4,45,96,19
4,45,95,21
4,45,95,0
4,45,99,0
4,45,93,19
4,45,87,18
4,45,96,25
4,45,86,14
4,45,93,14
4,45,93,19
4,45,93,17
4,45,97,24
4,45,96,13
4,45,91,23
4,48,97,20
5,45,54,24
5,47,50,19
5,49,50,14
5,52,64,6
5,55,64,24
5,57,96,13
5,45,50,9
5,59,68,15
5,47,50,2
5,61,78,11
5,49,52,7
5,64,96,3
5,67,86,1
5,52,72,8
5,55,74,0
5,69,104,1
5,57,96,4
5,59,80,0
5,61,78,19
5,64,100,2
5,67,78,3
5,69,90,3
5,71,86,1
5,73,62,20
5,76,64,9
5,64,55,19
5,78,50,12
5,69,60,2
5,79,72,2
5,71,50,14
5,81,58,5
5,73,50,4
5,85,62,7
5,76,68,10
5,78,62,8
5,79,86,11
5,81,68,10
5,83,50,0
5,85,86,6
5,76,54,9
5,79,50,15
5,88,50,5
5,81,74,4
5,91,56,6
5,83,76,0
5,93,60,14
5,85,68,6
5,97,62,0
5,88,64,0
5,91,66,7
5,93,71,7
5,95,53,12
5,97,55,6
5,94,83,14338
5,93,69,7
5,91,87,5
5,89,35,6
5,88,49,5
5,86,59,5
5,84,61,3
5,83,61,3
5,81,63,3
5,79,57,6
5,77,55,5
5,76,63,6
5,74,65,4
5,72,55,5
5,71,63,6
5,69,61,5
5,67,56,8
5,65,53,10
5,64,44,8
5,62,41,5
5,60,39,6
5,59,30,0
6,69,39,2304
6,77,43,0
6,74,31,0
6,86,5,0
6,89,2,0
6,81,23,0
6,62,23,0
6,73,63,384
6,85,47,0
6,61,2,0
6,72,73,382
6,60,2,0
6,84,57,0
6,71,43,27
6,83,27,0
6,59,6,0
6,70,51,0
6,74,53,0
6,67,43,0
6,55,2,0
6,79,5,0
6,86,3,0
6,82,35,0
6,74,23,14
6,76,65,0
6,69,57,0
6,57,2,0
6,81,41,0
6,88,11,0
6,86,7,0
6,73,45,3
6,85,29,0
6,69,39,0
6,77,43,0
6,74,35,0
6,86,10,0
6,89,2,0
6,81,23,0
6,62,38,0
6,73,63,14
6,85,47,0
6,61,16,0
6,72,73,383
6,84,57,0
6,60,42,0
6,71,43,8
6,83,27,0
6,59,2,0
6,70,51,4
6,74,53,0
6,67,43,0
6,79,27,0
6,86,3,0
6,82,35,0
6,55,52,0
6,73,23,5
6,76,65,0
6,69,57,0
6,81,41,0
6,88,3,0
6,57,52,0
6,85,5,0
6,70,5,0
6,74,21,0
6,65,31,0
6,58,32,0
6,77,31,0
6,86,3,0
6,82,5,0
6,48,40,14982
6,49,43,26
6,50,45,23
6,51,48,26
6,52,48,1
6,54,48,0
6,53,51,23
6,55,55,17
6,56,55,3
6,57,58,15
6,59,60,11
6,60,61,11
6,62,63,11
6,64,64,8
6,65,67,8
6,67,69,9
6,69,71,8
6,71,74,3
6,72,76,3
6,74,78,5
6,72,79,3
6,72,81,7
6,84,1,0
6,91,30,0
6,88,30,0
6,71,80,1536
6,83,80,0
6,84,110,1157
6,83,92,1
6,81,66,9
6,79,74,3
6,77,84,6
6,76,84,6
6,74,62,5
6,72,60,6
6,71,70,5
6,69,62,5
6,81,46,1
6,67,70,4
6,79,88,6
6,65,68,1
6,77,48,6
6,64,32,0
6,76,78,1
6,74,26,0
6,73,48,9
6,72,30,6
6,71,46,4
6,70,18,2
6,69,66,8
6,67,60,10
6,65,46,13
6,64,58,15
6,62,70,16
6,61,36,8
6,60,58,1
6,59,78,5
6,57,74,10
6,55,68,4
6,64,95,24444
6,66,93,0
6,68,98,0
6,70,103,0
6,72,97,0
6,72,1,8
6,88,30,0
6,91,30,0
6,84,1,0
6,71,1,1536
6,83,1,0
6,84,110,1157
6,83,92,1
6,81,66,9
6,79,74,3
6,77,84,6
6,76,84,6
6,74,62,5
6,72,60,6
6,71,70,5
6,69,62,5
6,81,46,1
6,67,70,4
6,79,88,6
6,65,68,1
6,77,48,6
6,64,32,0
6,76,78,1
6,74,26,0
6,73,48,9
6,72,30,6
6,71,46,4
6,70,18,2
6,69,66,8
6,67,60,10
6,65,46,13
6,64,58,15
6,62,70,16
6,61,36,8
6,60,58,1
6,59,78,5
6,57,74,10
6,55,68,4
7,76,32,43008
7,74,10,384
7,72,2,192
7,69,20,13
7,65,42,0
7,71,40,32
7,67,62,0
7,74,60,15
7,72,44,3
7,67,62,0
7,76,50,0
7,74,28,384
7,69,52,3
7,72,36,0
7,71,38,384
7,74,56,0
7,67,50,30
7,76,66,0
7,72,34,0
7,74,50,384
7,72,56,14
7,72,8,27
7,65,8,0
7,69,16,0
7,74,36,384
7,71,40,0
7,67,38,0
7,76,36,7
7,69,22,0
7,72,40,0
7,72,56,59
7,77,28,0
7,69,36,0
7,79,38,20
7,71,46,0
7,74,24,0
7,81,38,34
7,72,46,0
7,76,24,0
7,58,53,63
7,60,59,4
7,65,56,3
8,55,60,9984
8,48,56,0
8,48,44,43
8,55,50,0
8,55,66,44
8,48,60,0
8,48,44,51
8,55,46,0
8,55,48,54
8,48,42,0
8,48,38,54
8,55,40,0
8,55,62,54
8,48,60,0
8,55,24,54
8,48,30,0
8,48,58,44
8,41,38,0
8,41,36,47
8,48,34,0
8,41,34,47
8,48,38,0
8,41,52,53
8,48,50,0
8,43,56,61
8,50,60,0
8,43,26,53
8,50,46,0
8,43,38,46
8,50,60,0
8,50,56,49
8,43,20,0
8,55,48,6
8,48,40,0
8,55,36,51
8,48,36,0
8,55,50,53
8,48,44,0
8,55,22,54
8,48,26,0
8,55,44,53
8,48,42,0
8,48,34,55
8,55,34,0
8,55,62,53
8,48,50,0
8,55,52,51
8,48,42,0
8,48,58,46
8,41,52,0
8,48,38,53
8,41,38,0
8,41,38,52
8,48,44,0
8,41,36,54
8,48,38,0
8,43,44,26
8,50,60,0
8,43,28,61
8,50,36,0
8,43,48,53
8,50,60,0
8,55,42,45
8,48,44,0
8,55,44,42
8,48,48,0
8,55,38,53
8,48,32,0
8,55,60,47
8,48,56,0
8,48,38,56
8,55,44,0
8,48,44,51
8,55,46,0
8,48,36,53
8,55,28,0
8,55,58,57
8,48,60,0
8,48,30,58
8,55,28,0
8,48,60,40
8,41,66,0
8,48,34,52
8,41,38,0
8,41,46,59
8,48,56,0
8,41,40,55
8,48,40,0
8,43,50,17
8,50,48,0
8,43,24,58
8,50,48,0
8,50,66,50
8,43,38,0
8,50,46,53
8,43,40,0
8,55,56,3
8,48,52,0
8,55,16,63
8,48,32,0
8,48,62,53
8,55,56,0
8,55,38,60
8,48,30,0
8,55,50,57
8,48,42,0
8,55,38,61
8,48,40,0
8,48,44,58
8,55,66,0
8,55,44,50
8,48,38,0
8,46,36,34
8,46,36,45
8,46,44,42
8,46,38,24
8,46,38,38
8,55,62,104
8,48,44,0
8,55,38,43
8,48,36,0
8,55,50,51
8,48,48,0
8,55,22,51
8,48,32,0
8,55,52,48
8,48,50,0
8,55,44,54
8,48,40,0
8,55,44,49
8,48,40,0
8,55,40,52
8,48,40,0
8,48,46,17
8,41,58,0
8,41,18,53
8,48,38,0
8,41,36,53
8,48,38,0
8,41,32,55
8,48,48,0
8,43,50,21
8,50,56,0
8,43,46,55
8,50,44,0
8,50,62,46
8,43,40,0
8,50,52,55
8,43,36,0
8,55,58,4
8,48,40,0
8,48,34,61
8,55,32,0
8,55,50,58
8,48,42,0
8,55,22,54
8,48,22,0
8,55,48,56
8,48,42,0
8,55,42,61
8,48,40,0
8,55,48,57
8,48,40,0
8,48,46,54
8,55,46,0
8,48,38,24
8,41,60,0
8,48,34,48
8,41,42,0
8,41,40,52
8,48,42,0
8,48,38,50
8,41,38,0
8,43,50,24
8,50,60,0
8,50,38,59
8,43,38,0
8,50,58,52
8,43,18,0
8,43,12,56
8,50,52,0
8,45,60,22
8,52,52,0
8,45,46,49
8,52,38,0
8,45,56,56
8,52,60,0
8,52,20,59
8,45,32,0
8,45,52,61
8,52,48,0
