track,note,velocity,time
0,42,87,1039
0,42,86,320
0,71,111,0
0,42,87,0
0,69,110,0
0,67,111,0
0,42,87,0
0,69,111,0
0,40,67,0
0,47,40,480
0,52,63,233
0,55,60,38
0,59,63,47
0,50,47,0
0,64,69,6
0,55,35,0
0,66,110,0
0,67,111,0
0,40,58,0
0,64,110,0
0,47,41,10
0,52,64,80
0,55,61,50
0,59,64,31
0,50,52,13
0,64,72,0
0,62,110,0
0,64,111,0
0,45,66,0
0,60,111,0
0,67,110,0
0,52,35,180
0,45,61,336
0,55,57,46
0,60,66,45
0,64,70,59
0,45,59,90
0,52,38,480
0,45,63,64
0,55,57,41
0,60,66,48
0,64,72,86
0,67,110,0
0,69,111,0
0,48,56,0
0,66,111,0
0,66,110,0
0,54,47,110
0,48,63,319
0,57,58,48
0,60,67,40
0,57,53,47
0,64,69,13
0,64,110,0
0,66,111,0
0,47,58,0
0,63,110,0
0,54,50,432
0,47,64,317
0,54,55,54
0,59,68,66
0,59,67,43
0,63,66,28
0,59,111,0
0,59,111,0
0,40,64,0
0,59,110,0
0,64,111,0
0,47,39,63
0,40,67,358
0,55,61,3
0,59,64,59
0,55,59,20
0,64,70,52
0,40,62,144
0,47,37,120
0,55,41,18
0,59,41,45
0,55,40,34
0,64,54,26
0,71,110,0
0,69,110,0
0,67,111,0
0,69,111,0
0,40,68,17
0,40,68,0
0,52,53,390
0,47,26,16
0,55,61,240
0,52,47,7
0,59,60,0
0,55,48,8
0,66,110,0
0,67,110,0
0,64,111,0
0,64,66,133
0,52,53,120
0,55,43,18
0,52,51,12
0,59,56,15
0,55,59,115
0,62,111,0
0,62,110,0
0,60,110,0
0,45,74,2
0,45,63,4
0,67,111,0
0,52,60,14
0,52,50,0
0,55,50,5
0,55,75,5
0,60,63,17
0,64,55,34
0,60,66,57
0,45,70,5
0,64,63,42
0,52,54,3
0,45,63,8
0,55,65,13
0,52,51,19
0,67,110,0
0,52,44,8
0,60,56,15
0,69,111,0
0,45,54,15
0,48,71,3
0,66,111,0
0,54,54,20
0,48,49,10
0,57,54,199
0,60,67,64
0,57,66,12
0,64,110,0
0,64,69,10
0,64,71,16
0,66,111,0
0,63,110,0
0,63,110,0
0,47,75,5
0,47,54,7
0,63,51,450
0,59,60,8
0,59,50,26
0,54,42,5
0,63,78,89
0,47,53,11
0,63,43,34
0,54,57,3
0,54,38,8
0,59,54,8
0,59,111,0
0,59,111,0
0,40,67,5
0,59,110,0
0,40,79,0
0,64,110,0
0,47,53,2
0,52,52,15
0,55,62,9
0,64,42,26
0,55,36,4
0,59,55,4
0,59,63,457
0,40,72,52
0,47,61,5
0,52,64,142
0,55,59,23
0,59,67,5
0,64,68,35
0,40,71,6
0,67,111,0
0,69,111,0
0,42,64,5
0,47,69,34
0,55,55,49
0,50,68,1
0,59,76,34
0,55,86,27
0,62,76,1
0,71,110,0
0,67,81,48
0,71,110,0
0,62,57,15
0,47,61,2
0,59,54,2
0,55,52,25
0,55,53,3
0,47,58,1
0,59,73,0
0,71,111,0
0,50,52,1
0,62,75,4
0,67,74,11
0,71,110,0
0,47,41,8
0,55,68,0
0,59,51,0
0,62,50,0
0,67,75,0
0,71,111,0
0,55,53,0
0,67,66,0
0,48,57,9
0,52,72,13
0,64,75,0
0,67,84,3
0,55,64,8
0,60,74,9
0,55,63,13
0,71,111,0
0,71,110,0
0,67,59,0
0,48,49,2
0,55,60,15
0,71,111,0
0,55,52,25
0,52,68,4
0,55,69,0
0,71,110,0
0,67,83,0
0,64,75,3
0,60,82,4
0,67,110,0
0,55,52,45
0,64,111,0
0,67,61,0
0,48,35,8
0,69,111,0
0,53,62,1
0,57,63,24
0,45,62,8
0,48,67,10
0,65,87,29
0,53,76,9
0,60,84,6
0,53,61,21
0,45,58,1
0,65,76,5
0,57,58,18
0,60,65,2
0,53,67,23
0,65,58,0
0,57,66,21
0,48,69,1
0,53,59,16
0,65,83,2
0,53,67,2
0,60,78,13
0,57,52,33
0,65,71,3
0,60,64,2
0,47,64,53
0,51,72,10
0,54,73,34
0,59,91,1
0,54,69,4
0,47,78,5
0,63,67,5
0,47,59,8
0,69,110,0
0,54,62,13
0,59,76,15
0,69,110,0
0,51,62,2
0,69,111,0
0,54,62,2
0,54,69,4
0,59,69,0
0,51,66,12
0,66,111,0
0,63,110,0
0,54,62,5
0,59,59,7
0,63,79,0
0,47,74,8
0,67,110,0
0,52,66,74
0,55,79,35
0,52,79,27
0,59,74,8
0,55,68,16
0,64,93,34
0,59,87,10
0,52,71,71
0,52,43,16
0,52,66,54
0,55,73,3
0,59,60,5
0,59,86,2
0,64,72,3
0,52,65,38
0,64,111,0
0,55,47,7
0,52,73,8
0,66,110,0
0,50,52,54
0,55,70,0
0,67,111,0
0,50,76,11
0,55,70,4
0,59,73,2
0,64,69,1
0,59,73,4
0,69,111,0
0,50,43,42
0,55,60,0
0,59,62,4
0,71,110,0
0,55,73,4
0,64,74,4
0,55,64,1
0,59,77,4
0,59,64,20
0,74,111,0
0,50,57,87
0,48,75,3
0,48,86,0
0,55,79,34
0,52,77,4
0,64,110,0
0,60,74,23
0,55,90,27
0,64,88,26
0,62,110,0
0,64,111,0
0,47,53,46
0,71,111,0
0,69,110,0
0,67,110,0
0,69,111,0
0,40,78,3
0,47,55,479
0,52,45,61
0,55,56,31
0,59,50,35
0,52,58,1
0,64,55,28
0,66,111,0
0,67,110,0
0,64,110,0
0,40,55,12
0,47,37,80
0,52,43,40
0,55,58,21
0,59,48,10
0,62,111,0
0,52,54,16
0,64,53,7
0,64,110,0
0,60,111,0
0,45,48,13
0,57,47,20
0,45,59,0
0,60,55,21
0,64,60,38
0,67,111,0
0,52,52,216
0,55,51,4
0,45,50,7
0,55,68,10
0,60,70,6
0,64,49,24
0,52,55,13
0,60,63,508
0,57,34,10
0,60,50,41
0,64,63,28
0,45,55,7
0,52,42,10
0,64,46,0
0,62,71,7
0,60,44,3
0,55,49,17
0,60,44,2
0,67,110,0
0,55,34,8
0,69,111,0
0,48,47,5
0,66,110,0
0,45,27,5
0,54,43,458
0,48,28,42
0,57,39,437
0,57,46,1
0,60,45,23
0,64,44,14
0,67,110,0
0,69,111,0
0,47,43,0
0,66,111,0
0,47,48,10
0,54,34,64
0,54,45,41
0,54,29,3
0,59,36,26
0,63,43,19
0,59,44,36
0,67,110,0
0,69,110,0
0,66,111,0
0,48,47,51
0,54,43,468
0,64,37,513
0,57,32,11
0,60,31,9
0,57,46,17
0,66,111,0
0,66,110,0
0,40,65,151
0,52,56,16
0,52,76,11
0,56,64,21
0,56,69,31
0,40,95,0
0,66,110,0
0,59,69,25
0,59,69,2
0,64,90,20
0,64,111,0
0,52,44,12
0,56,65,9
0,59,66,0
0,64,110,0
0,64,69,2
0,56,55,4
0,52,42,4
0,59,62,2
0,52,45,53
0,59,111,0
0,56,64,5
0,52,57,9
0,40,75,5
0,59,57,6
0,56,66,24
0,64,68,13
0,59,62,35
0,52,48,49
0,52,43,35
0,59,71,4
0,56,56,8
0,59,53,6
0,64,75,0
0,56,72,4
0,64,111,0
0,52,50,7
0,64,110,0
0,45,73,21
0,52,58,33
0,45,71,10
0,57,65,10
0,57,71,3
0,33,98,0
0,64,111,0
0,61,70,22
0,61,64,16
0,64,72,0
0,45,61,39
0,66,110,0
0,61,62,24
0,61,60,2
0,57,59,5
0,68,110,0
0,64,73,7
0,45,41,17
0,69,111,0
0,45,73,20
0,57,64,23
0,57,60,11
0,61,71,10
0,61,64,20
0,64,76,7
0,52,51,25
0,45,38,25
0,61,73,13
0,57,65,0
0,57,66,9
0,61,65,5
0,64,72,6
0,69,111,0
0,52,50,18
0,69,110,0
0,47,67,22
0,51,62,4
0,47,66,3
0,54,61,22
0,54,71,3
0,35,97,0
0,69,110,0
0,59,75,1
0,59,71,25
0,63,66,54
0,47,58,51
0,68,111,0
0,68,111,0
0,54,63,2
0,59,58,8
0,59,76,7
0,51,65,7
0,63,57,0
0,54,68,11
0,66,110,0
0,47,57,80
0,47,62,72
0,51,71,9
0,54,75,7
0,54,64,5
0,63,65,9
0,59,92,4
0,59,64,21
0,54,58,74
0,35,65,60
0,47,68,29
0,51,67,15
0,59,81,4
0,63,77,0
0,35,80,4
0,54,65,16
0,59,70,0
0,35,91,210
0,52,34,2
0,66,110,0
0,35,105,0
0,40,76,7
0,66,111,0
0,35,106,0
0,40,65,0
0,52,56,10
0,52,76,11
0,56,65,21
0,56,69,31
0,40,103,0
0,66,110,0
0,68,31,0
0,35,115,0
0,42,98,0
0,59,69,25
0,59,69,2
0,64,90,20
0,69,37,0
0,64,111,0
0,68,36,0
0,52,44,12
0,69,39,0
0,56,65,9
0,59,66,0
0,64,111,0
0,68,39,0
0,42,99,0
0,64,69,0
0,56,54,4
0,52,43,4
0,59,62,2
0,69,42,0
0,59,110,0
0,68,43,0
0,69,50,0
0,52,56,14
0,40,75,4
0,54,95,11
0,68,46,0
0,42,104,0
0,57,104,6
0,56,67,6
0,59,62,30
0,56,67,19
0,69,55,0
0,52,66,0
0,47,52,10
0,68,53,0
0,42,76,0
0,52,71,16
0,69,54,0
0,68,52,0
0,42,105,0
0,64,69,0
0,52,42,3
0,56,56,0
0,59,68,7
0,56,57,5
0,59,53,6
0,69,61,0
0,44,83,0
0,56,59,5
0,64,81,3
0,59,80,10
0,64,111,0
0,68,55,0
0,42,105,0
0,52,60,7
0,47,53,19
0,64,110,0
0,69,62,0
0,45,72,21
0,52,58,6
0,45,70,15
0,57,65,17
0,57,71,3
0,33,96,0
0,64,110,0
0,71,56,0
0,35,106,0
0,42,104,0
0,61,71,20
0,61,64,8
0,64,72,0
0,69,53,202
0,45,61,39
0,66,111,0
0,71,56,0
0,69,57,0
0,61,63,24
0,61,60,2
0,57,59,5
0,68,111,0
0,71,57,0
0,42,104,0
0,64,72,7
0,69,52,0
0,45,41,55
0,69,110,0
0,71,57,0
0,69,54,0
0,45,72,20
0,57,65,23
0,57,61,11
0,71,56,0
0,42,105,0
0,61,70,8
0,61,64,20
0,64,76,5
0,69,53,205
0,52,50,9
0,71,57,0
0,57,55,1
0,64,45,4
0,61,60,13
0,45,38,4
0,69,56,0
0,61,73,13
0,71,56,0
0,42,105,0
0,57,67,4
0,57,65,1
0,61,64,0
0,64,73,6
0,69,53,0
0,69,110,0
0,71,57,0
0,52,50,18
0,69,111,0
0,69,54,0
0,35,58,0
0,47,66,28
0,51,63,4
0,47,67,3
0,54,60,22
0,54,71,3
0,35,105,0
0,69,111,0
0,71,68,0
0,35,107,0
0,42,110,0
0,59,74,1
0,59,71,25
0,63,66,50
0,73,61,0
0,47,58,51
0,68,110,0
0,71,58,0
0,35,107,0
0,68,110,0
0,73,61,0
0,54,63,2
0,59,58,8
0,59,77,7
0,71,63,0
0,42,110,0
0,51,65,5
0,63,56,0
0,54,68,11
0,66,111,0
0,73,60,0
0,71,65,0
0,47,64,3
0,73,60,0
0,47,63,16
0,63,47,6
0,59,36,2
0,54,59,3
0,71,70,0
0,42,111,0
0,54,59,6
0,59,37,9
0,54,50,31
0,59,36,10
0,47,39,9
0,63,50,2
0,69,69,0
0,35,54,0
0,54,48,2
0,47,46,5
0,68,55,0
0,35,58,0
0,42,110,0
0,54,65,0
0,59,43,0
0,59,49,6
0,47,61,4
0,63,50,1
0,54,56,4
0,47,50,10
0,47,67,13
0,59,71,4
0,69,68,3
0,35,65,0
0,54,63,0
0,54,78,1
0,63,60,11
0,47,64,42
0,47,99,16
0,71,74,0
0,35,89,0
0,42,111,0
0,54,70,0
0,59,73,0
0,59,98,1
0,63,73,4
0,54,91,1
0,73,71,0
0,59,69,18
0,54,72,13
0,47,64,5
0,63,82,3
0,59,95,0
0,75,75,0
0,35,90,0
0,54,90,5
0,47,90,3
0,76,76,0
0,38,59,10
0,47,93,1
0,54,83,0
0,47,87,6
0,54,97,3
0,78,110,0
0,69,89,0
0,78,78,0
0,38,106,0
0,59,90,0
0,63,96,2
0,59,106,4
0,80,81,0
0,78,111,0
0,69,88,0
0,81,84,0
0,47,79,1
0,54,85,9
0,59,96,6
0,82,55,0
0,52,92,1
0,56,86,8
0,59,77,29
0,40,114,0
0,78,111,0
0,69,91,0
0,83,83,0
0,59,49,0
0,64,48,0
0,68,47,0
0,35,116,0
0,57,87,0
0,56,95,18
0,59,94,2
0,64,76,6
0,81,68,0
0,56,69,42
0,76,110,0
0,68,91,0
0,83,77,0
0,42,109,0
0,81,66,0
0,68,70,0
0,76,111,0
0,69,91,0
0,80,72,0
0,38,107,0
0,42,116,0
0,56,85,2
0,64,88,4
0,59,93,10
0,78,57,0
0,56,84,19
0,56,83,0
0,52,91,5
0,59,92,4
0,59,94,0
0,40,116,0
0,64,87,0
0,71,110,0
0,68,80,0
0,80,71,0
0,35,115,0
0,42,111,0
0,78,56,0
0,59,91,59
0,76,68,0
0,42,112,0
0,56,52,3
0,52,58,2
0,78,73,0
0,56,69,2
0,80,73,7
0,35,80,0
0,42,112,0
0,52,81,5
0,56,73,130
0,59,86,4
0,52,78,5
0,81,76,24
0,35,115,0
0,64,90,25
0,59,78,0
0,56,73,1
0,83,82,0
0,38,113,0
0,46,117,0
0,52,75,3
0,59,84,4
0,56,98,57
0,80,73,0
0,56,57,62
0,76,110,0
0,71,86,0
0,81,76,0
0,35,83,0
0,42,107,0
0,35,73,0
0,76,111,0
0,71,93,0
0,83,83,0
0,35,98,0
0,57,64,0
0,61,63,10
0,33,111,0
0,76,111,0
0,71,95,0
0,85,87,0
0,61,47,0
0,69,48,0
0,35,119,0
0,42,113,0
0,61,91,9
0,57,99,3
0,64,87,8
0,83,80,0
0,57,62,30
0,78,110,0
0,69,82,0
0,85,83,0
0,42,116,0
0,83,78,210
0,35,100,0
0,61,71,0
0,80,110,0
0,71,90,0
0,81,80,0
0,38,110,0
0,42,118,0
0,57,94,6
0,61,82,5
0,52,87,4
0,57,60,0
0,64,86,8
0,83,81,0
0,61,83,31
0,57,91,3
0,64,90,5
0,45,98,0
0,81,111,0
0,73,91,0
0,81,79,0
0,35,114,0
0,42,113,0
0,80,76,0
0,52,72,50
0,57,87,3
0,57,68,13
0,81,78,0
0,35,103,0
0,42,117,0
0,61,75,0
0,52,76,24
0,61,83,5
0,57,94,4
0,80,79,0
0,57,75,0
0,81,83,0
0,35,111,0
0,42,116,0
0,40,96,0
0,83,82,0
0,35,92,0
0,61,87,19
0,64,84,4
0,45,115,0
0,85,84,0
0,38,113,0
0,46,116,0
0,40,107,0
0,83,81,0
0,52,70,0
0,57,103,6
0,61,87,5
0,57,78,23
0,33,116,0
0,81,111,0
0,73,89,0
0,85,84,0
0,35,76,0
0,42,106,0
0,34,78,0
0,81,110,0
0,73,86,0
0,83,81,0
0,35,99,0
0,47,86,2
0,54,70,5
0,59,85,1
0,66,78,5
0,35,105,0
0,81,110,0
0,73,90,0
0,81,79,0
0,63,49,0
0,66,46,0
0,71,46,0
0,35,111,0
0,42,109,0
0,63,77,1
0,59,107,19
0,80,78,0
0,35,108,0
0,80,111,0
0,71,89,0
0,81,83,0
0,35,110,0
0,42,108,0
0,59,69,10
0,80,110,0
0,71,92,0
0,80,78,0
0,54,91,11
0,78,82,0
0,38,112,0
0,42,117,0
0,47,74,6
0,59,74,5
0,66,70,12
0,63,87,4
0,59,84,1
0,78,111,0
0,69,91,0
0,80,83,0
0,66,56,25
0,35,103,0
0,78,83,0
0,35,110,0
0,42,113,0
0,63,69,3
0,59,73,5
0,76,82,0
0,75,82,0
0,35,111,0
0,46,119,0
0,66,52,10
0,35,83,0
0,76,83,0
0,38,58,0
0,63,40,8
0,45,61,14
0,59,37,2
0,35,88,0
0,78,83,0
0,38,75,0
0,45,62,10
0,63,57,1
0,66,68,4
0,59,87,27
0,54,72,4
0,45,89,27
0,35,109,0
0,80,82,0
0,38,95,0
0,47,77,0
0,63,68,18
0,59,71,5
0,66,74,4
0,35,116,0
0,59,91,0
0,81,84,0
