track,note,velocity,time
0,35,80,43
0,35,80,0
0,62,96,0
0,62,121,0
0,66,96,0
0,71,96,0
0,66,106,2
0,71,86,2
0,62,102,16
0,66,91,2
0,71,76,2
0,35,71,20
0,44,44,0
0,44,59,2
0,28,80,4
0,35,80,0
0,44,44,0
0,62,80,0
0,66,80,0
0,71,80,0
0,30,80,17
0,38,88,0
0,44,81,0
0,62,98,0
0,66,96,2
0,71,116,2
0,62,85,13
0,66,83,2
0,71,87,2
0,33,80,20
0,35,80,0
0,44,44,0
0,35,71,2
0,35,80,0
0,44,59,0
0,62,96,0
0,66,96,0
0,71,96,0
0,44,44,22
0,62,113,40
0,66,96,2
0,71,113,2
0,62,96,20
0,66,83,1
0,71,96,2
0,44,44,20
0,62,83,0
0,66,59,1
0,73,96,0
0,62,73,1
0,66,55,2
0,73,83,0
0,35,80,1
0,44,59,0
0,44,44,14
0,62,113,0
0,66,96,2
0,71,103,2
0,62,96,16
0,66,83,2
0,71,88,2
0,38,88,20
0,44,81,0
0,44,44,40
0,35,80,40
0,44,59,0
0,44,44,40
0,33,80,20
0,35,80,0
0,61,96,0
0,61,106,0
0,64,96,0
0,69,96,0
0,64,106,2
0,69,106,2
0,61,91,16
0,64,91,2
0,69,91,2
0,35,71,20
0,44,44,0
0,44,59,1
0,33,80,25
0,35,80,0
0,44,44,0
0,61,81,0
0,64,81,0
0,69,81,0
0,38,88,6
0,44,81,0
0,61,106,0
0,64,106,2
0,69,106,2
0,61,91,16
0,64,91,2
0,69,91,2
0,35,80,20
0,44,44,0
0,33,80,2
0,35,71,0
0,44,59,0
0,61,96,0
0,64,96,0
0,69,96,0
0,44,44,23
0,61,106,40
0,64,106,2
0,71,106,2
0,61,91,20
0,64,91,2
0,71,91,2
0,44,44,20
0,69,106,0
0,69,91,16
0,35,80,20
0,44,59,0
0,66,106,0
0,66,91,0
0,44,44,22
0,38,88,40
0,44,81,0
0,61,106,0
0,64,106,2
0,71,106,2
0,61,91,16
0,64,91,2
0,71,91,2
0,44,44,20
0,69,106,0
0,69,91,16
0,35,80,20
0,44,59,0
0,66,106,0
0,66,91,0
0,44,44,11
0,31,80,40
0,35,80,0
0,55,71,0
0,59,93,0
0,62,96,0
0,66,96,0
0,71,81,0
0,62,121,2
0,66,101,2
0,59,81,0
0,62,102,2
0,66,87,2
0,35,71,20
0,44,44,0
0,44,59,4
0,28,80,12
0,35,80,0
0,44,44,0
0,55,71,0
0,62,96,0
0,66,96,0
0,71,81,0
0,31,80,24
0,38,88,0
0,44,81,0
0,59,98,0
0,62,127,2
0,66,98,0
0,59,85,16
0,62,107,2
0,66,85,2
0,33,80,20
0,35,80,0
0,44,44,0
0,55,75,0
0,29,80,40
0,35,71,0
0,44,59,0
0,62,96,0
0,66,96,0
0,71,81,0
0,44,44,20
0,57,75,0
0,55,75,40
0,59,96,0
0,62,87,0
0,66,87,0
0,71,87,0
0,62,121,2
0,66,103,2
0,59,83,4
0,62,102,2
0,66,88,2
0,44,44,4
0,59,88,0
0,62,101,2
0,67,101,0
0,59,77,16
0,62,87,2
0,67,87,0
0,35,80,20
0,44,59,0
0,44,44,24
0,59,101,0
0,62,127,2
0,66,98,2
0,59,87,16
0,62,107,2
0,66,85,2
0,38,88,20
0,44,81,0
0,44,44,40
0,35,80,40
0,44,59,0
0,44,44,40
0,33,80,20
0,35,80,0
0,61,96,0
0,61,83,0
0,64,96,0
0,69,96,0
0,64,113,2
0,69,127,2
0,61,73,16
0,64,96,2
0,69,107,2
0,35,71,20
0,44,44,0
0,44,59,1
0,33,80,27
0,35,80,0
0,44,44,0
0,61,81,0
0,64,81,0
0,69,81,0
0,38,88,3
0,44,81,0
0,61,78,0
0,64,106,2
0,69,113,2
0,61,70,16
0,64,91,2
0,69,96,2
0,35,80,20
0,44,44,0
0,33,80,9
0,35,71,0
0,44,59,0
0,61,96,0
0,64,96,0
0,69,96,0
0,44,44,40
0,44,44,88
0,61,88,0
0,64,98,2
0,69,121,2
0,61,77,16
0,64,85,2
0,69,102,2
0,35,80,12
0,44,59,0
0,57,94,0
0,57,82,12
0,44,44,24
0,57,76,0
0,57,68,16
0,38,88,22
0,44,81,0
0,61,93,0
0,64,121,2
0,69,121,2
0,61,81,16
0,64,102,2
0,69,102,2
0,44,44,20
0,61,81,0
0,64,106,2
0,70,113,2
0,61,72,4
0,64,91,1
0,70,96,2
0,35,80,4
0,44,59,0
0,44,44,12
0,35,80,36
0,35,80,0
0,62,96,0
0,62,121,0
0,66,96,0
0,71,96,0
0,66,106,2
0,71,86,0
0,62,102,16
0,66,91,2
0,71,76,0
0,35,71,20
0,44,44,0
0,44,59,2
0,28,80,4
0,35,80,0
0,44,44,0
0,62,80,0
0,66,80,0
0,71,80,0
0,30,80,17
0,38,88,0
0,44,81,0
0,62,98,0
0,66,96,1
0,71,125,2
0,62,85,16
0,66,83,2
0,71,87,2
0,33,80,20
0,35,80,0
0,44,44,0
0,35,71,1
0,35,80,0
0,44,59,0
0,62,96,0
0,66,96,0
0,71,96,0
0,44,44,22
0,62,113,40
0,66,96,2
0,71,113,2
0,62,96,20
0,66,83,1
0,71,96,2
0,44,44,20
0,62,83,0
0,66,59,1
0,73,96,0
0,62,73,1
0,66,55,2
0,73,83,0
0,35,80,1
0,44,59,0
0,44,44,14
0,62,113,0
0,66,96,2
0,71,103,2
0,62,96,16
0,66,83,2
0,71,88,2
0,38,88,20
0,44,81,0
0,44,44,40
0,35,80,40
0,44,59,0
0,44,44,40
0,33,80,20
0,35,80,0
0,61,96,0
0,61,106,0
0,64,96,0
0,69,96,0
0,64,106,2
0,69,106,2
0,61,91,16
0,64,91,2
0,69,91,2
0,35,71,20
0,44,44,0
0,44,59,1
0,33,80,25
0,35,80,0
0,44,44,0
0,61,81,0
0,64,81,0
0,69,81,0
0,38,88,6
0,44,81,0
0,61,106,0
0,64,106,2
0,69,116,2
0,61,91,2
0,64,91,2
0,69,91,2
0,35,80,20
0,44,44,0
0,33,80,2
0,35,71,0
0,44,59,0
0,61,96,0
0,64,96,0
0,69,96,0
0,44,44,23
0,61,106,40
0,64,106,2
0,71,106,2
0,61,91,20
0,64,91,2
0,71,91,2
0,44,44,20
0,69,106,0
0,69,91,16
0,35,80,20
0,44,59,0
0,66,106,0
0,66,91,0
0,44,44,22
0,38,88,40
0,44,81,0
0,61,106,0
0,64,106,2
0,71,106,2
0,61,91,16
0,64,91,2
0,71,91,2
0,44,44,20
0,69,106,0
0,69,91,16
0,35,80,20
0,44,59,0
0,66,106,0
0,66,91,0
0,44,44,11
0,31,80,31
0,35,80,0
0,55,71,0
0,59,93,0
0,62,96,0
0,66,96,0
0,71,81,0
0,62,121,2
0,66,101,2
0,59,81,0
0,62,102,2
0,66,87,2
0,35,71,20
0,44,44,0
0,44,59,4
0,28,80,6
0,35,80,0
0,44,44,0
0,55,71,0
0,62,96,0
0,66,96,0
0,71,81,0
0,31,80,24
0,38,88,0
0,44,81,0
0,59,98,0
0,62,127,2
0,66,98,0
0,59,85,16
0,62,107,2
0,66,85,2
0,35,80,20
0,44,44,0
0,55,75,0
0,33,80,0
0,31,80,40
0,35,71,0
0,44,59,0
0,62,96,0
0,66,96,0
0,71,81,0
0,44,44,20
0,57,75,0
0,55,75,40
0,59,96,0
0,62,87,0
0,66,87,0
0,71,87,0
0,62,121,2
0,66,103,2
0,59,83,4
0,62,102,2
0,66,88,2
0,44,44,4
0,59,88,0
0,62,101,2
0,67,101,0
0,59,77,16
0,62,87,2
0,67,87,0
0,35,80,20
0,44,59,0
0,44,44,24
0,59,101,0
0,62,127,2
0,66,98,2
0,59,87,16
0,62,107,2
0,66,85,2
0,38,88,20
0,44,81,0
0,44,44,40
0,35,80,40
0,44,59,0
0,44,44,40
0,33,80,20
0,35,80,0
0,61,96,0
0,61,83,0
0,64,96,0
0,69,96,0
0,64,113,2
0,69,127,2
0,61,73,16
0,64,96,2
0,69,107,2
0,35,71,20
0,44,44,0
0,44,59,1
0,33,80,39
0,35,80,0
0,44,44,0
0,61,81,0
0,64,81,0
0,69,81,0
0,38,88,3
0,44,81,0
0,61,78,0
0,64,106,2
0,69,122,2
0,61,70,16
0,64,91,2
0,69,96,2
0,35,80,20
0,44,44,0
0,33,80,9
0,35,71,0
0,44,59,0
0,61,96,0
0,64,96,0
0,69,96,0
0,44,44,40
0,44,44,88
0,61,88,0
0,64,98,2
0,69,121,2
0,61,77,16
0,64,85,2
0,69,102,2
0,35,80,12
0,44,59,0
0,57,94,0
0,57,82,12
0,44,44,24
0,57,76,0
0,57,68,16
0,38,88,22
0,44,81,0
0,61,93,0
0,64,121,2
0,69,121,2
0,61,81,16
0,64,102,2
0,69,102,2
0,44,44,20
0,61,81,0
0,69,113,0
0,64,106,2
0,61,72,4
0,69,96,0
0,64,91,1
0,35,80,4
0,44,59,0
0,44,44,12
0,49,65,34
0,59,50,0
0,62,50,0
0,31,80,2
0,35,80,0
0,55,100,0
0,59,55,0
0,59,86,0
0,59,100,0
0,62,55,0
0,62,116,0
0,66,55,0
0,66,92,0
0,59,64,16
0,62,94,0
0,66,70,0
0,35,71,24
0,70,44,0
0,46,70,40
0,70,61,0
0,31,80,3
0,35,80,0
0,55,122,0
0,59,127,0
0,62,127,0
0,70,44,0
0,38,88,9
0,42,65,0
0,59,78,0
0,62,110,0
0,66,86,0
0,70,79,0
0,74,119,0
0,59,56,13
0,62,88,0
0,66,64,0
0,35,80,13
0,70,44,0
0,31,80,17
0,35,71,0
0,46,70,0
0,62,55,0
0,70,61,0
0,62,33,11
0,70,44,11
0,42,65,9
0,59,86,0
0,62,121,0
0,66,90,0
0,70,79,0
0,71,95,0
0,59,64,16
0,62,99,0
0,66,68,0
0,59,70,19
0,62,80,0
0,67,116,0
0,70,44,0
0,59,48,6
0,62,58,0
0,67,94,0
0,35,80,3
0,46,70,0
0,70,61,0
0,59,82,27
0,59,97,0
0,62,110,0
0,62,127,0
0,66,90,0
0,70,44,0
0,59,60,2
0,62,88,0
0,66,68,0
0,38,88,3
0,42,65,0
0,70,79,0
0,66,105,0
0,76,113,0
0,70,44,24
0,31,80,11
0,35,80,0
0,46,70,0
0,59,28,0
0,62,127,0
0,70,61,0
0,74,113,0
0,70,44,2
0,35,80,2
0,38,80,0
0,54,50,0
0,57,50,0
0,57,100,0
0,59,86,0
0,62,116,0
0,62,100,0
0,66,92,0
0,70,79,0
0,59,64,16
0,62,94,0
0,66,70,0
0,35,71,24
0,70,44,0
0,46,70,40
0,70,61,0
0,35,80,26
0,38,80,0
0,57,107,0
0,62,127,0
0,70,44,0
0,66,107,0
0,38,88,6
0,42,65,0
0,59,76,0
0,62,104,0
0,66,84,0
0,70,79,0
0,59,54,16
0,62,82,0
0,66,62,0
0,35,80,11
0,70,44,0
0,35,71,19
0,38,80,0
0,46,70,0
0,70,61,0
0,70,44,40
0,42,65,40
0,59,88,0
0,62,110,0
0,67,110,0
0,70,79,0
0,59,66,6
0,62,88,0
0,67,88,0
0,59,28,6
0,62,76,0
0,66,76,0
0,70,44,0
0,59,6,16
0,62,54,0
0,66,54,0
0,35,80,9
0,46,70,0
0,70,61,0
0,59,76,24
0,62,104,0
0,62,127,0
0,66,86,0
0,66,127,0
0,70,44,0
0,59,54,4
0,62,82,0
0,66,64,0
0,38,88,4
0,42,65,0
0,59,60,0
0,70,79,0
0,67,116,0
0,69,127,0
0,59,38,9
0,67,94,0
0,62,76,24
0,66,37,0
0,70,44,0
0,62,54,2
0,66,15,0
0,35,80,6
0,38,80,0
0,46,70,0
0,62,62,0
0,70,61,0
0,66,105,0
0,70,44,12
0,35,80,40
0,42,80,0
0,57,100,0
0,59,80,0
0,61,98,0
0,61,50,0
0,61,100,0
0,66,92,0
0,70,79,0
0,59,58,16
0,61,76,0
0,66,70,0
0,35,71,24
0,70,44,0
0,46,70,40
0,70,61,0
0,35,80,13
0,42,80,0
0,64,122,0
0,70,44,0
0,38,88,37
0,42,65,0
0,59,86,0
0,61,98,0
0,66,92,0
0,70,79,0
0,59,64,12
0,61,76,0
0,66,70,0
0,35,80,9
0,66,107,0
0,70,44,0
0,35,71,30
0,42,80,0
0,46,70,0
0,61,40,0
0,66,69,0
0,70,61,0
0,61,18,16
0,67,89,12
0,70,44,0
0,42,65,40
0,57,104,0
0,61,88,0
0,66,88,0
0,69,107,0
0,70,79,0
0,57,82,14
0,61,66,0
0,66,66,0
0,67,88,23
0,70,44,0
0,67,66,9
0,35,80,9
0,46,70,0
0,66,95,0
0,70,61,0
0,57,104,14
0,57,127,0
0,61,92,0
0,61,127,0
0,66,92,0
0,70,44,0
0,57,82,16
0,61,70,0
0,66,70,0
0,38,88,6
0,42,65,0
0,42,80,0
0,64,119,0
0,64,73,0
0,70,79,0
0,40,80,7
0,70,44,0
0,35,80,14
0,37,80,0
0,46,70,0
0,57,111,0
0,61,111,0
0,62,95,0
0,70,61,0
0,70,44,21
0,35,80,7
0,35,80,0
0,54,100,0
0,55,50,0
0,59,84,0
0,59,50,0
0,59,100,0
0,62,110,0
0,66,92,0
0,70,79,0
0,62,50,0
0,59,62,11
0,62,88,0
0,66,70,0
0,35,71,24
0,70,44,0
0,46,70,40
0,70,61,0
0,35,80,1
0,35,80,0
0,54,75,0
0,59,95,0
0,62,115,0
0,70,44,0
0,38,88,7
0,42,65,0
0,59,82,0
0,62,110,0
0,66,84,0
0,70,79,0
0,59,60,2
0,62,88,0
0,66,62,0
0,35,80,3
0,70,44,0
0,35,71,18
0,35,80,0
0,46,70,0
0,70,61,0
0,70,44,40
0,42,65,40
0,59,76,0
0,62,90,0
0,67,121,0
0,70,79,0
0,59,54,6
0,62,68,0
0,67,99,0
0,59,28,6
0,62,86,0
0,66,64,0
0,70,44,0
0,59,6,15
0,62,64,0
0,66,42,0
0,28,80,9
0,35,80,0
0,46,70,0
0,70,61,0
0,59,90,33
0,62,98,0
0,62,127,0
0,66,82,0
0,70,44,0
0,62,76,8
0,66,60,0
0,29,80,3
0,38,88,0
0,42,65,0
0,59,70,0
0,66,102,0
0,67,116,0
0,70,79,0
0,59,48,2
0,67,94,0
0,62,92,24
0,66,48,0
0,70,44,0
0,62,70,16
0,66,26,0
0,30,80,15
0,35,80,0
0,46,70,0
0,59,57,0
0,62,127,0
0,70,61,0
0,70,44,4
0,31,80,13
0,35,80,0
0,59,86,0
0,62,110,0
0,66,88,0
0,70,79,0
0,55,50,0
0,59,100,0
0,62,100,0
0,59,64,16
0,62,88,0
0,66,66,0
0,35,71,24
0,70,44,0
0,46,70,10
0,70,61,0
0,31,80,3
0,35,80,0
0,59,126,0
0,62,126,0
0,66,126,0
0,70,44,0
0,38,88,2
0,42,65,0
0,59,86,0
0,62,121,0
0,66,90,0
0,70,79,0
0,74,119,0
0,59,64,1
0,62,99,0
0,66,68,0
0,35,80,2
0,70,44,0
0,31,80,26
0,35,71,0
0,46,70,0
0,70,61,0
0,70,44,40
0,42,65,2
0,59,80,0
0,62,110,0
0,66,92,0
0,70,79,0
0,71,93,0
0,59,58,1
0,62,88,0
0,66,70,0
0,59,60,1
0,62,52,0
0,67,104,0
0,70,44,0
0,59,38,6
0,62,30,0
0,67,82,0
0,35,80,3
0,46,70,0
0,70,61,0
0,31,80,27
0,59,78,0
0,62,104,0
0,62,107,0
0,66,92,0
0,66,102,0
0,70,44,0
0,59,56,8
0,62,82,0
0,66,70,0
0,38,88,2
0,38,80,0
0,42,65,0
0,69,127,0
0,70,79,0
0,76,119,0
0,70,44,26
0,31,80,4
0,35,80,0
0,46,70,0
0,62,46,0
0,66,107,0
0,70,61,0
0,73,119,0
0,70,44,7
0,35,80,19
0,42,80,0
0,54,82,0
0,54,50,0
0,57,82,0
0,57,74,0
0,61,82,0
0,61,92,0
0,66,84,0
0,70,79,0
0,57,50,0
0,57,96,0
0,61,50,0
0,61,96,0
0,57,52,16
0,61,70,0
0,66,62,0
0,35,71,24
0,70,44,0
