track,note,velocity,time
3,83,67,86784
3,80,66,48
3,75,61,36
3,80,66,23
3,83,68,6
3,80,68,48
3,75,68,5
3,80,64,3
3,83,66,10
3,80,73,48
3,75,69,3
3,80,61,27
3,83,68,3
3,80,73,27
3,75,76,1
3,80,55,48
3,82,67,9
3,78,76,28
3,75,68,3
3,78,62,41
3,82,67,8
3,78,76,19
3,75,67,6
3,78,64,42
3,82,62,4
3,78,69,48
3,75,67,36
3,78,64,9
3,82,64,4
3,78,62,48
3,75,64,1
3,80,62,10
3,76,63,48
3,71,55,6
3,76,67,47
3,80,69,33
3,76,62,43
3,71,57,11
3,76,64,48
3,80,67,5
3,76,66,43
3,71,56,8
3,76,62,45
3,80,67,33
3,76,66,47
3,71,57,7
3,76,67,48
3,80,68,33
3,76,66,45
3,71,61,11
3,76,64,48
3,80,64,3
3,76,66,48
3,71,57,9
3,76,62,48
3,80,66,10
3,76,64,48
3,71,62,8
3,76,64,48
3,80,64,10
3,76,66,48
3,71,57,3
3,83,68,58
3,80,61,48
3,75,57,5
3,80,61,48
3,83,66,11
3,80,66,48
3,75,66,10
3,80,62,48
3,83,66,8
3,80,64,48
3,75,71,9
3,80,64,48
3,83,66,1
3,80,68,48
3,75,68,30
3,78,61,46
3,82,76,12
3,78,76,48
3,75,64,7
3,78,58,1
3,82,62,5
3,78,68,48
3,75,68,4
3,78,67,48
3,82,64,1
3,78,64,48
3,75,69,2
3,78,66,48
3,82,67,36
3,78,62,35
3,75,68,40
3,80,67,34
3,76,67,33
3,71,56,1
3,76,64,46
3,80,64,0
3,76,64,48
3,71,63,2
3,76,52,40
3,80,62,18
3,76,64,47
3,71,60,7
3,76,67,48
3,80,63,1
3,76,60,48
3,71,62,6
3,76,64,48
3,80,67,1
3,76,62,48
3,71,57,11
3,76,53,48
3,80,64,4
3,76,64,48
3,71,66,6
3,76,64,48
3,80,66,5
3,76,64,48
3,71,61,6
3,76,62,48
3,80,64,32
3,76,56,44
3,71,45,3
3,83,46,52
3,80,67,43
3,75,67,1
3,80,60,48
3,83,63,8
3,80,66,48
3,75,55,4
3,80,61,48
3,83,55,2
3,80,62,48
3,75,57,5
3,80,57,48
3,83,67,0
3,80,64,48
3,75,61,3
3,82,68,2
3,78,71,48
3,75,62,5
3,78,61,48
3,82,61,2
3,78,64,48
3,75,62,5
3,78,61,48
3,82,57,0
3,78,52,0
3,75,62,4
3,78,57,48
3,82,64,5
3,78,58,48
3,75,57,6
3,80,52,2
3,76,56,48
3,71,56,5
3,76,61,48
3,80,64,30
3,76,64,31
3,71,55,3
3,76,62,48
3,80,63,38
3,76,64,46
3,71,61,4
3,76,63,48
3,80,58,3
3,76,60,48
3,71,53,7
3,76,62,48
3,80,63,38
3,76,56,47
3,71,51,7
3,76,63,48
3,80,64,38
3,76,66,46
3,71,53,3
3,76,62,48
3,80,62,0
3,76,57,48
3,71,55,8
3,76,66,48
3,80,63,6
3,76,62,35
3,71,56,2
4,35,110,43008
4,35,102,48
4,35,102,144
4,30,82,0
4,30,94,48
4,30,102,96
4,37,90,0
4,37,90,48
4,37,106,96
4,32,90,0
4,27,77,0
4,32,82,0
4,32,82,96
4,39,82,48
4,42,66,0
4,44,82,0
4,42,90,0
4,37,86,96
4,37,94,48
4,37,98,96
4,42,77,0
4,37,71,48
4,42,79,0
4,42,82,96
4,42,82,48
4,41,77,0
4,40,74,0
4,39,98,0
4,34,55,48
4,39,74,0
4,39,90,96
4,35,110,48
4,35,64,48
4,35,106,48
4,35,106,144
4,30,86,0
4,30,74,48
4,42,79,0
4,30,82,0
4,42,79,0
4,37,82,48
4,32,68,0
4,37,77,0
4,37,90,144
4,32,94,0
4,32,59,96
4,32,94,48
4,32,30,48
4,32,82,48
4,39,90,96
4,42,68,0
4,44,83,0
4,42,78,0
4,40,98,0
4,37,74,0
4,37,82,144
4,40,79,0
4,42,77,0
4,43,79,0
4,44,79,0
4,32,71,0
4,32,79,96
4,44,66,48
4,39,77,144
4,42,68,0
4,44,85,0
4,42,87,0
4,37,77,0
4,32,66,48
4,25,90,0
4,40,94,11088
4,40,94,48
4,28,102,1536
4,28,106,96
4,32,90,0
4,30,86,0
4,40,102,0
4,40,102,48
4,32,86,48
4,30,77,0
4,28,106,0
4,28,110,48
4,32,82,48
4,30,86,0
4,28,114,0
4,28,114,48
4,35,110,6144
4,35,102,48
4,35,102,144
4,30,82,0
4,30,94,48
4,30,102,96
4,37,90,0
4,37,90,48
4,37,106,96
4,32,95,0
4,27,77,0
4,32,82,0
4,32,82,96
4,39,82,48
4,42,66,0
4,44,91,0
4,42,90,0
4,37,86,96
4,37,94,48
4,37,98,96
4,42,85,0
4,37,71,0
4,42,79,0
4,42,82,96
4,42,82,48
4,41,77,0
4,40,83,0
4,39,98,0
4,34,68,0
4,39,83,0
4,39,90,96
4,35,110,48
4,35,64,0
4,35,106,48
4,35,104,144
4,30,93,0
4,30,74,48
4,42,79,0
4,30,82,0
4,42,79,0
4,37,82,48
4,32,68,0
4,37,77,0
4,37,90,144
4,32,94,0
4,32,59,96
4,32,94,48
4,32,68,48
4,32,82,48
4,39,90,96
4,42,68,0
4,44,82,0
4,42,83,0
4,40,87,0
4,37,81,0
4,37,91,144
4,40,79,0
4,42,77,0
4,43,79,0
4,44,79,0
4,32,71,96
4,32,79,48
4,44,66,0
4,39,77,144
4,42,68,0
4,44,82,0
4,42,79,0
4,37,77,0
4,32,66,48
4,25,90,0
5,63,38,27625
5,71,50,2
5,56,33,1
5,51,29,1
5,70,51,0
5,61,48,10
5,68,30,3
5,52,42,1
5,59,40,3
5,56,40,144
5,71,48,1
5,75,40,1
5,78,47,756
5,51,40,1
5,76,40,24
5,68,20,2
5,71,40,2
5,76,38,5
5,71,40,2
5,68,22,2
5,42,38,6215
5,58,50,1
5,54,45,2
5,59,60,770
5,61,63,343
5,55,56,119
5,43,53,1
5,58,50,2
5,63,55,1
5,43,61,25
5,43,52,25
5,58,43,389
5,67,60,2
5,63,47,1
5,55,45,2
5,59,52,57
5,63,45,0
5,66,46,0
5,71,55,0
5,66,49,984
5,70,49,1
5,73,43,2
5,54,50,3
5,61,38,1100
5,73,45,2
5,68,43,2
5,76,47,1
5,75,45,27
5,71,52,2
5,68,49,2
5,59,50,1
5,58,70,20
5,56,70,369
5,51,59,385
5,56,67,353
5,54,49,740
5,61,44,37
5,76,47,3
5,73,41,1
5,68,41,1
5,73,44,111
5,70,39,2
5,78,48,1
5,54,40,1
5,55,43,7
5,75,50,4
5,79,44,2
5,59,50,24
5,78,49,2
5,75,50,1
5,71,55,2
5,66,41,19
5,82,38,4
5,73,51,2
5,61,46,20
5,80,48,2
5,76,57,3
5,73,50,0
5,80,53,317
5,83,59,1
5,75,48,1
5,71,34,53
5,71,72,89
5,70,59,358
5,71,53,382
5,70,72,30
5,71,50,375
5,76,60,20
5,85,66,7
5,80,53,4
5,87,64,354
5,88,56,345
5,75,61,9
5,85,66,344
5,73,64,14
5,73,61,11
5,78,57,1
5,70,60,3
5,82,72,11
5,75,45,720
5,67,56,3
5,68,53,16
5,75,50,1
5,71,57,1
5,83,55,6
5,82,59,355
5,80,60,360
5,63,66,730
5,83,61,36
5,82,66,190
5,80,57,171
5,83,59,360
5,82,61,159
5,80,56,199
5,73,55,245
5,68,59,2
5,64,56,2
5,42,66,27613
5,58,57,1
5,54,47,2
5,59,71,755
5,61,58,347
5,43,71,124
5,63,66,2
5,58,60,1
5,55,60,2
5,67,84,336
5,59,52,56
5,63,45,0
5,66,46,0
5,71,55,0
5,66,54,984
5,70,54,1
5,73,48,2
5,54,55,3
5,61,43,1100
5,73,50,2
5,68,48,2
5,76,52,1
5,75,50,27
5,71,57,2
5,68,54,2
5,59,55,1
5,58,75,380
5,56,75,346
5,51,64,385
5,56,72,353
5,54,54,740
5,61,49,37
5,76,52,3
5,73,46,1
5,68,46,1
5,73,44,111
5,70,39,2
5,78,48,1
5,54,45,1
5,55,43,1
5,75,50,4
5,79,44,2
5,59,60,24
5,78,59,2
5,75,60,1
5,71,65,2
5,66,51,19
5,82,48,4
5,73,61,2
5,61,56,20
5,80,58,2
5,76,67,3
5,73,60,0
5,80,58,317
5,83,64,1
5,75,53,1
5,71,39,53
5,71,77,89
5,70,64,358
5,71,58,382
5,70,77,324
5,71,55,375
5,76,60,91
5,85,66,7
5,80,53,4
5,87,64,354
5,88,56,345
5,75,61,9
5,85,66,344
5,73,64,14
5,73,61,11
5,78,57,1
5,70,60,3
5,82,72,11
5,75,45,720
5,67,56,3
5,68,53,16
5,75,50,1
5,71,57,1
5,83,55,6
5,82,59,355
5,80,60,360
5,63,71,730
5,83,66,36
5,82,71,190
5,80,62,171
5,83,64,360
5,82,66,159
5,80,61,199
5,73,60,245
5,68,64,2
5,64,61,2
5,68,53,6008
5,75,55,11
5,83,61,1
5,82,56,43
5,63,41,3
5,73,52,3
5,80,43,107
5,76,50,0
5,75,45,343
5,64,29,11
6,56,68,8922
6,58,55,97
6,59,57,91
6,59,57,32
6,59,55,40
6,59,58,47
6,59,55,35
6,59,57,51
6,58,61,42
6,58,48,34
6,58,51,50
6,58,55,56
6,59,42,202
6,58,37,189
6,58,52,47
6,56,45,6
6,56,55,77
6,58,50,98
6,59,56,3
6,59,47,34
6,59,56,53
6,59,57,57
6,59,43,43
6,59,45,53
6,59,48,57
6,58,52,38
6,58,42,48
6,58,45,58
6,58,45,55
6,58,40,51
6,59,42,116
6,58,33,161
6,58,46,26
6,56,46,7
6,56,52,75
6,58,45,97
6,59,48,88
6,59,47,35
6,59,51,43
6,59,48,53
6,59,40,32
6,59,33,45
6,58,42,0
6,58,42,43
6,58,42,52
6,58,40,54
6,59,34,99
6,58,45,193
6,58,29,37
6,56,50,190
6,56,62,79
6,58,52,91
6,59,55,5
6,59,45,37
6,59,46,46
6,59,58,53
6,59,48,42
6,59,55,50
6,59,53,50
6,58,55,102
6,58,42,34
6,58,40,45
6,58,36,48
6,58,55,58
6,59,46,2
6,58,37,154
6,58,51,48
6,56,47,137
6,63,64,6277
6,68,61,90
6,71,55,68
6,71,60,31
6,71,63,34
6,71,66,36
6,71,68,42
6,71,67,34
6,70,84,3
6,70,56,36
6,70,61,35
6,70,71,40
6,71,64,4
6,70,68,104
6,70,64,25
6,68,64,193
6,68,68,483
6,70,55,94
6,71,64,2
6,71,57,28
6,71,62,39
6,71,66,42
6,71,58,36
6,71,56,49
6,70,67,18
6,70,51,43
6,70,53,44
6,70,61,43
6,71,55,6
6,70,52,289
6,71,57,94
6,70,47,90
6,70,55,35
6,68,58,200
6,68,67,42
6,70,64,93
6,71,67,12
6,71,55,38
6,71,56,47
6,71,66,54
6,71,55,37
6,71,58,41
6,70,68,25
6,70,57,35
6,70,64,46
6,70,64,42
6,71,62,195
6,70,61,187
6,70,62,32
6,68,64,201
6,68,68,50
6,70,58,98
6,71,58,16
6,71,53,33
6,71,58,49
6,71,64,40
6,71,57,40
6,71,52,41
6,70,67,22
6,70,55,36
6,70,55,40
6,70,55,44
6,71,56,6
6,70,53,94
6,71,47,5
6,70,53,99
6,71,56,1
6,68,50,172
6,66,61,43
6,68,56,100
6,66,31,94
6,68,55,90
6,66,64,93
6,71,84,376
6,70,73,196
6,70,79,243
6,71,71,190
6,75,87,10
6,75,87,34
6,75,87,179
6,73,87,97
6,71,73,159
6,73,84,98
6,73,87,293
6,75,79,101
6,76,76,11
6,76,79,40
6,76,68,34
6,76,79,38
6,76,76,30
6,75,87,9
6,73,79,292
6,75,84,179
6,71,84,880
6,75,87,107
6,73,87,171
6,71,84,171
6,71,82,46
6,75,84,105
6,73,84,175
6,71,71,158
6,71,64,53
6,73,79,97
6,73,61,30
6,68,73,8
6,73,76,94
6,66,67,185
6,70,87,98
6,70,71,39
6,70,87,43
6,68,79,192
6,66,95,81
6,75,76,878
6,75,84,52
6,76,66,190
6,75,79,102
6,70,68,7
6,70,79,47
6,71,79,189
6,75,82,7
6,75,87,54
6,75,95,54
6,75,91,69
6,73,87,29
6,71,73,2
6,73,87,106
6,73,79,34
6,73,73,451
6,73,87,63
6,75,82,102
6,76,76,1
6,76,79,29
6,76,66,145
6,76,87,62
6,76,64,48
6,76,79,46
6,76,79,40
6,76,68,131
6,75,87,98
6,73,73,177
6,75,82,95
6,71,79,850
6,75,82,108
6,73,87,172
6,71,79,154
6,71,82,65
6,75,82,104
6,73,76,162
6,71,67,165
6,71,66,57
6,73,84,101
6,68,69,172
6,73,76,100
6,73,103,112
6,75,79,98
6,76,67,15
6,76,66,55
6,76,82,53
6,76,66,57
6,76,68,45
6,76,68,52
6,75,84,94
6,73,71,388
6,75,76,87
6,76,62,7
6,75,91,111
6,73,68,114
6,75,91,103
6,71,82,255
6,75,91,118
6,73,82,170
6,71,79,161
6,71,82,63
6,75,79,108
6,73,73,174
6,71,66,153
6,73,64,292
6,68,68,168
6,73,79,93
6,68,67,982
6,70,57,97
6,71,57,6
6,71,55,40
6,71,51,45
6,71,57,51
6,71,53,38
6,71,51,42
6,70,57,24
6,70,34,55
6,70,62,91
6,70,68,56
6,71,57,9
6,70,68,89
6,70,55,43
6,68,57,186
6,68,91,6328
6,70,68,96
6,71,71,3
6,71,71,32
6,71,79,48
6,71,79,50
6,71,79,63
6,71,84,95
6,70,84,2
6,70,68,45
6,70,79,53
6,70,71,50
6,70,79,50
6,71,67,3
6,70,82,88
6,70,71,42
6,68,79,198
6,68,79,694
6,70,69,90
6,71,66,20
6,71,45,33
6,71,52,56
6,71,71,51
6,71,51,55
6,71,56,51
6,70,71,35
6,70,55,35
6,70,66,55
6,70,68,50
6,70,67,45
6,71,66,33
6,70,68,13
6,70,67,34
6,68,68,157
6,68,79,421
6,70,67,18
6,71,66,27
6,71,73,42
6,71,66,52
6,71,79,54
6,71,64,59
6,71,64,47
6,70,73,33
6,70,64,59
6,70,66,50
6,70,66,53
6,71,68,27
6,70,57,38
6,70,60,37
6,68,61,191
6,68,67,298
6,70,67,92
6,71,67,21
6,71,62,28
6,71,64,46
6,71,67,55
6,71,57,46
6,71,61,44
6,70,69,27
6,70,66,102
6,71,57,2
6,70,66,90
6,70,64,42
6,68,68,183
6,68,79,401
6,71,67,5
6,70,68,88
6,73,68,4
6,71,68,17
6,75,57,7
6,71,68,35
6,75,55,7
6,75,62,44
6,71,67,2
6,75,64,47
6,71,76,2
6,71,58,35
6,75,45,1
6,75,48,37
6,71,64,6
6,70,82,21
6,78,66,0
6,70,56,28
6,78,67,59
6,70,71,6
6,71,79,49
6,78,66,1
6,78,67,59
6,70,68,6
6,78,67,46
6,70,66,8
6,76,68,187
6,68,68,1
6,68,66,158
6,70,46,95
6,71,60,17
6,71,52,34
6,71,45,47
6,71,46,54
6,71,55,55
6,71,53,44
6,71,48,49
6,70,64,41
6,70,55,70
6,70,55,62
6,70,58,59
6,71,57,10
6,70,45,10
6,70,53,45
6,68,56,157
6,66,55,1035
6,68,61,105
6,66,42,74
6,68,58,100
6,66,62,90
6,71,64,1033
6,70,79,184
6,70,82,201
6,71,84,190
6,75,79,4
6,75,87,33
6,75,87,179
6,73,87,97
6,71,73,159
6,73,84,98
6,73,87,293
6,75,79,101
6,76,76,11
6,76,79,40
6,76,68,34
6,76,79,38
6,76,76,30
6,75,87,9
6,73,79,292
6,75,84,179
6,71,84,880
6,75,87,107
6,73,87,171
6,71,84,171
6,71,82,46
6,75,84,105
6,73,84,175
6,71,71,158
6,71,64,53
6,73,79,97
6,73,61,30
6,68,73,8
6,73,76,94
6,66,67,185
6,70,87,98
6,70,71,39
6,70,87,43
6,68,79,192
6,66,95,81
6,75,76,878
6,75,84,52
6,76,66,190
6,75,79,102
6,70,68,7
6,70,79,47
6,71,79,189
6,75,82,7
6,75,87,54
6,75,95,54
6,75,91,69
6,73,87,29
6,71,73,2
6,73,87,106
6,73,79,34
6,73,73,451
6,73,87,63
6,75,82,102
6,76,76,1
6,76,79,29
6,76,66,145
6,76,87,62
6,76,64,48
