track,note,velocity,time
0,31,110,772
0,31,120,114
0,31,120,120
0,31,126,120
0,43,126,56
0,60,126,10
0,76,68,0
0,35,119,0
0,57,126,0
0,76,64,0
0,48,106,0
0,42,119,0
0,55,106,0
0,36,106,1
0,64,120,0
0,36,126,1
0,55,62,1
0,76,64,1
0,60,126,32
0,64,120,0
0,55,92,0
0,38,119,3
0,42,119,0
0,55,68,1
0,36,126,9
0,74,62,9
0,74,64,0
0,62,106,13
0,55,88,0
0,59,100,0
0,43,106,1
0,35,119,0
0,42,119,0
0,31,126,5
0,74,64,21
0,55,18,2
0,62,120,50
0,55,100,0
0,59,116,0
0,38,119,2
0,42,119,0
0,43,126,20
0,57,46,11
0,43,126,17
0,65,116,2
0,29,126,0
0,41,126,0
0,60,116,0
0,57,92,0
0,72,58,1
0,35,119,0
0,57,126,0
0,72,64,0
0,42,119,0
0,71,64,4
0,65,120,63
0,60,126,0
0,57,96,0
0,38,119,1
0,42,119,0
0,69,64,0
0,57,66,10
0,67,64,1
0,29,126,1
0,71,64,19
0,55,116,2
0,43,110,0
0,59,110,0
0,62,110,0
0,74,62,2
0,35,119,0
0,42,119,0
0,31,120,3
0,43,116,6
0,62,126,47
0,59,120,0
0,55,110,0
0,43,126,1
0,38,119,0
0,42,119,0
0,55,78,25
0,55,96,3
0,36,106,1
0,64,120,0
0,48,96,0
0,60,120,0
0,76,78,1
0,35,119,0
0,57,126,0
0,42,119,0
0,36,126,2
0,76,64,4
0,55,22,2
0,76,64,8
0,60,126,65
0,64,120,0
0,55,116,0
0,38,119,1
0,42,119,0
0,55,78,4
0,74,64,7
0,36,126,7
0,59,110,14
0,55,80,0
0,43,100,1
0,62,96,0
0,74,58,1
0,35,119,0
0,42,119,0
0,31,126,5
0,74,64,2
0,43,126,8
0,62,120,41
0,59,126,0
0,55,106,0
0,43,126,1
0,38,119,1
0,42,119,0
0,72,64,4
0,60,110,5
0,29,126,0
0,72,70,1
0,35,119,0
0,57,126,0
0,42,119,0
0,65,110,1
0,41,126,0
0,57,88,0
0,65,120,55
0,60,116,0
0,57,88,0
0,38,119,3
0,42,119,0
0,69,64,0
0,57,84,10
0,69,64,0
0,29,126,7
0,60,92,17
0,59,126,18
0,43,116,0
0,62,120,0
0,55,106,0
0,74,70,1
0,35,119,0
0,42,119,0
0,31,120,3
0,67,64,12
0,43,120,11
0,55,116,46
0,62,120,0
0,59,120,0
0,38,119,2
0,42,119,0
0,43,126,1
0,76,64,4
0,76,78,8
0,35,119,0
0,57,126,0
0,42,119,0
0,36,110,1
0,64,110,0
0,55,106,0
0,48,96,0
0,60,92,0
0,36,126,1
0,76,64,8
0,55,116,77
0,38,119,0
0,42,119,0
0,64,120,1
0,60,126,0
0,55,78,0
0,74,64,7
0,36,126,12
0,59,110,34
0,55,100,0
0,62,106,0
0,43,120,0
0,74,58,1
0,35,119,0
0,42,119,0
0,31,126,6
0,74,64,14
0,43,126,7
0,55,120,38
0,62,126,0
0,59,126,0
0,43,126,1
0,38,119,1
0,42,119,0
0,72,50,8
0,29,126,0
0,35,119,0
0,57,126,0
0,42,119,0
0,65,116,2
0,41,126,0
0,60,116,0
0,57,100,0
0,72,64,3
0,71,64,2
0,65,120,70
0,38,119,0
0,60,126,0
0,42,119,0
0,57,110,0
0,69,64,4
0,57,78,25
0,67,64,10
0,29,126,4
0,71,64,14
0,59,126,4
0,62,120,0
0,55,126,0
0,43,126,0
0,74,56,1
0,35,119,0
0,42,119,0
0,31,120,10
0,43,126,103
0,55,120,36
0,43,126,0
0,62,126,0
0,59,126,0
0,38,119,2
0,42,119,0
0,76,66,0
0,43,92,0
0,64,70,0
0,36,116,1
0,60,78,26
0,64,88,0
0,55,78,0
0,60,100,127
0,55,96,2
0,64,110,0
0,43,80,122
0,62,44,2
0,84,74,7
0,43,84,0
0,43,116,5
0,83,60,13
0,55,70,34
0,62,70,1
0,59,74,0
0,83,74,3
0,55,96,148
0,59,100,0
0,62,106,2
0,64,66,3
0,60,60,1
0,36,92,5
0,43,116,11
0,60,78,135
0,55,74,0
0,64,84,0
0,55,84,129
0,64,100,0
0,60,88,1
0,43,66,126
0,72,44,22
0,62,58,1
0,43,88,5
0,43,106,1
0,71,66,22
0,62,84,54
0,55,66,1
0,59,70,1
0,71,62,9
0,62,88,119
0,59,80,1
0,55,78,0
0,43,58,68
0,76,48,1
0,36,80,2
0,43,100,11
0,64,66,5
0,60,88,79
0,55,74,1
0,64,88,1
0,64,100,128
0,55,92,1
0,60,84,1
0,43,70,138
0,62,34,0
0,84,56,8
0,43,80,0
0,43,116,2
0,83,16,7
0,62,34,52
0,59,50,5
0,55,8,0
0,83,58,14
0,62,58,127
0,55,46,1
0,59,60,1
0,62,66,0
0,59,44,0
0,71,64,0
0,59,68,1
0,67,80,0
0,43,84,0
0,71,64,44
0,62,80,52
0,59,66,1
0,67,70,0
0,71,64,18
0,62,78,79
0,59,60,0
0,67,80,0
0,71,64,19
0,62,84,78
0,59,78,0
0,67,88,0
0,59,58,28
0,66,64,16
0,62,74,1
0,59,70,0
0,66,72,0
0,47,80,1
0,71,64,2
0,71,64,11
0,66,52,72
0,59,60,1
0,62,66,1
0,71,64,26
0,69,64,0
0,66,64,16
0,62,78,1
0,59,70,0
0,71,64,9
0,66,78,12
0,62,96,2
0,59,78,1
0,56,64,46
0,44,60,0
0,68,88,1
0,59,56,1
0,62,58,1
0,52,60,0
0,71,64,3
0,71,64,7
0,56,60,71
0,52,62,1
0,62,60,1
0,59,68,0
0,71,64,51
0,62,78,14
0,56,60,0
0,59,66,0
0,52,74,0
0,71,64,13
0,72,64,23
0,56,116,5
0,59,70,1
0,62,74,2
0,71,64,5
0,69,64,7
0,60,80,3
0,45,80,0
0,64,68,1
0,57,74,0
0,64,66,3
0,60,88,123
0,57,88,1
0,64,78,0
0,57,84,143
0,60,78,0
0,64,70,1
0,57,78,84
0,60,62,0
0,64,70,1
0,38,88,10
0,50,62,0
0,57,54,0
0,60,68,1
0,66,56,0
0,54,78,0
0,69,64,4
0,69,64,17
0,54,64,66
0,57,66,0
0,50,68,0
0,60,58,2
0,69,64,63
0,57,80,51
0,54,88,0
0,60,74,1
0,69,64,9
0,57,80,15
0,54,110,0
0,60,100,1
0,69,64,29
0,55,44,13
0,59,78,0
0,43,80,0
0,62,88,1
0,55,92,0
0,59,66,1
0,71,64,5
0,71,64,22
0,55,78,30
0,71,64,0
0,62,80,0
0,59,70,0
0,69,64,20
0,55,78,28
0,62,84,0
0,59,78,0
0,71,64,2
0,71,64,19
0,59,100,11
0,55,100,0
0,62,110,0
0,59,66,4
0,71,64,12
0,47,68,3
0,71,64,0
0,66,78,0
0,59,84,1
0,62,92,0
0,66,64,0
0,71,64,20
0,66,72,33
0,59,88,1
0,71,64,5
0,71,64,22
0,59,78,1
0,62,88,0
0,66,72,0
0,74,64,4
0,76,64,19
0,66,102,47
0,62,100,0
0,59,88,2
0,59,62,5
0,76,64,15
0,52,88,25
0,67,92,1
0,64,80,0
0,59,92,0
0,67,68,2
0,59,96,116
0,64,84,0
0,67,96,1
0,67,96,125
0,64,78,0
0,59,84,0
0,64,100,53
0,59,96,0
0,67,106,1
0,76,64,7
0,74,64,13
0,59,110,1
0,47,92,16
0,59,68,0
0,66,82,0
0,62,78,1
0,59,84,86
0,66,78,0
0,62,88,1
0,66,78,131
0,62,84,2
0,59,78,0
0,59,110,21
0,66,110,1
0,59,88,1
0,71,64,0
0,62,106,0
0,57,66,27
0,69,64,8
0,57,74,22
0,50,96,26
0,66,82,0
0,62,88,1
0,62,88,101
0,66,78,0
0,57,88,0
0,62,96,143
0,57,84,0
0,66,72,0
0,66,68,2
0,57,80,1
0,62,80,1
0,59,68,24
0,59,60,0
0,67,106,0
0,43,96,0
0,62,92,0
0,55,92,1
0,71,64,7
0,71,64,32
0,62,92,64
0,59,78,0
0,67,88,0
0,71,64,26
0,62,84,69
0,59,70,0
0,67,88,0
0,71,64,32
0,62,92,4
0,67,96,0
0,59,84,1
0,59,84,6
0,54,110,2
0,47,84,0
0,66,116,0
0,59,106,0
0,62,96,0
0,66,64,1
0,71,64,13
0,71,64,28
0,66,68,58
0,59,74,1
0,62,74,1
0,71,64,47
0,69,64,14
0,66,78,29
0,59,78,1
0,62,74,0
0,71,64,3
0,66,126,8
0,62,96,1
0,59,88,0
0,52,78,0
0,53,116,2
0,56,82,16
0,62,74,1
0,59,80,0
0,44,126,0
0,68,60,1
0,71,64,1
0,71,64,13
0,56,88,73
0,59,74,1
0,62,78,0
0,71,64,63
0,59,70,3
0,56,72,0
0,62,70,1
0,71,64,25
0,72,64,29
0,56,126,3
0,62,106,1
0,59,92,0
0,71,64,33
0,57,92,18
0,69,64,0
0,64,84,0
0,60,84,0
0,45,92,0
0,64,116,1
0,60,70,2
0,62,96,6
0,57,80,18
0,60,84,0
0,64,80,1
0,60,106,139
0,60,84,0
0,57,80,0
0,64,74,1
0,59,100,139
0,57,100,8
0,60,126,0
0,64,110,0
0,57,110,14
0,57,106,3
0,66,56,4
0,66,96,1
0,50,88,0
0,62,80,1
0,69,64,7
0,69,64,13
0,57,84,58
0,66,68,0
0,69,64,49
0,57,80,69
0,66,78,0
0,62,88,1
0,69,64,14
0,57,92,66
0,62,110,0
0,66,116,0
0,57,100,6
0,69,64,25
0,67,92,21
0,62,80,0
0,43,84,1
0,59,56,1
0,71,64,4
0,71,64,4
0,59,70,3
0,62,78,0
0,67,88,0
0,71,64,1
0,69,64,6
0,59,70,29
0,62,92,0
0,67,92,0
0,71,64,6
0,62,126,25
0,59,116,0
0,67,126,0
0,71,64,19
0,59,106,19
0,66,78,25
0,47,88,0
0,62,100,1
0,66,64,1
0,71,64,2
0,71,64,22
0,66,88,35
0,62,92,0
0,59,68,2
0,71,64,1
0,71,64,2
0,74,64,41
0,62,88,2
0,66,110,0
0,59,88,1
0,76,64,18
0,66,126,76
0,62,120,0
0,59,68,3
0,62,62,1
0,76,64,6
0,67,100,13
0,59,92,0
0,52,88,0
0,64,96,0
0,67,60,4
0,59,96,106
0,64,106,0
0,67,110,0
0,67,84,127
0,64,96,0
0,59,96,0
0,64,120,128
0,67,120,1
0,59,116,0
0,59,116,35
0,74,66,16
0,78,102,0
0,74,84,0
0,83,92,0
0,66,96,1
0,62,96,1
0,47,84,0
0,74,64,20
0,59,88,58
0,66,82,0
0,62,92,0
0,78,86,1
0,83,108,0
0,74,86,0
0,76,64,9
0,74,64,12
0,59,88,8
0,66,116,0
0,62,96,0
0,74,88,2
0,78,98,0
0,83,108,0
0,76,64,9
0,62,116,83
0,66,126,0
0,78,108,1
0,83,108,0
0,74,92,0
0,69,64,11
0,59,84,10
0,71,64,29
0,76,70,9
0,59,106,22
0,64,100,1
0,83,96,0
0,67,116,0
0,76,78,0
0,79,110,0
0,52,80,1
0,76,82,113
0,83,108,0
0,79,104,0
0,67,96,1
0,59,88,0
0,64,88,0
0,64,100,136
0,59,96,0
0,67,100,1
0,76,86,0
0,83,108,0
0,79,108,0
0,83,110,140
0,76,92,0
0,79,110,0
0,67,120,2
0,59,116,0
0,64,116,0
0,67,100,1
0,59,88,2
0,59,106,46
0,74,54,13
0,66,110,17
0,62,96,1
0,59,74,0
0,47,92,0
0,78,94,1
0,74,88,0
0,83,104,0
0,62,96,116
0,59,88,0
0,66,88,0
0,74,92,3
0,78,98,0
0,83,108,0
0,71,64,31
0,78,108,54
0,83,104,0
0,74,88,0
0,59,92,1
0,62,106,0
0,66,110,0
0,74,64,13
0,76,64,39
0,62,120,48
0,59,92,0
0,66,126,0
0,78,118,1
0,83,110,0
0,74,104,0
0,62,84,5
0,59,78,0
0,76,64,22
0,76,74,4
0,52,84,8
0,59,106,0
0,64,88,0
0,67,100,1
0,83,92,2
0,76,78,0
0,79,110,0
0,64,92,127
0,59,106,0
0,67,100,1
0,79,122,2
0,83,114,0
0,76,88,0
0,67,110,142
0,64,106,0
0,59,96,0
0,79,118,2
0,83,118,0
0,76,92,0
0,59,116,124
0,64,126,0
0,67,126,1
0,83,108,1
0,76,96,0
0,79,118,0
0,59,96,9
0,67,106,0
0,59,116,42
0,74,70,3
0,66,126,33
0,47,84,1
0,59,74,0
0,62,100,0
0,78,118,1
0,83,100,0
0,74,108,0
0,66,126,113
0,62,106,1
0,59,92,0
0,78,126,2
0,83,114,0
0,74,108,0
0,74,64,22
0,66,116,13
0,59,96,0
0,62,106,0
0,76,64,1
0,78,108,1
0,83,110,0
0,74,100,0
0,74,64,2
0,62,116,14
0,66,126,0
0,78,112,1
0,74,108,0
0,83,104,0
0,69,64,6
0,66,88,36
0,59,92,1
0,62,100,1
0,59,92,1
0,71,64,26
0,76,68,5
0,59,106,18
0,64,84,0
0,52,84,0
0,67,116,0
0,79,114,4
0,76,90,0
0,83,108,0
0,76,84,0
0,64,110,102
0,67,116,0
0,59,100,0
0,76,66,1
0,83,118,1
0,76,98,0
0,79,126,0
0,59,106,128
0,64,110,0
0,67,110,1
0,76,90,1
0,83,108,0
0,79,114,0
0,64,110,100
0,59,106,0
0,67,120,1
0,83,114,0
0,76,62,0
0,79,127,0
0,76,98,0
0,59,110,13
0,67,120,1
0,59,100,44
0,74,54,5
0,74,78,6
0,52,66,3
0,62,100,1
0,66,126,0
0,59,92,1
0,47,92,0
0,78,127,1
0,83,108,0
0,74,104,0
0,74,84,115
0,59,92,6
0,66,126,0
0,83,114,1
0,78,127,0
0,74,110,0
0,62,92,1
0,71,64,25
0,66,126,70
0,62,106,1
0,78,127,0
0,83,110,0
0,74,114,0
0,59,100,1
0,74,64,2
0,76,64,35
0,78,127,58
0,83,110,0
0,74,114,0
0,59,92,1
0,66,126,0
0,62,116,1
0,62,88,28
0,76,64,14
0,76,70,3
0,76,74,11
0,60,100,1
0,64,88,0
0,48,106,0
0,67,100,1
0,76,104,1
0,48,70,0
0,79,122,0
0,64,78,0
0,72,108,0
0,36,126,0
0,55,88,1
0,76,54,113
0,64,92,1
0,60,84,0
0,67,110,0
0,76,114,1
0,72,104,0
0,79,126,0
0,36,126,23
0,55,96,8
0,74,64,12
0,36,126,71
0,60,96,3
0,64,100,2
0,60,96,0
0,67,106,1
0,72,110,1
0,76,64,0
0,76,122,0
0,79,122,0
0,74,64,3
0,76,62,15
0,69,64,2
0,55,68,2
0,60,100,2
0,64,116,0
0,67,120,0
0,72,114,1
0,76,126,0
0,79,127,0
0,67,96,2
0,60,78,0
0,71,64,2
0,64,56,3
0,71,80,9
0,74,80,4
0,43,88,3
0,31,126,0
0,62,84,2
0,67,84,4
0,59,96,1
0,43,110,0
0,62,88,0
0,79,127,1
0,74,126,0
0,71,110,0
0,74,74,22
0,74,118,14
0,79,127,0
0,71,110,0
0,62,100,1
0,67,100,0
0,59,96,0
0,55,110,23
0,31,126,0
0,71,64,1
0,31,126,48
0,62,110,4
0,59,62,0
0,59,106,0
0,67,106,0
0,79,127,1
0,71,108,0
0,74,122,0
0,71,64,2
0,71,64,6
0,74,64,14
0,79,126,4
0,71,100,0
0,74,126,0
0,62,126,1
0,59,110,0
0,67,126,0
0,55,38,5
0,76,64,24
0,55,22,1
0,62,100,42
0,67,68,2
0,76,80,7
0,76,66,3
0,64,84,5
0,64,92,2
0,36,126,0
0,48,100,0
0,60,100,0
0,67,92,1
0,72,118,1
0,76,118,0
0,79,126,0
0,48,68,1
0,74,64,5
0,76,64,8
0,76,54,18
0,67,96,4
0,60,92,0
0,64,84,0
0,79,122,1
0,76,110,0
0,72,108,0
0,55,110,40
0,36,126,2
0,74,64,2
0,76,64,10
0,64,78,4
0,36,126,5
0,64,106,1
0,60,96,0
0,67,106,0
0,76,122,1
0,72,110,0
0,79,127,0
0,74,64,12
0,76,66,16
0,69,64,1
0,60,96,5
0,64,100,0
0,67,110,1
0,55,74,1
0,72,110,1
0,76,114,0
0,79,127,0
0,62,70,2
0,60,70,6
0,71,64,21
0,67,80,1
0,64,26,1
