track,note,velocity,time
1,81,100,21696
1,79,100,4
1,81,100,4
1,79,100,4
1,81,100,4
1,79,100,4
1,81,100,4
1,79,100,4
1,76,100,4
1,74,100,4
1,72,100,4
1,74,100,4
1,74,100,4
1,81,100,4
1,79,100,4
1,77,100,4
1,81,100,2500
1,79,100,4
1,81,100,4
1,79,100,4
1,81,100,4
1,79,100,4
1,81,100,4
1,79,100,4
1,76,100,4
1,74,100,4
1,72,100,4
1,74,100,4
1,74,100,4
1,81,100,4
1,79,100,4
1,77,100,4
1,72,100,1348
1,74,100,4
1,74,100,4
1,76,100,4
1,74,100,4
1,77,100,4
1,77,100,4
1,69,100,1732
1,72,100,4
1,72,100,4
1,72,100,4
1,74,100,4
1,72,100,4
1,69,100,4
1,67,100,4
1,76,100,964
1,76,100,4
1,76,100,4
1,76,100,4
1,74,100,4
1,77,100,4
1,77,100,4
1,69,100,1732
1,72,100,4
1,72,100,4
1,72,100,4
1,74,100,4
1,72,100,4
1,69,100,4
1,67,100,4
1,76,100,964
1,76,100,4
1,76,100,4
1,76,100,4
1,74,100,4
1,77,100,4
1,77,100,4
1,69,100,1732
1,72,100,4
1,72,100,4
1,72,100,4
1,74,100,4
1,72,100,4
1,69,100,4
1,67,100,4
1,76,100,964
1,76,100,4
1,76,100,4
1,76,100,4
1,74,100,4
1,77,100,4
1,77,100,4
1,69,100,1732
1,72,100,4
1,72,100,4
1,72,100,4
1,74,100,4
1,72,100,4
1,69,100,4
1,67,100,4
1,81,100,2116
1,79,100,4
1,81,100,4
1,79,100,4
1,81,100,4
1,79,100,4
1,81,100,4
1,79,100,4
1,76,100,4
1,74,100,4
1,72,100,4
1,74,100,4
1,74,100,4
1,81,100,4
1,79,100,4
1,77,100,4
1,81,100,2500
1,79,100,4
1,81,100,4
1,79,100,4
1,81,100,4
1,79,100,4
1,81,100,4
1,79,100,4
1,76,100,4
1,74,100,4
1,72,100,4
1,74,100,4
1,74,100,4
1,81,100,4
1,79,100,4
1,77,100,4
1,72,100,1348
1,74,100,4
1,74,100,4
1,76,100,4
1,74,100,4
1,77,100,4
1,77,100,4
1,69,100,1732
1,72,100,4
1,72,100,4
1,72,100,4
1,74,100,4
1,72,100,4
1,69,100,4
1,67,100,4
1,76,100,964
1,76,100,4
1,76,100,4
1,76,100,4
1,74,100,4
1,77,100,4
1,77,100,4
1,69,100,1732
1,72,100,4
1,72,100,4
1,72,100,4
1,74,100,4
1,72,100,4
1,69,100,4
1,67,100,4
1,76,100,964
1,76,100,4
1,76,100,4
1,76,100,4
1,74,100,4
1,77,100,4
1,77,100,4
1,69,100,1732
1,72,100,4
1,72,100,4
1,72,100,4
1,74,100,4
1,72,100,4
1,69,100,4
1,67,100,4
1,76,100,964
1,76,100,4
1,76,100,4
1,76,100,4
1,74,100,4
1,77,100,4
1,77,100,4
1,69,100,1732
1,72,100,4
1,72,100,4
1,72,100,4
1,74,100,4
1,72,100,4
1,69,100,4
1,67,100,4
1,81,100,1732
1,82,100,4
1,81,100,4
1,81,100,196
1,82,100,4
1,81,100,4
1,81,100,196
1,81,100,4
1,79,100,4
1,79,100,196
1,81,100,4
1,79,100,4
1,79,100,4
1,79,100,4
1,79,100,4
1,81,100,4
1,79,100,4
1,77,100,4
1,81,100,2116
1,82,100,4
1,81,100,4
1,81,100,196
1,82,100,4
1,81,100,4
1,81,100,196
1,81,100,4
1,79,100,4
1,79,100,196
1,81,100,4
1,79,100,4
1,79,100,4
1,79,100,4
1,79,100,4
1,81,100,4
1,79,100,4
1,77,100,4
1,74,100,10564
1,74,100,4
1,74,100,4
1,76,100,4
1,74,100,4
1,77,100,4
1,77,100,0
1,77,100,4
1,77,100,0
1,69,100,1732
1,72,100,4
1,72,100,4
1,72,100,4
1,74,100,4
1,72,100,4
1,69,100,4
1,67,100,4
1,76,100,964
1,76,100,4
1,76,100,4
1,76,100,4
1,74,100,4
1,77,100,4
1,77,100,0
1,77,100,4
1,77,100,0
1,69,100,1732
1,72,100,4
1,72,100,4
1,72,100,4
1,74,100,4
1,72,100,4
1,69,100,4
1,67,100,4
1,76,100,964
1,76,100,4
1,76,100,4
1,76,100,4
1,74,100,4
1,77,100,4
1,77,100,0
1,77,100,4
1,77,100,0
1,69,100,1732
1,72,100,4
1,72,100,4
1,72,100,4
1,74,100,4
1,72,100,4
1,69,100,4
1,67,100,4
1,76,100,964
1,76,100,4
1,76,100,4
1,76,100,4
1,74,100,4
1,77,100,4
1,77,100,0
1,77,100,4
1,77,100,0
1,69,100,1732
1,72,100,4
1,72,100,4
1,72,100,4
1,74,100,4
1,72,100,4
1,69,100,4
1,67,100,4
1,76,100,964
1,76,100,4
1,76,100,4
1,76,100,4
1,74,100,4
1,77,100,4
1,77,100,0
1,77,100,4
1,77,100,0
1,69,100,1732
1,72,100,4
1,72,100,4
1,72,100,4
1,74,100,4
1,72,100,4
1,69,100,4
1,67,100,4
1,76,100,964
1,76,100,4
1,76,100,4
1,76,100,4
1,74,100,4
1,77,100,4
1,77,100,0
1,77,100,4
1,77,100,0
1,69,100,1732
1,72,100,4
1,72,100,4
1,72,100,4
1,74,100,4
1,72,100,4
1,69,100,4
1,67,100,4
1,76,100,580
1,76,100,4
1,76,100,4
1,76,100,4
1,76,100,4
1,74,100,4
1,77,100,4
1,77,100,4
1,77,100,0
1,69,100,1732
1,72,100,4
1,72,100,4
1,72,100,4
1,74,100,4
1,72,100,4
1,69,100,4
1,67,100,4
1,81,100,1732
1,82,100,4
1,81,100,4
1,81,100,196
1,82,100,4
1,81,100,4
1,81,100,196
1,81,100,4
1,79,100,4
1,79,100,196
1,81,100,4
1,79,100,4
1,79,100,4
1,79,100,4
1,79,100,4
1,81,100,4
1,79,100,4
1,77,100,4
1,81,100,2116
1,82,100,4
1,81,100,4
1,81,100,196
1,82,100,4
1,81,100,4
1,81,100,196
1,81,100,4
1,79,100,4
1,79,100,196
1,81,100,4
1,79,100,4
1,79,100,4
1,79,100,4
1,79,100,4
1,81,100,4
1,79,100,4
1,77,100,4
1,77,100,2116
1,81,100,0
1,79,100,4
1,82,100,0
1,77,100,4
1,81,100,0
1,77,100,196
1,81,100,0
1,79,100,4
1,82,100,0
1,77,100,4
1,81,100,0
1,77,100,196
1,81,100,0
1,77,100,4
1,81,100,0
1,76,100,4
1,79,100,0
1,76,100,196
1,79,100,0
1,77,100,4
1,81,100,0
1,76,100,4
1,79,100,0
1,76,100,4
1,79,100,0
1,76,100,4
1,79,100,0
1,76,100,4
1,79,100,0
1,77,100,4
1,81,100,0
1,76,100,4
1,79,100,0
1,74,100,4
1,77,100,0
2,62,100,6144
2,67,100,0
2,69,100,0
2,62,100,9412
2,67,100,0
2,69,100,0
2,62,100,4
2,67,100,0
2,69,100,0
2,62,100,4
2,67,100,0
2,69,100,0
2,62,100,4
2,67,100,0
2,69,100,0
2,62,100,196
2,65,100,0
2,69,100,0
2,62,100,4
2,65,100,0
2,69,100,0
2,62,100,4
2,65,100,0
2,69,100,0
2,62,100,4
2,65,100,0
2,69,100,0
2,62,100,196
2,64,100,0
2,67,100,0
2,62,100,4
2,64,100,0
2,67,100,0
2,62,100,4
2,64,100,0
2,67,100,0
2,62,100,4
2,64,100,0
2,67,100,0
2,60,100,196
2,64,100,0
2,67,100,0
2,60,100,4
2,64,100,0
2,67,100,0
2,60,100,4
2,64,100,0
2,67,100,0
2,60,100,4
2,64,100,0
2,67,100,0
2,62,100,196
2,67,100,0
2,69,100,0
2,62,100,4
2,67,100,0
2,69,100,0
2,62,100,4
2,67,100,0
2,69,100,0
2,62,100,4
2,67,100,0
2,69,100,0
2,62,100,196
2,65,100,0
2,69,100,0
2,62,100,4
2,65,100,0
2,69,100,0
2,62,100,4
2,65,100,0
2,69,100,0
2,62,100,4
2,65,100,0
2,69,100,0
2,62,100,196
2,64,100,0
2,67,100,0
2,62,100,4
2,64,100,0
2,67,100,0
2,62,100,4
2,64,100,0
2,67,100,0
2,62,100,4
2,64,100,0
2,67,100,0
2,60,100,196
2,64,100,0
2,67,100,0
2,60,100,4
2,64,100,0
2,67,100,0
2,60,100,4
2,64,100,0
2,67,100,0
2,60,100,4
2,64,100,0
2,67,100,0
2,62,100,196
2,67,100,0
2,69,100,0
2,62,100,4
2,67,100,0
2,69,100,0
2,62,100,4
2,67,100,0
2,69,100,0
2,62,100,4
2,67,100,0
2,69,100,0
2,62,100,196
2,65,100,0
2,69,100,0
2,62,100,4
2,65,100,0
2,69,100,0
2,62,100,4
2,65,100,0
2,69,100,0
2,62,100,4
2,65,100,0
2,69,100,0
2,62,100,196
2,64,100,0
2,67,100,0
2,62,100,4
2,64,100,0
2,67,100,0
2,62,100,4
2,64,100,0
2,67,100,0
2,62,100,4
2,64,100,0
2,67,100,0
2,60,100,196
2,64,100,0
2,67,100,0
2,60,100,4
2,64,100,0
2,67,100,0
2,60,100,4
2,64,100,0
2,67,100,0
2,60,100,4
2,64,100,0
2,67,100,0
2,62,100,196
2,67,100,0
2,69,100,0
2,62,100,4
2,67,100,0
2,69,100,0
2,62,100,4
2,67,100,0
2,69,100,0
2,62,100,4
2,67,100,0
2,69,100,0
2,62,100,196
2,65,100,0
2,69,100,0
2,62,100,4
2,65,100,0
2,69,100,0
2,62,100,4
2,65,100,0
2,69,100,0
2,62,100,4
2,65,100,0
2,69,100,0
2,62,100,196
2,64,100,0
2,67,100,0
2,62,100,4
2,64,100,0
2,67,100,0
2,62,100,4
2,64,100,0
2,67,100,0
2,62,100,4
2,64,100,0
2,67,100,0
2,60,100,196
2,64,100,0
2,67,100,0
2,60,100,0
2,64,100,0
2,67,100,0
2,60,100,4
2,64,100,0
2,67,100,0
2,60,100,0
2,64,100,0
2,67,100,0
2,60,100,4
2,64,100,0
2,67,100,0
2,60,100,0
2,64,100,0
2,67,100,0
2,60,100,4
2,64,100,0
2,67,100,0
2,60,100,0
2,64,100,0
2,67,100,0
2,62,100,196
2,67,100,0
2,69,100,0
2,62,100,4
2,67,100,0
2,69,100,0
2,62,100,4
2,67,100,0
2,69,100,0
2,62,100,4
2,67,100,0
2,69,100,0
2,62,100,196
2,65,100,0
2,69,100,0
2,62,100,4
2,65,100,0
2,69,100,0
2,62,100,4
2,65,100,0
2,69,100,0
2,62,100,4
2,65,100,0
2,69,100,0
2,62,100,196
2,64,100,0
2,67,100,0
2,62,100,4
2,64,100,0
2,67,100,0
2,62,100,4
2,64,100,0
2,67,100,0
2,62,100,4
2,64,100,0
2,67,100,0
2,60,100,196
2,64,100,0
2,67,100,0
2,60,100,0
2,64,100,0
2,67,100,0
2,60,100,4
2,64,100,0
2,67,100,0
2,60,100,0
2,64,100,0
2,67,100,0
2,60,100,4
2,64,100,0
2,67,100,0
2,60,100,0
2,64,100,0
2,67,100,0
2,60,100,4
2,64,100,0
2,67,100,0
2,60,100,0
2,64,100,0
2,67,100,0
2,62,100,196
2,67,100,0
2,69,100,0
2,62,100,4
2,67,100,0
2,69,100,0
2,62,100,4
2,67,100,0
2,69,100,0
2,62,100,4
2,67,100,0
2,69,100,0
2,62,100,196
2,65,100,0
2,69,100,0
2,62,100,4
2,65,100,0
2,69,100,0
2,62,100,4
2,65,100,0
2,69,100,0
2,62,100,4
2,65,100,0
2,69,100,0
2,62,100,196
2,64,100,0
2,67,100,0
2,62,100,4
2,64,100,0
2,67,100,0
2,62,100,4
2,64,100,0
2,67,100,0
2,62,100,4
2,64,100,0
2,67,100,0
2,60,100,196
2,64,100,0
2,67,100,0
2,60,100,4
2,64,100,0
2,67,100,0
2,60,100,4
2,64,100,0
2,67,100,0
2,60,100,4
2,64,100,0
2,67,100,0
2,62,100,196
2,67,100,0
2,69,100,0
2,62,100,4
2,67,100,0
2,69,100,0
2,62,100,4
2,67,100,0
2,69,100,0
2,62,100,4
2,67,100,0
2,69,100,0
2,62,100,196
2,65,100,0
2,69,100,0
2,62,100,4
2,65,100,0
2,69,100,0
2,62,100,4
2,65,100,0
2,69,100,0
2,62,100,4
2,65,100,0
2,69,100,0
2,62,100,196
2,64,100,0
2,67,100,0
2,62,100,4
2,64,100,0
2,67,100,0
2,62,100,4
2,64,100,0
2,67,100,0
2,62,100,4
2,64,100,0
2,67,100,0
2,60,100,196
2,64,100,0
2,67,100,0
2,60,100,4
2,64,100,0
2,67,100,0
2,60,100,4
2,64,100,0
2,67,100,0
2,60,100,4
2,64,100,0
2,67,100,0
2,62,100,196
2,67,100,0
2,69,100,0
2,62,100,4
2,67,100,0
2,69,100,0
2,62,100,4
2,67,100,0
2,69,100,0
2,62,100,4
2,67,100,0
2,69,100,0
2,62,100,196
2,65,100,0
2,69,100,0
2,62,100,4
2,65,100,0
2,69,100,0
2,62,100,4
2,65,100,0
2,69,100,0
2,62,100,4
2,65,100,0
2,69,100,0
2,62,100,196
2,64,100,0
2,67,100,0
2,62,100,4
2,64,100,0
2,67,100,0
2,62,100,4
2,64,100,0
2,67,100,0
2,62,100,4
2,64,100,0
2,67,100,0
2,60,100,196
2,64,100,0
2,67,100,0
2,60,100,4
2,64,100,0
2,67,100,0
2,60,100,4
2,64,100,0
2,67,100,0
2,60,100,4
2,64,100,0
2,67,100,0
2,62,100,196
2,67,100,0
2,69,100,0
2,62,100,4
2,67,100,0
2,69,100,0
2,62,100,4
2,67,100,0
2,69,100,0
2,62,100,4
2,67,100,0
2,69,100,0
2,62,100,196
2,65,100,0
2,69,100,0
2,62,100,4
2,65,100,0
2,69,100,0
2,62,100,4
2,65,100,0
2,69,100,0
2,62,100,4
2,65,100,0
2,69,100,0
2,62,100,196
2,64,100,0
2,67,100,0
2,62,100,4
2,64,100,0
2,67,100,0
2,62,100,4
2,64,100,0
2,67,100,0
2,62,100,4
2,64,100,0
2,67,100,0
2,60,100,196
2,64,100,0
2,67,100,0
2,60,100,4
2,64,100,0
2,67,100,0
2,60,100,4
2,64,100,0
2,67,100,0
2,60,100,4
2,64,100,0
2,67,100,0
2,62,100,196
2,67,100,0
2,69,100,0
2,62,100,4
2,67,100,0
2,69,100,0
2,62,100,4
2,67,100,0
2,69,100,0
2,62,100,4
2,67,100,0
2,69,100,0
2,62,100,196
2,65,100,0
2,69,100,0
2,62,100,4
2,65,100,0
2,69,100,0
2,62,100,4
2,65,100,0
2,69,100,0
2,62,100,4
2,65,100,0
2,69,100,0
2,62,100,196
2,64,100,0
2,67,100,0
2,62,100,4
2,64,100,0
2,67,100,0
2,62,100,4
2,64,100,0
2,67,100,0
2,62,100,4
2,64,100,0
2,67,100,0
2,60,100,196
2,64,100,0
2,67,100,0
2,60,100,0
2,64,100,0
2,67,100,0
2,60,100,4
2,64,100,0
2,67,100,0
2,60,100,0
2,64,100,0
2,67,100,0
2,60,100,4
2,64,100,0
2,67,100,0
2,60,100,0
2,64,100,0
2,67,100,0
2,60,100,4
2,64,100,0
2,67,100,0
2,60,100,0
2,64,100,0
2,67,100,0
2,62,100,196
2,67,100,0
2,69,100,0
2,62,100,4
2,67,100,0
2,69,100,0
2,62,100,4
2,67,100,0
2,69,100,0
2,62,100,4
2,67,100,0
2,69,100,0
2,62,100,196
2,65,100,0
2,69,100,0
2,62,100,4
2,65,100,0
2,69,100,0
2,62,100,4
2,65,100,0
2,69,100,0
2,62,100,4
2,65,100,0
2,69,100,0
2,62,100,196
2,64,100,0
2,67,100,0
2,62,100,4
2,64,100,0
2,67,100,0
2,62,100,4
2,64,100,0
2,67,100,0
2,62,100,4
2,64,100,0
2,67,100,0
2,60,100,196
2,64,100,0
2,67,100,0
2,60,100,0
2,64,100,0
2,67,100,0
2,60,100,4
2,64,100,0
2,67,100,0
2,60,100,0
2,64,100,0
2,67,100,0
2,60,100,4
2,64,100,0
2,67,100,0
2,60,100,0
2,64,100,0
2,67,100,0
2,60,100,4
2,64,100,0
2,67,100,0
2,60,100,0
2,64,100,0
2,67,100,0
2,62,100,196
2,67,100,0
2,69,100,0
2,62,100,4
2,67,100,0
2,69,100,0
2,62,100,4
2,67,100,0
2,69,100,0
2,62,100,4
