track,note,velocity,time
1,76,100,10944
1,76,100,4
1,76,100,4
1,76,100,4
1,76,100,4
1,76,100,4
1,76,100,4
1,76,100,4
1,79,100,4
1,81,100,4
1,76,100,4228
1,76,100,4
1,76,100,4
1,76,100,4
1,76,100,4
1,76,100,4
1,76,100,4
1,76,100,4
1,76,100,4
1,79,100,4
1,81,100,4
1,76,100,4036
1,76,100,4
1,76,100,4
1,76,100,4
1,76,100,4
1,76,100,4
1,76,100,4
1,76,100,4
1,79,100,4
1,81,100,4
1,81,100,4
1,79,100,1732
1,79,100,4
1,79,100,4
1,79,100,4
1,77,100,4
1,77,100,4
1,77,100,4
1,77,100,4
1,77,100,4
1,74,100,4
1,77,100,4
1,76,100,1732
1,76,100,4
1,76,100,4
1,76,100,4
1,76,100,4
1,76,100,4
1,76,100,4
1,76,100,4
1,79,100,4
1,81,100,4
1,81,100,4
1,76,100,4036
1,76,100,4
1,76,100,4
1,76,100,4
1,76,100,4
1,76,100,4
1,76,100,4
1,76,100,4
1,76,100,4
1,81,100,4
1,81,100,4
1,76,100,4036
1,76,100,4
1,76,100,4
1,76,100,4
1,76,100,4
1,76,100,4
1,76,100,4
1,76,100,4
1,79,100,4
1,81,100,4
1,81,100,4
1,79,100,1732
1,79,100,4
1,79,100,4
1,79,100,4
1,77,100,4
1,77,100,4
1,77,100,4
1,77,100,4
1,77,100,4
1,74,100,4
1,77,100,4
1,76,100,1732
1,76,100,4
1,77,100,4
1,79,100,4
1,76,100,4
1,74,100,4
1,72,100,4
1,72,100,4
1,72,100,4
1,69,100,4
1,67,100,4
1,76,100,964
1,76,100,4
1,77,100,4
1,79,100,4
1,76,100,4
1,74,100,4
1,72,100,4
1,81,100,4
1,81,100,4
1,81,100,4
1,81,100,4
1,76,100,964
1,76,100,4
1,77,100,4
1,79,100,4
1,76,100,4
1,74,100,4
1,72,100,4
1,72,100,4
1,72,100,4
1,69,100,4
1,67,100,4
1,76,100,964
1,76,100,4
1,77,100,4
1,79,100,4
1,76,100,4
1,74,100,4
1,72,100,4
1,81,100,4
1,81,100,4
1,81,100,4
1,81,100,4
1,76,100,10180
1,76,100,4
1,76,100,4
1,76,100,4
1,76,100,4
1,76,100,4
1,76,100,4
1,76,100,4
1,79,100,4
1,81,100,4
1,76,100,4228
1,76,100,4
1,76,100,4
1,76,100,4
1,76,100,4
1,76,100,4
1,76,100,4
1,76,100,4
1,79,100,4
1,81,100,4
1,76,100,4228
1,76,100,4
1,76,100,4
1,76,100,4
1,76,100,4
1,76,100,4
1,76,100,4
1,76,100,4
1,79,100,4
1,81,100,4
1,81,100,4
1,79,100,1732
1,79,100,4
1,79,100,4
1,79,100,4
1,77,100,4
1,77,100,4
1,77,100,4
1,77,100,4
1,77,100,4
1,77,100,4
1,74,100,4
1,77,100,4
1,76,100,1540
1,76,100,4
1,76,100,4
1,76,100,4
1,76,100,4
1,76,100,4
1,76,100,4
1,76,100,4
1,79,100,4
1,81,100,4
1,81,100,4
1,76,100,4036
1,76,100,4
1,76,100,4
1,76,100,4
1,76,100,4
1,76,100,4
1,76,100,4
1,76,100,4
1,79,100,4
1,81,100,4
1,81,100,4
1,76,100,4036
1,76,100,4
1,76,100,4
1,76,100,4
1,76,100,4
1,76,100,4
1,76,100,4
1,76,100,4
1,79,100,4
1,81,100,4
1,81,100,4
1,79,100,1732
1,79,100,4
1,79,100,4
1,79,100,4
1,77,100,4
1,77,100,4
1,77,100,4
1,77,100,4
1,77,100,4
1,74,100,4
1,77,100,4
1,77,100,4
1,76,100,1540
1,76,100,4
1,77,100,4
1,79,100,4
1,76,100,4
1,74,100,4
1,72,100,4
1,72,100,4
1,72,100,4
1,69,100,4
1,67,100,4
1,76,100,964
1,76,100,4
1,77,100,4
1,79,100,4
1,76,100,4
1,74,100,4
1,72,100,4
1,81,100,4
1,81,100,4
1,81,100,4
1,81,100,4
1,76,100,964
1,76,100,4
1,77,100,4
1,79,100,4
1,76,100,4
1,74,100,4
1,72,100,4
1,72,100,4
1,72,100,4
1,69,100,4
1,67,100,4
1,76,100,964
1,76,100,4
1,77,100,4
1,79,100,4
1,76,100,4
1,74,100,4
1,72,100,4
1,81,100,4
1,81,100,4
1,81,100,4
1,81,100,4
1,76,100,964
1,76,100,4
1,77,100,4
1,79,100,4
1,76,100,4
1,74,100,4
1,72,100,4
1,72,100,4
1,72,100,4
1,69,100,4
1,67,100,4
1,76,100,964
1,76,100,4
1,77,100,4
1,79,100,4
1,76,100,4
1,74,100,4
1,72,100,4
1,81,100,4
1,81,100,4
1,81,100,4
1,81,100,4
1,76,100,964
1,76,100,4
1,77,100,4
1,79,100,4
1,76,100,4
1,74,100,4
1,72,100,4
1,72,100,4
1,72,100,4
1,69,100,4
1,67,100,4
1,76,100,964
1,76,100,4
1,77,100,4
1,79,100,4
1,76,100,4
1,74,100,4
1,72,100,4
1,81,100,4
1,81,100,4
1,81,100,4
1,81,100,4
1,76,100,10180
1,76,100,4
1,76,100,4
1,76,100,4
1,76,100,4
1,76,100,4
1,76,100,4
1,76,100,4
1,79,100,4
1,81,100,4
1,76,100,4228
1,76,100,4
1,76,100,4
1,76,100,4
1,76,100,4
1,76,100,4
1,76,100,4
1,76,100,4
1,76,100,4
1,79,100,4
1,81,100,4
1,76,100,4036
1,76,100,4
1,76,100,4
1,76,100,4
1,76,100,4
1,76,100,4
1,76,100,4
1,76,100,4
1,79,100,4
1,81,100,4
1,81,100,4
1,79,100,1732
1,79,100,4
1,79,100,4
1,79,100,4
1,77,100,4
1,77,100,4
1,77,100,4
1,77,100,4
1,77,100,4
1,74,100,4
1,77,100,4
1,76,100,1732
1,76,100,4
1,77,100,4
1,79,100,4
1,76,100,4
1,74,100,4
1,72,100,4
1,72,100,4
1,72,100,4
1,69,100,4
1,67,100,4
1,76,100,964
1,76,100,4
1,77,100,4
1,79,100,4
1,76,100,4
1,74,100,4
1,72,100,4
1,81,100,4
1,81,100,4
1,81,100,4
1,81,100,4
1,76,100,964
1,76,100,4
1,77,100,4
1,79,100,4
1,76,100,4
1,74,100,4
1,72,100,4
1,72,100,4
1,72,100,4
1,69,100,4
1,67,100,4
1,76,100,964
1,76,100,4
1,77,100,4
1,79,100,4
1,76,100,4
1,74,100,4
1,72,100,4
1,81,100,4
1,81,100,4
1,81,100,4
1,81,100,4
1,76,100,964
1,76,100,4
1,77,100,4
1,79,100,4
1,76,100,4
1,74,100,4
1,72,100,4
1,72,100,4
1,72,100,4
1,69,100,4
1,67,100,4
1,76,100,964
1,76,100,4
1,77,100,4
1,79,100,4
1,76,100,4
1,74,100,4
1,72,100,4
1,81,100,4
1,81,100,4
1,81,100,4
1,81,100,4
1,76,100,964
1,76,100,4
1,77,100,4
1,79,100,4
1,76,100,4
1,74,100,4
1,72,100,4
1,72,100,4
1,72,100,4
1,69,100,4
1,67,100,4
1,76,100,964
1,76,100,4
1,77,100,4
1,79,100,4
1,76,100,4
1,74,100,4
1,72,100,4
1,81,100,4
1,81,100,4
1,81,100,4
1,81,100,4
1,76,100,964
1,76,100,4
1,77,100,4
1,79,100,4
1,76,100,4
1,74,100,4
1,72,100,4
1,72,100,4
1,72,100,4
1,69,100,4
1,67,100,4
1,76,100,964
1,76,100,4
1,77,100,4
1,79,100,4
1,76,100,4
1,74,100,4
1,72,100,4
1,81,100,4
1,81,100,4
1,81,100,4
1,81,100,4
1,76,100,964
1,76,100,4
1,77,100,4
1,79,100,4
1,76,100,4
1,74,100,4
1,72,100,4
1,72,100,4
1,72,100,4
1,69,100,4
1,67,100,4
1,76,100,964
1,76,100,4
1,77,100,4
1,79,100,4
1,76,100,4
1,74,100,4
1,72,100,4
1,81,100,4
1,81,100,4
1,81,100,4
1,81,100,4
2,79,100,52800
2,81,100,4
2,79,100,4
2,81,100,4
2,79,100,4
2,81,100,4
2,79,100,1924
2,81,100,4
2,79,100,4
2,76,100,4
2,81,100,4
2,79,100,1924
2,81,100,4
2,79,100,4
2,81,100,4
2,79,100,4
2,79,100,4
2,79,100,1924
2,81,100,4
2,79,100,4
2,76,100,4
2,81,100,4
2,79,100,51268
2,81,100,4
2,79,100,4
2,81,100,4
2,79,100,4
2,81,100,4
2,79,100,1924
2,81,100,4
2,79,100,4
2,76,100,4
2,81,100,4
2,79,100,1924
2,81,100,4
2,79,100,4
2,81,100,4
2,79,100,4
2,79,100,4
2,79,100,1924
2,81,100,4
2,79,100,4
2,76,100,4
2,81,100,4
2,79,100,2116
2,81,100,4
2,79,100,4
2,81,100,4
2,79,100,4
2,81,100,4
2,79,100,1924
2,81,100,4
2,79,100,4
2,76,100,4
2,81,100,4
2,79,100,1924
2,81,100,4
2,79,100,4
2,81,100,4
2,79,100,4
2,79,100,4
2,79,100,1924
2,81,100,4
2,79,100,4
2,76,100,4
2,81,100,4
2,79,100,31300
2,81,100,4
2,79,100,4
2,81,100,4
2,79,100,4
2,81,100,4
2,79,100,1924
2,81,100,4
2,79,100,4
2,76,100,4
2,81,100,4
2,79,100,1924
2,81,100,4
2,79,100,4
2,81,100,4
2,79,100,4
2,79,100,4
2,79,100,1924
2,81,100,4
2,79,100,4
2,76,100,4
2,81,100,4
2,79,100,2116
2,81,100,4
2,79,100,4
2,81,100,4
2,79,100,4
2,81,100,4
2,79,100,1924
2,81,100,4
2,79,100,4
2,76,100,4
2,81,100,4
2,79,100,1924
2,81,100,4
2,79,100,4
2,81,100,4
2,79,100,4
2,79,100,4
2,79,100,1924
2,81,100,4
2,79,100,4
2,76,100,4
2,81,100,4
2,79,100,2116
2,81,100,4
2,79,100,4
2,81,100,4
2,79,100,4
2,81,100,4
2,79,100,1924
2,81,100,4
2,79,100,4
2,76,100,4
2,81,100,4
2,79,100,1924
2,81,100,4
2,79,100,4
2,81,100,4
2,79,100,4
2,79,100,4
2,79,100,1924
2,81,100,4
2,79,100,4
2,76,100,4
2,81,100,4
3,60,100,10752
3,72,100,0
3,67,100,0
3,64,100,0
3,60,100,4
3,64,100,0
3,67,100,0
3,72,100,0
3,60,100,4
3,72,100,0
3,65,100,0
3,69,100,0
3,58,100,4
3,62,100,0
3,67,100,0
3,70,100,0
3,69,100,4
3,65,100,0
3,60,100,0
3,57,100,0
3,60,100,4
3,72,100,0
3,67,100,0
3,64,100,0
3,60,100,4
3,64,100,0
3,67,100,0
3,72,100,0
3,60,100,4
3,72,100,0
3,65,100,0
3,69,100,0
3,58,100,4
3,62,100,0
3,67,100,0
3,70,100,0
3,69,100,4
3,65,100,0
3,60,100,0
3,57,100,0
3,60,100,4
3,72,100,0
3,67,100,0
3,64,100,0
3,60,100,4
3,64,100,0
3,67,100,0
3,72,100,0
3,60,100,4
3,72,100,0
3,65,100,0
3,69,100,0
3,72,100,4
3,69,100,0
3,65,100,0
3,60,100,0
3,70,100,4
3,65,100,0
3,62,100,0
3,58,100,0
3,75,100,4
3,74,100,4
3,72,100,4
3,70,100,4
3,72,100,4
3,74,100,4
3,60,100,4
3,72,100,0
3,67,100,0
3,64,100,0
3,60,100,4
3,64,100,0
3,67,100,0
3,72,100,0
3,60,100,4
3,72,100,0
3,65,100,0
3,69,100,0
3,58,100,4
3,62,100,0
3,67,100,0
3,70,100,0
3,69,100,4
3,65,100,0
3,60,100,0
3,57,100,0
3,60,100,4
3,72,100,0
3,67,100,0
3,64,100,0
3,60,100,4
3,64,100,0
3,67,100,0
3,72,100,0
3,60,100,4
3,72,100,0
3,65,100,0
3,69,100,0
3,58,100,4
3,62,100,0
3,67,100,0
3,70,100,0
3,69,100,4
3,65,100,0
3,60,100,0
3,57,100,0
3,60,100,4
3,72,100,0
3,67,100,0
3,64,100,0
3,60,100,4
3,64,100,0
3,67,100,0
3,72,100,0
3,60,100,4
3,72,100,0
3,65,100,0
3,69,100,0
3,72,100,4
3,69,100,0
3,65,100,0
3,60,100,0
3,70,100,4
3,65,100,0
3,62,100,0
3,58,100,0
3,75,100,4
3,74,100,4
3,72,100,4
3,70,100,4
3,72,100,4
3,74,100,4
3,72,100,4
3,67,100,0
3,64,100,0
3,60,100,0
3,72,100,4
3,67,100,0
3,64,100,0
3,60,100,0
3,72,100,4
3,67,100,0
3,64,100,0
3,60,100,0
3,60,100,4
3,72,100,0
3,69,100,0
3,65,100,0
3,72,100,4
3,67,100,0
3,64,100,0
3,60,100,0
3,72,100,4
3,67,100,0
3,64,100,0
3,60,100,0
3,72,100,4
3,67,100,0
3,64,100,0
3,60,100,0
3,60,100,4
3,72,100,0
3,69,100,0
3,65,100,0
3,75,100,3076
3,77,100,4
3,70,100,4
3,74,100,4
3,68,100,4
3,67,100,4
3,60,100,3076
3,72,100,0
3,67,100,0
3,64,100,0
3,60,100,4
3,64,100,0
3,67,100,0
3,72,100,0
3,60,100,4
3,72,100,0
3,65,100,0
3,69,100,0
3,58,100,4
3,62,100,0
3,67,100,0
3,70,100,0
3,69,100,4
3,65,100,0
3,60,100,0
3,57,100,0
3,60,100,4
3,72,100,0
3,67,100,0
3,64,100,0
3,60,100,4
3,64,100,0
3,67,100,0
3,72,100,0
3,60,100,4
3,72,100,0
3,65,100,0
3,69,100,0
3,58,100,4
3,62,100,0
3,67,100,0
3,70,100,0
3,69,100,4
3,65,100,0
3,60,100,0
3,57,100,0
3,60,100,4
3,72,100,0
3,67,100,0
3,64,100,0
3,60,100,4
3,64,100,0
3,67,100,0
3,72,100,0
3,60,100,4
3,72,100,0
3,65,100,0
3,69,100,0
3,72,100,4
3,69,100,0
3,65,100,0
3,60,100,0
3,70,100,4
3,65,100,0
3,62,100,0
3,58,100,0
3,75,100,4
3,74,100,4
3,72,100,4
3,70,100,4
3,72,100,4
3,74,100,4
3,60,100,4
3,72,100,0
3,67,100,0
3,64,100,0
3,60,100,4
3,64,100,0
3,67,100,0
3,72,100,0
3,60,100,4
3,72,100,0
3,65,100,0
3,69,100,0
3,58,100,4
3,62,100,0
3,67,100,0
3,70,100,0
3,69,100,4
3,65,100,0
3,60,100,0
3,57,100,0
3,60,100,4
3,72,100,0
3,67,100,0
3,64,100,0
3,60,100,4
3,64,100,0
3,67,100,0
3,72,100,0
3,60,100,4
3,72,100,0
3,65,100,0
3,69,100,0
3,58,100,4
3,62,100,0
3,67,100,0
3,70,100,0
3,69,100,4
3,65,100,0
3,60,100,0
3,57,100,0
3,60,100,4
3,72,100,0
3,67,100,0
3,64,100,0
3,60,100,4
3,64,100,0
3,67,100,0
3,72,100,0
3,60,100,4
3,72,100,0
3,65,100,0
3,69,100,0
3,72,100,4
3,69,100,0
3,65,100,0
3,60,100,0
3,70,100,4
3,65,100,0
3,62,100,0
3,58,100,0
3,75,100,4
3,74,100,4
3,72,100,4
3,70,100,4
3,72,100,4
3,74,100,4
3,72,100,4
3,67,100,0
3,64,100,0
3,60,100,0
3,72,100,4
3,67,100,0
3,64,100,0
3,60,100,0
3,72,100,4
3,67,100,0
3,64,100,0
3,60,100,0
3,60,100,4
3,72,100,0
3,69,100,0
3,65,100,0
3,72,100,4
3,67,100,0
3,64,100,0
3,60,100,0
3,72,100,4
3,67,100,0
3,64,100,0
3,60,100,0
3,72,100,4
3,67,100,0
3,64,100,0
3,60,100,0
3,60,100,4
3,72,100,0
3,69,100,0
3,65,100,0
3,72,100,4
3,67,100,0
3,64,100,0
3,60,100,0
3,72,100,4
3,67,100,0
3,64,100,0
3,60,100,0
3,72,100,4
3,67,100,0
3,64,100,0
3,60,100,0
3,60,100,4
3,72,100,0
3,69,100,0
3,65,100,0
3,72,100,4
3,67,100,0
3,64,100,0
3,60,100,0
3,72,100,4
3,67,100,0
3,64,100,0
3,60,100,0
3,72,100,4
3,67,100,0
3,64,100,0
3,60,100,0
3,60,100,4
3,72,100,0
3,69,100,0
3,65,100,0
3,75,100,3076
3,77,100,4
3,70,100,4
3,74,100,4
3,68,100,4
3,67,100,4
3,60,100,3076
3,72,100,0
3,67,100,0
3,64,100,0
3,60,100,4
3,64,100,0
3,67,100,0
3,72,100,0
3,60,100,4
3,72,100,0
3,65,100,0
3,69,100,0
3,58,100,4
3,62,100,0
