track,note,velocity,time
3,31,100,11539
3,31,0,45
3,33,110,3
3,33,0,45
3,36,98,3
3,36,0,354
3,31,94,30
3,31,0,45
3,31,96,51
3,31,0,248
3,36,96,40
3,36,0,353
3,31,100,31
3,31,0,44
3,31,100,52
3,33,71,3
3,33,0,44
3,36,96,4
3,33,74,4
3,33,0,44
3,36,106,4
3,36,0,354
3,31,94,30
3,31,96,51
3,31,0,248
3,36,96,40
3,36,0,353
3,31,100,31
3,31,100,52
3,31,82,3
3,36,88,4
3,36,0,44
3,38,83,4
3,40,106,4
3,40,0,354
3,35,94,30
3,35,0,45
3,35,96,51
3,35,0,248
3,40,106,40
3,40,0,354
3,35,94,30
3,35,0,45
3,35,96,51
3,35,0,248
3,41,106,40
3,41,0,354
3,36,94,30
3,36,96,51
3,36,0,248
3,41,106,40
3,41,0,354
3,36,94,30
3,36,0,45
3,36,96,51
3,36,0,248
3,29,112,40
3,29,84,19
3,29,112,380
3,29,0,217
3,29,104,71
3,29,80,21
3,29,108,395
3,29,108,4
3,29,108,5
3,29,108,3
3,29,0,40
3,29,101,8
3,29,0,40
3,29,65,584
3,36,78,3
3,41,90,3
3,36,82,3
3,36,0,61
3,29,82,3
3,29,0,2209
3,31,100,1279
3,31,0,45
3,33,110,3
3,33,0,45
3,36,108,3
3,36,0,354
3,31,94,30
3,31,0,45
3,31,96,51
3,31,0,237
3,33,71,3
3,33,0,44
3,36,101,4
3,36,0,353
3,31,100,31
3,31,0,44
3,31,100,52
3,33,71,3
3,33,0,44
3,36,96,4
3,36,0,92
3,33,108,4
3,33,0,666
3,33,80,6
3,40,108,6
3,41,108,18
3,31,100,3
3,31,0,45
3,33,110,3
3,33,0,45
3,36,98,3
3,36,0,354
3,31,94,30
3,31,0,45
3,31,96,51
3,31,0,248
3,36,96,40
3,36,0,353
3,31,100,31
3,31,0,44
3,31,100,52
3,31,0,141
3,33,71,3
3,33,0,44
3,36,96,4
3,36,0,44
3,31,74,4
3,31,0,44
3,33,107,4
3,33,0,757
3,40,103,11
3,40,0,277
3,40,92,11
3,40,0,74
3,40,107,22
3,41,106,22
3,41,0,272
3,41,106,16
3,41,0,464
3,55,106,16
3,55,0,45
3,53,82,3
3,53,0,45
3,53,106,3
3,53,0,45
3,48,82,3
3,48,0,45
3,48,106,3
3,48,0,45
3,41,82,3
3,41,0,45
3,41,106,3
3,41,0,477
3,33,98,3
3,33,0,354
3,33,94,30
3,33,0,45
3,33,96,51
3,36,83,3
3,36,0,45
3,38,94,3
3,40,96,3
3,40,0,353
3,41,100,31
3,45,89,3
3,36,98,3
3,36,0,354
3,31,94,30
3,31,0,45
3,31,96,51
3,31,0,248
3,36,96,40
3,31,100,31
3,31,100,52
3,31,98,2893
3,31,0,93
3,36,95,3
3,36,0,93
3,33,107,3
3,33,101,11
3,33,96,16
3,33,0,189
3,36,92,3
3,36,0,85
3,40,103,11
3,40,0,373
3,40,107,11
3,40,111,11
3,41,106,3
3,29,107,9
3,29,107,11
3,29,0,277
3,33,108,779
3,33,0,666
3,33,80,6
3,33,0,90
3,40,108,6
3,41,108,18
3,41,0,285
3,31,100,3
3,31,0,45
3,33,110,3
3,36,98,3
3,36,0,354
3,31,94,30
3,31,0,45
3,31,96,51
3,31,0,248
3,36,96,40
3,36,0,353
3,31,100,31
3,31,0,44
3,31,100,52
3,31,0,141
3,33,71,3
3,33,0,44
3,36,96,4
3,36,0,44
3,31,74,4
3,31,0,44
3,33,107,4
3,33,0,757
3,40,103,11
3,40,92,11
3,40,0,74
3,40,107,22
3,40,0,362
3,41,106,22
3,33,98,16
3,33,0,573
3,33,96,3
3,38,94,3
3,40,96,3
3,41,100,13
3,36,98,3
3,43,95,30
3,48,108,3
3,43,88,3
3,50,108,3
3,50,0,93
3,48,94,3
3,48,0,93
3,36,104,3
3,36,0,93
3,38,101,3
3,40,106,3
3,40,0,354
3,35,94,30
3,35,0,45
3,35,96,51
3,40,106,40
3,40,0,354
3,35,94,30
3,35,0,45
3,35,96,51
3,35,0,248
3,41,106,40
3,41,0,354
3,36,94,30
3,36,96,51
3,36,0,248
3,43,106,40
3,43,0,354
3,38,94,30
3,38,0,45
3,38,96,51
3,38,0,248
3,36,98,40
3,36,0,354
3,31,94,30
3,31,96,51
3,31,0,248
3,36,96,40
3,36,0,353
3,31,100,31
3,31,0,44
3,31,100,52
3,33,96,3
3,33,0,92
3,36,106,4
3,31,94,30
3,31,0,45
3,31,96,51
3,31,0,248
3,36,96,40
3,31,100,31
3,31,100,52
3,31,82,3
3,36,88,4
3,38,83,4
3,40,106,4
3,40,0,354
3,35,94,30
3,35,0,45
3,35,96,51
3,35,0,248
3,40,106,40
3,40,0,354
3,35,94,30
3,35,0,45
3,35,96,51
3,35,0,248
3,41,106,40
3,41,0,354
3,36,94,30
3,36,96,51
3,36,0,248
3,43,106,40
3,43,0,354
3,38,94,30
3,38,96,51
3,38,0,248
3,36,98,40
3,36,0,354
3,31,94,30
3,31,96,51
3,31,0,248
3,36,96,40
3,36,0,353
3,31,100,31
3,31,100,52
3,31,0,189
3,33,96,3
3,33,0,92
3,36,106,4
3,36,0,354
3,31,94,30
3,31,96,51
3,31,0,248
3,36,96,40
3,36,0,353
3,31,100,31
3,31,0,44
3,31,100,52
3,31,0,93
3,31,82,3
3,36,88,4
3,36,0,44
3,38,83,4
3,40,106,4
3,40,0,354
3,35,94,30
3,35,0,45
3,35,96,51
3,35,0,248
3,40,106,40
3,40,0,354
3,35,94,30
3,35,0,45
3,35,96,51
3,35,0,248
3,41,106,40
3,41,0,354
3,36,94,30
3,36,0,45
3,36,96,51
3,36,0,248
3,41,106,40
3,41,0,354
3,36,94,30
3,36,0,45
3,36,96,51
3,36,0,248
3,29,112,40
3,29,0,29
3,29,84,19
3,29,0,52
3,29,112,380
3,29,0,217
3,29,112,71
3,29,0,29
3,29,84,19
3,29,0,52
3,29,112,668
3,29,84,19
3,29,112,572
3,29,112,3
3,29,0,285
3,29,112,3
3,29,112,3
3,29,0,29
3,29,84,19
3,29,0,52
3,29,112,380
3,29,0,217
3,29,108,71
3,29,101,8
3,29,112,392
3,29,0,217
3,29,65,167
3,36,78,3
3,41,90,3
3,36,82,3
3,29,82,3
3,29,0,2209
3,31,100,1567
3,31,0,45
3,33,110,3
3,33,0,45
3,36,108,3
3,36,0,354
3,31,94,30
3,31,0,45
3,31,96,51
3,31,0,237
3,33,71,3
3,33,0,44
3,36,101,4
3,36,0,353
3,31,100,31
3,31,0,44
3,31,100,52
3,33,71,3
3,33,0,44
3,36,96,4
3,33,108,4
3,33,80,6
3,33,0,90
3,40,108,6
3,41,108,18
3,41,0,285
3,31,100,3
3,31,0,45
3,33,110,3
3,33,0,45
3,36,98,3
3,36,0,354
3,31,94,30
3,31,0,45
3,31,96,51
3,31,0,248
3,36,96,40
3,36,0,353
3,31,100,31
3,31,0,44
3,31,100,52
3,31,0,141
3,33,71,3
3,33,0,44
3,36,96,4
3,36,0,44
3,31,74,4
3,31,0,44
3,33,107,4
3,33,0,757
3,40,103,11
3,40,92,11
3,40,107,22
3,41,106,22
3,41,0,272
3,41,106,16
3,41,0,464
3,55,106,16
3,55,0,45
3,53,82,3
3,53,0,45
3,53,106,3
3,53,0,45
3,48,82,3
3,48,0,45
3,48,106,3
3,48,0,45
3,41,82,3
3,41,0,45
3,41,106,3
3,41,0,477
3,33,98,3
3,33,0,354
3,33,94,30
3,33,0,45
3,33,96,51
3,36,83,3
3,36,0,45
3,38,94,3
3,40,96,3
3,40,0,353
3,41,100,31
3,41,0,189
3,45,89,3
3,36,98,3
3,36,0,354
3,31,94,30
3,31,0,45
3,31,96,51
3,31,0,248
3,36,96,40
3,36,0,353
3,31,100,31
3,31,0,44
3,31,100,52
3,33,107,13
3,33,0,757
3,40,103,11
3,40,92,11
3,40,0,74
3,40,107,22
3,40,0,362
3,41,106,22
3,41,0,272
3,41,106,16
3,41,106,16
3,41,0,93
3,41,106,3
3,41,0,189
3,41,106,3
3,41,0,285
3,41,106,3
3,41,0,189
3,33,98,3
3,33,94,30
3,33,96,51
3,33,0,141
3,36,83,3
3,38,94,3
3,38,0,93
3,40,96,3
3,40,0,353
3,41,100,31
3,45,89,3
3,36,98,3
3,36,0,354
3,31,94,30
3,31,0,45
3,31,96,51
3,31,0,248
3,36,96,40
3,36,0,353
3,31,100,31
3,31,0,44
3,31,100,52
3,31,0,275
3,33,107,13
3,33,0,757
3,40,103,11
3,40,92,11
3,40,107,22
3,40,0,362
3,41,106,22
3,41,0,1520
3,33,98,16
3,33,0,354
3,33,94,30
3,33,0,45
3,33,96,51
3,33,0,141
3,36,83,3
3,38,94,3
3,40,96,3
3,40,0,353
3,41,100,31
3,41,0,189
3,45,89,3
3,45,0,189
3,36,98,3
3,36,0,354
3,31,94,30
3,31,0,45
3,31,96,51
3,31,0,248
3,36,96,40
3,36,0,353
3,31,100,31
3,31,0,44
3,31,100,52
3,31,0,189
3,33,81,3
3,33,0,92
3,36,96,4
3,36,0,353
3,31,100,31
3,31,0,52
3,31,100,44
3,31,0,92
3,36,96,4
3,36,0,1169
4,69,110,17776
4,72,113,21
4,69,113,19
4,69,0,72
4,76,118,16
4,76,0,60
4,76,114,12
4,76,112,4
4,76,0,61
4,74,113,3
4,72,104,3
4,72,0,61
4,74,113,11
4,69,107,3
4,69,0,104
4,69,105,68
4,69,0,61
4,72,110,3
4,72,0,61
4,69,107,3
4,76,114,11
4,76,104,23
4,76,107,29
4,76,0,55
4,74,113,9
4,74,0,61
4,72,109,3
4,72,0,61
4,74,110,8
4,69,105,3
4,69,0,74
4,69,111,1
4,69,111,118
4,69,108,19
4,72,110,3
4,72,0,57
4,69,105,3
4,69,0,45
4,76,112,15
4,76,109,16
4,76,0,52
4,76,106,10
4,76,0,56
4,74,110,6
4,74,0,59
4,69,100,4
4,76,113,23
4,76,111,16
4,76,109,15
4,74,110,9
4,72,103,9
4,74,109,6
4,76,107,3
4,74,111,3
4,74,0,52
4,72,104,21
4,72,0,61
4,76,106,13
4,76,94,316
4,76,94,294
4,76,111,17243
4,76,0,61
4,76,111,31
4,76,0,78
4,76,111,27
4,76,112,22
4,76,0,33
4,76,110,18
4,76,0,82
4,76,113,22
4,76,105,24
4,76,0,92
4,76,116,1
4,76,0,124
4,68,114,764
4,74,114,0
4,69,113,3
4,76,113,0
4,69,0,265
4,76,0,0
4,69,105,23
4,76,105,0
4,69,0,83
4,76,0,0
4,69,109,20
4,76,109,0
4,69,0,166
4,76,0,0
4,69,112,16
4,76,112,0
4,69,0,98
4,76,0,0
4,74,113,3
4,79,113,0
4,74,0,140
4,79,0,0
4,74,102,27
4,79,102,0
4,74,105,23
4,79,105,0
4,74,110,27
4,79,110,0
4,74,0,55
4,79,0,0
4,72,107,3
4,77,107,0
4,72,108,20
4,77,108,0
4,72,106,23
4,77,106,0
4,72,105,25
4,77,105,0
4,72,106,7
4,76,106,0
4,71,106,3
4,74,106,0
4,67,106,3
4,72,106,0
4,67,0,142
4,72,0,0
4,72,116,2976
4,72,0,66
4,72,120,33
4,72,0,66
4,72,117,30
4,72,0,62
4,72,117,30
4,72,113,29
4,72,115,30
4,74,117,3
4,71,100,0
4,76,115,6
4,76,0,544
4,76,113,32
4,76,0,155
4,79,110,35
4,79,111,36
4,79,112,38
4,79,108,38
4,77,112,19
4,77,113,24
4,77,0,71
4,74,110,1
4,74,0,109
4,79,122,11760
4,79,117,28
4,79,123,22
4,79,124,22
4,77,118,3
4,69,119,4167
4,69,0,70
4,72,121,27
4,69,121,100
4,72,0,4
4,69,0,82
4,76,122,14
4,76,0,42
4,76,118,28
4,76,120,23
4,76,120,18
4,74,116,66
4,76,0,6
4,72,114,51
4,74,0,6
4,74,118,16
4,74,0,100
4,69,113,8
4,69,0,113
4,69,113,737
4,69,0,58
4,72,116,6
4,72,0,54
4,69,109,3
4,69,0,46
4,76,120,17
4,76,119,14
4,76,116,24
4,76,0,35
4,76,116,26
4,74,117,3
4,72,115,3
4,74,116,17
4,74,0,90
4,69,113,13
4,81,115,84
4,81,111,18
4,81,112,4
4,69,113,602
4,69,0,67
4,72,115,5
4,69,114,65
4,72,0,0
4,69,0,46
4,76,120,18
4,76,0,61
4,74,116,5
4,72,113,1
4,72,0,45
4,74,118,20
4,69,112,6
4,69,0,37
4,69,116,29
4,76,119,2
4,76,0,54
4,74,116,5
4,72,114,3
4,72,0,52
4,74,118,14
4,74,0,69
4,69,113,5
4,76,113,50
4,76,108,8
4,76,0,98
4,76,110,15
4,74,115,77
4,76,0,1
4,72,113,70
4,72,0,90
4,76,113,0
4,76,99,292
4,76,99,202
4,76,0,387
4,79,125,12690
4,79,0,328
4,81,115,24
4,81,116,36
4,81,118,38
4,81,110,22
4,81,0,35
4,81,122,18
4,81,118,33
4,81,120,32
4,81,110,26
4,81,0,35
4,79,117,20
4,79,114,29
4,79,118,31
4,79,110,25
4,79,121,14
4,79,111,29
4,79,0,64
4,79,120,39
4,79,113,30
4,81,124,16
4,81,115,26
4,81,0,68
4,81,122,34
4,81,0,62
4,81,107,32
4,81,0,37
4,81,119,18
4,81,0,101
4,81,113,27
4,81,0,147
4,68,114,729
4,74,114,0
4,68,0,189
4,74,0,0
4,69,113,3
4,76,113,0
4,69,105,23
4,76,105,0
4,69,109,20
4,76,109,0
4,69,112,16
4,76,112,0
4,74,113,3
4,79,113,0
4,74,0,140
4,79,0,0
4,74,102,27
4,79,102,0
4,74,105,23
4,79,105,0
4,74,110,27
4,79,110,0
4,72,107,3
4,77,107,0
4,72,0,121
4,77,0,0
4,72,108,20
4,77,108,0
4,72,106,23
4,77,106,0
4,72,0,63
4,77,0,0
4,72,105,25
4,77,105,0
4,72,0,43
4,77,0,0
4,72,106,7
4,76,106,0
4,71,106,3
4,74,106,0
4,67,106,3
4,72,106,0
4,67,0,142
4,72,0,0
4,76,115,4418
4,76,0,544
4,76,113,32
4,76,0,155
4,79,110,35
4,79,0,61
4,79,111,36
4,79,0,58
4,79,112,38
4,79,0,58
4,79,108,38
4,77,112,19
4,77,0,71
4,77,113,24
4,77,0,71
4,74,110,1
4,74,0,109
5,67,108,870
5,69,108,3
5,67,109,3
5,67,0,93
5,72,109,3
5,72,109,20
5,72,105,19
5,72,109,34
5,72,108,11
5,72,107,39
5,72,103,19
5,72,106,33
5,72,109,13
5,72,106,24
5,72,0,76
5,72,103,20
5,72,108,26
5,72,109,11
5,72,106,39
5,72,94,24
5,72,107,29
5,74,114,3
5,71,111,37
5,71,0,208
5,71,113,1040
5,71,0,62
5,71,112,34
5,69,106,3
5,69,107,45
5,69,109,38
5,69,109,19
5,69,0,104
5,67,107,40
5,67,0,49
5,67,106,47
5,67,110,25
5,71,112,3
5,69,109,21
5,69,109,28
5,67,108,30
5,67,107,16
5,62,101,47
5,62,0,107
5,67,110,1248
5,69,110,10
5,72,113,22
5,72,0,142
5,72,102,50
5,72,108,18
5,72,106,26
5,72,106,11
5,72,0,114
5,72,109,30
5,72,0,73
5,72,104,23
5,72,109,25
5,72,0,34
5,72,108,14
5,72,108,33
5,72,110,20
5,72,110,31
5,72,103,13
5,72,102,37
5,72,0,75
5,72,102,21
5,72,112,32
5,74,112,15
5,71,111,62
5,71,0,201
5,71,101,855
5,71,103,40
5,71,105,37
5,71,110,7
5,71,0,127
5,69,103,17
5,69,105,34
5,69,103,38
5,69,106,12
5,67,109,10
5,71,114,3
5,71,0,285
5,69,113,3
5,67,112,3
5,67,0,186
5,64,113,2
5,64,0,146
5,76,114,1270
5,76,115,46
5,76,0,50
5,76,118,46
5,76,0,127
5,76,119,353
5,76,111,22
5,76,118,43
5,76,121,32
5,76,0,117
5,67,117,315
5,67,0,45
5,76,117,3
5,76,115,27
5,76,115,21
5,76,0,89
5,79,116,7
5,76,115,0
5,76,0,156
5,76,116,996
5,76,117,27
5,76,117,23
5,76,0,175
5,77,119,17
5,76,120,3
5,71,117,1
5,71,0,61
5,69,110,131
