track,note,velocity,time
1.0,76.0,100.0,15360.0
1.0,71.0,100.0,4.0
1.0,74.0,100.0,4.0
1.0,76.0,100.0,4.0
1.0,76.0,100.0,4.0
1.0,76.0,100.0,1540.0
1.0,76.0,100.0,4.0
1.0,76.0,100.0,4.0
1.0,71.0,100.0,4.0
1.0,74.0,100.0,4.0
1.0,76.0,100.0,4.0
1.0,76.0,100.0,4.0
1.0,76.0,100.0,1924.0
1.0,71.0,100.0,4.0
1.0,74.0,100.0,4.0
1.0,76.0,100.0,4.0
1.0,76.0,100.0,4.0
1.0,76.0,100.0,1732.0
1.0,76.0,100.0,4.0
1.0,71.0,100.0,4.0
1.0,74.0,100.0,4.0
1.0,76.0,100.0,4.0
1.0,76.0,100.0,4.0
1.0,76.0,100.0,1924.0
1.0,71.0,100.0,4.0
1.0,74.0,100.0,4.0
1.0,76.0,100.0,4.0
1.0,76.0,100.0,4.0
1.0,76.0,100.0,1732.0
1.0,76.0,100.0,4.0
1.0,71.0,100.0,4.0
1.0,74.0,100.0,4.0
1.0,76.0,100.0,4.0
1.0,76.0,100.0,4.0
1.0,79.0,100.0,1924.0
1.0,79.0,100.0,4.0
1.0,79.0,100.0,4.0
1.0,78.0,100.0,4.0
1.0,78.0,100.0,4.0
1.0,76.0,100.0,196.0
1.0,76.0,100.0,4.0
1.0,74.0,100.0,4.0
1.0,74.0,100.0,4.0
1.0,79.0,100.0,580.0
1.0,79.0,100.0,4.0
1.0,79.0,100.0,4.0
1.0,78.0,100.0,4.0
1.0,78.0,100.0,4.0
1.0,76.0,100.0,196.0
1.0,76.0,100.0,4.0
1.0,74.0,100.0,4.0
1.0,74.0,100.0,4.0
1.0,74.0,100.0,196.0
1.0,74.0,100.0,4.0
1.0,79.0,100.0,4.0
1.0,79.0,100.0,4.0
1.0,79.0,100.0,4.0
1.0,78.0,100.0,4.0
1.0,78.0,100.0,4.0
1.0,76.0,100.0,196.0
1.0,76.0,100.0,4.0
1.0,74.0,100.0,4.0
1.0,74.0,100.0,4.0
1.0,74.0,100.0,4.0
1.0,71.0,100.0,388.0
1.0,71.0,100.0,4.0
1.0,71.0,100.0,4.0
1.0,71.0,100.0,4.0
1.0,74.0,100.0,4.0
1.0,78.0,100.0,4.0
1.0,78.0,100.0,4.0
1.0,76.0,100.0,4.0
1.0,78.0,100.0,4.0
1.0,76.0,100.0,3268.0
1.0,76.0,100.0,4.0
1.0,71.0,100.0,4.0
1.0,74.0,100.0,4.0
1.0,76.0,100.0,4.0
1.0,76.0,100.0,4.0
1.0,76.0,100.0,1540.0
1.0,76.0,100.0,4.0
1.0,76.0,100.0,4.0
1.0,71.0,100.0,4.0
1.0,74.0,100.0,4.0
1.0,76.0,100.0,4.0
1.0,76.0,100.0,4.0
1.0,76.0,100.0,1924.0
1.0,71.0,100.0,4.0
1.0,74.0,100.0,4.0
1.0,76.0,100.0,4.0
1.0,76.0,100.0,4.0
1.0,76.0,100.0,1732.0
1.0,76.0,100.0,4.0
1.0,71.0,100.0,4.0
1.0,74.0,100.0,4.0
1.0,76.0,100.0,4.0
1.0,76.0,100.0,4.0
1.0,76.0,100.0,1924.0
1.0,71.0,100.0,4.0
1.0,74.0,100.0,4.0
1.0,76.0,100.0,4.0
1.0,76.0,100.0,4.0
1.0,76.0,100.0,1732.0
1.0,76.0,100.0,4.0
1.0,71.0,100.0,4.0
1.0,74.0,100.0,4.0
1.0,76.0,100.0,4.0
1.0,76.0,100.0,4.0
1.0,79.0,100.0,1924.0
1.0,79.0,100.0,4.0
1.0,79.0,100.0,4.0
1.0,78.0,100.0,4.0
1.0,78.0,100.0,4.0
1.0,76.0,100.0,196.0
1.0,76.0,100.0,4.0
1.0,74.0,100.0,4.0
1.0,74.0,100.0,4.0
1.0,79.0,100.0,580.0
1.0,79.0,100.0,4.0
1.0,79.0,100.0,4.0
1.0,78.0,100.0,4.0
1.0,78.0,100.0,4.0
1.0,76.0,100.0,196.0
1.0,76.0,100.0,4.0
1.0,74.0,100.0,4.0
1.0,74.0,100.0,4.0
1.0,74.0,100.0,196.0
1.0,74.0,100.0,4.0
1.0,79.0,100.0,4.0
1.0,79.0,100.0,4.0
1.0,79.0,100.0,4.0
1.0,78.0,100.0,4.0
1.0,78.0,100.0,4.0
1.0,76.0,100.0,196.0
1.0,76.0,100.0,4.0
1.0,74.0,100.0,4.0
1.0,74.0,100.0,4.0
1.0,74.0,100.0,4.0
1.0,71.0,100.0,388.0
1.0,71.0,100.0,4.0
1.0,71.0,100.0,4.0
1.0,71.0,100.0,4.0
1.0,74.0,100.0,4.0
1.0,78.0,100.0,4.0
1.0,78.0,100.0,4.0
1.0,76.0,100.0,4.0
1.0,78.0,100.0,4.0
1.0,79.0,100.0,21892.0
1.0,79.0,100.0,4.0
1.0,79.0,100.0,4.0
1.0,78.0,100.0,4.0
1.0,78.0,100.0,4.0
1.0,76.0,100.0,196.0
1.0,76.0,100.0,4.0
1.0,74.0,100.0,4.0
1.0,74.0,100.0,4.0
1.0,79.0,100.0,580.0
1.0,79.0,100.0,4.0
1.0,79.0,100.0,4.0
1.0,78.0,100.0,4.0
1.0,78.0,100.0,4.0
1.0,76.0,100.0,196.0
1.0,76.0,100.0,4.0
1.0,74.0,100.0,4.0
1.0,74.0,100.0,4.0
1.0,74.0,100.0,196.0
1.0,74.0,100.0,4.0
1.0,79.0,100.0,4.0
1.0,79.0,100.0,4.0
1.0,79.0,100.0,4.0
1.0,78.0,100.0,4.0
1.0,78.0,100.0,4.0
1.0,76.0,100.0,196.0
1.0,76.0,100.0,4.0
1.0,74.0,100.0,4.0
1.0,74.0,100.0,4.0
1.0,74.0,100.0,4.0
1.0,71.0,100.0,388.0
1.0,71.0,100.0,4.0
1.0,71.0,100.0,4.0
1.0,71.0,100.0,4.0
1.0,74.0,100.0,4.0
1.0,78.0,100.0,4.0
1.0,78.0,100.0,4.0
1.0,76.0,100.0,4.0
1.0,78.0,100.0,4.0
1.0,76.0,100.0,3460.0
1.0,71.0,100.0,4.0
1.0,74.0,100.0,4.0
1.0,76.0,100.0,4.0
2.0,67.0,100.0,15552.0
2.0,71.0,100.0,0.0
2.0,66.0,100.0,196.0
2.0,69.0,100.0,0.0
2.0,67.0,100.0,196.0
2.0,71.0,100.0,0.0
2.0,69.0,100.0,196.0
2.0,66.0,100.0,0.0
2.0,67.0,100.0,196.0
2.0,71.0,100.0,0.0
2.0,66.0,100.0,196.0
2.0,69.0,100.0,0.0
2.0,67.0,100.0,196.0
2.0,71.0,100.0,0.0
2.0,69.0,100.0,196.0
2.0,66.0,100.0,0.0
2.0,67.0,100.0,196.0
2.0,71.0,100.0,0.0
2.0,66.0,100.0,196.0
2.0,69.0,100.0,0.0
2.0,71.0,100.0,196.0
2.0,67.0,100.0,0.0
2.0,69.0,100.0,196.0
2.0,66.0,100.0,0.0
2.0,67.0,100.0,196.0
2.0,71.0,100.0,0.0
2.0,66.0,100.0,196.0
2.0,69.0,100.0,0.0
2.0,71.0,100.0,196.0
2.0,67.0,100.0,0.0
2.0,69.0,100.0,196.0
2.0,66.0,100.0,0.0
2.0,67.0,100.0,196.0
2.0,71.0,100.0,0.0
2.0,66.0,100.0,196.0
2.0,69.0,100.0,0.0
2.0,71.0,100.0,196.0
2.0,67.0,100.0,0.0
2.0,69.0,100.0,196.0
2.0,66.0,100.0,0.0
2.0,67.0,100.0,196.0
2.0,71.0,100.0,0.0
2.0,66.0,100.0,196.0
2.0,69.0,100.0,0.0
2.0,71.0,100.0,196.0
2.0,67.0,100.0,0.0
2.0,69.0,100.0,196.0
2.0,66.0,100.0,0.0
2.0,67.0,100.0,4.0
2.0,71.0,100.0,0.0
2.0,69.0,100.0,4.0
2.0,72.0,100.0,0.0
2.0,72.0,100.0,4.0
2.0,76.0,100.0,0.0
2.0,71.0,100.0,4.0
2.0,74.0,100.0,0.0
2.0,67.0,100.0,4.0
2.0,71.0,100.0,0.0
2.0,69.0,100.0,4.0
2.0,72.0,100.0,0.0
2.0,72.0,100.0,4.0
2.0,76.0,100.0,0.0
2.0,71.0,100.0,4.0
2.0,74.0,100.0,0.0
2.0,67.0,100.0,4.0
2.0,71.0,100.0,0.0
2.0,69.0,100.0,4.0
2.0,72.0,100.0,0.0
2.0,72.0,100.0,4.0
2.0,76.0,100.0,0.0
2.0,71.0,100.0,4.0
2.0,74.0,100.0,0.0
2.0,71.0,100.0,4.0
2.0,67.0,100.0,0.0
2.0,72.0,100.0,4.0
2.0,69.0,100.0,0.0
2.0,71.0,100.0,4.0
2.0,75.0,100.0,0.0
2.0,65.0,100.0,4.0
2.0,71.0,100.0,0.0
2.0,75.0,100.0,0.0
2.0,67.0,100.0,196.0
2.0,71.0,100.0,0.0
2.0,66.0,100.0,196.0
2.0,69.0,100.0,0.0
2.0,67.0,100.0,196.0
2.0,71.0,100.0,0.0
2.0,69.0,100.0,196.0
2.0,66.0,100.0,0.0
2.0,67.0,100.0,196.0
2.0,71.0,100.0,0.0
2.0,66.0,100.0,196.0
2.0,69.0,100.0,0.0
2.0,67.0,100.0,196.0
2.0,71.0,100.0,0.0
2.0,69.0,100.0,196.0
2.0,66.0,100.0,0.0
2.0,67.0,100.0,196.0
2.0,71.0,100.0,0.0
2.0,66.0,100.0,196.0
2.0,69.0,100.0,0.0
2.0,71.0,100.0,196.0
2.0,67.0,100.0,0.0
2.0,69.0,100.0,196.0
2.0,66.0,100.0,0.0
2.0,67.0,100.0,196.0
2.0,71.0,100.0,0.0
2.0,66.0,100.0,196.0
2.0,69.0,100.0,0.0
2.0,71.0,100.0,196.0
2.0,67.0,100.0,0.0
2.0,69.0,100.0,196.0
2.0,66.0,100.0,0.0
2.0,67.0,100.0,196.0
2.0,71.0,100.0,0.0
2.0,66.0,100.0,196.0
2.0,69.0,100.0,0.0
2.0,71.0,100.0,196.0
2.0,67.0,100.0,0.0
2.0,69.0,100.0,196.0
2.0,66.0,100.0,0.0
2.0,67.0,100.0,196.0
2.0,71.0,100.0,0.0
2.0,66.0,100.0,196.0
2.0,69.0,100.0,0.0
2.0,71.0,100.0,196.0
2.0,67.0,100.0,0.0
2.0,69.0,100.0,196.0
2.0,66.0,100.0,0.0
2.0,67.0,100.0,4.0
2.0,71.0,100.0,0.0
2.0,69.0,100.0,4.0
2.0,72.0,100.0,0.0
2.0,72.0,100.0,4.0
2.0,76.0,100.0,0.0
2.0,71.0,100.0,4.0
2.0,74.0,100.0,0.0
2.0,67.0,100.0,4.0
2.0,71.0,100.0,0.0
2.0,69.0,100.0,4.0
2.0,72.0,100.0,0.0
2.0,72.0,100.0,4.0
2.0,76.0,100.0,0.0
2.0,71.0,100.0,4.0
2.0,74.0,100.0,0.0
2.0,67.0,100.0,4.0
2.0,71.0,100.0,0.0
2.0,69.0,100.0,4.0
2.0,72.0,100.0,0.0
2.0,72.0,100.0,4.0
2.0,76.0,100.0,0.0
2.0,71.0,100.0,4.0
2.0,74.0,100.0,0.0
2.0,71.0,100.0,4.0
2.0,67.0,100.0,0.0
2.0,72.0,100.0,4.0
2.0,69.0,100.0,0.0
2.0,71.0,100.0,4.0
2.0,75.0,100.0,0.0
2.0,65.0,100.0,4.0
2.0,71.0,100.0,0.0
2.0,75.0,100.0,0.0
2.0,67.0,100.0,18436.0
2.0,71.0,100.0,0.0
2.0,69.0,100.0,4.0
2.0,72.0,100.0,0.0
2.0,72.0,100.0,4.0
2.0,76.0,100.0,0.0
2.0,71.0,100.0,4.0
2.0,74.0,100.0,0.0
2.0,67.0,100.0,4.0
2.0,71.0,100.0,0.0
2.0,69.0,100.0,4.0
2.0,72.0,100.0,0.0
2.0,72.0,100.0,4.0
2.0,76.0,100.0,0.0
2.0,71.0,100.0,4.0
2.0,74.0,100.0,0.0
2.0,67.0,100.0,4.0
2.0,71.0,100.0,0.0
2.0,69.0,100.0,4.0
2.0,72.0,100.0,0.0
2.0,72.0,100.0,4.0
2.0,76.0,100.0,0.0
2.0,71.0,100.0,4.0
2.0,74.0,100.0,0.0
2.0,71.0,100.0,4.0
2.0,67.0,100.0,0.0
2.0,72.0,100.0,4.0
2.0,69.0,100.0,0.0
2.0,71.0,100.0,4.0
2.0,75.0,100.0,0.0
2.0,65.0,100.0,4.0
2.0,71.0,100.0,0.0
2.0,75.0,100.0,0.0
2.0,67.0,100.0,4.0
2.0,71.0,100.0,0.0
2.0,66.0,100.0,4.0
2.0,69.0,100.0,0.0
2.0,67.0,100.0,4.0
2.0,64.0,100.0,0.0
2.0,57.0,100.0,4.0
2.0,64.0,100.0,0.0
2.0,69.0,100.0,0.0
3.0,81.0,100.0,1536.0
3.0,93.0,100.0,4.0
3.0,84.0,100.0,4.0
3.0,81.0,100.0,964.0
3.0,93.0,100.0,4.0
3.0,89.0,100.0,4.0
3.0,81.0,100.0,964.0
3.0,93.0,100.0,4.0
3.0,84.0,100.0,4.0
3.0,81.0,100.0,964.0
3.0,93.0,100.0,4.0
3.0,89.0,100.0,4.0
3.0,81.0,100.0,964.0
3.0,93.0,100.0,4.0
3.0,84.0,100.0,4.0
3.0,81.0,100.0,964.0
3.0,93.0,100.0,4.0
3.0,89.0,100.0,4.0
3.0,81.0,100.0,964.0
3.0,93.0,100.0,4.0
3.0,84.0,100.0,4.0
3.0,81.0,100.0,964.0
3.0,93.0,100.0,4.0
3.0,89.0,100.0,4.0
3.0,81.0,100.0,964.0
3.0,93.0,100.0,4.0
3.0,84.0,100.0,4.0
3.0,81.0,100.0,196.0
3.0,77.0,100.0,196.0
3.0,67.0,100.0,18628.0
3.0,71.0,100.0,0.0
3.0,69.0,100.0,4.0
3.0,72.0,100.0,0.0
3.0,72.0,100.0,4.0
3.0,76.0,100.0,0.0
3.0,71.0,100.0,4.0
3.0,74.0,100.0,0.0
3.0,67.0,100.0,4.0
3.0,71.0,100.0,0.0
3.0,69.0,100.0,4.0
3.0,72.0,100.0,0.0
3.0,72.0,100.0,4.0
3.0,76.0,100.0,0.0
3.0,71.0,100.0,4.0
3.0,74.0,100.0,0.0
3.0,67.0,100.0,4.0
3.0,71.0,100.0,0.0
3.0,69.0,100.0,4.0
3.0,72.0,100.0,0.0
3.0,72.0,100.0,4.0
3.0,76.0,100.0,0.0
3.0,71.0,100.0,4.0
3.0,74.0,100.0,0.0
3.0,67.0,100.0,4.0
3.0,71.0,100.0,0.0
3.0,72.0,100.0,4.0
3.0,69.0,100.0,0.0
3.0,75.0,100.0,4.0
3.0,71.0,100.0,0.0
3.0,67.0,100.0,21508.0
3.0,71.0,100.0,0.0
3.0,69.0,100.0,4.0
3.0,72.0,100.0,0.0
3.0,72.0,100.0,4.0
3.0,76.0,100.0,0.0
3.0,71.0,100.0,4.0
3.0,74.0,100.0,0.0
3.0,67.0,100.0,4.0
3.0,71.0,100.0,0.0
3.0,69.0,100.0,4.0
3.0,72.0,100.0,0.0
3.0,72.0,100.0,4.0
3.0,76.0,100.0,0.0
3.0,71.0,100.0,4.0
3.0,74.0,100.0,0.0
3.0,67.0,100.0,4.0
3.0,71.0,100.0,0.0
3.0,69.0,100.0,4.0
3.0,72.0,100.0,0.0
3.0,72.0,100.0,4.0
3.0,76.0,100.0,0.0
3.0,71.0,100.0,4.0
3.0,74.0,100.0,0.0
3.0,67.0,100.0,4.0
3.0,71.0,100.0,0.0
3.0,72.0,100.0,4.0
3.0,69.0,100.0,0.0
3.0,75.0,100.0,4.0
3.0,71.0,100.0,0.0
3.0,62.0,100.0,3076.0
3.0,65.0,100.0,0.0
3.0,69.0,100.0,0.0
3.0,72.0,100.0,0.0
3.0,62.0,100.0,4.0
3.0,66.0,100.0,0.0
3.0,69.0,100.0,0.0
3.0,72.0,100.0,0.0
3.0,52.0,100.0,8.0
3.0,67.0,100.0,0.0
3.0,72.0,100.0,0.0
3.0,67.0,100.0,4.0
3.0,71.0,100.0,0.0
3.0,69.0,100.0,4.0
3.0,72.0,100.0,0.0
3.0,72.0,100.0,4.0
3.0,76.0,100.0,0.0
3.0,71.0,100.0,4.0
3.0,74.0,100.0,0.0
3.0,67.0,100.0,4.0
3.0,71.0,100.0,0.0
3.0,69.0,100.0,4.0
3.0,72.0,100.0,0.0
3.0,72.0,100.0,4.0
3.0,76.0,100.0,0.0
3.0,71.0,100.0,4.0
3.0,74.0,100.0,0.0
3.0,67.0,100.0,4.0
3.0,71.0,100.0,0.0
3.0,69.0,100.0,4.0
3.0,72.0,100.0,0.0
3.0,72.0,100.0,4.0
3.0,76.0,100.0,0.0
3.0,71.0,100.0,4.0
3.0,74.0,100.0,0.0
3.0,67.0,100.0,4.0
3.0,71.0,100.0,0.0
3.0,72.0,100.0,4.0
3.0,69.0,100.0,0.0
3.0,75.0,100.0,4.0
3.0,71.0,100.0,0.0
3.0,67.0,100.0,3076.0
3.0,71.0,100.0,0.0
3.0,66.0,100.0,4.0
3.0,69.0,100.0,0.0
3.0,67.0,100.0,4.0
3.0,64.0,100.0,0.0
3.0,57.0,100.0,4.0
3.0,64.0,100.0,0.0
3.0,69.0,100.0,0.0
4.0,53.0,100.0,1536.0
4.0,52.0,100.0,4.0
4.0,52.0,100.0,4.0
4.0,52.0,100.0,4.0
4.0,52.0,100.0,4.0
4.0,52.0,100.0,4.0
4.0,52.0,100.0,4.0
4.0,55.0,100.0,4.0
4.0,55.0,100.0,4.0
4.0,55.0,100.0,4.0
4.0,55.0,100.0,4.0
4.0,57.0,100.0,4.0
4.0,59.0,100.0,4.0
4.0,59.0,100.0,4.0
4.0,52.0,100.0,4.0
4.0,52.0,100.0,4.0
4.0,52.0,100.0,4.0
4.0,52.0,100.0,4.0
4.0,52.0,100.0,4.0
4.0,52.0,100.0,4.0
4.0,55.0,100.0,4.0
4.0,55.0,100.0,4.0
4.0,55.0,100.0,4.0
4.0,55.0,100.0,4.0
4.0,57.0,100.0,4.0
4.0,59.0,100.0,4.0
4.0,59.0,100.0,4.0
4.0,55.0,100.0,18436.0
4.0,55.0,100.0,4.0
4.0,55.0,100.0,4.0
4.0,55.0,100.0,4.0
4.0,57.0,100.0,4.0
4.0,59.0,100.0,4.0
4.0,59.0,100.0,4.0
4.0,52.0,100.0,4.0
4.0,57.0,100.0,4.0
5.0,67.0,100.0,0.0
5.0,62.0,100.0,4.0
5.0,67.0,100.0,4.0
5.0,62.0,100.0,4.0
5.0,67.0,100.0,4.0
5.0,62.0,100.0,4.0
5.0,67.0,100.0,4.0
5.0,62.0,100.0,4.0
5.0,64.0,100.0,4.0
5.0,64.0,100.0,4.0
5.0,64.0,100.0,4.0
5.0,64.0,100.0,4.0
5.0,64.0,100.0,4.0
5.0,64.0,100.0,4.0
5.0,64.0,100.0,4.0
5.0,64.0,100.0,4.0
5.0,64.0,100.0,4.0
5.0,64.0,100.0,4.0
5.0,64.0,100.0,4.0
5.0,64.0,100.0,4.0
5.0,64.0,100.0,4.0
5.0,64.0,100.0,4.0
5.0,64.0,100.0,4.0
5.0,64.0,100.0,4.0
5.0,64.0,100.0,4.0
5.0,64.0,100.0,4.0
5.0,64.0,100.0,4.0
5.0,64.0,100.0,4.0
5.0,64.0,100.0,4.0
5.0,64.0,100.0,4.0
5.0,64.0,100.0,4.0
5.0,64.0,100.0,4.0
5.0,64.0,100.0,4.0
5.0,64.0,100.0,4.0
5.0,64.0,100.0,4.0
5.0,64.0,100.0,4.0
5.0,64.0,100.0,4.0
5.0,64.0,100.0,4.0
5.0,64.0,100.0,4.0
5.0,64.0,100.0,4.0
5.0,64.0,100.0,4.0
5.0,64.0,100.0,4.0
5.0,64.0,100.0,4.0
5.0,64.0,100.0,4.0
5.0,64.0,100.0,4.0
5.0,64.0,100.0,4.0
5.0,64.0,100.0,4.0
5.0,64.0,100.0,4.0
5.0,64.0,100.0,4.0
5.0,64.0,100.0,4.0
5.0,64.0,100.0,4.0
5.0,64.0,100.0,4.0
5.0,64.0,100.0,4.0
5.0,64.0,100.0,4.0
5.0,64.0,100.0,4.0
5.0,64.0,100.0,4.0
5.0,64.0,100.0,4.0
5.0,64.0,100.0,4.0
5.0,64.0,100.0,4.0
5.0,64.0,100.0,4.0
5.0,64.0,100.0,4.0
5.0,64.0,100.0,4.0
5.0,64.0,100.0,4.0
5.0,64.0,100.0,4.0
5.0,64.0,100.0,4.0
5.0,64.0,100.0,4.0
5.0,64.0,100.0,4.0
5.0,64.0,100.0,4.0
5.0,64.0,100.0,4.0
5.0,64.0,100.0,4.0
5.0,64.0,100.0,4.0
5.0,64.0,100.0,4.0
5.0,64.0,100.0,4.0
5.0,64.0,100.0,4.0
5.0,64.0,100.0,4.0
5.0,64.0,100.0,4.0
5.0,64.0,100.0,4.0
5.0,64.0,100.0,4.0
5.0,64.0,100.0,4.0
5.0,64.0,100.0,4.0
6.0,81.0,100.0,82944.0
6.0,74.0,100.0,0.0
6.0,76.0,100.0,4.0
6.0,83.0,100.0,0.0
6.0,74.0,100.0,4.0
6.0,81.0,100.0,0.0
6.0,69.0,100.0,388.0
6.0,74.0,100.0,0.0
6.0,71.0,100.0,4.0
6.0,76.0,100.0,0.0
6.0,69.0,100.0,4.0
6.0,74.0,100.0,0.0
6.0,62.0,100.0,388.0
6.0,69.0,100.0,0.0
6.0,62.0,100.0,4.0
6.0,69.0,100.0,0.0
6.0,62.0,100.0,4.0
6.0,69.0,100.0,0.0
6.0,64.0,100.0,4.0
6.0,71.0,100.0,0.0
6.0,64.0,100.0,4.0
6.0,71.0,100.0,0.0
6.0,67.0,100.0,8.0
6.0,74.0,100.0,0.0
6.0,69.0,100.0,4.0
6.0,76.0,100.0,0.0
6.0,81.0,100.0,3652.0
6.0,74.0,100.0,0.0
6.0,76.0,100.0,4.0
6.0,83.0,100.0,0.0
6.0,74.0,100.0,4.0
6.0,81.0,100.0,0.0
6.0,69.0,100.0,4.0
6.0,74.0,100.0,0.0
6.0,71.0,100.0,4.0
6.0,76.0,100.0,0.0
6.0,69.0,100.0,4.0
6.0,74.0,100.0,0.0
6.0,62.0,100.0,388.0
6.0,69.0,100.0,0.0
6.0,62.0,100.0,4.0
6.0,69.0,100.0,0.0
6.0,62.0,100.0,4.0
6.0,69.0,100.0,0.0
6.0,64.0,100.0,4.0
6.0,71.0,100.0,0.0
6.0,64.0,100.0,4.0
6.0,71.0,100.0,0.0
6.0,69.0,100.0,8.0
6.0,74.0,100.0,0.0
6.0,71.0,100.0,4.0
6.0,76.0,100.0,0.0
6.0,76.0,100.0,4.0
0.0,0.0,0.0,0.0
0.0,0.0,0.0,0.0
0.0,0.0,0.0,0.0
0.0,0.0,0.0,0.0
0.0,0.0,0.0,0.0
0.0,0.0,0.0,0.0
0.0,0.0,0.0,0.0
0.0,0.0,0.0,0.0
0.0,0.0,0.0,0.0
0.0,0.0,0.0,0.0
0.0,0.0,0.0,0.0
0.0,0.0,0.0,0.0
0.0,0.0,0.0,0.0
0.0,0.0,0.0,0.0
0.0,0.0,0.0,0.0
0.0,0.0,0.0,0.0
0.0,0.0,0.0,0.0
0.0,0.0,0.0,0.0
0.0,0.0,0.0,0.0
0.0,0.0,0.0,0.0
0.0,0.0,0.0,0.0
0.0,0.0,0.0,0.0
0.0,0.0,0.0,0.0
0.0,0.0,0.0,0.0
0.0,0.0,0.0,0.0
0.0,0.0,0.0,0.0
0.0,0.0,0.0,0.0
0.0,0.0,0.0,0.0
0.0,0.0,0.0,0.0
0.0,0.0,0.0,0.0
0.0,0.0,0.0,0.0
0.0,0.0,0.0,0.0
0.0,0.0,0.0,0.0
0.0,0.0,0.0,0.0
0.0,0.0,0.0,0.0
0.0,0.0,0.0,0.0
0.0,0.0,0.0,0.0
0.0,0.0,0.0,0.0
0.0,0.0,0.0,0.0
0.0,0.0,0.0,0.0
0.0,0.0,0.0,0.0
0.0,0.0,0.0,0.0
0.0,0.0,0.0,0.0
0.0,0.0,0.0,0.0
0.0,0.0,0.0,0.0
0.0,0.0,0.0,0.0
0.0,0.0,0.0,0.0
0.0,0.0,0.0,0.0
0.0,0.0,0.0,0.0
0.0,0.0,0.0,0.0
0.0,0.0,0.0,0.0
0.0,0.0,0.0,0.0
0.0,0.0,0.0,0.0
0.0,0.0,0.0,0.0
0.0,0.0,0.0,0.0
0.0,0.0,0.0,0.0
0.0,0.0,0.0,0.0
0.0,0.0,0.0,0.0
0.0,0.0,0.0,0.0
0.0,0.0,0.0,0.0
0.0,0.0,0.0,0.0
0.0,0.0,0.0,0.0
0.0,0.0,0.0,0.0
0.0,0.0,0.0,0.0
0.0,0.0,0.0,0.0
0.0,0.0,0.0,0.0
0.0,0.0,0.0,0.0
0.0,0.0,0.0,0.0
0.0,0.0,0.0,0.0
0.0,0.0,0.0,0.0
0.0,0.0,0.0,0.0
0.0,0.0,0.0,0.0
0.0,0.0,0.0,0.0
0.0,0.0,0.0,0.0
0.0,0.0,0.0,0.0
0.0,0.0,0.0,0.0
0.0,0.0,0.0,0.0
0.0,0.0,0.0,0.0
0.0,0.0,0.0,0.0
0.0,0.0,0.0,0.0
0.0,0.0,0.0,0.0
0.0,0.0,0.0,0.0
0.0,0.0,0.0,0.0
0.0,0.0,0.0,0.0
0.0,0.0,0.0,0.0
0.0,0.0,0.0,0.0
0.0,0.0,0.0,0.0
0.0,0.0,0.0,0.0
0.0,0.0,0.0,0.0
0.0,0.0,0.0,0.0
0.0,0.0,0.0,0.0
0.0,0.0,0.0,0.0
0.0,0.0,0.0,0.0
0.0,0.0,0.0,0.0
0.0,0.0,0.0,0.0
0.0,0.0,0.0,0.0
0.0,0.0,0.0,0.0
0.0,0.0,0.0,0.0
0.0,0.0,0.0,0.0
0.0,0.0,0.0,0.0
0.0,0.0,0.0,0.0
0.0,0.0,0.0,0.0
0.0,0.0,0.0,0.0
0.0,0.0,0.0,0.0
0.0,0.0,0.0,0.0
0.0,0.0,0.0,0.0
0.0,0.0,0.0,0.0
0.0,0.0,0.0,0.0
0.0,0.0,0.0,0.0
0.0,0.0,0.0,0.0
0.0,0.0,0.0,0.0
0.0,0.0,0.0,0.0
0.0,0.0,0.0,0.0
0.0,0.0,0.0,0.0
0.0,0.0,0.0,0.0
0.0,0.0,0.0,0.0
0.0,0.0,0.0,0.0
0.0,0.0,0.0,0.0
0.0,0.0,0.0,0.0
0.0,0.0,0.0,0.0
0.0,0.0,0.0,0.0
0.0,0.0,0.0,0.0
0.0,0.0,0.0,0.0
0.0,0.0,0.0,0.0
0.0,0.0,0.0,0.0
0.0,0.0,0.0,0.0
0.0,0.0,0.0,0.0
0.0,0.0,0.0,0.0
0.0,0.0,0.0,0.0
0.0,0.0,0.0,0.0
0.0,0.0,0.0,0.0
0.0,0.0,0.0,0.0
0.0,0.0,0.0,0.0
0.0,0.0,0.0,0.0
0.0,0.0,0.0,0.0
0.0,0.0,0.0,0.0
0.0,0.0,0.0,0.0
0.0,0.0,0.0,0.0
0.0,0.0,0.0,0.0
0.0,0.0,0.0,0.0
0.0,0.0,0.0,0.0
0.0,0.0,0.0,0.0
0.0,0.0,0.0,0.0
0.0,0.0,0.0,0.0
0.0,0.0,0.0,0.0
0.0,0.0,0.0,0.0
0.0,0.0,0.0,0.0
0.0,0.0,0.0,0.0
0.0,0.0,0.0,0.0
0.0,0.0,0.0,0.0
0.0,0.0,0.0,0.0
0.0,0.0,0.0,0.0
0.0,0.0,0.0,0.0
0.0,0.0,0.0,0.0
0.0,0.0,0.0,0.0
0.0,0.0,0.0,0.0
0.0,0.0,0.0,0.0
0.0,0.0,0.0,0.0
0.0,0.0,0.0,0.0
0.0,0.0,0.0,0.0
0.0,0.0,0.0,0.0
0.0,0.0,0.0,0.0
0.0,0.0,0.0,0.0
0.0,0.0,0.0,0.0
0.0,0.0,0.0,0.0
0.0,0.0,0.0,0.0
0.0,0.0,0.0,0.0
0.0,0.0,0.0,0.0
0.0,0.0,0.0,0.0
0.0,0.0,0.0,0.0
0.0,0.0,0.0,0.0
0.0,0.0,0.0,0.0
0.0,0.0,0.0,0.0
0.0,0.0,0.0,0.0
0.0,0.0,0.0,0.0
0.0,0.0,0.0,0.0
0.0,0.0,0.0,0.0
0.0,0.0,0.0,0.0
0.0,0.0,0.0,0.0
0.0,0.0,0.0,0.0
0.0,0.0,0.0,0.0
0.0,0.0,0.0,0.0
0.0,0.0,0.0,0.0
0.0,0.0,0.0,0.0
0.0,0.0,0.0,0.0
0.0,0.0,0.0,0.0
0.0,0.0,0.0,0.0
0.0,0.0,0.0,0.0
0.0,0.0,0.0,0.0
0.0,0.0,0.0,0.0
0.0,0.0,0.0,0.0
0.0,0.0,0.0,0.0
0.0,0.0,0.0,0.0
0.0,0.0,0.0,0.0
0.0,0.0,0.0,0.0
0.0,0.0,0.0,0.0
0.0,0.0,0.0,0.0
0.0,0.0,0.0,0.0
0.0,0.0,0.0,0.0
0.0,0.0,0.0,0.0
0.0,0.0,0.0,0.0
0.0,0.0,0.0,0.0
0.0,0.0,0.0,0.0
0.0,0.0,0.0,0.0
0.0,0.0,0.0,0.0
0.0,0.0,0.0,0.0
0.0,0.0,0.0,0.0
0.0,0.0,0.0,0.0
0.0,0.0,0.0,0.0
0.0,0.0,0.0,0.0
0.0,0.0,0.0,0.0
0.0,0.0,0.0,0.0
0.0,0.0,0.0,0.0
0.0,0.0,0.0,0.0
0.0,0.0,0.0,0.0
0.0,0.0,0.0,0.0
0.0,0.0,0.0,0.0
0.0,0.0,0.0,0.0
0.0,0.0,0.0,0.0
0.0,0.0,0.0,0.0
0.0,0.0,0.0,0.0
0.0,0.0,0.0,0.0
0.0,0.0,0.0,0.0
0.0,0.0,0.0,0.0
0.0,0.0,0.0,0.0
0.0,0.0,0.0,0.0
0.0,0.0,0.0,0.0
0.0,0.0,0.0,0.0
0.0,0.0,0.0,0.0
0.0,0.0,0.0,0.0
0.0,0.0,0.0,0.0
0.0,0.0,0.0,0.0
0.0,0.0,0.0,0.0
0.0,0.0,0.0,0.0
0.0,0.0,0.0,0.0
0.0,0.0,0.0,0.0
0.0,0.0,0.0,0.0
0.0,0.0,0.0,0.0
0.0,0.0,0.0,0.0
0.0,0.0,0.0,0.0
0.0,0.0,0.0,0.0
0.0,0.0,0.0,0.0
0.0,0.0,0.0,0.0
0.0,0.0,0.0,0.0
0.0,0.0,0.0,0.0
0.0,0.0,0.0,0.0
0.0,0.0,0.0,0.0
0.0,0.0,0.0,0.0
0.0,0.0,0.0,0.0
0.0,0.0,0.0,0.0
0.0,0.0,0.0,0.0
0.0,0.0,0.0,0.0
0.0,0.0,0.0,0.0
0.0,0.0,0.0,0.0
0.0,0.0,0.0,0.0
0.0,0.0,0.0,0.0
0.0,0.0,0.0,0.0
0.0,0.0,0.0,0.0
0.0,0.0,0.0,0.0
0.0,0.0,0.0,0.0
0.0,0.0,0.0,0.0
0.0,0.0,0.0,0.0
0.0,0.0,0.0,0.0
0.0,0.0,0.0,0.0
0.0,0.0,0.0,0.0
0.0,0.0,0.0,0.0
0.0,0.0,0.0,0.0
0.0,0.0,0.0,0.0
0.0,0.0,0.0,0.0
0.0,0.0,0.0,0.0
0.0,0.0,0.0,0.0
0.0,0.0,0.0,0.0
0.0,0.0,0.0,0.0
0.0,0.0,0.0,0.0
0.0,0.0,0.0,0.0
0.0,0.0,0.0,0.0
0.0,0.0,0.0,0.0
0.0,0.0,0.0,0.0
0.0,0.0,0.0,0.0
0.0,0.0,0.0,0.0
0.0,0.0,0.0,0.0
0.0,0.0,0.0,0.0
0.0,0.0,0.0,0.0
0.0,0.0,0.0,0.0
0.0,0.0,0.0,0.0
0.0,0.0,0.0,0.0
0.0,0.0,0.0,0.0
0.0,0.0,0.0,0.0
0.0,0.0,0.0,0.0
0.0,0.0,0.0,0.0
0.0,0.0,0.0,0.0
0.0,0.0,0.0,0.0
0.0,0.0,0.0,0.0
0.0,0.0,0.0,0.0
0.0,0.0,0.0,0.0
0.0,0.0,0.0,0.0
0.0,0.0,0.0,0.0
0.0,0.0,0.0,0.0
