track,note,velocity,time
1,72,100,23424
1,72,100,4
1,72,100,4
1,72,100,4
1,72,100,4
1,72,100,4
1,71,100,4
1,69,100,64
1,72,100,576
1,72,100,64
1,71,100,64
1,69,100,64
1,72,100,64
1,72,100,64
1,72,100,64
1,72,100,64
1,72,100,64
1,72,100,64
1,71,100,64
1,69,100,64
1,74,100,1344
1,74,100,64
1,74,100,64
1,74,100,64
1,74,100,64
1,72,100,64
1,72,100,64
1,71,100,64
1,74,100,960
1,74,100,64
1,74,100,64
1,74,100,64
1,74,100,64
1,74,100,64
1,74,100,64
1,72,100,64
1,72,100,64
1,71,100,64
1,69,100,1152
1,77,100,64
1,77,100,64
1,77,100,64
1,77,100,64
1,77,100,64
1,76,100,64
1,76,100,64
1,74,100,64
1,77,100,1344
1,77,100,64
1,77,100,64
1,77,100,64
1,77,100,64
1,76,100,64
1,76,100,64
1,74,100,64
1,76,100,1344
1,76,100,64
1,64,100,64
1,64,100,64
1,76,100,64
1,76,100,64
1,74,100,64
1,72,100,64
1,76,100,1344
1,76,100,64
1,76,100,64
1,76,100,64
1,76,100,64
1,76,100,64
1,74,100,64
1,72,100,64
1,72,100,1344
1,72,100,64
1,74,100,64
1,74,100,64
1,74,100,64
1,72,100,64
1,72,100,64
1,71,100,64
1,74,100,384
1,74,100,64
1,72,100,64
1,72,100,64
1,71,100,64
1,74,100,64
1,74,100,64
1,74,100,64
1,74,100,64
1,74,100,64
1,72,100,64
1,72,100,64
1,71,100,64
1,76,100,10368
1,76,100,64
1,76,100,64
1,76,100,64
1,74,100,88
1,72,100,88
1,76,100,88
1,72,100,1408
1,72,100,64
1,72,100,64
1,72,100,64
1,72,100,64
1,72,100,64
1,71,100,64
1,69,100,64
1,62,100,1152
1,72,100,64
1,72,100,64
1,72,100,64
1,72,100,64
1,72,100,64
1,72,100,32
1,72,100,32
1,72,100,32
1,71,100,32
1,69,100,64
1,74,100,1344
1,74,100,64
1,74,100,64
1,74,100,64
1,74,100,64
1,72,100,64
1,72,100,64
1,71,100,64
1,74,100,1728
1,74,100,64
1,74,100,64
1,72,100,64
1,72,100,64
1,71,100,64
1,77,100,1344
1,77,100,64
1,77,100,64
1,77,100,64
1,77,100,64
1,76,100,96
1,76,100,32
1,74,100,64
1,77,100,1344
1,77,100,64
1,77,100,64
1,77,100,64
1,77,100,64
1,76,100,96
1,76,100,32
1,74,100,64
1,76,100,1344
1,76,100,64
1,64,100,64
1,64,100,64
1,76,100,64
1,76,100,64
1,74,100,64
1,72,100,64
1,76,100,1344
1,76,100,64
1,76,100,64
1,76,100,64
1,76,100,64
1,76,100,64
1,74,100,64
1,72,100,64
1,72,100,1344
1,72,100,64
1,74,100,64
1,74,100,64
1,74,100,64
1,72,100,64
1,72,100,64
1,71,100,64
1,74,100,576
1,72,100,64
1,72,100,64
1,71,100,64
1,74,100,64
1,74,100,64
1,74,100,64
1,74,100,64
1,74,100,64
1,72,100,64
1,72,100,64
1,71,100,64
1,69,100,2496
1,67,100,4
1,69,100,4
1,67,100,4
1,69,100,4
1,67,100,4
1,69,100,4
1,67,100,4
1,69,100,4
1,67,100,4
1,69,100,196
1,67,100,4
1,69,100,4
1,67,100,4
1,69,100,4
1,67,100,4
1,69,100,4
1,67,100,4
1,69,100,4
1,67,100,4
1,69,100,4
1,69,100,4
1,67,100,4
1,69,100,4
1,67,100,4
1,69,100,4
1,67,100,4
1,69,100,4
1,67,100,4
1,69,100,4
1,67,100,4
1,69,100,196
1,66,100,0
1,69,100,4
1,74,100,0
1,62,100,4
1,66,100,0
1,69,100,0
1,76,100,7684
1,76,100,64
1,76,100,64
1,76,100,64
1,74,100,32
1,74,100,96
1,74,100,64
1,74,100,64
1,72,100,32
1,72,100,64
1,72,100,64
1,72,100,64
1,71,100,32
1,71,100,96
1,71,100,64
1,69,100,64
1,64,100,448
1,64,100,64
1,72,100,64
1,72,100,64
1,72,100,64
1,71,100,64
1,71,100,64
1,69,100,64
1,72,100,768
1,71,100,64
1,69,100,64
1,72,100,64
1,72,100,64
1,72,100,64
1,72,100,64
1,72,100,64
1,72,100,64
1,71,100,64
1,69,100,64
1,74,100,1344
1,74,100,64
1,74,100,64
1,74,100,64
1,74,100,64
1,72,100,64
1,72,100,64
1,71,100,64
1,74,100,1152
1,74,100,64
1,74,100,64
1,74,100,64
1,74,100,64
1,74,100,64
1,72,100,64
1,72,100,64
1,71,100,64
1,74,100,576
1,74,100,64
1,72,100,64
1,67,100,64
1,77,100,64
1,77,100,64
1,77,100,64
1,77,100,64
1,77,100,64
1,76,100,64
1,76,100,64
1,74,100,64
1,77,100,1344
1,77,100,64
1,77,100,64
1,77,100,64
1,77,100,64
1,76,100,64
1,76,100,64
1,74,100,64
1,76,100,1344
1,76,100,64
1,64,100,64
1,64,100,64
1,76,100,64
1,76,100,64
1,74,100,64
1,72,100,64
1,76,100,1536
1,76,100,64
1,76,100,64
1,76,100,64
1,76,100,64
1,74,100,64
1,72,100,64
1,67,100,1152
1,67,100,64
1,67,100,64
1,74,100,64
1,74,100,64
1,74,100,64
1,72,100,64
1,72,100,64
1,71,100,64
1,74,100,576
1,72,100,64
1,72,100,64
1,71,100,32
1,74,100,32
1,74,100,32
1,72,100,32
1,71,100,64
1,74,100,256
1,74,100,32
1,74,100,32
1,74,100,32
1,74,100,32
1,72,100,32
1,72,100,32
1,71,100,64
1,69,100,2496
1,67,100,4
1,69,100,4
1,67,100,4
1,69,100,4
1,67,100,4
1,69,100,4
1,67,100,4
1,69,100,4
1,67,100,4
1,69,100,196
1,67,100,4
1,69,100,4
1,67,100,4
1,69,100,4
1,67,100,4
1,69,100,4
1,67,100,4
1,69,100,4
1,67,100,4
1,69,100,4
1,69,100,4
1,67,100,4
1,69,100,4
1,67,100,4
1,69,100,4
1,67,100,4
1,69,100,4
1,67,100,4
1,69,100,4
1,67,100,4
1,69,100,196
1,66,100,0
1,69,100,4
1,74,100,0
1,62,100,4
1,66,100,0
1,69,100,0
1,69,100,4
1,67,100,4
1,69,100,4
1,67,100,4
1,69,100,4
1,67,100,4
1,69,100,4
1,67,100,4
1,69,100,4
1,67,100,4
1,69,100,196
1,67,100,4
1,69,100,4
1,67,100,4
1,69,100,4
1,67,100,4
1,69,100,4
1,67,100,4
1,69,100,4
1,67,100,4
1,69,100,4
1,69,100,4
1,67,100,4
1,69,100,4
1,67,100,4
1,69,100,4
1,67,100,4
1,69,100,4
1,67,100,4
1,69,100,4
1,67,100,4
1,69,100,196
1,66,100,0
1,69,100,4
1,74,100,0
1,62,100,4
1,66,100,0
1,69,100,0
1,72,100,4
2,64,100,6144
2,69,100,0
2,67,100,4
2,64,100,4
2,67,100,4
2,64,100,4
2,69,100,0
2,67,100,4
2,64,100,4
2,67,100,4
2,65,100,4
2,74,100,0
2,72,100,4
2,69,100,4
2,72,100,4
2,65,100,4
2,74,100,0
2,76,100,4
2,74,100,4
2,72,100,4
2,69,100,4
2,64,100,4
2,69,100,0
2,67,100,4
2,64,100,4
2,67,100,4
2,64,100,4
2,69,100,0
2,67,100,4
2,64,100,4
2,67,100,4
2,65,100,4
2,74,100,0
2,72,100,4
2,69,100,4
2,72,100,4
2,65,100,4
2,74,100,0
2,76,100,4
2,74,100,4
2,72,100,4
2,69,100,4
2,62,100,4
2,69,100,0
2,67,100,4
2,62,100,4
2,65,100,4
2,62,100,4
2,69,100,0
2,67,100,4
2,62,100,4
2,65,100,4
2,64,100,4
2,69,100,0
2,71,100,4
2,68,100,4
2,68,100,4
2,64,100,0
2,60,100,4
2,64,100,0
2,60,100,4
2,64,100,0
2,60,100,4
2,64,100,0
2,60,100,4
2,64,100,0
2,62,100,4
2,65,100,0
2,62,100,4
2,65,100,0
2,62,100,4
2,65,100,0
2,62,100,4
2,65,100,0
2,59,100,4
2,62,100,0
2,67,100,0
2,59,100,4
2,62,100,0
2,67,100,0
2,59,100,4
2,62,100,0
2,68,100,0
2,59,100,4
2,62,100,0
2,68,100,0
2,60,100,4
2,64,100,0
2,69,100,0
2,60,100,4
2,64,100,0
2,69,100,0
2,67,100,4
2,64,100,0
2,67,100,4
2,64,100,0
2,67,100,4
2,62,100,0
2,60,100,4
2,65,100,0
2,68,100,4
2,64,100,0
2,62,100,0
2,62,100,4
2,68,100,0
2,64,100,0
2,76,100,4
2,72,100,0
2,69,100,0
2,74,100,4
2,69,100,0
2,64,100,0
2,72,100,4
2,69,100,0
2,64,100,0
2,71,100,4
2,64,100,0
2,60,100,0
2,69,100,196
2,72,100,4
2,69,100,0
2,65,100,0
2,76,100,4
2,69,100,4
2,65,100,0
2,60,100,0
2,69,100,4
2,65,100,0
2,62,100,4
2,69,100,0
2,66,100,0
2,62,100,4
2,69,100,0
2,66,100,0
2,64,100,4
2,60,100,0
2,60,100,4
2,64,100,0
2,60,100,4
2,64,100,0
2,60,100,4
2,64,100,0
2,62,100,4
2,65,100,0
2,62,100,4
2,65,100,0
2,62,100,4
2,65,100,0
2,62,100,4
2,65,100,0
2,67,100,4
2,71,100,0
2,67,100,4
2,71,100,0
2,71,100,4
2,68,100,0
2,62,100,4
2,64,100,0
2,68,100,0
2,60,100,4
2,64,100,0
2,69,100,0
2,60,100,4
2,64,100,0
2,69,100,0
2,64,100,4
2,67,100,0
2,64,100,4
2,67,100,0
2,62,100,4
2,67,100,0
2,69,100,4
2,65,100,0
2,68,100,4
2,64,100,0
2,62,100,0
2,68,100,4
2,64,100,0
2,62,100,0
2,60,100,4
2,64,100,0
2,76,100,0
2,60,100,4
2,64,100,0
2,74,100,0
2,60,100,4
2,64,100,0
2,72,100,0
2,60,100,4
2,64,100,0
2,71,100,0
2,72,100,4
2,76,100,4
2,69,100,4
2,72,100,772
2,74,100,4
2,76,100,4
2,78,100,4
2,64,100,1156
2,69,100,0
2,72,100,0
2,64,100,4
2,69,100,0
2,72,100,0
2,65,100,4
2,69,100,0
2,72,100,0
2,69,100,4
2,65,100,0
2,69,100,4
2,66,100,0
2,52,100,4
2,64,100,0
2,60,100,4
2,64,100,0
2,60,100,4
2,64,100,0
2,60,100,4
2,64,100,0
2,60,100,4
2,64,100,0
2,62,100,4
2,65,100,0
2,62,100,4
2,65,100,0
2,62,100,4
2,65,100,0
2,62,100,4
2,65,100,0
2,59,100,4
2,62,100,0
2,67,100,0
2,59,100,4
2,62,100,0
2,67,100,0
2,59,100,4
2,62,100,0
2,68,100,0
2,59,100,4
2,62,100,0
2,68,100,0
2,60,100,4
2,64,100,0
2,69,100,0
2,60,100,4
2,64,100,0
2,69,100,0
2,67,100,4
2,64,100,0
2,67,100,4
2,64,100,0
2,67,100,4
2,62,100,0
2,60,100,4
2,65,100,0
2,68,100,4
2,64,100,0
2,62,100,0
2,68,100,4
2,62,100,0
2,64,100,0
2,60,100,4
2,64,100,0
2,76,100,0
2,60,100,4
2,64,100,0
2,74,100,0
2,60,100,4
2,64,100,0
2,72,100,0
2,60,100,4
2,64,100,0
2,71,100,0
2,72,100,4
2,76,100,4
2,69,100,4
2,72,100,772
2,74,100,4
2,76,100,4
2,78,100,4
2,60,100,1156
2,64,100,0
2,76,100,0
2,60,100,4
2,64,100,0
2,74,100,0
2,60,100,4
2,64,100,0
2,72,100,0
2,60,100,4
2,64,100,0
2,71,100,0
2,72,100,4
2,76,100,4
2,69,100,4
2,72,100,772
2,74,100,4
2,76,100,4
2,78,100,4
2,60,100,1156
2,64,100,0
2,69,100,0
3,64,100,6144
3,65,100,4
3,64,100,4
3,65,100,4
3,62,100,4
3,64,100,4
3,68,100,4
3,64,100,0
3,60,100,4
3,64,100,0
3,60,100,4
3,64,100,0
3,60,100,4
3,64,100,0
3,60,100,4
3,64,100,0
3,62,100,4
3,65,100,0
3,62,100,4
3,65,100,0
3,62,100,4
3,65,100,0
3,62,100,4
3,65,100,0
3,59,100,4
3,62,100,0
3,67,100,0
3,59,100,4
3,62,100,0
3,67,100,0
3,59,100,4
3,62,100,0
3,68,100,0
3,59,100,4
3,62,100,0
3,68,100,0
3,60,100,4
3,64,100,0
3,69,100,0
3,60,100,4
3,64,100,0
3,69,100,0
3,67,100,4
3,64,100,0
3,67,100,4
3,64,100,0
3,67,100,4
3,62,100,0
3,60,100,4
3,65,100,0
3,68,100,4
3,64,100,0
3,62,100,0
3,62,100,4
3,68,100,0
3,64,100,0
3,76,100,4
3,72,100,0
3,69,100,0
3,74,100,4
3,69,100,0
3,64,100,0
3,72,100,4
3,69,100,0
3,64,100,0
3,71,100,4
3,64,100,0
3,60,100,0
3,69,100,196
3,72,100,4
3,69,100,0
3,65,100,0
3,76,100,4
3,69,100,4
3,65,100,0
3,60,100,0
3,69,100,4
3,65,100,0
3,62,100,4
3,69,100,0
3,66,100,0
3,62,100,4
3,69,100,0
3,66,100,0
3,64,100,4
3,60,100,0
3,60,100,4
3,64,100,0
3,60,100,4
3,64,100,0
3,60,100,4
3,64,100,0
3,62,100,4
3,65,100,0
3,62,100,4
3,65,100,0
3,62,100,4
3,65,100,0
3,62,100,4
3,65,100,0
3,67,100,4
3,71,100,0
3,67,100,4
3,71,100,0
3,71,100,4
3,68,100,0
3,62,100,4
3,64,100,0
3,68,100,0
3,60,100,4
3,64,100,0
3,69,100,0
3,60,100,4
3,64,100,0
3,69,100,0
3,64,100,4
3,67,100,0
3,64,100,4
3,67,100,0
3,62,100,4
3,67,100,0
3,69,100,4
3,65,100,0
3,68,100,4
3,64,100,0
3,62,100,0
3,68,100,4
3,64,100,0
3,62,100,0
3,60,100,4
3,64,100,0
3,76,100,0
3,60,100,4
3,64,100,0
3,74,100,0
3,60,100,4
3,64,100,0
3,72,100,0
3,60,100,4
3,64,100,0
3,71,100,0
3,72,100,4
3,76,100,4
3,69,100,4
3,72,100,772
3,74,100,4
3,76,100,4
3,78,100,4
3,64,100,1156
3,69,100,0
3,72,100,0
3,64,100,4
3,69,100,0
3,72,100,0
3,65,100,4
3,69,100,0
3,72,100,0
3,69,100,4
3,65,100,0
3,69,100,4
3,66,100,0
3,52,100,4
3,64,100,0
3,60,100,4
3,64,100,0
3,60,100,4
3,64,100,0
3,60,100,4
3,64,100,0
3,60,100,4
3,64,100,0
3,62,100,4
3,65,100,0
3,62,100,4
3,65,100,0
3,62,100,4
3,65,100,0
3,62,100,4
3,65,100,0
3,59,100,4
3,62,100,0
3,67,100,0
3,59,100,4
3,62,100,0
3,67,100,0
3,59,100,4
3,62,100,0
3,68,100,0
3,59,100,4
3,62,100,0
3,68,100,0
3,60,100,4
3,64,100,0
3,69,100,0
3,60,100,4
3,64,100,0
3,69,100,0
3,67,100,4
3,64,100,0
3,67,100,4
3,64,100,0
3,67,100,4
3,62,100,0
3,60,100,4
3,65,100,0
3,68,100,4
3,64,100,0
3,62,100,0
3,68,100,4
3,62,100,0
3,64,100,0
3,60,100,4
3,64,100,0
3,76,100,0
3,60,100,4
3,64,100,0
3,74,100,0
3,60,100,4
3,64,100,0
3,72,100,0
3,60,100,4
3,64,100,0
3,71,100,0
3,72,100,4
3,76,100,4
3,69,100,4
3,72,100,772
3,74,100,4
3,76,100,4
3,78,100,4
3,60,100,1156
3,64,100,0
3,76,100,0
3,60,100,4
3,64,100,0
3,74,100,0
3,60,100,4
3,64,100,0
3,72,100,0
3,60,100,4
3,64,100,0
3,71,100,0
3,72,100,4
3,76,100,4
3,69,100,4
3,72,100,772
3,74,100,4
3,76,100,4
3,78,100,4
3,60,100,1156
3,64,100,0
3,69,100,0
4,45,100,0
4,45,100,196
4,45,100,196
4,45,100,4
4,45,100,196
4,45,100,388
4,45,100,196
4,45,100,196
4,45,100,4
4,45,100,196
4,45,100,388
4,45,100,196
4,45,100,196
4,45,100,4
4,45,100,196
4,38,100,388
4,38,100,196
4,38,100,196
4,38,100,4
4,38,100,196
4,45,100,388
4,45,100,196
4,45,100,196
4,45,100,4
4,45,100,196
4,38,100,388
4,38,100,196
4,38,100,196
4,38,100,4
4,38,100,196
4,43,100,388
4,43,100,196
4,43,100,196
4,43,100,4
4,43,100,196
