track,note,velocity,time
1,40,109,30720
1,40,120,26
1,40,109,36
1,40,120,36
1,40,120,46
1,40,120,32
1,40,109,24
1,40,120,24
1,40,101,36
1,40,109,24
1,40,109,42
1,40,120,8
1,40,101,22
1,40,120,24
1,40,109,32
1,40,109,10
1,40,109,16
1,40,109,14
1,40,101,36
1,40,109,10
1,40,109,34
1,40,120,12
1,40,101,48
1,40,120,10
1,40,109,34
1,40,109,12
1,40,120,54
1,40,109,66
1,40,109,58
1,28,121,40
1,28,109,80
1,28,120,72
1,33,109,62
1,33,85,72
1,45,92,14
1,45,85,88
1,43,90,192
1,43,81,90
1,38,77,44
1,38,81,70
1,33,92,38
1,33,92,48
1,45,85,50
1,45,85,80
1,43,85,40
1,43,85,88
1,40,92,36
1,40,85,76
1,33,90,52
1,33,90,70
1,45,85,52
1,45,81,84
1,43,85,42
1,43,73,96
1,38,81,64
1,38,70,64
1,33,85,44
1,33,81,46
1,45,81,56
1,45,85,84
1,43,90,56
1,43,85,92
1,40,92,62
1,40,85,78
1,38,101,48
1,38,92,62
1,50,92,40
1,50,85,80
1,48,92,32
1,48,90,82
1,45,85,44
1,45,85,76
1,38,90,44
1,38,92,96
1,50,92,46
1,50,81,80
1,48,109,38
1,48,92,94
1,45,90,50
1,45,90,72
1,38,92,44
1,38,77,64
1,50,92,24
1,50,101,82
1,48,121,50
1,48,92,76
1,45,90,70
1,45,85,86
1,38,92,54
1,38,85,94
1,50,109,44
1,50,92,78
1,48,109,46
1,48,101,104
1,45,90,38
1,45,90,90
1,40,109,72
1,40,120,26
1,40,109,36
1,40,120,36
1,40,120,46
1,40,120,32
1,40,109,24
1,40,120,24
1,40,101,36
1,40,109,24
1,40,109,42
1,40,120,8
1,40,101,22
1,40,120,24
1,40,109,32
1,40,109,10
1,40,109,16
1,40,109,14
1,40,101,36
1,40,109,10
1,40,109,34
1,40,120,12
1,40,101,48
1,40,120,10
1,40,109,34
1,40,109,12
1,40,120,54
1,40,109,66
1,40,109,58
1,28,121,40
1,28,109,80
1,28,120,72
1,33,121,62
1,33,121,2804
1,33,120,2906
1,38,121,934
1,33,121,32
1,33,120,1320
1,33,121,2852
1,38,121,886
1,33,121,44
1,33,121,1298
1,33,121,2864
1,38,121,876
1,33,121,72
1,33,121,1306
1,38,121,2872
1,40,109,404
1,40,120,26
1,40,109,36
1,40,120,36
1,40,120,46
1,40,120,32
1,40,109,24
1,40,120,24
1,40,101,36
1,40,109,24
1,40,109,42
1,40,120,8
1,40,101,22
1,40,120,24
1,40,109,32
1,40,109,10
1,40,109,16
1,40,109,14
1,40,101,36
1,40,109,10
1,40,109,34
1,40,120,12
1,40,101,48
1,40,120,10
1,40,109,34
1,40,109,12
1,40,120,54
1,40,109,66
1,40,109,58
1,28,121,40
1,28,109,80
1,28,120,72
1,33,109,62
1,33,85,72
1,45,92,14
1,45,85,88
1,43,90,192
1,43,81,90
1,38,77,44
1,38,81,70
1,33,92,38
1,33,92,48
1,45,85,50
1,45,85,80
1,43,85,40
1,43,85,88
1,40,92,36
1,40,85,76
1,33,90,52
1,33,90,70
1,45,85,52
1,45,81,84
1,43,85,42
1,43,73,96
1,38,81,64
1,38,70,64
1,33,85,44
1,33,81,46
1,45,81,56
1,45,85,84
1,43,90,56
1,43,85,92
1,40,92,62
1,40,85,78
1,38,101,48
1,38,92,62
1,50,92,40
1,50,85,80
1,48,92,32
1,48,90,82
1,45,85,44
1,45,85,76
1,38,90,44
1,38,92,96
1,50,92,46
1,50,81,80
1,48,109,38
1,48,92,94
1,45,90,50
1,45,90,72
1,38,92,44
1,38,77,64
1,50,92,24
1,50,101,82
1,48,121,50
1,48,92,76
1,45,90,70
1,45,85,86
1,38,92,54
1,38,85,94
1,50,109,44
1,50,92,78
1,48,109,46
1,48,101,104
1,45,90,38
1,45,90,90
1,40,109,72
1,40,120,26
1,40,109,36
1,40,120,36
1,40,120,46
1,40,120,32
1,40,109,24
1,40,120,24
1,40,101,36
1,40,109,24
1,40,109,42
1,40,120,8
1,40,101,22
1,40,120,24
1,40,109,32
1,40,109,10
1,40,109,16
1,40,109,14
1,40,101,36
1,40,109,10
1,40,109,34
1,40,120,12
1,40,101,48
1,40,120,10
1,40,109,34
1,40,109,12
1,40,120,54
1,40,109,66
1,40,109,58
1,28,121,40
1,28,109,80
1,28,120,72
1,40,109,15422
1,40,120,26
1,40,109,36
1,40,120,36
1,40,120,46
1,40,120,32
1,40,109,24
1,40,120,24
1,40,101,36
1,40,109,24
1,40,109,42
1,40,120,8
1,40,101,22
1,40,120,24
1,40,109,32
1,40,109,10
1,40,109,16
1,40,109,14
1,40,101,36
1,40,109,10
1,40,109,34
1,40,120,12
1,40,101,48
1,40,120,10
1,40,109,34
1,40,109,12
1,40,120,54
1,40,109,66
1,40,109,58
1,28,121,40
1,28,109,80
1,28,120,72
1,33,109,62
1,33,85,72
1,45,92,14
1,45,85,88
1,43,90,192
1,43,81,90
1,38,77,44
1,38,81,70
1,33,92,38
1,33,92,48
1,45,85,50
1,45,85,80
1,43,85,40
1,43,85,88
1,40,92,36
1,40,85,76
1,33,90,52
1,33,90,70
1,45,85,52
1,45,81,84
1,43,85,42
1,43,73,96
1,38,81,64
1,38,70,64
1,33,85,44
1,33,81,46
1,45,81,56
1,45,85,84
1,43,90,56
1,43,85,92
1,40,92,62
1,40,85,78
1,38,101,48
1,38,92,62
1,50,92,40
1,50,85,80
1,48,92,32
1,48,90,82
1,45,85,44
1,45,85,76
1,38,90,44
1,38,92,96
1,50,92,46
1,50,81,80
1,48,109,38
1,48,92,94
1,45,90,50
1,45,90,72
1,38,92,44
1,38,77,64
1,50,92,24
1,50,101,82
1,48,121,50
1,48,92,76
1,45,90,70
1,45,85,86
1,38,92,54
1,38,85,94
1,50,109,44
1,50,92,78
1,48,109,46
1,48,101,104
1,45,90,38
1,45,90,90
1,40,109,72
1,40,120,26
1,40,109,36
1,40,120,36
1,40,120,46
1,40,120,32
1,40,109,24
1,40,120,24
1,40,101,36
1,40,109,24
1,40,109,42
1,40,120,8
1,40,101,22
1,40,120,24
1,40,109,32
1,40,109,10
1,40,109,16
1,40,109,14
1,40,101,36
1,40,109,10
1,40,109,34
1,40,120,12
1,40,101,48
1,40,120,10
1,40,109,34
1,40,109,12
1,40,120,54
1,40,109,66
1,40,109,58
1,28,121,40
1,28,109,80
1,28,120,72
1,33,121,62
2,61,118,7680
2,64,118,0
2,69,118,0
2,64,118,2886
2,69,118,0
2,61,118,0
2,66,118,976
2,69,118,0
2,62,118,0
2,69,118,150
2,64,118,0
2,61,118,0
2,64,118,1352
2,69,118,0
2,61,118,0
2,64,118,2888
2,61,118,0
2,69,118,0
2,69,118,988
2,66,118,0
2,62,118,0
2,69,118,192
2,61,118,0
2,64,118,0
2,61,118,1350
2,64,118,0
2,69,118,0
2,64,118,2914
2,69,118,0
2,61,118,0
2,66,118,986
2,69,118,0
2,62,118,0
2,69,118,224
2,61,118,0
2,64,118,0
2,69,118,1332
2,64,118,0
2,61,118,0
2,66,118,2898
2,50,118,0
2,57,118,0
2,69,118,0
2,62,118,0
2,56,118,278
2,59,118,0
2,52,118,0
2,71,118,0
2,68,118,0
2,64,118,0
2,57,96,280
2,76,96,192
2,69,96,0
2,73,107,0
2,64,96,192
2,67,107,126
2,76,88,0
2,73,121,0
2,57,88,100
2,69,96,66
2,73,107,0
2,76,96,0
2,64,107,192
2,57,96,258
2,76,96,118
2,69,96,0
2,73,121,0
2,64,96,192
2,76,79,152
2,67,88,0
2,73,121,0
2,64,96,64
2,76,96,100
2,73,107,0
2,69,96,0
2,69,88,88
2,73,107,0
2,76,79,0
2,64,68,192
2,57,96,0
2,64,88,72
2,73,121,10
2,69,96,0
2,76,88,0
2,64,88,192
2,61,44,14
2,67,96,8
2,73,121,0
2,76,79,0
2,57,88,192
2,73,96,88
2,76,77,0
2,69,79,0
2,69,96,122
2,76,88,0
2,73,121,0
2,57,96,160
2,64,88,0
2,67,79,110
2,69,96,104
2,76,79,0
2,73,107,0
2,57,88,118
2,64,79,0
2,73,96,80
2,67,88,0
2,76,79,0
2,64,88,120
2,73,107,6
2,69,79,0
2,76,79,0
2,62,88,160
2,60,96,0
2,69,107,24
2,62,72,0
2,74,79,384
2,81,79,0
2,78,121,0
2,69,79,80
2,62,96,0
2,81,77,64
2,72,72,0
2,78,107,0
2,62,88,54
2,69,79,0
2,81,88,4
2,78,96,0
2,74,79,0
2,69,88,104
2,62,96,0
2,69,79,64
2,81,88,192
2,78,107,0
2,74,88,0
2,62,96,124
2,69,88,0
2,72,79,106
2,78,107,0
2,81,88,0
2,62,107,96
2,69,79,0
2,81,79,58
2,74,88,0
2,78,121,0
2,64,68,98
2,69,96,0
2,62,121,0
2,81,60,374
2,78,68,0
2,74,77,0
2,81,88,112
2,78,107,0
2,74,88,0
2,66,72,24
2,62,96,0
2,69,88,0
2,81,88,6
2,78,121,0
2,72,88,0
2,62,107,192
2,69,72,0
2,78,96,122
2,74,77,0
2,81,88,0
2,62,96,44
2,69,79,0
2,69,88,104
2,62,107,0
2,81,79,384
2,74,88,0
2,78,107,0
2,62,88,48
2,69,72,0
2,81,79,146
2,72,77,0
2,78,107,0
2,69,79,144
2,62,121,0
2,74,88,2
2,81,88,0
2,78,121,0
2,56,118,246
2,59,118,0
2,52,118,0
2,71,118,0
2,68,118,0
2,64,118,0
2,73,107,3160
2,81,96,0
2,76,107,0
2,73,121,2916
2,76,96,0
2,81,96,0
2,81,88,996
2,74,88,0
2,78,107,0
2,73,107,160
2,76,107,0
2,81,88,0
2,73,107,1354
2,76,107,0
2,81,96,0
2,73,121,2910
2,81,79,0
2,76,107,0
2,74,88,990
2,81,107,0
2,78,121,0
2,73,79,200
2,76,96,0
2,81,88,0
2,81,79,1344
2,73,107,0
2,76,107,0
2,73,96,2932
2,81,88,0
2,76,121,0
2,74,88,976
2,78,96,0
2,81,88,0
2,81,79,140
2,76,96,0
2,73,107,0
2,76,96,1380
2,73,96,0
2,81,88,0
2,81,96,2906
2,74,88,0
2,78,121,0
2,56,118,1344
2,59,118,0
2,52,118,0
2,71,118,0
2,68,118,0
2,64,118,0
2,57,96,280
2,76,96,192
2,69,96,0
2,73,107,0
2,64,96,192
2,67,107,126
2,76,88,0
2,73,121,0
2,57,88,100
2,69,96,66
2,73,107,0
2,76,96,0
2,64,107,192
2,57,96,258
2,76,96,118
2,69,96,0
2,73,121,0
2,64,96,192
2,76,79,152
2,67,88,0
2,73,121,0
2,64,96,64
2,76,96,100
2,73,107,0
2,69,96,0
2,69,88,88
2,73,107,0
2,76,79,0
2,64,68,192
2,57,96,0
2,64,88,72
2,73,121,10
2,69,96,0
2,76,88,0
2,64,88,192
2,61,44,14
2,67,96,8
2,73,121,0
2,76,79,0
2,57,88,192
2,73,96,88
2,76,77,0
2,69,79,0
2,69,96,122
2,76,88,0
2,73,121,0
2,57,96,160
2,64,88,0
2,67,79,110
2,69,96,104
2,76,79,0
2,73,107,0
2,57,88,118
2,64,79,0
2,73,96,80
2,67,88,0
2,76,79,0
2,64,88,120
2,73,107,6
2,69,79,0
2,76,79,0
2,62,88,160
2,60,96,0
2,69,107,24
2,62,72,0
2,74,79,384
2,81,79,0
2,78,121,0
2,69,79,80
2,62,96,0
2,81,77,64
2,72,72,0
2,78,107,0
2,62,88,54
2,69,79,0
2,81,88,4
2,78,96,0
2,74,79,0
2,69,88,104
2,62,96,0
2,69,79,64
2,81,88,192
2,78,107,0
2,74,88,0
2,62,96,124
2,69,88,0
2,72,79,106
2,78,107,0
2,81,88,0
2,62,107,96
2,69,79,0
2,81,79,58
2,74,88,0
2,78,121,0
2,64,68,98
2,69,96,0
2,62,121,0
2,81,60,374
2,78,68,0
2,74,77,0
2,81,88,112
2,78,107,0
2,74,88,0
2,66,72,24
2,62,96,0
2,69,88,0
2,81,88,6
2,78,121,0
2,72,88,0
2,62,107,192
2,69,72,0
2,78,96,122
2,74,77,0
2,81,88,0
2,62,96,44
2,69,79,0
2,69,88,104
2,62,107,0
2,81,79,384
2,74,88,0
2,78,107,0
2,62,88,48
2,69,72,0
2,81,79,146
2,72,77,0
2,78,107,0
2,69,79,144
2,62,121,0
2,74,88,2
2,81,88,0
2,78,121,0
2,56,118,246
2,59,118,0
2,52,118,0
2,71,118,0
2,68,118,0
2,64,118,0
2,45,127,88
2,57,107,320
2,55,121,200
2,52,107,152
2,50,79,24
2,56,118,12760
2,59,118,0
2,52,118,0
2,71,118,0
2,68,118,0
2,64,118,0
2,57,96,280
2,76,96,192
2,69,96,0
2,73,107,0
2,64,96,192
2,67,107,126
2,76,88,0
2,73,121,0
2,57,88,100
2,69,96,66
2,73,107,0
2,76,96,0
2,64,107,192
2,57,96,258
2,76,96,118
2,69,96,0
2,73,121,0
2,64,96,192
2,76,79,152
2,67,88,0
2,73,121,0
2,64,96,64
2,76,96,100
2,73,107,0
2,69,96,0
2,69,88,88
2,73,107,0
2,76,79,0
2,64,68,192
2,57,96,0
2,64,88,72
2,73,121,10
2,69,96,0
2,76,88,0
2,64,88,192
2,61,44,14
2,67,96,8
2,73,121,0
2,76,79,0
2,57,88,192
2,73,96,88
2,76,77,0
2,69,79,0
2,69,96,122
2,76,88,0
2,73,121,0
2,57,96,160
2,64,88,0
2,67,79,110
2,69,96,104
2,76,79,0
2,73,107,0
2,57,88,118
2,64,79,0
2,73,96,80
2,67,88,0
2,76,79,0
2,64,88,120
2,73,107,6
2,69,79,0
2,76,79,0
2,62,88,160
2,60,96,0
2,69,107,24
2,62,72,0
2,74,79,384
2,81,79,0
2,78,121,0
2,69,79,80
2,62,96,0
2,81,77,64
2,72,72,0
2,78,107,0
2,62,88,54
2,69,79,0
2,81,88,4
2,78,96,0
2,74,79,0
2,69,88,104
2,62,96,0
2,69,79,64
2,81,88,192
2,78,107,0
2,74,88,0
2,62,96,124
2,69,88,0
2,72,79,106
2,78,107,0
2,81,88,0
2,62,107,96
2,69,79,0
2,81,79,58
2,74,88,0
2,78,121,0
2,64,68,98
2,69,96,0
2,62,121,0
2,81,60,374
2,78,68,0
2,74,77,0
2,81,88,112
2,78,107,0
2,74,88,0
2,66,72,24
2,62,96,0
2,69,88,0
2,81,88,6
2,78,121,0
2,72,88,0
2,62,107,192
2,69,72,0
2,78,96,122
2,74,77,0
2,81,88,0
2,62,96,44
2,69,79,0
2,69,88,104
2,62,107,0
2,81,79,384
2,74,88,0
2,78,107,0
2,62,88,48
2,69,72,0
2,81,79,146
2,72,77,0
2,78,107,0
2,69,79,144
2,62,121,0
2,74,88,2
2,81,88,0
2,78,121,0
2,56,118,246
2,59,118,0
2,52,118,0
2,71,118,0
2,68,118,0
2,64,118,0
2,57,107,88
2,67,127,0
2,64,96,0
2,73,107,0
2,76,88,0
3,81,88,7680
3,76,107,0
3,73,107,0
3,73,107,2886
3,81,96,0
3,76,121,0
3,74,96,976
3,81,96,0
3,78,121,0
3,73,96,150
3,76,107,0
3,81,96,0
3,73,121,1352
3,81,88,0
3,76,107,0
3,73,121,2888
3,76,107,0
3,74,88,1000
3,78,96,0
3,81,88,0
3,76,96,192
3,73,79,0
3,81,96,0
3,81,88,1350
3,76,96,0
3,73,107,0
3,73,96,2914
3,81,88,0
3,76,96,0
3,74,88,986
3,81,79,0
3,78,107,0
3,76,96,224
3,73,88,0
3,81,88,0
3,73,107,1332
3,76,96,0
3,81,96,0
3,74,79,2898
3,81,79,0
3,69,72,0
3,62,107,0
3,78,96,0
3,50,107,470
3,62,107,0
3,66,121,0
3,51,127,40
3,63,121,0
3,67,96,0
3,52,107,26
3,64,96,0
3,68,127,0
3,50,96,192
3,62,107,0
3,66,127,0
3,63,121,14
3,51,121,0
3,67,107,0
3,64,107,32
3,52,107,0
3,68,121,0
3,64,107,694
3,52,107,0
3,68,127,0
3,52,107,590
3,64,121,0
3,68,127,0
3,64,127,614
3,52,121,0
3,68,121,0
3,64,121,584
3,52,121,0
3,68,121,0
3,57,96,412
3,76,96,192
