track,note,velocity,time
0,41,77,571
0,48,69,11
0,69,127,11
0,45,73,0
0,50,73,0
0,57,72,0
0,53,100,1
0,57,108,16
0,48,76,174
0,55,69,4
0,72,127,0
0,48,64,0
0,52,66,0
0,60,65,0
0,60,97,0
0,64,109,2
0,50,77,70
0,57,84,9
0,74,126,0
0,53,59,0
0,62,63,0
0,62,85,4
0,65,105,8
0,72,126,57
0,70,126,73
0,69,127,76
0,43,89,5
0,50,76,1
0,43,101,8
0,46,100,9
0,50,101,2
0,55,97,0
0,58,89,7
0,67,127,0
0,55,101,4
0,58,101,5
0,62,100,1
0,67,101,10
0,58,101,12
0,50,100,8
0,55,101,2
0,58,101,8
0,62,100,8
0,67,100,1
0,70,101,9
0,67,101,8
0,62,100,3
0,58,101,6
0,62,100,7
0,67,101,6
0,62,100,10
0,58,101,16
0,55,100,9
0,50,100,5
0,58,100,4
0,55,100,10
0,45,64,9
0,50,101,8
0,49,69,5
0,52,97,5
0,45,100,5
0,57,96,10
0,49,100,1
0,52,101,0
0,69,127,0
0,57,101,2
0,61,100,2
0,64,100,3
0,69,100,8
0,49,101,1
0,52,101,6
0,57,100,9
0,61,100,2
0,64,101,4
0,69,100,9
0,73,100,1
0,69,100,9
0,64,100,12
0,61,100,9
0,64,100,5
0,57,100,7
0,69,100,1
0,64,101,10
0,57,101,2
0,61,101,2
0,64,100,9
0,69,100,8
0,73,100,2
0,76,101,9
0,81,100,4
0,74,91,0
0,77,91,0
0,81,90,0
0,81,101,8
0,79,85,1
0,73,90,3
0,76,90,0
0,77,96,1
0,76,96,1
0,72,91,1
0,77,91,0
0,74,96,1
0,76,97,1
0,71,91,1
0,74,81,0
0,77,97,1
0,76,89,1
0,74,85,1
0,67,80,3
0,70,81,0
0,79,81,0
0,79,92,1
0,81,109,1
0,79,109,1
0,69,91,1
0,76,90,0
0,73,91,12
0,74,65,16
0,76,104,1
0,74,91,0
0,77,90,0
0,81,91,0
0,77,113,1
0,86,28,24
0,93,35,1
0,74,81,1
0,86,41,1
0,73,91,1
0,76,90,0
0,86,44,4
0,81,82,1
0,93,46,1
0,79,97,1
0,86,50,1
0,77,105,1
0,72,90,0
0,77,91,0
0,86,51,10
0,76,104,1
0,93,51,1
0,86,51,1
0,74,92,1
0,71,91,1
0,74,80,0
0,86,51,1
0,93,50,1
0,86,51,1
0,67,81,1
0,70,80,0
0,79,81,0
0,86,51,24
0,91,51,1
0,86,50,1
0,67,65,1
0,79,109,1
0,86,51,5
0,79,108,3
0,91,51,1
0,86,50,1
0,77,93,1
0,69,90,1
0,73,91,0
0,76,90,0
0,76,92,1
0,85,47,5
0,91,41,1
0,85,40,1
0,85,36,7
0,91,35,1
0,85,31,1
0,70,90,0
0,74,90,0
0,77,90,0
0,74,61,2
0,74,84,8
0,74,109,4
0,74,100,8
0,74,76,15
0,72,44,2
0,72,84,15
0,70,73,1
0,72,80,22
0,48,87,0
0,55,87,0
0,48,120,0
0,55,121,0
0,48,78,0
0,55,78,0
0,67,84,1
0,48,82,69
0,55,83,0
0,48,81,0
0,48,83,66
0,55,83,0
0,48,124,0
0,55,117,0
0,48,83,64
0,55,82,0
0,48,79,65
0,55,79,0
0,48,72,0
0,48,83,63
0,55,82,0
0,48,121,0
0,55,120,0
0,48,67,30
0,55,67,0
0,65,105,6
0,41,58,30
0,48,59,0
0,41,105,0
0,48,120,0
0,65,105,14
0,41,63,33
0,48,62,0
0,65,96,9
0,41,74,23
0,48,75,0
0,41,64,0
0,65,96,4
0,41,67,46
0,48,66,0
0,65,96,0
0,41,88,0
0,48,104,0
0,43,83,17
0,50,82,0
0,43,113,0
0,50,124,0
0,67,83,4
0,43,83,23
0,50,82,0
0,67,97,2
0,43,87,20
0,50,86,0
0,43,84,0
0,67,88,3
0,43,86,58
0,50,86,0
0,43,101,0
0,50,93,0
0,67,96,1
0,48,86,4
0,55,87,0
0,48,124,0
0,55,120,0
0,48,74,23
0,55,74,0
0,67,85,4
0,48,79,55
0,55,79,0
0,48,84,0
0,48,66,54
0,55,66,0
0,48,117,0
0,55,117,0
0,48,70,56
0,55,71,0
0,48,55,52
0,55,54,0
0,48,88,0
0,48,62,60
0,55,63,0
0,48,116,0
0,55,121,0
0,69,76,0
0,48,78,2
0,55,78,0
0,41,74,0
0,48,74,0
0,41,112,0
0,48,120,0
0,69,88,1
0,69,88,23
0,41,66,1
0,48,66,0
0,69,88,12
0,41,66,2
0,48,66,0
0,41,84,0
0,71,88,50
0,41,63,7
0,48,63,0
0,41,92,0
0,48,96,0
0,71,76,1
0,43,87,2
0,50,86,0
0,43,108,0
0,50,124,0
0,71,74,22
0,43,82,5
0,50,82,0
0,72,100,1
0,43,83,9
0,50,82,0
0,43,84,0
0,72,105,43
0,48,82,10
0,55,83,0
0,43,93,0
0,50,105,0
0,48,79,39
0,55,78,0
0,48,113,0
0,55,112,0
0,72,99,38
0,48,70,5
0,55,70,0
0,72,99,32
0,48,79,8
0,55,78,0
0,48,88,0
0,72,102,35
0,48,71,9
0,55,70,0
0,48,120,0
0,55,117,0
0,48,78,50
0,55,78,0
0,72,96,1
0,48,78,13
0,55,78,0
0,48,92,0
0,48,82,49
0,55,82,0
0,48,120,0
0,55,113,0
0,72,108,6
0,48,74,13
0,55,75,0
0,41,78,0
0,48,78,0
0,41,93,0
0,48,120,0
0,72,101,34
0,41,58,13
0,48,59,0
0,72,112,4
0,41,71,13
0,48,70,0
0,41,72,0
0,74,104,41
0,41,74,15
0,48,75,0
0,41,92,0
0,48,105,0
0,74,97,7
0,43,87,10
0,50,87,0
0,43,108,0
0,50,125,0
0,74,109,1
0,43,82,17
0,50,82,0
0,76,96,1
0,43,82,19
0,50,82,0
0,43,88,0
0,76,116,31
0,48,86,20
0,55,86,0
0,43,84,0
0,50,108,0
0,48,78,16
0,55,78,0
0,48,116,0
0,55,112,0
0,48,74,24
0,55,74,0
0,48,79,43
0,55,79,0
0,48,84,0
0,48,70,0
0,55,71,0
0,48,112,0
0,55,112,0
0,48,78,0
0,55,78,0
0,48,75,48
0,55,75,0
0,48,77,0
0,48,79,46
0,55,79,0
0,48,112,0
0,55,116,0
0,48,87,33
0,55,87,0
0,34,109,0
0,46,100,0
0,58,84,0
0,79,100,2
0,53,101,1
0,79,77,4
0,58,100,14
0,62,57,0
0,79,108,25
0,34,113,2
0,46,101,0
0,67,85,0
0,53,101,96
0,58,100,26
0,58,1,0
0,79,113,2
0,34,112,32
0,46,100,0
0,62,64,0
0,53,101,33
0,79,112,3
0,58,101,0
0,77,112,21
0,34,116,12
0,46,100,0
0,67,64,0
0,53,101,18
0,76,112,6
0,58,100,16
0,58,12,0
0,34,116,50
0,46,100,0
0,77,54,0
0,76,55,18
0,74,55,5
0,72,54,12
0,71,54,2
0,74,112,10
0,38,105,2
0,69,54,4
0,67,55,17
0,65,54,12
0,64,55,14
0,62,54,14
0,41,109,4
0,60,54,16
0,59,54,20
0,57,54,3
0,55,54,12
0,79,116,2
0,46,97,5
0,53,54,2
0,52,54,4
0,50,54,17
0,48,97,8
0,48,55,8
0,55,113,4
0,35,57,3
0,48,105,0
0,48,85,0
0,55,85,0
0,42,77,1
0,60,73,8
0,76,108,1
0,48,104,5
0,48,87,0
0,55,86,0
0,55,92,49
0,48,105,2
0,48,86,0
0,55,87,0
0,42,65,0
0,55,124,43
0,35,25,1
0,48,101,3
0,48,83,0
0,55,83,0
0,60,112,7
0,48,116,2
0,42,40,44
0,48,105,9
0,48,85,0
0,55,84,0
0,55,77,0
0,35,80,2
0,48,104,47
0,48,82,0
0,55,83,0
0,46,113,11
0,48,85,0
0,55,85,0
0,42,100,0
0,38,39,1
0,55,124,4
0,60,120,5
0,77,112,1
0,43,101,4
0,48,86,0
0,55,86,0
0,48,88,4
0,41,96,10
0,77,100,1
0,48,108,2
0,41,108,0
0,41,87,0
0,48,86,0
0,57,59,0
0,60,34,0
0,67,46,0
0,35,76,1
0,42,60,0
0,53,112,8
0,41,97,19
0,41,87,0
0,48,87,0
0,76,109,3
0,42,61,38
0,48,89,0
0,76,108,2
0,41,109,1
0,41,83,0
0,48,83,0
0,53,77,1
0,74,108,1
0,41,108,6
0,41,87,0
0,48,86,0
0,41,92,2
0,35,32,1
0,42,57,40
0,43,109,0
0,50,120,0
0,74,116,2
0,43,108,1
0,43,87,0
0,50,86,0
0,59,48,0
0,62,49,0
0,35,77,4
0,55,120,3
0,72,97,1
0,43,113,6
0,43,87,0
0,50,87,0
0,71,113,1
0,38,63,0
0,50,89,3
0,43,109,3
0,43,83,0
0,50,82,0
0,42,89,1
0,43,89,0
0,72,116,1
0,43,112,3
0,43,85,0
0,50,85,0
0,35,81,8
0,42,49,3
0,55,121,0
0,48,109,5
0,48,109,0
0,48,84,0
0,55,84,0
0,48,53,0
0,60,37,0
0,64,57,0
0,60,109,0
0,48,104,0
0,48,78,0
0,55,78,0
0,67,100,1
0,42,76,21
0,55,85,0
0,48,109,2
0,48,83,0
0,55,82,0
0,35,69,42
0,55,124,0
0,48,104,6
0,48,78,0
0,55,79,0
0,48,121,3
0,60,120,1
0,35,85,47
0,48,113,0
0,48,71,0
0,55,70,0
0,42,65,1
0,48,112,40
0,48,79,0
0,55,78,0
0,55,45,6
0,55,125,58
0,46,104,5
0,48,78,0
0,55,78,0
0,60,108,0
0,38,74,1
0,42,97,3
0,48,104,3
0,69,69,20
0,43,96,2
0,48,82,0
0,55,82,0
0,48,117,3
0,41,113,1
0,42,65,5
0,69,93,1
0,35,92,0
0,41,112,0
0,41,86,0
0,48,87,0
0,41,34,0
0,53,59,0
0,57,41,0
0,62,75,0
0,53,108,2
0,41,105,27
0,41,82,0
0,48,83,0
0,69,97,3
0,48,69,51
0,41,108,2
0,41,83,0
0,48,82,0
0,42,68,2
0,69,104,0
0,71,104,38
0,41,104,7
0,41,83,0
0,48,83,0
0,35,77,5
0,41,76,0
0,71,108,10
0,50,124,0
0,43,117,5
0,43,86,0
0,50,86,0
0,43,34,0
0,55,69,0
0,59,73,0
0,43,109,1
0,55,121,4
0,42,61,1
0,35,101,0
0,71,108,13
0,43,113,8
0,43,87,0
0,50,86,0
0,71,112,1
0,50,93,5
0,42,97,1
0,43,112,0
0,43,83,0
0,50,82,0
0,38,90,2
0,72,112,34
0,43,84,5
0,45,120,7
0,45,82,0
0,52,83,0
0,72,112,1
0,52,116,1
0,45,105,1
0,42,84,4
0,45,104,1
0,45,82,0
0,52,82,0
0,45,46,0
0,57,57,0
0,60,57,0
0,64,82,0
0,57,113,2
0,35,101,1
0,72,112,10
0,45,113,3
0,45,87,0
0,52,87,0
0,72,116,48
0,45,117,1
0,45,82,0
0,52,82,0
0,42,85,6
0,52,89,2
0,72,116,48
0,35,84,0
0,45,116,0
0,45,83,0
0,52,82,0
0,52,125,1
0,45,104,8
0,57,120,1
0,45,112,1
0,45,87,0
0,52,86,0
0,48,76,0
0,57,49,0
0,60,93,0
0,42,73,1
0,35,113,2
0,45,117,25
0,45,86,0
0,52,86,0
0,47,84,0
0,59,85,0
0,52,77,4
0,38,104,45
0,52,121,0
0,45,112,3
0,45,82,0
0,52,82,0
0,42,100,0
0,57,121,0
0,45,112,3
0,43,120,16
0,45,86,0
0,52,87,0
0,45,88,0
0,60,65,0
0,72,121,8
0,41,108,1
0,48,113,2
0,42,84,9
0,41,112,1
0,41,87,0
0,48,86,0
0,53,92,0
0,65,81,0
0,69,78,0
0,35,117,1
0,53,112,3
0,41,108,48
0,41,84,0
0,48,85,0
0,72,117,4
0,48,77,48
0,42,97,5
0,41,112,0
0,41,87,0
0,48,87,0
0,72,112,1
0,41,81,46
0,41,112,1
0,41,87,0
0,48,87,0
0,74,81,0
0,35,76,8
0,50,125,1
0,43,109,4
0,55,109,6
0,43,116,5
0,43,87,0
0,50,86,0
0,43,84,0
0,59,72,0
0,67,76,0
0,74,108,1
0,42,81,0
0,35,117,5
0,43,112,35
0,43,87,0
0,50,86,0
0,74,120,0
0,50,88,5
0,76,105,8
0,42,104,0
0,55,65,0
0,43,113,2
0,43,83,0
0,50,83,0
0,38,113,0
0,43,80,48
0,76,121,1
0,43,113,4
0,43,83,0
0,50,82,0
0,55,125,6
0,48,105,0
0,48,87,0
0,55,87,0
0,48,57,0
0,52,64,0
0,60,80,0
0,35,121,1
0,48,97,0
0,60,113,2
0,42,97,2
0,48,108,28
0,48,75,0
0,55,75,0
0,55,84,45
0,42,92,1
0,48,108,1
0,48,82,0
0,55,82,0
0,55,125,41
0,35,92,6
0,48,104,0
0,48,87,0
0,55,87,0
0,48,113,2
0,60,116,4
0,42,97,41
0,48,109,1
0,48,67,0
0,55,66,0
0,48,77,0
0,60,93,0
0,84,61,0
0,35,124,4
0,48,104,48
0,48,78,0
0,55,79,0
0,47,84,0
0,59,84,0
0,83,60,0
0,55,76,4
0,48,112,47
0,48,83,0
0,55,83,0
0,55,124,2
0,42,108,1
0,38,119,2
0,48,104,0
0,60,113,1
0,77,121,4
0,43,109,0
0,48,79,0
0,55,78,0
0,45,82,0
0,60,75,0
0,41,108,3
0,41,117,0
0,41,86,0
0,48,86,0
0,53,87,0
0,65,46,0
0,69,66,0
0,48,112,0
0,89,61,0
0,93,60,0
0,35,125,4
0,42,105,0
0,53,105,11
0,41,112,36
0,41,85,0
0,48,85,0
0,77,109,7
0,41,112,46
0,41,83,0
0,48,83,0
0,48,93,0
0,42,104,1
0,77,113,3
0,41,112,30
0,41,86,0
0,48,87,0
0,74,101,0
0,41,88,1
0,35,113,1
0,50,125,3
0,43,104,1
0,43,117,7
0,43,87,0
0,50,87,0
0,43,81,0
0,59,72,0
0,67,76,0
0,91,61,0
0,95,60,0
0,42,104,2
0,55,108,0
0,74,116,1
0,35,124,2
0,71,97,10
0,43,112,5
0,43,86,0
0,50,87,0
0,76,100,26
0,38,123,4
0,42,120,0
0,43,121,0
0,43,83,0
0,50,82,0
0,50,84,4
0,43,96,44
0,76,113,6
0,43,120,1
0,43,83,0
0,50,83,0
0,55,124,41
0,42,104,5
0,48,108,0
0,48,120,0
0,48,82,0
0,55,82,0
0,48,64,0
0,52,64,0
0,60,80,0
0,60,117,1
0,35,125,4
0,48,116,24
0,48,83,0
0,55,83,0
0,42,113,45
0,55,76,0
0,48,112,0
0,48,82,0
0,55,83,0
0,55,125,47
0,48,120,1
0,48,86,0
0,55,87,0
0,35,108,2
0,48,113,2
0,60,124,0
0,42,116,1
0,48,112,2
0,48,84,0
0,55,85,0
0,35,125,1
0,48,120,27
0,48,86,0
0,55,86,0
0,55,89,7
0,42,116,37
0,48,112,9
0,48,84,0
0,55,84,0
0,38,125,1
0,55,125,3
0,48,108,1
0,60,120,2
0,48,113,12
0,48,85,0
0,55,84,0
0,42,113,1
0,46,116,0
0,46,100,0
0,79,121,1
0,35,124,2
0,46,117,4
0,53,101,1
0,79,112,2
0,53,80,10
0,58,101,4
0,58,97,26
0,46,112,1
0,46,100,0
0,79,112,1
0,42,113,3
0,53,100,71
0,58,60,24
0,58,100,2
0,79,121,7
0,42,112,26
0,67,104,0
0,46,116,5
0,46,101,0
0,79,121,30
0,53,101,3
0,58,12,10
0,58,100,8
0,65,77,7
0,62,88,4
0,62,75,5
0,46,121,2
0,46,100,0
0,77,108,0
0,42,112,0
0,53,101,7
0,58,100,22
0,76,113,1
0,34,109,12
0,46,100,0
0,46,85,3
0,67,104,5
0,45,85,8
0,38,112,2
0,74,108,1
0,41,85,0
0,41,120,4
0,41,125,0
0,45,125,0
0,49,49,2
0,50,31,6
0,52,69,1
0,51,52,2
0,53,48,1
0,55,80,3
0,46,113,4
0,57,83,6
0,59,81,0
0,54,46,2
0,60,80,4
0,43,68,1
0,62,97,5
0,48,40,1
0,64,84,0
0,65,82,5
0,52,113,1
0,67,76,5
0,55,121,0
0,69,86,0
0,71,86,0
0,46,89,0
0,79,120,0
0,60,120,0
0,48,106,0
0,57,95,1
0,72,82,2
0,48,117,0
