track,note,velocity,time
0,55,71,11
0,50,50,8
0,57,56,1
0,62,66,2
0,65,65,2
0,69,72,1
0,50,0,37
0,57,0,1
0,62,0,2
0,50,45,1
0,57,49,2
0,65,0,0
0,69,0,1
0,62,52,1
0,65,55,2
0,69,57,2
0,65,0,37
0,69,0,1
0,69,46,1
0,62,0,1
0,65,41,1
0,57,0,1
0,62,28,2
0,57,22,2
0,50,0,34
0,69,0,1
0,62,0,2
0,65,0,0
0,57,0,1
0,50,48,3
0,57,52,1
0,62,60,2
0,65,65,2
0,69,72,1
0,50,0,85
0,62,0,3
0,50,44,2
0,57,0,1
0,65,0,0
0,57,46,1
0,69,0,2
0,62,50,1
0,65,52,2
0,69,56,2
0,69,0,32
0,62,0,5
0,65,0,1
0,69,46,2
0,65,42,3
0,57,0,1
0,62,35,2
0,57,31,2
0,62,0,34
0,57,0,1
0,50,0,1
0,65,0,1
0,69,0,2
0,50,43,2
0,57,49,2
0,62,59,1
0,65,65,2
0,69,73,3
0,55,0,56
0,57,0,7
0,62,0,0
0,50,0,1
0,65,0,2
0,57,72,1
0,50,34,1
0,57,39,2
0,69,0,0
0,62,41,2
0,65,47,3
0,69,52,2
0,57,0,32
0,69,0,0
0,65,0,5
0,57,0,2
0,62,0,1
0,69,52,0
0,55,68,1
0,65,46,2
0,62,37,2
0,57,32,3
0,55,0,34
0,50,0,1
0,57,0,3
0,65,0,0
0,69,0,1
0,62,0,1
0,50,48,1
0,57,53,1
0,62,61,2
0,53,64,1
0,65,66,1
0,69,72,1
0,69,0,37
0,57,0,3
0,69,60,0
0,50,0,1
0,62,0,1
0,65,0,0
0,65,50,1
0,62,40,2
0,57,47,3
0,50,28,2
0,50,0,33
0,57,0,2
0,62,0,3
0,50,37,2
0,65,0,0
0,69,0,0
0,57,41,2
0,62,42,2
0,65,45,2
0,69,47,2
0,53,0,20
0,69,0,13
0,62,0,3
0,65,0,1
0,69,36,1
0,65,34,3
0,57,0,1
0,62,28,1
0,53,72,3
0,57,25,1
0,53,0,20
0,50,0,14
0,69,0,1
0,57,0,1
0,62,0,0
0,65,0,2
0,50,48,3
0,55,57,1
0,58,62,2
0,62,68,2
0,67,73,1
0,53,78,1
0,62,0,41
0,67,0,1
0,50,0,1
0,53,0,1
0,55,0,0
0,58,0,2
0,50,39,1
0,55,45,2
0,58,48,2
0,48,75,1
0,62,52,0
0,67,56,2
0,67,0,5
0,62,0,0
0,67,57,5
0,58,0,0
0,62,51,1
0,55,0,1
0,58,47,2
0,55,44,2
0,50,0,35
0,48,0,2
0,58,0,0
0,55,0,1
0,67,0,0
0,62,0,1
0,50,51,2
0,55,57,1
0,58,65,0
0,48,70,2
0,62,70,0
0,67,73,1
0,48,0,40
0,46,68,9
0,50,0,34
0,58,0,5
0,46,0,1
0,50,41,0
0,67,0,0
0,55,0,1
0,62,0,0
0,55,47,1
0,58,50,3
0,62,54,2
0,67,58,2
0,48,66,1
0,67,0,31
0,58,0,5
0,62,0,1
0,67,52,2
0,62,49,3
0,48,0,1
0,55,0,0
0,58,43,2
0,55,39,2
0,55,68,7
0,50,0,25
0,58,0,2
0,55,0,1
0,62,0,2
0,67,0,2
0,50,50,2
0,55,56,2
0,58,63,1
0,62,67,2
0,67,74,2
0,58,0,81
0,50,0,1
0,55,0,2
0,62,0,0
0,50,35,3
0,55,45,2
0,67,0,0
0,58,48,2
0,62,51,3
0,67,54,2
0,67,0,32
0,58,0,4
0,50,0,1
0,62,0,0
0,55,0,2
0,67,52,1
0,62,49,3
0,58,44,2
0,55,42,3
0,50,37,2
0,50,0,32
0,58,0,2
0,55,0,2
0,67,0,0
0,62,0,1
0,50,51,2
0,55,58,1
0,58,63,2
0,62,67,2
0,67,73,1
0,62,0,33
0,55,0,2
0,67,0,2
0,58,0,3
0,50,0,1
0,67,48,0
0,62,44,2
0,58,40,3
0,55,37,2
0,50,28,2
0,62,0,34
0,55,0,1
0,58,0,1
0,55,42,4
0,58,47,2
0,67,0,0
0,62,54,2
0,67,59,2
0,55,0,34
0,58,0,2
0,62,0,1
0,67,0,2
0,67,46,1
0,62,39,2
0,55,0,1
0,58,33,1
0,55,26,3
0,50,0,36
0,58,0,2
0,55,0,1
0,67,0,0
0,62,0,3
0,48,50,1
0,55,56,1
0,60,66,2
0,64,65,2
0,67,72,1
0,48,0,85
0,55,0,1
0,60,0,0
0,55,79,1
0,48,45,0
0,55,49,2
0,64,0,0
0,67,0,1
0,60,52,1
0,64,55,2
0,67,57,2
0,64,0,37
0,67,0,1
0,67,51,1
0,60,0,1
0,64,46,1
0,55,0,1
0,60,33,1
0,55,27,2
0,67,0,29
0,55,0,3
0,48,0,5
0,60,0,0
0,64,0,0
0,55,0,2
0,48,48,2
0,55,52,1
0,60,60,2
0,64,65,2
0,67,72,1
0,53,75,3
0,67,0,2
0,55,0,2
0,64,0,0
0,60,0,1
0,67,36,1
0,64,34,3
0,60,28,0
0,55,25,4
0,67,0,35
0,48,0,1
0,55,0,0
0,60,0,0
0,64,0,2
0,48,44,1
0,55,46,2
0,60,50,1
0,64,52,2
0,67,56,2
0,67,0,32
0,53,0,3
0,60,0,2
0,64,0,1
0,52,70,2
0,67,46,0
0,64,42,3
0,55,0,1
0,60,35,2
0,55,31,2
0,60,0,34
0,52,0,1
0,55,0,0
0,48,0,1
0,64,0,1
0,67,0,2
0,53,73,2
0,48,43,0
0,55,49,2
0,60,59,1
0,64,65,2
0,67,73,3
0,53,0,39
0,55,76,2
0,55,0,4
0,60,0,0
0,48,0,1
0,64,0,2
0,48,34,1
0,55,39,2
0,67,0,0
0,60,41,2
0,64,47,1
0,67,52,2
0,67,0,32
0,64,0,5
0,55,0,2
0,60,0,1
0,67,52,0
0,64,46,3
0,60,37,2
0,55,32,2
0,48,0,35
0,64,0,0
0,67,0,4
0,60,0,1
0,48,48,1
0,55,0,0
0,55,53,1
0,60,61,2
0,64,66,2
0,67,72,1
0,67,0,37
0,48,0,1
0,55,0,2
0,67,60,0
0,60,0,2
0,64,0,0
0,64,50,1
0,60,40,2
0,55,47,3
0,48,28,2
0,48,0,33
0,55,0,2
0,60,0,3
0,48,43,2
0,64,0,0
0,67,0,0
0,55,47,2
0,60,48,2
0,64,51,2
0,67,53,2
0,55,0,19
0,67,0,14
0,64,0,4
0,67,36,1
0,60,0,2
0,64,34,1
0,55,0,1
0,60,28,1
0,55,25,4
0,48,0,26
0,67,0,9
0,55,0,1
0,60,0,0
0,57,73,2
0,64,0,0
0,50,49,3
0,55,57,1
0,58,62,2
0,62,68,2
0,67,73,1
0,62,0,10
0,67,0,1
0,50,0,1
0,55,0,1
0,57,0,1
0,58,0,1
0,50,40,1
0,55,45,1
0,58,48,2
0,62,52,2
0,55,71,2
0,67,56,0
0,67,0,34
0,62,0,1
0,55,0,4
0,67,57,1
0,58,0,1
0,62,51,1
0,55,0,1
0,58,47,2
0,55,44,2
0,50,68,4
0,50,0,31
0,58,0,2
0,55,0,1
0,67,0,0
0,62,0,1
0,50,52,2
0,55,57,1
0,58,65,2
0,62,70,2
0,67,73,1
0,50,0,83
0,58,0,5
0,50,42,1
0,67,0,0
0,55,0,1
0,62,0,0
0,55,47,1
0,58,50,3
0,62,54,2
0,67,58,2
0,58,0,37
0,62,0,1
0,67,0,0
0,67,52,2
0,62,49,3
0,55,0,1
0,58,43,2
0,50,0,2
0,55,39,0
0,50,0,32
0,58,0,2
0,55,0,1
0,62,0,2
0,57,75,2
0,50,51,2
0,67,0,1
0,55,56,1
0,58,63,1
0,62,67,2
0,67,74,2
0,57,0,31
0,55,68,3
0,62,0,2
0,55,0,1
0,58,0,0
0,67,0,0
0,67,55,2
0,62,48,2
0,58,42,2
0,55,35,3
0,55,0,29
0,50,0,7
0,58,0,2
0,62,0,0
0,55,0,1
0,67,0,0
0,50,36,2
0,50,63,1
0,55,45,1
0,58,48,2
0,62,51,3
0,67,54,2
0,67,0,32
0,58,0,4
0,50,0,1
0,62,0,0
0,55,0,2
0,67,52,1
0,62,49,3
0,58,44,2
0,55,42,3
0,50,38,2
0,50,0,32
0,58,0,2
0,50,0,2
0,55,0,0
0,62,0,1
0,50,52,2
0,67,0,0
0,55,58,1
0,58,63,2
0,62,67,2
0,67,73,1
0,62,0,33
0,55,0,2
0,67,0,2
0,58,0,3
0,50,0,1
0,67,59,0
0,62,55,2
0,58,51,3
0,55,48,2
0,50,40,2
0,62,0,34
0,55,0,1
0,58,0,1
0,57,76,3
0,55,47,1
0,58,50,2
0,67,0,0
0,62,57,2
0,67,62,2
0,67,0,35
0,57,0,1
0,62,0,1
0,55,70,1
0,55,0,0
0,58,0,2
0,67,49,0
0,62,42,2
0,58,36,2
0,55,29,3
0,55,0,33
0,50,0,3
0,58,0,2
0,62,0,0
0,55,0,1
0,67,0,0
0,50,64,1
0,50,50,3
0,57,56,1
0,62,66,2
0,65,65,2
0,69,72,1
0,50,0,36
0,55,67,7
0,55,0,39
0,50,0,3
0,57,0,1
0,62,0,2
0,57,70,1
0,50,45,0
0,57,49,2
0,65,0,0
0,69,0,1
0,62,52,1
0,65,55,2
0,69,57,2
0,65,0,37
0,69,0,1
0,69,46,1
0,62,0,1
0,65,41,1
0,57,0,1
0,62,28,2
0,57,22,2
0,50,0,34
0,62,0,3
0,65,0,0
0,57,0,1
0,50,48,3
0,69,0,0
0,57,52,1
0,62,60,2
0,65,65,2
0,69,72,1
0,50,0,85
0,62,0,3
0,50,44,2
0,57,0,1
0,65,0,0
0,57,46,1
0,69,0,2
0,62,50,1
0,65,52,2
0,69,56,2
0,69,0,32
0,62,0,5
0,65,0,1
0,69,46,2
0,65,42,3
0,57,0,1
0,62,35,2
0,57,31,2
0,62,0,34
0,57,0,1
0,50,0,1
0,65,0,1
0,50,43,4
0,69,0,1
0,57,49,1
0,62,59,1
0,65,65,2
0,69,73,3
0,57,0,81
0,62,0,0
0,50,0,1
0,65,0,2
0,50,34,2
0,57,39,2
0,69,0,0
0,62,41,2
0,65,47,3
0,69,52,2
0,69,0,32
0,65,0,5
0,57,0,2
0,62,0,1
0,69,52,0
0,65,46,3
0,62,37,2
0,57,32,3
0,50,0,35
0,65,0,3
0,62,0,2
0,50,48,1
0,57,0,0
0,57,53,1
0,69,0,0
0,62,61,2
0,65,66,2
0,69,72,1
0,69,0,37
0,57,0,3
0,69,67,0
0,50,0,1
0,62,0,1
0,65,0,0
0,65,57,1
0,62,47,2
0,57,54,3
0,50,35,2
0,50,0,33
0,57,0,2
0,57,0,2
0,62,0,1
0,50,43,2
0,65,0,0
0,69,0,0
0,57,47,2
0,62,48,2
0,65,51,2
0,69,53,2
0,69,0,33
0,65,0,4
0,69,33,1
0,62,0,2
0,65,31,1
0,57,0,1
0,62,25,1
0,57,22,4
0,50,0,26
0,69,0,9
0,57,0,1
0,62,0,0
0,65,0,2
0,50,51,3
0,55,57,1
0,58,62,2
0,62,68,2
0,67,73,1
0,67,0,84
0,50,0,1
0,55,0,1
0,58,0,2
0,50,42,1
0,62,0,0
0,55,45,2
0,58,48,2
0,62,52,2
0,67,56,2
0,67,0,34
0,62,0,1
0,67,57,5
0,58,0,1
0,62,51,1
0,55,0,1
0,58,47,2
0,55,44,2
0,50,0,35
0,55,0,0
0,58,0,2
0,67,0,1
0,62,0,1
0,46,73,1
0,50,54,1
0,55,57,1
0,58,65,2
0,62,70,2
0,67,73,1
0,46,0,30
0,67,0,7
0,55,0,1
0,62,0,0
0,58,0,2
0,67,57,1
0,45,68,1
0,62,50,1
0,58,44,2
0,55,37,3
0,45,0,30
0,50,0,5
0,58,0,3
0,55,0,1
0,67,0,0
0,43,64,1
0,50,44,1
0,62,0,1
0,55,47,1
0,58,50,3
0,62,54,2
0,67,58,2
0,67,0,32
0,58,0,5
0,62,0,1
0,67,41,2
0,62,38,3
0,55,0,1
0,58,32,2
0,55,28,2
0,43,0,19
0,50,0,13
0,58,0,2
0,55,0,1
0,62,0,2
0,50,67,2
0,67,0,0
0,50,53,2
0,55,56,2
0,58,63,1
0,62,67,2
0,67,74,2
0,50,0,72
0,58,0,9
0,50,0,1
0,55,0,2
0,55,67,1
0,50,38,2
0,62,0,0
0,55,45,2
0,67,0,0
0,58,48,2
0,62,51,3
0,67,54,2
0,55,0,25
0,67,0,7
0,58,0,4
0,62,0,1
0,55,0,2
0,50,0,1
0,67,52,0
0,53,73,2
0,62,49,1
0,58,44,2
0,55,42,2
0,50,40,2
0,50,0,35
0,58,0,0
0,55,0,1
0,67,0,1
0,62,0,1
0,50,54,2
0,55,58,1
0,58,63,2
0,62,67,2
0,67,73,1
0,53,0,33
0,62,0,0
0,55,0,2
0,67,0,2
0,58,0,3
0,50,0,1
0,67,51,0
0,62,47,2
0,58,43,3
0,55,40,2
0,55,67,2
0,50,34,0
0,62,0,34
0,55,0,1
0,58,0,1
0,55,46,4
0,58,50,2
0,67,0,0
0,62,57,2
0,67,62,2
0,67,0,35
0,62,0,2
0,55,0,1
0,58,0,2
0,67,49,0
0,62,42,2
0,58,36,2
0,55,29,3
0,55,0,4
0,50,0,32
0,58,0,2
0,55,0,1
0,67,0,0
0,62,0,3
0,58,75,1
0,48,50,0
0,55,56,1
0,60,66,2
0,64,65,2
0,67,72,1
0,58,0,74
0,48,0,11
0,55,0,1
0,60,0,2
0,48,45,1
0,55,49,2
0,64,0,0
0,67,0,1
0,57,70,1
0,60,52,0
0,64,55,2
0,67,57,2
0,57,0,30
0,64,0,7
0,67,0,1
0,67,46,1
0,60,0,1
0,64,41,1
0,55,64,1
0,55,0,0
0,60,28,2
0,55,22,2
0,48,0,37
0,60,0,0
0,64,0,0
0,55,0,1
0,67,0,0
0,48,48,3
0,55,52,1
0,60,60,2
0,64,65,2
0,67,72,1
0,48,0,85
0,60,0,3
0,48,44,2
0,55,0,1
0,64,0,0
0,55,46,1
0,67,0,2
0,60,50,1
0,64,52,2
0,67,56,2
0,67,0,32
0,60,0,5
0,64,0,1
0,67,46,2
0,64,42,3
0,55,0,1
0,60,35,2
0,55,31,2
0,60,0,34
0,55,0,1
0,48,0,1
0,64,0,1
0,48,43,4
0,67,0,1
0,55,49,1
0,60,59,1
0,64,65,2
0,67,73,3
0,67,0,35
0,64,0,1
0,55,0,1
0,60,0,0
0,67,51,1
0,64,49,3
0,60,43,2
0,55,40,4
0,55,0,24
0,48,0,11
0,55,0,1
0,60,0,0
0,64,0,2
0,48,34,1
0,55,39,2
0,67,0,0
0,55,66,1
0,60,41,1
0,64,47,3
0,67,52,2
0,67,0,32
0,55,0,1
0,64,0,4
0,55,0,2
0,50,69,1
0,60,0,0
0,67,52,0
0,64,46,3
0,60,37,2
0,55,32,3
0,50,0,33
0,48,0,2
0,64,0,3
0,67,0,1
0,60,0,1
0,52,73,1
0,48,48,0
0,55,0,0
0,55,53,1
0,60,61,2
0,64,66,2
0,67,72,1
0,67,0,37
0,55,0,3
0,67,67,0
0,48,0,1
0,60,0,1
0,64,0,0
0,64,57,1
0,60,47,2
0,55,54,3
0,48,35,2
0,52,0,19
0,48,0,14
0,55,0,2
0,53,73,3
0,60,0,0
0,48,41,2
0,64,0,0
0,67,0,0
0,55,45,2
0,60,46,2
0,64,49,2
0,67,51,2
0,67,0,33
0,64,0,4
0,67,34,1
0,60,0,2
0,64,32,1
0,55,0,1
0,60,26,1
0,55,23,4
0,53,0,10
0,48,0,16
0,67,0,9
0,55,0,1
0,60,0,0
0,55,75,1
0,64,0,1
0,50,51,3
0,55,57,1
0,58,62,2
0,62,68,2
0,67,73,1
0,55,0,33
0,67,0,0
0,50,0,1
0,55,0,1
0,58,0,2
0,50,42,1
0,62,0,0
0,55,67,2
0,55,45,0
0,58,48,2
0,62,52,2
0,67,56,2
0,67,0,34
0,62,0,1
0,67,57,5
0,58,0,1
0,62,51,1
0,55,0,1
0,58,47,2
0,55,44,2
0,55,0,32
0,50,0,3
0,58,0,2
0,67,0,1
0,62,0,1
0,50,54,2
