track,note,velocity,time
0,65,90,48
0,72,91,42
0,77,103,0
0,29,65,0
0,42,74,3
0,46,73,170
0,46,43,68
0,42,63,0
0,38,103,0
0,46,68,190
0,46,52,70
0,42,57,0
0,46,70,65
0,46,46,70
0,38,103,58
0,42,66,0
0,70,85,190
0,75,91,0
0,46,70,0
0,46,52,70
0,42,74,70
0,46,73,190
0,46,43,20
0,42,63,70
0,38,104,0
0,46,68,190
0,46,52,70
0,42,57,68
0,46,70,187
0,46,46,3
0,42,66,60
0,38,104,0
0,46,70,190
0,68,72,3
0,73,90,0
0,46,52,70
0,42,74,40
0,46,73,190
0,46,43,70
0,42,63,70
0,38,103,0
0,46,68,190
0,46,52,68
0,42,57,67
0,46,70,129
0,46,46,70
0,42,66,60
0,38,105,0
0,67,81,190
0,74,81,0
0,70,82,0
0,46,70,3
0,46,52,67
0,42,74,70
0,46,73,190
0,46,43,68
0,42,63,72
0,38,103,0
0,46,68,157
0,46,52,68
0,42,57,40
0,46,70,50
0,46,46,72
0,42,66,70
0,38,103,0
0,46,70,60
0,46,52,70
0,65,82,23
0,72,91,10
0,77,85,0
0,29,65,0
0,42,74,0
0,46,73,168
0,46,43,72
0,40,48,0
0,42,63,0
0,38,107,0
0,46,68,190
0,46,52,70
0,42,57,0
0,46,70,145
0,46,46,70
0,42,66,60
0,40,47,0
0,38,107,0
0,70,80,190
0,46,70,0
0,75,78,3
0,46,52,0
0,42,74,73
0,46,73,187
0,46,43,70
0,42,63,70
0,38,103,0
0,40,53,3
0,46,68,187
0,46,52,70
0,79,90,70
0,42,57,0
0,46,70,190
0,46,46,70
0,80,90,2
0,40,53,3
0,42,66,0
0,38,107,0
0,73,82,185
0,68,84,2
0,46,70,3
0,46,52,65
0,77,88,72
0,42,74,3
0,46,73,160
0,46,43,70
0,42,63,25
0,38,103,0
0,46,68,0
0,46,52,70
0,42,57,7
0,46,70,82
0,46,46,70
0,42,66,60
0,40,48,0
0,38,104,0
0,67,74,190
0,70,90,0
0,74,79,0
0,46,70,3
0,46,52,67
0,42,74,70
0,46,73,190
0,46,43,70
0,42,63,68
0,38,104,0
0,46,68,192
0,46,52,70
0,42,57,70
0,77,85,155
0,84,85,3
0,89,85,12
0,46,70,20
0,46,46,8
0,42,66,3
0,38,107,0
0,46,70,60
0,46,52,12
0,65,86,12
0,72,94,0
0,77,101,17
0,29,65,0
0,35,107,3
0,42,74,0
0,29,65,5
0,46,73,14
0,46,43,35
0,42,63,8
0,38,103,2
0,29,65,55
0,46,68,3
0,29,65,3
0,46,52,2
0,35,109,7
0,42,57,0
0,46,70,5
0,46,46,15
0,42,66,42
0,38,105,0
0,72,82,22
0,64,82,0
0,67,88,3
0,76,90,0
0,46,70,2
0,46,52,20
0,88,85,55
0,29,65,13
0,35,109,2
0,42,74,0
0,29,65,44
0,46,73,20
0,46,43,17
0,42,63,50
0,38,107,0
0,46,68,90
0,29,65,0
0,29,65,17
0,46,52,0
0,35,109,5
0,42,57,0
0,46,70,3
0,46,46,67
0,42,66,60
0,38,103,0
0,66,81,2
0,71,74,0
0,63,75,0
0,75,93,0
0,46,70,0
0,46,52,15
0,87,85,20
0,83,85,18
0,35,109,32
0,42,74,0
0,29,65,0
0,29,65,42
0,46,73,17
0,46,43,70
0,40,43,70
0,42,63,0
0,38,105,0
0,29,65,190
0,46,68,0
0,29,65,52
0,46,52,3
0,35,107,15
0,42,57,0
0,46,70,64
0,46,46,70
0,38,105,58
0,42,66,2
0,40,50,0
0,70,80,190
0,62,83,3
0,74,88,0
0,65,81,2
0,46,70,3
0,46,52,45
0,82,85,17
0,86,85,20
0,29,65,12
0,42,74,0
0,35,111,3
0,29,65,33
0,46,73,14
0,46,43,70
0,40,54,70
0,42,63,0
0,38,103,3
0,29,65,135
0,46,68,3
0,29,65,47
0,46,52,0
0,42,57,3
0,35,111,2
0,46,70,188
0,46,46,15
0,42,66,37
0,38,103,0
0,46,70,60
0,46,52,70
0,57,81,40
0,61,74,5
0,65,81,8
0,69,84,32
0,81,85,10
0,85,85,3
0,73,84,7
0,29,65,5
0,35,109,3
0,42,74,2
0,77,102,0
0,29,65,37
0,46,73,12
0,46,43,70
0,42,63,70
0,38,104,0
0,29,65,190
0,46,68,3
0,29,65,57
0,46,52,3
0,35,107,43
0,42,57,2
0,46,70,82
0,46,46,32
0,42,66,70
0,38,103,0
0,46,70,45
0,46,52,70
0,80,85,55
0,84,85,5
0,63,81,10
0,72,89,0
0,56,71,0
0,68,73,0
0,29,65,0
0,65,77,0
0,35,106,0
0,42,74,0
0,29,65,30
0,46,73,35
0,46,43,70
0,42,63,70
0,38,103,0
0,29,65,188
0,46,68,2
0,29,65,52
0,46,52,0
0,35,107,15
0,42,57,0
0,46,70,82
0,46,46,70
0,42,66,15
0,38,103,0
0,46,70,60
0,46,52,70
0,83,85,40
0,79,85,15
0,67,79,5
0,71,86,0
0,62,86,0
0,55,82,0
0,29,65,0
0,35,111,5
0,42,74,0
0,29,65,35
0,46,73,15
0,46,43,72
0,42,63,68
0,38,105,0
0,29,65,52
0,46,68,3
0,29,65,57
0,46,52,3
0,35,109,12
0,42,57,0
0,77,104,188
0,46,70,2
0,46,46,42
0,42,66,3
0,38,105,0
0,61,86,152
0,70,84,5
0,54,71,0
0,66,89,0
0,46,70,0
0,46,52,60
0,82,85,53
0,78,85,12
0,42,74,3
0,29,65,0
0,35,107,2
0,29,65,27
0,46,73,2
0,46,43,68
0,42,63,75
0,38,105,0
0,29,65,107
0,46,68,0
0,29,65,52
0,46,52,0
0,35,109,10
0,42,57,0
0,72,100,38
0,46,70,5
0,46,46,70
0,42,66,30
0,38,107,0
0,46,70,60
0,46,52,68
0,84,85,32
0,60,89,40
0,53,84,0
0,65,90,0
0,29,65,0
0,35,109,3
0,42,74,0
0,29,65,37
0,46,73,64
0,46,43,70
0,42,63,70
0,38,105,0
0,29,65,190
0,46,68,3
0,29,65,50
0,46,52,0
0,35,107,13
0,42,57,0
0,46,70,192
0,46,46,70
0,38,104,68
0,42,66,5
0,46,70,187
0,46,52,70
0,35,109,55
0,42,74,0
0,29,65,0
0,29,65,35
0,46,73,18
0,46,43,10
0,42,63,70
0,38,102,0
0,29,65,35
0,46,68,3
0,29,65,50
0,46,52,3
0,35,107,67
0,42,57,3
0,46,70,27
0,46,46,28
0,42,66,30
0,38,104,0
0,46,70,105
0,46,52,25
0,29,65,0
0,35,110,3
0,42,74,2
0,29,65,33
0,46,73,19
0,46,43,70
0,42,63,68
0,38,105,0
0,46,68,180
0,29,65,0
0,29,65,55
0,46,52,0
0,35,109,15
0,42,57,2
0,46,70,12
0,46,46,42
0,42,66,25
0,38,103,0
0,46,70,30
0,46,52,45
0,29,65,68
0,35,107,0
0,42,74,0
0,29,65,34
0,46,73,13
0,46,43,2
0,35,107,30
0,42,63,2
0,29,65,50
0,46,68,0
0,29,65,50
0,46,52,2
0,53,105,49
0,42,57,0
0,48,92,20
0,53,105,7
0,46,70,20
0,47,94,20
0,55,105,20
0,46,46,10
0,42,66,70
0,38,104,0
0,56,105,5
0,38,104,10
0,46,70,37
0,38,102,0
0,60,105,3
0,46,52,70
0,60,89,3
0,61,103,0
0,68,97,32
0,34,65,0
0,65,58,3
0,60,58,2
0,56,58,0
0,35,109,0
0,42,78,3
0,60,58,37
0,65,58,0
0,56,58,0
0,60,58,52
0,56,58,0
0,65,58,0
0,42,75,3
0,56,58,28
0,60,58,2
0,65,58,0
0,42,53,40
0,41,65,30
0,35,111,3
0,42,48,0
0,56,58,155
0,60,58,0
0,65,58,0
0,42,75,0
0,46,65,52
0,56,58,0
0,65,58,0
0,60,58,3
0,42,74,35
0,65,58,32
0,56,58,3
0,42,51,0
0,60,58,2
0,65,58,55
0,56,58,2
0,60,58,3
0,60,58,47
0,56,58,3
0,65,58,0
0,42,75,0
0,35,110,40
0,42,66,3
0,41,65,25
0,35,101,2
0,42,37,3
0,42,75,140
0,38,104,0
0,34,65,70
0,42,74,24
0,53,105,28
0,60,58,2
0,65,58,3
0,56,58,0
0,42,57,2
0,65,58,50
0,56,58,0
0,60,58,0
0,53,105,47
0,60,58,5
0,65,58,0
0,56,58,0
0,42,75,5
0,55,105,47
0,60,58,10
0,56,58,0
0,65,58,3
0,42,70,25
0,41,65,30
0,35,109,3
0,42,59,0
0,56,105,23
0,60,58,95
0,65,58,3
0,56,58,2
0,42,75,0
0,46,65,50
0,60,58,3
0,65,58,2
0,56,58,0
0,42,70,35
0,65,58,13
0,60,58,2
0,60,105,0
0,42,54,0
0,56,58,3
0,60,58,25
0,65,58,0
0,56,58,0
0,58,105,35
0,65,87,13
0,65,58,2
0,56,58,0
0,61,90,0
0,60,58,2
0,42,75,0
0,56,105,20
0,35,107,22
0,42,63,0
0,41,65,28
0,42,46,2
0,35,106,3
0,58,105,25
0,42,75,32
0,38,104,3
0,42,75,107
0,60,90,30
0,58,91,3
0,67,90,0
0,63,92,0
0,29,65,2
0,63,58,0
0,42,59,0
0,58,58,3
0,67,58,0
0,58,58,25
0,67,58,0
0,63,58,3
0,63,58,47
0,67,58,0
0,58,58,0
0,42,75,3
0,67,58,45
0,63,58,3
0,58,58,0
0,42,74,37
0,36,65,30
0,35,107,3
0,42,56,0
0,58,58,125
0,42,75,3
0,67,58,2
0,63,58,0
0,41,65,47
0,58,58,3
0,67,58,0
0,63,58,0
0,42,75,18
0,63,58,30
0,58,58,2
0,67,58,0
0,42,54,0
0,58,58,47
0,67,58,0
0,67,58,38
0,58,58,2
0,63,58,3
0,42,75,2
0,35,110,52
0,42,59,0
0,36,65,30
0,35,107,0
0,42,50,0
0,42,75,60
0,38,104,3
0,29,65,54
0,42,63,40
0,60,83,30
0,65,86,3
0,56,81,0
0,72,58,2
0,63,58,0
0,56,58,0
0,67,58,0
0,42,57,0
0,67,58,35
0,56,58,0
0,72,58,0
0,63,58,0
0,63,58,45
0,56,58,0
0,42,75,3
0,67,58,2
0,72,58,3
0,63,58,49
0,56,58,0
0,72,58,3
0,67,58,2
0,42,74,35
0,36,65,25
0,35,107,2
0,42,61,0
0,56,58,118
0,72,58,2
0,67,58,0
0,63,58,3
0,42,75,2
0,41,65,55
0,72,58,3
0,67,58,0
0,63,58,2
0,56,58,0
0,42,78,27
0,67,58,24
0,72,58,0
0,56,58,3
0,63,58,0
0,42,59,0
0,53,105,5
0,72,58,45
0,56,58,3
0,63,58,0
0,67,58,2
0,53,105,5
0,72,58,12
0,56,58,0
0,63,58,3
0,42,75,0
0,67,58,2
0,55,105,4
0,35,110,47
0,42,74,0
0,36,65,30
0,42,57,0
0,35,95,3
0,56,105,8
0,42,75,52
0,38,102,0
0,60,105,28
0,60,88,70
0,42,63,15
0,61,97,20
0,68,103,28
0,34,65,2
0,65,58,0
0,56,58,0
0,42,57,3
0,60,58,2
0,60,58,35
0,65,58,0
0,56,58,0
0,65,58,52
0,42,75,0
0,60,58,3
0,56,58,0
0,65,58,47
0,60,58,3
0,56,58,0
0,42,70,37
0,41,65,30
0,35,109,0
0,42,59,0
0,61,105,75
0,65,58,72
0,56,58,0
0,60,58,0
0,42,75,3
0,60,105,7
0,46,65,45
0,56,58,3
0,60,58,0
0,65,58,2
0,42,70,35
0,56,58,30
0,60,58,0
0,65,58,0
0,42,54,3
0,65,58,57
0,60,58,0
0,56,58,3
0,58,105,17
0,56,58,47
0,60,58,0
0,65,58,0
0,42,75,3
0,35,107,40
0,42,63,0
0,41,65,30
0,35,106,0
0,42,46,3
0,38,104,140
0,42,75,3
0,34,65,67
0,42,75,40
0,56,58,17
0,60,58,3
0,53,105,0
0,42,59,0
0,65,58,2
0,65,58,52
0,56,58,0
0,60,58,0
0,53,105,47
0,60,58,3
0,65,58,2
0,56,58,0
0,42,75,3
0,55,105,49
0,65,58,3
0,60,58,2
0,56,58,0
0,42,74,27
0,41,65,30
0,42,56,0
0,35,107,3
0,56,105,25
0,65,58,98
0,60,58,0
0,56,58,0
0,42,75,5
0,46,65,52
0,60,58,3
0,65,58,0
0,56,58,2
0,42,75,35
0,65,58,17
0,60,58,0
0,56,58,3
0,42,54,0
0,60,105,17
0,60,58,38
0,65,58,2
0,56,58,0
0,65,101,44
0,61,93,0
0,56,58,3
0,65,58,0
0,60,58,0
0,58,105,0
0,42,75,5
0,56,105,35
0,35,110,27
0,42,59,2
0,41,65,27
0,35,107,0
0,42,50,0
0,58,105,22
0,67,94,0
0,63,93,0
0,58,75,0
0,42,75,2
0,38,104,0
0,60,87,3
0,42,63,105
0,29,65,10
0,67,58,0
0,63,58,3
0,58,58,0
0,42,57,0
0,67,58,25
0,58,58,0
0,63,58,3
0,58,58,49
0,67,58,0
0,63,58,3
0,42,75,0
0,58,58,43
0,63,58,5
0,67,58,0
0,42,74,42
0,36,65,25
0,35,107,0
0,42,61,3
0,63,58,127
0,58,58,3
0,67,58,2
0,42,75,0
0,41,65,52
0,58,58,0
0,63,58,3
0,67,58,0
0,42,78,20
0,67,58,2
0,58,58,0
0,63,58,0
0,42,59,0
0,58,58,43
0,67,58,2
0,67,58,34
0,42,75,0
0,63,58,3
0,58,58,0
0,35,110,52
0,42,74,0
0,36,65,30
0,35,95,0
0,42,57,3
0,42,75,60
0,38,102,0
0,29,65,12
0,42,63,42
0,56,78,30
0,65,92,0
0,56,58,0
0,72,58,3
0,67,58,2
0,63,58,0
0,42,57,3
0,63,58,47
0,56,58,0
0,67,58,2
0,72,58,0
0,56,58,0
0,72,58,0
0,63,58,0
0,42,75,0
0,67,58,5
0,63,58,52
0,67,58,0
0,56,58,3
0,72,58,2
0,42,70,35
0,36,65,27
0,35,109,0
0,42,59,3
0,56,58,122
0,63,58,3
0,72,58,0
0,67,58,0
0,42,75,0
0,41,65,54
0,67,58,3
0,72,58,2
0,63,58,0
0,56,58,3
0,42,70,32
0,67,58,27
0,56,58,0
0,72,58,3
0,63,58,2
0,42,54,0
0,53,105,28
0,63,58,47
0,72,58,0
0,56,58,5
0,67,58,0
0,63,58,50
0,56,58,2
0,67,58,0
0,72,58,0
0,42,75,0
0,53,105,5
0,55,105,25
0,35,107,10
0,42,63,0
0,36,65,30
0,35,106,0
0,42,46,3
0,56,105,57
0,42,75,35
0,38,104,0
0,60,105,5
0,60,91,0
0,65,93,37
0,42,75,20
0,61,96,15
0,72,96,30
0,68,58,0
0,65,58,2
0,34,65,0
0,72,58,3
0,61,58,0
0,42,59,2
0,65,58,40
0,72,58,0
0,68,58,3
0,61,58,0
0,72,58,40
0,68,58,0
0,65,58,3
0,42,75,0
0,61,58,2
0,68,58,37
0,65,58,3
0,72,58,0
0,61,58,2
0,42,74,15
0,41,65,25
0,42,56,0
0,35,107,3
0,68,58,187
0,72,58,0
0,61,58,3
0,65,58,0
0,42,75,2
0,46,65,24
0,72,58,3
0,61,58,0
0,65,58,0
0,68,58,0
0,42,75,5
0,55,105,2
0,68,58,5
0,72,58,3
0,61,58,0
0,65,58,0
0,42,54,2
0,61,58,34
0,68,58,3
0,72,58,0
0,65,58,2
0,55,105,12
0,68,58,25
0,72,58,0
0,68,104,0
0,42,75,3
0,65,58,2
0,61,58,0
0,56,105,18
0,35,110,2
0,42,59,0
0,41,65,15
0,35,107,0
0,42,50,3
0,58,105,7
0,61,98,2
0,70,85,0
0,42,75,3
0,38,104,2
0,67,95,0
0,65,84,0
0,61,105,20
0,39,65,68
0,42,63,20
0,70,58,10
0,63,58,0
0,42,57,3
0,67,58,2
0,61,58,0
0,70,58,38
0,63,58,2
0,67,58,0
0,61,58,3
0,70,58,33
0,63,58,2
0,67,58,0
0,61,58,3
0,42,75,2
0,34,65,40
0,67,58,3
0,63,58,0
0,70,58,2
0,61,58,0
0,42,74,35
0,42,61,0
0,35,107,3
0,27,65,187
0,61,58,0
0,70,58,3
0,42,75,2
0,63,58,3
0,70,58,32
0,63,58,2
0,61,58,0
0,67,58,0
0,42,78,40
0,67,58,7
0,70,58,0
0,61,58,0
