track,note,velocity,time
1,78,100,1536
1,78,100,1792
1,76,100,64
1,74,100,64
1,76,100,64
1,74,100,32
1,74,100,32
1,71,100,2208
1,74,100,64
1,74,100,32
1,76,100,32
1,74,100,32
1,78,100,32
1,78,100,64
1,71,100,1920
1,71,100,32
1,78,100,32
1,76,100,32
1,74,100,32
1,76,100,32
1,74,100,32
1,74,100,32
1,74,100,2208
1,74,100,64
1,74,100,32
1,76,100,32
1,74,100,32
1,78,100,32
1,76,100,32
1,74,100,32
1,71,100,1536
1,78,100,64
1,76,100,64
1,74,100,64
1,76,100,64
1,74,100,64
1,76,100,32
1,74,100,32
1,66,100,19008
1,66,100,64
1,74,100,64
1,74,100,64
1,74,100,64
1,76,100,64
1,73,100,32
1,73,100,96
1,73,100,64
1,71,100,64
1,74,100,64
1,74,100,64
1,74,100,64
1,76,100,64
1,73,100,32
1,73,100,96
1,71,100,128
1,71,100,64
1,66,100,2624
1,74,100,64
1,74,100,64
1,74,100,64
1,76,100,64
1,73,100,32
1,73,100,96
1,73,100,64
1,73,100,44
1,71,100,44
1,74,100,44
1,74,100,64
1,74,100,64
1,76,100,64
1,73,100,32
1,73,100,96
1,71,100,128
1,71,100,64
1,71,100,2624
1,78,100,64
1,78,100,64
1,78,100,64
1,79,100,64
1,76,100,32
1,76,100,96
1,76,100,64
1,74,100,64
1,78,100,64
1,78,100,64
1,78,100,64
1,79,100,64
1,76,100,32
1,76,100,96
1,74,100,128
1,78,100,64
1,79,100,64
1,76,100,64
1,74,100,64
1,78,100,2112
1,78,100,64
1,78,100,64
1,79,100,64
1,76,100,32
1,76,100,96
1,76,100,64
1,74,100,64
1,78,100,64
1,78,100,64
1,78,100,64
1,79,100,64
1,76,100,32
1,76,100,96
1,76,100,64
1,74,100,64
1,78,100,64
1,79,100,64
1,76,100,64
1,74,100,64
1,71,100,1920
1,73,100,64
1,73,100,64
1,73,100,64
1,74,100,64
1,71,100,32
1,71,100,96
1,69,100,128
1,73,100,64
1,73,100,64
1,73,100,64
1,74,100,64
1,71,100,32
1,71,100,96
1,71,100,64
1,71,100,64
1,71,100,64
1,69,100,32
1,67,100,32
1,78,100,2496
1,78,100,1792
1,76,100,64
1,74,100,64
1,76,100,64
1,74,100,32
1,74,100,1856
1,74,100,64
1,74,100,64
1,76,100,64
1,74,100,64
1,78,100,32
1,78,100,32
1,78,100,480
1,71,100,896
1,71,100,64
1,78,100,64
1,76,100,64
1,74,100,64
1,76,100,64
1,74,100,32
1,74,100,32
1,74,100,2208
1,74,100,64
1,74,100,32
1,76,100,32
1,74,100,32
1,78,100,32
1,76,100,32
1,74,100,32
1,71,100,1536
1,78,100,64
1,76,100,64
1,74,100,64
1,76,100,64
1,74,100,64
1,76,100,64
1,74,100,128
1,74,100,1152
1,74,100,64
1,74,100,64
1,76,100,64
1,74,100,64
1,78,100,64
1,76,100,128
1,76,100,1472
1,76,100,64
1,76,100,64
1,76,100,64
1,74,100,64
1,73,100,32
1,66,100,1856
1,74,100,64
1,73,100,64
1,71,100,64
1,73,100,64
1,71,100,32
1,71,100,64
1,66,100,11520
1,74,100,64
1,74,100,64
1,74,100,64
1,76,100,64
1,73,100,32
1,73,100,96
1,71,100,128
1,74,100,64
1,74,100,64
1,74,100,64
1,76,100,64
1,73,100,32
1,73,100,96
1,71,100,128
1,71,100,64
1,66,100,2528
1,66,100,32
1,66,100,32
1,74,100,32
1,74,100,64
1,74,100,64
1,76,100,64
1,73,100,32
1,73,100,96
1,74,100,576
1,74,100,44
1,76,100,44
1,73,100,44
1,73,100,64
1,71,100,128
1,71,100,64
1,71,100,2624
1,78,100,64
1,78,100,64
1,78,100,64
1,79,100,64
1,76,100,32
1,76,100,96
1,74,100,768
1,78,100,64
1,79,100,64
1,76,100,64
1,74,100,64
1,71,100,2368
1,78,100,64
1,78,100,64
1,78,100,64
1,79,100,64
1,76,100,32
1,76,100,96
1,74,100,768
1,78,100,64
1,79,100,64
1,76,100,64
1,74,100,64
1,69,100,2368
1,73,100,64
1,73,100,64
1,73,100,64
1,74,100,64
1,71,100,32
1,71,100,96
1,71,100,64
1,69,100,64
1,73,100,64
1,73,100,64
1,73,100,64
1,74,100,64
1,71,100,32
1,71,100,96
1,71,100,64
1,71,100,64
1,71,100,64
1,69,100,32
1,67,100,32
1,78,100,2496
1,78,100,1792
1,76,100,64
1,74,100,64
1,76,100,64
1,74,100,32
1,74,100,1856
1,74,100,64
1,74,100,64
1,76,100,64
1,74,100,64
1,78,100,32
1,78,100,32
1,78,100,480
1,71,100,896
1,71,100,64
1,78,100,64
1,76,100,64
1,74,100,64
1,76,100,64
1,74,100,32
1,74,100,32
1,74,100,2208
1,74,100,64
1,74,100,32
1,76,100,32
1,74,100,32
1,78,100,32
1,76,100,32
1,74,100,32
1,71,100,1536
1,78,100,64
1,76,100,64
1,74,100,64
1,76,100,64
1,74,100,64
1,76,100,64
1,74,100,128
1,74,100,1152
1,74,100,64
1,74,100,64
1,76,100,64
1,74,100,64
1,78,100,64
1,76,100,128
1,76,100,1472
1,76,100,64
1,76,100,64
1,76,100,64
1,74,100,64
1,73,100,32
1,66,100,1856
1,74,100,64
1,73,100,64
1,71,100,64
1,73,100,64
1,71,100,32
1,71,100,64
2,71,0,16896
2,69,6,4
2,64,9,4
2,69,12,4
2,71,16,96
2,69,22,4
2,64,25,4
2,69,28,4
2,71,35,4
2,69,41,4
2,64,45,4
2,69,48,4
2,74,51,96
2,76,57,4
2,76,70,4
2,76,74,4
2,74,80,4
2,71,86,4
2,69,90,4
2,71,93,4
2,67,96,4
2,67,99,4
2,66,100,4
2,71,100,4
2,69,100,4
2,67,100,4
2,69,100,4
2,71,100,4
2,69,100,4
2,71,100,4
2,69,100,4
2,71,100,4
2,69,100,4
2,71,100,4
2,69,100,4
2,71,100,4
2,69,100,4
2,71,100,4
2,69,100,4
2,71,100,4
2,69,100,4
2,71,100,4
2,69,100,4
2,71,100,4
2,69,100,4
2,71,100,4
2,69,100,4
2,71,100,4
2,69,100,4
2,71,100,4
2,69,100,4
2,71,100,4
2,69,100,4
2,71,100,4
2,69,100,4
2,71,100,4
2,69,100,4
2,71,100,4
2,69,100,4
2,71,100,4
2,69,100,4
2,71,100,4
2,69,100,4
2,71,100,4
2,69,100,4
2,71,100,4
2,69,100,4
2,67,100,4
2,66,100,4
2,67,100,4
2,66,100,4
2,67,100,4
2,66,100,4
2,64,100,4
2,62,100,4
2,66,100,292
2,69,100,4
2,71,100,4
2,74,100,4
2,76,100,4
2,78,100,4
2,66,100,576
2,78,100,4
2,76,100,4
2,74,100,4
2,76,100,4
2,74,100,4
2,71,100,4
2,73,100,4
2,69,100,4
2,69,100,288
2,69,100,4
2,69,100,4
2,74,100,4
2,76,100,96
2,71,100,4
2,69,100,4
2,71,100,4
2,73,100,4
2,74,100,4
2,76,100,4
2,78,100,4
2,79,100,4
2,81,100,4
2,78,100,4
2,78,100,4
2,81,100,4
2,83,100,4
2,81,100,4
2,81,100,4
2,79,100,4
2,81,100,4
2,79,100,4
2,78,100,4
2,76,100,4
2,78,100,4
2,74,100,4
2,71,100,4
2,74,100,4
2,76,100,4
2,78,100,4
2,79,100,4
2,81,100,4
2,83,100,4
2,76,100,52228
2,74,100,4
2,78,100,772
2,76,100,64
2,74,100,64
2,76,100,64
2,74,100,32
2,74,100,1600
2,74,100,64
2,74,100,64
2,76,100,64
2,74,100,64
2,78,100,64
2,78,100,64
2,78,100,128
2,71,100,960
2,71,100,64
2,78,100,64
2,76,100,64
2,74,100,64
2,76,100,64
2,74,100,32
2,55,100,40064
2,59,100,0
2,62,100,0
2,67,100,0
2,71,100,0
2,55,100,580
2,59,100,0
2,71,100,0
2,67,100,0
2,62,100,0
2,76,100,17092
2,74,100,4
2,78,100,772
2,76,100,64
2,74,100,64
2,76,100,64
2,74,100,32
2,74,100,1600
2,74,100,64
2,74,100,64
2,76,100,64
2,74,100,64
2,78,100,64
2,78,100,64
2,78,100,128
2,71,100,960
2,71,100,64
2,78,100,64
2,76,100,64
2,74,100,64
2,76,100,64
2,74,100,32
2,76,100,2816
2,74,100,4
2,78,100,772
2,76,100,64
2,74,100,64
2,76,100,64
2,74,100,32
2,74,100,1600
2,74,100,64
2,74,100,64
2,76,100,64
2,74,100,64
2,78,100,64
2,78,100,64
2,78,100,128
2,71,100,960
2,71,100,64
2,78,100,64
2,76,100,64
2,74,100,64
2,76,100,64
2,74,100,32
2,76,100,2816
2,74,94,4
2,78,100,772
2,76,100,64
2,74,100,64
2,76,100,64
2,74,100,32
2,74,100,1600
2,74,100,64
2,74,100,64
2,76,100,64
2,74,100,64
2,78,100,64
2,78,100,64
2,78,100,128
2,71,92,960
2,71,88,64
2,78,83,64
2,76,79,64
2,74,75,64
2,76,71,64
2,74,69,32
3,66,100,0
3,62,100,0
3,59,100,4
3,66,100,4
3,62,100,0
3,59,100,4
3,66,100,4
3,62,100,0
3,59,100,4
3,67,100,4
3,71,100,0
3,62,100,256
3,67,100,256
3,71,100,0
3,62,100,256
3,71,100,256
3,66,100,0
3,59,100,4
3,71,100,4
3,66,100,0
3,59,100,4
3,67,100,4
3,71,100,0
3,62,100,256
3,67,100,256
3,71,100,0
3,62,100,256
3,71,100,256
3,66,100,0
3,59,100,4
3,71,100,4
3,66,100,0
3,59,100,4
3,67,100,4
3,71,100,0
3,71,100,19456
3,66,100,0
3,62,100,0
3,71,100,4
3,66,100,0
3,62,100,0
3,71,100,4
3,67,100,0
3,62,100,0
3,71,100,4
3,67,100,0
3,62,100,0
3,71,100,4
3,66,100,0
3,62,100,0
3,71,100,4
3,66,100,0
3,62,100,0
3,71,100,4
3,67,100,0
3,62,100,0
3,71,100,4
3,67,100,0
3,62,100,0
3,71,100,4
3,66,100,0
3,62,100,0
3,71,100,4
3,66,100,0
3,62,100,0
3,71,100,4
3,67,100,0
3,62,100,0
3,71,100,4
3,67,100,0
3,62,100,0
3,71,100,4
3,66,100,0
3,62,100,0
3,71,100,4
3,66,100,0
3,62,100,0
3,71,100,4
3,67,100,0
3,62,100,0
3,71,100,4
3,67,100,0
3,62,100,0
3,69,100,4
3,66,100,0
3,61,100,0
3,69,100,4
3,66,100,0
3,61,100,0
3,71,100,4
3,67,100,0
3,62,100,0
3,71,100,4
3,67,100,0
3,62,100,0
3,71,100,4
3,66,100,0
3,62,100,0
3,71,100,4
3,66,100,0
3,62,100,0
3,71,100,4
3,67,100,0
3,62,100,0
3,71,100,4
3,67,100,0
3,62,100,0
3,71,100,4
3,66,100,0
3,62,100,0
3,71,100,4
3,66,100,0
3,62,100,0
3,71,100,4
3,67,100,0
3,62,100,0
3,71,100,4
3,67,100,0
3,62,100,0
3,71,100,4
3,66,100,0
3,62,100,0
3,71,100,4
3,66,100,0
3,62,100,0
3,71,100,4
3,67,100,0
3,62,100,0
3,71,100,4
3,67,100,0
3,62,100,0
3,69,100,4
3,64,100,0
3,61,100,0
3,69,100,4
3,64,100,0
3,61,100,0
3,69,100,4
3,66,100,0
3,61,100,0
3,69,100,4
3,66,100,0
3,61,100,0
3,71,100,4
3,66,100,0
3,62,100,0
3,71,100,4
3,66,100,0
3,62,100,0
3,71,100,4
3,67,100,0
3,62,100,0
3,71,100,4
3,67,100,0
3,62,100,0
3,71,100,4
3,66,100,0
3,62,100,0
3,71,100,4
3,66,100,0
3,62,100,0
3,71,100,4
3,67,100,0
3,62,100,0
3,71,100,4
3,67,100,0
3,62,100,0
3,71,100,4
3,66,100,0
3,62,100,0
3,71,100,4
3,66,100,0
3,62,100,0
3,71,100,4
3,67,100,0
3,62,100,0
3,71,100,4
3,67,100,0
3,62,100,0
3,71,100,4
3,66,100,0
3,62,100,0
3,71,100,4
3,66,100,0
3,62,100,0
3,71,100,4
3,67,100,0
3,62,100,0
3,71,100,4
3,67,100,0
3,62,100,0
3,71,100,4
3,66,100,0
3,62,100,0
3,71,100,4
3,66,100,0
3,62,100,0
3,71,100,4
3,67,100,0
3,62,100,0
3,71,100,4
3,67,100,0
3,62,100,0
3,71,100,4
3,66,100,0
3,62,100,0
3,71,100,4
3,66,100,0
3,62,100,0
3,71,100,4
3,67,100,0
3,62,100,0
3,71,100,4
3,67,100,0
3,62,100,0
3,69,100,4
3,66,100,0
3,61,100,0
3,69,100,4
3,66,100,0
3,61,100,0
3,71,100,4
3,67,100,0
3,62,100,0
3,71,100,4
3,67,100,0
3,62,100,0
3,71,100,4
3,66,100,0
3,62,100,0
3,71,100,4
3,66,100,0
3,62,100,0
3,71,100,4
3,67,100,0
3,62,100,0
3,71,100,4
3,67,100,0
3,62,100,0
3,71,100,4
3,67,100,0
3,62,100,0
3,71,100,4
3,66,100,0
3,62,100,0
3,71,100,4
3,67,100,0
3,62,100,0
3,71,100,4
3,67,100,0
3,62,100,0
3,71,100,4
3,66,100,0
3,62,100,0
3,71,100,4
3,66,100,0
3,62,100,0
3,71,100,4
3,67,100,0
3,62,100,0
3,71,100,4
3,67,100,0
3,62,100,0
3,69,100,4
3,64,100,0
3,61,100,0
3,69,100,4
3,64,100,0
3,61,100,0
3,69,100,4
3,66,100,0
3,61,100,0
3,69,100,4
3,66,100,0
3,61,100,0
3,71,100,4
3,66,100,0
3,62,100,0
3,71,100,4
3,66,100,0
3,62,100,0
3,71,100,4
3,67,100,0
3,62,100,0
3,71,100,4
3,67,100,0
3,62,100,0
3,71,100,4
3,66,100,0
3,62,100,0
3,71,100,4
3,66,100,0
3,62,100,0
3,71,100,4
3,67,100,0
3,62,100,0
3,71,100,4
3,67,100,0
3,62,100,0
3,71,100,4
3,66,100,0
3,62,100,0
3,71,100,4
3,66,100,0
3,62,100,0
3,71,100,4
3,67,100,0
3,62,100,0
3,71,100,4
3,67,100,0
3,62,100,0
3,71,100,4
3,66,100,0
3,62,100,0
3,71,100,4
3,66,100,0
3,62,100,0
3,71,100,4
3,67,100,0
3,62,100,0
3,71,100,4
3,67,100,0
3,62,100,0
3,71,100,4
3,66,100,0
3,62,100,0
3,71,100,4
3,66,100,0
3,62,100,0
3,71,100,4
3,67,100,0
3,62,100,0
3,71,100,4
3,67,100,0
3,62,100,0
3,71,100,4
3,66,100,0
3,62,100,0
3,71,100,4
3,66,100,0
3,62,100,0
3,71,66,4
3,67,66,0
3,62,66,0
3,71,32,4
3,67,32,0
3,62,32,0
4,47,100,0
4,43,100,4
4,47,100,4
4,43,100,4
4,47,100,4
4,43,100,4
4,59,100,288
4,57,100,4
4,52,100,4
4,57,100,4
4,47,100,4
4,59,100,0
4,47,100,292
4,47,100,32
4,54,100,32
4,54,100,32
4,45,100,416
4,45,100,32
4,45,100,32
4,47,100,32
4,47,100,288
4,47,100,32
4,54,100,32
4,54,100,32
4,45,100,416
4,45,100,32
4,45,100,32
4,47,100,32
4,47,100,288
4,47,100,32
4,54,100,32
4,54,100,32
4,45,100,416
4,45,100,32
4,45,100,32
4,47,100,32
4,47,100,288
4,47,100,32
4,54,100,32
4,54,100,32
4,45,100,416
4,45,100,32
4,45,100,32
4,47,100,32
4,47,100,288
4,47,100,32
4,54,100,32
4,54,100,32
4,45,100,416
4,45,100,32
4,45,100,32
4,47,100,32
4,47,100,288
4,47,100,32
4,54,100,32
4,54,100,32
4,45,100,416
4,45,100,32
4,45,100,32
4,47,100,32
4,47,100,288
4,47,100,32
4,54,100,32
4,54,100,32
4,45,100,416
4,45,100,32
4,45,100,32
4,47,100,32
4,47,100,288
4,47,100,32
4,54,100,32
4,54,100,32
4,45,100,416
4,45,100,32
4,45,100,32
4,47,100,32
4,47,100,288
4,47,100,32
4,54,100,32
4,54,100,32
4,45,100,416
4,45,100,32
4,45,100,32
4,47,100,32
4,47,100,288
4,47,100,32
4,54,100,32
4,54,100,32
4,45,100,416
4,45,100,32
4,45,100,32
4,47,100,32
4,47,100,288
4,47,100,32
4,54,100,32
4,54,100,32
4,45,100,416
4,45,100,32
4,45,100,32
4,47,100,32
4,47,100,288
4,47,100,32
4,54,100,32
4,54,100,32
4,45,100,416
4,45,100,32
