track,note,velocity,time
1,76,100,12000
1,76,100,4
1,76,100,4
1,77,100,4
1,77,100,292
1,77,100,4
1,77,100,4
1,76,100,4
1,74,100,4
1,72,100,4
1,71,100,4
1,69,100,4
1,69,100,100
1,69,100,4
1,69,100,4
1,69,100,4
1,69,100,4
1,69,100,4
1,71,100,4
1,71,100,4
1,69,100,4
1,65,100,292
1,65,100,4
1,65,100,4
1,65,100,4
1,65,100,4
1,65,100,4
1,65,100,4
1,65,100,4
1,65,100,4
1,71,100,4
1,71,100,4
1,71,100,4
1,71,100,4
1,71,100,4
1,69,100,4
1,69,100,4
1,69,100,4
1,69,100,4
1,69,100,4
1,69,100,4
1,69,100,4
1,69,100,4
1,69,100,4
1,76,100,4
1,76,100,4
1,76,100,4
1,76,100,100
1,76,100,4
1,76,100,4
1,77,100,4
1,77,100,4
1,77,100,4
1,76,100,4
1,76,100,4
1,74,100,4
1,74,100,4
1,69,100,484
1,69,100,4
1,69,100,4
1,69,100,4
1,69,100,4
1,69,100,4
1,71,100,4
1,71,100,4
1,69,100,4
1,65,100,292
1,65,100,4
1,65,100,4
1,65,100,4
1,65,100,4
1,65,100,4
1,65,100,4
1,65,100,100
1,71,100,52
1,71,100,4
1,71,100,4
1,71,100,4
1,71,100,4
1,71,100,4
1,69,100,292
1,69,100,4
1,69,100,4
1,69,100,4
1,69,100,4
1,69,100,4
1,69,100,4
1,69,100,4
1,76,100,4
1,76,100,4
1,76,100,4
1,76,100,4
1,76,100,4
1,76,100,4
1,76,100,4
1,77,100,4
1,77,100,292
1,77,100,4
1,77,100,4
1,76,100,4
1,74,100,4
1,72,100,4
1,71,100,4
1,69,100,4
1,69,100,196
1,69,100,4
1,69,100,4
1,69,100,4
1,69,100,4
1,71,100,4
1,71,100,4
1,69,100,4
1,69,100,4
1,72,100,388
1,72,100,4
1,67,100,4
1,67,100,4
1,67,100,4
1,74,100,4
1,74,100,4
1,74,100,4
1,74,100,4
1,69,100,4
1,69,100,4
1,69,100,4
1,69,100,4
1,72,100,4
1,72,100,4
1,72,100,1156
1,72,100,4
1,67,100,4
1,67,100,4
1,67,100,4
1,74,100,4
1,74,100,4
1,74,100,4
1,69,100,4
1,69,100,4
1,69,100,100
1,72,100,4
1,72,100,4
1,72,100,4
1,72,100,4
1,72,100,4
1,72,100,4
1,76,100,4
1,74,100,4
1,74,100,4
1,74,100,4
1,76,100,292
1,76,100,4
1,76,100,4
1,77,100,4
1,77,100,4
1,77,100,4
1,76,100,4
1,76,100,4
1,76,100,4
1,76,100,4
1,76,100,4
1,74,100,4
1,74,100,4
1,74,100,4
1,72,100,4
1,71,100,4
1,69,100,292
1,69,100,4
1,69,100,4
1,69,100,4
1,71,100,4
1,71,100,4
1,69,100,4
1,65,100,292
1,65,100,4
1,65,100,4
1,65,100,4
1,65,100,4
1,65,100,4
1,65,100,4
1,65,100,4
1,71,100,4
1,71,100,4
1,71,100,4
1,71,100,4
1,69,100,388
1,69,100,4
1,69,100,4
1,69,100,4
1,76,100,4
1,76,100,4
1,76,100,4
1,76,100,100
1,76,100,4
1,76,100,4
1,77,100,4
1,77,100,4
1,77,100,4
1,77,100,4
1,77,100,4
1,76,100,4
1,76,100,4
1,74,100,4
1,69,100,580
1,69,100,4
1,69,100,4
1,69,100,4
1,69,100,4
1,71,100,4
1,71,100,4
1,69,100,4
1,65,100,388
1,65,100,4
1,65,100,4
1,65,100,4
1,65,100,4
1,71,100,4
1,71,100,4
1,71,100,4
1,69,100,484
1,69,100,4
1,69,100,4
1,69,100,4
1,69,100,4
1,76,100,4
1,76,100,4
1,76,100,4
1,76,100,100
1,76,100,4
1,76,100,4
1,77,100,4
1,77,100,4
1,77,100,4
1,76,100,4
1,76,100,4
1,76,100,4
1,76,100,4
1,74,100,4
1,74,100,4
1,72,100,4
1,69,100,388
1,69,100,4
1,69,100,4
1,69,100,4
1,69,100,4
1,71,100,4
1,71,100,4
1,69,100,4
1,72,100,6532
1,72,100,4
1,72,100,4
1,72,100,4
1,69,100,4
1,74,100,4
1,74,100,4
1,69,100,388
1,70,100,4
1,72,100,4
1,72,100,4
1,72,100,4
1,72,100,4
1,72,100,4
1,72,100,4
1,72,100,4
1,72,100,580
1,72,100,4
1,72,100,4
1,72,100,4
1,69,100,4
1,74,100,4
1,69,100,4
1,72,100,388
1,72,100,4
1,72,100,4
1,72,100,4
1,72,100,4
1,72,100,4
1,76,100,4
1,74,100,4
1,74,100,4
1,72,100,292
1,72,100,4
1,72,100,4
1,72,100,4
1,72,100,4
1,72,100,4
1,69,100,100
1,74,100,4
1,74,100,4
1,74,100,4
1,74,100,4
1,74,100,4
1,74,100,4
1,74,100,4
1,74,100,4
1,76,100,4
1,76,100,4
1,76,100,4
1,76,100,4
1,76,100,4
1,71,100,4
1,69,100,4
1,69,100,4
1,69,100,484
1,74,100,4
1,74,100,4
1,74,100,4
1,74,100,4
1,74,100,4
1,69,100,4
1,67,100,4
1,67,100,4
1,62,100,484
1,71,100,4
1,71,100,4
1,71,100,4
1,71,100,4
1,67,100,4
1,72,100,4
1,72,100,4
1,72,100,580
1,72,100,4
1,72,100,4
1,69,100,4
1,74,100,4
1,74,100,4
1,80,100,484
1,74,100,0
1,76,100,4
1,80,100,0
1,76,100,4
1,80,100,0
1,76,100,4
1,80,100,0
1,76,100,4
1,80,100,0
1,76,100,4
1,71,100,0
1,69,100,4
1,72,100,0
1,69,100,4
1,72,100,0
1,69,100,4
1,72,100,0
1,69,100,196
1,72,100,0
1,69,100,4
1,72,100,0
1,74,100,4
1,77,100,0
1,74,100,4
1,77,100,0
1,74,100,4
1,77,100,0
1,74,100,4
1,77,100,0
1,74,100,4
1,77,100,0
1,74,100,4
1,77,100,0
1,69,100,4
1,74,100,0
1,67,100,4
1,71,100,0
1,67,100,4
1,71,100,0
1,67,100,4
1,71,100,0
1,67,100,964
1,67,100,4
1,69,100,4
1,74,100,4
1,67,100,4
1,69,100,4
1,74,100,4
1,67,100,4
1,69,100,4
1,74,100,4
1,67,100,4
1,69,100,4
1,74,100,4
1,67,100,4
1,69,100,4
1,74,100,4
1,67,100,4
1,69,100,4
1,74,100,4
1,67,100,4
1,69,100,4
1,74,100,4
1,67,100,4
1,69,100,4
1,76,100,2980
1,76,100,4
1,76,100,4
1,77,100,4
1,77,100,4
1,77,100,4
1,77,100,4
1,76,100,4
1,76,100,4
1,76,100,4
1,76,100,4
1,74,100,4
1,74,100,4
1,74,100,4
1,72,100,4
1,69,100,484
1,69,100,4
1,69,100,4
1,69,100,4
1,71,100,4
1,71,100,4
1,69,100,4
1,65,100,292
1,65,100,4
1,65,100,4
1,65,100,4
1,65,100,4
1,65,100,0
1,65,100,4
1,65,100,4
1,65,100,4
1,71,100,4
1,71,100,4
1,71,100,4
1,69,100,4
1,69,100,4
1,69,100,4
1,69,100,4
1,69,100,4
1,69,100,292
1,69,100,4
1,69,100,4
1,69,100,4
1,69,100,4
1,69,100,4
1,76,100,4
1,76,100,4
1,76,100,4
1,76,100,4
1,76,100,100
1,77,100,4
1,77,100,4
1,77,100,4
1,77,100,4
1,77,100,4
1,76,100,4
1,76,100,4
1,76,100,4
1,76,100,4
1,74,100,4
1,74,100,4
1,74,100,4
1,74,100,4
1,72,100,4
1,69,100,388
1,69,100,4
1,69,100,4
1,69,100,4
1,71,100,4
1,72,100,4
1,71,100,4
1,69,100,4
1,65,100,580
1,65,100,132
1,65,100,4
1,65,100,4
1,71,100,4
1,71,100,4
1,71,100,4
1,76,100,1540
1,76,100,4
1,77,100,4
1,77,100,4
1,77,100,4
1,77,100,4
1,77,100,4
1,77,100,4
1,76,100,4
1,76,100,4
1,74,100,4
1,69,100,292
1,69,100,4
1,69,100,4
1,69,100,4
1,71,100,4
1,71,100,4
1,69,100,4
1,69,100,4
1,65,100,100
1,65,100,4
1,65,100,4
1,65,100,4
1,71,100,4
1,71,100,4
1,71,100,4
1,69,100,772
1,69,100,4
1,76,100,4
1,76,100,4
1,76,100,4
1,79,100,292
1,76,100,0
1,76,100,4
1,79,100,0
1,76,100,4
1,79,100,0
1,81,100,4
1,77,100,0
1,81,100,388
1,77,100,0
1,81,100,4
1,77,100,0
1,79,100,4
1,76,100,0
1,79,100,4
1,76,100,0
1,79,100,4
1,76,100,0
1,77,100,4
1,74,100,0
1,76,100,4
1,72,100,0
1,71,100,4
1,74,100,0
1,69,100,484
1,69,100,4
1,69,100,4
1,71,100,4
1,69,100,4
1,65,100,388
1,65,100,4
1,65,100,4
1,65,100,4
1,71,100,4
1,71,100,4
1,71,100,4
1,69,100,292
1,69,100,4
1,69,100,4
1,69,100,4
1,69,100,4
1,69,100,4
1,69,100,4
1,69,100,4
1,69,100,4
1,76,100,4
1,76,100,4
1,76,100,4
1,76,100,6244
1,76,100,4
1,76,100,4
1,77,100,4
1,77,100,4
1,77,100,4
1,77,100,4
1,76,100,4
1,76,100,4
1,76,100,4
1,76,100,4
1,74,100,4
1,74,100,4
1,74,100,4
1,72,100,4
2,67,100,0
2,72,100,0
2,72,100,4
2,79,100,0
2,67,100,4
2,72,100,0
2,69,100,4
2,76,100,0
2,67,100,4
2,72,100,0
2,72,100,4
2,79,100,0
2,67,100,4
2,72,100,0
2,69,100,4
2,76,100,0
2,67,100,4
2,72,100,0
2,72,100,4
2,79,100,0
2,67,100,4
2,72,100,0
2,76,100,4
2,69,100,0
2,74,100,8
2,72,100,4
2,67,100,4
2,72,100,0
2,72,100,4
2,79,100,0
2,67,100,4
2,72,100,0
2,76,100,4
2,69,100,0
2,74,100,8
2,72,100,4
2,65,100,4
2,69,100,0
2,72,100,0
2,77,100,0
2,76,100,4
2,71,100,0
2,67,100,0
2,74,100,4
2,72,100,4
2,62,100,0
2,67,100,0
2,71,100,4
2,69,100,4
2,60,100,8
2,64,100,0
2,60,100,4
2,64,100,0
2,69,100,0
2,71,100,0
2,60,100,4
2,65,100,0
2,69,100,0
2,60,100,4
2,65,100,0
2,69,100,0
2,71,100,0
2,60,100,4
2,64,100,0
2,69,100,0
2,60,100,4
2,64,100,0
2,67,100,0
2,65,100,4
2,69,100,0
2,72,100,0
2,77,100,0
2,76,100,4
2,71,100,0
2,67,100,0
2,74,100,4
2,72,100,4
2,71,100,4
2,69,100,4
2,60,100,0
2,64,100,0
2,60,100,4
2,64,100,0
2,69,100,0
2,71,100,0
2,60,100,4
2,65,100,0
2,69,100,0
2,60,100,4
2,65,100,0
2,69,100,0
2,71,100,0
2,60,100,4
2,64,100,0
2,69,100,0
2,60,100,4
2,64,100,0
2,67,100,0
2,65,100,4
2,69,100,0
2,72,100,0
2,77,100,0
2,76,100,4
2,71,100,0
2,67,100,0
2,74,100,4
2,72,100,4
2,62,100,0
2,67,100,0
2,71,100,4
2,69,100,4
2,60,100,8
2,64,100,0
2,60,100,4
2,64,100,0
2,69,100,0
2,71,100,0
2,67,100,4
2,72,100,0
2,72,100,4
2,79,100,0
2,67,100,4
2,72,100,0
2,69,100,4
2,76,100,0
2,67,100,4
2,72,100,0
2,72,100,4
2,79,100,0
2,67,100,4
2,72,100,0
2,69,100,4
2,76,100,0
2,65,100,4
2,69,100,0
2,72,100,0
2,77,100,0
2,76,100,4
2,71,100,0
2,67,100,0
2,74,100,4
2,72,100,4
2,62,100,4
2,67,100,0
2,71,100,0
2,69,100,4
2,60,100,0
2,64,100,0
2,60,100,4
2,64,100,0
2,69,100,0
2,71,100,0
2,60,100,4
2,65,100,0
2,69,100,0
2,60,100,4
2,65,100,0
2,69,100,0
2,71,100,0
2,60,100,4
2,64,100,0
2,69,100,0
2,60,100,4
2,64,100,0
2,67,100,0
2,65,100,4
2,69,100,0
2,72,100,0
2,77,100,0
2,76,100,4
2,71,100,0
2,67,100,0
2,74,100,4
2,72,100,4
2,71,100,4
2,69,100,4
2,60,100,0
2,64,100,0
2,60,100,4
2,64,100,0
2,69,100,0
2,71,100,0
2,60,100,4
2,65,100,0
2,69,100,0
2,60,100,4
2,65,100,0
2,69,100,0
2,71,100,0
2,60,100,4
2,64,100,0
2,69,100,0
2,60,100,4
2,64,100,0
2,67,100,0
2,65,100,4
2,69,100,0
2,72,100,0
2,77,100,0
2,76,100,4
2,71,100,0
2,67,100,0
2,74,100,4
2,72,100,4
2,62,100,4
2,67,100,0
2,71,100,0
2,69,100,4
2,60,100,0
2,64,100,0
2,60,100,4
2,64,100,0
2,69,100,0
2,71,100,0
2,67,100,4
2,72,100,0
2,72,100,4
2,79,100,0
2,67,100,4
2,72,100,0
2,76,100,4
2,69,100,0
2,74,100,8
2,72,100,4
2,67,100,4
2,72,100,0
2,72,100,4
2,79,100,0
2,67,100,4
2,72,100,0
2,76,100,4
2,69,100,0
2,74,100,8
2,72,100,4
2,67,100,4
2,72,100,0
2,72,100,4
2,79,100,0
2,67,100,4
2,72,100,0
2,76,100,4
2,69,100,0
2,74,100,8
2,72,100,4
2,67,100,4
2,72,100,0
2,72,100,4
2,79,100,0
2,67,100,4
2,72,100,0
2,76,100,4
2,69,100,0
2,52,100,4
2,57,100,0
2,60,100,0
2,52,100,4
2,59,100,0
2,62,100,0
2,55,100,4
2,59,100,0
2,64,100,0
2,53,100,4
2,57,100,0
2,60,100,0
2,53,100,4
2,57,100,0
2,62,100,0
2,55,100,4
2,59,100,0
2,62,100,0
2,67,100,4
2,59,100,0
2,62,100,0
2,60,100,4
2,64,100,0
2,69,100,0
2,57,100,4
2,60,100,4
2,57,100,0
2,60,100,4
2,64,100,0
2,69,100,4
2,72,100,0
2,64,100,0
2,64,100,4
2,74,100,0
2,71,100,0
2,68,100,4
2,76,100,0
2,64,100,0
2,72,100,4
2,69,100,0
2,65,100,0
2,65,100,4
2,69,100,0
2,74,100,0
2,62,100,4
2,67,100,0
2,71,100,0
2,67,100,4
2,57,100,0
2,60,100,0
2,69,100,4
2,74,100,4
2,67,100,4
2,69,100,4
2,74,100,4
2,67,100,4
2,59,100,0
2,62,100,0
2,69,100,4
2,74,100,4
2,67,100,4
2,69,100,4
2,74,100,4
2,67,100,4
2,60,100,0
2,64,100,0
2,69,100,4
2,74,100,4
2,67,100,4
2,59,100,0
2,62,100,0
2,69,100,4
2,74,100,4
2,67,100,4
2,60,100,0
2,64,100,0
2,69,100,4
2,74,100,4
2,67,100,4
2,69,100,4
2,74,100,4
2,67,100,4
2,62,100,0
2,66,100,0
2,69,100,4
2,74,100,4
2,67,100,4
2,69,100,4
2,74,100,4
2,67,100,4
2,59,100,0
2,64,100,0
2,69,100,4
2,74,100,4
2,67,100,4
2,69,100,4
2,74,100,4
2,65,100,4
2,69,100,0
2,72,100,0
2,77,100,0
2,76,100,4
2,71,100,0
2,67,100,0
2,74,100,4
2,72,100,4
2,62,100,4
2,67,100,0
2,71,100,0
2,69,100,4
2,60,100,0
2,64,100,0
2,60,100,4
2,64,100,0
2,69,100,0
2,71,100,0
2,60,100,4
2,65,100,0
2,69,100,0
2,60,100,4
2,65,100,0
2,69,100,0
2,71,100,0
2,60,100,4
2,64,100,0
2,69,100,0
2,60,100,4
2,64,100,0
2,67,100,0
2,65,100,4
2,69,100,0
2,72,100,0
2,77,100,0
2,76,100,4
2,71,100,0
2,67,100,0
2,74,100,4
2,72,100,4
2,62,100,4
2,67,100,0
2,71,100,0
2,69,100,4
2,60,100,0
2,64,100,0
2,60,100,4
2,64,100,0
2,69,100,0
2,71,100,0
2,60,100,4
2,65,100,0
2,69,100,0
2,60,100,4
2,65,100,0
2,69,100,0
2,71,100,0
2,60,100,4
2,64,100,0
2,69,100,0
2,67,100,4
2,64,100,0
2,60,100,0
2,67,100,4
2,72,100,0
2,76,100,0
2,65,100,4
2,69,100,0
2,72,100,0
2,77,100,0
2,76,100,4
2,71,100,0
2,67,100,0
2,74,100,4
2,72,100,4
2,62,100,4
2,67,100,0
2,71,100,0
2,69,100,4
2,60,100,0
2,64,100,0
2,60,100,4
2,64,100,0
2,69,100,0
2,71,100,0
2,60,100,4
