track,note,velocity,time
0,80,56,1430
0,42,45,0
0,36,81,0
0,80,56,45
0,44,48,0
0,81,53,55
0,42,32,0
0,36,81,20
0,44,41,0
0,80,56,40
0,42,53,0
0,80,56,30
0,44,52,0
0,81,53,55
0,42,33,0
0,36,81,0
0,44,49,55
0,80,56,50
0,42,45,0
0,80,56,45
0,44,58,0
0,81,53,40
0,42,26,0
0,44,49,43
0,80,56,43
0,42,49,0
0,80,56,45
0,44,60,0
0,81,53,30
0,42,36,0
0,44,49,43
0,80,56,33
0,42,55,0
0,36,81,0
0,80,56,30
0,45,50,0
0,44,53,0
0,81,53,43
0,42,37,0
0,37,70,0
0,36,81,20
0,44,54,0
0,80,56,33
0,42,49,0
0,80,56,43
0,45,50,0
0,44,56,0
0,81,53,45
0,42,34,0
0,36,81,0
0,44,51,55
0,80,56,45
0,42,53,0
0,45,50,0
0,80,56,30
0,45,50,0
0,44,51,0
0,81,53,53
0,42,31,0
0,37,70,0
0,44,56,55
0,65,75,0
0,80,56,0
0,42,55,0
0,80,56,30
0,44,52,0
0,81,53,0
0,42,32,0
0,44,55,0
0,80,56,43
0,42,53,0
0,36,81,0
0,65,47,0
0,62,47,0
0,69,47,0
0,46,47,0
0,80,56,0
0,44,58,0
0,81,53,30
0,42,34,0
0,36,81,55
0,44,51,0
0,80,56,20
0,42,49,0
0,80,56,45
0,44,56,0
0,81,53,40
0,42,33,0
0,36,81,0
0,44,50,55
0,80,56,33
0,42,49,0
0,80,56,40
0,44,53,0
0,81,53,43
0,42,31,0
0,44,53,60
0,80,56,40
0,42,48,0
0,80,56,40
0,44,56,0
0,81,53,30
0,42,37,0
0,44,55,55
0,80,56,28
0,42,55,0
0,36,81,0
0,65,47,0
0,41,47,0
0,69,47,0
0,60,47,0
0,80,56,35
0,44,51,0
0,81,53,43
0,42,33,0
0,36,81,45
0,44,52,0
0,80,56,30
0,42,48,0
0,80,56,30
0,44,54,0
0,81,53,30
0,42,36,0
0,36,81,0
0,44,49,43
0,80,56,30
0,42,53,0
0,80,56,30
0,44,47,0
0,81,53,40
0,42,37,0
0,44,56,43
0,80,56,33
0,42,49,0
0,80,56,40
0,44,54,0
0,81,53,45
0,42,37,0
0,44,53,43
0,80,56,0
0,42,53,0
0,36,81,0
0,45,47,0
0,67,47,0
0,60,47,0
0,64,47,0
0,80,56,43
0,44,58,0
0,81,53,30
0,42,34,0
0,36,81,55
0,44,51,0
0,80,56,45
0,42,49,0
0,80,56,45
0,44,56,0
0,81,53,40
0,42,33,0
0,36,81,0
0,44,50,55
0,80,56,33
0,42,49,0
0,80,56,40
0,44,53,0
0,81,53,43
0,42,31,0
0,44,53,60
0,80,56,40
0,42,48,0
0,80,56,40
0,44,56,0
0,81,53,30
0,42,37,0
0,44,55,55
0,38,47,0
0,65,47,0
0,57,47,0
0,60,47,0
0,62,47,0
0,80,56,0
0,42,55,0
0,36,81,0
0,80,56,35
0,44,51,0
0,81,53,43
0,42,33,0
0,36,81,45
0,44,52,0
0,80,56,30
0,42,48,0
0,80,56,30
0,44,54,0
0,81,53,30
0,42,36,0
0,36,81,0
0,44,49,43
0,80,56,30
0,42,53,0
0,80,56,30
0,44,47,0
0,81,53,40
0,42,37,0
0,44,56,43
0,80,56,33
0,42,49,0
0,80,56,40
0,44,54,0
0,81,53,45
0,42,37,0
0,44,53,43
0,80,56,43
0,42,53,0
0,36,81,0
0,72,79,0
0,46,47,0
0,62,47,0
0,69,47,0
0,65,47,0
0,80,56,40
0,44,58,0
0,81,53,30
0,42,34,0
0,36,81,38
0,44,51,0
0,80,56,45
0,42,49,0
0,80,56,45
0,44,56,0
0,81,53,40
0,42,33,0
0,36,81,0
0,44,50,55
0,80,56,33
0,42,49,0
0,80,56,40
0,44,53,0
0,81,53,43
0,42,31,0
0,44,53,43
0,80,56,40
0,42,48,0
0,80,56,40
0,44,56,0
0,81,53,30
0,42,37,0
0,44,55,55
0,80,56,28
0,42,55,0
0,36,81,0
0,67,47,0
0,64,47,0
0,60,47,0
0,45,47,0
0,80,56,35
0,44,51,0
0,81,53,43
0,42,33,0
0,36,81,45
0,44,52,0
0,80,56,3
0,42,48,0
0,80,56,30
0,44,54,0
0,81,53,30
0,42,36,0
0,36,81,0
0,44,49,43
0,80,56,30
0,42,53,0
0,80,56,30
0,44,47,0
0,81,53,40
0,42,37,0
0,44,56,43
0,80,56,33
0,42,49,0
0,80,56,40
0,44,54,0
0,81,53,45
0,42,37,0
0,44,53,43
0,80,56,43
0,42,53,0
0,36,81,0
0,80,56,43
0,44,58,0
0,81,53,30
0,42,34,0
0,36,81,55
0,44,51,0
0,80,56,45
0,42,49,0
0,80,56,45
0,44,56,0
0,81,53,40
0,42,33,0
0,36,81,0
0,44,50,55
0,80,56,33
0,42,49,0
0,80,56,40
0,44,53,0
0,81,53,43
0,42,31,0
0,44,53,60
0,80,56,40
0,42,48,0
0,80,56,40
0,44,56,0
0,81,53,30
0,42,37,0
0,44,55,55
0,62,47,0
0,65,47,0
0,69,47,0
0,46,47,0
0,80,56,0
0,42,55,0
0,36,81,0
0,69,70,0
0,80,56,35
0,44,51,0
0,81,53,43
0,42,33,0
0,36,81,20
0,44,52,0
0,80,56,30
0,42,48,0
0,80,56,30
0,44,54,0
0,81,53,30
0,42,36,0
0,36,81,0
0,44,49,43
0,80,56,30
0,42,53,0
0,80,56,30
0,44,47,0
0,81,53,40
0,42,37,0
0,44,56,43
0,80,56,33
0,42,49,0
0,80,56,40
0,44,54,0
0,81,53,45
0,42,37,0
0,44,53,43
0,80,56,43
0,42,53,0
0,36,81,0
0,69,119,0
0,65,122,0
0,62,119,0
0,69,47,0
0,65,47,0
0,60,47,0
0,50,47,0
0,65,111,0
0,62,110,0
0,69,110,0
0,80,56,0
0,44,58,0
0,81,53,0
0,42,34,0
0,65,108,0
0,62,103,0
0,69,104,0
0,65,124,0
0,62,117,0
0,69,118,0
0,36,81,0
0,44,51,0
0,80,56,0
0,42,49,0
0,62,95,0
0,69,96,0
0,65,100,0
0,65,101,0
0,69,99,0
0,62,98,0
0,80,56,0
0,44,56,0
0,81,53,0
0,42,33,0
0,36,81,0
0,65,122,0
0,69,118,0
0,62,115,0
0,65,106,0
0,62,100,0
0,69,103,0
0,44,50,0
0,80,56,0
0,42,49,0
0,69,104,0
0,65,109,0
0,62,103,0
0,65,119,0
0,69,114,0
0,62,117,0
0,80,56,0
0,44,53,0
0,81,53,0
0,42,31,0
0,65,95,0
0,62,90,0
0,69,98,0
0,65,110,0
0,62,104,0
0,69,105,0
0,44,53,0
0,80,56,0
0,42,48,0
0,69,118,0
0,65,127,0
0,62,122,0
0,80,56,0
0,44,56,0
0,81,53,30
0,42,37,0
0,62,113,0
0,65,112,0
0,60,108,0
0,57,104,0
0,44,55,0
0,80,56,28
0,42,55,0
0,36,81,0
0,64,120,0
0,60,119,0
0,67,118,0
0,50,47,0
0,64,47,0
0,60,47,0
0,67,47,0
0,60,83,0
0,64,92,0
0,67,102,0
0,80,56,0
0,44,51,0
0,81,53,0
0,42,33,0
0,60,97,0
0,67,102,0
0,64,102,0
0,64,119,0
0,60,119,0
0,67,120,0
0,36,81,0
0,44,52,0
0,80,56,0
0,42,48,0
0,60,98,0
0,64,100,0
0,67,105,0
0,60,97,0
0,64,99,0
0,67,104,0
0,80,56,0
0,44,54,0
0,81,53,0
0,42,36,0
0,36,81,0
0,60,119,0
0,64,122,0
0,67,122,0
0,60,94,0
0,64,97,0
0,67,101,0
0,44,49,0
0,80,56,0
0,42,53,0
0,60,99,0
0,64,105,0
0,67,107,0
0,60,117,0
0,64,120,0
0,67,127,0
0,80,56,0
0,44,47,0
0,81,53,0
0,42,37,0
0,60,99,0
0,64,104,0
0,67,105,0
0,60,108,0
0,64,108,0
0,67,112,0
0,44,56,0
0,80,56,0
0,42,49,0
0,67,122,0
0,60,117,0
0,64,120,0
0,80,56,0
0,44,54,0
0,81,53,45
0,42,37,0
0,55,114,0
0,60,117,0
0,64,114,0
0,44,53,0
0,80,56,43
0,42,53,0
0,36,81,0
0,65,125,0
0,62,124,0
0,69,119,0
0,50,47,0
0,65,47,0
0,62,47,0
0,58,47,0
0,62,106,0
0,69,108,0
0,65,114,0
0,80,56,0
0,44,58,0
0,81,53,0
0,42,34,0
0,65,112,0
0,62,108,0
0,69,107,0
0,65,122,0
0,62,119,0
0,69,119,0
0,36,81,0
0,44,51,0
0,80,56,0
0,42,49,0
0,65,99,0
0,62,96,0
0,69,97,0
0,62,108,0
0,65,113,0
0,69,106,0
0,80,56,0
0,44,56,0
0,81,53,0
0,42,33,0
0,36,81,0
0,62,120,0
0,65,125,0
0,69,120,0
0,65,102,0
0,62,100,0
0,69,99,0
0,44,50,0
0,80,56,0
0,42,49,0
0,65,102,0
0,69,99,0
0,62,102,0
0,62,114,0
0,65,120,0
0,69,122,0
0,80,56,0
0,44,53,0
0,65,92,0
0,81,53,0
0,42,31,0
0,62,98,0
0,69,101,0
0,65,105,0
0,62,92,0
0,62,99,0
0,69,104,0
0,65,110,0
0,44,53,0
0,80,56,0
0,42,48,0
0,65,125,0
0,62,120,0
0,69,118,0
0,69,92,0
0,80,56,0
0,44,56,0
0,81,53,30
0,42,37,0
0,58,115,0
0,62,115,0
0,65,113,0
0,44,55,0
0,64,47,8
0,50,47,0
0,60,47,0
0,67,47,0
0,80,56,0
0,42,55,0
0,36,81,0
0,64,120,0
0,60,119,0
0,67,118,0
0,60,83,0
0,64,92,0
0,67,102,0
0,80,56,0
0,44,51,0
0,69,91,0
0,81,53,0
0,42,33,0
0,60,97,0
0,67,102,0
0,64,102,0
0,67,91,0
0,64,119,0
0,60,119,0
0,67,120,0
0,36,81,0
0,44,52,0
0,67,91,0
0,80,56,0
0,42,48,0
0,60,98,0
0,64,100,0
0,67,105,0
0,60,97,0
0,64,99,0
0,67,104,0
0,80,56,0
0,44,54,0
0,81,53,0
0,42,36,0
0,36,81,0
0,60,119,0
0,64,122,0
0,67,122,0
0,60,94,0
0,64,97,0
0,67,101,0
0,44,49,0
0,80,56,0
0,42,53,0
0,60,99,0
0,64,105,0
0,67,107,0
0,60,117,0
0,64,120,0
0,67,127,0
0,80,56,0
0,44,47,0
0,81,53,0
0,42,37,0
0,60,99,0
0,64,104,0
0,67,105,0
0,60,108,0
0,64,108,0
0,67,112,0
0,44,56,0
0,80,56,0
0,42,49,0
0,67,122,0
0,60,117,0
0,64,120,0
0,80,56,0
0,44,54,0
0,81,53,45
0,42,37,0
0,55,114,0
0,60,117,0
0,64,114,0
0,44,53,0
0,80,56,43
0,42,53,0
0,36,81,0
0,69,119,0
0,65,122,0
0,62,119,0
0,69,47,0
0,65,47,0
0,60,47,0
0,50,47,0
0,65,111,0
0,62,110,0
0,69,110,0
0,80,56,0
0,44,58,0
0,81,53,0
0,42,34,0
0,65,108,0
0,62,103,0
0,69,104,0
0,65,124,0
0,62,117,0
0,69,118,0
0,36,81,0
0,44,51,0
0,80,56,0
0,42,49,0
0,62,95,0
0,69,96,0
0,65,100,0
0,65,101,0
0,69,99,0
0,62,98,0
0,80,56,0
0,44,56,0
0,65,87,0
0,81,53,0
0,42,33,0
0,36,81,0
0,65,122,0
0,69,118,0
0,62,115,0
0,65,106,0
0,62,100,0
0,69,103,0
0,44,50,0
0,80,56,0
0,42,49,0
0,69,104,0
0,65,109,0
0,62,103,0
0,65,119,0
0,69,114,0
0,62,117,0
0,80,56,0
0,44,53,0
0,62,87,0
0,81,53,0
0,42,31,0
0,65,95,0
0,62,90,0
0,69,98,0
0,65,110,0
0,62,104,0
0,69,105,0
0,44,53,0
0,80,56,0
0,42,48,0
0,69,118,0
0,65,127,0
0,62,122,0
0,69,86,0
0,80,56,0
0,44,56,0
0,81,53,30
0,42,37,0
0,62,113,0
0,65,112,0
0,60,108,0
0,57,104,0
0,44,55,0
0,67,86,28
0,80,56,0
0,42,55,0
0,36,81,0
0,64,120,0
0,60,119,0
0,67,118,0
0,50,47,0
0,64,47,0
0,60,47,0
0,67,47,0
0,60,83,0
0,64,92,0
0,67,102,0
0,80,56,0
0,44,51,0
0,81,53,0
0,42,33,0
0,60,97,0
0,67,102,0
0,64,102,0
0,64,119,0
0,60,119,0
0,67,120,0
0,36,81,0
0,44,52,0
0,80,56,0
0,42,48,0
0,60,98,0
0,64,100,0
0,67,105,0
0,60,97,0
0,64,99,0
0,67,104,0
0,80,56,0
0,44,54,0
0,81,53,0
0,42,36,0
0,36,81,0
0,60,119,0
0,64,122,0
0,67,122,0
0,60,94,0
0,64,97,0
0,67,101,0
0,44,49,0
0,80,56,0
0,42,53,0
0,60,99,0
0,64,105,0
0,67,107,0
0,60,117,0
0,64,120,0
0,67,127,0
0,80,56,0
0,44,47,0
0,81,53,0
0,42,37,0
0,60,99,0
0,64,104,0
0,67,105,0
0,60,108,0
0,64,108,0
0,67,112,0
0,44,56,0
0,80,56,0
0,42,49,0
0,67,122,0
0,60,117,0
0,64,120,0
0,80,56,0
0,44,54,0
0,81,53,45
0,42,37,0
0,55,114,0
0,60,117,0
0,64,114,0
0,44,53,0
0,80,56,43
0,42,53,0
0,36,81,0
0,65,125,0
0,62,124,0
0,69,119,0
0,50,47,0
0,65,47,0
0,62,47,0
0,58,47,0
0,62,106,0
0,69,108,0
0,65,114,0
0,80,56,0
0,44,58,0
0,81,53,0
0,42,34,0
0,65,112,0
0,62,108,0
0,69,107,0
0,65,122,0
0,62,119,0
0,69,119,0
0,36,81,0
0,44,51,0
0,65,85,0
0,80,56,0
0,42,49,0
0,65,99,0
0,62,96,0
0,69,97,0
0,62,108,0
0,65,113,0
0,69,106,0
0,80,56,0
0,44,56,0
0,65,85,0
0,81,53,0
0,42,33,0
0,36,81,0
0,62,120,0
0,65,125,0
0,69,120,0
0,65,102,0
0,62,100,0
0,69,99,0
0,44,50,0
0,62,85,0
0,80,56,0
0,42,49,0
0,65,102,0
0,69,99,0
0,62,102,0
0,62,114,0
0,65,120,0
0,69,122,0
0,80,56,0
0,44,53,0
0,62,85,0
0,81,53,0
0,42,31,0
0,62,98,0
0,69,101,0
0,65,105,0
0,62,99,0
0,69,104,0
0,65,110,0
0,44,53,0
0,69,85,0
0,80,56,0
0,42,48,0
0,65,125,0
0,62,120,0
0,69,118,0
0,80,56,0
0,44,56,0
0,69,85,30
0,81,53,0
0,42,37,0
0,58,115,0
0,62,115,0
0,65,113,0
0,44,55,0
0,64,47,8
0,50,47,0
0,60,47,0
0,67,47,0
0,80,56,0
0,42,55,0
0,36,81,0
0,64,120,0
0,60,119,0
0,67,118,0
0,67,84,0
0,60,83,0
0,64,92,0
0,67,102,0
0,80,56,0
0,44,51,0
0,67,84,0
0,81,53,0
0,42,33,0
0,60,97,0
0,67,102,0
0,64,102,0
0,64,119,0
0,60,119,0
0,67,120,0
0,36,81,0
0,44,52,0
0,80,56,0
0,42,48,0
0,60,98,0
0,64,100,0
0,67,105,0
0,60,97,0
0,64,99,0
0,67,104,0
0,80,56,0
0,44,54,0
0,81,53,0
0,42,36,0
0,36,81,0
0,60,119,0
0,64,122,0
0,67,122,0
0,60,94,0
0,64,97,0
0,67,101,0
0,44,49,0
0,80,56,0
0,42,53,0
0,60,99,0
0,64,105,0
0,67,107,0
0,60,117,0
0,64,120,0
0,67,127,0
0,80,56,0
0,44,47,0
0,81,53,0
0,42,37,0
0,60,99,0
0,64,104,0
0,67,105,0
0,60,108,0
0,64,108,0
0,67,112,0
0,44,56,0
0,80,56,0
0,42,49,0
0,67,122,0
0,60,117,0
0,64,120,0
0,80,56,0
0,44,54,0
0,81,53,45
0,42,37,0
0,55,114,0
0,60,117,0
0,64,114,0
0,44,53,0
0,34,82,43
0,80,56,0
0,36,105,0
0,49,100,0
0,69,119,0
0,65,122,0
0,62,119,0
0,65,47,0
0,62,47,0
0,69,47,0
0,46,47,0
0,65,111,0
0,62,110,0
0,69,110,0
0,80,56,0
0,81,53,0
