track,note,velocity,time
1,24,90,1091
1,24,0,3038
1,24,90,34
1,24,0,2686
1,24,90,66
1,24,0,14
1,33,90,18
1,33,0,62
1,24,90,2
1,24,0,14
1,34,90,18
1,34,0,62
1,24,90,2
1,24,0,14
1,35,90,18
1,35,0,62
1,36,90,2
1,36,0,14
1,24,84,18
1,24,0,302
1,24,84,50
1,24,0,46
1,24,84,50
1,24,0,14
1,24,84,18
1,24,0,254
1,24,84,34
1,24,0,302
1,24,84,50
1,24,0,46
1,24,84,50
1,24,0,14
1,24,84,18
1,24,0,78
1,36,84,18
1,36,0,62
1,24,84,2
1,24,0,14
1,31,84,18
1,31,0,62
1,36,84,2
1,36,0,14
1,24,84,18
1,24,0,302
1,24,84,50
1,24,0,46
1,24,84,50
1,24,0,14
1,24,84,18
1,24,0,238
1,24,84,50
1,24,0,302
1,24,84,50
1,24,0,46
1,24,84,50
1,24,0,14
1,33,84,18
1,33,0,62
1,24,84,2
1,24,0,14
1,34,84,18
1,34,0,62
1,24,84,2
1,24,0,14
1,35,84,18
1,35,0,62
1,36,84,2
1,36,0,14
1,24,84,18
1,24,0,302
1,24,84,50
1,24,0,46
1,24,84,50
1,24,0,14
1,24,84,18
1,24,0,254
1,24,84,34
1,24,0,302
1,24,84,50
1,24,0,46
1,24,84,50
1,24,0,14
1,24,84,18
1,24,0,78
1,31,84,18
1,31,0,62
1,24,84,2
1,24,0,14
1,31,84,18
1,31,0,62
1,36,84,2
1,36,0,14
1,24,84,18
1,24,0,302
1,24,84,50
1,24,0,46
1,24,84,50
1,24,0,14
1,24,84,18
1,24,0,238
1,24,84,50
1,24,0,302
1,24,84,50
1,24,0,46
1,24,84,50
1,24,0,14
1,33,84,18
1,33,0,62
1,24,84,2
1,24,0,14
1,34,84,18
1,34,0,30
1,24,84,162
1,24,0,302
1,24,84,50
1,24,0,46
1,24,84,50
1,24,0,14
1,24,84,18
1,24,0,206
1,24,84,82
1,24,0,302
1,24,84,50
1,24,0,46
1,24,84,50
1,24,0,14
1,24,84,18
1,24,0,158
1,31,84,34
1,31,0,62
1,36,84,2
1,36,0,14
1,24,84,18
1,24,0,302
1,24,84,50
1,24,0,46
1,24,84,50
1,24,0,14
1,24,84,18
1,24,0,238
1,24,84,50
1,24,0,302
1,24,84,50
1,24,0,46
1,24,84,50
1,24,0,14
1,33,84,18
1,33,0,62
1,24,84,2
1,24,0,14
1,34,84,18
1,34,0,62
1,24,84,2
1,24,0,14
1,35,84,18
1,35,0,62
1,36,84,2
1,36,0,14
1,24,84,18
1,24,0,302
1,24,84,50
1,24,0,46
1,24,84,50
1,24,0,14
1,24,84,18
1,24,0,190
1,24,84,98
1,24,0,302
1,24,84,50
1,24,0,46
1,24,84,50
1,24,0,14
1,31,84,18
1,31,0,142
1,31,84,50
1,31,0,14
1,31,84,50
1,31,0,30
1,24,84,2
1,24,0,302
1,24,84,50
1,24,0,46
1,24,84,50
1,24,0,14
1,24,84,18
1,24,0,238
1,31,84,50
1,31,0,94
1,24,84,674
1,24,0,302
1,24,84,50
1,24,0,46
1,24,84,50
1,24,0,14
1,24,84,18
1,24,0,206
1,24,84,82
1,24,0,302
1,24,84,50
1,24,0,46
1,24,84,50
1,24,0,14
1,24,84,18
1,24,0,158
1,31,84,34
1,31,0,62
1,36,84,2
1,36,0,14
1,24,84,18
1,24,0,302
1,24,84,50
1,24,0,46
1,24,84,50
1,24,0,14
1,24,84,18
1,24,0,238
1,24,84,50
1,24,0,302
1,24,84,50
1,24,0,46
1,24,84,50
1,24,0,14
1,33,84,18
1,33,0,62
1,24,84,2
1,24,0,14
1,34,84,18
1,34,0,62
1,24,84,2
1,24,0,14
1,35,84,18
1,35,0,62
1,36,84,2
1,36,0,14
1,24,84,18
1,24,0,302
1,24,84,50
1,24,0,46
1,24,84,50
1,24,0,14
1,24,84,18
1,24,0,206
1,24,84,82
1,24,0,302
1,24,84,50
1,24,0,46
1,24,84,50
1,24,0,14
1,24,84,18
1,24,0,158
1,31,84,34
1,31,0,62
1,36,84,2
1,36,0,14
1,24,84,18
1,24,0,302
1,24,84,50
1,24,0,46
1,24,84,50
1,24,0,14
1,24,84,18
1,24,0,238
1,24,84,50
1,24,0,302
1,24,84,50
1,24,0,46
1,24,84,50
1,24,0,14
1,33,84,18
1,33,0,62
1,24,84,2
1,24,0,14
1,34,84,18
1,34,0,62
1,24,84,2
1,24,0,14
1,35,84,18
1,35,0,62
1,36,84,2
1,36,0,14
1,24,84,18
1,24,0,302
1,24,84,50
1,24,0,46
1,24,84,50
1,24,0,14
1,24,84,18
1,24,0,206
1,24,84,82
1,24,0,302
1,24,84,50
1,24,0,46
1,24,84,50
1,24,0,14
1,24,84,18
1,24,0,158
1,31,84,34
1,31,0,62
1,36,84,2
1,36,0,14
1,24,84,18
1,24,0,302
1,24,84,50
1,24,0,46
1,24,84,50
1,24,0,14
1,24,84,18
1,24,0,238
1,24,84,50
1,24,0,302
1,24,84,50
1,24,0,46
1,24,84,50
1,24,0,14
1,33,84,18
1,33,0,62
1,24,84,2
1,24,0,14
1,34,84,18
1,34,0,62
1,24,84,2
1,24,0,14
1,35,84,18
1,35,0,62
1,36,84,2
1,36,0,14
1,24,84,18
1,24,0,302
1,24,84,50
1,24,0,46
1,24,84,50
1,24,0,14
1,24,84,18
1,24,0,206
1,24,84,82
1,24,0,302
1,24,84,50
1,24,0,46
1,24,84,50
1,24,0,14
1,24,84,18
1,24,0,158
1,31,84,34
1,31,0,62
1,36,84,2
1,36,0,14
1,24,84,18
1,24,0,302
1,24,84,50
1,24,0,46
1,24,84,50
1,24,0,14
1,24,84,18
1,24,0,238
1,24,84,50
1,24,0,302
1,24,84,50
1,24,0,30
1,34,84,2
1,34,0,40
1,24,84,24
1,24,0,30
1,33,84,2
1,33,0,40
1,24,84,24
1,24,0,30
1,31,84,2
1,31,0,40
1,24,84,24
1,24,0,30
1,33,84,2
1,33,0,40
1,33,84,24
1,33,0,14
1,24,84,18
1,24,0,302
1,24,84,50
1,24,0,46
1,24,84,50
1,24,0,14
1,24,84,18
1,24,0,254
1,24,84,34
1,24,0,302
1,24,84,50
1,24,0,46
1,24,84,50
1,24,0,14
1,24,84,18
1,24,0,78
1,36,84,18
1,36,0,62
1,24,84,2
1,24,0,14
1,31,84,18
1,31,0,62
1,36,84,2
1,36,0,14
1,24,84,18
1,24,0,302
1,24,84,50
1,24,0,46
1,24,84,50
1,24,0,14
1,24,84,18
1,24,0,238
1,24,84,50
1,24,0,302
1,24,84,50
1,24,0,46
1,24,84,50
1,24,0,14
1,33,84,18
1,33,0,62
1,24,84,2
1,24,0,14
1,34,84,18
1,34,0,62
1,24,84,2
1,24,0,14
1,35,84,18
1,35,0,62
1,36,84,2
1,36,0,14
1,24,84,18
1,24,0,302
1,24,84,50
1,24,0,46
1,24,84,50
1,24,0,14
1,24,84,18
1,24,0,206
1,24,84,82
1,24,0,302
1,24,84,50
1,24,0,46
1,24,84,50
1,24,0,14
1,24,84,18
1,24,0,158
1,31,84,34
1,31,0,62
1,36,84,2
1,36,0,14
1,24,84,18
1,24,0,302
1,24,84,50
1,24,0,46
1,24,84,50
1,24,0,14
1,24,84,18
1,24,0,238
1,24,84,50
1,24,0,302
1,24,84,50
1,24,0,46
1,24,84,50
1,24,0,14
1,33,84,18
1,33,0,62
1,24,84,2
1,24,0,14
1,34,84,18
1,34,0,62
1,24,84,2
1,24,0,14
1,35,84,18
1,35,0,62
1,36,84,2
1,36,0,14
1,24,84,18
1,24,0,302
1,24,84,50
1,24,0,46
1,24,84,50
1,24,0,14
1,24,84,18
1,24,0,190
1,24,84,98
1,24,0,302
1,24,84,50
1,24,0,46
1,24,84,50
1,24,0,14
1,31,84,18
1,31,0,142
1,31,84,50
1,31,0,14
1,31,84,50
1,31,0,30
1,24,84,2
1,24,0,302
1,24,84,50
1,24,0,46
1,24,84,50
1,24,0,14
1,24,84,18
1,24,0,238
1,31,84,50
1,31,0,94
1,24,84,674
1,24,0,302
1,24,84,50
1,24,0,46
1,24,84,50
1,24,0,14
1,24,84,18
1,24,0,206
1,24,84,82
1,24,0,302
1,24,84,50
1,24,0,46
1,24,84,50
1,24,0,14
1,24,84,18
1,24,0,158
1,31,84,34
1,31,0,62
1,36,84,2
1,36,0,14
1,24,84,18
1,24,0,302
1,24,84,50
1,24,0,46
1,24,84,50
1,24,0,14
1,24,84,18
1,24,0,238
1,24,84,50
1,24,0,302
1,24,84,50
1,24,0,46
1,24,84,50
1,24,0,14
1,33,84,18
1,33,0,62
1,24,84,2
1,24,0,14
1,34,84,18
1,34,0,62
1,24,84,2
1,24,0,14
1,35,84,18
1,35,0,62
1,36,84,2
1,36,0,14
1,24,84,18
1,24,0,302
1,24,84,50
1,24,0,46
1,24,84,50
1,24,0,14
1,24,84,18
1,24,0,206
1,24,84,82
1,24,0,302
1,24,84,50
1,24,0,46
1,24,84,50
1,24,0,14
1,24,84,18
1,24,0,158
1,31,84,34
1,31,0,62
1,36,84,2
1,36,0,14
1,24,84,18
1,24,0,302
1,24,84,50
1,24,0,46
1,24,84,50
1,24,0,14
1,24,84,18
1,24,0,238
1,24,84,50
1,24,0,302
1,24,84,50
1,24,0,46
1,24,84,50
1,24,0,14
1,33,84,18
1,33,0,62
1,24,84,2
1,24,0,14
1,34,84,18
1,34,0,62
1,24,84,2
1,24,0,14
1,35,84,18
1,35,0,62
1,36,84,2
1,36,0,14
1,24,84,18
1,24,0,302
1,24,84,50
1,24,0,46
1,24,84,50
1,24,0,14
1,24,84,18
1,24,0,206
1,24,84,82
1,24,0,302
1,24,84,50
1,24,0,46
1,24,84,50
1,24,0,14
1,24,84,18
1,24,0,158
1,31,84,34
1,31,0,62
1,36,84,2
1,36,0,14
1,24,84,18
1,24,0,302
1,24,84,50
1,24,0,46
1,24,84,50
1,24,0,14
1,24,84,18
1,24,0,238
1,24,84,50
1,24,0,302
1,24,84,50
1,24,0,46
1,24,84,50
1,24,0,14
1,33,84,18
1,33,0,62
1,24,84,2
1,24,0,14
1,34,84,18
1,34,0,62
1,24,84,2
1,24,0,14
1,35,84,18
1,35,0,62
1,36,84,2
1,36,0,14
1,24,84,18
1,24,0,302
1,24,84,50
1,24,0,46
1,24,84,50
1,24,0,14
1,24,84,18
1,24,0,206
1,24,84,82
1,24,0,302
1,24,84,50
1,24,0,46
1,24,84,50
1,24,0,14
1,24,84,18
1,24,0,158
1,31,84,34
1,31,0,62
1,36,84,2
1,36,0,14
1,24,84,18
1,24,0,302
1,24,84,50
1,24,0,46
1,24,84,50
1,24,0,14
1,24,84,18
1,24,0,238
1,24,84,50
1,24,0,62
1,28,84,2
1,28,0,62
1,29,84,34
1,29,0,62
1,30,84,34
1,30,0,62
1,31,84,34
1,34,84,32
1,31,0,3
1,29,84,189
1,34,0,0
1,29,0,190
1,24,84,2
1,24,0,302
1,24,84,50
1,24,0,46
1,24,84,50
1,24,0,14
1,24,84,18
1,24,0,206
1,24,84,82
1,24,0,302
1,24,84,50
1,24,0,46
1,24,84,50
1,24,0,14
1,24,84,18
1,24,0,158
1,31,84,34
1,31,0,62
1,36,84,2
1,36,0,14
1,24,84,18
1,24,0,302
1,24,84,50
1,24,0,46
1,24,84,50
1,24,0,14
1,24,84,18
1,24,0,238
1,24,84,50
1,24,0,302
1,24,84,50
1,24,0,46
1,24,84,50
1,24,0,14
1,33,84,18
1,33,0,62
1,24,84,2
1,24,0,14
1,34,84,18
1,34,0,62
1,24,84,2
1,24,0,14
1,35,84,18
1,35,0,62
1,36,84,2
1,36,0,14
1,24,84,18
1,24,0,302
1,24,84,50
1,24,0,46
1,24,84,50
1,24,0,14
1,24,84,18
1,24,0,206
1,24,84,82
1,24,0,302
1,24,84,50
1,24,0,46
1,24,84,50
1,24,0,14
1,24,84,18
1,24,0,158
1,31,84,34
1,31,0,62
1,36,84,2
1,36,0,14
1,24,84,18
1,24,0,302
1,24,84,50
1,24,0,46
1,24,84,50
1,24,0,14
1,24,84,18
1,24,0,238
1,24,84,50
1,24,0,302
1,24,84,50
1,24,0,46
1,24,84,50
1,24,0,14
1,33,84,18
1,33,0,62
1,24,84,2
1,24,0,14
1,34,84,18
1,34,0,62
1,24,84,2
1,24,0,14
1,33,84,18
1,33,0,78
1,24,84,18
1,24,0,15
1,31,84,5184
1,31,0,142
1,24,84,626
1,24,0,302
1,24,84,50
1,24,0,46
1,24,84,50
1,24,0,14
1,24,84,18
1,24,0,206
1,24,84,82
1,24,0,302
1,24,84,50
1,24,0,46
1,24,84,50
1,24,0,14
1,24,84,18
1,24,0,158
1,31,84,34
1,31,0,62
1,36,84,2
1,36,0,14
1,24,84,18
1,24,0,302
1,24,84,50
1,24,0,46
1,24,84,50
1,24,0,14
1,24,84,18
1,24,0,238
1,24,84,50
1,24,0,302
1,24,84,50
1,24,0,30
1,34,84,2
1,34,0,174
1,29,84,18
1,29,0,174
1,24,84,18
1,24,0,302
1,24,84,50
1,24,0,46
1,24,84,50
1,24,0,14
1,24,84,18
1,24,0,174
1,31,84,18
1,31,0,62
1,36,84,2
1,36,0,14
1,34,84,18
1,34,0,302
1,34,84,50
1,34,0,46
1,34,84,50
1,34,0,14
1,34,84,18
1,34,0,174
1,29,84,18
1,29,0,62
1,34,84,2
1,34,0,14
1,33,84,18
1,33,0,302
1,33,84,50
1,33,0,46
1,33,84,50
1,33,0,14
1,33,84,18
1,33,0,174
1,29,84,18
1,29,0,78
1,32,84,18
1,32,0,302
1,32,84,50
1,32,0,46
1,32,84,50
1,32,0,14
1,32,84,18
1,32,0,270
1,31,84,18
1,31,0,302
1,31,84,50
1,31,0,46
1,31,84,50
1,31,0,14
1,31,84,18
1,31,0,222
1,31,84,34
1,31,0,14
1,31,84,18
1,31,0,302
1,31,84,50
1,31,0,46
1,31,84,50
1,31,0,14
1,31,84,18
1,31,0,174
1,31,84,18
1,31,0,30
1,31,84,34
1,31,0,14
1,24,84,18
1,24,0,302
1,24,84,50
1,24,0,46
1,24,84,50
1,24,0,14
1,24,84,18
1,24,0,206
1,24,84,82
1,24,0,302
1,24,84,50
1,24,0,46
1,24,84,50
1,24,0,14
1,24,84,18
1,24,0,158
1,31,84,34
1,31,0,62
1,36,84,2
1,36,0,14
1,24,84,18
1,24,0,302
1,24,84,50
1,24,0,46
1,24,84,50
1,24,0,14
1,24,84,18
1,24,0,238
1,24,84,50
1,24,0,302
1,24,84,50
1,24,0,30
1,34,84,2
1,34,0,174
1,29,84,18
1,29,0,174
1,24,84,18
1,24,0,302
1,24,84,50
1,24,0,46
1,24,84,50
1,24,0,14
1,24,84,18
1,24,0,206
1,24,84,82
1,24,0,302
1,24,84,50
1,24,0,46
1,24,84,50
1,24,0,14
1,24,84,18
1,24,0,158
1,31,84,34
1,31,0,62
1,36,84,2
1,36,0,14
1,24,84,18
1,24,0,302
1,24,84,50
1,24,0,46
1,24,84,50
1,24,0,14
1,24,84,18
1,24,0,238
1,24,84,50
1,24,0,62
1,28,84,2
1,28,0,62
1,29,84,34
1,29,0,62
1,30,84,34
1,30,0,62
1,24,84,34
1,24,0,30
1,34,84,2
1,34,0,174
1,29,84,18
1,29,0,174
1,24,84,18
1,24,0,302
1,24,84,50
1,24,0,46
1,24,84,50
1,24,0,14
1,24,84,18
1,24,0,206
1,24,84,82
1,24,0,302
1,24,84,50
1,24,0,46
1,24,84,50
1,24,0,14
1,24,84,18
1,24,0,158
1,31,84,34
1,31,0,62
1,36,84,2
1,36,0,14
1,24,84,18
1,24,0,302
1,24,84,50
1,24,0,46
1,24,84,50
1,24,0,14
1,24,84,18
1,24,0,238
1,24,84,50
1,24,0,302
1,24,84,50
1,24,0,30
1,34,84,2
1,34,0,174
1,29,84,18
1,29,0,174
1,24,84,18
1,24,0,302
1,24,84,50
1,24,0,46
1,24,84,50
1,24,0,14
1,24,84,18
1,24,0,206
1,24,84,82
1,24,0,302
1,24,84,50
1,24,0,46
