track,note,velocity,time
3,31,110,772
3,31,120,114
3,31,120,120
3,31,126,120
3,60,126,119
3,48,106,0
3,55,106,0
3,36,106,1
3,64,120,0
3,55,62,24
3,60,126,32
3,64,120,0
3,55,92,0
3,55,68,5
3,62,106,13
3,55,88,0
3,59,100,0
3,43,106,1
3,55,18,23
3,62,120,50
3,55,100,0
3,59,116,0
3,57,46,11
3,65,116,19
3,41,126,0
3,60,116,0
3,57,92,0
3,65,120,63
3,60,126,0
3,57,96,0
3,57,66,10
3,55,116,31
3,43,110,0
3,59,110,0
3,62,110,0
3,62,126,75
3,59,120,0
3,55,110,0
3,55,78,25
3,55,96,8
3,36,106,1
3,64,120,0
3,48,96,0
3,60,120,0
3,55,22,25
3,60,126,73
3,64,120,0
3,55,116,0
3,55,78,37
3,59,110,14
3,55,80,0
3,43,100,1
3,62,96,0
3,62,120,70
3,59,126,0
3,55,106,0
3,60,110,9
3,65,110,2
3,41,126,0
3,57,88,0
3,65,120,72
3,60,116,0
3,57,88,0
3,57,84,12
3,60,92,17
3,59,126,18
3,43,116,0
3,62,120,0
3,55,106,0
3,55,116,75
3,62,120,0
3,59,120,0
3,36,110,13
3,64,110,0
3,55,106,0
3,48,96,0
3,60,92,0
3,55,116,85
3,64,120,1
3,60,126,0
3,55,78,0
3,59,110,37
3,55,100,0
3,62,106,0
3,43,120,0
3,55,120,71
3,62,126,0
3,59,126,0
3,65,116,10
3,41,126,0
3,60,116,0
3,57,100,0
3,65,120,72
3,60,126,0
3,57,110,0
3,57,78,25
3,59,126,18
3,62,120,0
3,55,126,0
3,43,126,0
3,55,120,54
3,62,126,0
3,59,126,0
3,36,116,60
3,60,78,197
3,64,88,0
3,55,78,0
3,60,100,127
3,55,96,2
3,64,110,0
3,43,84,0
3,55,70,147
3,62,70,1
3,59,74,0
3,55,96,148
3,59,100,0
3,62,106,2
3,36,92,11
3,60,78,171
3,55,74,0
3,64,84,0
3,55,84,129
3,64,100,0
3,60,88,1
3,43,88,183
3,62,84,161
3,55,66,1
3,59,70,1
3,62,88,119
3,59,80,1
3,55,78,0
3,43,58,68
3,36,80,2
3,60,88,192
3,55,74,1
3,64,88,1
3,64,100,128
3,55,92,1
3,60,84,1
3,43,80,0
3,62,34,138
3,59,50,5
3,55,8,0
3,62,58,127
3,55,46,1
3,59,60,1
3,62,66,8
3,59,68,1
3,67,80,0
3,43,84,0
3,62,80,134
3,59,66,1
3,67,70,0
3,62,78,153
3,59,60,0
3,67,80,0
3,62,84,150
3,59,78,0
3,67,88,0
3,59,58,65
3,62,74,17
3,59,70,0
3,66,72,0
3,47,80,1
3,66,52,115
3,59,60,1
3,62,66,1
3,66,64,144
3,62,78,1
3,59,70,0
3,66,78,12
3,62,96,2
3,59,78,1
3,56,64,151
3,44,60,0
3,59,56,2
3,62,58,1
3,52,60,0
3,56,60,103
3,52,62,1
3,62,60,1
3,59,68,0
3,62,78,125
3,56,60,0
3,59,66,0
3,52,74,0
3,56,116,5
3,59,70,1
3,62,74,2
3,60,80,11
3,45,80,0
3,64,68,1
3,57,74,0
3,60,88,123
3,57,88,1
3,64,78,0
3,57,84,143
3,60,78,0
3,64,70,1
3,57,78,84
3,60,62,0
3,64,70,1
3,38,88,10
3,50,62,0
3,57,54,0
3,60,68,1
3,54,78,0
3,54,64,93
3,57,66,0
3,50,68,0
3,60,58,2
3,57,80,136
3,54,88,0
3,60,74,1
3,57,80,15
3,54,110,0
3,60,100,1
3,55,44,92
3,59,78,3
3,43,80,0
3,62,88,1
3,55,92,0
3,55,78,109
3,62,80,0
3,59,70,0
3,55,78,137
3,62,84,0
3,59,78,0
3,59,100,11
3,55,100,0
3,62,110,0
3,59,66,61
3,47,68,39
3,66,78,0
3,59,84,1
3,62,92,0
3,66,72,91
3,59,88,1
3,59,78,121
3,62,88,0
3,66,72,0
3,66,102,89
3,62,100,0
3,59,88,2
3,59,62,38
3,52,88,25
3,67,92,1
3,64,80,0
3,59,92,0
3,59,96,116
3,64,84,0
3,67,96,1
3,67,96,125
3,64,78,0
3,59,84,0
3,64,100,132
3,59,96,0
3,67,106,1
3,59,110,65
3,47,92,16
3,59,68,0
3,66,82,0
3,62,78,2
3,59,84,86
3,66,78,0
3,62,88,1
3,66,78,131
3,62,84,2
3,59,78,0
3,66,110,134
3,59,88,1
3,62,106,0
3,57,74,93
3,50,96,26
3,66,82,0
3,62,88,1
3,62,88,101
3,66,78,0
3,57,88,0
3,62,96,143
3,57,84,0
3,66,72,0
3,66,68,2
3,57,80,1
3,62,80,1
3,59,68,140
3,67,106,0
3,43,96,0
3,62,92,0
3,62,92,113
3,59,78,0
3,67,88,0
3,62,84,148
3,59,70,0
3,67,88,0
3,62,92,4
3,67,96,0
3,59,84,1
3,59,84,82
3,47,84,0
3,66,116,0
3,59,106,0
3,62,96,0
3,66,68,120
3,59,74,1
3,62,74,1
3,66,78,145
3,59,78,1
3,62,74,0
3,66,126,8
3,62,96,1
3,59,88,0
3,52,78,64
3,56,82,24
3,62,74,1
3,59,80,0
3,44,126,0
3,56,88,86
3,59,74,1
3,62,78,0
3,59,70,147
3,56,72,0
3,62,70,1
3,56,126,5
3,62,106,1
3,59,92,0
3,57,92,18
3,64,84,0
3,60,84,0
3,45,92,0
3,57,80,115
3,60,84,0
3,64,80,1
3,60,84,147
3,57,80,0
3,64,74,1
3,57,100,148
3,60,126,0
3,64,110,0
3,57,110,66
3,66,96,18
3,50,88,0
3,62,80,1
3,57,84,90
3,66,68,0
3,57,80,118
3,66,78,0
3,62,88,1
3,57,92,131
3,62,110,0
3,66,116,0
3,57,100,28
3,67,92,28
3,62,80,0
3,43,84,1
3,59,70,95
3,62,78,0
3,67,88,0
3,59,70,133
3,62,92,0
3,67,92,0
3,62,126,25
3,59,116,0
3,67,126,0
3,59,106,38
3,66,78,25
3,47,88,0
3,62,100,1
3,66,88,110
3,62,92,0
3,59,68,2
3,62,88,123
3,66,110,0
3,59,88,1
3,66,126,107
3,62,120,0
3,59,68,49
3,62,62,1
3,67,100,22
3,59,92,0
3,52,88,0
3,64,96,0
3,59,96,106
3,64,106,0
3,67,110,0
3,67,84,127
3,64,96,0
3,59,96,0
3,64,120,128
3,67,120,1
3,59,116,0
3,59,116,35
3,66,96,17
3,62,96,1
3,47,84,0
3,59,88,105
3,66,82,0
3,62,92,1
3,59,88,136
3,66,116,0
3,62,96,0
3,62,116,125
3,66,126,0
3,59,84,45
3,59,106,22
3,64,100,1
3,67,116,0
3,52,80,1
3,67,96,114
3,59,88,0
3,64,88,0
3,64,100,136
3,59,96,0
3,67,100,1
3,67,120,142
3,59,116,0
3,64,116,0
3,59,106,49
3,66,110,17
3,62,96,1
3,59,74,0
3,47,92,0
3,62,96,116
3,59,88,0
3,66,88,0
3,59,92,139
3,62,106,0
3,66,110,0
3,62,120,130
3,59,92,0
3,66,126,0
3,62,84,51
3,59,78,0
3,52,84,18
3,59,106,0
3,64,88,0
3,67,100,1
3,64,92,127
3,59,106,0
3,67,100,1
3,67,110,142
3,64,106,0
3,59,96,0
3,59,116,124
3,64,126,0
3,67,126,1
3,59,116,42
3,66,126,52
3,47,84,1
3,59,74,0
3,62,100,0
3,66,126,113
3,62,106,1
3,59,92,0
3,66,116,125
3,59,96,0
3,62,106,0
3,62,116,126
3,66,126,0
3,59,92,47
3,59,106,36
3,64,84,0
3,52,84,0
3,67,116,0
3,64,110,102
3,67,116,0
3,59,100,0
3,59,106,128
3,64,110,0
3,67,110,1
3,64,110,139
3,59,106,0
3,67,120,1
3,59,100,58
3,62,100,4
3,66,126,0
3,59,92,1
3,47,92,0
3,59,92,121
3,66,126,0
3,62,92,2
3,66,126,129
3,62,106,1
3,59,100,1
3,59,92,135
3,66,126,0
3,62,116,1
3,62,88,33
3,60,100,26
3,64,88,0
3,48,106,0
3,67,100,1
3,64,92,114
3,60,84,0
3,67,110,0
3,64,100,127
3,60,96,0
3,67,106,1
3,60,100,120
3,64,116,0
3,67,120,0
3,67,96,37
3,60,78,0
3,64,56,3
3,67,84,16
3,59,96,1
3,43,110,0
3,62,88,0
3,62,100,125
3,67,100,0
3,59,96,0
3,62,110,122
3,59,106,0
3,67,106,0
3,62,126,5
3,59,110,0
3,67,126,0
3,62,100,68
3,67,68,2
3,64,92,10
3,48,100,0
3,60,100,0
3,67,92,1
3,67,96,121
3,60,92,0
3,64,84,0
3,64,106,137
3,60,96,0
3,67,106,0
3,60,96,132
3,64,100,0
3,67,110,1
3,60,70,53
3,67,80,1
3,64,26,1
3,62,110,21
3,67,106,0
3,43,110,0
3,59,88,0
3,59,92,3
3,67,106,0
3,62,106,0
3,59,80,41
3,47,84,2
3,62,92,2
3,59,78,0
3,66,126,0
3,59,48,29
3,66,116,58
3,62,106,1
3,59,88,0
3,55,78,7
3,43,110,3
3,55,96,2
3,62,96,0
3,59,92,0
3,55,68,45
3,55,100,18
3,62,110,1
3,59,120,0
3,59,126,5
3,62,126,0
3,40,116,0
3,52,120,0
3,56,126,0
3,55,106,465
3,48,106,0
3,60,126,0
3,64,120,1
3,36,106,0
3,55,62,24
3,55,92,29
3,64,120,1
3,60,126,0
3,55,68,10
3,59,100,12
3,55,88,0
3,62,106,0
3,43,106,2
3,55,18,25
3,59,116,49
3,55,100,0
3,62,120,1
3,57,46,9
3,57,92,20
3,60,116,0
3,41,126,1
3,65,116,0
3,57,96,63
3,60,126,0
3,65,120,0
3,57,66,15
3,62,110,30
3,59,110,0
3,43,110,0
3,55,116,0
3,55,110,75
3,59,120,0
3,62,126,0
3,55,78,20
3,55,96,13
3,60,120,1
3,48,96,0
3,64,120,0
3,36,106,1
3,55,22,28
3,55,116,70
3,64,120,0
3,60,126,0
3,55,78,0
3,55,80,13
3,59,110,0
3,62,96,1
3,43,100,1
3,55,106,70
3,59,126,0
3,62,120,0
3,60,110,9
3,57,88,2
3,41,126,1
3,65,110,0
3,57,88,69
3,60,116,0
3,65,120,0
3,57,84,17
3,60,92,11
3,55,106,17
3,62,120,0
3,43,116,0
3,59,126,0
3,59,120,74
3,62,120,0
3,55,116,0
3,60,92,13
3,48,96,1
3,55,106,0
3,64,110,0
3,36,110,0
3,55,116,85
3,60,126,1
3,64,120,1
3,55,78,0
3,43,120,37
3,62,106,0
3,55,100,0
3,59,110,0
3,59,126,69
3,62,126,0
3,55,120,0
3,57,100,11
3,60,116,0
3,41,126,0
3,65,116,1
3,57,110,71
3,60,126,0
3,65,120,0
3,57,78,2
3,43,126,17
3,55,126,0
3,62,120,0
3,59,126,0
3,59,126,54
3,62,126,0
3,55,120,0
3,36,116,60
3,60,78,197
3,64,88,0
3,55,78,0
3,60,100,127
3,55,96,2
3,64,110,0
3,43,84,0
3,55,70,147
3,62,70,1
3,59,74,0
3,55,96,148
3,59,100,0
3,62,106,2
3,36,92,11
3,60,78,171
3,55,74,0
3,64,84,0
3,55,84,129
3,64,100,0
3,60,88,1
3,43,88,183
3,62,84,161
3,55,66,1
3,59,70,1
3,62,88,119
3,59,80,1
3,55,78,0
3,43,58,68
3,36,80,2
3,60,88,192
3,55,74,1
3,64,88,1
3,64,100,128
3,55,92,1
3,60,84,1
3,43,80,0
3,62,34,138
3,59,50,5
3,55,8,0
3,62,58,127
3,55,46,1
3,59,60,1
3,62,92,8
3,59,68,1
3,67,106,0
3,43,96,0
3,62,92,112
3,59,78,0
3,67,88,0
3,62,84,148
3,59,70,0
3,67,88,0
3,62,92,4
3,67,96,0
3,59,84,1
3,59,84,76
3,66,116,4
3,59,106,0
3,62,96,0
3,47,84,1
3,66,68,121
3,59,74,1
3,62,74,2
3,66,78,143
3,62,74,2
3,59,78,0
3,66,126,7
3,62,96,1
3,59,88,0
3,52,78,70
3,56,82,23
3,44,126,1
3,62,74,1
3,59,80,0
3,56,88,85
3,59,74,2
3,62,78,0
3,56,72,146
3,59,70,1
3,62,70,1
3,56,126,5
3,59,92,1
3,62,106,1
3,45,92,15
3,60,84,0
3,57,92,1
3,64,84,0
3,60,84,116
3,57,80,0
3,64,80,1
3,60,84,147
3,57,80,0
3,64,74,1
3,57,100,150
3,60,126,0
3,64,110,0
3,57,110,61
3,66,96,18
3,50,88,0
3,62,80,2
3,66,68,88
3,57,84,1
3,57,80,120
3,66,78,0
3,62,88,1
3,66,116,131
3,57,92,1
3,62,110,0
3,57,100,32
3,62,80,26
3,67,92,1
3,43,84,2
3,62,78,96
3,67,88,0
3,59,70,1
3,59,70,132
3,62,92,0
3,67,92,0
3,62,126,26
3,59,116,0
3,67,126,0
3,59,106,31
3,66,78,24
3,47,88,0
3,62,100,1
3,62,92,111
3,66,88,0
3,59,68,2
3,66,110,121
3,62,88,1
3,59,88,1
3,62,120,107
3,66,126,0
3,59,68,54
3,62,62,2
3,64,96,18
3,52,88,1
3,59,92,0
3,67,100,0
3,59,96,108
3,64,106,0
3,67,110,0
3,59,96,127
3,64,96,0
3,67,84,1
3,64,120,129
3,59,116,1
3,67,120,0
3,59,116,31
3,66,96,18
3,62,96,1
3,47,84,0
3,66,82,107
3,59,88,1
3,62,92,1
3,66,116,136
3,62,96,0
3,59,88,1
3,62,116,127
3,66,126,0
3,59,84,50
3,59,106,22
3,67,116,1
3,64,100,0
3,52,80,1
3,59,88,114
3,64,88,0
3,67,96,1
3,59,96,135
3,64,100,1
3,67,100,1
3,59,116,143
3,64,116,0
3,67,120,1
3,59,106,41
3,66,110,16
3,47,92,1
3,62,96,0
3,59,74,0
3,66,88,114
3,62,96,1
3,59,88,0
3,62,106,141
3,66,110,0
3,59,92,0
3,66,126,129
3,62,120,1
3,59,92,0
3,59,78,57
3,62,84,0
3,52,84,16
3,59,106,0
3,64,88,0
3,67,100,1
3,59,106,127
3,64,92,0
3,67,100,1
3,64,106,142
3,59,96,0
3,67,110,1
3,59,116,124
3,64,126,0
3,67,126,1
3,59,116,38
3,66,126,56
3,62,100,1
3,47,84,1
3,59,74,0
3,66,126,112
3,59,92,1
3,62,106,1
3,66,116,125
3,59,96,0
3,62,106,0
3,66,126,127
3,62,116,0
3,59,92,52
3,59,106,28
3,64,84,0
3,52,84,0
3,67,116,0
3,59,100,104
3,64,110,1
3,67,116,0
3,59,106,128
3,64,110,0
3,67,110,1
3,59,106,139
3,64,110,1
3,67,120,1
3,59,100,53
3,66,126,0
3,62,100,0
3,47,92,1
3,59,92,1
3,66,126,121
3,59,92,1
3,62,92,2
3,66,126,130
3,62,106,1
3,59,100,1
3,59,92,135
3,66,126,0
3,62,116,2
3,62,88,39
3,60,100,25
3,64,88,0
3,48,106,0
3,67,100,2
3,67,110,114
3,64,92,0
3,60,84,0
3,64,100,126
3,60,96,0
3,67,106,2
3,67,120,121
3,60,100,0
3,64,116,0
3,60,78,42
3,67,96,0
3,64,56,25
3,67,84,15
3,62,88,1
3,59,96,1
3,43,110,0
3,62,100,126
3,67,100,0
3,59,96,0
3,67,106,121
3,62,110,1
3,59,106,0
3,62,126,6
3,59,110,0
3,67,126,0
3,62,100,63
3,67,68,3
3,64,92,9
3,48,100,0
3,60,100,0
3,67,92,1
3,64,84,121
3,67,96,1
3,60,92,0
3,64,106,136
3,60,96,0
3,67,106,0
3,60,96,131
3,64,100,0
3,67,110,1
3,60,70,60
3,67,80,25
3,64,26,2
3,59,88,19
3,43,110,0
3,67,106,1
3,62,110,0
3,59,92,3
3,67,106,0
3,62,106,0
3,59,80,48
3,47,84,24
3,66,126,2
3,59,78,0
3,62,92,1
3,59,48,34
3,66,116,54
3,59,88,2
3,62,106,0
3,55,78,16
3,43,110,3
3,62,96,2
3,59,92,0
3,55,96,0
3,55,68,41
3,55,100,25
3,62,110,1
3,59,120,0
3,40,116,6
3,52,120,0
3,56,126,0
3,59,126,1
3,62,126,0
3,55,106,464
3,48,106,0
3,60,126,0
3,64,120,1
3,36,106,0
3,55,62,24
3,55,92,29
3,64,120,1
3,60,126,0
3,55,68,10
3,59,100,12
3,55,88,0
3,62,106,0
