track,note,velocity,time
1,72,100,21120
1,72,100,0
1,72,100,4
1,76,100,4
1,74,100,0
1,72,100,196
1,69,100,196
1,69,100,4
1,69,100,4
1,69,100,4
1,74,100,4
1,74,100,4
1,69,100,4
1,65,100,388
1,65,100,4
1,65,100,4
1,69,100,4
1,67,100,4
1,65,100,4
1,65,100,772
1,67,100,4
1,69,100,4
1,67,100,4
1,65,100,4
1,67,100,4
1,69,100,4
1,67,100,196
1,69,100,4
1,70,100,4
1,69,100,4
1,67,100,4
1,69,100,4
1,70,100,4
1,70,100,196
1,72,100,4
1,74,100,4
1,72,100,4
1,70,100,4
1,70,100,2116
1,69,100,4
1,69,100,4
1,72,100,4
1,69,100,4
1,69,100,4
1,67,100,4
1,65,100,4
1,67,100,4
1,69,100,4
1,69,100,196
1,67,100,4
1,67,100,4
1,70,100,4
1,67,100,4
1,67,100,4
1,65,100,4
1,64,100,4
1,65,100,4
1,67,100,4
1,67,100,4
1,72,100,964
1,72,100,4
1,72,100,4
1,72,100,4
1,76,100,4
1,74,100,4
1,72,100,196
1,69,100,388
1,74,100,4
1,72,100,4
1,69,100,196
1,65,100,196
1,65,100,4
1,65,100,4
1,65,100,4
1,69,100,4
1,67,100,4
1,65,100,4
1,65,100,388
1,65,100,4
1,65,100,4
1,69,100,4
1,67,100,4
1,64,100,4
1,60,100,4
1,60,100,772
1,62,100,4
1,63,100,4
1,67,100,0
1,67,100,4
1,60,100,772
1,62,100,4
1,63,100,4
1,68,100,4
1,68,100,4
1,60,100,772
1,62,100,4
1,63,100,4
1,70,100,4
1,70,100,4
1,70,100,772
1,72,100,4
1,68,100,4
1,65,100,4
1,65,100,4
1,65,100,772
1,67,100,4
1,68,100,4
1,65,100,4
1,62,100,4
1,62,100,4
1,62,100,4
1,62,100,4
1,62,100,4
1,62,100,4
1,60,100,1924
1,62,100,4
1,63,100,4
1,67,100,4
1,67,100,4
1,67,100,4
1,60,100,772
1,62,100,4
1,63,100,4
1,68,100,4
1,68,100,4
1,68,100,4
1,60,100,584
1,62,100,4
1,63,100,4
1,70,100,4
1,70,100,4
1,70,100,772
1,72,100,4
1,68,100,4
1,65,100,4
1,65,100,4
1,65,100,580
1,67,100,4
1,63,100,4
1,60,100,4
1,60,100,4
1,72,100,2020
1,72,100,4
1,72,100,4
1,72,100,4
1,72,100,4
1,76,100,4
1,74,100,0
1,72,100,196
1,72,100,388
1,74,100,4
1,72,100,4
1,69,100,4
1,65,100,388
1,65,100,4
1,65,100,4
1,69,100,4
1,67,100,4
1,65,100,4
1,65,100,772
1,67,100,4
1,69,100,4
1,67,100,4
1,65,100,4
1,67,100,4
1,67,100,4
1,69,100,196
1,69,100,4
1,69,100,4
1,69,100,4
1,72,100,4
1,69,100,4
1,67,100,4
1,65,100,4
1,67,100,4
1,69,100,4
1,69,100,4
1,67,100,100
1,70,100,4
1,67,100,4
1,65,100,4
1,64,100,4
1,69,100,388
1,69,100,4
1,67,100,4
1,64,100,388
1,66,100,4
1,67,100,4
1,64,100,4
1,66,100,4
1,67,100,4
1,67,100,4
1,69,100,388
1,69,100,4
1,69,100,4
1,67,100,4
1,69,100,4
1,73,100,4
1,73,100,4
1,73,100,4
1,73,100,4
1,76,100,4
1,74,100,4
1,73,100,4
1,69,100,4
1,69,100,4
1,69,100,4
1,67,100,4
1,64,100,392
1,66,100,4
1,67,100,4
1,67,100,4
1,67,100,4
1,67,100,4
1,67,100,4
1,67,100,4
1,67,100,4
1,67,100,4
1,67,100,4
1,69,100,4
1,69,100,4
1,69,100,4
1,69,100,4
1,69,100,4
1,69,100,4
1,69,100,4
1,76,100,196
1,74,100,4
1,73,100,4
1,71,100,4
1,69,100,4
1,69,100,4
1,69,100,4
1,69,100,580
1,69,100,4
1,69,100,4
1,69,100,4
1,69,100,4
1,69,100,4
1,69,100,4
1,69,100,4
1,69,100,4
1,72,100,4
1,72,100,4
1,72,100,4
1,72,100,4
1,72,100,4
1,72,100,4
1,69,100,4
1,69,100,4
1,69,100,4
1,69,100,4
1,69,100,4
1,69,100,4
1,69,100,4
1,65,100,4
1,65,100,4
1,72,100,19012
1,72,100,0
1,72,100,4
1,72,100,4
1,76,100,4
1,74,100,4
1,72,100,4
1,69,100,196
1,69,100,4
1,69,100,4
1,74,100,4
1,72,100,4
1,69,100,4
1,65,100,388
1,65,100,4
1,65,100,4
1,65,100,4
1,69,100,4
1,67,100,4
1,65,100,4
1,65,100,580
1,67,100,4
1,69,100,4
1,67,100,4
1,65,100,4
1,67,100,4
1,69,100,4
1,67,100,4
1,65,100,4
1,69,100,4
1,70,100,4
1,69,100,4
1,67,100,4
1,69,100,4
1,69,100,4
1,70,100,4
1,69,100,4
1,67,100,4
1,72,100,1156
1,72,100,4
1,76,100,4
1,74,100,4
1,72,100,196
1,69,100,196
1,69,100,4
1,69,100,4
1,74,100,4
1,72,100,4
1,69,100,4
1,69,100,4
1,69,100,4
1,60,100,3364
1,60,100,4
1,62,100,4
1,63,100,4
1,65,100,4
1,67,100,0
1,67,100,4
1,67,100,4
1,60,100,772
1,62,100,4
1,63,100,4
1,68,100,4
1,68,100,4
1,60,100,772
1,62,100,4
1,63,100,4
1,70,100,4
1,70,100,4
1,70,100,580
1,70,100,4
1,72,100,4
1,68,100,4
1,65,100,4
1,65,100,4
1,65,100,388
1,67,100,4
1,68,100,4
1,65,100,8
1,63,100,4
1,62,100,4
1,62,100,4
1,60,100,772
1,62,100,4
1,63,100,4
1,67,100,4
1,67,100,4
2,60,100,2688
2,62,100,4
2,63,100,4
2,67,100,4
2,63,100,0
2,60,100,0
2,60,100,4
2,63,100,0
2,68,100,0
2,60,100,4
2,63,100,0
2,67,100,0
2,70,100,0
2,72,100,4
2,65,100,4
2,67,100,4
2,62,100,4
2,67,100,960
2,71,100,0
2,74,100,0
2,71,100,4
2,74,100,0
2,79,100,0
2,60,100,4
2,62,100,4
2,63,100,4
2,67,100,4
2,55,100,0
2,60,100,0
2,56,100,4
2,60,100,0
2,65,100,0
2,68,100,4
2,58,100,4
2,63,100,0
2,67,100,0
2,70,100,0
2,72,100,4
2,65,100,4
2,67,100,4
2,60,100,4
2,60,100,0
2,69,100,0
2,65,100,0
2,64,100,4
2,72,100,0
2,69,100,0
2,65,100,4
2,69,100,0
2,74,100,0
2,60,100,4
2,64,100,0
2,67,100,0
2,62,100,4
2,67,100,0
2,70,100,0
2,72,100,4
2,64,100,0
2,67,100,0
2,70,100,4
2,74,100,0
2,72,100,4
2,76,100,0
2,67,100,192
2,67,100,4
2,67,100,4
2,67,100,4
2,67,100,4
2,67,100,4
2,67,100,4
2,62,100,4
2,65,100,192
2,69,100,192
2,74,100,192
2,62,100,4
2,65,100,0
2,69,100,0
2,60,100,8
2,64,100,192
2,67,100,192
2,72,100,192
2,67,100,4
2,64,100,0
2,60,100,0
2,60,100,8
2,64,100,192
2,67,100,4
2,72,100,4
2,64,100,196
2,67,100,0
2,72,100,0
2,74,100,388
2,69,100,0
2,65,100,0
2,72,100,4
2,69,100,4
2,74,100,4
2,72,100,4
2,69,100,0
2,64,100,0
2,74,100,4
2,69,100,0
2,65,100,0
2,72,100,4
2,76,100,0
2,67,100,192
2,67,100,4
2,67,100,4
2,67,100,4
2,67,100,4
2,67,100,4
2,67,100,0
2,63,100,0
2,60,100,0
2,68,100,4
2,63,100,0
2,60,100,0
2,70,100,4
2,67,100,0
2,63,100,0
2,58,100,0
2,72,100,4
2,65,100,4
2,60,100,0
2,56,100,0
2,55,100,4
2,59,100,0
2,62,100,0
2,55,100,4
2,62,100,384
2,67,100,4
2,79,100,4
2,75,100,4
2,79,100,4
2,75,100,4
2,72,100,4
2,63,100,768
2,67,100,0
2,60,100,4
2,62,100,4
2,63,100,4
2,68,100,4
2,60,100,768
2,63,100,0
2,65,100,4
2,67,100,4
2,68,100,4
2,70,100,4
2,58,100,768
2,63,100,0
2,67,100,0
2,70,100,4
2,72,100,4
2,68,100,4
2,65,100,4
2,56,100,384
2,60,100,0
2,67,100,4
2,51,100,4
2,55,100,0
2,60,100,0
2,55,100,196
2,60,100,4
2,62,100,4
2,63,100,4
2,62,101,4
2,63,103,4
2,67,104,4
2,72,106,4
2,64,109,4
2,67,109,0
2,72,109,0
2,76,109,0
2,65,100,0
2,69,100,0
2,74,100,0
2,72,100,4
2,69,100,4
2,74,100,4
2,72,100,4
2,60,100,0
2,64,100,0
2,69,100,4
2,65,100,4
2,57,100,4
2,62,100,0
2,67,100,0
2,65,100,4
2,67,100,4
2,60,100,0
2,64,100,0
2,69,100,4
2,74,100,4
2,62,100,0
2,65,100,0
2,69,100,0
2,69,100,4
2,60,100,4
2,64,100,0
2,67,100,0
2,61,100,4
2,64,100,0
2,69,100,0
2,64,100,4
2,69,100,0
2,73,100,0
2,61,100,4
2,69,100,0
2,64,100,0
2,73,100,4
2,76,100,0
2,64,100,0
2,71,100,4
2,74,100,0
2,69,100,4
2,73,100,0
2,69,100,4
2,61,100,0
2,64,100,0
2,69,100,4
2,69,100,4
2,57,100,0
2,60,100,0
2,67,100,4
2,57,100,4
2,60,100,0
2,64,100,0
2,67,100,384
2,67,100,4
2,57,100,4
2,61,100,0
2,64,100,0
2,69,100,384
2,69,100,4
2,64,100,4
2,69,100,0
2,73,100,0
2,76,100,0
2,71,100,4
2,74,100,0
2,69,100,4
2,73,100,0
2,71,100,4
2,69,100,4
2,60,100,4
2,65,100,0
2,69,100,0
2,81,100,4
2,69,100,0
2,84,100,4
2,72,100,0
2,69,100,4
2,81,100,0
2,65,100,4
2,77,100,0
2,69,100,2308
2,65,100,0
2,60,100,4
2,64,100,0
2,57,100,4
2,62,100,0
2,60,100,4
2,64,100,0
2,60,100,4
2,64,100,0
2,67,100,4
2,62,100,0
2,67,100,4
2,64,100,0
2,53,100,4
2,57,100,0
2,62,100,0
2,52,100,4
2,55,100,0
2,60,100,0
2,52,100,4
2,55,100,0
2,60,100,0
2,69,100,4
2,65,100,0
2,64,100,4
2,60,100,0
2,57,100,4
2,62,100,0
2,67,100,4
2,64,100,0
2,60,100,0
2,58,100,4
2,62,100,0
2,55,100,4
2,60,100,0
2,64,100,4
2,70,100,4
2,67,100,0
2,74,100,4
2,69,100,0
2,65,100,0
2,72,100,4
2,69,100,0
2,65,100,0
2,69,100,4
2,74,100,4
2,60,100,4
2,64,100,0
2,60,100,4
2,64,100,0
2,65,100,4
2,65,100,4
2,69,100,4
2,57,100,4
2,62,100,0
2,57,100,4
2,62,100,0
2,65,100,4
2,65,100,4
2,69,100,4
2,67,100,4
2,64,100,4
2,60,100,4
2,60,100,0
2,63,100,0
2,67,100,0
2,60,100,4
2,63,100,0
2,68,100,0
2,58,100,4
2,63,100,0
2,67,100,0
2,70,100,0
2,65,100,4
2,56,100,0
2,60,100,0
2,58,100,4
2,62,100,0
2,67,100,0
2,60,100,4
2,63,100,0
2,67,100,0
2,60,100,4
2,62,100,4
2,63,100,4
2,60,100,4
2,63,100,0
2,68,100,0
2,60,100,4
2,62,100,4
2,63,100,4
2,70,100,4
2,67,100,0
2,60,100,4
2,62,100,4
2,63,100,4
2,65,100,4
2,60,100,4
2,62,100,4
2,63,100,4
2,60,100,4
2,67,100,1536
2,72,100,0
2,75,100,0
2,72,100,4
2,63,100,0
2,67,100,0
2,63,100,4
2,60,100,0
2,67,100,0
2,55,100,4
2,60,100,0
2,63,100,0
3,48,100,3072
3,44,100,4
3,39,100,4
3,41,100,4
3,48,100,0
3,56,100,0
3,43,100,4
3,50,100,0
3,59,100,0
3,44,100,4
3,41,100,4
3,39,100,4
3,41,100,4
3,48,100,0
3,56,100,0
3,36,100,4
3,48,100,0
3,41,100,0
3,45,100,4
3,38,100,4
3,36,100,4
3,36,100,4
3,36,100,4
3,36,100,4
3,38,100,4
3,38,100,4
3,36,100,4
3,36,100,4
3,36,100,4
3,36,100,4
3,41,100,4
3,45,100,4
3,38,100,4
3,36,100,4
3,48,100,0
3,44,100,4
3,39,100,4
3,41,100,4
3,43,100,4
3,43,100,4
3,55,100,4
3,43,100,4
3,44,100,4
3,41,100,4
3,39,100,4
3,41,100,4
3,36,100,4
3,43,100,384
3,48,100,4
3,36,100,4
3,48,100,4
3,36,100,4
3,41,100,0
3,45,100,4
3,38,100,4
3,38,100,4
3,36,100,4
3,36,100,4
3,38,100,4
3,38,100,4
3,36,100,4
3,36,100,4
3,33,100,4
3,45,100,768
3,45,100,4
3,33,100,4
3,33,100,4
3,45,100,768
3,45,100,4
3,33,100,4
3,33,100,4
3,45,100,768
3,45,100,4
3,45,100,4
3,33,100,4
3,45,100,768
3,45,100,4
3,33,100,4
3,41,100,4
3,39,100,4
3,37,100,4
3,34,100,4
3,37,100,4
3,27,100,4
3,39,100,0
3,51,100,192
3,41,100,388
3,53,100,4
3,41,100,4
3,33,100,4
3,45,100,4
3,33,100,4
3,38,100,4
3,50,100,4
3,38,100,4
3,36,100,4
3,36,100,4
3,36,100,4
3,48,100,4
3,36,100,4
3,48,100,4
3,38,100,4
3,38,100,4
3,36,100,4
3,36,100,4
3,36,100,4
3,36,100,4
3,41,100,4
3,41,100,4
3,41,100,4
3,45,100,4
3,45,100,4
3,45,100,4
3,38,100,4
3,38,100,4
3,45,100,4
3,41,100,4
3,38,100,4
3,36,100,4
3,36,100,4
3,36,100,4
3,36,100,4
3,36,100,4
3,48,100,4
3,41,100,4
3,41,100,4
3,41,100,4
3,53,100,4
3,41,100,4
3,33,100,4
3,33,100,4
3,33,100,4
3,45,100,4
3,33,100,4
3,38,100,4
3,38,100,4
3,38,100,4
3,50,100,4
3,38,100,4
3,36,100,4
3,36,100,4
3,48,100,0
3,36,100,4
3,44,100,4
3,32,100,4
3,39,100,4
3,27,100,4
3,41,100,4
3,29,100,4
3,43,100,4
3,31,100,4
3,44,100,4
3,32,100,4
3,41,100,4
3,34,100,4
3,39,100,4
3,41,100,4
3,48,100,0
3,56,100,0
3,36,100,4
3,43,100,0
3,48,100,0
3,36,100,4
3,43,100,0
3,48,100,0
3,60,100,0
4,72,100,29568
4,72,100,4
4,76,100,4
4,74,100,4
4,72,100,4
4,69,100,388
4,69,100,0
4,69,100,4
4,74,100,4
4,72,100,4
4,69,100,4
4,65,100,388
4,65,100,4
4,69,100,4
4,67,100,4
4,65,100,4
4,67,100,772
4,69,100,4
4,67,100,4
4,65,100,4
4,67,100,4
4,69,100,4
4,69,100,388
4,70,100,4
4,69,100,4
4,67,100,4
4,69,100,4
4,70,100,4
4,70,100,388
4,72,100,4
4,70,100,4
4,72,100,4
4,74,100,4
4,72,100,4
4,70,100,4
4,72,100,4
4,70,100,388
4,72,100,4
4,74,100,4
4,72,100,4
4,70,100,4
4,72,100,4
4,69,100,196
4,65,100,4
4,74,100,4
4,77,100,0
4,79,100,4
4,76,100,0
4,81,100,4
4,77,100,0
4,67,100,388
4,64,100,4
4,72,100,4
4,76,100,0
4,77,100,4
4,74,100,0
4,76,100,4
4,79,100,0
4,67,100,388
4,64,100,4
4,72,100,4
4,67,100,4
4,72,100,0
4,76,100,0
4,74,100,4
4,72,100,4
4,69,100,4
4,74,100,4
4,72,100,4
4,69,100,4
4,65,100,4
4,69,100,4
4,67,100,4
4,65,100,4
4,69,100,1540
4,67,100,4
4,69,100,4
4,70,100,4
4,69,100,4
4,67,100,4
4,62,100,4
4,64,100,4
4,67,100,4
4,64,100,4
4,67,100,4
4,69,100,4
4,70,100,4
4,72,100,4
4,76,100,4
4,74,100,4
4,72,100,4
4,69,100,4
4,74,100,4
4,72,100,4
4,69,100,4
4,65,100,4
4,65,100,4
4,69,100,4
4,67,100,4
4,65,100,4
4,65,100,4
4,65,100,4
4,69,100,4
4,67,100,4
4,64,100,4
4,60,100,4
5,40,100,0
5,47,100,192
5,47,100,4
5,40,100,0
5,47,100,4
5,47,100,4
5,40,100,0
5,47,100,4
5,47,100,4
5,40,100,0
5,47,100,4
5,47,100,4
5,40,100,4
5,47,100,192
5,47,100,4
