track,note,velocity,time
1,69,120,21312
1,73,120,8
1,73,120,8
1,73,120,8
1,73,120,8
1,74,120,8
1,74,120,8
1,74,120,8
1,74,120,8
1,74,120,8
1,75,120,8
1,75,120,8
1,76,120,8
1,74,120,8
1,72,120,8
1,69,120,8
1,72,120,8
1,69,120,8
1,69,120,8
1,69,120,8
1,69,120,2304
1,73,120,8
1,73,120,8
1,73,120,8
1,73,120,8
1,74,120,8
1,74,120,8
1,74,120,8
1,74,120,8
1,74,120,8
1,75,120,8
1,75,120,8
1,76,120,8
1,74,120,8
1,72,120,8
1,69,120,8
1,72,120,8
1,69,120,8
1,69,120,8
1,69,120,8
1,76,120,2496
1,79,120,8
1,76,120,8
1,79,120,8
1,76,120,8
1,74,120,8
1,72,120,8
1,74,120,8
1,72,120,8
1,74,120,8
1,73,120,8
1,76,120,2696
1,79,120,8
1,76,120,8
1,79,120,8
1,76,120,8
1,74,120,8
1,72,120,8
1,74,120,8
1,72,120,8
1,74,120,8
1,73,120,8
1,69,120,1928
1,69,120,8
1,69,120,8
1,69,120,8
1,69,120,392
1,69,120,8
1,69,120,8
1,81,120,8
1,69,120,584
1,69,120,8
1,69,120,8
1,69,120,8
1,69,120,8
1,69,120,8
1,69,120,8
1,69,120,8
1,81,120,8
1,76,120,776
1,75,120,8
1,76,120,8
1,75,120,8
1,76,120,8
1,75,120,8
1,76,120,8
1,75,120,8
1,76,120,8
1,76,120,8
1,74,120,8
1,74,120,8
1,74,120,8
1,74,120,8
1,74,120,8
1,78,120,8
1,76,120,8
1,73,120,8
1,73,120,200
1,73,120,8
1,66,120,8
1,69,120,8
1,71,120,8
1,72,120,8
1,71,120,8
1,69,120,8
1,66,120,8
1,69,120,8
1,73,120,392
1,73,120,8
1,66,120,8
1,69,120,8
1,71,120,8
1,72,120,8
1,71,120,8
1,69,120,8
1,66,120,8
1,69,120,8
1,73,120,392
1,73,120,8
1,66,120,8
1,69,120,8
1,71,120,8
1,72,120,8
1,71,120,8
1,69,120,8
1,66,120,8
1,69,120,8
1,73,120,392
1,73,120,8
1,66,120,8
1,69,120,8
1,71,120,8
1,72,120,8
1,71,120,8
1,69,120,8
1,66,120,8
1,69,120,8
1,73,120,392
1,73,120,8
1,66,120,8
1,69,120,8
1,71,120,8
1,72,120,8
1,71,120,8
1,69,120,8
1,66,120,8
1,69,120,8
1,73,120,8
1,73,120,8
1,73,120,8
1,73,120,8
1,74,120,8
1,74,120,8
1,74,120,8
1,74,120,8
1,74,120,8
1,74,120,8
1,75,120,8
1,75,120,8
1,76,120,8
1,74,120,8
1,72,120,8
1,69,120,8
1,72,120,8
1,69,120,8
1,69,120,8
1,69,120,8
1,69,120,768
1,66,120,8
1,66,120,8
1,67,120,8
1,67,120,8
1,68,120,8
1,69,120,8
1,69,120,8
1,69,120,8
1,73,120,8
1,73,120,8
1,73,120,8
1,73,120,8
1,74,120,8
1,74,120,8
1,74,120,8
1,74,120,8
1,75,120,8
1,75,120,8
1,76,120,8
1,76,120,8
1,74,120,8
1,72,120,8
1,69,120,8
1,72,120,8
1,69,120,8
1,69,120,8
1,69,120,8
1,76,120,2496
1,79,120,8
1,76,120,8
1,79,120,8
1,76,120,8
1,74,120,8
1,72,120,8
1,74,120,8
1,72,120,8
1,74,120,8
1,73,120,8
1,76,120,2696
1,79,120,8
1,76,120,8
1,79,120,8
1,76,120,8
1,74,120,8
1,74,120,8
1,72,120,8
1,74,120,8
1,72,120,8
1,74,120,8
1,72,120,8
1,73,120,8
1,71,120,8
1,73,120,8
1,71,120,8
1,73,120,8
1,71,120,8
1,73,120,8
1,71,120,8
1,73,120,8
1,71,120,8
1,73,120,8
1,69,120,200
1,69,120,8
1,69,120,8
1,69,120,8
1,69,120,392
1,69,120,8
1,69,120,8
1,81,120,8
1,69,120,584
1,69,120,8
1,69,120,8
1,69,120,8
1,69,120,8
1,69,120,8
1,69,120,8
1,69,120,8
1,81,120,8
1,76,120,584
1,76,120,8
1,75,120,8
1,76,120,8
1,75,120,8
1,76,120,8
1,75,120,8
1,76,120,8
1,75,120,8
1,76,120,8
1,76,120,8
1,74,120,8
1,74,120,8
1,74,120,8
1,74,120,8
1,74,120,8
1,78,120,8
1,76,120,8
1,73,120,8
1,73,120,200
1,73,120,8
1,66,120,8
1,69,120,8
1,69,120,392
1,69,120,8
1,69,120,8
1,69,120,8
1,69,120,392
1,69,120,8
1,69,120,8
1,81,120,8
1,81,120,584
1,81,120,8
1,81,120,8
1,83,120,8
1,81,120,8
1,81,120,8
1,81,120,8
1,78,120,8
1,83,120,8
1,81,120,8
1,76,120,392
1,76,120,8
1,75,120,8
1,76,120,8
1,75,120,8
1,76,120,8
1,75,120,8
1,76,120,8
1,75,120,8
1,76,120,8
1,76,120,8
1,74,120,8
1,74,120,8
1,74,120,8
1,74,120,8
1,74,120,8
1,74,120,8
1,78,120,8
1,76,120,8
1,73,120,8
1,73,120,200
1,73,120,8
1,66,120,8
1,69,120,8
1,71,120,8
1,72,120,8
1,71,120,8
1,69,120,8
1,66,120,8
1,79,120,3656
1,78,120,8
1,78,120,8
1,76,120,8
1,76,120,8
1,76,120,8
1,74,120,8
1,76,120,8
1,74,120,4
1,79,120,1540
1,78,120,4
1,78,120,4
1,76,120,4
1,76,120,4
1,74,120,4
1,76,120,4
1,74,120,4
1,74,120,4
1,71,120,4
1,69,120,4
1,67,120,4
1,74,120,4
1,74,120,4
1,76,120,4
1,74,120,4
1,76,120,4
1,74,120,4
1,74,120,292
1,76,120,4
1,79,120,4
1,79,120,4
1,76,120,4
1,74,120,4
1,72,120,4
1,71,120,4
1,71,120,4
1,71,120,4
1,71,120,4
1,76,120,4
1,76,120,4
1,77,120,4
1,76,120,4
1,74,120,772
1,72,120,4
1,71,120,4
1,72,120,192
1,71,120,4
1,69,120,4
1,72,120,196
1,74,120,4
1,69,120,4
1,71,120,4
1,76,120,196
1,79,100,4
1,79,100,8
1,79,100,8
1,79,100,8
1,79,100,8
1,79,100,8
1,79,100,584
1,79,100,96
1,79,100,104
1,79,100,584
1,79,100,8
1,79,100,8
1,79,100,8
1,79,100,8
1,79,100,8
1,79,100,8
1,79,100,392
1,79,100,8
1,79,100,8
1,79,100,8
1,76,100,8
1,75,100,8
1,74,100,8
1,73,100,8
1,73,100,8
1,73,100,96
1,73,100,104
1,74,100,8
1,74,100,8
1,74,100,8
1,74,100,8
1,75,100,8
1,76,100,8
1,74,100,392
1,72,100,8
1,69,100,8
1,72,100,8
1,69,100,8
1,69,100,8
1,69,100,8
1,69,100,968
1,69,100,8
1,69,100,8
1,69,100,256
1,73,120,8
1,73,120,8
1,73,120,8
1,73,120,8
1,74,120,8
1,74,120,8
1,74,120,8
1,74,120,8
1,74,120,8
1,75,120,8
1,75,120,8
1,76,120,8
1,74,120,8
1,72,120,8
1,69,120,8
1,72,120,8
1,69,120,8
1,69,120,8
1,69,120,8
1,76,120,1528
1,79,120,8
1,76,120,8
1,79,120,8
1,76,120,8
1,74,120,8
1,72,120,8
1,74,120,8
1,72,120,8
1,74,120,8
1,73,120,8
1,76,120,2696
1,79,120,8
1,76,120,8
1,79,120,8
1,76,120,8
1,74,120,8
1,74,120,8
1,72,120,8
1,74,120,8
1,72,120,8
1,74,120,8
1,72,120,8
1,73,120,8
1,71,120,8
1,73,120,8
1,71,120,8
1,73,120,8
1,71,120,8
1,73,120,8
1,71,120,8
1,73,120,8
1,71,120,8
1,73,120,8
1,71,100,8
1,73,100,8
1,69,100,392
1,69,100,4
1,69,100,4
1,69,100,4
1,69,100,392
1,69,100,8
1,71,100,8
1,81,100,8
1,69,120,584
1,69,120,8
1,69,120,8
1,69,120,8
1,69,120,8
1,69,120,8
1,69,120,8
1,69,120,8
1,81,120,8
1,76,120,584
1,76,120,8
1,75,120,8
1,76,120,8
1,75,120,8
1,76,120,8
1,75,120,8
1,76,120,8
1,75,120,8
1,76,120,8
1,76,120,8
1,74,120,8
1,74,120,8
1,74,120,8
1,74,120,8
1,74,120,8
1,78,120,8
1,76,120,8
1,73,120,8
1,73,120,200
1,73,120,8
1,66,120,8
1,69,120,8
1,69,120,392
1,69,120,8
1,69,120,8
1,69,120,8
1,69,120,392
1,69,120,8
1,69,120,8
1,81,120,8
1,81,120,584
1,81,120,8
1,81,120,8
1,83,120,8
1,81,120,8
1,81,120,8
1,81,120,8
1,78,120,8
1,83,120,8
1,81,120,8
1,76,120,392
1,76,120,8
1,75,120,8
1,76,120,8
1,75,120,8
1,76,120,8
1,75,120,8
1,76,120,8
1,75,120,8
1,76,120,8
1,76,120,8
1,74,120,8
1,74,120,8
1,74,120,8
1,74,120,8
1,74,120,8
1,74,120,8
1,78,120,8
1,76,120,8
1,73,120,8
1,73,120,200
1,73,120,8
1,66,120,8
1,69,120,8
1,71,120,8
1,72,120,8
1,71,120,8
1,69,120,8
1,66,100,8
1,69,100,8
1,73,120,392
1,73,120,8
1,66,120,8
1,69,120,8
1,71,120,8
1,72,120,8
1,71,120,8
1,69,120,8
1,66,100,8
1,69,100,8
1,73,120,392
1,73,120,8
1,66,120,8
1,69,120,8
1,71,120,8
1,72,120,8
1,71,120,8
1,69,120,8
1,66,100,8
1,69,100,8
1,73,120,392
1,73,120,8
1,66,120,8
1,69,120,8
1,71,120,8
1,72,120,8
1,71,120,8
1,69,120,8
1,66,100,8
1,69,100,8
1,73,120,392
1,73,120,8
1,66,120,8
1,69,120,8
1,71,120,8
1,72,120,8
1,71,120,8
1,69,120,8
1,66,100,8
1,69,100,8
1,73,120,392
1,73,120,8
1,66,120,8
1,69,120,8
1,71,120,8
1,72,120,8
1,71,120,8
1,69,120,8
1,66,100,8
1,69,100,8
1,73,120,392
1,73,120,8
1,66,120,8
1,69,120,8
1,71,120,8
1,72,120,8
1,71,120,8
1,69,120,8
1,66,100,8
1,69,100,8
1,73,94,392
1,73,92,8
1,66,91,8
1,69,89,8
1,71,85,8
1,72,84,8
1,71,82,8
1,69,81,8
1,66,80,8
1,69,78,8
1,73,71,392
1,73,70,8
1,66,69,8
1,69,67,8
1,71,63,8
1,72,62,8
1,71,60,8
1,69,59,8
1,66,57,8
1,69,56,8
1,73,49,392
1,73,48,8
1,66,46,8
1,69,100,8
1,71,91,8
1,72,88,8
1,71,85,8
1,69,82,8
1,66,79,8
1,69,76,8
1,73,60,392
1,73,57,8
1,66,54,8
1,69,51,8
1,71,41,8
1,72,38,8
1,71,35,8
1,69,32,8
1,66,29,8
1,69,26,8
2,57,120,0
2,61,120,0
2,64,120,0
2,57,120,8
2,61,120,0
2,64,120,0
2,57,120,8
2,61,120,0
2,64,120,0
2,57,120,8
2,61,120,0
2,64,120,0
2,57,120,8
2,61,120,0
2,64,120,0
2,57,120,8
2,61,120,0
2,64,120,0
2,57,120,8
2,61,120,0
2,64,120,0
2,57,120,8
2,61,120,0
2,64,120,0
2,57,120,8
2,62,120,0
2,66,120,0
2,57,120,8
2,62,120,0
2,66,120,0
2,57,120,8
2,62,120,0
2,66,120,0
2,57,120,8
2,62,120,0
2,66,120,0
2,57,120,8
2,60,120,0
2,65,120,0
2,57,120,8
2,60,120,0
2,65,120,0
2,57,120,8
2,60,120,0
2,65,120,0
2,57,120,8
2,60,120,0
2,65,120,0
2,57,120,8
2,61,120,0
2,64,120,0
2,57,120,8
2,61,120,0
2,64,120,0
2,57,120,8
2,61,120,0
2,64,120,0
2,61,120,8
2,57,120,0
2,64,120,0
2,59,120,8
2,62,120,0
2,67,120,0
2,59,120,8
2,62,120,0
2,67,120,0
2,59,120,8
2,62,120,0
2,67,120,0
2,59,120,8
2,62,120,0
2,67,120,0
2,57,120,8
2,61,120,0
2,64,120,0
2,57,120,8
2,61,120,0
2,64,120,0
2,57,120,8
2,61,120,0
2,64,120,0
2,57,120,8
2,61,120,0
2,64,120,0
2,57,120,8
2,62,120,0
2,66,120,0
2,57,120,8
2,62,120,0
2,66,120,0
2,57,120,8
2,62,120,0
2,66,120,0
2,57,120,8
2,62,120,0
2,66,120,0
2,57,120,8
2,61,120,0
2,64,120,0
2,57,120,8
2,61,120,0
2,64,120,0
2,57,120,8
2,61,120,0
2,64,120,0
2,57,120,8
2,61,120,0
2,64,120,0
2,57,120,8
2,62,120,0
2,66,120,0
2,57,120,8
2,62,120,0
2,66,120,0
2,57,120,8
2,62,120,0
2,66,120,0
2,57,120,8
2,62,120,0
2,66,120,0
2,57,120,8
2,61,120,0
2,64,120,0
2,57,120,8
2,61,120,0
2,64,120,0
2,57,120,8
2,61,120,0
2,64,120,0
2,57,120,8
2,61,120,0
2,64,120,0
2,57,120,8
2,62,120,0
2,66,120,0
2,57,120,8
2,62,120,0
2,66,120,0
2,57,120,8
2,62,120,0
2,66,120,0
2,57,120,8
2,62,120,0
2,66,120,0
2,57,120,8
2,61,120,0
2,64,120,0
2,57,120,8
2,61,120,0
2,64,120,0
2,57,120,8
2,61,120,0
2,64,120,0
2,57,120,8
2,61,120,0
2,64,120,0
2,57,120,8
2,62,120,0
2,66,120,0
2,57,120,8
2,62,120,0
2,66,120,0
2,57,120,8
2,62,120,0
2,66,120,0
2,57,120,8
2,62,120,0
2,66,120,0
2,57,120,8
2,61,120,0
2,64,120,0
2,57,120,8
2,61,120,0
2,64,120,0
2,57,120,8
2,61,120,0
2,64,120,0
2,57,120,8
2,61,120,0
2,64,120,0
2,57,120,8
2,62,120,0
2,66,120,0
2,57,120,8
2,62,120,0
2,66,120,0
2,57,120,8
2,62,120,0
2,66,120,0
2,57,120,8
2,62,120,0
2,66,120,0
2,57,120,8
2,61,120,0
2,64,120,0
2,57,120,8
2,61,120,0
2,64,120,0
2,57,120,8
2,61,120,0
2,64,120,0
2,57,120,8
2,61,120,0
2,64,120,0
2,57,120,8
2,62,120,0
2,66,120,0
2,57,120,8
2,62,120,0
2,66,120,0
2,57,120,8
2,62,120,0
2,66,120,0
2,57,120,8
2,62,120,0
2,66,120,0
2,57,120,8
2,61,120,0
2,64,120,0
2,57,120,8
2,61,120,0
2,64,120,0
2,57,120,8
2,61,120,0
2,64,120,0
2,57,120,8
2,61,120,0
2,64,120,0
2,57,120,8
2,62,120,0
2,66,120,0
2,57,120,8
2,62,120,0
2,66,120,0
2,57,120,8
2,62,120,0
2,66,120,0
2,57,120,8
2,62,120,0
2,66,120,0
2,57,120,8
2,61,120,0
2,64,120,0
2,57,120,8
2,61,120,0
2,64,120,0
2,57,120,8
2,61,120,0
2,64,120,0
2,57,120,8
2,61,120,0
2,64,120,0
2,57,120,8
2,62,120,0
2,66,120,0
2,57,120,8
2,62,120,0
2,66,120,0
2,57,120,8
2,62,120,0
2,66,120,0
2,57,120,8
2,62,120,0
2,66,120,0
2,57,120,8
2,61,120,0
2,64,120,0
2,57,120,8
2,61,120,0
2,64,120,0
2,57,120,8
2,61,120,0
2,64,120,0
2,57,120,8
2,61,120,0
2,64,120,0
2,57,120,8
2,62,120,0
2,66,120,0
2,57,120,8
2,62,120,0
2,66,120,0
2,57,120,8
2,62,120,0
2,66,120,0
2,57,120,8
2,62,120,0
2,66,120,0
2,57,120,8
2,61,120,0
2,64,120,0
2,57,120,8
2,61,120,0
2,64,120,0
2,57,120,8
2,61,120,0
2,64,120,0
2,57,120,8
2,61,120,0
2,64,120,0
2,57,120,8
2,62,120,0
2,66,120,0
2,57,120,8
2,62,120,0
2,66,120,0
2,57,120,8
2,62,120,0
2,66,120,0
2,57,120,8
2,62,120,0
2,66,120,0
2,57,120,8
2,61,120,0
2,64,120,0
2,57,120,8
2,61,120,0
2,64,120,0
2,57,120,8
2,61,120,0
2,64,120,0
2,57,120,8
2,61,120,0
2,64,120,0
2,57,120,8
2,62,120,0
2,66,120,0
2,57,120,8
2,62,120,0
2,66,120,0
2,57,120,8
2,62,120,0
2,66,120,0
2,57,120,8
2,62,120,0
2,66,120,0
2,57,120,8
2,61,120,0
2,64,120,0
2,57,120,8
2,61,120,0
2,64,120,0
2,57,120,8
2,61,120,0
