track,note,velocity,time
2,33,124,14407
2,33,124,15
2,33,124,10
2,43,124,191
2,43,88,19
2,45,114,51
2,45,90,15
2,47,124,53
2,47,124,14
2,33,124,53
2,33,123,14
2,33,124,15
2,43,124,182
2,43,107,12
2,43,65,1
2,45,124,37
2,45,102,13
2,47,124,47
2,47,124,14
2,31,111,55
2,31,124,22
2,31,124,13
2,42,124,185
2,42,108,14
2,43,124,48
2,43,102,14
2,38,124,54
2,38,115,17
2,31,124,52
2,31,124,16
2,31,124,13
2,42,124,181
2,42,86,9
2,43,124,48
2,43,108,13
2,38,124,55
2,38,110,16
2,33,124,53
2,33,124,13
2,33,124,10
2,43,124,183
2,43,117,15
2,43,70,1
2,45,124,39
2,45,100,16
2,47,124,45
2,47,124,14
2,33,120,0
2,33,121,15
2,33,124,13
2,43,124,176
2,43,117,13
2,45,124,51
2,45,124,13
2,47,124,47
2,47,124,12
2,31,124,58
2,31,124,8
2,31,124,2
2,42,124,186
2,42,106,11
2,42,73,1
2,43,124,38
2,43,106,12
2,38,124,55
2,38,118,18
2,31,124,46
2,31,124,13
2,31,124,8
2,42,124,178
2,42,111,15
2,43,124,43
2,43,113,14
2,38,124,50
2,38,120,15
2,33,124,34
2,33,124,12
2,33,124,9
2,43,124,172
2,43,109,15
2,45,124,45
2,45,54,28
2,45,109,17
2,47,124,57
2,47,124,10
2,33,124,33
2,33,123,13
2,33,124,11
2,43,124,178
2,43,124,12
2,45,124,45
2,45,109,12
2,47,124,48
2,47,124,8
2,31,124,65
2,31,124,13
2,42,124,186
2,42,109,12
2,43,124,40
2,43,117,13
2,38,124,54
2,38,121,13
2,31,99,5
2,31,124,13
2,31,124,10
2,42,124,186
2,42,104,13
2,43,124,45
2,43,103,14
2,38,124,57
2,38,112,18
2,33,124,46
2,33,117,13
2,33,124,12
2,43,124,181
2,43,110,18
2,45,120,46
2,45,98,18
2,47,124,50
2,47,124,14
2,33,117,3
2,33,111,13
2,33,124,13
2,43,124,180
2,43,121,15
2,45,124,42
2,45,104,15
2,47,124,57
2,47,124,10
2,31,124,55
2,31,106,13
2,31,124,19
2,42,124,177
2,42,109,14
2,43,124,59
2,43,104,10
2,38,124,57
2,38,118,11
2,40,124,51
2,28,68,87
2,40,124,16
2,40,124,2
2,28,124,13
2,40,124,22
2,28,121,13
2,33,124,27
2,33,124,9
2,33,124,16
2,43,124,158
2,43,124,15
2,45,124,42
2,47,124,51
2,47,124,14
2,33,124,9
2,33,124,10
2,33,124,19
2,43,124,179
2,43,121,14
2,45,124,43
2,45,54,29
2,45,106,15
2,47,124,54
2,47,124,10
2,46,59,2
2,31,124,0
2,31,124,9
2,42,124,193
2,42,122,17
2,42,74,1
2,43,124,45
2,43,122,12
2,38,124,48
2,38,124,16
2,30,124,56
2,31,97,13
2,31,124,14
2,42,124,184
2,42,117,12
2,43,124,43
2,43,110,13
2,38,124,54
2,38,124,17
2,33,124,14
2,33,124,10
2,33,124,10
2,43,124,178
2,43,115,15
2,45,124,43
2,45,113,14
2,47,124,50
2,47,124,11
2,33,124,6
2,33,124,12
2,33,124,13
2,43,124,189
2,43,124,15
2,43,76,3
2,45,124,38
2,45,114,16
2,47,124,44
2,47,124,11
2,31,124,42
2,31,124,8
2,42,124,184
2,42,124,10
2,43,124,46
2,43,124,13
2,38,124,51
2,38,124,13
2,31,124,51
2,31,124,5
2,31,124,13
2,42,124,190
2,42,117,14
2,43,121,44
2,43,124,16
2,38,124,59
2,38,124,14
2,33,124,16
2,33,124,9
2,33,124,11
2,43,124,185
2,43,124,15
2,45,124,41
2,45,118,17
2,47,124,59
2,47,124,17
2,33,124,2
2,33,124,15
2,33,124,14
2,43,121,182
2,43,115,16
2,45,124,45
2,45,102,13
2,45,59,15
2,47,124,53
2,47,124,16
2,31,103,53
2,31,124,15
2,42,124,169
2,42,60,11
2,43,124,55
2,43,106,14
2,38,124,58
2,38,114,16
2,31,124,48
2,31,124,5
2,31,124,11
2,42,124,187
2,42,113,12
2,43,124,46
2,43,113,15
2,38,124,39
2,38,124,18
2,33,124,42
2,33,124,13
2,33,124,9
2,43,124,172
2,43,124,13
2,45,124,42
2,45,113,14
2,47,124,49
2,47,124,12
2,33,124,10
2,33,124,13
2,33,124,11
2,43,124,169
2,43,112,12
2,45,124,41
2,45,106,15
2,47,124,55
2,47,124,12
2,35,124,55
2,35,124,11
2,35,124,14
2,35,124,181
2,35,121,12
2,36,124,60
2,36,124,10
2,38,124,55
2,38,124,14
2,40,124,37
2,28,124,92
2,40,124,14
2,28,124,102
2,40,124,19
2,28,124,16
2,40,124,19
2,28,124,7
2,33,124,25
2,43,124,126
2,43,124,16
2,45,124,47
2,45,54,32
2,45,116,14
2,47,124,51
2,47,124,10
2,33,124,46
2,33,124,8
2,33,124,13
2,43,124,178
2,43,124,15
2,45,124,42
2,45,54,26
2,45,121,1
2,47,124,56
2,47,124,13
2,31,124,36
2,31,124,10
2,31,124,13
2,42,124,168
2,42,124,14
2,41,62,1
2,43,124,39
2,43,124,17
2,38,124,53
2,38,124,14
2,31,124,53
2,31,124,13
2,31,124,11
2,42,124,179
2,42,122,17
2,43,124,39
2,43,120,12
2,38,124,58
2,38,124,16
2,33,124,43
2,33,124,12
2,33,120,16
2,43,124,181
2,43,124,15
2,45,124,40
2,45,124,17
2,47,124,45
2,47,124,10
2,33,124,7
2,33,124,13
2,33,124,13
2,43,124,170
2,43,124,14
2,45,124,47
2,45,124,14
2,47,124,51
2,47,124,11
2,31,124,54
2,31,124,11
2,31,124,10
2,42,124,176
2,42,124,15
2,43,124,43
2,43,110,16
2,38,124,57
2,38,124,16
2,31,124,22
2,31,124,12
2,31,124,6
2,42,124,171
2,42,120,14
2,43,124,42
2,43,124,10
2,38,124,63
2,38,124,13
2,33,124,22
2,33,124,12
2,33,121,23
2,43,124,185
2,43,110,13
2,45,124,42
2,45,55,29
2,45,114,13
2,47,124,57
2,47,124,13
2,33,124,28
2,33,124,13
2,33,124,13
2,43,124,172
2,43,124,12
2,45,124,36
2,45,124,14
2,47,124,52
2,47,124,12
2,31,124,54
2,31,124,16
2,31,124,16
2,42,124,177
2,42,116,12
2,43,124,57
2,43,122,10
2,38,124,58
2,38,124,14
2,31,124,27
2,31,124,12
2,31,124,11
2,42,124,179
2,42,121,16
2,42,64,2
2,43,124,39
2,43,121,12
2,38,124,46
2,38,124,12
2,33,124,6
2,33,124,14
2,33,124,12
2,43,124,181
2,43,124,14
2,45,124,43
2,45,55,31
2,45,113,13
2,47,124,52
2,47,124,13
2,33,124,4
2,33,124,13
2,33,124,20
2,43,124,175
2,43,124,14
2,45,124,40
2,45,119,12
2,47,124,49
2,47,124,11
2,35,116,59
2,35,118,15
2,35,124,15
2,35,124,185
2,35,124,11
2,36,124,62
2,36,124,11
2,38,124,62
2,38,124,12
2,40,73,6
2,40,124,24
2,28,124,100
2,40,124,17
2,28,124,16
2,40,124,19
2,28,124,18
2,40,124,19
2,33,113,26
2,43,124,52
2,43,122,12
2,45,124,38
2,45,118,9
2,47,124,43
2,47,124,11
2,33,117,4
2,33,124,13
2,33,124,13
2,43,124,157
2,43,124,15
2,45,124,13
2,45,124,11
2,47,124,55
2,47,124,11
2,31,124,54
2,31,124,8
2,31,118,18
2,42,124,168
2,42,124,10
2,43,124,48
2,43,124,17
2,38,124,58
2,38,124,17
2,31,124,35
2,31,124,9
2,31,108,20
2,42,124,173
2,42,117,9
2,43,124,42
2,43,124,12
2,38,124,50
2,38,124,13
2,33,124,21
2,33,124,11
2,33,124,15
2,43,124,156
2,43,124,13
2,45,124,40
2,45,123,12
2,47,124,56
2,47,124,11
2,33,124,1
2,33,124,12
2,33,124,13
2,43,124,153
2,43,124,10
2,45,124,40
2,45,124,11
2,47,124,46
2,47,124,11
2,31,124,56
2,31,124,13
2,31,124,11
2,42,124,176
2,42,124,13
2,43,124,40
2,43,124,12
2,38,124,57
2,38,124,12
2,31,124,61
2,31,124,14
2,31,124,14
2,42,124,185
2,42,124,13
2,43,124,40
2,43,124,10
2,38,124,56
2,38,124,17
2,33,124,13
2,33,124,9
2,33,123,18
2,43,124,148
2,43,124,14
2,45,124,12
2,45,124,10
2,47,124,54
2,47,124,12
2,33,124,40
2,33,124,13
2,33,118,21
2,43,124,153
2,43,124,12
2,45,124,44
2,45,124,12
2,45,52,32
2,47,124,29
2,47,124,13
2,31,124,57
2,31,124,13
2,42,124,176
2,42,124,12
2,43,124,48
2,43,124,12
2,38,124,57
2,38,124,13
2,31,124,14
2,31,124,12
2,31,124,13
2,42,124,169
2,42,124,11
2,43,124,19
2,43,124,12
2,38,124,56
2,38,124,13
2,33,124,34
2,33,124,20
2,43,124,188
2,43,124,12
2,45,124,52
2,45,124,12
2,47,124,59
2,47,124,10
2,33,124,43
2,33,124,12
2,33,124,12
2,43,124,177
2,43,124,13
2,45,121,36
2,45,124,13
2,47,124,47
2,47,70,10
2,35,124,57
2,35,124,14
2,35,124,198
2,35,124,13
2,36,124,36
2,36,124,11
2,38,124,59
2,38,124,15
2,38,62,7
2,40,124,56
2,28,124,94
2,40,124,17
2,28,124,12
2,40,124,5
2,40,124,17
2,28,124,8
2,33,124,28
2,43,124,45
2,43,124,13
2,45,124,30
2,45,121,12
2,47,124,49
2,47,124,12
2,33,124,94
2,33,124,9
2,33,124,17
2,33,54,13
2,43,124,131
2,43,124,14
2,45,124,35
2,45,121,52
2,47,124,42
2,47,124,12
2,31,124,54
2,31,124,12
2,31,124,14
2,42,124,173
2,42,122,12
2,42,78,2
2,43,124,38
2,43,124,10
2,38,124,61
2,38,124,15
2,31,124,38
2,31,124,13
2,42,124,182
2,42,124,11
2,43,124,35
2,43,124,10
2,38,124,57
2,38,124,13
2,33,124,20
2,33,124,13
2,33,119,18
2,43,124,169
2,43,124,13
2,43,74,2
2,45,124,25
2,45,124,9
2,47,124,47
2,47,124,10
2,33,124,10
2,33,124,13
2,33,119,18
2,43,124,169
2,43,124,13
2,43,74,2
2,45,124,25
2,45,124,9
2,47,124,47
2,47,124,10
2,31,124,1
2,31,124,9
2,31,120,18
2,42,124,175
2,42,124,11
2,43,124,47
2,43,124,16
2,38,124,46
2,38,124,16
2,31,124,62
2,31,124,14
2,31,124,16
2,42,124,184
2,42,124,14
2,43,124,42
2,43,124,12
2,38,124,53
2,38,124,16
2,33,124,21
2,33,124,14
2,33,122,22
2,43,124,174
2,43,124,16
2,45,124,39
2,45,109,51
2,47,124,40
2,47,124,12
2,33,124,2
2,33,124,18
2,33,121,18
2,43,124,163
2,43,124,15
2,45,124,30
2,45,122,13
2,47,124,50
2,47,124,10
2,31,124,55
2,31,124,12
2,42,124,190
2,42,124,12
2,43,124,35
2,43,124,13
2,38,124,55
2,38,124,17
2,31,124,49
2,31,124,11
2,31,123,17
2,42,124,183
2,42,122,13
2,43,124,36
2,43,124,14
2,38,124,56
2,38,124,16
2,33,124,36
2,33,124,12
2,33,124,22
2,43,124,184
2,43,124,14
2,45,124,44
2,45,53,23
2,45,56,2
2,45,53,5
2,45,124,3
2,45,57,20
2,47,124,57
2,47,124,14
2,33,124,6
2,33,124,9
2,33,124,11
2,43,124,176
2,43,124,13
2,45,124,41
2,45,124,13
2,47,124,47
2,47,124,13
2,35,124,55
2,35,124,13
2,35,124,13
2,35,124,187
2,35,124,14
2,36,124,56
2,36,124,6
2,38,124,52
2,38,124,12
2,40,124,47
2,28,124,104
2,40,124,21
2,28,124,17
2,40,124,19
2,28,124,17
2,40,124,22
2,28,124,11
2,33,117,12
3,67,113,63887
3,67,113,24
3,69,113,55
3,69,113,20
3,71,113,54
3,76,113,0
3,71,113,19
3,76,113,0
3,66,113,272
3,66,113,22
3,67,113,8
3,67,113,24
3,62,113,9
3,74,113,0
3,62,113,26
3,74,113,0
3,67,113,356
3,67,113,24
3,69,113,46
3,69,113,16
3,71,113,50
3,76,113,0
3,71,113,16
3,76,113,0
3,66,113,336
3,66,113,22
3,67,113,34
3,67,113,26
3,62,113,28
3,74,113,0
3,62,113,17
3,74,113,0
4,69,107,14379
4,69,127,21
4,76,127,1
4,76,127,21
4,69,127,950
4,74,127,16
4,76,127,29
4,74,127,49
4,74,127,22
4,71,127,4
4,69,127,1288
4,69,127,22
4,76,127,4
4,76,127,17
4,69,127,971
4,74,127,10
4,76,127,19
4,74,127,2
4,74,127,17
4,71,127,7
4,78,127,1123
4,78,127,23
4,78,127,21
4,78,127,28
4,79,127,17
4,76,127,11
4,78,127,1059
4,78,127,21
4,78,127,24
4,78,127,25
4,79,127,20
4,74,127,16
4,78,127,1053
4,78,127,21
4,78,127,26
4,78,127,30
4,79,127,26
4,76,127,9
4,78,127,918
4,78,127,50
4,78,106,18
4,78,127,16
4,79,127,9
4,74,127,9
4,74,127,460
4,76,127,22
4,69,127,385
4,69,127,21
4,76,127,5
4,76,127,27
4,69,127,938
4,76,127,15
4,74,127,9
4,74,127,21
4,71,127,7
4,71,127,1271
4,69,127,45
4,76,127,16
4,76,127,22
4,69,127,945
4,74,127,18
4,76,127,24
4,74,127,3
4,74,127,22
4,71,127,5
4,78,127,1117
4,78,127,25
4,78,127,22
4,78,127,31
4,79,127,18
4,76,127,17
4,78,127,990
4,78,127,20
4,78,127,18
4,78,127,29
4,79,127,26
4,74,127,17
4,78,127,1058
4,78,127,22
4,78,127,58
4,79,118,11
4,76,127,5
4,78,127,1043
4,78,127,23
4,78,127,20
4,78,127,25
4,79,127,32
4,74,127,5
4,74,127,300
4,76,127,6
4,74,127,159
4,76,127,14
4,74,127,2
4,72,127,13
4,71,127,7
4,69,127,12
4,76,127,1
4,76,127,23
4,69,127,915
4,76,127,22
4,74,127,0
4,74,127,24
4,71,127,4
4,71,127,1111
4,69,127,0
4,69,127,23
4,76,127,3
4,76,127,19
4,76,127,736
4,76,127,23
4,76,127,21
4,76,127,21
4,74,127,13
4,74,127,21
4,71,127,4
4,78,127,974
4,78,127,24
4,78,127,30
4,78,127,39
4,79,127,27
4,76,127,12
4,78,127,881
4,78,127,24
4,78,127,33
4,78,127,19
4,79,127,15
4,74,127,12
4,78,127,945
4,78,127,25
4,78,127,31
4,78,127,29
4,79,127,16
4,76,127,7
4,78,127,1041
4,78,127,23
4,78,127,19
4,78,127,27
4,79,127,13
4,74,127,8
4,76,127,410
4,74,127,50
4,76,127,13
4,74,127,17
4,76,127,21
4,72,127,284
4,69,127,6
4,76,127,6
4,76,127,961
4,76,127,22
4,74,127,12
4,74,127,25
4,71,127,12
4,71,127,22
4,72,127,1163
4,69,127,55
4,76,127,2
4,76,127,901
4,76,127,23
4,74,127,13
4,74,127,32
4,71,127,6
4,71,127,20
4,78,127,1093
4,78,127,44
4,79,127,8
4,81,127,4
4,79,127,9
4,78,127,923
4,79,127,0
4,81,127,15
4,79,127,46
4,83,127,21
4,83,127,18
4,78,127,1062
4,78,127,45
4,79,127,5
4,81,127,12
4,79,127,5
4,78,127,992
4,79,124,5
4,81,127,6
4,79,127,53
4,81,127,23
4,83,127,21
4,81,127,19
4,83,127,19
4,74,127,393
4,76,127,51
4,74,127,166
4,76,127,23
4,74,127,11
4,72,127,18
4,71,127,34
4,69,127,30
4,79,127,2
4,79,127,22
4,79,127,883
4,79,127,24
4,78,127,17
4,78,127,30
4,74,127,0
4,71,127,921
4,69,127,17
4,69,127,27
4,79,127,10
4,79,127,21
4,79,127,909
4,79,127,22
4,79,127,22
4,79,127,17
4,78,127,19
4,78,127,22
4,74,127,5
5,45,74,14414
5,45,74,8
5,45,74,16
5,55,74,191
5,55,65,12
5,57,74,55
5,57,69,15
5,59,74,63
5,59,74,16
5,45,74,49
5,45,74,14
5,45,74,17
5,55,74,182
5,55,74,16
5,55,42,2
5,57,74,41
5,57,74,11
5,59,74,53
5,59,74,16
5,43,74,50
5,43,74,23
5,43,74,16
5,54,74,183
5,54,74,16
5,55,74,49
5,55,74,9
5,50,74,56
5,50,74,16
5,43,74,54
5,43,74,15
5,43,74,19
5,54,74,182
