track,note,velocity,time
1,67,100,24000
1,67,100,4
1,67,100,4
1,77,100,4
1,77,100,4
1,77,100,4
1,77,100,4
1,76,100,4
1,72,100,4
1,72,100,4
1,72,100,4
1,71,100,4
1,67,100,4
1,77,100,772
1,77,100,4
1,77,100,4
1,77,100,4
1,77,100,4
1,76,100,4
1,72,100,4
1,72,100,4
1,72,100,4
1,72,100,4
1,74,100,4
1,77,100,580
1,77,100,4
1,77,100,4
1,77,100,4
1,77,100,4
1,76,100,4
1,72,100,4
1,72,100,4
1,72,100,4
1,71,100,4
1,67,100,4
1,77,100,388
1,77,100,4
1,77,100,4
1,77,100,4
1,77,100,4
1,77,100,4
1,76,100,4
1,72,100,4
1,72,100,4
1,74,100,4
1,77,100,1156
1,77,100,4
1,77,100,4
1,77,100,4
1,77,100,4
1,77,100,4
1,77,100,4
1,76,100,4
1,72,100,4
1,71,100,4
1,67,100,4
1,77,100,964
1,77,100,4
1,77,100,4
1,76,100,4
1,72,100,4
1,72,100,4
1,74,100,4
1,71,100,1156
1,72,100,4
1,71,100,4
1,72,100,4
1,71,100,4
1,72,100,4
1,71,100,4
1,72,100,4
1,71,100,4
1,72,100,4
1,71,100,4
1,72,100,4
1,71,100,4
1,72,100,4
1,71,100,4
1,72,100,4
1,71,100,4
1,67,100,2500
1,67,100,4
1,67,100,4
1,77,100,4
1,77,100,4
1,76,100,4
1,72,100,4
1,72,100,4
1,72,100,4
1,72,100,4
1,71,100,4
1,67,100,4
1,67,100,4
1,67,100,4
1,67,100,4
1,67,100,4
1,67,100,4
1,77,100,196
1,77,100,4
1,77,100,4
1,77,100,4
1,77,100,4
1,76,100,4
1,72,100,4
1,72,100,4
1,72,100,4
1,72,100,4
1,74,100,4
1,77,100,388
1,77,100,4
1,77,100,4
1,77,100,4
1,77,100,4
1,76,100,4
1,72,100,4
1,72,100,4
1,71,100,4
1,67,100,4
1,67,100,4
1,67,100,4
1,77,100,196
1,77,100,4
1,77,100,4
1,77,100,4
1,77,100,4
1,77,100,4
1,77,100,4
1,76,100,4
1,72,100,4
1,72,100,4
1,72,100,4
1,74,100,196
1,74,100,4
1,74,100,4
1,77,100,388
1,77,100,4
1,77,100,4
1,76,100,4
1,72,100,4
1,72,100,4
1,71,100,4
1,67,100,4
1,67,100,4
1,67,100,4
1,67,100,4
1,67,100,4
1,77,100,196
1,77,100,4
1,77,100,4
1,77,100,4
1,77,100,4
1,76,100,4
1,72,100,4
1,72,100,4
1,72,100,4
1,72,100,4
1,72,100,4
1,72,100,4
1,72,100,4
1,74,100,4
1,65,100,388
1,77,100,4
1,77,100,4
1,77,100,4
1,77,100,4
1,76,100,4
1,72,100,4
1,72,100,4
1,71,100,4
1,67,100,4
1,67,100,4
1,67,100,4
1,67,100,4
1,67,100,4
1,77,100,388
1,77,100,4
1,77,100,4
1,77,100,4
1,77,100,4
1,76,100,4
1,72,100,4
1,72,100,4
1,72,100,4
1,72,100,4
1,74,100,4
1,77,100,772
1,77,100,4
1,77,100,4
1,77,100,4
1,77,100,4
1,76,100,4
1,72,100,4
1,71,100,4
1,67,100,4
1,67,100,4
1,67,100,4
1,67,100,4
1,67,100,4
1,67,100,4
1,67,100,4
1,77,100,4
1,77,100,4
1,67,100,1540
1,67,100,4
1,67,100,4
1,67,100,96
1,67,100,4
1,69,100,4
1,69,100,4
1,69,100,4
1,69,100,2500
1,72,100,4
1,72,100,4
1,72,100,4
1,72,100,4
1,71,100,4
1,71,100,4
1,71,100,4
1,71,100,4
1,74,100,4
1,74,100,4
1,64,100,1156
1,72,100,4
1,72,100,4
1,72,100,4
1,72,100,4
1,71,100,4
1,71,100,4
1,71,100,4
1,71,100,4
1,74,100,4
1,74,100,4
1,64,100,964
1,72,100,4
1,72,100,4
1,72,100,4
1,72,100,4
1,72,100,4
1,71,100,4
1,71,100,4
1,71,100,4
1,71,100,4
1,74,100,4
1,74,100,4
1,64,100,964
1,72,100,4
1,72,100,4
1,72,100,4
1,72,100,4
1,71,100,4
1,71,100,4
1,71,100,4
1,71,100,4
1,74,100,4
1,76,100,4
1,76,100,388
1,76,100,4
1,76,100,4
1,77,100,4
1,77,100,4
1,77,100,4
1,76,100,4
1,72,100,4
1,72,100,4
1,72,100,4
1,71,100,4
1,67,100,4
1,67,100,4
1,67,100,4
1,67,100,4
1,67,100,4
1,77,100,196
1,77,100,4
1,77,100,4
1,77,100,4
1,77,100,4
1,76,100,4
1,76,100,4
1,76,100,4
1,72,100,4
1,72,100,4
1,72,100,4
1,72,100,4
1,74,100,4
1,67,100,196
1,67,100,4
1,77,100,4
1,77,100,4
1,77,100,4
1,76,100,4
1,72,100,4
1,72,100,4
1,72,100,4
1,71,100,4
1,67,100,4
1,77,100,388
1,77,100,4
1,77,100,4
1,77,100,4
1,77,100,4
1,77,100,4
1,76,100,4
1,72,100,4
1,72,100,4
1,72,100,4
1,72,100,4
1,74,100,4
1,77,100,772
1,77,100,4
1,77,100,4
1,77,100,4
1,77,100,4
1,76,100,4
1,72,100,4
1,72,100,4
1,72,100,4
1,72,100,4
1,74,100,4
1,77,100,388
1,77,100,4
1,77,100,4
1,77,100,4
1,77,100,4
1,77,100,4
1,77,100,4
1,76,100,4
1,72,100,4
1,72,100,4
1,72,100,4
1,71,100,4
1,67,100,4
1,67,100,4
1,67,100,4
1,77,100,196
1,77,100,4
1,77,100,4
1,77,100,4
1,77,100,196
1,76,100,4
1,72,100,4
1,72,100,4
1,72,100,4
1,72,100,4
1,74,100,4
1,67,100,388
1,67,100,4
1,67,100,4
1,77,100,4
1,77,100,4
1,77,100,4
1,77,100,4
1,76,100,4
1,72,100,4
1,72,100,4
1,72,100,4
1,71,100,4
1,67,100,4
1,71,100,772
1,72,100,4
1,71,100,4
1,72,100,4
1,71,100,4
1,72,100,4
1,71,100,4
1,72,100,4
1,71,100,4
1,72,100,4
1,71,100,4
1,72,100,580
1,72,100,4
1,73,100,0
1,73,100,4
1,72,100,196
1,73,100,4
1,73,100,4
1,72,100,196
1,73,100,4
1,73,100,4
1,72,100,196
1,73,100,4
1,73,100,4
1,72,100,196
1,73,100,4
1,73,100,4
1,72,100,196
1,73,100,4
1,73,100,4
1,72,100,4
1,73,100,4
1,73,100,4
1,72,100,196
1,75,100,4
1,75,100,4
1,72,100,196
1,73,100,4
1,73,100,4
1,72,100,196
1,73,100,4
1,73,100,4
1,72,100,4
1,73,100,4
1,73,100,4
1,72,100,196
1,73,100,4
1,73,100,4
1,72,100,196
1,73,100,4
1,73,100,4
1,72,100,4
1,73,100,8
1,72,100,4
1,73,100,4
1,73,100,4
1,72,100,4
1,73,100,4
1,72,100,4
1,67,100,8640
1,67,100,4
1,67,100,4
1,77,100,4
1,77,100,4
1,77,100,4
1,77,100,4
1,76,100,4
1,72,100,4
1,72,100,4
1,72,100,4
1,71,100,4
1,67,100,4
1,77,100,580
1,77,100,4
1,77,100,4
1,77,100,4
1,77,100,4
1,77,100,4
1,77,100,4
1,76,100,4
1,72,100,4
1,72,100,4
1,74,100,4
1,77,100,772
1,77,100,4
1,77,100,4
1,77,100,4
1,77,100,4
1,77,100,4
1,76,100,4
1,72,100,4
1,72,100,4
1,72,100,4
1,71,100,4
1,67,100,4
1,77,100,388
1,77,100,4
1,77,100,4
1,77,100,4
1,77,100,4
1,77,100,4
1,77,100,4
1,76,100,4
1,72,100,4
1,72,100,4
1,74,100,4
1,77,100,580
1,77,100,4
1,77,100,4
1,77,100,4
1,77,100,4
1,77,100,4
1,76,100,4
1,72,100,4
1,72,100,4
1,71,100,4
1,67,100,196
1,67,100,4
1,67,100,4
1,67,100,4
1,67,100,4
1,67,100,4
1,77,100,4
1,77,100,4
1,77,100,4
1,77,100,4
1,76,100,4
1,72,100,4
1,72,100,4
1,74,100,4
1,77,100,772
1,77,100,4
1,77,100,4
1,76,100,4
1,77,100,4
1,76,100,4
1,72,100,4
1,72,100,4
1,72,100,4
1,71,100,4
1,67,100,4
1,67,100,388
1,67,100,4
1,67,100,4
1,77,100,4
1,77,100,4
1,77,100,4
1,77,100,4
1,76,100,4
1,72,100,4
1,72,100,4
1,74,100,4
1,79,100,964
1,77,100,1540
1,79,100,4
1,81,100,4
1,79,100,4
1,77,100,4
1,79,100,4
1,74,100,4
1,79,100,2116
1,77,100,1412
1,79,100,4
1,81,100,4
1,79,100,4
1,77,100,4
1,79,100,4
1,79,100,2500
1,77,100,1540
1,79,100,4
1,81,100,4
1,79,100,4
1,77,100,4
1,79,100,4
1,79,100,4
1,74,100,4
1,74,100,1924
1,77,100,4
1,79,100,4
1,79,100,4
1,79,100,4
1,77,100,4
1,79,100,4
1,74,100,4
1,77,100,4
1,79,100,4
1,79,100,4
1,77,100,4
1,79,100,4
1,79,100,4
1,79,100,4
1,74,100,196
1,77,100,4
1,79,100,4
1,79,100,4
1,79,100,4
1,79,100,4
1,79,100,4
1,77,100,4
1,81,100,4
1,79,100,4
1,77,100,1352
1,74,100,1540
1,76,100,4
1,77,100,4
1,76,100,4
1,74,100,4
1,76,100,4
1,74,100,4
1,77,100,2308
1,77,100,4
1,76,100,580
1,77,100,4
1,77,100,4
1,76,100,4
1,79,100,4
1,77,100,2500
1,74,100,1540
1,76,100,4
1,77,100,4
1,76,100,4
1,74,100,4
1,76,100,4
1,76,100,4
1,74,100,4
1,74,100,1732
1,77,100,4
1,77,100,4
1,77,100,4
1,77,100,4
1,76,100,4
1,77,100,4
1,74,100,4
1,76,100,4
1,77,100,4
1,77,100,4
1,76,100,4
1,77,100,4
1,77,100,4
1,77,100,4
1,74,100,196
1,76,100,4
1,77,100,4
1,77,100,4
1,77,100,4
1,77,100,4
1,77,100,4
1,76,100,4
1,77,100,4
1,76,100,4
1,74,100,4
1,79,100,1348
1,77,100,1540
1,79,100,4
1,81,100,4
1,79,100,4
1,77,100,4
1,79,100,4
1,74,100,4
1,79,100,2308
1,79,100,4
1,79,100,4
1,77,100,4
1,79,100,4
1,81,100,4
1,79,100,4
1,77,100,4
1,79,100,4
1,79,100,2500
1,77,100,1540
1,79,100,4
1,81,100,4
1,79,100,4
1,77,100,4
1,79,100,4
1,79,100,4
1,74,100,4
1,74,100,1924
1,77,100,4
1,79,100,4
1,79,100,4
1,79,100,4
1,77,100,4
1,79,100,4
1,74,100,4
1,77,100,4
1,79,100,4
1,79,100,4
1,79,100,4
1,79,100,4
1,79,100,4
1,79,100,4
1,79,100,4
1,74,100,196
1,77,100,4
1,79,100,4
1,79,100,4
1,79,100,4
1,79,100,4
1,79,100,4
1,77,100,4
1,81,100,4
1,79,100,4
2,57,100,384
2,60,100,0
2,65,100,0
2,57,100,4
2,60,100,0
2,64,100,0
2,55,100,4
2,59,100,0
2,62,100,0
2,55,100,4
2,57,100,0
2,62,100,0
2,57,100,1156
2,60,100,0
2,65,100,0
2,57,100,4
2,60,100,0
2,64,100,0
2,55,100,4
2,59,100,0
2,62,100,0
2,55,100,4
2,57,100,0
2,62,100,0
2,57,100,1156
2,60,100,0
2,65,100,0
2,57,100,4
2,60,100,0
2,64,100,0
2,55,100,4
2,59,100,0
2,62,100,0
2,55,100,4
2,57,100,0
2,62,100,0
2,57,100,1156
2,60,100,0
2,65,100,0
2,57,100,4
2,60,100,0
2,64,100,0
2,55,100,4
2,59,100,0
2,62,100,0
2,55,100,4
2,57,100,0
2,62,100,0
2,57,100,964
2,57,100,52
2,60,100,148
2,60,100,52
2,64,100,4
2,64,100,4
2,67,100,4
2,71,100,4
2,74,100,4
2,78,100,4
2,57,100,4
2,57,100,52
2,60,100,148
2,60,100,52
2,64,100,4
2,64,100,4
2,67,100,4
2,71,100,4
2,74,100,4
2,57,100,196
2,57,100,52
2,60,100,148
2,60,100,52
2,64,100,4
2,64,100,4
2,67,100,4
2,71,100,4
2,74,100,4
2,78,100,4
2,57,100,4
2,57,100,52
2,60,100,148
2,60,100,52
2,64,100,4
2,64,100,4
2,67,100,4
2,71,100,4
2,74,100,4
2,57,100,196
2,57,100,52
2,60,100,148
2,60,100,52
2,64,100,4
2,64,100,4
2,67,100,4
2,71,100,4
2,74,100,4
2,78,100,4
2,57,100,4
2,57,100,52
2,60,100,148
2,60,100,52
2,64,100,4
2,64,100,4
2,67,100,4
2,71,100,4
2,74,100,4
2,57,100,196
2,57,100,52
2,60,100,148
2,60,100,52
2,64,100,4
2,64,100,4
2,67,100,4
2,71,100,4
2,74,100,4
2,78,100,4
2,57,100,4
2,57,100,52
2,60,100,148
2,60,100,52
2,64,100,4
2,64,100,4
2,67,100,4
2,71,100,4
2,74,100,4
2,57,100,388
2,60,100,0
2,65,100,0
2,55,100,196
2,60,100,0
2,64,100,0
2,62,100,580
2,71,100,0
2,67,100,0
2,64,100,4
2,65,100,0
2,69,100,0
2,72,100,0
2,62,100,4
2,67,100,0
2,71,100,0
2,67,100,196
2,73,100,0
2,77,100,0
2,67,100,4
2,74,100,0
2,67,100,4
2,74,100,0
2,77,100,0
2,67,100,4
2,74,100,0
2,77,100,0
2,57,100,388
2,60,100,0
2,65,100,0
2,55,100,196
2,60,100,0
2,64,100,0
2,62,100,580
2,71,100,0
2,67,100,0
2,64,100,4
2,65,100,0
2,69,100,0
2,72,100,0
2,62,100,4
2,67,100,0
2,71,100,0
2,60,100,196
2,65,100,0
2,69,100,0
2,57,100,772
2,60,100,0
2,65,100,0
2,55,100,196
2,60,100,0
2,64,100,0
2,62,100,580
2,71,100,0
2,67,100,0
2,64,100,4
2,65,100,0
2,69,100,0
2,72,100,0
2,62,100,4
2,67,100,0
2,71,100,0
2,67,100,196
2,73,100,0
2,77,100,0
2,67,100,4
2,74,100,0
2,67,100,4
2,74,100,0
2,77,100,0
2,67,100,4
2,74,100,0
2,77,100,0
2,57,100,388
2,60,100,0
2,65,100,0
2,55,100,196
2,60,100,0
2,64,100,0
2,62,100,580
2,71,100,0
2,67,100,0
2,64,100,4
2,65,100,0
2,69,100,0
2,72,100,0
2,62,100,4
2,67,100,0
2,71,100,0
2,60,100,196
2,65,100,0
2,69,100,0
2,57,100,772
2,60,100,0
2,65,100,0
2,55,100,196
2,60,100,0
2,64,100,0
2,62,100,580
2,71,100,0
2,67,100,0
2,64,100,4
2,65,100,0
2,69,100,0
2,72,100,0
2,62,100,4
2,67,100,0
2,71,100,0
2,67,100,196
2,73,100,0
2,77,100,0
2,67,100,4
2,74,100,0
2,67,100,4
2,74,100,0
2,77,100,0
2,67,100,4
2,74,100,0
2,77,100,0
2,57,100,388
2,60,100,0
2,65,100,0
2,55,100,196
2,60,100,0
2,64,100,0
2,62,100,580
2,71,100,0
2,67,100,0
2,64,100,4
2,65,100,0
2,69,100,0
2,72,100,0
2,62,100,4
2,67,100,0
2,71,100,0
2,60,100,196
2,65,100,0
2,69,100,0
2,57,100,580
2,57,100,196
2,60,100,0
2,60,100,4
2,64,100,0
2,67,100,4
2,60,100,0
2,62,100,4
2,71,100,0
2,66,100,4
2,57,100,4
2,57,100,196
2,60,100,0
2,60,100,4
2,64,100,0
2,67,100,4
2,60,100,0
2,62,100,4
2,71,100,0
2,66,100,4
2,57,100,4
2,57,100,196
2,60,100,0
2,60,100,4
2,64,100,0
2,67,100,4
2,60,100,0
2,62,100,4
2,71,100,0
2,66,100,4
2,57,100,4
2,57,100,196
2,60,100,0
2,60,100,4
2,64,100,0
2,67,100,4
2,60,100,0
2,62,100,4
2,71,100,0
2,57,100,388
2,60,100,0
2,65,100,0
2,55,100,196
2,60,100,0
2,64,100,0
2,62,100,580
2,71,100,0
2,67,100,0
2,64,100,4
2,65,100,0
2,69,100,0
2,72,100,0
2,62,100,4
2,67,100,0
2,71,100,0
2,67,100,196
2,73,100,0
2,77,100,0
2,67,100,4
2,74,100,0
2,67,100,4
2,74,100,0
2,77,100,0
2,67,100,4
2,74,100,0
2,77,100,0
2,57,100,388
2,60,100,0
2,65,100,0
2,55,100,196
2,60,100,0
2,64,100,0
2,62,100,580
2,71,100,0
2,67,100,0
2,64,100,4
2,65,100,0
2,69,100,0
