track,note,velocity,time
1,36,100,0
1,36,0,90
1,34,100,30
1,34,0,90
1,36,100,0
1,36,0,30
1,36,100,30
1,36,0,30
1,31,100,0
1,34,100,105
1,31,0,15
1,34,0,45
1,36,100,15
1,36,0,90
1,34,100,30
1,34,0,90
1,36,100,0
1,36,0,30
1,36,100,30
1,36,0,30
1,31,100,0
1,34,100,105
1,31,0,15
1,34,0,45
1,36,100,15
1,36,0,90
1,34,100,30
1,34,0,90
1,36,100,0
1,36,0,30
1,36,100,30
1,36,0,30
1,31,100,0
1,34,100,105
1,31,0,15
1,34,0,45
1,36,100,15
1,36,0,90
1,34,100,30
1,34,0,90
1,36,100,0
1,36,0,30
1,36,100,30
1,36,0,30
1,31,100,0
1,34,100,105
1,31,0,15
1,34,0,45
1,36,100,15
1,36,0,90
1,34,100,30
1,34,0,90
1,36,100,0
1,36,0,30
1,36,100,30
1,36,0,30
1,31,100,0
1,34,100,105
1,31,0,15
1,34,0,45
1,36,100,15
1,36,0,90
1,34,100,30
1,34,0,90
1,36,100,0
1,36,0,30
1,36,100,30
1,36,0,30
1,31,100,0
1,34,100,105
1,31,0,15
1,34,0,45
1,36,100,15
1,36,0,90
1,34,100,30
1,34,0,90
1,36,100,0
1,36,0,30
1,36,100,30
1,36,0,30
1,31,100,0
1,34,100,105
1,31,0,15
1,34,0,45
1,36,100,15
1,36,0,90
1,34,100,30
1,34,0,90
1,36,100,0
1,36,0,30
1,36,100,30
1,36,0,30
1,31,100,0
1,34,100,105
1,31,0,15
1,34,0,45
1,36,100,15
1,36,0,90
1,34,100,30
1,34,0,90
1,36,100,0
1,36,0,30
1,36,100,30
1,36,0,30
1,31,100,0
1,34,100,105
1,31,0,15
1,34,0,45
1,36,100,15
1,36,0,90
1,34,100,30
1,34,0,90
1,36,100,0
1,36,0,30
1,36,100,30
1,36,0,30
1,31,100,0
1,34,100,105
1,31,0,15
1,34,0,45
1,36,100,15
1,36,0,90
1,34,100,30
1,34,0,90
1,36,100,0
1,36,0,30
1,36,100,30
1,36,0,30
1,31,100,0
1,34,100,105
1,31,0,15
1,34,0,45
1,36,100,15
1,36,0,90
1,34,100,30
1,34,0,90
1,36,100,0
1,36,0,30
1,36,100,30
1,36,0,30
1,31,100,0
1,34,100,105
1,31,0,15
1,34,0,45
1,36,100,15
1,36,0,90
1,34,100,30
1,34,0,90
1,36,100,0
1,36,0,30
1,36,100,30
1,36,0,30
1,31,100,0
1,34,100,105
1,31,0,15
1,34,0,45
1,36,100,15
1,36,0,90
1,34,100,30
1,34,0,90
1,36,100,0
1,36,0,30
1,36,100,30
1,36,0,30
1,31,100,0
1,34,100,105
1,31,0,15
1,34,0,45
1,36,100,15
1,36,0,90
1,34,100,30
1,34,0,90
1,36,100,0
1,36,0,30
1,36,100,30
1,36,0,30
1,31,100,0
1,34,100,105
1,31,0,15
1,34,0,45
1,36,100,15
1,36,0,90
1,34,100,30
1,34,0,90
1,36,100,0
1,36,0,30
1,36,100,30
1,36,0,30
1,31,100,0
1,34,100,105
1,31,0,15
1,34,0,45
1,36,100,15
1,36,0,90
1,34,100,30
1,34,0,90
1,36,100,0
1,36,0,30
1,36,100,30
1,36,0,30
1,31,100,0
1,34,100,105
1,31,0,15
1,34,0,45
1,36,100,15
1,36,0,90
1,34,100,30
1,34,0,90
1,36,100,0
1,36,0,30
1,36,100,30
1,36,0,30
1,31,100,0
1,34,100,105
1,31,0,15
1,34,0,45
1,36,100,15
1,36,0,90
1,34,100,30
1,34,0,90
1,36,100,0
1,36,0,30
1,36,100,30
1,36,0,30
1,31,100,0
1,34,100,105
1,31,0,15
1,34,0,45
1,36,100,15
1,36,0,90
1,34,100,30
1,34,0,90
1,36,100,0
1,36,0,30
1,36,100,30
1,36,0,30
1,31,100,0
1,34,100,105
1,31,0,15
1,34,0,45
1,36,100,15
1,36,0,90
1,34,100,30
1,34,0,90
1,36,100,0
1,36,0,30
1,36,100,30
1,36,0,30
1,31,100,0
1,34,100,105
1,31,0,15
1,34,0,45
1,36,100,15
1,36,0,90
1,34,100,30
1,34,0,90
1,36,100,0
1,36,0,30
1,36,100,30
1,36,0,30
1,31,100,0
1,34,100,105
1,31,0,15
1,34,0,45
1,36,100,15
1,36,0,90
1,34,100,30
1,34,0,90
1,36,100,0
1,36,0,30
1,36,100,30
1,36,0,30
1,31,100,0
1,34,100,105
1,31,0,15
1,34,0,45
1,36,100,15
1,36,0,90
1,34,100,30
1,34,0,90
1,36,100,0
1,36,0,30
1,36,100,30
1,36,0,30
1,31,100,0
1,34,100,105
1,31,0,15
1,34,0,45
1,36,100,15
1,36,0,90
1,34,100,30
1,34,0,90
1,36,100,0
1,36,0,30
1,36,100,30
1,36,0,30
1,31,100,0
1,34,100,105
1,31,0,15
1,34,0,45
1,36,100,15
1,36,0,90
1,34,100,30
1,34,0,90
1,36,100,0
1,36,0,30
1,36,100,30
1,36,0,30
1,31,100,0
1,34,100,105
1,31,0,15
1,34,0,45
1,36,100,15
1,36,0,90
1,34,100,30
1,34,0,90
1,36,100,0
1,36,0,30
1,36,100,30
1,36,0,30
1,31,100,0
1,34,100,105
1,31,0,15
1,34,0,45
1,36,100,15
1,36,0,90
1,34,100,30
1,34,0,90
1,36,100,0
1,36,0,30
1,36,100,30
1,36,0,30
1,31,100,0
1,34,100,105
1,31,0,15
1,34,0,45
1,36,100,15
1,36,0,90
1,34,100,30
1,34,0,90
1,36,100,0
1,36,0,30
1,36,100,30
1,36,0,30
1,31,100,0
1,34,100,105
1,31,0,15
1,34,0,45
1,36,100,15
1,36,0,90
1,34,100,30
1,34,0,90
1,36,100,0
1,36,0,30
1,36,100,30
1,36,0,30
1,31,100,0
1,34,100,105
1,31,0,15
1,34,0,45
1,36,100,15
1,36,0,90
1,34,100,30
1,34,0,90
1,36,100,0
1,36,0,30
1,36,100,30
1,36,0,30
1,31,100,0
1,34,100,105
1,31,0,15
1,34,0,45
1,36,100,15
1,36,0,90
1,34,100,30
1,34,0,90
1,36,100,0
1,36,0,30
1,36,100,30
1,36,0,30
1,31,100,0
1,34,100,105
1,31,0,15
1,34,0,45
1,36,100,15
1,36,0,90
1,34,100,30
1,34,0,90
1,36,100,0
1,36,0,30
1,36,100,30
1,36,0,30
1,31,100,0
1,34,100,105
1,31,0,15
1,34,0,45
1,36,100,15
1,36,0,90
1,34,100,30
1,34,0,90
1,36,100,0
1,36,0,30
1,36,100,30
1,36,0,30
1,31,100,0
1,34,100,105
1,31,0,15
1,34,0,45
1,36,100,15
1,36,0,90
1,34,100,30
1,34,0,90
1,36,100,0
1,36,0,30
1,36,100,30
1,36,0,30
1,31,100,0
1,34,100,105
1,31,0,15
1,34,0,45
1,36,100,15
1,36,0,90
1,34,100,30
1,34,0,90
1,36,100,0
1,36,0,30
1,36,100,30
1,36,0,30
1,31,100,0
1,34,100,105
1,31,0,15
1,34,0,45
1,36,100,15
1,36,0,90
1,34,100,30
1,34,0,90
1,36,100,0
1,36,0,30
1,36,100,30
1,36,0,30
1,31,100,0
1,34,100,105
1,31,0,15
1,34,0,45
1,36,100,15
1,36,0,90
1,34,100,30
1,34,0,90
1,36,100,0
1,36,0,30
1,36,100,30
1,36,0,30
1,31,100,0
1,34,100,105
1,31,0,15
1,34,0,45
1,36,100,15
1,36,0,90
1,34,100,30
1,34,0,90
1,36,100,0
1,36,0,30
1,36,100,30
1,36,0,30
1,31,100,0
1,34,100,105
1,31,0,15
1,34,0,45
1,36,100,15
1,36,0,90
1,34,100,30
1,34,0,90
1,36,100,0
1,36,0,30
1,36,100,30
1,36,0,30
1,31,100,0
1,34,100,105
1,31,0,15
1,34,0,45
1,36,100,15
1,36,0,90
1,34,100,30
1,34,0,90
1,36,100,0
1,36,0,30
1,36,100,30
1,36,0,30
1,31,100,0
1,34,100,105
1,31,0,15
1,34,0,45
1,36,100,15
1,36,0,90
1,34,100,30
1,34,0,90
1,36,100,0
1,36,0,30
1,36,100,30
1,36,0,30
1,31,100,0
1,34,100,105
1,31,0,15
1,34,0,45
1,36,100,15
1,36,0,90
1,34,100,30
1,34,0,90
1,36,100,0
1,36,0,30
1,36,100,30
1,36,0,30
1,31,100,0
1,34,100,105
1,31,0,15
1,34,0,45
1,36,100,15
1,36,0,90
1,34,100,30
1,34,0,90
1,36,100,0
1,36,0,30
1,36,100,30
1,36,0,30
1,31,100,0
1,34,100,105
1,31,0,15
1,34,0,45
1,36,100,15
1,36,0,90
1,34,100,30
1,34,0,90
1,36,100,0
1,36,0,30
1,36,100,30
1,36,0,30
1,31,100,0
1,34,100,105
1,31,0,15
1,34,0,45
1,36,100,15
1,36,0,90
1,34,100,30
1,34,0,90
1,36,100,0
1,36,0,30
1,36,100,30
1,36,0,30
1,31,100,0
1,34,100,105
1,31,0,15
1,34,0,45
1,36,100,15
1,36,0,90
1,34,100,30
1,34,0,90
1,36,100,0
1,36,0,30
1,36,100,30
1,36,0,30
1,31,100,0
1,34,100,105
1,31,0,15
1,34,0,45
1,36,100,15
1,36,0,90
1,34,100,30
1,34,0,90
1,36,100,0
1,36,0,30
1,36,100,30
1,36,0,30
1,31,100,0
1,34,100,105
1,31,0,15
1,34,0,45
1,36,100,15
1,36,0,90
1,34,100,30
1,34,0,90
1,36,100,0
1,36,0,30
1,36,100,30
1,36,0,30
1,31,100,0
1,34,100,105
1,31,0,15
1,34,0,45
1,36,100,15
1,36,0,90
1,34,100,30
1,34,0,90
1,36,100,0
1,36,0,30
1,36,100,30
1,36,0,30
1,31,100,0
1,34,100,105
1,31,0,15
1,34,0,45
1,36,100,15
1,36,0,90
1,34,100,30
1,34,0,90
1,36,100,0
1,36,0,30
1,36,100,30
1,36,0,30
1,31,100,0
1,34,100,105
1,31,0,15
1,34,0,45
1,36,100,15
1,36,0,90
1,34,100,30
1,34,0,90
1,36,100,0
1,36,0,30
1,36,100,30
1,36,0,30
1,31,100,0
1,34,100,105
1,31,0,15
1,34,0,45
1,36,100,15
1,36,0,90
1,34,100,30
1,34,0,90
1,36,100,0
1,36,0,30
1,36,100,30
1,36,0,30
1,31,100,0
1,34,100,105
1,31,0,15
1,34,0,45
1,36,100,15
1,36,0,90
1,34,100,30
1,34,0,90
1,36,100,0
1,36,0,30
1,36,100,30
1,36,0,30
1,31,100,0
1,34,100,105
1,31,0,15
1,34,0,45
1,36,100,15
1,36,0,90
1,34,100,30
1,34,0,90
1,36,100,0
1,36,0,30
1,36,100,30
1,36,0,30
1,31,100,0
1,34,100,105
1,31,0,15
1,34,0,45
1,36,100,15
1,36,0,90
1,34,100,30
1,34,0,90
1,36,100,0
1,36,0,30
1,36,100,30
1,36,0,30
1,31,100,0
1,34,100,105
1,31,0,15
1,34,0,45
1,36,100,15
1,36,0,90
1,34,100,30
1,34,0,90
1,36,100,0
1,36,0,30
1,36,100,30
1,36,0,30
1,31,100,0
1,34,100,105
1,31,0,15
1,34,0,45
1,36,100,15
1,36,0,90
1,34,100,30
1,34,0,90
1,36,100,0
1,36,0,30
1,36,100,30
1,36,0,30
1,31,100,0
1,34,100,105
1,31,0,15
1,34,0,45
1,36,100,15
1,36,0,90
1,34,100,30
1,34,0,90
1,36,100,0
1,36,0,30
1,36,100,30
1,36,0,30
1,31,100,0
1,34,100,105
1,31,0,15
1,34,0,45
1,36,100,15
1,36,0,90
1,34,100,30
1,34,0,90
1,36,100,0
1,36,0,30
1,36,100,30
1,36,0,30
1,31,100,0
1,34,100,105
1,31,0,15
1,34,0,45
1,36,100,15
1,36,0,90
1,34,100,30
1,34,0,90
1,36,100,0
1,36,0,30
1,36,100,30
1,36,0,30
1,31,100,0
1,34,100,105
1,31,0,15
1,34,0,45
1,36,100,15
1,36,0,90
1,34,100,30
1,34,0,90
1,36,100,0
1,36,0,30
1,36,100,30
1,36,0,30
1,31,100,0
1,34,100,105
1,31,0,15
1,34,0,45
1,36,100,15
1,36,0,90
1,34,100,30
1,34,0,90
1,36,100,0
1,36,0,30
1,36,100,30
1,36,0,30
1,31,100,0
1,34,100,105
1,31,0,15
1,34,0,45
1,36,100,15
1,36,0,90
1,34,100,30
1,34,0,90
1,36,100,0
1,36,0,30
1,36,100,30
1,36,0,30
1,31,100,0
1,34,100,105
1,31,0,15
1,34,0,45
1,36,100,15
1,36,0,90
1,34,100,30
1,34,0,90
1,36,100,0
1,36,0,30
1,36,100,30
1,36,0,30
1,31,100,0
1,34,100,105
1,31,0,15
1,34,0,45
1,36,100,15
1,36,0,90
1,34,100,30
1,34,0,90
1,36,100,0
1,36,0,30
1,36,100,30
1,36,0,30
1,31,100,0
1,34,100,105
1,31,0,15
1,34,0,45
1,36,100,15
1,36,0,90
1,34,100,30
1,34,0,90
1,36,100,0
1,36,0,30
1,36,100,30
1,36,0,30
1,31,100,0
1,34,100,105
1,31,0,15
1,34,0,45
1,36,100,15
1,36,0,90
1,34,100,30
1,34,0,90
1,36,100,0
1,36,0,30
1,36,100,30
1,36,0,30
1,31,100,0
1,34,100,105
1,31,0,15
1,34,0,45
1,36,100,15
1,36,0,90
1,34,100,30
1,34,0,90
1,36,100,0
1,36,0,30
1,36,100,30
1,36,0,30
1,31,100,0
1,34,100,105
1,31,0,15
1,34,0,45
1,36,100,15
1,36,0,90
1,34,100,30
1,34,0,90
1,36,100,0
1,36,0,30
1,36,100,30
1,36,0,30
1,31,100,0
1,34,100,105
1,31,0,15
1,34,0,45
1,36,100,15
1,36,0,90
1,34,100,30
1,34,0,90
1,36,100,0
1,36,0,30
1,36,100,30
1,36,0,30
1,31,100,0
1,34,100,105
1,31,0,15
1,34,0,45
1,36,100,15
1,36,0,90
1,34,100,30
1,34,0,90
1,36,100,0
1,36,0,30
1,36,100,30
1,36,0,30
1,31,100,0
1,34,100,105
1,31,0,15
1,34,0,45
1,36,100,15
1,36,0,103
1,34,100,15
1,34,0,73
1,36,100,17
1,36,0,59
1,36,100,1
1,36,0,15
1,32,97,15
1,32,0,90
1,34,100,0
1,34,0,70
1,36,100,20
1,36,0,94
1,34,100,26
1,34,0,78
1,36,100,12
1,36,0,60
1,36,100,0
1,36,0,19
1,32,101,11
1,32,0,89
1,34,100,1
1,34,0,65
1,36,100,25
1,36,0,99
1,34,100,21
1,34,0,69
1,36,100,21
1,36,0,60
1,36,100,0
1,36,0,14
1,33,97,16
1,33,0,89
1,34,100,1
1,34,0,69
1,36,100,21
1,36,0,94
1,34,100,26
1,34,0,78
1,36,100,12
1,36,0,59
1,36,100,1
1,36,0,19
1,33,101,11
1,33,0,90
1,34,100,0
1,34,0,65
1,38,106,25
1,38,0,103
1,36,100,17
1,36,0,70
1,38,99,20
1,38,0,59
1,38,97,1
1,38,0,15
1,34,100,15
1,34,0,90
1,36,100,0
1,36,0,70
1,38,114,20
1,38,0,94
1,36,100,26
1,36,0,78
1,38,112,12
1,38,0,60
1,38,103,0
1,38,0,20
1,34,100,10
1,34,0,89
1,36,100,1
1,36,0,64
1,38,106,26
1,38,0,103
1,36,100,17
1,36,0,73
1,38,99,17
1,38,0,60
1,38,97,0
1,38,0,18
1,31,102,12
1,31,0,89
1,36,100,1
1,36,0,68
1,38,114,22
1,38,0,94
1,36,100,26
1,36,0,78
1,38,112,12
1,38,0,60
1,38,103,0
1,38,0,20
1,31,102,10
1,31,0,90
1,36,100,0
1,36,0,59
1,36,100,31
1,36,0,103
1,34,100,17
1,34,0,73
1,36,100,17
1,36,0,59
1,36,100,1
1,36,0,15
1,32,97,15
1,32,0,90
1,34,100,0
1,34,0,68
1,36,100,22
1,36,0,94
1,34,100,26
1,34,0,74
1,36,100,16
1,36,0,59
1,36,100,1
1,36,0,18
1,32,101,12
1,32,0,90
1,34,100,0
1,34,0,63
1,33,106,27
1,33,0,103
1,31,102,17
1,31,0,73
1,33,99,17
1,33,0,58
1,33,97,2
1,33,0,18
1,29,97,12
1,29,0,89
1,31,102,1
1,31,0,69
1,33,114,21
1,33,0,90
1,31,102,30
1,31,0,75
