track,note,velocity,time
1,69,100,27456
1,74,100,4
1,76,100,4
1,77,100,4
1,79,100,4
1,76,100,4
1,69,100,964
1,76,100,4
1,74,100,4
1,74,100,4
1,72,100,4
1,74,100,4
1,69,100,1732
1,76,100,4
1,74,100,4
1,74,100,4
1,72,100,4
1,72,100,4
1,69,100,4
1,69,100,1732
1,76,100,4
1,74,100,4
1,74,100,4
1,72,100,4
1,72,100,4
1,69,100,4
1,69,100,4
1,67,100,4
1,69,100,4
1,67,100,4
1,65,100,4
1,67,100,4420
1,76,100,4
1,74,100,4
1,74,100,4
1,72,100,4
1,72,100,4
1,67,100,4
1,67,100,4
1,67,100,4
1,67,100,4
1,67,100,4
1,67,100,4
1,69,100,4
1,65,100,4
1,62,100,4
1,77,100,3460
1,76,100,4
1,72,100,4
1,69,100,4
1,67,100,4
1,67,100,4
1,67,100,4
1,67,100,4
1,67,100,4
1,67,100,4
1,67,100,4
1,67,100,4
1,67,100,4
1,67,100,4
1,67,100,4
1,67,100,4
1,67,100,4
1,69,100,4
1,69,100,1732
1,77,100,4
1,74,100,4
1,74,100,4
1,72,100,4
1,77,100,4
1,74,100,4
1,65,100,4
1,67,100,4
1,65,100,4
1,67,100,4
1,65,100,4
1,67,100,4
1,69,100,4
1,69,100,4
1,74,100,4
1,76,100,4
1,77,100,4
1,79,100,4
1,76,100,4
1,69,100,196
1,76,100,4
1,74,100,4
1,74,100,4
1,72,100,4
1,74,100,4
1,69,100,1540
1,69,100,4
1,76,100,4
1,74,100,4
1,74,100,4
1,74,100,4
1,72,100,4
1,72,100,4
1,69,100,4
1,69,100,4
1,69,100,1348
1,76,100,4
1,74,100,4
1,74,100,4
1,72,100,4
1,72,100,4
1,69,100,4
1,69,100,4
1,67,100,4
1,69,100,4
1,69,100,4
1,69,100,4
1,67,100,4
1,69,100,4
1,67,100,4
1,65,100,4
1,67,100,2884
1,76,100,4
1,76,100,4
1,76,100,4
1,76,100,580
1,79,100,4
1,79,100,4
1,79,100,4
1,81,100,4
1,77,100,4
1,74,100,4
1,74,100,2308
1,81,100,4
1,79,100,4
1,77,100,4
1,74,100,4
1,81,100,4
1,81,100,4
1,69,100,8644
1,76,100,4
1,74,100,4
1,74,100,4
1,72,100,4
1,74,100,4
1,69,100,1732
1,76,100,4
1,74,100,4
1,74,100,4
1,72,100,4
1,72,100,4
1,69,100,4
1,69,100,1732
1,76,100,4
1,74,100,4
1,74,100,4
1,72,100,4
1,72,100,4
1,69,100,4
1,69,100,4
1,67,100,4
1,69,100,4
1,67,100,4
1,65,100,4
1,67,100,4420
1,76,100,4
1,74,100,4
1,74,100,4
1,72,100,4
1,72,100,4
1,67,100,4
1,67,100,4
1,67,100,4
1,67,100,4
1,67,100,4
1,67,100,4
1,69,100,4
1,65,100,4
1,62,100,4
1,77,100,3460
1,76,100,4
1,72,100,4
1,69,100,4
1,67,100,4
1,67,100,4
1,67,100,4
1,67,100,4
1,67,100,4
1,67,100,4
1,67,100,4
1,67,100,4
1,67,100,4
1,67,100,4
1,67,100,4
1,67,100,4
1,67,100,4
1,69,100,4
1,69,100,1732
1,77,100,4
1,74,100,4
1,74,100,4
1,72,100,4
1,77,100,4
1,74,100,4
1,65,100,4
1,67,100,4
1,65,100,4
1,67,100,4
1,65,100,4
1,67,100,4
1,69,100,4
1,69,100,4
1,74,100,4
1,76,100,4
1,77,100,4
1,79,100,4
1,76,100,4
1,69,100,196
1,76,100,4
1,74,100,4
1,74,100,4
1,72,100,4
1,74,100,4
1,69,100,1540
1,69,100,4
1,76,100,4
1,74,100,4
1,74,100,4
1,74,100,4
1,72,100,4
1,72,100,4
1,69,100,4
1,69,100,4
1,69,100,1348
1,76,100,4
1,74,100,4
1,74,100,4
1,72,100,4
1,72,100,4
1,69,100,4
1,69,100,4
1,67,100,4
1,69,100,4
1,69,100,4
1,69,100,4
1,67,100,4
1,69,100,4
1,67,100,4
1,65,100,4
1,67,100,2884
1,76,100,4
1,76,100,4
1,76,100,4
1,76,100,580
1,79,100,4
1,79,100,4
1,79,100,4
1,81,100,4
1,77,100,4
1,74,100,4
1,74,100,2308
1,81,100,4
1,79,100,4
1,77,100,4
1,74,100,4
1,81,100,4
1,81,100,4
2,69,100,0
2,65,100,0
2,62,100,0
2,60,100,4
2,64,100,0
2,67,100,0
2,69,100,0
2,70,100,4
2,65,100,0
2,62,100,0
2,67,100,4
2,70,100,0
2,62,100,0
2,67,100,4
2,64,100,0
2,60,100,0
2,69,100,4
2,67,100,0
2,64,100,0
2,61,100,0
2,69,100,4
2,65,100,0
2,62,100,0
2,69,100,4
2,70,100,0
2,65,100,0
2,62,100,0
2,69,100,4
2,67,100,0
2,64,100,0
2,60,100,0
2,69,100,4
2,65,100,0
2,62,100,0
2,58,100,4
2,62,100,0
2,65,100,0
2,58,100,4
2,62,100,0
2,65,100,0
2,57,100,8
2,62,100,0
2,65,100,0
2,55,100,4
2,60,100,0
2,64,100,0
2,58,100,4
2,62,100,0
2,57,100,388
2,62,100,0
2,64,100,0
2,69,100,1156
2,65,100,0
2,62,100,0
2,60,100,4
2,64,100,0
2,67,100,0
2,69,100,0
2,70,100,4
2,65,100,0
2,62,100,0
2,67,100,4
2,70,100,0
2,62,100,0
2,67,100,4
2,64,100,0
2,60,100,0
2,69,100,4
2,67,100,0
2,64,100,0
2,61,100,0
2,69,100,4
2,65,100,0
2,62,100,0
2,70,100,4
2,69,100,0
2,65,100,0
2,62,100,0
2,69,100,4
2,67,100,0
2,64,100,0
2,60,100,0
2,69,100,4
2,65,100,0
2,62,100,0
2,58,100,4
2,62,100,0
2,65,100,0
2,58,100,4
2,62,100,0
2,65,100,0
2,57,100,8
2,62,100,0
2,65,100,0
2,55,100,4
2,60,100,0
2,64,100,0
2,58,100,4
2,62,100,0
2,57,100,388
2,62,100,0
2,64,100,0
2,69,100,388
2,65,100,0
2,62,100,0
2,60,100,4
2,64,100,0
2,67,100,0
2,69,100,0
2,70,100,4
2,65,100,0
2,62,100,0
2,65,100,4
2,67,100,0
2,62,100,0
2,67,100,4
2,64,100,0
2,60,100,0
2,69,100,4
2,67,100,0
2,64,100,0
2,61,100,0
2,69,100,4
2,65,100,0
2,62,100,0
2,58,100,4
2,62,100,0
2,65,100,0
2,58,100,4
2,62,100,0
2,65,100,0
2,57,100,8
2,62,100,0
2,65,100,0
2,55,100,4
2,60,100,0
2,64,100,0
2,58,100,4
2,62,100,0
2,55,100,4
2,57,100,4
2,58,100,4
2,60,100,4
2,62,100,4
2,64,100,4
2,65,100,4
2,67,100,4
2,57,100,8
2,62,100,0
2,64,100,0
2,69,100,4
2,65,100,0
2,62,100,0
2,60,100,4
2,64,100,0
2,67,100,0
2,69,100,0
2,70,100,4
2,65,100,0
2,62,100,0
2,67,100,4
2,70,100,0
2,62,100,0
2,67,100,4
2,64,100,0
2,60,100,0
2,69,100,4
2,67,100,0
2,64,100,0
2,61,100,0
2,69,100,4
2,65,100,0
2,62,100,0
2,70,100,4
2,69,100,0
2,65,100,0
2,62,100,0
2,69,100,4
2,67,100,0
2,64,100,0
2,60,100,0
2,69,100,4
2,65,100,0
2,62,100,0
2,58,100,4
2,62,100,0
2,65,100,0
2,58,100,4
2,62,100,0
2,65,100,0
2,57,100,8
2,62,100,0
2,65,100,0
2,55,100,4
2,60,100,0
2,64,100,0
2,58,100,4
2,62,100,0
2,57,100,388
2,62,100,0
2,64,100,0
2,69,100,388
2,65,100,0
2,62,100,0
2,60,100,4
2,64,100,0
2,67,100,0
2,69,100,0
2,70,100,4
2,65,100,0
2,62,100,0
2,65,100,4
2,67,100,0
2,62,100,0
2,67,100,4
2,64,100,0
2,60,100,0
2,69,100,4
2,67,100,0
2,64,100,0
2,61,100,0
2,69,100,4
2,65,100,0
2,62,100,0
2,58,100,4
2,62,100,0
2,65,100,0
2,58,100,4
2,62,100,0
2,65,100,0
2,57,100,8
2,62,100,0
2,65,100,0
2,55,100,4
2,60,100,0
2,64,100,0
2,58,100,4
2,62,100,0
2,57,100,4
2,62,100,0
2,55,100,196
2,60,100,0
2,57,100,8
2,62,100,0
2,55,100,196
2,60,100,0
2,57,100,8
2,62,100,0
2,57,100,4
2,62,100,0
2,57,100,4
2,62,100,0
3,62,100,0
3,60,100,8
3,60,100,8
3,62,100,144
3,57,100,56
3,58,100,4
3,62,100,4
3,62,100,4
3,60,100,4
3,64,100,4
3,69,100,8
3,65,100,4
3,62,100,4
3,57,100,4
3,55,100,4
3,55,100,8
3,67,100,4
3,69,100,4
3,69,100,4
3,64,100,123652
3,65,100,4
3,64,100,4
3,65,100,4
3,64,100,4
3,65,100,4
3,64,100,4
3,65,100,4
3,64,100,4
3,65,100,4
3,64,100,4
3,65,100,4
3,64,100,4
3,65,100,4
3,64,100,196
3,64,100,4
3,65,100,4
3,64,100,4
3,65,100,4
3,64,100,4
3,65,100,4
3,64,100,4
3,65,100,4
3,64,100,4
3,65,100,4
3,64,100,4
3,65,100,4
3,64,100,4
3,65,100,4
3,67,100,196
3,64,100,4
3,64,100,4
3,65,100,4
3,64,100,108
3,62,100,4
3,65,100,0
3,64,100,108
3,67,100,0
3,62,100,4
3,65,100,0
3,69,100,0
4,50,100,31488
4,45,100,4
4,46,100,4
4,50,100,4
4,48,100,4
4,45,100,4
4,50,100,4
4,46,100,4
4,45,100,4
4,50,100,4
4,43,100,4
4,46,100,4
4,45,100,4
4,41,100,4
4,45,100,388
4,50,100,388
4,45,100,4
4,46,100,4
4,50,100,4
4,48,100,4
4,45,100,4
4,50,100,4
4,43,100,4
4,46,100,4
4,45,100,4
4,43,100,4
4,50,100,4612
4,45,100,4
4,46,100,4
4,50,100,4
4,48,100,4
4,45,100,4
4,50,100,4
4,46,100,4
4,45,100,4
4,50,100,4
4,43,100,4
4,46,100,4
4,45,100,4
4,41,100,4
4,45,100,388
4,50,100,388
4,45,100,4
4,46,100,4
4,50,100,4
4,48,100,4
4,45,100,4
4,50,100,4
4,43,100,4
4,46,100,4
4,45,100,4
4,43,100,4
4,50,100,4
4,45,100,8
4,50,100,8
4,45,100,8
4,50,100,8
4,50,100,4
4,50,100,4
5,64,100,31296
5,62,100,4
5,64,100,4
5,62,100,4
5,64,100,4
5,64,100,100
5,62,100,4
5,64,100,4
5,62,100,4
5,64,100,4
5,64,100,100
5,62,100,4
5,64,100,4
5,62,100,4
5,64,100,4
5,64,100,100
5,62,100,4
5,64,100,4
5,62,100,4
5,64,100,4
5,64,100,100
5,62,100,4
5,64,100,4
5,62,100,4
5,64,100,4
5,64,100,100
5,62,100,4
5,64,100,4
5,62,100,4
5,64,100,4
5,64,100,100
5,62,100,4
5,64,100,4
5,62,100,4
5,64,100,4
5,64,100,100
5,62,100,4
5,64,100,4
5,62,100,4
5,64,100,4
5,64,100,100
5,62,100,4
5,64,100,4
5,62,100,4
5,64,100,4
5,64,100,100
5,62,100,4
5,64,100,4
5,62,100,4
5,64,100,4
5,64,100,100
5,62,100,4
5,64,100,4
5,62,100,4
5,64,100,4
5,64,100,100
5,62,100,4
5,64,100,4
5,62,100,4
5,64,100,4
5,64,100,100
5,62,100,4
5,64,100,4
5,62,100,4
5,64,100,4
5,64,100,100
5,62,100,4
5,64,100,4
5,62,100,4
5,64,100,4
5,64,100,100
5,62,100,4
5,64,100,4
5,62,100,4
5,64,100,4
5,64,100,100
5,62,100,4
5,64,100,4
5,62,100,4
5,64,100,4
5,64,100,100
5,62,100,4
5,64,100,4
5,62,100,4
5,64,100,4
5,64,100,100
5,62,100,4
5,64,100,4
5,62,100,4
5,64,100,4
5,64,100,100
5,62,100,4
5,64,100,4
5,62,100,4
5,64,100,4
5,64,100,100
5,62,100,4
5,64,100,4
5,62,100,4
5,64,100,4
5,64,100,100
5,62,100,4
5,64,100,4
5,62,100,4
5,64,100,4
5,64,100,100
5,62,100,4
5,64,100,4
5,62,100,4
5,64,100,4
5,64,100,100
5,62,100,4
5,64,100,4
5,62,100,4
5,64,100,4
5,64,100,100
5,62,100,4
5,64,100,4
5,62,100,4
5,64,100,4
5,64,100,100
5,62,100,4
5,64,100,4
5,62,100,4
5,64,100,4
5,64,100,100
5,62,100,4
5,64,100,4
5,62,100,4
5,64,100,4
5,64,100,100
5,62,100,4
5,64,100,4
5,62,100,4
5,64,100,4
5,64,100,100
5,62,100,4
5,64,100,4
5,62,100,4
5,64,100,4
5,64,100,100
5,62,100,4
5,64,100,4
5,62,100,4
5,64,100,4
5,64,100,100
5,62,100,4
5,64,100,4
5,62,100,4
5,64,100,4
5,64,100,100
5,62,100,4
5,64,100,4
5,62,100,4
5,64,100,4
5,64,100,100
5,62,100,4
5,64,100,4
5,62,100,4
5,64,100,4
5,64,100,100
5,62,100,4
5,64,100,4
5,62,100,4
5,64,100,4
5,64,100,100
5,62,100,4
5,64,100,4
5,62,100,4
5,64,100,4
5,64,100,100
5,62,100,4
5,64,100,4
5,62,100,4
5,64,100,4
5,64,100,100
5,62,100,4
5,64,100,4
5,62,100,4
5,64,100,4
5,64,100,3940
5,64,100,4
5,64,100,4
5,62,100,4
5,64,100,4
5,64,100,100
5,64,100,4
5,64,100,4
5,62,100,4
5,64,100,4
5,64,100,100
5,64,100,4
5,64,100,4
5,62,100,4
5,64,100,4
5,64,100,100
5,64,100,4
5,64,100,4
5,62,100,4
5,64,100,4
5,64,100,100
5,64,100,4
5,64,100,4
5,62,100,4
5,64,100,4
5,64,100,100
5,64,100,4
5,64,100,4
5,62,100,4
5,64,100,4
5,64,100,100
5,64,100,4
5,64,100,4
5,62,100,4
5,64,100,4
5,64,100,100
5,64,100,4
5,64,100,4
5,62,100,4
5,64,100,4
5,64,100,100
5,64,100,4
5,64,100,4
5,62,100,4
5,64,100,4
5,64,100,100
5,64,100,4
5,64,100,4
5,62,100,4
5,64,100,4
5,64,100,100
5,62,100,4
5,64,100,4
5,62,100,4
5,64,100,4
5,64,100,100
5,62,100,4
5,64,100,4
5,62,100,4
5,64,100,4
5,64,100,100
5,62,100,4
5,64,100,4
5,62,100,4
5,64,100,4
5,64,100,100
5,62,100,4
5,64,100,4
5,62,100,4
5,64,100,4
5,64,100,100
5,62,100,4
5,64,100,4
5,62,100,4
5,64,100,4
5,64,100,100
5,62,100,4
5,64,100,4
5,62,100,4
5,64,100,4
5,64,100,100
5,62,100,4
5,64,100,4
5,62,100,4
5,64,100,4
5,64,100,100
5,62,100,4
5,64,100,4
5,62,100,4
5,64,100,4
5,64,100,100
5,62,100,4
5,64,100,4
5,62,100,4
5,64,100,4
5,64,100,100
5,62,100,4
5,64,100,4
5,62,100,4
5,64,100,4
5,64,100,100
5,62,100,4
5,64,100,4
5,62,100,4
5,64,100,4
5,64,100,100
5,62,100,4
5,64,100,4
5,62,100,4
5,64,100,4
5,64,100,100
5,62,100,4
5,64,100,4
5,62,100,4
5,64,100,4
5,64,100,100
5,62,100,4
5,64,100,4
5,62,100,4
5,64,100,4
5,64,100,100
5,62,100,4
5,64,100,4
5,62,100,4
5,64,100,4
5,64,100,100
5,62,100,4
5,64,100,4
5,62,100,4
5,64,100,4
5,64,100,100
5,62,100,4
5,64,100,4
5,62,100,4
5,64,100,4
5,64,100,100
5,62,100,4
5,64,100,4
5,62,100,4
5,64,100,4
5,64,100,3364
5,62,100,4
5,64,100,4
5,64,100,100
5,62,100,4
5,64,100,4
5,62,100,4
5,64,100,4
5,64,100,100
5,62,100,4
5,64,100,4
5,62,100,4
5,64,100,4
5,64,100,100
5,62,100,4
5,64,100,4
5,62,100,4
5,64,100,4
5,64,100,100
5,62,100,4
5,64,100,4
5,62,100,4
5,64,100,4
5,64,100,100
5,62,100,4
5,64,100,4
5,62,100,4
5,64,100,4
5,64,100,100
5,62,100,4
5,64,100,4
5,62,100,4
5,64,100,4
5,64,100,100
5,62,100,4
5,64,100,4
5,62,100,4
5,64,100,4
5,64,100,100
5,62,100,4
5,64,100,4
5,62,100,4
5,64,100,4
5,64,100,100
5,62,100,4
5,64,100,4
5,62,100,4
