track,note,velocity,time
1,33,71,1680
1,45,68,0
1,55,70,0
1,60,77,0
1,64,61,0
1,67,80,0
1,55,67,300
1,64,80,0
1,55,57,9
1,60,82,0
1,67,83,0
1,38,70,233
1,57,67,0
1,60,85,0
1,65,85,0
1,65,93,365
1,60,87,120
1,57,71,40
1,53,81,18
1,43,83,77
1,55,89,0
1,60,81,0
1,62,88,0
1,55,59,93
1,60,71,0
1,62,71,0
1,67,75,0
1,43,30,152
1,55,35,165
1,60,58,0
1,62,68,0
1,67,48,0
1,36,52,13
1,48,49,0
1,55,51,0
1,59,67,0
1,64,61,0
1,67,81,0
1,48,52,178
1,59,47,4
1,45,76,159
1,55,67,0
1,60,82,0
1,64,67,0
1,55,48,73
1,60,60,0
1,64,51,0
1,45,46,22
1,38,60,12
1,57,44,0
1,60,71,0
1,65,68,0
1,57,31,117
1,60,49,0
1,65,31,0
1,50,43,240
1,57,51,230
1,60,66,0
1,65,62,0
1,57,61,230
1,60,73,0
1,65,75,0
1,31,83,142
1,43,82,0
1,55,61,348
1,60,76,0
1,62,78,0
1,55,52,194
1,60,63,0
1,62,59,0
1,55,65,167
1,60,70,0
1,62,70,0
1,36,49,294
1,48,63,0
1,55,46,0
1,59,58,0
1,64,63,0
1,55,30,50
1,59,44,0
1,64,45,0
1,48,41,8
1,55,34,224
1,59,56,0
1,64,45,0
1,33,55,88
1,45,62,0
1,55,67,0
1,60,75,0
1,64,68,0
1,55,56,160
1,60,70,0
1,64,58,0
1,55,51,245
1,60,60,0
1,64,52,0
1,45,43,9
1,55,61,233
1,60,81,0
1,64,62,0
1,45,52,170
1,38,75,175
1,57,53,0
1,60,78,0
1,65,77,0
1,50,48,70
1,57,46,219
1,60,58,0
1,65,52,0
1,50,51,88
1,57,49,217
1,60,54,0
1,65,60,0
1,50,38,13
1,57,72,240
1,60,80,0
1,65,81,0
1,31,63,270
1,43,67,0
1,55,72,0
1,60,81,0
1,62,82,0
1,55,80,197
1,60,86,0
1,62,87,0
1,43,61,19
1,55,56,190
1,60,71,0
1,62,67,0
1,31,56,240
1,55,56,214
1,60,71,0
1,62,71,0
1,43,51,33
1,40,53,203
1,52,63,0
1,55,53,0
1,59,68,0
1,64,61,0
1,55,82,253
1,59,77,0
1,64,72,0
1,40,51,10
1,31,80,193
1,43,80,0
1,55,82,0
1,59,83,0
1,62,88,0
1,43,89,98
1,55,82,192
1,59,88,0
1,62,88,0
1,43,59,43
1,36,89,64
1,48,83,0
1,55,92,0
1,60,101,0
1,64,98,0
1,55,86,124
1,60,87,0
1,64,78,0
1,48,78,2
1,55,72,240
1,60,80,0
1,64,70,0
1,48,53,29
1,55,93,120
1,60,96,0
1,64,91,0
1,36,80,189
1,48,72,0
1,47,83,10
1,57,85,0
1,59,87,0
1,62,88,0
1,66,88,0
1,57,86,154
1,59,82,0
1,62,87,0
1,66,82,0
1,47,63,10
1,40,71,237
1,56,82,0
1,59,89,0
1,64,86,0
1,40,60,38
1,56,83,145
1,59,83,0
1,64,81,0
1,33,83,217
1,45,82,0
1,57,89,0
1,60,94,0
1,64,82,0
1,45,67,62
1,31,81,144
1,43,81,0
1,55,88,0
1,59,88,0
1,62,87,0
1,64,77,0
1,43,48,29
1,41,87,169
1,53,82,0
1,57,92,0
1,60,91,0
1,53,83,184
1,57,86,0
1,60,88,0
1,41,59,23
1,36,83,193
1,48,81,0
1,55,81,0
1,60,88,0
1,64,78,0
1,48,77,92
1,55,92,80
1,60,92,0
1,64,92,0
1,55,91,39
1,60,89,0
1,65,89,0
1,31,93,189
1,43,91,0
1,55,92,0
1,59,98,0
1,62,88,0
1,36,88,94
1,48,76,0
1,55,92,0
1,60,92,0
1,64,83,0
1,55,89,84
1,60,93,0
1,64,78,0
1,48,67,119
1,55,75,149
1,60,85,0
1,64,77,0
1,36,77,124
1,55,89,207
1,60,92,0
1,64,80,0
1,48,62,103
1,35,68,204
1,47,75,0
1,57,82,0
1,59,82,0
1,62,86,0
1,66,88,0
1,57,83,182
1,59,82,0
1,62,82,0
1,66,89,0
1,47,54,0
1,40,63,134
1,56,73,0
1,59,81,0
1,64,78,0
1,40,66,42
1,56,70,163
1,59,80,0
1,64,77,0
1,40,39,120
1,45,91,84
1,57,82,0
1,60,94,0
1,64,80,0
1,69,89,0
1,45,71,60
1,43,82,45
1,57,82,0
1,60,89,0
1,64,78,0
1,69,87,0
1,43,57,48
1,41,82,10
1,57,80,0
1,60,85,0
1,64,81,0
1,69,86,0
1,57,67,135
1,60,65,0
1,64,68,0
1,69,67,0
1,41,40,203
1,36,60,210
1,48,59,0
1,55,49,0
1,64,56,0
1,55,61,155
1,60,72,0
1,64,66,0
1,48,53,138
1,36,51,10
1,57,50,0
1,62,59,0
1,65,72,0
1,48,53,240
1,57,62,163
1,62,71,0
1,65,71,0
1,48,58,4
1,36,59,42
1,48,38,0
1,59,67,0
1,64,72,0
1,67,82,0
1,48,44,2
1,59,71,203
1,64,78,0
1,67,82,0
1,36,66,187
1,36,68,33
1,48,53,0
1,57,73,0
1,62,76,0
1,65,82,0
1,48,55,29
1,57,73,214
1,62,78,0
1,65,82,0
1,48,56,172
1,36,53,149
1,48,52,0
1,55,56,0
1,59,72,0
1,64,57,0
1,48,56,52
1,55,82,227
1,59,83,0
1,64,80,0
1,48,61,178
1,36,65,52
1,53,49,0
1,57,68,0
1,62,75,0
1,48,60,14
1,53,68,212
1,57,77,0
1,62,88,0
1,36,67,132
1,31,51,189
1,43,55,0
1,53,67,0
1,60,81,0
1,62,72,0
1,53,60,177
1,60,73,0
1,62,67,0
1,43,45,155
1,53,44,180
1,60,52,0
1,62,51,0
1,43,58,219
1,53,59,207
1,60,73,0
1,62,71,0
1,43,52,192
1,31,50,195
1,53,41,0
1,59,49,0
1,62,54,0
1,43,48,38
1,53,45,182
1,59,52,0
1,62,57,0
1,43,47,3
1,31,47,23
1,33,70,160
1,45,73,0
1,55,68,0
1,60,78,0
1,64,73,0
1,55,60,99
1,60,75,0
1,64,67,0
1,45,52,108
1,55,68,212
1,60,81,0
1,64,67,0
1,45,56,177
1,55,62,209
1,60,76,0
1,64,67,0
1,45,50,3
1,38,72,184
1,57,49,0
1,60,81,0
1,65,63,0
1,50,52,39
1,57,65,198
1,60,83,0
1,65,81,0
1,50,56,134
1,57,48,195
1,60,60,0
1,65,56,0
1,50,57,150
1,57,77,212
1,60,80,0
1,65,81,0
1,38,70,0
1,31,72,188
1,43,66,0
1,55,65,0
1,60,72,0
1,62,77,0
1,67,77,0
1,55,68,167
1,60,71,0
1,62,72,0
1,67,80,0
1,43,53,165
1,55,52,218
1,60,76,0
1,62,80,0
1,67,71,0
1,43,52,185
1,55,66,200
1,60,80,0
1,62,78,0
1,67,78,0
1,43,67,5
1,40,76,90
1,55,78,0
1,59,78,0
1,64,72,0
1,40,49,73
1,55,78,205
1,59,78,0
1,64,72,0
1,40,48,2
1,55,47,232
1,59,50,0
1,64,51,0
1,55,47,42
1,59,57,0
1,64,56,0
1,55,75,58
1,59,77,0
1,64,68,0
1,55,68,55
1,59,70,0
1,64,61,0
1,40,68,59
1,55,83,0
1,59,86,0
1,64,78,0
1,40,56,9
1,55,65,120
1,59,68,0
1,64,63,0
1,40,47,72
1,29,81,30
1,41,81,0
1,57,88,0
1,60,91,0
1,65,91,0
1,57,104,64
1,60,98,0
1,65,89,0
1,41,80,14
1,57,87,175
1,60,89,0
1,65,92,0
1,29,75,227
1,41,62,0
1,57,83,0
1,60,89,0
1,65,91,0
1,40,73,194
1,52,68,0
1,38,89,182
1,50,89,0
1,57,93,0
1,60,91,0
1,65,91,0
1,57,85,113
1,60,88,0
1,65,83,0
1,50,59,127
1,57,88,188
1,60,92,0
1,65,91,0
1,50,73,127
1,57,91,197
1,60,92,0
1,65,91,0
1,38,73,5
1,31,72,195
1,43,67,0
1,55,63,0
1,60,71,0
1,62,67,0
1,67,72,0
1,43,53,30
1,55,43,0
1,60,60,0
1,62,56,0
1,67,49,0
1,43,53,47
1,55,61,0
1,60,67,0
1,62,72,0
1,67,61,0
1,31,66,43
1,55,61,0
1,60,75,0
1,62,77,0
1,67,57,0
1,43,39,20
1,31,52,42
1,55,60,0
1,60,65,0
1,62,67,0
1,67,54,0
1,43,47,52
1,55,41,0
1,60,53,0
1,62,52,0
1,67,38,0
1,31,55,53
1,43,50,0
1,55,48,0
1,60,61,0
1,62,65,0
1,67,56,0
1,31,65,53
1,43,59,0
1,55,48,0
1,60,59,0
1,62,62,0
1,67,52,0
1,31,78,64
1,43,73,0
1,55,71,0
1,60,72,0
1,62,72,0
1,67,78,0
1,31,75,69
1,43,70,0
1,55,60,0
1,60,63,0
1,62,67,0
1,67,75,0
1,31,76,72
1,43,65,0
1,55,65,0
1,60,67,0
1,62,66,0
1,67,78,0
1,31,75,74
1,43,66,0
1,55,68,0
1,60,71,0
1,62,68,0
1,67,77,0
1,31,81,73
1,43,77,0
1,55,82,0
1,60,85,0
1,62,83,0
1,67,83,0
1,31,78,77
1,43,81,0
1,55,80,0
1,60,85,0
1,62,82,0
1,67,82,0
1,31,85,82
1,43,89,0
1,55,83,0
1,60,85,0
1,62,86,0
1,67,83,0
1,31,80,83
1,43,82,0
1,55,88,0
1,60,88,0
1,62,87,0
1,67,85,0
1,31,81,87
1,43,91,0
1,55,91,0
1,60,88,0
1,62,88,0
1,67,82,0
1,31,82,85
1,43,87,0
1,55,89,0
1,60,85,0
1,62,85,0
1,67,83,0
1,31,80,82
1,43,83,0
1,55,89,0
1,60,92,0
1,62,91,0
1,67,86,0
1,31,80,83
1,43,83,0
1,55,85,0
1,60,85,0
1,62,86,0
1,67,83,0
1,31,92,79
1,43,101,0
1,55,112,0
1,60,107,0
1,62,109,0
1,67,104,0
1,33,89,907
1,45,89,0
1,55,91,0
1,60,91,0
1,64,82,0
1,45,87,45
1,33,77,4
1,55,77,89
1,60,67,32
1,55,67,68
1,64,85,0
1,45,37,3
1,60,70,0
1,45,61,60
1,55,88,120
1,60,91,0
1,64,72,0
1,45,58,37
1,55,80,0
1,67,83,0
1,45,55,52
1,60,47,0
1,38,85,48
1,57,86,0
1,60,89,0
1,62,89,0
1,65,88,0
1,50,83,255
1,57,50,162
1,57,60,2
1,60,52,0
1,62,49,0
1,65,73,0
1,50,49,9
1,57,50,114
1,60,51,0
1,62,43,0
1,65,71,0
1,38,67,0
1,50,82,120
1,57,89,120
1,60,93,0
1,65,75,0
1,62,87,90
1,57,85,25
1,65,82,0
1,43,85,34
1,53,82,0
1,57,87,0
1,60,82,0
1,53,76,37
1,43,71,160
1,55,82,120
1,60,86,0
1,62,87,0
1,43,78,90
1,55,71,2
1,43,68,34
1,43,55,13
1,55,52,0
1,60,46,0
1,60,57,27
1,62,78,0
1,43,38,62
1,55,87,0
1,67,92,0
1,43,75,0
1,55,52,48
1,36,88,50
1,48,71,0
1,55,91,0
1,59,91,0
1,64,86,0
1,48,71,104
1,55,50,49
1,59,66,38
1,55,81,4
1,64,89,0
1,48,86,120
1,55,54,107
1,48,68,38
1,59,32,0
1,55,92,98
1,67,93,0
1,48,62,14
1,48,70,78
1,55,70,0
1,55,82,13
1,59,92,0
1,48,80,3
1,55,80,120
1,59,91,0
1,36,56,28
1,64,72,0
1,33,86,35
1,45,93,0
1,60,91,0
1,64,80,0
1,55,50,35
1,55,83,60
1,60,91,0
1,64,73,0
1,45,70,122
1,55,76,79
1,60,57,30
1,55,43,3
1,64,60,0
1,45,80,33
1,55,59,120
1,55,98,52
1,60,94,0
1,64,94,0
1,45,85,99
1,55,60,57
1,60,72,0
1,67,81,0
1,45,37,34
1,38,82,60
1,57,80,0
1,60,87,0
1,62,82,0
1,65,86,0
1,50,72,10
1,57,53,18
1,57,71,65
1,60,80,0
1,65,87,0
1,50,65,153
1,57,51,82
1,60,51,30
1,57,76,78
1,60,83,0
1,65,82,0
1,50,68,25
1,57,65,88
1,57,81,38
1,60,91,0
1,65,83,0
1,38,80,15
1,38,68,22
1,57,76,0
1,31,85,184
1,43,87,0
1,55,89,0
1,60,91,0
1,62,91,0
1,55,89,103
1,60,89,0
1,62,88,0
1,43,53,5
1,55,67,120
1,60,75,0
1,62,72,0
1,67,81,0
1,31,62,90
1,55,60,98
1,43,51,44
1,60,70,0
1,55,49,19
1,55,92,59
1,60,88,0
1,62,94,0
1,67,88,0
1,43,80,17
1,43,34,49
1,55,41,0
1,36,87,52
1,55,89,0
1,59,94,0
1,64,86,0
1,48,72,39
1,55,58,45
1,48,85,19
1,55,82,120
1,55,78,47
1,59,78,0
1,64,45,0
1,62,81,25
1,55,49,29
1,59,88,0
1,48,89,12
1,55,71,120
1,55,89,38
1,60,94,0
1,48,68,12
1,62,71,0
1,48,88,15
1,55,52,0
1,55,76,64
1,64,85,0
1,60,72,5
1,33,88,30
1,45,89,0
1,55,94,0
1,60,89,0
1,64,89,0
1,45,93,127
1,55,70,48
1,60,60,69
1,55,67,70
1,60,78,0
1,64,68,0
1,45,82,15
1,55,72,112
1,60,76,45
1,45,89,43
1,55,80,120
1,64,78,0
1,45,101,10
1,38,86,50
1,57,91,0
1,60,92,0
1,65,85,0
1,50,83,264
1,57,59,62
1,60,60,62
1,57,81,65
1,60,89,0
1,65,81,0
1,50,70,108
1,55,77,19
1,60,44,0
1,64,54,0
1,50,65,42
1,53,67,120
1,57,67,0
1,62,75,0
1,50,91,78
1,57,81,120
1,57,45,38
1,60,83,0
1,65,80,49
1,31,83,37
1,33,91,0
1,43,89,0
1,55,75,0
1,60,81,0
1,62,80,0
1,55,85,72
1,60,68,40
1,43,48,53
1,55,39,0
1,60,80,0
1,62,73,0
1,67,73,14
1,55,77,55
1,59,86,0
1,67,76,0
1,43,70,2
1,55,41,118
1,55,80,38
1,67,92,0
1,43,80,75
1,36,88,170
1,48,88,0
1,55,87,0
1,59,83,0
1,64,82,0
1,48,80,55
1,55,43,69
1,55,70,59
1,59,78,0
1,48,80,24
1,55,44,120
1,55,93,3
1,64,93,0
1,48,72,120
1,59,49,0
1,55,80,83
1,36,80,43
1,55,78,120
1,59,82,0
1,64,68,0
1,36,81,30
1,38,46,34
1,39,50,0
1,55,45,0
1,33,89,67
1,45,92,0
1,55,89,0
1,57,88,0
1,60,89,0
1,64,82,0
1,45,89,38
1,55,63,87
1,57,60,53
1,55,68,49
1,57,71,0
1,60,88,0
1,45,82,99
1,55,63,89
1,60,55,0
1,64,71,0
1,45,83,32
1,55,68,103
1,55,87,23
1,57,91,0
1,60,92,0
1,64,82,0
1,45,81,32
1,45,44,39
1,38,82,52
1,57,78,0
1,60,83,0
1,62,80,0
1,65,85,0
1,50,58,173
1,50,89,12
1,57,61,88
1,60,58,45
1,57,72,20
1,60,78,0
1,62,76,0
1,65,81,0
1,57,44,84
1,60,45,0
1,62,47,0
1,65,59,0
1,55,66,49
1,60,72,0
1,64,67,0
1,50,61,35
1,53,88,120
1,57,87,0
1,62,92,0
1,50,83,52
1,38,78,84
1,31,81,149
1,43,81,0
1,55,80,0
1,60,82,0
1,62,86,0
1,55,76,92
1,55,52,44
1,60,71,0
1,62,73,0
1,67,66,0
1,43,55,39
1,55,83,100
1,60,92,0
1,62,91,0
1,67,85,0
1,31,77,44
1,55,55,95
1,43,59,32
1,55,60,29
1,55,82,38
1,59,78,0
1,62,88,0
1,43,80,0
1,55,58,62
1,36,87,19
1,55,82,0
1,59,86,0
1,64,88,0
1,48,87,49
1,55,68,73
1,59,47,49
1,55,58,77
1,62,78,0
1,48,71,2
1,55,67,9
1,48,70,120
1,55,77,9
1,48,68,120
1,55,61,112
1,59,52,42
1,55,49,29
1,64,60,0
1,36,61,29
1,33,70,190
1,45,68,0
1,55,62,0
1,60,73,0
1,64,70,0
1,55,49,250
1,55,67,83
1,60,76,8
1,67,61,25
1,38,55,69
1,57,66,0
1,60,63,0
1,65,77,0
1,50,58,143
1,57,71,120
1,60,80,68
1,57,34,8
1,65,80,0
