track,note,velocity,time
1,59,65,1342
1,61,74,192
1,63,59,18
1,44,71,192
1,51,55,96
1,56,53,86
1,59,44,98
1,63,76,144
1,61,61,51
1,59,55,18
1,61,63,12
1,39,59,47
1,46,59,0
1,51,50,10
1,54,56,116
1,61,71,146
1,59,56,14
1,58,59,95
1,59,59,12
1,40,65,96
1,52,47,0
1,56,47,192
1,59,38,192
1,63,52,192
1,59,37,96
1,56,28,45
1,52,65,15
1,56,38,78
1,59,19,170
1,63,49,192
1,52,45,23
1,63,54,104
1,59,71,102
1,61,79,37
1,63,68,3
1,44,60,93
1,51,65,185
1,56,54,96
1,59,55,121
1,63,63,96
1,61,58,29
1,59,60,3
1,61,79,192
1,39,63,91
1,46,60,133
1,51,59,37
1,54,58,0
1,61,76,0
1,59,63,17
1,58,68,27
1,59,74,16
1,40,56,106
1,47,52,0
1,52,58,192
1,56,45,192
1,59,47,192
1,63,49,1
1,59,39,80
1,52,46,2
1,56,30,143
1,59,34,192
1,63,43,192
1,59,33,101
1,56,19,192
1,52,32,123
1,56,28,145
1,59,1,56
1,52,26,86
1,56,25,108
1,59,18,192
1,63,17,192
1,44,59,89
1,51,47,92
1,56,45,192
1,59,47,192
1,63,48,192
1,59,35,139
1,51,50,75
1,58,45,150
1,39,39,0
1,46,56,107
1,51,56,192
1,54,42,192
1,58,48,192
1,54,37,105
1,51,53,192
1,54,32,184
1,40,59,0
1,52,48,170
1,56,47,192
1,59,52,192
1,63,53,192
1,59,47,152
1,56,47,14
1,52,59,71
1,56,40,30
1,59,33,97
1,63,29,8
1,59,23,3
1,56,42,192
1,59,37,173
1,56,33,165
1,44,59,22
1,51,47,186
1,56,45,192
1,59,47,192
1,63,48,192
1,59,35,139
1,51,36,75
1,59,45,150
1,39,39,0
1,46,41,151
1,51,41,192
1,54,42,192
1,58,48,192
1,54,37,105
1,51,37,192
1,54,32,184
1,40,59,0
1,52,48,150
1,56,47,192
1,59,52,192
1,63,53,192
1,59,47,152
1,56,47,14
1,52,59,47
1,56,40,30
1,59,33,97
1,63,29,8
1,59,23,3
1,56,42,192
1,59,37,173
1,56,33,165
1,44,59,22
1,51,47,146
1,56,45,192
1,59,47,192
1,63,48,192
1,59,35,139
1,51,36,75
1,59,45,150
1,39,39,0
1,46,41,61
1,51,41,192
1,54,42,192
1,58,48,192
1,54,37,105
1,51,37,192
1,54,32,184
1,40,59,0
1,52,48,126
1,56,47,192
1,59,52,192
1,63,53,192
1,59,47,152
1,56,47,14
1,52,59,24
1,56,40,30
1,59,33,97
1,63,29,8
1,59,23,3
1,56,42,192
1,59,37,173
1,56,33,165
1,44,53,22
1,51,37,72
1,56,33,192
1,59,39,192
1,63,57,25
1,59,36,24
1,56,35,15
1,59,44,5
1,39,45,13
1,46,37,70
1,51,25,192
1,54,36,4
1,51,24,192
1,58,44,22
1,46,22,38
1,54,10,0
1,51,24,56
1,40,59,30
1,52,48,35
1,56,47,192
1,59,52,192
1,63,53,192
1,59,47,152
1,56,47,14
1,52,59,192
1,56,40,30
1,59,33,97
1,63,29,8
1,59,23,3
1,59,59,93
1,61,54,194
1,63,60,183
1,44,71,22
1,51,55,166
1,56,53,86
1,59,44,98
1,63,76,144
1,61,61,51
1,59,55,18
1,61,65,12
1,39,59,73
1,46,59,0
1,51,50,10
1,54,56,116
1,61,71,146
1,59,56,14
1,58,59,95
1,59,59,12
1,40,65,21
1,52,47,0
1,56,47,192
1,59,38,192
1,63,52,192
1,59,37,96
1,56,28,45
1,52,65,11
1,56,38,86
1,59,19,192
1,63,49,192
1,52,45,23
1,63,54,104
1,59,71,102
1,61,79,37
1,63,68,3
1,44,60,17
1,51,65,42
1,56,54,96
1,59,55,121
1,63,63,96
1,61,58,29
1,59,60,3
1,61,79,192
1,39,63,32
1,46,60,57
1,51,59,37
1,54,58,0
1,61,76,0
1,59,63,17
1,58,68,27
1,59,74,16
1,40,74,31
1,47,52,0
1,52,58,192
1,56,45,192
1,59,47,192
1,63,49,1
1,59,39,80
1,52,46,2
1,40,59,46
1,56,30,143
1,59,34,192
1,63,43,192
1,40,50,41
1,59,33,0
1,56,19,192
1,44,59,94
1,51,47,52
1,56,45,192
1,59,47,192
1,63,48,192
1,59,35,139
1,51,36,75
1,59,45,150
1,39,39,0
1,46,41,17
1,51,41,192
1,54,42,192
1,58,48,192
1,54,37,105
1,51,37,192
1,54,32,184
1,40,59,0
1,52,48,15
1,56,47,192
1,59,52,192
1,63,53,192
1,59,47,152
1,56,47,14
1,52,59,64
1,56,40,30
1,59,33,97
1,63,29,8
1,59,23,3
1,56,42,192
1,59,37,173
1,56,33,165
1,44,59,22
1,51,47,45
1,56,45,192
1,59,47,192
1,63,48,192
1,59,35,139
1,51,36,75
1,59,45,150
1,39,39,0
1,46,41,27
1,51,41,192
1,54,42,192
1,58,48,192
1,54,37,105
1,51,37,192
1,54,32,184
1,40,59,0
1,52,48,126
1,56,47,151
1,59,52,192
1,63,53,192
1,59,47,152
1,56,47,14
1,52,59,58
1,56,40,30
1,59,33,97
1,63,29,8
1,59,23,3
1,56,42,192
1,59,37,173
1,56,33,165
1,44,59,22
1,51,47,105
1,56,45,192
1,59,47,192
1,63,48,192
1,59,35,139
1,51,36,75
1,59,45,150
1,39,39,0
1,46,41,70
1,51,41,192
1,54,42,192
1,58,48,192
1,54,37,105
1,51,37,192
1,54,32,184
1,40,59,0
1,52,48,52
1,56,47,192
1,59,52,192
1,63,53,192
1,59,47,152
1,56,47,14
1,52,59,51
1,56,40,30
1,59,33,97
1,63,29,8
1,59,23,3
1,56,42,192
1,59,37,173
1,56,33,165
1,44,67,22
1,51,55,48
1,56,53,192
1,59,55,192
1,63,56,192
1,59,43,139
1,51,44,75
1,59,53,150
1,39,47,0
1,46,49,47
1,51,49,192
1,54,50,192
1,58,56,192
1,54,45,105
1,51,45,192
1,54,40,184
1,40,67,0
1,52,56,45
1,56,55,192
1,59,60,192
1,63,61,192
1,59,55,152
1,56,55,14
1,52,67,77
1,56,48,30
1,59,41,97
1,63,37,8
1,59,31,3
1,56,50,192
1,59,45,173
1,56,41,165
1,42,73,22
1,46,64,42
1,54,67,192
1,56,66,192
1,61,76,192
1,56,64,162
1,54,64,3
1,56,64,192
1,54,63,0
1,42,63,0
1,46,67,57
1,54,63,96
1,56,67,18
1,61,64,192
1,56,50,177
1,54,66,192
1,56,55,184
1,43,73,8
1,51,56,72
1,55,68,192
1,58,67,192
1,63,82,192
1,58,62,163
1,55,64,183
1,58,64,190
1,43,58,29
1,51,56,54
1,55,62,96
1,58,64,192
1,63,67,192
1,58,53,0
1,55,53,13
1,58,58,192
1,47,76,4
1,63,61,0
1,59,82,0
1,54,69,0
1,47,64,188
1,63,62,87
1,54,68,0
1,59,79,0
1,47,58,384
1,63,52,154
1,54,63,0
1,59,67,0
1,47,11,6
1,63,13,96
1,54,31,0
1,59,57,0
1,63,60,127
1,59,71,0
1,54,67,0
1,47,62,192
1,63,64,156
1,59,76,0
1,54,68,0
1,47,27,123
1,63,45,48
1,59,66,0
1,54,62,0
1,47,50,192
1,42,63,38
1,61,63,0
1,58,67,0
1,54,63,0
1,61,47,55
1,54,38,0
1,58,47,0
1,42,66,195
1,61,61,0
1,54,64,0
1,58,71,0
1,54,20,39
1,58,45,0
1,58,73,125
1,54,68,0
1,61,73,0
1,42,26,192
1,61,26,136
1,54,35,0
1,58,41,0
1,58,64,146
1,61,66,0
1,54,63,0
1,42,67,190
1,54,64,0
1,58,67,0
1,61,69,0
1,61,56,80
1,58,55,0
1,54,53,0
1,49,68,186
1,64,76,0
1,56,67,0
1,61,73,0
1,49,53,94
1,64,79,128
1,61,76,0
1,56,66,0
1,49,47,248
1,56,63,133
1,64,73,0
1,61,67,0
1,49,43,68
1,64,29,61
1,56,23,0
1,61,52,0
1,64,68,144
1,56,62,0
1,61,68,0
1,49,63,0
1,49,68,16
1,64,63,192
1,61,57,0
1,56,46,0
1,64,66,129
1,56,61,0
1,61,66,0
1,44,76,10
1,63,62,0
1,59,67,0
1,56,68,0
1,44,62,88
1,56,68,2
1,63,67,0
1,59,79,0
1,44,40,384
1,63,57,98
1,56,64,0
1,59,68,0
1,44,32,117
1,59,47,48
1,56,40,0
1,63,61,145
1,59,79,0
1,56,71,0
1,44,71,384
1,63,53,8
1,59,64,0
1,56,57,0
1,44,63,46
1,59,69,155
1,63,57,0
1,56,68,0
1,63,34,100
1,59,57,0
1,56,43,0
1,44,42,5
1,59,73,47
1,56,68,0
1,63,63,0
1,44,42,192
1,56,8,42
1,59,45,0
1,56,67,140
1,59,76,0
1,63,63,0
1,44,57,192
1,63,20,132
1,56,34,0
1,59,53,0
1,59,68,140
1,63,55,0
1,56,64,0
1,44,31,0
1,63,63,26
1,59,79,0
1,56,69,0
1,44,55,96
1,59,73,17
1,56,69,0
1,63,61,0
1,49,68,17
1,64,76,0
1,56,64,0
1,61,68,0
1,49,61,114
1,64,79,6
1,56,66,0
1,61,67,0
1,49,45,384
1,64,67,128
1,56,63,0
1,61,67,0
1,49,32,168
1,61,51,116
1,56,38,0
1,64,66,16
1,56,63,0
1,61,67,0
1,49,79,384
1,64,56,106
1,61,53,0
1,56,52,0
1,64,71,97
1,56,63,0
1,61,67,0
1,42,69,131
1,61,66,0
1,54,69,0
1,58,67,0
1,42,55,48
1,61,69,24
1,54,69,0
1,58,76,0
1,42,58,384
1,61,66,93
1,54,62,0
1,58,69,0
1,61,45,110
1,54,41,0
1,58,51,0
1,54,66,29
1,61,68,0
1,58,76,0
1,42,45,192
1,61,60,115
1,54,57,0
1,58,63,0
1,42,58,156
1,61,62,35
1,58,63,0
1,54,58,0
1,51,71,0
1,55,66,0
1,63,63,0
1,58,68,0
1,51,79,127
1,58,28,120
1,63,66,160
1,55,71,0
1,58,76,0
1,51,79,366
1,63,73,158
1,55,76,0
1,58,82,0
1,51,64,182
1,55,64,195
1,63,60,0
1,58,66,0
1,51,62,164
1,55,79,7
1,63,76,0
1,58,87,0
1,51,64,192
1,63,46,134
1,55,52,0
1,58,63,0
1,55,79,123
1,63,71,0
1,58,76,0
1,47,95,29
1,63,66,0
1,59,71,0
1,54,73,0
1,63,37,90
1,59,53,0
1,54,55,0
1,63,61,8
1,59,69,0
1,54,69,0
1,47,82,384
1,59,71,163
1,63,64,0
1,54,69,0
1,47,42,309
1,59,68,136
1,63,58,0
1,54,68,0
1,47,45,142
1,59,84,154
1,54,76,0
1,63,69,0
1,47,64,139
1,63,60,180
1,59,69,0
1,54,67,0
1,47,73,146
1,42,68,47
1,61,66,0
1,54,68,0
1,58,79,0
1,58,24,104
1,54,55,0
1,61,48,125
1,58,53,0
1,54,51,0
1,61,67,86
1,54,69,0
1,58,73,0
1,42,82,384
1,61,79,157
1,58,82,0
1,54,67,0
1,42,29,154
1,61,45,68
1,58,53,0
1,54,68,46
1,61,79,0
1,58,82,0
1,42,57,192
1,58,66,146
1,54,66,0
1,61,68,0
1,42,58,157
1,61,19,120
1,54,26,0
1,58,34,0
1,58,68,155
1,54,67,0
1,61,73,0
1,49,69,18
1,64,68,0
1,56,64,0
1,61,68,0
1,64,35,22
1,56,26,0
1,61,48,0
1,61,32,127
1,64,53,0
1,56,43,0
1,64,82,141
1,61,73,0
1,56,73,0
1,49,76,348
1,64,76,173
1,61,69,0
1,56,68,0
1,49,42,232
1,64,73,8
1,61,73,0
1,56,67,0
1,49,46,192
1,64,79,161
1,61,76,0
1,56,71,0
1,49,67,172
1,64,76,329
1,61,67,0
1,56,68,0
1,44,76,16
1,63,56,0
1,59,69,0
1,56,66,0
1,44,64,181
1,63,64,169
1,59,73,0
1,56,71,0
1,44,62,369
1,63,63,154
1,59,71,0
1,56,67,0
1,44,68,362
1,63,52,73
1,59,67,0
1,56,66,0
1,44,68,384
1,63,52,16
1,59,63,0
1,56,52,0
1,44,58,192
1,63,56,112
1,56,55,0
1,59,67,0
1,44,82,21
1,63,66,0
1,56,76,0
1,59,76,0
1,44,57,115
1,63,60,148
1,59,73,0
1,56,69,0
1,44,60,329
1,63,47,102
1,59,64,0
1,56,64,0
1,54,82,45
1,63,60,0
1,59,55,0
1,42,68,0
1,42,58,54
1,59,73,28
1,54,76,0
1,63,64,0
1,42,28,192
1,42,51,68
1,63,62,98
1,59,67,0
1,54,66,0
1,42,69,7
1,49,84,166
1,64,67,0
1,56,71,0
1,61,67,0
1,49,71,189
1,64,66,171
1,61,66,0
1,56,67,0
1,49,58,318
1,64,63,133
1,56,66,0
1,61,66,0
1,49,35,376
1,64,63,2
1,56,66,0
1,61,66,0
1,49,71,384
1,64,64,143
1,56,63,0
1,61,62,0
1,49,73,367
1,42,71,44
1,61,68,0
1,54,64,0
1,58,67,0
1,42,35,80
1,42,35,82
1,61,64,142
1,54,63,0
1,58,69,0
1,42,40,161
1,63,68,21
1,55,66,0
1,58,68,0
1,43,67,0
1,63,41,102
1,58,55,0
1,55,45,0
1,55,66,122
1,58,73,0
1,63,63,0
1,43,38,183
1,55,67,24
1,63,68,0
1,58,79,0
1,43,52,192
1,63,18,67
1,58,27,0
1,55,63,121
1,58,67,0
1,63,66,0
1,63,64,2
1,59,76,0
1,56,67,0
1,44,69,339
1,59,73,305
1,63,67,0
1,56,69,0
1,44,64,150
1,63,66,132
1,59,79,0
1,56,68,0
1,44,61,171
1,59,48,96
1,59,76,154
1,63,68,0
1,56,67,0
1,44,71,351
1,63,48,122
1,59,64,0
1,56,56,0
1,59,68,112
1,63,61,0
1,56,63,0
1,44,56,77
1,59,84,36
1,63,76,0
1,56,71,0
1,44,62,206
1,59,79,327
1,63,68,0
1,56,73,0
1,44,58,131
1,59,42,120
1,59,79,159
1,63,68,0
1,56,73,0
1,59,68,50
1,63,64,0
1,54,67,0
1,42,69,97
1,59,69,7
1,54,67,0
1,63,62,0
1,42,79,192
1,59,45,84
1,54,25,0
1,54,66,142
1,63,55,0
1,59,66,0
1,64,73,116
1,56,67,0
1,61,68,0
1,49,43,350
1,64,76,281
1,56,67,0
1,61,76,0
1,49,53,167
1,56,64,51
1,49,73,36
1,61,63,32
1,64,66,59
1,44,62,0
1,51,63,192
1,56,43,192
1,59,56,192
1,63,55,192
1,59,42,90
1,56,55,192
1,59,45,180
1,39,63,2
1,46,67,113
1,51,67,192
1,54,52,192
1,63,58,192
1,58,37,124
1,54,52,32
1,51,67,192
1,40,68,0
1,47,64,61
1,52,60,192
1,56,56,192
1,63,61,192
1,59,46,192
1,56,40,27
1,52,55,192
1,40,55,34
1,47,63,25
1,52,57,134
1,56,50,28
1,59,40,141
1,63,28,192
1,59,28,97
1,56,25,95
1,44,82,3
1,56,69,0
1,59,73,0
1,63,60,0
1,44,84,486
1,56,76,0
1,59,82,0
1,63,63,0
1,46,68,466
1,54,73,0
1,58,84,0
1,63,67,0
1,46,68,0
1,54,73,0
1,58,87,0
1,63,71,0
1,46,87,275
1,54,79,0
1,58,91,0
1,63,73,0
1,47,71,576
1,52,79,0
1,56,82,0
1,59,87,0
1,63,64,0
1,47,79,495
1,52,67,0
1,56,69,0
1,59,91,0
1,63,64,0
1,61,87,483
1,63,95,22
1,56,87,268
1,58,95,215
1,44,82,98
1,56,69,0
1,59,73,0
1,63,60,0
1,44,84,486
1,56,76,0
1,59,82,0
1,63,63,0
1,46,62,466
1,54,73,0
1,58,84,0
1,63,67,0
1,46,62,0
1,54,73,0
1,58,87,0
1,63,71,0
1,46,81,275
1,54,79,0
1,58,91,0
1,63,73,0
1,47,65,576
1,52,79,0
1,56,82,0
1,59,87,0
1,63,64,0
1,47,73,495
1,52,67,0
1,56,69,0
1,59,91,0
1,63,64,0
1,61,87,483
1,63,95,22
1,56,87,268
1,58,95,215
1,44,82,98
1,56,69,0
1,59,73,0
1,63,60,0
1,44,84,486
1,56,76,0
1,59,82,0
1,63,63,0
1,46,62,466
1,54,73,0
1,58,84,0
1,63,67,0
1,46,62,0
1,54,73,0
1,58,87,0
