track,note,velocity,time
1,45,89,766
1,45,102,37
1,45,113,41
1,45,113,43
1,50,107,50
1,69,89,0
1,74,93,0
1,78,102,0
1,50,98,43
1,69,98,0
1,74,102,0
1,78,93,0
1,57,107,55
1,69,72,0
1,73,89,0
1,76,89,0
1,57,102,47
1,69,76,0
1,73,93,0
1,76,89,0
1,55,85,49
1,67,89,0
1,71,98,0
1,74,89,0
1,55,89,47
1,67,89,0
1,71,102,0
1,74,89,0
1,57,98,37
1,69,85,0
1,73,93,0
1,76,93,0
1,57,93,35
1,69,76,0
1,73,98,0
1,76,93,0
1,50,102,55
1,69,85,0
1,74,98,0
1,78,93,0
1,50,102,60
1,69,89,0
1,74,102,0
1,78,98,0
1,57,93,66
1,69,85,0
1,73,93,0
1,76,98,0
1,57,93,52
1,69,80,0
1,73,89,0
1,76,93,0
1,55,89,49
1,67,80,0
1,71,98,0
1,74,89,0
1,55,85,66
1,67,85,0
1,71,102,0
1,74,93,0
1,57,93,50
1,69,76,0
1,73,98,0
1,76,102,0
1,57,102,51
1,69,85,0
1,73,98,0
1,76,98,0
1,50,98,67
1,69,89,0
1,74,98,0
1,78,93,0
1,50,98,61
1,69,85,0
1,74,98,0
1,78,93,0
1,57,102,62
1,69,72,0
1,73,93,0
1,76,89,0
1,57,89,48
1,69,85,0
1,73,85,0
1,76,93,0
1,55,93,55
1,67,85,0
1,71,93,0
1,74,89,0
1,55,85,68
1,67,85,0
1,71,102,0
1,74,89,0
1,57,93,62
1,69,76,0
1,73,93,0
1,76,93,0
1,57,102,53
1,69,85,0
1,73,102,0
1,76,93,0
1,69,72,3181
1,73,72,0
1,76,72,0
1,69,68,80
1,73,60,0
1,76,72,0
1,69,62,46
1,73,60,0
1,76,72,0
1,69,64,46
1,73,62,0
1,76,76,0
1,56,80,17
1,68,60,192
1,73,60,0
1,76,76,0
1,68,68,58
1,73,60,0
1,76,76,0
1,68,72,55
1,73,64,0
1,76,80,0
1,54,89,14
1,66,64,179
1,70,76,0
1,73,62,0
1,66,62,43
1,70,64,0
1,73,64,0
1,66,64,52
1,70,72,0
1,73,68,0
1,59,93,13
1,66,62,192
1,71,85,0
1,74,76,0
1,66,76,62
1,71,89,0
1,74,85,0
1,66,72,121
1,71,89,0
1,74,89,0
1,52,93,9
1,68,64,192
1,71,85,0
1,76,85,0
1,68,62,124
1,71,85,0
1,76,85,0
1,68,62,86
1,71,80,0
1,76,89,0
1,57,85,14
1,69,72,192
1,73,60,0
1,76,76,0
1,69,76,52
1,73,64,0
1,76,76,0
1,69,68,59
1,73,68,0
1,76,76,0
1,56,89,2
1,68,68,192
1,73,62,0
1,76,80,0
1,68,72,72
1,73,72,0
1,76,80,0
1,68,68,64
1,73,68,0
1,76,80,0
1,54,85,13
1,66,64,192
1,69,85,0
1,73,64,0
1,66,64,58
1,69,89,0
1,73,62,0
1,66,62,52
1,69,76,0
1,73,60,0
1,61,89,56
1,68,64,174
1,73,76,0
1,76,89,0
1,68,72,104
1,73,76,0
1,76,89,0
1,68,72,25
1,73,80,0
1,76,85,0
1,52,98,25
1,64,72,192
1,68,68,0
1,71,85,0
1,64,72,45
1,68,72,0
1,71,85,0
1,64,98,47
1,68,85,0
1,71,89,0
1,57,89,22
1,69,72,192
1,73,72,0
1,76,85,0
1,69,76,54
1,73,64,0
1,76,80,0
1,69,80,39
1,73,76,0
1,76,85,0
1,56,107,42
1,68,72,164
1,73,72,0
1,76,85,0
1,68,76,40
1,73,68,0
1,76,89,0
1,68,76,37
1,73,76,0
1,76,89,0
1,54,98,10
1,66,64,185
1,70,72,0
1,73,68,0
1,66,68,46
1,70,76,0
1,73,76,0
1,66,68,43
1,70,72,0
1,73,68,0
1,59,102,15
1,66,76,192
1,71,89,0
1,74,89,0
1,66,72,32
1,71,93,0
1,74,85,0
1,66,72,54
1,71,89,0
1,74,89,0
1,52,98,2
1,64,89,191
1,68,62,0
1,71,85,0
1,64,72,41
1,68,72,0
1,71,89,0
1,64,85,55
1,68,76,0
1,71,89,0
1,57,89,10
1,64,85,192
1,69,93,0
1,73,72,0
1,64,68,69
1,69,93,0
1,73,76,0
1,64,85,41
1,69,93,0
1,73,89,0
1,56,102,10
1,64,72,185
1,68,80,0
1,73,68,0
1,64,93,49
1,68,89,0
1,73,85,0
1,64,80,54
1,68,85,0
1,73,85,0
1,54,93,18
1,66,72,187
1,69,80,0
1,73,60,0
1,66,60,52
1,69,85,0
1,73,64,0
1,66,72,34
1,69,80,0
1,73,76,0
1,61,107,4
1,68,76,192
1,73,68,0
1,76,89,0
1,68,72,49
1,73,80,0
1,76,93,0
1,68,76,48
1,73,76,0
1,76,89,0
1,54,98,7
1,66,60,192
1,69,68,0
1,73,64,0
1,66,68,48
1,69,89,0
1,73,68,0
1,66,72,38
1,69,89,0
1,73,72,0
1,61,98,12
1,68,72,192
1,73,64,0
1,76,93,0
1,68,76,52
1,73,72,0
1,76,89,0
1,68,85,49
1,73,72,0
1,76,93,0
1,54,89,6
1,66,72,192
1,69,89,0
1,73,72,0
1,66,80,54
1,69,89,0
1,73,72,0
1,66,68,60
1,69,80,0
1,73,68,0
1,61,93,2
1,68,80,192
1,73,76,0
1,76,85,0
1,68,89,48
1,73,76,0
1,76,93,0
1,68,76,49
1,73,72,0
1,76,76,0
1,54,85,2
1,66,64,192
1,69,76,0
1,73,64,0
1,66,68,57
1,69,80,0
1,73,60,0
1,66,80,39
1,69,89,0
1,73,72,0
1,61,102,10
1,68,76,192
1,73,76,0
1,76,93,0
1,68,85,53
1,73,89,0
1,76,93,0
1,68,72,53
1,73,80,0
1,76,98,0
1,62,107,21
1,69,89,192
1,74,98,0
1,78,93,0
1,69,89,53
1,74,98,0
1,78,93,0
1,69,93,58
1,74,93,0
1,78,89,0
1,57,98,5
1,69,85,192
1,73,89,0
1,76,98,0
1,69,85,52
1,73,89,0
1,76,102,0
1,69,89,64
1,73,89,0
1,76,98,0
1,62,98,1
1,69,98,177
1,74,102,0
1,78,93,0
1,69,93,52
1,74,107,0
1,78,93,0
1,69,85,89
1,74,93,0
1,78,89,0
1,57,89,57
1,73,102,2
1,76,102,3
1,69,98,128
1,73,85,122
1,56,107,43
1,68,93,2
1,73,93,1
1,76,102,1
1,68,85,70
1,73,80,127
1,55,89,45
1,67,93,4
1,73,102,0
1,76,102,1
1,67,89,1
1,73,72,129
1,54,113,53
1,73,89,1
1,66,93,2
1,78,107,1
1,66,76,90
1,73,85,24
1,73,89,43
1,66,93,3
1,78,98,0
1,54,113,1
1,66,102,100
1,73,80,49
1,73,93,48
1,54,113,2
1,78,98,0
1,66,107,126
1,73,93,61
1,62,102,75
1,69,107,0
1,74,102,0
1,78,102,0
1,69,93,35
1,74,98,0
1,78,102,0
1,57,102,34
1,69,85,0
1,73,113,0
1,76,107,0
1,69,89,119
1,73,89,19
1,76,93,0
1,55,98,23
1,67,98,0
1,71,102,0
1,74,102,0
1,67,98,42
1,71,107,0
1,74,102,0
1,57,107,42
1,69,89,0
1,73,107,0
1,76,113,0
1,69,72,75
1,69,76,1
1,73,93,0
1,76,93,0
1,62,102,39
1,69,102,0
1,74,107,0
1,78,107,0
1,69,102,46
1,74,102,0
1,78,107,0
1,57,93,49
1,69,98,0
1,73,107,0
1,76,107,0
1,69,68,70
1,69,56,0
1,73,85,0
1,76,89,0
1,55,93,50
1,67,102,0
1,71,107,0
1,74,102,0
1,67,93,44
1,71,102,0
1,74,98,0
1,57,107,42
1,69,93,0
1,73,113,0
1,76,102,0
1,69,80,79
1,69,80,2
1,73,107,0
1,76,102,0
1,62,107,54
1,69,98,0
1,74,107,0
1,78,107,0
1,69,98,47
1,74,102,0
1,78,98,0
1,57,93,39
1,69,89,0
1,73,102,0
1,76,107,0
1,69,76,38
1,69,89,37
1,73,102,0
1,76,98,0
1,55,89,53
1,67,98,0
1,71,102,0
1,74,98,0
1,67,102,45
1,71,107,0
1,74,107,0
1,57,98,39
1,69,93,0
1,73,113,0
1,76,113,0
1,69,68,73
1,69,85,0
1,73,72,0
1,76,89,0
1,69,80,3175
1,73,72,0
1,76,89,0
1,69,89,101
1,73,72,0
1,76,89,0
1,57,93,104
1,69,80,0
1,73,85,0
1,76,89,0
1,69,76,67
1,73,76,0
1,76,93,0
1,69,76,67
1,73,76,0
1,76,80,0
1,69,76,59
1,73,85,0
1,76,85,0
1,56,80,71
1,68,76,0
1,73,62,0
1,76,72,0
1,68,80,65
1,73,60,0
1,76,85,0
1,68,76,75
1,73,68,0
1,76,89,0
1,68,85,69
1,73,72,0
1,76,93,0
1,54,102,79
1,66,93,0
1,70,89,0
1,73,76,0
1,66,76,61
1,70,76,0
1,73,85,0
1,66,85,71
1,70,89,0
1,73,76,0
1,66,76,63
1,70,89,0
1,73,80,0
1,59,93,12
1,66,76,0
1,71,102,0
1,74,93,0
1,66,72,44
1,71,93,0
1,74,85,0
1,66,72,58
1,71,89,0
1,74,85,0
1,66,76,58
1,71,93,0
1,74,89,0
1,52,89,26
1,64,89,0
1,68,76,0
1,71,89,0
1,64,93,48
1,68,85,0
1,71,85,0
1,64,76,57
1,68,60,0
1,71,80,0
1,64,72,46
1,68,72,0
1,71,85,0
1,57,89,13
1,64,76,0
1,69,89,0
1,73,89,0
1,64,68,50
1,69,93,0
1,73,80,0
1,64,62,53
1,69,89,0
1,73,80,0
1,64,76,61
1,69,93,0
1,73,89,0
1,56,93,49
1,64,85,0
1,68,89,0
1,73,76,0
1,64,89,54
1,68,85,0
1,73,80,0
1,64,89,61
1,68,72,0
1,73,85,0
1,64,98,61
1,68,93,0
1,73,89,0
1,54,102,52
1,66,98,0
1,69,89,0
1,73,76,0
1,66,89,54
1,69,89,0
1,73,68,0
1,66,72,61
1,69,89,0
1,73,72,0
1,66,72,40
1,69,89,0
1,73,93,0
1,61,93,34
1,68,72,0
1,73,76,0
1,76,98,0
1,68,85,65
1,73,62,0
1,76,89,0
1,68,76,61
1,73,76,0
1,76,89,0
1,68,72,60
1,73,68,0
1,76,89,0
1,54,89,17
1,66,76,0
1,69,89,0
1,73,68,0
1,66,76,55
1,69,93,0
1,73,85,0
1,66,76,36
1,69,89,0
1,73,72,0
1,66,76,40
1,69,93,0
1,73,72,0
1,61,107,43
1,68,76,0
1,73,76,0
1,76,89,0
1,68,89,92
1,73,85,0
1,76,93,0
1,68,89,59
1,73,72,0
1,76,93,0
1,68,85,50
1,73,68,0
1,76,89,0
1,62,102,16
1,69,89,0
1,74,102,0
1,78,93,0
1,69,76,61
1,74,93,0
1,78,80,0
1,69,80,59
1,74,93,0
1,78,85,0
1,69,76,62
1,74,93,0
1,78,80,0
1,57,89,33
1,69,85,0
1,73,93,0
1,76,89,0
1,69,93,62
1,73,89,0
1,76,102,0
1,69,89,55
1,73,98,0
1,76,98,0
1,69,89,48
1,73,102,0
1,76,93,0
1,62,98,58
1,69,85,0
1,74,102,0
1,78,93,0
1,69,89,67
1,74,98,0
1,78,85,0
1,69,89,76
1,74,98,0
1,78,89,0
1,69,85,71
1,74,102,0
1,78,89,0
1,57,98,40
1,69,98,0
1,73,107,0
1,76,102,0
1,57,107,25
1,69,98,124
1,56,102,24
1,56,102,0
1,68,98,0
1,73,98,0
1,76,98,0
1,68,98,59
1,73,80,123
1,55,107,22
1,55,98,0
1,67,93,0
1,73,107,0
1,76,113,0
1,67,98,14
1,73,76,131
1,54,119,37
1,54,113,0
1,73,102,0
1,78,107,0
1,66,113,142
1,70,93,82
1,54,107,16
1,66,107,0
1,70,102,0
1,73,98,0
1,78,107,0
1,66,102,4
1,70,89,69
1,70,102,32
1,78,102,0
1,54,107,1
1,73,93,0
1,66,107,123
1,70,102,70
1,62,113,88
1,69,107,0
1,74,113,0
1,78,107,0
1,69,113,45
1,74,113,0
1,78,107,0
1,57,113,48
1,69,98,0
1,73,113,0
1,76,113,0
1,69,89,34
1,73,113,0
1,76,102,0
1,55,113,30
1,67,89,0
1,71,89,0
1,74,93,0
1,67,102,33
1,71,113,0
1,74,113,0
1,57,93,29
1,69,93,0
1,73,113,0
1,76,98,0
1,69,93,40
1,73,113,0
1,76,107,0
1,62,107,45
1,69,98,0
1,74,107,0
1,78,107,0
1,69,102,48
1,74,113,0
1,78,102,0
1,57,107,39
1,69,93,0
1,73,107,0
1,76,102,0
1,69,93,54
1,73,107,0
1,76,107,0
1,55,107,44
1,67,107,0
1,71,102,0
1,74,102,0
1,67,98,46
1,71,113,0
1,74,107,0
1,57,102,35
1,69,89,0
1,73,107,0
1,76,98,0
1,69,89,51
1,73,113,0
1,76,107,0
1,62,102,46
1,69,102,0
1,74,102,0
1,78,107,0
1,69,102,52
1,74,113,0
1,78,102,0
1,57,102,37
1,69,98,0
1,73,113,0
1,76,98,0
1,69,93,45
1,73,107,0
1,76,107,0
1,55,93,49
1,67,102,0
1,71,107,0
1,74,102,0
1,67,93,43
1,71,107,0
1,74,107,0
1,57,107,27
1,69,93,0
1,73,107,0
1,76,107,0
1,69,89,55
1,73,102,0
1,76,98,0
1,62,107,55
1,69,98,0
1,74,107,0
1,78,98,0
1,69,98,41
1,74,102,0
1,78,102,0
1,57,102,38
1,69,89,0
1,73,107,0
1,76,102,0
1,69,89,46
1,73,107,0
1,76,107,0
1,55,107,49
1,67,102,0
1,71,107,0
1,74,107,0
1,67,89,36
1,71,107,0
1,74,102,0
1,57,102,27
1,69,93,0
1,73,107,0
1,76,107,0
1,69,93,54
1,73,113,0
1,76,102,0
1,62,107,47
1,69,98,0
1,74,107,0
1,78,107,0
1,69,93,43
1,74,107,0
1,78,107,0
1,57,93,39
1,69,89,0
1,73,113,0
1,76,107,0
1,69,89,60
1,73,107,0
1,76,98,0
1,55,89,49
1,67,102,0
1,71,107,0
1,74,102,0
1,67,98,38
1,71,107,0
1,74,102,0
1,57,102,34
1,69,93,0
1,73,102,0
1,76,107,0
1,69,93,53
1,73,113,0
1,76,102,0
1,62,107,31
1,69,93,0
1,74,102,0
1,78,102,0
1,69,98,49
1,74,107,0
1,78,102,0
1,57,98,54
1,69,85,0
1,73,107,0
1,76,102,0
1,69,98,58
1,73,113,0
1,76,107,0
1,55,107,50
1,67,102,0
1,71,107,0
1,74,107,0
1,67,93,62
1,71,113,0
1,74,102,0
1,57,107,48
1,69,102,0
1,73,119,0
1,76,113,0
1,69,89,52
1,73,113,0
1,76,107,0
1,62,107,43
1,69,98,0
1,74,113,0
1,78,102,0
1,69,98,44
1,74,107,0
1,78,98,0
1,57,93,40
1,69,93,0
1,73,102,0
1,76,107,0
1,69,89,60
1,73,113,0
1,76,102,0
1,55,98,38
1,67,102,0
1,71,107,0
1,74,102,0
1,67,89,41
1,71,113,0
1,74,102,0
1,57,102,33
1,69,93,0
1,73,102,0
1,76,102,0
1,69,89,68
1,73,113,0
1,76,102,0
1,62,102,56
1,69,89,0
1,74,107,0
1,78,102,0
1,69,93,48
1,74,113,0
1,78,102,0
1,57,93,24
1,69,89,0
1,73,102,0
1,76,102,0
1,69,93,61
1,73,113,0
1,76,102,0
1,55,89,51
1,67,98,0
1,71,107,0
1,74,107,0
1,67,98,50
1,71,113,0
1,74,102,0
1,57,102,45
1,69,89,0
1,73,113,0
1,76,107,0
1,69,93,55
1,73,113,0
1,76,102,0
1,62,98,48
1,69,98,0
1,74,107,0
1,78,98,0
1,69,89,52
1,74,107,0
1,78,102,0
1,57,98,37
1,69,93,0
1,73,113,0
1,76,98,0
1,69,93,57
1,73,102,0
1,76,102,0
1,55,93,51
1,67,93,0
1,71,107,0
1,74,107,0
1,67,89,64
1,71,107,0
1,74,107,0
1,57,89,43
1,69,98,0
1,73,113,0
1,76,107,0
1,69,89,65
1,73,113,0
1,76,102,0
1,62,102,41
1,69,102,0
1,74,102,0
1,78,98,0
1,69,98,56
1,74,113,0
1,78,102,0
1,57,102,42
1,69,89,0
1,73,102,0
1,76,102,0
1,69,93,56
1,73,107,0
1,76,107,0
1,55,93,55
1,67,93,0
