track,note,velocity,time
1,69,100,12096
1,69,100,32
1,74,100,32
1,74,100,64
1,74,100,64
1,74,100,64
1,74,100,32
1,66,100,576
1,69,100,32
1,71,100,32
1,71,100,32
1,71,100,64
1,71,100,32
1,71,100,32
1,62,100,736
1,69,100,32
1,69,100,64
1,69,100,64
1,69,100,64
1,69,100,32
1,69,100,64
1,57,100,384
1,66,100,32
1,66,100,64
1,67,100,64
1,66,100,64
1,66,100,32
1,64,100,64
1,69,100,384
1,74,100,32
1,74,100,64
1,74,100,64
1,74,100,64
1,66,100,640
1,66,100,32
1,71,100,32
1,71,100,32
1,71,100,32
1,71,100,32
1,71,100,32
1,71,100,64
1,57,100,640
1,57,100,32
1,69,100,32
1,69,100,64
1,69,100,64
1,69,100,64
1,69,100,32
1,57,100,576
1,66,100,32
1,66,100,64
1,66,100,128
1,64,100,64
1,66,100,96
1,66,100,32
1,66,100,64
1,66,100,32
1,64,100,64
1,64,100,352
1,64,100,32
1,64,100,64
1,68,100,64
1,76,100,32
1,75,100,32
1,75,100,64
1,75,100,352
1,75,100,32
1,75,100,32
1,75,100,32
1,73,100,64
1,71,100,64
1,68,100,32
1,68,100,64
1,71,100,640
1,76,100,64
1,75,100,128
1,75,100,64
1,75,100,352
1,75,100,32
1,75,100,32
1,75,100,32
1,75,100,32
1,75,100,32
1,75,100,32
1,73,100,32
1,71,100,32
1,68,100,32
1,68,100,64
1,68,100,640
1,71,100,64
1,76,100,64
1,75,100,64
1,75,100,64
1,75,100,64
1,75,100,64
1,75,100,32
1,75,100,64
1,71,100,384
1,74,100,32
1,74,100,64
1,74,100,64
1,74,100,64
1,74,100,64
1,73,100,64
1,71,100,64
1,73,100,128
1,73,100,64
1,73,100,64
1,73,100,64
1,69,100,736
1,72,100,32
1,72,100,64
1,72,100,64
1,72,100,64
1,72,100,64
1,72,100,64
1,71,100,32
1,68,100,1600
1,71,100,4
1,71,100,4
1,71,100,4
1,71,100,4
1,71,100,4
1,69,100,4
1,68,100,4
1,69,100,4
1,71,100,4
1,71,100,4
1,71,100,4
1,71,100,4
1,71,100,4
1,69,100,4
1,68,100,4
1,69,100,4
1,67,100,0
1,67,100,4
1,67,100,4
1,67,100,4
1,67,100,4
1,67,100,4
1,71,100,4
1,79,100,4
1,78,100,4
1,78,100,4
1,74,100,1060
1,77,100,4
1,77,100,4
1,77,100,4
1,77,100,4
1,77,100,4
1,77,100,4
1,76,100,4
1,74,100,4
1,76,100,4
1,76,100,4
1,74,100,1060
1,71,100,4
1,71,100,4
1,71,100,4
1,71,100,4
1,71,100,4
1,71,100,4
1,74,100,292
1,71,100,4
1,71,100,4
1,71,100,4
1,71,100,4
1,71,100,4
1,71,100,4
1,71,100,388
1,71,100,4
1,71,100,4
1,71,100,4
1,71,100,4
1,71,100,4
1,71,100,4
1,74,100,4
1,71,100,4
1,71,100,4
1,67,100,1156
1,67,100,4
1,67,100,4
1,67,100,4
1,67,100,4
1,67,100,4
1,71,100,4
1,74,100,4
1,78,100,4
1,78,100,4
1,74,100,964
1,76,100,4
1,77,100,4
1,77,100,4
1,77,100,4
1,77,100,4
1,77,100,4
1,76,100,4
1,74,100,4
1,76,100,4
1,76,100,4
1,74,100,1060
1,71,100,4
1,71,100,4
1,71,100,4
1,71,100,4
1,71,100,4
1,71,100,4
1,71,100,4
1,74,100,4
1,71,100,4
1,71,100,4
1,69,100,5572
1,74,100,0
1,74,100,4
1,74,100,4
1,74,100,4
1,74,100,4
1,74,100,4
1,57,100,388
1,57,100,4
1,71,100,4
1,71,100,4
1,71,100,4
1,71,100,4
1,71,100,4
1,69,100,772
1,69,100,4
1,69,100,4
1,69,100,4
1,69,100,4
1,57,100,196
1,66,100,4
1,66,100,4
1,66,100,4
1,66,100,4
1,64,100,4
1,69,100,296
1,74,100,4
1,74,100,4
1,74,100,4
1,74,100,4
1,74,100,4
1,74,100,4
1,74,100,4
1,74,100,4
1,66,100,196
1,71,100,4
1,71,100,4
1,71,100,4
1,71,100,4
1,71,100,4
1,57,100,868
1,69,100,4
1,69,100,4
1,69,100,4
1,69,100,4
1,69,100,4
1,69,100,4
1,57,100,292
1,66,100,4
1,66,100,4
1,66,100,4
1,64,100,4
1,66,100,4
1,66,100,4
1,66,100,4
1,66,100,0
1,64,100,4
1,64,100,4
1,64,100,4
1,64,100,484
1,64,100,4
1,68,100,64
1,76,100,32
1,75,100,32
1,75,100,64
1,75,100,352
1,75,100,32
1,75,100,32
1,75,100,32
1,73,100,64
1,71,100,64
1,68,100,32
1,68,100,64
1,68,100,64
1,68,100,4
1,68,100,292
1,71,100,4
1,76,100,4
1,75,100,4
1,75,100,4
1,75,100,448
1,75,100,32
1,75,100,4
1,75,100,32
1,73,100,4
1,71,100,32
1,68,100,32
1,68,100,4
1,68,100,4
1,68,100,196
1,71,100,64
1,76,100,64
1,75,100,4
1,75,100,4
1,75,100,64
1,75,100,64
1,75,100,32
1,75,100,64
1,71,100,384
1,74,100,32
1,74,100,64
1,74,100,64
1,74,100,64
1,74,100,64
1,73,100,64
1,72,100,1984
1,72,100,64
1,72,100,64
1,72,100,64
1,72,100,64
1,72,100,64
1,72,100,32
1,71,100,4
1,71,100,4
1,68,100,1252
1,71,100,4
1,71,100,4
1,71,100,4
1,71,100,4
1,71,100,4
1,69,100,4
1,68,100,4
1,69,100,4
1,71,100,4
1,71,100,4
1,71,100,4
1,71,100,4
1,71,100,4
1,69,100,4
1,68,100,4
1,69,100,4
1,67,100,0
1,67,100,4
1,67,100,4
1,67,100,4
1,67,100,4
1,67,100,4
1,71,100,4
1,79,100,4
1,78,100,4
1,78,100,4
1,74,100,1060
1,77,100,4
1,77,100,4
1,77,100,4
1,77,100,4
1,77,100,4
1,77,100,4
1,76,100,4
1,74,100,4
1,76,100,4
1,76,100,4
1,74,100,1060
1,71,100,4
1,71,100,4
1,71,100,4
1,71,100,4
1,71,100,4
1,71,100,4
1,74,100,292
1,71,100,4
1,71,100,4
1,71,100,4
1,71,100,4
1,71,100,4
1,71,100,4
1,71,100,388
1,71,100,4
1,71,100,4
1,71,100,4
1,71,100,4
1,71,100,4
1,71,100,4
1,74,100,4
1,71,100,4
1,71,100,4
1,67,100,1156
1,67,100,4
1,67,100,4
1,67,100,4
1,67,100,4
1,67,100,4
1,71,100,4
1,74,100,4
1,78,100,4
1,78,100,4
1,74,100,964
1,76,100,4
1,77,100,4
1,77,100,4
1,77,100,4
1,77,100,4
1,77,100,4
1,76,100,4
1,74,100,4
1,76,100,4
1,76,100,4
1,74,100,1060
1,71,100,4
1,71,100,4
1,71,100,4
1,71,100,4
1,71,100,4
1,71,100,4
1,71,100,4
1,74,100,4
1,71,100,4
1,71,100,4
1,74,100,0
1,74,100,4
1,74,100,4
1,74,100,4
1,74,100,4
1,74,100,4
1,74,100,4
1,74,100,4
1,66,100,292
1,71,100,4
1,71,100,4
1,71,100,4
1,71,100,4
1,71,100,4
1,71,100,4
1,62,100,292
1,69,100,4
1,69,100,4
1,69,100,4
1,69,100,4
1,69,100,4
1,57,100,196
1,66,100,4
1,66,100,4
1,66,100,4
1,66,100,4
1,64,100,4
1,66,100,1828
1,71,100,4
1,71,100,4
1,71,100,4
1,71,100,4
1,69,100,772
1,69,100,4
1,69,100,4
1,69,100,4
1,69,100,4
1,69,100,4
1,57,100,292
1,66,100,4
1,66,100,4
1,66,100,4
1,66,100,4
1,64,100,4
2,69,100,0
2,66,100,0
2,62,100,0
2,69,100,4
2,64,100,0
2,62,100,0
2,69,100,4
2,66,100,0
2,62,100,0
2,69,100,4
2,64,100,0
2,62,100,0
2,69,100,4
2,66,100,0
2,62,100,0
2,69,100,4
2,64,100,0
2,62,100,0
2,69,100,4
2,66,100,0
2,62,100,0
2,69,100,4
2,64,100,0
2,62,100,0
2,74,100,4
2,69,100,0
2,66,100,0
2,62,100,0
2,71,100,4
2,67,100,0
2,64,100,0
2,64,100,4
2,69,100,4
2,61,100,384
2,62,100,0
2,59,100,4
2,62,100,0
2,71,100,4
2,74,100,0
2,78,100,0
2,73,100,4
2,69,100,0
2,76,100,8
2,74,100,4
2,69,100,0
2,66,100,0
2,62,100,0
2,71,100,4
2,67,100,0
2,64,100,0
2,64,100,4
2,69,100,4
2,61,100,384
2,62,100,0
2,59,100,4
2,62,100,0
2,71,100,4
2,74,100,0
2,78,100,0
2,73,100,4
2,69,100,0
2,76,100,8
2,68,100,0
2,71,100,0
2,76,100,0
2,68,100,4
2,71,100,0
2,75,100,0
2,71,100,4
2,76,100,0
2,80,100,0
2,68,100,4
2,71,100,0
2,75,100,0
2,71,100,4
2,76,100,0
2,80,100,0
2,68,100,4
2,71,100,0
2,75,100,0
2,68,100,4
2,71,100,0
2,74,100,0
2,66,100,4
2,69,100,0
2,73,100,0
2,66,100,4
2,69,100,0
2,72,100,0
2,64,100,4
2,66,100,0
2,68,100,0
2,71,100,0
2,71,100,0
2,74,100,0
2,79,100,0
2,71,100,4
2,74,100,0
2,78,100,0
2,69,100,4
2,74,100,0
2,77,100,0
2,68,100,4
2,71,100,0
2,76,100,0
2,60,100,4
2,64,100,0
2,67,100,0
2,71,100,0
2,62,100,4
2,64,100,0
2,69,100,0
2,71,100,0
2,74,100,4
2,71,100,4
2,60,100,0
2,64,100,0
2,67,100,0
2,64,100,4
2,67,100,4
2,69,100,4
2,62,100,4
2,71,100,4
2,74,100,0
2,79,100,0
2,71,100,4
2,74,100,0
2,78,100,0
2,69,100,4
2,74,100,0
2,77,100,0
2,68,100,4
2,71,100,0
2,76,100,0
2,60,100,4
2,64,100,0
2,67,100,0
2,71,100,0
2,62,100,4
2,64,100,0
2,69,100,0
2,71,100,0
2,74,100,4
2,71,100,4
2,60,100,0
2,64,100,0
2,67,100,0
2,64,100,4
2,67,100,4
2,69,100,4
2,62,100,4
2,59,100,4
2,57,100,0
2,62,100,0
2,64,100,0
2,74,100,0
2,69,100,0
2,66,100,0
2,62,100,0
2,71,100,4
2,67,100,0
2,64,100,0
2,64,100,4
2,69,100,4
2,61,100,384
2,62,100,0
2,59,100,4
2,62,100,0
2,71,100,4
2,74,100,0
2,78,100,0
2,73,100,4
2,69,100,0
2,76,100,8
2,74,100,4
2,69,100,0
2,66,100,0
2,62,100,0
2,71,100,4
2,67,100,0
2,64,100,0
2,64,100,4
2,69,100,4
2,61,100,384
2,62,100,0
2,59,100,4
2,62,100,0
2,71,100,4
2,74,100,0
2,78,100,0
2,73,100,4
2,69,100,0
2,76,100,8
2,68,100,0
2,71,100,0
2,76,100,0
2,68,100,4
2,71,100,0
2,75,100,0
2,71,100,4
2,76,100,0
2,80,100,0
2,68,100,4
2,71,100,0
2,75,100,0
2,71,100,4
2,76,100,0
2,80,100,0
2,68,100,4
2,71,100,0
2,75,100,0
2,68,100,4
2,71,100,0
2,74,100,0
2,66,100,4
2,69,100,0
2,73,100,0
2,66,100,4
2,69,100,0
2,72,100,0
2,64,100,4
2,66,100,0
2,68,100,0
2,71,100,0
2,71,100,0
2,74,100,0
2,79,100,0
2,71,100,4
2,74,100,0
2,78,100,0
2,69,100,4
2,74,100,0
2,77,100,0
2,68,100,4
2,71,100,0
2,76,100,0
2,60,100,4
2,64,100,0
2,67,100,0
2,71,100,0
2,62,100,4
2,64,100,0
2,69,100,0
2,71,100,0
2,74,100,4
2,71,100,4
2,60,100,0
2,64,100,0
2,67,100,0
2,64,100,4
2,67,100,4
2,69,100,4
2,62,100,4
2,71,100,4
2,74,100,0
2,79,100,0
2,71,100,4
2,74,100,0
2,78,100,0
2,69,100,4
2,74,100,0
2,77,100,0
2,68,100,4
2,71,100,0
2,76,100,0
2,60,100,4
2,64,100,0
2,67,100,0
2,71,100,0
2,62,100,4
2,64,100,0
2,69,100,0
2,71,100,0
2,74,100,4
2,71,100,4
2,60,100,0
2,64,100,0
2,67,100,0
2,64,100,4
2,67,100,4
2,69,100,4
2,62,100,4
2,59,100,4
2,57,100,0
2,62,100,0
2,64,100,0
2,74,100,0
2,69,100,0
2,66,100,0
2,62,100,0
2,71,100,4
2,67,100,0
2,64,100,0
2,64,100,4
2,69,100,4
2,61,100,384
2,62,100,0
2,59,100,4
2,62,100,0
2,71,100,4
2,74,100,0
2,78,100,0
2,73,100,4
2,69,100,0
2,76,100,8
2,74,100,4
2,69,100,0
2,66,100,0
2,62,100,0
2,71,100,4
2,67,100,0
2,64,100,0
2,64,100,4
2,69,100,4
2,61,100,384
2,62,100,0
2,59,100,4
2,62,100,0
2,71,100,4
2,74,100,0
2,78,100,0
2,73,100,4
2,69,100,0
2,76,100,8
2,68,100,0
2,71,100,0
2,76,100,0
2,68,100,4
2,71,100,0
2,75,100,0
2,71,100,4
2,76,100,0
2,80,100,0
2,68,100,4
2,71,100,0
2,75,100,0
2,71,100,4
2,76,100,0
2,80,100,0
2,68,100,4
2,71,100,0
2,75,100,0
2,68,100,4
2,71,100,0
2,74,100,0
2,66,100,4
2,69,100,0
2,73,100,0
2,66,100,4
2,69,100,0
2,72,100,0
2,64,100,4
2,68,100,0
2,71,100,0
2,71,100,4
2,66,100,0
2,64,100,0
2,64,100,4
2,68,100,0
2,71,100,0
2,71,100,4
2,66,100,0
2,64,100,0
2,64,100,4
2,68,100,0
2,71,100,0
2,71,100,4
2,66,100,0
2,64,100,0
2,64,100,4
2,68,100,0
2,71,100,0
2,71,100,4
2,66,100,0
2,64,100,0
2,64,100,4
2,68,100,0
2,71,100,0
3,50,100,12288
3,50,100,64
3,45,100,256
3,50,100,32
3,45,100,128
3,50,100,32
3,45,100,160
3,52,100,32
3,52,100,64
3,47,100,256
3,52,100,32
3,47,100,128
3,52,100,32
3,54,100,192
3,54,100,64
3,49,100,256
3,54,100,32
3,49,100,128
3,54,100,32
3,50,100,160
3,55,100,32
3,55,100,64
3,50,100,256
3,55,100,32
3,50,100,128
3,57,100,32
3,50,100,192
3,50,100,64
3,45,100,256
3,50,100,32
3,45,100,128
3,50,100,32
3,45,100,160
3,52,100,32
3,52,100,64
3,47,100,256
3,52,100,32
3,47,100,128
3,52,100,32
3,54,100,192
3,54,100,64
3,49,100,256
3,54,100,32
3,49,100,128
3,54,100,32
3,50,100,160
3,55,100,32
3,55,100,64
3,50,100,256
3,55,100,32
3,50,100,128
3,57,100,32
3,52,100,0
3,52,100,64
3,47,100,256
3,52,100,32
3,47,100,128
3,52,100,32
3,47,100,160
3,56,100,32
3,56,100,64
3,51,100,256
3,56,100,32
3,51,100,128
3,56,100,32
3,52,100,192
3,52,100,64
3,47,100,256
3,52,100,32
3,47,100,128
3,52,100,32
3,47,100,160
3,56,100,32
3,56,100,64
3,51,100,256
3,56,100,32
3,51,100,128
3,56,100,32
3,52,100,192
3,52,100,64
3,47,100,256
3,52,100,32
3,47,100,128
3,52,100,32
3,47,100,160
3,56,100,32
3,56,100,64
3,51,100,256
3,56,100,32
3,51,100,128
3,56,100,32
3,56,100,192
3,56,100,64
3,51,100,256
3,56,100,32
3,51,100,128
3,56,100,32
3,54,100,192
3,54,100,64
3,49,100,256
3,54,100,32
3,49,100,128
3,54,100,32
3,54,100,192
3,54,100,64
3,49,100,256
3,54,100,32
3,49,100,128
3,54,100,32
3,52,100,192
3,52,100,64
3,47,100,256
3,52,100,32
3,47,100,128
3,52,100,32
3,47,100,160
3,52,100,32
3,52,100,64
3,47,100,256
3,52,100,32
3,47,100,128
3,52,100,32
3,55,100,0
3,55,100,4
3,55,100,100
3,50,100,4
3,55,100,4
3,50,100,100
3,52,100,4
3,50,100,4
3,55,100,4
3,50,100,4
3,59,100,4
3,59,100,4
3,54,100,196
3,59,100,4
3,54,100,100
3,59,100,4
3,50,100,4
3,50,100,4
3,45,100,196
3,50,100,4
3,45,100,100
3,50,100,4
3,45,100,8
3,52,100,4
3,52,100,4
3,47,100,196
3,52,100,4
3,47,100,100
3,52,100,4
3,48,100,4
3,48,100,4
3,43,100,196
3,48,100,4
3,43,100,100
3,48,100,4
3,43,100,8
3,50,100,4
