track,note,velocity,time
1,41,109,3072
1,43,103,36
1,31,116,384
1,43,105,14
1,36,118,192
1,36,118,64
1,36,111,46
1,43,103,10
1,43,101,34
1,41,105,2
1,41,111,46
1,29,107,384
1,41,109,176
1,31,111,170
1,31,103,44
1,43,114,192
1,31,116,188
1,48,118,8
1,48,107,24
1,36,111,8
1,48,103,16
1,36,111,96
1,43,103,12
1,43,107,54
1,41,105,52
1,41,116,48
1,29,114,384
1,29,98,36
1,31,121,36
1,43,109,384
1,31,103,90
1,43,105,14
1,36,116,2
1,36,123,78
1,36,114,40
1,31,123,50
1,31,118,66
1,29,114,216
1,29,111,40
1,41,116,96
1,29,118,182
1,31,126,0
1,31,121,62
1,43,121,0
1,31,127,8
1,43,121,12
1,36,118,72
1,43,105,0
1,36,118,64
1,36,111,46
1,43,103,10
1,43,101,34
1,41,105,2
1,41,111,46
1,29,107,384
1,41,109,176
1,31,111,170
1,31,103,44
1,43,114,192
1,31,116,188
1,48,118,8
1,48,107,24
1,36,111,8
1,48,103,16
1,36,111,96
1,43,103,12
1,43,107,54
1,41,105,52
1,41,116,48
1,29,114,384
1,29,98,36
1,31,121,36
1,43,109,384
1,31,103,90
1,43,105,14
1,36,116,2
1,36,123,78
1,36,114,40
1,31,123,50
1,31,118,66
1,29,114,216
1,29,111,40
1,41,116,96
1,29,118,182
1,31,126,0
1,31,121,62
1,43,121,0
1,31,127,8
1,43,121,12
1,36,118,72
1,43,105,0
1,36,118,64
1,36,111,46
1,43,103,10
1,43,101,34
1,41,105,2
1,41,111,46
1,29,107,384
1,41,109,176
1,31,111,170
1,31,103,44
1,43,114,192
1,31,116,188
1,48,118,8
1,48,107,24
1,36,111,8
1,48,103,16
1,36,111,96
1,43,103,12
1,43,107,54
1,41,105,52
1,29,111,48
1,41,121,96
1,29,118,184
1,41,121,74
1,41,118,56
1,29,123,96
1,29,121,38
1,41,121,96
1,29,121,176
1,41,116,80
1,29,121,92
1,41,109,64
1,31,118,72
1,31,121,34
1,31,121,78
1,43,123,96
1,31,118,184
1,43,123,84
1,31,123,190
1,43,121,92
1,31,118,182
1,31,127,50
1,43,126,96
1,48,103,64
1,48,90,18
1,48,98,4
1,48,92,14
1,48,103,2
1,48,109,38
1,46,96,96
1,46,103,56
1,46,121,36
1,41,92,26
1,41,101,22
1,41,114,48
1,48,121,18
1,48,90,8
1,48,116,16
1,48,111,16
1,48,114,6
1,48,127,10
1,46,123,10
1,46,116,68
1,46,116,88
1,41,114,28
1,41,116,36
1,41,126,34
1,41,111,18
1,48,103,36
1,48,90,18
1,48,98,4
1,48,92,14
1,48,103,2
1,48,109,38
1,46,96,96
1,46,103,56
1,46,121,36
1,41,92,26
1,41,101,22
1,41,114,48
1,48,121,18
1,48,90,8
1,48,116,16
1,48,111,16
1,48,114,6
1,48,127,10
1,46,123,10
1,46,116,68
1,46,116,88
1,41,114,28
1,41,116,36
1,41,126,34
1,41,111,18
1,48,103,36
1,48,90,18
1,48,98,4
1,48,92,14
1,48,103,2
1,48,109,38
1,46,96,96
1,46,103,56
1,46,121,36
1,41,92,26
1,41,101,22
1,41,114,48
1,48,121,18
1,48,90,8
1,48,116,16
1,48,111,16
1,48,114,6
1,48,127,10
1,46,123,10
1,46,116,68
1,46,116,88
1,41,114,28
1,41,116,36
1,41,126,34
1,41,111,18
1,48,103,36
1,48,90,18
1,48,98,4
1,48,92,14
1,48,103,2
1,48,109,38
1,46,96,96
1,46,103,56
1,46,121,36
1,41,92,26
1,41,101,22
1,41,114,48
1,31,121,18
1,31,121,18
1,31,118,40
1,31,118,48
1,31,118,48
1,31,118,32
1,31,118,42
1,38,123,2
1,43,111,4
1,38,123,0
1,31,127,4
1,36,118,380
1,43,105,0
1,36,118,64
1,36,111,46
1,43,103,10
1,43,101,34
1,41,105,2
1,41,111,46
1,29,107,384
1,41,109,176
1,31,111,170
1,31,103,44
1,43,114,192
1,31,116,188
1,48,118,8
1,48,107,24
1,36,111,8
1,48,103,16
1,36,111,96
1,43,103,12
1,43,107,54
1,41,105,52
1,41,116,48
1,29,114,384
1,29,98,36
1,31,121,36
1,43,109,384
1,31,103,90
1,43,105,14
1,36,116,2
1,36,123,78
1,36,114,40
1,31,123,50
1,31,118,66
1,29,114,216
1,29,111,40
1,41,116,96
1,29,118,182
1,31,126,0
1,31,121,62
1,43,121,0
1,31,127,8
1,43,121,12
1,36,118,72
1,43,105,0
1,36,118,64
1,36,111,46
1,43,103,10
1,43,101,34
1,41,105,2
1,41,111,46
1,29,107,384
1,41,109,176
1,31,111,170
1,31,103,44
1,43,114,192
1,31,116,188
1,48,118,8
1,48,107,24
1,36,111,8
1,48,103,16
1,36,111,96
1,43,103,12
1,43,107,54
1,41,105,52
1,29,111,48
1,41,121,96
1,29,118,184
1,41,121,74
1,41,118,56
1,29,123,96
1,29,121,38
1,41,121,96
1,29,121,176
1,41,116,80
1,29,121,92
1,41,109,64
1,31,118,72
1,31,121,34
1,31,121,78
1,43,123,96
1,31,118,184
1,43,123,84
1,31,123,190
1,43,121,92
1,31,118,182
1,31,127,50
1,43,126,96
1,48,103,64
1,48,90,18
1,48,98,4
1,48,92,14
1,48,103,2
1,48,109,38
1,46,96,96
1,46,103,56
1,46,121,36
1,41,92,26
1,41,101,22
1,41,114,48
1,48,121,18
1,48,90,8
1,48,116,16
1,48,111,16
1,48,114,6
1,48,127,10
1,46,123,10
1,46,116,68
1,46,116,88
1,41,114,28
1,41,116,36
1,41,126,34
1,41,111,18
1,48,103,36
1,48,90,18
1,48,98,4
1,48,92,14
1,48,103,2
1,48,109,38
1,46,96,96
1,46,103,56
1,46,121,36
1,41,92,26
1,41,101,22
1,41,114,48
1,48,121,18
1,48,90,8
1,48,116,16
1,48,111,16
1,48,114,6
1,48,127,10
1,46,123,10
1,46,116,68
1,46,116,88
1,41,114,28
1,41,116,36
1,41,126,34
1,41,111,18
1,48,103,36
1,48,90,18
1,48,98,4
1,48,92,14
1,48,103,2
1,48,109,38
1,46,96,96
1,46,103,56
1,46,121,36
1,41,92,26
1,41,101,22
1,41,114,48
1,48,121,18
1,48,90,8
1,48,116,16
1,48,111,16
1,48,114,6
1,48,127,10
1,46,123,10
1,46,116,68
1,46,116,88
1,41,114,28
1,41,116,36
1,41,126,34
1,41,111,18
1,48,103,36
1,48,90,18
1,48,98,4
1,48,92,14
1,48,103,2
1,48,109,38
1,46,96,96
1,46,103,56
1,46,121,36
1,41,92,26
1,41,101,22
1,41,114,48
1,48,103,18
1,48,90,18
1,48,98,4
1,48,92,14
1,48,103,2
1,48,109,38
1,46,96,96
1,46,103,56
1,46,121,36
1,41,92,26
1,41,101,22
1,41,114,48
1,31,127,18
1,31,121,32
1,31,118,44
1,31,118,42
1,31,121,24
1,31,114,52
1,31,118,40
1,43,103,8
1,38,90,96
1,31,121,86
1,31,121,42
1,31,123,40
1,31,127,36
1,31,126,46
1,31,127,48
1,31,121,38
1,31,127,56
1,49,114,3138
1,44,118,2
1,42,118,6
1,44,103,768
1,37,116,24
1,32,118,10
1,30,116,88
1,32,118,24
1,49,114,200
1,44,118,2
1,42,118,6
1,44,103,768
1,37,116,24
1,32,118,10
1,30,116,88
1,32,118,24
1,44,103,96
1,44,98,54
1,44,114,44
1,44,126,52
1,44,121,48
1,44,123,8
1,44,123,42
1,37,127,18
1,37,121,46
1,49,126,96
1,37,121,22
1,44,123,96
1,44,116,46
1,32,116,96
1,44,94,80
1,44,123,12
1,32,116,0
1,44,105,96
1,30,123,82
1,30,114,54
1,42,127,4
1,32,127,112
1,32,127,64
1,32,123,68
1,44,121,4
1,32,118,96
1,44,123,0
1,37,123,6
1,49,121,8
1,37,127,96
1,49,114,0
1,44,121,96
1,44,111,26
1,44,118,46
1,46,105,4
1,44,121,96
1,44,103,46
1,30,121,8
1,42,121,96
1,30,114,174
1,42,121,0
1,30,116,0
1,32,127,28
1,32,127,72
1,32,121,72
1,44,126,8
1,32,126,96
1,44,126,6
1,37,126,26
1,37,123,42
1,49,123,2
1,37,127,30
1,44,118,4
1,32,121,192
1,32,126,84
1,44,126,96
1,32,121,92
1,44,123,16
1,30,127,6
1,30,123,48
1,42,121,8
1,30,121,192
1,32,123,28
1,32,123,72
1,32,127,60
1,44,126,8
1,32,127,96
1,44,123,10
1,32,127,0
1,37,127,10
2,48,70,4608
2,53,50,560
2,60,41,0
2,57,52,0
2,41,57,0
2,43,53,4
2,48,66,344
2,55,54,78
2,59,57,0
2,62,53,0
2,55,56,104
2,59,55,0
2,62,58,0
2,60,52,56
2,53,57,0
2,57,60,0
2,41,57,0
2,41,59,130
2,60,52,0
2,53,53,0
2,57,53,0
2,43,68,22
2,55,72,192
2,59,89,192
2,55,78,138
2,48,89,16
2,55,85,192
2,60,68,192
2,64,85,80
2,67,85,0
2,60,91,0
2,64,89,42
2,60,89,0
2,67,89,0
2,62,89,26
2,55,87,0
2,59,89,0
2,55,89,56
2,62,91,0
2,59,95,0
2,48,102,8
2,41,93,52
2,53,85,96
2,57,95,0
2,60,87,0
2,53,70,72
2,60,82,0
2,57,87,0
2,60,105,30
2,57,100,0
2,53,89,0
2,60,95,74
2,57,89,0
2,53,85,0
2,43,105,36
2,55,95,184
2,62,100,0
2,59,102,0
2,59,98,48
2,55,89,0
2,62,100,0
2,55,87,18
2,62,91,0
2,59,87,0
2,55,89,84
2,62,100,0
2,59,95,0
2,55,95,78
2,48,100,0
2,67,98,0
2,64,98,0
2,60,95,0
2,67,102,24
2,60,100,0
2,64,100,0
2,67,105,38
2,60,102,0
2,64,110,0
2,43,85,54
2,62,95,0
2,59,95,0
2,55,91,0
2,55,85,8
2,62,95,0
2,59,95,0
2,41,98,8
2,53,85,0
2,60,91,0
2,57,91,0
2,53,87,56
2,41,98,0
2,57,95,0
2,60,102,0
2,53,68,6
2,57,68,96
2,43,102,6
2,50,95,192
2,55,80,20
2,59,91,0
2,62,98,0
2,55,100,308
2,48,105,0
2,55,91,46
2,48,93,0
2,67,89,0
2,60,85,0
2,64,95,0
2,60,93,38
2,64,100,0
2,55,91,0
2,48,91,0
2,67,98,0
2,62,85,36
2,55,80,0
2,59,89,0
2,55,89,48
2,59,98,0
2,62,100,0
2,41,91,28
2,60,87,0
2,57,93,0
2,53,87,0
2,60,98,48
2,53,91,0
2,57,102,0
2,41,95,0
2,53,80,2
2,57,70,40
2,60,61,26
2,43,102,16
2,55,95,192
2,59,91,2
2,62,91,0
2,55,98,16
2,48,102,0
2,55,87,16
2,48,85,0
2,60,80,0
2,67,89,0
2,64,91,0
2,48,91,28
2,55,98,0
2,64,102,0
2,60,95,0
2,67,102,0
2,62,93,6
2,55,93,0
2,59,98,0
2,62,100,44
2,55,87,0
2,59,89,0
2,41,80,50
2,60,98,0
2,53,85,0
2,57,98,0
2,60,100,48
2,57,100,0
2,53,91,0
2,41,91,0
2,53,72,4
2,57,87,62
2,60,87,24
2,43,105,30
2,55,91,192
2,62,100,192
2,59,91,0
2,55,95,68
2,48,100,0
2,67,98,0
2,64,98,0
2,60,95,0
2,67,102,24
2,60,100,0
2,64,100,0
2,67,105,38
2,60,102,0
2,64,110,0
2,43,85,54
2,62,95,0
2,59,95,0
2,55,91,0
2,55,85,8
2,62,95,0
2,59,95,0
2,41,98,8
2,53,85,0
2,60,91,0
2,57,91,0
2,53,87,56
2,41,98,0
2,57,95,0
2,60,102,0
2,53,68,6
2,57,68,96
2,43,102,6
2,50,95,192
2,55,80,20
2,59,91,0
2,62,98,0
2,55,100,308
2,48,105,0
2,55,91,46
2,48,93,0
2,67,89,0
2,60,85,0
2,64,95,0
2,60,93,38
2,64,100,0
2,55,91,0
2,48,91,0
2,67,98,0
2,62,85,36
2,55,80,0
2,59,89,0
2,55,89,48
2,59,98,0
2,62,100,0
2,41,91,28
2,60,87,0
2,57,93,0
2,53,87,0
2,41,74,48
2,53,58,0
2,57,68,0
2,53,74,38
2,57,85,0
2,41,89,0
2,41,82,106
2,53,63,0
2,57,85,0
2,60,85,0
2,60,100,20
2,53,85,0
2,57,100,0
2,41,107,0
2,53,72,60
2,57,85,0
2,60,82,0
2,41,89,0
2,53,85,32
2,60,105,0
2,57,102,0
2,41,105,0
2,53,59,60
2,57,70,0
2,41,93,0
2,60,58,0
2,53,80,48
2,60,105,0
2,57,95,0
2,41,102,0
2,53,80,88
2,60,87,0
2,57,89,0
2,41,98,0
2,53,80,46
2,60,91,0
2,57,89,0
2,41,102,0
2,53,85,58
2,57,93,0
2,60,100,0
2,41,98,0
2,53,78,56
2,57,91,0
2,60,93,0
2,41,102,0
2,59,85,8
2,62,100,0
2,55,87,0
2,43,100,0
2,59,89,2
2,62,87,0
2,55,85,0
2,43,100,0
2,55,98,52
2,59,110,0
2,62,100,0
2,43,105,0
2,59,82,54
2,62,87,0
2,55,85,0
2,43,100,0
2,59,107,8
2,62,107,0
2,55,102,0
2,43,107,0
2,43,100,36
2,62,74,0
2,55,68,0
2,59,89,0
2,43,102,16
2,62,102,0
2,59,100,0
2,55,89,0
2,55,74,74
2,59,87,0
2,62,91,0
2,43,93,0
2,59,98,54
2,62,102,0
2,43,105,0
2,55,89,0
2,55,76,48
2,43,100,0
2,59,89,0
2,62,89,0
2,43,102,38
2,59,89,0
2,55,74,0
2,62,89,0
2,43,102,56
2,62,95,0
2,59,95,0
2,55,89,0
2,43,113,52
2,59,102,0
2,55,87,0
2,62,102,0
2,46,105,3128
2,53,85,0
2,62,105,0
2,58,89,0
2,55,78,16
2,64,89,0
2,60,93,0
2,48,91,0
2,55,82,38
2,60,102,0
2,64,93,0
2,48,98,0
2,60,95,44
2,55,89,0
2,48,105,0
2,64,98,0
2,55,98,44
2,60,105,0
2,48,105,0
2,64,102,0
2,53,89,122
2,46,113,0
2,62,105,0
2,58,89,0
2,62,102,140
2,46,107,0
2,58,93,0
2,53,87,0
2,62,100,110
2,53,85,0
2,46,100,0
2,58,85,0
2,53,85,44
2,60,100,0
2,57,91,0
2,41,98,0
2,41,98,60
2,53,91,0
2,57,102,0
2,60,98,0
2,46,105,106
2,62,100,0
2,58,85,0
2,53,85,0
2,60,87,32
2,64,85,0
2,55,66,0
2,48,68,0
2,48,102,58
2,55,93,0
2,64,98,0
2,60,100,0
2,55,87,50
2,60,105,0
2,48,102,0
2,64,95,0
2,55,91,40
2,64,100,0
2,60,102,0
2,48,105,0
2,46,107,120
2,62,102,0
2,58,89,0
2,53,87,0
2,53,87,134
2,62,102,0
2,58,91,0
2,46,116,0
2,53,85,138
2,62,100,0
2,58,87,0
2,46,102,0
2,57,98,44
2,41,91,0
2,53,85,0
2,60,100,0
2,53,91,58
2,60,100,0
2,41,95,0
2,57,100,0
2,53,91,100
2,46,102,0
2,62,105,0
2,58,89,0
2,60,102,40
2,64,98,0
2,55,93,0
2,48,87,0
2,48,100,42
2,60,100,0
2,55,85,0
2,64,100,0
2,48,100,50
2,55,78,0
2,60,98,0
2,64,98,0
2,55,91,40
2,60,100,0
2,64,100,0
2,48,105,0
2,46,107,110
2,53,89,0
2,58,87,0
2,62,100,0
2,62,102,134
2,58,91,0
2,46,107,0
2,53,91,0
2,46,102,112
2,62,89,0
2,53,85,0
2,58,80,0
2,41,100,40
2,57,100,0
2,60,100,0
2,53,85,0
2,57,102,52
2,41,102,0
2,60,102,0
2,53,98,0
2,46,107,108
2,53,89,0
2,62,105,0
2,58,82,0
2,64,95,22
2,60,102,0
2,55,89,0
2,48,89,0
2,60,105,40
2,55,89,0
2,48,102,0
2,64,98,0
2,55,85,46
2,60,95,0
2,64,98,0
2,48,100,0
2,55,89,44
2,60,100,0
2,48,105,0
2,64,100,0
2,46,107,134
2,58,82,0
2,53,89,0
2,62,100,0
2,46,116,122
2,53,87,0
2,62,102,0
2,58,93,0
2,46,98,112
2,53,85,0
2,62,100,0
2,58,89,0
2,57,93,40
2,53,87,0
2,60,100,0
2,41,105,0
2,57,102,52
2,53,100,0
2,60,102,0
