track,note,velocity,time
1,62,80,576
1,65,76,0
1,50,72,1
1,69,64,0
1,65,0,140
1,65,63,0
1,69,0,0
1,69,61,0
1,62,0,2
1,62,39,3
1,65,0,42
1,62,0,1
1,62,79,0
1,69,0,0
1,65,65,2
1,69,59,0
1,62,0,141
1,65,0,2
1,65,59,0
1,69,0,0
1,69,60,0
1,65,0,47
1,65,55,0
1,69,0,0
1,62,71,2
1,50,0,1
1,50,63,1
1,69,47,0
1,69,0,47
1,69,39,1
1,62,0,11
1,65,0,11
1,62,65,72
1,69,0,1
1,65,67,1
1,69,67,1
1,69,0,91
1,69,61,0
1,62,0,1
1,65,0,1
1,65,65,0
1,62,51,3
1,69,0,90
1,62,0,2
1,62,47,0
1,65,0,0
1,65,59,2
1,57,39,2
1,62,0,43
1,58,73,1
1,43,68,1
1,65,0,0
1,50,0,1
1,57,0,1
1,67,55,0
1,62,59,1
1,58,0,139
1,58,55,1
1,62,0,2
1,62,63,0
1,67,0,0
1,67,61,2
1,58,0,43
1,55,51,3
1,58,65,1
1,67,43,0
1,62,61,1
1,67,0,34
1,62,0,14
1,43,0,91
1,43,63,0
1,55,0,2
1,62,0,0
1,58,0,1
1,58,71,1
1,67,0,0
1,67,43,0
1,62,61,1
1,67,0,46
1,67,59,1
1,58,0,78
1,62,0,5
1,58,37,10
1,67,0,2
1,62,48,1
1,67,39,0
1,58,0,44
1,67,0,1
1,67,51,0
1,58,63,2
1,62,0,0
1,62,69,0
1,67,0,93
1,58,0,2
1,58,61,0
1,62,0,0
1,67,51,0
1,62,67,1
1,43,0,92
1,58,0,2
1,67,0,0
1,67,37,0
1,62,0,1
1,62,56,0
1,58,50,3
1,64,51,43
1,67,0,0
1,60,65,1
1,62,0,0
1,67,51,1
1,48,63,2
1,58,0,0
1,64,0,139
1,60,0,1
1,60,59,1
1,67,0,0
1,64,63,3
1,67,47,1
1,60,0,43
1,60,65,0
1,64,0,2
1,64,51,0
1,67,0,2
1,67,43,0
1,67,0,47
1,67,31,0
1,60,0,21
1,64,31,25
1,60,23,2
1,67,0,35
1,64,0,10
1,64,69,1
1,60,0,1
1,60,63,1
1,67,55,2
1,48,0,46
1,55,43,1
1,67,0,1
1,64,23,44
1,48,63,2
1,67,51,0
1,60,55,2
1,64,0,22
1,55,0,4
1,64,0,65
1,67,0,0
1,67,59,0
1,60,0,2
1,60,0,0
1,60,63,0
1,60,15,1
1,64,73,2
1,64,0,49
1,67,0,41
1,60,0,2
1,60,0,0
1,60,15,0
1,64,0,0
1,67,55,0
1,60,63,4
1,64,69,0
1,60,0,91
1,67,0,0
1,60,0,1
1,60,55,0
1,67,39,0
1,64,0,3
1,55,62,44
1,58,63,0
1,60,0,0
1,67,0,1
1,43,63,2
1,67,43,0
1,62,55,1
1,48,0,46
1,55,0,93
1,58,0,0
1,62,0,1
1,62,67,0
1,55,43,1
1,58,61,0
1,67,0,0
1,67,59,0
1,62,0,46
1,58,0,1
1,58,63,0
1,67,0,0
1,67,43,49
1,62,43,3
1,55,0,16
1,58,0,7
1,67,0,69
1,58,59,3
1,62,0,0
1,67,51,1
1,62,65,1
1,43,63,46
1,55,39,46
1,43,0,1
1,67,0,1
1,62,0,1
1,62,61,0
1,55,0,92
1,58,0,0
1,62,0,0
1,62,73,0
1,55,59,1
1,58,71,1
1,67,65,0
1,62,0,93
1,55,0,1
1,62,48,0
1,58,0,1
1,67,0,0
1,58,47,1
1,67,35,3
1,62,0,90
1,58,0,2
1,43,0,1
1,58,56,1
1,62,48,0
1,67,0,1
1,62,0,30
1,58,0,7
1,62,89,10
1,65,77,0
1,50,72,1
1,69,70,0
1,65,0,140
1,65,63,0
1,69,0,0
1,69,61,0
1,62,0,2
1,62,39,3
1,65,0,42
1,62,0,1
1,62,79,0
1,69,0,0
1,65,65,2
1,69,59,0
1,62,0,141
1,65,0,2
1,65,59,0
1,69,0,0
1,69,60,0
1,65,0,47
1,65,55,0
1,69,0,0
1,62,71,2
1,50,0,1
1,50,63,1
1,69,47,0
1,69,0,47
1,69,39,1
1,62,0,11
1,65,0,11
1,62,65,72
1,69,0,1
1,65,67,1
1,69,67,1
1,69,0,91
1,69,61,0
1,62,0,1
1,65,0,1
1,65,65,0
1,62,51,3
1,69,0,90
1,62,0,2
1,62,47,0
1,65,0,0
1,65,59,2
1,57,39,2
1,62,0,43
1,58,73,1
1,43,68,1
1,65,0,0
1,50,0,1
1,57,0,1
1,67,55,0
1,62,59,1
1,58,0,139
1,58,55,1
1,62,0,2
1,62,63,0
1,67,0,0
1,67,61,2
1,58,0,43
1,55,51,3
1,58,65,1
1,67,43,0
1,62,61,1
1,67,0,34
1,62,0,14
1,43,0,91
1,43,63,0
1,55,0,2
1,62,0,0
1,58,0,1
1,58,71,1
1,67,0,0
1,67,43,0
1,62,61,1
1,67,0,46
1,67,59,1
1,58,0,78
1,62,0,5
1,58,37,10
1,67,0,2
1,62,48,1
1,67,39,0
1,58,0,44
1,67,0,1
1,67,51,0
1,58,63,2
1,62,0,0
1,62,69,0
1,67,0,93
1,58,0,2
1,58,61,0
1,62,0,0
1,67,51,0
1,62,67,1
1,43,0,92
1,58,0,2
1,67,0,0
1,67,37,0
1,62,0,1
1,62,56,0
1,58,50,3
1,64,51,43
1,67,0,0
1,60,65,1
1,62,0,0
1,67,51,1
1,48,63,2
1,58,0,0
1,64,0,139
1,60,0,1
1,60,59,1
1,67,0,0
1,64,63,3
1,67,47,1
1,60,0,43
1,60,65,0
1,64,0,2
1,64,51,0
1,67,0,2
1,67,43,0
1,67,0,47
1,67,31,0
1,60,0,21
1,64,31,25
1,60,23,2
1,67,0,35
1,64,0,10
1,64,69,1
1,60,0,1
1,60,63,1
1,67,55,2
1,48,0,46
1,55,43,1
1,67,0,1
1,64,23,44
1,48,63,2
1,67,51,0
1,60,55,2
1,64,0,22
1,55,0,4
1,64,0,65
1,67,0,0
1,67,59,0
1,60,0,2
1,60,0,0
1,60,63,0
1,60,15,1
1,64,73,2
1,64,0,49
1,67,0,41
1,60,0,2
1,60,0,0
1,60,15,0
1,64,0,0
1,67,55,0
1,60,63,4
1,64,69,0
1,60,0,91
1,67,0,0
1,60,0,1
1,60,55,0
1,67,39,0
1,64,0,3
1,55,62,44
1,58,63,0
1,60,0,0
1,67,0,1
1,43,63,2
1,67,43,0
1,62,55,1
1,48,0,46
1,55,0,93
1,58,0,0
1,62,0,1
1,62,67,0
1,55,43,1
1,58,61,0
1,67,0,0
1,67,59,0
1,62,0,46
1,58,0,1
1,58,63,0
1,67,0,0
1,67,43,49
1,62,43,3
1,55,0,16
1,58,0,7
1,67,0,69
1,58,59,3
1,62,0,0
1,67,51,1
1,62,65,1
1,43,63,46
1,55,39,46
1,43,0,1
1,67,0,1
1,62,0,1
1,62,61,0
1,55,0,92
1,58,0,0
1,62,0,0
1,62,73,0
1,55,59,1
1,58,71,1
1,67,65,0
1,62,0,93
1,55,0,1
1,62,48,0
1,58,0,1
1,67,0,0
1,58,47,1
1,67,35,3
1,62,0,90
1,58,0,2
1,43,0,1
1,58,56,1
1,62,48,0
1,67,0,1
1,62,0,30
1,58,0,7
1,62,89,10
1,65,77,0
1,50,72,1
1,69,70,0
1,65,0,140
1,65,63,0
1,69,0,0
1,69,61,0
1,62,0,2
1,62,39,3
1,65,0,42
1,62,0,1
1,62,79,0
1,69,0,0
1,65,65,2
1,69,59,0
1,62,0,141
1,65,0,2
1,65,59,0
1,69,0,0
1,69,60,0
1,65,0,47
1,65,55,0
1,69,0,0
1,62,71,2
1,50,0,1
1,50,63,1
1,69,47,0
1,69,0,47
1,69,39,1
1,62,0,11
1,65,0,11
1,62,65,72
1,69,0,1
1,65,67,1
1,69,67,1
1,69,0,91
1,69,61,0
1,62,0,1
1,65,0,1
1,65,65,0
1,62,51,3
1,69,0,90
1,62,0,2
1,62,47,0
1,65,0,0
1,65,59,2
1,57,39,2
1,62,0,43
1,58,73,1
1,43,68,1
1,65,0,0
1,50,0,1
1,57,0,1
1,67,55,0
1,62,59,1
1,58,0,139
1,58,55,1
1,62,0,2
1,62,63,0
1,67,0,0
1,67,61,2
1,58,0,43
1,55,51,3
1,58,65,1
1,67,43,0
1,62,61,1
1,67,0,34
1,62,0,14
1,43,0,91
1,43,63,0
1,55,0,2
1,62,0,0
1,58,0,1
1,58,71,1
1,67,0,0
1,67,43,0
1,62,61,1
1,67,0,46
1,67,59,1
1,58,0,78
1,62,0,5
1,58,37,10
1,67,0,2
1,62,48,1
1,67,39,0
1,58,0,44
1,67,0,1
1,67,51,0
1,58,63,2
1,62,0,0
1,62,69,0
1,67,0,93
1,58,0,2
1,58,61,0
1,62,0,0
1,67,51,0
1,62,67,1
1,43,0,92
1,58,0,2
1,67,0,0
1,67,37,0
1,62,0,1
1,62,56,0
1,58,50,3
1,64,51,43
1,67,0,0
1,60,65,1
1,62,0,0
1,67,51,1
1,48,63,2
1,58,0,0
1,64,0,139
1,60,0,1
1,60,59,1
1,67,0,0
1,64,63,3
1,67,47,1
1,60,0,43
1,60,65,0
1,64,0,2
1,64,51,0
1,67,0,2
1,67,43,0
1,67,0,47
1,67,31,0
1,60,0,21
1,64,31,25
1,60,23,2
1,67,0,35
1,64,0,10
1,64,69,1
1,60,0,1
1,60,63,1
1,67,55,2
1,48,0,46
1,55,43,1
1,67,0,1
1,64,23,44
1,48,63,2
1,67,51,0
1,60,55,2
1,64,0,22
1,55,0,4
1,64,0,65
1,67,0,0
1,67,59,0
1,60,0,2
1,60,0,0
1,60,63,0
1,60,15,1
1,64,73,2
1,64,0,49
1,67,0,41
1,60,0,2
1,60,0,0
1,60,15,0
1,64,0,0
1,67,55,0
1,60,63,4
1,64,69,0
1,60,0,91
1,67,0,0
1,60,0,1
1,60,55,0
1,67,39,0
1,64,0,3
1,55,62,44
1,58,63,0
1,60,0,0
1,67,0,1
1,43,63,2
1,67,43,0
1,62,55,1
1,48,0,46
1,55,0,93
1,58,0,0
1,62,0,1
1,62,67,0
1,55,43,1
1,58,61,0
1,67,0,0
1,67,59,0
1,62,0,46
1,58,0,1
1,58,63,0
1,67,0,0
1,67,43,49
1,62,43,3
1,55,0,16
1,58,0,7
1,67,0,69
1,58,59,3
1,62,0,0
1,67,51,1
1,62,65,1
1,43,63,46
1,55,39,46
1,43,0,1
1,67,0,1
1,62,0,1
1,62,61,0
1,55,0,92
1,58,0,0
1,62,0,0
1,62,73,0
1,55,59,1
1,58,71,1
1,67,65,0
1,62,0,93
1,55,0,1
1,62,48,0
1,58,0,1
1,67,0,0
1,58,47,1
1,67,35,3
1,62,0,90
1,58,0,2
1,43,0,1
1,58,56,1
1,62,48,0
1,67,0,1
1,62,0,30
1,58,0,7
1,62,92,10
1,65,80,0
1,50,75,1
1,69,73,0
1,65,0,140
1,65,66,0
1,69,0,0
1,69,64,0
1,62,0,2
1,62,42,3
1,65,0,42
1,62,0,1
1,62,82,0
1,69,0,0
1,65,68,2
1,69,62,0
1,62,0,141
1,65,0,2
1,65,62,0
1,69,0,0
1,69,63,0
1,65,0,47
1,65,58,0
1,69,0,0
1,62,74,2
1,50,0,1
1,50,66,1
1,69,50,0
1,69,0,47
1,69,42,1
1,62,0,11
1,65,0,11
1,62,68,72
1,69,0,1
1,65,70,1
1,69,70,1
1,69,0,91
1,69,64,0
1,62,0,1
1,65,0,1
1,65,68,0
1,62,54,3
1,69,0,90
1,62,0,2
1,62,50,0
1,65,0,0
1,65,62,2
1,57,42,2
1,62,0,43
1,58,76,1
1,43,71,1
1,65,0,0
1,50,0,1
1,57,0,1
1,67,58,0
1,62,62,1
1,58,0,139
1,58,58,1
1,62,0,2
1,62,66,0
1,67,0,0
1,67,64,2
1,58,0,43
1,55,54,3
1,58,68,1
1,67,46,0
1,62,64,1
1,67,0,34
1,62,0,14
1,43,0,91
1,43,66,0
1,55,0,2
1,62,0,0
1,58,0,1
1,58,74,1
1,67,0,0
1,67,46,0
1,62,64,1
1,67,0,46
1,67,62,1
1,58,0,78
1,62,0,5
1,58,40,10
1,67,0,2
1,62,51,1
1,67,42,0
1,58,0,44
1,67,0,1
1,67,54,0
1,58,66,2
1,62,0,0
1,62,72,0
1,67,0,93
1,58,0,2
1,58,64,0
1,62,0,0
1,67,54,0
1,62,70,1
1,43,0,92
1,58,0,2
1,67,0,0
1,67,40,0
1,62,0,1
1,62,59,0
1,58,53,3
1,64,54,43
1,67,0,0
1,60,68,1
1,62,0,0
1,67,54,1
1,48,66,2
1,58,0,0
1,64,0,139
1,60,0,1
1,60,62,1
1,67,0,0
1,64,66,3
1,67,50,1
1,60,0,43
1,60,68,0
1,64,0,2
1,64,54,0
1,67,0,2
1,67,46,0
1,67,0,47
1,67,34,0
1,60,0,21
1,64,34,25
1,60,26,2
1,67,0,35
1,64,0,10
1,64,72,1
1,60,0,1
1,60,66,1
1,67,58,2
1,48,0,46
1,55,46,1
1,67,0,1
1,64,26,44
1,48,66,2
1,67,54,0
1,60,58,2
1,64,0,22
1,55,0,4
1,64,0,65
1,67,0,0
1,67,62,0
1,60,0,2
1,60,0,0
1,60,66,0
1,60,18,1
1,64,76,2
1,64,0,49
1,67,0,41
1,60,0,2
1,60,0,0
1,60,18,0
1,64,0,0
1,67,58,0
1,60,66,4
1,64,72,0
1,60,0,91
1,67,0,0
1,60,0,1
1,60,58,0
1,67,42,0
1,64,0,3
1,55,65,44
1,58,66,0
1,60,0,0
1,67,0,1
1,43,66,2
1,67,46,0
1,62,58,1
1,48,0,46
1,55,0,93
1,58,0,0
1,62,0,1
1,62,70,0
1,55,46,1
1,58,64,0
1,67,0,0
1,67,62,0
1,62,0,46
1,58,0,1
1,58,66,0
1,67,0,0
1,67,46,49
1,62,46,3
1,55,0,16
1,58,0,7
1,67,0,69
1,58,62,3
1,62,0,0
1,67,54,1
1,62,68,1
1,43,66,46
1,55,42,46
1,43,0,1
1,67,0,1
1,62,0,1
1,62,64,0
1,55,0,92
1,58,0,0
1,62,0,0
1,62,76,0
1,55,62,1
1,58,74,1
1,67,68,0
1,62,0,93
1,55,0,1
1,62,51,0
1,58,0,1
1,67,0,0
1,58,50,1
1,67,38,3
1,62,0,90
1,58,0,2
1,43,0,1
1,58,59,1
1,62,51,0
1,67,0,1
1,62,0,30
1,58,0,7
1,62,88,10
1,65,76,0
1,50,71,1
1,69,69,0
1,65,0,140
1,65,62,0
1,69,0,0
1,69,60,0
1,62,0,2
1,62,38,3
1,65,0,42
1,62,0,1
1,62,78,0
1,69,0,0
1,65,64,2
1,69,58,0
1,62,0,141
1,65,0,2
1,65,58,0
1,69,0,0
1,69,59,0
1,65,0,47
1,65,54,0
1,69,0,0
1,62,70,2
1,50,0,1
1,50,62,1
1,69,46,0
1,69,0,47
1,69,38,1
1,62,0,11
1,65,0,11
1,62,64,72
1,69,0,1
1,65,66,1
1,69,66,1
1,69,0,91
1,69,60,0
1,62,0,1
1,65,0,1
1,65,64,0
1,62,50,3
1,69,0,90
1,62,0,2
1,62,46,0
1,65,0,0
1,65,58,2
1,57,38,2
1,62,0,43
1,58,72,1
1,43,67,1
1,65,0,0
1,50,0,1
1,57,0,1
1,67,54,0
1,62,58,1
1,58,0,139
1,58,54,1
1,62,0,2
1,62,62,0
1,67,0,0
1,67,60,2
1,58,0,43
1,55,50,3
1,58,64,1
1,67,42,0
1,62,60,1
1,67,0,34
1,62,0,14
1,43,0,91
1,43,62,0
1,55,0,2
1,62,0,0
1,58,0,1
1,58,70,1
1,67,0,0
1,67,42,0
1,67,0,47
1,67,58,1
1,58,0,78
1,62,0,5
1,58,36,10
1,67,0,2
1,62,47,1
1,67,38,0
1,58,0,44
1,67,0,1
1,67,50,0
1,58,62,2
1,62,0,0
1,62,68,0
1,67,0,93
1,58,0,2
1,58,60,0
1,62,0,0
1,67,50,0
1,62,66,1
1,43,0,92
1,58,0,2
1,67,0,0
1,67,36,0
1,62,0,1
1,62,55,0
1,58,49,3
