track,note,velocity,time
0,31,100,0
0,31,0,1
0,31,100,191
0,31,0,1
0,31,100,191
0,31,0,1
0,31,100,191
0,31,0,1
0,36,124,191
0,37,104,0
0,37,120,0
0,42,95,0
0,49,104,0
0,52,108,0
0,56,112,0
0,61,108,0
0,42,71,95
0,42,71,47
0,39,120,4
0,36,112,95
0,37,116,0
0,42,71,0
0,42,71,5
0,36,120,47
0,37,124,0
0,42,95,0
0,42,71,95
0,42,71,47
0,39,124,47
0,42,71,12
0,42,71,47
0,36,124,47
0,37,120,0
0,42,108,0
0,42,71,95
0,42,71,47
0,39,120,47
0,92,88,0
0,95,83,0
0,36,112,57
0,37,108,0
0,42,71,0
0,92,122,0
0,95,127,0
0,42,71,14
0,36,120,47
0,37,120,0
0,42,95,0
0,42,71,95
0,54,112,0
0,59,108,0
0,63,112,0
0,85,102,0
0,88,118,0
0,42,71,12
0,39,124,44
0,85,62,0
0,88,86,0
0,42,71,62
0,49,62,0
0,85,114,0
0,90,94,0
0,42,71,4
0,33,108,4
0,36,124,0
0,42,127,0
0,45,92,0
0,52,88,0
0,56,96,0
0,61,96,0
0,85,127,0
0,90,102,0
0,42,71,63
0,81,90,0
0,85,84,0
0,42,71,17
0,39,120,7
0,81,94,0
0,85,86,0
0,33,120,7
0,36,112,0
0,42,71,0
0,88,90,0
0,42,71,17
0,33,120,47
0,36,120,0
0,42,95,0
0,81,92,0
0,88,105,0
0,42,71,95
0,42,71,28
0,39,124,19
0,85,83,0
0,42,71,66
0,42,71,33
0,33,120,47
0,36,124,0
0,42,115,0
0,42,71,95
0,42,71,47
0,39,120,47
0,33,104,95
0,36,112,0
0,42,71,0
0,42,71,20
0,33,120,47
0,36,120,0
0,42,95,0
0,42,71,66
0,85,114,0
0,88,94,0
0,92,127,0
0,42,71,17
0,39,124,47
0,45,76,0
0,52,100,0
0,56,104,0
0,61,96,0
0,42,71,95
0,85,118,0
0,88,126,0
0,92,126,0
0,42,71,1
0,35,108,2
0,36,124,0
0,42,120,0
0,47,80,0
0,51,88,0
0,54,92,0
0,59,96,0
0,83,122,0
0,87,98,0
0,90,70,0
0,42,71,46
0,83,78,0
0,87,114,0
0,90,90,0
0,42,71,10
0,39,120,47
0,75,118,0
0,80,127,0
0,83,74,0
0,35,112,80
0,36,112,0
0,42,71,0
0,42,71,21
0,35,120,13
0,36,120,0
0,42,95,0
0,78,102,0
0,42,71,52
0,42,71,47
0,39,124,47
0,42,71,95
0,42,71,18
0,35,120,47
0,36,124,0
0,42,125,0
0,42,71,95
0,42,71,47
0,39,120,47
0,35,108,77
0,36,112,0
0,42,71,0
0,73,127,0
0,80,127,0
0,42,71,23
0,35,120,47
0,36,120,0
0,42,95,0
0,78,118,0
0,42,71,64
0,51,92,0
0,54,96,0
0,59,92,0
0,76,110,0
0,42,71,16
0,39,124,35
0,75,118,0
0,42,71,2
0,47,80,0
0,73,127,0
0,76,114,0
0,42,71,18
0,36,124,5
0,37,92,0
0,37,124,0
0,42,114,0
0,49,88,0
0,52,84,0
0,56,96,0
0,61,92,0
0,42,71,53
0,73,126,0
0,76,110,0
0,42,71,23
0,39,120,8
0,68,118,0
0,75,106,0
0,36,112,44
0,37,112,0
0,42,71,0
0,42,71,20
0,36,120,47
0,37,116,0
0,42,95,0
0,68,106,0
0,73,90,0
0,42,71,95
0,42,71,47
0,39,124,47
0,42,71,95
0,42,71,34
0,36,124,47
0,37,124,0
0,42,115,0
0,42,71,88
0,63,127,0
0,71,126,0
0,42,71,11
0,39,120,47
0,36,112,62
0,37,120,0
0,42,71,0
0,63,126,0
0,42,71,14
0,36,120,47
0,37,120,0
0,42,127,0
0,63,106,0
0,66,118,0
0,71,126,0
0,42,90,47
0,42,80,3
0,51,105,0
0,54,106,0
0,59,102,0
0,66,78,0
0,68,118,0
0,73,82,0
0,42,71,27
0,39,124,47
0,46,127,25
0,51,81,0
0,54,84,0
0,59,88,0
0,66,53,0
0,36,124,2
0,37,92,0
0,37,124,0
0,42,124,0
0,49,96,0
0,52,92,0
0,56,83,0
0,61,87,0
0,64,67,0
0,68,57,0
0,42,71,67
0,42,71,47
0,39,120,13
0,36,112,72
0,37,96,0
0,42,71,0
0,42,71,13
0,36,120,47
0,37,124,0
0,42,95,0
0,42,71,95
0,42,71,47
0,39,124,47
0,42,71,95
0,42,71,44
0,36,124,47
0,37,124,0
0,42,127,0
0,95,106,0
0,99,107,0
0,42,71,95
0,92,94,0
0,97,82,0
0,42,71,15
0,39,120,47
0,36,112,36
0,37,120,0
0,42,71,0
0,42,71,17
0,36,120,47
0,37,120,0
0,42,95,0
0,88,115,0
0,92,111,0
0,42,71,93
0,54,108,0
0,59,104,0
0,63,116,0
0,85,91,0
0,90,93,0
0,42,71,14
0,39,124,47
0,42,71,7
0,49,68,0
0,92,88,0
0,42,71,3
0,33,112,3
0,36,124,0
0,42,116,0
0,45,92,0
0,57,72,0
0,61,84,0
0,64,92,0
0,68,84,0
0,42,71,64
0,42,71,18
0,39,120,26
0,33,120,91
0,36,112,0
0,42,71,0
0,42,71,21
0,33,124,47
0,36,120,0
0,42,95,0
0,42,71,95
0,42,71,47
0,39,124,47
0,42,71,16
0,42,71,42
0,33,120,47
0,36,124,0
0,42,126,0
0,88,114,0
0,92,105,0
0,42,71,95
0,90,108,0
0,42,71,41
0,39,120,47
0,33,120,81
0,36,112,0
0,42,71,0
0,85,110,0
0,88,113,0
0,42,71,16
0,33,124,5
0,36,120,0
0,42,95,0
0,42,71,7
0,57,104,0
0,61,104,0
0,64,104,0
0,90,105,0
0,42,71,20
0,39,124,19
0,42,71,35
0,45,68,0
0,78,77,0
0,83,82,0
0,87,114,0
0,42,71,30
0,35,108,4
0,36,124,0
0,42,126,0
0,47,80,0
0,59,72,0
0,63,80,0
0,66,68,0
0,68,68,0
0,42,71,41
0,42,71,47
0,39,120,4
0,35,108,71
0,36,112,0
0,42,71,0
0,42,71,16
0,35,108,47
0,36,120,0
0,42,95,0
0,78,117,0
0,83,118,0
0,88,118,0
0,42,71,19
0,87,82,0
0,42,71,40
0,39,124,47
0,42,71,95
0,42,71,27
0,35,108,47
0,36,124,0
0,42,125,0
0,42,71,95
0,78,89,0
0,83,86,0
0,87,85,0
0,42,71,20
0,39,120,47
0,83,117,0
0,87,108,0
0,35,112,26
0,36,112,0
0,42,71,0
0,42,71,13
0,35,112,47
0,36,120,0
0,42,95,0
0,83,98,0
0,90,118,0
0,42,71,43
0,51,100,0
0,54,104,0
0,59,100,0
0,88,102,0
0,42,71,24
0,39,124,17
0,87,118,0
0,42,71,18
0,51,74,0
0,54,76,0
0,59,68,0
0,85,96,0
0,88,107,0
0,42,71,26
0,36,124,3
0,37,88,0
0,37,120,0
0,42,125,0
0,49,84,0
0,52,92,0
0,56,96,0
0,61,88,0
0,42,71,95
0,85,118,0
0,88,98,0
0,42,71,28
0,39,120,30
0,83,102,0
0,87,114,0
0,36,112,10
0,37,104,0
0,42,71,0
0,80,82,0
0,85,118,0
0,42,71,15
0,36,120,33
0,37,120,0
0,42,95,0
0,42,71,95
0,78,102,0
0,83,94,0
0,42,71,2
0,39,124,13
0,42,71,0
0,76,94,0
0,80,110,0
0,42,71,47
0,36,124,47
0,37,124,0
0,42,127,0
0,42,71,60
0,42,71,47
0,39,120,47
0,36,112,57
0,37,108,0
0,42,71,0
0,78,78,0
0,42,71,10
0,36,120,47
0,37,116,0
0,42,127,0
0,39,64,47
0,68,120,47
0,42,90,0
0,42,71,15
0,68,120,8
0,39,124,0
0,49,104,0
0,76,120,4
0,46,127,0
0,36,124,3
0,37,102,0
0,37,120,0
0,42,127,0
0,49,98,0
0,56,90,0
0,61,86,0
0,63,81,0
0,64,86,0
0,42,71,52
0,76,120,0
0,42,71,11
0,39,120,47
0,75,120,0
0,36,112,53
0,37,120,0
0,42,71,0
0,75,120,0
0,42,71,1
0,36,120,47
0,37,120,0
0,42,95,0
0,73,120,0
0,42,71,50
0,73,120,0
0,42,71,12
0,39,124,47
0,71,120,0
0,42,71,16
0,71,120,0
0,42,71,11
0,36,124,5
0,37,124,0
0,42,126,0
0,73,120,0
0,42,71,3
0,76,120,0
0,42,71,12
0,37,85,11
0,39,120,0
0,36,112,66
0,37,116,0
0,42,71,0
0,56,74,0
0,42,71,9
0,36,120,46
0,37,120,0
0,42,95,0
0,42,71,95
0,61,103,0
0,64,99,0
0,66,102,0
0,68,120,0
0,42,71,19
0,39,124,47
0,49,74,0
0,68,120,0
0,42,71,11
0,68,120,0
0,42,71,10
0,33,120,3
0,36,124,0
0,42,127,0
0,45,84,0
0,56,83,0
0,61,86,0
0,64,87,0
0,68,90,0
0,76,120,0
0,42,71,30
0,76,120,0
0,42,71,18
0,39,120,5
0,75,120,0
0,33,120,62
0,36,112,0
0,42,71,0
0,75,120,0
0,42,71,14
0,33,124,47
0,36,120,0
0,42,95,0
0,73,120,0
0,42,71,29
0,73,120,0
0,42,71,15
0,39,124,47
0,71,120,0
0,42,71,62
0,71,120,0
0,42,71,13
0,33,120,4
0,36,124,0
0,42,104,0
0,76,120,0
0,42,71,51
0,73,120,0
0,42,71,7
0,39,120,40
0,33,120,76
0,36,112,0
0,42,71,0
0,42,71,16
0,33,120,47
0,36,120,0
0,42,95,0
0,45,79,0
0,42,71,25
0,61,106,0
0,68,120,0
0,42,71,21
0,39,124,16
0,64,106,0
0,68,120,0
0,68,86,0
0,42,71,3
0,68,67,0
0,76,120,0
0,42,71,1
0,35,124,5
0,36,124,0
0,42,104,0
0,47,94,0
0,59,74,0
0,63,94,0
0,66,78,0
0,42,71,43
0,76,120,0
0,42,71,17
0,39,120,43
0,75,120,0
0,35,104,64
0,36,112,0
0,42,71,0
0,75,120,0
0,42,71,13
0,35,120,47
0,36,120,0
0,42,95,0
0,73,120,0
0,42,71,19
0,73,120,0
0,42,71,19
0,39,124,47
0,71,120,0
0,42,71,68
0,71,120,0
0,42,71,6
0,35,120,3
0,36,124,0
0,42,105,0
0,73,120,0
0,42,71,52
0,59,97,0
0,76,120,0
0,42,71,10
0,39,120,16
0,63,114,0
0,66,93,0
0,71,83,0
0,35,112,56
0,36,112,0
0,42,71,0
0,42,71,15
0,35,116,47
0,36,120,0
0,42,95,0
0,42,71,95
0,63,100,0
0,66,75,0
0,71,82,0
0,73,120,0
0,42,71,29
0,39,124,47
0,47,72,0
0,73,120,0
0,42,71,57
0,76,120,0
0,42,71,30
0,36,124,2
0,37,70,0
0,37,120,0
0,42,125,0
0,49,78,0
0,59,82,0
0,61,99,0
0,64,81,0
0,68,76,0
0,73,120,0
0,42,71,21
0,42,71,21
0,39,120,47
0,36,112,60
0,37,108,0
0,42,71,0
0,64,63,0
0,42,71,15
0,36,120,47
0,37,120,0
0,42,95,0
0,42,71,95
0,42,71,47
0,39,124,47
0,42,71,95
0,42,71,29
0,36,124,47
0,37,112,0
0,42,114,0
0,42,71,35
0,56,78,0
0,42,71,47
0,39,120,11
0,61,78,0
0,36,112,2
0,37,86,0
0,37,116,0
0,42,71,0
0,59,102,0
0,61,102,0
0,64,102,0
0,68,106,0
0,42,71,13
0,36,120,47
0,37,124,0
0,42,127,0
0,39,33,14
0,42,90,0
0,42,80,13
0,59,84,0
0,61,86,0
0,64,87,0
0,66,86,0
0,68,120,0
0,42,127,17
0,39,124,47
0,68,120,0
0,32,88,11
0,46,127,0
0,49,78,0
0,56,82,0
0,61,78,0
0,64,82,0
0,68,120,0
0,36,124,6
0,37,77,0
0,37,116,0
0,42,124,0
0,76,120,0
0,42,71,22
0,76,120,0
0,42,71,12
0,39,120,47
0,75,120,0
0,36,112,60
0,37,112,0
0,42,71,0
0,75,120,0
0,42,71,14
0,73,120,8
0,36,120,0
0,37,116,0
0,42,95,0
0,42,71,22
0,73,120,0
0,42,71,6
0,39,124,47
0,71,120,0
0,42,71,63
0,71,120,0
0,42,71,13
0,36,124,1
0,37,120,0
0,42,104,0
0,73,120,0
0,42,71,8
0,56,86,0
0,76,120,0
0,42,71,32
0,39,120,43
0,61,86,0
0,36,112,59
0,37,120,0
0,42,71,0
0,56,86,0
0,61,86,0
0,64,86,0
0,42,71,12
0,36,120,47
0,37,120,0
0,42,95,0
0,42,71,95
0,54,82,0
0,59,110,0
0,63,118,0
0,68,120,0
0,42,71,18
0,35,88,5
0,39,124,0
0,68,120,0
0,42,71,6
0,56,72,0
0,76,120,0
0,42,71,9
0,33,116,25
0,36,124,0
0,42,127,0
0,45,98,0
0,56,88,0
0,61,98,0
0,64,82,0
0,42,71,42
0,76,120,0
0,42,71,9
0,39,120,47
0,75,120,0
0,33,120,59
0,36,112,0
0,42,71,0
0,75,120,0
0,42,71,10
0,33,124,2
0,36,120,0
0,42,95,0
0,73,120,0
0,42,71,9
0,73,120,0
0,42,71,18
0,39,124,47
0,71,120,0
0,42,71,66
0,71,120,0
0,42,71,14
0,76,120,9
0,33,124,0
0,36,124,0
0,42,113,0
0,42,71,66
0,52,86,0
0,73,120,0
0,42,71,41
0,39,120,39
0,57,86,0
0,33,116,68
0,36,112,0
0,42,71,0
0,56,86,0
0,61,86,0
0,64,73,0
0,42,71,17
0,33,124,47
0,36,120,0
0,42,95,0
0,42,71,3
0,45,82,0
0,68,120,0
0,42,71,15
0,39,124,47
0,56,98,0
0,61,96,0
0,64,81,0
0,68,120,0
0,42,71,23
0,68,120,0
0,42,71,14
0,35,120,5
0,36,124,0
0,42,125,0
0,47,94,0
0,59,54,0
0,63,78,0
0,66,82,0
0,76,120,0
0,42,71,16
0,76,120,0
0,42,71,10
0,39,120,25
0,75,120,0
0,35,116,23
0,36,112,0
0,42,71,0
0,75,120,0
0,42,71,12
0,35,124,7
0,36,120,0
0,42,95,0
0,73,120,0
0,42,71,14
0,73,120,0
0,42,71,8
0,39,124,47
0,71,120,0
0,42,71,64
0,71,120,0
0,42,71,17
0,73,120,7
0,35,124,0
0,36,124,0
0,42,115,0
0,42,71,2
0,76,120,0
0,42,71,6
0,39,120,47
0,35,108,66
0,36,112,0
0,42,71,0
0,54,58,0
0,59,78,0
0,63,66,0
0,42,71,21
0,35,120,47
0,36,120,0
0,42,95,0
0,42,71,12
0,47,74,0
0,73,120,0
0,42,71,22
0,39,124,12
0,59,98,0
0,63,89,0
0,66,93,0
0,73,120,0
0,35,62,14
0,42,71,0
0,73,120,0
0,42,71,8
0,36,124,3
0,37,70,0
0,37,116,0
0,42,114,0
0,49,38,0
0,56,78,0
0,61,82,0
0,64,82,0
0,76,120,0
0,42,71,3
0,73,120,0
0,42,71,5
0,39,120,20
0,36,112,72
0,37,120,0
0,42,71,0
0,42,71,15
0,36,120,47
0,37,124,0
0,42,95,0
0,42,71,95
0,42,71,47
0,39,124,47
0,42,71,21
0,49,42,0
0,42,71,15
0,36,124,13
0,37,116,0
0,42,127,0
0,42,98,47
0,42,71,47
0,56,62,0
0,42,127,47
0,39,124,47
0,52,62,0
0,56,62,0
0,61,75,0
0,36,112,71
0,37,108,0
0,42,127,0
0,49,90,0
0,56,101,0
0,42,82,10
0,36,120,41
0,37,116,0
0,42,127,0
0,42,93,47
0,42,81,27
0,56,89,0
0,59,87,0
0,61,89,0
0,64,94,0
0,76,120,0
0,42,71,20
0,39,124,2
0,44,110,0
0,76,120,0
0,37,74,19
0,46,127,0
0,36,124,2
0,37,88,0
0,37,120,0
0,42,127,0
0,49,88,0
0,56,100,0
0,59,76,0
0,61,92,0
0,64,92,0
0,80,120,0
0,42,71,42
0,42,71,47
0,39,120,18
0,36,112,84
0,37,120,0
0,42,71,0
0,42,71,5
0,36,120,2
0,37,120,0
0,42,95,0
0,57,76,0
0,61,80,0
0,63,84,0
0,66,60,0
0,78,120,0
0,42,71,41
0,42,71,43
0,39,124,22
0,76,120,0
0,76,120,3
0,42,71,0
0,59,52,0
0,61,68,0
0,64,72,0
0,68,72,0
0,42,71,9
0,36,124,47
0,37,124,0
0,42,122,0
0,42,71,50
0,42,71,41
