track,note,velocity,time
1,67,55,6720
1,72,55,0
1,75,55,0
1,67,55,1
1,70,55,0
1,75,55,0
1,65,55,1
1,70,55,0
1,74,55,0
1,67,55,1
1,72,55,0
1,75,55,0
1,68,55,1
1,72,55,0
1,75,55,0
1,65,55,1
1,70,55,0
1,74,55,0
1,67,55,1
1,70,55,0
1,75,55,0
1,67,55,1
1,72,55,0
1,75,55,0
1,67,55,1
1,70,55,0
1,75,55,0
1,67,55,1
1,72,55,0
1,75,55,0
1,68,55,1
1,73,55,0
1,77,55,0
1,65,55,1
1,70,55,0
1,74,55,0
1,67,55,40
1,70,55,0
1,75,55,0
1,69,55,1
1,72,55,0
1,77,55,0
1,65,55,1
1,71,55,0
1,74,55,0
1,67,55,1
1,72,55,0
1,75,55,0
1,65,55,1
1,70,55,0
1,74,55,0
1,67,55,1
1,72,55,0
1,75,55,0
1,65,55,1
1,70,55,0
1,74,55,0
1,67,55,1
1,70,55,0
1,75,55,0
1,69,55,1
1,72,55,0
1,77,55,0
1,65,55,1
1,71,55,0
1,74,55,0
1,67,55,1
1,72,55,0
1,75,55,0
1,67,55,1
1,70,55,0
1,75,55,0
1,67,55,1
1,72,55,0
1,75,55,0
1,67,55,1
1,72,55,0
1,75,55,0
1,67,55,1
1,70,55,0
1,75,55,0
1,65,55,1
1,70,55,0
1,74,55,0
1,67,55,41
1,72,55,0
1,75,55,0
1,65,55,51
1,70,55,0
1,74,55,0
1,67,55,99
1,72,55,0
1,75,55,0
1,72,14,18451
1,72,60,811
1,75,51,0
1,79,68,0
2,48,68,576
2,43,76,384
2,44,64,11
2,39,72,384
2,48,76,6
2,43,80,1
2,41,76,384
2,41,37,335
2,53,36,0
2,65,34,0
2,68,55,9
2,72,76,9
2,74,59,16
2,75,56,9
2,74,60,48
2,72,62,43
2,70,51,3
2,75,60,7
2,60,55,3
2,67,59,1
2,48,56,1
2,72,57,0
2,75,60,112
2,72,62,1
2,67,50,2
2,43,44,4
2,65,45,5
2,74,24,1
2,55,42,8
2,70,59,8
2,74,80,16
2,74,64,7
2,65,45,2
2,70,40,3
2,67,47,12
2,75,62,1
2,44,47,1
2,72,60,0
2,56,43,1
2,72,68,109
2,67,59,2
2,75,62,0
2,51,33,12
2,75,62,0
2,63,51,3
2,70,57,0
2,67,59,1
2,67,50,18
2,70,72,18
2,75,62,30
2,75,62,14
2,48,53,1
2,60,55,1
2,67,59,1
2,72,64,1
2,67,62,0
2,75,64,1
2,72,64,1
2,67,62,6
2,43,9,52
2,70,68,13
2,65,60,2
2,74,76,0
2,55,55,1
2,74,60,18
2,65,56,1
2,70,53,0
2,72,76,10
2,41,62,1
2,53,50,2
2,68,60,2
2,63,52,2
2,72,56,2
2,63,33,4
2,68,30,6
2,43,57,3
2,55,60,1
2,74,64,1
2,71,60,1
2,65,48,4
2,74,85,87
2,65,72,1
2,71,76,1
2,43,62,7
2,65,85,1
2,48,28,20
2,60,46,0
2,67,52,0
2,72,56,0
2,75,76,0
2,67,48,47
2,67,85,43
2,72,89,0
2,75,85,0
2,67,60,13
2,51,37,48
2,63,51,19
2,67,72,0
2,70,72,0
2,75,62,0
2,67,31,8
2,67,60,67
2,70,60,0
2,75,62,0
2,67,41,55
2,50,64,2
2,62,68,0
2,65,68,0
2,70,62,0
2,74,72,0
2,65,31,12
2,65,80,56
2,70,72,0
2,74,93,0
2,65,60,10
2,48,68,9
2,60,68,0
2,67,68,0
2,72,72,0
2,75,72,0
2,67,50,6
2,72,89,1
2,67,38,35
2,75,93,13
2,67,52,24
2,72,17,0
2,72,59,1
2,41,85,8
2,53,76,0
2,68,57,0
2,72,98,0
2,75,72,0
2,68,53,15
2,68,76,45
2,72,89,0
2,75,76,0
2,68,39,26
2,68,64,48
2,72,68,0
2,75,68,0
2,68,62,20
2,46,68,15
2,58,72,0
2,74,98,0
2,70,80,16
2,65,80,5
2,51,68,4
2,63,80,0
2,67,93,0
2,70,85,0
2,75,80,0
2,67,56,7
2,67,85,41
2,70,85,0
2,75,80,0
2,67,68,6
2,48,85,18
2,60,85,0
2,67,89,0
2,72,93,0
2,75,76,0
2,67,60,9
2,67,89,36
2,72,93,0
2,75,76,0
2,67,93,2
2,46,64,48
2,58,93,29
2,67,98,0
2,70,93,0
2,75,89,0
2,67,68,6
2,67,89,44
2,70,93,0
2,75,72,0
2,67,62,10
2,48,76,20
2,60,89,0
2,67,85,0
2,72,98,0
2,75,80,0
2,67,68,10
2,67,89,39
2,72,93,0
2,75,80,0
2,67,68,53
2,49,76,9
2,61,72,0
2,68,85,0
2,73,89,0
2,77,85,0
2,68,59,2
2,68,85,61
2,73,85,0
2,77,98,0
2,68,59,41
2,46,57,20
2,58,60,0
2,65,76,0
2,70,72,0
2,74,89,0
2,65,28,16
2,70,89,2
2,65,72,42
2,65,85,7
2,74,93,0
2,70,59,48
2,65,56,15
2,51,68,14
2,63,76,0
2,67,89,0
2,70,85,0
2,75,76,0
2,67,59,18
2,67,89,59
2,70,89,0
2,75,76,0
2,67,64,5
2,51,23,13
2,63,47,48
2,67,62,0
2,70,60,0
2,75,60,0
2,67,62,28
2,70,68,0
2,75,60,0
2,67,60,34
2,70,93,0
2,75,80,0
2,67,62,31
2,70,98,0
2,75,89,0
2,67,80,32
2,70,107,0
2,75,98,0
2,51,76,32
2,63,93,12
2,67,85,0
2,70,76,0
2,75,85,0
2,50,80,5
2,62,89,0
2,69,93,0
2,72,89,0
2,77,89,0
2,69,85,28
2,72,80,0
2,77,64,0
2,69,89,69
2,72,102,0
2,77,93,0
2,69,89,51
2,72,76,0
2,77,85,0
2,43,55,28
2,55,76,10
2,65,76,0
2,71,89,0
2,74,55,0
2,65,72,21
2,71,72,0
2,74,76,0
2,65,89,3
2,71,89,0
2,74,85,0
2,65,85,64
2,71,76,0
2,74,80,0
2,48,72,10
2,60,93,0
2,67,76,0
2,72,93,0
2,75,80,0
2,48,40,22
2,67,55,0
2,67,85,5
2,72,89,0
2,75,80,0
2,67,59,8
2,43,85,7
2,55,76,0
2,65,85,0
2,70,80,0
2,74,98,0
2,65,62,3
2,65,85,51
2,70,51,0
2,74,93,0
2,65,62,19
2,70,68,0
2,74,80,0
2,67,62,31
2,75,42,0
2,56,68,12
2,72,62,0
2,75,93,0
2,67,57,4
2,67,89,59
2,72,89,0
2,75,85,0
2,67,59,7
2,46,56,21
2,58,76,17
2,65,80,0
2,70,89,0
2,74,93,0
2,65,72,9
2,46,44,30
2,65,102,47
2,70,113,0
2,65,62,21
2,74,76,0
2,65,98,26
2,70,102,0
2,74,93,0
2,51,76,17
2,63,80,0
2,67,89,0
2,70,89,0
2,75,85,0
2,67,44,14
2,67,85,47
2,70,102,0
2,75,93,0
2,67,76,14
2,50,85,20
2,62,89,0
2,69,93,0
2,72,102,0
2,77,89,0
2,69,85,6
2,43,85,9
2,55,93,0
2,65,89,0
2,71,89,0
2,74,98,0
2,65,62,11
2,48,80,61
2,60,85,0
2,67,89,0
2,72,89,0
2,75,85,0
2,67,64,5
2,46,89,22
2,58,93,0
2,67,98,0
2,70,89,0
2,75,80,0
2,67,85,3
2,45,85,11
2,57,93,0
2,67,93,0
2,72,102,0
2,75,98,0
2,67,85,3
2,67,60,28
2,75,34,0
2,44,72,36
2,56,93,0
2,67,62,0
2,72,89,0
2,75,89,0
2,70,68,17
2,63,93,1
2,51,72,1
2,63,76,0
2,67,93,0
2,70,85,0
2,75,76,0
2,67,59,23
2,67,89,48
2,70,89,0
2,75,85,0
2,67,72,1
2,46,59,27
2,58,68,5
2,65,80,0
2,70,80,0
2,74,93,0
2,65,47,11
2,65,89,47
2,70,85,0
2,74,89,0
2,65,62,9
2,48,93,18
2,60,85,0
2,67,93,0
2,72,98,0
2,75,85,0
2,46,85,6
2,58,89,0
2,65,89,0
2,70,93,0
2,74,93,0
2,44,73,104
2,56,73,0
2,67,86,0
2,72,73,0
2,75,77,0
2,63,85,842
2,67,76,0
2,70,80,0
2,75,76,0
2,67,89,95
2,70,98,0
2,75,98,0
2,51,80,9
2,67,76,9
2,70,9,14
2,55,85,17
2,65,85,0
2,70,72,0
2,74,89,0
2,65,89,95
2,70,102,0
2,74,89,0
2,65,64,9
2,55,31,15
2,60,89,3
2,67,89,0
2,72,85,0
2,75,76,0
2,67,80,70
2,72,76,0
2,75,80,0
2,67,32,2
2,60,55,36
2,55,72,20
2,65,85,0
2,70,76,0
2,74,89,0
2,65,85,64
2,70,76,0
2,74,89,0
2,65,62,1
2,56,93,12
2,67,93,0
2,72,85,0
2,75,80,0
2,64,76,795
2,68,76,0
2,71,93,0
2,76,89,0
2,68,47,99
2,71,51,0
2,68,50,69
2,71,52,0
2,76,44,0
2,68,56,75
2,71,80,0
2,76,68,0
2,68,56,3
2,71,76,0
2,76,52,0
2,68,62,76
2,71,89,0
2,76,89,0
2,68,72,66
2,71,85,0
2,76,76,0
2,55,98,44
2,65,89,0
2,70,80,0
2,74,93,0
2,65,59,17
2,70,56,0
2,74,56,0
2,65,80,74
2,70,76,0
2,74,89,0
2,65,62,63
2,70,60,0
2,74,68,0
2,65,93,75
2,70,85,0
2,74,98,0
2,65,59,63
2,70,59,0
2,74,72,0
2,65,89,71
2,70,80,0
2,74,89,0
2,65,89,55
2,70,80,0
2,74,89,0
2,55,36,14
2,54,102,17
2,70,89,0
2,73,93,0
2,78,89,0
2,70,64,37
2,73,60,0
2,78,62,0
2,70,98,66
2,73,89,0
2,78,76,0
2,70,59,54
2,73,51,0
2,78,52,0
2,70,72,59
2,73,80,0
2,78,76,0
2,70,68,66
2,73,72,0
2,78,60,0
2,70,68,71
2,73,89,0
2,78,85,0
2,70,85,55
2,73,89,0
2,78,76,0
2,54,60,24
2,57,113,0
2,67,89,0
2,72,89,0
2,76,98,0
2,67,72,29
2,72,60,0
2,76,62,0
2,67,89,67
2,72,89,0
2,76,76,0
2,67,72,66
2,72,62,0
2,76,76,0
2,57,85,12
2,67,85,0
2,72,93,0
2,76,89,0
2,67,72,40
2,72,72,0
2,76,72,0
2,67,89,70
2,72,93,0
2,76,102,0
2,67,85,56
2,72,85,0
2,76,93,0
2,61,80,56
2,68,76,0
2,72,93,0
2,77,76,0
2,68,64,41
2,72,80,0
2,77,60,0
2,68,85,6
2,72,93,0
2,77,93,0
2,68,64,34
2,72,80,0
2,77,62,0
2,68,80,55
2,72,93,0
2,77,85,0
2,68,60,58
2,72,76,0
2,77,60,0
2,68,89,53
2,72,93,0
2,77,89,0
2,68,62,49
2,72,80,0
2,77,76,0
2,61,31,10
2,64,89,48
2,68,80,0
2,71,98,0
2,76,76,0
2,43,57,170
2,71,55,4
2,67,46,1
2,74,46,0
2,55,53,1
2,69,55,1
2,74,27,15
2,67,51,68
2,69,57,283
2,74,62,0
2,60,46,14
2,67,52,0
2,72,56,0
2,75,76,0
2,67,48,47
2,67,85,43
2,72,89,0
2,75,85,0
2,67,60,13
2,63,51,19
2,67,72,0
2,70,72,0
2,75,62,0
2,67,31,8
2,67,60,67
2,70,60,0
2,75,62,0
2,67,41,55
2,62,68,2
2,65,68,0
2,70,62,0
2,74,72,0
2,65,31,12
2,65,80,56
2,70,72,0
2,74,93,0
2,65,60,10
2,60,68,9
2,67,68,0
2,72,72,0
2,75,72,0
2,67,50,15
2,72,89,1
2,67,38,35
2,75,93,13
2,67,52,24
2,72,17,0
2,72,59,1
2,53,76,8
2,68,57,0
2,72,98,0
2,75,72,0
2,68,53,15
2,68,76,45
2,72,89,0
2,75,76,0
2,68,39,26
2,68,64,48
2,72,68,0
2,75,68,0
2,68,62,20
2,58,72,15
2,74,98,0
2,70,80,16
2,65,80,5
2,63,80,4
2,67,93,0
2,70,85,0
2,75,80,0
2,67,56,7
2,67,85,41
2,70,85,0
2,75,80,0
2,67,68,10
2,60,85,18
2,67,89,0
2,72,93,0
2,75,76,0
2,67,60,9
2,67,89,36
2,72,93,0
2,75,76,0
2,67,93,2
2,58,93,29
2,67,98,0
2,70,93,0
2,75,89,0
2,67,68,6
2,67,89,44
2,70,93,0
2,75,72,0
2,67,62,10
2,60,89,20
2,67,85,0
2,72,98,0
2,75,80,0
2,67,68,10
2,67,89,39
2,72,93,0
2,75,80,0
2,67,68,53
2,61,72,9
2,68,85,0
2,73,89,0
2,77,85,0
2,68,59,2
2,68,85,61
2,73,85,0
2,77,98,0
2,68,59,41
2,58,60,49
2,65,76,0
2,70,72,0
2,74,89,0
2,65,28,16
2,70,89,2
2,65,72,42
2,65,85,7
2,74,93,0
2,70,59,48
2,65,56,15
2,63,76,14
2,67,89,0
2,70,85,0
2,75,76,0
2,67,59,18
2,67,89,59
2,70,89,0
2,75,76,0
2,67,64,5
2,63,47,61
2,67,62,0
2,70,60,0
2,75,60,0
2,67,62,28
2,70,68,0
2,75,60,0
2,67,60,34
2,70,93,0
2,75,80,0
2,67,62,31
2,70,98,0
2,75,89,0
2,67,80,32
2,70,107,0
2,75,98,0
2,63,93,12
2,67,85,0
2,70,76,0
2,75,85,0
2,62,89,5
2,69,93,0
2,72,89,0
2,77,89,0
2,69,85,28
2,72,80,0
2,77,64,0
2,69,89,69
2,72,102,0
2,77,93,0
2,69,89,51
2,72,76,0
2,77,85,0
2,55,76,10
2,65,76,0
2,71,89,0
2,74,55,0
2,65,72,21
2,71,72,0
2,74,76,0
2,65,89,71
2,71,89,0
2,74,85,0
2,65,85,64
2,71,76,0
2,74,80,0
2,60,93,10
2,67,76,0
2,72,93,0
2,75,80,0
2,67,55,22
2,67,85,5
2,72,89,0
2,75,80,0
2,67,59,8
2,55,76,7
2,65,85,0
2,70,80,0
2,74,98,0
2,65,62,3
2,65,85,51
2,70,51,0
2,74,93,0
2,65,62,19
2,70,68,0
2,74,80,0
2,67,62,31
2,75,42,0
2,56,68,12
2,72,62,0
2,75,93,0
2,67,57,4
2,67,89,59
2,72,89,0
2,75,85,0
2,67,59,7
2,58,76,17
2,65,80,0
2,70,89,0
2,74,93,0
2,65,72,9
2,65,102,47
2,70,113,0
2,65,62,21
2,74,76,0
2,65,98,26
2,70,102,0
2,74,93,0
2,63,80,17
2,67,89,0
2,70,89,0
2,75,85,0
2,67,44,14
2,67,85,47
2,70,102,0
2,75,93,0
2,67,76,14
2,62,89,20
2,69,93,0
2,72,102,0
2,77,89,0
2,69,85,6
2,55,93,9
2,65,89,0
2,71,89,0
2,74,98,0
2,65,62,11
2,60,85,61
2,67,89,0
2,72,89,0
2,75,85,0
2,67,64,5
2,46,89,22
2,58,93,0
2,67,98,0
2,70,89,0
2,75,80,0
2,67,85,3
2,57,93,11
2,67,93,0
2,72,102,0
2,75,98,0
2,67,85,3
2,67,60,28
2,75,34,0
2,56,93,36
2,67,62,0
2,72,89,0
2,75,89,0
2,70,68,17
2,63,93,1
2,63,76,1
2,67,93,0
2,70,85,0
2,75,76,0
2,67,59,23
2,67,89,48
2,70,89,0
2,75,85,0
2,67,72,1
2,58,68,5
2,65,80,0
2,70,80,0
2,74,93,0
2,65,47,11
2,65,89,47
2,70,85,0
2,74,89,0
2,65,62,9
2,60,85,18
2,67,93,0
2,72,98,0
2,75,85,0
2,58,89,6
2,65,89,0
2,70,93,0
2,74,93,0
2,56,73,104
2,67,86,0
2,72,73,0
2,75,77,0
2,51,35,842
2,67,10,0
2,70,53,1
2,75,62,22
2,39,25,78
2,51,14,0
2,67,11,380
2,70,13,9
2,75,55,3
2,67,10,27
3,36,85,6720
3,39,89,384
3,38,85,6
3,36,89,384
3,29,102,384
3,34,72,8
3,27,76,4
3,36,89,384
3,34,89,2
3,36,93,5
3,37,76,384
3,34,89,376
3,39,85,30
3,27,64,1
3,38,72,384
3,31,72,378
3,31,85,17
3,36,72,4
3,31,80,384
3,32,72,3
3,32,72,11
3,34,72,2
3,34,60,8
3,39,80,6
3,27,76,192
3,38,80,1
3,31,60,2
3,36,89,192
3,34,60,2
3,33,76,1
3,32,72,10
3,39,76,2
3,27,68,192
3,34,68,7
