track,note,velocity,time
3,31,90,4023
3,31,0,88
3,26,94,7
3,31,81,98
3,26,0,14
3,31,0,76
3,41,79,52
3,41,0,18
3,41,94,32
3,41,0,63
3,43,73,33
3,43,0,19
3,43,88,29
3,43,0,65
3,45,73,31
3,45,0,21
3,45,81,27
3,45,0,95
3,31,90,1
3,31,0,88
3,26,91,8
3,31,91,96
3,26,0,3
3,31,0,90
3,41,80,51
3,41,0,21
3,41,91,27
3,41,0,65
3,43,73,31
3,43,0,20
3,43,87,28
3,43,0,70
3,45,74,26
3,45,0,19
3,45,83,29
3,45,0,90
3,29,91,6
3,29,0,86
3,24,91,10
3,29,94,96
3,24,0,1
3,29,0,87
3,40,80,54
3,40,0,23
3,40,94,25
3,40,0,74
3,41,83,22
3,41,0,22
3,41,100,26
3,41,0,64
3,36,75,32
3,36,0,21
3,36,88,27
3,36,0,88
3,29,87,10
3,29,0,85
3,24,85,9
3,29,95,96
3,24,0,3
3,29,0,82
3,40,80,60
3,40,0,17
3,40,88,32
3,40,0,74
3,41,80,21
3,41,0,23
3,41,98,26
3,41,0,62
3,36,75,32
3,36,0,20
3,36,94,29
3,36,0,73
3,31,90,23
3,31,0,88
3,26,94,7
3,31,81,98
3,26,0,14
3,31,0,76
3,41,79,52
3,41,0,18
3,41,94,32
3,41,0,63
3,43,73,33
3,43,0,19
3,43,88,29
3,43,0,65
3,45,73,31
3,45,0,21
3,45,81,27
3,45,0,95
3,31,90,1
3,31,0,88
3,26,91,8
3,31,91,96
3,26,0,3
3,31,0,90
3,41,80,51
3,41,0,21
3,41,91,27
3,41,0,65
3,43,73,31
3,43,0,20
3,43,87,28
3,43,0,70
3,45,74,26
3,45,0,19
3,45,83,29
3,45,0,90
3,29,91,6
3,29,0,86
3,24,91,10
3,29,94,96
3,24,0,1
3,29,0,87
3,40,80,54
3,40,0,23
3,40,94,25
3,40,0,74
3,41,83,22
3,41,0,22
3,41,100,26
3,41,0,64
3,36,75,32
3,36,0,21
3,36,88,27
3,36,0,88
3,29,87,10
3,29,0,85
3,24,85,9
3,29,95,96
3,24,0,3
3,29,0,82
3,40,80,60
3,40,0,17
3,40,88,32
3,40,0,74
3,41,80,21
3,41,0,23
3,41,98,26
3,41,0,62
3,36,75,32
3,36,0,20
3,36,94,29
3,36,0,73
3,31,90,23
3,31,0,88
3,26,94,7
3,31,81,98
3,26,0,14
3,31,0,76
3,41,79,52
3,41,0,18
3,41,94,32
3,41,0,63
3,43,73,33
3,43,0,19
3,43,88,29
3,43,0,65
3,45,73,31
3,45,0,21
3,45,81,27
3,45,0,95
3,31,90,1
3,31,0,88
3,26,91,8
3,31,91,96
3,26,0,3
3,31,0,90
3,41,80,51
3,41,0,21
3,41,91,27
3,41,0,65
3,43,73,31
3,43,0,20
3,43,87,28
3,43,0,70
3,45,74,26
3,45,0,19
3,45,83,29
3,45,0,90
3,29,91,6
3,29,0,86
3,24,91,10
3,29,94,96
3,24,0,1
3,29,0,87
3,40,80,54
3,40,0,23
3,40,94,25
3,40,0,74
3,41,83,22
3,41,0,22
3,41,100,26
3,41,0,64
3,36,75,32
3,36,0,21
3,36,88,27
3,36,0,88
3,29,87,10
3,29,0,85
3,24,85,9
3,29,95,96
3,24,0,3
3,29,0,82
3,40,80,60
3,40,0,17
3,40,88,32
3,40,0,74
3,41,80,21
3,41,0,23
3,41,98,26
3,41,0,62
3,36,75,32
3,36,0,20
3,36,94,29
3,36,0,73
3,31,90,23
3,31,0,88
3,26,94,7
3,31,81,98
3,26,0,14
3,31,0,76
3,41,79,52
3,41,0,18
3,41,94,32
3,41,0,63
3,43,73,33
3,43,0,19
3,43,88,29
3,43,0,65
3,45,73,31
3,45,0,21
3,45,81,27
3,45,0,95
3,31,90,1
3,31,0,88
3,26,91,8
3,31,91,96
3,26,0,3
3,31,0,90
3,41,80,51
3,41,0,21
3,41,91,27
3,41,0,65
3,43,73,31
3,43,0,20
3,43,87,28
3,43,0,70
3,45,74,26
3,45,0,19
3,45,83,29
3,45,0,90
3,29,91,6
3,29,0,86
3,24,91,10
3,29,94,96
3,24,0,1
3,29,0,87
3,40,80,54
3,40,0,23
3,40,94,25
3,40,0,74
3,41,83,22
3,41,0,22
3,41,100,26
3,41,0,64
3,36,75,32
3,36,0,21
3,36,88,27
3,36,0,88
3,38,98,9
3,38,0,189
3,45,84,2
3,50,81,96
3,45,0,7
3,50,0,459
3,31,90,15
3,31,0,88
3,26,94,7
3,31,81,98
3,26,0,14
3,31,0,76
3,41,79,52
3,41,0,18
3,41,94,32
3,41,0,63
3,43,73,33
3,43,0,19
3,43,88,29
3,43,0,65
3,45,73,31
3,45,0,21
3,45,81,27
3,45,0,95
3,31,90,1
3,31,0,88
3,26,91,8
3,31,91,96
3,26,0,3
3,31,0,90
3,41,80,51
3,41,0,21
3,41,91,27
3,41,0,65
3,43,73,31
3,43,0,20
3,43,87,28
3,43,0,70
3,45,74,26
3,45,0,19
3,45,83,29
3,45,0,90
3,29,91,6
3,29,0,86
3,24,91,10
3,29,94,96
3,24,0,1
3,29,0,87
3,40,80,54
3,40,0,23
3,40,94,25
3,40,0,74
3,41,83,22
3,41,0,22
3,41,100,26
3,41,0,64
3,36,75,32
3,36,0,21
3,36,88,27
3,36,0,88
3,29,87,10
3,29,0,85
3,24,85,9
3,29,95,96
3,24,0,3
3,29,0,82
3,40,80,60
3,40,0,17
3,40,88,32
3,40,0,74
3,41,80,21
3,41,0,23
3,41,98,26
3,41,0,62
3,36,75,32
3,36,0,20
3,36,94,29
3,36,0,73
3,31,90,23
3,31,0,88
3,26,94,7
3,31,81,98
3,26,0,14
3,31,0,76
3,41,79,52
3,41,0,18
3,41,94,32
3,41,0,63
3,43,73,33
3,43,0,19
3,43,88,29
3,43,0,65
3,45,73,31
3,45,0,21
3,45,81,27
3,45,0,95
3,31,90,1
3,31,0,88
3,26,91,8
3,31,91,96
3,26,0,3
3,31,0,90
3,41,80,51
3,41,0,21
3,41,91,27
3,41,0,65
3,43,73,31
3,43,0,20
3,43,87,28
3,43,0,70
3,45,74,26
3,45,0,19
3,45,83,29
3,45,0,90
3,29,91,6
3,29,0,86
3,24,91,10
3,29,94,96
3,24,0,1
3,29,0,87
3,40,80,54
3,40,0,23
3,40,94,25
3,40,0,74
3,41,83,22
3,41,0,22
3,41,100,26
3,41,0,64
3,36,75,32
3,36,0,21
3,36,88,27
3,36,0,88
3,29,87,10
3,29,0,85
3,24,85,9
3,29,95,96
3,24,0,3
3,29,0,82
3,40,80,60
3,40,0,17
3,40,88,32
3,40,0,74
3,41,80,21
3,41,0,23
3,41,98,26
3,41,0,62
3,36,75,32
3,36,0,20
3,36,94,29
3,36,0,73
3,31,90,23
3,31,0,88
3,26,94,7
3,31,81,98
3,26,0,14
3,31,0,76
3,41,79,52
3,41,0,18
3,41,94,32
3,41,0,63
3,43,73,33
3,43,0,19
3,43,88,29
3,43,0,65
3,45,73,31
3,45,0,21
3,45,81,27
3,45,0,95
3,31,90,1
3,31,0,88
3,26,91,8
3,31,91,96
3,26,0,3
3,31,0,90
3,41,80,51
3,41,0,21
3,41,91,27
3,41,0,65
3,43,73,31
3,43,0,20
3,43,87,28
3,43,0,70
3,45,74,26
3,45,0,19
3,45,83,29
3,45,0,90
3,29,91,6
3,29,0,86
3,24,91,10
3,29,94,96
3,24,0,1
3,29,0,87
3,40,80,54
3,40,0,23
3,40,94,25
3,40,0,74
3,41,83,22
3,41,0,22
3,41,100,26
3,41,0,64
3,36,75,32
3,36,0,21
3,36,88,27
3,36,0,88
3,29,87,10
3,29,0,85
3,24,85,9
3,29,95,96
3,24,0,3
3,29,0,82
3,40,80,60
3,40,0,17
3,40,88,32
3,40,0,74
3,41,80,21
3,41,0,23
3,41,98,26
3,41,0,62
3,36,75,32
3,36,0,20
3,36,94,29
3,36,0,73
3,31,90,23
3,31,0,88
3,26,94,7
3,31,81,98
3,26,0,14
3,31,0,76
3,41,79,52
3,41,0,18
3,41,94,32
3,41,0,63
3,43,73,33
3,43,0,19
3,43,88,29
3,43,0,65
3,45,73,31
3,45,0,21
3,45,81,27
3,45,0,95
3,34,90,1
3,34,0,88
3,29,91,8
3,34,91,96
3,29,0,3
3,34,0,90
3,44,80,51
3,44,0,21
3,44,91,27
3,44,0,65
3,46,73,31
3,46,0,20
3,46,87,28
3,46,0,70
3,48,74,26
3,48,0,19
3,48,83,29
3,48,0,90
3,29,91,6
3,29,0,86
3,24,91,10
3,33,94,96
3,24,0,1
3,33,0,87
3,45,80,54
3,45,0,23
3,45,94,25
3,45,0,74
3,46,83,22
3,46,0,22
3,46,87,26
3,46,0,64
3,48,75,32
3,48,0,21
3,48,88,27
3,48,0,88
3,38,81,10
3,38,0,68
3,38,81,26
3,45,84,96
3,38,0,1
3,50,81,95
3,45,0,7
3,45,70,233
3,50,0,4
3,45,0,23
3,50,72,21
3,50,0,18
3,50,78,30
3,50,0,16
3,50,86,32
3,50,0,29
3,32,90,68
3,32,0,88
3,27,94,7
3,32,81,98
3,27,0,14
3,32,0,76
3,42,79,52
3,42,0,18
3,42,94,32
3,42,0,63
3,44,73,33
3,44,0,19
3,44,88,29
3,44,0,65
3,46,73,31
3,46,0,21
3,46,81,27
3,46,0,95
3,32,90,1
3,32,0,88
3,27,91,8
3,32,91,96
3,27,0,3
3,32,0,90
3,42,80,51
3,42,0,21
3,42,91,27
3,42,0,65
3,44,73,31
3,44,0,20
3,44,87,28
3,44,0,70
3,46,74,26
3,46,0,19
3,46,83,29
3,46,0,90
3,30,91,6
3,30,0,86
3,25,91,10
3,30,94,96
3,25,0,1
3,30,0,87
3,41,80,54
3,41,0,23
3,41,94,25
3,41,0,74
3,42,83,22
3,42,0,22
3,42,100,26
3,42,0,64
3,37,75,32
3,37,0,21
3,37,88,27
3,37,0,88
3,30,87,10
3,30,0,85
3,25,85,9
3,30,95,96
3,25,0,3
3,30,0,82
3,41,80,60
3,41,0,17
3,41,88,32
3,41,0,74
3,42,80,21
3,42,0,23
3,42,98,26
3,42,0,62
3,37,75,32
3,37,0,20
3,37,94,29
3,37,0,73
3,32,90,23
3,32,0,88
3,27,94,7
3,32,81,98
3,27,0,14
3,32,0,76
3,42,79,52
3,42,0,18
3,42,94,32
3,42,0,63
3,44,73,33
3,44,0,19
3,44,88,29
3,44,0,65
3,46,73,31
3,46,0,21
3,46,81,27
3,46,0,95
3,32,90,1
3,32,0,88
3,27,91,8
3,32,91,96
3,27,0,3
3,32,0,90
3,42,80,51
3,42,0,21
3,42,91,27
3,42,0,65
3,44,73,31
3,44,0,20
3,44,87,28
3,44,0,70
3,46,74,26
3,46,0,19
3,46,83,29
3,46,0,90
3,30,91,6
3,30,0,86
3,25,91,10
3,30,94,96
3,25,0,1
3,30,0,87
3,41,80,54
3,41,0,23
3,41,94,25
3,41,0,74
3,42,83,22
3,42,0,22
3,42,100,26
3,42,0,64
3,37,75,32
3,37,0,21
3,37,88,27
3,37,0,88
3,30,87,10
3,30,0,85
3,25,85,9
3,30,95,96
3,25,0,3
3,30,0,82
3,41,80,60
3,41,0,17
3,41,88,32
3,41,0,74
3,42,80,21
3,42,0,23
3,42,98,26
3,42,0,62
3,37,75,32
3,37,0,20
3,37,94,29
3,37,0,73
3,32,90,23
3,32,0,88
3,27,94,7
3,32,81,98
3,27,0,14
3,32,0,76
3,42,79,52
3,42,0,18
3,42,94,32
3,42,0,63
3,44,73,33
3,44,0,19
3,44,88,29
3,44,0,65
3,46,73,31
3,46,0,21
3,46,81,27
3,46,0,95
3,32,90,1
3,32,0,88
3,27,91,8
3,32,91,96
3,27,0,3
3,32,0,90
3,42,80,51
3,42,0,21
3,42,91,27
3,42,0,65
3,44,73,31
3,44,0,20
3,44,87,28
3,44,0,70
3,46,74,26
3,46,0,19
3,46,83,29
3,46,0,90
3,30,91,6
3,30,0,86
3,25,91,10
3,30,94,96
3,25,0,1
3,30,0,87
3,41,80,54
3,41,0,23
3,41,94,25
3,41,0,74
3,42,83,22
3,42,0,22
3,42,100,26
3,42,0,64
3,37,75,32
3,37,0,21
3,37,88,27
3,37,0,88
3,30,87,10
3,30,0,85
3,25,85,9
3,30,95,96
3,25,0,3
3,30,0,82
3,41,80,60
3,41,0,17
3,41,88,32
3,41,0,74
3,42,80,21
3,42,0,23
3,42,98,26
3,42,0,62
3,37,75,32
3,37,0,20
3,37,94,29
3,37,0,73
3,32,90,23
3,32,0,88
3,27,94,7
3,32,81,98
3,27,0,14
3,32,0,76
3,42,79,52
3,42,0,18
3,42,94,32
3,42,0,63
3,44,73,33
3,44,0,19
3,44,88,29
3,44,0,65
3,46,73,31
3,46,0,21
3,46,81,27
3,46,0,95
3,32,90,1
3,32,0,88
3,27,91,8
3,32,91,96
3,27,0,3
3,32,0,90
3,42,80,51
3,42,0,21
3,42,91,27
3,42,0,65
3,44,73,31
3,44,0,20
3,44,87,28
3,44,0,70
3,46,74,26
3,46,0,19
3,46,83,29
3,46,0,90
3,34,91,6
3,34,0,86
3,29,91,10
3,34,94,96
3,29,0,1
3,34,0,87
3,46,80,54
3,46,0,23
3,46,94,25
3,46,0,74
3,48,83,22
3,48,0,22
3,48,89,26
3,48,0,64
3,49,75,32
3,49,0,21
3,49,88,27
3,49,0,88
3,40,79,8
3,40,0,88
3,36,94,8
3,36,0,90
3,40,90,6
3,40,0,80
3,52,79,65
3,52,0,17
3,52,83,30
3,52,0,63
3,53,72,33
3,53,0,20
3,53,80,28
3,53,0,66
3,55,72,30
3,55,0,19
3,55,79,29
3,55,0,70
3,31,90,27
3,31,0,88
3,26,94,7
3,31,81,98
3,26,0,14
3,31,0,76
3,41,79,52
3,41,0,18
3,41,94,32
3,41,0,63
3,43,73,33
3,43,0,19
3,43,88,29
3,43,0,65
3,45,73,31
3,45,0,21
3,45,81,27
3,45,0,95
3,31,90,1
3,31,0,88
3,26,91,8
3,31,91,96
3,26,0,3
3,31,0,90
3,41,80,51
3,41,0,21
3,41,91,27
3,41,0,65
3,43,73,31
3,43,0,20
3,43,87,28
3,43,0,70
3,45,74,26
3,45,0,19
3,45,83,29
3,45,0,90
3,29,91,6
3,29,0,86
3,24,91,10
3,29,94,96
3,24,0,1
3,29,0,87
3,40,80,54
3,40,0,23
3,40,94,25
3,40,0,74
3,41,83,22
3,41,0,22
3,41,100,26
3,41,0,64
3,36,75,32
3,36,0,21
3,36,88,27
3,36,0,88
3,29,87,10
3,29,0,85
3,24,85,9
3,29,95,96
3,24,0,3
3,29,0,82
3,40,80,60
3,40,0,17
3,40,88,32
3,40,0,74
3,41,80,21
3,41,0,23
3,41,98,26
3,41,0,62
3,36,75,32
3,36,0,20
3,36,94,29
3,36,0,73
3,31,90,23
3,31,0,88
3,26,94,7
3,31,81,98
3,26,0,14
3,31,0,76
3,41,79,52
3,41,0,18
3,41,94,32
3,41,0,63
3,43,73,33
3,43,0,19
3,43,88,29
3,43,0,65
3,45,73,31
3,45,0,21
3,45,81,27
3,45,0,95
3,34,90,1
3,34,0,88
3,29,91,8
3,34,91,96
3,29,0,3
3,34,0,90
3,44,80,51
3,44,0,21
3,44,91,27
3,44,0,65
3,46,73,31
3,46,0,20
3,46,87,28
3,46,0,70
3,48,74,26
3,48,0,19
3,48,83,29
3,48,0,90
3,29,91,6
3,29,0,86
3,24,91,10
3,33,94,96
3,24,0,1
3,33,0,87
3,45,80,54
3,45,0,23
3,45,94,25
3,45,0,74
3,46,83,22
3,46,0,22
3,46,87,26
3,46,0,64
3,48,75,32
3,48,0,21
3,48,88,27
3,48,0,88
3,38,81,10
3,38,0,68
3,38,81,26
3,45,84,96
3,38,0,1
3,50,81,95
3,45,0,7
3,38,72,281
3,38,0,18
3,38,78,30
3,38,0,16
3,38,86,32
3,38,0,29
3,50,0,66
3,50,83,2
3,50,0,380
3,38,110,2
3,38,0,62
3,45,66,4175
3,45,0,20
3,45,87,28
3,45,0,48
3,46,68,48
3,46,0,15
