track,note,velocity,time
0,50,89,67
0,50,83,0
0,43,69,1
0,43,72,0
0,50,80,4
0,50,78,0
0,43,65,1
0,43,66,0
0,50,0,91
0,50,0,0
0,43,0,2
0,43,0,0
0,50,85,3
0,50,87,0
0,43,72,1
0,43,71,0
0,52,90,16
0,52,92,0
0,50,0,14
0,50,0,0
0,52,0,59
0,52,0,0
0,43,0,3
0,43,0,0
0,43,60,4
0,52,91,0
0,43,59,0
0,52,87,0
0,43,0,88
0,52,0,0
0,43,0,0
0,52,0,0
0,43,60,6
0,52,91,0
0,43,62,0
0,52,86,0
0,43,0,90
0,43,0,0
0,52,0,7
0,52,0,0
0,50,87,1
0,50,91,0
0,43,72,1
0,43,79,0
0,50,0,182
0,50,0,0
0,43,0,1
0,43,0,0
0,50,74,5
0,50,75,0
0,43,67,1
0,43,68,0
0,43,0,89
0,50,0,0
0,43,0,0
0,50,0,0
0,50,73,6
0,43,73,1
0,50,80,0
0,43,71,0
0,50,79,0
0,50,0,3
0,52,95,11
0,52,94,0
0,50,0,13
0,50,0,0
0,40,72,23
0,40,0,4
0,52,0,36
0,52,0,0
0,43,0,4
0,43,0,0
0,52,102,2
0,52,99,0
0,43,68,1
0,43,67,0
0,48,76,0
0,48,0,4
0,50,76,52
0,50,0,4
0,43,0,29
0,43,0,0
0,52,0,2
0,52,0,0
0,52,87,3
0,52,90,0
0,43,71,1
0,43,67,0
0,40,72,5
0,40,0,4
0,48,68,43
0,48,0,4
0,84,79,1
0,86,69,0
0,90,68,0
0,93,72,0
0,35,94,0
0,55,96,0
0,38,73,1
0,45,86,0
0,38,72,0
0,45,85,0
0,38,87,2
0,69,82,0
0,74,82,0
0,35,0,1
0,55,0,0
0,59,60,6
0,38,0,1
0,38,0,0
0,38,73,2
0,45,87,0
0,38,70,0
0,45,81,0
0,59,0,1
0,59,58,3
0,59,0,4
0,59,66,1
0,45,81,1
0,45,83,0
0,38,70,1
0,38,71,0
0,59,0,2
0,38,79,0
0,45,0,0
0,47,83,0
0,38,77,0
0,45,0,0
0,47,82,0
0,44,92,0
0,40,94,1
0,59,67,1
0,44,0,2
0,40,0,1
0,59,0,1
0,38,62,0
0,47,71,0
0,38,61,0
0,47,74,0
0,59,59,2
0,59,0,4
0,48,80,3
0,48,0,4
0,38,72,2
0,47,78,0
0,38,77,0
0,47,79,0
0,35,88,0
0,59,58,0
0,38,76,2
0,35,0,2
0,59,0,0
0,38,52,11
0,38,0,4
0,45,85,1
0,45,89,0
0,59,63,0
0,35,101,1
0,38,63,1
0,38,65,0
0,59,0,2
0,38,95,4
0,38,58,2
0,45,66,0
0,38,64,0
0,45,63,0
0,59,62,0
0,59,53,39
0,59,0,4
0,45,0,22
0,45,0,0
0,38,0,5
0,38,0,0
0,38,73,2
0,45,81,0
0,38,78,0
0,45,84,0
0,59,66,0
0,59,0,4
0,40,87,0
0,59,76,0
0,47,87,1
0,47,87,0
0,38,78,1
0,38,76,0
0,44,77,0
0,74,69,2
0,40,0,0
0,59,0,0
0,44,0,2
0,69,87,1
0,38,85,6
0,47,77,2
0,47,80,0
0,59,78,1
0,38,66,1
0,38,69,0
0,59,0,3
0,36,83,4
0,48,72,55
0,48,0,4
0,36,0,8
0,47,0,15
0,47,0,0
0,38,76,2
0,47,83,0
0,38,73,0
0,47,86,0
0,35,80,0
0,59,66,2
0,35,0,2
0,38,87,1
0,59,0,1
0,38,47,3
0,90,0,3
0,38,0,1
0,43,78,2
0,50,85,0
0,89,83,1
0,43,81,0
0,50,87,0
0,35,97,0
0,59,70,0
0,31,94,1
0,86,70,1
0,91,74,0
0,95,67,0
0,35,0,2
0,59,0,0
0,67,96,3
0,62,90,1
0,43,78,2
0,50,84,0
0,43,83,0
0,50,84,0
0,59,66,1
0,59,0,4
0,59,59,58
0,59,0,4
0,50,0,22
0,50,0,0
0,43,0,4
0,43,0,0
0,50,89,2
0,50,86,0
0,43,80,1
0,43,82,0
0,59,69,0
0,59,0,4
0,43,80,1
0,52,90,0
0,43,81,0
0,52,93,0
0,40,87,0
0,44,77,0
0,59,71,2
0,52,84,2
0,52,81,0
0,43,63,1
0,43,67,0
0,59,68,1
0,48,61,3
0,48,0,4
0,52,80,2
0,52,83,0
0,59,60,0
0,43,76,1
0,43,76,0
0,35,91,0
0,31,91,2
0,59,0,1
0,38,49,5
0,50,79,1
0,52,0,0
0,50,75,0
0,52,0,0
0,59,69,0
0,43,69,1
0,43,70,0
0,35,87,0
0,59,0,3
0,35,0,1
0,31,110,1
0,59,62,1
0,43,64,1
0,50,76,0
0,43,61,0
0,50,72,0
0,59,54,10
0,59,0,4
0,50,73,2
0,50,70,0
0,59,68,0
0,43,76,1
0,43,74,0
0,59,0,3
0,43,74,2
0,52,80,0
0,43,71,0
0,52,84,0
0,40,88,1
0,44,73,1
0,59,76,0
0,38,84,3
0,40,0,0
0,44,0,1
0,59,0,0
0,38,0,67
0,43,0,20
0,52,0,0
0,43,0,0
0,52,0,0
0,52,79,2
0,52,78,0
0,43,71,1
0,43,70,0
0,59,74,2
0,35,97,1
0,59,0,3
0,48,56,57
0,48,0,4
0,35,0,7
0,31,89,1
0,76,105,0
0,43,77,0
0,52,85,0
0,43,84,0
0,52,83,0
0,35,88,0
0,59,58,0
0,69,85,1
0,62,0,3
0,35,0,0
0,59,0,0
0,67,0,2
0,38,46,4
0,38,0,4
0,31,0,1
0,89,0,8
0,43,0,14
0,52,0,0
0,43,0,0
0,52,0,0
0,76,0,1
0,38,85,1
0,45,93,0
0,38,82,0
0,45,96,0
0,35,98,0
0,74,93,1
0,59,65,0
0,86,71,1
0,90,71,0
0,93,70,0
0,84,67,1
0,35,0,1
0,59,0,1
0,69,0,7
0,38,97,1
0,69,68,1
0,59,58,1
0,45,84,2
0,45,85,0
0,38,71,1
0,38,77,0
0,59,0,1
0,59,63,6
0,45,83,2
0,45,81,0
0,59,73,0
0,38,72,1
0,38,77,0
0,59,0,3
0,40,94,0
0,44,79,0
0,38,84,1
0,47,84,0
0,38,81,0
0,47,78,0
0,59,75,0
0,40,0,3
0,44,0,0
0,59,0,1
0,38,66,2
0,47,80,0
0,38,71,0
0,47,75,0
0,59,57,2
0,59,0,4
0,48,72,0
0,48,0,4
0,47,81,2
0,47,79,0
0,38,64,1
0,38,69,0
0,35,84,0
0,59,60,0
0,38,100,1
0,35,0,3
0,59,0,0
0,38,0,40
0,38,0,49
0,38,0,0
0,45,91,2
0,45,85,0
0,38,80,1
0,38,82,0
0,35,89,0
0,59,69,0
0,47,0,2
0,47,0,0
0,35,0,2
0,59,0,0
0,38,100,1
0,38,69,2
0,45,71,0
0,38,72,0
0,45,69,0
0,59,60,0
0,59,0,4
0,59,63,8
0,38,76,2
0,45,85,0
0,38,74,0
0,45,83,0
0,59,66,2
0,59,0,4
0,38,96,4
0,38,0,2
0,38,0,0
0,47,90,2
0,47,88,0
0,38,78,0
0,38,79,0
0,40,86,0
0,45,0,1
0,45,0,0
0,44,73,0
0,59,76,1
0,40,0,2
0,44,0,1
0,59,0,1
0,38,70,0
0,47,84,0
0,38,72,0
0,47,81,0
0,35,91,1
0,59,61,0
0,36,81,4
0,35,0,0
0,59,0,0
0,47,80,2
0,47,79,0
0,38,72,1
0,38,76,0
0,59,66,0
0,35,90,1
0,33,102,2
0,59,0,1
0,35,0,1
0,74,0,47
0,69,0,13
0,33,0,7
0,86,0,1
0,93,0,1
0,90,0,2
0,84,0,9
0,47,0,9
0,47,0,0
0,38,0,1
0,38,0,0
0,31,107,2
0,89,83,0
0,43,82,0
0,50,87,0
0,43,81,0
0,50,83,0
0,35,94,0
0,59,72,1
0,86,74,1
0,91,67,0
0,95,73,0
0,35,0,2
0,59,0,1
0,50,0,86
0,50,0,0
0,43,0,2
0,43,0,0
0,59,65,1
0,43,80,2
0,50,82,0
0,43,81,0
0,50,85,0
0,59,0,2
0,59,57,60
0,59,0,4
0,50,0,23
0,50,0,0
0,43,0,4
0,43,0,0
0,59,70,1
0,50,84,1
0,50,82,0
0,43,83,1
0,43,83,0
0,59,0,2
0,43,0,91
0,43,0,0
0,50,0,2
0,50,0,0
0,44,90,0
0,43,76,1
0,52,90,0
0,43,78,0
0,52,93,0
0,40,89,0
0,59,72,1
0,44,0,2
0,40,0,1
0,59,0,1
0,67,106,1
0,67,0,57
0,52,0,27
0,52,0,0
0,43,0,3
0,43,0,0
0,52,85,2
0,52,86,0
0,43,61,1
0,43,68,0
0,59,61,1
0,59,0,4
0,67,101,1
0,31,0,55
0,48,84,1
0,48,0,4
0,52,0,21
0,52,0,0
0,43,0,6
0,43,0,0
0,52,83,2
0,52,80,0
0,35,94,0
0,59,55,0
0,31,94,1
0,43,70,0
0,43,72,0
0,35,0,3
0,59,0,0
0,67,0,12
0,67,97,38
0,31,0,6
0,38,50,4
0,38,0,4
0,43,0,27
0,43,0,0
0,59,62,1
0,50,75,1
0,52,0,0
0,50,74,0
0,52,0,0
0,35,99,0
0,43,73,1
0,43,68,0
0,67,0,1
0,31,104,1
0,59,0,0
0,35,0,1
0,64,114,12
0,50,0,74
0,50,0,0
0,43,0,5
0,43,0,0
0,59,65,1
0,43,63,1
0,50,74,0
0,43,66,0
0,50,70,0
0,59,0,3
0,59,54,58
0,59,0,4
0,64,0,18
0,62,98,6
0,43,0,3
0,50,0,0
0,43,0,0
0,50,0,0
0,50,70,2
0,50,72,0
0,59,68,0
0,43,70,1
0,43,74,0
0,59,0,3
0,43,88,2
0,52,97,0
0,43,92,0
0,52,95,0
0,40,90,0
0,59,72,0
0,35,101,2
0,44,81,0
0,40,0,2
0,59,0,0
0,44,0,2
0,35,0,70
0,62,0,6
0,43,0,11
0,52,0,0
0,43,0,0
0,52,0,0
0,38,96,3
0,43,90,0
0,43,85,0
0,50,93,1
0,50,97,0
0,48,70,0
0,59,79,0
0,48,0,4
0,59,0,0
0,35,90,2
0,43,98,0
0,43,92,0
0,35,83,0
0,50,100,1
0,50,98,0
0,59,64,1
0,35,0,2
0,59,0,2
0,91,0,45
0,86,0,7
0,95,0,5
0,35,0,11
0,89,0,6
0,43,0,14
0,43,0,0
0,50,0,1
0,50,0,0
0,38,82,1
0,45,94,0
0,38,85,0
0,45,90,0
0,35,92,1
0,59,70,0
0,86,74,1
0,90,71,0
0,93,68,0
0,38,111,1
0,84,69,0
0,35,0,2
0,59,0,0
0,38,0,88
0,38,0,0
0,45,0,1
0,45,0,0
0,45,84,3
0,45,81,0
0,38,77,1
0,38,77,0
0,59,68,0
0,59,0,4
0,59,61,58
0,59,0,4
0,45,0,22
0,45,0,0
0,38,0,4
0,38,0,0
0,45,78,2
0,45,82,0
0,38,74,1
0,38,72,0
0,59,67,0
0,59,0,4
0,38,0,90
0,38,0,0
0,45,0,1
0,45,0,0
0,38,76,1
0,47,82,0
0,38,82,0
0,47,83,0
0,40,81,0
0,44,78,0
0,59,70,2
0,40,0,2
0,44,0,0
0,59,0,2
0,62,99,2
0,62,0,54
0,38,0,31
0,47,0,0
0,38,0,0
0,47,0,0
0,38,74,2
0,47,76,0
0,38,71,0
0,47,76,0
0,59,70,2
0,59,0,4
0,62,107,1
0,38,0,47
0,48,64,9
0,48,0,4
0,47,0,22
0,47,0,0
0,38,0,4
0,38,0,0
0,47,78,2
0,47,78,0
0,38,62,1
0,38,68,0
0,59,59,0
0,38,101,1
0,35,87,0
0,59,0,3
0,35,0,1
0,62,0,9
0,62,91,36
0,38,0,3
0,38,49,13
0,38,0,4
0,38,0,23
0,38,0,0
0,62,0,1
0,45,85,1
0,45,85,0
0,38,80,1
0,38,77,0
0,59,70,1
0,47,0,1
0,47,0,0
0,35,89,0
0,38,102,2
0,59,0,1
0,35,0,1
0,59,106,5
0,45,0,75
0,45,0,0
0,38,0,8
0,38,0,0
0,38,68,2
0,45,71,0
0,38,70,0
0,45,68,0
0,59,63,1
0,59,0,4
0,59,60,59
0,59,0,1
0,59,0,3
0,57,94,1
0,45,0,21
0,45,0,0
0,38,0,3
0,38,0,0
0,38,75,2
0,45,81,0
0,38,75,0
0,45,87,0
0,59,66,1
0,59,0,4
0,38,0,35
0,38,0,54
0,38,0,0
0,47,102,2
0,47,100,0
0,38,95,1
0,38,97,0
0,45,0,1
0,45,0,0
0,40,90,0
0,38,114,1
0,44,77,0
0,59,73,0
0,40,0,3
0,44,0,1
0,59,0,0
0,57,0,4
0,38,0,54
0,47,0,26
0,47,0,0
0,38,0,4
0,38,0,0
0,38,88,2
0,38,90,0
0,45,99,1
0,45,96,0
0,48,60,0
0,36,110,1
0,59,71,0
0,48,0,3
0,59,0,1
0,36,0,58
0,45,0,24
0,45,0,0
0,38,0,5
0,38,0,0
0,38,90,3
0,45,99,0
0,38,94,0
0,45,93,0
0,35,84,0
0,59,59,0
0,33,100,1
0,35,0,3
0,59,0,0
0,33,0,62
0,86,0,7
0,93,0,1
0,90,0,2
0,84,0,9
0,38,0,10
0,45,0,0
0,38,0,0
0,45,0,0
0,35,91,1
0,89,82,1
0,43,78,0
0,50,85,0
0,43,80,0
0,50,85,0
0,59,62,0
0,31,106,1
0,86,74,1
0,91,74,0
0,95,70,0
0,35,0,1
0,59,0,1
0,50,0,87
0,50,0,0
0,43,0,2
0,43,0,0
0,59,55,1
0,43,83,2
0,50,84,0
0,43,80,0
0,50,87,0
0,59,0,2
0,67,103,55
0,59,63,5
0,59,0,4
0,50,0,23
0,50,0,0
0,43,0,4
0,43,0,0
0,50,84,2
0,50,84,0
0,59,67,0
0,43,80,1
0,43,84,0
0,59,0,3
0,67,0,21
0,67,99,30
0,43,0,39
0,43,0,0
0,50,0,2
0,50,0,0
0,40,91,0
0,44,73,0
0,43,76,1
0,52,90,0
0,43,80,0
0,52,91,0
0,59,70,0
0,40,0,3
0,44,0,0
0,59,0,1
0,67,0,38
0,52,0,48
0,52,0,0
0,67,112,3
0,43,0,0
0,43,0,0
0,52,80,2
0,52,85,0
0,43,67,1
0,43,64,0
0,59,53,1
0,59,0,4
0,67,0,31
0,48,69,25
0,31,0,1
0,48,0,3
0,67,109,2
0,52,0,20
0,52,0,0
0,43,0,6
0,43,0,0
0,31,87,2
0,52,86,0
0,52,85,0
0,35,80,0
0,59,57,0
0,43,69,1
0,43,70,0
0,35,0,3
0,59,0,0
0,67,0,22
0,38,35,7
0,64,110,2
0,38,0,2
0,31,0,22
0,38,41,7
0,38,0,4
0,43,0,25
0,43,0,0
0,35,89,1
0,59,75,0
0,50,77,1
0,52,0,0
0,50,79,0
0,52,0,0
0,43,71,1
0,43,73,0
0,31,100,1
0,35,0,1
0,59,0,0
0,64,0,44
0,62,97,1
0,50,0,42
0,50,0,0
0,43,0,5
0,43,0,0
0,59,58,0
0,43,65,2
0,50,72,0
0,43,67,0
0,50,73,0
0,59,0,2
0,59,63,45
0,59,0,4
0,43,0,26
0,50,0,0
0,43,0,0
0,50,0,0
0,50,69,2
0,50,76,0
0,43,71,1
0,43,77,0
0,59,66,1
0,59,0,4
0,62,0,21
0,31,0,28
0,43,88,2
0,52,96,0
0,43,92,0
0,52,93,0
0,40,86,0
0,44,74,1
0,35,97,1
0,59,70,0
0,40,0,2
0,44,0,1
0,59,0,1
0,35,0,66
0,43,0,21
0,52,0,0
0,43,0,0
0,52,0,0
0,43,89,3
0,43,89,0
0,50,96,1
0,50,95,0
0,40,75,0
0,59,63,0
0,38,107,1
0,40,0,3
0,59,0,0
0,38,28,60
0,38,0,4
0,38,0,0
0,50,0,19
0,50,0,0
0,43,0,6
0,43,0,0
0,43,91,2
0,43,97,0
0,50,101,1
0,50,103,0
0,35,90,1
0,38,44,0
0,38,0,4
0,38,34,27
0,38,0,4
0,91,0,14
0,86,0,7
0,95,0,5
0,38,47,3
0,38,0,4
0,35,0,3
0,89,0,7
0,43,0,14
0,43,0,0
0,50,0,1
0,50,0,0
0,38,88,1
0,45,94,0
0,38,83,0
0,45,95,0
0,35,91,1
0,86,70,1
0,90,74,0
