track,note,velocity,time
1,67,100,768
1,67,100,8
1,64,100,8
1,71,100,8
1,69,100,8
1,66,100,1544
1,66,100,8
1,62,100,8
1,69,100,8
1,67,100,8
1,64,100,1544
1,64,100,8
1,60,100,8
1,67,100,8
1,66,100,8
1,62,100,1544
1,62,100,8
1,59,100,8
1,66,100,8
1,64,100,8
1,67,100,1544
1,67,100,8
1,64,100,8
1,71,100,8
1,69,100,8
1,66,100,1544
1,66,100,8
1,62,100,8
1,69,100,8
1,67,100,8
1,64,100,1352
1,64,100,8
1,64,100,8
1,60,100,8
1,67,100,8
1,66,100,8
1,62,100,1352
1,62,100,8
1,62,100,8
1,59,100,8
1,66,100,8
1,64,100,8
1,71,100,2312
1,71,100,8
1,71,100,8
1,71,100,8
1,71,100,8
1,72,100,8
1,71,100,8
1,72,100,8
1,71,100,8
1,69,100,8
1,69,100,8
1,69,100,8
1,69,100,8
1,69,100,8
1,69,100,8
1,71,100,8
1,69,100,8
1,71,100,8
1,69,100,8
1,67,100,8
1,67,100,8
1,67,100,8
1,67,100,8
1,67,100,8
1,67,100,8
1,69,100,8
1,69,100,8
1,69,100,8
1,69,100,776
1,69,100,776
1,69,100,8
1,67,100,8
1,71,100,8
1,71,100,392
1,71,100,8
1,71,100,8
1,71,100,8
1,71,100,8
1,72,100,8
1,71,100,8
1,72,100,8
1,71,100,8
1,69,100,8
1,69,100,8
1,69,100,8
1,69,100,8
1,69,100,8
1,69,100,8
1,71,100,8
1,69,100,8
1,71,100,8
1,69,100,8
1,67,100,8
1,67,100,8
1,67,100,8
1,67,100,8
1,67,100,8
1,67,100,8
1,69,100,8
1,69,100,8
1,69,100,8
1,69,100,776
1,69,100,776
1,69,100,8
1,67,100,8
1,71,100,8
1,67,100,968
1,67,100,8
1,67,100,8
1,64,100,8
1,71,100,8
1,69,100,8
1,66,100,1352
1,66,100,8
1,66,100,8
1,62,100,8
1,69,100,8
1,67,100,8
1,64,100,1352
1,64,100,8
1,64,100,8
1,60,100,8
1,67,100,8
1,66,100,8
1,62,100,1352
1,62,100,8
1,62,100,8
1,59,100,8
1,66,100,8
1,64,100,8
1,67,100,1352
1,67,100,8
1,67,100,8
1,64,100,8
1,71,100,8
1,72,100,8
1,71,100,8
1,69,100,8
1,66,100,8
1,66,100,392
1,66,100,8
1,66,100,8
1,66,100,8
1,62,100,8
1,69,100,8
1,67,100,8
1,64,100,1352
1,64,100,8
1,64,100,8
1,60,100,8
1,67,100,8
1,66,100,8
1,66,100,8
1,64,100,8
1,62,100,8
1,62,100,1352
1,62,100,8
1,62,100,8
1,59,100,8
1,66,100,8
1,64,100,8
1,71,100,2312
1,71,100,8
1,71,100,8
1,71,100,8
1,71,100,8
1,72,100,8
1,71,100,8
1,72,100,8
1,71,100,8
1,69,100,8
1,69,100,8
1,69,100,8
1,69,100,8
1,69,100,8
1,69,100,8
1,71,100,8
1,69,100,8
1,71,100,8
1,69,100,8
1,67,100,8
1,67,100,8
1,67,100,8
1,67,100,8
1,67,100,8
1,67,100,8
1,69,100,8
1,69,100,8
1,69,100,8
1,69,100,776
1,69,100,776
1,69,100,8
1,67,100,8
1,71,100,8
1,71,100,8
1,71,100,8
1,71,100,392
1,71,100,8
1,71,100,8
1,71,100,8
1,71,100,8
1,71,100,8
1,72,100,8
1,71,100,8
1,72,100,8
1,71,100,8
1,69,100,8
1,69,100,8
1,69,100,8
1,69,100,8
1,69,100,8
1,69,100,8
1,69,100,8
1,69,100,8
1,69,100,8
1,69,100,8
1,69,100,8
1,71,100,8
1,69,100,8
1,71,100,8
1,69,100,8
1,67,100,8
1,67,100,8
1,67,100,8
1,67,100,8
1,67,100,8
1,67,100,8
1,67,100,8
1,69,100,8
1,69,100,8
1,69,100,8
1,69,100,392
1,69,100,8
1,69,100,8
1,69,100,8
1,69,100,8
1,67,100,8
1,71,100,8
1,71,100,8
1,57,100,200
1,59,100,8
1,59,100,8
1,62,100,8
1,62,100,8
1,62,100,8
1,62,100,8
1,62,100,8
1,62,100,8
1,62,100,8
1,62,100,8
1,64,100,8
1,64,100,8
1,64,100,8
1,66,100,584
1,66,100,8
1,66,100,8
1,66,100,8
1,66,100,8
1,66,100,8
1,67,100,8
1,66,100,8
1,64,100,8
1,64,100,392
1,64,100,8
1,64,100,8
1,64,100,8
1,64,100,8
1,64,100,8
1,62,100,8
1,64,100,776
1,64,100,8
1,64,100,8
1,64,100,8
1,64,100,8
1,62,100,8
1,64,100,776
1,64,100,8
1,64,100,8
1,64,100,8
1,64,100,8
1,62,100,8
1,68,100,384
1,68,100,8
1,68,100,8
1,68,100,8
1,68,100,8
1,69,100,8
1,68,100,8
1,69,100,8
1,68,100,8
1,66,100,8
1,66,100,8
1,66,100,8
1,66,100,8
1,66,100,8
1,66,100,8
1,68,100,8
1,66,100,8
1,68,100,8
1,66,100,8
1,64,100,8
1,64,100,8
1,64,100,8
1,64,100,8
1,64,100,8
1,64,100,8
1,66,100,8
1,66,100,8
1,66,100,8
1,66,100,776
1,66,100,776
1,66,100,8
1,64,100,8
1,68,100,8
1,68,100,776
1,68,100,8
1,68,100,8
1,68,100,8
1,68,100,8
1,69,100,8
1,68,100,8
1,69,100,8
1,68,100,8
1,66,100,8
1,66,100,8
1,66,100,8
1,66,100,8
1,66,100,8
1,66,100,8
1,68,100,8
1,66,100,8
1,68,100,8
1,66,100,8
1,64,100,8
1,64,100,8
1,64,100,8
1,64,100,8
1,64,100,8
1,64,100,8
1,66,100,8
1,66,100,8
1,66,100,8
1,66,100,776
1,66,100,776
1,66,100,8
1,64,100,8
1,68,100,8
1,68,100,392
1,68,100,8
1,68,100,8
1,68,100,8
1,68,100,8
1,69,100,8
1,68,100,8
1,69,100,8
1,68,100,8
1,66,100,8
1,66,100,8
1,66,100,8
1,66,100,8
1,66,100,8
1,66,100,8
1,68,100,8
1,66,100,8
1,68,100,8
1,66,100,8
1,64,100,8
1,64,100,8
1,64,100,8
1,64,100,8
1,64,100,8
1,64,100,8
1,66,100,8
1,66,100,2312
1,66,100,8
1,64,100,8
1,68,100,8
1,68,100,392
1,68,100,8
1,68,100,8
1,68,100,8
1,68,100,8
1,69,100,8
1,68,100,8
1,69,100,8
1,68,100,8
1,66,100,8
1,66,100,8
1,66,100,8
1,66,100,8
1,66,100,8
1,66,100,8
1,68,100,8
1,66,100,8
1,68,100,8
1,66,100,8
1,64,100,8
1,64,100,8
1,64,100,8
1,64,100,8
1,64,100,8
1,64,100,8
1,66,100,8
1,66,100,2312
1,66,100,8
1,64,100,8
1,68,100,8
1,68,100,392
1,68,100,8
1,68,100,8
1,68,100,8
1,68,100,8
1,69,100,8
1,68,100,8
1,69,100,8
1,68,100,8
1,66,100,8
1,66,100,8
1,66,100,8
1,66,100,8
1,66,100,8
1,66,100,8
1,68,100,8
1,66,100,8
1,68,100,8
1,66,100,8
1,64,100,8
1,64,100,8
1,64,100,8
1,64,100,8
1,64,100,8
1,64,100,8
1,66,100,8
1,66,100,2312
1,66,100,8
1,64,100,8
1,68,100,8
1,68,100,392
1,68,97,8
1,68,96,8
1,68,93,8
1,68,89,8
1,69,86,8
1,68,81,8
1,69,80,8
1,68,78,8
1,66,77,8
1,66,75,8
1,66,72,8
1,66,70,8
1,66,67,8
1,66,64,8
1,68,61,8
1,66,56,8
1,68,54,8
1,66,53,8
1,64,51,8
1,64,50,8
1,64,47,8
1,64,45,8
1,64,42,8
1,64,39,8
1,66,35,8
1,66,12,2312
1,66,10,8
1,64,8,8
1,68,7,8
2,55,100,0
2,60,100,0
2,64,100,0
2,55,100,8
2,60,100,0
2,64,100,0
2,57,100,8
2,62,100,0
2,66,100,0
2,57,100,8
2,57,100,8
2,62,100,0
2,66,100,0
2,57,100,8
2,62,100,0
2,66,100,0
2,57,100,8
2,62,100,0
2,66,100,0
2,55,100,8
2,59,100,0
2,66,100,0
2,55,100,8
2,55,100,8
2,59,100,0
2,66,100,0
2,64,100,8
2,55,100,8
2,62,100,0
2,64,100,0
2,62,100,8
2,64,100,0
2,60,100,8
2,55,100,8
2,66,100,8
2,57,100,0
2,62,100,0
2,67,100,8
2,69,100,8
2,57,100,0
2,62,100,0
2,66,100,8
2,54,100,8
2,57,100,0
2,62,100,0
2,54,100,8
2,57,100,0
2,55,100,8
2,59,100,0
2,55,100,8
2,62,100,0
2,64,100,0
2,62,100,8
2,64,100,0
2,60,100,8
2,55,100,8
2,66,100,8
2,57,100,0
2,62,100,0
2,67,100,8
2,69,100,8
2,62,100,0
2,66,100,0
2,62,100,8
2,62,100,8
2,66,100,0
2,69,100,0
2,74,100,0
2,62,100,200
2,66,100,8
2,69,100,8
2,69,100,8
2,66,100,0
2,59,100,0
2,71,100,0
2,67,100,8
2,64,100,0
2,62,100,8
2,66,100,0
2,67,100,8
2,64,100,0
2,57,100,8
2,62,100,0
2,66,100,0
2,67,100,0
2,55,100,8
2,60,100,0
2,64,100,0
2,54,100,8
2,57,100,0
2,62,100,0
2,54,100,8
2,57,100,8
2,62,100,8
2,66,100,8
2,69,100,8
2,54,100,0
2,57,100,0
2,62,100,0
2,62,100,8
2,64,100,8
2,59,100,0
2,57,100,0
2,62,100,392
2,66,100,0
2,69,100,0
2,50,100,128
2,55,100,0
2,59,100,0
2,62,100,0
2,50,100,8
2,55,100,0
2,59,100,0
2,62,100,0
2,50,100,8
2,55,100,0
2,59,100,0
2,62,100,0
2,50,100,8
2,55,100,0
2,59,100,0
2,62,100,0
2,50,100,8
2,55,100,0
2,59,100,0
2,62,100,0
2,50,100,8
2,55,100,0
2,59,100,0
2,62,100,0
2,50,100,8
2,55,100,0
2,59,100,0
2,62,100,0
2,52,100,8
2,60,100,0
2,55,100,0
2,62,100,0
2,52,100,8
2,60,100,0
2,55,100,0
2,62,100,0
2,52,100,8
2,60,100,0
2,55,100,0
2,62,100,0
2,52,100,8
2,60,100,0
2,55,100,0
2,62,100,0
2,52,100,8
2,60,100,0
2,55,100,0
2,62,100,0
2,52,100,8
2,60,100,0
2,55,100,0
2,62,100,0
2,52,100,8
2,60,100,0
2,55,100,0
2,62,100,0
2,52,100,8
2,60,100,0
2,55,100,0
2,62,100,0
2,50,100,8
2,54,100,0
2,57,100,0
2,62,100,0
2,50,100,8
2,54,100,0
2,57,100,0
2,62,100,0
2,50,100,8
2,54,100,0
2,57,100,0
2,62,100,0
2,50,100,8
2,54,100,0
2,57,100,0
2,62,100,0
2,50,100,8
2,54,100,0
2,57,100,0
2,62,100,0
2,50,100,8
2,54,100,0
2,57,100,0
2,62,100,0
2,50,100,8
2,54,100,0
2,57,100,0
2,62,100,0
2,50,100,8
2,54,100,0
2,57,100,0
2,62,100,0
2,50,100,8
2,55,100,0
2,60,100,0
2,50,100,8
2,55,100,0
2,59,100,0
2,62,100,0
2,50,100,8
2,55,100,0
2,59,100,0
2,62,100,0
2,50,100,8
2,55,100,0
2,59,100,0
2,62,100,0
2,50,100,8
2,55,100,0
2,59,100,0
2,62,100,0
2,50,100,8
2,55,100,0
2,59,100,0
2,62,100,0
2,50,100,8
2,55,100,0
2,59,100,0
2,62,100,0
2,50,100,8
2,55,100,0
2,59,100,0
2,62,100,0
2,50,100,8
2,55,100,0
2,59,100,0
2,62,100,0
2,50,100,8
2,55,100,0
2,59,100,0
2,62,100,0
2,50,100,8
2,55,100,0
2,59,100,0
2,62,100,0
2,50,100,8
2,55,100,0
2,59,100,0
2,62,100,0
2,50,100,8
2,55,100,0
2,59,100,0
2,62,100,0
2,50,100,8
2,55,100,0
2,59,100,0
2,62,100,0
2,50,100,8
2,55,100,0
2,59,100,0
2,62,100,0
2,50,100,8
2,55,100,0
2,59,100,0
2,62,100,0
2,52,100,8
2,57,100,0
2,61,100,0
2,64,100,0
2,52,100,8
2,57,100,0
2,61,100,0
2,64,100,0
2,52,100,8
2,57,100,0
2,61,100,0
2,64,100,0
2,52,100,8
2,57,100,0
2,61,100,0
2,64,100,0
2,52,100,8
2,57,100,0
2,61,100,0
2,64,100,0
2,52,100,8
2,57,100,0
2,61,100,0
2,64,100,0
2,52,100,8
2,57,100,0
2,61,100,0
2,64,100,0
2,52,100,8
2,57,100,0
2,61,100,0
2,64,100,0
2,52,100,8
2,57,100,0
2,60,100,0
2,64,100,0
2,52,100,8
2,55,100,0
2,60,100,0
2,64,100,0
2,52,100,8
2,55,100,0
2,60,100,0
2,64,100,0
2,52,100,8
2,55,100,0
2,60,100,0
2,64,100,0
2,52,100,8
2,55,100,0
2,60,100,0
2,64,100,0
2,52,100,8
2,55,100,0
2,60,100,0
2,64,100,0
2,52,100,8
2,55,100,0
2,60,100,0
2,64,100,0
2,52,100,8
2,55,100,0
2,60,100,0
2,64,100,0
2,52,100,8
2,55,100,0
2,60,100,0
2,64,100,0
2,52,100,8
2,55,100,0
2,60,100,0
2,64,100,0
2,52,100,8
2,55,100,0
2,60,100,0
2,64,100,0
2,52,100,8
2,55,100,0
2,60,100,0
2,64,100,0
2,52,100,8
2,55,100,0
2,60,100,0
2,64,100,0
2,52,100,8
2,55,100,0
2,60,100,0
2,62,100,0
2,57,100,200
2,62,100,0
2,69,100,0
2,66,100,0
2,50,100,8
2,55,100,0
2,59,100,0
2,62,100,0
2,50,100,8
2,55,100,0
2,59,100,0
2,62,100,0
2,50,100,8
2,55,100,0
2,59,100,0
2,62,100,0
2,50,100,8
2,55,100,0
2,59,100,0
2,62,100,0
2,50,100,8
2,55,100,0
2,59,100,0
2,62,100,0
2,50,100,8
2,55,100,0
2,59,100,0
2,62,100,0
2,50,100,8
2,55,100,0
2,59,100,0
2,62,100,0
2,52,100,8
2,60,100,0
2,55,100,0
2,62,100,0
2,52,100,8
2,60,100,0
2,55,100,0
2,62,100,0
2,52,100,8
2,60,100,0
2,55,100,0
2,62,100,0
2,52,100,8
2,60,100,0
2,55,100,0
2,62,100,0
2,52,100,8
2,60,100,0
2,55,100,0
2,62,100,0
2,52,100,8
2,60,100,0
2,55,100,0
2,62,100,0
2,52,100,8
2,60,100,0
2,55,100,0
2,62,100,0
2,52,100,8
2,60,100,0
2,55,100,0
2,62,100,0
2,50,100,8
2,54,100,0
2,57,100,0
2,62,100,0
2,50,100,8
2,54,100,0
2,57,100,0
2,62,100,0
2,50,100,8
2,54,100,0
2,57,100,0
2,62,100,0
2,50,100,8
2,54,100,0
2,57,100,0
2,62,100,0
2,50,100,8
2,54,100,0
2,57,100,0
2,62,100,0
2,50,100,8
2,54,100,0
2,57,100,0
2,62,100,0
2,50,100,8
2,54,100,0
2,57,100,0
2,62,100,0
2,50,100,8
2,54,100,0
2,57,100,0
2,62,100,0
2,50,100,8
2,55,100,0
2,60,100,0
2,50,100,8
2,55,100,0
2,59,100,0
2,62,100,0
2,50,100,8
2,55,100,0
2,59,100,0
2,62,100,0
2,50,100,8
2,55,100,0
2,59,100,0
2,62,100,0
2,50,100,8
2,55,100,0
2,59,100,0
2,62,100,0
2,50,100,8
2,55,100,0
2,59,100,0
2,62,100,0
2,50,100,8
2,55,100,0
2,59,100,0
2,62,100,0
2,50,100,8
2,55,100,0
2,59,100,0
2,62,100,0
2,50,100,8
2,55,100,0
2,59,100,0
2,62,100,0
2,50,100,8
2,55,100,0
2,59,100,0
2,62,100,0
2,50,100,8
2,55,100,0
2,59,100,0
2,62,100,0
2,50,100,8
2,55,100,0
2,59,100,0
2,62,100,0
2,50,100,8
2,55,100,0
2,59,100,0
2,62,100,0
2,50,100,8
2,55,100,0
2,59,100,0
2,62,100,0
2,50,100,8
2,55,100,0
2,59,100,0
2,62,100,0
2,50,100,8
2,55,100,0
2,59,100,0
2,62,100,0
2,52,100,8
2,57,100,0
2,61,100,0
2,64,100,0
2,52,100,8
2,57,100,0
2,61,100,0
2,64,100,0
2,52,100,8
2,57,100,0
2,61,100,0
2,64,100,0
2,52,100,8
2,57,100,0
2,61,100,0
2,64,100,0
2,52,100,8
2,57,100,0
2,61,100,0
2,64,100,0
2,52,100,8
2,57,100,0
2,61,100,0
