track,note,velocity,time
3,36,88,13180
3,36,0,652
3,36,68,20
3,36,0,89
3,41,88,7
3,41,0,637
3,48,72,1
3,46,80,78
3,48,0,58
3,46,0,478
3,38,112,40
3,38,0,191
3,39,80,1
3,39,0,636
3,44,80,132
3,44,0,560
3,43,96,16
3,41,96,192
3,43,0,16
3,41,0,709
3,43,96,43
3,36,76,685
3,36,0,40
3,36,76,57
3,36,0,48
3,41,80,45
3,43,68,46
3,41,0,1
3,43,0,30
3,48,72,22
3,41,76,3
3,41,0,36
3,41,80,60
3,41,0,512
3,46,80,160
3,38,68,12
3,39,88,192
3,38,0,15
3,39,0,735
3,44,80,18
3,44,0,425
3,48,73,24
3,51,80,39
3,48,0,15
3,56,80,25
3,51,0,6
3,56,0,29
3,55,88,25
3,41,80,334
3,55,0,34
3,44,64,214
3,41,0,2
3,48,88,46
3,44,0,14
3,53,96,26
3,48,0,15
3,51,88,28
3,53,0,6
3,43,88,516
3,51,0,2
3,48,104,39
3,43,0,6
3,50,76,32
3,48,0,2
3,50,0,38
3,51,96,3
3,50,112,32
3,51,0,5
3,48,88,36
3,50,0,12
3,43,96,30
3,48,0,10
3,36,113,4
3,43,0,37
3,36,0,145
3,36,113,106
3,36,0,460
3,38,113,20
3,38,0,208
3,38,113,80
3,38,0,372
3,38,113,108
3,38,0,186
3,38,113,102
3,38,0,371
3,39,113,109
3,39,0,210
3,39,113,78
3,39,0,434
3,39,113,46
3,39,0,220
3,39,113,68
3,39,0,424
3,43,96,56
3,43,0,71
3,43,88,25
3,43,0,46
3,43,112,50
3,43,0,47
3,43,112,49
3,43,0,52
3,43,104,44
3,43,0,52
3,43,96,44
3,43,0,50
3,43,112,46
3,43,0,50
3,43,112,46
3,43,0,49
3,43,112,47
3,43,0,396
3,36,122,372
3,36,0,190
3,36,122,98
3,36,0,303
3,34,106,177
3,34,0,190
3,34,106,98
3,34,0,370
3,32,99,110
3,32,0,190
3,32,114,98
3,32,0,366
3,31,106,114
3,31,0,190
3,31,114,98
3,36,106,144
3,31,0,9
3,36,0,124
3,43,99,11
3,36,106,3
3,36,0,189
3,36,114,99
3,36,0,374
3,34,114,106
3,34,0,190
3,34,114,98
3,34,0,403
3,32,99,77
3,32,0,190
3,32,99,98
3,32,0,422
3,31,106,58
3,31,0,781
3,36,94,7763
3,36,0,48
3,41,80,45
3,43,68,46
3,41,0,1
3,43,0,30
3,48,72,22
3,41,76,3
3,41,0,36
3,41,80,60
3,41,0,512
3,46,80,160
3,38,68,12
3,39,88,192
3,38,0,15
3,39,0,735
3,44,80,18
3,44,0,425
3,48,73,24
3,51,80,39
3,48,0,15
3,56,80,25
3,51,0,6
3,56,0,29
3,55,88,25
3,41,80,334
3,55,0,34
3,44,64,214
3,41,0,2
3,48,88,46
3,44,0,14
3,53,96,26
3,48,0,15
3,51,88,28
3,53,0,6
3,43,88,516
3,51,0,2
3,48,104,39
3,43,0,6
3,50,76,32
3,48,0,2
3,50,0,38
3,51,96,3
3,50,112,32
3,51,0,5
3,48,88,34
3,50,0,14
3,43,96,4
3,48,0,18
3,43,0,12
3,36,113,10
3,36,0,182
3,36,113,106
3,36,0,460
3,38,113,20
3,38,0,208
3,38,113,80
3,38,0,372
3,38,113,108
3,38,0,186
3,38,113,102
3,38,0,371
3,39,113,109
3,39,0,210
3,39,113,78
3,39,0,434
3,39,113,46
3,39,0,220
3,39,113,68
3,39,0,424
3,43,96,56
3,43,0,71
3,43,88,25
3,43,0,46
3,43,112,50
3,43,0,47
3,43,112,49
3,43,0,52
3,43,104,44
3,43,0,52
3,43,96,44
3,43,0,50
3,43,112,46
3,43,0,50
3,43,112,46
3,43,0,49
3,43,112,47
3,43,0,396
3,36,122,1140
3,36,0,190
3,36,122,98
3,36,0,303
3,34,106,177
3,34,0,190
3,34,106,98
3,34,0,370
3,32,99,110
3,32,0,190
3,32,114,98
3,32,0,366
3,31,106,114
3,31,0,190
3,31,114,98
3,36,106,144
3,31,0,9
3,36,0,124
3,43,99,11
3,36,106,3
3,36,0,189
3,36,114,99
3,36,0,374
3,34,114,106
3,34,0,190
3,34,114,98
3,34,0,403
3,32,99,77
3,32,0,190
3,32,99,98
3,32,0,422
3,31,106,58
3,31,0,380
3,39,122,388
3,39,0,190
3,39,122,98
3,39,0,303
3,37,106,177
3,37,0,190
3,37,106,98
3,37,0,370
3,35,99,110
3,35,0,190
3,35,114,98
3,35,0,366
3,34,106,114
3,34,0,190
3,34,114,98
3,39,106,144
3,34,0,9
3,39,0,124
3,46,99,11
3,39,106,3
3,39,0,189
3,39,114,99
3,39,0,374
3,37,114,106
3,37,0,190
3,37,114,98
3,37,0,403
3,35,99,77
3,35,0,190
3,35,99,98
3,35,0,422
3,34,106,58
3,34,0,380
4,87,71,108
4,86,66,576
4,87,0,18
4,86,0,162
4,84,71,12
4,84,0,610
4,86,81,158
4,82,66,576
4,86,0,11
4,82,0,150
4,79,46,31
4,79,0,394
4,80,56,374
4,80,0,38
4,80,60,58
4,80,0,41
4,82,58,55
4,82,0,44
4,84,85,52
4,84,0,220
4,84,63,260
4,84,0,55
4,84,89,41
4,84,0,46
4,86,77,50
4,86,0,28
4,87,77,68
4,87,0,231
4,83,62,249
4,83,0,40
4,83,62,56
4,83,0,37
4,84,68,59
4,84,0,34
4,86,65,62
4,86,0,460
5,67,72,5831
5,67,0,37
5,67,67,31
5,67,0,31
5,67,71,30
5,67,0,44
5,67,72,24
5,67,0,57
5,67,78,19
5,67,0,154
5,67,68,28
5,67,0,62
5,65,74,2
5,65,0,37
5,65,76,22
5,65,0,71
5,63,76,4
5,63,0,257
5,53,86,680
5,53,0,47
5,53,72,11
5,53,0,39
5,53,82,19
5,53,0,50
5,65,80,8
5,67,74,1
5,65,82,86
5,67,0,0
5,65,0,34
5,65,80,17
5,65,0,613
5,63,84,388
5,63,0,22
5,63,86,28
5,63,0,74
5,63,80,29
5,63,0,23
5,63,84,29
5,63,0,71
5,63,84,21
5,63,0,38
5,63,82,21
5,63,0,78
5,62,84,13
5,62,0,31
5,62,84,20
5,62,0,77
5,60,86,3
5,60,0,232
5,60,84,346
5,60,0,49
5,62,76,17
5,62,0,44
5,63,86,20
5,60,84,426
5,60,0,57
5,62,82,1
5,62,0,54
5,63,90,13
5,63,90,33
5,62,78,66
5,63,0,4
5,62,0,57
5,63,90,1
5,62,84,86
5,63,0,3
5,63,86,62
5,62,0,4
5,63,0,81
5,68,86,3
5,68,0,121
5,67,94,16
5,75,84,382
5,75,0,205
5,74,84,2
5,74,0,189
5,72,80,1
5,70,82,573
5,72,0,2
5,70,0,185
5,69,82,5
5,69,0,321
5,74,80,76
5,72,84,180
5,74,0,1
5,70,84,196
5,72,0,6
5,68,76,564
5,70,0,0
5,68,0,195
5,67,80,3
5,67,0,344
5,72,84,21
5,72,0,177
5,70,80,22
5,68,78,194
5,70,0,10
5,68,0,66
5,68,80,28
5,68,0,76
5,70,76,8
5,70,0,88
5,72,90,15
5,72,0,487
5,72,98,247
5,72,0,55
5,74,84,13
5,74,0,49
5,75,90,19
5,77,86,3
5,74,80,129
5,77,0,6
5,74,0,694
5,75,76,442
5,75,0,179
5,74,86,1
5,72,82,205
5,74,0,2
5,72,0,571
5,70,90,1
5,70,0,195
5,69,82,6
5,65,86,361
5,69,0,0
5,65,0,149
5,74,84,3
5,72,94,3
5,70,80,101
5,72,0,6
5,70,0,561
5,68,86,3
5,67,82,196
5,68,0,0
5,67,0,358
5,72,84,12
5,72,0,74
5,72,90,30
5,70,82,91
5,72,0,2
5,70,0,188
5,68,82,3
5,68,0,70
5,68,82,32
5,68,0,78
5,70,78,14
5,70,0,82
5,72,86,13
5,72,0,474
5,68,80,11
5,68,0,58
5,68,78,40
5,68,0,62
5,70,90,31
5,70,0,80
5,72,86,19
5,72,0,450
5,72,98,38
5,72,0,65
5,72,86,26
5,72,0,78
5,74,98,12
5,74,0,76
5,75,94,16
5,75,0,472
5,72,98,11
5,72,0,70
5,72,98,30
5,72,0,59
5,74,98,26
5,74,0,58
5,75,98,39
5,75,0,441
5,74,98,36
5,74,0,61
5,74,94,42
5,74,0,56
5,75,94,38
5,75,0,50
5,77,102,43
5,77,0,271
5,74,98,12
5,74,0,59
5,74,98,43
5,74,0,47
5,74,98,53
5,74,0,56
5,74,94,42
5,74,0,53
5,75,90,38
5,75,0,58
5,77,102,29
5,77,0,270
5,75,90,22
5,75,0,59
5,75,90,36
5,75,0,56
5,75,94,40
5,75,0,45
5,75,90,47
5,75,0,72
5,77,98,29
5,77,0,70
5,79,98,26
5,79,0,160
5,79,98,31
5,75,94,10
5,75,0,56
5,75,90,33
5,75,0,41
5,75,98,53
5,75,0,66
5,75,94,32
5,75,0,52
5,77,94,43
5,77,0,71
5,79,94,26
5,79,0,251
5,75,94,32
5,75,0,76
5,77,98,24
5,77,0,61
5,79,98,41
5,79,0,48
5,79,98,47
5,79,0,45
5,79,102,54
5,79,0,39
5,79,98,47
5,79,0,19
5,79,94,30
5,79,0,84
5,79,102,29
5,79,0,101
5,79,106,43
5,79,0,57
5,77,106,36
5,77,0,67
5,79,106,33
5,79,0,85
5,79,110,284
5,79,0,163
5,77,110,15
5,77,0,182
5,75,102,9
5,75,0,971
5,74,106,17
5,74,0,165
5,72,102,18
5,72,0,194
5,70,102,9
5,70,0,178
5,72,106,15
5,72,0,960
5,67,98,2
5,67,0,245
5,79,106,14
5,79,0,185
5,77,106,5
5,77,0,108
5,75,102,10
5,75,0,1041
5,77,90,6
5,77,0,192
5,74,90,10
5,72,102,148
5,74,0,6
5,70,102,82
5,72,0,6
5,70,0,60
5,72,102,8
5,72,0,703
5,67,76,1076
5,67,0,31
5,67,72,23
5,67,0,24
5,67,71,27
5,67,0,24
5,67,74,24
5,67,0,67
5,67,69,15
5,67,0,81
5,67,68,34
5,65,82,56
5,67,0,3
5,65,0,37
5,65,72,21
5,65,0,80
5,63,76,5
5,63,0,443
5,53,74,550
5,53,0,48
5,53,78,12
5,53,0,107
5,65,84,10
5,65,0,53
5,65,84,21
5,65,0,55
5,65,84,28
5,65,0,50
5,67,68,10
5,67,0,82
5,65,80,6
5,65,0,35
5,65,86,22
5,65,0,395
5,63,84,556
5,63,0,29
5,63,78,25
5,63,0,32
5,63,71,24
5,63,0,27
5,63,78,26
5,63,0,71
5,63,78,19
5,63,0,73
5,63,80,52
5,63,0,46
5,63,82,25
5,63,0,60
5,62,78,8
5,62,0,34
5,62,82,24
5,62,0,77
5,60,82,4
5,60,0,319
5,60,84,200
5,60,0,57
5,62,86,11
5,62,0,51
5,63,94,19
5,63,0,306
5,60,90,321
5,60,0,68
5,62,90,5
5,62,0,71
5,63,80,4
5,63,0,247
5,60,86,1
5,62,98,77
5,60,0,2
5,63,98,70
5,62,0,1
5,63,0,73
5,62,90,3
5,63,98,76
5,62,0,5
5,63,0,80
5,68,98,3
5,68,0,100
5,67,90,17
5,67,0,641
5,75,84,492
5,75,0,190
5,74,86,7
5,72,84,202
5,74,0,1
5,70,90,574
5,72,0,2
5,70,0,176
5,69,84,9
5,69,0,500
5,65,84,179
5,65,0,80
5,74,84,4
5,72,82,86
5,74,0,3
5,70,80,150
5,72,0,4
5,68,78,347
5,70,0,0
5,67,80,185
5,68,0,0
5,67,0,380
5,72,94,10
5,72,0,187
5,70,90,8
5,70,0,188
5,68,90,6
5,68,0,71
5,68,90,29
5,68,0,72
5,70,84,24
5,70,0,86
5,72,86,10
5,72,0,441
5,68,90,29
5,68,0,54
5,68,94,49
5,68,0,49
5,70,90,35
5,70,0,82
5,72,98,18
5,72,0,456
5,72,102,33
5,72,0,68
5,72,98,30
5,72,0,71
5,74,98,11
5,74,0,92
5,75,98,13
5,75,0,433
5,72,98,14
5,72,0,91
5,72,94,28
5,72,0,76
5,74,102,18
5,74,0,73
5,75,98,24
5,75,0,450
5,74,102,34
5,74,0,66
5,74,98,40
5,74,0,56
5,75,94,34
5,75,0,57
5,77,102,33
5,77,0,270
5,74,102,14
5,74,0,57
5,74,98,39
5,74,0,56
5,74,102,46
5,74,0,58
5,74,98,42
5,74,0,55
5,75,98,35
5,75,0,62
5,77,102,27
5,77,0,148
5,75,102,154
5,75,0,55
5,75,98,35
5,75,0,63
5,75,102,37
5,75,0,68
5,75,98,30
5,75,0,71
5,77,102,22
5,77,0,74
5,79,102,25
5,79,0,134
5,75,94,143
5,75,0,51
5,75,98,41
5,75,0,62
5,75,98,40
5,75,0,72
5,75,98,26
5,75,0,70
5,77,102,31
5,77,0,67
5,79,102,28
5,79,0,251
5,75,102,30
5,75,0,77
5,77,102,24
5,77,0,63
5,79,102,37
5,79,0,56
5,79,106,36
5,79,0,50
5,79,106,44
5,79,0,58
5,79,102,37
5,79,0,21
5,79,106,32
5,79,0,66
5,79,106,23
5,79,0,105
5,79,102,40
5,79,0,60
5,77,106,41
5,77,0,56
5,79,110,39
5,79,0,274
5,67,98,5
5,79,100,103
5,79,0,46
5,67,0,30
5,79,102,685
5,79,0,182
5,77,110,22
5,77,0,174
5,75,102,23
5,75,0,1023
5,77,106,20
5,77,0,169
5,75,102,11
5,72,102,126
5,75,0,0
5,72,0,109
5,70,94,14
5,70,0,82
5,72,106,22
5,72,0,722
5,55,106,7
5,67,106,186
5,55,0,5
5,67,0,245
5,79,102,23
5,79,0,160
5,77,106,18
5,77,0,93
5,77,102,15
5,77,0,61
5,75,106,12
5,77,102,40
5,77,0,166
5,75,102,10
5,75,0,115
5,72,102,3
5,72,0,88
5,70,106,6
5,70,0,90
5,72,102,10
5,72,0,673
5,70,110,549
5,70,0,148
5,82,110,22
5,80,106,88
5,82,0,8
5,80,0,65
5,78,110,7
5,78,0,688
5,82,102,519
5,82,0,56
5,80,102,33
5,80,0,45
5,78,106,51
5,70,102,241
5,70,0,165
5,82,102,26
5,82,0,256
5,80,106,6
5,78,102,289
5,80,0,1
5,78,0,912
5,82,106,244
5,82,0,52
5,80,106,41
5,80,0,44
5,78,102,61
5,78,0,855
5,82,74,1167
5,87,80,110
5,82,0,1
5,80,80,142
5,87,0,5
5,78,72,146
5,80,0,8
5,75,72,132
5,78,0,4
6,63,81,14
6,75,81,0
6,74,87,12
6,62,87,0
6,74,0,191
6,62,0,0
6,72,90,1
6,60,90,0
6,60,0,656
6,72,0,0
6,74,81,5
6,62,81,0
6,58,75,182
6,70,75,0
6,74,0,8
6,62,0,0
6,67,75,184
6,55,75,0
6,70,0,11
6,58,0,0
6,67,0,501
6,55,0,0
6,56,96,256
6,68,96,0
6,56,0,46
6,68,0,0
6,56,93,50
6,68,93,0
6,56,0,58
6,68,0,0
6,58,93,38
6,70,93,0
6,58,0,58
6,70,0,0
6,72,101,38
6,60,101,0
6,72,0,382
6,60,0,0
6,72,69,98
6,60,69,0
6,72,0,39
6,60,0,0
6,60,67,57
6,72,67,0
6,60,0,44
6,72,0,0
6,74,67,52
6,62,67,0
6,74,0,32
6,62,0,0
6,75,69,64
6,63,69,0
6,75,0,359
6,63,0,0
6,59,101,121
6,71,90,0
6,59,0,34
6,71,0,0
6,59,101,62
6,71,101,0
6,59,0,39
6,71,0,0
6,60,101,57
6,72,101,0
6,72,0,42
6,60,0,0
6,74,101,54
6,62,101,0
6,55,63,397
6,48,68,0
6,63,63,0
6,60,73,0
6,60,0,511
6,63,0,15
6,48,0,17
6,55,0,4
6,58,77,29
6,46,75,0
6,62,87,0
6,53,79,0
6,62,0,128
6,46,0,25
6,58,0,1
6,57,87,38
6,41,63,0
6,60,96,0
6,57,0,731
6,60,0,10
6,53,0,15
6,46,72,12
6,58,77,0
6,62,101,0
6,53,96,0
6,41,0,22
6,46,0,538
6,58,0,8
6,57,93,8
6,45,77,0
6,53,0,160
6,57,0,12
6,62,0,9
6,45,0,10
6,55,90,1
6,58,99,0
6,51,72,0
6,63,85,0
6,55,0,652
6,58,0,6
6,63,0,5
6,51,0,16
6,60,96,89
6,56,73,0
6,63,79,0
6,44,75,0
