track,note,velocity,time
1,48,127,0
1,47,127,1462
1,50,127,876
1,48,127,521
1,50,127,1468
1,47,127,883
1,48,127,527
1,47,127,1474
1,47,127,904
1,48,127,525
1,50,127,1472
1,47,127,889
1,48,127,0
1,52,127,521
1,47,127,900
1,47,127,903
1,48,127,526
1,52,127,506
1,50,127,896
1,47,127,897
1,48,127,529
1,52,127,512
1,47,127,898
1,47,127,903
1,43,127,531
1,43,124,1462
1,48,127,0
1,52,127,521
1,50,127,900
1,47,127,903
1,48,127,526
1,52,127,506
1,50,127,896
1,47,127,897
1,48,127,529
1,52,127,512
1,47,127,898
1,47,127,903
1,43,127,531
1,48,127,0
1,52,127,521
1,50,127,900
1,47,127,903
1,48,127,526
1,52,127,506
1,50,127,896
1,47,127,897
1,48,127,529
1,52,127,512
1,47,127,898
1,47,127,903
1,43,127,531
2,74,123,384
2,72,117,144
2,79,120,142
2,78,123,195
2,74,122,233
2,69,111,334
2,74,114,117
2,71,117,145
2,71,117,54
2,81,119,38
2,74,119,199
2,71,117,238
2,74,120,510
2,72,120,129
2,79,115,140
2,78,120,172
2,74,121,217
2,74,122,2049
2,72,118,141
2,79,116,144
2,78,118,193
2,74,118,212
2,69,112,334
2,74,109,98
2,69,107,89
2,71,115,96
2,74,116,8
2,69,109,201
2,71,117,207
2,74,118,506
2,72,114,139
2,79,117,122
2,74,116,472
2,74,122,2035
2,72,123,122
2,79,123,123
2,78,126,211
2,74,124,225
2,74,126,907
2,74,123,1093
2,72,121,130
2,79,123,132
2,78,127,217
2,74,124,227
2,74,125,526
2,74,123,1465
2,72,120,140
2,79,124,136
2,78,126,220
2,74,125,228
2,74,125,908
2,74,124,1475
2,74,121,1472
2,77,126,0
2,81,125,0
2,72,124,0
2,74,125,43
2,83,125,0
2,79,123,0
2,77,125,49
2,72,124,0
2,81,123,0
2,79,122,65
2,71,122,0
2,74,122,0
2,77,123,98
2,72,123,0
2,81,125,0
2,79,127,58
2,83,127,0
2,74,126,0
2,76,126,28
2,72,126,0
2,79,126,0
2,67,116,192
2,74,120,111
2,72,114,114
2,79,92,119
2,78,123,180
2,74,123,203
2,69,117,327
2,74,120,118
2,71,116,120
2,81,113,106
2,74,121,190
2,71,120,223
2,67,111,314
2,74,103,126
2,72,117,69
2,79,120,132
2,78,123,173
2,74,122,207
2,69,117,516
2,67,106,100
2,74,121,125
2,69,120,214
2,67,118,214
2,67,117,290
2,74,108,124
2,72,114,116
2,79,119,119
2,78,122,196
2,74,122,212
2,69,120,491
2,67,106,130
2,74,119,120
2,69,122,213
2,67,117,222
2,67,113,294
2,69,121,117
2,67,114,122
2,74,117,109
2,69,120,202
2,67,115,213
2,67,115,309
2,69,118,123
2,67,115,112
2,74,118,131
2,69,117,206
2,67,114,219
2,69,123,5470
2,81,122,0
2,80,127,175
2,68,126,0
2,75,125,184
2,63,125,0
2,72,124,0
2,81,125,0
2,77,126,0
2,74,125,43
2,83,125,0
2,79,123,0
2,77,125,49
2,72,124,0
2,81,123,0
2,79,122,65
2,71,122,0
2,74,122,0
2,77,123,98
2,72,123,0
2,81,125,0
2,79,127,58
2,83,127,0
2,74,126,0
2,76,126,28
2,72,126,0
2,79,126,0
2,67,116,192
2,74,120,111
2,72,114,114
2,79,92,119
2,78,123,180
2,74,123,203
2,69,117,327
2,74,120,118
2,71,116,120
2,81,113,106
2,74,121,190
2,71,120,223
2,67,111,314
2,74,103,126
2,72,117,69
2,79,120,132
2,78,123,173
2,74,122,207
2,69,117,516
2,67,106,100
2,74,121,125
2,69,120,214
2,67,118,214
2,67,117,290
2,74,108,124
2,72,114,116
2,79,119,119
2,78,122,196
2,74,122,212
2,69,120,491
2,67,106,130
2,74,119,120
2,69,122,213
2,67,117,222
2,67,113,294
2,69,121,117
2,67,114,122
2,74,117,109
2,69,120,202
2,67,115,213
2,67,115,309
2,69,118,123
2,67,115,112
2,74,118,131
2,69,117,206
2,67,114,219
2,69,123,5470
2,81,122,0
2,80,127,175
2,68,126,0
2,75,125,184
2,63,125,0
2,72,124,0
2,81,125,0
2,77,126,0
2,74,125,43
2,83,125,0
2,79,123,0
2,77,125,49
2,72,124,0
2,81,123,0
2,79,122,65
2,71,122,0
2,74,122,0
2,77,123,98
2,72,123,0
2,81,125,0
2,79,127,58
2,83,127,0
2,74,126,0
2,76,126,28
2,72,126,0
2,79,126,0
3,33,127,0
3,81,127,0
3,30,127,1361
3,78,127,0
3,36,127,881
3,84,127,0
3,33,127,516
3,81,127,0
3,36,127,1470
3,84,127,0
3,30,127,897
3,78,127,0
3,33,127,519
3,81,127,0
3,30,127,1453
3,78,127,0
3,30,127,872
3,78,127,0
3,33,127,496
3,81,127,0
3,36,127,1449
3,84,127,0
3,30,127,891
3,78,127,0
3,33,126,0
3,81,126,0
3,40,125,510
3,64,125,0
3,30,127,898
3,78,127,0
3,30,127,879
3,78,127,0
3,33,127,495
3,81,127,0
3,40,127,499
3,64,127,0
3,36,127,896
3,84,127,0
3,30,127,903
3,78,127,0
3,33,127,515
3,81,127,0
3,40,126,511
3,64,126,0
3,30,127,891
3,78,127,0
3,30,127,892
3,78,127,0
3,24,127,518
3,72,127,0
3,24,127,1413
3,72,127,0
3,24,127,880
3,72,127,0
3,42,127,508
3,40,127,255
3,64,127,0
3,40,127,177
3,64,127,0
3,42,127,490
3,66,127,0
3,46,127,1536
3,70,127,0
3,46,127,188
3,70,127,0
3,42,127,462
3,66,127,0
3,40,127,264
3,64,127,0
3,40,127,185
3,64,127,0
3,34,127,487
3,58,127,0
3,34,127,225
3,58,127,0
3,34,127,110
3,58,127,0
3,81,126,0
3,33,126,0
3,64,125,510
3,40,125,0
3,78,127,898
3,36,127,0
3,84,127,879
3,30,127,0
3,81,127,495
3,33,127,0
3,64,127,499
3,40,127,0
3,84,127,896
3,36,127,0
3,78,127,903
3,30,127,0
3,81,127,515
3,33,127,0
3,64,126,511
3,40,126,0
3,78,127,891
3,30,127,0
3,78,127,892
3,30,127,0
3,72,127,518
3,24,127,0
3,72,127,1413
3,24,127,0
3,72,127,880
3,24,127,0
3,42,127,508
3,33,126,0
3,40,125,510
3,36,127,898
3,30,127,879
3,33,127,495
3,40,127,499
3,36,127,896
3,30,127,903
3,33,127,515
3,40,126,511
3,30,127,891
3,30,127,892
3,24,127,518
3,24,127,837
3,40,127,1536
3,64,127,0
3,40,127,177
3,64,127,0
3,42,127,490
3,66,127,0
3,46,127,1536
3,70,127,0
3,46,127,188
3,70,127,0
3,42,127,462
3,66,127,0
3,40,127,264
3,64,127,0
3,40,127,185
3,64,127,0
3,34,127,487
3,58,127,0
3,34,127,225
3,58,127,0
3,34,127,110
3,58,127,0
3,81,126,0
3,33,126,0
3,64,125,510
3,40,125,0
3,78,127,898
3,36,127,0
3,84,127,879
3,30,127,0
3,81,127,495
3,33,127,0
3,64,127,499
3,40,127,0
3,84,127,896
3,36,127,0
3,78,127,903
3,30,127,0
3,81,127,515
3,33,127,0
3,64,126,511
3,40,126,0
3,78,127,891
3,30,127,0
3,78,127,892
3,30,127,0
3,72,127,518
3,24,127,0
3,72,127,1413
3,24,127,0
3,72,127,880
3,24,127,0
3,42,127,508
3,33,126,0
3,40,125,510
3,36,127,898
3,30,127,879
3,33,127,495
3,40,127,499
3,36,127,896
3,30,127,903
3,33,127,515
3,40,126,511
3,30,127,891
3,30,127,892
3,24,127,518
3,24,127,837
3,40,127,1536
3,64,127,0
3,40,127,177
3,64,127,0
3,42,127,490
3,66,127,0
3,46,127,1536
3,70,127,0
3,46,127,188
3,70,127,0
3,42,127,462
3,66,127,0
3,40,127,264
3,64,127,0
3,40,127,185
3,64,127,0
3,34,127,487
3,58,127,0
3,34,127,225
3,58,127,0
3,34,127,110
3,58,127,0
4,67,118,192
4,67,123,490
4,67,122,499
4,67,120,868
4,67,121,513
4,67,122,309
4,67,122,498
4,67,122,496
4,67,122,1837
4,67,123,507
4,67,114,505
4,67,121,869
4,67,121,502
4,67,120,501
4,67,117,338
4,67,107,489
4,67,109,192
4,67,120,473
4,67,123,489
4,67,120,315
4,67,118,779
4,67,119,586
4,67,119,489
4,67,122,476
4,67,122,1846
4,67,119,499
4,67,118,481
4,67,123,288
4,67,120,496
4,67,119,491
4,67,122,507
4,67,116,486
4,67,120,671
4,67,119,49
4,67,118,192
4,67,123,490
4,67,122,499
4,67,120,868
4,67,121,513
4,67,122,309
4,67,122,498
4,67,122,496
4,67,122,1837
4,67,123,507
4,67,114,505
4,67,121,869
4,67,121,502
4,67,120,501
4,67,117,338
4,67,107,489
4,67,120,901
4,67,118,483
4,67,119,468
4,67,110,873
4,66,104,179
4,62,111,188
4,67,120,284
4,67,119,479
4,67,120,479
4,74,118,859
4,69,122,204
4,62,120,106
4,62,121,37
4,55,104,698
4,67,117,126
4,66,96,173
4,62,117,201
4,74,115,882
4,69,121,205
4,62,119,100
4,62,124,51
4,67,118,192
4,67,119,298
4,67,123,84
4,67,123,115
4,67,121,213
4,67,122,12
4,67,120,292
4,66,121,6
4,67,119,98
4,66,122,96
4,67,120,104
4,62,121,129
4,66,125,125
4,67,121,104
4,67,122,0
4,55,111,117
4,67,122,116
4,67,122,0
4,62,123,14
4,55,112,134
4,67,118,28
4,67,122,117
4,67,104,112
4,62,119,56
4,55,118,102
4,67,122,10
4,67,119,301
4,66,123,96
4,67,116,93
4,66,124,5
4,62,121,310
4,66,121,132
4,67,118,97
4,55,119,103
4,67,122,94
4,67,120,0
4,66,125,27
4,67,120,87
4,66,117,4
4,67,123,130
4,62,120,121
4,66,124,142
4,67,114,103
4,62,120,0
4,55,115,101
4,67,117,79
4,62,121,6
4,55,118,117
4,67,119,3
4,67,121,106
4,67,121,118
4,62,121,22
4,55,120,124
4,66,121,8
4,67,121,0
4,55,117,117
4,67,120,91
4,67,120,122
4,62,121,0
4,55,115,132
4,67,122,8
4,67,117,21
4,67,118,105
4,62,112,125
4,67,107,114
4,55,116,0
4,67,112,20
4,67,122,244
4,62,122,114
4,55,116,128
4,67,116,214
4,67,119,299
4,67,120,901
4,67,118,483
4,67,119,468
4,67,110,873
4,66,104,179
4,62,111,188
4,67,120,284
4,67,119,479
4,67,120,479
4,74,118,859
4,69,122,204
4,62,120,106
4,62,121,37
4,55,104,698
4,67,117,126
4,66,96,173
4,62,117,201
4,74,115,882
4,69,121,205
4,62,119,100
4,62,124,51
5,36,126,0
5,48,125,0
5,60,125,0
5,64,127,0
5,67,126,0
5,57,124,31
5,62,126,0
5,47,124,0
5,35,124,0
5,66,127,0
5,60,122,366
5,64,125,0
5,48,122,0
5,36,122,0
5,67,124,0
5,38,121,471
5,50,121,0
5,69,123,0
5,66,127,0
5,62,122,0
5,36,121,364
5,64,125,0
5,60,120,0
5,48,119,0
5,67,124,0
5,57,122,332
5,62,125,0
5,35,121,0
5,66,127,0
5,47,118,0
5,62,124,1
5,55,122,0
5,59,125,0
5,31,122,0
5,43,117,0
5,64,126,7
5,60,125,0
5,67,125,0
5,62,118,19
5,66,127,0
5,69,120,0
5,60,119,205
5,67,121,0
5,64,123,0
5,69,122,10
5,62,121,0
5,66,126,0
5,64,124,120
5,60,121,0
5,67,123,0
5,62,125,14
5,57,118,0
5,66,127,0
5,62,124,27
5,59,125,0
5,55,117,0
5,52,127,776
5,49,127,0
5,56,127,0
5,49,127,547
5,52,126,0
5,45,125,0
5,47,124,3
5,51,127,0
5,54,127,0
5,59,126,4
5,52,126,0
5,56,127,0
5,49,127,552
5,52,127,0
5,56,127,0
5,45,125,673
5,49,127,0
5,52,126,0
5,47,125,567
5,54,127,0
5,51,127,0
5,36,126,0
5,48,125,0
5,60,125,0
5,64,127,0
5,67,126,0
5,57,124,31
5,62,126,0
5,47,124,0
5,35,124,0
5,66,127,0
5,60,122,366
5,64,125,0
5,48,122,0
5,36,122,0
5,67,124,0
5,38,121,471
5,50,121,0
5,69,123,0
5,66,127,0
5,62,122,0
5,36,121,364
5,64,125,0
5,60,120,0
5,48,119,0
5,67,124,0
5,57,122,332
5,62,125,0
5,35,121,0
5,66,127,0
5,47,118,0
5,62,124,1
5,55,122,0
5,59,125,0
5,31,122,0
5,43,117,0
5,60,125,506
5,67,125,0
5,64,126,0
5,47,120,51
5,35,120,0
5,69,120,0
5,66,127,0
5,62,118,0
5,36,122,205
5,64,123,0
5,67,121,0
5,60,119,0
5,48,121,0
5,66,126,10
5,62,121,0
5,69,122,0
5,38,122,0
5,50,125,0
5,52,77,167
5,52,125,561
5,40,124,0
5,42,120,2
5,54,127,0
5,67,123,2
5,60,121,0
5,64,124,0
5,48,124,0
5,36,122,0
5,66,127,9
5,57,118,0
5,62,125,0
5,35,122,0
5,47,125,0
5,31,124,27
5,43,123,0
5,55,117,0
5,59,125,0
5,62,124,0
5,52,127,776
5,49,127,0
5,56,127,0
5,49,127,547
5,52,126,0
5,45,125,0
5,47,124,3
5,51,127,0
5,54,127,0
5,59,126,4
5,52,126,0
5,56,127,0
5,49,127,552
5,52,127,0
5,56,127,0
5,45,125,673
5,49,127,0
5,52,126,0
5,47,125,567
5,54,127,0
5,51,127,0
5,36,126,0
5,48,125,0
5,60,125,0
5,64,127,0
5,67,126,0
5,57,124,31
5,62,126,0
5,47,124,0
5,35,124,0
5,66,127,0
5,60,122,366
5,64,125,0
5,48,122,0
5,36,122,0
5,67,124,0
5,38,121,471
5,50,121,0
5,69,123,0
5,66,127,0
5,62,122,0
5,36,121,364
5,64,125,0
5,60,120,0
5,48,119,0
5,67,124,0
5,57,122,332
5,62,125,0
5,35,121,0
5,66,127,0
5,47,118,0
5,62,124,1
5,55,122,0
5,59,125,0
5,31,122,0
5,43,117,0
6,62,118,15
6,62,119,126
6,62,115,95
6,62,121,88
6,62,120,109
6,67,122,22
6,67,125,69
6,69,127,1310
6,69,119,12
6,69,112,132
6,67,125,70
6,66,120,47
6,62,120,51
6,60,122,66
6,38,124,23
6,50,126,1
6,31,120,1409
6,62,117,174
6,59,124,76
6,57,125,36
6,55,122,63
6,50,125,53
6,67,123,3470
6,62,127,64
6,60,124,71
6,55,125,33
6,43,120,121
6,24,127,2213
6,36,126,192
6,48,121,20
6,55,122,201
6,60,122,4
6,64,118,188
6,67,115,185
6,71,118,1549
6,68,127,74
6,66,127,49
6,64,124,40
6,59,123,35
6,40,123,3
6,52,120,14
6,60,126,1226
6,60,126,146
6,62,126,121
6,64,126,17
6,72,127,121
6,71,127,190
6,67,127,157
6,62,127,152
6,67,122,1258
6,62,125,69
6,60,118,46
6,59,120,3
6,55,124,35
6,62,127,79
6,62,127,112
6,62,127,121
6,67,127,81
6,67,127,87
6,67,127,91
6,67,114,627
6,72,119,148
6,71,122,9
6,67,119,68
6,62,120,11
6,60,120,30
6,62,120,10
6,48,121,30
6,64,108,29
6,60,114,17
6,60,121,201
6,55,120,53
6,52,113,51
6,48,120,27
6,36,120,10
6,50,120,21
6,36,125,18
6,48,123,0
6,55,79,798
6,60,117,185
6,60,126,1226
6,60,126,146
6,62,126,121
6,64,126,17
6,72,127,121
6,71,127,190
6,67,127,157
6,62,127,152
6,67,122,1258
6,62,125,69
6,60,118,46
6,59,120,3
6,55,124,35
6,62,127,79
6,62,127,112
6,62,127,121
6,67,127,81
6,67,127,87
6,67,127,91
6,67,114,627
6,72,119,148
6,71,122,9
6,67,119,68
6,62,120,11
6,60,120,30
6,62,120,10
6,48,121,30
6,64,108,29
6,60,114,17
6,60,121,201
6,55,120,53
6,52,113,51
6,48,120,27
6,36,120,10
6,50,120,21
6,36,125,18
6,48,123,0
6,55,79,798
6,60,117,185
7,50,111,5088
7,55,109,0
7,48,104,4
7,48,32,20
7,36,121,2629
7,69,97,13
7,60,110,0
7,62,112,0
7,60,105,0
7,65,114,0
7,41,111,0
7,29,90,0
7,62,104,25
7,40,118,0
7,52,111,0
7,67,117,0
7,41,116,11
7,53,107,0
7,65,122,0
7,60,113,0
7,55,106,24
7,62,117,0
7,59,106,0
7,43,108,0
7,65,105,25
7,60,101,0
7,41,105,0
7,53,113,0
