track,note,velocity,time
1,70,100,27648
1,71,100,4
1,70,100,4
1,71,100,1540
1,73,100,4
1,75,100,4
1,76,100,4
1,71,100,4
1,73,100,4
1,71,100,4
1,71,100,1160
1,73,100,4
1,75,100,4
1,76,100,4
1,75,100,4
1,73,100,8
1,71,100,1540
1,73,100,4
1,75,100,4
1,76,100,4
1,75,100,4
1,76,100,4
1,73,100,4
1,66,100,1924
1,78,100,4
1,71,100,1924
1,73,100,4
1,75,100,4
1,71,100,4
1,76,100,4
1,71,100,1924
1,73,100,4
1,75,100,4
1,71,100,4
1,75,100,4
1,75,100,4
1,73,100,4
1,71,100,4
1,71,100,1156
1,73,100,4
1,75,100,4
1,71,100,4
1,73,100,4
1,73,100,4
1,71,100,4
1,70,100,4
1,70,100,1540
1,70,100,4
1,68,100,4
1,66,100,4
1,68,100,1540
1,71,100,4
1,73,100,4
1,70,100,4
1,71,100,4
1,73,100,4
1,71,100,4
1,70,100,1444
1,71,100,4
1,73,100,4
1,75,100,4
1,76,100,4
1,75,100,4
1,73,100,8
1,71,100,1396
1,71,100,4
1,73,100,4
1,75,100,4
1,76,100,4
1,75,100,4
1,73,100,8
1,66,100,1540
1,66,100,4
1,78,100,4
1,71,100,1828
1,71,100,4
1,73,100,4
1,75,100,4
1,71,100,4
1,76,100,4
1,70,100,1828
1,70,100,4
1,71,100,4
1,73,100,4
1,71,100,4
1,75,100,4
1,75,100,4
1,73,100,4
1,71,100,4
1,68,100,1156
1,70,100,4
1,71,100,4
1,68,100,4
1,73,100,4
1,73,100,4
1,71,100,4
1,70,100,4
1,80,100,1828
1,78,100,4
1,75,100,4
1,78,100,1828
1,78,100,4
1,80,100,4
1,82,100,4
1,82,100,4
1,80,100,4
1,78,100,4
1,80,100,1448
1,80,100,4
1,82,100,4
1,83,100,4
1,87,100,4
1,87,100,4
1,85,100,4
1,83,100,4
1,83,100,776
1,82,100,4
1,83,100,8
1,82,100,4
1,80,100,4
1,80,100,1064
1,80,100,4
1,78,100,36
1,76,100,4
1,78,100,1828
1,78,100,0
1,78,100,0
1,78,100,4
1,80,100,4
1,82,100,4
1,82,100,4
1,80,100,4
1,78,100,4
1,80,100,1448
1,80,100,4
1,82,100,4
1,83,100,4
1,87,100,4
1,87,100,4
1,85,100,4
1,83,100,4
1,82,100,776
1,83,100,4
1,82,100,4
1,83,100,4
1,82,100,4
1,80,100,8
1,70,100,27652
1,71,100,4
1,70,100,4
1,70,100,1444
1,70,100,4
1,71,100,4
1,73,100,4
1,70,100,4
1,71,100,4
1,73,100,4
1,71,100,4
1,73,100,1444
1,75,100,4
1,76,100,4
1,78,100,4
1,80,100,4
1,78,100,4
1,76,100,8
1,75,100,1492
1,76,100,4
1,78,100,4
1,80,100,4
1,78,100,4
1,76,100,8
1,66,100,1540
1,66,100,4
1,78,100,4
1,71,100,1828
1,71,100,4
1,73,100,4
1,75,100,4
1,71,100,4
1,76,100,4
1,73,100,1924
1,75,100,4
1,76,100,4
1,75,100,4
1,78,100,4
1,78,100,4
1,76,100,4
1,75,100,4
1,68,100,1156
1,70,100,4
1,71,100,4
1,68,100,4
1,76,100,4
1,76,100,4
1,75,100,4
1,73,100,4
1,80,100,1828
1,78,100,4
1,75,100,4
1,78,100,1828
1,78,100,4
1,80,100,4
1,82,100,4
1,82,100,4
1,80,100,4
1,78,100,4
1,80,100,1448
1,80,100,4
1,82,100,4
1,83,100,4
1,87,100,4
1,87,100,4
1,85,100,4
1,83,100,4
1,83,100,776
1,82,100,4
1,83,100,8
1,82,100,4
1,80,100,4
1,80,100,1064
1,80,100,4
1,78,100,36
1,76,100,4
1,78,100,1828
1,78,100,0
1,78,100,0
1,78,100,4
1,80,100,4
1,82,100,4
1,82,100,4
1,80,100,4
1,78,100,4
1,80,100,1448
1,80,100,4
1,82,100,4
1,83,100,4
1,87,100,4
1,87,100,4
1,85,100,4
1,83,100,4
1,82,100,776
1,83,100,4
1,82,100,4
1,83,100,4
1,82,100,4
1,80,100,8
1,80,100,0
1,75,100,384
1,72,100,4
1,77,100,776
1,72,100,4
1,75,100,776
1,73,100,4
1,63,100,776
1,63,100,4
1,75,100,776
1,72,100,4
1,77,100,776
1,72,100,4
1,75,100,776
1,73,100,4
1,63,100,776
1,63,100,4
1,75,100,776
1,72,100,4
1,77,100,776
1,72,100,4
1,75,100,776
1,73,100,4
1,63,100,776
1,63,100,4
1,75,93,776
1,72,88,4
1,77,68,776
1,72,64,4
1,75,44,776
1,73,39,4
1,63,19,776
1,63,14,4
2,63,100,0
2,73,100,0
2,70,100,0
2,66,100,0
2,63,100,1540
2,66,100,0
2,70,100,0
2,73,100,0
2,71,100,1540
2,68,100,0
2,64,100,0
2,61,100,0
2,67,100,1540
2,64,100,0
2,59,100,0
2,61,100,0
2,58,100,4612
2,63,100,0
2,70,100,0
2,66,100,0
2,58,100,4
2,61,100,0
2,70,100,0
2,66,100,0
2,59,100,4
2,63,100,0
2,66,100,0
2,71,100,0
2,59,100,4
2,63,100,0
2,66,100,0
2,71,100,0
2,59,100,4
2,63,100,0
2,66,100,0
2,71,100,0
2,75,100,292
2,71,100,0
2,68,100,0
2,63,100,0
2,61,100,292
2,64,100,0
2,68,100,0
2,71,100,0
2,61,100,292
2,59,100,0
2,64,100,0
2,68,100,0
2,58,100,292
2,63,100,0
2,66,100,0
2,70,100,0
2,58,100,4
2,61,100,0
2,70,100,0
2,66,100,0
2,59,100,4
2,63,100,0
2,66,100,0
2,71,100,0
2,59,100,4
2,63,100,0
2,66,100,0
2,71,100,0
2,59,100,4
2,63,100,0
2,66,100,0
2,71,100,0
2,75,100,292
2,71,100,0
2,68,100,0
2,63,100,0
2,61,100,292
2,64,100,0
2,68,100,0
2,71,100,0
2,61,100,292
2,59,100,0
2,64,100,0
2,68,100,0
2,58,100,388
2,61,100,0
2,63,100,0
2,66,100,0
2,58,100,4
2,61,100,0
2,63,100,0
2,66,100,0
2,58,100,292
2,61,100,0
2,63,100,0
2,66,100,0
2,54,100,4
2,54,100,228
2,58,100,132
2,61,100,0
2,63,100,0
2,66,100,0
2,58,100,4
2,61,100,0
2,63,100,0
2,66,100,0
2,58,100,292
2,61,100,0
2,63,100,0
2,66,100,0
2,54,100,4
2,54,100,228
2,59,100,132
2,63,100,0
2,66,100,0
2,59,100,4
2,63,100,0
2,66,100,0
2,54,100,292
2,59,100,0
2,63,100,0
2,59,100,8
2,63,100,0
2,66,100,0
2,59,100,4
2,63,100,0
2,66,100,0
2,54,100,292
2,59,100,0
2,63,100,0
2,59,100,8
2,63,100,0
2,66,100,0
2,59,100,4
2,63,100,0
2,66,100,0
2,64,100,292
2,56,100,0
2,59,100,0
2,59,100,8
2,63,100,0
2,66,100,0
2,59,100,4
2,63,100,0
2,66,100,0
2,64,100,292
2,56,100,0
2,59,100,0
2,55,100,8
2,59,100,0
2,63,100,0
2,66,100,0
2,55,100,4
2,59,100,0
2,63,100,0
2,66,100,0
2,61,100,292
2,64,100,0
2,55,100,0
2,59,100,0
2,55,100,8
2,59,100,0
2,63,100,0
2,66,100,0
2,55,100,4
2,59,100,0
2,63,100,0
2,66,100,0
2,61,100,292
2,64,100,0
2,55,100,0
2,59,100,0
2,54,100,8
2,58,100,0
2,61,100,0
2,63,100,0
2,54,100,4
2,58,100,0
2,61,100,0
2,63,100,0
2,66,100,292
2,58,100,0
2,61,100,0
2,63,100,0
2,61,100,200
2,63,100,0
2,66,100,0
2,70,100,0
2,63,100,4
2,71,100,0
2,68,100,0
2,63,100,4
2,68,100,0
2,71,100,0
2,61,100,196
2,66,100,0
2,70,100,0
2,59,100,4
2,63,100,0
2,68,100,0
2,59,100,4
2,63,100,0
2,68,100,0
2,58,100,196
2,61,100,0
2,66,100,0
2,56,100,4
2,59,100,0
2,64,100,0
2,56,100,4
2,59,100,0
2,64,100,0
2,56,100,292
2,59,100,0
2,64,100,0
2,54,100,8
2,59,100,0
2,61,100,0
2,66,100,0
2,59,100,4
2,54,100,0
2,61,100,0
2,66,100,0
2,54,100,196
2,59,100,0
2,61,100,0
2,66,100,0
2,59,100,8
2,63,100,0
2,66,100,0
2,59,100,4
2,63,100,0
2,66,100,0
2,56,100,196
2,59,100,0
2,63,100,0
2,59,100,8
2,63,100,0
2,66,100,0
2,59,100,4
2,63,100,0
2,66,100,0
2,59,100,196
2,54,100,0
2,63,100,0
2,56,100,8
2,59,100,0
2,66,100,0
2,56,100,4
2,59,100,0
2,66,100,0
2,64,100,196
2,56,100,0
2,59,100,0
2,58,100,8
2,61,100,0
2,66,100,0
2,58,100,4
2,61,100,0
2,66,100,0
2,54,100,292
2,58,100,0
2,61,100,0
2,54,100,8
2,58,100,0
2,61,100,0
2,54,100,4
2,58,100,0
2,61,100,0
2,59,100,292
2,63,100,0
2,54,100,0
2,54,100,8
2,58,100,0
2,61,100,0
2,54,100,4
2,58,100,0
2,61,100,0
2,59,100,292
2,63,100,0
2,54,100,0
2,54,100,8
2,58,100,0
2,61,100,0
2,54,100,4
2,58,100,0
2,61,100,0
2,59,100,292
2,63,100,0
2,54,100,0
2,54,100,8
2,58,100,0
2,61,100,0
2,54,100,4
2,58,100,0
2,61,100,0
2,59,100,292
2,63,100,0
2,54,100,0
2,59,100,8
2,63,100,0
2,54,100,0
2,59,100,4
2,63,100,0
2,54,100,0
2,56,100,292
2,64,100,0
2,59,100,0
2,56,100,8
2,59,100,0
2,63,100,0
2,66,100,0
2,56,100,4
2,59,100,0
2,63,100,0
2,66,100,0
2,56,100,292
2,59,100,0
2,61,100,0
2,64,100,0
2,55,100,8
2,59,100,0
2,63,100,0
2,66,100,0
2,55,100,4
2,59,100,0
2,63,100,0
2,66,100,0
2,67,100,292
2,59,100,0
2,61,100,0
2,64,100,0
2,69,100,8
2,59,100,0
2,63,100,0
2,66,100,0
2,69,100,4
2,59,100,0
2,63,100,0
2,66,100,0
2,67,100,292
2,64,100,0
2,59,100,0
2,61,100,0
2,58,100,8
2,61,100,0
2,63,100,0
2,66,100,0
2,58,100,4
2,61,100,0
2,63,100,0
2,66,100,0
2,54,100,292
2,58,100,0
2,61,100,0
2,63,100,0
2,61,100,136
2,63,100,0
2,66,100,0
2,70,100,0
2,63,100,132
2,68,100,0
2,71,100,0
2,63,100,4
2,68,100,0
2,71,100,0
2,61,100,196
2,66,100,0
2,70,100,0
2,59,100,4
2,63,100,0
2,68,100,0
2,59,100,4
2,63,100,0
2,68,100,0
2,58,100,196
2,61,100,0
2,66,100,0
2,56,100,4
2,64,100,0
2,59,100,0
2,56,100,4
2,64,100,0
2,59,100,0
2,56,100,292
2,64,100,0
2,59,100,0
2,66,100,8
2,61,100,0
2,59,100,0
2,61,100,4
2,66,100,0
2,59,100,0
2,58,100,292
2,61,100,0
2,66,100,0
2,63,100,8
2,66,100,0
2,59,100,0
2,63,100,4
2,66,100,0
2,59,100,0
2,56,100,292
2,59,100,0
2,63,100,0
2,63,100,8
2,66,100,0
2,59,100,0
2,63,100,4
2,66,100,0
2,59,100,0
2,63,100,292
2,59,100,0
2,54,100,0
2,56,100,8
2,66,100,0
2,59,100,0
2,56,100,4
2,66,100,0
2,59,100,0
2,64,100,292
2,59,100,0
2,56,100,0
2,58,100,8
2,61,100,0
2,66,100,0
2,58,100,4
2,61,100,0
2,66,100,0
2,54,100,292
2,58,100,0
2,61,100,0
2,51,100,8
2,56,100,0
2,63,100,0
2,59,100,0
2,51,100,4
2,63,100,0
2,52,100,4
2,64,100,0
2,52,100,4
2,58,100,0
2,64,100,0
2,61,100,0
2,65,100,4
2,53,100,0
2,54,100,4
2,66,100,0
2,56,100,4
2,59,100,0
2,66,100,0
2,68,100,0
2,54,100,768
2,51,100,4
2,58,100,4
2,61,100,0
2,66,100,0
2,56,100,4
2,60,100,0
2,63,100,0
2,51,100,4
2,56,100,4
2,59,100,0
2,63,100,0
2,51,100,4
2,52,100,4
2,63,100,4
2,56,100,0
2,59,100,0
2,64,100,4
2,53,100,4
2,58,100,0
2,61,100,0
2,65,100,0
2,53,100,4
2,65,100,0
2,58,100,0
2,61,100,0
2,54,100,4
2,66,100,0
2,56,100,4
2,59,100,0
2,66,100,0
2,68,100,0
2,58,100,4
2,54,100,0
2,49,100,0
2,51,100,4
2,56,100,0
2,60,100,0
2,51,100,4
2,56,100,0
2,60,100,0
2,47,100,4
2,52,100,0
2,56,100,0
2,59,100,0
2,54,100,4
2,58,100,0
2,61,100,0
2,54,100,8
2,59,100,0
2,63,100,0
2,54,100,4
2,58,100,0
2,61,100,0
2,54,100,8
2,59,100,0
2,63,100,0
2,54,100,0
2,54,100,0
2,54,100,0
2,59,100,8
2,63,100,0
2,54,100,0
2,56,100,8
2,64,100,0
2,59,100,0
2,55,100,4
2,59,100,0
2,63,100,0
2,66,100,0
2,55,100,4
2,59,100,0
2,63,100,0
2,66,100,0
2,61,100,4
2,59,100,0
2,64,100,0
2,67,100,0
2,58,100,1540
2,61,100,0
2,63,100,0
2,66,100,0
2,71,100,4
2,68,100,0
2,63,100,0
2,61,100,4
2,66,100,0
2,70,100,0
2,59,100,4
2,63,100,0
2,68,100,0
2,58,100,4
2,61,100,0
2,66,100,0
2,56,100,4
2,59,100,0
2,64,100,0
2,52,100,4
2,55,100,0
2,59,100,0
2,61,100,0
2,54,100,4
2,58,100,0
2,61,100,0
2,54,100,4
2,56,100,0
2,59,100,0
2,63,100,0
2,52,100,132
2,56,100,0
2,59,100,0
2,52,100,132
2,56,100,0
2,59,100,0
2,54,100,132
2,58,100,0
2,61,100,0
2,54,100,132
2,58,100,0
2,61,100,0
2,56,100,132
2,59,100,0
2,63,100,0
2,56,100,132
2,59,100,0
2,63,100,0
2,56,100,132
2,59,100,0
2,64,100,0
2,56,100,132
2,59,100,0
2,64,100,0
2,54,100,4
2,58,100,0
2,61,100,0
2,54,100,4
2,58,100,0
2,61,100,0
2,59,100,292
2,63,100,0
2,54,100,0
2,54,100,8
2,58,100,0
2,61,100,0
2,54,100,4
2,58,100,0
2,61,100,0
2,59,100,292
2,63,100,0
2,54,100,0
2,54,100,8
2,58,100,0
2,61,100,0
2,54,100,4
2,58,100,0
2,61,100,0
2,59,100,292
2,63,100,0
2,54,100,0
2,54,100,8
2,58,100,0
2,61,100,0
2,54,100,4
2,58,100,0
2,61,100,0
2,59,100,292
2,63,100,0
2,54,100,0
2,59,100,8
2,63,100,0
2,54,100,0
2,59,100,4
2,63,100,0
2,54,100,0
2,56,100,292
2,64,100,0
2,59,100,0
2,56,100,8
2,59,100,0
2,63,100,0
2,66,100,0
2,56,100,4
2,59,100,0
2,63,100,0
2,66,100,0
2,56,100,292
2,59,100,0
2,61,100,0
2,64,100,0
2,55,100,8
2,59,100,0
2,63,100,0
2,66,100,0
2,55,100,4
2,59,100,0
2,63,100,0
2,66,100,0
2,67,100,292
2,59,100,0
2,61,100,0
2,64,100,0
2,69,100,8
2,59,100,0
2,63,100,0
2,66,100,0
2,69,100,4
2,59,100,0
2,63,100,0
2,66,100,0
2,67,100,292
2,64,100,0
2,59,100,0
2,61,100,0
2,58,100,8
2,61,100,0
2,63,100,0
2,66,100,0
2,58,100,4
2,61,100,0
2,63,100,0
2,66,100,0
2,54,100,292
2,58,100,0
2,61,100,0
2,63,100,0
2,61,100,136
2,63,100,0
2,66,100,0
2,70,100,0
2,63,100,132
2,68,100,0
2,71,100,0
2,63,100,4
2,68,100,0
2,71,100,0
2,61,100,196
2,66,100,0
2,70,100,0
2,59,100,4
2,63,100,0
2,68,100,0
2,59,100,4
2,63,100,0
2,68,100,0
2,58,100,196
2,61,100,0
2,66,100,0
2,56,100,4
2,64,100,0
2,59,100,0
2,56,100,4
2,64,100,0
2,59,100,0
2,56,100,292
2,64,100,0
2,59,100,0
2,66,100,8
2,61,100,0
2,59,100,0
2,61,100,4
2,66,100,0
2,59,100,0
2,58,100,292
2,61,100,0
2,66,100,0
2,63,100,8
2,66,100,0
2,59,100,0
2,63,100,4
2,66,100,0
2,59,100,0
2,56,100,292
2,59,100,0
