track,note,velocity,time
2,52,98,960
2,59,92,0
2,64,103,0
2,67,105,0
2,45,96,436
2,57,89,0
2,60,92,0
2,64,93,0
2,67,92,0
2,43,98,594
2,62,90,0
2,67,96,0
2,69,90,0
2,71,95,0
2,47,105,342
2,64,90,0
2,66,104,0
2,71,103,0
2,47,92,356
2,66,86,0
2,71,99,0
2,73,98,0
2,75,92,0
2,40,99,34
2,59,89,0
2,64,100,0
2,67,105,0
2,71,87,36
2,76,95,0
2,79,99,0
2,69,95,126
2,74,105,0
2,78,104,0
2,45,93,26
2,67,86,0
2,72,87,0
2,76,86,0
2,76,89,1366
2,81,96,0
2,84,96,0
2,74,84,122
2,79,84,0
2,83,85,0
2,72,95,142
2,76,96,0
2,81,103,0
2,43,98,14
2,71,86,0
2,74,93,0
2,79,87,0
2,59,42,306
2,62,70,0
2,67,93,0
2,47,95,396
2,64,84,0
2,66,96,0
2,71,100,0
2,63,78,664
2,66,90,0
2,71,96,0
2,47,107,64
2,64,89,0
2,66,102,0
2,71,99,0
2,66,88,916
2,71,98,0
2,73,94,0
2,75,92,0
2,43,107,2
2,62,105,0
2,67,107,0
2,71,107,0
2,42,96,80
2,62,89,0
2,66,94,0
2,69,98,0
2,40,96,82
2,59,86,0
2,64,95,0
2,67,95,0
2,38,100,32
2,59,86,0
2,62,96,0
2,67,96,0
2,36,96,94
2,60,89,0
2,64,90,0
2,67,95,0
2,35,87,88
2,59,95,0
2,63,96,0
2,66,92,0
2,40,99,90
2,59,99,0
2,64,99,0
2,67,96,0
2,40,85,164
2,59,82,192
2,43,103,14
2,59,95,0
2,62,107,0
2,67,100,0
2,59,59,86
2,59,92,276
2,62,99,0
2,65,98,0
2,59,76,96
2,48,93,8
2,55,100,0
2,60,99,0
2,64,100,0
2,55,59,76
2,60,45,418
2,45,99,2
2,57,93,0
2,61,96,0
2,64,103,0
2,57,41,34
2,57,50,128
2,45,71,78
2,57,79,192
2,61,65,0
2,64,84,0
2,57,58,18
2,45,93,28
2,55,93,0
2,61,92,0
2,64,99,0
2,55,80,84
2,45,96,52
2,61,92,192
2,43,109,92
2,62,103,0
2,67,105,0
2,71,96,0
2,42,102,64
2,62,79,0
2,66,84,0
2,69,95,0
2,40,99,86
2,59,87,0
2,64,93,0
2,67,95,0
2,38,98,80
2,59,85,0
2,62,93,0
2,67,95,0
2,36,93,92
2,60,95,0
2,64,100,0
2,67,100,0
2,35,89,84
2,59,89,0
2,63,92,0
2,66,88,0
2,52,107,14
2,59,81,0
2,64,93,0
2,67,98,0
2,64,92,2304
2,71,86,192
2,76,96,0
2,83,77,32
2,88,75,0
2,48,96,16
2,57,96,0
2,60,99,0
2,64,113,0
2,43,96,20
2,59,96,0
2,62,103,0
2,67,96,0
2,62,81,720
2,71,84,308
2,67,96,266
2,47,90,30
2,59,96,0
2,64,107,0
2,66,98,0
2,47,103,88
2,59,103,0
2,63,104,0
2,66,104,0
2,40,96,1920
2,59,90,0
2,64,98,0
2,67,100,0
2,40,57,80
2,40,96,152
2,59,70,0
2,64,84,0
2,67,90,0
2,59,68,86
2,62,75,0
2,66,70,0
2,48,92,66
2,55,93,0
2,60,98,0
2,64,100,0
2,48,93,300
2,55,93,192
2,60,95,0
2,64,95,0
2,55,68,36
2,48,50,84
2,43,95,56
2,55,87,0
2,59,89,0
2,62,99,0
2,59,62,348
2,43,84,130
2,59,79,192
2,62,95,0
2,67,89,0
2,59,46,106
2,47,93,56
2,59,87,0
2,64,93,0
2,66,86,0
2,59,90,298
2,64,98,0
2,66,85,0
2,47,92,60
2,59,80,0
2,63,88,0
2,66,82,0
2,59,30,172
2,59,82,156
2,63,100,0
2,66,92,0
2,40,93,74
2,59,87,0
2,64,98,0
2,67,96,0
2,59,95,16
2,64,95,0
2,67,103,0
2,40,98,32
2,59,85,96
2,64,89,0
2,66,92,0
2,48,95,34
2,55,93,0
2,60,96,0
2,64,96,0
2,55,37,1272
2,48,87,290
2,55,95,192
2,60,99,0
2,64,100,0
2,48,69,186
2,43,96,42
2,55,89,0
2,59,89,0
2,62,96,0
2,59,52,726
2,43,70,138
2,43,100,20
2,59,82,0
2,62,89,0
2,67,92,0
2,59,52,52
2,47,92,84
2,59,95,0
2,64,100,0
2,66,94,0
2,59,84,494
2,64,95,0
2,66,85,0
2,47,93,88
2,59,80,0
2,63,94,0
2,66,78,0
2,59,99,416
2,47,100,62
2,59,93,0
2,64,98,0
2,66,88,0
2,59,99,560
2,64,107,0
2,66,96,0
2,47,96,4
2,59,90,0
2,63,98,0
2,66,90,0
2,43,107,10
2,62,105,0
2,67,107,0
2,71,107,0
2,42,96,80
2,62,89,0
2,66,94,0
2,69,98,0
2,40,96,82
2,59,86,0
2,64,95,0
2,67,95,0
2,38,100,32
2,59,86,0
2,62,96,0
2,67,96,0
2,36,96,94
2,60,89,0
2,64,90,0
2,67,95,0
2,35,87,88
2,59,95,0
2,63,96,0
2,66,92,0
2,40,99,90
2,59,99,0
2,64,99,0
2,67,96,0
2,40,85,164
2,59,82,192
2,43,103,14
2,59,95,0
2,62,107,0
2,67,100,0
2,59,59,86
2,59,92,276
2,62,99,0
2,65,98,0
2,59,76,96
2,48,93,8
2,55,100,0
2,60,99,0
2,64,100,0
2,55,59,76
2,60,45,418
2,45,99,2
2,57,93,0
2,61,96,0
2,64,103,0
2,57,41,34
2,57,50,128
2,45,71,78
2,57,79,192
2,61,65,0
2,64,84,0
2,57,58,18
2,45,93,28
2,55,93,0
2,61,92,0
2,64,99,0
2,55,80,84
2,45,96,52
2,61,92,192
2,43,109,92
2,62,103,0
2,67,105,0
2,71,96,0
2,42,102,64
2,62,79,0
2,66,84,0
2,69,95,0
2,40,99,86
2,59,87,0
2,64,93,0
2,67,95,0
2,38,98,80
2,59,85,0
2,62,93,0
2,67,95,0
2,36,93,92
2,60,95,0
2,64,100,0
2,67,100,0
2,35,89,84
2,59,89,0
2,63,92,0
2,66,88,0
2,40,90,14
2,55,95,0
2,59,105,0
2,64,105,0
2,71,84,200
2,76,95,192
2,83,81,192
2,88,84,192
2,48,93,58
2,55,95,0
2,60,99,0
2,64,111,0
2,43,92,6
2,55,90,0
2,59,93,0
2,62,103,0
2,79,79,486
2,83,86,0
2,81,68,118
2,84,79,0
2,81,81,128
2,84,86,0
2,81,93,126
2,84,99,0
2,79,105,12
2,83,109,0
2,67,76,430
2,71,72,0
2,67,81,124
2,71,76,0
2,69,89,124
2,72,90,0
2,69,92,126
2,72,93,0
2,69,89,124
2,72,93,0
2,47,81,114
2,64,76,0
2,66,80,0
2,71,90,0
2,47,60,138
2,66,51,0
2,71,37,0
2,47,81,108
2,64,93,0
2,66,86,0
2,71,89,0
2,47,48,90
2,66,49,0
2,71,24,0
2,47,86,114
2,64,100,0
2,66,98,0
2,71,96,0
2,47,29,86
2,47,53,148
2,64,48,0
2,66,61,0
2,71,40,0
2,47,77,48
2,63,84,0
2,66,82,0
2,71,79,0
2,47,59,90
2,63,51,0
2,66,64,0
2,71,41,0
2,47,63,118
2,63,41,0
2,66,51,0
2,47,98,126
2,63,100,0
2,66,96,0
2,71,96,0
2,47,63,106
2,63,63,0
2,66,68,0
2,71,45,0
2,47,93,120
2,63,92,0
2,66,88,0
2,71,89,0
2,47,103,116
2,63,102,0
2,66,102,0
2,71,98,0
2,47,107,114
2,63,102,0
2,66,98,0
2,71,98,0
2,43,107,122
2,62,105,0
2,67,107,0
2,71,107,0
2,42,96,80
2,62,89,0
2,66,94,0
2,69,98,0
2,40,96,82
2,59,86,0
2,64,95,0
2,67,95,0
2,38,100,32
2,59,86,0
2,62,96,0
2,67,96,0
2,36,96,94
2,60,89,0
2,64,90,0
2,67,95,0
2,35,87,88
2,59,95,0
2,63,96,0
2,66,92,0
2,40,99,90
2,59,99,0
2,64,99,0
2,67,96,0
2,40,85,164
2,59,82,192
2,43,103,14
2,59,95,0
2,62,107,0
2,67,100,0
2,59,59,86
2,59,92,276
2,62,99,0
2,65,98,0
2,59,76,96
2,48,93,8
2,55,100,0
2,60,99,0
2,64,100,0
2,55,59,76
2,60,45,418
2,45,99,2
2,57,93,0
2,61,96,0
2,64,103,0
2,57,41,34
2,57,50,128
2,45,71,78
2,57,79,192
2,61,65,0
2,64,84,0
2,57,58,18
2,45,93,28
2,55,93,0
2,61,92,0
2,64,99,0
2,55,80,84
2,45,96,52
2,61,92,192
2,43,109,92
2,62,103,0
2,67,105,0
2,71,96,0
2,42,102,64
2,62,79,0
2,66,84,0
2,69,95,0
2,40,99,86
2,59,87,0
2,64,93,0
2,67,95,0
2,38,98,80
2,59,85,0
2,62,93,0
2,67,95,0
2,48,89,92
2,60,90,0
2,64,93,0
2,67,92,0
2,47,93,54
2,57,93,0
2,63,96,0
2,66,96,0
2,40,80,350
2,59,76,0
2,64,85,0
2,67,92,0
3,40,87,13248
3,40,87,288
3,40,72,480
3,40,85,480
3,40,68,480
3,33,84,192
3,33,92,288
3,33,74,480
3,33,100,0
3,33,85,288
3,42,72,480
3,43,89,192
3,43,87,288
3,43,92,480
3,43,90,480
3,43,81,480
3,35,85,192
3,35,82,288
3,42,85,480
3,47,85,192
3,35,87,288
3,35,71,480
3,35,93,0
3,35,86,288
3,35,89,480
3,35,90,480
3,35,93,96
3,33,87,96
3,43,99,192
3,43,82,114
3,42,90,124
3,42,85,160
3,40,87,116
3,40,86,112
3,38,55,122
3,38,87,158
3,36,95,112
3,36,82,112
3,35,87,126
3,35,72,152
3,40,95,118
3,40,80,160
3,40,96,134
3,40,81,140
3,31,100,116
3,31,93,150
3,31,96,116
3,35,90,132
3,36,90,114
3,36,73,134
3,36,99,142
3,35,49,44
3,33,95,146
3,33,69,110
3,33,90,134
3,33,96,166
3,33,85,82
3,33,103,128
3,33,89,136
3,43,93,92
3,43,72,196
3,42,88,102
3,42,81,152
3,40,86,104
3,40,80,128
3,38,90,126
3,36,90,196
3,36,79,118
3,35,90,110
3,35,81,172
3,28,95,120
3,28,67,184
3,28,93,128
3,28,87,230
3,28,82,120
3,28,93,138
3,35,89,384
3,40,71,22
3,36,89,30
3,36,76,156
3,36,103,156
3,36,98,308
3,36,72,156
3,36,95,166
3,30,86,576
3,31,68,10
3,31,71,138
3,31,90,144
3,31,87,262
3,31,86,140
3,31,103,150
3,35,95,86
3,35,84,140
3,35,92,142
3,35,90,326
3,35,58,162
3,35,98,152
3,28,74,62
3,28,65,116
3,28,86,132
3,28,72,112
3,28,87,134
3,28,76,124
3,28,99,136
3,35,62,20
3,36,81,114
3,36,65,150
3,36,98,118
3,36,68,162
3,36,93,136
3,36,69,170
3,36,73,132
3,33,76,18
3,31,96,138
3,31,57,136
3,31,93,130
3,31,82,118
3,31,99,128
3,31,79,124
3,31,85,138
3,35,81,142
3,35,77,160
3,35,93,118
3,35,65,138
3,35,86,140
3,35,65,132
3,35,96,156
3,29,81,68
3,28,77,146
3,28,76,178
3,28,93,138
3,28,100,326
3,28,87,146
3,28,100,140
3,35,82,30
3,36,84,12
3,36,79,198
3,36,95,130
3,36,57,162
3,36,67,142
3,36,68,172
3,36,105,136
3,36,73,144
3,31,98,130
3,31,77,132
3,31,103,116
3,31,80,138
3,31,93,142
3,31,92,118
3,31,92,146
3,35,99,128
3,35,92,132
3,35,96,126
3,35,82,122
3,35,99,136
3,35,74,144
3,35,96,132
3,35,92,360
3,35,80,126
3,35,74,128
3,35,71,144
3,35,96,128
3,35,77,150
3,35,95,130
3,35,77,152
3,43,99,124
3,43,82,114
3,42,90,124
3,42,85,160
3,40,87,116
3,40,86,112
3,38,55,122
3,38,87,158
3,36,95,112
3,36,82,112
3,35,87,126
3,35,72,152
3,40,95,118
3,40,80,160
3,40,96,134
3,40,81,140
3,31,100,116
3,31,93,150
3,31,96,116
3,35,90,132
3,36,90,114
3,36,73,134
3,36,99,142
3,35,49,44
3,33,95,146
3,33,69,110
3,33,90,134
3,33,96,166
3,33,85,82
3,33,103,128
3,33,89,136
3,43,93,92
3,43,72,196
3,42,88,102
3,42,81,152
3,40,86,104
3,40,80,128
3,38,90,126
3,36,90,196
3,36,79,118
3,35,90,110
3,35,81,172
3,40,95,120
3,40,79,142
3,40,95,150
3,40,73,132
3,40,86,64
3,40,92,158
3,35,54,28
3,36,95,130
3,36,80,138
3,36,92,136
3,36,87,128
3,36,72,90
3,36,95,144
3,31,92,84
3,31,74,150
3,31,81,140
3,31,79,180
3,31,73,124
3,31,92,130
3,35,90,172
3,35,75,140
3,35,82,138
3,35,85,130
3,35,81,156
3,35,95,130
3,43,99,114
3,43,82,114
3,42,90,124
3,42,85,160
3,40,87,116
3,40,86,112
3,38,55,122
3,38,87,158
3,36,95,112
3,36,82,112
3,35,87,126
3,35,72,152
3,40,95,118
3,40,80,160
3,40,96,134
3,40,81,140
3,31,100,116
3,31,93,150
3,31,96,116
3,35,90,132
3,36,90,114
3,36,73,134
3,36,99,142
3,35,49,44
3,33,95,146
3,33,69,110
3,33,90,134
3,33,96,166
3,33,85,82
3,33,103,128
3,33,89,136
3,43,93,92
3,43,72,196
3,42,88,102
3,42,81,152
3,40,86,104
3,40,80,128
3,38,90,126
3,36,92,192
4,67,85,764
4,67,100,138
4,66,78,12
4,64,86,8
4,66,81,26
4,64,79,8
4,64,85,126
4,67,96,110
4,66,86,14
4,64,82,34
4,64,96,90
4,66,54,54
4,67,90,386
4,67,95,120
4,66,81,14
4,64,84,32
4,66,86,66
4,64,87,20
4,64,81,98
4,64,90,108
4,67,90,108
4,66,88,50
4,64,75,64
4,66,77,50
4,71,89,542
4,71,99,146
4,69,72,50
4,69,98,116
4,69,93,114
4,67,77,42
4,67,85,122
4,67,93,124
4,71,100,120
4,69,84,46
4,67,71,78
4,69,93,28
4,71,85,666
4,71,96,114
4,69,79,30
4,69,89,108
4,69,96,106
4,67,86,8
4,67,81,118
4,67,95,124
4,67,99,124
4,66,85,2
4,66,92,110
4,76,90,740
4,76,103,110
4,74,90,212
4,71,82,64
4,71,92,110
4,69,80,16
4,69,95,120
4,67,84,18
4,71,87,4
4,69,84,206
4,67,70,4
4,71,73,878
4,71,103,116
4,69,85,12
4,69,89,106
4,69,89,100
4,67,89,20
4,67,89,114
4,67,85,104
4,71,92,116
4,69,82,36
4,67,74,48
4,69,87,42
4,71,95,744
4,69,54,84
4,71,96,10
4,69,70,34
4,69,81,108
4,69,92,102
4,67,92,10
4,67,90,110
4,67,98,102
4,71,89,82
4,69,82,128
4,69,87,52
4,69,86,60
4,71,89,684
4,71,98,114
4,71,82,84
4,71,76,130
4,71,96,94
4,69,86,56
4,69,86,100
4,67,89,10
4,67,90,128
4,66,100,176
4,66,98,92
4,76,92,498
4,76,93,96
4,74,84,0
4,74,89,108
4,71,90,70
4,69,84,38
4,69,93,106
4,67,85,12
4,69,95,4
4,71,90,190
4,69,86,30
4,71,95,64
4,71,109,324
4,69,95,240
4,67,84,62
4,67,98,148
4,67,96,98
4,69,105,84
4,69,93,68
4,67,95,38
4,69,93,66
4,71,105,40
4,69,72,64
4,71,90,54
4,67,99,1408
4,67,98,98
4,69,99,200
4,71,93,36
4,69,69,70
4,71,92,34
4,76,98,798
4,76,105,100
4,74,93,36
4,74,95,96
4,69,93,92
4,71,90,62
4,69,96,466
4,67,87,30
4,69,76,8
4,64,79,14
4,67,103,22
4,67,84,1432
4,70,86,130
4,69,98,10
4,67,79,18
4,69,92,40
4,67,90,40
4,74,93,632
4,76,92,36
4,74,100,38
4,69,81,10
4,71,96,60
4,71,93,78
4,69,95,14
4,69,93,68
4,67,89,26
4,69,96,44
4,67,75,16
4,69,82,172
4,71,90,64
4,67,105,1470
4,64,69,32
4,70,86,10
4,69,99,22
4,67,86,26
4,64,87,20
4,67,92,11870
4,67,109,126
4,66,84,40
4,66,100,116
4,64,99,36
4,64,90,106
4,64,93,116
4,67,96,102
4,66,86,6
4,64,84,86
4,66,61,38
4,67,95,464
4,66,85,110
4,67,99,6
4,66,73,50
4,66,96,108
