track,note,velocity,time
1,70,127,1920
1,70,127,56
1,70,127,60
1,70,127,60
1,72,127,100
1,74,127,176
1,65,127,0
1,70,127,928
1,70,127,44
1,70,127,48
1,70,127,40
1,72,127,108
1,74,127,176
1,67,127,28
1,72,127,728
1,72,127,28
1,72,127,32
1,72,127,40
1,74,127,88
1,75,126,12
1,67,127,4
1,69,127,840
1,69,127,116
1,70,127,268
1,72,127,164
1,74,127,172
1,65,127,196
1,70,127,556
1,70,120,56
1,70,127,40
1,70,127,40
1,72,127,196
1,74,127,176
1,65,127,188
1,70,124,528
1,70,127,36
1,70,127,48
1,72,127,16
1,74,127,4
1,67,127,12
1,72,127,224
1,72,127,20
1,72,127,40
1,72,127,36
1,72,127,40
1,74,127,12
1,75,127,180
1,67,127,12
1,69,127,884
1,69,127,44
1,69,127,48
1,69,127,68
1,70,127,196
1,72,127,12
1,74,127,184
1,70,127,400
1,74,127,360
1,70,127,8
1,74,127,92
1,74,127,96
1,72,127,100
1,70,127,8
1,67,127,16
1,72,127,4
1,74,127,140
1,74,127,80
1,72,127,4
1,70,127,0
1,67,127,4
1,72,127,4
1,74,127,8
1,74,127,88
1,72,127,92
1,70,127,4
1,65,127,4
1,70,126,12
1,74,127,672
1,70,127,16
1,74,127,108
1,74,127,116
1,72,127,4
1,70,127,8
1,67,127,12
1,72,127,8
1,74,127,72
1,74,127,108
1,72,127,4
1,70,127,4
1,67,127,12
1,70,127,296
1,69,127,148
1,70,127,32
1,72,127,20
1,72,127,116
1,74,127,4
1,72,127,96
1,70,127,52
1,70,123,1020
1,70,125,20
1,70,117,20
1,70,127,32
1,70,127,28
1,72,127,0
1,74,127,184
1,65,127,196
1,70,127,968
1,70,127,32
1,70,127,36
1,70,127,48
1,72,127,36
1,74,127,4
1,67,127,8
1,72,122,572
1,72,127,40
1,72,127,24
1,72,127,40
1,74,127,388
1,75,127,196
1,67,127,8
1,69,127,496
1,69,123,52
1,69,127,52
1,70,127,272
1,72,127,160
1,74,127,172
1,70,127,300
1,74,127,592
1,70,127,16
1,74,127,196
1,74,127,116
1,72,127,0
1,70,127,12
1,67,127,16
1,72,127,12
1,74,127,88
1,74,127,128
1,72,127,8
1,70,127,4
1,67,127,16
1,70,127,288
1,74,127,132
1,74,127,100
1,72,127,8
1,70,127,4
1,65,127,4
1,70,126,300
1,74,127,520
1,70,127,28
1,74,127,112
1,74,127,104
1,72,127,4
1,70,127,24
1,67,127,12
1,72,127,292
1,74,127,76
1,74,127,120
1,72,127,12
1,70,127,4
1,67,127,16
1,70,127,24
1,69,127,4
1,70,127,12
1,72,127,8
1,72,127,60
1,74,127,100
1,72,127,4
1,70,127,12
1,70,127,6544
1,70,127,40
1,70,127,36
1,70,127,28
1,70,123,28
1,72,127,4
1,74,112,96
1,65,119,92
1,70,103,168
1,70,127,40
1,70,127,28
1,70,127,40
1,70,125,32
1,72,127,4
1,74,127,188
1,67,127,4
1,72,127,976
1,72,127,20
1,72,127,40
1,72,127,40
1,74,127,180
1,75,127,184
1,67,127,8
1,69,112,372
1,69,127,68
1,69,127,24
1,69,127,44
1,70,127,272
1,72,127,168
1,74,127,172
1,70,127,296
1,74,127,516
1,70,127,16
1,74,127,172
1,74,127,112
1,72,127,16
1,70,127,28
1,67,127,4
1,72,127,4
1,74,127,124
1,74,127,108
1,72,127,16
1,70,127,16
1,67,127,16
1,70,127,0
1,74,127,72
1,74,127,96
1,72,127,8
1,70,127,8
1,65,127,16
1,70,123,276
1,74,127,316
1,70,127,40
1,74,127,72
1,74,127,84
1,72,127,8
1,70,127,24
1,67,127,12
1,72,127,12
1,74,127,40
1,74,127,100
1,72,127,16
1,70,127,12
1,67,127,16
1,70,127,280
1,69,127,104
1,70,127,188
1,72,127,36
1,72,127,84
1,74,127,200
1,72,127,148
1,70,127,12
1,74,127,324
1,70,127,4
1,74,127,68
1,74,127,68
1,72,127,16
1,70,127,8
1,67,127,4
1,72,127,4
1,74,127,64
1,74,127,88
1,72,127,12
1,70,127,92
1,67,127,8
1,70,127,24
1,74,127,32
1,74,127,88
1,72,127,4
1,70,127,16
1,65,127,12
1,70,118,292
1,74,127,484
1,70,127,4
1,74,127,100
1,74,127,112
1,72,127,96
1,70,127,12
1,67,127,84
1,72,127,284
1,74,127,80
1,74,127,96
1,72,127,12
1,70,127,8
1,67,127,8
1,70,127,12
1,69,127,4
1,70,127,184
1,72,127,184
1,72,127,52
1,74,127,100
1,72,127,28
1,70,127,8
2,34,127,15360
2,29,120,40
2,34,122,0
2,34,126,108
2,29,114,76
2,34,126,0
2,34,127,96
2,34,126,88
2,36,124,92
2,31,116,56
2,36,126,96
2,36,127,72
2,31,127,16
2,36,127,20
2,36,127,4
2,36,127,80
2,36,112,80
2,39,127,20
2,34,124,144
2,39,127,16
2,39,127,92
2,39,127,76
2,41,127,44
2,36,110,64
2,29,126,96
2,29,126,108
2,29,121,52
2,34,127,16
2,29,110,24
2,34,126,16
2,34,127,80
2,29,127,8
2,31,126,8
2,34,127,4
2,31,122,4
2,34,127,96
2,29,119,176
2,34,122,96
2,34,126,64
2,34,127,68
2,36,127,44
2,36,127,104
2,36,127,120
2,36,115,64
2,39,126,100
2,34,127,560
2,39,124,180
2,39,127,104
2,39,127,60
2,34,127,196
2,34,119,88
2,34,127,36
2,34,127,84
2,44,94,48
2,46,127,0
2,43,123,80
2,41,124,84
2,38,123,0
2,34,127,96
2,29,126,200
2,34,127,96
2,34,127,56
2,34,127,92
2,29,126,288
2,36,127,12
2,31,119,0
2,36,127,96
2,36,127,56
2,36,124,72
2,39,127,36
2,34,127,120
2,39,127,16
2,39,127,88
2,39,127,84
2,41,127,72
2,29,127,380
2,34,127,12
2,34,127,1892
2,34,127,124
2,34,127,140
2,29,123,4
2,34,127,20
2,34,127,140
2,34,127,128
2,34,113,56
2,36,126,28
2,36,113,176
2,36,127,64
2,36,127,72
2,31,127,12
2,36,127,28
2,36,123,128
2,36,127,140
2,36,120,96
2,39,127,192
2,34,113,92
2,39,127,96
2,39,126,84
2,34,127,288
2,27,127,8
2,39,127,96
2,29,127,84
2,36,127,140
2,41,127,0
2,41,127,96
2,36,127,288
2,29,127,88
2,34,127,8
2,29,127,184
2,34,127,20
2,34,127,92
2,43,127,60
2,41,127,96
2,38,127,64
2,34,127,4
2,29,127,268
2,34,127,4
2,34,127,72
2,34,127,84
2,36,127,56
2,31,123,12
2,36,126,96
2,36,127,64
2,36,127,96
2,39,127,24
2,34,127,20
2,39,127,100
2,39,127,56
2,39,127,100
2,34,127,192
2,29,116,132
2,34,127,100
2,34,127,100
2,46,126,192
2,41,119,88
2,34,127,80
2,29,119,4
2,34,127,96
2,29,127,128
2,34,127,100
2,34,127,88
2,34,127,120
2,36,127,56
2,36,117,196
2,36,127,56
2,36,127,80
2,36,127,60
2,39,127,16
2,34,116,32
2,39,127,96
2,39,127,76
2,39,127,112
2,41,127,48
2,29,127,380
2,34,127,12
2,34,127,100
2,43,127,96
2,41,127,92
2,38,127,68
2,34,127,188
2,34,127,108
2,34,127,92
2,29,127,384
2,31,127,0
2,34,127,8
2,36,127,60
2,31,127,60
2,36,127,96
2,36,127,84
2,36,127,96
2,39,127,12
2,39,127,108
2,41,127,28
2,41,127,84
2,29,127,32
2,31,127,96
2,34,127,272
2,34,127,164
2,34,127,44
2,34,127,96
2,43,127,288
2,41,127,88
2,34,127,164
2,34,127,892
2,29,119,216
2,34,127,0
2,34,127,84
2,29,127,0
2,31,127,12
2,34,127,12
2,29,121,120
2,34,127,0
2,34,127,108
2,29,127,8
2,31,127,96
2,34,127,12
2,29,127,0
2,36,127,96
2,31,127,156
2,36,127,96
2,36,127,88
2,34,127,12
2,36,127,12
2,36,111,100
2,36,127,56
2,36,127,84
2,36,127,84
2,39,127,28
2,34,127,172
2,39,127,0
2,39,127,92
2,34,127,4
2,27,127,96
2,29,127,184
2,36,127,76
2,41,127,4
2,41,127,60
2,36,127,288
2,29,127,80
2,34,127,4
2,29,127,148
2,34,127,24
2,34,127,92
2,43,127,4
2,41,127,96
2,38,127,64
2,29,127,4
2,34,127,0
2,29,127,180
2,34,127,96
2,34,127,68
2,29,127,4
2,31,127,12
2,34,127,96
2,36,127,32
2,31,127,116
2,36,127,96
2,36,127,64
2,36,127,76
2,39,127,4
2,34,127,32
2,39,127,96
2,39,127,72
2,39,127,64
2,34,127,196
2,29,127,152
2,34,127,4
2,34,127,88
2,43,127,92
2,41,127,96
2,38,127,68
2,29,127,4
2,34,127,0
2,29,127,132
2,34,127,100
2,34,127,64
2,29,127,288
2,31,127,4
2,34,127,8
2,36,127,32
2,31,127,56
2,36,127,8
2,36,127,76
2,36,123,56
2,38,127,0
2,39,127,100
2,34,127,160
2,39,127,24
2,39,127,96
2,39,127,92
2,41,127,64
2,41,127,124
2,29,127,32
2,31,127,4
2,29,127,96
2,34,127,0
2,29,127,12
2,31,127,96
2,34,127,8
2,29,127,124
2,34,127,4
2,34,127,100
2,34,127,112
2,36,127,12
2,31,118,36
2,36,127,24
2,36,127,104
2,36,127,96
2,39,127,28
2,39,127,124
2,39,127,120
2,39,127,92
2,39,127,104
2,34,127,196
2,29,127,196
2,31,127,4
2,34,127,8
2,34,127,80
2,43,127,12
2,41,127,96
2,38,127,72
2,29,123,12
2,34,127,100
2,34,127,168
2,34,127,148
2,29,127,480
2,31,127,80
2,34,127,88
2,36,127,12
2,36,127,68
2,36,127,84
2,36,127,52
2,36,127,36
2,39,127,44
2,34,127,160
2,39,127,40
2,39,127,92
2,39,127,100
2,41,127,76
2,41,127,88
2,29,127,28
2,31,127,8
2,34,127,32
2,29,127,96
2,34,127,16
2,29,127,384
2,31,127,4
2,34,127,96
2,31,127,4
2,29,127,684
2,34,127,4
2,34,127,76
2,29,127,288
2,31,127,84
2,34,127,92
2,31,83,0
2,36,127,4
2,31,127,152
2,36,127,28
2,36,127,96
2,36,127,56
2,38,127,96
2,39,127,76
2,34,127,160
2,39,127,4
2,39,127,76
2,27,127,192
2,29,127,84
2,31,127,8
2,34,127,8
2,29,127,52
2,34,127,4
2,34,127,80
2,31,127,24
2,29,127,96
2,31,124,12
2,34,127,32
2,34,127,44
2,29,127,188
2,34,127,4
2,34,127,100
2,34,127,56
2,36,127,40
2,31,123,156
2,36,127,16
2,36,127,104
2,36,126,68
2,38,126,8
2,39,127,12
2,34,127,140
2,39,127,28
2,39,127,80
2,34,127,288
2,27,127,96
2,29,127,48
2,41,127,4
2,29,127,192
2,34,127,12
3,62,114,1536
3,58,114,8
3,53,114,0
3,60,114,2672
3,62,114,384
3,63,114,12
3,60,114,4
3,55,114,0
3,62,114,1140
3,63,114,384
3,58,114,0
3,60,114,20
3,57,114,8
3,65,114,0
3,62,114,20
3,58,114,0
3,53,114,0
3,60,114,1140
3,62,114,4
3,62,114,920
3,58,114,0
3,53,114,0
3,60,114,1128
3,62,114,388
3,63,114,4
3,60,114,0
3,55,114,0
3,62,114,1124
3,63,114,4
3,58,114,1568
3,60,114,28
3,57,114,0
3,65,114,0
3,62,114,12
3,53,114,0
3,58,114,0
3,63,114,8
3,55,114,0
3,60,114,0
3,58,114,1544
3,62,114,20
3,58,114,0
3,53,114,0
3,63,114,12
3,55,114,0
3,60,114,0
3,58,114,1540
3,57,114,36
3,65,114,0
3,60,114,0
3,62,114,48
3,53,114,0
3,58,114,4
3,62,114,1380
3,58,114,12
3,53,114,0
3,63,114,8
3,60,114,0
3,55,114,0
3,62,114,1156
3,63,114,380
3,58,114,1532
3,57,114,20
3,60,114,0
3,65,114,12
3,58,114,16
3,62,114,0
3,53,114,4
3,63,114,0
3,60,114,0
3,55,114,12
3,58,114,1528
3,62,114,16
3,58,114,8
3,53,114,4
3,62,114,44
3,58,114,0
3,53,114,4
3,63,114,0
3,55,114,0
3,60,114,12
3,58,114,1528
3,65,114,92
3,60,114,0
3,57,114,0
3,62,114,80
3,58,114,0
3,53,114,0
3,62,114,156
3,53,114,0
3,58,114,0
3,63,114,20
3,55,114,0
3,60,114,4
3,55,114,0
3,63,114,0
3,63,114,52
3,60,114,0
3,55,114,0
3,58,114,12
3,60,114,20
3,57,114,12
3,65,114,0
3,62,114,8
3,53,114,4
3,58,114,0
3,58,114,1308
3,53,114,8
3,62,114,0
3,63,114,12
3,60,114,8
3,55,114,0
3,62,114,12
3,63,114,4
3,58,114,1544
3,60,114,4
3,57,114,32
3,65,114,0
3,62,114,24
3,58,114,0
3,53,114,16
3,63,114,16
3,55,114,8
3,60,114,0
3,58,114,1540
3,58,114,20
3,53,114,0
3,62,114,0
3,63,114,20
3,60,114,0
3,55,114,4
3,58,114,0
3,60,114,52
3,57,114,12
3,65,114,0
3,62,114,32
3,58,114,0
3,53,114,16
3,63,114,28
3,55,114,0
3,60,114,0
3,58,114,4
3,58,114,12
3,62,114,4
3,53,114,8
3,63,114,12
3,55,114,0
3,60,114,0
3,58,114,8
3,60,114,44
3,57,114,12
3,65,114,0
3,62,114,12
3,53,114,0
3,58,114,16
3,63,114,4
3,55,114,0
3,60,114,0
3,58,114,4
3,62,114,60
3,53,114,0
3,63,114,16
3,60,114,0
3,55,114,0
3,58,114,8
3,60,114,36
3,57,114,0
3,65,114,0
3,62,114,4
3,58,114,12
3,53,114,0
4,53,102,1536
4,58,107,4
4,62,107,0
4,58,112,36
4,62,107,0
4,53,108,4
4,58,114,72
4,62,109,0
4,53,106,4
4,62,101,40
4,58,112,0
4,53,108,0
4,62,106,60
4,58,113,0
4,53,108,0
4,58,114,60
4,62,107,0
4,53,105,0
4,62,105,88
4,58,113,0
4,53,107,0
4,60,114,48
4,53,110,0
4,58,116,0
4,58,116,48
4,62,112,0
4,53,110,0
4,58,118,40
4,62,114,0
4,53,115,0
4,62,108,72
4,58,114,0
4,53,106,0
4,58,116,44
4,62,117,0
4,53,112,4
4,60,110,60
4,55,122,0
4,63,107,4
4,60,119,72
4,63,111,0
4,55,119,0
4,63,107,116
4,55,114,0
4,60,110,0
4,62,114,72
4,55,114,0
4,60,122,0
4,55,107,76
4,63,106,0
4,60,110,0
4,63,108,60
4,55,109,0
4,60,110,0
4,63,105,92
4,55,110,0
4,60,108,0
4,63,111,116
4,55,110,0
4,60,117,0
4,55,115,120
4,63,111,0
4,58,108,4
4,63,110,76
4,58,113,0
4,55,114,0
4,63,111,56
4,58,112,0
4,55,114,0
4,58,110,88
4,63,106,0
4,55,110,0
4,60,112,72
4,57,109,0
4,65,110,0
4,57,110,76
4,65,114,0
4,60,112,0
4,57,110,48
4,65,114,0
4,60,114,0
4,65,112,84
4,57,110,0
4,60,114,0
4,62,98,60
4,58,112,0
4,53,107,4
4,58,110,52
4,62,107,0
4,53,108,0
4,53,109,60
4,58,116,0
4,62,114,0
4,60,117,68
4,58,114,0
4,53,110,0
4,62,109,72
4,58,112,0
4,53,109,0
4,58,118,960
4,62,112,0
4,53,110,0
4,58,114,68
4,62,109,0
4,53,110,4
4,62,112,64
4,53,109,0
4,58,120,0
4,53,109,52
4,60,115,0
4,58,118,4
4,53,112,56
4,58,120,0
4,62,114,0
4,58,118,56
4,53,107,0
4,62,109,4
4,58,110,68
4,62,107,4
4,53,105,0
4,58,114,76
4,53,106,0
4,62,107,0
4,55,108,156
4,60,108,0
4,63,106,0
4,63,112,48
4,55,108,0
4,60,114,4
4,63,112,56
4,55,109,0
4,60,115,0
4,60,112,80
4,55,112,0
4,62,110,0
4,63,110,72
4,60,115,0
4,55,109,0
4,63,110,52
4,60,114,4
4,55,108,0
4,63,112,88
4,60,114,0
4,55,108,0
4,63,114,60
4,55,112,0
4,60,122,0
4,63,112,96
4,58,118,0
4,55,117,0
4,63,112,52
4,58,116,0
4,55,119,4
4,58,113,64
4,63,112,0
4,55,112,0
4,63,111,60
4,58,111,0
4,55,114,0
4,57,115,64
4,60,115,0
4,65,117,0
4,57,114,84
4,60,114,0
4,65,115,4
4,57,109,104
4,65,110,0
4,60,109,0
4,57,117,72
4,65,117,4
4,60,117,0
