track,note,velocity,time
0,46,26,143
0,46,0,4
0,46,32,380
0,46,0,4
0,71,62,252
0,71,0,47
0,69,71,4
0,69,0,53
0,40,50,22
0,67,44,13
0,69,80,1
0,47,70,28
0,47,68,6
0,52,92,17
0,50,70,12
0,44,23,0
0,55,66,2
0,44,0,2
0,62,75,1
0,64,60,12
0,55,51,29
0,66,62,26
0,67,74,4
0,40,50,3
0,64,80,4
0,47,70,28
0,47,75,1
0,55,0,13
0,52,93,3
0,50,70,12
0,62,0,2
0,44,23,0
0,55,70,3
0,44,0,1
0,64,0,11
0,62,68,2
0,64,65,13
0,62,69,27
0,64,85,0
0,45,50,3
0,60,68,17
0,67,85,1
0,52,70,29
0,45,72,3
0,52,84,2
0,62,0,11
0,55,68,3
0,55,70,7
0,44,23,0
0,64,0,2
0,44,0,2
0,60,68,2
0,64,66,8
0,60,36,35
0,45,50,3
0,52,70,29
0,45,75,2
0,52,84,3
0,60,0,12
0,55,70,3
0,55,70,9
0,64,0,1
0,44,22,0
0,60,72,1
0,44,0,3
0,64,67,10
0,67,64,16
0,69,76,4
0,48,50,3
0,66,85,1
0,66,78,4
0,54,70,35
0,48,75,1
0,54,84,3
0,57,70,4
0,64,0,9
0,60,70,3
0,57,70,3
0,44,23,0
0,44,0,4
0,64,70,2
0,64,64,7
0,66,76,3
0,47,50,3
0,63,85,3
0,54,70,29
0,47,75,2
0,57,0,14
0,51,84,1
0,60,0,12
0,57,78,2
0,64,0,11
0,59,67,2
0,59,70,1
0,44,23,0
0,44,0,4
0,66,67,5
0,59,67,1
0,59,85,11
0,40,50,3
0,59,83,15
0,64,85,10
0,47,70,29
0,47,64,1
0,52,84,3
0,59,0,12
0,55,72,3
0,64,0,2
0,55,70,2
0,44,23,0
0,66,0,2
0,44,0,2
0,62,71,1
0,64,72,2
0,40,50,3
0,47,70,35
0,55,70,29
0,44,22,0
0,44,0,4
0,71,66,16
0,69,74,3
0,40,50,3
0,67,55,7
0,69,85,3
0,47,70,9
0,52,59,1
0,50,70,29
0,44,23,0
0,55,82,1
0,44,0,3
0,52,0,2
0,55,51,35
0,59,70,2
0,55,0,11
0,66,67,13
0,67,77,4
0,40,50,0
0,64,85,8
0,47,70,25
0,64,65,0
0,50,70,35
0,44,23,0
0,52,82,1
0,44,0,3
0,64,0,4
0,62,69,15
0,60,85,4
0,45,50,3
0,60,70,4
0,67,85,7
0,52,70,35
0,52,66,2
0,55,70,5
0,44,23,0
0,55,82,2
0,44,0,2
0,67,0,6
0,60,36,29
0,45,50,3
0,60,82,1
0,55,0,1
0,52,70,29
0,64,64,1
0,60,0,9
0,55,70,17
0,44,22,0
0,55,82,2
0,44,0,2
0,67,85,10
0,69,85,3
0,48,50,3
0,66,85,12
0,54,70,29
0,57,64,1
0,57,70,35
0,44,23,0
0,64,82,1
0,57,0,3
0,44,0,0
0,60,63,31
0,64,85,1
0,66,85,11
0,63,85,8
0,48,0,4
0,54,0,0
0,57,0,0
0,47,50,3
0,60,0,1
0,54,82,1
0,63,84,30
0,54,70,10
0,57,64,2
0,59,70,29
0,63,82,2
0,44,23,0
0,44,0,4
0,57,0,6
0,54,69,1
0,63,0,11
0,59,85,2
0,59,0,25
0,59,85,5
0,40,50,3
0,54,0,0
0,59,85,13
0,64,85,10
0,47,70,29
0,40,82,12
0,47,82,14
0,52,82,13
0,55,82,14
0,55,70,2
0,44,23,0
0,44,0,4
0,59,82,4
0,40,50,3
0,47,70,29
0,40,82,10
0,47,0,1
0,47,82,1
0,67,98,5
0,55,0,11
0,52,82,2
0,40,95,5
0,55,70,1
0,44,22,0
0,59,0,2
0,55,82,2
0,44,0,0
0,59,82,1
0,69,101,5
0,42,104,3
0,71,101,4
0,40,0,2
0,47,0,0
0,55,0,0
0,42,0,5
0,43,108,0
0,43,104,3
0,47,104,3
0,50,103,2
0,55,102,3
0,59,100,3
0,71,99,3
0,43,37,2
0,47,10,8
0,43,104,2
0,55,0,0
0,47,104,1
0,59,0,1
0,50,104,2
0,55,104,2
0,43,0,2
0,59,101,1
0,44,45,0
0,67,99,1
0,71,100,1
0,44,0,2
0,55,63,4
0,43,1,5
0,50,0,4
0,71,92,1
0,50,54,2
0,67,32,1
0,55,50,7
0,50,0,3
0,47,0,5
0,50,40,0
0,43,0,7
0,47,20,2
0,71,101,2
0,43,37,4
0,43,61,1
0,50,0,0
0,52,63,1
0,36,104,3
0,48,55,0
0,52,96,3
0,55,75,5
0,55,63,1
0,71,84,19
0,71,101,5
0,48,0,2
0,43,49,2
0,48,4,2
0,55,63,16
0,71,89,6
0,52,63,1
0,43,102,0
0,55,0,1
0,48,102,1
0,71,100,1
0,59,0,0
0,44,45,0
0,52,102,1
0,67,0,0
0,55,63,3
0,55,102,0
0,44,0,0
0,59,101,1
0,64,100,1
0,59,63,4
0,67,83,11
0,64,100,1
0,48,4,2
0,55,0,3
0,52,72,2
0,55,45,2
0,48,18,2
0,69,91,3
0,43,28,4
0,41,67,0
0,52,0,0
0,53,63,3
0,48,55,0
0,55,0,1
0,41,108,1
0,53,99,2
0,59,0,1
0,57,63,4
0,57,75,0
0,60,90,3
0,41,34,2
0,53,0,5
0,48,25,2
0,53,68,7
0,41,77,1
0,57,0,1
0,53,63,1
0,48,105,0
0,60,0,0
0,53,105,2
0,64,0,1
0,59,0,1
0,57,105,0
0,60,105,2
0,57,63,1
0,44,45,0
0,60,63,1
0,65,105,0
0,44,0,3
0,41,0,1
0,53,81,2
0,60,0,2
0,57,72,2
0,60,72,4
0,60,66,1
0,53,0,9
0,57,62,0
0,48,0,6
0,53,54,1
0,41,0,6
0,48,20,1
0,41,46,4
0,51,63,1
0,41,0,4
0,48,0,3
0,57,63,2
0,53,0,1
0,42,73,1
0,35,115,3
0,47,43,0
0,51,105,3
0,57,78,6
0,69,100,5
0,42,37,2
0,47,4,2
0,69,89,15
0,69,102,1
0,57,0,1
0,51,0,0
0,57,0,2
0,51,63,1
0,47,104,0
0,60,0,0
0,35,0,2
0,51,104,0
0,65,0,1
0,57,104,2
0,44,45,0
0,60,0,2
0,59,104,0
0,57,63,2
0,44,0,0
0,66,104,1
0,59,63,5
0,66,102,11
0,63,90,2
0,57,32,7
0,47,0,10
0,63,0,6
0,42,0,0
0,47,16,2
0,67,102,5
0,42,46,2
0,40,67,0
0,51,0,0
0,52,63,1
0,47,40,2
0,57,0,2
0,40,106,1
0,52,99,2
0,55,63,1
0,55,75,3
0,40,1,1
0,47,1,8
0,40,20,5
0,47,0,14
0,52,57,4
0,47,69,8
0,52,63,1
0,47,102,0
0,52,0,1
0,59,0,0
0,52,102,1
0,66,0,1
0,55,102,1
0,59,102,3
0,55,63,2
0,64,102,0
0,44,46,0
0,44,0,4
0,47,0,12
0,52,0,2
0,64,102,28
0,55,0,5
0,52,68,2
0,55,50,2
0,40,0,8
0,66,87,4
0,40,0,6
0,47,18,2
0,40,37,6
0,40,43,3
0,52,0,1
0,47,34,3
0,55,0,0
0,67,102,1
0,55,0,1
0,52,63,1
0,52,96,1
0,59,0,1
0,55,63,1
0,55,70,2
0,62,99,1
0,38,113,1
0,69,86,10
0,52,72,7
0,55,0,0
0,55,70,3
0,47,12,0
0,71,101,1
0,40,43,6
0,52,63,1
0,52,0,1
0,40,107,1
0,55,0,1
0,47,107,1
0,62,0,0
0,52,107,2
0,64,0,1
0,44,46,0
0,55,107,1
0,62,107,1
0,55,63,2
0,44,0,0
0,64,106,1
0,74,86,14
0,52,70,1
0,62,0,2
0,55,72,2
0,38,0,4
0,62,70,1
0,47,16,3
0,40,49,7
0,64,101,4
0,52,0,0
0,62,0,0
0,48,100,3
0,36,113,1
0,55,0,0
0,59,100,0
0,52,100,4
0,55,72,0
0,62,97,18
0,64,91,9
0,46,33,0
0,59,0,2
0,46,0,2
0,47,59,2
0,71,58,31
0,69,85,4
0,40,70,2
0,67,44,13
0,69,85,1
0,47,57,28
0,52,48,23
0,44,23,0
0,55,48,2
0,44,0,2
0,62,48,1
0,64,48,12
0,66,85,26
0,67,85,4
0,40,70,3
0,64,85,4
0,47,59,3
0,52,48,3
0,62,0,14
0,44,23,0
0,55,48,3
0,44,0,1
0,64,0,11
0,62,48,2
0,64,48,13
0,62,85,27
0,64,85,0
0,45,70,3
0,60,68,17
0,67,85,1
0,52,82,1
0,52,58,1
0,55,48,1
0,55,82,0
0,44,23,0
0,64,0,2
0,44,0,2
0,60,48,2
0,64,48,8
0,60,82,1
0,45,0,2
0,45,70,3
0,52,58,3
0,64,82,0
0,55,48,3
0,64,0,10
0,55,82,0
0,44,22,0
0,60,48,1
0,44,0,3
0,64,48,10
0,67,86,26
0,69,79,3
0,48,70,3
0,66,93,5
0,54,60,3
0,54,43,1
0,55,0,12
0,57,43,4
0,60,0,6
0,60,43,5
0,64,0,8
0,66,0,5
0,44,23,0
0,44,0,4
0,64,43,2
0,67,89,9
0,69,73,9
0,47,70,3
0,66,76,5
0,54,58,17
0,51,37,1
0,60,0,1
0,66,0,13
0,57,38,0
0,64,0,11
0,59,39,2
0,44,17,0
0,44,0,4
0,66,41,5
0,67,84,9
0,69,72,2
0,47,0,24
0,48,52,3
0,66,76,7
0,54,41,3
0,57,44,7
0,46,17,0
0,66,0,2
0,46,0,2
0,66,65,17
0,66,72,2
0,40,93,34
0,47,68,15
0,66,0,8
0,52,89,2
0,56,80,13
0,59,95,12
0,48,0,5
0,54,0,0
0,52,71,2
0,64,62,0
0,66,93,1
0,56,74,5
0,59,30,4
0,64,90,3
0,59,54,1
0,56,52,1
0,52,35,3
0,64,0,22
0,47,80,3
0,56,0,1
0,52,95,3
0,59,0,1
0,56,86,4
0,64,0,0
0,56,0,1
0,59,89,3
0,64,86,4
0,56,60,3
0,59,77,7
0,64,91,3
0,64,65,4
0,59,96,7
0,64,58,2
0,56,0,6
0,59,62,2
0,52,0,5
0,56,62,2
0,52,40,2
0,40,114,4
0,52,0,1
0,47,83,3
0,56,0,0
0,52,86,4
0,59,0,1
0,56,92,3
0,64,0,1
0,59,92,3
0,64,62,5
0,64,60,3
0,59,77,2
0,56,50,4
0,52,74,3
0,59,0,2
0,52,0,1
0,56,68,3
0,64,0,3
0,56,0,0
0,52,56,1
0,59,0,1
0,59,62,1
0,56,56,3
0,59,0,0
0,64,62,5
0,59,52,1
0,59,62,1
0,52,0,5
0,56,52,3
0,52,60,3
0,40,0,3
0,47,68,2
0,40,90,6
0,47,86,3
0,56,0,2
0,52,110,1
0,59,0,1
0,56,117,3
0,64,0,1
0,59,117,1
0,64,60,5
0,64,62,3
0,56,0,5
0,59,86,3
0,52,0,3
0,56,83,2
0,52,60,5
0,64,76,28
0,59,0,0
0,59,62,2
0,64,60,4
0,64,0,2
0,64,53,7
0,64,99,3
0,52,35,2
0,59,0,5
0,64,106,1
0,45,92,0
0,57,58,1
0,52,0,1
0,52,117,1
0,52,0,1
0,64,0,2
0,56,0,0
0,57,110,0
0,61,71,2
0,59,0,1
0,61,117,1
0,64,0,3
0,64,60,1
0,64,83,0
0,66,99,3
0,61,62,2
0,57,52,7
0,45,84,2
0,52,84,1
0,40,105,3
0,61,0,0
0,52,0,2
0,68,110,1
0,57,84,1
0,64,0,0
0,61,84,3
0,57,0,2
0,52,68,1
0,64,88,1
0,61,0,3
0,57,62,3
0,61,68,4
0,64,74,5
0,69,106,7
0,64,60,4
0,57,0,3
0,61,77,3
0,52,0,2
0,57,80,3
0,52,58,4
0,45,80,4
0,57,0,0
0,40,105,3
0,52,92,1
0,61,0,1
0,57,58,3
0,64,0,1
0,61,86,2
0,64,58,5
0,52,71,1
0,61,0,4
0,57,68,3
0,64,0,2
0,61,77,3
0,64,60,4
0,45,89,1
0,52,92,2
0,61,0,0
0,40,102,1
0,57,104,1
0,64,0,0
0,61,98,3
0,57,0,1
0,64,86,3
0,57,50,2
0,61,0,2
0,61,50,7
0,64,65,3
0,57,0,2
0,61,80,3
0,52,0,3
0,57,80,3
0,52,62,4
0,69,76,4
0,57,0,3
0,52,56,1
0,57,0,0
0,61,0,4
0,57,50,2
0,61,0,0
0,57,62,1
0,61,54,5
0,64,0,2
0,61,86,3
0,69,0,2
0,64,47,7
0,61,56,1
0,57,52,5
0,69,99,4
0,61,60,0
0,57,47,7
0,69,0,21
0,47,83,1
0,57,0,2
0,54,95,1
0,54,74,1
0,69,103,1
0,59,117,0
0,61,0,2
0,63,117,1
0,59,56,2
0,66,117,2
0,64,0,3
0,63,71,3
0,66,30,1
0,68,86,3
0,69,0,1
0,68,0,22
0,59,50,3
0,68,113,2
0,54,44,0
0,54,71,3
0,54,0,0
0,63,0,1
0,59,0,2
0,47,97,1
0,59,77,1
0,66,0,2
0,54,96,0
0,63,0,0
0,63,71,3
0,59,96,0
0,66,0,1
0,63,96,3
0,66,60,1
0,66,96,3
0,66,99,5
0,54,22,2
0,59,58,2
0,66,0,4
0,63,77,1
0,66,40,3
0,63,73,1
0,54,0,2
0,59,77,4
0,54,77,3
0,42,92,1
0,47,83,3
0,59,0,0
0,54,96,3
0,63,0,0
0,59,96,3
0,66,0,1
0,63,96,3
0,66,96,4
0,63,62,2
0,59,52,7
0,35,55,3
0,54,71,0
0,54,52,0
0,59,0,0
0,35,31,0
0,63,0,2
0,35,0,2
0,63,0,1
0,59,68,1
0,59,52,0
0,66,0,3
0,66,0,1
0,63,71,2
0,66,0,0
0,63,68,1
0,66,68,2
0,66,52,1
0,35,0,7
0,66,65,2
0,59,0,3
0,63,80,3
0,54,0,2
0,47,0,4
0,59,77,0
0,35,74,3
0,54,86,0
0,35,47,0
0,42,0,1
0,47,83,3
0,35,0,0
0,42,101,3
0,35,0,14
0,35,95,1
0,54,117,0
0,35,63,0
0,59,0,2
0,59,107,0
0,66,0,0
0,35,0,2
0,63,117,2
0,63,0,2
0,59,52,1
0,66,89,0
0,63,50,0
0,66,60,2
0,59,0,3
0,63,60,3
0,63,0,1
0,35,103,2
0,54,0,0
0,35,79,0
0,66,80,1
0,59,71,2
0,35,0,0
0,63,77,1
0,54,0,1
0,47,0,0
0,54,40,3
0,59,71,0
0,54,83,0
0,42,0,3
0,47,56,3
0,35,0,1
0,42,71,4
0,54,83,3
0,63,0,1
0,35,119,2
0,66,91,0
0,35,95,0
0,59,60,1
0,66,0,2
0,35,0,1
0,63,101,2
0,63,0,1
0,66,83,1
0,63,58,6
0,35,0,8
0,66,0,2
0,66,62,3
0,66,106,4
0,63,58,2
0,35,123,1
0,35,111,0
0,54,0,3
0,35,0,1
0,59,50,3
0,47,0,3
0,54,65,3
0,42,0,4
0,47,62,1
0,42,77,4
0,35,0,6
0,66,0,0
0,52,71,1
0,66,115,2
0,68,29,0
0,59,0,0
0,47,99,0
0,63,0,2
0,40,123,1
0,68,29,0
0,56,60,0
0,52,98,0
0,35,127,0
0,42,125,0
0,66,0,2
0,56,98,1
0,66,0,1
0,35,0,0
0,42,0,0
0,59,71,0
0,59,98,0
0,64,98,3
0,64,35,1
0,69,37,3
0,69,37,4
0,64,106,12
0,69,0,0
0,68,47,3
0,69,0,2
0,56,0,0
0,68,47,2
0,56,50,6
0,69,58,3
0,59,71,0
0,69,58,4
0,52,0,0
0,56,62,1
0,52,44,2
0,52,77,1
0,52,0,1
0,40,117,1
0,69,0,2
0,59,0,0
0,64,110,1
0,47,113,0
0,56,0,0
0,68,64,2
0,56,77,0
0,59,0,0
0,52,104,1
0,64,0,2
0,68,64,1
0,69,0,0
0,56,117,0
0,64,0,0
0,42,121,0
0,59,86,2
0,59,107,2
0,42,0,0
0,64,60,3
0,64,71,2
0,69,69,1
0,69,69,4
0,52,52,2
0,69,0,3
0,69,0,0
0,59,0,0
0,56,60,2
0,68,74,1
0,59,117,1
0,59,30,1
0,68,74,2
0,64,83,3
0,68,0,1
0,56,0,1
0,68,0,2
0,59,74,1
0,52,0,1
0,69,76,1
0,56,74,2
0,69,76,2
0,52,71,1
0,40,98,3
0,69,0,1
0,52,0,0
