track,note,velocity,time
1,69,100,192
1,74,100,4
1,77,100,4
1,76,100,4
1,72,100,4
1,69,100,4
1,62,100,964
1,67,100,4
1,70,100,4
1,69,100,4
1,65,100,4
1,62,100,4
1,69,100,580
1,74,100,4
1,77,100,4
1,76,100,4
1,72,100,4
1,69,100,4
1,62,100,964
1,67,100,4
1,70,100,4
1,69,100,4
1,65,100,4
1,62,100,4
1,77,100,580
1,76,100,4
1,77,100,4
1,76,100,4
1,72,100,4
1,74,100,4
1,77,100,580
1,77,100,4
1,77,100,4
1,77,100,4
1,81,100,4
1,81,100,4
1,79,100,4
1,77,100,4
1,69,100,580
1,74,100,4
1,77,100,4
1,76,100,4
1,72,100,4
1,74,100,4
1,72,100,4
1,69,100,4
1,67,100,4
1,67,100,4
1,69,100,4
1,69,100,196
1,74,100,4
1,77,100,4
1,76,100,4
1,72,100,4
1,74,100,4
1,72,100,4
1,69,100,4
1,67,100,4
1,67,100,4
1,69,100,4
1,69,100,196
1,74,100,4
1,77,100,4
1,76,100,4
1,72,100,4
1,74,100,4
1,72,100,4
1,67,100,1348
1,69,100,4
1,69,100,4
1,62,100,1348
1,67,100,4
1,70,100,4
1,69,100,4
1,65,100,4
1,67,100,4
1,65,100,4
1,69,100,6340
1,74,100,8
1,77,100,8
1,76,100,8
1,72,100,8
1,74,100,8
1,69,100,8
1,62,100,208
1,67,100,8
1,70,100,8
1,69,100,8
1,65,100,8
1,67,100,8
1,65,100,8
1,69,100,200
1,74,100,8
1,77,100,8
1,76,100,8
1,72,100,8
1,74,100,8
1,69,100,8
1,62,100,208
1,67,100,8
1,70,100,8
1,69,100,8
1,65,100,8
1,67,100,8
1,65,100,8
1,77,100,200
1,76,100,8
1,77,100,8
1,76,100,8
1,72,100,8
1,74,100,8
1,77,100,200
1,77,100,8
1,77,100,8
1,81,100,8
1,81,100,8
1,81,100,8
1,81,100,8
1,79,100,8
1,79,100,8
1,77,100,8
1,69,100,584
1,74,100,8
1,77,100,8
1,76,100,8
1,72,100,8
1,74,100,8
1,69,100,8
1,69,100,8
1,67,100,8
1,67,100,8
1,69,100,8
1,69,100,200
1,74,100,8
1,77,100,8
1,76,100,8
1,72,100,8
1,74,100,8
1,69,100,8
1,69,100,8
1,67,100,8
1,67,100,8
1,69,100,8
1,69,100,200
1,74,100,8
1,77,100,8
1,76,100,8
1,72,100,8
1,74,100,8
1,72,100,8
1,62,100,584
1,67,100,8
1,70,100,8
1,69,100,8
1,65,100,8
1,67,100,8
1,65,100,8
1,77,100,8
1,74,100,0
1,81,100,8
1,77,100,0
1,79,100,776
1,76,100,0
1,79,100,8
1,76,100,0
1,81,100,8
1,77,100,0
1,82,100,8
1,79,100,0
1,79,100,8
1,76,100,0
1,81,100,8
1,77,100,0
1,74,100,8
1,79,100,0
1,74,100,584
1,74,100,8
1,76,100,8
1,77,100,8
1,79,100,8
1,77,100,8
1,76,100,8
1,74,100,8
1,77,100,8
1,74,100,0
1,81,100,8
1,77,100,0
1,79,100,776
1,76,100,0
1,79,100,8
1,76,100,0
1,81,100,8
1,77,100,0
1,82,100,8
1,79,100,0
1,79,100,8
1,76,100,0
1,81,100,8
1,77,100,0
1,74,100,8
1,79,100,0
1,74,100,584
1,74,100,8
1,76,100,8
1,77,100,8
1,79,100,8
1,77,100,8
1,76,100,8
1,74,100,8
1,77,100,8
1,74,100,0
1,81,100,8
1,77,100,0
1,79,100,776
1,76,100,0
1,79,100,8
1,76,100,0
1,81,100,8
1,77,100,0
1,82,100,8
1,79,100,0
1,79,100,8
1,76,100,0
1,81,100,8
1,77,100,0
1,74,100,8
1,79,100,0
1,74,100,584
1,74,100,8
1,76,100,8
1,77,100,8
1,79,100,8
1,77,100,8
1,76,100,8
1,74,100,8
1,69,100,200
1,74,100,4
1,77,100,4
1,76,100,4
1,72,100,4
1,69,100,4
1,62,100,964
1,67,100,4
1,70,100,4
1,69,100,4
1,65,100,4
1,62,100,4
1,69,100,580
1,74,100,4
1,77,100,4
1,76,100,4
1,72,100,4
1,69,100,4
1,62,100,964
1,67,100,4
1,70,100,4
1,69,100,4
1,65,100,4
1,62,100,4
1,77,100,580
1,76,100,4
1,77,100,4
1,76,100,4
1,72,100,4
1,74,100,4
1,77,100,580
1,77,100,4
1,77,100,4
1,77,100,4
1,81,100,4
1,81,100,4
1,79,100,4
1,77,100,4
1,69,100,580
1,74,100,4
1,77,100,4
1,76,100,4
1,72,100,4
1,74,100,4
1,72,100,4
1,69,100,4
1,67,100,4
1,67,100,4
1,69,100,4
1,69,100,196
1,74,100,4
1,77,100,4
1,76,100,4
1,72,100,4
1,74,100,4
1,72,100,4
1,69,100,4
1,67,100,4
1,67,100,4
1,69,100,4
1,69,100,196
1,74,100,4
1,77,100,4
1,76,100,4
1,72,100,4
1,74,100,4
1,72,100,4
1,67,100,1348
1,69,100,4
1,69,100,4
1,62,100,1348
1,67,100,4
1,70,100,4
1,69,100,4
1,65,100,4
1,67,100,4
1,65,100,4
1,69,100,6340
1,74,100,8
1,77,100,8
1,76,100,8
1,72,100,8
1,74,100,8
1,69,100,8
1,62,100,208
1,67,100,8
1,70,100,8
1,69,100,8
1,65,100,8
1,67,100,8
1,65,100,8
1,69,100,200
1,74,100,8
1,77,100,8
1,76,100,8
1,72,100,8
1,74,100,8
1,69,100,8
1,62,100,208
1,67,100,8
1,70,100,8
1,69,100,8
1,65,100,8
1,67,100,8
1,65,100,8
1,77,100,200
1,76,100,8
1,77,100,8
1,76,100,8
1,72,100,8
1,74,100,8
1,77,100,200
1,77,100,8
1,77,100,8
1,81,100,8
1,81,100,8
1,81,100,8
1,81,100,8
1,79,100,8
1,79,100,8
1,77,100,8
1,69,100,584
1,74,100,8
1,77,100,8
1,76,100,8
1,72,100,8
1,74,100,8
1,69,100,8
1,69,100,8
1,67,100,8
1,67,100,8
1,69,100,8
1,69,100,200
1,74,100,8
1,77,100,8
1,76,100,8
1,72,100,8
1,74,100,8
1,69,100,8
1,69,100,8
1,67,100,8
1,67,100,8
1,69,100,8
1,69,100,200
1,74,100,8
1,77,100,8
1,76,100,8
1,72,100,8
1,74,100,8
1,72,100,8
1,62,100,584
1,67,100,8
1,70,100,8
1,69,100,8
1,65,100,8
1,67,100,8
1,65,100,8
1,77,100,8
1,74,100,0
1,81,100,8
1,77,100,0
1,79,100,776
1,76,100,0
1,79,100,8
1,76,100,0
1,81,100,8
1,77,100,0
1,82,100,8
1,79,100,0
1,79,100,8
1,76,100,0
1,81,100,8
1,77,100,0
1,74,100,8
1,79,100,0
1,74,100,584
1,74,100,8
1,76,100,8
1,77,100,8
1,79,100,8
1,77,100,8
1,76,100,8
1,74,100,8
1,77,100,8
1,74,100,0
1,81,100,8
1,77,100,0
1,79,100,776
1,76,100,0
1,79,100,8
1,76,100,0
1,81,100,8
1,77,100,0
1,82,100,8
1,79,100,0
1,79,100,8
1,76,100,0
1,81,100,8
1,77,100,0
1,74,100,8
1,79,100,0
1,74,100,584
1,74,100,8
1,76,100,8
1,77,100,8
1,79,100,8
1,77,100,8
1,76,100,8
1,74,100,8
1,77,100,8
1,74,100,0
1,81,100,8
1,77,100,0
1,79,100,776
1,76,100,0
1,79,100,8
1,76,100,0
1,81,100,8
1,77,100,0
1,82,100,8
1,79,100,0
1,79,100,8
1,76,100,0
1,81,100,8
1,77,100,0
1,74,100,8
1,79,100,0
1,74,100,584
1,74,100,8
1,76,100,8
1,77,100,8
1,79,100,8
1,77,100,8
1,76,100,8
1,74,100,8
1,77,100,8
1,74,100,0
1,81,100,8
1,77,100,0
1,79,100,776
1,76,100,0
1,79,100,8
1,76,100,0
1,81,100,8
1,77,100,0
1,82,100,8
1,79,100,0
1,79,100,8
1,76,100,0
1,81,100,8
1,77,100,0
1,74,100,8
1,79,100,0
1,74,100,584
1,74,100,8
1,76,100,8
1,77,100,8
1,79,100,8
1,77,100,8
1,76,100,8
1,74,100,8
1,77,100,8
1,74,100,0
1,81,100,8
1,77,100,0
1,79,100,776
1,76,100,0
1,79,100,8
1,76,100,0
1,81,100,8
1,77,100,0
1,82,100,8
1,79,100,0
1,79,100,8
1,76,100,0
1,81,100,8
1,77,100,0
1,74,100,8
1,79,100,0
1,74,100,584
1,74,100,8
1,76,100,8
1,77,100,8
1,79,100,8
1,77,100,8
1,76,100,8
1,74,100,8
1,77,100,8
1,74,100,0
1,81,94,8
1,77,94,0
1,79,74,776
1,76,74,0
1,79,71,8
1,76,71,0
1,81,67,8
1,77,67,0
1,82,64,8
1,79,64,0
1,79,57,8
1,76,57,0
1,81,54,8
1,77,54,0
1,74,51,8
1,79,51,0
1,74,31,584
1,74,27,8
1,76,24,8
1,77,21,8
1,79,17,8
1,77,14,8
1,76,11,8
1,74,4,8
2,57,100,1728
2,62,100,4
2,65,100,4
2,57,100,4
2,62,100,4
2,65,100,4
2,57,100,4
2,58,100,196
2,62,100,4
2,64,100,4
2,58,100,4
2,62,100,4
2,64,100,4
2,58,100,4
2,57,100,196
2,62,100,4
2,65,100,4
2,57,100,4
2,62,100,4
2,65,100,4
2,57,100,4
2,58,100,4
2,62,100,0
2,64,100,0
2,57,100,1348
2,62,100,4
2,65,100,4
2,57,100,4
2,62,100,4
2,65,100,4
2,57,100,4
2,58,100,196
2,62,100,4
2,64,100,4
2,58,100,4
2,62,100,4
2,64,100,4
2,58,100,4
2,57,100,196
2,62,100,4
2,65,100,4
2,57,100,4
2,62,100,4
2,65,100,4
2,57,100,4
2,58,100,4
2,62,100,0
2,64,100,0
2,62,100,1156
2,64,100,4
2,60,100,4
2,59,100,4
2,58,100,4
2,57,100,4
2,57,100,196
2,62,100,4
2,65,100,4
2,57,100,4
2,62,100,4
2,65,100,4
2,57,100,4
2,57,100,196
2,60,100,4
2,65,100,4
2,57,100,196
2,60,100,4
2,65,100,4
2,57,100,196
2,62,100,4
2,65,100,4
2,57,100,4
2,62,100,4
2,65,100,4
2,57,100,4
2,57,100,196
2,60,100,4
2,65,100,4
2,57,100,196
2,60,100,4
2,65,100,4
2,57,100,196
2,62,100,4
2,65,100,4
2,57,100,4
2,62,100,4
2,65,100,4
2,57,100,4
2,57,100,196
2,60,100,4
2,65,100,4
2,57,100,196
2,60,100,4
2,65,100,4
2,57,100,196
2,62,100,4
2,65,100,4
2,57,100,4
2,62,100,4
2,65,100,4
2,57,100,4
2,62,100,4
2,62,100,2692
2,62,100,4
2,65,100,8
2,69,100,8
2,62,100,8
2,65,100,8
2,67,100,8
2,62,100,8
2,65,100,8
2,69,100,8
2,62,100,8
2,65,100,8
2,67,100,8
2,62,100,8
2,65,100,8
2,67,100,8
2,62,100,8
2,65,100,8
2,67,100,8
2,62,100,8
2,65,100,8
2,69,100,8
2,62,100,8
2,65,100,8
2,67,100,8
2,62,100,8
2,65,100,8
2,69,100,8
2,62,100,8
2,65,100,8
2,67,100,8
2,62,100,8
2,65,100,8
2,67,100,8
2,62,100,8
2,65,100,8
2,67,100,8
2,62,100,8
2,62,100,1160
2,65,100,8
2,69,100,8
2,62,100,8
2,65,100,8
2,67,100,8
2,62,100,8
2,65,100,8
2,69,100,8
2,62,100,1160
2,65,100,8
2,69,100,8
2,62,100,8
2,65,100,8
2,67,100,8
2,62,100,8
2,65,100,8
2,69,100,8
2,62,100,1160
2,65,100,8
2,69,100,8
2,62,100,8
2,65,100,8
2,67,100,8
2,62,100,8
2,65,100,8
2,69,100,8
2,62,100,1160
2,65,100,8
2,69,100,8
2,62,100,8
2,65,100,8
2,67,100,8
2,62,100,8
2,65,100,8
2,69,100,8
2,62,100,1160
2,64,100,8
2,60,100,8
2,59,100,8
2,58,100,8
2,57,100,8
2,57,100,8
2,60,100,0
2,64,100,0
2,65,100,0
2,57,100,8
2,60,100,0
2,65,100,0
2,57,100,8
2,60,100,0
2,64,100,0
2,65,100,0
2,57,100,8
2,60,100,0
2,65,100,0
2,57,100,8
2,60,100,0
2,64,100,0
2,65,100,0
2,57,100,8
2,60,100,0
2,65,100,0
2,57,100,8
2,62,100,0
2,65,100,0
2,57,100,1160
2,60,100,0
2,57,100,8
2,60,100,0
2,57,100,8
2,60,100,0
2,57,100,8
2,60,100,0
2,57,100,8
2,60,100,0
2,57,100,8
2,60,100,0
2,57,100,8
2,60,100,0
2,57,100,8
2,60,100,0
2,57,100,8
2,60,100,0
2,57,100,8
2,60,100,0
2,57,100,8
2,60,100,0
2,57,100,8
2,60,100,0
2,57,100,8
2,60,100,0
2,57,100,8
2,60,100,0
2,57,100,8
2,60,100,0
2,57,100,8
2,60,100,0
2,57,100,8
2,60,100,0
2,57,100,8
2,60,100,0
2,57,100,8
2,60,100,0
2,57,100,8
2,60,100,0
2,57,100,8
2,60,100,0
2,57,100,8
2,60,100,0
2,57,100,8
2,60,100,0
2,57,100,8
2,60,100,0
2,57,100,8
2,62,100,0
2,65,100,0
2,57,100,8
2,62,100,0
2,65,100,0
2,57,100,8
2,62,100,0
2,65,100,0
2,57,100,8
2,62,100,0
2,65,100,0
2,57,100,8
2,62,100,0
2,65,100,0
2,60,100,8
2,64,100,0
2,67,100,0
2,60,100,8
2,64,100,0
2,67,100,0
2,60,100,8
2,64,100,0
2,67,100,0
2,60,100,8
2,64,100,0
2,67,100,0
2,59,100,8
2,62,100,0
2,67,100,0
2,59,100,8
2,62,100,0
2,67,100,0
2,59,100,8
2,62,100,0
2,67,100,0
2,62,100,96
2,59,100,8
2,67,100,0
2,59,100,8
2,62,100,0
2,67,100,0
2,58,100,8
2,62,100,0
2,65,100,0
2,58,100,8
2,62,100,0
2,65,100,0
2,58,100,8
2,62,100,0
2,65,100,0
2,58,100,8
2,62,100,0
2,65,100,0
2,58,100,8
2,62,100,0
2,65,100,0
2,57,100,8
2,62,100,0
2,65,100,0
2,57,100,8
2,62,100,0
2,65,100,0
2,57,100,8
2,62,100,0
2,65,100,0
2,57,100,8
2,62,100,0
2,65,100,0
2,57,100,8
2,62,100,0
2,65,100,0
2,60,100,8
2,64,100,0
2,67,100,0
2,60,100,8
2,64,100,0
2,67,100,0
2,60,100,8
2,64,100,0
2,67,100,0
2,60,100,8
2,64,100,0
2,67,100,0
2,59,100,8
2,62,100,0
2,67,100,0
2,59,100,8
2,62,100,0
2,67,100,0
2,59,100,8
2,62,100,0
2,67,100,0
2,62,100,96
2,59,100,8
2,67,100,0
2,59,100,8
2,62,100,0
2,67,100,0
2,58,100,8
2,62,100,0
2,65,100,0
2,58,100,8
2,62,100,0
2,65,100,0
2,58,100,8
2,62,100,0
2,65,100,0
2,58,100,8
2,62,100,0
2,65,100,0
2,58,100,8
2,62,100,0
2,65,100,0
2,57,100,8
2,62,100,0
2,65,100,0
2,57,100,8
2,62,100,0
2,65,100,0
2,57,100,8
2,62,100,0
2,65,100,0
2,57,100,8
2,62,100,0
2,65,100,0
2,57,100,8
2,62,100,0
2,65,100,0
2,60,100,8
2,64,100,0
2,67,100,0
2,60,100,8
2,64,100,0
2,67,100,0
2,60,100,8
2,64,100,0
2,67,100,0
2,60,100,8
2,64,100,0
2,67,100,0
2,59,100,8
2,62,100,0
2,67,100,0
2,59,100,8
2,62,100,0
2,67,100,0
2,59,100,8
2,62,100,0
2,67,100,0
2,62,100,96
2,59,100,8
2,67,100,0
2,59,100,8
2,62,100,0
2,67,100,0
2,58,100,8
2,62,100,0
2,65,100,0
2,57,100,1736
2,62,100,4
2,65,100,4
2,57,100,4
2,62,100,4
2,65,100,4
2,57,100,4
2,58,100,196
2,62,100,4
2,64,100,4
2,58,100,4
2,62,100,4
2,64,100,4
2,58,100,4
2,57,100,196
2,62,100,4
2,65,100,4
2,57,100,4
2,62,100,4
2,65,100,4
2,57,100,4
2,58,100,4
2,62,100,0
2,64,100,0
2,57,100,1348
2,62,100,4
2,65,100,4
2,57,100,4
2,62,100,4
2,65,100,4
2,57,100,4
2,58,100,196
2,62,100,4
2,64,100,4
2,58,100,4
2,62,100,4
2,64,100,4
2,58,100,4
2,57,100,196
2,62,100,4
