track,note,velocity,time
3,34,105,2400
3,46,106,40
3,46,101,35
3,34,104,278
3,34,105,50
3,46,97,28
3,31,105,53
3,43,101,610
3,43,101,168
3,31,104,278
3,31,105,75
3,34,105,33
3,38,105,33
3,50,106,40
3,50,101,35
3,38,97,168
3,38,104,83
3,38,105,75
3,41,105,65
3,53,106,40
3,53,101,35
3,41,97,168
3,41,104,83
3,39,105,75
3,36,105,23
3,34,105,25
3,46,106,40
3,46,101,35
3,34,104,278
3,34,105,50
3,46,97,28
3,31,105,53
3,43,101,610
3,43,101,168
3,31,104,278
3,31,105,75
3,34,105,33
3,38,105,33
3,50,106,40
3,50,101,35
3,38,97,168
3,38,104,83
3,38,105,75
3,41,105,65
3,53,106,40
3,53,101,35
3,41,97,168
3,41,104,83
3,41,105,75
3,34,105,273
3,46,106,40
3,46,101,35
3,34,104,278
3,31,105,50
3,43,101,610
3,43,101,168
3,31,104,278
3,34,105,30
3,38,105,33
3,50,106,40
3,50,101,35
3,38,97,168
3,38,104,83
3,41,97,23
3,41,105,93
3,53,106,40
3,53,101,35
3,41,97,168
3,41,104,83
3,39,105,75
3,36,105,23
3,34,105,25
3,46,106,40
3,46,101,35
3,34,104,278
3,34,105,50
3,46,97,28
3,31,105,53
3,43,101,610
3,43,101,168
3,31,104,278
3,31,105,75
3,34,105,33
3,38,105,33
3,50,106,40
3,50,101,35
3,38,97,168
3,38,104,83
3,38,105,75
3,41,105,65
3,53,106,40
3,53,101,35
3,41,97,168
3,41,104,83
3,39,105,75
3,36,105,23
3,34,107,25
3,46,108,3
3,46,103,155
3,34,106,278
3,38,106,50
3,41,107,50
3,41,103,3
3,41,103,170
3,41,106,278
3,29,109,15
3,29,107,83
3,41,108,3
3,41,103,155
3,29,99,168
3,29,106,83
3,36,99,23
3,36,107,93
3,48,108,3
3,48,103,155
3,36,99,168
3,36,106,83
3,34,107,48
3,32,107,25
3,44,108,3
3,44,103,155
3,32,106,278
3,44,99,23
3,36,107,53
3,48,103,50
3,48,103,48
3,36,106,278
3,36,107,75
3,39,107,33
3,37,107,33
3,49,108,40
3,49,103,35
3,37,99,168
3,37,106,83
3,37,107,75
3,32,107,65
3,44,108,40
3,44,103,35
3,32,99,168
3,32,106,83
3,32,107,75
3,32,107,23
3,39,109,25
3,39,110,155
3,39,107,53
3,39,109,143
3,34,102,110
3,36,107,40
3,39,109,65
3,39,110,155
3,39,107,53
3,39,109,143
3,34,102,110
3,36,107,40
3,34,109,65
3,34,110,155
3,34,107,53
3,34,109,143
3,29,102,110
3,31,107,40
3,34,109,65
3,34,110,155
3,34,107,53
3,34,109,143
3,29,102,110
3,31,107,40
3,39,109,65
3,39,110,155
3,39,107,53
3,39,109,143
3,34,102,110
3,36,107,40
3,39,109,65
3,39,110,155
3,39,107,53
3,39,109,143
3,34,102,110
3,36,107,40
3,34,109,65
3,34,110,155
3,34,107,53
3,34,109,143
3,29,102,110
3,31,107,40
3,34,109,65
3,34,110,55
3,34,109,60
3,29,102,135
3,31,107,40
3,34,109,65
3,34,107,315
3,46,108,40
3,46,103,35
3,34,106,278
3,31,107,50
3,43,103,610
3,43,103,168
3,31,106,278
3,34,107,30
3,38,107,33
3,50,108,40
3,50,103,35
3,38,99,168
3,38,106,83
3,41,99,23
3,41,107,93
3,53,108,40
3,53,103,35
3,41,99,168
3,41,106,83
3,39,107,75
3,36,107,23
3,34,107,25
3,46,108,40
3,46,103,35
3,34,106,278
3,34,107,50
3,46,99,28
3,31,107,53
3,43,103,610
3,43,103,168
3,31,106,278
3,31,107,75
3,34,107,33
3,38,107,33
3,50,108,40
3,50,103,35
3,38,99,168
3,38,106,83
3,38,107,75
3,41,107,65
3,53,108,40
3,53,103,35
3,41,99,168
3,41,106,83
3,39,107,75
3,36,107,23
3,36,108,25
3,36,109,40
3,36,104,35
3,36,107,278
3,31,108,30
3,33,108,33
3,45,104,610
3,45,104,168
3,33,107,278
3,36,108,30
3,38,96,30
3,40,108,25
3,40,109,40
3,40,104,35
3,28,100,168
3,28,107,83
3,28,100,23
3,31,100,80
3,31,108,93
3,43,109,40
3,43,104,35
3,31,100,168
3,31,107,83
3,29,108,75
3,26,108,23
3,36,108,25
3,48,109,40
3,48,104,35
3,36,100,168
3,36,107,83
3,36,108,50
3,31,100,28
3,33,108,53
3,45,104,610
3,45,104,168
3,33,107,278
3,33,108,75
3,31,108,33
3,28,108,33
3,40,109,40
3,40,104,35
3,28,100,168
3,28,107,83
3,28,108,75
3,31,108,65
3,43,109,40
3,43,104,35
3,31,100,168
3,31,107,83
3,38,108,75
3,35,108,23
3,36,109,25
3,36,108,30
3,36,105,120
3,36,108,278
3,31,108,50
3,31,108,83
3,31,109,63
3,31,109,40
3,43,105,93
3,43,111,168
3,43,108,83
3,31,111,15
3,31,109,83
3,31,110,3
3,31,105,155
3,31,101,168
3,31,108,83
3,38,101,23
3,38,101,93
3,38,109,93
3,50,110,3
3,50,105,155
3,38,101,168
3,38,108,83
3,38,109,58
3,36,109,83
3,34,109,25
3,46,110,3
3,46,105,155
3,34,101,168
3,34,108,83
3,46,101,23
3,38,109,53
3,50,105,50
3,50,105,48
3,38,101,168
3,38,108,83
3,38,109,75
3,41,109,33
3,39,109,33
3,51,110,40
3,51,105,35
3,39,101,168
3,39,108,83
3,39,109,75
3,34,109,65
3,46,110,40
3,46,105,35
3,34,101,170
3,34,108,83
3,34,109,75
3,34,106,35
3,34,109,70
3,41,109,25
3,41,110,155
3,41,107,53
3,41,109,143
3,36,102,110
3,38,107,40
3,41,109,65
3,41,110,155
3,41,107,53
3,41,109,143
3,36,102,110
3,38,107,40
3,36,109,65
3,36,110,155
3,36,107,53
3,36,109,143
3,31,102,110
3,33,107,40
3,36,109,65
3,36,110,155
3,36,107,53
3,36,109,143
3,31,102,110
3,33,107,40
3,41,109,65
3,41,110,155
3,41,107,53
3,41,109,143
3,36,102,110
3,38,107,40
3,41,109,65
3,41,110,155
3,41,107,53
3,41,109,143
3,36,102,110
3,38,107,40
3,36,109,65
3,36,110,155
3,36,107,53
3,36,109,143
3,31,102,110
3,33,107,40
3,36,109,65
3,36,110,55
3,36,109,60
3,31,102,135
3,33,107,40
3,36,109,65
3,34,101,75
3,38,104,85
3,41,105,3
3,34,103,23
3,33,100,43
3,41,102,65
3,41,100,30
3,41,99,100
3,39,102,83
3,34,104,25
3,27,108,110
3,27,109,20
3,29,101,103
3,31,101,83
3,43,101,40
3,43,105,103
3,36,110,130
3,36,109,30
3,36,106,120
3,36,109,278
3,31,109,50
3,31,109,83
3,31,110,63
3,31,110,40
3,43,106,93
3,43,112,168
3,43,109,83
3,31,112,15
3,31,110,83
3,31,111,3
3,31,106,155
3,31,102,168
3,31,109,83
3,38,102,23
3,38,102,93
3,38,110,93
3,50,111,3
3,50,106,155
3,38,102,168
3,38,109,83
3,38,110,58
3,36,110,83
3,34,110,25
3,46,111,3
3,46,106,155
3,34,102,168
3,34,109,83
3,46,102,23
3,38,110,53
3,50,106,50
3,50,106,48
3,38,102,168
3,38,109,83
3,38,110,75
3,41,110,33
3,39,110,33
3,51,111,40
3,51,106,35
3,39,102,168
3,39,109,83
3,39,110,75
3,34,110,65
3,46,111,40
3,46,106,35
3,34,102,170
3,34,109,83
3,34,110,75
3,34,107,35
3,34,110,70
3,36,110,25
3,36,109,30
3,36,106,120
3,36,109,278
3,31,109,50
3,31,109,83
3,31,110,63
3,31,110,40
3,43,106,93
3,43,112,168
3,43,109,83
3,31,112,15
3,31,110,83
3,31,111,3
3,31,106,155
3,31,102,168
3,31,109,83
3,38,102,23
3,38,102,93
3,38,110,93
3,50,111,3
3,50,106,155
3,38,102,168
3,38,109,83
3,38,110,58
3,36,110,83
3,34,110,25
3,46,111,3
3,46,106,155
3,34,102,168
3,34,109,83
3,46,102,23
3,38,110,53
3,50,106,50
3,50,106,48
3,38,102,168
3,38,109,83
3,38,110,75
3,41,110,33
3,39,110,33
3,51,111,40
3,51,106,35
3,39,102,168
3,39,109,83
3,39,110,75
3,34,110,65
3,46,111,40
3,46,106,35
3,34,102,170
3,34,109,83
3,34,110,75
3,34,107,35
3,34,110,70
3,41,105,25
3,41,106,155
3,41,103,53
3,41,105,143
3,36,98,110
3,38,103,40
3,41,105,65
3,41,106,155
3,41,103,53
3,41,105,143
3,36,98,110
3,38,103,40
3,36,105,65
3,36,106,155
3,36,103,53
3,36,105,143
3,31,98,110
3,33,103,40
3,36,105,65
3,36,106,155
3,36,103,53
3,36,105,143
3,31,98,110
3,33,103,40
3,41,105,65
3,41,106,155
3,41,103,53
3,41,105,143
3,36,98,110
3,38,103,40
3,41,105,65
3,41,106,155
3,41,103,53
3,41,105,143
3,36,98,110
3,38,103,40
3,36,105,65
3,36,106,155
3,36,103,53
3,36,105,143
3,31,98,110
3,33,103,40
3,36,105,65
3,36,106,55
3,36,105,60
3,31,98,135
3,33,103,40
3,36,105,65
3,38,110,7275
3,34,110,45
3,26,110,58
3,27,110,58
3,34,110,58
3,34,107,68
3,34,110,70
3,36,111,25
3,36,110,30
3,36,107,120
3,36,110,278
3,31,110,50
3,31,110,83
3,31,111,63
3,31,111,40
3,43,107,93
3,43,113,168
3,43,110,83
3,31,113,15
3,31,111,83
3,31,112,3
3,31,107,155
3,31,103,168
3,31,110,83
3,38,103,23
3,38,103,93
3,38,111,93
3,50,112,3
3,50,107,155
3,38,103,168
3,38,110,83
3,38,111,58
3,36,111,83
3,34,111,25
3,46,112,3
3,46,107,155
3,34,103,168
3,34,110,83
3,46,103,23
3,38,111,53
3,50,107,50
3,50,107,48
3,38,103,168
3,38,110,83
3,38,111,75
3,41,111,33
3,39,111,33
3,51,112,40
3,51,107,35
3,39,103,168
3,39,110,83
3,39,111,75
3,34,111,65
3,46,112,40
3,46,107,35
3,34,103,170
3,34,110,83
3,36,111,75
3,34,108,35
3,34,111,70
3,36,111,25
3,36,110,30
3,36,107,120
3,36,110,278
3,31,110,50
3,31,110,83
3,31,111,63
3,31,111,40
3,43,107,93
3,43,113,168
3,43,110,83
3,31,113,15
3,31,111,83
3,31,112,3
3,31,107,155
3,31,103,168
3,31,110,83
3,38,103,23
3,38,103,93
3,38,111,93
3,50,112,3
3,50,107,155
3,38,103,168
3,38,110,83
3,38,111,58
3,36,111,83
3,34,111,25
3,46,112,3
3,46,107,155
3,34,103,168
3,34,110,83
3,46,103,23
3,38,111,53
3,50,107,50
3,50,107,48
3,38,103,168
3,38,110,83
3,38,111,75
3,41,111,33
3,39,111,33
3,51,112,40
3,51,107,35
3,39,103,168
3,39,110,83
3,39,111,75
3,34,111,65
3,46,112,40
3,46,107,35
3,34,103,170
3,34,110,83
3,36,111,75
3,34,108,35
3,34,111,70
3,36,112,25
3,36,111,30
3,36,108,120
3,36,111,278
3,31,111,50
3,31,111,83
3,31,112,63
3,31,112,40
3,43,108,93
3,43,114,168
3,43,111,83
3,31,114,15
3,31,112,83
3,31,113,3
3,31,108,155
3,31,104,168
3,31,111,83
3,38,104,23
3,38,104,93
3,38,112,93
3,50,113,3
3,50,108,155
3,38,104,168
3,38,111,83
3,38,112,58
3,36,112,83
3,34,112,25
3,46,113,3
3,46,108,155
3,34,104,168
3,34,111,83
3,46,104,23
3,38,112,53
3,50,108,50
3,50,108,48
3,38,104,168
3,38,111,83
3,38,112,75
3,41,112,33
3,39,112,33
3,51,113,40
3,51,108,35
3,39,104,168
3,39,111,83
3,39,112,75
3,34,112,65
3,46,113,40
3,46,108,35
3,34,104,170
3,34,111,83
3,36,112,75
3,34,109,35
3,34,112,70
3,34,112,25
4,58,79,2400
4,62,86,0
4,65,84,0
4,55,81,260
4,58,85,0
4,65,85,0
4,57,83,260
4,60,85,0
4,65,85,0
4,57,86,260
4,60,83,0
4,65,80,0
4,58,82,140
4,63,81,0
4,67,85,0
4,58,79,40
4,62,86,0
4,65,84,0
4,55,81,260
4,58,85,0
4,65,85,0
4,57,83,260
4,60,85,0
4,65,85,0
4,57,86,260
4,60,83,0
4,65,80,0
4,57,85,140
4,60,82,0
4,65,81,0
4,53,78,328
4,58,73,0
4,62,80,0
4,55,69,1470
4,58,71,0
4,62,72,0
4,55,69,305
4,58,71,0
4,62,72,0
4,57,77,20
4,60,79,0
4,65,79,0
4,55,79,1700
4,58,76,0
4,63,75,0
4,53,78,65
4,58,73,0
4,62,80,0
4,55,69,1470
4,58,71,0
4,62,72,0
4,55,69,305
4,58,71,0
4,62,72,0
4,57,77,20
4,60,79,0
4,65,79,0
4,55,79,1700
4,58,76,0
4,63,75,0
4,53,80,65
4,58,75,0
4,62,82,0
4,53,80,260
4,57,75,0
4,60,82,0
4,56,80,260
4,60,75,0
4,63,82,0
4,55,79,260
4,60,81,0
4,63,81,0
4,55,71,50
4,60,73,0
4,63,74,0
4,55,71,305
4,60,73,0
4,63,74,0
4,56,79,20
4,60,81,0
4,63,81,0
4,60,79,260
4,63,81,0
4,67,81,0
4,56,79,260
4,61,81,0
4,65,81,0
4,56,79,260
4,60,81,0
4,63,81,0
4,56,71,50
4,60,73,0
4,63,74,0
4,56,71,305
4,60,73,0
4,63,74,0
4,55,81,20
4,58,83,0
4,63,83,0
4,58,74,13
4,60,83,3
4,55,82,120
4,58,83,0
4,63,84,0
4,58,79,283
4,62,83,0
4,65,83,0
4,62,75,53
4,65,75,0
4,63,83,3
4,67,85,0
4,58,79,123
4,62,80,0
4,65,80,0
4,55,81,445
4,58,83,0
4,63,83,0
4,58,74,13
4,60,83,3
4,55,82,120
4,58,83,0
4,63,84,0
4,58,79,283
4,62,83,0
4,65,83,0
4,62,75,53
4,65,75,0
4,63,83,3
4,67,85,0
4,58,79,123
4,62,80,0
4,65,80,0
4,53,80,445
4,58,75,0
4,62,82,0
4,55,71,1470
4,58,73,0
4,62,74,0
4,55,71,305
4,58,73,0
4,62,74,0
4,57,79,20
4,60,81,0
4,65,81,0
4,55,81,1700
4,58,78,0
4,63,77,0
4,53,80,65
4,58,75,0
4,62,82,0
4,55,71,1470
4,58,73,0
4,62,74,0
4,55,71,305
4,58,73,0
4,62,74,0
4,57,79,20
4,60,81,0
4,65,81,0
4,55,81,1700
4,58,78,0
4,63,77,0
4,55,81,65
4,60,76,0
4,64,83,0
4,57,72,1470
4,60,74,0
4,64,75,0
4,57,72,305
4,60,74,0
4,64,75,0
4,59,80,20
4,62,82,0
4,67,82,0
4,57,82,1700
4,60,79,0
4,65,78,0
4,55,81,65
4,60,76,0
4,64,83,0
4,57,72,1470
4,60,74,0
4,64,75,0
4,57,72,305
4,60,74,0
4,64,75,0
4,59,80,20
4,62,82,0
4,67,82,0
4,59,82,1700
4,62,79,0
4,67,78,0
4,55,82,65
4,60,77,0
4,64,84,0
4,55,82,260
4,59,77,0
4,62,84,0
4,58,82,260
4,62,77,0
4,65,84,0
4,57,81,260
4,62,83,0
4,65,83,0
4,57,73,50
4,62,75,0
4,65,76,0
4,57,73,305
4,62,75,0
4,65,76,0
4,58,81,20
4,62,83,0
4,65,83,0
4,62,81,260
4,65,83,0
4,69,83,0
4,58,81,260
4,63,83,0
4,67,83,0
4,58,81,260
4,62,83,0
4,65,83,0
4,58,73,50
4,62,75,0
4,65,76,0
4,58,73,305
4,62,75,0
4,65,76,0
4,57,81,20
4,60,83,0
4,65,83,0
4,60,74,13
4,62,83,3
4,57,82,120
4,60,83,0
4,65,84,0
4,60,79,283
4,64,83,0
4,67,83,0
4,64,75,53
4,67,75,0
4,65,83,3
4,69,85,0
4,60,79,123
4,64,80,0
4,67,80,0
4,57,81,445
4,60,83,0
4,65,83,0
4,60,74,13
4,62,83,3
4,57,82,120
4,60,83,0
4,65,84,0
4,60,79,283
4,64,83,0
4,67,83,0
4,64,75,53
4,67,75,0
4,65,83,3
4,69,85,0
4,60,79,123
4,64,80,0
4,67,80,0
4,58,90,325
4,62,90,0
4,65,90,0
4,62,90,53
4,65,90,0
4,57,90,50
4,60,90,0
4,67,90,0
4,57,90,3
4,60,90,0
