track,note,velocity,time
0,69,97,161
0,74,97,0
0,78,100,0
0,69,97,10
0,74,101,0
0,78,79,0
0,69,87,12
0,74,88,0
0,78,81,0
0,69,89,12
0,74,101,0
0,78,79,0
0,69,97,8
0,74,107,0
0,79,90,0
0,46,100,0
0,38,85,1
0,50,99,0
0,26,100,0
0,35,97,0
0,42,102,0
0,49,98,0
0,64,80,0
0,69,100,5
0,74,107,0
0,78,86,0
0,26,105,16
0,35,93,0
0,42,79,0
0,64,99,0
0,57,76,3
0,62,90,0
0,66,84,0
0,62,79,0
0,66,92,0
0,40,97,0
0,42,100,0
0,62,107,0
0,57,76,6
0,62,86,0
0,66,89,0
0,62,74,0
0,66,86,0
0,57,74,11
0,62,85,0
0,66,73,0
0,62,79,0
0,66,84,0
0,35,87,0
0,42,74,0
0,48,85,0
0,57,76,5
0,62,88,0
0,67,94,0
0,26,87,0
0,62,75,0
0,67,88,0
0,40,88,0
0,45,97,0
0,64,90,0
0,38,87,0
0,42,85,0
0,57,85,6
0,62,94,0
0,66,86,0
0,33,91,0
0,62,88,0
0,66,100,0
0,40,93,0
0,47,91,0
0,64,101,0
0,26,97,2
0,35,93,0
0,42,81,0
0,43,87,0
0,69,89,2
0,74,86,0
0,78,84,0
0,64,97,0
0,69,94,2
0,76,68,0
0,79,82,0
0,40,111,0
0,42,96,0
0,63,89,0
0,69,91,8
0,76,82,0
0,79,86,0
0,63,79,0
0,69,91,2
0,74,94,0
0,78,84,0
0,42,87,0
0,64,90,0
0,26,88,9
0,69,97,0
0,74,92,0
0,78,81,0
0,46,79,0
0,64,66,0
0,45,94,4
0,57,80,0
0,61,89,0
0,64,85,0
0,33,94,0
0,35,94,0
0,42,93,0
0,64,97,0
0,69,97,2
0,73,89,0
0,76,86,0
0,57,65,2
0,33,100,0
0,35,95,0
0,42,93,0
0,64,99,0
0,57,92,3
0,61,92,0
0,64,92,0
0,61,79,0
0,64,83,0
0,40,110,0
0,42,98,0
0,62,92,0
0,57,68,8
0,61,75,0
0,64,83,0
0,61,46,0
0,64,78,0
0,62,79,0
0,57,66,10
0,61,69,0
0,64,78,0
0,33,82,0
0,61,60,0
0,64,72,0
0,35,90,0
0,42,96,0
0,48,88,0
0,57,85,4
0,62,99,0
0,66,86,0
0,40,94,0
0,62,86,0
0,66,77,0
0,40,88,0
0,45,83,0
0,64,80,0
0,42,100,0
0,57,92,10
0,61,89,0
0,64,85,0
0,40,78,0
0,61,73,0
0,64,78,0
0,40,91,0
0,47,95,0
0,64,90,0
0,33,95,4
0,35,91,0
0,42,94,0
0,43,95,0
0,69,84,9
0,73,89,0
0,76,85,0
0,35,91,0
0,64,97,0
0,69,82,1
0,74,67,0
0,78,75,0
0,40,91,0
0,42,98,0
0,69,84,0
0,74,82,0
0,78,81,0
0,40,87,0
0,64,78,0
0,33,84,1
0,69,91,0
0,73,81,0
0,76,99,0
0,35,97,0
0,42,93,0
0,63,84,0
0,35,83,1
0,46,93,0
0,63,79,0
0,43,69,2
0,55,86,0
0,59,97,0
0,62,92,0
0,31,94,0
0,67,78,0
0,73,92,0
0,76,85,0
0,35,96,0
0,42,98,0
0,64,86,0
0,31,103,1
0,67,75,0
0,71,73,0
0,74,71,0
0,35,92,0
0,42,94,0
0,64,94,0
0,55,57,8
0,67,75,0
0,71,97,0
0,74,92,0
0,40,101,0
0,42,100,0
0,62,88,0
0,64,80,6
0,31,81,6
0,69,64,0
0,73,77,0
0,76,63,0
0,35,87,0
0,42,89,0
0,38,94,0
0,71,73,0
0,74,75,0
0,78,77,0
0,40,91,0
0,64,92,0
0,55,28,2
0,42,98,0
0,38,85,10
0,71,82,0
0,74,79,0
0,78,77,0
0,40,91,0
0,64,97,0
0,31,91,11
0,35,97,0
0,42,89,0
0,64,85,10
0,69,72,1
0,73,89,0
0,76,73,0
0,40,104,0
0,42,102,0
0,63,86,0
0,63,73,8
0,31,103,6
0,67,76,0
0,71,75,0
0,74,80,0
0,42,91,0
0,64,86,0
0,33,95,2
0,46,93,0
0,64,88,0
0,42,84,10
0,54,89,0
0,58,86,0
0,61,86,0
0,30,101,0
0,66,82,0
0,70,104,0
0,73,96,0
0,35,93,0
0,42,100,0
0,67,40,9
0,35,91,8
0,42,96,0
0,64,92,0
0,42,69,7
0,54,54,0
0,58,62,0
0,61,62,0
0,30,94,0
0,66,86,0
0,70,100,0
0,73,86,0
0,64,86,0
0,42,68,8
0,54,75,0
0,58,73,0
0,61,75,0
0,30,96,0
0,66,76,0
0,70,96,0
0,73,77,0
0,40,103,0
0,42,102,0
0,62,82,0
0,43,74,2
0,55,90,0
0,59,92,0
0,62,86,0
0,31,101,0
0,67,89,0
0,71,79,0
0,74,82,0
0,64,82,0
0,35,91,0
0,42,87,0
0,45,94,5
0,57,88,0
0,61,89,0
0,64,85,0
0,33,94,0
0,69,80,0
0,73,92,0
0,76,70,0
0,40,91,0
0,64,90,0
0,42,102,4
0,45,87,0
0,40,97,10
0,43,94,0
0,46,96,0
0,64,94,0
0,35,89,2
0,42,93,0
0,64,90,0
0,69,94,10
0,74,90,0
0,78,89,0
0,35,93,0
0,64,83,0
0,33,98,8
0,69,89,0
0,74,85,0
0,78,84,0
0,40,86,0
0,42,100,0
0,46,104,0
0,63,86,0
0,69,91,8
0,74,83,0
0,78,84,0
0,40,85,0
0,63,89,0
0,38,91,7
0,69,84,0
0,74,82,0
0,78,89,0
0,35,96,0
0,42,100,0
0,64,92,0
0,69,100,6
0,74,88,0
0,79,72,0
0,42,94,0
0,57,85,0
0,38,83,2
0,50,94,0
0,26,87,0
0,35,96,0
0,42,98,0
0,49,89,0
0,64,104,0
0,69,94,2
0,74,86,0
0,78,89,0
0,57,71,14
0,26,94,0
0,35,98,0
0,42,98,0
0,64,97,0
0,57,92,8
0,62,101,0
0,66,96,0
0,62,85,0
0,66,92,0
0,40,99,0
0,42,100,0
0,62,117,0
0,57,75,8
0,62,83,0
0,66,89,0
0,62,85,0
0,66,96,0
0,57,71,2
0,62,75,0
0,66,75,0
0,62,79,0
0,66,92,0
0,35,87,0
0,42,83,0
0,48,83,0
0,57,75,4
0,62,88,0
0,67,99,0
0,26,86,0
0,62,76,0
0,67,92,0
0,40,97,0
0,45,88,0
0,64,85,0
0,38,76,0
0,42,88,0
0,57,92,9
0,62,99,0
0,66,89,0
0,33,79,0
0,62,80,0
0,66,96,0
0,40,98,0
0,47,91,0
0,64,101,0
0,26,87,2
0,35,94,0
0,42,91,0
0,43,94,0
0,69,91,2
0,74,88,0
0,78,89,0
0,64,85,0
0,69,91,2
0,76,74,0
0,79,73,0
0,40,101,0
0,42,96,0
0,63,86,0
0,69,84,3
0,76,73,0
0,79,79,0
0,63,75,0
0,57,62,2
0,69,80,0
0,74,86,0
0,78,86,0
0,42,96,0
0,64,80,0
0,26,86,9
0,69,94,0
0,74,92,0
0,78,89,0
0,46,89,0
0,45,97,3
0,33,90,0
0,35,98,0
0,42,96,0
0,69,89,2
0,73,89,0
0,76,80,0
0,57,66,16
0,33,93,0
0,35,94,0
0,42,100,0
0,64,97,0
0,64,82,10
0,57,86,5
0,61,81,0
0,64,94,0
0,61,79,0
0,64,86,0
0,40,99,0
0,42,104,0
0,62,99,0
0,57,60,10
0,61,69,0
0,64,66,0
0,61,43,0
0,64,78,0
0,64,90,0
0,57,79,2
0,61,75,0
0,64,82,0
0,33,83,0
0,61,54,0
0,64,72,0
0,35,87,0
0,42,94,0
0,48,79,0
0,57,78,6
0,62,92,0
0,66,81,0
0,40,93,0
0,62,79,0
0,66,69,0
0,40,88,0
0,45,87,0
0,64,90,0
0,42,98,0
0,57,97,12
0,61,96,0
0,64,83,0
0,40,88,0
0,61,81,0
0,64,83,0
0,40,94,0
0,47,96,0
0,64,92,0
0,33,89,4
0,35,91,0
0,42,98,0
0,43,91,0
0,69,76,7
0,73,79,0
0,76,86,0
0,35,91,0
0,64,94,0
0,71,69,1
0,74,79,0
0,78,79,0
0,40,89,0
0,42,96,0
0,63,92,0
0,71,78,8
0,74,79,0
0,78,77,0
0,40,90,0
0,63,77,0
0,33,88,3
0,69,87,0
0,73,84,0
0,76,80,0
0,35,95,0
0,42,102,0
0,63,89,0
0,63,92,4
0,43,94,5
0,55,97,0
0,59,94,0
0,62,92,0
0,31,101,0
0,67,80,0
0,73,92,0
0,76,86,0
0,35,105,0
0,46,111,0
0,57,93,0
0,64,94,0
0,71,71,3
0,74,66,0
0,35,95,0
0,64,90,0
0,64,90,4
0,31,101,9
0,67,78,0
0,74,82,0
0,78,77,0
0,40,107,0
0,62,104,0
0,62,48,2
0,64,75,0
0,45,104,3
0,57,86,0
0,61,100,0
0,64,88,0
0,33,107,0
0,69,75,0
0,73,92,0
0,76,86,0
0,35,107,0
0,49,100,0
0,63,100,0
0,69,76,2
0,73,75,0
0,35,92,0
0,42,91,0
0,48,91,0
0,63,92,0
0,35,94,4
0,42,104,0
0,45,93,0
0,47,87,0
0,63,81,0
0,69,82,2
0,69,90,0
0,73,75,0
0,40,117,0
0,43,97,0
0,46,100,0
0,64,92,0
0,62,92,7
0,47,101,0
0,55,94,0
0,59,104,0
0,62,99,0
0,67,73,0
0,67,88,0
0,71,94,0
0,35,93,0
0,64,94,0
0,35,94,7
0,52,100,0
0,62,99,0
0,31,109,4
0,35,100,0
0,55,108,0
0,63,86,0
0,69,75,4
0,73,75,0
0,62,72,0
0,35,94,4
0,43,90,0
0,64,97,0
0,31,95,2
0,67,75,0
0,67,82,0
0,71,88,0
0,40,98,0
0,45,104,0
0,62,101,0
0,33,104,1
0,57,83,0
0,61,100,0
0,64,92,0
0,33,103,0
0,64,74,0
0,69,73,0
0,69,80,0
0,35,110,0
0,46,114,0
0,57,100,0
0,45,68,18
0,57,57,0
0,64,65,0
0,69,65,0
0,57,67,96
0,69,86,0
0,59,85,24
0,71,82,0
0,57,79,32
0,69,86,0
0,61,81,3
0,73,60,0
0,61,92,22
0,73,89,0
0,62,75,1
0,74,75,0
0,61,86,27
0,73,79,0
0,64,66,2
0,76,66,0
0,64,86,25
0,76,83,0
0,66,81,24
0,78,77,0
0,64,55,34
0,76,66,0
0,69,63,24
0,81,57,0
0,61,49,15
0,61,86,11
0,61,109,10
0,61,86,5
0,63,89,1
0,64,85,2
0,62,104,0
0,61,96,2
0,45,66,11
0,57,63,0
0,69,73,0
0,73,66,0
0,45,66,0
0,61,54,0
0,64,62,0
0,69,65,0
0,35,81,0
0,64,47,1
0,69,66,3
0,73,57,0
0,44,59,0
0,61,39,0
0,64,59,3
0,61,69,3
0,69,82,5
0,73,69,0
0,61,109,1
0,61,84,0
0,64,70,2
0,63,89,2
0,64,88,0
0,69,90,3
0,73,92,0
0,44,62,0
0,64,73,4
0,62,92,1
0,35,71,4
0,59,101,0
0,40,70,1
0,52,50,0
0,68,54,0
0,71,69,0
0,52,70,0
0,59,66,0
0,68,47,0
0,35,88,0
0,64,55,6
0,68,50,8
0,71,63,0
0,44,64,0
0,59,71,6
0,64,51,2
0,59,94,18
0,59,113,6
0,68,34,1
0,76,67,0
0,59,97,3
0,64,59,1
0,62,107,5
0,64,66,11
0,68,71,0
0,71,80,0
0,44,68,0
0,61,100,20
0,64,60,12
0,59,110,2
0,47,75,7
0,59,83,0
0,66,73,0
0,71,86,0
0,47,79,0
0,59,60,0
0,62,85,0
0,69,78,0
0,35,78,0
0,62,66,3
0,59,104,15
0,66,84,1
0,71,86,0
0,44,66,0
0,59,86,7
0,62,69,1
0,63,96,20
0,64,94,2
0,40,66,5
0,41,61,0
0,52,66,0
0,64,68,0
0,68,62,0
0,71,59,0
0,52,92,0
0,64,88,0
0,64,97,12
0,64,69,6
0,62,101,1
0,64,82,1
0,68,89,0
0,71,97,0
0,68,68,0
0,44,69,0
0,62,99,2
0,64,70,1
0,61,104,2
0,35,61,1
0,45,72,1
0,64,70,0
0,69,85,0
0,71,67,0
0,73,69,0
0,45,59,0
0,62,76,0
0,69,45,0
0,35,100,0
0,64,61,8
0,57,58,16
0,64,63,0
0,69,80,0
0,73,77,0
0,44,67,0
0,61,51,0
0,64,70,4
0,61,96,17
0,61,109,13
0,64,73,3
0,69,82,0
0,71,85,0
0,61,62,0
0,64,64,12
0,61,100,0
0,63,77,21
0,64,88,3
0,64,68,9
0,69,85,0
0,73,89,0
0,44,72,0
0,62,107,5
0,64,70,7
0,61,104,1
0,45,83,4
0,64,73,0
0,69,97,0
0,73,96,0
0,35,81,0
0,64,66,8
0,61,109,16
0,64,80,3
0,69,85,0
0,73,84,0
0,44,70,0
0,61,100,2
0,64,60,5
0,66,86,6
0,35,67,3
0,42,71,12
0,54,81,0
0,66,89,0
0,70,92,0
0,73,89,0
0,42,89,0
0,58,75,0
0,66,60,0
0,70,84,0
0,35,86,0
0,64,92,0
0,66,77,5
0,62,107,1
0,66,75,4
0,70,89,0
0,73,89,0
0,44,79,0
0,61,100,2
0,66,66,2
0,66,96,2
0,47,69,2
0,59,69,0
0,66,54,0
0,71,79,0
0,74,75,0
0,47,110,0
0,59,88,0
0,62,90,0
0,71,92,0
0,35,65,0
0,66,73,6
0,35,56,0
0,40,50,0
0,47,68,11
0,59,72,0
0,71,83,0
0,74,78,0
0,35,69,0
0,40,64,0
0,44,85,0
0,47,72,9
0,59,78,0
0,66,77,0
0,74,56,0
0,35,74,0
0,40,75,0
0,47,85,8
0,59,97,0
0,66,71,0
0,71,90,0
0,74,86,0
0,35,86,0
0,40,83,0
0,47,90,5
0,59,104,0
0,66,86,0
0,35,86,0
0,40,95,0
0,40,107,2
0,42,56,0
0,74,94,5
0,78,109,0
0,47,97,2
0,59,110,0
0,66,84,0
0,71,92,0
0,74,88,0
0,35,90,0
0,45,96,0
0,46,81,0
0,43,102,2
0,78,92,4
0,47,94,1
0,59,104,0
0,66,86,0
0,71,85,0
0,74,76,0
0,74,79,0
0,35,95,0
0,41,117,0
0,42,70,0
0,74,80,8
0,79,94,0
0,42,68,1
0,38,85,6
0,50,99,0
0,26,100,0
0,50,79,0
0,69,66,0
0,74,68,0
0,78,58,0
0,35,97,0
0,42,102,0
0,49,98,0
0,64,80,0
0,74,80,4
0,78,100,0
0,26,105,16
0,35,93,0
0,42,79,0
0,64,99,0
0,57,76,3
0,62,90,0
0,66,84,0
0,62,79,0
0,66,92,0
0,40,97,0
0,42,100,0
0,62,107,0
0,57,76,1
0,62,86,0
0,66,89,0
0,62,74,0
0,66,86,0
0,57,74,9
0,62,85,0
0,66,73,0
0,62,79,0
0,66,84,0
0,35,87,0
0,42,74,0
0,48,85,0
0,57,76,5
0,62,88,0
0,67,94,0
0,26,87,0
0,62,75,0
0,67,88,0
0,40,88,0
0,45,97,0
0,64,90,0
0,38,87,0
0,42,85,0
0,57,85,6
0,62,94,0
0,66,86,0
0,33,91,0
0,62,88,0
0,66,100,0
0,40,93,0
0,47,91,0
0,64,101,0
0,26,97,2
0,35,93,0
0,42,81,0
0,43,87,0
0,64,97,2
0,79,97,0
0,74,99,1
0,40,111,2
0,42,96,0
0,63,89,0
0,63,79,7
0,74,71,5
0,78,86,0
0,42,87,2
0,64,90,0
0,74,86,10
0,78,92,0
0,26,88,1
0,46,79,0
0,64,66,0
0,45,94,4
0,57,80,0
0,61,89,0
0,64,85,0
0,33,94,0
0,45,71,0
0,73,75,0
0,76,71,0
0,35,94,0
0,42,93,0
0,64,97,0
0,73,79,2
0,76,74,1
0,57,65,2
0,33,100,0
0,35,95,0
0,42,93,0
0,64,99,0
0,57,92,3
0,61,92,0
0,64,92,0
0,61,79,0
0,64,83,0
0,40,110,0
0,42,98,0
0,62,92,0
0,57,68,7
0,61,75,0
0,64,83,0
0,61,46,0
0,64,78,0
0,62,79,0
0,57,66,10
0,61,69,0
0,64,78,0
0,33,82,0
0,61,60,0
0,64,72,0
0,35,90,0
0,42,96,0
0,48,88,0
0,57,85,4
0,62,99,0
0,66,86,0
0,40,94,0
0,62,86,0
0,66,77,0
