track,note,velocity,time
0,44,69,0
0,44,61,85
0,44,54,373
0,44,60,4
0,44,69,0
0,60,115,173
0,60,115,25
0,60,115,25
0,44,61,5
0,59,115,25
0,59,115,25
0,44,54,19
0,59,115,6
0,57,115,25
0,57,115,25
0,57,115,25
0,44,60,19
0,59,115,6
0,60,115,25
0,44,69,105
0,60,115,173
0,60,115,25
0,60,115,25
0,44,61,5
0,59,115,25
0,59,115,25
0,44,54,19
0,59,115,6
0,57,115,25
0,57,115,25
0,44,60,19
0,59,115,6
0,60,115,25
0,44,69,53
0,60,115,173
0,60,115,25
0,60,115,25
0,44,61,5
0,62,115,19
0,62,115,25
0,62,115,25
0,44,54,19
0,62,115,6
0,64,115,25
0,64,115,25
0,44,60,19
0,64,115,6
0,62,115,25
0,62,115,25
0,60,115,25
0,60,115,25
0,44,69,0
0,44,61,315
0,44,54,373
0,44,60,4
0,44,69,0
0,65,115,173
0,65,115,25
0,65,115,25
0,44,61,5
0,64,115,19
0,64,115,25
0,64,115,25
0,44,54,19
0,64,115,6
0,62,115,25
0,62,115,25
0,62,115,25
0,44,60,19
0,64,115,6
0,65,115,25
0,44,69,115
0,65,115,173
0,65,115,25
0,65,115,25
0,44,61,5
0,64,115,19
0,64,115,25
0,64,115,25
0,44,54,114
0,62,115,25
0,62,115,25
0,62,115,25
0,44,60,19
0,64,115,6
0,65,115,25
0,44,69,98
0,65,115,173
0,65,115,28
0,65,115,25
0,44,61,5
0,64,115,25
0,64,115,25
0,44,54,19
0,64,115,6
0,62,115,25
0,62,115,25
0,62,115,0
0,44,60,19
0,64,115,6
0,65,115,25
0,65,115,25
0,64,115,25
0,44,69,0
0,44,61,0
0,44,54,254
0,60,115,157
0,44,60,27
0,59,115,0
0,55,115,98
0,57,115,120
0,45,74,0
0,45,102,0
0,52,102,12
0,57,96,13
0,60,96,12
0,64,106,13
0,45,75,180
0,52,75,0
0,57,69,10
0,60,69,10
0,64,79,10
0,64,79,3
0,60,69,0
0,57,69,0
0,52,75,0
0,45,75,0
0,45,93,50
0,48,80,0
0,52,93,0
0,57,87,10
0,60,87,10
0,64,91,10
0,45,67,90
0,45,75,0
0,52,75,10
0,57,69,10
0,60,69,10
0,64,79,10
0,45,71,3
0,64,79,0
0,60,69,0
0,57,69,0
0,52,75,0
0,45,75,0
0,45,97,110
0,52,97,0
0,57,95,10
0,60,92,10
0,64,103,10
0,43,74,13
0,45,75,0
0,45,76,3
0,52,75,0
0,60,115,0
0,57,69,10
0,60,69,10
0,64,79,10
0,64,74,3
0,60,64,0
0,57,64,0
0,52,69,0
0,45,69,0
0,45,102,30
0,38,80,0
0,52,102,0
0,59,115,0
0,57,96,0
0,60,96,10
0,64,106,10
0,40,80,3
0,45,75,0
0,43,78,0
0,52,75,0
0,55,115,0
0,57,69,10
0,60,69,10
0,64,79,10
0,40,65,0
0,45,75,0
0,52,75,0
0,57,69,0
0,60,69,0
0,64,79,0
0,57,115,0
0,45,97,0
0,45,74,0
0,52,97,0
0,57,87,0
0,60,92,12
0,64,93,13
0,45,75,3
0,52,75,10
0,57,69,10
0,60,69,10
0,64,79,10
0,64,74,0
0,60,64,0
0,57,64,0
0,52,69,0
0,45,69,0
0,45,93,50
0,48,76,0
0,52,93,0
0,57,87,10
0,60,92,10
0,64,93,10
0,45,71,90
0,45,75,0
0,52,75,10
0,57,69,10
0,60,69,10
0,64,79,10
0,45,74,3
0,64,79,0
0,60,69,0
0,57,69,0
0,52,75,0
0,45,75,0
0,45,97,110
0,52,97,0
0,64,55,0
0,57,92,10
0,60,92,10
0,64,102,10
0,43,68,28
0,45,75,0
0,52,75,10
0,45,67,0
0,60,115,0
0,57,69,10
0,60,69,10
0,64,79,10
0,64,73,3
0,60,63,0
0,57,63,0
0,52,68,0
0,45,68,0
0,45,102,50
0,38,76,0
0,52,102,0
0,59,115,0
0,57,96,10
0,60,92,10
0,64,106,10
0,40,78,3
0,45,75,0
0,52,75,10
0,43,74,0
0,55,115,0
0,57,69,10
0,60,69,10
0,64,79,10
0,40,76,3
0,45,75,0
0,52,75,0
0,57,69,0
0,60,69,0
0,64,79,0
0,57,115,0
0,45,69,0
0,45,102,0
0,52,102,12
0,57,96,13
0,60,96,12
0,64,106,13
0,60,115,40
0,45,75,110
0,52,75,0
0,57,69,10
0,60,69,10
0,64,79,10
0,64,79,3
0,60,69,0
0,57,69,0
0,52,75,0
0,45,75,0
0,45,93,40
0,52,93,0
0,59,115,0
0,57,87,10
0,60,87,10
0,64,91,10
0,43,72,15
0,45,75,0
0,45,65,5
0,52,75,0
0,55,115,0
0,57,69,10
0,60,69,10
0,64,79,10
0,64,79,3
0,60,69,0
0,57,69,0
0,52,75,0
0,45,75,0
0,57,115,0
0,45,97,3
0,40,74,0
0,52,97,0
0,76,65,0
0,57,95,10
0,60,92,10
0,64,103,10
0,43,74,70
0,60,115,0
0,45,75,0
0,45,69,3
0,52,75,0
0,57,69,10
0,60,69,10
0,64,79,10
0,64,74,3
0,60,64,0
0,57,64,0
0,52,69,0
0,45,69,0
0,45,102,20
0,40,74,0
0,52,102,0
0,59,115,0
0,57,96,0
0,60,96,10
0,64,106,10
0,45,74,90
0,45,75,0
0,52,75,10
0,55,115,0
0,57,69,10
0,60,69,10
0,64,79,10
0,45,75,3
0,52,75,0
0,57,69,0
0,60,69,0
0,64,79,0
0,57,115,0
0,48,70,0
0,41,74,0
0,57,87,0
0,53,97,0
0,64,65,0
0,60,92,10
0,65,93,10
0,48,48,5
0,53,75,0
0,74,70,0
0,57,69,7
0,60,69,8
0,65,79,7
0,48,42,0
0,53,69,0
0,57,64,0
0,60,64,0
0,65,74,0
0,48,66,2
0,53,93,0
0,65,71,0
0,57,87,2
0,60,92,0
0,65,93,2
0,48,48,0
0,53,75,8
0,72,69,0
0,57,69,7
0,60,69,8
0,65,79,7
0,40,74,0
0,48,48,0
0,53,75,0
0,57,69,0
0,60,69,0
0,65,79,0
0,48,70,112
0,41,74,0
0,53,97,0
0,64,65,0
0,57,92,7
0,60,92,8
0,65,102,7
0,41,69,18
0,48,48,0
0,53,75,8
0,65,115,0
0,69,65,0
0,57,69,7
0,60,69,8
0,65,79,7
0,41,74,0
0,48,41,0
0,53,68,0
0,57,63,0
0,60,63,0
0,65,73,0
0,48,75,27
0,53,102,0
0,64,115,0
0,60,64,0
0,57,96,7
0,60,92,8
0,65,106,7
0,40,74,23
0,48,48,0
0,53,75,8
0,36,74,0
0,60,115,0
0,65,65,0
0,57,69,5
0,60,69,8
0,65,79,7
0,65,79,0
0,60,69,0
0,57,69,0
0,53,75,0
0,48,48,0
0,62,115,0
0,38,65,0
0,45,66,0
0,57,64,0
0,50,102,12
0,57,92,13
0,62,92,12
0,65,102,13
0,45,39,180
0,50,75,0
0,57,65,10
0,62,65,10
0,65,75,10
0,65,80,3
0,62,70,0
0,57,70,0
0,45,57,50
0,50,93,0
0,57,83,10
0,62,83,10
0,65,86,10
0,45,39,0
0,50,75,10
0,57,65,10
0,62,65,10
0,65,75,10
0,36,59,0
0,65,75,0
0,62,65,0
0,57,65,0
0,45,61,3
0,38,59,0
0,50,97,0
0,57,91,10
0,62,87,10
0,65,98,10
0,38,59,23
0,45,39,0
0,50,75,10
0,65,115,0
0,57,65,10
0,62,65,10
0,65,75,10
0,38,59,3
0,65,69,0
0,62,59,0
0,57,59,0
0,45,66,3
0,41,59,0
0,50,102,0
0,64,115,0
0,57,92,10
0,62,92,10
0,65,102,10
0,38,59,90
0,45,39,0
0,50,75,10
0,36,59,0
0,60,115,0
0,57,65,10
0,62,65,10
0,65,75,10
0,57,69,3
0,62,69,0
0,65,79,0
0,62,115,0
0,45,61,3
0,38,58,0
0,50,97,0
0,57,83,0
0,62,87,12
0,65,88,13
0,45,39,3
0,50,75,10
0,57,65,10
0,62,65,10
0,65,75,10
0,65,69,3
0,62,59,0
0,57,59,0
0,45,57,50
0,50,93,0
0,53,65,0
0,65,73,0
0,57,83,10
0,62,87,10
0,65,88,10
0,45,39,0
0,50,75,0
0,64,72,0
0,57,65,10
0,62,65,10
0,65,75,10
0,33,58,3
0,65,80,0
0,62,70,0
0,57,70,0
0,45,61,23
0,38,57,0
0,50,97,0
0,57,71,0
0,57,87,10
0,62,87,10
0,65,97,10
0,38,57,28
0,45,39,0
0,50,75,0
0,65,115,0
0,60,72,0
0,57,65,10
0,62,65,10
0,65,75,10
0,38,57,3
0,65,68,0
0,62,59,0
0,57,59,0
0,45,66,43
0,50,102,0
0,64,115,0
0,55,65,0
0,57,92,10
0,62,87,10
0,65,102,10
0,36,57,30
0,45,39,0
0,33,57,0
0,50,75,0
0,60,115,0
0,57,71,0
0,57,65,10
0,62,65,10
0,65,75,10
0,57,65,3
0,62,65,0
0,65,75,0
0,62,115,0
0,38,57,0
0,45,66,0
0,53,64,0
0,50,102,12
0,57,92,13
0,62,92,12
0,65,102,13
0,65,115,60
0,45,39,15
0,50,75,0
0,57,65,10
0,62,65,10
0,65,75,10
0,65,75,3
0,62,65,0
0,57,65,0
0,50,75,0
0,45,39,0
0,45,57,15
0,50,93,0
0,64,115,0
0,57,83,10
0,62,83,10
0,65,86,10
0,45,39,0
0,50,75,5
0,60,115,0
0,57,65,10
0,62,65,10
0,65,75,10
0,38,55,3
0,65,75,0
0,62,65,0
0,57,65,0
0,50,75,0
0,45,39,0
0,62,115,0
0,40,54,0
0,40,66,0
0,47,66,0
0,52,97,0
0,52,64,0
0,56,62,0
0,56,91,8
0,59,87,10
0,64,89,10
0,64,115,60
0,40,39,3
0,47,39,0
0,52,75,10
0,56,65,10
0,59,65,10
0,64,66,10
0,40,39,3
0,47,39,0
0,64,60,0
0,59,59,0
0,56,59,0
0,52,69,0
0,40,57,48
0,47,57,0
0,52,102,0
0,62,115,0
0,56,92,10
0,59,92,10
0,64,93,10
0,40,39,0
0,47,39,0
0,52,75,10
0,59,115,0
0,56,65,10
0,59,65,10
0,64,66,10
0,40,39,3
0,47,39,0
0,52,75,0
0,56,65,0
0,59,65,0
0,64,66,0
0,60,115,0
0,45,61,43
0,45,56,0
0,52,97,0
0,57,83,0
0,60,87,12
0,64,88,13
0,45,39,3
0,52,75,10
0,57,65,10
0,60,65,10
0,64,75,10
0,52,69,3
0,64,69,0
0,60,59,0
0,57,59,0
0,45,33,0
0,45,57,110
0,52,93,0
0,57,83,10
0,60,87,10
0,64,88,10
0,45,39,0
0,52,75,10
0,57,65,10
0,60,65,10
0,64,75,10
0,52,75,3
0,64,75,0
0,60,65,0
0,57,65,0
0,45,39,0
0,45,61,110
0,52,97,0
0,57,87,10
0,45,39,0
0,60,98,10
0,52,75,0
0,48,57,0
0,57,65,10
0,52,68,0
0,57,59,0
0,45,32,0
0,45,66,0
0,47,56,0
0,52,102,0
0,57,92,0
0,59,87,0
0,45,39,0
0,52,75,0
0,43,56,0
0,55,92,0
0,45,61,0
0,44,69,0
0,60,115,173
0,60,115,25
0,60,115,25
0,44,61,5
0,59,115,25
0,59,115,25
0,44,54,19
0,59,115,6
0,57,115,45
0,57,115,25
0,44,60,19
0,59,115,6
0,60,115,25
0,44,69,105
0,60,115,173
0,60,115,25
0,60,115,25
0,44,61,5
0,59,115,25
0,59,115,25
0,44,54,19
0,59,115,6
0,57,115,25
0,57,115,25
0,44,60,19
0,59,115,6
0,60,115,25
0,44,69,53
0,60,115,173
0,60,115,25
0,60,115,25
0,44,61,5
0,62,115,19
0,62,115,25
0,62,115,25
0,44,54,19
0,62,115,6
0,64,115,25
0,64,115,25
0,44,60,19
0,64,115,6
0,62,115,25
0,62,115,25
0,60,115,25
0,60,115,0
0,44,69,0
0,44,61,0
0,44,54,254
0,65,115,157
0,44,60,29
0,64,115,6
0,60,115,60
0,62,115,13
0,38,65,120
0,45,66,0
0,50,55,0
0,65,55,0
0,57,55,0
0,50,102,12
0,57,92,13
0,62,92,12
0,65,102,13
0,45,39,180
0,50,75,0
0,77,115,0
0,57,65,10
0,62,65,10
0,65,75,10
0,65,80,3
0,62,70,0
0,57,70,0
0,77,115,0
0,45,57,15
0,50,93,0
0,77,115,0
0,57,83,10
0,62,83,10
0,65,86,10
0,45,39,0
0,50,75,10
0,76,115,0
0,57,65,10
0,62,65,10
0,65,75,10
0,33,59,0
0,65,75,0
0,62,65,0
0,57,65,0
0,76,115,0
0,45,61,3
0,38,59,0
0,50,97,0
0,76,115,0
0,57,91,10
0,62,87,10
0,65,98,10
0,38,59,23
0,45,39,0
0,50,75,10
0,65,115,0
0,74,115,0
0,57,65,10
0,62,65,10
0,65,75,10
0,38,59,3
0,65,69,0
0,62,59,0
0,57,59,0
0,74,115,0
0,45,66,3
0,50,102,0
0,64,115,0
0,76,115,0
0,57,92,10
0,62,92,10
0,65,102,10
0,41,59,18
0,45,39,0
0,50,75,10
0,36,59,0
0,60,115,0
0,77,115,0
0,57,65,10
0,62,65,10
0,65,75,10
0,57,69,3
0,62,69,0
0,65,79,0
0,62,115,0
0,45,61,3
0,38,58,0
0,50,97,0
0,57,83,0
0,62,87,12
0,65,88,13
0,45,39,3
0,50,75,10
0,77,115,0
0,57,65,10
0,62,65,10
0,65,75,10
0,65,69,3
0,62,59,0
0,57,59,0
0,77,115,0
0,45,57,15
0,50,93,0
0,77,115,0
0,57,83,10
0,62,87,10
0,65,88,10
0,76,115,25
0,45,39,0
0,50,75,10
0,76,115,0
0,57,65,10
0,62,65,10
0,65,75,10
0,33,58,3
0,65,80,0
0,62,70,0
0,57,70,0
0,76,115,0
0,45,61,15
0,38,57,0
0,50,97,0
0,76,115,0
0,57,87,10
0,62,87,10
0,65,97,10
0,36,57,25
0,74,115,0
0,45,39,0
0,50,75,10
0,65,115,0
0,74,115,0
0,57,65,10
0,62,65,10
0,65,75,10
0,38,57,3
0,65,68,0
0,62,59,0
0,57,59,0
0,74,115,0
0,45,66,15
0,50,102,0
0,64,115,0
0,76,115,0
0,57,92,10
0,62,87,10
0,65,102,10
0,36,57,30
0,45,39,0
0,50,75,10
0,38,57,0
0,60,115,0
0,77,115,0
0,57,65,10
0,62,65,10
0,65,75,10
0,57,65,3
0,62,65,0
0,65,75,0
0,62,115,0
0,38,57,0
0,45,66,0
0,50,102,12
0,57,92,13
0,62,92,12
0,65,102,13
0,64,115,60
0,45,39,55
0,50,75,0
0,77,115,0
0,57,65,10
0,62,65,10
0,65,75,10
0,65,75,3
0,62,65,0
0,57,65,0
0,50,75,0
0,45,39,0
0,77,115,0
0,45,57,15
0,50,93,0
0,62,115,0
0,77,115,0
0,57,83,10
0,62,83,10
0,65,86,10
0,45,39,0
0,50,75,5
0,59,115,0
0,76,115,0
0,57,65,10
0,62,65,10
0,65,75,10
0,38,55,3
0,65,75,0
0,62,65,0
0,57,65,0
0,50,75,0
0,45,39,0
0,60,115,0
0,76,115,0
0,33,54,0
0,45,66,0
0,52,97,0
0,76,115,0
0,60,55,0
0,64,55,0
0,57,55,0
0,57,91,8
0,60,87,10
0,64,89,10
0,62,115,60
0,45,39,3
0,52,75,10
0,76,115,0
0,57,65,10
0,60,65,10
0,64,66,10
0,45,39,3
0,64,60,0
0,60,59,0
0,57,59,0
0,52,69,0
0,76,115,0
0,45,57,15
0,52,102,0
0,60,115,0
0,76,115,0
0,57,92,10
0,60,92,10
0,64,93,10
0,45,39,0
0,52,75,0
0,57,115,0
0,76,115,0
0,57,65,10
0,60,65,10
0,64,66,10
0,33,55,3
0,45,39,0
0,52,75,0
0,57,65,0
0,60,65,0
0,64,66,0
0,59,115,0
0,76,115,0
0,47,61,0
0,40,56,0
0,52,97,0
0,57,83,0
0,76,115,0
0,64,55,0
0,59,55,0
0,57,55,0
0,59,87,10
0,64,88,13
0,76,115,25
0,47,39,3
0,52,75,10
0,76,115,0
0,57,65,10
0,59,65,10
0,64,75,10
0,52,69,0
0,64,69,0
0,59,59,0
0,57,59,0
0,47,33,0
0,77,115,0
0,47,57,10
0,52,93,0
0,76,115,0
