track,note,velocity,time
3,43,125,2626
3,43,109,78
3,43,108,32
3,43,112,96
3,47,124,158
3,47,109,114
3,47,97,26
3,47,121,92
3,48,121,80
3,43,108,364
3,45,121,96
3,43,113,102
3,43,89,1092
3,40,104,12
3,40,93,102
3,38,77,20
3,36,112,40
3,36,81,22
3,35,105,4
3,33,64,110
3,50,64,54
3,45,93,54
3,48,89,24
3,47,76,384
3,45,69,382
3,45,60,32
3,38,53,40
3,38,76,62
3,35,89,192
3,40,88,2
3,38,76,768
3,38,62,2
3,38,82,2
3,38,97,2
3,38,96,2
3,38,108,2
3,40,113,6
3,40,109,78
3,38,104,10
3,38,88,76
3,36,120,12
3,36,109,78
3,35,109,46
3,35,80,64
3,33,120,34
3,33,125,36
3,35,96,14
3,36,116,44
3,36,112,76
3,36,112,42
3,42,100,26
3,43,116,8
3,43,104,178
3,42,92,12
3,43,85,32
3,44,101,192
3,45,105,172
3,45,112,50
3,45,108,72
3,36,112,348
3,36,117,78
3,42,112,40
3,43,88,96
3,41,69,0
3,40,113,24
3,38,80,50
3,35,76,32
3,31,100,6
3,36,113,24
3,36,112,60
3,40,109,16
3,41,88,30
3,42,104,98
3,43,96,14
3,41,80,4
3,40,76,24
3,38,80,20
3,35,92,32
3,31,108,12
3,36,109,28
3,48,112,40
3,46,84,50
3,45,88,20
3,41,81,20
3,43,117,12
3,41,92,6
3,40,92,0
3,38,85,14
3,35,77,56
3,31,81,20
3,36,112,26
3,36,112,42
3,40,104,68
3,41,64,16
3,42,100,28
3,43,116,10
3,43,84,42
3,43,112,62
3,43,84,42
3,43,100,16
3,40,113,96
3,40,105,32
3,45,116,390
3,45,97,38
3,40,92,122
3,43,96,14
3,44,77,6
3,45,109,12
3,45,105,50
3,40,101,66
3,43,101,96
3,44,101,12
3,45,112,20
3,45,105,50
3,45,80,48
3,43,93,96
3,40,81,26
3,40,88,32
3,45,108,96
3,43,105,36
3,40,109,66
3,43,88,76
3,40,93,18
3,45,116,18
3,45,104,30
3,45,121,120
3,40,93,96
3,43,97,14
3,44,108,34
3,45,112,28
3,45,61,36
3,43,89,96
3,40,101,42
3,43,109,6
3,44,108,24
3,45,116,94
3,45,113,42
3,45,121,92
3,40,89,102
3,43,104,20
3,44,112,20
3,45,121,34
3,45,76,38
3,43,93,96
3,40,97,24
3,43,101,96
3,45,93,32
3,43,117,12
3,43,112,28
3,43,117,102
3,38,80,88
3,41,61,2
3,42,109,32
3,43,109,38
3,43,116,8
3,41,105,60
3,38,89,2
3,41,84,0
3,42,104,20
3,43,112,66
3,43,112,28
3,43,121,84
3,38,80,58
3,41,92,12
3,42,117,18
3,43,113,10
3,43,92,38
3,41,93,14
3,38,76,28
3,41,96,96
3,43,92,2
3,44,104,96
3,45,112,4
3,45,120,70
3,40,93,46
3,43,108,8
3,44,105,14
3,45,109,24
3,45,104,52
3,43,93,6
3,40,105,6
3,43,96,0
3,44,112,12
3,45,121,78
3,45,124,36
3,45,121,88
3,40,96,84
3,43,96,8
3,44,113,26
3,45,112,16
3,43,100,96
3,40,109,6
3,43,97,42
3,40,96,22
3,45,104,20
3,44,105,96
3,43,120,20
3,43,115,50
3,38,108,38
3,41,104,8
3,42,112,26
3,43,120,20
3,43,31,62
3,41,96,6
3,38,104,16
3,41,109,96
3,42,121,18
3,43,120,56
3,43,36,58
3,41,105,0
3,43,109,46
3,41,105,2
3,38,109,12
3,43,121,12
3,43,89,74
3,41,88,96
3,38,105,6
3,31,100,6
3,38,101,46
3,36,109,96
3,35,113,18
3,35,104,40
3,47,97,120
3,45,93,28
3,42,105,8
3,47,93,8
3,45,96,4
3,42,104,4
3,47,101,52
3,47,109,0
3,47,105,0
3,48,124,0
3,48,124,62
3,46,105,36
3,43,89,24
3,48,113,10
3,46,97,16
3,43,112,96
3,43,120,372
3,43,96,44
3,43,101,56
3,41,93,96
3,38,105,14
3,43,117,96
3,41,80,0
3,38,93,10
3,41,109,36
3,43,109,22
3,48,124,2
3,48,125,76
3,48,89,60
3,46,112,4
3,43,113,24
3,48,121,8
3,48,28,40
3,46,100,6
3,43,100,14
3,48,105,20
3,46,117,96
3,43,124,54
3,43,121,60
3,43,108,78
3,41,97,12
3,38,104,22
3,43,117,8
3,41,88,96
3,38,92,12
3,43,116,10
3,38,76,22
3,43,105,8
3,38,100,6
3,36,120,22
3,38,113,126
3,38,77,2
3,38,68,2
3,38,84,2
3,38,76,2
3,38,97,2
3,38,117,2
3,38,108,2
3,38,72,2
3,38,93,2
3,38,88,2
3,38,104,2
3,38,92,2
3,38,100,2
3,38,96,2
3,38,80,2
3,38,104,2
3,38,108,2
3,38,89,2
3,38,101,2
3,50,113,96
3,38,100,2
3,50,112,2
3,38,92,2
3,43,125,6
3,43,120,44
3,40,108,20
3,40,93,24
3,38,113,8
3,38,100,44
3,36,120,192
3,35,120,58
3,35,117,60
3,33,124,192
3,33,89,108
3,33,104,8
3,33,116,64
3,38,112,84
3,38,104,44
3,38,108,64
3,45,124,82
3,48,116,48
3,47,116,384
3,45,125,6
3,38,104,30
3,38,120,42
3,35,120,192
3,35,77,84
3,35,113,58
3,35,120,114
3,40,124,74
3,38,105,34
3,38,105,50
3,40,121,20
3,40,112,70
3,38,96,34
3,38,100,66
3,36,108,40
3,36,84,36
3,35,108,32
3,35,112,62
3,33,124,32
3,33,72,96
3,33,112,44
3,33,113,94
3,35,113,4
3,36,124,2
3,36,109,100
3,36,118,20
3,36,120,80
3,42,113,6
3,43,125,192
3,43,113,132
3,43,117,104
3,43,113,56
3,45,117,192
3,45,108,46
3,45,121,64
3,33,112,384
3,36,113,66
3,36,117,78
3,42,112,40
3,43,88,96
3,41,69,0
3,40,113,24
3,38,80,50
3,35,77,32
3,31,100,6
3,36,112,24
3,36,113,60
3,40,109,16
3,41,89,30
3,42,104,98
3,43,96,14
3,41,81,4
3,40,77,24
3,38,81,20
3,35,93,32
3,31,108,12
3,36,108,28
3,48,113,40
3,46,85,50
3,45,89,20
3,41,80,20
3,43,116,12
3,41,93,6
3,40,92,0
3,38,85,14
3,35,77,56
3,31,81,20
3,36,113,26
3,36,113,42
3,40,104,68
3,41,65,16
3,42,100,28
3,43,117,10
3,43,85,0
3,43,117,0
3,43,84,0
3,40,121,192
3,40,117,40
3,40,112,34
3,40,108,16
3,40,112,26
3,40,120,14
3,40,121,20
3,40,108,26
3,52,124,4
3,52,89,2
3,52,125,2
3,52,124,2
3,52,125,2
3,52,124,2
3,52,120,2
3,52,120,2
3,52,120,2
3,45,124,96
3,44,104,86
3,44,117,42
3,44,120,52
3,44,117,52
3,42,113,96
3,42,116,46
3,42,117,44
3,42,117,50
3,40,120,12
3,40,112,48
3,40,121,52
3,40,124,54
3,38,117,0
3,38,116,44
3,38,124,50
3,33,125,36
3,45,120,44
3,42,108,20
3,42,93,24
3,40,113,8
3,40,100,44
3,38,120,192
3,37,121,58
3,37,116,60
3,35,125,192
3,35,88,108
3,35,104,8
3,35,116,64
3,40,112,84
3,40,104,44
3,40,108,64
3,47,125,82
3,50,117,48
3,49,116,384
3,47,124,6
3,40,105,30
3,38,121,42
3,37,121,192
3,37,77,84
3,37,113,58
3,37,121,114
3,42,124,74
3,40,105,34
3,40,104,50
3,42,109,20
3,42,93,24
3,40,113,8
3,40,100,44
3,38,121,192
3,37,121,58
3,37,117,60
3,35,125,192
3,35,88,108
3,35,104,8
3,35,117,64
3,40,113,84
3,40,105,44
3,40,108,64
3,47,124,82
3,50,117,48
3,49,117,384
3,47,125,6
3,40,105,30
3,40,120,42
3,33,120,192
4,55,57,6322
4,55,113,26
4,55,112,170
4,57,120,96
4,55,120,106
4,59,125,0
4,62,125,0
4,52,53,12670
4,55,77,54
4,59,92,12
4,64,97,18
4,64,77,186
4,59,89,4
4,55,76,2
4,55,1,38
4,50,61,54
4,55,57,18
4,59,44,0
4,55,61,18
4,59,31,4
4,64,65,10
4,48,60,146
4,52,60,0
4,55,28,0
4,52,65,94
4,55,65,0
4,60,80,0
4,52,41,102
4,47,48,52
4,50,73,0
4,50,72,112
4,55,85,0
4,59,84,0
4,48,56,150
4,52,56,0
4,52,80,164
4,57,89,0
4,60,68,0
4,52,8,18
4,45,48,40
4,52,73,0
4,52,81,154
4,57,88,0
4,60,72,0
4,52,56,22
4,48,61,92
4,52,85,0
4,55,44,120
4,52,88,136
4,55,89,0
4,60,92,0
4,48,40,66
4,52,56,0
4,55,28,32
4,52,84,104
4,55,80,0
4,60,88,0
4,55,28,30
4,50,80,70
4,55,64,0
4,59,65,114
4,62,53,10
4,59,41,192
4,67,28,192
4,55,28,2
4,59,60,90
4,55,36,6
4,52,96,14
4,55,77,76
4,57,60,2
4,61,64,26
4,57,57,192
4,55,24,32
4,52,101,118
4,55,88,0
4,57,108,0
4,61,84,0
4,64,93,0
4,48,120,260
4,48,105,98
4,55,124,192
4,58,124,0
4,64,120,0
4,43,104,44
4,55,108,56
4,59,120,0
4,65,120,0
4,43,92,152
4,55,121,20
4,59,124,0
4,65,120,0
4,48,120,4
4,48,121,118
4,55,113,192
4,58,112,0
4,64,108,0
4,43,109,62
4,55,113,98
4,59,109,0
4,65,112,0
4,43,104,146
4,55,120,96
4,59,124,0
4,65,120,0
4,55,104,14
4,59,108,0
4,48,108,62
4,48,124,106
4,55,120,22
4,58,117,0
4,64,109,0
4,43,112,64
4,55,117,100
4,59,120,0
4,65,108,0
4,43,93,144
4,55,121,16
4,59,125,0
4,65,121,0
4,48,121,74
4,48,121,118
4,55,120,192
4,58,125,0
4,64,120,0
4,59,89,10
4,43,109,58
4,55,112,114
4,59,116,0
4,65,113,0
4,43,97,134
4,55,120,18
4,59,125,0
4,65,116,0
4,40,116,110
4,40,77,0
4,40,31,0
4,40,125,0
4,57,121,0
4,57,84,58
4,52,108,136
4,55,93,6
4,56,97,10
4,57,93,22
4,57,93,64
4,52,92,132
4,55,92,6
4,56,89,16
4,57,105,30
4,57,113,76
4,52,92,122
4,55,92,14
4,56,97,22
4,57,108,34
4,55,109,96
4,52,109,114
4,52,93,80
4,55,89,18
4,52,97,2
4,57,70,52
4,60,79,0
4,64,58,0
4,57,39,16
4,60,51,2
4,64,63,0
4,60,94,44
4,64,95,0
4,69,103,0
4,52,94,86
4,57,86,0
4,60,78,80
4,64,78,0
4,52,71,8
4,57,66,0
4,60,58,2
4,64,71,0
4,57,75,6
4,64,34,96
4,60,103,42
4,64,98,0
4,69,98,0
4,52,86,84
4,57,86,0
4,60,74,78
4,64,74,0
4,57,79,16
4,60,50,94
4,64,67,0
4,57,63,6
4,60,22,6
4,64,66,0
4,60,103,42
4,64,99,0
4,69,102,0
4,52,78,80
4,57,83,0
4,60,70,30
4,64,79,0
4,57,74,4
4,60,54,96
4,64,63,0
4,57,54,14
4,60,38,0
4,64,22,0
4,60,99,2
4,64,103,0
4,69,98,0
4,52,86,96
4,57,79,0
4,60,66,28
4,64,75,0
4,52,50,2
4,57,62,0
4,59,78,12
4,62,86,0
4,50,54,92
4,55,62,0
4,59,59,8
4,62,71,0
4,59,106,20
4,62,102,0
4,67,103,0
4,50,71,96
4,55,83,0
4,59,79,2
4,62,83,0
4,55,79,6
4,59,70,96
4,62,75,0
4,55,74,22
4,59,59,0
4,62,67,0
4,59,111,40
4,62,102,0
4,67,107,0
4,50,79,74
4,55,83,0
4,59,67,2
4,62,78,0
4,55,74,0
4,59,79,96
4,62,87,0
4,55,75,10
4,59,38,2
4,62,58,0
4,59,107,36
4,62,99,0
4,67,99,0
4,50,79,52
4,55,66,0
4,59,82,36
4,62,86,0
4,55,87,10
4,59,103,90
4,62,103,0
4,67,99,0
4,55,82,48
4,59,79,96
4,62,87,0
4,59,79,96
4,52,50,26
4,57,59,0
4,60,95,0
4,64,94,0
4,52,75,2
4,57,71,0
4,60,54,56
4,64,78,0
4,60,103,12
4,64,91,0
4,69,106,0
4,57,87,2
4,60,78,16
4,64,83,0
4,52,70,0
4,57,75,0
4,60,70,96
4,64,78,0
4,57,74,20
4,60,30,8
4,64,42,0
4,60,103,38
4,64,94,0
4,69,90,0
4,52,87,10
4,57,87,0
4,60,66,12
4,64,74,0
4,57,78,12
4,60,43,96
4,64,55,0
4,57,62,28
4,60,58,8
4,64,71,0
4,60,94,48
4,64,102,0
4,69,102,0
4,52,82,4
4,57,82,0
4,60,70,32
4,64,78,0
4,57,74,8
4,60,59,96
4,64,75,0
4,57,79,32
4,60,50,8
4,64,58,0
4,60,90,44
4,64,99,0
4,69,102,0
4,52,78,60
4,57,75,0
4,60,71,8
4,64,78,0
4,57,70,10
4,59,82,18
4,62,87,0
4,50,30,96
4,55,66,0
4,59,43,36
4,62,58,0
4,59,102,18
4,62,110,0
4,67,86,0
4,50,86,12
4,55,86,0
4,59,66,74
4,62,78,0
4,55,71,4
4,59,62,96
4,62,78,0
4,55,66,22
4,59,39,8
4,62,67,0
4,59,102,30
4,62,98,0
4,67,99,0
4,50,83,54
4,55,83,0
4,59,70,4
4,62,82,0
4,55,74,12
4,59,34,96
4,62,54,0
4,59,58,44
4,62,66,0
4,59,102,128
4,62,102,0
4,67,98,0
4,50,79,94
4,55,79,0
4,59,78,96
4,62,83,0
4,55,62,84
4,59,78,32
4,62,79,0
4,59,103,36
4,62,99,0
4,67,103,0
4,50,71,78
4,55,67,0
4,59,82,96
4,62,87,0
4,59,90,68
4,62,95,0
4,54,59,14
4,59,18,12
4,62,62,0
4,59,110,40
4,62,115,0
4,66,115,0
4,54,70,68
4,59,79,36
4,62,78,0
4,54,66,26
4,59,99,34
4,62,103,0
4,54,75,8
4,62,62,36
4,59,106,44
4,62,111,0
4,66,115,0
4,54,79,118
4,59,79,8
4,62,82,0
4,54,66,38
4,60,87,24
4,64,91,0
4,55,79,94
4,60,50,32
4,64,58,0
4,60,91,22
4,64,110,0
4,67,107,0
4,55,79,54
4,60,67,2
4,64,79,0
4,55,67,8
4,60,78,14
4,64,87,0
4,55,74,8
4,64,67,10
4,60,103,36
4,64,95,0
4,67,110,0
4,55,75,22
4,60,79,4
4,64,82,0
4,55,62,6
4,59,86,32
4,62,102,0
4,55,71,90
4,59,42,26
4,62,66,0
4,59,103,40
4,62,99,0
4,67,102,0
4,55,79,52
4,59,58,8
4,62,78,0
4,55,74,0
4,59,90,22
4,62,98,0
4,55,66,86
4,59,55,30
4,62,70,0
4,59,103,44
4,62,99,0
4,67,98,0
4,55,75,42
4,59,71,10
4,62,82,0
4,55,70,14
4,60,95,30
4,64,102,0
4,55,71,84
4,60,50,28
4,64,66,0
4,60,91,14
4,64,110,0
4,67,110,0
4,55,67,74
4,60,59,6
4,64,70,0
4,55,70,8
4,60,87,8
4,64,94,0
4,55,71,82
4,64,46,16
4,60,102,56
4,64,106,0
4,67,102,0
4,55,62,60
4,60,62,18
4,64,71,0
4,55,67,2
4,59,94,4
4,62,102,0
4,55,75,96
4,62,55,18
4,59,111,40
4,62,111,0
4,67,103,0
4,55,75,52
4,59,58,8
4,62,67,0
4,55,66,28
4,59,87,2
4,62,99,0
4,55,79,96
4,59,38,12
4,62,51,0
4,59,107,48
4,62,91,0
4,67,111,0
4,55,70,50
4,59,74,16
4,62,87,0
4,55,75,4
4,60,103,96
4,64,106,0
4,67,114,0
4,50,87,110
4,54,95,0
4,57,103,0
4,62,87,0
4,50,54,92
4,54,42,0
4,57,46,0
4,50,63,82
4,54,47,0
4,57,75,0
4,50,75,130
4,54,66,0
4,57,79,0
4,50,83,130
4,54,79,0
4,57,74,0
4,62,71,0
4,50,79,134
4,54,58,0
4,57,47,0
4,62,47,0
4,50,82,138
4,54,74,0
4,57,79,0
4,62,75,0
4,50,82,144
4,54,71,0
4,57,66,0
4,62,47,0
4,50,78,142
4,54,75,0
4,57,74,0
4,62,74,0
4,50,74,42
4,54,46,0
4,57,83,0
4,50,70,44
4,54,38,0
4,57,75,0
4,62,47,0
4,50,70,40
4,54,62,0
4,57,62,0
4,62,22,0
4,50,87,42
