track,note,velocity,time
0,53,127,2196
0,57,127,4
0,60,127,4
0,69,127,4
0,53,100,136
0,57,100,4
0,60,100,12
0,69,100,4
0,53,127,152
0,57,127,4
0,60,127,4
0,69,127,4
0,53,127,68
0,57,127,4
0,60,127,8
0,70,127,0
0,53,127,4
0,57,127,4
0,60,127,4
0,69,127,4
0,53,127,20
0,57,127,4
0,60,127,4
0,67,127,12
0,53,92,128
0,57,92,4
0,60,92,8
0,67,92,0
0,53,127,24
0,57,127,0
0,60,127,12
0,69,127,4
0,53,100,136
0,57,100,4
0,60,100,12
0,69,100,4
0,53,127,148
0,57,127,4
0,60,127,12
0,69,127,0
0,53,127,68
0,57,127,0
0,60,127,8
0,70,127,4
0,47,81,152
0,47,61,88
0,53,127,4
0,57,127,4
0,60,127,4
0,47,71,0
0,69,127,4
0,47,71,56
0,53,127,16
0,57,127,4
0,60,127,8
0,67,127,0
0,47,91,0
0,53,92,128
0,57,92,8
0,47,91,4
0,60,92,4
0,67,92,0
0,60,97,16
0,57,97,0
0,65,97,0
0,53,127,8
0,57,127,0
0,41,116,8
0,60,127,4
0,49,64,0
0,69,127,4
0,35,113,0
0,69,114,4
0,53,100,12
0,57,100,4
0,69,101,4
0,60,100,4
0,69,100,0
0,42,52,0
0,53,127,12
0,57,127,4
0,36,118,4
0,69,102,0
0,38,113,0
0,60,127,4
0,42,93,0
0,69,127,4
0,69,90,0
0,53,127,8
0,57,127,0
0,60,127,8
0,70,127,8
0,70,112,4
0,42,51,0
0,41,118,36
0,35,113,8
0,42,90,0
0,53,127,4
0,57,127,0
0,69,109,0
0,60,127,8
0,69,127,4
0,42,51,4
0,41,109,52
0,53,127,16
0,67,109,4
0,57,127,0
0,36,112,4
0,60,127,4
0,67,127,0
0,38,110,0
0,42,94,0
0,53,92,8
0,57,92,4
0,38,111,4
0,60,92,4
0,67,92,0
0,35,81,0
0,42,52,0
0,53,127,8
0,57,127,0
0,41,112,4
0,60,127,4
0,35,112,0
0,69,127,4
0,42,91,0
0,69,112,4
0,53,100,8
0,57,100,4
0,69,102,4
0,60,100,8
0,69,100,0
0,42,54,0
0,53,127,60
0,57,127,0
0,69,105,0
0,36,121,4
0,38,113,0
0,60,127,4
0,42,94,0
0,69,127,4
0,53,127,8
0,69,90,4
0,57,127,0
0,60,127,8
0,70,127,8
0,70,114,4
0,42,50,0
0,41,118,72
0,35,111,8
0,42,91,0
0,69,111,160
0,53,127,4
0,57,127,4
0,60,127,8
0,69,127,8
0,42,54,0
0,41,111,52
0,67,111,8
0,53,127,0
0,65,127,4
0,57,127,0
0,36,118,4
0,60,127,8
0,67,127,0
0,38,110,0
0,42,90,0
0,67,127,8
0,53,92,4
0,38,111,4
0,57,92,0
0,60,92,8
0,35,82,0
0,67,92,4
0,46,51,0
0,69,127,0
0,53,127,0
0,41,112,4
0,57,127,0
0,60,127,8
0,35,113,0
0,69,127,4
0,42,94,0
0,53,100,36
0,57,100,4
0,60,100,4
0,69,100,4
0,69,127,4
0,42,52,0
0,53,127,56
0,36,118,4
0,57,127,0
0,60,127,0
0,38,113,0
0,69,127,4
0,42,93,0
0,53,127,68
0,69,127,4
0,57,127,0
0,60,127,4
0,70,127,8
0,42,51,4
0,41,111,12
0,35,113,4
0,42,90,0
0,72,127,0
0,53,127,0
0,57,127,4
0,60,127,4
0,69,127,4
0,42,51,8
0,41,93,8
0,53,127,20
0,57,127,4
0,36,105,4
0,60,127,0
0,38,110,4
0,42,94,0
0,67,127,4
0,69,127,92
0,53,92,20
0,57,92,0
0,38,109,8
0,60,92,0
0,35,81,4
0,67,92,4
0,42,52,0
0,53,127,24
0,57,127,0
0,41,111,4
0,60,127,8
0,35,112,0
0,69,127,0
0,42,91,0
0,53,100,24
0,57,100,0
0,60,100,8
0,69,100,8
0,42,54,0
0,53,127,0
0,36,112,4
0,57,127,0
0,60,127,4
0,38,113,4
0,42,94,0
0,69,127,4
0,53,127,32
0,57,127,4
0,60,127,8
0,70,127,0
0,42,50,4
0,41,118,36
0,35,111,0
0,42,91,4
0,53,127,4
0,57,127,0
0,60,127,8
0,69,127,8
0,42,54,4
0,41,100,52
0,53,127,20
0,57,127,0
0,36,109,4
0,60,127,4
0,67,127,0
0,38,110,0
0,42,90,0
0,69,127,16
0,53,92,0
0,57,92,4
0,41,102,0
0,60,92,4
0,35,82,0
0,67,92,0
0,42,50,0
0,65,97,0
0,62,97,4
0,58,97,4
0,53,125,4
0,58,125,4
0,34,114,4
0,62,125,4
0,35,113,0
0,65,125,4
0,42,94,0
0,67,127,4
0,53,86,24
0,58,86,4
0,62,86,4
0,65,127,4
0,65,86,4
0,42,52,0
0,53,125,28
0,29,114,8
0,58,125,0
0,62,125,4
0,38,113,0
0,42,93,4
0,65,125,4
0,53,107,4
0,58,107,0
0,34,104,4
0,62,107,8
0,65,107,0
0,42,51,12
0,60,97,16
0,64,97,0
0,55,97,0
0,52,127,4
0,55,127,4
0,36,109,4
0,65,127,0
0,60,127,8
0,35,113,0
0,42,90,0
0,64,127,4
0,52,84,136
0,55,84,4
0,60,84,0
0,64,84,8
0,42,51,4
0,52,127,40
0,55,127,4
0,31,109,4
0,60,127,4
0,64,127,0
0,38,110,0
0,42,94,0
0,67,127,4
0,52,121,4
0,55,121,0
0,36,102,4
0,69,127,4
0,60,121,0
0,35,81,0
0,64,121,4
0,42,52,0
0,60,97,16
0,57,97,0
0,65,97,0
0,53,127,4
0,57,127,4
0,41,112,4
0,60,127,0
0,69,127,4
0,35,112,0
0,42,91,0
0,53,100,136
0,57,100,0
0,60,100,8
0,69,100,8
0,42,54,0
0,53,127,8
0,57,127,8
0,36,116,4
0,60,127,4
0,38,113,0
0,69,127,4
0,42,94,0
0,53,127,4
0,57,127,0
0,60,127,0
0,70,127,4
0,42,50,8
0,41,112,48
0,35,111,8
0,42,91,0
0,53,127,4
0,57,127,0
0,60,127,8
0,69,127,8
0,42,54,4
0,41,105,48
0,53,127,8
0,57,127,4
0,36,102,4
0,60,127,8
0,38,110,0
0,42,90,0
0,67,127,4
0,53,92,124
0,57,92,4
0,65,127,4
0,38,96,0
0,60,92,4
0,67,92,0
0,35,82,0
0,42,50,0
0,69,127,4
0,53,127,0
0,57,127,4
0,41,111,0
0,60,127,4
0,35,113,0
0,42,94,0
0,69,127,4
0,53,100,20
0,57,100,4
0,60,100,4
0,69,100,0
0,69,127,4
0,42,52,4
0,53,127,20
0,57,127,4
0,36,116,4
0,60,127,4
0,69,127,0
0,38,113,0
0,42,93,0
0,69,127,64
0,53,127,4
0,57,127,4
0,60,127,4
0,70,127,8
0,42,51,8
0,41,114,4
0,35,113,8
0,42,90,0
0,53,127,4
0,69,127,4
0,57,127,0
0,60,127,8
0,69,127,0
0,42,51,0
0,41,100,4
0,72,127,20
0,53,127,0
0,57,127,4
0,36,101,4
0,60,127,0
0,38,110,4
0,67,127,4
0,42,94,0
0,53,92,24
0,57,92,0
0,38,111,4
0,69,127,8
0,60,92,0
0,35,81,0
0,67,92,0
0,42,52,0
0,53,127,0
0,57,127,0
0,41,111,4
0,60,127,8
0,35,112,0
0,69,127,4
0,42,91,0
0,53,100,12
0,57,100,0
0,60,100,8
0,69,100,4
0,42,54,0
0,53,127,36
0,57,127,4
0,36,114,4
0,60,127,0
0,38,113,0
0,69,127,4
0,42,94,0
0,53,127,12
0,57,127,4
0,60,127,0
0,70,127,0
0,69,127,4
0,42,50,0
0,41,116,44
0,35,111,8
0,42,91,0
0,53,127,4
0,57,127,4
0,67,127,4
0,60,127,4
0,69,127,4
0,42,54,0
0,41,73,56
0,53,127,20
0,57,127,0
0,36,96,4
0,60,127,4
0,38,110,4
0,42,90,0
0,67,127,4
0,65,127,8
0,53,92,4
0,57,92,4
0,41,111,4
0,60,92,4
0,67,92,0
0,35,82,0
0,42,50,0
0,60,97,12
0,64,97,4
0,55,97,0
0,52,127,8
0,67,108,0
0,55,127,0
0,36,114,4
0,60,127,4
0,35,113,0
0,64,127,4
0,42,94,0
0,65,121,44
0,67,127,16
0,42,52,12
0,52,127,44
0,55,127,0
0,31,118,4
0,60,127,8
0,38,113,0
0,42,93,0
0,64,127,4
0,52,127,8
0,55,127,0
0,60,127,0
0,65,127,4
0,42,51,8
0,36,118,4
0,35,113,0
0,42,90,4
0,52,127,16
0,55,127,4
0,60,127,4
0,64,127,4
0,42,51,4
0,36,101,44
0,52,94,44
0,55,94,0
0,31,109,4
0,38,110,0
0,60,94,4
0,42,94,0
0,64,94,4
0,52,127,16
0,33,111,4
0,55,127,0
0,60,127,4
0,35,81,0
0,64,127,4
0,42,52,4
0,52,122,0
0,55,122,4
0,36,109,4
0,60,122,0
0,55,104,4
0,35,112,0
0,42,91,0
0,62,122,4
0,57,98,12
0,52,105,84
0,55,105,0
0,60,105,12
0,60,93,4
0,62,105,0
0,42,54,0
0,52,125,16
0,55,125,4
0,31,109,4
0,62,121,4
0,60,125,0
0,38,113,0
0,42,94,0
0,64,125,4
0,52,127,4
0,55,127,4
0,60,116,12
0,60,127,0
0,65,127,4
0,42,50,4
0,36,114,8
0,35,111,0
0,42,91,0
0,52,127,0
0,55,127,4
0,60,127,0
0,64,127,4
0,42,54,8
0,36,98,4
0,38,107,24
0,65,127,0
0,38,110,4
0,42,90,0
0,52,127,40
0,67,127,4
0,55,127,0
0,40,102,4
0,60,127,0
0,35,82,0
0,64,127,4
0,46,59,4
0,60,97,4
0,65,97,0
0,57,97,0
0,53,127,4
0,57,127,0
0,41,107,0
0,60,127,4
0,35,113,0
0,42,94,0
0,69,127,4
0,69,127,4
0,69,120,40
0,53,100,0
0,57,100,4
0,60,100,4
0,69,100,8
0,42,52,0
0,53,127,64
0,36,118,4
0,57,127,0
0,38,113,4
0,60,127,4
0,42,93,0
0,69,127,4
0,69,127,0
0,53,127,68
0,57,127,0
0,69,127,8
0,60,127,4
0,70,127,4
0,42,51,8
0,41,121,40
0,69,127,4
0,35,113,4
0,42,90,0
0,53,127,4
0,57,127,0
0,60,127,0
0,69,127,4
0,72,127,4
0,42,51,0
0,41,90,12
0,53,127,16
0,57,127,4
0,36,111,4
0,60,127,8
0,38,110,0
0,42,94,0
0,67,127,4
0,69,127,60
0,53,92,4
0,57,92,4
0,38,114,4
0,60,92,4
0,35,81,4
0,67,92,4
0,42,52,0
0,53,127,20
0,57,127,4
0,41,112,4
0,60,127,4
0,69,127,4
0,35,112,0
0,42,91,0
0,53,100,12
0,57,100,0
0,60,100,8
0,69,100,0
0,42,54,0
0,53,127,32
0,57,127,0
0,36,114,4
0,60,127,4
0,38,113,0
0,42,94,0
0,69,127,4
0,53,127,40
0,57,127,4
0,60,127,8
0,70,127,0
0,42,50,8
0,41,116,48
0,35,111,4
0,42,91,0
0,53,127,4
0,57,127,4
0,67,127,4
0,60,127,4
0,69,127,8
0,42,54,0
0,41,100,20
0,53,127,16
0,57,127,0
0,36,104,8
0,60,127,0
0,67,127,4
0,38,110,0
0,67,127,4
0,42,90,0
0,53,92,12
0,57,92,4
0,41,107,4
0,60,92,0
0,69,127,4
0,35,82,0
0,67,92,4
0,42,50,0
0,65,97,16
0,62,97,0
0,58,97,0
0,53,125,4
0,34,112,12
0,58,125,0
0,62,125,8
0,35,113,0
0,67,127,4
0,65,125,0
0,42,94,0
0,53,86,124
0,58,86,4
0,62,86,8
0,65,86,4
0,42,52,0
0,65,127,40
0,53,125,0
0,58,125,0
0,29,114,4
0,62,125,8
0,38,113,0
0,42,93,0
0,65,125,4
0,53,107,12
0,34,99,4
0,58,107,0
0,62,107,4
0,65,107,0
0,42,51,8
0,64,97,12
0,60,97,0
0,55,97,0
0,52,127,8
0,55,127,4
0,36,111,4
0,65,127,4
0,60,127,0
0,35,113,0
0,42,90,0
0,64,127,4
0,67,126,68
0,52,84,0
0,55,84,4
0,60,84,0
0,64,84,8
0,42,51,4
0,52,127,40
0,55,127,0
0,31,111,4
0,60,127,4
0,38,110,4
0,42,94,0
0,64,127,4
0,52,121,12
0,55,121,0
0,36,100,4
0,69,127,0
0,60,121,4
0,35,81,0
0,64,121,4
0,42,52,4
0,60,97,4
0,57,97,4
0,65,97,0
0,53,127,8
0,57,127,0
0,41,105,0
0,60,127,4
0,35,112,0
0,69,127,4
0,42,91,0
0,69,123,4
0,53,100,8
0,57,100,0
0,60,100,12
0,69,91,4
0,69,100,0
0,42,54,0
0,53,127,0
0,57,127,4
0,36,116,4
0,60,127,8
0,38,113,0
0,42,94,0
0,69,127,4
0,69,116,0
0,53,127,4
0,70,117,4
0,57,127,0
0,60,127,8
0,70,127,0
0,42,50,0
0,41,116,52
0,35,111,8
0,42,91,0
0,53,127,4
0,57,127,4
0,69,125,0
0,60,127,4
0,69,127,0
0,42,54,8
0,41,98,56
0,53,127,12
0,57,127,0
0,36,107,4
0,60,127,0
0,38,110,4
0,42,90,0
0,67,127,0
0,53,92,12
0,57,92,4
0,38,112,0
0,67,121,0
0,60,92,0
0,67,92,4
0,35,82,0
0,42,50,0
0,53,127,8
0,57,127,0
0,41,111,4
0,60,127,4
0,35,113,0
0,69,127,4
0,42,94,0
0,53,100,96
0,57,100,0
0,69,127,8
0,60,100,4
0,69,100,0
0,42,52,0
0,53,127,60
0,69,127,8
0,57,127,0
0,36,112,4
0,60,127,4
0,69,127,0
0,38,113,0
0,42,93,4
0,69,126,36
0,53,127,4
0,57,127,0
0,60,127,8
0,70,127,4
0,42,51,12
0,41,116,56
0,35,113,4
0,69,127,4
0,42,90,0
0,53,127,4
0,57,127,0
0,69,127,4
0,60,127,8
0,69,127,4
0,42,51,8
0,69,127,4
0,53,127,8
0,57,127,0
0,36,112,4
0,60,127,4
0,38,110,4
0,42,94,0
0,67,127,4
0,53,92,12
0,41,104,4
0,57,92,0
0,60,92,4
0,67,92,0
0,35,81,0
0,42,52,0
0,67,97,20
0,58,97,0
0,63,97,4
0,51,127,4
0,55,127,4
0,39,110,4
0,58,127,4
0,35,112,0
0,63,127,4
0,42,91,0
0,67,127,20
0,51,99,0
0,55,99,4
0,58,99,4
0,63,99,0
0,42,54,0
0,67,127,32
0,51,127,0
0,55,127,4
0,34,114,4
0,58,127,0
0,38,113,4
0,42,94,0
0,63,127,4
0,67,127,48
0,51,114,0
0,55,114,4
0,58,114,4
0,63,114,8
0,42,50,0
0,67,127,64
0,51,127,0
0,55,127,4
0,39,106,4
0,58,127,4
0,35,111,0
0,42,91,0
0,63,127,4
0,51,69,4
0,55,69,4
0,58,69,0
0,63,69,4
0,42,54,4
0,51,127,4
0,55,127,0
0,34,112,4
0,65,127,0
0,58,127,8
0,38,110,0
0,42,90,0
0,63,127,4
0,51,122,4
0,65,127,0
0,55,122,4
0,35,82,4
0,58,122,4
0,63,122,0
0,42,50,4
0,65,97,84
0,62,97,0
0,58,97,0
0,53,127,4
0,34,119,8
0,58,127,0
0,62,127,8
0,35,113,0
0,65,127,4
0,42,94,0
0,58,91,4
0,53,85,0
0,53,117,4
0,58,117,0
0,34,110,4
0,58,84,8
0,53,69,0
0,62,117,0
0,35,73,0
0,65,117,4
0,42,52,0
0,53,127,12
0,58,127,4
0,34,119,4
0,53,81,0
0,58,89,0
0,62,127,4
0,65,127,0
0,38,113,0
0,42,93,0
0,58,87,68
0,53,79,12
0,53,125,0
0,34,117,4
0,58,125,0
0,62,125,4
0,65,125,0
0,35,73,0
0,42,51,4
0,53,86,84
0,58,95,4
0,53,127,0
0,58,127,4
0,34,125,4
0,62,127,0
0,65,127,4
0,35,113,0
0,42,90,0
0,55,97,8
0,60,97,4
0,64,97,0
0,52,127,8
0,55,127,0
0,36,127,8
0,60,95,0
0,55,92,0
0,60,127,4
0,38,110,0
0,46,74,0
0,64,127,4
0,62,97,24
0,65,97,4
0,58,97,0
0,53,125,8
0,34,119,4
0,58,125,0
0,53,82,4
0,62,125,0
0,58,85,4
0,35,112,0
0,65,125,4
0,42,91,0
0,53,108,96
0,53,71,4
0,34,119,4
