track,note,velocity,time
0,33,59,299
0,45,86,0
0,52,76,52
0,57,83,5
0,60,61,55
0,31,58,5
0,43,83,0
0,50,80,102
0,55,80,5
0,59,73,10
0,36,55,15
0,48,73,0
0,52,76,130
0,55,80,240
0,60,76,20
0,28,55,50
0,40,80,0
0,59,76,160
0,56,70,240
0,52,73,35
0,33,62,25
0,45,86,0
0,60,80,382
0,40,83,455
0,40,76,155
0,43,83,0
0,45,86,5
0,52,73,88
0,57,76,15
0,60,73,40
0,64,73,5
0,60,73,0
0,76,80,15
0,64,73,5
0,76,80,2
0,60,73,5
0,76,80,7
0,64,60,15
0,76,80,30
0,33,59,10
0,45,86,0
0,52,76,52
0,74,80,76
0,57,83,5
0,72,80,118
0,60,61,55
0,74,80,19
0,31,58,3
0,43,83,0
0,50,80,49
0,76,80,48
0,55,80,5
0,77,80,11
0,59,73,10
0,76,80,32
0,36,55,15
0,48,73,0
0,52,76,35
0,55,80,240
0,60,76,20
0,28,55,13
0,40,80,0
0,74,90,0
0,59,76,23
0,76,90,3
0,56,70,6
0,72,90,4
0,52,73,35
0,71,90,2
0,33,62,25
0,45,86,0
0,69,90,54
0,60,80,318
0,40,83,455
0,40,76,155
0,43,83,0
0,45,86,5
0,52,73,88
0,57,76,15
0,60,73,240
0,64,73,5
0,76,102,1
0,60,73,0
0,76,102,4
0,64,73,5
0,76,102,11
0,60,73,5
0,76,102,56
0,64,60,15
0,76,102,34
0,33,59,12
0,45,86,0
0,60,86,0
0,45,86,0
0,59,86,0
0,52,86,0
0,52,73,13
0,74,102,10
0,57,83,5
0,57,86,10
0,72,102,4
0,60,76,3
0,74,115,12
0,59,86,0
0,43,86,5
0,50,86,0
0,31,58,18
0,43,76,0
0,50,76,33
0,76,115,7
0,55,86,13
0,55,80,5
0,77,115,6
0,59,80,8
0,79,115,31
0,52,86,3
0,48,86,0
0,62,86,0
0,36,52,5
0,48,76,0
0,77,115,38
0,52,73,98
0,76,115,12
0,55,83,210
0,60,86,0
0,60,80,5
0,52,86,0
0,40,86,5
0,59,86,5
0,57,86,0
0,28,55,15
0,40,80,0
0,74,115,6
0,59,80,170
0,76,115,25
0,56,86,3
0,56,73,0
0,72,115,14
0,52,73,16
0,57,86,3
0,71,115,1
0,45,86,10
0,48,86,0
0,33,62,10
0,45,83,0
0,69,115,25
0,60,83,23
0,40,83,13
0,40,80,28
0,43,80,5
0,45,83,25
0,52,73,0
0,45,83,0
0,57,80,208
0,60,76,135
0,45,56,135
0,57,72,35
0,48,60,10
0,52,61,25
0,33,62,10
0,57,66,0
0,55,72,15
0,31,55,10
0,55,51,0
0,43,68,0
0,47,61,0
0,50,51,0
0,53,72,0
0,29,58,8
0,41,80,0
0,60,63,0
0,69,63,5
0,65,63,0
0,69,102,10
0,57,66,3
0,72,102,2
0,69,102,6
0,60,80,12
0,71,102,6
0,65,80,13
0,71,63,15
0,62,63,0
0,67,63,3
0,55,72,5
0,31,62,10
0,43,80,0
0,74,102,11
0,55,73,5
0,59,80,0
0,62,86,2
0,59,76,18
0,72,102,42
0,64,63,8
0,71,102,4
0,72,63,1
0,71,63,3
0,57,72,10
0,33,62,15
0,45,80,0
0,69,102,19
0,52,73,65
0,60,72,148
0,69,63,10
0,60,76,25
0,52,76,20
0,74,63,225
0,57,72,5
0,62,72,0
0,76,63,5
0,62,86,5
0,52,73,165
0,45,66,0
0,72,63,83
0,60,72,5
0,33,64,20
0,60,89,0
0,52,80,59
0,62,63,15
0,74,63,5
0,71,63,10
0,62,72,0
0,31,62,5
0,43,83,0
0,55,72,5
0,71,115,6
0,47,80,70
0,72,115,32
0,50,89,87
0,74,115,1
0,55,86,10
0,76,115,3
0,60,63,10
0,72,63,15
0,60,72,0
0,69,63,10
0,53,72,0
0,29,55,15
0,41,80,0
0,77,115,0
0,45,76,10
0,48,86,170
0,74,115,2
0,53,76,10
0,59,63,58
0,68,63,0
0,59,72,0
0,52,72,0
0,71,63,0
0,28,58,23
0,40,86,0
0,76,115,1
0,35,58,18
0,47,83,0
0,77,115,3
0,32,58,0
0,44,83,0
0,72,115,18
0,28,55,13
0,40,86,0
0,74,115,22
0,71,106,408
0,69,106,7
0,68,106,20
0,33,59,3
0,45,86,0
0,57,92,1
0,76,92,1
0,72,92,1
0,69,106,25
0,52,73,15
0,71,106,14
0,57,92,59
0,76,92,0
0,72,92,0
0,57,83,1
0,72,106,16
0,60,76,42
0,74,106,22
0,74,92,31
0,50,92,0
0,65,92,0
0,38,58,4
0,50,86,0
0,57,80,35
0,76,106,14
0,50,92,37
0,74,92,1
0,65,92,2
0,62,86,7
0,77,106,2
0,65,80,40
0,76,106,2
0,45,92,25
0,72,92,0
0,64,92,1
0,33,59,9
0,45,83,0
0,52,80,5
0,45,92,43
0,72,92,0
0,64,92,1
0,57,80,11
0,60,49,40
0,71,92,37
0,62,92,0
0,52,92,1
0,68,92,0
0,28,58,0
0,40,76,0
0,59,76,0
0,71,112,5
0,47,60,20
0,69,112,28
0,71,92,33
0,68,92,0
0,52,92,0
0,62,92,0
0,52,80,4
0,68,112,3
0,56,73,18
0,69,112,12
0,57,92,2
0,72,92,1
0,76,92,0
0,33,58,5
0,45,86,0
0,71,112,79
0,52,73,12
0,72,112,8
0,57,92,11
0,72,92,1
0,76,92,0
0,57,80,6
0,60,76,6
0,74,112,4
0,74,92,0
0,65,92,0
0,50,92,0
0,38,58,5
0,50,83,0
0,76,112,38
0,57,76,22
0,50,92,34
0,74,92,1
0,65,92,0
0,62,86,6
0,77,112,40
0,65,66,21
0,76,112,2
0,45,92,11
0,72,92,0
0,64,92,1
0,33,55,3
0,45,83,0
0,52,80,158
0,45,92,53
0,72,92,0
0,64,92,0
0,57,80,7
0,60,76,20
0,52,92,55
0,68,92,1
0,71,92,0
0,62,92,0
0,28,52,2
0,40,76,0
0,59,80,0
0,71,108,46
0,47,70,24
0,69,108,69
0,52,92,27
0,71,92,3
0,68,92,0
0,62,92,0
0,52,76,4
0,68,108,13
0,56,76,18
0,69,108,45
0,57,92,9
0,76,92,0
0,33,58,1
0,45,89,0
0,72,92,1
0,71,108,71
0,52,76,2
0,57,92,49
0,76,92,1
0,72,92,0
0,57,83,3
0,72,108,1
0,60,76,1
0,74,108,28
0,50,72,0
0,77,72,0
0,62,72,5
0,69,72,0
0,38,55,20
0,50,86,0
0,76,108,60
0,76,72,17
0,57,80,8
0,74,72,5
0,65,72,10
0,62,80,5
0,77,108,17
0,65,80,18
0,76,72,0
0,76,108,4
0,33,55,5
0,45,86,0
0,57,72,0
0,64,72,15
0,69,72,10
0,72,72,0
0,52,76,28
0,57,83,85
0,76,108,8
0,60,73,3
0,71,72,13
0,74,108,4
0,67,72,6
0,62,72,5
0,55,72,0
0,31,55,5
0,43,83,0
0,50,70,150
0,55,80,20
0,59,80,5
0,52,72,3
0,71,72,0
0,68,72,5
0,64,72,5
0,28,43,25
0,40,83,0
0,52,76,103
0,56,73,240
0,59,80,8
0,64,104,8
0,47,80,12
0,71,104,0
0,59,80,122
0,69,104,0
0,68,104,16
0,35,55,14
0,56,73,0
0,52,70,18
0,69,104,4
0,69,72,63
0,60,72,5
0,64,72,0
0,57,72,25
0,33,59,10
0,45,89,0
0,52,76,125
0,57,83,40
0,60,73,40
0,59,72,23
0,67,72,25
0,62,72,10
0,55,72,0
0,31,58,16
0,43,86,0
0,50,73,148
0,55,80,40
0,59,80,59
0,64,72,10
0,56,72,5
0,59,72,0
0,52,72,0
0,28,58,20
0,40,83,0
0,52,76,43
0,56,80,5
0,59,80,20
0,64,61,15
0,52,53,0
0,59,80,13
0,56,73,10
0,62,66,0
0,28,59,20
0,40,83,0
0,52,73,42
0,56,80,25
0,47,49,0
0,62,76,70
0,59,80,0
0,75,92,44
0,52,61,6
0,76,92,3
0,76,92,43
0,76,92,4
0,76,92,1
0,33,59,0
0,45,83,0
0,52,76,106
0,74,92,33
0,57,86,96
0,72,92,8
0,60,70,35
0,31,58,5
0,43,83,0
0,74,92,6
0,50,80,192
0,76,92,14
0,55,80,18
0,77,92,18
0,59,76,25
0,76,92,42
0,36,55,15
0,48,83,0
0,52,76,15
0,55,83,240
0,60,73,10
0,28,55,12
0,40,83,0
0,74,94,12
0,59,83,132
0,76,94,36
0,72,94,41
0,56,80,6
0,71,94,6
0,52,70,20
0,33,62,7
0,45,86,0
0,69,94,4
0,60,83,131
0,40,83,76
0,40,80,165
0,43,83,25
0,45,86,15
0,52,76,8
0,57,80,240
0,60,76,80
0,64,76,200
0,60,80,230
0,76,102,101
0,64,80,0
0,60,76,93
0,76,102,20
0,64,76,4
0,76,102,32
0,33,59,40
0,45,80,0
0,60,82,0
0,45,82,0
0,59,82,0
0,52,82,0
0,76,102,4
0,52,73,15
0,74,102,9
0,57,83,13
0,57,82,5
0,72,102,3
0,60,73,8
0,59,82,0
0,43,82,5
0,74,115,5
0,50,82,0
0,31,58,5
0,43,80,0
0,50,76,18
0,76,115,23
0,55,82,15
0,55,83,5
0,77,115,2
0,59,80,10
0,52,82,5
0,48,82,0
0,62,82,0
0,79,115,14
0,36,52,10
0,48,86,0
0,77,115,204
0,52,80,28
0,76,115,62
0,55,83,50
0,60,82,0
0,64,115,14
0,60,73,6
0,52,82,0
0,40,82,5
0,59,82,20
0,57,82,0
0,28,55,15
0,40,80,0
0,59,80,0
0,74,115,4
0,56,76,0
0,76,115,8
0,56,82,13
0,52,80,3
0,72,115,65
0,56,73,1
0,57,82,39
0,71,115,2
0,45,82,0
0,48,82,0
0,33,62,10
0,45,86,0
0,69,115,182
0,60,80,5
0,40,83,33
0,40,76,45
0,43,80,25
0,45,83,5
0,45,80,52
0,52,76,0
0,57,80,200
0,60,76,0
0,45,76,10
0,57,72,20
0,48,66,10
0,52,61,20
0,33,62,15
0,57,83,0
0,55,72,55
0,31,55,20
0,47,73,0
0,43,70,0
0,50,73,0
0,55,83,0
0,64,115,19
0,69,115,12
0,53,72,3
0,29,58,5
0,41,86,0
0,60,65,0
0,69,65,5
0,65,65,5
0,72,115,15
0,45,80,5
0,69,115,4
0,48,86,15
0,53,86,28
0,71,115,1
0,71,65,5
0,62,65,0
0,67,65,0
0,55,72,5
0,31,62,8
0,43,86,0
0,74,115,2
0,47,83,5
0,50,86,53
0,72,115,38
0,55,80,2
0,71,115,8
0,64,65,33
0,72,65,5
0,71,65,10
0,69,115,18
0,57,72,7
0,33,62,15
0,45,86,0
0,59,86,0
0,52,76,0
0,45,80,0
0,60,72,38
0,69,65,10
0,60,89,25
0,52,86,0
0,74,65,5
0,57,72,5
0,62,72,0
0,76,65,5
0,45,80,5
0,62,89,0
0,52,83,10
0,72,65,35
0,60,72,5
0,33,64,20
0,60,86,0
0,52,83,15
0,62,65,35
0,74,65,15
0,71,115,7
0,71,65,3
0,62,72,0
0,31,62,5
0,43,86,0
0,55,72,5
0,47,80,91
0,72,115,58
0,50,89,8
0,74,115,96
0,55,83,5
0,76,115,2
0,60,65,0
0,72,65,11
0,60,72,0
0,69,65,10
0,53,72,0
0,29,55,15
0,41,83,0
0,45,80,112
0,77,115,4
0,48,86,5
0,74,115,5
0,53,80,5
0,59,65,51
0,68,65,0
0,59,72,0
0,52,72,0
0,71,65,0
0,28,58,21
0,40,83,0
0,76,115,1
0,35,58,30
0,47,83,0
0,77,115,6
0,32,58,0
0,44,89,0
0,72,115,21
0,28,55,8
0,40,86,0
0,74,115,4
0,71,102,106
0,69,102,32
0,68,102,75
0,33,59,22
0,45,86,0
0,57,92,1
0,76,92,1
0,72,92,1
0,69,102,9
0,52,76,68
0,71,102,4
0,57,92,14
0,76,92,0
0,72,92,0
0,57,83,1
0,72,102,16
0,60,76,59
0,74,102,3
0,74,92,31
0,50,92,0
0,65,92,0
0,38,58,4
0,50,83,0
0,76,102,0
0,57,76,2
0,50,92,151
0,74,92,1
0,65,92,2
0,62,76,7
0,77,102,2
0,65,73,12
0,76,102,34
0,45,92,5
0,72,92,0
0,64,92,1
0,33,59,8
0,45,86,0
0,52,76,160
0,45,92,43
0,72,92,0
0,64,92,1
0,57,80,11
0,60,66,15
0,71,92,13
0,62,92,0
0,52,92,1
0,68,92,0
0,28,58,0
0,59,83,0
0,71,104,149
0,47,60,18
0,69,104,21
0,71,92,7
0,68,92,0
0,52,92,0
0,62,92,0
0,40,70,9
0,52,89,0
0,68,104,27
0,56,80,17
0,69,104,81
0,57,92,4
0,72,92,0
0,76,92,0
0,33,58,5
0,45,86,0
0,71,104,138
0,52,70,18
0,72,104,36
0,57,92,11
0,72,92,1
0,76,92,0
0,57,83,6
0,74,104,14
0,60,80,4
0,74,92,0
0,65,92,0
0,50,92,0
0,38,58,5
0,50,86,0
0,76,106,72
0,57,80,12
0,77,106,63
0,50,92,3
0,74,92,1
0,65,92,0
0,62,76,2
0,65,61,45
0,76,106,6
0,45,92,40
0,72,92,0
0,64,92,1
0,33,55,2
0,45,86,0
0,52,76,158
0,45,92,30
0,72,92,0
0,64,92,0
0,57,83,7
0,60,76,35
0,52,92,45
0,68,92,1
0,71,92,0
0,62,92,0
0,28,52,4
0,40,76,0
0,59,66,0
0,71,108,25
0,47,80,2
0,69,108,162
0,52,92,1
0,71,92,3
0,68,92,0
0,62,92,0
0,52,83,4
0,68,108,55
0,56,80,4
0,69,108,62
0,57,92,1
0,76,92,0
0,33,58,1
0,45,86,0
0,72,92,1
0,52,70,13
0,71,108,10
0,57,92,21
0,76,92,1
0,72,92,0
0,57,86,3
0,72,108,30
0,60,80,2
0,74,108,46
0,50,72,0
0,77,72,0
0,62,72,5
0,69,72,0
0,38,55,14
0,50,86,0
0,76,72,78
0,57,80,15
0,76,108,12
0,74,72,58
0,65,72,10
0,62,76,5
0,77,108,46
0,65,66,20
0,76,72,0
0,76,108,8
0,33,55,3
0,45,80,0
0,57,72,15
0,69,72,5
0,72,72,0
0,64,72,0
0,52,76,138
0,57,80,8
0,76,115,9
0,60,61,10
0,55,72,10
0,71,72,10
0,31,55,5
0,43,86,0
0,67,72,5
0,62,72,5
0,74,115,3
0,50,76,8
0,55,83,20
0,72,115,6
0,71,115,17
0,59,76,25
0,52,72,23
0,68,72,3
0,64,72,0
0,28,43,28
0,40,83,0
0,52,76,3
0,56,76,5
0,64,115,20
0,59,76,10
0,71,115,0
0,47,80,13
0,59,86,15
0,69,115,2
0,68,115,40
0,35,55,5
0,56,83,0
0,69,115,22
0,52,73,1
0,83,50,55
0,64,72,0
0,71,72,0
0,60,72,0
0,76,72,0
0,33,64,10
0,45,83,0
0,57,72,20
0,52,76,92
0,57,80,240
0,60,76,30
0,67,72,26
0,74,72,10
0,55,72,0
0,62,72,0
0,31,62,15
0,43,83,0
0,50,80,132
0,55,80,10
0,59,76,59
0,76,72,17
0,52,72,0
0,64,72,5
0,68,72,0
0,28,62,5
0,40,80,0
0,52,80,164
0,56,76,240
0,64,115,8
0,59,80,14
0,71,115,28
0,47,80,8
0,59,80,17
0,69,115,2
0,56,73,30
0,68,115,14
0,35,64,42
0,52,66,0
0,69,115,2
0,57,72,10
0,60,72,5
0,33,64,30
0,45,70,0
0,52,66,280
0,48,66,0
0,57,80,0
0,67,91,0
0,60,88,0
0,57,75,0
0,64,73,0
0,57,75,130
0,67,90,0
0,60,86,0
0,64,84,0
0,57,46,90
0,52,53,0
0,48,43,0
0,67,75,0
0,60,64,0
0,64,68,0
0,57,64,0
0,67,70,120
0,60,61,0
0,64,58,0
0,57,61,0
0,33,64,190
0,45,55,0
0,67,58,10
0,60,64,0
0,57,70,0
0,64,62,0
0,57,53,70
0,48,31,0
0,52,43,0
0,60,58,0
0,67,70,0
0,57,64,0
0,64,61,0
0,57,55,110
0,48,40,0
0,52,46,0
0,57,64,0
0,67,61,0
0,60,62,0
0,64,70,0
0,57,60,155
0,48,35,0
0,52,26,0
0,67,61,0
0,60,62,0
0,57,73,0
0,64,62,0
0,67,64,150
0,60,64,0
0,64,58,0
0,57,61,0
