track,note,velocity,time
0,72,92,294
0,73,101,187
0,56,77,186
0,68,95,0
0,75,115,10
0,75,45,93
0,80,80,48
0,75,52,66
0,68,54,81
0,73,95,4
0,72,92,62
0,75,18,0
0,80,83,40
0,70,101,95
0,68,61,1
0,49,49,86
0,61,73,0
0,65,92,2
0,65,48,116
0,68,54,48
0,73,95,96
0,73,107,0
0,75,52,4
0,73,16,93
0,72,79,3
0,68,80,4
0,70,107,27
0,65,68,10
0,63,107,10
0,56,65,7
0,70,49,0
0,72,65,0
0,75,44,0
0,68,59,7
0,70,57,48
0,75,117,96
0,70,34,75
0,68,46,8
0,70,90,54
0,68,59,4
0,51,67,20
0,63,51,0
0,70,59,0
0,67,44,11
0,70,90,82
0,75,112,96
0,60,75,43
0,70,54,4
0,68,89,1
0,67,48,15
0,61,75,46
0,70,83,0
0,70,101,1
0,56,65,14
0,70,51,0
0,72,73,0
0,63,84,1
0,72,86,3
0,68,54,58
0,75,100,96
0,65,73,6
0,73,95,10
0,70,65,86
0,63,58,3
0,72,75,4
0,68,71,27
0,70,84,26
0,61,60,10
0,68,47,6
0,75,9,0
0,65,37,9
0,49,71,1
0,61,55,0
0,68,16,0
0,73,63,0
0,75,52,0
0,65,81,3
0,65,54,69
0,68,54,171
0,73,90,0
0,68,52,94
0,73,84,7
0,70,84,7
0,75,64,57
0,72,77,4
0,68,89,5
0,68,80,46
0,70,84,14
0,67,75,1
0,65,58,14
0,70,42,9
0,67,92,8
0,51,64,4
0,63,53,0
0,70,59,0
0,75,45,0
0,70,84,2
0,67,57,67
0,70,44,79
0,70,53,47
0,75,117,0
0,70,40,146
0,75,112,96
0,70,75,28
0,75,51,81
0,51,73,13
0,63,61,0
0,75,69,0
0,79,90,0
0,70,69,92
0,75,75,7
0,79,82,0
0,60,109,43
0,70,77,0
0,63,48,2
0,51,73,8
0,70,63,0
0,75,71,4
0,82,83,4
0,41,87,88
0,61,126,0
0,60,97,24
0,59,106,24
0,63,126,0
0,56,117,1
0,38,102,4
0,44,118,0
0,56,107,0
0,56,107,0
0,68,90,0
0,68,112,0
0,70,102,0
0,72,103,0
0,75,76,0
0,75,70,0
0,72,88,8
0,75,33,24
0,75,65,0
0,75,65,0
0,75,48,36
0,41,106,36
0,52,102,0
0,63,63,0
0,75,48,0
0,75,70,15
0,38,97,22
0,44,126,0
0,52,60,0
0,56,107,0
0,63,75,0
0,68,117,0
0,72,103,0
0,75,35,0
0,75,35,24
0,52,102,36
0,75,48,0
0,75,35,0
0,75,48,0
0,52,51,8
0,63,86,0
0,75,23,0
0,68,61,36
0,73,56,0
0,75,48,0
0,41,87,11
0,52,106,0
0,56,100,0
0,61,115,0
0,63,56,0
0,68,90,0
0,73,117,0
0,75,24,0
0,60,81,13
0,75,68,0
0,39,118,2
0,52,68,0
0,61,101,0
0,63,77,0
0,75,35,0
0,38,86,2
0,52,51,0
0,60,92,0
0,75,35,0
0,38,86,24
0,44,118,0
0,52,97,0
0,56,101,0
0,56,86,0
0,63,67,0
0,68,95,0
0,72,97,0
0,75,23,0
0,75,35,0
0,75,48,0
0,52,66,36
0,75,62,0
0,75,23,7
0,41,102,36
0,52,102,0
0,63,112,0
0,75,48,0
0,75,35,0
0,38,102,1
0,44,118,0
0,52,72,0
0,56,101,0
0,63,95,0
0,65,103,0
0,68,100,0
0,72,97,0
0,75,62,0
0,63,28,19
0,75,23,0
0,52,97,36
0,75,35,0
0,75,48,0
0,75,48,12
0,63,112,8
0,52,47,0
0,63,75,0
0,75,35,0
0,68,52,12
0,73,27,0
0,75,62,0
0,39,126,9
0,41,87,0
0,52,102,0
0,56,106,0
0,63,64,0
0,68,73,0
0,73,100,0
0,75,23,0
0,75,35,0
0,75,82,0
0,51,86,11
0,61,112,0
0,63,75,0
0,75,65,0
0,75,35,30
0,38,97,1
0,44,126,0
0,52,93,0
0,56,101,0
0,56,83,0
0,63,75,0
0,68,95,0
0,72,97,0
0,75,48,0
0,75,23,24
0,52,53,11
0,60,106,0
0,75,23,0
0,75,82,0
0,75,65,9
0,41,106,36
0,52,102,0
0,75,35,0
0,75,59,3
0,38,89,26
0,44,126,0
0,52,59,0
0,56,107,0
0,63,69,0
0,68,106,0
0,72,97,0
0,75,53,0
0,75,53,0
0,75,23,24
0,52,89,36
0,75,59,0
0,75,23,20
0,52,51,17
0,63,71,0
0,75,53,0
0,68,64,34
0,73,45,0
0,75,33,0
0,75,33,0
0,41,106,16
0,52,97,0
0,61,115,0
0,63,73,0
0,68,86,0
0,73,112,0
0,75,35,0
0,60,79,12
0,75,59,0
0,39,126,6
0,52,77,0
0,61,95,0
0,63,46,0
0,75,23,0
0,38,68,5
0,52,64,0
0,60,89,0
0,75,35,0
0,75,82,0
0,38,97,3
0,44,118,0
0,52,93,0
0,56,107,0
0,56,80,0
0,63,80,0
0,68,90,0
0,72,100,0
0,75,50,0
0,75,16,24
0,52,54,36
0,75,48,0
0,75,23,31
0,41,87,36
0,52,93,0
0,75,23,0
0,75,48,0
0,75,53,24
0,38,106,20
0,44,118,0
0,52,64,0
0,56,107,0
0,63,86,0
0,68,90,0
0,72,95,0
0,75,16,0
0,75,48,11
0,52,89,36
0,56,63,0
0,60,97,0
0,75,35,0
0,52,66,13
0,75,23,0
0,75,48,0
0,51,98,36
0,63,69,0
0,75,48,0
0,75,23,17
0,41,87,4
0,52,86,0
0,61,112,0
0,63,44,0
0,68,77,0
0,72,92,0
0,75,48,0
0,52,77,9
0,75,23,0
0,44,95,36
0,51,86,0
0,56,101,0
0,75,16,0
0,75,48,0
0,46,29,9
0,58,89,0
0,67,36,0
0,70,34,0
0,75,50,0
0,38,93,8
0,60,106,0
0,60,88,0
0,63,118,0
0,65,67,0
0,67,76,0
0,70,85,0
0,70,90,0
0,75,80,0
0,75,112,0
0,48,113,0
0,52,80,0
0,75,23,0
0,75,48,24
0,52,66,36
0,67,74,0
0,75,33,0
0,75,33,0
0,63,100,12
0,75,16,0
0,41,106,36
0,52,102,0
0,70,63,0
0,75,53,0
0,75,35,24
0,38,97,31
0,48,117,0
0,52,47,0
0,60,115,0
0,63,100,0
0,70,54,0
0,75,117,0
0,75,48,0
0,75,48,0
0,75,10,0
0,52,86,8
0,63,95,0
0,75,23,0
0,75,48,16
0,52,56,36
0,75,95,0
0,75,23,0
0,63,100,34
0,75,48,0
0,41,87,36
0,52,106,0
0,75,23,0
0,77,76,0
0,63,86,1
0,75,48,0
0,46,126,15
0,52,70,0
0,75,57,0
0,77,72,0
0,82,112,0
0,75,48,0
0,75,35,0
0,52,62,36
0,75,10,0
0,38,93,10
0,48,122,0
0,52,97,0
0,60,111,0
0,63,118,0
0,75,68,0
0,75,23,24
0,52,54,28
0,75,45,0
0,75,16,0
0,75,48,0
0,75,48,9
0,41,102,22
0,52,102,0
0,63,83,0
0,75,10,0
0,75,48,6
0,38,97,36
0,48,122,0
0,52,57,0
0,60,111,0
0,65,92,0
0,75,46,0
0,77,77,0
0,75,68,0
0,75,68,0
0,75,16,24
0,52,89,36
0,75,48,0
0,75,10,36
0,52,59,8
0,63,100,0
0,77,79,0
0,82,90,0
0,75,10,0
0,75,48,0
0,75,62,26
0,41,106,36
0,52,93,0
0,75,30,0
0,75,68,19
0,48,103,36
0,52,38,0
0,61,77,0
0,75,48,0
0,75,16,0
0,75,23,36
0,38,97,7
0,52,97,0
0,53,106,0
0,53,100,0
0,53,122,0
0,69,78,0
0,72,87,0
0,72,56,0
0,75,90,0
0,75,69,0
0,75,48,0
0,77,78,0
0,77,73,0
0,75,35,24
0,52,52,14
0,60,71,0
0,75,23,0
0,75,23,0
0,75,35,31
0,41,102,8
0,52,97,0
0,69,65,0
0,75,23,0
0,75,35,0
0,75,23,0
0,38,93,30
0,52,52,0
0,53,106,0
0,53,122,0
0,72,103,0
0,75,23,0
0,75,10,24
0,52,86,36
0,69,38,0
0,75,35,0
0,75,16,10
0,52,39,36
0,72,82,0
0,75,35,0
0,77,100,0
0,75,23,36
0,41,106,4
0,52,97,0
0,75,35,0
0,75,48,0
0,75,48,24
0,51,100,36
0,52,32,0
0,53,95,0
0,69,49,0
0,75,35,0
0,38,70,1
0,48,77,0
0,72,70,0
0,75,35,0
0,77,44,0
0,38,97,5
0,52,89,0
0,53,88,0
0,53,113,0
0,65,103,0
0,75,23,0
0,77,95,0
0,75,48,19
0,52,38,36
0,69,69,0
0,75,48,0
0,75,23,0
0,75,16,36
0,41,87,21
0,51,118,0
0,52,89,0
0,75,117,0
0,75,35,0
0,77,29,0
0,75,35,24
0,38,97,4
0,52,56,0
0,53,98,0
0,69,74,0
0,75,48,0
0,75,48,0
0,75,23,0
0,49,112,1
0,52,89,0
0,58,106,0
0,73,112,0
0,75,23,0
0,75,35,17
0,52,40,26
0,69,44,0
0,75,16,0
0,75,48,36
0,41,87,4
0,48,103,0
0,60,90,0
0,72,88,0
0,52,93,0
0,75,23,0
0,75,35,0
0,75,48,0
0,52,59,11
0,53,79,0
0,61,112,0
0,75,48,0
0,51,107,36
0,73,29,0
0,75,34,0
0,75,35,0
0,80,39,0
0,38,86,3
0,46,118,0
0,52,93,0
0,58,115,0
0,58,90,0
0,68,85,0
0,70,76,0
0,73,67,0
0,75,69,0
0,75,82,0
0,77,66,0
0,80,83,0
0,75,48,0
0,75,48,0
0,52,53,3
0,72,77,0
0,75,35,0
0,75,48,2
0,41,106,36
0,52,93,0
0,73,95,0
0,75,23,0
0,75,48,24
0,38,93,33
0,46,127,0
0,52,48,0
0,58,101,0
0,80,112,0
0,75,48,0
0,75,35,0
0,75,23,24
0,52,83,7
0,75,48,0
0,52,62,35
0,75,35,0
0,52,51,36
0,75,45,0
0,75,48,0
0,80,63,0
0,75,35,10
0,41,106,36
0,52,93,0
0,58,100,0
0,75,59,0
0,75,35,0
0,44,106,2
0,52,59,0
0,73,55,0
0,75,48,0
0,75,82,0
0,38,80,23
0,52,36,0
0,75,59,0
0,38,80,24
0,46,112,0
0,52,86,0
0,58,107,0
0,58,106,0
0,73,80,0
0,75,70,0
0,75,33,0
0,77,82,0
0,80,67,0
0,73,61,24
0,75,48,0
0,52,49,36
0,75,35,0
0,75,59,13
0,80,106,0
0,41,102,36
0,52,93,0
0,61,118,0
0,75,35,0
0,75,60,8
0,75,35,0
0,75,82,0
0,38,102,34
0,46,118,0
0,52,54,0
0,58,107,0
0,61,112,0
0,73,100,0
0,75,56,0
0,63,100,5
0,75,33,0
0,52,50,3
0,75,53,0
0,52,102,36
0,75,18,0
0,52,50,36
0,61,112,0
0,75,43,0
0,75,44,0
0,75,56,0
0,75,56,0
0,41,106,5
0,52,102,0
0,75,48,0
0,80,86,0
0,46,106,8
0,75,36,0
0,48,95,12
0,52,57,0
0,58,101,0
0,60,100,0
0,75,48,0
0,49,80,36
0,52,71,0
0,67,40,0
0,70,50,0
0,75,53,0
0,75,36,0
0,38,97,21
0,51,107,0
0,51,77,0
0,51,126,0
0,52,56,0
0,63,65,0
0,70,90,0
0,75,73,0
0,75,112,0
0,79,72,0
0,75,53,0
0,75,53,0
0,52,107,4
0,67,82,13
0,75,48,0
0,52,53,36
0,58,106,0
0,70,80,0
0,75,48,0
0,75,117,11
0,75,35,0
0,41,102,17
0,52,93,0
0,75,56,0
0,67,73,24
0,75,41,0
0,75,41,0
0,38,102,22
0,51,107,0
0,51,112,0
0,52,66,0
0,75,117,0
0,75,27,0
0,75,50,16
0,52,50,36
0,75,35,0
0,75,53,20
0,52,38,36
0,70,80,0
0,75,48,0
0,75,48,0
0,75,23,36
0,41,106,36
0,52,102,0
0,63,11,0
0,75,44,0
0,75,47,0
0,75,35,24
0,39,126,5
0,52,45,0
0,70,53,0
0,75,86,0
0,75,56,0
0,79,103,0
0,52,38,5
0,75,35,0
0,38,93,5
0,51,115,0
0,51,112,0
0,52,93,0
0,63,77,0
0,70,85,0
0,75,80,0
0,80,90,0
0,75,35,0
0,75,82,0
0,75,59,8
0,52,43,36
0,70,57,0
0,75,53,0
0,38,86,9
0,75,30,0
0,41,87,2
0,52,93,0
0,75,35,0
0,75,44,24
0,75,56,0
0,38,102,13
0,51,115,0
0,51,106,0
0,52,62,0
0,70,96,0
0,70,57,0
0,75,85,0
0,75,77,0
0,79,85,0
0,79,86,0
0,75,44,0
0,75,44,0
0,75,24,24
0,52,70,28
0,60,90,0
0,75,56,0
0,75,56,0
0,75,23,9
0,52,60,36
0,60,80,0
0,70,71,0
0,75,53,0
0,75,48,36
0,41,87,1
0,52,86,0
0,63,117,0
0,75,59,0
0,52,80,24
0,75,39,0
0,51,100,12
0,51,106,0
0,58,95,0
0,68,60,0
0,75,48,0
0,75,48,0
0,73,52,35
0,75,24,0
0,77,49,0
0,38,93,4
0,49,115,0
0,49,77,0
0,49,112,0
0,52,83,0
0,53,59,0
0,61,96,0
0,61,86,0
0,73,96,0
0,75,90,0
0,80,80,0
0,73,56,0
0,75,65,0
0,77,88,0
0,68,83,24
0,75,48,0
0,52,34,26
0,56,90,0
0,61,95,0
0,73,63,0
0,75,48,0
0,75,41,36
0,77,97,0
0,41,106,10
0,52,86,0
0,63,84,0
0,73,47,0
0,75,65,0
0,75,65,0
0,68,77,1
0,75,48,0
0,38,97,11
0,49,118,0
0,52,53,0
0,61,106,0
0,68,116,0
0,73,77,0
0,75,35,0
0,77,97,0
0,52,41,24
0,75,48,0
0,52,89,30
0,68,64,0
0,75,48,0
0,75,56,36
0,52,51,11
0,60,88,0
0,68,39,0
0,73,30,0
0,75,48,0
0,61,50,22
0,75,44,0
0,75,44,0
0,41,87,17
0,52,97,0
0,68,90,0
0,73,33,0
0,75,48,0
0,61,90,12
0,75,30,0
0,49,106,34
0,52,48,0
0,58,100,0
0,67,64,0
0,70,36,0
0,75,27,0
0,38,62,9
0,50,76,0
0,75,58,0
0,75,48,0
0,38,93,5
0,51,101,0
0,51,86,0
0,51,118,0
0,52,83,0
0,63,96,0
0,63,83,0
0,70,80,0
0,70,39,0
0,75,73,0
0,75,106,0
0,75,35,0
0,79,76,0
0,67,73,24
0,75,48,0
0,75,82,0
0,52,40,14
0,67,92,0
0,70,86,0
0,75,21,0
0,38,89,27
0,51,118,0
0,75,117,0
0,75,48,0
0,41,87,9
0,52,86,0
0,63,77,0
0,70,89,0
0,75,27,0
0,67,69,11
0,75,48,0
0,38,106,10
0,39,126,0
0,52,62,0
0,70,73,0
0,75,115,0
0,75,117,0
0,75,33,0
0,75,48,24
0,52,48,5
0,60,86,0
0,63,29,0
0,75,62,0
0,75,62,0
0,75,48,2
0,52,33,22
0,60,79,0
0,67,56,0
0,75,48,0
0,75,35,2
0,41,87,9
0,51,126,0
0,52,77,0
0,60,77,0
0,70,48,0
0,75,100,0
0,75,48,0
0,63,90,1
0,75,27,0
0,51,66,9
0,58,106,0
0,73,16,0
0,80,38,0
0,75,59,0
0,75,59,0
0,51,95,12
0,75,47,0
0,75,35,0
0,77,52,0
0,38,97,5
0,49,115,0
0,49,112,0
0,52,89,0
0,53,70,0
0,61,102,0
0,65,96,0
0,65,64,0
0,68,96,0
0,73,90,0
0,75,65,0
0,75,55,0
0,75,24,0
0,77,84,0
0,80,83,0
0,73,71,18
0,75,48,0
0,52,38,36
0,56,100,0
0,65,75,0
0,75,64,0
0,75,36,0
0,75,63,16
0,75,48,0
0,80,117,0
0,41,86,27
0,52,83,0
0,68,89,0
0,75,33,0
0,73,61,24
0,75,48,0
0,38,106,36
0,49,118,0
0,52,56,0
0,61,112,0
0,73,116,0
0,75,75,0
0,80,112,0
0,75,24,0
0,75,24,0
0,75,44,24
0,52,36,36
0,73,46,0
0,75,47,0
0,75,56,13
0,52,60,23
0,60,86,0
0,73,32,0
0,75,54,0
0,75,39,0
0,75,53,5
0,41,87,36
0,52,97,0
0,75,71,0
0,75,62,0
0,80,86,0
0,75,36,0
0,75,36,0
0,38,89,10
0,49,80,0
0,52,47,0
0,58,106,0
0,73,34,0
0,75,53,0
