track,note,velocity,time
0,60,116,1437
0,61,116,490
0,44,60,410
0,56,106,45
0,63,90,0
0,68,90,3
0,56,106,17
0,63,116,35
0,60,100,27
0,63,90,65
0,63,84,112
0,68,78,0
0,63,106,15
0,68,98,3
0,63,78,40
0,68,106,0
0,61,106,37
0,63,106,47
0,68,106,0
0,56,74,0
0,60,116,125
0,63,116,130
0,68,106,0
0,58,106,20
0,56,66,22
0,37,84,35
0,49,60,42
0,53,80,25
0,56,106,10
0,61,78,5
0,68,90,0
0,49,90,3
0,56,98,17
0,61,98,47
0,61,75,65
0,68,90,0
0,61,90,0
0,68,78,3
0,61,76,0
0,68,106,3
0,49,90,10
0,61,116,15
0,61,72,2
0,68,72,0
0,49,66,35
0,60,92,90
0,61,90,115
0,68,116,0
0,58,98,20
0,49,72,12
0,39,98,20
0,51,90,27
0,55,106,15
0,51,78,20
0,70,106,0
0,63,106,3
0,51,98,10
0,58,126,27
0,63,98,45
0,63,98,82
0,70,84,0
0,63,84,262
0,70,98,0
0,63,84,65
0,70,84,0
0,63,98,122
0,70,66,0
0,63,90,270
0,70,106,0
0,51,66,82
0,63,56,50
0,65,57,10
0,51,72,45
0,70,84,0
0,65,96,3
0,63,52,27
0,65,84,15
0,70,84,0
0,65,88,170
0,70,90,0
0,65,78,62
0,70,75,0
0,63,81,120
0,56,106,15
0,60,110,0
0,65,96,80
0,70,98,0
0,63,84,12
0,61,106,10
0,58,106,5
0,70,98,0
0,65,110,3
0,51,84,50
0,44,116,47
0,56,106,42
0,63,90,15
0,68,98,0
0,56,84,3
0,60,92,10
0,60,88,7
0,63,106,5
0,68,127,2
0,72,127,0
0,63,98,20
0,63,98,20
0,68,98,0
0,63,116,95
0,68,90,0
0,63,78,57
0,68,84,0
0,56,72,7
0,58,106,20
0,61,106,0
0,63,90,25
0,68,90,0
0,56,57,0
0,56,90,35
0,60,106,5
0,63,116,65
0,68,116,0
0,58,90,0
0,55,90,5
0,56,75,32
0,37,84,12
0,49,90,0
0,53,70,0
0,49,74,2
0,61,98,0
0,68,98,3
0,53,100,2
0,56,106,3
0,56,106,27
0,73,127,2
0,61,72,5
0,61,84,35
0,68,84,0
0,61,78,180
0,68,98,0
0,61,90,22
0,68,84,0
0,49,66,2
0,58,98,5
0,61,106,2
0,61,84,95
0,68,78,0
0,56,72,25
0,60,106,5
0,61,90,15
0,68,106,0
0,53,78,37
0,58,90,5
0,49,84,60
0,39,98,20
0,51,98,5
0,51,84,20
0,63,90,0
0,70,98,3
0,55,110,0
0,51,78,3
0,58,106,5
0,75,111,17
0,70,115,20
0,58,126,20
0,63,98,0
0,63,116,40
0,70,98,0
0,63,90,20
0,70,90,0
0,63,98,10
0,70,106,0
0,63,90,122
0,70,90,0
0,51,77,40
0,63,106,35
0,70,106,0
0,51,70,30
0,63,56,10
0,65,58,5
0,51,84,25
0,70,78,0
0,65,92,3
0,63,57,5
0,65,84,60
0,70,77,0
0,65,96,262
0,70,84,0
0,65,96,52
0,70,66,0
0,51,60,22
0,60,110,0
0,65,88,35
0,70,78,0
0,51,68,30
0,65,116,95
0,70,106,0
0,61,126,3
0,38,91,0
0,38,85,67
0,51,98,7
0,41,81,0
0,63,106,3
0,35,107,33
0,49,80,0
0,44,72,2
0,56,78,0
0,63,84,0
0,44,126,3
0,68,90,0
0,56,72,2
0,63,106,0
0,90,127,35
0,80,127,5
0,42,48,13
0,54,32,0
0,42,80,5
0,54,48,0
0,89,127,17
0,35,48,3
0,42,32,0
0,54,32,0
0,63,90,2
0,68,72,0
0,38,96,8
0,42,80,0
0,54,48,0
0,56,61,2
0,42,48,70
0,54,32,0
0,35,107,20
0,42,80,0
0,54,48,0
0,61,84,2
0,44,116,0
0,68,72,3
0,87,127,2
0,42,32,8
0,54,32,0
0,61,62,2
0,68,78,0
0,42,80,5
0,54,48,0
0,56,67,2
0,42,48,13
0,54,32,0
0,61,84,2
0,68,98,0
0,35,80,8
0,42,80,0
0,54,48,0
0,56,73,2
0,85,127,40
0,42,32,13
0,54,32,0
0,38,96,0
0,42,80,0
0,54,48,0
0,49,98,2
0,61,106,3
0,68,98,0
0,42,48,18
0,54,32,0
0,48,96,2
0,35,48,13
0,42,80,0
0,54,48,0
0,49,66,2
0,56,60,0
0,42,32,8
0,54,32,0
0,48,100,2
0,80,109,47
0,35,107,23
0,42,80,0
0,54,48,0
0,44,44,2
0,44,116,0
0,63,90,3
0,68,84,0
0,56,70,2
0,90,127,0
0,42,48,70
0,54,32,0
0,42,80,3
0,54,48,0
0,89,127,32
0,35,48,3
0,42,32,0
0,54,32,0
0,63,98,2
0,68,89,0
0,38,96,40
0,42,80,0
0,54,48,0
0,56,70,2
0,63,126,0
0,42,48,13
0,54,32,0
0,35,107,13
0,42,80,0
0,54,48,0
0,44,116,2
0,61,98,0
0,68,106,3
0,65,106,0
0,87,127,2
0,42,32,23
0,54,32,0
0,61,84,2
0,68,70,0
0,42,80,0
0,54,48,0
0,56,72,2
0,42,48,0
0,54,32,0
0,61,84,2
0,68,98,0
0,35,80,33
0,42,80,0
0,54,48,0
0,56,46,2
0,56,64,0
0,63,116,3
0,85,127,5
0,42,32,60
0,54,32,0
0,38,96,60
0,42,80,0
0,54,48,0
0,49,106,2
0,61,98,3
0,68,98,0
0,42,48,68
0,54,32,0
0,48,62,2
0,35,48,20
0,42,80,0
0,54,48,0
0,49,78,2
0,56,68,3
0,61,106,0
0,42,32,0
0,54,32,0
0,48,92,2
0,35,107,0
0,42,80,0
0,54,48,0
0,44,54,2
0,63,72,0
0,56,43,3
0,44,98,0
0,56,90,2
0,61,78,0
0,68,106,0
0,90,127,5
0,42,48,70
0,54,32,0
0,42,80,3
0,54,48,0
0,60,106,2
0,89,127,10
0,35,48,0
0,42,32,0
0,54,32,0
0,61,90,2
0,68,72,3
0,38,96,3
0,42,80,0
0,54,48,0
0,56,80,2
0,42,48,70
0,54,32,0
0,35,107,28
0,42,80,0
0,54,48,0
0,56,46,2
0,44,126,0
0,61,104,3
0,68,78,0
0,87,127,22
0,42,32,20
0,54,32,0
0,61,67,2
0,68,66,0
0,42,80,13
0,54,48,0
0,56,73,2
0,42,48,70
0,54,32,0
0,61,98,2
0,68,98,0
0,35,80,40
0,42,80,0
0,54,48,0
0,56,77,2
0,85,127,40
0,42,32,33
0,54,32,0
0,38,96,3
0,42,80,0
0,54,48,0
0,49,126,2
0,61,106,0
0,68,116,3
0,42,48,3
0,54,32,0
0,48,96,2
0,35,48,28
0,42,80,0
0,54,48,0
0,56,40,2
0,49,66,0
0,56,78,3
0,42,32,13
0,54,32,0
0,48,100,2
0,35,107,45
0,42,80,0
0,54,48,0
0,44,35,2
0,44,116,0
0,63,98,3
0,68,90,0
0,56,81,2
0,90,127,0
0,42,48,70
0,54,32,0
0,42,80,10
0,54,48,0
0,89,127,32
0,35,48,70
0,42,32,0
0,54,32,0
0,63,106,2
0,68,72,0
0,38,96,53
0,42,80,0
0,54,48,0
0,42,48,33
0,54,32,0
0,35,107,38
0,42,80,0
0,54,48,0
0,56,90,2
0,63,84,0
0,44,106,3
0,63,116,0
0,68,106,0
0,87,127,2
0,42,32,65
0,54,32,0
0,63,84,2
0,68,98,0
0,42,80,30
0,54,48,0
0,44,82,2
0,56,67,0
0,60,122,3
0,42,48,55
0,54,32,0
0,63,98,2
0,68,78,0
0,85,127,67
0,35,80,3
0,42,80,0
0,54,48,0
0,44,66,2
0,39,78,0
0,56,77,3
0,42,32,0
0,54,32,0
0,38,96,8
0,42,80,0
0,54,48,0
0,56,56,2
0,44,106,0
0,63,116,3
0,68,116,0
0,61,98,2
0,42,48,33
0,54,32,0
0,35,48,3
0,42,80,0
0,54,48,0
0,44,84,2
0,32,98,0
0,63,116,3
0,56,84,0
0,42,32,20
0,54,32,0
0,35,107,3
0,42,80,0
0,54,48,0
0,48,100,2
0,63,90,0
0,67,80,3
0,36,96,0
0,60,80,0
0,63,98,2
0,67,88,0
0,79,127,18
0,84,127,2
0,42,48,3
0,54,32,0
0,42,80,70
0,54,48,0
0,63,106,2
0,35,48,13
0,42,32,0
0,54,32,0
0,63,90,2
0,67,75,0
0,38,96,50
0,42,80,0
0,54,48,0
0,42,48,18
0,54,32,0
0,60,62,2
0,35,107,70
0,42,80,0
0,54,48,0
0,63,56,2
0,36,116,0
0,63,116,3
0,66,68,0
0,67,92,0
0,63,116,2
0,87,127,3
0,42,32,3
0,54,32,0
0,63,116,2
0,67,66,0
0,42,80,25
0,54,48,0
0,60,70,2
0,42,48,53
0,54,32,0
0,63,106,2
0,67,88,0
0,35,80,60
0,42,80,0
0,54,48,0
0,63,54,2
0,60,70,0
0,63,116,3
0,42,32,70
0,54,32,0
0,38,96,23
0,42,80,0
0,54,48,0
0,43,126,2
0,63,116,0
0,67,88,3
0,42,48,40
0,54,32,0
0,35,48,70
0,42,80,0
0,54,48,0
0,63,49,2
0,60,72,3
0,63,126,0
0,42,32,28
0,54,32,0
0,35,107,50
0,42,80,0
0,54,48,0
0,48,50,2
0,36,110,0
0,60,69,3
0,63,98,0
0,67,92,0
0,42,48,70
0,54,32,0
0,42,80,8
0,54,48,0
0,63,106,2
0,35,48,70
0,42,32,0
0,54,32,0
0,63,83,2
0,67,70,0
0,38,96,40
0,42,80,0
0,54,48,0
0,60,74,2
0,42,48,15
0,54,32,0
0,35,107,63
0,42,80,0
0,54,48,0
0,63,78,2
0,67,60,0
0,36,122,3
0,63,90,0
0,67,100,0
0,63,116,2
0,42,32,55
0,54,32,0
0,63,84,2
0,67,73,0
0,42,80,23
0,54,48,0
0,60,72,2
0,42,48,28
0,54,32,0
0,63,98,2
0,67,84,0
0,35,80,50
0,42,80,0
0,54,48,0
0,48,88,2
0,60,79,0
0,65,106,3
0,42,32,60
0,54,32,0
0,38,96,70
0,42,80,0
0,54,48,0
0,43,116,2
0,63,126,0
0,67,92,3
0,42,48,45
0,54,32,0
0,63,116,2
0,35,48,8
0,42,80,0
0,54,48,0
0,48,84,2
0,36,88,0
0,60,74,3
0,42,32,70
0,54,32,0
0,35,107,8
0,42,80,0
0,54,48,0
0,41,58,2
0,60,60,0
0,70,59,0
0,41,122,3
0,53,100,0
0,65,100,2
0,70,98,0
0,61,106,3
0,89,127,0
0,82,125,2
0,42,48,0
0,54,32,0
0,42,80,20
0,54,48,0
0,87,127,0
0,35,48,70
0,42,32,0
0,54,32,0
0,65,62,2
0,70,78,0
0,38,96,23
0,42,80,0
0,54,48,0
0,41,56,2
0,53,74,0
0,60,96,3
0,42,48,33
0,54,32,0
0,35,107,38
0,42,80,0
0,54,48,0
0,65,56,2
0,69,66,0
0,41,116,3
0,65,100,0
0,69,96,0
0,85,127,5
0,42,32,0
0,54,32,0
0,65,69,2
0,69,67,0
0,42,80,28
0,54,48,0
0,53,71,2
0,42,48,8
0,54,32,0
0,65,106,2
0,69,100,0
0,35,80,18
0,42,80,0
0,54,48,0
0,53,80,2
0,41,66,0
0,84,127,8
0,42,32,70
0,54,32,0
0,38,96,45
0,42,80,0
0,54,48,0
0,46,126,2
0,65,116,3
0,69,106,0
0,42,48,8
0,54,32,0
0,45,100,2
0,35,48,23
0,42,80,0
0,54,48,0
0,60,62,2
0,46,84,0
0,53,62,3
0,42,32,20
0,54,32,0
0,45,88,2
0,89,127,22
0,35,107,18
0,42,80,0
0,54,48,0
0,65,70,2
0,70,52,0
0,41,110,3
0,65,96,0
0,53,80,2
0,70,116,0
0,81,111,17
0,42,48,3
0,54,32,0
0,42,80,70
0,54,48,0
0,87,127,5
0,35,48,70
0,42,32,0
0,54,32,0
0,65,74,2
0,70,90,0
0,38,96,40
0,42,80,0
0,54,48,0
0,41,52,2
0,53,70,0
0,42,48,23
0,54,32,0
0,35,107,0
0,42,80,0
0,54,48,0
0,65,41,2
0,69,78,0
0,41,116,3
0,65,106,0
0,69,96,0
0,85,127,7
0,42,32,0
0,54,32,0
0,65,68,2
0,69,96,0
0,42,80,23
0,54,48,0
0,53,74,2
0,58,126,3
0,42,48,40
0,54,32,0
0,65,100,2
0,69,110,0
0,35,80,45
0,42,80,0
0,54,48,0
0,41,48,2
0,53,83,0
0,84,127,17
0,42,32,33
0,54,32,0
0,38,96,40
0,42,80,0
0,54,48,0
0,36,100,2
0,65,106,0
0,53,75,3
0,69,110,0
0,60,106,2
0,42,48,40
0,54,32,0
0,35,48,20
0,42,80,0
0,54,48,0
0,41,46,2
0,41,116,0
0,61,116,3
0,53,70,0
0,42,32,3
0,54,32,0
0,85,127,10
0,35,107,13
0,42,80,0
0,54,48,0
0,46,106,2
0,65,88,0
0,46,116,3
0,58,78,0
0,65,80,0
0,68,75,2
0,55,45,0
0,82,127,3
0,77,127,2
0,42,48,13
0,54,32,0
0,42,80,70
0,54,48,0
0,35,48,70
0,42,32,0
0,54,32,0
0,61,78,2
0,65,80,0
0,61,93,3
0,38,96,8
0,42,80,0
0,54,48,0
0,58,88,2
0,42,48,70
0,54,32,0
0,35,107,70
0,42,80,0
0,54,48,0
0,61,60,2
0,41,106,0
0,61,106,3
0,65,106,0
0,42,32,45
0,54,32,0
0,61,78,2
0,65,96,0
0,42,80,40
0,54,48,0
0,58,65,2
0,42,48,33
0,54,32,0
0,61,90,2
0,65,66,0
0,35,80,55
0,42,80,0
0,54,48,0
0,46,48,2
0,37,116,0
0,58,72,3
0,42,32,58
0,54,32,0
0,38,96,28
0,42,80,0
0,54,48,0
0,61,116,2
0,65,106,0
0,42,48,55
0,54,32,0
0,35,48,70
0,42,80,0
0,54,48,0
0,58,56,2
0,36,100,0
0,58,71,3
0,42,32,3
0,54,32,0
0,35,107,28
0,42,80,0
0,54,48,0
0,34,106,2
0,58,72,0
0,61,90,3
0,65,84,0
0,80,127,20
0,42,48,28
0,54,32,0
0,42,80,3
0,54,48,0
0,35,48,18
0,42,32,0
0,54,32,0
0,61,98,2
0,65,78,0
0,38,96,65
0,42,80,0
0,54,48,0
0,58,74,2
0,42,48,5
0,54,32,0
0,35,107,55
0,42,80,0
0,54,48,0
0,61,66,2
0,34,116,0
0,61,90,3
0,65,96,0
0,63,126,0
0,42,32,68
0,54,32,0
0,61,78,2
0,65,62,3
0,42,80,3
0,54,48,0
0,58,60,2
0,42,48,63
0,54,32,0
0,61,90,2
0,65,68,0
0,35,80,60
0,42,80,0
0,54,48,0
0,61,90,2
0,65,68,0
0,34,116,3
0,58,60,0
0,42,32,0
0,54,32,0
0,38,96,70
0,42,80,0
0,54,48,0
0,46,84,2
0,46,116,0
0,61,126,3
0,65,116,0
0,61,126,2
0,42,48,30
0,54,32,0
0,35,48,8
0,42,80,0
0,54,48,0
0,34,98,2
0,58,98,0
0,60,122,3
0,42,32,70
0,54,32,0
0,67,96,0
0,35,107,10
0,42,80,0
0,54,48,0
0,51,84,2
0,58,98,0
0,63,98,3
0,39,106,0
0,51,84,2
0,63,106,0
0,67,92,0
0,82,127,30
0,87,127,5
0,79,127,2
0,42,48,40
0,54,32,0
0,42,80,70
0,54,48,0
0,35,48,70
0,42,32,0
0,54,32,0
0,63,98,2
0,67,96,0
0,38,96,28
0,42,80,0
0,54,48,0
0,58,116,2
0,42,48,50
0,54,32,0
0,35,107,70
0,42,80,0
0,54,48,0
0,58,56,2
0,51,98,0
0,63,90,3
0,67,96,0
0,42,32,43
0,54,32,0
0,63,126,2
0,67,92,0
0,42,80,10
0,54,48,0
0,39,86,2
0,42,48,60
0,54,32,0
0,63,106,2
0,67,92,0
0,35,80,28
0,42,80,0
0,54,48,0
0,51,48,2
0,49,90,0
0,51,61,3
0,42,32,50
0,54,32,0
0,38,96,38
0,42,80,0
0,54,48,0
0,39,90,2
0,63,126,0
0,67,110,3
0,42,48,40
0,54,32,0
0,46,90,2
0,35,48,23
0,42,80,0
0,54,48,0
0,43,110,2
0,51,84,0
0,42,32,70
0,54,32,0
0,35,107,0
0,42,80,0
0,54,48,0
0,39,106,2
0,63,106,0
0,67,88,3
