track,note,velocity,time
0,38,90,756
0,38,90,181
0,38,90,180
0,38,90,180
0,38,90,178
0,35,127,34
0,35,105,80
0,38,110,4
0,38,110,87
0,38,100,20
0,35,95,99
0,24,101,80
0,72,79,0
0,54,76,0
0,35,127,1
0,64,86,1
0,64,111,0
0,60,86,1
0,55,85,0
0,60,111,0
0,55,111,0
0,49,64,1
0,72,83,77
0,42,72,2
0,54,70,68
0,72,78,1
0,42,80,2
0,72,77,78
0,72,79,0
0,54,75,0
0,42,94,1
0,72,76,10
0,42,86,34
0,72,79,2
0,54,71,0
0,35,95,70
0,72,78,11
0,42,95,7
0,72,79,3
0,35,127,0
0,54,86,2
0,72,78,79
0,58,111,54
0,72,83,0
0,54,72,0
0,42,86,0
0,35,127,1
0,72,82,80
0,58,111,57
0,54,70,6
0,72,76,1
0,42,95,2
0,60,111,10
0,72,84,30
0,54,75,19
0,72,77,4
0,55,85,2
0,58,85,0
0,35,95,0
0,42,82,0
0,55,103,0
0,58,116,0
0,63,85,1
0,63,109,0
0,60,109,53
0,54,93,20
0,72,75,5
0,54,68,3
0,42,98,1
0,72,79,1
0,35,127,1
0,42,60,75
0,72,83,2
0,42,79,0
0,54,67,1
0,72,78,1
0,72,77,6
0,42,98,2
0,72,79,3
0,54,76,1
0,72,76,3
0,42,90,0
0,54,69,1
0,72,79,1
0,35,95,4
0,72,78,1
0,42,91,8
0,72,79,2
0,35,123,0
0,54,68,1
0,72,78,1
0,42,80,0
0,72,83,1
0,35,127,1
0,54,88,2
0,72,82,3
0,72,76,3
0,42,94,1
0,54,68,1
0,72,84,5
0,54,75,3
0,46,105,3
0,72,77,0
0,35,95,2
0,54,68,2
0,72,75,1
0,57,86,2
0,60,85,0
0,65,85,0
0,57,108,0
0,60,113,0
0,65,111,0
0,72,79,2
0,54,72,0
0,35,127,1
0,42,109,3
0,72,83,17
0,42,72,2
0,54,90,2
0,72,78,1
0,42,80,2
0,72,77,0
0,72,79,52
0,54,68,0
0,42,94,1
0,72,76,79
0,42,86,68
0,72,79,2
0,54,75,0
0,35,95,70
0,72,78,11
0,42,95,7
0,72,79,3
0,35,127,0
0,54,67,2
0,72,78,79
0,72,83,54
0,54,78,0
0,42,86,0
0,35,127,1
0,72,82,80
0,54,69,63
0,72,76,1
0,42,95,2
0,72,84,24
0,54,68,65
0,72,77,4
0,35,95,2
0,42,82,0
0,54,72,3
0,72,75,5
0,54,67,3
0,42,98,1
0,72,79,1
0,35,127,1
0,55,86,2
0,55,106,0
0,60,86,1
0,64,86,0
0,60,117,0
0,64,101,0
0,42,60,75
0,72,83,2
0,42,79,0
0,54,74,2
0,72,78,1
0,72,77,82
0,42,98,67
0,72,79,3
0,54,67,1
0,72,76,79
0,42,90,55
0,54,67,1
0,72,79,1
0,35,95,71
0,72,78,11
0,42,91,8
0,72,79,2
0,35,123,0
0,54,82,1
0,58,109,7
0,72,78,28
0,57,111,65
0,42,80,0
0,72,83,1
0,35,127,1
0,54,84,2
0,72,82,44
0,55,109,43
0,72,76,19
0,42,94,1
0,54,80,1
0,53,108,4
0,72,84,23
0,54,68,65
0,46,105,3
0,50,109,1
0,72,77,0
0,35,95,2
0,51,110,34
0,54,68,10
0,72,75,0
0,24,103,6
0,72,79,0
0,54,80,0
0,35,127,1
0,55,85,1
0,55,99,0
0,64,86,1
0,60,85,0
0,64,100,0
0,60,108,0
0,49,64,1
0,52,112,1
0,72,83,0
0,60,111,2
0,42,72,0
0,54,67,68
0,72,78,1
0,42,80,2
0,72,77,78
0,72,79,63
0,54,68,0
0,42,94,1
0,72,76,4
0,42,86,1
0,72,79,2
0,54,77,0
0,35,95,5
0,72,78,2
0,42,95,4
0,72,79,0
0,35,127,0
0,54,68,2
0,72,78,4
0,72,83,25
0,54,80,0
0,42,86,0
0,35,127,1
0,72,82,6
0,54,78,7
0,72,76,1
0,42,95,1
0,72,84,14
0,54,67,6
0,72,77,3
0,35,95,2
0,42,82,0
0,55,86,1
0,58,86,0
0,55,101,0
0,58,113,0
0,63,85,0
0,63,111,0
0,54,71,1
0,72,75,5
0,54,67,3
0,42,98,1
0,72,79,1
0,35,127,1
0,42,60,4
0,72,83,2
0,42,79,0
0,54,67,0
0,72,78,1
0,72,77,5
0,42,98,40
0,72,79,3
0,54,79,1
0,72,76,16
0,42,90,6
0,54,71,0
0,72,79,1
0,35,95,1
0,72,78,5
0,42,91,8
0,72,79,2
0,35,123,0
0,54,67,1
0,72,78,80
0,42,80,65
0,72,83,1
0,35,127,1
0,54,78,2
0,72,82,78
0,72,76,62
0,42,94,1
0,54,70,1
0,72,84,79
0,63,110,51
0,60,110,2
0,54,78,12
0,46,105,3
0,72,77,1
0,35,95,2
0,65,110,26
0,54,75,6
0,72,75,6
0,60,86,64
0,60,104,0
0,57,86,2
0,65,85,0
0,57,106,0
0,65,104,0
0,72,79,4
0,54,82,0
0,35,127,1
0,42,109,3
0,72,83,74
0,42,72,2
0,54,74,68
0,72,78,1
0,42,80,2
0,72,77,78
0,72,79,63
0,54,67,0
0,42,94,1
0,72,76,77
0,42,86,68
0,72,79,2
0,54,70,0
0,35,95,0
0,72,78,4
0,42,95,7
0,72,79,3
0,35,127,0
0,54,80,2
0,72,78,52
0,72,83,8
0,54,72,0
0,42,86,0
0,35,127,0
0,72,82,5
0,54,81,5
0,72,76,1
0,42,95,1
0,72,84,3
0,54,71,4
0,72,77,1
0,35,95,2
0,42,82,0
0,54,81,12
0,72,75,5
0,54,68,3
0,55,85,1
0,64,85,0
0,42,98,0
0,55,108,0
0,64,103,0
0,36,104,0
0,60,85,0
0,72,79,0
0,60,115,0
0,35,127,1
0,42,60,4
0,72,83,2
0,42,79,0
0,54,80,2
0,72,78,1
0,72,77,39
0,42,98,67
0,72,79,3
0,54,92,1
0,72,76,79
0,42,90,55
0,54,74,1
0,72,79,1
0,35,95,71
0,72,78,11
0,72,109,51
0,42,91,8
0,72,79,0
0,35,123,0
0,54,82,1
0,70,111,12
0,67,109,50
0,72,78,11
0,66,109,19
0,42,80,20
0,72,83,1
0,38,107,1
0,54,72,0
0,65,112,4
0,63,112,5
0,72,82,3
0,60,109,0
0,72,76,0
0,42,94,1
0,54,75,1
0,38,104,1
0,58,111,1
0,55,108,1
0,72,84,4
0,54,109,4
0,54,75,1
0,46,105,1
0,72,77,1
0,38,103,1
0,53,108,12
0,51,112,9
0,54,86,2
0,38,107,5
0,72,75,1
0,24,101,6
0,60,104,0
0,72,79,0
0,54,67,0
0,48,112,1
0,35,127,0
0,64,86,1
0,64,111,0
0,60,86,1
0,55,85,0
0,60,111,0
0,55,111,0
0,49,64,1
0,72,83,77
0,42,72,2
0,54,101,68
0,72,78,1
0,42,80,2
0,45,92,2
0,47,90,0
0,43,92,21
0,72,77,15
0,41,93,8
0,40,89,5
0,38,90,13
0,72,79,3
0,54,80,0
0,38,114,1
0,42,94,0
0,36,91,3
0,35,91,4
0,33,93,11
0,31,89,9
0,29,93,14
0,28,91,4
0,72,76,1
0,26,92,6
0,24,93,2
0,42,86,34
0,58,66,2
0,72,79,0
0,54,76,0
0,35,95,30
0,36,101,5
0,58,66,5
0,72,78,1
0,42,95,2
0,72,79,3
0,35,127,0
0,54,79,2
0,36,101,73
0,58,82,5
0,72,78,1
0,24,101,10
0,58,82,0
0,72,83,0
0,54,83,0
0,42,86,0
0,35,127,1
0,72,82,80
0,67,102,62
0,54,79,1
0,58,84,1
0,72,76,0
0,38,110,1
0,42,95,1
0,60,85,29
0,72,84,1
0,54,67,65
0,72,77,4
0,55,86,2
0,58,86,0
0,35,95,0
0,42,82,0
0,55,103,0
0,58,116,0
0,63,86,1
0,63,109,0
0,63,103,20
0,54,67,3
0,72,75,1
0,54,74,3
0,42,98,1
0,24,101,1
0,72,79,0
0,35,127,1
0,42,60,22
0,72,83,2
0,58,69,2
0,42,79,0
0,54,67,2
0,72,78,1
0,58,69,1
0,58,69,82
0,72,77,0
0,42,98,42
0,58,69,3
0,72,79,0
0,54,84,1
0,38,112,0
0,72,76,79
0,42,90,55
0,54,83,1
0,58,77,1
0,72,79,0
0,35,95,71
0,36,103,5
0,58,81,5
0,72,78,1
0,42,91,8
0,72,79,2
0,35,123,0
0,54,72,1
0,36,101,76
0,58,64,3
0,72,78,1
0,42,80,22
0,58,82,1
0,72,83,0
0,35,127,1
0,36,103,1
0,54,93,1
0,72,82,73
0,36,103,1
0,58,80,0
0,72,76,0
0,38,114,1
0,42,94,0
0,54,71,1
0,70,104,4
0,60,85,10
0,72,84,1
0,54,69,2
0,24,101,2
0,46,105,1
0,72,77,0
0,35,95,2
0,54,77,1
0,72,75,0
0,57,85,2
0,60,86,0
0,65,86,0
0,57,108,0
0,60,113,0
0,65,111,0
0,24,103,4
0,72,79,0
0,54,73,0
0,35,127,1
0,42,109,3
0,69,102,7
0,72,83,74
0,58,72,2
0,42,72,0
0,54,70,28
0,72,78,1
0,58,72,1
0,42,80,2
0,58,82,78
0,72,77,0
0,58,82,30
0,72,79,0
0,54,68,0
0,42,94,1
0,38,112,1
0,72,76,79
0,42,86,68
0,58,82,2
0,72,79,0
0,54,87,0
0,24,101,2
0,35,95,70
0,58,86,10
0,72,78,1
0,42,95,7
0,36,104,3
0,72,79,0
0,35,127,0
0,54,80,2
0,36,101,78
0,58,82,0
0,72,78,1
0,24,101,20
0,58,82,0
0,72,83,0
0,54,93,0
0,42,86,0
0,35,127,1
0,72,82,80
0,54,71,63
0,58,84,1
0,72,76,0
0,38,114,2
0,42,95,0
0,60,88,10
0,72,84,1
0,54,85,65
0,72,77,4
0,35,95,2
0,42,82,0
0,54,88,1
0,24,104,5
0,72,75,0
0,67,104,5
0,54,81,3
0,42,98,1
0,24,104,1
0,72,79,0
0,35,127,1
0,55,85,1
0,55,106,0
0,60,86,1
0,64,86,0
0,60,117,0
0,64,101,0
0,42,60,75
0,72,83,2
0,58,70,2
0,42,79,0
0,54,77,2
0,72,78,1
0,58,70,1
0,58,70,82
0,72,77,0
0,42,98,52
0,58,70,3
0,72,79,0
0,54,71,1
0,38,114,2
0,72,76,79
0,42,90,55
0,54,71,1
0,58,82,1
0,72,79,0
0,35,95,71
0,24,103,9
0,58,82,1
0,72,78,1
0,42,91,8
0,36,103,2
0,72,79,0
0,35,123,0
0,54,70,1
0,36,101,78
0,58,82,1
0,72,78,1
0,42,80,35
0,33,101,1
0,58,82,0
0,72,83,0
0,35,127,1
0,54,100,0
0,72,82,78
0,34,104,62
0,72,76,0
0,42,94,1
0,54,67,1
0,38,110,1
0,62,81,7
0,72,84,1
0,54,84,1
0,46,105,1
0,35,101,1
0,72,77,0
0,35,95,2
0,54,83,3
0,72,75,0
0,60,104,1
0,72,79,0
0,54,74,0
0,35,127,1
0,55,86,1
0,55,99,0
0,24,101,1
0,64,85,0
0,60,86,0
0,64,100,0
0,60,108,0
0,49,64,1
0,72,83,77
0,58,70,2
0,42,72,0
0,54,85,28
0,72,78,1
0,58,70,1
0,42,80,2
0,58,70,78
0,72,77,0
0,58,70,30
0,72,79,0
0,54,69,0
0,42,94,1
0,38,110,2
0,72,76,79
0,42,86,34
0,58,77,2
0,72,79,0
0,54,70,0
0,35,95,44
0,36,101,9
0,58,81,1
0,72,78,1
0,42,95,7
0,72,79,3
0,35,127,0
0,54,75,2
0,36,104,75
0,58,82,3
0,72,78,1
0,24,104,21
0,58,82,2
0,72,83,0
0,54,87,0
0,42,86,0
0,35,127,1
0,72,82,80
0,67,102,62
0,54,79,1
0,58,80,1
0,72,76,0
0,38,112,2
0,42,95,0
0,60,85,10
0,72,84,1
0,54,81,6
0,72,77,3
0,35,95,2
0,42,82,0
0,55,86,1
0,58,86,0
0,55,101,0
0,58,113,0
0,63,86,1
0,63,111,0
0,63,102,3
0,54,81,0
0,72,75,5
0,54,78,3
0,42,98,1
0,72,79,0
0,35,127,1
0,24,101,2
0,42,60,75
0,72,83,2
0,58,72,2
0,42,79,0
0,54,80,2
0,72,78,1
0,58,74,1
0,58,82,82
0,72,77,0
0,42,98,27
0,58,82,3
0,72,79,0
0,54,82,1
0,38,112,9
0,72,76,79
0,42,90,55
0,54,70,1
0,58,82,1
0,72,79,0
0,35,95,44
0,36,103,9
0,58,86,1
0,72,78,1
0,42,91,8
0,72,79,2
0,35,123,0
0,54,69,1
0,36,101,76
0,58,82,3
0,72,78,1
0,24,101,21
0,42,80,1
0,58,82,1
0,72,83,0
0,35,127,1
0,54,71,2
0,72,82,78
0,58,84,1
0,72,76,0
0,42,94,1
0,54,90,1
0,38,112,0
0,70,104,4
0,60,88,10
0,72,84,1
0,54,80,0
0,46,105,3
0,72,77,1
0,35,95,2
0,54,70,3
0,72,75,2
0,60,86,4
0,60,104,0
0,57,85,1
0,65,86,0
0,57,106,0
0,65,104,0
0,72,79,1
0,54,82,0
0,35,127,1
0,24,101,2
0,42,109,1
0,69,103,5
0,72,83,74
0,58,71,2
0,42,72,0
0,54,67,28
0,72,78,1
0,58,71,1
0,42,80,2
0,58,82,78
0,72,77,0
0,58,82,30
0,72,79,0
0,54,75,0
0,42,94,1
0,38,112,6
0,72,76,79
0,42,86,68
0,58,82,2
0,72,79,0
0,54,68,0
0,35,95,44
0,36,101,9
0,58,86,1
0,72,78,1
0,42,95,7
0,72,79,3
0,35,127,0
0,54,74,2
0,36,103,75
0,58,82,3
0,72,78,1
0,24,101,21
0,58,82,2
0,72,83,0
0,54,78,0
0,42,86,0
0,35,127,1
0,72,82,80
0,38,112,61
0,54,86,2
0,58,84,1
0,72,76,0
0,42,95,2
0,60,88,10
0,72,84,1
0,54,89,65
0,72,77,4
0,35,95,2
0,42,82,0
0,54,71,0
0,72,75,5
0,67,104,3
0,54,83,3
0,55,85,1
0,64,86,0
0,42,98,0
0,55,108,0
0,64,103,0
0,60,85,0
0,72,79,0
0,60,115,0
0,35,127,1
0,24,104,2
0,42,60,6
0,72,83,2
0,58,78,2
0,42,79,0
0,54,80,2
0,72,78,1
0,58,76,1
0,58,76,82
0,72,77,0
0,42,98,27
0,58,76,3
0,72,79,0
0,54,79,1
0,38,112,4
0,72,76,23
0,42,90,55
0,54,78,1
0,58,82,1
0,72,79,0
0,35,95,44
0,36,104,9
0,58,82,1
0,72,78,1
0,42,91,8
0,72,79,0
0,35,123,0
0,54,79,1
0,36,101,7
0,58,82,3
0,72,78,1
0,55,104,4
0,24,101,17
0,42,80,1
0,58,82,1
0,72,83,0
0,35,127,1
0,54,74,2
0,72,82,78
0,55,102,7
0,62,77,1
0,42,94,1
0,54,75,1
0,38,114,2
0,60,102,4
0,24,103,81
0,54,87,0
0,35,127,1
0,49,64,3
0,48,73,13
0,42,72,17
0,54,75,36
0,24,101,1
0,42,80,2
0,60,102,15
0,48,70,38
0,54,68,0
0,42,94,1
0,38,110,2
0,48,71,26
0,42,86,34
0,60,109,0
0,54,76,0
0,48,62,40
0,35,95,30
0,36,104,9
0,42,95,7
0,35,127,0
0,54,78,2
0,48,63,38
0,36,101,35
0,24,103,23
0,54,83,0
0,42,86,0
0,35,127,1
0,60,104,1
0,48,69,18
0,54,82,62
0,38,112,2
0,42,95,0
0,60,100,11
0,48,70,38
0,57,102,104
0,54,67,7
0,60,109,0
0,35,95,2
0,42,82,0
0,58,100,11
0,48,77,2
0,24,103,14
0,54,83,1
0,54,97,3
0,42,98,1
0,24,104,1
0,35,127,1
0,48,73,17
0,58,104,21
0,42,60,2
0,42,79,0
0,54,74,2
0,48,73,42
0,42,98,7
0,54,67,1
0,38,112,9
0,48,76,39
0,42,90,118
0,54,84,1
0,58,109,0
0,48,66,41
0,35,95,30
0,36,101,10
0,42,91,8
0,35,123,0
0,54,90,1
0,48,66,39
0,36,103,11
0,42,80,20
0,24,101,1
0,35,127,1
0,54,70,2
0,48,59,37
0,42,94,1
0,54,90,1
0,38,112,0
0,48,72,38
0,57,101,3
0,54,75,4
0,46,105,3
0,58,109,0
0,35,95,2
0,48,81,19
