track,note,velocity,time
1,67,100,19008
1,69,100,32
1,71,100,32
1,67,100,128
1,69,100,32
1,71,100,32
1,70,100,448
1,70,100,32
1,70,100,32
1,69,100,1120
1,71,100,32
1,72,100,32
1,71,100,32
1,69,100,96
1,71,100,32
1,72,100,32
1,71,100,32
1,69,100,64
1,69,100,32
1,68,100,32
1,68,100,64
1,68,100,32
1,67,100,1216
1,69,100,32
1,67,100,32
1,69,100,32
1,67,100,32
1,69,100,32
1,67,100,32
1,69,100,32
1,67,100,32
1,70,100,32
1,67,100,32
1,69,100,32
1,67,100,32
1,66,100,32
1,66,100,32
1,66,100,32
1,66,100,32
1,65,100,1216
1,67,100,32
1,69,100,32
1,67,100,32
1,65,100,96
1,67,100,32
1,69,100,32
1,67,100,32
1,65,100,64
1,64,100,64
1,64,100,64
1,64,100,32
1,64,100,544
1,64,100,32
1,64,100,32
1,62,100,544
1,64,100,32
1,62,100,32
1,64,100,32
1,62,100,32
1,62,100,864
1,62,100,32
1,64,100,32
1,62,100,32
1,64,100,32
1,62,100,32
1,62,100,864
1,62,100,32
1,64,100,32
1,62,100,32
1,64,100,32
1,62,100,32
1,62,100,960
1,64,100,32
1,65,100,32
1,64,100,32
1,62,100,32
1,67,100,9792
1,67,100,4
1,69,100,32
1,71,100,32
1,71,100,32
1,71,100,32
1,71,100,32
1,71,100,32
1,71,100,32
1,71,100,32
1,71,100,32
1,71,100,32
1,71,100,32
1,71,100,32
1,70,100,64
1,70,100,32
1,70,100,32
1,70,100,32
1,70,100,32
1,69,100,1184
1,71,100,32
1,72,100,32
1,71,100,32
1,69,100,64
1,69,100,32
1,71,100,32
1,72,100,32
1,71,100,32
1,69,100,64
1,68,100,64
1,68,100,32
1,68,100,32
1,68,100,32
1,68,100,32
1,68,100,32
1,68,100,32
1,67,100,480
1,69,100,32
1,67,100,32
1,69,100,32
1,67,100,32
1,69,100,32
1,67,100,32
1,67,100,32
1,69,100,32
1,67,100,64
1,70,100,32
1,67,100,64
1,67,100,96
1,66,100,32
1,66,100,32
1,66,100,32
1,66,100,32
1,65,100,1216
1,67,100,32
1,69,100,32
1,67,100,32
1,65,100,32
1,67,100,32
1,69,100,32
1,67,100,32
1,65,100,32
1,67,100,32
1,69,100,32
1,67,100,32
1,65,100,32
1,64,100,32
1,64,100,32
1,64,100,32
1,64,100,32
1,64,100,448
1,64,100,32
1,64,100,32
1,62,100,480
1,64,100,32
1,62,100,32
1,65,100,32
1,62,100,64
1,62,100,864
1,64,100,32
1,62,100,32
1,65,100,32
1,62,100,64
1,62,100,480
1,64,100,32
1,65,100,32
1,64,100,32
1,62,100,64
1,65,100,32
1,65,100,64
1,64,100,32
1,62,100,64
1,64,100,32
1,62,100,32
1,62,100,480
1,64,100,32
1,62,100,32
1,65,100,32
1,62,100,64
1,67,100,14400
1,69,100,4
1,71,100,4
1,67,100,160
1,69,100,32
1,71,100,32
1,71,100,32
1,71,100,0
1,70,100,192
1,70,100,32
1,70,100,32
1,70,100,96
1,70,100,32
1,69,100,832
1,71,100,32
1,72,100,32
1,71,100,32
1,69,100,96
1,71,100,32
1,72,100,32
1,71,100,32
1,69,100,96
1,68,100,32
1,68,100,32
1,68,100,32
1,67,100,1248
1,69,100,32
1,67,100,64
1,70,100,32
1,67,100,64
1,67,100,32
1,67,100,32
1,69,100,32
1,67,100,64
1,66,100,64
1,66,100,64
1,66,100,32
1,66,100,0
1,65,100,1248
1,67,100,32
1,69,100,32
1,67,100,32
1,65,100,64
1,67,100,32
1,69,100,32
1,67,100,32
1,65,100,64
1,64,100,64
1,64,100,32
1,64,100,32
1,64,100,32
1,64,100,32
1,64,100,32
1,64,100,32
1,64,100,32
1,65,100,928
1,65,100,32
1,65,100,32
1,65,100,32
1,62,100,64
1,65,100,864
1,65,100,32
1,65,100,32
1,65,100,32
1,62,100,64
1,65,100,480
1,62,100,32
1,57,100,708
1,62,100,0
2,62,100,0
2,67,100,4
2,71,100,4
2,62,100,4
2,67,100,4
2,71,100,4
2,62,100,4
2,71,100,4
2,62,100,4
2,67,100,4
2,71,100,4
2,62,100,4
2,67,100,4
2,71,100,4
2,62,100,4
2,71,100,4
2,62,100,4
2,66,100,4
2,70,100,4
2,62,100,4
2,66,100,4
2,70,100,4
2,62,100,4
2,70,100,4
2,62,100,4
2,66,100,4
2,70,100,4
2,62,100,4
2,66,100,4
2,70,100,4
2,62,100,4
2,70,100,4
2,62,100,4
2,65,100,4
2,69,100,4
2,62,100,4
2,65,100,4
2,69,100,4
2,62,100,4
2,69,100,4
2,62,100,4
2,65,100,4
2,69,100,4
2,62,100,4
2,65,100,4
2,69,100,4
2,62,100,4
2,69,100,4
2,62,100,4
2,64,100,4
2,68,100,4
2,62,100,4
2,64,100,4
2,68,100,4
2,62,100,4
2,68,100,4
2,62,100,4
2,64,100,4
2,68,100,4
2,62,100,4
2,64,100,4
2,68,100,4
2,62,100,4
2,68,100,4
2,62,100,4
2,63,100,4
2,67,100,4
2,62,100,4
2,63,100,4
2,67,100,4
2,62,100,4
2,67,100,4
2,62,100,4
2,63,100,4
2,67,100,4
2,62,100,4
2,63,100,4
2,67,100,4
2,62,100,4
2,67,100,4
2,62,100,4
2,64,100,4
2,66,100,4
2,62,100,4
2,64,100,4
2,66,100,4
2,62,100,4
2,66,100,4
2,62,100,4
2,64,100,4
2,66,100,4
2,62,100,4
2,64,100,4
2,66,100,4
2,62,100,4
2,66,100,4
2,62,100,4
2,64,100,4
2,65,100,4
2,62,100,4
2,64,100,4
2,65,100,4
2,62,100,4
2,65,100,4
2,62,100,4
2,64,100,4
2,65,100,4
2,62,100,4
2,64,100,4
2,65,100,4
2,62,100,4
2,65,100,4
2,61,100,4
2,62,100,4
2,64,100,4
2,61,100,4
2,62,100,4
2,64,100,4
2,61,100,4
2,64,100,4
2,61,100,4
2,62,100,4
2,64,100,4
2,61,100,4
2,62,100,4
2,64,100,4
2,61,100,4
2,64,100,4
2,58,100,4
2,62,100,4
2,64,100,4
2,58,100,4
2,62,100,4
2,64,100,4
2,58,100,4
2,64,100,4
2,58,100,4
2,62,100,4
2,64,100,4
2,58,100,4
2,62,100,4
2,64,100,4
2,58,100,4
2,64,100,4
2,57,100,4
2,62,100,4
2,62,100,4
2,57,100,4
2,62,100,4
2,62,100,4
2,57,100,4
2,62,100,4
2,57,100,4
2,62,100,4
2,62,100,4
2,57,100,4
2,62,100,4
2,62,100,4
2,57,100,4
2,62,100,4
2,56,100,4
2,62,100,4
2,62,100,4
2,56,100,4
2,62,100,4
2,62,100,4
2,56,100,4
2,62,100,4
2,56,100,4
2,62,100,4
2,62,100,4
2,56,100,4
2,62,100,4
2,62,100,4
2,56,100,4
2,62,100,4
2,57,100,4
2,62,100,4
2,62,100,4
2,57,100,4
2,62,100,4
2,62,100,4
2,57,100,4
2,62,100,4
2,57,100,4
2,62,100,4
2,62,100,4
2,57,100,4
2,62,100,4
2,62,100,4
2,57,100,4
2,62,100,4
2,62,100,4
2,67,100,4
2,71,100,4
2,62,100,4
2,67,100,4
2,71,100,4
2,62,100,4
2,71,100,4
2,62,100,4
2,67,100,4
2,71,100,4
2,62,100,4
2,67,100,4
2,71,100,4
2,62,100,4
2,71,100,4
2,62,100,4
2,66,100,4
2,70,100,4
2,62,100,32
2,66,100,32
2,70,100,32
2,62,100,32
2,70,100,4
2,62,100,4
2,66,100,4
2,70,100,4
2,62,100,4
2,66,100,4
2,70,100,4
2,62,100,4
2,70,100,4
2,62,100,4
2,65,100,4
2,69,100,4
2,62,100,4
2,65,100,4
2,69,100,4
2,62,100,4
2,69,100,4
2,62,100,4
2,65,100,4
2,69,100,4
2,62,100,4
2,65,100,4
2,69,100,4
2,62,100,4
2,69,100,4
2,62,100,4
2,64,100,4
2,68,100,4
2,62,100,4
2,64,100,4
2,68,100,4
2,62,100,4
2,68,100,4
2,62,100,4
2,64,100,4
2,68,100,4
2,62,100,4
2,64,100,4
2,68,100,4
2,62,100,4
2,68,100,4
2,62,100,4
2,63,100,4
2,67,100,4
2,62,100,4
2,63,100,4
2,67,100,4
2,62,100,4
2,67,100,4
2,62,100,4
2,63,100,4
2,67,100,4
2,62,100,4
2,63,100,4
2,67,100,4
2,62,100,4
2,67,100,4
2,62,100,4
2,64,100,4
2,66,100,4
2,62,100,4
2,64,100,4
2,66,100,4
2,62,100,4
2,66,100,4
2,62,100,4
2,64,100,4
2,66,100,4
2,62,100,4
2,64,100,4
2,66,100,4
2,62,100,4
2,66,100,4
2,62,100,4
2,64,100,4
2,65,100,4
2,62,100,4
2,64,100,4
2,65,100,4
2,62,100,4
2,65,100,4
2,62,100,4
2,64,100,4
2,65,100,4
2,62,100,4
2,64,100,4
2,65,100,4
2,62,100,4
2,65,100,4
2,61,100,4
2,62,100,4
2,64,100,4
2,61,100,4
2,62,100,4
2,64,100,4
2,61,100,4
2,64,100,4
2,61,100,4
2,62,100,4
2,64,100,4
2,61,100,4
2,62,100,4
2,64,100,4
2,61,100,4
2,64,100,4
2,58,100,4
2,62,100,4
2,64,100,4
2,58,100,4
2,62,100,4
2,64,100,4
2,58,100,4
2,64,100,4
2,58,100,4
2,62,100,4
2,64,100,4
2,58,100,4
2,62,100,4
2,64,100,4
2,58,100,4
2,64,100,4
2,57,100,4
2,62,100,4
2,62,100,4
2,57,100,4
2,62,100,4
2,62,100,4
2,57,100,4
2,62,100,4
2,57,100,4
2,62,100,4
2,62,100,4
2,57,100,4
2,62,100,4
2,62,100,4
2,57,100,4
2,62,100,4
2,56,100,4
2,62,100,4
2,62,100,4
2,56,100,4
2,62,100,4
2,62,100,4
2,56,100,4
2,62,100,4
2,56,100,4
2,62,100,4
2,62,100,4
2,56,100,4
2,62,100,4
2,62,100,4
2,56,100,4
2,62,100,4
2,57,100,4
2,62,100,4
2,62,100,4
2,57,100,4
2,62,100,4
2,62,100,4
2,57,100,4
2,62,100,4
2,57,100,4
2,62,100,4
2,62,100,4
2,57,100,4
2,62,100,4
2,62,100,4
2,57,100,4
2,62,100,4
2,60,100,4
2,64,100,0
2,59,100,96
2,64,100,0
2,60,100,96
2,64,100,0
2,59,100,96
2,64,100,0
2,60,100,64
2,60,100,32
2,60,100,32
2,59,100,32
2,55,100,32
2,59,100,32
2,57,100,32
2,62,100,64
2,60,100,36
2,64,100,0
2,59,100,96
2,64,100,0
2,60,100,96
2,64,100,0
2,59,100,96
2,64,100,0
2,60,100,64
2,60,100,32
2,60,100,32
2,59,100,32
2,55,100,32
2,59,100,32
2,57,100,32
2,57,100,100
2,59,100,32
2,60,100,32
2,62,100,32
2,64,100,32
2,66,100,32
2,64,100,16
2,60,100,16
2,64,100,32
2,62,100,32
2,57,100,4
2,62,100,4
2,62,100,4
2,57,100,4
2,62,100,4
2,62,100,4
2,57,100,4
2,62,100,4
2,57,100,4
2,62,100,4
2,62,100,4
2,57,100,4
2,57,100,4
2,62,100,0
2,57,100,4
2,62,100,0
2,57,100,4
2,62,100,0
2,57,100,4
2,62,100,0
2,62,100,4
2,67,100,4
2,71,100,4
2,62,100,4
2,67,100,4
2,71,100,4
2,62,100,4
2,71,100,4
2,62,100,4
2,67,100,4
2,71,100,4
2,62,100,4
2,67,100,4
2,71,100,4
2,62,100,4
2,71,100,4
2,62,100,4
2,66,100,4
2,70,100,4
2,62,100,4
2,66,100,4
2,70,100,4
2,62,100,4
2,70,100,4
2,62,100,4
2,66,100,4
2,70,100,4
2,62,100,4
2,66,100,4
2,70,100,4
2,62,100,4
2,70,100,4
2,62,100,4
2,65,100,4
2,69,100,4
2,62,100,4
2,65,100,4
2,69,100,4
2,62,100,4
2,69,100,4
2,62,100,4
2,65,100,4
2,69,100,4
2,62,100,4
2,65,100,4
2,69,100,4
2,62,100,4
2,69,100,4
2,62,100,4
2,64,100,4
2,68,100,4
2,62,100,4
2,64,100,4
2,68,100,4
2,62,100,4
2,68,100,4
2,62,100,4
2,64,100,4
2,68,100,4
2,62,100,4
2,64,100,4
2,68,100,4
2,62,100,4
2,68,100,4
2,62,100,4
2,63,100,4
2,67,100,4
2,62,100,4
2,63,100,4
2,67,100,4
2,62,100,4
2,67,100,4
2,62,100,4
2,63,100,4
2,67,100,4
2,62,100,4
2,63,100,4
2,67,100,4
2,62,100,4
2,67,100,4
2,62,100,4
2,64,100,4
2,66,100,4
2,62,100,4
2,64,100,4
2,66,100,4
2,62,100,4
2,66,100,4
2,62,100,4
2,64,100,4
2,66,100,4
2,62,100,4
2,64,100,4
2,66,100,4
2,62,100,4
2,66,100,4
2,62,100,4
2,64,100,4
2,65,100,4
2,62,100,4
2,64,100,4
2,65,100,4
2,62,100,4
2,65,100,4
2,62,100,4
2,64,100,4
2,65,100,4
2,62,100,4
2,64,100,4
2,65,100,4
2,62,100,4
2,65,100,4
2,61,100,4
2,62,100,4
2,64,100,4
2,61,100,4
2,62,100,4
2,64,100,4
2,61,100,4
2,64,100,4
2,61,100,4
2,62,100,4
2,64,100,4
2,61,100,4
2,62,100,4
2,64,100,4
2,61,100,4
2,64,100,4
2,58,100,4
2,62,100,4
2,64,100,4
2,58,100,4
2,62,100,4
2,64,100,4
2,58,100,4
2,64,100,4
2,58,100,4
2,62,100,4
2,64,100,4
2,58,100,4
2,62,100,4
2,64,100,4
2,58,100,4
2,64,100,4
2,57,100,4
2,62,100,4
2,62,100,4
2,57,100,4
2,62,100,4
2,62,100,4
2,57,100,4
2,62,100,4
2,57,100,4
2,62,100,4
2,62,100,4
2,57,100,4
2,62,100,4
2,62,100,4
2,57,100,4
2,62,100,4
2,56,100,4
2,62,100,4
2,62,100,4
2,56,100,4
2,62,100,4
2,62,100,4
2,56,100,4
2,62,100,4
2,56,100,4
2,62,100,4
2,62,100,4
2,56,100,4
2,62,100,4
2,62,100,4
2,56,100,4
2,62,100,4
2,57,100,4
2,62,100,4
2,62,100,4
2,57,100,4
2,62,100,4
2,62,100,4
2,57,100,4
2,62,100,4
2,57,100,4
2,62,100,4
2,62,100,4
2,57,100,4
2,62,100,4
2,62,100,4
2,57,100,4
2,62,100,4
2,60,100,4
2,64,100,0
2,59,100,96
2,64,100,0
2,60,100,96
2,64,100,0
2,59,100,96
2,64,100,0
2,60,100,64
2,60,100,32
2,60,100,32
2,59,100,32
2,55,100,32
2,59,100,32
2,57,100,32
2,62,100,64
2,60,100,36
2,64,100,0
2,59,100,96
2,64,100,0
2,60,100,96
2,64,100,0
2,59,100,96
2,64,100,0
2,60,100,64
2,60,100,32
2,60,100,32
2,59,100,32
2,55,100,32
2,59,100,32
2,57,100,32
2,57,100,100
2,59,100,32
2,60,100,32
2,62,100,32
2,64,100,32
2,66,100,32
2,64,100,16
2,60,100,16
2,64,100,32
2,62,100,32
2,57,100,4
2,59,100,32
2,60,100,32
2,62,100,32
2,64,100,32
2,66,100,32
2,64,100,16
2,60,100,16
2,64,100,32
2,62,100,32
2,57,100,4
2,62,100,4
2,62,100,4
2,57,100,4
2,62,100,4
2,62,100,4
2,57,100,4
2,62,100,4
2,57,100,4
2,62,100,4
2,62,100,4
2,57,100,4
2,62,100,4
2,62,100,4
2,57,100,4
2,62,100,4
2,57,100,4
2,62,100,4
2,62,100,4
2,57,100,4
2,62,100,4
2,62,100,4
2,57,100,4
2,62,100,4
2,57,100,4
2,62,100,0
2,57,100,4
2,62,100,0
2,57,100,4
2,62,100,0
2,57,100,4
2,62,100,0
2,57,100,4
2,62,100,0
2,57,100,4
2,62,100,0
2,57,100,4
2,62,100,0
2,57,100,4
2,62,100,0
2,62,100,4
2,67,100,4
2,71,100,4
2,62,100,4
2,67,100,4
2,71,100,4
2,62,100,4
2,71,100,4
2,62,100,4
2,67,100,4
2,71,100,4
2,62,100,4
2,67,100,4
2,71,100,4
2,62,100,4
2,71,100,4
2,62,100,4
2,66,100,4
2,70,100,4
2,62,100,4
2,66,100,4
2,70,100,4
2,62,100,4
2,70,100,4
2,62,100,4
2,66,100,4
2,70,100,4
2,62,100,4
