track,note,velocity,time
1,60,97,5696
1,57,97,0
1,65,97,0
1,57,0,1584
1,65,0,4448
1,60,0,0
1,65,97,104
1,58,97,8
1,62,97,0
1,62,0,648
1,58,0,8
1,65,0,8
1,55,97,104
1,64,97,0
1,60,97,0
1,55,0,576
1,64,0,8
1,60,0,24
1,60,97,160
1,57,97,0
1,65,97,0
1,57,0,1584
1,65,0,2920
1,60,0,40
1,60,97,56
1,64,97,8
1,55,97,0
1,55,0,1584
1,64,0,1352
1,60,0,32
1,60,97,104
1,65,97,0
1,57,97,0
1,57,0,1584
1,60,0,1392
1,65,0,16
1,65,97,64
1,62,97,0
1,58,97,0
1,62,0,648
1,58,0,8
1,65,0,0
1,55,97,128
1,60,97,0
1,64,97,0
1,55,0,624
1,64,0,48
1,60,0,0
1,60,97,88
1,57,97,8
1,65,97,0
1,57,0,1584
1,65,0,1344
1,60,0,0
1,63,97,144
1,67,97,0
1,58,97,0
1,63,0,1344
1,67,0,8
1,58,0,16
1,65,97,168
1,62,97,0
1,58,97,0
1,62,0,960
1,65,0,0
1,58,0,8
1,55,97,176
1,64,97,8
1,60,97,0
1,60,0,272
1,64,0,0
1,55,0,0
1,62,97,104
1,65,97,8
1,58,97,0
1,65,0,864
1,62,0,8
1,58,0,8
1,64,97,272
1,60,97,0
1,55,97,0
1,60,0,200
1,55,0,8
1,64,0,0
1,65,97,168
1,62,97,8
1,58,97,0
1,62,0,536
1,65,0,0
1,58,0,8
1,55,97,32
1,60,97,0
1,64,97,0
1,55,0,768
1,64,0,8
1,60,0,56
1,65,97,128
1,60,97,0
1,57,97,0
1,57,0,1408
1,60,0,16
1,65,0,32
1,65,97,80
1,62,97,0
1,58,97,0
1,62,0,640
1,65,0,0
1,58,0,16
1,55,97,112
1,64,97,0
1,60,97,0
1,64,0,664
1,55,0,8
1,60,0,48
1,60,97,48
1,57,97,0
1,65,97,0
1,57,0,1408
1,65,0,32
1,60,0,0
1,65,97,88
1,58,97,8
1,62,97,0
1,62,0,576
1,65,0,0
1,58,0,16
1,55,97,176
1,64,97,0
1,60,97,0
1,64,0,680
1,55,0,8
1,60,0,32
1,60,97,48
1,57,97,0
1,65,97,0
1,57,0,1384
1,65,0,16
1,60,0,0
1,67,97,136
1,58,97,0
1,63,97,0
1,63,0,672
1,67,0,0
1,58,0,40
1,62,97,48
1,58,97,8
1,65,97,0
1,58,0,624
1,62,0,16
1,65,0,16
1,57,97,112
1,65,97,0
1,60,97,0
1,57,0,1584
1,65,0,464
1,60,0,912
1,57,97,112
1,65,97,0
1,60,97,0
1,65,0,1560
1,57,0,24
1,60,0,1352
1,58,97,136
1,65,97,0
1,62,97,0
1,62,0,656
1,65,0,0
1,58,0,8
1,60,97,96
1,55,97,8
1,64,97,0
1,64,0,640
1,55,0,32
1,60,0,24
1,60,97,72
1,57,97,0
1,65,97,0
1,57,0,1584
1,65,0,2904
1,60,0,48
1,55,97,72
1,60,97,0
1,64,97,0
1,55,0,1584
1,64,0,1328
1,60,0,56
1,60,97,104
1,57,97,0
1,65,97,0
1,57,0,2920
1,60,0,32
1,65,0,24
1,58,97,96
1,65,97,0
1,62,97,0
1,62,0,616
1,65,0,16
1,58,0,0
1,60,97,128
1,55,97,8
1,64,97,0
1,55,0,608
1,64,0,16
1,60,0,32
1,65,97,112
1,57,97,0
1,60,97,0
1,60,0,2952
1,57,0,8
1,65,0,0
1,67,97,104
1,63,97,8
1,58,97,0
1,67,0,1360
1,58,0,8
1,63,0,0
1,62,97,160
1,58,97,8
1,65,97,0
1,65,0,1048
1,62,0,0
1,58,0,8
1,55,97,96
1,64,97,0
1,60,97,0
1,55,0,184
1,60,0,16
1,64,0,8
1,65,97,176
1,62,97,0
1,58,97,0
1,62,0,664
1,58,0,40
1,65,0,0
1,60,97,56
1,55,97,8
1,64,97,0
1,55,0,608
1,64,0,16
1,60,0,32
1,60,97,112
1,57,97,0
1,65,97,0
1,57,0,1384
1,60,0,24
1,65,0,16
1,65,97,112
1,62,97,0
1,58,97,0
1,58,0,672
1,62,0,0
1,65,0,0
1,55,97,96
1,64,97,0
1,60,97,0
1,55,0,656
1,64,0,8
1,60,0,48
1,60,97,48
1,57,97,8
1,65,97,0
1,57,0,1368
1,60,0,32
1,65,0,8
1,65,97,120
1,58,97,8
1,62,97,0
1,62,0,664
1,65,0,8
1,58,0,8
1,55,97,88
1,64,97,0
1,60,97,0
1,55,0,576
1,64,0,8
1,60,0,64
1,65,97,120
1,60,97,0
1,57,97,0
1,57,0,1392
1,65,0,8
1,60,0,8
1,67,97,128
1,58,97,0
1,63,97,0
1,63,0,720
1,58,0,0
1,67,0,0
1,58,97,40
1,65,97,8
1,62,97,0
1,58,0,664
1,62,0,8
1,65,0,0
1,57,97,88
1,60,97,8
1,65,97,0
1,57,0,1584
1,65,0,464
1,60,0,928
1,57,97,96
1,65,97,0
1,60,97,0
1,60,0,2920
1,57,0,8
1,65,0,32
1,65,97,112
1,58,97,0
1,62,97,0
1,62,0,632
1,65,0,8
1,58,0,8
1,55,97,120
1,64,97,0
1,60,97,0
1,64,0,624
1,55,0,0
1,60,0,40
1,60,97,96
1,57,97,8
1,65,97,0
1,57,0,1584
1,65,0,2888
1,60,0,32
1,60,97,104
1,55,97,0
1,64,97,0
1,55,0,1584
1,64,0,1328
1,60,0,40
1,60,97,120
1,57,97,0
1,65,97,0
1,57,0,1584
1,60,0,1408
1,65,0,40
1,58,97,40
1,65,97,0
1,62,97,0
1,62,0,632
1,58,0,0
1,65,0,24
1,64,97,104
1,55,97,8
1,60,97,0
1,60,0,672
1,55,0,0
1,64,0,0
1,60,97,96
1,57,97,0
1,65,97,0
1,57,0,1584
1,65,0,1328
1,60,0,0
1,67,97,152
1,58,97,8
1,63,97,0
1,63,0,1392
1,67,0,0
1,58,0,24
1,58,97,112
1,65,97,8
1,62,97,0
1,62,0,912
1,65,0,16
1,58,0,16
1,60,97,208
1,64,97,0
1,55,97,0
1,55,0,200
1,60,0,0
1,64,0,24
1,65,97,160
1,62,97,0
1,58,97,0
1,62,0,648
1,58,0,8
1,65,0,8
1,55,97,104
1,60,97,0
1,64,97,0
1,55,0,648
1,64,0,8
1,60,0,48
1,57,97,64
1,60,97,0
1,65,97,0
1,60,0,1368
1,57,0,8
1,65,0,16
1,65,97,136
1,62,97,8
1,58,97,0
1,62,0,672
1,58,0,8
1,65,0,0
1,64,97,88
1,55,97,0
1,60,97,0
1,64,0,640
1,55,0,8
1,60,0,24
1,65,97,96
1,60,97,0
1,57,97,0
1,57,0,1400
1,60,0,24
1,65,0,40
1,58,97,72
1,65,97,0
1,62,97,0
1,62,0,688
1,58,0,0
1,65,0,8
1,64,97,64
1,55,97,8
1,60,97,0
1,55,0,560
1,60,0,40
1,64,0,0
1,57,97,168
1,60,97,0
1,65,97,0
1,57,0,1352
1,60,0,8
1,65,0,8
1,58,97,160
1,63,97,8
1,67,97,0
1,67,0,624
1,63,0,32
1,58,0,24
1,58,97,88
1,62,97,0
1,65,97,0
1,62,0,608
1,58,0,8
1,65,0,32
1,65,97,112
1,60,97,8
1,57,97,0
1,57,0,1400
1,60,0,16
1,65,0,40
1,58,97,80
1,65,97,0
1,62,97,0
1,62,0,664
1,65,0,32
1,58,0,0
1,64,97,64
1,55,97,8
1,60,97,0
1,55,0,624
1,64,0,16
1,60,0,24
1,57,97,104
1,60,97,0
1,65,97,0
1,60,0,1400
1,57,0,0
1,65,0,24
1,65,97,112
1,62,97,0
1,58,97,0
1,62,0,640
1,58,0,8
1,65,0,16
1,55,97,104
1,60,97,0
1,64,97,0
1,55,0,600
1,64,0,24
1,60,0,24
1,57,97,120
1,60,97,0
1,65,97,0
1,60,0,1400
1,57,0,0
1,65,0,40
1,58,97,96
1,65,97,0
1,62,97,0
1,62,0,640
1,65,0,8
1,58,0,0
1,64,97,120
1,55,97,0
1,60,97,0
1,55,0,592
1,64,0,8
1,60,0,64
1,65,97,104
1,60,97,0
1,57,97,0
1,57,0,1352
1,60,0,16
1,65,0,16
1,63,97,152
1,67,97,0
1,58,97,0
1,67,0,664
1,63,0,16
1,58,0,16
1,65,97,72
1,62,97,0
1,58,97,0
1,58,0,648
1,62,0,0
1,65,0,8
1,57,97,104
1,60,97,8
1,65,97,0
1,60,0,1408
1,57,0,0
1,65,0,32
1,65,97,88
1,58,97,8
1,62,97,0
1,62,0,616
1,58,0,16
1,65,0,8
1,55,97,128
1,60,97,0
1,64,97,0
1,55,0,592
1,64,0,24
1,60,0,0
1,65,97,152
1,57,97,0
1,60,97,0
1,60,0,1400
1,57,0,0
1,65,0,24
1,65,97,112
1,62,97,0
1,58,97,0
1,62,0,656
1,58,0,8
1,65,0,8
1,64,97,88
1,55,97,8
1,60,97,0
1,55,0,608
1,64,0,24
1,60,0,32
1,60,97,104
1,57,97,0
1,65,97,0
1,57,0,1384
1,60,0,40
1,65,0,8
1,58,97,104
1,65,97,0
1,62,97,0
1,62,0,632
1,65,0,0
1,58,0,16
1,55,97,120
1,60,97,0
1,64,97,0
1,55,0,600
1,64,0,40
1,60,0,24
1,65,97,104
1,60,97,0
1,57,97,0
1,57,0,1408
1,60,0,0
1,65,0,0
1,58,97,128
1,67,97,0
1,63,97,0
1,67,0,648
1,63,0,16
1,58,0,40
1,58,97,64
1,65,97,0
1,62,97,0
1,62,0,624
1,58,0,8
1,65,0,16
1,60,97,120
1,57,97,0
1,65,97,0
1,57,0,1352
1,65,0,16
1,60,0,0
1,57,97,160
1,60,97,8
1,65,97,0
1,57,0,96
1,65,0,8
1,60,0,0
1,57,97,88
1,65,97,0
1,60,97,0
1,60,0,96
1,65,0,8
1,57,0,16
1,57,97,72
1,65,97,0
1,60,97,0
1,60,0,80
1,65,0,16
1,57,0,0
1,57,97,96
1,65,97,0
1,60,97,0
1,60,0,952
1,65,0,0
1,57,0,0
2,65,127,8368
2,65,0,168
2,67,127,16
2,67,0,72
2,69,127,16
2,69,0,72
2,69,127,56
2,69,0,120
2,69,127,248
2,69,0,184
2,72,127,0
2,72,0,8
2,69,127,88
2,69,0,16
2,69,127,16
2,69,0,88
2,67,127,56
2,67,0,152
2,65,127,32
2,65,0,200
2,65,127,368
2,65,0,344
2,67,127,56
2,67,0,72
2,69,127,24
2,69,0,8
2,65,127,688
2,65,0,64
2,69,127,8
2,69,0,80
2,69,127,32
2,69,0,152
2,69,127,208
2,69,0,200
2,69,127,192
2,69,0,96
2,72,127,96
2,72,0,160
2,69,127,40
2,69,0,8
2,69,127,0
2,69,0,120
2,67,127,120
2,67,0,232
2,65,127,136
2,65,0,80
2,67,108,120
2,67,0,96
2,65,121,0
2,65,0,88
2,67,127,16
2,67,0,24
2,65,127,1752
2,65,0,144
2,67,127,40
2,67,0,80
2,69,127,16
2,69,0,56
2,69,120,40
2,69,0,80
2,69,127,128
2,69,0,64
2,69,127,120
2,69,0,144
2,69,127,48
2,69,0,104
2,72,127,8
2,72,0,160
2,69,127,56
2,69,0,16
2,67,127,432
2,67,0,72
2,67,127,120
2,67,0,168
2,69,127,24
2,69,0,112
2,67,127,88
2,67,0,216
2,65,127,152
2,65,0,168
2,65,127,224
2,65,0,120
2,67,126,64
2,67,0,152
2,69,127,16
2,69,0,8
2,69,127,1104
2,69,0,88
2,69,127,96
2,69,0,152
2,69,126,32
2,69,0,80
2,69,127,128
2,69,0,152
2,69,127,32
2,69,0,88
2,69,127,96
2,69,0,232
2,67,127,0
2,67,0,72
2,67,127,40
2,67,0,88
2,67,127,104
2,67,0,72
2,67,127,120
2,67,0,16
2,65,127,8
2,65,0,88
2,65,127,104
2,65,0,304
2,70,127,2120
2,74,80,0
2,74,0,72
2,70,0,0
2,74,71,48
2,70,127,0
2,70,0,152
2,74,0,0
2,72,127,8
2,76,74,0
2,76,0,120
2,72,0,0
2,76,80,120
2,72,127,0
2,72,0,192
2,76,0,0
2,76,70,8
2,70,127,0
2,70,0,72
2,76,0,0
2,70,127,128
2,74,73,0
2,74,0,264
2,70,0,8
2,69,127,104
2,72,74,8
2,72,0,264
2,69,0,0
2,72,72,112
2,69,127,0
2,69,0,24
2,72,0,0
2,67,127,8
2,70,76,0
2,70,0,88
2,67,0,0
2,67,127,24
2,70,66,8
2,70,0,88
2,67,0,0
2,70,80,96
2,67,127,0
2,70,0,152
2,67,0,8
2,70,76,32
2,67,127,0
2,67,0,72
2,70,0,0
2,70,84,120
2,67,127,0
2,67,0,168
2,70,0,0
2,70,62,24
2,67,124,0
2,70,0,96
2,67,0,8
2,70,86,80
2,67,127,0
2,67,0,184
2,70,0,0
2,70,72,8
2,65,127,0
2,70,0,72
2,65,0,8
2,72,92,120
2,69,127,0
2,69,0,8
2,72,0,0
2,70,127,8
2,74,88,0
2,74,0,64
2,70,0,0
2,74,64,56
2,70,126,0
2,70,0,208
2,74,0,0
2,76,72,0
2,72,127,8
2,72,0,144
2,76,0,0
2,76,80,128
2,72,127,8
2,76,0,144
2,72,0,8
2,76,80,24
2,70,127,0
2,70,0,80
2,76,0,0
2,70,127,104
2,74,71,8
2,70,0,232
2,74,0,8
2,72,79,144
2,69,127,0
2,69,0,256
2,72,0,0
2,72,66,120
2,69,127,0
2,69,0,256
2,72,0,0
2,72,86,152
2,69,127,0
2,69,0,96
2,72,0,0
2,72,76,88
2,69,127,0
2,69,0,160
2,72,0,0
2,75,86,24
2,67,127,8
2,75,0,264
2,67,127,120
2,75,86,0
2,75,0,152
2,67,0,8
2,67,125,24
2,75,63,0
2,67,0,128
2,75,0,16
2,67,0,136
2,74,86,304
2,65,127,0
2,65,0,112
2,74,0,0
2,74,86,0
2,67,127,0
2,67,0,176
2,74,0,8
2,72,79,64
2,65,127,0
2,72,0,16
2,65,0,1496
2,65,127,864
2,65,0,64
2,69,127,8
2,69,0,40
2,69,127,88
2,69,0,216
2,69,127,152
2,69,0,16
2,72,127,0
2,72,0,72
2,69,127,48
2,69,0,16
2,69,127,40
2,69,0,88
2,67,127,56
2,67,0,144
2,65,127,40
2,65,0,200
2,65,127,368
2,65,0,120
2,67,127,72
2,67,0,256
2,69,127,24
2,69,0,8
2,65,127,512
2,65,0,152
2,67,127,32
2,67,0,64
2,69,127,8
2,69,0,80
2,69,127,32
2,69,0,152
2,69,127,208
2,69,0,192
2,72,127,0
2,72,0,128
2,69,127,184
2,69,0,8
2,69,127,40
2,69,0,144
2,69,127,48
2,69,0,88
2,69,127,0
2,69,0,48
2,67,127,56
2,67,0,176
2,65,127,8
2,65,0,216
2,67,127,168
2,67,0,16
2,65,127,1752
2,65,0,144
2,67,127,48
2,67,0,8
2,69,127,16
2,69,0,40
2,69,120,56
2,69,0,152
2,69,127,40
2,69,0,104
2,69,127,96
2,69,0,208
2,72,127,48
2,72,0,144
2,69,127,72
2,69,0,72
2,69,127,416
2,69,0,80
2,67,127,112
2,67,0,168
2,69,127,24
2,69,0,128
2,67,127,72
2,67,0,152
2,65,127,24
2,65,0,120
2,65,127,280
2,65,0,88
2,65,127,96
2,65,0,144
2,65,127,40
2,65,0,88
2,67,126,112
2,67,0,8
2,69,127,8
2,69,0,72
2,65,127,704
2,65,0,8
2,69,127,0
2,69,0,48
2,69,126,32
2,69,0,80
2,69,127,128
2,69,0,152
2,69,127,40
2,69,0,88
2,69,127,88
2,69,0,8
2,67,127,0
2,67,0,72
2,67,127,40
2,67,0,88
2,67,127,104
2,67,0,72
2,67,127,120
2,67,0,8
2,65,127,8
2,65,0,88
2,65,127,104
2,65,0,400
2,74,80,0
2,70,127,0
2,70,0,64
2,74,0,8
2,74,71,48
2,70,127,0
2,74,0,144
2,70,0,8
2,76,74,0
2,72,127,0
2,72,0,120
2,76,0,0
2,76,80,120
2,72,127,0
2,72,0,192
2,76,0,0
2,70,127,0
2,76,70,8
2,76,0,72
2,70,0,0
2,74,73,128
2,70,127,0
2,70,0,264
2,74,0,0
2,69,127,112
2,72,74,8
2,72,0,264
2,69,0,0
2,72,72,112
2,69,127,0
2,69,0,16
2,72,0,0
2,70,76,8
2,67,127,0
2,67,0,88
2,70,0,0
