track,note,velocity,time
0,64,113,40
0,66,113,25
0,64,120,0
0,62,120,25
0,43,105,120
0,55,61,2
0,50,69,0
0,59,36,0
0,62,50,115
0,55,69,5
0,59,73,38
0,55,46,2
0,42,105,0
0,54,63,5
0,50,69,0
0,59,23,7
0,55,69,0
0,62,56,2
0,52,71,20
0,40,105,0
0,50,43,0
0,55,94,117
0,64,113,3
0,59,55,0
0,66,113,0
0,64,59,2
0,62,59,10
0,67,65,3
0,64,120,0
0,69,55,3
0,62,120,10
0,43,105,13
0,71,64,0
0,50,69,0
0,59,43,0
0,55,69,120
0,62,43,0
0,59,73,103
0,59,40,0
0,42,105,0
0,69,71,2
0,50,69,0
0,59,36,0
0,55,69,0
0,62,36,0
0,40,105,0
0,50,43,0
0,59,36,0
0,67,65,0
0,62,49,0
0,59,49,120
0,64,113,120
0,52,76,0
0,66,113,0
0,59,66,0
0,62,66,0
0,55,73,0
0,64,120,0
0,59,73,0
0,52,73,0
0,62,120,25
0,43,105,120
0,55,61,2
0,50,69,0
0,59,36,0
0,62,50,115
0,55,69,5
0,59,73,38
0,55,46,2
0,42,105,0
0,54,63,5
0,50,69,0
0,59,23,7
0,55,69,0
0,62,56,2
0,52,71,20
0,40,100,0
0,47,49,0
0,59,24,0
0,50,115,120
0,62,43,0
0,42,105,0
0,50,63,0
0,47,49,0
0,59,63,0
0,50,115,0
0,62,43,0
0,40,105,0
0,52,70,0
0,47,49,0
0,59,63,0
0,50,115,30
0,62,49,0
0,42,105,0
0,50,76,0
0,50,90,0
0,59,63,0
0,40,105,0
0,62,49,0
0,52,76,0
0,42,105,0
0,50,76,0
0,55,55,115
0,43,105,0
0,59,54,15
0,62,54,20
0,67,54,17
0,59,68,188
0,67,69,7
0,64,78,18
0,71,68,12
0,59,61,0
0,66,61,0
0,43,64,0
0,50,65,15
0,55,65,15
0,59,66,10
0,62,66,8
0,67,68,15
0,62,97,290
0,43,71,0
0,71,97,0
0,71,97,14
0,71,97,25
0,47,80,32
0,71,97,25
0,50,80,19
0,71,97,18
0,71,97,25
0,55,80,17
0,71,97,25
0,71,97,25
0,59,80,13
0,71,97,25
0,42,69,0
0,71,97,15
0,69,97,25
0,49,65,5
0,52,73,16
0,42,80,0
0,69,97,62
0,57,60,88
0,61,63,240
0,69,60,120
0,66,61,120
0,66,68,0
0,61,65,0
0,49,73,20
0,57,64,0
0,54,63,0
0,52,44,120
0,50,69,0
0,40,80,0
0,55,71,0
0,47,64,235
0,47,51,0
0,50,80,137
0,50,68,0
0,55,68,120
0,67,97,0
0,55,68,0
0,67,97,25
0,45,71,0
0,45,59,0
0,67,97,25
0,67,97,25
0,52,64,43
0,52,51,0
0,55,64,240
0,55,51,0
0,61,61,100
0,61,49,0
0,67,97,25
0,50,75,5
0,50,63,0
0,67,97,18
0,66,97,25
0,57,66,20
0,57,54,0
0,61,69,240
0,61,56,0
0,66,56,240
0,66,44,0
0,61,68,0
0,61,56,0
0,50,63,0
0,50,69,0
0,57,54,0
0,61,56,0
0,57,56,0
0,66,44,0
0,61,54,0
0,61,66,0
0,62,97,0
0,42,56,0
0,66,97,0
0,43,86,0
0,43,99,0
0,67,97,13
0,50,74,2
0,67,97,0
0,50,86,0
0,55,90,31
0,55,103,0
0,59,56,17
0,59,69,0
0,67,97,55
0,62,65,25
0,62,78,0
0,67,97,30
0,67,97,47
0,67,73,23
0,67,85,0
0,62,59,0
0,62,71,0
0,67,97,55
0,50,75,0
0,50,88,0
0,67,97,62
0,42,73,0
0,42,85,0
0,67,97,27
0,66,97,23
0,49,54,5
0,49,89,0
0,52,89,109
0,52,64,120
0,57,88,0
0,61,88,5
0,66,97,27
0,57,60,60
0,57,88,0
0,66,97,31
0,52,86,0
0,47,69,0
0,47,86,0
0,66,97,12
0,64,97,15
0,54,64,53
0,54,76,0
0,62,97,67
0,57,53,165
0,57,65,0
0,62,69,150
0,62,81,0
0,40,66,0
0,40,79,0
0,79,90,0
0,91,64,0
0,78,90,0
0,79,61,0
0,91,34,0
0,47,56,232
0,47,69,0
0,64,97,145
0,50,61,16
0,50,74,0
0,64,97,24
0,55,59,45
0,55,71,0
0,64,97,12
0,64,97,27
0,59,46,43
0,59,59,0
0,64,64,42
0,64,76,0
0,64,97,17
0,62,59,0
0,62,71,0
0,62,97,16
0,45,80,0
0,45,93,0
0,62,97,20
0,57,74,90
0,52,61,107
0,61,97,0
0,61,76,0
0,64,76,120
0,55,64,120
0,59,76,0
0,62,76,0
0,61,64,120
0,59,88,0
0,59,71,0
0,45,71,0
0,52,58,0
0,64,84,0
0,55,60,0
0,69,84,0
0,61,50,0
0,71,97,0
0,71,97,0
0,43,64,3
0,43,51,0
0,71,97,17
0,47,65,24
0,47,53,0
0,71,97,5
0,50,65,74
0,50,53,0
0,55,66,19
0,55,54,0
0,71,97,5
0,67,68,6
0,67,55,0
0,71,97,7
0,71,97,1
0,62,66,5
0,62,54,0
0,71,97,22
0,71,97,4
0,59,80,33
0,59,68,0
0,71,97,10
0,71,97,60
0,55,80,0
0,55,68,0
0,83,60,0
0,71,97,15
0,71,97,6
0,42,69,0
0,42,56,0
0,71,97,19
0,49,65,93
0,49,53,0
0,52,60,21
0,69,97,2
0,52,73,36
0,57,48,0
0,61,50,30
0,69,97,12
0,57,60,13
0,66,49,0
0,69,97,30
0,61,53,0
0,71,97,32
0,61,63,8
0,57,60,0
0,52,48,0
0,69,97,15
0,66,61,10
0,49,50,0
0,42,49,0
0,49,73,20
0,49,48,0
0,52,48,0
0,66,97,7
0,52,44,113
0,57,50,0
0,83,60,0
0,52,40,0
0,40,80,0
0,40,68,0
0,79,90,0
0,91,64,0
0,78,90,0
0,79,61,0
0,91,34,0
0,47,64,120
0,47,51,0
0,50,68,119
0,50,80,120
0,55,55,0
0,59,68,30
0,67,97,17
0,55,68,17
0,55,61,0
0,67,97,13
0,50,40,0
0,67,97,35
0,45,71,0
0,45,59,0
0,52,51,18
0,67,97,18
0,52,64,30
0,55,51,0
0,61,49,120
0,55,64,120
0,64,40,0
0,61,40,0
0,67,97,2
0,61,61,47
0,55,40,0
0,67,97,62
0,50,75,5
0,50,63,0
0,67,97,19
0,57,66,169
0,57,54,0
0,66,97,5
0,61,56,95
0,61,69,120
0,66,44,0
0,61,55,0
0,66,56,120
0,57,44,0
0,50,56,0
0,61,68,0
0,57,63,0
0,61,63,0
0,50,69,0
0,66,56,0
0,61,56,0
0,57,56,0
0,57,63,0
0,61,63,0
0,61,66,0
0,57,58,0
0,67,97,2
0,67,97,12
0,43,86,0
0,67,97,0
0,43,99,0
0,61,65,0
0,67,97,0
0,67,97,3
0,50,74,3
0,50,86,0
0,61,70,0
0,67,97,15
0,55,90,94
0,55,103,0
0,59,61,0
0,62,67,0
0,67,97,22
0,59,56,13
0,59,69,0
0,64,70,0
0,66,97,30
0,62,65,38
0,62,78,0
0,62,69,0
0,67,97,10
0,66,97,1
0,67,97,7
0,67,73,3
0,67,85,0
0,61,70,0
0,66,97,12
0,67,97,10
0,62,59,0
0,62,71,0
0,57,67,0
0,67,97,32
0,50,75,0
0,50,88,0
0,62,69,0
0,42,73,0
0,42,85,0
0,59,67,0
0,61,68,0
0,49,54,240
0,49,89,0
0,66,97,5
0,52,89,8
0,52,64,43
0,57,88,0
0,57,67,0
0,66,97,7
0,61,88,30
0,66,97,23
0,57,60,33
0,57,88,0
0,62,70,0
0,66,97,26
0,52,86,0
0,47,69,0
0,47,86,0
0,59,67,0
0,62,70,0
0,62,97,15
0,54,64,93
0,54,76,0
0,61,68,0
0,57,53,240
0,57,65,0
0,57,67,0
0,62,69,150
0,62,81,0
0,59,70,0
0,40,66,0
0,40,79,0
0,57,67,0
0,59,70,0
0,47,69,142
0,64,97,235
0,47,56,5
0,50,74,0
0,55,61,0
0,55,71,25
0,64,97,15
0,50,61,25
0,62,71,0
0,64,97,10
0,64,71,2
0,64,97,5
0,55,59,38
0,59,71,0
0,64,97,40
0,55,74,0
0,59,46,120
0,50,74,0
0,59,97,12
0,47,71,0
0,64,64,10
0,40,71,0
0,64,97,5
0,62,97,7
0,62,59,0
0,62,97,33
0,45,80,0
0,45,93,0
0,57,74,78
0,52,61,8
0,61,76,0
0,61,97,15
0,64,76,103
0,55,64,120
0,59,76,0
0,62,76,0
0,61,64,120
0,59,88,0
0,59,71,0
0,45,71,0
0,57,74,0
0,52,58,0
0,64,58,0
0,59,90,0
0,55,60,0
0,61,106,0
0,69,58,0
0,61,50,0
0,57,90,0
0,83,60,0
0,47,51,3
0,54,89,0
0,59,88,0
0,66,86,0
0,54,58,5
0,54,64,0
0,59,63,10
0,62,75,0
0,59,69,0
0,62,81,0
0,71,58,5
0,66,89,5
0,66,90,0
0,47,20,3
0,54,24,3
0,54,25,0
0,59,20,5
0,74,97,0
0,59,21,0
0,61,91,0
0,62,30,10
0,66,29,0
0,62,31,0
0,71,21,4
0,74,97,0
0,47,31,5
0,54,19,5
0,54,33,0
0,59,31,13
0,74,97,0
0,59,45,0
0,62,95,0
0,62,43,12
0,66,56,0
0,62,56,0
0,66,70,0
0,71,45,8
0,74,97,6
0,47,24,1
0,54,15,3
0,54,29,0
0,59,11,10
0,74,97,0
0,59,25,0
0,61,91,0
0,62,21,10
0,66,38,0
0,62,35,0
0,71,38,10
0,74,97,0
0,47,39,5
0,54,48,5
0,54,59,0
0,59,40,13
0,74,97,0
0,59,51,0
0,59,89,0
0,64,91,0
0,71,83,0
0,62,59,12
0,66,65,0
0,62,70,0
0,66,76,0
0,71,50,8
0,74,97,13
0,47,13,3
0,54,15,8
0,54,29,0
0,59,5,10
0,74,97,0
0,59,19,0
0,62,94,0
0,62,14,10
0,66,38,0
0,62,28,0
0,71,26,10
0,74,97,13
0,47,35,5
0,54,41,5
0,54,55,0
0,59,38,13
0,59,51,0
0,61,95,0
0,62,56,12
0,66,58,0
0,62,70,0
0,66,71,0
0,71,49,8
0,74,97,13
0,47,29,5
0,59,86,0
0,54,8,8
0,54,21,0
0,59,8,10
0,59,21,0
0,59,95,0
0,83,60,0
0,62,19,10
0,66,26,0
0,62,33,0
0,71,43,4
0,45,58,2
0,52,59,5
0,52,65,0
0,57,50,10
0,73,97,0
0,57,56,0
0,52,95,0
0,57,87,0
0,61,56,4
0,64,68,0
0,61,63,0
0,64,66,0
0,69,78,8
0,45,30,5
0,73,97,3
0,52,28,5
0,52,41,0
0,57,13,10
0,57,26,0
0,59,88,0
0,64,15,10
0,61,23,0
0,69,44,0
0,64,29,0
0,61,36,0
0,73,97,3
0,45,43,5
0,52,51,10
0,52,65,0
0,57,41,13
0,57,55,0
0,61,95,0
0,69,83,0
0,61,45,12
0,64,51,0
0,61,59,0
0,64,65,0
0,69,56,8
0,73,97,25
0,45,14,5
0,52,21,8
0,52,35,0
0,57,14,10
0,57,28,0
0,59,94,0
0,64,19,2
0,61,21,0
0,64,33,0
0,61,35,0
0,69,28,0
0,73,97,18
0,45,44,5
0,52,56,10
0,52,68,0
0,57,46,13
0,57,58,0
0,62,100,0
0,64,77,0
0,61,56,12
0,64,56,0
0,61,68,0
0,64,61,0
0,69,55,8
0,45,64,55
0,45,75,10
0,45,33,5
0,52,30,8
0,52,44,0
0,57,15,10
0,57,29,0
0,61,83,0
0,45,81,0
0,64,21,10
0,61,28,0
0,64,35,0
0,61,41,0
0,69,46,0
0,45,48,5
0,52,51,10
0,52,65,0
0,57,38,13
0,57,51,0
0,59,88,0
0,66,86,0
0,41,75,0
0,61,49,12
0,64,46,0
0,61,63,0
0,64,60,0
0,69,61,8
0,41,87,65
0,45,25,5
0,52,28,8
0,52,41,0
0,57,15,10
0,57,29,0
0,57,88,0
0,83,60,0
0,41,98,0
0,64,19,10
0,61,24,0
0,69,39,0
0,64,33,0
0,61,38,0
0,71,97,45
0,43,61,5
0,55,53,10
0,50,59,0
0,55,59,0
0,50,65,0
0,59,50,13
0,59,56,0
0,50,89,0
0,59,94,0
0,67,83,0
0,35,100,0
0,49,70,0
0,67,73,4
0,62,65,0
0,67,79,0
0,71,97,13
0,43,16,5
0,50,20,10
0,55,14,0
0,50,34,0
0,55,28,0
0,59,14,10
0,59,28,0
0,61,100,0
0,67,19,10
0,67,33,0
0,62,33,0
0,43,44,5
0,55,48,10
0,50,48,0
0,55,61,0
0,50,61,0
0,59,40,13
0,71,97,0
0,59,54,0
0,62,100,0
0,67,44,12
0,62,53,0
0,67,58,0
0,71,97,28
0,43,18,5
0,50,20,8
0,55,20,0
0,50,34,0
0,55,34,0
0,59,14,10
0,71,97,0
0,59,28,0
0,64,91,0
0,67,13,10
0,67,26,0
0,62,30,0
0,71,97,7
0,43,39,5
0,55,48,7
0,50,43,0
0,55,59,0
0,50,54,0
0,59,40,13
0,71,97,0
0,59,51,0
0,66,83,0
0,41,100,0
0,67,46,12
0,62,56,0
0,67,53,0
0,71,97,43
0,41,100,0
0,43,10,5
0,50,16,10
0,55,14,0
0,50,30,0
0,55,28,0
0,59,14,10
0,59,28,0
0,62,100,0
0,67,16,10
0,67,30,0
0,62,29,0
0,71,97,58
0,43,43,5
0,55,48,10
0,50,46,0
0,55,61,0
0,50,60,0
0,59,40,13
0,59,54,0
0,61,91,0
0,64,83,0
0,67,40,5
0,62,60,0
0,67,54,0
0,43,18,5
0,50,25,10
0,55,20,0
0,50,39,0
0,55,34,0
0,59,25,1
0,59,39,0
0,59,88,0
0,83,60,0
0,67,21,10
0,67,35,0
0,62,41,0
0,71,97,20
0,50,60,8
0,50,66,0
0,57,55,10
0,57,61,0
0,62,51,10
0,62,58,0
0,38,69,0
0,57,95,0
0,67,83,0
0,71,97,2
0,66,70,15
0,66,80,4
0,43,100,138
0,50,20,0
0,69,97,0
0,50,34,0
0,57,15,5
0,57,29,0
0,62,10,10
0,62,24,0
0,59,94,0
0,43,100,0
0,66,23,17
0,66,36,0
0,50,34,0
0,50,48,0
0,57,25,10
0,57,39,0
0,62,23,10
0,62,36,0
0,61,101,0
0,66,86,0
0,66,31,22
0,66,45,0
0,45,100,138
0,50,18,18
0,50,31,0
0,57,18,5
0,57,31,0
0,62,13,10
0,62,26,0
0,62,100,0
0,66,13,17
0,66,26,0
0,41,80,143
0,50,53,0
0,50,64,0
0,57,46,10
0,57,58,0
0,62,49,10
0,62,60,0
0,41,78,0
0,66,58,22
0,66,69,0
0,41,78,20
0,41,77,20
0,50,21,18
0,50,35,0
0,57,9,5
0,57,23,0
0,62,15,10
0,62,29,0
0,61,95,0
0,41,73,0
0,66,29,17
0,66,43,0
0,50,36,0
0,50,50,0
0,57,35,10
0,57,49,0
0,62,30,10
0,62,44,0
0,59,100,0
0,66,45,16
0,66,59,0
0,45,80,60
0,41,80,25
0,50,21,10
0,50,35,0
0,57,28,5
0,57,41,0
0,62,10,5
0,62,24,0
0,57,94,0
0,83,60,0
0,66,19,17
0,66,33,0
0,69,97,8
0,43,80,6
0,43,79,20
0,50,69,7
0,55,86,0
0,43,39,0
0,55,40,0
0,35,70,0
0,49,70,0
0,50,43,10
0,59,86,2
0,59,38,0
0,71,97,3
0,67,99,8
0,67,60,0
0,69,97,0
0,43,13,5
0,55,10,3
0,50,16,0
0,59,10,10
0,67,15,10
0,71,97,5
0,69,97,5
0,43,44,5
0,43,31,0
0,50,48,2
0,55,48,0
0,50,35,0
0,55,35,0
0,59,40,0
0,59,28,0
0,71,97,7
0,67,56,5
0,67,31,0
0,69,97,29
0,43,5,3
0,55,8,3
0,50,8,0
0,59,1,10
0,71,97,7
0,69,97,5
0,43,51,15
0,43,26,0
0,50,55,10
0,55,60,0
0,50,30,0
0,55,35,0
0,59,53,0
0,59,28,0
0,71,97,5
0,67,71,7
0,67,34,0
0,71,97,12
0,55,1,15
0,50,4,0
0,59,1,10
0,67,4,10
0,43,43,5
0,43,30,0
0,50,46,10
0,55,48,0
0,50,34,0
0,55,35,0
0,59,40,0
0,59,28,0
0,67,53,12
0,67,28,0
0,43,5,5
