track,note,velocity,time
0,64,90,40
0,66,90,0
0,64,96,0
0,62,96,25
0,43,96,0
0,55,49,2
0,50,55,0
0,59,29,0
0,62,40,105
0,55,55,5
0,59,58,0
0,55,37,2
0,42,96,0
0,54,50,0
0,50,55,0
0,59,18,2
0,55,55,0
0,62,45,2
0,52,57,20
0,40,96,0
0,50,34,0
0,55,75,117
0,59,44,3
0,64,90,0
0,66,90,0
0,64,47,2
0,62,47,10
0,67,52,3
0,64,96,0
0,69,44,3
0,62,96,10
0,43,96,0
0,71,51,0
0,50,55,0
0,59,34,0
0,55,55,110
0,62,34,0
0,59,58,103
0,59,32,0
0,42,96,0
0,69,57,2
0,50,55,0
0,59,29,0
0,55,55,0
0,62,29,0
0,40,96,0
0,50,34,0
0,59,29,0
0,67,52,0
0,62,39,0
0,59,39,120
0,64,90,0
0,52,61,0
0,66,90,0
0,59,53,0
0,62,53,0
0,55,58,0
0,64,96,0
0,59,58,0
0,52,58,0
0,62,96,25
0,43,96,0
0,55,49,2
0,50,55,0
0,59,29,0
0,62,40,105
0,55,55,5
0,59,58,0
0,55,37,2
0,42,96,0
0,54,50,5
0,50,55,0
0,59,18,7
0,55,55,0
0,62,45,2
0,52,57,12
0,40,92,0
0,47,39,0
0,59,19,0
0,62,34,120
0,50,92,0
0,42,96,0
0,50,50,0
0,47,39,0
0,59,50,0
0,50,92,0
0,62,34,0
0,40,96,0
0,52,56,0
0,47,39,0
0,59,50,0
0,62,39,25
0,50,92,0
0,42,96,0
0,50,61,0
0,50,72,0
0,59,50,0
0,40,96,0
0,62,39,0
0,52,61,0
0,42,96,0
0,50,61,0
0,55,44,115
0,43,96,0
0,59,43,15
0,62,43,20
0,67,43,17
0,59,54,188
0,67,55,7
0,64,62,18
0,71,54,12
0,59,49,0
0,66,49,0
0,43,51,0
0,50,52,0
0,55,52,0
0,59,53,0
0,62,53,0
0,67,54,0
0,62,115,155
0,43,57,0
0,71,115,0
0,71,115,25
0,71,115,25
0,47,64,118
0,71,115,25
0,50,64,150
0,71,115,25
0,71,115,25
0,55,64,53
0,71,115,0
0,71,115,25
0,59,64,13
0,71,115,25
0,42,55,0
0,71,115,15
0,69,115,25
0,49,52,5
0,52,58,240
0,42,64,0
0,69,115,62
0,57,48,108
0,61,50,240
0,69,48,120
0,66,49,0
0,66,54,0
0,61,52,0
0,49,58,0
0,57,51,0
0,54,50,0
0,52,35,0
0,50,55,0
0,40,64,0
0,55,57,0
0,47,51,0
0,47,41,0
0,50,54,240
0,50,64,0
0,55,54,110
0,55,54,0
0,67,115,0
0,67,115,25
0,45,57,0
0,45,47,0
0,67,115,25
0,67,115,25
0,52,41,43
0,52,51,0
0,55,51,240
0,55,41,0
0,61,49,110
0,61,39,0
0,67,115,25
0,50,60,5
0,50,50,0
0,67,115,18
0,66,115,25
0,57,43,20
0,57,53,0
0,61,55,240
0,61,45,0
0,66,35,240
0,66,45,0
0,61,54,0
0,61,45,0
0,50,50,0
0,50,55,0
0,57,43,0
0,61,45,0
0,57,45,0
0,66,35,0
0,61,43,0
0,61,53,0
0,42,45,0
0,62,115,0
0,66,115,0
0,43,69,0
0,43,79,0
0,67,115,20
0,50,59,63
0,67,115,0
0,50,69,0
0,55,82,240
0,55,72,0
0,59,45,240
0,59,55,0
0,67,115,55
0,62,52,25
0,62,62,0
0,67,115,30
0,67,115,47
0,67,68,23
0,67,58,0
0,62,47,0
0,62,57,0
0,67,115,15
0,50,60,0
0,50,70,0
0,67,115,62
0,42,58,0
0,42,68,0
0,67,115,27
0,66,115,23
0,49,71,5
0,49,43,0
0,52,71,120
0,57,70,120
0,52,51,0
0,61,70,20
0,66,115,17
0,57,48,0
0,57,70,0
0,66,115,55
0,52,69,0
0,47,55,0
0,47,69,0
0,66,115,12
0,64,115,15
0,54,61,63
0,54,51,0
0,62,115,67
0,57,42,165
0,57,52,0
0,62,55,110
0,62,65,0
0,40,53,0
0,40,63,0
0,79,90,0
0,91,64,0
0,78,90,0
0,79,61,0
0,91,34,0
0,47,45,240
0,47,55,0
0,64,115,145
0,50,59,95
0,50,49,0
0,64,115,48
0,55,47,45
0,55,57,0
0,64,115,12
0,64,115,27
0,59,47,43
0,59,37,0
0,64,51,240
0,64,61,0
0,64,115,35
0,62,47,0
0,62,57,0
0,62,115,23
0,45,64,0
0,45,74,0
0,62,115,20
0,57,59,90
0,52,49,0
0,61,61,0
0,61,115,0
0,64,61,120
0,55,51,0
0,59,61,0
0,62,61,0
0,61,51,0
0,59,70,0
0,59,57,0
0,45,57,0
0,52,46,0
0,64,67,0
0,55,48,0
0,69,67,0
0,61,40,0
0,71,115,0
0,71,115,0
0,43,51,0
0,43,41,0
0,71,115,17
0,47,52,83
0,47,42,0
0,71,115,5
0,50,52,0
0,50,42,0
0,55,43,240
0,55,53,0
0,71,115,112
0,67,54,28
0,67,44,0
0,71,115,7
0,71,115,20
0,62,53,5
0,62,43,0
0,71,115,22
0,71,115,38
0,59,64,33
0,59,54,0
0,71,115,10
0,71,115,20
0,55,64,0
0,55,54,0
0,83,60,0
0,71,115,15
0,71,115,50
0,42,55,0
0,42,45,0
0,71,115,40
0,49,42,93
0,49,52,0
0,52,48,45
0,69,115,2
0,57,38,118
0,52,58,0
0,61,40,35
0,69,115,12
0,57,48,13
0,66,39,0
0,69,115,92
0,61,42,0
0,71,115,32
0,61,50,0
0,57,48,0
0,52,38,0
0,69,115,15
0,66,49,0
0,49,40,0
0,42,39,0
0,49,58,0
0,49,38,0
0,52,38,0
0,66,115,7
0,52,35,0
0,57,40,0
0,83,60,0
0,52,32,0
0,40,64,0
0,40,54,0
0,91,64,0
0,79,90,0
0,78,90,0
0,79,61,0
0,91,34,0
0,47,51,0
0,47,41,0
0,50,54,120
0,55,44,120
0,50,64,0
0,59,54,80
0,67,115,7
0,55,54,0
0,55,49,0
0,67,115,68
0,50,32,0
0,67,115,35
0,45,57,0
0,45,47,0
0,52,41,90
0,67,115,18
0,55,41,30
0,52,51,0
0,61,39,120
0,64,32,120
0,55,51,0
0,61,32,0
0,67,115,2
0,61,49,0
0,55,32,0
0,67,115,77
0,50,60,0
0,50,50,0
0,67,115,27
0,57,43,193
0,57,53,0
0,66,115,18
0,61,45,95
0,66,35,120
0,61,55,0
0,61,44,0
0,66,45,0
0,57,35,0
0,50,45,0
0,61,54,0
0,57,50,0
0,61,50,0
0,50,55,0
0,66,45,0
0,61,45,0
0,57,45,0
0,57,50,0
0,61,50,0
0,61,53,0
0,57,46,0
0,67,115,2
0,67,115,12
0,43,69,0
0,67,115,0
0,43,79,0
0,61,65,0
0,67,115,0
0,67,115,3
0,50,69,5
0,50,59,0
0,61,70,0
0,67,115,15
0,55,72,0
0,55,82,0
0,62,67,0
0,59,61,0
0,67,115,90
0,59,45,0
0,59,55,0
0,64,70,0
0,66,115,30
0,62,52,0
0,62,62,0
0,62,69,0
0,67,115,10
0,66,115,2
0,67,115,10
0,67,58,0
0,67,68,0
0,61,70,0
0,66,115,110
0,67,115,10
0,62,47,0
0,62,57,0
0,57,67,0
0,67,115,77
0,50,60,0
0,50,70,0
0,62,69,0
0,42,58,0
0,42,68,0
0,61,68,0
0,59,67,0
0,49,43,240
0,49,71,0
0,66,115,112
0,52,71,8
0,52,51,0
0,57,70,0
0,57,67,0
0,66,115,7
0,61,70,80
0,66,115,60
0,57,48,0
0,57,70,0
0,62,70,0
0,66,115,60
0,52,69,0
0,47,55,0
0,47,69,0
0,62,70,0
0,59,67,0
0,62,115,15
0,54,51,0
0,54,61,0
0,61,68,0
0,57,42,0
0,57,52,0
0,57,67,0
0,62,55,0
0,62,65,0
0,59,70,0
0,40,53,0
0,40,63,0
0,59,70,0
0,57,67,0
0,47,55,240
0,64,115,235
0,47,45,0
0,50,59,0
0,55,61,0
0,55,57,25
0,64,115,15
0,50,49,25
0,62,57,0
0,64,115,10
0,64,57,30
0,64,115,5
0,59,57,115
0,55,47,0
0,64,115,40
0,55,59,0
0,59,37,0
0,50,59,0
0,59,115,12
0,47,57,0
0,64,51,0
0,40,57,0
0,64,115,0
0,62,115,7
0,62,47,0
0,62,115,35
0,45,64,0
0,45,74,0
0,57,59,120
0,61,61,120
0,52,49,0
0,61,115,15
0,64,61,103
0,55,51,0
0,59,61,0
0,62,61,0
0,61,51,0
0,59,70,0
0,59,57,0
0,45,57,0
0,57,74,0
0,52,46,0
0,64,46,0
0,59,90,0
0,61,106,0
0,55,48,0
0,69,46,0
0,61,40,0
0,57,90,0
0,83,60,0
0,47,41,0
0,66,86,0
0,59,88,0
0,54,89,0
0,54,46,0
0,54,51,0
0,59,55,0
0,62,65,0
0,59,50,0
0,62,60,0
0,71,46,0
0,66,72,0
0,66,71,0
0,47,16,3
0,54,19,3
0,54,20,0
0,59,16,0
0,59,17,0
0,74,115,0
0,61,91,0
0,66,23,10
0,62,25,0
0,62,24,0
0,71,17,10
0,74,115,0
0,47,25,5
0,54,15,0
0,54,26,0
0,59,25,0
0,59,36,0
0,74,115,0
0,62,95,0
0,62,45,12
0,66,56,0
0,62,34,0
0,66,45,0
0,71,36,8
0,74,115,0
0,47,19,5
0,54,12,3
0,54,23,0
0,59,9,0
0,59,20,0
0,74,115,0
0,61,91,0
0,66,30,10
0,62,28,0
0,62,17,0
0,71,30,10
0,74,115,0
0,47,31,5
0,54,38,0
0,54,47,0
0,59,32,0
0,59,41,0
0,74,115,0
0,64,91,0
0,59,89,0
0,71,83,0
0,62,56,12
0,66,61,0
0,62,47,0
0,66,52,0
0,71,40,8
0,74,115,13
0,47,10,3
0,54,12,8
0,54,23,0
0,59,4,0
0,59,15,0
0,74,115,0
0,62,94,0
0,66,30,10
0,62,22,0
0,62,11,0
0,71,21,10
0,74,115,13
0,47,28,5
0,54,33,5
0,54,44,0
0,59,30,0
0,59,41,0
0,61,95,0
0,62,56,7
0,66,57,0
0,62,45,0
0,66,46,0
0,71,39,8
0,74,115,13
0,47,23,5
0,59,86,0
0,54,6,8
0,54,17,0
0,59,6,0
0,59,17,0
0,59,95,0
0,83,60,0
0,62,15,10
0,66,21,0
0,62,26,0
0,71,34,10
0,45,46,2
0,52,47,5
0,52,52,0
0,57,40,0
0,57,45,0
0,73,115,0
0,57,87,0
0,52,95,0
0,61,50,12
0,64,53,0
0,61,45,0
0,64,54,0
0,69,62,8
0,45,24,5
0,73,115,3
0,52,33,5
0,52,22,0
0,57,10,0
0,57,21,0
0,59,88,0
0,69,35,10
0,64,23,0
0,61,29,0
0,64,12,0
0,61,18,0
0,73,115,3
0,45,34,5
0,52,41,10
0,52,52,0
0,57,33,0
0,57,44,0
0,61,95,0
0,69,83,0
0,61,47,12
0,64,52,0
0,61,36,0
0,64,41,0
0,69,45,8
0,73,115,27
0,45,11,5
0,52,17,8
0,52,28,0
0,57,11,0
0,57,22,0
0,59,94,0
0,64,26,10
0,61,28,0
0,69,22,0
0,64,15,0
0,61,17,0
0,73,115,45
0,45,35,5
0,52,45,10
0,52,54,0
0,57,37,0
0,57,46,0
0,62,100,0
0,64,77,0
0,61,54,12
0,64,49,0
0,61,45,0
0,64,45,0
0,69,44,8
0,45,64,140
0,45,75,10
0,45,26,0
0,52,24,8
0,52,35,0
0,57,12,0
0,57,23,0
0,45,81,0
0,61,83,0
0,64,28,10
0,61,33,0
0,69,37,0
0,64,17,0
0,61,22,0
0,45,38,5
0,52,41,10
0,52,52,0
0,57,30,0
0,57,41,0
0,59,88,0
0,41,75,0
0,66,86,0
0,61,39,12
0,64,37,0
0,61,50,0
0,64,48,0
0,69,49,8
0,41,87,30
0,45,20,0
0,52,22,8
0,52,33,0
0,57,12,0
0,57,23,0
0,83,60,0
0,41,98,0
0,57,88,0
0,64,15,10
0,61,19,0
0,69,31,0
0,64,26,0
0,61,30,0
0,71,115,45
0,43,49,5
0,55,42,10
0,50,47,0
0,55,47,0
0,50,52,0
0,59,40,0
0,59,45,0
0,59,94,0
0,50,89,0
0,35,100,0
0,49,70,0
0,67,83,0
0,67,58,12
0,62,52,0
0,67,63,0
0,71,115,13
0,43,13,5
0,50,16,10
0,55,11,0
0,50,27,0
0,55,22,0
0,59,11,0
0,59,22,0
0,61,100,0
0,67,26,10
0,62,26,0
0,67,15,0
0,43,35,5
0,55,38,10
0,50,38,0
0,55,49,0
0,50,49,0
0,59,32,0
0,59,43,0
0,71,115,0
0,62,100,0
0,62,42,12
0,67,46,0
0,67,35,0
0,71,115,28
0,43,14,5
0,50,16,8
0,55,16,0
0,50,27,0
0,55,27,0
0,59,11,0
0,59,22,0
0,71,115,0
0,64,91,0
0,67,21,10
0,62,24,0
0,67,10,0
0,71,115,18
0,43,31,5
0,55,38,7
0,50,34,0
0,55,47,0
0,50,43,0
0,59,32,0
0,59,41,0
0,71,115,0
0,66,83,0
0,41,100,0
0,67,37,12
0,62,45,0
0,67,42,0
0,71,115,43
0,41,100,0
0,43,8,0
0,50,13,10
0,55,11,0
0,50,24,0
0,55,22,0
0,59,11,0
0,59,22,0
0,62,100,0
0,67,24,10
0,62,23,0
0,67,13,0
0,71,115,58
0,43,34,5
0,55,38,10
0,50,37,0
0,55,49,0
0,50,48,0
0,59,32,0
0,59,43,0
0,61,91,0
0,64,83,0
0,62,48,12
0,67,43,0
0,67,32,0
0,43,14,5
0,50,20,10
0,55,16,0
0,50,31,0
0,55,27,0
0,59,20,0
0,59,31,0
0,83,60,0
0,59,88,0
0,67,28,10
0,62,33,0
0,67,17,0
0,71,115,20
0,50,48,8
0,50,53,0
0,57,49,10
0,57,44,0
0,62,41,0
0,62,46,0
0,57,95,0
0,38,69,0
0,67,83,0
0,71,115,2
0,66,56,15
0,66,64,5
0,43,100,138
0,50,16,0
0,50,27,0
0,69,115,0
0,57,12,5
0,57,23,0
0,62,8,0
0,62,19,0
0,43,100,0
0,59,94,0
0,66,18,17
0,66,29,0
0,50,27,0
0,50,38,0
0,57,31,10
0,57,20,0
0,62,18,0
0,62,29,0
0,61,101,0
0,66,86,0
0,66,36,22
0,66,25,0
0,45,100,138
0,50,14,0
0,50,25,0
0,57,14,5
0,57,25,0
0,62,10,0
0,62,21,0
0,62,100,0
0,66,21,17
0,66,10,0
0,41,80,143
0,50,42,0
0,50,51,0
0,57,46,10
0,57,37,0
0,62,39,10
0,62,48,0
0,41,78,0
0,66,46,22
0,66,55,0
0,41,78,20
0,41,77,20
0,50,17,0
0,50,28,0
0,57,7,5
0,57,18,0
0,62,12,0
0,62,23,0
0,41,73,0
0,61,95,0
0,66,23,4
0,66,34,0
0,50,29,0
0,50,40,0
0,57,28,2
0,57,39,0
0,62,24,0
0,62,35,0
0,59,100,0
0,66,47,4
0,66,36,0
0,45,80,2
0,41,80,2
0,50,17,2
0,50,28,0
0,57,22,2
0,57,33,0
0,62,8,0
0,62,19,0
0,83,60,0
0,57,94,0
0,66,15,17
0,66,26,0
0,69,115,82
0,43,80,18
0,43,63,57
0,50,55,7
0,55,69,0
0,43,31,0
0,55,32,0
0,35,70,0
0,49,70,0
0,50,34,10
0,59,30,2
0,59,69,0
0,71,115,3
0,67,79,8
0,67,48,0
0,69,115,0
0,43,10,5
0,55,8,3
0,50,13,0
0,59,8,10
0,67,12,10
0,71,115,5
0,69,115,5
0,43,35,0
0,43,25,0
0,50,28,10
0,55,28,0
0,50,38,0
0,55,38,0
0,59,32,0
0,59,22,0
0,71,115,7
0,67,25,5
0,67,45,0
0,69,115,128
0,43,4,5
0,55,6,3
0,50,6,0
0,59,1,10
0,71,115,7
0,69,115,5
0,43,41,15
0,43,21,0
0,50,24,10
0,55,28,0
0,50,44,0
0,55,48,0
0,59,42,0
0,59,22,0
0,71,115,5
0,67,27,7
0,67,57,0
0,71,115,12
0,55,1,15
0,50,3,0
0,59,1,10
0,67,3,10
0,43,34,5
0,43,24,0
0,50,27,2
0,55,28,0
0,50,37,0
0,55,38,0
0,59,32,0
0,59,22,0
0,67,22,2
0,67,42,0
0,43,4,2
