track,note,velocity,time
1,76,100,12288
1,76,100,128
1,76,100,64
1,75,100,128
1,75,100,128
1,73,100,64
1,76,100,128
1,73,100,192
1,73,100,64
1,71,100,64
1,71,100,448
1,69,100,64
1,68,100,64
1,69,100,64
1,69,100,64
1,71,100,192
1,69,100,128
1,69,100,64
1,68,100,64
1,80,100,192
1,80,100,128
1,78,100,64
1,76,100,64
1,81,100,192
1,81,100,64
1,80,100,128
1,80,100,64
1,78,100,32
1,76,100,32
1,76,100,320
1,75,100,64
1,73,100,64
1,76,100,1280
1,76,100,128
1,76,100,64
1,75,100,128
1,75,100,128
1,73,100,64
1,76,100,192
1,73,100,128
1,73,100,64
1,71,100,64
1,71,100,192
1,69,100,64
1,68,100,64
1,69,100,64
1,69,100,64
1,71,100,192
1,69,100,128
1,68,100,64
1,71,100,128
1,80,100,64
1,80,100,192
1,78,100,64
1,76,100,64
1,81,100,128
1,81,100,128
1,81,100,64
1,81,100,64
1,80,100,64
1,80,100,2368
1,80,100,64
1,80,100,704
1,80,100,64
1,78,100,64
1,78,100,64
1,78,100,64
1,81,100,64
1,81,100,128
1,81,100,64
1,80,100,64
1,80,100,2432
1,80,100,64
1,80,100,704
1,80,100,64
1,78,100,64
1,78,100,64
1,78,100,64
1,81,100,64
1,81,100,128
1,81,100,64
1,80,100,64
1,80,100,2432
1,80,100,64
1,80,100,704
1,80,100,64
1,78,100,64
1,78,100,64
1,78,100,64
1,81,100,64
1,81,100,128
1,81,100,64
1,80,100,64
1,78,100,64
1,76,100,64
1,78,100,64
1,80,100,64
1,78,100,64
1,76,100,64
1,78,100,64
1,81,100,64
1,81,100,64
1,80,100,64
1,78,100,64
1,76,100,128
1,76,100,448
1,76,100,128
1,76,100,64
1,75,100,128
1,75,100,128
1,73,100,64
1,76,100,128
1,73,100,192
1,73,100,64
1,71,100,64
1,71,100,448
1,69,100,64
1,68,100,64
1,69,100,64
1,69,100,64
1,71,100,192
1,69,100,128
1,69,100,64
1,68,100,64
1,80,100,192
1,80,100,128
1,78,100,64
1,76,100,64
1,81,100,192
1,81,100,64
1,81,100,64
1,80,100,64
1,80,100,64
1,80,100,128
1,80,100,64
1,80,100,64
1,78,100,64
1,80,100,0
1,78,100,32
1,76,100,32
1,76,100,1216
1,76,100,128
1,76,100,64
1,75,100,128
1,75,100,128
1,73,100,64
1,76,100,192
1,73,100,128
1,73,100,64
1,71,100,64
1,71,100,192
1,69,100,64
1,68,100,64
1,69,100,64
1,69,100,64
1,71,100,192
1,69,100,128
1,68,100,64
1,68,100,192
1,68,100,64
1,68,100,128
1,80,100,64
1,80,100,128
1,78,100,64
1,76,100,64
1,76,100,64
1,81,100,128
1,81,100,128
1,81,100,64
1,80,100,64
1,80,100,2368
1,80,100,64
1,80,100,704
1,80,100,64
1,78,100,64
1,78,100,64
1,78,100,64
1,81,100,64
1,81,100,128
1,81,100,64
1,80,100,64
1,80,100,2432
1,80,100,64
1,80,100,704
1,80,100,64
1,78,100,64
1,78,100,64
1,78,100,64
1,81,100,64
1,81,100,128
1,81,100,64
1,80,100,64
1,80,100,2432
1,80,100,64
1,80,100,704
1,80,100,64
1,78,100,64
1,78,100,64
1,78,100,64
1,81,100,64
1,81,100,128
1,81,100,64
1,80,100,64
1,78,100,64
1,76,100,64
1,80,100,64
1,76,100,128
1,78,100,64
1,80,100,64
1,81,100,64
1,80,100,64
1,78,100,64
1,76,100,128
1,76,100,0
1,76,100,128
1,76,100,64
1,75,100,128
1,75,100,128
1,73,100,64
1,76,100,128
1,73,100,192
1,73,100,64
1,71,100,64
1,71,100,448
1,69,100,64
1,68,100,64
1,69,100,64
1,69,100,64
1,71,100,192
1,69,100,128
1,69,100,64
1,68,100,64
1,80,100,192
1,80,100,128
1,78,100,64
1,76,100,64
1,81,100,192
1,81,100,64
1,80,100,128
1,80,100,64
1,78,100,32
1,76,100,32
1,76,100,320
1,75,100,64
1,73,100,64
1,76,100,1280
1,76,100,128
1,76,100,64
1,75,100,128
1,75,100,128
1,73,100,64
1,76,100,192
1,73,100,128
1,73,100,64
1,71,100,64
1,71,100,192
1,69,100,64
1,68,100,64
1,69,100,64
1,69,100,64
1,71,100,192
1,69,100,128
1,68,100,64
1,71,100,128
1,80,100,64
1,80,100,192
1,78,100,64
1,76,100,64
1,81,100,128
1,81,100,128
1,81,100,64
1,81,100,64
1,80,100,64
1,80,100,2368
1,80,100,64
1,80,100,704
1,80,100,64
1,78,100,64
1,78,100,64
1,78,100,64
1,81,100,64
1,81,100,128
1,81,100,64
1,80,100,64
1,80,100,2432
1,80,100,64
1,80,100,704
1,80,100,64
1,78,100,64
1,78,100,64
1,78,100,64
1,81,100,64
1,81,100,128
1,81,100,64
1,80,100,64
1,80,100,2432
1,80,100,64
1,80,100,704
1,80,100,64
1,78,100,64
1,78,100,64
1,78,100,64
1,81,100,64
1,81,100,128
1,81,100,64
1,80,100,64
1,78,100,64
1,76,100,64
1,78,100,64
1,80,100,64
1,78,100,64
1,76,100,64
1,78,100,64
1,81,100,64
1,81,100,64
1,80,100,64
1,78,100,64
1,76,100,128
1,76,100,448
1,79,100,256
1,78,100,64
1,79,100,256
1,78,100,64
1,76,100,448
1,79,100,832
1,78,100,128
1,76,100,64
2,56,100,0
2,59,100,0
2,64,100,0
2,54,100,448
2,59,100,0
2,63,100,0
2,64,100,0
2,54,100,448
2,57,100,0
2,62,100,0
2,64,100,0
2,52,100,320
2,57,100,0
2,61,100,0
2,64,100,0
2,54,100,128
2,59,100,0
2,62,100,0
2,54,100,256
2,59,100,0
2,62,100,0
2,52,100,64
2,57,100,0
2,61,100,0
2,56,100,256
2,59,100,0
2,64,100,0
2,54,100,448
2,59,100,0
2,63,100,0
2,64,100,0
2,54,100,448
2,57,100,0
2,62,100,0
2,64,100,0
2,52,100,320
2,57,100,0
2,61,100,0
2,64,100,0
2,54,100,128
2,59,100,0
2,62,100,0
2,54,100,256
2,59,100,0
2,62,100,0
2,52,100,64
2,57,100,0
2,61,100,0
2,52,100,448
2,56,100,0
2,59,100,0
2,64,100,0
2,54,100,448
2,57,100,0
2,61,100,0
2,64,100,0
2,56,100,512
2,59,100,0
2,63,100,0
2,64,100,0
2,54,100,448
2,57,100,0
2,61,100,0
2,64,100,0
2,52,100,508
2,56,100,0
2,59,100,0
2,64,100,0
2,54,100,448
2,57,100,0
2,61,100,0
2,64,100,0
2,56,100,512
2,59,100,0
2,63,100,0
2,64,100,0
2,54,100,448
2,57,100,0
2,61,100,0
2,64,100,0
2,54,100,64
2,57,100,0
2,61,100,0
2,64,100,0
2,54,100,128
2,57,100,0
2,61,100,0
2,64,100,0
2,52,100,832
2,56,100,0
2,59,100,0
2,64,100,0
2,54,100,448
2,57,100,0
2,61,100,0
2,64,100,0
2,56,100,512
2,59,100,0
2,63,100,0
2,64,100,0
2,54,100,448
2,57,100,0
2,61,100,0
2,64,100,0
2,52,100,508
2,56,100,0
2,59,100,0
2,64,100,0
2,54,100,448
2,57,100,0
2,61,100,0
2,64,100,0
2,56,100,512
2,59,100,0
2,63,100,0
2,64,100,0
2,54,100,448
2,57,100,0
2,61,100,0
2,64,100,0
2,54,100,64
2,57,100,0
2,61,100,0
2,64,100,0
2,64,100,128
2,54,100,0
2,57,100,0
2,61,100,0
2,64,100,832
2,59,100,0
2,71,100,0
2,83,100,384
2,80,100,0
2,76,100,0
2,83,100,64
2,80,100,0
2,76,100,0
2,59,100,384
2,64,100,0
2,68,100,0
2,59,100,64
2,63,100,0
2,66,100,0
2,59,100,128
2,63,100,0
2,66,100,0
2,61,100,64
2,64,100,0
2,69,100,0
2,61,100,192
2,64,100,0
2,69,100,0
2,59,100,64
2,64,100,0
2,68,100,0
2,61,100,128
2,66,100,0
2,69,100,0
2,61,100,256
2,66,100,0
2,69,100,0
2,59,100,64
2,64,100,0
2,68,100,0
2,61,100,832
2,66,100,0
2,69,100,0
2,61,100,256
2,66,100,0
2,69,100,0
2,59,100,64
2,64,100,0
2,68,100,0
2,61,100,448
2,64,100,0
2,68,100,0
2,83,100,384
2,80,100,0
2,76,100,0
2,83,100,64
2,80,100,0
2,76,100,0
2,61,100,384
2,64,100,0
2,68,100,0
2,54,100,64
2,57,100,0
2,63,100,0
2,66,100,0
2,54,100,128
2,57,100,0
2,63,100,0
2,66,100,0
2,61,100,64
2,63,100,0
2,66,100,0
2,69,100,0
2,61,100,192
2,63,100,0
2,66,100,0
2,69,100,0
2,61,100,64
2,64,100,0
2,68,100,0
2,61,100,128
2,66,100,0
2,69,100,0
2,61,100,256
2,66,100,0
2,69,100,0
2,61,100,64
2,64,100,0
2,68,100,0
2,61,100,832
2,66,100,0
2,69,100,0
2,61,100,256
2,66,100,0
2,69,100,0
2,61,100,64
2,64,100,0
2,68,100,0
2,56,100,448
2,61,100,0
2,64,100,0
2,68,100,0
2,83,100,384
2,80,100,0
2,76,100,0
2,83,100,64
2,80,100,0
2,76,100,0
2,56,100,384
2,61,100,0
2,64,100,0
2,68,100,0
2,57,100,64
2,61,100,0
2,66,100,0
2,64,100,0
2,57,100,128
2,61,100,0
2,64,100,0
2,66,100,0
2,57,100,64
2,61,100,0
2,64,100,0
2,69,100,0
2,57,100,192
2,61,100,0
2,64,100,0
2,69,100,0
2,68,100,64
2,57,100,0
2,61,100,0
2,64,100,0
2,57,100,508
2,61,100,0
2,64,100,0
2,68,100,0
2,71,100,0
2,52,100,448
2,56,100,0
2,59,100,0
2,64,100,0
2,52,100,192
2,56,100,0
2,59,100,0
2,64,100,0
2,54,100,448
2,57,100,0
2,61,100,0
2,64,100,0
2,56,100,512
2,59,100,0
2,63,100,0
2,64,100,0
2,54,100,448
2,57,100,0
2,61,100,0
2,64,100,0
2,52,100,508
2,56,100,0
2,59,100,0
2,64,100,0
2,54,100,448
2,57,100,0
2,61,100,0
2,64,100,0
2,56,100,512
2,59,100,0
2,63,100,0
2,64,100,0
2,54,100,448
2,57,100,0
2,61,100,0
2,64,100,0
2,54,100,64
2,57,100,0
2,61,100,0
2,64,100,0
2,54,100,128
2,57,100,0
2,61,100,0
2,64,100,0
2,52,100,832
2,56,100,0
2,59,100,0
2,64,100,0
2,54,100,448
2,57,100,0
2,61,100,0
2,64,100,0
2,56,100,512
2,59,100,0
2,63,100,0
2,64,100,0
2,54,100,448
2,57,100,0
2,61,100,0
2,64,100,0
2,52,100,508
2,56,100,0
2,59,100,0
2,64,100,0
2,54,100,448
2,57,100,0
2,61,100,0
2,64,100,0
2,56,100,512
2,59,100,0
2,63,100,0
2,64,100,0
2,54,100,448
2,57,100,0
2,61,100,0
2,64,100,0
2,54,100,64
2,57,100,0
2,61,100,0
2,64,100,0
2,64,100,128
2,54,100,0
2,57,100,0
2,61,100,0
2,64,100,832
2,59,100,0
2,71,100,0
2,83,100,384
2,80,100,0
2,76,100,0
2,83,100,64
2,80,100,0
2,76,100,0
2,59,100,384
2,64,100,0
2,68,100,0
2,59,100,64
2,63,100,0
2,66,100,0
2,59,100,128
2,63,100,0
2,66,100,0
2,61,100,64
2,64,100,0
2,69,100,0
2,61,100,192
2,64,100,0
2,69,100,0
2,59,100,64
2,64,100,0
2,68,100,0
2,61,100,128
2,66,100,0
2,69,100,0
2,61,100,256
2,66,100,0
2,69,100,0
2,59,100,64
2,64,100,0
2,68,100,0
2,61,100,832
2,66,100,0
2,69,100,0
2,61,100,256
2,66,100,0
2,69,100,0
2,59,100,64
2,64,100,0
2,68,100,0
2,61,100,448
2,64,100,0
2,68,100,0
2,83,100,384
2,80,100,0
2,76,100,0
2,83,100,64
2,80,100,0
2,76,100,0
2,61,100,384
2,64,100,0
2,68,100,0
2,54,100,64
2,57,100,0
2,63,100,0
2,66,100,0
2,54,100,128
2,57,100,0
2,63,100,0
2,66,100,0
2,61,100,64
2,63,100,0
2,66,100,0
2,69,100,0
2,61,100,192
2,63,100,0
2,66,100,0
2,69,100,0
2,61,100,64
2,64,100,0
2,68,100,0
2,61,100,128
2,66,100,0
2,69,100,0
2,61,100,256
2,66,100,0
2,69,100,0
2,61,100,64
2,64,100,0
2,68,100,0
2,61,100,832
2,66,100,0
2,69,100,0
2,61,100,256
2,66,100,0
2,69,100,0
2,61,100,64
2,64,100,0
2,68,100,0
2,56,100,448
2,61,100,0
2,64,100,0
2,68,100,0
2,83,100,384
2,80,100,0
2,76,100,0
2,83,100,64
2,80,100,0
2,76,100,0
2,56,100,384
2,61,100,0
2,64,100,0
2,68,100,0
2,57,100,64
2,61,100,0
2,66,100,0
2,64,100,0
2,57,100,128
2,61,100,0
2,64,100,0
2,66,100,0
2,57,100,64
2,61,100,0
2,64,100,0
2,69,100,0
2,57,100,192
2,61,100,0
2,64,100,0
2,69,100,0
2,57,100,64
2,61,100,0
2,64,100,0
2,68,100,0
2,57,100,448
2,61,100,0
2,64,100,0
2,68,100,0
2,62,100,576
2,67,100,0
2,71,100,0
2,62,100,384
2,67,100,0
2,71,100,0
2,62,100,64
2,66,100,0
2,69,100,0
2,62,100,128
2,66,100,0
2,69,100,0
2,64,100,64
2,67,100,0
2,72,100,0
2,64,100,192
2,67,100,0
2,72,100,0
2,62,100,64
2,67,100,0
2,71,100,0
2,52,100,128
2,57,100,0
2,60,100,0
2,52,100,256
2,57,100,0
2,60,100,0
2,50,100,64
2,55,100,0
2,59,100,0
2,52,100,832
2,57,100,0
2,60,100,0
2,52,100,256
2,57,100,0
2,60,100,0
2,50,100,64
2,55,100,0
2,59,100,0
2,64,100,448
2,67,100,0
2,71,100,0
2,64,100,384
2,67,100,0
2,71,100,0
2,60,100,64
2,64,100,0
2,66,100,0
2,69,100,0
2,60,100,128
2,64,100,0
2,66,100,0
2,69,100,0
2,64,100,64
2,66,100,0
2,69,100,0
2,72,100,0
2,64,100,192
2,66,100,0
2,69,100,0
2,72,100,0
2,64,100,64
2,67,100,0
2,71,100,0
2,52,100,128
2,57,100,0
2,60,100,0
2,52,100,256
2,57,100,0
2,60,100,0
2,52,100,64
2,55,100,0
2,59,100,0
2,52,100,832
2,57,100,0
2,60,100,0
2,52,100,256
2,57,100,0
2,60,100,0
2,52,100,64
2,55,100,0
2,59,100,0
2,67,100,448
2,72,100,0
2,76,100,0
2,67,100,384
2,72,100,0
2,76,100,0
2,67,100,64
2,71,100,0
2,74,100,0
2,67,100,128
2,71,100,0
2,74,100,0
2,69,100,64
2,72,100,0
2,77,100,0
2,69,100,192
2,72,100,0
2,77,100,0
2,67,100,64
2,72,100,0
2,76,100,0
2,57,100,128
2,62,100,0
2,65,100,0
2,57,100,256
2,62,100,0
2,65,100,0
2,55,100,64
2,60,100,0
2,64,100,0
2,55,100,256
2,60,100,0
2,64,100,0
2,57,100,128
2,62,100,0
2,65,100,0
2,57,100,256
2,62,100,0
2,65,100,0
2,57,100,64
2,60,100,0
2,64,100,0
2,57,100,448
2,61,100,0
2,64,100,0
2,57,100,508
2,61,100,0
2,64,100,0
2,68,100,0
2,71,100,0
2,52,100,448
2,56,100,0
2,59,100,0
2,64,100,0
2,54,100,448
2,57,100,0
2,61,100,0
2,64,100,0
2,56,100,512
2,59,100,0
2,63,100,0
2,64,100,0
2,54,100,448
2,57,100,0
2,61,100,0
2,64,100,0
2,52,100,508
2,56,100,0
2,59,100,0
2,64,100,0
2,54,100,448
2,57,100,0
2,61,100,0
2,64,100,0
2,56,100,512
2,59,100,0
2,63,100,0
2,64,100,0
2,54,100,448
2,57,100,0
2,61,100,0
2,64,100,0
2,54,100,64
2,57,100,0
2,61,100,0
2,64,100,0
2,54,100,128
2,57,100,0
2,61,100,0
2,64,100,0
2,52,100,832
2,56,100,0
2,59,100,0
2,64,100,0
2,54,100,448
2,57,100,0
2,61,100,0
2,64,100,0
2,56,100,512
2,59,100,0
2,63,100,0
2,64,100,0
2,54,100,448
2,57,100,0
2,61,100,0
2,64,100,0
2,52,100,508
2,56,100,0
2,59,100,0
2,64,100,0
2,54,100,448
2,57,100,0
2,61,100,0
2,64,100,0
