track,note,velocity,time
1,74,100,5760
1,76,100,4
1,77,100,4
1,77,100,4
1,79,100,4
1,77,100,4
1,76,100,4
1,74,100,4
1,72,100,4
1,74,100,8
1,76,100,4
1,77,100,4
1,77,100,4
1,79,100,4
1,77,100,4
1,76,100,4
1,76,100,196
1,74,100,4
1,77,100,4
1,72,100,8
1,77,100,4
1,70,100,8
1,70,100,4
1,70,100,4
1,70,100,4
1,75,100,4
1,70,100,4
1,69,100,4
1,74,100,4
1,76,100,4
1,77,100,4
1,77,100,4
1,79,100,4
1,77,100,4
1,76,100,4
1,74,100,4
1,72,100,4
1,74,100,8
1,76,100,4
1,77,100,4
1,77,100,4
1,79,100,4
1,77,100,4
1,76,100,4
1,72,100,196
1,74,100,4
1,77,100,4
1,72,100,8
1,77,100,4
1,70,100,8
1,70,100,4
1,70,100,4
1,70,100,4
1,75,100,4
1,70,100,4
1,74,100,4
1,78,100,4
1,79,100,4
1,81,100,4
1,79,100,4
1,78,100,4
1,74,100,4
1,78,100,200
1,79,100,0
1,82,100,4
1,82,100,4
1,81,100,4
1,79,100,4
1,77,100,4
1,76,100,4
1,77,100,4
1,75,100,4
1,79,100,4
1,79,100,8
1,77,100,4
1,75,100,4
1,74,100,4
1,72,100,4
1,74,100,4
1,72,100,4
1,75,100,4
1,75,100,4
1,79,100,4
1,75,100,4
1,74,100,4
1,72,100,4
1,70,100,4
1,70,100,8
1,72,100,4
1,74,100,4
1,72,100,4
1,70,100,4
1,69,100,4
1,70,100,4
1,79,100,964
1,82,100,4
1,82,100,8
1,82,100,4
1,81,100,4
1,79,100,4
1,77,100,4
1,76,100,4
1,77,100,4
1,77,100,4
1,75,100,4
1,79,100,4
1,79,100,8
1,77,100,4
1,75,100,4
1,74,100,4
1,72,100,4
1,74,100,4
1,72,100,4
1,75,100,4
1,75,100,4
1,79,100,4
1,75,100,4
1,74,100,4
1,72,100,4
1,70,100,4
1,70,100,8
1,72,100,4
1,74,100,4
1,72,100,4
1,70,100,4
1,69,100,4
1,70,100,4
1,70,100,4
1,72,100,4
1,74,100,4
1,74,100,4
1,74,100,6536
1,76,100,4
1,77,100,0
1,77,100,4
1,77,100,4
1,79,100,4
1,77,100,4
1,76,100,4
1,74,100,4
1,72,100,4
1,74,100,8
1,76,100,4
1,77,100,4
1,77,100,4
1,79,100,4
1,77,100,4
1,76,100,4
1,76,100,196
1,74,100,4
1,77,100,4
1,77,100,196
1,77,100,4
1,79,100,4
1,77,100,4
1,72,100,4
1,77,100,4
1,77,100,196
1,77,100,4
1,79,100,4
1,77,100,4
1,72,100,4
1,70,100,4
1,70,100,4
1,70,100,4
1,70,100,4
1,75,100,4
1,75,100,4
1,76,100,4
1,76,100,4
1,76,100,4
1,76,100,4
1,76,100,4
1,76,100,4
1,76,100,4
1,77,100,4
1,79,100,4
1,81,100,4
1,79,100,4
1,78,100,4
1,79,100,4
1,77,100,8
1,76,100,4
1,77,100,4
1,72,100,196
1,74,100,4
1,77,100,4
1,72,100,8
1,77,100,4
1,72,100,200
1,70,100,4
1,70,100,4
1,70,100,4
1,70,100,4
1,75,100,4
1,70,100,4
1,74,100,4
1,77,100,4
1,79,100,4
1,81,100,4
1,79,100,4
1,77,100,4
1,74,100,4
1,77,100,200
1,79,100,0
1,82,100,4
1,82,100,4
1,81,100,4
1,79,100,4
1,77,100,4
1,76,100,4
1,77,100,4
1,75,100,4
1,79,100,4
1,79,100,8
1,77,100,4
1,75,100,4
1,74,100,4
1,72,100,4
1,74,100,4
1,72,100,4
1,75,100,4
1,75,100,4
1,79,100,4
1,75,100,4
1,74,100,4
1,72,100,4
1,70,100,4
1,70,100,8
1,72,100,4
1,74,100,4
1,72,100,4
1,70,100,4
1,69,100,4
1,70,100,4
1,79,100,964
1,82,100,4
1,82,100,8
1,82,100,4
1,81,100,4
1,79,100,4
1,77,100,4
1,76,100,4
1,77,100,4
1,77,100,4
1,75,100,4
1,79,100,4
1,79,100,8
1,77,100,4
1,75,100,4
1,74,100,4
1,72,100,4
1,74,100,4
1,72,100,4
1,75,100,4
1,75,100,4
1,79,100,4
1,75,100,4
1,74,100,4
1,72,100,4
1,70,100,4
1,70,100,8
1,72,100,4
1,74,100,4
1,72,100,4
1,70,100,4
1,69,100,4
1,70,100,4
1,70,100,4
1,72,100,4
1,74,100,4
1,74,100,4
2,62,100,0
2,65,100,4
2,65,100,8
2,64,100,4
2,62,100,4
2,60,100,4
2,65,100,4
2,64,100,8
2,60,100,4
2,58,100,4
2,63,100,4
2,58,100,8
2,60,100,4
2,57,100,4
2,62,100,0
2,57,100,580
2,62,100,4
2,65,100,0
2,57,100,4
2,62,100,4
2,65,100,0
2,57,100,4
2,62,100,4
2,65,100,0
2,57,100,4
2,57,100,196
2,64,100,4
2,60,100,0
2,57,100,4
2,64,100,4
2,60,100,0
2,57,100,4
2,64,100,4
2,60,100,0
2,57,100,4
2,57,100,196
2,62,100,4
2,65,100,0
2,57,100,4
2,62,100,4
2,65,100,0
2,57,100,4
2,62,100,4
2,65,100,0
2,57,100,4
2,57,100,196
2,64,100,4
2,60,100,0
2,57,100,4
2,64,100,4
2,60,100,0
2,57,100,4
2,64,100,4
2,60,100,0
2,57,100,4
2,58,100,196
2,62,100,4
2,65,100,0
2,58,100,4
2,62,100,4
2,65,100,0
2,58,100,4
2,62,100,4
2,65,100,0
2,58,100,4
2,57,100,196
2,65,100,4
2,60,100,0
2,57,100,4
2,65,100,4
2,60,100,0
2,57,100,4
2,65,100,4
2,60,100,0
2,57,100,4
2,55,100,196
2,63,100,4
2,58,100,0
2,55,100,4
2,63,100,4
2,58,100,0
2,55,100,4
2,63,100,4
2,58,100,0
2,55,100,4
2,55,100,196
2,64,100,4
2,61,100,0
2,55,100,4
2,64,100,4
2,61,100,0
2,55,100,4
2,64,100,4
2,61,100,0
2,55,100,4
2,57,100,196
2,62,100,4
2,65,100,0
2,57,100,4
2,62,100,4
2,65,100,0
2,57,100,4
2,62,100,4
2,65,100,0
2,57,100,4
2,57,100,196
2,64,100,4
2,60,100,0
2,57,100,4
2,64,100,4
2,60,100,0
2,57,100,4
2,64,100,4
2,60,100,0
2,57,100,4
2,57,100,196
2,62,100,4
2,65,100,0
2,57,100,4
2,62,100,4
2,65,100,0
2,57,100,4
2,62,100,4
2,65,100,0
2,57,100,4
2,57,100,196
2,64,100,4
2,60,100,0
2,57,100,4
2,64,100,4
2,60,100,0
2,57,100,4
2,64,100,4
2,60,100,0
2,57,100,4
2,58,100,196
2,62,100,4
2,65,100,0
2,58,100,4
2,62,100,4
2,65,100,0
2,58,100,4
2,62,100,4
2,65,100,0
2,58,100,4
2,57,100,196
2,65,100,4
2,60,100,0
2,57,100,4
2,65,100,4
2,60,100,0
2,57,100,4
2,65,100,4
2,60,100,0
2,57,100,4
2,55,100,196
2,63,100,4
2,58,100,0
2,55,100,4
2,63,100,4
2,58,100,0
2,55,100,4
2,63,100,4
2,58,100,0
2,55,100,4
2,57,100,196
2,62,100,4
2,65,100,0
2,57,100,4
2,62,100,4
2,65,100,0
2,57,100,4
2,62,100,4
2,65,100,0
2,57,100,4
2,57,100,4
2,62,100,0
2,66,100,0
2,58,100,0
2,62,100,0
2,67,100,0
2,58,100,4
2,62,100,0
2,67,100,0
2,58,100,4
2,62,100,0
2,67,100,0
2,58,100,4
2,62,100,0
2,67,100,0
2,58,100,4
2,62,100,0
2,67,100,0
2,58,100,4
2,62,100,0
2,67,100,0
2,58,100,4
2,62,100,0
2,67,100,0
2,58,100,4
2,62,100,0
2,67,100,0
2,57,100,4
2,62,100,0
2,65,100,0
2,57,100,4
2,62,100,0
2,65,100,0
2,57,100,4
2,62,100,0
2,65,100,0
2,57,100,4
2,62,100,0
2,65,100,0
2,57,100,4
2,62,100,0
2,65,100,0
2,57,100,4
2,62,100,0
2,65,100,0
2,57,100,4
2,62,100,0
2,65,100,0
2,57,100,4
2,62,100,0
2,65,100,0
2,55,100,4
2,58,100,0
2,63,100,0
2,55,100,4
2,58,100,0
2,63,100,0
2,55,100,4
2,58,100,0
2,63,100,0
2,55,100,4
2,58,100,0
2,63,100,0
2,55,100,4
2,58,100,0
2,63,100,0
2,55,100,4
2,58,100,0
2,63,100,0
2,55,100,4
2,58,100,0
2,63,100,0
2,55,100,4
2,58,100,0
2,63,100,0
2,58,100,4
2,62,100,0
2,65,100,0
2,58,100,4
2,62,100,0
2,65,100,0
2,58,100,4
2,62,100,0
2,65,100,0
2,58,100,4
2,62,100,0
2,65,100,0
2,58,100,4
2,62,100,0
2,65,100,0
2,58,100,4
2,62,100,0
2,65,100,0
2,58,100,4
2,62,100,0
2,65,100,0
2,58,100,4
2,62,100,0
2,65,100,0
2,60,100,4
2,63,100,0
2,67,100,0
2,60,100,4
2,63,100,0
2,67,100,0
2,60,100,4
2,63,100,0
2,67,100,0
2,60,100,4
2,63,100,0
2,67,100,0
2,60,100,4
2,63,100,0
2,67,100,0
2,60,100,4
2,63,100,0
2,67,100,0
2,60,100,4
2,63,100,0
2,67,100,0
2,60,100,4
2,63,100,0
2,67,100,0
2,58,100,4
2,62,100,0
2,67,100,0
2,58,100,4
2,62,100,0
2,67,100,0
2,58,100,4
2,62,100,0
2,67,100,0
2,58,100,4
2,62,100,0
2,67,100,0
2,58,100,4
2,62,100,0
2,67,100,0
2,58,100,4
2,62,100,0
2,67,100,0
2,58,100,4
2,62,100,0
2,67,100,0
2,58,100,4
2,62,100,0
2,67,100,0
2,57,100,4
2,62,100,0
2,66,100,0
2,57,100,4
2,62,100,0
2,66,100,0
2,57,100,4
2,62,100,0
2,66,100,0
2,57,100,4
2,62,100,0
2,66,100,0
2,66,100,4
2,57,100,0
2,62,100,0
2,66,100,4
2,57,100,0
2,62,100,0
2,66,100,4
2,57,100,0
2,62,100,0
2,66,100,4
2,57,100,0
2,62,100,0
2,58,100,4
2,62,100,0
2,67,100,0
2,58,100,4
2,62,100,0
2,67,100,0
2,58,100,4
2,62,100,0
2,67,100,0
2,58,100,4
2,62,100,0
2,67,100,0
2,60,100,4
2,62,100,0
2,67,100,0
2,60,100,4
2,62,100,0
2,67,100,0
2,60,100,4
2,62,100,0
2,66,100,0
2,60,100,4
2,62,100,0
2,66,100,0
2,58,100,4
2,62,100,0
2,67,100,0
2,58,100,4
2,62,100,0
2,67,100,0
2,58,100,4
2,62,100,0
2,67,100,0
2,58,100,4
2,62,100,0
2,67,100,0
2,58,100,4
2,62,100,0
2,67,100,0
2,58,100,4
2,62,100,0
2,67,100,0
2,58,100,4
2,62,100,0
2,67,100,0
2,58,100,4
2,62,100,0
2,67,100,0
2,57,100,4
2,62,100,0
2,65,100,0
2,57,100,4
2,62,100,0
2,65,100,0
2,57,100,4
2,62,100,0
2,65,100,0
2,57,100,4
2,62,100,0
2,65,100,0
2,57,100,4
2,62,100,0
2,65,100,0
2,57,100,4
2,62,100,0
2,65,100,0
2,57,100,4
2,62,100,0
2,65,100,0
2,57,100,4
2,62,100,0
2,65,100,0
2,55,100,4
2,58,100,0
2,63,100,0
2,55,100,4
2,58,100,0
2,63,100,0
2,55,100,4
2,58,100,0
2,63,100,0
2,55,100,4
2,58,100,0
2,63,100,0
2,55,100,4
2,58,100,0
2,63,100,0
2,55,100,4
2,58,100,0
2,63,100,0
2,55,100,4
2,58,100,0
2,63,100,0
2,55,100,4
2,58,100,0
2,63,100,0
2,58,100,4
2,62,100,0
2,65,100,0
2,58,100,4
2,62,100,0
2,65,100,0
2,58,100,4
2,62,100,0
2,65,100,0
2,58,100,4
2,62,100,0
2,65,100,0
2,58,100,4
2,62,100,0
2,65,100,0
2,58,100,4
2,62,100,0
2,65,100,0
2,58,100,4
2,62,100,0
2,65,100,0
2,58,100,4
2,62,100,0
2,65,100,0
2,60,100,4
2,63,100,0
2,67,100,0
2,60,100,4
2,63,100,0
2,67,100,0
2,60,100,4
2,63,100,0
2,67,100,0
2,60,100,4
2,63,100,0
2,67,100,0
2,60,100,4
2,63,100,0
2,67,100,0
2,60,100,4
2,63,100,0
2,67,100,0
2,60,100,4
2,63,100,0
2,67,100,0
2,60,100,4
2,63,100,0
2,67,100,0
2,58,100,4
2,62,100,0
2,67,100,0
2,58,100,4
2,62,100,0
2,67,100,0
2,58,100,4
2,62,100,0
2,67,100,0
2,58,100,4
2,62,100,0
2,67,100,0
2,58,100,4
2,62,100,0
2,67,100,0
2,58,100,4
2,62,100,0
2,67,100,0
2,58,100,4
2,62,100,0
2,67,100,0
2,58,100,4
2,62,100,0
2,67,100,0
2,57,100,4
2,62,100,0
2,66,100,0
2,57,100,4
2,62,100,0
2,66,100,0
2,57,100,4
2,62,100,0
2,66,100,0
2,57,100,4
2,62,100,0
2,66,100,0
2,66,100,4
2,57,100,0
2,62,100,0
2,66,100,4
2,57,100,0
2,62,100,0
2,66,100,4
2,57,100,0
2,62,100,0
2,66,100,4
2,57,100,0
2,62,100,0
2,58,100,4
2,62,100,0
2,67,100,0
2,58,100,4
2,62,100,0
2,67,100,0
2,58,100,4
2,62,100,0
2,67,100,0
2,58,100,4
2,62,100,0
2,67,100,0
2,58,100,4
2,62,100,0
2,67,100,0
2,58,100,4
2,62,100,0
2,67,100,0
2,58,100,4
2,62,100,0
2,67,100,0
2,58,100,4
2,62,100,0
2,67,100,0
2,60,100,4
2,62,100,0
2,66,100,0
2,62,100,4
2,62,100,4
2,65,100,4
2,67,100,4
2,74,100,196
2,70,100,0
2,67,100,0
2,62,100,0
2,62,100,4
2,62,100,4
2,65,100,4
2,67,100,4
2,74,100,196
2,70,100,0
2,67,100,0
2,62,100,0
2,62,100,4
2,62,100,4
2,65,100,4
2,67,100,4
2,57,100,196
2,69,100,0
2,62,100,384
2,64,100,0
2,62,100,4
2,64,100,0
2,62,100,4
2,64,100,0
2,62,100,4
2,64,100,0
2,61,100,4
2,64,100,0
2,61,100,4
2,64,100,0
2,61,100,4
2,64,100,0
2,61,100,4
2,64,100,0
2,62,100,4
2,64,100,0
2,61,100,4
2,64,100,0
2,57,100,192
2,62,100,4
2,65,100,0
2,57,100,4
2,62,100,4
2,65,100,0
2,57,100,4
2,62,100,4
2,65,100,0
2,57,100,4
2,57,100,196
2,64,100,4
2,60,100,0
2,57,100,4
2,64,100,4
2,60,100,0
2,57,100,4
2,64,100,4
2,60,100,0
2,57,100,4
2,57,100,196
2,62,100,4
2,65,100,0
2,57,100,4
2,62,100,4
2,65,100,0
2,57,100,4
2,62,100,4
2,65,100,0
2,57,100,4
2,57,100,196
2,64,100,4
2,60,100,0
2,57,100,4
2,64,100,4
2,60,100,0
2,57,100,4
2,64,100,4
2,60,100,0
2,57,100,4
2,58,100,196
2,62,100,4
2,65,100,0
2,58,100,4
2,62,100,4
2,65,100,0
2,58,100,4
2,62,100,4
2,65,100,0
2,58,100,4
2,57,100,196
2,65,100,4
2,60,100,0
2,57,100,4
2,65,100,4
2,60,100,0
2,57,100,4
2,65,100,4
2,60,100,0
2,57,100,4
2,55,100,196
2,63,100,4
2,58,100,0
2,55,100,4
2,63,100,4
2,58,100,0
2,55,100,4
2,63,100,4
2,58,100,0
2,55,100,4
2,55,100,4
2,61,100,0
2,64,100,0
2,55,100,4
2,61,100,0
2,64,100,0
2,55,100,4
2,61,100,0
2,64,100,0
2,55,100,4
2,61,100,0
2,64,100,0
2,55,100,4
2,61,100,0
2,64,100,0
2,55,100,4
2,61,100,0
2,64,100,0
2,55,100,4
2,61,100,0
2,64,100,0
2,55,100,4
2,61,100,0
2,64,100,0
2,62,100,4
2,62,100,4
2,64,100,4
2,57,100,4
2,62,100,0
2,65,100,0
2,64,100,4
2,62,100,4
2,60,100,4
2,59,100,4
2,62,100,0
2,65,100,0
2,57,100,4
2,57,100,4
2,59,100,4
2,57,100,4
2,60,100,0
2,64,100,0
2,59,100,4
2,57,100,4
2,59,100,4
2,57,100,4
2,60,100,0
2,64,100,0
2,62,100,4
2,62,100,4
2,64,100,4
