track,note,velocity,time
3,38,87,1307
3,38,76,46
3,38,95,52
3,38,85,27
3,36,83,23
3,36,0,67
3,38,87,25
3,31,94,12
3,31,91,42
3,31,110,45
3,38,84,23
3,38,0,68
3,35,97,26
3,35,0,71
3,31,89,22
3,31,0,72
3,38,97,37
3,38,100,48
3,38,0,43
3,38,100,57
3,38,96,50
3,36,81,36
3,33,102,27
3,33,0,69
3,31,107,25
3,31,0,445
3,31,94,35
3,31,0,59
3,31,104,40
3,35,101,29
3,35,0,74
3,38,96,20
3,35,90,26
3,35,0,74
3,38,111,25
3,38,0,435
3,38,101,43
3,38,0,52
3,38,102,47
3,38,0,227
3,38,114,59
3,38,0,62
3,36,110,34
3,36,0,62
3,33,100,33
3,33,0,65
3,31,106,32
3,31,0,445
3,31,87,33
3,31,0,59
3,31,100,40
3,31,0,244
3,35,97,43
3,35,0,70
3,38,107,26
3,38,0,67
3,35,90,29
3,35,0,71
3,38,97,26
3,38,0,440
3,38,98,37
3,38,0,48
3,38,102,50
3,38,0,228
3,38,91,57
3,38,0,66
3,36,98,31
3,36,0,69
3,33,96,27
3,33,0,74
3,31,110,24
3,31,99,134
3,31,0,48
3,31,109,49
3,31,0,241
3,31,110,46
3,31,0,69
3,38,109,27
3,38,0,56
3,31,107,39
3,31,0,73
3,36,107,25
3,36,0,441
3,31,103,39
3,31,0,71
3,36,104,25
3,36,0,272
3,43,106,17
3,43,0,64
3,36,106,32
3,36,0,65
3,38,102,29
3,38,0,86
3,31,97,11
3,31,0,77
3,31,113,210
3,31,0,47
3,31,103,49
3,31,0,52
3,31,93,45
3,31,0,69
3,36,94,27
3,36,0,55
3,36,99,40
3,36,0,58
3,36,97,37
3,36,0,73
3,38,103,24
3,38,0,77
3,36,107,18
3,36,0,66
3,33,102,30
3,33,0,79
3,31,110,17
3,31,0,246
3,31,104,42
3,31,0,143
3,31,100,49
3,38,96,12
3,38,102,49
3,38,0,82
3,36,94,15
3,31,105,23
3,31,0,445
3,31,95,35
3,31,0,59
3,31,108,40
3,31,0,257
3,35,101,29
3,35,0,74
3,38,95,20
3,38,0,70
3,35,91,26
3,35,0,74
3,38,107,25
3,38,0,435
3,38,101,43
3,38,0,52
3,38,102,47
3,38,0,227
3,38,115,59
3,38,0,62
3,36,109,34
3,36,0,62
3,33,99,33
3,33,0,65
3,31,100,32
3,31,0,445
3,31,82,33
3,31,0,59
3,31,104,40
3,31,0,244
3,35,103,43
3,35,0,70
3,38,103,26
3,38,0,67
3,35,89,29
3,35,0,71
3,38,95,26
3,38,0,440
3,38,102,37
3,38,0,48
3,38,103,50
3,38,0,228
3,38,90,57
3,38,0,66
3,36,98,31
3,36,0,69
3,33,99,27
3,33,0,74
3,31,113,24
3,31,95,134
3,31,0,48
3,31,108,49
3,31,0,241
3,31,110,46
3,31,0,69
3,38,111,27
3,38,0,56
3,31,114,39
3,31,0,73
3,36,114,25
3,36,0,441
3,31,103,39
3,31,0,71
3,36,102,25
3,36,0,272
3,43,108,17
3,43,0,64
3,36,110,32
3,36,0,65
3,38,106,29
3,38,0,86
3,31,102,11
3,31,0,77
3,31,113,210
3,31,0,47
3,31,103,49
3,31,0,52
3,31,95,45
3,31,0,69
3,36,98,27
3,36,0,55
3,36,97,40
3,36,0,58
3,36,100,37
3,36,0,73
3,38,109,24
3,38,0,77
3,36,103,18
3,36,0,66
3,33,101,30
3,33,0,79
3,31,108,17
3,31,0,246
3,31,100,42
3,31,0,143
3,31,97,49
3,38,96,12
3,38,0,286
3,35,99,2
3,35,0,286
3,36,114,2
3,36,0,302
3,36,107,177
3,36,0,56
3,36,114,41
3,36,0,329
3,43,95,54
3,43,0,82
3,36,89,14
3,36,0,88
3,35,105,9
3,35,0,431
3,35,102,48
3,35,0,64
3,35,102,34
3,35,0,248
3,42,99,39
3,42,0,74
3,35,81,22
3,35,0,79
3,38,101,17
3,38,0,79
3,40,97,17
3,40,0,428
3,40,88,51
3,40,0,68
3,40,97,29
3,40,0,279
3,47,99,10
3,47,0,91
3,40,110,4
3,40,0,92
3,38,107,5
3,38,0,76
3,36,103,20
3,36,0,167
3,36,92,24
3,36,0,91
3,43,90,6
3,43,0,80
3,36,95,15
3,36,0,137
3,26,103,54
3,26,0,270
3,38,95,19
3,38,0,53
3,38,90,43
3,38,0,80
3,36,88,16
3,36,0,74
3,31,105,22
3,31,0,445
3,31,97,35
3,31,0,59
3,31,107,40
3,31,0,257
3,35,101,29
3,35,0,74
3,38,94,20
3,38,0,70
3,35,87,26
3,35,0,74
3,38,110,25
3,38,0,435
3,38,99,43
3,38,0,52
3,38,100,47
3,38,0,227
3,38,113,59
3,38,0,62
3,36,104,34
3,36,0,62
3,33,96,33
3,33,0,65
3,31,103,32
3,31,0,445
3,31,86,33
3,31,0,59
3,31,106,40
3,31,0,244
3,35,98,43
3,38,103,26
3,38,0,67
3,35,91,29
3,35,0,71
3,38,98,26
3,38,0,440
3,38,97,37
3,38,0,48
3,38,98,50
3,38,0,228
3,38,94,57
3,38,0,66
3,36,103,31
3,36,0,69
3,33,100,27
3,33,0,74
3,31,113,24
3,31,95,134
3,31,0,48
3,31,109,49
3,31,0,241
3,31,112,46
3,31,0,69
3,38,104,27
3,38,0,56
3,31,113,39
3,31,0,73
3,36,111,25
3,36,0,441
3,31,103,39
3,31,0,71
3,36,107,25
3,36,0,272
3,43,105,17
3,43,0,64
3,36,105,32
3,36,0,65
3,38,107,29
3,38,0,86
3,31,99,11
3,31,0,77
3,31,114,210
3,31,0,47
3,31,105,49
3,31,0,52
3,31,95,45
3,31,0,69
3,36,95,27
3,36,0,55
3,36,102,40
3,36,0,58
3,36,103,37
3,36,0,73
3,38,103,24
3,38,0,77
3,36,100,18
3,36,0,66
3,33,106,30
3,33,0,79
3,31,104,17
3,31,0,246
3,31,101,42
3,31,0,143
3,31,93,49
3,31,0,85
3,38,94,12
3,38,0,333
3,38,99,49
3,38,0,82
3,36,89,15
3,36,0,74
3,31,105,23
3,31,93,35
3,31,109,40
3,31,0,257
3,35,101,29
3,38,94,20
3,38,0,70
3,35,91,26
3,38,111,25
3,38,99,43
3,38,0,52
3,38,101,47
3,38,0,227
3,38,116,59
3,36,109,34
3,36,0,62
3,33,94,33
3,33,0,65
3,31,107,32
3,31,0,445
3,31,86,33
3,31,100,40
3,31,0,244
3,35,96,43
3,38,101,26
3,38,0,67
3,35,85,29
3,35,0,71
3,38,94,26
3,38,100,37
3,38,100,50
3,38,96,57
3,36,100,31
3,36,0,69
3,33,103,27
3,33,0,74
3,31,110,24
3,31,95,134
3,31,0,48
3,31,106,49
3,31,0,241
3,31,112,46
3,31,0,69
3,38,107,27
3,38,0,56
3,31,107,39
3,31,0,73
3,36,107,25
3,36,0,441
3,31,109,39
3,31,0,71
3,36,106,25
3,36,0,272
3,43,110,17
3,43,0,64
3,36,106,32
3,36,0,65
3,38,102,29
3,38,0,86
3,31,98,11
3,31,0,77
3,31,109,210
3,31,0,47
3,31,104,49
3,31,0,52
3,31,97,45
3,31,0,69
3,36,93,27
3,36,0,55
3,36,102,40
3,36,0,58
3,36,96,37
3,36,0,73
3,38,108,24
3,38,0,77
3,36,106,18
3,36,0,66
3,33,100,30
3,33,0,79
3,31,107,17
3,31,0,246
3,31,105,42
3,31,99,49
3,31,0,85
3,36,98,16
3,38,93,6
3,38,0,93
3,36,88,3
3,36,0,94
3,38,105,4
3,38,0,83
3,31,97,10
3,31,0,77
3,31,107,210
3,31,0,47
3,31,104,49
3,31,0,52
3,31,99,45
3,31,0,69
3,36,94,27
3,36,0,55
3,36,100,40
3,36,0,58
3,36,99,37
3,36,0,73
3,38,109,24
3,38,0,77
3,36,102,18
3,36,0,66
3,33,104,30
3,33,0,79
3,31,109,17
3,31,0,246
3,31,106,42
3,31,94,49
3,31,0,85
3,36,93,16
3,38,94,6
3,38,0,93
3,36,93,3
3,36,0,94
3,38,102,4
3,38,0,83
3,31,100,10
3,31,0,77
3,31,100,232
3,31,102,34
3,31,0,72
3,31,106,45
3,31,0,92
3,36,103,26
3,36,0,78
3,36,107,41
3,36,0,69
3,36,97,42
3,38,110,25
3,38,0,104
3,36,110,10
3,36,0,118
3,34,105,9
3,34,0,109
3,31,98,11
4,84,79,1466
4,86,69,0
4,90,68,0
4,93,72,0
4,90,0,9
4,89,83,4
4,86,70,2
4,91,74,0
4,95,67,0
4,89,0,17
4,86,71,18
4,90,71,0
4,93,70,0
4,84,67,1
4,86,0,1126
4,93,0,1
4,90,0,2
4,84,0,9
4,89,83,12
4,86,74,2
4,91,67,0
4,95,73,0
4,91,0,1104
4,86,0,7
4,95,0,5
4,89,0,17
4,86,74,18
4,90,71,0
4,93,68,0
4,84,69,1
4,86,0,1126
4,93,0,1
4,90,0,2
4,84,0,9
4,89,82,12
4,86,74,2
4,91,74,0
4,95,70,0
4,91,0,1104
4,86,0,7
4,95,0,5
4,89,0,17
4,86,70,18
4,90,74,0
4,93,74,0
4,84,68,1
4,86,0,1126
4,93,0,1
4,90,0,2
4,84,0,9
4,83,68,12
4,86,69,2
4,91,69,0
4,89,81,574
4,91,0,530
4,86,0,7
4,83,0,2
4,89,0,34
4,88,74,3
4,91,72,0
4,84,72,2
4,88,0,1125
4,91,0,3
4,84,0,10
4,83,71,12
4,86,67,2
4,91,73,0
4,83,0,44
4,86,0,2
4,91,0,0
4,89,83,2256
4,86,67,2
4,91,68,0
4,95,70,0
4,91,0,1104
4,86,0,7
4,95,0,5
4,89,0,17
4,86,74,18
4,90,67,0
4,93,74,0
4,84,67,1
4,86,0,1126
4,93,0,1
4,90,0,2
4,84,0,9
4,89,81,12
4,86,72,2
4,91,74,0
4,95,73,0
4,91,0,1104
4,86,0,7
4,95,0,5
4,89,0,17
4,86,72,18
4,90,71,0
4,93,71,0
4,84,67,1
4,86,0,1126
4,93,0,1
4,90,0,2
4,84,0,9
4,83,68,12
4,86,75,2
4,91,73,0
4,89,82,574
4,91,0,530
4,86,0,7
4,83,0,2
4,89,0,34
4,88,71,3
4,91,72,0
4,84,74,2
4,88,0,1125
4,91,0,3
4,84,0,10
4,83,70,12
4,86,68,2
4,91,74,0
4,83,0,44
4,86,0,2
4,91,0,0
4,79,67,2256
4,84,76,0
4,88,68,0
4,88,0,1139
4,79,0,1
4,84,0,1
4,86,69,9
4,90,71,1
4,83,74,1
4,83,0,1104
4,86,0,4
4,90,0,5
4,91,70,39
4,83,67,1
4,88,69,0
4,91,0,1135
4,83,0,1
4,88,0,1
4,84,68,24
4,88,73,1
4,79,67,1
4,79,0,537
4,84,0,2
4,88,0,1
4,81,86,106
4,83,83,3
4,84,121,5
4,83,0,11
4,81,0,154
4,84,0,4
4,81,82,34
4,83,80,2
4,84,121,4
4,83,0,9
4,81,0,132
4,84,0,7
4,83,87,33
4,81,85,4
4,84,113,1
4,83,0,16
4,89,77,75
4,81,0,1
4,84,0,0
4,86,73,1
4,91,70,0
4,95,71,0
4,91,0,1104
4,86,0,7
4,95,0,5
4,89,0,17
4,86,70,18
4,90,72,0
4,93,67,0
4,84,74,1
4,86,0,1126
4,93,0,1
4,90,0,2
4,84,0,9
4,89,79,12
4,86,69,2
4,91,67,0
4,95,73,0
4,91,0,1104
4,86,0,7
4,95,0,5
4,89,0,17
4,86,67,18
4,90,71,0
4,93,74,0
4,84,70,1
4,86,0,1126
4,93,0,1
4,90,0,2
4,84,0,9
4,83,74,12
4,86,68,2
4,91,74,0
4,89,81,574
4,91,0,530
4,86,0,7
4,83,0,2
4,89,0,34
4,88,73,3
4,91,67,0
4,84,73,2
4,88,0,1125
4,91,0,3
4,84,0,10
4,83,74,12
4,86,68,2
4,91,67,0
4,83,0,44
4,86,0,2
4,91,0,0
4,89,83,2256
4,86,67,2
4,91,68,0
4,95,74,0
4,89,0,17
4,86,73,18
4,90,69,0
4,93,67,0
4,84,73,1
4,86,0,1126
4,93,0,1
4,90,0,2
4,84,0,9
4,89,81,12
4,86,72,2
4,91,67,0
4,95,67,0
4,91,0,1104
4,86,0,7
4,95,0,5
4,89,0,17
4,86,69,18
4,90,69,0
4,93,70,0
4,84,74,1
4,86,0,1126
4,93,0,1
4,90,0,2
4,84,0,9
4,83,67,12
4,86,68,2
4,91,68,0
4,89,76,574
4,91,0,530
4,86,0,7
4,83,0,2
4,89,0,34
4,88,69,3
4,91,72,0
4,84,73,2
4,88,0,1125
4,91,0,3
4,84,0,10
4,83,70,12
4,86,72,2
4,91,70,0
4,83,0,44
4,86,0,2
4,91,0,0
4,83,69,2256
4,86,72,2
4,91,71,0
4,83,0,44
4,86,0,2
4,91,0,0
4,83,67,2256
4,86,67,2
4,91,74,0
4,83,0,44
4,86,0,2
4,91,0,0
5,67,106,5234
5,67,0,57
5,67,101,39
5,67,0,105
5,67,97,38
5,67,0,45
5,64,114,14
5,64,0,164
5,62,98,6
5,62,0,103
5,62,99,446
5,62,0,54
5,62,107,40
5,62,0,103
5,62,91,36
5,62,0,44
5,59,106,13
5,59,0,150
5,57,94,4
5,57,0,133
5,67,103,432
5,67,0,63
5,67,99,30
5,67,0,84
5,67,112,51
5,67,0,39
5,67,109,31
5,67,0,54
5,64,110,9
5,64,0,109
5,62,97,1
5,62,0,104
5,62,97,597
5,62,0,52
5,62,97,34
5,62,0,95
5,62,90,45
5,62,0,45
5,59,111,12
5,59,0,114
5,57,105,4
5,57,0,163
5,59,95,12
5,57,71,44
5,59,0,9
5,57,0,35
5,55,100,3
5,55,0,156
5,59,94,22
5,59,0,59
5,57,89,16
5,57,0,151
5,55,94,13
5,55,0,36
5,55,87,34
5,55,0,76
5,55,83,27
5,55,0,240
5,55,94,458
5,55,0,87
5,60,103,7
5,60,0,97
5,62,97,5
5,62,0,92
5,64,109,8
5,62,87,166
5,64,0,5
5,60,97,36
5,62,0,5
5,60,0,111
5,67,106,537
5,67,0,60
5,64,103,37
5,64,0,69
5,62,101,16
5,62,0,68
5,57,101,32
5,57,0,58
5,55,94,35
5,55,0,58
5,55,103,39
5,55,0,74
5,57,104,25
5,57,0,79
5,55,103,21
5,55,0,63
5,57,104,25
5,57,0,80
5,55,108,19
5,55,0,169
5,67,92,1072
5,67,0,32
5,67,96,30
5,67,0,78
5,67,95,49
5,67,0,36
5,67,95,30
5,67,0,35
5,67,99,40
5,67,0,70
5,64,106,42
5,64,0,78
5,62,91,35
5,62,0,51
5,64,100,3
5,64,0,121
5,62,84,547
5,62,0,32
5,62,98,33
5,62,0,82
5,62,104,30
5,62,0,69
5,62,92,46
5,62,0,46
5,59,94,30
5,59,0,118
5,57,110,13
5,57,0,131
5,67,105,601
5,67,0,54
5,67,104,40
5,67,0,52
5,67,96,39
5,67,0,44
5,64,95,13
5,64,0,109
5,62,91,7
5,62,0,133
5,59,103,185
5,59,0,36
5,60,102,13
5,60,0,34
5,62,114,25
5,62,0,83
5,62,94,25
5,62,0,32
5,62,101,24
5,62,0,57
5,62,102,41
5,62,0,57
5,62,98,26
5,62,0,47
5,62,100,31
5,62,0,59
5,59,110,24
5,59,0,116
5,57,111,11
5,57,0,179
5,59,120,15
5,59,0,48
5,57,91,4
5,57,0,49
5,55,100,5
5,55,0,216
5,59,99,22
5,59,0,59
5,57,86,16
5,57,0,123
5,55,89,4
5,55,0,25
5,55,81,19
5,55,0,81
5,55,99,28
5,55,0,176
5,55,93,579
5,55,0,87
5,60,103,7
5,60,0,97
5,62,97,5
5,62,0,92
5,64,109,8
5,64,0,140
5,62,82,1
5,60,83,35
5,62,0,1
5,60,0,99
5,67,100,584
5,67,0,60
5,64,101,37
5,64,0,69
5,62,104,16
5,62,0,68
5,57,102,32
5,57,0,58
5,55,94,35
5,55,0,58
5,55,101,39
5,55,0,74
5,57,110,25
5,57,0,79
5,55,100,21
5,55,0,63
5,57,111,25
5,57,0,80
5,55,111,19
5,55,0,169
5,64,88,1153
5,64,0,29
5,64,97,34
5,64,0,31
5,64,114,40
5,64,0,81
5,62,86,17
5,62,0,66
5,60,80,12
5,60,0,40
5,60,88,28
