track,note,velocity,time
3,32,105,3060
3,32,0,3826
3,29,106,12
3,29,0,3826
3,34,101,17
3,34,0,3826
3,37,99,11
3,37,0,3826
3,25,98,16
3,25,0,3826
3,32,101,15
3,32,0,267
3,32,104,52
3,32,0,170
3,32,102,312
3,32,0,148
3,32,99,11
3,32,0,244
3,32,101,72
3,32,0,145
3,32,102,20
3,32,0,149
3,31,98,9
3,31,0,146
3,30,101,14
3,30,0,144
3,29,101,16
3,29,0,302
3,29,104,17
3,29,0,156
3,29,102,326
3,29,0,112
3,29,105,48
3,29,0,304
3,29,106,12
3,29,0,94
3,29,101,68
3,29,0,153
3,31,105,7
3,31,0,152
3,32,104,8
3,32,0,146
3,34,103,13
3,34,0,267
3,34,106,57
3,34,0,170
3,34,104,308
3,34,0,148
3,34,101,13
3,34,0,244
3,34,101,73
3,34,0,145
3,34,100,14
3,34,0,149
3,31,104,15
3,31,0,146
3,29,101,10
3,29,0,144
3,27,103,20
3,27,0,302
3,27,102,15
3,27,0,156
3,27,104,328
3,27,0,112
3,27,99,44
3,27,0,304
3,27,102,17
3,27,0,94
3,27,103,66
3,27,0,153
3,29,101,9
3,29,0,152
3,32,104,6
3,32,0,461
3,32,103,22
3,32,0,170
3,32,98,309
3,32,0,148
3,32,106,8
3,32,0,244
3,32,99,79
3,32,0,145
3,32,101,13
3,32,0,149
3,31,102,10
3,31,0,146
3,30,100,19
3,30,0,144
3,29,105,15
3,29,0,302
3,29,107,18
3,29,0,156
3,29,106,325
3,29,0,112
3,29,98,44
3,29,0,304
3,29,101,15
3,29,0,94
3,29,98,70
3,29,0,153
3,31,99,6
3,31,0,152
3,32,103,7
3,32,0,146
3,34,104,15
3,34,0,267
3,34,101,55
3,34,0,170
3,34,98,309
3,34,0,148
3,34,102,12
3,34,0,244
3,34,107,75
3,34,0,145
3,34,105,15
3,34,0,149
3,31,100,10
3,31,0,146
3,29,100,14
3,29,0,144
3,27,105,18
3,27,0,302
3,27,105,15
3,27,0,156
3,27,98,324
3,27,0,112
3,27,100,48
3,27,0,304
3,27,107,16
3,27,0,94
3,27,100,70
3,27,0,153
3,29,103,4
3,29,0,152
3,31,101,8
3,31,0,146
3,32,102,15
3,32,0,306
3,32,99,16
3,32,0,146
3,27,102,171
3,27,0,146
3,29,102,17
3,29,0,146
3,32,103,10
3,32,0,146
3,27,101,658
3,27,0,146
3,32,98,14
3,32,0,306
3,32,100,12
3,32,0,146
3,27,103,173
3,27,0,146
3,29,107,13
3,29,0,146
3,32,102,18
3,32,0,146
3,39,106,490
3,39,0,146
3,40,99,17
3,40,0,146
3,41,102,12
3,41,0,306
3,41,103,17
3,41,0,146
3,36,105,172
3,36,0,146
3,39,102,11
3,39,0,146
3,41,107,17
3,41,0,146
3,41,98,652
3,41,0,146
3,41,98,13
3,41,0,306
3,41,101,19
3,41,0,146
3,36,103,170
3,36,0,146
3,39,100,18
3,39,0,146
3,41,100,14
3,41,0,146
3,41,105,493
3,41,0,146
3,36,107,12
3,36,0,146
3,34,106,14
3,34,0,306
3,34,106,14
3,34,0,146
3,29,103,174
3,29,0,146
3,32,98,15
3,32,0,146
3,34,107,16
3,34,0,146
3,34,99,654
3,34,0,146
3,34,98,9
3,34,0,306
3,34,105,15
3,34,0,146
3,29,98,177
3,29,0,146
3,32,98,10
3,32,0,146
3,34,105,16
3,34,0,146
3,34,105,492
3,34,0,146
3,36,102,14
3,36,0,146
3,37,100,17
3,37,0,306
3,37,103,12
3,37,0,146
3,32,105,176
3,32,0,146
3,34,106,11
3,34,0,146
3,37,106,15
3,37,0,146
3,32,101,657
3,32,0,146
3,37,98,13
3,37,0,306
3,37,105,12
3,37,0,146
3,32,101,173
3,32,0,146
3,34,98,15
3,34,0,146
3,37,99,18
3,37,0,146
3,37,102,493
3,37,0,146
3,34,98,12
3,34,0,146
3,36,101,17
3,36,0,306
3,36,101,14
3,36,0,146
3,31,100,174
3,31,0,146
3,34,102,12
3,34,0,146
3,36,101,11
3,36,0,146
3,39,103,498
3,39,0,146
3,40,98,12
3,40,0,146
3,41,104,14
3,41,0,306
3,41,101,12
3,41,0,146
3,36,106,178
3,36,0,146
3,40,105,13
3,40,0,146
3,41,101,14
3,41,0,146
3,41,100,496
3,41,0,146
3,36,103,10
3,36,0,146
3,34,98,17
3,34,0,306
3,34,102,14
3,34,0,146
3,29,105,172
3,29,0,146
3,32,99,15
3,32,0,146
3,34,104,13
3,34,0,146
3,37,100,496
3,37,0,146
3,34,99,14
3,34,0,146
3,39,105,10
3,39,0,306
3,39,100,16
3,39,0,146
3,34,98,175
3,34,0,146
3,31,101,13
3,31,0,146
3,27,100,16
3,27,0,146
3,39,101,494
3,39,0,146
3,40,101,14
3,40,0,146
3,41,106,11
3,41,0,306
3,41,103,18
3,41,0,146
3,36,104,174
3,36,0,146
3,39,100,10
3,39,0,146
3,41,99,14
3,41,0,146
3,34,105,655
3,34,0,146
3,39,100,13
3,39,0,306
3,39,104,14
3,39,0,146
3,39,105,174
3,39,0,146
3,41,105,18
3,41,0,146
3,39,98,14
3,39,0,146
3,34,100,650
3,34,0,146
3,39,107,18
3,39,0,306
3,39,104,12
3,39,0,146
3,39,105,171
3,39,0,146
3,34,99,17
3,34,0,146
3,39,106,11
3,39,0,146
3,34,101,654
3,34,0,146
3,39,104,17
3,39,0,306
3,39,98,14
3,39,0,146
3,34,99,331
3,34,0,146
3,39,101,18
3,39,0,146
3,39,102,175
3,39,0,146
3,31,100,333
3,31,0,146
3,32,105,13
3,32,0,306
3,32,99,13
3,32,0,146
3,27,104,174
3,27,0,146
3,29,100,17
3,29,0,146
3,32,99,14
3,32,0,146
3,27,98,651
3,27,0,146
3,32,105,17
3,32,0,306
3,32,103,11
3,32,0,146
3,27,104,176
3,27,0,146
3,29,99,14
3,29,0,146
3,32,106,12
3,32,0,146
3,39,106,494
3,39,0,146
3,40,99,16
3,40,0,146
3,41,107,13
3,41,0,306
3,41,104,15
3,41,0,146
3,36,98,173
3,36,0,146
3,39,105,16
3,39,0,146
3,41,105,9
3,41,0,146
3,41,104,657
3,41,0,146
3,41,104,15
3,41,0,306
3,41,99,12
3,41,0,146
3,36,98,173
3,36,0,146
3,39,101,17
3,39,0,146
3,41,101,15
3,41,0,146
3,41,104,491
3,41,0,146
3,36,99,13
3,36,0,146
3,34,104,16
3,34,0,306
3,34,98,14
3,34,0,146
3,29,99,176
3,29,0,146
3,32,99,11
3,32,0,146
3,34,100,17
3,34,0,146
3,34,98,652
3,34,0,146
3,34,103,15
3,34,0,306
3,34,99,11
3,34,0,146
3,29,104,174
3,29,0,146
3,32,104,14
3,32,0,146
3,34,101,16
3,34,0,146
3,34,104,496
3,34,0,146
3,36,105,13
3,36,0,146
3,37,105,12
3,37,0,306
3,37,100,14
3,37,0,146
3,32,99,173
3,32,0,146
3,34,100,18
3,34,0,146
3,37,102,14
3,37,0,146
3,32,107,650
3,32,0,146
3,37,99,18
3,37,0,306
3,37,100,9
3,37,0,146
3,32,98,178
3,32,0,146
3,34,101,14
3,34,0,146
3,37,103,12
3,37,0,146
3,37,100,493
3,37,0,146
3,34,102,16
3,34,0,146
3,36,103,11
3,36,0,306
3,36,100,16
3,36,0,146
3,31,105,176
3,31,0,146
3,34,99,12
3,34,0,146
3,36,100,15
3,36,0,146
3,39,105,492
3,39,0,146
3,40,104,18
3,40,0,146
3,41,98,13
3,41,0,306
3,41,101,15
3,41,0,146
3,36,107,174
3,36,0,146
3,40,100,9
3,40,0,146
3,41,100,14
3,41,0,146
3,41,103,498
3,41,0,146
3,36,101,15
3,36,0,146
3,34,102,10
3,34,0,306
3,34,98,14
3,34,0,146
3,29,103,177
3,29,0,146
3,32,102,15
3,32,0,146
3,34,107,9
3,34,0,146
3,37,105,496
3,37,0,146
3,34,98,14
3,34,0,146
3,39,103,12
3,39,0,306
3,39,102,17
3,39,0,146
3,34,104,175
3,34,0,146
3,31,105,15
3,31,0,146
3,27,99,11
3,27,0,146
3,39,102,494
3,39,0,146
3,40,100,16
3,40,0,146
3,41,99,15
3,41,0,306
3,41,101,12
3,41,0,146
3,36,100,175
3,36,0,146
3,39,102,10
3,39,0,146
3,41,99,15
3,41,0,146
3,34,100,653
3,34,0,146
3,39,101,16
3,39,0,306
3,39,99,13
3,39,0,146
3,39,104,173
3,39,0,146
3,41,107,19
3,41,0,146
3,39,98,12
3,39,0,146
3,34,98,654
3,34,0,146
3,39,99,12
3,39,0,306
3,39,103,14
3,39,0,146
3,39,98,177
3,39,0,146
3,34,104,15
3,34,0,146
3,39,103,14
3,39,0,146
3,34,107,649
3,34,0,146
3,39,104,14
3,39,0,306
3,39,100,18
3,39,0,146
3,34,103,332
3,34,0,146
3,39,106,16
3,39,0,146
3,39,105,170
3,39,0,146
3,31,103,336
3,31,0,146
3,34,102,16
3,34,0,400
3,29,99,79
3,29,0,146
3,32,104,14
3,32,0,146
3,33,102,12
3,33,0,146
3,34,107,15
3,34,0,385
3,29,105,95
3,29,0,146
3,32,98,14
3,32,0,146
3,33,104,12
3,33,0,146
3,34,101,14
3,34,0,392
3,29,103,88
3,29,0,146
3,32,100,15
3,32,0,146
3,33,100,14
3,33,0,146
3,34,105,16
3,34,0,388
3,34,98,94
3,34,0,146
3,34,107,12
3,34,0,146
3,34,101,11
3,34,0,146
3,36,100,16
3,36,0,400
3,31,103,80
3,31,0,146
3,34,100,17
3,34,0,146
3,35,100,13
3,35,0,146
3,36,99,11
3,36,0,385
3,31,105,97
3,31,0,146
3,34,106,16
3,34,0,146
3,35,104,13
3,35,0,146
3,36,105,14
3,36,0,392
3,31,107,85
3,31,0,146
3,34,98,18
3,34,0,146
3,35,102,10
3,35,0,146
3,36,101,15
3,36,0,388
3,32,102,93
3,32,0,146
3,34,103,11
3,34,0,146
3,36,105,14
3,36,0,146
3,37,102,17
3,37,0,400
3,32,101,79
3,32,0,146
3,34,98,12
3,34,0,146
3,36,100,15
3,36,0,146
3,37,105,16
3,37,0,385
3,32,99,96
3,32,0,146
3,34,100,12
3,34,0,146
3,36,100,14
3,36,0,146
3,37,105,12
3,37,0,392
3,32,103,88
3,32,0,146
3,34,98,18
3,34,0,146
3,36,106,12
3,36,0,146
3,39,99,13
3,39,0,388
3,34,104,95
3,34,0,146
3,39,107,11
3,39,0,146
3,40,107,17
3,40,0,146
3,41,102,13
3,41,0,466
3,41,103,14
3,41,0,466
3,41,104,12
3,41,0,466
3,41,102,14
3,41,0,466
3,41,101,18
3,41,0,466
3,41,107,10
3,41,0,466
3,41,106,13
3,41,0,466
3,41,104,16
3,41,0,306
3,34,105,177
3,34,0,400
3,29,103,80
3,29,0,146
3,32,102,9
3,32,0,146
3,33,102,17
3,33,0,146
3,34,101,15
3,34,0,385
3,29,102,91
3,29,0,146
3,32,103,15
3,32,0,146
3,33,105,14
3,33,0,146
3,34,106,17
3,34,0,392
3,29,107,89
3,29,0,146
3,32,102,11
3,32,0,146
3,33,98,16
3,33,0,146
3,34,99,11
3,34,0,388
3,34,105,94
3,34,0,146
3,34,100,13
3,34,0,146
3,34,102,17
3,34,0,146
3,36,99,14
3,36,0,400
3,31,99,75
3,31,0,146
3,34,102,16
3,34,0,146
3,35,104,13
3,35,0,146
3,36,105,14
3,36,0,385
3,31,98,94
3,31,0,146
3,34,103,17
3,34,0,146
3,35,105,13
3,35,0,146
3,36,106,14
3,36,0,392
3,31,101,90
3,31,0,146
3,34,102,15
3,34,0,146
3,35,102,10
3,35,0,146
3,36,101,17
3,36,0,388
3,32,99,88
3,32,0,146
3,34,100,19
3,34,0,146
3,36,106,9
3,36,0,146
3,37,103,19
3,37,0,400
3,32,103,80
3,32,0,146
3,34,100,11
3,34,0,146
3,36,104,12
3,36,0,146
3,37,103,16
3,37,0,385
3,32,98,94
3,32,0,146
3,34,105,13
3,34,0,146
3,36,103,19
3,36,0,146
3,37,104,10
3,37,0,392
3,32,99,91
3,32,0,146
3,34,104,10
3,34,0,146
3,36,104,16
3,36,0,146
3,39,99,14
3,39,0,388
3,34,101,94
3,34,0,146
3,39,104,15
3,39,0,146
3,40,98,14
3,40,0,146
3,41,101,11
3,41,0,466
3,41,101,15
3,41,0,466
3,41,98,11
3,41,0,466
3,41,104,18
3,41,0,466
3,41,103,11
3,41,0,466
3,41,104,14
3,41,0,466
3,41,105,18
3,41,0,466
3,41,105,12
3,41,0,306
3,39,104,174
3,39,0,466
3,39,107,13
3,39,0,466
3,39,100,15
3,39,0,466
3,39,104,12
3,39,0,466
3,39,101,14
3,39,0,466
3,39,99,15
3,39,0,466
3,39,100,16
3,39,0,466
3,39,102,15
3,39,0,306
3,34,105,174
3,34,0,306
3,34,105,10
3,34,0,146
3,29,104,176
3,29,0,146
3,31,106,16
3,31,0,146
3,34,103,13
3,34,0,146
3,29,100,655
3,29,0,146
3,34,99,13
3,34,0,306
3,34,103,12
3,34,0,146
3,29,104,176
3,29,0,146
3,31,107,15
3,31,0,146
3,34,104,9
3,34,0,146
3,41,102,496
3,41,0,146
3,42,99,15
3,42,0,146
3,43,101,16
3,43,0,306
3,43,100,9
3,43,0,146
3,38,100,176
3,38,0,146
3,41,103,17
3,41,0,146
3,43,99,12
3,43,0,146
3,43,102,651
3,43,0,146
3,43,102,18
3,43,0,306
3,43,101,10
3,43,0,146
3,38,102,176
3,38,0,146
3,41,103,16
3,41,0,146
3,43,101,13
3,43,0,146
3,43,100,496
3,43,0,146
3,38,105,13
3,38,0,146
3,36,104,12
3,36,0,306
3,36,104,16
3,36,0,146
3,31,103,170
3,31,0,146
3,34,99,17
3,34,0,146
3,36,104,13
3,36,0,146
3,36,98,654
3,36,0,146
3,36,99,15
3,36,0,306
3,36,105,15
3,36,0,146
3,31,104,173
3,31,0,146
3,34,102,12
3,34,0,146
3,36,105,18
3,36,0,146
3,36,98,492
3,36,0,146
3,38,103,11
3,38,0,146
3,39,103,15
3,39,0,306
3,39,104,18
3,39,0,146
3,34,105,172
3,34,0,146
3,36,102,13
3,36,0,146
3,39,104,14
3,39,0,146
3,34,107,656
3,34,0,146
3,39,101,11
3,39,0,306
3,39,104,13
3,39,0,146
3,34,104,174
3,34,0,146
3,36,105,15
3,36,0,146
3,39,105,14
3,39,0,146
3,39,100,495
3,39,0,146
3,36,98,12
3,36,0,146
3,38,107,19
3,38,0,306
3,38,100,14
3,38,0,146
3,33,105,173
3,33,0,146
3,36,101,14
3,36,0,146
3,38,98,14
3,38,0,146
3,41,105,491
3,41,0,146
3,42,100,15
3,42,0,146
3,43,104,12
3,43,0,306
3,43,107,15
3,43,0,146
3,38,105,176
3,38,0,146
3,42,102,13
3,42,0,146
3,43,104,13
3,43,0,146
3,43,103,496
3,43,0,146
3,38,107,14
3,38,0,146
3,36,100,12
3,36,0,306
3,36,100,16
3,36,0,146
3,31,103,171
3,31,0,146
3,34,102,15
3,34,0,146
3,36,103,16
3,36,0,146
3,39,99,494
3,39,0,146
3,36,100,12
3,36,0,146
3,27,105,18
3,27,0,306
3,39,102,11
3,39,0,146
3,39,98,172
3,39,0,146
3,39,101,18
3,39,0,146
3,27,105,10
3,27,0,146
3,39,102,175
3,39,0,146
3,39,106,334
3,39,0,146
3,38,107,13
3,38,0,306
3,38,103,15
3,38,0,146
3,33,100,176
3,33,0,146
3,36,98,11
3,36,0,146
3,38,101,14
3,38,0,146
3,38,104,658
3,38,0,146
3,43,103,11
3,43,0,306
3,43,99,17
3,43,0,146
3,38,102,170
3,38,0,146
3,41,103,19
3,41,0,146
3,43,104,10
3,43,0,146
3,38,104,658
3,38,0,146
3,36,101,9
3,36,0,306
3,36,105,17
3,36,0,146
3,36,104,174
3,36,0,146
3,36,100,16
3,36,0,146
3,38,101,10
3,38,0,146
3,38,105,653
3,38,0,146
3,39,100,14
3,39,0,306
3,39,104,14
3,39,0,146
3,39,105,339
3,39,0,146
3,41,102,14
3,41,0,146
3,41,103,171
3,41,0,146
3,41,105,337
3,41,0,146
