track,note,velocity,time
0,63,50,185
0,67,50,0
0,80,70,0
0,70,1,0
0,56,85,0
0,82,4,12
0,69,22,8
0,79,70,3
0,82,1,0
0,55,85,0
0,70,31,2
0,82,1,6
0,80,70,2
0,69,33,0
0,56,85,0
0,82,1,1
0,70,28,1
0,82,1,1
0,79,70,8
0,69,32,0
0,55,85,0
0,82,4,0
0,80,70,4
0,70,27,0
0,56,85,0
0,39,89,7
0,79,70,0
0,82,23,0
0,55,85,0
0,46,85,0
0,77,70,0
0,69,37,0
0,53,85,0
0,51,95,1
0,82,16,0
0,63,86,3
0,80,70,0
0,70,43,0
0,56,85,0
0,82,10,5
0,69,41,3
0,79,70,0
0,82,21,0
0,55,85,0
0,70,34,2
0,82,9,6
0,80,70,3
0,69,39,0
0,56,85,0
0,82,11,2
0,70,43,0
0,82,11,8
0,79,70,0
0,69,23,0
0,55,85,0
0,82,10,3
0,65,117,0
0,80,70,0
0,70,39,0
0,56,85,0
0,63,85,9
0,79,57,0
0,82,26,0
0,55,72,0
0,62,85,0
0,77,70,0
0,69,63,0
0,53,85,0
0,60,85,1
0,75,70,0
0,82,31,0
0,51,85,0
0,58,85,21
0,80,70,0
0,70,53,0
0,56,85,0
0,82,22,9
0,69,57,0
0,79,70,4
0,82,22,0
0,55,85,0
0,70,55,22
0,82,16,10
0,80,70,2
0,69,58,0
0,56,85,0
0,82,24,7
0,70,61,0
0,82,25,10
0,79,70,0
0,69,69,0
0,55,85,0
0,82,22,5
0,80,70,10
0,70,52,0
0,56,85,0
0,68,106,10
0,72,98,0
0,79,61,0
0,82,22,0
0,55,76,0
0,77,47,0
0,69,71,0
0,53,62,0
0,75,59,3
0,82,20,0
0,51,74,0
0,67,85,1
0,70,85,0
0,80,70,0
0,70,77,0
0,56,85,0
0,82,21,9
0,69,80,0
0,79,70,1
0,82,25,0
0,55,85,0
0,70,64,24
0,82,22,9
0,80,70,24
0,69,71,0
0,56,85,0
0,82,26,4
0,70,72,24
0,82,22,10
0,79,66,24
0,69,66,0
0,55,81,0
0,82,26,4
0,80,70,0
0,70,72,0
0,56,85,0
0,79,44,10
0,82,26,0
0,55,59,0
0,70,74,2
0,77,46,0
0,69,66,0
0,53,61,0
0,75,63,3
0,82,28,0
0,51,78,0
0,46,86,1
0,65,85,0
0,70,85,0
0,70,85,0
0,58,103,0
0,74,70,0
0,63,65,0
0,51,85,0
0,50,85,0
0,53,85,19
0,58,85,24
0,62,85,21
0,63,65,0
0,51,85,0
0,65,85,1
0,70,85,0
0,62,114,0
0,63,65,0
0,51,85,0
0,70,88,20
0,53,85,1
0,74,85,0
0,58,88,22
0,63,65,0
0,51,85,0
0,72,89,1
0,74,86,0
0,65,123,0
0,63,65,0
0,51,85,0
0,53,85,16
0,70,85,7
0,63,65,0
0,51,85,0
0,58,85,3
0,63,65,0
0,51,85,0
0,53,85,6
0,62,85,0
0,72,85,0
0,65,85,12
0,63,65,0
0,51,85,0
0,44,85,0
0,63,85,0
0,68,85,0
0,72,85,0
0,68,114,0
0,63,65,0
0,51,85,0
0,60,85,19
0,51,85,1
0,72,85,0
0,56,95,24
0,63,65,0
0,51,85,0
0,72,85,1
0,68,114,0
0,63,65,0
0,51,85,0
0,63,85,20
0,68,85,1
0,75,85,0
0,51,85,1
0,63,65,0
0,51,85,0
0,70,86,1
0,63,85,0
0,67,85,0
0,75,85,0
0,67,120,0
0,80,70,0
0,63,65,0
0,70,59,0
0,51,85,0
0,56,85,0
0,56,85,1
0,82,34,0
0,68,85,1
0,69,53,0
0,56,86,7
0,79,70,0
0,63,65,0
0,82,22,0
0,51,85,0
0,55,85,0
0,67,85,2
0,63,65,0
0,70,59,0
0,51,85,0
0,51,68,5
0,82,21,0
0,65,85,0
0,80,70,0
0,69,56,0
0,56,85,0
0,63,65,6
0,82,22,0
0,51,85,0
0,39,85,3
0,67,85,0
0,63,65,0
0,70,51,0
0,51,85,0
0,82,22,8
0,79,70,3
0,69,57,0
0,55,85,0
0,63,65,1
0,82,26,0
0,51,85,0
0,80,70,4
0,63,65,0
0,70,57,0
0,51,85,0
0,56,85,0
0,79,70,1
0,82,32,0
0,55,85,0
0,77,59,4
0,69,71,0
0,53,74,0
0,75,62,1
0,63,65,0
0,82,38,0
0,51,85,0
0,51,77,0
0,80,70,1
0,63,65,0
0,70,67,0
0,51,85,0
0,56,85,0
0,82,32,5
0,69,71,3
0,79,70,0
0,63,65,0
0,82,44,0
0,51,85,0
0,55,85,0
0,63,65,2
0,70,64,0
0,51,85,0
0,82,26,6
0,80,70,3
0,69,71,0
0,56,85,0
0,63,65,2
0,82,27,0
0,51,85,0
0,63,65,0
0,70,67,0
0,51,85,0
0,82,26,8
0,79,70,0
0,69,67,0
0,55,85,0
0,63,65,3
0,82,30,0
0,51,85,0
0,80,70,0
0,63,65,0
0,70,67,0
0,51,85,0
0,56,85,0
0,79,57,9
0,82,26,0
0,55,72,0
0,70,86,1
0,77,70,0
0,69,71,0
0,53,85,0
0,75,63,1
0,63,65,0
0,82,31,0
0,51,85,0
0,51,78,0
0,65,85,1
0,70,85,0
0,70,85,0
0,70,101,0
0,74,70,0
0,63,65,0
0,51,85,0
0,50,85,0
0,46,85,2
0,53,85,13
0,70,85,1
0,58,85,1
0,62,85,4
0,63,65,1
0,51,85,0
0,70,85,1
0,74,86,0
0,63,65,0
0,51,85,0
0,65,85,1
0,70,85,3
0,53,85,14
0,74,85,1
0,63,65,9
0,51,85,0
0,58,85,1
0,58,85,1
0,74,92,0
0,77,85,0
0,63,65,0
0,51,85,0
0,62,85,0
0,53,85,0
0,72,85,6
0,58,85,3
0,63,57,1
0,65,52,0
0,51,72,0
0,70,86,6
0,72,95,1
0,62,85,10
0,44,88,6
0,63,81,1
0,68,85,0
0,72,92,0
0,80,89,0
0,63,65,0
0,51,85,0
0,60,85,14
0,51,85,21
0,72,85,1
0,56,111,19
0,63,65,5
0,51,85,0
0,63,85,1
0,72,85,0
0,63,65,0
0,51,85,0
0,68,86,10
0,60,85,1
0,75,85,1
0,80,85,0
0,39,85,2
0,63,65,6
0,51,85,0
0,67,88,6
0,63,85,1
0,67,85,0
0,75,85,0
0,79,85,0
0,80,66,0
0,63,65,0
0,70,72,0
0,51,85,0
0,56,81,0
0,82,22,8
0,46,68,1
0,51,98,20
0,69,66,1
0,79,70,2
0,63,65,0
0,82,26,0
0,51,85,0
0,55,85,0
0,63,86,1
0,63,65,5
0,70,72,0
0,51,85,0
0,58,85,1
0,82,26,4
0,46,85,2
0,51,111,2
0,80,70,0
0,69,66,0
0,56,85,0
0,55,107,2
0,63,65,1
0,82,28,0
0,51,85,0
0,63,65,1
0,70,67,0
0,51,85,0
0,46,85,4
0,82,27,7
0,50,95,3
0,51,93,0
0,79,70,1
0,69,58,0
0,55,85,0
0,53,114,2
0,63,65,4
0,82,30,0
0,51,85,0
0,55,95,2
0,80,70,1
0,63,65,0
0,70,67,0
0,51,85,0
0,56,85,0
0,51,101,1
0,39,85,1
0,79,64,9
0,82,22,0
0,55,79,0
0,53,85,1
0,77,70,0
0,69,77,0
0,53,85,0
0,55,95,2
0,56,85,2
0,75,70,0
0,63,65,0
0,82,16,0
0,51,85,0
0,51,85,0
0,80,70,6
0,63,65,0
0,70,59,0
0,51,85,0
0,56,85,0
0,46,85,1
0,58,107,0
0,82,34,12
0,69,53,8
0,51,92,2
0,79,70,0
0,63,52,0
0,82,22,0
0,51,72,0
0,55,85,0
0,63,65,2
0,70,59,0
0,51,85,0
0,63,106,1
0,82,21,6
0,46,85,1
0,80,70,7
0,69,56,0
0,56,85,0
0,51,85,1
0,67,98,5
0,63,65,0
0,82,22,0
0,51,85,0
0,63,65,3
0,70,51,0
0,51,85,0
0,46,85,3
0,51,85,1
0,82,22,0
0,79,70,7
0,69,57,0
0,55,85,0
0,70,101,3
0,63,65,1
0,82,26,0
0,51,85,0
0,80,70,0
0,63,65,0
0,70,57,0
0,51,85,0
0,56,85,0
0,67,111,1
0,79,70,7
0,82,32,0
0,55,85,0
0,65,92,0
0,75,101,1
0,77,59,0
0,69,71,0
0,53,74,0
0,63,111,2
0,75,61,0
0,63,65,0
0,82,38,0
0,51,85,0
0,51,76,0
0,34,93,1
0,58,85,0
0,62,85,0
0,77,85,0
0,74,70,0
0,77,85,0
0,35,93,0
0,55,92,0
0,50,85,0
0,46,97,1
0,82,32,0
0,53,85,4
0,77,91,1
0,69,71,0
0,58,95,4
0,82,44,0
0,62,91,3
0,75,89,1
0,70,64,0
0,65,93,2
0,82,26,6
0,70,96,1
0,53,85,1
0,75,85,1
0,69,71,0
0,82,27,2
0,58,96,3
0,74,86,0
0,70,67,0
0,70,101,3
0,74,98,0
0,82,26,8
0,69,67,0
0,82,30,3
0,70,67,0
0,72,85,0
0,82,26,0
0,75,70,3
0,69,71,0
0,51,85,0
0,74,70,3
0,82,31,0
0,50,85,0
0,32,92,1
0,56,85,0
0,60,85,0
0,75,85,0
0,72,70,0
0,75,85,0
0,35,92,0
0,55,91,0
0,70,77,0
0,48,85,0
0,82,22,0
0,44,85,1
0,72,85,0
0,69,71,0
0,51,86,1
0,82,22,4
0,56,107,1
0,70,64,23
0,60,95,1
0,63,91,8
0,82,16,2
0,68,98,20
0,69,74,1
0,60,89,1
0,82,24,3
0,72,96,1
0,70,72,0
0,60,85,1
0,82,25,3
0,70,96,0
0,69,74,0
0,60,85,5
0,82,22,0
0,68,103,20
0,69,45,3
0,70,77,0
0,82,22,10
0,56,85,0
0,75,97,1
0,69,80,0
0,60,85,0
0,82,20,1
0,46,85,0
0,34,101,1
0,58,85,0
0,62,85,0
0,77,85,0
0,75,70,0
0,87,70,0
0,77,85,0
0,35,101,0
0,55,97,0
0,70,77,0
0,51,85,0
0,63,85,0
0,62,93,0
0,82,21,0
0,77,92,0
0,69,80,0
0,65,85,4
0,82,25,5
0,70,92,3
0,75,85,1
0,70,64,0
0,53,89,3
0,82,22,7
0,58,96,7
0,75,85,1
0,69,71,0
0,53,85,4
0,82,26,4
0,58,97,3
0,74,85,1
0,74,70,0
0,86,70,0
0,80,85,0
0,70,72,0
0,50,85,0
0,62,85,0
0,70,103,0
0,74,98,0
0,53,85,9
0,82,22,1
0,68,96,17
0,72,95,0
0,69,66,0
0,58,86,0
0,79,85,0
0,82,26,0
0,70,89,19
0,67,91,0
0,70,72,4
0,53,85,1
0,82,26,1
0,68,85,1
0,65,91,0
0,72,85,1
0,82,85,0
0,69,66,0
0,53,85,18
0,82,28,3
0,48,85,0
0,44,88,9
0,44,107,1
0,56,72,0
0,60,85,0
0,75,96,0
0,80,95,0
0,35,107,0
0,55,89,0
0,60,85,0
0,82,27,0
0,63,85,22
0,60,85,0
0,72,91,1
0,69,58,0
0,82,30,4
0,43,101,1
0,75,97,0
0,35,101,0
0,70,67,0
0,51,85,1
0,82,22,0
0,68,95,1
0,56,85,0
0,77,85,0
0,69,77,0
0,82,16,2
0,51,85,1
0,41,97,1
0,79,88,0
0,35,97,0
0,70,59,0
0,72,101,2
0,82,19,0
0,77,85,1
0,69,80,0
0,75,85,1
0,82,22,0
0,39,98,0
0,77,85,0
0,35,98,0
0,70,59,0
0,75,91,0
0,82,21,0
0,72,88,1
0,69,66,0
0,82,25,6
0,44,89,0
0,75,93,0
0,35,89,0
0,55,95,0
0,70,59,0
0,82,34,0
0,72,86,1
0,69,53,0
0,82,22,7
0,43,86,1
0,75,103,0
0,35,86,0
0,70,59,0
0,82,21,0
0,77,85,1
0,69,56,0
0,82,22,6
0,84,103,1
0,80,101,0
0,41,95,1
0,79,85,0
0,35,95,0
0,70,51,0
0,82,22,0
0,77,85,1
0,69,57,0
0,75,91,1
0,82,26,0
0,79,85,0
0,82,85,0
0,39,89,1
0,77,91,0
0,35,89,0
0,70,57,0
0,75,93,0
0,82,32,0
0,69,71,5
0,77,88,1
0,82,38,0
0,77,85,1
0,80,85,0
0,44,91,1
0,72,91,0
0,75,85,0
0,35,91,0
0,55,97,0
0,70,67,0
0,82,32,0
0,72,85,3
0,69,71,0
0,82,44,0
0,75,85,1
0,79,85,0
0,43,85,0
0,75,85,0
0,35,85,0
0,70,64,0
0,82,26,0
0,77,85,3
0,69,71,0
0,82,27,2
0,74,85,3
0,77,85,0
0,41,89,0
0,79,85,0
0,35,89,0
0,70,67,0
0,82,26,0
0,77,85,0
0,69,67,0
0,75,85,3
0,82,30,0
0,39,101,0
0,77,85,0
0,35,101,0
0,70,67,0
0,72,85,1
0,75,85,0
0,75,76,0
0,82,26,0
0,72,66,1
0,69,71,0
0,82,31,3
0,70,85,1
0,44,93,0
0,75,65,0
0,35,93,0
0,55,74,0
0,70,63,0
0,82,1,0
0,72,59,0
0,69,50,0
0,82,8,4
0,43,92,8
0,75,55,0
0,35,92,0
0,70,41,0
0,82,10,0
0,77,56,2
0,69,42,0
0,82,24,7
0,41,103,0
0,79,54,0
0,35,103,0
0,70,42,0
0,82,25,0
0,77,51,0
0,69,38,0
0,75,41,5
0,82,20,0
0,39,103,1
0,77,34,0
0,35,103,0
0,55,74,0
0,70,32,0
0,75,28,0
0,82,17,0
0,70,91,0
0,69,30,0
0,82,20,7
0,39,85,8
0,55,68,0
0,46,98,1
0,58,85,0
0,62,85,0
0,70,85,0
0,82,70,0
0,63,68,0
0,35,98,0
0,55,85,0
0,51,88,0
0,58,85,0
0,70,85,2
0,58,61,1
0,63,76,2
0,51,36,12
0,70,85,1
0,63,65,3
0,51,85,0
0,70,85,1
0,63,65,0
0,51,85,0
0,74,85,8
0,74,85,1
0,63,65,8
0,51,85,0
0,74,85,0
0,63,65,0
0,51,85,0
0,77,85,4
0,63,65,6
0,51,85,0
0,63,65,3
0,51,85,0
0,72,85,1
0,63,65,12
0,51,85,0
0,75,85,4
0,32,96,1
0,56,85,0
0,60,85,0
0,72,85,0
0,80,70,0
0,63,65,0
0,35,96,0
0,51,85,0
0,56,85,0
0,72,85,1
0,63,65,16
0,51,85,0
0,72,85,1
0,80,85,0
0,63,65,0
0,51,85,0
0,75,85,1
0,63,65,4
0,51,85,0
0,39,91,1
0,58,64,0
0,63,70,0
0,75,85,0
0,79,70,0
0,92,70,0
0,63,65,0
0,35,91,0
0,51,85,0
0,55,85,0
0,68,85,0
0,79,85,3
0,91,70,0
0,63,65,0
0,51,85,0
0,67,85,0
0,63,65,16
0,51,85,0
0,92,70,40
0,68,85,0
0,63,65,17
0,51,85,0
0,63,65,15
0,51,85,0
0,91,70,14
0,67,85,0
0,63,65,12
0,51,85,0
0,92,70,2
0,63,65,0
0,51,85,0
0,68,85,0
0,91,70,24
0,67,85,0
0,89,70,2
0,65,85,0
0,34,114,1
0,87,70,0
0,63,65,0
0,35,114,0
0,51,85,0
0,63,85,0
0,39,98,1
0,92,70,0
0,63,65,0
0,35,98,0
0,51,85,0
0,68,85,0
0,91,70,19
0,63,65,0
0,51,85,0
0,67,85,0
0,63,65,10
0,51,85,0
0,92,70,48
0,68,85,0
0,63,65,4
0,51,85,0
0,63,65,14
0,51,85,0
0,91,70,11
0,67,85,0
0,63,65,12
0,51,85,0
0,92,70,16
0,63,65,0
0,51,85,0
0,68,85,0
0,91,70,1
0,67,85,0
0,70,85,1
0,89,63,0
0,65,78,0
0,39,86,1
0,87,59,0
0,63,65,0
0,35,86,0
0,51,85,0
0,63,74,0
0,70,92,3
0,34,117,1
0,58,70,0
0,62,85,0
0,70,85,0
0,86,70,0
0,63,65,0
0,35,117,0
0,51,85,0
0,62,85,0
0,70,85,1
0,63,61,0
0,51,81,0
0,70,85,1
0,63,65,0
0,51,85,0
0,74,88,1
0,74,85,1
0,63,65,0
0,51,85,0
0,74,85,1
0,77,85,0
0,63,59,0
0,51,79,0
0,63,54,14
0,51,74,0
0,63,65,7
0,51,85,0
0,72,85,1
0,34,114,6
0,35,114,0
0,75,85,17
0,32,97,0
0,56,85,0
0,60,85,0
0,72,85,0
0,35,97,0
0,72,85,1
