track,note,velocity,time
4,74,33,8975
4,78,38,2
4,71,36,1700
4,73,60,83
4,69,63,5
4,79,25,10
4,74,55,32
4,71,61,13
4,73,45,57
4,69,53,20
4,76,25,10
4,74,61,70
4,78,45,3
4,76,64,35
4,73,55,3
4,78,38,25
4,74,58,15
4,71,55,23
4,69,66,92
4,73,51,8
4,74,63,78
4,71,55,2
4,76,40,727
4,73,63,462
4,83,67,135
4,79,79,5
4,74,67,5
4,81,56,1630
4,78,62,10
4,86,67,925
4,76,73,75
4,81,63,2
4,79,55,13
4,78,64,70
4,86,68,352
4,79,64,5
4,81,64,100
4,78,64,23
4,74,69,2
4,81,58,10
4,83,63,5
4,80,62,108
4,81,60,28
4,74,68,12
4,76,63,3
4,73,62,158
4,81,58,63
4,78,63,20
4,74,69,7
4,71,55,1868
4,69,55,2
4,69,57,42
4,73,64,3
4,79,55,10
4,74,61,5
4,71,56,7
4,69,67,92
4,73,64,107
4,78,52,135
4,74,60,3
4,81,64,163
4,76,78,2
4,85,78,3
4,86,54,17
4,78,78,20
4,81,68,50
4,85,57,2
4,78,66,5
4,86,51,62
4,79,57,5
4,83,40,5
4,81,57,35
4,88,64,8
4,85,68,20
4,83,67,30
4,86,61,5
4,79,79,3
4,81,57,102
4,78,64,20
4,79,64,128
4,76,67,2
4,83,62,3
4,81,57,43
4,78,58,17
4,79,48,43
4,86,62,17
4,83,82,30
4,81,62,100
4,78,60,10
4,81,64,143
4,76,69,2
4,74,71,3
4,73,62,152
4,78,62,188
4,71,64,2
4,74,67,5
4,71,67,1032
4,74,63,8
4,79,63,5
4,81,66,28
4,76,62,5
4,73,62,2
4,71,64,60
4,78,60,2
4,74,63,5
4,74,67,810
4,71,73,3
4,67,55,5
4,69,62,2
4,76,58,42
4,71,68,28
4,75,76,460
4,83,58,85
4,80,63,0
4,76,69,0
4,73,55,1890
4,71,55,2
4,71,57,42
4,75,64,3
4,81,55,10
4,76,61,5
4,73,56,7
4,71,67,92
4,75,64,107
4,80,52,135
4,76,60,3
4,83,64,163
4,78,78,2
4,87,78,3
4,88,54,17
4,80,78,20
4,83,68,50
4,87,57,2
4,80,66,5
4,88,51,62
4,81,57,5
4,85,41,5
4,83,57,35
4,90,64,8
4,87,68,20
4,85,67,30
4,88,61,5
4,81,79,8
4,83,57,97
4,80,64,20
4,81,64,128
4,78,67,2
4,85,62,3
4,83,57,43
4,80,58,17
4,81,48,43
4,88,62,30
4,85,82,20
4,83,62,98
4,80,60,10
4,83,64,143
4,78,69,2
4,76,71,3
4,75,62,152
4,80,62,188
4,73,64,2
4,76,67,5
4,73,67,1032
4,76,63,8
4,81,63,5
4,83,66,28
4,78,62,5
4,75,62,2
4,73,64,60
4,80,60,2
4,76,63,5
4,76,67,810
4,73,73,3
4,69,55,5
4,71,62,2
4,78,68,40
4,83,68,2
4,75,79,3
4,85,45,8
4,76,42,5
4,80,79,20
4,88,82,0
4,85,91,2
4,80,103,8
5,26,76,905
5,38,70,0
5,37,75,0
5,31,58,0
5,31,74,120
5,33,60,0
5,33,60,120
5,38,56,0
5,38,70,120
5,33,61,0
5,31,70,120
5,31,74,240
5,33,60,0
5,33,68,120
5,38,60,0
5,38,60,120
5,38,60,120
5,37,62,0
5,35,64,0
5,35,56,240
5,30,60,0
5,35,56,0
5,30,60,0
5,30,64,240
5,30,74,120
5,31,71,0
5,31,66,240
5,33,64,0
5,33,66,0
5,35,70,0
5,38,65,0
5,38,60,240
5,38,70,120
5,35,68,120
5,35,56,240
5,30,59,0
5,35,54,0
5,30,60,0
5,30,63,120
5,30,66,120
5,31,68,120
5,31,63,120
5,33,66,0
5,33,60,0
5,31,68,0
5,31,65,120
5,31,70,120
5,30,71,0
5,30,62,240
5,30,73,120
5,28,68,0
5,28,59,240
5,28,70,120
5,30,70,0
5,30,71,120
5,26,73,0
5,38,71,0
5,31,73,0
5,31,68,120
5,31,76,120
5,30,68,0
5,30,58,240
5,30,79,120
5,28,75,0
5,40,52,0
5,40,70,120
5,28,58,0
5,33,59,0
5,33,71,120
5,33,60,120
5,33,60,120
5,35,60,0
5,38,72,0
5,38,56,240
5,38,66,120
5,37,59,0
5,35,65,0
5,35,58,120
5,30,60,0
5,35,56,0
5,30,68,0
5,30,60,120
5,30,68,120
5,31,66,120
5,31,61,120
5,33,68,0
5,33,60,120
5,35,59,0
5,38,73,0
5,26,65,120
5,26,75,120
5,38,61,0
5,37,66,0
5,35,73,0
5,35,58,120
5,35,63,120
5,33,59,0
5,35,60,0
5,30,71,0
5,30,63,120
5,30,68,120
5,31,65,0
5,33,62,120
5,33,66,0
5,33,71,120
5,31,68,0
5,31,56,120
5,31,74,120
5,30,75,0
5,30,75,240
5,31,66,0
5,30,70,0
5,28,61,0
5,28,60,120
5,28,71,120
5,30,66,0
5,30,59,240
5,30,56,120
5,38,56,0
5,30,58,0
5,31,60,0
5,31,58,120
5,31,60,120
5,30,63,0
5,26,60,0
5,38,58,0
5,30,62,0
5,33,58,120
5,33,58,240
5,33,66,120
5,35,75,360
5,35,59,120
5,35,74,120
5,35,65,120
5,35,81,120
5,33,63,0
5,31,79,0
5,31,54,120
5,31,76,120
5,33,79,120
5,40,68,0
5,33,70,0
5,35,59,0
5,35,70,120
5,35,70,120
5,35,70,120
5,35,68,120
5,33,70,0
5,31,59,0
5,33,56,0
5,34,49,0
5,35,63,0
5,37,65,0
5,39,58,0
5,40,62,120
5,40,56,240
5,40,64,120
5,39,59,0
5,37,62,0
5,37,58,120
5,32,64,0
5,37,60,0
5,32,62,0
5,32,60,120
5,32,73,120
5,33,71,120
5,33,61,120
5,35,66,0
5,35,60,120
5,37,60,0
5,40,66,0
5,28,65,120
5,28,65,120
5,40,61,0
5,39,58,0
5,37,75,0
5,37,58,120
5,37,63,120
5,35,59,0
5,37,58,0
5,32,71,0
5,32,63,120
5,32,70,120
5,33,65,0
5,35,70,120
5,35,60,0
5,35,71,120
5,33,73,0
5,33,68,120
5,33,74,120
5,32,73,0
5,32,59,240
5,33,66,0
5,32,56,0
5,30,61,0
5,30,60,120
5,30,71,120
5,32,66,0
5,32,59,240
5,32,75,120
5,40,56,0
5,32,58,0
5,33,59,0
5,33,68,120
5,33,75,120
5,32,63,0
5,28,60,0
5,40,58,0
5,32,73,0
5,35,73,120
5,35,64,240
5,35,70,120
5,37,83,360
5,37,75,120
5,37,74,120
5,37,79,120
5,37,81,120
5,35,63,0
5,33,79,0
5,33,68,120
5,33,76,120
5,35,79,120
5,42,75,0
5,35,60,0
5,37,70,0
5,37,70,120
5,37,63,120
5,37,58,120
5,37,68,120
5,35,56,0
5,33,59,0
5,35,62,0
5,35,74,240
5,32,70,0
5,35,79,0
5,25,79,0
5,25,95,105
6,79,53,1207
6,80,47,28
6,81,63,57
6,78,53,210
6,79,68,133
6,81,64,140
6,83,48,118
6,81,63,108
6,85,67,1580
6,86,64,7
6,85,52,203
6,83,62,185
6,81,62,220
6,83,56,230
6,81,57,220
6,78,61,210
6,79,68,195
6,81,67,145
6,83,47,23
6,81,64,97
6,74,71,13
6,81,64,942
6,76,57,3
6,73,52,110
6,47,12,13362
6,48,25,28
6,50,17,25
6,52,24,20
6,53,46,10
6,55,53,8
6,57,53,10
6,59,56,8
6,60,55,8
6,62,47,12
6,64,43,20
6,65,55,2
6,55,8,7342
6,57,24,15
6,59,21,20
6,60,25,18
6,62,37,12
6,64,40,25
6,65,56,5
6,67,63,30
6,69,51,32
6,71,60,5
6,81,79,22
6,83,82,48
6,81,62,30462
6,82,66,25
6,36,28,6168
6,41,43,12
6,38,36,3
6,40,40,5
6,43,63,20
6,45,57,25
6,47,68,28
6,48,64,30
6,50,63,28
6,52,68,23
6,53,68,23
6,55,67,23
6,57,52,28
6,59,50,10
6,83,73,3
6,78,82,2
6,74,84,3
6,81,67,47
6,74,68,3
6,74,63,3530
6,78,58,2
6,71,61,5
6,76,58,63
6,73,56,10
6,69,51,5
6,83,62,25572
6,84,66,25
6,38,28,6168
6,43,43,12
6,40,36,3
6,42,50,5
6,45,63,20
6,47,57,25
6,49,68,28
6,50,64,30
6,52,63,28
6,54,68,23
6,55,68,23
6,57,67,23
6,59,52,28
6,61,60,10
6,85,73,8
6,80,82,2
6,76,84,3
6,83,67,47
6,76,68,3
6,76,63,3530
6,80,58,2
6,73,61,5
6,78,58,63
6,75,56,10
6,71,51,5
7,69,65,9380
7,69,75,125
7,76,72,480
7,73,83,458
7,74,72,23
7,74,83,125
7,73,72,240
7,69,67,60
7,69,72,125
7,66,75,480
7,66,83,115
7,64,83,8
7,64,83,135
7,69,83,533
7,69,83,143
7,76,70,0
7,73,90,480
7,74,67,50
7,74,78,58
7,73,75,23
7,69,66,25
7,69,54,128
7,66,68,480
7,71,72,58
7,69,86,35
7,69,86,123
7,71,78,613
7,73,61,240
7,74,63,5
7,76,66,18
7,74,94,5
7,71,78,610
7,73,68,8
7,74,63,240
7,76,75,220
7,76,78,113
7,78,75,480
7,79,75,30
7,71,63,28
7,79,67,0
7,78,60,480
7,74,63,10
7,76,68,90
7,71,65,10
7,76,67,5
7,73,67,8
7,69,67,15
7,69,63,578
7,69,67,125
7,76,57,480
7,73,78,25
7,74,65,15
7,74,67,85
7,73,70,18
7,69,63,15
7,69,66,115
7,66,78,480
7,66,78,118
7,64,68,20
7,64,75,93
7,69,66,908
7,69,78,143
7,76,66,480
7,73,78,440
7,74,67,35
7,74,63,143
7,73,59,240
7,69,63,3
7,69,70,123
7,66,63,5
7,71,65,10
7,69,63,480
7,69,70,120
7,71,78,533
7,73,65,240
7,74,60,215
7,76,60,10
7,74,55,480
7,71,68,383
7,73,61,15
7,74,57,13
7,76,54,240
7,76,65,110
7,78,63,480
7,79,63,203
7,71,66,3
7,79,59,480
7,78,44,0
7,74,63,13
7,76,68,88
7,69,66,108
7,76,63,480
7,74,67,5
7,71,63,6798
7,71,67,125
7,78,57,480
7,75,78,25
7,76,65,15
7,76,67,55
7,75,70,18
7,71,63,15
7,71,66,115
7,68,78,480
7,68,78,118
7,66,68,20
7,66,75,93
7,71,66,848
7,71,78,143
7,78,66,480
7,75,78,440
7,76,67,35
7,76,63,143
7,75,59,240
7,71,63,3
7,71,70,123
7,68,63,5
7,73,65,10
7,71,63,480
7,71,70,120
7,73,78,518
7,75,65,240
7,76,60,215
7,78,60,10
7,76,55,480
7,73,68,333
7,75,61,15
7,76,57,13
7,78,54,240
7,78,65,110
7,80,63,480
7,81,63,150
7,73,66,3
7,81,59,480
7,80,44,0
7,76,63,8
7,78,68,140
7,71,66,108
7,78,63,480
7,76,67,5
8,50,64,990
8,54,57,72
8,57,58,55
8,62,63,40
8,50,55,118
8,54,51,40
8,49,61,0
8,57,45,215
8,62,63,230
8,47,64,50
8,57,37,7
8,62,64,248
8,57,57,230
8,49,51,67
8,57,43,198
8,62,66,2
8,57,53,240
8,50,53,23
8,57,53,218
8,62,63,242
8,57,56,227
8,49,47,17
8,57,55,190
8,62,57,5
8,47,63,53
8,57,45,427
8,62,60,255
8,57,48,202
8,49,52,50
8,57,28,167
8,62,50,80
8,50,62,105
8,54,46,95
8,57,47,77
8,62,60,45
8,50,55,5610
8,54,52,63
8,57,55,67
8,62,64,70
8,43,67,5927
8,50,66,238
8,55,62,227
8,62,63,243
8,42,64,323
8,50,56,245
8,54,52,218
8,62,64,260
8,40,64,43
8,47,60,240
8,55,64,250
8,62,63,240
8,42,64,133
8,50,58,248
8,54,52,222
8,62,64,250
8,43,62,90
8,50,67,240
8,57,62,232
8,62,63,238
8,42,66,7
8,50,55,255
8,54,48,233
8,62,63,242
8,40,52,73
8,57,61,2
8,59,58,5
8,56,62,710
8,45,47,25
8,62,58,5
8,57,55,5
8,64,56,3
8,61,64,725
8,50,51,95
8,54,51,40
8,57,53,40
8,62,64,80
8,43,62,3962
8,50,61,223
8,55,55,255
8,62,62,242
8,45,58,85
8,52,55,67
8,61,66,20
8,62,53,185
8,64,62,225
8,50,68,228
8,54,45,135
8,57,56,195
8,62,62,272
8,66,64,85
8,57,78,5
8,61,73,2
8,62,67,42
8,66,58,3
8,59,70,5
8,61,55,300
8,64,50,10
8,59,58,50
8,57,56,65
8,54,64,70
8,43,64,460
8,50,64,230
8,55,64,240
8,62,67,250
8,45,64,48
8,62,62,15
8,52,61,0
8,61,79,15
8,59,53,160
8,61,68,57
8,43,64,28
8,55,64,13
8,50,66,2
8,57,64,48
8,62,68,40
8,55,68,23
8,57,67,105
8,62,73,227
8,42,64,15
8,50,60,235
8,54,55,255
8,62,66,232
8,40,64,13
8,47,58,230
8,52,45,247
8,62,67,240
8,42,60,10
8,50,62,248
8,54,45,245
8,62,66,222
8,43,57,72
8,55,61,23
8,57,58,40
8,62,57,60
8,50,58,122
8,55,57,23
8,62,64,225
8,42,46,22
8,50,64,240
8,54,47,248
8,62,63,237
8,45,51,70
8,57,55,58
8,59,48,77
8,62,67,53
8,61,66,53
8,47,68,440
8,54,71,258
8,59,68,235
8,66,55,245
8,54,63,55
8,59,68,5
8,66,66,2
8,62,67,5
8,47,57,3
8,61,62,40
8,57,43,27
8,43,45,403
8,59,79,5
8,57,68,5
8,62,66,2
8,50,66,503
8,57,61,147
8,62,63,152
8,45,64,98
8,61,79,240
8,52,61,205
8,59,58,40
8,61,60,58
8,47,63,202
8,54,62,223
8,59,64,237
8,62,57,228
8,62,66,55
8,59,62,5
8,54,66,3
8,66,64,5
8,61,55,35
8,57,56,20
8,43,60,385
8,57,66,8
8,62,64,5
8,59,66,2
8,50,55,450
8,47,61,35
8,59,67,18
8,66,62,5
8,64,66,2
8,59,60,50
8,63,63,3
8,52,63,3
8,56,51,28
8,59,53,40
8,64,64,40
8,45,62,3922
8,52,61,223
8,57,55,255
8,64,62,242
8,47,58,85
8,54,55,67
8,63,66,20
8,64,53,185
8,66,62,225
8,52,68,228
8,56,45,135
8,59,56,195
8,64,62,272
8,68,64,85
8,59,78,5
8,63,73,2
8,64,67,42
8,68,58,3
8,61,70,5
8,63,55,300
8,66,50,10
8,61,58,50
8,59,56,65
8,56,64,70
8,45,64,460
8,52,64,230
8,57,64,240
8,64,67,250
8,47,64,48
8,64,62,15
8,54,61,0
8,63,79,15
8,61,53,160
8,63,68,57
8,45,64,28
8,57,64,10
8,52,66,2
8,59,64,48
8,64,68,40
8,57,68,18
8,59,67,105
8,64,73,227
8,44,64,18
8,52,60,235
8,56,55,255
8,64,66,232
8,42,64,13
8,49,58,230
8,54,45,247
8,64,67,240
8,44,60,10
8,52,62,248
8,56,45,245
8,64,66,222
8,45,57,72
8,57,61,23
8,59,58,40
8,64,57,60
8,52,58,122
8,57,57,23
8,64,64,225
8,44,46,22
8,52,64,240
8,56,47,248
8,64,63,237
8,47,51,70
8,59,55,58
8,61,48,77
8,64,67,53
8,63,66,53
8,49,68,440
8,56,71,258
8,61,68,235
8,68,55,245
8,56,63,55
8,61,68,5
8,68,66,2
8,64,67,5
8,49,57,3
8,63,62,40
8,59,43,27
8,45,45,403
8,61,79,5
8,59,68,5
8,64,66,2
8,52,66,503
8,59,61,147
8,64,63,152
8,47,64,98
8,63,79,240
8,54,61,205
8,61,58,40
8,63,60,58
8,49,63,202
8,56,62,223
8,61,64,237
8,64,57,228
8,64,66,55
8,61,62,5
8,56,66,3
8,68,64,5
8,63,55,35
8,59,56,20
8,45,60,385
8,59,66,8
8,64,64,5
8,61,66,2
8,52,55,450
8,64,73,212
8,59,79,5
8,47,68,3
8,63,56,43
8,59,64,100
8,49,66,60
8,64,69,5
8,61,82,5
8,56,82,2
9,76,56,91037
9,85,52,5
9,83,56,1893
9,81,55,25
9,78,42,12
9,83,51,0
9,76,43,12
9,88,53,5
9,81,48,458
9,83,36,7
9,80,42,33
9,76,43,365
9,76,55,1338
9,85,64,7
9,75,53,243
9,83,64,2
9,81,56,357
9,73,45,3
9,83,57,997
9,75,45,3
9,76,53,1048
9,85,68,5
9,75,57,220
9,83,63,2
9,73,48,362
9,81,60,5
9,75,46,42
