track,note,velocity,time
0,76,73,163
0,69,62,167
0,82,61,0
0,69,0,4
0,82,0,0
0,69,39,76
0,82,37,0
0,69,0,4
0,82,0,0
0,69,49,92
0,82,52,0
0,69,0,4
0,82,0,0
0,69,32,53
0,82,31,0
0,69,0,4
0,82,0,0
0,69,53,19
0,82,56,0
0,69,0,4
0,82,0,0
0,69,28,47
0,82,25,0
0,69,0,4
0,82,0,0
0,69,55,34
0,82,56,0
0,69,0,4
0,82,0,0
0,77,16,47
0,69,34,15
0,82,31,0
0,69,0,4
0,82,0,0
0,69,58,29
0,82,64,0
0,69,0,4
0,82,0,0
0,69,40,14
0,82,44,0
0,69,0,4
0,82,0,0
0,74,28,62
0,69,54,30
0,82,55,0
0,69,0,4
0,82,0,0
0,69,29,31
0,82,36,0
0,69,0,4
0,82,0,0
0,69,53,13
0,82,59,0
0,69,0,4
0,82,0,0
0,69,32,92
0,82,27,0
0,69,0,4
0,82,0,0
0,69,53,90
0,82,57,0
0,69,0,4
0,82,0,0
0,69,32,55
0,82,36,0
0,69,0,4
0,82,0,0
0,69,58,92
0,82,62,0
0,69,0,4
0,82,0,0
0,69,42,50
0,82,37,0
0,69,0,4
0,82,0,0
0,69,50,13
0,82,50,0
0,69,0,4
0,82,0,0
0,69,31,45
0,82,30,0
0,69,0,4
0,82,0,0
0,69,56,64
0,82,57,0
0,69,0,4
0,82,0,0
0,69,28,88
0,82,31,0
0,69,0,4
0,82,0,0
0,69,58,17
0,82,58,0
0,69,0,4
0,82,0,0
0,69,34,32
0,82,32,0
0,69,0,4
0,82,0,0
0,69,60,92
0,82,64,0
0,69,37,46
0,82,39,0
0,69,0,4
0,82,0,0
0,69,52,14
0,82,53,0
0,69,0,4
0,82,0,0
0,69,30,10
0,82,31,0
0,69,0,4
0,82,0,0
0,69,53,27
0,82,59,0
0,69,0,4
0,82,0,0
0,69,26,43
0,82,28,0
0,69,0,4
0,82,0,0
0,69,54,23
0,82,58,0
0,69,0,4
0,82,0,0
0,69,33,29
0,82,33,0
0,69,0,4
0,82,0,0
0,69,57,31
0,82,62,0
0,69,0,4
0,82,0,0
0,69,40,13
0,82,44,0
0,69,0,4
0,82,0,0
0,69,53,35
0,82,55,0
0,69,0,4
0,82,0,0
0,69,33,32
0,82,29,0
0,69,0,4
0,82,0,0
0,69,53,12
0,82,57,0
0,69,0,4
0,82,0,0
0,69,32,19
0,82,27,0
0,69,0,4
0,82,0,0
0,69,56,12
0,82,58,0
0,69,0,4
0,82,0,0
0,69,29,26
0,82,32,0
0,69,0,4
0,82,0,0
0,69,65,24
0,82,64,0
0,69,0,4
0,82,0,0
0,69,37,20
0,82,42,0
0,69,0,4
0,82,0,0
0,69,53,92
0,82,49,0
0,69,0,4
0,82,0,0
0,69,33,92
0,82,33,0
0,69,0,4
0,82,0,0
0,69,56,51
0,82,58,0
0,69,0,4
0,82,0,0
0,69,30,92
0,82,28,0
0,69,0,4
0,82,0,0
0,69,57,91
0,82,58,0
0,69,0,4
0,82,0,0
0,69,29,92
0,82,29,0
0,69,0,4
0,82,0,0
0,69,59,67
0,82,61,0
0,69,0,4
0,82,0,0
0,69,42,12
0,82,41,0
0,69,0,4
0,82,0,0
0,74,0,1
0,69,52,91
0,82,51,0
0,69,0,4
0,82,0,0
0,69,30,92
0,82,35,0
0,69,0,4
0,82,0,0
0,69,54,92
0,82,55,0
0,69,0,4
0,82,0,0
0,69,30,76
0,82,31,0
0,69,0,4
0,82,0,0
0,69,57,47
0,82,58,0
0,69,0,4
0,82,0,0
0,69,34,92
0,82,32,0
0,69,0,4
0,82,0,0
0,69,64,92
0,82,62,0
0,69,0,4
0,82,0,0
0,69,40,92
0,82,43,0
0,69,0,4
0,82,0,0
0,69,49,92
0,82,53,0
0,69,0,4
0,82,0,0
0,69,31,92
0,82,34,0
0,69,0,4
0,82,0,0
0,69,55,32
0,82,56,0
0,69,0,4
0,82,0,0
0,69,30,92
0,82,27,0
0,69,0,4
0,82,0,0
0,69,56,92
0,82,57,0
0,69,0,4
0,82,0,0
0,69,36,92
0,82,32,0
0,69,0,4
0,82,0,0
0,69,64,92
0,82,59,0
0,69,0,4
0,82,0,0
0,69,38,92
0,82,38,0
0,69,0,4
0,82,0,0
0,69,53,92
0,82,54,0
0,69,0,4
0,82,0,0
0,69,30,92
0,82,31,0
0,69,0,4
0,82,0,0
0,69,58,92
0,82,53,0
0,69,0,4
0,82,0,0
0,69,31,92
0,82,25,0
0,69,0,4
0,82,0,0
0,76,34,65
0,69,53,27
0,82,57,0
0,69,0,4
0,82,0,0
0,69,35,92
0,82,30,0
0,69,0,4
0,82,0,0
0,69,59,92
0,82,60,0
0,69,0,4
0,82,0,0
0,69,38,92
0,82,43,0
0,69,0,4
0,82,0,0
0,69,56,92
0,82,55,0
0,69,0,4
0,82,0,0
0,69,33,92
0,82,34,0
0,69,0,4
0,82,0,0
0,69,56,92
0,82,54,0
0,69,0,4
0,82,0,0
0,69,25,92
0,82,25,0
0,69,0,4
0,82,0,0
0,69,58,92
0,82,56,0
0,69,0,4
0,82,0,0
0,62,64,30
0,69,30,62
0,82,34,0
0,69,0,4
0,82,0,0
0,69,64,92
0,82,65,0
0,69,0,4
0,82,0,0
0,69,38,92
0,82,42,0
0,69,0,4
0,82,0,0
0,69,49,92
0,82,56,0
0,69,0,4
0,82,0,0
0,77,0,22
0,69,33,70
0,82,35,0
0,69,0,4
0,82,0,0
0,69,57,92
0,82,58,0
0,69,0,4
0,82,0,0
0,69,27,92
0,82,27,0
0,69,0,4
0,82,0,0
0,69,53,92
0,82,54,0
0,69,0,4
0,82,0,0
0,69,30,92
0,82,35,0
0,69,0,4
0,82,0,0
0,69,64,92
0,82,57,0
0,69,0,4
0,82,0,0
0,69,39,92
0,82,42,0
0,69,0,4
0,82,0,0
0,69,50,92
0,82,49,0
0,69,0,4
0,82,0,0
0,69,29,92
0,82,33,0
0,69,0,4
0,82,0,0
0,69,60,92
0,82,58,0
0,69,0,4
0,82,0,0
0,69,30,92
0,82,30,0
0,47,103,1
0,69,0,3
0,82,0,0
0,52,92,1
0,55,87,5
0,59,80,4
0,64,82,4
0,64,0,58
0,64,88,5
0,59,0,3
0,59,76,6
0,69,54,6
0,82,53,0
0,45,90,3
0,52,0,0
0,55,0,1
0,69,35,0
0,82,35,0
0,50,94,2
0,64,0,1
0,69,0,1
0,82,0,0
0,57,96,1
0,62,91,3
0,66,101,3
0,69,59,85
0,82,61,0
0,69,0,4
0,82,0,0
0,66,0,86
0,62,0,4
0,66,91,1
0,69,40,1
0,82,37,0
0,62,88,3
0,57,0,1
0,69,0,0
0,82,0,0
0,50,0,3
0,57,83,2
0,50,87,3
0,45,88,5
0,69,49,0
0,82,49,0
0,50,0,1
0,69,0,3
0,82,0,0
0,50,94,2
0,57,0,0
0,62,0,3
0,57,91,2
0,62,87,3
0,66,0,0
0,66,90,5
0,66,0,71
0,66,80,5
0,69,30,1
0,82,30,0
0,62,0,1
0,69,0,3
0,82,0,0
0,62,96,1
0,57,0,1
0,57,87,5
0,50,0,1
0,50,84,4
0,45,0,73
0,50,0,4
0,45,89,3
0,57,0,0
0,69,58,0
0,82,54,0
0,50,93,3
0,62,0,0
0,69,0,1
0,82,0,0
0,57,95,1
0,66,0,1
0,62,85,2
0,66,91,3
0,66,78,4
0,69,26,2
0,82,27,0
0,62,0,4
0,69,0,0
0,82,0,0
0,62,92,4
0,57,0,4
0,57,98,4
0,50,0,3
0,45,0,3
0,50,82,1
0,45,87,6
0,45,0,63
0,50,0,3
0,45,94,1
0,69,55,0
0,82,59,0
0,57,0,2
0,50,91,1
0,69,0,1
0,82,0,0
0,62,0,1
0,57,93,1
0,66,0,2
0,62,89,1
0,66,91,3
0,66,94,4
0,69,29,2
0,82,32,0
0,62,0,2
0,69,0,2
0,82,0,0
0,62,90,2
0,57,0,2
0,57,86,4
0,50,0,1
0,50,96,4
0,45,0,73
0,66,0,1
0,50,0,3
0,48,86,2
0,69,57,0
0,82,60,0
0,57,0,1
0,62,0,1
0,52,84,1
0,69,0,1
0,82,0,0
0,55,83,1
0,60,85,3
0,64,85,3
0,64,0,79
0,64,78,4
0,69,43,1
0,82,41,0
0,60,0,4
0,69,0,0
0,82,0,0
0,60,87,4
0,55,0,4
0,55,92,4
0,52,0,3
0,48,0,3
0,52,84,1
0,48,81,6
0,48,0,63
0,52,0,3
0,48,88,1
0,69,55,0
0,82,49,0
0,55,0,2
0,52,82,1
0,69,0,1
0,82,0,0
0,60,0,1
0,55,80,1
0,64,0,2
0,60,90,1
0,64,93,3
0,64,0,78
0,64,88,4
0,69,37,2
0,82,31,0
0,60,0,2
0,69,0,2
0,82,0,0
0,60,93,2
0,55,0,2
0,55,82,4
0,52,0,1
0,52,92,4
0,48,95,6
0,55,0,0
0,69,59,0
0,82,53,0
0,52,92,3
0,60,0,0
0,69,0,1
0,82,0,0
0,55,98,1
0,64,0,1
0,60,92,2
0,64,97,3
0,64,0,79
0,64,78,4
0,69,31,2
0,82,26,0
0,60,0,4
0,69,0,0
0,82,0,0
0,60,90,4
0,55,0,4
0,55,91,4
0,52,0,3
0,48,0,3
0,52,89,1
0,48,89,6
0,48,96,1
0,69,54,0
0,82,57,0
0,55,0,2
0,52,93,1
0,69,0,1
0,82,0,0
0,60,0,1
0,55,91,1
0,64,0,2
0,60,91,1
0,64,96,3
0,66,86,82
0,69,35,2
0,82,35,0
0,64,0,1
0,60,0,1
0,69,0,2
0,82,0,0
0,64,86,2
0,55,0,2
0,59,81,4
0,52,0,1
0,54,89,4
0,47,76,1
0,69,57,0
0,82,64,0
0,64,0,2
0,54,86,1
0,69,0,1
0,82,0,0
0,59,72,1
0,64,85,3
0,66,0,0
0,66,75,3
0,76,0,71
0,66,83,4
0,69,38,2
0,82,38,0
0,64,0,4
0,69,0,0
0,82,0,0
0,64,88,4
0,59,0,4
0,59,91,4
0,54,0,3
0,47,0,3
0,54,84,1
0,47,87,6
0,47,0,63
0,54,0,3
0,47,95,1
0,69,51,0
0,82,49,0
0,59,0,2
0,54,85,1
0,69,0,1
0,82,0,0
0,64,0,1
0,59,91,1
0,66,0,2
0,64,89,1
0,66,96,3
0,66,0,78
0,66,92,4
0,69,31,2
0,82,31,0
0,64,0,2
0,69,0,2
0,82,0,0
0,64,85,2
0,59,0,2
0,59,88,4
0,54,0,1
0,54,95,4
0,47,92,6
0,59,0,0
0,69,55,0
0,82,57,0
0,54,85,3
0,64,0,0
0,69,0,1
0,82,0,0
0,59,95,1
0,66,0,1
0,64,95,2
0,66,103,3
0,62,0,23
0,66,0,56
0,66,85,4
0,69,29,2
0,82,27,0
0,64,0,4
0,69,0,0
0,82,0,0
0,64,91,4
0,59,0,4
0,59,93,4
0,54,0,3
0,47,0,3
0,54,89,1
0,47,84,6
0,47,0,63
0,54,0,3
0,47,93,1
0,69,60,0
0,82,55,0
0,59,0,2
0,54,95,1
0,69,0,1
0,82,0,0
0,64,0,1
0,59,93,1
0,66,0,2
0,64,89,1
0,66,95,3
0,66,0,78
0,66,85,4
0,69,30,2
0,82,35,0
0,64,0,2
0,69,0,2
0,82,0,0
0,64,92,2
0,59,0,2
0,59,87,4
0,54,0,1
0,54,90,4
0,47,74,2
0,69,60,0
0,82,63,0
0,59,0,1
0,64,0,1
0,52,84,1
0,69,0,1
0,82,0,0
0,55,82,3
0,59,91,4
0,64,97,4
0,69,42,4
0,82,38,0
0,69,0,4
0,82,0,0
0,47,85,7
0,69,54,0
0,82,57,0
0,52,84,3
0,55,0,0
0,69,0,1
0,82,0,0
0,59,0,2
0,55,87,1
0,59,88,4
0,69,31,17
0,82,29,0
0,69,0,4
0,82,0,0
0,64,0,85
0,52,0,2
0,64,94,2
0,59,0,1
0,69,54,2
0,82,56,0
0,55,0,1
0,47,0,1
0,59,92,0
0,69,0,2
0,82,0,0
0,55,102,2
0,52,96,5
0,47,97,4
0,69,27,0
0,82,29,0
0,47,97,1
0,69,0,3
0,82,0,0
0,52,90,1
0,55,0,1
0,59,0,3
0,55,89,1
0,64,0,3
0,59,81,1
0,64,80,4
0,64,0,58
0,64,87,5
0,59,0,3
0,59,79,6
0,69,57,6
0,82,60,0
0,69,0,4
0,82,0,0
0,45,89,3
0,52,0,0
0,55,0,1
0,69,30,0
0,82,33,0
0,50,89,2
0,64,0,1
0,69,0,1
0,82,0,0
0,57,102,1
0,62,92,3
0,66,95,3
0,69,58,82
0,82,58,0
0,69,0,4
0,82,0,0
0,66,85,1
0,69,38,1
0,82,39,0
0,62,86,3
0,57,0,1
0,69,0,0
0,82,0,0
0,50,0,3
0,57,85,2
0,50,80,3
0,45,91,5
0,69,49,0
0,82,56,0
0,50,0,1
0,69,0,3
0,82,0,0
0,50,95,2
0,57,0,0
0,62,0,3
0,57,91,2
0,62,82,3
0,66,0,0
0,66,96,5
0,66,0,71
0,66,78,5
0,69,35,1
0,82,32,0
0,62,0,1
0,69,0,3
0,82,0,0
0,62,89,1
0,57,0,1
0,57,86,5
0,50,0,1
0,50,85,4
0,45,89,3
0,57,0,0
0,69,55,0
0,82,58,0
0,50,91,3
0,62,0,0
0,69,0,1
0,82,0,0
0,57,90,1
0,66,0,1
0,62,85,2
0,66,101,3
0,66,83,4
0,69,26,2
0,82,25,0
0,62,0,4
0,69,0,0
0,82,0,0
0,62,89,4
0,57,0,4
0,57,96,4
0,50,0,3
0,45,0,3
0,50,82,1
0,45,89,6
0,45,0,63
0,50,0,3
0,45,98,1
0,69,60,0
0,82,57,0
0,57,0,2
0,50,91,1
0,69,0,1
0,82,0,0
0,62,0,1
0,57,86,1
0,66,0,2
0,62,83,1
0,66,99,3
0,66,88,4
0,69,35,2
0,82,29,0
0,62,0,2
0,69,0,2
0,82,0,0
0,62,96,2
0,57,0,2
0,57,84,4
0,50,0,1
0,50,87,4
0,48,87,2
0,69,59,0
0,82,64,0
0,57,0,1
0,62,0,1
0,52,87,1
0,69,0,1
0,82,0,0
0,55,79,1
0,60,83,3
0,64,84,3
0,64,82,4
0,69,44,2
0,82,42,0
0,60,0,4
0,69,0,0
0,82,0,0
0,60,87,4
0,55,0,4
0,55,91,1
0,52,0,3
0,48,0,3
0,52,84,1
0,48,80,6
0,48,0,63
0,52,0,3
0,48,86,1
0,69,49,0
0,82,55,0
0,55,0,2
0,52,80,0
0,69,0,1
0,82,0,0
0,60,0,1
0,55,90,1
0,64,0,2
0,60,89,1
0,64,87,3
0,64,0,78
0,64,89,4
0,69,36,2
0,82,33,0
0,60,0,2
0,69,0,2
0,82,0,0
0,60,92,2
0,55,0,2
0,55,89,4
0,52,0,1
0,52,91,4
0,48,97,6
0,55,0,0
0,69,59,0
0,82,57,0
0,52,96,3
0,60,0,0
0,69,0,1
0,82,0,0
0,55,86,1
0,64,0,1
0,60,86,2
0,64,96,3
0,64,81,4
0,69,26,2
0,82,31,0
0,60,0,4
0,69,0,0
0,82,0,0
0,60,84,4
0,55,0,4
0,55,90,4
0,52,89,1
0,48,92,6
0,48,0,63
0,52,0,3
0,48,92,1
0,69,54,0
0,82,54,0
0,55,0,2
0,52,88,1
0,69,0,1
0,82,0,0
0,60,0,1
0,55,89,1
0,64,0,2
0,60,92,1
0,64,96,3
0,66,84,77
0,69,37,2
0,82,31,0
0,64,0,1
0,60,0,1
0,69,0,2
0,82,0,0
0,64,88,2
0,55,0,2
0,59,85,4
0,52,0,1
0,54,89,4
0,47,76,1
0,69,62,0
0,82,59,0
0,64,0,2
0,54,87,1
0,69,0,1
0,82,0,0
0,59,76,1
0,64,78,3
0,66,0,0
0,66,70,3
0,66,0,79
0,66,81,4
0,69,42,0
0,82,39,0
0,64,0,4
0,69,0,0
0,82,0,0
0,64,90,4
0,59,0,4
0,59,90,4
0,54,0,3
0,47,0,3
0,54,90,1
0,47,86,4
0,47,0,63
0,54,0,3
0,47,93,1
0,69,49,0
0,82,54,0
0,59,0,2
0,54,91,1
