track,note,velocity,time
3,37,107,470
3,37,95,180
3,37,107,83
3,37,107,440
3,37,94,180
3,37,107,60
3,35,98,45
3,33,107,20
3,33,97,225
3,33,107,93
3,33,107,430
3,33,100,190
3,33,107,105
3,35,107,395
3,35,100,170
3,35,107,93
3,35,107,440
3,35,91,215
3,35,107,93
3,37,107,408
3,37,100,158
3,37,107,70
3,37,107,465
3,37,100,213
3,37,107,103
3,44,83,10
3,37,107,65
3,37,95,180
3,37,107,83
3,37,107,440
3,37,94,180
3,37,107,60
3,35,98,45
3,33,107,20
3,33,97,225
3,33,107,93
3,33,107,430
3,33,100,190
3,33,107,105
3,35,107,395
3,35,100,170
3,35,107,93
3,35,107,440
3,35,91,215
3,35,107,93
3,37,107,408
3,37,100,158
3,37,107,70
3,37,107,465
3,37,100,213
3,37,107,103
3,44,83,10
3,37,107,65
3,37,95,180
3,37,107,83
3,37,107,440
3,37,94,180
3,37,107,60
3,35,98,45
3,33,107,20
3,33,97,225
3,33,107,93
3,33,107,430
3,33,100,190
3,33,107,105
3,35,107,395
3,35,100,170
3,35,107,93
3,35,107,440
3,35,91,215
3,35,107,93
3,37,107,408
3,37,100,158
3,37,107,70
3,37,107,465
3,37,100,213
3,37,107,103
3,44,83,10
3,37,107,65
3,37,95,180
3,37,107,83
3,37,107,440
3,37,94,180
3,37,107,60
3,35,98,45
3,33,107,20
3,33,97,225
3,33,107,93
3,33,107,430
3,33,100,190
3,33,107,105
3,35,107,395
3,35,100,170
3,35,107,93
3,35,107,440
3,35,91,215
3,35,107,93
3,37,107,408
3,37,100,158
3,37,107,70
3,37,107,465
3,37,100,213
3,37,107,103
3,44,83,10
3,37,107,65
3,37,95,180
3,37,107,83
3,37,107,440
3,37,94,180
3,37,107,60
3,35,98,45
3,33,107,20
3,33,97,225
3,33,107,93
3,33,107,430
3,33,100,190
3,33,107,105
3,35,107,395
3,35,100,170
3,35,107,93
3,35,107,440
3,35,91,215
3,35,107,93
3,37,107,408
3,37,100,158
3,37,107,70
3,37,107,465
3,37,100,213
3,37,107,103
3,44,83,10
3,37,107,65
3,37,95,180
3,37,107,83
3,37,107,440
3,37,94,180
3,37,107,60
3,35,98,45
3,33,107,20
3,33,97,225
3,33,107,93
3,33,107,430
3,33,100,190
3,33,107,105
3,35,107,395
3,35,100,170
3,35,107,93
3,35,107,440
3,35,91,215
3,35,107,93
3,37,107,408
3,37,100,158
3,37,107,70
3,37,107,465
3,37,100,213
3,37,107,103
3,44,83,10
3,37,107,65
3,37,95,180
3,37,107,83
3,37,107,440
3,37,94,180
3,37,107,60
3,35,98,45
3,33,107,20
3,33,97,225
3,33,107,93
3,33,107,430
3,33,100,190
3,33,107,105
3,35,107,395
3,35,100,170
3,35,107,93
3,35,107,440
3,35,91,215
3,35,107,93
3,37,107,408
3,37,100,158
3,37,107,70
3,37,107,465
3,37,100,213
3,37,107,103
3,44,83,10
3,37,107,65
3,37,95,180
3,37,107,83
3,37,107,440
3,37,94,180
3,37,107,60
3,35,98,45
3,33,107,20
3,33,97,225
3,33,107,93
3,33,107,430
3,33,100,190
3,33,107,105
3,35,107,395
3,35,100,170
3,35,107,93
3,35,107,440
3,35,91,215
3,35,107,93
3,37,107,408
3,37,100,158
3,37,107,70
3,37,107,465
3,37,100,213
3,37,107,103
3,44,83,10
3,37,107,65
3,37,95,180
3,37,107,83
3,37,107,440
3,37,94,180
3,37,107,60
3,35,98,45
3,33,107,20
3,33,97,225
3,33,107,93
3,33,107,430
3,33,100,190
3,33,107,105
3,35,107,395
3,35,100,170
3,35,107,93
3,35,107,440
3,35,91,215
3,35,107,93
3,37,107,408
3,37,100,158
3,37,107,70
3,37,107,465
3,37,100,213
3,37,107,103
3,44,83,10
3,37,107,65
3,37,95,180
3,37,107,83
3,37,107,440
3,37,94,180
3,37,107,60
3,35,98,45
3,33,107,20
3,33,97,225
3,33,107,93
3,33,107,430
3,33,100,190
3,33,107,105
3,35,107,395
3,35,100,170
3,35,107,93
3,35,107,440
3,35,91,215
3,35,107,93
3,37,107,408
3,37,100,158
3,37,107,70
3,37,107,465
3,37,100,213
3,37,107,103
3,44,83,10
3,37,107,65
3,37,95,180
3,37,107,83
3,37,107,440
3,37,94,180
3,37,107,60
3,35,98,45
3,33,107,20
3,33,97,225
3,33,107,93
3,33,107,430
3,33,100,190
3,33,107,105
3,35,107,395
3,35,100,170
3,35,107,93
3,35,107,440
3,35,91,215
3,35,107,93
3,37,107,408
3,37,100,158
3,37,107,70
3,37,107,465
3,37,100,213
3,37,107,103
3,44,83,10
3,37,107,65
3,37,95,180
3,37,107,83
3,37,107,440
3,37,94,180
3,37,107,60
3,35,98,45
3,33,107,20
3,33,97,225
3,33,107,93
3,33,107,430
3,33,100,190
3,33,107,105
3,35,107,395
3,35,100,170
3,35,107,93
3,35,107,440
3,35,91,215
3,35,107,93
3,37,102,408
3,37,94,158
3,37,102,70
3,37,102,465
3,37,94,213
3,37,102,103
3,39,77,10
3,40,111,65
3,40,107,185
3,40,97,70
3,40,90,180
3,40,90,148
3,40,86,38
3,39,86,58
3,37,86,45
3,37,93,195
3,37,86,60
3,37,107,195
3,37,101,125
3,37,96,48
3,33,96,148
3,33,96,170
3,33,96,83
3,33,97,238
3,33,103,145
3,33,90,63
3,32,101,193
3,32,101,183
3,32,93,98
3,32,86,218
3,32,101,173
3,35,97,50
3,32,102,240
3,36,107,153
3,37,99,93
3,37,96,188
3,37,96,108
3,37,106,273
3,37,106,208
3,37,99,83
3,35,107,133
3,35,86,138
3,35,102,85
3,35,96,195
3,35,86,163
3,35,96,118
3,30,106,158
3,30,99,170
3,30,106,105
3,32,106,83
3,33,108,115
3,33,113,173
3,33,108,83
3,35,108,45
3,37,102,70
3,37,92,183
3,37,102,73
3,37,99,213
3,37,102,208
3,37,105,70
3,39,99,45
3,40,103,128
3,40,96,135
3,40,99,85
3,40,96,190
3,40,91,148
3,40,99,70
3,30,102,65
3,30,99,180
3,30,92,73
3,30,92,238
3,30,86,150
3,30,107,93
3,32,115,80
3,33,108,83
3,33,96,110
3,33,103,85
3,33,108,235
3,33,108,158
3,33,107,118
3,32,102,205
3,32,102,185
3,32,106,85
3,32,106,238
3,32,106,160
3,35,108,63
3,32,107,240
3,36,113,165
3,37,113,58
3,37,106,218
3,37,107,108
3,37,99,403
3,37,99,228
3,37,102,60
3,35,107,148
3,35,96,173
3,35,96,63
3,35,103,240
3,35,103,160
3,35,102,95
3,28,113,240
3,29,113,60
3,30,107,58
3,30,106,183
3,30,115,118
3,32,115,80
3,33,108,93
3,33,108,150
3,33,103,108
3,35,113,13
3,37,106,95
3,37,106,183
3,37,107,60
3,37,106,205
3,37,115,150
3,37,106,60
3,40,103,240
3,40,96,135
3,40,99,85
3,40,96,190
3,40,91,148
3,40,99,70
3,30,102,65
3,30,99,180
3,30,92,73
3,30,92,238
3,30,86,150
3,30,107,93
3,32,115,80
3,33,108,83
3,33,96,110
3,33,103,85
3,33,108,235
3,33,108,158
3,33,107,118
3,32,102,205
3,32,102,185
3,32,106,85
3,32,106,238
3,32,106,160
3,35,108,63
3,32,107,240
3,36,113,165
3,37,113,58
3,37,106,218
3,37,107,108
3,37,99,403
3,37,99,228
3,37,102,60
3,35,107,148
3,35,96,173
3,35,96,63
3,35,103,240
3,35,103,160
3,35,102,95
3,28,113,240
3,29,113,60
3,30,107,58
3,30,106,183
3,30,115,118
3,32,115,80
3,33,108,93
3,33,108,150
3,33,103,108
3,35,113,13
3,37,106,95
3,37,106,183
3,37,107,60
3,37,106,205
3,37,115,150
3,37,106,60
3,40,103,240
3,40,96,135
3,40,99,85
3,40,96,190
3,40,91,148
3,40,99,70
3,30,102,65
3,30,99,180
3,30,92,73
3,30,92,238
3,30,86,150
3,30,107,93
3,32,115,80
3,33,108,83
3,33,96,110
3,33,103,85
3,33,108,235
3,33,108,158
3,33,107,118
3,32,102,205
3,32,102,185
3,32,106,85
3,32,106,238
3,32,106,160
3,35,108,63
3,32,107,240
3,36,113,165
3,37,113,58
3,37,106,218
3,37,107,108
3,37,99,403
3,37,99,228
3,37,102,60
3,35,107,148
3,35,96,173
3,35,96,63
3,35,103,240
3,35,103,160
3,35,102,95
3,28,113,240
3,29,113,60
3,30,107,58
3,30,106,183
3,30,115,118
3,32,115,80
3,33,108,93
3,33,108,150
3,33,103,108
3,35,113,13
3,37,106,95
3,37,106,183
3,37,107,60
3,37,106,205
3,37,115,150
3,37,106,60
3,25,114,240
4,68,115,3350
4,64,115,0
4,68,115,0
4,68,115,480
4,64,115,0
4,68,115,0
4,68,115,480
4,64,115,0
4,68,115,0
4,68,115,480
4,64,115,0
4,68,115,0
4,68,115,480
4,64,115,0
4,68,115,0
4,68,115,480
4,64,115,0
4,68,115,0
4,68,115,480
4,64,115,0
4,68,115,0
4,68,115,480
4,64,115,0
4,68,115,0
4,68,115,61920
4,64,115,0
4,68,115,0
4,68,115,480
4,64,115,0
4,68,115,0
4,68,115,480
4,64,115,0
4,68,115,0
4,68,115,480
4,64,115,0
4,68,115,0
4,68,115,480
4,64,115,0
4,68,115,0
4,68,115,480
4,64,115,0
4,68,115,0
4,68,115,480
4,64,115,0
4,68,115,0
4,68,115,480
4,64,115,0
4,68,115,0
4,68,115,480
4,64,115,0
4,68,115,0
4,68,115,480
4,64,115,0
4,68,115,0
4,68,115,480
4,64,115,0
4,68,115,0
4,68,115,480
4,64,115,0
4,68,115,0
4,68,115,480
4,64,115,0
4,68,115,0
4,68,115,480
4,64,115,0
4,68,115,0
4,68,115,480
4,64,115,0
4,68,115,0
4,68,115,480
4,64,115,0
4,68,115,0
4,68,115,480
4,64,115,0
4,68,115,0
4,68,115,480
4,64,115,0
4,68,115,0
4,68,115,480
4,64,115,0
4,68,115,0
4,68,115,480
4,64,115,0
4,68,115,0
4,68,115,480
4,64,115,0
4,68,115,0
4,68,115,480
4,64,115,0
4,68,115,0
4,68,115,480
4,64,115,0
4,68,115,0
4,68,115,480
4,64,115,0
4,68,115,0
4,68,115,480
4,64,115,0
4,68,115,0
4,68,115,480
4,64,115,0
4,68,115,0
4,68,115,480
4,64,115,0
4,68,115,0
4,68,115,480
4,64,115,0
4,68,115,0
4,68,115,480
4,64,115,0
4,68,115,0
4,68,115,480
4,64,115,0
4,68,115,0
4,68,115,480
4,64,115,0
4,68,115,0
4,68,115,480
4,64,115,0
4,68,115,0
4,68,115,480
4,64,115,0
4,73,127,0
5,68,115,1670
5,68,115,63
5,76,115,25
5,76,115,63
5,75,115,50
5,75,115,73
5,73,115,50
5,73,115,73
5,71,115,50
5,71,115,50
5,73,115,60
5,76,115,25
5,68,115,793
5,68,115,38
5,68,115,50
5,76,115,50
5,76,115,50
5,75,115,73
5,75,115,60
5,73,115,53
5,73,115,63
5,71,115,15
5,71,115,63
5,76,115,63
5,73,115,8
5,68,115,758
5,68,115,60
5,76,115,60
5,76,115,108
5,75,115,50
5,75,115,83
5,73,115,73
5,73,115,73
5,71,115,50
5,71,115,83
5,73,115,50
5,76,115,28
5,73,115,793
5,73,115,75
5,76,115,95
5,73,115,83
5,68,115,2918
5,68,115,120
5,68,115,108
5,76,115,63
5,76,115,50
5,75,115,50
5,75,115,73
5,73,115,50
5,73,115,73
5,71,115,50
5,71,115,50
5,73,115,60
5,76,115,25
5,68,115,793
5,68,115,38
5,76,115,50
5,76,115,63
5,75,115,73
5,75,115,60
5,73,115,53
5,73,115,63
5,71,115,15
5,71,115,63
5,76,115,63
5,73,115,8
5,68,115,758
5,68,115,60
5,68,115,60
5,76,115,25
5,76,115,25
5,75,115,50
5,75,115,83
5,73,115,73
5,73,115,73
5,71,115,50
5,71,115,83
5,73,115,50
5,76,115,28
5,73,115,793
5,73,115,75
5,73,115,95
5,76,115,83
5,73,115,38
5,80,115,2690
5,78,115,120
5,80,115,123
5,78,115,145
5,76,115,165
5,76,115,85
5,73,115,815
5,76,115,40
5,80,115,165
5,81,115,98
5,78,115,88
5,78,115,635
5,78,115,153
5,83,115,155
5,83,115,178
5,80,115,28
5,80,115,143
5,78,115,15
5,83,115,733
5,83,115,120
5,83,115,130
5,85,115,98
5,83,115,0
5,80,115,50
5,80,115,108
5,87,115,48
5,85,115,0
5,83,115,120
5,80,115,188
5,78,115,13
5,76,115,83
5,80,115,0
5,80,115,188
5,78,115,178
5,78,115,165
5,76,115,25
5,73,115,693
5,76,115,60
5,80,115,18
5,80,115,143
5,80,115,63
5,81,115,188
5,78,115,63
5,78,115,748
5,78,115,75
5,80,115,28
5,83,115,50
5,83,115,63
5,83,115,108
5,80,115,38
5,80,115,73
5,78,115,28
5,83,115,68
5,83,115,73
5,85,115,95
5,85,115,85
5,83,115,98
5,80,115,3
5,87,115,70
5,85,115,143
5,83,115,0
5,80,115,50
5,68,115,31228
5,68,115,95
5,68,115,108
5,76,115,82
5,76,115,82
5,75,115,48
5,75,115,82
5,73,115,70
5,73,115,83
5,71,115,37
5,71,115,93
5,73,115,82
5,76,115,80
5,68,115,795
5,68,115,102
5,68,115,80
5,76,115,80
5,76,115,95
5,75,115,47
5,75,115,93
5,73,115,82
5,73,115,130
5,71,115,60
5,71,115,83
5,76,115,83
5,73,115,57
5,68,115,738
5,68,115,102
5,68,115,115
5,76,115,93
5,76,115,127
5,75,115,60
5,75,115,107
5,73,115,102
5,73,115,105
5,71,115,60
5,71,115,92
5,73,115,85
5,76,115,83
5,73,115,760
5,73,115,105
5,73,115,105
5,76,115,118
5,73,115,58
5,68,115,2653
5,68,115,95
5,68,115,108
5,76,115,82
5,76,115,82
5,75,115,48
5,75,115,82
5,73,115,70
5,73,115,83
5,71,115,37
5,71,115,93
5,73,115,82
5,76,115,80
5,68,115,795
5,68,115,102
5,68,115,80
5,76,115,80
5,76,115,95
5,75,115,47
5,75,115,93
5,73,115,82
5,73,115,130
5,71,115,60
5,71,115,83
5,76,115,83
5,73,115,57
5,68,115,738
5,68,115,102
5,68,115,115
5,76,115,93
5,76,115,127
5,75,115,60
5,75,115,107
5,73,115,102
5,73,115,105
5,71,115,60
5,71,115,92
5,73,115,85
5,76,115,83
5,73,115,760
5,73,115,105
5,73,115,105
5,76,115,118
5,73,115,58
5,73,115,2655
5,76,115,47
5,80,115,260
5,78,115,145
5,76,115,165
5,76,115,85
5,73,115,815
5,76,115,40
5,80,115,165
5,81,115,98
5,78,115,88
5,78,115,635
5,78,115,153
5,83,115,155
5,83,115,178
5,80,115,28
5,80,115,143
5,78,115,15
5,83,115,733
5,83,115,120
5,83,115,130
5,85,115,98
5,83,115,0
5,80,115,50
5,80,115,108
5,87,115,48
5,85,115,0
5,83,115,120
5,80,115,188
5,78,115,13
5,76,115,83
5,80,115,0
5,80,115,188
5,78,115,178
5,78,115,165
5,76,115,25
5,73,115,693
5,76,115,60
5,80,115,18
5,80,115,143
5,80,115,63
5,81,115,188
5,78,115,63
5,78,115,748
5,78,115,75
5,80,115,28
5,83,115,50
5,83,115,63
5,83,115,108
5,80,115,38
5,80,115,73
5,78,115,28
5,83,115,68
5,83,115,73
5,85,115,95
5,85,115,85
5,83,115,98
5,80,115,3
5,87,115,70
5,85,115,143
5,83,115,0
5,80,115,50
5,80,115,62668
5,78,115,93
5,76,115,100
5,76,115,43
5,80,115,1470
5,78,115,93
5,76,115,100
5,76,115,43
5,80,115,9150
5,78,115,93
5,76,115,100
5,76,115,43
5,80,115,1470
5,78,115,93
5,76,115,100
5,76,115,43
5,80,115,9150
5,78,115,93
5,76,115,100
5,76,115,43
5,80,115,1470
5,78,115,93
5,76,115,100
5,76,115,43
5,80,115,9150
5,78,115,93
5,76,115,100
5,76,115,43
5,80,115,1470
5,78,115,93
5,76,115,100
5,76,115,43
6,42,110,470
6,35,120,0
6,42,80,180
6,42,50,60
6,42,110,60
6,40,100,0
6,42,80,180
6,35,80,0
6,42,50,60
6,42,110,60
6,35,110,0
6,42,80,180
6,42,50,60
6,42,110,60
6,40,100,0
6,42,80,180
6,42,50,60
