track,note,velocity,time
1,45,91,6720
1,52,83,0
1,57,87,0
1,60,67,0
1,64,47,0
1,64,0,189
1,52,0,1
1,57,0,1
1,60,0,0
1,52,105,1
1,57,115,0
1,60,97,0
1,64,87,0
1,64,0,95
1,64,51,1
1,60,0,43
1,57,0,4
1,64,0,0
1,45,75,1
1,57,105,0
1,60,91,0
1,64,75,0
1,45,0,140
1,45,0,2
1,57,0,1
1,60,0,0
1,45,94,1
1,57,93,0
1,60,63,0
1,64,0,91
1,57,0,4
1,60,0,0
1,57,103,1
1,60,91,0
1,64,79,0
1,45,0,84
1,52,0,9
1,60,0,3
1,60,69,0
1,64,0,38
1,64,51,10
1,60,0,38
1,57,0,1
1,64,0,8
1,45,94,1
1,52,83,0
1,57,101,0
1,60,79,0
1,64,69,0
1,45,0,191
1,52,0,0
1,57,0,0
1,60,0,0
1,64,0,0
1,52,89,1
1,57,110,0
1,60,95,0
1,64,75,0
1,57,0,95
1,60,0,0
1,60,55,1
1,64,0,31
1,60,0,15
1,45,94,2
1,52,0,0
1,57,91,0
1,60,89,0
1,64,83,0
1,60,0,47
1,64,0,1
1,45,0,95
1,52,63,1
1,60,59,0
1,57,0,75
1,52,0,20
1,60,0,0
1,52,75,1
1,57,109,0
1,60,93,0
1,64,85,0
1,60,0,92
1,52,0,3
1,64,0,0
1,60,69,1
1,64,55,0
1,60,0,47
1,64,0,0
1,57,55,1
1,60,71,0
1,57,0,40
1,45,94,8
1,52,75,0
1,57,99,0
1,60,0,0
1,60,81,0
1,60,0,189
1,57,0,1
1,57,0,0
1,45,0,1
1,52,0,0
1,52,89,1
1,57,115,0
1,60,97,0
1,64,73,0
1,57,0,143
1,60,0,0
1,64,0,0
1,57,77,1
1,60,87,0
1,64,77,0
1,52,0,44
1,57,0,3
1,45,51,1
1,52,79,0
1,64,0,0
1,45,0,95
1,52,0,0
1,45,75,1
1,52,81,0
1,57,83,0
1,60,0,90
1,45,0,3
1,52,0,2
1,57,0,0
1,45,79,1
1,52,91,0
1,57,109,0
1,60,95,0
1,64,81,0
1,45,0,95
1,45,73,1
1,57,63,0
1,60,0,3
1,52,0,10
1,64,0,22
1,57,0,12
1,64,51,1
1,57,0,39
1,64,0,8
1,48,87,1
1,53,79,0
1,57,112,0
1,60,83,0
1,65,71,0
1,45,0,8
1,53,0,87
1,60,0,0
1,65,0,0
1,53,77,1
1,60,59,0
1,57,0,91
1,60,0,4
1,57,110,1
1,60,85,0
1,65,75,0
1,60,0,95
1,65,0,0
1,60,67,1
1,53,0,45
1,57,0,0
1,48,0,1
1,60,0,1
1,48,81,1
1,53,87,0
1,57,103,0
1,60,93,0
1,65,93,0
1,57,0,95
1,65,0,0
1,65,55,1
1,48,0,26
1,53,0,9
1,48,89,13
1,53,87,0
1,57,71,0
1,60,0,93
1,65,0,1
1,57,0,1
1,57,107,1
1,60,95,0
1,65,75,0
1,53,0,82
1,60,0,13
1,48,73,1
1,53,59,0
1,57,63,0
1,65,0,13
1,57,0,27
1,48,0,7
1,53,0,0
1,57,0,0
1,57,63,1
1,60,59,0
1,48,0,38
1,57,0,9
1,60,0,0
1,50,73,1
1,57,89,0
1,62,99,0
1,65,59,0
1,57,0,95
1,65,0,0
1,62,73,1
1,65,51,0
1,50,0,47
1,65,0,46
1,62,0,2
1,50,67,1
1,57,99,0
1,65,69,0
1,57,0,143
1,65,0,0
1,57,59,1
1,65,75,0
1,57,0,47
1,57,83,1
1,62,0,85
1,50,55,11
1,62,73,0
1,65,0,87
1,62,0,5
1,50,0,3
1,62,91,1
1,65,97,0
1,65,0,143
1,50,73,1
1,65,79,0
1,62,0,46
1,65,0,1
1,62,83,1
1,65,85,0
1,57,0,85
1,65,0,10
1,57,79,1
1,65,51,0
1,62,0,72
1,57,0,23
1,65,0,0
1,57,91,1
1,62,93,0
1,65,89,0
1,50,0,120
1,65,0,21
1,62,0,2
1,50,67,1
1,57,0,0
1,57,83,0
1,62,91,0
1,65,85,0
1,50,0,137
1,57,0,6
1,62,0,0
1,65,0,0
1,50,71,1
1,57,83,0
1,62,69,0
1,65,55,0
1,65,0,93
1,50,0,2
1,57,0,0
1,62,0,0
1,50,87,1
1,57,109,0
1,62,105,0
1,65,91,0
1,62,0,95
1,62,71,1
1,65,0,32
1,62,0,15
1,62,77,1
1,65,75,0
1,57,0,41
1,62,0,6
1,65,0,0
1,50,73,1
1,57,85,0
1,62,73,0
1,65,73,0
1,50,0,95
1,65,0,0
1,65,51,1
1,62,0,88
1,57,0,1
1,65,0,6
1,57,97,1
1,62,101,0
1,65,99,0
1,50,0,72
1,50,0,14
1,57,0,8
1,62,0,1
1,65,0,0
1,50,71,1
1,57,73,0
1,65,51,0
1,57,0,47
1,65,0,0
1,57,59,1
1,62,71,0
1,65,59,0
1,50,0,43
1,57,0,4
1,62,0,0
1,40,73,1
1,52,75,0
1,56,101,0
1,59,85,0
1,64,67,0
1,65,0,0
1,52,0,95
1,64,0,0
1,59,55,1
1,64,31,0
1,59,0,81
1,40,0,12
1,64,0,2
1,40,67,1
1,52,85,0
1,56,77,0
1,59,0,0
1,59,75,0
1,64,73,0
1,64,0,92
1,40,0,3
1,56,0,0
1,59,0,0
1,52,75,1
1,56,83,0
1,59,69,0
1,64,59,0
1,52,0,38
1,52,0,9
1,59,0,0
1,64,0,0
1,52,73,1
1,56,69,0
1,56,87,0
1,64,69,0
1,56,0,39
1,56,0,8
1,45,67,1
1,52,67,0
1,57,87,0
1,60,67,0
1,60,51,0
1,64,0,0
1,64,67,0
1,56,0,3
1,56,0,45
1,52,0,47
1,60,0,0
1,64,0,0
1,60,0,1
1,60,55,0
1,64,31,48
1,60,0,39
1,45,0,1
1,57,0,2
1,52,0,2
1,64,0,3
1,45,83,1
1,52,81,0
1,57,93,0
1,60,81,0
1,64,73,0
1,57,0,140
1,60,0,1
1,64,0,2
1,52,0,1
1,52,75,0
1,57,97,0
1,60,89,0
1,64,75,0
1,52,0,95
1,57,59,1
1,60,59,0
1,60,0,41
1,57,0,4
1,52,63,3
1,57,75,0
1,60,73,0
1,57,0,84
1,60,0,4
1,52,0,3
1,57,0,3
1,60,0,1
1,64,0,0
1,52,77,1
1,59,96,0
1,45,0,3
1,52,67,93
1,55,67,0
1,52,0,38
1,55,0,9
1,59,0,1
1,52,0,9
1,50,99,3111
1,57,118,0
1,62,99,0
1,65,75,0
1,62,0,94
1,65,0,1
1,50,75,1
1,62,73,0
1,65,59,0
1,57,0,87
1,50,0,8
1,62,0,0
1,65,0,0
1,57,109,1
1,62,91,0
1,65,83,0
1,50,0,87
1,50,77,57
1,57,101,0
1,62,95,0
1,65,87,0
1,65,0,1
1,62,0,43
1,57,0,45
1,65,0,3
1,65,63,4
1,57,0,45
1,57,79,3
1,65,0,39
1,57,0,8
1,65,59,1
1,62,0,28
1,57,95,20
1,62,109,0
1,57,0,93
1,50,67,3
1,57,83,0
1,62,0,42
1,65,0,3
1,62,77,3
1,65,67,0
1,50,0,37
1,57,0,4
1,62,0,6
1,50,81,1
1,57,105,0
1,62,85,0
1,65,73,0
1,65,0,86
1,57,0,9
1,62,0,0
1,57,87,1
1,62,71,0
1,65,67,0
1,65,0,46
1,50,0,42
1,57,0,7
1,62,0,0
1,65,0,0
1,50,73,1
1,57,101,0
1,65,79,0
1,57,0,93
1,57,79,3
1,65,0,32
1,50,0,9
1,57,0,6
1,50,77,1
1,57,101,0
1,62,95,0
1,65,87,0
1,50,0,55
1,65,0,40
1,65,63,1
1,57,0,43
1,57,79,5
1,65,0,39
1,57,0,8
1,65,59,1
1,62,0,31
1,57,95,17
1,62,109,0
1,57,0,93
1,50,67,3
1,57,83,0
1,62,0,42
1,65,0,3
1,62,77,3
1,65,67,0
1,50,0,37
1,57,0,4
1,62,0,6
1,50,83,1
1,57,99,0
1,62,97,0
1,62,0,92
1,62,67,4
1,62,0,47
1,57,0,1
1,57,75,0
1,62,79,0
1,65,0,0
1,65,81,0
1,57,0,47
1,62,0,0
1,65,0,0
1,57,105,1
1,62,85,0
1,65,73,0
1,65,0,93
1,62,0,2
1,62,75,1
1,65,59,0
1,57,0,36
1,62,0,11
1,65,0,0
1,57,71,1
1,62,63,0
1,50,0,45
1,57,0,2
1,45,85,1
1,52,85,0
1,57,101,0
1,60,71,0
1,60,51,0
1,62,0,0
1,64,71,0
1,50,0,10
1,60,0,70
1,60,0,16
1,60,55,0
1,64,0,30
1,60,0,17
1,60,59,1
1,64,51,0
1,52,0,41
1,57,0,3
1,45,0,1
1,60,0,2
1,52,77,1
1,52,87,0
1,57,107,0
1,60,91,0
1,45,73,48
1,52,0,10
1,57,0,30
1,60,0,1
1,57,99,7
1,60,71,0
1,64,0,0
1,64,59,0
1,64,0,46
1,60,0,1
1,52,59,1
1,57,71,0
1,64,63,0
1,45,0,24
1,52,0,11
1,57,0,8
1,57,0,4
1,40,71,1
1,52,0,0
1,52,77,0
1,56,101,0
1,59,69,0
1,64,0,51
1,40,0,44
1,56,0,0
1,47,75,1
1,47,0,95
1,59,0,0
1,40,67,1
1,52,0,0
1,52,79,0
1,56,87,0
1,59,79,0
1,64,67,0
1,59,0,140
1,52,0,3
1,56,0,0
1,47,73,1
1,56,93,0
1,59,82,0
1,40,0,42
1,59,0,5
1,40,55,1
1,52,81,0
1,56,73,0
1,56,0,48
1,56,0,46
1,40,0,1
1,56,87,1
1,59,81,0
1,64,0,34
1,52,0,9
1,52,55,5
1,59,63,0
1,64,55,0
1,59,0,20
1,59,0,27
1,59,59,1
1,64,0,6
1,56,0,26
1,59,0,14
1,52,77,2
1,56,85,0
1,59,89,0
1,64,73,0
1,47,0,44
1,52,0,51
1,59,0,0
1,59,63,1
1,52,0,5
1,64,0,28
1,56,0,3
1,59,0,11
1,45,69,1
1,52,79,0
1,57,79,0
1,61,69,0
1,64,67,0
1,52,0,186
1,57,0,5
1,61,0,0
1,64,0,0
1,52,69,1
1,57,89,0
1,61,77,0
1,64,67,0
1,57,0,96
1,57,69,0
1,64,0,9
1,57,0,36
1,45,69,3
1,52,63,0
1,57,81,0
1,64,63,0
1,61,0,1
1,52,0,39
1,45,0,7
1,52,69,1
1,57,69,0
1,61,73,0
1,52,0,95
1,57,66,1
1,57,0,1
1,57,96,24
1,61,92,0
1,64,96,0
1,57,0,4
1,52,0,2
1,64,0,3
1,61,0,39
1,45,0,12
1,57,83,3
1,45,87,48
1,45,92,28
1,57,87,0
1,62,83,0
1,64,92,0
1,57,75,151
1,62,62,0
1,57,92,19
1,62,47,0
1,64,75,0
1,57,102,20
1,62,110,0
1,64,104,0
1,57,87,7
1,33,69,46
1,45,92,20
1,57,100,0
1,62,105,0
1,64,100,0
1,57,100,6
1,50,82,56
1,57,112,0
1,62,100,0
1,65,88,0
1,57,0,93
1,62,0,1
1,65,0,0
1,57,92,2
1,62,86,0
1,65,68,0
1,62,0,93
1,57,0,2
1,65,0,0
1,57,116,1
1,62,118,0
1,65,98,0
1,62,0,95
1,65,0,0
1,62,80,1
1,65,64,0
1,50,0,44
1,62,0,3
1,50,64,1
1,57,0,0
1,57,90,0
1,62,96,0
1,65,0,87
1,57,0,7
1,50,0,1
1,62,0,0
1,50,76,1
1,57,92,0
1,62,90,0
1,65,80,0
1,50,0,143
1,57,0,0
1,57,106,1
1,65,0,0
1,65,94,0
1,65,0,95
1,62,0,1
1,62,82,0
1,65,68,0
1,57,0,17
1,65,0,30
1,55,64,1
1,55,0,44
1,43,84,4
1,47,82,0
1,50,78,0
1,55,96,0
1,59,76,0
1,67,74,0
1,62,0,3
1,59,0,91
1,47,0,2
1,47,68,0
1,59,68,0
1,50,0,94
1,59,0,1
1,50,84,1
1,55,0,0
1,55,104,0
1,59,110,0
1,67,0,2
1,67,88,46
1,47,0,41
1,55,0,4
1,43,0,7
1,59,0,34
1,67,0,9
1,55,74,1
1,59,78,0
1,67,78,0
1,50,0,20
1,59,0,25
1,55,0,2
1,67,0,0
1,40,80,1
1,47,80,0
1,52,76,0
1,56,86,0
1,59,82,0
1,64,76,0
1,56,0,189
1,47,0,2
1,52,0,0
1,59,0,0
1,64,0,0
1,47,90,1
1,56,86,0
1,59,88,0
1,59,90,0
1,64,62,0
1,59,0,92
1,64,0,2
1,59,0,1
1,52,78,1
1,59,76,0
1,64,64,0
1,47,0,30
1,52,0,17
1,64,0,0
1,64,44,1
1,56,0,7
1,59,0,22
1,64,0,18
1,45,72,1
1,52,82,0
1,57,104,0
1,60,78,0
1,64,68,0
1,40,0,79
1,57,0,16
1,64,0,0
1,57,92,1
1,64,60,0
1,52,0,85
1,57,0,9
1,52,80,2
1,57,100,0
1,60,0,90
1,64,0,0
1,60,60,6
1,64,52,0
1,57,0,46
1,60,0,1
1,64,0,0
1,52,0,1
1,52,76,0
1,57,90,0
1,60,92,0
1,64,84,0
1,60,0,93
1,57,0,2
1,57,78,1
1,60,74,0
1,45,0,35
1,52,0,7
1,45,68,6
1,52,72,0
1,57,0,0
1,57,84,0
1,60,0,91
1,45,0,4
1,52,0,0
1,57,0,0
1,45,92,1
1,52,80,0
1,57,92,0
1,60,84,0
1,64,0,0
1,64,60,0
1,60,0,93
1,64,0,1
1,60,72,2
1,64,52,0
1,57,0,19
1,64,0,27
1,60,0,1
1,57,74,1
1,60,72,0
1,64,76,0
1,45,0,33
1,52,0,3
1,60,0,10
1,57,0,1
1,48,80,1
1,52,88,0
1,55,80,0
1,60,64,0
1,64,0,0
1,64,52,0
1,64,0,94
1,60,0,1
1,52,0,1
1,52,72,0
1,60,64,0
1,64,52,0
1,55,0,93
1,60,0,2
1,64,0,0
1,52,0,1
1,52,80,0
1,55,102,0
1,60,98,0
1,64,82,0
1,52,0,95
1,60,0,0
1,64,0,0
1,60,64,1
1,64,60,0
1,55,0,40
1,60,0,7
1,64,0,0
1,52,78,1
1,55,90,0
1,60,90,0
1,64,80,0
1,64,0,93
1,60,0,1
1,52,0,1
1,60,76,1
1,64,72,0
1,60,0,47
1,60,72,1
1,55,0,87
1,60,0,8
1,48,0,1
1,48,60,0
1,52,72,0
1,55,84,0
1,60,90,0
1,64,0,0
1,64,84,0
1,55,0,94
1,60,0,1
1,55,90,1
1,60,86,0
1,48,0,25
1,52,0,6
1,64,0,5
1,60,0,11
1,55,0,1
1,55,76,0
1,60,78,0
1,64,86,0
1,55,0,47
1,60,0,0
1,64,0,0
1,50,76,1
1,57,88,0
1,62,60,0
1,65,64,0
1,62,0,93
1,65,0,2
1,62,72,1
1,65,68,0
1,57,0,92
1,65,0,2
1,62,0,1
1,57,102,1
1,62,103,0
1,65,98,0
1,65,0,95
1,65,68,1
1,62,0,42
1,65,0,2
1,57,0,2
1,57,84,2
1,62,100,0
1,65,104,0
1,57,0,94
1,62,0,1
1,65,0,0
1,57,90,1
1,62,88,0
1,65,84,0
1,62,0,95
1,65,0,0
1,65,60,1
1,50,0,35
1,57,0,10
1,57,90,3
1,62,76,0
1,65,0,0
1,65,78,0
1,57,0,47
1,65,0,0
1,57,102,1
1,65,68,0
1,62,0,46
1,50,78,2
1,62,66,0
1,57,0,19
1,65,0,26
1,62,0,2
1,57,82,1
1,62,78,0
1,65,76,0
1,50,0,36
1,57,0,11
1,62,0,0
1,40,80,1
1,52,76,0
1,56,78,0
1,59,64,0
1,64,74,0
1,65,0,0
1,56,0,92
1,56,78,4
1,59,60,0
1,64,64,0
1,59,0,44
1,64,0,4
1,52,0,35
1,40,0,4
1,59,0,8
1,64,0,0
1,47,86,1
1,52,84,0
1,59,82,0
1,64,68,0
1,56,0,36
1,64,0,59
1,64,52,1
1,40,80,48
1,56,86,0
1,59,64,0
1,47,0,33
1,59,0,4
1,52,64,11
1,59,64,0
1,59,0,84
1,59,0,10
1,52,0,1
1,56,0,0
1,56,76,1
1,59,64,0
1,40,0,13
1,64,0,22
1,64,56,13
1,52,0,28
1,59,0,13
1,56,0,3
1,47,80,4
1,52,90,0
1,56,104,0
1,59,102,0
