track,note,velocity,time
1,29,103,8060
1,29,103,66
1,31,103,0
1,29,103,96
1,36,103,16
1,33,103,0
1,33,103,50
1,33,103,18
1,32,103,18
1,31,103,2
1,31,103,66
1,33,103,190
1,34,103,84
1,36,103,2
1,24,103,0
1,36,103,18
1,36,103,50
1,24,103,18
1,26,103,0
1,29,103,0
1,29,103,64
1,31,103,0
1,33,103,96
1,28,103,0
1,35,103,190
1,40,103,82
1,33,103,2
1,34,103,384
1,34,103,34
1,31,103,18
1,31,103,50
1,36,103,2
1,36,103,34
1,24,103,16
1,24,103,146
1,36,103,192
1,33,103,0
1,36,103,2
1,33,103,2
1,31,103,96
1,33,103,82
1,36,103,2
1,33,103,2
1,38,103,34
1,38,103,34
1,33,103,192
1,36,103,78
1,38,103,84
1,40,103,82
1,33,103,18
1,33,103,50
1,33,103,160
1,31,103,18
1,33,103,0
1,36,103,2
1,38,103,0
1,26,103,2
1,26,103,32
1,31,103,384
1,33,103,20
1,33,103,32
1,31,103,192
1,33,103,80
1,34,103,82
1,33,103,176
1,31,103,0
1,31,103,46
1,36,103,16
1,24,103,18
1,24,103,34
1,36,103,2
1,36,103,18
1,36,103,66
1,43,103,2
1,45,103,96
1,36,103,2
1,38,103,94
1,34,103,20
1,22,103,82
1,22,103,130
1,34,103,34
1,36,103,20
1,26,103,34
1,26,103,50
1,26,103,160
1,29,103,18
1,31,103,98
1,33,103,82
1,36,103,32
1,38,103,4
1,41,103,96
1,36,103,82
1,38,103,84
1,33,103,20
1,36,103,14
1,26,103,0
1,38,103,2
1,36,103,94
1,24,103,20
1,34,103,2
1,33,103,480
1,31,103,2
1,33,103,94
1,21,103,16
1,21,103,32
1,26,103,16
1,26,103,80
1,33,103,32
1,33,103,34
1,31,103,96
1,31,103,50
1,30,103,2
1,30,103,80
1,29,103,18
1,33,103,16
1,36,103,18
1,38,103,0
1,36,103,96
1,38,103,80
1,41,103,2
1,38,103,92
1,29,103,18
1,29,103,78
1,31,103,194
1,33,103,64
1,36,103,18
1,28,103,2
1,28,103,66
1,33,103,64
1,33,103,146
1,31,103,96
1,33,103,80
1,33,103,18
1,32,103,144
1,32,103,130
1,33,103,176
1,33,103,18
1,31,103,18
1,31,103,50
1,26,103,66
1,31,103,16
1,33,103,98
1,36,103,18
1,38,103,2
1,26,103,18
1,25,103,16
1,37,103,16
1,25,103,18
1,37,103,20
1,36,103,50
1,24,103,20
1,26,103,94
1,29,103,0
1,31,103,2
1,33,103,96
1,36,103,82
1,29,103,20
1,29,103,66
1,31,103,0
1,29,103,96
1,36,103,0
1,33,103,96
1,33,103,50
1,33,103,16
1,32,103,18
1,31,103,2
1,31,103,66
1,33,103,192
1,34,103,80
1,36,103,0
1,24,103,0
1,36,103,20
1,36,103,50
1,24,103,20
1,26,103,0
1,29,103,2
1,29,103,66
1,31,103,96
1,33,103,84
1,28,103,2
1,35,103,192
1,40,103,82
1,33,103,82
1,34,103,368
1,34,103,32
1,31,103,20
1,31,103,48
1,36,103,192
1,36,103,28
1,24,103,20
1,24,103,146
1,36,103,192
1,33,103,2
1,36,103,2
1,33,103,0
1,31,103,96
1,33,103,78
1,36,103,2
1,33,103,2
1,38,103,34
1,38,103,30
1,33,103,194
1,36,103,80
1,38,103,78
1,40,103,82
1,33,103,18
1,33,103,50
1,33,103,162
1,31,103,20
1,33,103,0
1,36,103,2
1,38,103,2
1,26,103,18
1,26,103,52
1,31,103,378
1,33,103,16
1,33,103,34
1,31,103,192
1,33,103,0
1,34,103,2
1,33,103,194
1,31,103,0
1,31,103,50
1,36,103,20
1,24,103,18
1,24,103,32
1,36,103,2
1,36,103,16
1,36,103,62
1,43,103,0
1,45,103,98
1,36,103,2
1,38,103,92
1,34,103,18
1,22,103,78
1,22,103,130
1,34,103,34
1,36,103,16
1,26,103,20
1,26,103,50
1,26,103,162
1,29,103,22
1,31,103,92
1,33,103,80
1,36,103,34
1,38,103,2
1,41,103,94
1,36,103,2
1,38,103,92
1,33,103,18
1,36,103,18
1,26,103,2
1,38,103,2
1,36,103,96
1,24,103,18
1,34,103,2
1,33,103,480
1,31,103,2
1,33,103,96
1,21,103,16
1,21,103,34
1,26,103,18
1,26,103,80
1,33,103,34
1,33,103,34
1,31,103,94
1,31,103,52
1,30,103,0
1,30,103,82
1,29,103,18
1,33,103,16
1,36,103,20
1,38,103,2
1,36,103,96
1,38,103,80
1,41,103,80
1,38,103,82
1,29,103,20
1,29,103,82
1,31,103,192
1,33,103,66
1,36,103,18
1,28,103,2
1,28,103,66
1,33,103,64
1,33,103,144
1,31,103,96
1,33,103,84
1,33,103,18
1,32,103,146
1,32,103,128
1,33,103,176
1,33,103,18
1,31,103,18
1,31,103,48
1,26,103,64
1,31,103,18
1,33,103,98
1,36,103,20
1,38,103,2
1,26,103,16
1,25,103,18
1,37,103,20
1,25,103,18
1,37,103,16
1,36,103,48
1,24,103,18
1,26,103,98
1,29,103,2
1,31,103,2
1,33,103,96
1,36,103,80
1,29,103,20
1,29,103,66
1,31,103,2
1,29,103,96
1,36,103,2
1,33,103,96
1,33,103,48
1,33,103,18
1,32,103,20
1,31,103,0
1,31,103,66
1,33,103,190
1,34,103,84
1,36,103,0
1,24,103,2
1,36,103,16
1,36,103,50
1,24,103,16
1,26,103,2
1,29,103,0
1,29,103,66
1,31,103,0
1,33,103,96
1,28,103,0
1,35,103,194
1,40,103,80
1,33,103,82
1,34,103,368
1,34,103,34
1,31,103,16
1,31,103,50
1,36,103,192
1,36,103,34
1,24,103,18
1,24,103,146
1,36,103,190
1,33,103,2
1,36,103,4
1,33,103,0
1,31,103,96
1,33,103,80
1,36,103,2
1,33,103,0
1,38,103,34
1,38,103,36
1,33,103,0
1,36,103,98
1,38,103,80
1,40,103,78
1,33,103,20
1,33,103,48
1,33,103,162
1,31,103,18
1,33,103,2
1,36,103,4
1,38,103,2
1,26,103,18
1,26,103,50
1,31,103,382
1,33,103,16
1,33,103,34
1,31,103,0
1,33,103,0
1,34,103,0
1,33,103,194
1,31,103,2
1,31,103,50
1,36,103,16
1,24,103,16
1,24,103,36
1,36,103,0
1,36,103,18
1,36,103,64
1,43,103,0
1,45,103,96
1,36,103,0
1,38,103,96
1,36,103,16
1,24,103,0
1,36,103,100
1,34,103,0
1,33,103,36
1,31,103,16
1,31,103,66
1,33,103,0
1,31,103,94
1,38,103,18
1,35,103,96
1,35,103,50
1,35,103,16
1,34,103,16
1,36,103,2
1,35,103,190
1,33,103,16
1,31,103,22
1,26,103,50
1,26,103,64
1,28,103,16
1,26,103,16
1,38,103,0
1,26,103,2
1,28,103,0
1,31,103,2
1,31,103,64
1,33,103,96
1,35,103,80
1,30,103,2
1,37,103,192
1,42,103,2
1,35,103,96
1,36,103,366
1,36,103,34
1,33,103,18
1,33,103,50
1,38,103,190
1,38,103,34
1,26,103,16
1,26,103,144
1,38,103,192
1,35,103,0
1,38,103,194
1,35,103,2
1,33,103,96
1,35,103,82
1,38,103,0
1,35,103,2
1,40,103,36
1,40,103,32
1,35,103,2
1,38,103,94
1,40,103,82
1,42,103,82
1,35,103,16
1,35,103,48
1,35,103,160
1,33,103,16
1,35,103,2
1,38,103,0
1,40,103,2
1,28,103,14
1,28,103,48
1,33,103,382
1,35,103,20
1,35,103,32
1,33,103,0
1,35,103,0
1,36,103,0
1,35,103,192
1,33,103,0
1,33,103,48
1,38,103,16
1,26,103,16
1,26,103,34
1,38,103,0
1,38,103,16
1,38,103,66
1,45,103,0
1,47,103,100
1,38,103,0
1,40,103,96
1,31,103,22
1,31,103,66
1,33,103,2
1,31,103,98
1,38,103,16
1,35,103,2
1,35,103,48
1,35,103,18
1,34,103,16
1,36,103,2
1,35,103,190
1,33,103,16
1,31,103,18
1,26,103,50
1,26,103,64
1,28,103,20
1,26,103,18
1,38,103,2
1,26,103,18
1,28,103,4
1,31,103,2
1,31,103,64
1,33,103,0
1,35,103,98
1,30,103,0
1,37,103,192
1,42,103,2
1,35,103,94
1,36,103,368
1,36,103,30
1,33,103,16
1,33,103,46
1,38,103,194
1,38,103,28
1,26,103,16
1,26,103,144
1,38,103,192
1,35,103,2
1,38,103,2
1,35,103,2
1,33,103,94
1,35,103,78
1,38,103,0
1,35,103,2
1,40,103,32
1,40,103,32
1,35,103,194
1,38,103,82
1,40,103,78
1,42,103,82
1,35,103,18
1,35,103,48
1,35,103,160
1,33,103,18
1,35,103,2
1,38,103,0
1,40,103,2
1,28,103,18
1,28,103,50
1,33,103,382
1,35,103,18
1,35,103,34
1,33,103,2
1,35,103,96
1,36,103,82
1,35,103,176
1,33,103,2
1,33,103,50
1,38,103,18
1,26,103,18
1,26,103,36
1,38,103,4
1,38,103,16
1,38,103,64
1,45,103,0
1,47,103,98
1,31,103,0
1,32,103,94
1,33,103,20
1,33,103,82
1,31,103,2
1,33,103,2
1,33,103,50
1,36,103,4
1,37,103,96
1,38,103,2
1,38,103,50
1,36,103,94
1,38,103,2
1,33,103,2
1,31,103,2
1,33,103,4
1,31,101,2
2,67,91,0
2,57,79,1150
2,60,83,384
2,69,79,96
2,65,83,0
2,72,79,322
2,74,79,750
2,70,79,0
2,72,79,720
2,79,63,2272
2,65,91,146
2,69,83,0
2,60,75,34
2,67,87,0
2,58,83,770
2,65,83,0
2,55,79,18
2,53,83,768
2,57,91,0
2,59,87,0
2,55,83,0
2,57,87,382
2,61,87,0
2,58,75,354
2,62,83,2
2,65,83,354
2,69,95,352
2,72,79,352
2,67,87,0
2,69,83,356
2,74,87,34
2,65,79,2
2,67,83,2
2,72,83,0
2,64,87,0
2,62,79,384
2,65,87,0
2,60,79,2
2,64,83,0
2,65,87,754
2,62,87,0
2,55,79,750
2,60,83,0
2,62,87,1520
2,53,79,2
2,57,87,722
2,64,87,372
2,65,79,368
2,62,83,0
2,57,100,0
2,65,103,0
2,64,103,752
2,60,103,0
2,65,103,752
2,62,103,0
2,64,103,750
2,61,103,370
2,62,103,352
2,53,103,0
2,64,103,340
2,62,103,178
2,55,103,178
2,61,103,370
2,64,103,0
2,54,103,0
2,62,103,382
2,58,103,340
2,65,103,0
2,60,103,336
2,64,103,178
2,65,103,2
2,57,103,0
2,64,103,4
2,55,103,0
2,57,103,754
2,62,103,0
2,60,103,354
2,56,103,366
2,59,103,0
2,60,103,18
2,62,103,192
2,60,103,18
2,57,103,2
2,55,103,352
2,57,103,354
2,62,103,0
2,54,103,354
2,60,103,0
2,58,103,2
2,53,103,0
2,58,103,20
2,70,103,0
2,69,103,0
2,57,103,2
2,70,103,80
2,58,103,0
2,69,103,0
2,57,103,0
2,58,103,98
2,70,103,0
2,72,103,82
2,60,103,0
2,70,103,66
2,58,103,2
2,69,103,128
2,57,103,0
2,55,103,0
2,67,103,0
2,65,87,2
2,69,87,0
2,60,87,0
2,67,91,0
2,58,87,770
2,65,91,2
2,60,83,2
2,64,83,384
2,57,83,2
2,55,75,766
2,59,87,0
2,57,79,336
2,61,75,0
2,62,91,352
2,55,75,18
2,60,87,0
2,62,79,1534
2,57,71,0
2,65,87,368
2,60,83,370
2,64,87,0
2,55,75,338
2,57,83,372
2,53,71,2
2,55,83,722
2,58,83,0
2,62,91,0
2,60,87,2
2,55,79,380
2,62,83,1122
2,53,83,0
2,65,87,706
2,57,83,0
2,60,83,2
2,64,83,0
2,65,83,374
2,62,79,0
2,57,83,34
2,62,103,0
2,65,103,2
2,57,100,0
2,64,103,760
2,60,103,0
2,65,103,738
2,62,103,0
2,64,103,752
2,61,103,370
2,62,103,354
2,53,103,0
2,64,103,338
2,62,103,178
2,55,103,176
2,61,103,370
2,64,103,0
2,54,103,0
2,62,103,384
2,65,103,338
2,58,103,0
2,60,103,0
2,64,103,194
2,57,103,2
2,65,103,0
2,64,103,2
2,55,103,0
2,62,103,752
2,57,103,0
2,60,103,354
2,56,103,368
2,59,103,0
2,60,103,20
2,62,103,190
2,60,103,20
2,57,103,0
2,55,103,352
2,62,103,354
2,57,103,2
2,54,103,370
2,58,103,0
2,53,103,0
2,60,103,0
2,70,103,18
2,58,103,0
2,57,103,0
2,69,103,0
2,70,103,80
2,58,103,0
2,69,103,0
2,57,103,0
2,70,103,98
2,58,103,0
2,72,103,84
2,60,103,0
2,70,103,66
2,58,103,0
2,69,103,128
2,57,103,0
2,55,103,0
2,67,103,0
2,65,87,0
2,69,87,0
2,60,83,0
2,67,87,0
2,65,87,768
2,58,87,0
2,64,83,0
2,57,71,384
2,60,83,0
2,59,83,734
2,55,75,0
2,61,71,354
2,57,75,0
2,62,83,334
2,60,83,740
2,55,83,334
2,60,103,0
2,64,103,0
2,55,103,0
2,62,103,50
2,57,103,0
2,65,103,2
2,64,103,368
2,62,103,162
2,60,103,162
2,64,103,0
2,55,103,0
2,57,103,66
2,65,103,0
2,62,103,2
2,64,103,176
2,65,103,178
2,69,103,2
2,64,103,190
2,60,103,0
2,65,103,736
2,62,103,2
2,70,103,0
2,72,103,736
2,64,103,738
2,62,103,0
2,66,103,0
2,57,103,0
2,58,103,0
2,67,103,0
2,60,103,560
2,59,103,368
2,66,103,0
2,64,103,2
2,60,103,0
2,67,103,2
2,59,103,188
2,62,103,0
2,60,103,174
2,57,103,0
2,55,103,178
2,59,103,0
2,62,103,148
2,57,103,0
2,66,103,352
2,67,103,356
2,59,103,0
2,66,103,352
2,62,103,52
2,64,103,192
2,57,103,0
2,61,103,0
2,59,103,2
2,63,103,2
2,66,103,0
2,64,103,366
2,60,103,2
2,67,103,2
2,62,103,724
2,66,103,370
2,69,103,354
2,67,103,752
2,59,103,2
2,64,103,4
2,62,103,382
2,69,103,2
2,66,103,0
2,71,103,722
2,67,103,0
2,69,103,736
2,66,103,0
2,64,103,736
2,67,103,2
2,60,103,0
2,62,103,0
2,66,103,768
2,67,103,256
2,69,103,256
2,67,103,2
2,59,103,0
2,62,103,0
2,66,103,16
2,60,103,386
2,64,103,0
2,67,103,2
2,62,103,144
2,59,103,0
2,60,103,0
2,57,103,0
2,55,103,178
2,59,103,0
2,62,103,2
2,57,103,0
2,66,103,354
2,59,103,368
2,67,103,0
2,66,103,352
2,61,103,2
2,57,103,2
2,64,103,0
2,66,103,96
2,63,103,0
2,59,103,0
2,67,103,2
2,60,103,0
2,64,103,0
2,62,103,754
2,66,103,366
2,69,103,356
2,67,103,736
2,59,103,0
2,64,103,354
2,62,103,370
2,69,103,2
2,66,103,0
2,71,103,724
2,67,103,0
2,66,103,4
2,69,103,0
2,60,103,734
2,67,103,2
2,64,103,0
2,62,103,734
2,66,103,738
2,67,103,258
2,69,103,258
2,84,123,0
2,76,123,20
2,81,123,146
2,84,123,94
2,86,123,4
2,81,123,96
2,84,123,84
2,74,123,130
2,79,123,0
2,81,123,98
2,79,123,78
2,81,123,82
2,83,123,4
2,86,123,94
2,91,103,2
2,86,103,0
2,83,103,2
3,53,111,8060
3,45,111,0
3,48,111,0
3,53,111,242
3,48,111,0
3,45,111,0
3,48,111,256
3,45,111,0
3,53,111,0
3,45,111,144
3,48,111,0
3,53,111,2
3,53,111,258
3,45,111,0
3,48,111,0
3,45,111,254
3,53,111,2
3,48,111,0
3,53,111,162
3,43,111,0
3,48,111,0
3,48,111,260
3,43,111,0
3,53,111,2
3,48,111,242
3,53,111,0
3,43,111,0
3,53,111,148
3,43,111,0
3,48,111,0
3,53,111,238
3,43,111,0
3,48,111,2
3,53,111,240
3,48,111,2
3,43,111,0
3,45,111,144
3,53,111,0
3,48,111,0
3,53,111,240
3,48,111,0
3,45,111,0
3,45,111,240
3,53,111,0
3,48,111,0
3,52,111,148
3,47,111,0
3,43,111,2
3,49,111,240
3,52,111,0
3,45,111,0
3,52,111,256
3,45,111,0
3,49,111,2
3,53,111,148
3,46,111,0
3,50,111,0
3,46,111,240
3,50,111,0
3,53,111,0
3,46,111,238
3,50,111,0
3,53,111,0
3,48,111,144
3,43,111,0
3,53,111,0
3,43,111,240
3,48,111,0
3,52,111,0
3,48,111,254
3,43,111,0
