track,note,velocity,time
1,50,71,576
1,57,75,0
1,62,73,0
1,65,77,0
1,69,79,0
1,74,75,0
1,74,0,125
1,50,0,51
1,69,0,0
1,62,0,6
1,65,0,1
1,50,86,9
1,57,86,0
1,62,83,0
1,65,86,0
1,74,57,0
1,57,0,82
1,74,0,2
1,69,65,12
1,74,55,0
1,74,0,89
1,62,63,7
1,65,0,0
1,65,75,0
1,65,0,89
1,62,0,2
1,62,0,1
1,69,0,3
1,62,67,1
1,65,77,0
1,69,69,0
1,74,59,0
1,74,0,83
1,69,0,7
1,65,0,2
1,50,65,4
1,57,77,0
1,62,0,0
1,65,71,0
1,65,0,83
1,50,0,3
1,57,0,2
1,50,0,2
1,62,79,6
1,65,83,0
1,69,75,0
1,74,65,0
1,74,0,175
1,69,0,1
1,65,0,2
1,57,0,5
1,57,61,9
1,65,65,0
1,69,67,0
1,74,57,0
1,50,39,32
1,50,0,23
1,69,0,27
1,74,0,0
1,57,0,1
1,65,0,8
1,50,61,5
1,57,81,0
1,62,75,0
1,62,0,0
1,65,86,0
1,69,65,0
1,74,57,0
1,69,0,84
1,65,0,9
1,65,86,3
1,50,0,87
1,65,0,0
1,74,0,0
1,57,0,3
1,62,0,5
1,50,43,1
1,57,79,0
1,62,63,0
1,65,86,0
1,69,61,0
1,74,55,0
1,74,0,75
1,69,0,9
1,69,65,12
1,74,59,0
1,65,0,83
1,74,0,1
1,69,0,3
1,50,0,2
1,57,0,5
1,50,65,2
1,62,79,0
1,62,0,0
1,65,86,0
1,69,67,0
1,74,65,0
1,65,0,88
1,74,0,7
1,62,81,1
1,65,51,0
1,62,0,4
1,65,0,85
1,50,0,4
1,62,0,2
1,69,0,0
1,50,71,1
1,57,75,0
1,62,73,0
1,65,77,0
1,69,79,0
1,74,75,0
1,69,0,176
1,74,0,0
1,50,0,3
1,62,0,3
1,65,0,1
1,50,86,9
1,57,86,0
1,62,83,0
1,65,86,0
1,74,57,0
1,57,0,82
1,74,0,2
1,69,65,12
1,74,55,0
1,74,0,89
1,62,63,7
1,65,0,0
1,65,75,0
1,65,0,89
1,62,0,2
1,62,0,1
1,69,0,3
1,62,67,1
1,65,77,0
1,69,69,0
1,74,59,0
1,74,0,29
1,69,0,61
1,65,0,2
1,50,65,4
1,57,77,0
1,62,0,0
1,65,71,0
1,65,0,83
1,50,0,3
1,57,0,2
1,50,0,2
1,62,79,6
1,65,83,0
1,69,75,0
1,74,65,0
1,74,0,175
1,69,0,1
1,65,0,2
1,57,0,5
1,57,61,9
1,65,65,0
1,69,67,0
1,74,57,0
1,50,39,32
1,50,0,23
1,69,0,27
1,74,0,0
1,57,0,1
1,65,0,8
1,50,61,5
1,57,81,0
1,62,75,0
1,62,0,0
1,65,86,0
1,69,65,0
1,74,57,0
1,69,0,84
1,65,0,9
1,65,86,3
1,50,0,87
1,65,0,0
1,74,0,0
1,57,0,3
1,62,0,5
1,50,43,1
1,57,79,0
1,62,63,0
1,65,86,0
1,69,61,0
1,74,55,0
1,74,0,75
1,69,0,9
1,69,65,12
1,74,59,0
1,65,0,83
1,74,0,1
1,69,0,3
1,50,0,2
1,57,0,5
1,50,65,2
1,62,79,0
1,62,0,0
1,65,86,0
1,69,67,0
1,74,65,0
1,65,0,88
1,74,0,7
1,62,81,1
1,65,51,0
1,74,69,2
1,74,0,1
1,62,0,1
1,69,81,1
1,69,0,1
1,65,87,1
1,65,0,1
1,62,77,3
1,62,0,1
1,65,0,75
1,50,0,4
1,62,0,2
1,69,0,0
1,50,71,3
1,57,75,0
1,62,73,0
1,65,77,0
1,69,79,0
1,74,75,0
1,69,0,176
1,74,0,0
1,50,0,3
1,62,0,3
1,65,0,1
1,50,86,9
1,57,86,0
1,62,83,0
1,65,86,0
1,74,57,0
1,57,0,82
1,74,0,2
1,69,65,12
1,74,55,0
1,74,0,89
1,62,63,7
1,65,0,0
1,65,75,0
1,65,0,89
1,62,0,2
1,62,0,1
1,69,0,3
1,62,67,1
1,65,77,0
1,69,69,0
1,74,59,0
1,74,0,29
1,69,0,61
1,65,0,2
1,50,65,4
1,57,77,0
1,62,0,0
1,65,71,0
1,65,0,12
1,57,0,2
1,50,0,3
1,50,0,73
1,62,79,6
1,65,83,0
1,69,75,0
1,74,65,0
1,74,0,175
1,69,0,1
1,65,0,2
1,57,0,5
1,57,61,9
1,65,65,0
1,69,67,0
1,74,57,0
1,50,39,32
1,50,0,23
1,69,0,27
1,74,0,0
1,57,0,1
1,65,0,8
1,50,61,5
1,57,81,0
1,62,75,0
1,62,0,0
1,65,86,0
1,69,65,0
1,74,57,0
1,69,0,84
1,65,0,9
1,65,86,3
1,50,0,87
1,65,0,0
1,74,0,0
1,57,0,3
1,62,0,5
1,50,43,1
1,57,79,0
1,62,63,0
1,65,86,0
1,69,61,0
1,74,55,0
1,74,0,75
1,69,0,9
1,69,65,12
1,74,59,0
1,65,0,79
1,65,91,1
1,65,0,3
1,74,0,1
1,69,0,3
1,50,0,2
1,72,91,4
1,57,0,1
1,50,65,2
1,62,79,0
1,65,86,0
1,69,67,0
1,72,0,0
1,74,65,0
1,77,101,11
1,74,0,68
1,77,0,9
1,62,0,6
1,62,0,1
1,74,88,0
1,62,81,1
1,65,51,0
1,62,0,4
1,65,0,42
1,74,0,15
1,65,0,28
1,50,0,4
1,69,0,2
1,50,71,1
1,57,75,0
1,62,73,0
1,65,77,0
1,69,79,0
1,74,75,0
1,65,0,8
1,69,0,168
1,74,0,0
1,50,0,3
1,62,0,3
1,50,86,10
1,57,86,0
1,62,83,0
1,65,86,0
1,74,57,0
1,57,0,82
1,74,0,2
1,69,65,12
1,74,55,0
1,74,0,89
1,62,63,7
1,65,0,0
1,65,75,0
1,65,0,89
1,62,0,2
1,62,0,1
1,69,0,3
1,62,67,1
1,65,77,0
1,69,69,0
1,74,59,0
1,74,0,29
1,69,0,61
1,65,0,2
1,50,65,4
1,57,77,0
1,62,0,0
1,65,71,0
1,65,0,83
1,50,0,3
1,57,0,2
1,50,0,2
1,62,79,6
1,65,83,0
1,69,75,0
1,74,65,0
1,69,0,80
1,57,0,2
1,62,0,0
1,65,0,0
1,74,0,0
1,50,71,782
1,57,75,0
1,62,73,0
1,65,77,0
1,69,79,0
1,74,75,0
1,69,0,176
1,74,0,0
1,50,0,3
1,62,0,3
1,65,0,1
1,50,86,9
1,57,86,0
1,62,83,0
1,65,86,0
1,74,57,0
1,57,0,82
1,74,0,2
1,69,65,12
1,74,55,0
1,74,0,89
1,62,63,7
1,65,0,0
1,65,75,0
1,65,0,89
1,62,0,2
1,62,0,1
1,69,0,3
1,62,67,1
1,65,77,0
1,69,69,0
1,74,59,0
1,74,0,29
1,69,0,61
1,65,0,2
1,50,65,4
1,57,77,0
1,62,0,0
1,65,71,0
1,65,0,83
1,50,0,3
1,57,0,2
1,50,0,2
1,62,79,6
1,65,83,0
1,69,75,0
1,74,65,0
1,74,0,175
1,69,0,1
1,65,0,2
1,57,0,5
1,57,61,9
1,65,65,0
1,69,67,0
1,74,57,0
1,50,39,32
1,50,0,23
1,69,0,27
1,74,0,0
1,57,0,1
1,65,0,8
1,50,61,5
1,57,81,0
1,62,75,0
1,62,0,0
1,65,86,0
1,69,65,0
1,74,57,0
1,69,0,84
1,65,0,9
1,65,86,3
1,50,0,87
1,65,0,0
1,74,0,0
1,57,0,3
1,62,0,5
1,50,43,1
1,57,79,0
1,62,63,0
1,65,86,0
1,69,61,0
1,74,55,0
1,74,0,75
1,69,0,9
1,69,65,12
1,74,59,0
1,65,0,83
1,74,0,1
1,69,0,3
1,50,0,2
1,57,0,5
1,50,65,2
1,62,79,0
1,62,0,0
1,65,86,0
1,69,67,0
1,74,65,0
1,65,0,88
1,62,81,8
1,65,51,0
1,62,0,4
1,65,0,85
1,74,0,4
1,50,0,2
1,62,0,0
1,69,0,0
1,50,71,1
1,57,75,0
1,62,73,0
1,65,77,0
1,69,79,0
1,74,75,0
1,69,0,176
1,74,0,0
1,50,0,3
1,62,0,3
1,65,0,1
1,50,86,9
1,57,86,0
1,62,83,0
1,65,86,0
1,74,57,0
1,57,0,82
1,74,0,2
1,69,65,12
1,74,55,0
1,74,0,89
1,62,63,7
1,65,0,0
1,65,75,0
1,65,0,89
1,62,0,2
1,62,0,1
1,69,0,3
1,62,67,1
1,65,77,0
1,69,69,0
1,74,59,0
1,74,0,29
1,69,0,61
1,65,0,2
1,50,65,4
1,57,77,0
1,62,0,0
1,65,71,0
1,65,0,83
1,50,0,3
1,57,0,2
1,50,0,2
1,62,79,6
1,65,83,0
1,69,75,0
1,74,65,0
1,74,0,175
1,69,0,1
1,65,0,2
1,57,0,5
1,57,61,9
1,65,65,0
1,69,67,0
1,74,57,0
1,50,39,32
1,50,0,23
1,69,0,27
1,74,0,0
1,57,0,1
1,65,0,8
1,50,61,5
1,57,81,0
1,62,75,0
1,62,0,0
1,65,86,0
1,69,65,0
1,74,57,0
1,69,0,84
1,65,0,9
1,65,86,3
1,50,0,87
1,65,0,0
1,74,0,0
1,57,0,3
1,62,0,5
1,50,43,1
1,57,79,0
1,62,63,0
1,65,86,0
1,69,61,0
1,74,55,0
1,74,0,75
1,69,0,9
1,69,65,12
1,74,59,0
1,65,0,83
1,74,0,1
1,69,0,3
1,50,0,2
1,57,0,5
1,50,65,2
1,62,79,0
1,62,0,0
1,65,86,0
1,69,67,0
1,74,65,0
1,65,0,88
1,62,81,8
1,65,51,0
1,62,0,4
1,65,0,85
1,74,0,4
1,50,0,2
1,62,0,0
1,69,0,0
1,50,71,1
1,57,75,0
1,62,73,0
1,65,77,0
1,69,79,0
1,74,75,0
1,69,0,176
1,74,0,0
1,50,0,3
1,62,0,3
1,65,0,1
1,50,86,9
1,57,86,0
1,62,83,0
1,65,86,0
1,74,57,0
1,57,0,82
1,74,0,2
1,69,65,12
1,74,55,0
1,74,0,89
1,62,63,7
1,65,0,0
1,65,75,0
1,65,0,89
1,62,0,2
1,62,0,1
1,69,0,3
1,62,67,1
1,65,77,0
1,69,69,0
1,74,59,0
1,74,0,29
1,69,0,61
1,65,0,2
1,50,65,4
1,57,77,0
1,62,0,0
1,65,71,0
1,65,0,83
1,50,0,3
1,57,0,2
1,50,0,2
1,62,79,6
1,65,83,0
1,69,75,0
1,74,65,0
1,74,0,175
1,69,0,1
1,65,0,2
1,57,0,5
1,57,61,9
1,65,65,0
1,69,67,0
1,74,57,0
1,50,39,32
1,50,0,23
1,69,0,27
1,74,0,0
1,57,0,1
1,65,0,8
1,50,61,5
1,57,81,0
1,62,75,0
1,62,0,0
1,65,86,0
1,69,65,0
1,74,57,0
1,69,0,84
1,65,0,9
1,65,86,3
1,50,0,87
1,65,0,0
1,74,0,0
1,57,0,3
1,62,0,5
1,50,43,1
1,57,79,0
1,62,63,0
1,65,86,0
1,69,61,0
1,74,55,0
1,74,0,75
1,69,0,9
1,69,65,12
1,74,59,0
1,65,0,83
1,74,0,1
1,69,0,3
1,50,0,2
1,57,0,5
1,50,65,2
1,62,79,0
1,62,0,0
1,65,86,0
1,69,67,0
1,74,65,0
1,65,0,88
1,62,81,8
1,65,51,0
1,62,0,4
1,65,0,85
1,74,0,4
1,50,0,2
1,62,0,0
1,69,0,0
1,50,71,1
1,57,75,0
1,62,73,0
1,65,77,0
1,69,79,0
1,74,75,0
1,69,0,176
1,74,0,0
1,50,0,3
1,62,0,3
1,65,0,1
1,50,86,9
1,57,86,0
1,62,83,0
1,65,86,0
1,74,57,0
1,57,0,82
1,74,0,2
1,69,65,12
1,74,55,0
1,74,0,89
1,62,63,7
1,65,0,0
1,65,75,0
1,65,0,89
1,62,0,2
1,62,0,1
1,69,0,3
1,62,67,1
1,65,77,0
1,69,69,0
1,74,59,0
1,74,0,29
1,69,0,61
1,65,0,2
1,50,65,4
1,57,77,0
1,62,0,0
1,65,71,0
1,65,0,83
1,50,0,3
1,57,0,2
1,50,0,2
1,62,79,6
1,65,83,0
1,69,75,0
1,74,65,0
1,74,0,175
1,69,0,1
1,65,0,2
1,57,0,5
1,57,61,9
1,65,65,0
1,69,67,0
1,74,57,0
1,50,39,32
1,50,0,23
1,69,0,27
1,74,0,0
1,57,0,1
1,65,0,8
1,50,61,5
1,57,81,0
1,62,75,0
1,62,0,0
1,65,86,0
1,69,65,0
1,74,57,0
1,69,0,84
1,65,0,9
1,65,86,3
1,50,0,87
1,65,0,0
1,74,0,0
1,57,0,3
1,62,0,5
1,50,43,1
1,57,79,0
1,62,63,0
1,65,86,0
1,69,61,0
1,74,55,0
1,74,0,75
1,69,0,9
1,69,65,12
1,74,59,0
1,74,0,48
1,50,0,20
1,69,0,2
1,65,0,1
1,57,0,16
1,50,65,9
1,62,79,0
1,62,0,0
1,65,86,0
1,69,67,0
1,74,65,0
1,74,0,68
1,65,0,20
1,62,81,8
1,65,51,0
1,62,0,4
1,65,0,85
1,62,0,4
1,50,0,2
1,69,0,0
1,58,70,1
1,62,68,0
1,65,88,0
1,70,76,0
1,74,68,0
1,70,0,161
1,74,0,8
1,65,0,10
1,62,0,6
1,62,84,7
1,65,92,0
1,70,78,0
1,74,72,0
1,70,0,95
1,65,0,1
1,65,82,0
1,70,70,0
1,65,0,83
1,65,76,13
1,70,0,0
1,70,68,0
1,74,0,0
1,74,50,0
1,74,0,61
1,70,0,19
1,65,0,9
1,62,0,7
1,62,70,0
1,65,80,0
1,70,78,0
1,74,68,0
1,70,0,102
1,74,0,81
1,62,0,1
1,65,0,0
1,58,0,8
1,58,66,0
1,62,76,0
1,65,105,0
1,70,90,0
1,74,76,0
1,70,0,96
1,65,0,92
1,74,0,1
1,58,0,1
1,62,0,0
1,58,70,2
1,62,64,0
1,65,82,0
1,70,74,0
1,70,0,80
1,62,0,4
1,65,0,8
1,58,74,4
1,58,0,0
1,62,86,0
1,65,78,0
1,70,66,0
1,74,54,0
1,74,0,73
1,70,0,4
1,65,0,12
1,62,0,1
1,65,86,6
1,70,74,0
1,74,68,0
1,70,0,84
1,58,78,12
1,58,0,0
1,70,62,0
1,65,0,80
1,70,0,0
1,74,0,10
1,62,86,6
1,65,92,0
1,70,80,0
1,74,68,0
1,70,0,86
1,65,0,2
1,58,92,8
1,58,0,0
1,65,90,0
1,70,68,0
1,74,0,0
1,74,62,0
1,74,0,49
1,62,0,30
1,70,0,6
1,65,0,7
1,65,104,4
1,70,82,0
1,74,72,0
1,70,0,8
1,74,0,42
1,58,0,12
1,65,0,19
1,53,90,8
1,60,82,0
1,65,94,7
1,69,82,0
1,77,76,0
1,60,0,181
1,77,0,5
1,53,98,6
1,60,90,0
1,65,78,0
1,65,0,4
1,65,0,67
1,69,0,13
1,69,62,12
1,77,62,0
1,77,0,107
1,69,0,75
1,60,0,2
1,53,0,1
1,60,84,7
1,65,88,0
1,69,78,0
1,77,74,0
1,77,0,107
1,60,0,74
1,69,0,1
1,65,0,2
1,53,0,1
1,53,74,7
1,57,68,0
1,60,78,0
1,65,102,0
1,69,78,0
1,77,78,0
1,69,0,94
1,57,0,87
1,77,0,3
1,57,50,8
1,65,74,0
1,69,70,0
1,65,0,75
1,69,0,5
1,53,0,10
1,57,0,5
1,53,62,1
1,57,70,0
1,65,92,0
1,69,74,0
1,65,0,89
1,65,0,0
1,65,104,7
1,77,88,0
1,69,0,82
1,57,0,11
1,57,64,3
1,69,62,0
1,69,0,80
1,57,0,5
1,65,0,3
1,77,0,0
1,57,62,8
1,65,78,0
1,77,76,0
1,77,0,82
1,57,0,2
1,53,0,3
1,53,74,9
1,57,62,0
1,65,100,0
1,69,74,0
1,69,0,86
1,65,0,5
1,57,0,2
1,53,80,3
1,57,70,0
1,65,0,0
1,69,70,0
1,77,64,0
1,69,0,47
1,53,0,6
1,60,0,2
1,57,0,18
1,53,0,11
1,77,0,5
1,50,86,7
1,57,86,0
1,62,85,0
1,65,73,0
1,69,61,0
1,74,51,0
1,69,0,168
1,74,0,3
1,50,0,2
1,65,0,0
