track,note,velocity,time
3,41,108,11991
3,41,0,33
3,41,73,15
3,41,0,28
3,41,77,15
3,41,0,28
3,41,91,14
3,41,0,34
3,43,108,14
3,43,0,86
3,43,88,64
3,36,106,7
3,36,0,334
3,36,90,2
3,36,0,18
3,36,100,30
3,36,0,382
3,36,104,2
3,36,89,10
3,36,103,20
3,36,0,14
3,40,85,2
3,40,0,22
3,41,106,26
3,41,0,274
3,41,83,14
3,41,0,39
3,36,92,57
3,36,0,326
3,36,84,10
3,36,0,46
3,43,100,2
3,43,0,263
3,43,94,25
3,43,0,33
3,43,105,63
3,43,92,14
3,43,0,33
3,41,75,15
3,41,0,46
3,38,66,2
3,38,0,38
3,41,77,10
3,41,0,36
3,43,94,12
3,43,72,26
3,43,0,33
3,38,90,63
3,38,0,334
3,41,71,2
3,43,92,15
3,43,0,311
3,43,57,26
3,38,86,2
3,38,0,286
3,38,67,2
3,38,0,28
3,41,89,68
3,41,88,34
3,43,91,49
3,43,0,321
3,43,82,15
3,36,96,6
3,36,0,324
3,41,108,63
3,41,0,33
3,41,73,15
3,41,77,15
3,41,0,28
3,41,91,14
3,43,108,2
3,43,0,130
3,43,92,20
3,43,0,43
3,36,104,7
3,36,85,28
3,36,98,25
3,36,0,54
3,36,83,40
3,36,92,52
3,36,0,54
3,36,91,42
3,36,84,26
3,36,0,22
3,36,101,26
3,36,0,54
3,36,91,42
3,36,0,220
3,36,87,20
3,36,0,90
3,41,101,6
3,41,86,22
3,41,0,44
3,38,84,4
3,38,0,23
3,36,91,25
3,36,0,122
3,36,77,22
3,36,0,23
3,36,94,25
3,36,0,142
3,41,78,2
3,41,0,42
3,43,99,6
3,43,91,22
3,43,0,124
3,43,80,20
3,43,0,30
3,43,99,18
3,43,0,172
3,43,88,20
3,43,0,130
3,43,75,14
3,41,86,10
3,36,81,2
3,36,114,1541
3,41,100,6
3,41,103,18
3,41,0,33
3,43,103,63
3,43,0,116
3,50,100,28
3,48,101,26
3,48,0,278
3,40,90,10
3,43,97,10
3,45,97,17
3,45,103,26
3,45,0,34
3,43,100,14
3,41,95,108
3,41,0,252
3,41,103,36
3,43,96,60
3,43,0,153
3,50,80,34
3,50,0,33
3,48,101,63
3,43,97,4
3,48,89,22
3,43,78,48
3,48,0,1
3,43,0,27
3,40,90,20
3,43,94,20
3,45,90,22
3,45,0,270
3,43,97,18
3,43,0,42
3,41,105,54
3,41,0,124
3,41,86,20
3,41,0,25
3,48,110,23
3,41,97,6
3,41,0,55
3,43,107,41
3,43,0,170
3,50,83,22
3,48,101,58
3,52,101,28
3,45,104,25
3,45,0,174
3,43,103,18
3,43,0,166
3,41,90,26
3,41,0,766
3,36,95,2
3,36,0,766
3,38,105,770
3,38,95,42
3,38,101,23
3,38,0,362
3,38,99,22
3,43,85,23
3,38,88,28
3,38,0,374
3,45,95,10
3,45,0,372
3,45,104,12
3,45,91,22
3,40,100,12
3,40,0,370
3,45,92,14
3,45,0,370
3,40,100,14
3,43,102,20
3,45,93,25
3,45,0,375
3,38,103,9
3,38,0,337
3,43,108,50
3,43,0,33
3,43,73,15
3,43,0,28
3,43,77,15
3,43,0,28
3,43,91,14
3,45,108,2
3,45,0,86
3,45,88,64
3,45,0,43
3,38,89,7
3,38,83,18
3,38,84,22
3,38,0,319
3,38,85,17
3,38,0,18
3,38,80,30
3,38,70,30
3,38,83,20
3,38,0,190
3,45,85,2
3,45,0,46
3,38,73,2
3,38,0,58
3,38,83,38
3,38,0,46
3,43,99,2
3,43,91,22
3,43,85,18
3,43,0,86
3,38,96,10
3,38,99,26
3,38,0,94
3,45,101,2
3,45,0,318
3,45,93,18
3,45,89,26
3,45,0,118
3,45,88,26
3,45,0,46
3,40,93,2
3,40,0,30
3,38,66,18
3,38,0,30
3,40,93,18
3,40,0,82
3,45,100,14
3,45,0,378
3,40,99,6
3,40,0,258
3,40,96,30
3,40,0,89
3,45,100,7
3,45,0,271
3,45,80,17
3,45,0,34
3,45,77,14
3,45,0,46
3,40,83,2
3,40,0,298
3,40,98,38
3,40,0,38
3,43,100,10
3,43,0,297
3,43,94,39
3,45,89,10
3,45,0,132
3,45,84,12
3,45,95,17
3,45,0,31
3,45,92,17
3,45,0,46
3,43,85,2
3,43,0,46
3,40,76,2
3,40,0,46
3,38,105,2
3,38,0,183
3,38,103,9
3,38,0,70
3,43,108,125
3,43,73,15
3,43,0,28
3,43,77,15
3,43,0,28
3,43,91,14
3,45,108,2
3,45,88,64
3,45,0,43
3,38,97,7
3,38,108,22
3,38,95,7
3,38,80,74
3,38,0,38
3,38,104,10
3,38,0,38
3,38,88,10
3,38,0,38
3,38,90,10
3,38,0,38
3,38,86,10
3,38,0,38
3,38,107,10
3,38,0,164
3,38,97,28
3,38,0,79
3,38,90,17
3,38,84,17
3,38,87,17
3,38,0,74
3,38,96,22
3,38,0,31
3,38,82,17
3,38,0,31
3,38,110,17
3,38,0,31
3,38,82,17
3,38,0,31
3,38,82,17
3,38,0,31
3,38,76,17
3,38,0,31
3,38,105,17
3,38,100,18
3,43,102,2
3,43,95,18
3,43,94,23
3,43,0,121
3,43,103,23
3,43,0,39
3,38,104,9
3,38,0,73
3,38,80,23
3,38,61,10
3,38,0,38
3,38,98,10
3,38,0,159
3,45,103,33
3,45,79,17
3,45,0,74
3,45,88,22
3,45,0,31
3,45,94,17
3,45,0,127
3,45,56,17
3,45,80,10
3,45,0,30
3,45,74,18
3,45,0,30
3,45,72,18
3,45,0,30
3,45,77,18
3,45,0,31
3,45,81,17
3,45,0,31
3,45,85,17
3,45,0,34
3,45,91,14
3,45,0,31
3,45,95,17
3,45,0,36
3,43,105,12
3,43,0,118
3,43,94,26
3,43,100,20
3,43,85,17
3,43,98,20
3,43,0,119
3,43,82,25
3,43,82,20
3,43,0,28
3,43,85,20
3,43,0,28
3,43,97,20
3,40,82,2
3,40,0,46
3,38,85,2
3,38,81,9
3,38,0,28
3,38,88,20
3,38,0,1006
3,38,87,1490
3,38,0,479
3,42,82,1
3,45,96,24
3,42,0,2
3,50,85,22
3,45,0,1
3,47,92,47
3,50,0,6
3,47,0,41
3,45,71,1
3,45,0,47
3,42,71,1
3,38,78,14
3,43,114,2
3,43,0,265
3,43,99,23
3,43,0,49
3,45,105,47
3,45,0,175
3,45,109,17
3,43,106,6
3,42,103,20
3,42,0,26
3,40,87,22
3,38,103,28
3,38,0,182
3,40,103,10
3,42,98,2
3,42,0,31
3,45,114,65
3,47,100,18
3,47,0,278
3,45,102,10
3,43,114,50
3,43,0,178
3,43,99,14
3,45,101,192
3,43,0,7
3,45,0,139
3,52,118,46
3,52,0,91
3,50,106,23
3,43,109,2
3,40,88,10
3,40,0,44
3,42,95,4
3,42,0,38
3,45,86,10
3,47,104,14
3,47,0,185
3,45,110,7
3,43,105,57
3,43,0,270
3,43,103,18
3,43,0,46
3,45,107,50
3,45,0,167
3,45,98,25
3,43,80,1
3,43,0,47
3,40,76,1
3,40,0,44
3,38,110,52
3,38,0,183
3,42,117,9
3,42,0,186
3,47,113,6
3,47,0,188
3,45,106,4
3,43,99,33
3,43,105,15
3,38,96,14
3,43,101,23
3,43,103,17
3,43,99,18
3,43,0,54
3,43,101,42
3,43,0,62
3,38,99,34
3,38,103,18
3,38,0,23
3,38,100,25
3,38,89,26
3,38,91,30
3,45,107,25
3,43,95,2
3,40,96,18
3,38,104,7
3,38,0,57
3,43,99,39
3,43,112,25
3,43,0,183
3,45,107,9
3,45,0,121
3,52,100,23
3,50,91,2
3,50,0,33
3,38,105,15
3,38,0,180
3,43,96,12
3,40,94,2
3,40,0,87
3,47,96,105
3,47,0,142
3,45,100,2
3,45,0,190
3,43,93,2
3,43,0,164
3,43,97,28
3,43,0,71
3,43,98,25
3,45,94,28
3,45,0,124
3,45,103,20
3,45,0,46
3,43,101,2
3,43,0,33
3,42,106,15
3,42,0,33
3,40,96,15
3,40,0,52
3,38,96,44
3,38,0,190
3,40,105,2
3,40,0,44
3,43,103,4
3,43,0,36
3,47,99,108
3,47,0,190
3,45,114,2
3,45,0,190
3,43,99,2
3,43,0,167
3,43,107,25
3,43,0,68
3,43,100,28
3,45,85,28
3,45,0,127
3,45,100,17
3,40,91,48
3,45,0,1
3,40,0,184
3,38,107,7
3,38,0,190
3,42,108,2
3,42,0,190
3,47,105,2
3,47,0,190
3,45,103,2
3,45,0,190
3,43,100,2
3,43,104,25
3,43,100,12
3,43,99,22
3,43,100,18
3,43,0,71
3,43,105,25
3,38,94,14
3,38,99,23
3,38,0,22
3,38,100,26
3,38,0,121
3,38,96,23
3,38,0,22
3,38,96,26
3,38,0,116
3,38,93,28
3,38,0,23
3,38,103,25
3,40,87,4
3,40,0,44
3,42,94,4
3,42,0,57
3,43,110,39
3,43,0,119
3,43,100,25
3,43,0,28
3,43,97,20
3,43,0,58
3,43,101,38
3,45,101,42
3,45,101,15
3,45,0,78
3,45,102,18
3,45,0,30
3,45,101,18
3,45,0,26
3,45,97,22
3,45,0,22
3,45,97,26
3,45,0,50
3,38,100,46
3,38,0,118
3,38,89,26
3,38,0,20
3,40,105,28
3,43,97,6
3,47,106,74
3,47,0,190
3,45,94,2
3,45,0,190
3,43,100,2
3,43,0,78
3,43,101,18
3,43,0,78
3,43,104,18
3,43,0,78
3,43,105,18
3,45,104,18
3,45,90,18
3,45,0,42
3,45,90,6
3,45,0,38
3,45,101,10
3,45,0,22
3,45,94,26
3,45,0,46
3,43,94,2
3,43,0,39
3,40,94,9
3,38,97,7
3,38,0,74
3,38,76,22
3,38,0,25
3,38,83,23
3,38,0,46
3,43,95,2
3,40,94,2
3,40,0,42
3,45,99,6
3,42,89,4
3,42,0,42
3,47,108,6
3,47,0,188
3,45,89,4
3,45,0,188
3,43,100,4
3,43,0,78
3,43,101,18
3,43,0,78
3,43,104,18
3,43,0,78
3,43,105,18
3,45,104,18
3,45,0,78
3,45,90,18
3,45,0,38
3,45,90,10
3,45,0,38
3,45,101,10
3,45,0,23
3,45,94,25
3,45,0,46
3,43,94,2
3,43,0,34
3,40,94,14
3,40,0,41
3,38,95,7
3,38,0,66
3,38,94,30
3,38,0,89
3,42,93,7
3,42,0,70
3,42,94,26
3,47,99,2
3,47,0,188
3,45,93,4
3,45,0,188
3,43,100,4
3,43,0,164
3,43,86,28
3,43,0,122
3,43,89,22
3,43,94,20
3,43,0,116
3,43,87,28
3,43,0,30
3,43,88,18
3,43,92,18
3,43,89,23
3,38,100,2
3,38,78,12
3,38,64,7
3,38,0,50
3,38,57,46
3,38,54,25
3,38,87,31
3,38,0,716
3,38,101,52
4,67,119,27896
4,67,113,22
4,67,0,20
4,67,115,24
4,67,0,21
4,67,114,27
4,67,0,19
4,67,121,34
4,65,104,95
4,67,0,6
4,65,109,19
4,64,100,96
4,65,0,6
4,64,101,23
4,64,89,26
4,64,113,31
4,62,96,47
4,64,0,4
4,62,0,37
4,60,104,3
4,60,0,24
4,60,104,21
4,60,0,237
4,60,92,11
4,60,89,16
4,62,75,48
4,60,0,3
4,59,82,91
4,62,0,2
4,59,0,120
4,69,106,23534
4,69,0,35
4,81,123,23
4,81,0,200
4,81,112,26
4,79,121,97
4,81,0,5
4,79,118,22
4,78,113,102
4,78,0,117
4,78,110,20
4,76,100,48
4,78,0,4
4,76,0,39
4,74,84,3
4,74,0,27
4,74,88,20
4,74,0,233
4,74,105,18
4,78,111,91
4,74,0,6
4,79,104,8
4,76,80,96
4,79,0,2
4,76,0,144
4,81,118,146
4,81,0,71
4,81,113,21
4,81,0,19
4,81,111,36
4,81,0,15
4,81,100,28
4,81,0,24
4,81,112,29
4,81,0,84
4,79,104,7
4,79,0,24
4,79,100,24
4,78,98,93
4,79,0,7
4,83,114,16
4,83,0,24
4,83,112,21
4,83,0,19
4,83,124,32
4,81,123,48
4,83,0,4
4,79,118,5
4,79,108,20
4,79,0,225
4,79,108,21
4,79,0,72
4,79,109,19
4,81,127,24
4,79,79,104
4,78,85,6
4,79,0,6
4,76,89,12
4,78,0,1
4,81,127,3220
4,81,0,162
4,81,127,22
4,79,114,99
4,81,0,7
4,79,104,16
4,78,110,95
4,79,0,4
4,78,0,102
4,78,127,4553
4,78,0,36
4,78,121,60
4,76,102,64
4,78,0,4
4,76,0,26
4,74,114,5
4,74,112,20
4,74,0,223
4,74,97,12
4,78,114,93
4,74,0,10
4,78,0,29
4,79,83,9
4,76,99,2
4,76,0,153
4,81,127,178
4,81,0,179
4,81,113,16
4,79,119,98
4,81,0,6
4,79,104,21
4,78,111,96
4,79,0,3
4,78,0,57
4,78,114,79
4,76,99,59
4,78,0,5
4,76,0,25
4,74,108,6
4,74,107,21
4,74,0,227
4,74,93,13
4,78,116,91
4,79,90,12
4,76,90,91
4,79,0,0
4,76,0,200
4,69,85,90
4,69,0,23
4,81,126,22
4,81,0,68
4,81,112,36
4,81,109,28
4,79,114,97
4,81,0,6
4,79,115,26
4,78,113,91
4,79,0,2
4,83,109,13
4,83,0,64
4,83,127,37
4,83,0,62
4,81,124,2
4,81,0,25
4,79,116,7
4,79,0,38
4,79,115,23
4,79,0,217
4,79,113,19
4,79,0,74
4,79,102,18
4,81,123,27
4,76,93,2
4,76,0,159
5,64,84,6452
5,72,91,14
5,72,0,41
5,72,87,26
5,72,89,22
5,72,0,84
5,72,92,18
5,72,0,46
5,71,84,10
5,71,0,78
5,71,82,21
5,71,0,27
5,71,78,29
5,71,91,26
5,71,0,30
5,71,89,19
5,69,92,2
5,69,0,35
5,69,77,15
5,69,0,25
5,69,81,19
5,69,0,26
5,69,80,26
5,69,85,25
5,67,89,43
5,69,0,0
5,69,81,107
5,67,0,6
5,67,84,2
5,60,90,100
5,65,92,26
5,60,0,9
5,65,0,30
5,65,77,26
5,65,87,23
5,65,87,20
5,64,82,3
5,62,90,143
5,64,0,11
5,62,0,20
5,62,83,20
5,60,80,3
5,60,0,32
5,60,89,69
5,60,0,38
5,65,85,5
5,62,84,266
5,71,90,40
5,62,0,6
5,71,0,29
5,71,80,24
5,71,89,20
5,71,0,70
5,71,92,20
5,69,92,2
5,71,80,97
5,69,0,3
5,69,80,2
5,69,92,51
5,69,0,26
5,69,92,21
5,67,95,49
5,69,0,0
5,67,0,26
5,67,85,21
5,67,0,20
5,67,82,23
5,67,0,24
5,67,80,26
5,67,79,27
5,65,73,4
5,67,85,94
5,65,80,50
5,55,86,107
5,65,81,31
5,55,0,4
5,65,0,18
5,65,75,2
5,65,92,2
5,65,92,21
5,64,91,1
5,62,85,2
5,62,0,23
5,62,84,26
5,60,74,8
5,67,78,109
5,60,0,8
5,72,106,484
5,72,0,36
5,72,100,13
5,72,99,20
5,72,98,20
5,72,0,31
5,72,99,20
5,72,0,35
5,72,95,16
5,72,0,80
5,72,100,15
5,71,98,44
5,72,0,0
5,71,92,13
5,71,0,30
5,71,88,20
5,71,96,19
5,71,98,17
5,69,97,4
5,69,92,15
5,69,92,17
5,69,90,21
5,69,0,30
5,69,94,20
5,69,0,30
5,69,92,21
5,67,94,97
5,69,0,3
5,69,88,92
5,67,0,6
5,67,89,43
5,67,0,144
5,65,104,87
5,65,0,126
5,65,97,18
5,65,0,28
5,65,96,17
5,65,99,18
5,65,0,30
5,65,99,18
5,64,93,51
5,65,0,5
5,62,91,39
5,60,90,42
5,62,0,1
5,60,87,53
5,62,94,47
5,60,0,3
5,60,86,45
5,62,0,4
5,60,0,59
5,65,99,84
5,65,0,542
5,70,97,178
5,71,99,3
5,70,0,14
5,71,96,18
5,71,95,18
5,71,100,20
5,71,97,18
5,71,0,89
5,69,94,15
5,71,91,89
5,69,94,44
5,69,0,96
5,69,93,90
5,69,94,23
5,69,0,49
5,67,93,4
5,67,0,25
5,67,92,18
5,67,86,26
5,67,86,19
5,67,91,23
5,67,86,18
5,65,90,88
5,67,0,0
5,67,82,104
5,65,0,2
5,65,87,48
5,67,0,1
5,65,0,162
5,65,101,82
5,65,97,16
5,65,95,15
5,65,95,19
5,65,0,34
