track,note,velocity,time
2,33,95,128
2,32,95,10
2,30,95,0
2,33,95,4
2,35,95,18
2,33,95,42
2,32,95,6
2,30,95,2
2,37,95,2
2,35,95,24
2,35,95,30
2,35,95,34
2,30,95,86
2,33,95,36
2,35,95,16
2,35,95,30
2,36,95,22
2,37,95,12
2,37,95,28
2,37,95,22
2,35,95,38
2,33,95,120
2,33,95,8
2,33,95,20
2,33,95,24
2,32,95,22
2,35,95,26
2,37,95,28
2,37,95,12
2,37,95,22
2,35,95,32
2,33,95,122
2,33,95,20
2,33,95,16
2,33,95,40
2,32,95,22
2,32,95,20
2,37,95,2
2,37,95,34
2,37,95,24
2,32,95,30
2,30,95,92
2,30,95,10
2,30,95,20
2,30,95,38
2,30,95,28
2,30,95,22
2,31,95,26
2,31,95,22
2,31,95,18
2,31,95,70
2,31,95,36
2,31,95,14
2,31,95,66
2,31,95,36
2,31,95,14
2,31,95,312
2,31,95,24
2,31,95,18
2,31,95,64
2,31,95,34
2,31,95,18
2,31,95,62
2,31,95,32
2,31,95,18
2,43,95,264
2,31,95,12
2,32,95,96
2,35,95,34
2,37,95,22
2,37,95,42
2,37,95,28
2,35,95,56
2,33,95,132
2,33,95,32
2,33,95,24
2,32,95,42
2,37,95,92
2,37,95,44
2,37,95,24
2,35,95,58
2,33,95,100
2,33,95,28
2,33,95,22
2,32,95,46
2,37,95,68
2,37,95,40
2,37,95,24
2,35,95,52
2,33,95,96
2,33,95,32
2,33,95,24
2,32,95,38
2,37,95,46
2,37,95,54
2,37,95,22
2,35,95,38
2,33,95,94
2,43,95,4
2,31,95,12
2,32,95,96
2,35,95,34
2,37,95,22
2,37,95,42
2,37,95,28
2,35,95,56
2,33,95,132
2,33,95,32
2,33,95,24
2,32,95,42
2,37,95,92
2,37,95,44
2,37,95,24
2,35,95,58
2,33,95,100
2,33,95,28
2,33,95,22
2,32,95,46
2,37,95,68
2,37,95,40
2,37,95,24
2,35,95,52
2,33,95,96
2,33,95,32
2,33,95,24
2,32,95,38
2,37,95,46
2,37,95,54
2,37,95,22
2,44,95,50
2,42,95,26
2,40,95,18
2,37,95,20
2,32,95,10
2,33,95,10
2,30,95,192
2,30,95,40
2,30,95,20
2,32,95,14
2,33,95,32
2,35,95,44
2,35,95,40
2,37,95,8
2,35,95,28
2,33,95,18
2,32,95,30
2,30,95,38
2,30,95,32
2,30,95,20
2,32,95,18
2,33,95,42
2,35,95,48
2,35,95,58
2,47,95,18
2,47,95,18
2,30,95,116
2,30,95,50
2,30,95,26
2,32,95,30
2,33,95,26
2,35,95,54
2,35,95,28
2,37,95,18
2,35,95,40
2,33,95,30
2,32,95,18
2,30,95,34
2,30,95,22
2,30,95,20
2,32,95,26
2,33,95,40
2,35,95,52
2,35,95,34
2,33,95,18
2,33,95,24
2,33,95,66
2,32,95,14
2,32,95,20
2,32,95,64
2,30,95,28
2,30,95,40
2,30,95,20
2,32,95,14
2,33,95,32
2,35,95,44
2,35,95,40
2,37,95,8
2,35,95,28
2,33,95,18
2,32,95,30
2,30,95,38
2,30,95,32
2,30,95,20
2,32,95,18
2,33,95,42
2,35,95,48
2,35,95,58
2,47,95,18
2,47,95,18
2,30,95,116
2,30,95,50
2,30,95,26
2,32,95,30
2,33,95,26
2,35,95,54
2,35,95,28
2,37,95,18
2,35,95,40
2,33,95,30
2,32,95,18
2,30,95,34
2,30,95,22
2,30,95,20
2,32,95,26
2,33,95,40
2,35,95,52
2,47,95,68
2,35,95,20
2,42,95,18
2,44,95,4
2,42,95,14
2,35,95,18
2,37,95,16
2,35,95,12
2,33,95,14
2,32,95,18
2,30,95,22
2,30,95,40
2,30,95,20
2,32,95,14
2,33,95,32
2,35,95,44
2,35,95,40
2,37,95,8
2,35,95,28
2,33,95,18
2,32,95,30
2,30,95,38
2,30,95,32
2,30,95,20
2,32,95,18
2,33,95,42
2,35,95,48
2,35,95,58
2,47,95,18
2,47,95,18
2,30,95,116
2,30,95,50
2,30,95,26
2,32,95,30
2,33,95,26
2,35,95,54
2,35,95,28
2,37,95,18
2,35,95,40
2,33,95,30
2,32,95,18
2,30,95,34
2,30,95,22
2,30,95,20
2,32,95,26
2,33,95,40
2,35,95,52
2,35,95,34
2,33,95,18
2,33,95,24
2,32,95,120
2,32,95,20
2,30,95,116
2,30,95,40
2,30,95,20
2,32,95,14
2,33,95,32
2,35,95,44
2,35,95,40
2,37,95,8
2,35,95,28
2,33,95,18
2,32,95,30
2,30,95,38
2,30,95,32
2,30,95,20
2,32,95,18
2,33,95,42
2,35,95,48
2,35,95,58
2,47,95,18
2,47,95,18
2,30,95,116
2,30,95,50
2,30,95,26
2,32,95,30
2,33,95,26
2,35,95,54
2,35,95,28
2,35,95,20
2,47,95,14
2,35,95,20
2,36,95,18
2,48,95,12
2,36,95,22
2,37,95,24
2,37,95,28
2,37,95,22
2,35,95,38
2,33,95,120
2,33,95,8
2,33,95,20
2,33,95,24
2,32,95,22
2,35,95,26
2,37,95,28
2,37,95,12
2,37,95,22
2,35,95,32
2,33,95,122
2,33,95,20
2,33,95,16
2,33,95,40
2,32,95,22
2,32,95,20
2,37,95,2
2,37,95,34
2,37,95,24
2,32,95,30
2,30,95,92
2,30,95,10
2,30,95,20
2,30,95,38
2,30,95,28
2,30,95,22
2,31,95,26
2,31,95,22
2,31,95,18
2,31,95,70
2,31,95,36
2,31,95,14
2,31,95,66
2,31,95,36
2,31,95,14
2,31,95,312
2,31,95,24
2,31,95,18
2,31,95,64
2,31,95,34
2,31,95,18
2,31,95,62
2,31,95,32
2,31,95,18
2,43,95,264
2,31,95,12
2,32,95,96
2,35,95,34
2,37,95,22
2,37,95,42
2,37,95,28
2,35,95,56
2,33,95,132
2,33,95,32
2,33,95,24
2,32,95,42
2,37,95,92
2,37,95,44
2,37,95,24
2,35,95,58
2,33,95,100
2,33,95,28
2,33,95,22
2,32,95,46
2,37,95,68
2,37,95,40
2,37,95,24
2,35,95,52
2,33,95,96
2,33,95,32
2,33,95,24
2,32,95,38
2,37,95,46
2,37,95,54
2,37,95,22
2,35,95,38
2,33,95,94
2,43,95,4
2,31,95,12
2,32,95,96
2,35,95,34
2,37,95,22
2,37,95,42
2,37,95,28
2,35,95,56
2,33,95,132
2,33,95,32
2,33,95,24
2,32,95,42
2,37,95,92
2,37,95,44
2,37,95,24
2,35,95,58
2,33,95,100
2,33,95,28
2,33,95,22
2,32,95,46
2,37,95,68
2,37,95,40
2,37,95,24
2,35,95,52
2,33,95,96
2,33,95,32
2,33,95,24
2,32,95,38
2,37,95,46
2,37,95,54
2,37,95,22
2,44,95,50
2,42,95,26
2,40,95,18
2,37,95,20
2,32,95,10
2,33,95,10
2,30,95,192
2,30,95,40
2,30,95,20
2,32,95,14
2,33,95,32
2,35,95,44
2,35,95,40
2,37,95,8
2,35,95,28
2,33,95,18
2,32,95,30
2,30,95,38
2,30,95,32
2,30,95,20
2,32,95,18
2,33,95,42
2,35,95,48
2,35,95,58
2,47,95,18
2,47,95,18
2,30,95,116
2,30,95,50
2,30,95,26
2,32,95,30
2,33,95,26
2,35,95,54
2,35,95,28
2,37,95,18
2,35,95,40
2,33,95,30
2,32,95,18
2,30,95,34
2,30,95,22
2,30,95,20
2,32,95,26
2,33,95,40
2,35,95,52
2,35,95,34
2,33,95,18
2,33,95,24
2,33,95,66
2,32,95,14
2,32,95,20
2,32,95,64
2,30,95,28
2,30,95,40
2,30,95,20
2,32,95,14
2,33,95,32
2,35,95,44
2,35,95,40
2,37,95,8
2,35,95,28
2,33,95,18
2,32,95,30
2,30,95,38
2,30,95,32
2,30,95,20
2,32,95,18
2,33,95,42
2,35,95,48
2,35,95,58
2,47,95,18
2,47,95,18
2,30,95,116
2,30,95,50
2,30,95,26
2,32,95,30
2,33,95,26
2,35,95,54
2,35,95,28
2,37,95,18
2,35,95,40
2,33,95,30
2,32,95,18
2,30,95,34
2,30,95,22
2,30,95,20
2,32,95,26
2,33,95,40
2,35,95,52
2,47,95,68
2,35,95,20
2,42,95,18
2,44,95,4
2,42,95,14
2,35,95,18
2,37,95,16
2,35,95,12
2,33,95,14
2,32,95,18
2,30,95,22
2,30,95,40
2,30,95,20
2,32,95,14
2,33,95,32
2,35,95,44
2,35,95,40
2,37,95,8
2,35,95,28
2,33,95,18
2,32,95,30
2,30,95,38
2,30,95,32
2,30,95,20
2,32,95,18
2,33,95,42
2,35,95,48
2,35,95,58
2,47,95,18
2,47,95,18
2,30,95,116
2,30,95,50
2,30,95,26
2,32,95,30
2,33,95,26
2,35,95,54
2,35,95,28
2,37,95,18
2,35,95,40
2,33,95,30
2,32,95,18
2,30,95,34
2,30,95,22
2,30,95,20
2,32,95,26
2,33,95,40
2,35,95,52
2,35,95,34
2,33,95,18
2,33,95,24
2,33,95,66
2,32,95,14
2,32,95,20
2,32,95,64
2,30,95,28
2,30,95,40
2,30,95,20
2,32,95,14
2,33,95,32
2,35,95,44
2,35,95,40
2,37,95,8
2,35,95,28
2,33,95,18
2,32,95,30
2,30,95,38
2,30,95,32
2,30,95,20
2,32,95,18
2,33,95,42
2,35,95,48
2,35,95,58
2,47,95,18
2,47,95,18
2,30,95,116
2,30,95,50
2,30,95,26
2,32,95,30
2,33,95,26
2,35,95,54
2,35,95,28
2,37,95,18
2,35,95,40
2,33,95,30
2,32,95,18
2,30,95,34
2,30,95,22
2,30,95,20
2,32,95,26
2,33,95,40
2,35,95,52
2,35,95,34
2,33,95,18
2,33,95,24
2,32,95,120
2,32,95,20
2,30,95,116
2,30,95,40
2,30,95,20
2,32,95,14
2,33,95,32
2,35,95,44
2,35,95,40
2,37,95,8
2,35,95,28
2,33,95,18
2,32,95,30
2,30,95,38
2,30,95,32
2,30,95,20
2,32,95,18
2,33,95,42
2,35,95,48
2,35,95,58
2,47,95,18
2,47,95,18
2,30,95,116
2,30,95,50
2,30,95,26
2,32,95,30
2,33,95,26
2,35,95,54
2,35,95,28
2,37,95,18
2,35,95,40
2,33,95,30
2,32,95,18
2,30,95,34
2,30,95,22
2,30,95,20
2,32,95,26
2,33,95,40
2,35,95,52
2,35,95,34
2,33,95,18
2,33,95,24
2,32,95,120
2,32,95,20
3,61,90,1
3,66,94,0
3,64,88,0
3,69,88,0
3,64,92,2
3,69,63,0
3,66,95,0
3,61,91,0
3,64,82,76
3,61,82,0
3,69,83,0
3,66,87,0
3,64,82,74
3,61,82,0
3,69,90,0
3,66,90,0
3,64,93,78
3,69,84,0
3,61,93,0
3,66,97,0
3,66,83,1
3,59,88,0
3,63,94,0
3,63,88,4
3,59,80,0
3,66,84,0
3,63,91,76
3,59,77,0
3,66,82,0
3,63,84,72
3,59,72,0
3,66,85,0
3,59,82,66
3,63,95,0
3,66,86,0
3,61,90,2
3,66,94,0
3,64,88,0
3,69,88,0
3,61,91,2
3,64,92,0
3,69,63,0
3,66,95,0
3,66,87,76
3,64,82,0
3,61,82,0
3,69,83,0
3,66,90,74
3,64,82,0
3,61,82,0
3,69,90,0
3,66,97,78
3,64,93,0
3,69,84,0
3,61,93,0
3,66,86,2
3,71,95,0
3,68,82,0
3,63,86,0
3,63,91,16
3,68,94,0
3,71,58,0
3,66,95,0
3,71,95,76
3,63,96,0
3,68,92,0
3,66,82,0
3,68,94,76
3,63,88,0
3,71,88,0
3,66,94,0
3,71,85,70
3,63,93,0
3,68,88,0
3,66,89,0
3,66,98,2
3,69,92,0
3,61,94,0
3,64,92,0
3,66,89,2
3,69,73,0
3,64,85,0
3,61,95,0
3,64,79,74
3,61,85,0
3,66,84,0
3,69,83,0
3,61,87,74
3,64,83,0
3,69,84,0
3,66,87,0
3,69,82,66
3,64,80,0
3,61,82,0
3,66,88,0
3,59,88,2
3,63,91,0
3,66,83,0
3,66,84,30
3,59,71,0
3,63,94,0
3,63,87,78
3,59,57,0
3,66,82,0
3,63,69,60
3,59,43,0
3,66,96,0
3,64,92,180
3,61,90,0
3,56,88,0
3,61,99,14
3,64,84,0
3,56,96,0
3,64,91,22
3,61,94,0
3,56,91,0
3,56,81,24
3,64,89,0
3,61,88,0
3,64,98,72
3,61,95,0
3,56,93,0
3,59,89,70
3,63,99,0
3,54,96,0
3,57,88,166
3,52,90,0
3,61,99,0
3,52,90,6
3,52,77,24
3,57,86,0
3,61,89,0
3,52,74,70
3,57,81,0
3,61,96,0
3,59,82,118
3,54,89,0
3,63,88,0
3,64,93,192
3,56,94,0
3,61,69,0
3,64,74,26
3,56,79,0
3,61,92,0
3,64,64,24
3,56,72,0
3,61,83,0
3,64,69,22
3,61,94,0
3,56,77,0
3,64,88,76
3,61,88,0
3,56,90,0
3,63,91,66
3,59,87,0
3,54,99,0
3,52,85,168
3,61,90,0
3,57,70,0
3,52,82,94
3,61,91,0
3,57,83,0
3,63,96,124
3,54,93,0
3,59,79,0
3,64,92,182
3,61,85,0
3,56,90,0
3,56,94,16
3,64,75,0
3,61,85,0
3,56,88,22
3,64,80,0
3,61,86,0
3,64,77,20
3,61,96,0
3,56,76,0
3,64,88,76
3,61,87,0
3,56,94,0
3,63,89,68
3,54,94,0
3,59,79,0
3,57,85,166
3,61,79,0
3,64,88,0
3,54,95,0
3,61,89,64
3,54,91,0
3,64,90,0
3,54,87,22
3,64,54,0
3,57,73,0
3,61,87,0
3,54,92,66
3,61,87,0
3,57,78,0
3,64,83,0
3,64,96,72
3,54,97,0
3,57,71,0
3,61,87,0
3,67,89,70
3,72,104,0
3,72,93,54
3,71,97,18
3,67,90,0
3,67,90,72
3,72,102,0
3,67,88,34
3,72,100,0
3,67,86,18
3,71,105,0
3,72,100,76
3,67,93,0
3,67,77,42
3,72,95,0
3,67,93,16
3,71,106,0
3,72,103,362
3,67,93,0
3,67,86,42
3,72,98,0
3,67,81,16
3,71,99,0
3,67,85,76
3,72,103,0
3,67,89,24
3,72,94,0
3,71,97,18
3,67,82,0
3,67,90,80
3,72,102,0
3,67,93,28
3,72,102,0
3,71,105,16
3,67,94,0
3,61,77,840
3,64,85,0
3,56,77,0
3,56,65,36
3,64,86,0
3,61,77,0
3,64,88,20
3,61,77,0
3,56,70,0
3,56,75,24
3,64,86,0
3,61,78,0
3,61,80,68
3,64,88,0
3,56,77,0
3,59,85,74
3,63,78,0
3,54,78,0
3,57,83,162
3,61,81,0
3,52,82,0
3,52,77,10
3,57,83,48
3,61,77,0
3,60,81,108
3,63,80,0
3,56,73,0
3,61,77,118
3,56,73,0
3,64,88,0
3,56,77,160
3,61,77,0
3,64,85,0
3,61,77,36
3,56,65,0
3,64,86,0
3,56,70,20
3,64,88,0
3,61,77,0
3,61,78,24
3,56,75,0
3,64,86,0
3,56,77,68
3,61,80,0
3,64,88,0
3,54,78,74
3,59,85,0
3,63,78,0
3,52,85,162
3,57,81,0
3,61,81,0
3,52,77,2
3,61,77,48
3,57,83,0
3,56,73,108
3,60,81,0
3,63,80,0
3,64,88,118
3,61,77,0
3,56,73,0
3,56,73,160
3,64,82,0
3,61,77,0
3,56,66,32
3,61,78,0
3,64,84,0
3,61,70,22
3,56,66,0
3,64,83,0
3,61,70,24
3,56,65,0
3,64,85,0
3,61,74,72
3,56,78,0
3,64,88,0
3,63,80,72
3,54,77,0
3,59,85,0
3,52,80,162
3,57,80,0
3,61,78,0
3,52,82,24
3,57,83,22
3,61,77,0
3,60,81,108
3,63,80,0
3,56,73,0
3,61,77,118
3,56,73,0
3,64,88,0
3,61,77,160
3,56,74,0
3,64,81,0
3,56,70,38
3,64,88,0
3,61,77,0
3,56,71,22
3,61,78,0
3,64,83,0
3,56,73,22
3,61,78,0
3,64,86,0
3,56,77,64
3,61,73,0
3,64,82,0
3,63,78,120
3,54,77,0
3,59,86,0
3,64,86,110
3,57,78,0
3,61,82,0
3,61,86,48
3,64,86,0
3,57,77,0
3,64,81,24
3,57,71,0
3,61,85,0
3,61,81,24
3,64,88,0
3,57,75,0
3,61,77,24
3,64,85,0
3,57,67,0
3,61,77,554
3,64,85,0
