track,note,velocity,time
1,60,80,480
1,55,80,0
1,64,80,0
1,36,80,0
1,64,0,60
1,60,0,0
1,55,0,0
1,55,80,60
1,60,80,0
1,64,80,0
1,64,0,60
1,60,0,0
1,55,0,0
1,60,80,60
1,55,80,0
1,64,80,0
1,64,0,60
1,55,0,0
1,60,0,0
1,55,80,60
1,64,80,0
1,60,80,0
1,60,0,60
1,64,0,0
1,55,0,0
1,55,80,60
1,64,80,0
1,60,80,0
1,60,0,60
1,64,0,0
1,55,0,0
1,60,80,60
1,55,80,0
1,64,80,0
1,64,0,60
1,55,0,0
1,60,0,0
1,64,80,60
1,60,80,0
1,55,80,0
1,55,0,60
1,60,0,0
1,64,0,0
1,55,80,60
1,64,80,0
1,60,80,0
1,60,0,60
1,36,0,0
1,55,0,0
1,64,0,0
1,43,80,0
1,43,0,60
1,36,80,0
1,55,80,0
1,64,80,0
1,60,80,0
1,60,0,60
1,64,0,0
1,55,0,0
1,64,80,60
1,60,80,0
1,55,80,0
1,55,0,60
1,60,0,0
1,64,0,0
1,55,80,60
1,64,80,0
1,60,80,0
1,60,0,60
1,64,0,0
1,55,0,0
1,55,80,60
1,64,80,0
1,60,80,0
1,60,0,60
1,64,0,0
1,55,0,0
1,55,80,60
1,64,80,0
1,60,80,0
1,60,0,60
1,64,0,0
1,55,0,0
1,55,80,60
1,60,80,0
1,64,80,0
1,64,0,60
1,60,0,0
1,55,0,0
1,55,80,60
1,64,80,0
1,60,80,0
1,60,0,60
1,64,0,0
1,55,0,0
1,55,80,60
1,64,80,0
1,60,80,0
1,60,0,60
1,36,0,0
1,55,0,0
1,64,0,0
1,43,80,0
1,43,0,60
1,36,80,0
1,64,80,0
1,60,80,0
1,55,80,0
1,55,0,60
1,60,0,0
1,64,0,0
1,55,80,60
1,64,80,0
1,60,80,0
1,60,0,60
1,64,0,0
1,55,0,0
1,55,80,60
1,60,80,0
1,64,80,0
1,64,0,60
1,60,0,0
1,55,0,0
1,64,80,60
1,55,80,0
1,60,80,0
1,60,0,60
1,55,0,0
1,64,0,0
1,64,80,60
1,60,80,0
1,55,80,0
1,55,0,60
1,60,0,0
1,64,0,0
1,55,80,60
1,64,80,0
1,60,80,0
1,60,0,60
1,64,0,0
1,55,0,0
1,64,80,60
1,55,80,0
1,60,80,0
1,60,0,60
1,55,0,0
1,64,0,0
1,64,80,60
1,60,80,0
1,55,80,0
1,55,0,60
1,36,0,0
1,64,0,0
1,60,0,0
1,36,80,60
1,64,80,0
1,60,80,0
1,55,80,0
1,55,0,60
1,60,0,0
1,64,0,0
1,55,80,60
1,60,80,0
1,64,80,0
1,64,0,60
1,60,0,0
1,55,0,0
1,55,80,60
1,64,80,0
1,60,80,0
1,60,0,60
1,64,0,0
1,55,0,0
1,55,80,60
1,64,80,0
1,60,80,0
1,60,0,60
1,64,0,0
1,55,0,0
1,55,80,60
1,64,80,0
1,60,80,0
1,60,0,60
1,64,0,0
1,55,0,0
1,55,80,60
1,64,80,0
1,60,80,0
1,60,0,60
1,64,0,0
1,55,0,0
1,55,80,60
1,64,80,0
1,60,80,0
1,60,0,60
1,64,0,0
1,55,0,0
1,60,80,60
1,55,80,0
1,64,80,0
1,64,0,60
1,55,0,0
1,60,0,0
1,36,0,60
1,41,80,0
1,57,80,0
1,65,80,0
1,60,80,0
1,60,0,60
1,65,0,0
1,57,0,0
1,65,80,60
1,57,80,0
1,60,80,0
1,60,0,60
1,57,0,0
1,65,0,0
1,65,80,60
1,57,80,0
1,60,80,0
1,60,0,60
1,57,0,0
1,65,0,0
1,65,80,60
1,57,80,0
1,60,80,0
1,60,0,60
1,57,0,0
1,65,0,0
1,65,80,60
1,57,80,0
1,60,80,0
1,60,0,60
1,57,0,0
1,65,0,0
1,65,80,60
1,57,80,0
1,60,80,0
1,60,0,60
1,57,0,0
1,65,0,0
1,57,80,60
1,65,80,0
1,60,80,0
1,60,0,60
1,65,0,0
1,57,0,0
1,57,80,60
1,65,80,0
1,60,80,0
1,60,0,60
1,41,0,0
1,57,0,0
1,65,0,0
1,43,80,60
1,67,80,0
1,59,80,0
1,62,80,0
1,62,0,60
1,59,0,0
1,67,0,0
1,59,80,60
1,67,80,0
1,62,80,0
1,62,0,60
1,67,0,0
1,59,0,0
1,59,80,60
1,67,80,0
1,62,80,0
1,62,0,60
1,67,0,0
1,59,0,0
1,67,80,60
1,59,80,0
1,62,80,0
1,62,0,60
1,59,0,0
1,67,0,0
1,59,80,60
1,67,80,0
1,62,80,0
1,62,0,60
1,67,0,0
1,59,0,0
1,59,80,60
1,67,80,0
1,62,80,0
1,62,0,60
1,67,0,0
1,59,0,0
1,59,80,60
1,67,80,0
1,62,80,0
1,62,0,60
1,67,0,0
1,59,0,0
1,67,80,60
1,59,80,0
1,62,80,0
1,62,0,60
1,43,0,0
1,67,0,0
1,59,0,0
1,36,80,60
1,55,80,0
1,64,80,0
1,60,80,0
1,60,0,60
1,64,0,0
1,55,0,0
1,55,80,60
1,60,80,0
1,64,80,0
1,64,0,60
1,60,0,0
1,55,0,0
1,55,80,60
1,64,80,0
1,60,80,0
1,60,0,60
1,64,0,0
1,55,0,0
1,64,80,60
1,55,80,0
1,60,80,0
1,60,0,60
1,55,0,0
1,64,0,0
1,55,80,60
1,64,80,0
1,60,80,0
1,60,0,60
1,64,0,0
1,55,0,0
1,55,80,60
1,64,80,0
1,60,80,0
1,60,0,60
1,64,0,0
1,55,0,0
1,55,80,60
1,64,80,0
1,60,80,0
1,60,0,60
1,64,0,0
1,55,0,0
1,55,80,60
1,60,80,0
1,64,80,0
1,64,0,60
1,36,0,0
1,55,0,0
1,60,0,0
1,36,80,60
1,64,80,0
1,60,80,0
1,55,80,0
1,55,0,60
1,60,0,0
1,64,0,0
1,55,80,60
1,60,80,0
1,64,80,0
1,64,0,60
1,60,0,0
1,55,0,0
1,55,80,60
1,64,80,0
1,60,80,0
1,60,0,60
1,64,0,0
1,55,0,0
1,55,80,60
1,64,80,0
1,60,80,0
1,60,0,60
1,64,0,0
1,55,0,0
1,55,80,60
1,64,80,0
1,60,80,0
1,60,0,60
1,64,0,0
1,55,0,0
1,55,80,60
1,64,80,0
1,60,80,0
1,60,0,60
1,64,0,0
1,55,0,0
1,55,80,60
1,64,80,0
1,60,80,0
1,60,0,60
1,64,0,0
1,55,0,0
1,60,80,60
1,55,80,0
1,64,80,0
1,64,0,60
1,55,0,0
1,60,0,0
1,36,0,60
1,41,80,0
1,57,80,0
1,65,80,0
1,60,80,0
1,60,0,60
1,65,0,0
1,57,0,0
1,65,80,60
1,57,80,0
1,60,80,0
1,60,0,60
1,57,0,0
1,65,0,0
1,65,80,60
1,57,80,0
1,60,80,0
1,60,0,60
1,57,0,0
1,65,0,0
1,65,80,60
1,57,80,0
1,60,80,0
1,60,0,60
1,57,0,0
1,65,0,0
1,65,80,60
1,57,80,0
1,60,80,0
1,60,0,60
1,57,0,0
1,65,0,0
1,65,80,60
1,57,80,0
1,60,80,0
1,60,0,60
1,57,0,0
1,65,0,0
1,57,80,60
1,65,80,0
1,60,80,0
1,60,0,60
1,65,0,0
1,57,0,0
1,57,80,60
1,65,80,0
1,60,80,0
1,60,0,60
1,41,0,0
1,57,0,0
1,65,0,0
1,43,80,60
1,67,80,0
1,59,80,0
1,62,80,0
1,62,0,60
1,59,0,0
1,67,0,0
1,59,80,60
1,67,80,0
1,62,80,0
1,62,0,60
1,67,0,0
1,59,0,0
1,59,80,60
1,67,80,0
1,62,80,0
1,62,0,60
1,67,0,0
1,59,0,0
1,67,80,60
1,59,80,0
1,62,80,0
1,62,0,60
1,59,0,0
1,67,0,0
1,59,80,60
1,67,80,0
1,62,80,0
1,62,0,60
1,67,0,0
1,59,0,0
1,59,80,60
1,67,80,0
1,62,80,0
1,62,0,60
1,67,0,0
1,59,0,0
1,59,80,60
1,67,80,0
1,62,80,0
1,62,0,60
1,67,0,0
1,59,0,0
1,67,80,60
1,59,80,0
1,62,80,0
1,62,0,60
1,43,0,0
1,67,0,0
1,59,0,0
1,36,80,60
1,55,80,0
1,64,80,0
1,60,80,0
1,60,0,60
1,64,0,0
1,55,0,0
1,55,80,60
1,60,80,0
1,64,80,0
1,64,0,60
1,60,0,0
1,55,0,0
1,55,80,60
1,64,80,0
1,60,80,0
1,60,0,60
1,64,0,0
1,55,0,0
1,64,80,60
1,55,80,0
1,60,80,0
1,60,0,60
1,55,0,0
1,64,0,0
1,55,80,60
1,64,80,0
1,60,80,0
1,60,0,60
1,64,0,0
1,55,0,0
1,55,80,60
1,64,80,0
1,60,80,0
1,60,0,60
1,64,0,0
1,55,0,0
1,55,80,60
1,64,80,0
1,60,80,0
1,60,0,60
1,64,0,0
1,55,0,0
1,55,80,60
1,60,80,0
1,64,80,0
1,64,0,60
1,36,0,0
1,55,0,0
1,60,0,0
1,36,80,60
1,64,80,0
1,60,80,0
1,55,80,0
1,55,0,60
1,60,0,0
1,64,0,0
1,55,80,60
1,60,80,0
1,64,80,0
1,64,0,60
1,60,0,0
1,55,0,0
1,55,80,60
1,64,80,0
1,60,80,0
1,60,0,60
1,64,0,0
1,55,0,0
1,55,80,60
1,64,80,0
1,60,80,0
1,60,0,60
1,64,0,0
1,55,0,0
1,55,80,60
1,64,80,0
1,60,80,0
1,60,0,60
1,64,0,0
1,55,0,0
1,55,80,60
1,64,80,0
1,60,80,0
1,60,0,60
1,64,0,0
1,55,0,0
1,55,80,60
1,64,80,0
1,60,80,0
1,60,0,60
1,64,0,0
1,55,0,0
1,60,80,60
1,55,80,0
1,64,80,0
1,64,0,60
1,55,0,0
1,60,0,0
1,36,0,60
1,41,80,0
1,57,80,0
1,65,80,0
1,60,80,0
1,60,0,60
1,65,0,0
1,57,0,0
1,65,80,60
1,57,80,0
1,60,80,0
1,60,0,60
1,57,0,0
1,65,0,0
1,65,80,60
1,57,80,0
1,60,80,0
1,60,0,60
1,57,0,0
1,65,0,0
1,65,80,60
1,57,80,0
1,60,80,0
1,60,0,60
1,57,0,0
1,65,0,0
1,65,80,60
1,57,80,0
1,60,80,0
1,60,0,60
1,57,0,0
1,65,0,0
1,65,80,60
1,57,80,0
1,60,80,0
1,60,0,60
1,57,0,0
1,65,0,0
1,57,80,60
1,65,80,0
1,60,80,0
1,60,0,60
1,65,0,0
1,57,0,0
1,57,80,60
1,65,80,0
1,60,80,0
1,60,0,60
1,41,0,0
1,57,0,0
1,65,0,0
1,43,80,60
1,67,80,0
1,59,80,0
1,62,80,0
1,62,0,60
1,59,0,0
1,67,0,0
1,59,80,60
1,67,80,0
1,62,80,0
1,62,0,60
1,67,0,0
1,59,0,0
1,59,80,60
1,67,80,0
1,62,80,0
1,62,0,60
1,67,0,0
1,59,0,0
1,67,80,60
1,59,80,0
1,62,80,0
1,62,0,60
1,59,0,0
1,67,0,0
1,59,80,60
1,67,80,0
1,62,80,0
1,62,0,60
1,67,0,0
1,59,0,0
1,59,80,60
1,67,80,0
1,62,80,0
1,62,0,60
1,67,0,0
1,59,0,0
1,59,80,60
1,67,80,0
1,62,80,0
1,62,0,60
1,67,0,0
1,59,0,0
1,67,80,60
1,59,80,0
1,62,80,0
1,62,0,60
1,43,0,0
1,67,0,0
1,59,0,0
1,36,80,60
1,55,80,0
1,64,80,0
1,60,80,0
1,60,0,60
1,64,0,0
1,55,0,0
1,55,80,60
1,60,80,0
1,64,80,0
1,64,0,60
1,60,0,0
1,55,0,0
1,55,80,60
1,64,80,0
1,60,80,0
1,60,0,60
1,64,0,0
1,55,0,0
1,64,80,60
1,55,80,0
1,60,80,0
1,60,0,60
1,55,0,0
1,64,0,0
1,55,80,60
1,64,80,0
1,60,80,0
1,60,0,60
1,64,0,0
1,55,0,0
1,55,80,60
1,64,80,0
1,60,80,0
1,60,0,60
1,64,0,0
1,55,0,0
1,55,80,60
1,64,80,0
1,60,80,0
1,60,0,60
1,64,0,0
1,55,0,0
1,55,80,60
1,60,80,0
1,64,80,0
1,64,0,60
1,36,0,0
1,55,0,0
1,60,0,0
1,36,80,60
1,64,80,0
1,60,80,0
1,55,80,0
1,55,0,60
1,60,0,0
1,64,0,0
1,55,80,60
1,60,80,0
1,64,80,0
1,64,0,60
1,60,0,0
1,55,0,0
1,55,80,60
1,64,80,0
1,60,80,0
1,60,0,60
1,64,0,0
1,55,0,0
1,55,80,60
1,64,80,0
1,60,80,0
1,60,0,60
1,64,0,0
1,55,0,0
1,55,80,60
1,64,80,0
1,60,80,0
1,60,0,60
1,64,0,0
1,55,0,0
1,55,80,60
1,64,80,0
1,60,80,0
1,60,0,60
1,64,0,0
1,55,0,0
1,55,80,60
1,64,80,0
1,60,80,0
1,60,0,60
1,64,0,0
1,55,0,0
1,60,80,60
1,55,80,0
1,64,80,0
1,64,0,60
1,55,0,0
1,60,0,0
1,36,0,60
1,41,80,0
1,57,80,0
1,65,80,0
1,60,80,0
1,60,0,60
1,65,0,0
1,57,0,0
1,65,80,60
1,57,80,0
1,60,80,0
1,60,0,60
1,57,0,0
1,65,0,0
1,65,80,60
1,57,80,0
1,60,80,0
1,60,0,60
1,57,0,0
1,65,0,0
1,65,80,60
1,57,80,0
1,60,80,0
1,60,0,60
1,57,0,0
1,65,0,0
1,65,80,60
1,57,80,0
1,60,80,0
1,60,0,60
1,57,0,0
1,65,0,0
1,65,80,60
1,57,80,0
1,60,80,0
1,60,0,60
1,57,0,0
1,65,0,0
1,57,80,60
1,65,80,0
1,60,80,0
1,60,0,60
1,65,0,0
1,57,0,0
1,57,80,60
1,65,80,0
1,60,80,0
1,60,0,60
1,41,0,0
1,57,0,0
1,65,0,0
1,43,80,60
1,67,80,0
1,59,80,0
1,62,80,0
1,62,0,60
1,59,0,0
1,67,0,0
1,59,80,60
1,67,80,0
1,62,80,0
1,62,0,60
1,67,0,0
1,59,0,0
1,59,80,60
1,67,80,0
1,62,80,0
1,62,0,60
1,67,0,0
1,59,0,0
1,67,80,60
1,59,80,0
1,62,80,0
1,62,0,60
1,59,0,0
1,67,0,0
1,59,80,60
1,67,80,0
1,62,80,0
1,62,0,60
1,67,0,0
1,59,0,0
1,59,80,60
1,67,80,0
1,62,80,0
1,62,0,60
1,67,0,0
1,59,0,0
1,59,80,60
1,67,80,0
1,62,80,0
1,62,0,60
1,67,0,0
1,59,0,0
1,67,80,60
1,59,80,0
1,62,80,0
1,62,0,60
1,43,0,0
1,67,0,0
1,59,0,0
1,36,80,60
1,55,80,0
1,64,80,0
1,60,80,0
1,60,0,60
1,64,0,0
1,55,0,0
1,55,80,60
1,60,80,0
1,64,80,0
1,64,0,60
1,60,0,0
1,55,0,0
1,55,80,60
1,64,80,0
1,60,80,0
1,60,0,60
1,64,0,0
1,55,0,0
1,64,80,60
1,55,80,0
1,60,80,0
1,60,0,60
1,55,0,0
1,64,0,0
1,55,80,60
1,64,80,0
1,60,80,0
1,60,0,60
1,64,0,0
1,55,0,0
1,55,80,60
1,64,80,0
1,60,80,0
1,60,0,60
1,64,0,0
1,55,0,0
1,55,80,60
1,64,80,0
1,60,80,0
1,60,0,60
1,64,0,0
1,55,0,0
1,55,80,60
1,60,80,0
1,64,80,0
1,64,0,60
1,36,0,0
1,55,0,0
1,60,0,0
1,69,80,60
1,65,80,0
1,60,80,0
1,60,0,60
1,65,0,0
1,69,0,0
1,60,80,60
1,64,80,0
1,67,80,0
1,67,0,180
1,64,0,0
1,60,0,0
1,60,80,120
1,69,80,0
1,65,80,0
1,65,0,60
1,69,0,0
1,60,0,0
1,60,80,60
1,67,80,0
1,64,80,0
1,64,0,300
1,60,0,0
1,67,0,60
1,60,80,0
1,60,0,60
1,60,80,0
1,69,80,0
1,65,80,0
1,69,0,60
1,60,0,0
1,60,80,0
1,60,0,60
1,65,0,0
1,60,80,0
1,64,80,0
1,67,80,0
1,67,0,60
1,64,0,0
1,60,0,0
1,60,80,0
1,60,0,60
1,60,80,0
1,62,80,0
1,65,80,0
1,65,0,60
