track,note,velocity,time
0,38,88,0
0,50,90,0
0,36,106,0
0,57,105,0
0,50,86,0
0,59,71,3
0,38,88,45
0,50,99,0
0,33,88,0
0,50,93,0
0,36,108,0
0,35,88,45
0,50,97,0
0,57,62,28
0,38,88,52
0,50,92,0
0,50,96,20
0,38,88,0
0,36,103,0
0,50,88,35
0,50,95,49
0,38,88,3
0,33,88,38
0,50,92,0
0,36,106,0
0,57,102,13
0,59,75,42
0,35,88,5
0,50,96,0
0,38,88,40
0,50,90,2
0,38,88,0
0,50,110,0
0,36,106,0
0,50,86,35
0,57,60,17
0,38,88,50
0,50,90,2
0,33,88,48
0,50,86,0
0,36,106,0
0,35,88,0
0,50,91,2
0,38,88,55
0,50,89,2
0,38,88,32
0,50,90,0
0,36,100,0
0,57,105,35
0,50,87,37
0,59,64,35
0,38,88,52
0,50,88,0
0,50,87,50
0,36,106,2
0,33,88,0
0,50,96,0
0,35,88,2
0,57,52,55
0,38,88,45
0,50,89,0
0,50,104,27
0,36,104,2
0,38,88,0
0,50,89,13
0,50,99,57
0,38,88,2
0,33,88,52
0,50,90,0
0,36,108,2
0,35,88,8
0,50,93,0
0,38,88,60
0,50,90,0
0,50,108,12
0,36,113,2
0,38,88,0
0,57,102,25
0,50,87,15
0,59,65,38
0,38,88,50
0,50,93,0
0,33,88,55
0,50,87,0
0,36,115,2
0,35,88,3
0,50,95,0
0,60,58,7
0,38,88,7
0,50,90,0
0,38,88,25
0,50,106,2
0,45,36,0
0,36,120,0
0,50,86,15
0,45,51,2
0,38,88,50
0,50,88,0
0,45,71,2
0,33,88,55
0,50,89,0
0,45,111,2
0,36,115,0
0,35,88,8
0,43,56,2
0,50,88,0
0,38,88,60
0,50,89,2
0,45,120,0
0,38,88,20
0,43,82,2
0,36,82,0
0,50,106,0
0,50,86,0
0,38,88,20
0,50,90,2
0,43,40,0
0,43,65,35
0,43,85,30
0,33,88,22
0,36,119,0
0,50,88,0
0,43,90,3
0,35,88,18
0,50,92,2
0,38,88,55
0,50,93,2
0,43,122,0
0,38,88,4
0,66,105,0
0,62,105,0
0,69,105,0
0,36,113,0
0,54,88,0
0,49,80,0
0,50,90,0
0,62,127,5
0,57,123,0
0,66,124,0
0,50,86,20
0,54,59,0
0,42,88,0
0,38,88,37
0,54,68,0
0,42,82,0
0,50,99,0
0,33,88,37
0,66,104,0
0,69,104,0
0,74,104,0
0,50,93,0
0,36,127,0
0,38,127,0
0,54,56,0
0,39,110,0
0,42,105,0
0,50,97,13
0,54,65,2
0,42,78,0
0,35,88,0
0,38,88,48
0,50,92,0
0,54,54,2
0,42,74,0
0,50,90,22
0,36,124,2
0,54,64,0
0,42,82,0
0,38,88,0
0,50,88,48
0,54,48,2
0,42,69,0
0,50,95,49
0,38,88,3
0,54,59,2
0,42,80,0
0,50,92,23
0,36,124,2
0,38,127,0
0,54,48,0
0,39,110,0
0,42,117,0
0,33,88,0
0,69,104,5
0,66,104,0
0,74,104,0
0,50,96,8
0,35,88,0
0,54,59,0
0,42,73,0
0,67,105,35
0,64,105,0
0,72,105,0
0,38,88,3
0,54,48,0
0,42,81,0
0,50,90,0
0,64,127,0
0,60,115,0
0,67,121,0
0,38,88,15
0,50,110,0
0,36,127,0
0,54,88,0
0,42,78,0
0,54,59,35
0,42,73,0
0,50,86,0
0,67,105,40
0,71,105,0
0,62,105,2
0,38,88,3
0,59,123,0
0,62,127,0
0,67,123,0
0,50,90,2
0,54,68,0
0,42,73,0
0,33,88,50
0,36,127,0
0,38,127,0
0,54,56,0
0,39,110,0
0,42,120,0
0,50,86,0
0,69,104,5
0,74,104,0
0,66,104,0
0,35,88,12
0,50,91,0
0,54,65,0
0,42,77,0
0,38,88,48
0,54,54,2
0,42,77,0
0,50,89,0
0,38,88,15
0,50,90,0
0,36,127,0
0,54,64,0
0,42,86,0
0,54,48,27
0,42,80,0
0,50,87,0
0,38,88,52
0,50,88,0
0,54,59,0
0,42,86,0
0,69,104,40
0,74,104,0
0,66,104,0
0,50,87,0
0,36,127,2
0,38,127,0
0,54,48,0
0,39,110,0
0,42,114,0
0,33,88,0
0,50,96,8
0,54,59,2
0,42,81,0
0,35,88,0
0,50,89,35
0,54,48,2
0,42,75,0
0,38,88,0
0,50,104,13
0,36,127,2
0,54,88,0
0,42,86,0
0,57,123,0
0,62,127,0
0,66,126,0
0,38,88,0
0,69,105,10
0,66,105,0
0,62,105,0
0,50,89,45
0,54,59,2
0,42,78,0
0,50,99,48
0,54,68,2
0,42,82,0
0,38,88,0
0,50,90,43
0,38,127,2
0,36,117,0
0,54,56,0
0,39,110,0
0,42,109,0
0,33,88,0
0,69,104,5
0,66,104,0
0,74,104,0
0,50,93,25
0,54,65,2
0,42,82,0
0,35,88,0
0,50,90,43
0,54,54,2
0,42,77,0
0,38,88,0
0,50,108,23
0,36,127,2
0,54,64,0
0,42,83,0
0,38,88,0
0,50,87,37
0,54,48,5
0,42,73,0
0,50,93,3
0,54,59,0
0,42,82,0
0,38,88,0
0,50,87,45
0,38,127,2
0,36,127,0
0,54,48,0
0,39,110,0
0,42,112,0
0,33,88,0
0,69,104,0
0,66,104,3
0,74,104,7
0,50,95,8
0,54,59,2
0,42,83,0
0,35,88,0
0,38,88,3
0,50,90,0
0,62,116,0
0,65,121,0
0,70,126,0
0,54,48,0
0,42,78,0
0,70,105,0
0,65,105,0
0,74,105,0
0,38,88,0
0,36,127,0
0,54,88,0
0,42,83,0
0,50,106,0
0,50,86,33
0,54,59,2
0,42,74,0
0,50,88,3
0,60,111,0
0,65,127,0
0,69,121,0
0,54,68,0
0,42,84,0
0,38,88,0
0,69,105,0
0,65,105,0
0,72,105,0
0,50,89,50
0,36,127,2
0,38,127,0
0,54,56,0
0,39,110,0
0,42,112,0
0,69,104,0
0,74,104,0
0,66,104,0
0,54,65,27
0,42,87,0
0,50,88,0
0,72,105,35
0,67,105,0
0,64,105,0
0,38,88,3
0,50,89,0
0,54,54,0
0,42,78,0
0,64,126,0
0,67,126,0
0,60,116,0
0,36,127,40
0,54,64,0
0,42,83,0
0,50,106,0
0,50,86,27
0,54,48,0
0,42,75,0
0,71,105,38
0,67,105,2
0,62,105,0
0,38,88,0
0,54,59,5
0,42,81,0
0,50,90,0
0,62,127,0
0,59,123,0
0,67,119,0
0,33,88,40
0,50,88,2
0,38,127,0
0,36,127,0
0,54,48,0
0,39,110,0
0,42,107,0
0,69,104,8
0,74,104,0
0,66,104,0
0,35,88,5
0,54,59,2
0,42,86,0
0,50,92,0
0,38,88,22
0,71,105,3
0,62,105,0
0,67,105,0
0,62,123,0
0,59,110,2
0,67,114,0
0,50,93,0
0,54,48,0
0,42,82,0
0,69,105,30
0,66,105,0
0,38,88,5
0,36,127,0
0,54,88,0
0,42,84,0
0,50,90,0
0,62,119,0
0,57,119,0
0,66,126,0
0,50,86,0
0,54,59,0
0,42,73,0
0,38,88,47
0,54,68,0
0,42,81,0
0,50,99,0
0,33,88,42
0,69,104,0
0,50,93,0
0,36,127,0
0,38,127,0
0,54,56,0
0,39,110,0
0,42,114,0
0,74,104,0
0,66,104,0
0,50,97,20
0,54,65,2
0,42,80,0
0,35,88,0
0,38,88,33
0,50,92,0
0,54,54,0
0,42,81,0
0,50,90,23
0,36,127,2
0,54,64,0
0,42,84,0
0,38,88,0
0,50,88,30
0,54,48,2
0,42,73,0
0,50,95,47
0,38,88,3
0,54,59,2
0,42,82,0
0,33,88,23
0,50,92,0
0,38,123,2
0,36,124,0
0,54,48,0
0,39,110,0
0,42,107,0
0,69,104,5
0,74,104,0
0,66,104,0
0,50,96,3
0,54,59,2
0,42,84,0
0,35,88,0
0,67,105,33
0,64,105,0
0,72,105,0
0,38,88,3
0,54,48,0
0,42,70,0
0,50,90,0
0,60,115,0
0,64,127,0
0,67,126,0
0,38,88,10
0,50,110,0
0,36,124,0
0,54,88,0
0,42,80,0
0,54,59,35
0,42,72,0
0,50,86,0
0,71,105,47
0,67,105,0
0,62,105,0
0,67,119,3
0,62,127,0
0,59,125,0
0,50,90,2
0,54,68,0
0,42,83,0
0,38,88,0
0,33,88,45
0,36,124,0
0,38,123,0
0,54,56,0
0,39,110,0
0,42,109,0
0,50,86,0
0,69,104,5
0,74,104,0
0,66,104,0
0,35,88,5
0,50,91,0
0,54,65,0
0,42,75,0
0,38,88,50
0,54,54,0
0,42,75,0
0,50,89,0
0,38,88,30
0,50,90,0
0,36,120,0
0,54,64,0
0,42,77,0
0,54,48,42
0,42,66,0
0,50,87,0
0,38,88,50
0,50,88,2
0,54,59,0
0,42,78,0
0,50,87,43
0,38,127,2
0,36,127,0
0,54,48,0
0,39,110,0
0,42,109,0
0,33,88,0
0,74,104,3
0,69,104,0
0,66,104,2
0,69,104,5
0,66,104,5
0,50,96,5
0,54,59,2
0,42,83,0
0,35,88,0
0,38,88,5
0,50,89,0
0,54,48,2
0,42,73,0
0,38,88,30
0,50,104,0
0,36,127,2
0,54,88,0
0,42,81,0
0,62,126,0
0,57,123,0
0,66,126,0
0,69,105,10
0,62,105,0
0,66,105,0
0,50,89,45
0,54,59,2
0,42,71,0
0,38,88,57
0,50,99,0
0,54,68,2
0,42,73,0
0,69,104,52
0,74,104,0
0,66,104,0
0,50,90,0
0,36,115,2
0,38,127,0
0,54,56,0
0,39,110,0
0,42,114,0
0,33,88,0
0,35,88,0
0,50,93,0
0,54,65,2
0,42,71,0
0,38,88,50
0,50,90,0
0,54,54,2
0,42,76,0
0,38,88,32
0,50,108,0
0,36,117,2
0,54,64,0
0,42,76,0
0,50,87,40
0,54,48,2
0,42,73,0
0,50,93,3
0,54,59,0
0,42,77,0
0,38,88,0
0,50,87,40
0,36,117,2
0,38,127,0
0,54,48,0
0,39,110,0
0,42,109,0
0,33,88,0
0,69,104,0
0,74,104,0
0,66,104,0
0,35,88,25
0,50,95,0
0,54,59,2
0,42,83,0
0,74,105,35
0,65,105,3
0,70,105,0
0,38,88,0
0,50,90,0
0,62,125,0
0,65,123,0
0,70,127,0
0,54,48,0
0,42,75,0
0,38,88,4
0,36,111,0
0,54,88,0
0,46,62,0
0,50,106,0
0,50,86,40
0,54,59,2
0,46,63,0
0,69,105,45
0,72,105,0
0,65,105,0
0,50,88,3
0,60,111,0
0,65,123,0
0,69,119,0
0,54,68,0
0,46,67,0
0,38,88,0
0,50,89,55
0,38,127,2
0,36,117,0
0,54,56,0
0,39,110,0
0,46,89,0
0,69,104,0
0,66,104,0
0,74,104,0
0,54,65,20
0,46,84,0
0,50,88,0
0,67,105,55
0,72,105,0
0,64,105,0
0,64,123,3
0,60,114,0
0,67,127,0
0,50,89,0
0,54,54,0
0,46,83,0
0,38,88,0
0,36,115,47
0,54,64,0
0,46,97,0
0,50,106,0
0,50,86,32
0,38,77,0
0,54,48,0
0,71,105,38
0,62,105,2
0,67,105,0
0,62,127,3
0,59,118,0
0,67,118,0
0,38,92,2
0,54,59,0
0,50,90,0
0,38,88,0
0,33,88,7
0,50,88,0
0,38,120,0
0,36,127,0
0,54,48,0
0,39,110,0
0,69,104,0
0,66,104,0
0,74,104,3
0,74,104,7
0,66,104,5
0,69,104,0
0,35,88,5
0,38,110,0
0,54,59,0
0,50,92,0
0,67,105,50
0,71,105,2
0,62,105,0
0,38,88,3
0,62,127,0
0,67,121,0
0,59,123,0
0,50,93,2
0,38,127,0
0,54,48,0
0,38,88,14
0,36,113,0
0,54,88,0
0,49,80,0
0,57,119,20
0,62,127,3
0,66,118,0
0,38,119,2
0,66,105,0
0,69,105,0
0,62,105,0
0,54,59,20
0,42,88,0
0,54,68,37
0,42,82,0
0,38,88,32
0,36,127,5
0,38,127,0
0,54,56,0
0,39,110,0
0,42,105,0
0,54,65,15
0,42,78,0
0,54,54,50
0,42,74,0
0,40,88,47
0,36,124,5
0,54,64,0
0,42,82,0
0,54,48,0
0,42,69,0
0,54,59,0
0,42,80,0
0,38,104,0
0,42,88,0
0,66,122,0
0,57,116,0
0,62,127,0
0,36,124,0
0,38,127,0
0,54,48,0
0,39,110,0
0,42,117,0
0,54,59,0
0,42,73,0
0,54,48,0
0,42,81,0
0,55,119,0
0,59,121,0
0,62,119,0
0,43,125,3
0,62,115,3
0,43,88,5
0,36,127,10
0,54,88,0
0,42,78,0
0,62,115,35
0,54,59,40
0,42,73,0
0,54,68,47
0,42,73,0
0,61,115,10
0,43,88,60
0,36,127,5
0,38,127,0
0,54,56,0
0,39,110,0
0,42,120,0
0,61,115,23
0,54,65,12
0,42,77,0
0,54,54,50
0,42,77,0
0,59,115,25
0,45,88,19
0,36,127,0
0,54,64,0
0,42,86,0
0,59,114,0
0,62,114,0
0,55,116,0
0,45,121,5
0,59,115,35
0,54,48,27
0,42,80,0
0,57,115,8
0,54,59,2
0,42,86,0
0,45,88,35
0,36,127,5
0,38,127,0
0,54,48,0
0,39,110,0
0,42,114,0
0,55,107,3
0,59,121,0
0,62,127,0
0,57,115,32
0,54,59,10
0,42,81,0
0,55,115,0
0,57,112,15
0,62,112,0
0,54,113,0
0,54,48,5
0,42,75,0
0,38,121,3
0,57,115,22
0,38,88,10
0,36,127,10
0,54,88,0
0,42,86,0
0,54,59,57
0,42,78,0
0,52,115,8
0,54,115,5
0,54,68,4
0,42,82,0
0,38,88,45
0,38,127,0
0,36,117,0
0,54,56,0
0,39,110,0
0,42,109,0
0,54,65,27
0,42,82,0
0,54,54,45
0,42,77,0
0,36,127,32
0,54,64,0
0,42,83,0
0,40,88,3
0,54,48,40
0,42,73,0
0,38,115,52
0,54,59,10
0,42,82,0
0,42,88,40
0,57,116,2
0,54,113,0
0,62,116,0
0,38,127,5
0,36,127,0
0,54,48,0
0,39,110,0
0,42,112,0
0,54,59,27
0,42,83,0
0,43,115,23
0,62,111,2
0,59,118,3
0,55,119,0
0,54,48,2
0,42,78,0
0,62,115,20
0,43,88,35
0,36,127,0
0,54,88,0
0,42,83,0
0,62,115,5
0,38,88,23
0,54,59,12
0,42,74,0
0,35,88,20
0,61,115,33
0,54,68,2
0,42,84,0
0,31,88,27
0,61,115,20
0,36,127,5
0,38,127,0
0,54,56,0
0,39,110,0
0,42,112,0
0,54,65,27
0,42,87,0
0,54,54,42
0,42,78,0
0,59,115,10
0,45,88,19
0,36,127,10
0,54,64,0
0,42,83,0
0,59,114,0
0,55,118,5
0,62,107,0
0,45,116,0
0,59,115,30
0,40,88,2
0,54,48,25
0,42,75,0
0,37,88,25
0,57,115,18
0,54,59,12
0,42,81,0
0,33,88,25
0,57,115,25
0,38,127,0
0,36,127,0
0,54,48,0
0,39,110,0
0,42,107,0
0,59,114,0
0,62,108,3
0,55,118,0
0,55,115,5
0,54,59,2
0,42,86,0
0,57,115,2
0,54,48,2
0,42,82,0
0,38,88,5
0,62,114,0
0,57,116,0
0,54,117,0
0,36,127,0
0,54,88,0
0,42,84,0
0,38,119,15
0,54,59,0
0,42,73,0
0,52,115,20
0,54,115,25
0,54,68,22
0,42,81,0
0,38,88,37
0,36,127,5
0,38,127,0
0,54,56,0
0,39,110,0
0,42,114,0
0,54,65,22
0,42,80,0
0,54,54,35
0,42,81,0
0,40,88,20
0,36,127,5
0,54,64,0
0,42,84,0
0,54,48,32
0,42,73,0
0,54,59,52
0,42,82,0
0,38,110,3
0,42,88,47
0,57,115,3
0,62,114,2
0,54,117,0
0,38,123,0
0,36,124,0
0,54,48,0
0,39,110,0
0,42,107,0
0,54,59,5
0,42,84,0
0,43,126,9
0,62,110,3
0,59,121,0
0,55,127,2
0,54,48,0
0,42,70,0
0,62,115,23
0,43,88,5
0,36,124,10
0,54,88,0
0,42,80,0
0,62,115,15
0,54,59,40
0,42,72,0
0,54,68,57
0,42,83,0
0,62,115,5
0,43,88,32
0,36,124,5
0,38,123,0
0,54,56,0
0,39,110,0
0,42,109,0
0,62,115,15
0,54,65,5
0,42,75,0
0,54,54,50
0,42,75,0
0,62,115,18
0,45,88,32
0,45,116,0
0,59,111,0
