track,note,velocity,time
1,71,100,12096
1,73,100,4
1,74,100,4
1,74,100,4
1,74,100,4
1,78,100,4
1,69,100,2308
1,71,100,4
1,73,100,4
1,73,100,4
1,73,100,4
1,76,100,4
1,76,100,4
1,71,100,2308
1,73,100,4
1,74,100,4
1,74,100,4
1,74,100,4
1,78,100,4
1,81,100,1732
1,80,100,4
1,76,100,4
1,76,100,4
1,78,100,4
1,78,100,4
1,78,100,4
1,80,100,4
1,78,100,4
1,76,100,4
1,71,100,4
1,73,100,4
1,74,100,4
1,74,100,4
1,74,100,4
1,78,100,4
1,69,100,2308
1,71,100,4
1,73,100,4
1,73,100,4
1,73,100,4
1,76,100,4
1,76,100,4
1,76,100,1732
1,78,100,4
1,79,100,4
1,79,100,4
1,79,100,4
1,79,100,4
1,78,100,4
1,76,100,4
1,73,100,4
1,76,100,4
1,74,100,4
1,74,100,4
1,73,100,4
1,74,100,196
1,74,100,4
1,73,100,4
1,71,100,580
1,73,100,4
1,74,100,4
1,74,100,4
1,74,100,4
1,78,100,4
1,69,100,2308
1,71,100,4
1,73,100,4
1,73,100,4
1,73,100,4
1,76,100,4
1,76,100,4
1,71,100,2308
1,73,100,4
1,74,100,4
1,74,100,4
1,74,100,4
1,78,100,4
1,81,100,1732
1,80,100,4
1,76,100,4
1,76,100,4
1,78,100,4
1,78,100,4
1,78,100,4
1,80,100,4
1,78,100,4
1,76,100,4
1,71,100,4
1,73,100,4
1,74,100,4
1,74,100,4
1,74,100,4
1,78,100,4
1,69,100,2308
1,71,100,4
1,73,100,4
1,73,100,4
1,73,100,4
1,76,100,4
1,76,100,4
1,76,100,1732
1,78,100,4
1,79,100,4
1,79,100,4
1,79,100,4
1,79,100,4
1,78,100,4
1,76,100,4
1,73,100,4
1,76,100,4
1,74,100,4
1,74,100,4
1,73,100,4
1,74,100,964
1,74,100,4
1,73,100,4
1,74,100,4
1,74,100,4
1,74,100,4
1,78,100,4
1,69,100,2308
1,71,100,4
1,73,100,4
1,73,100,4
1,73,100,4
1,76,100,4
1,76,100,4
1,71,100,2308
1,73,100,4
1,74,100,4
1,74,100,4
1,74,100,4
1,78,100,4
1,78,100,4
1,81,100,1540
1,80,100,4
1,76,100,4
1,76,100,4
1,76,100,4
1,76,100,4
1,78,100,4
1,78,100,4
1,78,100,4
1,80,100,4
1,78,100,4
1,76,100,4
1,71,100,4
1,73,100,4
1,74,100,4
1,74,100,4
1,74,100,4
1,78,100,4
1,69,100,2308
1,71,100,4
1,73,100,4
1,73,100,4
1,73,100,4
1,76,100,4
1,76,100,4
1,76,100,1732
1,78,100,4
1,79,100,4
1,79,100,4
1,79,100,4
1,79,100,4
1,78,100,4
1,76,100,4
1,73,100,4
1,76,100,4
1,74,100,4
1,74,100,4
1,73,100,4
1,74,100,964
1,74,100,4
1,73,100,4
1,81,100,772
1,80,100,4
1,80,100,4
1,80,100,4
1,80,100,4
1,78,100,4
1,76,100,4
1,78,100,772
1,80,100,4
1,81,100,4
1,81,100,4
1,80,100,868
1,80,100,4
1,78,100,4
1,76,100,4
1,76,100,772
1,78,100,4
1,79,100,4
1,79,100,4
1,78,100,772
1,78,100,4
1,78,100,4
1,76,100,4
1,74,100,4
1,74,100,964
1,76,100,4
1,77,100,4
1,77,100,4
1,77,100,4
1,81,100,4
1,81,100,772
1,81,100,4
1,81,100,4
1,80,100,4
1,80,100,4
1,80,100,4
1,81,100,8
1,78,100,0
1,83,100,4
1,80,100,0
1,85,100,4
1,81,100,0
1,83,100,4
1,80,100,0
1,83,100,4
1,80,100,0
1,81,100,4
1,78,100,0
1,80,100,4
1,76,100,0
1,78,100,772
1,81,100,0
1,80,100,4
1,83,100,0
1,85,100,4
1,81,100,0
1,85,100,4
1,81,100,0
1,85,100,4
1,81,100,0
1,86,100,4
1,83,100,0
1,83,100,196
1,80,100,0
1,83,100,4
1,80,100,0
1,83,100,4
1,80,100,0
1,78,100,4
1,81,100,0
1,76,100,4
1,80,100,0
1,76,100,772
1,78,100,4
1,79,100,4
1,81,100,4
1,79,100,4
1,78,100,4
1,78,100,4
1,78,100,4
1,78,100,4
1,74,100,4
1,74,100,868
1,74,100,4
1,74,100,4
1,77,100,4
1,77,100,4
1,77,100,4
1,81,100,4
1,81,100,584
1,81,100,4
1,81,100,4
1,80,100,4
1,80,100,4
1,80,100,4
1,80,100,8
1,71,100,14596
1,73,100,4
1,74,100,4
1,74,100,4
1,74,100,4
1,78,100,4
1,69,100,2308
1,71,100,4
1,73,100,4
1,73,100,4
1,73,100,4
1,76,100,4
1,76,100,4
1,71,100,2308
1,73,100,4
1,74,100,4
1,74,100,4
1,74,100,4
1,78,100,4
1,81,100,1732
1,80,100,4
1,76,100,4
1,76,100,4
1,78,100,4
1,78,100,4
1,78,100,4
1,80,100,4
1,78,100,4
1,76,100,4
1,71,100,4
1,73,100,4
1,74,100,4
1,74,100,4
1,74,100,4
1,78,100,4
1,69,100,2308
1,71,100,4
1,73,100,4
1,73,100,4
1,73,100,4
1,76,100,4
1,76,100,4
1,76,100,1732
1,78,100,4
1,79,100,4
1,79,100,4
1,79,100,4
1,79,100,4
1,78,100,4
1,76,100,4
1,73,100,4
1,76,100,4
1,74,100,4
1,74,100,4
1,73,100,4
1,74,100,964
1,74,100,4
1,73,100,4
1,81,100,772
1,80,100,4
1,80,100,4
1,80,100,4
1,80,100,4
1,78,100,4
1,76,100,4
1,78,100,772
1,80,100,4
1,81,100,4
1,81,100,4
1,80,100,868
1,80,100,4
1,78,100,4
1,76,100,4
1,76,100,772
1,78,100,4
1,79,100,4
1,79,100,4
1,78,100,772
1,78,100,4
1,78,100,4
1,76,100,4
1,74,100,4
1,74,100,964
1,76,100,4
1,77,100,4
1,77,100,4
1,77,100,4
1,81,100,4
1,81,100,772
1,81,100,4
1,81,100,4
1,80,100,4
1,80,100,4
1,80,100,4
1,81,100,8
1,78,100,0
1,83,100,4
1,80,100,0
1,85,100,4
1,81,100,0
1,83,100,4
1,80,100,0
1,83,100,4
1,80,100,0
1,81,100,4
1,78,100,0
1,80,100,4
1,76,100,0
1,78,100,772
1,81,100,0
1,80,100,4
1,83,100,0
1,85,100,4
1,81,100,0
1,85,100,4
1,81,100,0
1,85,100,4
1,81,100,0
1,86,100,4
1,83,100,0
1,83,100,196
1,80,100,0
1,83,100,4
1,80,100,0
1,83,100,4
1,80,100,0
1,78,100,4
1,81,100,0
1,76,100,4
1,80,100,0
1,76,100,772
1,78,100,4
1,79,100,4
1,81,100,4
1,79,100,4
1,78,100,4
1,78,100,4
1,78,100,4
1,78,100,4
1,74,100,4
1,74,100,868
1,74,100,4
1,74,100,4
1,77,100,4
1,77,100,4
1,77,100,4
1,81,100,4
1,81,100,584
1,81,100,4
1,81,100,4
1,80,100,4
1,80,100,4
1,80,100,0
1,80,100,96
1,80,100,4
1,81,100,388
1,83,100,4
1,84,100,4
1,83,100,8
1,84,100,4
1,83,100,4
1,81,100,12
1,81,100,388
1,83,100,4
1,84,100,4
1,84,100,4
1,84,100,4
1,84,100,4
1,83,100,4
1,81,100,4
1,83,100,4
1,81,100,12
1,81,100,388
1,83,100,4
1,84,100,4
1,83,100,4
1,86,100,4
1,84,100,4
1,83,100,4
1,81,100,8
1,81,100,388
1,83,100,4
1,80,100,4
1,81,100,12
1,79,100,4
1,79,100,4
1,71,100,5952
1,73,100,4
1,74,100,4
1,74,100,4
1,74,100,4
1,78,100,4
1,71,100,5380
1,73,100,4
1,74,100,4
1,74,100,4
1,74,100,4
1,78,100,4
1,71,100,2308
1,73,100,4
1,74,100,4
1,74,100,4
1,74,100,4
1,78,100,4
1,71,100,2308
1,73,100,4
1,74,100,4
1,74,100,4
1,74,100,4
1,78,100,4
1,71,100,2308
1,73,100,4
1,74,100,4
1,74,100,4
1,74,100,4
1,78,100,4
1,71,100,2308
1,73,100,4
1,74,100,4
1,74,100,4
1,74,100,4
1,78,100,4
1,71,100,2308
1,73,100,4
1,74,100,4
1,74,100,4
1,74,100,4
1,78,100,4
1,71,78,2308
1,73,76,4
1,74,75,4
1,74,73,4
1,74,71,4
1,78,70,4
1,71,26,2308
1,73,25,4
1,74,23,4
1,74,22,4
1,74,20,4
1,78,18,4
2,57,100,288
2,61,100,0
2,66,100,0
2,62,100,0
2,69,100,196
2,73,100,0
2,74,100,0
2,78,100,0
2,57,100,292
2,61,100,0
2,62,100,0
2,66,100,0
2,57,100,292
2,61,100,0
2,66,100,0
2,62,100,0
2,69,100,196
2,73,100,0
2,74,100,0
2,78,100,0
2,57,100,292
2,61,100,0
2,62,100,0
2,66,100,0
2,57,100,292
2,61,100,0
2,66,100,0
2,62,100,0
2,69,100,196
2,73,100,0
2,74,100,0
2,78,100,0
2,57,100,292
2,61,100,0
2,62,100,0
2,66,100,0
2,57,100,292
2,61,100,0
2,66,100,0
2,62,100,0
2,69,100,196
2,73,100,0
2,74,100,0
2,78,100,0
2,57,100,292
2,61,100,0
2,62,100,0
2,66,100,0
2,57,100,292
2,61,100,0
2,66,100,0
2,62,100,0
2,69,100,196
2,73,100,0
2,74,100,0
2,78,100,0
2,57,100,292
2,61,100,0
2,62,100,0
2,66,100,0
2,57,100,292
2,61,100,0
2,66,100,0
2,62,100,0
2,69,100,196
2,73,100,0
2,74,100,0
2,78,100,0
2,57,100,292
2,61,100,0
2,62,100,0
2,66,100,0
2,57,100,292
2,61,100,0
2,66,100,0
2,62,100,0
2,69,100,196
2,73,100,0
2,74,100,0
2,78,100,0
2,57,100,292
2,61,100,0
2,62,100,0
2,66,100,0
2,57,100,292
2,61,100,0
2,66,100,0
2,62,100,0
2,69,100,196
2,73,100,0
2,74,100,0
2,78,100,0
2,57,100,292
2,61,100,0
2,62,100,0
2,66,100,0
2,86,100,4
2,78,100,0
2,85,100,4
2,76,100,0
2,86,100,4
2,78,100,0
2,57,100,0
2,61,100,0
2,66,100,0
2,62,100,0
2,83,100,4
2,74,100,0
2,86,100,4
2,78,100,0
2,69,100,0
2,73,100,0
2,74,100,0
2,78,100,0
2,85,100,4
2,76,100,0
2,86,100,8
2,78,100,0
2,83,100,4
2,74,100,0
2,57,100,0
2,61,100,0
2,62,100,0
2,66,100,0
2,86,100,4
2,78,100,0
2,85,100,4
2,76,100,0
2,86,100,4
2,78,100,0
2,57,100,0
2,61,100,0
2,66,100,0
2,62,100,0
2,83,100,4
2,74,100,0
2,86,100,4
2,78,100,0
2,69,100,0
2,73,100,0
2,74,100,0
2,78,100,0
2,85,100,4
2,76,100,0
2,86,100,8
2,78,100,0
2,83,100,4
2,74,100,0
2,57,100,0
2,61,100,0
2,62,100,0
2,66,100,0
2,85,100,4
2,76,100,0
2,74,100,4
2,83,100,0
2,76,100,4
2,85,100,0
2,56,100,0
2,59,100,0
2,61,100,0
2,64,100,0
2,74,100,4
2,81,100,0
2,85,100,4
2,76,100,0
2,68,100,0
2,71,100,0
2,73,100,0
2,76,100,0
2,83,100,4
2,74,100,0
2,76,100,4
2,85,100,0
2,73,100,4
2,81,100,0
2,56,100,0
2,59,100,0
2,61,100,0
2,64,100,0
2,85,100,4
2,76,100,0
2,74,100,4
2,83,100,0
2,76,100,4
2,85,100,0
2,56,100,0
2,59,100,0
2,61,100,0
2,64,100,0
2,74,100,4
2,81,100,0
2,85,100,4
2,76,100,0
2,68,100,0
2,71,100,0
2,73,100,0
2,76,100,0
2,83,100,4
2,74,100,0
2,76,100,4
2,85,100,0
2,73,100,4
2,81,100,0
2,56,100,0
2,59,100,0
2,61,100,0
2,64,100,0
2,57,100,292
2,61,100,0
2,66,100,0
2,62,100,0
2,78,100,196
2,69,100,0
2,73,100,0
2,74,100,0
2,78,100,0
2,57,100,292
2,61,100,0
2,62,100,0
2,66,100,0
2,57,100,292
2,61,100,0
2,66,100,0
2,62,100,0
2,78,100,196
2,69,100,0
2,73,100,0
2,74,100,0
2,78,100,0
2,57,100,292
2,61,100,0
2,62,100,0
2,66,100,0
2,56,100,292
2,59,100,0
2,61,100,0
2,64,100,0
2,76,100,196
2,68,100,0
2,71,100,0
2,73,100,0
2,76,100,0
2,56,100,292
2,59,100,0
2,64,100,0
2,55,100,4
2,58,100,0
2,63,100,0
2,57,100,292
2,61,100,0
2,66,100,0
2,62,100,0
2,78,100,196
2,69,100,0
2,73,100,0
2,74,100,0
2,78,100,0
2,57,100,292
2,61,100,0
2,62,100,0
2,66,100,0
2,57,100,292
2,61,100,0
2,66,100,0
2,62,100,0
2,78,100,196
2,69,100,0
2,73,100,0
2,74,100,0
2,78,100,0
2,57,100,292
2,61,100,0
2,62,100,0
2,66,100,0
2,56,100,292
2,59,100,0
2,61,100,0
2,64,100,0
2,76,100,196
2,68,100,0
2,71,100,0
2,73,100,0
2,76,100,0
2,56,100,292
2,59,100,0
2,61,100,0
2,64,100,0
2,56,100,292
2,59,100,0
2,61,100,0
2,64,100,0
2,76,100,196
2,68,100,0
2,71,100,0
2,73,100,0
2,76,100,0
2,56,100,292
2,59,100,0
2,61,100,0
2,64,100,0
2,59,100,4
2,62,100,0
2,67,100,0
2,58,100,4
2,61,100,0
2,66,100,0
2,59,100,4
2,62,100,0
2,59,100,4
2,62,100,0
2,57,100,4
2,61,100,0
2,86,100,1540
2,78,100,0
2,85,100,4
2,76,100,0
2,86,100,4
2,78,100,0
2,57,100,0
2,61,100,0
2,66,100,0
2,62,100,0
2,83,100,4
2,74,100,0
2,86,100,4
2,78,100,0
2,69,100,0
2,73,100,0
2,74,100,0
2,78,100,0
2,85,100,4
2,76,100,0
2,86,100,8
2,78,100,0
2,83,100,4
2,74,100,0
2,57,100,0
2,61,100,0
2,62,100,0
2,66,100,0
2,86,100,4
2,78,100,0
2,85,100,4
2,76,100,0
2,86,100,4
2,78,100,0
2,57,100,0
2,61,100,0
2,66,100,0
2,62,100,0
2,83,100,4
2,74,100,0
2,86,100,4
2,78,100,0
2,69,100,0
2,73,100,0
2,74,100,0
2,78,100,0
2,85,100,4
2,76,100,0
2,86,100,8
2,78,100,0
2,83,100,4
2,74,100,0
2,57,100,0
2,61,100,0
2,62,100,0
2,66,100,0
2,85,100,4
2,76,100,0
2,74,100,4
2,83,100,0
2,76,100,4
2,85,100,0
2,56,100,0
2,59,100,0
2,61,100,0
2,64,100,0
2,74,100,4
2,81,100,0
2,85,100,4
2,76,100,0
2,68,100,0
2,71,100,0
2,73,100,0
2,76,100,0
2,83,100,4
2,74,100,0
2,76,100,4
2,85,100,0
2,73,100,4
2,81,100,0
2,56,100,0
2,59,100,0
2,61,100,0
2,64,100,0
2,85,100,4
2,76,100,0
2,74,100,4
2,83,100,0
2,76,100,4
2,85,100,0
2,56,100,0
2,59,100,0
2,61,100,0
2,64,100,0
2,74,100,4
2,81,100,0
2,85,100,4
2,76,100,0
2,68,100,0
2,71,100,0
2,73,100,0
2,76,100,0
2,83,100,4
2,74,100,0
2,76,100,4
2,85,100,0
2,73,100,4
2,81,100,0
2,56,100,0
2,59,100,0
2,61,100,0
2,64,100,0
2,57,100,292
2,61,100,0
2,66,100,0
2,62,100,0
2,78,100,196
2,69,100,0
2,73,100,0
2,74,100,0
2,78,100,0
2,57,100,292
2,61,100,0
2,62,100,0
2,66,100,0
2,57,100,292
2,61,100,0
2,66,100,0
2,62,100,0
2,78,100,196
2,69,100,0
2,73,100,0
2,74,100,0
2,78,100,0
2,57,100,292
2,61,100,0
2,62,100,0
2,66,100,0
2,56,100,292
2,59,100,0
2,61,100,0
2,64,100,0
2,76,100,196
2,68,100,0
2,71,100,0
2,73,100,0
2,76,100,0
2,56,100,292
2,59,100,0
2,64,100,0
2,55,100,4
2,58,100,0
2,63,100,0
2,57,100,292
2,61,100,0
2,66,100,0
2,62,100,0
2,78,100,196
2,69,100,0
2,73,100,0
2,74,100,0
2,78,100,0
2,57,100,292
2,61,100,0
2,62,100,0
2,66,100,0
2,57,100,292
2,61,100,0
2,66,100,0
2,62,100,0
2,78,100,196
2,69,100,0
2,73,100,0
2,74,100,0
2,78,100,0
2,57,100,292
