track,note,velocity,time
1,39,80,2304
1,39,80,164
1,32,80,96
1,29,80,44
1,39,80,100
1,39,80,108
1,36,80,132
1,36,80,104
1,29,80,80
1,36,80,4
1,32,80,72
1,29,80,28
1,34,80,108
1,35,80,112
1,34,80,80
1,34,80,164
1,36,80,128
1,38,80,112
1,39,80,116
1,39,80,88
1,32,80,112
1,39,80,60
1,32,80,84
1,39,80,48
1,36,80,52
1,32,80,384
1,32,80,144
1,32,80,112
1,39,80,12
1,34,80,12
1,39,80,64
1,46,80,20
1,43,80,12
1,39,80,4
1,34,80,24
1,34,80,128
1,41,80,0
1,41,80,116
1,34,80,84
1,41,80,12
1,38,80,384
1,34,80,380
1,29,80,4
1,29,80,152
1,34,80,16
1,34,80,80
1,39,80,148
1,38,80,0
1,36,80,12
1,34,80,384
1,39,80,128
1,39,80,100
1,32,80,128
1,39,80,72
1,32,80,168
1,39,80,0
1,36,80,4
1,32,80,384
1,32,80,176
1,32,80,120
1,39,80,112
1,34,80,92
1,39,80,32
1,46,80,16
1,43,80,8
1,39,80,384
1,34,80,4
1,34,80,108
1,41,80,64
1,41,80,72
1,34,80,12
1,41,80,384
1,38,80,368
1,34,80,4
1,29,80,84
1,29,80,92
1,34,80,8
1,34,80,104
1,39,80,172
1,39,80,116
1,29,80,100
1,31,80,56
1,32,80,88
1,32,80,108
1,38,80,60
1,39,80,72
1,32,80,48
1,39,80,388
1,36,80,8
1,32,80,384
1,39,80,92
1,39,80,140
1,39,80,144
1,39,80,144
1,39,80,128
1,34,80,120
1,39,80,84
1,36,80,4
1,34,80,80
1,38,80,88
1,41,80,72
1,38,80,52
1,34,80,64
1,41,80,56
1,46,80,44
1,43,80,120
1,36,80,32
1,36,80,116
1,29,80,64
1,29,80,100
1,34,80,92
1,34,80,164
1,36,80,384
1,38,80,4
1,39,80,84
1,39,80,112
1,32,80,128
1,39,80,12
1,32,80,124
1,39,80,384
1,36,80,16
1,32,80,380
1,32,80,164
1,32,80,120
1,39,80,8
1,34,80,384
1,39,80,28
1,46,80,4
1,43,80,20
1,39,80,384
1,34,80,80
1,34,80,116
1,41,80,24
1,29,80,76
1,34,80,12
1,41,80,384
1,38,80,16
1,34,80,384
1,29,80,136
1,29,80,144
1,34,80,180
1,34,80,104
1,39,80,176
1,34,80,124
1,39,80,132
1,34,80,2660
1,36,80,0
1,35,80,4
1,34,80,12
1,34,80,108
1,39,80,124
1,40,80,24
1,39,80,28
1,39,80,92
1,32,80,132
1,32,80,96
1,37,80,108
1,32,80,76
1,37,80,100
1,37,80,108
1,32,80,68
1,29,80,80
1,37,80,196
1,37,80,92
1,32,80,124
1,39,80,384
1,32,80,8
1,39,80,384
1,36,80,20
1,32,80,380
1,39,80,116
1,39,80,112
1,34,80,84
1,34,80,104
1,39,80,220
1,34,80,84
1,31,80,384
1,39,80,8
1,34,80,64
1,34,80,176
1,39,80,76
1,39,80,104
1,32,80,76
1,31,80,32
1,29,80,40
1,39,80,72
1,32,80,100
1,32,80,112
1,37,80,144
1,32,80,28
1,37,80,132
1,37,80,120
1,32,80,56
1,29,80,120
1,37,80,180
1,37,80,116
1,32,80,112
1,39,80,44
1,32,80,80
1,39,80,0
1,36,80,384
1,32,80,364
1,39,80,20
1,39,80,132
1,34,80,172
1,34,80,124
1,39,80,84
1,34,80,64
1,31,80,44
1,39,80,120
1,34,80,136
1,34,80,0
1,34,80,104
1,39,80,124
1,39,80,92
1,32,80,124
1,41,80,12
1,39,80,4
1,36,80,388
1,32,80,0
1,32,80,80
1,38,80,68
1,39,80,16
1,32,80,16
1,39,80,384
1,36,80,92
1,32,80,64
1,39,80,144
1,39,80,116
1,39,80,116
1,39,80,104
1,39,80,116
1,34,80,156
1,39,80,52
1,39,80,60
1,34,80,116
1,38,80,96
1,41,80,92
1,38,80,56
1,34,80,92
1,41,80,84
1,46,80,4
1,43,80,20
1,36,80,8
1,36,80,112
1,29,80,48
1,29,80,112
1,34,80,80
1,34,80,148
1,36,80,384
1,38,80,8
1,39,80,16
1,39,80,68
1,32,80,64
1,39,80,72
1,32,80,28
1,39,80,384
1,36,80,348
1,32,80,0
1,32,80,92
1,32,80,160
1,39,80,44
1,34,80,384
1,39,80,364
1,46,80,372
1,43,80,376
1,39,80,372
1,34,80,28
1,34,80,112
1,41,80,8
1,29,80,384
1,34,80,24
1,41,80,4
1,38,80,388
1,34,80,372
1,29,80,172
1,29,80,104
1,34,80,384
1,34,80,68
1,39,80,36
1,39,80,88
1,37,80,384
1,38,80,8
1,39,80,384
1,34,80,28
1,39,80,4
2,1,1,0
2,63,92,2300
2,67,93,0
2,68,89,4
2,65,87,0
2,66,92,4
2,69,109,0
2,70,101,4
2,67,88,8
2,72,84,0
2,68,94,0
2,70,96,0
2,74,102,4
2,75,94,132
2,72,82,0
2,77,88,0
2,74,83,0
2,75,98,40
2,70,98,12
2,67,95,0
2,74,92,236
2,70,94,4
2,67,100,0
2,73,91,136
2,70,94,0
2,64,92,0
2,67,88,0
2,63,98,392
2,65,102,0
2,68,98,4
2,72,97,0
2,68,92,20
2,72,93,0
2,65,100,4
2,75,92,16
2,73,65,0
2,68,98,132
2,65,100,0
2,63,94,0
2,72,100,4
2,68,91,8
2,65,97,0
2,72,93,0
2,75,92,4
2,72,87,160
2,68,91,0
2,63,101,0
2,65,97,0
2,70,91,36
2,63,113,12
2,60,86,0
2,67,93,4
2,63,96,136
2,68,89,0
2,65,95,0
2,60,90,4
2,58,101,108
2,62,100,0
2,67,95,0
2,57,93,112
2,63,105,0
2,66,98,0
2,65,92,140
2,58,96,0
2,56,105,12
2,68,101,55484
2,72,102,0
2,70,98,116
2,73,94,0
2,74,113,4
2,71,97,0
2,75,101,68
2,72,97,0
2,77,100,4
2,73,119,0
2,65,102,112
2,73,119,0
2,77,97,20
2,73,119,8
2,80,85,92
2,77,105,0
2,79,81,8
2,75,92,0
2,77,97,8
2,73,113,0
2,73,92,12
2,76,88,0
2,75,98,72
2,72,105,0
2,60,78,60
2,68,109,0
2,72,93,4
2,68,101,4
2,75,105,236
2,79,86,0
2,77,88,68
2,73,82,8
2,75,89,4
2,72,93,0
2,71,92,8
2,74,93,0
2,70,96,40
2,73,91,0
2,66,94,52
2,69,102,8
2,70,92,68
2,67,100,8
2,65,93,164
2,73,113,8
2,63,96,100
2,72,93,0
2,67,93,12
2,71,87,0
2,68,90,20
2,72,92,12
2,68,105,220
2,72,105,8
2,70,98,112
2,73,94,0
2,71,92,4
2,74,109,0
2,72,92,40
2,75,113,4
2,77,97,0
2,73,119,0
2,73,113,132
2,65,102,8
2,77,95,4
2,73,113,4
2,77,102,100
2,80,88,0
2,79,83,12
2,75,94,0
2,77,93,4
2,73,113,0
2,73,94,12
2,76,88,0
2,75,98,76
2,72,102,0
2,68,109,92
2,60,86,0
2,72,90,8
2,68,96,0
2,75,105,116
2,79,92,0
2,77,86,12
2,73,101,0
2,75,85,52
2,72,109,0
2,71,97,12
2,74,93,0
2,80,61,0
2,70,101,32
2,73,105,0
2,66,105,84
2,69,118,0
2,70,94,8
2,67,97,0
2,73,113,120
2,65,100,0
2,72,90,16
2,63,109,0
2,61,101,76
2,70,109,0
2,60,82,4
2,68,105,0
2,70,119,23384
2,72,90,36
2,75,85,104
2,77,90,132
2,73,101,0
2,74,105,124
2,78,101,0
2,79,84,52
2,75,94,0
3,1,1,0
3,67,86,2316
3,63,87,0
3,68,86,224
3,65,84,0
3,69,100,132
3,66,87,8
3,67,85,4
3,70,90,0
3,68,89,8
3,72,98,0
3,70,87,224
3,74,86,8
3,75,88,124
3,72,103,0
3,77,85,4
3,74,81,0
3,75,84,52
3,70,99,0
3,67,93,0
3,70,111,212
3,74,98,0
3,73,99,76
3,70,111,0
3,72,86,460
3,68,88,0
3,75,84,20
3,72,91,0
3,68,75,80
3,72,81,0
3,72,88,40
3,75,81,0
3,72,84,64
3,68,79,0
3,70,87,24
3,67,93,12
3,68,82,132
3,65,85,8
3,67,86,28
3,58,90,0
3,66,96,108
3,57,83,0
3,56,88,116
3,65,88,0
3,58,117,23524
3,60,103,12
3,62,107,124
3,63,111,120
3,65,103,124
3,62,103,108
3,63,107,116
3,67,91,16
3,70,86,120
3,68,87,88
3,63,88,12
3,72,95,0
3,65,86,0
3,65,84,60
3,72,86,0
3,68,83,0
3,63,84,4
3,65,88,92
3,71,84,0
3,67,91,0
3,62,95,4
3,65,84,160
3,68,84,0
3,72,88,0
3,63,88,0
3,72,90,140
3,75,86,0
3,68,90,0
3,65,83,16
3,70,96,104
3,67,98,0
3,74,86,0
3,63,99,0
3,72,86,88
3,63,96,4
3,67,103,0
3,67,35,48
3,67,100,3
3,72,98,0
3,63,96,4
3,63,92,84
3,67,93,0
3,70,89,0
3,63,88,36
3,67,116,0
3,70,99,0
3,63,82,44
3,69,98,0
3,60,78,0
3,66,96,0
3,63,88,56
3,72,88,0
3,68,103,0
3,65,100,0
3,63,88,44
3,67,98,0
3,70,92,0
3,67,107,180
3,63,107,0
3,66,96,64
3,63,92,0
3,62,90,64
3,65,107,8
3,62,84,92
3,65,93,0
3,65,111,88
3,70,99,0
3,62,98,0
3,65,95,140
3,70,103,0
3,74,98,0
3,73,117,76
3,70,127,0
3,64,91,0
3,70,111,40
3,74,107,4
3,64,85,0
3,67,100,36
3,70,111,0
3,75,92,12
3,70,103,108
3,75,94,0
3,67,100,0
3,69,116,64
3,75,96,0
3,67,103,0
3,65,103,60
3,74,103,8
3,69,116,0
3,69,127,68
3,63,99,0
3,72,107,0
3,65,100,60
3,70,103,0
3,62,98,12
3,70,107,12056
3,72,84,120
3,70,94,4
3,70,103,72
3,75,88,8
3,63,81,0
3,67,81,0
3,77,81,4
3,75,83,136
3,75,84,132
3,75,90,148
3,61,70,4
3,68,65,8
3,65,73,0
3,73,111,0
3,75,94,4
3,73,111,8
3,73,107,160
3,70,107,4
3,70,107,120
3,70,90,52
3,67,86,0
3,75,89,4
3,67,88,92
3,75,88,0
3,70,90,0
3,74,84,20
3,69,103,12
3,66,87,0
3,74,81,112
3,69,91,0
3,66,94,0
3,68,96,48
3,73,92,0
3,65,86,12
3,65,81,128
3,68,96,0
3,73,92,0
3,68,99,44
3,75,92,0
3,65,82,0
3,65,84,136
3,68,96,0
3,75,92,0
3,67,95,44
3,72,90,0
3,63,88,0
3,68,99,148
3,71,93,0
3,62,90,0
3,67,91,80
3,61,103,0
3,70,92,0
3,75,103,80
3,72,88,0
3,77,88,296
3,73,96,0
3,77,88,208
3,73,92,0
3,73,92,56
3,77,95,0
3,73,103,140
3,65,83,0
3,73,88,44
3,77,95,0
3,73,90,144
3,77,91,0
3,65,81,268
3,73,96,0
3,73,94,104
3,77,98,0
3,75,92,336
3,72,91,0
3,75,94,168
3,72,95,0
3,72,98,76
3,75,92,0
3,72,84,136
3,68,83,0
3,75,87,64
3,72,93,0
3,75,86,124
3,72,95,0
3,68,81,288
3,72,88,0
3,75,103,96
3,72,85,4
3,75,111,216
3,67,98,0
3,72,93,144
3,69,98,4
3,73,90,68
3,70,89,0
3,75,103,116
3,77,88,128
3,70,99,16
3,75,92,4
3,77,90,236
3,79,88,4
3,82,90,4
3,60,88,1912
3,63,92,0
3,68,87,4
3,68,89,28
3,72,93,0
3,63,103,4
3,68,99,160
3,75,96,12
3,72,98,0
3,75,96,60
3,72,90,8
3,73,99,188
3,77,98,0
3,73,103,320
3,77,98,0
3,73,87,60
3,77,93,0
3,73,103,116
3,65,83,0
3,73,92,36
3,77,98,0
3,73,87,140
3,77,93,0
3,73,99,256
3,65,81,0
3,73,87,68
3,77,95,0
3,75,89,124
3,72,85,0
3,75,90,472
3,72,90,0
3,75,90,64
3,72,93,0
3,68,94,116
3,72,98,0
3,72,91,16
3,75,84,0
3,72,93,124
3,75,90,0
3,72,95,272
3,68,92,8
3,75,90,60
3,72,88,0
3,67,86,412
3,75,94,0
3,72,90,136
3,69,98,0
3,73,86,68
3,70,92,0
3,75,96,112
3,77,91,8
3,70,81,12
3,75,94,140
3,77,88,240
3,79,83,4
3,82,86,4
3,60,90,1928
3,68,90,0
3,63,96,0
3,68,83,60
3,63,94,0
3,72,93,0
3,75,92,192
3,72,95,0
3,68,83,4
3,72,88,120
3,68,92,8
3,63,111,0
3,65,100,4
3,68,94,108
3,65,91,0
3,72,95,0
3,63,96,0
3,63,88,52
3,68,92,0
3,72,93,0
3,65,95,0
3,63,90,104
3,68,88,8
3,72,84,4
3,65,85,0
3,67,86,76
3,71,83,0
3,62,79,0
3,65,90,4
3,63,107,92
3,72,81,8
3,65,98,0
3,68,94,0
3,75,92,96
3,72,95,0
3,68,96,0
3,65,107,0
3,74,103,260
3,63,103,0
3,70,117,0
3,68,90,20
3,72,90,4
3,63,92,12
3,72,100,60
3,63,107,0
3,68,90,0
3,70,86,120
3,63,96,8
3,67,103,0
3,63,99,72
3,67,116,0
3,70,92,0
3,60,90,64
3,69,95,8
3,63,107,0
3,66,96,0
3,72,100,20
3,63,111,0
3,68,94,0
3,70,90,68
3,63,99,0
3,67,111,4
3,67,107,204
3,63,124,0
3,63,99,64
3,66,94,0
3,65,100,52
3,62,103,0
3,63,90,16
3,67,93,0
3,62,93,16
3,65,83,0
3,64,100,68
3,61,96,0
3,62,95,24
3,65,95,8
3,70,107,144
3,62,98,0
3,65,111,4
3,70,111,164
3,65,107,0
3,74,103,4
3,70,127,288
3,64,107,0
3,73,117,0
3,70,107,80
3,65,107,0
3,74,107,0
3,67,95,24
3,75,89,0
3,70,96,0
3,70,103,116
3,75,90,0
3,67,93,0
3,69,98,68
3,67,90,0
3,75,92,0
3,65,93,72
3,74,90,0
3,69,103,0
3,69,103,76
3,72,85,0
3,63,111,0
3,70,117,60
3,65,95,0
3,62,91,4
3,80,117,9540
3,72,103,12
3,79,107,112
3,70,117,4
3,68,94,80
3,77,116,0
3,75,124,140
3,67,91,0
3,70,117,4
3,72,85,124
3,75,86,96
3,77,95,28
3,73,124,0
3,78,111,156
3,74,116,0
3,75,124,96
3,79,121,0
4,79,62,4852
4,82,64,132
4,85,62,216
4,84,65,4
4,87,63,260
4,84,44,4
4,82,62,148
4,80,63,8
4,79,69,56
4,78,98,116
4,77,64,8
4,79,41,448
4,80,49,32
4,82,73,8
4,84,55,2100
4,84,55,72
4,80,57,140
4,84,58,64
4,80,63,128
4,82,70,1752
4,82,64,76
4,79,58,156
4,82,64,72
4,79,60,132
4,82,60,1820
4,82,68,84
4,77,62,164
4,82,66,52
4,77,62,112
4,75,66,1904
4,75,57,100
4,79,55,24
4,79,55,124
4,82,62,28
4,84,55,1916
4,84,58,72
4,80,70,132
4,84,60,60
4,80,66,144
4,82,81,1748
4,82,66,60
4,79,59,140
4,82,77,68
4,79,64,140
4,82,73,1860
4,82,73,80
4,77,69,148
4,82,73,76
4,77,64,140
4,70,64,1972
4,72,54,128
4,74,52,4
4,75,52,124
4,77,56,4
4,74,46,124
4,75,53,124
4,79,60,72
4,82,56,136
4,72,57,1940
4,75,52,124
4,80,56,108
4,84,57,24
4,70,58,588
4,75,50,120
4,79,55,104
4,82,53,8
4,81,40,4
4,84,54,244
4,82,57,244
4,75,68,16
4,79,55,112
4,74,60,608
4,77,57,380
4,82,60,392
4,86,55,0
4,74,44,68
4,77,47,128
4,82,51,124
4,86,54,144
4,82,66,2292
4,80,70,396
4,77,48,4
4,84,54,1836
4,84,55,60
4,80,53,140
4,84,53,76
4,80,58,148
4,82,70,1828
4,82,62,64
4,79,55,136
4,82,63,52
4,79,52,136
4,82,68,1852
4,82,61,68
4,77,56,132
4,82,58,64
4,77,50,128
4,82,60,2788
4,84,44,4
4,82,45,128
4,87,47,116
4,89,42,8
4,87,49,12
4,87,43,152
4,87,63,172
4,85,54,152
4,87,50,8
4,85,54,4
4,85,56,156
4,82,58,12
4,82,53,124
4,87,38,12
4,87,50,96
4,86,43,12
4,86,49,104
4,85,58,12
4,85,55,116
4,87,48,44
4,87,43,116
4,84,50,12
4,83,54,196
