track,note,velocity,time
3,35,86,4031
3,35,0,24
3,35,75,24
3,35,0,312
3,35,84,24
3,35,0,28
3,35,65,20
3,35,0,26
3,35,67,22
3,35,0,276
3,35,86,12
3,35,0,24
3,35,75,24
3,35,0,300
3,35,78,36
3,35,0,31
3,35,62,17
3,35,0,23
3,35,71,25
3,35,0,277
3,35,86,11
3,35,0,24
3,35,75,24
3,35,0,312
3,35,81,24
3,35,0,33
3,35,70,15
3,35,0,22
3,35,73,26
3,35,0,278
3,35,86,10
3,35,0,24
3,35,75,24
3,35,0,300
3,35,79,36
3,35,0,31
3,35,65,17
3,35,0,27
3,35,65,21
3,35,0,283
3,35,86,5
3,35,0,24
3,35,75,24
3,35,0,312
3,35,84,24
3,35,0,28
3,35,65,20
3,35,0,26
3,35,68,22
3,35,0,276
3,35,86,12
3,35,0,24
3,35,80,24
3,35,0,300
3,35,90,36
3,35,0,31
3,35,62,17
3,35,0,23
3,35,78,25
3,35,0,277
3,35,86,11
3,35,0,24
3,35,75,24
3,35,0,312
3,35,81,24
3,35,0,33
3,35,72,15
3,35,0,22
3,35,73,26
3,35,0,278
3,35,86,10
3,35,0,24
3,35,75,24
3,35,0,300
3,35,79,36
3,35,0,31
3,35,65,17
3,35,0,27
3,35,65,21
3,35,0,266
3,35,68,22
3,35,0,216
3,35,63,72
3,35,0,37
3,35,61,59
3,35,0,324
3,35,65,60
3,35,0,223
3,35,70,65
3,35,0,43
3,35,71,53
3,35,0,337
3,35,78,47
3,35,0,223
3,35,61,65
3,35,0,46
3,35,64,50
3,35,0,321
3,35,63,63
3,35,0,227
3,35,57,61
3,35,0,49
3,35,62,47
3,35,0,290
3,35,78,94
3,35,0,216
3,35,71,72
3,35,0,38
3,35,65,58
3,35,0,328
3,35,73,56
3,35,0,311
3,35,71,73
3,35,0,37
3,35,66,59
3,35,0,85
3,35,63,59
3,35,0,38
3,35,57,58
3,35,0,27
3,35,65,21
3,35,0,224
3,35,66,64
3,35,0,34
3,35,66,62
3,35,0,320
3,35,68,64
3,35,0,222
3,35,73,66
3,35,0,44
3,35,76,52
3,35,0,265
3,33,73,23
3,33,0,61
3,35,68,35
3,35,0,231
3,35,66,57
3,35,0,50
3,35,71,46
3,35,0,308
3,35,67,76
3,35,0,327
3,35,78,57
3,33,78,96
3,35,0,4
3,33,0,187
3,30,80,1
3,30,0,92
3,28,85,4
3,28,0,238
3,28,79,50
3,28,0,74
3,35,68,22
3,35,0,224
3,35,72,64
3,35,0,71
3,28,84,25
3,28,0,241
3,28,88,47
3,28,0,80
3,35,74,16
3,35,0,212
3,35,68,76
3,35,0,76
3,28,84,20
3,28,0,85
3,30,81,11
3,30,0,144
3,32,72,48
3,32,0,85
3,33,88,11
3,33,0,238
3,25,85,50
3,25,0,47
3,30,87,49
3,30,0,243
3,28,84,45
3,28,0,51
3,33,84,45
3,33,0,247
3,25,84,41
3,25,0,43
3,30,80,53
3,30,0,247
3,25,89,41
3,25,0,51
3,30,78,45
3,30,0,263
3,30,85,25
3,30,0,51
3,35,84,45
3,35,0,41
3,35,70,7
3,35,0,39
3,35,74,57
3,35,0,34
3,35,78,14
3,35,0,43
3,35,74,53
3,35,0,35
3,35,74,13
3,35,0,37
3,35,74,59
3,35,0,33
3,35,72,15
3,35,0,36
3,35,70,60
3,35,0,42
3,35,74,54
3,35,0,63
3,30,101,33
3,30,0,663
3,35,76,105
3,35,0,224
3,35,74,64
3,35,0,38
3,35,68,58
3,35,0,328
3,35,76,56
3,35,0,311
3,35,68,73
3,35,0,34
3,35,62,14
3,35,0,74
3,35,74,22
3,35,0,46
3,35,66,50
3,35,0,51
3,35,64,45
3,35,0,39
3,35,68,9
3,35,0,224
3,35,60,64
3,35,0,34
3,35,81,62
3,35,0,320
3,35,79,64
3,35,0,222
3,35,76,66
3,35,0,44
3,35,79,52
3,35,0,82
3,33,68,14
3,33,0,94
3,30,68,2
3,30,0,84
3,33,70,12
3,33,0,86
3,35,81,10
3,35,0,231
3,35,76,57
3,35,0,50
3,35,74,46
3,35,0,308
3,35,70,76
3,35,0,327
3,35,80,57
3,33,86,96
3,35,0,4
3,33,0,187
3,30,80,1
3,30,0,92
3,28,94,4
3,28,0,238
3,28,79,50
3,28,0,96
3,35,72,0
3,35,0,224
3,35,70,64
3,35,0,88
3,28,84,8
3,28,0,241
3,28,88,47
3,28,0,62
3,35,72,34
3,35,0,212
3,35,68,76
3,35,0,76
3,28,85,20
3,28,0,87
3,30,78,9
3,30,0,144
3,32,85,48
3,32,0,87
3,33,86,9
3,33,0,238
3,25,85,50
3,25,0,80
3,30,84,16
3,30,0,243
3,28,84,45
3,28,0,76
3,33,72,20
3,33,0,247
3,25,84,41
3,25,0,76
3,30,80,20
3,30,0,247
3,25,80,41
3,25,0,84
3,30,76,12
3,30,0,263
3,30,84,25
3,30,0,51
3,35,87,45
3,35,0,41
3,35,72,7
3,35,0,39
3,35,74,57
3,35,0,34
3,35,78,14
3,35,0,43
3,35,76,53
3,35,0,35
3,35,72,13
3,35,0,37
3,35,72,59
3,35,0,33
3,35,74,15
3,35,0,36
3,35,72,60
3,35,0,42
3,35,74,54
3,35,0,63
3,35,101,33
3,35,0,60
3,30,89,708
3,30,0,250
3,30,77,38
3,30,0,26
3,30,90,22
3,30,0,108
3,28,92,36
3,28,0,77
3,37,89,19
3,37,0,91
3,36,83,5
3,36,0,95
3,35,72,1
3,35,0,350
3,35,87,34
3,35,0,33
3,35,79,15
3,35,0,188
3,35,79,4
3,37,71,48
3,35,0,8
3,37,0,85
3,28,83,3
3,28,0,270
3,28,90,18
3,28,0,88
3,28,87,8
3,28,0,132
3,28,85,12
3,35,72,192
3,28,0,4
3,35,0,43
3,28,90,1
3,28,0,261
3,28,85,27
3,28,0,53
3,28,87,43
3,28,0,34
3,28,83,14
3,28,0,44
3,37,84,52
3,40,76,144
3,37,0,1
3,40,0,76
3,30,110,19
3,30,0,279
3,37,85,9
3,37,0,35
3,30,80,61
3,30,0,128
3,30,78,16
3,30,0,84
3,30,76,12
3,30,0,76
3,30,80,20
3,30,0,34
3,35,85,14
3,35,0,272
3,35,78,16
3,35,0,30
3,35,74,66
3,35,0,188
3,37,72,4
3,37,0,188
3,28,80,4
3,28,0,247
3,35,80,41
3,35,0,32
3,28,76,64
3,28,0,29
3,28,92,19
3,28,0,172
3,28,92,20
3,35,92,96
3,28,0,4
3,35,0,43
3,28,92,1
3,28,0,430
3,35,75,98
3,35,0,32
3,28,75,16
3,37,77,96
3,28,0,4
3,30,84,92
3,37,0,4
3,30,0,236
3,30,84,48
3,30,0,36
3,28,80,60
3,28,0,136
3,37,78,8
3,37,0,68
3,37,80,28
3,37,0,76
3,36,93,20
3,36,0,35
3,35,89,13
3,35,0,262
3,35,75,26
3,35,0,84
3,35,74,12
3,35,0,228
3,35,87,12
3,35,0,30
3,37,87,18
3,37,0,38
3,35,85,10
3,35,0,44
3,28,89,4
3,28,0,257
3,35,89,31
3,35,0,38
3,28,89,58
3,28,0,24
3,28,89,24
3,28,0,172
3,28,84,20
3,35,80,96
3,28,0,4
3,35,0,30
3,28,87,14
3,28,0,331
3,35,80,5
3,35,0,38
3,28,87,10
3,28,0,80
3,28,94,16
3,37,92,144
3,28,0,7
3,37,0,26
3,28,87,15
3,28,0,89
3,30,92,7
3,30,0,253
3,37,85,35
3,37,0,31
3,30,87,65
3,30,0,35
3,30,75,13
3,30,0,52
3,30,94,44
3,37,84,144
3,30,0,20
3,35,92,76
3,37,0,1
3,35,0,230
3,35,75,57
3,35,0,84
3,35,84,12
3,35,0,340
3,35,76,4652
3,35,0,224
3,35,72,64
3,35,0,38
3,35,76,58
3,35,0,328
3,35,84,56
3,35,0,36
3,35,76,12
3,35,0,288
3,35,72,48
3,35,0,26
3,35,72,22
3,35,0,48
3,35,82,48
3,35,0,36
3,35,70,60
3,35,0,51
3,35,70,45
3,35,0,26
3,35,76,22
3,35,0,224
3,35,72,64
3,35,0,34
3,35,76,62
3,35,0,320
3,35,84,64
3,35,0,222
3,35,84,66
3,35,0,44
3,35,72,52
3,35,0,82
3,33,66,14
3,33,0,94
3,30,76,2
3,33,78,96
3,30,0,4
3,33,0,82
3,35,89,10
3,35,0,231
3,35,84,57
3,35,0,50
3,35,82,46
3,35,0,308
3,35,78,76
3,35,0,327
3,35,80,57
3,33,86,96
3,35,0,4
3,33,0,187
3,30,74,1
3,30,0,92
3,40,78,4
3,40,0,238
3,40,79,50
3,40,0,50
3,35,72,46
3,35,0,224
3,35,80,64
3,35,0,62
3,40,84,34
3,40,0,241
3,40,74,47
3,40,0,62
3,35,78,34
3,35,0,212
3,35,76,76
3,35,0,76
3,40,85,20
3,40,0,87
3,30,86,9
3,30,0,144
3,32,78,48
3,32,0,87
3,33,86,9
3,33,0,238
3,37,72,50
3,37,0,47
3,30,84,49
3,30,0,243
3,28,84,45
3,28,0,51
3,33,74,45
3,33,0,247
3,37,78,41
3,37,0,43
3,30,85,53
3,30,0,247
3,37,80,41
3,37,0,51
3,30,80,45
3,30,0,263
3,30,76,25
3,30,0,51
3,35,87,45
3,35,0,41
3,35,80,7
3,35,0,39
3,35,80,57
3,35,0,34
3,35,80,14
3,35,0,43
3,35,80,53
3,35,0,35
3,35,76,13
3,35,0,37
3,35,76,59
3,35,0,33
3,35,84,15
3,35,0,36
3,35,68,60
3,35,0,42
3,35,84,54
3,35,0,63
3,30,91,33
3,30,0,277
3,30,93,11
3,30,0,445
3,28,94,4643
3,28,0,238
3,28,79,50
3,28,0,50
3,35,74,46
3,35,0,224
3,35,64,64
3,35,0,62
3,28,84,34
3,28,0,241
3,28,88,47
3,28,0,62
3,35,80,34
3,35,0,212
3,35,74,76
3,35,0,76
3,28,85,20
3,28,0,87
3,30,86,9
3,30,0,144
3,32,76,48
3,32,0,87
3,33,86,9
3,33,0,238
3,37,85,50
3,37,0,47
3,30,84,49
3,30,0,243
3,28,84,45
3,28,0,51
3,33,86,45
3,33,0,247
3,37,84,41
3,37,0,43
3,30,85,53
3,30,0,247
3,37,78,41
3,37,0,51
3,30,84,45
3,30,0,263
3,30,78,25
3,30,0,51
3,35,78,45
3,35,0,41
3,35,74,7
3,35,0,39
3,35,76,57
3,35,0,34
3,35,80,14
3,35,0,43
3,35,84,53
3,35,0,35
3,35,85,13
3,35,0,37
3,35,84,59
3,35,0,33
3,35,80,15
3,35,0,36
3,35,76,60
3,35,0,42
3,35,74,54
3,35,0,63
3,35,101,33
3,35,0,60
3,30,93,708
3,30,0,250
3,30,80,38
3,30,0,26
3,30,90,22
3,30,0,69
3,28,85,27
3,28,0,23
3,28,92,25
3,28,0,77
3,37,87,19
3,37,0,91
3,36,85,5
3,36,0,95
3,35,92,1
3,35,0,350
3,35,87,34
3,35,0,33
3,35,79,15
3,35,0,50
3,35,92,46
3,35,0,40
3,35,79,56
3,37,71,48
3,35,0,8
3,37,0,85
3,28,95,3
3,28,0,270
3,28,90,18
3,28,0,35
3,28,92,61
3,28,0,29
3,28,87,19
3,28,0,41
3,28,85,55
3,28,0,42
3,28,85,54
3,28,0,46
3,35,94,50
3,35,0,47
3,28,89,1
3,28,0,261
3,28,85,27
3,28,0,53
3,28,87,43
3,28,0,34
3,28,83,14
3,28,0,44
3,37,85,52
3,28,80,144
3,37,0,1
3,28,0,76
3,30,84,19
3,30,0,279
3,37,87,9
3,37,0,35
3,30,84,61
3,30,0,28
3,30,85,20
3,30,0,39
3,30,89,57
3,30,0,44
3,30,87,52
3,30,0,35
3,30,89,61
3,30,0,34
3,35,93,14
3,35,0,211
3,35,89,77
3,35,0,30
3,35,95,66
3,37,92,192
3,35,0,10
3,37,0,178
3,28,91,4
3,28,0,247
3,35,90,41
3,35,0,32
3,28,80,64
3,28,0,29
3,28,92,19
3,28,0,51
3,28,92,45
3,28,0,46
3,28,92,50
3,28,0,56
3,35,92,40
3,35,0,47
3,28,92,1
3,28,0,430
3,35,75,98
3,35,0,32
3,28,75,16
3,25,77,96
3,28,0,4
3,25,0,30
3,28,85,14
3,28,0,36
3,30,89,12
3,30,0,240
3,30,85,48
3,30,0,36
3,28,80,60
3,28,0,32
3,28,77,16
3,28,0,39
3,35,93,57
3,35,0,21
3,35,89,75
3,35,0,19
3,36,93,77
3,36,0,35
3,35,91,13
3,35,0,262
3,35,75,26
3,35,0,23
3,35,84,73
3,35,0,22
3,35,84,26
3,35,0,169
3,35,89,23
3,35,0,30
3,37,87,18
3,37,0,38
3,35,85,10
3,35,0,21
3,28,89,27
3,28,0,257
3,35,87,31
3,35,0,38
3,28,84,58
3,28,0,24
3,28,96,24
3,28,0,36
3,28,85,60
3,28,0,33
3,28,85,63
3,28,0,37
3,35,87,59
3,35,0,34
3,28,95,14
3,28,0,331
3,35,87,5
3,35,0,38
3,28,84,10
3,28,0,40
3,35,66,8
3,35,0,29
3,28,94,19
3,37,92,144
3,28,0,7
3,37,0,26
3,28,84,15
3,28,0,89
3,30,92,7
3,30,0,253
3,25,85,35
3,25,0,88
3,30,91,8
3,30,0,35
3,30,75,13
3,30,0,84
3,30,89,12
3,30,0,72
3,30,62,24
3,37,77,48
3,30,0,2
3,35,92,94
3,37,0,1
3,35,0,230
3,35,92,57
3,35,0,68
3,35,91,28
3,35,0,291
3,35,86,45
3,28,86,48
3,35,0,0
3,28,0,280
3,28,81,56
3,28,0,44
3,28,84,4
3,28,0,21
3,28,90,27
3,28,0,88
3,28,79,8
3,28,0,84
3,28,81,12
3,28,0,86
3,35,87,10
3,35,0,37
3,28,89,11
3,28,0,737
3,30,93,31
3,30,0,240
3,30,95,48
3,30,0,88
3,28,84,8
3,28,0,32
3,28,77,16
3,28,0,86
3,37,80,10
3,37,0,60
3,37,87,36
3,37,0,84
3,36,93,12
3,36,0,35
3,35,89,13
3,35,0,262
3,35,85,26
3,35,0,86
3,35,100,10
3,35,0,22
3,35,100,26
3,35,0,169
3,35,87,23
3,37,89,48
3,35,0,4
3,37,0,40
3,35,85,4
3,35,0,40
3,28,95,8
3,28,0,257
3,23,87,31
3,23,0,90
3,28,89,6
3,28,0,36
3,28,96,12
3,28,0,76
3,28,85,20
3,28,0,80
3,28,84,16
3,28,0,80
3,23,100,16
3,23,0,44
3,28,84,4
3,28,0,331
3,23,77,5
3,23,0,108
3,28,79,36
3,28,0,136
3,25,77,8
3,28,81,48
3,25,0,8
3,28,0,76
3,30,92,12
3,30,0,253
3,37,85,35
3,37,0,31
3,30,95,65
3,30,0,132
3,30,94,12
3,30,0,90
3,30,74,6
3,30,0,45
3,37,89,3
3,35,89,96
3,37,0,1
3,35,0,183
3,35,72,8
3,35,0,122
3,35,80,22
3,35,0,70
3,35,78,74
3,35,0,158
3,35,78,34
3,28,85,96
3,35,0,0
3,28,0,176
3,28,84,16
3,28,0,119
3,23,80,25
3,23,0,161
3,23,78,31
3,23,0,121
3,23,78,23
3,23,0,62
3,28,89,34
3,28,0,24
3,28,79,24
3,28,0,48
3,23,90,48
3,23,0,31
3,28,85,17
3,28,0,24
3,28,97,24
3,28,0,72
3,23,85,24
3,23,0,38
3,23,90,58
3,23,0,31
3,23,90,65
3,23,0,31
3,23,90,65
3,23,0,31
3,28,106,17
3,28,0,36
3,28,115,12
3,28,0,588
4,59,62,4031
4,63,62,0
4,66,62,0
4,59,0,126
4,63,0,0
4,66,0,7
4,59,46,11
4,63,46,0
4,66,46,0
4,63,0,22
4,66,0,6
4,59,0,17
4,59,29,51
4,59,0,48
4,59,43,0
4,66,51,0
4,59,0,48
4,66,0,0
4,66,42,0
4,66,0,48
4,59,30,48
4,66,21,0
4,59,0,48
4,59,48,0
4,66,0,0
4,66,48,0
4,59,0,48
4,66,0,0
4,66,42,0
4,59,43,48
4,66,0,0
4,59,0,48
4,59,27,0
4,66,42,0
4,59,0,48
4,59,54,0
4,66,0,0
4,66,54,0
4,59,0,48
4,59,50,0
4,66,0,0
4,57,54,5
4,59,0,0
4,61,54,0
