track,note,velocity,time
1,24,93,10367
1,24,0,192
1,28,95,0
1,28,0,48
1,28,102,48
1,28,0,209
1,28,95,31
1,28,0,32
1,33,97,16
1,33,0,292
1,33,87,44
1,33,0,40
1,31,85,8
1,31,0,19
1,31,85,29
1,31,0,12
1,31,97,36
1,31,0,116
1,31,95,28
1,28,87,48
1,31,0,9
1,28,0,85
1,24,89,2
1,24,0,302
1,24,82,34
1,24,0,40
1,28,95,8
1,28,0,45
1,28,95,51
1,28,0,166
1,28,87,26
1,28,0,89
1,33,91,7
1,33,0,301
1,33,95,35
1,33,0,40
1,31,79,8
1,31,0,27
1,31,91,21
1,31,0,10
1,31,91,38
1,31,0,248
1,36,80,40
1,28,81,384
1,36,0,2
1,28,0,382
1,33,75,0
1,33,0,381
1,31,72,3
1,31,0,384
1,36,71,0
1,36,0,751
1,33,60,17
1,33,0,756
1,36,69,12
1,33,69,768
1,36,0,0
1,33,0,663
1,31,53,9
1,31,0,90
1,29,69,6
1,29,0,760
1,41,71,8
1,41,0,756
1,36,71,12
1,36,0,372
1,35,71,12
1,29,71,384
1,35,0,1
1,29,0,369
1,41,48,14
1,41,0,381
1,36,69,3
1,36,0,378
1,35,65,6
1,29,67,384
1,35,0,0
1,29,0,384
1,41,72,0
1,41,0,324
1,36,69,60
1,36,0,379
1,35,65,5
1,35,0,374
1,29,67,10
1,29,0,378
1,41,52,6
1,41,0,370
1,36,58,14
1,36,0,264
1,35,58,24
1,35,0,464
1,33,67,16
1,33,0,168
1,31,60,24
1,31,0,84
1,29,65,12
1,29,0,459
1,24,85,213
1,24,0,192
1,28,93,0
1,28,0,50
1,28,99,46
1,28,0,168
1,28,93,24
1,28,0,85
1,33,91,11
1,33,0,299
1,33,93,37
1,33,0,46
1,31,93,2
1,31,0,17
1,31,91,31
1,31,0,12
1,31,97,36
1,31,0,165
1,31,97,27
1,31,0,81
1,24,95,15
1,24,0,291
1,24,93,45
1,24,0,44
1,28,95,4
1,28,0,27
1,28,95,21
1,28,0,9
1,28,107,39
1,28,0,172
1,28,95,20
1,28,0,77
1,33,93,19
1,33,0,310
1,33,107,26
1,33,0,36
1,31,95,12
1,31,0,12
1,31,84,36
1,31,0,15
1,31,99,33
1,31,0,172
1,31,99,20
1,31,0,94
1,24,97,2
1,24,0,253
1,24,91,35
1,24,0,85
1,28,99,11
1,28,0,46
1,28,97,50
1,28,0,168
1,28,89,24
1,28,0,93
1,33,99,3
1,33,0,295
1,33,87,41
1,33,0,44
1,31,84,4
1,31,0,22
1,31,52,26
1,31,0,7
1,31,99,41
1,31,0,163
1,31,87,29
1,31,0,93
1,24,97,3
1,24,0,301
1,24,84,35
1,24,0,38
1,28,95,10
1,28,0,30
1,28,95,66
1,28,0,167
1,28,95,25
1,28,0,93
1,33,95,3
1,33,0,293
1,33,79,43
1,33,0,42
1,31,56,6
1,31,0,17
1,31,61,31
1,31,0,17
1,31,66,31
1,31,0,279
1,36,60,9
1,36,0,381
1,35,54,3
1,33,56,384
1,35,0,1
1,33,0,382
1,31,52,1
1,31,0,372
1,36,50,12
1,36,0,378
1,35,50,6
1,35,0,376
1,33,52,8
1,33,0,376
1,31,50,8
1,31,0,380
1,36,50,4
1,36,0,376
1,35,56,8
1,35,0,380
1,33,56,4
1,31,54,384
1,33,0,0
1,31,0,374
1,36,48,10
1,36,0,762
1,33,48,6
1,33,0,756
1,36,65,12
1,33,65,768
1,36,0,0
1,33,0,663
1,31,53,9
1,31,0,90
1,29,60,6
1,29,0,766
1,41,60,2
1,41,0,766
1,36,46,2
1,36,0,374
1,35,58,10
1,29,58,384
1,35,0,1
1,29,0,379
1,41,54,4
1,41,0,381
1,36,60,3
1,36,0,378
1,35,52,6
1,29,56,384
1,35,0,0
1,29,0,384
1,41,56,0
1,41,0,324
1,36,46,60
1,36,0,264
1,35,50,24
1,35,0,464
1,33,48,16
1,33,0,168
1,31,48,24
1,31,0,84
1,29,44,12
1,29,0,459
1,24,93,213
1,24,0,188
1,28,95,4
1,28,0,36
1,28,103,60
1,28,0,163
1,28,103,29
1,28,0,85
1,33,99,11
1,33,0,295
1,33,87,41
1,33,0,44
1,31,79,4
1,31,0,17
1,31,69,31
1,31,0,10
1,31,97,38
1,31,0,163
1,31,95,29
1,31,0,82
1,24,89,14
1,24,0,304
1,24,91,32
1,24,0,45
1,28,99,3
1,28,0,24
1,28,95,72
1,28,0,166
1,28,97,26
1,28,0,86
1,33,95,10
1,33,0,301
1,33,87,35
1,33,0,42
1,31,84,6
1,31,0,24
1,31,97,72
1,31,0,169
1,31,91,23
1,31,0,81
1,24,99,15
1,24,0,295
1,24,95,41
1,24,0,45
1,28,95,3
1,28,0,28
1,28,83,20
1,28,0,10
1,28,95,38
1,28,0,168
1,28,101,24
1,28,0,86
1,33,95,10
1,33,0,305
1,33,95,31
1,33,0,44
1,31,87,4
1,31,0,22
1,31,95,74
1,31,0,163
1,31,87,29
1,31,0,86
1,24,91,10
1,24,0,308
1,24,95,28
1,24,0,44
1,28,99,4
1,28,0,33
1,28,99,63
1,28,0,173
1,28,87,19
1,28,0,95
1,33,95,1
1,33,0,305
1,33,87,31
1,33,0,40
1,31,91,8
1,31,0,24
1,31,87,24
1,31,0,6
1,31,95,42
1,31,0,169
1,31,91,23
1,31,0,89
1,24,103,7
1,24,0,769
2,45,70,1727
2,57,47,96
2,60,49,96
2,57,0,14
2,57,50,82
2,60,0,48
2,45,0,48
2,52,40,0
2,64,50,0
2,57,0,3
2,57,41,93
2,57,0,96
2,60,43,0
2,64,0,0
2,57,32,96
2,60,0,0
2,52,0,74
2,57,0,10
2,48,71,12
2,55,42,96
2,52,51,96
2,55,0,74
2,55,55,22
2,55,0,84
2,60,52,12
2,55,48,96
2,60,0,84
2,52,0,12
2,60,36,0
2,55,0,76
2,55,49,20
2,48,0,94
2,45,70,2
2,55,0,8
2,60,0,1
2,57,47,87
2,60,48,96
2,57,0,14
2,57,50,82
2,45,0,96
2,52,55,0
2,60,0,0
2,64,51,0
2,57,0,3
2,57,41,93
2,57,0,96
2,60,43,0
2,64,0,0
2,57,32,96
2,60,0,48
2,52,0,26
2,57,0,10
2,41,69,12
2,48,59,96
2,53,67,96
2,48,0,5
2,57,52,91
2,53,0,8
2,60,63,88
2,57,0,14
2,53,42,82
2,53,0,93
2,57,49,3
2,41,0,96
2,48,28,0
2,57,0,94
2,48,0,2
2,53,63,0
2,65,48,0
2,60,0,8
2,56,41,88
2,65,0,48
2,56,0,36
2,60,46,12
2,56,32,96
2,56,0,93
2,60,0,3
2,65,55,0
2,56,33,96
2,60,38,96
2,65,0,0
2,56,0,4
2,56,24,92
2,56,0,85
2,48,71,11
2,60,0,0
2,53,0,4
2,55,46,92
2,60,59,96
2,55,0,13
2,55,44,83
2,55,0,90
2,47,68,6
2,60,0,0
2,48,0,3
2,55,52,93
2,62,61,96
2,59,49,96
2,59,0,90
2,55,0,3
2,41,72,3
2,62,0,2
2,47,0,4
2,48,55,90
2,53,41,96
2,48,0,62
2,48,47,34
2,53,0,74
2,53,49,22
2,48,0,74
2,56,48,22
2,60,44,96
2,53,0,2
2,56,0,84
2,56,51,10
2,60,0,86
2,48,69,10
2,56,0,1
2,41,0,9
2,55,42,86
2,60,57,96
2,55,0,48
2,55,36,48
2,60,0,61
2,47,69,35
2,55,0,0
2,48,0,3
2,55,45,93
2,62,59,96
2,59,49,96
2,55,0,6
2,41,67,90
2,59,0,0
2,62,0,8
2,47,0,2
2,48,46,86
2,53,52,96
2,57,44,96
2,57,0,88
2,53,0,1
2,53,39,7
2,65,39,0
2,56,40,96
2,65,0,11
2,48,0,40
2,60,22,45
2,56,0,3
2,56,25,93
2,41,0,3
2,60,0,2
2,56,0,90
2,48,68,1
2,53,0,3
2,55,28,93
2,55,0,81
2,60,41,15
2,60,0,93
2,48,0,1
2,47,58,2
2,50,12,96
2,50,0,81
2,55,46,15
2,62,57,96
2,55,0,15
2,55,49,81
2,62,0,87
2,47,0,3
2,55,0,1
2,45,61,5
2,60,40,96
2,43,65,96
2,45,0,6
2,60,0,73
2,41,68,17
2,43,0,4
2,57,41,92
2,60,46,96
2,57,0,5
2,60,0,88
2,65,48,3
2,41,0,145
2,65,0,13
2,55,45,12
2,60,55,13
2,64,63,7
2,55,0,176
2,60,0,5
2,64,0,0
2,55,70,13
2,60,79,0
2,64,84,0
2,64,0,28
2,60,0,1
2,55,0,4
2,55,65,18
2,64,64,1
2,59,70,1
2,55,0,44
2,64,0,16
2,59,0,10
2,55,61,21
2,55,0,42
2,59,49,4
2,59,0,12
2,59,84,36
2,64,73,1
2,64,0,81
2,55,73,11
2,59,0,1
2,59,31,40
2,55,0,3
2,59,0,13
2,57,73,42
2,60,76,1
2,64,68,1
2,57,0,3
2,64,0,14
2,57,54,11
2,60,0,4
2,57,0,38
2,60,73,54
2,64,73,0
2,64,0,90
2,57,55,2
2,60,0,8
2,57,0,19
2,59,54,18
2,62,53,1
2,55,3,15
2,55,0,2
2,59,0,2
2,62,0,1
2,55,49,31
2,62,57,0
2,59,52,2
2,59,0,11
2,55,0,2
2,62,0,1
2,59,76,32
2,62,73,0
2,55,28,4
2,55,0,5
2,62,0,52
2,59,0,2
2,59,70,30
2,62,70,1
2,59,0,44
2,55,79,1
2,62,0,1
2,55,0,33
2,59,76,14
2,62,65,1
2,62,0,38
2,59,0,2
2,55,70,1
2,55,0,27
2,64,88,26
2,55,79,1
2,60,81,0
2,55,0,69
2,55,61,12
2,60,0,2
2,64,0,2
2,55,0,55
2,55,59,37
2,60,66,0
2,64,68,1
2,55,0,43
2,55,57,46
2,60,0,0
2,64,0,7
2,55,0,31
2,59,70,57
2,64,63,1
2,64,0,40
2,55,52,7
2,59,0,4
2,55,0,20
2,59,35,24
2,59,0,10
2,59,70,38
2,64,68,1
2,64,0,88
2,55,60,7
2,59,0,4
2,55,0,34
2,59,16,9
2,59,0,7
2,57,76,39
2,60,73,1
2,64,73,1
2,57,0,10
2,64,0,23
2,57,52,4
2,60,0,4
2,57,0,27
2,60,60,70
2,64,59,0
2,57,43,89
2,64,0,0
2,60,0,8
2,57,0,11
2,59,42,27
2,62,38,2
2,55,39,2
2,59,0,16
2,62,0,2
2,55,0,2
2,55,54,23
2,59,58,0
2,62,49,2
2,55,0,18
2,59,0,1
2,62,0,1
2,59,54,31
2,62,49,1
2,55,40,1
2,55,0,31
2,59,0,11
2,62,0,6
2,59,49,48
2,62,53,1
2,59,0,42
2,55,60,2
2,62,0,0
2,55,0,43
2,59,44,7
2,59,0,21
2,48,80,25
2,55,47,96
2,60,74,96
2,55,0,13
2,55,38,83
2,60,0,8
2,48,0,74
2,55,0,7
2,47,78,7
2,55,49,96
2,62,63,96
2,55,0,4
2,55,34,92
2,62,0,0
2,47,0,90
2,45,65,6
2,64,65,0
2,55,0,3
2,55,40,93
2,55,0,95
2,60,67,1
2,55,37,96
2,60,0,2
2,43,76,94
2,45,0,2
2,55,0,6
2,64,0,12
2,55,48,76
2,55,0,92
2,59,61,4
2,62,59,0
2,55,42,96
2,59,0,8
2,62,0,54
2,43,0,3
2,55,0,0
2,48,57,1
2,52,47,13
2,55,69,6
2,60,48,10
2,64,52,13
2,48,0,621
2,52,0,2
2,55,0,12
2,60,0,56
2,64,0,13
2,45,70,52
2,57,47,96
2,60,49,96
2,57,0,14
2,57,50,82
2,60,0,48
2,45,0,48
2,52,53,0
2,64,53,0
2,57,0,3
2,57,41,93
2,57,0,96
2,60,43,0
2,64,0,0
2,57,32,96
2,60,0,0
2,52,0,74
2,57,0,10
2,48,51,12
2,55,42,96
2,52,51,96
2,55,0,74
2,55,55,22
2,55,0,84
2,60,52,12
2,55,48,96
2,60,0,84
2,52,0,12
2,60,36,0
2,55,0,76
2,55,49,20
2,48,0,94
2,45,55,2
2,55,0,8
2,60,0,1
2,57,47,87
2,60,69,96
2,57,0,14
2,57,50,82
2,45,0,96
2,52,55,0
2,60,0,0
2,64,68,0
2,57,0,3
2,57,41,93
2,57,0,96
2,60,43,0
2,64,0,0
2,57,32,96
2,60,0,48
2,52,0,26
2,57,0,10
2,41,69,12
2,48,59,96
2,53,67,96
2,48,0,5
2,57,52,91
2,53,0,8
2,60,63,88
2,57,0,14
2,53,42,82
2,53,0,93
2,57,49,3
2,41,0,96
2,48,47,0
2,57,0,94
2,48,0,2
2,53,63,0
2,65,59,0
2,60,0,8
2,56,41,88
2,65,0,48
2,56,0,36
2,60,46,12
2,56,32,96
2,56,0,93
2,60,0,3
2,65,55,0
2,56,33,96
2,60,38,96
2,65,0,0
2,56,0,4
2,56,24,92
2,56,0,85
2,48,71,11
2,60,0,0
2,53,0,4
2,55,46,92
2,60,59,96
2,55,0,13
2,55,44,83
2,55,0,90
2,47,68,6
2,60,0,0
2,48,0,3
2,55,52,93
2,62,61,96
2,59,49,96
2,59,0,90
2,55,0,3
2,41,72,3
2,62,0,2
2,47,0,4
2,48,55,90
2,53,63,96
2,48,0,62
2,48,47,34
2,53,0,74
2,53,69,22
2,48,0,74
2,56,48,22
2,60,44,96
2,53,0,2
2,56,0,84
2,56,51,10
2,60,0,86
2,48,69,10
2,56,0,1
2,41,0,9
2,55,42,86
2,60,57,96
2,55,0,48
2,55,36,48
2,60,0,61
2,47,69,35
2,55,0,0
2,48,0,3
2,55,45,93
2,62,59,96
2,59,49,96
2,55,0,6
2,47,0,84
2,62,0,2
2,41,67,4
2,59,0,0
2,48,46,96
2,53,52,96
2,57,44,96
2,57,0,88
2,53,0,1
2,53,65,7
2,65,61,0
2,56,40,96
2,65,0,11
2,48,0,40
2,60,22,45
2,56,0,3
2,56,25,93
2,41,0,3
2,60,0,2
2,56,0,90
2,48,69,1
2,53,0,3
2,55,42,93
2,60,57,96
2,55,0,48
2,55,36,48
2,60,0,61
2,55,0,27
2,47,69,8
2,48,0,3
2,55,45,93
2,62,59,96
2,59,49,96
2,55,0,6
2,62,0,84
2,41,67,6
2,47,0,0
2,59,0,0
2,48,46,96
2,53,52,96
2,57,44,96
2,57,0,88
2,53,0,1
2,53,65,7
2,65,61,0
2,56,40,96
2,65,0,11
2,48,0,40
2,60,22,45
2,56,0,3
2,56,25,93
2,41,0,3
2,60,0,2
2,56,0,90
2,48,68,1
2,53,0,3
2,55,28,93
2,55,0,81
2,60,41,15
2,60,0,93
2,48,0,1
2,47,58,2
2,50,35,96
2,50,0,81
2,55,46,15
2,62,57,96
2,55,0,15
2,55,49,81
2,62,0,87
2,47,0,3
2,55,0,1
2,45,61,5
2,60,40,96
2,43,65,96
2,45,0,6
2,60,0,73
2,41,68,17
2,43,0,4
2,57,41,92
2,60,46,96
2,57,0,5
2,60,0,88
2,65,48,3
2,41,0,145
2,65,0,13
2,55,43,1
2,60,39,19
2,64,58,15
2,60,0,177
2,64,0,3
2,55,0,8
2,55,81,2
2,64,79,0
2,60,84,1
2,55,0,31
2,55,64,27
2,64,0,6
2,60,0,5
2,64,53,32
2,55,0,17
2,64,0,15
2,64,70,12
2,55,60,1
2,59,76,1
2,55,0,14
2,64,0,23
2,59,0,10
2,55,61,2
2,55,0,54
2,59,76,35
2,64,61,0
2,64,0,58
2,55,61,5
2,59,0,1
2,55,0,37
2,64,65,11
2,60,73,1
2,57,66,1
2,57,0,37
2,64,0,21
2,57,54,8
2,60,0,3
2,57,0,47
2,57,64,17
2,64,66,0
2,60,73,1
2,57,0,51
2,64,0,36
2,57,52,4
2,60,0,6
2,57,0,15
2,62,63,6
2,55,73,1
2,59,63,0
2,55,0,7
2,59,0,35
2,62,0,0
2,55,61,4
2,55,0,26
2,59,65,26
2,59,0,26
2,62,79,22
2,62,0,22
2,59,57,13
2,59,0,27
2,55,73,23
2,55,0,29
2,55,79,43
2,60,76,1
2,64,76,0
2,55,0,47
2,55,60,25
2,60,0,4
2,64,0,5
2,55,0,42
2,60,64,2
2,55,61,1
2,64,65,0
2,55,0,26
2,64,0,22
2,60,0,13
