track,note,velocity,time
1,41,90,960
1,41,0,386
1,41,94,14
1,41,0,60
1,41,93,20
1,36,84,320
1,41,0,20
1,38,74,60
1,36,0,28
1,38,0,54
1,41,98,0
1,41,0,366
1,41,96,32
1,41,0,58
1,41,88,22
1,41,0,286
1,41,98,34
1,41,0,80
1,38,85,0
1,38,0,80
1,41,90,0
1,41,0,394
1,41,91,6
1,41,0,70
1,34,90,10
1,34,0,464
1,36,92,16
1,36,92,240
1,36,0,28
1,36,0,32
1,36,88,20
1,36,0,60
1,36,88,20
1,36,0,80
1,34,99,0
1,34,0,240
1,36,91,0
1,36,0,240
1,41,90,0
1,41,0,394
1,41,91,6
1,41,0,70
1,34,92,10
1,34,92,240
1,34,0,28
1,34,0,32
1,34,88,20
1,34,0,60
1,34,88,20
1,34,0,80
1,36,92,0
1,31,92,240
1,36,0,28
1,31,0,32
1,36,88,20
1,36,0,60
1,35,88,20
1,35,0,80
1,34,90,0
1,34,0,240
1,36,91,0
1,36,0,240
1,41,102,0
1,41,0,400
1,41,82,0
1,41,0,60
1,41,95,20
1,41,0,320
1,36,92,0
1,36,0,80
1,40,81,0
1,40,0,80
1,41,100,0
1,45,90,320
1,41,0,14
1,48,86,66
1,45,0,10
1,53,85,70
1,48,0,40
1,36,93,200
1,53,0,8
1,36,0,224
1,38,93,8
1,45,88,400
1,38,0,28
1,50,89,52
1,45,0,40
1,45,83,280
1,50,0,36
1,41,97,44
1,45,0,42
1,41,0,38
1,43,100,0
1,46,90,320
1,43,0,14
1,50,86,66
1,46,0,10
1,55,85,70
1,50,0,40
1,38,93,200
1,55,0,8
1,38,0,224
1,36,100,8
1,40,90,320
1,36,0,14
1,43,86,66
1,40,0,10
1,48,85,70
1,43,0,40
1,43,93,200
1,48,0,8
1,43,0,224
1,41,92,8
1,41,92,240
1,41,0,28
1,41,0,32
1,41,88,20
1,41,0,60
1,41,88,20
1,41,0,80
1,34,92,0
1,41,92,240
1,34,0,28
1,41,0,32
1,39,88,20
1,39,0,60
1,37,88,20
1,37,0,80
1,36,90,0
1,36,0,394
1,36,91,6
1,36,0,70
1,34,99,10
1,34,0,240
1,36,99,0
1,36,0,240
1,41,92,0
1,41,92,240
1,41,0,28
1,41,0,32
1,41,88,20
1,41,0,60
1,41,88,20
1,41,0,80
1,34,90,0
1,34,0,394
1,34,91,6
1,34,0,70
1,36,92,10
1,36,92,240
1,36,0,28
1,36,0,32
1,36,88,20
1,36,0,60
1,36,88,20
1,36,0,80
1,34,99,0
1,34,0,240
1,36,99,0
1,36,0,240
1,41,99,0
1,41,0,400
1,41,87,0
1,41,0,56
1,41,99,24
1,53,84,320
1,41,0,30
1,48,84,50
1,53,0,32
1,48,0,48
1,41,100,0
1,45,90,320
1,41,0,14
1,48,86,66
1,45,0,10
1,53,85,70
1,48,0,40
1,36,93,200
1,53,0,8
1,36,0,224
1,38,100,8
1,41,90,320
1,38,0,14
1,45,86,66
1,41,0,10
1,50,85,70
1,45,0,40
1,45,93,200
1,50,0,8
1,45,0,224
1,43,100,8
1,46,90,320
1,43,0,14
1,50,86,66
1,46,0,10
1,55,85,70
1,50,0,40
1,38,93,200
1,55,0,8
1,38,0,224
1,36,93,8
1,43,88,400
1,36,0,28
1,48,89,52
1,43,0,40
1,43,83,280
1,48,0,36
1,40,97,44
1,43,0,42
1,40,0,38
1,42,100,0
1,46,90,320
1,42,0,14
1,49,86,66
1,46,0,10
1,54,85,70
1,49,0,40
1,37,93,200
1,54,0,8
1,37,0,224
1,39,92,8
1,46,89,400
1,39,0,12
1,39,89,68
1,46,0,12
1,41,88,308
1,39,0,12
1,42,96,68
1,41,0,10
1,42,0,70
1,44,100,0
1,47,90,320
1,44,0,14
1,51,86,66
1,47,0,10
1,56,85,70
1,51,0,40
1,39,93,200
1,56,0,8
1,39,0,224
1,37,92,8
1,44,89,400
1,37,0,12
1,37,89,68
1,44,0,12
1,39,88,308
1,37,0,12
1,41,96,68
1,39,0,10
1,41,0,70
1,42,92,0
1,42,92,240
1,42,0,28
1,42,0,32
1,42,88,20
1,42,0,60
1,42,88,20
1,42,0,80
1,35,90,0
1,35,0,464
1,37,92,16
1,37,92,240
1,37,0,28
1,37,0,32
1,37,88,20
1,37,0,60
1,37,88,20
1,37,0,80
1,35,90,0
1,35,0,240
1,37,92,0
1,37,0,240
1,42,92,0
1,42,92,240
1,42,0,28
1,42,0,32
1,42,88,20
1,42,0,60
1,42,88,20
1,42,0,80
1,35,92,0
1,30,92,240
1,35,0,28
1,30,0,32
1,35,88,20
1,35,0,60
1,38,88,20
1,38,0,80
1,37,90,0
1,37,0,464
1,35,99,16
1,35,0,240
1,37,90,0
1,37,0,240
1,42,96,0
1,46,89,320
1,42,0,6
1,49,85,74
1,46,0,16
1,54,85,64
1,49,0,26
1,37,94,214
1,54,0,46
1,42,93,194
1,37,0,30
1,46,86,290
1,42,0,20
1,49,87,60
1,46,0,10
1,54,89,70
1,49,0,28
1,37,92,292
1,54,0,14
1,37,0,40
1,42,98,26
1,42,0,66
1,39,92,14
1,46,89,400
1,39,0,12
1,39,89,68
1,46,0,12
1,41,88,308
1,39,0,12
1,42,96,68
1,41,0,10
1,42,0,70
1,44,100,0
1,47,90,320
1,44,0,14
1,51,86,66
1,47,0,10
1,56,85,70
1,51,0,40
1,39,93,200
1,56,0,8
1,39,0,224
1,37,93,8
1,44,88,400
1,37,0,28
1,49,89,52
1,44,0,40
1,44,83,280
1,49,0,36
1,41,97,44
1,44,0,42
1,41,0,38
1,43,100,0
1,47,90,62
1,43,0,14
1,50,86,30
1,47,0,10
1,55,85,42
1,50,0,8
1,38,93,0
1,55,0,8
1,38,0,32
1,40,100,6
1,43,90,0
1,40,0,14
1,47,86,42
1,43,0,10
1,52,85,8
1,47,0,18
1,35,93,0
1,52,0,8
1,35,0,22
1,33,92,8
1,40,89,62
1,33,0,12
1,33,89,58
1,40,0,10
1,35,88,46
1,33,0,12
1,36,96,48
1,35,0,10
1,36,0,6
1,38,93,0
1,45,88,30
1,38,0,28
1,50,89,0
1,45,0,28
1,45,83,36
1,50,0,10
1,42,97,0
1,45,0,30
1,42,0,20
1,44,100,0
1,48,90,64
1,44,0,14
1,51,86,66
1,48,0,10
1,56,85,70
1,51,0,40
1,39,93,200
1,56,0,8
1,39,0,224
2,65,73,960
2,60,73,0
2,56,73,0
2,77,70,640
2,80,66,80
2,77,0,26
2,77,59,54
2,80,0,34
2,68,66,46
2,77,0,20
2,56,0,54
2,65,0,0
2,60,0,0
2,65,68,6
2,60,68,0
2,56,68,0
2,68,0,38
2,77,70,602
2,80,64,80
2,77,0,24
2,77,58,56
2,80,0,30
2,68,65,50
2,77,0,24
2,65,0,56
2,56,0,0
2,60,0,0
2,68,0,0
2,65,65,0
2,60,65,0
2,56,65,0
2,56,0,480
2,60,0,0
2,65,0,0
2,65,65,0
2,61,65,0
2,58,65,0
2,58,0,480
2,61,0,0
2,65,0,0
2,64,65,0
2,60,65,0
2,58,65,0
2,67,65,0
2,67,0,480
2,64,0,0
2,60,0,0
2,58,0,0
2,61,65,0
2,58,65,0
2,53,65,0
2,53,0,240
2,58,0,0
2,61,0,0
2,64,65,0
2,60,65,0
2,58,65,0
2,67,65,0
2,67,0,240
2,64,0,0
2,60,0,0
2,58,0,0
2,65,65,0
2,60,65,0
2,56,65,0
2,56,0,480
2,60,0,0
2,65,0,0
2,65,65,0
2,61,65,0
2,58,65,0
2,58,0,480
2,61,0,0
2,65,0,0
2,64,65,0
2,60,65,0
2,58,65,0
2,67,65,0
2,67,0,480
2,64,0,0
2,60,0,0
2,58,0,0
2,65,65,0
2,61,65,0
2,58,65,0
2,58,0,240
2,61,0,0
2,65,0,0
2,64,65,0
2,60,65,0
2,58,65,0
2,67,65,0
2,67,0,240
2,64,0,0
2,60,0,0
2,58,0,0
2,65,66,0
2,57,66,0
2,72,66,0
2,72,0,250
2,57,0,0
2,65,0,0
2,65,62,70
2,60,62,0
2,57,62,0
2,57,0,114
2,60,0,0
2,65,0,0
2,65,69,46
2,57,69,0
2,72,69,0
2,72,0,426
2,57,0,0
2,65,0,0
2,65,83,54
2,60,83,0
2,57,83,0
2,69,72,560
2,72,66,80
2,69,0,6
2,77,64,74
2,72,0,14
2,72,67,66
2,77,0,32
2,69,73,48
2,72,0,8
2,57,0,32
2,65,0,0
2,60,0,0
2,69,0,40
2,65,83,0
2,62,83,0
2,57,83,0
2,65,72,560
2,69,66,80
2,65,0,6
2,74,64,74
2,69,0,14
2,69,67,66
2,74,0,32
2,65,73,48
2,69,0,8
2,57,0,32
2,65,0,0
2,62,0,0
2,65,0,40
2,62,70,0
2,58,70,0
2,55,70,0
2,55,0,960
2,58,0,0
2,62,0,0
2,64,83,0
2,60,83,0
2,58,83,0
2,67,83,0
2,64,72,560
2,67,66,80
2,64,0,6
2,72,64,74
2,67,0,14
2,67,67,66
2,72,0,32
2,64,73,48
2,67,0,8
2,60,0,32
2,58,0,0
2,67,0,0
2,64,0,0
2,64,0,40
2,65,65,0
2,60,65,0
2,56,65,0
2,56,0,480
2,60,0,0
2,65,0,0
2,65,65,0
2,61,65,0
2,58,65,0
2,58,0,480
2,61,0,0
2,65,0,0
2,64,65,0
2,60,65,0
2,58,65,0
2,67,65,0
2,67,0,480
2,64,0,0
2,60,0,0
2,58,0,0
2,65,65,0
2,61,65,0
2,58,65,0
2,58,0,240
2,61,0,0
2,65,0,0
2,64,65,0
2,60,65,0
2,58,65,0
2,67,65,0
2,67,0,240
2,64,0,0
2,60,0,0
2,58,0,0
2,65,65,0
2,60,65,0
2,56,65,0
2,56,0,480
2,60,0,0
2,65,0,0
2,65,65,0
2,61,65,0
2,58,65,0
2,58,0,480
2,61,0,0
2,65,0,0
2,64,65,0
2,60,65,0
2,58,65,0
2,67,65,0
2,67,0,480
2,64,0,0
2,60,0,0
2,58,0,0
2,65,65,0
2,61,65,0
2,58,65,0
2,58,0,240
2,61,0,0
2,65,0,0
2,64,65,0
2,60,65,0
2,58,65,0
2,67,65,0
2,67,0,240
2,64,0,0
2,60,0,0
2,58,0,0
2,65,65,0
2,60,65,0
2,57,65,0
2,57,0,960
2,60,0,0
2,65,0,0
2,53,76,0
2,60,62,80
2,65,68,80
2,60,68,0
2,57,68,0
2,57,0,222
2,65,0,0
2,60,0,0
2,65,75,18
2,60,75,0
2,57,75,0
2,57,0,60
2,65,0,0
2,60,0,0
2,65,62,20
2,60,62,0
2,57,62,0
2,57,0,110
2,65,0,0
2,60,0,0
2,65,74,50
2,60,74,0
2,57,74,0
2,57,0,144
2,65,0,0
2,60,0,0
2,65,79,16
2,57,79,0
2,72,79,0
2,72,0,134
2,65,0,0
2,57,0,0
2,53,0,14
2,60,0,12
2,50,76,0
2,57,62,80
2,65,68,80
2,62,68,0
2,57,68,0
2,57,0,222
2,65,0,0
2,62,0,0
2,65,75,18
2,62,75,0
2,57,75,0
2,57,0,60
2,65,0,0
2,62,0,0
2,65,62,20
2,62,62,0
2,57,62,0
2,57,0,110
2,65,0,0
2,62,0,0
2,65,74,50
2,62,74,0
2,57,74,0
2,57,0,144
2,65,0,0
2,62,0,0
2,62,79,16
2,65,79,0
2,69,79,0
2,69,0,134
2,62,0,0
2,65,0,0
2,50,0,14
2,57,0,12
2,70,83,0
2,67,83,0
2,62,83,0
2,58,72,560
2,62,66,80
2,58,0,6
2,67,64,74
2,62,0,14
2,62,67,66
2,67,0,32
2,58,73,48
2,62,0,8
2,62,0,32
2,70,0,0
2,67,0,0
2,58,0,40
2,64,83,0
2,60,83,0
2,58,83,0
2,67,83,0
2,64,72,560
2,67,66,80
2,64,0,6
2,72,64,74
2,67,0,14
2,67,67,66
2,72,0,32
2,64,73,48
2,67,0,8
2,60,0,32
2,58,0,0
2,67,0,0
2,64,0,0
2,64,0,40
2,66,83,0
2,61,83,0
2,58,83,0
2,58,72,560
2,61,66,80
2,58,0,6
2,66,64,74
2,61,0,14
2,61,67,66
2,66,0,32
2,58,73,48
2,61,0,8
2,61,0,32
2,66,0,0
2,58,0,0
2,58,0,40
2,51,76,0
2,58,62,80
2,63,68,80
2,58,68,0
2,54,68,0
2,54,0,222
2,63,0,0
2,58,0,0
2,63,75,18
2,58,75,0
2,54,75,0
2,54,0,60
2,63,0,0
2,58,0,0
2,63,62,20
2,58,62,0
2,54,62,0
2,54,0,110
2,63,0,0
2,58,0,0
2,63,74,50
2,58,74,0
2,54,74,0
2,54,0,144
2,63,0,0
2,58,0,0
2,63,79,16
2,54,79,0
2,58,79,0
2,58,0,134
2,63,0,0
2,54,0,0
2,51,0,14
2,58,0,12
2,63,70,0
2,59,70,0
2,56,70,0
2,56,0,960
2,59,0,0
2,63,0,0
2,65,83,0
2,61,83,0
2,59,83,0
2,68,83,0
2,65,72,560
2,68,66,80
2,65,0,6
2,73,64,74
2,68,0,14
2,68,67,66
2,73,0,32
2,65,73,48
2,68,0,8
2,61,0,32
2,59,0,0
2,68,0,0
2,65,0,0
2,65,0,40
2,66,65,0
2,61,65,0
2,57,65,0
2,57,0,480
2,61,0,0
2,66,0,0
2,62,65,0
2,59,65,0
2,54,65,0
2,54,0,480
2,59,0,0
2,62,0,0
2,65,65,0
2,61,65,0
2,59,65,0
2,68,65,0
2,68,0,480
2,65,0,0
2,61,0,0
2,59,0,0
2,62,65,0
2,59,65,0
2,54,65,0
2,54,0,240
2,59,0,0
2,62,0,0
2,65,65,0
2,61,65,0
2,59,65,0
2,68,65,0
2,68,0,240
2,65,0,0
2,61,0,0
2,59,0,0
2,66,65,0
2,61,65,0
2,57,65,0
2,57,0,480
2,61,0,0
2,66,0,0
2,62,65,0
2,59,65,0
2,54,65,0
2,54,0,480
2,59,0,0
2,62,0,0
2,65,65,0
2,61,65,0
2,59,65,0
2,68,65,0
2,68,0,480
2,65,0,0
2,61,0,0
2,59,0,0
2,62,65,0
2,59,65,0
2,54,65,0
2,54,0,240
2,59,0,0
2,62,0,0
2,65,65,0
2,61,65,0
2,59,65,0
2,68,65,0
2,68,0,240
2,65,0,0
2,61,0,0
2,59,0,0
2,70,84,0
2,66,84,0
2,61,84,0
2,66,67,720
2,61,54,80
2,58,88,80
2,61,0,28
2,66,0,14
2,61,0,0
2,70,0,0
2,61,25,38
2,70,82,0
2,66,82,0
2,61,82,0
2,58,0,10
2,66,0,36
2,61,0,0
2,58,73,514
2,61,74,80
2,58,0,24
2,66,75,56
2,61,0,14
2,61,75,66
2,58,82,80
2,61,0,10
2,66,0,10
2,58,0,36
2,61,0,10
2,66,0,0
2,70,0,0
2,51,76,14
2,58,62,80
2,66,68,80
2,63,68,0
2,58,68,0
2,58,0,222
2,66,0,0
2,63,0,0
2,66,75,18
2,63,75,0
2,58,75,0
2,58,0,60
2,66,0,0
2,63,0,0
2,66,62,20
2,63,62,0
2,58,62,0
2,58,0,110
2,66,0,0
2,63,0,0
2,66,74,50
2,63,74,0
2,58,74,0
2,58,0,144
2,66,0,0
2,63,0,0
2,63,79,16
2,54,79,0
2,70,79,0
2,70,0,134
2,63,0,0
2,54,0,0
2,51,0,14
2,58,0,12
2,44,76,0
2,51,62,80
2,63,68,80
2,59,68,0
2,56,68,0
2,56,0,222
2,63,0,0
2,59,0,0
2,63,75,18
2,59,75,0
2,56,75,0
2,56,0,60
2,63,0,0
2,59,0,0
2,63,62,20
2,59,62,0
2,56,62,0
2,56,0,110
2,63,0,0
2,59,0,0
2,63,74,50
2,59,74,0
2,56,74,0
2,56,0,144
2,63,0,0
2,59,0,0
2,56,79,16
2,59,79,0
2,63,79,0
2,63,0,134
2,56,0,0
2,59,0,0
2,44,0,14
2,51,0,12
2,49,76,0
2,56,62,80
2,65,68,80
2,61,68,0
2,59,68,0
2,68,68,0
2,68,0,222
2,61,0,0
2,65,0,0
2,59,0,0
2,65,75,18
2,61,75,0
2,59,75,0
2,68,75,0
2,68,0,60
2,61,0,0
2,65,0,0
2,59,0,0
