track,note,velocity,time
0,70,120,288
0,70,0,4
0,70,87,44
0,70,0,4
0,70,107,44
0,70,0,4
0,65,72,44
0,65,0,4
0,65,76,44
0,65,0,4
0,65,85,44
0,65,0,4
0,65,87,44
0,65,0,4
0,65,101,44
0,65,0,4
0,51,71,44
0,56,68,0
0,60,68,0
0,68,83,49
0,68,0,20
0,68,81,26
0,82,45,1
0,82,0,4
0,68,0,29
0,82,52,15
0,82,0,4
0,51,0,29
0,56,0,0
0,60,0,0
0,44,84,15
0,44,68,0
0,68,87,3
0,68,0,57
0,51,68,36
0,56,68,0
0,60,68,0
0,82,42,0
0,68,57,3
0,82,0,1
0,68,0,15
0,68,78,84
0,51,0,17
0,56,0,2
0,60,0,7
0,68,0,41
0,51,68,22
0,56,68,0
0,60,68,0
0,82,49,0
0,65,63,1
0,82,0,3
0,65,0,31
0,82,47,13
0,82,0,4
0,68,61,2
0,68,0,36
0,51,0,39
0,56,0,0
0,60,0,0
0,51,68,63
0,56,68,0
0,60,68,0
0,82,45,0
0,82,0,4
0,70,107,44
0,70,0,4
0,65,77,44
0,70,96,0
0,70,0,4
0,44,0,4
0,51,0,25
0,56,0,0
0,60,0,0
0,65,0,0
0,44,0,35
0,51,68,28
0,56,68,0
0,60,68,0
0,68,74,0
0,70,107,0
0,82,45,0
0,70,0,4
0,82,0,0
0,70,96,44
0,82,52,0
0,70,0,4
0,82,0,0
0,51,0,8
0,68,0,27
0,70,105,9
0,75,33,0
0,60,0,8
0,56,0,10
0,70,0,63
0,55,68,15
0,58,68,0
0,63,68,0
0,67,94,0
0,70,96,0
0,82,42,0
0,70,0,4
0,82,0,0
0,67,0,39
0,91,95,53
0,55,0,8
0,58,0,0
0,63,0,0
0,91,0,22
0,75,0,63
0,58,68,3
0,63,68,0
0,67,68,0
0,71,53,0
0,75,63,0
0,82,49,0
0,82,0,4
0,71,0,9
0,71,58,35
0,82,47,0
0,82,0,4
0,71,0,5
0,71,65,39
0,58,0,8
0,63,0,0
0,67,0,0
0,71,0,18
0,75,0,67
0,58,70,3
0,63,74,0
0,67,72,0
0,70,78,0
0,71,81,0
0,73,40,0
0,82,45,0
0,70,0,4
0,82,0,0
0,71,0,29
0,70,78,15
0,70,0,4
0,67,0,32
0,63,0,1
0,73,0,8
0,58,0,2
0,69,50,1
0,70,111,0
0,73,66,0
0,89,40,0
0,70,0,4
0,89,0,32
0,69,0,5
0,70,98,7
0,70,0,4
0,73,0,41
0,58,68,3
0,63,68,0
0,67,42,0
0,67,68,0
0,70,105,0
0,72,54,0
0,82,45,0
0,91,55,0
0,70,0,4
0,82,0,0
0,67,0,30
0,58,0,6
0,91,0,3
0,63,0,1
0,58,64,4
0,63,64,0
0,70,76,0
0,82,52,0
0,70,0,4
0,82,0,0
0,72,0,41
0,41,84,3
0,41,65,0
0,70,79,0
0,70,76,0
0,72,45,0
0,77,24,0
0,93,41,0
0,70,0,4
0,67,0,4
0,70,0,12
0,77,0,13
0,93,0,0
0,72,79,15
0,72,0,20
0,72,0,10
0,58,0,14
0,63,0,0
0,56,68,4
0,60,68,0
0,65,68,0
0,70,81,0
0,82,42,0
0,91,41,0
0,96,42,0
0,72,79,1
0,70,0,3
0,82,0,0
0,72,0,17
0,91,0,13
0,70,91,14
0,72,79,2
0,70,0,2
0,96,0,4
0,72,0,10
0,70,98,30
0,72,83,0
0,91,52,0
0,70,0,4
0,56,0,4
0,60,0,0
0,65,0,0
0,91,0,22
0,72,0,24
0,70,88,40
0,56,68,2
0,60,68,0
0,65,68,0
0,71,74,0
0,82,49,0
0,82,0,4
0,71,0,12
0,70,0,1
0,70,87,27
0,71,77,4
0,82,47,0
0,82,0,4
0,70,0,8
0,71,0,8
0,56,0,11
0,60,0,0
0,65,0,0
0,70,86,14
0,71,59,3
0,71,0,26
0,70,0,15
0,56,68,55
0,60,68,0
0,65,68,0
0,68,76,0
0,70,67,0
0,71,74,0
0,82,45,0
0,82,0,4
0,68,0,16
0,71,0,16
0,56,0,43
0,60,0,0
0,65,0,0
0,96,41,8
0,98,46,0
0,68,57,0
0,68,73,0
0,70,0,1
0,41,0,7
0,98,0,5
0,96,0,13
0,68,0,13
0,41,0,13
0,68,0,25
0,56,68,1
0,60,68,0
0,65,45,0
0,65,68,0
0,82,45,0
0,96,47,0
0,101,60,0
0,82,0,4
0,96,0,7
0,82,52,9
0,82,0,4
0,101,0,1
0,56,0,26
0,60,0,0
0,65,0,0
0,46,84,17
0,46,65,0
0,68,49,0
0,70,51,0
0,77,47,0
0,93,38,0
0,65,0,2
0,93,0,21
0,68,0,9
0,77,0,14
0,61,68,50
0,65,68,0
0,65,68,0
0,68,68,0
0,68,63,0
0,77,30,0
0,82,42,0
0,89,38,0
0,65,0,4
0,82,0,0
0,89,0,19
0,77,0,14
0,68,0,9
0,61,0,33
0,65,0,0
0,68,0,0
0,68,44,17
0,68,57,0
0,84,38,0
0,84,0,23
0,70,0,5
0,68,0,18
0,65,68,2
0,65,0,4
0,56,68,44
0,61,68,0
0,65,68,0
0,65,78,0
0,70,76,0
0,82,49,0
0,104,69,0
0,70,0,4
0,82,0,0
0,104,0,9
0,70,69,35
0,82,47,0
0,104,60,0
0,70,0,4
0,82,0,0
0,104,0,10
0,65,0,8
0,56,0,9
0,61,0,0
0,65,0,3
0,68,0,11
0,68,58,3
0,70,76,0
0,72,47,0
0,104,90,0
0,70,0,4
0,104,0,26
0,56,64,66
0,61,63,0
0,65,63,0
0,70,76,0
0,82,45,0
0,104,95,0
0,70,0,4
0,82,0,0
0,104,0,26
0,56,0,1
0,61,0,0
0,65,0,0
0,68,0,14
0,65,68,3
0,65,0,4
0,65,78,44
0,98,65,0
0,65,0,4
0,46,0,4
0,72,0,12
0,98,0,13
0,46,0,35
0,56,62,28
0,61,63,0
0,65,64,0
0,65,68,0
0,82,45,0
0,100,73,0
0,65,0,4
0,82,0,0
0,100,0,16
0,56,0,11
0,61,0,0
0,65,0,0
0,82,52,17
0,100,70,0
0,101,75,0
0,82,0,4
0,101,0,10
0,100,0,1
0,44,66,33
0,51,79,0
0,51,65,0
0,56,79,0
0,56,65,0
0,60,79,0
0,60,68,0
0,105,97,0
0,105,0,26
0,60,0,67
0,42,62,3
0,60,68,0
0,63,46,0
0,63,68,0
0,68,43,0
0,72,43,0
0,72,64,0
0,82,42,0
0,107,94,0
0,42,0,4
0,82,0,0
0,60,0,8
0,63,0,1
0,72,0,7
0,107,0,7
0,63,0,2
0,68,0,1
0,56,0,1
0,72,0,3
0,44,0,10
0,51,0,0
0,42,58,4
0,72,76,0
0,42,0,4
0,72,0,13
0,51,0,28
0,56,0,0
0,60,0,0
0,51,62,3
0,56,63,0
0,60,67,0
0,63,53,0
0,68,50,0
0,72,44,0
0,72,78,0
0,110,115,0
0,110,0,27
0,63,0,15
0,72,0,0
0,68,0,12
0,72,0,3
0,56,68,39
0,60,68,0
0,63,68,0
0,68,60,0
0,70,80,0
0,82,49,0
0,112,110,0
0,82,0,4
0,70,0,12
0,112,0,4
0,56,0,24
0,60,0,0
0,63,0,0
0,70,76,4
0,82,47,0
0,112,80,0
0,82,0,4
0,112,0,16
0,51,0,25
0,56,0,0
0,60,0,0
0,68,0,0
0,51,79,3
0,56,79,0
0,60,80,0
0,75,52,0
0,110,97,0
0,110,0,23
0,70,0,45
0,75,0,25
0,42,60,3
0,56,68,0
0,60,68,0
0,63,68,0
0,68,63,0
0,72,56,0
0,82,45,0
0,105,76,0
0,42,0,4
0,82,0,0
0,105,0,19
0,56,0,21
0,60,0,0
0,63,0,0
0,42,61,4
0,42,0,4
0,68,0,6
0,51,0,35
0,56,0,0
0,60,0,0
0,51,79,3
0,56,80,0
0,60,80,0
0,68,44,0
0,100,80,0
0,100,0,30
0,68,0,17
0,72,0,46
0,56,68,3
0,60,68,0
0,63,68,0
0,65,52,0
0,75,62,0
0,82,45,0
0,96,75,0
0,82,0,4
0,96,0,16
0,56,0,24
0,60,0,0
0,63,0,0
0,65,0,3
0,82,52,1
0,95,63,0
0,82,0,4
0,95,0,9
0,51,0,32
0,56,0,0
0,60,0,0
0,75,0,0
0,48,100,3
0,51,79,0
0,55,79,0
0,68,56,0
0,77,42,0
0,93,74,0
0,93,0,23
0,68,0,24
0,42,70,49
0,60,68,0
0,63,68,0
0,67,33,0
0,67,68,0
0,67,44,0
0,82,42,0
0,42,0,4
0,82,0,0
0,67,0,19
0,60,0,14
0,63,0,0
0,67,0,0
0,42,66,4
0,67,41,0
0,42,0,4
0,67,0,16
0,48,0,25
0,51,0,0
0,55,0,0
0,67,0,2
0,48,92,1
0,51,79,0
0,55,78,0
0,87,48,0
0,93,48,0
0,87,0,17
0,93,0,23
0,60,68,35
0,63,68,0
0,67,68,0
0,69,33,0
0,82,49,0
0,82,0,4
0,69,0,13
0,60,0,27
0,63,0,0
0,67,0,0
0,69,44,4
0,82,47,0
0,82,0,4
0,69,0,19
0,48,0,2
0,51,0,0
0,55,0,0
0,48,82,3
0,51,79,0
0,55,79,0
0,90,49,0
0,96,65,0
0,90,0,8
0,96,0,6
0,42,73,55
0,60,68,0
0,63,68,0
0,67,68,0
0,72,47,0
0,82,45,0
0,42,0,4
0,82,0,0
0,72,0,16
0,60,0,24
0,63,0,0
0,67,0,0
0,42,71,4
0,72,45,0
0,42,0,4
0,72,0,18
0,48,0,5
0,51,0,0
0,55,0,0
0,48,82,3
0,51,79,0
0,55,78,0
0,91,95,0
0,92,41,0
0,91,0,1
0,92,0,1
0,60,68,8
0,63,68,0
0,67,68,0
0,82,45,0
0,96,50,0
0,104,38,0
0,82,0,4
0,96,0,7
0,104,0,0
0,60,0,13
0,63,0,0
0,67,0,0
0,82,52,4
0,82,0,4
0,48,0,41
0,51,0,0
0,55,0,0
0,53,79,1
0,56,79,0
0,60,80,0
0,101,37,0
0,104,43,0
0,101,0,15
0,104,0,18
0,42,83,40
0,56,68,0
0,60,68,0
0,65,68,0
0,72,64,0
0,82,42,0
0,103,38,0
0,42,0,4
0,82,0,0
0,103,0,9
0,72,0,7
0,56,0,24
0,60,0,0
0,65,0,0
0,42,79,4
0,72,76,0
0,42,0,4
0,72,0,13
0,53,0,28
0,56,0,0
0,60,0,0
0,53,78,3
0,56,78,0
0,60,79,0
0,72,78,0
0,101,33,0
0,101,0,19
0,72,0,38
0,77,0,36
0,56,68,3
0,60,68,0
0,65,68,0
0,70,80,0
0,76,56,0
0,80,41,0
0,82,49,0
0,82,0,4
0,70,0,12
0,76,0,10
0,56,0,18
0,60,0,0
0,65,0,0
0,70,76,4
0,82,47,0
0,82,0,4
0,53,0,41
0,56,0,0
0,60,0,0
0,53,81,3
0,56,80,0
0,60,82,0
0,74,47,0
0,74,0,23
0,70,0,45
0,42,78,28
0,56,68,0
0,60,68,0
0,65,68,0
0,68,63,0
0,72,39,0
0,82,45,0
0,87,39,0
0,42,0,4
0,82,0,0
0,72,0,19
0,87,0,5
0,56,0,16
0,60,0,0
0,65,0,0
0,42,82,4
0,93,39,0
0,42,0,4
0,68,0,6
0,93,0,6
0,53,0,29
0,56,0,0
0,60,0,0
0,53,79,3
0,56,80,0
0,60,82,0
0,68,44,0
0,93,44,0
0,93,0,23
0,68,0,24
0,80,0,46
0,56,68,3
0,60,68,0
0,65,68,0
0,65,52,0
0,77,36,0
0,80,35,0
0,82,45,0
0,96,55,0
0,82,0,4
0,96,0,12
0,80,0,10
0,56,0,18
0,60,0,0
0,65,0,0
0,65,0,3
0,82,52,1
0,82,0,4
0,53,0,41
0,56,0,0
0,60,0,0
0,77,0,0
0,53,79,3
0,58,79,0
0,61,81,0
0,68,48,0
0,80,36,0
0,82,32,0
0,82,0,11
0,68,0,36
0,58,68,49
0,61,68,0
0,65,68,0
0,81,32,0
0,82,42,0
0,89,24,0
0,82,0,4
0,81,0,7
0,89,0,23
0,58,0,10
0,61,0,0
0,65,0,0
0,79,32,4
0,79,0,11
0,80,0,32
0,53,0,2
0,58,0,0
0,61,0,0
0,32,103,3
0,35,126,0
0,42,70,0
0,63,126,0
0,63,87,0
0,72,94,0
0,72,84,0
0,80,68,0
0,35,0,4
0,42,0,0
0,63,0,17
0,72,0,0
0,63,44,3
0,72,51,0
0,63,0,22
0,72,0,0
0,63,67,3
0,72,74,0
0,63,0,19
0,72,0,0
0,63,54,3
0,72,61,0
0,63,0,23
0,72,0,0
0,42,106,2
0,56,110,0
0,60,109,0
0,63,109,0
0,63,54,1
0,72,61,0
0,42,0,3
0,32,0,9
0,63,0,8
0,72,0,0
0,63,66,3
0,72,73,0
0,60,0,19
0,63,0,2
0,72,0,0
0,63,0,2
0,56,0,1
0,63,66,0
0,70,55,0
0,72,73,0
0,63,0,17
0,72,0,0
0,63,51,3
0,72,58,0
0,70,0,7
0,63,0,19
0,72,0,0
0,32,103,2
0,35,126,0
0,42,63,0
0,70,62,0
0,63,57,1
0,72,64,0
0,35,0,3
0,42,0,0
0,63,0,17
0,72,0,0
0,70,0,2
0,63,56,1
0,72,63,0
0,63,0,21
0,72,0,0
0,63,48,3
0,72,55,0
0,63,0,22
0,72,0,0
0,63,55,3
0,72,62,0
0,42,81,23
0,56,109,0
0,60,108,0
0,63,108,0
0,70,77,0
0,108,32,0
0,63,0,2
0,72,0,0
0,42,0,2
0,63,41,1
0,108,0,8
0,63,0,9
0,70,0,1
0,63,50,2
0,32,0,12
0,60,0,8
0,63,0,0
0,63,0,2
0,63,46,1
0,106,33,0
0,56,0,3
0,106,0,7
0,63,0,9
0,63,49,3
0,63,0,24
0,32,96,2
0,35,126,0
0,42,63,0
0,104,31,0
0,63,43,1
0,35,0,3
0,42,0,0
0,63,0,16
0,104,0,0
0,63,46,3
0,32,0,4
0,32,89,21
0,63,0,1
0,63,41,3
0,63,0,18
0,63,43,3
0,32,0,5
0,63,0,16
0,29,82,2
0,42,91,0
0,56,109,0
0,60,109,0
0,63,109,0
0,70,63,0
0,101,28,0
0,63,41,1
0,42,0,3
0,70,0,6
0,63,0,15
0,63,54,3
0,60,0,4
0,101,0,1
0,56,0,6
0,63,0,5
0,70,73,4
0,63,0,2
0,63,41,3
0,29,0,1
0,63,0,17
0,70,0,0
0,63,39,3
0,72,0,4
0,80,0,15
0,63,0,1
0,32,103,2
0,35,126,0
0,42,65,0
0,68,84,0
0,77,59,0
0,63,24,1
0,68,96,0
0,35,0,3
0,42,0,0
0,63,0,16
0,68,0,0
0,63,34,3
0,68,64,0
0,42,88,25
0,63,0,1
0,68,0,0
0,42,0,3
0,63,25,0
0,68,77,0
0,63,0,4
0,63,0,14
0,68,0,0
0,63,30,3
0,68,51,0
0,63,0,21
0,68,0,0
0,42,81,2
0,56,109,0
0,60,107,0
0,63,108,0
0,70,70,0
0,63,32,1
0,68,39,0
0,42,0,3
0,32,0,16
0,63,0,5
0,68,0,0
0,70,0,2
0,63,42,1
0,68,49,0
0,60,0,15
0,56,0,1
0,63,0,1
0,68,0,0
0,29,73,3
0,63,0,1
0,29,0,29
0,68,0,15
0,77,0,0
0,35,126,3
0,36,101,0
0,42,70,0
0,63,110,0
0,63,71,0
0,70,78,0
0,70,86,0
0,75,51,0
0,35,0,4
0,42,0,0
0,63,0,17
0,70,0,0
0,63,44,3
0,70,51,0
0,63,0,22
0,70,0,0
0,63,52,3
0,70,59,0
0,63,0,19
0,70,0,0
0,63,54,3
0,70,61,0
0,36,0,15
0,63,0,8
0,70,0,0
0,42,106,2
0,55,107,0
0,60,109,0
0,63,109,0
0,70,73,0
0,63,54,1
0,70,61,0
0,42,0,3
0,70,0,12
0,63,0,5
0,70,0,0
0,63,66,3
0,70,73,0
0,63,0,21
0,70,0,0
0,63,66,3
0,70,66,0
0,70,73,0
0,55,0,5
0,60,0,4
0,63,0,1
0,63,0,7
0,70,0,0
0,63,51,3
0,70,0,0
0,70,58,0
0,63,0,26
0,70,0,0
0,35,126,2
0,36,101,0
0,42,63,0
0,63,57,1
0,70,64,0
