track,note,velocity,time
2,60,100,0
2,60,100,0
2,72,100,0
2,72,100,0
2,67,100,0
2,67,100,0
2,68,100,0
2,68,100,0
2,70,100,0
2,70,100,0
2,68,100,0
2,68,100,0
2,67,100,0
2,67,100,0
2,63,100,0
2,63,100,0
2,60,100,0
2,60,100,0
2,72,100,0
2,72,100,0
2,67,100,0
2,67,100,0
2,68,100,0
2,68,100,0
2,70,100,0
2,70,100,0
2,68,100,0
2,68,100,0
2,67,100,0
2,67,100,0
2,63,100,0
2,63,100,0
2,60,100,0
2,60,100,0
2,72,100,0
2,72,100,0
2,67,100,0
2,67,100,0
2,68,100,0
2,68,100,0
2,70,100,0
2,70,100,0
2,68,100,0
2,68,100,0
2,67,100,0
2,67,100,0
2,63,100,0
2,63,100,0
2,60,100,0
2,60,100,0
2,72,100,0
2,72,100,0
2,67,100,0
2,67,100,0
2,68,100,0
2,68,100,0
2,60,100,0
2,60,100,0
2,60,100,240
2,60,100,0
2,60,100,240
2,60,100,0
2,72,100,0
2,72,100,0
2,67,100,0
2,67,100,0
2,68,100,0
2,68,100,0
2,70,100,0
2,70,100,0
2,68,100,0
2,68,100,0
2,67,100,0
2,67,100,0
2,63,100,0
2,63,100,0
2,60,100,0
2,60,100,0
2,72,100,0
2,72,100,0
2,67,100,0
2,67,100,0
2,68,100,0
2,68,100,0
2,70,100,0
2,70,100,0
2,68,100,0
2,68,100,0
2,67,100,0
2,67,100,0
2,63,100,0
2,63,100,0
2,60,100,0
2,60,100,0
2,72,100,0
2,72,100,0
2,67,100,0
2,67,100,0
2,68,100,0
2,68,100,0
2,70,100,0
2,70,100,0
2,68,100,0
2,68,100,0
2,67,100,0
2,67,100,0
2,63,100,0
2,63,100,0
2,60,100,0
2,60,100,0
2,72,100,0
2,72,100,0
2,67,100,0
2,67,100,0
2,68,100,0
2,68,100,0
2,70,100,0
2,70,100,0
2,68,100,0
2,68,100,0
2,67,100,0
2,67,100,0
2,63,100,0
2,63,100,0
2,62,100,0
2,64,100,0
2,62,100,0
2,64,100,0
2,62,100,0
2,64,100,0
2,62,100,0
2,64,100,0
2,62,100,0
2,64,100,0
2,62,100,0
2,64,100,0
2,62,100,0
2,64,100,0
2,62,100,0
2,64,100,0
2,62,100,0
2,64,100,0
2,62,100,0
2,64,100,0
2,62,100,0
2,64,100,0
2,64,100,0
2,62,100,0
2,64,100,0
2,62,100,0
2,64,100,0
2,62,100,120
2,64,100,0
2,62,100,0
2,64,100,0
2,62,100,0
2,64,100,0
2,62,100,0
2,64,100,0
2,62,100,0
2,64,100,0
2,62,100,0
2,64,100,0
2,60,100,0
2,64,100,0
2,55,100,2880
2,55,100,0
2,55,100,0
2,55,100,720
2,55,100,0
2,55,100,0
2,55,100,0
2,55,100,240
2,58,100,0
2,58,100,0
2,56,100,0
2,55,100,0
2,53,100,720
2,55,100,0
2,53,100,0
2,55,100,0
2,55,100,0
2,55,100,0
2,55,100,720
2,55,100,0
2,55,100,0
2,55,100,0
2,55,100,240
2,58,100,0
2,58,100,0
2,56,100,0
2,55,100,0
2,53,100,720
2,55,100,0
2,53,100,0
2,55,100,2160
2,55,100,0
2,55,100,0
2,55,100,0
2,55,100,0
2,55,100,240
2,55,100,0
2,55,100,0
2,58,100,0
2,56,100,0
2,56,100,480
2,55,100,0
2,53,100,0
2,55,100,0
2,55,100,0
2,55,100,1200
2,55,100,0
2,55,100,0
2,55,100,120
2,55,100,0
2,55,100,0
2,55,100,0
2,67,100,480
2,67,100,120
2,67,100,0
2,67,100,0
2,72,100,0
2,67,100,0
2,55,100,1680
2,55,100,360
2,55,100,240
2,55,100,1440
2,55,100,0
2,55,100,0
2,55,100,0
2,60,100,0
2,64,100,0
2,55,100,2880
2,55,100,0
2,55,100,0
2,55,100,720
2,55,100,0
2,55,100,0
2,55,100,0
2,55,100,240
2,58,100,0
2,58,100,0
2,56,100,0
2,55,100,0
2,53,100,720
2,55,100,0
2,53,100,0
2,55,100,0
2,55,100,0
2,55,100,0
2,55,100,720
2,55,100,0
2,55,100,0
2,55,100,0
2,55,100,240
2,58,100,0
2,58,100,0
2,56,100,0
2,55,100,0
2,53,100,720
2,55,100,0
2,53,100,0
2,55,100,2160
2,55,100,0
2,55,100,0
2,55,100,0
2,55,100,0
2,55,100,240
2,60,100,0
2,60,100,0
2,60,100,0
2,58,100,0
2,60,100,480
2,60,100,0
2,58,100,0
2,60,100,0
2,60,100,0
2,55,100,1200
2,55,100,0
2,55,100,0
2,55,100,120
2,55,100,0
2,55,100,0
2,55,100,0
2,67,100,480
2,67,100,120
2,67,100,0
2,67,100,0
2,72,100,0
2,67,100,0
2,55,100,1680
2,55,100,360
2,55,100,240
2,48,100,1440
2,48,100,0
2,48,100,0
2,48,100,0
2,55,100,0
2,54,100,0
2,54,100,120
2,53,100,0
2,53,100,120
2,52,100,0
2,52,100,120
2,51,100,0
2,50,100,120
2,50,100,120
2,49,100,0
2,48,100,120
2,48,100,0
2,48,100,0
2,48,100,0
2,48,100,120
2,48,100,0
2,48,100,120
2,48,100,0
2,48,100,0
2,48,100,0
2,48,100,120
2,48,100,0
2,55,100,0
2,54,100,0
2,54,100,120
2,53,100,0
2,53,100,120
2,52,100,0
2,52,100,120
2,51,100,0
2,50,100,120
2,50,100,120
2,49,100,0
2,48,100,120
2,48,100,0
2,48,100,0
2,48,100,0
2,48,100,120
2,48,100,0
2,48,100,120
2,48,100,0
2,48,100,0
2,48,100,0
2,48,100,120
2,48,100,0
2,55,100,0
2,54,100,0
2,54,100,120
2,53,100,0
2,53,100,120
2,52,100,0
2,52,100,120
2,51,100,0
2,50,100,120
2,50,100,120
2,49,100,0
2,48,100,120
2,48,100,0
2,48,100,0
2,48,100,0
2,48,100,120
2,48,100,0
2,48,100,120
2,48,100,0
2,48,100,0
2,48,100,0
2,48,100,120
2,48,100,0
2,55,100,0
2,54,100,0
2,54,100,120
2,53,100,0
2,53,100,120
2,52,100,0
2,52,100,120
2,51,100,0
2,50,100,120
2,50,100,120
2,49,100,0
2,48,100,120
2,48,100,0
2,48,100,0
2,48,100,0
2,48,100,120
2,48,100,0
2,48,100,120
2,48,100,0
2,48,100,0
2,48,100,0
2,48,100,120
2,48,100,0
2,62,100,0
2,64,100,0
2,62,100,0
2,64,100,0
2,62,100,0
2,64,100,0
2,62,100,0
2,64,100,0
2,62,100,0
2,64,100,0
2,62,100,0
2,64,100,0
2,62,100,0
2,64,100,0
2,62,100,0
2,64,100,0
2,62,100,0
2,64,100,0
2,62,100,0
2,64,100,0
2,62,100,0
2,64,100,0
2,64,100,0
2,62,100,0
2,64,100,0
2,62,100,0
2,64,100,0
2,62,100,120
2,64,100,0
2,62,100,0
2,64,100,0
2,62,100,0
2,64,100,0
2,62,100,0
2,64,100,0
2,62,100,0
2,64,100,0
2,62,100,0
2,64,100,0
2,55,100,0
2,55,100,0
2,53,100,0
2,55,100,0
2,55,100,1440
2,53,100,0
2,55,100,0
2,55,100,0
2,53,100,760
2,50,100,720
2,52,100,120
2,48,100,1920
2,79,100,0
2,48,100,0
2,49,100,0
2,49,100,0
2,52,100,0
2,52,100,0
2,53,100,0
2,53,100,0
2,52,100,0
2,52,100,0
2,49,100,0
2,49,100,0
2,79,100,0
2,48,100,0
2,49,100,0
2,52,100,0
2,53,100,0
2,77,100,0
2,52,100,0
2,49,100,0
2,76,100,0
2,48,100,0
2,48,100,240
2,48,100,240
2,48,100,0
2,48,100,240
2,48,100,240
2,48,100,720
2,79,100,0
2,48,100,0
2,48,100,120
2,48,100,0
2,49,100,0
2,49,100,0
2,49,100,120
2,50,100,0
2,49,100,0
2,52,100,0
2,52,100,0
2,52,100,120
2,53,100,0
2,53,100,0
2,53,100,120
2,53,100,0
2,52,100,0
2,52,100,0
2,52,100,120
2,49,100,0
2,49,100,0
2,49,100,120
2,79,100,0
2,48,100,0
2,48,100,0
2,48,100,0
2,48,100,120
2,48,100,0
2,49,100,0
2,49,100,0
2,49,100,0
2,49,100,120
2,50,100,0
2,49,100,0
2,52,100,0
2,52,100,0
2,52,100,0
2,52,100,120
2,53,100,0
2,53,100,0
2,53,100,0
2,53,100,120
2,53,100,0
2,77,100,0
2,52,100,0
2,52,100,0
2,52,100,0
2,52,100,0
2,49,100,0
2,49,100,0
2,49,100,0
2,49,100,120
2,76,100,0
2,48,100,0
2,48,100,240
2,48,100,240
2,48,100,0
2,48,100,240
2,48,100,240
2,49,100,720
2,49,100,240
2,49,100,240
2,50,100,1080
2,49,100,240
3,60,100,7680
3,60,100,0
3,72,100,0
3,72,100,0
3,67,100,0
3,67,100,0
3,68,100,0
3,68,100,0
3,70,100,0
3,70,100,0
3,68,100,0
3,68,100,0
3,67,100,0
3,67,100,0
3,63,100,0
3,63,100,0
3,60,100,0
3,60,100,0
3,72,100,0
3,72,100,0
3,67,100,0
3,67,100,0
3,68,100,0
3,68,100,0
3,70,100,0
3,70,100,0
3,68,100,0
3,68,100,0
3,67,100,0
3,67,100,0
3,63,100,0
3,63,100,0
3,60,100,0
3,60,100,0
3,72,100,0
3,72,100,0
3,67,100,0
3,67,100,0
3,68,100,0
3,68,100,0
3,70,100,0
3,70,100,0
3,68,100,0
3,68,100,0
3,67,100,0
3,67,100,0
3,63,100,0
3,63,100,0
3,60,100,0
3,60,100,0
3,72,100,0
3,72,100,0
3,67,100,0
3,67,100,0
3,68,100,0
3,68,100,0
3,70,100,0
3,70,100,0
3,68,100,0
3,68,100,0
3,67,100,0
3,67,100,0
3,63,100,0
3,63,100,0
3,60,100,15360
3,60,100,0
3,72,100,0
3,72,100,0
3,67,100,0
3,67,100,0
3,68,100,0
3,68,100,0
3,70,100,0
3,70,100,0
3,68,100,0
3,68,100,0
3,67,100,0
3,67,100,0
3,63,100,0
3,63,100,0
3,60,100,0
3,60,100,0
3,72,100,0
3,72,100,0
3,67,100,0
3,67,100,0
3,68,100,0
3,68,100,0
3,70,100,0
3,70,100,0
3,68,100,0
3,68,100,0
3,67,100,0
3,67,100,0
3,63,100,0
3,63,100,0
3,60,100,0
3,60,100,0
3,72,100,0
3,72,100,0
3,67,100,0
3,67,100,0
3,68,100,0
3,68,100,0
3,70,100,0
3,70,100,0
3,68,100,0
3,68,100,0
3,67,100,0
3,67,100,0
3,63,100,0
3,63,100,0
3,60,100,0
3,60,100,0
3,72,100,0
3,72,100,0
3,67,100,0
3,67,100,0
3,68,100,0
3,68,100,0
3,70,100,0
3,70,100,0
3,68,100,0
3,68,100,0
3,67,100,0
3,67,100,0
3,63,100,0
3,63,100,0
3,60,100,0
3,60,100,0
3,72,100,0
3,72,100,0
3,67,100,0
3,67,100,0
3,68,100,0
3,68,100,0
3,70,100,0
3,70,100,0
3,68,100,0
3,68,100,0
3,67,100,0
3,67,100,0
3,63,100,0
3,63,100,0
3,60,100,0
3,60,100,0
3,72,100,0
3,72,100,0
3,67,100,0
3,67,100,0
3,68,100,0
3,68,100,0
3,70,100,0
3,70,100,0
3,68,100,0
3,68,100,0
3,67,100,0
3,67,100,0
3,63,100,0
3,63,100,0
3,60,100,0
3,60,100,0
3,72,100,0
3,72,100,0
3,67,100,0
3,67,100,0
3,68,100,0
3,68,100,0
3,70,100,0
3,70,100,0
3,68,100,0
3,68,100,0
3,67,100,0
3,67,100,0
3,63,100,0
3,63,100,0
3,60,100,1920
3,60,100,0
3,72,100,0
3,72,100,0
3,67,100,0
3,67,100,0
3,68,100,0
3,68,100,0
3,70,100,0
3,70,100,0
3,68,100,0
3,68,100,0
3,67,100,0
3,67,100,0
3,63,100,0
3,63,100,0
3,60,100,0
3,60,100,0
3,72,100,0
3,72,100,0
3,67,100,0
3,67,100,0
3,68,100,0
3,68,100,0
3,70,100,0
3,70,100,0
3,68,100,0
3,68,100,0
3,67,100,0
3,67,100,0
3,63,100,0
3,63,100,0
3,60,100,0
3,60,100,0
3,72,100,0
3,72,100,0
3,67,100,0
3,67,100,0
3,68,100,0
3,68,100,0
3,70,100,0
3,70,100,0
3,68,100,0
3,68,100,0
3,67,100,0
3,67,100,0
3,63,100,0
3,63,100,0
3,60,100,0
3,60,100,0
3,72,100,0
3,72,100,0
3,67,100,0
3,67,100,0
3,68,100,0
3,68,100,0
3,70,100,0
3,70,100,0
3,68,100,0
3,68,100,0
3,67,100,0
3,67,100,0
3,63,100,0
3,63,100,0
3,60,100,0
3,60,100,0
3,72,100,0
3,72,100,0
3,67,100,0
3,67,100,0
3,68,100,0
3,68,100,0
3,70,100,0
3,70,100,0
3,68,100,0
3,68,100,0
3,67,100,0
3,67,100,0
3,63,100,0
3,63,100,0
3,60,100,0
3,60,100,0
3,72,100,0
3,72,100,0
3,67,100,0
3,67,100,0
3,68,100,0
3,68,100,0
3,70,100,0
3,70,100,0
3,68,100,0
3,68,100,0
3,67,100,0
3,67,100,0
3,63,100,0
3,63,100,0
3,60,100,0
3,60,100,0
3,72,100,0
3,72,100,0
3,67,100,0
3,67,100,0
3,68,100,0
3,68,100,0
3,70,100,0
3,70,100,0
3,68,100,0
3,68,100,0
3,67,100,0
3,67,100,0
3,63,100,0
3,63,100,0
3,60,100,0
3,60,100,0
3,72,100,0
3,72,100,0
3,67,100,0
3,67,100,0
3,68,100,0
3,68,100,0
3,70,100,0
3,70,100,0
3,68,100,0
3,68,100,0
3,67,100,0
3,67,100,0
3,67,100,0
3,67,100,0
3,60,100,7680
3,60,100,0
3,72,100,0
3,72,100,0
3,67,100,0
3,67,100,0
3,68,100,0
3,68,100,0
3,70,100,0
3,70,100,0
3,68,100,0
3,68,100,0
3,67,100,0
3,67,100,0
3,63,100,0
3,63,100,0
3,60,100,0
3,60,100,0
3,72,100,0
3,72,100,0
3,67,100,0
3,67,100,0
3,68,100,0
3,68,100,0
3,70,100,0
3,70,100,0
3,68,100,0
3,68,100,0
3,67,100,0
3,67,100,0
3,63,100,0
3,63,100,0
3,60,100,0
3,60,100,0
3,72,100,0
3,72,100,0
3,67,100,0
3,67,100,0
3,68,100,0
3,68,100,0
3,70,100,0
3,70,100,0
3,68,100,0
3,68,100,0
3,67,100,0
3,67,100,0
3,63,100,0
3,63,100,0
3,60,100,0
3,60,100,0
3,72,100,0
3,72,100,0
3,67,100,0
3,67,100,0
3,68,100,0
3,68,100,0
3,70,100,0
3,70,100,0
3,68,100,0
3,68,100,0
3,67,100,0
3,67,100,0
3,63,100,0
3,63,100,0
3,60,100,0
3,60,100,0
3,72,100,0
3,72,100,0
3,67,100,0
3,67,100,0
3,68,100,0
3,68,100,0
3,70,100,0
3,70,100,0
3,68,100,0
3,68,100,0
3,67,100,0
3,67,100,0
3,63,100,0
3,63,100,0
3,60,100,0
3,60,100,0
3,72,100,0
3,72,100,0
3,67,100,0
3,67,100,0
3,68,100,0
3,68,100,0
3,70,100,0
3,70,100,0
3,68,100,0
3,68,100,0
3,67,100,0
3,67,100,0
3,63,100,0
3,63,100,0
3,60,100,0
3,60,100,0
3,72,100,0
3,72,100,0
3,67,100,0
3,67,100,0
3,68,100,0
3,68,100,0
3,70,100,0
3,70,100,0
3,68,100,0
3,68,100,0
3,67,100,0
3,67,100,0
3,63,100,0
3,63,100,0
3,60,100,0
3,60,100,0
3,72,100,0
3,72,100,0
3,67,100,0
3,67,100,0
3,68,100,0
3,68,100,0
3,70,100,0
3,70,100,0
3,68,100,0
3,68,100,0
3,67,100,0
3,67,100,0
3,63,100,0
3,63,100,0
3,60,100,0
3,60,100,0
3,72,100,0
3,72,100,0
3,67,100,0
3,67,100,0
3,68,100,0
3,68,100,0
3,70,100,0
3,70,100,0
3,68,100,0
3,68,100,0
3,67,100,0
3,67,100,0
3,63,100,0
3,63,100,0
3,60,100,0
3,60,100,0
3,72,100,0
3,72,100,0
3,67,100,0
3,67,100,0
3,68,100,0
3,68,100,0
3,70,100,0
3,70,100,0
3,68,100,0
3,68,100,0
3,67,100,0
3,67,100,0
3,63,100,0
3,63,100,0
3,60,100,0
3,60,100,0
3,72,100,0
3,72,100,0
