track,note,velocity,time
3,46,127,0
3,49,127,0
3,35,127,0
3,46,127,0
3,35,127,0
3,46,127,0
3,38,127,0
3,35,127,0
3,46,127,0
3,35,127,0
3,46,127,0
3,35,127,0
3,46,127,0
3,35,127,0
3,46,127,0
3,38,127,0
3,35,127,0
3,46,127,0
3,35,127,0
3,46,127,0
3,49,127,0
3,35,127,0
3,46,127,0
3,35,127,0
3,46,127,0
3,38,127,0
3,35,127,0
3,46,127,0
3,35,127,0
3,46,127,0
3,35,127,0
3,46,127,0
3,35,127,0
3,46,127,0
3,38,127,0
3,35,127,0
3,46,127,0
3,35,127,0
3,46,127,0
3,49,127,0
3,35,127,0
3,46,127,0
3,35,127,0
3,46,127,0
3,38,127,0
3,35,127,0
3,46,127,0
3,35,127,0
3,46,127,0
3,35,127,0
3,46,127,0
3,35,127,0
3,46,127,0
3,38,127,0
3,35,127,0
3,46,127,0
3,35,127,0
3,46,127,0
3,49,127,0
3,35,127,0
3,46,127,0
3,35,127,0
3,46,127,0
3,38,127,0
3,35,127,0
3,46,127,0
3,35,127,0
3,46,127,0
3,35,127,0
3,46,127,0
3,35,127,0
3,46,127,0
3,38,127,0
3,35,127,0
3,46,127,0
3,35,127,0
3,46,127,0
3,49,127,0
3,35,127,0
3,46,127,0
3,35,127,0
3,46,127,0
3,38,127,0
3,35,127,0
3,46,127,0
3,35,127,0
3,46,127,0
3,35,127,0
3,46,127,0
3,35,127,0
3,46,127,0
3,38,127,0
3,35,127,0
3,46,127,0
3,35,127,0
3,46,127,0
3,49,127,0
3,35,127,0
3,46,127,0
3,35,127,0
3,46,127,0
3,38,127,0
3,35,127,0
3,46,127,0
3,35,127,0
3,46,127,0
3,35,127,0
3,46,127,0
3,35,127,0
3,46,127,0
3,38,127,0
3,35,127,0
3,46,127,0
3,35,127,0
3,46,127,0
3,49,127,0
3,35,127,0
3,46,127,0
3,35,127,0
3,46,127,0
3,38,127,0
3,35,127,0
3,46,127,0
3,35,127,0
3,46,127,0
3,35,127,0
3,46,127,0
3,35,127,0
3,46,127,0
3,38,127,0
3,35,127,0
3,46,127,0
3,35,127,0
3,46,127,0
3,49,127,0
3,35,127,0
3,46,127,0
3,35,127,0
3,46,127,0
3,38,127,0
3,35,127,0
3,46,127,0
3,35,127,0
3,46,127,0
3,38,127,0
3,38,127,0
3,46,127,0
3,35,127,0
3,38,127,0
3,35,127,0
3,41,127,0
3,35,127,0
3,46,127,0
3,49,127,0
3,35,127,0
3,46,127,0
3,35,127,0
3,46,127,0
3,38,127,0
3,35,127,0
3,46,127,0
3,35,127,0
3,46,127,0
3,35,127,0
3,46,127,0
3,35,127,0
3,46,127,0
3,38,127,0
3,35,127,0
3,46,127,0
3,35,127,0
3,46,127,0
3,49,127,0
3,35,127,0
3,46,127,0
3,35,127,0
3,46,127,0
3,38,127,0
3,35,127,0
3,46,127,0
3,46,127,0
3,35,127,0
3,35,127,0
3,46,127,0
3,35,127,0
3,46,127,0
3,38,127,0
3,35,127,0
3,46,127,0
3,38,127,0
3,38,127,0
3,46,127,0
3,49,127,0
3,35,127,0
3,46,127,0
3,35,127,0
3,46,127,0
3,38,127,0
3,35,127,0
3,46,127,0
3,35,127,0
3,46,127,0
3,35,127,0
3,46,127,0
3,35,127,0
3,46,127,0
3,38,127,0
3,35,127,0
3,46,127,0
3,35,127,0
3,46,127,0
3,49,127,0
3,35,127,0
3,46,127,0
3,35,127,0
3,46,127,0
3,38,127,0
3,35,127,0
3,46,127,0
3,46,127,0
3,35,127,0
3,35,127,0
3,46,127,0
3,35,127,0
3,46,127,0
3,38,127,0
3,35,127,0
3,46,127,0
3,35,127,0
3,46,127,0
3,49,127,0
3,35,127,0
3,46,127,0
3,35,127,0
3,46,127,0
3,38,127,0
3,35,127,0
3,46,127,0
3,35,127,0
3,46,127,0
3,35,127,0
3,46,127,0
3,35,127,0
3,46,127,0
3,38,127,0
3,35,127,0
3,46,127,0
3,35,127,0
3,46,127,0
3,49,127,0
3,35,127,0
3,46,127,0
3,35,127,0
3,46,127,0
3,38,127,0
3,35,127,0
3,46,127,0
3,46,127,0
3,35,127,0
3,35,127,0
3,46,127,0
3,35,127,0
3,46,127,0
3,38,127,0
3,35,127,0
3,46,127,0
3,38,127,0
3,38,127,0
3,46,127,0
3,49,127,0
3,35,127,0
3,46,127,0
3,35,127,0
3,46,127,0
3,38,127,0
3,35,127,0
3,46,127,0
3,35,127,0
3,46,127,0
3,35,127,0
3,46,127,0
3,35,127,0
3,46,127,0
3,38,127,0
3,35,127,0
3,46,127,0
3,35,127,0
3,46,127,0
3,49,127,0
3,38,127,0
3,35,127,0
3,46,127,0
3,35,127,0
3,46,127,0
3,38,127,0
3,46,127,0
3,35,127,0
3,46,127,0
3,38,127,0
3,38,127,0
3,46,127,0
3,35,127,0
3,46,127,0
3,38,127,0
3,38,127,0
3,46,127,0
3,35,127,0
3,52,127,0
3,49,127,0
3,52,127,0
3,35,127,0
3,52,127,0
3,52,127,0
3,52,127,0
3,35,127,0
3,52,127,0
3,49,127,0
3,52,127,0
3,38,127,0
3,35,127,0
3,52,127,0
3,52,127,0
3,52,127,0
3,35,127,0
3,52,127,0
3,49,127,0
3,52,127,0
3,35,127,0
3,52,127,0
3,52,127,0
3,52,127,0
3,35,127,0
3,52,127,0
3,49,127,0
3,52,127,0
3,38,127,0
3,35,127,0
3,52,127,0
3,52,127,0
3,52,127,0
3,35,127,0
3,52,127,0
3,49,127,0
3,52,127,0
3,35,127,0
3,52,127,0
3,52,127,0
3,52,127,0
3,35,127,0
3,52,127,0
3,49,127,0
3,52,127,0
3,38,127,0
3,35,127,0
3,52,127,0
3,52,127,0
3,52,127,0
3,35,127,0
3,52,127,0
3,49,127,0
3,52,127,0
3,35,127,0
3,52,127,0
3,52,127,0
3,52,127,0
3,35,127,0
3,52,127,0
3,49,127,0
3,52,127,0
3,38,127,0
3,35,127,0
3,52,127,0
3,52,127,0
3,52,127,0
3,35,127,0
3,52,127,0
3,49,127,0
3,52,127,0
3,35,127,0
3,52,127,0
3,52,127,0
3,52,127,0
3,35,127,0
3,52,127,0
3,49,127,0
3,52,127,0
3,38,127,0
3,35,127,0
3,52,127,0
3,52,127,0
3,52,127,0
3,35,127,0
3,52,127,0
3,49,127,0
3,52,127,0
3,35,127,0
3,52,127,0
3,52,127,0
3,52,127,0
3,35,127,0
3,52,127,0
3,49,127,0
3,52,127,0
3,38,127,0
3,35,127,0
3,52,127,0
3,52,127,0
3,52,127,0
3,35,127,0
3,38,127,0
3,38,127,0
3,46,127,0
3,35,127,0
3,46,127,0
3,38,127,0
3,46,127,0
3,35,127,0
3,38,127,0
3,38,127,0
3,38,127,0
3,47,127,0
3,45,127,0
3,38,127,0
3,38,127,0
3,35,127,0
3,46,127,0
3,49,127,0
3,35,127,0
3,46,127,0
3,35,127,0
3,46,127,0
3,38,127,0
3,35,127,0
3,46,127,0
3,35,127,0
3,46,127,0
3,35,127,0
3,46,127,0
3,35,127,0
3,46,127,0
3,38,127,0
3,35,127,0
3,46,127,0
3,35,127,0
3,46,127,0
3,49,127,0
3,35,127,0
3,46,127,0
3,35,127,0
3,46,127,0
3,38,127,0
3,35,127,0
3,46,127,0
3,46,127,0
3,35,127,0
3,35,127,0
3,46,127,0
3,35,127,0
3,46,127,0
3,38,127,0
3,35,127,0
3,46,127,0
3,35,127,0
3,46,127,0
3,49,127,0
3,35,127,0
3,46,127,0
3,35,127,0
3,46,127,0
3,38,127,0
3,35,127,0
3,46,127,0
3,35,127,0
3,46,127,0
3,35,127,0
3,46,127,0
3,35,127,0
3,46,127,0
3,38,127,0
3,35,127,0
3,46,127,0
3,35,127,0
3,46,127,0
3,49,127,0
3,35,127,0
3,46,127,0
3,35,127,0
3,46,127,0
3,38,127,0
3,35,127,0
3,46,127,0
3,46,127,0
3,35,127,0
3,35,127,0
3,46,127,0
3,35,127,0
3,46,127,0
3,38,127,0
3,35,127,0
3,46,127,0
3,35,127,0
3,46,127,0
3,49,127,0
3,35,127,0
3,46,127,0
3,35,127,0
3,46,127,0
3,38,127,0
3,35,127,0
3,46,127,0
3,35,127,0
3,46,127,0
3,35,127,0
3,46,127,0
3,35,127,0
3,46,127,0
3,38,127,0
3,35,127,0
3,46,127,0
3,35,127,0
3,46,127,0
3,49,127,0
3,35,127,0
3,46,127,0
3,35,127,0
3,46,127,0
3,38,127,0
3,35,127,0
3,46,127,0
3,46,127,0
3,35,127,0
3,35,127,0
3,46,127,0
3,35,127,0
3,46,127,0
3,38,127,0
3,35,127,0
3,46,127,0
3,35,127,0
3,46,127,0
3,49,127,0
3,35,127,0
3,46,127,0
3,35,127,0
3,46,127,0
3,38,127,0
3,35,127,0
3,46,127,0
3,35,127,0
3,46,127,0
3,35,127,0
3,46,127,0
3,35,127,0
3,46,127,0
3,38,127,0
3,35,127,0
3,46,127,0
3,35,127,0
3,46,127,0
3,38,127,0
3,38,127,0
3,46,127,0
3,35,127,0
3,46,127,0
3,38,127,0
3,46,127,0
3,35,127,0
3,46,127,0
3,38,127,0
3,46,127,0
3,35,127,0
3,47,127,0
3,46,127,0
3,35,127,0
3,46,127,0
3,38,127,0
3,35,127,0
3,52,127,0
3,49,127,0
3,52,127,0
3,35,127,0
3,35,127,0
3,52,127,0
3,52,127,0
3,52,127,0
3,52,127,0
3,38,127,0
3,52,127,0
3,52,127,0
3,52,127,0
3,52,127,0
3,47,127,0
3,35,127,0
3,52,127,0
3,52,127,0
3,52,127,0
3,52,127,0
3,38,127,0
3,52,127,0
3,52,127,0
3,47,127,0
3,35,127,0
3,52,127,0
3,49,127,0
3,52,127,0
3,35,127,0
3,35,127,0
3,52,127,0
3,52,127,0
3,52,127,0
3,52,127,0
3,38,127,0
3,52,127,0
3,52,127,0
3,52,127,0
3,52,127,0
3,47,127,0
3,35,127,0
3,52,127,0
3,52,127,0
3,52,127,0
3,52,127,0
3,38,127,0
3,52,127,0
3,52,127,0
3,47,127,0
3,35,127,0
3,52,127,0
3,49,127,0
3,52,127,0
3,35,127,0
3,35,127,0
3,52,127,0
3,52,127,0
3,52,127,0
3,52,127,0
3,38,127,0
3,52,127,0
3,52,127,0
3,52,127,0
3,52,127,0
3,47,127,0
3,35,127,0
3,52,127,0
3,52,127,0
3,52,127,0
3,52,127,0
3,38,127,0
3,52,127,0
3,52,127,0
3,47,127,0
3,35,127,0
3,52,127,0
3,49,127,0
3,52,127,0
3,35,127,0
3,35,127,0
3,52,127,0
3,52,127,0
3,52,127,0
3,52,127,0
3,38,127,0
3,52,127,0
3,52,127,0
3,52,127,0
3,52,127,0
3,47,127,0
3,35,127,0
3,52,127,0
3,52,127,0
3,52,127,0
3,52,127,0
3,38,127,0
3,52,127,0
3,52,127,0
3,47,127,0
3,35,127,0
3,52,127,0
3,49,127,0
3,52,127,0
3,35,127,0
3,35,127,0
3,52,127,0
3,52,127,0
3,52,127,0
3,52,127,0
3,38,127,0
3,52,127,0
3,52,127,0
3,52,127,0
3,52,127,0
3,47,127,0
3,35,127,0
3,52,127,0
3,52,127,0
3,52,127,0
3,52,127,0
3,38,127,0
3,52,127,0
3,52,127,0
3,47,127,0
3,35,127,0
3,52,127,0
3,49,127,0
3,52,127,0
3,35,127,0
3,35,127,0
3,52,127,0
3,52,127,0
3,52,127,0
3,52,127,0
3,38,127,0
3,52,127,0
3,52,127,0
3,52,127,0
3,52,127,0
3,47,127,0
3,35,127,0
3,52,127,0
3,52,127,0
3,52,127,0
3,52,127,0
3,38,127,0
3,52,127,0
3,52,127,0
3,47,127,0
3,35,127,0
3,52,127,0
3,49,127,0
3,52,127,0
3,35,127,0
3,35,127,0
3,52,127,0
3,52,127,0
3,52,127,0
3,52,127,0
3,38,127,0
3,52,127,0
3,52,127,0
3,52,127,0
3,52,127,0
3,35,127,0
3,35,127,0
3,52,127,0
3,52,127,0
3,52,127,0
3,52,127,0
3,38,127,0
3,52,127,0
3,52,127,0
3,47,127,0
3,35,127,0
3,52,127,0
3,52,127,0
3,35,127,0
3,35,127,0
3,52,127,0
3,52,127,0
3,35,127,0
3,52,127,0
3,52,127,0
3,38,127,0
3,52,127,0
3,52,127,0
3,35,127,0
3,52,127,0
3,52,127,0
3,35,127,0
3,35,127,0
3,52,127,0
3,52,127,0
3,35,127,0
3,52,127,0
3,52,127,0
3,38,127,0
3,38,127,0
3,35,127,0
3,52,127,0
3,52,127,0
3,38,127,0
3,38,127,0
3,38,127,0
3,38,127,0
3,52,127,0
3,49,127,0
3,35,127,0
3,52,127,0
3,52,127,0
3,35,127,0
3,52,127,0
3,52,127,0
3,38,127,0
3,35,127,0
3,52,127,0
3,52,127,0
3,35,127,0
3,52,127,0
3,52,127,0
3,35,127,0
3,52,127,0
3,52,127,0
3,35,127,0
3,52,127,0
3,52,127,0
3,38,127,0
3,35,127,0
3,52,127,0
3,52,127,0
3,35,127,0
3,52,127,0
3,49,127,0
3,35,127,0
3,52,127,0
3,52,127,0
3,35,127,0
3,52,127,0
3,52,127,0
3,38,127,0
3,35,127,0
3,52,127,0
3,52,127,0
3,52,127,0
3,52,127,0
3,35,127,0
3,35,127,0
3,52,127,0
3,52,127,0
3,35,127,0
3,52,127,0
3,52,127,0
3,38,127,0
3,35,127,0
3,52,127,0
3,52,127,0
3,35,127,0
3,52,127,0
3,49,127,0
3,35,127,0
3,52,127,0
3,52,127,0
3,35,127,0
3,52,127,0
3,52,127,0
3,38,127,0
3,35,127,0
3,52,127,0
3,52,127,0
3,35,127,0
3,52,127,0
3,52,127,0
3,35,127,0
3,52,127,0
3,52,127,0
3,35,127,0
3,52,127,0
3,52,127,0
3,38,127,0
3,35,127,0
3,52,127,0
3,52,127,0
3,35,127,0
3,46,127,0
3,38,127,0
3,38,127,0
3,46,127,0
3,35,127,0
3,46,127,0
3,38,127,0
3,46,127,0
3,35,127,0
3,46,127,0
3,38,127,0
3,46,127,0
3,35,127,0
3,47,127,0
3,46,127,0
3,35,127,0
3,46,127,0
3,38,127,0
3,35,127,0
3,46,127,0
3,49,127,0
3,35,127,0
3,46,127,0
3,35,127,0
3,46,127,0
3,38,127,0
3,35,127,0
3,46,127,0
3,35,127,0
3,46,127,0
3,35,127,0
3,46,127,0
3,35,127,0
3,46,127,0
3,38,127,0
3,35,127,0
3,46,127,0
3,35,127,0
3,46,127,0
3,49,127,0
3,35,127,0
3,46,127,0
3,35,127,0
3,46,127,0
3,38,127,0
3,35,127,0
3,46,127,0
3,46,127,0
3,35,127,0
3,35,127,0
3,46,127,0
3,35,127,0
3,46,127,0
3,38,127,0
3,35,127,0
3,46,127,0
3,35,127,0
3,46,127,0
3,49,127,0
3,35,127,0
3,46,127,0
3,35,127,0
3,46,127,0
3,38,127,0
3,35,127,0
3,46,127,0
3,35,127,0
3,46,127,0
3,35,127,0
3,46,127,0
3,35,127,0
3,46,127,0
3,38,127,0
3,35,127,0
3,46,127,0
3,35,127,0
3,46,127,0
3,49,127,0
3,35,127,0
3,46,127,0
3,35,127,0
3,46,127,0
3,38,127,0
3,35,127,0
3,46,127,0
3,46,127,0
3,35,127,0
3,35,127,0
3,46,127,0
3,35,127,0
3,46,127,0
3,38,127,0
3,35,127,0
3,46,127,0
3,35,127,0
3,46,127,0
3,49,127,0
3,35,127,0
3,46,127,0
3,35,127,0
3,46,127,0
3,38,127,0
3,35,127,0
3,46,127,0
3,35,127,0
3,46,127,0
3,35,127,0
3,46,127,0
3,35,127,0
3,46,127,0
3,38,127,0
3,35,127,0
3,46,127,0
3,35,127,0
3,46,127,0
3,49,127,0
3,35,127,0
3,46,127,0
3,35,127,0
3,46,127,0
3,38,127,0
3,35,127,0
3,46,127,0
3,46,127,0
3,35,127,0
3,35,127,0
3,46,127,0
3,35,127,0
3,46,127,0
3,38,127,0
3,35,127,0
3,46,127,0
3,35,127,0
3,46,127,0
3,49,127,0
3,35,127,0
3,46,127,0
3,35,127,0
3,46,127,0
