track,note,velocity,time
2,48,99,2685
2,48,0,188
2,48,99,4
2,48,0,188
2,48,99,4
2,48,0,188
2,48,99,4
2,48,0,188
2,48,99,4
2,48,0,188
2,48,99,4
2,48,0,188
2,48,99,4
2,48,0,188
2,48,99,4
2,48,0,8
2,48,99,4
2,48,0,136
2,48,99,4
2,48,0,188
2,48,99,4
2,48,0,188
2,48,99,4
2,48,0,188
2,48,99,4
2,48,0,188
2,48,99,4
2,48,0,188
2,48,99,4
2,48,0,188
2,48,99,4
2,48,0,188
2,43,99,4
2,43,0,136
2,43,99,4
2,43,0,188
2,43,99,4
2,43,0,188
2,43,99,4
2,43,0,28
2,43,99,4
2,43,0,156
2,43,99,4
2,43,0,188
2,43,99,4
2,43,0,188
2,43,99,4
2,43,0,188
2,41,99,4
2,41,0,96
2,41,99,96
2,41,0,96
2,41,99,96
2,41,0,96
2,41,99,96
2,41,0,96
2,41,99,96
2,41,0,96
2,41,99,96
2,41,0,96
2,41,99,96
2,41,0,96
2,41,99,96
2,41,0,96
2,36,99,96
2,36,0,188
2,36,99,4
2,36,0,188
2,36,99,4
2,36,0,188
2,36,99,4
2,36,0,188
2,36,99,4
2,36,0,188
2,36,99,4
2,36,0,188
2,36,99,4
2,36,0,188
2,36,99,4
2,36,0,76
2,41,99,4
2,41,0,188
2,41,99,4
2,41,0,188
2,41,99,4
2,41,0,188
2,41,99,4
2,41,0,188
2,36,99,4
2,36,0,188
2,36,99,4
2,36,0,188
2,36,99,4
2,36,0,188
2,36,99,4
2,36,0,188
2,31,99,4
2,31,0,188
2,31,99,4
2,31,0,188
2,31,99,4
2,31,0,188
2,31,99,4
2,31,0,188
2,31,99,4
2,31,0,188
2,31,99,4
2,31,0,188
2,31,99,4
2,31,0,188
2,31,99,4
2,31,0,188
2,29,99,4
2,29,0,188
2,29,99,4
2,29,0,188
2,29,99,4
2,29,0,188
2,29,99,4
2,29,0,188
2,29,99,4
2,29,0,188
2,36,100,580
2,36,0,188
2,36,100,4
2,36,0,188
2,36,100,4
2,36,0,188
2,36,100,4
2,36,0,188
2,36,100,4
2,36,0,188
2,36,100,4
2,36,0,188
2,36,100,4
2,36,0,188
2,36,100,4
2,36,0,188
2,41,100,4
2,41,0,188
2,41,100,4
2,41,0,188
2,41,100,4
2,41,0,188
2,41,100,4
2,41,0,188
2,41,100,4
2,41,0,188
2,41,100,4
2,41,0,188
2,41,100,4
2,41,0,188
2,41,100,4
2,41,0,188
2,36,100,4
2,36,0,188
2,36,100,4
2,36,0,188
2,36,100,4
2,36,0,188
2,36,100,4
2,36,0,188
2,36,100,4
2,36,0,188
2,36,100,4
2,36,0,188
2,36,100,4
2,36,0,188
2,36,100,4
2,36,0,188
2,31,100,4
2,31,0,188
2,31,100,4
2,31,0,188
2,31,100,4
2,31,0,188
2,31,100,4
2,31,0,188
2,31,100,4
2,31,0,188
2,31,100,4
2,31,0,188
2,31,100,4
2,31,0,188
2,31,100,4
2,31,0,188
2,36,100,4
2,36,0,188
2,36,100,4
2,36,0,188
2,36,100,4
2,36,0,188
2,36,100,4
2,36,0,188
2,36,100,4
2,36,0,188
2,36,100,4
2,36,0,188
2,36,100,4
2,36,0,188
2,36,100,4
2,36,0,188
2,41,100,4
2,41,0,188
2,41,100,4
2,41,0,188
2,41,100,4
2,41,0,188
2,41,100,4
2,41,0,188
2,41,100,4
2,41,0,188
2,41,100,4
2,41,0,188
2,41,100,4
2,41,0,188
2,41,100,4
2,41,0,188
2,36,100,4
2,36,0,188
2,36,100,4
2,36,0,188
2,36,100,4
2,36,0,188
2,36,100,4
2,36,0,188
2,31,100,4
2,31,0,188
2,31,100,4
2,31,0,188
2,31,100,4
2,31,0,188
2,31,100,4
2,31,0,188
2,36,100,4
2,36,0,188
2,36,100,4
2,36,0,188
2,36,100,4
2,36,0,188
2,36,100,4
2,36,0,188
2,36,100,4
2,36,0,188
2,36,100,4
2,36,0,188
2,36,100,4
2,36,0,188
2,36,100,4
2,36,0,188
2,36,100,4
2,36,0,188
2,36,100,4
2,36,0,188
2,36,100,4
2,36,0,188
2,36,100,4
2,36,0,188
2,36,100,4
2,36,0,188
2,36,100,4
2,36,0,188
2,36,100,4
2,36,0,188
2,36,100,4
2,36,0,188
2,41,100,4
2,41,0,188
2,41,100,4
2,41,0,188
2,41,100,4
2,41,0,188
2,41,100,4
2,41,0,188
2,41,100,4
2,41,0,188
2,41,100,4
2,41,0,188
2,41,100,4
2,41,0,188
2,41,100,4
2,41,0,188
2,36,100,4
2,36,0,188
2,36,100,4
2,36,0,188
2,36,100,4
2,36,0,188
2,36,100,4
2,36,0,188
2,36,100,4
2,36,0,188
2,36,100,4
2,36,0,188
2,36,100,4
2,36,0,188
2,36,100,4
2,36,0,188
2,31,100,4
2,31,0,188
2,31,100,4
2,31,0,188
2,31,100,4
2,31,0,188
2,31,100,4
2,31,0,188
2,31,100,4
2,31,0,188
2,31,100,4
2,31,0,188
2,31,100,4
2,31,0,188
2,31,100,4
2,31,0,188
2,36,100,4
2,36,0,188
2,36,100,4
2,36,0,188
2,36,100,4
2,36,0,188
2,36,100,4
2,36,0,188
2,36,100,4
2,36,0,188
2,36,100,4
2,36,0,188
2,36,100,4
2,36,0,188
2,36,100,4
2,36,0,188
2,41,100,4
2,41,0,188
2,41,100,4
2,41,0,188
2,41,100,4
2,41,0,188
2,41,100,4
2,41,0,188
2,41,100,4
2,41,0,188
2,41,100,4
2,41,0,188
2,41,100,4
2,41,0,188
2,41,100,4
2,41,0,188
2,36,100,4
2,36,0,188
2,36,100,4
2,36,0,188
2,36,100,4
2,36,0,188
2,36,100,4
2,36,0,188
2,31,100,4
2,31,0,188
2,31,100,4
2,31,0,188
2,31,100,4
2,31,0,188
2,31,100,4
2,31,0,188
2,36,100,4
2,36,0,188
2,36,100,4
2,36,0,188
2,36,100,4
2,36,0,188
2,36,100,4
2,36,0,188
2,36,100,4
2,36,0,188
2,36,100,4
2,36,0,188
2,36,100,4
2,36,0,188
2,36,100,4
2,36,0,188
2,36,100,4
2,36,0,188
2,36,100,4
2,36,0,188
2,36,100,4
2,36,0,188
2,36,100,4
2,36,0,188
2,36,100,4
2,36,0,188
2,36,100,4
2,36,0,188
2,36,100,4
2,36,0,188
2,36,100,4
2,36,0,188
2,36,100,4
2,36,0,188
2,36,100,4
2,36,0,188
2,36,100,4
2,36,0,188
2,36,100,4
2,36,0,188
2,36,100,4
2,36,0,188
2,36,100,4
2,36,0,188
2,36,100,4
2,36,0,188
2,36,100,4
2,36,0,188
2,41,100,4
2,41,0,188
2,41,100,4
2,41,0,188
2,41,100,4
2,41,0,188
2,41,100,4
2,41,0,188
2,41,100,4
2,41,0,188
2,41,100,4
2,41,0,188
2,41,100,4
2,41,0,188
2,41,100,4
2,41,0,188
2,36,100,4
2,36,0,188
2,36,100,4
2,36,0,188
2,36,100,4
2,36,0,188
2,36,100,4
2,36,0,188
2,36,100,4
2,36,0,188
2,36,100,4
2,36,0,188
2,36,100,4
2,36,0,188
2,36,100,4
2,36,0,188
2,31,100,4
2,31,0,188
2,31,100,4
2,31,0,188
2,31,100,4
2,31,0,188
2,31,100,4
2,31,0,188
2,31,100,4
2,31,0,188
2,31,100,4
2,31,0,188
2,31,100,4
2,31,0,188
2,31,100,4
2,31,0,188
2,36,100,4
2,36,0,188
2,36,100,4
2,36,0,188
2,36,100,4
2,36,0,188
2,36,100,4
2,36,0,188
2,36,100,4
2,36,0,188
2,36,100,4
2,36,0,188
2,36,100,4
2,36,0,188
2,36,100,4
2,36,0,188
2,41,100,4
2,41,0,188
2,41,100,4
2,41,0,188
2,41,100,4
2,41,0,188
2,41,100,4
2,41,0,188
2,41,100,4
2,41,0,188
2,41,100,4
2,41,0,188
2,41,100,4
2,41,0,188
2,41,100,4
2,41,0,188
2,36,100,4
2,36,0,188
2,36,100,4
2,36,0,188
2,36,100,4
2,36,0,188
2,36,100,4
2,36,0,188
2,31,100,4
2,31,0,188
2,31,100,4
2,31,0,188
2,31,100,4
2,31,0,188
2,31,100,4
2,31,0,188
2,36,100,4
2,36,0,188
2,36,100,4
2,36,0,188
2,36,100,4
2,36,0,188
2,36,100,4
2,36,0,188
2,36,100,4
2,36,0,188
2,36,100,4
2,36,0,188
2,36,100,4
2,36,0,188
2,36,100,4
2,36,0,188
2,36,100,4
2,36,0,188
2,36,100,4
2,36,0,188
2,36,100,4
2,36,0,188
2,36,100,4
2,36,0,188
2,36,100,4
2,36,0,188
2,36,100,4
2,36,0,188
2,36,100,4
2,36,0,188
2,36,100,4
2,36,0,188
2,41,100,4
2,41,0,188
2,41,100,4
2,41,0,188
2,41,100,4
2,41,0,188
2,41,100,4
2,41,0,188
2,41,100,4
2,41,0,188
2,41,100,4
2,41,0,188
2,41,100,4
2,41,0,188
2,41,100,4
2,41,0,188
2,36,100,4
2,36,0,188
2,36,100,4
2,36,0,188
2,36,100,4
2,36,0,188
2,36,100,4
2,36,0,188
2,36,100,4
2,36,0,188
2,36,100,4
2,36,0,188
2,36,100,4
2,36,0,188
2,36,100,4
2,36,0,188
2,31,100,4
2,31,0,188
2,31,100,4
2,31,0,188
2,31,100,4
2,31,0,188
2,31,100,4
2,31,0,188
2,31,100,4
2,31,0,188
2,31,100,4
2,31,0,188
2,31,100,4
2,31,0,188
2,31,100,4
2,31,0,188
2,36,100,4
2,36,0,188
2,36,100,4
2,36,0,188
2,36,100,4
2,36,0,188
2,36,100,4
2,36,0,188
2,36,100,4
2,36,0,188
2,36,100,4
2,36,0,188
2,36,100,4
2,36,0,188
2,36,100,4
2,36,0,188
2,41,100,4
2,41,0,188
2,41,100,4
2,41,0,188
2,41,100,4
2,41,0,188
2,41,100,4
2,41,0,188
2,41,100,4
2,41,0,188
2,41,100,4
2,41,0,188
2,41,100,4
2,41,0,188
2,41,100,4
2,41,0,188
2,36,100,4
2,36,0,188
2,36,100,4
2,36,0,188
2,36,100,4
2,36,0,188
2,36,100,4
2,36,0,188
2,31,100,4
2,31,0,188
2,31,100,4
2,31,0,188
2,31,100,4
2,31,0,188
2,31,100,4
2,31,0,188
2,36,100,4
2,36,0,188
2,36,100,4
2,36,0,188
2,36,100,4
2,36,0,188
2,36,100,4
2,36,0,188
2,36,100,4
2,36,0,188
2,36,100,4
2,36,0,188
2,36,100,4
2,36,0,188
2,36,100,4
2,36,0,188
2,36,100,4
2,36,0,188
2,36,100,4
2,36,0,188
2,36,100,4
2,36,0,188
2,36,100,4
2,36,0,188
2,36,100,4
2,36,0,188
2,36,100,4
2,36,0,188
2,36,100,4
2,36,0,188
2,36,100,4
2,36,0,188
2,33,100,4
2,33,0,564
2,33,96,12
2,33,0,120
2,31,100,840
2,31,0,468
2,31,100,108
2,31,0,180
2,29,100,780
2,29,0,476
2,29,100,100
2,29,0,56
2,36,100,820
2,36,0,768
2,38,100,0
2,38,0,192
2,36,100,0
2,36,0,192
2,35,100,0
2,35,0,336
2,33,100,48
2,33,0,460
2,33,100,116
2,33,0,40
2,31,100,824
2,31,0,464
2,31,100,112
2,31,0,180
2,29,100,780
2,29,0,476
2,29,100,100
2,29,0,196
2,31,100,764
2,31,0,80
2,36,99,1456
2,36,0,188
2,36,99,4
2,36,0,188
2,36,99,4
2,36,0,188
2,36,99,4
2,36,0,188
2,36,99,4
2,36,0,188
2,36,99,4
2,36,0,188
2,36,99,4
2,36,0,188
2,36,99,4
2,36,0,76
2,41,99,4
2,41,0,188
2,41,99,4
2,41,0,188
2,41,99,4
2,41,0,188
2,41,99,4
2,41,0,188
2,36,99,4
2,36,0,188
2,36,99,4
2,36,0,188
2,36,99,4
2,36,0,188
2,36,99,4
2,36,0,188
2,31,99,4
2,31,0,188
2,31,99,4
2,31,0,188
2,31,99,4
2,31,0,188
2,31,99,4
2,31,0,188
2,31,99,4
2,31,0,188
2,31,99,4
2,31,0,188
2,31,99,4
2,31,0,188
2,31,99,4
2,31,0,188
2,41,99,4
2,41,0,188
2,41,99,4
2,41,0,188
2,41,99,4
2,41,0,188
2,41,99,4
2,41,0,188
2,41,99,4
2,41,0,188
2,41,99,4
2,41,0,188
2,41,99,4
2,41,0,188
2,41,99,4
2,41,0,188
2,36,99,4
2,36,0,188
2,36,99,4
2,36,0,188
2,36,99,4
2,36,0,188
2,36,99,4
2,36,0,188
2,36,99,4
2,36,0,188
2,36,99,4
2,36,0,188
2,36,99,4
2,36,0,188
2,36,99,4
2,36,0,76
2,41,99,4
2,41,0,188
2,41,99,4
2,41,0,188
2,41,99,4
2,41,0,188
2,41,99,4
2,41,0,188
2,36,99,4
2,36,0,188
2,36,99,4
2,36,0,188
2,36,99,4
2,36,0,188
2,36,99,4
2,36,0,188
2,31,99,4
2,31,0,188
2,31,99,4
2,31,0,188
2,31,99,4
2,31,0,188
2,31,99,4
2,31,0,188
2,31,99,4
2,31,0,188
2,31,99,4
2,31,0,188
2,31,99,4
2,31,0,188
2,31,99,4
2,31,0,188
2,41,99,4
2,41,0,188
2,41,99,4
2,41,0,188
2,41,99,4
2,41,0,188
2,41,99,4
2,41,0,188
2,41,99,4
2,41,0,188
2,41,99,4
2,41,0,188
2,41,99,4
2,41,0,188
2,41,99,4
2,41,0,188
2,36,99,4
2,36,0,188
2,36,99,4
2,36,0,188
2,36,99,4
2,36,0,188
2,36,99,4
2,36,0,188
2,36,99,4
2,36,0,188
2,36,99,4
2,36,0,188
2,36,99,4
2,36,0,188
2,36,99,4
2,36,0,76
2,41,99,4
2,41,0,188
2,41,99,4
2,41,0,188
2,41,99,4
2,41,0,188
2,41,99,4
2,41,0,188
2,36,99,4
2,36,0,188
2,36,99,4
2,36,0,188
2,36,99,4
2,36,0,188
2,36,99,4
2,36,0,188
2,31,99,4
2,31,0,188
2,31,99,4
2,31,0,188
2,31,99,4
2,31,0,188
2,31,99,4
2,31,0,188
2,31,99,4
2,31,0,188
2,31,99,4
2,31,0,188
2,31,99,4
2,31,0,188
2,31,99,4
2,31,0,188
2,41,99,4
2,41,0,188
2,41,99,4
2,41,0,188
2,41,99,4
2,41,0,188
2,41,99,4
2,41,0,188
2,41,99,4
2,41,0,188
2,41,99,4
2,41,0,188
2,41,99,4
2,41,0,188
2,41,99,4
2,41,0,188
2,36,99,4
2,36,0,188
2,36,99,4
2,36,0,188
2,36,99,4
2,36,0,188
2,36,99,4
2,36,0,188
2,36,99,4
2,36,0,188
2,36,99,4
2,36,0,188
2,36,99,4
2,36,0,188
2,36,99,4
2,36,0,76
2,41,99,4
2,41,0,188
2,41,99,4
2,41,0,188
2,41,99,4
2,41,0,188
2,41,99,4
2,41,0,188
2,36,99,4
2,36,0,188
2,36,99,4
2,36,0,188
2,36,99,4
2,36,0,188
2,36,99,4
2,36,0,188
2,31,99,4
2,31,0,188
2,31,99,4
2,31,0,188
2,31,99,4
2,31,0,188
2,31,99,4
2,31,0,188
2,31,99,4
2,31,0,188
2,31,99,4
2,31,0,188
2,31,99,4
2,31,0,188
2,31,99,4
2,31,0,188
2,41,99,4
2,41,0,188
2,41,99,4
2,41,0,188
2,41,99,4
2,41,0,188
2,41,99,4
2,41,0,188
2,41,99,4
2,41,0,188
2,41,99,4
2,41,0,188
2,41,99,4
2,41,0,188
2,41,99,4
2,41,0,188
2,48,120,4
2,48,0,480
2,48,120,96
2,48,0,880
2,48,120,80
2,48,0,552
2,48,120,24
2,48,0,960
2,36,115,0
2,36,0,508
2,36,115,68
2,36,0,340
2,36,96,44
2,36,0,64
2,36,110,128
2,36,0,4
2,41,105,8
2,41,0,484
2,41,100,52
2,41,0,344
2,41,86,40
2,41,0,76
2,41,100,116
2,41,0,4
2,36,110,8
2,36,0,500
2,36,110,64
2,36,0,320
2,36,89,64
2,36,0,92
2,36,100,100
2,36,0,376
2,43,120,8
2,43,0,532
2,43,105,44
2,43,0,304
2,43,100,80
2,43,0,88
2,43,105,104
2,43,0,316
2,36,115,68
2,36,0,500
2,36,115,76
2,36,0,280
