track,note,velocity,time
0,50,104,3436
0,50,94,0
0,55,74,4
0,55,64,0
0,43,94,4
0,43,104,0
0,43,90,8
0,43,80,0
0,50,90,4
0,50,80,0
0,52,104,4
0,52,94,0
0,45,94,4
0,45,104,0
0,57,74,0
0,57,64,0
0,36,64,0
0,60,64,180
0,45,104,4
0,45,94,0
0,52,94,0
0,52,104,0
0,28,94,4
0,61,64,0
0,90,120,0
0,57,64,0
0,57,74,0
0,36,64,12
0,63,64,0
0,77,119,180
0,36,64,0
0,62,126,0
0,90,120,372
0,57,64,184
0,57,74,0
0,45,94,4
0,45,104,0
0,52,94,0
0,52,104,0
0,36,64,192
0,50,90,12
0,57,60,0
0,43,90,0
0,60,64,0
0,50,80,0
0,57,50,0
0,43,80,0
0,45,104,4
0,45,94,0
0,52,94,0
0,52,104,0
0,57,74,4
0,57,64,0
0,61,64,0
0,28,94,0
0,90,120,0
0,36,64,12
0,63,64,0
0,77,119,180
0,36,64,0
0,62,126,0
0,43,94,368
0,43,104,0
0,50,104,0
0,50,94,0
0,55,64,0
0,55,74,0
0,90,120,4
0,57,60,8
0,57,50,0
0,50,90,8
0,50,80,0
0,52,94,4
0,45,104,0
0,52,104,0
0,57,64,0
0,57,74,0
0,45,94,0
0,36,64,4
0,60,64,180
0,45,94,8
0,45,104,0
0,57,64,4
0,57,74,0
0,61,64,0
0,90,120,0
0,28,94,0
0,52,94,0
0,52,104,0
0,36,64,8
0,63,64,0
0,77,119,180
0,36,64,0
0,62,126,0
0,90,120,372
0,45,104,188
0,55,74,0
0,50,94,0
0,45,94,0
0,50,104,0
0,55,64,0
0,36,64,192
0,55,64,4
0,55,74,0
0,52,40,4
0,43,94,0
0,52,50,0
0,43,104,0
0,56,126,0
0,48,104,0
0,48,94,0
0,90,120,8
0,50,104,184
0,50,94,0
0,54,64,0
0,45,94,0
0,54,74,0
0,45,104,0
0,36,64,4
0,63,64,0
0,36,64,180
0,58,64,0
0,68,80,0
0,45,80,8
0,45,90,0
0,54,99,4
0,50,90,0
0,50,80,0
0,45,94,4
0,45,104,0
0,90,120,4
0,55,74,0
0,55,64,0
0,50,94,0
0,50,104,0
0,52,90,4
0,52,80,0
0,57,60,8
0,57,50,0
0,45,104,4
0,45,94,0
0,52,94,4
0,52,104,0
0,36,64,0
0,57,74,4
0,57,64,0
0,60,64,180
0,45,94,4
0,45,104,0
0,52,104,0
0,52,94,0
0,28,94,4
0,90,120,0
0,61,64,0
0,57,74,0
0,57,64,0
0,36,64,8
0,63,64,0
0,36,64,0
0,77,119,0
0,62,126,0
0,85,64,0
0,90,120,0
0,57,64,184
0,57,74,0
0,52,94,4
0,52,104,0
0,45,94,0
0,45,104,0
0,36,64,192
0,57,50,8
0,57,60,0
0,60,64,0
0,43,80,4
0,43,90,0
0,50,80,0
0,50,90,0
0,45,104,4
0,45,94,0
0,57,74,0
0,57,64,0
0,90,120,4
0,28,94,0
0,61,64,0
0,52,104,0
0,52,94,0
0,36,64,8
0,63,64,0
0,36,64,180
0,62,126,0
0,77,119,0
0,85,64,0
0,43,94,0
0,43,104,0
0,55,64,0
0,55,74,0
0,90,120,0
0,50,94,0
0,50,104,0
0,50,80,12
0,50,90,0
0,57,60,4
0,57,50,0
0,45,104,4
0,45,94,0
0,57,74,4
0,36,64,0
0,57,64,0
0,52,104,0
0,52,94,0
0,60,64,180
0,57,64,8
0,57,74,0
0,52,104,0
0,52,94,0
0,28,94,4
0,90,120,0
0,45,94,0
0,61,64,0
0,45,104,0
0,36,64,8
0,63,64,0
0,36,64,0
0,77,119,0
0,62,126,0
0,85,64,0
0,90,120,0
0,45,94,184
0,45,104,0
0,50,94,8
0,50,104,0
0,55,74,0
0,55,64,0
0,36,64,188
0,48,104,24
0,43,104,0
0,48,94,0
0,43,94,0
0,56,126,4
0,52,40,0
0,52,50,0
0,55,74,4
0,55,64,0
0,90,120,8
0,50,104,184
0,45,104,0
0,50,94,0
0,45,94,0
0,54,64,0
0,54,74,0
0,36,64,4
0,63,64,0
0,68,80,180
0,36,64,0
0,58,64,0
0,45,90,8
0,45,80,0
0,50,80,4
0,54,99,0
0,50,90,0
0,45,94,8
0,45,104,0
0,50,104,4
0,55,74,0
0,90,120,0
0,50,94,0
0,55,64,0
0,57,50,8
0,57,60,0
0,52,90,4
0,52,80,0
0,57,64,4
0,57,74,0
0,36,64,4
0,52,104,0
0,52,94,0
0,45,104,4
0,45,94,0
0,60,64,180
0,45,94,4
0,45,104,0
0,57,74,4
0,57,64,0
0,57,120,0
0,90,120,0
0,61,64,0
0,28,94,0
0,52,94,0
0,52,104,0
0,36,64,8
0,63,64,0
0,77,119,0
0,36,64,0
0,85,64,0
0,57,120,0
0,62,126,0
0,90,120,0
0,57,74,184
0,57,64,0
0,45,94,4
0,52,94,0
0,45,104,0
0,52,104,0
0,36,64,192
0,55,120,0
0,50,80,4
0,50,90,0
0,43,90,4
0,57,100,0
0,57,60,0
0,43,80,0
0,57,50,0
0,60,64,0
0,45,104,4
0,45,94,0
0,57,64,4
0,28,94,0
0,90,120,0
0,52,94,0
0,61,64,0
0,57,74,0
0,52,104,0
0,36,64,8
0,60,120,0
0,63,64,0
0,36,64,8
0,77,119,0
0,85,64,0
0,62,126,0
0,57,100,0
0,55,64,4
0,90,120,0
0,55,74,0
0,43,104,0
0,43,94,0
0,50,104,0
0,50,94,0
0,50,90,4
0,50,80,0
0,57,60,0
0,57,50,0
0,62,120,4
0,52,104,4
0,57,74,0
0,52,94,0
0,57,64,0
0,45,104,0
0,45,94,0
0,36,64,4
0,60,64,48
0,60,100,0
0,45,94,8
0,28,94,0
0,61,64,0
0,57,64,0
0,90,120,0
0,62,120,0
0,45,104,0
0,57,74,0
0,52,104,0
0,52,94,0
0,36,64,8
0,63,64,0
0,62,120,176
0,36,64,0
0,77,119,0
0,85,64,0
0,62,126,0
0,62,120,0
0,90,120,0
0,55,74,184
0,55,64,0
0,45,104,8
0,45,94,0
0,50,104,0
0,50,94,0
0,36,64,180
0,62,120,0
0,48,104,8
0,48,94,0
0,43,94,4
0,43,104,0
0,52,50,0
0,55,74,0
0,56,126,0
0,52,40,0
0,55,64,0
0,60,100,8
0,90,120,0
0,45,104,4
0,45,94,0
0,36,64,4
0,50,104,0
0,50,94,0
0,54,74,0
0,54,64,0
0,63,64,0
0,62,120,0
0,60,100,8
0,68,80,0
0,58,64,0
0,57,80,0
0,36,64,0
0,45,80,12
0,54,99,0
0,45,90,0
0,50,80,0
0,50,90,0
0,50,94,4
0,55,64,0
0,50,104,0
0,55,74,0
0,90,120,4
0,45,94,0
0,45,104,0
0,57,50,16
0,57,60,0
0,52,80,0
0,52,90,0
0,45,94,8
0,45,104,0
0,52,104,0
0,52,94,0
0,57,74,4
0,36,64,0
0,57,64,0
0,60,64,180
0,45,104,8
0,52,104,0
0,45,94,0
0,52,94,0
0,57,64,0
0,57,74,0
0,57,120,4
0,61,64,0
0,28,94,0
0,90,120,0
0,36,64,8
0,63,64,0
0,36,64,180
0,62,126,0
0,57,120,0
0,77,119,0
0,85,64,0
0,90,120,0
0,52,94,188
0,52,104,0
0,45,104,4
0,45,94,0
0,57,64,0
0,57,74,0
0,36,64,188
0,55,120,0
0,57,60,8
0,57,50,0
0,60,64,0
0,43,90,0
0,43,80,0
0,57,100,0
0,50,90,4
0,50,80,0
0,45,104,4
0,52,104,0
0,45,94,0
0,52,94,0
0,28,94,4
0,61,64,0
0,90,120,0
0,57,100,0
0,57,64,0
0,57,74,0
0,36,64,8
0,60,120,0
0,63,64,0
0,77,119,0
0,36,64,0
0,62,126,0
0,85,64,0
0,55,64,0
0,55,74,0
0,50,94,0
0,50,104,0
0,90,120,0
0,43,94,0
0,43,104,0
0,57,50,8
0,57,60,0
0,62,120,0
0,50,80,4
0,50,90,0
0,57,74,8
0,36,64,0
0,57,64,0
0,45,104,0
0,45,94,0
0,52,94,4
0,52,104,0
0,60,64,32
0,60,100,0
0,45,94,8
0,61,64,0
0,45,104,0
0,52,94,0
0,57,64,0
0,90,120,0
0,52,104,0
0,28,94,0
0,57,74,0
0,62,120,0
0,36,64,8
0,63,64,0
0,60,100,0
0,77,119,0
0,62,120,0
0,36,64,0
0,85,64,0
0,62,126,0
0,90,120,0
0,62,120,0
0,50,94,8
0,55,64,0
0,45,94,0
0,55,74,0
0,45,104,0
0,50,104,0
0,60,100,0
0,36,64,8
0,62,120,0
0,52,50,12
0,52,40,0
0,43,104,4
0,48,104,0
0,55,74,0
0,43,94,0
0,48,94,0
0,55,64,0
0,56,126,0
0,90,120,8
0,60,100,0
0,50,94,4
0,50,104,0
0,45,94,0
0,45,104,0
0,36,64,4
0,54,64,0
0,62,120,0
0,63,64,0
0,54,74,0
0,60,100,8
0,68,80,8
0,57,80,0
0,36,64,0
0,58,64,0
0,45,80,8
0,45,90,0
0,54,99,4
0,50,80,4
0,50,90,0
0,50,104,4
0,50,94,0
0,90,120,4
0,45,104,0
0,45,94,0
0,55,64,0
0,55,74,0
0,69,120,8
0,52,80,4
0,52,90,0
0,57,60,0
0,57,50,0
0,57,64,4
0,57,74,0
0,45,104,4
0,45,94,0
0,36,64,0
0,52,94,4
0,52,104,0
0,60,64,180
0,57,64,4
0,57,74,0
0,90,120,4
0,45,94,0
0,57,120,0
0,45,104,0
0,61,64,0
0,28,94,0
0,52,104,0
0,52,94,0
0,36,64,8
0,63,64,0
0,94,44,32
0,79,54,0
0,89,44,0
0,84,54,0
0,36,64,0
0,57,120,0
0,62,126,0
0,77,119,0
0,90,120,104
0,57,64,184
0,57,74,0
0,45,94,4
0,69,120,0
0,45,104,0
0,52,94,4
0,52,104,0
0,36,64,188
0,43,80,8
0,43,90,0
0,50,90,0
0,50,80,0
0,60,64,0
0,57,50,0
0,57,60,0
0,52,104,4
0,52,94,0
0,28,94,4
0,45,104,0
0,57,74,0
0,45,94,0
0,57,120,0
0,57,64,0
0,61,64,0
0,90,120,0
0,36,64,12
0,63,64,0
0,84,54,0
0,79,54,0
0,94,44,0
0,89,44,0
0,77,119,96
0,36,64,0
0,62,126,0
0,57,120,0
0,55,74,104
0,55,64,0
0,90,120,0
0,43,94,0
0,50,94,0
0,43,104,0
0,50,104,0
0,50,80,8
0,50,90,0
0,62,120,4
0,57,60,4
0,57,50,0
0,52,104,4
0,57,74,0
0,52,94,0
0,57,64,0
0,36,64,4
0,45,104,0
0,45,94,0
0,60,64,48
0,60,100,0
0,45,94,4
0,45,104,0
0,52,94,0
0,52,104,0
0,62,120,4
0,61,64,0
0,57,64,0
0,57,74,0
0,90,120,0
0,28,94,0
0,36,64,8
0,63,64,0
0,60,100,0
0,36,64,8
0,62,126,0
0,62,120,0
0,77,119,0
0,60,100,8
0,90,120,8
0,62,120,0
0,55,64,4
0,55,74,0
0,45,94,0
0,45,104,0
0,60,100,4
0,50,104,4
0,50,94,0
0,36,64,8
0,62,120,0
0,55,64,16
0,55,74,0
0,48,104,4
0,43,94,0
0,52,40,0
0,56,126,0
0,43,104,0
0,48,94,0
0,52,50,0
0,60,100,8
0,90,120,0
0,54,64,4
0,50,94,0
0,54,74,0
0,50,104,0
0,36,64,4
0,63,64,0
0,62,120,0
0,45,104,0
0,45,94,0
0,60,100,8
0,57,80,0
0,36,64,0
0,68,80,0
0,58,64,0
0,54,99,8
0,45,80,4
0,50,80,0
0,45,90,0
0,50,90,0
0,45,94,8
0,45,104,0
0,50,104,0
0,90,120,0
0,50,94,0
0,55,74,0
0,55,64,0
0,57,50,8
0,57,60,0
0,69,120,0
0,52,90,4
0,52,80,0
0,52,94,8
0,45,94,0
0,52,104,0
0,45,104,0
0,57,64,4
0,57,74,0
0,36,64,0
0,60,64,180
0,45,94,8
0,45,104,0
0,57,64,4
0,57,74,0
0,61,64,0
0,57,120,0
0,28,94,0
0,90,120,0
0,52,94,0
0,52,104,0
0,36,64,8
0,63,64,0
0,94,44,60
0,79,54,0
0,89,44,0
0,84,54,0
0,77,119,96
0,36,64,0
0,62,126,0
0,57,120,0
0,90,120,104
0,45,94,184
0,45,104,0
0,69,120,4
0,52,104,4
0,52,94,0
0,57,64,0
0,57,74,0
0,36,64,188
0,57,60,4
0,57,50,0
0,60,64,4
0,50,80,0
0,50,90,0
0,43,80,0
0,43,90,0
0,57,74,4
0,57,64,0
0,57,120,4
0,45,104,0
0,61,64,0
0,45,94,0
0,90,120,0
0,28,94,0
0,52,94,0
0,52,104,0
0,36,64,8
0,63,64,0
0,89,44,56
0,79,54,0
0,84,54,0
0,94,44,0
0,77,119,0
0,36,64,0
0,57,120,0
0,62,126,0
0,55,74,104
0,43,104,0
0,50,104,0
0,90,120,0
0,50,94,0
0,55,64,0
0,43,94,0
0,57,50,12
0,62,120,0
0,57,60,0
0,50,90,4
0,50,80,0
0,36,64,8
0,57,74,0
0,57,64,0
0,45,94,4
0,52,94,0
0,45,104,0
0,52,104,0
0,60,100,16
0,60,64,0
0,57,64,4
0,57,74,0
0,45,94,4
0,28,94,0
0,90,120,0
0,61,64,0
0,62,120,0
0,45,104,0
0,52,104,0
0,52,94,0
0,36,64,12
0,63,64,0
0,36,64,164
0,62,120,0
0,77,119,0
0,50,94,4
0,54,94,0
0,57,74,0
0,57,64,0
0,50,104,0
0,54,104,0
0,42,94,4
0,42,104,0
0,60,100,0
0,90,120,8
0,62,120,0
0,50,104,184
0,50,94,0
0,55,94,4
0,55,104,0
0,59,64,0
0,59,74,0
0,43,104,4
0,43,94,0
0,62,120,8
0,36,64,0
0,57,74,4
0,57,64,0
0,42,94,4
0,56,126,0
0,62,120,0
0,50,94,0
0,42,104,0
0,50,104,0
0,54,104,4
0,54,94,0
0,90,120,8
0,55,94,176
0,55,104,0
0,43,94,0
0,43,104,0
0,59,74,0
0,59,64,0
0,36,64,4
0,63,64,0
0,62,120,0
0,50,104,4
0,50,94,0
0,68,80,0
0,58,64,0
0,36,64,0
0,62,120,156
0,54,99,0
0,45,94,28
0,45,104,0
0,55,74,0
0,90,120,0
0,55,64,0
0,50,94,0
0,50,104,0
0,52,80,4
0,52,90,0
0,60,120,4
0,57,50,4
0,57,60,0
0,45,94,4
0,45,104,0
0,52,104,0
0,52,94,0
0,57,80,4
0,36,64,0
0,57,64,4
0,57,74,0
0,60,64,180
0,90,120,180
0,28,94,0
0,61,64,0
0,36,64,180
0,63,64,0
0,36,64,32
0,98,64,0
0,90,120,372
0,36,64,380
0,56,99,0
0,90,120,180
0,36,64,0
0,36,64,4
0,58,64,180
0,45,94,176
0,45,104,0
0,55,74,0
0,55,64,0
0,90,120,4
0,50,94,0
0,50,104,0
0,52,90,4
0,52,80,0
0,57,60,4
0,57,50,0
0,45,94,4
0,45,104,0
0,36,64,4
0,52,104,0
0,52,94,0
0,57,64,4
0,57,74,0
0,60,64,180
0,52,104,4
0,52,94,0
0,57,120,4
0,39,84,0
0,61,64,0
0,57,74,0
0,57,64,0
0,90,120,0
0,45,94,0
0,45,104,0
0,28,94,0
0,36,64,8
0,63,64,0
0,36,64,156
0,57,120,0
0,77,119,0
0,62,126,0
0,85,64,0
0,90,120,0
0,39,84,0
0,57,120,0
0,57,64,4
0,52,94,0
0,57,74,0
0,52,104,0
0,39,84,4
0,52,100,0
0,45,104,4
0,45,94,0
0,36,64,8
0,55,120,0
0,43,80,4
0,43,90,0
0,50,90,0
0,50,80,0
0,60,64,4
0,57,120,0
0,57,50,4
0,57,60,0
0,52,94,4
0,52,104,0
0,39,84,4
0,45,104,0
0,28,94,0
0,61,64,0
0,90,120,0
0,45,94,0
0,57,64,0
0,57,74,0
0,36,64,8
0,63,64,0
0,60,120,0
0,36,64,0
0,77,119,0
0,85,64,0
0,62,126,0
0,50,104,0
0,50,94,0
0,39,84,0
0,90,120,0
0,43,94,0
0,43,104,0
0,55,64,0
0,55,74,0
0,62,100,8
0,57,60,0
0,57,50,0
0,39,84,0
0,50,80,4
0,50,90,0
0,52,94,4
0,52,104,0
