track,note,velocity,time
2,35,80,192
2,35,0,71
2,42,80,1
2,42,0,95
2,35,80,1
2,35,0,23
2,35,80,1
2,35,0,191
2,35,80,1
2,35,0,71
2,42,80,1
2,42,0,95
2,35,80,1
2,35,0,23
2,35,80,1
2,35,0,191
2,35,80,1
2,35,0,71
2,42,80,1
2,42,0,95
2,35,80,1
2,35,0,95
2,37,80,1
2,37,0,95
2,32,80,1
2,32,0,23
2,37,80,1
2,37,0,71
2,32,80,1
2,32,0,119
2,30,80,1
2,30,0,191
2,35,80,1
2,35,0,71
2,42,80,1
2,42,0,95
2,35,80,1
2,35,0,23
2,35,80,1
2,35,0,191
2,35,80,1
2,35,0,71
2,42,80,1
2,42,0,95
2,35,80,1
2,35,0,23
2,35,80,1
2,35,0,191
2,35,80,1
2,35,0,71
2,42,80,1
2,42,0,95
2,35,80,1
2,35,0,95
2,37,80,1
2,37,0,95
2,32,80,1
2,32,0,23
2,37,80,1
2,37,0,71
2,32,80,1
2,32,0,119
2,30,80,1
2,30,0,191
2,40,80,1
2,40,0,143
2,52,80,1
2,52,0,47
2,40,80,1
2,40,0,143
2,52,80,1
2,52,0,47
2,40,80,1
2,40,0,143
2,52,80,1
2,52,0,47
2,40,80,1
2,40,0,143
2,52,80,1
2,52,0,23
2,47,80,1
2,47,0,23
2,40,80,1
2,40,0,71
2,40,80,1
2,40,0,71
2,47,80,1
2,47,0,47
2,40,80,1
2,40,0,71
2,40,80,1
2,40,0,71
2,47,80,1
2,47,0,47
2,40,80,1
2,40,0,71
2,40,80,1
2,40,0,71
2,47,80,1
2,47,0,47
2,33,80,1
2,33,0,71
2,33,80,1
2,33,0,119
2,33,80,1
2,33,0,71
2,33,80,1
2,33,0,119
2,33,80,1
2,33,0,71
2,33,80,1
2,33,0,119
2,33,80,1
2,33,0,71
2,33,80,1
2,33,0,119
2,33,80,1
2,33,0,71
2,33,80,1
2,33,0,119
2,36,80,1
2,36,0,71
2,36,80,1
2,36,0,119
2,36,80,1
2,36,0,71
2,36,80,1
2,36,0,119
2,36,80,1
2,36,0,71
2,36,80,1
2,36,0,119
2,36,80,1
2,36,0,71
2,36,80,1
2,36,0,119
2,32,80,1
2,32,0,71
2,32,80,1
2,32,0,119
2,32,80,1
2,32,0,71
2,32,80,1
2,32,0,119
2,32,80,1
2,32,0,71
2,32,80,1
2,32,0,119
2,36,80,1
2,36,0,191
2,35,80,1
2,35,0,71
2,42,80,1
2,42,0,71
2,35,80,1
2,35,0,23
2,35,80,1
2,35,0,215
2,35,80,1
2,35,0,71
2,42,80,1
2,42,0,71
2,35,80,1
2,35,0,23
2,35,80,1
2,35,0,215
2,35,80,1
2,35,0,71
2,42,80,1
2,42,0,71
2,35,80,1
2,35,0,23
2,35,80,1
2,35,0,95
2,35,80,1
2,35,0,95
2,32,80,1
2,32,0,23
2,37,80,1
2,37,0,71
2,32,80,1
2,32,0,119
2,30,80,1
2,30,0,23
2,30,80,1
2,30,0,47
2,32,80,1
2,32,0,23
2,33,80,1
2,33,0,23
2,33,80,1
2,33,0,23
2,35,80,1
2,35,0,23
2,37,80,1
2,37,0,23
2,35,80,1
2,35,0,71
2,42,80,1
2,42,0,71
2,35,80,1
2,35,0,23
2,35,80,1
2,35,0,215
2,35,80,1
2,35,0,71
2,42,80,1
2,42,0,71
2,35,80,1
2,35,0,23
2,35,80,1
2,35,0,215
2,35,80,1
2,35,0,71
2,42,80,1
2,42,0,95
2,35,80,1
2,35,0,95
2,37,80,1
2,37,0,95
2,32,80,1
2,32,0,23
2,37,80,1
2,37,0,71
2,32,80,1
2,32,0,119
2,30,80,1
2,30,0,23
2,30,80,1
2,30,0,23
2,30,80,25
2,30,0,23
2,30,80,1
2,30,0,23
2,30,80,1
2,30,0,23
2,40,80,49
2,40,0,143
2,52,80,1
2,52,0,47
2,40,80,1
2,40,0,143
2,52,80,1
2,52,0,47
2,40,80,1
2,40,0,143
2,52,80,1
2,52,0,47
2,40,80,1
2,40,0,143
2,52,80,1
2,52,0,23
2,47,80,1
2,47,0,23
2,40,80,1
2,40,0,71
2,40,80,1
2,40,0,71
2,47,80,1
2,47,0,47
2,40,80,1
2,40,0,71
2,40,80,1
2,40,0,71
2,47,80,1
2,47,0,47
2,40,80,1
2,40,0,71
2,40,80,1
2,40,0,71
2,47,80,1
2,47,0,47
2,33,80,1
2,33,0,71
2,33,80,1
2,33,0,119
2,33,80,1
2,33,0,71
2,33,80,1
2,33,0,119
2,33,80,1
2,33,0,71
2,33,80,1
2,33,0,119
2,33,80,1
2,33,0,71
2,33,80,1
2,33,0,119
2,33,80,1
2,33,0,71
2,33,80,1
2,33,0,119
2,36,80,1
2,36,0,71
2,36,80,1
2,36,0,119
2,36,80,1
2,36,0,71
2,36,80,1
2,36,0,119
2,36,80,1
2,36,0,71
2,36,80,1
2,36,0,119
2,36,80,1
2,36,0,71
2,36,80,1
2,36,0,119
2,32,80,1
2,32,0,71
2,32,80,1
2,32,0,119
2,32,80,1
2,32,0,71
2,32,80,1
2,32,0,119
2,32,80,1
2,32,0,71
2,32,80,1
2,32,0,119
2,36,80,1
2,36,0,191
2,35,80,1
2,35,0,71
2,42,80,1
2,42,0,71
2,35,80,1
2,35,0,23
2,35,80,1
2,35,0,215
2,35,80,1
2,35,0,71
2,42,80,1
2,42,0,71
2,35,80,1
2,35,0,23
2,35,80,1
2,35,0,215
2,35,80,1
2,35,0,71
2,42,80,1
2,42,0,71
2,35,80,1
2,35,0,23
2,35,80,1
2,35,0,95
2,35,80,1
2,35,0,95
2,32,80,1
2,32,0,23
2,37,80,1
2,37,0,71
2,32,80,1
2,32,0,119
2,30,80,1
2,30,0,23
2,30,80,1
2,30,0,47
2,32,80,1
2,32,0,23
2,33,80,1
2,33,0,23
2,33,80,1
2,33,0,23
2,35,80,1
2,35,0,23
2,37,80,1
2,37,0,23
2,35,80,1
2,35,0,71
2,42,80,1
2,42,0,71
2,35,80,1
2,35,0,23
2,35,80,1
2,35,0,215
2,35,80,1
2,35,0,71
2,42,80,1
2,42,0,71
2,35,80,1
2,35,0,23
2,35,80,1
2,35,0,215
2,35,80,1
2,35,0,71
2,42,80,1
2,42,0,95
2,35,80,1
2,35,0,95
2,37,80,1
2,37,0,95
2,32,80,1
2,32,0,23
2,37,80,1
2,37,0,71
2,32,80,1
2,32,0,119
2,30,80,1
2,30,0,191
2,37,80,1
2,37,0,71
2,32,80,1
2,32,0,119
2,30,80,1
2,30,0,71
2,30,80,1
2,30,0,23
2,30,80,1
2,30,0,95
2,37,80,1
2,37,0,71
2,32,80,1
2,32,0,47
2,39,80,1
2,39,0,23
2,44,80,1
2,44,0,23
2,44,80,1
2,44,0,23
2,45,80,1
2,45,0,23
2,45,80,1
2,45,0,23
2,44,80,1
2,44,0,23
2,44,80,1
2,44,0,23
2,42,80,1
2,42,0,71
2,40,80,1
2,40,0,23
2,35,80,1
2,35,0,71
2,42,80,1
2,42,0,71
2,35,80,1
2,35,0,23
2,35,80,1
2,35,0,215
2,35,80,1
2,35,0,71
2,42,80,1
2,42,0,71
2,35,80,1
2,35,0,23
2,35,80,1
2,35,0,215
2,35,80,1
2,35,0,71
2,42,80,1
2,42,0,95
2,35,80,1
2,35,0,95
2,37,80,1
2,37,0,95
2,32,80,1
2,32,0,23
2,37,80,1
2,37,0,71
2,32,78,1
2,32,0,119
2,30,74,1
2,30,0,71
2,42,72,1
2,42,0,119
2,35,68,1
2,35,0,71
2,42,65,1
2,42,0,71
2,35,63,1
2,35,0,23
2,35,62,1
2,35,0,215
2,35,55,1
2,35,0,71
2,42,53,1
2,42,0,71
2,35,50,1
2,35,0,23
2,35,49,1
2,35,0,215
2,35,42,1
2,35,0,71
2,42,40,1
2,42,0,95
2,35,37,1
2,35,0,95
2,37,33,1
2,37,0,95
2,32,30,1
2,32,0,23
2,37,29,1
2,37,0,71
2,32,27,1
2,32,0,119
2,30,23,1
2,30,0,191
3,80,64,1800
3,80,0,47
3,78,64,1
3,78,0,47
3,80,64,1
3,80,0,47
3,76,64,1
3,76,0,23
3,73,64,1
3,73,0,23
3,73,64,1
3,73,0,47
3,71,64,1
3,71,0,23
3,73,64,1
3,73,0,23
3,71,64,1
3,71,0,23
3,80,64,73
3,80,0,47
3,78,64,1
3,78,0,23
3,76,64,1
3,76,0,23
3,80,64,1
3,80,0,47
3,76,64,1
3,76,0,47
3,73,64,1
3,73,0,47
3,76,64,1
3,76,0,23
3,73,64,1
3,73,0,23
3,76,64,1
3,76,0,23
3,80,64,73
3,80,0,23
3,80,64,1
3,80,0,23
3,80,64,1
3,80,0,23
3,78,64,1
3,78,0,23
3,81,64,1
3,81,0,47
3,80,64,1
3,80,0,23
3,80,64,1
3,80,0,11
3,78,64,1
3,78,0,11
3,76,64,1
3,76,0,23
3,71,64,73
3,71,0,23
3,76,64,1
3,76,0,23
3,76,64,1
3,76,0,23
3,75,64,1
3,75,0,23
3,71,64,1
3,71,0,47
3,68,64,1
3,68,0,47
3,71,64,1
3,71,0,71
3,71,64,913
3,71,0,23
3,72,64,1
3,72,0,23
3,71,64,1
3,71,0,23
3,66,64,1
3,66,0,71
3,71,64,25
3,71,0,47
3,72,64,1
3,72,0,23
3,71,64,1
3,71,0,23
3,66,64,1
3,66,0,71
3,71,64,25
3,71,0,47
3,71,64,1
3,71,0,47
3,64,64,1
3,64,0,23
3,66,64,1
3,66,0,23
3,64,64,1
3,64,0,23
3,71,64,1
3,71,0,23
3,71,64,1
3,71,0,71
3,64,64,73
3,64,0,23
3,71,64,1
3,71,0,23
3,69,64,1
3,69,0,47
3,68,64,1
3,68,0,47
3,66,64,1
3,66,0,71
3,69,64,1
3,69,0,23
3,71,64,1
3,71,0,23
3,68,64,1
3,68,0,47
3,69,64,169
3,69,0,23
3,69,64,1
3,69,0,23
3,74,64,1
3,74,0,47
3,73,64,1
3,73,0,47
3,71,64,1
3,71,0,47
3,64,64,1
3,64,0,47
3,64,64,1
3,64,0,71
3,67,64,73
3,67,0,23
3,74,64,1
3,74,0,47
3,72,64,1
3,72,0,47
3,71,64,1
3,71,0,23
3,67,64,1
3,67,0,71
3,67,64,73
3,67,0,23
3,69,64,1
3,69,0,23
3,67,64,1
3,67,0,23
3,74,64,25
3,74,0,23
3,74,64,1
3,74,0,23
3,72,64,1
3,72,0,47
3,71,64,1
3,71,0,47
3,67,64,1
3,67,0,71
3,70,64,217
3,70,0,47
3,68,64,1
3,68,0,47
3,67,64,1
3,67,0,23
3,63,64,1
3,63,0,71
3,65,64,1
3,65,0,71
3,70,64,73
3,70,0,47
3,68,64,1
3,68,0,47
3,67,64,1
3,67,0,47
3,68,64,1
3,68,0,11
3,67,64,1
3,67,0,11
3,63,64,1
3,63,0,47
3,80,64,193
3,80,0,23
3,80,64,1
3,80,0,47
3,78,64,1
3,78,0,47
3,80,64,1
3,80,0,47
3,76,64,1
3,76,0,23
3,73,64,1
3,73,0,23
3,73,64,1
3,73,0,47
3,71,64,1
3,71,0,23
3,73,64,1
3,73,0,23
3,76,64,1
3,76,0,23
3,80,64,49
3,80,0,23
3,80,64,1
3,80,0,47
3,78,64,1
3,78,0,23
3,76,64,1
3,76,0,23
3,80,64,1
3,80,0,47
3,76,64,1
3,76,0,47
3,73,64,1
3,73,0,47
3,76,64,1
3,76,0,23
3,73,64,1
3,73,0,23
3,71,64,1
3,71,0,23
3,80,64,73
3,80,0,23
3,80,64,1
3,80,0,23
3,80,64,1
3,80,0,23
3,78,64,1
3,78,0,23
3,81,64,1
3,81,0,47
3,80,64,1
3,80,0,23
3,80,64,1
3,80,0,11
3,78,64,1
3,78,0,11
3,76,64,1
3,76,0,23
3,71,64,73
3,71,0,23
3,76,64,1
3,76,0,23
3,76,64,1
3,76,0,23
3,75,64,1
3,75,0,23
3,71,64,1
3,71,0,47
3,68,64,1
3,68,0,47
3,73,64,1
3,73,0,23
3,71,64,1
3,71,0,47
3,80,64,193
3,80,0,23
3,80,64,1
3,80,0,47
3,78,64,1
3,78,0,47
3,80,64,1
3,80,0,47
3,76,64,1
3,76,0,23
3,73,64,1
3,73,0,23
3,73,64,1
3,73,0,47
3,71,64,1
3,71,0,23
3,73,64,1
3,73,0,23
3,76,64,1
3,76,0,23
3,71,64,25
3,71,0,23
3,80,64,1
3,80,0,23
3,80,64,1
3,80,0,23
3,80,64,1
3,80,0,23
3,78,64,1
3,78,0,23
3,78,64,1
3,78,0,23
3,80,64,1
3,80,0,47
3,76,64,1
3,76,0,23
3,76,64,1
3,76,0,23
3,73,64,1
3,73,0,47
3,71,64,1
3,71,0,23
3,73,64,1
3,73,0,23
3,76,64,1
3,76,0,23
3,71,64,25
3,71,0,23
3,80,64,1
3,80,0,47
3,80,64,1
3,80,0,23
3,78,64,1
3,78,0,23
3,78,64,1
3,78,0,23
3,81,64,1
3,81,0,47
3,80,64,1
3,80,0,23
3,80,64,1
3,80,0,11
3,78,64,1
3,78,0,11
3,76,64,1
3,76,0,23
3,71,64,73
3,71,0,23
3,76,64,1
3,76,0,23
3,76,64,1
3,76,0,23
3,75,64,1
3,75,0,23
3,71,64,1
3,71,0,47
3,68,64,1
3,68,0,47
3,73,64,1
3,73,0,23
3,71,64,1
3,71,0,47
3,71,64,913
3,71,0,23
3,72,64,1
3,72,0,23
3,71,64,1
3,71,0,23
3,66,64,1
3,66,0,71
3,71,64,25
3,71,0,47
3,72,64,1
3,72,0,23
3,71,64,1
3,71,0,23
3,66,64,1
3,66,0,71
3,71,64,25
3,71,0,47
3,71,64,1
3,71,0,47
3,64,64,1
3,64,0,23
3,66,64,1
3,66,0,23
3,64,64,1
3,64,0,23
3,71,64,1
3,71,0,23
3,71,64,1
3,71,0,71
3,64,64,73
3,64,0,23
3,71,64,1
3,71,0,23
3,69,64,1
3,69,0,47
3,68,64,1
3,68,0,47
3,66,64,1
3,66,0,71
3,69,64,1
3,69,0,23
3,71,64,1
3,71,0,23
3,68,64,1
3,68,0,47
3,69,64,169
3,69,0,23
3,69,64,1
3,69,0,23
3,74,64,1
3,74,0,47
3,73,64,1
3,73,0,47
3,71,64,1
3,71,0,47
3,64,64,1
3,64,0,47
3,64,64,1
3,64,0,71
3,67,64,73
3,67,0,23
3,74,64,1
3,74,0,47
3,72,64,1
3,72,0,47
3,71,64,1
3,71,0,23
3,67,64,1
3,67,0,71
3,67,64,73
3,67,0,23
3,69,64,1
3,69,0,23
3,67,64,1
3,67,0,23
3,74,64,25
3,74,0,23
3,74,64,1
3,74,0,23
3,72,64,1
3,72,0,47
3,71,64,1
3,71,0,47
3,67,64,1
3,67,0,71
3,70,64,217
3,70,0,47
3,68,64,1
3,68,0,47
3,67,64,1
3,67,0,23
3,63,64,1
3,63,0,71
3,65,64,1
3,65,0,71
3,70,64,73
3,70,0,47
3,68,64,1
3,68,0,47
3,67,64,1
3,67,0,47
3,68,64,1
3,68,0,11
3,67,64,1
3,67,0,11
3,63,64,1
3,63,0,47
3,80,64,193
3,80,0,23
3,80,64,1
3,80,0,47
3,78,64,1
3,78,0,47
3,80,64,1
3,80,0,47
3,76,64,1
3,76,0,23
3,73,64,1
3,73,0,23
3,73,64,1
3,73,0,47
3,71,64,1
3,71,0,23
3,73,64,1
3,73,0,23
3,76,64,1
3,76,0,23
3,80,64,49
3,80,0,23
3,80,64,1
3,80,0,47
3,78,64,1
3,78,0,23
3,76,64,1
3,76,0,23
3,80,64,1
3,80,0,47
3,76,64,1
3,76,0,47
3,73,64,1
3,73,0,47
3,76,64,1
3,76,0,23
3,73,64,1
3,73,0,23
3,71,64,1
3,71,0,23
3,80,64,73
3,80,0,23
3,80,64,1
3,80,0,23
3,80,64,1
3,80,0,23
3,78,64,1
3,78,0,23
3,81,64,1
3,81,0,47
3,80,64,1
3,80,0,23
3,80,64,1
3,80,0,11
3,78,64,1
3,78,0,11
3,76,64,1
3,76,0,23
3,71,64,73
3,71,0,23
3,76,64,1
3,76,0,23
