track,note,velocity,time
2,34,108,5952
2,32,105,62
2,34,97,8
2,37,108,10
2,39,100,26
2,39,105,32
2,39,108,40
2,39,102,122
2,39,108,48
2,39,105,40
2,39,113,128
2,39,108,46
2,39,108,42
2,39,113,120
2,32,102,48
2,34,95,4
2,37,108,30
2,39,108,40
2,39,102,40
2,39,108,32
2,39,108,120
2,39,105,46
2,39,108,32
2,39,108,128
2,39,105,48
2,39,113,42
2,39,113,122
2,32,93,48
2,34,95,10
2,37,108,26
2,39,100,26
2,39,105,32
2,39,108,40
2,39,102,122
2,39,108,48
2,39,105,40
2,39,113,128
2,39,108,46
2,39,108,42
2,39,113,120
2,32,102,48
2,34,95,4
2,37,108,30
2,39,108,40
2,39,102,40
2,39,108,32
2,39,108,120
2,39,105,46
2,39,108,32
2,39,108,128
2,39,105,48
2,39,113,42
2,39,113,122
2,32,93,48
2,34,95,10
2,37,102,26
2,39,100,26
2,39,105,32
2,39,108,40
2,39,102,122
2,39,108,48
2,39,105,40
2,39,113,128
2,39,108,46
2,39,108,42
2,39,113,120
2,32,102,48
2,34,95,4
2,37,108,30
2,39,108,40
2,39,102,40
2,39,108,32
2,39,108,120
2,39,105,46
2,39,108,32
2,39,108,128
2,39,105,48
2,39,113,42
2,39,113,122
2,32,93,48
2,34,95,10
2,37,108,26
2,39,100,26
2,39,105,32
2,39,108,40
2,39,102,122
2,39,108,48
2,39,105,40
2,39,113,128
2,39,108,46
2,39,108,42
2,39,113,120
2,32,102,48
2,34,95,4
2,37,108,30
2,39,108,40
2,39,102,40
2,39,108,32
2,39,108,120
2,39,105,46
2,39,108,32
2,39,108,128
2,42,110,8
2,44,104,8
2,46,111,14
2,49,107,20
2,51,103,8
2,37,98,10
2,37,108,8
2,39,100,26
2,39,105,32
2,39,108,40
2,39,102,122
2,39,108,48
2,39,105,40
2,39,113,128
2,39,108,46
2,39,108,42
2,39,113,120
2,32,102,48
2,34,95,4
2,37,108,30
2,39,108,40
2,39,102,40
2,39,108,32
2,39,108,120
2,39,105,46
2,39,108,32
2,39,108,128
2,39,105,48
2,39,113,42
2,39,113,122
2,32,93,48
2,34,95,10
2,37,108,26
2,39,108,40
2,39,102,40
2,39,108,32
2,39,108,120
2,39,105,46
2,39,108,32
2,39,108,128
2,39,105,48
2,39,113,42
2,39,113,122
2,32,93,48
2,34,95,10
2,37,108,26
2,39,100,26
2,39,105,32
2,39,108,40
2,39,102,122
2,39,108,48
2,39,105,40
2,39,113,128
2,32,93,46
2,34,95,10
2,37,108,26
2,39,100,26
2,32,102,32
2,34,95,8
2,37,113,30
2,39,99,24
2,39,99,32
2,39,100,14
2,39,108,96
2,39,105,40
2,39,108,32
2,39,108,116
2,41,105,46
2,39,105,8
2,43,97,24
2,39,102,4
2,43,95,4
2,37,105,10
2,39,113,16
2,41,99,24
2,39,99,32
2,39,100,14
2,39,111,96
2,37,103,136
2,39,105,64
2,39,102,120
2,34,95,4
2,37,105,10
2,39,113,16
2,41,100,24
2,39,105,36
2,39,105,30
2,39,108,132
2,39,108,116
2,39,108,116
2,39,108,120
2,39,102,112
2,32,105,20
2,34,105,20
2,39,113,36
2,41,100,24
2,39,105,36
2,39,105,30
2,39,108,132
2,39,108,116
2,41,107,26
2,39,108,8
2,37,108,16
2,34,95,8
2,32,113,14
2,37,108,16
2,42,108,8
2,35,107,20
2,32,113,26
2,37,108,16
2,42,108,8
2,35,107,20
2,32,102,26
2,35,95,10
2,37,105,4
2,42,102,8
2,35,95,4
2,34,102,14
2,32,102,14
2,35,95,10
2,37,105,4
2,39,108,8
2,41,107,46
2,43,95,4
2,41,91,4
2,39,95,8
2,37,102,14
2,39,100,26
2,39,105,32
2,39,108,40
2,39,102,122
2,39,108,48
2,39,105,40
2,39,113,128
2,39,108,46
2,39,108,42
2,39,113,120
2,32,102,48
2,34,95,4
2,37,108,30
2,39,108,40
2,39,102,40
2,39,108,32
2,39,108,120
2,39,105,46
2,39,108,32
2,39,108,128
2,39,105,48
2,39,113,42
2,39,113,122
2,32,93,48
2,34,95,10
2,37,108,26
2,39,100,26
2,39,105,32
2,39,108,40
2,39,102,122
2,39,108,48
2,39,105,40
2,39,113,128
2,39,108,46
2,39,108,42
2,39,113,120
2,32,102,48
2,34,95,4
2,37,108,30
2,39,108,40
2,39,102,40
2,39,108,32
2,39,108,120
2,39,105,46
2,39,108,32
2,39,108,128
2,32,110,8
2,34,104,8
2,37,111,14
2,39,107,20
2,32,103,8
2,34,98,10
2,37,108,8
2,39,100,26
2,39,105,32
2,39,108,40
2,39,102,122
2,39,108,48
2,39,105,40
2,39,113,128
2,39,108,46
2,39,108,42
2,39,113,120
2,32,102,48
2,34,95,4
2,37,108,30
2,39,108,40
2,39,102,40
2,39,108,32
2,39,108,120
2,39,105,46
2,39,108,32
2,39,108,128
2,39,105,48
2,39,113,42
2,39,113,122
2,32,93,48
2,34,95,10
2,37,108,26
2,39,108,40
2,39,102,40
2,39,108,32
2,39,108,120
2,39,105,46
2,39,108,32
2,39,108,128
2,39,105,48
2,39,113,42
2,39,113,122
2,32,93,48
2,34,95,10
2,37,108,26
2,39,100,26
2,39,105,32
2,39,108,40
2,39,102,122
2,39,108,48
2,39,105,40
2,39,113,128
2,32,93,46
2,34,95,10
2,37,108,26
2,39,100,26
2,32,102,32
2,34,95,8
2,37,107,30
2,39,100,26
2,39,105,32
2,39,108,40
2,39,102,122
2,39,108,48
2,39,105,40
2,39,113,128
2,39,108,46
2,39,108,42
2,39,113,120
2,32,102,48
2,34,95,4
2,39,108,30
2,41,108,40
2,39,102,40
2,39,108,32
2,39,108,120
2,39,105,46
2,39,108,32
2,39,108,128
2,39,105,48
2,39,113,42
2,39,113,122
2,32,93,48
2,34,95,10
2,39,108,26
2,41,100,26
2,39,105,32
2,39,108,40
2,39,102,122
2,39,108,48
2,39,105,40
2,39,113,128
2,39,108,46
2,39,108,42
2,39,113,120
2,32,102,48
2,34,95,4
2,39,108,30
2,41,108,40
2,39,102,40
2,39,108,32
2,39,108,120
2,39,105,46
2,39,108,32
2,41,107,32
2,39,108,8
2,37,108,16
2,34,95,8
2,32,102,14
2,35,95,10
2,37,105,4
2,42,102,8
2,35,95,4
2,34,102,14
2,32,102,14
2,35,95,10
2,37,105,4
2,42,102,8
2,35,95,4
2,34,102,14
2,32,102,14
2,35,95,10
2,37,105,4
2,42,102,8
2,35,95,4
2,34,102,14
2,32,102,14
2,35,95,10
2,37,105,4
2,39,108,8
2,32,91,20
2,34,95,8
2,27,108,14
2,39,108,14
2,37,113,120
2,34,108,128
2,27,108,46
2,39,105,14
2,32,113,110
2,27,105,94
2,39,108,4
2,37,98,104
2,34,89,126
2,27,107,46
2,39,104,8
2,34,113,110
2,34,113,416
2,38,107,416
2,43,105,382
2,43,110,384
2,34,113,368
2,38,111,368
2,31,113,372
2,31,108,48
2,31,113,56
2,34,113,416
2,38,107,416
2,43,105,382
2,43,110,384
2,34,113,368
2,38,111,368
2,31,113,372
2,32,105,48
2,32,102,408
2,31,105,400
2,31,107,392
2,29,107,388
2,29,107,376
2,39,119,304
2,34,105,20
2,37,113,16
2,39,97,14
2,39,102,14
2,39,97,16
2,39,105,16
2,39,93,14
2,39,105,16
2,39,100,16
2,39,105,14
2,39,99,14
2,39,102,14
2,39,100,16
2,39,102,20
2,39,102,24
2,32,95,14
2,34,102,8
2,37,113,14
2,39,97,14
2,39,102,14
2,39,97,16
2,39,105,16
2,39,93,14
2,39,105,16
2,39,100,16
2,39,105,14
2,39,99,14
2,39,102,14
2,39,100,16
2,39,102,20
2,39,102,95
2,32,95,14
2,34,102,8
2,37,113,14
2,39,97,14
2,39,102,14
2,39,97,16
2,39,105,16
2,39,93,14
2,39,105,16
2,39,100,16
2,39,105,14
2,39,99,14
2,39,102,14
2,39,100,16
2,39,102,20
2,39,102,24
2,32,95,14
2,34,102,8
2,37,113,14
2,39,97,14
2,39,102,14
2,39,97,16
2,39,105,16
2,39,93,14
2,39,105,16
2,39,100,16
2,39,105,14
2,39,99,14
2,44,102,14
2,46,100,8
2,49,102,10
2,51,102,8
2,44,95,14
2,46,102,8
2,37,113,14
2,39,97,14
2,39,102,14
2,39,97,16
2,39,105,16
2,39,93,14
2,39,105,16
2,39,100,16
2,39,105,14
2,39,99,14
2,39,102,14
2,39,100,16
2,39,102,20
2,39,102,24
2,32,95,14
2,34,102,8
2,37,113,14
2,39,97,14
2,39,102,14
2,39,97,16
2,39,105,16
2,39,93,14
2,39,105,16
2,39,100,16
2,39,105,14
2,39,99,14
2,39,102,14
2,39,100,16
2,39,102,20
2,39,102,95
2,32,95,14
2,34,102,8
2,37,113,14
2,39,97,14
2,39,102,14
2,39,97,16
2,39,105,16
2,39,93,14
2,39,105,16
2,39,100,16
2,39,105,14
2,39,99,14
2,39,102,14
2,39,100,16
2,39,102,20
2,39,102,24
2,32,95,14
2,34,102,8
2,37,113,14
2,39,97,14
2,39,102,14
2,39,97,16
2,39,105,16
2,39,93,14
2,39,105,16
2,39,100,16
2,39,105,14
2,39,99,14
2,32,102,14
2,34,100,8
2,37,102,10
2,39,102,8
2,32,95,14
2,34,102,8
2,39,113,14
2,41,97,14
2,39,102,14
2,39,97,16
2,39,105,16
2,39,93,14
2,39,105,16
2,39,100,16
2,39,105,14
2,39,99,14
2,39,102,14
2,39,100,16
2,39,102,20
2,39,102,24
2,32,95,14
2,34,102,8
2,39,113,14
2,41,97,14
2,39,102,14
2,39,97,16
2,39,105,16
2,39,93,14
2,39,105,16
2,39,100,16
2,39,105,14
2,39,99,14
2,39,102,14
2,39,100,16
2,39,102,20
2,39,102,95
2,32,95,14
2,34,102,8
2,39,113,14
2,41,97,14
2,39,102,14
2,39,97,16
2,39,105,16
2,39,93,14
2,39,105,16
2,39,100,16
2,39,105,14
2,39,99,14
2,39,102,14
2,39,100,16
2,39,102,20
2,39,102,24
2,32,95,14
2,34,102,8
2,39,113,14
2,41,97,14
2,39,102,14
2,39,97,16
2,39,105,16
2,39,93,14
2,39,105,16
2,39,100,16
2,41,107,14
2,39,108,8
2,37,108,16
2,34,95,8
2,32,102,14
2,32,100,10
2,32,98,8
2,35,95,26
2,37,105,4
2,42,102,8
2,35,95,4
2,30,102,14
2,32,102,14
2,32,100,10
2,32,98,8
2,35,95,26
2,37,105,4
2,42,102,8
2,35,95,4
2,30,102,14
2,32,102,14
2,35,95,10
2,37,105,4
2,42,102,8
2,35,95,4
2,30,102,14
2,32,102,14
2,35,95,10
2,37,105,4
2,39,100,8
2,39,108,30
2,39,102,48
2,39,100,16
2,39,105,46
2,39,105,16
2,39,100,36
2,37,108,14
2,34,105,10
2,32,113,14
2,34,105,14
2,35,98,14
2,37,108,10
2,39,105,14
2,37,102,8
2,42,99,8
2,42,102,36
2,34,102,24
2,35,99,4
2,34,102,14
2,32,113,16
2,34,105,14
2,35,98,14
2,37,108,10
2,39,105,14
2,37,102,8
2,42,99,8
2,42,102,36
2,34,102,24
2,35,99,4
2,34,102,14
2,32,113,16
2,34,105,14
2,35,98,14
2,37,108,10
2,39,105,14
2,37,102,8
2,42,99,8
2,42,102,36
2,34,102,24
2,35,99,4
2,34,102,14
2,32,113,16
2,34,105,14
2,35,98,14
2,37,108,10
2,39,105,14
2,37,102,8
2,39,102,8
2,39,108,30
2,39,105,80
2,39,108,30
2,44,93,104
2,46,99,4
2,51,99,8
2,49,99,4
2,46,102,8
2,32,113,16
2,34,105,14
2,35,98,14
2,37,108,10
2,39,105,14
2,37,102,8
2,42,99,8
2,42,102,0
2,34,102,24
2,35,99,0
2,34,102,4
2,32,113,16
2,34,105,14
2,35,98,14
2,37,108,10
2,39,105,14
2,37,102,8
2,42,99,8
2,42,102,36
2,34,102,16
2,35,99,4
2,34,102,14
2,32,113,16
2,34,105,14
2,35,98,14
2,37,108,10
2,39,105,14
2,37,102,8
2,42,99,8
2,42,102,36
2,34,102,16
2,35,99,4
2,34,102,14
2,32,113,16
2,34,105,14
2,35,98,14
2,37,108,10
2,39,105,14
2,37,102,8
3,55,100,3070
3,60,100,0
3,58,92,4
3,62,87,0
3,60,92,16
3,55,85,0
3,53,83,4
3,58,89,0
3,55,100,224
3,60,100,0
3,58,92,4
3,62,87,0
3,60,92,16
3,55,85,0
3,53,83,4
3,58,89,0
3,55,100,224
3,60,100,0
3,58,92,4
3,62,87,0
3,60,92,16
3,55,85,0
3,53,83,4
3,58,89,0
3,55,100,224
3,60,100,0
3,58,92,4
3,62,87,0
3,60,92,16
3,55,85,0
3,53,83,4
3,58,89,0
3,55,100,224
3,60,100,0
3,58,92,4
3,62,87,0
3,60,92,16
3,55,85,0
3,53,83,4
3,58,89,0
3,55,100,224
3,60,100,0
3,58,92,4
3,62,87,0
3,60,92,16
3,55,85,0
3,53,83,4
3,58,89,0
3,55,100,224
3,60,100,0
3,58,92,4
3,62,87,0
3,60,92,16
3,55,85,0
3,53,83,4
3,58,89,0
3,55,100,224
3,60,100,0
3,58,92,4
3,62,87,0
3,60,92,16
3,55,85,0
3,53,83,4
3,58,89,0
3,39,100,67616
3,51,113,96
3,63,105,46
3,66,84,46
3,61,108,0
3,63,102,78
3,63,108,42
3,39,100,36
3,51,113,96
3,63,108,40
3,68,102,48
3,63,105,0
3,63,105,52
3,63,105,46
3,39,97,42
3,51,119,96
3,63,105,40
3,66,89,40
3,61,105,0
3,63,102,84
3,63,102,46
3,39,100,32
3,51,113,96
3,63,108,32
3,68,105,46
3,63,105,0
3,63,102,68
3,63,105,42
3,39,99,40
3,51,113,96
3,63,108,40
3,66,89,36
3,61,105,0
3,63,108,64
3,63,108,40
3,39,100,36
3,51,113,96
3,63,108,40
3,68,102,40
3,63,100,0
3,63,102,58
3,63,105,42
3,39,100,46
3,51,108,96
3,63,108,40
3,66,91,36
3,61,105,0
3,63,105,74
3,63,102,36
3,39,100,36
3,51,105,8
3,63,113,48
3,68,105,40
3,63,105,0
3,63,105,72
3,63,102,46
3,55,116,17128
3,60,116,0
3,58,108,4
3,62,103,0
3,60,108,16
3,55,101,0
3,53,99,4
3,58,105,0
3,55,116,224
3,60,116,0
3,58,108,4
3,62,103,0
3,60,108,16
3,55,101,0
3,53,99,4
3,58,105,0
3,55,116,224
3,60,116,0
3,58,108,4
3,62,103,0
3,60,108,16
3,55,101,0
3,53,99,4
3,58,105,0
3,55,116,224
3,60,116,0
3,58,108,4
3,62,103,0
3,60,108,16
3,55,101,0
3,53,99,4
3,58,105,0
4,46,96,5946
4,53,94,0
4,58,99,0
4,46,98,8
4,53,99,0
4,58,92,0
4,58,77,10
4,46,81,0
4,53,74,0
4,63,93,5482
4,61,88,16
4,66,85,0
4,63,87,4
4,63,104,2766
4,63,101,132
4,58,79,26
4,63,93,2350
4,61,88,16
4,66,85,0
4,63,87,4
4,44,105,12462
4,51,119,0
4,49,113,10
4,56,105,0
4,42,106,14
4,49,113,0
4,47,108,8
4,54,108,0
4,44,100,14
4,51,113,0
4,49,108,4
4,56,105,0
4,42,105,10
4,49,119,0
4,47,108,4
4,54,108,0
4,51,113,14
4,44,105,0
4,49,105,8
4,56,102,0
4,49,108,10
4,42,105,0
4,47,108,4
4,54,105,0
4,51,113,8
4,44,108,0
4,56,105,14
4,49,113,0
4,58,102,4
4,51,105,0
4,51,81,10
4,58,78,0
4,63,93,5486
4,61,88,16
4,66,85,0
4,63,87,4
4,44,105,12462
4,51,119,0
4,49,113,10
4,56,105,0
4,42,106,14
4,49,113,0
4,47,108,8
4,54,108,0
4,44,100,14
4,51,113,0
4,49,108,4
4,56,105,0
4,42,105,10
4,49,119,0
4,47,108,4
4,54,108,0
4,51,113,14
4,44,105,0
4,49,105,8
4,56,102,0
4,49,108,10
4,42,105,0
4,47,108,4
4,54,105,0
4,51,113,8
4,44,108,0
4,56,105,14
4,49,113,0
4,58,102,4
4,51,105,0
4,58,115,23050
4,51,112,0
4,46,109,10
4,53,110,0
4,63,93,5486
4,61,88,16
4,66,85,0
