track,note,velocity,time
4,60,94,17169
4,65,94,1
4,41,94,1
4,57,94,0
4,65,0,380
4,60,0,0
4,41,0,1
4,57,0,0
4,40,94,1
4,55,94,0
4,59,94,1
4,64,94,1
4,59,0,380
4,40,0,0
4,55,0,0
4,64,0,1
4,38,94,2
4,62,94,0
4,54,94,0
4,57,94,0
4,62,0,333
4,57,0,1
4,62,94,1
4,57,94,2
4,62,0,91
4,57,0,2
4,57,70,2
4,62,70,1
4,62,0,45
4,57,0,0
4,57,94,2
4,62,94,0
4,62,0,93
4,57,0,1
4,62,70,1
4,57,70,1
4,62,0,44
4,57,0,2
4,57,94,2
4,62,94,0
4,62,0,141
4,57,0,0
4,38,0,0
4,54,0,1
4,55,94,97
4,62,94,1
4,62,0,27
4,55,0,2
4,55,94,66
4,62,94,1
4,55,0,39
4,54,94,10
4,54,0,70
4,62,0,2
4,52,94,23
4,57,94,1
4,57,0,40
4,52,0,1
4,62,94,101
4,55,94,1
4,62,0,39
4,55,0,3
4,55,94,53
4,62,94,2
4,55,0,44
4,54,94,2
4,54,0,66
4,62,0,1
4,57,94,30
4,52,94,1
4,57,0,36
4,52,0,1
4,55,94,105
4,62,94,2
4,62,0,41
4,55,0,2
4,55,94,52
4,62,94,0
4,55,0,41
4,54,94,7
4,54,0,79
4,62,0,0
4,55,94,16
4,50,94,2
4,55,0,47
4,50,0,2
4,50,94,94
4,57,94,0
4,57,0,99
4,50,0,0
4,50,94,45
4,57,94,1
4,57,0,13
4,50,0,0
4,50,94,35
4,57,94,0
4,50,0,105
4,57,0,4
4,62,94,81
4,55,94,1
4,62,0,39
4,55,0,3
4,62,94,54
4,55,94,1
4,55,0,45
4,54,94,1
4,54,0,79
4,62,0,0
4,52,94,17
4,57,94,1
4,57,0,43
4,52,0,4
4,62,94,97
4,55,94,1
4,62,0,43
4,55,0,2
4,55,94,49
4,62,94,0
4,55,0,39
4,54,94,10
4,62,0,68
4,54,0,6
4,52,94,21
4,57,94,0
4,57,0,39
4,52,0,2
4,62,94,103
4,55,94,1
4,62,0,38
4,55,0,3
4,55,94,55
4,62,94,1
4,55,0,38
4,54,94,8
4,62,0,65
4,54,0,3
4,50,94,28
4,55,94,2
4,55,0,48
4,50,0,0
4,57,94,95
4,50,94,0
4,50,0,108
4,57,0,3
4,50,94,32
4,57,94,1
4,50,0,11
4,57,0,2
4,50,94,36
4,57,94,0
4,50,0,88
4,57,0,6
4,55,94,97
4,62,94,0
4,62,0,37
4,55,0,1
4,55,94,58
4,62,94,1
4,55,0,38
4,54,94,8
4,62,0,72
4,54,0,3
4,52,94,21
4,57,94,1
4,57,0,44
4,52,0,4
4,62,94,96
4,55,94,1
4,62,0,41
4,55,0,3
4,55,94,52
4,62,94,0
4,55,0,40
4,54,94,7
4,62,0,66
4,54,0,8
4,57,94,21
4,52,94,2
4,57,0,45
4,52,0,2
4,55,94,95
4,62,94,1
4,62,0,43
4,55,0,1
4,55,94,52
4,62,94,0
4,55,0,39
4,54,94,10
4,62,0,69
4,54,0,4
4,50,94,23
4,55,94,0
4,55,0,49
4,50,0,2
4,50,94,91
4,57,94,0
4,57,0,114
4,50,0,0
4,57,94,30
4,50,94,0
4,50,0,12
4,57,0,0
4,50,94,37
4,57,94,0
4,57,0,86
4,50,0,8
4,55,94,99
4,62,94,0
4,62,0,40
4,55,0,1
4,62,94,53
4,55,94,1
4,62,0,29
4,55,0,2
4,54,94,17
4,62,94,0
4,62,0,58
4,54,0,2
4,52,94,36
4,57,94,1
4,52,0,52
4,57,0,3
4,55,94,87
4,62,94,0
4,55,0,47
4,62,0,1
4,62,94,49
4,55,94,0
4,62,0,39
4,55,0,4
4,57,94,4
4,64,94,2
4,57,0,53
4,64,0,4
4,64,94,37
4,57,94,1
4,57,0,45
4,64,0,7
4,55,94,91
4,62,94,1
4,55,0,48
4,62,0,1
4,55,94,47
4,62,94,1
4,55,0,35
4,54,94,13
4,54,0,58
4,62,0,3
4,50,94,33
4,55,94,1
4,55,0,38
4,50,0,2
4,50,94,103
4,57,94,1
4,57,0,113
4,50,0,2
4,50,94,29
4,57,94,0
4,50,0,11
4,57,0,3
4,57,94,33
4,50,94,1
4,50,0,90
4,57,0,4
4,62,94,97
4,55,94,0
4,62,0,40
4,55,0,2
4,62,94,55
4,55,94,1
4,55,0,36
4,54,94,12
4,62,0,56
4,54,0,4
4,52,94,35
4,57,94,0
4,57,0,52
4,52,0,5
4,55,94,87
4,62,94,0
4,55,0,54
4,62,0,1
4,55,94,40
4,62,94,2
4,62,0,46
4,57,94,0
4,64,94,1
4,55,0,3
4,64,0,53
4,57,0,7
4,57,94,33
4,64,94,0
4,57,0,54
4,64,0,5
4,55,94,84
4,62,94,1
4,55,0,49
4,62,0,2
4,62,94,44
4,55,94,2
4,55,0,36
4,54,94,10
4,62,0,53
4,54,0,11
4,50,94,32
4,55,94,1
4,55,0,45
4,50,0,1
4,50,94,98
4,57,94,0
4,57,0,111
4,50,0,0
4,50,94,32
4,57,94,2
4,50,0,13
4,57,0,3
4,50,94,31
4,57,94,1
4,50,0,65
4,57,0,6
4,57,94,23
4,60,94,0
4,41,94,1
4,65,94,1
4,57,0,379
4,60,0,1
4,41,0,1
4,65,0,0
4,55,94,1
4,59,94,0
4,64,94,1
4,40,94,1
4,59,0,380
4,55,0,0
4,64,0,1
4,40,0,0
4,38,94,1
4,54,94,0
4,57,94,0
4,62,94,2
4,57,0,332
4,62,0,1
4,57,94,1
4,62,94,1
4,57,0,92
4,62,0,1
4,57,70,2
4,62,70,1
4,57,0,44
4,62,0,2
4,57,94,2
4,62,94,0
4,62,0,94
4,57,0,0
4,57,70,3
4,62,70,0
4,62,0,45
4,57,0,0
4,62,94,2
4,57,94,1
4,54,0,139
4,38,0,0
4,62,0,2
4,57,0,0
4,64,94,1
4,55,94,1
4,48,94,0
4,60,94,0
4,64,0,348
4,60,0,4
4,55,0,3
4,48,0,16
4,58,94,12
4,62,94,0
4,46,94,1
4,53,94,0
4,53,0,362
4,58,0,5
4,62,0,1
4,46,0,10
4,59,94,5
4,62,94,0
4,55,94,1
4,43,94,0
4,59,0,302
4,59,94,34
4,55,0,74
4,55,94,21
4,62,0,65
4,62,94,31
4,55,0,76
4,55,94,21
4,59,0,104
4,55,0,2
4,43,0,2
4,62,0,2
4,62,94,129
4,55,94,1
4,62,0,39
4,55,0,3
4,55,94,53
4,62,94,0
4,62,0,30
4,55,0,1
4,62,94,17
4,54,94,1
4,62,0,57
4,54,0,3
4,57,94,35
4,52,94,1
4,52,0,52
4,57,0,2
4,55,94,90
4,62,94,1
4,55,0,46
4,62,0,2
4,55,94,46
4,62,94,2
4,62,0,39
4,55,0,2
4,64,94,5
4,57,94,1
4,57,0,55
4,64,0,1
4,57,94,40
4,64,94,0
4,57,0,45
4,64,0,8
4,55,94,90
4,62,94,2
4,55,0,47
4,62,0,1
4,62,94,46
4,55,94,0
4,55,0,36
4,54,94,12
4,54,0,58
4,62,0,3
4,55,94,35
4,50,94,1
4,55,0,37
4,50,0,4
4,57,94,102
4,50,94,1
4,57,0,113
4,50,0,3
4,50,94,27
4,57,94,1
4,50,0,10
4,57,0,4
4,50,94,34
4,57,94,0
4,50,0,90
4,57,0,6
4,62,94,95
4,55,94,1
4,62,0,39
4,55,0,3
4,55,94,53
4,62,94,0
4,62,0,30
4,55,0,1
4,62,94,17
4,54,94,1
4,62,0,57
4,54,0,3
4,57,94,35
4,52,94,1
4,52,0,52
4,57,0,2
4,55,94,90
4,62,94,1
4,55,0,46
4,62,0,2
4,55,94,46
4,62,94,2
4,62,0,39
4,55,0,2
4,64,94,5
4,57,94,1
4,57,0,55
4,64,0,1
4,57,94,40
4,64,94,0
4,57,0,45
4,64,0,8
4,55,94,90
4,62,94,2
4,55,0,47
4,62,0,1
4,62,94,46
4,55,94,0
4,55,0,36
4,54,94,12
4,54,0,58
4,62,0,3
4,55,94,35
4,50,94,1
4,55,0,37
4,50,0,4
4,57,94,102
4,50,94,1
4,57,0,113
4,50,0,3
4,50,94,27
4,57,94,1
4,50,0,10
4,57,0,4
4,50,94,34
4,57,94,0
4,50,0,90
4,57,0,6
4,62,94,95
4,55,94,1
4,62,0,39
4,55,0,3
4,55,94,53
4,62,94,0
4,62,0,30
4,55,0,1
4,62,94,17
4,54,94,1
4,62,0,57
4,54,0,3
4,57,94,35
4,52,94,1
4,52,0,52
4,57,0,2
4,55,94,90
4,62,94,1
4,55,0,46
4,62,0,2
4,55,94,46
4,62,94,2
4,62,0,39
4,55,0,2
4,64,94,5
4,57,94,1
4,57,0,55
4,64,0,1
4,57,94,40
4,64,94,0
4,57,0,45
4,64,0,8
4,55,94,90
4,62,94,2
4,55,0,47
4,62,0,1
4,62,94,46
4,55,94,0
4,55,0,36
4,54,94,12
4,54,0,58
4,62,0,3
4,55,94,35
4,50,94,1
4,55,0,37
4,50,0,4
4,57,94,102
4,50,94,1
4,57,0,113
4,50,0,3
4,50,94,27
4,57,94,1
4,50,0,10
4,57,0,4
4,50,94,34
4,57,94,0
4,50,0,90
4,57,0,6
4,62,94,95
4,55,94,1
4,62,0,39
4,55,0,3
4,55,94,53
4,62,94,0
4,62,0,30
4,55,0,1
4,62,94,17
4,54,94,1
4,62,0,57
4,54,0,3
4,57,94,35
4,52,94,1
4,52,0,52
4,57,0,2
4,55,94,90
4,62,94,1
4,55,0,46
4,62,0,2
4,55,94,46
4,62,94,2
4,62,0,39
4,55,0,2
4,64,94,5
4,57,94,1
4,57,0,55
4,64,0,1
4,57,94,40
4,64,94,0
4,57,0,45
4,64,0,8
4,55,94,90
4,62,94,2
4,55,0,47
4,62,0,1
4,62,94,46
4,55,94,0
4,55,0,36
4,54,94,12
4,54,0,58
4,62,0,3
4,55,94,35
4,50,94,1
4,55,0,37
4,50,0,4
4,57,94,102
4,50,94,1
4,57,0,113
4,50,0,3
4,50,94,27
4,57,94,1
4,50,0,10
4,57,0,4
4,50,94,34
4,57,94,0
4,50,0,90
4,57,0,6
4,62,94,95
4,55,94,1
4,62,0,39
4,55,0,3
4,55,94,53
4,62,94,0
4,62,0,30
4,55,0,1
4,62,94,17
4,54,94,1
4,62,0,57
4,54,0,3
4,57,94,35
4,52,94,1
4,52,0,52
4,57,0,2
4,55,94,90
4,62,94,1
4,55,0,46
4,62,0,2
4,55,94,46
4,62,94,2
4,62,0,39
4,55,0,2
4,64,94,5
4,57,94,1
4,57,0,55
4,64,0,1
4,57,94,40
4,64,94,0
4,57,0,45
4,64,0,8
4,55,94,90
4,62,94,2
4,55,0,47
4,62,0,1
4,62,94,46
4,55,94,0
4,55,0,36
4,54,94,12
4,54,0,58
4,62,0,3
4,55,94,35
4,50,94,1
4,55,0,37
4,50,0,4
4,57,94,102
4,50,94,1
4,57,0,113
4,50,0,3
4,50,94,27
4,57,94,1
4,50,0,10
4,57,0,4
4,50,94,34
4,57,94,0
4,50,0,90
4,57,0,6
4,62,94,95
4,55,94,1
4,62,0,39
4,55,0,3
4,55,94,53
4,62,94,0
4,62,0,30
4,55,0,1
4,62,94,17
4,54,94,1
4,62,0,57
4,54,0,3
4,57,94,35
4,52,94,1
4,52,0,52
4,57,0,2
4,55,94,90
4,62,94,1
4,55,0,46
4,62,0,2
4,55,94,46
4,62,94,2
4,62,0,39
4,55,0,2
4,64,94,5
4,57,94,1
4,57,0,55
4,64,0,1
4,57,94,40
4,64,94,0
4,57,0,45
4,64,0,5
4,55,94,47
4,62,94,1
4,55,0,47
4,62,0,1
4,62,94,46
4,55,94,0
4,55,0,35
4,54,94,12
4,54,0,9
4,62,0,3
4,55,94,35
4,50,94,0
4,55,0,37
4,50,0,4
4,57,94,47
4,50,94,0
4,57,0,17
4,50,0,3
4,50,94,27
4,57,94,0
4,50,0,10
4,57,0,4
4,50,94,0
4,57,94,0
4,50,0,42
4,57,0,6
4,62,94,47
4,55,94,0
4,62,0,39
4,55,0,3
4,55,94,47
4,62,94,0
4,62,0,29
4,55,0,1
4,62,94,17
4,54,94,0
4,62,0,9
4,54,0,3
4,57,94,35
4,52,94,0
4,52,0,4
4,57,0,2
4,55,94,0
4,62,94,1
4,55,0,46
4,62,0,1
4,55,94,46
4,62,94,1
4,62,0,39
4,55,0,2
4,64,94,5
4,57,94,0
4,57,0,7
4,64,0,1
4,57,94,0
4,64,94,0
4,57,0,45
4,64,0,5
4,55,94,47
4,62,94,1
4,55,0,47
4,62,0,1
4,62,94,46
4,55,94,0
4,55,0,35
4,54,94,12
4,54,0,9
4,62,0,3
4,55,94,35
4,50,94,0
4,55,0,37
4,50,0,4
4,57,94,47
4,50,94,0
4,57,0,17
4,50,0,3
4,50,94,27
4,57,94,0
4,50,0,10
4,57,0,4
4,50,94,0
4,57,94,0
4,50,0,42
4,57,0,6
4,62,94,47
4,55,94,0
4,62,0,39
4,55,0,3
4,55,94,47
4,62,94,0
4,62,0,29
4,55,0,1
4,62,94,17
4,54,94,0
4,62,0,9
4,54,0,3
4,57,94,35
4,52,94,0
4,52,0,4
4,57,0,2
4,55,94,0
4,62,94,1
4,55,0,46
4,62,0,1
4,55,94,46
4,62,94,1
4,62,0,39
4,55,0,2
4,64,94,5
4,57,94,0
4,57,0,7
4,64,0,1
4,57,94,0
4,64,94,0
4,57,0,45
4,64,0,5
5,57,120,3050
5,57,0,46
5,57,120,50
5,57,0,73
5,55,120,119
5,55,0,46
5,57,100,2
5,57,0,50
5,60,120,46
5,60,0,46
5,57,100,2
5,57,0,67
5,62,120,77
5,62,0,84
5,60,100,12
5,60,0,46
5,62,120,2
5,62,0,52
5,62,120,44
5,62,0,53
5,62,120,43
5,62,0,51
5,62,120,45
5,62,0,35
5,60,100,2
5,60,0,46
5,62,120,2
5,62,0,22
5,60,100,2
5,60,0,22
5,57,80,2
5,57,0,81
5,57,120,142
5,57,0,46
5,57,120,50
5,57,0,58
5,55,120,134
5,55,0,46
5,57,100,2
5,57,0,46
5,57,100,2
5,57,0,46
5,60,120,2
5,60,0,84
5,62,120,108
5,62,0,88
5,60,100,8
5,60,0,46
5,62,120,2
5,62,0,46
5,60,100,2
5,60,0,46
5,62,120,2
5,62,0,58
5,62,120,38
5,62,0,46
5,60,100,2
5,60,0,46
5,62,120,2
5,62,0,25
5,60,100,2
5,60,0,46
5,62,120,2
5,62,0,22
5,60,100,2
5,60,0,22
5,57,80,2
5,57,0,90
5,69,120,54
5,69,0,131
5,57,120,13
5,57,0,64
5,57,120,32
5,57,0,64
5,69,120,80
5,69,0,124
5,57,120,20
5,57,0,65
5,57,120,31
5,57,0,62
5,62,120,82
5,62,0,84
5,60,100,12
5,60,0,46
5,62,120,2
5,62,0,46
5,60,100,2
5,60,0,46
5,62,120,2
5,62,0,46
5,60,100,2
5,60,0,46
5,62,120,2
5,62,0,46
5,60,100,2
5,60,0,46
5,62,120,2
5,62,0,40
5,60,100,2
5,60,0,46
5,62,120,2
5,62,0,22
5,60,100,2
5,60,0,22
5,57,80,2
5,57,0,100
5,69,120,44
5,69,0,137
5,57,120,7
5,57,0,57
5,57,120,39
5,57,0,53
5,69,120,91
5,69,0,133
5,57,120,11
5,57,0,58
5,57,120,38
5,57,0,46
5,62,120,98
5,62,0,92
5,60,100,4
5,60,0,46
5,62,120,2
5,62,0,55
5,62,120,41
5,62,0,46
5,60,100,2
5,60,0,46
5,62,120,2
5,62,0,63
5,62,120,33
5,62,0,46
5,62,120,2
5,62,0,51
5,62,120,45
5,62,0,57
5,62,120,39
5,62,0,63
5,60,120,33
5,60,0,46
5,57,80,2
5,57,0,184
5,57,120,680
5,57,0,57
5,57,120,39
5,57,0,55
5,57,120,41
5,57,0,46
5,52,100,2
5,52,0,46
5,55,120,2
5,55,0,46
5,57,120,2
5,57,0,70
5,60,120,26
5,60,0,1
5,62,100,98
5,62,0,46
5,62,120,2
5,62,0,63
5,62,120,33
5,62,0,46
5,60,100,2
5,60,0,46
5,62,120,2
5,62,0,46
