track,note,velocity,time
1,55,100,480
1,64,100,0
1,60,100,0
1,60,0,29
1,64,0,0
1,55,0,0
1,53,100,151
1,57,100,0
1,60,100,0
1,53,0,172
1,60,0,30
1,57,0,0
1,64,100,90
1,55,100,0
1,60,100,0
1,60,0,30
1,55,0,0
1,64,0,0
1,59,100,60
1,55,100,0
1,62,100,0
1,59,0,3
1,62,0,30
1,55,0,0
1,60,100,30
1,60,0,29
1,62,100,1
1,62,0,29
1,60,100,1
1,55,100,0
1,64,100,0
1,64,0,12
1,55,0,0
1,60,0,0
1,53,100,90
1,57,100,0
1,60,100,0
1,57,0,175
1,60,0,23
1,53,0,0
1,55,100,90
1,64,100,0
1,60,100,0
1,60,0,9
1,64,0,30
1,55,0,0
1,55,100,30
1,59,100,0
1,62,100,0
1,59,0,2
1,62,0,30
1,55,0,0
1,60,100,30
1,60,0,29
1,62,100,1
1,62,0,3
1,55,100,1
1,60,100,0
1,64,100,0
1,64,0,1
1,60,0,0
1,55,0,0
1,60,100,31
1,65,100,0
1,57,100,0
1,57,0,29
1,65,0,0
1,60,0,0
1,55,100,8
1,60,100,0
1,64,100,0
1,64,0,4
1,60,0,0
1,55,0,0
1,53,100,31
1,57,100,0
1,60,100,0
1,60,0,18
1,57,0,0
1,53,0,0
1,53,100,30
1,57,100,0
1,57,0,29
1,53,0,0
1,55,100,91
1,62,100,0
1,59,100,0
1,59,0,38
1,62,0,0
1,55,0,0
1,59,100,30
1,64,100,0
1,64,0,29
1,59,0,0
1,65,100,7
1,58,100,0
1,60,100,0
1,60,0,35
1,58,0,0
1,65,0,0
1,58,100,30
1,64,100,0
1,64,0,29
1,58,0,0
1,58,100,61
1,62,100,0
1,62,0,35
1,58,0,0
1,60,100,30
1,58,100,0
1,60,0,39
1,58,0,30
1,62,100,0
1,62,0,29
1,57,100,1
1,65,100,0
1,60,100,0
1,60,0,20
1,65,0,0
1,57,0,0
1,57,100,30
1,64,100,0
1,64,0,29
1,57,0,0
1,65,100,61
1,57,100,0
1,60,100,0
1,65,0,24
1,64,100,1
1,64,0,21
1,60,0,1
1,62,100,0
1,62,0,29
1,60,100,1
1,60,0,60
1,57,0,0
1,60,100,30
1,60,0,29
1,62,100,1
1,62,0,4
1,55,100,1
1,60,100,0
1,64,100,0
1,64,0,6
1,60,0,0
1,55,0,0
1,60,100,31
1,57,100,0
1,65,100,0
1,65,0,29
1,57,0,0
1,60,0,0
1,55,100,4
1,60,100,0
1,64,100,0
1,64,0,5
1,60,0,0
1,55,0,0
1,53,100,31
1,60,100,0
1,57,100,0
1,57,0,13
1,60,0,0
1,53,0,0
1,53,100,30
1,57,100,0
1,57,0,29
1,53,0,0
1,55,100,91
1,62,100,0
1,59,100,0
1,59,0,48
1,62,0,0
1,59,100,30
1,64,100,0
1,64,0,120
1,59,0,0
1,55,0,30
1,58,100,270
1,62,100,0
1,65,100,0
1,65,0,51
1,62,0,0
1,64,100,0
1,64,0,29
1,58,0,1
1,58,100,60
1,62,100,0
1,62,0,10
1,58,0,30
1,58,100,30
1,60,100,0
1,60,0,59
1,58,0,0
1,60,100,2
1,57,100,0
1,65,100,0
1,65,0,30
1,57,0,0
1,60,0,0
1,64,100,30
1,57,100,0
1,57,0,29
1,64,0,0
1,60,100,0
1,65,100,0
1,57,100,0
1,65,0,1
1,60,0,0
1,64,100,1
1,64,0,29
1,62,100,1
1,62,0,29
1,57,0,1
1,57,100,0
1,60,100,0
1,60,0,33
1,57,0,0
1,57,100,0
1,65,100,0
1,62,100,0
1,62,0,90
1,65,0,0
1,57,0,30
1,67,100,60
1,59,100,0
1,62,100,0
1,62,0,40
1,59,0,0
1,67,0,0
1,65,100,90
1,59,100,0
1,59,0,29
1,65,0,0
1,55,100,2
1,64,100,0
1,60,100,0
1,60,0,34
1,64,0,0
1,55,0,0
1,55,100,30
1,60,100,0
1,60,0,29
1,55,0,0
1,60,100,61
1,57,100,0
1,53,100,0
1,53,0,84
1,57,0,0
1,60,0,0
1,60,100,25
1,50,100,0
1,57,100,0
1,53,100,0
1,53,0,29
1,60,0,0
1,50,0,0
1,57,0,0
1,50,100,61
1,60,100,0
1,57,100,0
1,53,100,0
1,53,0,29
1,50,0,0
1,60,0,0
1,57,0,0
1,62,100,61
1,55,100,0
1,59,100,0
1,55,0,57
1,62,0,0
1,59,0,30
1,62,100,30
1,53,100,0
1,53,0,29
1,62,0,0
1,52,100,8
1,59,100,0
1,55,100,0
1,55,0,26
1,59,0,0
1,52,0,0
1,62,100,30
1,59,100,0
1,59,0,29
1,62,0,0
1,57,100,1
1,52,100,0
1,60,100,0
1,60,0,47
1,57,0,0
1,52,0,30
1,52,100,30
1,57,100,0
1,60,100,0
1,60,0,29
1,57,0,0
1,52,0,0
1,60,100,91
1,50,100,0
1,57,100,0
1,53,100,0
1,53,0,31
1,60,0,0
1,50,0,0
1,57,0,0
1,50,100,30
1,57,100,0
1,60,100,0
1,53,100,0
1,53,0,29
1,50,0,0
1,57,0,0
1,60,0,0
1,57,100,31
1,57,0,29
1,55,100,1
1,55,0,29
1,57,100,1
1,57,0,29
1,60,100,1
1,60,0,29
1,57,100,31
1,57,0,29
1,60,100,1
1,60,0,29
1,60,100,15
1,55,100,0
1,64,100,0
1,64,0,12
1,55,0,0
1,60,0,0
1,53,100,90
1,57,100,0
1,60,100,0
1,57,0,175
1,60,0,23
1,53,0,0
1,55,100,90
1,64,100,0
1,60,100,0
1,60,0,9
1,64,0,30
1,55,0,0
1,55,100,30
1,59,100,0
1,62,100,0
1,59,0,2
1,62,0,30
1,55,0,0
1,60,100,30
1,60,0,29
1,62,100,1
1,62,0,3
1,55,100,1
1,60,100,0
1,64,100,0
1,64,0,1
1,60,0,0
1,55,0,0
1,60,100,31
1,65,100,0
1,57,100,0
1,57,0,29
1,65,0,0
1,60,0,0
1,55,100,8
1,60,100,0
1,64,100,0
1,64,0,4
1,60,0,0
1,55,0,0
1,53,100,31
1,57,100,0
1,60,100,0
1,60,0,18
1,57,0,0
1,53,0,0
1,53,100,30
1,57,100,0
1,57,0,29
1,53,0,0
1,55,100,91
1,62,100,0
1,59,100,0
1,59,0,38
1,62,0,0
1,55,0,0
1,59,100,30
1,64,100,0
1,64,0,29
1,59,0,0
1,65,100,7
1,58,100,0
1,60,100,0
1,60,0,35
1,58,0,0
1,65,0,0
1,58,100,30
1,64,100,0
1,64,0,29
1,58,0,0
1,58,100,61
1,62,100,0
1,62,0,35
1,58,0,0
1,60,100,30
1,58,100,0
1,60,0,39
1,58,0,30
1,62,100,0
1,62,0,29
1,57,100,1
1,65,100,0
1,60,100,0
1,60,0,20
1,65,0,0
1,57,0,0
1,57,100,30
1,64,100,0
1,64,0,29
1,57,0,0
1,65,100,61
1,57,100,0
1,60,100,0
1,65,0,24
1,64,100,1
1,64,0,21
1,60,0,1
1,62,100,0
1,62,0,29
1,60,100,1
1,60,0,60
1,57,0,0
1,60,100,30
1,60,0,29
1,62,100,1
1,62,0,4
1,55,100,1
1,60,100,0
1,64,100,0
1,64,0,6
1,60,0,0
1,55,0,0
1,60,100,31
1,57,100,0
1,65,100,0
1,65,0,29
1,57,0,0
1,60,0,0
1,55,100,4
1,60,100,0
1,64,100,0
1,64,0,5
1,60,0,0
1,55,0,0
1,53,100,31
1,60,100,0
1,57,100,0
1,57,0,13
1,60,0,0
1,53,0,0
1,53,100,30
1,57,100,0
1,57,0,29
1,53,0,0
1,55,100,91
1,62,100,0
1,59,100,0
1,59,0,48
1,62,0,0
1,59,100,30
1,64,100,0
1,64,0,120
1,59,0,0
1,55,0,30
1,58,100,270
1,62,100,0
1,65,100,0
1,65,0,51
1,62,0,0
1,64,100,0
1,64,0,29
1,58,0,1
1,58,100,60
1,62,100,0
1,62,0,10
1,58,0,30
1,58,100,30
1,60,100,0
1,60,0,59
1,58,0,0
1,60,100,2
1,57,100,0
1,65,100,0
1,65,0,30
1,57,0,0
1,60,0,0
1,64,100,30
1,57,100,0
1,57,0,29
1,64,0,0
1,60,100,0
1,65,100,0
1,57,100,0
1,65,0,1
1,60,0,0
1,64,100,1
1,64,0,29
1,62,100,1
1,62,0,29
1,57,0,1
1,57,100,0
1,60,100,0
1,60,0,33
1,57,0,0
1,57,100,0
1,65,100,0
1,62,100,0
1,62,0,90
1,65,0,0
1,57,0,30
1,67,100,60
1,59,100,0
1,62,100,0
1,62,0,40
1,59,0,0
1,67,0,0
1,65,100,90
1,59,100,0
1,59,0,29
1,65,0,0
1,55,100,2
1,64,100,0
1,60,100,0
1,60,0,34
1,64,0,0
1,55,0,0
1,55,100,30
1,60,100,0
1,60,0,29
1,55,0,0
1,60,100,61
1,57,100,0
1,53,100,0
1,53,0,84
1,57,0,0
1,60,0,0
1,60,100,25
1,50,100,0
1,57,100,0
1,53,100,0
1,53,0,29
1,60,0,0
1,50,0,0
1,57,0,0
1,50,100,61
1,60,100,0
1,57,100,0
1,53,100,0
1,53,0,29
1,50,0,0
1,60,0,0
1,57,0,0
1,62,100,61
1,55,100,0
1,59,100,0
1,55,0,57
1,62,0,0
1,59,0,30
1,62,100,30
1,53,100,0
1,53,0,29
1,62,0,0
1,52,100,8
1,59,100,0
1,55,100,0
1,55,0,26
1,59,0,0
1,52,0,0
1,62,100,30
1,59,100,0
1,59,0,29
1,62,0,0
1,57,100,1
1,52,100,0
1,60,100,0
1,60,0,47
1,57,0,0
1,52,0,30
1,52,100,30
1,57,100,0
1,60,100,0
1,60,0,29
1,57,0,0
1,52,0,0
1,60,100,91
1,50,100,0
1,57,100,0
1,53,100,0
1,53,0,31
1,60,0,0
1,50,0,0
1,57,0,0
1,50,100,30
1,57,100,0
1,60,100,0
1,53,100,0
1,53,0,29
1,50,0,0
1,57,0,0
1,60,0,0
1,57,100,31
1,57,0,29
1,55,100,1
1,55,0,29
1,57,100,1
1,57,0,29
1,60,100,1
1,60,0,29
1,57,100,31
1,57,0,29
1,60,100,1
1,60,0,29
1,60,100,15
1,55,100,0
1,64,100,0
1,64,0,12
1,55,0,0
1,60,0,0
1,53,100,90
1,57,100,0
1,60,100,0
1,57,0,175
1,60,0,23
1,53,0,0
1,55,100,90
1,64,100,0
1,60,100,0
1,60,0,9
1,64,0,30
1,55,0,0
1,55,100,30
1,59,100,0
1,62,100,0
1,59,0,2
1,62,0,30
1,55,0,0
1,53,100,4
1,58,100,0
1,62,100,0
1,53,0,26
1,62,0,31
1,58,0,0
1,58,100,30
1,53,100,0
1,62,100,0
1,62,0,29
1,53,0,0
1,58,0,0
1,53,100,23
1,57,100,0
1,60,100,0
1,60,0,60
1,57,0,0
1,53,0,0
1,57,100,59
1,60,100,0
1,65,100,0
1,65,0,29
1,60,0,0
1,57,0,0
1,57,100,31
1,60,100,0
1,65,100,0
1,65,0,29
1,60,0,0
1,57,0,0
1,50,100,91
1,58,100,0
1,53,100,0
1,53,0,23
1,58,0,0
1,50,0,0
1,50,100,30
1,53,100,0
1,58,100,0
1,58,0,29
1,53,0,0
1,50,0,0
1,48,100,61
1,53,100,0
1,57,100,0
1,53,0,37
1,48,0,0
1,57,0,30
1,60,100,60
1,57,100,0
1,57,0,29
1,60,0,0
1,58,100,91
1,53,100,0
1,62,100,0
1,53,0,17
1,62,0,30
1,58,0,0
1,58,100,0
1,53,100,0
1,53,0,29
1,58,0,0
1,53,100,61
1,60,100,0
1,57,100,0
1,57,0,11
1,60,0,0
1,53,0,0
1,60,100,60
1,57,100,0
1,65,100,0
1,65,0,29
1,57,0,0
1,60,0,0
1,57,100,31
1,60,100,0
1,65,100,0
1,65,0,29
1,60,0,0
1,57,0,0
1,55,100,91
1,59,100,0
1,62,100,0
1,55,0,21
1,62,0,30
1,59,0,0
1,62,100,30
1,57,100,0
1,57,0,29
1,62,0,0
1,59,100,1
1,59,0,29
1,60,100,1
1,55,100,0
1,64,100,0
1,64,0,25
1,55,0,0
1,60,0,30
1,55,100,0
1,55,0,60
1,64,100,0
1,55,100,0
1,55,0,29
1,64,0,0
1,62,100,1
1,62,0,29
1,60,100,1
1,60,0,29
1,58,100,31
1,62,100,0
1,53,100,0
1,53,0,11
1,62,0,30
1,58,0,0
1,58,100,0
1,53,100,0
1,62,100,0
1,62,0,29
1,53,0,0
1,58,0,0
1,53,100,61
1,60,100,0
1,57,100,0
1,57,0,4
1,60,0,0
1,53,0,0
1,60,100,60
1,57,100,0
1,65,100,0
1,65,0,29
1,57,0,0
1,60,0,0
1,57,100,31
1,60,100,0
1,65,100,0
1,65,0,29
1,60,0,0
1,57,0,0
1,53,100,91
1,50,100,0
1,58,100,0
1,50,0,29
1,58,0,30
1,53,0,0
1,50,100,0
1,58,100,0
1,53,100,0
1,53,0,29
1,58,0,0
1,50,0,0
1,57,100,61
1,48,100,0
1,53,100,0
1,48,0,9
1,53,0,30
1,57,0,0
1,53,100,0
1,48,100,0
1,57,100,0
1,57,0,29
1,48,0,0
1,53,0,0
1,72,100,91
1,69,100,0
1,55,100,0
1,53,100,0
1,53,0,69
1,72,0,0
1,69,0,0
1,55,0,0
1,74,100,60
1,71,100,0
1,59,100,0
1,55,100,0
1,59,0,23
1,74,0,60
1,71,0,0
1,55,0,0
1,71,100,30
1,77,100,0
1,59,100,0
1,55,100,0
1,62,100,0
1,62,0,29
1,59,0,0
1,55,0,0
1,67,100,4
1,72,100,0
1,55,100,0
1,64,100,0
1,77,0,1
1,71,0,0
1,55,0,30
1,72,0,30
1,67,0,0
1,55,100,0
1,55,0,29
1,60,100,1
1,60,0,29
1,64,0,1
1,60,100,30
1,64,100,0
1,64,0,90
1,60,0,0
1,55,100,30
1,60,100,60
1,55,0,30
1,60,0,30
1,64,100,0
1,64,0,29
1,62,100,31
1,58,100,0
1,65,100,0
1,55,100,0
1,65,0,89
1,62,0,30
1,58,0,0
1,55,0,0
1,55,100,29
1,55,0,52
1,65,100,0
1,65,0,60
1,55,100,0
1,58,100,60
1,55,0,60
1,62,100,0
1,62,0,29
1,58,0,1
1,60,100,30
1,55,100,0
1,64,100,0
1,55,0,6
1,64,0,30
1,60,0,0
1,55,100,30
1,55,0,29
1,58,100,31
1,60,100,0
1,55,100,0
1,60,0,73
1,55,0,28
1,58,0,0
1,58,100,90
1,63,100,0
1,55,100,0
1,67,100,0
1,55,0,5
1,67,0,30
1,58,0,0
1,63,0,30
1,55,100,0
1,55,0,60
1,67,100,0
1,67,0,60
1,55,100,0
1,55,0,60
1,65,100,0
1,65,0,60
1,63,100,0
1,63,0,29
1,53,100,31
1,65,100,0
1,58,100,0
1,58,0,34
1,65,0,0
1,53,0,0
1,62,100,30
1,58,100,0
1,55,100,0
1,55,0,29
1,58,0,0
1,62,0,0
1,53,100,31
1,62,100,0
1,58,100,0
1,58,0,27
1,62,0,0
1,53,0,0
1,58,100,42
1,55,100,0
1,62,100,0
1,65,100,0
1,65,0,111
1,58,0,0
1,55,0,0
1,62,0,0
1,55,100,60
1,65,100,60
1,55,0,30
1,65,0,30
1,62,100,0
1,58,100,60
1,58,0,60
1,62,0,0
1,55,100,0
1,55,0,29
1,60,100,31
1,64,100,0
1,55,100,0
1,58,100,0
1,55,0,6
1,64,0,0
1,60,0,30
1,58,0,0
1,58,100,30
1,55,100,0
1,60,100,0
1,60,0,29
1,55,0,0
1,58,0,0
1,58,100,31
1,55,100,0
1,60,100,0
1,60,0,25
1,55,0,0
1,58,0,0
1,60,100,2
1,64,100,0
1,57,100,0
1,67,100,0
1,67,0,29
1,60,0,0
1,64,0,0
1,57,0,0
1,57,100,30
1,60,100,0
1,64,100,0
1,67,100,0
1,67,0,29
1,57,0,0
1,60,0,0
1,64,0,0
1,57,100,61
1,60,100,0
1,67,100,0
1,64,100,0
1,64,0,31
1,57,0,0
1,60,0,0
1,67,0,0
1,69,100,60
1,64,100,0
1,60,100,0
1,57,100,0
1,57,0,29
1,69,0,0
1,64,0,0
1,60,0,0
1,67,100,1
1,58,100,0
1,62,100,0
1,55,100,0
