track,note,velocity,time
1,58,88,1779
1,58,0,75
1,62,90,36
1,62,0,92
1,62,83,37
1,62,0,58
1,62,85,63
1,62,0,71
1,62,87,60
1,62,0,229
1,60,86,4
1,60,0,98
1,58,89,9
1,58,0,93
1,65,83,52
1,65,0,118
1,65,86,105
1,65,0,404
1,63,88,423
1,63,0,184
1,61,83,60
1,61,0,87
1,63,84,33
1,63,0,115
1,61,82,125
1,61,0,141
1,65,85,99
1,65,0,119
1,65,81,126
1,62,85,111
1,65,0,0
1,62,0,101
1,58,83,20
1,58,0,301
1,58,83,62
1,58,0,82
1,58,86,39
1,58,0,88
1,65,86,33
1,65,0,148
1,65,86,84
1,65,0,74
1,65,86,53
1,65,0,148
1,63,86,97
1,63,0,81
1,61,86,27
1,61,0,70
1,63,86,65
1,63,0,127
1,63,86,118
1,63,0,131
1,63,86,108
1,63,0,97
1,60,86,140
1,60,0,27
1,56,84,120
1,56,0,147
1,56,85,159
1,56,0,137
1,60,86,23
1,60,0,207
1,58,88,113
1,58,0,112
1,58,84,62
1,58,0,1403
1,58,85,154
1,58,0,66
1,58,85,57
1,58,0,72
1,58,87,54
1,58,0,69
1,62,93,45
1,62,0,165
1,62,88,85
1,62,0,71
1,62,90,45
1,62,0,190
1,60,90,43
1,60,0,79
1,58,93,43
1,58,0,83
1,58,87,44
1,58,0,82
1,65,87,28
1,65,0,176
1,65,93,66
1,65,0,75
1,65,89,57
1,65,0,200
1,63,73,33
1,63,0,70
1,63,76,55
1,63,0,62
1,61,76,48
1,61,0,71
1,63,91,45
1,63,0,184
1,61,86,60
1,61,0,87
1,63,87,33
1,63,0,115
1,61,85,125
1,61,0,141
1,65,88,99
1,65,0,119
1,65,84,126
1,62,88,111
1,65,0,0
1,62,0,101
1,58,86,20
1,58,0,301
1,58,87,62
1,58,0,53
1,58,89,78
1,58,0,69
1,65,89,42
1,65,0,95
1,65,89,137
1,65,0,64
1,65,89,63
1,65,0,265
1,63,89,92
1,63,0,81
1,61,89,41
1,61,0,80
1,63,89,36
1,63,0,176
1,63,90,69
1,63,0,73
1,63,88,59
1,63,0,369
1,56,88,534
1,56,0,137
1,60,89,32
1,60,0,207
1,58,90,108
1,58,0,112
1,58,86,48
1,62,111,485
1,58,0,4
1,62,0,91
1,63,95,16
1,63,0,105
1,65,98,10
1,65,0,146
1,65,86,94
1,65,0,68
1,65,87,54
1,65,0,101
1,67,97,748
1,67,0,73
1,67,80,46
1,67,0,73
1,67,79,47
1,67,0,73
1,67,92,47
1,67,0,166
1,65,82,68
1,65,0,103
1,63,96,21
1,63,0,88
1,67,98,25
1,67,0,96
1,65,81,46
1,65,0,75
1,60,96,30
1,60,0,80
1,60,84,41
1,61,85,118
1,60,0,0
1,61,0,56
1,60,96,13
1,58,86,58
1,60,0,1
1,58,0,265
1,62,98,693
1,62,0,102
1,63,109,9
1,63,0,94
1,65,96,26
1,65,0,142
1,65,98,114
1,65,0,83
1,65,88,47
1,65,0,94
1,67,97,1209
1,67,0,109
1,65,88,21
1,65,0,108
1,63,97,11
1,63,0,95
1,67,92,24
1,67,0,20
1,60,94,3
1,60,0,186
1,61,86,46
1,60,93,64
1,61,0,1
1,58,87,56
1,60,0,9
1,58,0,354
1,58,92,7561
1,58,0,53
1,58,94,78
1,58,0,69
1,62,101,40
1,62,0,214
1,62,95,36
1,62,0,71
1,62,97,60
1,62,0,229
1,60,96,4
1,60,0,98
1,58,99,9
1,58,0,93
1,65,93,52
1,65,0,118
1,65,96,105
1,65,0,404
1,61,82,307
1,61,0,84
1,63,98,32
1,63,0,184
1,61,93,60
1,61,0,87
1,63,94,33
1,63,0,115
1,61,92,125
1,61,0,141
1,65,95,99
1,65,0,119
1,65,90,126
1,62,95,111
1,65,0,0
1,62,0,101
1,58,93,20
1,58,0,204
1,58,95,42
1,58,0,54
1,58,93,63
1,58,0,145
1,65,96,97
1,65,0,148
1,65,96,84
1,65,0,74
1,65,96,53
1,65,0,148
1,63,96,97
1,63,0,81
1,61,96,27
1,61,0,70
1,63,96,65
1,63,0,127
1,63,96,118
1,63,0,131
1,65,96,108
1,65,0,1
1,56,93,2
1,56,0,1
1,56,96,11
1,56,0,69
1,56,93,40
1,56,0,147
1,56,95,159
1,56,0,137
1,60,96,23
1,60,0,207
1,58,98,113
1,58,0,112
1,58,93,62
1,58,0,1403
1,58,94,154
1,58,0,66
1,58,94,57
1,58,0,72
1,58,97,54
1,58,0,69
1,62,103,45
1,62,0,165
1,62,98,85
1,62,0,71
1,62,100,45
1,62,0,190
1,60,100,43
1,60,0,79
1,58,103,43
1,58,0,83
1,65,96,42
1,65,0,171
1,65,103,66
1,65,0,167
1,65,99,82
1,65,0,181
1,65,81,47
1,65,0,70
1,63,84,60
1,63,0,62
1,61,84,48
1,61,0,71
1,63,101,45
1,63,0,91
1,63,80,33
1,63,0,79
1,61,95,41
1,61,0,87
1,63,96,33
1,63,0,115
1,61,94,125
1,61,0,141
1,65,97,99
1,65,0,119
1,63,93,126
1,62,97,111
1,63,0,0
1,62,0,101
1,58,95,20
1,58,0,301
1,58,96,62
1,58,0,53
1,58,98,78
1,58,0,69
1,65,98,42
1,65,0,95
1,65,98,137
1,65,0,64
1,65,98,63
1,65,0,265
1,63,98,92
1,63,0,81
1,61,98,41
1,61,0,80
1,63,98,36
1,63,0,176
1,63,101,69
1,63,0,175
1,63,97,69
1,63,0,369
1,56,98,422
1,56,0,137
1,60,99,32
1,60,0,207
1,58,100,108
1,58,0,112
1,58,96,48
1,62,123,485
1,58,0,4
1,62,0,91
1,63,106,16
1,63,0,105
1,65,109,10
1,65,0,146
1,65,96,94
1,65,0,68
1,65,97,54
1,65,0,101
1,67,108,748
1,67,0,73
1,67,89,46
1,67,0,73
1,67,89,47
1,67,0,73
1,67,102,47
1,67,0,166
1,65,91,68
1,65,0,103
1,63,107,21
1,63,0,88
1,67,109,25
1,67,0,96
1,65,90,46
1,65,0,75
1,60,107,30
1,60,0,80
1,60,93,41
1,61,94,118
1,60,0,0
1,61,0,56
1,60,107,13
1,58,96,58
1,60,0,1
1,58,0,265
1,62,109,693
1,62,0,102
1,63,120,9
1,63,0,94
1,65,107,26
1,65,0,142
1,65,109,114
1,65,0,83
1,65,99,47
1,65,0,94
1,67,108,1209
1,67,0,109
1,65,98,21
1,65,0,108
1,63,108,11
1,63,0,95
1,67,102,24
1,67,0,20
1,60,104,3
1,60,0,186
1,61,95,46
1,60,103,64
1,61,0,1
1,58,96,56
1,60,0,9
1,58,0,354
1,61,107,13451
1,61,0,75
1,63,108,61
1,63,0,102
1,63,108,56
1,63,0,106
1,63,108,108
1,63,0,121
1,67,109,803
1,67,0,325
1,63,109,42
1,63,0,190
1,63,109,41
1,61,109,126
1,63,0,7
1,61,0,101
1,58,110,132
1,58,0,0
1,63,104,959
1,63,0,128
1,66,105,113
1,66,0,155
1,66,105,81
1,66,0,99
1,66,107,36
1,66,0,202
1,68,104,387
1,68,0,243
1,66,104,117
1,66,0,160
1,61,104,80
1,61,0,151
1,63,102,89
1,63,0,19
1,67,104,1214
1,67,0,89
1,67,104,29
1,67,0,76
1,67,105,45
1,67,0,190
1,70,105,45
1,70,0,330
1,70,107,1003
1,70,0,149
1,70,104,78
1,70,0,151
1,71,108,90
1,71,0,92
1,70,106,53
1,70,0,112
1,70,105,94
1,70,0,154
1,68,102,68
1,68,0,246
1,61,106,860
1,61,0,78
1,61,103,47
1,61,0,84
1,63,104,32
1,63,0,92
1,61,104,32
1,61,0,89
1,63,103,20
1,63,0,91
1,61,103,31
1,61,0,153
1,63,104,80
1,63,0,16
1,66,107,514
1,66,0,91
1,61,107,28
1,61,0,218
1,63,110,17
1,63,0,30
1,70,103,1329
1,70,0,102
1,68,102,9
1,68,0,90
1,70,105,44
1,70,0,133
1,63,103,95
1,63,0,94
1,63,106,29
1,63,0,137
1,61,103,98
1,61,0,96
1,63,106,28
1,63,0,91
1,61,104,34
1,61,0,93
1,63,105,26
1,63,0,86
1,63,105,33
1,63,0,2
1,63,108,148
1,63,0,91
1,66,106,35
1,66,0,159
1,68,100,420
1,68,0,140
1,68,100,95
1,68,0,85
1,68,101,34
1,68,0,179
1,66,101,67
1,66,0,218
1,63,105,128
1,70,91,3
1,70,0,120
1,63,0,10
1,70,89,27
1,63,105,1
1,70,0,131
1,63,0,5
1,70,92,48
1,61,103,1
1,61,0,110
1,70,0,7
1,63,107,26
1,70,90,2
1,63,0,123
1,70,0,14
1,63,106,13
1,70,92,10
1,70,0,300
1,63,0,21
1,70,73,3128
1,67,96,2
1,70,0,161
1,67,0,20
1,70,61,37
1,67,96,8
1,70,0,156
1,67,0,4
1,67,94,82
1,70,68,1
1,70,0,137
1,67,0,6
1,67,94,99
1,70,68,1
1,70,0,142
1,67,0,7
1,67,93,76
1,70,70,6
1,70,0,130
1,67,0,17
1,70,70,91
1,67,94,5
1,70,0,84
1,67,0,6
1,68,64,25
1,65,94,6
1,68,0,83
1,65,0,6
1,67,70,21
1,63,93,1
1,67,0,90
1,63,0,9
1,63,95,23
1,67,76,3
1,67,0,229
1,63,0,20
1,67,72,111
1,63,95,3
1,67,0,83
1,63,0,7
1,67,71,16
1,63,94,7
1,67,0,79
1,63,0,14
1,68,96,41
1,72,75,3
1,68,0,146
1,72,0,3
1,68,98,80
1,72,74,2
1,72,0,68
1,68,0,2
1,72,72,48
1,68,95,0
1,68,0,6
1,72,0,24
1,65,100,598
1,70,79,5
1,70,0,92
1,65,0,0
1,65,93,51
1,70,78,2
1,65,0,308
1,70,0,6
1,67,96,25
1,72,84,1
1,72,0,23
1,67,0,36
2,29,122,440
2,31,111,60
2,29,0,0
2,32,111,120
2,31,0,0
2,33,111,120
2,32,0,0
2,34,111,120
2,33,0,0
2,29,122,1440
2,34,0,0
2,31,111,120
2,29,0,0
2,32,111,120
2,31,0,0
2,33,111,120
2,32,0,0
2,34,111,120
2,33,0,0
2,29,122,1440
2,34,0,0
2,31,111,120
2,29,0,0
2,32,111,120
2,31,0,0
2,33,111,120
2,32,0,0
2,34,90,120
2,33,0,0
2,32,107,1920
2,34,0,0
2,32,0,220
2,32,103,61
2,32,0,125
2,32,105,21
2,32,0,483
2,34,100,50
2,34,0,1421
2,29,122,19
2,31,111,120
2,29,0,0
2,32,111,120
2,31,0,0
2,33,111,120
2,32,0,0
2,34,111,120
2,33,0,0
2,29,122,1440
2,34,0,0
2,31,111,120
2,29,0,0
2,32,111,120
2,31,0,0
2,33,111,120
2,32,0,0
2,34,111,120
2,33,0,0
2,29,122,1440
2,34,0,0
2,31,111,120
2,29,0,0
2,32,111,120
2,31,0,0
2,33,111,120
2,32,0,0
2,34,111,120
2,33,0,0
2,32,107,1920
2,34,0,0
2,32,0,220
2,32,103,100
2,32,0,125
2,32,105,35
2,32,0,480
2,34,110,240
2,34,0,840
2,34,110,120
2,34,0,840
2,34,110,120
2,34,0,840
2,34,110,120
2,34,0,840
2,34,110,120
2,34,0,840
2,34,110,120
2,34,0,840
2,34,110,120
2,34,0,840
2,34,110,120
2,32,80,840
2,34,0,91
2,34,69,29
2,32,0,0
2,34,0,120
2,32,90,480
2,34,79,120
2,32,0,0
2,34,0,120
2,32,90,840
2,34,79,120
2,32,0,0
2,34,0,120
2,32,90,480
2,34,79,120
2,32,0,0
2,34,0,120
2,32,90,960
2,34,79,120
2,32,0,0
2,34,0,120
2,32,90,480
2,34,79,120
2,32,0,0
2,34,0,120
2,32,90,960
2,34,79,120
2,32,0,0
2,34,0,120
2,32,90,480
2,34,79,120
2,32,0,0
2,34,0,120
2,29,122,480
2,31,111,120
2,29,0,0
2,32,111,120
2,31,0,0
2,33,111,120
2,32,0,0
2,34,111,120
2,33,0,0
2,29,122,1440
2,34,0,0
2,31,111,120
2,29,0,0
2,32,111,120
2,31,0,0
2,33,111,120
2,32,0,0
2,34,111,120
2,33,0,0
2,29,122,1440
2,34,0,0
2,31,111,120
2,29,0,0
2,32,111,120
2,31,0,0
2,33,111,120
2,32,0,0
2,34,111,120
2,33,0,0
2,32,107,1920
2,34,0,0
2,32,0,220
2,32,103,100
2,32,0,125
2,32,105,35
2,34,100,480
2,32,0,0
2,34,0,1421
2,29,122,19
2,31,111,120
2,29,0,0
2,32,111,120
2,31,0,0
2,33,111,120
2,32,0,0
2,34,111,120
2,33,0,0
2,29,122,1440
2,34,0,0
2,31,111,120
2,29,0,0
2,32,111,120
2,31,0,0
2,33,111,120
2,32,0,0
2,34,111,120
2,33,0,0
2,29,122,1440
2,34,0,0
2,31,111,120
2,29,0,0
2,32,111,120
2,31,0,0
2,33,111,120
2,32,0,0
2,34,111,120
2,33,0,0
2,32,107,1920
2,34,0,0
2,32,0,220
2,32,103,100
2,32,0,125
2,32,105,35
2,32,0,480
2,34,110,240
2,34,0,840
2,34,110,120
2,34,0,840
2,34,110,120
2,34,0,840
2,34,110,120
2,34,0,840
2,34,110,120
2,34,0,840
2,34,110,120
2,34,0,840
2,34,110,120
2,34,0,840
2,34,110,120
2,44,110,720
2,34,0,0
2,41,90,320
2,44,0,0
2,44,110,160
2,41,0,0
2,41,90,320
2,44,0,0
2,46,110,160
2,41,0,0
2,50,110,460
2,46,0,20
2,51,90,105
2,50,0,35
2,52,110,82
2,51,0,43
2,53,90,80
2,52,0,38
2,54,110,97
2,53,0,0
2,39,110,480
2,54,0,0
2,51,110,240
2,39,0,0
2,50,110,720
2,51,0,0
2,51,90,120
2,50,0,40
2,52,110,80
2,51,0,40
2,53,90,80
2,52,0,40
2,54,110,80
2,53,0,0
2,50,110,1440
2,54,0,0
2,51,90,120
2,50,0,40
2,52,110,80
2,51,0,40
2,53,90,80
2,52,0,40
2,54,110,80
2,53,0,0
2,39,110,480
2,54,0,0
2,51,110,240
2,39,0,0
2,50,110,720
2,51,0,0
2,51,90,120
2,50,0,40
2,52,110,80
2,51,0,40
2,53,90,80
2,52,0,40
2,54,110,80
2,53,0,0
2,51,110,1440
2,54,0,0
2,52,90,120
2,51,0,40
2,53,110,80
2,52,0,40
2,54,90,80
2,53,0,40
2,55,110,80
2,54,0,0
2,51,110,1440
2,55,0,0
2,52,90,120
2,51,0,40
2,53,110,80
2,52,0,40
2,54,90,80
2,53,0,40
2,55,110,80
2,54,0,0
2,51,110,1440
2,55,0,0
2,52,90,120
2,51,0,40
2,53,110,80
2,52,0,40
2,54,90,80
2,53,0,40
2,39,90,80
2,54,0,0
2,39,0,118
2,39,79,2
2,39,0,118
2,39,90,482
2,39,0,118
2,39,79,2
2,39,0,118
2,39,90,962
2,39,0,118
2,39,79,2
2,39,0,118
2,39,90,482
2,39,0,118
2,39,79,2
2,39,0,118
2,39,90,962
2,39,0,118
2,39,79,2
2,39,0,118
2,39,90,482
2,39,0,118
2,39,79,2
2,39,0,118
2,39,90,962
2,39,0,118
2,39,79,2
2,39,0,118
2,39,90,482
2,39,0,118
2,39,79,2
2,39,0,118
2,39,90,962
2,39,0,118
2,39,79,2
2,39,0,118
2,39,90,482
2,39,0,118
2,39,79,2
2,39,0,118
2,39,90,962
2,39,0,118
2,39,79,2
2,39,0,118
2,39,90,482
2,39,0,118
2,39,79,2
2,39,0,118
2,39,90,962
2,39,0,118
2,39,79,2
2,39,0,118
2,39,90,482
2,39,0,118
2,39,79,2
2,39,0,118
2,39,90,962
2,39,0,118
2,39,79,2
2,39,0,118
2,39,90,482
2,39,0,118
2,39,79,2
2,39,0,118
2,39,90,962
2,39,0,118
2,39,79,2
2,39,0,118
2,39,90,482
2,39,0,118
2,39,79,2
2,39,0,118
2,39,90,962
2,39,0,118
2,39,79,2
2,39,0,118
2,39,90,482
2,39,0,118
2,39,79,2
2,39,0,118
2,39,90,962
2,39,0,118
2,39,79,2
2,39,0,118
2,39,90,482
2,39,0,118
2,39,79,2
2,39,0,118
2,39,90,962
2,39,0,118
2,39,79,2
2,39,0,118
2,39,90,482
2,39,0,118
2,39,79,2
2,39,0,118
2,39,90,962
2,39,0,118
2,39,79,2
2,39,0,118
