track,note,velocity,time
2,70,120,966
2,65,120,2
2,62,105,0
2,70,0,924
2,62,0,2
2,65,0,1
2,71,110,26
2,64,108,2
2,66,120,0
2,66,0,924
2,71,0,0
2,64,0,6
2,71,99,29
2,68,115,2
2,64,110,0
2,59,102,3
2,68,0,454
2,59,0,3
2,64,0,0
2,71,0,2
2,64,117,18
2,59,103,0
2,71,110,1
2,66,121,2
2,66,0,451
2,64,0,6
2,59,0,1
2,71,0,3
2,71,99,16
2,59,100,2
2,68,122,2
2,64,117,1
2,64,0,444
2,68,0,1
2,59,0,2
2,71,0,4
2,71,92,19
2,59,96,1
2,64,111,1
2,66,118,2
2,66,0,440
2,64,0,8
2,59,0,1
2,71,0,2
2,71,87,18
2,59,96,3
2,64,110,2
2,68,114,3
2,68,0,452
2,59,0,1
2,64,0,3
2,71,0,4
2,71,100,19
2,64,114,1
2,59,100,1
2,66,121,0
2,66,0,443
2,59,0,4
2,64,0,3
2,71,0,1
2,71,97,23
2,59,95,3
2,64,109,0
2,68,120,2
2,59,0,447
2,68,0,1
2,64,0,4
2,71,0,2
2,71,95,23
2,64,109,0
2,59,97,3
2,66,121,0
2,59,0,434
2,64,0,4
2,66,0,9
2,71,0,4
2,71,122,29
2,68,118,0
2,75,120,3
2,68,0,914
2,75,0,1
2,71,0,2
2,71,112,31
2,76,118,1
2,69,105,0
2,73,117,4
2,76,0,916
2,73,0,3
2,71,0,3
2,69,0,7
2,75,112,28
2,68,114,0
2,71,115,0
2,68,0,925
2,75,0,3
2,71,0,3
2,71,107,32
2,69,100,0
2,76,114,0
2,73,113,3
2,73,0,916
2,76,0,6
2,71,0,4
2,69,0,2
2,76,97,34
2,68,113,2
2,71,111,0
2,64,104,0
2,76,0,439
2,71,0,3
2,64,0,4
2,68,0,2
2,76,100,19
2,64,79,3
2,68,109,2
2,70,115,0
2,76,0,418
2,70,0,6
2,68,0,2
2,64,0,2
2,63,99,68
2,58,101,0
2,70,91,0
2,67,114,3
2,70,0,105
2,70,85,17
2,70,0,45
2,70,94,56
2,58,0,681
2,63,0,1
2,67,0,6
2,70,0,5
2,66,114,23
2,61,115,1
2,73,96,1
2,70,93,2
2,61,0,920
2,73,0,7
2,70,0,3
2,66,0,3
2,70,110,25
2,62,96,1
2,65,113,0
2,70,0,831
2,62,0,2
2,65,0,2
2,70,83,5
2,65,82,2
2,62,76,0
2,62,0,94
2,70,0,4
2,65,0,5
2,71,109,14
2,66,120,3
2,64,103,0
2,71,0,940
2,64,0,3
2,66,0,0
2,71,104,16
2,64,100,2
2,68,120,0
2,59,102,176
2,68,0,284
2,64,0,5
2,71,0,2
2,59,0,2
2,71,87,11
2,64,100,1
2,59,78,0
2,66,115,1
2,59,0,450
2,66,0,5
2,71,0,0
2,64,0,2
2,71,81,14
2,64,103,3
2,59,90,0
2,68,109,3
2,71,0,450
2,68,0,6
2,59,0,2
2,64,0,0
2,59,87,16
2,71,93,2
2,64,109,0
2,66,118,3
2,66,0,467
2,59,0,1
2,64,0,1
2,71,0,0
2,71,96,17
2,59,96,1
2,64,113,2
2,68,115,0
2,64,0,459
2,71,0,0
2,59,0,3
2,68,0,0
2,71,86,16
2,59,81,1
2,64,100,2
2,66,114,0
2,71,0,459
2,66,0,1
2,59,0,1
2,64,0,2
2,71,92,12
2,59,84,2
2,64,108,1
2,68,112,3
2,59,0,450
2,71,0,0
2,64,0,1
2,68,0,0
2,71,86,17
2,59,76,2
2,64,103,0
2,66,115,3
2,59,0,397
2,64,0,4
2,66,0,10
2,71,0,6
2,68,115,67
2,75,113,0
2,71,113,2
2,68,0,895
2,71,0,5
2,75,0,3
2,76,119,48
2,69,106,2
2,71,112,0
2,73,110,3
2,71,0,920
2,73,0,3
2,76,0,0
2,69,0,8
2,68,113,24
2,75,115,1
2,71,115,1
2,68,0,911
2,71,0,6
2,75,0,2
2,76,118,31
2,71,115,2
2,69,107,1
2,73,121,2
2,76,0,921
2,71,0,8
2,69,0,2
2,73,0,1
2,71,88,24
2,68,99,2
2,64,99,3
2,70,118,481
2,71,0,1
2,68,0,430
2,64,0,4
2,70,0,1
2,70,119,40
2,58,115,2
2,63,115,1
2,67,80,6
2,63,0,910
2,58,0,2
2,67,0,10
2,70,0,9
2,70,109,21
2,66,111,2
2,61,103,0
2,73,93,3
2,61,0,913
2,70,0,10
2,66,0,0
2,73,0,1
2,62,85,30
2,70,97,0
2,65,100,3
2,62,0,825
2,70,0,3
2,65,0,2
2,70,98,14
2,62,86,0
2,65,101,0
2,62,0,93
2,65,0,6
2,70,0,12
2,71,92,11
2,66,95,1
2,64,94,2
2,64,0,919
2,71,0,3
2,66,0,1
2,68,118,33
2,63,112,1
2,59,97,0
2,64,108,3
2,59,0,931
2,63,0,0
2,68,0,1
2,64,0,6
2,64,98,13
2,68,90,1
2,57,100,3
2,61,111,0
2,61,0,934
2,57,0,2
2,64,0,9
2,68,0,1
2,68,85,11
2,64,94,1
2,63,110,2
2,59,100,0
2,68,0,929
2,64,0,10
2,59,0,0
2,63,0,2
2,68,91,17
2,64,96,1
2,57,99,0
2,61,111,0
2,64,0,931
2,68,0,2
2,61,0,2
2,57,0,6
2,57,76,13
2,61,112,2
2,66,122,0
2,63,121,3
2,57,0,933
2,61,0,4
2,66,0,0
2,63,0,0
2,61,105,24
2,65,113,1
2,68,114,0
2,56,119,248
2,65,0,671
2,56,0,2
2,61,0,11
2,68,0,1
2,63,76,16
2,61,79,3
2,68,74,2
2,61,0,40
2,63,0,3
2,68,0,1
2,61,77,15
2,68,69,0
2,64,41,16
2,68,0,26
2,64,0,1
2,61,0,1
2,61,84,18
2,68,79,2
2,64,83,0
2,61,0,43
2,64,0,2
2,68,0,1
2,64,73,14
2,61,72,0
2,68,65,3
2,61,0,36
2,64,0,3
2,68,0,4
2,69,97,14
2,62,91,4
2,66,108,0
2,66,0,32
2,62,0,2
2,69,0,0
2,62,65,27
2,66,73,0
2,69,66,4
2,66,0,31
2,69,0,2
2,62,0,0
2,66,92,25
2,62,84,3
2,62,0,30
2,66,0,2
2,69,86,26
2,66,91,0
2,62,86,3
2,62,0,31
2,69,0,0
2,66,0,1
2,68,118,22
2,64,118,2
2,61,113,0
2,61,0,28
2,64,0,3
2,68,0,2
2,68,92,28
2,61,93,0
2,64,97,0
2,61,0,31
2,64,0,3
2,68,0,0
2,61,88,25
2,64,93,0
2,68,84,0
2,61,0,28
2,64,0,3
2,68,0,1
2,68,86,25
2,64,93,0
2,61,87,1
2,61,0,27
2,64,0,4
2,68,0,0
2,69,108,27
2,66,115,1
2,62,97,0
2,66,0,43
2,69,0,4
2,62,0,4
2,62,65,4
2,66,80,3
2,69,76,0
2,69,0,32
2,66,0,0
2,62,0,0
2,66,83,26
2,69,76,0
2,62,73,0
2,62,0,31
2,69,0,3
2,66,0,1
2,69,87,23
2,66,91,0
2,62,85,3
2,62,0,30
2,69,0,0
2,66,0,2
2,68,118,26
2,61,115,0
2,64,119,1
2,61,0,42
2,64,0,6
2,68,0,0
2,64,77,10
2,61,77,0
2,68,75,1
2,61,0,36
2,68,0,2
2,64,0,3
2,64,84,16
2,61,80,2
2,68,76,0
2,61,0,33
2,68,0,2
2,64,0,2
2,64,87,17
2,61,81,2
2,68,76,0
2,61,0,30
2,68,0,2
2,64,0,3
2,69,108,22
2,66,114,0
2,62,96,0
2,66,0,213
2,69,0,0
2,62,0,7
2,68,115,22
2,64,118,2
2,61,114,8
2,61,0,37
2,61,83,29
2,61,0,150
2,64,0,6
2,68,0,1
2,69,112,22
2,62,94,2
2,66,120,1
2,62,0,199
2,69,0,0
2,66,0,7
2,66,109,17
2,62,99,2
2,68,101,2
2,59,96,0
2,59,0,205
2,68,0,20
2,66,0,5
2,71,93,14
2,65,101,0
2,69,112,0
2,71,0,216
2,69,0,4
2,65,0,5
2,62,0,9
2,62,90,9
2,66,118,2
2,68,121,0
2,59,87,3
2,59,0,190
2,68,0,29
2,66,0,0
2,62,0,9
2,62,91,10
2,71,97,1
2,65,100,2
2,69,115,0
2,71,0,199
2,69,0,3
2,65,0,9
2,62,0,0
2,68,119,18
2,61,110,0
2,64,120,1
2,57,103,3
2,57,0,699
2,61,0,2
2,64,0,1
2,68,0,1
2,61,82,11
2,64,90,2
2,68,89,0
2,57,85,1
2,57,0,205
2,61,0,2
2,64,0,14
2,68,0,3
2,68,87,13
2,64,96,1
2,71,94,3
2,59,97,1
2,71,0,41
2,64,0,0
2,68,0,2
2,59,0,0
2,68,75,13
2,64,84,0
2,59,76,4
2,71,73,0
2,59,0,37
2,71,0,1
2,64,0,0
2,68,0,1
2,68,83,18
2,64,95,0
2,71,81,0
2,59,86,0
2,59,0,36
2,71,0,0
2,68,0,1
2,64,0,2
2,64,103,21
2,68,96,0
2,71,99,2
2,59,92,0
2,71,0,39
2,68,0,0
2,59,0,2
2,64,0,1
2,64,93,19
2,68,79,0
2,59,86,0
2,71,78,2
2,71,0,28
2,59,0,0
2,68,0,1
2,64,0,1
2,64,97,28
2,68,87,0
2,59,87,2
2,71,83,0
2,71,0,23
2,59,0,0
2,68,0,0
2,64,0,3
2,64,104,29
2,68,96,0
2,71,100,0
2,59,94,2
2,71,0,96
2,68,0,8
2,64,0,10
2,59,0,0
2,64,112,11
2,59,86,3
2,70,115,0
2,68,119,0
2,64,0,417
2,59,0,6
2,70,0,6
2,68,0,2
2,63,123,40
2,70,111,0
2,58,123,2
2,67,93,7
2,58,0,915
2,63,0,5
2,67,0,3
2,70,0,7
2,61,104,20
2,70,117,2
2,73,101,0
2,65,108,3
2,70,0,11
2,65,0,25
2,61,0,22
2,66,108,8
2,61,87,3
2,70,89,0
2,61,0,852
2,73,0,10
2,70,0,1
2,66,0,1
2,70,115,21
2,62,98,2
2,65,112,0
2,62,0,939
2,70,0,6
2,65,0,8
2,71,100,5
2,66,117,2
2,64,99,2
2,66,0,938
2,64,0,1
2,68,95,19
2,64,119,2
2,59,108,2
2,59,0,149
2,64,0,13
2,68,0,2
2,71,0,2
2,68,91,15
2,64,103,1
2,71,87,0
2,59,105,0
2,68,0,281
2,71,0,4
2,64,0,1
2,71,67,6
2,64,97,4
2,66,114,2
2,59,0,455
2,64,0,3
2,71,0,3
2,66,0,0
2,71,93,10
2,59,95,3
2,64,111,0
2,68,120,3
2,68,0,463
2,71,0,1
2,64,0,1
2,59,0,3
2,71,93,12
2,59,87,0
2,64,110,3
2,66,121,0
2,71,0,453
2,66,0,2
2,59,0,1
2,64,0,5
2,71,101,16
2,59,98,1
2,64,117,0
2,68,120,1
2,68,0,446
2,71,0,2
2,64,0,1
2,59,0,1
2,71,109,29
2,59,103,2
2,64,119,0
2,66,123,0
2,59,0,453
2,66,0,1
2,71,0,4
2,64,0,1
2,71,95,19
2,59,102,2
2,64,120,0
2,68,119,0
2,68,0,452
2,71,0,2
2,64,0,3
2,59,0,4
2,66,114,17
2,71,104,2
2,59,90,2
2,64,122,1
2,59,0,437
2,71,0,1
2,64,0,5
2,66,0,12
2,71,103,15
2,64,111,2
2,59,95,0
2,68,114,3
2,68,0,460
2,71,0,2
2,64,0,2
2,59,0,9
2,59,74,9
2,71,91,1
2,64,102,2
2,66,118,1
2,71,0,447
2,66,0,3
2,59,0,3
2,64,0,2
2,71,96,20
2,59,92,1
2,64,109,2
2,68,111,0
2,68,0,450
2,71,0,2
2,64,0,2
2,59,0,5
2,71,92,17
2,59,79,1
2,64,104,1
2,66,115,0
2,66,0,449
2,71,0,3
2,59,0,0
2,64,0,2
2,71,99,23
2,59,95,2
2,64,111,0
2,68,114,0
2,68,0,450
2,71,0,0
2,64,0,4
2,59,0,3
2,71,95,21
2,59,91,2
2,66,113,0
2,64,98,1
2,66,0,442
2,59,0,0
2,64,0,4
2,71,0,4
2,71,96,18
2,59,90,2
2,64,105,1
2,68,107,2
2,59,95,6
2,64,111,0
2,68,114,0
2,68,0,450
2,71,0,3
2,64,0,1
2,68,0,1
2,59,0,2
2,64,0,3
2,59,0,3
2,71,95,15
2,59,91,2
2,66,113,0
2,64,98,1
2,66,0,442
2,59,0,0
2,64,0,4
2,71,0,4
2,71,96,18
2,59,90,2
2,64,105,1
2,68,107,2
2,59,95,6
2,64,111,0
2,68,114,0
2,68,0,450
2,71,0,3
2,64,0,1
2,68,0,1
2,59,0,2
2,64,0,3
2,59,0,3
2,71,95,15
2,59,91,2
2,66,113,0
2,64,98,1
2,66,0,442
2,59,0,0
2,64,0,4
2,71,0,4
2,71,96,18
2,59,90,2
2,64,105,1
2,68,107,2
2,59,95,6
2,64,111,0
2,68,114,0
2,68,0,450
2,71,0,3
2,64,0,1
2,68,0,1
2,59,0,2
2,64,0,3
2,59,0,3
2,71,95,15
2,59,91,2
2,66,113,0
2,64,98,1
2,66,0,442
2,59,0,0
2,64,0,4
2,71,0,4
2,71,96,18
2,59,90,2
2,64,105,1
2,68,107,2
2,59,95,6
2,64,111,0
2,68,114,0
2,68,0,450
2,71,0,3
2,64,0,1
2,68,0,1
2,59,0,2
2,64,0,3
2,59,0,3
2,71,95,15
2,59,91,2
2,66,113,0
2,64,98,1
2,66,0,442
2,59,0,0
2,64,0,4
2,71,0,4
2,71,96,18
2,59,90,2
2,64,105,1
2,68,107,2
2,59,95,6
2,64,111,0
2,68,114,0
2,68,0,450
2,71,0,3
2,64,0,1
2,68,0,1
2,59,0,2
2,64,0,3
2,59,0,3
2,71,95,15
2,59,91,2
2,66,113,0
2,64,98,1
2,66,0,442
2,59,0,0
2,64,0,4
2,71,0,4
2,71,96,18
2,59,90,2
2,64,105,1
2,68,107,2
2,59,95,6
2,64,111,0
2,68,114,0
2,68,0,450
2,71,0,3
2,64,0,1
2,68,0,1
2,59,0,2
2,64,0,3
2,59,0,3
2,71,95,15
2,59,91,2
2,66,113,0
2,64,98,1
2,66,0,442
2,59,0,0
2,64,0,4
2,71,0,4
2,71,96,18
2,59,90,2
2,64,105,1
2,68,107,2
2,59,95,6
2,64,111,0
2,68,114,0
2,68,0,450
2,71,0,3
2,64,0,1
2,68,0,1
2,59,0,2
2,64,0,3
2,59,0,3
2,71,95,15
2,59,91,2
2,66,113,0
2,64,98,1
2,66,0,442
2,59,0,0
2,64,0,4
2,71,0,4
2,71,96,18
2,59,90,2
2,64,105,1
2,68,107,2
2,59,95,6
2,64,111,0
2,68,114,0
2,68,0,450
2,71,0,3
2,64,0,1
2,68,0,1
2,59,0,2
2,64,0,3
2,59,0,3
2,71,95,15
2,59,91,2
2,66,113,0
2,64,98,1
2,66,0,442
2,59,0,0
2,64,0,4
2,71,0,4
2,71,96,18
2,59,90,2
2,64,105,1
2,68,107,2
2,59,95,6
2,64,111,0
2,68,114,0
2,68,0,450
2,71,0,3
2,64,0,1
2,68,0,1
2,59,0,2
2,64,0,3
2,59,0,3
2,71,95,15
2,59,91,2
2,66,113,0
2,64,98,1
2,66,0,442
2,59,0,0
2,64,0,4
2,71,0,4
2,71,96,18
2,59,90,2
2,64,105,1
2,68,107,2
2,59,95,6
2,64,111,0
2,68,114,0
2,68,0,450
2,71,0,3
2,64,0,1
2,68,0,1
2,59,0,2
2,64,0,3
2,59,0,3
2,71,95,15
2,59,91,2
2,66,113,0
2,64,98,1
2,66,0,442
2,59,0,0
2,64,0,4
2,71,0,4
2,71,96,18
2,59,90,2
2,64,105,1
2,68,107,2
2,71,0,459
2,68,0,2
2,64,0,5
2,59,0,3
3,46,125,960
3,53,125,0
3,58,105,3
3,53,0,28
3,70,121,2
3,65,121,0
3,62,121,0
3,58,0,3
3,65,0,26
3,62,0,0
3,70,0,0
3,53,118,1
3,58,118,0
3,58,0,29
3,53,0,0
3,70,114,1
3,65,114,0
3,62,114,0
3,62,0,29
3,65,0,0
3,70,0,0
3,53,125,1
3,58,125,0
3,65,109,30
3,70,109,0
3,62,109,0
3,58,0,1
3,53,0,0
3,65,0,28
3,70,0,0
3,62,0,0
3,53,118,1
3,58,118,0
3,58,0,29
