track,note,velocity,time
1,69,127,0
1,69,126,52
1,69,127,40
1,70,123,4
1,72,125,14
1,69,121,396
1,70,117,344
1,70,117,64
1,70,127,54
1,77,121,20
1,76,107,148
1,67,121,8
1,67,117,56
1,67,106,28
1,69,122,12
1,70,122,128
1,70,112,76
1,70,121,96
1,76,127,22
1,74,127,272
1,72,116,80
1,70,110,256
1,69,105,20
1,65,119,64
1,74,127,12
1,76,127,384
1,77,127,4
1,76,116,112
1,74,126,20
1,74,125,152
1,72,120,404
1,76,110,8
1,74,127,604
1,72,127,12
1,70,117,8
1,74,109,8
1,72,123,8
1,70,121,136
1,69,113,12
1,72,109,12
1,69,111,204
1,72,112,18
1,70,114,16
1,70,119,68
1,79,114,20
1,77,114,384
1,69,127,260
1,72,113,8
1,70,127,552
1,70,127,48
1,64,110,20
1,65,104,0
1,69,127,3660
1,69,126,52
1,69,127,42
1,70,123,4
1,72,125,14
1,69,121,396
1,70,117,344
1,70,117,64
1,70,127,52
1,77,121,20
1,76,107,148
1,67,121,8
1,67,117,56
1,67,106,28
1,69,122,12
1,70,122,128
1,70,112,78
1,70,121,96
1,76,127,20
1,74,127,272
1,72,116,80
1,70,110,256
1,69,105,20
1,65,119,64
1,74,127,12
1,76,127,384
1,77,127,4
1,76,116,112
1,74,126,20
1,74,125,152
1,72,120,404
1,76,110,10
1,74,127,604
1,72,127,12
1,70,117,8
1,74,109,10
1,72,123,8
1,70,121,136
1,69,113,12
1,72,109,12
1,69,111,204
1,72,112,16
1,70,114,16
1,70,119,70
1,79,114,20
1,77,114,384
1,69,127,260
1,72,113,8
1,70,127,552
1,70,127,48
1,64,110,20
1,65,104,0
1,69,127,6732
1,69,126,52
1,69,127,40
1,70,123,4
1,72,125,12
1,69,121,396
1,70,117,344
1,70,117,64
1,70,127,54
1,77,121,20
1,76,107,148
1,67,121,8
1,67,117,56
1,67,106,28
1,69,122,12
1,70,122,128
1,70,112,76
1,70,121,98
1,76,127,20
1,74,127,272
1,72,116,80
1,70,110,256
1,69,105,20
1,65,119,64
1,74,127,12
1,76,127,384
1,77,127,4
1,76,116,112
1,74,126,22
1,74,125,152
1,72,120,404
1,76,110,10
1,74,127,604
1,72,127,12
1,70,117,10
1,74,109,8
1,72,123,8
1,70,121,136
1,69,113,14
1,72,109,12
1,69,111,204
1,72,112,16
1,70,114,16
1,70,119,68
1,79,114,20
1,77,114,384
1,69,127,260
1,72,113,8
1,70,127,552
1,70,127,48
1,64,110,20
1,65,104,2
1,69,127,3662
1,69,126,52
1,69,127,42
1,70,123,4
1,72,125,14
1,69,121,396
1,70,117,344
1,70,117,64
1,70,127,52
1,77,121,20
1,76,107,148
1,67,121,8
1,67,117,56
1,67,106,28
1,69,122,12
1,70,122,128
1,70,112,76
1,70,121,96
1,76,127,22
1,74,127,272
1,72,116,80
1,70,110,258
1,69,105,20
1,65,119,64
1,74,127,12
1,76,127,384
1,77,127,6
1,76,116,112
1,74,126,20
1,74,125,152
1,72,120,404
1,76,110,8
1,74,127,604
1,72,127,12
1,70,117,8
1,74,109,8
1,72,123,8
1,70,121,136
1,69,113,12
1,72,109,12
1,69,111,204
1,72,112,16
1,70,114,16
1,70,119,70
1,79,114,20
1,77,114,384
1,69,127,260
1,72,113,8
1,70,127,552
1,70,127,48
1,64,110,20
1,65,104,0
1,69,125,3660
1,69,121,78
1,69,118,36
1,70,115,248
1,72,116,8
1,69,120,392
1,70,124,360
1,70,118,88
1,70,116,48
1,77,114,28
1,76,112,136
1,67,124,4
1,67,120,76
1,67,109,40
1,69,123,244
1,70,127,120
1,70,127,68
1,70,116,84
1,76,120,120
1,74,117,276
1,72,121,8
1,70,106,228
1,69,107,20
1,65,107,20
1,74,127,12
1,76,127,0
1,77,125,0
1,76,115,108
1,74,114,356
1,74,127,108
1,72,115,0
1,76,110,8
1,74,114,20
1,72,126,8
1,70,115,8
1,74,112,376
1,72,127,8
1,70,122,0
1,69,113,18
1,72,113,16
1,69,127,212
1,72,125,20
1,70,123,68
1,70,121,68
1,79,125,8
1,77,101,28
1,69,127,184
1,72,119,28
1,70,127,12
1,70,127,40
1,64,111,20
1,65,103,20
1,74,127,820
1,76,127,392
1,77,126,8
1,76,123,140
1,74,122,12
1,74,127,88
1,72,123,8
1,76,123,12
1,74,127,20
1,72,127,8
1,70,127,8
1,74,114,384
1,74,84,68
1,72,127,84
1,70,127,24
1,69,125,32
1,72,114,36
1,69,127,24
1,72,127,92
1,70,127,584
1,70,127,56
1,79,127,112
1,77,120,32
1,69,127,180
1,72,127,112
1,70,127,12
1,70,127,48
1,64,125,68
1,65,107,352
2,65,82,0
2,72,92,2
2,77,92,0
2,69,89,0
2,72,101,584
2,69,97,0
2,65,97,2
2,77,94,2
2,65,92,552
2,69,92,0
2,72,94,0
2,77,97,8
2,69,101,556
2,72,105,0
2,65,110,2
2,77,101,0
2,70,84,190
2,60,77,2
2,67,87,0
2,64,75,0
2,72,84,2
2,58,77,72
2,70,90,0
2,62,77,0
2,65,84,24
2,74,85,0
2,67,92,0
2,70,86,68
2,60,82,4
2,67,92,0
2,64,84,0
2,72,89,2
2,70,84,16
2,65,84,0
2,62,85,0
2,67,92,2
2,74,89,0
2,66,90,88
2,69,89,0
2,63,105,0
2,75,83,2
2,72,84,0
2,64,78,36
2,70,78,4
2,76,70,0
2,67,85,20
2,72,80,0
2,53,67,70
2,69,70,6
2,60,67,0
2,52,65,112
2,70,66,0
2,53,62,4
2,69,67,0
2,58,70,136
2,65,64,0
2,70,72,16
2,74,76,0
2,76,66,380
2,72,75,0
2,74,68,8
2,77,68,12
2,76,71,16
2,72,76,0
2,70,76,8
2,74,75,10
2,74,75,100
2,70,74,0
2,57,61,16
2,69,73,8
2,72,75,4
2,76,62,62
2,72,75,12
2,74,65,10
2,70,80,0
2,64,59,4
2,69,75,16
2,55,69,0
2,72,75,0
2,70,78,4
2,67,82,0
2,74,80,44
2,70,83,0
2,72,75,30
2,69,87,0
2,60,66,4
2,53,61,2
2,70,71,12
2,67,73,0
2,65,76,16
2,69,76,0
2,72,75,60
2,69,74,0
2,52,68,48
2,72,71,0
2,70,76,592
2,79,78,532
2,69,79,38
2,77,82,0
2,53,63,16
2,69,94,84
2,52,64,160
2,72,77,12
2,70,86,564
2,64,76,8
2,57,58,220
2,65,68,0
2,53,46,4
2,69,105,236
2,72,77,172
2,52,70,0
2,70,75,4
2,70,78,60
2,79,58,380
2,77,52,24
2,53,54,12
2,69,56,0
2,69,59,140
2,77,75,0
2,53,60,228
2,60,54,0
2,69,56,0
2,70,66,142
2,52,55,0
2,53,58,4
2,69,51,12
2,58,77,104
2,65,73,0
2,74,79,16
2,70,82,0
2,76,61,12
2,72,76,0
2,77,74,22
2,74,73,4
2,72,80,8
2,76,74,0
2,74,76,8
2,70,81,0
2,70,75,52
2,74,78,12
2,57,60,20
2,72,76,12
2,69,77,0
2,72,79,64
2,76,75,0
2,70,77,8
2,74,73,0
2,64,62,8
2,55,70,0
2,72,77,16
2,69,78,4
2,67,79,52
2,70,81,0
2,74,75,44
2,70,76,12
2,72,77,4
2,69,85,0
2,60,68,8
2,53,59,0
2,70,71,16
2,67,75,0
2,69,75,24
2,65,78,0
2,72,69,56
2,69,75,0
2,69,70,96
2,52,72,130
2,72,78,12
2,70,63,588
2,79,78,182
2,69,75,28
2,77,69,12
2,53,58,0
2,72,57,16
2,52,61,46
2,67,62,0
2,72,68,16
2,70,69,572
2,64,75,152
2,53,48,250
2,57,55,0
2,65,64,4
2,69,76,1140
2,52,60,174
2,72,77,0
2,55,67,0
2,70,69,160
2,76,69,12
2,70,74,52
2,76,77,4
2,79,70,380
2,69,68,48
2,77,64,8
2,53,63,4
2,57,47,776
2,72,51,0
2,65,43,752
2,69,50,56
2,53,52,0
2,70,65,104
2,52,60,0
2,53,55,28
2,69,59,0
2,74,77,132
2,70,70,0
2,58,59,0
2,76,63,24
2,72,69,0
2,65,49,16
2,74,65,8
2,77,62,8
2,72,79,24
2,76,72,0
2,74,68,2
2,70,75,12
2,74,74,84
2,70,75,0
2,57,66,16
2,69,75,12
2,72,77,0
2,76,68,36
2,72,75,0
2,74,69,4
2,70,81,0
2,55,64,2
2,64,63,12
2,72,75,0
2,69,76,0
2,67,78,72
2,70,77,0
2,74,70,28
2,70,72,2
2,72,65,32
2,69,74,0
2,60,59,8
2,70,67,0
2,67,69,0
2,53,56,2
2,65,70,14
2,69,76,0
2,69,69,28
2,72,67,12
2,69,79,96
2,72,73,128
2,52,70,0
2,70,76,602
2,79,68,508
2,69,64,20
2,77,69,4
2,53,63,12
2,72,64,36
2,52,70,12
2,58,84,16
2,60,85,12
2,70,88,0
2,64,82,0
2,58,84,76
2,60,84,0
2,64,76,0
2,70,93,0
2,53,55,28
2,69,64,0
2,65,59,4
2,52,60,76
2,72,76,12
2,79,71,136
2,70,74,0
2,70,71,56
2,79,72,0
2,76,59,16
2,53,45,12
2,69,45,4
2,77,54,16
2,72,59,78
2,69,66,380
2,53,52,216
2,60,47,0
2,70,69,136
2,52,53,20
2,53,58,8
2,69,63,0
2,58,71,108
2,65,72,0
2,70,76,20
2,74,74,0
2,76,64,30
2,72,71,0
2,74,70,6
2,77,74,12
2,72,77,16
2,76,72,0
2,70,71,16
2,74,74,0
2,57,65,88
2,74,75,2
2,70,73,0
2,69,75,12
2,72,78,4
2,76,79,64
2,72,87,12
2,74,73,16
2,70,82,0
2,72,80,8
2,69,82,2
2,60,71,0
2,70,76,84
2,67,84,0
2,74,75,44
2,70,80,4
2,69,75,16
2,72,76,0
2,53,74,66
2,70,84,0
2,65,74,16
2,69,76,0
2,69,75,52
2,72,65,4
2,69,79,140
2,52,66,144
2,72,72,4
2,70,65,8
2,70,69,60
2,79,72,372
2,53,59,12
2,69,74,16
2,77,62,0
2,72,82,568
2,69,79,172
2,65,64,8
2,52,64,20
2,72,75,12
2,64,75,104
2,70,88,0
2,64,73,80
2,70,84,0
2,64,67,88
2,53,49,6
2,65,62,0
2,52,55,1000
2,58,54,12
2,72,82,0
2,60,55,0
2,70,82,16
2,70,81,60
2,79,75,384
2,69,58,56
2,77,49,0
2,53,53,16
2,72,62,4
2,69,60,156
2,65,62,0
2,53,55,376
2,69,58,12
2,60,42,0
2,70,67,4
2,67,69,20
2,72,68,4
2,69,62,4
2,65,69,54
2,69,74,0
2,52,63,40
2,70,72,0
2,74,63,972
2,77,68,0
2,76,55,8
2,72,64,0
2,70,54,400
2,76,67,4
2,74,70,16
2,70,80,12
2,69,78,32
2,72,77,0
2,70,69,8
2,67,75,0
2,65,65,72
2,69,75,0
2,53,63,0
2,58,71,40
2,74,79,2
2,70,93,0
2,65,77,22
2,72,89,56
2,76,79,8
2,74,84,40
2,77,84,0
2,72,85,12
2,76,73,6
2,70,77,4
2,74,72,0
2,74,76,72
2,70,77,8
2,57,59,24
2,69,75,0
2,72,78,0
2,76,69,48
2,72,74,0
2,70,77,4
2,74,72,4
2,64,63,8
2,55,70,12
2,69,69,0
2,72,75,0
2,70,80,4
2,67,85,0
2,70,48,20
2,74,72,12
2,72,75,30
2,69,85,0
2,60,66,8
2,53,60,12
2,70,77,0
2,67,77,0
2,65,79,12
2,69,79,0
2,69,65,40
2,72,64,8
2,69,78,100
2,52,73,156
2,72,79,0
2,70,66,568
2,79,74,538
2,77,57,52
2,69,67,0
2,53,57,20
2,69,69,28
2,72,77,184
2,65,61,4
2,69,72,4
2,72,73,2
2,52,60,0
2,58,61,574
2,70,78,8
2,70,81,64
2,64,66,4
2,48,78,276
2,60,87,0
2,50,75,142
2,62,105,10
2,52,101,234
2,64,82,12
2,65,79,16
2,53,105,0
2,67,89,16
2,55,85,0
2,57,94,6
2,69,89,2
2,58,88,88
2,70,81,0
2,60,80,18
2,72,89,0
2,59,74,0
2,62,115,20
2,74,87,0
2,70,105,20
2,72,101,12
2,76,84,0
2,64,101,2
2,74,78,0
2,65,80,0
2,77,78,0
2,64,94,4
2,72,89,16
2,76,84,0
2,74,84,10
2,70,93,0
2,62,89,16
2,62,94,108
2,70,97,0
2,74,79,4
2,60,97,24
2,69,105,0
2,72,92,0
2,64,110,50
2,76,84,12
2,72,101,0
2,74,73,40
2,62,97,0
2,70,97,0
2,72,80,6
2,60,87,0
2,69,89,4
2,58,101,8
2,70,97,12
2,67,92,0
2,62,105,16
2,74,89,0
2,70,101,0
2,60,110,88
2,69,94,16
2,72,92,0
2,58,93,34
2,67,85,10
2,70,97,2
2,57,87,34
2,69,89,0
2,65,94,2
2,60,94,82
2,69,85,0
2,72,84,0
2,57,89,130
2,69,110,12
2,72,92,4
2,60,97,0
2,73,30,132
2,79,77,212
2,70,82,0
2,70,88,74
2,79,87,10
2,76,70,384
2,53,63,8
2,69,63,12
2,77,67,0
2,60,71,284
2,70,72,12
2,76,73,2
2,64,67,64
2,70,76,12
2,53,52,16
2,69,63,0
2,70,51,4
2,62,48,0
2,74,50,0
2,65,67,8
2,72,64,2
2,69,63,0
2,73,74,136
2,70,66,0
2,77,76,2
2,69,52,4
2,72,52,4
2,65,58,16
2,65,55,80
2,77,59,0
2,69,57,12
2,72,54,0
2,65,56,156
2,69,48,12
2,77,46,0
2,72,53,2
2,65,68,292
2,72,63,12
2,77,65,0
2,69,60,0
2,65,63,56
2,77,57,4
2,72,55,0
2,69,56,0
2,65,63,264
2,77,68,0
2,72,64,0
2,69,60,2
2,65,56,200
2,77,58,12
2,72,54,0
2,69,56,0
2,76,71,236
2,70,84,0
2,67,97,2
2,60,78,0
2,72,89,2
2,77,64,100
2,60,55,0
2,65,57,2
2,69,55,0
3,53,99,1924
3,60,106,0
3,57,97,0
3,65,92,2
3,57,97,594
3,60,106,0
3,65,99,0
3,57,99,610
3,60,110,0
3,65,97,0
3,65,94,626
3,57,94,0
3,60,99,0
3,64,92,290
3,55,110,0
3,60,110,0
3,60,97,3268
3,57,94,0
3,65,97,2
3,60,97,568
3,57,90,0
3,65,92,0
3,60,89,592
3,64,87,0
3,58,91,2
3,60,87,596
3,58,91,0
3,64,84,0
3,58,98,628
3,64,87,0
3,60,90,0
3,64,83,620
3,60,84,0
3,58,87,2
3,64,82,616
3,58,88,2
3,60,85,0
3,57,89,628
3,60,89,0
3,65,90,0
3,58,89,420
3,62,87,0
3,65,83,0
3,58,91,548
3,65,87,0
3,62,90,2
3,57,90,516
3,60,94,0
3,65,89,2
3,60,81,560
3,57,80,0
3,65,77,2
3,64,80,576
3,58,86,0
3,55,89,0
3,60,82,0
3,64,81,620
3,60,81,0
3,58,88,0
3,60,90,580
3,57,87,2
3,65,85,0
3,57,83,594
3,65,83,0
3,60,89,2
3,64,83,600
3,58,89,0
3,60,83,2
3,58,89,624
3,64,83,2
3,60,82,0
3,60,92,580
3,57,87,0
3,65,87,0
3,60,81,632
3,57,77,0
3,65,80,2
3,58,93,596
3,64,84,0
3,60,83,2
3,58,93,628
3,64,89,0
3,60,84,0
3,60,79,636
3,65,77,0
3,57,72,0
3,60,76,300
3,57,73,2
3,65,78,0
3,57,92,296
3,60,94,2
3,65,94,0
3,58,91,664
3,64,80,2
3,60,84,0
3,58,91,656
3,60,85,2
3,64,84,0
3,57,80,678
3,60,81,0
3,65,79,2
3,60,94,320
3,57,92,2
3,65,89,0
3,60,115,312
3,57,106,0
3,65,110,0
3,60,97,686
3,57,94,0
3,65,97,0
3,60,97,570
3,57,90,0
3,65,92,2
3,60,89,592
3,64,87,2
3,58,91,0
3,60,87,598
3,58,91,0
3,64,84,0
3,58,98,628
3,64,87,0
3,60,90,0
3,64,83,620
3,60,84,0
3,58,87,0
3,64,82,618
3,58,88,0
3,60,85,0
3,57,89,630
3,60,89,0
3,65,90,2
3,58,89,422
3,62,87,0
3,65,83,0
3,58,91,544
3,65,87,0
3,62,90,2
3,57,90,518
3,60,94,0
3,65,89,0
3,60,81,560
3,57,80,0
3,65,77,0
3,64,80,576
3,58,86,0
3,55,89,0
3,60,82,0
