track,note,velocity,time
1.0,43.0,110.0,2400.0
1.0,50.0,84.0,60.0
1.0,59.0,84.0,60.0
1.0,50.0,0.0,19.0
1.0,57.0,84.0,41.0
1.0,59.0,0.0,19.0
1.0,59.0,84.0,41.0
1.0,57.0,0.0,19.0
1.0,55.0,84.0,41.0
1.0,59.0,0.0,19.0
1.0,59.0,84.0,41.0
1.0,55.0,0.0,19.0
1.0,55.0,84.0,41.0
1.0,59.0,0.0,19.0
1.0,43.0,0.0,40.0
1.0,43.0,110.0,1.0
1.0,55.0,0.0,19.0
1.0,50.0,84.0,41.0
1.0,59.0,84.0,60.0
1.0,50.0,0.0,19.0
1.0,57.0,84.0,41.0
1.0,59.0,0.0,19.0
1.0,59.0,84.0,41.0
1.0,57.0,0.0,19.0
1.0,55.0,84.0,41.0
1.0,59.0,0.0,19.0
1.0,59.0,84.0,41.0
1.0,55.0,0.0,19.0
1.0,55.0,84.0,41.0
1.0,59.0,0.0,19.0
1.0,43.0,0.0,40.0
1.0,45.0,110.0,1.0
1.0,55.0,0.0,19.0
1.0,45.0,0.0,40.0
1.0,45.0,110.0,1.0
1.0,52.0,84.0,20.0
1.0,52.0,0.0,19.0
1.0,57.0,84.0,1.0
1.0,57.0,0.0,19.0
1.0,60.0,84.0,1.0
1.0,60.0,0.0,59.0
1.0,59.0,84.0,1.0
1.0,59.0,0.0,59.0
1.0,60.0,84.0,1.0
1.0,43.0,110.0,0.0
1.0,52.0,84.0,60.0
1.0,45.0,0.0,0.0
1.0,52.0,0.0,59.0
1.0,57.0,84.0,1.0
1.0,57.0,0.0,59.0
1.0,52.0,84.0,1.0
1.0,52.0,0.0,59.0
1.0,42.0,110.0,1.0
1.0,43.0,0.0,0.0
1.0,60.0,0.0,0.0
1.0,42.0,0.0,59.0
1.0,42.0,110.0,1.0
1.0,50.0,84.0,20.0
1.0,50.0,0.0,19.0
1.0,57.0,84.0,1.0
1.0,57.0,0.0,19.0
1.0,60.0,84.0,1.0
1.0,60.0,0.0,59.0
1.0,59.0,84.0,1.0
1.0,59.0,0.0,59.0
1.0,59.0,84.0,1.0
1.0,43.0,110.0,0.0
1.0,50.0,84.0,60.0
1.0,42.0,0.0,0.0
1.0,50.0,0.0,59.0
1.0,57.0,84.0,1.0
1.0,57.0,0.0,59.0
1.0,50.0,84.0,1.0
1.0,50.0,0.0,59.0
1.0,59.0,84.0,1.0
1.0,59.0,0.0,59.0
1.0,50.0,84.0,1.0
1.0,50.0,0.0,59.0
1.0,64.0,84.0,1.0
1.0,64.0,0.0,59.0
1.0,50.0,84.0,1.0
1.0,50.0,0.0,59.0
1.0,43.0,110.0,1.0
1.0,62.0,84.0,0.0
1.0,43.0,0.0,0.0
1.0,59.0,0.0,0.0
1.0,62.0,0.0,59.0
1.0,50.0,84.0,1.0
1.0,50.0,0.0,59.0
1.0,57.0,84.0,1.0
1.0,57.0,0.0,59.0
1.0,50.0,84.0,1.0
1.0,57.0,65.0,55.0
1.0,50.0,0.0,4.0
1.0,60.0,65.0,1.0
1.0,55.0,65.0,115.0
1.0,59.0,65.0,5.0
1.0,60.0,0.0,0.0
1.0,57.0,0.0,0.0
1.0,43.0,110.0,120.0
1.0,43.0,0.0,0.0
1.0,59.0,0.0,0.0
1.0,55.0,0.0,0.0
1.0,50.0,84.0,60.0
1.0,59.0,84.0,60.0
1.0,50.0,0.0,19.0
1.0,57.0,84.0,41.0
1.0,59.0,0.0,19.0
1.0,59.0,84.0,41.0
1.0,57.0,0.0,19.0
1.0,55.0,84.0,41.0
1.0,59.0,0.0,19.0
1.0,59.0,84.0,41.0
1.0,55.0,0.0,19.0
1.0,55.0,84.0,41.0
1.0,59.0,0.0,19.0
1.0,43.0,0.0,40.0
1.0,43.0,110.0,1.0
1.0,55.0,0.0,19.0
1.0,50.0,84.0,41.0
1.0,59.0,84.0,60.0
1.0,50.0,0.0,19.0
1.0,57.0,84.0,41.0
1.0,59.0,0.0,19.0
1.0,59.0,84.0,41.0
1.0,57.0,0.0,19.0
1.0,55.0,84.0,41.0
1.0,59.0,0.0,19.0
1.0,59.0,84.0,41.0
1.0,55.0,0.0,19.0
1.0,55.0,84.0,41.0
1.0,59.0,0.0,19.0
1.0,43.0,0.0,40.0
1.0,45.0,110.0,1.0
1.0,55.0,0.0,19.0
1.0,45.0,0.0,40.0
1.0,45.0,110.0,1.0
1.0,52.0,84.0,20.0
1.0,52.0,0.0,19.0
1.0,57.0,84.0,1.0
1.0,57.0,0.0,19.0
1.0,60.0,84.0,1.0
1.0,60.0,0.0,59.0
1.0,59.0,84.0,1.0
1.0,59.0,0.0,59.0
1.0,60.0,84.0,1.0
1.0,43.0,110.0,0.0
1.0,52.0,84.0,60.0
1.0,45.0,0.0,0.0
1.0,52.0,0.0,59.0
1.0,57.0,84.0,1.0
1.0,57.0,0.0,59.0
1.0,52.0,84.0,1.0
1.0,52.0,0.0,59.0
1.0,42.0,110.0,1.0
1.0,43.0,0.0,0.0
1.0,60.0,0.0,0.0
1.0,42.0,0.0,59.0
1.0,42.0,110.0,1.0
1.0,50.0,84.0,20.0
1.0,50.0,0.0,19.0
1.0,57.0,84.0,1.0
1.0,57.0,0.0,19.0
1.0,60.0,84.0,1.0
1.0,60.0,0.0,59.0
1.0,59.0,84.0,1.0
1.0,59.0,0.0,59.0
1.0,59.0,84.0,1.0
1.0,43.0,110.0,0.0
1.0,50.0,84.0,60.0
1.0,42.0,0.0,0.0
1.0,50.0,0.0,59.0
1.0,57.0,84.0,1.0
1.0,57.0,0.0,59.0
1.0,50.0,84.0,1.0
1.0,50.0,0.0,59.0
1.0,59.0,84.0,1.0
1.0,59.0,0.0,59.0
1.0,50.0,84.0,1.0
1.0,50.0,0.0,59.0
1.0,64.0,84.0,1.0
1.0,64.0,0.0,59.0
1.0,50.0,84.0,1.0
1.0,50.0,0.0,59.0
1.0,43.0,110.0,1.0
1.0,62.0,84.0,0.0
1.0,43.0,0.0,0.0
1.0,59.0,0.0,0.0
1.0,62.0,0.0,59.0
1.0,50.0,84.0,1.0
1.0,50.0,0.0,59.0
1.0,57.0,84.0,1.0
1.0,57.0,0.0,59.0
1.0,50.0,84.0,1.0
1.0,57.0,65.0,55.0
1.0,50.0,0.0,4.0
1.0,60.0,65.0,1.0
1.0,55.0,65.0,115.0
1.0,59.0,65.0,5.0
1.0,60.0,0.0,0.0
1.0,57.0,0.0,0.0
1.0,64.0,84.0,120.0
1.0,48.0,84.0,0.0
1.0,43.0,0.0,0.0
1.0,59.0,0.0,0.0
1.0,55.0,0.0,0.0
1.0,64.0,0.0,59.0
1.0,55.0,84.0,1.0
1.0,55.0,0.0,59.0
1.0,43.0,110.0,1.0
1.0,62.0,84.0,0.0
1.0,48.0,0.0,0.0
1.0,62.0,0.0,59.0
1.0,50.0,84.0,1.0
1.0,50.0,0.0,59.0
1.0,66.0,84.0,1.0
1.0,43.0,0.0,0.0
1.0,66.0,0.0,59.0
1.0,50.0,84.0,1.0
1.0,50.0,0.0,59.0
1.0,50.0,84.0,1.0
1.0,62.0,84.0,5.0
1.0,59.0,84.0,5.0
1.0,67.0,84.0,5.0
1.0,50.0,0.0,104.0
1.0,50.0,84.0,1.0
1.0,62.0,0.0,4.0
1.0,60.0,84.0,1.0
1.0,59.0,0.0,4.0
1.0,64.0,84.0,1.0
1.0,67.0,0.0,4.0
1.0,69.0,84.0,1.0
1.0,50.0,0.0,104.0
1.0,50.0,84.0,1.0
1.0,60.0,0.0,4.0
1.0,62.0,84.0,1.0
1.0,64.0,0.0,4.0
1.0,67.0,84.0,1.0
1.0,69.0,0.0,4.0
1.0,71.0,84.0,1.0
1.0,74.0,84.0,60.0
1.0,50.0,0.0,44.0
1.0,62.0,0.0,5.0
1.0,67.0,0.0,5.0
1.0,71.0,0.0,5.0
1.0,66.0,84.0,46.0
1.0,51.0,84.0,0.0
1.0,74.0,0.0,14.0
1.0,59.0,84.0,46.0
1.0,59.0,0.0,59.0
1.0,54.0,84.0,1.0
1.0,69.0,84.0,0.0
1.0,51.0,0.0,0.0
1.0,66.0,0.0,0.0
1.0,59.0,84.0,60.0
1.0,59.0,0.0,59.0
1.0,40.0,110.0,1.0
1.0,67.0,84.0,0.0
1.0,54.0,0.0,0.0
1.0,69.0,0.0,0.0
1.0,59.0,84.0,60.0
1.0,59.0,0.0,59.0
1.0,67.0,84.0,1.0
1.0,52.0,84.0,0.0
1.0,40.0,0.0,0.0
1.0,67.0,0.0,0.0
1.0,59.0,84.0,60.0
1.0,59.0,0.0,59.0
1.0,64.0,84.0,1.0
1.0,50.0,84.0,0.0
1.0,67.0,0.0,0.0
1.0,52.0,0.0,0.0
1.0,59.0,84.0,60.0
1.0,59.0,0.0,59.0
1.0,45.0,110.0,1.0
1.0,69.0,84.0,0.0
1.0,64.0,0.0,0.0
1.0,50.0,0.0,0.0
1.0,67.0,84.0,20.0
1.0,69.0,0.0,19.0
1.0,66.0,84.0,1.0
1.0,67.0,0.0,19.0
1.0,66.0,0.0,60.0
1.0,48.0,84.0,1.0
1.0,64.0,84.0,0.0
1.0,45.0,0.0,0.0
1.0,59.0,84.0,60.0
1.0,59.0,0.0,59.0
1.0,55.0,84.0,1.0
1.0,55.0,0.0,59.0
1.0,59.0,84.0,1.0
1.0,59.0,0.0,59.0
1.0,52.0,84.0,1.0
1.0,64.0,0.0,0.0
1.0,48.0,0.0,0.0
1.0,52.0,0.0,59.0
1.0,52.0,100.0,1.0
1.0,52.0,0.0,19.0
1.0,54.0,100.0,1.0
1.0,54.0,0.0,19.0
1.0,55.0,100.0,1.0
1.0,55.0,0.0,19.0
1.0,59.0,100.0,1.0
1.0,59.0,0.0,19.0
1.0,64.0,100.0,1.0
1.0,64.0,0.0,39.0
1.0,67.0,100.0,1.0
1.0,67.0,0.0,59.0
1.0,46.0,65.0,1.0
1.0,66.0,65.0,0.0
1.0,61.0,65.0,60.0
1.0,61.0,0.0,59.0
1.0,67.0,65.0,1.0
1.0,67.0,0.0,59.0
1.0,61.0,65.0,1.0
1.0,61.0,0.0,59.0
1.0,66.0,65.0,1.0
1.0,47.0,110.0,0.0
1.0,66.0,0.0,0.0
1.0,46.0,0.0,0.0
1.0,66.0,0.0,59.0
1.0,62.0,84.0,1.0
1.0,67.0,84.0,60.0
1.0,67.0,0.0,59.0
1.0,62.0,84.0,1.0
1.0,62.0,0.0,59.0
1.0,66.0,84.0,1.0
1.0,66.0,0.0,59.0
1.0,62.0,84.0,1.0
1.0,62.0,0.0,59.0
1.0,67.0,84.0,1.0
1.0,67.0,0.0,59.0
1.0,62.0,84.0,1.0
1.0,62.0,0.0,59.0
1.0,66.0,84.0,1.0
1.0,46.0,84.0,0.0
1.0,47.0,0.0,0.0
1.0,66.0,0.0,59.0
1.0,61.0,84.0,1.0
1.0,62.0,0.0,0.0
1.0,67.0,84.0,60.0
1.0,67.0,0.0,59.0
1.0,61.0,84.0,1.0
1.0,61.0,0.0,59.0
1.0,66.0,84.0,1.0
1.0,66.0,0.0,59.0
1.0,61.0,84.0,1.0
1.0,61.0,0.0,59.0
1.0,67.0,84.0,1.0
1.0,67.0,0.0,59.0
1.0,47.0,80.0,61.0
1.0,66.0,70.0,0.0
1.0,46.0,0.0,0.0
1.0,62.0,70.0,60.0
1.0,61.0,0.0,0.0
1.0,62.0,0.0,59.0
1.0,67.0,70.0,1.0
1.0,67.0,0.0,59.0
1.0,62.0,70.0,1.0
1.0,62.0,0.0,59.0
1.0,66.0,70.0,1.0
1.0,66.0,0.0,59.0
1.0,62.0,70.0,1.0
1.0,62.0,0.0,59.0
1.0,67.0,70.0,1.0
1.0,67.0,0.0,59.0
1.0,66.0,70.0,1.0
1.0,66.0,0.0,59.0
1.0,46.0,65.0,1.0
1.0,66.0,65.0,0.0
1.0,47.0,0.0,0.0
1.0,66.0,0.0,0.0
1.0,61.0,65.0,60.0
1.0,61.0,0.0,59.0
1.0,67.0,65.0,1.0
1.0,67.0,0.0,59.0
1.0,61.0,65.0,1.0
1.0,61.0,0.0,59.0
1.0,66.0,65.0,1.0
1.0,66.0,0.0,120.0
1.0,64.0,84.0,60.0
1.0,44.0,110.0,0.0
1.0,59.0,84.0,60.0
1.0,46.0,0.0,0.0
1.0,66.0,0.0,0.0
1.0,59.0,0.0,59.0
1.0,60.0,84.0,1.0
1.0,45.0,110.0,0.0
1.0,64.0,0.0,0.0
1.0,44.0,0.0,0.0
1.0,60.0,0.0,59.0
1.0,52.0,84.0,1.0
1.0,55.0,84.0,60.0
1.0,55.0,0.0,59.0
1.0,59.0,84.0,1.0
1.0,52.0,0.0,0.0
1.0,59.0,0.0,59.0
1.0,60.0,84.0,1.0
1.0,45.0,0.0,0.0
1.0,60.0,0.0,59.0
1.0,55.0,84.0,1.0
1.0,55.0,0.0,59.0
1.0,47.0,110.0,1.0
1.0,62.0,84.0,0.0
1.0,62.0,0.0,59.0
1.0,57.0,84.0,1.0
1.0,57.0,0.0,59.0
1.0,59.0,84.0,1.0
1.0,43.0,110.0,0.0
1.0,59.0,0.0,59.0
1.0,50.0,84.0,1.0
1.0,50.0,0.0,59.0
1.0,55.0,84.0,1.0
1.0,47.0,0.0,0.0
1.0,55.0,0.0,59.0
1.0,57.0,84.0,1.0
1.0,57.0,0.0,59.0
1.0,59.0,84.0,1.0
1.0,43.0,0.0,0.0
1.0,59.0,0.0,59.0
1.0,57.0,84.0,1.0
1.0,57.0,0.0,59.0
1.0,64.0,84.0,1.0
1.0,44.0,110.0,0.0
1.0,59.0,84.0,60.0
1.0,59.0,0.0,59.0
1.0,60.0,84.0,1.0
1.0,45.0,110.0,0.0
1.0,44.0,0.0,0.0
1.0,64.0,0.0,0.0
1.0,60.0,0.0,59.0
1.0,52.0,84.0,1.0
1.0,55.0,84.0,60.0
1.0,55.0,0.0,59.0
1.0,59.0,84.0,1.0
1.0,52.0,0.0,0.0
1.0,59.0,0.0,59.0
1.0,60.0,84.0,1.0
1.0,45.0,0.0,0.0
1.0,60.0,0.0,59.0
1.0,55.0,84.0,1.0
1.0,55.0,0.0,59.0
1.0,47.0,110.0,1.0
1.0,62.0,84.0,0.0
1.0,62.0,0.0,59.0
1.0,57.0,84.0,1.0
1.0,57.0,0.0,59.0
1.0,59.0,84.0,1.0
1.0,43.0,110.0,0.0
1.0,59.0,0.0,59.0
1.0,50.0,84.0,1.0
1.0,50.0,0.0,59.0
1.0,55.0,84.0,1.0
1.0,47.0,0.0,0.0
1.0,55.0,0.0,59.0
1.0,57.0,84.0,1.0
1.0,57.0,0.0,59.0
1.0,59.0,84.0,1.0
1.0,43.0,0.0,0.0
1.0,55.0,84.0,60.0
1.0,64.0,84.0,60.0
1.0,48.0,84.0,0.0
1.0,59.0,0.0,0.0
1.0,64.0,0.0,59.0
1.0,55.0,84.0,1.0
1.0,55.0,0.0,0.0
1.0,55.0,0.0,59.0
1.0,43.0,110.0,1.0
1.0,62.0,84.0,0.0
1.0,48.0,0.0,0.0
1.0,62.0,0.0,59.0
1.0,50.0,84.0,1.0
1.0,50.0,0.0,59.0
1.0,66.0,84.0,1.0
1.0,43.0,0.0,0.0
1.0,66.0,0.0,59.0
1.0,50.0,84.0,1.0
1.0,50.0,0.0,59.0
1.0,50.0,84.0,1.0
1.0,62.0,84.0,5.0
1.0,59.0,84.0,5.0
1.0,67.0,84.0,5.0
1.0,50.0,0.0,104.0
1.0,50.0,84.0,1.0
1.0,62.0,0.0,4.0
1.0,60.0,84.0,1.0
1.0,59.0,0.0,4.0
1.0,64.0,84.0,1.0
1.0,67.0,0.0,4.0
1.0,69.0,84.0,1.0
1.0,50.0,0.0,104.0
1.0,50.0,84.0,1.0
1.0,60.0,0.0,4.0
1.0,62.0,84.0,1.0
1.0,64.0,0.0,4.0
1.0,67.0,84.0,1.0
1.0,69.0,0.0,4.0
1.0,71.0,84.0,1.0
1.0,50.0,84.0,225.0
1.0,50.0,0.0,0.0
1.0,60.0,84.0,5.0
1.0,62.0,0.0,0.0
1.0,64.0,84.0,5.0
1.0,67.0,0.0,0.0
1.0,69.0,84.0,5.0
1.0,71.0,0.0,0.0
1.0,50.0,84.0,225.0
1.0,50.0,0.0,0.0
1.0,62.0,84.0,5.0
1.0,60.0,0.0,0.0
1.0,59.0,84.0,5.0
1.0,64.0,0.0,0.0
1.0,67.0,84.0,5.0
1.0,69.0,0.0,0.0
1.0,50.0,84.0,225.0
1.0,50.0,0.0,0.0
1.0,60.0,84.0,5.0
1.0,62.0,0.0,0.0
1.0,64.0,84.0,5.0
1.0,59.0,0.0,0.0
1.0,69.0,84.0,5.0
1.0,67.0,0.0,0.0
1.0,55.0,84.0,225.0
1.0,71.0,84.0,0.0
1.0,50.0,0.0,0.0
1.0,60.0,0.0,5.0
1.0,64.0,0.0,5.0
1.0,69.0,0.0,5.0
1.0,71.0,0.0,24.0
1.0,72.0,84.0,1.0
1.0,72.0,0.0,39.0
1.0,74.0,84.0,1.0
1.0,74.0,0.0,79.0
1.0,69.0,84.0,1.0
1.0,69.0,0.0,79.0
1.0,74.0,84.0,1.0
1.0,74.0,0.0,79.0
1.0,67.0,84.0,1.0
1.0,67.0,0.0,79.0
1.0,74.0,84.0,1.0
1.0,74.0,0.0,79.0
1.0,69.0,84.0,1.0
1.0,55.0,0.0,60.0
1.0,69.0,0.0,179.0
1.0,43.0,110.0,3001.0
1.0,50.0,84.0,60.0
1.0,59.0,84.0,60.0
1.0,50.0,0.0,19.0
1.0,57.0,84.0,41.0
1.0,59.0,0.0,19.0
1.0,59.0,84.0,41.0
1.0,57.0,0.0,19.0
1.0,55.0,84.0,41.0
1.0,59.0,0.0,19.0
1.0,59.0,84.0,41.0
1.0,55.0,0.0,19.0
1.0,55.0,84.0,41.0
1.0,59.0,0.0,19.0
1.0,43.0,0.0,40.0
1.0,43.0,110.0,1.0
1.0,55.0,0.0,19.0
1.0,50.0,84.0,41.0
1.0,59.0,84.0,60.0
1.0,50.0,0.0,19.0
1.0,57.0,84.0,41.0
1.0,59.0,0.0,19.0
1.0,59.0,84.0,41.0
1.0,57.0,0.0,19.0
1.0,55.0,84.0,41.0
1.0,59.0,0.0,19.0
1.0,59.0,84.0,41.0
1.0,55.0,0.0,19.0
1.0,55.0,84.0,41.0
1.0,59.0,0.0,19.0
1.0,43.0,0.0,40.0
1.0,45.0,110.0,1.0
1.0,55.0,0.0,19.0
1.0,45.0,0.0,40.0
1.0,45.0,110.0,1.0
1.0,52.0,84.0,20.0
1.0,52.0,0.0,19.0
1.0,57.0,84.0,1.0
1.0,57.0,0.0,19.0
1.0,60.0,84.0,1.0
1.0,60.0,0.0,59.0
1.0,59.0,84.0,1.0
1.0,59.0,0.0,59.0
1.0,60.0,84.0,1.0
1.0,43.0,110.0,0.0
1.0,52.0,84.0,60.0
1.0,45.0,0.0,0.0
1.0,52.0,0.0,59.0
1.0,57.0,84.0,1.0
1.0,57.0,0.0,59.0
1.0,52.0,84.0,1.0
1.0,52.0,0.0,59.0
1.0,42.0,110.0,1.0
1.0,43.0,0.0,0.0
1.0,60.0,0.0,0.0
1.0,42.0,0.0,59.0
1.0,42.0,110.0,1.0
1.0,50.0,84.0,20.0
1.0,50.0,0.0,19.0
1.0,57.0,84.0,1.0
1.0,57.0,0.0,19.0
1.0,60.0,84.0,1.0
1.0,60.0,0.0,59.0
1.0,59.0,84.0,1.0
1.0,59.0,0.0,59.0
1.0,42.0,0.0,61.0
1.0,43.0,65.0,2340.0
1.0,43.0,0.0,479.0
2.0,47.0,84.0,0.0
2.0,47.0,0.0,119.0
2.0,50.0,84.0,1.0
2.0,50.0,0.0,119.0
2.0,55.0,84.0,1.0
2.0,55.0,0.0,119.0
2.0,59.0,84.0,1.0
2.0,59.0,0.0,119.0
2.0,52.0,84.0,1.0
2.0,52.0,0.0,119.0
2.0,55.0,84.0,1.0
2.0,55.0,0.0,119.0
2.0,50.0,84.0,1.0
2.0,50.0,0.0,119.0
2.0,55.0,84.0,1.0
2.0,55.0,0.0,119.0
2.0,47.0,84.0,1.0
2.0,47.0,0.0,119.0
2.0,50.0,84.0,1.0
2.0,50.0,0.0,119.0
2.0,55.0,84.0,1.0
2.0,55.0,0.0,119.0
2.0,59.0,84.0,1.0
2.0,59.0,0.0,119.0
2.0,52.0,84.0,1.0
2.0,52.0,0.0,119.0
2.0,55.0,84.0,1.0
2.0,55.0,0.0,119.0
2.0,50.0,84.0,1.0
2.0,50.0,0.0,119.0
2.0,55.0,84.0,1.0
2.0,55.0,0.0,119.0
2.0,47.0,84.0,1.0
2.0,47.0,0.0,119.0
2.0,50.0,84.0,1.0
2.0,50.0,0.0,119.0
2.0,55.0,84.0,1.0
2.0,55.0,0.0,119.0
2.0,59.0,84.0,1.0
2.0,59.0,0.0,119.0
2.0,62.0,90.0,11956.0
2.0,62.0,0.0,120.0
2.0,62.0,90.0,120.0
2.0,62.0,0.0,120.0
2.0,62.0,90.0,120.0
2.0,62.0,0.0,120.0
2.0,59.0,84.0,945.0
2.0,59.0,0.0,119.0
2.0,62.0,84.0,1.0
2.0,62.0,0.0,39.0
2.0,57.0,84.0,1.0
2.0,57.0,0.0,79.0
2.0,62.0,84.0,1.0
2.0,62.0,0.0,79.0
2.0,55.0,84.0,1.0
2.0,55.0,0.0,79.0
2.0,62.0,84.0,1.0
2.0,62.0,0.0,79.0
2.0,57.0,84.0,1.0
2.0,57.0,0.0,79.0
2.0,62.0,84.0,1.0
2.0,62.0,0.0,79.0
2.0,47.0,84.0,21.0
2.0,47.0,0.0,119.0
2.0,50.0,84.0,1.0
2.0,50.0,0.0,119.0
2.0,55.0,84.0,1.0
2.0,55.0,0.0,119.0
2.0,59.0,84.0,1.0
2.0,59.0,0.0,119.0
2.0,52.0,84.0,1.0
2.0,52.0,0.0,119.0
2.0,55.0,84.0,1.0
2.0,55.0,0.0,119.0
2.0,50.0,84.0,1.0
2.0,50.0,0.0,119.0
2.0,55.0,84.0,1.0
2.0,55.0,0.0,119.0
2.0,47.0,84.0,1.0
2.0,47.0,0.0,119.0
2.0,50.0,84.0,1.0
2.0,50.0,0.0,119.0
2.0,55.0,84.0,1.0
2.0,55.0,0.0,119.0
2.0,59.0,84.0,1.0
2.0,59.0,0.0,119.0
2.0,52.0,84.0,1.0
2.0,52.0,0.0,119.0
2.0,55.0,84.0,1.0
2.0,55.0,0.0,119.0
2.0,50.0,84.0,1.0
2.0,50.0,0.0,119.0
2.0,55.0,84.0,1.0
2.0,55.0,0.0,119.0
2.0,47.0,84.0,1.0
2.0,47.0,0.0,119.0
2.0,50.0,84.0,1.0
2.0,50.0,0.0,119.0
2.0,55.0,84.0,1.0
2.0,55.0,0.0,119.0
2.0,59.0,84.0,1.0
2.0,59.0,0.0,119.0
2.0,47.0,84.0,1681.0
2.0,47.0,0.0,119.0
2.0,50.0,84.0,1.0
2.0,50.0,0.0,119.0
2.0,55.0,84.0,1.0
2.0,55.0,0.0,119.0
2.0,59.0,84.0,1.0
2.0,59.0,0.0,119.0
2.0,52.0,84.0,1.0
2.0,52.0,0.0,119.0
2.0,55.0,84.0,1.0
2.0,55.0,0.0,119.0
2.0,50.0,84.0,1.0
2.0,50.0,0.0,119.0
2.0,55.0,84.0,1.0
2.0,55.0,0.0,119.0
2.0,47.0,84.0,1.0
2.0,47.0,0.0,119.0
2.0,50.0,84.0,1.0
2.0,50.0,0.0,119.0
2.0,55.0,84.0,1.0
2.0,55.0,0.0,119.0
2.0,59.0,84.0,1.0
2.0,59.0,0.0,119.0
2.0,52.0,84.0,1.0
2.0,52.0,0.0,119.0
2.0,55.0,84.0,1.0
2.0,55.0,0.0,119.0
2.0,50.0,84.0,1.0
2.0,50.0,0.0,119.0
2.0,55.0,84.0,1.0
2.0,55.0,0.0,119.0
2.0,47.0,84.0,1.0
2.0,47.0,0.0,119.0
2.0,50.0,84.0,1.0
2.0,50.0,0.0,119.0
2.0,55.0,84.0,1.0
2.0,55.0,0.0,119.0
2.0,59.0,84.0,1.0
2.0,59.0,0.0,119.0
0.0,0.0,0.0,0.0
0.0,0.0,0.0,0.0
0.0,0.0,0.0,0.0
0.0,0.0,0.0,0.0
0.0,0.0,0.0,0.0
0.0,0.0,0.0,0.0
0.0,0.0,0.0,0.0
0.0,0.0,0.0,0.0
0.0,0.0,0.0,0.0
0.0,0.0,0.0,0.0
0.0,0.0,0.0,0.0
0.0,0.0,0.0,0.0
0.0,0.0,0.0,0.0
0.0,0.0,0.0,0.0
0.0,0.0,0.0,0.0
0.0,0.0,0.0,0.0
0.0,0.0,0.0,0.0
0.0,0.0,0.0,0.0
0.0,0.0,0.0,0.0
0.0,0.0,0.0,0.0
0.0,0.0,0.0,0.0
0.0,0.0,0.0,0.0
0.0,0.0,0.0,0.0
0.0,0.0,0.0,0.0
0.0,0.0,0.0,0.0
0.0,0.0,0.0,0.0
0.0,0.0,0.0,0.0
0.0,0.0,0.0,0.0
0.0,0.0,0.0,0.0
0.0,0.0,0.0,0.0
0.0,0.0,0.0,0.0
0.0,0.0,0.0,0.0
0.0,0.0,0.0,0.0
0.0,0.0,0.0,0.0
0.0,0.0,0.0,0.0
0.0,0.0,0.0,0.0
0.0,0.0,0.0,0.0
0.0,0.0,0.0,0.0
0.0,0.0,0.0,0.0
0.0,0.0,0.0,0.0
0.0,0.0,0.0,0.0
0.0,0.0,0.0,0.0
0.0,0.0,0.0,0.0
0.0,0.0,0.0,0.0
0.0,0.0,0.0,0.0
0.0,0.0,0.0,0.0
0.0,0.0,0.0,0.0
0.0,0.0,0.0,0.0
0.0,0.0,0.0,0.0
0.0,0.0,0.0,0.0
0.0,0.0,0.0,0.0
0.0,0.0,0.0,0.0
0.0,0.0,0.0,0.0
0.0,0.0,0.0,0.0
0.0,0.0,0.0,0.0
0.0,0.0,0.0,0.0
0.0,0.0,0.0,0.0
0.0,0.0,0.0,0.0
0.0,0.0,0.0,0.0
0.0,0.0,0.0,0.0
0.0,0.0,0.0,0.0
0.0,0.0,0.0,0.0
0.0,0.0,0.0,0.0
0.0,0.0,0.0,0.0
0.0,0.0,0.0,0.0
0.0,0.0,0.0,0.0
0.0,0.0,0.0,0.0
0.0,0.0,0.0,0.0
0.0,0.0,0.0,0.0
0.0,0.0,0.0,0.0
0.0,0.0,0.0,0.0
0.0,0.0,0.0,0.0
0.0,0.0,0.0,0.0
0.0,0.0,0.0,0.0
0.0,0.0,0.0,0.0
0.0,0.0,0.0,0.0
0.0,0.0,0.0,0.0
0.0,0.0,0.0,0.0
0.0,0.0,0.0,0.0
0.0,0.0,0.0,0.0
0.0,0.0,0.0,0.0
0.0,0.0,0.0,0.0
0.0,0.0,0.0,0.0
0.0,0.0,0.0,0.0
0.0,0.0,0.0,0.0
0.0,0.0,0.0,0.0
0.0,0.0,0.0,0.0
0.0,0.0,0.0,0.0
0.0,0.0,0.0,0.0
0.0,0.0,0.0,0.0
0.0,0.0,0.0,0.0
0.0,0.0,0.0,0.0
0.0,0.0,0.0,0.0
0.0,0.0,0.0,0.0
0.0,0.0,0.0,0.0
0.0,0.0,0.0,0.0
0.0,0.0,0.0,0.0
0.0,0.0,0.0,0.0
0.0,0.0,0.0,0.0
0.0,0.0,0.0,0.0
0.0,0.0,0.0,0.0
0.0,0.0,0.0,0.0
0.0,0.0,0.0,0.0
0.0,0.0,0.0,0.0
0.0,0.0,0.0,0.0
0.0,0.0,0.0,0.0
0.0,0.0,0.0,0.0
0.0,0.0,0.0,0.0
0.0,0.0,0.0,0.0
0.0,0.0,0.0,0.0
0.0,0.0,0.0,0.0
0.0,0.0,0.0,0.0
0.0,0.0,0.0,0.0
0.0,0.0,0.0,0.0
0.0,0.0,0.0,0.0
0.0,0.0,0.0,0.0
0.0,0.0,0.0,0.0
0.0,0.0,0.0,0.0
0.0,0.0,0.0,0.0
0.0,0.0,0.0,0.0
0.0,0.0,0.0,0.0
0.0,0.0,0.0,0.0
0.0,0.0,0.0,0.0
0.0,0.0,0.0,0.0
0.0,0.0,0.0,0.0
0.0,0.0,0.0,0.0
0.0,0.0,0.0,0.0
0.0,0.0,0.0,0.0
0.0,0.0,0.0,0.0
0.0,0.0,0.0,0.0
0.0,0.0,0.0,0.0
0.0,0.0,0.0,0.0
0.0,0.0,0.0,0.0
0.0,0.0,0.0,0.0
0.0,0.0,0.0,0.0
0.0,0.0,0.0,0.0
0.0,0.0,0.0,0.0
0.0,0.0,0.0,0.0
0.0,0.0,0.0,0.0
0.0,0.0,0.0,0.0
0.0,0.0,0.0,0.0
0.0,0.0,0.0,0.0
0.0,0.0,0.0,0.0
0.0,0.0,0.0,0.0
0.0,0.0,0.0,0.0
0.0,0.0,0.0,0.0
0.0,0.0,0.0,0.0
0.0,0.0,0.0,0.0
0.0,0.0,0.0,0.0
0.0,0.0,0.0,0.0
0.0,0.0,0.0,0.0
0.0,0.0,0.0,0.0
0.0,0.0,0.0,0.0
0.0,0.0,0.0,0.0
0.0,0.0,0.0,0.0
0.0,0.0,0.0,0.0
0.0,0.0,0.0,0.0
0.0,0.0,0.0,0.0
0.0,0.0,0.0,0.0
0.0,0.0,0.0,0.0
0.0,0.0,0.0,0.0
0.0,0.0,0.0,0.0
0.0,0.0,0.0,0.0
0.0,0.0,0.0,0.0
0.0,0.0,0.0,0.0
0.0,0.0,0.0,0.0
0.0,0.0,0.0,0.0
0.0,0.0,0.0,0.0
0.0,0.0,0.0,0.0
0.0,0.0,0.0,0.0
0.0,0.0,0.0,0.0
0.0,0.0,0.0,0.0
0.0,0.0,0.0,0.0
0.0,0.0,0.0,0.0
0.0,0.0,0.0,0.0
0.0,0.0,0.0,0.0
0.0,0.0,0.0,0.0
0.0,0.0,0.0,0.0
0.0,0.0,0.0,0.0
0.0,0.0,0.0,0.0
0.0,0.0,0.0,0.0
0.0,0.0,0.0,0.0
0.0,0.0,0.0,0.0
0.0,0.0,0.0,0.0
0.0,0.0,0.0,0.0
0.0,0.0,0.0,0.0
0.0,0.0,0.0,0.0
0.0,0.0,0.0,0.0
0.0,0.0,0.0,0.0
0.0,0.0,0.0,0.0
0.0,0.0,0.0,0.0
0.0,0.0,0.0,0.0
0.0,0.0,0.0,0.0
0.0,0.0,0.0,0.0
0.0,0.0,0.0,0.0
0.0,0.0,0.0,0.0
0.0,0.0,0.0,0.0
0.0,0.0,0.0,0.0
0.0,0.0,0.0,0.0
0.0,0.0,0.0,0.0
0.0,0.0,0.0,0.0
0.0,0.0,0.0,0.0
0.0,0.0,0.0,0.0
0.0,0.0,0.0,0.0
0.0,0.0,0.0,0.0
0.0,0.0,0.0,0.0
0.0,0.0,0.0,0.0
0.0,0.0,0.0,0.0
0.0,0.0,0.0,0.0
0.0,0.0,0.0,0.0
0.0,0.0,0.0,0.0
0.0,0.0,0.0,0.0
0.0,0.0,0.0,0.0
0.0,0.0,0.0,0.0
0.0,0.0,0.0,0.0
0.0,0.0,0.0,0.0
0.0,0.0,0.0,0.0
0.0,0.0,0.0,0.0
0.0,0.0,0.0,0.0
0.0,0.0,0.0,0.0
0.0,0.0,0.0,0.0
0.0,0.0,0.0,0.0
0.0,0.0,0.0,0.0
0.0,0.0,0.0,0.0
0.0,0.0,0.0,0.0
0.0,0.0,0.0,0.0
0.0,0.0,0.0,0.0
0.0,0.0,0.0,0.0
0.0,0.0,0.0,0.0
0.0,0.0,0.0,0.0
0.0,0.0,0.0,0.0
0.0,0.0,0.0,0.0
0.0,0.0,0.0,0.0
0.0,0.0,0.0,0.0
0.0,0.0,0.0,0.0
0.0,0.0,0.0,0.0
0.0,0.0,0.0,0.0
0.0,0.0,0.0,0.0
0.0,0.0,0.0,0.0
0.0,0.0,0.0,0.0
0.0,0.0,0.0,0.0
0.0,0.0,0.0,0.0
0.0,0.0,0.0,0.0
0.0,0.0,0.0,0.0
0.0,0.0,0.0,0.0
0.0,0.0,0.0,0.0
