track,note,velocity,time
0,50,101,42
0,50,101,50
0,50,0,26
0,57,101,20
0,50,0,30
0,57,0,8
0,50,101,10
0,57,101,2
0,50,0,8
0,57,0,2
0,50,101,5
0,50,101,0
0,50,0,2
0,50,0,2
0,55,101,5
0,50,101,0
0,55,0,2
0,50,0,2
0,50,101,1
0,55,101,2
0,50,0,5
0,55,0,0
0,50,101,2
0,50,101,2
0,50,0,5
0,50,0,2
0,59,101,3
0,50,101,0
0,59,0,7
0,50,0,0
0,50,101,1
0,59,101,2
0,50,0,4
0,59,0,0
0,50,101,7
0,50,101,2
0,50,0,2
0,50,0,2
0,57,101,4
0,50,101,2
0,57,0,2
0,50,0,2
0,50,101,5
0,57,101,2
0,50,0,1
0,57,0,1
0,50,101,2
0,50,101,2
0,50,0,6
0,50,0,1
0,55,101,2
0,50,101,2
0,55,0,6
0,50,0,1
0,50,101,2
0,55,101,2
0,50,0,5
0,55,0,1
0,50,101,1
0,50,101,2
0,50,0,1
0,50,101,4
0,50,0,2
0,60,101,2
0,50,0,1
0,60,0,1
0,50,101,10
0,60,101,0
0,50,0,2
0,60,0,0
0,50,101,1
0,50,101,2
0,50,0,5
0,50,0,0
0,59,101,1
0,50,101,2
0,59,0,5
0,50,0,0
0,50,101,1
0,59,101,2
0,50,0,7
0,59,0,1
0,50,101,3
0,50,101,1
0,50,0,2
0,50,0,2
0,57,101,5
0,50,101,2
0,57,0,1
0,50,0,2
0,50,101,2
0,57,101,0
0,50,0,4
0,57,0,2
0,50,101,3
0,50,101,2
0,50,0,2
0,50,0,2
0,55,101,5
0,50,101,0
0,55,0,3
0,50,0,2
0,50,101,1
0,55,101,2
0,50,0,21
0,55,0,2
0,50,101,8
0,50,101,2
0,50,0,19
0,50,0,2
0,57,101,8
0,50,101,2
0,57,0,9
0,50,0,2
0,50,101,7
0,57,101,2
0,50,0,5
0,57,0,0
0,50,101,1
0,42,101,0
0,50,101,2
0,42,0,3
0,50,0,0
0,50,101,0
0,50,0,4
0,57,101,3
0,42,101,0
0,42,0,2
0,50,0,3
0,57,0,6
0,50,101,2
0,42,101,0
0,57,101,2
0,42,0,1
0,50,0,3
0,57,0,2
0,50,101,4
0,42,101,0
0,50,101,0
0,42,0,2
0,50,0,1
0,50,0,2
0,55,101,4
0,50,101,2
0,55,0,5
0,50,0,2
0,50,101,3
0,42,101,0
0,55,101,2
0,42,0,2
0,50,0,1
0,55,0,2
0,50,101,5
0,42,101,0
0,50,101,2
0,42,0,2
0,50,0,4
0,50,0,2
0,59,101,3
0,50,101,2
0,59,0,1
0,50,0,2
0,50,101,3
0,59,101,0
0,50,0,5
0,59,0,1
0,50,101,8
0,42,101,0
0,50,101,2
0,42,0,2
0,50,0,6
0,50,0,2
0,57,101,7
0,42,101,0
0,50,101,2
0,42,0,1
0,57,0,5
0,50,0,1
0,50,101,2
0,42,101,0
0,57,101,2
0,42,0,4
0,50,0,12
0,57,0,2
0,50,101,6
0,50,101,2
0,50,0,4
0,50,0,2
0,55,101,3
0,42,101,0
0,50,101,2
0,42,0,2
0,55,0,3
0,50,0,2
0,50,101,6
0,42,101,0
0,55,101,1
0,42,0,2
0,50,0,2
0,55,0,2
0,50,101,5
0,42,101,0
0,50,101,0
0,42,0,0
0,50,0,4
0,50,101,4
0,50,0,26
0,60,101,3
0,42,101,0
0,42,0,4
0,50,0,6
0,60,0,8
0,50,101,4
0,42,101,0
0,60,101,2
0,42,0,2
0,50,0,2
0,60,0,2
0,50,101,6
0,42,101,0
0,50,101,2
0,42,0,1
0,50,0,2
0,50,0,2
0,59,101,5
0,38,101,0
0,42,101,0
0,50,101,2
0,38,0,1
0,42,0,0
0,59,0,1
0,50,0,2
0,50,101,4
0,42,101,0
0,59,101,0
0,42,0,2
0,50,0,1
0,59,0,2
0,50,101,4
0,38,101,0
0,42,101,0
0,50,101,2
0,38,0,1
0,42,0,0
0,50,0,1
0,50,0,2
0,57,101,4
0,47,101,0
0,50,101,2
0,47,0,1
0,57,0,7
0,50,0,2
0,50,101,4
0,47,101,0
0,57,101,2
0,47,0,1
0,50,0,1
0,57,0,1
0,50,101,3
0,47,101,0
0,50,101,0
0,47,0,0
0,50,0,1
0,50,0,2
0,55,101,4
0,42,101,0
0,50,101,2
0,42,0,1
0,55,0,1
0,50,0,2
0,50,101,4
0,45,101,0
0,55,101,2
0,45,0,6
0,50,0,9
0,55,0,2
0,50,101,4
0,42,101,0
0,50,101,0
0,42,0,2
0,50,0,3
0,50,0,2
0,57,101,6
0,43,101,0
0,50,101,0
0,43,0,7
0,57,0,3
0,50,0,2
0,50,101,4
0,42,101,0
0,57,101,2
0,42,0,2
0,42,101,3
0,50,0,3
0,57,0,1
0,50,101,1
0,36,101,0
0,50,101,2
0,43,101,1
0,71,101,3
0,67,101,1
0,62,101,1
0,36,0,0
0,50,0,0
0,50,101,4
0,50,0,3
0,57,101,2
0,42,101,0
0,42,0,4
0,50,0,0
0,57,0,1
0,50,101,4
0,42,101,0
0,57,101,2
0,42,0,2
0,50,0,7
0,57,0,2
0,50,101,8
0,36,101,0
0,42,101,0
0,50,101,2
0,42,0,7
0,36,0,10
0,50,0,1
0,50,0,2
0,55,101,4
0,50,101,0
0,55,0,1
0,50,0,2
0,50,101,4
0,42,101,0
0,55,101,2
0,42,0,0
0,50,0,1
0,55,0,2
0,50,101,3
0,50,101,2
0,50,0,1
0,50,0,2
0,59,101,4
0,36,101,0
0,50,101,0
0,66,101,1
0,36,0,3
0,59,0,1
0,50,0,2
0,50,101,4
0,59,101,0
0,50,0,1
0,59,0,2
0,50,101,4
0,42,101,0
0,50,101,2
0,42,0,1
0,50,0,10
0,50,0,2
0,57,101,7
0,42,101,0
0,50,101,2
0,42,0,2
0,57,0,1
0,50,0,1
0,50,101,5
0,36,101,0
0,38,101,0
0,42,101,0
0,57,101,2
0,42,0,5
0,36,0,3
0,38,0,0
0,50,0,2
0,57,0,2
0,50,101,5
0,50,101,2
0,50,0,3
0,50,0,2
0,55,101,1
0,42,101,0
0,50,101,2
0,42,0,3
0,55,0,6
0,50,0,1
0,50,101,2
0,55,101,2
0,50,0,5
0,43,101,0
0,55,0,2
0,50,101,2
0,36,101,0
0,60,101,2
0,64,101,0
0,50,101,0
0,36,0,3
0,50,0,0
0,50,101,4
0,50,0,2
0,60,101,4
0,42,101,0
0,42,0,4
0,50,0,2
0,60,0,3
0,50,101,6
0,42,101,0
0,60,101,0
0,42,0,2
0,50,0,4
0,60,0,2
0,50,101,7
0,36,101,0
0,38,101,0
0,42,101,0
0,50,101,2
0,42,0,2
0,36,0,5
0,38,0,0
0,50,0,4
0,50,0,2
0,59,101,1
0,50,101,2
0,59,0,4
0,50,0,0
0,50,101,1
0,42,101,0
0,59,101,2
0,42,0,2
0,50,0,4
0,59,0,1
0,50,101,2
0,50,101,2
0,66,101,4
0,50,0,1
0,50,0,1
0,57,101,2
0,36,101,0
0,38,101,0
0,62,101,2
0,50,101,0
0,36,0,1
0,38,0,0
0,57,0,5
0,50,0,0
0,50,101,8
0,38,101,0
0,57,101,2
0,38,0,2
0,50,0,5
0,57,0,2
0,50,101,2
0,42,101,0
0,50,101,2
0,42,0,2
0,50,0,2
0,50,0,2
0,55,101,5
0,42,101,0
0,50,101,2
0,42,0,1
0,55,0,8
0,50,0,2
0,50,101,4
0,36,101,0
0,38,101,0
0,42,101,0
0,55,101,2
0,42,0,7
0,36,0,2
0,38,0,0
0,50,0,8
0,55,0,2
0,50,101,5
0,50,101,0
0,50,0,2
0,50,0,1
0,57,101,2
0,42,101,0
0,50,101,2
0,42,0,1
0,57,0,12
0,50,0,1
0,50,101,8
0,57,101,1
0,42,101,11
0,50,0,9
0,57,0,2
0,67,101,6
0,43,101,1
0,50,101,1
0,36,101,0
0,50,101,2
0,36,0,6
0,50,0,5
0,50,101,1
0,50,0,2
0,57,101,2
0,42,101,0
0,42,0,4
0,50,0,26
0,57,0,4
0,50,101,7
0,42,101,0
0,57,101,2
0,42,0,2
0,50,0,2
0,57,0,2
0,50,101,5
0,36,101,0
0,38,101,0
0,42,101,0
0,50,101,2
0,42,0,5
0,36,0,2
0,38,0,0
0,50,0,1
0,50,0,2
0,55,101,3
0,50,101,2
0,55,0,9
0,50,0,2
0,50,101,2
0,42,101,0
0,55,101,2
0,42,0,4
0,50,0,4
0,55,0,2
0,50,101,1
0,50,101,2
0,50,0,1
0,50,0,2
0,59,101,4
0,36,101,0
0,38,101,0
0,50,101,2
0,36,0,1
0,38,0,0
0,66,101,2
0,59,0,6
0,50,0,1
0,50,101,2
0,38,101,0
0,59,101,2
0,38,0,2
0,50,0,3
0,59,0,0
0,50,101,1
0,42,101,0
0,50,101,2
0,42,0,2
0,50,0,6
0,50,0,1
0,57,101,8
0,42,101,0
0,50,101,2
0,42,0,0
0,57,0,1
0,50,0,2
0,50,101,4
0,36,101,0
0,38,101,0
0,42,101,0
0,57,101,2
0,42,0,5
0,36,0,2
0,38,0,0
0,50,0,7
0,57,0,2
0,50,101,8
0,50,101,2
0,50,0,2
0,50,0,2
0,55,101,5
0,42,101,0
0,50,101,0
0,42,0,0
0,55,0,2
0,50,0,2
0,43,0,4
0,50,101,4
0,55,101,2
0,50,0,2
0,55,0,2
0,50,101,6
0,43,101,0
0,36,101,0
0,50,101,2
0,64,101,1
0,60,101,0
0,36,0,1
0,50,0,1
0,50,101,4
0,50,0,1
0,43,0,0
0,60,101,3
0,43,101,0
0,42,101,0
0,42,0,4
0,50,0,4
0,60,0,4
0,43,0,0
0,50,101,7
0,43,101,0
0,42,101,0
0,60,101,2
0,42,0,2
0,50,0,1
0,43,0,0
0,60,0,2
0,50,101,4
0,43,101,0
0,36,101,0
0,38,101,0
0,42,101,0
0,50,101,2
0,42,0,1
0,36,0,1
0,38,0,0
0,50,0,6
0,43,0,0
0,50,0,1
0,59,101,2
0,55,101,0
0,50,101,2
0,59,0,10
0,50,0,2
0,50,101,6
0,42,101,0
0,59,101,0
0,42,0,0
0,55,0,5
0,50,0,1
0,59,0,2
0,50,101,1
0,55,101,0
0,50,101,2
0,50,0,2
0,55,0,0
0,50,0,2
0,57,101,5
0,55,101,0
0,36,101,0
0,38,101,0
0,50,101,2
0,36,0,0
0,38,0,0
0,66,101,3
0,57,0,6
0,55,0,0
0,50,0,1
0,50,101,2
0,54,101,0
0,38,101,0
0,57,101,2
0,38,0,1
0,50,0,3
0,54,0,0
0,57,0,2
0,50,101,5
0,48,101,0
0,38,101,0
0,50,101,2
0,38,0,6
0,50,0,2
0,48,0,0
0,50,0,2
0,55,101,6
0,50,101,0
0,50,101,1
0,55,0,12
0,50,0,0
0,50,0,1
0,50,101,2
0,48,101,0
0,36,101,0
0,38,101,0
0,47,101,0
0,55,101,2
0,36,0,7
0,38,0,0
0,47,0,0
0,50,0,4
0,48,0,0
0,55,0,2
0,50,101,2
0,47,101,0
0,50,101,2
0,50,0,2
0,47,0,0
0,50,0,1
0,57,101,5
0,45,101,0
0,43,101,0
0,50,101,2
0,43,0,0
0,57,0,4
0,45,0,0
0,50,0,1
0,43,101,0
0,57,101,2
0,43,0,5
0,57,0,2
0,62,101,1
0,43,101,0
0,36,101,0
0,38,101,0
0,24,101,0
0,67,101,1
0,50,101,1
0,50,101,3
0,24,0,4
0,36,0,10
0,38,0,0
0,50,0,6
0,46,101,35
0,46,0,9
0,43,0,12
0,43,101,27
0,36,101,0
0,24,101,0
0,24,0,0
0,36,0,10
0,42,101,16
0,42,0,9
0,36,101,17
0,38,101,0
0,24,101,0
0,36,0,4
0,38,0,0
0,24,0,5
0,38,101,39
0,38,0,4
0,24,101,23
0,42,101,0
0,24,0,4
0,42,0,1
0,36,101,39
0,36,0,4
0,59,101,6
0,36,101,1
0,38,101,0
0,24,101,0
0,24,0,9
0,36,0,7
0,38,0,0
0,43,0,44
0,42,101,20
0,42,0,9
0,64,101,28
0,69,101,0
0,72,101,0
0,57,101,1
0,36,101,2
0,24,101,0
0,33,101,2
0,24,0,7
0,36,0,10
0,46,101,77
0,46,0,9
0,36,101,87
0,38,101,0
0,24,101,0
0,24,0,9
0,36,0,10
0,38,0,0
0,42,101,77
0,42,0,9
0,36,101,87
0,38,101,0
0,24,101,0
0,36,0,4
0,38,0,0
0,24,0,5
0,38,101,16
0,38,0,4
0,42,101,6
0,42,0,9
0,36,101,17
0,36,0,4
0,28,101,1
0,52,101,7
0,36,101,3
0,38,101,0
0,24,101,0
0,33,101,5
0,24,0,4
0,36,0,10
0,38,0,0
0,28,101,1
0,42,101,47
0,42,0,0
0,31,101,8
0,50,101,2
0,36,101,2
0,24,101,0
0,71,101,3
0,67,101,4
0,62,101,0
0,24,0,2
0,36,0,4
0,42,101,56
0,42,0,4
0,42,101,44
0,42,0,4
0,36,101,44
0,38,101,0
0,24,101,0
0,24,0,4
0,36,0,15
0,38,0,0
0,24,101,29
0,24,0,4
0,42,101,44
0,42,0,4
0,24,101,44
0,24,0,4
0,36,101,44
0,38,101,0
0,24,101,0
0,36,0,4
0,38,0,0
0,24,0,0
0,38,101,44
0,24,101,0
0,38,0,4
0,24,0,0
0,42,101,44
0,42,0,4
0,36,101,14
0,42,101,0
0,36,0,4
0,42,0,0
0,59,101,11
0,31,101,7
0,36,101,2
0,38,101,0
0,24,101,0
0,24,0,4
0,36,0,15
0,38,0,0
0,24,101,5
0,24,0,4
0,42,101,44
0,42,0,4
0,24,101,5
0,24,0,0
0,69,101,13
0,72,101,4
0,64,101,4
0,57,101,5
0,33,101,0
0,36,101,6
0,24,101,0
0,24,0,4
0,36,0,15
0,24,101,29
0,24,0,4
0,42,101,44
0,42,0,4
0,24,101,44
0,24,0,4
0,36,101,44
0,38,101,0
0,24,101,0
0,24,0,4
0,36,0,15
0,38,0,0
0,24,101,29
0,24,0,4
0,42,101,44
0,42,0,4
0,24,101,44
0,24,0,4
0,36,101,44
0,38,101,0
0,24,101,0
0,36,0,4
0,38,0,0
0,24,0,0
0,38,101,44
0,24,101,0
0,38,0,4
0,24,0,0
0,42,101,44
0,42,0,4
0,36,101,22
0,42,101,0
0,28,101,2
0,36,0,2
0,42,0,0
0,64,101,18
0,36,101,8
0,38,101,0
0,24,101,0
0,33,101,1
0,24,0,3
0,36,0,15
0,38,0,0
0,24,101,29
0,28,101,2
0,24,0,0
0,42,101,44
0,42,0,4
0,24,101,31
0,24,0,4
0,62,101,14
0,72,101,5
0,69,101,1
0,65,101,0
0,62,101,0
0,36,101,3
0,24,101,0
0,24,0,4
0,38,101,2
0,36,0,13
0,24,101,29
0,24,0,4
0,42,101,44
0,42,0,4
0,42,101,44
0,42,0,4
0,36,101,44
0,38,101,0
0,24,101,0
0,24,0,4
0,36,0,15
0,38,0,0
0,24,101,29
0,24,0,4
0,42,101,44
0,42,0,4
0,24,101,30
0,24,0,4
0,57,101,39
0,36,101,5
0,38,101,0
0,24,101,0
0,36,0,4
0,38,0,0
0,24,0,0
0,38,101,44
0,24,101,0
0,38,0,4
0,24,0,0
0,42,101,44
0,42,0,4
0,36,101,44
0,42,101,0
0,36,0,4
0,42,0,0
0,36,101,44
0,38,101,0
0,24,101,0
0,24,0,4
0,36,0,0
0,38,0,0
0,24,101,29
0,24,0,4
0,38,101,14
0,42,101,14
0,42,0,4
0,24,101,8
0,24,0,4
0,65,101,16
0,71,101,3
0,67,101,4
0,62,101,1
0,31,101,2
0,55,101,2
0,36,101,12
0,24,101,0
0,24,0,4
0,36,0,15
0,24,101,29
0,24,0,4
0,42,101,44
0,42,0,4
0,24,101,44
0,24,0,4
0,36,101,44
0,38,101,0
0,24,101,0
0,24,0,4
0,36,0,15
0,38,0,0
0,24,101,29
0,24,0,4
0,42,101,44
0,42,0,4
0,24,101,44
0,24,0,4
0,33,101,14
0,50,101,11
0,36,101,7
0,38,101,0
0,24,101,0
0,36,0,4
0,38,0,0
0,24,0,0
0,38,101,44
0,24,101,0
0,38,0,4
0,24,0,0
