track,note,velocity,time
3,70,77,0
3,74,86,0
3,79,78,0
3,74,0,51
3,70,0,0
3,79,0,5
3,69,101,154
3,74,101,0
3,77,101,0
3,77,0,120
3,69,0,2
3,74,0,16
3,70,84,12
3,74,95,0
3,79,95,0
3,70,0,35
3,74,0,4
3,79,0,3
3,74,100,158
3,77,100,0
3,82,100,0
3,74,0,119
3,82,0,9
3,77,0,0
3,72,100,32
3,77,100,0
3,81,100,0
3,81,0,34
3,77,0,0
3,72,0,2
3,69,100,84
3,74,100,0
3,77,100,0
3,74,0,28
3,69,0,3
3,77,0,3
3,70,100,86
3,74,100,0
3,79,100,0
3,74,0,51
3,70,0,0
3,79,0,5
3,69,100,154
3,74,100,0
3,77,100,0
3,77,0,120
3,69,0,2
3,74,0,16
3,70,100,12
3,74,100,0
3,79,100,0
3,70,0,35
3,74,0,4
3,79,0,3
3,74,100,158
3,77,100,0
3,82,100,0
3,74,0,119
3,82,0,9
3,77,0,0
3,72,100,32
3,77,100,0
3,81,100,0
3,81,0,34
3,77,0,0
3,72,0,2
3,69,100,84
3,74,100,0
3,77,100,0
3,74,0,28
3,69,0,3
3,77,0,3
3,69,100,86
3,78,100,0
3,74,100,0
3,78,0,188
3,69,0,0
3,74,0,1
3,69,100,176
3,73,100,0
3,76,100,0
3,73,0,12
3,76,0,2
3,69,0,1
3,76,100,26
3,73,100,1
3,69,100,0
3,73,0,11
3,69,0,3
3,76,0,1
3,76,100,19
3,73,100,0
3,69,100,2
3,73,0,15
3,76,0,2
3,69,0,1
3,69,100,26
3,74,100,0
3,78,100,3
3,74,0,180
3,69,0,1
3,78,0,4
3,69,100,168
3,73,100,0
3,76,100,1
3,73,0,12
3,76,0,4
3,69,0,0
3,69,100,28
3,76,100,0
3,73,100,0
3,73,0,12
3,76,0,4
3,69,0,4
3,76,100,10
3,73,100,1
3,69,100,2
3,73,0,16
3,76,0,1
3,69,0,1
3,69,100,21
3,74,100,0
3,78,100,0
3,74,0,183
3,69,0,1
3,78,0,1
3,73,100,176
3,69,100,0
3,76,100,0
3,73,0,12
3,76,0,2
3,69,0,1
3,76,100,27
3,73,100,0
3,69,100,0
3,73,0,10
3,76,0,5
3,69,0,2
3,76,100,17
3,73,100,0
3,69,100,3
3,73,0,12
3,69,0,2
3,76,0,0
3,69,100,30
3,74,100,2
3,78,100,0
3,69,0,126
3,74,0,2
3,78,0,1
3,70,100,345
3,74,100,0
3,79,100,0
3,74,0,51
3,70,0,0
3,79,0,5
3,69,100,154
3,74,100,0
3,77,100,0
3,77,0,120
3,69,0,2
3,74,0,16
3,70,100,12
3,74,100,0
3,79,100,0
3,70,0,35
3,74,0,4
3,79,0,3
3,74,100,158
3,77,100,0
3,82,100,0
3,74,0,119
3,82,0,9
3,77,0,0
3,72,100,32
3,77,100,0
3,81,100,0
3,81,0,34
3,77,0,0
3,72,0,2
3,69,100,84
3,74,100,0
3,77,100,0
3,74,0,28
3,69,0,3
3,77,0,3
3,70,100,86
3,74,100,0
3,79,100,0
3,74,0,51
3,70,0,0
3,79,0,5
3,69,100,154
3,74,100,0
3,77,100,0
3,77,0,120
3,69,0,2
3,74,0,16
3,70,100,12
3,74,100,0
3,79,100,0
3,70,0,35
3,74,0,4
3,79,0,3
3,74,100,158
3,77,100,0
3,82,100,0
3,74,0,119
3,82,0,9
3,77,0,0
3,72,100,32
3,77,100,0
3,81,100,0
3,81,0,34
3,77,0,0
3,72,0,2
3,69,100,84
3,74,100,0
3,77,100,0
3,74,0,28
3,69,0,3
3,77,0,3
3,69,100,86
3,78,100,0
3,74,100,0
3,78,0,188
3,69,0,0
3,74,0,1
3,69,100,176
3,73,100,0
3,76,100,0
3,73,0,12
3,76,0,2
3,69,0,1
3,76,100,26
3,73,100,1
3,69,100,0
3,73,0,11
3,69,0,3
3,76,0,1
3,76,100,19
3,73,100,0
3,69,100,2
3,73,0,15
3,76,0,2
3,69,0,1
3,69,100,26
3,74,100,0
3,78,100,3
3,74,0,180
3,69,0,1
3,78,0,4
3,69,100,168
3,73,100,0
3,76,100,1
3,73,0,12
3,76,0,4
3,69,0,0
3,69,100,28
3,76,100,0
3,73,100,0
3,73,0,12
3,76,0,4
3,69,0,4
3,76,100,10
3,73,100,1
3,69,100,2
3,73,0,16
3,76,0,1
3,69,0,1
3,69,100,21
3,74,100,0
3,78,100,0
3,74,0,183
3,69,0,1
3,78,0,1
3,73,100,176
3,69,100,0
3,76,100,0
3,73,0,12
3,76,0,2
3,69,0,1
3,76,100,27
3,73,100,0
3,69,100,0
3,73,0,10
3,76,0,5
3,69,0,2
3,76,100,17
3,73,100,0
3,69,100,3
3,73,0,12
3,69,0,2
3,76,0,0
3,69,100,30
3,74,100,2
3,78,100,0
3,78,100,0
3,69,0,118
3,74,0,2
3,78,0,0
3,78,0,9
3,73,100,105
3,77,100,0
3,82,100,0
3,82,0,30
3,77,0,0
3,73,0,0
3,77,100,50
3,73,100,0
3,82,100,0
3,82,0,30
3,73,0,0
3,77,0,0
3,73,100,50
3,77,100,0
3,82,100,0
3,82,0,30
3,77,0,0
3,73,0,0
3,82,100,64
3,73,100,0
3,77,100,1
3,77,0,77
3,73,0,2
3,82,0,0
3,72,100,38
3,77,100,1
3,81,100,5
3,81,0,15
3,77,0,0
3,72,0,3
3,81,100,47
3,72,100,0
3,77,100,0
3,77,0,78
3,81,0,1
3,72,0,5
3,76,100,32
3,72,100,2
3,79,100,4
3,79,0,10
3,72,0,1
3,76,0,1
3,81,100,24
3,77,100,3
3,72,100,1
3,77,0,22
3,72,0,5
3,81,0,1
3,72,100,48
3,76,100,0
3,79,100,0
3,76,0,12
3,79,0,4
3,72,0,0
3,81,100,27
3,77,100,0
3,72,100,2
3,77,0,24
3,72,0,2
3,81,0,5
3,72,100,83
3,81,100,1
3,77,100,0
3,77,0,28
3,81,0,7
3,72,0,3
3,82,100,90
3,73,100,0
3,77,100,1
3,73,0,32
3,77,0,1
3,82,0,7
3,82,100,33
3,73,100,2
3,77,100,2
3,73,0,31
3,77,0,2
3,82,0,6
3,82,100,40
3,73,100,1
3,77,100,1
3,73,0,28
3,77,0,1
3,82,0,4
3,82,100,39
3,73,100,0
3,77,100,2
3,73,0,75
3,82,0,5
3,77,0,1
3,77,100,46
3,81,100,0
3,72,100,1
3,77,0,21
3,72,0,1
3,81,0,1
3,81,100,55
3,77,100,0
3,72,100,0
3,77,0,77
3,81,0,0
3,72,0,4
3,76,100,33
3,79,100,2
3,72,100,1
3,72,0,12
3,79,0,0
3,76,0,1
3,81,100,24
3,77,100,2
3,72,100,3
3,77,0,22
3,72,0,3
3,81,0,1
3,76,100,51
3,72,100,1
3,79,100,0
3,79,0,13
3,76,0,0
3,72,0,3
3,81,100,25
3,77,100,1
3,72,100,1
3,77,0,21
3,72,0,4
3,81,0,6
3,72,100,74
3,81,100,0
3,77,100,1
3,77,0,32
3,81,0,6
3,72,0,2
3,73,100,84
3,82,100,0
3,77,100,2
3,73,0,31
3,77,0,2
3,82,0,5
3,82,100,37
3,77,100,2
3,73,100,1
3,73,0,31
3,77,0,2
3,82,0,5
3,82,100,47
3,77,100,1
3,73,100,2
3,73,0,29
3,77,0,0
3,82,0,6
3,82,100,38
3,73,100,2
3,77,100,0
3,73,0,84
3,82,0,2
3,77,0,2
3,81,100,37
3,72,100,0
3,77,100,1
3,77,0,21
3,81,0,3
3,72,0,1
3,81,100,47
3,77,100,2
3,72,100,0
3,77,0,80
3,81,0,1
3,72,0,2
3,76,100,31
3,72,100,3
3,79,100,3
3,79,0,11
3,72,0,2
3,76,0,1
3,81,100,25
3,72,100,2
3,77,100,2
3,77,0,25
3,72,0,5
3,81,0,0
3,72,100,50
3,76,100,0
3,79,100,1
3,79,0,14
3,76,0,0
3,72,0,2
3,81,100,26
3,77,100,1
3,72,100,0
3,77,0,22
3,72,0,6
3,81,0,4
3,81,100,81
3,72,100,0
3,77,100,0
3,77,0,36
3,72,0,1
3,81,0,5
3,73,100,77
3,70,100,0
3,77,100,0
3,77,0,47
3,70,0,0
3,73,0,0
3,75,100,33
3,66,100,0
3,70,100,0
3,70,0,47
3,66,0,0
3,75,0,0
3,73,100,33
3,70,100,0
3,65,100,0
3,65,0,47
3,70,0,0
3,73,0,0
3,70,100,33
3,77,100,0
3,73,100,0
3,73,0,47
3,77,0,0
3,70,0,0
3,66,100,33
3,70,100,0
3,75,100,0
3,75,0,47
3,70,0,0
3,66,0,0
3,70,100,33
3,73,100,0
3,65,100,0
3,65,0,47
3,73,0,0
3,70,0,0
3,65,100,33
3,69,100,0
3,72,100,0
3,72,0,120
3,69,0,0
3,65,0,0
3,65,100,120
3,65,0,39
3,68,100,1
3,68,0,39
3,72,100,1
3,72,0,39
3,75,100,1
3,75,0,39
3,79,100,1
3,79,0,39
3,75,100,1
3,75,0,39
3,67,100,1
3,74,100,0
3,74,0,36
3,67,0,0
3,67,100,84
3,74,100,0
3,74,0,36
3,67,0,0
3,67,100,84
3,74,100,0
3,74,0,36
3,67,0,0
3,67,100,84
3,74,100,0
3,74,0,36
3,67,0,0
3,67,100,84
3,74,100,0
3,74,0,36
3,67,0,0
3,74,100,84
3,67,100,0
3,67,0,36
3,74,0,0
3,74,100,84
3,67,100,0
3,67,0,36
3,74,0,0
3,74,100,84
3,67,100,0
3,67,0,36
3,74,0,0
3,67,100,84
3,71,100,0
3,74,100,0
3,71,0,202
3,74,0,2
3,67,0,1
3,67,100,35
3,70,100,0
3,75,100,0
3,75,0,200
3,67,0,2
3,70,0,2
3,65,100,36
3,69,100,0
3,72,100,0
3,69,0,198
3,65,0,5
3,72,0,3
3,65,100,34
3,70,100,0
3,74,100,0
3,70,0,95
3,65,0,1
3,74,0,4
3,70,100,20
3,74,100,0
3,77,100,0
3,70,0,66
3,74,0,12
3,77,0,2
3,72,100,40
3,77,100,0
3,81,100,0
3,77,0,27
3,72,0,4
3,81,0,3
3,71,100,86
3,76,100,0
3,79,100,0
3,76,0,39
3,71,0,0
3,79,0,2
3,67,100,79
3,71,100,0
3,76,100,0
3,67,0,175
3,71,0,2
3,76,0,10
3,71,67,53
3,76,75,0
3,79,75,0
3,71,0,83
3,76,0,5
3,79,0,5
3,72,71,27
3,76,81,0
3,81,83,0
3,81,0,36
3,76,0,0
3,72,0,5
3,65,81,79
3,69,83,0
3,74,83,0
3,74,0,480
3,69,0,0
3,65,0,0
3,67,21,0
3,70,44,0
3,74,62,0
3,74,0,480
3,70,0,0
3,67,0,0
3,67,58,0
3,70,67,0
3,75,69,0
3,75,0,480
3,70,0,0
3,67,0,0
3,67,66,0
3,72,70,0
3,76,81,0
3,76,0,480
3,72,0,0
3,67,0,0
3,69,63,0
3,72,75,0
3,77,81,0
3,77,0,480
3,72,0,0
3,69,0,0
3,69,63,0
3,74,75,0
3,78,73,0
3,78,0,480
3,74,0,0
3,69,0,0
3,71,73,0
3,74,83,0
3,78,71,0
3,78,0,480
3,74,0,0
3,71,0,0
3,71,66,0
3,74,77,0
3,79,83,0
3,62,83,328
3,62,0,24
3,71,0,8
3,74,0,0
3,79,0,0
3,67,86,6
3,71,95,2
3,74,91,0
3,62,91,34
3,74,0,5
3,67,0,1
3,71,0,1
3,62,0,12
3,62,95,20
3,72,75,4
3,65,84,0
3,69,81,2
3,62,0,311
3,65,0,41
3,69,0,5
3,62,89,1
3,72,0,5
3,62,0,19
3,67,77,11
3,71,86,0
3,74,89,0
3,71,0,21
3,67,0,3
3,74,0,1
3,62,83,14
3,62,0,18
3,64,91,24
3,67,83,4
3,71,93,0
3,64,0,328
3,64,89,32
3,71,0,6
3,67,0,1
3,64,0,15
3,67,84,13
3,71,86,0
3,74,84,0
3,71,0,25
3,74,0,1
3,67,0,10
3,62,86,4
3,62,0,21
3,71,89,19
3,67,89,0
3,62,95,0
3,62,0,480
3,67,0,0
3,71,0,0
3,78,102,40
3,78,0,26
3,79,101,34
3,79,0,26
3,76,95,34
3,76,0,26
3,78,90,34
3,78,0,26
3,74,95,34
3,74,0,31
3,76,98,29
3,76,0,30
3,68,100,30
3,72,100,0
3,63,83,328
3,63,0,15
3,72,0,17
3,68,0,0
3,68,86,6
3,72,95,2
3,75,91,0
3,68,0,23
3,75,0,2
3,72,0,0
3,63,91,9
3,63,0,19
3,63,95,20
3,73,75,4
3,66,84,0
3,70,81,2
3,63,0,311
3,66,0,41
3,70,0,5
3,63,89,1
3,73,0,5
3,63,0,19
3,68,77,11
3,72,86,0
3,75,89,0
3,72,0,21
3,68,0,3
3,75,0,1
3,63,83,14
3,63,0,18
3,65,91,24
3,68,83,4
3,72,93,0
3,65,0,328
3,65,89,32
3,72,0,6
3,68,0,1
3,65,0,15
3,68,84,13
3,72,86,0
3,75,84,0
3,72,0,25
3,75,0,1
3,68,0,10
3,63,86,4
3,63,0,21
3,72,89,19
3,68,89,0
3,63,95,0
3,63,0,480
3,68,0,0
3,72,0,0
3,79,64,23
3,80,71,14
3,79,0,12
3,80,0,26
3,79,100,23
3,79,0,36
3,75,100,30
3,75,0,32
3,75,100,60
3,77,100,18
3,75,0,9
3,78,100,9
3,77,0,9
3,78,0,20
3,77,100,31
3,77,0,31
3,73,100,17
3,69,100,326
3,69,0,8
3,73,0,26
3,76,100,3
3,73,100,0
3,73,0,6
3,76,0,1
3,69,100,30
3,69,0,5
3,73,100,34
3,69,100,1
3,76,100,0
3,73,0,359
3,76,0,1
3,69,0,0
3,69,100,1
3,69,0,7
3,76,100,29
3,73,100,0
3,73,0,6
3,76,0,0
3,69,100,25
3,69,0,6
3,69,100,41
3,74,100,0
3,77,100,0
3,77,0,360
3,74,0,0
3,69,0,0
3,69,100,5
3,69,0,7
3,74,100,33
3,77,100,0
3,77,0,7
3,74,0,2
3,69,100,21
3,69,0,7
3,70,100,38
3,74,100,0
3,77,100,0
3,77,0,360
3,74,0,0
3,70,0,0
3,70,100,10
3,70,0,6
3,74,100,31
3,77,100,0
3,77,0,5
3,74,0,1
3,70,100,21
3,70,0,5
3,70,100,41
3,75,100,0
3,79,100,0
3,70,100,357
3,79,0,3
3,70,0,0
3,75,0,0
3,70,0,4
3,75,100,33
3,79,100,0
3,79,0,7
3,75,0,0
3,70,100,30
3,70,0,6
3,72,100,40
3,76,100,0
3,79,100,0
3,79,0,360
3,76,0,0
3,72,0,0
3,72,100,5
3,72,0,7
3,76,100,31
3,79,100,1
3,79,0,6
3,76,0,1
3,72,100,26
3,72,0,6
3,72,100,42
3,77,100,0
3,81,100,0
3,81,0,360
3,77,0,0
3,72,0,0
3,72,100,2
3,72,0,8
3,77,100,27
3,81,100,0
3,81,0,7
3,77,0,1
3,72,100,26
3,72,0,6
3,74,100,43
3,78,100,0
3,81,100,0
3,81,0,360
3,78,0,0
3,74,0,0
3,74,100,2
3,74,0,7
3,78,100,30
3,81,100,1
3,78,0,5
3,81,0,1
3,74,100,27
3,74,0,6
3,74,100,41
3,79,100,0
3,83,100,0
3,83,0,360
3,79,0,0
3,74,0,0
3,74,100,0
3,74,0,7
3,79,100,34
3,83,100,1
3,79,0,4
3,83,0,1
3,74,100,22
3,74,0,7
3,74,100,44
3,79,100,0
3,83,100,0
3,83,0,360
3,79,0,0
3,74,0,0
3,74,100,160
3,79,100,0
3,83,100,0
3,74,100,0
3,74,0,40
3,74,0,0
3,79,0,0
3,83,0,0
3,74,100,40
3,79,100,0
3,83,100,0
3,83,0,40
3,79,0,0
3,74,0,0
3,74,100,40
3,79,100,0
3,83,100,0
3,83,0,40
3,79,0,0
3,74,0,0
3,74,100,40
3,79,100,0
3,83,100,0
3,83,0,40
3,79,0,0
3,74,0,0
3,74,100,40
3,79,100,0
3,83,100,0
3,83,0,40
3,79,0,0
3,74,0,0
3,74,100,40
3,78,100,0
3,81,100,0
3,81,0,40
3,78,0,0
3,74,0,0
3,74,100,40
3,79,100,0
3,83,100,0
3,83,0,40
3,79,0,0
3,74,0,0
3,74,100,40
3,79,100,0
