track,note,velocity,time
1,70,122,15280
1,70,124,96
1,68,124,4
1,70,120,0
1,73,106,0
1,70,94,0
1,75,124,180
1,73,118,0
1,75,126,0
1,73,114,0
1,75,120,0
1,75,126,96
1,75,126,96
1,73,126,0
1,75,124,0
1,73,106,0
1,70,112,0
1,70,118,384
1,70,122,96
1,68,124,480
1,70,114,0
1,70,122,0
1,73,126,0
1,75,122,0
1,73,114,0
1,75,122,0
1,73,116,0
1,75,120,0
1,75,124,0
1,75,124,0
1,73,124,0
1,75,124,0
1,73,106,0
1,70,114,0
1,80,126,0
1,70,126,0
1,70,126,96
1,80,124,20
1,70,126,0
1,70,126,96
1,75,126,288
1,73,110,0
1,75,126,0
1,73,112,0
1,75,126,0
1,73,112,0
1,75,126,0
1,73,114,0
1,75,126,0
1,73,124,0
1,75,126,0
1,73,104,0
1,70,112,0
1,80,126,192
1,70,126,0
1,70,124,96
1,80,122,12
1,70,122,0
1,70,126,96
1,75,126,188
1,73,114,0
1,75,126,0
1,73,106,0
1,75,124,0
1,73,108,0
1,75,120,0
1,73,110,0
1,75,124,0
1,73,114,0
1,75,124,192
1,75,126,192
1,73,118,192
1,70,114,0
1,70,126,2028
1,70,124,96
1,70,126,0
1,68,120,288
1,70,114,0
1,70,116,0
1,72,126,0
1,75,114,0
1,75,126,0
1,73,110,0
1,75,126,0
1,73,112,0
1,75,126,0
1,73,118,0
1,75,124,0
1,75,126,0
1,76,122,0
1,73,118,0
1,75,126,0
1,73,112,0
1,70,118,0
1,70,102,384
1,70,122,0
1,68,108,0
1,70,126,0
1,70,120,0
1,68,118,288
1,70,110,0
1,70,114,0
1,73,126,0
1,75,126,288
1,73,114,0
1,75,126,0
1,73,114,0
1,75,126,0
1,75,98,0
1,75,124,0
1,75,126,0
1,77,118,0
1,73,116,0
1,75,124,0
1,73,104,0
1,70,116,0
1,70,114,0
1,82,120,0
1,70,126,0
1,70,126,96
1,80,124,20
1,70,126,0
1,70,124,96
1,75,122,288
1,73,116,0
1,75,126,0
1,73,108,0
1,75,126,0
1,73,114,0
1,75,124,0
1,73,114,0
1,75,126,0
1,73,126,0
1,75,126,0
1,73,108,0
1,70,116,0
1,80,116,0
1,70,126,0
1,70,126,96
1,70,104,96
1,80,122,0
1,70,126,0
1,70,126,96
1,75,126,288
1,73,116,0
1,75,126,0
1,73,112,0
1,75,126,0
1,73,104,0
1,75,126,0
1,73,100,0
1,75,126,0
1,75,106,0
1,75,116,384
1,75,114,0
1,73,126,0
1,70,114,0
1,73,126,0
1,70,106,0
1,73,126,0
1,73,122,0
1,73,122,0
1,70,124,8
1,68,112,0
1,72,126,0
1,70,120,0
1,70,124,0
1,68,116,0
1,70,122,0
1,73,118,0
1,68,126,0
1,70,126,4
1,70,126,192
1,70,104,0
1,70,126,0
1,65,120,0
1,68,126,0
1,70,116,0
1,70,122,0
1,72,124,0
1,75,126,4
1,73,108,0
1,75,126,0
1,73,114,0
1,75,126,0
1,75,124,96
1,73,112,0
1,75,126,0
1,73,122,0
1,75,126,0
1,73,106,0
1,70,116,0
1,70,122,672
1,70,126,96
1,70,126,96
1,65,114,0
1,70,126,96
1,70,118,0
1,73,112,0
1,70,108,0
1,70,100,0
1,70,112,0
1,70,114,0
1,75,124,0
1,73,112,0
1,75,126,0
1,73,118,0
1,75,126,0
1,73,116,0
1,75,122,0
1,73,114,0
1,75,126,0
1,73,126,0
1,75,126,0
1,73,100,0
1,70,122,0
1,70,114,0
1,80,116,0
1,70,126,0
1,70,122,96
1,80,120,20
1,70,126,0
1,70,126,96
1,75,126,288
1,73,116,0
1,75,126,0
1,73,108,0
1,75,126,0
1,73,112,0
1,75,126,0
1,73,114,0
1,75,126,0
1,73,122,0
1,75,122,0
1,73,106,0
1,70,100,0
1,70,118,0
1,82,126,0
1,70,126,0
1,70,126,96
1,80,122,12
1,70,126,0
1,70,126,96
1,75,126,288
1,73,116,0
1,75,126,0
1,73,106,0
1,75,126,0
1,73,112,0
1,75,126,0
1,75,126,192
1,75,118,0
1,75,116,576
1,75,122,0
1,73,126,0
1,70,110,0
1,73,126,0
1,70,114,0
1,73,126,0
1,70,116,0
1,73,126,0
1,73,126,96
1,70,118,552
1,70,122,0
1,72,120,0
1,70,114,0
1,70,122,0
1,68,118,0
1,70,122,0
1,73,120,0
1,68,126,0
1,68,120,4
1,68,112,0
1,68,126,0
1,68,118,0
1,66,126,576
1,66,110,0
1,66,122,0
1,68,116,0
1,66,126,0
1,70,126,8052
1,82,112,0
1,70,126,0
1,70,126,96
1,80,126,8
1,70,126,0
1,70,126,96
1,75,126,288
1,73,116,0
1,75,126,0
1,73,110,0
1,75,126,0
1,73,112,0
1,75,100,0
1,73,112,20
1,75,126,0
1,73,122,0
1,75,126,0
1,73,110,0
1,70,126,0
1,70,126,0
1,82,120,0
1,70,126,0
1,70,126,96
1,82,126,288
1,80,126,0
1,76,126,36
1,73,112,0
1,70,118,0
1,75,126,96
1,73,110,0
1,75,126,0
1,75,126,192
1,73,110,0
1,75,126,0
1,73,102,0
1,75,126,0
1,73,102,0
1,75,126,0
1,73,126,0
1,75,126,0
1,70,124,0
1,70,114,4780
1,70,126,0
1,80,118,0
1,81,114,0
1,82,112,0
1,80,122,0
1,75,126,0
1,73,108,0
1,70,118,0
1,77,118,4016
1,77,126,0
1,80,122,0
1,81,108,4
1,82,108,0
1,80,126,0
1,75,126,0
1,73,108,0
1,70,116,0
1,70,116,4020
1,70,116,0
1,80,116,4
1,81,112,4
1,82,110,0
1,70,126,0
1,70,126,96
2,34,112,42176
2,34,108,4
2,34,112,824
2,34,108,12
2,34,108,1020
2,34,108,0
2,32,108,832
2,27,108,0
2,34,112,0
2,34,108,4
2,34,112,824
2,34,108,12
2,34,108,1020
2,34,108,0
2,32,108,832
2,27,108,0
2,34,112,0
2,34,108,4
2,34,112,824
2,34,108,12
2,34,108,1020
2,34,108,0
2,32,108,832
2,27,108,0
2,34,112,0
2,34,108,4
2,34,112,824
2,34,108,12
2,34,108,1020
2,34,108,0
2,27,110,448
2,32,110,232
2,27,110,232
2,32,110,224
2,27,110,228
2,30,110,240
2,29,110,24
2,27,110,20
2,34,112,172
2,34,108,4
2,34,112,824
2,34,108,12
2,34,108,1020
2,34,108,0
2,32,108,832
2,27,108,0
2,34,112,0
2,34,108,4
2,34,112,824
2,34,108,12
2,34,108,1020
2,34,108,0
2,32,108,832
2,27,108,0
2,34,112,0
2,34,108,4
2,34,112,824
2,34,108,12
2,34,108,1020
2,34,108,0
2,32,108,832
2,27,108,0
2,34,112,0
2,34,108,4
2,34,112,824
2,34,108,12
2,34,108,1020
2,34,108,0
2,32,108,832
2,27,108,0
2,34,112,0
2,34,108,4
2,34,112,824
2,34,108,12
2,34,108,1020
2,34,108,0
2,27,110,448
2,32,110,232
2,27,110,232
2,32,110,224
2,27,110,228
2,30,110,240
2,29,110,24
2,27,110,20
2,37,108,172
2,42,108,0
2,44,108,0
2,35,108,0
2,32,108,0
2,34,112,196
2,34,108,4
2,34,112,824
2,34,108,12
2,34,108,1020
2,34,108,0
2,32,108,832
2,27,108,0
2,34,112,0
2,34,108,4
2,34,112,824
2,34,108,12
2,34,108,1020
2,34,108,0
2,32,108,832
2,27,108,0
2,34,108,0
2,34,108,652
2,32,108,384
2,34,108,8
2,37,108,0
2,34,108,4
2,32,108,612
2,27,108,8
2,34,112,116
2,34,108,4
2,34,112,824
2,34,108,12
2,34,108,1020
2,34,108,0
2,32,108,832
2,27,108,0
2,34,112,0
2,34,108,4
2,34,112,824
2,34,108,12
2,34,108,1020
2,34,108,0
2,32,108,832
2,27,108,0
2,34,108,0
2,34,108,652
2,32,108,384
2,34,108,8
2,37,108,0
2,34,108,4
2,32,108,612
2,27,108,8
2,34,112,116
2,34,108,4
2,34,112,824
2,34,108,12
2,34,108,1020
2,34,108,0
2,32,108,832
2,27,108,0
2,34,108,0
2,34,108,652
2,32,108,384
2,34,108,8
2,37,108,0
2,34,108,4
2,32,108,612
2,27,108,8
2,34,112,768
2,32,112,48
2,34,112,236
3,42,106,67152
3,54,112,0
3,58,110,0
3,61,108,0
3,41,118,316
3,53,122,0
3,56,110,0
3,60,116,0
3,39,104,340
3,51,104,0
3,55,116,0
3,58,104,0
3,58,106,88
3,58,94,156
3,51,96,0
3,39,90,72
3,39,96,96
3,51,104,0
3,58,104,0
3,51,96,4
3,58,94,0
3,51,90,68
3,39,88,152
3,46,114,96
3,56,106,384
3,63,100,0
3,56,106,296
3,63,96,0
3,55,116,192
3,53,110,0
3,58,102,0
3,46,108,24
3,53,86,192
3,56,104,160
3,63,98,0
3,56,104,292
3,63,92,0
3,55,116,192
3,53,106,356
3,58,100,0
3,46,106,40
3,53,90,192
3,56,102,156
3,63,98,0
3,56,100,284
3,63,90,0
3,55,108,192
3,58,104,4
3,44,106,36
3,58,106,384
3,39,96,192
3,39,98,76
3,51,98,0
3,58,94,0
3,51,100,128
3,58,98,0
3,51,108,136
3,58,108,0
3,34,110,84
3,46,102,0
3,56,104,384
3,63,94,0
3,56,102,284
3,63,94,0
3,55,112,12
3,53,116,52
3,58,102,0
3,34,106,8
3,46,104,0
3,56,102,384
3,63,94,0
3,56,104,304
3,63,92,0
3,55,108,12
3,53,108,8
3,58,98,0
3,34,98,4
3,46,96,0
3,51,86,192
3,56,100,124
3,63,92,0
3,56,102,200
3,63,90,0
3,55,98,24
3,51,102,180
3,58,100,0
3,32,100,0
3,44,100,0
3,51,100,376
3,58,102,0
3,51,92,52
3,27,106,16
3,39,104,0
3,51,84,184
3,58,80,0
3,51,106,164
3,58,102,0
3,34,110,36
3,46,102,0
3,56,104,384
3,63,94,0
3,56,102,284
3,63,94,0
3,55,112,12
3,53,116,52
3,58,102,0
3,34,106,8
3,46,104,0
3,56,102,384
3,63,94,0
3,56,104,304
3,63,92,0
3,55,108,12
3,53,108,8
3,58,98,0
3,34,98,4
3,46,96,0
3,51,86,192
3,56,100,124
3,63,92,0
3,56,102,200
3,63,90,0
3,55,98,24
3,51,102,180
3,58,100,0
3,32,100,0
3,44,100,0
3,51,100,376
3,58,102,0
3,51,92,52
3,27,106,16
3,39,104,0
3,51,84,184
3,58,80,0
3,51,106,164
3,58,102,0
3,34,118,36
3,46,112,0
3,56,108,384
3,63,98,0
3,56,108,292
3,63,100,0
3,55,106,8
3,53,114,16
3,58,112,0
3,34,106,80
3,46,102,0
3,51,98,192
3,56,110,112
3,63,104,0
3,56,104,284
3,63,98,0
3,58,108,88
3,65,104,0
3,53,112,24
3,58,108,0
3,34,102,72
3,46,100,0
3,51,98,192
3,56,106,128
3,63,100,0
3,56,108,288
3,63,100,0
3,55,108,12
3,51,106,72
3,56,106,0
3,32,106,24
3,44,110,0
3,51,110,376
3,58,104,0
3,51,100,48
3,58,98,0
3,27,106,16
3,39,106,0
3,51,94,184
3,51,94,140
3,58,110,0
3,34,112,96
3,46,108,0
3,56,108,384
3,63,98,0
3,56,106,284
3,63,100,0
3,55,110,0
3,53,110,0
3,58,104,0
3,34,98,16
3,46,98,0
3,58,84,192
3,56,108,164
3,63,94,0
3,56,106,260
3,63,98,0
3,58,98,12
3,65,102,0
3,58,108,40
3,34,106,36
3,46,96,0
3,56,110,384
3,63,100,0
3,56,100,280
3,63,96,0
3,55,104,48
3,51,106,204
3,56,112,0
3,32,104,100
3,44,104,0
3,51,88,32
3,58,82,0
3,51,100,348
3,58,100,0
3,27,100,124
3,39,100,0
3,51,84,20
3,51,104,148
3,58,102,0
3,42,106,108
3,49,102,0
3,54,114,0
3,58,108,0
3,41,94,304
3,48,100,0
3,53,100,0
3,56,114,0
3,39,106,320
3,51,110,0
3,55,106,0
3,58,106,0
3,58,98,132
3,58,86,80
3,58,90,56
3,39,86,172
3,63,96,192
3,58,98,176
3,49,100,12
3,56,110,0
3,61,108,0
3,65,112,0
3,47,104,8
3,54,102,0
3,59,114,0
3,63,98,0
3,44,102,368
3,56,102,0
3,60,108,0
3,63,98,0
3,44,86,72
3,60,102,152
3,56,92,328
3,63,96,208
3,56,94,108
3,58,96,376
3,46,118,24
3,56,110,384
3,63,104,0
3,56,110,296
3,63,100,0
3,55,120,192
3,53,114,0
3,58,106,0
3,46,112,24
3,53,90,192
3,56,108,160
3,63,102,0
3,56,108,292
3,63,96,0
3,55,120,192
3,53,110,356
3,58,104,0
3,46,110,40
3,53,94,192
3,56,106,156
3,63,102,0
3,56,104,284
3,63,94,0
3,55,112,192
3,58,108,4
3,44,110,36
3,58,110,384
3,39,100,192
3,39,102,76
3,51,102,0
3,58,98,0
3,51,104,128
3,58,102,0
3,51,112,136
3,58,112,0
3,34,116,84
3,46,108,0
3,56,110,384
3,63,102,0
3,56,106,296
3,63,98,0
3,55,108,16
3,53,114,120
3,58,106,0
3,34,110,192
3,46,106,0
3,56,114,332
3,63,102,0
3,56,110,280
3,63,102,0
3,55,110,8
3,53,118,160
3,58,110,0
3,34,110,16
3,46,108,0
3,53,88,136
3,56,112,128
3,63,102,0
3,56,110,284
3,63,102,0
3,55,110,192
3,51,110,16
3,58,106,0
3,32,114,20
3,44,118,0
3,51,88,116
3,58,90,0
3,51,110,44
3,58,112,0
3,27,114,192
3,39,112,0
3,51,104,28
3,61,100,0
3,53,112,0
3,58,106,0
3,34,114,8
3,46,112,0
3,53,88,164
3,56,112,128
3,63,104,0
3,56,110,272
3,63,102,0
3,55,110,0
3,53,110,92
3,58,106,0
3,34,108,20
3,46,108,0
3,53,90,164
3,56,114,128
3,63,104,0
3,56,106,276
3,63,100,0
3,55,112,0
3,53,120,132
3,58,116,0
3,34,106,0
3,46,98,0
3,53,90,132
3,56,112,124
3,63,102,0
3,56,106,276
3,63,98,0
3,55,114,192
3,51,110,36
3,58,110,0
3,32,104,16
3,44,110,0
3,51,88,108
3,58,88,160
3,51,110,84
3,58,110,0
3,27,108,192
3,39,108,0
3,51,100,92
3,53,116,44
3,58,92,0
3,34,104,76
3,34,112,24
3,46,112,0
3,56,118,228
3,63,104,0
3,56,108,300
3,63,98,0
3,55,116,12
3,53,108,52
3,58,108,0
3,34,106,8
3,46,110,0
3,56,112,328
3,63,102,0
3,55,108,12
3,56,106,48
3,63,100,0
3,58,110,24
3,65,100,0
3,53,112,308
3,58,112,0
3,34,110,156
3,46,116,0
3,53,110,24
3,56,108,60
3,63,96,0
3,56,110,312
3,63,104,0
3,55,110,8
3,51,110,48
3,58,112,0
3,32,110,80
3,44,112,0
3,51,98,120
3,58,94,152
3,51,112,16
3,58,114,0
3,39,108,132
3,51,106,4
3,61,100,0
3,51,102,28
3,58,104,0
3,34,102,20
3,46,102,0
3,56,108,372
3,63,94,0
3,56,98,300
3,63,88,0
3,55,106,12
3,53,98,44
3,58,98,0
3,34,96,8
3,46,100,0
3,56,102,328
3,63,92,0
3,55,98,12
3,56,96,48
3,63,90,0
3,58,100,24
3,65,90,0
3,53,102,308
3,58,102,0
3,34,100,156
3,46,106,0
3,53,100,24
3,56,98,60
3,63,86,0
3,56,100,312
3,63,94,0
3,55,100,8
3,51,100,48
3,58,102,0
3,32,100,80
3,44,102,0
3,51,88,120
3,58,84,152
3,51,102,16
3,58,104,0
3,39,98,132
3,51,96,4
3,61,90,0
3,51,92,28
3,58,94,0
3,34,116,20
3,46,106,0
3,56,108,372
3,63,96,0
3,56,102,304
3,63,90,0
3,56,102,52
3,61,104,0
3,53,108,48
3,58,106,0
3,34,108,192
3,46,106,0
3,53,106,340
3,58,106,0
3,56,106,260
3,61,102,0
3,56,104,92
3,61,98,0
3,53,108,240
3,58,106,0
3,34,110,44
3,46,106,0
3,56,106,384
3,63,92,0
3,56,92,296
3,61,104,0
3,56,108,40
3,63,102,0
3,51,108,256
3,58,108,0
3,32,106,92
3,44,112,0
3,51,86,92
3,51,112,308
3,58,110,0
3,39,104,24
3,51,102,120
3,61,100,0
3,51,100,8
3,58,100,0
3,51,94,24
3,58,94,0
3,34,110,68
3,46,112,0
3,53,116,384
3,58,108,0
