track,note,velocity,time
2,34,108,7440
2,32,105,76
2,34,97,8
2,37,108,12
2,39,100,32
2,39,105,40
2,39,108,48
2,39,102,152
2,39,108,60
2,39,105,48
2,39,113,160
2,39,108,56
2,39,108,52
2,39,113,148
2,32,102,60
2,34,95,4
2,37,108,36
2,39,108,48
2,39,102,48
2,39,108,40
2,39,108,148
2,39,105,56
2,39,108,40
2,39,108,160
2,39,105,60
2,39,113,52
2,39,113,152
2,32,93,60
2,34,95,12
2,37,108,32
2,39,100,32
2,39,105,40
2,39,108,48
2,39,102,152
2,39,108,60
2,39,105,48
2,39,113,160
2,39,108,56
2,39,108,52
2,39,113,148
2,32,102,60
2,34,95,4
2,37,108,36
2,39,108,48
2,39,102,48
2,39,108,40
2,39,108,148
2,39,105,56
2,39,108,40
2,39,108,160
2,39,105,60
2,39,113,52
2,39,113,152
2,32,93,60
2,34,95,12
2,37,102,32
2,39,100,32
2,39,105,40
2,39,108,48
2,39,102,152
2,39,108,60
2,39,105,48
2,39,113,160
2,39,108,56
2,39,108,52
2,39,113,148
2,32,102,60
2,34,95,4
2,37,108,36
2,39,108,48
2,39,102,48
2,39,108,40
2,39,108,148
2,39,105,56
2,39,108,40
2,39,108,160
2,39,105,60
2,39,113,52
2,39,113,152
2,32,93,60
2,34,95,12
2,37,108,32
2,39,100,32
2,39,105,40
2,39,108,48
2,39,102,152
2,39,108,60
2,39,105,48
2,39,113,160
2,39,108,56
2,39,108,52
2,39,113,148
2,32,102,60
2,34,95,4
2,37,108,36
2,39,108,48
2,39,102,48
2,39,108,40
2,39,108,148
2,39,105,56
2,39,108,40
2,39,108,160
2,42,110,8
2,44,104,8
2,46,111,16
2,49,107,24
2,51,103,8
2,37,98,12
2,37,108,8
2,39,100,32
2,39,105,40
2,39,108,48
2,39,102,152
2,39,108,60
2,39,105,48
2,39,113,160
2,39,108,56
2,39,108,52
2,39,113,148
2,32,102,60
2,34,95,4
2,37,108,36
2,39,108,48
2,39,102,48
2,39,108,40
2,39,108,148
2,39,105,56
2,39,108,40
2,39,108,160
2,39,105,60
2,39,113,52
2,39,113,152
2,32,93,60
2,34,95,12
2,37,108,32
2,39,108,48
2,39,102,48
2,39,108,40
2,39,108,148
2,39,105,56
2,39,108,40
2,39,108,160
2,39,105,60
2,39,113,52
2,39,113,152
2,32,93,60
2,34,95,12
2,37,108,32
2,39,100,32
2,39,105,40
2,39,108,48
2,39,102,152
2,39,108,60
2,39,105,48
2,39,113,160
2,32,93,56
2,34,95,12
2,37,108,32
2,39,100,32
2,32,102,40
2,34,95,8
2,37,113,36
2,39,99,28
2,39,99,40
2,39,100,16
2,39,108,120
2,39,105,48
2,39,108,40
2,39,108,144
2,41,105,56
2,39,105,8
2,43,97,28
2,39,102,4
2,43,95,4
2,37,105,12
2,39,113,20
2,41,99,28
2,39,99,40
2,39,100,16
2,39,111,120
2,37,103,168
2,39,105,80
2,39,102,148
2,34,95,4
2,37,105,12
2,39,113,20
2,41,100,28
2,39,105,44
2,39,105,36
2,39,108,164
2,39,108,144
2,39,108,144
2,39,108,148
2,39,102,140
2,32,105,24
2,34,105,24
2,39,113,44
2,41,100,28
2,39,105,44
2,39,105,36
2,39,108,164
2,39,108,144
2,41,107,32
2,39,108,8
2,37,108,20
2,34,95,8
2,32,113,16
2,37,108,20
2,42,108,8
2,35,107,24
2,32,113,32
2,37,108,20
2,42,108,8
2,35,107,24
2,32,102,32
2,35,95,12
2,37,105,4
2,42,102,8
2,35,95,4
2,34,102,16
2,32,102,16
2,35,95,12
2,37,105,4
2,39,108,8
2,41,107,56
2,43,95,4
2,41,91,4
2,39,95,8
2,37,102,16
2,39,100,32
2,39,105,40
2,39,108,48
2,39,102,152
2,39,108,60
2,39,105,48
2,39,113,160
2,39,108,56
2,39,108,52
2,39,113,148
2,32,102,60
2,34,95,4
2,37,108,36
2,39,108,48
2,39,102,48
2,39,108,40
2,39,108,148
2,39,105,56
2,39,108,40
2,39,108,160
2,39,105,60
2,39,113,52
2,39,113,152
2,32,93,60
2,34,95,12
2,37,108,32
2,39,100,32
2,39,105,40
2,39,108,48
2,39,102,152
2,39,108,60
2,39,105,48
2,39,113,160
2,39,108,56
2,39,108,52
2,39,113,148
2,32,102,60
2,34,95,4
2,37,108,36
2,39,108,48
2,39,102,48
2,39,108,40
2,39,108,148
2,39,105,56
2,39,108,40
2,39,108,160
2,32,110,8
2,34,104,8
2,37,111,16
2,39,107,24
2,32,103,8
2,34,98,12
2,37,108,8
2,39,100,32
2,39,105,40
2,39,108,48
2,39,102,152
2,39,108,60
2,39,105,48
2,39,113,160
2,39,108,56
2,39,108,52
2,39,113,148
2,32,102,60
2,34,95,4
2,37,108,36
2,39,108,48
2,39,102,48
2,39,108,40
2,39,108,148
2,39,105,56
2,39,108,40
2,39,108,160
2,39,105,60
2,39,113,52
2,39,113,152
2,32,93,60
2,34,95,12
2,37,108,32
2,39,108,48
2,39,102,48
2,39,108,40
2,39,108,148
2,39,105,56
2,39,108,40
2,39,108,160
2,39,105,60
2,39,113,52
2,39,113,152
2,32,93,60
2,34,95,12
2,37,108,32
2,39,100,32
2,39,105,40
2,39,108,48
2,39,102,152
2,39,108,60
2,39,105,48
2,39,113,160
2,32,93,56
2,34,95,12
2,37,108,32
2,39,100,32
2,32,102,40
2,34,95,8
2,37,107,36
2,39,100,32
2,39,105,40
2,39,108,48
2,39,102,152
2,39,108,60
2,39,105,48
2,39,113,160
2,39,108,56
2,39,108,52
2,39,113,148
2,32,102,60
2,34,95,4
2,39,108,36
2,41,108,48
2,39,102,48
2,39,108,40
2,39,108,148
2,39,105,56
2,39,108,40
2,39,108,160
2,39,105,60
2,39,113,52
2,39,113,152
2,32,93,60
2,34,95,12
2,39,108,32
2,41,100,32
2,39,105,40
2,39,108,48
2,39,102,152
2,39,108,60
2,39,105,48
2,39,113,160
2,39,108,56
2,39,108,52
2,39,113,148
2,32,102,60
2,34,95,4
2,39,108,36
2,41,108,48
2,39,102,48
2,39,108,40
2,39,108,148
2,39,105,56
2,39,108,40
2,41,107,40
2,39,108,8
2,37,108,20
2,34,95,8
2,32,102,16
2,35,95,12
2,37,105,4
2,42,102,8
2,35,95,4
2,34,102,16
2,32,102,16
2,35,95,12
2,37,105,4
2,42,102,8
2,35,95,4
2,34,102,16
2,32,102,16
2,35,95,12
2,37,105,4
2,42,102,8
2,35,95,4
2,34,102,16
2,32,102,16
2,35,95,12
2,37,105,4
2,39,108,8
2,32,91,24
2,34,95,8
2,27,108,16
2,39,108,16
2,37,113,148
2,34,108,160
2,27,108,56
2,39,105,16
2,32,113,136
2,27,105,116
2,39,108,4
2,37,98,128
2,34,89,156
2,27,107,56
2,39,104,8
2,34,113,136
2,34,113,520
2,38,107,520
2,43,105,476
2,43,110,480
2,34,113,460
2,38,111,460
2,31,113,464
2,31,108,60
2,31,113,68
2,34,113,520
2,38,107,520
2,43,105,476
2,43,110,480
2,34,113,460
2,38,111,460
2,31,113,464
2,32,105,60
2,32,102,508
2,31,105,500
2,31,107,488
2,29,107,484
2,29,107,468
2,39,119,380
2,34,105,24
2,37,113,20
2,39,97,16
2,39,102,16
2,39,97,20
2,39,105,20
2,39,93,16
2,39,105,20
2,39,100,20
2,39,105,16
2,39,99,16
2,39,102,16
2,39,100,20
2,39,102,24
2,39,102,28
2,32,95,16
2,34,102,8
2,37,113,16
2,39,97,16
2,39,102,16
2,39,97,20
2,39,105,20
2,39,93,16
2,39,105,20
2,39,100,20
2,39,105,16
2,39,99,16
2,39,102,16
2,39,100,20
2,39,102,24
2,39,102,120
2,32,95,16
2,34,102,8
2,37,113,16
2,39,97,16
2,39,102,16
2,39,97,20
2,39,105,20
2,39,93,16
2,39,105,20
2,39,100,20
2,39,105,16
2,39,99,16
2,39,102,16
2,39,100,20
2,39,102,24
2,39,102,28
2,32,95,16
2,34,102,8
2,37,113,16
2,39,97,16
2,39,102,16
2,39,97,20
2,39,105,20
2,39,93,16
2,39,105,20
2,39,100,20
2,39,105,16
2,39,99,16
2,44,102,16
2,46,100,8
2,49,102,12
2,51,102,8
2,44,95,16
2,46,102,8
2,37,113,16
2,39,97,16
2,39,102,16
2,39,97,20
2,39,105,20
2,39,93,16
2,39,105,20
2,39,100,20
2,39,105,16
2,39,99,16
2,39,102,16
2,39,100,20
2,39,102,24
2,39,102,28
2,32,95,16
2,34,102,8
2,37,113,16
2,39,97,16
2,39,102,16
2,39,97,20
2,39,105,20
2,39,93,16
2,39,105,20
2,39,100,20
2,39,105,16
2,39,99,16
2,39,102,16
2,39,100,20
2,39,102,24
2,39,102,120
2,32,95,16
2,34,102,8
2,37,113,16
2,39,97,16
2,39,102,16
2,39,97,20
2,39,105,20
2,39,93,16
2,39,105,20
2,39,100,20
2,39,105,16
2,39,99,16
2,39,102,16
2,39,100,20
2,39,102,24
2,39,102,28
2,32,95,16
2,34,102,8
2,37,113,16
2,39,97,16
2,39,102,16
2,39,97,20
2,39,105,20
2,39,93,16
2,39,105,20
2,39,100,20
2,39,105,16
2,39,99,16
2,32,102,16
2,34,100,8
2,37,102,12
2,39,102,8
2,32,95,16
2,34,102,8
2,39,113,16
2,41,97,16
2,39,102,16
2,39,97,20
2,39,105,20
2,39,93,16
2,39,105,20
2,39,100,20
2,39,105,16
2,39,99,16
2,39,102,16
2,39,100,20
2,39,102,24
2,39,102,28
2,32,95,16
2,34,102,8
2,39,113,16
2,41,97,16
2,39,102,16
2,39,97,20
2,39,105,20
2,39,93,16
2,39,105,20
2,39,100,20
2,39,105,16
2,39,99,16
2,39,102,16
2,39,100,20
2,39,102,24
2,39,102,120
2,32,95,16
2,34,102,8
2,39,113,16
2,41,97,16
2,39,102,16
2,39,97,20
2,39,105,20
2,39,93,16
2,39,105,20
2,39,100,20
2,39,105,16
2,39,99,16
2,39,102,16
2,39,100,20
2,39,102,24
2,39,102,28
2,32,95,16
2,34,102,8
2,39,113,16
2,41,97,16
2,39,102,16
2,39,97,20
2,39,105,20
2,39,93,16
2,39,105,20
2,39,100,20
2,41,107,16
2,39,108,8
2,37,108,20
2,34,95,8
2,32,102,16
2,32,100,12
2,32,98,8
2,35,95,32
2,37,105,4
2,42,102,8
2,35,95,4
2,30,102,16
2,32,102,16
2,32,100,12
2,32,98,8
2,35,95,32
2,37,105,4
2,42,102,8
2,35,95,4
2,30,102,16
2,32,102,16
2,35,95,12
2,37,105,4
2,42,102,8
2,35,95,4
2,30,102,16
2,32,102,16
2,35,95,12
2,37,105,4
2,39,100,8
2,39,108,36
2,39,102,60
2,39,100,20
2,39,105,56
2,39,105,20
2,39,100,44
2,37,108,16
2,34,105,12
2,32,113,16
2,34,105,16
2,35,98,16
2,37,108,12
2,39,105,16
2,37,102,8
2,42,99,8
2,42,102,44
2,34,102,28
2,35,99,4
2,34,102,16
2,32,113,20
2,34,105,16
2,35,98,16
2,37,108,12
2,39,105,16
2,37,102,8
2,42,99,8
2,42,102,44
2,34,102,28
2,35,99,4
2,34,102,16
2,32,113,20
2,34,105,16
2,35,98,16
2,37,108,12
2,39,105,16
2,37,102,8
2,42,99,8
2,42,102,44
2,34,102,28
2,35,99,4
2,34,102,16
2,32,113,20
2,34,105,16
2,35,98,16
2,37,108,12
2,39,105,16
2,37,102,8
2,39,102,8
2,39,108,36
2,39,105,100
2,39,108,36
2,44,93,128
2,46,99,4
2,51,99,8
2,49,99,4
2,46,102,8
2,32,113,20
2,34,105,16
2,35,98,16
2,37,108,12
2,39,105,16
2,37,102,8
2,42,99,8
2,42,102,0
2,34,102,28
2,35,99,0
2,34,102,4
2,32,113,20
2,34,105,16
2,35,98,16
2,37,108,12
2,39,105,16
2,37,102,8
2,42,99,8
2,42,102,44
2,34,102,20
2,35,99,4
2,34,102,16
2,32,113,20
2,34,105,16
2,35,98,16
2,37,108,12
2,39,105,16
2,37,102,8
2,42,99,8
2,42,102,44
2,34,102,20
2,35,99,4
2,34,102,16
2,32,113,20
2,34,105,16
2,35,98,16
2,37,108,12
2,39,105,16
2,37,102,8
3,55,100,3836
3,60,100,0
3,58,92,4
3,62,87,0
3,60,92,20
3,55,85,0
3,53,83,4
3,58,89,0
3,55,100,280
3,60,100,0
3,58,92,4
3,62,87,0
3,60,92,20
3,55,85,0
3,53,83,4
3,58,89,0
3,55,100,280
3,60,100,0
3,58,92,4
3,62,87,0
3,60,92,20
3,55,85,0
3,53,83,4
3,58,89,0
3,55,100,280
3,60,100,0
3,58,92,4
3,62,87,0
3,60,92,20
3,55,85,0
3,53,83,4
3,58,89,0
3,55,100,280
3,60,100,0
3,58,92,4
3,62,87,0
3,60,92,20
3,55,85,0
3,53,83,4
3,58,89,0
3,55,100,280
3,60,100,0
3,58,92,4
3,62,87,0
3,60,92,20
3,55,85,0
3,53,83,4
3,58,89,0
3,55,100,280
3,60,100,0
3,58,92,4
3,62,87,0
3,60,92,20
3,55,85,0
3,53,83,4
3,58,89,0
3,55,100,280
3,60,100,0
3,58,92,4
3,62,87,0
3,60,92,20
3,55,85,0
3,53,83,4
3,58,89,0
3,39,100,84520
3,51,113,120
3,63,105,56
3,66,84,56
3,61,108,0
3,63,102,96
3,63,108,52
3,39,100,44
3,51,113,120
3,63,108,48
3,68,102,60
3,63,105,0
3,63,105,64
3,63,105,56
3,39,97,52
3,51,119,120
3,63,105,48
3,66,89,48
3,61,105,0
3,63,102,104
3,63,102,56
3,39,100,40
3,51,113,120
3,63,108,40
3,68,105,56
3,63,105,0
3,63,102,84
3,63,105,52
3,39,99,48
3,51,113,120
3,63,108,48
3,66,89,44
3,61,105,0
3,63,108,80
3,63,108,48
3,39,100,44
3,51,113,120
3,63,108,48
3,68,102,48
3,63,100,0
3,63,102,72
3,63,105,52
3,39,100,56
3,51,108,120
3,63,108,48
3,66,91,44
3,61,105,0
3,63,105,92
3,63,102,44
3,39,100,44
3,51,105,8
3,63,113,60
3,68,105,48
3,63,105,0
3,63,105,88
3,63,102,56
3,55,116,21408
3,60,116,0
3,58,108,4
3,62,103,0
3,60,108,20
3,55,101,0
3,53,99,4
3,58,105,0
3,55,116,280
3,60,116,0
3,58,108,4
3,62,103,0
3,60,108,20
3,55,101,0
3,53,99,4
3,58,105,0
3,55,116,280
3,60,116,0
3,58,108,4
3,62,103,0
3,60,108,20
3,55,101,0
3,53,99,4
3,58,105,0
3,55,116,280
3,60,116,0
3,58,108,4
3,62,103,0
3,60,108,20
3,55,101,0
3,53,99,4
3,58,105,0
4,46,96,7432
4,53,94,0
4,58,99,0
4,46,98,8
4,53,99,0
4,58,92,0
4,58,77,12
4,46,81,0
4,53,74,0
4,63,93,6852
4,61,88,20
4,66,85,0
4,63,87,4
4,63,104,3456
4,63,101,164
4,58,79,32
4,63,93,2936
4,61,88,20
4,66,85,0
4,63,87,4
4,44,105,15576
4,51,119,0
4,49,113,12
4,56,105,0
4,42,106,16
4,49,113,0
4,47,108,8
4,54,108,0
4,44,100,16
4,51,113,0
4,49,108,4
4,56,105,0
4,42,105,12
4,49,119,0
4,47,108,4
4,54,108,0
4,51,113,16
4,44,105,0
4,49,105,8
4,56,102,0
4,49,108,12
4,42,105,0
4,47,108,4
4,54,105,0
4,51,113,8
4,44,108,0
4,56,105,16
4,49,113,0
4,58,102,4
4,51,105,0
4,51,81,12
4,58,78,0
4,63,93,6856
4,61,88,20
4,66,85,0
4,63,87,4
4,44,105,15576
4,51,119,0
4,49,113,12
4,56,105,0
4,42,106,16
4,49,113,0
4,47,108,8
4,54,108,0
4,44,100,16
4,51,113,0
4,49,108,4
4,56,105,0
4,42,105,12
4,49,119,0
4,47,108,4
4,54,108,0
4,51,113,16
4,44,105,0
4,49,105,8
4,56,102,0
4,49,108,12
4,42,105,0
4,47,108,4
4,54,105,0
4,51,113,8
4,44,108,0
4,56,105,16
4,49,113,0
4,58,102,4
4,51,105,0
4,58,115,28812
4,51,112,0
4,46,109,12
4,53,110,0
4,63,93,6856
4,61,88,20
4,66,85,0
