track,note,velocity,time
1,62,108,14608
1,62,108,0
1,62,108,140
1,62,108,0
1,59,108,16
1,59,108,0
1,62,108,32
1,62,108,0
1,64,108,84
1,64,108,0
1,66,108,383
1,66,108,0
1,64,108,0
1,64,108,0
1,64,108,436
1,64,108,0
1,64,108,156
1,64,108,0
1,60,108,367
1,60,108,0
1,64,108,396
1,64,108,0
1,66,108,340
1,66,108,0
1,64,108,28
1,64,108,0
1,62,108,20
1,62,108,0
1,62,108,348
1,62,108,0
1,62,108,112
1,62,108,0
1,59,108,379
1,59,108,0
1,62,108,380
1,62,108,0
1,64,43,68
1,64,43,0
1,66,108,383
1,66,108,0
1,64,108,12
1,64,108,0
1,64,108,428
1,64,108,0
1,64,108,88
1,64,108,0
1,60,107,16
1,60,107,0
1,64,108,379
1,64,108,0
1,66,108,352
1,66,108,0
1,64,89,40
1,64,89,0
1,62,108,40
1,62,108,0
1,67,108,412
1,67,108,0
1,67,108,108
1,67,108,0
1,67,108,144
1,67,108,0
1,67,108,184
1,67,108,0
1,69,108,112
1,69,108,0
1,67,107,28
1,67,107,0
1,67,108,100
1,67,108,0
1,67,108,204
1,67,108,0
1,67,108,84
1,67,108,0
1,67,108,112
1,67,108,0
1,67,108,72
1,67,108,0
1,69,108,16
1,69,108,0
1,67,107,367
1,67,107,0
1,67,108,88
1,67,108,0
1,69,108,148
1,69,108,0
1,69,108,120
1,69,108,0
1,69,108,128
1,69,108,0
1,69,108,116
1,69,108,0
1,71,108,108
1,71,108,0
1,69,108,44
1,69,108,0
1,69,108,176
1,69,108,0
1,69,108,120
1,69,108,0
1,69,108,124
1,69,108,0
1,69,108,216
1,69,108,0
1,71,108,224
1,71,108,0
1,69,108,0
1,69,108,0
1,59,108,508
1,59,108,0
1,62,108,48
1,62,108,0
1,62,108,184
1,62,108,0
1,62,108,196
1,62,108,0
1,64,108,196
1,64,108,0
1,62,108,0
1,62,108,0
1,64,108,352
1,64,108,0
1,67,108,28
1,67,108,0
1,67,108,220
1,67,108,0
1,67,108,216
1,67,108,0
1,69,108,180
1,69,108,0
1,67,108,44
1,67,108,0
1,59,108,312
1,59,108,0
1,62,108,32
1,62,108,0
1,62,108,216
1,62,108,0
1,62,108,212
1,62,108,0
1,64,108,196
1,64,108,0
1,62,108,20
1,62,108,0
1,64,108,280
1,64,108,0
1,67,108,48
1,67,108,0
1,67,108,216
1,67,108,0
1,67,108,212
1,67,108,0
1,69,108,232
1,69,108,0
1,67,108,60
1,67,108,0
1,71,108,232
1,71,108,0
1,71,108,152
1,71,108,0
1,71,108,152
1,71,108,0
1,71,108,156
1,71,108,0
1,69,108,156
1,69,108,0
1,69,108,100
1,69,108,0
1,67,108,176
1,67,108,0
1,67,108,180
1,67,108,0
1,67,108,196
1,67,108,0
1,67,108,196
1,67,108,0
1,66,108,188
1,66,108,0
1,64,108,252
1,64,108,0
1,64,108,200
1,64,108,0
1,64,108,208
1,64,108,0
1,64,108,168
1,64,108,0
1,62,108,212
1,62,108,0
1,67,108,44
1,67,108,0
1,66,108,228
1,66,108,0
1,66,108,88
1,66,108,0
1,67,108,32
1,67,108,0
1,69,108,0
1,69,108,0
1,67,108,48
1,67,108,0
1,62,108,25044
1,62,108,0
1,62,108,108
1,62,108,0
1,59,108,16
1,59,108,0
1,62,108,16
1,62,108,0
1,64,108,28
1,64,108,0
1,66,108,351
1,66,108,0
1,64,107,48
1,64,107,0
1,64,108,312
1,64,108,0
1,64,108,140
1,64,108,0
1,60,108,20
1,60,108,0
1,64,108,383
1,64,108,0
1,66,108,108
1,66,108,0
1,64,108,16
1,64,108,0
1,62,108,20
1,62,108,0
1,62,108,224
1,62,108,0
1,62,108,84
1,62,108,0
1,59,108,20
1,59,108,0
1,62,108,371
1,62,108,0
1,64,108,376
1,64,108,0
1,66,108,16
1,66,108,0
1,64,108,28
1,64,108,0
1,64,108,252
1,64,108,0
1,64,108,156
1,64,108,0
1,60,108,16
1,60,108,0
1,64,108,363
1,64,108,0
1,66,108,16
1,66,108,0
1,64,108,12
1,64,108,0
1,62,103,12
1,62,103,0
1,67,108,428
1,67,108,0
1,67,108,144
1,67,108,0
1,67,108,152
1,67,108,0
1,67,108,172
1,67,108,0
1,69,108,212
1,69,108,0
1,69,108,84
1,69,108,0
1,67,108,32
1,67,108,0
1,67,108,140
1,67,108,0
1,67,108,44
1,67,108,0
1,67,108,124
1,67,108,0
1,67,108,124
1,67,108,0
1,69,108,140
1,69,108,0
1,67,108,12
1,67,108,0
1,69,108,196
1,69,108,0
1,69,108,96
1,69,108,0
1,69,108,140
1,69,108,0
1,69,108,112
1,69,108,0
1,71,108,128
1,71,108,0
1,71,108,96
1,71,108,0
1,69,108,36
1,69,108,0
1,69,108,156
1,69,108,0
1,69,108,112
1,69,108,0
1,69,108,176
1,69,108,0
1,69,108,212
1,69,108,0
1,71,108,212
1,71,108,0
1,69,108,32
1,69,108,0
1,59,108,552
1,59,108,0
1,62,108,12
1,62,108,0
1,62,108,152
1,62,108,0
1,62,108,184
1,62,108,0
1,64,108,156
1,64,108,0
1,62,108,0
1,62,108,0
1,64,108,236
1,64,108,0
1,67,108,16
1,67,108,0
1,67,108,140
1,67,108,0
1,67,108,128
1,67,108,0
1,69,108,72
1,69,108,0
1,67,108,587
1,67,108,0
1,59,108,280
1,59,108,0
1,62,108,28
1,62,108,0
1,62,108,168
1,62,108,0
1,62,108,172
1,62,108,0
1,64,108,184
1,64,108,0
1,62,108,16
1,62,108,0
1,64,108,240
1,64,108,0
1,67,108,28
1,67,108,0
1,67,108,184
1,67,108,0
1,67,108,128
1,67,108,0
1,69,108,84
1,69,108,0
1,67,108,32
1,67,108,0
1,71,108,224
1,71,108,0
1,71,108,96
1,71,108,0
1,71,108,68
1,71,108,0
1,71,108,96
1,71,108,0
1,69,108,76
1,69,108,0
1,69,108,96
1,69,108,0
1,67,108,923
1,67,108,0
1,67,108,100
1,67,108,0
1,67,108,96
1,67,108,0
1,67,108,96
1,67,108,0
1,66,108,0
1,66,108,0
1,64,108,240
1,64,108,0
1,64,108,168
1,64,108,0
1,64,108,208
1,64,108,0
1,64,108,216
1,64,108,0
1,62,108,228
1,62,108,0
1,67,108,575
1,67,108,0
1,66,108,172
1,66,108,0
1,67,108,80
1,67,108,0
1,69,108,16
1,69,108,0
1,67,108,112
1,67,108,0
1,66,108,260
1,66,108,0
1,66,108,100
1,66,108,0
1,67,108,40
1,67,108,0
1,69,108,4
1,69,108,0
1,67,108,12
1,67,108,0
1,66,108,296
1,66,108,0
1,66,108,68
1,66,108,0
1,67,108,48
1,67,108,0
1,69,108,391
1,69,108,0
1,67,108,16
1,67,108,0
1,66,108,292
1,66,108,0
1,67,108,20
1,67,108,0
1,69,108,371
1,69,108,0
1,67,108,24
1,67,108,0
2,31,127,2308
2,38,127,148
2,26,127,16
2,28,127,48
2,35,127,40
2,28,127,40
2,33,127,0
2,40,127,204
2,33,127,48
2,38,127,80
2,45,127,68
2,38,127,16
2,31,127,52
2,38,127,160
2,26,127,20
2,28,127,48
2,35,127,16
2,28,127,380
2,33,127,20
2,40,127,160
2,33,127,32
2,38,127,92
2,45,127,40
2,38,127,16
2,31,127,48
2,38,127,160
2,31,127,80
2,28,127,48
2,35,127,68
2,28,127,20
2,33,127,12
2,40,127,56
2,33,127,8
2,38,127,76
2,45,127,72
2,38,127,4
2,31,127,20
2,38,127,252
2,31,127,44
2,28,127,100
2,35,127,216
2,28,127,20
2,33,127,36
2,40,127,160
2,33,127,8
2,38,127,76
2,45,127,168
2,38,127,8
2,31,127,64
2,38,127,8
2,26,127,28
2,31,127,116
2,33,127,68
2,35,127,16
2,36,127,76
2,43,127,116
2,31,127,20
2,36,127,36
2,40,127,60
2,36,127,20
2,33,127,388
2,40,127,760
2,28,127,384
2,33,127,20
2,40,127,764
2,33,127,16
2,38,127,40
2,45,127,64
2,33,127,4
2,38,127,36
2,26,127,768
2,31,127,324
2,35,127,392
2,38,127,60
2,31,127,60
2,35,127,136
2,38,127,20
2,36,127,104
2,40,127,168
2,43,127,8
2,36,127,36
2,40,127,208
2,43,127,8
2,31,127,16
2,35,127,212
2,38,127,48
2,31,127,32
2,35,127,88
2,38,127,20
2,36,127,36
2,40,127,200
2,43,127,8
2,36,127,0
2,40,127,140
2,43,127,8
2,31,127,384
2,35,127,128
2,38,127,8
2,35,127,104
2,39,127,204
2,42,127,40
2,40,127,60
2,43,127,200
2,47,127,16
2,35,127,16
2,39,127,212
2,42,127,20
2,36,127,36
2,40,127,144
2,43,127,32
2,31,127,152
2,35,127,20
2,38,127,384
2,38,127,180
2,33,127,24
2,38,127,16
2,31,127,32
2,35,127,104
2,38,127,32
2,31,127,112
2,35,127,176
2,38,127,36
2,31,127,72
2,35,127,68
2,38,127,4
2,36,127,80
2,40,127,216
2,43,127,384
2,36,127,36
2,40,127,212
2,43,127,384
2,31,127,48
2,35,127,320
2,38,127,4
2,31,127,40
2,35,127,360
2,38,127,24
2,36,127,64
2,40,127,268
2,43,127,4
2,36,127,20
2,40,127,216
2,43,127,8
2,31,127,20
2,35,127,188
2,38,127,32
2,35,127,52
2,39,127,260
2,42,127,16
2,40,127,60
2,43,127,764
2,47,127,360
2,35,127,56
2,39,127,260
2,42,127,20
2,36,127,104
2,40,127,132
2,43,127,20
2,31,127,100
2,35,127,132
2,38,127,16
2,38,127,192
2,33,127,168
2,38,127,16
2,31,127,56
2,35,127,232
2,38,127,20
2,31,127,116
2,38,127,388
2,26,127,32
2,28,127,44
2,35,127,320
2,28,127,32
2,33,127,44
2,40,127,228
2,33,127,28
2,38,127,48
2,45,127,196
2,38,127,384
2,31,127,32
2,38,127,340
2,26,127,48
2,28,127,36
2,35,127,344
2,28,127,8
2,33,127,48
2,40,127,292
2,33,127,44
2,38,127,60
2,45,127,296
2,38,127,32
2,31,127,52
2,38,127,388
2,26,127,48
2,31,127,16
2,33,127,316
2,35,127,12
2,36,127,32
2,40,127,308
2,31,127,36
2,36,127,48
2,43,127,260
2,36,127,20
2,33,127,36
2,40,127,348
2,28,127,4
2,33,127,32
2,40,127,320
2,33,127,4
2,38,127,24
2,45,127,244
2,33,127,44
2,38,127,24
2,26,127,16
2,31,127,344
2,35,127,436
2,38,127,56
2,31,127,112
2,35,127,352
2,38,127,8
2,36,127,32
2,40,127,352
2,43,127,8
2,36,127,32
2,40,127,208
2,43,127,380
2,31,127,164
2,35,127,272
2,38,127,16
2,31,127,128
2,35,127,232
2,38,127,380
2,36,127,136
2,40,127,232
2,43,127,380
2,36,127,48
2,40,127,232
2,43,127,28
2,31,127,192
2,35,127,232
2,38,127,36
2,35,127,16
2,39,127,296
2,42,127,380
2,40,127,128
2,43,127,160
2,47,127,20
2,35,127,44
2,39,127,324
2,42,127,20
2,36,127,64
2,40,127,284
2,43,127,32
2,31,127,208
2,35,127,204
2,38,127,380
2,38,127,224
2,33,127,244
2,38,127,44
2,31,127,32
2,35,127,260
2,38,127,380
2,38,127,212
2,33,127,176
2,38,127,76
2,31,127,40
2,35,127,220
2,38,127,36
2,38,127,224
2,33,127,80
2,38,127,384
2,31,127,32
2,35,127,228
2,38,127,384
2,38,127,248
2,33,127,136
2,38,127,380
2,31,127,32
2,31,127,196
2,36,127,168
2,36,127,196
2,31,127,172
2,28,127,188
2,26,127,144
2,31,127,16
3,69,117,5572
3,72,117,28
3,76,117,16
3,79,117,40
3,76,117,32
3,72,117,160
3,69,117,184
3,66,117,32
3,70,117,40
3,71,117,0
3,70,99,20
3,74,117,0
3,70,117,92
3,71,113,0
3,74,117,4
3,71,117,76
3,69,117,180
3,66,117,76
3,62,110,4
3,69,116,2792
3,72,106,48
3,76,111,36
3,79,117,20
3,76,117,180
3,79,117,16
3,76,117,40
3,72,117,20
3,69,117,12
3,67,116,24
3,70,117,160
3,71,117,0
3,70,100,20
3,74,117,88
3,70,117,8
3,71,105,88
3,74,117,108
3,71,117,32
3,69,117,16
3,55,117,47864
3,58,117,108
3,59,117,0
3,58,115,20
3,62,117,20
3,65,117,88
3,64,117,20
3,62,117,104
3,55,117,28
3,55,117,176
3,58,117,108
3,59,117,0
3,58,109,20
3,62,117,56
3,58,117,92
3,62,117,12
3,58,115,0
3,65,117,92
3,64,117,48
3,62,117,112
3,55,117,16
3,55,117,156
3,55,117,60
3,60,117,0
3,63,117,128
3,64,117,112
3,63,115,16
3,67,117,24
3,63,117,36
3,64,117,96
3,63,110,16
3,67,117,24
3,70,117,112
3,70,117,136
3,70,117,32
3,69,117,40
3,67,117,16
3,64,117,16
3,60,117,0
3,62,117,16
3,62,117,28
3,67,117,0
3,67,117,4
3,67,117,56
3,65,117,24
3,62,117,104
3,58,117,4
3,59,117,72
3,62,117,8
3,55,117,116
3,55,117,92
3,55,117,140
3,58,117,16
3,55,117,16
3,60,117,232
3,58,117,164
3,60,117,108
3,60,117,208
3,58,117,40
3,62,117,116
3,65,117,12
3,64,117,32
3,60,117,16
3,64,117,100
3,60,117,4
3,58,117,44
3,60,117,12
3,58,117,48
3,55,117,296
3,59,117,16
3,62,117,48
3,67,117,12
3,62,117,44
3,55,117,76
3,59,117,28
3,54,117,236
3,59,117,12
3,63,117,88
3,66,117,180
3,71,117,12
3,66,117,32
3,63,117,12
3,59,117,16
3,55,117,220
3,59,117,72
3,64,117,48
3,67,117,72
3,71,117,20
3,67,117,4
3,64,117,148
3,59,117,0
3,66,117,52
3,71,117,0
3,71,117,12
3,71,117,44
3,71,117,60
3,71,117,40
3,69,117,48
3,67,117,12
3,63,117,76
3,64,117,0
3,63,117,0
3,67,117,24
3,70,117,4
3,69,117,0
3,70,117,0
3,67,117,32
3,64,117,56
3,62,117,80
3,64,117,116
3,67,117,16
3,67,117,4
3,64,117,28
3,62,117,32
3,58,117,40
3,59,117,172
3,62,117,76
3,55,117,124
3,55,117,148
3,55,117,52
3,55,117,40
3,55,117,144
3,52,117,124
3,50,117,116
3,47,117,116
3,50,117,112
3,43,117,100
3,58,117,44612
3,59,117,80
3,62,117,0
3,64,117,16
3,67,117,4
3,67,117,80
3,70,117,4
3,69,117,28
3,67,117,16
3,64,117,12
3,62,117,104
3,64,117,24
3,67,117,0
3,55,117,64
4,74,122,2312
4,74,86,192
4,71,86,32
4,76,90,52
4,74,95,72
4,71,67,24
4,74,100,3264
4,74,95,160
4,71,82,36
4,76,90,44
4,74,95,32
4,71,65,768
4,60,95,39220
4,64,74,384
4,62,77,72
4,55,82,0
4,59,86,4
4,54,73,116
4,63,75,0
4,59,82,0
4,64,64,36
4,55,82,0
4,54,66,68
4,63,71,0
4,59,77,0
4,60,90,17832
4,64,79,40
4,62,72,72
4,59,72,0
4,55,72,0
4,63,75,112
4,54,75,0
4,59,69,0
4,55,79,120
4,59,79,0
4,64,70,0
4,59,79,104
4,54,82,0
4,63,75,0
4,60,86,42452
4,64,86,384
4,55,72,32
4,62,61,0
4,59,67,0
4,63,75,200
4,54,82,0
4,59,64,0
4,55,82,124
4,59,72,0
4,64,65,0
4,63,69,156
4,59,74,0
4,54,82,0
5,59,79,2292
5,62,79,0
5,55,79,0
5,64,79,1532
5,57,79,172
5,60,79,0
5,62,79,68
5,54,79,28
5,59,79,92
5,55,79,4
5,64,79,1572
5,57,79,108
5,60,79,4
5,54,79,12
5,62,79,0
5,55,79,300
5,59,79,0
5,64,79,1504
5,60,79,16
5,57,79,24
5,57,79,64
5,62,79,0
5,54,79,0
5,55,79,56
5,59,79,0
5,64,79,1536
5,57,79,8
5,60,79,24
5,62,79,72
5,57,79,0
5,54,79,0
5,62,79,248
5,59,79,4
5,67,79,0
5,55,79,1516
5,65,79,0
5,64,79,20
5,55,79,0
5,60,79,0
5,61,79,140
5,57,79,0
5,69,79,1524
5,66,79,36
5,62,79,24
5,59,79,504
5,67,79,4
5,62,79,0
5,64,79,12
5,62,79,12
5,60,79,16
5,64,79,4
5,69,79,1500
5,67,79,612
5,62,79,176
5,59,79,0
5,64,79,1520
5,62,79,600
