track,note,velocity,time
0,42,64,0
0,42,64,93
0,42,64,93
0,42,64,93
0,42,64,93
0,42,64,93
0,42,64,93
0,50,94,92
0,50,104,0
0,55,64,1
0,55,74,0
0,43,94,1
0,43,104,0
0,43,80,2
0,43,90,0
0,50,80,1
0,50,90,0
0,52,94,1
0,52,104,0
0,36,64,1
0,45,94,0
0,57,64,0
0,45,104,0
0,57,74,0
0,60,64,45
0,45,94,1
0,52,94,0
0,45,104,0
0,52,104,0
0,57,64,1
0,57,74,0
0,90,120,0
0,61,64,0
0,28,94,0
0,36,64,3
0,63,64,0
0,77,119,45
0,36,64,0
0,62,126,0
0,90,120,93
0,57,64,46
0,57,74,0
0,45,94,1
0,52,94,0
0,45,104,0
0,52,104,0
0,36,64,48
0,50,80,3
0,57,50,0
0,50,90,0
0,57,60,0
0,60,64,0
0,43,80,0
0,43,90,0
0,45,94,1
0,45,104,0
0,52,94,0
0,52,104,0
0,57,64,1
0,57,74,0
0,90,120,0
0,61,64,0
0,28,94,0
0,36,64,3
0,63,64,0
0,77,119,45
0,36,64,0
0,62,126,0
0,43,94,92
0,43,104,0
0,50,94,0
0,55,64,0
0,50,104,0
0,55,74,0
0,90,120,1
0,57,50,2
0,57,60,0
0,50,80,2
0,50,90,0
0,52,94,1
0,57,64,0
0,52,104,0
0,57,74,0
0,45,94,0
0,45,104,0
0,36,64,1
0,60,64,45
0,45,94,2
0,45,104,0
0,57,64,1
0,57,74,0
0,90,120,0
0,61,64,0
0,28,94,0
0,52,94,0
0,52,104,0
0,36,64,2
0,63,64,0
0,77,119,45
0,36,64,0
0,62,126,0
0,90,120,93
0,50,94,47
0,50,104,0
0,45,94,0
0,55,64,0
0,45,104,0
0,55,74,0
0,36,64,48
0,55,64,1
0,55,74,0
0,52,40,1
0,52,50,0
0,56,126,0
0,43,94,0
0,43,104,0
0,48,94,1
0,48,104,0
0,90,120,2
0,50,94,46
0,54,64,0
0,50,104,0
0,54,74,0
0,45,94,0
0,45,104,0
0,36,64,1
0,63,64,0
0,68,80,45
0,36,64,0
0,58,64,0
0,45,80,2
0,45,90,0
0,54,99,1
0,50,80,0
0,50,90,0
0,45,94,1
0,45,104,0
0,90,120,1
0,55,64,0
0,55,74,0
0,50,94,0
0,50,104,0
0,52,80,1
0,52,90,0
0,57,50,2
0,57,60,0
0,45,94,1
0,45,104,0
0,52,94,1
0,52,104,0
0,36,64,0
0,57,64,1
0,57,74,0
0,60,64,45
0,45,94,1
0,52,94,0
0,45,104,0
0,52,104,0
0,90,120,1
0,61,64,0
0,28,94,0
0,57,64,0
0,57,74,0
0,36,64,2
0,63,64,0
0,77,119,45
0,36,64,0
0,62,126,0
0,85,64,0
0,90,120,1
0,57,64,46
0,57,74,0
0,52,94,1
0,52,104,0
0,45,94,0
0,45,104,0
0,36,64,48
0,57,50,2
0,57,60,0
0,60,64,0
0,43,80,1
0,50,80,0
0,43,90,0
0,50,90,0
0,45,94,1
0,45,104,0
0,57,64,0
0,57,74,0
0,90,120,1
0,61,64,0
0,28,94,0
0,52,94,0
0,52,104,0
0,36,64,2
0,63,64,0
0,77,119,45
0,36,64,0
0,62,126,0
0,85,64,0
0,43,94,0
0,55,64,0
0,43,104,0
0,55,74,0
0,50,94,1
0,50,104,0
0,90,120,0
0,50,80,3
0,50,90,0
0,57,50,1
0,57,60,0
0,45,94,1
0,45,104,0
0,57,64,1
0,57,74,0
0,36,64,0
0,52,94,0
0,52,104,0
0,60,64,45
0,57,64,2
0,57,74,0
0,52,94,0
0,52,104,0
0,90,120,1
0,61,64,0
0,28,94,0
0,45,94,0
0,45,104,0
0,36,64,2
0,63,64,0
0,77,119,45
0,36,64,0
0,62,126,0
0,85,64,0
0,90,120,1
0,45,94,46
0,45,104,0
0,50,94,2
0,55,64,0
0,50,104,0
0,55,74,0
0,36,64,47
0,48,94,6
0,48,104,0
0,43,94,0
0,43,104,0
0,56,126,1
0,52,40,0
0,52,50,0
0,55,64,1
0,55,74,0
0,90,120,2
0,50,94,46
0,50,104,0
0,45,94,0
0,54,64,0
0,45,104,0
0,54,74,0
0,36,64,1
0,63,64,0
0,68,80,45
0,36,64,0
0,58,64,0
0,45,80,2
0,45,90,0
0,50,80,1
0,50,90,0
0,54,99,0
0,45,94,2
0,45,104,0
0,50,94,1
0,55,64,0
0,50,104,0
0,55,74,0
0,90,120,0
0,57,50,2
0,57,60,0
0,52,80,1
0,52,90,0
0,57,64,1
0,57,74,0
0,36,64,1
0,52,94,0
0,52,104,0
0,45,94,1
0,45,104,0
0,60,64,45
0,45,94,1
0,45,104,0
0,57,120,1
0,57,64,0
0,57,74,0
0,90,120,0
0,61,64,0
0,28,94,0
0,52,94,0
0,52,104,0
0,36,64,2
0,63,64,0
0,57,120,45
0,77,119,0
0,36,64,0
0,62,126,0
0,85,64,0
0,90,120,1
0,57,64,46
0,57,74,0
0,45,94,1
0,52,94,0
0,45,104,0
0,52,104,0
0,55,120,48
0,36,64,0
0,50,80,1
0,50,90,0
0,57,100,1
0,60,64,0
0,43,80,0
0,57,50,0
0,43,90,0
0,57,60,0
0,45,94,1
0,45,104,0
0,57,64,1
0,57,74,0
0,90,120,0
0,61,64,0
0,28,94,0
0,52,94,0
0,52,104,0
0,60,120,2
0,36,64,0
0,63,64,0
0,57,100,2
0,77,119,0
0,36,64,0
0,62,126,0
0,85,64,0
0,90,120,1
0,55,64,0
0,55,74,0
0,43,94,0
0,50,94,0
0,43,104,0
0,50,104,0
0,50,80,1
0,57,50,0
0,50,90,0
0,57,60,0
0,62,120,1
0,57,64,1
0,57,74,0
0,45,94,0
0,52,94,0
0,45,104,0
0,52,104,0
0,36,64,1
0,60,100,12
0,60,64,0
0,62,120,2
0,45,94,0
0,57,64,0
0,45,104,0
0,57,74,0
0,90,120,0
0,61,64,0
0,28,94,0
0,52,94,0
0,52,104,0
0,36,64,2
0,63,64,0
0,62,120,44
0,77,119,0
0,36,64,0
0,62,126,0
0,85,64,0
0,62,120,1
0,90,120,0
0,55,64,46
0,55,74,0
0,45,94,2
0,50,94,0
0,45,104,0
0,50,104,0
0,62,120,45
0,36,64,0
0,48,94,2
0,48,104,0
0,56,126,1
0,43,94,0
0,52,40,0
0,55,64,0
0,43,104,0
0,52,50,0
0,55,74,0
0,60,100,2
0,90,120,0
0,45,94,1
0,45,104,0
0,62,120,1
0,50,94,0
0,50,104,0
0,36,64,0
0,63,64,0
0,54,64,0
0,54,74,0
0,60,100,2
0,57,80,2
0,68,80,0
0,36,64,0
0,58,64,0
0,45,80,3
0,45,90,0
0,54,99,0
0,50,80,0
0,50,90,0
0,50,94,1
0,55,64,0
0,50,104,0
0,55,74,0
0,90,120,1
0,45,94,0
0,45,104,0
0,57,50,4
0,57,60,0
0,52,80,0
0,52,90,0
0,45,94,2
0,52,94,0
0,45,104,0
0,52,104,0
0,57,64,1
0,57,74,0
0,36,64,0
0,60,64,45
0,45,94,2
0,52,94,0
0,57,64,0
0,45,104,0
0,52,104,0
0,57,74,0
0,57,120,1
0,90,120,0
0,61,64,0
0,28,94,0
0,36,64,2
0,63,64,0
0,57,120,45
0,77,119,0
0,36,64,0
0,62,126,0
0,85,64,0
0,90,120,1
0,52,94,47
0,52,104,0
0,45,94,1
0,57,64,0
0,45,104,0
0,57,74,0
0,55,120,47
0,36,64,0
0,57,100,2
0,57,50,0
0,57,60,0
0,60,64,0
0,43,80,0
0,43,90,0
0,50,80,1
0,50,90,0
0,45,94,1
0,52,94,0
0,45,104,0
0,52,104,0
0,57,100,1
0,57,64,0
0,57,74,0
0,90,120,0
0,61,64,0
0,28,94,0
0,60,120,2
0,36,64,0
0,63,64,0
0,77,119,45
0,36,64,0
0,62,126,0
0,85,64,0
0,55,64,0
0,55,74,0
0,90,120,1
0,50,94,0
0,50,104,0
0,43,94,0
0,43,104,0
0,62,120,2
0,57,50,0
0,57,60,0
0,50,80,1
0,50,90,0
0,57,64,2
0,57,74,0
0,36,64,0
0,45,94,0
0,45,104,0
0,52,94,1
0,52,104,0
0,60,100,8
0,60,64,0
0,62,120,2
0,45,94,0
0,52,94,0
0,45,104,0
0,52,104,0
0,90,120,0
0,61,64,0
0,28,94,0
0,57,64,0
0,57,74,0
0,60,100,2
0,36,64,0
0,63,64,0
0,62,120,2
0,77,119,0
0,36,64,0
0,62,126,0
0,85,64,0
0,62,120,1
0,90,120,0
0,60,100,2
0,50,94,0
0,55,64,0
0,50,104,0
0,55,74,0
0,45,94,0
0,45,104,0
0,62,120,2
0,36,64,0
0,52,40,3
0,52,50,0
0,56,126,1
0,43,94,0
0,48,94,0
0,55,64,0
0,43,104,0
0,48,104,0
0,55,74,0
0,60,100,2
0,90,120,0
0,50,94,1
0,50,104,0
0,45,94,0
0,45,104,0
0,62,120,1
0,36,64,0
0,63,64,0
0,54,64,0
0,54,74,0
0,60,100,2
0,57,80,2
0,68,80,0
0,36,64,0
0,58,64,0
0,45,80,2
0,45,90,0
0,54,99,1
0,50,80,1
0,50,90,0
0,50,94,1
0,50,104,0
0,90,120,1
0,45,94,0
0,55,64,0
0,45,104,0
0,55,74,0
0,69,120,2
0,52,80,1
0,57,50,0
0,52,90,0
0,57,60,0
0,57,64,1
0,57,74,0
0,45,94,1
0,45,104,0
0,36,64,0
0,52,94,1
0,52,104,0
0,60,64,45
0,57,64,1
0,57,74,0
0,57,120,1
0,45,94,0
0,45,104,0
0,90,120,0
0,61,64,0
0,28,94,0
0,52,94,0
0,52,104,0
0,36,64,2
0,63,64,0
0,89,44,8
0,94,44,0
0,79,54,0
0,84,54,0
0,57,120,24
0,77,119,0
0,36,64,0
0,62,126,0
0,90,120,26
0,57,64,46
0,57,74,0
0,69,120,1
0,45,94,0
0,45,104,0
0,52,94,1
0,52,104,0
0,36,64,47
0,43,80,2
0,43,90,0
0,60,64,0
0,50,80,0
0,57,50,0
0,50,90,0
0,57,60,0
0,52,94,1
0,52,104,0
0,57,120,1
0,45,94,0
0,57,64,0
0,45,104,0
0,57,74,0
0,90,120,0
0,61,64,0
0,28,94,0
0,36,64,3
0,63,64,0
0,89,44,7
0,94,44,0
0,79,54,0
0,84,54,0
0,57,120,24
0,77,119,0
0,36,64,0
0,62,126,0
0,55,64,26
0,55,74,0
0,90,120,0
0,43,94,0
0,50,94,0
0,43,104,0
0,50,104,0
0,50,80,2
0,50,90,0
0,62,120,1
0,57,50,1
0,57,60,0
0,52,94,1
0,52,104,0
0,57,64,0
0,57,74,0
0,36,64,1
0,45,94,0
0,45,104,0
0,60,100,12
0,60,64,0
0,45,94,1
0,52,94,0
0,45,104,0
0,52,104,0
0,62,120,1
0,90,120,0
0,61,64,0
0,28,94,0
0,57,64,0
0,57,74,0
0,60,100,2
0,36,64,0
0,63,64,0
0,62,120,2
0,77,119,0
0,36,64,0
0,62,126,0
0,60,100,2
0,62,120,2
0,90,120,0
0,55,64,1
0,55,74,0
0,45,94,0
0,45,104,0
0,60,100,1
0,50,94,1
0,50,104,0
0,62,120,2
0,36,64,0
0,55,64,0
0,55,74,0
0,48,94,1
0,48,104,0
0,56,126,0
0,43,94,0
0,52,40,0
0,43,104,0
0,52,50,0
0,60,100,2
0,90,120,0
0,54,64,1
0,54,74,0
0,50,94,0
0,50,104,0
0,62,120,1
0,36,64,0
0,63,64,0
0,45,94,0
0,45,104,0
0,60,100,2
0,57,80,2
0,68,80,0
0,36,64,0
0,58,64,0
0,54,99,2
0,45,80,1
0,50,80,0
0,45,90,0
0,50,90,0
0,90,120,2
0,45,94,0
0,50,94,0
0,45,104,0
0,50,104,0
0,55,64,0
0,55,74,0
0,69,120,2
0,57,50,0
0,57,60,0
0,52,80,1
0,52,90,0
0,52,94,2
0,52,104,0
0,45,94,0
0,45,104,0
0,57,64,1
0,57,74,0
0,36,64,0
0,60,64,45
0,45,94,2
0,45,104,0
0,57,120,1
0,57,64,0
0,57,74,0
0,90,120,0
0,61,64,0
0,28,94,0
0,52,94,0
0,52,104,0
0,36,64,2
0,63,64,0
0,89,44,15
0,94,44,0
0,79,54,0
0,84,54,0
0,57,120,24
0,77,119,0
0,36,64,0
0,62,126,0
0,90,120,26
0,45,94,46
0,45,104,0
0,69,120,1
0,52,94,1
0,57,64,0
0,52,104,0
0,57,74,0
0,36,64,47
0,57,50,1
0,57,60,0
0,50,80,1
0,50,90,0
0,60,64,0
0,43,80,0
0,43,90,0
0,57,64,1
0,57,74,0
0,57,120,1
0,90,120,0
0,61,64,0
0,28,94,0
0,45,94,0
0,52,94,0
0,45,104,0
0,52,104,0
0,36,64,2
0,63,64,0
0,89,44,14
0,94,44,0
0,79,54,0
0,84,54,0
0,57,120,24
0,77,119,0
0,36,64,0
0,62,126,0
0,50,94,26
0,55,64,0
0,50,104,0
0,55,74,0
0,90,120,0
0,43,94,0
0,43,104,0
0,62,120,3
0,57,50,0
0,57,60,0
0,50,80,1
0,50,90,0
0,36,64,2
0,57,64,0
0,57,74,0
0,45,94,1
0,52,94,0
0,45,104,0
0,52,104,0
0,60,100,4
0,60,64,0
0,57,64,1
0,57,74,0
0,62,120,1
0,45,94,0
0,52,94,0
0,45,104,0
0,52,104,0
0,90,120,0
0,61,64,0
0,28,94,0
0,36,64,3
0,63,64,0
0,62,120,41
0,77,119,0
0,36,64,0
0,50,94,1
0,54,94,0
0,57,64,0
0,50,104,0
0,54,104,0
0,57,74,0
0,60,100,1
0,42,94,0
0,42,104,0
0,62,120,2
0,90,120,0
0,50,94,46
0,50,104,0
0,55,94,1
0,59,64,0
0,55,104,0
0,59,74,0
0,43,94,1
0,43,104,0
0,62,120,2
0,36,64,0
0,57,64,1
0,57,74,0
0,62,120,1
0,56,126,0
0,42,94,0
0,50,94,0
0,42,104,0
0,50,104,0
0,54,94,1
0,54,104,0
0,90,120,2
0,55,94,44
0,55,104,0
0,43,94,0
0,59,64,0
0,43,104,0
0,59,74,0
0,62,120,1
0,36,64,0
0,63,64,0
0,50,94,1
0,50,104,0
0,68,80,45
0,36,64,0
0,58,64,0
0,62,120,39
0,54,99,0
0,45,94,7
0,45,104,0
0,90,120,0
0,55,64,0
0,55,74,0
0,50,94,0
0,50,104,0
0,52,80,1
0,52,90,0
0,60,120,1
0,57,50,1
0,57,60,0
0,45,94,1
0,52,94,0
0,45,104,0
0,52,104,0
0,57,80,1
0,36,64,0
0,57,64,1
0,57,74,0
0,60,64,45
0,90,120,45
0,61,64,0
0,28,94,0
0,36,64,45
0,63,64,0
0,36,64,8
0,98,64,0
0,90,120,93
0,36,64,95
0,56,99,0
0,90,120,45
0,36,64,0
0,36,64,1
0,58,64,45
0,45,94,44
0,55,64,0
0,45,104,0
0,55,74,0
0,90,120,1
0,50,94,0
0,50,104,0
0,52,80,1
0,52,90,0
0,57,50,1
0,57,60,0
0,45,94,1
0,45,104,0
0,52,94,1
0,52,104,0
0,36,64,0
0,57,64,1
0,57,74,0
0,60,64,45
0,52,94,1
0,52,104,0
0,57,120,1
0,57,64,0
0,57,74,0
0,90,120,0
0,39,84,0
0,61,64,0
0,28,94,0
0,45,94,0
0,45,104,0
0,36,64,2
0,63,64,0
0,57,120,39
0,77,119,0
0,36,64,0
0,62,126,0
0,85,64,0
0,57,120,1
0,90,120,0
0,39,84,0
0,57,64,1
0,57,74,0
0,52,94,0
0,52,104,0
0,52,100,1
0,39,84,0
0,45,94,1
0,45,104,0
0,55,120,2
0,36,64,0
0,43,80,1
0,50,80,0
0,43,90,0
0,50,90,0
0,57,120,1
0,60,64,0
0,57,50,1
0,57,60,0
0,52,94,1
0,52,104,0
0,45,94,1
0,45,104,0
0,90,120,0
0,39,84,0
0,61,64,0
0,28,94,0
0,57,64,0
0,57,74,0
0,60,120,2
0,36,64,0
0,63,64,0
0,77,119,45
0,36,64,0
0,62,126,0
0,85,64,0
0,50,94,0
0,50,104,0
0,90,120,1
0,39,84,0
0,43,94,0
0,55,64,0
0,43,104,0
0,55,74,0
0,62,100,2
