track,note,velocity,time
1,69,110,31920
1,69,0,59
1,71,110,62
1,71,0,60
1,73,110,59
1,73,0,61
1,69,110,61
1,69,0,60
1,73,110,58
1,73,0,61
1,73,110,61
1,73,0,60
1,69,110,57
1,69,0,61
1,71,110,62
1,71,0,59
1,73,110,58
1,73,0,61
1,78,110,62
1,78,0,58
1,73,110,60
1,73,0,61
1,73,110,61
1,73,0,58
1,69,110,60
1,69,0,61
1,71,110,60
1,71,0,59
1,73,110,60
1,73,0,61
1,69,110,61
1,69,0,57
1,73,110,62
1,73,0,61
1,73,110,60
1,73,0,59
1,69,110,59
1,69,0,61
1,71,110,60
1,71,0,59
1,73,110,62
1,73,0,59
1,78,110,61
1,78,0,58
1,73,110,62
1,73,0,59
1,73,110,59
1,73,0,60
1,71,110,62
1,71,0,60
1,73,110,57
1,73,0,60
1,74,110,62
1,74,0,61
1,71,110,58
1,71,0,60
1,74,110,61
1,74,0,60
1,74,110,58
1,74,0,61
1,71,110,62
1,71,0,60
1,73,110,59
1,73,0,60
1,74,110,60
1,74,0,61
1,78,110,58
1,78,0,62
1,74,110,60
1,74,0,59
1,74,110,59
1,74,0,62
1,71,110,60
1,71,0,58
1,73,110,60
1,73,0,61
1,74,110,59
1,74,0,60
1,71,110,60
1,71,0,62
1,74,110,58
1,74,0,61
1,74,110,59
1,74,0,61
1,71,110,58
1,71,0,61
1,73,110,61
1,73,0,61
1,74,110,59
1,74,0,60
1,78,110,59
1,78,0,62
1,74,110,59
1,74,0,60
1,76,110,61
1,76,0,59
1,78,110,59
1,78,0,60
1,78,110,61
1,78,0,60
1,73,110,58
1,73,0,61
1,74,110,62
1,74,0,58
1,76,110,61
1,76,0,60
1,73,110,60
1,73,0,59
1,76,110,60
1,76,0,61
1,76,110,61
1,76,0,58
1,73,110,60
1,73,0,62
1,74,110,58
1,74,0,60
1,76,110,61
1,76,0,61
1,80,110,59
1,80,0,59
1,76,110,59
1,76,0,63
1,74,110,59
1,74,0,57
1,73,110,63
1,73,0,60
1,74,110,60
1,74,0,58
1,76,110,63
1,76,0,59
1,73,110,59
1,73,0,60
1,76,110,62
1,76,0,60
1,76,110,58
1,76,0,60
1,73,110,62
1,73,0,60
1,74,110,58
1,74,0,60
1,76,110,61
1,76,0,60
1,80,110,59
1,80,0,60
1,80,110,62
1,80,0,60
1,76,110,59
1,76,0,60
1,73,110,60
1,73,0,61
1,73,110,57
1,73,0,63
1,69,110,61
1,69,0,56
1,71,110,61
1,71,0,61
1,73,110,59
1,73,0,59
1,69,110,61
1,69,0,61
1,73,110,59
1,73,0,60
1,73,110,59
1,73,0,63
1,69,110,58
1,69,0,60
1,71,110,60
1,71,0,61
1,73,110,59
1,73,0,61
1,78,110,61
1,78,0,60
1,73,110,58
1,73,0,61
1,73,110,61
1,73,0,60
1,69,110,58
1,69,0,60
1,71,110,62
1,71,0,59
1,73,110,58
1,73,0,61
1,69,110,62
1,69,0,58
1,73,110,60
1,73,0,61
1,73,110,61
1,73,0,59
1,69,110,61
1,69,0,60
1,71,110,60
1,71,0,58
1,73,110,60
1,73,0,62
1,78,110,59
1,78,0,58
1,73,110,61
1,73,0,62
1,73,110,60
1,73,0,57
1,71,110,63
1,71,0,59
1,73,110,60
1,73,0,59
1,74,110,60
1,74,0,61
1,71,110,61
1,71,0,58
1,74,110,61
1,74,0,61
1,74,110,58
1,74,0,60
1,71,110,62
1,71,0,59
1,73,110,59
1,73,0,59
1,74,110,62
1,74,0,61
1,78,110,57
1,78,0,60
1,74,110,63
1,74,0,60
1,74,110,58
1,74,0,60
1,71,110,62
1,71,0,59
1,73,110,59
1,73,0,60
1,74,110,62
1,74,0,59
1,71,110,60
1,71,0,59
1,74,110,62
1,74,0,60
1,74,110,58
1,74,0,62
1,71,110,60
1,71,0,58
1,73,110,60
1,73,0,61
1,74,110,59
1,74,0,60
1,78,110,60
1,78,0,62
1,74,110,59
1,74,0,59
1,76,110,60
1,76,0,62
1,78,110,58
1,78,0,60
1,78,110,62
1,78,0,60
1,73,110,58
1,73,0,60
1,74,110,61
1,74,0,61
1,76,110,58
1,76,0,61
1,73,110,60
1,73,0,60
1,76,110,59
1,76,0,59
1,76,110,62
1,76,0,61
1,73,110,57
1,73,0,61
1,74,110,61
1,74,0,59
1,76,110,60
1,76,0,59
1,80,110,63
1,80,0,58
1,76,110,61
1,76,0,61
1,74,110,60
1,74,0,58
1,73,110,60
1,73,0,62
1,74,110,60
1,74,0,58
1,76,110,60
1,76,0,62
1,73,110,60
1,73,0,58
1,76,110,62
1,76,0,60
1,76,110,60
1,76,0,58
1,73,110,60
1,73,0,61
1,74,110,60
1,74,0,58
1,76,110,63
1,76,0,59
1,80,110,59
1,80,0,60
1,69,110,32939
1,69,0,61
1,71,110,61
1,71,0,59
1,73,110,60
1,73,0,60
1,69,110,62
1,69,0,58
1,73,110,60
1,73,0,61
1,73,110,61
1,73,0,57
1,69,110,61
1,69,0,60
1,71,110,61
1,71,0,59
1,73,110,60
1,73,0,61
1,78,110,60
1,78,0,59
1,73,110,62
1,73,0,59
1,73,110,60
1,73,0,59
1,69,110,60
1,69,0,62
1,71,110,60
1,71,0,58
1,73,110,62
1,73,0,60
1,69,110,57
1,69,0,61
1,73,110,61
1,73,0,60
1,73,110,59
1,73,0,59
1,69,110,62
1,69,0,61
1,71,110,59
1,71,0,59
1,73,110,62
1,73,0,59
1,78,110,58
1,78,0,60
1,73,110,63
1,73,0,59
1,73,110,60
1,73,0,59
1,71,110,62
1,71,0,60
1,73,110,58
1,73,0,62
1,74,110,59
1,74,0,61
1,71,110,58
1,71,0,61
1,74,110,60
1,74,0,59
1,74,110,60
1,74,0,61
1,71,110,61
1,71,0,58
1,73,110,60
1,73,0,61
1,74,110,61
1,74,0,58
1,78,110,59
1,78,0,62
1,74,110,61
1,74,0,58
1,74,110,60
1,74,0,61
1,71,110,60
1,71,0,59
1,73,110,60
1,73,0,62
1,74,110,60
1,74,0,57
1,71,110,62
1,71,0,60
1,74,110,60
1,74,0,59
1,74,110,61
1,74,0,60
1,71,110,58
1,71,0,61
1,73,110,61
1,73,0,59
1,74,110,60
1,74,0,59
1,78,110,62
1,78,0,59
1,74,110,62
1,74,0,59
1,76,110,60
1,76,0,59
1,78,110,61
1,78,0,61
1,78,110,60
1,78,0,58
1,73,110,61
1,73,0,61
1,74,110,60
1,74,0,58
1,76,110,61
1,76,0,61
1,73,110,59
1,73,0,58
1,76,110,61
1,76,0,61
1,76,110,59
1,76,0,59
1,73,110,62
1,73,0,61
1,74,110,57
1,74,0,61
1,76,110,62
1,76,0,60
1,80,110,58
1,80,0,60
1,76,110,62
1,76,0,59
1,74,110,59
1,74,0,60
1,73,110,62
1,73,0,59
1,74,110,59
1,74,0,60
1,76,110,61
1,76,0,60
1,73,110,60
1,73,0,58
1,76,110,63
1,76,0,60
1,76,110,58
1,76,0,61
1,73,110,61
1,73,0,58
1,74,110,60
1,74,0,62
1,76,110,59
1,76,0,59
1,80,110,60
1,80,0,62
1,80,110,60
1,80,0,58
1,76,110,60
1,76,0,61
1,73,110,61
1,73,0,59
1,73,110,59
1,73,0,62
1,69,110,60
1,69,0,58
1,71,110,60
1,71,0,61
1,73,110,61
1,73,0,58
1,69,110,62
1,69,0,60
1,73,110,59
1,73,0,59
1,73,110,61
1,73,0,60
1,69,110,59
1,69,0,59
1,71,110,63
1,71,0,58
1,73,110,59
1,73,0,61
1,78,110,61
1,78,0,58
1,73,110,61
1,73,0,59
1,73,110,62
1,73,0,59
1,69,110,61
1,69,0,60
1,71,110,61
1,71,0,57
1,73,110,62
1,73,0,60
1,69,110,60
1,69,0,59
1,73,110,61
1,73,0,60
1,73,110,61
1,73,0,58
1,69,110,61
1,69,0,60
1,71,110,61
1,71,0,58
1,73,110,60
1,73,0,61
1,78,110,59
1,78,0,60
1,73,110,62
1,73,0,59
1,73,110,59
1,73,0,60
1,71,110,62
1,71,0,59
1,73,110,59
1,73,0,60
1,74,110,61
1,74,0,61
1,71,110,58
1,71,0,60
1,74,110,61
1,74,0,60
1,74,110,59
1,74,0,60
1,71,110,61
1,71,0,60
1,73,110,59
1,73,0,60
1,74,110,62
1,74,0,60
1,78,110,58
1,78,0,62
1,74,110,59
1,74,0,59
1,74,110,60
1,74,0,62
1,71,110,60
1,71,0,58
1,73,110,59
1,73,0,63
1,74,110,60
1,74,0,58
1,71,110,60
1,71,0,61
1,74,110,61
1,74,0,58
1,74,110,60
1,74,0,61
1,71,110,61
1,71,0,57
1,73,110,61
1,73,0,62
1,74,110,59
1,74,0,60
1,78,110,61
1,78,0,59
1,74,110,60
1,74,0,59
1,76,110,61
1,76,0,61
1,78,110,57
1,78,0,61
1,78,110,62
1,78,0,58
1,73,110,60
1,73,0,59
1,74,110,62
1,74,0,58
1,76,110,61
1,76,0,60
1,73,110,62
1,73,0,58
1,76,110,62
1,76,0,60
1,76,110,60
1,76,0,58
1,73,110,61
1,73,0,60
1,74,110,61
1,74,0,59
1,76,110,60
1,76,0,60
1,80,110,60
1,80,0,60
1,76,110,60
1,76,0,60
1,74,110,62
1,74,0,56
1,73,110,61
1,73,0,62
1,74,110,58
1,74,0,59
1,76,110,62
1,76,0,60
1,73,110,59
1,73,0,60
1,76,110,61
1,76,0,61
1,76,110,58
1,76,0,60
1,73,110,62
1,73,0,59
1,74,110,59
1,74,0,59
1,76,110,63
1,76,0,60
1,80,110,58
1,80,0,60
2,37,127,8672
2,35,127,4308
2,37,0,25
2,37,127,1396
2,35,0,16
2,49,127,3083
2,37,0,16
2,49,0,72
2,48,127,38
2,46,127,235
2,48,0,10
2,46,0,109
2,44,127,15
2,44,0,70
2,42,127,43
2,42,0,85
2,37,127,36
2,37,0,501
2,35,127,0
2,37,127,1432
2,35,0,12
2,49,127,3088
2,37,0,16
2,49,0,69
2,48,127,38
2,46,127,238
2,48,0,7
2,46,0,110
2,44,127,15
2,44,0,70
2,42,127,41
2,42,0,87
2,37,127,35
2,37,0,502
2,35,127,0
2,35,0,1431
2,37,127,0
2,37,0,1439
2,37,127,4
2,37,0,716
2,33,127,3
2,33,0,717
2,37,127,5
2,37,0,717
2,33,127,3
2,33,0,717
2,36,127,3
2,36,0,716
2,38,127,2
2,38,0,717
2,30,127,722
2,30,0,118
2,30,127,361
2,30,0,108
2,30,127,13
2,30,0,107
2,30,127,732
2,30,0,107
2,30,127,14
2,30,0,106
2,35,127,734
2,35,0,107
2,35,127,12
2,35,0,106
2,35,127,733
2,35,0,108
2,35,127,12
2,35,0,106
2,35,127,736
2,35,0,106
2,35,127,14
2,35,0,106
2,37,127,973
2,37,0,107
2,37,127,15
2,37,0,106
2,37,127,734
2,37,0,105
2,37,127,15
2,37,0,105
2,37,127,734
2,37,0,106
2,37,127,14
2,37,0,104
2,30,127,978
2,30,0,104
2,30,127,14
2,30,0,107
2,30,127,733
2,30,0,106
2,30,127,14
2,30,0,107
2,30,127,732
2,30,0,107
2,30,127,16
2,30,0,105
2,35,127,735
2,35,0,104
2,35,127,15
2,35,0,106
2,35,127,732
2,35,0,108
2,35,127,13
2,35,0,105
2,35,127,736
2,35,0,105
2,35,127,13
2,35,0,108
2,37,127,973
2,37,0,106
2,37,127,13
2,37,0,107
2,37,127,733
2,37,0,107
2,37,127,15
2,37,0,106
2,37,127,735
2,37,0,104
2,37,127,15
2,37,0,105
2,40,127,495
2,40,0,237
2,38,127,2
2,38,0,238
2,36,127,1
2,36,0,239
2,35,127,1
2,35,0,239
2,45,127,5
2,45,0,2857
2,44,127,18
2,44,0,2876
2,43,127,4
2,40,127,1441
2,43,0,66
2,40,0,1360
2,39,127,15
2,38,127,2880
2,39,0,30
2,38,0,2833
2,37,127,17
2,49,127,3099
2,37,0,17
2,49,0,68
2,48,127,39
2,46,127,238
2,48,0,7
2,46,0,110
2,44,127,15
2,44,0,70
2,42,127,43
2,42,0,85
2,37,127,35
2,37,0,502
2,35,127,0
2,37,127,1433
2,35,0,12
2,49,127,3085
2,37,0,17
2,49,0,70
2,48,127,39
2,46,127,237
2,48,0,7
2,46,0,110
2,44,127,15
2,44,0,70
2,42,127,44
2,42,0,83
2,37,127,35
2,37,0,504
2,35,127,0
2,35,0,1429
2,37,127,2
2,37,0,1438
2,37,127,4
2,37,0,716
2,33,127,4
2,33,0,716
2,37,127,3
2,37,0,717
2,33,127,4
2,33,0,718
2,36,127,3
2,36,0,714
2,38,127,3
2,38,0,719
2,30,127,721
2,30,0,120
2,30,127,360
2,30,0,106
2,30,127,15
2,30,0,105
2,30,127,733
2,30,0,107
2,30,127,14
2,30,0,105
2,35,127,735
2,35,0,106
2,35,127,14
2,35,0,106
2,35,127,735
2,35,0,106
2,35,127,12
2,35,0,107
2,35,127,735
2,35,0,104
2,35,127,14
2,35,0,106
2,37,127,975
2,37,0,107
2,37,127,14
2,37,0,105
2,37,127,734
2,37,0,106
2,37,127,14
2,37,0,105
2,37,127,735
2,37,0,105
2,37,127,14
2,37,0,108
2,30,127,974
2,30,0,105
2,30,127,14
2,30,0,106
2,30,127,733
2,30,0,105
2,30,127,15
2,30,0,108
2,30,127,734
2,30,0,105
2,30,127,15
2,30,0,105
2,35,127,734
2,35,0,107
2,35,127,13
2,35,0,107
2,35,127,733
2,35,0,107
2,35,127,13
2,35,0,108
2,35,127,733
2,35,0,105
2,35,127,14
2,35,0,106
2,37,127,974
2,37,0,104
2,37,127,15
2,37,0,108
2,37,127,733
2,37,0,107
2,37,127,14
2,37,0,106
2,37,127,732
2,37,0,107
2,37,127,14
2,37,0,106
2,40,127,502
2,40,0,233
2,38,127,1
2,38,0,239
2,36,127,1
2,36,0,239
2,35,127,2
2,35,0,236
2,45,127,6
2,45,0,2856
2,44,127,20
2,44,0,2873
2,43,127,8
2,40,127,1439
2,43,0,65
2,40,0,1362
2,39,127,13
2,38,127,2881
2,39,0,27
2,38,0,2835
2,37,127,17
2,49,127,3098
2,37,0,17
2,49,0,70
2,48,127,37
2,46,127,238
2,48,0,7
2,46,0,112
2,44,127,12
2,44,0,71
2,42,127,43
2,42,0,84
2,37,127,36
2,37,0,502
2,35,127,0
2,37,127,1434
2,35,0,11
2,49,127,3085
2,37,0,18
2,49,0,70
2,48,127,37
2,46,127,238
2,48,0,7
2,46,0,110
2,44,127,15
2,44,0,69
2,42,127,44
2,42,0,84
2,37,127,36
2,37,0,502
2,35,127,0
2,35,0,1430
2,37,127,2
2,37,0,1437
2,37,127,4
2,37,0,716
2,33,127,4
2,33,0,717
2,37,127,4
2,37,0,718
2,33,127,2
2,33,0,717
2,36,127,6
2,36,0,308
2,38,127,47
2,36,127,362
2,38,0,13
2,36,0,336
2,38,127,9
2,36,127,363
2,38,0,27
2,36,0,328
2,38,127,1
2,36,127,362
2,38,0,2
2,38,127,356
2,36,0,3
2,38,0,356
2,36,127,1
2,36,0,214
2,39,127,27
2,39,0,928
2,29,127,33
2,29,0,941
2,31,127,17
2,33,127,479
2,31,0,14
2,35,127,226
2,33,0,35
2,35,0,428
2,36,127,16
2,38,127,242
2,36,0,19
2,39,127,463
2,38,0,7
2,29,127,952
2,39,0,16
2,29,0,906
2,31,127,37
2,24,127,1927
2,31,0,31
2,31,127,12441
2,24,0,30
2,24,127,3830
2,31,0,13
2,31,127,12432
2,24,0,6
2,24,127,3822
2,31,0,14
2,24,127,14
2,24,0,723
2,36,127,1193
2,24,0,10
2,35,127,1415
2,36,0,59
2,28,127,423
2,35,0,5
2,36,127,2645
2,28,0,13
2,35,127,1163
2,36,0,15
2,33,127,1899
2,35,0,13
2,26,127,1919
2,33,0,11
2,24,127,1903
2,26,0,17
2,31,127,1917
2,24,0,10
2,30,127,958
2,31,0,28
2,28,127,945
2,30,0,11
2,33,127,1884
2,28,0,25
2,33,0,1913
2,43,127,13
2,43,0,1169
2,55,127,16
2,55,0,72
2,54,127,80
2,52,127,467
2,54,0,35
2,50,127,22
2,52,0,5
2,43,127,55
2,50,0,17
2,43,0,1151
2,55,127,17
2,55,0,69
2,54,127,85
2,52,127,464
