track,note,velocity,time
0,65,91,750
0,69,90,0
0,62,83,0
0,36,93,0
0,49,89,0
0,38,106,2
0,50,106,0
0,62,70,82
0,65,73,0
0,69,74,0
0,69,77,82
0,65,75,0
0,62,74,0
0,44,91,0
0,67,97,3
0,74,83,0
0,71,78,0
0,64,86,0
0,40,105,0
0,44,107,0
0,40,101,2
0,52,101,0
0,64,66,82
0,67,73,0
0,74,68,0
0,71,72,0
0,44,93,0
0,67,86,82
0,74,81,0
0,71,81,0
0,64,66,0
0,44,102,0
0,36,82,0
0,69,100,3
0,72,88,0
0,65,87,0
0,44,107,0
0,36,95,0
0,41,110,1
0,53,110,0
0,65,49,82
0,72,64,0
0,69,59,0
0,44,82,0
0,72,80,82
0,69,77,0
0,65,65,0
0,36,82,0
0,44,98,0
0,76,84,9
0,72,94,0
0,69,75,0
0,40,110,0
0,44,110,0
0,45,91,1
0,57,91,0
0,69,69,82
0,76,80,0
0,72,86,0
0,44,87,0
0,71,102,40
0,74,97,0
0,67,90,0
0,44,102,0
0,36,82,0
0,43,85,4
0,55,85,0
0,71,97,82
0,74,92,0
0,67,76,0
0,36,87,0
0,44,102,0
0,74,71,82
0,67,64,0
0,71,66,0
0,44,80,0
0,71,86,82
0,74,84,0
0,67,70,0
0,44,98,0
0,36,82,0
0,74,91,82
0,71,84,0
0,67,73,0
0,40,105,0
0,44,107,0
0,74,83,82
0,71,79,0
0,67,64,0
0,44,82,0
0,71,80,82
0,74,86,0
0,67,66,0
0,44,102,0
0,36,82,0
0,72,98,81
0,67,70,1
0,74,80,0
0,44,102,0
0,36,87,0
0,71,86,77
0,74,80,5
0,67,64,0
0,44,85,0
0,67,88,42
0,71,87,7
0,74,88,0
0,44,100,0
0,36,93,0
0,72,94,50
0,67,73,2
0,74,76,0
0,44,105,0
0,40,110,0
0,71,66,2
0,71,78,5
0,74,84,0
0,67,64,0
0,44,102,0
0,36,85,0
0,67,72,44
0,71,75,4
0,74,81,0
0,44,98,0
0,36,98,0
0,65,91,49
0,69,90,0
0,62,83,0
0,44,107,0
0,36,105,0
0,38,106,2
0,50,106,0
0,62,70,82
0,65,73,0
0,69,74,0
0,44,93,0
0,69,77,82
0,65,75,0
0,62,74,0
0,44,98,0
0,67,97,3
0,74,83,0
0,71,78,0
0,64,86,0
0,44,107,0
0,40,105,0
0,40,101,2
0,52,101,0
0,64,66,82
0,67,73,0
0,74,68,0
0,71,72,0
0,44,93,0
0,67,86,82
0,74,81,0
0,71,81,0
0,64,66,0
0,44,102,0
0,36,102,0
0,69,100,3
0,72,88,0
0,65,87,0
0,44,107,0
0,36,102,0
0,41,110,1
0,53,110,0
0,65,49,82
0,72,64,0
0,69,59,0
0,44,87,0
0,72,80,82
0,69,77,0
0,65,65,0
0,44,102,0
0,36,87,0
0,76,84,9
0,72,94,0
0,69,75,0
0,44,105,0
0,40,110,0
0,45,91,1
0,57,91,0
0,69,69,82
0,76,80,0
0,72,86,0
0,44,95,0
0,71,102,40
0,74,97,0
0,67,90,0
0,44,98,0
0,36,82,0
0,43,85,4
0,55,85,0
0,71,97,82
0,74,92,0
0,67,76,0
0,36,102,0
0,44,105,0
0,71,66,82
0,67,64,0
0,74,71,0
0,44,87,0
0,71,86,82
0,74,84,0
0,67,70,0
0,44,100,0
0,36,95,0
0,74,91,82
0,71,84,0
0,67,73,0
0,44,105,0
0,40,105,0
0,67,64,82
0,71,79,0
0,74,83,0
0,44,87,0
0,71,80,82
0,74,86,0
0,67,66,0
0,44,102,0
0,36,85,0
0,74,84,82
0,71,81,0
0,67,70,0
0,36,102,0
0,44,105,0
0,67,64,82
0,71,77,0
0,74,80,0
0,44,87,0
0,71,87,82
0,74,88,0
0,67,71,0
0,44,100,0
0,36,95,0
0,71,87,82
0,74,90,0
0,67,73,0
0,44,102,0
0,40,107,0
0,67,64,82
0,74,84,0
0,71,78,0
0,46,100,0
0,67,70,65
0,71,75,0
0,74,81,0
0,44,100,0
0,65,91,82
0,69,90,0
0,62,83,0
0,44,105,0
0,36,105,0
0,38,106,2
0,50,106,0
0,69,74,82
0,65,73,0
0,62,70,0
0,44,85,0
0,69,77,82
0,65,75,0
0,62,74,0
0,44,98,0
0,67,97,3
0,74,83,0
0,71,78,0
0,64,86,0
0,44,107,0
0,40,107,0
0,40,101,2
0,52,101,0
0,71,72,82
0,74,68,0
0,67,73,0
0,64,66,0
0,44,98,0
0,67,86,82
0,74,81,0
0,71,81,0
0,64,66,0
0,44,102,0
0,36,102,0
0,69,100,3
0,72,88,0
0,65,87,0
0,44,105,0
0,36,102,0
0,41,110,1
0,53,110,0
0,69,59,82
0,72,64,0
0,65,49,0
0,44,85,0
0,72,80,82
0,69,77,0
0,65,65,0
0,44,102,0
0,36,80,0
0,76,84,9
0,72,94,0
0,69,75,0
0,44,105,0
0,40,105,0
0,45,91,1
0,57,91,0
0,72,86,82
0,76,80,0
0,69,69,0
0,44,93,0
0,71,102,40
0,74,97,0
0,67,90,0
0,44,100,0
0,36,85,0
0,43,85,4
0,55,85,0
0,67,76,82
0,74,92,0
0,71,97,0
0,44,107,0
0,36,105,0
0,74,71,82
0,67,64,0
0,71,66,0
0,44,95,0
0,67,70,82
0,74,84,0
0,71,86,0
0,44,100,0
0,36,102,0
0,67,73,82
0,71,84,0
0,74,91,0
0,44,105,0
0,40,116,0
0,74,83,82
0,71,79,0
0,67,64,0
0,44,82,0
0,67,66,82
0,74,86,0
0,71,80,0
0,44,100,0
0,36,91,0
0,76,98,81
0,67,70,1
0,71,81,0
0,74,84,0
0,44,102,0
0,36,98,0
0,74,86,77
0,71,77,5
0,67,64,0
0,44,89,0
0,71,88,42
0,67,71,7
0,74,88,0
0,44,95,0
0,36,91,0
0,76,94,50
0,67,73,2
0,74,90,0
0,71,87,0
0,44,102,0
0,40,105,0
0,74,66,2
0,71,78,5
0,67,64,0
0,44,89,0
0,36,82,0
0,71,72,44
0,74,81,4
0,67,70,0
0,44,85,0
0,36,102,0
0,36,110,49
0,60,87,0
0,64,100,0
0,67,93,0
0,48,110,0
0,49,85,0
0,36,85,0
0,44,93,276
0,44,100,98
0,40,102,0
0,44,85,98
0,44,91,102
0,36,59,0
0,40,102,50
0,52,102,0
0,36,102,0
0,49,91,0
0,36,85,12
0,49,66,0
0,43,112,3
0,55,112,0
0,40,100,29
0,36,106,2
0,48,106,0
0,40,98,40
0,40,105,34
0,60,85,7
0,65,91,34
0,69,90,0
0,62,83,0
0,36,89,0
0,49,74,0
0,38,106,2
0,50,106,0
0,65,88,3
0,62,70,82
0,65,73,0
0,69,74,0
0,65,91,81
0,69,77,1
0,65,75,0
0,62,74,0
0,44,66,0
0,67,97,3
0,74,83,0
0,71,78,0
0,64,86,0
0,44,102,0
0,40,102,0
0,40,101,2
0,52,101,0
0,64,114,1
0,64,66,82
0,67,73,0
0,74,68,0
0,71,72,0
0,44,82,0
0,64,102,81
0,67,86,1
0,74,81,0
0,71,81,0
0,64,66,0
0,44,89,0
0,36,82,0
0,62,110,3
0,69,100,0
0,72,88,0
0,65,87,0
0,44,102,0
0,36,89,0
0,41,110,1
0,53,110,0
0,65,49,82
0,72,64,0
0,69,59,0
0,44,63,0
0,72,80,43
0,69,77,0
0,65,65,0
0,44,85,0
0,36,70,0
0,60,102,8
0,76,84,1
0,72,94,0
0,69,75,0
0,44,105,0
0,40,98,0
0,45,91,1
0,57,91,0
0,69,69,2
0,76,80,0
0,72,86,0
0,44,89,0
0,36,66,0
0,64,102,29
0,71,102,11
0,74,97,0
0,67,90,0
0,44,100,0
0,36,95,0
0,43,85,4
0,55,85,0
0,71,97,0
0,74,92,0
0,67,76,0
0,44,105,0
0,36,102,0
0,71,66,82
0,67,64,0
0,74,71,0
0,44,78,0
0,62,86,27
0,71,86,55
0,74,84,0
0,67,70,0
0,44,95,0
0,74,91,82
0,71,84,0
0,67,73,0
0,40,107,0
0,44,105,0
0,67,64,82
0,71,79,0
0,74,83,0
0,44,87,0
0,71,80,82
0,74,86,0
0,67,66,0
0,44,95,0
0,36,91,0
0,74,84,82
0,71,81,0
0,67,70,0
0,36,102,0
0,44,102,0
0,67,64,82
0,71,77,0
0,74,80,0
0,44,74,0
0,71,87,82
0,74,88,0
0,67,71,0
0,44,95,0
0,36,80,0
0,71,87,82
0,74,90,0
0,67,73,0
0,44,105,0
0,40,105,0
0,72,98,4
0,33,104,5
0,67,64,0
0,74,84,0
0,71,78,0
0,45,104,0
0,44,85,0
0,69,97,1
0,36,92,2
0,67,70,0
0,71,75,0
0,74,81,0
0,48,92,0
0,44,100,0
0,36,76,0
0,67,92,3
0,65,91,2
0,69,90,0
0,62,83,0
0,44,107,0
0,36,102,0
0,38,106,2
0,50,106,0
0,69,88,2
0,65,98,2
0,62,70,82
0,65,73,0
0,69,74,0
0,44,87,0
0,69,77,82
0,65,75,0
0,62,74,0
0,44,100,0
0,36,100,0
0,65,97,1
0,67,97,3
0,74,83,0
0,71,78,0
0,64,86,0
0,40,116,0
0,44,107,0
0,40,101,2
0,52,101,0
0,64,94,4
0,64,66,82
0,67,73,0
0,74,68,0
0,71,72,0
0,44,85,0
0,67,86,82
0,74,81,0
0,71,81,0
0,64,66,0
0,44,93,0
0,36,95,0
0,62,98,13
0,69,100,3
0,72,88,0
0,65,87,0
0,36,102,0
0,44,105,0
0,41,110,1
0,53,110,0
0,65,49,61
0,72,64,0
0,69,59,0
0,44,85,0
0,62,85,80
0,72,80,2
0,69,77,0
0,65,65,0
0,44,100,0
0,36,85,0
0,60,84,3
0,76,84,6
0,72,94,0
0,69,75,0
0,44,107,0
0,40,105,0
0,45,91,1
0,57,91,0
0,69,69,1
0,76,80,0
0,72,86,0
0,44,98,0
0,62,87,34
0,71,102,6
0,74,97,0
0,67,90,0
0,44,100,0
0,36,87,0
0,43,85,4
0,55,85,0
0,71,97,82
0,74,92,0
0,67,76,0
0,44,105,0
0,36,93,0
0,71,66,82
0,67,64,0
0,74,71,0
0,44,87,0
0,71,86,82
0,74,84,0
0,67,70,0
0,44,102,0
0,36,91,0
0,74,91,82
0,71,84,0
0,67,73,0
0,44,107,0
0,40,110,0
0,67,64,82
0,71,79,0
0,74,83,0
0,44,85,0
0,71,80,16
0,74,86,0
0,67,66,0
0,44,98,0
0,36,64,0
0,74,84,82
0,71,81,0
0,67,70,0
0,44,105,0
0,36,100,0
0,67,64,82
0,71,77,0
0,74,80,0
0,44,68,0
0,71,87,82
0,74,88,0
0,67,71,0
0,44,98,0
0,36,64,0
0,71,87,82
0,74,90,0
0,67,73,0
0,44,107,0
0,40,105,0
0,72,114,1
0,69,95,0
0,33,104,1
0,67,64,0
0,74,84,0
0,71,78,0
0,45,104,0
0,44,85,0
0,67,87,7
0,60,102,1
0,36,92,1
0,67,70,0
0,71,75,0
0,74,81,0
0,48,92,0
0,44,98,0
0,65,91,0
0,69,90,0
0,62,83,0
0,44,105,0
0,36,100,0
0,65,92,2
0,38,106,0
0,50,106,0
0,69,97,0
0,62,70,82
0,65,73,0
0,69,74,0
0,44,76,0
0,62,94,81
0,69,77,1
0,65,75,0
0,62,74,0
0,44,98,0
0,67,97,3
0,74,83,0
0,71,78,0
0,64,86,0
0,44,102,0
0,40,100,0
0,40,101,2
0,52,101,0
0,64,85,2
0,64,66,43
0,67,73,0
0,74,68,0
0,71,72,0
0,44,85,0
0,60,84,5
0,67,86,46
0,74,81,0
0,71,81,0
0,64,66,0
0,44,95,0
0,36,95,0
0,62,86,3
0,69,100,3
0,72,88,0
0,65,87,0
0,44,105,0
0,36,102,0
0,41,110,1
0,53,110,0
0,65,49,82
0,72,64,0
0,69,59,0
0,44,70,0
0,72,80,65
0,69,77,0
0,65,65,0
0,44,98,0
0,36,93,0
0,60,92,1
0,76,84,8
0,72,94,0
0,69,75,0
0,44,107,0
0,40,107,0
0,45,91,1
0,57,91,0
0,69,69,6
0,76,80,0
0,72,86,0
0,44,85,0
0,64,86,35
0,71,102,5
0,74,97,0
0,67,90,0
0,44,98,0
0,36,80,0
0,43,85,4
0,55,85,0
0,71,97,0
0,74,92,0
0,67,76,0
0,36,102,0
0,44,102,0
0,62,76,78
0,71,66,4
0,67,64,0
0,74,71,0
0,44,78,0
0,71,86,82
0,74,84,0
0,67,70,0
0,44,100,0
0,36,87,0
0,74,91,82
0,71,84,0
0,67,73,0
0,44,107,0
0,40,110,0
0,67,64,64
0,71,79,0
0,74,83,0
0,44,82,0
0,71,80,82
0,74,86,0
0,67,66,0
0,44,105,0
0,36,89,0
0,74,84,82
0,71,81,0
0,67,70,0
0,44,105,0
0,36,98,0
0,40,98,11
0,67,64,0
0,71,77,0
0,74,80,0
0,52,98,0
0,44,82,0
0,43,98,2
0,71,87,0
0,74,88,0
0,67,71,0
0,55,98,0
0,36,87,0
0,72,104,1
0,45,91,1
0,71,87,0
0,74,90,0
0,67,73,0
0,57,91,0
0,44,105,0
0,40,105,0
0,64,94,1
0,67,78,28
0,43,85,2
0,67,64,0
0,74,84,0
0,71,78,0
0,55,85,0
0,44,72,0
0,69,102,4
0,40,88,2
0,67,70,0
0,71,75,0
0,74,81,0
0,52,88,0
0,44,95,0
0,40,100,0
0,67,91,4
0,64,73,1
0,69,67,1
0,67,91,24
0,36,110,2
0,48,100,0
0,36,113,0
0,67,87,0
0,64,93,0
0,60,87,0
0,48,110,0
0,36,91,0
0,49,76,0
0,60,88,4
0,44,91,276
0,44,102,102
0,40,102,0
0,44,80,102
0,44,93,14
0,36,78,0
0,40,102,14
0,52,102,0
0,36,102,0
0,36,85,0
0,49,85,0
0,36,100,12
0,49,82,0
0,36,82,0
0,43,112,3
0,55,112,0
0,60,106,27
0,40,113,2
0,45,110,0
0,36,106,2
0,48,106,0
0,36,102,50
0,65,91,28
0,69,90,0
0,62,83,0
0,36,98,0
0,49,98,0
0,65,81,1
0,38,106,1
0,50,106,0
0,62,70,82
0,65,73,0
0,69,74,0
0,69,77,30
0,65,75,0
0,62,74,0
0,44,78,0
0,62,88,2
0,67,97,3
0,74,83,0
0,71,78,0
0,64,86,0
0,44,102,0
0,40,100,0
0,40,101,2
0,52,101,0
0,64,84,4
0,64,66,82
0,67,73,0
0,74,68,0
0,71,72,0
0,44,82,0
0,60,88,48
0,67,86,0
0,74,81,0
0,71,81,0
0,64,66,0
0,44,102,0
0,36,93,0
0,62,98,1
0,69,100,2
0,72,88,0
0,65,87,0
0,44,107,0
0,36,98,0
0,41,110,1
0,53,110,0
0,65,49,82
0,72,64,0
0,69,59,0
0,44,80,0
0,72,80,82
0,69,77,0
0,65,65,0
0,44,95,0
0,36,80,0
0,60,94,7
0,76,84,2
0,72,94,0
0,69,75,0
0,44,107,0
0,40,102,0
0,45,91,1
0,57,91,0
0,69,69,82
0,76,80,0
0,72,86,0
0,44,76,0
0,64,84,31
0,71,102,9
0,74,97,0
0,67,90,0
0,44,93,0
0,36,82,0
0,43,85,4
0,55,85,0
0,71,97,82
0,74,92,0
0,67,76,0
0,44,105,0
0,36,98,0
0,71,66,46
0,67,64,0
0,74,71,0
0,44,80,0
0,62,90,36
0,71,86,82
0,74,84,0
0,67,70,0
0,44,95,0
0,36,91,0
0,74,91,82
0,71,84,0
0,67,73,0
0,44,107,0
0,40,116,0
0,67,64,82
0,71,79,0
0,74,83,0
0,44,80,0
0,71,80,82
0,74,86,0
0,67,66,0
0,44,100,0
0,36,85,0
0,74,84,24
0,71,81,0
0,67,70,0
0,44,102,0
0,36,91,0
0,67,64,82
0,71,77,0
0,74,80,0
0,44,64,0
0,71,87,82
0,74,88,0
0,67,71,0
0,44,89,0
0,36,87,0
0,71,87,82
0,74,90,0
0,67,73,0
0,44,105,0
0,40,110,0
0,72,98,4
0,33,104,5
0,67,64,0
0,74,84,0
0,71,78,0
0,45,104,0
0,44,82,0
0,69,97,1
0,60,80,2
0,36,92,2
0,67,70,0
0,71,75,0
0,74,81,0
0,48,92,0
0,44,100,0
0,36,76,0
