track,note,velocity,time
0,57,70,2264
0,59,87,19
0,57,70,128
0,59,87,19
0,57,87,136
0,57,87,136
0,57,90,22
0,66,77,0
0,69,84,0
0,59,90,0
0,62,96,0
0,47,90,0
0,35,75,0
0,36,69,0
0,57,90,22
0,57,96,7
0,35,76,0
0,36,58,0
0,35,67,16
0,36,66,0
0,57,96,14
0,35,63,27
0,36,64,0
0,35,65,1
0,36,61,0
0,35,65,12
0,36,55,0
0,35,76,16
0,36,72,0
0,57,82,4
0,59,89,6
0,57,94,17
0,35,72,10
0,36,56,0
0,57,82,10
0,59,89,4
0,57,98,16
0,45,95,0
0,61,73,0
0,66,65,0
0,59,84,0
0,64,90,0
0,33,83,0
0,36,69,0
0,57,94,22
0,57,98,0
0,57,98,20
0,33,70,11
0,36,58,0
0,57,98,4
0,33,79,12
0,36,66,0
0,33,74,27
0,36,64,0
0,33,76,1
0,36,61,0
0,33,67,12
0,36,55,0
0,33,74,16
0,36,72,0
0,57,79,13
0,59,82,9
0,57,71,20
0,33,82,7
0,36,56,0
0,57,79,1
0,59,82,5
0,43,83,0
0,59,90,0
0,62,87,0
0,67,86,0
0,64,86,0
0,31,85,0
0,36,69,0
0,55,90,2
0,57,71,23
0,55,90,10
0,55,87,1
0,31,80,10
0,36,58,0
0,31,79,16
0,36,66,0
0,55,87,8
0,55,82,0
0,57,77,20
0,31,67,17
0,36,64,0
0,55,82,6
0,57,77,20
0,55,90,7
0,31,80,1
0,36,61,0
0,55,90,7
0,54,85,8
0,31,67,12
0,36,55,0
0,52,82,0
0,31,72,16
0,36,72,0
0,54,85,8
0,52,82,0
0,54,66,20
0,55,86,29
0,31,75,23
0,36,56,0
0,54,66,0
0,54,87,2
0,47,86,0
0,57,77,0
0,59,89,0
0,62,89,0
0,66,66,0
0,35,87,0
0,36,69,0
0,55,86,3
0,54,87,6
0,35,85,11
0,36,58,0
0,35,78,16
0,36,66,0
0,35,73,12
0,36,64,0
0,35,78,1
0,36,61,0
0,35,82,12
0,36,55,0
0,35,76,16
0,36,72,0
0,50,96,14
0,52,87,1
0,35,84,26
0,36,56,0
0,50,96,20
0,53,84,8
0,54,65,20
0,35,85,0
0,36,69,0
0,52,87,6
0,53,76,21
0,54,66,6
0,53,84,4
0,54,65,4
0,35,84,11
0,36,58,0
0,53,76,17
0,54,66,16
0,35,86,9
0,36,66,0
0,35,82,21
0,36,64,0
0,35,82,1
0,36,61,0
0,35,81,12
0,36,55,0
0,35,85,16
0,36,72,0
0,58,85,23
0,59,81,2
0,59,94,21
0,35,83,6
0,36,56,0
0,58,85,3
0,59,81,3
0,52,92,14
0,45,95,0
0,57,86,0
0,64,83,0
0,59,93,0
0,61,76,0
0,45,96,0
0,33,76,0
0,36,69,0
0,59,94,26
0,52,94,3
0,52,92,16
0,33,72,11
0,36,58,0
0,52,94,9
0,33,79,10
0,36,66,0
0,33,75,25
0,36,64,0
0,33,73,1
0,36,61,0
0,33,79,12
0,36,55,0
0,33,82,16
0,36,72,0
0,53,77,6
0,54,76,0
0,52,74,6
0,33,81,21
0,36,56,0
0,53,77,12
0,54,76,6
0,50,84,16
0,55,98,0
0,59,96,0
0,62,93,0
0,43,127,0
0,31,92,0
0,36,69,0
0,52,74,11
0,50,84,21
0,31,71,11
0,36,58,0
0,50,89,18
0,31,81,16
0,36,66,0
0,47,78,0
0,50,67,6
0,50,89,8
0,47,78,0
0,31,79,27
0,36,64,0
0,50,67,7
0,57,98,0
0,61,69,0
0,31,81,0
0,36,61,0
0,31,86,1
0,36,55,0
0,31,90,3
0,36,72,0
0,28,100,7
0,36,60,0
0,47,68,20
0,29,110,5
0,36,56,0
0,59,98,0
0,62,95,0
0,31,83,0
0,36,69,0
0,50,83,7
0,47,68,9
0,50,83,15
0,50,83,7
0,31,77,4
0,36,58,0
0,31,78,16
0,36,66,0
0,50,83,12
0,50,86,22
0,31,83,27
0,36,64,0
0,50,86,28
0,57,95,0
0,61,69,0
0,31,82,0
0,36,61,0
0,31,81,4
0,36,55,0
0,31,89,16
0,36,72,0
0,28,100,2
0,36,60,0
0,29,110,13
0,36,56,0
0,50,64,30
0,59,97,0
0,62,86,0
0,31,92,0
0,36,69,0
0,50,83,6
0,31,91,11
0,36,58,0
0,31,92,16
0,36,66,0
0,31,86,12
0,36,64,0
0,49,79,3
0,61,100,0
0,64,97,0
0,31,90,0
0,36,61,0
0,49,79,5
0,47,68,4
0,31,89,8
0,36,55,0
0,31,91,16
0,36,72,0
0,47,68,10
0,45,76,4
0,31,87,4
0,36,56,0
0,45,76,3
0,47,89,20
0,66,80,0
0,42,105,0
0,59,87,0
0,62,94,0
0,30,74,0
0,36,69,0
0,47,89,22
0,30,71,11
0,36,58,0
0,30,82,5
0,36,66,0
0,30,79,25
0,36,64,0
0,30,79,0
0,36,61,0
0,30,82,12
0,36,55,0
0,30,81,0
0,36,72,0
0,30,84,27
0,36,56,0
0,30,74,0
0,36,69,0
0,36,89,28
0,30,71,11
0,36,58,0
0,30,82,16
0,36,66,0
0,30,79,27
0,36,64,0
0,30,79,1
0,36,61,0
0,30,82,12
0,36,55,0
0,30,81,16
0,36,72,0
0,30,84,27
0,36,56,0
0,30,74,0
0,36,69,0
0,30,71,11
0,36,58,0
0,30,82,16
0,36,66,0
0,28,73,11
0,30,79,27
0,36,64,0
0,30,79,1
0,36,61,0
0,30,82,12
0,36,55,0
0,30,81,16
0,36,72,0
0,30,84,27
0,36,56,0
0,30,74,0
0,63,77,0
0,58,81,0
0,36,69,0
0,30,71,11
0,36,58,0
0,30,82,16
0,36,66,0
0,30,79,27
0,36,64,0
0,30,79,1
0,36,61,0
0,30,82,11
0,36,55,0
0,30,81,16
0,36,72,0
0,30,84,27
0,36,56,0
0,30,74,0
0,58,58,0
0,63,81,0
0,66,80,0
0,36,69,0
0,30,71,11
0,58,55,0
0,63,72,0
0,66,75,0
0,36,58,0
0,30,82,16
0,58,62,0
0,63,92,0
0,66,90,0
0,36,66,0
0,58,59,8
0,63,73,0
0,66,73,0
0,30,79,0
0,36,64,0
0,30,79,1
0,58,61,0
0,63,85,0
0,66,78,0
0,36,61,0
0,30,82,9
0,58,61,0
0,63,71,0
0,66,65,0
0,36,55,0
0,58,77,8
0,63,85,0
0,66,81,0
0,30,81,0
0,36,72,0
0,58,74,2
0,63,72,0
0,66,73,0
0,30,84,0
0,36,56,0
0,30,74,0
0,58,81,0
0,61,76,0
0,65,67,0
0,36,69,0
0,30,71,4
0,58,65,0
0,61,67,0
0,65,79,0
0,36,58,0
0,58,76,4
0,61,85,0
0,65,89,0
0,30,82,0
0,36,66,0
0,30,79,0
0,58,80,0
0,61,71,0
0,65,80,0
0,36,64,0
0,30,79,1
0,58,83,0
0,61,83,0
0,65,92,0
0,36,61,0
0,30,82,12
0,58,80,0
0,61,72,0
0,65,81,0
0,36,55,0
0,30,81,4
0,58,86,0
0,61,76,0
0,65,87,0
0,36,72,0
0,30,84,18
0,58,92,0
0,61,69,0
0,65,86,0
0,36,56,0
0,30,74,0
0,58,58,0
0,63,81,0
0,66,80,0
0,42,54,0
0,36,69,0
0,59,80,2
0,42,70,0
0,58,76,8
0,42,62,0
0,30,71,11
0,58,59,0
0,63,72,0
0,66,75,0
0,42,71,0
0,36,58,0
0,30,82,16
0,58,66,0
0,63,92,0
0,66,90,0
0,42,75,0
0,36,66,0
0,59,81,1
0,42,73,0
0,58,69,24
0,42,74,0
0,30,79,27
0,58,61,0
0,63,73,0
0,66,73,0
0,42,65,0
0,36,64,0
0,30,79,1
0,58,63,0
0,63,85,0
0,66,78,0
0,42,78,0
0,36,61,0
0,59,94,2
0,42,71,0
0,58,72,9
0,42,69,0
0,30,82,12
0,58,63,0
0,63,71,0
0,66,65,0
0,42,73,0
0,36,55,0
0,30,81,16
0,58,63,0
0,63,85,0
0,66,81,0
0,42,77,0
0,36,72,0
0,59,89,6
0,42,68,0
0,58,72,24
0,42,59,0
0,30,84,27
0,58,76,0
0,63,72,0
0,66,73,0
0,42,68,0
0,36,56,0
0,30,74,1
0,58,67,0
0,61,76,0
0,65,67,0
0,42,69,0
0,36,69,0
0,59,80,2
0,42,70,0
0,58,76,36
0,42,68,0
0,30,71,20
0,58,61,0
0,61,67,0
0,65,79,0
0,42,68,0
0,36,58,0
0,30,82,0
0,58,59,0
0,61,85,0
0,65,89,0
0,42,65,0
0,36,66,0
0,59,81,3
0,42,69,0
0,58,69,27
0,42,66,0
0,30,79,27
0,58,59,0
0,61,71,0
0,65,80,0
0,42,73,0
0,36,64,0
0,30,79,16
0,58,59,0
0,61,83,0
0,65,92,0
0,42,74,0
0,36,61,0
0,59,94,2
0,42,68,0
0,58,72,5
0,42,65,0
0,30,82,29
0,58,59,0
0,61,72,0
0,65,81,0
0,42,71,0
0,36,55,0
0,30,81,52
0,58,64,0
0,61,76,0
0,65,87,0
0,42,72,0
0,36,72,0
0,59,89,40
0,42,64,0
0,58,72,32
0,42,52,0
0,30,84,0
0,58,70,0
0,61,69,0
0,65,86,0
0,46,70,0
0,36,56,0
0,34,90,44
0,58,58,0
0,63,81,0
0,66,80,0
0,36,77,0
0,42,79,0
0,51,92,0
0,59,80,35
0,58,92,0
0,42,59,0
0,58,76,36
0,42,57,0
0,34,81,20
0,58,59,0
0,63,72,0
0,66,75,0
0,36,78,0
0,42,67,0
0,63,100,0
0,58,66,76
0,63,92,0
0,66,90,0
0,66,110,0
0,36,81,0
0,42,84,0
0,34,78,24
0,59,81,1
0,42,62,0
0,58,69,29
0,42,62,0
0,34,81,4
0,58,61,0
0,63,73,0
0,66,73,0
0,36,78,0
0,42,71,0
0,34,87,73
0,58,63,0
0,63,85,0
0,66,78,0
0,36,80,0
0,42,84,0
0,59,94,6
0,42,63,0
0,58,72,35
0,42,66,0
0,34,84,33
0,58,63,0
0,63,71,0
0,66,65,0
0,36,78,0
0,42,71,0
0,34,87,72
0,58,63,0
0,63,85,0
0,66,81,0
0,36,77,0
0,42,76,0
0,59,89,10
0,42,66,0
0,58,72,32
0,42,71,0
0,34,89,28
0,58,76,0
0,63,72,0
0,66,73,0
0,36,83,0
0,42,75,0
0,70,120,0
0,34,91,88
0,58,67,0
0,61,76,0
0,65,67,0
0,46,110,0
0,36,84,0
0,42,89,0
0,59,80,13
0,42,71,0
0,58,100,0
0,58,76,32
0,42,67,0
0,34,92,20
0,58,61,0
0,61,67,0
0,65,79,0
0,36,82,0
0,42,74,0
0,70,103,0
0,34,91,62
0,58,59,0
0,61,85,0
0,65,89,0
0,68,103,0
0,36,78,0
0,42,79,0
0,59,81,0
0,42,71,0
0,58,69,29
0,42,67,0
0,34,93,49
0,58,59,0
0,61,71,0
0,65,80,0
0,36,81,0
0,42,69,0
0,34,91,45
0,58,59,0
0,61,83,0
0,65,92,0
0,36,77,0
0,42,78,0
0,59,94,8
0,42,67,0
0,58,72,34
0,42,65,0
0,34,92,33
0,58,59,0
0,61,72,0
0,65,81,0
0,36,83,0
0,42,73,0
0,34,95,24
0,58,64,0
0,61,76,0
0,65,87,0
0,36,81,0
0,42,78,0
0,59,89,40
0,42,68,0
0,58,72,12
0,42,60,0
0,34,88,28
0,58,70,0
0,61,69,0
0,65,86,0
0,36,79,0
0,46,78,0
0,47,86,0
0,46,79,0
0,34,118,1
0,58,58,0
0,63,81,0
0,66,80,0
0,36,100,0
0,42,83,0
0,43,93,0
0,51,92,0
0,59,80,35
0,58,92,0
0,42,67,0
0,58,76,29
0,42,73,0
0,58,59,20
0,63,72,0
0,66,75,0
0,42,75,0
0,63,100,0
0,58,66,81
0,63,92,0
0,66,90,0
0,66,110,0
0,42,79,0
0,59,81,1
0,42,68,0
0,58,69,29
0,42,72,0
0,58,61,49
0,63,73,0
0,66,73,0
0,46,90,0
0,47,85,0
0,46,63,10
0,34,99,3
0,58,63,0
0,63,85,0
0,66,78,0
0,36,88,0
0,43,84,0
0,42,85,0
0,59,94,6
0,42,59,0
0,58,72,32
0,42,73,0
0,58,63,33
0,63,71,0
0,66,65,0
0,43,84,0
0,36,93,0
0,42,72,0
0,34,97,16
0,58,63,32
0,63,85,0
0,66,81,0
0,42,80,0
0,59,89,30
0,42,62,0
0,58,72,32
0,42,67,0
0,58,76,28
0,63,72,0
0,66,73,0
0,46,79,0
0,47,81,0
0,70,120,0
0,46,75,25
0,34,104,32
0,58,67,0
0,61,76,0
0,65,67,0
0,36,92,0
0,43,89,0
0,42,81,0
0,46,110,0
0,59,80,30
0,58,100,0
0,42,57,0
0,58,76,36
0,42,52,0
0,58,61,20
0,61,67,0
0,65,79,0
0,42,71,0
0,70,103,0
0,58,59,16
0,61,85,0
0,65,89,0
0,68,103,0
0,42,79,0
0,59,81,3
0,42,57,0
0,58,69,29
0,42,67,0
0,58,59,28
0,61,71,0
0,65,80,0
0,47,95,0
0,46,75,0
0,46,68,33
0,34,107,22
0,58,59,0
0,61,83,0
0,65,92,0
0,36,88,0
0,43,85,0
0,42,84,0
0,59,94,8
0,42,63,0
0,58,72,35
0,42,55,0
0,34,117,33
0,58,59,0
0,61,72,0
0,65,81,0
0,43,88,0
0,36,92,0
0,42,76,0
0,58,64,57
0,61,76,0
0,65,87,0
0,42,84,0
0,59,89,40
0,42,71,0
0,58,72,32
0,42,75,0
0,58,70,19
0,61,69,0
0,65,86,0
0,46,79,0
0,47,87,0
0,46,71,0
0,34,110,0
0,58,58,0
0,63,81,0
0,66,80,0
0,36,92,0
0,43,85,0
0,42,83,0
0,51,92,0
0,59,80,0
0,58,92,0
0,42,71,0
0,58,76,0
0,42,64,0
0,58,59,20
0,63,72,0
0,66,75,0
0,42,70,0
0,63,100,0
0,58,66,44
0,63,92,0
0,66,90,0
0,66,110,0
0,42,80,0
0,59,81,1
0,42,78,0
0,58,69,26
0,42,70,0
0,58,61,25
0,63,73,0
0,66,73,0
0,46,74,0
0,47,85,0
0,46,65,10
0,34,125,32
0,58,63,0
0,63,85,0
0,66,78,0
0,36,88,0
0,43,84,0
0,42,87,0
0,59,94,3
0,42,70,0
0,58,72,35
0,42,59,0
0,34,115,31
0,58,63,0
0,63,71,0
0,66,65,0
0,43,82,0
0,36,94,0
0,42,68,0
0,58,63,58
0,63,85,0
0,66,81,0
0,42,75,0
0,59,89,30
0,42,73,0
0,58,72,28
0,42,74,0
0,58,76,28
0,63,72,0
0,66,73,0
0,46,76,0
0,47,88,0
0,70,120,0
0,46,63,25
0,58,67,0
0,61,76,0
0,65,67,0
0,36,88,0
0,43,82,0
0,42,83,0
0,46,110,0
0,34,115,0
0,59,80,0
0,58,100,0
0,42,69,0
0,58,76,0
0,42,67,0
0,58,61,20
0,61,67,0
0,65,79,0
0,42,75,0
0,70,103,0
0,58,59,64
0,61,85,0
0,65,89,0
0,68,103,0
0,42,77,0
0,59,81,3
0,42,73,0
0,58,69,29
0,42,73,0
0,58,59,20
0,61,71,0
0,65,80,0
0,46,71,0
0,47,85,0
0,46,66,32
0,34,112,9
0,58,59,0
0,61,83,0
0,65,92,0
0,36,86,0
0,43,80,0
0,46,127,0
0,59,94,0
0,47,84,0
0,58,72,35
0,47,110,0
0,47,99,4
0,34,117,0
0,58,59,0
0,61,72,0
0,65,81,0
0,47,110,0
0,58,64,0
0,61,76,0
0,65,87,0
0,59,89,40
0,47,101,0
0,45,93,0
0,58,72,31
0,58,70,28
0,61,69,0
0,65,86,0
0,45,118,0
0,43,107,0
0,34,82,0
0,66,87,0
0,58,80,0
0,63,73,0
0,66,75,0
0,51,104,0
0,36,83,0
0,57,86,0
0,66,104,0
0,59,90,0
0,66,87,0
0,42,76,0
0,58,104,15
0,42,72,0
0,66,104,6
0,34,90,0
0,58,57,0
0,63,56,0
0,66,52,0
0,36,86,0
0,42,96,0
0,65,104,57
0,58,90,0
0,63,90,0
0,66,75,0
0,42,78,0
0,51,96,0
0,65,104,6
0,34,93,0
0,59,90,0
0,36,90,0
0,42,89,0
0,58,87,20
0,42,81,0
