track,note,velocity,time
3,37,84,480
3,37,0,43
3,37,64,77
3,37,0,44
3,37,64,76
3,37,0,51
3,37,64,69
3,37,0,41
3,37,64,79
3,37,0,41
3,40,49,829
3,40,0,13
3,40,119,17
3,40,0,28
3,36,108,32
3,42,119,0
3,42,0,13
3,36,0,0
3,36,103,17
3,42,70,0
3,42,0,13
3,36,0,2
3,40,108,15
3,42,119,0
3,42,0,13
3,40,0,5
3,42,77,12
3,42,0,11
3,42,119,19
3,42,0,13
3,36,99,17
3,42,39,0
3,42,0,10
3,36,0,6
3,40,104,14
3,42,111,0
3,42,0,14
3,40,0,6
3,42,62,10
3,42,0,15
3,42,119,15
3,42,0,14
3,36,108,16
3,42,78,0
3,42,0,14
3,36,0,6
3,40,108,10
3,42,119,0
3,42,0,13
3,40,0,8
3,42,70,9
3,42,0,13
3,42,119,17
3,42,0,13
3,36,108,17
3,42,70,0
3,42,0,11
3,36,0,6
3,40,108,13
3,42,119,0
3,42,0,11
3,40,0,8
3,42,77,11
3,42,0,13
3,36,111,17
3,42,119,0
3,36,0,11
3,42,0,1
3,36,93,18
3,42,70,0
3,42,0,14
3,36,0,1
3,40,104,15
3,42,111,0
3,42,0,13
3,40,0,7
3,42,70,10
3,42,0,13
3,42,104,17
3,42,0,12
3,36,103,18
3,42,49,0
3,42,0,15
3,36,0,3
3,40,108,12
3,42,119,0
3,42,0,14
3,40,0,7
3,42,47,9
3,42,0,13
3,42,119,17
3,42,0,13
3,36,108,17
3,42,57,0
3,42,0,15
3,36,0,3
3,40,104,12
3,42,111,0
3,42,0,12
3,40,0,9
3,42,78,9
3,42,0,15
3,36,104,15
3,46,104,0
3,36,0,16
3,46,0,3
3,36,108,41
3,40,108,0
3,42,104,0
3,42,0,10
3,36,0,5
3,40,0,3
3,36,111,42
3,49,95,0
3,49,0,10
3,36,0,6
3,40,108,44
3,42,78,0
3,42,0,11
3,40,0,9
3,42,79,10
3,42,0,12
3,42,99,18
3,42,0,13
3,36,104,17
3,42,50,0
3,42,0,5
3,36,0,13
3,40,104,12
3,42,99,0
3,42,0,13
3,40,0,7
3,42,66,10
3,42,0,11
3,42,111,19
3,42,0,12
3,36,104,18
3,42,50,0
3,42,0,11
3,36,0,6
3,40,108,13
3,42,111,0
3,42,0,11
3,40,0,9
3,42,62,10
3,42,0,11
3,42,104,19
3,42,0,11
3,36,108,19
3,42,62,0
3,42,0,12
3,36,0,7
3,40,108,11
3,42,119,0
3,42,0,12
3,40,0,10
3,42,47,8
3,42,0,11
3,42,111,19
3,42,0,12
3,36,108,18
3,42,59,0
3,42,0,11
3,36,0,9
3,40,108,10
3,42,111,0
3,42,0,11
3,40,0,12
3,42,77,7
3,42,0,12
3,42,111,18
3,42,0,12
3,36,104,18
3,42,74,0
3,42,0,12
3,36,0,7
3,40,104,11
3,42,104,0
3,42,0,11
3,40,0,17
3,42,70,2
3,42,0,13
3,42,104,17
3,42,0,10
3,36,103,20
3,42,70,0
3,42,0,11
3,36,0,10
3,40,104,9
3,42,111,0
3,42,0,13
3,40,0,12
3,42,57,5
3,42,0,10
3,42,111,20
3,42,0,11
3,36,103,19
3,42,74,0
3,42,0,12
3,36,0,9
3,40,104,9
3,42,111,0
3,42,0,11
3,40,0,12
3,42,79,7
3,42,0,13
3,42,111,17
3,42,0,14
3,36,103,16
3,42,77,0
3,42,0,13
3,36,0,13
3,40,108,4
3,42,111,0
3,42,0,14
3,40,0,11
3,42,62,5
3,42,0,13
3,42,119,17
3,42,0,15
3,36,95,15
3,42,66,0
3,42,0,13
3,36,0,12
3,40,111,5
3,42,111,0
3,42,0,13
3,40,0,10
3,42,77,7
3,42,0,14
3,42,111,16
3,42,0,13
3,36,104,17
3,42,69,0
3,42,0,12
3,36,0,11
3,40,111,7
3,42,111,0
3,42,0,15
3,40,0,6
3,42,79,9
3,42,0,14
3,42,111,16
3,42,0,14
3,36,103,16
3,42,77,0
3,42,0,13
3,36,0,11
3,40,108,6
3,42,111,0
3,42,0,15
3,40,0,8
3,42,74,7
3,42,0,11
3,42,104,19
3,42,0,16
3,36,99,14
3,42,78,0
3,42,0,14
3,36,0,10
3,40,108,6
3,42,104,0
3,42,0,16
3,40,0,10
3,42,74,4
3,42,0,10
3,42,104,20
3,42,0,18
3,36,104,12
3,42,77,0
3,42,0,13
3,36,0,11
3,40,111,6
3,42,111,0
3,42,0,16
3,40,0,14
3,42,79,0
3,42,0,13
3,42,111,17
3,42,0,16
3,36,99,14
3,42,82,0
3,42,0,13
3,36,0,8
3,40,111,9
3,42,104,0
3,42,0,16
3,40,0,14
3,42,74,0
3,42,0,11
3,42,104,19
3,50,108,0
3,50,0,16
3,42,0,1
3,36,95,13
3,42,82,0
3,42,0,12
3,36,0,6
3,40,109,12
3,42,111,0
3,42,0,18
3,40,0,6
3,42,66,6
3,42,0,11
3,42,119,19
3,42,0,13
3,36,100,17
3,42,70,0
3,42,0,13
3,36,0,1
3,40,108,16
3,42,119,0
3,42,0,13
3,40,0,10
3,42,77,7
3,42,0,11
3,42,119,19
3,42,0,13
3,36,100,17
3,42,56,0
3,42,0,10
3,36,0,3
3,40,108,17
3,42,111,0
3,42,0,14
3,40,0,7
3,42,62,9
3,42,0,15
3,42,119,15
3,42,0,14
3,36,98,16
3,42,78,0
3,36,0,12
3,42,0,2
3,40,108,16
3,42,119,0
3,42,0,13
3,40,0,15
3,42,70,2
3,42,0,13
3,42,119,17
3,42,0,13
3,36,100,17
3,42,70,0
3,42,0,11
3,36,0,2
3,40,108,17
3,42,119,0
3,42,0,11
3,40,0,11
3,42,77,8
3,42,0,13
3,42,119,17
3,42,0,13
3,36,100,17
3,42,70,0
3,42,0,13
3,36,0,0
3,40,104,17
3,42,119,0
3,42,0,13
3,40,0,10
3,42,77,7
3,42,0,11
3,42,119,19
3,42,0,13
3,36,98,17
3,42,56,0
3,42,0,10
3,36,0,3
3,40,108,17
3,42,111,0
3,42,0,14
3,40,0,10
3,42,62,6
3,42,0,15
3,42,119,15
3,42,0,14
3,36,100,16
3,42,78,0
3,42,0,14
3,36,0,0
3,40,104,16
3,42,119,0
3,42,0,13
3,40,0,8
3,42,70,9
3,42,0,13
3,42,119,17
3,42,0,13
3,36,100,17
3,42,70,0
3,42,0,11
3,36,0,2
3,40,104,17
3,42,119,0
3,42,0,11
3,40,0,10
3,42,77,9
3,42,0,13
3,42,119,17
3,42,0,13
3,36,96,17
3,42,70,0
3,36,0,12
3,42,0,1
3,40,104,17
3,42,119,0
3,42,0,13
3,40,0,8
3,42,77,9
3,42,0,11
3,42,119,19
3,42,0,13
3,36,100,17
3,42,56,0
3,42,0,10
3,36,0,3
3,40,104,17
3,42,111,0
3,42,0,14
3,40,0,9
3,42,62,7
3,42,0,15
3,42,119,15
3,42,0,14
3,36,104,16
3,42,78,0
3,36,0,13
3,42,0,1
3,40,108,16
3,42,119,0
3,42,0,13
3,40,0,9
3,42,70,8
3,42,0,13
3,42,119,17
3,42,0,13
3,36,96,17
3,42,70,0
3,42,0,11
3,36,0,0
3,40,104,19
3,42,119,0
3,42,0,11
3,40,0,12
3,42,77,7
3,42,0,13
3,42,119,17
3,42,0,13
3,36,104,17
3,42,70,0
3,36,0,12
3,42,0,1
3,40,104,17
3,42,119,0
3,42,0,13
3,40,0,10
3,42,77,7
3,42,0,11
3,42,119,19
3,42,0,13
3,36,104,17
3,42,56,0
3,42,0,10
3,36,0,3
3,40,103,17
3,42,111,0
3,42,0,14
3,40,0,9
3,42,62,7
3,42,0,15
3,42,119,15
3,42,0,14
3,36,104,16
3,42,78,0
3,36,0,13
3,42,0,1
3,40,104,16
3,42,119,0
3,42,0,13
3,40,0,13
3,42,70,4
3,42,0,13
3,46,104,17
3,46,0,19
3,36,98,11
3,36,0,13
3,40,108,17
3,42,119,0
3,42,0,11
3,40,0,12
3,42,77,7
3,42,0,13
3,42,119,17
3,42,0,13
3,36,100,17
3,42,70,0
3,42,0,13
3,36,0,1
3,40,108,16
3,42,119,0
3,42,0,13
3,40,0,10
3,42,77,7
3,42,0,11
3,42,119,19
3,42,0,13
3,36,100,17
3,42,56,0
3,42,0,10
3,36,0,3
3,40,108,17
3,42,111,0
3,42,0,14
3,40,0,7
3,42,62,9
3,42,0,15
3,42,119,15
3,42,0,14
3,36,98,16
3,42,78,0
3,36,0,12
3,42,0,2
3,40,108,16
3,42,119,0
3,42,0,13
3,40,0,15
3,42,70,2
3,42,0,13
3,42,119,17
3,42,0,13
3,36,100,17
3,42,70,0
3,42,0,11
3,36,0,2
3,40,108,17
3,42,119,0
3,42,0,11
3,40,0,11
3,42,77,8
3,42,0,13
3,42,119,17
3,42,0,13
3,36,100,17
3,42,70,0
3,42,0,13
3,36,0,0
3,40,104,17
3,42,119,0
3,42,0,13
3,40,0,10
3,42,77,7
3,42,0,11
3,42,119,19
3,42,0,13
3,36,98,17
3,42,56,0
3,42,0,10
3,36,0,3
3,40,108,17
3,42,111,0
3,42,0,14
3,40,0,10
3,42,62,6
3,42,0,15
3,42,119,15
3,42,0,14
3,36,100,16
3,42,78,0
3,42,0,14
3,36,0,0
3,40,104,16
3,42,119,0
3,42,0,13
3,40,0,8
3,42,70,9
3,42,0,13
3,42,119,17
3,42,0,13
3,36,100,17
3,42,70,0
3,42,0,11
3,36,0,2
3,40,104,17
3,42,119,0
3,42,0,11
3,40,0,10
3,42,77,9
3,42,0,13
3,42,119,17
3,42,0,13
3,36,96,17
3,42,70,0
3,36,0,12
3,42,0,1
3,40,104,17
3,42,119,0
3,42,0,13
3,40,0,8
3,42,77,9
3,42,0,11
3,42,119,19
3,42,0,13
3,36,100,17
3,42,56,0
3,42,0,10
3,36,0,3
3,40,104,17
3,42,111,0
3,42,0,14
3,40,0,9
3,42,62,7
3,42,0,15
3,42,119,15
3,42,0,14
3,36,104,16
3,42,78,0
3,36,0,13
3,42,0,1
3,40,108,16
3,42,119,0
3,42,0,13
3,40,0,9
3,42,70,8
3,42,0,13
3,42,119,17
3,42,0,13
3,36,96,17
3,42,70,0
3,42,0,11
3,36,0,0
3,40,104,19
3,42,119,0
3,42,0,11
3,40,0,12
3,42,77,7
3,42,0,13
3,42,119,17
3,42,0,13
3,36,104,17
3,42,70,0
3,36,0,12
3,42,0,1
3,40,104,17
3,42,119,0
3,42,0,13
3,40,0,10
3,42,77,7
3,42,0,11
3,42,119,19
3,42,0,13
3,36,104,17
3,42,56,0
3,42,0,10
3,36,0,3
3,40,103,17
3,42,111,0
3,42,0,14
3,40,0,9
3,42,62,7
3,42,0,15
3,42,119,15
3,42,0,14
3,36,104,16
3,42,78,0
3,36,0,13
3,42,0,1
3,40,104,16
3,42,119,0
3,42,0,13
3,40,0,13
3,42,70,4
3,42,0,13
3,42,119,17
3,50,108,0
3,42,0,13
3,50,0,3
3,36,98,14
3,42,70,0
3,42,0,11
3,36,0,2
3,40,108,17
3,42,119,0
3,42,0,11
3,40,0,12
3,42,77,7
3,42,0,13
3,36,102,17
3,42,119,0
3,42,0,13
3,36,0,1
3,36,100,16
3,42,70,0
3,42,0,13
3,36,0,1
3,40,108,16
3,42,119,0
3,42,0,13
3,40,0,10
3,42,77,7
3,42,0,11
3,42,119,19
3,42,0,13
3,36,100,17
3,42,56,0
3,42,0,10
3,36,0,3
3,40,108,17
3,42,111,0
3,42,0,14
3,40,0,7
3,42,62,9
3,42,0,15
3,42,119,15
3,42,0,14
3,36,98,16
3,42,78,0
3,36,0,12
3,42,0,2
3,40,108,16
3,42,119,0
3,42,0,13
3,40,0,15
3,42,70,2
3,42,0,13
3,42,119,17
3,42,0,13
3,36,100,17
3,42,70,0
3,42,0,11
3,36,0,2
3,40,108,17
3,42,119,0
3,42,0,11
3,40,0,11
3,42,77,8
3,42,0,13
3,42,119,17
3,42,0,13
3,36,100,17
3,42,70,0
3,42,0,13
3,36,0,0
3,40,104,17
3,42,119,0
3,42,0,13
3,40,0,10
3,42,77,7
3,42,0,11
3,42,119,19
3,42,0,13
3,36,98,17
3,42,56,0
3,42,0,10
3,36,0,3
3,40,108,17
3,42,111,0
3,42,0,14
3,40,0,10
3,42,62,6
3,42,0,15
3,42,119,15
3,42,0,14
3,36,100,16
3,42,78,0
3,42,0,14
3,36,0,0
3,40,104,16
3,42,119,0
3,42,0,13
3,40,0,8
3,42,70,9
3,42,0,11
3,42,70,4
3,42,0,13
3,46,104,2
3,46,0,19
3,36,100,11
3,36,0,13
3,40,104,17
3,42,119,0
3,42,0,11
3,40,0,10
3,42,77,9
3,42,0,13
3,42,119,17
3,42,0,13
3,36,96,17
3,42,70,0
3,36,0,12
3,42,0,1
3,40,104,17
3,42,119,0
3,42,0,13
3,40,0,8
3,42,77,9
3,42,0,11
3,42,119,19
3,42,0,13
3,36,100,17
3,42,56,0
3,42,0,10
3,36,0,3
3,40,104,17
3,42,111,0
3,42,0,14
3,40,0,9
3,42,62,7
3,42,0,15
3,42,119,15
3,42,0,14
3,36,104,16
3,42,78,0
3,36,0,13
3,42,0,1
3,40,108,16
3,42,119,0
3,42,0,13
3,40,0,9
3,42,70,8
3,42,0,13
3,42,119,17
3,42,0,13
3,36,96,17
3,42,70,0
3,42,0,11
3,36,0,0
3,40,104,19
3,42,119,0
3,42,0,11
3,40,0,12
3,42,77,7
3,42,0,13
3,42,119,17
3,42,0,13
3,36,104,17
3,42,70,0
3,36,0,12
3,42,0,1
3,40,104,17
3,42,119,0
3,42,0,13
3,40,0,10
3,42,77,7
3,42,0,11
3,42,119,19
3,42,0,13
3,36,104,17
3,42,56,0
3,42,0,10
3,36,0,3
3,40,103,17
3,42,111,0
3,42,0,14
3,40,0,9
3,42,62,7
3,42,0,15
3,42,119,15
3,42,0,14
3,36,104,16
3,42,78,0
3,36,0,13
3,42,0,1
3,40,104,16
3,42,119,0
3,42,0,13
3,40,0,13
3,42,70,4
3,42,0,13
3,42,119,17
3,50,108,0
3,42,0,14
3,50,0,2
3,36,98,14
3,42,78,0
3,36,0,13
3,42,0,1
3,40,108,16
3,42,119,0
3,42,0,11
3,40,0,12
3,42,77,7
3,42,0,13
3,36,100,17
3,49,91,0
3,49,0,11
3,36,0,3
3,40,108,46
3,53,89,0
3,53,0,12
3,40,0,11
3,53,101,37
3,53,0,15
3,36,100,15
3,36,0,13
3,40,108,17
3,53,103,0
3,53,0,16
3,40,0,5
3,53,83,39
3,53,0,15
3,36,98,15
3,36,0,12
3,40,108,18
3,53,105,0
3,53,0,16
3,40,0,12
3,53,92,32
3,53,0,15
3,36,100,15
3,36,0,13
3,40,108,17
3,53,103,0
3,53,0,17
3,40,0,5
3,53,89,38
3,53,0,15
3,36,100,15
3,36,0,13
3,40,104,17
3,53,101,0
3,53,0,17
3,40,0,6
3,53,92,37
3,53,0,15
3,36,98,15
3,36,0,13
3,40,108,17
3,53,105,0
3,53,0,17
3,40,0,7
3,36,100,36
3,53,95,0
3,36,0,14
3,53,0,1
3,36,100,15
3,36,0,14
3,40,104,16
3,53,98,0
3,53,0,16
3,40,0,5
3,36,100,39
3,53,89,0
3,36,0,13
3,53,0,2
3,36,100,15
3,36,0,13
3,40,104,17
3,53,101,0
3,53,0,17
3,40,0,4
3,53,89,39
3,53,0,15
3,36,96,15
3,36,0,12
3,40,104,18
3,53,98,0
3,53,0,16
3,40,0,5
3,53,92,39
3,53,0,15
3,36,100,15
3,36,0,13
3,40,104,17
3,53,98,0
3,53,0,16
3,40,0,7
3,36,104,37
3,53,88,0
3,36,0,13
3,53,0,3
3,36,104,14
3,36,0,13
3,40,108,17
3,53,98,0
3,53,0,18
3,40,0,4
3,36,96,38
3,53,89,0
3,36,0,11
3,53,0,5
3,36,96,14
3,36,0,11
3,40,104,19
3,53,92,0
3,53,0,16
3,40,0,7
3,36,104,37
3,53,95,0
3,36,0,12
3,53,0,3
3,36,104,15
3,36,0,12
3,40,104,18
3,53,105,0
3,53,0,17
3,40,0,6
3,36,104,37
3,53,92,0
