track,note,velocity,time
1,62,100,1536
1,38,105,0
1,69,100,0
1,50,102,0
1,65,102,0
1,52,82,44
1,40,85,0
1,64,82,0
1,74,98,0
1,67,93,0
1,71,98,0
1,53,98,50
1,65,95,0
1,41,102,0
1,72,105,0
1,69,102,0
1,57,102,56
1,45,100,0
1,69,91,0
1,76,87,0
1,72,98,0
1,43,102,68
1,55,100,0
1,67,91,0
1,74,100,0
1,71,105,0
1,55,91,32
1,43,87,0
1,43,80,150
1,55,62,0
1,43,80,72
1,55,66,0
1,43,80,178
1,55,63,0
1,55,78,66
1,43,80,0
1,43,82,180
1,55,66,0
1,43,89,72
1,55,82,0
1,62,68,48
1,62,85,28
1,69,87,0
1,38,80,0
1,65,91,0
1,50,78,0
1,52,72,40
1,64,80,0
1,74,89,0
1,67,93,0
1,40,95,0
1,71,85,0
1,65,82,42
1,72,93,0
1,69,89,0
1,53,85,0
1,41,98,0
1,57,93,62
1,76,95,0
1,69,89,0
1,72,95,0
1,45,89,0
1,43,102,70
1,55,102,0
1,67,91,0
1,71,100,0
1,74,91,0
1,55,66,42
1,43,80,0
1,43,68,138
1,55,60,0
1,43,93,44
1,55,80,0
1,43,80,150
1,55,64,0
1,43,87,48
1,55,70,0
1,43,89,140
1,55,80,0
1,55,91,74
1,43,95,0
1,62,66,32
1,38,98,28
1,62,66,0
1,50,87,0
1,65,85,0
1,69,78,0
1,52,78,54
1,64,80,0
1,74,89,0
1,67,91,0
1,71,89,0
1,40,100,0
1,53,87,34
1,65,82,0
1,69,89,0
1,41,95,0
1,72,89,0
1,76,91,56
1,69,95,0
1,72,98,0
1,57,89,0
1,45,89,0
1,43,102,70
1,67,89,0
1,55,102,0
1,74,95,0
1,71,102,0
1,55,85,54
1,43,87,0
1,55,72,144
1,43,87,0
1,43,102,50
1,55,85,0
1,43,89,152
1,55,64,0
1,55,85,58
1,43,93,0
1,43,98,144
1,55,82,0
1,43,100,72
1,55,87,0
1,60,74,10
1,36,102,16
1,60,87,0
1,48,102,0
1,64,100,0
1,67,93,0
1,69,87,168
1,65,91,0
1,62,87,0
1,38,100,0
1,50,87,0
1,52,78,40
1,64,82,0
1,74,82,0
1,67,89,0
1,71,85,0
1,40,95,0
1,53,98,50
1,65,89,0
1,72,95,0
1,41,89,0
1,69,93,0
1,57,93,54
1,76,93,0
1,69,95,0
1,45,91,0
1,72,98,0
1,43,98,80
1,55,89,0
1,74,89,0
1,71,95,0
1,67,87,0
1,43,93,56
1,55,82,0
1,43,85,144
1,55,68,0
1,43,100,54
1,55,80,0
1,43,82,146
1,55,66,0
1,43,91,64
1,55,74,0
1,43,85,142
1,55,66,0
1,55,91,68
1,43,95,0
1,62,85,26
1,38,100,16
1,50,102,0
1,62,70,0
1,69,89,0
1,65,95,0
1,52,87,44
1,64,80,0
1,74,93,0
1,67,89,0
1,40,95,0
1,71,85,0
1,65,85,32
1,53,95,0
1,72,87,0
1,69,87,0
1,41,95,0
1,76,91,72
1,69,87,0
1,72,95,0
1,57,89,0
1,45,91,0
1,43,100,72
1,55,102,0
1,67,87,0
1,74,89,0
1,71,98,0
1,43,91,64
1,55,80,0
1,43,85,136
1,55,66,0
1,43,100,48
1,55,87,0
1,43,85,144
1,55,74,0
1,43,91,64
1,55,70,0
1,55,102,142
1,43,91,0
1,43,100,72
1,55,89,0
1,62,91,54
1,65,93,80
1,38,102,22
1,69,80,0
1,62,82,0
1,50,87,0
1,65,82,0
1,74,89,48
1,64,82,0
1,52,93,0
1,67,98,0
1,71,95,0
1,40,93,0
1,65,85,42
1,72,102,0
1,53,98,0
1,69,102,0
1,41,95,0
1,57,100,74
1,45,91,0
1,76,95,0
1,69,95,0
1,72,98,0
1,43,100,72
1,55,100,0
1,67,100,0
1,74,98,0
1,71,105,0
1,43,98,64
1,55,85,0
1,43,82,126
1,55,72,0
1,43,102,56
1,55,89,0
1,43,82,136
1,55,54,0
1,43,91,56
1,55,82,0
1,43,98,132
1,55,85,0
1,43,105,68
1,55,98,0
1,43,102,60
1,55,85,0
1,36,113,68
1,48,100,0
1,60,87,0
1,67,87,0
1,64,93,0
1,62,91,168
1,69,91,0
1,38,102,0
1,65,95,0
1,50,95,0
1,76,60,56
1,74,59,0
1,52,85,0
1,64,72,0
1,40,93,0
1,67,82,0
1,71,82,0
1,65,87,48
1,72,91,0
1,69,93,0
1,53,87,0
1,41,95,0
1,76,98,56
1,57,95,0
1,69,93,0
1,45,93,0
1,72,98,0
1,43,100,76
1,55,100,0
1,67,98,0
1,74,93,0
1,71,100,0
1,43,93,56
1,55,78,0
1,43,89,148
1,55,70,0
1,43,93,50
1,55,82,0
1,43,85,150
1,55,64,0
1,43,91,48
1,55,78,0
1,43,89,134
1,55,85,0
1,55,93,70
1,43,98,0
1,41,95,34
1,53,105,0
1,40,87,4
1,52,100,0
1,38,102,72
1,62,89,0
1,50,95,0
1,69,98,0
1,65,100,0
1,64,91,58
1,52,93,0
1,71,95,0
1,67,98,0
1,40,100,0
1,65,87,72
1,72,91,0
1,69,98,0
1,53,98,0
1,41,100,0
1,57,100,68
1,45,91,0
1,69,95,0
1,76,95,0
1,72,105,0
1,43,102,52
1,67,87,0
1,74,89,0
1,71,100,0
1,55,91,0
1,55,82,58
1,43,95,0
1,43,98,144
1,55,95,0
1,43,105,64
1,55,102,0
1,43,60,138
1,55,66,0
1,55,89,56
1,43,102,0
1,43,82,126
1,55,66,0
1,55,76,72
1,43,82,0
1,41,87,62
1,53,85,0
1,40,91,68
1,52,82,0
1,62,91,76
1,69,98,0
1,65,98,0
1,38,100,0
1,50,89,0
1,74,87,48
1,64,78,0
1,67,87,0
1,52,85,0
1,71,85,0
1,40,91,0
1,65,87,68
1,69,95,0
1,72,95,0
1,53,85,0
1,41,95,0
1,69,91,38
1,76,102,0
1,57,102,0
1,72,102,0
1,45,93,0
1,43,100,80
1,55,95,0
1,67,89,0
1,71,89,0
1,74,89,0
1,43,95,52
1,55,85,0
1,43,91,144
1,55,72,0
1,43,105,48
1,55,85,0
1,43,98,148
1,55,68,0
1,55,78,58
1,43,98,0
1,43,98,138
1,55,87,0
1,55,87,66
1,43,100,0
1,41,102,52
1,53,87,0
1,40,102,64
1,52,82,0
1,48,85,84
1,36,110,0
1,67,87,0
1,60,87,0
1,64,89,0
1,72,105,316
1,75,91,0
1,44,119,0
1,68,102,0
1,56,68,0
1,56,98,206
1,75,78,40
1,68,91,0
1,72,93,0
1,56,95,56
1,44,78,0
1,56,80,0
1,77,89,16
1,70,98,0
1,74,100,0
1,44,105,0
1,56,107,256
1,74,105,32
1,77,87,0
1,70,102,0
1,56,107,162
1,72,93,68
1,44,113,0
1,68,91,0
1,75,87,0
1,56,107,252
1,68,102,52
1,75,85,0
1,72,102,0
1,56,110,80
1,44,110,70
1,77,87,40
1,70,98,0
1,74,100,0
1,44,116,0
1,56,113,256
1,77,91,40
1,74,107,0
1,70,105,0
1,44,116,32
1,72,107,30
1,68,100,0
1,75,100,0
1,44,113,0
1,56,110,256
1,68,105,74
1,72,110,0
1,75,93,0
1,44,116,30
1,44,122,72
1,44,119,56
1,77,95,0
1,70,98,0
1,74,107,0
1,56,110,256
1,77,98,36
1,70,105,0
1,74,107,0
1,44,119,70
1,56,107,66
1,72,98,4
1,68,93,0
1,75,82,0
1,44,119,0
1,56,110,256
1,72,105,56
1,68,105,0
1,75,93,0
1,44,107,24
1,44,116,64
1,76,60,32
1,74,105,0
1,77,87,0
1,44,110,0
1,70,98,0
1,56,113,244
1,77,87,64
1,70,100,0
1,74,102,0
1,44,107,54
1,56,110,58
1,43,113,46
1,74,82,0
1,67,82,0
1,70,85,0
1,55,102,256
1,67,100,50
1,74,82,0
1,70,87,0
1,55,105,174
1,67,89,36
1,70,89,0
1,74,82,0
1,43,105,116
1,67,91,34
1,74,85,0
1,70,87,0
1,55,100,256
1,68,100,36
1,41,110,0
1,65,98,0
1,72,87,0
1,53,105,256
1,68,82,64
1,65,80,0
1,72,70,0
1,53,95,142
1,65,82,18
1,65,87,44
1,68,100,0
1,72,91,0
1,53,102,40
1,41,102,74
1,68,98,0
1,72,82,0
1,65,93,0
1,53,105,226
1,43,110,62
1,74,91,0
1,70,95,0
1,67,85,0
1,55,91,252
1,70,98,48
1,67,89,0
1,74,82,0
1,55,100,168
1,67,89,56
1,70,102,108
1,74,91,0
1,43,100,72
1,67,102,32
1,70,102,0
1,74,98,0
1,55,98,256
1,41,110,32
1,68,98,0
1,65,98,0
1,72,87,0
1,53,100,256
1,68,102,46
1,65,105,0
1,72,85,0
1,53,105,150
1,65,85,50
1,68,110,102
1,72,102,0
1,41,107,78
1,68,102,64
1,65,102,0
1,72,95,0
1,53,105,256
1,41,100,30
1,43,98,0
1,74,95,0
1,70,102,0
1,67,100,0
1,55,91,160
1,70,107,88
1,74,89,0
1,67,100,0
1,55,105,198
1,70,100,64
1,67,98,0
1,74,87,0
1,55,100,192
1,67,100,28
1,74,89,0
1,70,100,0
1,55,87,238
1,57,68,44
1,45,70,0
1,76,82,0
1,73,78,0
1,69,85,0
1,57,63,64
1,45,76,0
1,76,59,0
1,73,58,0
1,69,59,0
1,45,85,72
1,57,64,0
1,73,68,0
1,76,68,0
1,69,68,0
1,45,93,72
1,57,80,0
1,76,76,0
1,73,85,0
1,69,85,0
1,76,76,70
1,45,98,0
1,73,82,0
1,69,85,0
1,57,82,0
1,45,102,80
1,57,91,0
1,76,85,0
1,73,89,0
1,69,93,0
1,45,107,82
1,57,102,0
1,76,91,0
1,69,98,0
1,73,100,0
1,57,100,80
1,45,107,0
1,76,91,0
1,69,93,0
1,73,100,0
1,76,93,80
1,45,107,0
1,69,95,0
1,73,98,0
1,57,98,0
1,76,85,78
1,57,102,0
1,69,98,0
1,45,110,0
1,73,95,0
1,45,100,72
1,57,98,0
1,76,80,0
1,69,82,0
1,73,80,0
1,62,39,66
1,67,78,104
1,69,72,0
1,62,93,0
1,50,70,0
1,65,105,0
1,38,95,0
1,52,89,56
1,40,102,0
1,64,95,0
1,71,100,0
1,67,102,0
1,53,100,78
1,41,105,0
1,72,102,0
1,65,100,0
1,69,100,0
1,76,93,76
1,57,100,0
1,72,100,0
1,69,93,0
1,45,95,0
1,43,102,70
1,55,82,0
1,74,89,0
1,71,95,0
1,67,89,0
1,43,91,38
1,55,68,0
1,43,89,144
1,55,87,0
1,43,100,44
1,55,85,0
1,43,82,144
1,55,82,0
1,43,95,60
1,55,76,0
1,55,95,144
1,43,95,0
1,43,107,64
1,55,95,0
1,62,95,14
1,65,82,124
1,72,68,28
1,62,70,0
1,38,98,0
1,50,85,0
1,69,82,0
1,65,82,0
1,64,87,32
1,71,100,0
1,67,100,0
1,52,78,0
1,40,98,0
1,72,91,0
1,65,87,78
1,72,95,0
1,69,98,0
1,41,107,0
1,53,98,0
1,57,98,34
1,76,102,0
1,69,100,0
1,72,102,0
1,45,102,0
1,43,102,72
1,67,98,0
1,74,98,0
1,71,105,0
1,55,98,0
1,43,98,56
1,55,80,0
1,43,95,146
1,55,87,0
1,43,107,62
1,55,89,0
1,43,100,136
1,55,87,0
1,43,102,64
1,55,87,0
1,43,93,140
1,55,85,0
1,43,91,64
1,55,80,0
1,41,105,68
1,53,91,0
1,40,102,8
1,52,85,0
1,38,102,78
1,62,100,0
1,65,107,0
1,69,100,0
1,50,93,0
1,52,80,50
1,64,72,0
1,74,85,0
1,40,98,0
1,67,85,0
1,71,80,0
1,65,87,30
1,72,95,0
1,53,102,0
1,41,98,0
1,69,91,0
1,74,72,0
1,69,89,64
1,72,100,0
1,57,100,0
1,76,98,0
1,45,102,0
1,43,107,88
1,55,87,0
1,67,89,0
1,74,98,0
1,71,105,0
1,43,102,54
1,55,89,0
1,43,95,152
1,55,80,0
1,43,102,58
1,55,85,0
1,43,93,164
1,55,76,0
1,43,100,64
1,55,85,0
1,43,98,146
1,55,82,0
1,43,102,64
1,55,87,0
1,36,107,134
1,48,107,0
1,60,100,0
1,67,100,0
1,64,102,0
1,48,98,58
1,75,87,260
1,44,119,0
1,72,102,0
1,68,100,0
1,56,105,256
1,72,100,50
1,68,98,0
1,75,85,0
1,56,105,64
1,44,105,10
1,44,116,48
1,70,91,0
1,77,85,0
1,74,100,0
1,56,100,256
1,77,87,38
1,70,100,0
1,74,102,0
1,44,110,22
1,56,113,128
1,44,119,8
1,75,95,0
1,72,105,0
1,68,95,0
1,56,110,256
1,75,93,56
1,68,102,0
1,72,105,0
1,44,113,12
1,56,110,128
1,44,107,2
1,74,105,0
1,77,91,0
1,70,98,0
1,56,107,256
1,77,87,74
1,74,102,0
1,70,95,0
1,44,116,96
1,56,110,120
1,75,91,8
1,72,100,0
1,44,116,0
1,68,91,0
1,56,110,256
1,75,85,42
1,68,95,0
1,72,102,0
1,44,116,32
1,56,110,128
1,44,95,2
1,77,91,0
1,70,102,0
1,74,105,0
1,56,110,256
1,77,85,66
1,74,89,0
1,70,89,0
1,44,116,42
1,56,110,8
1,72,100,8
1,44,107,0
1,75,87,0
1,68,87,0
1,56,110,256
1,68,105,46
1,75,98,0
1,72,107,0
1,44,116,8
1,56,107,0
1,77,93,128
1,70,98,0
1,74,102,0
1,56,110,246
1,77,89,76
1,74,105,0
1,70,98,0
1,44,110,78
1,56,107,0
1,43,100,14
1,74,91,0
1,70,100,0
1,67,100,0
1,55,107,256
1,74,87,88
1,67,95,0
1,70,98,0
1,55,105,184
1,74,87,64
1,70,95,0
1,67,98,0
1,55,95,216
1,70,102,62
1,74,89,0
1,67,105,0
1,55,102,212
1,68,98,26
1,41,107,0
1,72,89,0
1,65,100,0
1,53,105,256
1,68,89,66
1,65,93,0
1,72,76,0
1,53,102,178
1,41,105,66
1,63,98,48
1,68,80,0
1,72,70,0
1,41,110,10
1,65,100,108
1,68,89,0
1,72,89,0
1,53,110,128
1,65,102,30
1,74,100,16
1,70,100,0
1,43,107,0
1,67,105,0
1,55,100,256
1,70,102,64
1,67,107,0
1,74,91,0
1,55,100,216
1,70,93,96
1,65,102,0
1,74,82,0
1,43,85,0
1,67,107,14
1,74,80,0
1,70,85,0
1,55,102,128
1,70,105,74
1,67,105,0
1,74,98,0
1,55,102,186
1,41,105,6
1,68,100,0
1,65,98,0
1,72,95,0
1,53,100,256
1,68,100,64
1,65,100,0
1,72,89,0
1,53,95,192
1,41,105,68
1,63,100,88
1,68,80,0
1,72,82,0
1,53,105,128
1,65,102,74
1,68,100,0
1,72,95,0
1,53,102,228
1,43,105,24
1,70,98,0
1,74,93,0
1,67,91,0
1,55,89,256
1,70,100,82
1,74,91,0
1,67,100,0
1,55,102,208
1,70,102,54
1,65,102,0
1,74,89,0
1,74,89,48
1,67,105,0
1,70,98,0
1,55,105,128
1,67,100,62
1,70,100,0
1,74,85,0
1,55,98,190
1,57,87,56
1,45,87,0
1,76,91,0
1,73,98,0
1,69,102,0
1,57,66,68
1,45,80,0
1,76,60,0
1,73,63,0
1,69,64,0
1,57,91,68
1,45,91,0
1,76,68,0
1,73,76,0
1,69,87,0
1,45,93,72
1,57,89,0
1,76,68,0
1,73,82,0
1,69,85,0
1,45,93,74
1,76,64,0
1,73,72,0
1,57,82,0
1,69,76,0
1,45,98,78
1,76,76,0
1,57,91,0
1,73,80,0
1,69,85,0
1,76,74,74
1,45,98,0
1,57,89,0
1,73,82,0
1,69,85,0
1,76,70,72
1,73,82,0
1,69,80,0
1,45,93,0
1,57,78,0
1,76,80,76
1,69,87,0
1,73,85,0
1,57,82,0
1,45,95,0
1,76,74,68
1,69,80,0
1,73,80,0
1,45,87,0
1,57,70,0
1,76,78,70
1,69,82,0
1,73,82,0
1,45,102,0
1,57,82,0
1,67,85,200
1,50,87,0
1,69,63,0
1,38,78,0
1,62,80,0
1,65,89,0
1,52,95,70
1,40,107,0
1,71,102,0
1,67,105,0
1,64,100,0
1,53,93,80
1,41,100,0
1,72,93,0
1,69,100,0
1,65,87,0
1,57,91,88
