track,note,velocity,time
1,86,84,0
1,86,0,119
1,85,84,1
1,83,84,60
1,85,0,59
1,83,0,60
1,85,84,1
1,86,84,60
1,85,0,59
1,85,84,1
1,86,0,59
1,85,0,60
1,83,84,1
1,83,0,119
1,81,84,1
1,81,0,119
1,81,84,1
1,83,84,60
1,81,0,59
1,83,0,60
1,85,84,1
1,83,84,60
1,85,0,59
1,81,84,1
1,83,0,59
1,78,84,1
1,81,0,59
1,81,84,1
1,78,0,59
1,78,84,1
1,81,0,59
1,85,84,1
1,78,0,59
1,83,84,1
1,85,0,59
1,83,0,241
1,86,84,4080
1,86,0,119
1,85,84,1
1,83,84,60
1,85,0,59
1,83,0,60
1,85,84,1
1,86,84,60
1,85,0,59
1,85,84,1
1,86,0,59
1,85,0,60
1,83,84,1
1,83,0,119
1,81,84,1
1,81,0,119
1,81,84,1
1,83,84,60
1,81,0,59
1,83,0,60
1,85,84,1
1,83,84,60
1,85,0,59
1,81,84,1
1,83,0,59
1,78,84,1
1,81,0,59
1,81,84,1
1,78,0,59
1,78,84,1
1,81,0,59
1,85,84,1
1,78,0,59
1,83,84,1
1,85,0,59
1,83,0,241
1,76,84,240
1,76,84,60
1,76,0,59
1,76,84,1
1,76,0,59
1,76,84,1
1,76,0,59
1,76,0,60
1,78,84,1
1,78,0,119
1,74,84,1
1,74,0,119
1,74,84,1
1,74,0,119
1,76,84,1
1,76,84,60
1,76,0,59
1,73,84,181
1,74,84,60
1,73,0,59
1,73,84,1
1,76,0,40
1,74,0,19
1,71,84,1
1,73,0,59
1,71,0,60
1,76,84,1
1,69,84,60
1,76,0,59
1,69,84,1
1,69,0,59
1,69,0,60
1,74,84,1
1,69,84,60
1,74,0,59
1,69,84,1
1,69,0,59
1,76,84,241
1,76,84,60
1,69,0,40
1,76,0,19
1,76,84,1
1,76,0,59
1,76,84,1
1,76,0,59
1,76,0,60
1,78,84,1
1,78,0,119
1,74,84,1
1,74,0,119
1,74,84,1
1,74,0,119
1,76,84,1
1,76,84,60
1,76,0,59
1,73,84,181
1,74,84,60
1,73,0,59
1,73,84,1
1,76,0,40
1,74,0,19
1,71,84,1
1,73,0,59
1,71,0,60
1,76,84,1
1,69,84,60
1,76,0,59
1,69,84,1
1,69,0,59
1,69,0,60
1,74,84,1
1,69,84,60
1,74,0,59
1,69,84,1
1,69,0,59
1,69,0,341
1,72,84,740
1,72,0,119
1,76,84,1
1,76,0,119
1,79,84,1
1,79,0,119
1,81,84,1
1,81,0,119
1,81,110,61
1,79,70,30
1,81,84,30
1,79,0,89
1,81,0,30
1,81,0,71
1,82,84,60
1,82,84,110
1,82,0,9
1,84,84,51
1,82,0,59
1,86,84,1
1,84,0,59
1,84,84,1
1,86,0,59
1,82,84,1
1,84,0,59
1,84,84,1
1,82,0,59
1,81,84,1
1,84,0,59
1,79,84,1
1,81,0,59
1,77,84,1
1,79,0,59
1,81,84,1
1,77,0,59
1,79,84,1
1,81,0,59
1,79,0,60
1,72,84,1
1,72,0,119
1,76,84,1
1,76,0,119
1,79,84,1
1,79,0,119
1,81,84,1
1,81,0,119
1,81,110,61
1,79,70,30
1,81,84,30
1,79,0,89
1,81,0,30
1,81,0,71
1,82,84,60
1,82,84,110
1,82,0,9
1,84,84,51
1,82,0,59
1,86,84,1
1,84,0,59
1,84,84,1
1,86,0,59
1,82,84,1
1,84,0,59
1,84,84,1
1,82,0,59
1,81,84,1
1,84,0,59
1,79,84,1
1,81,0,59
1,77,84,1
1,79,0,59
1,81,84,1
1,77,0,59
1,79,84,1
1,81,0,59
1,79,0,60
1,72,84,1
1,72,0,119
1,76,84,1
1,76,0,119
1,79,84,1
1,79,0,119
1,76,84,1
1,81,84,0
1,81,84,60
1,76,84,0
1,76,0,59
1,81,0,0
1,81,84,1
1,76,84,0
1,76,0,59
1,81,0,0
1,81,84,1
1,76,84,0
1,76,0,59
1,81,0,0
1,81,0,60
1,76,0,0
1,78,84,1
1,78,0,119
1,74,84,1
1,74,0,119
1,74,84,1
1,74,0,119
1,76,84,1
1,76,84,60
1,76,0,59
1,73,84,181
1,74,84,60
1,73,0,59
1,73,84,1
1,76,0,40
1,74,0,19
1,71,84,1
1,73,0,59
1,71,0,60
1,76,84,1
1,69,84,60
1,76,0,59
1,69,84,1
1,69,0,59
1,69,0,60
1,74,84,1
1,69,84,60
1,74,0,59
1,69,84,1
1,69,0,59
1,76,84,241
1,93,84,6
1,95,84,24
1,93,84,30
1,76,84,0
1,88,84,30
1,69,0,10
1,76,0,19
1,93,84,1
1,76,84,0
1,93,0,5
1,95,0,24
1,95,84,1
1,93,0,29
1,76,0,0
1,93,84,1
1,76,84,0
1,88,0,29
1,88,84,1
1,93,0,29
1,76,0,0
1,93,84,1
1,95,0,29
1,95,84,1
1,76,0,29
1,93,0,0
1,93,84,1
1,78,84,0
1,88,0,29
1,88,84,1
1,93,0,29
1,93,84,1
1,95,0,29
1,95,84,1
1,78,0,29
1,93,0,0
1,93,84,1
1,74,84,0
1,88,0,29
1,88,84,1
1,93,0,29
1,93,84,1
1,95,0,29
1,95,84,1
1,74,0,29
1,93,0,0
1,93,84,1
1,74,84,0
1,88,0,29
1,88,84,1
1,93,0,29
1,93,84,1
1,95,0,29
1,95,84,1
1,74,0,29
1,93,0,0
1,93,84,1
1,76,84,0
1,88,0,29
1,88,84,1
1,93,0,29
1,93,84,1
1,93,84,0
1,93,84,0
1,76,84,0
1,95,0,29
1,76,0,30
1,93,0,0
1,93,84,1
1,88,0,29
1,93,0,30
1,93,84,1
1,73,84,120
1,74,84,60
1,73,0,59
1,73,84,1
1,76,0,40
1,93,0,0
1,93,0,0
1,74,0,19
1,71,84,1
1,93,0,40
1,73,0,19
1,93,0,41
1,71,0,19
1,76,84,1
1,69,84,60
1,76,0,59
1,69,84,1
1,69,0,59
1,69,0,60
1,74,84,1
1,69,84,60
1,74,0,59
1,69,84,1
1,69,0,59
1,69,0,341
1,86,84,3740
1,86,0,119
1,85,84,1
1,83,84,60
1,85,0,59
1,83,0,60
1,85,84,1
1,86,84,60
1,85,0,59
1,85,84,1
1,86,0,59
1,85,0,60
1,83,84,1
1,83,0,119
1,81,84,1
1,81,0,119
1,81,84,1
1,83,84,60
1,81,0,59
1,83,0,60
1,85,84,1
1,83,84,60
1,85,0,59
1,81,84,1
1,83,0,59
1,78,84,1
1,81,0,59
1,81,84,1
1,78,0,59
1,78,84,1
1,81,0,59
1,85,84,1
1,78,0,59
1,83,84,1
1,85,0,59
1,83,0,241
1,76,84,240
1,76,84,60
1,76,0,59
1,76,84,1
1,76,0,59
1,76,84,1
1,76,0,59
1,76,0,60
1,78,84,1
1,78,0,119
1,74,84,1
1,74,0,119
1,74,84,1
1,74,0,119
1,76,84,1
1,76,84,60
1,76,0,59
1,73,84,181
1,74,84,60
1,73,0,59
1,73,84,1
1,76,0,40
1,74,0,19
1,71,84,1
1,73,0,59
1,71,0,60
1,76,84,1
1,69,84,60
1,76,0,59
1,69,84,1
1,69,0,59
1,69,0,60
1,74,84,1
1,69,84,60
1,74,0,59
1,69,84,1
1,69,0,59
1,76,84,241
1,76,84,60
1,69,0,40
1,76,0,19
1,76,84,1
1,76,0,59
1,76,84,1
1,76,0,59
1,76,0,60
1,78,84,1
1,78,0,119
1,74,84,1
1,74,0,119
1,74,84,1
1,74,0,119
1,76,84,1
1,76,84,60
1,76,0,59
1,73,84,181
1,74,84,60
1,73,0,59
1,73,84,1
1,76,0,40
1,74,0,19
1,71,84,1
1,73,0,59
1,71,0,60
1,76,84,1
1,69,84,60
1,76,0,59
1,69,84,1
1,69,0,59
1,69,0,60
1,74,84,1
1,69,84,60
1,74,0,59
1,69,84,1
1,69,0,59
1,90,84,241
1,69,0,100
1,90,0,19
1,89,84,1
1,66,84,0
1,66,0,119
1,89,0,0
1,85,84,1
1,70,84,0
1,70,0,119
1,85,0,0
1,70,84,1
1,66,84,60
1,70,0,59
1,83,84,1
1,73,84,0
1,66,0,59
1,73,0,60
1,83,0,0
1,87,84,1
1,73,84,0
1,73,0,119
1,87,0,0
1,92,84,1
1,75,84,60
1,92,0,59
1,66,84,1
1,75,0,59
1,66,0,60
1,88,84,1
1,76,84,0
1,76,0,119
1,88,0,0
1,87,84,1
1,76,84,0
1,76,0,119
1,87,0,0
1,83,84,1
1,76,84,0
1,76,0,119
1,83,0,0
1,78,84,61
1,83,84,60
1,75,84,0
1,78,0,59
1,73,84,1
1,75,0,59
1,83,0,0
1,87,84,1
1,71,84,0
1,73,0,59
1,71,0,60
1,87,0,0
1,92,84,1
1,92,0,119
1,66,84,1
1,66,84,60
1,66,0,59
1,90,84,1
1,73,84,0
1,66,0,59
1,73,0,60
1,90,0,0
1,89,84,1
1,66,84,0
1,73,84,60
1,66,0,59
1,89,0,0
1,85,84,1
1,73,0,59
1,66,84,1
1,85,0,59
1,73,84,1
1,66,0,59
1,75,84,1
1,73,0,59
1,73,84,1
1,83,84,0
1,75,0,59
1,83,0,60
1,73,0,0
1,73,84,1
1,87,84,0
1,75,84,60
1,87,0,59
1,73,0,0
1,92,84,1
1,75,0,59
1,76,84,1
1,92,0,59
1,66,84,1
1,76,0,59
1,66,84,1
1,66,0,59
1,88,84,1
1,76,84,0
1,66,0,59
1,76,0,60
1,88,0,0
1,87,84,1
1,76,84,0
1,76,84,60
1,76,0,59
1,87,0,0
1,76,84,1
1,83,84,0
1,76,0,59
1,83,0,60
1,76,0,0
1,76,84,1
1,78,84,60
1,76,0,59
1,83,84,1
1,75,84,0
1,78,0,59
1,73,84,1
1,87,84,46
1,75,0,13
1,83,0,0
1,71,84,1
1,73,0,59
1,66,84,1
1,87,0,45
1,71,0,14
1,90,84,1
1,73,84,0
1,66,0,59
1,73,0,60
1,90,0,0
2,33,104,0
2,33,0,119
2,33,104,90
2,33,104,30
2,33,104,60
2,33,0,29
2,33,0,30
2,33,0,60
2,33,104,61
2,33,0,119
2,33,104,91
2,33,104,30
2,33,104,60
2,33,0,29
2,33,0,30
2,33,0,60
2,33,104,61
2,33,0,119
2,33,104,91
2,33,104,30
2,33,104,60
2,33,0,29
2,33,0,30
2,33,0,60
2,33,104,61
2,33,0,119
2,33,104,91
2,33,104,30
2,33,104,60
2,33,0,29
2,33,0,30
2,33,0,60
2,33,104,61
2,33,0,119
2,33,104,91
2,33,104,30
2,33,104,60
2,33,0,29
2,33,0,30
2,33,0,60
2,33,104,61
2,33,0,119
2,33,104,91
2,33,104,30
2,33,104,60
2,33,0,29
2,33,0,30
2,33,0,60
2,33,104,61
2,33,0,119
2,33,104,91
2,33,104,30
2,33,104,60
2,33,0,29
2,33,0,30
2,33,0,60
2,33,104,61
2,33,0,119
2,33,104,91
2,33,104,30
2,33,104,60
2,33,0,29
2,33,0,30
2,33,0,60
2,33,104,73
2,33,0,119
2,33,104,79
2,33,104,30
2,33,104,60
2,33,0,29
2,33,0,30
2,33,0,60
2,28,104,61
2,28,0,119
2,28,104,91
2,28,104,30
2,28,104,60
2,28,0,29
2,28,0,30
2,28,0,60
2,33,104,73
2,33,0,119
2,33,104,79
2,33,104,30
2,33,104,60
2,33,0,29
2,33,0,30
2,33,0,60
2,28,104,61
2,28,0,119
2,28,104,91
2,28,104,30
2,28,104,60
2,28,0,29
2,28,0,30
2,28,0,60
2,33,104,61
2,33,0,119
2,33,104,91
2,33,104,30
2,33,104,60
2,33,0,29
2,33,0,30
2,33,0,60
2,33,104,61
2,33,0,119
2,33,104,91
2,33,104,30
2,33,104,60
2,33,0,29
2,33,0,30
2,33,0,60
2,33,104,61
2,33,0,119
2,33,104,91
2,33,104,30
2,33,104,60
2,33,0,29
2,33,0,30
2,33,0,60
2,33,104,61
2,33,0,119
2,33,104,91
2,33,104,30
2,33,104,60
2,33,0,29
2,33,0,30
2,33,0,60
2,33,104,61
2,33,0,119
2,33,104,91
2,33,104,30
2,33,104,60
2,33,0,29
2,33,0,30
2,33,0,60
2,33,104,61
2,33,0,119
2,33,104,91
2,33,104,30
2,33,104,60
2,33,0,29
2,33,0,30
2,33,0,60
2,33,104,61
2,33,0,119
2,33,104,91
2,33,104,30
2,33,104,60
2,33,0,29
2,33,0,30
2,33,0,60
2,33,104,61
2,33,0,119
2,33,104,91
2,33,104,30
2,33,104,60
2,33,0,29
2,33,0,30
2,33,0,60
2,33,104,73
2,33,0,119
2,33,104,79
2,33,104,30
2,33,104,60
2,33,0,29
2,33,0,30
2,33,0,60
2,28,104,61
2,28,0,119
2,28,104,91
2,28,104,30
2,28,104,60
2,28,0,29
2,28,0,30
2,28,0,60
2,33,104,61
2,33,0,119
2,33,104,91
2,33,104,30
2,33,104,60
2,33,0,29
2,33,0,30
2,33,0,60
2,28,104,61
2,28,0,119
2,28,104,91
2,28,104,30
2,28,104,60
2,28,0,29
2,28,0,30
2,28,0,60
2,33,104,61
2,33,104,30
2,33,0,9
2,33,104,21
2,33,0,9
2,33,104,21
2,33,0,9
2,45,104,21
2,33,0,9
2,45,0,30
2,33,104,81
2,33,104,30
2,33,0,9
2,33,104,21
2,33,0,9
2,33,104,21
2,33,0,9
2,45,104,21
2,33,0,9
2,45,0,30
2,33,104,81
2,33,104,30
2,33,0,9
2,33,104,21
2,33,0,9
2,33,104,21
2,33,0,9
2,45,104,21
2,33,0,9
2,45,0,30
2,33,104,81
2,33,104,30
2,33,0,9
2,33,104,21
2,33,0,9
2,33,104,21
2,33,0,9
2,45,104,21
2,33,0,9
2,45,0,30
2,33,104,81
2,33,104,30
2,33,0,9
2,33,104,21
2,33,0,9
2,33,104,21
2,33,0,9
2,45,104,21
2,33,0,9
2,45,0,30
2,33,104,81
2,33,104,30
2,33,0,9
2,33,104,21
2,33,0,9
2,33,104,21
2,33,0,9
2,45,104,21
2,33,0,9
2,45,0,30
2,33,104,81
2,33,104,30
2,33,0,9
2,33,104,21
2,33,0,9
2,33,104,21
2,33,0,9
2,45,104,21
2,33,0,9
2,45,0,30
2,33,104,81
2,33,104,30
2,33,0,9
2,33,104,21
2,33,0,9
2,33,104,21
2,33,0,9
2,45,104,21
2,33,0,9
2,45,0,30
2,33,104,81
2,33,104,30
2,33,0,9
2,33,104,21
2,33,0,9
2,33,104,21
2,33,0,9
2,45,104,21
2,33,0,9
2,45,0,30
2,33,104,81
2,33,104,30
2,33,0,9
2,33,104,21
2,33,0,9
2,33,104,21
2,33,0,9
2,45,104,21
2,33,0,9
2,45,0,30
2,33,104,81
2,33,104,30
2,33,0,9
2,33,104,21
2,33,0,9
2,33,104,21
2,33,0,9
2,45,104,21
2,33,0,9
2,45,0,30
2,33,104,81
2,33,104,30
2,33,0,9
2,33,104,21
2,33,0,9
2,33,104,21
2,33,0,9
2,45,104,21
2,33,0,9
2,45,0,30
2,33,104,81
2,33,104,30
2,33,0,9
2,33,104,21
2,33,0,9
2,33,104,21
2,33,0,9
2,45,104,21
2,33,0,9
2,45,0,30
2,33,104,81
2,33,104,30
2,33,0,9
2,33,104,21
2,33,0,9
2,33,104,21
2,33,0,9
2,45,104,21
2,33,0,9
2,45,0,30
2,33,104,81
2,33,104,30
2,33,0,9
2,33,104,21
2,33,0,9
2,33,104,21
2,33,0,9
2,45,104,21
2,33,0,9
2,45,0,30
2,41,104,77
2,48,104,4
2,41,104,26
2,48,0,13
2,41,0,26
2,41,0,100
2,43,104,15
2,41,104,176
2,43,0,23
2,43,104,37
2,41,0,59
2,43,104,1
2,43,0,59
2,43,0,60
2,38,104,61
2,45,104,0
2,45,0,119
2,38,0,0
2,36,104,181
2,43,104,0
2,43,0,119
2,36,0,0
2,36,104,1
2,43,104,0
2,43,0,119
2,36,0,0
2,38,104,1
2,43,104,0
2,43,0,119
2,38,0,0
2,43,104,1
2,38,104,0
2,38,0,119
2,43,0,0
2,45,104,1
2,40,104,0
2,40,0,119
2,45,0,0
2,46,104,361
2,41,104,0
2,41,0,119
2,46,0,0
2,41,104,361
2,48,104,0
2,48,0,119
2,41,0,0
