track,note,velocity,time
1,33,127,1540
1,33,127,52
1,33,127,112
1,33,127,108
1,33,127,40
1,33,127,100
1,35,127,48
1,37,127,32
1,38,127,52
1,33,127,2248
1,35,127,24
1,37,127,0
1,38,127,40
1,38,127,104
1,42,127,100
1,42,127,92
1,45,127,88
1,45,127,76
1,47,127,84
1,47,127,92
1,48,127,84
1,48,127,104
1,47,127,88
1,47,127,104
1,45,127,88
1,26,127,92
1,28,127,32
1,30,127,32
1,30,118,72
1,31,127,0
1,31,127,84
1,35,127,64
1,35,127,104
1,38,127,88
1,38,127,100
1,40,127,84
1,38,127,60
1,31,127,92
1,31,127,96
1,35,127,80
1,35,127,96
1,38,127,80
1,38,127,96
1,31,127,88
1,35,127,60
1,38,127,28
1,38,127,96
1,42,127,80
1,42,127,96
1,45,127,80
1,45,127,100
1,47,127,88
1,45,127,76
1,30,109,40
1,38,127,0
1,38,127,88
1,42,127,72
1,42,127,84
1,45,127,92
1,28,127,76
1,30,127,28
1,31,127,68
1,33,127,88
1,33,127,80
1,37,127,48
1,37,127,96
1,40,127,64
1,40,127,80
1,41,122,4
1,42,127,76
1,40,127,24
1,31,127,80
1,31,127,68
1,35,127,40
1,35,127,88
1,38,127,80
1,33,127,64
1,35,127,44
1,37,127,36
1,38,127,60
1,33,127,2216
1,35,127,8
1,37,127,196
1,38,127,20
1,38,127,116
1,42,127,88
1,42,127,84
1,45,127,72
1,45,127,80
1,47,127,80
1,47,127,92
1,48,127,80
1,48,127,104
1,47,127,92
1,47,127,84
1,45,127,72
1,33,127,80
1,35,127,12
1,37,127,192
1,38,127,16
1,38,127,96
1,42,127,56
1,42,127,88
1,45,127,68
1,45,127,80
1,47,127,92
1,45,127,64
1,38,127,60
1,38,127,108
1,42,127,92
1,42,127,96
1,45,127,88
1,26,127,76
1,28,127,24
1,30,127,24
1,31,127,32
1,31,127,80
1,35,127,52
1,35,127,68
1,38,127,60
1,38,127,76
1,40,127,64
1,38,127,48
1,31,127,72
1,31,127,108
1,35,127,80
1,35,127,96
1,38,127,60
1,33,127,88
1,35,127,4
1,37,127,8
1,38,127,28
1,38,127,72
1,42,127,104
1,42,127,96
1,45,127,88
1,45,127,100
1,47,127,80
1,45,127,88
1,48,127,80
1,48,127,84
1,47,127,76
1,47,127,84
1,45,127,60
1,28,127,64
1,30,127,24
1,31,127,32
1,33,127,40
1,33,127,76
1,37,127,68
1,37,127,88
1,40,127,100
1,40,127,84
1,42,127,88
1,40,127,48
1,31,127,80
1,31,127,92
1,35,127,68
1,35,127,104
1,38,127,80
1,33,127,72
1,35,127,4
1,37,127,36
1,38,127,52
1,38,127,2224
1,40,127,192
1,42,127,168
1,31,127,4
1,31,127,92
1,35,127,28
1,35,127,76
1,38,127,64
1,38,127,76
1,40,127,40
1,38,127,16
1,31,127,60
1,31,127,96
1,35,127,84
1,35,127,88
1,38,127,80
1,38,127,84
1,40,127,52
1,38,127,16
1,38,127,76
1,38,127,60
1,42,127,56
1,42,127,88
1,45,127,60
1,45,127,72
1,47,127,72
1,45,127,68
1,38,127,80
1,38,127,92
1,42,127,80
1,42,127,100
1,45,127,80
1,26,127,52
1,28,127,4
1,30,127,20
1,31,127,40
1,31,127,64
1,35,127,64
1,35,127,64
1,38,127,52
1,38,127,72
1,40,127,60
1,38,127,40
1,31,127,68
1,31,127,96
1,35,127,80
1,35,127,100
1,38,127,72
1,38,127,84
1,35,127,60
1,31,127,24
1,40,127,32
1,28,127,540
1,33,127,484
1,28,127,144
1,33,127,40
1,33,127,124
1,35,127,0
1,37,127,12
1,38,127,40
1,38,127,72
1,42,127,60
1,42,127,84
1,45,127,60
1,45,127,80
1,47,127,76
1,47,127,76
1,48,127,60
1,48,127,80
1,47,127,72
1,47,127,80
1,45,127,72
1,33,127,64
1,35,127,40
1,37,127,192
1,38,127,60
1,38,127,84
1,42,127,68
1,42,127,92
1,45,127,80
1,45,127,84
1,47,127,92
1,45,127,68
1,38,127,32
1,38,127,84
1,42,127,88
1,42,127,108
1,45,127,80
1,26,127,52
1,28,127,24
1,30,127,44
1,31,127,40
1,31,127,76
1,35,127,48
1,35,127,56
1,38,127,52
1,38,127,72
1,40,127,68
1,38,127,32
1,31,127,64
1,31,127,92
1,35,127,68
1,35,127,84
1,38,127,64
1,33,127,40
1,35,127,20
1,37,127,36
1,38,127,28
1,38,127,100
1,42,127,72
1,42,127,88
1,45,127,68
1,45,127,88
1,47,127,88
1,45,127,32
1,38,127,20
1,38,127,64
1,42,127,56
1,42,127,80
1,45,127,60
1,28,127,48
1,30,127,40
1,31,127,20
1,33,127,32
1,33,127,80
1,37,127,60
1,37,127,68
1,40,127,64
1,40,127,60
1,42,127,20
1,40,127,24
1,31,127,72
1,31,127,96
1,35,127,56
1,35,127,72
1,38,127,64
1,33,127,56
1,35,127,20
1,37,127,40
1,38,127,48
1,26,127,2240
1,28,127,188
1,30,127,12
1,31,127,20
1,31,127,60
1,35,127,16
1,35,127,76
1,38,127,68
1,38,127,76
1,40,127,44
1,38,127,36
1,31,127,56
1,31,127,80
1,35,127,60
1,35,127,84
1,38,127,56
1,33,127,40
1,35,127,24
1,37,127,16
1,38,127,192
1,38,127,76
1,42,127,56
1,42,127,80
1,45,127,60
1,45,127,60
1,47,127,32
1,45,127,32
1,38,127,12
1,38,127,64
1,42,127,72
1,42,127,92
1,45,127,52
1,26,127,192
1,28,127,136
1,30,127,184
1,31,127,12
1,33,127,0
1,31,127,76
1,35,127,48
1,35,127,96
1,38,127,76
1,38,127,80
1,40,127,64
1,38,127,56
1,31,127,48
1,31,127,88
1,35,127,56
1,35,127,96
1,38,127,76
1,38,127,88
1,35,127,28
1,31,127,44
1,40,127,24
1,28,127,560
1,33,127,0
1,40,127,152
1,33,127,16
1,33,127,12
1,35,127,52
1,37,127,100
1,38,127,24
1,33,127,2220
1,35,127,28
1,37,127,196
1,38,127,172
1,38,127,84
1,42,127,60
1,42,127,56
1,45,127,52
1,45,127,68
1,47,127,72
1,47,127,84
1,48,127,68
1,48,127,84
1,47,127,88
1,47,127,76
1,45,127,64
1,26,127,24
1,28,127,192
1,30,127,64
1,31,127,12
1,31,127,68
1,35,127,36
1,35,127,76
1,38,127,72
1,38,127,80
1,40,127,56
1,38,127,32
1,31,127,40
1,31,127,84
1,35,127,48
1,35,127,84
1,38,127,80
1,33,127,72
1,35,127,192
1,37,127,68
1,38,127,40
1,38,127,72
1,42,127,108
1,42,127,60
1,45,127,64
1,45,127,68
1,47,127,40
1,45,127,32
1,38,127,40
1,38,127,76
1,42,127,60
1,42,127,80
1,45,127,80
1,28,127,60
1,30,127,24
1,31,127,20
1,33,127,32
1,33,127,76
1,37,127,72
1,37,127,88
1,40,127,92
1,40,127,76
1,42,127,52
1,40,127,40
1,31,127,76
1,31,127,80
1,35,127,56
1,35,127,84
1,38,127,72
1,33,127,52
1,35,127,20
1,37,127,24
1,38,127,48
1,33,127,2836
1,33,127,44
1,37,127,196
1,37,127,76
1,40,127,36
1,40,127,48
1,42,127,16
1,40,127,16
1,31,127,56
1,31,127,88
1,35,127,52
1,35,127,72
1,38,127,72
1,33,127,36
1,35,127,196
1,37,127,80
1,38,127,72
1,33,127,2248
1,35,127,188
1,37,127,20
1,38,127,24
1,38,127,68
1,42,127,72
1,42,127,48
1,45,127,52
1,45,127,60
1,47,127,12
1,45,127,24
1,38,127,20
1,38,127,68
1,42,127,72
1,42,127,64
1,45,127,68
1,45,127,68
1,47,127,32
1,45,127,32
1,38,127,20
1,38,127,76
1,42,127,52
1,42,127,64
1,45,127,44
1,45,127,64
1,47,127,80
1,45,127,32
1,38,127,12
1,38,127,84
1,42,127,60
1,42,127,60
1,45,127,60
1,45,127,80
1,47,127,20
1,45,127,40
1,38,127,12
1,38,127,84
1,42,127,68
1,42,127,80
1,45,127,72
1,45,127,64
1,47,127,52
1,45,127,40
1,38,127,44
1,38,127,92
1,42,127,72
1,42,127,64
1,45,127,60
1,45,127,64
1,47,127,52
1,45,127,12
1,38,127,8
1,38,127,92
1,42,127,72
1,42,127,80
1,45,127,80
1,45,127,80
1,47,127,40
1,45,127,24
1,38,127,24
1,35,127,12
1,33,127,32
1,38,127,20
2,69,94,1544
2,81,89,0
2,69,88,88
2,81,85,0
2,69,94,84
2,81,89,4
2,69,99,88
2,81,90,0
2,69,88,84
2,81,87,0
2,69,94,96
2,81,92,0
2,71,85,4
2,83,92,0
2,73,103,192
2,85,98,0
2,74,115,12
2,86,94,0
2,69,92,3192
2,74,90,0
2,78,90,0
2,69,89,116
2,74,89,4
2,78,90,0
2,69,95,480
2,74,94,0
2,78,92,0
2,74,87,664
2,69,87,4
2,78,87,0
2,69,92,112
2,74,87,4
2,78,86,0
2,69,94,472
2,74,90,4
2,78,87,0
2,71,88,672
2,74,94,0
2,79,89,0
2,71,88,108
2,74,90,0
2,79,88,0
2,71,92,464
2,74,95,0
2,79,94,0
2,71,85,652
2,74,90,0
2,79,86,0
2,71,89,120
2,74,92,0
2,79,89,0
2,74,95,464
2,79,90,0
2,69,94,560
2,74,92,0
2,78,90,0
2,69,92,104
2,74,92,0
2,78,92,4
2,69,104,468
2,74,95,0
2,78,91,0
2,69,90,644
2,74,92,0
2,78,91,0
2,69,89,92
2,74,89,4
2,78,90,0
2,74,97,452
2,69,99,4
2,78,91,0
2,73,87,644
2,76,89,0
2,81,83,0
2,73,92,104
2,76,89,4
2,81,85,0
2,73,96,448
2,76,94,0
2,81,89,0
2,71,88,648
2,77,95,0
2,79,90,0
2,71,89,100
2,79,89,0
2,77,99,4
2,71,94,456
2,74,97,0
2,79,92,0
2,69,92,248
2,74,89,0
2,78,93,0
2,69,111,2272
2,71,92,192
2,73,100,8
2,74,102,32
2,69,88,252
2,74,85,0
2,78,85,0
2,69,89,100
2,74,85,0
2,78,82,0
2,69,97,464
2,74,95,0
2,78,93,0
2,69,95,636
2,74,95,0
2,78,91,0
2,69,99,672
2,74,97,0
2,78,98,0
2,69,97,104
2,74,99,0
2,78,93,0
2,69,107,460
2,74,99,0
2,78,98,0
2,69,95,636
2,74,95,0
2,78,93,0
2,69,97,116
2,74,99,0
2,78,94,0
2,69,104,464
2,74,99,0
2,78,96,0
2,69,89,672
2,74,90,0
2,78,91,0
2,69,99,124
2,74,97,0
2,78,93,0
2,71,95,460
2,74,102,0
2,79,97,0
2,71,92,648
2,74,97,0
2,79,92,0
2,71,97,100
2,74,104,0
2,79,99,0
2,71,104,436
2,74,107,0
2,79,102,0
2,71,90,624
2,74,97,0
2,79,92,0
2,71,97,104
2,74,104,0
2,79,99,0
2,69,102,424
2,74,95,0
2,78,98,0
2,69,97,660
2,74,95,0
2,78,93,0
2,69,97,104
2,74,99,0
2,78,100,0
2,69,104,456
2,74,102,0
2,78,98,0
2,69,92,644
2,74,94,0
2,78,92,0
2,69,95,104
2,74,97,0
2,78,94,0
2,73,94,452
2,76,92,0
2,81,88,0
2,73,90,612
2,76,92,0
2,81,85,0
2,73,94,104
2,76,95,0
2,81,92,0
2,71,92,480
2,77,97,0
2,79,88,0
2,71,92,620
2,74,97,0
2,79,92,0
2,71,84,92
2,74,89,0
2,79,87,0
2,69,95,96
2,74,94,0
2,78,93,0
2,74,104,2312
2,76,89,20
2,78,93,192
2,83,88,284
2,86,92,0
2,83,84,40
2,86,87,0
2,86,94,40
2,83,83,4
2,86,99,120
2,83,95,4
2,83,95,88
2,88,95,0
2,83,97,96
2,88,104,0
2,83,97,88
2,86,104,0
2,83,102,444
2,88,107,0
2,83,99,232
2,86,111,4
2,83,87,28
2,88,85,0
2,83,90,108
2,88,97,0
2,83,95,72
2,86,111,4
2,78,94,460
2,81,97,0
2,78,83,40
2,81,86,0
2,78,84,40
2,81,87,0
2,81,94,96
2,78,85,4
2,78,90,64
2,83,83,0
2,78,84,88
2,83,84,0
2,81,85,56
2,78,90,4
2,78,96,444
2,83,90,0
2,78,98,276
2,81,102,0
2,78,92,60
2,83,88,0
2,78,92,88
2,83,92,0
2,78,94,92
2,81,95,0
2,83,87,436
2,86,97,0
2,83,79,44
2,86,92,0
2,83,84,40
2,86,94,4
2,83,94,108
2,86,111,4
2,83,95,116
2,88,104,0
2,83,90,92
2,88,97,0
2,83,94,92
2,86,102,4
2,83,99,472
2,88,107,0
2,86,104,260
2,83,90,4
2,83,89,64
2,88,95,0
2,83,87,88
2,88,92,0
2,83,92,76
2,86,104,4
2,80,107,252
2,88,104,0
2,80,117,552
2,88,89,0
2,73,111,504
2,81,111,0
2,71,80,8
2,79,94,0
2,69,85,4
2,78,94,0
2,67,82,28
2,76,88,0
2,66,93,100
2,74,97,0
2,74,90,180
2,78,92,0
2,74,90,124
2,78,88,4
2,69,97,500
2,74,89,0
2,78,85,0
2,69,97,676
2,74,95,0
2,78,93,0
2,69,92,668
2,74,90,0
2,78,92,0
2,69,95,120
2,74,95,0
2,78,94,0
2,69,102,464
2,74,94,0
2,78,92,0
2,69,95,652
2,74,94,0
2,78,92,0
2,69,97,116
2,74,95,0
2,78,94,0
2,69,111,468
2,74,97,0
2,78,92,0
2,69,94,680
2,74,90,0
2,78,90,0
2,69,94,116
2,74,95,0
2,78,92,0
2,71,99,476
2,74,102,0
2,79,97,0
2,71,90,620
2,77,99,0
2,79,89,0
2,71,89,96
2,77,97,0
2,79,89,0
2,71,99,464
2,74,107,0
2,79,99,0
2,71,89,636
2,74,92,0
2,79,88,0
2,71,89,92
2,74,95,0
2,79,94,0
2,69,104,456
2,74,99,0
2,78,98,0
2,69,94,620
2,74,94,0
2,78,92,0
2,69,94,104
2,74,99,0
2,78,96,0
2,69,104,460
2,74,99,0
2,78,98,0
2,69,90,640
2,74,88,0
2,78,87,0
2,69,95,112
2,74,95,0
2,78,94,0
2,73,98,456
2,76,97,0
2,81,92,0
2,73,94,612
2,76,94,0
2,81,87,0
2,73,98,108
2,76,95,0
2,81,92,0
2,71,97,484
2,77,107,0
2,79,99,0
2,71,92,632
2,77,97,0
2,79,95,0
2,71,83,96
2,77,86,0
2,79,82,0
2,74,99,84
2,78,103,0
2,83,99,3028
2,86,107,0
2,83,82,48
2,86,94,0
2,83,75,56
2,86,89,0
2,83,92,124
2,86,111,0
2,83,87,116
2,88,94,0
2,88,97,108
2,83,88,4
2,83,89,100
2,86,104,0
2,83,99,492
2,88,102,0
2,83,97,292
2,86,111,0
2,83,90,124
2,88,94,0
2,88,97,116
2,83,88,4
2,83,99,112
2,86,117,0
2,78,107,476
2,81,94,0
2,78,91,52
2,81,89,0
2,78,87,44
2,81,82,0
2,78,98,116
2,81,94,4
2,78,92,92
2,83,88,4
2,78,96,112
2,83,90,4
2,78,100,92
2,81,94,0
2,78,103,460
2,83,95,0
2,81,94,268
2,78,103,4
2,78,92,112
2,83,85,4
2,83,87,108
2,78,94,4
2,78,103,116
2,81,95,0
2,83,94,472
2,86,111,0
2,83,78,52
2,86,88,0
2,83,79,56
2,86,89,0
2,86,115,132
2,83,90,4
2,83,89,124
2,88,107,0
2,83,90,120
2,88,117,0
2,83,92,112
2,86,111,0
2,88,115,480
2,83,102,4
2,86,111,260
2,83,102,4
2,83,97,96
2,88,104,0
2,88,102,116
2,83,94,4
2,83,102,112
2,86,117,0
2,88,115,260
2,80,107,584
2,88,102,0
2,73,117,568
2,81,86,0
2,71,92,380
2,79,85,0
2,69,95,12
2,78,90,0
2,67,92,12
2,76,94,0
2,66,115,48
2,74,115,0
2,69,97,3200
2,74,94,0
2,78,92,0
2,78,94,116
2,69,94,4
2,74,97,0
2,69,99,492
2,74,95,0
2,78,94,0
2,69,85,92
2,74,89,0
2,78,92,0
2,74,99,488
2,78,103,0
2,81,92,0
2,74,92,664
2,78,103,0
2,81,85,0
2,74,90,112
2,78,103,0
2,81,86,0
2,71,99,488
2,74,104,0
2,77,92,0
2,79,89,0
2,71,90,648
2,74,94,0
2,77,94,0
2,79,82,0
2,71,89,116
2,74,95,0
2,77,94,0
2,79,87,0
2,71,102,484
