track,note,velocity,time
0,42,75,0
0,42,75,95
0,42,75,95
0,42,75,95
0,42,75,95
0,42,75,95
0,40,126,95
0,40,100,47
0,40,126,23
0,40,126,47
0,40,126,23
0,31,94,47
0,36,74,0
0,49,64,0
0,31,94,11
0,36,74,1
0,31,66,11
0,43,66,0
0,31,66,2
0,67,116,0
0,71,116,0
0,74,116,0
0,39,64,0
0,44,104,0
0,43,66,0
0,67,101,14
0,71,101,0
0,74,101,0
0,36,74,0
0,38,80,0
0,50,80,0
0,38,80,1
0,67,116,0
0,71,116,0
0,74,116,0
0,40,126,0
0,31,94,0
0,50,80,0
0,31,94,11
0,67,101,0
0,71,101,0
0,74,101,0
0,36,74,0
0,43,66,0
0,31,66,0
0,31,94,1
0,31,66,0
0,43,66,0
0,67,116,0
0,71,116,0
0,74,116,0
0,39,64,0
0,44,104,0
0,67,101,11
0,71,101,0
0,74,101,0
0,43,80,1
0,31,94,1
0,55,80,0
0,67,116,0
0,71,116,0
0,74,116,0
0,36,74,0
0,55,80,0
0,43,80,0
0,67,101,11
0,71,101,0
0,74,101,0
0,31,94,0
0,31,66,0
0,43,66,1
0,31,66,0
0,43,66,0
0,67,116,0
0,71,116,0
0,74,116,0
0,36,74,0
0,39,64,0
0,44,104,0
0,31,94,12
0,67,101,1
0,71,101,0
0,74,101,0
0,36,74,0
0,50,80,1
0,38,80,0
0,67,116,1
0,71,116,0
0,74,116,0
0,40,126,0
0,38,80,0
0,50,80,0
0,31,94,14
0,67,101,0
0,71,101,0
0,74,101,0
0,36,74,0
0,43,66,1
0,43,66,0
0,67,116,1
0,71,116,0
0,74,116,0
0,39,64,0
0,44,104,0
0,31,66,0
0,31,66,0
0,67,101,14
0,71,101,0
0,74,101,0
0,31,94,1
0,67,116,0
0,71,116,0
0,74,116,0
0,36,74,0
0,31,94,12
0,67,101,0
0,71,101,0
0,74,101,0
0,36,74,0
0,43,66,11
0,31,66,0
0,31,66,1
0,67,116,0
0,71,116,0
0,74,116,0
0,39,64,0
0,44,104,0
0,43,66,0
0,31,64,14
0,67,101,0
0,71,101,0
0,74,101,0
0,36,74,0
0,50,80,0
0,38,80,0
0,31,94,1
0,67,116,0
0,71,116,0
0,74,116,0
0,40,126,0
0,38,80,0
0,50,80,0
0,31,94,10
0,67,101,1
0,71,101,0
0,74,101,0
0,36,74,0
0,31,66,1
0,43,66,0
0,43,66,0
0,31,94,1
0,67,116,0
0,71,116,0
0,74,116,0
0,39,64,0
0,44,104,0
0,31,66,0
0,67,101,11
0,71,101,0
0,74,101,0
0,55,80,0
0,55,80,0
0,31,94,1
0,43,80,0
0,67,116,0
0,71,116,0
0,74,116,0
0,36,74,0
0,43,80,0
0,67,101,11
0,71,101,0
0,74,101,0
0,31,66,0
0,43,66,0
0,31,66,1
0,43,66,0
0,67,116,1
0,71,116,0
0,74,116,0
0,36,74,0
0,39,64,0
0,44,104,0
0,31,94,14
0,67,101,0
0,71,101,0
0,74,101,0
0,36,74,0
0,50,80,2
0,38,80,1
0,67,116,0
0,71,116,0
0,74,116,0
0,40,126,0
0,38,80,0
0,50,80,0
0,31,94,13
0,67,101,1
0,71,101,0
0,74,101,0
0,36,74,0
0,31,66,0
0,43,66,0
0,31,66,0
0,67,116,1
0,71,116,0
0,74,116,0
0,39,64,0
0,44,104,0
0,43,66,0
0,31,94,13
0,67,101,1
0,71,101,0
0,74,101,0
0,31,94,1
0,67,116,0
0,70,116,0
0,74,116,0
0,36,74,0
0,31,94,10
0,67,101,1
0,70,101,0
0,74,101,0
0,36,74,0
0,31,66,11
0,43,66,0
0,31,66,1
0,43,66,1
0,67,116,0
0,70,116,0
0,74,116,0
0,39,64,0
0,44,104,0
0,67,101,14
0,70,101,0
0,74,101,0
0,36,74,0
0,38,80,0
0,38,80,0
0,31,94,2
0,50,80,0
0,67,116,0
0,70,116,0
0,74,116,0
0,40,126,0
0,50,80,0
0,31,94,12
0,67,101,0
0,70,101,0
0,74,101,0
0,36,74,0
0,31,66,0
0,31,94,0
0,43,66,0
0,43,66,0
0,31,66,1
0,67,116,0
0,70,116,0
0,74,116,0
0,39,64,0
0,44,104,0
0,67,101,12
0,70,101,0
0,74,101,0
0,43,80,1
0,55,80,0
0,43,80,1
0,55,80,0
0,67,116,0
0,70,116,0
0,74,116,0
0,36,74,0
0,31,94,0
0,67,101,11
0,70,101,0
0,74,101,0
0,31,66,0
0,43,66,0
0,43,66,2
0,31,66,0
0,67,116,0
0,70,116,0
0,74,116,0
0,36,74,0
0,39,64,0
0,44,104,0
0,31,94,0
0,31,94,10
0,67,101,1
0,70,101,0
0,74,101,0
0,36,74,0
0,38,80,0
0,50,80,2
0,38,80,0
0,67,116,0
0,70,116,0
0,74,116,0
0,40,126,0
0,50,80,0
0,31,94,14
0,67,101,0
0,70,101,0
0,74,101,0
0,36,74,0
0,31,66,1
0,43,66,0
0,43,66,0
0,67,116,0
0,70,116,0
0,74,116,0
0,39,64,0
0,44,104,0
0,31,66,0
0,67,101,14
0,70,101,0
0,74,101,0
0,31,94,1
0,67,116,0
0,70,116,0
0,74,116,0
0,36,74,0
0,31,94,10
0,67,101,1
0,70,101,0
0,74,101,0
0,36,74,0
0,43,66,12
0,43,66,1
0,67,116,0
0,70,116,0
0,74,116,0
0,39,64,0
0,44,104,0
0,31,66,0
0,31,66,0
0,31,64,13
0,67,101,1
0,70,101,0
0,74,101,0
0,36,74,0
0,38,80,0
0,31,94,1
0,38,80,0
0,50,80,0
0,50,80,0
0,67,116,0
0,70,116,0
0,74,116,0
0,40,126,0
0,31,94,11
0,67,101,0
0,70,101,0
0,74,101,0
0,36,74,0
0,43,66,0
0,31,94,1
0,43,66,0
0,31,66,1
0,67,116,0
0,70,116,0
0,74,116,0
0,39,64,0
0,44,104,0
0,31,66,0
0,67,101,12
0,70,101,0
0,74,101,0
0,43,80,0
0,31,94,0
0,55,80,0
0,43,80,0
0,55,80,0
0,67,116,1
0,70,116,0
0,74,116,0
0,36,74,0
0,40,126,0
0,67,101,12
0,70,101,0
0,74,101,0
0,31,66,1
0,31,66,1
0,43,66,0
0,43,66,1
0,67,116,0
0,70,116,0
0,74,116,0
0,36,74,0
0,39,64,0
0,40,110,0
0,44,104,0
0,31,94,14
0,67,101,0
0,70,101,0
0,74,101,0
0,36,74,0
0,40,126,0
0,50,80,0
0,55,80,1
0,60,80,0
0,50,80,0
0,67,116,0
0,70,116,0
0,74,116,0
0,38,80,1
0,31,94,14
0,67,101,0
0,70,101,0
0,74,101,0
0,36,74,0
0,40,110,0
0,55,80,0
0,31,66,0
0,43,66,1
0,67,116,0
0,70,116,0
0,74,116,0
0,39,64,0
0,40,126,0
0,44,104,0
0,50,80,0
0,60,80,0
0,31,94,13
0,67,101,1
0,70,101,0
0,74,101,0
0,26,94,0
0,50,80,0
0,55,80,0
0,60,80,1
0,36,74,0
0,26,94,12
0,36,74,1
0,39,64,0
0,62,80,1
0,44,104,1
0,50,80,0
0,57,80,0
0,36,74,23
0,40,126,1
0,26,94,0
0,26,94,11
0,36,74,0
0,26,94,1
0,62,70,0
0,44,104,0
0,26,94,1
0,62,90,1
0,36,74,0
0,26,94,2
0,62,70,0
0,36,74,0
0,44,104,0
0,26,94,10
0,36,74,1
0,62,90,2
0,40,126,0
0,36,74,1
0,26,94,0
0,60,70,2
0,37,94,0
0,39,64,0
0,44,104,0
0,26,94,1
0,62,90,1
0,36,74,0
0,26,94,4
0,36,74,0
0,39,64,0
0,44,104,12
0,26,64,23
0,36,74,0
0,26,94,2
0,64,90,0
0,40,126,0
0,26,94,12
0,36,74,0
0,26,94,3
0,44,104,0
0,62,90,0
0,26,94,3
0,36,74,1
0,59,50,2
0,36,74,0
0,44,104,0
0,26,94,22
0,36,74,1
0,69,80,11
0,65,80,1
0,40,126,0
0,60,80,0
0,26,94,22
0,36,74,1
0,60,80,0
0,65,80,1
0,69,80,1
0,37,94,0
0,39,64,0
0,44,104,0
0,26,94,4
0,31,94,1
0,60,80,0
0,69,80,1
0,65,80,0
0,36,74,0
0,31,94,13
0,36,74,0
0,39,64,0
0,67,80,2
0,62,80,0
0,71,80,0
0,44,104,0
0,36,74,23
0,31,94,1
0,40,126,1
0,31,94,11
0,36,74,1
0,67,70,13
0,44,104,0
0,31,94,0
0,31,94,2
0,67,90,0
0,36,74,0
0,67,70,2
0,36,74,0
0,44,104,0
0,31,94,0
0,31,94,10
0,36,74,1
0,67,90,2
0,40,126,0
0,31,94,22
0,36,74,1
0,65,70,2
0,37,94,0
0,39,64,0
0,44,104,0
0,31,94,2
0,67,90,0
0,36,74,0
0,31,94,7
0,36,74,0
0,39,64,0
0,44,104,11
0,31,64,12
0,36,74,0
0,31,94,1
0,69,90,1
0,40,126,0
0,31,94,1
0,36,74,0
0,31,94,9
0,44,104,1
0,67,90,2
0,31,94,2
0,36,74,1
0,64,50,2
0,36,74,0
0,44,104,0
0,31,94,13
0,36,74,1
0,58,80,12
0,62,80,0
0,53,80,0
0,40,126,0
0,31,94,23
0,36,74,0
0,58,80,0
0,62,80,0
0,53,80,2
0,37,94,0
0,39,64,0
0,44,104,0
0,31,94,15
0,34,94,1
0,53,80,0
0,62,80,0
0,58,80,0
0,36,74,1
0,34,94,11
0,36,74,1
0,39,64,0
0,64,80,2
0,55,80,1
0,60,80,0
0,44,104,0
0,36,74,23
0,34,94,1
0,40,126,1
0,34,94,13
0,36,74,0
0,34,94,2
0,44,104,0
0,58,50,1
0,67,90,2
0,36,74,0
0,34,94,0
0,34,94,2
0,65,70,0
0,36,74,0
0,44,104,0
0,34,94,3
0,36,74,0
0,65,90,2
0,40,126,0
0,34,94,22
0,36,74,1
0,64,70,2
0,37,94,0
0,39,64,0
0,44,104,0
0,34,94,1
0,64,90,1
0,36,74,0
0,34,94,11
0,36,74,0
0,39,64,0
0,44,104,13
0,34,64,22
0,36,74,1
0,34,94,1
0,64,90,1
0,40,126,0
0,34,94,13
0,36,74,0
0,34,94,10
0,44,104,1
0,64,90,2
0,36,74,24
0,34,94,0
0,36,74,35
0,44,104,0
0,34,94,2
0,36,74,0
0,50,80,6
0,55,80,1
0,60,80,0
0,40,126,0
0,34,94,15
0,36,74,1
0,55,80,1
0,60,80,1
0,50,80,1
0,37,94,0
0,39,64,0
0,44,104,0
0,22,94,24
0,55,80,1
0,60,80,0
0,50,80,0
0,36,74,1
0,26,94,0
0,26,94,10
0,36,74,1
0,39,64,0
0,57,80,1
0,50,80,1
0,62,80,1
0,44,104,0
0,36,74,23
0,26,94,2
0,40,126,0
0,26,94,11
0,36,74,0
0,26,94,12
0,57,70,0
0,44,104,0
0,26,94,1
0,60,90,1
0,36,74,0
0,26,94,2
0,62,90,0
0,36,74,0
0,44,104,0
0,26,94,6
0,36,74,0
0,40,126,2
0,26,94,22
0,36,74,1
0,37,94,12
0,39,64,0
0,44,104,0
0,26,94,2
0,60,90,0
0,36,74,0
0,26,94,5
0,36,74,1
0,39,64,0
0,62,70,2
0,44,104,0
0,26,64,14
0,36,74,1
0,26,94,1
0,60,70,1
0,40,126,0
0,26,94,11
0,36,74,0
0,26,94,1
0,62,90,1
0,44,104,0
0,26,94,4
0,36,74,1
0,36,74,2
0,44,104,0
0,26,94,18
0,36,74,1
0,50,80,12
0,55,80,0
0,60,80,1
0,40,126,0
0,36,74,23
0,26,94,0
0,55,80,0
0,60,80,1
0,50,80,1
0,37,94,0
0,39,64,0
0,44,104,0
0,26,94,23
0,50,80,0
0,26,94,1
0,38,104,1
0,60,80,0
0,36,74,0
0,55,80,0
0,36,74,12
0,39,64,0
0,26,94,0
0,50,80,0
0,38,104,1
0,57,80,0
0,62,80,0
0,44,104,0
0,36,74,23
0,38,104,1
0,40,126,0
0,26,94,0
0,36,74,11
0,26,94,0
0,26,94,0
0,38,104,1
0,57,50,0
0,44,104,0
0,36,104,1
0,62,90,0
0,36,74,0
0,26,94,0
0,26,94,1
0,38,104,0
0,62,70,0
0,36,74,0
0,44,104,0
0,26,94,4
0,36,74,1
0,62,90,1
0,40,126,0
0,26,94,5
0,36,74,0
0,38,104,1
0,60,70,0
0,37,94,0
0,39,64,0
0,44,104,0
0,26,94,1
0,62,90,1
0,36,74,0
0,26,94,8
0,36,74,1
0,39,64,0
0,38,104,1
0,44,104,0
0,36,74,22
0,26,64,0
0,26,94,1
0,64,90,1
0,40,126,0
0,26,94,5
0,36,74,0
0,26,94,0
0,38,104,1
0,44,104,0
0,62,90,2
0,26,94,1
0,36,104,0
0,36,74,0
0,38,104,1
0,59,50,0
0,36,74,0
0,44,104,0
0,26,94,23
0,36,74,0
0,65,80,9
0,60,80,0
0,69,80,0
0,36,104,1
0,40,126,0
0,26,94,23
0,36,74,0
0,69,80,0
0,38,104,1
0,60,80,0
0,37,94,0
0,39,64,0
0,44,104,0
0,65,80,0
0,26,94,9
0,60,80,0
0,31,94,0
0,69,80,0
0,43,104,1
0,36,74,0
0,65,80,0
0,31,94,12
0,36,74,0
0,39,64,0
0,43,104,1
0,67,80,0
0,71,80,0
0,44,104,0
0,62,80,0
0,36,74,23
0,31,94,1
0,43,104,0
0,40,126,0
0,31,94,11
0,36,74,1
0,31,94,0
0,43,104,1
0,67,70,0
0,44,104,0
0,41,104,1
0,67,90,0
0,36,74,0
0,31,94,0
0,31,94,1
0,43,104,0
0,67,70,0
0,36,74,0
0,44,104,0
0,36,74,2
0,31,94,0
0,67,90,5
0,40,126,0
0,31,94,8
0,36,74,1
0,43,104,1
0,65,70,0
0,37,94,0
0,39,64,0
0,44,104,0
0,31,94,25
0,36,74,1
0,31,94,2
0,36,74,1
0,39,64,0
0,43,104,1
0,67,90,0
0,44,104,0
0,36,74,1
0,31,64,0
0,31,94,11
0,40,126,0
0,31,94,1
0,69,90,1
0,36,74,0
0,31,94,0
0,43,104,1
0,44,104,0
0,31,94,0
0,41,104,1
0,67,90,0
0,36,74,0
0,43,104,1
0,36,74,0
0,44,104,0
0,31,94,1
0,64,50,0
0,36,74,0
0,53,80,0
0,41,104,1
0,58,80,0
0,40,126,0
0,62,80,0
0,31,94,23
0,36,74,0
0,62,80,0
0,43,104,1
0,53,80,0
0,58,80,0
0,37,94,0
0,39,64,0
0,44,104,0
0,31,94,2
0,58,80,0
0,34,94,0
0,46,104,1
0,53,80,0
0,62,80,0
0,36,74,0
0,34,94,12
0,36,74,1
0,39,64,0
0,46,104,1
0,64,80,0
0,55,80,0
0,44,104,0
0,60,80,0
0,36,74,23
0,34,94,1
0,46,104,0
0,40,126,0
0,34,94,10
0,36,74,1
0,34,94,0
0,46,104,1
0,67,70,0
0,44,104,0
0,34,94,0
0,43,104,1
0,67,90,0
0,36,74,0
0,34,94,1
0,46,104,0
0,65,70,0
0,36,74,0
0,44,104,0
0,36,74,5
0,34,94,0
0,65,90,2
0,40,126,0
0,34,94,23
0,36,74,0
0,46,104,1
0,64,70,0
0,37,94,0
0,39,64,0
0,44,104,0
0,34,94,2
0,64,90,0
0,36,74,0
0,34,94,11
0,36,74,0
0,39,64,0
0,46,104,1
0,44,104,0
0,34,64,23
0,36,74,0
0,34,94,1
0,40,126,1
0,34,94,12
0,64,90,0
0,36,74,0
0,34,94,0
0,46,104,1
0,62,50,0
0,44,104,0
0,64,90,2
0,43,104,1
0,36,74,0
0,34,94,0
0,46,104,1
0,36,74,0
0,44,104,0
0,34,94,4
0,36,74,0
0,55,80,6
0,60,80,0
0,50,80,0
0,43,104,1
0,40,126,0
0,34,94,16
0,36,74,0
0,50,80,0
0,36,104,1
0,55,80,0
0,37,94,0
0,39,64,0
0,44,104,0
0,60,80,0
0,22,94,23
0,55,80,0
0,26,94,1
0,38,104,0
0,50,80,0
0,36,74,0
0,60,80,0
0,26,94,11
0,36,74,1
0,39,64,0
0,50,80,0
0,57,80,0
0,38,104,1
0,44,104,0
0,62,80,0
0,36,74,23
0,26,94,1
0,38,104,0
0,40,126,0
0,26,94,11
0,36,74,0
