track,note,velocity,time
3,36,100,768
3,36,100,0
3,36,100,0
3,36,100,0
3,36,100,0
3,36,100,0
3,36,100,0
3,36,100,0
3,36,100,0
3,36,100,0
3,36,100,0
3,36,100,0
3,36,100,0
3,36,100,0
3,36,100,0
3,36,100,0
3,36,100,0
3,36,100,0
3,36,100,0
3,36,100,0
3,36,100,0
3,36,100,0
3,36,100,0
3,36,100,0
3,36,100,0
3,36,100,0
3,36,100,0
3,36,100,0
3,36,100,0
3,36,100,0
3,36,100,0
3,36,100,0
3,36,100,0
3,36,100,0
3,36,100,0
3,36,100,0
3,36,100,0
3,36,100,0
3,36,100,0
3,36,100,0
3,36,100,0
3,36,100,0
3,36,100,0
3,36,100,0
3,36,100,0
3,36,100,0
3,36,100,0
3,36,100,0
3,36,100,0
3,36,100,0
3,36,100,0
3,36,100,0
3,36,100,0
3,36,100,0
3,36,100,0
3,36,100,0
3,36,100,0
3,36,100,0
3,36,100,0
3,36,100,0
3,36,100,0
3,36,100,0
3,36,100,0
3,36,100,0
3,29,100,0
3,29,100,0
3,29,100,0
3,29,100,0
3,29,100,0
3,29,100,0
3,29,100,0
3,29,100,0
3,29,100,0
3,29,100,0
3,29,100,0
3,29,100,0
3,29,100,0
3,29,100,0
3,29,100,0
3,29,100,0
3,31,100,0
3,31,100,0
3,31,100,0
3,31,100,0
3,31,100,0
3,31,100,0
3,31,100,0
3,31,100,0
3,31,100,0
3,31,100,0
3,31,100,0
3,31,100,0
3,31,100,0
3,31,100,0
3,31,100,0
3,31,100,0
3,31,100,0
3,31,100,0
3,31,100,0
3,31,100,0
3,31,100,0
3,31,100,0
3,31,100,0
3,31,100,0
3,31,100,0
3,31,100,0
3,31,100,0
3,31,100,0
3,31,100,0
3,31,100,0
3,31,100,0
3,36,100,0
3,36,100,0
3,36,100,0
3,36,100,0
3,36,100,0
3,36,100,0
3,36,100,0
3,36,100,0
3,36,100,0
3,36,100,0
3,36,100,0
3,36,100,0
3,36,100,0
3,36,100,0
3,36,100,0
3,36,100,0
3,36,100,0
3,36,100,0
3,36,100,0
3,36,100,0
3,36,100,0
3,36,100,0
3,36,100,0
3,36,100,0
3,36,100,0
3,36,100,0
3,36,100,0
3,36,100,0
3,36,100,0
3,36,100,0
3,36,100,0
3,36,100,0
3,36,100,0
3,36,100,0
3,36,100,0
3,36,100,0
3,36,100,0
3,36,100,0
3,36,100,0
3,36,100,0
3,36,100,0
3,36,100,0
3,36,100,0
3,36,100,0
3,36,100,0
3,36,100,0
3,36,100,0
3,36,100,0
3,36,100,0
3,36,100,0
3,36,100,0
3,36,100,0
3,36,100,0
3,36,100,0
3,36,100,0
3,36,100,0
3,36,100,0
3,36,100,0
3,36,100,0
3,36,100,0
3,36,100,0
3,36,100,0
3,36,100,0
3,36,100,0
3,36,100,0
3,36,100,0
3,36,100,0
3,36,100,0
3,36,100,0
3,36,100,0
3,36,100,0
3,36,100,0
3,36,100,0
3,36,100,0
3,36,100,0
3,36,100,0
3,36,100,0
3,36,100,0
3,36,100,0
3,36,100,0
3,36,100,0
3,36,100,0
3,36,100,0
3,36,100,0
3,36,100,0
3,36,100,0
3,36,100,0
3,36,100,0
3,36,100,0
3,36,100,0
3,36,100,0
3,36,100,0
3,36,100,0
3,36,100,0
3,36,100,0
3,36,100,0
3,36,100,0
3,36,100,0
3,36,100,0
3,36,100,0
3,36,100,0
3,36,100,0
3,36,100,0
3,36,100,0
3,36,100,0
3,36,100,0
3,36,100,0
3,36,100,0
3,36,100,0
3,36,100,0
3,36,100,0
3,36,100,0
3,36,100,0
3,36,100,0
3,36,100,0
3,36,100,0
3,36,100,0
3,36,100,0
3,36,100,0
3,36,100,0
3,36,100,0
3,36,100,0
3,36,100,0
3,36,100,0
3,36,100,0
3,36,100,0
3,36,100,0
3,36,100,0
3,36,100,0
3,36,100,0
3,36,100,0
3,36,100,0
3,36,100,0
3,36,100,0
3,36,100,0
3,36,100,0
3,36,100,0
3,36,100,0
3,36,100,0
3,36,100,0
3,36,100,0
3,36,100,0
3,36,100,0
3,36,100,0
3,36,100,0
3,36,100,0
3,36,100,0
3,36,100,0
3,36,100,0
3,36,100,0
3,36,100,0
3,36,100,0
3,36,100,0
3,36,100,0
3,36,100,0
3,36,100,0
3,36,100,0
3,36,100,0
3,31,100,0
3,31,100,0
3,31,100,0
3,31,100,0
3,31,100,0
3,31,100,0
3,31,100,0
3,31,100,0
3,31,100,0
3,31,100,0
3,31,100,0
3,31,100,0
3,31,100,0
3,31,100,0
3,31,100,0
3,31,100,0
3,31,100,0
3,31,100,0
3,31,100,0
3,31,100,0
3,31,100,0
3,31,100,0
3,31,100,0
3,31,100,0
3,31,100,0
3,31,100,0
3,31,100,0
3,31,100,0
3,31,100,0
3,31,100,0
3,31,100,0
3,31,100,0
3,31,100,0
3,31,100,0
3,31,100,0
3,31,100,0
3,31,100,0
3,31,100,0
3,31,100,0
3,31,100,0
3,31,100,0
3,31,100,0
3,31,100,0
3,31,100,0
3,31,100,0
3,31,100,0
3,31,100,0
3,31,100,0
3,31,100,0
3,31,100,0
3,31,100,0
3,31,100,0
3,31,100,0
3,31,100,0
3,31,100,0
3,31,100,0
3,31,100,0
3,31,100,0
3,31,100,0
3,31,100,0
3,31,100,0
3,35,100,0
3,36,100,0
3,36,100,0
3,36,100,0
3,36,100,0
3,36,100,0
3,36,100,0
3,36,100,0
3,36,100,0
3,36,100,0
3,36,100,0
3,36,100,0
3,36,100,0
3,36,100,0
3,36,100,0
3,36,100,0
3,36,100,0
3,36,100,0
3,36,100,0
3,36,100,0
3,36,100,0
3,36,100,0
3,36,100,0
3,36,100,0
3,36,100,0
3,36,100,0
3,36,100,0
3,36,100,0
3,36,100,0
3,36,100,0
3,36,100,0
3,36,100,0
3,36,100,0
3,36,100,0
3,36,100,0
3,36,100,0
3,36,100,0
3,36,100,0
3,36,100,0
3,36,100,0
3,36,100,0
3,36,100,0
3,36,100,0
3,36,100,0
3,36,100,0
3,36,100,0
3,36,100,0
3,36,100,0
3,36,100,0
3,36,100,0
3,36,100,0
3,36,100,0
3,36,100,0
3,36,100,0
3,36,100,0
3,36,100,0
3,36,100,0
3,36,100,0
3,36,100,0
3,36,100,0
3,36,100,0
3,36,100,0
3,36,100,0
3,36,100,0
3,36,100,0
3,36,100,0
3,36,100,0
3,36,100,0
3,36,100,0
3,36,100,0
3,36,100,0
3,36,100,0
3,36,100,0
3,36,100,0
3,36,100,0
3,36,100,0
3,36,100,0
3,36,100,0
3,36,100,0
3,36,100,0
3,36,100,0
3,36,100,0
3,36,100,0
3,36,100,0
3,36,100,0
3,36,100,0
3,36,100,0
3,36,100,0
3,36,100,0
3,36,100,0
3,36,100,0
3,36,100,0
3,36,100,0
3,36,100,0
3,36,100,0
3,36,100,0
3,36,100,0
3,36,100,0
3,36,100,0
3,36,100,0
3,36,100,0
3,36,100,0
3,36,100,0
3,36,100,0
3,36,100,0
3,36,100,0
3,36,100,0
3,36,100,0
3,36,100,0
3,36,100,0
3,36,100,0
3,36,100,0
3,36,100,0
3,36,100,0
3,36,100,0
3,36,100,0
3,36,100,0
3,36,100,0
3,36,100,0
3,36,100,0
3,36,100,0
3,36,100,0
3,36,100,0
3,36,100,0
3,36,100,0
3,36,100,0
3,36,100,0
3,31,100,0
3,31,100,0
3,31,100,0
3,31,100,0
3,31,100,0
3,31,100,0
3,31,100,0
3,31,100,0
3,31,100,0
3,31,100,0
3,31,100,0
3,31,100,0
3,31,100,0
3,31,100,0
3,31,100,0
3,31,100,0
3,31,100,0
3,31,100,0
3,31,100,0
3,31,100,0
3,31,100,0
3,31,100,0
3,31,100,0
3,31,100,0
3,31,100,0
3,31,100,0
3,31,100,0
3,31,100,0
3,31,100,0
3,31,100,0
3,31,100,0
3,31,100,0
3,31,100,0
3,31,100,0
3,31,100,0
3,31,100,0
3,31,100,0
3,31,100,0
3,31,100,0
3,31,100,0
3,31,100,0
3,31,100,0
3,31,100,0
3,31,100,0
3,31,100,0
3,31,100,0
3,31,100,0
3,31,100,0
3,31,100,0
3,31,100,0
3,31,100,0
3,31,100,0
3,31,100,0
3,31,100,0
3,31,100,0
3,31,100,0
3,31,100,0
3,31,100,0
3,31,100,0
3,31,100,0
3,31,100,0
3,31,100,0
3,31,100,0
3,33,100,0
3,33,100,0
3,33,100,0
3,33,100,0
3,33,100,0
3,33,100,0
3,33,100,0
3,33,100,0
3,33,100,0
3,33,100,0
3,33,100,0
3,33,100,0
3,33,100,0
3,33,100,0
3,33,100,0
3,33,100,0
3,33,100,0
3,33,100,0
3,33,100,0
3,33,100,0
3,33,100,0
3,33,100,0
3,33,100,0
3,33,100,0
3,33,100,0
3,33,100,0
3,33,100,0
3,33,100,0
3,33,100,0
3,33,100,0
3,33,100,0
3,33,100,0
3,33,100,0
3,33,100,0
3,33,100,0
3,33,100,0
3,33,100,0
3,33,100,0
3,33,100,0
3,33,100,0
3,33,100,0
3,33,100,0
3,33,100,0
3,33,100,0
3,33,100,0
3,33,100,0
3,33,100,0
3,33,100,0
3,33,100,0
3,33,100,0
3,33,100,0
3,33,100,0
3,33,100,0
3,33,100,0
3,33,100,0
3,33,100,0
3,33,100,0
3,33,100,0
3,33,100,0
3,33,100,0
3,33,100,0
3,33,100,0
3,33,100,0
3,33,100,0
3,33,100,0
3,33,100,0
3,33,100,0
3,33,100,0
3,33,100,0
3,33,100,0
3,33,100,0
3,33,100,0
3,33,100,0
3,33,100,0
3,33,100,0
3,33,100,0
3,33,100,0
3,33,100,0
3,33,100,0
3,33,100,0
3,35,100,0
3,33,100,0
3,31,100,0
3,35,100,0
3,31,100,0
3,31,100,0
3,28,100,0
3,28,100,0
3,28,100,0
3,28,100,0
3,28,100,0
3,28,100,0
3,28,100,0
3,28,100,0
3,28,100,0
3,28,100,0
3,28,100,0
3,28,100,0
3,28,100,0
3,28,100,0
3,28,100,0
3,28,100,0
3,28,100,0
3,36,100,5760
3,36,100,0
3,36,100,0
3,36,100,0
3,36,100,0
3,36,100,0
3,36,100,0
3,36,100,0
3,36,100,0
3,36,100,0
3,36,100,0
3,36,100,0
3,36,100,0
3,36,100,0
3,36,100,0
3,36,100,0
3,36,100,0
3,36,100,0
3,36,100,0
3,36,100,0
3,36,100,0
3,36,100,0
3,36,100,0
3,36,100,0
3,36,100,0
3,36,100,0
3,36,100,0
3,36,100,0
3,36,100,0
3,36,100,0
3,36,100,0
3,36,100,0
3,36,100,0
3,36,100,0
3,36,100,0
3,36,100,0
3,36,100,0
3,36,100,0
3,36,100,0
3,36,100,0
3,36,100,0
3,36,100,0
3,36,100,0
3,36,100,0
3,36,100,0
3,36,100,0
3,36,100,0
3,36,100,0
3,36,100,0
3,36,100,0
3,36,100,0
3,36,100,0
3,36,100,0
3,36,100,0
3,36,100,0
3,36,100,0
3,36,100,0
3,36,100,0
3,36,100,0
3,36,100,0
3,36,100,0
3,36,100,0
3,36,100,0
3,36,100,0
3,36,100,0
3,36,100,0
3,36,100,0
3,36,100,0
3,36,100,0
3,36,100,0
3,36,100,0
3,36,100,0
3,36,100,0
3,36,100,0
3,36,100,0
3,36,100,0
3,36,100,0
3,36,100,0
3,36,100,0
3,36,100,0
3,36,100,0
3,36,100,0
3,36,100,0
3,36,100,0
3,36,100,0
3,36,100,0
3,36,100,0
3,36,100,0
3,36,100,0
3,36,100,0
3,36,100,0
3,36,100,0
3,36,100,0
3,36,100,0
3,36,100,0
3,36,100,0
3,36,100,0
3,36,100,0
3,36,100,0
3,36,100,0
3,36,100,0
3,36,100,0
3,36,100,0
3,36,100,0
3,36,100,0
3,36,100,0
3,36,100,0
3,36,100,0
3,36,100,0
3,36,100,0
3,36,100,0
3,36,100,0
3,36,100,0
3,36,100,0
3,36,100,0
3,36,100,0
3,36,100,0
3,36,100,0
3,36,100,0
3,36,100,0
3,36,100,0
3,36,100,0
3,36,100,0
3,36,100,0
3,36,100,0
3,36,100,0
3,36,100,0
3,36,100,0
3,36,100,0
3,36,100,0
3,36,100,0
3,36,100,0
3,36,100,0
3,36,100,0
3,36,100,0
3,36,100,0
3,36,100,0
3,36,100,0
3,36,100,0
3,36,100,0
3,36,100,0
3,36,100,0
3,36,100,0
3,36,100,0
3,36,100,0
3,36,100,0
3,36,100,0
3,36,100,0
3,36,100,0
3,36,100,0
3,36,100,0
3,36,100,0
3,36,100,0
3,36,100,0
3,36,100,0
3,36,100,0
3,36,100,0
3,36,100,0
3,31,100,0
3,31,100,0
3,31,100,0
3,31,100,0
3,31,100,0
3,31,100,0
3,31,100,0
3,31,100,0
3,31,100,0
3,31,100,0
3,31,100,0
3,31,100,0
3,31,100,0
3,31,100,0
3,31,100,0
3,31,100,0
3,31,100,0
3,31,100,0
3,31,100,0
3,31,100,0
3,31,100,0
3,31,100,0
3,31,100,0
3,31,100,0
3,31,100,0
3,31,100,0
3,31,100,0
3,31,100,0
3,31,100,0
3,31,100,0
3,31,100,0
3,31,100,0
3,31,100,0
3,31,100,0
3,31,100,0
3,31,100,0
3,31,100,0
3,31,100,0
3,31,100,0
3,31,100,0
3,31,100,0
3,31,100,0
3,31,100,0
3,31,100,0
3,31,100,0
3,31,100,0
3,31,100,0
3,31,100,0
3,31,100,0
3,31,100,0
3,31,100,0
3,31,100,0
3,31,100,0
3,31,100,0
3,31,100,0
3,31,100,0
3,31,100,0
3,31,100,0
3,31,100,0
3,31,100,0
3,31,100,0
3,31,100,0
3,31,100,0
3,36,100,0
3,36,100,192
3,36,100,0
3,36,100,384
3,36,100,384
3,36,100,192
3,36,100,0
3,36,100,384
3,36,100,192
3,36,100,0
3,36,100,192
3,36,100,0
3,36,100,192
3,36,100,0
3,36,100,192
3,36,100,0
3,36,100,192
3,36,100,0
3,36,100,192
3,36,100,0
3,36,100,192
3,36,100,0
3,36,100,192
3,36,100,0
3,36,100,192
3,36,100,0
3,36,100,192
3,36,100,0
3,36,100,192
3,36,100,0
3,36,100,192
3,36,100,0
3,36,100,192
3,36,100,0
3,36,100,192
3,36,100,0
3,36,100,192
3,36,100,0
3,36,100,192
3,36,100,0
3,36,100,192
3,36,100,0
3,36,100,192
3,36,100,0
3,36,100,192
3,36,100,0
3,36,100,192
3,36,100,0
3,36,100,192
3,36,100,0
3,36,100,192
3,36,100,0
3,36,100,192
3,36,100,0
3,36,100,192
3,36,100,0
3,36,100,192
3,36,100,0
3,36,100,192
3,36,100,0
3,36,100,192
3,36,100,0
3,36,100,192
3,36,100,0
3,36,100,192
3,36,100,0
3,36,100,192
3,36,100,0
3,36,100,192
3,36,100,0
3,36,100,192
3,36,100,0
3,36,100,192
3,36,100,0
4,36,100,1152
4,36,100,192
4,36,100,192
4,36,100,0
4,36,100,0
4,36,100,192
4,36,100,192
4,36,100,192
4,36,100,0
4,36,100,0
4,36,100,192
4,36,100,192
4,36,100,192
4,36,100,0
4,36,100,0
4,36,100,192
4,36,100,0
4,36,100,0
4,36,100,192
4,36,100,0
4,36,100,0
4,36,100,192
4,36,100,0
4,36,100,0
4,36,100,192
4,36,100,0
4,36,100,0
4,36,100,0
4,36,100,0
4,36,100,192
4,36,100,0
4,36,100,0
4,36,100,192
4,36,100,0
4,36,100,0
4,36,100,192
4,36,100,0
4,36,100,0
4,36,100,192
4,36,100,0
4,36,100,0
4,36,100,192
4,36,100,0
4,36,100,0
4,36,100,192
4,36,100,192
4,36,100,192
4,36,100,0
4,36,100,0
4,36,100,192
4,36,100,192
4,36,100,192
4,36,100,0
4,36,100,0
4,36,100,192
4,36,100,192
4,36,100,192
4,36,100,0
4,36,100,0
4,36,100,192
4,36,100,192
4,36,100,192
4,36,100,0
4,36,100,0
4,36,100,192
4,36,100,192
4,36,100,192
4,36,100,0
4,36,100,0
4,36,100,192
4,36,100,192
4,36,100,192
4,36,100,192
4,36,100,0
4,36,100,384
4,36,100,192
4,36,100,192
4,36,100,192
4,36,100,192
4,36,100,192
4,36,100,192
4,36,100,0
