track,note,velocity,time
1,70,127,14184
1,70,127,136
1,66,127,384
1,66,127,116
1,61,127,12
1,61,127,132
1,58,127,12
1,59,127,12
1,61,127,0
1,63,127,16
1,61,127,568
1,59,127,12
1,68,127,628
1,68,127,108
1,65,127,28
1,65,127,128
1,61,127,68
1,61,127,120
1,59,127,40
1,61,127,576
1,58,127,12
1,61,127,588
1,70,127,1728
1,70,127,108
1,66,127,48
1,66,127,164
1,61,127,24
1,61,127,124
1,58,127,48
1,59,127,60
1,61,127,28
1,65,127,124
1,63,127,32
1,66,127,692
1,66,127,124
1,61,127,52
1,61,127,132
1,58,127,32
1,59,127,16
1,58,127,96
1,56,127,28
1,54,127,44
1,70,127,984
1,70,127,132
1,66,127,16
1,66,127,116
1,61,127,32
1,66,127,28
1,65,127,32
1,64,127,16
1,63,127,16
1,68,127,1196
1,68,127,148
1,65,127,28
1,65,127,140
1,61,127,36
1,65,127,12
1,63,127,32
1,65,127,52
1,63,127,32
1,61,127,12
1,70,127,812
1,70,127,140
1,66,127,12
1,66,127,136
1,61,127,48
1,66,127,20
1,65,127,24
1,64,127,16
1,63,127,12
1,68,127,0
1,66,127,12
1,66,127,596
1,66,127,184
1,61,127,40
1,61,127,136
1,58,127,28
1,59,127,108
1,58,127,20
1,56,127,32
1,54,127,136
1,71,127,1536
1,71,127,124
1,67,127,56
1,67,127,124
1,62,127,12
1,62,127,156
1,59,127,16
1,60,127,388
1,62,127,340
1,62,127,84
1,60,127,88
1,69,127,740
1,69,127,128
1,66,127,40
1,66,127,132
1,62,127,28
1,62,127,120
1,60,127,616
1,62,127,512
1,59,127,372
1,71,127,1292
1,71,127,112
1,67,127,28
1,67,127,96
1,62,127,16
1,62,127,124
1,59,127,132
1,60,127,32
1,62,127,16
1,66,127,12
1,64,127,0
1,67,127,604
1,67,127,124
1,62,127,16
1,62,127,140
1,59,127,356
1,60,127,40
1,59,127,0
1,57,127,16
1,59,127,0
1,55,127,40
1,71,127,1028
1,71,127,164
1,67,127,20
1,67,127,124
1,62,127,12
1,67,127,244
1,66,127,12
1,65,127,16
1,64,127,380
1,69,127,968
1,69,127,112
1,66,127,12
1,66,127,88
1,62,127,16
1,66,127,12
1,64,127,20
1,66,127,16
1,64,127,28
1,62,127,0
1,71,127,948
1,71,127,112
1,67,127,36
1,67,127,96
1,62,127,24
1,67,127,48
1,66,127,4
1,65,127,360
1,64,127,12
1,69,127,364
1,67,127,16
1,67,127,616
1,67,127,108
1,62,127,84
1,59,127,16
1,60,127,12
1,59,127,0
1,57,127,0
1,55,127,92
1,72,127,1680
1,72,127,180
1,68,127,24
1,68,127,92
1,63,127,12
1,63,127,116
1,60,127,32
1,61,127,388
1,63,127,360
1,63,127,72
1,61,127,28
1,70,127,656
1,70,127,112
1,67,127,16
1,67,127,152
1,63,127,32
1,63,127,108
1,61,127,12
1,63,127,548
1,60,127,372
1,72,127,1048
1,72,127,140
1,68,127,44
1,68,127,116
1,63,127,24
1,63,127,92
1,60,127,16
1,61,127,404
1,63,127,12
1,67,127,216
1,65,127,44
1,68,127,500
1,68,127,112
1,63,127,12
1,60,127,36
1,61,127,384
1,60,127,0
1,58,127,192
1,56,127,196
1,72,127,1060
1,72,127,148
1,68,127,28
1,68,127,136
1,63,127,52
1,68,127,404
1,67,127,88
1,66,127,24
1,65,127,0
1,70,127,1016
1,70,127,116
1,67,127,36
1,67,127,136
1,63,127,12
1,67,127,12
1,65,127,4
1,67,127,192
1,65,127,16
1,63,127,12
1,72,127,700
1,72,127,140
1,68,127,12
1,68,127,136
1,63,127,32
1,68,127,12
1,67,127,0
1,66,127,12
1,65,127,376
1,70,127,4
1,68,127,0
1,68,127,660
1,68,127,144
1,63,127,40
1,68,127,172
1,70,127,100
1,68,127,140
1,67,127,44
1,68,127,68
2,30,127,2500
2,34,127,204
2,37,127,20
2,30,127,32
2,32,127,256
2,34,127,44
2,35,127,4
2,39,127,224
2,42,127,8
2,35,127,32
2,39,127,212
2,42,127,32
2,37,127,4
2,41,127,256
2,44,127,32
2,37,127,88
2,41,127,324
2,37,127,12
2,30,127,24
2,34,127,212
2,37,127,28
2,30,127,32
2,34,127,300
2,37,127,32
2,30,127,20
2,34,127,280
2,37,127,4
2,30,127,100
2,32,127,192
2,34,127,88
2,35,127,124
2,39,127,188
2,42,127,60
2,35,127,60
2,39,127,272
2,42,127,4
2,37,127,112
2,41,127,248
2,44,127,36
2,37,127,84
2,41,127,232
2,37,127,72
2,30,127,60
2,34,127,184
2,37,127,44
2,30,127,20
2,34,127,284
2,37,127,36
2,30,127,384
2,34,127,308
2,37,127,8
2,30,127,8
2,30,127,244
2,32,127,384
2,34,127,336
2,35,127,12
2,39,127,280
2,42,127,36
2,35,127,60
2,39,127,320
2,42,127,60
2,30,127,32
2,34,127,232
2,37,127,36
2,37,127,120
2,32,127,216
2,37,127,48
2,30,127,12
2,35,127,284
2,30,127,164
2,30,127,1064
2,34,127,272
2,37,127,32
2,30,127,4
2,32,127,296
2,34,127,88
2,35,127,88
2,39,127,188
2,42,127,60
2,35,127,96
2,39,127,260
2,42,127,48
2,37,127,96
2,41,127,164
2,44,127,48
2,37,127,100
2,41,127,176
2,37,127,44
2,30,127,60
2,34,127,240
2,37,127,48
2,30,127,140
2,34,127,324
2,37,127,48
2,30,127,112
2,34,127,324
2,37,127,72
2,30,127,156
2,30,127,224
2,32,127,44
2,34,127,8
2,35,127,28
2,39,127,188
2,42,127,24
2,35,127,84
2,39,127,196
2,42,127,8
2,30,127,84
2,34,127,204
2,37,127,72
2,32,127,128
2,37,127,12
2,30,127,132
2,34,127,56
2,37,127,76
2,26,127,60
2,26,127,220
2,28,127,384
2,30,127,24
2,31,127,388
2,35,127,324
2,38,127,56
2,31,127,8
2,31,127,244
2,33,127,384
2,35,127,44
2,36,127,76
2,40,127,84
2,43,127,48
2,36,127,4
2,40,127,256
2,43,127,32
2,38,127,152
2,42,127,192
2,45,127,32
2,38,127,20
2,42,127,240
2,38,127,36
2,31,127,40
2,35,127,232
2,38,127,44
2,31,127,32
2,35,127,376
2,38,127,32
2,31,127,48
2,35,127,268
2,38,127,32
2,31,127,44
2,33,127,24
2,35,127,136
2,36,127,160
2,40,127,156
2,43,127,24
2,36,127,384
2,40,127,304
2,43,127,20
2,31,127,44
2,35,127,256
2,31,127,76
2,38,127,12
2,36,127,176
2,35,127,208
2,31,127,192
2,36,127,12
2,31,127,768
2,31,127,1064
2,35,127,312
2,38,127,20
2,31,127,16
2,33,127,364
2,35,127,8
2,36,127,56
2,40,127,348
2,43,127,36
2,36,127,384
2,40,127,284
2,43,127,20
2,38,127,152
2,42,127,216
2,45,127,20
2,38,127,36
2,42,127,212
2,38,127,20
2,31,127,84
2,35,127,284
2,38,127,36
2,31,127,44
2,35,127,328
2,38,127,32
2,31,127,32
2,35,127,268
2,38,127,20
2,31,127,4
2,31,127,244
2,33,127,8
2,35,127,384
2,36,127,320
2,40,127,184
2,43,127,380
2,36,127,380
2,40,127,200
2,43,127,8
2,31,127,32
2,35,127,256
2,38,127,20
2,33,127,36
2,38,127,56
2,30,127,384
2,31,127,28
2,35,127,164
2,38,127,36
2,27,127,100
2,27,127,260
2,29,127,384
2,31,127,4
2,32,127,16
2,36,127,144
2,39,127,20
2,32,127,16
2,36,127,56
2,39,127,24
2,37,127,112
2,41,127,216
2,44,127,28
2,37,127,32
2,41,127,272
2,37,127,20
2,27,127,28
2,31,127,352
2,34,127,380
2,27,127,356
2,27,127,244
2,29,127,384
2,31,127,348
2,32,127,32
2,36,127,232
2,39,127,16
2,32,127,384
2,41,127,24
2,39,127,32
2,36,127,16
2,32,127,384
2,36,127,296
2,39,127,8
2,32,127,384
2,32,127,280
2,34,127,384
2,36,127,336
2,37,127,376
2,41,127,172
2,44,127,32
2,37,127,44
2,41,127,240
2,44,127,16
2,32,127,28
2,36,127,148
2,32,127,20
2,39,127,384
2,27,127,8
2,29,127,16
2,31,127,176
2,32,127,84
2,37,127,216
2,32,127,48
2,32,127,1032
2,36,127,60
2,39,127,32
2,32,127,384
2,32,127,240
2,34,127,388
2,36,127,44
2,37,127,388
2,41,127,120
2,44,127,20
2,37,127,4
2,41,127,244
2,37,127,16
2,39,127,100
2,31,127,176
2,34,127,48
2,27,127,48
2,31,127,112
2,34,127,76
2,32,127,60
2,36,127,220
2,39,127,36
2,41,127,44
2,39,127,380
2,36,127,28
2,39,127,8
2,32,127,20
2,36,127,308
2,39,127,4
2,32,127,16
2,32,127,288
2,34,127,384
2,36,127,32
2,37,127,384
2,41,127,120
2,44,127,48
2,37,127,44
2,37,127,0
2,41,127,272
2,44,127,4
2,32,127,44
2,36,127,260
2,39,127,60
2,32,127,60
2,41,127,44
2,39,127,48
2,36,127,20
2,39,127,108
2,27,127,384
2,31,127,380
2,39,127,364
2,34,127,16
2,39,127,124
2,32,127,136
2,36,127,260
2,39,127,76
2,37,127,112
2,41,127,204
2,37,127,16
2,32,127,60
2,27,127,12
2,29,127,120
2,32,127,140
3,58,77,2504
3,61,92,0
3,66,69,0
3,58,74,300
3,61,84,0
3,66,67,0
3,61,77,172
3,66,63,0
3,58,65,0
3,61,77,52
3,58,67,4
3,66,73,0
3,58,71,288
3,61,84,0
3,66,68,0
3,58,60,176
3,61,75,0
3,66,59,4
3,58,68,60
3,61,79,0
3,66,72,0
3,58,73,296
3,61,81,0
3,66,68,0
3,61,71,184
3,58,66,0
3,64,49,0
3,66,49,0
3,58,73,36
3,61,74,0
3,64,65,0
3,66,67,0
3,61,65,132
3,64,60,0
3,58,66,0
3,66,54,0
3,64,64,40
3,66,67,0
3,58,77,0
3,61,79,0
3,64,54,120
3,58,59,0
3,61,66,0
3,66,58,0
3,58,66,36
3,66,68,0
3,59,78,4
3,63,66,0
3,59,71,296
3,63,75,0
3,66,75,0
3,59,60,168
3,63,77,0
3,66,65,4
3,59,66,52
3,63,88,4
3,66,81,0
3,59,66,272
3,63,84,0
3,66,77,0
3,63,73,168
3,66,69,0
3,59,54,0
3,59,59,56
3,63,75,0
3,66,74,0
3,63,92,272
3,59,66,0
3,66,81,0
3,63,73,148
3,66,67,0
3,59,55,0
3,63,73,56
3,59,59,4
3,66,73,0
3,63,88,172
3,66,74,0
3,59,62,4
3,59,65,60
3,63,79,0
3,66,81,0
3,61,77,244
3,65,73,0
3,56,88,0
3,56,75,252
3,61,75,0
3,65,75,0
3,56,72,152
3,61,72,0
3,65,71,0
3,61,75,36
3,56,68,4
3,65,71,0
3,56,71,264
3,61,72,0
3,65,68,0
3,61,66,148
3,65,66,0
3,56,57,0
3,56,74,64
3,65,75,0
3,61,75,4
3,61,71,232
3,65,66,0
3,56,73,4
3,65,73,168
3,56,75,0
3,61,72,0
3,65,76,52
3,56,74,4
3,61,75,0
3,56,74,120
3,61,75,0
3,65,76,4
3,61,79,56
3,65,75,0
3,56,74,4
3,56,63,112
3,65,68,0
3,61,66,4
3,58,79,52
3,66,72,0
3,61,84,0
3,66,72,276
3,58,69,4
3,61,88,0
3,61,69,188
3,66,57,0
3,58,61,0
3,58,68,52
3,61,79,0
3,66,75,0
3,58,71,292
3,61,88,0
3,66,72,0
3,58,62,184
3,61,74,0
3,66,62,0
3,58,65,60
3,61,75,0
3,66,73,0
3,61,92,292
3,58,73,4
3,66,72,0
3,58,65,184
3,61,79,0
3,66,65,0
3,61,81,56
3,58,71,4
3,66,68,0
3,61,92,180
3,66,72,0
3,58,72,0
3,58,72,92
3,61,81,0
3,66,72,0
3,58,72,176
3,61,84,0
3,66,71,0
3,61,79,52
3,66,72,0
3,58,69,4
3,58,74,300
3,61,102,0
3,66,74,0
3,58,69,176
3,61,79,0
3,66,65,4
3,58,73,92
3,61,84,0
3,66,73,0
3,61,102,308
3,66,74,0
3,58,73,4
3,58,50,176
3,61,65,0
3,66,61,4
3,58,68,56
3,66,73,0
3,61,77,0
3,58,71,260
3,61,84,0
3,66,71,0
3,61,62,188
3,66,61,0
3,58,58,0
3,58,66,52
3,61,73,0
3,66,71,0
3,61,84,172
3,66,71,0
3,58,67,0
3,58,73,56
3,61,84,0
3,66,75,4
3,63,64,160
3,66,63,0
3,59,48,4
3,59,71,100
3,66,75,0
3,63,84,0
3,59,73,288
3,63,92,4
3,66,77,0
3,63,81,168
3,66,71,0
3,59,66,0
3,59,63,52
3,63,84,0
3,66,77,0
3,59,70,288
3,63,109,0
3,66,81,0
3,63,79,184
3,66,69,0
3,59,59,0
3,59,62,52
3,66,74,0
3,63,77,4
3,59,66,292
3,63,92,0
3,66,75,0
3,63,84,180
3,66,68,0
3,59,59,0
3,59,55,60
3,63,75,0
3,66,73,0
3,63,102,156
3,66,79,0
3,59,67,4
3,59,63,56
3,63,79,0
3,66,75,0
3,59,70,280
3,61,77,0
3,56,64,4
3,65,66,0
3,56,77,264
3,59,78,0
3,61,84,0
3,65,69,4
3,56,74,148
3,59,71,0
3,61,84,0
3,65,63,0
3,56,73,44
3,59,73,4
3,61,84,0
3,65,71,32
3,56,88,184
3,61,88,0
3,59,75,4
3,65,67,0
3,56,88,172
3,59,67,0
3,61,75,0
3,65,54,0
3,56,77,64
3,59,71,0
3,61,81,0
3,65,75,0
3,56,92,284
3,61,96,0
3,59,76,0
3,65,69,0
3,56,84,156
3,59,66,0
3,61,72,0
3,65,57,0
3,59,71,56
3,61,84,0
3,56,74,4
3,65,71,0
3,56,92,156
3,61,92,0
3,59,78,0
3,65,62,0
3,59,75,40
3,61,84,0
3,56,77,0
3,65,76,0
3,58,92,268
3,61,84,0
3,66,73,0
3,61,88,268
3,58,77,4
3,66,68,0
3,58,88,168
3,61,92,0
3,66,62,0
3,61,92,56
3,58,77,0
3,66,77,0
3,58,88,276
3,61,92,0
3,66,68,0
3,58,84,172
3,61,88,0
3,66,57,0
3,61,84,60
3,66,72,0
3,58,79,4
3,58,96,296
3,61,102,0
3,66,68,0
3,61,74,180
3,66,63,0
3,58,75,4
3,58,79,56
3,61,81,0
3,66,73,0
3,58,92,164
3,61,88,0
3,66,66,0
3,58,74,64
3,61,79,0
3,66,72,0
3,58,84,156
3,61,92,0
3,66,63,4
3,61,77,56
3,66,69,0
3,58,77,0
3,58,92,288
3,61,88,0
3,66,71,0
3,58,77,172
3,61,77,0
3,66,60,0
3,58,79,68
3,61,81,0
3,66,73,0
3,58,96,292
3,61,88,0
3,66,68,0
3,58,74,164
3,61,68,0
3,66,52,4
3,61,88,64
3,66,72,0
3,58,84,0
3,58,92,296
3,61,92,0
3,66,69,0
3,61,79,168
3,58,79,0
3,66,58,0
3,61,92,56
3,58,75,4
3,66,74,0
3,58,84,176
3,61,96,0
3,66,63,0
3,61,88,56
3,66,77,0
3,58,77,4
3,59,65,292
3,66,71,0
3,60,66,4
3,63,77,0
3,59,71,276
3,63,73,0
3,66,63,0
3,63,73,160
3,66,67,0
3,59,67,4
3,59,70,60
3,63,75,0
3,66,77,0
3,59,68,276
3,63,81,0
3,66,75,0
3,63,73,136
3,66,68,0
3,59,59,0
3,59,59,56
3,66,75,0
3,63,77,0
3,63,88,292
3,66,75,0
3,59,67,0
3,59,60,168
3,63,77,0
3,66,72,0
3,59,59,52
3,63,81,0
3,66,79,0
3,63,88,160
3,66,74,0
3,59,62,0
3,59,59,56
3,63,84,0
3,66,77,0
3,63,74,116
3,66,69,0
3,59,55,4
3,61,79,64
3,66,73,0
3,58,92,0
3,58,92,296
3,61,102,4
3,66,75,0
3,58,75,172
3,61,81,0
3,66,68,0
3,58,77,56
3,61,75,0
3,66,74,0
3,58,92,260
3,61,92,0
3,66,73,0
3,61,96,280
3,65,75,0
3,56,81,4
3,56,88,264
3,61,102,0
3,65,66,0
3,56,79,168
3,61,84,0
3,65,61,0
3,56,69,56
3,61,88,0
3,65,75,0
3,56,92,156
3,61,102,0
3,65,64,4
3,56,73,60
3,61,84,0
3,65,70,4
3,58,88,268
3,61,92,0
3,66,74,4
3,58,92,312
3,61,102,0
3,66,69,0
