track,note,velocity,time
0,59,127,500
0,62,127,120
0,64,127,0
0,52,126,40
0,59,127,0
0,67,123,0
0,36,127,0
0,42,112,0
0,67,127,20
0,59,127,0
0,36,127,60
0,64,127,20
0,59,127,0
0,42,112,0
0,64,127,20
0,59,127,0
0,36,127,10
0,54,127,20
0,62,127,0
0,59,127,0
0,42,112,20
0,36,127,60
0,59,127,20
0,62,127,100
0,42,112,0
0,64,127,20
0,52,127,20
0,67,127,0
0,59,127,0
0,36,127,80
0,42,112,0
0,67,127,20
0,59,127,0
0,36,127,0
0,64,127,20
0,59,127,0
0,42,112,0
0,64,127,20
0,59,127,0
0,36,127,20
0,54,127,20
0,62,127,0
0,59,127,0
0,42,112,20
0,36,127,80
0,59,127,0
0,62,127,120
0,42,112,0
0,64,127,20
0,52,127,20
0,67,127,0
0,59,127,0
0,36,127,100
0,42,112,0
0,67,127,20
0,59,127,0
0,36,127,0
0,64,127,20
0,59,127,0
0,42,112,0
0,64,127,20
0,59,127,0
0,36,127,40
0,54,127,0
0,62,127,0
0,59,127,0
0,42,112,0
0,59,127,20
0,62,127,0
0,36,127,120
0,64,127,20
0,62,127,20
0,42,112,0
0,59,127,20
0,52,127,20
0,59,127,0
0,64,127,0
0,36,127,40
0,42,112,0
0,64,127,20
0,59,127,0
0,36,127,120
0,59,127,20
0,64,127,0
0,42,112,0
0,36,127,60
0,42,112,0
0,64,127,20
0,59,127,0
0,36,127,100
0,59,109,1
0,59,127,19
0,62,109,12
0,62,127,15
0,42,112,0
0,64,109,3
0,64,127,0
0,67,111,4
0,52,127,16
0,67,127,0
0,59,127,0
0,36,127,100
0,40,127,20
0,64,113,21
0,67,127,20
0,59,127,0
0,42,112,0
0,62,108,20
0,36,127,0
0,64,114,4
0,67,127,0
0,59,127,0
0,64,127,0
0,52,127,0
0,62,109,0
0,42,112,0
0,64,111,6
0,64,127,14
0,59,127,0
0,36,127,20
0,62,119,5
0,54,127,15
0,62,127,0
0,59,127,0
0,40,127,0
0,42,112,20
0,40,127,20
0,36,127,20
0,59,109,1
0,59,127,0
0,50,127,0
0,62,109,5
0,62,127,15
0,42,112,0
0,64,109,3
0,64,127,13
0,52,127,0
0,67,111,4
0,52,127,0
0,67,127,0
0,59,127,0
0,36,127,0
0,40,127,20
0,64,113,18
0,42,112,0
0,67,127,20
0,59,127,0
0,62,108,16
0,59,127,20
0,36,127,13
0,64,114,4
0,64,127,16
0,52,127,0
0,62,109,0
0,64,111,6
0,64,127,14
0,59,127,0
0,42,112,0
0,36,127,20
0,62,119,5
0,54,127,15
0,62,127,0
0,59,127,0
0,40,127,0
0,42,112,20
0,40,127,0
0,36,127,0
0,59,106,1
0,59,127,19
0,50,127,0
0,62,110,100
0,62,127,19
0,42,112,0
0,64,109,4
0,64,127,6
0,52,127,0
0,67,102,18
0,52,127,0
0,59,127,0
0,67,127,0
0,36,127,0
0,40,127,20
0,42,112,0
0,64,113,3
0,59,127,17
0,67,127,0
0,64,116,116
0,36,127,4
0,59,127,0
0,64,127,0
0,52,127,0
0,59,114,14
0,42,112,0
0,64,127,0
0,59,127,0
0,62,117,16
0,36,127,4
0,54,127,20
0,62,127,0
0,59,127,0
0,36,127,0
0,42,112,0
0,59,127,20
0,62,127,0
0,59,110,85
0,36,127,0
0,64,127,20
0,38,127,0
0,62,127,0
0,67,101,33
0,42,112,0
0,59,127,20
0,52,127,0
0,64,127,0
0,59,127,0
0,36,127,0
0,64,110,3
0,40,127,17
0,42,112,0
0,59,127,20
0,64,127,0
0,36,127,60
0,52,127,0
0,64,127,20
0,59,127,0
0,42,112,0
0,36,127,120
0,40,127,20
0,42,112,0
0,64,127,20
0,59,127,0
0,40,127,0
0,36,127,0
0,59,111,2
0,59,127,18
0,50,127,0
0,62,111,9
0,62,127,18
0,42,112,0
0,64,113,3
0,64,127,17
0,52,127,0
0,67,108,17
0,59,127,20
0,36,127,0
0,45,127,20
0,52,127,0
0,45,127,0
0,64,127,20
0,60,127,0
0,57,127,0
0,42,112,0
0,36,127,120
0,64,114,4
0,69,127,16
0,47,127,0
0,42,112,0
0,64,111,6
0,57,127,14
0,36,127,20
0,62,119,5
0,50,127,0
0,62,127,0
0,66,127,0
0,38,127,0
0,57,127,0
0,42,112,0
0,59,107,34
0,36,127,6
0,66,127,20
0,62,127,0
0,38,127,0
0,62,110,7
0,57,127,0
0,64,107,12
0,42,112,0
0,50,127,20
0,67,111,34
0,36,127,0
0,52,127,20
0,60,127,0
0,64,127,0
0,45,127,0
0,64,111,34
0,42,112,0
0,57,127,20
0,62,111,19
0,64,109,24
0,36,127,0
0,69,127,20
0,60,127,0
0,64,127,0
0,47,127,0
0,62,111,22
0,57,127,0
0,71,114,8
0,45,127,20
0,52,127,0
0,42,112,0
0,50,127,0
0,62,127,0
0,66,127,0
0,69,118,59
0,36,127,1
0,38,127,20
0,57,127,20
0,42,112,0
0,59,110,54
0,36,127,6
0,66,127,20
0,62,127,0
0,38,127,0
0,62,109,19
0,64,110,9
0,42,112,0
0,57,127,20
0,67,111,51
0,36,127,0
0,52,127,20
0,64,127,0
0,60,127,0
0,45,127,0
0,64,113,26
0,42,112,0
0,57,127,20
0,64,116,16
0,36,127,4
0,64,127,20
0,60,127,0
0,47,127,0
0,59,114,141
0,42,112,0
0,57,127,20
0,62,118,14
0,36,127,6
0,62,127,20
0,66,127,0
0,50,127,0
0,57,127,0
0,38,127,0
0,57,127,20
0,42,112,0
0,64,117,15
0,36,127,5
0,66,127,20
0,62,127,0
0,57,127,0
0,39,127,0
0,64,118,37
0,42,112,0
0,52,127,20
0,47,127,0
0,64,127,0
0,59,127,0
0,36,127,0
0,40,127,20
0,64,106,56
0,42,112,0
0,64,127,20
0,59,127,0
0,36,127,40
0,52,127,20
0,42,112,0
0,64,127,20
0,59,127,0
0,36,127,0
0,40,127,20
0,42,112,0
0,64,127,20
0,59,127,0
0,40,127,20
0,67,118,54
0,36,127,6
0,59,127,20
0,50,127,0
0,42,112,0
0,69,115,2
0,52,127,18
0,71,119,16
0,36,127,4
0,55,127,20
0,67,127,0
0,71,127,0
0,59,127,0
0,62,127,0
0,43,127,0
0,74,118,1
0,62,127,8
0,42,112,0
0,74,114,4
0,36,127,40
0,67,127,0
0,71,127,0
0,47,127,0
0,74,117,108
0,42,112,0
0,62,127,20
0,74,116,33
0,36,127,7
0,71,127,20
0,67,127,0
0,50,127,0
0,42,112,0
0,62,127,20
0,36,127,60
0,71,113,2
0,71,127,18
0,67,127,0
0,43,127,0
0,62,127,0
0,42,112,0
0,67,112,2
0,55,127,18
0,69,114,18
0,36,127,0
0,57,127,20
0,69,127,0
0,72,127,0
0,64,127,0
0,45,127,0
0,69,112,83
0,42,112,0
0,64,127,20
0,36,127,0
0,69,110,4
0,72,127,16
0,69,127,0
0,47,127,0
0,64,127,100
0,71,118,96
0,42,112,0
0,69,116,1
0,36,127,0
0,50,127,0
0,74,127,0
0,69,127,0
0,66,127,0
0,45,127,0
0,42,112,0
0,66,127,20
0,36,127,60
0,74,127,20
0,69,127,0
0,38,127,0
0,67,117,45
0,66,127,15
0,67,112,38
0,42,112,0
0,50,127,20
0,71,114,99
0,36,127,0
0,67,127,20
0,71,127,0
0,62,127,0
0,57,127,0
0,43,127,0
0,55,127,60
0,74,108,64
0,42,112,0
0,62,127,0
0,74,104,54
0,36,127,40
0,67,127,20
0,71,127,0
0,47,127,0
0,71,109,63
0,74,118,36
0,42,112,0
0,62,127,0
0,79,119,15
0,36,127,5
0,71,127,20
0,67,127,0
0,50,127,0
0,76,118,103
0,62,127,20
0,42,112,0
0,36,127,38
0,74,110,2
0,71,127,0
0,67,127,0
0,43,127,0
0,62,127,60
0,67,116,54
0,42,112,0
0,55,127,20
0,36,127,0
0,69,108,4
0,57,127,16
0,69,127,0
0,72,127,0
0,64,127,0
0,45,127,0
0,42,112,0
0,64,127,20
0,36,127,0
0,72,127,20
0,69,127,0
0,47,127,0
0,64,127,80
0,42,112,0
0,36,127,60
0,50,127,20
0,66,127,0
0,69,127,0
0,74,127,0
0,45,127,0
0,42,112,0
0,71,117,174
0,36,127,0
0,59,127,20
0,38,127,0
0,74,114,13
0,62,127,25
0,42,112,20
0,76,110,17
0,42,127,0
0,64,127,20
0,39,127,0
0,79,127,36
0,52,127,20
0,67,127,0
0,59,127,0
0,36,127,20
0,40,127,20
0,76,122,24
0,42,112,0
0,59,127,20
0,67,127,0
0,76,127,14
0,36,127,6
0,64,127,20
0,59,127,0
0,52,127,0
0,76,127,14
0,42,112,0
0,64,127,20
0,59,127,0
0,76,120,32
0,36,127,0
0,54,127,20
0,62,127,0
0,59,127,0
0,40,127,0
0,42,112,0
0,40,127,20
0,71,112,18
0,36,127,2
0,59,127,20
0,50,127,0
0,74,98,11
0,62,127,20
0,42,112,0
0,76,106,1
0,64,127,19
0,52,127,0
0,79,120,52
0,52,127,20
0,59,127,0
0,67,127,0
0,36,127,0
0,40,127,20
0,76,127,3
0,67,127,20
0,59,127,0
0,42,112,0
0,74,111,36
0,36,127,17
0,76,122,2
0,64,127,18
0,59,127,0
0,52,127,0
0,74,110,14
0,76,125,13
0,42,112,0
0,64,127,20
0,59,127,0
0,74,122,20
0,36,127,0
0,54,127,20
0,62,127,0
0,59,127,0
0,40,127,0
0,42,112,20
0,40,127,20
0,36,127,20
0,71,112,1
0,59,127,19
0,50,127,0
0,74,112,11
0,62,127,16
0,42,112,0
0,76,102,2
0,64,127,18
0,52,127,0
0,79,122,19
0,52,127,20
0,67,127,0
0,59,127,0
0,36,127,20
0,40,127,20
0,76,125,18
0,42,112,0
0,67,127,20
0,59,127,0
0,76,122,18
0,36,127,0
0,64,127,20
0,59,127,0
0,52,127,0
0,71,114,40
0,42,112,0
0,64,127,20
0,59,127,0
0,74,114,20
0,36,127,0
0,54,127,0
0,62,127,0
0,59,127,0
0,36,127,0
0,42,112,0
0,59,127,20
0,62,127,0
0,71,122,117
0,36,127,0
0,64,127,0
0,38,127,0
0,62,127,40
0,79,120,77
0,42,112,0
0,59,127,20
0,52,127,20
0,59,127,0
0,64,127,0
0,76,119,0
0,36,127,0
0,40,127,20
0,42,112,0
0,59,127,20
0,64,127,0
0,36,127,120
0,52,127,0
0,42,112,0
0,64,127,20
0,59,127,0
0,36,127,100
0,40,127,20
0,42,112,0
0,64,127,20
0,59,127,0
0,40,127,0
0,36,127,0
0,59,106,1
0,59,127,19
0,50,127,0
0,62,110,4
0,62,127,20
0,42,112,20
0,64,112,16
0,42,127,0
0,64,127,0
0,52,127,0
0,67,117,18
0,52,127,22
0,67,127,0
0,59,127,0
0,52,85,0
0,36,127,0
0,42,96,0
0,40,127,20
0,42,96,0
0,59,83,2
0,67,127,18
0,59,127,0
0,62,82,17
0,64,120,1
0,36,127,2
0,38,96,0
0,42,96,0
0,64,127,20
0,59,127,0
0,52,127,0
0,61,86,3
0,62,117,1
0,64,120,16
0,59,86,0
0,42,96,0
0,64,127,20
0,59,127,0
0,55,92,1
0,62,127,56
0,52,80,0
0,36,127,0
0,42,96,0
0,54,127,0
0,62,127,0
0,59,127,0
0,40,127,0
0,52,86,3
0,42,96,0
0,59,85,6
0,40,127,20
0,59,112,12
0,62,82,5
0,36,127,3
0,38,96,0
0,42,96,0
0,59,127,20
0,50,127,0
0,62,110,9
0,61,86,3
0,62,127,17
0,64,102,27
0,59,86,0
0,42,96,0
0,64,127,0
0,52,127,0
0,67,114,4
0,55,92,1
0,52,127,19
0,59,127,0
0,67,127,0
0,52,85,0
0,36,127,0
0,42,96,0
0,40,127,20
0,64,120,2
0,59,83,2
0,67,127,18
0,59,127,0
0,42,96,0
0,62,102,28
0,59,127,20
0,64,117,10
0,62,82,1
0,36,127,3
0,38,96,0
0,42,96,0
0,64,127,20
0,52,127,0
0,61,86,3
0,64,120,18
0,59,86,0
0,42,96,0
0,64,127,20
0,59,127,0
0,55,92,1
0,64,127,1
0,52,80,0
0,36,127,0
0,42,96,0
0,54,127,20
0,62,127,0
0,59,127,0
0,40,127,0
0,52,86,3
0,42,96,0
0,59,85,6
0,40,127,20
0,59,108,9
0,62,82,5
0,36,127,3
0,38,96,0
0,42,96,0
0,59,127,20
0,50,127,0
0,62,108,18
0,61,86,3
0,62,127,17
0,64,106,28
0,59,86,0
0,42,96,0
0,64,127,20
0,52,127,0
0,55,92,1
0,67,117,1
0,52,127,18
0,67,127,0
0,59,127,0
0,52,85,1
0,36,127,0
0,42,96,0
0,40,127,20
0,64,117,13
0,42,96,0
0,59,83,2
0,59,127,18
0,67,127,0
0,62,111,31
0,64,117,14
0,62,82,0
0,36,127,3
0,38,96,0
0,42,96,0
0,64,127,20
0,59,127,0
0,52,127,0
0,61,86,3
0,62,110,3
0,64,115,9
0,59,86,0
0,42,96,0
0,64,127,20
0,59,127,0
0,55,92,1
0,62,121,1
0,48,80,0
0,36,127,0
0,42,96,0
0,54,127,0
0,59,127,0
0,62,127,0
0,36,127,0
0,59,120,4
0,42,96,0
0,55,85,6
0,59,127,14
0,62,127,0
0,64,108,4
0,50,82,5
0,36,127,0
0,38,96,0
0,42,96,0
0,64,127,20
0,38,127,0
0,62,108,30
0,62,127,0
0,59,86,20
0,59,104,1
0,42,96,0
0,59,127,20
0,67,104,38
0,52,127,20
0,59,127,0
0,64,127,0
0,64,122,4
0,52,85,4
0,36,127,0
0,42,96,0
0,40,127,20
0,42,96,0
0,59,83,2
0,64,127,18
0,59,127,0
0,62,82,17
0,36,127,3
0,38,96,0
0,42,96,0
0,52,127,20
0,61,86,3
0,59,86,0
0,42,96,0
0,64,127,20
0,59,127,0
0,55,92,1
0,52,80,0
0,36,127,0
0,42,96,0
0,40,127,20
0,52,86,3
0,42,96,0
0,59,85,6
0,64,127,14
0,59,127,0
0,40,127,0
0,62,82,5
0,36,127,0
0,38,96,0
0,42,96,0
0,59,120,4
0,59,127,16
0,50,127,0
0,62,125,3
0,61,86,0
0,62,127,17
0,59,86,0
0,42,96,0
0,64,110,5
0,64,127,15
0,52,127,0
0,55,92,1
0,67,120,2
0,45,127,0
0,52,127,0
0,64,80,1
0,36,127,0
0,42,96,0
0,67,85,13
0,60,127,7
0,64,127,0
0,57,127,0
0,45,127,0
0,64,106,1
0,42,96,0
0,64,91,2
0,57,127,18
0,67,85,1
0,62,108,12
0,64,122,11
0,36,127,0
0,38,96,0
0,42,96,0
0,64,127,4
0,60,127,0
0,47,127,0
0,64,78,18
0,62,109,12
0,57,127,8
0,67,80,3
0,64,82,1
0,64,117,7
0,42,96,0
0,67,84,1
0,52,127,19
0,62,84,58
0,62,120,18
0,36,127,4
0,42,96,0
0,66,87,2
0,50,127,18
0,62,127,0
0,66,127,0
0,38,127,0
0,62,79,43
0,66,84,11
0,42,96,0
0,57,127,20
0,62,79,19
0,59,112,16
0,36,127,5
0,38,96,0
0,42,96,0
0,66,82,7
0,66,127,13
0,62,127,0
0,38,127,0
0,62,125,13
0,57,127,14
0,62,76,80
0,64,106,11
0,66,88,2
0,42,96,0
0,45,127,20
0,67,122,19
0,64,80,0
0,36,127,0
0,42,96,0
0,67,85,13
0,52,127,7
0,64,127,0
0,60,127,0
0,45,127,0
0,64,120,29
0,64,91,2
0,57,127,18
0,42,96,0
0,67,85,1
0,62,108,18
0,36,127,13
0,38,96,0
0,42,96,0
0,64,114,4
0,64,127,4
0,60,127,0
0,47,127,0
0,64,78,23
0,62,109,2
0,57,127,18
0,67,80,3
0,64,82,1
0,71,108,12
0,42,96,0
0,67,84,1
0,50,127,20
0,62,127,0
0,66,127,0
0,62,84,58
0,69,122,17
0,36,127,0
0,42,96,0
0,66,87,2
0,38,127,18
0,62,79,98
0,66,84,11
0,42,96,0
0,57,127,20
0,62,79,59
0,59,112,17
0,36,127,4
0,38,96,0
0,42,96,0
0,66,82,7
0,66,127,13
0,62,127,0
0,38,127,0
0,62,106,25
0,57,127,0
0,62,76,8
0,64,106,17
0,66,88,2
