track,note,velocity,time
0,42,75,214
0,42,0,1
0,42,75,95
0,42,0,1
0,42,75,95
0,42,0,1
0,42,75,95
0,42,0,1
0,42,75,95
0,42,0,1
0,42,75,95
0,42,0,1
0,40,126,95
0,40,0,1
0,40,100,47
0,40,0,1
0,40,126,23
0,40,0,1
0,40,126,47
0,40,0,1
0,40,126,23
0,40,0,1
0,31,94,47
0,49,64,0
0,36,74,0
0,36,0,1
0,49,0,0
0,31,0,11
0,31,94,11
0,36,74,1
0,36,0,1
0,31,0,10
0,43,66,11
0,31,66,0
0,31,66,2
0,74,116,0
0,71,116,0
0,67,116,0
0,44,104,0
0,39,64,0
0,39,0,1
0,44,0,0
0,43,66,0
0,71,0,9
0,74,0,0
0,67,0,0
0,67,101,14
0,74,101,0
0,71,101,0
0,36,74,0
0,36,0,1
0,71,0,9
0,67,0,0
0,74,0,0
0,43,0,10
0,31,0,0
0,31,0,2
0,43,0,1
0,38,80,0
0,50,80,0
0,38,80,1
0,71,116,0
0,67,116,0
0,74,116,0
0,40,126,0
0,40,0,1
0,31,94,0
0,50,80,0
0,67,0,9
0,71,0,0
0,74,0,0
0,31,0,3
0,31,94,11
0,67,101,0
0,74,101,0
0,71,101,0
0,36,74,0
0,36,0,1
0,71,0,9
0,74,0,0
0,67,0,0
0,31,0,2
0,38,0,9
0,50,0,0
0,38,0,1
0,43,66,0
0,50,0,1
0,31,66,0
0,31,94,1
0,31,66,0
0,43,66,0
0,67,116,0
0,71,116,0
0,74,116,0
0,39,64,0
0,44,104,0
0,44,0,1
0,39,0,0
0,71,0,9
0,74,0,0
0,67,0,0
0,31,0,3
0,67,101,11
0,71,101,0
0,74,101,0
0,74,0,10
0,67,0,0
0,71,0,0
0,43,0,10
0,31,0,1
0,43,0,1
0,31,0,0
0,43,80,1
0,31,94,1
0,55,80,0
0,74,116,0
0,71,116,0
0,67,116,0
0,36,74,0
0,36,0,1
0,55,80,0
0,43,80,0
0,71,0,9
0,74,0,0
0,67,0,0
0,31,0,3
0,67,101,11
0,71,101,0
0,74,101,0
0,74,0,10
0,67,0,0
0,71,0,0
0,43,0,11
0,55,0,1
0,55,0,1
0,43,0,0
0,31,94,0
0,31,66,0
0,43,66,1
0,31,66,0
0,43,66,0
0,74,116,0
0,71,116,0
0,67,116,0
0,36,74,0
0,44,104,0
0,39,64,0
0,39,0,1
0,44,0,0
0,36,0,0
0,71,0,9
0,67,0,0
0,74,0,0
0,31,0,1
0,31,94,12
0,67,101,1
0,74,101,0
0,71,101,0
0,36,74,0
0,36,0,1
0,71,0,9
0,74,0,0
0,67,0,0
0,31,0,1
0,31,0,10
0,31,0,1
0,43,0,0
0,43,0,0
0,38,80,1
0,50,80,0
0,67,116,1
0,71,116,0
0,74,116,0
0,40,126,0
0,40,0,1
0,50,80,0
0,38,80,0
0,71,0,9
0,67,0,0
0,74,0,0
0,31,94,14
0,67,101,0
0,74,101,0
0,71,101,0
0,36,74,0
0,36,0,1
0,71,0,9
0,74,0,0
0,67,0,0
0,31,0,2
0,38,0,9
0,50,0,0
0,43,66,1
0,50,0,1
0,38,0,0
0,43,66,0
0,67,116,1
0,74,116,0
0,71,116,0
0,44,104,0
0,39,64,0
0,39,0,1
0,44,0,0
0,31,66,0
0,31,66,0
0,74,0,9
0,67,0,0
0,71,0,0
0,67,101,14
0,71,101,0
0,74,101,0
0,74,0,10
0,67,0,0
0,71,0,0
0,43,0,10
0,43,0,1
0,31,0,2
0,31,0,0
0,31,94,1
0,67,116,0
0,71,116,0
0,74,116,0
0,36,74,0
0,36,0,1
0,71,0,9
0,74,0,0
0,67,0,0
0,31,0,2
0,31,94,12
0,67,101,0
0,71,101,0
0,74,101,0
0,36,74,0
0,36,0,1
0,71,0,9
0,74,0,0
0,67,0,0
0,31,0,2
0,43,66,11
0,31,66,0
0,31,66,1
0,67,116,0
0,74,116,0
0,71,116,0
0,39,64,0
0,44,104,0
0,44,0,1
0,39,0,0
0,43,66,0
0,74,0,9
0,67,0,0
0,71,0,0
0,31,64,14
0,71,101,0
0,67,101,0
0,74,101,0
0,36,74,0
0,36,0,1
0,74,0,9
0,67,0,0
0,71,0,0
0,31,0,2
0,43,0,9
0,31,0,0
0,31,0,1
0,50,80,0
0,43,0,1
0,38,80,0
0,31,94,1
0,67,116,0
0,71,116,0
0,74,116,0
0,40,126,0
0,40,0,1
0,38,80,0
0,50,80,0
0,71,0,9
0,67,0,0
0,74,0,0
0,31,0,3
0,31,94,10
0,67,101,1
0,71,101,0
0,74,101,0
0,36,74,0
0,36,0,1
0,74,0,9
0,71,0,0
0,67,0,0
0,31,0,2
0,50,0,8
0,38,0,1
0,31,66,1
0,43,66,0
0,50,0,1
0,38,0,0
0,43,66,0
0,31,94,1
0,67,116,0
0,71,116,0
0,74,116,0
0,44,104,0
0,39,64,0
0,39,0,1
0,44,0,0
0,31,66,0
0,74,0,9
0,71,0,0
0,67,0,0
0,31,0,3
0,71,101,11
0,67,101,0
0,74,101,0
0,74,0,10
0,71,0,0
0,67,0,0
0,43,0,10
0,31,0,0
0,43,0,1
0,31,0,2
0,55,80,0
0,55,80,0
0,31,94,1
0,43,80,0
0,67,116,0
0,71,116,0
0,74,116,0
0,36,74,0
0,36,0,1
0,43,80,0
0,74,0,9
0,71,0,0
0,67,0,0
0,31,0,3
0,67,101,11
0,71,101,0
0,74,101,0
0,74,0,10
0,67,0,0
0,71,0,0
0,55,0,11
0,55,0,0
0,43,0,1
0,43,0,0
0,43,66,0
0,31,66,0
0,31,66,1
0,43,66,0
0,74,116,1
0,71,116,0
0,67,116,0
0,44,104,0
0,39,64,0
0,36,74,0
0,36,0,1
0,39,0,0
0,44,0,0
0,67,0,9
0,74,0,0
0,71,0,0
0,31,94,14
0,67,101,0
0,71,101,0
0,74,101,0
0,36,74,0
0,36,0,1
0,74,0,9
0,71,0,0
0,67,0,0
0,31,0,3
0,31,0,7
0,43,0,0
0,31,0,1
0,43,0,0
0,50,80,2
0,38,80,1
0,67,116,0
0,71,116,0
0,74,116,0
0,40,126,0
0,40,0,1
0,50,80,0
0,38,80,0
0,71,0,9
0,67,0,0
0,74,0,0
0,31,94,13
0,67,101,1
0,71,101,0
0,74,101,0
0,36,74,0
0,36,0,1
0,74,0,9
0,71,0,0
0,67,0,0
0,31,0,1
0,50,0,10
0,38,0,1
0,50,0,1
0,38,0,0
0,43,66,0
0,31,66,0
0,31,66,0
0,67,116,1
0,71,116,0
0,74,116,0
0,39,64,0
0,44,104,0
0,44,0,1
0,39,0,0
0,43,66,0
0,71,0,9
0,67,0,0
0,74,0,0
0,31,94,13
0,71,101,1
0,67,101,0
0,74,101,0
0,74,0,10
0,67,0,0
0,71,0,0
0,31,0,1
0,43,0,10
0,31,0,0
0,31,0,0
0,43,0,2
0,31,94,1
0,67,116,0
0,70,116,0
0,74,116,0
0,36,74,0
0,36,0,1
0,70,0,9
0,74,0,0
0,67,0,0
0,31,0,3
0,31,94,10
0,70,101,1
0,67,101,0
0,74,101,0
0,36,74,0
0,36,0,1
0,67,0,9
0,74,0,0
0,70,0,0
0,31,0,1
0,43,66,11
0,31,66,0
0,31,66,1
0,43,66,1
0,74,116,0
0,70,116,0
0,67,116,0
0,44,104,0
0,39,64,0
0,39,0,1
0,44,0,0
0,67,0,9
0,74,0,0
0,70,0,0
0,70,101,14
0,67,101,0
0,74,101,0
0,36,74,0
0,36,0,1
0,74,0,9
0,70,0,0
0,67,0,0
0,31,0,10
0,43,0,0
0,31,0,1
0,43,0,1
0,38,80,0
0,38,80,0
0,31,94,2
0,50,80,0
0,67,116,0
0,70,116,0
0,74,116,0
0,40,126,0
0,40,0,1
0,50,80,0
0,74,0,9
0,70,0,0
0,67,0,0
0,31,0,2
0,31,94,12
0,67,101,0
0,70,101,0
0,74,101,0
0,36,74,0
0,36,0,1
0,74,0,9
0,70,0,0
0,67,0,0
0,31,0,2
0,38,0,8
0,38,0,0
0,50,0,2
0,31,66,0
0,50,0,1
0,31,94,0
0,43,66,0
0,43,66,0
0,31,66,1
0,67,116,0
0,70,116,0
0,74,116,0
0,44,104,0
0,39,64,0
0,39,0,1
0,44,0,0
0,70,0,9
0,74,0,0
0,67,0,0
0,31,0,2
0,67,101,12
0,70,101,0
0,74,101,0
0,74,0,10
0,67,0,0
0,70,0,0
0,31,0,10
0,43,0,1
0,43,0,0
0,31,0,1
0,55,80,1
0,43,80,0
0,43,80,1
0,55,80,0
0,67,116,0
0,70,116,0
0,74,116,0
0,36,74,0
0,36,0,1
0,31,94,0
0,74,0,9
0,70,0,0
0,67,0,0
0,31,0,3
0,67,101,11
0,70,101,0
0,74,101,0
0,74,0,10
0,67,0,0
0,70,0,0
0,43,0,11
0,55,0,0
0,55,0,1
0,43,0,0
0,43,66,0
0,31,66,0
0,31,66,2
0,43,66,0
0,67,116,0
0,74,116,0
0,70,116,0
0,36,74,0
0,44,104,0
0,39,64,0
0,39,0,1
0,44,0,0
0,36,0,0
0,31,94,0
0,70,0,9
0,74,0,0
0,67,0,0
0,31,0,3
0,31,94,10
0,67,101,1
0,70,101,0
0,74,101,0
0,36,74,0
0,36,0,1
0,74,0,9
0,70,0,0
0,67,0,0
0,31,0,1
0,31,0,9
0,43,0,0
0,43,0,2
0,31,0,0
0,38,80,0
0,50,80,2
0,38,80,0
0,67,116,0
0,70,116,0
0,74,116,0
0,40,126,0
0,40,0,1
0,50,80,0
0,70,0,9
0,67,0,0
0,74,0,0
0,31,94,14
0,67,101,0
0,70,101,0
0,74,101,0
0,36,74,0
0,36,0,1
0,74,0,9
0,70,0,0
0,67,0,0
0,31,0,3
0,38,0,7
0,50,0,2
0,38,0,0
0,50,0,1
0,43,66,1
0,31,66,0
0,43,66,0
0,67,116,0
0,70,116,0
0,74,116,0
0,39,64,0
0,44,104,0
0,44,0,1
0,39,0,0
0,31,66,0
0,70,0,9
0,67,0,0
0,74,0,0
0,67,101,14
0,74,101,0
0,70,101,0
0,70,0,10
0,67,0,0
0,74,0,0
0,43,0,12
0,43,0,0
0,31,0,0
0,31,0,1
0,31,94,1
0,67,116,0
0,70,116,0
0,74,116,0
0,36,74,0
0,36,0,1
0,70,0,9
0,74,0,0
0,67,0,0
0,31,0,3
0,31,94,10
0,67,101,1
0,70,101,0
0,74,101,0
0,36,74,0
0,36,0,1
0,70,0,9
0,74,0,0
0,67,0,0
0,31,0,1
0,43,66,12
0,43,66,1
0,67,116,0
0,70,116,0
0,74,116,0
0,39,64,0
0,44,104,0
0,44,0,1
0,39,0,0
0,31,66,0
0,31,66,0
0,70,0,9
0,67,0,0
0,74,0,0
0,31,64,13
0,67,101,1
0,74,101,0
0,70,101,0
0,36,74,0
0,36,0,1
0,70,0,9
0,74,0,0
0,67,0,0
0,31,0,1
0,43,0,10
0,43,0,1
0,31,0,1
0,31,0,0
0,38,80,0
0,31,94,1
0,38,80,0
0,50,80,0
0,50,80,0
0,67,116,0
0,70,116,0
0,74,116,0
0,40,126,0
0,40,0,1
0,74,0,9
0,70,0,0
0,67,0,0
0,31,0,3
0,31,94,11
0,67,101,0
0,70,101,0
0,74,101,0
0,36,74,0
0,36,0,1
0,74,0,9
0,70,0,0
0,67,0,0
0,31,0,3
0,38,0,8
0,50,0,1
0,38,0,0
0,50,0,0
0,43,66,0
0,31,94,1
0,43,66,0
0,31,66,1
0,74,116,0
0,70,116,0
0,67,116,0
0,39,64,0
0,44,104,0
0,44,0,1
0,39,0,0
0,31,66,0
0,67,0,9
0,70,0,0
0,74,0,0
0,31,0,2
0,74,101,12
0,70,101,0
0,67,101,0
0,67,0,10
0,74,0,0
0,70,0,0
0,43,0,10
0,43,0,1
0,31,0,1
0,43,80,0
0,31,0,1
0,31,94,0
0,55,80,0
0,55,80,0
0,43,80,0
0,74,116,1
0,70,116,0
0,67,116,0
0,40,126,0
0,36,74,0
0,36,0,1
0,40,0,0
0,70,0,9
0,67,0,0
0,74,0,0
0,31,0,2
0,67,101,12
0,74,101,0
0,70,101,0
0,70,0,10
0,67,0,0
0,74,0,0
0,43,0,10
0,55,0,1
0,55,0,0
0,43,0,0
0,31,66,1
0,31,66,1
0,43,66,0
0,43,66,1
0,74,116,0
0,70,116,0
0,67,116,0
0,36,74,0
0,39,64,0
0,40,110,0
0,44,104,0
0,44,0,1
0,36,0,0
0,40,0,0
0,39,0,0
0,67,0,9
0,74,0,0
0,70,0,0
0,31,94,14
0,67,101,0
0,70,101,0
0,74,101,0
0,36,74,0
0,40,126,0
0,40,0,1
0,36,0,0
0,70,0,9
0,74,0,0
0,67,0,0
0,31,0,2
0,31,0,8
0,31,0,1
0,43,0,0
0,43,0,1
0,50,80,0
0,55,80,1
0,60,80,0
0,50,80,0
0,74,116,0
0,70,116,0
0,67,116,0
0,38,80,1
0,67,0,9
0,70,0,0
0,74,0,0
0,31,94,14
0,70,101,0
0,67,101,0
0,74,101,0
0,36,74,0
0,40,110,0
0,40,0,1
0,36,0,0
0,67,0,9
0,70,0,0
0,74,0,0
0,31,0,3
0,50,0,7
0,55,0,1
0,50,0,1
0,60,0,0
0,38,0,1
0,55,80,0
0,31,66,0
0,43,66,1
0,74,116,0
0,70,116,0
0,67,116,0
0,40,126,0
0,39,64,0
0,44,104,0
0,44,0,1
0,39,0,0
0,40,0,0
0,50,80,0
0,60,80,0
0,70,0,9
0,74,0,0
0,67,0,0
0,31,94,13
0,67,101,1
0,70,101,0
0,74,101,0
0,74,0,10
0,70,0,0
0,67,0,0
0,31,0,2
0,31,0,9
0,55,0,0
0,43,0,1
0,50,0,1
0,60,0,0
0,26,94,0
0,55,80,0
0,50,80,0
0,60,80,1
0,36,74,0
0,36,0,1
0,26,0,10
0,26,94,12
0,39,64,1
0,36,74,0
0,36,0,1
0,39,0,0
0,26,0,10
0,55,0,10
0,50,0,0
0,60,0,1
0,62,80,1
0,44,104,1
0,44,0,1
0,57,80,0
0,50,80,0
0,36,74,23
0,36,0,1
0,62,0,20
0,50,0,2
0,57,0,0
0,40,126,1
0,40,0,1
0,26,94,0
0,26,0,12
0,26,94,11
0,36,74,0
0,36,0,1
0,26,0,12
0,26,94,1
0,74,70,0
0,44,104,0
0,44,0,1
0,26,0,5
0,74,0,8
0,26,94,1
0,74,90,1
0,36,74,0
0,36,0,1
0,26,0,10
0,74,0,35
0,26,94,2
0,74,70,0
0,44,104,0
0,36,74,0
0,36,0,1
0,44,0,0
0,26,0,12
0,26,94,10
0,36,74,1
0,36,0,1
0,26,0,11
0,74,0,10
0,74,90,2
0,40,126,0
0,40,0,1
0,36,74,1
0,36,0,1
0,26,94,0
0,26,0,12
0,74,0,9
0,72,70,2
0,39,64,0
0,37,94,0
0,44,104,0
0,44,0,1
0,37,0,0
0,39,0,0
0,72,0,36
0,26,94,1
0,74,90,1
0,36,74,0
0,36,0,1
0,26,0,1
0,26,94,4
0,39,64,0
0,36,74,0
0,36,0,1
0,39,0,0
0,26,0,8
0,44,104,12
0,44,0,1
0,26,64,23
0,36,74,0
0,36,0,1
0,26,0,1
0,74,0,2
0,26,94,2
0,76,90,0
0,40,126,0
0,40,0,1
0,26,0,11
0,26,94,12
0,36,74,0
0,36,0,1
0,26,0,5
0,26,94,3
0,44,104,0
0,44,0,1
0,26,0,5
0,76,0,10
0,74,90,2
0,26,94,3
0,36,74,1
0,36,0,1
0,26,0,8
0,74,0,9
0,71,50,2
0,44,104,0
0,36,74,0
0,36,0,1
0,44,0,0
0,26,94,22
0,36,74,1
0,36,0,1
0,26,0,11
0,69,80,11
0,65,80,1
0,40,126,0
0,40,0,1
0,60,80,0
0,26,94,22
0,36,74,1
0,36,0,1
0,26,0,11
0,69,0,9
0,71,0,1
0,65,0,0
0,60,0,0
0,60,80,0
0,65,80,1
0,69,80,1
0,37,94,0
0,39,64,0
0,44,104,0
0,44,0,1
0,37,0,0
0,39,0,0
0,26,94,4
0,26,0,6
0,60,0,7
0,65,0,1
0,69,0,1
