track,note,velocity,time
1,40,127,0
1,40,0,12
1,40,114,0
1,40,0,16
1,40,127,5744
1,40,0,3456
1,40,127,13824
1,40,0,944
1,40,127,1848
1,40,0,408
2,57,107,53760
2,61,107,0
2,52,107,0
2,61,0,1440
2,52,0,96
2,57,0,0
2,52,107,0
2,59,107,0
2,55,107,0
2,52,0,672
2,55,0,96
2,59,0,0
2,57,107,0
2,50,107,0
2,54,107,0
2,54,0,672
2,50,0,0
2,57,0,0
2,48,107,96
2,55,107,0
2,52,107,0
2,52,0,672
2,55,0,96
2,48,0,0
2,57,107,0
2,50,107,0
2,54,107,0
2,54,0,672
2,50,0,0
2,57,0,0
2,61,107,96
2,52,107,0
2,57,107,0
2,57,0,768
2,52,0,0
2,61,0,0
2,52,107,0
2,59,107,0
2,55,107,0
2,59,0,672
2,55,0,96
2,52,0,0
2,54,107,0
2,50,107,0
2,57,107,0
2,57,0,1536
2,50,0,0
2,54,0,0
2,52,107,0
2,59,107,0
2,55,107,0
2,55,0,1440
2,59,0,0
2,52,0,0
2,54,107,96
2,57,107,0
2,50,107,0
2,54,0,1440
2,50,0,96
2,57,0,0
2,48,107,0
2,55,107,0
2,52,107,0
2,52,0,672
2,48,0,0
2,55,0,96
2,50,107,0
2,54,107,0
2,57,107,0
2,57,0,768
2,54,0,0
2,50,0,0
2,59,107,0
2,52,107,0
2,55,107,0
2,55,0,288
2,52,0,0
2,59,0,0
2,54,107,96
2,57,107,0
2,50,107,0
2,54,0,288
2,50,0,96
2,57,0,0
2,48,107,0
2,55,107,0
2,52,107,0
2,52,0,288
2,48,0,0
2,55,0,96
2,57,107,0
2,50,107,0
2,54,107,0
2,54,0,384
2,50,0,0
2,57,0,0
2,64,107,0
2,67,107,0
2,71,107,0
2,71,0,768
2,67,0,0
2,64,0,0
3,64,127,18432
3,64,0,192
3,50,127,96
3,50,0,96
3,52,127,0
3,52,0,192
3,50,127,96
3,50,0,96
3,52,127,0
3,52,0,96
3,55,127,0
3,55,0,240
3,59,127,192
3,59,0,96
3,59,127,48
3,59,0,96
3,57,127,0
3,57,0,48
3,55,127,0
3,55,0,48
3,52,127,0
3,52,0,48
3,50,127,0
3,50,0,144
3,47,127,0
3,47,0,96
3,50,127,0
3,50,0,192
3,52,127,0
3,52,0,96
3,50,127,0
3,50,0,480
3,59,127,288
3,59,0,96
3,64,127,0
3,64,0,192
3,50,127,96
3,50,0,96
3,52,127,0
3,52,0,192
3,50,127,96
3,50,0,96
3,52,127,0
3,52,0,96
3,55,127,0
3,55,0,336
3,59,127,144
3,59,0,48
3,59,127,48
3,59,0,96
3,57,127,0
3,57,0,48
3,55,127,0
3,55,0,48
3,52,127,0
3,52,0,48
3,50,127,0
3,50,0,144
3,47,127,0
3,47,0,48
3,50,127,48
3,50,0,192
3,52,127,0
3,52,0,96
3,50,127,0
3,50,0,480
3,59,127,288
3,59,0,48
3,59,127,0
3,59,0,48
3,64,127,0
3,64,0,192
3,50,127,96
3,50,0,48
3,50,127,0
3,50,0,48
3,52,127,0
3,52,0,288
3,50,127,0
3,50,0,96
3,52,127,0
3,52,0,96
3,55,127,0
3,55,0,288
3,59,127,192
3,59,0,48
3,59,127,48
3,59,0,96
3,57,127,0
3,57,0,48
3,55,127,0
3,55,0,48
3,52,127,0
3,52,0,48
3,50,127,0
3,50,0,144
3,47,127,0
3,47,0,96
3,50,127,0
3,50,0,192
3,52,127,0
3,52,0,48
3,52,127,48
3,52,0,48
3,50,127,0
3,50,0,624
3,59,127,96
3,59,0,96
3,64,127,0
3,64,0,336
3,66,127,0
3,66,0,48
3,67,127,0
3,67,0,192
3,66,127,0
3,66,0,48
3,66,127,48
3,66,0,192
3,64,127,0
3,64,0,48
3,62,127,0
3,62,0,48
3,59,127,0
3,59,0,432
3,59,127,48
3,59,0,48
3,59,127,0
3,59,0,96
3,71,127,48
3,71,0,48
3,69,127,0
3,69,0,144
3,67,127,0
3,67,0,48
3,67,127,48
3,67,0,48
3,66,127,0
3,66,0,48
3,64,127,0
3,64,0,288
3,69,127,0
3,69,0,96
3,68,127,0
3,68,0,1248
3,64,127,96
3,64,0,96
3,64,127,0
3,64,0,192
3,50,127,96
3,50,0,96
3,52,127,0
3,52,0,192
3,50,127,96
3,50,0,96
3,52,127,0
3,52,0,96
3,55,127,0
3,55,0,240
3,59,127,192
3,59,0,96
3,59,127,48
3,59,0,96
3,57,127,0
3,57,0,48
3,55,127,0
3,55,0,48
3,52,127,0
3,52,0,48
3,50,127,0
3,50,0,144
3,47,127,0
3,47,0,96
3,50,127,0
3,50,0,192
3,52,127,0
3,52,0,96
3,50,127,0
3,50,0,480
3,59,127,288
3,59,0,96
3,64,127,0
3,64,0,192
3,50,127,96
3,50,0,96
3,52,127,0
3,52,0,192
3,50,127,96
3,50,0,96
3,52,127,0
3,52,0,96
3,55,127,0
3,55,0,336
3,59,127,144
3,59,0,48
3,59,127,48
3,59,0,96
3,57,127,0
3,57,0,48
3,55,127,0
3,55,0,48
3,52,127,0
3,52,0,48
3,50,127,0
3,50,0,144
3,47,127,0
3,47,0,48
3,50,127,48
3,50,0,192
3,52,127,0
3,52,0,96
3,50,127,0
3,50,0,480
3,59,127,288
3,59,0,48
3,59,127,0
3,59,0,48
3,64,127,0
3,64,0,192
3,50,127,96
3,50,0,48
3,50,127,0
3,50,0,48
3,52,127,0
3,52,0,288
3,50,127,0
3,50,0,96
3,52,127,0
3,52,0,96
3,55,127,0
3,55,0,288
3,59,127,192
3,59,0,48
3,59,127,48
3,59,0,96
3,57,127,0
3,57,0,48
3,55,127,0
3,55,0,48
3,52,127,0
3,52,0,48
3,50,127,0
3,50,0,144
3,47,127,0
3,47,0,96
3,50,127,0
3,50,0,192
3,52,127,0
3,52,0,48
3,52,127,48
3,52,0,48
3,50,127,0
3,50,0,624
3,59,127,96
3,59,0,96
3,64,127,0
3,64,0,336
3,66,127,0
3,66,0,48
3,67,127,0
3,67,0,192
3,66,127,0
3,66,0,48
3,66,127,48
3,66,0,192
3,64,127,0
3,64,0,48
3,62,127,0
3,62,0,48
3,59,127,0
3,59,0,432
3,59,127,48
3,59,0,48
3,59,127,0
3,59,0,96
3,71,127,48
3,71,0,48
3,69,127,0
3,69,0,144
3,67,127,0
3,67,0,48
3,67,127,48
3,67,0,48
3,66,127,0
3,66,0,48
3,64,127,0
3,64,0,288
3,69,127,0
3,69,0,96
3,68,127,0
3,68,0,1248
3,59,127,10752
3,59,0,48
3,59,127,48
3,59,0,48
3,66,127,48
3,66,0,96
3,64,127,0
3,64,0,192
3,62,127,0
3,62,0,192
3,59,127,0
3,59,0,96
3,66,127,0
3,66,0,96
3,64,127,0
3,64,0,192
3,62,127,0
3,62,0,192
3,62,127,0
3,62,0,144
3,59,127,0
3,59,0,48
3,57,127,0
3,57,0,192
3,59,127,0
3,59,0,192
3,52,127,0
3,52,0,288
3,59,127,0
3,57,127,96
3,59,0,48
3,57,0,240
3,59,127,0
3,59,0,96
3,62,127,0
3,62,0,288
3,69,127,0
3,69,0,144
3,69,127,0
3,69,0,48
3,62,127,48
3,62,0,48
3,64,127,0
3,64,0,96
3,64,127,0
3,64,0,960
3,52,127,192
3,52,0,96
3,54,127,0
3,54,0,48
3,55,127,0
3,55,0,144
3,59,127,0
3,59,0,192
3,57,127,0
3,57,0,48
3,59,127,0
3,59,0,48
3,57,127,0
3,57,0,768
3,52,127,192
3,52,0,96
3,54,127,0
3,54,0,48
3,55,127,0
3,55,0,144
3,59,127,0
3,59,0,240
3,52,127,0
3,52,0,816
3,52,127,192
3,52,0,96
3,54,127,0
3,54,0,48
3,55,127,0
3,55,0,96
3,59,127,48
3,59,0,192
3,57,127,0
3,57,0,48
3,59,127,0
3,59,0,48
3,57,127,0
3,57,0,432
3,57,127,48
3,57,0,48
3,59,127,0
3,59,0,48
3,57,127,0
3,57,0,240
3,64,127,48
3,64,0,48
3,64,127,48
3,64,0,48
3,64,127,0
3,64,0,48
3,64,127,0
3,64,0,48
3,67,127,0
3,67,0,144
3,69,127,0
3,69,0,48
3,69,127,48
3,69,0,96
3,67,127,0
3,67,0,48
3,64,127,0
3,64,0,240
3,71,127,0
3,71,0,96
3,71,127,0
3,71,0,96
3,69,127,0
3,69,0,192
3,71,127,0
3,71,0,96
3,71,127,0
3,71,0,48
3,69,127,0
3,69,0,192
3,69,127,48
3,69,0,48
3,69,127,0
3,69,0,48
3,69,127,0
3,69,0,48
3,69,127,0
3,69,0,96
3,67,127,0
3,67,0,48
3,69,127,0
3,69,0,96
3,71,127,0
3,71,0,48
3,69,127,0
3,69,0,48
3,67,127,0
3,67,0,48
3,64,127,0
3,64,0,528
3,69,127,0
3,69,0,48
3,69,127,48
3,69,0,48
3,69,127,0
3,69,0,48
3,67,127,0
3,67,0,48
3,71,127,0
3,71,0,288
3,69,127,48
3,69,0,48
3,69,127,0
3,69,0,48
3,69,127,0
3,69,0,48
3,67,127,0
3,67,0,48
3,69,127,0
3,69,0,96
3,71,127,0
3,71,0,768
3,76,127,3736
3,76,0,88
3,79,127,16
3,79,0,240
3,74,127,48
3,74,0,96
3,76,127,0
3,76,0,144
3,74,127,144
3,74,0,96
3,76,127,0
3,76,0,96
3,79,127,0
3,79,0,288
3,81,127,96
3,81,0,48
3,83,127,0
3,83,0,48
3,81,127,0
3,81,0,48
3,83,127,0
3,83,0,48
3,81,127,0
3,81,0,48
3,83,127,0
3,83,0,48
3,81,127,0
3,81,0,48
3,79,127,0
3,79,0,48
3,76,127,0
3,76,0,48
3,74,127,0
3,74,0,144
3,71,127,0
3,71,0,96
3,74,127,0
3,74,0,192
3,76,127,0
3,76,0,96
3,78,127,0
3,78,0,48
3,76,127,0
3,76,0,48
3,74,127,0
3,74,0,384
3,83,127,336
3,83,0,48
3,88,127,0
3,88,0,288
3,74,127,48
3,74,0,48
3,76,127,0
3,76,0,336
3,74,127,0
3,74,0,48
3,76,127,0
3,76,0,96
3,79,127,0
3,79,0,288
3,81,127,96
3,81,0,48
3,83,127,0
3,83,0,48
3,81,127,0
3,81,0,48
3,83,127,0
3,83,0,48
3,81,127,0
3,81,0,48
3,83,127,0
3,83,0,48
3,81,127,0
3,81,0,48
3,79,127,0
3,79,0,48
3,76,127,0
3,76,0,48
3,74,127,0
3,74,0,144
3,71,127,0
3,71,0,96
3,74,127,0
3,74,0,192
3,76,127,0
3,76,0,96
3,78,127,0
3,78,0,48
3,76,127,0
3,76,0,48
3,74,127,0
3,74,0,576
3,83,127,96
3,83,0,48
3,83,127,0
3,83,0,48
3,88,127,0
3,88,0,192
3,74,127,96
3,74,0,48
3,74,127,0
3,74,0,48
3,76,127,0
3,76,0,240
3,74,127,48
3,74,0,48
3,74,127,0
3,74,0,48
3,76,127,0
3,76,0,96
3,79,127,0
3,79,0,288
3,83,127,96
3,83,0,144
3,83,127,48
3,83,0,96
3,81,127,0
3,81,0,48
3,79,127,0
3,79,0,48
3,76,127,0
3,76,0,48
3,74,127,0
3,74,0,144
3,71,127,0
3,71,0,96
3,74,127,0
3,74,0,192
3,76,127,0
3,76,0,96
3,74,127,0
3,74,0,480
3,71,127,288
3,71,0,96
3,76,127,0
3,76,0,336
3,78,127,0
3,78,0,48
3,79,127,0
3,79,0,192
3,78,127,0
3,78,0,48
3,78,127,0
3,78,0,240
3,76,127,0
3,76,0,48
3,74,127,0
3,74,0,48
3,71,127,0
3,71,0,480
3,71,127,0
3,71,0,48
3,71,127,0
3,71,0,48
3,81,127,96
3,81,0,48
3,79,127,0
3,79,0,96
3,79,127,48
3,79,0,48
3,79,127,48
3,79,0,48
3,78,127,0
3,78,0,48
3,76,127,0
3,76,0,288
3,81,127,0
3,81,0,96
3,80,127,0
3,80,0,1344
3,40,127,96
3,40,0,40
3,40,127,8
3,40,0,48
3,40,127,48
3,40,0,24
3,40,127,24
3,40,0,48
3,40,127,48
3,40,0,32
3,40,127,16
3,40,0,48
3,40,127,48
3,40,0,24
3,40,127,24
3,40,0,48
3,40,127,48
3,40,0,56
3,40,127,40
3,40,0,64
3,40,127,32
3,40,0,32
3,40,127,16
3,40,0,56
3,40,127,40
3,40,0,32
3,40,127,16
3,40,0,56
3,40,127,40
3,40,0,32
3,40,127,16
3,40,0,56
3,40,127,40
3,40,0,32
3,40,127,16
3,40,0,56
3,40,127,40
3,40,0,56
3,40,127,40
3,40,0,64
3,40,127,32
3,40,0,32
3,40,127,16
3,40,0,56
3,40,127,40
3,40,0,24
3,40,127,24
3,40,0,56
3,40,127,40
3,40,0,32
3,40,127,16
3,40,0,56
3,40,127,40
3,40,0,32
3,40,127,16
3,40,0,64
3,40,127,32
3,40,0,56
3,40,127,40
3,40,0,96
4,79,90,0
4,78,90,384
4,79,0,8
4,78,0,384
4,61,90,256
4,63,90,264
4,61,0,8
4,67,90,240
4,63,0,16
4,67,0,384
4,55,30,104
4,79,90,224
4,78,90,320
4,79,0,8
4,55,0,8
4,78,0,400
4,61,90,64
4,61,0,192
4,63,90,0
4,63,0,192
4,67,90,0
4,67,0,192
4,64,90,0
4,71,90,192
4,64,0,608
4,71,0,960
4,79,90,736
4,79,0,288
4,78,90,0
4,78,0,96
4,79,90,0
4,79,0,288
4,78,90,0
4,78,0,96
4,79,90,0
4,79,0,576
4,81,90,0
4,81,0,192
4,78,90,0
4,78,0,288
4,76,90,0
4,76,0,96
4,78,90,0
4,78,0,288
4,76,90,0
4,76,0,96
4,78,90,0
4,78,0,768
4,79,90,0
4,79,0,288
4,78,90,0
4,78,0,96
4,79,90,0
4,79,0,288
4,78,90,0
4,78,0,96
4,79,90,0
4,79,0,576
4,81,90,0
4,81,0,192
4,78,90,0
4,78,0,288
4,76,90,0
4,76,0,96
4,78,90,0
4,78,0,288
4,76,90,0
4,76,0,96
4,78,90,0
4,78,0,720
4,79,90,0
4,79,0,288
4,78,90,0
4,78,0,96
4,79,90,0
4,79,0,288
4,78,90,0
4,78,0,96
4,79,90,0
4,79,0,576
4,81,90,0
4,81,0,192
4,78,90,0
4,78,0,288
4,76,90,0
4,76,0,96
4,78,90,0
4,78,0,288
4,76,90,0
4,76,0,96
4,78,90,0
4,78,0,768
4,79,90,0
4,79,0,288
4,78,90,0
4,78,0,96
4,79,90,0
4,79,0,288
4,78,90,0
4,78,0,96
4,79,90,0
4,79,0,576
4,81,90,0
4,81,0,192
4,78,90,0
4,78,0,288
4,76,90,0
4,76,0,96
4,78,90,0
4,78,0,288
4,76,90,0
4,76,0,96
4,78,90,0
4,78,0,768
4,79,90,0
4,79,0,288
4,78,90,0
4,78,0,96
4,79,90,0
4,79,0,288
4,78,90,0
4,78,0,96
4,79,90,0
4,79,0,192
4,81,90,0
4,81,0,336
4,81,90,48
4,81,0,192
4,78,90,0
4,78,0,288
4,76,90,0
4,76,0,96
4,78,90,0
4,78,0,288
4,76,90,0
4,76,0,96
4,78,90,0
4,78,0,768
4,76,90,0
4,72,90,0
4,76,0,48
4,72,0,336
4,76,90,0
4,76,0,144
4,78,90,0
4,78,0,144
4,79,90,0
4,79,0,768
4,78,90,0
4,78,0,48
4,79,90,0
4,79,0,48
4,81,90,0
4,81,0,768
4,83,90,0
4,83,0,1536
4,79,90,0
4,79,0,288
4,78,90,0
4,78,0,96
4,79,90,0
4,79,0,288
4,78,90,0
4,78,0,96
4,79,90,0
4,79,0,576
4,81,90,0
4,81,0,192
4,78,90,0
4,78,0,288
4,76,90,0
4,76,0,96
4,78,90,0
4,78,0,288
4,76,90,0
4,76,0,96
4,78,90,0
4,78,0,768
4,79,90,0
4,79,0,288
4,78,90,0
4,78,0,96
4,79,90,0
4,79,0,288
4,78,90,0
4,78,0,96
4,79,90,0
4,79,0,576
4,81,90,0
4,81,0,192
4,78,90,0
4,78,0,288
4,76,90,0
4,76,0,96
4,78,90,0
4,78,0,288
4,76,90,0
4,76,0,96
4,78,90,0
4,78,0,768
4,79,90,0
4,79,0,288
4,78,90,0
4,78,0,96
4,79,90,0
4,79,0,288
