track,note,velocity,time
1,31,124,3072
1,31,118,28
1,31,111,40
1,36,103,20
1,38,101,16
1,31,118,20
1,31,112,40
1,31,114,52
1,31,110,164
1,31,120,56
1,31,111,52
1,31,124,52
1,36,113,120
1,38,107,28
1,31,113,20
1,43,101,84
1,31,110,4
1,38,109,4
1,39,114,24
1,34,106,68
1,39,108,16
1,39,111,68
1,34,105,52
1,36,100,12
1,39,113,8
1,31,115,32
1,43,109,16
1,31,104,24
1,29,108,12
1,29,112,48
1,31,110,32
1,32,110,12
1,36,111,36
1,43,105,4
1,46,102,32
1,36,114,56
1,36,104,32
1,39,114,8
1,39,118,60
1,46,110,24
1,51,105,8
1,46,110,20
1,39,114,4
1,34,104,32
1,39,111,20
1,31,113,28
1,31,110,16
1,36,112,28
1,39,108,24
1,41,118,12
1,41,108,84
1,39,112,32
1,51,84,580
1,34,105,44
1,39,115,36
1,44,108,12
1,46,97,24
1,39,117,16
1,46,109,28
1,51,111,20
1,51,108,28
1,46,108,12
1,39,113,28
1,34,100,232
1,39,112,16
1,39,113,40
1,31,117,4
1,31,102,36
1,29,114,40
1,29,104,36
1,36,117,12
1,36,111,0
1,36,118,24
1,36,110,36
1,39,113,20
1,46,104,20
1,39,118,20
1,46,100,28
1,51,107,24
1,51,105,24
1,46,92,36
1,39,116,24
1,34,107,124
1,39,114,20
1,39,103,28
1,31,113,8
1,34,114,24
1,36,117,20
1,36,111,132
1,41,86,96
1,38,106,212
1,43,114,28
1,43,111,28
1,31,111,12
1,29,106,24
1,31,115,20
1,31,103,44
1,31,107,40
1,31,114,28
1,31,108,24
1,43,117,108
1,45,106,8
1,38,107,20
1,40,103,16
1,43,98,24
1,31,109,24
1,31,111,28
1,31,112,32
1,31,116,8
1,31,107,60
1,31,110,36
1,31,110,40
1,31,103,40
1,36,117,32
1,36,103,32
1,29,113,4
1,29,117,28
1,36,117,32
1,29,114,36
1,31,117,240
1,43,110,24
1,31,113,12
1,31,111,56
1,31,110,40
1,43,113,12
1,45,109,96
1,47,103,88
1,50,99,188
1,43,111,16
1,31,104,64
1,31,118,52
1,31,113,20
1,36,107,20
1,29,114,124
1,29,110,24
1,36,109,36
1,29,112,108
1,31,105,24
1,31,104,32
1,31,115,28
1,31,114,72
1,31,111,32
1,43,99,20
1,31,106,28
1,38,98,16
1,31,104,20
1,31,105,16
1,31,109,40
1,31,102,8
1,31,108,72
1,31,105,56
1,31,110,40
1,31,117,12
1,38,107,40
1,39,111,16
1,39,115,28
1,46,101,32
1,39,108,12
1,34,99,28
1,39,106,28
1,31,113,12
1,29,109,12
1,29,98,20
1,36,113,16
1,48,110,4
1,43,99,16
1,36,115,24
1,43,107,16
1,46,105,24
1,39,115,20
1,46,110,20
1,39,113,20
1,46,98,16
1,51,101,12
1,46,92,20
1,39,114,28
1,51,98,16
1,46,92,20
1,39,114,12
1,31,114,32
1,31,110,24
1,31,105,28
1,36,115,28
1,36,112,20
1,41,115,24
1,39,113,20
1,34,101,32
1,39,116,36
1,46,111,32
1,39,118,8
1,51,99,16
1,39,118,16
1,46,91,16
1,39,116,20
1,46,93,24
1,51,102,28
1,46,95,24
1,39,113,16
1,51,107,1156
1,46,101,16
1,39,113,20
1,34,94,16
1,39,117,32
1,51,107,1144
1,46,98,12
1,39,115,28
1,51,103,24
1,46,82,28
1,39,114,28
1,46,95,20
1,39,118,8
1,51,98,16
1,39,116,32
1,46,89,12
1,39,113,12
2,70,103,16120
2,70,103,48
2,70,103,36
2,67,91,16
2,63,103,888
2,70,103,32
2,70,103,48
2,72,103,368
2,70,103,32
2,70,103,36
2,67,100,28
2,65,68,12
2,70,103,1148
2,70,103,24
2,74,103,24
2,75,91,24
2,75,103,32
2,75,103,32
2,68,97,36
2,68,87,36
2,72,101,600
2,72,103,16
2,70,103,40
2,70,100,20
2,67,100,16
2,65,97,28
2,70,84,28
2,70,102,1252
2,70,103,40
2,70,103,40
2,67,95,4
2,63,103,888
2,63,102,12
2,70,98,20
2,70,103,44
2,72,103,320
2,70,103,32
2,70,103,28
2,67,99,24
2,65,69,4
2,70,103,1160
2,70,103,20
2,74,103,44
2,75,95,24
2,75,103,28
2,70,96,16
2,70,93,32
2,68,99,976
2,70,99,8
2,72,103,20
2,70,103,32
2,70,96,20
2,70,103,1592
2,70,103,56
2,70,102,48
2,67,92,12
2,70,103,1896
2,72,98,20
2,72,103,28
2,70,103,24
2,67,101,12
2,65,71,24
2,70,103,1540
2,74,103,36
2,75,103,20
2,75,103,28
2,68,100,24
2,68,87,40
2,72,101,804
2,72,103,20
2,70,103,24
2,67,101,40
2,65,96,8
2,63,95,1524
2,70,100,28
2,68,103,24
2,67,103,24
2,65,98,20
2,67,95,8
2,63,100,1812
2,70,101,20
2,70,103,24
2,72,103,28
2,72,103,36
2,70,94,20
2,67,89,20
2,70,100,1284
2,70,103,32
2,70,103,44
2,74,101,12
2,74,103,36
2,75,100,16
2,75,103,36
2,72,103,12
2,70,92,16
2,68,102,1044
2,68,103,28
2,68,103,40
2,67,103,16
2,65,102,32
2,67,102,32
2,69,103,7604
2,69,103,24
2,72,103,36
2,76,103,32
2,74,103,28
2,72,99,16
2,71,93,20
2,69,78,8
2,69,102,676
2,69,103,44
2,69,103,24
2,72,103,40
2,76,103,28
2,74,103,12
2,76,103,276
2,74,103,12
2,72,95,16
2,79,103,12
2,72,103,188
2,79,103,16
2,77,103,28
2,72,97,20
2,79,103,28
2,79,103,376
2,77,103,24
2,72,101,44
2,74,96,16
2,69,98,1336
2,69,103,36
2,72,103,24
2,76,103,40
2,74,103,20
2,72,99,16
2,71,92,24
2,69,99,636
2,69,103,48
2,72,102,12
2,76,103,28
2,74,103,28
2,74,94,316
2,76,103,32
2,74,103,4
2,72,102,20
2,79,103,36
2,72,103,188
2,79,103,16
2,77,103,24
2,72,98,28
2,79,103,28
2,70,103,11540
2,70,103,56
2,70,102,60
2,67,92,8
2,63,102,932
2,70,102,20
2,72,103,572
2,70,103,32
2,70,99,32
2,67,90,28
2,70,99,1500
2,74,103,36
2,75,103,28
2,75,102,20
2,68,98,32
2,68,87,16
2,67,88,984
2,72,103,24
2,70,103,16
2,67,98,16
2,65,97,28
2,70,101,12
2,63,90,1384
2,70,103,24
2,68,103,32
2,67,102,20
2,65,103,12
2,67,95,16
2,65,97,0
2,63,90,12
2,63,96,604
2,70,101,8
2,70,102,44
2,72,103,228
2,70,103,20
2,70,103,20
2,67,101,16
2,65,95,20
2,70,103,940
2,70,103,32
2,74,103,24
2,75,103,20
2,75,103,32
2,75,103,44
2,70,97,16
2,70,95,32
2,72,103,660
2,72,103,32
2,70,103,28
2,70,101,24
2,67,102,16
2,65,98,28
2,70,91,12
2,63,100,1472
2,70,103,20
2,70,103,44
2,70,99,28
2,67,95,12
2,63,102,1784
2,70,103,36
2,70,103,36
2,70,103,36
2,67,103,16
2,65,98,0
2,63,91,20
2,70,102,560
2,70,101,28
2,70,92,36
2,75,103,28
2,74,103,28
2,70,103,16
2,67,97,36
2,72,103,16
2,70,95,24
2,77,103,1196
2,74,102,32
2,72,96,20
2,70,88,24
2,63,94,580
2,72,98,32
2,70,90,12
2,63,95,492
2,72,103,28
2,70,101,24
2,63,99,16
2,72,102,28
2,70,100,12
2,63,94,12
2,72,103,16
2,70,101,20
2,77,103,204
2,74,103,12
2,72,103,24
2,70,93,12
3,75,96,52888
3,75,109,36
3,75,110,32
3,75,107,32
3,75,106,40
3,70,103,20
3,74,105,4608
3,74,111,16
3,74,108,32
3,77,103,32
3,77,112,44
3,79,107,24
3,79,109,32
3,75,111,32
3,75,101,32
3,75,111,48872
3,75,113,56
3,75,111,52
3,70,95,20
3,74,103,2652
3,70,94,24
3,74,109,1520
3,77,113,24
3,79,114,24
3,80,108,36
3,75,102,20
3,75,98,20
3,75,101,4160
3,75,106,32
3,75,109,28
3,75,107,16
3,75,104,48
3,70,101,44
3,74,112,4696
3,74,112,28
3,77,112,12
3,79,107,16
3,79,106,28
3,79,113,32
3,75,108,24
3,75,94,52
3,70,101,4012
3,75,105,28
3,75,111,36
3,75,101,24
3,70,97,16
3,70,100,1784
3,75,107,16
3,75,109,28
3,75,107,36
3,70,111,36
3,68,109,12
3,67,107,12
3,75,108,1824
3,70,110,0
3,75,112,32
3,70,108,0
3,70,108,40
3,75,105,4
3,70,76,36
3,67,104,4
3,75,105,1856
3,70,110,8
3,70,107,32
3,75,107,0
3,75,105,36
3,70,102,0
3,70,92,32
3,67,98,8
3,70,109,1836
3,75,114,0
3,70,109,40
3,75,105,8
3,70,104,44
3,75,100,4
3,70,72,32
3,67,105,4
3,75,104,1872
3,70,105,4
3,70,111,48
3,75,103,4
3,75,99,32
3,70,100,4
3,67,100,28
3,70,96,4
4,56,69,1536
4,63,69,0
4,60,65,0
4,62,66,0
4,63,67,12
4,62,67,4
4,62,68,0
4,56,64,0
4,60,70,0
4,63,67,0
4,67,66,0
4,58,64,8
4,56,69,1528
4,60,64,0
4,65,70,0
4,62,66,4
4,55,67,4
4,58,70,0
4,58,65,0
4,62,70,0
4,70,69,0
4,65,68,4
4,56,64,0
4,68,65,0
4,60,70,0
4,63,70,4
4,58,70,0
4,67,64,0
4,55,64,4
4,62,64,4
4,65,70,0
4,63,64,0
4,60,66,0
4,56,69,4
4,67,69,0
4,58,68,1528
4,60,64,0
4,56,68,4
4,58,66,0
4,62,66,0
4,65,66,0
4,55,64,0
4,70,64,0
4,62,64,0
4,65,65,0
4,58,70,4
4,63,64,1528
4,67,66,0
4,68,68,0
4,56,68,0
4,60,69,0
4,62,66,0
4,58,65,0
4,55,67,0
4,62,68,0
4,65,67,4
4,63,70,0
4,56,64,0
4,60,64,0
4,67,66,0
4,58,65,8
4,60,68,1528
4,56,64,0
4,55,68,0
4,65,64,0
4,58,66,0
4,62,70,4
4,58,69,0
4,65,67,0
4,62,65,0
4,70,70,4
4,56,67,0
4,63,65,0
4,60,64,0
4,68,70,4
4,67,64,0
4,58,64,0
4,55,70,4
4,62,70,4
4,65,69,0
4,60,67,1532
4,67,65,0
4,63,70,0
4,56,65,4
4,58,68,0
4,60,68,0
4,56,68,4
4,62,69,0
4,55,64,0
4,65,64,0
4,58,67,0
4,65,69,0
4,62,68,0
4,70,70,0
4,74,69,4
4,60,67,0
4,63,68,0
4,67,68,4
4,62,70,0
4,68,64,0
4,56,70,4
4,55,69,0
4,67,64,0
4,60,65,0
4,48,67,4
4,57,69,0
4,53,65,4
4,55,65,4
4,50,68,0
4,59,69,0
4,62,65,0
4,64,70,0
4,52,70,0
4,60,65,0
4,55,65,4
4,55,68,0
4,59,65,0
4,62,70,0
4,67,71,4
4,60,66,4
4,69,67,0
4,65,66,0
4,57,68,0
4,71,65,0
4,59,69,4
4,67,68,0
4,62,68,4
4,69,65,0
4,60,65,0
4,65,66,0
4,72,64,4
4,67,65,0
4,71,70,0
4,62,69,4
4,74,67,0
4,63,66,1528
4,67,69,0
4,74,70,0
4,70,66,4
4,69,67,0
4,72,69,0
4,65,69,0
4,60,65,0
4,67,68,0
4,70,68,4
4,74,65,0
4,63,64,4
4,72,69,0
4,60,64,0
4,69,70,0
4,65,64,0
4,67,68,0
4,71,69,0
4,62,70,0
4,74,67,0
4,69,65,0
4,72,64,0
4,60,70,0
4,65,70,0
4,67,66,0
4,62,68,4
4,71,68,0
4,74,67,0
4,72,67,1528
4,60,67,0
4,65,70,0
4,69,70,0
4,71,69,4
4,62,65,0
4,74,64,0
4,67,69,4
4,63,69,0
4,67,69,0
4,70,70,0
4,74,69,0
4,65,66,0
4,69,64,4
4,72,70,0
4,60,64,4
4,63,65,0
4,67,67,0
4,70,70,0
4,74,69,0
4,65,65,0
4,72,69,0
4,60,64,0
4,69,65,4
4,63,68,0
4,60,67,0
4,56,69,4
4,62,65,12
4,63,64,1528
4,62,69,4
4,62,70,4
4,60,65,0
4,67,70,0
4,63,70,0
4,56,66,4
4,58,69,0
4,56,69,4
4,60,64,4
4,58,67,0
4,65,64,0
4,62,64,4
4,55,64,4
4,70,67,0
4,58,66,4
4,62,65,0
4,65,70,0
4,60,70,0
4,56,66,4
4,63,66,0
4,68,64,0
4,55,69,0
4,58,66,0
4,67,65,0
4,62,65,0
4,65,66,4
4,60,68,0
4,63,67,0
4,56,66,0
4,67,64,0
4,58,69,4
4,56,66,4
4,60,68,0
4,55,64,0
4,62,69,0
4,58,68,0
4,65,65,0
4,65,66,0
4,70,68,0
4,58,69,8
4,62,67,0
4,63,65,0
4,67,66,0
4,62,68,4
4,60,69,0
4,68,70,0
4,56,66,0
4,65,66,0
4,55,68,4
4,58,64,0
4,62,67,0
4,63,68,0
4,56,66,4
4,60,65,0
4,67,65,4
4,58,65,4
4,60,67,0
4,56,67,4
4,58,66,0
4,56,66,4
4,63,65,0
4,60,70,4
4,67,69,0
4,58,68,0
4,56,69,0
4,60,65,4
4,58,65,0
4,56,64,0
4,60,70,0
4,63,66,0
4,67,67,0
4,58,68,4
4,56,68,4
4,60,65,4
4,58,68,1528
5,79,88,5656
5,84,92,20
5,86,90,12
5,87,81,28
5,86,84,8
5,79,93,20
5,77,89,220
5,80,82,232
5,82,85,8
5,84,90,16
5,86,87,16
5,87,84,16
5,79,91,81440
5,77,87,4
5,79,86,212
5,84,89,20
5,87,85,16
5,86,86,12
5,79,87,32
5,84,84,36
5,82,83,20
5,84,86,16
5,86,84,20
5,87,81,20
6,103,72,2584
6,79,70,180
6,77,75,32
6,80,70,8
6,79,75,16
6,99,70,780
6,103,71,75448
6,91,66,1332
6,96,71,20
6,94,65,20
6,99,75,20
6,79,73,6328
6,79,73,8
6,77,71,12
6,82,68,8
6,79,68,16
6,80,64,20
6,77,54,0
6,87,89,20
6,91,69,28
6,84,80,4
6,82,73,12
6,84,78,20
6,91,82,12
6,82,73,4
6,84,82,16
6,82,72,20
6,84,81,4
6,87,88,8
6,84,78,16
6,82,77,12
7,63,96,2304
7,63,93,132
7,63,95,28
7,63,94,156
7,63,96,128
7,63,91,148
7,63,98,48
7,63,100,40
7,63,91,48
7,63,96,140
7,62,93,52
7,62,96,136
7,62,94,56
7,62,93,136
7,62,99,128
7,62,93,148
7,62,98,56
7,62,96,48
7,62,97,36
7,62,94,148
7,63,97,184
7,63,92,148
7,63,96,48
7,63,91,144
7,63,98,132
7,63,95,144
7,63,91,48
7,63,94,56
7,63,99,40
7,63,96,152
7,62,94,192
7,62,96,116
7,62,93,48
7,62,97,124
7,62,95,144
7,62,96,124
7,62,96,52
7,62,88,52
7,62,94,52
7,62,98,128
7,62,94,64
7,62,92,144
7,62,95,32
7,62,95,152
7,62,99,120
7,62,93,140
7,62,97,44
7,62,97,40
7,62,98,28
7,62,100,140
7,62,94,28
7,62,94,140
7,62,94,52
7,62,96,140
7,62,98,132
7,62,95,140
7,62,92,44
7,62,94,48
7,62,91,20
7,62,99,136
7,62,87,44
7,62,87,148
7,62,96,36
7,62,95,144
7,62,97,120
7,62,95,132
7,62,96,44
7,62,97,40
7,62,93,36
7,62,93,144
7,62,98,40
7,62,92,128
7,62,92,44
7,62,100,144
7,62,101,116
7,62,92,152
7,62,89,44
7,62,94,52
7,62,94,36
7,63,94,136
7,65,93,28
7,67,92,32
7,67,86,36
7,67,89,48
7,67,90,40
7,67,90,132
7,67,96,132
7,67,89,136
7,65,91,44
7,63,95,144
7,63,95,152
7,65,94,48
7,67,90,52
7,67,92,32
7,67,91,44
7,67,93,48
7,67,97,144
7,67,94,128
7,67,92,140
7,65,97,52
7,63,94,136
7,63,97,132
7,65,95,32
7,67,93,52
7,67,89,24
7,67,90,40
7,67,96,52
7,67,93,132
7,67,93,136
7,67,91,140
7,65,93,56
7,63,96,128
7,63,98,152
7,65,95,48
7,67,90,40
7,67,91,28
7,67,91,28
7,67,90,48
7,67,94,124
7,67,94,140
7,67,93,132
7,65,93,40
7,63,93,140
7,63,98,148
7,65,94,40
7,67,96,44
7,67,93,48
7,67,90,44
7,67,96,56
7,67,96,132
7,67,93,136
7,67,94,148
7,65,92,52
7,63,93,140
