track,note,velocity,time
1,36,96,0
1,36,96,372
1,36,96,12
1,67,96,192
1,67,96,288
1,67,96,0
1,36,96,192
1,36,96,288
1,36,96,12
1,36,96,180
1,36,96,288
1,36,96,0
1,36,96,192
1,36,96,288
1,36,96,12
1,36,96,180
1,36,96,288
1,36,96,0
1,36,96,192
1,36,96,288
1,36,96,0
1,36,96,192
1,36,96,288
1,36,96,12
1,36,96,180
1,36,96,288
1,36,96,0
1,36,96,192
1,36,96,288
1,36,96,0
1,36,96,192
1,36,96,288
1,36,96,0
1,36,96,192
1,36,96,288
1,36,96,0
1,36,96,192
1,36,96,288
1,36,96,0
1,36,96,192
1,36,96,288
1,36,96,192
1,36,96,384
1,36,96,0
1,36,96,192
1,36,96,288
1,36,96,0
1,36,96,96
1,36,96,384
1,36,96,0
1,36,96,192
1,36,96,288
1,36,96,192
1,36,96,384
1,36,96,0
1,36,96,192
1,36,96,288
1,36,96,0
1,36,96,96
1,36,96,384
1,36,96,0
1,36,96,192
1,36,96,288
1,36,96,192
1,36,96,384
1,36,96,0
1,36,96,192
1,36,96,288
1,36,96,0
1,36,96,96
1,36,96,384
1,36,96,0
1,36,96,192
1,36,96,288
1,36,96,192
1,36,96,384
1,36,96,0
1,36,96,192
1,36,96,288
1,36,96,0
1,36,96,96
1,36,96,384
1,36,96,0
1,36,96,192
1,36,96,288
1,36,96,192
1,36,96,384
1,36,96,0
1,36,96,96
1,36,96,384
1,36,96,0
1,36,96,96
1,36,96,384
1,36,96,192
1,36,96,96
1,36,96,192
1,36,96,192
1,36,96,384
1,36,96,0
1,36,96,96
1,36,96,384
1,36,96,0
1,36,96,96
1,36,96,0
1,36,96,288
1,36,96,192
1,36,96,96
1,36,96,192
1,36,96,192
1,36,96,384
1,36,96,0
1,36,96,96
1,36,96,384
1,36,96,0
1,36,96,96
1,36,96,0
1,36,96,576
1,36,96,384
1,36,96,0
1,36,96,192
1,36,96,288
1,36,96,0
1,36,96,96
1,36,96,384
1,36,96,0
1,36,96,192
1,36,96,288
1,36,96,192
1,36,96,384
1,36,96,0
1,36,96,192
1,36,96,288
1,36,96,0
1,36,96,96
1,36,96,384
1,36,96,0
1,36,96,192
1,36,96,288
1,36,96,192
1,36,96,384
1,36,96,0
1,36,96,192
1,36,96,288
1,36,96,0
1,36,96,96
1,36,96,384
1,36,96,0
1,36,96,192
1,36,96,288
1,36,96,192
1,36,96,384
1,36,96,0
1,36,96,96
1,36,96,384
1,36,96,0
1,36,96,96
1,36,96,384
1,36,96,192
1,36,96,96
1,36,96,192
1,36,96,192
1,36,96,384
1,36,96,0
1,36,96,96
1,36,96,384
1,36,96,0
1,36,96,96
1,36,96,0
1,36,96,288
1,36,96,192
1,36,96,96
1,36,96,192
1,36,96,192
1,36,96,384
1,36,96,0
1,36,96,96
1,36,96,384
1,36,96,0
1,36,96,96
1,36,96,0
1,36,96,288
1,36,96,288
1,36,96,288
1,36,96,288
1,36,96,288
1,36,96,288
1,36,96,288
1,36,96,288
1,36,96,288
1,36,96,288
1,36,96,288
1,36,96,288
1,36,96,288
1,36,96,288
1,36,96,288
1,36,96,288
1,36,96,288
1,36,96,288
1,36,96,288
1,36,96,288
1,36,96,288
1,36,96,576
1,36,96,384
1,36,96,192
1,36,96,384
1,36,96,288
1,36,96,288
1,36,96,288
1,36,96,288
1,36,96,288
1,36,96,288
1,36,96,288
1,36,96,288
1,36,96,288
1,36,96,288
1,36,96,288
1,36,96,288
1,36,96,288
1,36,96,288
1,36,96,576
1,36,96,384
1,36,96,0
1,36,96,192
1,36,96,288
1,36,96,0
1,36,96,96
1,36,96,384
1,36,96,0
1,36,96,192
1,36,96,288
1,36,96,192
1,36,96,384
1,36,96,0
1,36,96,192
1,36,96,288
1,36,96,0
1,36,96,96
1,36,96,384
1,36,96,0
1,36,96,192
1,36,96,288
1,36,96,192
1,36,96,384
1,36,96,0
1,36,96,192
1,36,96,288
1,36,96,0
1,36,96,96
1,36,96,384
1,36,96,0
1,36,96,192
1,36,96,288
1,36,96,192
1,36,96,384
1,36,96,0
1,36,96,96
1,36,96,384
1,36,96,0
1,36,96,96
1,36,96,384
1,36,96,192
1,36,96,96
1,36,96,192
1,36,96,192
1,36,96,384
1,36,96,0
1,36,96,96
1,36,96,384
1,36,96,0
1,36,96,96
1,36,96,0
1,36,96,288
1,36,96,192
1,36,96,96
1,36,96,192
1,36,96,192
1,36,96,384
1,36,96,0
1,36,96,96
1,36,96,384
1,36,96,0
1,36,96,96
1,36,96,0
1,36,96,576
1,36,96,384
1,36,96,0
1,36,96,288
1,36,96,192
1,36,96,288
1,36,96,288
1,36,96,0
1,36,96,288
1,36,96,192
1,36,96,288
1,36,96,288
1,36,96,0
1,36,96,288
1,36,96,192
1,36,96,288
1,36,96,288
1,36,96,0
1,36,96,288
1,36,96,192
1,36,96,288
1,36,96,288
1,36,96,0
1,36,96,288
1,36,96,192
1,36,96,288
1,36,96,288
1,36,96,0
1,36,96,288
1,36,96,192
1,36,96,288
1,36,96,288
1,36,96,0
1,36,96,288
1,36,96,192
1,36,96,288
1,36,96,288
1,36,96,0
1,36,96,288
1,36,96,192
1,36,96,288
1,36,96,288
1,36,96,0
1,36,96,288
1,36,96,192
1,36,96,288
1,36,96,288
1,36,96,0
1,36,96,288
1,36,96,192
1,36,96,288
1,36,96,288
1,36,96,0
1,36,96,288
1,36,96,192
1,36,96,288
1,36,96,288
1,36,96,0
1,36,96,288
1,36,96,192
1,36,96,288
1,36,96,288
1,36,96,0
1,36,96,288
1,36,96,192
1,36,96,288
1,36,96,288
1,36,96,0
1,36,96,288
1,36,96,192
1,36,96,288
1,36,96,288
1,36,96,0
1,36,96,288
1,36,96,192
1,36,96,288
1,36,96,288
1,36,96,0
1,36,96,288
1,36,96,192
1,36,96,288
1,36,96,288
1,36,96,0
1,36,96,288
1,36,96,192
1,36,96,288
1,36,96,288
1,36,96,0
1,36,96,288
1,36,96,192
1,36,96,288
1,36,96,288
1,36,96,0
1,36,96,288
1,36,96,192
1,36,96,288
1,36,96,672
1,36,96,288
1,36,96,288
1,36,96,288
1,36,96,0
1,36,96,288
1,36,96,192
1,36,96,288
1,36,96,288
1,36,96,0
1,36,96,288
1,36,96,192
1,36,96,288
1,36,96,288
1,36,96,0
1,36,96,288
1,36,96,192
1,36,96,288
1,36,96,288
1,36,96,0
1,36,96,288
1,36,96,192
1,36,96,288
1,36,96,288
1,36,96,0
1,36,96,288
1,36,96,192
1,36,96,288
1,36,96,288
1,36,96,0
1,36,96,288
1,36,96,192
1,36,96,288
1,36,96,288
1,36,96,0
1,36,96,288
1,36,96,192
1,36,96,288
1,36,96,288
1,36,96,0
1,36,96,288
1,36,96,192
1,36,96,288
1,36,96,288
1,36,96,0
1,36,96,288
1,36,96,192
1,36,96,288
1,36,96,288
1,36,96,0
1,36,96,288
1,36,96,192
1,36,96,288
1,36,96,288
1,36,96,0
1,36,96,288
1,36,96,192
1,36,96,288
1,36,96,288
1,36,96,288
1,36,96,0
1,36,96,192
1,36,96,288
1,36,96,288
1,36,96,0
1,36,96,288
1,36,96,192
1,36,96,288
1,36,96,288
1,36,96,288
1,36,96,0
1,36,96,192
1,36,96,288
1,36,96,288
1,36,96,0
1,36,96,288
1,36,96,192
1,36,96,288
1,36,96,288
1,36,96,192
1,36,96,0
1,36,64,288
1,36,96,288
1,36,96,288
1,36,96,0
1,36,96,288
1,36,96,192
1,36,96,288
1,36,96,288
1,37,48,0
1,36,96,96
1,36,96,0
1,36,96,288
1,36,96,288
1,36,96,288
1,36,96,0
1,36,96,288
1,36,96,192
1,36,96,288
1,36,96,288
1,37,48,0
1,36,96,96
1,36,96,0
1,36,96,288
1,36,96,288
1,36,96,288
1,36,96,0
1,36,96,288
1,36,96,192
1,36,96,288
1,36,96,288
1,37,48,0
1,36,96,96
1,36,96,0
1,36,96,288
1,36,96,288
1,36,96,288
1,36,96,0
1,36,96,288
1,36,96,192
1,36,93,288
1,36,87,288
1,37,86,0
1,36,82,96
1,36,81,0
1,36,75,288
1,36,69,288
1,36,63,288
1,36,62,0
1,36,56,288
1,36,51,192
1,36,45,288
1,36,39,288
1,37,38,0
1,36,34,96
1,36,33,0
1,36,27,288
1,36,21,288
1,36,15,288
1,36,14,0
1,36,8,288
1,36,3,192
2,38,96,288
2,38,96,288
2,38,96,288
2,38,96,288
2,38,96,288
2,38,96,288
2,38,96,288
2,38,96,276
2,38,96,300
2,38,96,288
2,38,96,288
2,38,96,288
2,38,96,288
2,38,96,276
2,38,96,300
2,38,96,288
2,38,96,288
2,38,96,276
2,38,96,300
2,38,96,288
2,38,96,288
2,38,96,276
2,38,96,300
2,38,96,276
2,38,96,300
2,38,96,288
2,38,96,288
2,38,96,288
2,38,96,288
2,38,96,276
2,38,96,300
2,38,96,276
2,38,96,300
2,38,96,288
2,38,96,288
2,38,96,288
2,38,96,288
2,38,96,276
2,38,96,300
2,38,96,288
2,38,96,288
2,38,96,288
2,38,96,288
2,38,96,276
2,38,96,300
2,38,96,276
2,38,96,300
2,38,96,288
2,38,96,288
2,38,96,288
2,38,96,288
2,38,96,288
2,38,96,288
2,38,96,276
2,38,96,300
2,38,96,288
2,38,96,288
2,38,96,276
2,38,96,300
2,38,96,276
2,38,96,300
2,38,96,288
2,38,96,288
2,38,96,288
2,38,96,288
2,38,96,672
2,38,96,288
2,38,96,288
2,38,96,288
2,38,96,288
2,38,96,276
2,38,96,300
2,38,96,276
2,38,96,300
2,38,96,276
2,38,96,300
2,38,96,288
2,38,96,288
2,38,96,276
2,38,96,300
2,38,96,672
2,38,96,276
2,38,96,300
2,38,96,276
2,38,96,300
2,38,96,288
2,38,96,288
2,38,96,288
2,38,96,288
2,38,96,276
2,38,96,300
2,38,96,276
2,38,96,300
2,37,96,288
2,38,96,288
2,38,96,288
2,38,96,288
2,38,96,288
2,38,96,288
2,38,96,288
2,38,96,288
2,38,96,288
2,38,96,288
2,38,96,288
2,38,96,288
2,38,96,276
2,38,96,300
2,38,96,276
2,38,96,300
2,38,96,672
2,38,96,288
2,38,96,288
2,38,96,276
2,38,96,300
2,39,96,276
2,38,96,300
2,38,96,288
2,38,96,288
2,38,96,276
2,38,96,300
2,38,96,288
2,38,96,288
2,38,96,276
2,38,96,300
2,38,96,288
2,38,48,0
2,38,72,0
2,38,96,192
2,38,96,288
2,38,96,288
2,38,96,276
2,38,96,300
2,38,96,276
2,38,96,300
2,38,96,288
2,38,96,288
2,38,96,276
2,38,96,300
2,38,96,288
2,38,96,288
2,38,96,288
2,38,96,288
2,38,96,288
2,38,96,288
2,38,96,288
2,38,96,288
2,38,96,276
2,38,72,12
2,38,96,0
2,38,96,96
2,38,96,288
2,38,96,288
2,38,96,276
2,38,96,300
2,38,96,288
2,38,96,288
2,38,96,276
2,38,96,300
2,38,96,276
2,38,96,300
2,38,96,276
2,38,72,12
2,38,48,0
2,38,96,192
2,38,96,276
2,38,96,300
2,38,96,276
2,38,96,300
2,38,96,288
2,38,96,1056
2,38,96,276
2,38,96,300
2,38,96,276
2,38,96,300
2,38,96,276
2,38,96,300
2,38,96,276
2,38,96,300
2,38,96,288
2,38,96,288
2,38,96,276
2,38,96,300
2,38,96,288
2,38,96,288
2,38,96,276
2,38,96,300
2,37,96,288
2,38,96,288
2,38,96,276
2,38,96,300
2,38,96,276
2,38,96,300
2,38,96,276
2,38,96,300
2,38,96,276
2,38,96,300
2,38,96,276
2,38,96,300
2,38,96,672
2,38,96,288
2,38,96,288
2,38,96,276
2,38,96,300
2,38,96,276
2,38,96,300
2,38,96,276
2,38,96,300
2,38,96,288
2,38,96,288
2,38,96,276
2,38,96,300
2,38,96,276
2,38,96,300
2,38,96,672
2,38,96,276
2,38,96,300
2,38,96,276
2,38,96,300
2,38,96,276
2,38,96,300
2,38,96,276
2,38,96,300
2,38,96,276
2,38,96,300
2,38,96,276
2,38,96,300
2,38,96,276
2,38,96,300
2,38,96,276
2,38,96,300
2,38,96,276
2,38,96,300
2,38,96,288
2,38,96,288
2,38,96,276
2,38,96,300
2,38,96,276
2,38,96,300
2,38,96,288
2,38,96,288
2,38,96,288
2,38,96,288
2,38,96,276
2,38,96,300
2,38,96,288
2,38,96,288
2,38,96,276
2,38,96,300
2,38,96,276
2,38,96,300
2,38,96,288
2,38,96,288
2,38,96,276
2,38,96,300
2,38,96,288
2,38,96,288
2,38,96,276
2,38,96,300
2,38,96,276
2,38,96,300
2,38,96,276
2,38,96,300
2,38,96,276
2,38,96,300
2,38,96,276
2,38,96,300
2,38,96,276
2,38,96,300
2,38,96,276
2,38,96,300
2,38,96,276
2,38,96,300
2,38,96,192
2,38,96,0
2,38,96,0
2,38,96,192
2,38,96,288
2,38,96,288
2,38,96,276
2,38,96,300
2,38,96,276
2,38,96,300
2,38,96,276
2,38,96,300
2,38,96,276
2,38,96,300
2,38,96,276
2,38,96,300
2,38,96,276
2,38,96,300
2,38,96,276
2,38,96,300
2,38,60,96
2,38,72,0
2,38,72,0
2,38,72,0
2,38,96,0
2,38,96,0
2,38,96,192
2,38,96,276
2,38,96,300
2,38,96,276
2,38,96,300
2,38,96,276
2,38,96,300
2,38,96,276
2,38,96,300
2,38,96,288
2,38,96,288
2,38,96,276
2,38,96,300
2,38,96,276
2,38,96,300
2,38,96,276
2,38,96,300
2,38,96,276
2,38,96,300
2,38,96,288
2,38,96,288
2,38,96,276
2,38,96,300
2,38,96,276
2,38,96,300
2,38,96,276
2,38,96,300
2,38,96,276
2,38,96,300
2,38,96,276
2,38,96,300
2,38,96,276
2,38,96,300
2,38,96,276
2,38,96,300
2,38,96,288
2,38,96,288
2,38,96,288
2,38,96,288
2,38,96,276
2,38,96,12
2,38,96,0
2,38,96,96
2,38,96,276
2,38,96,300
2,38,96,288
2,38,96,288
2,38,96,276
2,38,96,300
2,38,96,192
2,38,96,0
2,38,96,288
2,38,96,288
2,38,96,288
2,38,96,276
2,38,96,300
2,38,96,276
2,38,96,300
2,38,96,192
2,38,96,0
2,38,96,288
2,38,96,276
2,38,96,300
2,38,96,276
2,38,96,300
2,38,96,276
2,38,96,300
2,38,96,192
2,38,96,0
2,38,96,288
2,38,96,276
2,38,96,300
2,38,96,276
2,38,96,300
2,38,96,276
2,38,96,300
2,38,96,276
2,38,96,300
2,38,96,276
2,38,96,300
2,38,96,276
2,38,96,300
2,38,96,276
2,38,96,300
2,38,96,276
2,37,96,300
2,38,96,288
2,38,96,288
2,38,96,276
2,38,96,300
2,38,96,276
2,38,96,300
2,38,96,276
2,38,96,300
2,38,96,276
2,38,96,300
2,38,96,276
2,38,96,300
2,38,96,276
2,38,90,300
2,38,84,276
2,38,78,300
2,38,72,276
2,38,66,300
2,38,60,276
2,38,54,300
2,38,48,276
2,38,42,300
2,38,36,276
2,38,30,300
2,38,24,276
2,38,18,300
2,38,12,288
2,38,6,288
3,51,14,48
3,51,14,0
3,51,14,96
3,52,14,288
3,52,14,12
3,52,14,0
3,52,14,0
3,52,14,12
3,52,14,12
3,52,14,12
3,52,14,0
3,52,14,71
3,52,14,0
3,52,14,12
3,52,14,12
3,52,14,0
3,52,14,0
3,52,14,0
3,52,14,95
3,52,14,0
3,52,14,0
3,52,14,0
3,52,14,0
3,52,14,0
3,52,14,0
3,52,14,95
3,52,14,0
3,52,14,0
3,52,14,0
3,52,14,0
3,52,14,0
3,52,14,0
3,52,14,0
3,52,14,95
3,52,14,0
3,52,14,0
3,52,14,0
3,52,14,0
3,52,14,0
3,52,14,0
3,51,14,191
3,51,14,0
3,52,14,0
3,52,14,288
3,52,14,0
3,52,14,0
3,51,14,96
3,52,14,288
3,52,14,0
3,52,14,0
3,51,14,96
3,51,14,96
3,51,14,96
3,51,14,96
3,52,14,96
3,52,14,0
3,52,14,96
3,52,14,95
3,52,14,0
3,51,14,96
3,52,14,288
3,52,14,0
3,52,14,0
3,52,14,96
3,52,14,0
3,52,14,96
3,52,14,95
