track,note,velocity,time
1,67,100,420
1,67,0,120
1,64,100,0
1,64,0,60
1,64,100,60
1,64,0,60
1,67,100,0
1,67,0,60
1,64,100,0
1,64,0,60
1,61,100,60
1,61,0,60
1,62,100,0
1,62,0,60
1,64,100,0
1,64,0,60
1,64,100,60
1,64,0,60
1,67,100,0
1,67,0,60
1,64,100,0
1,64,0,60
1,67,100,60
1,67,0,120
1,64,100,0
1,64,0,60
1,64,100,60
1,64,0,60
1,67,100,0
1,67,0,60
1,64,100,0
1,64,0,60
1,61,100,60
1,61,0,60
1,62,100,0
1,62,0,60
1,64,100,0
1,64,0,60
1,64,100,60
1,64,0,60
1,67,100,0
1,67,0,60
1,64,100,0
1,64,0,60
1,67,100,60
1,67,0,120
1,64,100,0
1,64,0,60
1,64,100,60
1,64,0,60
1,67,100,0
1,67,0,60
1,64,100,0
1,64,0,60
1,61,100,60
1,61,0,60
1,62,100,0
1,62,0,60
1,64,100,0
1,64,0,60
1,64,100,60
1,64,0,60
1,67,100,0
1,67,0,60
1,64,100,0
1,64,0,60
1,67,100,60
1,67,0,120
1,64,100,0
1,64,0,60
1,64,100,60
1,64,0,60
1,67,100,0
1,67,0,60
1,64,100,0
1,64,0,60
1,61,100,60
1,61,0,60
1,62,100,0
1,62,0,60
1,64,100,0
1,64,0,60
1,64,100,60
1,64,0,60
1,67,100,0
1,67,0,60
1,64,100,0
1,64,0,60
1,64,100,60
1,64,0,120
1,62,100,0
1,62,0,60
1,66,100,60
1,66,0,60
1,64,100,0
1,64,0,60
1,62,100,0
1,62,0,60
1,66,100,60
1,66,0,60
1,64,100,0
1,64,0,60
1,62,100,0
1,62,0,60
1,66,100,60
1,66,0,60
1,64,100,0
1,64,0,60
1,62,100,0
1,62,0,60
1,64,100,60
1,64,0,120
1,62,100,0
1,62,0,60
1,66,100,60
1,66,0,60
1,64,100,0
1,64,0,60
1,62,100,0
1,62,0,60
1,62,100,60
1,62,0,60
1,64,100,0
1,64,0,60
1,66,100,0
1,66,0,60
1,66,100,60
1,66,0,60
1,67,100,0
1,67,0,60
1,66,100,0
1,66,0,60
1,64,100,60
1,64,0,120
1,62,100,0
1,62,0,60
1,66,100,60
1,66,0,60
1,64,100,0
1,64,0,60
1,62,100,0
1,62,0,60
1,66,100,60
1,66,0,60
1,64,100,0
1,64,0,60
1,62,100,0
1,62,0,60
1,66,100,60
1,66,0,60
1,64,100,0
1,64,0,60
1,62,100,0
1,62,0,60
1,64,100,60
1,64,0,120
1,62,100,0
1,62,0,60
1,66,100,60
1,66,0,60
1,64,100,0
1,64,0,60
1,62,100,0
1,62,0,60
1,62,100,60
1,62,0,60
1,64,100,0
1,64,0,60
1,66,100,0
1,66,0,60
1,66,100,60
1,66,0,60
1,67,100,0
1,67,0,60
1,66,100,0
1,66,0,60
1,67,100,60
1,67,0,120
1,64,100,0
1,64,0,60
1,64,100,60
1,64,0,60
1,67,100,0
1,67,0,60
1,64,100,0
1,64,0,60
1,64,100,60
1,64,0,60
1,62,100,0
1,62,0,60
1,64,100,0
1,64,0,60
1,64,100,60
1,64,0,60
1,67,100,0
1,67,0,60
1,64,100,0
1,64,0,60
1,67,100,60
1,67,0,120
1,64,100,0
1,64,0,60
1,64,100,60
1,64,0,60
1,67,100,0
1,67,0,60
1,64,100,0
1,64,0,60
1,61,100,60
1,61,0,60
1,62,100,0
1,62,0,60
1,64,100,0
1,64,0,60
1,64,100,60
1,64,0,60
1,67,100,0
1,67,0,60
1,64,100,0
1,64,0,60
1,67,100,60
1,67,0,120
1,62,100,0
1,62,0,60
1,66,100,60
1,66,0,60
1,64,100,0
1,64,0,60
1,62,100,0
1,62,0,60
1,66,100,60
1,66,0,60
1,64,100,0
1,64,0,60
1,62,100,0
1,62,0,60
1,66,100,60
1,66,0,60
1,64,100,0
1,64,0,60
1,62,100,0
1,62,0,60
1,64,100,60
1,64,0,120
1,62,100,0
1,62,0,60
1,66,100,60
1,66,0,60
1,64,100,0
1,64,0,60
1,62,100,0
1,62,0,60
1,64,100,60
1,64,0,60
1,64,100,0
1,64,0,60
1,66,100,0
1,66,0,60
1,66,100,60
1,66,0,60
1,67,100,0
1,67,0,60
1,66,100,0
1,66,0,60
1,59,100,60
1,62,100,0
1,62,0,60
1,59,0,0
1,64,100,0
1,61,100,0
1,64,0,60
1,62,100,4
1,62,0,60
1,61,100,56
1,61,0,60
1,64,100,0
1,64,0,60
1,62,100,0
1,62,0,60
1,62,100,60
1,62,0,60
1,61,0,0
1,64,100,0
1,64,0,60
1,62,100,0
1,62,0,60
1,62,100,60
1,62,0,60
1,64,100,0
1,64,0,60
1,62,100,0
1,62,0,60
1,62,100,60
1,62,0,60
1,57,100,0
1,64,100,0
1,64,0,60
1,62,100,0
1,62,0,60
1,62,100,60
1,62,0,60
1,64,100,0
1,64,0,60
1,62,100,0
1,62,0,60
1,62,100,60
1,62,0,60
1,64,100,0
1,64,0,60
1,62,100,0
1,62,0,60
1,62,100,60
1,62,0,60
1,64,100,0
1,64,0,60
1,62,100,0
1,62,0,60
1,62,100,60
1,62,0,60
1,57,0,0
1,64,100,0
1,64,0,60
1,62,100,0
1,62,0,60
1,62,100,60
1,62,0,60
1,64,100,0
1,64,0,60
1,62,100,0
1,62,0,60
1,62,100,60
1,62,0,60
1,64,100,0
1,64,0,60
1,62,100,0
1,62,0,60
1,62,100,60
1,62,0,60
1,64,100,0
1,64,0,60
1,62,100,0
1,62,0,60
1,62,100,60
1,62,0,60
1,54,100,0
1,64,100,0
1,64,0,60
1,62,100,0
1,62,0,60
1,62,100,60
1,62,0,60
1,64,100,0
1,64,0,60
1,62,100,0
1,62,0,60
1,62,100,60
1,62,0,60
1,64,100,0
1,64,0,60
1,62,100,0
1,62,0,60
1,62,100,60
1,62,0,60
1,64,100,0
1,64,0,60
1,62,100,0
1,62,0,60
1,62,100,60
1,62,0,60
1,54,0,0
1,64,100,0
1,52,100,0
1,64,0,60
1,62,100,0
1,62,0,60
1,62,100,60
1,62,0,60
1,64,100,0
1,64,0,60
1,62,100,0
1,62,0,60
1,62,100,60
1,62,0,60
1,64,100,0
1,64,0,60
1,62,100,0
1,62,0,60
1,62,100,60
1,62,0,60
1,64,100,0
1,64,0,60
1,62,100,0
1,62,0,60
1,62,100,60
1,62,0,60
1,52,0,0
1,64,100,0
1,64,0,60
1,62,100,0
1,62,0,60
1,62,100,60
1,62,0,60
1,64,100,0
1,64,0,60
1,62,100,0
1,62,0,60
1,62,100,60
1,62,0,60
1,64,100,0
1,64,0,60
1,62,100,0
1,62,0,60
1,62,100,60
1,62,0,60
1,64,100,0
1,64,0,60
1,62,100,0
1,62,0,60
1,62,100,60
1,62,0,60
1,64,100,0
1,64,0,60
1,62,100,0
1,62,0,60
1,62,100,60
1,62,0,60
1,64,100,0
1,64,0,60
1,62,100,0
1,62,0,60
1,62,100,60
1,62,0,60
1,64,100,0
1,64,0,60
1,62,100,0
1,62,0,60
1,62,100,60
1,62,0,60
1,64,100,0
1,64,0,60
1,62,100,0
1,62,0,60
1,62,100,60
1,62,0,60
1,64,100,0
1,64,0,60
1,62,100,0
1,62,0,60
1,62,100,60
1,62,0,60
1,64,100,0
1,64,0,60
1,62,100,0
1,62,0,60
1,62,100,60
1,62,0,60
1,64,100,0
1,64,0,60
1,62,100,0
1,62,0,60
1,62,100,60
1,62,0,60
1,64,100,0
1,64,0,60
1,62,100,0
1,62,0,60
1,62,100,60
1,62,0,60
1,64,100,0
1,64,0,60
1,62,100,0
1,62,0,60
1,62,100,60
1,62,0,60
1,64,100,0
1,64,0,60
1,62,100,0
1,62,0,60
1,62,100,60
1,62,0,60
1,64,100,0
1,64,0,60
1,62,100,0
1,62,0,60
1,62,100,60
1,62,0,60
1,64,100,0
1,64,0,60
1,62,100,0
1,62,0,60
1,77,100,120
1,69,100,0
1,74,100,0
1,74,0,240
1,69,0,0
1,77,0,0
1,67,100,0
1,73,100,0
1,76,100,0
1,76,0,240
1,73,0,0
1,67,0,0
1,67,100,0
1,71,100,0
1,74,100,0
1,74,0,240
1,71,0,0
1,67,0,0
1,72,100,0
1,65,100,0
1,69,100,0
1,69,0,240
1,65,0,0
1,72,0,0
1,67,100,0
1,71,100,0
1,74,100,0
1,74,0,480
1,71,0,0
1,67,0,0
1,69,100,0
1,73,100,0
1,76,100,0
1,76,0,240
1,73,0,0
1,69,0,0
1,69,100,0
1,81,100,0
1,81,0,120
1,69,0,0
1,77,100,120
1,69,100,0
1,74,100,0
1,74,0,240
1,69,0,0
1,77,0,0
1,72,100,0
1,67,100,0
1,76,100,0
1,76,0,240
1,67,0,0
1,72,0,0
1,71,100,0
1,67,100,0
1,74,100,0
1,74,0,240
1,67,0,0
1,71,0,0
1,71,100,0
1,74,100,0
1,79,100,0
1,79,0,240
1,74,0,0
1,71,0,0
1,72,100,0
1,76,100,0
1,67,100,0
1,67,0,480
1,76,0,0
1,72,0,0
1,81,100,0
1,69,100,0
1,69,0,180
1,81,0,0
1,67,100,0
1,79,100,0
1,79,0,180
1,67,0,0
1,81,100,0
1,69,100,0
1,69,0,120
1,81,0,0
1,77,100,0
1,71,100,0
1,74,100,0
1,74,0,240
1,71,0,0
1,77,0,0
1,67,100,0
1,72,100,0
1,76,100,0
1,76,0,240
1,72,0,0
1,67,0,0
1,67,100,0
1,71,100,0
1,74,100,0
1,74,0,240
1,71,0,0
1,67,0,0
1,72,100,0
1,65,100,0
1,69,100,0
1,69,0,240
1,65,0,0
1,72,0,0
1,67,100,0
1,71,100,0
1,74,100,0
1,74,0,480
1,71,0,0
1,67,0,0
1,72,100,0
1,69,100,0
1,76,100,0
1,76,0,240
1,69,0,0
1,72,0,0
1,69,100,0
1,81,100,0
1,81,0,120
1,69,0,0
1,77,100,120
1,69,100,0
1,74,100,0
1,74,0,240
1,69,0,0
1,77,0,0
1,72,100,0
1,67,100,0
1,76,100,0
1,76,0,240
1,67,0,0
1,72,0,0
1,67,100,0
1,71,100,0
1,74,100,0
1,74,0,240
1,71,0,0
1,67,0,0
1,71,100,0
1,74,100,0
1,79,100,0
1,79,0,240
1,74,0,0
1,71,0,0
1,72,100,0
1,69,100,0
1,76,100,0
1,76,0,480
1,69,0,0
1,72,0,0
1,69,100,0
1,81,100,0
1,81,0,180
1,69,0,0
1,85,100,0
1,73,100,0
1,73,0,180
1,85,0,0
1,74,100,0
1,86,100,0
1,86,0,120
1,74,0,0
1,77,100,0
1,69,100,0
1,74,100,0
1,74,0,240
1,69,0,0
1,77,0,0
1,72,100,0
1,67,100,0
1,76,100,0
1,76,0,240
1,67,0,0
1,72,0,0
1,67,100,0
1,71,100,0
1,74,100,0
1,74,0,240
1,71,0,0
1,67,0,0
1,72,100,0
1,65,100,0
1,69,100,0
1,69,0,240
1,65,0,0
1,72,0,0
1,66,100,0
1,69,100,0
1,69,0,480
1,66,0,0
1,72,100,0
1,69,100,0
1,64,100,420
1,64,0,60
1,69,0,0
1,72,0,0
1,71,100,0
1,69,100,0
1,64,100,0
1,64,0,60
1,62,100,0
1,62,0,60
1,62,100,60
1,62,0,60
1,64,100,0
1,64,0,60
1,62,100,0
1,62,0,60
1,62,100,60
1,62,0,60
1,64,100,0
1,64,0,60
1,62,100,0
1,62,0,60
1,62,100,60
1,62,0,60
1,64,100,0
1,64,0,60
1,62,100,0
1,62,0,60
1,62,100,60
1,62,0,60
1,69,0,0
1,71,0,0
1,69,100,0
1,71,100,0
1,64,100,0
1,64,0,60
1,62,100,0
1,62,0,60
1,62,100,60
1,62,0,60
1,64,100,0
1,64,0,60
1,62,100,0
1,62,0,60
1,62,100,60
1,62,0,60
1,64,100,0
1,64,0,60
1,62,100,0
1,62,0,60
1,62,100,60
1,62,0,60
1,64,100,0
1,64,0,60
1,62,100,0
1,62,0,60
1,62,100,60
1,62,0,60
1,71,0,0
1,69,0,0
1,64,100,0
1,64,0,60
1,62,100,0
1,62,0,60
1,62,100,60
1,62,0,60
1,64,100,0
1,64,0,60
1,62,100,0
1,62,0,60
1,62,100,60
1,62,0,60
1,64,100,0
1,64,0,60
1,62,100,0
1,62,0,60
1,62,100,60
1,62,0,60
1,64,100,0
1,64,0,60
1,62,100,0
1,62,0,60
1,62,100,60
1,62,0,60
1,64,100,0
1,64,0,60
1,62,100,0
1,62,0,60
1,62,100,60
1,62,0,60
1,64,100,0
1,64,0,60
1,62,100,0
1,62,0,60
1,62,100,60
1,62,0,60
1,64,100,0
1,64,0,60
1,62,100,0
1,62,0,60
1,62,100,60
1,62,0,60
1,64,100,0
1,64,0,60
1,62,100,0
1,62,0,60
1,62,100,60
1,62,0,60
1,64,100,0
1,64,0,60
1,62,100,0
1,62,0,60
1,62,100,60
1,62,0,60
1,64,100,0
1,64,0,60
1,62,100,0
1,62,0,60
1,62,100,60
1,62,0,60
1,64,100,0
1,64,0,60
1,62,100,0
1,62,0,60
1,62,100,60
1,62,0,60
1,64,100,0
1,64,0,60
1,62,100,0
1,62,0,60
1,62,100,60
1,62,0,60
1,64,100,0
1,64,0,60
1,62,100,0
1,62,0,60
1,62,100,60
1,62,0,60
1,64,100,0
1,64,0,60
1,62,100,0
1,62,0,60
1,62,100,60
1,62,0,60
1,64,100,0
1,64,0,60
1,62,100,0
1,62,0,60
1,62,100,60
1,62,0,60
1,64,100,0
1,64,0,60
1,62,100,0
1,62,0,60
1,62,100,60
1,62,0,60
1,64,100,0
1,64,0,60
1,62,100,0
1,62,0,60
1,62,100,60
1,62,0,60
1,64,100,0
1,64,0,60
1,62,100,0
1,62,0,60
1,62,100,60
1,62,0,60
1,64,100,0
1,64,0,60
1,62,100,0
1,62,0,60
1,62,100,60
1,62,0,60
1,64,100,0
1,64,0,60
1,62,100,0
1,62,0,60
1,62,100,60
1,62,0,60
1,65,100,0
1,60,100,0
1,57,100,0
1,57,0,240
1,60,0,0
1,65,0,0
1,60,100,0
1,55,100,0
1,64,100,0
1,64,0,240
1,55,0,0
1,60,0,0
1,55,100,0
1,59,100,0
1,62,100,0
1,62,0,240
1,59,0,0
1,55,0,0
1,60,100,0
1,53,100,0
1,57,100,0
1,57,0,240
1,53,0,0
1,60,0,0
1,57,100,0
1,54,100,0
1,62,100,0
1,62,0,240
1,54,0,0
1,57,0,0
1,66,100,0
1,57,100,0
1,62,100,0
1,62,0,240
1,57,0,0
1,66,0,0
1,65,100,0
1,60,100,0
1,69,100,0
1,69,0,480
1,60,0,0
1,65,0,0
1,55,100,0
1,59,100,0
1,67,100,0
1,67,0,960
1,59,0,0
1,55,0,0
1,64,100,0
1,64,0,60
1,62,100,0
1,62,0,60
1,62,100,60
1,62,0,60
1,64,100,0
1,64,0,60
1,62,100,0
1,62,0,60
1,62,100,60
1,62,0,60
1,64,100,0
1,64,0,60
1,62,100,0
1,62,0,60
1,62,100,60
1,62,0,60
1,64,100,0
1,64,0,60
1,62,100,0
1,62,0,60
1,62,100,60
1,62,0,60
1,64,100,0
1,64,0,60
1,62,100,0
1,62,0,60
1,62,100,60
1,62,0,60
1,64,100,0
1,64,0,60
1,62,100,0
1,62,0,60
1,62,100,60
1,62,0,60
1,64,100,0
1,64,0,60
1,62,100,0
1,62,0,60
1,62,100,60
1,62,0,60
1,64,100,0
1,64,0,60
1,62,100,0
1,62,0,60
1,62,100,60
1,62,0,60
1,64,100,0
1,64,0,60
1,62,100,0
1,62,0,60
1,62,100,60
1,62,0,60
1,64,100,0
1,64,0,60
1,62,100,0
1,62,0,60
1,62,100,60
1,62,0,60
1,64,100,0
1,64,0,60
1,62,100,0
1,62,0,60
1,62,100,60
1,62,0,60
1,64,100,0
1,64,0,60
1,62,100,0
1,62,0,60
1,62,100,60
1,62,0,60
1,64,100,0
1,64,0,60
1,62,100,0
1,62,0,60
1,62,100,60
1,62,0,60
1,64,100,0
1,64,0,60
1,62,100,0
1,62,0,60
1,62,100,60
1,62,0,60
1,64,100,0
1,64,0,60
1,62,100,0
1,62,0,60
