track,note,velocity,time
3,59,64,330
3,68,74,0
3,68,0,21
3,64,49,39
3,68,67,0
3,68,0,26
3,64,0,0
3,64,68,34
3,68,65,0
3,59,0,28
3,68,0,16
3,64,0,4
3,59,68,12
3,71,67,0
3,71,0,9
3,64,63,5
3,70,74,0
3,64,0,102
3,66,65,18
3,66,0,59
3,63,58,1
3,59,0,33
3,70,0,3
3,59,69,24
3,63,0,10
3,66,51,50
3,70,58,0
3,70,0,30
3,66,0,1
3,66,59,29
3,70,68,0
3,59,0,35
3,66,0,8
3,70,0,7
3,59,60,2
3,63,67,0
3,63,0,20
3,66,58,40
3,70,60,0
3,66,0,161
3,70,0,3
3,59,0,4
3,59,65,20
3,66,69,0
3,66,0,15
3,64,50,30
3,66,57,0
3,64,0,24
3,66,0,1
3,64,53,35
3,66,72,0
3,59,0,37
3,64,0,7
3,66,0,3
3,59,67,12
3,69,71,0
3,69,0,9
3,64,67,51
3,68,74,0
3,64,0,32
3,64,62,28
3,68,0,6
3,59,0,3
3,59,52,51
3,64,0,1
3,59,0,30
3,59,63,29
3,66,61,0
3,68,61,0
3,66,0,162
3,68,0,7
3,66,58,7
3,66,0,26
3,64,47,4
3,59,0,6
3,64,0,19
3,56,60,19
3,59,48,0
3,66,65,0
3,66,0,35
3,63,57,0
3,59,0,50
3,56,0,6
3,59,57,4
3,59,0,9
3,63,0,0
3,56,53,0
3,59,44,0
3,63,44,0
3,66,53,0
3,63,0,112
3,66,0,6
3,56,0,74
3,59,0,3
3,50,51,27
3,57,48,0
3,59,51,0
3,62,62,0
3,65,58,0
3,65,0,30
3,62,0,3
3,62,68,21
3,65,60,0
3,62,0,30
3,65,0,2
3,62,67,28
3,65,67,0
3,59,0,3
3,57,0,3
3,50,0,9
3,65,0,22
3,62,0,1
3,50,41,11
3,57,41,0
3,59,41,0
3,64,53,0
3,67,59,0
3,67,0,30
3,64,0,3
3,62,58,12
3,65,58,0
3,62,0,22
3,65,0,14
3,62,60,0
3,64,43,60
3,62,0,5
3,50,0,13
3,59,0,26
3,57,0,2
3,50,58,14
3,64,0,20
3,68,60,4
3,68,0,26
3,59,46,4
3,56,47,30
3,64,34,0
3,59,0,1
3,59,37,29
3,64,0,2
3,56,0,13
3,59,0,36
3,50,0,6
3,56,45,3
3,68,42,0
3,68,0,25
3,56,0,5
3,50,55,0
3,56,39,17
3,59,46,0
3,64,39,0
3,50,0,170
3,59,0,11
3,64,0,2
3,56,0,3
3,50,53,2
3,57,45,0
3,59,42,0
3,62,57,0
3,65,60,0
3,65,0,39
3,62,0,1
3,62,53,20
3,65,53,0
3,62,0,25
3,65,0,2
3,62,55,33
3,65,64,0
3,59,0,26
3,57,0,3
3,50,0,2
3,62,0,2
3,65,0,2
3,50,46,13
3,57,43,0
3,59,44,0
3,64,52,0
3,67,60,0
3,67,0,1
3,64,0,4
3,62,65,22
3,65,59,0
3,62,0,11
3,62,46,26
3,65,0,16
3,64,53,41
3,62,0,3
3,59,0,7
3,50,0,22
3,57,0,4
3,55,46,20
3,64,0,34
3,60,51,4
3,55,0,29
3,55,48,31
3,67,51,0
3,60,0,12
3,67,0,16
3,60,45,16
3,66,58,0
3,55,0,6
3,60,0,6
3,50,56,4
3,62,51,0
3,50,0,45
3,45,45,15
3,62,0,23
3,66,0,2
3,45,0,13
3,42,60,7
3,57,41,0
3,62,45,0
3,67,53,0
3,67,0,13
3,67,53,32
3,57,0,5
3,62,0,15
3,67,0,8
3,42,0,15
3,43,62,0
3,62,53,30
3,67,43,30
3,67,0,26
3,71,45,4
3,62,0,27
3,67,45,3
3,71,0,35
3,67,0,18
3,43,0,13
3,62,41,46
3,67,55,4
3,43,45,4
3,71,45,0
3,43,0,150
3,67,0,32
3,71,0,1
3,62,0,3
3,40,64,0
3,52,57,0
3,68,74,0
3,68,0,28
3,64,57,2
3,64,0,10
3,59,70,20
3,68,80,0
3,68,0,26
3,64,53,4
3,64,0,21
3,68,71,9
3,68,0,30
3,64,53,0
3,59,0,1
3,64,0,14
3,59,71,15
3,71,81,0
3,71,0,25
3,64,61,5
3,70,76,30
3,64,0,1
3,59,0,9
3,64,55,20
3,64,0,28
3,59,58,2
3,64,55,30
3,59,0,15
3,64,0,12
3,66,64,3
3,40,0,12
3,52,0,21
3,66,0,21
3,63,63,6
3,70,0,31
3,63,0,19
3,47,54,10
3,51,65,0
3,54,67,0
3,58,58,0
3,66,69,0
3,66,0,21
3,59,50,9
3,59,0,21
3,66,58,9
3,66,0,27
3,70,74,3
3,70,0,27
3,66,57,3
3,66,0,22
3,59,52,8
3,59,0,18
3,66,57,12
3,66,0,30
3,70,69,0
3,70,0,24
3,66,57,6
3,66,0,22
3,59,48,8
3,59,0,15
3,66,62,15
3,66,0,23
3,59,56,7
3,58,0,26
3,54,0,8
3,47,0,1
3,51,0,2
3,59,0,6
3,40,43,13
3,57,64,0
3,66,64,0
3,66,0,5
3,57,0,1
3,47,59,24
3,57,53,0
3,66,69,0
3,66,0,5
3,57,0,1
3,47,0,19
3,52,54,5
3,57,64,0
3,66,64,0
3,52,0,18
3,47,54,12
3,47,0,25
3,52,58,5
3,52,0,11
3,47,52,19
3,47,0,23
3,52,60,7
3,66,0,8
3,57,0,2
3,40,0,14
3,52,0,6
3,69,64,0
3,69,0,11
3,40,60,19
3,68,71,0
3,68,0,15
3,40,0,2
3,47,60,15
3,68,71,0
3,47,0,17
3,68,0,11
3,64,71,2
3,52,67,15
3,56,73,0
3,64,0,29
3,59,67,1
3,56,0,5
3,52,0,8
3,59,0,5
3,52,49,10
3,54,67,0
3,57,61,0
3,68,74,0
3,57,0,5
3,54,0,4
3,52,0,5
3,52,65,11
3,56,65,0
3,59,69,0
3,59,0,76
3,56,0,11
3,52,0,1
3,68,0,6
3,52,65,5
3,54,61,0
3,57,61,0
3,66,84,30
3,57,0,2
3,54,0,0
3,52,0,7
3,52,59,13
3,56,72,0
3,66,0,16
3,64,61,14
3,52,0,1
3,56,0,1
3,64,0,13
3,56,76,2
3,63,71,0
3,66,69,0
3,63,0,53
3,56,0,0
3,59,71,7
3,63,74,30
3,59,0,11
3,56,59,14
3,66,0,23
3,63,0,1
3,59,62,6
3,56,0,6
3,59,0,1
3,59,71,12
3,63,67,0
3,66,67,0
3,63,0,11
3,59,0,4
3,66,0,3
3,56,71,7
3,71,76,0
3,56,0,21
3,63,65,9
3,63,0,8
3,71,0,14
3,59,59,8
3,75,70,0
3,59,0,25
3,63,63,5
3,75,0,18
3,63,0,1
3,56,59,11
3,78,73,0
3,56,0,23
3,63,66,7
3,63,0,20
3,59,62,10
3,75,71,0
3,78,0,8
3,75,0,8
3,59,0,9
3,63,67,5
3,63,0,7
3,50,72,8
3,57,61,0
3,65,69,0
3,65,0,22
3,57,0,5
3,62,70,3
3,62,0,18
3,59,71,12
3,65,49,0
3,65,0,20
3,59,0,1
3,62,56,9
3,62,0,4
3,57,71,16
3,65,67,0
3,57,0,24
3,62,67,6
3,62,0,15
3,59,66,15
3,65,0,18
3,59,0,3
3,62,67,9
3,67,71,0
3,62,0,6
3,57,69,9
3,65,65,0
3,67,0,1
3,57,0,56
3,59,62,3
3,59,0,3
3,65,0,12
3,57,69,5
3,62,61,0
3,57,0,50
3,62,0,10
3,59,65,0
3,64,69,0
3,50,0,1
3,59,0,6
3,50,68,13
3,56,64,0
3,56,0,52
3,59,72,5
3,64,0,13
3,71,80,17
3,59,0,7
3,56,69,14
3,71,0,10
3,68,77,20
3,68,0,5
3,56,0,12
3,59,62,10
3,68,76,0
3,68,0,30
3,66,72,0
3,59,0,1
3,66,0,11
3,56,59,3
3,68,73,0
3,68,0,23
3,64,60,7
3,56,0,21
3,59,71,9
3,64,0,15
3,76,74,15
3,76,0,6
3,59,0,4
3,56,67,20
3,76,78,0
3,76,0,26
3,71,67,4
3,56,0,15
3,71,0,10
3,59,61,5
3,68,65,0
3,50,0,22
3,68,0,1
3,56,71,2
3,71,67,0
3,59,0,1
3,71,0,5
3,56,0,3
3,51,78,9
3,60,67,0
3,69,78,0
3,72,76,0
3,60,0,18
3,69,0,8
3,57,53,4
3,66,53,0
3,66,0,15
3,57,0,7
3,60,67,0
3,69,63,0
3,60,0,22
3,69,0,3
3,57,59,5
3,66,61,0
3,66,0,25
3,57,0,1
3,60,70,4
3,69,69,0
3,60,0,18
3,57,65,12
3,66,72,0
3,69,0,1
3,72,0,7
3,66,0,7
3,57,0,8
3,60,75,7
3,69,80,0
3,72,72,0
3,69,0,30
3,51,0,4
3,60,0,2
3,72,0,0
3,51,77,16
3,57,65,0
3,66,71,0
3,72,57,0
3,57,0,7
3,54,70,1
3,63,76,0
3,66,0,1
3,72,0,11
3,63,0,6
3,54,0,3
3,57,71,2
3,66,41,0
3,71,71,0
3,66,0,28
3,57,0,1
3,54,64,1
3,63,69,0
3,71,0,5
3,63,0,10
3,54,0,0
3,57,72,4
3,66,58,0
3,69,71,0
3,66,0,23
3,57,0,1
3,54,52,6
3,63,63,0
3,69,0,3
3,63,0,7
3,54,0,0
3,57,73,7
3,66,63,0
3,71,88,0
3,66,0,23
3,51,0,12
3,57,0,7
3,52,88,7
3,71,0,5
3,67,69,5
3,67,0,28
3,71,68,2
3,76,66,30
3,71,0,3
3,71,64,27
3,76,0,4
3,71,0,24
3,55,81,2
3,67,71,0
3,67,0,26
3,71,71,4
3,52,0,8
3,55,0,9
3,71,0,5
3,52,71,0
3,59,73,0
3,76,75,0
3,76,0,30
3,71,67,0
3,71,0,29
3,67,71,1
3,67,0,29
3,71,68,1
3,59,0,20
3,71,0,9
3,55,79,1
3,76,77,0
3,71,68,30
3,76,0,10
3,71,0,18
3,67,73,2
3,67,0,11
3,55,0,13
3,52,0,4
3,54,69,14
3,60,70,0
3,63,72,0
3,69,71,0
3,63,0,43
3,66,68,2
3,69,0,1
3,66,0,7
3,63,81,5
3,69,78,0
3,60,0,30
3,54,0,14
3,60,76,10
3,60,0,28
3,57,77,2
3,63,0,7
3,60,71,23
3,57,0,3
3,60,0,7
3,54,72,2
3,63,86,0
3,69,0,14
3,67,71,3
3,67,0,30
3,67,71,0
3,67,0,36
3,66,83,0
3,54,0,28
3,67,79,2
3,63,0,6
3,66,0,5
3,55,67,19
3,60,73,0
3,67,0,4
3,72,82,25
3,60,0,23
3,72,0,5
3,64,79,2
3,76,66,0
3,76,0,26
3,72,78,4
3,64,0,21
3,60,74,9
3,76,70,0
3,72,0,1
3,76,0,26
3,72,80,3
3,60,0,26
3,72,0,3
3,64,70,1
3,76,65,0
3,76,0,27
3,72,78,3
3,55,0,8
3,64,0,6
3,72,0,1
3,55,74,3
3,60,79,0
3,76,84,0
3,76,0,53
3,64,64,37
3,66,74,30
3,64,0,8
3,66,0,38
3,67,67,14
3,67,0,14
3,60,0,6
3,55,0,9
3,62,82,1
3,66,85,0
3,48,77,7
3,57,71,0
3,66,0,7
3,62,0,2
3,62,80,21
3,66,86,0
3,57,0,62
3,57,74,28
3,57,0,27
3,54,67,3
3,62,0,1
3,54,0,24
3,57,73,5
3,62,76,0
3,57,0,18
3,54,69,12
3,66,0,1
3,62,0,10
3,54,0,9
3,57,71,9
3,66,81,0
3,57,0,30
3,54,71,0
3,54,0,28
3,57,71,2
3,57,0,30
3,54,69,0
3,54,0,4
3,57,74,4
3,64,69,0
3,66,0,50
3,64,0,5
3,62,67,5
3,48,0,3
3,62,0,15
3,66,84,12
3,57,0,5
3,47,71,22
3,57,67,0
3,59,65,24
3,59,0,25
3,64,70,5
3,64,0,28
3,59,69,2
3,66,0,13
3,59,0,8
3,64,79,9
3,66,58,0
3,64,0,27
3,66,0,1
3,59,73,2
3,59,0,15
3,66,80,15
3,71,82,0
3,66,0,10
3,64,74,4
3,47,0,3
3,57,0,8
3,47,74,15
3,57,71,0
3,64,0,2
3,71,0,2
3,69,82,2
3,69,0,17
3,71,65,9
3,71,0,26
3,69,74,3
3,47,0,7
3,57,0,4
3,69,0,2
3,47,69,15
3,57,67,0
3,75,80,0
3,75,0,26
3,71,65,4
3,71,0,21
3,78,89,9
3,78,0,55
3,57,0,3
3,47,0,0
3,68,65,2
3,73,66,0
3,80,74,0
3,73,0,25
3,68,0,1
3,68,69,34
3,73,65,0
3,80,0,18
3,73,0,13
3,68,0,3
3,68,58,26
3,73,59,0
3,76,59,0
3,73,0,17
3,68,0,3
3,68,69,22
3,73,74,0
3,68,0,95
3,73,0,16
3,76,0,7
3,68,61,2
3,68,0,18
3,73,72,42
3,80,72,0
3,73,0,31
3,80,0,2
3,73,67,27
3,78,67,0
3,78,0,21
3,73,0,5
3,68,67,4
3,68,0,11
3,71,64,3
3,71,0,51
3,78,78,9
3,78,0,23
3,75,70,7
3,75,0,25
3,78,66,5
3,78,0,25
3,75,60,5
3,75,0,20
3,71,56,10
3,71,0,25
3,75,72,5
3,75,0,26
3,78,64,4
3,78,0,22
3,75,54,8
3,75,0,23
3,71,53,7
3,71,0,26
3,75,69,4
3,75,0,28
3,78,61,2
3,78,0,29
3,75,64,1
3,75,0,26
3,71,67,4
3,71,0,5
3,66,67,12
3,75,67,0
3,78,67,0
3,66,0,31
3,75,0,5
3,78,0,4
3,66,67,20
3,75,67,0
3,78,67,0
3,75,0,38
3,66,0,8
3,71,59,14
3,78,0,25
3,71,0,9
3,68,67,2
3,71,67,0
3,68,0,68
3,71,0,22
3,68,66,10
3,68,0,19
3,71,69,41
3,78,72,0
3,78,0,53
3,71,0,7
3,76,72,0
3,76,0,59
3,78,81,6
3,78,0,26
3,74,72,4
3,74,0,23
3,73,75,7
3,73,0,25
3,74,77,5
3,74,0,28
3,73,75,2
3,73,0,23
3,71,62,7
3,71,0,25
3,73,72,5
3,73,0,28
3,74,69,2
3,74,0,26
3,73,73,4
3,73,0,26
3,71,74,4
3,71,0,29
3,69,77,1
3,69,0,22
3,71,68,8
3,71,0,26
3,73,71,4
3,76,69,30
3,73,0,1
3,76,0,9
3,69,69,20
3,73,77,0
3,80,78,0
3,73,0,31
3,80,0,4
3,69,0,1
3,69,58,24
3,73,53,0
3,80,81,0
3,80,0,24
3,73,0,4
3,69,0,9
3,69,56,23
3,73,61,0
3,76,65,0
3,73,0,33
3,69,0,3
3,69,60,15
3,73,72,0
3,69,0,89
3,73,0,17
3,69,61,8
3,76,0,3
3,69,0,15
3,69,54,42
3,73,67,0
3,80,76,0
3,80,0,22
3,73,0,38
3,78,61,0
3,69,0,30
3,71,74,10
3,71,0,14
3,66,59,2
3,66,0,23
3,71,60,7
3,71,0,23
3,66,60,7
3,66,0,25
3,71,57,5
3,71,0,26
3,66,48,4
3,66,0,26
3,71,65,4
3,71,0,26
3,66,62,4
3,66,0,8
3,70,76,2
3,70,0,25
3,66,55,5
3,66,0,28
3,70,65,2
3,70,0,25
3,66,57,5
3,66,0,26
3,70,62,4
3,70,0,23
3,66,49,7
3,70,75,30
3,66,0,3
3,78,0,6
3,70,0,4
3,68,75,7
3,73,70,0
3,80,83,0
3,73,0,26
3,68,0,1
3,68,74,33
3,73,67,0
3,80,0,20
3,68,0,14
3,73,0,2
3,68,61,3
3,73,67,0
3,76,59,0
3,73,0,23
3,68,0,2
3,68,63,28
3,73,76,0
3,68,0,95
3,73,0,18
3,68,53,7
3,76,0,5
3,68,0,27
3,68,65,28
3,73,65,0
3,80,80,0
3,73,0,25
3,80,0,6
3,68,0,3
3,73,73,26
3,78,69,0
3,78,0,26
3,73,0,2
3,68,72,2
3,68,0,12
3,71,79,3
3,71,0,55
3,75,77,5
3,75,0,23
3,71,63,7
3,71,0,27
3,69,59,3
3,69,0,21
3,71,66,9
3,71,0,28
3,75,66,2
3,78,67,30
3,75,0,1
3,78,0,8
3,75,73,10
3,81,69,0
3,75,0,26
3,81,0,3
3,71,59,1
3,71,0,18
3,75,71,12
3,80,71,0
3,80,0,27
3,75,0,1
3,71,62,2
3,71,0,11
3,75,72,19
3,81,72,0
3,75,0,22
3,81,0,7
