track,note,velocity,time
1,57,69,4651
1,57,0,21
1,64,88,3
1,64,0,14
1,66,96,14
1,66,0,23
1,57,80,14
1,57,0,33
1,57,78,58
1,57,0,19
1,62,81,7
1,62,0,24
1,64,90,6
1,64,0,21
1,57,77,9
1,57,0,39
1,62,78,171
1,62,0,28
1,64,81,17
1,64,0,22
1,69,80,23
1,69,0,35
1,64,71,25
1,64,0,23
1,57,85,7
1,57,0,65
1,54,85,205
1,55,80,30
1,54,0,2
1,55,0,25
1,66,100,3
1,66,0,14
1,66,104,16
1,66,0,30
1,57,96,60
1,57,0,53
1,54,81,7
1,55,85,30
1,54,0,1
1,55,0,23
1,57,93,6
1,57,0,17
1,57,90,13
1,57,0,30
1,59,110,30
1,59,0,18
1,57,104,12
1,57,0,30
1,54,88,30
1,55,90,30
1,54,0,5
1,55,0,20
1,57,88,5
1,57,0,31
1,57,100,29
1,57,0,26
1,57,107,34
1,57,0,27
1,55,80,33
1,55,0,31
1,57,110,29
1,57,0,37
1,69,102,293
1,69,0,20
1,71,108,10
1,71,0,24
1,69,111,6
1,69,0,14
1,69,93,14
1,69,0,15
1,71,102,17
1,71,0,37
1,69,114,23
1,69,0,55
1,69,108,274
1,69,0,15
1,69,88,11
1,69,0,14
1,69,98,16
1,69,0,18
1,78,114,13
1,78,0,28
1,78,114,34
1,78,0,11
1,78,114,19
1,78,0,10
1,78,114,17
1,78,0,13
1,76,108,20
1,76,0,15
1,74,102,14
1,74,0,17
1,71,102,8
1,71,0,15
1,69,111,16
1,69,0,25
1,64,93,47
1,64,0,92
1,69,93,446
1,69,0,17
1,71,108,8
1,71,0,15
1,69,98,14
1,69,0,15
1,69,88,16
1,69,0,16
1,71,111,13
1,71,0,47
1,69,85,17
1,69,0,72
1,69,98,253
1,69,0,15
1,69,93,13
1,69,0,15
1,69,88,13
1,69,0,20
1,78,114,15
1,78,0,44
1,78,111,16
1,78,0,12
1,78,102,17
1,78,0,10
1,78,114,16
1,78,0,15
1,76,111,17
1,76,0,13
1,76,98,17
1,76,0,15
1,74,88,15
1,74,0,17
1,76,114,13
1,76,0,482
1,76,102,153
1,79,98,24
1,76,0,5
1,79,0,17
1,81,102,8
1,81,0,21
1,79,114,14
1,79,0,33
1,78,114,27
1,78,0,28
1,76,108,35
1,76,0,72
1,76,108,78
1,79,93,25
1,76,0,1
1,79,0,25
1,81,93,1
1,81,0,22
1,79,114,13
1,79,0,24
1,78,114,37
1,78,0,34
1,78,98,112
1,78,0,11
1,79,114,20
1,79,0,22
1,78,85,40
1,78,0,20
1,76,102,8
1,76,0,43
1,69,114,145
1,69,0,23
1,71,85,32
1,71,0,30
1,73,114,29
1,73,0,11
1,73,85,14
1,73,0,19
1,74,98,18
1,74,0,29
1,76,111,30
1,76,0,35
1,69,111,26
1,69,0,33
1,78,114,28
1,78,0,198
1,76,108,37
1,76,0,80
1,74,93,37
1,74,0,95
1,73,102,23
1,73,0,211
1,74,98,37
1,74,0,81
1,76,102,37
1,76,0,92
1,78,102,27
1,78,0,208
1,76,108,33
1,76,0,89
1,74,93,28
1,74,0,100
1,73,93,21
1,73,0,183
1,74,102,176
1,74,0,21
1,76,114,9
1,76,0,32
1,78,114,61
1,78,0,14
1,78,102,15
1,78,0,45
1,76,111,172
1,76,0,72
1,74,111,39
1,74,0,83
1,78,114,32
1,78,0,41
1,78,114,26
1,78,0,85
1,76,101,215
1,76,0,23
1,74,82,6
1,74,0,74
1,78,107,17
1,78,0,149
1,78,107,25
1,78,0,47
1,79,101,16
1,79,0,98
1,81,96,19
1,81,0,53
1,81,94,18
1,81,0,886
1,86,91,13
1,86,0,101
1,86,101,14
1,85,87,64
1,86,0,1
1,83,37,373
1,85,0,13
1,81,53,1
1,83,0,5
1,81,0,49
1,85,47,9
1,85,0,49
1,81,45,40
1,81,0,53
1,76,45,32
1,76,0,70
1,69,46,21
1,69,0,71
1,76,49,18
1,76,0,70
1,81,49,48
1,81,0,12
1,81,39,14
1,81,0,22
1,85,49,16
1,85,0,65
1,81,46,26
1,81,0,59
1,76,45,26
1,76,0,49
1,69,40,14
1,69,0,74
1,81,49,106
1,81,0,12
1,81,39,13
1,81,0,18
1,85,51,14
1,85,0,59
1,81,45,30
1,81,0,55
1,76,43,30
1,76,0,43
1,69,39,24
1,69,0,39
1,76,40,20
1,76,0,47
1,81,51,69
1,81,0,13
1,81,38,15
1,81,0,18
1,85,55,18
1,85,0,52
1,81,51,41
1,81,0,42
1,76,46,33
1,76,0,44
1,69,45,25
1,69,0,69
1,73,114,0
1,73,0,31
1,76,111,23
1,76,0,15
1,76,114,18
1,76,0,50
1,76,114,40
1,76,0,15
1,76,79,6
1,76,0,14
1,69,114,20
1,69,0,19
1,67,108,11
1,67,0,19
1,69,114,12
1,69,0,42
1,67,93,58
1,67,0,13
1,69,114,13
1,69,0,18
1,79,108,38
1,79,0,22
1,78,114,14
1,78,0,25
1,79,114,33
1,79,0,58
1,81,114,26
1,81,0,43
1,78,85,23
1,78,0,31
1,74,98,25
1,74,0,18
1,76,111,15
1,76,0,56
1,69,108,35
1,69,0,15
1,67,108,15
1,67,0,15
1,67,98,15
1,67,0,13
1,69,102,17
1,69,0,18
1,67,111,12
1,67,0,18
1,69,114,12
1,69,0,34
1,74,111,26
1,74,0,14
1,73,114,15
1,73,0,11
1,73,114,18
1,73,0,42
1,74,114,19
1,74,0,13
1,76,111,16
1,76,0,24
1,76,114,38
1,76,0,40
1,69,114,80
1,69,0,18
1,73,114,12
1,73,0,24
1,74,108,36
1,74,0,12
1,76,114,17
1,76,0,250
1,76,111,22
1,76,0,22
1,74,98,6
1,74,0,22
1,76,111,6
1,76,0,17
1,78,114,15
1,78,0,14
1,78,114,17
1,78,0,15
1,76,108,14
1,76,0,21
1,78,114,10
1,78,0,25
1,74,111,35
1,74,0,18
1,76,114,11
1,76,0,16
1,78,114,15
1,78,0,67
1,79,111,203
1,79,0,41
1,78,114,18
1,78,0,38
1,79,114,22
1,79,0,41
1,78,114,19
1,78,0,18
1,79,114,13
1,79,0,64
1,76,114,26
1,76,0,17
1,78,114,13
1,78,0,17
1,79,111,12
1,79,0,23
1,76,114,7
1,76,0,36
1,79,114,54
1,79,0,14
1,78,114,17
1,78,0,14
1,79,114,15
1,79,0,31
1,79,114,28
1,79,0,38
1,78,114,23
1,78,0,13
1,79,114,18
1,79,0,44
1,81,114,44
1,81,0,13
1,79,111,19
1,79,0,33
1,78,111,27
1,78,0,15
1,76,114,13
1,76,0,17
1,74,111,14
1,74,0,81
1,73,114,10
1,73,0,37
1,69,108,23
1,69,0,21
1,71,111,38
1,71,0,25
1,73,114,36
1,73,0,11
1,73,93,16
1,73,0,15
1,74,114,17
1,74,0,26
1,76,114,33
1,76,0,26
1,69,114,34
1,69,0,48
1,78,114,15
1,78,0,198
1,76,108,37
1,76,0,80
1,74,93,37
1,74,0,95
1,73,102,23
1,73,0,211
1,74,98,37
1,74,0,81
1,76,102,37
1,76,0,92
1,78,102,27
1,78,0,208
1,76,108,33
1,76,0,89
1,74,93,28
1,74,0,100
1,73,93,21
1,73,0,183
1,74,102,176
1,74,0,21
1,76,114,9
1,76,0,32
1,78,114,61
1,78,0,14
1,78,102,15
1,78,0,45
1,76,111,172
1,76,0,72
1,74,111,39
1,74,0,83
1,78,114,32
1,78,0,41
1,78,114,26
1,78,0,85
1,76,101,215
1,76,0,23
1,74,82,6
1,74,0,74
1,78,107,17
1,78,0,149
1,78,107,25
1,78,0,47
1,79,101,16
1,79,0,98
1,81,96,19
1,81,0,53
1,81,94,18
1,81,0,480
1,69,108,463
1,69,0,61
1,78,113,16
1,78,0,198
1,76,108,37
1,76,0,80
1,74,93,37
1,74,0,95
1,73,102,23
1,73,0,211
1,74,98,37
1,74,0,81
1,76,102,37
1,76,0,92
1,78,102,27
1,78,0,208
1,76,108,33
1,76,0,89
1,74,93,28
1,74,0,100
1,73,93,21
1,73,0,183
1,74,102,176
1,74,0,21
1,76,114,9
1,76,0,32
1,78,114,61
1,78,0,14
1,78,102,15
1,78,0,45
1,76,111,172
1,76,0,72
1,74,111,39
1,74,0,83
1,78,114,32
1,78,0,41
1,78,114,26
1,78,0,85
1,76,101,215
1,76,0,23
1,74,93,6
1,74,0,74
1,78,107,17
1,78,0,149
1,78,107,25
1,78,0,47
1,79,101,16
1,79,0,98
1,81,96,19
1,81,0,53
1,81,94,18
1,81,0,886
1,86,91,13
1,86,0,101
1,86,101,14
1,85,87,64
1,86,0,1
1,57,91,361
1,83,90,12
1,57,0,11
1,85,0,2
1,81,63,1
1,59,102,4
1,83,0,1
1,59,0,15
1,61,93,13
1,61,0,20
1,81,0,1
1,62,117,12
1,62,0,20
1,61,99,37
1,61,0,74
1,57,110,14
1,57,0,16
1,57,117,14
1,57,0,16
1,55,102,14
1,55,0,21
1,57,117,8
1,57,0,32
1,59,99,29
1,59,0,18
1,57,108,13
1,57,0,34
1,57,91,18
1,57,0,24
1,59,88,0
1,59,0,24
1,61,96,10
1,61,0,22
1,61,88,43
1,61,0,24
1,59,102,37
1,59,0,21
1,59,91,38
1,59,0,24
1,57,99,35
1,57,0,29
1,61,125,215
1,61,0,40
1,61,100,118
1,61,0,13
1,61,90,15
1,61,0,15
1,61,88,12
1,61,0,15
1,61,100,17
1,61,0,27
1,59,90,27
1,59,0,16
1,57,119,17
1,57,0,45
1,55,107,45
1,55,0,11
1,55,107,12
1,55,0,19
1,57,114,15
1,57,0,16
1,57,90,15
1,57,0,17
1,57,114,13
1,57,0,15
1,57,114,14
1,57,0,15
1,57,114,14
1,57,0,16
1,59,125,15
1,59,0,25
1,57,127,37
1,57,0,38
2,33,102,6592
2,33,0,413
2,40,102,7
2,40,0,59
2,33,102,1
2,45,102,420
2,33,0,1
2,45,0,59
2,33,102,0
2,33,0,443
2,33,102,37
2,33,0,414
2,40,102,6
2,33,102,60
2,40,0,5
2,33,0,414
2,45,102,1
2,45,0,59
2,33,102,1
2,33,0,453
2,33,110,27
2,33,0,30
2,33,115,30
2,33,0,30
2,28,102,180
2,28,0,19
2,30,102,11
2,30,0,35
2,33,110,25
2,33,0,87
2,33,102,33
2,33,0,32
2,33,102,28
2,33,0,356
2,45,102,4
2,45,0,58
2,33,102,2
2,33,64,120
2,33,0,10
2,33,56,20
2,33,0,12
2,33,63,18
2,33,0,11
2,33,65,19
2,33,0,10
2,33,76,20
2,33,0,10
2,33,72,20
2,33,0,11
2,33,83,19
2,33,0,11
2,33,76,19
2,33,0,10
2,33,83,20
2,33,0,11
2,33,83,19
2,33,0,11
2,33,97,19
2,33,0,12
2,33,0,18
2,33,99,0
2,33,0,20
2,33,102,10
2,33,0,43
2,33,88,47
2,33,0,16
2,35,99,14
2,35,0,21
2,37,102,9
2,37,0,21
2,37,99,39
2,37,0,21
2,38,97,9
2,38,0,30
2,40,91,0
2,40,0,28
2,42,102,32
2,42,0,20
2,43,99,10
2,45,99,60
2,43,0,1
2,33,102,59
2,45,0,1
2,33,0,38
2,33,99,51
2,33,0,16
2,35,102,14
2,35,0,23
2,37,102,7
2,37,0,23
2,37,102,37
2,37,0,18
2,38,99,12
2,38,0,20
2,40,91,10
2,40,0,28
2,42,102,32
2,42,0,18
2,43,99,12
2,43,0,55
2,45,102,5
2,45,0,57
2,38,102,3
2,38,0,38
2,38,99,52
2,38,0,15
2,40,97,15
2,40,0,28
2,42,102,2
2,42,0,28
2,42,102,32
2,42,0,19
2,43,97,11
2,43,0,27
2,45,91,3
2,45,0,25
2,47,99,35
2,47,0,18
2,49,99,12
2,49,0,54
2,50,97,6
2,50,0,60
2,38,102,0
2,38,0,44
2,38,91,46
2,38,0,20
2,40,102,10
2,40,0,28
2,42,102,2
2,42,0,26
2,42,102,34
2,42,0,21
2,43,99,9
2,43,0,28
2,45,97,2
2,45,0,26
2,47,83,34
2,47,0,21
2,49,91,9
2,49,0,53
2,50,97,7
2,50,0,50
2,33,102,10
2,33,0,37
2,33,91,53
2,33,0,15
2,35,99,15
2,35,0,24
2,37,102,6
2,37,0,26
2,37,102,34
2,37,0,19
2,38,99,11
2,38,0,28
2,40,91,2
2,40,0,22
2,42,102,38
2,42,0,19
2,43,99,11
2,43,0,49
2,45,97,11
2,45,0,39
2,38,99,21
2,38,0,43
2,38,97,47
2,38,0,18
2,40,99,12
2,40,0,22
2,42,102,8
2,42,0,24
2,42,72,36
2,42,0,20
2,43,99,10
2,43,0,23
2,45,91,7
2,45,0,34
2,47,97,26
2,47,0,18
2,49,99,12
2,49,0,58
2,50,102,2
2,50,0,54
2,33,99,6
2,33,0,44
2,33,99,46
2,33,0,18
2,35,97,12
2,35,0,20
2,37,102,10
2,37,0,29
2,37,99,31
2,37,0,14
2,38,88,16
2,38,0,25
2,40,99,5
2,40,0,27
2,42,99,33
2,42,0,22
2,43,99,8
2,43,0,38
2,45,97,22
2,45,0,59
2,33,97,1
2,33,0,118
2,45,102,2
2,45,0,120
2,33,102,0
2,33,0,112
2,45,97,8
2,45,0,115
2,33,99,5
2,33,0,115
2,45,97,5
2,33,99,120
2,45,0,2
2,33,0,103
2,45,97,15
2,45,0,115
2,33,99,5
2,33,0,510
2,45,99,1770
2,45,0,21
2,42,102,9
2,42,0,27
2,40,102,33
2,40,0,19
2,33,102,11
2,33,0,102
2,33,97,108
2,33,0,18
2,31,102,12
2,31,0,54
2,33,102,6
2,33,0,45
2,33,97,105
2,33,0,15
2,35,102,15
2,35,0,55
2,33,102,5
2,33,0,38
2,33,99,112
2,33,0,12
2,31,102,18
2,31,0,59
2,33,102,1
2,33,0,35
2,33,97,115
2,33,0,11
2,35,102,19
2,35,0,43
2,33,99,17
2,33,0,43
2,33,102,107
2,33,0,13
2,31,102,17
2,31,0,57
2,33,102,3
2,33,0,30
2,33,83,150
2,33,0,22
2,35,97,8
2,35,0,23
2,42,105,37
2,42,0,12
2,45,120,18
2,45,0,30
2,33,89,30
2,33,0,179
2,35,91,1
2,35,0,32
2,33,87,58
2,33,0,22
2,31,74,8
2,31,0,56
2,33,91,4
2,33,0,39
2,33,87,111
2,33,0,30
2,35,91,0
2,35,0,35
2,47,110,85
2,47,0,15
2,45,110,15
2,45,0,15
2,33,89,75
2,33,0,114
2,33,81,96
2,33,0,18
2,31,87,12
2,31,0,49
2,33,91,11
2,33,0,34
2,33,79,116
2,33,0,25
2,35,89,5
2,35,0,53
2,33,91,7
2,33,0,23
2,33,89,127
2,33,0,15
2,31,89,15
2,31,0,55
2,33,91,5
2,33,0,28
2,33,81,122
2,33,0,12
2,35,81,18
2,35,0,20
2,45,102,40
2,45,0,30
2,33,64,30
2,33,0,10
2,33,56,20
2,33,0,12
2,33,63,18
2,33,0,11
2,33,65,19
2,33,0,10
2,33,76,20
2,33,0,10
2,33,72,20
2,33,0,11
2,33,83,19
2,33,0,11
2,33,76,19
2,33,0,10
2,33,83,20
2,33,0,11
2,33,83,19
2,33,0,11
2,33,97,19
2,33,0,12
2,33,99,18
2,33,0,20
2,33,102,10
2,33,0,43
2,33,88,47
2,33,0,16
2,35,99,14
2,35,0,21
2,37,102,9
2,37,0,21
2,37,99,39
2,37,0,21
2,38,97,9
2,38,0,30
2,40,91,0
2,40,0,28
2,42,102,32
2,42,0,20
2,43,99,10
2,45,99,60
2,43,0,1
2,33,102,59
2,45,0,1
2,33,0,38
2,33,99,51
2,33,0,16
2,35,102,14
2,35,0,23
2,37,102,7
2,37,0,23
2,37,102,37
2,37,0,18
2,38,99,12
2,38,0,20
2,40,91,10
2,40,0,28
2,42,102,32
2,42,0,18
2,43,99,12
2,43,0,55
2,45,102,5
2,45,0,57
2,38,102,3
2,38,0,38
2,38,99,52
2,38,0,15
2,40,97,15
2,40,0,28
2,42,102,2
2,42,0,28
2,42,102,32
2,42,0,19
2,43,97,11
2,43,0,27
2,45,91,3
2,45,0,25
2,47,99,35
2,47,0,18
2,49,99,12
2,49,0,54
2,50,97,6
2,50,0,60
