track,note,velocity,time
0,42,65,219
0,42,0,3
0,42,65,93
0,42,0,3
0,42,65,93
0,42,0,3
0,42,65,93
0,42,0,3
0,33,94,93
0,60,54,0
0,64,54,0
0,67,54,0
0,67,44,0
0,64,54,0
0,60,54,0
0,49,64,0
0,42,44,0
0,36,64,0
0,36,0,3
0,42,0,0
0,49,0,0
0,64,0,43
0,67,0,0
0,60,0,0
0,52,79,1
0,42,44,1
0,42,0,3
0,55,89,45
0,42,44,0
0,42,0,3
0,52,0,42
0,60,99,2
0,70,49,1
0,70,0,3
0,55,0,43
0,70,49,2
0,42,44,0
0,38,114,0
0,38,0,3
0,42,0,0
0,70,0,0
0,60,0,42
0,52,79,3
0,70,49,0
0,70,0,3
0,55,89,45
0,70,49,0
0,70,0,3
0,52,0,43
0,42,44,2
0,60,99,1
0,42,0,2
0,62,54,14
0,33,0,1
0,66,54,4
0,64,0,3
0,60,0,0
0,67,0,0
0,55,0,0
0,69,54,2
0,69,44,0
0,66,44,0
0,62,54,0
0,36,64,0
0,42,44,0
0,35,94,1
0,42,0,2
0,36,0,0
0,62,0,33
0,66,0,5
0,69,0,5
0,60,0,1
0,54,79,0
0,42,44,1
0,42,0,3
0,57,89,45
0,42,44,0
0,70,49,0
0,70,0,3
0,42,0,0
0,54,0,42
0,66,109,2
0,50,99,1
0,70,49,0
0,46,30,0
0,46,0,3
0,70,0,0
0,57,0,43
0,38,114,2
0,42,44,0
0,70,49,0
0,69,119,1
0,70,0,2
0,42,0,0
0,38,0,0
0,66,0,42
0,50,0,1
0,71,109,2
0,70,49,0
0,70,0,3
0,69,0,44
0,69,99,0
0,70,49,1
0,70,0,3
0,35,0,11
0,71,0,32
0,35,94,1
0,36,64,1
0,70,49,0
0,42,44,0
0,42,0,3
0,70,0,0
0,36,0,0
0,35,0,7
0,64,54,7
0,67,54,5
0,67,44,0
0,69,0,2
0,62,0,1
0,69,0,0
0,66,0,0
0,71,54,2
0,71,44,0
0,64,54,0
0,36,64,0
0,42,44,0
0,36,94,1
0,42,0,2
0,36,0,0
0,64,0,33
0,67,0,5
0,71,0,5
0,52,79,1
0,42,44,1
0,42,0,3
0,55,89,44
0,42,44,1
0,42,0,3
0,52,0,42
0,67,119,3
0,70,49,0
0,70,0,3
0,55,0,42
0,70,49,3
0,38,114,0
0,42,44,0
0,42,0,3
0,38,0,0
0,70,0,0
0,67,0,43
0,55,79,2
0,70,49,0
0,70,0,3
0,60,99,44
0,70,49,1
0,70,0,3
0,55,0,43
0,42,44,2
0,42,0,3
0,64,0,12
0,62,54,2
0,36,0,2
0,67,0,1
0,66,54,2
0,66,44,0
0,60,0,2
0,71,0,1
0,69,54,0
0,62,54,0
0,69,44,0
0,36,64,0
0,42,44,0
0,38,94,1
0,42,0,2
0,36,0,0
0,62,0,33
0,66,0,5
0,69,0,5
0,57,79,2
0,42,44,0
0,42,0,3
0,42,44,45
0,70,49,0
0,50,94,0
0,62,89,1
0,50,0,2
0,70,0,0
0,42,0,0
0,57,0,43
0,69,119,2
0,50,99,0
0,46,30,0
0,70,49,0
0,70,0,3
0,46,0,0
0,62,0,44
0,42,44,1
0,70,49,0
0,38,114,0
0,48,94,0
0,64,109,1
0,48,0,2
0,38,0,0
0,42,0,0
0,70,0,0
0,69,0,43
0,50,0,0
0,66,99,1
0,70,49,1
0,47,94,0
0,47,0,3
0,70,0,0
0,64,0,44
0,70,49,1
0,62,89,1
0,70,0,2
0,66,0,42
0,42,44,3
0,36,64,0
0,45,70,0
0,70,49,0
0,70,0,3
0,45,0,0
0,36,0,0
0,42,0,0
0,43,80,0
0,43,0,3
0,62,0,9
0,38,0,2
0,66,0,3
0,69,0,5
0,62,0,1
0,40,94,0
0,67,79,0
0,67,54,0
0,71,54,0
0,64,54,0
0,62,44,0
0,67,44,0
0,71,44,0
0,36,64,0
0,49,64,0
0,42,44,0
0,71,99,1
0,62,79,0
0,42,0,2
0,49,0,0
0,36,0,0
0,64,0,43
0,71,0,0
0,67,0,0
0,42,44,2
0,42,0,3
0,67,0,42
0,71,0,2
0,62,0,0
0,76,117,0
0,59,79,1
0,42,44,0
0,42,0,3
0,76,0,33
0,76,107,2
0,62,79,1
0,70,49,0
0,70,0,3
0,76,0,42
0,59,0,1
0,76,117,1
0,38,114,0
0,42,44,0
0,70,49,0
0,67,79,1
0,70,0,2
0,42,0,0
0,38,0,0
0,76,0,33
0,62,0,1
0,74,107,1
0,70,49,1
0,70,0,3
0,74,0,42
0,67,0,2
0,70,49,1
0,71,107,1
0,70,0,2
0,71,0,44
0,74,117,1
0,42,44,0
0,42,0,3
0,60,54,14
0,64,54,5
0,40,0,2
0,74,0,1
0,62,0,0
0,71,0,0
0,36,94,1
0,67,99,0
0,60,79,0
0,71,107,0
0,64,79,1
0,67,54,0
0,59,54,0
0,64,44,0
0,36,64,0
0,42,44,0
0,42,0,3
0,36,0,0
0,60,0,24
0,64,0,5
0,71,0,4
0,67,0,1
0,55,79,1
0,42,44,1
0,42,0,3
0,67,0,42
0,60,0,0
0,64,0,1
0,42,44,2
0,70,49,0
0,60,79,1
0,70,0,2
0,42,0,0
0,55,0,42
0,64,107,3
0,64,74,0
0,46,30,0
0,70,49,0
0,64,99,1
0,70,0,2
0,46,0,0
0,64,0,43
0,64,0,0
0,60,0,1
0,69,117,0
0,42,44,1
0,38,114,0
0,70,49,0
0,70,0,3
0,38,0,0
0,42,0,0
0,69,0,42
0,64,0,2
0,67,107,1
0,70,49,0
0,70,0,3
0,67,0,43
0,71,107,2
0,70,49,0
0,70,0,3
0,71,0,43
0,69,117,0
0,70,49,0
0,36,64,0
0,42,44,0
0,42,0,3
0,36,0,0
0,70,0,0
0,55,54,14
0,60,54,5
0,36,0,2
0,59,0,1
0,67,0,0
0,33,94,2
0,64,54,0
0,55,54,0
0,60,44,0
0,42,44,0
0,36,64,0
0,36,0,3
0,42,0,0
0,55,0,33
0,60,0,5
0,64,0,5
0,69,0,0
0,71,107,1
0,52,79,1
0,42,44,0
0,42,0,3
0,71,0,21
0,57,89,3
0,42,44,0
0,42,0,3
0,52,0,43
0,60,99,2
0,64,74,0
0,70,49,0
0,70,0,3
0,64,0,43
0,57,0,0
0,70,49,2
0,42,44,0
0,38,114,0
0,38,0,3
0,42,0,0
0,70,0,0
0,60,0,43
0,64,89,1
0,70,49,1
0,70,0,3
0,60,79,45
0,70,49,0
0,70,0,3
0,64,0,42
0,64,107,2
0,42,44,1
0,42,0,3
0,57,54,14
0,62,54,5
0,64,0,2
0,64,0,1
0,60,0,0
0,60,0,0
0,33,0,0
0,55,0,0
0,38,94,2
0,69,117,0
0,66,54,0
0,62,44,0
0,57,44,0
0,66,44,0
0,42,44,0
0,36,64,0
0,50,40,0
0,50,0,3
0,36,0,0
0,42,0,0
0,57,0,33
0,62,0,5
0,69,0,5
0,66,0,0
0,57,79,2
0,69,107,0
0,48,40,0
0,42,44,0
0,42,0,3
0,48,0,0
0,69,0,43
0,48,40,2
0,70,49,0
0,42,44,0
0,62,89,1
0,71,117,0
0,42,0,2
0,70,0,0
0,48,0,0
0,57,0,43
0,71,0,1
0,66,99,0
0,69,97,1
0,70,49,0
0,46,30,0
0,47,40,0
0,47,0,3
0,46,0,0
0,70,0,0
0,69,0,43
0,62,0,1
0,69,109,0
0,69,117,0
0,38,114,1
0,42,44,0
0,70,49,0
0,70,0,3
0,42,0,0
0,38,0,0
0,69,0,42
0,66,0,0
0,71,117,2
0,66,99,1
0,70,49,0
0,45,40,0
0,45,0,3
0,70,0,0
0,71,0,42
0,69,0,0
0,62,89,2
0,70,49,1
0,70,0,3
0,66,0,43
0,66,79,2
0,36,64,0
0,43,30,0
0,70,49,0
0,42,44,0
0,42,0,3
0,70,0,0
0,36,0,0
0,43,0,0
0,62,0,21
0,62,0,1
0,66,0,0
0,38,0,0
0,66,0,0
0,57,0,0
0,40,94,1
0,71,99,0
0,67,79,1
0,62,79,0
0,64,54,0
0,71,54,0
0,67,54,0
0,62,44,0
0,71,44,0
0,67,44,0
0,42,44,0
0,36,64,0
0,36,0,3
0,42,0,0
0,67,0,43
0,67,0,0
0,71,0,0
0,64,0,0
0,59,79,2
0,42,44,0
0,42,0,3
0,71,0,42
0,62,0,1
0,42,44,2
0,62,79,1
0,42,0,2
0,59,0,43
0,67,79,1
0,70,49,1
0,70,0,3
0,62,0,44
0,38,114,0
0,70,49,0
0,42,44,0
0,79,117,1
0,42,0,2
0,70,0,0
0,38,0,0
0,67,0,33
0,79,0,2
0,78,107,0
0,59,44,1
0,70,49,0
0,70,0,3
0,78,0,42
0,59,0,1
0,76,107,2
0,64,44,0
0,70,49,0
0,70,0,3
0,76,0,34
0,64,0,0
0,76,117,1
0,67,54,1
0,42,44,0
0,42,0,3
0,76,0,42
0,67,0,1
0,36,64,2
0,42,44,0
0,74,97,1
0,42,0,2
0,36,0,0
0,59,79,45
0,42,44,0
0,42,0,3
0,74,0,44
0,71,107,0
0,70,49,1
0,42,44,0
0,62,79,1
0,42,0,2
0,70,0,0
0,71,0,42
0,59,0,1
0,67,79,1
0,71,117,0
0,46,30,0
0,70,49,0
0,70,0,3
0,46,0,0
0,62,0,35
0,38,114,1
0,42,44,0
0,70,49,0
0,70,0,3
0,42,0,0
0,38,0,0
0,71,0,42
0,67,0,0
0,67,107,2
0,59,44,1
0,70,49,0
0,70,0,3
0,67,0,42
0,59,0,1
0,71,107,2
0,64,44,0
0,70,49,0
0,70,0,3
0,71,0,43
0,64,0,0
0,69,117,2
0,67,54,0
0,36,64,0
0,42,44,0
0,70,49,0
0,70,0,3
0,42,0,0
0,36,0,0
0,40,0,33
0,71,0,1
0,62,0,0
0,67,0,0
0,36,94,1
0,60,54,1
0,64,54,0
0,59,54,0
0,64,44,0
0,42,44,0
0,36,64,0
0,36,0,3
0,42,0,0
0,60,0,22
0,64,0,0
0,69,0,0
0,60,79,1
0,64,97,1
0,42,44,0
0,42,0,3
0,64,0,43
0,64,89,2
0,42,44,0
0,42,0,3
0,60,0,42
0,64,74,3
0,70,49,0
0,67,99,1
0,70,0,2
0,64,0,43
0,64,0,0
0,42,44,2
0,70,49,0
0,38,114,0
0,38,0,3
0,70,0,0
0,42,0,0
0,67,0,44
0,64,89,1
0,70,49,0
0,70,0,3
0,70,49,45
0,70,0,3
0,64,0,43
0,42,44,2
0,60,79,1
0,42,0,2
0,57,54,14
0,60,54,5
0,36,0,2
0,59,0,1
0,67,0,0
0,33,94,2
0,64,54,0
0,55,54,0
0,60,44,0
0,42,44,0
0,36,64,0
0,36,0,3
0,42,0,0
0,57,0,33
0,60,0,5
0,64,0,5
0,60,0,1
0,57,79,1
0,69,107,0
0,42,44,0
0,42,0,3
0,69,0,43
0,71,117,1
0,64,89,1
0,70,49,0
0,42,44,0
0,42,0,3
0,70,0,0
0,71,0,42
0,57,0,1
0,69,107,2
0,46,30,0
0,70,49,0
0,70,0,3
0,46,0,0
0,57,54,14
0,62,54,5
0,55,0,3
0,33,0,0
0,60,0,0
0,64,0,0
0,64,0,0
0,69,0,0
0,69,117,1
0,66,54,0
0,62,44,0
0,57,44,0
0,66,44,0
0,42,44,0
0,70,49,0
0,38,114,0
0,38,94,1
0,38,0,2
0,70,0,0
0,42,0,0
0,57,0,33
0,62,0,5
0,69,0,4
0,66,0,1
0,62,99,2
0,70,49,0
0,71,107,1
0,70,0,2
0,71,0,35
0,66,89,0
0,70,49,1
0,70,0,3
0,62,0,43
0,42,44,2
0,70,49,0
0,36,64,0
0,69,79,1
0,36,0,2
0,70,0,0
0,42,0,0
0,66,0,21
0,62,0,1
0,57,0,0
0,66,0,0
0,69,0,1
0,38,0,0
0,40,94,0
0,71,99,0
0,67,79,1
0,62,79,0
0,64,54,0
0,67,54,0
0,71,54,0
0,71,44,0
0,67,44,0
0,62,44,0
0,36,64,0
0,42,44,0
0,42,0,3
0,36,0,0
0,71,0,43
0,67,0,0
0,64,0,0
0,42,44,2
0,42,0,3
0,71,0,42
0,62,0,1
0,67,0,0
0,59,79,1
0,76,117,0
0,42,44,1
0,42,0,3
0,76,0,42
0,62,79,2
0,70,49,0
0,76,107,1
0,70,0,2
0,59,0,33
0,76,0,1
0,67,79,1
0,76,117,0
0,42,44,1
0,38,114,0
0,70,49,0
0,70,0,3
0,38,0,0
0,42,0,0
0,76,0,42
0,62,0,0
0,74,107,3
0,70,49,0
0,70,0,3
0,67,0,42
0,74,0,1
0,71,107,2
0,70,49,0
0,70,0,3
0,71,0,43
0,74,117,1
0,42,44,1
0,42,0,3
0,60,54,14
0,64,54,5
0,40,0,2
0,74,0,0
0,62,0,1
0,71,0,0
0,67,99,2
0,67,54,0
0,64,44,0
0,59,54,0
0,36,64,0
0,42,44,0
0,36,94,1
0,60,79,0
0,64,79,0
0,71,107,0
0,42,0,2
0,36,0,0
0,60,0,24
0,64,0,5
0,67,0,5
0,71,0,1
0,64,0,0
0,55,79,0
0,42,44,1
0,42,0,3
0,67,0,43
0,60,0,1
0,60,79,1
0,42,44,0
0,70,49,0
0,70,0,3
0,42,0,0
0,55,0,42
0,64,99,3
0,64,74,0
0,70,49,0
0,46,30,0
0,46,0,3
0,70,0,0
0,64,0,43
0,60,0,0
0,42,44,2
0,38,114,0
0,70,49,0
0,70,0,3
0,38,0,0
0,42,0,0
0,64,0,43
0,67,97,1
0,70,49,1
0,70,0,3
0,67,0,42
0,71,107,2
0,70,49,1
0,70,0,3
0,71,0,42
0,69,117,0
0,42,44,0
0,36,64,0
0,70,49,0
0,70,0,3
0,36,0,0
0,42,0,0
0,55,54,14
0,60,54,5
0,67,0,3
0,59,0,0
0,36,0,1
0,64,54,1
0,60,44,0
0,55,54,0
0,42,44,0
0,36,64,0
0,33,94,1
0,36,0,2
0,42,0,0
0,55,0,33
0,60,0,5
0,64,0,5
0,69,0,0
0,71,97,0
0,42,44,0
0,52,79,1
0,42,0,2
0,71,0,34
0,57,89,1
0,42,44,1
0,42,0,3
0,52,0,44
0,60,99,0
0,64,74,1
0,70,49,0
0,70,0,3
0,57,0,42
0,64,0,1
0,42,44,2
0,38,114,0
0,70,49,0
0,70,0,3
0,38,0,0
0,42,0,0
0,60,0,42
0,67,107,2
0,64,89,1
0,70,49,0
0,70,0,3
0,67,0,42
0,69,117,2
0,60,79,1
0,70,49,0
0,70,0,3
0,69,0,33
0,64,0,1
0,67,107,1
0,42,44,1
0,42,0,3
0,57,54,14
0,62,54,5
0,67,0,2
0,64,0,1
0,55,0,0
0,60,0,0
0,60,0,0
0,33,0,1
0,69,117,0
0,66,54,1
0,66,44,0
0,57,44,0
0,62,44,0
0,50,40,0
0,42,44,0
0,36,64,0
0,38,94,1
0,36,0,2
0,42,0,0
0,50,0,0
0,57,0,33
0,62,0,5
0,66,0,5
0,57,79,2
0,42,44,0
0,48,40,0
0,48,0,3
0,42,0,0
0,69,0,42
0,62,89,2
0,42,44,1
0,48,40,0
0,70,49,0
0,71,117,1
0,70,0,2
0,48,0,0
0,42,0,0
0,57,0,43
0,71,0,1
0,66,99,1
0,69,97,0
0,46,30,0
0,47,40,0
0,70,49,0
0,70,0,3
0,47,0,0
0,46,0,0
0,62,0,42
0,69,0,1
0,69,109,1
0,69,117,1
0,42,44,0
0,38,114,0
0,70,49,0
0,70,0,3
0,38,0,0
0,42,0,0
0,66,0,43
0,66,99,1
0,70,49,1
0,45,40,0
0,45,0,3
0,70,0,0
0,69,0,19
0,66,107,1
0,69,0,21
0,70,49,3
0,62,89,1
0,70,0,2
0,66,0,33
0,66,79,2
0,42,44,1
0,70,49,0
0,43,30,0
0,36,64,0
0,36,0,3
0,42,0,0
0,43,0,0
0,70,0,0
0,66,0,18
0,66,0,21
0,66,0,1
0,62,0,0
0,57,0,0
0,62,0,1
0,38,0,0
0,62,79,0
0,71,99,0
0,67,79,1
0,71,54,0
0,67,54,0
0,64,54,0
0,62,44,0
0,71,44,0
0,67,44,0
0,36,64,0
