track,note,velocity,time
1,36,119,43014
1,36,107,48
1,36,111,1028
1,31,95,0
1,31,107,62
1,35,119,982
1,36,115,18
1,36,111,64
1,36,115,1024
1,31,111,0
1,43,115,82
1,41,103,130
1,39,115,178
1,38,119,66
1,36,99,230
1,36,99,96
1,36,111,1028
1,31,95,0
1,31,107,80
1,35,107,992
1,36,115,14
1,36,107,64
1,36,115,1008
1,31,107,0
1,31,111,80
1,36,99,1150
1,36,99,94
1,36,111,1020
1,31,95,0
1,31,107,82
1,35,107,990
1,36,115,12
1,36,107,64
1,36,115,1002
1,31,107,0
1,31,111,78
1,36,99,1148
1,36,99,96
1,36,111,1028
1,31,95,0
1,31,107,82
1,35,107,994
1,36,115,16
1,36,107,62
1,36,115,1000
1,31,107,0
1,38,91,64
1,40,79,144
1,38,91,122
1,36,99,186
1,36,99,100
1,36,111,1028
1,31,95,0
1,31,107,78
1,35,107,994
1,36,115,14
1,36,107,64
1,36,115,1026
1,31,107,0
1,31,111,80
1,36,99,1146
1,36,99,98
1,36,111,1028
1,31,95,130
1,31,107,78
1,35,107,992
1,36,115,16
1,36,107,66
1,36,115,1004
1,31,107,130
1,31,111,98
1,36,99,1150
1,36,99,102
1,36,111,1026
1,31,95,128
1,31,107,78
1,35,107,998
1,36,115,18
1,36,107,62
1,36,115,1006
1,31,107,128
1,31,119,238
1,33,123,132
1,35,119,140
1,36,99,62
1,36,99,96
1,36,111,1028
1,31,95,0
1,31,107,84
1,35,107,988
1,36,115,18
1,36,107,64
1,36,115,1006
1,31,107,0
1,31,111,80
1,36,99,1168
1,36,99,100
1,36,111,1028
1,31,95,0
1,31,107,80
1,35,107,1002
1,36,115,14
1,36,107,66
1,36,115,1026
1,31,107,130
1,31,111,94
1,31,99,176
1,31,99,48
1,33,119,64
1,35,107,386
1,36,99,128
1,36,99,100
1,36,111,1024
1,31,95,0
1,31,107,78
1,35,107,990
1,36,115,20
1,36,107,64
1,36,115,1020
1,31,107,0
1,31,119,262
1,33,123,130
1,35,119,136
1,36,99,62
1,36,99,98
1,36,111,1024
1,31,95,128
1,31,107,80
1,35,107,992
1,36,115,16
1,36,107,66
1,36,115,1008
1,31,107,132
1,31,111,96
1,36,99,1150
1,36,99,98
1,36,111,1026
1,31,95,128
1,31,107,84
1,35,107,992
1,36,115,16
1,36,107,70
1,36,115,1030
1,31,107,124
1,31,111,78
1,36,99,1154
1,36,99,98
1,36,111,1020
1,31,95,132
1,31,107,78
1,35,107,994
1,36,115,12
1,36,107,64
1,36,115,1004
1,31,107,0
1,31,111,80
1,31,99,188
1,31,99,52
1,33,119,64
1,35,107,384
1,36,99,112
1,36,99,94
1,36,111,1026
1,31,95,0
1,31,107,80
1,35,107,990
1,36,115,16
1,36,107,68
1,36,115,1006
1,31,107,0
1,31,119,246
1,33,123,132
1,35,119,138
1,36,99,70
1,36,99,96
1,36,111,1026
1,31,95,0
1,31,107,82
1,35,107,1000
1,36,115,18
1,36,107,62
1,36,115,1008
1,31,107,0
1,31,111,80
1,36,99,1140
1,36,99,96
1,36,111,1028
1,31,95,0
1,31,107,80
1,35,107,988
1,36,115,18
1,36,107,64
1,36,115,1002
1,31,107,0
1,31,111,76
1,36,99,1152
1,36,99,96
1,36,111,1024
1,31,95,0
1,31,107,80
1,35,107,996
1,36,115,12
1,36,107,66
1,36,115,1008
1,31,107,0
1,31,111,78
1,31,99,188
1,31,99,46
1,33,119,64
1,35,107,380
1,36,99,126
1,36,99,94
1,36,111,1026
1,31,95,126
1,31,107,80
1,35,107,990
1,36,115,16
1,36,107,64
1,36,115,1000
1,31,107,0
1,31,119,260
1,33,123,126
1,35,119,130
1,36,99,68
1,36,99,96
1,36,111,1028
1,31,95,128
1,31,107,80
1,35,107,994
1,36,115,16
1,36,107,66
1,36,115,1022
1,31,107,0
1,31,111,80
1,36,99,1152
1,36,99,98
1,36,111,1024
1,31,95,0
1,31,107,84
1,35,107,996
1,36,115,14
1,36,107,64
1,36,115,1006
1,31,107,0
1,31,111,92
1,36,99,1156
1,36,99,94
1,36,111,1026
1,31,95,0
1,31,107,82
1,35,107,1002
1,36,115,18
1,36,107,66
1,36,115,1022
1,31,107,0
1,31,111,96
1,31,99,194
1,31,99,50
1,33,119,68
1,35,107,384
1,36,99,114
1,36,99,94
1,36,111,1028
1,31,95,0
1,31,107,82
1,35,107,996
1,36,115,16
1,36,107,62
1,36,115,1024
1,31,107,0
1,31,119,252
1,33,123,126
1,35,119,140
1,36,99,72
1,36,99,98
1,36,111,1032
1,31,95,120
1,31,107,80
1,35,107,994
1,36,115,16
1,36,107,62
1,36,115,1020
1,31,107,0
1,31,111,96
1,36,99,1156
1,36,99,96
1,36,111,1024
1,31,95,128
1,31,107,80
1,35,107,998
1,36,115,18
1,36,107,66
1,36,115,1026
1,31,107,124
1,31,111,100
1,36,99,1158
1,36,99,98
1,36,111,1024
1,31,95,0
1,31,107,80
1,35,107,1004
1,36,115,16
1,36,107,60
1,36,115,1030
1,31,107,0
1,31,111,96
1,31,99,184
1,31,99,50
1,33,119,70
1,35,107,380
1,36,99,112
1,36,99,94
1,36,111,1026
1,31,95,126
1,31,107,82
1,35,107,986
1,36,115,20
1,36,107,64
1,36,115,998
1,31,107,0
1,31,119,260
1,33,123,130
1,35,119,132
1,36,99,68
1,36,99,96
1,36,111,1026
1,31,95,130
1,31,107,80
1,35,107,994
1,36,115,18
1,36,107,62
1,36,115,1024
1,31,107,130
1,31,111,96
1,36,99,1156
1,36,99,100
1,36,111,1022
1,31,95,128
1,31,107,82
1,35,107,996
1,36,115,16
1,36,107,62
1,36,115,1030
1,31,107,128
1,31,119,246
1,33,123,134
1,35,119,130
1,36,99,64
1,36,99,96
1,36,111,1028
1,31,95,126
1,31,107,82
1,35,107,996
1,36,115,18
1,36,107,66
1,36,115,1000
1,31,107,0
1,31,111,82
1,36,99,1154
1,36,99,96
1,36,111,1024
1,31,95,0
1,31,107,82
1,35,107,996
1,36,115,18
1,36,107,66
1,36,115,1028
1,31,107,126
1,31,111,94
1,36,99,1150
1,36,99,96
1,36,111,1022
1,31,95,0
1,31,107,82
1,35,107,992
1,36,115,16
1,36,107,62
1,36,115,1002
1,31,107,0
1,31,111,78
1,31,99,180
1,31,99,48
1,33,119,66
1,35,107,376
1,36,99,124
1,36,99,96
1,36,111,1028
1,31,95,0
1,31,107,82
1,35,107,992
1,36,115,16
1,36,107,64
1,36,115,1008
1,31,107,0
1,31,119,236
1,33,123,136
1,35,119,140
1,36,91,64
1,36,91,80
1,31,91,624
1,33,91,136
1,36,91,242
1,38,91,50
1,38,91,66
1,31,91,626
1,38,91,34
1,31,91,0
1,40,91,40
1,40,91,48
1,38,91,338
1,40,91,190
1,38,91,180
1,33,91,194
1,31,91,82
1,33,91,396
1,36,99,128
1,36,99,96
1,36,111,1024
1,31,95,130
1,31,107,82
1,35,107,994
1,36,115,20
1,36,107,70
1,36,115,1000
1,31,107,0
1,31,111,80
1,36,99,1150
1,36,99,98
1,36,111,1026
1,31,95,0
1,31,107,78
1,35,107,996
1,36,115,16
1,36,107,64
1,36,115,1002
1,31,107,0
1,31,111,98
1,31,99,192
1,31,99,48
1,33,119,66
1,35,107,374
1,36,99,124
1,36,99,98
1,36,111,1026
1,31,95,0
1,31,107,82
1,35,107,990
1,36,115,18
1,36,107,66
1,36,115,1024
1,31,107,130
1,31,119,256
1,33,123,118
1,35,119,140
1,36,99,70
1,36,99,96
1,36,111,1026
1,31,95,0
1,31,107,80
1,35,107,988
1,36,115,14
1,36,107,66
1,36,115,1026
1,31,107,0
1,31,111,96
1,36,99,1144
1,36,99,96
1,36,111,1028
1,31,95,0
1,31,107,80
1,35,107,992
1,36,115,20
1,36,107,62
1,36,115,1008
1,31,107,0
1,31,111,84
1,36,99,1152
1,36,99,94
1,36,111,1028
1,31,95,0
1,31,107,80
1,35,107,1002
1,36,115,14
1,36,107,64
1,36,115,1002
1,31,107,126
1,31,111,80
1,36,99,1162
1,36,99,94
1,36,111,1024
1,31,95,128
1,31,107,78
1,35,107,992
1,36,115,16
1,36,107,62
1,36,115,1024
1,31,107,130
1,31,111,98
1,36,99,1146
1,36,99,96
1,36,111,1026
1,31,95,128
1,31,107,80
1,35,107,992
1,36,115,18
1,36,107,62
1,36,115,996
1,31,107,0
1,31,111,94
1,36,99,1154
1,36,99,98
1,36,111,1028
1,31,95,126
1,31,107,84
1,35,107,990
1,36,115,18
1,36,99,2908
1,36,99,96
1,36,111,1024
1,31,95,0
1,31,107,80
1,35,107,994
1,36,115,16
1,36,107,64
1,36,115,1022
1,31,107,128
1,31,111,94
1,36,99,1142
1,36,99,94
1,36,111,1026
1,31,95,0
1,31,107,86
1,35,107,994
1,36,115,14
1,36,107,66
1,36,115,1026
1,31,107,0
1,31,111,80
1,36,99,1142
1,36,99,94
1,36,111,1024
1,31,95,124
1,31,107,78
1,35,107,994
1,36,115,20
1,36,107,64
1,36,115,1024
1,31,107,128
1,31,111,94
1,36,99,1142
1,36,99,96
1,36,111,1024
1,31,95,130
1,31,107,80
1,35,107,994
1,36,115,22
1,36,107,64
1,36,115,1002
1,31,107,0
1,31,111,80
1,36,119,1168
2,79,63,2
2,77,63,1532
2,76,67,1510
2,67,71,352
2,77,47,0
2,79,71,1530
2,77,79,312
2,76,63,188
2,74,79,14
2,76,87,196
2,72,55,352
2,67,79,158
2,79,67,0
2,60,67,196
2,72,67,68
2,53,43,0
2,77,67,0
2,65,63,50
2,48,39,0
2,76,67,0
2,60,59,20
2,64,59,290
2,55,59,0
2,74,59,0
2,59,55,244
2,62,79,380
2,66,107,4860
2,67,95,0
2,65,103,58
2,63,115,240
2,62,87,254
2,48,79,168
2,64,91,386
2,67,87,0
2,62,87,0
2,64,111,584
2,60,95,0
2,67,107,0
2,62,91,0
2,43,91,190
2,67,107,322
2,62,95,0
2,59,91,0
2,62,111,622
2,67,111,0
2,59,91,0
2,48,71,24
2,67,111,390
2,62,95,0
2,64,99,0
2,60,95,0
2,60,91,620
2,67,103,0
2,64,95,0
2,62,87,0
2,43,91,0
2,62,99,386
2,59,91,0
2,67,95,0
2,62,95,636
2,59,83,0
2,67,99,0
2,48,75,194
2,72,75,336
2,64,95,16
2,60,87,0
2,67,95,0
2,62,87,0
2,67,31,20
2,64,59,48
2,72,91,36
2,64,59,0
2,72,91,36
2,62,99,30
2,60,99,0
2,67,111,0
2,64,111,0
2,64,79,32
2,43,91,36
2,67,79,16
2,72,99,0
2,67,67,50
2,72,63,14
2,64,79,20
2,67,71,50
2,59,91,0
2,62,95,0
2,67,107,0
2,72,95,0
2,72,63,0
2,67,55,0
2,64,87,14
2,67,83,86
2,72,103,0
2,67,43,62
2,72,71,0
2,64,91,16
2,67,87,80
2,62,111,0
2,59,95,0
2,67,111,0
2,72,99,0
2,67,47,0
2,72,75,0
2,64,91,30
2,67,91,26
2,72,99,0
2,48,71,0
2,67,59,64
2,72,79,16
2,64,75,36
2,72,99,66
2,70,75,30
2,67,71,0
2,64,111,0
2,62,99,0
2,60,99,0
2,67,103,0
2,67,63,48
2,72,59,14
2,64,95,30
2,67,91,70
2,72,107,0
2,72,83,82
2,67,71,12
2,64,91,20
2,72,111,36
2,64,111,26
2,60,107,0
2,62,99,0
2,67,111,0
2,66,119,0
2,67,79,0
2,64,107,20
2,43,107,72
2,66,123,246
2,67,103,0
2,65,119,38
2,63,111,262
2,62,115,264
2,48,83,16
2,64,99,398
2,67,103,0
2,62,95,0
2,60,95,0
2,64,103,622
2,67,107,0
2,60,103,0
2,62,103,0
2,43,95,242
2,59,103,312
2,67,107,0
2,62,99,0
2,60,99,624
2,62,91,0
2,64,91,0
2,67,103,0
2,48,75,52
2,64,99,396
2,60,95,0
2,67,103,0
2,62,91,0
2,64,111,652
2,62,95,0
2,60,99,0
2,67,99,0
2,43,95,0
2,62,111,390
2,67,111,0
2,59,95,0
2,62,111,654
2,59,95,0
2,67,111,0
2,55,115,572
2,64,115,0
2,60,119,0
2,64,119,590
2,55,111,0
2,60,123,0
2,59,119,590
2,62,115,0
2,55,115,0
2,65,115,0
2,62,119,608
2,55,111,0
2,65,111,0
2,59,103,0
2,64,115,590
2,60,119,0
2,55,107,0
2,60,119,594
2,64,115,0
2,55,111,0
2,65,111,606
2,59,115,0
2,62,115,0
2,55,111,0
2,65,107,580
2,62,115,0
2,59,111,0
2,55,115,0
2,55,115,572
2,64,115,0
2,60,119,0
2,64,119,572
2,55,111,0
2,60,123,0
2,59,119,590
2,62,115,0
2,55,115,0
2,65,115,0
2,62,119,608
2,55,111,0
2,65,111,0
2,59,103,0
2,64,115,592
2,60,119,0
2,55,107,0
2,60,119,604
2,64,115,0
2,55,111,0
2,65,111,594
2,59,115,0
2,62,115,0
2,55,111,0
2,65,107,586
2,62,115,0
2,59,111,0
2,55,115,0
2,64,79,416
2,72,107,18
2,67,95,0
2,64,87,0
2,67,91,48
2,72,107,0
2,64,95,12
2,72,107,22
2,67,95,0
2,64,63,0
2,72,111,48
2,67,91,16
2,62,79,0
2,64,75,20
2,72,103,20
2,67,91,16
2,64,91,0
2,72,103,38
2,67,91,0
2,62,87,0
2,72,107,16
2,67,91,26
2,64,107,0
2,67,99,16
2,72,107,0
2,72,99,50
2,67,59,0
2,64,95,12
2,72,103,50
2,67,83,20
2,72,95,34
2,67,91,0
2,64,79,32
2,67,91,70
2,72,99,0
2,72,99,86
2,67,75,0
2,64,107,16
2,72,111,52
2,67,99,0
2,70,95,18
2,67,107,66
2,72,95,0
2,64,107,116
2,67,119,292
2,66,123,0
2,69,63,34
2,65,115,50
2,65,103,208
2,67,91,0
2,63,111,22
2,62,115,192
2,55,111,592
2,64,115,14
2,60,119,0
2,64,115,584
2,55,111,0
2,60,123,0
2,65,91,922
2,62,95,0
2,59,91,0
2,55,107,0
2,62,111,114
2,59,95,28
2,55,111,0
2,65,111,0
2,64,111,478
2,55,107,0
2,60,115,0
2,55,95,550
2,60,99,0
2,64,99,0
2,62,115,180
2,57,119,0
2,58,111,0
2,59,91,0
2,55,75,20
2,52,99,30
2,57,83,16
2,55,111,208
2,59,115,0
2,50,79,0
2,55,99,42
2,64,75,552
2,67,63,0
2,67,83,568
2,64,87,0
2,67,87,546
2,62,83,0
2,67,83,572
2,62,87,0
2,67,91,562
2,64,91,0
2,64,91,586
2,67,87,0
2,67,87,604
2,62,87,0
2,67,91,578
2,62,91,0
2,64,83,3642
2,67,83,0
2,62,83,0
2,60,75,8
2,67,87,618
2,60,87,0
2,62,87,0
2,64,83,0
2,59,55,598
2,62,91,0
2,67,87,0
2,67,87,554
2,62,63,26
2,59,83,0
2,60,15,370
2,67,91,24
2,64,91,0
2,62,87,0
2,60,43,32
2,67,95,42
2,62,91,0
2,64,91,0
2,60,71,0
2,67,91,42
2,62,91,0
2,64,95,0
2,60,91,248
2,59,67,304
2,62,99,100
2,67,103,12
2,59,51,14
2,67,111,56
2,62,111,0
2,67,103,128
2,62,95,0
2,59,95,260
2,60,79,322
2,64,99,36
2,67,103,0
2,62,99,0
2,60,83,16
2,62,95,60
2,64,107,0
2,67,107,0
2,60,95,0
2,62,91,134
2,64,91,0
2,67,91,0
2,60,91,226
2,67,111,472
2,62,111,0
2,59,107,620
2,62,115,0
2,67,115,0
2,67,103,590
2,62,91,0
2,64,99,0
2,60,91,16
2,62,87,584
2,67,99,0
2,64,95,0
2,60,91,8
2,62,95,600
2,59,91,0
2,67,107,0
2,59,91,620
2,67,103,0
2,62,99,0
2,60,87,574
2,64,87,0
2,62,79,0
2,67,91,0
2,63,119,576
2,67,107,14
2,62,115,0
2,64,115,0
2,60,95,0
2,59,115,400
2,62,115,0
2,55,111,0
2,58,115,224
2,62,91,12
2,59,91,0
2,55,83,0
2,52,91,34
2,64,75,606
2,67,63,0
2,67,83,546
2,64,87,0
2,67,87,554
2,62,83,0
2,67,83,568
2,62,87,0
2,67,91,564
2,64,91,0
2,64,91,598
2,67,87,0
2,67,87,606
2,62,87,0
2,67,91,578
2,62,91,0
2,60,95,598
2,64,83,0
2,60,95,572
2,64,91,20
2,62,91,576
2,65,95,0
2,65,103,582
2,62,111,0
2,67,107,548
2,64,111,0
