track,note,velocity,time
1,63,64,0
1,59,64,0
1,63,64,12
1,59,64,0
1,63,64,12
1,59,64,0
1,63,64,12
1,59,64,0
1,59,64,12
1,71,64,216
1,59,64,24
1,57,64,24
1,59,64,24
1,59,64,24
1,59,64,24
1,59,64,24
1,71,64,216
1,59,64,24
1,57,64,24
1,59,64,24
1,59,64,24
1,59,64,24
1,59,64,24
1,71,64,216
1,59,64,24
1,57,64,24
1,59,64,24
1,59,64,24
1,59,64,24
1,59,64,24
1,71,64,216
1,59,64,24
1,57,64,24
1,59,64,24
1,59,64,24
1,59,64,24
1,69,64,120
1,69,64,24
1,69,64,24
1,69,64,24
1,69,64,24
1,69,64,24
1,69,64,24
1,70,64,24
1,70,64,24
1,71,64,24
1,64,64,312
1,62,64,24
1,69,64,120
1,69,64,24
1,69,64,24
1,69,64,24
1,69,64,24
1,69,64,24
1,69,64,24
1,69,64,24
1,70,64,24
1,70,64,24
1,71,64,24
1,64,64,24
1,62,64,24
1,59,64,24
1,69,64,120
1,69,64,24
1,69,64,24
1,69,64,24
1,69,64,24
1,69,64,24
1,69,64,24
1,70,64,24
1,70,64,24
1,71,64,24
1,64,64,312
1,62,64,24
1,69,64,120
1,69,64,24
1,69,64,24
1,69,64,24
1,69,64,24
1,69,64,24
1,69,64,24
1,69,64,24
1,70,64,24
1,70,64,24
1,71,64,24
1,64,64,24
1,62,64,24
1,59,64,120
1,65,64,24
1,64,64,24
1,71,64,24
1,59,64,24
1,59,64,120
1,65,64,24
1,64,64,24
1,65,64,24
1,64,64,24
1,59,64,120
1,65,64,24
1,64,64,24
1,71,64,24
1,59,64,24
1,59,64,120
1,65,64,24
1,64,64,24
1,65,64,24
1,64,64,24
1,59,64,120
1,65,64,24
1,64,64,24
1,71,64,24
1,59,64,24
1,59,64,120
1,65,64,24
1,64,64,24
1,65,64,24
1,64,64,24
1,59,64,120
1,65,64,24
1,64,64,24
1,71,64,24
1,59,64,24
1,59,64,120
1,65,64,24
1,64,64,24
1,65,64,24
1,64,64,24
1,59,64,120
1,65,64,24
1,64,64,24
1,71,64,24
1,59,64,24
1,59,64,120
1,65,64,24
1,64,64,24
1,65,64,24
1,64,64,24
1,59,64,120
1,65,64,24
1,64,64,24
1,71,64,24
1,59,64,24
1,59,64,120
1,65,64,24
1,64,64,24
1,65,64,24
1,64,64,24
1,59,64,24
1,66,64,24
1,64,64,24
1,59,64,24
1,66,64,24
1,64,64,24
1,59,64,24
1,66,64,24
1,64,64,24
1,59,64,24
1,66,64,24
1,64,64,24
1,59,64,24
1,66,64,24
1,64,64,24
1,63,64,120
1,75,64,12
1,63,64,12
1,78,64,12
1,66,64,12
1,75,64,12
1,63,64,12
1,61,64,108
1,73,64,12
1,61,64,12
1,78,64,12
1,66,64,12
1,73,64,12
1,61,64,12
1,62,64,108
1,74,64,12
1,62,64,12
1,78,64,12
1,66,64,12
1,81,64,12
1,69,64,12
1,81,64,12
1,69,64,12
1,79,64,12
1,67,64,12
1,74,64,12
1,62,64,12
1,76,64,12
1,64,64,12
1,63,64,108
1,75,64,12
1,63,64,12
1,78,64,12
1,66,64,12
1,75,64,12
1,63,64,12
1,61,64,108
1,73,64,12
1,61,64,12
1,78,64,12
1,66,64,12
1,73,64,12
1,61,64,12
1,62,64,108
1,74,64,12
1,62,64,12
1,78,64,12
1,66,64,12
1,81,64,12
1,69,64,12
1,81,64,12
1,69,64,12
1,79,64,12
1,67,64,12
1,74,64,12
1,62,64,12
1,76,64,12
1,64,64,12
1,78,64,12
1,66,64,12
1,76,64,12
1,64,64,12
1,71,64,12
1,59,64,12
1,69,64,12
1,57,64,12
1,71,64,12
1,59,64,12
1,69,64,12
1,57,64,12
1,64,64,12
1,52,64,12
1,62,64,12
1,50,64,12
1,64,64,12
1,52,64,12
1,62,64,12
1,50,64,12
1,59,64,12
1,47,64,12
1,57,64,12
1,45,64,12
1,59,64,12
1,59,64,216
1,61,64,0
1,59,64,24
1,59,64,24
1,61,64,24
1,59,64,24
1,59,64,216
1,61,64,24
1,59,64,24
1,63,64,24
1,61,64,24
1,59,64,24
1,63,64,24
1,61,64,24
1,59,64,24
1,59,64,24
1,57,64,24
1,57,64,24
1,59,64,24
1,57,64,24
1,57,64,24
1,59,64,24
1,54,64,24
1,65,64,2328
1,59,64,0
1,56,64,0
1,62,64,12
1,65,64,12
1,59,64,0
1,56,64,0
1,62,64,12
1,65,64,12
1,62,64,0
1,59,64,0
1,62,64,12
1,65,64,0
1,68,64,0
1,65,64,12
1,62,64,0
1,59,64,0
1,59,64,12
1,62,64,0
1,62,64,12
1,65,64,0
1,62,64,12
1,59,64,0
1,54,64,0
1,65,64,12
1,59,64,0
1,56,64,0
1,62,64,12
1,65,64,12
1,59,64,0
1,56,64,0
1,62,64,12
1,65,64,12
1,62,64,0
1,59,64,0
1,62,64,12
1,65,64,0
1,68,64,0
1,65,64,12
1,62,64,0
1,59,64,0
1,59,64,12
1,62,64,0
1,62,64,12
1,65,64,0
1,62,64,12
1,59,64,0
1,54,64,0
1,63,64,108
1,75,64,12
1,63,64,12
1,78,64,12
1,66,64,12
1,75,64,12
1,63,64,12
1,61,64,108
1,73,64,12
1,61,64,12
1,78,64,12
1,66,64,12
1,73,64,12
1,61,64,12
1,62,64,108
1,74,64,12
1,62,64,12
1,78,64,12
1,66,64,12
1,81,64,12
1,69,64,12
1,81,64,12
1,69,64,12
1,79,64,12
1,67,64,12
1,74,64,12
1,62,64,12
1,76,64,12
1,64,64,12
1,63,64,108
1,75,64,12
1,63,64,12
1,78,64,12
1,66,64,12
1,75,64,12
1,63,64,12
1,61,64,108
1,73,64,12
1,61,64,12
1,78,64,12
1,66,64,12
1,73,64,12
1,61,64,12
1,62,64,108
1,74,64,12
1,62,64,12
1,78,64,12
1,66,64,12
1,81,64,12
1,69,64,12
1,81,64,12
1,69,64,12
1,79,64,12
1,67,64,12
1,74,64,12
1,62,64,12
1,76,64,12
1,64,64,12
1,78,64,12
1,66,64,12
1,76,64,12
1,64,64,12
1,71,64,12
1,59,64,12
1,69,64,12
1,57,64,12
1,71,64,12
1,59,64,12
1,69,64,12
1,57,64,12
1,64,64,12
1,52,64,12
1,62,64,12
1,50,64,12
1,64,64,12
1,52,64,12
1,62,64,12
1,50,64,12
1,59,64,12
1,47,64,12
1,57,64,12
1,45,64,12
1,59,64,12
1,63,64,6252
1,75,64,12
1,63,64,12
1,78,64,12
1,66,64,12
1,75,64,12
1,63,64,12
1,61,64,108
1,73,64,12
1,61,64,12
1,78,64,12
1,66,64,12
1,73,64,12
1,61,64,12
1,62,64,108
1,74,64,12
1,62,64,12
1,78,64,12
1,66,64,12
1,81,64,12
1,69,64,12
1,81,64,12
1,69,64,12
1,79,64,12
1,67,64,12
1,74,64,12
1,62,64,12
1,76,64,12
1,64,64,12
1,63,64,108
1,75,64,12
1,63,64,12
1,78,64,12
1,66,64,12
1,75,64,12
1,63,64,12
1,61,64,108
1,73,64,12
1,61,64,12
1,78,64,12
1,66,64,12
1,73,64,12
1,61,64,12
1,62,64,108
1,74,64,12
1,62,64,12
1,78,64,12
1,66,64,12
1,81,64,12
1,69,64,12
1,81,64,12
1,69,64,12
1,79,64,12
1,67,64,12
1,74,64,12
1,62,64,12
1,76,64,12
1,64,64,12
1,78,64,12
1,66,64,12
1,76,64,12
1,64,64,12
1,71,64,12
1,59,64,12
1,69,64,12
1,57,64,12
1,71,64,12
1,59,64,12
1,69,64,12
1,57,64,12
1,64,64,12
1,52,64,12
1,62,64,12
1,50,64,12
1,64,64,12
1,52,64,12
1,62,64,12
1,50,64,12
1,59,64,12
1,47,64,12
1,57,64,12
1,45,64,12
1,63,64,108
1,75,64,12
1,63,64,12
1,78,64,12
1,66,64,12
1,75,64,12
1,63,64,12
1,61,64,108
1,73,64,12
1,61,64,12
1,78,64,12
1,66,64,12
1,73,64,12
1,61,64,12
1,62,64,108
1,74,64,12
1,62,64,12
1,78,64,12
1,66,64,12
1,81,64,12
1,69,64,12
1,81,64,12
1,69,64,12
1,79,64,12
1,67,64,12
1,74,64,12
1,62,64,12
1,76,64,12
1,64,64,12
1,63,64,108
1,75,64,12
1,63,64,12
1,78,64,12
1,66,64,12
1,75,64,12
1,63,64,12
1,61,64,108
1,73,64,12
1,61,64,12
1,78,64,12
1,66,64,12
1,73,64,12
1,61,64,12
1,62,64,108
1,74,64,12
1,62,64,12
1,78,64,12
1,66,64,12
1,81,64,12
1,69,64,12
1,81,64,12
1,69,64,12
1,79,64,12
1,67,64,12
1,74,64,12
1,62,64,12
1,76,64,12
1,64,64,12
1,63,64,108
1,63,64,24
1,63,64,24
1,66,64,24
1,63,64,12
1,62,64,12
1,59,64,12
1,57,64,12
1,52,64,12
1,63,64,108
1,63,64,24
1,63,64,24
1,66,64,24
1,63,64,12
1,62,64,12
1,59,64,12
1,61,64,12
1,64,64,12
1,63,64,108
1,63,64,24
1,63,64,24
1,66,64,24
1,63,64,12
1,62,64,12
1,59,64,12
1,57,64,12
1,52,64,12
1,63,64,108
1,63,64,24
1,63,64,24
1,66,64,24
1,63,64,12
1,62,64,12
1,59,64,12
1,61,64,12
1,64,64,12
1,63,64,108
1,66,64,0
1,66,64,24
1,63,64,0
1,63,64,24
1,66,64,0
1,66,64,24
1,71,64,0
1,66,64,12
1,63,64,0
1,66,64,108
1,69,64,0
1,69,64,24
1,66,64,0
1,66,64,24
1,69,64,0
1,69,64,24
1,73,64,0
1,69,64,12
1,66,64,0
1,66,64,108
1,69,64,0
1,69,64,24
1,66,64,0
1,66,64,24
1,69,64,0
1,69,64,24
1,74,64,0
1,69,64,12
1,66,64,0
1,73,64,12
1,69,64,0
1,71,64,12
1,67,64,0
1,66,64,12
1,62,64,0
1,64,64,12
1,67,64,0
1,63,64,84
1,66,64,0
1,66,64,24
1,63,64,0
1,63,64,24
1,66,64,0
1,66,64,24
1,71,64,0
1,66,64,12
1,63,64,0
1,66,64,108
1,69,64,0
1,69,64,24
1,66,64,0
1,66,64,24
1,69,64,0
1,69,64,24
1,73,64,0
1,69,64,12
1,66,64,0
1,66,64,108
1,69,64,0
1,69,64,24
1,66,64,0
1,66,64,24
1,69,64,0
1,69,64,24
1,74,64,0
1,69,64,12
1,66,64,0
1,73,64,12
1,69,64,0
1,71,64,12
1,67,64,0
1,66,64,12
1,62,64,0
1,64,64,12
1,67,64,0
1,63,64,60
1,66,64,0
1,66,64,24
1,63,64,0
1,63,64,24
1,66,64,0
1,66,64,24
1,71,64,0
1,66,64,12
1,63,64,0
1,66,64,108
1,69,64,0
1,69,64,24
1,66,64,0
1,66,64,24
1,69,64,0
1,69,64,24
1,73,64,0
1,69,64,12
1,66,64,0
1,66,64,108
1,69,64,0
1,69,64,24
1,66,64,0
1,66,64,24
1,69,64,0
1,69,64,24
1,74,64,0
1,69,64,12
1,66,64,0
1,73,64,12
1,69,64,0
1,71,64,12
1,67,64,0
1,66,64,12
1,62,64,0
1,64,64,12
1,67,64,0
1,63,64,48
1,66,64,0
1,66,64,24
1,63,64,0
1,63,64,24
1,66,64,0
1,66,64,24
1,71,64,0
1,66,64,12
1,63,64,0
1,66,64,108
1,69,64,0
1,69,64,24
1,66,64,0
1,66,64,24
1,69,64,0
1,69,64,24
1,73,64,0
1,69,64,12
1,66,64,0
1,66,64,108
1,69,64,0
1,69,64,24
1,66,64,0
1,66,64,24
1,69,64,0
1,69,64,24
1,74,64,0
1,69,64,12
1,66,64,0
1,73,64,12
1,69,64,0
1,71,64,12
1,67,64,0
1,66,64,12
1,62,64,0
1,64,64,12
1,67,64,0
2,47,64,36
2,38,64,24
2,47,64,24
2,38,64,24
2,47,64,24
2,47,64,168
2,47,64,24
2,35,64,24
2,47,64,24
2,47,64,72
2,38,64,24
2,47,64,24
2,38,64,24
2,47,64,24
2,47,64,168
2,47,64,24
2,35,64,24
2,47,64,24
2,47,64,72
2,38,64,24
2,47,64,24
2,38,64,24
2,47,64,24
2,47,64,168
2,47,64,24
2,35,64,24
2,47,64,24
2,47,64,72
2,35,64,24
2,47,64,24
2,47,64,72
2,38,64,24
2,47,64,24
2,38,64,24
2,47,64,24
2,47,64,168
2,47,64,24
2,35,64,24
2,47,64,24
2,47,64,72
2,38,64,24
2,47,64,24
2,38,64,24
2,47,64,24
2,47,64,168
2,47,64,24
2,35,64,24
2,47,64,24
2,47,64,72
2,38,64,24
2,47,64,24
2,38,64,24
2,47,64,24
2,47,64,168
2,47,64,24
2,35,64,24
2,47,64,24
2,47,64,72
2,35,64,24
2,47,64,24
2,47,64,72
2,38,64,24
2,47,64,24
2,38,64,24
2,47,64,24
2,47,64,168
2,47,64,24
2,35,64,24
2,47,64,24
2,47,64,72
2,38,64,24
2,47,64,24
2,38,64,24
2,47,64,24
2,47,64,168
2,47,64,24
2,35,64,24
2,47,64,24
2,47,64,72
2,38,64,24
2,47,64,24
2,38,64,24
2,47,64,24
2,47,64,168
2,47,64,24
2,35,64,24
2,47,64,24
2,47,64,72
2,35,64,24
2,47,64,24
2,47,64,72
2,38,64,24
2,47,64,24
2,38,64,24
2,47,64,24
2,47,64,168
2,47,64,24
2,35,64,24
2,47,64,24
2,47,64,72
2,38,64,24
2,47,64,24
2,38,64,24
2,47,64,24
2,47,64,168
2,47,64,24
2,35,64,24
2,47,64,24
2,47,64,72
2,38,64,24
2,47,64,24
2,38,64,24
2,47,64,24
2,47,64,168
2,47,64,24
2,35,64,24
2,47,64,24
2,47,64,72
2,35,64,24
2,47,64,24
2,35,64,120
2,35,64,24
2,35,64,24
2,47,64,24
2,35,64,120
2,35,64,24
2,35,64,24
2,35,64,24
2,47,64,24
2,35,64,120
2,35,64,24
2,35,64,24
2,47,64,24
2,35,64,120
2,35,64,24
2,35,64,24
2,35,64,24
2,47,64,24
2,35,64,120
2,35,64,24
2,35,64,24
2,47,64,24
2,35,64,120
2,35,64,24
2,35,64,24
2,35,64,24
2,47,64,24
2,35,64,120
2,35,64,24
2,35,64,24
2,47,64,24
2,35,64,120
2,35,64,24
2,35,64,24
2,35,64,24
2,47,64,24
2,47,64,24
2,35,64,24
2,35,64,24
2,35,64,24
2,47,64,216
2,35,64,24
2,35,64,24
2,35,64,24
2,47,64,216
2,35,64,24
2,35,64,24
2,35,64,24
2,35,64,24
2,47,64,24
2,35,64,24
2,35,64,24
2,35,64,24
2,35,64,24
2,47,64,24
2,35,64,24
2,35,64,24
2,35,64,24
2,47,64,216
2,35,64,24
2,35,64,24
2,35,64,24
2,47,64,216
2,35,64,24
2,35,64,24
2,35,64,24
2,35,64,24
2,47,64,24
2,35,64,24
2,35,64,24
2,35,64,24
2,35,64,24
2,35,64,24
2,47,64,24
2,35,64,24
2,47,64,24
2,35,64,24
2,47,64,24
2,35,64,24
2,35,64,216
2,47,64,24
2,35,64,24
2,47,64,24
2,35,64,24
2,47,64,24
2,35,64,24
2,35,64,216
2,47,64,24
2,35,64,24
2,47,64,24
2,35,64,24
2,47,64,24
2,35,64,24
2,35,64,216
2,47,64,24
2,35,64,24
2,47,64,24
2,35,64,24
2,47,64,24
2,31,64,24
2,43,64,24
2,31,64,24
2,43,64,24
2,31,64,24
2,43,64,24
2,31,64,24
2,43,64,24
2,31,64,24
2,31,64,216
2,43,64,24
2,31,64,24
2,43,64,24
2,31,64,24
2,43,64,24
2,31,64,24
2,33,64,24
2,33,64,24
2,45,64,24
2,33,64,24
2,45,64,24
2,33,64,24
2,45,64,24
2,33,64,24
2,33,64,216
2,45,64,24
2,33,64,24
2,45,64,24
2,33,64,24
2,45,64,24
2,31,64,24
2,31,64,216
2,43,64,24
2,31,64,24
2,43,64,24
2,31,64,24
2,43,64,24
2,31,64,24
2,31,64,216
2,43,64,24
2,31,64,24
2,43,64,24
2,31,64,24
2,43,64,24
2,33,64,24
2,33,64,24
2,33,64,24
2,45,64,24
2,33,64,24
2,45,64,24
2,33,64,24
2,45,64,24
2,33,64,24
2,33,64,216
