track,note,velocity,time
1,36,100,288
1,36,100,0
1,36,100,0
1,36,100,0
1,36,100,0
1,36,100,0
1,36,100,0
1,36,100,0
1,36,100,0
1,36,100,0
1,36,100,0
1,36,100,0
1,36,100,0
1,36,100,0
1,36,100,0
1,36,100,0
1,36,100,0
1,36,100,0
1,36,100,0
1,36,100,0
1,36,100,0
1,36,100,0
1,36,100,0
1,36,100,0
1,36,100,0
1,36,100,0
1,36,100,0
1,36,100,0
1,36,100,0
1,36,100,0
1,36,100,0
1,36,100,0
1,36,100,0
1,36,100,0
1,36,100,0
1,36,100,0
1,36,100,0
1,36,100,0
1,36,100,0
1,36,100,0
1,36,100,0
1,36,100,0
1,36,100,0
1,36,100,0
1,36,100,0
1,36,100,0
1,36,100,0
1,36,100,0
1,36,100,0
1,36,100,0
1,36,100,0
1,36,100,0
1,36,100,0
1,36,100,0
1,36,100,0
1,36,100,0
1,36,100,0
1,36,100,0
1,36,100,0
1,36,100,0
1,36,100,0
1,36,100,0
1,36,100,0
1,36,100,0
1,29,100,0
1,29,100,0
1,29,100,0
1,29,100,0
1,29,100,0
1,29,100,0
1,29,100,0
1,29,100,0
1,29,100,0
1,29,100,0
1,29,100,0
1,29,100,0
1,29,100,0
1,29,100,0
1,29,100,0
1,29,100,0
1,31,100,0
1,31,100,0
1,31,100,0
1,31,100,0
1,31,100,0
1,31,100,0
1,31,100,0
1,31,100,0
1,31,100,0
1,31,100,0
1,31,100,0
1,31,100,0
1,31,100,0
1,31,100,0
1,31,100,0
1,31,100,0
1,31,100,0
1,31,100,0
1,31,100,0
1,31,100,0
1,31,100,0
1,31,100,0
1,31,100,0
1,31,100,0
1,31,100,0
1,31,100,0
1,31,100,0
1,31,100,0
1,31,100,0
1,31,100,0
1,31,100,0
1,36,100,0
1,36,100,0
1,36,100,0
1,36,100,0
1,36,100,0
1,36,100,0
1,36,100,0
1,36,100,0
1,36,100,0
1,36,100,0
1,36,100,0
1,36,100,0
1,36,100,0
1,36,100,0
1,36,100,0
1,36,100,0
1,36,100,0
1,36,100,0
1,36,100,0
1,36,100,0
1,36,100,0
1,36,100,0
1,36,100,0
1,36,100,0
1,36,100,0
1,36,100,0
1,36,100,0
1,36,100,0
1,36,100,0
1,36,100,0
1,36,100,0
1,36,100,0
1,36,100,0
1,36,100,0
1,36,100,0
1,36,100,0
1,36,100,0
1,36,100,0
1,36,100,0
1,36,100,0
1,36,100,0
1,36,100,0
1,36,100,0
1,36,100,0
1,36,100,0
1,36,100,0
1,36,100,0
1,36,100,0
1,36,100,0
1,36,100,0
1,36,100,0
1,36,100,0
1,36,100,0
1,36,100,0
1,36,100,0
1,36,100,0
1,36,100,0
1,36,100,0
1,36,100,0
1,36,100,0
1,36,100,0
1,36,100,0
1,36,100,0
1,36,100,0
1,36,100,0
1,36,100,0
1,36,100,0
1,36,100,0
1,36,100,0
1,36,100,0
1,36,100,0
1,36,100,0
1,36,100,0
1,36,100,0
1,36,100,0
1,36,100,0
1,36,100,0
1,36,100,0
1,36,100,0
1,36,100,0
1,36,100,0
1,36,100,0
1,36,100,0
1,36,100,0
1,36,100,0
1,36,100,0
1,36,100,0
1,36,100,0
1,36,100,0
1,36,100,0
1,36,100,0
1,36,100,0
1,36,100,0
1,36,100,0
1,36,100,0
1,36,100,0
1,36,100,0
1,36,100,0
1,36,100,0
1,36,100,0
1,36,100,0
1,36,100,0
1,36,100,0
1,36,100,0
1,36,100,0
1,36,100,0
1,36,100,0
1,36,100,0
1,36,100,0
1,36,100,0
1,36,100,0
1,36,100,0
1,36,100,0
1,36,100,0
1,36,100,0
1,36,100,0
1,36,100,0
1,36,100,0
1,36,100,0
1,36,100,0
1,36,100,0
1,36,100,0
1,36,100,0
1,36,100,0
1,36,100,0
1,36,100,0
1,36,100,0
1,36,100,0
1,36,100,0
1,36,100,0
1,36,100,0
1,36,100,0
1,36,100,0
1,36,100,0
1,36,100,0
1,36,100,0
1,36,100,0
1,36,100,0
1,36,100,0
1,36,100,0
1,36,100,0
1,36,100,0
1,36,100,0
1,36,100,0
1,36,100,0
1,36,100,0
1,36,100,0
1,36,100,0
1,36,100,0
1,36,100,0
1,36,100,0
1,36,100,0
1,36,100,0
1,36,100,0
1,36,100,0
1,36,100,0
1,36,100,0
1,36,100,0
1,31,100,0
1,31,100,0
1,31,100,0
1,31,100,0
1,31,100,0
1,31,100,0
1,31,100,0
1,31,100,0
1,31,100,0
1,31,100,0
1,31,100,0
1,31,100,0
1,31,100,0
1,31,100,0
1,31,100,0
1,31,100,0
1,31,100,0
1,31,100,0
1,31,100,0
1,31,100,0
1,31,100,0
1,31,100,0
1,31,100,0
1,31,100,0
1,31,100,0
1,31,100,0
1,31,100,0
1,31,100,0
1,31,100,0
1,31,100,0
1,31,100,0
1,31,100,0
1,31,100,0
1,31,100,0
1,31,100,0
1,31,100,0
1,31,100,0
1,31,100,0
1,31,100,0
1,31,100,0
1,31,100,0
1,31,100,0
1,31,100,0
1,31,100,0
1,31,100,0
1,31,100,0
1,31,100,0
1,31,100,0
1,31,100,0
1,31,100,0
1,31,100,0
1,31,100,0
1,31,100,0
1,31,100,0
1,31,100,0
1,31,100,0
1,31,100,0
1,31,100,0
1,31,100,0
1,31,100,0
1,31,100,0
1,35,100,0
1,36,100,0
1,36,100,0
1,36,100,0
1,36,100,0
1,36,100,0
1,36,100,0
1,36,100,0
1,36,100,0
1,36,100,0
1,36,100,0
1,36,100,0
1,36,100,0
1,36,100,0
1,36,100,0
1,36,100,0
1,36,100,0
1,36,100,0
1,36,100,0
1,36,100,0
1,36,100,0
1,36,100,0
1,36,100,0
1,36,100,0
1,36,100,0
1,36,100,0
1,36,100,0
1,36,100,0
1,36,100,0
1,36,100,0
1,36,100,0
1,36,100,0
1,36,100,0
1,36,100,0
1,36,100,0
1,36,100,0
1,36,100,0
1,36,100,0
1,36,100,0
1,36,100,0
1,36,100,0
1,36,100,0
1,36,100,0
1,36,100,0
1,36,100,0
1,36,100,0
1,36,100,0
1,36,100,0
1,36,100,0
1,36,100,0
1,36,100,0
1,36,100,0
1,36,100,0
1,36,100,0
1,36,100,0
1,36,100,0
1,36,100,0
1,36,100,0
1,36,100,0
1,36,100,0
1,36,100,0
1,36,100,0
1,36,100,0
1,36,100,0
1,36,100,0
1,36,100,0
1,36,100,0
1,36,100,0
1,36,100,0
1,36,100,0
1,36,100,0
1,36,100,0
1,36,100,0
1,36,100,0
1,36,100,0
1,36,100,0
1,36,100,0
1,36,100,0
1,36,100,0
1,36,100,0
1,36,100,0
1,36,100,0
1,36,100,0
1,36,100,0
1,36,100,0
1,36,100,0
1,36,100,0
1,36,100,0
1,36,100,0
1,36,100,0
1,36,100,0
1,36,100,0
1,36,100,0
1,36,100,0
1,36,100,0
1,36,100,0
1,36,100,0
1,36,100,0
1,36,100,0
1,36,100,0
1,36,100,0
1,36,100,0
1,36,100,0
1,36,100,0
1,36,100,0
1,36,100,0
1,36,100,0
1,36,100,0
1,36,100,0
1,36,100,0
1,36,100,0
1,36,100,0
1,36,100,0
1,36,100,0
1,36,100,0
1,36,100,0
1,36,100,0
1,36,100,0
1,36,100,0
1,36,100,0
1,36,100,0
1,36,100,0
1,36,100,0
1,36,100,0
1,36,100,0
1,36,100,0
1,36,100,0
1,31,100,0
1,31,100,0
1,31,100,0
1,31,100,0
1,31,100,0
1,31,100,0
1,31,100,0
1,31,100,0
1,31,100,0
1,31,100,0
1,31,100,0
1,31,100,0
1,31,100,0
1,31,100,0
1,31,100,0
1,31,100,0
1,31,100,0
1,31,100,0
1,31,100,0
1,31,100,0
1,31,100,0
1,31,100,0
1,31,100,0
1,31,100,0
1,31,100,0
1,31,100,0
1,31,100,0
1,31,100,0
1,31,100,0
1,31,100,0
1,31,100,0
1,31,100,0
1,31,100,0
1,31,100,0
1,31,100,0
1,31,100,0
1,31,100,0
1,31,100,0
1,31,100,0
1,31,100,0
1,31,100,0
1,31,100,0
1,31,100,0
1,31,100,0
1,31,100,0
1,31,100,0
1,31,100,0
1,31,100,0
1,31,100,0
1,31,100,0
1,31,100,0
1,31,100,0
1,31,100,0
1,31,100,0
1,31,100,0
1,31,100,0
1,31,100,0
1,31,100,0
1,31,100,0
1,31,100,0
1,31,100,0
1,31,100,0
1,31,100,0
1,33,100,0
1,33,100,0
1,33,100,0
1,33,100,0
1,33,100,0
1,33,100,0
1,33,100,0
1,33,100,0
1,33,100,0
1,33,100,0
1,33,100,0
1,33,100,0
1,33,100,0
1,33,100,0
1,33,100,0
1,33,100,0
1,33,100,0
1,33,100,0
1,33,100,0
1,33,100,0
1,33,100,0
1,33,100,0
1,33,100,0
1,33,100,0
1,33,100,0
1,33,100,0
1,33,100,0
1,33,100,0
1,33,100,0
1,33,100,0
1,33,100,0
1,33,100,0
1,33,100,0
1,33,100,0
1,33,100,0
1,33,100,0
1,33,100,0
1,33,100,0
1,33,100,0
1,33,100,0
1,33,100,0
1,33,100,0
1,33,100,0
1,33,100,0
1,33,100,0
1,33,100,0
1,33,100,0
1,33,100,0
1,33,100,0
1,33,100,0
1,33,100,0
1,33,100,0
1,33,100,0
1,33,100,0
1,33,100,0
1,33,100,0
1,33,100,0
1,33,100,0
1,33,100,0
1,33,100,0
1,33,100,0
1,33,100,0
1,33,100,0
1,33,100,0
1,33,100,0
1,33,100,0
1,33,100,0
1,33,100,0
1,33,100,0
1,33,100,0
1,33,100,0
1,33,100,0
1,33,100,0
1,33,100,0
1,33,100,0
1,33,100,0
1,33,100,0
1,33,100,0
1,33,100,0
1,33,100,0
1,35,100,0
1,33,100,0
1,31,100,0
1,35,100,0
1,31,100,0
1,31,100,0
1,28,100,0
1,28,100,0
1,28,100,0
1,28,100,0
1,28,100,0
1,28,100,0
1,28,100,0
1,28,100,0
1,28,100,0
1,28,100,0
1,28,100,0
1,28,100,0
1,28,100,0
1,28,100,0
1,28,100,0
1,28,100,0
1,28,100,0
1,36,100,2880
1,36,100,0
1,36,100,0
1,36,100,0
1,36,100,0
1,36,100,0
1,36,100,0
1,36,100,0
1,36,100,0
1,36,100,0
1,36,100,0
1,36,100,0
1,36,100,0
1,36,100,0
1,36,100,0
1,36,100,0
1,36,100,0
1,36,100,0
1,36,100,0
1,36,100,0
1,36,100,0
1,36,100,0
1,36,100,0
1,36,100,0
1,36,100,0
1,36,100,0
1,36,100,0
1,36,100,0
1,36,100,0
1,36,100,0
1,36,100,0
1,36,100,0
1,36,100,0
1,36,100,0
1,36,100,0
1,36,100,0
1,36,100,0
1,36,100,0
1,36,100,0
1,36,100,0
1,36,100,0
1,36,100,0
1,36,100,0
1,36,100,0
1,36,100,0
1,36,100,0
1,36,100,0
1,36,100,0
1,36,100,0
1,36,100,0
1,36,100,0
1,36,100,0
1,36,100,0
1,36,100,0
1,36,100,0
1,36,100,0
1,36,100,0
1,36,100,0
1,36,100,0
1,36,100,0
1,36,100,0
1,36,100,0
1,36,100,0
1,36,100,0
1,36,100,0
1,36,100,0
1,36,100,0
1,36,100,0
1,36,100,0
1,36,100,0
1,36,100,0
1,36,100,0
1,36,100,0
1,36,100,0
1,36,100,0
1,36,100,0
1,36,100,0
1,36,100,0
1,36,100,0
1,36,100,0
1,36,100,0
1,36,100,0
1,36,100,0
1,36,100,0
1,36,100,0
1,36,100,0
1,36,100,0
1,36,100,0
1,36,100,0
1,36,100,0
1,36,100,0
1,36,100,0
1,36,100,0
1,36,100,0
1,36,100,0
1,36,100,0
1,36,100,0
1,36,100,0
1,36,100,0
1,36,100,0
1,36,100,0
1,36,100,0
1,36,100,0
1,36,100,0
1,36,100,0
1,36,100,0
1,36,100,0
1,36,100,0
1,36,100,0
1,36,100,0
1,36,100,0
1,36,100,0
1,36,100,0
1,36,100,0
1,36,100,0
1,36,100,0
1,36,100,0
1,36,100,0
1,36,100,0
1,36,100,0
1,36,100,0
1,36,100,0
1,36,100,0
1,36,100,0
1,36,100,0
1,36,100,0
1,36,100,0
1,36,100,0
1,36,100,0
1,36,100,0
1,36,100,0
1,36,100,0
1,36,100,0
1,36,100,0
1,36,100,0
1,36,100,0
1,36,100,0
1,36,100,0
1,36,100,0
1,36,100,0
1,36,100,0
1,36,100,0
1,36,100,0
1,36,100,0
1,36,100,0
1,36,100,0
1,36,100,0
1,36,100,0
1,36,100,0
1,36,100,0
1,36,100,0
1,36,100,0
1,36,100,0
1,36,100,0
1,36,100,0
1,36,100,0
1,36,100,0
1,36,100,0
1,31,100,0
1,31,100,0
1,31,100,0
1,31,100,0
1,31,100,0
1,31,100,0
1,31,100,0
1,31,100,0
1,31,100,0
1,31,100,0
1,31,100,0
1,31,100,0
1,31,100,0
1,31,100,0
1,31,100,0
1,31,100,0
1,31,100,0
1,31,100,0
1,31,100,0
1,31,100,0
1,31,100,0
1,31,100,0
1,31,100,0
1,31,100,0
1,31,100,0
1,31,100,0
1,31,100,0
1,31,100,0
1,31,100,0
1,31,100,0
1,31,100,0
1,31,100,0
1,31,100,0
1,31,100,0
1,31,100,0
1,31,100,0
1,31,100,0
1,31,100,0
1,31,100,0
1,31,100,0
1,31,100,0
1,31,100,0
1,31,100,0
1,31,100,0
1,31,100,0
1,31,100,0
1,31,100,0
1,31,100,0
1,31,100,0
1,31,100,0
1,31,100,0
1,31,100,0
1,31,100,0
1,31,100,0
1,31,100,0
1,31,100,0
1,31,100,0
1,31,100,0
1,31,100,0
1,31,100,0
1,31,100,0
1,31,100,0
1,31,100,0
1,36,100,0
1,36,100,96
1,36,100,0
1,36,100,192
1,36,100,192
1,36,100,96
1,36,100,0
1,36,100,192
1,36,100,96
1,36,100,0
1,36,100,96
1,36,100,0
1,36,100,96
1,36,100,0
1,36,100,96
1,36,100,0
1,36,100,96
1,36,100,0
1,36,100,96
1,36,100,0
1,36,100,96
1,36,100,0
1,36,100,96
1,36,100,0
1,36,100,96
1,36,100,0
1,36,100,96
1,36,100,0
1,36,100,96
1,36,100,0
1,36,100,96
1,36,100,0
1,36,100,96
1,36,100,0
1,36,100,96
1,36,100,0
1,36,100,96
1,36,100,0
1,36,100,96
1,36,100,0
1,36,100,96
1,36,100,0
1,36,100,96
1,36,100,0
1,36,100,96
1,36,100,0
1,36,100,96
1,36,100,0
1,36,100,96
1,36,100,0
1,36,100,96
1,36,100,0
1,36,100,96
1,36,100,0
1,36,100,96
1,36,100,0
1,36,100,96
1,36,100,0
1,36,100,96
1,36,100,0
1,36,100,96
1,36,100,0
1,36,100,96
1,36,100,0
1,36,100,96
1,36,100,0
1,36,100,96
1,36,100,0
1,36,100,96
1,36,100,0
1,36,100,96
1,36,100,0
1,36,100,96
1,36,100,0
2,36,100,576
2,36,100,96
2,36,100,96
2,36,100,0
2,36,100,0
2,36,100,96
2,36,100,96
2,36,100,96
2,36,100,0
2,36,100,0
2,36,100,96
2,36,100,96
2,36,100,96
2,36,100,0
2,36,100,0
2,36,100,96
2,36,100,0
2,36,100,0
2,36,100,96
2,36,100,0
2,36,100,0
2,36,100,96
2,36,100,0
2,36,100,0
2,36,100,96
2,36,100,0
2,36,100,0
2,36,100,0
2,36,100,0
2,36,100,96
2,36,100,0
2,36,100,0
2,36,100,96
2,36,100,0
2,36,100,0
2,36,100,96
2,36,100,0
2,36,100,0
2,36,100,96
2,36,100,0
2,36,100,0
2,36,100,96
2,36,100,0
2,36,100,0
2,36,100,96
2,36,100,96
2,36,100,96
2,36,100,0
2,36,100,0
2,36,100,96
2,36,100,96
2,36,100,96
2,36,100,0
2,36,100,0
2,36,100,96
2,36,100,96
2,36,100,96
2,36,100,0
2,36,100,0
2,36,100,96
2,36,100,96
2,36,100,96
2,36,100,0
2,36,100,0
2,36,100,96
2,36,100,96
2,36,100,96
2,36,100,0
2,36,100,0
2,36,100,96
2,36,100,96
2,36,100,96
2,36,100,96
2,36,100,0
2,36,100,192
2,36,100,96
2,36,100,96
2,36,100,96
2,36,100,96
2,36,100,96
2,36,100,96
2,36,100,0
