track,note,velocity,time
1,45,108,3792
1,45,0,3776
1,47,108,64
1,47,0,3752
1,47,108,88
1,47,0,1888
1,37,108,32
1,37,0,400
1,38,108,80
1,38,0,368
1,40,108,112
1,40,0,384
1,42,108,96
1,42,0,376
1,47,108,104
1,47,0,708
1,42,108,12
1,42,0,704
1,44,108,16
1,44,0,464
1,46,108,16
1,46,0,1880
1,45,108,40
1,45,0,3768
1,47,108,72
1,47,0,3736
1,46,108,104
1,46,0,1816
1,45,108,104
1,45,0,920
1,41,108,40
1,41,0,432
1,45,108,48
1,45,0,416
1,46,108,64
1,46,0,3720
1,46,108,120
1,46,0,3720
1,45,108,120
1,45,0,1832
1,46,108,88
1,46,0,1412
1,38,108,28
1,38,0,416
1,39,108,64
1,39,0,1872
1,41,108,48
1,41,0,1840
1,42,108,80
1,42,0,1824
1,43,108,96
1,43,0,3752
1,45,108,7768
1,45,0,3768
1,47,108,72
1,47,0,3744
1,47,108,96
1,47,0,1888
1,37,108,32
1,37,0,400
1,38,108,80
1,38,0,368
1,40,108,112
1,40,0,384
1,42,108,96
1,42,0,376
1,47,108,104
1,47,0,708
1,42,108,12
1,42,0,704
1,44,108,16
1,44,0,464
1,46,108,16
1,46,0,1880
1,45,108,40
1,45,0,3760
1,47,108,80
1,47,0,3728
1,46,108,112
1,46,0,1808
1,45,108,112
1,45,0,920
1,41,108,40
1,41,0,432
1,45,108,48
1,45,0,416
1,46,108,64
1,46,0,3712
1,46,108,128
1,46,0,3712
1,45,108,128
1,45,0,1824
1,46,108,96
1,46,0,1412
1,38,90,28
1,38,0,416
1,39,108,64
1,39,0,1872
1,41,108,48
1,41,0,1840
1,42,108,80
1,42,0,1824
1,43,108,96
1,43,0,3744
1,38,73,119136
1,38,0,3696
1,38,73,144
1,38,0,3632
1,38,73,208
1,38,0,4368
1,38,73,192
1,38,0,1176
1,64,63,952
1,62,63,2040
1,64,0,116
1,54,63,364
1,62,0,112
1,55,63,128
1,54,0,80
1,57,63,160
1,55,0,120
1,57,0,336
1,62,63,24
1,61,63,960
1,62,0,12
1,62,63,228
1,61,0,72
1,64,63,168
1,62,0,76
1,69,63,404
1,64,0,0
1,64,63,480
1,69,0,0
1,64,0,1908
1,62,63,12
1,54,63,480
1,62,0,176
1,55,63,64
1,54,0,60
1,57,63,180
1,55,0,76
1,57,0,388
1,62,63,16
1,61,63,960
1,62,0,68
1,62,63,172
1,61,0,44
1,64,63,196
1,62,0,44
1,69,63,436
1,64,0,4
1,64,63,476
1,69,0,0
1,62,63,1920
1,64,0,0
1,66,63,480
1,62,0,24
1,67,63,216
1,66,0,32
1,69,63,208
1,67,0,16
1,74,63,464
1,69,0,32
1,74,0,912
1,73,63,16
1,74,63,240
1,73,0,36
1,76,63,204
1,74,0,20
1,76,0,448
1,81,63,12
1,64,63,480
1,81,0,0
1,65,68,480
1,64,0,8
1,67,70,472
1,65,0,28
1,69,74,452
1,67,0,56
1,69,0,400
1,71,79,24
1,72,82,480
1,71,0,8
1,74,85,472
1,72,0,16
1,76,88,464
1,74,0,28
1,77,94,452
1,76,0,0
1,79,97,480
1,77,0,32
1,81,100,448
1,79,0,28
1,83,105,452
1,81,0,136
1,84,108,344
1,83,0,0
1,84,0,472
1,86,111,8
1,88,115,480
1,86,0,20
1,89,118,460
1,88,0,36
1,90,123,444
1,89,0,0
1,90,0,1064
1,90,114,0
1,90,0,104
1,86,108,16
1,86,0,92
1,81,108,28
1,81,0,104
1,86,108,16
1,86,0,112
1,81,108,8
1,81,0,112
1,78,108,8
1,78,0,92
1,81,108,28
1,81,0,112
1,78,108,8
1,74,108,120
1,78,0,0
1,74,0,228
1,90,108,2652
1,90,0,104
1,86,108,16
1,86,0,116
1,81,108,4
1,81,0,112
1,86,108,8
1,81,108,120
1,86,0,16
1,78,108,104
1,81,0,0
1,78,0,88
1,81,108,32
1,78,108,120
1,81,0,24
1,74,108,96
1,78,0,0
1,74,0,176
1,74,108,544
1,76,108,120
1,74,0,20
1,78,108,100
1,76,0,24
1,78,0,160
1,78,108,536
1,79,108,120
1,78,0,20
1,79,0,92
1,81,108,8
1,81,0,156
1,86,108,84
1,86,0,568
1,90,108,152
1,90,0,100
1,86,108,20
1,81,108,120
1,86,0,12
1,81,0,88
1,86,108,20
1,86,0,92
1,81,108,28
1,81,0,104
1,78,108,16
1,78,0,92
1,81,108,28
1,78,108,120
1,81,0,20
1,74,108,100
1,78,0,0
1,74,0,152
1,74,108,568
1,76,108,120
1,74,0,8
1,78,108,112
1,76,0,20
1,78,0,144
1,78,108,556
1,79,108,120
1,78,0,32
1,81,108,88
1,79,0,0
1,81,0,108
1,86,108,132
1,86,0,628
1,90,108,92
1,90,0,96
1,86,108,24
1,81,108,120
1,86,0,0
1,81,0,100
1,86,108,20
1,86,0,108
1,81,108,12
1,81,0,116
1,78,108,4
1,78,0,76
1,81,108,44
1,78,108,120
1,81,0,12
1,62,81,0
1,78,0,0
1,62,0,912
1,62,78,48
1,61,78,240
1,62,0,12
1,62,46,228
1,61,0,0
1,64,70,240
1,62,0,64
1,66,74,176
1,64,0,0
1,66,0,228
1,67,50,12
1,69,78,240
1,67,0,56
1,71,74,184
1,69,0,4
1,69,89,236
1,71,0,40
1,69,0,1068
1,74,86,92
1,73,89,240
1,74,0,36
1,71,58,204
1,73,0,12
1,69,70,228
1,71,0,48
1,67,74,192
1,69,0,136
1,66,74,104
1,67,0,48
1,66,0,156
1,67,64,36
1,69,58,240
1,67,0,0
1,71,81,240
1,69,0,40
1,69,89,200
1,71,0,28
1,69,0,1260
1,69,62,176
1,71,59,196
1,69,0,60
1,71,0,200
1,69,70,16
1,71,83,484
1,69,0,16
1,73,46,172
1,71,0,28
1,74,76,276
1,73,0,16
1,74,0,432
1,73,72,24
1,76,76,232
1,73,0,16
1,76,0,224
1,74,51,8
1,78,87,220
1,74,0,60
1,76,48,172
1,78,0,8
1,79,78,220
1,76,0,48
1,79,0,196
1,78,87,20
1,78,0,472
1,69,70,12
1,71,70,240
1,69,0,32
1,69,70,236
1,71,0,4
1,71,83,468
1,69,0,44
1,73,54,136
1,71,0,52
1,74,65,232
1,73,0,0
1,74,0,464
1,73,59,24
1,76,72,220
1,73,0,12
1,74,53,220
1,76,0,0
1,78,83,240
1,74,0,40
1,78,0,196
1,76,48,4
1,79,68,244
1,76,0,48
1,78,62,164
1,79,0,4
1,81,68,228
1,78,0,28
1,79,50,236
1,81,0,8
1,83,76,240
1,79,0,60
1,81,65,192
1,83,0,28
1,79,52,196
1,81,0,36
1,81,64,200
1,79,0,44
1,83,60,192
1,81,0,28
1,81,60,224
1,83,0,48
1,79,56,168
1,81,0,24
1,81,72,224
1,79,0,16
1,81,0,1820
1,62,91,104
1,62,0,912
1,62,87,48
1,61,87,240
1,62,0,12
1,62,52,228
1,61,0,0
1,64,78,240
1,62,0,64
1,66,83,176
1,64,0,0
1,66,0,228
1,67,56,12
1,69,87,240
1,67,0,56
1,71,83,184
1,69,0,4
1,69,99,236
1,71,0,40
1,69,0,1068
1,74,96,92
1,73,99,240
1,74,0,36
1,71,65,204
1,73,0,12
1,69,78,228
1,71,0,48
1,67,83,192
1,69,0,136
1,66,83,104
1,67,0,48
1,66,0,156
1,67,72,36
1,69,65,240
1,67,0,0
1,71,91,240
1,69,0,40
1,69,99,200
1,71,0,28
1,69,0,1260
1,64,87,152
1,65,87,480
1,64,0,44
1,67,78,436
1,65,0,32
1,69,70,448
1,67,0,0
1,71,83,480
1,69,0,0
1,72,76,480
1,71,0,56
1,72,0,420
1,74,70,4
1,76,91,480
1,74,0,24
1,76,0,348
1,76,101,108
1,74,68,240
1,76,0,16
1,72,78,224
1,74,0,12
1,74,83,228
1,72,0,32
1,76,91,208
1,74,0,40
1,74,78,200
1,76,0,40
1,72,76,200
1,74,0,0
1,74,83,240
1,72,0,32
1,76,96,208
1,74,0,76
1,74,87,164
1,76,0,52
1,72,83,188
1,74,0,0
1,74,87,240
1,72,0,8
1,76,99,232
1,74,0,24
1,76,0,744
1,69,56,204
1,78,83,0
1,74,76,0
1,74,0,156
1,78,0,4
1,69,0,20
1,69,44,68
1,78,70,0
1,74,56,0
1,74,0,48
1,78,0,0
1,69,0,8
1,78,59,68
1,74,61,0
1,69,48,4
1,74,0,40
1,78,0,4
1,69,0,8
1,69,51,44
1,74,76,4
1,78,83,4
1,74,0,60
1,78,0,4
1,69,0,8
1,78,63,164
1,74,61,0
1,69,43,4
1,74,0,28
1,78,0,4
1,69,0,4
1,78,61,68
1,69,45,4
1,74,59,0
1,74,0,36
1,69,0,8
1,78,0,0
1,69,49,60
1,78,72,4
1,74,72,0
1,74,0,56
1,78,0,8
1,69,0,4
1,74,61,200
1,69,46,4
1,78,61,0
1,78,0,40
1,74,0,0
1,69,0,12
1,78,61,68
1,69,42,4
1,74,54,4
1,74,0,44
1,78,0,8
1,69,0,4
1,78,76,52
1,69,52,0
1,74,76,0
1,74,0,52
1,69,0,8
1,78,0,0
1,69,61,180
1,78,83,0
1,74,81,0
1,74,0,68
1,78,0,8
1,69,0,4
1,74,81,400
1,69,61,0
1,79,72,0
1,79,0,644
1,69,0,4
1,74,0,8
1,79,70,88
1,69,61,0
1,74,81,0
1,74,0,52
1,69,0,8
1,79,0,0
1,69,54,148
1,79,59,0
1,74,83,0
1,74,0,40
1,79,0,0
1,69,0,8
1,69,52,68
1,79,61,4
1,74,72,0
1,74,0,40
1,79,0,4
1,69,0,8
1,79,70,56
1,69,65,8
1,74,83,0
1,74,0,40
1,69,0,8
1,79,0,12
1,79,61,164
1,69,54,4
1,74,81,0
1,74,0,40
1,69,0,12
1,79,0,0
1,79,54,56
1,69,54,4
1,74,70,4
1,74,0,44
1,69,0,4
1,79,0,16
1,69,63,56
1,74,81,0
1,78,85,4
1,74,0,44
1,69,0,8
1,78,0,12
1,69,54,184
1,74,72,0
1,78,76,4
1,78,0,36
1,74,0,0
1,69,0,8
1,69,43,68
1,78,54,4
1,74,54,0
1,74,0,32
1,78,0,0
1,69,0,16
1,78,72,36
1,69,51,4
1,74,70,0
1,74,0,56
1,69,0,8
1,78,0,4
1,74,76,188
1,69,56,8
1,78,72,0
1,78,0,32
1,69,0,8
1,74,0,0
1,69,51,80
1,78,63,0
1,74,63,0
1,74,0,44
1,78,0,4
1,69,0,4
1,69,56,52
1,78,76,4
1,74,81,0
1,74,0,52
1,78,0,8
1,69,0,0
1,69,54,192
1,74,72,0
1,78,72,0
1,78,0,40
1,74,0,0
1,69,0,12
1,69,49,60
1,78,70,0
1,74,70,0
1,74,0,44
1,78,0,4
1,69,0,0
1,78,83,56
1,69,54,8
1,74,76,0
1,74,0,48
1,69,0,4
1,78,0,8
1,78,85,200
1,69,65,0
1,74,83,0
1,74,0,48
1,69,0,4
1,78,0,0
1,74,85,436
1,69,76,0
1,79,81,0
1,79,0,608
1,69,0,4
1,74,0,4
1,79,76,116
1,69,72,0
1,74,85,0
1,74,0,44
1,69,0,8
1,79,0,4
1,69,65,164
1,79,70,0
1,74,83,0
1,74,0,36
1,79,0,4
1,69,0,8
1,69,51,52
1,79,61,0
1,74,72,8
1,79,0,36
1,74,0,4
1,69,0,8
1,69,52,60
1,74,76,0
1,79,70,4
1,74,0,56
1,69,0,8
1,79,0,8
1,79,65,184
1,69,59,0
1,74,81,4
1,74,0,40
1,69,0,8
1,79,0,4
1,79,49,44
1,69,51,8
1,74,65,4
1,74,0,52
1,69,0,8
1,79,0,4
1,78,83,64
1,69,56,0
1,74,70,0
1,74,0,48
1,69,0,12
1,78,0,4
1,78,63,196
1,74,63,0
1,69,46,8
1,74,0,32
1,78,0,0
1,69,0,8
1,69,47,48
1,78,72,0
1,74,65,0
1,74,0,60
1,78,0,0
1,69,0,4
1,69,61,68
1,74,81,0
1,78,85,4
1,74,0,60
1,69,0,4
1,78,0,4
1,74,72,184
1,78,72,0
1,69,54,4
1,78,0,36
1,74,0,0
1,69,0,4
1,69,46,60
1,78,70,0
1,74,61,0
1,74,0,48
1,78,0,4
1,69,0,4
1,78,83,64
1,69,59,0
1,74,81,0
1,74,0,48
1,69,0,8
1,78,0,12
1,74,70,196
1,78,70,4
1,69,56,0
1,69,0,36
1,78,0,0
1,74,0,0
1,78,63,64
1,69,46,0
1,74,63,0
1,74,0,44
1,69,0,8
1,78,0,0
1,78,85,60
1,69,54,0
1,74,72,0
1,74,0,60
1,69,0,8
1,78,0,0
1,78,72,160
1,74,70,4
1,69,47,4
1,69,0,32
1,74,0,0
1,78,0,0
1,74,70,68
1,78,72,4
1,69,54,0
1,74,0,52
1,69,0,4
1,78,0,8
1,78,72,56
1,69,56,4
1,74,70,0
1,74,0,56
1,69,0,4
1,78,0,8
1,79,72,168
1,69,70,4
1,74,85,0
1,79,0,676
1,74,0,8
1,69,0,0
1,79,61,56
1,74,76,0
1,69,63,4
1,74,0,44
1,69,0,4
1,79,0,0
1,69,63,188
1,74,81,0
1,79,65,0
1,79,0,40
1,74,0,0
1,69,0,8
1,79,56,60
1,69,54,4
1,74,81,0
1,74,0,52
1,79,0,0
1,69,0,4
1,79,70,68
1,69,65,0
1,74,81,0
1,74,0,56
1,69,0,4
1,79,0,20
1,79,61,152
1,69,51,8
1,74,63,0
1,74,0,44
1,69,0,8
1,79,0,8
1,79,54,36
1,69,51,8
1,74,63,4
1,74,0,52
1,69,0,8
1,79,0,8
1,78,85,56
1,69,56,0
1,74,72,0
1,74,0,52
1,69,0,8
1,78,0,16
1,74,63,156
1,69,47,4
1,78,63,4
1,78,0,32
1,74,0,4
1,69,0,8
1,69,43,64
1,74,54,0
1,78,59,0
1,78,0,52
1,74,0,0
1,69,0,4
1,69,54,60
1,78,76,4
1,74,72,0
1,74,0,60
1,69,0,8
1,78,0,12
1,74,59,172
1,78,63,4
1,69,46,4
1,78,0,36
1,69,0,4
1,74,0,0
1,69,52,68
1,78,70,0
1,74,65,0
1,74,0,56
1,78,0,4
1,69,0,0
1,78,83,52
1,69,52,4
1,74,81,0
1,74,0,60
1,69,0,8
1,78,0,0
1,78,76,188
1,74,65,0
1,69,51,4
1,74,0,40
1,78,0,0
1,69,0,4
1,69,45,64
1,74,56,4
1,78,70,0
1,78,0,40
1,74,0,4
1,69,0,4
1,69,49,56
1,78,72,0
1,74,70,0
1,74,0,60
1,78,0,4
1,69,0,4
1,78,85,192
1,69,63,4
1,74,81,0
1,74,0,52
1,69,0,8
1,78,0,4
1,79,76,408
1,74,81,4
1,69,65,0
1,79,0,612
1,69,0,4
1,74,0,8
1,79,65,100
1,74,81,0
1,69,65,0
1,69,0,56
1,74,0,0
1,79,0,12
1,69,59,148
1,79,61,0
1,74,72,0
1,74,0,48
1,79,0,0
1,69,0,4
1,69,54,96
1,79,65,0
1,74,72,0
1,74,0,44
1,79,0,4
1,69,0,0
1,79,72,56
1,69,63,0
1,74,85,0
1,74,0,52
1,69,0,8
1,79,0,12
1,79,63,160
1,69,54,4
1,74,72,0
1,74,0,48
1,69,0,8
1,79,0,4
1,79,49,52
1,69,49,12
1,74,63,0
1,74,0,44
1,69,0,4
1,79,0,4
1,78,85,64
1,69,59,0
1,74,72,0
1,74,0,44
1,69,0,8
1,78,0,12
1,74,63,184
1,78,70,0
1,69,48,4
1,78,0,40
1,74,0,0
1,69,0,4
1,78,63,76
1,69,45,4
1,74,56,0
1,74,0,48
1,69,0,8
1,78,0,0
1,74,70,64
1,69,51,0
1,78,76,4
1,69,0,52
1,74,0,0
1,78,0,8
1,78,70,176
1,74,63,4
1,69,45,4
1,74,0,28
1,78,0,0
1,69,0,4
1,78,63,80
1,69,49,0
1,74,63,0
1,74,0,40
1,69,0,4
1,78,0,0
1,78,76,60
1,69,59,4
1,74,81,4
1,74,0,52
1,69,0,0
1,78,0,0
1,74,70,192
1,69,49,4
1,78,72,0
1,78,0,36
1,69,0,4
1,74,0,0
1,74,59,72
1,69,46,0
1,78,59,0
1,78,0,40
1,69,0,4
1,74,0,0
1,78,72,68
1,74,70,0
1,69,54,4
1,74,0,48
