track,note,velocity,time
0,67,63,0
0,60,63,0
0,64,63,0
0,76,64,0
0,55,77,1
0,91,41,1
0,60,74,34
0,64,79,29
0,55,77,40
0,84,40,0
0,60,71,37
0,88,34,0
0,64,71,3
0,67,80,17
0,91,45,0
0,55,61,21
0,84,24,0
0,60,71,28
0,88,34,0
0,64,73,1
0,67,72,23
0,91,35,0
0,78,64,12
0,55,72,3
0,84,35,0
0,60,75,42
0,88,38,0
0,67,80,28
0,91,42,0
0,79,64,0
0,64,77,33
0,88,40,0
0,62,75,3
0,86,38,0
0,81,64,0
0,59,75,37
0,83,38,0
0,66,63,0
0,59,63,0
0,62,63,0
0,78,64,0
0,55,75,2
0,79,38,0
0,59,81,12
0,67,73,30
0,43,75,21
0,83,39,0
0,74,65,42
0,50,73,1
0,86,36,0
0,55,74,23
0,59,72,8
0,83,35,0
0,62,72,65
0,86,35,0
0,69,74,43
0,93,37,0
0,67,75,27
0,91,38,0
0,64,69,15
0,88,32,0
0,62,79,46
0,86,42,0
0,43,79,80
0,83,40,0
0,60,63,0
0,64,63,0
0,55,77,1
0,91,41,1
0,67,68,1
0,60,74,14
0,64,78,38
0,55,77,19
0,84,40,0
0,66,58,33
0,60,71,4
0,88,34,0
0,64,71,3
0,67,80,17
0,91,45,0
0,67,66,1
0,66,62,16
0,55,61,21
0,84,24,0
0,67,67,7
0,60,71,28
0,88,34,0
0,64,73,1
0,67,72,23
0,91,35,0
0,55,72,15
0,84,35,0
0,60,75,42
0,88,38,0
0,62,54,3
0,67,80,30
0,91,42,0
0,67,54,2
0,64,77,33
0,88,40,0
0,62,75,42
0,86,38,0
0,59,75,37
0,83,38,0
0,66,60,3
0,66,63,0
0,62,63,0
0,59,63,0
0,55,75,2
0,79,38,0
0,66,43,2
0,59,81,10
0,67,73,30
0,43,75,21
0,83,39,0
0,67,67,3
0,50,73,43
0,86,36,0
0,55,74,23
0,59,72,8
0,83,35,0
0,62,80,64
0,62,72,1
0,86,35,0
0,69,74,43
0,93,37,0
0,67,75,27
0,91,38,0
0,64,69,15
0,88,32,0
0,62,79,46
0,86,42,0
0,43,79,80
0,83,40,0
0,67,80,0
0,60,63,0
0,64,63,0
0,55,77,1
0,91,41,1
0,60,74,15
0,64,78,38
0,55,77,19
0,84,40,0
0,66,74,30
0,60,71,7
0,88,34,0
0,64,71,3
0,67,71,16
0,67,80,1
0,91,45,0
0,55,61,21
0,84,24,0
0,66,72,3
0,67,72,26
0,60,71,2
0,88,34,0
0,64,73,1
0,67,72,23
0,91,35,0
0,62,65,29
0,55,72,15
0,84,35,0
0,67,71,3
0,60,75,42
0,88,38,0
0,67,80,30
0,91,42,0
0,64,77,33
0,88,40,0
0,62,75,42
0,86,38,0
0,74,74,3
0,59,75,37
0,83,38,0
0,66,63,0
0,62,63,0
0,59,63,0
0,55,75,2
0,79,38,0
0,74,66,2
0,59,81,10
0,67,73,30
0,43,75,21
0,83,39,0
0,50,73,43
0,86,36,0
0,55,74,23
0,59,72,8
0,83,35,0
0,62,72,65
0,86,35,0
0,69,74,43
0,93,37,0
0,67,75,27
0,91,38,0
0,64,69,15
0,88,32,0
0,62,79,46
0,86,42,0
0,43,79,80
0,83,40,0
0,64,63,0
0,71,63,0
0,60,63,0
0,67,63,0
0,48,80,0
0,79,64,0
0,76,64,0
0,72,64,0
0,48,64,0
0,83,64,0
0,51,41,0
0,59,74,26
0,71,88,5
0,64,78,12
0,67,80,13
0,67,80,337
0,51,36,47
0,72,76,12
0,67,78,82
0,64,82,71
0,71,69,8
0,71,66,68
0,60,80,10
0,48,81,50
0,51,40,0
0,71,68,1
0,60,79,25
0,67,73,31
0,67,84,5
0,51,40,245
0,66,81,1
0,64,77,35
0,64,51,17
0,62,84,4
0,59,80,21
0,69,80,4
0,59,63,0
0,69,63,0
0,40,83,0
0,52,64,0
0,71,64,0
0,81,64,0
0,51,31,0
0,52,82,347
0,59,73,27
0,51,39,63
0,62,89,3
0,57,83,152
0,69,88,3
0,71,64,34
0,52,77,7
0,62,63,0
0,67,63,0
0,64,63,0
0,40,77,0
0,67,81,0
0,74,64,0
0,76,64,0
0,71,64,0
0,79,64,0
0,51,41,0
0,69,83,3
0,59,72,55
0,62,80,67
0,64,89,25
0,66,76,7
0,51,45,233
0,59,78,114
0,62,80,39
0,62,79,2
0,67,67,35
0,59,76,0
0,65,63,0
0,58,63,0
0,62,63,0
0,46,80,0
0,67,81,0
0,70,64,0
0,77,64,0
0,46,64,0
0,74,64,0
0,51,41,0
0,62,75,217
0,67,72,126
0,51,40,36
0,74,78,8
0,70,70,180
0,67,80,104
0,67,72,0
0,51,45,0
0,58,75,50
0,69,81,2
0,60,63,0
0,64,63,0
0,57,63,0
0,45,82,0
0,67,79,0
0,72,64,0
0,76,64,0
0,69,64,0
0,45,64,0
0,51,47,0
0,71,74,2
0,67,70,25
0,52,73,4
0,60,82,70
0,51,43,123
0,67,87,3
0,64,78,180
0,62,83,34
0,64,68,1
0,67,66,9
0,57,79,0
0,62,63,0
0,65,63,0
0,58,63,0
0,46,80,0
0,67,81,0
0,74,64,0
0,77,64,0
0,70,64,0
0,46,64,0
0,51,40,0
0,62,75,217
0,67,72,126
0,51,45,36
0,74,78,8
0,70,70,180
0,67,78,103
0,67,72,1
0,58,75,7
0,69,68,1
0,60,63,0
0,64,63,0
0,57,63,0
0,45,77,0
0,69,75,0
0,76,64,0
0,72,64,0
0,45,64,0
0,81,64,0
0,51,49,0
0,71,60,3
0,60,68,0
0,64,82,31
0,67,66,37
0,69,84,0
0,45,79,186
0,51,47,0
0,60,75,180
0,66,64,50
0,64,83,1
0,69,80,29
0,67,69,3
0,67,63,0
0,60,63,0
0,79,64,0
0,50,64,0
0,76,64,0
0,72,64,0
0,51,46,0
0,43,78,1
0,38,114,3
0,60,74,13
0,64,78,38
0,84,64,164
0,55,77,19
0,88,64,0
0,67,72,121
0,91,64,0
0,60,71,3
0,64,71,3
0,67,71,13
0,67,80,4
0,51,50,0
0,84,64,0
0,67,64,2
0,55,61,120
0,67,68,2
0,88,64,0
0,95,64,0
0,60,71,3
0,64,73,1
0,67,72,31
0,51,44,0
0,84,64,0
0,38,86,223
0,88,64,0
0,55,72,3
0,60,75,235
0,91,64,0
0,62,54,1
0,67,80,77
0,51,56,0
0,67,54,2
0,84,64,0
0,64,77,1
0,62,75,42
0,88,64,0
0,51,53,0
0,33,83,3
0,59,75,59
0,95,64,0
0,66,60,3
0,31,101,30
0,66,63,0
0,59,63,0
0,62,63,0
0,43,64,0
0,78,64,0
0,74,64,0
0,71,64,0
0,51,56,0
0,55,75,2
0,66,43,2
0,59,81,10
0,67,73,30
0,83,64,79
0,43,75,123
0,86,64,0
0,67,67,1
0,90,64,0
0,50,73,1
0,55,74,23
0,59,72,8
0,51,48,0
0,83,64,0
0,62,80,101
0,62,72,1
0,86,64,0
0,69,74,43
0,95,64,0
0,67,75,51
0,51,47,0
0,31,91,4
0,64,69,15
0,83,64,0
0,62,79,46
0,86,64,0
0,93,64,0
0,43,79,80
0,91,64,0
0,51,53,0
0,88,64,0
0,86,64,0
0,51,53,0
0,67,80,0
0,60,63,0
0,64,63,0
0,38,74,0
0,50,83,0
0,67,81,0
0,50,64,0
0,72,64,0
0,76,64,0
0,51,47,0
0,38,114,4
0,60,66,61
0,84,64,0
0,64,76,18
0,88,64,0
0,66,74,3
0,67,88,35
0,91,64,0
0,67,71,1
0,50,77,239
0,51,53,0
0,60,81,125
0,84,64,0
0,64,83,101
0,88,64,0
0,67,87,139
0,95,64,0
0,66,72,4
0,67,72,80
0,38,75,0
0,51,44,0
0,60,80,80
0,84,64,0
0,38,86,116
0,64,80,8
0,88,64,0
0,67,85,52
0,91,64,0
0,62,66,1
0,50,78,239
0,51,41,0
0,60,81,62
0,84,64,0
0,67,74,1
0,64,83,111
0,88,64,0
0,33,83,3
0,67,82,15
0,91,64,0
0,74,74,1
0,31,101,101
0,66,63,0
0,62,63,0
0,59,63,0
0,43,81,0
0,66,82,0
0,43,64,0
0,78,64,0
0,74,64,0
0,71,64,0
0,51,50,0
0,55,73,43
0,83,64,0
0,74,66,2
0,62,75,77
0,86,64,0
0,66,83,131
0,90,64,0
0,51,46,240
0,55,73,92
0,83,64,0
0,62,83,70
0,86,64,0
0,66,82,71
0,95,64,0
0,43,77,51
0,51,55,0
0,31,92,4
0,55,73,81
0,83,64,0
0,62,82,1
0,86,64,0
0,38,91,13
0,69,82,5
0,93,64,0
0,40,92,2
0,67,79,15
0,51,58,0
0,31,90,9
0,62,78,129
0,83,64,0
0,59,82,102
0,90,64,0
0,51,45,0
0,91,64,0
0,64,63,0
0,71,63,0
0,60,63,0
0,67,63,0
0,48,80,0
0,76,64,0
0,72,64,0
0,83,64,0
0,48,64,0
0,79,64,0
0,51,52,0
0,36,92,22
0,59,74,4
0,71,88,5
0,64,78,12
0,67,80,13
0,67,80,337
0,51,47,47
0,72,76,12
0,67,78,82
0,64,82,71
0,71,69,8
0,71,66,68
0,60,80,10
0,48,81,50
0,51,46,0
0,71,68,1
0,60,79,25
0,31,73,33
0,36,56,32
0,67,73,31
0,67,84,5
0,51,54,245
0,66,81,1
0,64,77,35
0,64,51,17
0,62,84,4
0,59,80,21
0,69,80,4
0,59,63,0
0,69,63,0
0,40,77,0
0,52,64,0
0,71,64,0
0,81,64,0
0,51,46,0
0,40,92,3
0,52,82,347
0,59,73,27
0,51,58,63
0,62,89,3
0,57,83,152
0,69,88,3
0,71,64,34
0,52,77,7
0,62,63,0
0,67,63,0
0,64,63,0
0,40,77,0
0,67,81,0
0,74,64,0
0,76,64,0
0,79,64,0
0,51,41,0
0,69,83,3
0,52,63,1
0,59,72,24
0,47,62,6
0,62,80,11
0,40,78,2
0,64,89,25
0,66,76,7
0,51,52,233
0,59,78,114
0,62,80,39
0,67,79,7
0,67,67,54
0,59,76,0
0,65,63,0
0,58,63,0
0,62,63,0
0,46,80,0
0,67,81,0
0,77,64,0
0,70,64,0
0,46,64,0
0,74,64,0
0,51,37,0
0,34,99,9
0,62,75,217
0,67,72,126
0,51,46,36
0,74,78,8
0,70,70,180
0,67,80,104
0,67,72,0
0,58,75,50
0,69,81,2
0,60,63,0
0,64,63,0
0,57,63,0
0,45,82,0
0,67,79,0
0,72,64,0
0,76,64,0
0,69,64,0
0,45,64,0
0,51,45,0
0,71,74,2
0,33,100,0
0,67,70,25
0,52,73,4
0,60,82,70
0,51,30,123
0,67,87,3
0,64,78,180
0,62,83,34
0,64,68,1
0,67,66,9
0,57,79,0
0,62,63,0
0,65,63,0
0,58,63,0
0,46,80,0
0,67,81,0
0,74,64,0
0,77,64,0
0,70,64,0
0,46,64,0
0,51,38,0
0,34,95,1
0,86,64,156
0,62,75,217
0,82,64,0
0,67,72,6
0,81,64,0
0,51,54,0
0,74,78,8
0,70,70,180
0,79,64,0
0,67,78,103
0,67,72,1
0,74,64,0
0,58,75,7
0,72,64,0
0,69,68,1
0,47,75,0
0,64,63,0
0,60,63,0
0,57,63,0
0,45,77,0
0,69,75,0
0,76,64,0
0,72,64,0
0,45,64,0
0,81,64,0
0,51,55,0
0,71,60,3
0,60,68,0
0,33,99,0
0,64,82,0
0,67,66,37
0,69,84,0
0,51,51,0
0,45,79,180
0,51,51,0
0,60,75,180
0,74,64,50
0,64,83,1
0,69,80,29
0,51,54,0
0,74,60,3
0,33,100,5
0,67,64,0
0,60,63,0
0,45,81,0
0,69,81,0
0,81,64,0
0,45,64,0
0,51,54,0
0,60,69,132
0,64,80,35
0,69,86,119
0,51,52,0
0,51,52,180
0,60,72,5
0,64,82,3
0,69,79,196
0,69,100,2
0,78,99,30
0,61,63,0
0,57,63,0
0,67,90,0
0,61,91,0
0,57,99,0
0,45,95,0
0,69,64,0
0,73,64,0
0,45,64,0
0,76,64,0
0,51,54,0
0,33,81,8
0,45,89,6
0,78,101,49
0,57,85,165
0,51,58,0
0,67,95,120
0,61,98,0
0,57,104,0
0,78,113,31
0,51,53,209
0,57,86,61
0,76,91,6
0,57,97,72
0,61,93,0
0,67,88,0
0,51,50,0
0,76,104,5
0,67,97,0
0,61,104,0
0,57,106,0
0,45,101,0
0,69,64,0
0,79,64,0
0,76,64,0
0,73,64,0
0,51,75,0
0,33,80,16
0,57,85,30
0,67,84,32
0,57,88,0
0,61,81,0
0,67,97,52
0,61,104,0
0,57,106,0
0,33,92,0
0,45,98,0
0,57,110,0
0,36,117,0
0,57,91,0
0,47,94,0
0,45,97,42
0,33,85,0
0,45,100,0
0,67,95,0
0,57,104,0
0,61,102,0
0,47,97,0
0,36,96,0
0,79,96,0
0,48,96,0
0,60,96,0
0,72,96,0
0,76,96,0
0,60,99,0
0,43,95,0
0,57,110,0
0,36,120,0
0,79,117,3
0,64,91,16
0,67,90,3
0,43,89,6
0,55,85,78
0,51,79,24
0,60,104,151
0,64,98,29
0,67,96,19
0,55,86,103
0,51,79,0
0,60,97,138
0,64,93,15
0,67,88,24
0,60,106,137
0,36,96,34
0,64,102,0
0,51,79,0
0,38,110,1
0,67,96,28
0,43,101,11
0,51,79,0
0,55,85,48
0,64,85,136
0,60,91,1
0,51,79,11
0,60,88,120
0,64,81,19
0,67,84,3
0,60,106,95
0,64,104,44
0,43,98,0
0,51,79,0
0,67,97,39
0,60,91,72
0,51,79,0
0,78,107,1
0,60,104,110
0,64,102,22
0,79,84,1
0,67,95,33
0,35,96,0
0,43,96,0
0,78,96,0
0,55,96,0
0,74,96,0
0,71,96,0
0,79,96,0
0,59,99,0
0,43,95,0
0,86,64,0
0,51,79,0
0,36,117,0
0,78,113,2
0,62,91,22
0,67,90,19
0,79,64,0
0,43,89,6
0,86,64,0
0,78,64,0
0,55,85,0
0,76,83,24
0,86,64,0
0,51,79,0
0,79,64,0
0,59,104,91
0,62,98,29
0,86,64,0
0,67,96,19
0,78,64,0
0,55,86,103
0,86,64,0
0,51,79,0
0,79,64,0
0,59,97,105
0,74,110,2
0,62,93,1
0,86,64,0
0,67,88,24
0,78,64,0
0,59,106,86
0,35,96,34
0,62,102,0
0,86,64,0
0,51,79,0
0,38,117,1
0,67,96,28
0,79,64,0
0,86,64,0
0,78,64,0
0,43,101,0
0,86,64,0
0,51,79,0
0,79,64,0
0,86,64,0
0,55,85,2
0,78,64,0
0,62,85,108
0,59,91,1
0,86,64,0
0,51,79,0
0,79,64,0
0,59,88,96
0,62,81,19
0,86,64,0
0,67,84,3
0,78,64,0
0,59,106,76
0,62,104,44
0,43,98,0
0,86,64,0
0,51,79,0
0,67,97,39
0,79,64,0
0,86,64,0
0,78,64,0
0,59,91,72
0,86,64,0
0,51,79,0
0,79,64,0
0,59,104,91
0,62,102,29
0,86,64,0
0,67,95,34
0,78,64,0
0,36,96,0
0,48,96,0
0,72,96,0
0,60,96,0
0,76,96,0
0,79,96,0
0,60,99,0
0,43,95,0
0,57,113,0
0,36,113,0
0,79,120,3
0,64,91,16
0,67,90,25
0,43,89,6
0,55,85,97
0,51,79,24
0,60,104,151
0,64,98,29
0,67,96,19
0,55,86,103
0,51,79,0
0,60,97,138
0,64,93,15
0,67,88,24
0,60,106,137
0,36,96,34
0,64,102,0
0,51,79,0
0,38,113,1
0,67,96,28
0,43,101,41
0,51,79,0
0,55,85,48
0,64,85,136
0,60,91,1
0,51,79,11
0,60,88,120
0,64,81,19
0,67,84,3
0,60,106,95
0,64,104,44
0,43,98,0
0,51,79,0
0,79,105,1
0,67,97,38
0,60,91,72
0,51,79,0
0,78,103,5
0,60,104,12
0,64,102,29
0,79,109,2
0,67,95,32
0,78,85,0
0,35,96,0
0,78,96,0
0,74,96,0
0,55,96,0
0,71,96,0
0,43,96,0
0,79,96,0
0,59,99,0
0,43,95,0
0,86,64,0
0,57,61,0
0,36,113,0
0,62,91,24
0,67,90,29
0,79,64,0
0,43,89,6
0,86,64,0
0,78,64,0
0,55,85,88
0,74,102,13
0,86,64,0
0,51,79,0
