track,note,velocity,time
3,33,94,0
3,35,94,40
3,35,94,132
3,36,94,72
3,38,94,36
3,40,94,36
3,36,94,8
3,33,94,12
3,38,94,8
3,40,94,4
3,36,94,8
3,33,94,12
3,38,94,12
3,40,94,0
3,36,94,16
3,33,94,8
3,38,94,8
3,40,94,8
3,36,94,0
3,33,94,8
3,38,94,12
3,33,94,12
3,35,94,1532
3,35,94,148
3,36,94,192
3,38,94,1528
3,33,94,24
3,35,94,1536
3,35,94,80
3,36,94,8
3,38,94,8
3,31,94,184
3,36,94,1336
3,35,94,0
3,31,94,212
3,36,94,1348
3,35,94,20
3,43,94,36
3,31,94,180
3,36,94,1340
3,35,94,16
3,31,94,164
3,36,94,1344
3,35,94,760
3,33,94,44
3,33,94,24
3,40,94,1344
3,33,94,188
3,33,94,52
3,40,94,4
3,33,94,184
3,33,94,64
3,40,94,1344
3,33,94,184
3,33,94,44
3,36,94,36
3,40,94,80
3,36,94,4
3,33,94,12
3,38,94,12
3,40,94,4
3,36,94,8
3,33,94,12
3,38,94,4
3,40,94,8
3,36,94,4
3,33,94,8
3,38,94,12
3,40,94,12
3,36,94,0
3,33,94,8
3,38,94,8
3,33,94,12
3,35,94,1532
3,35,94,148
3,36,94,192
3,38,94,1536
3,33,94,8
3,35,94,1540
3,35,94,80
3,36,94,8
3,38,94,8
3,31,94,184
3,36,94,8
3,35,94,764
3,31,94,216
3,36,94,1344
3,35,94,24
3,43,94,36
3,31,94,172
3,36,94,1344
3,35,94,16
3,31,94,160
3,36,94,1348
3,35,94,768
3,33,94,40
3,33,94,32
3,40,94,1340
3,33,94,184
3,33,94,56
3,36,94,0
3,40,94,12
3,45,94,8
3,40,94,8
3,45,94,12
3,38,94,0
3,43,94,16
3,40,94,4
3,45,94,8
3,40,94,4
3,45,94,12
3,38,94,8
3,43,94,8
3,40,94,4
3,38,94,8
3,43,94,12
3,35,94,12
3,33,94,8
3,35,94,1536
3,35,94,152
3,36,94,188
3,38,94,1532
3,33,94,8
3,35,94,1544
3,35,94,84
3,36,94,0
3,38,94,4
3,31,94,192
3,36,94,1336
3,35,94,12
3,31,94,208
3,36,94,1344
3,35,94,12
3,43,94,48
3,31,94,164
3,36,94,4
3,35,94,12
3,31,94,168
3,36,94,1348
3,35,94,756
3,31,94,240
3,36,94,8
3,35,94,764
3,31,94,216
3,36,94,1340
3,35,94,24
3,43,94,36
3,31,94,176
3,36,94,1340
3,35,94,16
3,31,94,172
3,36,94,1344
3,35,94,756
3,31,94,240
3,36,94,4
3,35,94,0
3,31,94,208
3,36,94,1344
3,35,94,20
3,43,94,40
3,31,94,4
3,36,94,192
3,35,94,4
3,31,94,4
3,36,94,188
3,35,94,0
3,31,94,188
3,36,94,4
3,35,94,0
3,31,94,4
3,36,94,192
3,35,94,12
3,43,94,40
4,52,79,188
4,55,89,196
4,60,99,8
4,52,79,12
4,55,89,192
4,60,99,12
4,54,79,0
4,57,89,196
4,66,109,8
4,50,99,4
4,69,119,12
4,71,109,8
4,69,99,0
4,52,79,200
4,55,89,192
4,67,119,12
4,55,79,8
4,60,99,188
4,57,79,204
4,62,89,196
4,50,99,8
4,69,119,0
4,64,109,8
4,66,99,4
4,62,89,8
4,67,79,0
4,62,79,8
4,71,99,0
4,59,79,4
4,62,79,192
4,67,79,12
4,60,79,384
4,67,99,0
4,64,79,4
4,55,79,188
4,60,79,12
4,64,99,16
4,52,79,772
4,57,89,192
4,60,99,8
4,64,89,4
4,60,79,196
4,57,79,200
4,62,89,196
4,66,99,4
4,69,109,0
4,66,99,12
4,62,89,8
4,66,79,8
4,71,99,4
4,67,79,4
4,62,79,0
4,59,79,8
4,62,79,12
4,67,79,4
4,59,79,780
4,62,79,196
4,67,79,4
4,60,79,776
4,64,89,196
4,67,99,16
4,64,89,4
4,60,79,12
4,57,79,4
4,64,89,192
4,62,99,200
4,66,89,188
4,69,79,12
4,71,99,0
4,62,79,4
4,67,79,0
4,59,79,4
4,62,79,192
4,67,79,8
4,67,99,396
4,60,79,4
4,64,79,0
4,55,79,0
4,60,79,4
4,64,99,12
4,52,79,780
4,57,89,184
4,60,99,0
4,64,89,12
4,60,79,192
4,57,79,200
4,62,89,188
4,66,99,8
4,69,109,8
4,66,99,4
4,62,89,16
4,66,79,8
4,62,79,0
4,71,99,0
4,67,79,4
4,59,79,4
4,62,79,16
4,67,79,8
4,59,79,776
4,62,79,192
4,67,79,8
4,64,79,200
4,67,79,0
4,60,99,4
4,60,79,204
4,64,89,192
4,67,99,4
4,64,89,8
4,60,79,8
4,57,79,4
4,64,89,200
4,62,99,196
4,66,89,192
4,69,79,4
4,52,79,12
4,55,79,192
4,60,89,4
4,64,99,4
4,54,79,584
4,57,79,200
4,62,89,8
4,66,99,0
4,55,79,588
4,60,79,196
4,62,89,4
4,67,99,0
4,57,79,588
4,62,79,188
4,66,89,12
4,69,99,12
4,55,79,584
4,60,79,188
4,64,89,12
4,67,99,16
4,64,89,4
4,60,79,8
4,55,79,8
4,57,79,8
4,62,89,188
4,69,99,8
4,71,99,4
4,69,99,196
4,55,79,196
4,60,79,192
4,64,89,12
4,67,99,12
4,64,89,8
4,60,79,8
4,57,79,200
4,62,89,188
4,66,99,8
4,62,89,12
4,57,79,192
4,83,115,380
4,71,126,4
4,71,126,0
4,83,115,0
4,83,115,0
4,71,126,0
4,71,126,0
4,83,115,0
4,83,115,0
4,71,126,0
4,83,115,0
4,71,126,0
4,71,126,0
4,83,115,0
4,71,126,0
4,83,115,0
4,76,115,1352
4,64,126,4
4,64,126,0
4,76,115,0
4,64,126,0
4,76,115,0
4,76,115,0
4,64,126,0
4,64,126,0
4,76,115,0
4,64,126,0
4,76,115,0
4,76,115,0
4,64,126,0
4,64,126,0
4,76,115,0
4,71,126,1348
4,83,126,4
4,95,115,4
4,71,126,0
4,95,115,0
4,83,126,0
4,83,126,0
4,71,126,0
4,95,115,0
4,83,126,0
4,95,115,0
4,71,126,0
4,83,126,0
4,71,126,0
4,95,115,0
4,95,115,0
4,71,126,0
4,83,126,0
4,71,126,0
4,83,126,0
4,95,115,0
4,83,126,0
4,71,126,0
4,95,115,0
4,62,79,92
4,71,99,0
4,59,79,200
4,62,79,8
4,67,79,0
4,59,79,8
4,62,79,192
4,67,79,12
4,55,79,4
4,60,79,196
4,64,99,16
4,55,79,0
4,60,79,200
4,64,99,8
4,52,79,12
4,57,89,196
4,60,99,8
4,64,89,8
4,60,79,192
4,57,79,196
4,62,89,192
4,66,99,12
4,69,109,8
4,66,99,8
4,62,89,8
4,66,79,12
4,62,79,0
4,67,79,4
4,71,99,4
4,59,79,8
4,62,79,0
4,67,79,4
4,59,79,780
4,62,79,192
4,67,79,4
4,60,79,784
4,64,89,188
4,67,99,8
4,64,89,0
4,60,79,12
4,57,79,4
4,64,89,192
4,62,99,204
4,66,89,196
4,69,79,4
4,62,79,4
4,67,79,0
4,71,99,0
4,59,79,8
4,62,79,8
4,67,79,8
4,59,79,8
4,62,79,196
4,67,79,8
4,55,79,4
4,60,79,196
4,64,99,8
4,55,79,12
4,60,79,192
4,64,99,8
4,52,79,8
4,57,89,188
4,60,99,8
4,64,89,12
4,60,79,192
4,57,79,196
4,62,89,188
4,66,99,12
4,69,109,16
4,66,99,0
4,62,89,4
4,66,79,12
4,67,79,4
4,62,79,0
4,71,99,0
4,59,79,12
4,62,79,8
4,67,79,4
4,59,79,776
4,62,79,200
4,67,79,8
4,60,79,780
4,64,89,196
4,67,99,4
4,64,89,12
4,60,79,4
4,57,79,16
4,64,89,184
4,62,99,208
4,66,89,184
4,69,79,8
4,45,79,12
4,52,79,4
4,55,79,4
4,60,89,4
4,64,99,12
4,47,79,388
4,54,79,196
4,57,79,12
4,62,89,4
4,66,99,4
4,48,79,392
4,55,79,192
4,60,79,12
4,62,89,12
4,67,99,12
4,50,79,384
4,57,79,192
4,62,79,8
4,66,89,16
4,69,99,12
4,45,79,392
4,55,79,192
4,60,79,4
4,64,89,4
4,67,99,8
4,64,89,16
4,60,79,8
4,55,79,0
4,47,79,12
4,57,79,12
4,62,89,4
4,69,99,8
4,71,99,8
4,69,99,188
4,48,79,16
4,55,79,188
4,60,79,4
4,64,89,12
4,67,99,8
4,64,89,0
4,60,79,12
4,50,89,4
4,57,79,196
4,62,89,4
4,66,99,8
4,62,89,0
4,57,79,196
4,83,115,380
4,71,126,4
4,83,115,0
4,71,126,0
4,83,115,0
4,71,126,0
4,83,115,0
4,71,126,0
4,71,126,0
4,83,115,0
4,71,126,0
4,83,115,0
4,71,126,0
4,83,115,0
4,83,115,0
4,71,126,0
4,45,99,19788
4,52,99,188
4,55,99,4
4,60,109,8
4,64,119,8
4,47,99,392
4,54,99,196
4,57,99,16
4,62,109,8
4,66,119,0
4,48,99,396
4,55,99,192
4,60,99,4
4,62,109,8
4,67,119,8
4,50,99,396
4,57,99,192
4,62,99,12
4,66,109,4
4,69,119,0
4,45,99,396
4,55,99,192
4,60,99,4
4,64,109,12
4,67,119,8
4,64,109,8
4,60,99,8
4,55,99,0
4,47,99,12
4,57,99,12
4,62,109,4
4,69,119,8
4,71,119,4
4,69,119,192
4,48,99,16
4,55,99,192
4,60,99,4
4,64,109,8
4,67,119,8
4,64,109,0
4,60,99,4
4,50,109,12
4,57,99,188
4,62,109,8
4,66,119,12
4,62,109,12
4,57,99,188
5,64,117,380
5,64,107,8
5,64,117,8
5,62,107,8
5,59,107,16
5,62,117,4
5,59,107,4
5,52,107,396
5,57,117,4
5,55,107,12
5,59,107,8
5,57,117,0
5,59,107,4
5,52,107,968
5,57,117,12
5,57,107,8
5,59,117,12
5,57,97,4
5,57,117,4
5,59,117,8
5,67,117,4
5,66,107,0
5,64,107,0
5,64,117,4
5,62,97,16
5,59,107,0
5,59,117,8
5,55,107,8
5,59,107,12
5,57,117,0
5,52,97,0
5,57,107,1352
5,59,117,4
5,57,107,12
5,57,117,4
5,59,107,4
5,64,117,768
5,64,107,4
5,64,117,4
5,62,107,12
5,59,107,8
5,62,117,4
5,59,107,4
5,55,97,768
5,59,107,8
5,57,117,0
5,59,97,0
5,55,107,580
5,57,117,8
5,55,107,8
5,57,117,8
5,59,117,16
5,57,97,4
5,57,117,8
5,54,107,4
5,70,107,4
5,69,97,4
5,67,107,12
5,64,97,8
5,67,107,12
5,64,97,4
5,64,107,12
5,62,87,8
5,64,107,4
5,55,107,1744
5,57,117,4
5,59,117,4
5,62,117,16
5,64,117,0
5,52,97,968
5,59,107,12
5,57,117,100
5,59,97,8
5,59,107,4
5,59,117,100
5,59,107,8
5,57,117,0
5,55,107,12
5,55,117,8
5,55,107,4
5,55,117,12
5,59,117,4
5,57,117,16
5,57,107,580
5,57,107,0
5,52,97,4
5,59,107,1168
5,55,92,96
5,57,117,8
5,59,107,104
5,59,117,12
5,57,107,4
5,55,107,584
5,55,117,12
5,55,107,4
5,55,117,8
5,55,107,16
5,62,117,0
5,62,117,12
5,57,107,576
5,55,97,112
5,55,107,392
5,55,117,4
5,57,107,8
5,57,117,8
5,55,107,8
5,55,117,12
5,55,107,8
5,52,117,8
5,52,117,196
5,50,97,8
5,50,117,8
5,55,117,8
5,55,107,396
5,55,117,4
5,57,107,8
5,57,117,12
5,55,107,12
5,55,117,4
5,55,107,12
5,55,117,8
5,55,107,0
5,62,117,12
5,62,117,12
5,55,107,580
5,55,117,12
5,57,107,4
5,57,117,16
5,55,107,4
5,50,97,208
5,52,117,0
5,52,117,200
5,50,107,16
5,50,117,8
5,55,117,4
5,55,107,388
5,55,117,8
5,57,107,8
5,57,117,8
5,55,107,12
5,55,117,8
5,55,107,12
5,55,117,0
5,62,117,8
5,62,117,12
5,52,97,1736
5,54,107,4
5,55,117,12
5,55,117,4
5,57,117,392
5,57,117,12
5,55,97,4
5,55,117,12
5,52,97,4
5,52,117,12
5,55,117,968
5,59,117,8
5,57,117,0
5,57,117,12
5,57,117,0
5,52,97,8
5,55,117,12
5,52,97,8
5,50,97,292
5,52,107,12
5,55,117,8
5,59,117,4
5,57,117,4
5,57,107,8
5,55,117,8
5,52,97,8
5,52,117,16
5,50,97,776
5,52,107,4
5,55,117,8
5,59,117,8
5,62,117,8
5,64,107,4
5,64,117,0
5,62,107,8
5,59,107,8
5,62,117,12
5,59,107,0
5,52,107,392
5,57,117,4
5,55,107,4
5,59,107,8
5,57,117,4
5,59,107,8
5,57,117,780
5,55,107,104
5,57,117,12
5,59,117,4
5,57,107,108
5,57,107,4
5,59,117,16
5,67,117,1152
5,66,107,8
5,64,107,12
5,62,117,4
5,64,97,8
5,62,107,16
5,59,117,0
5,55,107,8
5,59,107,12
5,57,117,12
5,52,97,0
5,57,107,1352
5,59,117,0
5,57,107,4
5,57,117,16
5,59,107,0
5,64,107,0
5,64,117,8
5,64,107,8
5,64,117,0
5,62,107,8
5,59,107,8
5,62,117,4
5,59,107,8
5,57,117,0
5,55,107,8
5,59,107,4
5,57,117,0
5,59,97,4
5,55,107,960
5,57,117,16
5,59,117,0
5,57,97,8
5,57,117,8
5,54,107,0
5,64,97,192
5,70,117,100
5,69,107,0
5,67,117,8
5,64,107,4
5,67,117,12
5,64,107,0
5,55,107,1928
5,57,117,12
5,59,117,8
5,59,107,104
5,62,117,8
5,64,117,4
5,62,97,8
5,52,97,580
5,59,107,4
5,57,117,100
5,59,97,8
5,59,107,584
5,59,117,112
5,59,107,4
5,57,117,0
5,55,107,8
5,55,117,8
5,55,107,8
5,55,117,8
5,59,117,4
5,57,117,12
5,57,107,580
5,57,107,108
5,52,97,4
5,59,107,1168
5,55,92,104
5,57,117,4
5,59,107,4
5,59,117,4
5,57,107,16
5,55,107,580
5,55,117,8
5,55,107,12
5,55,117,4
5,55,107,8
5,62,117,4
5,62,117,16
5,57,107,0
5,55,97,100
5,55,107,396
5,55,117,4
5,57,107,16
5,57,117,4
5,55,107,8
5,55,117,16
5,55,107,8
5,52,117,4
5,52,117,204
5,50,97,0
5,50,117,8
5,55,117,12
5,55,107,396
5,55,117,0
5,57,107,8
5,57,117,16
5,55,107,4
5,55,117,12
5,55,107,4
5,55,117,8
5,55,107,8
5,62,117,8
5,62,117,8
5,55,107,584
5,55,117,8
5,57,107,4
5,57,117,8
5,55,107,12
5,50,97,204
5,52,117,0
5,52,117,204
5,50,107,8
5,50,117,12
5,55,117,4
5,55,107,388
5,55,117,12
5,57,107,4
5,57,117,12
5,55,107,4
5,55,117,16
5,55,107,0
5,55,117,8
5,62,117,12
5,62,117,8
5,52,97,1732
5,54,107,16
5,55,117,0
5,55,117,12
5,57,117,392
5,57,117,4
5,55,97,8
5,55,117,8
5,52,97,12
5,52,117,4
5,52,107,584
5,54,107,104
5,55,117,16
5,59,117,4
5,57,117,4
5,55,107,4
5,57,117,8
5,59,107,8
5,52,97,18252
5,55,117,104
5,55,107,4
5,55,117,12
5,59,107,4
5,57,117,4
5,59,107,8
5,59,117,584
5,59,107,12
5,57,117,4
5,55,107,8
5,55,117,8
5,55,107,12
5,59,117,196
5,57,117,0
5,57,107,580
5,57,107,4
5,52,97,4
5,52,97,200
5,55,117,8
5,55,107,8
5,55,117,12
5,55,92,396
5,57,117,0
5,59,107,8
5,57,117,12
5,59,107,4
5,57,107,4
5,55,107,4
5,55,117,12
5,55,117,196
5,55,107,8
5,62,107,8
5,62,117,12
5,55,107,776
5,57,117,12
5,55,107,4
5,55,107,196
5,55,117,16
5,57,107,4
5,57,117,8
5,55,107,8
5,55,117,16
5,55,107,4
5,52,117,8
5,52,117,204
5,50,97,12
5,50,117,4
5,55,117,12
5,55,107,388
5,55,117,4
5,57,107,12
5,57,117,4
5,55,107,12
5,55,117,4
5,55,107,16
5,55,117,4
5,55,107,4
5,62,117,12
5,62,117,8
5,55,107,584
5,55,117,4
5,57,107,8
5,57,117,12
5,55,107,12
5,50,97,196
5,52,117,8
5,52,117,200
5,50,107,4
5,50,117,12
5,55,117,4
5,55,107,400
5,55,117,8
5,57,107,4
5,57,117,4
5,55,107,8
5,55,117,8
5,55,107,8
