track,note,velocity,time
1,31,94,4188
1,31,94,44
1,31,94,248
1,31,94,44
1,31,94,48
1,31,94,140
1,31,94,136
1,31,94,48
1,31,94,148
1,31,94,240
1,31,94,48
1,31,64,144
1,31,94,48
1,31,94,40
1,31,94,48
1,31,94,140
1,31,94,236
1,31,94,136
1,31,94,144
1,31,94,52
1,31,94,40
1,31,94,244
1,31,94,48
1,31,94,44
1,31,94,148
1,31,94,144
1,31,94,40
1,31,94,148
1,31,94,236
1,31,94,40
1,31,64,144
1,31,94,52
1,31,94,44
1,31,94,40
1,31,94,140
1,31,94,240
1,31,94,144
1,31,94,136
1,26,94,44
1,26,94,48
1,26,94,248
1,26,94,44
1,26,94,44
1,26,94,140
1,26,94,148
1,26,94,40
1,26,94,148
1,26,94,232
1,26,94,48
1,26,64,144
1,26,94,44
1,26,94,48
1,26,94,48
1,26,94,140
1,26,94,236
1,26,94,140
1,26,94,144
1,31,94,40
1,31,94,52
1,31,94,232
1,31,94,44
1,31,94,56
1,31,94,140
1,31,94,144
1,31,94,40
1,31,94,140
1,31,94,240
1,31,94,44
1,31,64,140
1,31,94,40
1,31,94,52
1,31,94,40
1,31,94,144
1,31,94,240
1,31,94,144
1,31,94,136
1,34,94,44
1,34,94,44
1,34,94,236
1,34,94,52
1,34,94,48
1,34,94,144
1,34,94,140
1,34,94,48
1,34,94,140
1,34,94,236
1,34,94,44
1,34,64,144
1,34,94,44
1,34,94,52
1,34,94,40
1,34,94,152
1,34,94,236
1,34,94,136
1,22,94,148
1,26,94,48
1,26,94,40
1,26,94,240
1,26,94,44
1,26,94,48
1,26,94,136
1,26,94,144
1,26,94,48
1,26,94,136
1,26,94,240
1,26,94,44
1,26,64,144
1,26,94,48
1,26,94,48
1,26,94,44
1,26,94,140
1,26,94,240
1,26,94,152
1,26,94,140
1,26,94,44
1,26,94,52
1,26,94,240
1,26,94,48
1,26,94,40
1,26,94,152
1,26,94,140
1,26,94,40
1,26,94,144
1,26,94,236
1,26,94,48
1,26,64,148
1,26,94,40
1,26,94,52
1,26,94,44
1,26,94,144
1,26,94,240
1,26,94,140
1,26,94,136
1,31,94,44
1,31,94,48
1,31,94,236
1,31,94,44
1,31,94,48
1,31,94,152
1,31,94,140
1,31,94,52
1,31,94,136
1,31,94,240
1,31,94,48
1,31,64,148
1,31,94,44
1,31,94,44
1,31,94,48
1,31,94,140
1,31,94,240
1,31,94,144
1,31,94,144
1,34,94,40
1,34,94,48
1,34,94,244
1,34,94,40
1,34,94,44
1,34,94,140
1,34,94,148
1,34,94,52
1,34,94,140
1,34,94,236
1,34,94,44
1,34,64,144
1,34,94,44
1,34,94,48
1,34,94,44
1,34,94,148
1,34,94,236
1,34,94,140
1,22,94,144
1,26,94,48
1,26,94,44
1,26,94,240
1,26,94,44
1,26,94,48
1,26,94,140
1,26,94,148
1,26,94,40
1,26,94,152
1,26,94,232
1,26,94,56
1,26,64,136
1,26,94,48
1,26,94,40
1,26,94,44
1,26,94,148
1,26,94,244
1,26,94,140
1,26,94,136
1,24,94,44
1,24,94,48
1,24,94,236
1,24,94,44
1,24,94,44
1,26,94,148
1,26,94,148
1,26,94,48
1,26,94,140
1,29,94,240
1,29,94,40
1,29,94,240
1,29,94,44
1,29,94,52
1,29,94,236
1,31,94,16
1,29,94,4
1,31,94,8
1,29,94,16
1,26,94,4
1,24,94,104
1,24,94,40
1,24,94,240
1,24,94,48
1,24,94,40
1,26,94,148
1,26,94,140
1,26,94,40
1,26,94,148
1,29,94,236
1,29,94,52
1,29,94,240
1,29,94,44
1,24,94,40
1,24,94,8
1,26,94,8
1,24,94,12
1,26,94,8
1,24,94,12
1,24,94,40
1,24,94,240
1,24,94,48
1,24,94,40
1,26,94,144
1,26,94,140
1,26,94,44
1,26,94,144
1,29,94,240
1,29,94,44
1,29,94,232
1,29,94,48
1,29,94,48
1,29,94,240
1,31,94,12
1,29,94,0
1,31,94,12
1,29,94,8
1,26,94,4
1,24,94,104
1,24,94,56
1,24,94,232
1,24,94,44
1,24,94,56
1,26,94,140
1,26,94,144
1,26,94,48
1,26,94,140
1,29,94,232
1,29,94,52
1,29,94,244
1,29,94,40
1,24,94,48
1,24,94,16
1,26,94,4
1,24,94,4
1,26,94,16
1,38,94,192
1,41,94,68
1,41,94,40
1,38,94,100
1,41,94,12
1,34,94,4
1,36,94,196
1,40,94,88
1,40,94,28
1,36,94,96
1,40,94,20
1,33,94,4
1,33,94,40
1,33,94,44
1,36,94,28
1,38,94,228
1,41,94,68
1,41,94,32
1,38,94,96
1,41,94,4
1,34,94,12
1,36,94,192
1,40,94,92
1,40,94,28
1,36,94,100
1,40,94,20
1,33,94,4
1,33,94,36
1,33,94,40
1,36,94,28
1,38,94,196
1,41,94,72
1,41,94,32
1,38,94,100
1,41,94,8
1,34,94,8
1,36,94,192
1,40,94,88
1,40,94,28
1,36,94,104
1,40,94,16
1,33,94,4
1,33,94,36
1,33,94,56
1,36,94,24
1,38,94,196
1,41,94,72
1,41,94,32
1,38,94,100
1,41,94,4
1,34,94,12
1,36,94,192
1,40,94,92
1,40,94,28
1,36,94,100
1,40,94,20
1,33,94,4
1,33,94,36
1,33,94,48
1,36,94,36
1,31,94,8
1,31,94,40
1,31,94,244
1,31,94,44
1,31,94,44
1,31,94,144
1,31,94,140
1,31,94,48
1,31,94,144
1,31,94,240
1,31,94,40
1,31,64,140
1,31,94,52
1,31,94,44
1,31,94,52
1,31,94,136
1,31,94,244
1,31,94,140
1,31,94,140
1,31,94,52
1,31,94,40
1,31,94,248
1,31,94,44
1,31,94,52
1,31,94,136
1,31,94,144
1,31,94,52
1,31,94,140
1,31,94,232
1,31,94,52
1,31,64,140
1,31,94,44
1,31,94,44
1,31,94,44
1,31,94,144
1,31,94,236
1,31,94,152
1,31,94,136
1,26,94,52
1,26,94,44
1,26,94,236
1,26,94,48
1,26,94,48
1,26,94,136
1,26,94,148
1,26,94,40
1,26,94,144
1,26,94,240
1,26,94,48
1,26,64,148
1,26,94,48
1,26,94,52
1,26,94,40
1,26,94,144
1,26,94,244
1,26,94,140
1,26,94,148
1,31,94,40
1,31,94,56
1,31,94,240
1,31,94,44
1,31,94,44
1,31,94,148
1,31,94,140
1,31,94,44
1,31,94,144
1,31,94,240
1,31,94,44
1,31,64,144
1,31,94,44
1,31,94,48
1,31,94,52
1,31,94,140
1,31,94,240
1,31,94,140
1,31,94,140
1,34,94,48
1,34,94,40
1,34,94,240
1,34,94,44
1,34,94,48
1,34,94,144
1,34,94,144
1,34,94,48
1,34,94,136
1,34,94,244
1,34,94,44
1,34,64,148
1,34,94,44
1,34,94,44
1,34,94,44
1,34,94,144
1,34,94,240
1,34,94,148
1,22,94,144
1,26,94,44
1,26,94,52
1,26,94,240
1,26,94,48
1,26,94,40
1,26,94,140
1,26,94,152
1,26,94,40
1,26,94,148
1,26,94,244
1,26,94,44
1,26,64,140
1,26,94,48
1,26,94,44
1,26,94,48
1,26,94,144
1,26,94,236
1,26,94,140
1,26,94,144
1,24,94,44
1,24,94,48
1,24,94,244
1,24,94,40
1,24,94,48
1,26,94,140
1,26,94,152
1,26,94,40
1,26,94,148
1,29,94,240
1,29,94,40
1,29,94,244
1,29,94,48
1,29,94,44
1,29,94,240
1,31,94,8
1,29,94,4
1,31,94,12
1,29,94,4
1,26,94,8
1,24,94,108
1,24,94,44
1,24,94,236
1,24,94,52
1,24,94,52
1,26,94,136
1,26,94,148
1,26,94,44
1,26,94,140
1,29,94,236
1,29,94,52
1,29,94,236
1,29,94,48
1,24,94,40
1,24,94,8
1,26,94,8
1,24,94,0
1,26,94,4
1,24,94,4
1,24,94,48
1,24,94,236
1,24,94,48
1,24,94,44
1,26,94,144
1,26,94,140
1,26,94,48
1,26,94,144
1,29,94,236
1,29,94,52
1,29,94,236
1,29,94,52
1,29,94,40
1,29,94,236
1,31,94,12
1,29,94,4
1,31,94,12
1,29,94,8
1,26,94,8
1,24,94,104
1,24,94,52
1,24,94,236
1,24,94,52
1,24,94,44
1,26,94,140
1,26,94,152
1,26,94,44
1,26,94,148
1,29,94,236
1,29,94,40
1,29,94,244
1,29,94,48
1,24,94,44
1,24,94,8
1,26,94,4
1,24,94,0
1,26,94,4
1,38,94,192
1,41,94,72
1,41,94,32
1,38,94,100
1,41,94,4
1,34,94,16
1,36,94,192
1,40,94,84
1,40,94,32
1,36,94,108
1,40,94,20
1,33,94,4
1,33,94,32
1,33,94,52
1,36,94,28
1,38,94,192
1,41,94,72
1,41,94,36
1,38,94,104
1,41,94,4
1,34,94,12
1,36,94,196
1,40,94,92
1,40,94,24
1,36,94,104
1,40,94,24
1,33,94,4
1,33,94,36
1,33,94,44
1,36,94,40
1,38,94,192
1,41,94,64
1,41,94,32
1,38,94,108
1,41,94,0
1,34,94,8
1,36,94,200
1,40,94,88
1,40,94,32
1,36,94,100
1,40,94,12
1,33,94,0
1,33,94,40
1,33,94,52
1,36,94,32
1,38,94,192
1,41,94,68
1,41,94,32
1,38,94,104
1,41,94,0
1,34,94,4
1,36,94,200
1,40,94,80
1,40,94,28
1,36,94,96
1,40,94,20
1,33,94,4
1,33,94,36
1,33,94,48
1,36,94,24
1,31,94,4
1,31,94,52
1,31,94,240
1,31,94,48
1,31,94,44
1,31,94,136
1,31,94,144
1,31,94,52
1,31,94,144
1,31,94,240
1,31,94,44
1,31,64,140
1,31,94,44
1,31,94,52
1,31,94,52
1,31,94,140
1,31,94,236
1,31,94,140
1,31,94,152
1,31,94,44
1,31,94,48
1,31,94,240
1,31,94,48
1,31,94,48
1,31,94,136
1,31,94,148
1,31,94,44
1,31,94,144
1,31,94,236
1,31,94,48
1,31,64,136
1,31,94,52
1,31,94,40
1,31,94,52
1,31,94,136
1,31,94,240
1,31,94,148
1,31,94,136
1,26,94,43064
1,26,94,40
1,26,94,248
1,26,94,48
1,26,94,48
1,26,94,136
1,26,94,144
1,26,94,48
1,26,94,140
1,26,94,236
1,26,94,48
1,26,64,148
1,26,94,44
1,26,94,48
1,26,94,40
1,26,94,140
1,26,94,244
1,26,94,136
1,26,94,144
1,31,94,48
1,31,94,48
1,31,94,232
1,31,94,48
1,31,94,44
1,31,94,148
1,31,94,144
1,31,94,40
1,31,94,140
1,31,94,248
1,31,94,44
1,31,64,136
1,31,94,44
1,31,94,52
1,31,94,44
1,31,94,140
1,31,94,236
1,31,94,140
1,31,94,144
1,34,94,40
1,34,94,52
1,34,94,232
1,34,94,48
1,34,94,44
1,34,94,144
1,34,94,148
1,34,94,40
1,34,94,148
1,34,94,240
1,34,94,44
1,34,64,140
1,34,94,52
1,34,94,40
1,34,94,56
1,34,94,136
1,34,94,244
1,34,94,140
1,22,94,144
1,26,94,52
1,26,94,48
1,26,94,232
1,26,94,48
1,26,94,52
1,26,94,144
1,26,94,136
1,26,94,52
1,26,94,140
1,26,94,244
1,26,94,48
1,26,64,136
1,26,94,52
1,26,94,48
1,26,94,44
1,26,94,136
1,26,94,240
1,26,94,136
1,26,94,148
1,24,94,48
1,24,94,44
1,24,94,240
1,24,94,44
1,24,94,44
1,26,94,144
1,26,94,144
1,26,94,52
1,26,94,136
1,29,94,236
1,29,94,48
1,29,94,236
1,29,94,48
1,29,94,56
1,29,94,240
1,31,94,0
1,29,94,12
1,31,94,4
1,29,94,16
1,26,94,8
1,24,94,100
1,24,94,40
1,24,94,236
1,24,94,48
1,24,94,52
1,26,94,144
1,26,94,136
1,26,94,44
1,26,94,144
1,29,94,236
1,29,94,44
1,29,94,240
1,29,94,48
1,24,94,48
1,24,94,4
1,26,94,4
1,24,94,0
1,26,94,4
1,24,94,4
1,24,94,52
1,24,94,232
1,24,94,48
1,24,94,48
1,26,94,140
1,26,94,144
1,26,94,48
1,26,94,140
1,29,94,240
1,29,94,44
1,29,94,240
1,29,94,44
1,29,94,44
1,29,94,248
1,31,94,4
1,29,94,4
1,31,94,8
1,29,94,12
1,26,94,12
1,24,94,100
1,24,94,44
1,24,94,240
1,24,94,40
1,24,94,48
1,26,94,144
1,26,94,140
1,26,94,44
1,26,94,144
1,29,94,232
1,29,94,44
1,29,94,236
1,29,94,48
1,24,94,52
1,24,94,8
1,26,94,4
1,24,94,0
1,26,94,8
1,38,94,196
1,41,94,64
1,41,94,32
1,38,94,104
1,41,94,4
1,34,94,16
1,36,94,192
1,40,94,88
1,40,94,36
1,36,94,96
1,40,94,24
1,33,94,0
1,33,94,44
1,33,94,44
1,36,94,24
1,38,94,196
1,41,94,76
1,41,94,28
1,38,94,108
1,41,94,4
1,34,94,8
1,36,94,192
1,40,94,88
1,40,94,28
1,36,94,96
1,40,94,24
1,33,94,0
1,33,94,40
1,33,94,44
1,36,94,28
1,38,94,196
1,41,94,72
1,41,94,28
1,38,94,112
1,41,94,0
1,34,94,8
1,36,94,204
1,40,94,84
1,40,94,32
1,36,94,100
1,40,94,16
1,33,94,4
1,33,94,36
1,33,94,48
1,36,94,32
1,38,94,192
1,41,94,76
1,41,94,36
1,38,94,100
1,41,94,4
1,34,94,12
1,36,94,192
1,40,94,88
1,40,94,32
1,36,94,100
1,40,94,20
1,33,94,4
1,33,94,32
1,33,94,52
1,36,94,28
1,38,94,200
1,41,94,68
1,41,94,32
1,38,94,100
1,41,94,4
1,34,94,12
1,36,94,192
1,40,94,84
1,40,94,28
1,36,94,96
1,40,94,20
1,33,94,4
1,33,94,40
1,33,94,48
1,36,94,28
1,38,94,192
1,41,94,72
1,41,94,28
1,38,94,100
1,41,94,12
1,34,94,12
1,36,94,192
1,40,94,80
1,40,94,32
1,36,94,96
1,40,94,16
1,33,94,0
1,33,94,40
1,33,94,56
1,36,94,28
1,38,94,192
1,41,94,72
1,41,94,28
1,38,94,104
1,41,94,0
1,34,94,12
1,36,94,200
1,40,94,80
1,40,94,40
1,36,94,92
1,40,94,20
1,33,94,0
1,33,94,40
1,33,94,44
1,36,94,32
1,38,94,200
1,41,94,72
1,41,94,24
1,38,94,104
1,41,94,4
1,34,94,16
1,36,94,192
1,40,94,88
1,40,94,36
1,36,94,96
1,40,94,16
1,33,94,4
1,33,94,40
1,33,94,52
1,36,94,32
1,31,94,0
1,31,94,44
1,31,94,236
1,31,94,52
1,31,94,44
1,31,94,144
1,31,94,136
1,31,94,44
1,31,94,144
1,31,94,244
1,31,94,44
1,31,64,144
1,31,94,52
1,31,94,52
1,31,94,48
1,31,94,136
1,31,94,236
1,31,94,144
1,31,94,148
1,31,94,48
1,31,94,40
1,31,94,240
1,31,94,44
1,31,94,48
1,31,94,148
1,31,94,144
1,31,94,40
1,31,94,148
1,31,94,244
1,31,94,40
1,31,64,144
1,31,94,56
1,31,94,40
1,31,94,52
1,31,94,136
1,31,94,236
1,31,94,148
1,31,94,136
1,24,94,0
1,26,94,92
2,38,104,22600
2,38,104,4
2,38,104,4
2,38,104,4
2,36,104,4
2,38,104,4
2,38,104,4
2,38,104,4
2,38,104,4
2,36,104,4
2,38,104,4
2,36,104,4
2,38,104,4
2,43,104,4
2,43,104,4
2,43,104,4
2,43,104,4
2,41,104,4
2,43,104,4
2,43,104,4
2,43,104,4
2,43,104,4
2,41,104,4
2,43,104,4
2,41,104,4
2,43,104,4
2,46,104,4
2,46,104,4
2,46,104,4
2,46,104,4
2,43,104,4
2,46,104,4
2,46,104,4
2,46,104,4
2,46,104,4
2,43,104,4
2,46,104,4
2,43,104,4
2,36,104,4
2,38,104,4
2,38,104,4
2,38,104,4
2,38,104,4
2,36,104,4
2,38,104,4
2,38,104,4
2,38,104,4
2,38,104,4
2,36,104,4
2,38,104,4
2,36,104,4
2,38,104,4
2,43,104,32
2,48,104,0
2,52,104,0
2,55,104,0
2,43,104,4
2,48,104,0
2,52,104,0
2,55,104,0
2,45,104,196
2,50,104,0
2,53,104,0
2,57,104,0
2,48,104,136
2,53,104,0
2,57,104,0
2,60,104,0
2,48,104,4
2,53,104,0
2,57,104,0
2,60,104,0
2,50,104,196
2,55,104,0
