track,note,velocity,time
0,49,127,0
0,64,99,0
0,61,99,0
0,56,87,0
0,52,99,5
0,56,127,20
0,61,127,120
0,61,127,40
0,64,114,0
0,56,114,0
0,52,114,120
0,49,127,60
0,44,99,5
0,59,127,0
0,63,114,0
0,51,114,70
0,56,127,120
0,59,127,95
0,44,99,75
0,59,127,45
0,56,127,0
0,63,127,0
0,51,127,55
0,44,114,60
0,42,127,15
0,61,127,0
0,57,119,0
0,54,127,0
0,49,114,0
0,54,114,120
0,57,127,105
0,61,127,50
0,54,127,0
0,57,127,0
0,49,127,120
0,42,114,55
0,44,127,5
0,63,99,0
0,59,127,0
0,56,87,5
0,64,78,0
0,61,87,0
0,56,99,10
0,66,127,5
0,63,127,0
0,59,127,0
0,56,99,0
0,63,127,40
0,59,127,0
0,44,127,50
0,49,127,0
0,64,99,0
0,61,99,0
0,56,87,0
0,68,91,0
0,64,91,0
0,61,91,0
0,52,99,5
0,56,127,20
0,61,127,120
0,68,107,35
0,61,127,26
0,64,114,0
0,56,114,0
0,68,102,2
0,52,114,40
0,68,105,1
0,49,127,19
0,68,94,3
0,44,99,5
0,59,127,0
0,63,114,0
0,59,91,0
0,63,91,0
0,68,97,2
0,51,114,70
0,56,127,42
0,59,127,95
0,68,107,16
0,44,99,75
0,71,104,1
0,59,127,25
0,56,127,0
0,63,127,0
0,71,107,6
0,51,127,6
0,73,110,8
0,44,114,3
0,68,114,14
0,42,127,15
0,61,127,0
0,57,119,0
0,54,127,0
0,57,91,0
0,61,91,0
0,64,91,0
0,49,114,0
0,66,110,20
0,54,114,100
0,57,127,105
0,61,127,50
0,54,127,0
0,57,127,0
0,49,127,120
0,42,114,27
0,44,127,5
0,63,99,0
0,59,127,0
0,56,91,0
0,59,91,0
0,63,91,0
0,56,87,5
0,64,78,0
0,61,87,0
0,56,99,10
0,66,127,5
0,63,127,0
0,59,127,0
0,56,99,0
0,63,127,40
0,59,127,0
0,44,127,50
0,49,127,0
0,64,99,0
0,61,99,0
0,56,87,0
0,68,91,0
0,64,91,0
0,61,91,0
0,52,99,5
0,56,127,20
0,61,127,120
0,68,118,43
0,61,127,36
0,64,114,0
0,56,114,0
0,68,108,8
0,52,114,47
0,68,124,8
0,49,127,60
0,44,99,5
0,59,127,0
0,63,114,0
0,59,91,0
0,63,91,0
0,51,114,20
0,56,127,120
0,59,127,95
0,68,101,13
0,44,99,15
0,71,114,17
0,59,127,45
0,56,127,0
0,63,127,0
0,73,120,14
0,51,127,55
0,44,114,24
0,76,108,7
0,42,127,15
0,61,127,0
0,57,119,0
0,54,127,0
0,57,91,0
0,61,91,0
0,64,91,0
0,49,114,0
0,73,99,5
0,54,114,115
0,57,127,105
0,75,75,38
0,61,127,11
0,54,127,0
0,57,127,0
0,73,85,48
0,71,104,2
0,49,127,3
0,42,114,55
0,56,91,5
0,59,91,0
0,63,91,0
0,44,119,10
0,56,99,5
0,59,119,0
0,63,119,5
0,64,109,10
0,61,99,10
0,63,127,55
0,44,114,50
0,56,127,30
0,61,127,0
0,63,127,5
0,61,127,10
0,44,127,50
0,42,94,5
0,42,127,0
0,58,127,0
0,61,127,0
0,70,40,0
0,54,91,0
0,58,91,0
0,61,91,0
0,54,114,10
0,70,98,127
0,58,127,3
0,61,127,0
0,73,114,14
0,73,122,40
0,54,127,15
0,42,127,20
0,75,107,3
0,41,86,10
0,41,127,0
0,56,127,0
0,61,127,0
0,65,91,0
0,68,91,0
0,61,91,0
0,73,112,16
0,53,127,10
0,73,122,14
0,73,97,48
0,56,127,60
0,61,127,0
0,75,104,6
0,53,127,20
0,73,108,87
0,41,127,3
0,39,94,15
0,39,127,0
0,58,127,0
0,63,127,0
0,54,127,0
0,70,91,0
0,66,91,0
0,63,91,0
0,78,112,3
0,54,127,8
0,75,118,2
0,75,109,51
0,58,127,113
0,63,127,0
0,54,127,30
0,39,127,80
0,75,112,7
0,38,86,4
0,38,127,0
0,62,127,0
0,59,127,0
0,50,127,0
0,55,127,0
0,55,91,0
0,62,91,0
0,67,91,0
0,59,91,0
0,74,120,6
0,71,122,13
0,71,114,24
0,43,86,40
0,43,127,0
0,55,102,0
0,62,119,0
0,67,127,0
0,59,127,0
0,71,102,87
0,70,109,7
0,42,82,20
0,42,127,0
0,63,127,0
0,54,127,0
0,58,127,0
0,54,91,0
0,58,91,0
0,61,91,0
0,66,91,0
0,54,99,285
0,58,87,0
0,54,87,286
0,58,99,0
0,42,97,0
0,66,127,0
0,47,100,0
0,45,119,0
0,41,86,20
0,65,127,0
0,45,104,0
0,39,94,10
0,63,127,0
0,41,119,0
0,38,86,10
0,62,127,0
0,37,97,20
0,52,127,0
0,61,127,0
0,56,127,0
0,37,127,0
0,80,91,0
0,61,91,0
0,64,91,0
0,56,91,0
0,35,101,0
0,49,85,5
0,42,88,155
0,68,106,70
0,61,127,0
0,56,127,0
0,52,127,0
0,38,127,0
0,42,88,0
0,52,127,53
0,42,72,0
0,68,105,1
0,37,94,19
0,49,127,0
0,35,101,0
0,68,96,3
0,32,94,0
0,44,127,0
0,56,127,0
0,59,127,0
0,63,127,0
0,56,91,0
0,59,91,0
0,63,91,0
0,35,101,0
0,42,88,0
0,42,88,22
0,63,127,70
0,59,127,0
0,56,127,0
0,38,127,0
0,42,88,0
0,71,107,1
0,56,127,20
0,42,88,0
0,73,110,9
0,32,94,29
0,44,127,0
0,35,101,0
0,30,94,5
0,42,127,0
0,61,127,0
0,57,127,0
0,54,127,0
0,61,91,0
0,57,91,0
0,64,91,0
0,54,91,0
0,35,101,0
0,68,114,1
0,42,88,4
0,66,110,24
0,49,127,0
0,42,88,0
0,61,127,230
0,57,127,0
0,54,127,0
0,38,127,0
0,42,88,0
0,30,94,20
0,49,127,0
0,42,72,0
0,42,127,85
0,35,101,0
0,32,97,20
0,44,127,0
0,63,127,0
0,59,127,0
0,56,127,0
0,63,91,0
0,59,91,0
0,56,91,0
0,35,101,0
0,42,88,0
0,75,120,3
0,71,120,5
0,56,114,5
0,64,127,8
0,61,114,0
0,42,88,0
0,56,114,0
0,51,94,10
0,66,127,0
0,59,127,0
0,38,127,0
0,42,88,0
0,56,127,35
0,59,127,5
0,63,127,0
0,42,88,0
0,75,114,1
0,71,111,0
0,44,127,45
0,35,101,0
0,49,94,10
0,49,127,0
0,56,127,0
0,61,127,0
0,52,127,0
0,56,91,0
0,61,91,0
0,64,91,0
0,35,101,0
0,42,88,5
0,52,99,35
0,42,88,0
0,61,127,195
0,64,127,0
0,56,127,0
0,38,127,0
0,42,88,0
0,68,118,3
0,68,108,44
0,37,94,10
0,56,127,0
0,42,72,0
0,68,124,40
0,49,127,5
0,35,101,0
0,32,97,15
0,44,127,0
0,59,127,0
0,63,127,0
0,56,127,0
0,59,91,0
0,63,91,0
0,56,91,0
0,35,101,0
0,42,88,0
0,56,114,0
0,42,88,0
0,68,101,113
0,59,87,0
0,63,127,0
0,56,127,0
0,38,127,0
0,42,88,0
0,71,114,2
0,73,120,20
0,56,127,0
0,42,88,0
0,32,94,14
0,44,127,0
0,35,101,0
0,76,108,2
0,30,94,0
0,42,127,0
0,61,127,0
0,54,127,0
0,57,127,0
0,61,91,0
0,54,91,0
0,57,91,0
0,64,91,0
0,35,101,0
0,42,88,5
0,73,99,25
0,49,127,115
0,42,88,0
0,54,127,230
0,57,127,0
0,61,127,0
0,38,127,0
0,42,88,0
0,75,75,13
0,73,85,59
0,71,104,2
0,49,127,3
0,42,72,0
0,30,94,75
0,42,127,0
0,35,101,0
0,32,97,10
0,44,127,0
0,59,127,0
0,56,127,0
0,63,127,0
0,59,91,0
0,63,91,0
0,56,91,0
0,35,101,0
0,42,88,0
0,75,110,3
0,71,110,5
0,64,114,2
0,63,114,6
0,42,88,0
0,44,127,70
0,32,94,45
0,56,127,0
0,61,127,0
0,38,127,0
0,42,88,0
0,73,98,5
0,68,98,5
0,63,127,5
0,61,127,0
0,42,88,0
0,44,127,84
0,35,101,0
0,73,97,13
0,70,97,0
0,30,94,2
0,42,127,0
0,58,127,0
0,61,127,0
0,54,127,0
0,49,127,0
0,78,91,0
0,61,91,0
0,54,91,0
0,58,91,0
0,35,101,0
0,42,88,0
0,49,127,5
0,42,88,0
0,58,127,235
0,61,127,0
0,54,127,0
0,38,127,0
0,42,88,0
0,70,98,4
0,71,114,7
0,30,97,11
0,49,127,0
0,42,72,0
0,73,122,1
0,42,127,10
0,35,101,0
0,75,106,3
0,29,97,25
0,41,127,0
0,56,127,0
0,61,127,0
0,53,127,0
0,80,91,0
0,61,91,0
0,56,91,0
0,53,91,0
0,35,101,0
0,42,88,0
0,73,112,1
0,53,127,10
0,42,88,0
0,73,122,9
0,73,97,7
0,56,127,108
0,61,127,0
0,53,127,0
0,38,127,0
0,42,88,0
0,75,104,4
0,53,127,40
0,42,88,0
0,73,108,82
0,29,86,3
0,41,127,0
0,35,101,0
0,27,94,0
0,39,127,0
0,58,127,0
0,63,127,0
0,54,127,0
0,82,91,0
0,63,91,0
0,58,91,0
0,54,91,0
0,35,101,0
0,78,112,3
0,42,88,2
0,54,127,8
0,42,88,0
0,75,118,2
0,75,109,51
0,58,127,70
0,63,127,0
0,38,127,0
0,42,88,0
0,54,127,10
0,42,72,0
0,27,94,25
0,39,127,0
0,35,101,0
0,75,112,2
0,38,86,0
0,38,127,0
0,59,127,0
0,62,127,0
0,55,127,0
0,50,127,0
0,59,91,0
0,55,91,0
0,62,91,0
0,79,91,0
0,35,101,0
0,46,109,0
0,74,120,6
0,71,122,13
0,50,127,1
0,38,127,0
0,71,113,24
0,31,97,20
0,43,127,0
0,62,127,0
0,67,127,0
0,59,127,0
0,55,127,0
0,48,119,0
0,48,119,18
0,69,102,1
0,69,109,7
0,55,127,0
0,45,119,0
0,41,119,80
0,38,102,20
0,38,127,0
0,57,127,0
0,62,127,0
0,54,127,0
0,50,99,0
0,57,100,0
0,81,91,0
0,62,91,0
0,54,91,0
0,57,91,0
0,49,101,0
0,35,101,5
0,50,127,5
0,51,118,0
0,62,121,8
0,69,112,12
0,57,127,94
0,62,127,0
0,54,127,0
0,51,118,0
0,38,127,0
0,49,101,0
0,50,127,30
0,51,118,0
0,74,113,3
0,35,101,50
0,76,112,1
0,38,102,8
0,38,127,0
0,59,127,0
0,55,127,0
0,62,127,0
0,50,127,0
0,59,106,0
0,83,91,0
0,59,91,0
0,62,91,0
0,55,91,0
0,51,118,0
0,35,101,0
0,50,104,2
0,78,102,5
0,50,127,20
0,51,118,0
0,67,110,8
0,76,104,6
0,71,94,13
0,33,91,20
0,55,127,0
0,59,127,0
0,62,127,0
0,50,127,0
0,51,118,0
0,38,127,0
0,35,99,30
0,38,102,25
0,50,127,0
0,51,118,0
0,35,99,10
0,38,127,0
0,35,101,0
0,38,91,9
0,38,127,0
0,62,119,0
0,57,127,0
0,54,127,0
0,50,127,0
0,50,99,0
0,57,100,0
0,86,91,0
0,62,91,0
0,54,91,0
0,57,91,0
0,51,118,0
0,35,101,0
0,50,127,0
0,51,118,0
0,62,121,8
0,69,112,12
0,57,127,94
0,62,127,0
0,54,127,0
0,51,118,0
0,38,127,0
0,49,101,0
0,78,104,2
0,76,122,2
0,50,127,15
0,51,118,0
0,74,113,2
0,76,102,15
0,35,101,0
0,38,102,8
0,38,127,0
0,59,127,0
0,62,127,0
0,55,127,0
0,50,127,0
0,59,106,0
0,59,91,0
0,83,91,0
0,62,91,0
0,55,91,0
0,51,118,0
0,35,101,0
0,50,104,2
0,78,110,55
0,50,127,10
0,51,118,0
0,67,110,8
0,76,110,15
0,71,94,13
0,57,91,0
0,62,127,0
0,55,127,0
0,59,127,0
0,51,118,0
0,38,127,0
0,55,91,115
0,74,70,3
0,54,99,0
0,50,127,0
0,51,118,0
0,52,99,10
0,38,127,0
0,35,101,0
0,50,102,0
0,38,127,0
0,62,127,0
0,57,127,0
0,54,127,0
0,50,99,0
0,57,100,0
0,81,91,0
0,62,91,0
0,54,91,0
0,57,91,0
0,51,118,0
0,35,101,0
0,45,102,10
0,38,91,5
0,50,127,0
0,51,118,0
0,62,121,8
0,69,112,12
0,78,114,92
0,57,127,2
0,62,127,0
0,54,127,0
0,51,118,0
0,38,127,0
0,49,101,0
0,76,100,33
0,50,127,25
0,51,118,0
0,74,101,6
0,35,101,4
0,76,102,14
0,38,91,8
0,38,102,0
0,59,127,0
0,62,119,0
0,55,127,0
0,50,127,0
0,59,106,0
0,83,91,0
0,62,91,0
0,59,91,0
0,55,91,0
0,51,118,0
0,35,101,0
0,50,104,2
0,78,95,30
0,50,127,20
0,51,118,0
0,76,108,1
0,67,110,3
0,71,94,13
0,33,91,9
0,59,127,0
0,62,127,0
0,55,127,0
0,50,127,0
0,51,118,0
0,38,127,0
0,35,87,10
0,38,91,15
0,50,127,0
0,51,118,0
0,35,99,10
0,38,127,0
0,35,101,0
0,38,102,5
0,62,127,0
0,57,127,0
0,54,127,0
0,50,99,0
0,57,100,0
0,86,91,0
0,62,91,0
0,54,91,0
0,57,91,0
0,35,101,0
0,51,118,5
0,50,127,0
0,51,118,0
0,62,121,8
0,69,112,12
0,57,127,94
0,62,127,0
0,54,127,0
0,51,118,0
0,38,127,0
0,49,101,0
0,78,112,2
0,76,88,14
0,50,127,1
0,51,118,0
0,74,95,2
0,35,101,9
0,76,98,1
0,38,91,8
0,38,127,0
0,59,127,0
0,62,127,0
0,55,127,0
0,50,127,0
0,59,106,0
0,83,91,0
0,59,91,0
0,62,91,0
0,55,91,0
0,51,118,0
0,35,101,0
0,50,104,2
0,76,106,4
0,74,98,11
0,50,127,15
0,51,118,0
0,78,101,3
0,67,110,5
0,71,94,13
0,57,91,74
0,59,127,0
0,55,127,0
0,62,127,0
0,51,118,0
0,38,127,0
0,76,87,2
0,74,68,5
0,55,91,5
0,71,93,4
0,74,81,3
0,54,99,5
0,50,127,0
0,51,118,0
0,52,87,25
0,38,127,0
0,35,101,0
0,76,87,3
0,78,76,24
0,57,93,7
0,50,95,1
0,50,91,1
0,38,127,0
0,57,127,0
0,54,127,0
0,62,127,0
0,50,127,0
0,81,91,0
0,57,91,0
0,54,91,0
0,62,91,0
0,35,101,0
0,51,118,5
0,45,102,10
0,38,91,5
0,50,127,0
0,51,118,0
0,38,127,0
0,45,87,0
0,62,95,8
0,69,97,19
0,57,127,93
0,54,127,0
0,62,127,0
0,51,118,0
0,38,127,0
0,49,101,0
0,45,103,0
0,50,127,30
0,51,118,0
0,38,127,0
0,41,87,0
0,37,99,13
0,37,127,0
0,61,127,0
0,54,127,0
0,57,127,0
0,54,91,0
0,78,91,0
0,61,91,0
0,57,91,0
0,51,118,0
0,35,101,0
0,45,119,195
0,49,127,5
0,48,119,5
0,48,119,110
0,45,119,0
0,37,102,30
0,61,127,0
0,57,127,0
0,54,127,0
0,45,119,125
0,48,119,5
0,49,127,55
0,48,119,10
0,45,119,0
0,37,127,95
0,41,119,5
0,45,119,0
0,35,102,10
0,35,127,0
0,47,127,0
0,59,127,0
0,63,127,0
0,54,127,0
0,78,91,0
0,63,91,0
0,59,91,0
0,54,91,0
0,49,101,0
0,35,101,5
0,47,114,3
0,54,114,0
0,51,118,0
0,47,122,1
0,78,102,121
0,66,92,16
0,63,127,1
0,59,127,0
0,54,127,0
0,71,96,0
0,51,118,0
0,38,127,0
0,49,101,0
0,78,104,3
0,63,81,0
0,76,114,2
0,47,91,6
0,35,102,3
0,54,127,0
0,51,118,0
0,75,108,12
0,47,127,85
0,35,101,0
0,76,102,0
0,42,114,8
0,30,99,2
0,42,127,0
0,61,127,0
0,57,127,0
0,54,127,0
0,81,91,0
0,54,91,0
0,57,91,0
0,61,91,0
0,51,118,0
0,35,101,0
0,78,98,7
0,49,127,5
0,51,118,0
0,42,112,3
0,57,127,235
0,61,127,0
0,54,127,0
0,51,118,0
0,38,127,0
0,69,90,2
0,66,88,0
0,61,80,0
0,49,127,10
0,51,118,0
0,42,127,3
0,30,99,60
