track,note,velocity,time
1,36,116,0
1,60,116,1115
1,64,116,0
1,55,112,0
1,67,114,0
1,64,109,83
1,55,107,0
1,60,111,0
1,65,111,0
1,55,116,290
1,60,118,0
1,64,116,0
1,67,112,0
1,36,118,227
1,65,112,67
1,58,118,0
1,62,116,0
1,69,106,0
1,67,111,79
1,65,107,0
1,58,116,0
1,62,111,0
1,62,112,254
1,65,111,0
1,58,116,0
1,69,104,0
1,36,116,5
1,60,111,30
1,65,107,0
1,69,101,0
1,57,111,0
1,65,112,98
1,57,104,0
1,60,109,0
1,67,109,0
1,69,114,257
1,65,118,0
1,57,116,0
1,60,116,0
1,36,116,5
1,60,114,35
1,55,111,0
1,64,114,0
1,67,111,0
1,64,111,146
1,55,107,0
1,60,111,0
1,65,111,0
1,55,118,260
1,64,118,0
1,60,116,0
1,67,114,0
1,36,116,15
1,60,106,1078
1,55,101,0
1,67,107,0
1,64,104,0
1,64,107,92
1,55,107,0
1,65,109,0
1,60,109,0
1,64,114,246
1,55,116,0
1,60,116,0
1,67,114,0
1,36,116,24
1,65,114,80
1,69,107,0
1,62,116,0
1,58,118,0
1,65,107,15
1,58,111,0
1,67,112,0
1,62,112,0
1,62,112,233
1,65,109,0
1,58,118,0
1,69,107,0
1,36,116,19
1,65,111,156
1,60,112,0
1,69,107,0
1,57,112,0
1,65,111,101
1,60,109,0
1,57,109,0
1,67,109,0
1,65,118,249
1,57,116,0
1,60,116,0
1,69,112,0
1,36,116,4
1,60,111,1056
1,65,111,0
1,69,109,0
1,57,112,0
1,60,112,3
1,67,114,0
1,57,107,0
1,57,118,189
1,65,116,0
1,62,118,0
1,36,118,13
1,59,118,0
1,67,116,0
1,62,118,0
1,64,118,54
1,55,114,0
1,60,118,0
1,67,116,0
1,64,109,96
1,55,106,0
1,60,111,0
1,65,112,0
1,64,116,248
1,55,116,0
1,60,116,0
1,67,112,0
1,36,118,48
1,65,112,1090
1,69,107,0
1,58,118,0
1,62,116,0
1,67,111,60
1,65,107,0
1,58,116,0
1,62,112,0
1,65,111,80
1,69,107,0
1,62,116,0
1,58,119,0
1,36,116,10
1,60,112,1060
1,65,112,0
1,69,111,0
1,57,112,0
1,57,106,117
1,60,109,0
1,65,112,0
1,67,109,0
1,65,114,249
1,57,116,0
1,60,116,0
1,69,114,0
1,36,116,147
1,60,116,31
1,55,111,0
1,67,114,0
1,64,116,0
1,55,112,12
1,60,114,0
1,65,114,0
1,64,114,0
1,55,116,0
1,60,118,0
1,64,116,0
1,67,114,0
1,36,118,3
1,64,109,66
1,60,114,0
1,55,114,0
1,67,109,0
1,64,112,43
1,60,111,0
1,55,112,0
1,65,114,0
1,55,116,189
1,60,118,0
1,64,116,0
1,67,114,0
1,36,116,18
1,69,107,1109
1,65,111,0
1,58,118,0
1,62,114,0
1,65,109,89
1,67,112,0
1,58,112,0
1,62,114,0
1,65,111,217
1,62,114,0
1,69,109,0
1,58,119,0
1,36,111,105
1,69,109,20
1,60,112,0
1,57,111,0
1,65,111,0
1,57,109,180
1,60,114,0
1,65,116,0
1,67,114,0
1,57,116,240
1,69,112,0
1,60,116,0
1,65,116,0
1,36,116,59
1,69,111,67
1,60,114,0
1,57,111,0
1,65,112,0
1,57,107,1
1,60,111,0
1,67,111,0
1,57,116,0
1,65,118,0
1,62,118,0
1,62,116,54
1,66,118,0
1,57,111,0
1,69,114,0
1,67,101,61
1,62,106,0
1,57,101,0
1,62,118,116
1,66,119,0
1,57,116,0
1,69,116,0
1,59,114,115
1,62,109,0
1,55,114,0
1,64,111,144
1,57,111,0
1,61,114,0
1,57,109,164
1,62,114,0
1,66,116,0
1,59,109,118
1,62,111,0
1,67,112,0
1,57,116,196
1,61,119,0
1,64,114,0
1,62,116,113
1,57,114,0
1,66,116,0
1,69,112,0
1,57,94,80
1,62,106,0
1,66,102,0
1,67,94,0
1,62,118,103
1,66,119,0
1,57,114,0
1,69,116,0
1,66,114,101
1,57,102,0
1,62,111,0
1,64,107,117
1,61,114,0
1,57,104,0
1,55,111,97
1,62,112,0
1,59,114,0
1,57,109,187
1,64,106,0
1,61,112,0
1,64,106,172
1,61,116,0
1,57,107,0
1,57,109,205
1,62,116,0
1,66,118,0
1,57,112,94
1,62,116,0
1,66,116,0
1,59,112,140
1,62,116,0
1,66,119,0
1,62,116,101
1,59,116,0
1,66,119,0
1,61,116,96
1,66,119,0
1,57,111,0
1,61,114,64
1,57,114,0
1,66,116,0
1,59,116,103
1,67,106,0
1,62,112,0
1,59,111,88
1,67,112,0
1,62,116,0
1,62,116,103
1,66,116,0
1,69,112,0
1,57,112,0
1,57,102,52
1,62,106,0
1,66,104,0
1,67,99,0
1,62,118,113
1,66,119,0
1,69,114,0
1,57,112,0
1,66,116,165
1,62,112,0
1,57,102,0
1,64,112,127
1,57,109,0
1,61,116,0
1,62,111,137
1,55,109,0
1,59,116,0
1,57,102,139
1,64,111,0
1,61,116,0
1,61,99,168
1,64,93,0
1,57,101,0
1,57,114,173
1,62,114,0
1,66,118,0
1,57,114,134
1,66,119,0
1,62,118,0
1,59,114,151
1,66,119,0
1,62,118,0
1,59,114,100
1,62,118,0
1,66,119,0
1,57,114,67
1,61,118,0
1,66,119,0
1,57,112,264
1,66,118,0
1,61,119,0
1,67,112,127
1,59,114,0
1,62,116,0
1,59,116,92
1,67,116,0
1,62,119,0
1,35,119,54
1,59,107,934
1,66,116,0
1,63,116,0
1,59,101,77
1,61,118,0
1,64,118,0
1,63,116,188
1,59,114,0
1,66,118,0
1,35,119,107
1,67,116,53
1,64,118,0
1,59,114,0
1,59,104,41
1,63,116,0
1,66,116,0
1,67,114,251
1,59,114,0
1,64,116,0
1,35,119,5
1,59,106,75
1,66,93,0
1,62,82,0
1,59,111,122
1,64,118,0
1,62,114,0
1,59,118,207
1,62,119,0
1,35,118,10
1,59,114,11
1,64,116,0
1,67,116,0
1,59,107,67
1,62,111,0
1,67,111,0
1,59,112,286
1,67,118,0
1,61,118,0
1,71,114,16
1,83,114,0
1,75,118,0
1,71,90,55
1,75,112,0
1,82,114,0
1,71,111,52
1,75,118,0
1,78,119,0
1,71,111,52
1,75,112,0
1,83,111,0
1,71,104,78
1,75,114,0
1,82,118,0
1,83,96,0
1,71,104,76
1,80,118,0
1,76,114,0
1,71,107,110
1,79,116,0
1,76,114,0
1,57,116,166
1,62,118,0
1,66,119,0
1,64,116,79
1,60,116,0
1,55,112,0
1,57,114,128
1,62,118,0
1,66,121,0
1,64,104,71
1,60,107,0
1,55,111,0
1,57,112,141
1,62,118,0
1,66,119,0
1,64,109,98
1,55,114,0
1,60,114,0
1,57,112,127
1,62,116,0
1,66,119,0
1,64,111,142
1,60,114,0
1,55,112,0
1,57,112,146
1,62,118,0
1,66,119,0
1,62,114,51
1,57,114,0
1,54,112,0
1,57,111,107
1,62,112,0
1,66,116,0
1,57,116,53
1,62,116,0
1,54,118,0
1,57,116,110
1,62,118,0
1,66,119,0
1,62,114,80
1,57,116,0
1,54,118,0
1,56,112,335
1,59,118,0
1,64,119,0
1,62,114,51
1,59,114,0
1,54,112,0
1,56,111,107
1,59,112,0
1,64,116,0
1,59,116,53
1,62,116,0
1,54,118,0
1,57,112,110
1,60,118,0
1,65,119,0
1,64,114,51
1,60,114,0
1,55,112,0
1,57,111,107
1,60,112,0
1,65,116,0
1,60,116,53
1,65,116,0
1,57,118,0
1,36,118,110
1,62,116,0
1,67,116,0
1,59,118,0
1,60,118,501
1,55,116,0
1,64,116,0
1,67,114,0
1,64,114,101
1,55,112,0
1,60,116,0
1,65,114,0
1,60,119,238
1,64,119,0
1,55,118,0
1,67,118,0
1,36,116,101
1,65,107,39
1,69,106,0
1,62,114,0
1,58,119,0
1,65,111,83
1,67,111,0
1,58,116,0
1,62,112,0
1,65,111,209
1,62,112,0
1,69,104,0
1,58,119,0
1,36,114,48
1,65,111,47
1,69,111,0
1,60,111,0
1,57,112,0
1,57,109,89
1,60,112,0
1,67,112,0
1,65,114,0
1,65,116,0
1,60,118,0
1,69,114,0
1,57,116,0
1,36,114,171
1,64,114,22
1,55,114,0
1,60,116,0
1,67,112,0
1,64,109,106
1,55,106,0
1,65,109,0
1,60,111,0
1,55,116,5
1,60,118,0
1,64,119,0
1,67,116,0
1,36,116,234
1,64,116,84
1,60,116,0
1,55,114,0
1,67,112,0
1,64,112,94
1,55,107,0
1,60,114,0
1,65,114,0
1,55,116,265
1,60,118,0
1,64,118,0
1,67,114,0
1,36,116,5
1,65,112,104
1,69,111,0
1,62,116,0
1,58,118,0
1,65,107,112
1,58,111,0
1,67,109,0
1,62,111,0
1,65,112,202
1,62,116,0
1,58,119,0
1,69,111,0
1,36,114,5
1,69,107,100
1,60,109,0
1,65,102,0
1,57,106,0
1,67,111,118
1,65,112,0
1,57,112,0
1,60,114,0
1,65,118,266
1,57,116,0
1,69,114,0
1,60,116,0
1,36,118,176
1,60,112,622
1,65,112,0
1,69,111,0
1,57,112,0
1,60,106,75
1,57,107,0
1,67,109,0
1,65,111,0
1,62,107,0
1,62,114,244
1,53,114,0
1,58,118,0
1,36,106,10
1,62,116,0
1,55,116,0
1,59,118,0
1,64,111,117
1,60,109,0
1,67,109,0
1,57,99,10
1,60,93,0
1,65,99,0
1,64,104,4
1,60,101,0
1,67,107,0
1,64,102,225
1,67,111,0
1,72,109,0
1,72,112,339
1,76,112,0
1,67,106,0
1,64,116,77
1,60,112,0
1,67,112,0
1,65,116,104
1,60,111,0
1,69,114,0
1,64,106,166
1,60,98,0
1,67,106,0
1,57,111,82
1,62,114,0
1,65,109,0
1,57,104,127
1,62,109,0
1,65,102,0
1,57,107,241
1,62,112,0
1,65,111,0
1,59,116,244
1,67,116,0
1,62,119,0
1,64,116,258
1,59,116,0
1,67,112,0
1,62,109,239
1,65,102,0
1,59,96,0
1,60,106,108
1,57,101,0
1,64,104,0
1,60,101,238
1,64,112,0
1,69,111,0
1,69,114,7
1,64,109,0
1,72,111,0
1,57,111,142
1,62,116,0
1,65,114,0
1,57,114,216
1,65,114,0
1,60,118,0
1,57,106,159
1,64,109,0
1,60,109,0
1,57,112,164
1,62,116,0
1,60,106,310
1,58,116,240
1,53,111,0
1,62,112,0
1,55,109,37
1,59,114,0
1,62,112,0
1,60,112,207
1,64,116,0
1,67,112,0
1,60,93,60
1,57,99,0
1,65,99,0
1,64,107,156
1,60,102,0
1,67,107,0
1,64,106,246
1,67,111,0
1,72,109,0
1,72,112,311
1,67,104,0
1,76,109,0
1,60,112,160
1,64,114,0
1,67,112,0
1,60,111,228
1,65,114,0
1,69,116,0
1,64,107,224
1,60,98,0
1,67,107,0
1,57,107,296
1,62,111,0
1,65,109,0
1,57,101,92
1,62,107,0
1,65,104,0
1,57,107,248
1,62,112,0
1,65,109,0
1,59,116,151
1,67,114,0
1,62,119,0
1,64,116,230
1,67,111,0
1,59,114,0
1,62,109,236
1,65,107,0
1,59,101,0
1,60,98,87
1,57,101,0
1,64,106,0
1,60,102,311
1,64,111,0
1,69,109,0
1,69,112,332
1,64,104,0
1,72,109,0
1,57,114,189
1,62,116,0
1,65,114,0
1,57,114,236
1,65,114,0
1,60,116,0
1,64,109,220
1,60,107,0
1,57,102,0
1,57,114,164
1,62,118,0
1,60,104,355
1,58,116,148
1,53,111,0
1,62,112,0
1,55,109,189
1,59,114,0
1,62,112,0
1,60,112,117
1,64,116,0
1,67,112,0
1,60,93,385
1,57,99,0
1,65,99,0
1,64,107,156
1,60,102,0
1,67,107,0
1,64,106,246
1,67,111,0
1,72,109,0
1,72,112,311
1,67,104,0
1,76,109,0
1,60,112,196
1,64,114,0
1,67,112,0
1,60,111,150
1,65,114,0
1,69,116,0
1,64,107,224
1,60,98,0
1,67,107,0
1,57,107,295
1,62,111,0
1,65,109,0
1,57,101,92
1,62,107,0
1,65,104,0
1,57,107,248
1,62,112,0
1,65,109,0
1,59,116,185
1,67,114,0
1,62,119,0
1,64,116,185
1,67,111,0
1,59,114,0
1,62,109,236
1,65,107,0
1,59,101,0
1,60,98,5
1,57,101,0
1,64,106,0
1,60,102,311
1,64,111,0
1,69,109,0
1,69,112,332
1,64,104,0
1,72,109,0
1,57,114,161
1,62,116,0
1,65,114,0
1,57,114,146
1,65,114,0
1,60,116,0
1,64,109,220
1,60,107,0
1,57,102,0
1,57,114,158
1,62,118,0
1,60,104,407
1,58,116,290
1,53,111,0
1,62,112,0
1,55,109,189
1,59,114,0
1,62,112,0
1,67,109,151
1,63,112,0
1,58,106,0
1,62,107,493
1,65,104,0
1,58,93,0
1,63,112,31
1,67,111,0
1,58,107,0
1,70,112,30
1,65,111,0
1,62,107,0
1,68,114,3
1,63,119,0
1,60,107,0
1,63,111,294
1,67,107,0
1,58,114,0
1,58,98,188
1,65,109,0
1,62,109,0
1,63,104,204
1,62,104,0
1,58,90,0
1,62,109,107
1,65,104,0
1,58,101,0
1,67,109,256
1,58,107,0
1,63,112,0
1,63,114,237
1,58,109,0
1,67,111,0
1,62,109,93
1,58,101,0
1,65,104,0
1,63,109,257
1,67,109,0
1,60,102,0
1,63,112,196
1,60,98,0
1,67,106,0
1,63,111,17
1,60,94,0
1,67,104,0
1,62,107,81
1,65,111,0
1,70,118,0
1,68,114,191
1,63,118,0
1,60,107,0
1,63,111,397
1,58,107,0
1,67,107,0
1,58,98,27
1,65,106,0
1,62,109,0
1,63,102,232
1,62,102,0
1,58,84,0
1,62,104,194
1,65,102,0
1,58,98,0
1,67,107,44
1,63,111,0
1,58,104,0
1,72,109,269
1,67,112,0
1,63,114,0
1,72,106,118
1,63,116,0
1,67,114,0
1,72,109,643
1,67,112,0
1,62,112,0
1,67,111,526
1,70,118,0
1,62,106,0
1,65,109,0
1,70,116,0
1,62,107,0
1,65,111,502
1,70,118,0
1,62,104,0
1,63,119,337
1,60,106,0
1,68,116,0
1,63,116,209
1,68,112,480
1,72,99,2
1,70,111,27
1,63,107,0
1,67,112,0
1,63,114,173
1,70,114,0
1,67,114,0
1,65,109,583
1,70,116,0
1,62,106,0
1,70,111,494
1,65,112,0
1,62,109,0
1,63,116,184
1,68,116,0
1,60,101,0
1,63,119,401
1,60,109,0
1,68,118,0
1,65,107,22
1,58,109,0
1,62,114,0
1,65,107,551
1,58,112,0
1,62,112,0
1,60,109,12
1,55,109,0
1,64,112,0
1,65,109,210
1,60,111,0
1,57,109,0
1,65,112,145
1,69,104,0
1,60,111,0
1,67,119,105
1,62,118,0
1,71,118,0
1,60,112,36
1,64,116,0
1,67,112,0
1,60,93,385
1,57,99,0
1,65,99,0
1,64,107,156
1,60,102,0
1,67,107,0
1,64,106,246
1,67,111,0
1,72,109,0
1,72,112,311
1,67,104,0
1,76,109,0
1,60,112,90
1,64,114,0
1,67,112,0
1,60,111,117
1,65,114,0
1,69,116,0
1,64,107,224
1,60,98,0
1,67,107,0
1,57,107,95
1,62,111,0
1,65,109,0
1,57,101,92
1,62,107,0
1,65,104,0
1,57,107,248
1,62,112,0
1,65,109,0
1,59,116,133
1,67,114,0
1,62,119,0
1,64,116,157
1,67,111,0
1,59,114,0
1,62,109,236
1,65,107,0
1,59,101,0
1,60,98,163
1,57,101,0
1,64,106,0
1,60,102,311
1,64,111,0
1,69,109,0
1,69,112,332
1,64,104,0
1,72,109,0
1,57,114,188
1,62,116,0
1,65,114,0
1,57,114,86
1,65,114,0
1,60,116,0
1,64,109,220
1,60,107,0
1,57,102,0
1,57,114,168
1,62,118,0
1,60,104,421
1,58,116,106
1,53,111,0
1,62,112,0
1,55,109,23
1,59,114,0
1,62,112,0
1,60,112,132
1,64,116,0
1,67,112,0
1,60,93,385
1,57,99,0
1,65,99,0
1,64,107,156
1,60,102,0
1,67,107,0
1,64,106,246
1,67,111,0
1,72,109,0
1,72,112,311
1,67,104,0
1,76,109,0
1,60,112,159
1,64,114,0
1,67,112,0
1,60,111,156
1,65,114,0
1,69,116,0
1,64,107,224
1,60,98,0
1,67,107,0
1,57,107,211
