track,note,velocity,time
4,62,120,2940
4,62,0,78
4,66,120,42
4,66,0,65
4,69,120,55
4,69,0,126
4,69,120,2
4,69,0,135
4,70,120,31
4,70,0,63
4,67,120,57
4,67,0,325
4,65,120,35
4,65,0,77
4,64,120,43
4,64,0,117
4,69,120,2
4,69,0,126
4,67,120,48
4,67,0,99
4,66,120,21
4,66,0,480
4,66,120,1680
4,66,0,135
4,66,120,105
4,66,0,178
4,66,120,4
4,66,0,382
4,67,120,0
4,67,0,166
4,64,120,74
4,64,0,232
4,62,120,8
4,62,0,120
4,61,120,0
4,61,0,449
4,67,120,391
4,67,0,240
4,66,120,0
4,66,0,437
4,69,120,43
4,69,0,186
4,69,120,54
4,69,0,913
4,71,120,287
4,71,0,452
4,73,120,28
4,73,0,204
4,74,120,36
4,74,0,120
4,76,120,0
4,76,0,576
4,69,120,504
4,69,0,270
4,69,120,90
4,69,0,324
4,69,120,156
4,69,0,503
4,69,120,457
4,69,0,120
4,71,120,0
4,71,0,421
4,73,120,59
4,73,0,161
4,74,120,79
4,74,0,120
4,76,120,0
4,76,0,373
4,81,120,467
4,81,0,90
4,79,120,30
4,79,0,90
4,78,120,30
4,78,0,120
4,75,120,0
4,75,0,120
4,71,120,0
4,71,0,120
4,66,120,0
4,66,0,74
4,66,120,46
4,66,0,200
4,71,120,40
4,71,0,168
4,70,120,72
4,70,0,100
4,67,120,20
4,67,0,100
4,66,120,20
4,66,0,100
4,64,120,20
4,64,0,100
4,71,120,20
4,71,0,215
4,66,120,25
4,66,0,211
4,62,120,389
4,62,0,75
4,66,120,45
4,66,0,197
4,69,120,43
4,69,0,81
4,69,120,39
4,69,0,342
4,71,120,18
4,71,0,95
4,67,120,25
4,67,0,294
4,66,120,66
4,66,0,79
4,64,120,41
4,64,0,568
4,67,120,272
4,67,0,91
4,64,120,29
4,64,0,61
4,66,120,59
4,66,0,306
4,64,120,54
4,64,0,120
4,66,120,4
4,66,0,190
4,64,120,82
4,64,0,116
4,54,120,844
4,54,0,100
4,66,120,20
4,66,0,183
4,66,120,57
4,66,0,128
4,66,120,112
4,66,0,90
4,67,120,30
4,67,0,78
4,64,120,42
4,64,0,373
4,62,120,107
4,62,0,120
4,61,120,0
4,61,0,492
4,67,120,348
4,67,0,105
4,64,120,15
4,64,0,63
4,66,120,57
4,69,120,480
4,66,0,7
4,69,0,159
4,69,120,74
4,69,0,880
4,71,120,2
4,71,0,298
4,73,120,78
4,73,0,195
4,74,120,45
4,74,0,120
4,76,120,0
4,76,0,542
4,69,120,538
4,69,0,278
4,69,120,82
4,69,0,321
4,69,120,159
4,69,0,596
4,69,120,364
4,69,0,79
4,71,120,41
4,71,0,383
4,73,120,97
4,73,0,167
4,74,120,73
4,74,0,74
4,76,120,46
4,76,0,632
4,81,120,208
4,81,0,73
4,79,120,47
4,79,0,73
4,78,120,47
4,78,0,177
4,75,120,63
4,75,0,172
4,71,120,68
4,71,0,144
4,66,120,96
4,66,0,154
4,67,120,86
4,67,0,401
4,71,120,2
4,71,0,267
4,69,120,109
4,69,0,725
4,66,120,715
4,66,0,64
4,67,120,56
4,67,0,66
4,69,120,54
4,69,0,82
4,62,120,38
4,62,0,601
4,69,120,4
4,69,0,102
4,67,120,40
4,67,0,66
4,67,120,54
4,67,0,133
4,69,120,2
4,69,0,113
4,67,120,61
4,67,0,101
4,62,120,19
4,62,0,469
4,66,120,611
4,66,0,69
4,67,120,51
4,67,0,66
4,69,120,54
4,69,0,83
4,62,120,37
4,62,0,634
4,69,120,2
4,69,0,112
4,67,120,32
4,67,0,60
4,67,120,60
4,67,0,124
4,69,120,2
4,69,0,109
4,67,120,45
4,67,0,64
4,67,120,56
4,67,0,308
4,65,120,652
4,65,0,103
4,72,120,4
4,72,0,133
4,72,120,45
4,72,0,63
4,72,120,57
4,72,0,305
4,74,120,55
4,74,0,218
4,70,120,22
4,70,0,185
4,69,120,55
4,69,0,74
4,67,120,46
4,67,0,562
4,70,120,278
4,70,0,95
4,67,120,25
4,67,0,60
4,69,120,2
4,69,0,209
4,67,120,49
4,67,0,257
4,69,120,4
4,69,0,202
4,67,120,72
4,67,0,246
4,69,120,354
4,69,0,380
4,69,120,100
4,69,0,144
4,69,120,96
4,69,0,740
4,76,120,460
4,76,0,441
4,78,120,39
4,78,0,195
4,79,120,45
4,79,0,80
4,81,120,40
4,81,0,560
4,69,120,520
4,69,0,267
4,69,120,93
4,69,0,306
4,69,120,174
4,69,0,345
4,64,120,735
4,64,0,373
4,66,120,107
4,66,0,210
4,67,120,30
4,67,0,80
4,69,120,40
4,69,0,562
4,57,120,65558
4,57,0,56
4,57,120,64
4,57,0,85
4,69,120,2
4,69,120,2
4,69,0,29
4,69,120,91
4,69,0,120
4,69,0,131
4,69,120,109
4,69,0,36
4,69,120,84
4,69,0,40
4,69,120,4
4,69,0,2
4,67,120,26
4,67,0,62
4,67,120,178
4,67,0,300
4,67,120,180
4,67,0,60
4,69,120,60
4,69,0,116
4,69,120,124
4,69,0,58
4,72,120,62
4,72,0,107
4,72,120,133
4,72,0,80
4,74,120,2
4,74,0,1
4,77,120,0
4,77,0,287
4,79,120,193
4,79,0,240
4,81,120,6
4,81,0,790
4,67,120,68400
4,67,0,583
4,67,120,137
4,67,0,156
4,69,120,84
4,69,0,522
4,67,120,78
4,67,0,224
4,67,120,136
4,67,0,546
4,72,120,54
4,72,0,254
4,65,120,106
4,65,0,571
4,65,120,149
4,65,0,240
4,64,120,0
4,64,0,613
4,60,120,107
4,60,0,158
4,60,120,82
4,60,0,628
4,59,120,92
4,60,120,120
4,59,0,1
4,60,0,961
4,55,120,838
4,55,0,146
4,67,120,94
4,67,0,565
4,67,120,155
4,67,0,159
4,69,120,81
4,69,0,577
4,67,120,143
4,67,0,81
4,67,120,159
4,67,0,467
4,72,120,133
4,72,0,281
4,65,120,79
4,65,0,511
4,65,120,209
4,65,0,229
4,64,120,11
4,64,0,561
4,60,120,159
4,60,0,177
4,60,120,63
4,60,0,629
4,59,120,91
4,59,0,107
4,60,120,13
4,60,0,822
4,72,120,1450
4,72,0,53
4,72,120,62
4,72,0,54
4,72,120,56
4,72,0,62
4,72,120,62
4,72,0,65
4,72,120,48
4,72,0,69
4,60,120,64
4,60,0,3
4,60,120,105
4,60,0,54
4,60,120,66
4,60,0,52
4,60,120,68
4,60,0,49
4,60,120,71
4,60,0,49
4,60,120,71
4,60,0,56
4,56,120,60
4,56,0,3
4,72,120,130
4,72,0,46
4,72,120,74
4,72,0,45
4,72,120,75
4,72,0,48
4,72,120,72
4,72,0,50
4,72,120,75
4,72,0,47
4,59,120,71
4,60,120,0
4,59,0,8
4,60,0,7
4,60,120,8
4,60,0,24
4,60,120,67
4,60,0,54
4,60,120,66
4,60,0,61
4,60,120,2
4,60,0,244
5,63,88,189
5,66,96,107
5,71,98,113
5,63,0,85
5,63,79,44
5,66,0,17
5,71,0,3
5,63,0,52
5,61,92,2
5,64,91,12
5,71,107,121
5,71,0,75
5,61,0,18
5,64,0,17
5,61,81,1
5,64,83,18
5,70,94,16
5,61,0,40
5,64,0,10
5,70,0,8
5,67,88,40
5,67,0,120
5,66,92,0
5,64,79,127
5,66,0,5
5,64,0,33
5,63,68,75
5,66,92,17
5,71,93,13
5,66,0,146
5,63,0,10
5,71,0,11
5,66,102,28
5,66,0,75
5,50,98,77
5,69,80,120
5,78,89,120
5,69,0,79
5,74,93,41
5,62,102,120
5,78,0,112
5,69,88,8
5,74,0,8
5,78,102,112
5,50,0,102
5,69,0,76
5,62,0,30
5,78,0,1
5,50,104,31
5,70,63,120
5,77,104,120
5,70,0,38
5,74,92,82
5,77,0,49
5,62,100,71
5,70,85,120
5,74,0,25
5,50,0,26
5,77,109,69
5,70,0,30
5,77,0,180
5,62,0,25
5,58,93,5
5,72,92,120
5,67,85,120
5,64,92,120
5,67,0,110
5,60,102,10
5,72,0,7
5,64,0,69
5,67,104,44
5,64,102,120
5,60,0,15
5,60,100,105
5,67,0,84
5,64,0,6
5,58,0,2
5,60,0,24
5,63,92,4
5,59,100,120
5,66,91,120
5,63,0,22
5,64,97,98
5,66,0,24
5,63,98,96
5,64,0,17
5,59,0,90
5,59,114,13
5,66,92,120
5,63,0,21
5,64,92,99
5,66,0,12
5,63,106,108
5,64,0,8
5,59,0,43
5,59,109,69
5,66,97,120
5,63,0,22
5,64,93,98
5,66,0,30
5,63,84,90
5,64,0,3
5,59,0,103
5,59,114,14
5,66,93,120
5,63,0,31
5,64,105,89
5,66,0,14
5,63,106,106
5,59,0,17
5,64,0,11
5,59,109,92
5,66,97,120
5,63,0,22
5,64,93,98
5,66,0,30
5,63,84,90
5,64,0,3
5,59,0,103
5,64,114,14
5,57,93,120
5,63,0,31
5,64,0,89
5,40,111,1
5,57,0,5
5,52,83,120
5,69,92,120
5,71,102,120
5,69,0,2
5,67,98,118
5,71,0,11
5,67,0,99
5,71,104,10
5,40,0,56
5,52,0,61
5,66,102,3
5,71,0,33
5,71,91,87
5,66,0,19
5,45,109,101
5,71,0,31
5,69,97,63
5,71,98,81
5,69,0,24
5,69,88,96
5,71,0,22
5,69,0,92
5,76,97,6
5,57,94,0
5,64,111,120
5,76,0,6
5,57,0,91
5,45,0,1
5,64,0,19
5,50,85,94
5,57,71,1
5,62,100,17
5,66,97,24
5,57,0,248
5,62,0,49
5,66,0,121
5,57,93,28
5,62,100,109
5,66,109,116
5,62,0,39
5,57,0,5
5,66,0,24
5,50,0,21
5,50,100,144
5,61,92,12
5,64,100,38
5,69,107,8
5,64,0,306
5,69,0,5
5,61,0,24
5,57,109,89
5,61,98,117
5,57,0,34
5,64,111,84
5,61,0,2
5,64,0,48
5,50,0,66
5,50,100,97
5,59,97,14
5,62,97,18
5,67,107,21
5,62,0,169
5,67,0,12
5,59,0,6
5,55,105,227
5,55,0,119
5,59,100,1
5,55,114,120
5,59,0,2
5,55,0,47
5,50,0,67
5,50,102,96
5,61,75,15
5,64,89,32
5,69,97,12
5,61,0,67
5,64,0,31
5,69,0,1
5,61,114,65
5,61,0,120
5,64,114,0
5,64,0,120
5,73,111,0
5,73,0,50
5,69,84,70
5,69,0,66
5,64,71,54
5,64,0,56
5,61,106,64
5,61,0,49
5,50,0,8
5,57,71,1
5,62,100,17
5,66,97,24
5,57,0,248
5,62,0,49
5,66,0,121
5,57,93,28
5,62,100,109
5,66,109,116
5,62,0,39
5,57,0,5
5,66,0,24
5,50,100,165
5,61,92,12
5,64,100,38
5,69,107,8
5,64,0,306
5,69,0,5
5,61,0,24
5,57,109,89
5,61,98,117
5,57,0,34
5,64,111,84
5,61,0,2
5,64,0,48
5,50,0,66
5,50,100,97
5,59,97,14
5,62,97,18
5,67,107,21
5,62,0,169
5,67,0,12
5,59,0,6
5,55,105,227
5,55,0,119
5,59,100,1
5,55,114,120
5,59,0,2
5,55,0,47
5,50,0,67
5,50,102,96
5,61,75,15
5,64,89,32
5,69,97,12
5,61,0,67
5,64,0,31
5,69,0,1
5,61,114,65
5,61,0,120
5,64,114,0
5,64,0,120
5,73,111,0
5,73,0,50
5,69,84,70
5,69,0,66
5,64,71,54
5,64,0,56
5,61,106,64
5,61,0,49
5,50,0,60
5,63,88,9
5,66,96,107
5,71,98,113
5,63,0,85
5,63,79,44
5,66,0,17
5,71,0,3
5,63,0,52
5,61,92,2
5,64,91,12
5,71,107,121
5,71,0,75
5,61,0,18
5,64,0,17
5,61,81,1
5,64,83,18
5,70,94,16
5,61,0,40
5,64,0,10
5,70,0,8
5,67,88,40
5,67,0,120
5,66,92,0
5,64,79,127
5,66,0,5
5,64,0,33
5,63,68,75
5,66,92,17
5,71,93,13
5,66,0,146
5,63,0,10
5,71,0,11
5,66,102,28
5,66,0,75
5,50,84,0
5,62,88,0
5,69,81,120
5,62,0,2
5,69,0,109
5,62,89,9
5,66,84,120
5,62,0,18
5,62,83,102
5,66,0,12
5,69,75,108
5,62,0,13
5,69,0,87
5,66,68,20
5,66,0,100
5,62,96,20
5,62,0,70
5,50,0,3
5,50,109,7
5,71,109,120
5,62,92,120
5,67,98,120
5,71,0,81
5,59,106,39
5,71,104,120
5,67,0,20
5,62,0,6
5,67,85,94
5,62,98,120
5,67,0,12
5,71,0,39
5,62,0,39
5,50,0,7
5,59,0,5
5,50,94,0
5,64,91,0
5,73,87,120
5,64,0,31
5,64,80,89
5,73,0,23
5,69,72,97
5,73,92,120
5,64,0,16
5,69,0,20
5,73,0,76
5,64,91,8
5,64,0,93
5,69,100,27
5,50,0,65
5,69,0,9
5,59,89,152
5,66,88,89
5,71,107,135
5,66,0,16
5,59,0,28
5,71,0,39
5,61,96,23
5,64,96,113
5,69,80,17
5,64,0,86
5,61,0,23
5,69,0,9
5,59,107,0
5,66,89,117
5,71,105,12
5,66,0,109
5,71,0,16
5,59,0,18
5,61,111,94
5,64,94,108
5,69,104,126
5,61,0,63
5,64,0,1
5,69,0,41
5,54,106,12
5,59,89,115
5,66,81,116
5,64,81,119
5,66,0,29
5,64,0,73
5,63,93,10
5,64,88,130
5,59,0,12
5,63,0,6
5,64,0,98
5,57,104,3
5,54,0,227
5,52,104,14
5,57,0,10
5,59,97,113
5,69,107,127
5,71,81,90
5,69,0,13
5,71,0,100
5,67,91,9
5,71,96,114
5,67,0,2
5,71,0,97
5,66,94,16
5,71,104,128
5,66,0,11
5,52,0,0
5,59,0,5
5,71,0,71
5,49,105,30
5,55,85,97
5,64,102,120
5,55,0,2
5,61,79,108
5,69,111,84
5,69,0,99
5,57,102,15
5,64,0,16
5,61,0,16
5,64,105,92
5,57,0,39
5,61,97,82
5,64,0,5
5,49,0,59
5,61,0,7
5,50,97,1
5,62,100,17
5,66,97,24
5,50,0,248
5,62,0,49
5,66,0,121
5,57,93,28
5,62,100,109
5,66,109,116
5,62,0,39
5,57,0,5
5,66,0,24
5,50,100,165
5,61,92,12
5,64,100,38
5,69,107,8
5,64,0,306
5,69,0,5
5,61,0,24
5,57,109,89
5,61,98,117
5,57,0,34
5,64,111,84
5,61,0,2
5,64,0,48
5,50,0,66
5,50,100,97
5,59,97,14
5,62,97,18
5,67,107,21
5,62,0,169
5,67,0,12
5,59,0,6
5,55,105,227
5,55,0,119
5,59,100,1
5,55,114,120
5,59,0,2
5,55,0,47
5,50,0,67
5,50,102,96
5,61,75,15
5,64,89,32
5,69,97,12
5,61,0,67
5,64,0,31
5,69,0,1
5,61,114,65
5,61,0,120
5,64,114,0
5,64,0,120
5,73,111,0
5,73,0,50
5,69,84,70
5,69,0,66
5,64,71,54
5,64,0,56
5,61,106,64
5,61,0,49
5,50,0,8
5,50,97,1
5,62,100,17
5,66,97,24
5,50,0,248
5,62,0,49
5,66,0,121
5,57,93,28
5,62,100,109
5,66,109,116
5,62,0,39
5,57,0,5
5,66,0,24
5,50,100,165
5,61,92,12
5,64,100,38
5,69,107,8
5,64,0,306
5,69,0,5
5,61,0,24
5,57,109,89
5,61,98,117
5,57,0,34
5,64,111,84
5,61,0,2
5,64,0,48
5,50,0,66
5,50,100,97
5,59,97,14
5,62,97,18
5,67,107,21
5,62,0,169
5,67,0,12
5,59,0,6
5,55,105,227
5,55,0,119
5,59,100,1
5,55,114,120
5,59,0,2
5,55,0,47
5,50,0,67
5,50,102,96
5,61,75,15
5,64,89,32
5,69,97,12
5,61,0,67
5,64,0,31
5,69,0,1
5,61,114,65
5,61,0,120
5,64,114,0
5,64,0,120
5,73,111,0
5,73,0,50
5,69,84,70
5,69,0,66
5,64,71,54
5,64,0,56
5,61,106,64
5,61,0,49
5,50,0,60
5,54,91,11
5,63,91,0
5,59,91,0
5,59,0,960
5,63,0,0
5,54,0,0
5,43,117,0
5,67,104,92
5,71,97,120
5,67,0,31
5,43,0,32
5,67,85,57
5,71,0,15
5,74,114,105
5,62,117,0
5,67,0,6
5,62,0,93
5,66,97,21
5,66,0,93
5,69,94,27
5,74,0,55
5,69,0,64
5,66,102,1
5,66,0,104
