track,note,velocity,time
1,37,70,0
1,44,70,4
1,53,70,0
1,54,70,4
1,46,70,0
1,37,70,4
1,54,70,4
1,46,70,0
1,53,70,4
1,44,70,0
1,37,70,4
1,53,70,4
1,44,70,0
1,54,70,4
1,46,70,0
1,37,70,4
1,54,70,4
1,46,70,0
1,56,70,4
1,48,70,0
1,53,70,4
1,44,70,0
1,37,70,4
1,53,70,4
1,44,70,0
1,54,70,4
1,46,70,0
1,37,70,4
1,54,70,4
1,46,70,0
1,53,70,4
1,44,70,0
1,37,70,4
1,53,70,4
1,44,70,0
1,54,70,4
1,46,70,0
1,37,70,4
1,54,70,4
1,46,70,0
1,44,70,4
1,56,70,4
1,48,70,0
1,53,70,4
1,46,70,0
1,58,70,4
1,42,70,0
1,49,70,4
1,42,70,0
1,41,70,4
1,54,70,4
1,39,70,0
1,37,70,0
1,53,70,4
1,44,70,0
1,51,70,4
1,42,70,0
1,42,70,4
1,54,70,4
1,46,70,0
1,53,70,4
1,49,70,0
1,37,70,4
1,53,70,4
1,44,70,0
1,54,70,4
1,46,70,0
1,37,70,4
1,54,70,4
1,46,70,0
1,53,70,4
1,44,70,0
1,37,70,4
1,53,70,4
1,44,70,0
1,54,70,4
1,46,70,0
1,37,70,4
1,54,70,4
1,46,70,0
1,44,70,4
1,56,70,4
1,48,70,0
1,53,70,4
1,46,70,0
1,58,70,4
1,42,70,0
1,49,70,4
1,42,70,0
1,41,70,4
1,54,70,4
1,39,70,0
1,37,70,0
1,53,70,4
1,44,70,0
1,51,70,4
1,42,70,0
1,42,70,4
1,54,70,0
1,46,70,0
1,53,70,0
1,49,70,0
1,37,70,0
1,35,70,4
1,42,70,4
1,32,70,4
1,39,70,0
1,44,70,4
1,37,70,4
1,35,70,4
1,42,70,4
1,32,70,4
1,39,70,4
1,44,70,4
1,47,70,0
1,42,70,4
1,47,70,8
1,42,70,4
1,39,70,4
1,49,70,384
1,49,70,4
1,37,70,0
1,49,70,384
1,49,70,4
1,39,70,4
1,49,70,384
1,39,70,0
1,49,70,384
1,49,70,4
1,39,70,4
1,37,70,4
1,49,70,384
1,49,70,4
1,37,70,0
1,49,70,384
1,49,70,4
1,37,70,4
1,49,70,384
1,49,70,4
1,37,70,4
1,49,70,4
1,37,70,4
1,49,70,4
1,37,70,4
1,49,70,4
1,37,70,4
1,49,70,4
1,37,70,4
1,49,70,4
1,37,70,4
1,49,70,4
1,37,70,4
1,49,70,4
1,41,70,4
1,51,70,4
1,34,70,4
1,46,70,0
1,42,70,0
1,54,70,0
1,42,70,0
1,41,70,4
1,39,70,4
1,44,70,4
1,37,70,4
1,48,70,4
1,37,70,4
1,49,70,4
1,42,70,4
1,37,70,4
1,49,70,4
1,37,70,4
1,53,70,4
1,44,70,0
1,54,70,4
1,46,70,0
1,37,70,4
1,54,70,4
1,46,70,0
1,53,70,4
1,44,70,0
1,37,70,4
1,53,70,4
1,44,70,0
1,54,70,4
1,46,70,0
1,37,70,4
1,54,70,4
1,46,70,0
1,44,70,4
1,56,70,4
1,48,70,0
1,53,70,4
1,46,70,0
1,58,70,4
1,42,70,0
1,49,70,4
1,42,70,0
1,41,70,4
1,54,70,4
1,39,70,0
1,37,70,0
1,53,70,4
1,44,70,0
1,51,70,4
1,42,70,0
1,42,70,4
1,54,70,0
1,46,70,0
1,53,70,0
1,49,70,0
1,37,70,0
1,35,70,4
1,42,70,4
1,32,70,4
1,39,70,0
1,44,70,4
1,37,70,4
1,35,70,4
1,42,70,4
1,42,70,4
1,32,70,4
1,39,70,0
1,44,70,4
1,37,70,4
1,49,70,4
1,37,70,4
1,49,70,4
1,37,70,4
1,49,70,4
1,37,70,4
1,49,70,4
1,37,70,0
1,49,70,4
1,37,70,4
1,49,70,4
1,37,70,4
1,49,70,4
1,37,70,4
1,49,70,4
1,37,70,4
1,49,70,4
1,37,70,4
1,49,70,4
1,37,70,4
1,49,70,4
1,37,70,4
1,49,70,4
1,37,70,0
1,49,70,4
1,37,70,4
1,49,70,4
1,37,70,4
1,49,70,4
1,37,70,4
1,49,70,4
1,37,100,4
1,49,99,4
1,37,97,4
1,49,95,4
1,37,94,4
1,49,92,4
1,37,90,4
1,49,88,4
1,37,87,0
1,49,85,4
1,37,83,4
1,49,82,4
1,37,80,4
1,49,78,4
1,37,76,4
1,49,75,4
1,37,73,4
1,49,71,4
1,37,70,4
1,49,68,4
1,37,66,4
1,49,64,4
1,37,63,4
1,49,61,4
1,37,59,0
1,49,58,4
1,37,56,4
1,49,54,4
1,37,52,4
1,49,51,4
1,37,49,4
1,49,47,4
1,37,45,4
2,37,110,0
2,44,110,4
2,46,110,4
2,37,110,4
2,46,110,4
2,44,110,4
2,37,110,4
2,44,110,4
2,46,110,4
2,37,110,4
2,46,110,4
2,48,110,4
2,44,110,4
2,37,110,4
2,44,110,4
2,46,110,4
2,37,110,4
2,46,110,4
2,44,110,4
2,37,110,4
2,44,110,4
2,46,110,4
2,37,110,4
2,46,110,4
2,44,110,4
2,48,110,4
2,46,110,4
2,42,110,4
2,42,110,4
2,41,110,4
2,39,110,4
2,37,110,0
2,44,110,4
2,42,110,4
2,42,110,4
2,46,110,4
2,49,110,4
2,37,110,4
2,44,110,4
2,46,110,4
2,37,110,4
2,46,110,4
2,44,110,4
2,37,110,4
2,44,110,4
2,46,110,4
2,37,110,4
2,46,110,4
2,44,110,4
2,48,110,4
2,46,110,4
2,42,110,4
2,42,110,4
2,41,110,4
2,39,110,4
2,37,110,0
2,44,110,4
2,42,110,4
2,42,110,4
2,46,110,0
2,49,110,0
2,37,110,0
2,35,110,4
2,42,110,4
2,32,110,4
2,39,110,0
2,44,110,4
2,37,110,4
2,35,110,4
2,42,110,4
2,32,110,4
2,39,110,4
2,44,110,4
2,47,110,0
2,42,110,4
2,47,110,8
2,42,110,4
2,39,110,4
2,49,110,384
2,49,110,4
2,37,110,0
2,49,110,384
2,49,110,4
2,39,110,4
2,49,110,384
2,39,110,0
2,49,110,384
2,49,110,4
2,39,110,4
2,37,110,4
2,49,110,384
2,49,110,4
2,37,110,0
2,49,110,384
2,49,110,4
2,37,110,4
2,49,110,384
2,49,110,4
2,37,110,4
2,49,110,4
2,37,110,4
2,49,110,4
2,37,110,4
2,49,110,4
2,37,110,4
2,49,110,4
2,37,110,4
2,49,110,4
2,37,110,4
2,49,110,4
2,37,110,4
2,49,110,4
2,41,110,4
2,51,110,4
2,34,110,4
2,46,110,0
2,42,110,0
2,42,110,384
2,41,110,4
2,39,110,4
2,44,110,4
2,37,110,4
2,48,110,4
2,37,110,4
2,49,110,4
2,42,110,4
2,37,110,4
2,49,110,4
2,37,110,4
2,44,110,4
2,46,110,4
2,37,110,4
2,46,110,4
2,44,110,4
2,37,110,4
2,44,110,4
2,46,110,4
2,37,110,4
2,46,110,4
2,44,110,4
2,48,110,4
2,46,110,4
2,42,110,4
2,49,110,4
2,42,110,0
2,41,110,4
2,39,110,4
2,37,110,0
2,44,110,4
2,51,110,4
2,42,110,0
2,42,110,4
2,46,110,0
2,49,110,0
2,37,110,0
2,35,110,4
2,42,110,4
2,32,110,4
2,39,110,0
2,44,110,4
2,37,110,4
2,35,110,4
2,42,110,4
2,42,110,4
2,32,110,4
2,39,110,0
2,44,110,4
2,37,110,4
2,49,110,4
2,37,110,4
2,49,110,4
2,37,110,4
2,49,110,4
2,37,110,4
2,49,110,4
2,37,110,0
2,49,110,4
2,37,110,4
2,49,110,4
2,37,110,4
2,49,110,4
2,37,110,4
2,49,110,4
2,37,110,4
2,49,110,4
2,37,110,4
2,49,110,4
2,37,110,4
2,49,110,4
2,37,110,4
2,49,110,4
2,37,110,0
2,49,110,4
2,37,110,4
2,49,110,4
2,37,110,4
2,49,110,4
2,37,110,4
2,49,110,4
2,37,87,4
2,49,86,4
2,37,84,4
2,49,82,4
2,37,81,4
2,49,80,4
2,37,78,4
2,49,76,4
2,37,75,0
2,49,73,4
2,37,72,4
2,49,71,4
2,37,69,4
2,49,67,4
2,37,66,4
2,49,65,4
2,37,63,4
2,49,61,4
2,37,60,4
2,49,59,4
2,37,57,4
2,49,55,4
2,37,54,4
2,49,53,4
2,37,51,0
2,49,50,4
2,37,48,4
2,49,46,4
2,37,45,4
2,49,44,4
2,37,42,4
2,49,40,4
2,37,39,4
3,68,107,6144
3,73,107,4
3,73,107,4
3,73,107,0
3,73,107,0
3,70,107,16
3,70,107,372
3,73,107,4
3,73,107,4
3,73,107,4
3,78,107,4
3,77,107,4
3,68,107,388
3,73,107,4
3,73,107,4
3,73,107,4
3,73,107,4
3,73,107,4
3,70,107,4
3,70,107,388
3,73,107,4
3,73,107,4
3,73,107,4
3,78,107,4
3,77,107,4
3,78,107,4
3,77,107,4
3,80,107,388
3,78,107,4
3,77,107,4
3,78,107,4
3,80,107,4
3,78,107,4
3,77,107,4
3,73,107,4
3,70,107,4
3,73,107,4
3,73,107,4
3,73,107,4
3,73,107,4
3,70,107,4
3,65,107,288
3,70,107,4
3,73,107,4
3,73,107,4
3,73,107,4
3,73,107,4
3,70,107,4
3,73,107,292
3,78,107,4
3,78,107,4
3,78,107,4
3,77,107,4
3,73,107,4
3,68,84,676
3,68,107,0
3,73,107,4
3,73,107,4
3,73,107,0
3,73,107,0
3,70,107,16
3,70,107,372
3,73,107,4
3,73,107,4
3,73,107,4
3,78,107,4
3,77,107,4
3,68,107,388
3,73,107,4
3,73,107,4
3,73,107,4
3,73,107,4
3,73,107,4
3,70,107,4
3,70,107,388
3,73,107,4
3,73,107,4
3,73,107,4
3,78,107,4
3,77,107,4
3,78,107,4
3,77,107,4
3,80,107,388
3,78,107,4
3,77,107,4
3,78,107,4
3,80,107,4
3,78,107,4
3,77,107,4
3,73,107,4
3,70,107,4
3,73,107,4
3,73,107,4
3,73,107,4
3,73,107,4
3,70,107,4
3,65,107,288
3,70,107,4
3,73,107,4
3,73,107,4
3,73,107,4
3,73,107,4
3,70,107,4
3,73,107,292
3,78,107,4
3,78,107,4
3,78,107,4
3,77,107,0
3,73,107,4
3,71,107,3364
3,78,107,4
3,80,107,4
3,82,107,4
3,80,107,4
3,73,107,4
3,73,107,4
3,78,107,388
3,80,107,4
3,82,107,4
3,80,107,4
3,73,107,4
3,77,107,4
3,75,107,4
3,78,107,2788
3,78,107,4
3,78,107,0
3,80,107,0
3,82,107,0
3,80,107,8
3,73,107,0
3,73,107,0
3,73,107,664
3,77,107,4
3,75,107,4
3,75,107,4
3,73,107,4
3,77,107,4
3,75,107,4
3,73,107,4
3,70,107,0
3,68,107,0
3,66,107,1056
3,73,107,0
3,68,107,4
3,73,107,0
3,70,107,4
3,75,107,0
3,77,107,4
3,70,107,0
3,70,107,0
3,73,107,0
3,78,107,0
3,77,107,0
3,73,107,0
3,75,107,4
3,68,107,0
3,73,107,4
3,68,107,0
3,66,107,868
3,73,107,0
3,66,107,4
3,73,107,0
3,68,107,4
3,73,107,0
3,70,107,4
3,75,107,0
3,70,107,4
3,77,107,0
3,73,107,0
3,78,107,0
3,73,107,0
3,77,107,0
3,75,107,4
3,70,107,0
3,73,107,4
3,68,107,0
3,68,107,4
3,70,107,4
3,73,107,0
3,70,107,4
3,68,107,580
3,70,107,4
3,73,107,4
3,70,107,4
3,68,107,580
3,70,107,4
3,73,107,4
3,70,107,0
3,75,107,192
3,75,107,4
3,73,107,4
3,80,107,388
3,80,107,0
3,80,107,0
3,80,107,0
3,68,107,96
3,78,107,0
3,70,107,0
3,77,107,4
3,73,107,4
3,73,107,0
3,70,107,0
3,68,107,580
3,70,107,4
3,73,107,4
3,70,107,0
3,68,107,576
3,70,107,0
3,73,107,0
3,70,107,4
3,75,107,196
3,75,107,4
3,73,107,4
3,68,107,1060
3,68,107,4
3,73,107,4
3,73,107,4
3,73,107,4
3,73,107,0
3,73,107,4
3,70,107,4
3,68,107,292
3,70,87,0
3,73,87,0
3,73,87,4
3,73,87,4
3,78,87,4
3,77,87,192
3,68,107,384
3,73,107,4
3,73,107,4
3,73,107,4
3,73,107,4
3,73,107,4
3,68,107,4
3,70,107,4
3,70,107,388
3,73,107,0
3,73,107,0
3,73,107,0
3,73,107,0
3,77,107,8
3,80,107,376
3,78,107,0
3,77,107,0
3,78,107,0
3,80,107,0
3,78,107,0
3,77,107,0
3,75,107,0
3,73,107,0
3,70,107,0
3,73,107,4
3,73,107,4
3,73,107,4
3,73,107,4
3,70,107,4
3,68,107,388
3,68,107,4
3,73,107,4
3,73,107,4
3,73,107,4
3,73,107,4
3,70,107,4
3,73,107,484
3,78,107,4
3,78,107,4
3,78,107,4
3,77,107,4
3,73,107,4
3,68,107,772
3,73,107,4
3,73,107,4
3,73,107,0
3,73,107,0
3,70,107,16
3,70,107,372
3,73,107,4
3,73,107,4
3,73,107,4
3,78,107,4
3,77,107,4
3,68,107,388
3,73,107,4
3,73,107,4
3,73,107,4
3,73,107,4
3,73,107,4
3,70,107,4
3,70,107,388
3,73,107,4
3,73,107,4
3,73,107,4
3,78,107,4
3,77,107,4
3,78,107,4
3,77,107,4
3,80,107,388
3,78,107,4
3,77,107,4
3,78,107,4
3,80,107,4
3,78,107,4
3,77,107,4
3,73,107,4
3,70,107,4
3,73,107,4
3,73,107,4
3,73,107,4
3,73,107,4
3,70,107,4
3,65,107,288
3,70,107,4
3,73,107,4
3,73,107,4
3,73,107,4
3,73,107,4
3,70,107,4
3,73,107,292
3,78,107,4
3,78,107,4
3,78,107,4
3,77,107,0
3,73,107,4
3,71,107,3364
3,78,107,4
3,80,107,4
3,82,107,4
3,80,107,4
3,73,107,4
3,73,107,4
3,78,107,388
3,80,107,4
3,82,107,4
3,80,107,4
3,73,107,4
3,77,107,4
3,75,107,4
3,78,107,2788
3,78,107,4
3,78,107,0
3,80,107,0
3,82,107,0
3,80,107,8
3,73,107,0
3,73,107,0
3,73,107,664
3,80,107,4
3,73,107,4
3,73,107,4
3,73,107,4
3,77,107,196
3,77,107,4
3,75,107,4
3,68,107,388
3,70,107,4
3,73,107,4
3,73,107,0
3,70,107,4
3,68,107,580
3,70,107,4
3,73,107,4
3,70,107,0
3,68,107,580
3,70,107,4
3,73,107,4
3,70,107,4
3,75,107,196
3,75,107,4
3,73,107,4
3,73,107,292
3,77,107,4
3,80,107,4
3,80,107,4
3,68,107,4
3,80,107,0
3,70,107,4
3,77,107,0
3,80,107,4
3,73,107,0
3,73,107,0
3,70,107,4
3,68,107,580
3,70,107,4
3,73,107,4
3,70,107,0
3,68,107,580
3,70,107,4
3,73,107,4
3,70,107,4
3,75,107,196
3,75,107,4
3,73,107,4
3,73,107,292
3,77,107,4
3,80,107,4
3,80,107,4
3,68,107,4
3,80,107,0
3,70,107,4
3,77,107,0
3,80,107,4
3,73,100,0
3,73,100,0
3,70,99,4
3,68,95,580
3,70,94,4
3,73,94,4
3,70,92,0
3,68,88,580
3,70,88,4
3,73,87,4
3,70,85,4
3,75,83,196
3,75,82,4
3,73,80,4
3,73,77,292
3,77,76,4
3,80,76,4
3,80,76,4
3,68,75,4
3,80,75,0
3,70,74,4
3,77,74,0
3,80,73,4
3,73,73,0
3,73,73,0
3,70,72,4
3,68,68,580
3,70,67,4
3,73,66,4
3,70,65,0
3,68,61,580
3,70,60,4
3,73,59,4
3,70,58,4
3,75,56,196
3,75,54,4
3,73,53,4
3,73,49,292
3,77,49,4
3,80,49,4
3,80,48,4
3,68,47,4
3,80,47,0
3,70,46,4
3,77,46,0
3,80,46,4
3,77,45,0
3,73,45,0
4,72,97,30720
4,65,97,0
4,61,97,4
4,65,97,4
4,61,97,4
4,68,97,4
4,65,97,0
4,61,97,4
4,68,97,4
4,65,97,0
4,61,97,4
4,73,97,4
4,66,97,0
4,63,97,4
4,73,97,4
4,66,97,0
4,63,97,4
4,66,97,4
4,63,97,0
4,59,97,4
4,66,97,4
4,63,97,0
4,59,97,4
4,68,97,4
4,63,97,0
4,58,97,4
4,61,97,4
4,58,97,4
4,61,97,4
4,58,97,0
