track,note,velocity,time
1,66,64,768
1,66,64,0
1,67,64,16
1,67,64,0
1,69,64,16
1,69,64,0
1,71,64,16
1,71,64,0
1,64,64,16
1,64,64,0
1,60,64,32
1,72,64,0
1,72,64,24
1,59,64,24
1,71,64,0
1,71,64,24
1,57,64,24
1,69,64,0
1,69,64,0
1,66,64,32
1,66,64,0
1,67,64,16
1,67,64,0
1,69,64,16
1,69,64,0
1,71,64,16
1,71,64,0
1,62,64,16
1,62,64,0
1,59,64,32
1,71,64,0
1,71,64,24
1,57,64,24
1,69,64,0
1,69,64,24
1,55,64,24
1,67,64,0
1,67,64,24
1,66,64,32
1,66,64,0
1,67,64,16
1,67,64,0
1,69,64,16
1,69,64,0
1,71,64,16
1,71,64,0
1,64,64,16
1,64,64,0
1,59,64,384
1,66,64,0
1,67,64,0
1,59,64,16
1,66,64,0
1,67,64,0
1,59,64,16
1,66,64,0
1,67,64,0
1,59,64,24
1,66,64,0
1,67,64,0
1,59,64,384
1,66,64,0
1,67,64,0
1,59,64,16
1,66,64,0
1,67,64,0
1,59,64,16
1,66,64,0
1,67,64,0
1,59,64,24
1,66,64,0
1,67,64,0
1,66,64,8
1,66,64,0
1,67,64,0
1,71,64,0
1,74,64,0
1,67,64,16
1,71,64,16
1,59,64,16
1,66,64,16
1,67,64,16
1,64,64,16
1,64,64,0
1,59,64,16
1,64,64,16
1,67,64,16
1,64,64,16
1,64,64,0
1,66,64,0
1,69,64,0
1,66,64,16
1,69,64,16
1,57,64,16
1,64,64,16
1,66,64,16
1,62,64,16
1,62,64,0
1,57,64,16
1,62,64,16
1,66,64,16
1,64,64,16
1,61,64,0
1,64,64,0
1,69,64,0
1,69,64,16
1,61,64,16
1,64,64,16
1,66,64,16
1,61,64,16
1,64,64,16
1,69,64,16
1,57,64,16
1,63,64,16
1,63,64,0
1,66,64,0
1,69,64,0
1,66,64,16
1,69,64,16
1,57,64,16
1,66,64,16
1,66,64,0
1,68,64,0
1,71,64,0
1,68,64,16
1,71,64,16
1,59,64,16
1,66,64,16
1,68,64,16
1,64,64,16
1,64,64,0
1,71,64,16
1,64,64,16
1,68,64,16
1,66,64,16
1,66,64,0
1,67,64,0
1,71,64,0
1,67,64,16
1,71,64,16
1,59,64,16
1,66,64,16
1,67,64,16
1,64,64,16
1,64,64,0
1,71,64,16
1,59,64,16
1,55,64,16
1,67,64,16
1,64,64,16
1,64,64,0
1,66,64,0
1,69,64,0
1,66,64,16
1,69,64,16
1,57,64,16
1,64,64,16
1,66,64,16
1,62,64,16
1,62,64,0
1,69,64,16
1,57,64,16
1,62,64,16
1,66,64,16
1,62,64,16
1,55,64,0
1,62,64,0
1,55,64,16
1,62,64,16
1,64,64,16
1,62,64,16
1,66,64,0
1,62,64,24
1,66,64,16
1,55,64,16
1,62,64,16
1,64,64,16
1,55,64,16
1,62,64,16
1,64,64,0
1,62,64,16
1,64,64,0
1,62,64,16
1,64,64,0
1,55,64,16
1,62,64,16
1,64,64,16
1,62,64,16
1,62,64,16
1,66,64,0
1,69,64,0
1,78,64,0
1,57,64,16
1,59,64,16
1,62,64,16
1,64,64,16
1,67,64,0
1,76,64,0
1,55,64,16
1,57,64,24
1,59,64,16
1,62,64,0
1,67,64,0
1,74,64,0
1,54,64,16
1,55,64,16
1,59,64,16
1,61,64,16
1,69,64,0
1,69,64,0
1,73,64,0
1,59,64,16
1,61,64,16
1,64,64,16
1,62,64,16
1,66,64,0
1,69,64,0
1,78,64,0
1,57,64,16
1,59,64,16
1,62,64,16
1,64,64,16
1,67,64,0
1,76,64,0
1,55,64,16
1,57,64,24
1,59,64,16
1,62,64,0
1,67,64,0
1,74,64,0
1,54,64,16
1,55,64,16
1,59,64,16
1,61,64,16
1,69,64,0
1,69,64,0
1,73,64,0
1,59,64,16
1,61,64,16
1,64,64,16
1,60,64,16
1,64,64,0
1,72,64,0
1,64,64,16
1,71,64,16
1,59,64,16
1,60,64,16
1,64,64,16
1,65,64,16
1,65,64,0
1,74,64,0
1,72,64,16
1,60,64,16
1,65,64,16
1,69,64,16
1,68,64,16
1,71,64,0
1,74,64,0
1,68,64,0
1,65,64,16
1,68,64,16
1,71,64,16
1,68,64,16
1,74,64,0
1,72,64,16
1,71,64,16
1,74,64,16
1,67,76,16
1,59,64,0
1,64,64,0
1,67,64,0
1,55,56,192
1,62,56,0
1,55,56,16
1,62,56,0
1,55,56,16
1,62,56,0
1,71,76,16
1,55,56,192
1,62,56,0
1,67,76,16
1,55,56,192
1,62,56,0
1,62,64,16
1,66,64,0
1,59,64,0
1,62,64,0
1,66,64,0
1,59,64,16
1,62,64,16
1,66,64,16
1,62,64,16
1,71,64,0
1,62,64,24
1,66,64,0
1,55,64,16
1,62,64,0
1,64,64,0
1,60,64,0
1,64,64,0
1,67,64,0
1,55,56,16
1,55,64,16
1,62,64,0
1,64,64,0
1,55,56,16
1,62,56,0
1,64,56,0
1,55,64,16
1,62,64,0
1,64,64,0
1,55,40,16
1,55,64,16
1,62,64,0
1,64,64,0
1,55,56,16
1,62,56,0
1,64,56,0
1,55,64,16
1,62,64,0
1,64,64,0
1,55,56,16
1,55,64,16
1,62,64,0
1,64,64,0
1,55,56,16
1,62,56,0
1,64,56,0
1,57,64,16
1,62,64,0
1,66,64,0
1,62,64,0
1,66,64,0
1,57,64,16
1,62,64,0
1,67,64,0
1,57,64,16
1,62,64,0
1,66,64,0
1,69,64,0
1,66,64,8
1,66,64,0
1,67,64,0
1,71,64,0
1,74,64,0
1,67,64,16
1,71,64,16
1,59,64,16
1,66,64,16
1,67,64,16
1,64,64,16
1,64,64,0
1,59,64,16
1,64,64,16
1,67,64,16
1,64,64,16
1,64,64,0
1,66,64,0
1,69,64,0
1,66,64,16
1,69,64,16
1,57,64,16
1,64,64,16
1,66,64,16
1,62,64,16
1,62,64,0
1,57,64,16
1,62,64,16
1,66,64,16
1,64,64,16
1,61,64,0
1,64,64,0
1,69,64,0
1,69,64,16
1,61,64,16
1,64,64,16
1,66,64,16
1,61,64,16
1,64,64,16
1,69,64,16
1,57,64,16
1,63,64,16
1,63,64,0
1,66,64,0
1,69,64,0
1,66,64,16
1,69,64,16
1,57,64,16
1,66,64,16
1,66,64,0
1,68,64,0
1,71,64,0
1,68,64,16
1,71,64,16
1,59,64,16
1,66,64,16
1,68,64,16
1,64,64,16
1,64,64,0
1,71,64,16
1,64,64,16
1,68,64,16
1,66,64,16
1,66,64,0
1,67,64,0
1,71,64,0
1,67,64,16
1,71,64,16
1,59,64,16
1,66,64,16
1,67,64,16
1,64,64,16
1,64,64,0
1,71,64,16
1,59,64,16
1,55,64,16
1,67,64,16
1,64,64,16
1,64,64,0
1,66,64,0
1,69,64,0
1,66,64,16
1,69,64,16
1,57,64,16
1,64,64,16
1,66,64,16
1,62,64,16
1,62,64,0
1,69,64,16
1,57,64,16
1,62,64,16
1,66,64,16
1,62,64,16
1,55,64,0
1,62,64,0
1,55,64,16
1,62,64,16
1,64,64,16
1,62,64,16
1,66,64,0
1,62,64,24
1,66,64,16
1,55,64,16
1,62,64,16
1,64,64,16
1,55,64,16
1,62,64,16
1,64,64,0
1,62,64,16
1,64,64,0
1,62,64,16
1,64,64,0
1,55,64,16
1,62,64,16
1,64,64,16
1,62,64,16
1,62,64,16
1,66,64,0
1,69,64,0
1,78,64,0
1,57,64,16
1,59,64,16
1,62,64,16
1,64,64,16
1,67,64,0
1,76,64,0
1,55,64,16
1,57,64,24
1,59,64,16
1,62,64,0
1,67,64,0
1,74,64,0
1,54,64,16
1,55,64,16
1,59,64,16
1,61,64,16
1,69,64,0
1,69,64,0
1,73,64,0
1,59,64,16
1,61,64,16
1,64,64,16
1,62,64,16
1,66,64,0
1,69,64,0
1,78,64,0
1,57,64,16
1,59,64,16
1,62,64,16
1,64,64,16
1,67,64,0
1,76,64,0
1,55,64,16
1,57,64,24
1,59,64,16
1,62,64,0
1,67,64,0
1,74,64,0
1,54,64,16
1,55,64,16
1,59,64,16
1,61,64,16
1,69,64,0
1,69,64,0
1,73,64,0
1,59,64,16
1,61,64,16
1,64,64,16
1,60,64,16
1,64,64,0
1,72,64,0
1,64,64,16
1,71,64,16
1,59,64,16
1,60,64,16
1,64,64,16
1,65,64,16
1,65,64,0
1,74,64,0
1,72,64,16
1,60,64,16
1,65,64,16
1,69,64,16
1,68,64,16
1,71,64,0
1,74,64,0
1,68,64,0
1,65,64,16
1,68,64,16
1,71,64,16
1,68,64,16
1,74,64,0
1,72,64,16
1,71,64,16
1,74,64,16
1,67,76,16
1,59,64,0
1,64,64,0
1,67,64,0
1,55,56,192
1,62,56,0
1,55,56,16
1,62,56,0
1,55,56,16
1,62,56,0
1,71,76,16
1,55,56,192
1,62,56,0
1,67,76,16
1,55,56,192
1,62,56,0
1,62,64,16
1,66,64,0
1,59,64,0
1,62,64,0
1,66,64,0
1,59,64,16
1,62,64,16
1,66,64,16
1,62,64,16
1,71,64,0
1,62,64,24
1,66,64,0
1,55,64,16
1,62,64,0
1,64,64,0
1,60,64,0
1,64,64,0
1,67,64,0
1,55,56,16
1,55,64,16
1,62,64,0
1,64,64,0
1,55,56,16
1,62,56,0
1,64,56,0
1,55,64,16
1,62,64,0
1,64,64,0
1,55,40,16
1,55,64,16
1,62,64,0
1,64,64,0
1,55,56,16
1,62,56,0
1,64,56,0
1,55,64,16
1,62,64,0
1,64,64,0
1,55,56,16
1,55,64,16
1,62,64,0
1,64,64,0
1,55,56,16
1,62,56,0
1,64,56,0
1,57,64,16
1,62,64,0
1,66,64,0
1,62,86,0
1,57,64,16
1,62,64,0
1,67,64,0
1,64,86,0
1,57,64,16
1,62,64,0
1,66,64,0
1,69,64,0
1,66,86,0
1,59,64,16
1,64,64,0
1,68,64,0
1,71,64,0
1,68,86,0
1,59,64,24
1,64,64,0
1,68,64,0
1,68,64,16
1,64,64,0
1,59,64,0
1,68,64,16
1,64,64,0
1,59,64,0
1,68,64,16
1,64,64,0
1,59,64,0
1,68,64,16
1,64,64,0
1,59,64,0
1,61,64,16
1,66,64,0
1,69,64,0
1,69,86,0
1,73,86,0
1,61,64,24
1,66,64,0
1,69,64,0
1,61,64,16
1,66,64,0
1,69,64,0
1,61,64,16
1,66,64,0
1,69,64,0
1,61,64,16
1,66,64,0
1,69,64,0
1,61,64,16
1,66,64,0
1,69,64,0
1,61,64,16
1,66,64,0
1,69,64,0
1,60,64,16
1,64,64,0
1,69,64,0
1,72,86,0
1,60,64,16
1,64,64,0
1,69,64,0
1,60,64,16
1,64,64,0
1,69,64,0
1,60,64,16
1,64,64,0
1,69,64,0
1,60,64,16
1,64,64,0
1,69,64,0
1,60,64,24
1,64,64,0
1,69,64,0
1,60,64,16
1,65,64,0
1,69,64,0
1,65,86,0
1,69,86,0
1,60,64,24
1,65,64,0
1,69,64,0
1,72,64,16
1,60,64,16
1,64,64,0
1,67,64,0
1,64,86,0
1,67,86,0
1,60,64,24
1,64,64,0
1,67,64,0
1,72,64,16
1,62,64,16
1,66,64,0
1,69,64,0
1,62,86,0
1,66,86,0
1,69,86,0
1,62,64,24
1,66,64,0
1,69,64,16
1,62,64,16
1,65,64,0
1,70,64,0
1,74,64,0
1,65,86,0
1,70,86,0
1,74,86,0
1,62,64,24
1,65,64,0
1,70,64,0
1,74,64,16
1,65,64,16
1,69,64,0
1,72,64,0
1,65,86,0
1,69,86,0
1,72,86,0
1,56,64,32
1,59,64,0
1,62,64,0
1,65,86,0
1,68,86,0
1,71,86,0
1,74,86,0
1,56,64,16
1,59,64,0
1,62,64,0
1,56,64,16
1,59,64,0
1,62,64,0
1,53,64,16
1,58,64,0
1,62,64,0
1,70,86,0
1,53,64,24
1,58,64,0
1,62,64,0
1,53,64,16
1,58,64,0
1,62,64,0
1,53,64,16
1,58,64,0
1,62,64,0
1,53,64,24
1,58,64,0
1,62,64,0
1,53,64,8
1,57,64,0
1,60,64,0
1,65,86,0
1,69,86,0
1,72,86,0
1,77,86,0
1,53,64,24
1,57,64,0
1,53,64,24
1,57,64,0
1,64,64,0
1,65,64,0
1,53,64,24
1,57,64,0
1,60,64,0
1,55,64,16
1,67,86,0
1,71,86,0
1,74,86,0
1,59,64,16
1,64,64,16
1,54,64,32
1,66,86,0
1,69,86,0
1,57,64,16
1,62,64,16
1,61,64,8
1,64,64,0
1,61,86,0
1,64,86,0
1,68,86,0
1,71,86,0
1,76,86,0
1,56,64,288
1,56,64,16
1,62,64,16
1,66,64,0
1,62,86,0
1,66,86,0
1,56,64,288
1,56,64,16
1,64,64,16
1,68,64,0
1,64,86,0
1,68,86,0
1,56,64,288
1,56,64,16
1,56,64,16
1,56,64,16
1,56,64,16
1,61,64,16
1,64,64,0
1,61,86,0
1,64,86,0
1,56,64,288
1,56,64,16
1,62,64,16
1,66,64,0
1,62,86,0
1,66,86,0
1,56,64,288
1,56,64,16
1,64,64,16
1,68,64,0
1,64,86,0
1,68,86,0
1,56,64,288
1,56,64,16
1,56,64,16
1,56,64,16
1,56,64,16
1,61,64,0
1,65,64,0
1,68,64,0
1,73,86,64
1,73,86,48
1,73,86,48
1,73,86,48
1,61,64,32
1,66,64,0
1,70,64,0
1,75,86,192
1,61,64,24
1,66,64,0
1,70,64,0
1,78,86,192
1,61,64,24
1,65,64,0
1,68,64,0
1,73,86,192
1,73,86,48
1,73,86,48
1,73,86,48
1,63,64,32
1,66,64,0
1,71,64,0
1,75,86,192
1,61,64,24
1,66,64,0
1,70,64,0
1,78,86,192
1,61,64,0
1,65,64,0
1,68,64,0
1,73,86,192
1,73,86,48
1,73,86,48
1,73,86,48
1,61,64,32
1,66,64,0
1,70,64,0
1,75,86,192
1,61,64,24
1,66,64,0
1,70,64,0
1,78,86,192
1,61,64,24
1,65,64,0
1,68,64,0
1,73,86,192
1,73,86,48
1,73,86,48
1,73,86,48
1,63,64,32
1,66,64,0
1,71,64,0
1,75,86,192
1,61,64,24
1,66,64,0
1,70,64,0
1,78,86,192
1,61,64,24
1,65,64,0
1,68,64,0
1,73,86,192
1,73,86,48
1,73,86,48
1,73,86,48
1,61,64,32
1,66,64,0
1,69,64,0
1,75,86,192
1,61,64,24
1,66,64,0
1,78,86,192
1,61,64,24
1,65,64,0
1,68,64,0
1,73,86,192
1,73,86,48
1,73,86,48
1,73,86,48
1,59,64,32
1,63,64,0
1,75,86,192
1,59,64,24
1,63,64,0
1,66,64,0
1,78,86,192
1,61,64,24
1,65,64,0
1,68,64,0
1,73,86,192
1,73,86,48
1,73,86,48
1,73,86,48
1,61,64,32
1,66,64,0
1,69,64,0
1,75,86,192
1,61,64,24
1,66,64,0
1,78,86,192
1,61,64,24
1,65,64,0
1,68,64,0
1,73,86,192
1,73,86,48
1,73,86,48
1,73,86,48
1,59,64,32
1,63,64,0
1,75,86,192
1,59,64,24
1,63,64,0
1,66,64,0
1,78,86,192
1,59,64,24
1,64,64,0
1,68,64,0
1,76,86,192
1,76,86,48
1,76,86,48
1,76,86,48
1,61,64,32
1,64,64,0
1,69,64,0
1,78,86,192
1,59,64,24
1,63,64,0
1,66,64,0
1,80,86,192
1,59,64,24
1,64,64,0
1,68,64,0
1,76,86,192
1,76,86,48
1,76,86,48
1,76,86,48
1,57,64,32
1,61,64,0
1,78,86,192
1,59,64,24
1,63,64,0
1,80,86,192
1,59,64,24
1,64,64,0
1,68,64,0
1,76,86,192
1,76,86,48
1,76,86,48
1,76,86,48
1,61,64,32
1,64,64,0
1,69,64,0
1,78,86,192
1,59,64,24
1,63,64,0
1,66,64,0
1,80,86,192
1,59,64,24
1,64,64,0
1,68,64,0
1,76,86,192
1,76,86,48
1,76,86,48
1,76,86,48
1,57,64,32
1,61,64,0
1,78,86,192
1,59,64,24
1,63,64,0
1,80,86,192
1,61,64,24
1,65,64,0
1,63,64,24
1,67,64,0
1,60,64,24
1,65,64,0
1,69,64,0
1,81,86,192
1,81,86,48
1,81,86,48
1,81,86,48
1,62,64,32
