track,note,velocity,time
1,62,105,3840
1,67,105,0
1,70,104,480
1,65,104,0
1,67,0,0
1,62,0,0
1,67,104,480
1,72,104,0
1,70,0,0
1,65,0,0
1,65,103,480
1,70,103,0
1,67,0,0
1,72,0,0
1,67,102,480
1,72,102,0
1,65,0,0
1,70,0,0
1,70,101,480
1,74,101,0
1,67,0,0
1,72,0,0
1,72,100,480
1,77,100,0
1,70,0,0
1,74,0,0
1,74,99,480
1,70,99,0
1,72,0,0
1,77,0,0
1,77,98,480
1,72,98,0
1,74,0,0
1,70,0,0
1,79,97,480
1,74,97,0
1,77,0,0
1,72,0,0
1,77,96,480
1,82,96,0
1,79,0,0
1,74,0,0
1,74,95,480
1,79,95,0
1,77,0,0
1,82,0,0
1,77,94,480
1,82,94,0
1,74,0,0
1,79,0,0
1,79,93,480
1,84,93,0
1,77,0,0
1,82,0,0
1,82,92,480
1,86,92,0
1,79,0,0
1,84,0,0
1,79,91,480
1,84,91,0
1,82,0,0
1,86,0,0
1,74,108,480
1,70,109,0
1,62,112,0
1,65,106,0
1,79,0,0
1,84,0,0
1,70,0,959
1,74,0,0
1,72,115,1
1,69,108,0
1,70,91,0
1,70,0,19
1,72,0,940
1,62,0,0
1,65,0,0
1,69,0,0
1,60,110,1
1,63,104,0
1,67,114,0
1,70,106,0
1,70,0,1919
1,67,0,0
1,72,114,1
1,69,114,0
1,69,0,959
1,72,0,0
1,67,114,1
1,70,114,0
1,70,0,959
1,60,0,0
1,63,0,0
1,67,0,0
1,58,94,1
1,62,95,0
1,65,112,0
1,70,112,0
1,70,0,1919
1,58,0,0
1,62,0,0
1,65,0,0
1,74,108,1
1,70,109,0
1,62,112,0
1,65,106,0
1,70,0,959
1,74,0,0
1,72,115,1
1,69,108,0
1,70,91,0
1,70,0,19
1,72,0,940
1,65,0,0
1,62,0,0
1,69,0,0
1,60,110,1
1,63,104,0
1,67,114,0
1,70,106,0
1,70,0,1919
1,67,0,0
1,72,114,1
1,69,114,0
1,69,0,959
1,72,0,0
1,67,114,1
1,70,114,0
1,70,0,959
1,60,0,0
1,63,0,0
1,67,0,0
1,58,94,1
1,62,95,0
1,65,112,0
1,70,112,0
1,70,0,1919
1,58,0,0
1,62,0,0
1,65,0,0
1,74,108,1
1,70,109,0
1,62,112,0
1,65,106,0
1,70,0,959
1,74,0,0
1,72,115,1
1,69,108,0
1,70,91,0
1,70,0,19
1,72,0,940
1,65,0,0
1,62,0,0
1,69,0,0
1,60,110,1
1,63,104,0
1,67,114,0
1,70,106,0
1,70,0,1919
1,67,0,0
1,72,114,1
1,69,114,0
1,69,0,959
1,72,0,0
1,67,114,1
1,70,114,0
1,70,0,959
1,60,0,0
1,63,0,0
1,67,0,0
1,58,94,1
1,62,95,0
1,65,112,0
1,70,112,0
1,70,0,1919
1,58,0,0
1,62,0,0
1,65,0,0
1,68,93,1
1,72,113,0
1,79,98,0
1,79,0,959
1,72,0,0
1,68,0,0
1,68,101,1
1,72,114,0
1,75,109,0
1,75,0,959
1,72,0,0
1,68,0,0
1,68,89,1
1,74,113,0
1,77,107,0
1,77,0,959
1,74,0,0
1,68,0,0
1,68,107,1
1,74,116,0
1,77,111,0
1,77,0,959
1,74,0,0
1,68,0,0
1,68,101,1
1,72,118,0
1,79,110,0
1,79,0,959
1,72,0,0
1,68,0,0
1,68,104,1
1,72,117,0
1,75,109,0
1,75,0,959
1,72,0,0
1,68,0,0
1,65,105,1
1,70,106,0
1,74,107,0
1,74,0,1919
1,70,0,0
1,65,0,0
1,68,93,1
1,72,113,0
1,79,98,0
1,79,0,959
1,72,0,0
1,68,0,0
1,68,101,1
1,72,114,0
1,75,109,0
1,75,0,959
1,72,0,0
1,68,0,0
1,68,89,1
1,74,113,0
1,77,107,0
1,77,0,959
1,74,0,0
1,68,0,0
1,68,107,1
1,74,116,0
1,77,111,0
1,77,0,959
1,74,0,0
1,68,0,0
1,79,110,1
1,72,118,0
1,68,101,0
1,68,0,959
1,72,0,0
1,79,0,0
1,68,104,1
1,72,117,0
1,75,109,0
1,75,0,959
1,72,0,0
1,68,0,0
1,74,107,1
1,65,105,0
1,70,106,0
1,70,0,1919
1,65,0,0
1,74,0,0
1,65,110,1
1,67,106,0
1,70,108,0
1,74,108,0
1,60,108,1920
1,63,87,0
1,67,105,0
1,69,108,0
1,74,0,0
1,70,0,0
1,65,0,0
1,67,0,0
1,67,111,1920
1,63,112,0
1,70,103,0
1,60,0,0
1,67,0,0
1,69,0,0
1,63,0,0
1,60,112,960
1,62,112,960
1,65,111,0
1,70,112,0
1,60,0,0
1,70,0,0
1,63,0,0
1,67,0,0
1,70,0,1919
1,62,0,0
1,65,0,0
1,74,108,1
1,70,109,0
1,62,112,0
1,65,106,0
1,70,0,959
1,74,0,0
1,72,115,1
1,69,108,0
1,70,91,0
1,70,0,19
1,72,0,940
1,65,0,0
1,62,0,0
1,69,0,0
1,60,110,1
1,63,104,0
1,67,114,0
1,70,106,0
1,70,0,1919
1,67,0,0
1,72,114,1
1,69,114,0
1,69,0,959
1,72,0,0
1,67,114,1
1,70,114,0
1,70,0,959
1,60,0,0
1,63,0,0
1,67,0,0
1,58,94,1
1,62,95,0
1,65,112,0
1,70,112,0
1,70,0,1919
1,58,0,0
1,62,0,0
1,65,0,0
1,74,108,1
1,70,109,0
1,62,112,0
1,65,106,0
1,70,0,959
1,74,0,0
1,72,115,1
1,69,108,0
1,70,91,0
1,70,0,19
1,72,0,940
1,65,0,0
1,62,0,0
1,69,0,0
1,60,110,1
1,63,104,0
1,67,114,0
1,70,106,0
1,70,0,1919
1,67,0,0
1,72,114,1
1,69,114,0
1,69,0,959
1,72,0,0
1,67,114,1
1,70,114,0
1,70,0,959
1,60,0,0
1,63,0,0
1,67,0,0
1,58,94,1
1,62,95,0
1,65,112,0
1,70,112,0
1,70,0,1919
1,58,0,0
1,62,0,0
1,65,0,0
1,68,93,1
1,72,113,0
1,79,98,0
1,79,0,959
1,72,0,0
1,68,0,0
1,68,101,1
1,72,114,0
1,75,109,0
1,75,0,959
1,72,0,0
1,68,0,0
1,68,89,1
1,74,113,0
1,77,107,0
1,77,0,959
1,74,0,0
1,68,0,0
1,68,107,1
1,74,116,0
1,77,111,0
1,77,0,959
1,74,0,0
1,68,0,0
1,68,101,1
1,72,118,0
1,79,110,0
1,79,0,959
1,72,0,0
1,68,0,0
1,68,104,1
1,72,117,0
1,75,109,0
1,75,0,959
1,72,0,0
1,68,0,0
1,65,105,1
1,70,106,0
1,74,107,0
1,74,0,1919
1,70,0,0
1,65,0,0
1,68,93,1
1,72,113,0
1,79,98,0
1,79,0,959
1,72,0,0
1,68,0,0
1,68,101,1
1,72,114,0
1,75,109,0
1,75,0,959
1,72,0,0
1,68,0,0
1,68,89,1
1,74,113,0
1,77,107,0
1,77,0,959
1,74,0,0
1,68,0,0
1,68,107,1
1,74,116,0
1,77,111,0
1,77,0,959
1,74,0,0
1,68,0,0
1,79,110,1
1,72,118,0
1,68,101,0
1,68,0,959
1,72,0,0
1,79,0,0
1,68,104,1
1,72,117,0
1,75,109,0
1,75,0,959
1,72,0,0
1,68,0,0
1,74,107,1
1,65,105,0
1,70,106,0
1,70,0,1919
1,65,0,0
1,74,0,0
1,65,110,1
1,67,106,0
1,70,108,0
1,74,108,0
1,60,108,1920
1,63,87,0
1,67,105,0
1,69,108,0
1,74,0,0
1,70,0,0
1,65,0,0
1,67,0,0
1,67,111,1920
1,63,112,0
1,70,103,0
1,60,0,0
1,67,0,0
1,69,0,0
1,63,0,0
1,60,112,960
1,62,112,960
1,65,111,0
1,70,112,0
1,60,0,0
1,70,0,0
1,63,0,0
1,67,0,0
1,70,0,1919
1,62,0,0
1,65,0,0
1,65,112,1
1,74,109,0
1,70,114,0
1,70,0,960
1,74,0,0
1,65,0,0
1,65,109,480
1,74,110,0
1,70,111,0
1,65,113,240
1,70,111,0
1,74,110,0
1,70,0,0
1,65,0,0
1,74,0,0
1,65,115,240
1,74,116,0
1,70,114,0
1,65,0,0
1,74,0,0
1,70,0,0
1,65,0,960
1,74,0,0
1,70,0,0
1,65,111,480
1,74,108,0
1,70,111,0
1,74,114,240
1,65,114,0
1,70,114,0
1,70,0,0
1,65,0,0
1,74,0,0
1,65,115,240
1,74,116,0
1,70,114,0
1,74,0,0
1,70,0,0
1,65,0,0
1,65,0,960
1,74,0,0
1,70,0,0
1,65,109,480
1,74,110,0
1,70,111,0
1,65,113,240
1,70,111,0
1,74,110,0
1,70,0,0
1,65,0,0
1,74,0,0
1,65,115,240
1,74,116,0
1,70,114,0
1,65,0,0
1,74,0,0
1,70,0,0
1,65,0,960
1,74,0,0
1,70,0,0
1,65,111,480
1,74,108,0
1,70,111,0
1,74,114,240
1,65,114,0
1,70,114,0
1,70,0,0
1,65,0,0
1,74,0,0
1,74,0,240
1,65,0,0
1,70,0,0
1,74,55,23040
1,70,55,0
1,62,55,0
1,65,55,0
1,70,0,959
1,74,0,0
1,72,62,1
1,69,62,0
1,70,62,0
1,70,0,19
1,72,0,940
1,65,0,0
1,62,0,0
1,69,0,0
1,60,70,1
1,63,70,0
1,67,70,0
1,70,70,0
1,70,0,1919
1,67,0,0
1,72,85,1
1,69,85,0
1,69,0,959
1,72,0,0
1,67,92,1
1,70,92,0
1,70,0,959
1,60,0,0
1,63,0,0
1,67,0,0
1,58,100,1
1,62,100,0
1,65,100,0
1,70,100,0
1,70,0,1919
1,58,0,0
1,62,0,0
1,65,0,0
1,74,108,1
1,70,109,0
1,62,112,0
1,65,106,0
1,70,0,959
1,74,0,0
1,72,115,1
1,69,108,0
1,70,91,0
1,70,0,19
1,72,0,940
1,65,0,0
1,62,0,0
1,69,0,0
1,60,110,1
1,63,104,0
1,67,114,0
1,70,106,0
1,70,0,1919
1,67,0,0
1,72,114,1
1,69,114,0
1,69,0,959
1,72,0,0
1,67,114,1
1,70,114,0
1,70,0,959
1,60,0,0
1,63,0,0
1,67,0,0
1,58,94,1
1,62,95,0
1,65,112,0
1,70,112,0
1,70,0,1919
1,58,0,0
1,62,0,0
1,65,0,0
1,74,108,1
1,70,109,0
1,62,112,0
1,65,106,0
1,70,0,959
1,74,0,0
1,72,115,1
1,69,108,0
1,70,91,0
1,70,0,19
1,72,0,940
1,65,0,0
1,62,0,0
1,69,0,0
1,60,110,1
1,63,104,0
1,67,114,0
1,70,106,0
1,70,0,1919
1,67,0,0
1,72,114,1
1,69,114,0
1,69,0,959
1,72,0,0
1,67,114,1
1,70,114,0
1,70,0,959
1,60,0,0
1,63,0,0
1,67,0,0
1,58,94,1
1,62,95,0
1,65,112,0
1,70,112,0
1,70,0,1919
1,58,0,0
1,62,0,0
1,65,0,0
1,68,93,1
1,72,113,0
1,79,98,0
1,79,0,959
1,72,0,0
1,68,0,0
1,68,101,1
1,72,114,0
1,75,109,0
1,75,0,959
1,72,0,0
1,68,0,0
1,68,89,1
1,74,113,0
1,77,107,0
1,77,0,959
1,74,0,0
1,68,0,0
1,68,107,1
1,74,116,0
1,77,111,0
1,77,0,959
1,74,0,0
1,68,0,0
1,68,101,1
1,72,118,0
1,79,110,0
1,79,0,959
1,72,0,0
1,68,0,0
1,68,104,1
1,72,117,0
1,75,109,0
1,75,0,959
1,72,0,0
1,68,0,0
1,65,105,1
1,70,106,0
1,74,107,0
1,74,0,1919
1,70,0,0
1,65,0,0
1,68,93,1
1,72,113,0
1,79,98,0
1,79,0,959
1,72,0,0
1,68,0,0
1,68,101,1
1,72,114,0
1,75,109,0
1,75,0,959
1,72,0,0
1,68,0,0
1,68,89,1
1,74,113,0
1,77,107,0
1,77,0,959
1,74,0,0
1,68,0,0
1,68,107,1
1,74,116,0
1,77,111,0
1,77,0,959
1,74,0,0
1,68,0,0
1,79,110,1
1,72,118,0
1,68,101,0
1,68,0,959
1,72,0,0
1,79,0,0
1,68,104,1
1,72,117,0
1,75,109,0
1,75,0,959
1,72,0,0
1,68,0,0
1,74,107,1
1,65,105,0
1,70,106,0
1,70,0,1919
1,65,0,0
1,74,0,0
1,65,110,1
1,67,106,0
1,70,108,0
1,74,108,0
1,60,108,1920
1,63,87,0
1,67,105,0
1,69,108,0
1,74,0,0
1,70,0,0
1,65,0,0
1,67,0,0
1,67,111,1920
1,63,112,0
1,70,103,0
1,60,0,0
1,67,0,0
1,69,0,0
1,63,0,0
1,60,112,960
1,62,105,960
1,67,105,0
1,60,0,0
1,70,0,0
1,63,0,0
1,67,0,0
1,70,104,480
1,65,104,0
1,67,0,0
1,62,0,0
1,67,104,480
1,72,104,0
1,70,0,0
1,65,0,0
1,65,103,480
1,70,103,0
1,67,0,0
1,72,0,0
1,67,102,480
1,72,102,0
1,65,0,0
1,70,0,0
1,70,101,480
1,74,101,0
1,67,0,0
1,72,0,0
1,72,100,480
1,77,100,0
1,70,0,0
1,74,0,0
1,74,99,480
1,70,99,0
1,72,0,0
1,77,0,0
1,77,98,480
1,72,98,0
1,74,0,0
1,70,0,0
1,79,97,480
1,74,97,0
1,77,0,0
1,72,0,0
1,77,96,480
1,82,96,0
1,79,0,0
1,74,0,0
1,74,95,480
1,79,95,0
1,77,0,0
1,82,0,0
1,77,94,480
1,82,94,0
1,74,0,0
1,79,0,0
1,79,93,480
1,84,93,0
1,77,0,0
1,82,0,0
1,82,92,480
1,86,92,0
1,79,0,0
1,84,0,0
1,79,91,480
1,84,91,0
1,82,0,0
1,86,0,0
1,86,48,480
1,82,76,0
1,77,100,0
1,79,0,0
1,84,0,0
1,82,0,1559
1,86,0,0
1,77,0,0
1,67,103,121
1,72,108,0
1,72,0,240
1,67,0,0
1,70,78,4
1,74,87,1
1,74,0,611
1,70,0,0
1,67,103,116
1,72,108,0
1,72,0,240
1,67,0,0
1,70,90,4
1,74,90,1
1,74,0,457
1,70,0,0
1,67,75,99
1,72,75,0
1,72,0,6
1,67,0,0
1,70,73,4
1,74,73,1
1,74,0,442
1,70,0,0
1,67,57,116
1,72,57,0
1,72,0,23
1,67,0,0
1,70,55,4
1,74,55,1
1,74,0,7
1,70,0,0
1,72,39,69
1,67,39,0
1,67,0,8
1,72,0,0
1,70,37,4
1,74,37,1
1,74,0,46
1,70,0,0
1,72,22,1
1,67,22,0
1,67,0,144
1,72,0,0
1,70,19,4
1,74,19,1
1,74,0,31
1,70,0,0
1,67,18,7
1,72,18,0
1,74,17,22
1,70,17,0
1,72,0,0
1,67,0,0
1,74,0,1558
1,70,0,1
1,67,17,120
1,72,17,0
1,72,0,1
1,67,0,0
2,34,114,3840
2,34,112,120
2,34,0,0
2,34,112,120
2,34,0,0
2,34,114,720
2,34,0,0
2,34,110,840
2,34,0,0
2,34,110,120
2,34,0,0
2,34,110,120
2,34,0,0
2,34,111,120
2,34,0,0
2,34,114,720
2,34,0,0
2,34,113,840
2,34,0,0
2,34,114,120
2,34,0,0
2,34,112,120
2,34,0,0
2,34,112,120
2,34,0,0
2,34,114,720
2,34,0,0
2,34,110,840
2,34,0,0
2,34,110,120
2,34,0,0
2,34,110,120
2,34,0,0
2,34,111,120
2,34,0,0
2,34,114,720
2,34,0,0
2,34,113,840
2,34,0,0
2,34,114,120
2,34,0,0
2,34,112,120
2,34,0,0
2,34,112,120
2,34,0,0
2,34,114,720
2,34,0,0
2,34,110,840
2,34,0,0
2,34,110,120
2,34,0,0
2,34,110,120
2,34,0,0
2,34,111,120
2,34,0,0
2,34,114,720
2,34,0,0
2,34,113,840
2,34,0,0
2,34,114,120
2,34,0,0
2,34,112,120
2,34,0,0
2,34,112,120
2,34,0,0
2,34,114,720
2,34,0,0
2,34,110,840
2,34,0,0
2,34,110,120
2,34,0,0
2,34,110,120
2,34,0,0
2,34,111,120
2,34,0,0
2,34,114,720
2,34,0,0
2,34,113,840
2,34,0,0
2,34,114,120
2,34,0,0
2,34,112,120
2,34,0,0
2,34,112,120
2,34,0,0
2,34,114,720
2,34,0,0
2,34,110,840
2,34,0,0
2,34,110,120
2,34,0,0
2,34,110,120
2,34,0,0
2,34,111,120
