track,note,velocity,time
1,35,107,1200
1,35,0,8
1,35,107,22
1,35,0,8
1,35,107,22
1,35,0,8
1,35,107,22
1,35,0,7
1,35,107,23
1,35,0,7
1,35,107,23
1,35,0,8
1,35,107,22
1,35,0,8
1,35,107,22
1,35,0,8
1,35,107,22
1,35,0,7
1,35,107,23
1,35,0,7
1,35,107,23
1,35,0,8
1,35,107,22
1,35,0,7
1,35,107,23
1,35,0,8
1,35,107,22
1,35,0,7
1,35,107,23
1,35,0,9
1,35,107,21
1,35,0,8
1,35,107,22
1,35,0,8
1,35,107,22
1,35,0,8
1,35,107,22
1,35,0,9
1,35,107,21
1,35,0,8
1,35,107,22
1,35,0,9
1,35,107,21
1,35,0,8
1,35,107,22
1,35,0,11
1,35,107,19
1,35,0,8
1,35,107,22
1,35,0,9
1,35,107,21
1,35,0,9
1,35,107,21
1,35,0,9
1,35,107,21
1,35,0,7
1,35,107,23
1,35,0,9
1,35,107,21
1,35,0,8
1,35,107,22
1,35,0,10
1,35,107,20
1,35,0,9
1,35,107,21
1,35,0,10
1,35,107,20
1,35,0,9
1,35,107,21
1,35,0,10
1,35,107,20
1,35,0,9
1,35,107,21
1,35,0,9
1,35,107,21
1,35,0,8
1,35,107,22
1,35,0,9
1,35,107,21
1,35,0,7
1,35,107,23
1,35,0,10
1,35,107,20
1,35,0,9
1,35,107,21
1,35,0,10
1,35,107,20
1,35,0,9
1,35,107,21
1,35,0,10
1,35,107,20
1,35,0,7
1,35,107,23
1,35,0,10
1,35,107,20
1,35,0,9
1,35,107,21
1,35,0,9
1,35,107,21
1,35,0,9
1,35,107,21
1,35,0,11
1,35,107,19
1,35,0,9
1,35,107,21
1,35,0,10
1,35,107,20
1,35,0,9
1,35,107,21
1,35,0,8
1,35,107,22
1,35,0,9
1,35,107,21
1,35,0,9
1,35,107,21
1,35,0,9
1,35,107,21
1,35,0,10
1,35,107,20
1,35,0,10
1,35,107,20
1,35,0,9
1,35,107,21
1,35,0,8
1,35,107,22
1,35,0,8
1,35,107,22
1,35,0,7
1,35,107,23
1,35,0,9
1,35,107,21
1,35,0,9
1,35,107,21
1,35,0,9
1,35,107,21
1,35,0,9
1,35,107,21
1,35,0,10
1,35,107,20
1,35,0,9
1,35,107,21
1,35,0,10
1,35,107,20
1,35,0,9
1,35,107,21
1,35,0,10
1,35,107,20
1,35,0,8
1,35,107,22
1,35,0,10
1,35,107,20
1,35,0,9
1,35,107,21
1,35,0,9
1,35,107,21
1,35,0,9
1,35,107,21
1,35,0,11
1,35,107,19
1,35,0,9
1,35,107,21
1,35,0,10
1,35,107,20
1,35,0,7
1,35,107,23
1,35,0,10
1,35,107,20
1,35,0,10
1,35,107,80
1,35,0,10
1,35,107,20
1,35,0,9
1,35,107,21
1,35,0,10
1,35,107,20
1,35,0,10
1,35,107,20
1,35,0,10
1,35,107,20
1,35,0,9
1,35,107,21
1,35,0,9
1,35,107,21
1,35,0,9
1,35,107,21
1,35,0,9
1,35,107,21
1,35,0,8
1,35,107,22
1,35,0,9
1,35,107,21
1,35,0,9
1,35,107,21
1,35,0,10
1,35,107,20
1,35,0,9
1,35,107,21
1,35,0,10
1,35,107,20
1,35,0,8
1,35,107,22
1,35,0,9
1,35,107,21
1,35,0,9
1,35,107,21
1,35,0,8
1,35,107,22
1,35,0,9
1,35,107,21
1,35,0,10
1,35,107,20
1,35,0,8
1,35,107,22
1,35,0,11
1,35,107,19
1,35,0,9
1,35,107,21
1,35,0,9
1,35,107,21
1,35,0,9
1,35,107,21
1,35,0,9
1,35,107,21
1,35,0,8
1,35,107,22
1,35,0,10
1,35,107,20
1,35,0,8
1,35,107,22
1,35,0,10
1,35,107,20
1,35,0,8
1,35,107,22
1,35,0,10
1,35,107,20
1,35,0,8
1,35,107,22
1,35,0,10
1,35,107,20
1,35,0,7
1,35,107,23
1,35,0,10
1,35,107,20
1,35,0,7
1,35,107,23
1,35,0,8
1,35,107,22
1,35,0,9
1,35,107,21
1,35,0,11
1,35,107,19
1,35,0,10
1,35,107,20
1,35,0,10
1,35,107,20
1,35,0,9
1,35,107,21
1,35,0,11
1,35,107,19
1,35,0,9
1,35,107,21
1,35,0,11
1,35,107,19
1,35,0,8
1,35,107,22
1,35,0,10
1,35,107,20
1,35,0,8
1,35,107,22
1,35,0,10
1,35,107,20
1,35,0,10
1,35,107,20
1,35,0,11
1,35,107,19
1,35,0,8
1,35,107,22
1,35,0,11
1,35,107,19
1,35,0,9
1,35,107,21
1,35,0,11
1,35,107,19
1,35,0,8
1,35,107,22
1,35,0,11
1,35,107,19
1,35,0,8
1,35,107,22
1,35,0,9
1,35,107,21
1,35,0,8
1,35,107,22
1,35,0,10
1,35,107,20
1,35,0,10
1,35,107,20
1,35,0,10
1,35,107,20
1,35,0,9
1,35,107,21
1,35,0,10
1,35,107,20
1,35,0,8
1,35,107,22
1,35,0,10
1,35,107,20
1,35,0,9
1,35,107,21
1,35,0,9
1,35,107,21
1,35,0,8
1,35,107,22
1,35,0,9
1,35,107,21
1,35,0,9
1,35,107,21
1,35,0,9
1,35,107,21
1,35,0,9
1,35,107,21
1,36,107,30
1,35,0,8
1,36,0,3
1,36,107,19
1,36,0,12
1,36,107,18
1,36,0,10
1,36,107,20
1,36,0,12
1,36,107,18
1,36,0,10
1,36,107,20
1,36,0,11
1,36,107,19
1,36,0,10
1,36,107,20
1,36,0,12
1,36,107,18
1,36,0,10
1,36,107,20
1,36,0,10
1,36,107,20
1,36,0,10
1,36,107,20
1,36,0,11
1,36,107,19
1,36,0,11
1,36,107,19
1,36,0,11
1,36,107,19
1,36,0,11
1,36,107,19
1,36,0,11
1,36,107,19
1,36,0,10
1,36,107,20
1,36,0,13
1,36,107,17
1,36,0,12
1,36,107,18
1,36,0,11
1,36,107,19
1,36,0,11
1,36,107,19
1,36,0,12
1,36,107,18
1,36,0,12
1,36,107,18
1,36,0,12
1,36,107,18
1,36,0,12
1,36,107,18
1,36,0,13
1,36,107,17
1,36,0,11
1,36,107,19
1,36,0,12
1,36,107,18
1,36,0,10
1,36,107,20
1,36,0,11
1,36,107,19
1,36,0,10
1,36,107,20
1,36,0,11
1,36,107,19
1,36,0,11
1,36,107,19
1,36,0,12
1,36,107,18
1,36,0,11
1,36,107,19
1,36,0,12
1,36,107,18
1,36,0,11
1,36,107,19
1,36,0,11
1,36,107,19
1,36,0,9
1,36,107,21
1,36,0,11
1,36,107,19
1,36,0,12
1,36,107,18
1,36,0,12
1,36,107,18
1,36,0,11
1,36,107,19
1,36,0,13
1,36,107,17
1,36,0,11
1,36,107,19
1,36,0,11
1,36,107,19
1,36,0,11
1,36,107,19
1,36,0,11
1,36,107,19
1,36,0,12
1,36,107,18
1,36,0,12
1,36,107,18
1,36,0,12
1,36,107,18
1,36,0,13
1,36,107,17
1,36,0,13
1,36,107,17
1,36,0,11
1,36,107,19
1,36,0,11
1,36,107,19
1,36,0,12
1,36,107,18
1,36,0,12
1,36,107,18
1,36,0,12
1,36,107,18
1,36,0,12
1,36,107,18
1,36,0,12
1,36,107,18
1,36,0,12
1,36,107,18
1,36,0,12
1,36,107,18
1,36,0,12
1,36,107,18
1,36,0,11
1,36,107,19
1,36,0,30
1,35,107,0
1,35,107,0
1,35,0,9
1,35,0,0
1,35,107,21
1,35,0,10
1,35,107,20
1,35,0,9
1,35,107,21
1,35,0,10
1,35,107,20
1,35,0,11
1,35,107,19
1,35,0,10
1,35,107,20
1,35,0,10
1,35,107,20
1,35,0,10
1,35,107,20
1,35,0,11
1,35,107,19
1,35,0,11
1,35,107,19
1,35,0,11
1,35,107,19
1,35,0,12
1,35,107,18
1,35,0,11
1,35,107,19
1,35,0,10
1,35,107,20
1,35,0,10
1,35,107,20
1,35,0,12
1,30,107,18
1,30,0,11
1,30,107,19
1,30,0,11
1,30,107,19
1,30,0,11
1,30,107,19
1,30,0,10
1,30,107,20
1,30,0,10
1,30,107,20
1,30,0,10
1,30,107,20
1,30,0,10
1,35,107,20
1,35,0,10
1,35,107,20
1,35,0,10
1,35,107,20
1,35,0,12
1,35,107,18
1,35,0,11
1,35,107,19
1,35,0,11
1,35,107,19
1,35,0,12
1,35,107,18
1,35,0,11
1,35,107,19
1,35,0,11
1,35,107,19
1,35,0,11
1,35,107,19
1,35,0,11
1,35,107,19
1,35,0,10
1,35,107,20
1,35,0,10
1,35,107,20
1,35,0,11
1,35,107,19
1,35,0,11
1,35,107,19
1,35,0,10
1,35,107,20
1,35,0,11
1,35,107,19
1,35,0,12
1,28,107,15
1,28,0,60
1,28,107,96
1,28,0,60
1,28,107,120
1,28,0,60
1,36,107,87
1,36,0,10
1,36,107,20
1,36,0,10
1,36,107,20
1,36,0,9
1,36,107,21
1,36,0,10
1,36,107,20
1,37,107,0
1,37,0,11
1,36,0,0
1,36,107,19
1,36,0,10
1,36,107,20
1,36,0,11
1,36,107,19
1,36,0,11
1,36,107,19
1,36,0,9
1,36,107,21
1,36,0,9
1,36,107,21
1,36,0,11
1,36,107,19
1,36,0,11
1,36,107,19
1,36,0,11
1,36,107,19
1,36,0,10
1,36,107,20
1,36,0,10
1,36,107,20
1,36,0,10
1,28,107,18
1,28,0,60
1,28,107,97
1,28,0,60
1,28,107,117
1,28,0,60
1,28,107,117
1,28,0,60
1,33,107,55
1,33,0,60
1,35,107,99
1,35,0,464
1,35,107,24
1,35,0,45
1,30,106,10
1,30,0,401
1,35,107,73
1,35,0,8
1,35,107,22
1,35,0,9
1,35,107,21
1,35,0,10
1,35,107,20
1,35,0,9
1,35,107,21
1,35,0,8
1,35,107,22
1,35,0,8
1,35,107,22
1,35,0,9
1,35,107,21
1,35,0,8
1,35,107,22
1,35,0,9
1,35,107,21
1,35,0,9
1,35,107,21
1,35,0,9
1,35,107,21
1,35,0,9
1,35,107,21
1,35,0,8
1,35,107,22
1,35,0,9
1,35,107,21
1,35,0,9
1,35,107,21
1,35,0,10
1,35,107,20
1,35,0,9
1,35,107,21
1,35,0,10
1,35,107,20
1,35,0,10
1,35,107,20
1,35,0,10
1,35,107,20
1,35,0,10
1,35,107,20
1,35,0,8
1,35,107,22
1,35,0,11
1,35,107,19
1,35,0,10
1,35,107,20
1,35,0,9
1,35,107,21
1,35,0,8
1,35,107,22
1,35,0,10
1,35,107,20
1,35,0,10
1,35,107,20
1,35,0,11
1,35,107,19
1,35,0,8
1,35,107,22
1,35,0,9
1,35,107,21
1,35,0,9
1,35,107,21
1,35,0,11
1,35,107,19
1,35,0,10
1,35,107,20
1,35,0,11
1,35,107,19
1,35,0,9
1,35,107,21
1,35,0,10
1,35,107,20
1,35,0,8
1,35,107,22
1,35,0,11
1,35,107,19
1,35,0,9
1,35,107,21
1,35,0,10
1,35,107,20
1,35,0,9
1,35,107,21
1,35,0,9
1,35,107,21
1,35,0,9
1,35,107,21
1,35,0,10
1,35,107,20
1,35,0,11
1,35,107,19
1,35,0,10
1,35,107,20
1,35,0,10
1,35,107,20
1,35,0,10
1,35,107,20
1,35,0,10
1,35,107,20
1,35,0,10
1,35,107,20
1,35,0,9
1,35,107,21
1,35,0,9
1,35,107,21
1,35,0,10
1,35,107,20
1,35,0,11
1,35,107,19
1,35,0,8
1,35,107,22
1,35,0,9
1,35,107,21
1,35,0,10
1,35,107,20
1,35,0,10
1,35,107,20
1,35,0,10
1,35,107,20
1,35,0,8
1,35,107,22
1,35,0,10
1,35,107,20
1,35,0,11
1,35,107,19
1,35,0,9
1,35,107,21
1,35,0,10
1,35,107,20
1,35,0,10
1,35,107,20
1,35,0,10
1,35,107,20
1,35,0,10
1,35,107,20
1,35,0,10
1,35,107,20
1,35,0,11
1,35,107,19
1,35,0,11
1,35,107,19
1,35,0,11
1,35,107,19
1,35,0,11
1,35,107,19
1,35,0,11
1,35,107,19
1,35,0,10
1,35,107,20
1,35,0,11
1,35,107,19
1,35,0,11
1,35,107,19
1,35,0,10
1,35,107,20
1,35,0,11
1,35,107,19
1,35,0,11
1,35,107,19
1,35,0,11
1,35,107,19
1,35,0,11
1,35,107,19
1,35,0,10
1,35,107,20
1,35,0,11
1,35,107,19
1,35,0,11
1,35,107,19
1,35,0,11
1,35,107,19
1,35,0,10
1,35,107,20
1,35,0,10
1,35,107,20
1,35,0,11
1,35,107,19
1,35,0,9
1,35,107,21
1,35,0,11
1,35,107,19
1,35,0,10
1,35,107,20
1,35,0,9
1,35,107,21
1,35,0,11
1,35,107,19
1,35,0,10
1,35,107,20
1,35,0,9
1,35,107,21
1,35,0,9
1,35,107,21
1,35,0,10
1,35,107,20
1,35,0,10
1,35,107,20
1,35,0,10
1,35,107,20
1,35,0,9
1,35,107,21
1,35,0,8
1,35,107,22
1,36,107,30
1,35,0,2
1,36,0,20
1,36,107,8
1,36,0,13
1,36,107,17
1,36,0,9
1,36,107,21
1,36,0,11
1,36,107,19
1,36,0,10
1,36,107,20
1,36,0,11
1,36,107,19
1,36,0,10
1,36,107,20
1,36,0,10
1,36,107,20
1,36,0,11
1,36,107,19
1,36,0,12
1,36,107,18
1,36,0,10
1,36,107,20
1,36,0,12
1,36,107,18
1,36,0,10
1,36,107,20
1,36,0,11
1,36,107,19
1,36,0,11
1,36,107,19
1,36,0,11
1,36,107,19
1,36,0,11
1,36,107,19
1,36,0,11
1,36,107,19
1,36,0,12
1,36,107,18
1,36,0,12
1,36,107,18
1,36,0,11
1,36,107,19
1,36,0,11
1,36,107,19
1,36,0,12
1,36,107,18
1,36,0,11
1,36,107,19
1,36,0,11
1,36,107,19
1,36,0,12
1,36,107,18
1,36,0,11
1,36,107,19
1,36,0,12
1,36,107,18
1,36,0,11
1,36,107,19
1,36,0,10
1,36,107,20
1,36,0,11
1,36,107,19
1,36,0,13
1,36,107,17
1,36,0,12
1,36,107,18
1,36,0,12
1,36,107,18
1,36,0,12
1,36,107,18
1,36,0,12
1,36,107,18
1,36,0,11
1,36,107,19
1,36,0,13
1,36,107,17
1,36,0,11
1,36,107,19
1,36,0,12
1,36,107,18
1,36,0,12
1,36,107,18
1,36,0,13
1,36,107,17
1,36,0,12
1,36,107,18
1,36,0,11
1,36,107,19
1,36,0,11
1,36,107,19
1,36,0,11
1,36,107,19
1,36,0,11
1,36,107,19
1,36,0,12
1,36,107,18
1,36,0,12
1,36,107,18
1,36,0,13
1,36,107,17
1,36,0,13
1,36,107,17
1,36,0,13
1,36,107,17
1,36,0,11
1,36,107,19
1,36,0,12
1,36,107,18
1,36,0,10
1,36,107,20
1,36,0,11
1,36,107,19
1,36,0,11
1,36,107,19
1,36,0,11
1,36,107,19
1,36,0,11
1,36,107,19
1,36,0,11
1,36,107,19
1,36,0,10
1,36,107,20
1,36,0,11
1,36,107,19
1,36,0,11
1,36,107,19
1,36,0,10
1,36,107,20
1,36,0,29
1,35,107,1
1,35,0,16
1,35,107,14
1,35,0,10
1,35,107,20
1,35,0,10
1,35,107,20
1,35,0,10
1,35,107,20
1,35,0,10
1,35,107,20
1,35,0,9
1,35,107,21
1,35,0,10
1,35,107,20
1,35,0,11
1,35,107,19
1,35,0,11
1,35,107,19
1,35,0,10
1,35,107,20
1,35,0,11
1,35,107,19
1,35,0,10
1,35,107,20
1,35,0,11
1,35,107,19
1,35,0,11
1,35,107,19
1,35,0,12
1,35,107,18
1,35,0,10
1,30,107,20
1,30,0,10
1,30,107,20
1,30,0,10
1,30,107,20
1,30,0,10
1,30,107,20
1,30,0,10
1,30,107,20
1,30,0,10
1,30,107,20
1,30,0,9
1,30,107,21
1,35,107,30
1,30,0,10
1,35,0,1
1,35,107,19
1,35,0,10
1,35,107,20
1,35,0,9
1,35,107,21
1,35,0,10
1,35,107,20
1,35,0,10
1,35,107,20
1,35,0,10
1,35,107,20
1,35,0,10
1,35,107,20
1,35,0,11
1,35,107,19
1,35,0,10
1,35,107,20
1,35,0,11
1,35,107,19
1,35,0,10
1,35,107,20
1,35,0,10
1,35,107,20
1,35,0,9
1,35,107,21
1,35,0,10
