track,note,velocity,time
1,53,114,0
1,53,0,15
1,53,114,15
1,53,0,23
1,53,114,127
1,53,0,16
1,53,114,14
1,53,0,23
1,53,114,127
1,53,0,26
1,53,114,94
1,53,0,13
1,53,114,17
1,53,0,24
1,53,114,126
1,53,0,13
1,53,114,17
1,53,0,20
1,53,114,130
1,53,0,21
1,53,114,99
1,53,0,16
1,53,114,14
1,53,0,21
1,53,114,129
1,53,0,15
1,53,114,15
1,53,0,20
1,52,114,130
1,52,0,34
1,53,114,86
1,53,0,14
1,53,111,16
1,53,0,19
1,53,114,131
1,53,0,16
1,53,111,14
1,53,0,21
1,53,114,129
1,53,0,28
1,53,114,92
1,53,0,14
1,53,114,16
1,53,0,19
1,53,114,131
1,53,0,15
1,53,114,15
1,53,0,19
1,53,114,131
1,53,0,25
1,53,114,95
1,53,0,15
1,53,114,15
1,53,0,20
1,53,114,130
1,53,0,14
1,53,114,16
1,53,0,21
1,53,114,129
1,53,0,26
1,53,114,94
1,53,0,15
1,53,111,15
1,53,0,21
1,53,114,129
1,53,0,14
1,53,114,16
1,53,0,21
1,52,114,129
1,52,0,33
1,53,114,87
1,53,0,15
1,53,114,15
1,53,0,20
1,53,114,130
1,53,0,14
1,53,114,16
1,53,0,19
1,53,111,131
1,53,0,23
1,53,114,97
1,53,0,13
1,53,111,17
1,53,0,16
1,53,114,134
1,53,0,14
1,53,111,16
1,53,0,20
1,53,114,130
1,53,0,25
1,53,114,95
1,53,0,14
1,53,114,16
1,53,0,16
1,53,114,134
1,53,0,14
1,53,114,16
1,53,0,19
1,53,114,131
1,53,0,25
1,53,114,95
1,53,0,14
1,53,114,16
1,53,0,18
1,53,114,132
1,53,0,15
1,53,114,15
1,53,0,18
1,53,114,132
1,53,0,27
1,53,114,93
1,53,0,13
1,53,114,17
1,53,0,18
1,53,114,132
1,53,0,14
1,53,114,16
1,53,0,18
1,53,114,132
1,53,0,23
1,53,114,97
1,53,0,14
1,53,114,16
1,53,0,16
1,53,114,134
1,53,0,14
1,53,114,16
1,53,0,19
1,53,114,131
1,53,0,22
1,53,108,98
1,53,0,14
1,53,85,16
1,53,0,16
1,53,102,134
1,53,0,13
1,53,98,17
1,53,0,14
1,53,98,136
1,53,0,17
1,53,111,103
1,53,0,13
1,53,88,17
1,53,0,15
1,53,111,135
1,53,0,14
1,53,102,16
1,53,0,15
1,53,108,135
1,53,0,18
1,53,102,102
1,53,0,13
1,53,93,17
1,53,0,16
1,53,111,134
1,53,0,14
1,53,98,16
1,53,0,16
1,52,111,134
1,52,0,24
1,53,98,96
1,53,0,14
1,53,98,16
1,53,0,16
1,53,108,134
1,53,0,13
1,53,98,17
1,53,0,18
1,53,108,132
1,53,0,22
1,53,114,98
1,53,0,13
1,53,93,17
1,53,0,15
1,53,108,135
1,53,0,14
1,53,102,16
1,53,0,16
1,53,111,134
1,53,0,19
1,53,108,101
1,53,0,14
1,53,102,16
1,53,0,17
1,53,102,133
1,53,0,13
1,53,88,17
1,53,0,19
1,53,108,131
1,53,0,23
1,53,102,97
1,53,0,14
1,53,88,16
1,53,0,19
1,53,93,131
1,53,0,13
1,53,93,17
1,53,0,17
1,52,111,133
1,52,0,24
1,53,102,96
1,53,0,14
1,53,98,16
1,53,0,19
1,53,111,131
1,53,0,14
1,53,98,16
1,53,0,18
1,53,111,132
1,53,0,17
1,53,111,103
1,53,0,14
1,53,102,16
1,53,0,14
1,53,102,136
1,53,0,14
1,53,102,16
1,53,0,15
1,53,108,135
1,53,0,18
1,53,102,102
1,53,0,14
1,53,98,16
1,53,0,16
1,53,108,134
1,53,0,13
1,53,93,17
1,53,0,19
1,53,102,131
1,53,0,22
1,53,108,98
1,53,0,14
1,53,85,16
1,53,0,15
1,53,102,135
1,53,0,14
1,53,102,16
1,53,0,17
1,53,108,133
1,53,0,19
1,53,108,101
1,53,0,14
1,53,98,16
1,53,0,20
1,53,108,130
1,53,0,14
1,53,98,16
1,53,0,18
1,53,108,132
1,53,0,21
1,53,108,99
1,53,0,14
1,53,93,16
1,53,0,17
1,53,108,133
1,53,0,13
1,53,98,17
1,53,0,18
1,53,111,132
1,53,0,20
1,53,111,100
1,53,0,14
1,53,93,16
1,53,0,17
1,53,108,133
1,53,0,14
1,53,102,16
1,53,0,19
1,52,114,131
1,52,0,39
1,50,111,81
1,50,0,477
2,77,70,0
2,81,70,0
2,57,78,0
2,60,68,0
2,60,0,468
2,58,64,2
2,61,63,4
2,57,0,5
2,77,0,459
2,81,0,15
2,77,73,5
2,80,78,1
2,77,0,345
2,76,70,10
2,76,0,107
2,80,0,10
2,58,0,6
2,77,71,3
2,60,39,1
2,57,56,0
2,72,78,1
2,61,0,4
2,60,0,439
2,57,0,1
2,77,0,1
2,72,0,2
2,77,63,25
2,81,68,1
2,60,70,0
2,57,78,0
2,60,0,478
2,58,64,0
2,61,66,6
2,57,0,3
2,77,0,464
2,77,80,14
2,80,78,1
2,81,0,3
2,76,73,232
2,77,0,1
2,76,0,217
2,77,66,17
2,60,46,1
2,57,61,2
2,72,73,0
2,58,0,1
2,80,0,1
2,61,0,3
2,77,0,367
2,72,0,4
2,60,0,1
2,57,0,3
2,72,62,102
2,69,65,1
2,53,71,0
2,57,70,1
2,72,0,214
2,72,73,24
2,75,71,1
2,69,0,1
2,72,0,215
2,75,0,13
2,57,0,11
2,73,67,0
2,70,78,0
2,58,73,2
2,70,0,345
2,73,0,1
2,70,78,12
2,75,73,0
2,55,78,0
2,53,0,6
2,75,0,106
2,70,0,5
2,72,56,1
2,57,68,2
2,53,73,1
2,69,73,0
2,58,0,5
2,55,0,1
2,72,0,218
2,72,68,11
2,69,0,2
2,75,74,2
2,75,0,222
2,72,0,1
2,70,67,12
2,73,78,1
2,58,74,1
2,57,0,5
2,73,0,341
2,70,0,2
2,75,68,13
2,70,78,0
2,55,76,0
2,53,0,5
2,75,0,109
2,70,0,4
2,72,78,1
2,57,73,1
2,69,67,0
2,53,73,3
2,58,0,4
2,55,0,2
2,72,0,377
2,69,0,2
2,53,0,7
2,57,0,7
2,57,55,0
2,81,54,1
2,77,56,0
2,60,52,1
2,57,0,443
2,60,0,31
2,58,59,8
2,61,55,0
2,80,49,478
2,81,0,8
2,76,62,355
2,77,0,6
2,80,0,9
2,58,0,95
2,57,59,5
2,72,65,0
2,60,44,0
2,77,56,4
2,76,0,9
2,61,0,5
2,72,0,399
2,77,0,1
2,57,0,5
2,60,0,1
2,57,61,56
2,81,55,0
2,60,56,1
2,77,62,0
2,58,57,474
2,61,29,4
2,60,0,4
2,57,0,0
2,58,0,457
2,61,0,1
2,77,0,2
2,77,60,20
2,58,67,1
2,80,56,1
2,61,53,1
2,81,0,15
2,76,63,223
2,77,0,3
2,76,0,207
2,60,52,22
2,80,0,3
2,77,56,0
2,57,62,1
2,58,0,2
2,72,63,1
2,61,0,7
2,77,0,406
2,72,0,6
2,60,0,5
2,57,0,2
2,53,44,0
2,72,60,0
2,57,68,0
2,69,63,1
2,75,74,238
2,69,0,4
2,72,0,214
2,75,0,10
2,73,67,13
2,70,91,0
2,58,66,2
2,57,0,1
2,70,0,343
2,73,0,0
2,75,62,10
2,70,80,1
2,55,67,2
2,53,0,3
2,75,0,113
2,72,57,2
2,70,0,3
2,57,70,0
2,69,64,1
2,53,66,2
2,55,0,4
2,58,0,1
2,75,68,230
2,75,0,221
2,72,0,2
2,70,63,15
2,69,0,1
2,73,68,0
2,58,71,0
2,57,0,2
2,75,78,357
2,55,74,2
2,73,0,2
2,53,0,6
2,75,0,112
2,72,66,2
2,69,67,2
2,57,63,2
2,70,0,2
2,53,78,1
2,58,0,1
2,55,0,7
2,70,71,0
2,75,80,2
2,72,0,2
2,69,0,1
2,58,78,0
2,57,0,5
2,75,0,94
2,53,0,9
2,74,74,7
2,65,56,1
2,53,60,2
2,62,58,0
2,62,0,297
2,58,0,2
2,53,0,1
2,65,0,39
2,74,0,6
2,70,0,1
2,48,1,0
2,76,62,3
2,72,65,1
2,60,49,1
2,67,71,1
2,76,0,92
2,72,0,11
2,67,0,4
2,48,0,4
2,60,0,6
2,74,74,0
2,66,63,2
2,69,73,0
2,50,67,1
2,62,59,3
2,60,65,2
2,60,0,33
2,69,0,452
2,66,0,1
2,74,0,1
2,62,0,6
2,50,0,3
3,65,95,3
3,60,82,0
3,69,91,1
3,60,0,469
3,58,109,2
3,61,88,0
3,68,114,484
3,69,0,3
3,65,0,350
3,64,71,4
3,60,42,116
3,58,0,1
3,61,0,2
3,65,98,0
3,57,62,4
3,68,0,1
3,64,0,3
3,65,0,445
3,60,0,1
3,57,0,0
3,60,76,37
3,65,95,0
3,69,88,1
3,60,0,464
3,58,95,7
3,61,95,0
3,68,73,472
3,69,0,4
3,65,0,239
3,64,74,1
3,58,0,245
3,57,52,1
3,65,73,1
3,61,0,2
3,60,71,2
3,64,0,3
3,68,0,0
3,57,0,465
3,65,0,0
3,60,0,0
3,57,78,8
3,53,74,0
3,60,60,1
3,63,88,237
3,61,66,237
3,58,61,2
3,63,0,4
3,57,0,1
3,60,0,1
3,53,0,337
3,61,0,6
3,63,88,10
3,55,91,1
3,63,0,110
3,58,0,1
3,55,0,1
3,60,91,12
3,53,88,1
3,57,98,0
3,63,80,233
3,57,0,226
3,60,0,0
3,63,0,2
3,58,80,14
3,61,88,1
3,53,0,336
3,61,0,9
3,63,88,10
3,55,85,1
3,55,0,106
3,63,0,0
3,58,0,0
3,53,71,13
3,57,80,1
3,60,71,1
3,60,0,373
3,57,0,0
3,53,0,0
3,69,82,0
3,65,91,1
3,60,80,0
3,58,67,476
3,61,66,0
3,60,0,8
3,65,0,1
3,68,67,473
3,65,71,1
3,69,0,7
3,65,0,352
3,64,71,2
3,58,0,118
3,65,82,5
3,61,0,2
3,57,53,2
3,60,63,1
3,64,0,2
3,68,0,0
3,65,0,445
3,60,0,4
3,57,0,2
3,65,65,21
3,60,57,1
3,69,64,1
3,61,57,476
3,58,61,1
3,60,0,1
3,68,68,476
3,69,0,4
3,64,67,230
3,65,0,4
3,58,0,236
3,61,0,1
3,60,57,3
3,65,67,0
3,57,58,4
3,68,0,3
3,64,0,1
3,65,0,453
3,60,0,1
3,57,0,1
3,60,73,0
3,57,73,1
3,59,76,0
3,53,76,1
3,55,64,1
3,55,0,9
3,59,0,3
3,63,67,217
3,57,0,220
3,60,0,3
3,63,0,5
3,58,78,14
3,61,68,1
3,53,0,338
3,61,0,5
3,55,70,13
3,63,74,1
3,63,0,101
3,55,0,7
3,58,0,1
3,57,78,10
3,53,61,1
3,60,70,0
3,63,71,240
3,60,0,217
3,57,0,0
3,63,0,1
3,58,78,19
3,61,68,1
3,53,0,341
3,61,0,6
3,55,62,15
3,63,74,1
3,63,0,103
3,58,0,5
3,55,0,1
3,53,68,12
3,60,73,0
3,57,80,2
3,63,78,358
3,63,0,104
3,57,0,3
3,60,0,1
3,53,0,6
3,58,73,0
3,53,57,1
3,62,82,0
3,53,0,342
3,62,0,1
3,58,0,1
3,55,80,13
3,64,85,0
3,60,74,2
3,60,0,104
3,64,0,0
3,55,0,4
3,62,82,16
3,54,73,2
3,57,78,1
3,54,0,500
3,57,0,1
3,62,0,0
4,41,127,0
4,41,0,13
4,41,127,17
4,41,0,19
4,41,127,131
4,41,0,14
4,41,124,16
4,41,0,18
4,41,127,132
4,41,0,26
4,41,127,94
4,41,0,14
4,41,127,16
4,41,0,17
4,41,127,133
4,41,0,13
4,41,127,17
4,41,0,15
4,41,127,135
4,41,0,17
4,41,127,103
4,41,0,13
4,41,127,17
4,41,0,17
4,41,127,133
4,41,0,13
4,41,124,17
4,41,0,16
4,40,127,134
4,40,0,36
4,41,127,84
4,41,0,13
4,41,124,17
4,41,0,15
4,41,127,135
4,41,0,14
4,41,124,16
4,41,0,15
4,41,127,135
4,41,0,20
4,41,127,100
4,41,0,14
4,41,124,16
4,41,0,15
4,41,127,135
4,41,0,13
4,41,127,17
4,41,0,16
4,41,127,134
4,41,0,20
4,41,127,100
4,41,0,14
4,41,124,16
4,41,0,16
4,41,127,134
4,41,0,13
4,41,124,17
4,41,0,16
4,41,127,134
4,41,0,22
4,41,127,98
4,41,0,13
4,41,124,17
4,41,0,17
4,41,127,133
4,41,0,13
4,41,124,17
4,41,0,17
4,40,127,133
4,40,0,17
4,41,127,103
4,41,0,14
4,41,124,16
4,41,0,17
4,41,124,133
4,41,0,14
4,41,120,16
4,41,0,18
4,41,127,132
4,41,0,21
4,41,124,99
4,41,0,14
4,41,120,16
4,41,0,16
4,41,120,134
4,41,0,13
4,41,124,17
4,41,0,18
4,41,127,132
4,41,0,26
4,41,124,94
4,41,0,14
4,41,120,16
4,41,0,16
4,41,124,134
4,41,0,14
4,41,124,16
4,41,0,17
4,41,124,133
4,41,0,19
4,41,124,101
4,41,0,15
4,41,124,15
4,41,0,17
4,41,124,133
4,41,0,15
4,41,124,15
4,41,0,17
4,41,124,133
4,41,0,20
4,41,127,100
4,41,0,13
4,41,114,17
4,41,0,20
4,41,124,130
4,41,0,14
4,41,120,16
4,41,0,16
4,41,127,134
4,41,0,25
4,41,127,95
4,41,0,13
4,41,120,17
4,41,0,15
4,41,127,135
4,41,0,13
4,41,120,17
4,41,0,16
4,41,124,134
4,41,0,25
4,41,120,95
4,41,0,14
4,41,104,16
4,41,0,16
4,41,109,134
4,41,0,13
4,41,114,17
4,41,0,17
4,41,120,133
4,41,0,21
4,41,114,99
4,41,0,14
4,41,91,16
4,41,0,16
4,41,114,134
4,41,0,14
4,41,104,16
4,41,0,16
4,41,114,134
4,41,0,23
4,41,109,97
4,41,0,14
4,41,104,16
4,41,0,15
4,41,120,135
4,41,0,13
4,41,109,17
4,41,0,17
4,40,91,133
4,40,0,65
4,41,109,55
4,41,0,13
4,41,95,17
4,41,0,17
4,41,114,133
4,41,0,14
4,41,104,16
4,41,0,17
4,41,114,133
4,41,0,24
4,41,120,96
4,41,0,14
4,41,95,16
4,41,0,16
4,41,98,134
4,41,0,14
4,41,95,16
4,41,0,16
4,41,104,134
4,41,0,28
4,41,98,92
4,41,0,16
4,41,88,14
4,41,0,17
4,41,109,133
4,41,0,15
4,41,98,15
4,41,0,16
4,41,98,134
4,41,0,21
4,41,104,99
4,41,0,15
4,41,85,15
4,41,0,17
4,41,109,133
4,41,0,14
4,41,95,16
4,41,0,17
4,40,124,133
4,40,0,23
4,41,120,97
4,41,0,14
4,41,95,16
4,41,0,16
4,41,114,134
4,41,0,14
4,41,104,16
4,41,0,17
4,41,120,133
4,41,0,22
4,41,120,98
4,41,0,13
4,41,95,17
4,41,0,18
4,41,114,132
4,41,0,14
4,41,104,16
4,41,0,15
4,41,114,135
4,41,0,25
4,41,120,95
4,41,0,14
4,41,95,16
4,41,0,17
4,41,120,133
4,41,0,14
4,41,104,16
4,41,0,18
4,41,114,132
4,41,0,20
4,41,114,100
4,41,0,12
4,41,98,18
4,41,0,15
4,41,114,135
4,41,0,14
4,41,114,16
4,41,0,15
4,41,114,135
4,41,0,22
4,41,114,98
4,41,0,14
4,41,104,16
4,41,0,16
4,41,114,134
4,41,0,13
4,41,91,17
4,41,0,17
4,41,120,133
4,41,0,18
4,41,120,102
4,41,0,12
4,41,95,18
4,41,0,17
4,41,114,133
4,41,0,13
4,41,109,17
4,41,0,17
4,41,114,133
4,41,0,23
4,41,120,97
4,41,0,13
4,41,98,17
4,41,0,16
4,41,120,134
4,41,0,13
4,41,109,17
4,41,0,16
4,40,124,134
4,40,0,89
4,38,124,31
4,38,0,493
5,69,90,0
5,65,90,0
5,60,90,0
5,61,90,478
5,58,90,0
5,60,0,1
5,68,90,477
5,69,0,14
5,65,0,335
5,64,90,9
5,58,0,104
5,61,0,10
5,65,90,8
5,60,90,0
5,57,90,3
5,68,0,3
5,64,0,3
5,65,0,420
5,60,0,2
5,57,0,0
5,65,90,49
5,60,90,1
5,69,90,1
5,61,90,476
5,60,0,1
5,58,90,0
