track,note,velocity,time
1,66,125,49970
1,71,125,10
1,71,125,20
1,73,125,10
1,71,125,120
1,75,125,50
1,76,125,10
1,78,125,40
1,66,125,50
1,71,125,20
1,63,125,290
1,66,125,10
1,66,125,140
1,71,125,10
1,75,125,280
1,73,125,10
1,71,125,10
1,75,125,40
1,71,125,10
1,68,125,1850
1,71,125,10
1,68,125,20
1,69,125,10
1,71,125,10
1,69,125,10
1,66,125,380
1,71,125,10
1,71,125,140
1,71,125,10
1,66,125,20
1,71,125,10
1,72,125,20
1,71,125,20
1,69,125,380
1,67,125,10
1,67,125,10
1,69,125,20
1,71,125,140
1,78,125,10
1,76,125,20
1,76,125,10
1,74,125,20
1,73,125,10
1,66,125,1850
1,71,125,10
1,71,125,20
1,73,125,10
1,71,125,120
1,75,125,50
1,76,125,10
1,78,125,40
1,66,125,50
1,71,125,20
1,63,125,290
1,66,125,10
1,66,125,140
1,71,125,10
1,75,125,280
1,73,125,10
1,71,125,10
1,75,125,40
1,71,125,10
1,68,125,1850
1,71,125,10
1,68,125,20
1,69,125,10
1,71,125,10
1,69,125,10
1,66,125,380
1,71,125,10
1,71,125,140
1,71,125,10
1,66,125,20
1,71,125,10
1,72,125,20
1,71,125,20
1,69,125,380
1,67,125,10
1,67,125,10
1,69,125,20
1,71,125,140
1,78,125,10
1,76,125,20
1,76,125,10
1,74,125,20
1,73,125,10
1,68,127,1250
1,71,127,20
1,68,127,70
1,66,127,20
1,68,127,10
1,69,127,610
1,71,127,10
1,68,127,70
1,66,127,20
1,66,127,290
1,68,127,10
1,70,127,10
1,65,127,70
1,63,127,10
1,66,127,490
1,68,127,20
1,70,127,20
1,65,127,70
1,63,127,20
1,70,127,50
1,67,127,20
1,70,127,20
1,72,127,50
1,71,127,50
1,72,127,40
1,72,127,10
1,67,127,70
1,67,127,10
1,72,127,290
1,72,127,20
1,67,127,70
1,67,127,10
1,72,127,410
1,73,127,10
1,68,127,70
1,68,127,20
1,73,127,290
1,73,127,20
1,66,127,70
1,66,127,20
1,73,127,530
1,75,127,70
1,71,127,10
1,73,127,70
1,66,127,10
1,71,127,380
1,70,127,20
1,68,127,50
1,71,127,1370
1,70,127,10
1,71,127,10
1,73,127,20
1,75,127,170
1,76,127,20
1,78,127,10
1,66,127,50
1,71,127,10
1,63,127,290
1,66,127,20
1,67,127,50
1,71,127,20
1,74,127,20
1,73,127,50
1,71,127,50
1,71,125,211370
1,71,125,10
1,71,125,20
1,73,125,10
1,75,125,10
1,76,125,280
1,78,125,10
1,66,125,50
1,71,125,20
1,63,125,290
1,66,125,20
1,66,125,50
1,71,125,20
1,74,125,20
1,73,125,40
1,73,125,10
1,75,125,10
1,71,125,130
1,68,125,1850
1,71,125,10
1,68,125,20
1,69,125,10
1,71,125,10
1,69,125,20
1,66,125,370
1,71,125,10
1,71,125,140
1,71,125,10
1,66,125,20
1,71,125,10
1,72,125,10
1,71,125,20
1,69,125,140
1,67,125,10
1,67,125,20
1,69,125,10
1,71,125,1
1,78,125,121
1,76,125,20
1,76,125,20
1,74,125,20
1,73,125,10
1,71,127,1850
1,71,127,10
1,71,127,20
1,73,127,10
1,75,127,210
1,76,127,20
1,78,127,20
1,66,127,50
1,71,127,20
1,63,127,290
1,66,127,20
1,66,127,20
1,71,127,50
1,74,127,20
1,73,127,50
1,71,127,40
1,71,127,10
2,47,100,44900
2,45,100,100
2,44,100,100
2,42,100,100
2,43,100,100
2,44,100,50
2,42,100,50
2,49,100,50
2,51,100,20
2,47,100,20
2,47,100,70
2,47,100,10
2,47,100,10
2,47,100,10
2,47,100,10
2,47,100,10
2,47,100,10
2,40,100,20
2,40,100,50
2,52,100,50
2,50,100,100
2,52,100,100
2,52,100,70
2,43,100,20
2,43,100,70
2,44,100,20
2,44,100,70
2,46,100,20
2,46,100,100
2,47,100,10
2,49,100,10
2,49,100,10
2,47,100,10
2,46,100,10
2,47,100,20
2,45,100,100
2,44,100,100
2,42,100,100
2,43,100,100
2,44,100,50
2,42,100,50
2,49,100,50
2,51,100,20
2,47,100,20
2,47,100,70
2,47,100,10
2,47,100,10
2,47,100,10
2,47,100,10
2,47,100,10
2,47,100,10
2,40,100,20
2,40,100,50
2,52,100,50
2,50,100,100
2,52,100,100
2,52,100,70
2,43,100,20
2,43,100,70
2,44,100,20
2,44,100,70
2,46,100,20
2,61,80,0
2,58,80,0
2,54,80,0
2,70,80,0
2,65,80,0
2,54,80,0
2,58,80,0
2,70,80,0
2,61,80,0
2,65,80,0
2,58,80,10
2,65,80,0
2,54,80,0
2,61,80,0
2,70,80,0
2,54,80,0
2,65,80,0
2,58,80,0
2,70,80,0
2,61,80,0
2,65,100,0
2,61,100,0
2,70,100,0
2,54,100,0
2,58,100,0
2,61,100,0
2,58,100,0
2,70,100,0
2,65,100,0
2,54,100,0
2,70,100,0
2,58,100,0
2,61,100,0
2,65,100,0
2,54,100,0
2,70,100,0
2,61,100,0
2,58,100,0
2,54,100,0
2,65,100,0
2,58,100,0
2,61,100,0
2,65,100,0
2,54,100,0
2,70,100,0
2,54,100,10
2,58,100,0
2,70,100,0
2,61,100,0
2,65,100,0
2,61,100,10
2,65,100,0
2,54,100,0
2,58,100,0
2,70,100,0
2,65,100,10
2,61,100,0
2,58,100,0
2,70,100,0
2,54,100,0
2,58,100,10
2,61,100,0
2,65,100,0
2,54,100,0
2,70,100,0
2,61,100,10
2,70,100,0
2,58,100,0
2,65,100,0
2,54,100,0
2,65,100,10
2,58,100,0
2,54,100,0
2,61,100,0
2,70,100,0
2,54,100,10
2,58,100,0
2,65,100,0
2,70,100,0
2,61,100,0
2,65,100,10
2,58,100,0
2,54,100,0
2,70,100,0
2,61,100,0
2,47,100,30
2,45,100,100
2,44,100,100
2,42,100,100
2,43,100,100
2,45,100,100
2,70,100,80500
2,70,100,10
2,70,100,10
2,70,100,10
2,65,100,40
2,63,100,40
2,63,100,10
2,65,100,10
2,63,100,10
2,62,100,10
2,58,100,10
2,78,100,20
2,71,100,20
2,67,100,290
2,62,100,50
2,52,100,140
2,55,100,40
2,54,100,120
2,62,100,140
2,64,100,0
2,62,100,0
2,64,100,0
2,62,100,80
2,64,100,0
2,64,100,0
2,62,100,80
2,64,100,80
2,57,100,40
2,54,100,120
2,57,100,140
2,59,100,0
2,57,100,60
2,59,100,0
2,57,100,80
2,59,100,0
2,59,100,0
2,57,100,80
2,59,100,80
2,50,100,50
2,62,100,140
2,64,100,60
2,62,100,40
2,64,100,0
2,62,100,80
2,64,100,0
2,62,100,0
2,64,100,80
2,66,100,50
2,71,100,50
2,62,100,50
2,64,100,50
2,66,100,20
2,67,100,120
2,59,100,10
2,62,100,140
2,59,100,140
2,62,100,10
2,59,100,10
2,62,100,10
2,64,100,20
2,66,100,70
2,67,100,80
2,69,100,60
2,71,100,10
2,72,100,460
2,71,100,80
2,69,100,80
2,71,100,10
2,74,100,100
2,76,100,50
2,78,100,50
2,78,100,140
2,79,100,3840
2,78,100,140
2,79,100,240
2,78,100,20
2,71,100,50
2,72,100,480
2,66,100,50
2,67,100,480
2,67,100,1180
2,71,100,20
2,71,100,50
2,72,100,20
2,69,100,20
2,72,100,20
2,67,100,20
2,72,100,20
2,66,100,20
2,72,100,20
2,64,100,20
2,67,100,20
2,71,100,240
2,76,100,20
2,75,100,20
2,71,100,70
2,69,100,120
2,71,100,10
2,62,100,10
2,64,100,20
2,66,100,240
2,64,100,20
2,60,100,20
2,62,100,20
2,64,100,20
2,63,100,20
2,64,100,20
2,66,100,20
2,67,100,20
2,69,100,20
2,71,100,20
2,72,100,20
2,74,100,10
2,76,100,10
2,78,100,20
2,79,100,480
2,78,100,100
2,79,100,240
2,78,100,20
2,71,100,50
2,72,100,480
2,66,100,50
2,67,100,480
2,67,100,1180
2,71,100,20
2,71,100,50
2,72,100,20
2,69,100,20
2,72,100,20
2,67,100,20
2,72,100,20
2,66,100,20
2,72,100,20
2,64,100,20
2,67,100,20
2,71,100,240
2,76,100,20
2,75,100,20
2,71,100,70
2,69,100,120
2,71,100,10
2,62,100,340
2,64,100,20
2,66,100,240
2,64,100,20
2,60,100,20
2,62,100,20
2,64,100,20
2,63,100,20
2,59,100,190
2,67,100,70
2,66,100,20
2,69,100,70
2,60,100,20
2,71,100,70
2,69,100,120
2,69,100,10
2,62,100,310
2,59,100,10
2,55,100,10
2,57,100,10
2,54,100,10
2,50,100,10
2,57,100,10
2,59,100,20
2,64,100,50
2,66,100,20
2,67,100,120
2,69,100,10
2,71,100,20
2,74,100,140
2,76,100,360
2,74,100,10
2,57,100,140
2,58,100,360
2,57,100,10
2,59,100,140
2,57,100,40
2,57,100,10
2,57,100,100
2,63,100,260
2,62,100,100
2,64,100,10
2,66,100,10
2,67,100,10
2,69,100,10
2,71,100,10
2,72,100,10
2,74,100,10
2,76,100,10
2,74,100,10
2,76,100,10
2,78,100,10
2,78,100,10
2,79,100,240
2,78,100,50
2,79,100,240
2,78,100,20
2,71,100,50
2,72,100,480
2,66,100,50
2,67,100,480
2,67,100,1180
2,71,100,20
2,71,100,50
2,72,100,20
2,69,100,20
2,72,100,20
2,67,100,20
2,72,100,20
2,66,100,20
2,72,100,20
2,64,100,20
2,67,100,20
2,71,100,240
2,76,100,20
2,75,100,20
2,71,100,70
2,69,100,120
2,71,100,10
2,62,100,340
2,64,100,20
2,66,100,240
2,64,100,20
2,60,100,20
2,62,100,20
2,64,100,20
2,63,100,20
2,64,100,1920
2,64,100,140
2,55,100,240
2,57,100,40
2,59,100,10
2,64,100,790
2,55,100,480
2,57,100,40
2,59,100,10
2,64,100,140
2,66,100,20
2,66,100,20
2,67,100,360
2,67,100,10
2,66,100,70
2,67,100,20
2,66,100,120
2,67,100,10
2,76,100,140
2,43,100,190
2,44,100,100
2,46,100,100
2,46,100,100
2,47,100,10
2,49,100,10
2,49,100,10
2,47,100,10
2,46,100,10
2,47,100,20
2,45,100,100
2,44,100,100
2,42,100,100
2,43,100,100
2,44,100,50
2,42,100,50
2,49,100,50
2,51,100,20
2,47,100,20
2,47,100,70
2,47,100,10
2,47,100,10
2,47,100,10
2,47,100,10
2,47,100,10
2,47,100,10
2,40,100,20
2,40,100,50
2,52,100,50
2,50,100,100
2,51,100,100
2,52,100,50
2,43,100,50
2,43,100,70
2,44,100,20
2,44,100,70
2,46,100,20
2,46,100,100
2,47,100,10
2,49,100,10
2,49,100,10
2,47,100,10
2,46,100,10
2,47,100,20
2,45,100,100
2,44,100,100
2,42,100,100
2,43,100,100
2,43,100,20
2,44,100,20
2,42,100,50
2,57,100,50
2,59,100,20
2,47,100,20
3,66,80,49560
3,63,80,0
3,59,80,0
3,57,80,960
3,59,80,0
3,56,80,0
3,64,80,0
3,63,80,960
3,64,80,0
3,58,80,1440
3,66,80,0
3,57,80,0
3,64,80,0
3,63,80,960
3,59,80,0
3,64,80,0
3,56,80,0
3,66,80,0
3,57,80,0
3,64,80,0
3,61,80,0
3,62,80,0
3,59,80,0
3,60,80,0
3,64,80,0
3,67,80,0
3,67,80,0
3,62,80,0
3,59,80,0
3,68,80,0
3,64,80,0
3,59,80,0
3,64,80,0
3,67,80,0
3,70,80,0
3,66,80,0
3,63,80,0
3,59,80,0
3,57,80,960
3,59,80,0
3,56,80,0
3,64,80,0
3,63,80,960
3,64,80,0
3,58,80,1440
3,57,80,0
3,66,80,0
3,64,80,0
3,63,80,960
3,64,80,0
3,56,80,0
3,59,80,0
3,66,80,0
3,64,80,0
3,57,80,0
3,61,80,0
3,62,80,0
3,59,80,0
3,67,80,0
3,60,80,0
3,64,80,0
3,67,80,0
3,59,80,0
3,62,80,0
3,59,80,0
3,64,80,0
3,68,80,0
3,70,80,0
3,67,80,0
3,64,80,0
3,64,80,0
3,56,80,0
3,59,80,0
3,61,80,960
3,57,80,0
3,59,80,0
3,56,80,0
3,63,80,0
3,57,80,960
3,61,80,0
3,58,80,0
3,61,80,0
3,65,80,0
3,59,80,960
3,63,80,0
3,66,80,0
3,65,80,0
3,58,80,0
3,62,80,0
3,63,80,960
3,66,80,0
3,59,80,0
3,67,80,0
3,75,80,0
3,70,80,0
3,72,80,0
3,69,80,0
3,77,80,0
3,71,80,0
3,74,80,0
3,79,80,0
3,74,80,40
3,77,80,0
3,70,80,0
3,72,80,0
3,79,80,0
3,75,80,0
3,80,80,0
3,76,80,0
3,71,80,0
3,71,80,0
3,75,80,0
3,78,80,0
3,80,80,0
3,71,80,0
3,76,80,0
3,71,80,0
3,75,80,0
3,78,80,0
3,70,80,0
3,73,80,0
3,66,80,0
3,77,80,0
3,66,80,0
3,63,80,0
3,59,80,0
3,57,80,0
3,59,80,960
3,64,80,0
3,56,80,0
3,63,80,0
3,64,80,960
3,67,80,0
3,62,80,0
3,59,80,480
3,62,100,55200
3,58,100,0
3,65,100,0
3,63,100,50
3,70,100,0
3,65,100,0
3,65,100,20
3,70,100,0
3,62,100,0
3,63,100,20
3,58,100,0
3,67,100,0
3,62,100,40
3,65,100,0
3,58,100,0
3,58,100,20
3,61,100,0
3,67,100,0
3,63,100,40
3,67,100,0
3,58,100,0
3,64,100,40
3,60,100,0
3,63,100,20
3,60,100,0
3,67,100,0
3,60,100,20
3,69,100,0
3,65,100,0
3,70,100,50
3,67,100,0
3,63,100,0
3,61,100,50
3,70,100,0
3,65,100,0
3,72,100,40
3,65,100,0
3,70,100,0
3,70,100,40
3,63,100,0
3,66,100,0
3,66,100,40
3,70,100,0
3,63,100,0
3,63,100,20
3,68,100,0
3,72,100,0
3,65,100,20
3,58,100,0
3,62,100,0
3,63,100,50
3,65,100,0
3,70,100,0
3,65,100,20
3,70,100,0
3,62,100,0
3,58,100,20
3,63,100,0
3,67,100,0
3,58,100,40
3,65,100,0
3,62,100,0
3,67,100,40
3,61,100,0
3,58,100,0
3,63,100,40
3,67,100,0
3,58,100,0
3,64,100,40
3,60,100,0
3,67,100,20
3,60,100,0
3,63,100,0
3,60,100,20
3,69,100,0
3,65,100,0
3,67,100,50
3,63,100,0
3,70,100,0
3,65,100,50
3,70,100,0
3,61,100,0
3,70,100,40
3,72,100,0
3,65,100,0
3,63,100,40
3,70,100,0
3,66,100,0
3,66,100,40
3,63,100,0
3,70,100,0
3,63,100,20
3,72,100,0
3,68,100,0
3,65,100,20
3,70,100,0
3,62,100,0
3,58,100,20
3,63,100,0
3,67,100,0
3,65,100,20
3,58,100,0
3,62,100,0
3,63,100,20
3,72,100,0
3,68,100,0
3,68,100,250
3,63,100,0
3,72,100,0
3,63,100,250
3,68,100,0
3,72,100,0
3,68,100,250
3,72,100,0
3,63,100,0
3,63,100,130
3,68,100,0
3,72,100,0
3,72,100,130
3,68,100,0
3,63,100,0
3,63,100,250
3,72,100,0
3,68,100,0
3,68,100,250
3,72,100,0
3,63,100,0
3,63,100,250
3,68,100,0
3,72,100,0
3,63,100,130
3,72,100,0
3,68,100,0
3,72,100,130
3,63,100,0
3,68,100,0
3,63,100,250
3,68,100,0
3,72,100,0
3,68,100,250
3,63,100,0
3,72,100,0
3,63,100,250
3,68,100,0
3,72,100,0
3,63,100,130
3,72,100,0
3,68,100,0
3,63,100,130
3,68,100,0
3,72,100,0
3,68,100,250
3,63,100,0
3,72,100,0
3,72,100,250
3,63,100,0
3,68,100,0
3,72,100,250
3,68,100,0
3,63,100,0
3,63,100,130
3,68,100,0
3,72,100,0
3,63,100,130
3,59,100,0
3,68,100,0
3,60,100,360
3,67,100,0
3,65,100,0
3,67,100,360
3,68,100,220
3,70,100,220
3,61,100,10
3,71,100,0
3,64,100,0
3,63,100,360
3,70,100,0
3,61,100,0
3,68,100,340
3,70,100,340
3,71,100,220
3,73,100,220
3,62,100,20
3,74,100,0
3,66,100,0
3,65,100,360
3,73,100,0
3,71,100,340
3,72,100,340
3,74,100,220
3,76,100,220
3,67,100,20
3,71,100,0
3,78,100,0
3,70,100,360
3,76,100,0
3,74,100,340
3,76,100,0
3,67,100,0
3,67,100,1
3,78,100,0
3,79,100,220
