track,note,velocity,time
1,42,80,336
1,42,80,0
1,42,80,0
1,42,80,0
1,42,80,0
1,42,80,0
1,42,80,0
1,42,80,0
1,42,80,0
1,42,80,0
1,42,80,0
1,42,80,0
1,42,80,0
1,42,80,0
1,42,80,0
1,42,80,0
1,42,80,0
1,42,80,0
1,42,80,0
1,42,80,0
1,42,80,0
1,42,80,0
1,42,80,0
1,42,80,0
1,42,80,0
1,42,80,0
1,42,80,0
1,42,80,0
1,42,80,0
1,42,80,0
1,42,80,0
1,42,80,0
1,42,80,0
1,42,80,0
1,42,80,0
1,42,80,0
1,42,80,0
1,42,80,0
1,42,80,0
1,42,80,0
1,42,80,0
1,42,80,0
1,42,80,0
1,42,80,0
1,42,80,0
1,42,80,0
1,42,80,0
1,42,80,0
1,42,80,0
1,42,80,0
1,42,80,0
1,42,80,0
1,42,80,0
1,42,80,0
1,42,80,0
1,42,80,0
1,42,80,0
1,42,80,0
1,42,80,0
1,42,80,0
1,42,80,0
1,42,80,0
1,42,80,0
1,42,80,0
1,42,80,0
1,42,80,0
1,42,80,0
1,42,80,0
1,42,80,0
1,42,80,0
1,42,80,0
1,42,80,0
1,42,80,0
1,42,80,0
1,42,80,0
1,42,80,0
1,42,80,0
1,42,80,0
1,42,80,0
1,42,80,0
1,42,80,0
1,42,80,0
1,42,80,0
1,42,80,0
1,42,80,0
1,42,80,0
1,42,80,0
1,42,80,0
1,42,80,0
1,42,80,0
1,42,80,0
1,42,80,0
1,42,80,0
1,42,80,0
1,42,80,0
1,42,80,0
1,42,80,0
1,42,80,0
1,42,80,0
1,42,80,0
1,42,80,0
1,42,80,0
1,42,80,0
1,42,80,0
1,42,80,0
1,42,80,0
1,42,80,0
1,42,80,0
1,42,80,0
1,42,80,0
1,42,80,0
1,42,80,0
1,42,80,0
1,42,80,0
1,42,80,0
1,42,80,0
1,42,100,0
1,42,100,0
1,42,100,0
1,42,100,0
1,42,100,384
1,42,100,0
1,42,100,0
1,42,100,0
1,42,100,0
1,42,100,0
1,42,100,0
1,42,100,0
1,42,100,0
1,42,100,0
1,42,100,0
1,42,100,0
1,42,100,0
1,42,100,0
1,42,100,0
1,42,100,0
1,42,100,0
1,42,100,0
1,42,100,0
1,42,100,0
1,42,100,0
1,42,100,0
1,42,100,0
1,42,100,96
1,42,100,96
1,42,100,0
1,42,100,0
1,42,100,0
1,42,100,0
1,42,100,0
1,42,100,0
1,42,100,0
1,42,100,0
1,42,100,0
1,42,100,0
1,42,100,0
1,42,100,0
1,42,100,0
1,42,100,0
1,42,100,0
1,42,100,0
1,42,100,0
1,42,100,0
1,42,100,0
1,42,100,0
1,42,100,0
1,42,100,0
1,42,100,96
1,42,100,96
1,42,100,0
1,42,100,0
1,42,100,0
1,42,100,0
1,42,100,0
1,42,100,0
1,42,100,0
1,42,100,0
1,42,100,0
1,42,100,0
1,42,100,0
1,42,100,0
1,42,100,0
1,42,100,0
1,42,100,0
1,42,100,0
1,42,100,0
1,42,100,0
1,42,100,0
1,42,100,0
1,42,100,0
1,42,100,0
1,42,100,96
1,42,100,0
1,42,100,0
1,42,100,0
1,42,100,0
1,42,100,0
1,42,100,0
1,42,100,96
1,42,100,0
1,42,100,0
1,42,100,0
1,42,100,0
1,42,100,0
1,42,100,0
1,42,100,0
1,42,100,0
1,42,100,0
1,42,100,0
1,42,100,0
1,42,100,0
1,42,100,0
1,42,100,0
1,42,100,0
1,42,100,0
1,42,100,0
1,42,100,0
1,42,100,0
1,42,100,0
1,42,100,0
1,42,100,0
1,42,100,96
1,42,100,0
1,42,100,0
1,42,100,0
1,42,100,0
1,42,100,0
1,42,100,0
1,42,100,96
1,42,100,0
1,42,100,0
1,42,100,0
1,42,100,0
1,42,100,0
1,42,100,0
1,42,100,0
1,42,100,0
1,42,100,0
1,42,100,0
1,42,100,0
1,42,100,0
1,42,100,0
1,42,100,0
1,42,100,0
1,42,100,0
1,42,100,0
1,42,100,0
1,42,100,0
1,42,100,0
1,42,100,0
1,42,100,0
1,42,100,288
1,42,100,0
1,42,100,0
1,42,100,0
1,42,100,0
1,42,100,0
1,42,100,0
1,42,100,96
1,42,100,0
1,42,100,0
1,42,100,0
1,42,100,0
1,42,100,0
1,42,100,0
1,42,100,96
1,42,100,0
1,42,100,0
1,42,100,0
1,42,100,0
1,42,100,96
1,42,100,96
1,42,100,0
1,42,100,0
1,42,100,0
1,42,100,0
1,42,100,0
1,42,100,0
1,42,100,96
1,42,100,0
1,42,100,0
1,42,100,0
1,42,100,0
1,42,100,0
1,42,100,192
1,42,100,96
1,42,100,288
1,42,100,96
1,42,100,288
1,42,100,288
1,42,100,0
1,42,100,0
1,42,100,0
1,42,100,0
1,42,100,96
1,42,100,0
1,42,100,0
1,42,100,0
1,42,100,0
1,42,100,0
1,42,100,0
1,42,100,0
1,42,100,192
1,42,100,96
1,42,100,288
1,42,100,96
1,42,100,288
1,42,100,96
1,42,100,288
1,42,100,288
1,42,100,288
1,42,100,0
1,42,100,0
1,42,100,0
1,42,100,0
1,42,100,0
1,42,100,0
1,42,100,0
1,42,100,0
1,42,100,0
1,42,100,0
1,42,100,0
1,42,100,0
1,42,100,0
1,42,100,0
1,42,100,0
1,42,100,192
1,42,100,0
1,42,100,0
1,42,100,0
1,42,100,0
1,42,100,0
1,42,100,0
1,42,100,0
1,42,100,0
1,42,100,0
1,42,100,0
1,42,100,0
1,42,100,384
1,42,100,0
1,42,100,0
1,42,100,0
1,42,100,0
1,42,100,0
1,42,100,0
1,42,100,0
1,42,100,0
1,42,100,0
1,42,100,0
1,42,100,0
1,42,100,0
1,42,100,0
1,42,100,0
1,42,100,0
1,42,100,0
1,42,100,0
1,42,100,0
1,42,100,0
1,42,100,0
1,42,100,0
1,42,100,0
1,42,100,96
1,42,100,0
1,42,100,0
1,42,100,0
1,42,100,0
1,42,100,0
1,42,100,0
1,42,100,0
1,42,100,0
1,42,100,0
1,42,100,0
1,42,100,0
1,42,100,0
1,42,100,0
1,42,100,0
1,42,100,0
1,42,100,0
1,42,100,0
1,42,100,0
1,42,100,0
1,42,100,0
1,42,100,0
1,42,100,0
1,42,100,0
1,42,100,0
1,42,100,96
1,42,100,0
1,42,100,0
1,42,100,0
1,42,100,0
1,42,100,0
1,42,100,0
1,42,100,0
1,42,100,0
1,42,100,0
1,42,100,0
1,42,100,0
1,42,100,0
1,42,100,0
1,42,100,0
1,42,100,0
1,42,100,0
1,42,100,0
1,42,100,0
1,42,100,0
1,42,100,0
1,42,100,0
1,42,100,0
1,42,100,0
1,42,100,0
1,42,100,96
1,42,100,0
1,42,100,0
1,42,100,0
1,42,100,0
1,42,100,0
1,42,100,0
1,42,100,0
1,42,100,0
1,42,100,0
1,42,100,0
1,42,100,0
1,42,100,0
1,42,100,0
1,42,100,0
1,42,100,0
1,42,100,0
1,42,100,0
1,42,100,0
1,42,100,0
1,42,100,0
1,42,100,0
1,42,100,0
1,42,100,0
1,42,100,0
1,42,100,288
1,42,100,0
1,42,100,0
1,42,100,0
1,42,100,0
1,42,100,96
1,42,100,0
1,42,100,0
1,42,100,0
1,42,100,0
1,42,100,0
1,42,100,0
1,42,100,0
1,42,100,0
1,42,100,0
1,42,100,0
1,42,100,0
1,42,100,0
1,42,100,0
1,42,100,0
1,42,100,96
1,42,100,0
1,42,100,0
1,42,100,0
1,42,100,0
1,42,100,0
1,42,100,0
1,42,100,864
1,42,100,0
1,42,100,0
1,42,100,0
1,42,100,0
1,42,100,0
1,42,100,0
1,42,100,0
1,42,100,0
1,42,100,0
1,42,100,0
1,42,100,0
1,42,100,0
1,42,100,0
1,42,100,0
1,42,100,96
1,42,100,0
1,42,100,0
1,42,100,0
1,42,100,0
1,42,100,1056
1,42,100,0
1,42,100,0
1,42,100,0
1,42,100,0
1,42,100,0
1,42,100,0
1,42,100,0
1,42,100,0
1,42,100,0
1,42,100,0
1,42,100,0
1,42,100,0
1,42,100,0
1,42,100,0
1,42,100,96
1,42,100,0
1,42,100,0
1,42,100,0
1,42,100,0
1,42,100,0
1,42,100,0
1,42,100,0
1,42,100,0
1,42,100,0
1,42,100,0
1,42,100,0
1,42,100,0
1,42,100,0
1,42,100,0
1,42,100,0
1,42,100,0
1,42,100,192
1,42,100,96
1,42,100,288
1,42,100,96
1,42,100,288
1,42,100,288
1,42,100,0
1,42,100,0
1,42,100,0
1,42,100,0
1,42,100,96
1,42,100,0
1,42,100,0
1,42,100,0
1,42,100,0
1,42,100,0
1,42,100,0
1,42,100,0
1,42,100,192
1,42,100,96
1,42,100,288
1,42,100,96
1,42,100,288
1,42,100,96
1,42,100,288
1,42,100,288
1,42,100,288
1,42,100,0
1,42,100,0
1,42,100,0
1,42,100,0
1,42,100,0
1,42,100,0
1,42,100,0
1,42,100,0
1,42,100,0
1,42,100,768
1,42,100,0
1,42,100,0
1,42,100,0
1,42,100,0
1,42,100,0
1,42,100,0
1,42,100,0
1,42,100,0
1,42,100,0
1,42,100,0
1,42,100,0
1,42,100,384
1,42,100,0
1,42,100,0
1,42,100,0
1,42,100,0
1,42,100,0
1,42,100,0
1,42,100,0
1,42,100,0
1,42,100,0
1,42,100,0
1,42,100,0
1,42,100,0
1,42,100,0
1,42,100,0
1,42,100,0
1,42,100,0
1,42,100,0
1,42,100,0
1,42,100,0
1,42,100,0
1,42,100,0
1,42,100,0
1,42,100,96
1,42,100,0
1,42,100,0
1,42,100,0
1,42,100,0
1,42,100,0
1,42,100,0
1,42,100,0
1,42,100,0
1,42,100,0
1,42,100,0
1,42,100,0
1,42,100,0
1,42,100,0
1,42,100,0
1,42,100,0
1,42,100,0
1,42,100,0
1,42,100,0
1,42,100,0
1,42,100,0
1,42,100,0
1,42,100,0
1,42,100,0
1,42,100,0
1,42,100,96
1,42,100,0
1,42,100,0
1,42,100,0
1,42,100,0
1,42,100,0
1,42,100,0
1,42,100,0
1,42,100,0
1,42,100,0
1,42,100,0
1,42,100,0
1,42,100,0
1,42,100,0
1,42,100,0
1,42,100,0
1,42,100,0
1,42,100,0
1,42,100,0
1,42,100,0
1,42,100,0
1,42,100,0
1,42,100,0
1,42,100,0
1,42,100,0
1,42,100,288
1,42,100,0
1,42,100,0
1,42,100,0
1,42,100,0
1,42,100,0
1,42,100,0
1,42,100,0
1,42,100,0
1,42,100,0
1,42,100,0
1,42,100,0
1,42,100,0
1,42,100,0
1,42,100,0
1,42,100,0
1,42,100,0
1,42,100,0
1,42,100,0
1,42,100,0
1,42,100,0
1,42,100,0
1,42,100,0
1,42,100,288
1,42,100,0
1,42,100,0
1,42,100,0
1,42,100,0
1,42,100,0
1,42,100,0
1,42,100,0
1,42,100,0
1,42,100,0
1,42,100,0
1,42,100,0
1,42,100,0
1,42,100,0
1,42,100,0
1,42,100,0
1,42,100,0
1,42,100,0
1,42,100,0
1,42,100,0
1,42,100,0
1,42,100,0
1,42,100,0
1,42,100,288
1,42,100,0
1,42,100,0
1,42,100,0
1,42,100,0
1,42,100,0
1,42,100,0
1,42,100,0
1,42,100,0
1,42,100,0
1,42,100,0
1,42,100,0
1,42,100,0
1,42,100,0
1,42,100,0
1,42,100,0
1,42,100,0
1,42,100,0
1,42,100,0
1,42,100,0
1,42,100,0
1,42,100,0
1,42,100,0
1,42,100,288
1,42,100,0
1,42,100,0
1,42,100,0
1,42,100,0
1,42,100,0
1,42,100,0
1,42,100,0
1,42,100,0
1,42,100,0
1,42,100,0
1,42,100,0
1,42,100,0
1,42,100,0
1,42,100,0
1,42,100,0
1,42,100,0
1,42,100,0
1,42,100,0
1,42,100,0
1,42,100,0
1,42,100,0
1,42,100,0
1,42,100,96
1,42,100,0
1,42,100,0
1,42,100,0
1,42,100,0
1,42,100,0
1,42,100,0
1,42,100,0
1,42,100,0
1,42,100,0
1,42,100,0
1,42,100,0
1,42,100,0
1,42,100,0
1,42,100,0
1,42,100,0
1,42,100,0
1,42,100,0
1,42,100,0
1,42,100,0
1,42,100,0
1,42,100,0
1,42,100,0
1,42,100,0
1,42,100,0
1,42,100,0
1,42,100,0
1,42,100,0
1,42,100,0
1,42,100,0
1,42,100,0
1,42,100,0
1,42,100,0
1,42,100,0
1,42,100,0
1,42,100,0
1,42,100,0
1,42,100,0
1,42,100,0
1,42,100,0
1,42,100,0
1,42,100,0
1,42,100,0
1,42,100,0
1,42,100,0
1,42,100,0
1,42,100,0
1,42,100,0
1,42,100,0
1,42,100,0
1,42,100,0
1,42,100,0
1,42,100,0
1,42,100,0
1,42,100,0
1,42,100,0
1,42,100,0
1,42,100,0
1,42,100,0
1,42,100,0
1,42,100,0
1,42,100,0
1,42,100,0
1,42,100,0
1,42,100,0
1,42,100,0
1,42,100,0
1,42,100,0
1,42,100,0
1,42,100,0
1,42,100,0
1,42,100,0
1,42,100,0
1,42,100,0
2,36,127,12096
2,36,127,96
2,36,127,96
2,36,127,96
2,36,127,96
2,36,127,96
2,36,127,96
2,36,127,0
2,36,127,0
2,36,127,96
2,36,127,96
2,36,127,96
2,36,127,0
2,36,127,0
2,36,127,96
2,36,127,96
2,36,127,96
2,36,127,96
2,36,127,96
2,36,127,96
2,36,127,96
2,36,127,96
2,36,127,0
2,36,127,0
2,36,127,96
2,36,127,96
2,36,127,96
2,36,127,0
2,36,127,0
2,36,127,96
2,36,127,96
2,36,127,96
2,36,127,96
2,36,127,96
2,36,127,96
2,36,127,96
2,36,127,96
2,36,127,0
2,36,127,0
2,36,127,96
2,36,127,96
2,36,127,96
2,36,127,0
2,36,127,0
2,36,127,96
2,36,127,96
2,36,127,96
2,36,127,96
2,36,127,96
2,36,127,96
2,36,127,96
2,36,127,96
2,36,127,0
2,36,127,0
2,36,127,0
2,36,127,0
2,36,127,96
2,36,127,96
2,36,127,0
2,36,127,0
2,36,127,96
2,36,127,96
2,36,127,96
2,36,127,0
2,36,127,0
2,36,127,0
2,36,127,0
2,36,127,96
2,36,127,96
2,36,127,96
2,36,127,96
2,36,127,96
2,36,127,96
2,36,127,0
2,36,127,0
2,36,127,0
2,36,127,0
2,36,127,96
2,36,127,96
2,36,127,0
2,36,127,0
2,36,127,96
2,36,127,96
2,36,127,96
2,36,127,0
2,36,127,0
2,36,127,96
2,36,127,96
2,36,127,96
2,36,127,96
2,36,127,96
2,36,127,96
2,36,127,96
2,36,127,0
2,36,127,0
2,36,127,96
2,36,127,96
2,36,127,96
2,36,127,96
2,36,127,96
2,36,127,96
2,36,127,96
2,36,127,0
2,36,127,0
2,36,127,96
2,36,127,96
2,36,127,96
2,36,127,0
2,36,127,0
2,36,127,0
2,36,127,0
2,36,127,384
2,36,127,480
2,36,127,384
2,36,127,96
2,36,127,96
2,36,127,96
2,36,127,96
2,36,127,96
2,36,127,96
2,36,127,96
2,36,127,96
2,36,127,384
2,36,127,480
2,36,127,480
2,36,127,288
2,36,127,288
2,36,127,0
2,36,127,3168
2,36,127,96
2,36,127,96
2,36,127,96
2,36,127,96
2,36,127,96
2,36,127,96
2,36,127,96
2,36,127,96
2,36,127,0
2,36,127,0
2,36,127,96
2,36,127,96
2,36,127,96
2,36,127,96
2,36,127,96
2,36,127,96
2,36,127,96
2,36,127,96
2,36,127,96
2,36,127,96
2,36,127,96
2,36,127,96
2,36,127,0
2,36,127,0
2,36,127,96
2,36,127,96
2,36,127,96
2,36,127,96
2,36,127,96
2,36,127,96
2,36,127,96
2,36,127,96
2,36,127,96
2,36,127,96
2,36,127,96
2,36,127,96
2,36,127,0
2,36,127,0
2,36,127,96
2,36,127,96
2,36,127,96
2,36,127,96
2,36,127,96
2,36,127,96
2,36,127,96
2,36,127,96
2,36,127,96
2,36,127,96
2,36,127,96
2,36,127,96
2,36,127,0
2,36,127,0
2,36,127,96
2,36,127,96
2,36,127,96
2,36,127,96
2,36,127,96
2,36,127,96
2,36,127,96
2,36,127,96
2,36,127,96
2,36,127,96
2,36,127,0
2,36,127,0
2,36,127,96
2,36,127,96
2,36,127,96
2,36,127,96
2,36,127,96
