track,note,velocity,time
1,86,43,53804
1,62,47,2
1,64,59,730
1,66,51,18
1,84,59,1502
1,67,43,18
1,83,63,368
1,81,55,704
1,71,59,0
1,62,31,0
1,79,27,352
1,67,63,18
1,76,27,304
1,62,47,386
1,78,31,0
1,72,15,32
1,64,55,754
1,79,31,420
1,81,23,176
1,66,35,18
1,80,35,2240
1,63,3,96
1,67,35,18
1,61,3,0
1,73,127,382
1,75,127,386
1,73,127,382
1,79,115,0
1,73,127,382
1,75,123,384
1,73,123,368
1,65,24,0
1,68,31,16
1,60,19,16
1,75,127,384
1,77,127,416
1,75,127,352
1,69,59,0
1,84,127,16
1,75,123,2
1,78,127,350
1,77,127,384
1,70,27,0
1,61,19,16
1,77,127,368
1,82,127,400
1,85,127,368
1,67,59,256
1,63,3,14
1,75,103,2
1,68,27,48
1,65,27,32
1,60,19,16
1,80,127,16
1,80,91,754
1,74,67,0
1,70,55,0
1,53,67,0
1,46,75,0
1,87,22,5264
1,63,39,0
1,66,39,2
1,60,39,12
1,57,39,720
1,61,39,16
1,65,39,2
1,58,39,0
1,64,39,48
1,55,39,32
1,63,39,128
1,60,39,0
1,56,39,0
1,67,127,384
1,79,127,2
1,63,23,16
1,61,23,30
1,82,99,562
1,70,99,0
1,65,127,192
1,77,127,2
1,63,127,334
1,75,127,2
1,79,127,368
1,67,127,0
1,70,99,528
1,82,99,2
1,65,127,2
1,77,127,2
1,75,127,396
1,63,127,0
1,63,23,64
1,80,127,18
1,68,127,0
1,60,35,0
1,75,127,0
1,63,127,0
1,65,127,174
1,77,127,2
1,79,95,146
1,67,95,0
1,77,127,184
1,65,127,0
1,75,107,0
1,63,107,0
1,80,127,224
1,68,127,0
1,63,127,4
1,75,127,2
1,65,127,198
1,77,127,2
1,79,95,168
1,67,95,0
1,77,127,154
1,65,127,0
1,75,123,128
1,63,123,0
1,82,95,46
1,70,95,0
1,61,31,14
1,63,39,2
1,75,127,528
1,63,127,0
1,77,127,136
1,65,127,0
1,79,95,160
1,67,95,0
1,77,127,160
1,65,127,0
1,75,123,160
1,63,123,0
1,82,115,194
1,70,115,0
1,81,11,30
1,69,11,0
1,75,115,16
1,63,115,0
1,77,127,174
1,65,127,0
1,79,91,160
1,67,91,0
1,77,103,162
1,65,103,0
1,75,91,32
1,63,91,0
1,80,127,208
1,68,127,0
1,60,23,6
1,75,103,574
1,63,103,0
1,77,107,0
1,65,107,0
1,80,123,162
1,68,123,0
1,84,91,112
1,72,91,0
1,87,115,0
1,75,115,0
1,88,127,32
1,76,127,0
1,80,127,32
1,68,127,0
1,76,127,0
1,64,103,0
1,66,127,128
1,78,127,18
1,80,127,130
1,68,127,0
1,78,127,162
1,66,127,0
1,64,95,80
1,76,127,0
1,83,107,18
1,71,127,0
1,76,127,560
1,64,115,0
1,66,127,144
1,78,127,18
1,68,123,96
1,80,127,0
1,78,127,178
1,66,127,0
1,64,103,96
1,76,127,0
1,85,103,0
1,73,107,0
1,69,91,16
1,81,103,2
1,71,123,16
1,83,127,32
1,73,99,128
1,85,123,0
1,71,115,144
1,83,123,32
1,69,87,112
1,81,95,0
1,73,107,192
1,85,127,0
1,78,127,530
1,66,127,0
1,68,127,160
1,80,127,16
1,70,99,144
1,82,95,16
1,71,95,0
1,83,103,0
1,73,115,158
1,85,127,16
1,74,127,158
1,86,127,0
1,71,127,0
1,83,99,14
1,73,115,130
1,85,127,16
1,86,127,130
1,74,123,0
1,85,107,162
1,73,115,0
1,71,99,114
1,83,115,16
1,76,123,32
1,88,127,0
1,80,83,17966
1,68,51,0
1,64,75,16
1,62,79,0
1,76,83,0
1,64,76,0
1,66,83,144
1,78,91,34
1,80,123,130
1,68,91,0
1,78,99,160
1,66,83,0
1,76,95,98
1,64,75,0
1,80,123,162
1,68,99,0
1,64,83,16
1,76,127,0
1,66,95,162
1,78,123,16
1,80,127,98
1,68,107,0
1,78,107,158
1,66,123,16
1,64,79,112
1,76,99,0
1,61,67,0
1,81,127,0
1,69,99,0
1,76,123,528
1,64,87,0
1,66,91,158
1,78,107,16
1,68,91,128
1,80,107,18
1,78,103,158
1,66,103,0
1,64,83,118
1,76,95,0
1,81,127,0
1,69,103,0
1,64,75,556
1,76,99,22
1,66,87,148
1,78,123,34
1,68,91,134
1,80,107,2
1,66,107,150
1,78,107,2
1,64,87,98
1,76,95,0
1,83,107,14
1,71,103,0
1,64,76,8
1,62,75,2
1,64,83,528
1,76,99,12
1,66,99,114
1,78,127,30
1,68,115,114
1,80,127,16
1,78,107,160
1,66,127,0
1,64,71,110
1,76,103,18
1,83,103,16
1,71,123,0
1,64,83,540
1,76,123,2
1,66,91,176
1,78,127,16
1,80,115,124
1,68,107,0
1,78,123,160
1,66,107,0
1,64,87,112
1,76,103,16
1,61,79,128
1,73,107,30
1,85,99,0
1,81,127,2636
1,69,99,0
1,80,127,16
1,68,75,16
1,64,81,0
1,62,83,0
1,76,83,528
1,64,79,0
1,66,83,174
1,78,91,32
1,80,123,130
1,68,91,0
1,78,99,160
1,66,83,0
1,76,95,98
1,64,75,0
1,80,123,178
1,68,99,0
1,64,83,16
1,76,127,2
1,66,95,142
1,78,123,32
1,80,127,98
1,68,107,0
1,78,107,160
1,66,123,18
1,64,79,112
1,76,99,18
1,81,127,14
1,69,99,0
1,61,47,0
1,76,123,512
1,64,87,0
1,66,91,160
1,78,107,16
1,68,91,128
1,80,107,18
1,78,103,162
1,66,103,0
1,64,83,112
1,76,95,0
1,81,127,0
1,69,103,0
1,64,75,560
1,76,99,16
1,66,87,144
1,78,123,16
1,80,107,130
1,68,91,0
1,78,107,160
1,66,107,0
1,64,87,94
1,76,95,2
1,71,103,102
1,83,107,2
1,64,67,0
1,62,55,0
1,64,83,536
1,76,99,16
1,66,99,114
1,78,127,20
1,68,115,14
1,80,127,22
1,78,107,18
1,66,127,0
1,64,71,32
1,76,103,14
1,83,103,2
1,71,123,20
1,64,83,18
1,76,123,16
1,66,91,62
1,78,127,0
1,80,115,108
1,68,107,0
1,78,123,32
1,66,107,0
1,64,87,84
1,76,91,14
1,61,23,30
1,73,31,4
1,85,51,4
2,74,127,3498
2,71,127,0
2,71,115,0
2,67,123,0
2,67,87,0
2,62,83,0
2,69,127,18
2,66,123,0
2,69,127,82
2,66,115,0
2,69,103,34
2,66,123,0
2,66,103,2
2,69,127,32
2,71,103,16
2,67,91,0
2,72,95,0
2,69,99,0
2,72,95,110
2,69,79,0
2,72,95,80
2,69,83,0
2,72,91,64
2,69,87,0
2,71,95,0
2,67,75,0
2,66,75,0
2,69,83,14
2,71,87,0
2,67,103,0
2,71,123,688
2,74,115,2
2,74,95,34
2,71,103,0
2,71,123,18
2,74,95,30
2,71,79,16
2,74,59,32
2,67,127,18
2,71,83,2
2,67,71,0
2,62,55,0
2,69,103,0
2,66,115,32
2,69,127,18
2,66,123,0
2,69,103,16
2,66,107,0
2,66,87,2
2,69,107,20
2,67,91,0
2,71,99,20
2,72,83,16
2,69,95,0
2,72,91,64
2,69,87,0
2,69,95,32
2,72,83,34
2,72,95,82
2,69,103,0
2,67,75,30
2,71,91,14
2,66,63,16
2,69,71,2
2,67,87,64
2,67,83,32
2,54,79,15808
2,50,79,0
2,52,67,0
2,55,79,2
2,56,79,0
2,53,47,0
2,56,79,34
2,53,63,14
2,54,75,160
2,57,71,0
2,59,83,18
2,55,67,0
2,60,103,16
2,57,47,0
2,58,51,0
2,61,91,16
2,61,91,50
2,58,79,0
2,62,75,0
2,59,19,0
2,60,95,0
2,57,55,0
2,64,91,64
2,60,63,18
2,66,63,18
2,62,67,0
2,59,59,16
2,55,31,18
2,74,127,1152
2,71,127,0
2,71,115,0
2,67,123,0
2,67,87,0
2,62,83,0
2,69,127,14
2,66,123,0
2,69,127,98
2,66,115,0
2,69,103,34
2,66,123,0
2,66,103,2
2,69,127,32
2,71,103,10
2,67,91,0
2,72,95,0
2,69,99,0
2,72,95,112
2,69,79,0
2,72,95,80
2,69,83,0
2,72,91,64
2,69,87,0
2,71,95,0
2,67,75,0
2,66,75,0
2,69,83,14
2,71,87,0
2,67,103,0
2,74,115,688
2,71,123,0
2,74,95,32
2,71,103,0
2,71,123,18
2,74,95,30
2,71,79,16
2,74,59,32
2,67,127,0
2,71,83,0
2,67,71,0
2,62,55,0
2,69,103,0
2,66,115,30
2,66,123,16
2,69,127,2
2,69,103,16
2,66,107,0
2,66,87,0
2,69,107,18
2,67,91,0
2,71,99,16
2,72,83,18
2,69,95,0
2,72,91,64
2,69,87,0
2,69,95,48
2,72,83,32
2,72,95,82
2,69,103,0
2,67,75,34
2,71,91,16
2,69,71,18
2,66,63,0
2,67,87,66
2,67,83,30
2,51,99,25040
2,58,59,176
2,61,71,192
2,63,67,192
2,61,71,48
2,58,59,192
2,61,63,0
2,58,51,190
2,51,75,176
2,58,63,34
2,61,79,2
2,63,67,190
2,61,75,160
2,58,63,192
2,61,67,160
2,58,55,176
2,51,75,176
2,58,47,128
2,61,83,192
2,63,63,0
2,61,63,16
2,58,67,0
2,61,55,194
2,58,43,174
2,51,91,0
2,58,87,188
2,61,83,194
2,63,87,190
2,61,67,178
2,58,91,0
2,61,51,192
2,58,71,172
2,51,91,14
2,58,87,194
2,61,103,196
2,63,71,0
2,61,63,192
2,58,63,0
2,61,71,0
2,58,63,20
2,56,75,0
2,60,87,190
2,68,95,192
2,63,47,192
2,68,83,80
2,63,71,192
2,66,79,18
2,63,83,144
2,60,59,192
2,57,87,160
2,63,71,96
2,60,83,0
2,61,71,32
2,65,43,190
2,58,63,192
2,70,75,64
2,73,99,50
2,65,79,16
2,61,67,192
2,58,63,192
2,64,87,130
2,58,71,80
2,61,67,192
2,64,83,174
2,63,79,34
2,58,59,128
2,63,47,256
2,60,91,66
2,61,83,96
2,58,91,0
2,54,107,0
2,63,87,178
2,60,99,0
2,57,87,0
2,87,99,3056
2,75,103,0
2,75,75,32
2,87,79,2
2,87,19,16
2,75,55,42
2,87,59,62
2,75,87,0
2,88,99,256
2,76,103,0
2,76,75,34
2,88,79,2
2,78,55,30
2,90,19,2
2,76,127,386
2,73,127,0
2,73,115,0
2,69,123,0
2,69,87,2
2,64,83,0
2,71,127,18
2,68,123,0
2,71,127,96
2,68,115,0
2,71,103,32
2,68,123,0
2,68,103,0
2,71,127,32
2,73,103,18
2,69,91,0
2,74,95,0
2,71,99,0
2,74,95,114
2,71,79,0
2,71,83,80
2,74,95,2
2,74,91,66
2,71,87,0
2,73,95,2
2,69,75,0
2,68,75,0
2,71,83,30
2,73,87,2
2,69,103,0
2,76,115,672
2,73,123,0
2,76,95,32
2,73,103,0
2,73,123,16
2,76,95,30
2,73,79,16
2,76,59,32
2,69,127,18
2,73,83,0
2,69,71,0
2,64,55,0
2,71,103,0
2,68,115,32
2,71,127,16
2,68,123,0
2,71,103,16
2,68,107,0
2,68,87,0
2,71,107,18
2,69,91,0
2,73,99,14
2,74,83,16
2,71,95,0
2,74,91,66
2,71,87,0
2,71,95,48
2,74,83,32
2,71,103,80
2,74,95,2
2,69,75,34
2,73,91,16
2,71,71,18
2,68,63,0
2,69,87,64
2,69,83,32
2,76,127,386
2,73,127,0
2,69,123,0
2,73,115,2
2,69,87,2
2,64,83,0
2,71,127,16
2,68,123,0
2,71,127,96
2,68,115,0
2,71,103,16
2,68,123,0
2,68,103,0
2,71,127,52
2,73,103,18
2,69,91,0
2,74,95,0
2,71,99,0
2,74,95,112
2,71,79,0
2,74,95,82
2,71,83,0
2,71,87,64
2,74,91,2
2,73,95,0
2,69,75,0
2,68,75,2
2,71,83,16
2,73,87,0
2,69,103,0
2,76,115,672
2,73,123,0
2,76,95,30
2,73,103,0
2,73,123,20
2,76,95,34
2,73,79,16
2,76,59,32
2,69,127,2
2,73,83,0
2,64,55,2
2,69,71,4
2,71,103,0
2,68,115,28
2,71,127,18
2,68,123,0
2,68,107,20
2,71,103,2
2,68,87,2
2,71,107,18
2,69,91,2
2,73,99,18
2,74,83,20
2,71,95,0
2,74,91,64
2,71,87,0
2,71,95,46
2,74,83,34
2,74,95,82
2,71,103,0
2,69,75,34
2,73,91,20
2,68,63,16
2,71,71,2
2,69,87,66
2,69,83,30
2,76,127,384
2,73,127,0
2,73,115,0
2,69,123,0
2,69,87,32
2,64,83,0
2,71,127,16
2,68,123,0
2,71,127,96
2,68,115,0
2,68,123,16
2,71,103,2
2,68,103,2
2,71,127,30
2,73,103,12
2,69,91,0
2,74,95,0
2,71,99,0
2,71,79,112
2,74,95,2
2,74,95,82
2,71,83,0
2,74,91,64
2,71,87,0
2,69,75,2
2,73,95,0
2,68,75,0
2,71,83,16
2,73,87,0
2,69,103,0
2,73,123,34
2,76,115,2
2,73,103,32
2,76,95,2
2,73,123,14
2,76,95,30
2,73,79,10
2,76,59,18
2,69,127,0
2,73,83,0
2,69,71,0
2,64,55,0
2,71,103,0
2,68,115,34
2,68,123,14
2,71,127,2
2,71,103,14
2,68,107,0
2,68,87,0
2,71,107,22
2,69,91,18
2,73,99,14
2,74,83,14
2,71,95,0
2,74,91,64
2,71,87,0
2,71,95,44
2,74,83,32
2,74,95,30
2,71,103,0
2,69,75,30
2,73,91,12
2,68,63,6
2,71,71,0
2,69,87,50
2,69,83,14
3,43,127,1578
3,55,71,160
3,67,103,192
3,62,71,96
3,59,67,96
3,50,99,82
3,55,47,80
3,67,91,194
3,59,71,0
3,55,87,160
3,43,115,0
3,55,71,144
3,67,103,192
3,62,79,94
3,59,67,96
3,50,99,14
3,55,67,64
3,67,83,16
3,62,67,0
3,59,55,0
3,55,71,0
3,74,51,0
3,86,71,0
3,50,103,0
3,74,43,124
3,86,63,0
3,54,99,0
3,74,87,126
3,86,107,0
3,66,103,0
3,60,67,30
3,74,95,98
3,86,115,0
3,57,79,0
3,74,87,14
3,86,107,0
3,45,107,0
3,74,79,14
3,86,99,0
3,54,63,0
3,57,51,136
3,60,67,2
3,66,99,2
3,86,115,0
3,74,95,4
3,74,95,16
3,86,115,0
3,54,87,0
3,74,95,0
3,86,115,0
3,50,115,0
3,74,79,0
3,86,99,0
3,54,83,0
3,74,87,128
3,86,107,0
3,66,115,0
3,60,67,36
3,74,83,2
3,86,103,0
3,57,67,0
3,45,123,2
3,86,115,2
3,74,95,2
3,74,75,14
3,86,91,0
3,54,75,0
3,74,87,128
3,86,107,0
3,66,99,0
3,60,59,0
3,57,59,0
3,54,91,136
3,86,87,2
3,74,67,0
3,43,119,0
3,86,99,2
3,74,79,2
3,86,91,114
3,55,79,0
3,74,71,4
3,74,71,126
3,86,91,0
3,67,91,0
3,62,63,20
3,74,79,94
3,86,99,0
3,59,63,0
3,74,79,34
3,86,99,0
3,50,107,0
3,74,95,114
3,86,115,0
3,55,71,0
3,59,103,126
3,67,103,2
3,86,115,4
3,74,95,0
3,86,103,128
3,55,79,0
3,74,83,4
3,74,103,14
3,86,123,0
3,43,111,0
3,74,59,112
3,86,75,0
3,50,79,0
3,55,67,130
3,67,103,2
3,86,71,2
3,74,51,0
3,62,67,30
3,59,71,16
3,86,95,2
3,74,75,2
3,50,111,102
3,74,95,2
3,86,115,0
3,74,67,48
3,86,87,0
3,55,43,0
3,74,83,0
3,86,103,0
3,67,91,0
3,59,83,0
3,74,75,52
3,86,95,0
3,62,67,0
3,55,35,0
3,74,75,0
3,86,95,0
3,50,111,0
3,74,75,144
3,86,91,0
3,54,83,0
3,74,75,126
3,86,95,0
3,66,115,0
3,60,59,30
3,74,87,34
3,86,107,0
3,57,75,0
3,45,123,134
3,86,107,4
3,74,87,2
3,54,63,2
3,86,115,0
3,74,95,4
3,74,87,0
3,86,107,0
3,66,79,0
3,60,79,0
3,57,63,0
3,74,71,126
3,86,91,0
3,54,67,0
3,74,95,0
3,86,115,0
3,50,99,0
3,86,87,132
3,54,91,0
3,74,67,4
3,74,75,128
3,86,91,0
3,66,123,0
3,60,59,48
3,57,55,18
3,86,95,0
3,74,75,2
3,45,115,128
3,86,107,4
