track,note,velocity,time
1,29,127,3840
1,29,127,173
1,29,127,1065
1,29,127,170
1,36,103,390
1,38,120,120
1,41,125,103
1,38,127,90
1,36,127,5
1,33,127,120
1,29,127,10
1,29,127,158
1,38,127,1075
1,36,127,28
1,29,127,35
1,29,127,165
1,29,127,1083
1,29,127,170
1,36,115,403
1,38,123,120
1,41,127,88
1,38,127,100
1,36,127,88
1,33,127,0
1,29,127,0
1,29,127,160
1,29,110,813
1,38,127,0
1,36,127,960
1,38,127,0
1,38,127,180
1,34,127,798
1,34,113,208
1,34,113,605
1,33,127,240
1,33,127,163
1,41,127,763
1,43,113,480
1,45,113,233
1,48,120,0
1,53,91,240
1,38,127,165
1,38,127,138
1,34,127,683
1,34,127,208
1,34,105,508
1,33,127,240
1,33,127,215
1,36,127,678
1,38,127,0
1,41,127,720
1,43,120,455
1,55,127,300
1,55,127,843
1,55,127,210
1,55,127,218
1,43,127,268
1,34,127,120
1,36,98,480
1,38,127,8
1,41,127,253
1,43,91,0
1,45,127,240
1,34,105,523
1,36,88,480
1,38,127,225
1,41,127,515
1,43,95,30
1,41,127,240
1,34,109,665
1,36,120,120
1,34,105,0
1,34,127,893
1,34,127,180
1,36,127,238
1,36,127,205
1,29,127,190
1,29,127,173
1,29,127,1065
1,29,127,170
1,36,103,390
1,38,120,120
1,41,125,103
1,38,127,90
1,36,127,5
1,33,127,120
1,29,127,10
1,29,127,158
1,38,127,1075
1,36,127,28
1,29,127,35
1,29,127,165
1,29,127,1083
1,29,127,170
1,36,115,403
1,38,123,120
1,41,127,88
1,38,127,100
1,36,127,88
1,33,127,0
1,29,127,0
1,29,127,160
1,29,110,813
1,38,127,0
1,36,127,960
1,38,127,0
1,38,127,180
1,34,127,798
1,34,113,208
1,34,113,605
1,33,127,240
1,33,127,163
1,41,127,763
1,43,113,480
1,45,113,233
1,48,120,0
1,53,91,240
1,38,127,165
1,38,127,138
1,34,127,683
1,34,127,208
1,34,105,508
1,33,127,240
1,33,127,215
1,36,127,678
1,38,127,0
1,40,127,720
1,41,127,0
1,43,127,0
1,55,127,300
1,55,127,843
1,55,127,210
1,55,127,218
1,43,127,268
1,34,127,120
1,36,98,480
1,38,127,8
1,41,127,253
1,43,91,0
1,45,127,240
1,34,105,523
1,36,88,480
1,38,127,225
1,41,127,515
1,43,95,30
1,41,127,240
1,34,109,665
1,36,120,120
1,34,105,0
1,34,127,893
1,34,127,180
1,36,127,238
1,36,127,205
1,29,127,190
1,29,127,173
1,29,127,1065
1,29,127,170
1,36,103,390
1,38,120,120
1,41,125,103
1,38,127,90
1,36,127,5
1,33,127,120
1,29,127,10
1,29,127,158
1,38,127,1075
1,36,127,28
1,29,127,35
1,29,127,165
1,29,127,1083
1,29,127,170
1,36,115,403
1,38,123,120
1,41,127,88
1,38,127,100
1,36,127,88
1,33,127,0
1,29,127,0
1,29,127,160
1,29,110,813
1,38,127,0
1,36,127,960
1,39,127,0
1,39,127,240
1,39,113,205
1,39,120,190
1,39,120,205
1,39,120,198
1,39,120,185
1,34,88,240
1,37,120,45
1,37,121,98
1,39,127,40
1,39,127,58
1,39,127,250
1,39,127,180
1,39,127,188
1,39,127,205
1,39,127,183
1,39,127,205
1,34,91,240
1,37,113,23
1,37,114,95
1,39,124,25
1,39,127,30
1,39,127,243
1,39,121,193
1,34,89,240
1,37,109,0
1,37,121,120
1,39,127,0
1,39,127,0
1,39,126,208
1,39,120,195
1,34,79,240
1,37,97,68
1,37,116,80
1,39,126,33
1,39,127,0
1,39,127,0
1,39,127,253
1,39,127,198
1,34,78,240
1,37,127,75
1,37,111,78
1,39,119,55
1,39,127,50
1,39,120,240
1,39,120,240
1,34,86,240
1,37,126,40
1,37,119,78
1,39,127,65
1,29,127,45
1,29,127,173
1,29,127,1065
1,29,127,170
1,36,103,390
1,38,120,120
1,41,125,103
1,38,127,90
1,36,127,5
1,33,127,120
1,29,127,10
1,29,127,158
1,38,127,1075
1,36,127,28
1,29,127,35
1,29,127,165
1,29,127,1083
1,29,127,170
1,36,115,403
1,38,123,120
1,41,127,88
1,38,127,100
1,36,127,88
1,33,127,0
1,29,127,0
1,29,127,160
1,29,110,813
1,38,127,0
1,36,127,960
1,38,127,0
1,38,127,180
1,34,127,798
1,34,113,208
1,34,113,605
1,33,127,240
1,33,127,163
1,41,127,763
1,43,113,480
1,45,113,233
1,48,120,0
1,53,91,240
1,38,127,165
1,38,127,138
1,34,127,683
1,34,127,208
1,34,105,508
1,33,127,240
1,33,127,215
1,36,127,678
1,38,127,0
1,40,127,720
1,41,127,0
1,43,127,0
1,55,127,300
1,55,127,843
1,55,127,210
1,55,127,218
1,43,127,268
1,34,127,120
1,36,98,480
1,38,127,8
1,41,127,253
1,43,91,0
1,45,127,240
1,34,105,523
1,36,88,480
1,38,127,225
1,41,127,515
1,43,95,30
1,41,127,240
1,34,109,665
1,36,120,120
1,34,105,0
1,34,127,893
1,34,127,180
1,36,127,238
1,36,127,205
1,31,127,190
1,31,127,173
1,31,127,1065
1,31,127,170
1,38,103,390
1,40,120,120
1,43,125,103
1,40,127,90
1,38,127,5
1,35,127,120
1,31,127,10
1,31,127,158
1,40,127,1075
1,38,127,28
1,31,127,35
1,31,127,165
1,31,127,1083
1,31,127,170
1,38,115,403
1,40,123,120
1,43,127,88
1,40,127,100
1,38,127,88
1,35,127,0
1,31,127,0
1,31,127,160
1,31,110,813
1,40,127,0
1,38,127,960
1,31,127,0
1,31,127,173
1,31,127,1065
1,31,127,170
1,38,103,390
1,40,120,120
1,43,125,103
1,40,127,90
1,38,127,5
1,35,127,120
1,31,127,10
1,31,127,158
1,40,127,1075
1,38,127,28
1,31,127,35
1,31,127,165
1,31,127,1083
1,31,127,170
1,38,115,403
1,40,123,120
1,43,127,88
1,40,127,100
1,38,127,88
1,35,127,0
1,31,127,0
1,31,127,160
1,31,110,813
1,40,127,0
1,38,127,960
1,31,127,0
1,31,127,173
1,31,127,1065
1,31,127,170
1,38,103,390
1,40,120,120
1,43,125,103
1,40,127,90
1,38,127,5
1,35,127,120
1,31,127,10
1,31,127,158
1,40,127,1075
1,38,127,28
1,31,127,35
1,31,127,165
1,31,127,1083
1,31,127,170
1,38,115,403
1,40,123,120
1,43,127,88
1,40,127,100
1,38,127,88
1,35,127,0
1,31,127,0
1,31,127,160
1,31,110,813
1,40,127,0
1,38,127,960
1,31,127,0
1,31,127,173
1,31,127,1065
1,31,127,170
1,38,103,390
1,40,120,120
1,43,125,103
1,40,127,90
1,38,127,5
1,35,127,120
1,31,127,10
1,31,127,158
1,40,127,1075
1,38,127,28
1,31,127,35
1,31,127,165
1,31,127,1083
1,31,127,170
1,38,115,403
1,40,123,120
1,43,127,88
1,40,127,100
1,38,127,88
1,35,127,0
1,31,127,0
1,31,127,160
1,31,110,813
1,40,127,0
1,38,127,960
2,70,66,4080
2,60,68,0
2,65,98,0
2,70,64,108
2,60,58,0
2,65,92,0
2,70,58,85
2,65,98,0
2,60,66,0
2,70,66,83
2,60,70,0
2,65,104,0
2,69,104,198
2,60,72,0
2,65,109,0
2,58,74,205
2,65,109,0
2,62,78,0
2,58,74,188
2,65,104,0
2,62,74,0
2,58,74,215
2,65,98,0
2,62,76,0
2,64,98,140
2,67,80,0
2,60,64,0
2,70,66,418
2,60,68,0
2,65,92,0
2,70,64,105
2,60,60,0
2,65,92,0
2,70,62,88
2,60,54,0
2,65,86,0
2,70,68,80
2,60,72,0
2,65,104,0
2,69,98,188
2,60,74,0
2,65,104,0
2,65,104,213
2,58,76,0
2,62,78,0
2,58,74,170
2,65,109,0
2,62,76,0
2,58,76,220
2,65,109,0
2,62,80,0
2,67,98,128
2,64,104,0
2,60,76,0
2,60,78,425
2,70,78,0
2,65,115,0
2,70,68,123
2,60,62,0
2,65,98,0
2,70,68,100
2,60,60,0
2,65,104,0
2,70,70,103
2,60,74,0
2,65,115,0
2,69,104,168
2,60,80,0
2,65,109,0
2,58,74,245
2,65,115,0
2,62,74,0
2,58,74,225
2,65,109,0
2,62,80,0
2,58,76,215
2,65,109,0
2,62,92,0
2,67,86,118
2,64,104,0
2,60,70,0
2,65,98,490
2,70,68,0
2,60,62,0
2,60,64,133
2,70,70,0
2,65,98,0
2,70,68,120
2,65,98,0
2,60,54,0
2,70,72,118
2,60,66,0
2,65,104,0
2,69,98,168
2,60,78,0
2,65,104,0
2,58,80,223
2,65,115,0
2,62,78,0
2,58,76,228
2,65,115,0
2,62,80,0
2,58,78,225
2,65,109,0
2,62,92,0
2,64,109,115
2,67,92,0
2,60,74,0
2,70,66,31073
2,60,68,0
2,65,98,0
2,70,64,83
2,60,58,0
2,65,92,0
2,70,58,48
2,65,98,0
2,60,66,0
2,70,66,60
2,60,70,0
2,65,104,0
2,69,104,170
2,60,72,0
2,65,109,0
2,58,74,178
2,65,109,0
2,62,78,0
2,58,74,168
2,65,104,0
2,62,74,0
2,58,74,178
2,65,98,0
2,62,76,0
2,64,98,115
2,67,80,0
2,60,64,0
2,70,66,395
2,60,68,0
2,65,92,0
2,70,64,90
2,60,60,0
2,65,92,0
2,70,62,75
2,60,54,0
2,65,86,0
2,70,68,65
2,60,72,0
2,65,104,0
2,69,98,163
2,60,74,0
2,65,104,0
2,65,104,183
2,58,76,0
2,62,78,0
2,58,74,148
2,65,109,0
2,62,76,0
2,58,76,178
2,65,109,0
2,62,80,0
2,67,98,90
2,64,104,0
2,60,76,0
2,60,78,393
2,70,78,0
2,65,115,0
2,70,68,103
2,60,62,0
2,65,98,0
2,70,68,95
2,60,60,0
2,65,104,0
2,70,70,103
2,60,74,0
2,65,115,0
2,69,104,150
2,60,80,0
2,65,109,0
2,58,74,205
2,65,115,0
2,62,74,0
2,58,74,190
2,65,109,0
2,62,80,0
2,58,76,185
2,65,109,0
2,62,92,0
2,67,86,88
2,64,104,0
2,60,70,0
2,65,98,478
2,70,68,0
2,60,62,0
2,60,64,123
2,70,70,0
2,65,98,0
2,70,68,118
2,65,98,0
2,60,54,0
2,70,72,118
2,60,66,0
2,65,104,0
2,69,98,163
2,60,78,0
2,65,104,0
2,58,80,185
2,65,115,0
2,62,78,0
2,58,76,190
2,65,115,0
2,62,80,0
2,58,78,190
2,65,109,0
2,62,92,0
2,64,109,90
2,67,92,0
2,60,74,0
2,70,66,31048
2,60,68,0
2,65,98,0
2,70,64,83
2,60,58,0
2,65,92,0
2,70,58,48
2,65,98,0
2,60,66,0
2,70,66,60
2,60,70,0
2,65,104,0
2,69,104,170
2,60,72,0
2,65,109,0
2,58,74,178
2,65,109,0
2,62,78,0
2,58,74,168
2,65,104,0
2,62,74,0
2,58,74,178
2,65,98,0
2,62,76,0
2,64,98,115
2,67,80,0
2,60,64,0
2,70,66,395
2,60,68,0
2,65,92,0
2,70,64,90
2,60,60,0
2,65,92,0
2,70,62,75
2,60,54,0
2,65,86,0
2,70,68,65
2,60,72,0
2,65,104,0
2,69,98,163
2,60,74,0
2,65,104,0
2,65,104,183
2,58,76,0
2,62,78,0
2,58,74,148
2,65,109,0
2,62,76,0
2,58,76,178
2,65,109,0
2,62,80,0
2,67,98,90
2,64,104,0
2,60,76,0
2,60,78,393
2,70,78,0
2,65,115,0
2,70,68,103
2,60,62,0
2,65,98,0
2,70,68,95
2,60,60,0
2,65,104,0
2,70,70,103
2,60,74,0
2,65,115,0
2,69,104,150
2,60,80,0
2,65,109,0
2,58,74,205
2,65,115,0
2,62,74,0
2,58,74,190
2,65,109,0
2,62,80,0
2,58,76,185
2,65,109,0
2,62,92,0
2,67,86,88
2,64,104,0
2,60,70,0
2,65,98,478
2,70,68,0
2,60,62,0
2,60,64,123
2,70,70,0
2,65,98,0
2,70,68,118
2,65,98,0
2,60,54,0
2,70,72,118
2,60,66,0
2,65,104,0
2,69,98,163
2,60,78,0
2,65,104,0
2,58,80,185
2,65,115,0
2,62,78,0
2,58,76,190
2,65,115,0
2,62,80,0
2,58,78,190
2,65,109,0
2,62,92,0
2,64,109,90
2,67,92,0
2,60,74,0
2,70,66,15688
2,60,68,0
2,65,98,0
2,70,64,83
2,60,58,0
2,65,92,0
2,70,58,48
2,65,98,0
2,60,66,0
2,70,66,60
2,60,70,0
2,65,104,0
2,69,104,170
2,60,72,0
2,65,109,0
2,58,74,178
2,65,109,0
2,62,78,0
2,58,74,168
2,65,104,0
2,62,74,0
2,58,74,178
2,65,98,0
2,62,76,0
2,64,98,115
2,67,80,0
2,60,64,0
2,70,66,395
2,60,68,0
2,65,92,0
2,70,64,90
2,60,60,0
2,65,92,0
2,70,62,75
2,60,54,0
2,65,86,0
2,70,68,65
2,60,72,0
2,65,104,0
2,69,98,163
2,60,74,0
2,65,104,0
2,65,104,183
2,58,76,0
2,62,78,0
2,58,74,148
2,65,109,0
2,62,76,0
2,58,76,178
2,65,109,0
2,62,80,0
2,67,98,90
2,64,104,0
2,60,76,0
2,60,78,393
2,70,78,0
2,65,115,0
2,70,68,103
2,60,62,0
2,65,98,0
2,70,68,95
2,60,60,0
2,65,104,0
2,70,70,103
2,60,74,0
2,65,115,0
2,69,104,150
2,60,80,0
2,65,109,0
2,58,74,205
2,65,115,0
2,62,74,0
2,58,74,190
2,65,109,0
2,62,80,0
2,58,76,185
2,65,109,0
2,62,92,0
2,67,86,88
2,64,104,0
2,60,70,0
2,65,98,478
2,70,68,0
2,60,62,0
2,60,64,123
2,70,70,0
2,65,98,0
2,70,68,118
2,65,98,0
2,60,54,0
2,70,72,118
2,60,66,0
2,65,104,0
2,69,98,163
2,60,78,0
2,65,104,0
2,58,80,185
2,65,115,0
2,62,78,0
2,58,76,190
2,65,115,0
2,62,80,0
2,58,78,190
2,65,109,0
2,62,92,0
2,64,109,90
2,67,92,0
2,60,74,0
2,72,66,31048
2,62,68,0
2,67,98,0
2,72,64,83
2,62,58,0
2,67,92,0
2,72,58,48
2,67,98,0
2,62,66,0
2,72,66,60
2,62,70,0
2,67,104,0
2,71,104,170
2,62,72,0
2,67,109,0
2,60,74,178
2,67,109,0
2,64,78,0
2,60,74,168
2,67,104,0
2,64,74,0
2,60,74,178
2,67,98,0
2,64,76,0
2,66,98,115
2,69,80,0
2,62,64,0
2,72,66,395
2,62,68,0
2,67,92,0
2,72,64,90
2,62,60,0
2,67,92,0
2,72,62,75
2,62,54,0
2,67,86,0
2,72,68,65
2,62,72,0
2,67,104,0
2,71,98,163
2,62,74,0
2,67,104,0
2,67,104,183
2,60,76,0
2,64,78,0
2,60,74,148
2,67,109,0
2,64,76,0
2,60,76,178
2,67,109,0
2,64,80,0
2,69,98,90
2,66,104,0
2,62,76,0
2,62,78,393
2,72,78,0
2,67,115,0
2,72,68,103
2,62,62,0
2,67,98,0
2,72,68,95
2,62,60,0
2,67,104,0
2,72,70,103
2,62,74,0
2,67,115,0
2,71,104,150
2,62,80,0
2,67,109,0
2,60,74,205
2,67,115,0
2,64,74,0
2,60,74,190
2,67,109,0
2,64,80,0
2,60,76,185
2,67,109,0
2,64,92,0
2,69,86,88
2,66,104,0
2,62,70,0
2,67,98,478
2,72,68,0
2,62,62,0
2,62,64,123
2,72,70,0
2,67,98,0
2,72,68,118
2,67,98,0
2,62,54,0
2,72,72,118
2,62,66,0
2,67,104,0
2,71,98,163
2,62,78,0
2,67,104,0
2,60,80,185
2,67,115,0
2,64,78,0
2,60,76,190
2,67,115,0
2,64,80,0
2,60,78,190
2,67,109,0
2,64,92,0
2,66,109,90
2,69,92,0
2,62,74,0
2,72,66,328
2,62,68,0
2,67,98,0
2,72,64,83
2,62,58,0
2,67,92,0
2,72,58,48
2,67,98,0
2,62,66,0
2,72,66,60
2,62,70,0
2,67,104,0
2,71,104,170
2,62,72,0
2,67,109,0
2,60,74,178
2,67,109,0
2,64,78,0
2,60,74,168
2,67,104,0
2,64,74,0
2,60,74,178
2,67,98,0
2,64,76,0
2,66,98,115
2,69,80,0
2,62,64,0
2,72,66,395
2,62,68,0
2,67,92,0
2,72,64,90
2,62,60,0
2,67,92,0
2,72,62,75
