track,note,velocity,time
1,71,84,6528
1,72,84,0
1,74,84,0
1,71,84,480
1,74,84,0
1,72,84,0
1,71,84,0
1,69,84,0
1,67,84,0
1,69,84,0
1,74,84,768
1,74,84,0
1,79,84,0
1,78,84,0
1,79,84,0
1,74,84,0
1,67,84,1632
1,71,84,0
1,72,84,0
1,74,84,0
1,71,84,480
1,74,84,0
1,72,84,0
1,71,84,0
1,69,84,0
1,67,84,0
1,69,84,0
1,71,84,672
1,71,84,0
1,71,84,0
1,76,84,0
1,75,84,0
1,76,84,0
1,71,84,0
1,69,84,1248
1,70,84,0
1,63,84,960
1,65,84,0
1,67,84,0
1,67,84,0
1,65,84,0
1,65,84,0
1,65,84,768
1,67,84,0
1,68,84,0
1,72,84,960
1,70,84,0
1,63,84,1056
1,63,84,0
1,65,84,0
1,67,84,0
1,67,84,0
1,65,84,0
1,65,84,0
1,65,84,0
1,63,84,0
1,62,84,0
1,63,84,0
1,65,84,0
1,67,84,0
1,68,84,0
1,67,84,672
1,68,84,0
1,65,84,0
1,72,84,0
1,70,84,0
1,68,84,0
1,70,84,0
1,72,84,192
1,70,84,0
1,68,84,192
1,67,84,0
1,71,84,1728
1,74,84,0
1,76,84,0
1,72,84,0
1,79,84,0
1,74,84,0
1,71,84,480
1,74,84,0
1,72,84,0
1,71,84,0
1,69,84,0
1,67,84,0
1,69,84,0
1,74,84,576
1,74,84,0
1,74,84,0
1,79,84,0
1,78,84,0
1,79,84,0
1,74,84,0
1,71,84,1728
1,72,84,0
1,74,84,0
1,71,84,480
1,74,84,0
1,72,84,0
1,71,84,0
1,69,84,0
1,67,84,0
1,69,84,0
1,71,84,576
1,71,84,0
1,71,84,0
1,76,84,0
1,76,84,0
1,75,84,0
1,76,84,0
1,71,84,0
1,69,84,1056
1,70,84,0
1,63,84,960
1,65,84,7
1,67,84,2
1,67,84,5
1,65,84,0
1,65,84,0
1,65,84,576
1,65,84,0
1,67,84,0
1,68,84,0
1,72,84,960
1,70,84,0
1,63,84,1056
1,63,84,0
1,65,84,0
1,67,84,0
1,67,84,0
1,65,84,0
1,65,84,0
1,63,84,0
1,62,84,0
1,63,84,0
1,65,84,0
1,68,84,288
1,68,84,0
1,65,84,0
1,68,84,384
1,65,84,0
1,72,84,0
1,70,84,0
1,68,84,0
1,70,84,0
1,72,84,192
1,70,84,0
1,68,84,192
1,67,84,0
1,77,84,672
1,76,84,0
1,77,84,6
1,76,84,7
1,76,84,0
1,74,84,0
1,74,84,0
1,74,84,576
1,76,84,0
1,77,84,0
1,81,84,768
1,79,84,0
1,67,84,672
1,72,84,0
1,74,84,0
1,76,84,0
1,76,84,0
1,74,84,0
1,74,84,0
1,74,84,0
1,72,84,0
1,71,84,0
1,72,84,0
1,74,84,0
1,76,84,0
1,77,84,0
1,74,84,672
1,77,84,0
1,74,84,0
1,81,84,0
1,79,84,0
1,77,84,0
1,79,84,0
1,72,84,864
1,72,84,0
1,74,84,5
1,76,84,1
1,76,84,12
1,74,84,0
1,74,84,0
1,74,84,384
1,74,84,0
1,76,84,0
1,77,84,0
1,81,84,960
1,79,84,0
1,67,84,672
1,72,84,0
1,74,84,5
1,76,84,1
1,76,84,12
1,74,84,0
1,74,84,0
1,74,84,0
1,72,84,0
1,72,84,0
1,71,84,0
1,72,84,0
1,74,84,0
1,76,84,96
1,77,84,0
1,74,84,0
1,77,84,384
1,74,84,0
1,81,84,0
1,79,84,0
1,77,84,0
1,79,84,0
1,81,84,192
1,79,84,0
1,77,84,192
1,76,84,0
2,67,64,0
2,59,64,0
2,67,64,0
2,59,64,0
2,66,64,0
2,59,64,0
2,66,64,0
2,59,64,0
2,64,64,0
2,60,64,0
2,64,64,0
2,60,64,0
2,67,64,0
2,63,64,0
2,67,64,0
2,63,64,0
2,67,64,0
2,59,64,0
2,67,64,0
2,59,64,0
2,66,64,0
2,59,64,0
2,66,64,0
2,59,64,0
2,64,64,0
2,60,64,0
2,64,64,0
2,60,64,0
2,65,64,0
2,60,64,0
2,66,64,0
2,62,64,0
2,67,64,0
2,59,64,0
2,67,64,0
2,59,64,0
2,66,64,0
2,59,64,0
2,66,64,0
2,59,64,0
2,64,64,0
2,60,64,0
2,64,64,0
2,60,64,0
2,67,64,0
2,63,64,0
2,67,64,0
2,63,64,0
2,67,64,0
2,59,64,0
2,67,64,0
2,59,64,0
2,66,64,0
2,59,64,0
2,66,64,0
2,59,64,0
2,64,64,0
2,60,64,0
2,64,64,0
2,60,64,0
2,65,64,0
2,60,64,0
2,66,64,0
2,62,64,0
2,67,64,0
2,59,64,0
2,67,64,0
2,59,64,0
2,66,64,0
2,59,64,0
2,66,64,0
2,59,64,0
2,64,64,0
2,60,64,0
2,64,64,0
2,60,64,0
2,67,64,0
2,63,64,0
2,67,64,0
2,63,64,0
2,59,64,0
2,64,64,0
2,56,64,0
2,57,64,0
2,59,64,0
2,61,64,0
2,57,64,0
2,56,64,0
2,54,64,0
2,59,64,0
2,63,64,0
2,66,64,0
2,67,64,0
2,59,64,0
2,55,64,0
2,69,64,0
2,63,64,0
2,60,64,0
2,55,64,0
2,70,64,0
2,63,64,0
2,67,64,0
2,63,64,0
2,58,64,0
2,63,64,0
2,58,64,0
2,65,64,0
2,60,64,0
2,56,64,0
2,60,64,0
2,65,64,0
2,60,64,0
2,56,64,0
2,60,64,0
2,65,64,0
2,56,64,0
2,61,64,0
2,56,64,0
2,65,64,0
2,56,64,0
2,61,64,0
2,56,64,0
2,67,64,0
2,58,64,0
2,63,64,0
2,58,64,0
2,67,64,0
2,58,64,0
2,63,64,0
2,58,64,0
2,65,64,0
2,56,64,0
2,60,64,0
2,56,64,0
2,56,64,0
2,60,64,0
2,65,64,0
2,56,64,0
2,61,64,0
2,56,64,0
2,65,64,0
2,56,64,0
2,67,64,0
2,58,64,0
2,65,64,0
2,58,64,0
2,64,64,0
2,60,64,0
2,66,64,0
2,62,64,0
2,67,64,0
2,59,64,0
2,67,64,0
2,59,64,0
2,66,64,0
2,59,64,0
2,66,64,0
2,59,64,0
2,64,64,0
2,60,64,0
2,64,64,0
2,60,64,0
2,67,64,0
2,63,64,0
2,67,64,0
2,63,64,0
2,67,64,0
2,59,64,0
2,67,64,0
2,59,64,0
2,66,64,0
2,59,64,0
2,66,64,0
2,59,64,0
2,64,64,0
2,60,64,0
2,64,64,0
2,60,64,0
2,65,64,0
2,60,64,0
2,66,64,0
2,62,64,0
2,67,64,0
2,59,64,0
2,67,64,0
2,59,64,0
2,66,64,0
2,59,64,0
2,66,64,0
2,59,64,0
2,64,64,0
2,60,64,0
2,64,64,0
2,60,64,0
2,67,64,0
2,63,64,0
2,67,64,0
2,63,64,0
2,59,64,0
2,64,64,0
2,56,64,0
2,57,64,0
2,59,64,0
2,61,64,0
2,57,64,0
2,56,64,0
2,54,64,0
2,59,64,0
2,63,64,0
2,66,64,0
2,67,64,0
2,59,64,0
2,55,64,0
2,69,64,0
2,63,64,0
2,60,64,0
2,63,64,0
2,55,64,0
2,58,64,0
2,63,64,0
2,67,64,0
2,55,64,0
2,58,64,0
2,63,64,0
2,65,64,0
2,56,64,0
2,65,64,0
2,56,64,0
2,65,64,0
2,61,64,0
2,56,64,0
2,65,64,0
2,61,64,0
2,67,64,0
2,63,64,0
2,58,64,0
2,67,64,0
2,63,64,0
2,58,64,0
2,65,64,0
2,56,64,0
2,60,64,0
2,56,64,0
2,65,64,0
2,56,64,0
2,65,64,0
2,56,64,0
2,65,64,0
2,56,64,0
2,61,64,0
2,56,64,0
2,65,64,0
2,56,64,0
2,61,64,0
2,56,64,0
2,67,64,0
2,58,64,0
2,63,64,0
2,58,64,0
2,65,64,0
2,58,64,0
2,62,64,0
2,58,64,0
2,64,64,0
2,55,64,0
2,60,64,0
2,55,64,0
2,64,64,0
2,55,64,0
2,60,64,0
2,55,64,0
2,65,64,0
2,62,64,0
2,57,64,0
2,62,64,0
2,65,64,0
2,62,64,0
2,57,64,0
2,62,64,0
2,62,64,0
2,58,64,0
2,65,64,0
2,58,64,0
2,62,64,0
2,58,64,0
2,65,64,0
2,57,64,0
2,60,64,0
2,55,64,0
2,64,64,0
2,55,64,0
2,60,64,0
2,55,64,0
2,64,64,0
2,60,64,0
2,62,64,0
2,57,64,0
2,65,64,0
2,62,64,0
2,65,64,0
2,62,64,0
2,57,64,0
2,64,64,0
2,62,64,0
2,58,64,0
2,65,64,0
2,62,64,0
2,62,64,0
2,58,64,0
2,65,64,0
2,62,64,0
2,60,64,0
2,55,64,0
2,64,64,0
2,60,64,0
2,60,64,0
2,55,64,0
2,64,64,0
2,60,64,0
2,62,64,0
2,57,64,0
2,65,64,0
2,62,64,0
2,65,64,0
2,62,64,0
2,57,64,0
2,62,64,0
2,62,64,0
2,58,64,0
2,62,64,0
2,65,64,0
2,62,64,0
2,65,64,0
2,62,64,0
2,65,64,0
2,62,64,0
2,60,64,0
2,55,64,0
2,64,64,0
2,60,64,0
2,60,64,0
2,55,64,0
2,64,64,0
2,60,64,0
2,62,64,0
2,57,64,0
2,65,64,0
2,62,64,0
2,62,64,0
2,57,64,0
2,65,64,0
2,62,64,0
2,62,64,0
2,58,64,0
2,65,64,0
2,57,64,0
2,62,64,0
2,58,64,0
2,65,64,0
2,57,64,0
2,60,64,0
2,55,64,0
2,64,64,0
2,55,64,0
2,59,64,0
2,55,64,0
2,62,64,0
2,55,64,0
2,61,64,192
2,64,64,0
2,69,64,0
2,73,64,0
2,74,64,0
2,78,64,0
2,69,64,0
2,69,64,0
2,73,64,0
2,78,64,0
2,79,64,0
2,74,64,0
2,71,64,0
2,70,64,0
2,74,64,0
2,79,64,0
2,79,64,0
2,76,64,0
2,74,64,0
2,78,64,0
2,69,64,0
2,69,64,0
2,73,64,0
2,78,64,0
2,79,64,0
2,74,64,0
2,71,64,0
2,79,64,0
2,76,64,0
2,72,64,0
2,73,64,0
2,74,64,0
2,78,64,0
2,69,64,0
2,69,64,0
2,73,64,0
2,78,64,0
2,79,64,0
2,74,64,0
2,71,64,0
2,70,64,0
2,74,64,0
2,79,64,0
2,79,64,0
2,76,64,0
2,74,64,0
2,78,64,0
2,69,64,0
2,69,64,0
2,73,64,0
2,78,64,0
2,79,64,0
2,74,64,0
2,71,64,0
2,79,64,0
2,76,64,0
2,72,64,0
2,73,64,0
3,74,54,0
3,79,54,0
3,83,54,0
3,83,54,0
3,78,54,0
3,74,54,0
3,76,54,0
3,79,54,0
3,84,54,0
3,84,54,0
3,81,54,0
3,75,54,0
3,74,54,0
3,79,54,0
3,83,54,0
3,83,54,0
3,78,54,0
3,74,54,0
3,76,54,0
3,79,54,0
3,84,54,0
3,77,54,0
3,81,54,0
3,84,54,0
3,78,54,0
3,74,54,0
3,79,54,0
3,83,54,0
3,83,54,0
3,78,54,0
3,74,54,0
3,76,54,0
3,79,54,0
3,84,54,0
3,84,54,0
3,81,54,0
3,75,54,0
3,74,54,0
3,79,54,0
3,83,54,0
3,83,54,0
3,78,54,0
3,74,54,0
3,76,54,0
3,79,54,0
3,84,54,0
3,77,54,0
3,81,54,0
3,84,54,0
3,78,54,0
3,74,54,0
3,79,54,0
3,83,54,0
3,83,54,0
3,78,54,0
3,74,54,0
3,76,54,0
3,79,54,0
3,84,54,0
3,84,54,0
3,81,54,0
3,75,54,0
3,80,54,0
3,76,54,0
3,71,54,0
3,73,54,0
3,76,54,0
3,81,54,0
3,83,54,0
3,78,54,0
3,75,54,0
3,83,54,0
3,79,54,0
3,76,54,0
3,84,54,0
3,81,54,0
3,78,54,0
3,75,54,0
3,70,54,0
3,75,54,0
3,79,54,0
3,72,54,0
3,77,54,0
3,80,54,0
3,73,54,0
3,77,54,0
3,80,54,0
3,70,54,0
3,75,54,0
3,79,54,0
3,72,54,0
3,77,54,0
3,80,54,0
3,73,54,0
3,77,54,0
3,80,54,0
3,70,54,0
3,75,54,0
3,79,54,0
3,77,54,0
3,74,54,0
3,70,54,0
3,67,54,0
3,72,54,0
3,76,54,0
3,72,54,0
3,66,54,0
3,69,54,0
3,74,54,0
3,79,54,0
3,83,54,0
3,83,54,0
3,78,54,0
3,74,54,0
3,76,54,0
3,79,54,0
3,86,54,0
3,84,54,0
3,86,54,0
3,84,54,0
3,81,54,0
3,75,54,0
3,86,54,0
3,84,54,0
3,86,54,0
3,84,54,0
3,74,54,0
3,79,54,0
3,83,54,0
3,83,54,0
3,78,54,0
3,74,54,0
3,76,54,0
3,79,54,0
3,86,54,0
3,84,54,0
3,86,54,0
3,84,54,0
3,77,54,0
3,81,54,0
3,84,54,0
3,78,54,0
3,74,54,0
3,79,54,0
3,83,54,0
3,83,54,0
3,78,54,0
3,74,54,0
3,76,54,0
3,79,54,0
3,86,54,0
3,84,54,0
3,86,54,0
3,84,54,0
3,81,54,0
3,75,54,0
3,86,54,0
3,84,54,0
3,86,54,0
3,84,54,0
3,80,54,0
3,76,54,0
3,71,54,0
3,73,54,0
3,76,54,0
3,81,54,0
3,83,54,0
3,78,54,0
3,75,54,0
3,83,54,0
3,79,54,0
3,76,54,0
3,84,54,0
3,81,54,0
3,78,54,0
3,75,54,0
3,70,54,0
3,75,54,0
3,79,54,0
3,72,54,0
3,77,54,0
3,80,54,0
3,73,54,0
3,77,54,0
3,80,54,0
3,70,54,0
3,75,54,0
3,79,54,0
3,72,54,0
3,77,54,0
3,80,54,0
3,73,54,0
3,77,54,0
3,80,54,0
3,70,54,0
3,75,54,0
3,79,54,0
3,77,54,0
3,74,54,0
3,70,54,0
3,67,54,0
3,72,54,0
3,76,54,0
3,69,54,0
3,74,54,0
3,77,54,0
3,81,54,0
3,70,54,0
3,74,54,0
3,77,54,0
3,81,54,0
3,72,54,0
3,76,54,0
3,79,54,0
3,84,54,0
3,69,54,0
3,74,54,0
3,77,54,0
3,81,54,0
3,70,54,0
3,74,54,0
3,77,54,0
3,81,54,0
3,72,54,0
3,76,54,0
3,79,54,0
3,84,54,0
3,69,54,0
3,74,54,0
3,77,54,0
3,81,54,0
3,70,54,0
3,74,54,0
3,77,54,0
3,81,54,0
3,72,54,0
3,76,54,0
3,79,54,0
3,84,54,0
3,69,54,0
3,74,54,0
3,77,54,0
3,81,54,0
3,70,54,0
3,74,54,0
3,77,54,0
3,81,54,0
3,76,54,0
3,79,54,0
3,84,54,0
3,74,54,0
3,79,54,0
3,83,54,0
3,81,54,0
3,76,54,0
3,73,54,0
3,69,54,0
3,74,54,0
3,78,54,0
3,81,54,0
3,81,54,0
3,78,54,0
3,73,54,0
3,74,54,0
3,79,54,0
3,83,54,0
3,74,54,0
3,79,54,0
3,82,54,0
3,74,54,0
3,78,54,0
3,81,54,0
3,81,54,0
3,78,54,0
3,73,54,0
3,74,54,0
3,79,54,0
3,83,54,0
3,84,54,0
3,79,54,0
3,76,54,0
3,85,54,0
3,81,54,0
3,74,54,0
3,78,54,0
3,81,54,0
3,81,54,0
3,78,54,0
3,73,54,0
3,74,54,0
3,79,54,0
3,83,54,0
3,74,54,0
3,79,54,0
3,82,54,0
3,74,54,0
3,78,54,0
3,81,54,0
3,81,54,0
3,78,54,0
3,73,54,0
3,74,54,0
3,79,54,0
3,83,54,0
3,84,54,0
3,79,54,0
3,76,54,0
3,85,54,0
3,81,54,0
4,70,64,18432
4,75,64,0
4,79,64,0
4,72,64,0
4,77,64,0
4,80,64,0
4,73,64,0
4,77,64,0
4,80,64,0
4,70,64,0
4,75,64,0
4,79,64,0
4,72,64,0
4,77,64,0
4,80,64,0
4,73,64,0
4,77,64,0
4,80,64,0
4,70,64,0
4,75,64,0
4,79,64,0
4,77,64,0
4,74,64,0
4,70,64,0
4,67,64,0
4,72,64,0
4,76,64,0
4,72,64,0
4,66,64,0
4,69,64,0
4,74,64,0
4,79,64,0
4,83,64,0
4,83,64,0
4,78,64,0
4,74,64,0
4,76,64,0
4,79,64,0
4,86,64,0
4,84,64,0
4,86,64,0
4,84,64,0
4,81,64,0
4,75,64,0
4,86,64,0
