track,note,velocity,time
0,76,96,0
0,75,86,120
0,71,82,1
0,64,61,1
0,76,105,1
0,75,86,120
0,71,78,1
0,64,65,1
0,76,92,1
0,75,78,120
0,71,72,1
0,64,86,14
0,64,60,1
0,76,96,1
0,75,72,120
0,66,72,6
0,71,70,9
0,64,62,1
0,73,113,6
0,64,80,14
0,69,100,106
0,68,79,1
0,64,57,1
0,73,92,1
0,66,83,5
0,69,71,115
0,68,76,1
0,64,52,1
0,73,88,1
0,68,69,2
0,69,70,118
0,68,77,1
0,64,67,1
0,69,81,1
0,73,92,0
0,69,77,120
0,68,82,1
0,68,72,3
0,64,67,1
0,76,96,0
0,75,86,120
0,71,82,1
0,68,85,9
0,64,62,1
0,76,105,1
0,75,86,120
0,66,82,47
0,71,78,1
0,64,66,1
0,76,92,1
0,75,78,120
0,64,79,1
0,71,72,0
0,64,61,1
0,76,96,1
0,75,72,120
0,71,70,115
0,64,63,1
0,73,109,6
0,69,82,120
0,68,77,1
0,64,62,1
0,73,96,6
0,69,92,120
0,68,79,1
0,64,62,1
0,73,92,1
0,69,68,120
0,68,80,1
0,64,63,1
0,73,96,1
0,69,79,120
0,68,75,1
0,64,84,8
0,64,64,1
0,73,105,1
0,66,95,1
0,69,67,16
0,66,96,1
0,63,63,1
0,73,70,1
0,69,82,60
0,66,91,96
0,66,82,1
0,63,62,1
0,73,96,1
0,69,84,120
0,66,92,1
0,68,81,10
0,63,62,1
0,73,92,1
0,69,92,1
0,66,82,34
0,69,88,6
0,63,62,1
0,73,92,1
0,69,76,120
0,66,84,1
0,63,64,1
0,73,92,1
0,69,73,120
0,66,85,9
0,63,64,1
0,73,96,1
0,69,75,120
0,66,84,1
0,63,62,1
0,68,79,116
0,73,88,1
0,69,76,120
0,66,76,1
0,66,77,0
0,63,64,1
0,73,109,1
0,68,87,9
0,68,96,1
0,65,82,8
0,61,62,1
0,73,105,1
0,68,79,4
0,68,92,1
0,65,84,120
0,61,64,1
0,73,96,1
0,65,80,10
0,68,82,1
0,65,82,120
0,61,62,1
0,73,88,51
0,61,65,2
0,68,84,1
0,61,80,35
0,65,82,1
0,61,63,1
0,73,96,6
0,68,82,1
0,65,80,120
0,61,71,1
0,73,109,1
0,68,82,1
0,65,84,120
0,61,69,1
0,73,88,1
0,68,79,1
0,65,79,120
0,61,72,1
0,73,105,1
0,68,80,120
0,61,91,94
0,65,80,1
0,61,76,1
0,73,93,5
0,73,113,1
0,68,82,1
0,71,70,23
0,64,100,46
0,61,82,1
0,73,93,67
0,73,92,1
0,68,75,120
0,64,96,1
0,61,77,1
0,73,100,1
0,68,75,120
0,64,96,1
0,61,92,1
0,68,81,1
0,73,96,1
0,69,84,72
0,66,92,1
0,62,88,1
0,73,105,1
0,61,81,3
0,68,80,117
0,64,88,1
0,61,75,1
0,61,85,15
0,73,88,1
0,68,82,120
0,64,79,1
0,61,88,1
0,73,96,1
0,68,82,120
0,64,109,1
0,61,98,7
0,61,84,1
0,68,75,31
0,73,109,1
0,69,105,56
0,66,92,1
0,69,92,1
0,62,92,1
0,73,118,1
0,68,88,32
0,64,58,1
0,61,76,1
0,73,105,1
0,68,82,120
0,64,105,1
0,69,84,12
0,61,84,1
0,73,88,1
0,69,84,33
0,68,84,87
0,64,105,1
0,61,96,1
0,71,73,5
0,73,109,1
0,69,92,64
0,66,88,1
0,68,79,17
0,62,92,1
0,73,113,1
0,68,96,72
0,64,96,1
0,61,82,1
0,73,96,1
0,68,80,120
0,64,96,1
0,61,80,1
0,73,92,1
0,68,79,120
0,64,96,1
0,61,80,1
0,73,109,1
0,69,92,72
0,68,67,116
0,66,82,1
0,62,82,1
0,68,77,29
0,73,109,0
0,69,79,24
0,66,80,1
0,62,76,1
0,66,75,1
0,73,88,0
0,69,70,116
0,66,80,33
0,66,75,2
0,62,73,1
0,71,92,1
0,69,84,1
0,66,77,1
0,62,61,1
0,71,84,1
0,68,74,2
0,69,80,118
0,68,74,33
0,66,80,1
0,62,66,1
0,73,96,1
0,69,79,120
0,66,75,1
0,66,88,0
0,62,75,1
0,62,83,32
0,73,100,1
0,69,69,120
0,66,84,1
0,62,71,1
0,71,82,1
0,69,96,96
0,66,80,1
0,62,48,1
0,71,77,1
0,69,92,1
0,68,75,120
0,66,80,0
0,62,69,1
0,73,96,1
0,68,93,2
0,69,88,104
0,68,84,1
0,64,63,1
0,73,88,1
0,69,86,2
0,69,70,118
0,68,82,1
0,64,64,1
0,68,89,117
0,73,92,1
0,69,76,120
0,68,80,1
0,64,62,1
0,73,96,1
0,69,75,120
0,68,76,1
0,64,64,1
0,73,109,1
0,69,77,120
0,68,76,1
0,64,65,1
0,73,88,1
0,69,72,120
0,61,76,90
0,68,84,1
0,64,64,1
0,64,84,40
0,73,109,1
0,69,88,120
0,68,88,1
0,64,62,1
0,73,105,1
0,66,78,8
0,69,84,108
0,68,84,1
0,68,82,13
0,64,62,1
0,76,109,1
0,75,82,120
0,71,75,6
0,64,62,1
0,76,96,2
0,75,92,120
0,71,79,6
0,64,62,1
0,76,92,1
0,75,68,120
0,71,79,1
0,64,63,1
0,76,96,1
0,75,79,120
0,71,75,1
0,64,64,1
0,73,113,1
0,69,100,120
0,68,79,1
0,64,57,1
0,73,92,1
0,69,71,120
0,68,76,6
0,64,55,120
0,73,88,1
0,69,70,120
0,68,77,1
0,64,67,1
0,73,92,1
0,69,77,120
0,68,82,1
0,64,67,120
0,76,109,1
0,75,82,120
0,71,75,6
0,64,62,1
0,76,96,2
0,75,92,120
0,71,79,6
0,64,62,1
0,76,92,1
0,75,68,120
0,71,79,1
0,64,63,1
0,76,96,1
0,75,79,120
0,71,75,1
0,64,64,1
0,73,109,1
0,69,82,120
0,68,77,6
0,64,62,1
0,73,96,6
0,69,92,120
0,68,79,6
0,64,62,1
0,73,92,1
0,69,68,120
0,68,80,1
0,64,63,1
0,73,96,1
0,69,79,120
0,71,90,87
0,68,75,1
0,64,64,1
0,73,89,29
0,73,105,1
0,69,67,16
0,66,96,1
0,63,72,1
0,73,70,1
0,69,82,18
0,73,82,105
0,66,82,1
0,63,71,1
0,73,96,1
0,69,84,120
0,66,92,1
0,63,65,1
0,73,78,107
0,73,92,1
0,69,92,1
0,71,73,12
0,66,82,26
0,63,73,1
0,73,71,0
0,73,92,1
0,69,76,120
0,66,84,1
0,63,76,1
0,71,71,11
0,73,92,1
0,69,73,1
0,66,84,120
0,63,73,1
0,68,79,109
0,73,96,1
0,69,75,120
0,66,82,1
0,63,71,1
0,73,88,1
0,69,76,46
0,66,77,1
0,63,76,1
0,73,109,1
0,68,72,13
0,68,96,1
0,65,82,8
0,68,76,8
0,61,80,1
0,73,105,1
0,68,92,1
0,65,84,120
0,61,73,1
0,73,96,1
0,65,82,7
0,68,82,1
0,65,82,120
0,61,67,1
0,73,88,1
0,61,77,13
0,68,84,1
0,65,82,120
0,61,71,1
0,61,77,89
0,73,96,1
0,68,82,1
0,65,80,120
0,61,71,1
0,73,109,1
0,68,82,1
0,65,84,120
0,61,69,1
0,73,88,1
0,68,79,1
0,65,79,120
0,61,72,1
0,68,91,1
0,73,105,0
0,68,80,120
0,65,80,1
0,61,76,1
0,73,113,1
0,73,93,4
0,68,82,1
0,64,100,120
0,61,82,1
0,73,92,1
0,68,75,120
0,64,96,1
0,61,77,1
0,73,100,1
0,68,75,120
0,64,96,1
0,61,92,1
0,68,81,50
0,73,96,1
0,69,84,72
0,66,92,1
0,62,88,1
0,73,105,1
0,61,81,3
0,68,80,117
0,64,88,1
0,61,75,1
0,73,88,1
0,61,85,7
0,68,82,113
0,64,79,1
0,61,88,1
0,73,96,1
0,68,82,120
0,64,109,1
0,61,84,1
0,73,109,1
0,69,105,56
0,66,92,1
0,68,92,1
0,62,92,1
0,69,92,0
0,73,118,0
0,68,88,32
0,64,58,1
0,61,76,1
0,73,105,1
0,68,82,120
0,64,105,1
0,69,84,2
0,61,84,1
0,73,88,1
0,69,84,4
0,68,84,116
0,64,105,1
0,61,96,1
0,71,72,34
0,73,109,1
0,69,92,64
0,66,88,1
0,68,79,2
0,62,92,1
0,73,113,1
0,68,96,72
0,64,96,1
0,61,82,1
0,73,96,1
0,68,80,120
0,64,96,1
0,61,80,1
0,73,92,1
0,68,79,120
0,64,96,1
0,61,80,1
0,73,109,1
0,69,92,72
0,68,62,116
0,66,82,1
0,62,82,1
0,73,109,0
0,69,78,3
0,69,79,24
0,68,60,6
0,66,80,1
0,62,76,1
0,66,66,30
0,73,88,1
0,69,70,120
0,66,80,120
0,62,73,1
0,71,92,1
0,69,84,1
0,66,56,39
0,66,77,1
0,62,61,1
0,71,84,1
0,69,80,120
0,64,74,23
0,66,80,1
0,62,66,1
0,66,74,0
0,73,96,0
0,69,79,120
0,64,75,1
0,66,88,0
0,62,75,1
0,61,83,32
0,73,100,1
0,69,69,120
0,66,84,1
0,62,71,1
0,71,82,1
0,69,96,96
0,66,80,1
0,62,48,1
0,71,77,1
0,69,92,1
0,57,75,120
0,66,80,0
0,62,69,1
0,62,93,3
0,74,96,3
0,69,79,115
0,67,88,120
0,62,75,1
0,74,100,1
0,62,88,2
0,69,69,118
0,67,84,1
0,62,71,1
0,73,82,1
0,69,96,96
0,67,80,1
0,62,48,1
0,73,77,1
0,69,92,120
0,67,80,120
0,62,69,1
0,74,96,6
0,69,79,115
0,67,88,120
0,62,75,1
0,74,100,1
0,69,69,120
0,67,84,1
0,62,71,1
0,73,82,1
0,64,66,7
0,69,96,96
0,67,80,1
0,62,48,1
0,66,72,25
0,73,77,1
0,69,92,120
0,67,80,41
0,66,85,1
0,54,85,27
0,50,70,76
0,62,69,1
0,45,97,6
0,38,100,0
0,74,100,0
0,69,100,10
0,66,100,10
0,69,100,10
0,74,100,10
0,69,100,10
0,66,100,10
0,69,100,10
0,50,100,6
0,74,100,0
0,69,100,10
0,66,100,10
0,69,100,10
0,74,100,10
0,69,100,10
0,66,100,10
0,57,80,2
0,69,60,0
0,69,100,10
0,45,88,4
0,38,100,0
0,74,100,0
0,57,88,7
0,69,68,0
0,69,100,10
0,66,100,10
0,69,100,10
0,57,81,4
0,69,61,0
0,74,100,6
0,69,100,10
0,66,100,10
0,69,100,10
0,62,76,38
0,74,56,0
0,50,100,6
0,74,100,0
0,69,100,10
0,66,100,10
0,69,100,10
0,57,70,8
0,69,50,0
0,74,100,2
0,69,100,10
0,66,100,8
0,59,73,5
0,71,54,0
0,69,100,10
0,47,77,2
0,40,100,0
0,76,100,0
0,71,100,10
0,67,100,10
0,71,100,10
0,76,100,10
0,71,100,10
0,67,100,10
0,71,100,10
0,52,100,6
0,76,100,0
0,71,100,10
0,67,100,10
0,71,100,10
0,76,100,10
0,71,100,10
0,59,80,44
0,71,60,0
0,67,100,10
0,71,100,10
0,47,85,2
0,40,100,0
0,76,100,0
0,67,75,1
0,79,55,0
0,71,100,10
0,67,100,10
0,71,100,10
0,76,100,10
0,71,100,10
0,67,84,7
0,79,64,0
0,67,100,3
0,71,100,10
0,52,100,6
0,76,100,0
0,71,100,10
0,67,100,10
0,71,100,10
0,66,77,23
0,78,57,0
0,76,100,10
0,71,100,10
0,67,100,10
0,71,100,10
0,45,83,2
0,38,100,0
0,74,100,0
0,67,79,14
0,79,59,0
0,69,100,10
0,66,93,10
0,78,73,0
0,66,100,0
0,69,100,10
0,74,100,10
0,62,89,7
0,74,69,0
0,69,100,10
0,66,100,10
0,69,100,10
0,50,100,6
0,74,100,0
0,69,100,10
0,66,100,10
0,69,100,10
0,74,100,10
0,66,81,6
0,78,61,0
0,69,100,10
0,66,100,10
0,66,71,13
0,78,51,0
0,69,100,10
0,45,73,2
0,38,100,0
0,74,100,0
0,66,75,12
0,78,55,0
0,69,100,10
0,66,100,10
0,66,74,3
0,78,54,0
0,69,100,10
0,74,100,10
0,69,100,10
0,67,80,3
0,79,60,0
0,66,100,7
0,69,100,10
0,50,100,6
0,74,100,0
0,69,100,9
0,69,80,44
0,81,60,0
0,66,100,10
0,69,100,10
0,74,100,10
0,69,100,10
0,66,100,10
0,69,100,10
0,67,81,4
0,79,61,0
0,47,77,2
0,40,100,0
0,76,100,0
0,71,100,10
0,67,100,10
0,71,100,10
0,66,82,4
0,78,62,0
0,76,100,3
0,71,100,10
0,67,100,10
0,71,100,10
0,52,100,6
0,76,100,0
0,71,100,10
0,67,100,10
0,64,71,7
0,76,51,0
0,71,100,10
0,76,100,10
0,71,100,10
0,67,100,10
0,64,75,4
0,76,55,0
0,71,100,10
0,47,75,2
0,40,100,0
0,76,100,0
0,67,65,3
0,79,45,0
0,71,100,10
0,67,100,10
0,71,100,10
0,76,100,1
0,59,79,8
0,71,59,0
0,71,100,10
0,67,100,10
0,71,100,10
0,62,81,3
0,74,61,0
0,52,100,0
0,76,100,0
0,71,100,10
0,67,100,10
0,71,100,10
0,76,100,7
0,64,69,9
0,76,49,0
0,71,100,10
0,67,100,10
0,66,72,3
0,78,52,0
0,71,100,10
0,45,79,2
0,38,100,0
0,74,100,0
0,69,100,10
0,66,100,10
0,69,100,10
0,74,100,10
0,69,100,10
0,66,100,10
0,69,100,10
0,50,100,6
0,74,100,0
0,69,100,10
0,66,100,10
0,69,100,10
0,57,87,4
0,69,67,0
0,74,100,6
0,69,100,10
0,66,100,10
0,69,100,10
0,57,92,1
0,69,72,0
0,45,71,1
0,38,100,0
0,74,100,0
0,69,100,10
0,66,100,10
0,69,100,10
0,74,100,10
0,62,90,10
0,74,70,0
0,69,100,10
0,66,100,10
0,69,100,10
0,50,100,6
0,74,100,0
0,69,100,10
0,66,100,0
0,57,81,14
0,69,61,0
0,69,100,10
0,74,100,10
0,69,100,10
0,66,100,10
0,69,100,10
0,59,88,6
0,71,68,0
0,47,76,2
0,40,100,0
0,76,100,0
0,71,100,10
0,67,100,10
0,71,100,10
0,76,100,10
0,71,100,10
0,67,100,10
0,71,100,10
0,52,100,6
0,76,100,0
0,71,100,10
0,67,100,10
0,71,100,10
0,59,84,9
0,71,64,0
0,76,100,1
0,71,100,10
0,67,100,8
0,59,71,1
0,71,51,0
0,71,100,10
0,67,73,1
0,79,53,0
0,47,68,1
0,40,100,0
0,76,100,0
0,71,100,10
0,67,100,10
0,71,100,10
0,66,73,0
0,78,53,0
0,76,100,0
0,71,100,10
0,67,100,10
0,71,100,10
0,52,100,6
0,76,100,0
0,64,70,5
0,76,50,0
0,71,100,10
0,67,100,10
0,66,68,10
0,78,48,0
0,71,100,10
0,76,100,10
0,71,100,10
0,67,100,10
0,66,65,8
0,78,45,0
0,71,100,10
0,45,78,2
0,38,100,0
0,74,100,0
0,69,100,10
0,66,100,10
0,69,100,10
0,74,100,10
0,69,100,10
0,66,100,10
0,69,100,10
0,50,100,6
0,74,100,0
0,69,100,10
0,66,100,10
0,69,100,10
0,74,100,10
0,66,81,6
0,78,61,0
0,69,100,10
0,66,100,10
0,66,71,13
0,78,51,0
0,69,100,10
0,45,70,2
0,38,100,0
0,74,100,0
0,66,75,12
0,78,55,0
0,69,100,10
0,66,100,10
0,66,74,3
0,78,54,0
0,69,100,10
0,74,100,10
0,69,100,10
0,67,80,3
0,79,60,0
0,66,100,7
0,69,100,10
0,50,100,6
0,74,100,0
0,69,100,9
0,69,80,44
0,81,60,0
0,66,100,10
0,69,100,10
0,74,100,10
0,69,100,10
0,66,100,10
0,67,81,1
0,79,61,0
0,69,100,10
0,47,68,2
0,40,100,0
0,76,100,0
0,71,100,10
0,67,100,4
0,66,82,5
0,78,62,0
0,71,100,10
0,76,100,10
0,71,100,10
0,67,100,10
0,71,100,10
0,52,100,6
0,76,100,0
0,71,100,10
0,67,100,10
0,67,71,7
0,79,51,0
0,71,100,10
0,76,100,10
0,71,100,10
0,67,100,10
0,67,75,4
0,79,55,0
0,71,100,10
0,47,65,2
0,40,100,0
0,76,100,0
0,66,65,3
0,78,45,0
0,71,100,10
0,67,100,10
0,71,100,10
0,76,100,1
0,64,69,8
