track,note,velocity,time
2,36,127,750
2,36,0,7
2,36,127,23
2,36,0,8
2,36,127,22
2,36,0,8
2,36,127,22
2,36,0,9
2,36,127,21
2,36,0,7
2,36,127,23
2,36,0,9
2,36,127,21
2,36,0,7
2,36,127,23
2,36,0,9
2,36,127,21
2,36,0,7
2,36,127,23
2,36,0,8
2,36,127,22
2,36,0,7
2,36,127,23
2,36,0,8
2,36,127,22
2,36,0,7
2,36,127,23
2,36,0,9
2,36,127,21
2,36,0,7
2,36,127,23
2,36,0,8
2,36,127,22
2,36,0,8
2,36,127,22
2,36,0,8
2,36,127,22
2,36,0,7
2,36,127,23
2,36,0,7
2,36,127,23
2,36,0,8
2,36,127,22
2,36,0,8
2,36,127,22
2,36,0,8
2,36,127,22
2,36,0,7
2,36,127,23
2,36,0,7
2,36,127,23
2,36,0,8
2,36,127,22
2,36,0,7
2,36,127,23
2,36,0,8
2,36,127,22
2,36,0,7
2,36,127,23
2,36,0,9
2,36,127,21
2,36,0,8
2,36,127,22
2,36,0,8
2,36,127,22
2,36,0,8
2,36,127,22
2,36,0,9
2,36,127,21
2,36,0,8
2,36,127,22
2,36,0,9
2,36,127,21
2,36,0,8
2,36,127,22
2,36,0,11
2,36,127,19
2,36,0,8
2,36,127,22
2,36,0,9
2,36,127,21
2,36,0,9
2,36,127,21
2,36,0,9
2,36,127,21
2,36,0,7
2,36,127,23
2,36,0,9
2,36,127,21
2,36,0,8
2,36,127,22
2,36,0,10
2,36,127,20
2,36,0,9
2,36,127,21
2,36,0,10
2,36,127,20
2,36,0,9
2,36,127,21
2,36,0,10
2,36,127,20
2,36,0,9
2,36,127,21
2,36,0,9
2,36,127,21
2,36,0,8
2,36,127,22
2,36,0,9
2,36,127,21
2,36,0,7
2,36,127,23
2,36,0,10
2,36,127,20
2,36,0,9
2,36,127,21
2,36,0,10
2,36,127,20
2,36,0,9
2,36,127,21
2,36,0,10
2,36,127,20
2,36,0,7
2,36,127,23
2,36,0,10
2,36,127,20
2,36,0,9
2,36,127,21
2,36,0,9
2,36,127,21
2,36,0,9
2,36,127,21
2,36,0,11
2,36,127,19
2,36,0,9
2,36,127,21
2,36,0,10
2,36,127,20
2,36,0,9
2,36,127,21
2,36,0,8
2,36,127,22
2,36,0,9
2,36,127,21
2,36,0,9
2,36,127,21
2,36,0,9
2,36,127,21
2,36,0,10
2,36,127,20
2,36,0,10
2,36,127,20
2,36,0,9
2,36,127,21
2,36,0,8
2,36,127,22
2,36,0,8
2,36,127,22
2,36,0,7
2,36,127,23
2,36,0,9
2,36,127,21
2,36,0,9
2,36,127,21
2,36,0,9
2,36,127,21
2,36,0,9
2,36,127,21
2,36,0,10
2,36,127,20
2,36,0,9
2,36,127,21
2,36,0,10
2,36,127,20
2,36,0,9
2,36,127,21
2,36,0,10
2,36,127,20
2,36,0,8
2,36,127,22
2,36,0,10
2,36,127,20
2,36,0,9
2,36,127,21
2,36,0,9
2,36,127,21
2,36,0,9
2,36,127,21
2,36,0,11
2,36,127,19
2,36,0,9
2,36,127,21
2,36,0,10
2,36,127,20
2,36,0,7
2,36,127,23
2,36,0,10
2,36,127,20
2,36,0,10
2,36,127,80
2,36,0,10
2,36,127,20
2,36,0,9
2,36,127,21
2,36,0,10
2,36,127,20
2,36,0,10
2,36,127,20
2,36,0,10
2,36,127,20
2,36,0,9
2,36,127,21
2,36,0,9
2,36,127,21
2,36,0,9
2,36,127,21
2,36,0,9
2,36,127,21
2,36,0,8
2,36,127,22
2,36,0,9
2,36,127,21
2,36,0,9
2,36,127,21
2,36,0,10
2,36,127,20
2,36,0,9
2,36,127,21
2,36,0,10
2,36,127,20
2,36,0,8
2,36,127,22
2,36,0,9
2,36,127,21
2,36,0,9
2,36,127,21
2,36,0,8
2,36,127,22
2,36,0,9
2,36,127,21
2,36,0,10
2,36,127,20
2,36,0,8
2,36,127,22
2,36,0,11
2,36,127,19
2,36,0,9
2,36,127,21
2,36,0,9
2,36,127,21
2,36,0,9
2,36,127,21
2,36,0,9
2,36,127,21
2,36,0,8
2,36,127,22
2,36,0,10
2,36,127,20
2,36,0,8
2,36,127,22
2,36,0,10
2,36,127,20
2,36,0,8
2,36,127,22
2,36,0,10
2,36,127,20
2,36,0,8
2,36,127,22
2,36,0,10
2,36,127,20
2,36,0,7
2,36,127,23
2,36,0,10
2,36,127,20
2,36,0,7
2,36,127,23
2,36,0,8
2,36,127,22
2,36,0,9
2,36,127,21
2,36,0,11
2,36,127,19
2,36,0,10
2,36,127,20
2,36,0,10
2,36,127,20
2,36,0,9
2,36,127,21
2,36,0,11
2,36,127,19
2,36,0,9
2,36,127,21
2,36,0,11
2,36,127,19
2,36,0,8
2,36,127,22
2,36,0,10
2,36,127,20
2,36,0,8
2,36,127,22
2,36,0,10
2,36,127,20
2,36,0,10
2,36,127,20
2,36,0,11
2,36,127,19
2,36,0,8
2,36,127,22
2,36,0,11
2,36,127,19
2,36,0,9
2,36,127,21
2,36,0,11
2,36,127,19
2,36,0,8
2,36,127,22
2,36,0,11
2,36,127,19
2,36,0,8
2,36,127,22
2,36,0,9
2,36,127,21
2,36,0,8
2,36,127,22
2,36,0,10
2,36,127,20
2,36,0,10
2,36,127,20
2,36,0,10
2,36,127,20
2,36,0,9
2,36,127,21
2,36,0,10
2,36,127,20
2,36,0,8
2,36,127,22
2,36,0,10
2,36,127,20
2,36,0,9
2,36,127,21
2,36,0,9
2,36,127,21
2,36,0,8
2,36,127,22
2,36,0,9
2,36,127,21
2,36,0,9
2,36,127,21
2,36,0,9
2,36,127,21
2,36,0,9
2,36,127,21
2,37,127,30
2,36,0,8
2,37,0,3
2,37,127,19
2,37,0,12
2,37,127,18
2,37,0,10
2,37,127,20
2,37,0,12
2,37,127,18
2,37,0,10
2,37,127,20
2,37,0,11
2,37,127,19
2,37,0,10
2,37,127,20
2,37,0,12
2,37,127,18
2,37,0,10
2,37,127,20
2,37,0,10
2,37,127,20
2,37,0,10
2,37,127,20
2,37,0,11
2,37,127,19
2,37,0,11
2,37,127,19
2,37,0,11
2,37,127,19
2,37,0,11
2,37,127,19
2,37,0,11
2,37,127,19
2,37,0,10
2,37,127,20
2,37,0,13
2,37,127,17
2,37,0,12
2,37,127,18
2,37,0,11
2,37,127,19
2,37,0,11
2,37,127,19
2,37,0,12
2,37,127,18
2,37,0,12
2,37,127,18
2,37,0,12
2,37,127,18
2,37,0,12
2,37,127,18
2,37,0,13
2,37,127,17
2,37,0,11
2,37,127,19
2,37,0,12
2,37,127,18
2,37,0,10
2,37,127,20
2,37,0,11
2,37,127,19
2,37,0,10
2,37,127,20
2,37,0,11
2,37,127,19
2,37,0,11
2,37,127,19
2,37,0,12
2,37,127,18
2,37,0,11
2,37,127,19
2,37,0,12
2,37,127,18
2,37,0,11
2,37,127,19
2,37,0,11
2,37,127,19
2,37,0,9
2,37,127,21
2,37,0,11
2,37,127,19
2,37,0,12
2,37,127,18
2,37,0,12
2,37,127,18
2,37,0,11
2,37,127,19
2,37,0,13
2,37,127,17
2,37,0,11
2,37,127,19
2,37,0,11
2,37,127,19
2,37,0,11
2,37,127,19
2,37,0,11
2,37,127,19
2,37,0,12
2,37,127,18
2,37,0,12
2,37,127,18
2,37,0,12
2,37,127,18
2,37,0,13
2,37,127,17
2,37,0,13
2,37,127,17
2,37,0,11
2,37,127,19
2,37,0,11
2,37,127,19
2,37,0,12
2,37,127,18
2,37,0,12
2,37,127,18
2,37,0,12
2,37,127,18
2,37,0,12
2,37,127,18
2,37,0,12
2,37,127,18
2,37,0,12
2,37,127,18
2,37,0,12
2,37,127,18
2,37,0,12
2,37,127,18
2,37,0,11
2,37,127,19
2,37,0,30
2,36,127,0
2,36,127,0
2,36,0,9
2,36,0,0
2,36,127,21
2,36,0,10
2,36,127,20
2,36,0,9
2,36,127,21
2,36,0,10
2,36,127,20
2,36,0,11
2,36,127,19
2,36,0,10
2,36,127,20
2,36,0,10
2,36,127,20
2,36,0,10
2,36,127,20
2,36,0,11
2,36,127,19
2,36,0,11
2,36,127,19
2,36,0,11
2,36,127,19
2,36,0,12
2,36,127,18
2,36,0,11
2,36,127,19
2,36,0,10
2,36,127,20
2,36,0,10
2,36,127,20
2,36,0,12
2,31,127,18
2,31,0,11
2,31,127,19
2,31,0,11
2,31,127,19
2,31,0,11
2,31,127,19
2,31,0,10
2,31,127,20
2,31,0,10
2,31,127,20
2,31,0,10
2,31,127,20
2,31,0,10
2,36,127,20
2,36,0,10
2,36,127,20
2,36,0,10
2,36,127,20
2,36,0,12
2,36,127,18
2,36,0,11
2,36,127,19
2,36,0,11
2,36,127,19
2,36,0,12
2,36,127,18
2,36,0,11
2,36,127,19
2,36,0,11
2,36,127,19
2,36,0,11
2,36,127,19
2,36,0,11
2,36,127,19
2,36,0,10
2,36,127,20
2,36,0,10
2,36,127,20
2,36,0,11
2,36,127,19
2,36,0,11
2,36,127,19
2,36,0,10
2,36,127,20
2,36,0,11
2,36,127,19
2,36,0,12
2,29,127,15
2,29,0,60
2,29,127,96
2,29,0,60
2,29,127,120
2,29,0,60
2,37,127,87
2,37,0,10
2,37,127,20
2,37,0,10
2,37,127,20
2,37,0,9
2,37,127,21
2,37,0,10
2,37,127,20
2,38,127,0
2,38,0,11
2,37,0,0
2,37,127,19
2,37,0,10
2,37,127,20
2,37,0,11
2,37,127,19
2,37,0,11
2,37,127,19
2,37,0,9
2,37,127,21
2,37,0,9
2,37,127,21
2,37,0,11
2,37,127,19
2,37,0,11
2,37,127,19
2,37,0,11
2,37,127,19
2,37,0,10
2,37,127,20
2,37,0,10
2,37,127,20
2,37,0,10
2,29,127,18
2,29,0,60
2,29,127,97
2,29,0,60
2,29,127,117
2,29,0,60
2,29,127,117
2,29,0,60
2,34,127,55
2,34,0,60
2,36,127,99
2,36,0,464
2,36,127,24
2,36,0,45
2,31,126,10
2,31,0,401
2,36,127,73
2,36,0,8
2,36,127,22
2,36,0,9
2,36,127,21
2,36,0,10
2,36,127,20
2,36,0,9
2,36,127,21
2,36,0,8
2,36,127,22
2,36,0,8
2,36,127,22
2,36,0,9
2,36,127,21
2,36,0,8
2,36,127,22
2,36,0,9
2,36,127,21
2,36,0,9
2,36,127,21
2,36,0,9
2,36,127,21
2,36,0,9
2,36,127,21
2,36,0,8
2,36,127,22
2,36,0,9
2,36,127,21
2,36,0,9
2,36,127,21
2,36,0,10
2,36,127,20
2,36,0,9
2,36,127,21
2,36,0,10
2,36,127,20
2,36,0,10
2,36,127,20
2,36,0,10
2,36,127,20
2,36,0,10
2,36,127,20
2,36,0,8
2,36,127,22
2,36,0,11
2,36,127,19
2,36,0,10
2,36,127,20
2,36,0,9
2,36,127,21
2,36,0,8
2,36,127,22
2,36,0,10
2,36,127,20
2,36,0,10
2,36,127,20
2,36,0,11
2,36,127,19
2,36,0,8
2,36,127,22
2,36,0,9
2,36,127,21
2,36,0,9
2,36,127,21
2,36,0,11
2,36,127,19
2,36,0,10
2,36,127,20
2,36,0,11
2,36,127,19
2,36,0,9
2,36,127,21
2,36,0,10
2,36,127,20
2,36,0,8
2,36,127,22
2,36,0,11
2,36,127,19
2,36,0,9
2,36,127,21
2,36,0,10
2,36,127,20
2,36,0,9
2,36,127,21
2,36,0,9
2,36,127,21
2,36,0,9
2,36,127,21
2,36,0,10
2,36,127,20
2,36,0,11
2,36,127,19
2,36,0,10
2,36,127,20
2,36,0,10
2,36,127,20
2,36,0,10
2,36,127,20
2,36,0,10
2,36,127,20
2,36,0,10
2,36,127,20
2,36,0,9
2,36,127,21
2,36,0,9
2,36,127,21
2,36,0,10
2,36,127,20
2,36,0,11
2,36,127,19
2,36,0,8
2,36,127,22
2,36,0,9
2,36,127,21
2,36,0,10
2,36,127,20
2,36,0,10
2,36,127,20
2,36,0,10
2,36,127,20
2,36,0,8
2,36,127,22
2,36,0,10
2,36,127,20
2,36,0,11
2,36,127,19
2,36,0,9
2,36,127,21
2,36,0,10
2,36,127,20
2,36,0,10
2,36,127,20
2,36,0,10
2,36,127,20
2,36,0,10
2,36,127,20
2,36,0,10
2,36,127,20
2,36,0,11
2,36,127,19
2,36,0,11
2,36,127,19
2,36,0,11
2,36,127,19
2,36,0,11
2,36,127,19
2,36,0,11
2,36,127,19
2,36,0,10
2,36,127,20
2,36,0,11
2,36,127,19
2,36,0,11
2,36,127,19
2,36,0,10
2,36,127,20
2,36,0,11
2,36,127,19
2,36,0,11
2,36,127,19
2,36,0,11
2,36,127,19
2,36,0,11
2,36,127,19
2,36,0,10
2,36,127,20
2,36,0,11
2,36,127,19
2,36,0,11
2,36,127,19
2,36,0,11
2,36,127,19
2,36,0,10
2,36,127,20
2,36,0,10
2,36,127,20
2,36,0,11
2,36,127,19
2,36,0,9
2,36,127,21
2,36,0,11
2,36,127,19
2,36,0,10
2,36,127,20
2,36,0,9
2,36,127,21
2,36,0,11
2,36,127,19
2,36,0,10
2,36,127,20
2,36,0,9
2,36,127,21
2,36,0,9
2,36,127,21
2,36,0,10
2,36,127,20
2,36,0,10
2,36,127,20
2,36,0,10
2,36,127,20
2,36,0,9
2,36,127,21
2,36,0,8
2,36,127,22
2,37,127,30
2,36,0,2
2,37,0,20
2,37,127,8
2,37,0,13
2,37,127,17
2,37,0,9
2,37,127,21
2,37,0,11
2,37,127,19
2,37,0,10
2,37,127,20
2,37,0,11
2,37,127,19
2,37,0,10
2,37,127,20
2,37,0,10
2,37,127,20
2,37,0,11
2,37,127,19
2,37,0,12
2,37,127,18
2,37,0,10
2,37,127,20
2,37,0,12
2,37,127,18
2,37,0,10
2,37,127,20
2,37,0,11
2,37,127,19
2,37,0,11
2,37,127,19
2,37,0,11
2,37,127,19
2,37,0,11
2,37,127,19
2,37,0,11
2,37,127,19
2,37,0,12
2,37,127,18
2,37,0,12
2,37,127,18
2,37,0,11
2,37,127,19
2,37,0,11
2,37,127,19
2,37,0,12
2,37,127,18
2,37,0,11
2,37,127,19
2,37,0,11
2,37,127,19
2,37,0,12
2,37,127,18
2,37,0,11
2,37,127,19
2,37,0,12
2,37,127,18
2,37,0,11
2,37,127,19
2,37,0,10
2,37,127,20
2,37,0,11
2,37,127,19
2,37,0,13
2,37,127,17
2,37,0,12
2,37,127,18
2,37,0,12
2,37,127,18
2,37,0,12
2,37,127,18
2,37,0,12
2,37,127,18
2,37,0,11
2,37,127,19
2,37,0,13
2,37,127,17
2,37,0,11
2,37,127,19
2,37,0,12
2,37,127,18
2,37,0,12
2,37,127,18
2,37,0,13
2,37,127,17
2,37,0,12
2,37,127,18
2,37,0,11
2,37,127,19
2,37,0,11
2,37,127,19
2,37,0,11
2,37,127,19
2,37,0,11
2,37,127,19
2,37,0,12
2,37,127,18
2,37,0,12
2,37,127,18
2,37,0,13
2,37,127,17
2,37,0,13
2,37,127,17
2,37,0,13
2,37,127,17
2,37,0,11
2,37,127,19
2,37,0,12
2,37,127,18
2,37,0,10
2,37,127,20
2,37,0,11
2,37,127,19
2,37,0,11
2,37,127,19
2,37,0,11
2,37,127,19
2,37,0,11
2,37,127,19
2,37,0,11
2,37,127,19
2,37,0,10
2,37,127,20
2,37,0,11
2,37,127,19
2,37,0,11
2,37,127,19
2,37,0,10
2,37,127,20
2,37,0,29
2,36,127,1
2,36,0,16
2,36,127,14
2,36,0,10
2,36,127,20
2,36,0,10
2,36,127,20
2,36,0,10
2,36,127,20
2,36,0,10
2,36,127,20
2,36,0,9
2,36,127,21
2,36,0,10
2,36,127,20
2,36,0,11
2,36,127,19
2,36,0,11
2,36,127,19
2,36,0,10
2,36,127,20
2,36,0,11
2,36,127,19
2,36,0,10
2,36,127,20
2,36,0,11
2,36,127,19
2,36,0,11
2,36,127,19
2,36,0,12
2,36,127,18
2,36,0,10
2,31,127,20
2,31,0,10
2,31,127,20
2,31,0,10
2,31,127,20
2,31,0,10
2,31,127,20
2,31,0,10
2,31,127,20
2,31,0,10
2,31,127,20
2,31,0,9
