track,note,velocity,time
0,82,125,0
0,34,80,0
0,46,112,0
0,70,85,30
0,46,0,0
0,34,0,0
0,82,0,22
0,74,96,8
0,70,0,1
0,77,90,29
0,74,0,1
0,77,0,29
0,82,125,0
0,65,90,0
0,63,90,0
0,58,90,0
0,70,100,30
0,58,0,15
0,63,0,0
0,65,0,0
0,74,85,15
0,58,82,0
0,65,82,0
0,62,82,0
0,82,0,2
0,70,0,2
0,74,0,24
0,77,93,2
0,62,0,19
0,65,0,0
0,58,0,4
0,79,104,7
0,39,80,0
0,51,112,0
0,77,0,2
0,70,88,28
0,79,0,11
0,75,81,19
0,51,0,0
0,39,0,0
0,70,0,3
0,77,104,27
0,38,80,0
0,50,112,0
0,75,0,7
0,77,0,23
0,70,90,0
0,74,93,30
0,50,0,0
0,38,0,0
0,70,0,6
0,74,0,23
0,79,104,1
0,37,80,0
0,49,112,0
0,70,104,30
0,79,0,8
0,75,71,22
0,49,0,0
0,37,0,0
0,70,0,2
0,77,98,28
0,36,80,0
0,48,112,0
0,75,0,2
0,77,0,27
0,70,71,1
0,48,0,0
0,36,0,0
0,74,91,30
0,70,0,5
0,76,91,25
0,60,77,0
0,64,77,0
0,74,0,2
0,72,68,28
0,76,0,5
0,64,0,10
0,60,0,0
0,79,120,15
0,64,88,0
0,67,88,0
0,72,0,2
0,76,76,28
0,79,0,1
0,67,0,14
0,64,0,0
0,84,124,15
0,69,99,0
0,65,99,0
0,76,0,3
0,84,0,27
0,72,98,0
0,65,0,15
0,69,0,0
0,72,0,13
0,77,91,2
0,41,80,0
0,53,112,0
0,81,88,30
0,53,0,0
0,41,0,0
0,77,0,4
0,81,0,26
0,86,124,0
0,39,80,0
0,51,112,0
0,74,73,30
0,86,0,2
0,77,82,28
0,74,0,2
0,77,0,28
0,82,104,0
0,51,0,0
0,39,0,0
0,85,124,0
0,49,112,0
0,37,80,0
0,82,0,2
0,73,80,28
0,85,0,5
0,73,0,25
0,77,78,0
0,37,0,0
0,49,0,0
0,84,120,30
0,36,80,0
0,48,112,0
0,77,0,3
0,84,0,27
0,72,88,0
0,77,80,30
0,48,0,0
0,36,0,0
0,72,0,2
0,82,127,28
0,39,80,0
0,51,112,0
0,77,0,3
0,70,91,27
0,51,0,0
0,39,0,0
0,82,0,3
0,70,0,26
0,75,73,1
0,75,0,25
0,82,124,5
0,66,88,0
0,63,74,0
0,70,74,0
0,82,0,30
0,78,95,0
0,63,0,10
0,70,0,3
0,66,0,2
0,78,0,12
0,84,124,3
0,63,104,0
0,66,104,0
0,72,104,0
0,84,0,30
0,80,127,0
0,72,0,15
0,66,0,0
0,63,0,0
0,82,114,0
0,46,112,0
0,34,80,0
0,70,78,30
0,34,0,0
0,46,0,0
0,82,0,22
0,74,88,8
0,70,0,1
0,77,82,29
0,74,0,1
0,77,0,29
0,82,114,0
0,63,90,0
0,65,90,0
0,58,90,0
0,70,91,30
0,58,0,15
0,65,0,0
0,63,0,0
0,74,78,15
0,58,82,0
0,62,82,0
0,65,82,0
0,82,0,2
0,70,0,2
0,74,0,24
0,77,85,2
0,58,0,18
0,65,0,3
0,62,0,0
0,79,95,9
0,39,80,0
0,51,112,0
0,77,0,2
0,70,80,28
0,79,0,11
0,75,74,19
0,51,0,0
0,39,0,0
0,70,0,3
0,77,95,27
0,38,80,0
0,50,112,0
0,75,0,7
0,77,0,23
0,70,82,0
0,74,85,30
0,50,0,0
0,38,0,0
0,70,0,6
0,74,0,23
0,79,95,1
0,37,80,0
0,49,112,0
0,70,95,30
0,79,0,8
0,75,71,22
0,49,0,0
0,37,0,0
0,70,0,2
0,77,98,28
0,36,80,0
0,48,112,0
0,75,0,2
0,77,0,27
0,70,71,1
0,48,0,0
0,36,0,0
0,74,91,30
0,70,0,5
0,76,91,25
0,64,77,0
0,60,77,0
0,74,0,2
0,72,68,28
0,76,0,5
0,60,0,10
0,64,0,0
0,79,120,15
0,64,88,0
0,67,88,0
0,72,0,2
0,76,76,28
0,79,0,1
0,67,0,14
0,64,0,0
0,84,124,15
0,65,99,0
0,69,99,0
0,76,0,3
0,84,0,27
0,72,98,0
0,69,0,15
0,65,0,0
0,72,0,13
0,77,91,2
0,53,112,0
0,41,80,0
0,81,88,30
0,41,0,0
0,53,0,0
0,77,0,4
0,81,0,26
0,86,124,0
0,39,80,0
0,51,112,0
0,74,73,30
0,86,0,2
0,77,82,28
0,74,0,2
0,77,0,28
0,82,104,0
0,51,0,0
0,39,0,0
0,85,124,0
0,49,112,0
0,37,80,0
0,82,0,2
0,73,80,28
0,85,0,5
0,73,0,25
0,77,78,0
0,37,0,0
0,49,0,0
0,84,120,30
0,36,80,0
0,48,112,0
0,77,0,3
0,84,0,27
0,72,88,0
0,77,80,30
0,48,0,0
0,36,0,0
0,72,0,2
0,82,127,28
0,39,80,0
0,51,112,0
0,77,0,3
0,70,91,27
0,51,0,0
0,39,0,0
0,82,0,3
0,70,0,26
0,75,73,1
0,75,0,25
0,82,124,5
0,70,68,0
0,63,80,0
0,66,80,0
0,82,0,30
0,78,95,0
0,66,0,15
0,63,0,0
0,70,0,0
0,78,0,12
0,84,124,3
0,63,95,0
0,66,95,0
0,72,95,0
0,84,0,30
0,80,127,0
0,63,0,12
0,66,0,1
0,72,0,6
0,80,0,2
0,82,104,0
0,34,80,0
0,46,112,0
0,70,104,30
0,46,0,0
0,34,0,0
0,82,0,16
0,74,95,14
0,70,0,2
0,77,95,28
0,74,0,1
0,79,95,29
0,63,65,0
0,67,67,0
0,58,60,0
0,77,0,5
0,80,127,25
0,79,0,3
0,58,0,12
0,67,0,0
0,63,0,0
0,80,0,15
0,79,98,0
0,65,70,0
0,63,86,0
0,58,74,0
0,77,114,30
0,79,0,4
0,58,0,11
0,63,0,0
0,65,0,0
0,79,109,0
0,63,75,0
0,68,91,0
0,60,63,0
0,77,0,4
0,70,88,26
0,79,0,2
0,75,60,28
0,70,0,5
0,63,0,9
0,68,0,1
0,60,0,2
0,77,95,13
0,63,74,0
0,68,65,0
0,60,59,0
0,75,0,1
0,70,109,29
0,77,0,5
0,75,73,25
0,70,0,3
0,60,0,5
0,63,0,1
0,68,0,2
0,79,88,19
0,63,66,0
0,68,65,0
0,60,57,0
0,75,0,3
0,70,91,27
0,79,0,4
0,75,62,26
0,70,0,3
0,60,0,7
0,63,0,2
0,68,0,1
0,75,0,17
0,77,95,0
0,63,86,0
0,60,65,0
0,68,67,0
0,70,104,30
0,77,0,5
0,68,0,10
0,60,0,0
0,63,0,0
0,82,109,15
0,68,78,0
0,63,95,0
0,60,74,0
0,70,0,2
0,82,0,28
0,70,114,0
0,60,0,15
0,63,0,0
0,68,0,0
0,79,88,15
0,67,70,0
0,63,86,0
0,58,74,0
0,70,0,4
0,79,0,24
0,70,104,2
0,75,80,30
0,58,0,1
0,63,0,0
0,67,0,2
0,70,0,3
0,77,91,24
0,67,67,0
0,63,95,0
0,58,74,0
0,75,0,3
0,77,0,26
0,70,95,1
0,58,0,29
0,63,0,0
0,75,78,1
0,67,0,2
0,70,0,3
0,75,0,24
0,79,88,1
0,67,70,0
0,63,95,0
0,58,78,0
0,70,95,30
0,79,0,1
0,75,78,29
0,58,0,0
0,63,0,2
0,67,0,0
0,70,0,1
0,77,88,27
0,67,75,0
0,63,106,0
0,58,86,0
0,75,0,2
0,70,104,28
0,77,0,1
0,58,0,14
0,63,0,0
0,67,0,0
0,82,124,15
0,67,74,0
0,58,78,0
0,63,102,0
0,70,0,4
0,58,0,19
0,63,0,4
0,70,104,3
0,67,0,1
0,82,0,4
0,79,95,25
0,63,102,0
0,68,102,0
0,60,78,0
0,70,0,2
0,79,0,27
0,70,109,1
0,75,88,30
0,70,0,1
0,60,0,6
0,63,0,2
0,68,0,3
0,77,91,18
0,63,102,0
0,68,95,0
0,60,75,0
0,75,0,1
0,77,0,29
0,70,95,0
0,75,71,30
0,60,0,0
0,63,0,2
0,70,0,1
0,68,0,1
0,75,0,26
0,79,91,0
0,63,102,0
0,68,91,0
0,60,74,0
0,70,78,30
0,79,0,3
0,75,80,27
0,70,0,1
0,60,0,8
0,63,0,1
0,68,0,2
0,77,91,18
0,44,80,0
0,56,112,0
0,75,0,2
0,77,0,25
0,70,95,3
0,82,124,30
0,56,0,0
0,44,0,0
0,55,112,0
0,43,80,0
0,70,0,3
0,82,0,27
0,70,104,0
0,79,88,30
0,43,0,0
0,55,0,0
0,46,112,0
0,34,80,0
0,70,0,2
0,70,88,28
0,34,0,0
0,46,0,0
0,79,0,1
0,75,82,29
0,70,0,2
0,75,0,26
0,77,91,2
0,67,86,0
0,63,95,0
0,58,91,0
0,77,0,28
0,70,109,2
0,75,90,30
0,70,0,2
0,58,0,0
0,63,0,1
0,67,0,0
0,75,0,27
0,79,95,0
0,67,75,0
0,63,95,0
0,58,78,0
0,70,91,30
0,79,0,1
0,75,82,29
0,70,0,3
0,58,0,1
0,63,0,0
0,67,0,1
0,75,0,24
0,77,88,1
0,67,86,0
0,63,106,0
0,58,95,0
0,77,0,27
0,70,104,3
0,58,0,15
0,63,0,0
0,67,0,0
0,70,0,14
0,82,124,1
0,67,81,0
0,63,102,0
0,58,95,0
0,82,0,27
0,70,95,3
0,58,0,15
0,63,0,0
0,67,0,0
0,70,0,3
0,80,109,0
0,63,95,0
0,59,95,0
0,68,95,0
0,80,0,30
0,71,82,0
0,75,124,30
0,71,0,6
0,79,120,24
0,67,85,0
0,75,0,1
0,68,0,1
0,71,95,28
0,79,0,1
0,75,114,29
0,71,0,6
0,63,0,20
0,59,0,1
0,67,0,1
0,77,109,2
0,49,112,0
0,37,80,0
0,75,0,2
0,77,0,28
0,71,95,0
0,75,124,0
0,37,0,0
0,49,0,0
0,71,0,8
0,79,120,22
0,39,80,0
0,51,112,0
0,75,0,1
0,71,91,29
0,79,0,1
0,51,0,14
0,39,0,0
0,80,127,15
0,41,80,0
0,53,112,0
0,71,0,3
0,80,0,26
0,71,104,1
0,53,0,0
0,41,0,0
0,82,127,30
0,43,80,0
0,55,112,0
0,71,0,3
0,82,0,25
0,71,109,2
0,55,0,15
0,43,0,0
0,83,124,0
0,44,80,0
0,56,112,0
0,71,0,5
0,83,0,23
0,73,95,2
0,76,73,30
0,73,0,2
0,82,127,28
0,68,93,0
0,64,102,0
0,61,98,0
0,76,0,3
0,73,104,27
0,56,0,0
0,44,0,0
0,82,0,2
0,76,80,28
0,73,0,2
0,80,124,28
0,37,80,0
0,49,112,0
0,76,0,2
0,80,0,27
0,73,109,1
0,76,80,0
0,73,0,1
0,37,0,6
0,49,0,1
0,82,127,22
0,42,80,0
0,54,112,0
0,76,0,1
0,82,0,27
0,73,124,2
0,64,0,1
0,61,0,3
0,68,0,10
0,54,0,1
0,42,0,5
0,73,0,10
0,83,124,0
0,44,80,0
0,56,112,0
0,83,0,27
0,73,124,3
0,56,0,15
0,44,0,0
0,85,127,15
0,49,80,0
0,61,107,0
0,73,0,3
0,85,0,24
0,73,124,3
0,73,0,27
0,86,124,0
0,69,100,0
0,66,100,0
0,62,100,0
0,74,91,30
0,61,0,0
0,49,0,0
0,86,0,30
0,78,109,0
0,74,0,1
0,85,127,29
0,42,80,0
0,54,112,0
0,78,0,5
0,74,88,25
0,62,0,0
0,66,0,0
0,69,0,0
0,74,0,28
0,78,109,2
0,54,0,0
0,42,0,0
0,85,0,7
0,83,127,23
0,38,80,0
0,50,112,0
0,78,0,4
0,74,91,26
0,78,104,0
0,50,0,3
0,38,0,0
0,83,0,11
0,78,0,14
0,85,127,2
0,37,80,0
0,49,112,0
0,78,104,30
0,85,0,12
0,74,76,3
0,78,0,4
0,49,0,5
0,37,0,0
0,86,127,6
0,35,80,0
0,47,112,0
0,74,0,4
0,47,0,25
0,35,0,0
0,78,114,1
0,86,0,6
0,74,80,9
0,78,0,3
0,88,127,12
0,33,80,0
0,45,112,0
0,74,0,3
0,78,124,27
0,45,0,3
0,33,0,0
0,88,0,7
0,74,85,5
0,78,0,4
0,90,127,0
0,31,80,0
0,43,112,0
0,74,0,3
0,79,104,27
0,43,0,0
0,31,0,0
0,90,0,29
0,83,120,1
0,33,80,0
0,45,112,0
0,79,0,1
0,45,0,24
0,33,0,0
0,88,127,5
0,35,80,0
0,47,112,0
0,83,0,2
0,79,114,28
0,47,0,0
0,35,0,0
0,79,0,30
0,83,120,0
0,37,80,0
0,49,112,0
0,88,0,4
0,49,0,21
0,37,0,0
0,86,127,5
0,38,80,0
0,50,112,0
0,83,0,1
0,79,109,29
0,50,0,0
0,38,0,0
0,83,109,0
0,37,80,0
0,49,112,0
0,79,0,3
0,86,0,5
0,83,0,20
0,88,127,2
0,49,0,0
0,37,0,0
0,35,80,0
0,47,112,0
0,83,114,30
0,47,0,0
0,35,0,0
0,88,0,11
0,80,88,4
0,83,0,5
0,90,127,10
0,45,112,0
0,33,80,0
0,80,0,3
0,83,120,27
0,33,0,0
0,45,0,0
0,90,0,8
0,80,114,7
0,83,0,5
0,92,127,10
0,32,80,0
0,44,112,0
0,80,0,4
0,83,127,26
0,44,0,0
0,32,0,0
0,92,0,15
0,80,127,0
0,83,0,3
0,94,102,0
0,30,80,0
0,42,111,0
0,80,0,1
0,82,88,29
0,94,0,1
0,82,0,28
0,85,102,1
0,85,0,30
0,90,102,0
0,92,99,30
0,59,71,0
0,54,58,0
0,61,76,0
0,90,0,2
0,92,0,28
0,94,91,0
0,54,0,8
0,59,0,0
0,61,0,1
0,92,102,21
0,58,65,0
0,54,59,0
0,61,59,0
0,94,0,5
0,90,102,25
0,92,0,2
0,61,0,5
0,54,0,0
0,58,0,2
0,92,102,0
0,63,88,0
0,54,65,0
0,59,97,0
0,90,0,2
0,83,58,28
0,92,0,2
0,87,83,28
0,83,0,3
0,59,0,7
0,54,0,1
0,63,0,1
0,87,0,18
0,89,102,0
0,61,72,0
0,65,79,0
0,54,71,0
0,80,72,30
0,89,0,3
0,80,0,27
0,85,91,0
0,61,0,1
0,54,0,2
0,65,0,2
0,85,0,22
0,92,102,3
0,59,83,0
0,54,71,0
0,63,88,0
0,83,56,30
0,92,0,4
0,83,0,26
0,87,72,0
0,42,0,0
0,30,0,0
0,54,0,10
0,59,0,0
0,63,0,1
0,89,102,19
0,61,76,0
0,54,76,0
0,65,83,0
0,87,0,1
0,80,99,29
0,65,0,15
0,54,0,0
0,61,0,0
0,92,102,15
0,61,76,0
0,68,99,0
0,65,83,0
0,80,0,3
0,89,0,1
0,80,102,26
0,92,0,3
0,80,0,23
0,94,102,0
0,65,0,0
0,68,0,0
0,61,0,0
0,30,80,0
0,42,111,0
0,82,88,30
0,94,0,1
0,82,0,28
0,85,102,1
0,85,0,30
0,90,102,0
0,92,99,30
0,71,83,0
0,73,83,0
0,66,59,0
0,90,0,2
0,92,0,28
0,94,91,0
0,66,0,15
0,73,0,0
0,71,0,0
0,92,102,15
0,70,54,0
0,73,63,0
0,66,49,0
0,94,0,5
0,90,102,25
0,92,0,2
0,73,0,8
0,70,0,1
0,66,0,4
0,92,102,0
0,75,72,0
0,66,59,0
0,71,61,0
0,90,0,2
0,83,58,28
0,92,0,2
0,87,83,28
0,83,0,3
0,71,0,1
0,66,0,4
0,75,0,2
0,87,0,20
0,89,102,0
0,73,76,0
0,66,72,0
0,77,88,0
0,80,72,30
0,89,0,3
0,73,0,26
0,80,0,1
0,85,91,0
0,66,0,0
0,77,0,2
0,85,0,25
0,92,102,3
0,71,65,0
0,66,63,0
0,75,88,0
0,83,56,30
0,92,0,4
0,83,0,26
0,87,72,0
0,71,0,3
0,75,0,1
0,66,0,2
0,89,102,24
0,73,83,0
0,77,79,0
0,66,76,0
0,87,0,1
0,80,99,29
0,66,0,15
0,77,0,0
0,73,0,0
0,42,0,13
0,30,0,1
0,92,102,1
0,73,83,0
0,77,88,0
0,80,88,0
0,80,0,3
0,89,0,1
0,80,102,26
0,92,0,3
0,80,0,23
0,94,102,0
0,80,0,0
0,77,0,0
