track,note,velocity,time
0,46,127,0
0,58,127,0
0,82,127,0
0,70,127,2
0,74,127,19
0,77,127,7
0,63,127,6
0,65,127,0
0,82,127,0
0,70,127,9
0,62,127,24
0,74,127,0
0,77,127,4
0,39,127,2
0,51,127,0
0,79,127,0
0,70,127,14
0,75,127,11
0,38,127,1
0,50,127,0
0,77,127,0
0,70,127,7
0,74,127,14
0,37,127,9
0,49,127,0
0,79,127,0
0,70,127,24
0,75,127,16
0,36,127,5
0,48,127,0
0,77,127,0
0,70,127,7
0,74,127,11
0,55,127,3
0,60,127,0
0,64,127,0
0,76,127,0
0,72,127,9
0,60,127,24
0,64,127,0
0,67,127,0
0,79,127,0
0,76,127,4
0,65,127,5
0,69,127,0
0,84,127,0
0,72,127,11
0,41,127,3
0,53,127,0
0,77,127,0
0,81,127,2
0,39,127,2
0,51,127,0
0,86,127,0
0,74,127,3
0,77,127,24
0,82,127,2
0,37,127,3
0,49,127,0
0,85,127,0
0,73,127,24
0,77,127,9
0,36,127,5
0,48,127,0
0,84,127,0
0,72,127,15
0,77,127,6
0,39,127,2
0,51,127,0
0,82,127,0
0,70,127,7
0,75,127,5
0,63,127,9
0,66,127,0
0,70,127,0
0,82,127,0
0,78,127,7
0,63,127,7
0,68,127,0
0,72,127,0
0,84,127,0
0,80,127,4
0,46,127,13
0,58,127,0
0,82,127,0
0,70,127,2
0,74,127,19
0,77,127,7
0,63,127,6
0,65,127,0
0,82,127,0
0,70,127,9
0,62,127,24
0,74,127,0
0,77,127,4
0,39,127,2
0,51,127,0
0,79,127,0
0,70,127,14
0,75,127,11
0,38,127,1
0,50,127,0
0,77,127,0
0,70,127,7
0,74,127,14
0,37,127,9
0,49,127,0
0,79,127,0
0,70,127,24
0,75,127,16
0,36,127,5
0,48,127,0
0,77,127,0
0,70,127,7
0,74,127,11
0,55,127,3
0,60,127,0
0,64,127,0
0,76,127,0
0,72,127,9
0,60,127,24
0,64,127,0
0,67,127,0
0,79,127,0
0,76,127,4
0,65,127,5
0,69,127,0
0,84,127,0
0,72,127,11
0,41,127,3
0,53,127,0
0,77,127,0
0,81,127,2
0,39,127,2
0,51,127,0
0,86,127,0
0,74,127,3
0,77,127,24
0,82,127,2
0,37,127,3
0,49,127,0
0,85,127,0
0,73,127,24
0,77,127,9
0,36,127,5
0,48,127,0
0,84,127,0
0,72,127,15
0,77,127,6
0,39,127,2
0,51,127,0
0,82,127,0
0,70,127,7
0,75,127,5
0,63,127,9
0,66,127,0
0,70,127,0
0,82,127,0
0,78,127,7
0,63,127,7
0,68,127,0
0,72,127,0
0,84,127,0
0,80,127,4
0,46,127,13
0,58,127,0
0,82,127,0
0,70,127,5
0,74,127,16
0,77,127,18
0,58,127,6
0,62,127,0
0,65,127,0
0,79,127,0
0,80,127,0
0,58,127,24
0,63,127,0
0,67,127,0
0,79,127,0
0,77,127,1
0,60,127,3
0,63,127,0
0,68,127,0
0,79,127,0
0,70,127,2
0,75,127,8
0,60,127,3
0,63,127,0
0,68,127,0
0,77,127,0
0,70,127,5
0,75,127,14
0,60,127,4
0,63,127,0
0,68,127,0
0,79,127,0
0,70,123,1
0,75,127,10
0,60,127,3
0,63,127,0
0,68,127,0
0,77,127,0
0,70,127,1
0,60,127,2
0,63,127,0
0,68,127,0
0,82,127,0
0,70,127,2
0,58,127,4
0,63,127,0
0,67,127,0
0,79,127,0
0,70,127,7
0,75,127,2
0,58,127,3
0,63,127,0
0,67,127,0
0,77,127,0
0,70,127,5
0,75,127,4
0,58,127,6
0,63,127,0
0,67,127,0
0,79,127,0
0,70,127,24
0,75,127,11
0,58,127,2
0,63,127,0
0,67,127,0
0,77,127,0
0,70,127,3
0,58,127,3
0,63,127,0
0,67,127,0
0,82,127,0
0,70,127,1
0,60,127,5
0,63,127,0
0,68,127,0
0,79,127,0
0,70,124,2
0,75,127,4
0,60,127,2
0,63,127,0
0,68,127,0
0,77,127,0
0,70,127,3
0,75,127,19
0,60,127,5
0,63,127,0
0,68,127,0
0,79,127,0
0,70,120,2
0,75,127,13
0,44,127,2
0,56,127,0
0,77,127,0
0,70,127,1
0,43,127,4
0,55,127,0
0,82,127,0
0,70,127,4
0,34,127,5
0,46,127,0
0,79,127,0
0,70,127,4
0,75,127,24
0,58,127,2
0,63,127,0
0,67,127,0
0,77,127,0
0,70,127,3
0,75,127,10
0,58,127,1
0,63,127,0
0,67,127,0
0,79,127,0
0,70,127,24
0,75,127,9
0,58,127,19
0,63,127,0
0,67,127,0
0,77,127,0
0,70,127,1
0,58,127,3
0,63,127,0
0,67,127,0
0,82,127,0
0,70,127,2
0,63,127,19
0,68,127,0
0,80,127,0
0,71,127,23
0,75,127,4
0,63,127,3
0,67,127,0
0,79,127,0
0,71,127,6
0,75,127,24
0,37,127,1
0,49,127,0
0,77,127,0
0,71,127,12
0,75,127,1
0,39,127,17
0,51,127,0
0,79,127,0
0,71,127,23
0,75,127,9
0,41,127,1
0,53,127,0
0,80,127,0
0,71,127,5
0,43,127,3
0,55,127,0
0,82,127,0
0,71,127,1
0,44,127,10
0,56,127,0
0,83,127,0
0,73,127,1
0,76,127,24
0,61,127,1
0,64,127,0
0,68,127,0
0,82,127,0
0,73,127,1
0,76,127,15
0,37,127,1
0,49,127,0
0,80,127,0
0,73,127,3
0,76,127,3
0,42,127,3
0,54,127,0
0,82,127,0
0,73,127,24
0,76,127,5
0,44,127,21
0,56,127,0
0,83,127,0
0,73,127,2
0,49,127,5
0,61,127,0
0,76,127,0
0,85,127,0
0,73,127,2
0,57,127,5
0,62,127,0
0,66,127,0
0,76,127,0
0,86,127,0
0,74,127,17
0,78,127,3
0,42,127,5
0,54,127,0
0,85,127,0
0,74,127,18
0,78,127,15
0,38,127,1
0,50,127,0
0,83,127,0
0,74,127,24
0,78,127,3
0,49,127,15
0,85,127,0
0,74,127,21
0,78,127,12
0,35,127,1
0,47,127,0
0,86,127,0
0,74,127,1
0,33,127,6
0,45,127,0
0,78,127,0
0,88,127,0
0,74,127,7
0,78,127,0
0,31,127,5
0,43,127,0
0,90,127,0
0,79,127,24
0,33,127,14
0,45,127,0
0,83,127,0
0,35,127,4
0,47,127,0
0,88,127,0
0,79,127,2
0,37,127,18
0,49,127,0
0,83,127,0
0,38,127,1
0,50,127,0
0,86,127,0
0,79,127,2
0,37,127,10
0,49,127,0
0,83,127,0
0,35,127,4
0,47,127,0
0,88,127,0
0,79,127,24
0,83,127,4
0,34,127,7
0,46,127,0
0,90,127,0
0,80,127,10
0,32,127,4
0,44,127,0
0,83,127,0
0,92,127,0
0,80,127,10
0,30,127,4
0,42,127,0
0,83,127,0
0,94,127,0
0,85,127,11
0,90,127,19
0,92,127,6
0,54,127,14
0,58,127,0
0,61,127,0
0,92,127,0
0,94,127,3
0,58,127,21
0,61,127,0
0,92,127,0
0,90,127,7
0,54,127,11
0,59,127,0
0,63,127,0
0,92,127,0
0,83,127,3
0,87,127,1
0,54,127,5
0,61,127,0
0,65,127,0
0,89,127,0
0,80,127,3
0,85,127,1
0,54,127,4
0,59,127,0
0,63,127,0
0,92,127,0
0,83,127,1
0,87,127,1
0,54,127,3
0,61,127,0
0,65,127,0
0,89,127,0
0,85,127,0
0,54,127,7
0,61,127,0
0,65,127,0
0,92,127,0
0,42,127,31
0,54,127,0
0,94,127,0
0,85,127,0
0,90,127,14
0,92,127,5
0,70,127,14
0,73,127,0
0,92,127,0
0,94,127,4
0,66,127,24
0,70,127,0
0,73,127,0
0,92,127,0
0,90,127,7
0,66,127,15
0,71,127,0
0,75,127,0
0,92,127,0
0,83,127,1
0,87,127,1
0,66,127,4
0,73,127,0
0,77,127,0
0,89,127,0
0,80,127,4
0,85,127,1
0,66,127,4
0,71,127,0
0,75,127,0
0,92,127,0
0,83,124,24
0,87,127,13
0,66,127,2
0,73,127,0
0,77,127,0
0,89,127,0
0,85,127,2
0,66,127,8
0,73,127,0
0,77,127,0
0,92,127,0
0,42,127,24
0,54,127,0
0,94,127,0
0,85,127,24
0,90,127,3
0,92,127,6
0,54,127,14
0,58,127,0
0,61,127,0
0,92,127,0
0,94,127,4
0,54,127,24
0,58,127,0
0,61,127,0
0,92,127,0
0,90,127,6
0,54,127,16
0,59,127,0
0,63,127,0
0,92,127,0
0,83,127,24
0,92,110,0
0,87,127,3
0,54,127,3
0,61,127,0
0,65,127,0
0,89,127,0
0,80,127,24
0,85,127,1
0,54,127,16
0,59,127,0
0,63,127,0
0,92,127,0
0,83,127,24
0,87,127,2
0,54,127,4
0,61,127,0
0,65,127,0
0,89,127,0
0,80,120,24
0,85,127,16
0,54,127,1
0,61,127,0
0,65,127,0
0,92,127,0
0,42,127,35
0,54,127,0
0,94,127,0
0,85,127,3
0,90,127,5
0,92,127,7
0,66,127,15
0,70,127,0
0,73,127,0
0,92,127,0
0,94,127,4
0,66,127,24
0,70,127,0
0,73,127,0
0,92,127,0
0,90,127,7
0,66,127,0
0,71,127,0
0,75,127,0
0,92,127,0
0,83,127,1
0,87,127,1
0,70,127,2
0,74,127,0
0,77,127,0
0,89,127,0
0,82,127,1
0,86,127,1
0,66,127,9
0,70,127,0
0,75,127,0
0,87,127,0
0,90,127,0
0,78,127,1
0,82,127,0
0,90,127,3
0,65,127,8
0,69,127,0
0,72,127,0
0,77,127,0
0,89,127,0
0,81,127,24
0,89,127,1
0,66,127,6
0,70,127,0
0,75,127,0
0,87,127,0
0,78,127,4
0,65,127,13
0,69,127,0
0,72,127,0
0,77,127,0
0,84,127,0
0,81,127,0
0,46,127,15
0,58,127,0
0,82,127,0
0,70,127,2
0,74,127,19
0,77,127,7
0,63,127,6
0,65,127,0
0,82,127,0
0,70,127,9
0,62,127,24
0,74,127,0
0,77,127,4
0,39,127,2
0,51,127,0
0,79,127,0
0,70,127,14
0,75,127,11
0,38,127,1
0,50,127,0
0,77,127,0
0,70,127,7
0,74,127,14
0,37,127,9
0,49,127,0
0,79,127,0
0,70,127,24
0,75,127,16
0,36,127,5
0,48,127,0
0,77,127,0
0,70,127,7
0,74,127,11
0,55,127,3
0,60,127,0
0,64,127,0
0,76,127,0
0,72,127,9
0,60,127,24
0,64,127,0
0,67,127,0
0,79,127,0
0,76,127,4
0,65,127,5
0,69,127,0
0,84,127,0
0,72,127,11
0,41,127,3
0,53,127,0
0,77,127,0
0,81,127,2
0,39,127,2
0,51,127,0
0,86,127,0
0,74,127,3
0,77,127,24
0,82,127,2
0,37,127,3
0,49,127,0
0,85,127,0
0,73,127,24
0,77,127,9
0,36,127,5
0,48,127,0
0,84,127,0
0,72,127,15
0,77,127,6
0,39,127,2
0,51,127,0
0,82,127,0
0,70,127,7
0,75,127,5
0,63,127,9
0,66,127,0
0,70,127,0
0,82,127,0
0,78,127,7
0,63,127,7
0,68,127,0
0,72,127,0
0,84,127,0
0,80,127,4
0,46,127,13
0,82,127,0
0,70,127,24
0,74,127,5
0,77,127,7
0,63,127,5
0,65,127,0
0,82,127,0
0,70,127,4
0,62,127,3
0,74,127,0
0,77,127,6
0,51,127,4
0,79,127,0
0,70,127,24
0,75,127,5
0,50,127,3
0,77,127,0
0,70,126,1
0,74,127,8
0,49,127,3
0,79,127,0
0,70,127,6
0,75,127,13
0,47,127,2
0,80,127,0
0,71,127,5
0,75,127,12
0,46,127,6
0,82,127,0
0,79,123,4
0,45,127,16
0,81,127,0
0,78,127,3
0,46,127,6
0,80,127,0
0,70,127,11
0,58,127,4
0,74,127,0
0,77,127,3
0,62,127,6
0,65,127,0
0,68,127,0
0,79,127,0
0,80,127,2
0,65,127,1
0,70,127,0
0,74,127,0
0,82,127,0
0,79,127,16
0,37,127,6
0,49,127,0
0,83,127,0
0,71,127,23
0,61,127,4
0,76,127,0
0,80,127,0
0,61,127,1
0,64,127,0
0,68,127,0
0,82,127,0
0,83,127,5
0,64,127,24
0,68,127,0
0,73,127,0
0,85,127,0
0,87,127,3
0,54,127,18
0,88,127,0
0,78,127,17
0,58,127,24
0,66,127,0
0,80,127,0
0,82,127,0
0,66,127,0
0,71,127,0
0,73,127,0
0,83,127,0
0,85,127,0
0,66,127,0
0,70,127,0
0,73,127,0
0,87,127,0
0,88,116,1
0,90,127,0
0,35,117,0
0,47,125,0
0,59,125,0
0,71,125,0
0,75,125,0
0,78,125,0
0,83,125,0
0,47,127,0
0,35,127,0
0,49,97,0
0,42,117,24
0,71,127,2
0,70,127,1
0,38,127,0
0,42,117,0
0,71,126,1
0,42,117,3
0,71,127,3
0,33,117,12
0,45,127,0
0,57,121,0
0,45,127,0
0,35,127,0
0,42,117,0
0,42,112,26
0,38,127,5
0,42,117,0
0,75,127,3
0,76,127,6
0,42,112,0
0,44,68,1
0,32,117,2
0,44,119,0
0,56,121,0
0,80,116,0
0,76,127,0
0,44,127,0
0,35,127,0
0,42,117,0
0,42,110,6
0,71,127,0
0,38,127,0
0,42,117,0
0,71,127,3
0,42,114,0
0,44,74,15
0,30,117,2
0,42,119,0
0,54,110,0
0,78,127,0
0,42,122,0
0,35,127,0
0,42,117,0
0,42,103,12
0,38,127,36
0,42,117,0
0,66,114,1
0,42,108,3
0,44,74,4
0,31,117,0
0,43,124,0
0,55,119,0
0,76,127,0
0,79,126,0
0,67,109,0
0,43,127,0
0,35,127,0
0,42,117,0
0,42,95,5
0,38,127,2
0,42,117,0
0,71,127,1
0,42,97,1
0,30,117,14
0,42,117,0
0,54,116,0
0,70,127,0
0,73,127,0
0,42,127,0
0,35,127,0
0,42,117,0
0,42,92,0
0,71,118,8
0,38,127,0
0,42,117,0
0,74,118,3
0,42,103,24
0,44,78,15
0,35,117,0
0,47,117,0
0,59,115,0
0,66,105,0
0,69,111,0
0,71,127,0
0,47,122,0
0,35,127,0
0,42,117,0
0,42,101,21
0,38,127,3
0,42,117,0
0,35,117,2
0,35,127,0
0,49,97,0
0,75,100,1
0,54,102,0
0,35,123,0
0,42,112,0
0,47,117,11
0,48,127,0
0,38,127,24
0,42,101,0
0,40,117,2
0,42,117,0
0,45,127,0
0,42,107,0
0,38,127,0
0,35,117,1
0,42,117,0
0,43,127,0
0,35,127,1
0,35,113,1
0,71,127,0
0,76,125,0
0,80,114,0
0,40,89,0
0,47,105,0
0,52,82,0
0,35,127,0
0,49,76,0
0,42,72,3
0,44,75,4
0,68,104,5
0,42,47,0
0,47,99,17
0,71,116,0
0,38,127,0
0,44,107,0
0,42,60,6
0,68,104,5
0,47,92,0
0,44,72,0
0,40,80,5
0,69,121,0
0,35,71,0
0,42,68,0
0,40,95,10
0,69,118,0
0,73,102,0
0,78,108,0
0,52,92,0
0,35,127,0
0,44,86,0
0,42,86,3
0,69,123,0
0,42,66,0
0,35,101,1
0,44,68,0
0,42,42,9
0,38,127,19
0,44,107,0
0,42,68,3
0,44,64,3
0,66,108,10
0,42,62,0
0,38,101,1
0,71,127,0
0,74,109,0
0,71,116,0
0,50,101,0
0,35,127,0
0,44,84,0
0,42,50,11
0,44,82,17
0,71,107,5
0,42,49,0
0,71,116,0
0,38,127,0
0,44,107,0
0,38,88,1
0,42,63,0
0,43,88,16
0,66,104,0
0,44,62,0
0,45,88,3
0,71,116,0
0,35,66,0
0,42,66,0
0,47,88,4
0,72,95,0
0,76,118,0
0,79,107,0
0,35,126,0
0,44,84,0
0,71,119,3
0,42,63,0
0,44,84,0
0,35,108,1
0,42,67,0
0,43,91,18
0,38,127,0
0,44,107,0
0,35,126,6
0,42,56,0
0,45,100,6
0,44,88,0
0,69,103,6
0,35,105,0
0,42,73,0
0,43,115,2
0,71,118,0
0,74,109,0
0,43,107,0
0,35,127,0
0,44,107,0
0,67,113,2
0,42,73,16
0,67,100,0
0,46,107,0
0,69,105,18
0,42,67,0
0,38,127,18
0,44,78,0
0,42,64,1
0,43,99,15
0,46,104,0
0,71,118,18
0,35,77,0
0,42,67,0
0,44,98,1
0,76,121,0
0,80,110,0
0,76,127,0
0,44,108,0
0,35,126,0
0,44,78,0
0,42,67,17
