track,note,velocity,time
1,48,127,1582
1,52,95,352
1,53,123,210
1,53,115,224
1,55,115,160
1,48,127,162
1,52,127,256
1,53,115,224
1,53,107,304
1,55,123,98
1,48,127,126
1,52,95,352
1,53,123,210
1,53,115,224
1,55,115,162
1,48,127,160
1,52,127,256
1,53,115,230
1,53,107,308
1,55,123,96
1,48,127,130
1,52,95,350
1,53,123,208
1,53,115,222
1,55,115,158
1,45,127,158
1,40,127,54
1,41,127,50
1,41,123,126
1,43,107,16
1,45,127,32
1,40,127,34
1,41,127,50
1,41,107,48
1,43,127,18
1,48,127,142
1,52,95,352
1,53,123,208
1,53,115,224
1,55,115,162
1,48,127,164
1,52,127,258
1,53,115,222
1,53,107,302
1,55,123,96
1,48,127,128
1,52,95,352
1,53,123,210
1,53,115,224
1,55,115,162
1,45,127,162
1,40,127,50
1,41,127,50
1,41,123,128
1,43,107,18
1,48,127,32
1,52,95,352
1,53,123,208
1,53,115,224
1,55,115,166
1,48,127,158
1,52,127,258
1,53,115,224
1,53,107,304
1,55,123,98
1,48,127,130
1,52,95,354
1,53,123,208
1,53,115,224
1,55,115,158
1,45,127,160
1,40,127,50
1,41,127,48
1,41,123,128
1,43,107,16
1,45,127,32
1,40,127,34
1,41,127,50
1,41,107,48
1,43,127,18
1,57,127,144
1,49,127,538
1,52,127,160
1,57,127,144
1,53,127,548
1,50,127,174
1,57,103,174
1,49,127,540
1,52,107,174
1,53,127,174
1,52,123,578
1,50,127,158
1,57,107,210
1,49,127,542
1,52,103,156
1,50,127,192
1,50,123,608
1,53,103,210
1,55,103,208
1,55,95,526
1,59,91,178
1,60,95,176
1,48,107,482
1,51,123,112
1,53,127,210
1,53,123,546
1,53,123,208
1,51,107,208
1,51,127,510
1,51,127,224
1,53,127,208
1,53,107,576
1,51,123,162
1,50,99,34
1,48,127,96
1,52,95,354
1,53,123,208
1,53,115,228
1,55,115,156
1,48,127,156
1,52,127,256
1,53,115,224
1,53,107,306
1,55,123,98
1,48,127,126
1,52,95,352
1,53,123,210
1,53,115,226
1,55,115,160
1,48,127,156
1,52,127,256
1,53,115,224
1,53,107,304
1,55,123,96
1,48,127,128
1,52,95,352
1,53,123,212
1,53,115,224
1,55,115,156
1,45,127,160
1,40,127,44
1,41,127,52
1,41,123,128
1,43,107,18
1,45,127,30
1,40,127,34
1,41,127,48
1,41,107,48
1,43,127,16
1,48,127,144
1,52,95,352
1,53,123,208
1,53,115,224
1,55,115,156
1,48,127,162
1,52,127,256
1,53,115,228
1,53,107,304
1,55,123,98
1,48,127,128
1,52,95,354
1,53,123,206
1,53,115,224
1,55,115,154
1,45,127,162
1,40,127,46
1,41,127,48
1,41,123,128
1,43,107,16
1,45,127,32
1,40,127,34
1,41,127,48
1,41,107,50
1,43,127,18
1,57,127,142
1,49,127,544
1,52,127,160
1,57,127,142
1,53,127,544
1,50,127,184
1,57,103,180
1,49,127,546
1,52,107,182
1,53,127,180
1,52,123,572
1,50,127,182
1,57,107,216
1,49,127,540
1,52,103,156
1,50,127,188
1,50,123,608
1,53,103,212
1,55,103,210
1,55,95,526
1,59,91,176
1,60,95,178
1,48,107,482
1,51,123,112
1,53,127,206
1,53,123,546
1,53,123,210
1,51,107,208
1,51,127,512
1,51,127,226
1,53,127,208
1,53,107,574
1,51,123,160
1,50,99,34
1,48,127,96
1,52,95,352
1,53,123,208
1,53,115,224
1,55,115,162
1,48,127,160
1,52,127,258
1,53,115,220
1,53,107,300
1,55,123,98
1,48,127,128
1,52,95,350
1,53,123,204
1,53,115,224
1,55,115,160
1,45,127,162
1,40,127,50
1,41,127,46
1,41,123,128
1,43,107,18
1,45,127,32
1,40,127,34
1,41,127,50
1,41,107,48
1,43,127,18
1,45,127,142
1,43,127,48
1,41,127,74
1,48,127,1298
1,52,95,350
1,53,123,208
1,53,115,220
1,55,115,156
1,48,127,158
1,52,127,254
1,53,115,224
1,53,107,306
1,55,123,96
1,48,127,130
1,52,95,354
1,53,123,210
1,53,115,224
1,55,115,162
1,45,127,160
1,40,127,48
1,41,127,50
1,41,123,128
1,43,107,16
1,45,127,32
1,40,127,40
1,41,127,44
1,41,107,50
1,43,127,18
1,48,127,142
1,52,95,348
1,53,123,208
1,53,115,226
1,55,115,156
1,48,127,158
1,52,127,260
1,53,115,226
1,53,107,304
1,55,123,98
1,48,127,130
1,52,95,352
1,53,123,206
1,53,115,224
1,55,115,162
1,45,127,162
1,40,127,46
1,41,127,48
1,41,123,128
1,43,107,22
1,57,127,44
1,55,127,100
1,53,127,64
2,36,87,1580
2,40,87,50
2,41,75,96
2,41,87,144
2,43,87,82
2,36,87,64
2,40,87,114
2,41,87,144
2,41,87,128
2,43,87,18
2,36,87,98
2,40,87,50
2,41,75,98
2,41,87,144
2,43,87,80
2,36,87,66
2,40,87,18
2,41,87,146
2,41,87,126
2,43,87,32
2,36,87,140
2,40,87,50
2,41,75,96
2,41,87,142
2,43,87,80
2,45,87,66
2,40,87,82
2,41,67,50
2,41,83,82
2,43,59,50
2,45,87,48
2,40,87,48
2,41,87,18
2,41,67,128
2,43,87,0
2,36,87,130
2,40,87,50
2,41,75,96
2,41,87,144
2,43,87,82
2,36,87,66
2,40,87,114
2,41,87,144
2,41,87,128
2,43,87,34
2,36,87,144
2,40,87,50
2,41,75,96
2,41,87,144
2,43,87,82
2,45,87,66
2,40,87,80
2,41,67,50
2,41,83,80
2,43,59,50
2,36,87,50
2,40,87,50
2,41,75,96
2,41,87,142
2,43,87,80
2,36,87,64
2,40,87,112
2,41,87,138
2,41,87,130
2,43,87,32
2,36,87,146
2,40,87,50
2,41,75,98
2,41,87,146
2,43,87,82
2,45,87,66
2,40,87,80
2,41,67,50
2,41,83,82
2,43,59,50
2,45,87,48
2,40,87,48
2,41,87,18
2,41,67,128
2,43,87,2
2,45,87,130
2,37,87,450
2,40,67,130
2,45,87,162
2,41,87,512
2,38,63,206
2,45,87,130
2,37,87,434
2,40,87,114
2,41,87,144
2,40,87,432
2,38,87,176
2,45,87,226
2,37,87,434
2,40,87,98
2,38,87,144
2,38,55,418
2,41,83,130
2,43,87,142
2,43,67,418
2,47,67,126
2,48,87,160
2,48,83,400
2,51,87,144
2,93,15,0
2,87,1,610
2,41,87,290
2,53,83,546
2,51,87,178
2,50,59,64
2,88,83,82
2,84,83,0
2,83,71,18
2,86,71,2
2,84,59,48
2,81,59,2
2,83,43,50
2,79,43,2
2,81,31,18
2,77,31,0
2,79,19,66
2,76,19,4
2,77,7,18
2,81,7,0
2,84,51,306
2,88,51,0
2,83,43,12
2,86,31,0
2,81,47,16
2,84,31,2
2,84,1,30
2,88,47,4
2,77,11,146
2,81,27,0
2,36,87,2
2,40,87,50
2,41,75,32
2,41,87,144
2,43,87,80
2,36,87,66
2,40,87,114
2,41,87,142
2,41,87,130
2,43,87,34
2,36,87,144
2,40,87,50
2,41,75,98
2,41,87,146
2,43,87,82
2,45,87,66
2,40,87,80
2,41,67,48
2,41,83,84
2,43,59,54
2,45,87,56
2,40,87,50
2,41,87,18
2,41,67,128
2,43,87,0
2,36,87,126
2,40,87,50
2,41,75,98
2,41,87,144
2,43,87,80
2,36,87,66
2,40,87,114
2,41,87,144
2,41,87,130
2,43,87,32
2,36,87,144
2,40,87,50
2,41,75,98
2,41,87,144
2,43,87,82
2,45,87,64
2,40,87,80
2,41,67,48
2,41,83,82
2,43,59,50
2,45,87,48
2,40,87,48
2,41,87,18
2,41,67,128
2,43,87,0
2,45,87,130
2,37,87,450
2,40,67,130
2,45,87,164
2,41,87,528
2,38,63,206
2,45,87,174
2,37,87,428
2,40,87,110
2,41,87,142
2,40,87,432
2,38,87,178
2,45,87,224
2,37,87,428
2,40,87,98
2,38,87,142
2,38,55,416
2,41,83,130
2,43,87,142
2,43,67,418
2,47,67,128
2,48,87,162
2,48,83,402
2,51,87,142
2,93,59,0
2,87,23,1072
2,41,87,290
2,53,83,64
2,51,87,176
2,50,59,16
2,88,47,208
2,84,43,0
2,83,23,0
2,86,35,0
2,81,35,2
2,84,35,2
2,83,35,64
2,79,27,0
2,81,35,36
2,77,43,0
2,79,31,50
2,76,31,0
2,77,15,18
2,81,35,2
2,88,47,1618
2,84,43,0
2,83,15,44
2,86,27,2
2,81,23,16
2,84,27,0
2,88,43,40
2,81,11,172
2,77,7,0
2,79,1,1512
2,88,35,98
2,84,1,0
2,86,7,40
2,83,15,0
2,84,39,0
2,81,23,0
2,83,31,90
2,79,27,0
2,81,31,48
2,77,19,0
2,76,19,70
2,79,19,2
2,81,31,16
2,77,3,2
2,88,7,30
2,76,1,0
2,88,11,50
2,76,1,0
2,88,15,0
2,76,1,0
2,88,19,0
2,88,27,0
2,76,1,0
2,88,31,0
2,76,1,0
2,76,1,0
2,88,35,4
2,88,39,0
2,76,1,0
2,88,43,0
2,76,1,0
2,88,55,2
2,76,1,0
2,76,1,4
2,88,75,2
2,88,79,0
2,76,1,0
2,76,1,0
2,88,87,12
2,76,1,0
2,72,1,0
2,84,23,4
2,81,67,36
2,69,1,0
2,84,87,66
2,81,87,18
2,79,51,1696
2,79,43,50
2,81,67,0
2,79,55,14
2,60,87,114
2,89,1,0
2,86,1,0
2,89,1,96
2,86,1,0
2,89,1,96
2,86,1,0
2,86,1,98
2,89,1,0
2,88,63,0
2,86,55,4
2,91,43,0
2,88,87,0
2,86,83,652
2,84,35,20
2,84,27,16
2,86,87,670
2,84,1,0
2,91,55,10
2,91,55,48
2,91,51,48
2,91,43,32
2,91,43,48
2,91,31,44
2,89,7,176
2,88,3,14
2,86,1,10
2,84,1,0
2,83,1,0
2,69,51,62
2,72,31,16
2,81,47,96
2,79,47,0
2,76,87,54
2,72,1,178
3,79,87,1770
3,84,79,0
3,76,87,0
3,84,79,318
3,76,79,0
3,79,83,0
3,84,71,322
3,83,71,0
3,79,83,0
3,76,79,0
3,79,95,322
3,76,91,0
3,83,83,2
3,84,79,2
3,84,75,330
3,81,83,0
3,77,87,0
3,84,71,322
3,77,71,0
3,81,79,0
3,84,71,322
3,81,83,0
3,77,79,0
3,79,91,322
3,77,95,0
3,84,87,2
3,76,95,336
3,79,103,0
3,84,91,0
3,84,87,336
3,76,91,0
3,79,95,0
3,84,83,322
3,79,95,0
3,76,87,0
3,83,63,0
3,79,99,322
3,76,99,0
3,83,91,0
3,84,87,0
3,81,99,334
3,77,95,0
3,84,83,0
3,81,95,322
3,77,91,0
3,84,83,0
3,84,83,320
3,81,95,0
3,77,91,0
3,79,99,320
3,84,91,0
3,77,103,0
3,76,87,338
3,84,79,2
3,79,87,2
3,84,79,320
3,76,79,0
3,79,83,0
3,84,71,322
3,83,71,0
3,79,83,0
3,76,79,0
3,84,79,322
3,83,83,0
3,79,95,0
3,76,91,0
3,77,87,332
3,81,83,2
3,84,75,4
3,84,71,322
3,77,71,0
3,81,79,0
3,77,79,320
3,81,83,2
3,84,71,2
3,77,95,320
3,79,91,2
3,84,87,2
3,76,95,336
3,79,103,0
3,84,91,0
3,84,87,336
3,76,91,0
3,79,95,0
3,84,83,320
3,79,95,0
3,76,87,0
3,83,63,0
3,84,87,320
3,83,91,0
3,76,99,0
3,79,99,0
3,81,99,332
3,77,95,0
3,84,83,0
3,81,95,320
3,77,91,0
3,84,83,0
3,84,83,320
3,81,95,0
3,77,91,0
3,79,99,320
3,84,91,0
3,77,103,0
3,76,87,338
3,79,87,2
3,84,79,0
3,84,79,320
3,76,79,0
3,79,83,0
3,84,71,322
3,83,71,0
3,79,83,0
3,76,79,0
3,84,79,322
3,83,83,0
3,79,95,0
3,76,91,0
3,84,75,334
3,81,83,0
3,77,87,0
3,84,71,320
3,77,71,0
3,81,79,0
3,84,71,322
3,81,83,0
3,77,79,0
3,84,87,322
3,79,91,0
3,77,95,0
3,76,95,334
3,79,103,0
3,84,91,0
3,84,87,336
3,76,91,0
3,79,95,0
3,84,83,322
3,79,95,0
3,76,87,0
3,83,63,0
3,79,99,322
3,76,99,2
3,83,91,2
3,84,87,2
3,81,99,334
3,77,95,0
3,84,83,0
3,81,95,322
3,77,91,0
3,84,83,0
3,84,83,320
3,81,95,0
3,77,91,0
3,79,99,320
3,84,91,0
3,77,103,0
3,79,87,334
3,84,79,0
3,76,87,0
3,84,79,322
3,76,79,0
3,79,83,0
3,84,71,322
3,83,71,0
3,79,83,0
3,76,79,0
3,76,91,322
3,79,95,0
3,83,83,0
3,84,79,0
3,84,75,332
3,81,83,0
3,77,87,0
3,84,71,320
3,77,71,0
3,81,79,0
3,84,71,322
3,81,83,0
3,77,79,0
3,84,87,322
3,79,91,0
3,77,95,0
3,76,95,334
3,79,103,0
3,84,91,0
3,84,87,336
3,76,91,0
3,79,95,0
3,84,83,322
3,79,95,0
3,76,87,0
3,83,63,0
3,84,87,322
3,83,91,0
3,76,99,0
3,79,99,0
3,81,99,334
3,77,95,0
3,84,83,0
3,81,95,322
3,77,91,0
3,84,83,0
3,84,83,322
3,81,95,0
3,77,91,0
3,79,99,322
3,84,91,0
3,77,103,0
3,79,87,334
3,84,79,0
3,76,87,0
3,84,79,320
3,76,79,0
3,79,83,0
3,84,71,322
3,83,71,0
3,79,83,0
3,76,79,0
3,84,79,320
3,83,83,0
3,79,95,0
3,76,91,0
3,77,87,334
3,81,83,2
3,84,75,4
3,77,71,322
3,81,79,0
3,84,71,2
3,81,83,322
3,77,79,0
3,84,71,4
3,84,87,320
3,79,91,0
3,77,95,0
3,76,95,336
3,79,103,0
3,84,91,0
3,84,87,332
3,76,91,0
3,79,95,0
3,83,63,322
3,76,87,2
3,79,95,2
3,84,83,2
3,84,87,322
3,83,91,0
3,76,99,0
3,79,99,0
3,81,99,336
3,77,95,0
3,84,83,0
3,84,83,320
3,77,91,2
3,81,95,4
3,84,83,322
3,81,95,0
3,77,91,0
3,79,99,322
3,84,91,0
3,77,103,0
3,79,87,334
3,84,79,0
3,76,87,0
3,84,79,320
3,76,79,0
3,79,83,0
3,84,71,320
3,83,71,0
3,79,83,0
3,76,79,0
3,76,91,322
3,79,95,4
3,83,83,2
3,84,79,2
3,84,75,334
3,81,83,0
3,77,87,0
3,84,71,322
3,77,71,0
3,81,79,0
3,84,71,320
3,81,83,0
3,77,79,0
3,84,87,320
3,79,91,0
3,77,95,0
3,84,91,336
3,79,103,2
3,76,95,2
3,84,87,336
3,76,91,0
3,79,95,0
3,84,83,322
3,79,95,0
3,76,87,0
3,83,63,0
3,84,87,322
3,83,91,0
3,76,99,0
3,79,99,0
3,81,99,334
3,77,95,0
3,84,83,0
3,81,95,322
3,77,91,0
3,84,83,0
3,84,83,322
3,81,95,0
3,77,91,0
3,79,99,322
3,84,91,0
3,77,103,0
3,79,87,334
3,84,79,0
3,76,87,0
3,84,79,320
3,76,79,0
3,79,83,0
3,84,71,322
3,83,71,0
3,79,83,0
3,76,79,0
3,84,79,318
3,83,83,0
3,79,95,0
3,76,91,0
3,84,75,334
3,81,83,0
3,77,87,0
3,84,71,322
3,77,71,0
3,81,79,0
3,84,71,320
3,81,83,0
3,77,79,0
3,84,87,322
3,79,91,0
3,77,95,0
3,76,95,334
3,79,103,0
3,84,91,0
3,84,87,332
3,76,91,0
3,79,95,0
3,84,83,320
3,79,95,0
3,76,87,0
3,83,63,0
3,79,99,318
3,76,99,2
3,83,91,2
3,84,87,2
3,81,99,332
3,77,95,0
3,84,83,0
3,81,95,322
3,77,91,0
3,84,83,0
3,84,83,320
3,81,95,0
3,77,91,0
3,79,99,322
3,84,91,0
3,77,103,0
3,79,87,336
3,84,79,0
3,76,87,0
3,84,79,320
3,76,79,0
3,79,83,0
3,84,71,322
3,83,71,0
3,79,83,0
3,76,79,0
3,76,91,322
3,79,95,2
3,83,83,0
3,84,79,2
3,84,75,334
3,81,83,0
3,77,87,0
3,84,71,320
3,77,71,0
3,81,79,0
3,84,71,320
3,81,83,0
3,77,79,0
3,84,87,320
3,79,91,0
3,77,95,0
3,76,95,334
3,79,103,0
3,84,91,0
