track,note,velocity,time
2,63,64,480
2,71,73,0
2,68,66,0
2,56,110,6
2,56,0,20
2,56,102,56
2,63,0,4
2,68,0,0
2,71,0,0
2,56,0,10
2,68,61,24
2,73,64,0
2,64,69,0
2,56,110,1
2,56,0,20
2,56,95,55
2,68,0,10
2,64,0,0
2,73,0,0
2,56,0,4
2,63,63,30
2,66,69,0
2,70,71,0
2,56,111,1
2,56,0,18
2,56,110,58
2,63,0,9
2,70,0,0
2,66,0,0
2,56,0,6
2,63,62,28
2,68,68,0
2,71,70,0
2,56,111,4
2,56,0,18
2,56,110,59
2,63,0,5
2,71,0,0
2,68,0,0
2,56,0,9
2,68,63,25
2,63,63,0
2,71,73,0
2,56,110,3
2,56,0,17
2,56,110,59
2,68,0,7
2,71,0,0
2,63,0,0
2,56,0,9
2,68,65,25
2,64,69,0
2,73,69,0
2,56,110,2
2,56,0,19
2,56,102,56
2,68,0,9
2,73,0,0
2,64,0,0
2,56,0,6
2,68,63,28
2,73,66,0
2,76,75,0
2,56,95,0
2,56,0,18
2,56,110,56
2,68,0,12
2,76,0,0
2,73,0,0
2,56,0,3
2,56,111,27
2,71,81,4
2,68,67,0
2,75,66,0
2,56,0,12
2,56,110,62
2,71,0,12
2,75,0,0
2,68,0,0
2,56,0,3
2,56,102,29
2,63,64,2
2,71,73,0
2,68,66,0
2,56,0,15
2,56,102,59
2,63,0,12
2,68,0,0
2,71,0,0
2,56,0,2
2,56,111,31
2,68,61,1
2,73,64,0
2,64,69,0
2,56,0,15
2,56,111,60
2,68,0,11
2,64,0,0
2,73,0,0
2,56,0,5
2,63,63,29
2,66,69,0
2,70,71,0
2,56,110,0
2,56,0,15
2,56,110,59
2,63,0,12
2,70,0,0
2,66,0,0
2,56,0,4
2,56,110,29
2,63,62,1
2,68,68,0
2,71,70,0
2,56,0,15
2,56,110,64
2,63,0,7
2,71,0,0
2,68,0,0
2,56,0,7
2,68,63,27
2,63,63,0
2,71,73,0
2,56,95,1
2,56,0,18
2,56,111,58
2,68,0,9
2,71,0,0
2,63,0,0
2,56,0,6
2,68,65,28
2,64,69,0
2,73,69,0
2,56,95,2
2,56,0,16
2,56,111,61
2,68,0,7
2,73,0,0
2,64,0,0
2,56,0,8
2,68,63,26
2,73,66,0
2,76,75,0
2,56,110,5
2,56,0,16
2,56,111,59
2,68,0,6
2,76,0,0
2,73,0,0
2,56,0,8
2,71,81,26
2,68,67,0
2,75,66,0
2,56,111,7
2,56,0,17
2,56,127,59
2,71,0,3
2,75,0,0
2,68,0,0
2,56,0,12
2,63,64,22
2,71,73,0
2,68,66,0
2,56,110,6
2,56,0,20
2,56,102,56
2,63,0,4
2,68,0,0
2,71,0,0
2,56,0,10
2,68,61,24
2,73,64,0
2,64,69,0
2,56,110,1
2,56,0,20
2,56,95,55
2,68,0,10
2,64,0,0
2,73,0,0
2,56,0,4
2,63,63,30
2,66,69,0
2,70,71,0
2,56,111,1
2,56,0,18
2,56,110,58
2,63,0,9
2,70,0,0
2,66,0,0
2,56,0,6
2,63,62,28
2,68,68,0
2,71,70,0
2,56,111,4
2,56,0,18
2,56,110,59
2,63,0,5
2,71,0,0
2,68,0,0
2,56,0,9
2,68,63,25
2,63,63,0
2,71,73,0
2,56,110,3
2,56,0,17
2,56,110,59
2,68,0,7
2,71,0,0
2,63,0,0
2,56,0,9
2,68,65,25
2,64,69,0
2,73,69,0
2,56,110,2
2,56,0,19
2,56,102,56
2,68,0,9
2,73,0,0
2,64,0,0
2,56,0,6
2,68,63,28
2,73,66,0
2,76,75,0
2,56,95,0
2,56,0,18
2,56,110,56
2,68,0,12
2,76,0,0
2,73,0,0
2,56,0,3
2,56,111,27
2,71,81,4
2,68,67,0
2,75,66,0
2,56,0,12
2,56,110,62
2,71,0,12
2,75,0,0
2,68,0,0
2,56,0,3
2,56,102,29
2,63,64,2
2,71,73,0
2,68,66,0
2,56,0,15
2,56,102,59
2,63,0,12
2,68,0,0
2,71,0,0
2,56,0,2
2,56,111,31
2,68,61,1
2,73,64,0
2,64,69,0
2,56,0,15
2,56,111,60
2,68,0,11
2,64,0,0
2,73,0,0
2,56,0,5
2,63,63,29
2,66,69,0
2,70,71,0
2,56,110,0
2,56,0,15
2,56,110,59
2,63,0,12
2,70,0,0
2,66,0,0
2,56,0,4
2,56,110,29
2,63,62,1
2,68,68,0
2,71,70,0
2,56,0,15
2,56,110,64
2,63,0,7
2,71,0,0
2,68,0,0
2,56,0,7
2,68,63,27
2,63,63,0
2,71,73,0
2,56,95,1
2,56,0,18
2,56,111,58
2,68,0,9
2,71,0,0
2,63,0,0
2,56,0,6
2,68,65,28
2,64,69,0
2,73,69,0
2,56,95,2
2,56,0,16
2,56,111,61
2,68,0,7
2,73,0,0
2,64,0,0
2,56,0,8
2,68,63,26
2,73,66,0
2,76,75,0
2,56,110,5
2,56,0,16
2,56,111,59
2,68,0,6
2,76,0,0
2,73,0,0
2,56,0,8
2,71,81,26
2,68,67,0
2,75,66,0
2,56,111,7
2,56,0,17
2,56,127,59
2,71,0,3
2,75,0,0
2,68,0,0
2,56,0,12
2,65,64,22
2,73,73,0
2,70,66,0
2,58,110,6
2,58,0,20
2,58,102,56
2,65,0,4
2,70,0,0
2,73,0,0
2,58,0,10
2,70,61,24
2,75,64,0
2,66,69,0
2,58,110,1
2,58,0,20
2,58,95,55
2,70,0,10
2,66,0,0
2,75,0,0
2,58,0,4
2,65,63,30
2,68,69,0
2,72,71,0
2,58,111,1
2,58,0,18
2,58,110,58
2,65,0,9
2,72,0,0
2,68,0,0
2,58,0,6
2,65,62,28
2,70,68,0
2,73,70,0
2,58,111,4
2,58,0,18
2,58,110,59
2,65,0,5
2,73,0,0
2,70,0,0
2,58,0,9
2,70,63,25
2,65,63,0
2,73,73,0
2,58,110,3
2,58,0,17
2,58,110,59
2,70,0,7
2,73,0,0
2,65,0,0
2,58,0,9
2,70,65,25
2,66,69,0
2,75,69,0
2,58,110,2
2,58,0,19
2,58,102,56
2,70,0,9
2,75,0,0
2,66,0,0
2,58,0,6
2,70,63,28
2,75,66,0
2,78,75,0
2,58,95,0
2,58,0,18
2,58,110,56
2,70,0,12
2,78,0,0
2,75,0,0
2,58,0,3
2,58,111,27
2,73,81,4
2,70,67,0
2,77,66,0
2,58,0,12
2,58,110,62
2,73,0,12
2,77,0,0
2,70,0,0
2,58,0,3
2,58,102,29
2,65,64,2
2,73,73,0
2,70,66,0
2,58,0,15
2,58,102,59
2,65,0,12
2,70,0,0
2,73,0,0
2,58,0,2
2,58,111,31
2,70,61,1
2,75,64,0
2,66,69,0
2,58,0,15
2,58,111,60
2,70,0,11
2,66,0,0
2,75,0,0
2,58,0,5
2,65,63,29
2,68,69,0
2,72,71,0
2,58,110,0
2,58,0,15
2,58,110,59
2,65,0,12
2,72,0,0
2,68,0,0
2,58,0,4
2,58,110,29
2,65,62,1
2,70,68,0
2,73,70,0
2,58,0,15
2,58,110,64
2,65,0,7
2,73,0,0
2,70,0,0
2,58,0,7
2,70,63,27
2,65,63,0
2,73,73,0
2,58,95,1
2,58,0,18
2,58,111,58
2,70,0,9
2,73,0,0
2,65,0,0
2,58,0,6
2,70,65,28
2,66,69,0
2,75,69,0
2,58,95,2
2,58,0,16
2,58,111,61
2,70,0,7
2,75,0,0
2,66,0,0
2,58,0,8
2,70,63,26
2,75,66,0
2,78,75,0
2,58,110,5
2,58,0,16
2,58,111,59
2,70,0,6
2,78,0,0
2,75,0,0
2,58,0,8
2,73,81,26
2,70,67,0
2,77,66,0
2,58,111,7
2,58,0,17
2,58,127,59
2,73,0,3
2,77,0,0
2,70,0,0
2,58,0,12
2,75,80,32
2,60,75,0
2,72,78,1
2,67,64,2
2,67,0,91
2,72,0,2
2,75,0,0
2,72,81,17
2,77,84,2
2,68,69,1
2,77,0,87
2,68,0,7
2,72,0,1
2,72,78,20
2,75,64,1
2,67,67,0
2,75,0,92
2,72,0,7
2,67,0,2
2,74,84,21
2,70,78,0
2,67,69,1
2,74,0,94
2,67,0,1
2,70,0,2
2,67,64,22
2,75,80,2
2,72,81,1
2,72,0,93
2,75,0,1
2,67,0,1
2,72,74,23
2,68,46,3
2,77,77,1
2,77,0,86
2,68,0,3
2,72,0,0
2,75,78,23
2,72,84,1
2,67,75,1
2,75,0,100
2,72,0,2
2,67,0,3
2,74,75,19
2,70,69,2
2,67,66,0
2,74,0,90
2,67,0,3
2,70,0,2
2,75,80,20
2,67,66,2
2,72,77,0
2,67,0,101
2,72,0,1
2,75,0,1
2,72,75,16
2,77,75,2
2,68,65,3
2,77,0,81
2,68,0,5
2,72,0,3
2,75,65,22
2,67,70,3
2,72,69,0
2,75,0,93
2,72,0,9
2,67,0,2
2,74,77,23
2,70,75,0
2,67,69,0
2,74,0,91
2,67,0,2
2,70,0,1
2,75,80,21
2,67,67,1
2,72,74,2
2,67,0,94
2,75,0,2
2,72,0,5
2,72,89,16
2,68,65,3
2,77,83,0
2,77,0,85
2,68,0,2
2,72,0,5
2,75,75,23
2,67,69,1
2,72,83,1
2,75,0,84
2,72,0,7
2,67,0,1
2,74,89,22
2,67,77,2
2,70,80,1
2,70,0,107
2,67,0,1
2,74,0,3
2,60,0,6
2,72,73,0
2,63,64,0
2,68,66,0
2,56,110,6
2,56,0,20
2,56,102,56
2,72,0,4
2,68,0,0
2,63,0,0
2,56,0,10
2,65,69,24
2,68,61,0
2,73,64,0
2,56,110,1
2,56,0,20
2,56,95,55
2,65,0,10
2,73,0,0
2,68,0,0
2,56,0,4
2,67,69,30
2,63,63,0
2,70,71,0
2,56,111,1
2,56,0,18
2,56,110,58
2,67,0,9
2,70,0,0
2,63,0,0
2,56,0,6
2,72,70,28
2,63,62,0
2,68,68,0
2,56,111,4
2,56,0,18
2,56,110,59
2,72,0,5
2,68,0,0
2,63,0,0
2,56,0,9
2,72,73,25
2,68,63,0
2,63,63,0
2,56,110,3
2,56,0,17
2,56,110,59
2,72,0,7
2,63,0,0
2,68,0,0
2,56,0,9
2,65,69,25
2,68,65,0
2,73,69,0
2,56,110,2
2,56,0,19
2,56,102,56
2,65,0,9
2,73,0,0
2,68,0,0
2,56,0,6
2,77,75,28
2,68,63,0
2,73,66,0
2,56,95,0
2,56,0,18
2,56,110,56
2,77,0,12
2,73,0,0
2,68,0,0
2,56,0,3
2,56,111,27
2,72,81,4
2,68,67,0
2,75,66,0
2,56,0,12
2,56,110,62
2,72,0,12
2,75,0,0
2,68,0,0
2,56,0,3
2,56,102,29
2,72,73,2
2,63,64,0
2,68,66,0
2,56,0,15
2,56,102,67
2,72,0,4
2,68,0,0
2,63,0,0
2,56,0,10
2,65,69,24
2,68,61,0
2,73,64,0
2,56,110,1
2,56,0,20
2,56,95,55
2,65,0,10
2,73,0,0
2,68,0,0
2,56,0,4
2,67,69,30
2,63,63,0
2,70,71,0
2,56,111,1
2,56,0,18
2,56,110,58
2,67,0,9
2,70,0,0
2,63,0,0
2,56,0,6
2,72,70,28
2,63,62,0
2,68,68,0
2,56,111,4
2,56,0,18
2,56,110,59
2,72,0,5
2,68,0,0
2,63,0,0
2,56,0,9
2,72,73,25
2,68,63,0
2,63,63,0
2,56,110,3
2,56,0,17
2,56,110,59
2,72,0,7
2,63,0,0
2,68,0,0
2,56,0,9
2,65,69,25
2,68,65,0
2,73,69,0
2,56,110,2
2,56,0,19
2,56,102,56
2,65,0,9
2,73,0,0
2,68,0,0
2,56,0,6
2,77,75,28
2,68,63,0
2,73,66,0
2,56,95,0
2,56,0,18
2,56,110,56
2,77,0,12
2,73,0,0
2,68,0,0
2,56,0,3
2,56,111,27
2,72,81,4
2,68,67,0
2,75,66,0
2,56,0,12
2,56,110,62
2,72,0,12
2,75,0,0
2,68,0,0
2,56,0,3
2,72,73,31
2,63,64,0
2,68,66,0
2,56,110,6
2,56,0,20
2,56,102,56
2,72,0,4
2,68,0,0
2,63,0,0
2,56,0,10
2,65,69,24
2,68,61,0
2,73,64,0
2,56,110,1
2,56,0,20
2,56,95,55
2,65,0,10
2,73,0,0
2,68,0,0
2,56,0,4
2,67,69,30
2,63,63,0
2,70,71,0
2,56,111,1
2,56,0,18
2,56,110,58
2,67,0,9
2,70,0,0
2,63,0,0
2,56,0,6
2,72,70,28
2,63,62,0
2,68,68,0
2,56,111,4
2,56,0,18
2,56,110,59
2,72,0,5
2,68,0,0
2,63,0,0
2,56,0,9
2,72,73,25
2,68,63,0
2,63,63,0
2,56,110,3
2,56,0,17
2,56,110,59
2,72,0,7
2,63,0,0
2,68,0,0
2,56,0,9
2,65,69,25
2,68,65,0
2,73,69,0
2,56,110,2
2,56,0,19
2,56,102,56
2,65,0,9
2,73,0,0
2,68,0,0
2,56,0,6
2,77,75,28
2,68,63,0
2,73,66,0
2,56,95,0
2,56,0,18
2,56,110,56
2,77,0,12
2,73,0,0
2,68,0,0
2,56,0,3
2,56,111,27
2,72,81,4
2,68,67,0
2,75,66,0
2,56,0,12
2,56,110,62
2,72,0,12
2,75,0,0
2,68,0,0
2,56,0,3
2,72,73,31
2,63,64,0
2,68,66,0
2,56,110,6
2,56,0,20
2,56,102,56
2,72,0,4
2,68,0,0
2,63,0,0
2,56,0,10
2,65,69,24
2,68,61,0
2,73,64,0
2,56,110,1
2,56,0,20
2,56,95,55
2,65,0,10
2,73,0,0
2,68,0,0
2,56,0,4
2,67,69,30
2,63,63,0
2,70,71,0
2,56,111,1
2,56,0,18
2,56,110,58
2,67,0,9
2,70,0,0
2,63,0,0
2,56,0,6
2,72,70,28
2,63,62,0
2,68,68,0
2,56,111,4
2,56,0,18
2,56,110,59
2,72,0,5
2,68,0,0
2,63,0,0
2,56,0,9
2,72,73,25
2,68,63,0
2,63,63,0
2,56,110,3
2,56,0,17
2,56,110,59
2,72,0,7
2,63,0,0
2,68,0,0
2,56,0,9
2,65,69,25
2,68,65,0
2,73,69,0
2,56,110,2
2,56,0,19
2,56,102,56
2,65,0,9
2,73,0,0
2,68,0,0
2,56,0,6
2,77,75,28
2,68,63,0
2,73,66,0
2,56,95,0
2,56,0,18
2,56,110,56
2,77,0,12
2,73,0,0
2,68,0,0
2,56,0,3
2,56,111,27
2,72,81,4
2,68,67,0
2,75,66,0
2,56,0,12
2,56,110,62
2,72,0,12
2,75,0,0
2,68,0,0
2,56,0,3
2,74,73,31
2,65,64,0
2,70,66,0
2,58,110,6
2,58,0,20
2,58,102,56
2,74,0,4
2,70,0,0
2,65,0,0
2,58,0,10
2,67,69,24
2,70,61,0
2,75,64,0
2,58,110,1
2,58,0,20
2,58,95,55
2,67,0,10
2,75,0,0
2,70,0,0
2,58,0,4
2,69,69,30
2,65,63,0
2,72,71,0
2,58,111,1
2,58,0,18
2,58,110,58
2,69,0,9
2,72,0,0
2,65,0,0
2,58,0,6
2,74,70,28
2,65,62,0
2,70,68,0
2,58,111,4
2,58,0,18
2,58,110,59
2,74,0,5
2,70,0,0
2,65,0,0
2,58,0,9
2,74,73,25
2,70,63,0
2,65,63,0
2,58,110,3
2,58,0,17
2,58,110,59
2,74,0,7
2,65,0,0
2,70,0,0
2,58,0,9
2,67,69,25
2,70,65,0
2,75,69,0
2,58,110,2
2,58,0,19
2,58,102,56
2,67,0,9
2,75,0,0
2,70,0,0
2,58,0,6
2,79,75,28
2,70,63,0
2,75,66,0
2,58,95,0
2,58,0,18
2,58,110,56
2,79,0,12
2,75,0,0
2,70,0,0
2,58,0,3
2,58,111,27
2,74,81,4
2,70,67,0
2,77,66,0
2,58,0,12
2,58,110,62
2,74,0,12
2,77,0,0
2,70,0,0
2,58,0,3
2,58,102,29
2,74,73,2
2,65,64,0
2,70,66,0
2,58,110,6
2,58,0,9
2,58,0,11
2,58,102,56
2,74,0,4
2,70,0,0
2,65,0,0
2,58,0,10
2,67,69,24
2,70,61,0
2,75,64,0
2,58,110,1
2,58,0,20
2,58,95,55
2,67,0,10
2,75,0,0
2,70,0,0
2,58,0,4
