track,note,velocity,time
1,47,100,7008
1,47,100,0
1,47,100,0
1,47,100,0
1,47,100,0
1,47,100,0
1,47,100,0
1,47,100,0
1,47,100,0
1,47,100,0
1,47,100,0
1,47,100,0
1,47,100,0
1,47,100,0
1,47,100,0
1,47,100,0
1,47,100,0
1,47,100,0
1,47,100,0
1,47,100,0
1,47,100,0
1,47,100,0
1,47,100,0
1,47,100,0
1,47,100,0
1,47,100,0
1,47,100,0
1,47,100,0
1,47,100,0
1,47,100,0
1,47,100,0
1,47,100,0
1,47,100,0
1,47,100,0
1,47,100,0
1,47,100,0
1,47,100,0
1,47,100,0
1,47,100,0
1,47,100,0
1,47,100,0
1,47,100,0
1,47,100,0
1,47,100,0
1,47,100,0
1,47,100,0
1,47,100,0
1,47,100,0
1,47,100,0
1,47,100,0
1,47,100,0
1,47,100,0
1,47,100,0
1,47,100,0
1,47,100,0
1,47,100,0
1,47,100,0
1,47,100,0
1,47,100,0
1,47,100,0
1,47,100,0
1,47,100,0
1,47,100,0
1,47,100,0
1,47,100,0
1,47,100,0
1,47,100,0
1,47,100,0
1,47,100,0
1,47,100,0
1,47,100,0
1,47,100,0
1,47,100,0
1,47,100,0
1,47,100,0
1,47,100,0
1,47,100,0
1,47,100,0
1,47,100,0
1,47,100,0
1,47,100,0
1,47,100,0
1,47,100,0
1,47,100,0
1,47,100,0
1,47,100,0
1,47,100,0
1,47,100,0
1,47,100,0
1,47,100,0
1,47,100,0
1,47,100,0
1,47,100,0
1,47,100,0
1,47,100,0
1,47,100,0
1,47,100,0
1,47,100,0
1,47,100,0
1,47,100,0
1,47,100,0
1,47,100,0
1,47,100,0
1,47,100,0
1,47,100,0
1,47,100,0
1,47,100,0
1,47,100,0
1,47,100,0
1,47,100,0
1,47,100,0
1,47,100,0
1,47,100,0
1,47,100,0
1,47,100,0
1,47,100,0
1,47,100,0
1,47,100,0
1,47,100,0
1,47,100,0
1,47,100,0
1,47,100,0
1,47,100,0
1,47,100,0
1,47,100,0
1,47,100,0
1,47,100,0
1,47,100,0
1,47,100,0
1,47,100,0
1,47,100,0
1,47,100,0
1,47,100,0
1,47,100,0
1,47,100,0
1,47,100,0
1,47,100,0
1,47,100,0
1,47,100,0
1,47,100,0
1,47,100,0
1,47,100,0
1,47,100,0
1,47,100,0
1,47,100,0
1,47,100,0
1,47,100,0
1,47,100,0
1,47,100,0
1,47,100,0
1,47,100,0
1,47,100,0
1,47,100,0
1,47,100,0
1,47,100,0
1,47,100,0
1,47,100,0
1,47,100,0
1,47,100,0
1,47,100,0
1,47,100,0
1,47,100,0
1,47,100,0
1,47,100,0
1,47,100,0
1,47,100,0
1,47,100,0
1,48,100,0
1,48,100,0
1,48,100,0
1,48,100,0
1,48,100,0
1,48,100,0
1,48,100,0
1,48,100,0
1,48,100,0
1,48,100,0
1,48,100,0
1,48,100,0
1,48,100,0
1,48,100,0
1,48,100,0
1,48,100,0
1,48,100,0
1,48,100,0
1,48,100,0
1,48,100,0
1,48,100,0
1,48,100,0
1,48,100,0
1,48,100,0
1,48,100,0
1,48,100,0
1,48,100,0
1,48,100,0
1,48,100,0
1,48,100,0
1,48,100,0
1,48,100,0
1,48,100,0
1,48,100,0
1,48,100,0
1,48,100,0
1,48,100,0
1,48,100,0
1,48,100,0
1,48,100,0
1,48,100,0
1,48,100,0
1,48,100,0
1,48,100,0
1,48,100,0
1,48,100,0
1,48,100,0
1,48,100,0
1,48,100,0
1,48,100,0
1,48,100,0
1,48,100,0
1,48,100,0
1,48,100,0
1,48,100,0
1,48,100,0
1,48,100,0
1,48,100,0
1,48,100,0
1,48,100,0
1,48,100,0
1,48,100,0
1,48,100,0
1,48,100,0
1,47,100,0
1,47,100,0
1,47,100,0
1,47,100,0
1,47,100,0
1,47,100,0
1,47,100,0
1,47,100,0
1,47,100,0
1,47,100,0
1,47,100,0
1,47,100,0
1,47,100,0
1,47,100,0
1,47,100,0
1,42,100,0
1,42,100,0
1,42,100,0
1,42,100,0
1,42,100,0
1,42,100,0
1,42,100,0
1,42,100,0
1,47,100,0
1,47,100,0
1,47,100,0
1,47,100,0
1,47,100,0
1,47,100,0
1,47,100,0
1,47,100,0
1,47,100,0
1,47,100,0
1,47,100,0
1,47,100,0
1,47,100,0
1,47,100,0
1,47,100,0
1,47,100,0
1,47,100,0
1,40,100,960
1,40,100,960
1,48,100,768
1,48,100,0
1,48,100,0
1,48,100,0
1,48,100,0
1,48,100,0
1,48,100,0
1,48,100,0
1,48,100,0
1,48,100,0
1,48,100,0
1,48,100,0
1,48,100,0
1,48,100,0
1,48,100,0
1,48,100,0
1,40,100,960
1,40,100,960
1,40,100,960
1,45,100,576
1,46,100,576
1,46,100,0
1,42,100,0
1,47,100,0
1,47,100,0
1,47,100,0
1,47,100,0
1,47,100,0
1,47,100,0
1,47,100,0
1,47,100,0
1,47,100,0
1,47,100,0
1,47,100,0
1,47,100,0
1,47,100,0
1,47,100,0
1,47,100,0
1,47,100,0
1,47,100,0
1,47,100,0
1,47,100,0
1,47,100,0
1,47,100,0
1,47,100,0
1,47,100,0
1,47,100,0
1,47,100,0
1,47,100,0
1,47,100,0
1,47,100,0
1,47,100,0
1,47,100,0
1,47,100,0
1,47,100,0
1,47,100,0
1,47,100,0
1,47,100,0
1,47,100,0
1,47,100,0
1,47,100,0
1,47,100,0
1,47,100,0
1,47,100,0
1,47,100,0
1,47,100,0
1,47,100,0
1,47,100,0
1,47,100,0
1,47,100,0
1,47,100,0
1,47,100,0
1,47,100,0
1,47,100,0
1,47,100,0
1,47,100,0
1,47,100,0
1,47,100,0
1,47,100,0
1,47,100,0
1,47,100,0
1,47,100,0
1,47,100,0
1,47,100,0
1,47,100,0
1,47,100,0
1,47,100,0
1,47,100,0
1,47,100,0
1,47,100,0
1,47,100,0
1,47,100,0
1,47,100,0
1,47,100,0
1,47,100,0
1,47,100,0
1,47,100,0
1,47,100,0
1,47,100,0
1,47,100,0
1,47,100,0
1,47,100,0
1,47,100,0
1,47,100,0
1,47,100,0
1,47,100,0
1,47,100,0
1,47,100,0
1,47,100,0
1,47,100,0
1,47,100,0
1,47,100,0
1,47,100,0
1,47,100,0
1,47,100,0
1,47,100,0
1,47,100,0
1,47,100,0
1,47,100,0
1,47,100,0
1,47,100,0
1,47,100,0
1,47,100,0
1,47,100,0
1,47,100,0
1,47,100,0
1,47,100,0
1,48,100,0
1,48,100,0
1,48,100,0
1,48,100,0
1,48,100,0
1,48,100,0
1,48,100,0
1,48,100,0
1,48,100,0
1,48,100,0
1,48,100,0
1,48,100,0
1,48,100,0
1,48,100,0
1,48,100,0
1,48,100,0
1,48,100,0
1,48,100,0
1,48,100,0
1,48,100,0
1,48,100,0
1,48,100,0
1,48,100,0
1,48,100,0
1,48,100,0
1,48,100,0
1,48,100,0
1,48,100,0
1,48,100,0
1,48,100,0
1,48,100,0
1,48,100,0
1,48,100,0
1,48,100,0
1,48,100,0
1,48,100,0
1,48,100,0
1,48,100,0
1,48,100,0
1,48,100,0
1,48,100,0
1,48,100,0
1,48,100,0
1,48,100,0
1,48,100,0
1,48,100,0
1,48,100,0
1,48,100,0
1,48,100,0
1,48,100,0
1,48,100,0
1,48,100,0
1,48,100,0
1,48,100,0
1,48,100,0
1,48,100,0
1,48,100,0
1,48,100,0
1,48,100,0
1,48,100,0
1,48,100,0
1,48,100,0
1,48,100,0
1,48,100,0
1,47,100,0
1,47,100,0
1,47,100,0
1,47,100,0
1,47,100,0
1,47,100,0
1,47,100,0
1,47,100,0
1,47,100,0
1,47,100,0
1,47,100,0
1,47,100,0
1,47,100,0
1,47,100,0
1,47,100,0
1,47,100,0
1,42,100,0
1,42,100,0
1,42,100,0
1,42,100,0
1,42,100,0
1,42,100,0
1,42,100,0
1,47,100,0
1,47,100,0
1,47,100,0
1,47,100,0
1,47,100,0
1,47,100,0
1,47,100,0
1,47,100,0
1,47,100,0
1,47,100,0
1,47,100,0
1,47,100,0
1,47,100,0
1,47,100,0
1,47,100,0
1,47,100,0
1,47,100,0
1,40,100,960
1,40,100,960
1,48,100,768
1,48,100,0
1,48,100,0
1,48,100,0
1,48,100,0
1,48,100,0
1,48,100,0
1,48,100,0
1,48,100,0
1,48,100,0
1,48,100,0
1,48,100,0
1,48,100,0
1,48,100,0
1,48,100,0
1,48,100,0
1,40,100,960
1,40,100,960
1,40,100,960
1,45,100,576
1,45,100,0
1,46,100,192
1,46,100,0
1,42,100,0
1,47,100,0
1,47,100,0
1,47,100,0
1,47,100,0
1,47,100,0
1,47,100,0
1,47,100,0
1,47,100,0
1,47,100,0
1,47,100,0
1,47,100,0
1,47,100,0
1,47,100,0
1,47,100,0
1,47,100,0
1,47,100,0
1,47,100,0
1,47,100,0
1,47,100,0
1,47,100,0
1,47,100,0
1,47,100,0
1,47,100,0
1,47,100,0
1,47,100,0
1,47,100,0
1,47,100,0
1,47,100,0
1,47,100,0
1,47,100,0
1,47,100,0
1,47,100,0
1,47,100,0
1,47,100,0
1,47,100,0
1,47,100,0
1,47,100,0
1,47,100,0
1,47,100,0
1,47,100,0
1,47,100,0
1,47,100,0
1,47,100,0
1,47,100,0
1,47,100,0
1,47,100,0
1,47,100,0
1,47,100,0
1,47,100,0
1,47,100,0
1,47,100,0
1,47,100,0
1,47,100,0
1,47,100,0
1,47,100,0
1,47,100,0
1,47,100,0
1,47,100,0
1,47,100,0
1,47,100,0
1,47,100,0
1,47,100,0
1,47,100,0
1,47,100,0
1,47,100,0
1,47,100,0
1,47,100,0
1,47,100,0
1,47,100,0
1,47,100,0
1,47,100,0
1,47,100,0
1,47,100,0
1,47,100,0
1,47,100,0
1,47,100,0
1,47,100,0
1,47,100,0
1,47,100,0
1,47,100,0
1,47,100,0
1,47,100,0
1,47,100,0
1,47,100,0
1,47,100,0
1,47,100,0
1,47,100,0
1,47,100,0
1,47,100,0
1,47,100,0
1,47,100,0
1,47,100,0
1,47,100,0
1,47,100,0
1,47,100,0
1,47,100,0
1,47,100,0
1,47,100,0
1,47,100,0
1,47,100,0
1,47,100,0
1,47,100,0
1,47,100,0
1,47,100,0
1,47,100,0
1,47,100,0
1,47,100,0
1,47,100,0
1,47,100,0
1,47,100,0
1,47,100,0
1,47,100,0
1,47,100,0
1,47,100,0
1,47,100,0
1,47,100,0
1,47,100,0
1,47,100,0
1,47,100,0
1,47,100,0
1,47,100,0
1,47,100,0
1,47,100,0
1,47,100,0
1,47,100,0
1,47,100,0
1,47,100,0
1,47,100,0
1,47,100,0
1,47,100,0
1,47,100,0
1,47,100,0
1,47,100,0
1,47,100,0
1,47,100,0
1,47,100,0
1,47,100,0
1,47,100,0
1,47,100,0
1,47,100,0
1,47,100,0
1,47,100,0
1,47,100,0
1,47,100,0
1,47,100,0
1,47,100,0
1,47,100,0
1,47,100,0
1,47,100,0
1,47,100,0
1,47,100,0
1,47,100,0
1,47,100,0
1,47,100,0
1,47,100,0
1,47,100,0
1,47,100,0
1,47,100,0
1,47,100,0
1,47,100,0
1,47,100,0
1,47,100,0
1,47,100,0
1,47,100,0
1,47,100,0
1,47,100,0
1,47,100,0
1,47,100,0
1,47,100,0
1,47,100,0
1,47,100,0
1,47,100,0
1,47,100,0
1,47,100,0
1,47,100,0
1,47,100,0
1,47,100,0
1,47,100,0
1,47,100,0
1,47,100,0
1,47,100,0
1,47,100,0
1,47,100,0
1,47,100,0
1,47,100,0
1,47,100,0
1,47,100,0
1,47,100,0
1,47,100,0
1,47,100,0
1,47,100,0
1,47,100,0
1,47,100,0
1,47,100,0
1,47,100,0
1,47,100,0
1,47,100,0
1,47,100,0
1,47,100,0
1,47,100,0
1,47,100,0
1,47,100,0
1,47,100,0
1,47,100,0
1,47,100,0
1,47,100,0
1,47,100,0
1,47,100,0
1,47,100,0
1,47,100,0
1,47,100,0
1,47,100,0
1,47,100,0
1,47,100,0
1,47,100,0
1,47,100,0
1,47,100,0
1,47,100,0
1,47,100,0
1,47,100,0
1,47,100,0
1,47,100,0
1,47,100,0
1,47,100,0
1,47,100,0
1,47,100,0
1,47,100,0
1,47,100,0
1,47,100,0
1,47,100,0
1,47,100,0
1,47,100,0
1,47,100,0
1,47,100,0
1,47,100,0
1,47,100,0
1,47,100,0
1,47,100,0
1,47,100,0
1,47,100,0
1,47,100,0
1,47,100,0
1,47,100,0
1,47,100,0
1,47,100,0
1,47,100,0
1,47,100,0
1,47,100,0
1,47,100,0
1,47,100,0
1,47,100,0
1,47,100,0
1,47,100,0
1,47,100,0
1,47,100,0
1,47,100,0
1,47,100,0
1,47,100,0
2,73,107,12192
2,68,115,0
2,65,126,0
2,61,119,0
2,66,127,0
2,74,117,0
2,62,123,0
2,69,127,0
2,71,127,0
2,64,127,0
2,68,127,0
2,64,123,114
2,69,126,0
2,73,127,0
2,68,125,116
2,71,127,0
2,64,103,0
2,75,127,128
2,71,127,0
2,66,127,0
2,71,127,80
2,75,107,0
2,66,127,0
2,70,127,76
2,66,122,0
2,73,127,0
2,74,126,0
2,71,127,0
2,67,113,0
2,76,103,108
2,73,125,0
2,69,98,0
2,74,75,124
2,71,117,0
2,67,106,0
2,74,127,132
2,69,127,0
2,78,127,0
2,74,126,122
2,69,123,0
2,78,127,0
2,73,122,118
2,76,127,0
2,69,117,0
2,71,127,110
2,74,127,0
2,67,126,0
2,83,127,62
2,78,127,0
2,78,127,0
2,83,127,0
2,71,127,192
2,64,111,0
2,68,127,0
2,64,123,112
2,69,126,0
2,73,127,0
2,68,96,110
2,71,113,0
2,64,68,0
2,75,127,142
2,71,127,0
2,66,127,0
2,71,127,106
2,75,127,0
2,66,125,0
2,73,127,100
2,70,127,0
2,66,127,0
2,71,127,106
2,67,120,0
2,74,123,0
2,76,126,118
2,69,120,0
2,73,127,0
2,74,103,126
2,71,126,0
2,67,111,0
2,69,127,132
2,74,127,0
2,78,127,0
2,74,127,76
2,69,127,0
2,78,127,0
2,76,127,98
2,69,113,0
2,73,127,0
2,71,127,68
2,74,127,0
2,67,126,0
2,71,127,136
2,64,127,0
2,68,127,0
2,64,113,118
2,69,126,0
2,73,127,0
2,68,122,88
2,64,70,0
2,71,127,0
2,75,127,130
2,71,127,0
2,66,127,0
2,71,127,90
2,75,127,0
2,66,127,0
2,66,127,106
2,73,127,0
2,70,127,0
2,71,127,122
2,67,126,0
2,74,127,0
2,76,127,116
2,69,120,0
2,73,127,0
2,74,123,128
2,71,127,0
2,67,117,0
2,69,127,136
2,74,127,0
2,78,127,0
2,69,123,100
2,74,127,0
2,78,127,0
2,69,120,108
2,76,127,0
2,73,127,0
2,71,127,84
2,67,123,0
2,74,127,0
2,71,127,118
2,64,127,0
2,68,127,0
2,64,127,122
2,69,127,0
2,73,127,0
2,68,111,108
2,71,126,0
2,64,59,0
2,75,127,128
2,71,127,0
2,66,127,0
2,75,127,104
2,71,127,0
2,66,127,0
2,70,127,114
2,66,127,0
2,73,127,0
2,71,127,118
2,67,117,0
2,74,127,0
2,76,120,104
2,69,103,0
2,73,127,0
2,74,93,126
2,67,106,0
2,71,120,0
2,74,127,146
2,69,117,0
2,78,127,0
2,74,127,96
2,69,127,0
2,78,127,0
2,76,127,116
2,69,120,0
2,73,127,0
2,71,127,102
2,67,117,0
2,74,127,0
2,71,127,128
2,67,103,0
2,74,127,0
2,76,123,118
2,69,108,0
2,73,122,0
2,71,127,84
2,67,106,0
2,74,126,0
2,69,127,124
2,74,127,0
2,78,127,0
2,74,127,104
2,78,125,0
2,69,117,0
2,69,117,76
2,74,123,0
2,78,127,0
2,76,127,106
2,72,127,0
2,67,117,0
2,74,127,74
2,69,127,0
2,78,127,0
2,74,127,60
2,78,127,0
2,69,120,0
2,69,113,64
2,74,123,0
2,78,127,0
2,76,127,112
2,72,127,0
2,67,127,0
2,81,127,128
2,77,127,0
2,72,117,0
2,77,127,60
2,81,127,0
2,72,127,0
2,77,127,92
2,72,120,0
2,81,117,0
2,83,127,104
2,74,127,0
