track,note,velocity,time
1,63,100,0
1,59,100,0
1,63,100,24
1,59,100,0
1,63,100,24
1,59,100,0
1,63,100,24
1,59,100,0
1,59,100,24
1,71,100,432
1,59,100,48
1,57,100,48
1,59,100,48
1,59,100,48
1,59,100,48
1,59,100,48
1,71,100,432
1,59,100,48
1,57,100,48
1,59,100,48
1,59,100,48
1,59,100,48
1,59,100,48
1,71,100,432
1,59,100,48
1,57,100,48
1,59,100,48
1,59,100,48
1,59,100,48
1,59,100,48
1,71,100,432
1,59,100,48
1,57,100,48
1,59,100,48
1,59,100,48
1,59,100,48
1,69,100,240
1,69,100,48
1,69,100,48
1,69,100,48
1,69,100,48
1,69,100,48
1,69,100,48
1,70,100,48
1,70,100,48
1,71,100,48
1,64,100,624
1,62,100,48
1,69,100,240
1,69,100,48
1,69,100,48
1,69,100,48
1,69,100,48
1,69,100,48
1,69,100,48
1,69,100,48
1,70,100,48
1,70,100,48
1,71,100,48
1,64,100,48
1,62,100,48
1,59,100,48
1,69,100,240
1,69,100,48
1,69,100,48
1,69,100,48
1,69,100,48
1,69,100,48
1,69,100,48
1,70,100,48
1,70,100,48
1,71,100,48
1,64,100,624
1,62,100,48
1,69,100,240
1,69,100,48
1,69,100,48
1,69,100,48
1,69,100,48
1,69,100,48
1,69,100,48
1,69,100,48
1,70,100,48
1,70,100,48
1,71,100,48
1,64,100,48
1,62,100,48
1,59,100,240
1,65,100,48
1,64,100,48
1,71,100,48
1,59,100,48
1,59,100,240
1,65,100,48
1,64,100,48
1,65,100,48
1,64,100,48
1,59,100,240
1,65,100,48
1,64,100,48
1,71,100,48
1,59,100,48
1,59,100,240
1,65,100,48
1,64,100,48
1,65,100,48
1,64,100,48
1,59,100,240
1,65,100,48
1,64,100,48
1,71,100,48
1,59,100,48
1,59,100,240
1,65,100,48
1,64,100,48
1,65,100,48
1,64,100,48
1,59,100,240
1,65,100,48
1,64,100,48
1,71,100,48
1,59,100,48
1,59,100,240
1,65,100,48
1,64,100,48
1,65,100,48
1,64,100,48
1,59,100,240
1,65,100,48
1,64,100,48
1,71,100,48
1,59,100,48
1,59,100,240
1,65,100,48
1,64,100,48
1,65,100,48
1,64,100,48
1,59,100,240
1,65,100,48
1,64,100,48
1,71,100,48
1,59,100,48
1,59,100,240
1,65,100,48
1,64,100,48
1,65,100,48
1,64,100,48
1,59,100,48
1,66,100,48
1,64,100,48
1,59,100,48
1,66,100,48
1,64,100,48
1,59,100,48
1,66,100,48
1,64,100,48
1,59,100,48
1,66,100,48
1,64,100,48
1,59,100,48
1,66,100,48
1,64,100,48
1,63,100,240
1,75,100,24
1,63,100,24
1,78,100,24
1,66,100,24
1,75,100,24
1,63,100,24
1,61,100,216
1,73,100,24
1,61,100,24
1,78,100,24
1,66,100,24
1,73,100,24
1,61,100,24
1,62,100,216
1,74,100,24
1,62,100,24
1,78,100,24
1,66,100,24
1,81,100,24
1,69,100,24
1,81,100,24
1,69,100,24
1,79,100,24
1,67,100,24
1,74,100,24
1,62,100,24
1,76,100,24
1,64,100,24
1,63,100,216
1,75,100,24
1,63,100,24
1,78,100,24
1,66,100,24
1,75,100,24
1,63,100,24
1,61,100,216
1,73,100,24
1,61,100,24
1,78,100,24
1,66,100,24
1,73,100,24
1,61,100,24
1,62,100,216
1,74,100,24
1,62,100,24
1,78,100,24
1,66,100,24
1,81,100,24
1,69,100,24
1,81,100,24
1,69,100,24
1,79,100,24
1,67,100,24
1,74,100,24
1,62,100,24
1,76,100,24
1,64,100,24
1,78,100,24
1,66,100,24
1,76,100,24
1,64,100,24
1,71,100,24
1,59,100,24
1,69,100,24
1,57,100,24
1,71,100,24
1,59,100,24
1,69,100,24
1,57,100,24
1,64,100,24
1,52,100,24
1,62,100,24
1,50,100,24
1,64,100,24
1,52,100,24
1,62,100,24
1,50,100,24
1,59,100,24
1,47,100,24
1,57,100,24
1,45,100,24
1,59,100,24
1,59,100,432
1,61,100,0
1,59,100,48
1,59,100,48
1,61,100,48
1,59,100,48
1,59,100,432
1,61,100,48
1,59,100,48
1,63,100,48
1,61,100,48
1,59,100,48
1,63,100,48
1,61,100,48
1,59,100,48
1,59,100,48
1,57,100,48
1,57,100,48
1,59,100,48
1,57,100,48
1,57,100,48
1,59,100,48
1,54,100,48
1,65,100,4656
1,59,100,0
1,56,100,0
1,62,100,24
1,65,100,24
1,59,100,0
1,56,100,0
1,62,100,24
1,65,100,24
1,62,100,0
1,59,100,0
1,62,100,24
1,65,100,0
1,68,100,0
1,65,100,24
1,62,100,0
1,59,100,0
1,59,100,24
1,62,100,0
1,62,100,24
1,65,100,0
1,62,100,24
1,59,100,0
1,54,100,0
1,65,100,24
1,59,100,0
1,56,100,0
1,62,100,24
1,65,100,24
1,59,100,0
1,56,100,0
1,62,100,24
1,65,100,24
1,62,100,0
1,59,100,0
1,62,100,24
1,65,100,0
1,68,100,0
1,65,100,24
1,62,100,0
1,59,100,0
1,59,100,24
1,62,100,0
1,62,100,24
1,65,100,0
1,62,100,24
1,59,100,0
1,54,100,0
1,63,100,216
1,75,100,24
1,63,100,24
1,78,100,24
1,66,100,24
1,75,100,24
1,63,100,24
1,61,100,216
1,73,100,24
1,61,100,24
1,78,100,24
1,66,100,24
1,73,100,24
1,61,100,24
1,62,100,216
1,74,100,24
1,62,100,24
1,78,100,24
1,66,100,24
1,81,100,24
1,69,100,24
1,81,100,24
1,69,100,24
1,79,100,24
1,67,100,24
1,74,100,24
1,62,100,24
1,76,100,24
1,64,100,24
1,63,100,216
1,75,100,24
1,63,100,24
1,78,100,24
1,66,100,24
1,75,100,24
1,63,100,24
1,61,100,216
1,73,100,24
1,61,100,24
1,78,100,24
1,66,100,24
1,73,100,24
1,61,100,24
1,62,100,216
1,74,100,24
1,62,100,24
1,78,100,24
1,66,100,24
1,81,100,24
1,69,100,24
1,81,100,24
1,69,100,24
1,79,100,24
1,67,100,24
1,74,100,24
1,62,100,24
1,76,100,24
1,64,100,24
1,78,100,24
1,66,100,24
1,76,100,24
1,64,100,24
1,71,100,24
1,59,100,24
1,69,100,24
1,57,100,24
1,71,100,24
1,59,100,24
1,69,100,24
1,57,100,24
1,64,100,24
1,52,100,24
1,62,100,24
1,50,100,24
1,64,100,24
1,52,100,24
1,62,100,24
1,50,100,24
1,59,100,24
1,47,100,24
1,57,100,24
1,45,100,24
1,59,100,24
1,75,100,12696
1,78,100,216
1,75,100,216
1,73,100,600
1,78,100,216
1,73,100,216
1,62,100,408
1,74,100,24
1,62,100,24
1,78,100,24
1,66,100,24
1,81,100,24
1,69,100,24
1,81,100,24
1,69,100,24
1,79,100,24
1,67,100,24
1,74,100,24
1,62,100,24
1,76,100,24
1,64,100,24
1,63,100,216
1,75,100,24
1,63,100,24
1,78,100,24
1,66,100,24
1,75,100,24
1,63,100,24
1,61,100,216
1,73,100,24
1,61,100,24
1,78,100,24
1,66,100,24
1,73,100,24
1,61,100,24
1,62,100,216
1,74,100,24
1,62,100,24
1,78,100,24
1,66,100,24
1,81,100,24
1,69,100,24
1,81,100,24
1,69,100,24
1,79,100,24
1,67,100,24
1,74,100,24
1,62,100,24
1,76,100,24
1,64,100,24
1,78,100,24
1,66,100,24
1,76,100,24
1,64,100,24
1,71,100,24
1,59,100,24
1,69,100,24
1,57,100,24
1,71,100,24
1,59,100,24
1,69,100,24
1,57,100,24
1,64,100,24
1,52,100,24
1,62,100,24
1,50,100,24
1,64,100,24
1,52,100,24
1,62,100,24
1,50,100,24
1,59,100,24
1,47,100,24
1,57,100,24
1,45,100,24
1,63,100,216
1,75,100,24
1,63,100,24
1,78,100,24
1,66,100,24
1,75,100,24
1,63,100,24
1,61,100,216
1,73,100,24
1,61,100,24
1,78,100,24
1,66,100,24
1,73,100,24
1,61,100,24
1,62,100,216
1,74,100,24
1,62,100,24
1,78,100,24
1,66,100,24
1,81,100,24
1,69,100,24
1,81,100,24
1,69,100,24
1,79,100,24
1,67,100,24
1,74,100,24
1,62,100,24
1,76,100,24
1,64,100,24
1,63,100,216
1,75,100,24
1,63,100,24
1,78,100,24
1,66,100,24
1,75,100,24
1,63,100,24
1,61,100,216
1,73,100,24
1,61,100,24
1,78,100,24
1,66,100,24
1,73,100,24
1,61,100,24
1,62,100,216
1,74,100,24
1,62,100,24
1,78,100,24
1,66,100,24
1,81,100,24
1,69,100,24
1,81,100,24
1,69,100,24
1,79,100,24
1,67,100,24
1,74,100,24
1,62,100,24
1,76,100,24
1,64,100,24
1,63,100,216
1,63,100,48
1,63,100,48
1,66,100,48
1,63,100,24
1,62,100,24
1,59,100,24
1,57,100,24
1,52,100,24
1,63,100,216
1,63,100,48
1,63,100,48
1,66,100,48
1,63,100,24
1,62,100,24
1,59,100,24
1,61,100,24
1,64,100,24
1,63,100,216
1,63,100,48
1,63,100,48
1,66,100,48
1,63,100,24
1,62,100,24
1,59,100,24
1,57,100,24
1,52,100,24
1,63,100,216
1,63,100,48
1,63,100,48
1,66,100,48
1,63,100,24
1,62,100,24
1,59,100,24
1,61,100,24
1,64,100,24
1,63,100,216
1,66,100,0
1,66,100,48
1,63,100,0
1,63,100,48
1,66,100,0
1,66,100,48
1,71,100,0
1,66,100,24
1,63,100,0
1,66,100,216
1,69,100,0
1,69,100,48
1,66,100,0
1,66,100,48
1,69,100,0
1,69,100,48
1,73,100,0
1,69,100,24
1,66,100,0
1,66,100,216
1,69,100,0
1,69,100,48
1,66,100,0
1,66,100,48
1,69,100,0
1,69,100,48
1,74,100,0
1,69,100,24
1,66,100,0
1,73,100,24
1,69,100,0
1,71,100,24
1,67,100,0
1,66,100,24
1,62,100,0
1,64,100,24
1,67,100,0
1,63,100,168
1,66,100,0
1,66,100,48
1,63,100,0
1,63,100,48
1,66,100,0
1,66,100,48
1,71,100,0
1,66,100,24
1,63,100,0
1,66,99,216
1,69,99,0
1,69,98,48
1,66,98,0
1,66,97,48
1,69,97,0
1,69,96,48
1,73,96,0
1,69,94,24
1,66,94,0
1,66,90,216
1,69,90,0
1,69,89,48
1,66,89,0
1,66,88,48
1,69,88,0
1,69,87,48
1,74,87,0
1,69,85,24
1,66,85,0
1,73,82,24
1,69,82,0
1,71,80,24
1,67,80,0
1,66,78,24
1,62,78,0
1,64,75,24
1,67,75,0
1,63,72,120
1,66,72,0
1,66,71,48
1,63,71,0
1,63,70,48
1,66,70,0
1,66,69,48
1,71,69,0
1,66,66,24
1,63,66,0
1,66,63,216
1,69,63,0
1,69,62,48
1,66,62,0
1,66,61,48
1,69,61,0
1,69,60,48
1,73,60,0
1,69,57,24
1,66,57,0
1,66,54,216
1,69,54,0
1,69,53,48
1,66,53,0
1,66,52,48
1,69,52,0
1,69,50,48
1,74,50,0
1,69,48,24
1,66,48,0
1,73,46,24
1,69,46,0
1,71,44,24
1,67,44,0
1,66,41,24
1,62,41,0
1,64,39,24
1,67,39,0
1,63,36,96
1,66,36,0
1,66,35,48
1,63,35,0
1,63,33,48
1,66,33,0
1,66,32,48
1,71,32,0
1,66,30,24
1,63,30,0
1,66,27,216
1,69,27,0
1,69,25,48
1,66,25,0
1,66,24,48
1,69,24,0
1,69,23,48
1,73,23,0
1,69,21,24
1,66,21,0
1,66,18,216
1,69,18,0
1,69,16,48
1,66,16,0
1,66,15,48
1,69,15,0
1,69,14,48
1,74,14,0
1,69,12,24
1,66,12,0
1,73,10,24
1,69,10,0
1,71,7,24
1,67,7,0
1,66,5,24
1,62,5,0
1,64,3,24
1,67,3,0
2,47,100,72
2,38,100,48
2,47,100,48
2,38,100,48
2,47,100,48
2,47,100,336
2,47,100,48
2,35,100,48
2,47,100,48
2,47,100,144
2,38,100,48
2,47,100,48
2,38,100,48
2,47,100,48
2,47,100,336
2,47,100,48
2,35,100,48
2,47,100,48
2,47,100,144
2,38,100,48
2,47,100,48
2,38,100,48
2,47,100,48
2,47,100,336
2,47,100,48
2,35,100,48
2,47,100,48
2,47,100,144
2,35,100,48
2,47,100,48
2,47,100,144
2,38,100,48
2,47,100,48
2,38,100,48
2,47,100,48
2,47,100,336
2,47,100,48
2,35,100,48
2,47,100,48
2,47,100,144
2,38,100,48
2,47,100,48
2,38,100,48
2,47,100,48
2,47,100,336
2,47,100,48
2,35,100,48
2,47,100,48
2,47,100,144
2,38,100,48
2,47,100,48
2,38,100,48
2,47,100,48
2,47,100,336
2,47,100,48
2,35,100,48
2,47,100,48
2,47,100,144
2,35,100,48
2,47,100,48
2,47,100,144
2,38,100,48
2,47,100,48
2,38,100,48
2,47,100,48
2,47,100,336
2,47,100,48
2,35,100,48
2,47,100,48
2,47,100,144
2,38,100,48
2,47,100,48
2,38,100,48
2,47,100,48
2,47,100,336
2,47,100,48
2,35,100,48
2,47,100,48
2,47,100,144
2,38,100,48
2,47,100,48
2,38,100,48
2,47,100,48
2,47,100,336
2,47,100,48
2,35,100,48
2,47,100,48
2,47,100,144
2,35,100,48
2,47,100,48
2,47,100,144
2,38,100,48
2,47,100,48
2,38,100,48
2,47,100,48
2,47,100,336
2,47,100,48
2,35,100,48
2,47,100,48
2,47,100,144
2,38,100,48
2,47,100,48
2,38,100,48
2,47,100,48
2,47,100,336
2,47,100,48
2,35,100,48
2,47,100,48
2,47,100,144
2,38,100,48
2,47,100,48
2,38,100,48
2,47,100,48
2,47,100,336
2,47,100,48
2,35,100,48
2,47,100,48
2,47,100,144
2,35,100,48
2,47,100,48
2,35,100,240
2,35,100,48
2,35,100,48
2,47,100,48
2,35,100,240
2,35,100,48
2,35,100,48
2,35,100,48
2,47,100,48
2,35,100,240
2,35,100,48
2,35,100,48
2,47,100,48
2,35,100,240
2,35,100,48
2,35,100,48
2,35,100,48
2,47,100,48
2,35,100,240
2,35,100,48
2,35,100,48
2,47,100,48
2,35,100,240
2,35,100,48
2,35,100,48
2,35,100,48
2,47,100,48
2,35,100,240
2,35,100,48
2,35,100,48
2,47,100,48
2,35,100,240
2,35,100,48
2,35,100,48
2,35,100,48
2,47,100,48
2,47,100,48
2,35,100,48
2,35,100,48
2,35,100,48
2,47,100,432
2,35,100,48
2,35,100,48
2,35,100,48
2,47,100,432
2,35,100,48
2,35,100,48
2,35,100,48
2,35,100,48
2,47,100,48
2,35,100,48
2,35,100,48
2,35,100,48
2,35,100,48
2,47,100,48
2,35,100,48
2,35,100,48
2,35,100,48
2,47,100,432
2,35,100,48
2,35,100,48
2,35,100,48
2,47,100,432
2,35,100,48
2,35,100,48
2,35,100,48
2,35,100,48
2,47,100,48
2,35,100,48
2,35,100,48
2,35,100,48
2,35,100,48
2,35,100,48
2,47,100,48
2,35,100,48
2,47,100,48
2,35,100,48
2,47,100,48
2,35,100,48
2,35,100,432
2,47,100,48
2,35,100,48
2,47,100,48
2,35,100,48
2,47,100,48
2,35,100,48
2,35,100,432
2,47,100,48
2,35,100,48
2,47,100,48
2,35,100,48
2,47,100,48
2,35,100,48
2,35,100,432
2,47,100,48
2,35,100,48
2,47,100,48
2,35,100,48
2,47,100,48
2,31,100,48
2,43,100,48
2,31,100,48
2,43,100,48
2,31,100,48
2,43,100,48
2,31,100,48
2,43,100,48
2,31,100,48
2,31,100,432
2,43,100,48
2,31,100,48
2,43,100,48
2,31,100,48
2,43,100,48
2,31,100,48
2,33,100,48
2,33,100,48
2,45,100,48
2,33,100,48
2,45,100,48
2,33,100,48
2,45,100,48
2,33,100,48
2,33,100,432
2,45,100,48
2,33,100,48
2,45,100,48
2,33,100,48
2,45,100,48
2,31,100,48
2,31,100,432
2,43,100,48
2,31,100,48
2,43,100,48
2,31,100,48
2,43,100,48
2,31,100,48
2,31,100,432
2,43,100,48
2,31,100,48
2,43,100,48
2,31,100,48
2,43,100,48
2,33,100,48
2,33,100,48
2,33,100,48
2,45,100,48
2,33,100,48
2,45,100,48
2,33,100,48
2,45,100,48
2,33,100,48
2,33,100,432
2,45,100,48
2,33,100,48
2,45,100,48
2,33,100,48
2,45,100,48
2,40,100,48
2,40,100,48
2,40,100,240
