track,note,velocity,time
1,69,52,3844
1,71,50,474
1,67,49,224
1,62,48,219
1,74,55,4109
1,71,53,369
1,69,51,313
1,67,50,222
1,64,47,464
1,62,45,457
1,60,53,250
1,64,64,0
1,67,49,0
1,69,67,474
1,62,64,54
1,69,53,5
1,59,43,4
1,67,63,480
1,64,63,65
1,60,45,3
1,67,55,3
1,60,7,14
1,60,1,39
1,69,66,3
1,59,54,49
1,69,61,0
1,62,66,0
1,67,55,473
1,64,65,51
1,67,62,2
1,60,39,5
1,69,68,462
1,62,63,55
1,59,59,3
1,69,54,0
1,71,65,48
1,60,53,46
1,64,65,2
1,69,49,3
1,67,64,460
1,62,63,46
1,69,59,5
1,59,50,4
1,71,68,50
1,62,72,51
1,59,67,0
1,62,72,0
1,67,63,0
1,62,66,51
1,66,61,0
1,69,67,3
1,67,65,41
1,64,68,0
1,71,55,5
1,60,64,0
1,66,55,52
1,72,55,4
1,62,62,3
1,69,64,0
1,62,71,42
1,66,66,1
1,71,71,4
1,67,68,43
1,64,66,0
1,71,63,3
1,67,57,52
1,62,66,2
1,59,63,0
1,62,64,56
1,66,65,0
1,69,62,3
1,71,64,44
1,67,67,0
1,64,71,0
1,60,65,3
1,66,60,58
1,62,63,2
1,69,61,3
1,72,66,0
1,66,60,40
1,62,67,3
1,71,64,3
1,64,73,51
1,60,62,3
1,67,55,0
1,64,62,80
1,67,63,1
1,72,62,2
1,64,64,46
1,72,70,0
1,67,67,3
1,66,59,43
1,69,67,1
1,62,66,2
1,66,52,44
1,69,64,0
1,62,63,2
1,66,57,36
1,62,67,0
1,69,64,2
1,66,59,41
1,62,67,2
1,69,67,0
1,67,67,54
1,72,71,3
1,64,62,0
1,64,70,48
1,67,70,1
1,72,72,0
1,62,72,48
1,67,64,1
1,59,60,3
1,62,69,54
1,66,72,0
1,69,72,3
1,67,69,60
1,64,72,0
1,71,63,4
1,60,68,0
1,62,67,74
1,66,66,0
1,72,71,4
1,69,20,59
1,66,61,51
1,71,64,3
1,62,67,0
1,62,64,43
1,66,59,2
1,69,63,3
1,62,72,25
1,59,68,0
1,67,64,0
1,59,78,56
1,55,76,0
1,66,77,67
1,60,78,41
1,66,57,0
1,55,68,0
1,64,68,79
1,57,80,75
1,54,73,0
1,55,62,14
1,59,72,0
1,62,59,0
1,59,46,43
1,62,68,0
1,67,59,0
1,67,72,0
1,71,61,108
1,74,56,38
1,64,57,0
1,67,48,0
1,64,48,0
1,67,72,0
1,72,62,5
1,71,63,360
1,62,72,0
1,66,73,0
1,69,63,0
1,67,69,360
1,62,72,53
1,57,75,0
1,66,61,0
1,64,72,12
1,55,74,0
1,59,79,0
1,59,81,9
1,64,81,5
1,67,69,120
1,71,70,25
1,64,73,0
1,60,67,0
1,67,70,0
1,74,74,56
1,64,72,0
1,67,76,0
1,62,68,48
1,66,68,0
1,71,68,0
1,64,81,720
1,67,66,43
1,60,66,0
1,64,75,0
1,57,72,50
1,60,73,2
1,64,74,0
1,67,71,25
1,60,73,3
1,57,73,0
1,64,68,1
1,64,72,0
1,67,54,0
1,57,70,0
1,60,68,0
1,62,75,24
1,66,71,4
1,57,72,0
1,59,67,0
1,62,72,0
1,67,63,0
1,62,66,51
1,66,61,0
1,69,67,3
1,67,65,41
1,64,68,0
1,71,55,5
1,60,64,0
1,66,55,52
1,72,55,4
1,62,62,3
1,69,64,0
1,62,71,42
1,66,66,1
1,71,71,4
1,67,68,43
1,64,66,0
1,71,63,3
1,67,57,52
1,62,66,2
1,59,63,0
1,62,64,56
1,66,65,0
1,69,62,3
1,71,64,44
1,67,67,0
1,64,71,0
1,60,65,3
1,66,60,58
1,62,63,2
1,69,61,3
1,72,66,0
1,66,60,40
1,62,67,3
1,71,64,3
1,64,73,51
1,60,62,3
1,67,55,0
1,64,62,80
1,67,63,1
1,72,62,2
1,64,64,46
1,72,70,0
1,67,67,3
1,66,59,43
1,69,67,1
1,62,66,2
1,66,52,44
1,69,64,0
1,62,63,2
1,66,57,36
1,62,67,0
1,69,64,2
1,66,59,41
1,62,67,2
1,69,67,0
1,67,67,54
1,72,71,3
1,64,62,0
1,64,70,48
1,67,70,1
1,72,72,0
1,62,72,48
1,67,64,1
1,59,60,3
1,62,69,54
1,66,72,0
1,69,72,3
1,67,69,60
1,64,72,0
1,71,63,4
1,60,68,0
1,62,67,74
1,66,66,0
1,72,71,4
1,69,20,59
1,66,61,51
1,71,64,3
1,62,67,0
1,62,64,43
1,66,59,2
1,69,63,3
1,67,102,25
1,64,106,0
1,62,107,0
1,60,103,0
1,64,104,34
1,62,102,0
1,69,98,0
1,66,83,0
1,67,99,16
1,60,97,0
1,64,105,0
1,62,105,0
1,62,103,75
1,66,96,0
1,69,105,0
1,64,104,8
1,68,102,25
1,64,107,0
1,59,103,0
1,69,100,57
1,64,105,0
1,61,99,0
1,67,102,79
1,71,98,0
1,62,101,0
1,69,102,74
1,64,104,0
1,61,101,0
1,68,102,72
1,64,107,0
1,59,104,0
1,69,101,100
1,64,105,0
1,61,98,0
1,71,92,85
1,62,102,0
1,67,105,0
1,69,102,87
1,64,105,0
1,61,100,0
1,67,101,93
1,64,107,0
1,62,106,0
1,59,104,0
1,69,101,106
1,64,103,0
1,61,100,0
1,62,96,82
1,67,97,0
1,64,100,8
1,71,94,0
1,69,97,69
1,64,104,0
1,61,97,0
1,67,98,132
1,64,104,0
1,62,103,0
1,59,101,0
1,69,90,84
1,64,105,0
1,61,98,0
1,62,91,139
1,64,95,0
1,67,91,0
1,71,84,0
1,69,99,81
1,64,103,0
1,61,98,0
1,68,102,16424
1,64,107,0
1,59,103,0
1,69,100,57
1,64,105,0
1,61,99,0
1,67,102,79
1,71,98,0
1,62,101,0
1,69,102,74
1,64,104,0
1,61,101,0
1,59,104,72
1,68,102,0
1,64,107,0
1,69,101,100
1,64,105,0
1,61,98,0
1,71,92,85
1,62,102,0
1,67,105,0
1,69,102,87
1,64,105,0
1,61,100,0
1,67,101,93
1,64,107,0
1,62,106,0
1,59,104,0
1,69,101,106
1,64,103,0
1,61,100,0
1,71,94,82
1,64,100,0
1,62,96,0
1,67,97,0
1,69,97,77
1,64,104,0
1,61,97,0
1,67,98,132
1,64,104,0
1,62,103,0
1,59,101,0
1,69,90,84
1,64,105,0
1,61,98,0
1,62,91,139
1,64,95,0
1,67,91,0
1,71,84,0
1,69,99,81
1,64,103,0
1,61,98,0
1,59,92,104
1,66,92,0
1,62,92,0
1,59,91,39
1,62,91,0
1,66,91,1
1,59,90,33
1,62,90,1
1,66,90,0
1,59,90,27
1,62,90,0
1,66,90,1
1,59,89,49
1,66,89,0
1,62,89,4
1,59,88,40
1,62,88,1
1,66,88,0
1,62,87,5
1,59,87,4
1,66,86,125
1,67,86,122
1,69,85,103
1,62,84,18
1,59,84,7
1,66,84,0
1,59,83,24
1,62,83,1
1,66,83,0
1,59,82,35
1,66,82,0
1,62,82,0
1,62,91,44
1,59,86,0
1,67,81,0
1,59,98,56
1,55,96,0
1,66,97,67
1,60,98,41
1,66,72,0
1,55,86,0
1,64,86,79
1,57,100,75
1,54,92,0
1,55,78,14
1,59,91,0
1,62,74,0
1,59,58,43
1,62,85,0
1,67,74,0
1,67,91,0
1,71,76,108
1,74,71,38
1,64,72,0
1,67,61,0
1,64,61,0
1,67,90,0
1,72,78,5
1,71,80,360
1,62,90,0
1,66,92,0
1,69,80,0
1,67,87,360
1,62,90,53
1,57,94,0
1,66,77,0
1,64,90,12
1,55,93,0
1,59,99,0
1,59,102,9
1,64,102,5
1,67,87,120
1,71,88,25
1,64,92,0
1,60,84,0
1,67,88,0
1,74,93,56
1,64,90,0
1,67,96,0
1,66,85,48
1,62,86,0
1,71,85,0
1,64,102,720
1,67,83,43
1,60,83,0
1,64,94,0
1,57,90,50
1,60,92,2
1,64,93,0
1,67,89,25
1,60,92,3
1,57,92,0
1,64,85,1
1,64,90,0
1,67,67,0
1,57,88,0
1,60,85,0
1,62,95,24
1,66,89,4
1,57,90,0
1,59,84,0
1,62,90,0
1,67,80,0
1,62,83,51
1,66,76,0
1,69,84,3
1,67,82,41
1,64,86,0
1,71,70,5
1,60,81,0
1,66,70,52
1,72,70,4
1,62,78,3
1,69,81,0
1,62,89,42
1,66,83,1
1,71,89,4
1,67,85,43
1,64,83,0
1,71,80,3
1,67,72,52
1,62,83,2
1,59,79,0
1,62,81,56
1,66,82,0
1,69,78,3
1,71,81,44
1,67,84,0
1,64,89,0
1,60,82,3
1,66,75,58
1,62,79,2
1,69,77,3
1,72,83,0
1,66,75,40
1,62,84,3
1,71,81,3
1,64,92,51
1,60,78,3
1,67,70,0
1,64,78,80
1,67,79,1
1,72,78,2
1,64,81,46
1,72,88,0
1,67,84,3
1,66,74,43
1,69,84,1
1,62,83,2
1,66,65,44
1,69,81,0
1,62,80,2
1,66,72,36
1,62,84,0
1,69,81,2
1,66,74,41
1,62,84,2
1,69,84,0
1,67,84,54
1,72,89,3
1,64,78,0
1,64,88,48
1,67,88,1
1,72,90,0
1,62,91,48
1,67,81,1
1,59,75,3
1,62,87,54
1,66,90,0
1,69,90,3
1,67,87,60
1,64,91,0
1,71,80,4
1,60,85,0
1,62,84,74
1,66,83,0
1,72,89,4
1,69,26,59
1,66,77,51
1,71,81,3
1,62,84,0
1,62,81,43
1,66,74,2
1,69,80,3
1,68,102,25
1,64,107,0
1,59,103,0
1,69,100,57
1,64,105,0
1,61,99,0
1,67,102,79
1,71,98,0
1,62,101,0
1,69,102,74
1,64,104,0
1,61,101,0
1,68,102,72
1,64,107,0
1,59,104,0
1,69,101,100
1,64,105,0
1,61,98,0
1,71,92,85
1,62,102,0
1,67,105,0
1,69,102,87
1,64,105,0
1,61,100,0
1,67,101,93
1,64,107,0
1,62,106,0
1,59,104,0
1,69,101,106
1,64,103,0
1,61,100,0
1,71,94,82
1,64,100,0
1,62,96,0
1,67,97,0
1,69,97,77
1,64,104,0
1,61,97,0
1,67,98,132
1,64,104,0
1,62,103,0
1,59,101,0
1,69,90,84
1,64,105,0
1,61,98,0
1,62,91,139
1,64,95,0
1,67,91,0
1,71,84,0
1,69,99,81
1,64,103,0
1,61,98,0
1,66,98,7784
1,62,97,0
1,69,98,0
1,67,104,0
1,71,99,0
1,62,103,0
1,72,101,26
1,64,99,0
1,67,102,0
1,69,100,33
1,62,102,0
1,66,100,0
1,67,97,4
1,64,106,0
1,60,100,0
1,59,103,32
1,67,97,0
1,62,107,0
1,66,98,3
1,62,97,0
1,69,98,0
1,67,104,0
1,71,99,0
1,62,103,0
1,72,101,26
1,64,99,0
1,67,102,0
1,69,100,33
1,62,102,0
1,66,100,0
1,67,97,4
1,64,106,0
1,60,100,0
1,59,103,32
1,67,97,0
1,62,107,0
1,66,98,3
1,62,97,0
1,69,98,0
1,67,104,0
1,71,99,0
1,62,103,0
1,72,101,26
1,64,99,0
1,67,102,0
1,69,100,33
1,62,102,0
1,66,100,0
1,67,97,4
1,64,106,0
1,60,100,0
1,59,103,32
1,67,97,0
1,62,107,0
1,66,98,3
1,62,97,0
1,69,98,0
1,67,104,0
1,71,99,0
1,62,103,0
1,72,101,26
1,64,99,0
1,67,102,0
1,69,100,33
1,62,102,0
1,66,100,0
1,67,97,4
1,64,106,0
1,60,100,0
1,59,103,32
1,67,97,0
1,62,107,0
1,66,98,3
1,62,97,0
1,69,98,0
1,67,104,0
1,71,99,0
1,62,103,0
1,72,101,26
1,64,99,0
1,67,102,0
1,69,100,33
1,62,102,0
1,66,100,0
1,67,97,4
1,64,106,0
1,60,100,0
1,59,103,32
1,67,97,0
1,62,107,0
1,66,98,3
1,62,97,0
1,69,98,0
1,67,104,0
1,71,99,0
1,62,103,0
1,72,101,26
1,64,99,0
1,67,102,0
1,69,100,33
1,62,102,0
1,66,100,0
1,67,97,4
1,64,106,0
1,60,100,0
1,59,103,32
1,67,97,0
1,62,107,0
1,66,98,3
1,62,97,0
1,69,98,0
1,67,104,0
1,71,99,0
1,62,103,0
1,72,101,26
1,64,99,0
1,67,102,0
1,69,100,33
1,62,102,0
1,66,100,0
1,67,97,4
1,64,106,0
1,60,100,0
1,59,103,32
1,67,97,0
1,62,107,0
1,66,98,3
1,62,97,0
1,69,98,0
1,67,104,0
1,71,99,0
1,62,103,0
1,71,100,10
1,67,103,0
1,62,102,0
1,72,103,51
1,67,106,0
1,64,103,0
1,71,99,20
1,66,100,0
1,62,101,0
1,71,93,35
1,62,97,0
1,66,90,0
1,66,98,25
1,62,100,0
1,71,98,15
1,64,101,48
1,72,100,15
1,67,104,0
1,72,97,30
1,67,99,0
1,64,98,0
1,64,96,7
1,72,98,15
1,67,102,0
1,74,99,105
1,66,95,0
1,69,103,0
1,74,97,40
1,69,102,0
1,66,94,0
1,66,92,24
1,74,98,15
1,69,102,0
1,76,100,62
1,72,106,15
1,67,100,0
1,72,103,40
1,67,99,0
1,76,97,0
1,72,106,36
1,76,99,0
1,67,101,0
1,74,101,30
1,69,105,0
1,64,102,0
1,64,105,37
1,69,107,0
1,74,102,0
1,74,104,3
1,69,96,0
1,64,99,15
1,69,99,28
1,64,100,0
1,74,99,0
1,74,98,15
1,64,101,0
1,69,92,0
1,74,98,22
1,64,97,0
1,69,96,0
1,74,102,40
1,79,102,0
1,69,100,0
1,74,92,9
1,71,101,0
1,67,102,0
1,74,97,62
1,71,102,0
1,67,96,0
1,69,100,51
1,66,97,0
1,74,99,0
1,74,100,40
1,69,103,0
1,66,99,0
1,74,95,52
1,69,103,0
1,66,99,0
1,64,105,26
1,69,106,0
1,73,99,0
1,71,97,21
1,67,102,0
1,62,101,0
1,71,94,32
1,67,102,0
1,62,100,0
1,69,101,40
1,66,99,0
1,61,84,0
1,67,97,24
1,62,104,0
1,59,99,0
1,67,97,50
1,62,102,0
1,59,97,0
1,67,98,25
1,62,102,0
1,59,99,0
1,69,98,75
1,61,95,0
1,64,102,0
1,69,92,44
1,64,101,0
1,61,88,0
1,64,100,19
1,69,94,0
1,61,84,0
1,71,99,54
1,62,102,0
1,67,105,0
1,67,103,48
1,62,102,0
1,71,101,0
1,69,99,13
1,67,100,0
1,64,100,0
1,74,101,0
1,59,106,9
1,66,106,0
1,61,105,0
1,59,103,33
1,66,103,0
1,61,101,0
1,67,105,25
1,61,104,0
1,57,104,15
1,67,104,20
1,61,104,0
1,57,105,15
1,66,98,6
1,62,97,0
1,69,98,0
1,67,104,0
1,71,99,0
1,62,103,0
1,72,101,26
1,64,99,0
1,67,102,0
1,69,100,33
1,62,102,0
1,66,100,0
1,67,97,4
1,64,106,0
1,60,100,0
1,59,103,32
1,67,97,0
1,62,107,0
1,66,98,3
1,62,97,0
1,69,98,0
1,67,104,0
1,71,99,0
1,62,103,0
1,72,101,26
1,64,99,0
1,67,102,0
1,69,100,33
1,62,102,0
1,66,100,0
1,67,97,4
1,64,106,0
1,60,100,0
1,59,103,32
1,67,97,0
1,62,107,0
1,66,98,3
1,62,97,0
1,69,98,0
1,67,104,0
1,71,99,0
1,62,103,0
1,72,101,26
1,64,99,0
1,67,102,0
1,69,100,33
1,62,102,0
1,66,100,0
1,67,97,4
1,64,106,0
1,60,100,0
1,59,103,32
1,67,97,0
1,62,107,0
1,66,98,3
1,62,97,0
1,69,98,0
1,67,104,0
1,71,99,0
1,62,103,0
1,72,101,26
1,64,99,0
1,67,102,0
1,69,100,33
1,62,102,0
1,66,100,0
1,67,97,4
1,64,106,0
1,60,100,0
1,59,103,32
1,67,97,0
1,62,107,0
1,66,98,3
1,62,97,0
1,69,98,0
1,67,104,0
1,71,99,0
1,62,103,0
1,72,101,26
1,64,99,0
1,67,102,0
1,62,102,33
1,66,100,0
1,71,99,11
1,66,100,0
1,62,101,0
1,71,93,35
1,62,97,0
1,66,90,0
1,66,98,25
1,62,100,0
1,71,98,15
1,64,101,48
1,72,100,15
1,67,104,0
1,72,97,30
1,67,99,0
1,64,98,0
1,64,96,7
1,72,98,15
1,67,102,0
