track,note,velocity,time
0,42,84,24
0,42,0,54
0,42,64,426
0,42,0,54
0,42,64,426
0,48,119,0
0,42,0,54
0,48,0,20
0,48,119,46
0,48,0,66
0,47,115,54
0,47,0,66
0,39,127,174
0,45,119,0
0,28,115,0
0,42,64,0
0,42,0,54
0,45,0,4
0,39,0,56
0,45,123,6
0,45,0,62
0,28,0,16
0,43,119,42
0,43,0,54
0,29,111,186
0,60,102,0
0,65,106,0
0,70,102,0
0,57,127,0
0,60,127,0
0,65,127,0
0,60,127,0
0,60,106,0
0,65,119,0
0,70,111,0
0,49,100,0
0,42,112,0
0,36,123,0
0,49,0,54
0,57,0,28
0,60,0,0
0,65,0,4
0,60,0,0
0,42,0,16
0,65,77,18
0,57,77,0
0,60,77,0
0,60,77,0
0,65,0,30
0,60,0,0
0,57,0,4
0,60,0,0
0,36,0,52
0,29,0,28
0,29,111,6
0,65,105,0
0,60,105,0
0,57,105,0
0,60,105,0
0,42,71,0
0,65,127,0
0,70,119,0
0,60,115,0
0,60,0,26
0,65,0,4
0,57,0,0
0,60,0,4
0,42,0,40
0,57,91,46
0,65,91,0
0,60,91,0
0,60,91,0
0,65,0,90
0,70,0,0
0,60,0,0
0,60,0,20
0,29,0,4
0,57,0,0
0,65,0,0
0,60,0,0
0,29,108,6
0,65,123,0
0,60,123,0
0,57,123,0
0,60,123,0
0,36,123,0
0,42,117,0
0,38,127,0
0,39,127,0
0,28,123,0
0,60,108,0
0,65,123,0
0,70,115,0
0,65,0,26
0,60,0,4
0,57,0,0
0,60,0,0
0,42,0,72
0,60,77,18
0,57,77,0
0,65,77,0
0,60,77,0
0,60,0,26
0,65,0,4
0,60,0,4
0,57,0,0
0,36,0,8
0,28,0,0
0,39,0,4
0,60,0,44
0,65,0,0
0,70,0,0
0,29,0,24
0,57,105,6
0,65,105,0
0,60,105,0
0,60,105,0
0,42,86,0
0,60,111,0
0,65,123,0
0,70,111,0
0,38,0,30
0,57,0,4
0,65,0,0
0,60,0,0
0,60,0,0
0,42,0,60
0,57,91,26
0,65,91,0
0,60,91,0
0,60,91,0
0,60,0,90
0,65,0,0
0,70,0,0
0,65,0,20
0,60,0,0
0,57,0,4
0,60,0,0
0,57,123,6
0,60,123,0
0,65,123,0
0,60,123,0
0,42,95,0
0,65,127,0
0,60,115,0
0,70,111,0
0,57,0,30
0,60,0,0
0,65,0,0
0,60,0,4
0,42,0,48
0,57,77,38
0,65,77,0
0,60,77,0
0,60,77,0
0,60,0,26
0,57,0,4
0,65,0,0
0,60,0,4
0,65,0,56
0,60,0,0
0,70,0,0
0,65,105,30
0,60,105,0
0,57,105,0
0,60,105,0
0,42,79,0
0,60,0,26
0,65,0,8
0,60,0,0
0,57,0,0
0,42,0,44
0,60,91,42
0,65,91,0
0,57,91,0
0,60,91,0
0,70,0,114
0,70,0,0
0,60,0,0
0,65,0,0
0,57,0,0
0,60,0,0
0,69,108,6
0,57,123,0
0,65,123,0
0,60,123,0
0,60,123,0
0,69,106,0
0,39,122,0
0,42,112,0
0,38,127,0
0,28,119,0
0,65,127,0
0,69,123,0
0,60,115,0
0,57,0,30
0,65,0,0
0,60,0,0
0,60,0,4
0,42,0,72
0,60,77,14
0,57,77,0
0,65,77,0
0,60,77,0
0,39,0,26
0,60,0,4
0,65,0,0
0,57,0,4
0,60,0,0
0,28,0,4
0,65,0,52
0,69,0,0
0,60,0,0
0,57,105,30
0,65,105,0
0,60,105,0
0,60,105,0
0,42,86,0
0,60,0,26
0,65,0,4
0,60,0,0
0,57,0,4
0,38,0,48
0,42,0,4
0,57,91,34
0,65,91,0
0,60,91,0
0,60,91,0
0,60,0,114
0,65,0,0
0,60,0,0
0,65,0,0
0,69,0,0
0,69,0,0
0,57,0,0
0,65,0,0
0,60,0,0
0,60,0,0
0,29,111,6
0,62,102,0
0,58,102,0
0,65,106,0
0,65,127,0
0,58,127,0
0,62,127,0
0,62,127,0
0,65,111,0
0,62,111,0
0,58,104,0
0,42,98,0
0,36,123,0
0,65,123,0
0,58,111,0
0,62,127,0
0,62,0,82
0,62,0,4
0,42,0,0
0,65,0,4
0,58,0,0
0,58,77,30
0,65,77,0
0,62,77,0
0,62,77,0
0,58,0,30
0,65,0,0
0,62,0,0
0,62,0,4
0,36,0,20
0,65,0,36
0,58,0,0
0,62,0,0
0,58,105,30
0,62,105,0
0,65,105,0
0,62,105,0
0,42,86,0
0,58,0,30
0,29,0,4
0,62,0,0
0,65,0,0
0,62,0,0
0,42,0,40
0,58,91,46
0,62,91,0
0,65,91,0
0,62,91,0
0,58,0,114
0,62,0,0
0,65,0,0
0,62,0,0
0,29,111,6
0,58,123,0
0,62,123,0
0,65,123,0
0,62,123,0
0,28,127,0
0,36,115,0
0,39,117,0
0,38,123,0
0,42,107,0
0,65,119,0
0,62,119,0
0,58,115,0
0,58,0,30
0,62,0,0
0,65,0,4
0,62,0,0
0,42,0,80
0,62,77,6
0,58,77,0
0,65,77,0
0,62,77,0
0,28,0,14
0,39,0,0
0,36,0,4
0,62,0,12
0,58,0,0
0,62,0,0
0,65,0,4
0,65,0,56
0,62,0,0
0,58,0,0
0,58,105,30
0,62,105,0
0,65,105,0
0,62,105,0
0,42,86,0
0,58,0,30
0,62,0,0
0,65,0,0
0,62,0,4
0,38,0,12
0,29,0,28
0,42,0,16
0,58,91,30
0,65,91,0
0,62,91,0
0,62,91,0
0,58,0,110
0,65,0,0
0,62,0,4
0,62,0,0
0,62,123,6
0,65,123,0
0,58,123,0
0,62,123,0
0,42,86,0
0,62,127,0
0,58,111,0
0,65,123,0
0,58,0,30
0,62,0,0
0,62,0,4
0,65,0,0
0,42,0,48
0,58,77,38
0,65,77,0
0,62,77,0
0,62,77,0
0,62,0,30
0,62,0,0
0,58,0,4
0,65,0,0
0,62,0,56
0,58,0,0
0,65,0,0
0,36,111,30
0,65,105,0
0,62,105,0
0,58,105,0
0,62,105,0
0,42,91,0
0,62,0,30
0,65,0,4
0,58,0,0
0,62,0,0
0,42,0,40
0,36,0,40
0,38,104,6
0,62,91,0
0,65,91,0
0,58,91,0
0,62,91,0
0,62,0,114
0,58,0,0
0,65,0,0
0,65,0,0
0,62,0,0
0,58,0,0
0,38,0,0
0,62,0,0
0,65,0,0
0,58,0,0
0,62,0,0
0,41,100,6
0,67,104,0
0,60,104,0
0,64,97,0
0,67,127,0
0,60,127,0
0,64,127,0
0,60,127,0
0,64,111,0
0,67,115,0
0,60,108,0
0,39,122,0
0,38,127,0
0,42,112,0
0,28,119,0
0,37,117,0
0,67,123,0
0,64,123,0
0,60,115,0
0,38,0,70
0,60,0,8
0,67,0,8
0,60,0,0
0,64,0,0
0,42,0,16
0,28,0,12
0,38,106,6
0,60,77,0
0,64,77,0
0,67,77,0
0,60,77,0
0,38,123,0
0,37,117,0
0,39,0,2
0,37,0,12
0,60,0,12
0,60,0,4
0,64,0,0
0,67,0,0
0,41,0,4
0,38,0,28
0,67,0,28
0,64,0,0
0,60,0,0
0,38,0,24
0,36,108,6
0,60,105,0
0,64,105,0
0,67,105,0
0,60,105,0
0,38,123,0
0,42,91,0
0,37,0,14
0,64,0,12
0,60,0,4
0,67,0,0
0,60,0,4
0,38,0,20
0,42,0,32
0,36,0,28
0,33,115,6
0,64,91,0
0,60,91,0
0,67,91,0
0,60,91,0
0,37,117,0
0,60,0,58
0,67,0,56
0,60,0,0
0,64,0,0
0,64,0,0
0,67,0,0
0,60,0,0
0,33,0,0
0,64,0,0
0,60,0,0
0,67,0,0
0,29,111,6
0,60,102,0
0,65,106,0
0,70,102,0
0,57,127,0
0,65,127,0
0,60,127,0
0,60,127,0
0,60,104,0
0,65,108,0
0,70,111,0
0,36,119,0
0,42,95,0
0,49,100,0
0,37,0,14
0,49,0,40
0,57,0,28
0,65,0,0
0,60,0,0
0,42,0,4
0,60,0,4
0,60,77,30
0,65,77,0
0,57,77,0
0,60,77,0
0,65,0,26
0,60,0,4
0,57,0,0
0,60,0,0
0,36,0,24
0,29,0,60
0,29,111,6
0,65,105,0
0,60,105,0
0,57,105,0
0,60,105,0
0,42,91,0
0,60,115,0
0,70,119,0
0,65,127,0
0,65,0,30
0,60,0,0
0,57,0,0
0,60,0,4
0,42,0,40
0,57,91,46
0,65,91,0
0,60,91,0
0,60,91,0
0,60,0,90
0,70,0,0
0,65,0,0
0,57,0,20
0,60,0,0
0,29,0,4
0,65,0,0
0,60,0,0
0,29,115,6
0,65,123,0
0,57,123,0
0,60,123,0
0,60,123,0
0,42,107,0
0,36,119,0
0,28,115,0
0,39,112,0
0,38,127,0
0,70,115,0
0,65,123,0
0,60,108,0
0,65,0,26
0,57,0,4
0,60,0,0
0,60,0,0
0,42,0,72
0,28,0,12
0,39,0,4
0,65,77,2
0,60,77,0
0,57,77,0
0,60,77,0
0,36,0,26
0,57,0,0
0,65,0,4
0,60,0,0
0,60,0,0
0,70,0,60
0,65,0,0
0,60,0,0
0,29,0,24
0,65,105,6
0,57,105,0
0,60,105,0
0,60,105,0
0,42,79,0
0,65,123,0
0,60,111,0
0,70,111,0
0,60,0,30
0,60,0,0
0,65,0,4
0,57,0,0
0,38,0,32
0,42,0,24
0,60,91,30
0,57,91,0
0,65,91,0
0,60,91,0
0,65,0,90
0,60,0,0
0,70,0,0
0,65,0,16
0,60,0,4
0,57,0,0
0,60,0,0
0,60,123,10
0,65,123,0
0,57,123,0
0,60,123,0
0,42,81,0
0,60,115,0
0,65,127,0
0,70,111,0
0,65,0,26
0,60,0,4
0,57,0,0
0,60,0,4
0,42,0,48
0,60,77,38
0,57,77,0
0,65,77,0
0,60,77,0
0,60,0,30
0,57,0,0
0,65,0,4
0,60,0,0
0,60,0,56
0,65,0,0
0,70,0,0
0,65,105,30
0,57,105,0
0,60,105,0
0,60,105,0
0,42,91,0
0,57,0,26
0,65,0,4
0,60,0,0
0,60,0,0
0,42,0,44
0,57,91,46
0,65,91,0
0,60,91,0
0,60,91,0
0,65,0,110
0,60,0,0
0,60,0,0
0,70,0,4
0,70,0,0
0,57,0,0
0,69,108,6
0,65,123,0
0,57,123,0
0,60,123,0
0,60,123,0
0,69,106,0
0,38,127,0
0,28,119,0
0,42,107,0
0,39,122,0
0,60,115,0
0,69,123,0
0,65,127,0
0,60,0,26
0,65,0,4
0,57,0,0
0,60,0,0
0,42,0,64
0,39,0,24
0,60,77,2
0,65,77,0
0,57,77,0
0,60,77,0
0,28,0,10
0,65,0,16
0,60,0,4
0,57,0,0
0,60,0,0
0,60,0,60
0,69,0,0
0,65,0,0
0,29,111,30
0,57,105,0
0,60,105,0
0,65,105,0
0,60,105,0
0,36,111,0
0,42,88,0
0,57,0,30
0,60,0,0
0,65,0,0
0,60,0,0
0,38,0,28
0,42,0,16
0,36,0,16
0,29,0,24
0,36,109,6
0,65,91,0
0,57,91,0
0,60,91,0
0,60,91,0
0,60,0,58
0,60,0,56
0,65,0,0
0,60,0,0
0,65,0,0
0,69,0,0
0,69,0,0
0,36,0,0
0,65,0,0
0,57,0,0
0,60,0,0
0,38,123,6
0,62,102,0
0,58,102,0
0,65,106,0
0,58,127,0
0,65,127,0
0,62,127,0
0,62,127,0
0,62,111,0
0,65,119,0
0,58,104,0
0,36,119,0
0,42,100,0
0,58,111,0
0,62,127,0
0,65,123,0
0,62,0,82
0,58,0,4
0,65,0,0
0,62,0,0
0,42,0,0
0,58,77,34
0,65,77,0
0,62,77,0
0,62,77,0
0,36,0,26
0,58,0,4
0,65,0,0
0,62,0,0
0,62,0,8
0,58,0,52
0,62,0,0
0,65,0,0
0,62,105,30
0,65,105,0
0,58,105,0
0,62,105,0
0,42,91,0
0,65,0,30
0,58,0,0
0,62,0,4
0,62,0,0
0,42,0,32
0,58,91,54
0,62,91,0
0,65,91,0
0,62,91,0
0,58,0,110
0,62,0,4
0,65,0,0
0,62,0,0
0,58,123,6
0,62,123,0
0,65,123,0
0,62,123,0
0,28,119,0
0,42,112,0
0,36,119,0
0,39,112,0
0,38,123,0
0,65,119,0
0,62,119,0
0,58,115,0
0,62,0,26
0,58,0,4
0,62,0,0
0,65,0,0
0,42,0,72
0,62,77,18
0,65,77,0
0,58,77,0
0,62,77,0
0,39,0,2
0,28,0,8
0,36,0,8
0,65,0,12
0,62,0,0
0,62,0,4
0,58,0,0
0,65,0,56
0,62,0,0
0,58,0,0
0,58,105,30
0,62,105,0
0,65,105,0
0,62,105,0
0,42,93,0
0,38,0,22
0,58,0,8
0,62,0,0
0,65,0,0
0,62,0,4
0,42,0,52
0,65,91,34
0,62,91,0
0,58,91,0
0,62,91,0
0,62,0,78
0,38,0,36
0,62,0,0
0,58,0,0
0,65,0,0
0,62,0,0
0,65,0,0
0,58,0,0
0,65,0,0
0,62,0,0
0,58,0,0
0,36,115,6
0,60,104,0
0,67,104,0
0,64,97,0
0,67,127,0
0,64,127,0
0,60,127,0
0,60,127,0
0,67,115,0
0,60,108,0
0,64,111,0
0,42,95,0
0,58,111,0
0,65,123,0
0,62,127,0
0,60,0,82
0,42,0,0
0,67,0,4
0,64,0,0
0,60,0,0
0,67,77,34
0,64,77,0
0,60,77,0
0,60,77,0
0,67,0,30
0,60,0,0
0,64,0,4
0,60,0,0
0,58,0,56
0,65,0,0
0,62,0,0
0,64,105,30
0,67,105,0
0,60,105,0
0,60,105,0
0,42,95,0
0,60,0,30
0,64,0,4
0,67,0,0
0,60,0,0
0,42,0,32
0,67,91,54
0,64,91,0
0,60,91,0
0,60,91,0
0,67,0,110
0,64,0,0
0,60,0,0
0,60,0,4
0,60,123,6
0,67,123,0
0,64,123,0
0,60,123,0
0,42,112,0
0,28,115,0
0,39,112,0
0,38,127,0
0,37,117,0
0,64,123,0
0,60,115,0
0,67,123,0
0,60,0,26
0,67,0,4
0,64,0,0
0,60,0,0
0,38,0,48
0,42,0,12
0,39,0,8
0,28,0,12
0,60,77,10
0,64,77,0
0,67,77,0
0,60,77,0
0,37,117,0
0,38,127,0
0,37,0,14
0,60,0,12
0,64,0,4
0,67,0,0
0,60,0,0
0,38,0,44
0,64,0,16
0,60,0,0
0,67,0,0
0,64,105,30
0,67,105,0
0,60,105,0
0,60,105,0
0,42,95,0
0,38,119,0
0,37,0,14
0,64,0,16
0,67,0,0
0,60,0,0
0,60,0,4
0,42,0,32
0,38,0,0
0,60,91,54
0,67,91,0
0,64,91,0
0,60,91,0
0,37,117,0
0,60,0,106
0,60,0,4
0,64,0,0
0,36,0,4
0,60,0,0
0,67,0,0
0,64,0,0
0,67,0,0
0,60,0,0
0,64,0,0
0,67,0,0
0,29,111,6
0,65,106,0
0,70,102,0
0,60,102,0
0,57,127,0
0,60,127,0
0,65,127,0
0,60,127,0
0,60,106,0
0,65,119,0
0,70,111,0
0,42,112,0
0,36,123,0
0,49,100,0
0,37,0,14
0,49,0,40
0,57,0,28
0,60,0,0
0,65,0,4
0,60,0,0
0,42,0,16
0,60,77,18
0,65,77,0
0,57,77,0
0,60,77,0
0,60,0,30
0,65,0,0
0,57,0,4
0,60,0,0
0,36,0,52
0,29,0,28
0,29,111,6
0,65,105,0
0,60,105,0
0,57,105,0
0,60,105,0
0,42,71,0
0,60,115,0
0,70,119,0
0,65,127,0
0,60,0,26
0,65,0,4
0,57,0,0
0,60,0,4
0,42,0,40
0,65,91,46
0,57,91,0
0,60,91,0
0,60,91,0
0,60,0,90
0,70,0,0
0,65,0,0
0,60,0,20
0,29,0,4
0,65,0,0
0,57,0,0
0,60,0,0
0,29,108,6
0,57,123,0
0,65,123,0
0,60,123,0
0,60,123,0
0,42,117,0
0,39,127,0
0,36,123,0
0,28,123,0
0,38,127,0
0,60,108,0
0,65,123,0
0,70,115,0
0,65,0,26
0,57,0,4
0,60,0,0
0,60,0,0
0,42,0,72
0,60,77,18
0,57,77,0
0,65,77,0
0,60,77,0
0,60,0,26
0,65,0,4
0,60,0,4
0,57,0,0
0,36,0,8
0,28,0,0
0,39,0,4
0,60,0,44
