track,note,velocity,time
2,64,100,360
2,64,0,120
2,45,100,0
2,62,100,0
2,62,0,120
2,61,100,0
2,61,0,120
2,45,0,0
2,47,100,0
2,62,100,0
2,62,0,120
2,64,100,0
2,64,0,120
2,47,0,0
2,49,100,0
2,69,100,0
2,49,0,240
2,45,100,0
2,74,100,0
2,74,0,60
2,69,0,60
2,73,100,0
2,73,0,60
2,71,100,60
2,62,127,232
2,66,127,3
2,71,127,2
2,71,0,3
2,45,0,0
2,45,100,0
2,45,0,240
2,71,0,0
2,44,100,0
2,64,100,0
2,62,0,4
2,66,0,1
2,52,100,55
2,64,0,60
2,59,100,0
2,52,0,60
2,54,100,0
2,59,0,60
2,44,0,0
2,44,100,0
2,64,100,0
2,54,0,60
2,54,100,0
2,64,0,60
2,59,100,0
2,59,0,120
2,54,0,0
2,44,0,0
2,42,127,0
2,69,127,0
2,57,127,60
2,57,0,59
2,62,127,1
2,69,0,59
2,50,127,1
2,66,127,0
2,66,0,59
2,62,0,0
2,50,0,1
2,42,0,0
2,44,127,0
2,64,127,0
2,52,127,60
2,64,0,59
2,59,127,1
2,52,0,60
2,50,127,0
2,59,0,59
2,50,0,1
2,44,0,0
2,40,127,0
2,68,127,0
2,56,127,60
2,56,0,60
2,61,127,0
2,61,0,60
2,59,127,0
2,54,127,50
2,66,127,3
2,61,127,0
2,59,0,7
2,40,0,0
2,68,0,0
2,69,127,3
2,69,0,237
2,61,0,0
2,66,0,0
2,54,0,0
2,68,127,0
2,61,127,2
2,54,127,1
2,68,0,17
2,69,127,0
2,69,0,20
2,68,127,0
2,68,0,20
2,66,127,0
2,50,127,174
2,61,127,3
2,66,127,1
2,66,0,2
2,69,127,0
2,61,0,2
2,54,0,1
2,61,0,57
2,66,0,0
2,69,0,0
2,71,127,0
2,71,0,60
2,69,127,0
2,69,0,60
2,73,127,0
2,73,0,60
2,50,0,0
2,71,127,0
2,68,127,7
2,64,127,3
2,50,127,3
2,71,0,107
2,76,127,0
2,68,0,7
2,64,0,3
2,50,0,3
2,76,0,47
2,74,127,0
2,74,0,60
2,45,127,0
2,74,127,0
2,74,0,60
2,73,127,0
2,73,0,60
2,59,127,0
2,59,0,60
2,62,127,0
2,62,0,60
2,45,0,0
2,45,127,0
2,62,127,0
2,62,0,120
2,61,127,0
2,61,0,120
2,45,0,0
2,49,127,0
2,62,127,0
2,62,0,120
2,64,127,0
2,64,0,120
2,49,0,0
2,69,127,0
2,49,127,0
2,49,0,240
2,45,127,0
2,69,0,120
2,74,127,0
2,74,0,60
2,73,127,0
2,73,0,60
2,71,127,0
2,45,127,227
2,62,127,6
2,66,127,0
2,45,0,7
2,71,0,0
2,71,127,0
2,71,0,240
2,66,0,0
2,62,0,0
2,45,0,0
2,44,127,0
2,64,127,60
2,52,127,60
2,64,0,60
2,59,127,0
2,59,0,60
2,44,0,0
2,44,127,0
2,59,127,0
2,59,0,60
2,64,127,0
2,52,0,60
2,52,127,0
2,64,0,60
2,59,127,0
2,59,0,60
2,52,0,0
2,44,0,0
2,43,127,0
2,64,127,0
2,52,127,60
2,64,0,60
2,59,127,0
2,59,0,60
2,64,127,0
2,64,0,60
2,52,0,0
2,43,0,0
2,42,127,0
2,58,127,0
2,67,127,60
2,67,0,60
2,58,0,0
2,42,0,0
2,46,127,0
2,66,127,0
2,66,0,60
2,64,127,0
2,64,0,60
2,46,0,0
2,66,127,0
2,51,127,0
2,66,0,60
2,59,127,0
2,59,0,60
2,60,127,0
2,60,0,60
2,59,127,0
2,59,0,60
2,51,0,0
2,66,127,0
2,45,127,0
2,66,0,60
2,59,127,0
2,59,0,60
2,45,0,0
2,60,127,0
2,42,127,0
2,60,0,60
2,59,127,0
2,59,0,60
2,42,0,0
2,40,127,0
2,59,127,120
2,67,127,0
2,67,0,120
2,59,0,0
2,59,127,0
2,67,127,0
2,67,0,80
2,59,0,0
2,69,127,0
2,60,127,0
2,60,0,80
2,69,0,0
2,59,127,0
2,67,127,0
2,67,0,80
2,59,0,0
2,40,0,0
2,40,127,0
2,63,127,120
2,54,127,0
2,54,0,120
2,63,0,0
2,57,127,0
2,66,127,0
2,66,0,120
2,57,0,0
2,57,127,0
2,66,127,0
2,66,0,90
2,57,0,0
2,59,127,0
2,59,0,30
2,40,0,0
2,40,127,0
2,59,127,120
2,67,127,0
2,67,0,120
2,59,0,0
2,59,127,0
2,67,127,0
2,67,0,80
2,59,0,0
2,69,127,0
2,60,127,0
2,60,0,80
2,69,0,0
2,59,127,0
2,67,127,0
2,67,0,80
2,59,0,0
2,40,0,0
2,40,127,0
2,63,127,120
2,54,127,0
2,54,0,120
2,63,0,0
2,57,127,0
2,66,127,0
2,66,0,120
2,57,0,0
2,57,127,0
2,66,127,0
2,66,0,90
2,57,0,0
2,59,127,0
2,59,0,30
2,40,0,0
2,64,127,0
2,40,127,0
2,64,0,60
2,59,127,0
2,59,0,60
2,66,127,0
2,66,0,60
2,64,127,0
2,64,0,60
2,40,0,0
2,64,127,0
2,55,127,0
2,64,0,60
2,59,127,0
2,59,0,60
2,66,127,0
2,66,0,60
2,64,127,0
2,64,0,60
2,55,0,0
2,64,127,0
2,40,127,0
2,64,0,60
2,59,127,0
2,59,0,60
2,66,127,0
2,66,0,60
2,64,127,0
2,64,0,60
2,40,0,0
2,64,127,0
2,55,127,0
2,64,0,60
2,59,127,0
2,59,0,60
2,66,127,0
2,66,0,60
2,64,127,0
2,64,0,60
2,55,0,0
2,64,127,0
2,48,127,0
2,64,0,60
2,55,127,0
2,55,0,60
2,66,127,0
2,66,0,60
2,64,127,0
2,64,0,60
2,48,0,0
2,64,127,0
2,55,127,0
2,64,0,60
2,59,127,0
2,59,0,60
2,66,127,0
2,66,0,60
2,64,127,0
2,64,0,60
2,55,0,0
2,64,127,0
2,48,127,0
2,64,0,60
2,55,127,0
2,55,0,60
2,66,127,0
2,66,0,60
2,64,127,0
2,64,0,60
2,48,0,0
2,64,127,0
2,55,127,0
2,64,0,120
2,59,127,0
2,59,0,120
2,55,0,0
2,57,127,0
2,66,127,0
2,66,0,60
2,64,127,0
2,64,0,60
2,57,0,0
2,56,127,0
2,59,127,0
2,59,0,120
2,56,0,0
2,55,127,0
2,71,127,0
2,55,0,120
2,59,127,0
2,59,0,120
2,71,0,0
2,40,127,0
2,76,127,0
2,40,0,120
2,55,127,0
2,55,0,120
2,76,0,0
2,40,127,0
2,71,127,0
2,40,0,120
2,55,127,0
2,71,0,60
2,67,127,0
2,67,0,60
2,55,0,0
2,40,127,0
2,66,127,0
2,66,0,30
2,67,127,0
2,67,0,30
2,66,127,0
2,66,0,30
2,64,127,0
2,64,0,30
2,40,0,0
2,55,127,0
2,66,127,0
2,66,0,30
2,67,127,0
2,67,0,30
2,66,127,0
2,66,0,30
2,64,127,0
2,64,0,30
2,55,0,0
2,40,127,0
2,66,127,0
2,40,0,120
2,55,127,0
2,66,0,60
2,64,127,0
2,64,0,60
2,55,0,0
2,40,127,0
2,76,127,0
2,40,0,120
2,55,127,0
2,55,0,120
2,76,0,0
2,40,127,0
2,71,127,0
2,40,0,120
2,55,127,0
2,71,0,60
2,67,127,0
2,67,0,60
2,55,0,0
2,40,127,0
2,66,127,0
2,66,0,30
2,67,127,0
2,67,0,30
2,66,127,0
2,66,0,30
2,64,127,0
2,64,0,30
2,40,0,0
2,55,127,0
2,66,127,0
2,66,0,30
2,67,127,0
2,67,0,30
2,66,127,0
2,66,0,30
2,64,127,0
2,64,0,30
2,55,0,0
2,40,127,0
2,66,127,0
2,40,0,120
2,55,127,0
2,66,0,60
2,64,127,0
2,64,0,60
2,55,0,0
2,45,127,0
2,69,127,0
2,69,0,30
2,71,127,0
2,71,0,30
2,69,127,0
2,69,0,30
2,64,127,0
2,64,0,30
2,45,0,0
2,69,127,0
2,55,127,0
2,69,0,30
2,71,127,0
2,71,0,30
2,69,127,0
2,69,0,30
2,64,127,0
2,64,0,30
2,55,0,0
2,45,127,0
2,69,127,0
2,45,0,120
2,55,127,0
2,69,0,60
2,64,127,0
2,64,0,60
2,55,0,0
2,45,127,0
2,69,127,0
2,69,0,30
2,71,127,0
2,71,0,30
2,69,127,0
2,69,0,30
2,64,127,0
2,64,0,30
2,45,0,0
2,69,127,0
2,55,127,0
2,69,0,30
2,71,127,0
2,71,0,30
2,69,127,0
2,69,0,30
2,64,127,0
2,64,0,30
2,55,0,0
2,45,127,0
2,69,127,0
2,45,0,120
2,55,127,0
2,69,0,60
2,64,127,0
2,64,0,60
2,55,0,0
2,40,127,0
2,74,127,0
2,74,0,30
2,76,127,0
2,76,0,30
2,74,127,0
2,74,0,60
2,40,0,0
2,55,127,0
2,71,127,0
2,71,0,30
2,73,127,0
2,73,0,30
2,71,127,0
2,71,0,20
2,73,127,0
2,73,0,20
2,71,127,0
2,71,0,20
2,55,0,0
2,40,127,0
2,74,127,0
2,40,0,120
2,55,127,0
2,55,0,120
2,74,0,0
2,40,127,0
2,74,127,0
2,74,0,30
2,76,127,0
2,76,0,30
2,74,127,0
2,74,0,60
2,40,0,0
2,55,127,0
2,71,127,0
2,71,0,30
2,73,127,0
2,73,0,30
2,71,127,0
2,71,0,20
2,73,127,0
2,73,0,20
2,71,127,0
2,71,0,20
2,55,0,0
2,40,127,0
2,74,127,0
2,40,0,120
2,55,127,0
2,55,0,120
2,74,0,0
2,40,127,0
2,67,127,0
2,40,0,120
2,55,127,0
2,67,0,60
2,62,127,0
2,62,0,60
2,66,127,0
2,55,0,120
2,55,127,0
2,66,0,60
2,62,127,0
2,62,0,60
2,66,127,0
2,55,0,120
2,55,127,0
2,66,0,60
2,62,127,0
2,62,0,60
2,66,127,0
2,55,0,120
2,55,127,0
2,55,0,120
2,66,0,0
3,62,100,16320
3,67,100,0
3,67,0,120
3,62,0,0
3,55,100,0
3,55,0,60
3,62,100,0
3,66,100,0
3,66,0,60
3,62,0,0
3,62,100,0
3,66,100,0
3,66,0,120
3,62,0,0
3,55,100,0
3,55,0,60
3,62,100,0
3,62,0,60
3,66,100,0
3,66,0,120
3,55,100,0
3,55,0,60
3,66,100,0
3,66,0,60
3,62,100,0
3,66,100,0
3,66,0,60
3,62,0,0
3,67,100,0
3,67,0,60
3,60,100,0
3,69,100,0
3,67,100,0
3,67,0,60
3,69,0,0
3,60,0,0
3,71,100,0
3,71,0,60
3,60,100,0
3,64,100,0
3,67,100,0
3,67,0,60
3,64,0,0
3,60,0,0
3,60,100,0
3,60,0,60
3,64,100,0
3,64,0,60
3,62,100,0
3,66,100,0
3,66,0,60
3,62,0,0
3,66,100,0
3,66,0,60
3,57,100,0
3,57,0,60
3,62,100,0
3,62,0,60
3,57,100,0
3,57,0,60
3,66,100,0
3,66,0,60
3,55,100,0
3,55,0,120
3,62,100,0
3,62,0,60
3,56,100,0
3,59,100,0
3,64,100,0
3,64,0,120
3,59,0,0
3,56,0,0
3,59,100,0
3,64,100,0
3,68,100,0
3,68,0,120
3,64,0,0
3,59,0,0
3,63,100,0
3,66,100,0
3,71,100,0
3,71,0,180
3,66,0,0
3,63,0,0
3,63,100,0
3,63,0,60
3,64,100,0
3,64,0,120
3,63,100,0
3,63,0,120
3,61,100,0
3,61,0,60
3,68,100,0
3,68,0,60
3,66,100,0
3,66,0,120
3,68,100,60
3,68,0,60
3,73,100,0
3,73,0,120
3,61,100,0
3,57,100,0
3,66,100,0
3,64,100,0
3,64,0,120
3,61,0,0
3,57,0,0
3,66,0,0
3,62,100,0
3,69,100,0
3,66,100,0
3,66,0,120
3,69,0,0
3,62,0,0
3,71,100,0
3,62,100,0
3,66,100,0
3,66,0,60
3,62,0,0
3,71,0,0
3,57,100,0
3,57,0,60
3,62,100,0
3,62,0,60
3,57,100,0
3,57,0,60
3,66,100,0
3,66,0,60
3,57,100,0
3,57,0,60
3,62,100,0
3,62,0,120
3,57,100,0
3,62,100,0
3,66,100,0
3,66,0,120
3,62,0,0
3,57,0,0
3,69,100,0
3,69,0,60
3,73,100,0
3,73,0,60
3,72,100,0
3,63,100,0
3,68,100,0
3,68,0,120
3,63,0,0
3,72,0,0
3,68,100,0
3,59,100,120
3,64,100,0
3,64,0,120
3,59,0,0
3,68,0,0
3,71,100,0
3,71,0,60
3,75,100,0
3,75,0,60
3,65,100,0
3,70,100,0
3,74,100,0
3,74,0,120
3,70,0,0
3,65,0,0
3,67,100,0
3,67,0,120
3,73,100,0
3,64,100,0
3,69,100,0
3,69,0,240
3,64,0,0
3,73,0,0
3,66,100,0
3,74,100,0
3,66,0,60
3,55,100,0
3,55,0,60
3,62,100,0
3,62,0,120
3,64,100,0
3,64,0,120
3,60,100,0
3,60,0,120
3,66,100,0
3,66,0,60
3,55,100,0
3,55,0,60
3,62,100,0
3,62,0,120
3,64,100,0
3,64,0,120
3,60,100,0
3,60,0,120
3,74,0,0
3,62,100,0
3,67,100,0
3,67,0,120
3,62,0,0
3,55,100,0
3,55,0,60
3,62,100,0
3,66,100,0
3,66,0,60
3,62,0,0
3,62,100,0
3,66,100,0
3,66,0,120
3,62,0,0
3,55,100,0
3,55,0,60
3,62,100,0
3,62,0,60
3,66,100,0
3,66,0,120
3,55,100,0
3,55,0,60
3,66,100,0
3,66,0,60
3,62,100,0
3,66,100,0
3,66,0,60
3,62,0,0
3,67,100,0
3,67,0,60
3,60,100,0
3,69,100,0
3,67,100,0
3,67,0,60
3,69,0,0
3,60,0,0
3,71,100,0
3,71,0,60
3,60,100,0
3,64,100,0
3,67,100,0
3,67,0,60
3,64,0,0
3,60,0,0
3,60,100,0
3,60,0,60
3,64,100,0
3,64,0,60
3,62,100,0
3,66,100,0
3,66,0,60
3,62,0,0
3,66,100,0
3,66,0,60
3,57,100,0
3,57,0,60
3,62,100,0
3,62,0,60
3,57,100,0
3,57,0,60
3,66,100,0
3,66,0,60
3,57,100,0
3,57,0,120
3,62,100,0
3,62,0,60
3,56,100,0
3,59,100,0
3,64,100,0
3,64,0,120
3,59,0,0
3,56,0,0
3,59,100,0
3,64,100,0
3,68,100,0
3,68,0,120
3,64,0,0
3,59,0,0
3,63,100,0
3,66,100,0
3,71,100,0
3,71,0,180
3,66,0,0
3,63,0,0
3,68,100,0
3,68,0,60
3,63,100,0
3,73,100,0
3,68,100,0
3,73,0,60
3,71,100,7
3,68,100,110
3,68,0,3
3,63,0,0
3,71,0,7
3,68,0,50
3,61,100,3
3,69,100,0
3,69,0,60
3,68,100,0
3,68,0,60
3,66,100,0
3,66,0,120
3,61,0,0
3,68,100,60
3,68,0,60
3,73,100,0
3,73,0,120
3,61,100,0
3,57,100,0
3,64,100,0
3,66,100,0
3,66,0,120
3,61,0,0
3,57,0,0
3,64,0,0
3,62,100,0
3,69,100,0
3,66,100,0
3,66,0,120
3,69,0,0
3,62,0,0
3,66,100,0
3,66,0,60
3,57,100,0
3,57,0,60
3,62,100,0
3,62,0,60
3,57,100,0
3,57,0,60
3,66,100,0
3,66,0,60
3,57,100,0
3,57,0,60
3,62,100,0
3,62,0,120
3,73,100,0
3,73,0,60
3,61,100,0
3,61,0,60
3,68,100,0
3,68,0,60
3,64,100,0
3,64,0,60
3,61,100,0
3,61,0,60
3,68,100,0
3,68,0,60
3,73,100,0
3,73,0,60
3,61,100,0
3,61,0,60
3,68,100,0
3,68,0,60
3,64,100,0
3,64,0,60
3,61,100,0
3,61,0,60
3,68,100,0
3,68,0,60
3,73,100,0
3,73,0,60
3,68,100,0
3,68,0,60
3,72,100,0
3,72,0,60
3,60,100,0
3,60,0,60
3,67,100,0
3,67,0,60
3,64,100,0
3,64,0,60
3,60,100,0
3,60,0,60
3,67,100,0
3,67,0,60
3,72,100,0
3,72,0,60
3,60,100,0
3,60,0,60
3,67,100,0
3,67,0,60
3,64,100,0
3,64,0,60
3,60,100,0
3,60,0,60
3,67,100,0
3,67,0,60
3,72,100,0
3,72,0,60
3,67,100,0
3,67,0,60
3,71,100,0
3,71,0,60
3,59,100,0
3,59,0,60
