track,note,velocity,time
1,36,100,3072
1,36,100,534
1,36,100,141
1,36,100,720
1,36,100,527
1,36,100,139
1,36,100,712
1,36,100,521
1,36,100,140
1,36,100,711
1,36,100,523
1,36,100,145
1,36,100,722
1,36,100,534
1,36,100,141
1,36,100,720
1,36,100,527
1,36,100,139
1,36,100,712
1,36,100,521
1,36,100,140
1,36,100,711
1,36,100,1483
1,36,100,534
1,36,100,141
1,36,100,720
1,36,100,527
1,36,100,139
1,36,100,712
1,36,100,521
1,36,100,140
1,36,100,711
1,36,100,523
1,36,100,145
1,36,100,722
1,36,100,534
1,36,100,141
1,36,100,720
1,36,100,527
1,36,100,139
1,36,100,712
1,36,100,521
1,36,100,140
1,36,100,711
1,36,100,1483
1,36,100,534
1,36,100,141
1,36,100,720
1,36,100,527
1,36,100,139
1,36,100,712
1,36,100,521
1,36,100,140
1,36,100,711
1,36,100,523
1,36,100,145
1,36,100,722
1,36,100,534
1,36,100,141
1,36,100,720
1,36,100,527
1,36,100,139
1,36,100,712
1,36,100,521
1,36,100,140
1,36,100,711
1,36,110,1483
1,36,110,908
1,36,110,336
1,36,110,1088
1,36,110,328
1,36,110,109
1,36,110,908
1,36,110,336
1,36,110,1088
1,36,110,328
1,36,110,109
1,36,110,908
1,36,110,336
1,36,110,1088
1,36,110,328
1,36,110,109
1,36,110,908
1,36,110,336
1,36,110,1088
1,36,110,328
1,36,100,109
1,36,100,534
1,36,100,141
1,36,100,720
1,36,100,527
1,36,100,139
1,36,100,712
1,36,100,521
1,36,100,140
1,36,100,711
1,36,100,523
1,36,100,145
1,36,100,722
1,36,100,534
1,36,100,141
1,36,100,720
1,36,100,527
1,36,100,139
1,36,100,712
1,36,100,521
1,36,100,140
1,36,100,711
1,36,100,1483
1,36,100,534
1,36,100,141
1,36,100,720
1,36,100,527
1,36,100,139
1,36,100,712
1,36,100,521
1,36,100,140
1,36,100,711
1,36,100,523
1,36,100,145
1,36,100,722
1,36,100,534
1,36,100,141
1,36,100,720
1,36,100,527
1,36,100,139
1,36,100,712
1,36,100,521
1,36,100,140
1,36,100,711
1,36,100,1483
1,36,100,534
1,36,100,141
1,36,100,720
1,36,100,527
1,36,100,139
1,36,100,712
1,36,100,521
1,36,100,140
1,36,100,711
1,36,100,523
1,36,100,145
1,36,100,722
1,36,100,534
1,36,100,141
1,36,100,720
1,36,100,527
1,36,100,139
1,36,100,712
1,36,100,521
1,36,100,140
1,36,100,711
1,36,110,1483
1,36,110,908
1,36,110,336
1,36,110,1088
1,36,110,328
1,36,110,109
1,36,110,908
1,36,110,336
1,36,110,1088
1,36,110,328
1,36,110,109
1,36,110,908
1,36,110,336
1,36,110,1088
1,36,110,328
1,36,110,109
1,36,110,908
1,36,110,336
1,36,110,1088
1,36,110,328
1,36,100,109
1,36,100,534
1,36,100,141
1,36,100,720
1,36,100,527
1,36,100,139
1,36,100,712
1,36,100,521
1,36,100,140
1,36,100,711
1,36,100,523
1,36,100,145
1,36,100,722
1,36,100,534
1,36,100,141
1,36,100,720
1,36,100,527
1,36,100,139
1,36,100,712
1,36,100,521
1,36,100,140
1,36,100,711
1,36,110,1483
1,36,110,908
1,36,110,336
1,36,110,1088
1,36,110,328
1,36,110,109
1,36,110,908
1,36,110,336
1,36,110,1088
1,36,110,328
1,36,110,109
1,36,110,908
1,36,110,336
1,36,110,1088
1,36,110,328
1,36,110,109
1,36,110,908
1,36,110,336
1,36,110,1088
1,36,110,328
1,36,110,109
1,36,110,908
1,36,110,336
1,36,100,128
1,36,100,534
1,36,100,141
1,36,100,720
1,36,100,527
1,36,100,139
1,36,100,712
1,36,100,521
1,36,100,140
1,36,100,711
1,36,100,523
1,36,100,145
1,36,100,722
1,36,100,534
1,36,100,141
1,36,100,720
1,36,100,527
1,36,100,139
1,36,100,712
1,36,100,521
1,36,100,140
1,36,100,711
1,36,100,534
1,36,100,141
1,36,100,720
1,36,100,527
1,36,100,139
1,36,100,712
1,36,100,521
1,36,100,140
1,36,100,711
1,36,100,523
1,36,100,145
1,36,100,722
1,36,100,534
1,36,100,141
1,36,100,720
1,36,100,527
1,36,100,139
1,36,100,712
1,36,100,521
1,36,100,140
1,36,100,711
1,36,100,1483
1,36,100,534
1,36,100,141
1,36,100,720
1,36,100,527
1,36,100,139
1,36,100,712
1,36,100,521
1,36,100,140
1,36,100,711
1,36,100,523
1,36,100,145
1,36,100,722
1,36,100,534
1,36,100,141
1,36,100,720
1,36,100,527
1,36,100,139
1,36,100,712
1,36,100,521
1,36,100,140
1,36,100,711
1,36,110,1483
1,36,110,908
1,36,110,336
1,36,110,1088
1,36,110,328
1,36,110,109
1,36,110,908
1,36,110,336
1,36,110,1088
1,36,110,328
1,36,110,109
1,36,110,908
1,36,110,336
1,36,110,1088
1,36,110,328
1,36,110,109
1,36,110,908
1,36,110,336
1,36,110,1088
1,36,110,328
1,36,100,109
1,36,100,534
1,36,100,141
1,36,100,720
1,36,100,527
1,36,100,139
1,36,100,712
1,36,100,521
1,36,100,140
1,36,100,711
1,36,100,523
1,36,100,145
1,36,100,722
1,36,100,534
1,36,100,141
1,36,100,720
1,36,100,527
1,36,100,139
1,36,100,712
1,36,100,521
1,36,100,140
1,36,100,711
1,36,100,1483
1,36,100,534
1,36,100,141
1,36,100,720
1,36,100,527
1,36,100,139
1,36,100,712
1,36,100,521
1,36,100,140
1,36,100,711
1,36,100,523
1,36,100,145
1,36,100,722
1,36,100,534
1,36,100,141
1,36,100,720
1,36,100,527
1,36,100,139
1,36,100,712
1,36,100,521
1,36,100,140
1,36,100,711
1,36,100,1483
1,36,100,534
1,36,100,141
1,36,100,720
1,36,100,527
1,36,100,139
1,36,100,712
1,36,100,521
1,36,100,140
1,36,100,711
1,36,100,523
1,36,100,145
1,36,100,722
1,36,100,534
1,36,100,141
1,36,100,720
1,36,100,527
1,36,100,139
1,36,100,712
1,36,100,521
1,36,100,140
1,36,100,711
1,36,100,1483
1,36,100,534
1,36,100,141
1,36,100,720
1,36,100,527
1,36,100,139
1,36,100,712
1,36,100,521
1,36,100,140
1,36,100,711
1,36,100,523
1,36,100,145
1,36,100,722
1,36,100,534
1,36,100,141
1,36,100,720
1,36,100,527
1,36,100,139
1,36,100,712
1,36,100,521
1,36,100,140
1,36,100,711
2,40,106,3456
2,40,117,726
2,40,113,725
2,40,106,724
2,40,113,722
2,40,113,722
2,40,117,725
2,40,113,725
2,40,106,732
2,40,117,726
2,40,113,725
2,40,106,724
2,40,113,722
2,40,113,722
2,40,117,725
2,40,113,725
2,40,106,732
2,40,117,726
2,40,113,725
2,40,106,724
2,40,113,722
2,40,113,722
2,40,117,725
2,40,113,725
2,40,106,732
2,40,117,726
2,40,113,725
2,40,106,724
2,40,113,722
2,40,113,722
2,40,117,725
2,40,113,725
2,40,106,732
2,40,117,726
2,40,113,725
2,40,106,724
2,40,113,722
2,40,113,722
2,40,117,725
2,40,113,725
2,40,106,732
2,40,117,726
2,40,113,725
2,40,106,724
2,40,113,722
2,40,113,722
2,40,117,725
2,40,113,725
2,40,106,348
2,40,109,334
2,40,113,344
2,40,113,343
2,40,109,348
2,40,109,347
2,40,113,344
2,40,113,345
2,40,106,345
2,40,109,334
2,40,113,344
2,40,113,343
2,40,109,348
2,40,109,347
2,40,113,344
2,40,113,345
2,40,106,345
2,40,109,334
2,40,113,344
2,40,113,343
2,40,109,348
2,40,109,347
2,40,113,344
2,40,113,345
2,40,106,345
2,40,109,334
2,40,113,344
2,40,113,343
2,40,109,348
2,40,109,347
2,40,113,536
2,40,76,151
2,40,78,49
2,40,100,44
2,40,110,47
2,40,106,435
2,40,117,726
2,40,113,725
2,40,106,724
2,40,113,722
2,40,113,722
2,40,117,725
2,40,113,725
2,40,106,732
2,40,117,726
2,40,113,725
2,40,106,724
2,40,113,722
2,40,113,722
2,40,117,725
2,40,113,725
2,40,106,732
2,40,117,726
2,40,113,725
2,40,106,724
2,40,113,722
2,40,113,722
2,40,117,725
2,40,113,725
2,40,106,732
2,40,117,726
2,40,113,725
2,40,106,724
2,40,113,722
2,40,113,722
2,40,117,725
2,40,113,725
2,40,106,732
2,40,117,726
2,40,113,725
2,40,106,724
2,40,113,722
2,40,113,722
2,40,117,725
2,40,113,725
2,40,106,732
2,40,117,726
2,40,113,725
2,40,106,724
2,40,113,722
2,40,113,722
2,40,117,725
2,40,113,725
2,40,106,348
2,40,109,334
2,40,113,344
2,40,113,343
2,40,109,348
2,40,109,347
2,40,113,344
2,40,113,345
2,40,106,345
2,40,109,334
2,40,113,344
2,40,113,343
2,40,109,348
2,40,109,347
2,40,113,344
2,40,113,345
2,40,106,345
2,40,109,334
2,40,113,344
2,40,113,343
2,40,109,348
2,40,109,347
2,40,113,344
2,40,113,345
2,40,106,345
2,40,109,334
2,40,113,344
2,40,113,343
2,40,109,348
2,40,109,347
2,40,113,536
2,40,76,151
2,40,78,49
2,40,100,44
2,40,110,47
2,40,106,435
2,40,117,726
2,40,113,725
2,40,106,724
2,40,113,722
2,40,113,722
2,40,117,725
2,40,113,725
2,40,106,732
2,40,117,726
2,40,113,725
2,40,106,724
2,40,113,722
2,40,113,722
2,40,117,725
2,40,113,725
2,40,106,348
2,40,109,334
2,40,113,344
2,40,113,343
2,40,109,348
2,40,109,347
2,40,113,344
2,40,113,345
2,40,106,345
2,40,109,334
2,40,113,344
2,40,113,343
2,40,109,348
2,40,109,347
2,40,113,344
2,40,113,345
2,40,106,345
2,40,109,334
2,40,113,344
2,40,113,343
2,40,109,348
2,40,109,347
2,40,113,344
2,40,113,345
2,40,106,345
2,40,109,334
2,40,113,344
2,40,113,343
2,40,109,348
2,40,109,347
2,40,113,344
2,40,108,345
2,40,106,336
2,40,109,334
2,40,113,344
2,40,113,343
2,40,102,156
2,40,106,48
2,40,106,432
2,40,117,726
2,40,113,725
2,40,106,724
2,40,113,722
2,40,113,722
2,40,117,725
2,40,113,725
2,40,106,732
2,40,117,726
2,40,113,725
2,40,106,724
2,40,113,722
2,40,113,722
2,40,106,725
2,40,117,726
2,40,113,725
2,40,106,724
2,40,113,722
2,40,113,722
2,40,117,725
2,40,113,725
2,40,106,732
2,40,117,726
2,40,113,725
2,40,106,724
2,40,113,722
2,40,113,722
2,40,117,725
2,40,113,725
2,40,106,732
2,40,117,726
2,40,113,725
2,40,106,724
2,40,113,722
2,40,113,722
2,40,117,725
2,40,113,725
2,40,106,732
2,40,117,726
2,40,113,725
2,40,106,724
2,40,113,722
2,40,113,722
2,40,117,725
2,40,113,725
2,40,106,348
2,40,109,334
2,40,113,344
2,40,113,343
2,40,109,348
2,40,109,347
2,40,113,344
2,40,113,345
2,40,106,345
2,40,109,334
2,40,113,344
2,40,113,343
2,40,109,348
2,40,109,347
2,40,113,344
2,40,113,345
2,40,106,345
2,40,109,334
2,40,113,344
2,40,113,343
2,40,109,348
2,40,109,347
2,40,113,344
2,40,113,345
2,40,106,345
2,40,109,334
2,40,113,344
2,40,113,343
2,40,109,348
2,40,109,347
2,40,113,536
2,40,76,151
2,40,78,49
2,40,100,44
2,40,110,47
2,40,106,435
2,40,117,726
2,40,113,725
2,40,106,724
2,40,113,722
2,40,113,722
2,40,117,725
2,40,113,725
2,40,106,732
2,40,117,726
2,40,113,725
2,40,106,724
2,40,113,722
2,40,113,722
2,40,117,725
2,40,113,725
2,40,106,732
2,40,117,726
2,40,113,725
2,40,106,724
2,40,113,722
2,40,113,722
2,40,117,725
2,40,113,725
2,40,106,732
2,40,117,726
2,40,113,725
2,40,106,724
2,40,113,722
2,40,113,722
2,40,117,725
2,40,113,725
2,40,106,732
2,40,117,726
2,40,113,725
2,40,106,724
2,40,113,722
2,40,113,722
2,40,117,725
2,40,113,725
2,40,106,732
2,40,117,726
2,40,113,725
2,40,106,724
2,40,113,722
2,40,113,722
2,40,117,725
2,40,113,725
2,40,106,732
2,40,117,726
2,40,113,725
2,40,106,724
2,40,113,722
2,40,113,722
2,40,117,725
2,40,113,725
2,40,106,732
2,40,117,726
2,40,113,725
2,40,106,724
2,40,113,722
2,40,113,722
2,40,117,725
2,40,113,725
3,42,63,3072
3,42,59,133
3,42,65,142
3,42,61,142
3,42,63,126
3,42,58,121
3,42,58,131
3,42,58,135
3,42,65,141
3,42,58,137
3,42,59,135
3,42,59,134
3,42,67,136
3,42,58,123
3,42,73,128
3,42,67,135
3,42,67,125
3,42,60,125
3,42,59,137
3,42,55,131
3,42,59,139
3,42,59,132
3,42,59,133
3,42,58,130
3,42,60,132
3,42,60,127
3,42,63,137
3,42,64,131
3,42,64,136
3,42,64,131
3,42,73,133
3,42,64,123
3,42,63,136
3,42,59,133
3,42,65,142
3,42,61,142
3,42,63,126
3,42,58,121
3,42,58,131
3,42,58,135
3,42,65,141
3,42,58,137
3,42,59,135
3,42,59,134
3,42,67,136
3,42,58,123
3,42,73,128
3,42,67,135
3,42,67,125
3,42,60,125
3,42,59,137
3,42,55,131
3,42,59,139
3,42,59,132
3,42,59,133
3,42,58,130
3,42,60,132
3,42,60,127
3,42,63,137
3,42,64,131
3,42,64,136
3,42,64,131
3,42,73,133
3,42,64,123
3,42,63,136
3,42,59,133
3,42,65,142
3,42,61,142
3,42,63,126
3,42,58,121
3,42,58,131
3,42,58,135
3,42,65,141
3,42,58,137
3,42,59,135
3,42,59,134
3,42,67,136
3,42,58,123
3,42,73,128
3,42,67,135
3,42,67,125
3,42,60,125
3,42,59,137
3,42,55,131
3,42,59,139
3,42,59,132
3,42,59,133
3,42,58,130
3,42,60,132
3,42,60,127
3,42,63,137
3,42,64,131
3,42,64,136
3,42,64,131
3,42,73,133
3,42,64,123
3,42,63,136
3,42,59,133
3,42,65,142
3,42,61,142
3,42,63,126
3,42,58,121
3,42,58,131
3,42,58,135
3,42,65,141
3,42,58,137
3,42,59,135
3,42,59,134
3,42,67,136
3,42,58,123
3,42,73,128
3,42,67,135
3,42,67,125
3,42,60,125
3,42,59,137
3,42,55,131
3,42,59,139
3,42,59,132
3,42,59,133
3,42,58,130
3,42,60,132
3,42,60,127
3,42,63,137
3,42,64,131
3,42,64,136
3,42,64,131
3,42,73,133
3,42,64,123
3,42,63,136
3,42,59,133
3,42,65,142
3,42,61,142
3,42,63,126
3,42,58,121
3,42,58,131
3,42,58,135
3,42,65,141
3,42,58,137
3,42,59,135
3,42,59,134
3,42,67,136
3,42,58,123
3,42,73,128
3,42,67,135
3,42,67,125
3,42,60,125
3,42,59,137
3,42,55,131
3,42,59,139
3,42,59,132
3,42,59,133
3,42,58,130
3,42,60,132
3,42,60,127
3,42,63,137
3,42,64,131
3,42,64,136
3,42,64,131
3,42,73,133
3,42,64,123
3,42,63,136
3,42,59,133
3,42,65,142
3,42,61,142
3,42,63,126
3,42,58,121
3,42,58,131
3,42,58,135
3,42,65,141
3,42,58,137
3,42,59,135
3,42,59,134
3,42,67,136
3,42,58,123
3,42,73,128
3,42,67,135
3,42,67,125
3,42,60,125
3,42,59,137
3,42,55,131
3,42,59,139
3,42,59,132
3,42,59,133
3,42,58,130
3,42,60,132
3,42,60,127
3,42,63,137
3,42,64,131
3,42,64,136
3,42,64,131
3,42,73,133
3,42,64,123
3,42,63,136
3,42,59,133
3,42,65,142
3,42,61,142
3,42,63,126
3,42,58,121
3,42,58,131
3,42,58,135
3,42,65,141
3,42,58,137
3,42,59,135
3,42,59,134
3,42,67,136
3,42,58,123
3,42,73,128
3,42,67,135
3,42,67,125
3,42,60,125
3,42,59,137
3,42,55,131
3,42,59,139
3,42,59,132
3,42,59,133
3,42,58,130
3,42,60,132
3,42,60,127
3,42,63,137
3,42,64,131
3,42,64,136
3,42,64,131
3,42,73,133
3,42,64,123
3,42,63,136
3,42,59,133
3,42,65,142
3,42,61,142
3,42,63,126
3,42,58,121
3,42,58,131
3,42,58,135
3,42,65,141
3,42,58,137
3,42,59,135
3,42,59,134
3,42,67,136
3,42,58,123
3,42,73,128
3,42,67,135
3,42,67,125
3,42,60,125
3,42,59,137
3,42,55,131
3,42,59,139
