track,note,velocity,time
1,56,127,4419
1,56,0,120
1,55,111,0
1,55,0,120
1,58,127,0
1,58,0,120
1,51,127,0
1,51,0,480
1,55,127,1081
1,55,0,60
1,55,127,60
1,55,0,120
1,58,127,1
1,55,112,239
1,58,0,1
1,55,0,119
1,55,127,0
1,55,0,60
1,55,127,1
1,55,0,59
1,55,127,0
1,58,127,58
1,55,0,2
1,58,127,297
1,58,0,60
1,58,0,60
1,51,127,2
1,51,0,360
1,67,117,960
1,67,0,117
1,67,117,3
1,67,0,117
1,67,127,3
1,67,0,120
1,65,118,1
1,65,0,117
1,65,127,4
1,65,0,120
1,63,126,0
1,63,0,240
1,60,127,0
1,60,0,180
1,58,127,58
1,58,127,240
1,58,0,120
1,58,0,120
1,60,127,0
1,60,0,240
1,58,122,0
1,58,0,120
1,58,109,1
1,58,0,120
1,58,127,0
1,58,0,120
1,58,127,0
1,58,0,240
1,55,127,0
1,53,111,58
1,55,0,2
1,53,0,58
1,51,127,1
1,51,0,540
1,56,127,181
1,55,108,119
1,56,0,1
1,55,0,119
1,58,122,0
1,51,127,119
1,58,0,1
1,51,0,239
1,55,127,1321
1,55,0,117
1,55,120,3
1,55,0,117
1,55,127,4
1,55,0,240
1,58,127,1
1,55,123,238
1,58,0,2
1,55,0,118
1,58,124,1
1,58,0,240
1,55,127,0
1,51,122,239
1,55,0,1
1,51,0,59
1,53,122,0
1,53,0,60
1,55,119,0
1,55,0,360
1,67,127,721
1,67,0,117
1,67,127,2
1,67,0,117
1,67,127,4
1,67,0,240
1,65,127,0
1,65,0,60
1,65,127,59
1,65,0,240
1,63,127,1
1,63,0,240
1,58,127,1
1,58,0,180
1,58,127,59
1,58,0,180
1,58,127,58
1,58,0,240
1,58,127,1
1,58,0,180
1,58,127,59
1,58,0,240
1,55,127,1
1,55,0,180
1,51,127,60
1,51,0,540
1,58,127,421
1,58,0,117
1,58,127,4
1,70,127,239
1,58,0,1
1,68,124,1558
1,70,0,1
1,67,124,957
1,68,0,2
1,63,127,240
1,67,0,58
1,63,0,182
1,58,127,1
1,58,0,420
1,58,127,59
1,58,0,120
1,58,127,1
1,58,0,240
1,70,127,1
1,68,102,1678
1,70,0,2
1,68,0,118
1,67,127,3
1,67,0,180
1,63,127,60
1,63,0,180
1,60,127,60
1,60,0,180
1,63,127,58
1,63,0,840
1,56,127,3718
1,56,0,120
1,55,112,1
1,55,0,120
1,58,127,1
1,58,0,120
1,51,127,0
1,51,0,360
1,55,127,1199
1,55,0,117
1,55,127,3
1,55,0,117
1,55,127,3
1,55,0,120
1,58,127,2
1,55,127,239
1,58,0,1
1,55,0,179
1,58,127,59
1,58,0,120
1,55,126,1
1,51,127,239
1,55,0,1
1,53,119,58
1,51,0,1
1,53,0,59
1,55,122,1
1,55,0,480
1,67,127,721
1,67,0,117
1,67,127,2
1,67,0,117
1,67,127,3
1,67,0,240
1,65,126,0
1,65,0,120
1,65,127,1
1,65,0,240
1,63,127,1
1,63,0,240
1,58,127,0
1,60,127,239
1,58,0,1
1,60,0,179
1,58,118,539
1,58,0,120
1,58,127,0
1,58,0,120
1,55,127,1
1,55,0,180
1,51,127,59
1,51,0,420
1,56,127,300
1,56,0,120
1,55,122,1
1,58,124,119
1,55,0,1
1,58,0,119
1,51,127,2
1,51,0,240
1,55,127,1319
1,55,0,60
1,55,127,59
1,55,0,120
1,58,127,1
1,58,0,120
1,55,123,0
1,55,0,117
1,55,127,2
1,55,0,240
1,58,127,1
1,58,0,240
1,55,127,2
1,55,0,180
1,51,127,58
1,51,0,420
1,67,127,899
1,67,0,120
1,65,127,1
1,65,0,120
1,65,127,120
1,65,0,180
1,63,127,60
1,63,0,240
1,60,127,0
1,60,0,180
1,58,127,60
1,58,0,180
1,58,127,60
1,58,0,240
1,60,127,2
1,60,0,180
1,58,127,59
1,58,0,180
1,58,127,58
1,58,0,120
1,55,126,1
1,53,127,239
1,55,0,1
1,53,0,119
1,51,127,1
1,51,0,840
1,58,127,481
1,58,0,117
1,58,127,1
1,58,0,237
1,58,127,3
1,58,0,240
1,60,127,1
1,60,0,240
1,63,127,1
1,63,0,180
1,58,127,59
1,58,0,180
1,58,127,59
1,58,0,300
1,67,127,301
1,67,0,300
1,65,127,62
1,65,0,180
1,63,127,59
1,63,0,120
1,60,127,0
1,60,0,480
1,58,127,719
1,58,0,60
1,58,127,61
1,58,0,180
1,58,127,60
1,58,0,180
1,60,127,60
1,60,0,180
1,63,127,60
1,63,0,180
1,58,127,59
1,58,127,239
1,58,0,121
1,58,0,239
1,67,127,242
1,67,0,300
1,65,122,59
1,65,0,117
1,65,127,2
1,65,0,120
1,63,127,0
1,63,0,120
1,60,127,1
1,60,0,720
1,58,127,1800
1,58,0,117
1,58,127,2
1,58,0,117
1,58,127,4
1,58,0,360
1,70,127,2
1,68,127,1557
1,70,0,3
1,68,0,957
1,67,127,0
1,67,0,240
1,63,127,0
1,63,0,180
1,58,127,60
1,58,0,240
1,58,127,240
1,58,0,120
1,58,127,1
1,58,0,240
1,70,127,0
1,70,0,1620
1,68,127,59
1,68,0,120
1,67,127,0
1,67,0,240
1,63,127,0
1,63,0,240
1,60,127,2
1,63,127,239
1,60,0,1
1,63,0,719
1,58,127,0
1,58,0,117
1,58,127,2
1,58,0,117
1,58,127,2
1,58,0,357
1,70,127,4
1,70,0,1560
1,68,127,1
1,68,0,720
1,67,127,239
1,67,0,240
1,63,127,2
1,63,0,180
1,58,127,59
1,58,0,360
1,58,127,119
1,58,0,120
1,58,127,2
1,70,127,238
1,58,0,2
1,70,0,1678
1,68,127,1
1,68,0,120
1,67,127,1
1,67,0,240
1,63,127,0
1,60,127,238
1,63,0,2
1,60,0,238
1,63,127,1
1,63,0,5
1,58,127,7500
1,58,0,120
1,58,127,1
1,58,0,120
1,58,127,1
1,58,0,240
1,70,127,120
1,70,0,1560
1,68,127,0
1,67,127,958
1,68,0,2
1,67,0,238
1,63,127,0
1,63,0,240
1,58,127,0
1,58,0,420
1,58,124,58
1,58,0,120
1,58,127,3
1,58,0,240
1,70,127,0
1,68,127,1679
1,70,0,1
1,68,0,119
1,67,127,3
1,63,127,239
1,67,0,1
1,63,0,239
1,60,127,0
1,63,127,238
1,60,0,2
1,63,0,718
1,58,127,0
1,58,0,120
1,58,127,0
1,58,0,120
1,58,127,0
1,58,0,360
1,70,127,2
1,68,127,1560
1,70,0,60
1,68,0,660
1,67,127,237
1,67,0,240
1,63,127,2
1,58,127,239
1,63,0,1
1,58,0,359
1,58,127,120
1,58,0,120
1,58,127,1
1,58,0,240
1,70,127,0
1,68,127,1679
1,70,0,1
1,68,0,119
1,67,127,3
1,67,0,180
1,63,127,59
1,60,127,239
1,63,0,1
1,63,127,238
1,60,0,1
1,63,0,719
1,58,127,1
1,58,0,60
1,58,127,60
1,58,0,60
1,58,127,61
1,58,0,360
1,70,127,0
1,68,127,1559
1,70,0,1
1,68,0,899
1,67,127,41
1,67,0,240
1,63,127,19
1,58,111,239
1,63,0,1
1,58,0,419
1,58,127,60
1,58,0,120
1,58,127,2
1,70,127,239
1,58,0,1
1,68,127,1678
1,70,0,1
1,68,0,119
1,67,127,3
1,67,0,180
1,63,127,58
1,63,0,240
1,60,127,1
1,60,0,240
1,63,127,0
1,63,0,4
2,39,109,2500
2,43,106,120
2,39,0,9
2,43,0,106
2,46,112,5
2,51,109,120
2,46,0,7
2,39,90,1913
2,51,0,26
2,46,97,454
2,39,0,27
2,44,86,333
2,46,0,1
2,44,0,1077
2,39,94,2
2,46,92,480
2,39,0,13
2,46,0,345
2,44,107,2
2,39,99,1080
2,44,0,16
2,46,106,464
2,39,0,13
2,46,0,347
2,44,120,0
2,44,0,1073
2,39,104,7
2,46,107,480
2,39,0,17
2,46,0,342
2,44,107,1
2,44,0,1053
2,27,102,27
2,34,95,240
2,27,0,22
2,34,0,89
2,39,109,9
2,34,86,120
2,39,0,2
2,32,122,358
2,34,0,3
2,32,0,408
2,32,122,69
2,32,0,71
2,32,122,49
2,32,0,480
2,27,114,0
2,34,107,360
2,27,0,5
2,34,0,41
2,34,116,74
2,34,0,328
2,32,111,32
2,32,0,438
2,32,116,42
2,32,0,44
2,32,118,76
2,32,0,479
2,27,116,1
2,34,116,360
2,27,0,13
2,34,0,25
2,34,120,82
2,34,0,307
2,32,120,53
2,32,0,418
2,32,116,62
2,32,0,40
2,32,114,80
2,32,0,475
2,27,112,5
2,34,120,360
2,27,0,21
2,34,0,17
2,34,126,82
2,34,0,322
2,32,109,38
2,32,0,38
2,32,122,82
2,32,0,31
2,32,126,89
2,32,0,168
2,32,122,72
2,32,0,53
2,32,126,67
2,32,0,48
2,32,112,72
2,32,0,53
2,32,127,67
2,32,0,52
2,32,122,68
2,32,0,116
2,27,127,4
2,31,122,240
2,27,0,1
2,34,97,119
2,31,0,1
2,34,0,49
2,34,127,70
2,34,0,339
2,32,114,21
2,32,0,33
2,32,126,87
2,36,123,240
2,32,0,2
2,36,0,116
2,39,118,2
2,27,124,120
2,39,0,11
2,27,0,219
2,29,119,10
2,31,111,120
2,29,0,1
2,32,127,119
2,31,0,9
2,32,0,344
2,34,118,7
2,34,0,239
2,32,127,1
2,32,0,230
2,27,126,10
2,27,0,42
2,27,127,78
2,27,0,307
2,27,118,53
2,34,127,120
2,27,0,9
2,34,0,172
2,27,127,23
2,31,122,240
2,27,0,14
2,31,0,103
2,34,116,3
2,34,0,77
2,34,127,43
2,34,0,352
2,32,127,8
2,32,0,178
2,32,127,62
2,32,0,221
2,27,127,19
2,27,0,458
2,31,124,22
2,31,0,112
2,32,116,8
2,32,0,293
2,32,118,67
2,32,0,181
2,32,122,59
2,32,0,219
2,27,127,21
2,27,0,2
2,51,87,2
2,51,0,1907
2,39,94,13
2,46,106,480
2,39,0,18
2,46,0,334
2,44,104,8
2,44,0,198
2,44,112,42
2,44,0,185
2,44,120,55
2,44,0,192
2,44,127,48
2,44,0,88
2,44,124,32
2,44,0,96
2,44,98,24
2,44,0,66
2,27,120,54
2,27,0,480
2,34,102,0
2,34,0,326
2,32,75,34
2,32,0,51
2,32,124,69
2,32,0,294
2,32,116,66
2,32,0,38
2,32,124,82
2,32,0,476
2,27,126,4
2,31,118,240
2,27,0,3
2,31,0,117
2,32,112,0
2,34,104,120
2,32,0,11
2,34,0,342
2,32,114,7
2,32,0,41
2,32,120,79
2,32,0,275
2,32,116,85
2,32,0,33
2,32,122,87
2,32,0,478
2,27,122,2
2,34,126,480
2,27,0,5
2,34,0,336
2,31,115,19
2,32,104,120
2,31,0,13
2,32,0,285
2,32,127,62
2,32,0,32
2,32,127,88
2,32,0,466
2,27,127,14
2,31,124,360
2,27,0,15
2,34,116,105
2,31,0,3
2,34,0,331
2,32,127,26
2,32,0,33
2,32,127,87
2,32,0,273
2,32,118,87
2,32,0,32
2,32,127,88
2,32,0,3
2,27,127,2
2,39,109,240
2,27,0,13
2,36,115,107
2,39,0,5
2,34,122,115
2,36,0,9
2,34,0,274
2,34,127,77
2,32,127,120
2,34,0,5
2,32,0,285
2,32,127,70
2,32,0,52
2,32,127,68
2,32,0,474
2,27,127,6
2,27,0,229
2,31,119,11
2,32,104,120
2,31,0,6
2,34,107,114
2,32,0,14
2,34,0,338
2,32,127,8
2,32,0,38
2,32,126,82
2,32,0,277
2,32,120,83
2,32,0,30
2,32,118,90
2,32,0,468
2,27,127,12
2,39,109,3
2,27,0,3
2,36,127,32
2,39,0,13
2,36,0,102
2,34,122,5
2,34,0,352
2,32,124,8
2,32,0,37
2,32,126,83
2,32,0,284
2,32,116,76
2,32,0,31
2,32,124,89
2,32,0,193
2,32,127,47
2,32,0,223
2,27,127,17
2,27,0,221
2,31,120,19
2,31,0,113
2,32,97,7
2,34,114,120
2,32,0,14
2,34,0,333
2,32,120,13
2,32,0,39
2,32,126,81
2,32,0,281
2,32,118,79
2,32,0,64
2,32,70,56
2,32,0,48
2,32,81,72
2,32,0,58
2,32,124,62
2,32,0,68
2,32,127,52
2,32,0,75
2,34,127,45
2,34,0,268
2,34,127,92
2,34,0,39
2,34,127,81
2,34,0,474
2,32,127,6
2,32,0,597
2,39,127,3
2,39,0,120
2,32,127,0
2,27,127,5
2,32,0,9
2,27,0,109
2,27,127,115
2,27,0,346
2,34,127,14
2,34,0,128
2,32,127,112
2,32,0,35
2,32,127,85
2,32,0,293
2,32,127,67
2,32,0,86
2,32,127,34
2,32,0,80
2,32,126,40
2,32,0,83
2,32,127,37
2,32,0,81
2,32,122,39
2,32,0,117
2,34,127,3
2,34,0,66
2,34,127,174
2,34,0,316
2,34,127,44
2,34,0,87
2,34,127,33
2,34,0,76
2,34,124,44
2,34,0,94
2,32,127,26
2,32,0,306
2,32,127,54
2,32,0,75
2,32,127,45
2,39,127,240
2,32,0,22
2,39,0,28
2,27,55,2
2,27,0,7
2,27,127,169
2,27,0,345
2,34,127,15
2,34,0,117
2,32,127,123
2,32,0,404
2,32,127,76
2,32,0,115
2,32,127,5
2,32,0,85
2,32,116,35
2,32,0,94
2,32,127,26
2,32,0,83
2,32,122,37
2,32,0,108
2,39,127,12
2,39,0,112
2,34,127,8
2,34,0,120
2,27,127,0
2,27,0,149
2,34,127,211
2,34,0,127
2,32,127,113
2,32,0,54
2,32,127,66
2,32,0,284
2,32,127,76
2,32,0,72
2,32,127,48
2,32,0,50
2,32,127,70
2,24,127,120
2,32,0,4
2,24,0,108
2,26,127,8
2,26,0,87
2,27,127,33
2,31,123,240
2,27,0,2
2,34,112,118
2,31,0,7
2,34,0,71
2,34,124,42
2,34,0,346
2,32,126,14
2,32,0,51
2,32,127,69
2,32,0,238
2,36,127,2
2,36,0,119
2,39,124,1
2,27,127,120
2,39,0,11
2,27,0,222
2,29,117,7
2,31,122,120
2,29,0,18
2,32,120,102
2,31,0,9
2,32,0,349
2,34,116,2
2,34,0,226
2,32,127,14
2,32,0,226
2,27,127,14
2,27,0,79
2,27,127,41
2,27,0,189
2,27,126,51
2,27,0,82
2,27,124,38
2,36,126,120
2,27,0,10
2,36,0,108
2,39,120,2
2,39,0,119
2,36,126,1
2,36,0,120
2,34,124,0
2,34,0,111
2,27,127,9
2,27,0,231
2,31,123,9
2,34,112,120
2,31,0,1
2,34,0,82
2,34,126,37
2,34,0,321
2,32,124,39
2,32,0,54
2,32,127,66
2,36,127,240
2,32,0,13
2,36,0,99
2,39,124,8
2,39,0,118
2,27,127,2
2,27,0,359
2,31,124,1
2,31,0,108
2,32,112,12
2,32,0,292
2,32,127,68
2,32,0,182
2,32,127,58
2,32,0,222
2,27,118,18
2,27,0,108
2,41,127,12
2,39,124,59
2,41,0,2
2,41,127,118
2,39,0,7
2,39,127,233
2,41,0,6
2,34,120,114
2,39,0,7
2,34,0,113
2,27,127,0
2,31,120,240
2,27,0,7
2,31,0,111
2,34,116,2
2,34,0,85
2,34,124,35
2,34,0,359
2,32,127,1
2,32,0,73
2,32,127,47
2,32,0,237
2,36,126,3
2,36,0,108
2,39,124,12
2,27,127,120
2,39,0,5
2,27,0,355
2,31,120,0
2,31,0,120
2,32,118,0
2,32,0,356
2,34,109,4
2,34,0,230
2,32,127,10
2,32,0,235
2,27,126,5
2,27,0,34
2,27,127,86
2,27,0,295
2,27,127,65
2,36,124,120
2,27,0,20
2,36,0,94
2,34,118,6
2,34,0,118
2,36,123,2
2,36,0,118
2,34,127,2
2,27,127,120
2,34,0,3
2,31,120,237
2,27,0,11
2,31,0,109
2,34,127,0
2,34,0,82
2,34,122,38
2,34,0,353
2,32,112,7
2,32,0,49
2,32,127,71
2,32,0,238
2,36,123,2
2,36,0,112
2,39,124,8
2,27,127,120
2,39,0,9
2,27,0,342
2,31,124,9
2,32,124,120
2,31,0,5
2,32,0,282
2,32,127,73
2,32,0,173
2,32,127,67
2,32,0,224
2,27,127,16
2,27,0,83
2,27,111,37
2,27,0,76
2,27,127,44
2,36,127,120
2,27,0,12
2,34,106,108
2,36,0,3
2,34,0,110
2,36,122,7
2,36,0,113
