track,note,velocity,time
1,36,127,750
1,36,0,7
1,36,127,23
1,36,0,8
1,36,127,22
1,36,0,8
1,36,127,22
1,36,0,9
1,36,127,21
1,36,0,7
1,36,127,23
1,36,0,9
1,36,127,21
1,36,0,7
1,36,127,23
1,36,0,9
1,36,127,21
1,36,0,7
1,36,127,23
1,36,0,8
1,36,127,22
1,36,0,7
1,36,127,23
1,36,0,8
1,36,127,22
1,36,0,7
1,36,127,23
1,36,0,9
1,36,127,21
1,36,0,7
1,36,127,23
1,36,0,8
1,36,127,22
1,36,0,8
1,36,127,22
1,36,0,8
1,36,127,22
1,36,0,7
1,36,127,23
1,36,0,7
1,36,127,23
1,36,0,8
1,36,127,22
1,36,0,8
1,36,127,22
1,36,0,8
1,36,127,22
1,36,0,7
1,36,127,23
1,36,0,7
1,36,127,23
1,36,0,8
1,36,127,22
1,36,0,7
1,36,127,23
1,36,0,8
1,36,127,22
1,36,0,7
1,36,127,23
1,36,0,9
1,36,127,21
1,36,0,8
1,36,127,22
1,36,0,8
1,36,127,22
1,36,0,8
1,36,127,22
1,36,0,9
1,36,127,21
1,36,0,8
1,36,127,22
1,36,0,9
1,36,127,21
1,36,0,8
1,36,127,22
1,36,0,11
1,36,127,19
1,36,0,8
1,36,127,22
1,36,0,9
1,36,127,21
1,36,0,9
1,36,127,21
1,36,0,9
1,36,127,21
1,36,0,7
1,36,127,23
1,36,0,9
1,36,127,21
1,36,0,8
1,36,127,22
1,36,0,10
1,36,127,20
1,36,0,9
1,36,127,21
1,36,0,10
1,36,127,20
1,36,0,9
1,36,127,21
1,36,0,10
1,36,127,20
1,36,0,9
1,36,127,21
1,36,0,9
1,36,127,21
1,36,0,8
1,36,127,22
1,36,0,9
1,36,127,21
1,36,0,7
1,36,127,23
1,36,0,10
1,36,127,20
1,36,0,9
1,36,127,21
1,36,0,10
1,36,127,20
1,36,0,9
1,36,127,21
1,36,0,10
1,36,127,20
1,36,0,7
1,36,127,23
1,36,0,10
1,36,127,20
1,36,0,9
1,36,127,21
1,36,0,9
1,36,127,21
1,36,0,9
1,36,127,21
1,36,0,11
1,36,127,19
1,36,0,9
1,36,127,21
1,36,0,10
1,36,127,20
1,36,0,9
1,36,127,21
1,36,0,8
1,36,127,22
1,36,0,9
1,36,127,21
1,36,0,9
1,36,127,21
1,36,0,9
1,36,127,21
1,36,0,10
1,36,127,20
1,36,0,10
1,36,127,20
1,36,0,9
1,36,127,21
1,36,0,8
1,36,127,22
1,36,0,8
1,36,127,22
1,36,0,7
1,36,127,23
1,36,0,9
1,36,127,21
1,36,0,9
1,36,127,21
1,36,0,9
1,36,127,21
1,36,0,9
1,36,127,21
1,36,0,10
1,36,127,20
1,36,0,9
1,36,127,21
1,36,0,10
1,36,127,20
1,36,0,9
1,36,127,21
1,36,0,10
1,36,127,20
1,36,0,8
1,36,127,22
1,36,0,10
1,36,127,20
1,36,0,9
1,36,127,21
1,36,0,9
1,36,127,21
1,36,0,9
1,36,127,21
1,36,0,11
1,36,127,19
1,36,0,9
1,36,127,21
1,36,0,10
1,36,127,20
1,36,0,7
1,36,127,23
1,36,0,10
1,36,127,20
1,36,0,10
1,36,127,80
1,36,0,10
1,36,127,20
1,36,0,9
1,36,127,21
1,36,0,10
1,36,127,20
1,36,0,10
1,36,127,20
1,36,0,10
1,36,127,20
1,36,0,9
1,36,127,21
1,36,0,9
1,36,127,21
1,36,0,9
1,36,127,21
1,36,0,9
1,36,127,21
1,36,0,8
1,36,127,22
1,36,0,9
1,36,127,21
1,36,0,9
1,36,127,21
1,36,0,10
1,36,127,20
1,36,0,9
1,36,127,21
1,36,0,10
1,36,127,20
1,36,0,8
1,36,127,22
1,36,0,9
1,36,127,21
1,36,0,9
1,36,127,21
1,36,0,8
1,36,127,22
1,36,0,9
1,36,127,21
1,36,0,10
1,36,127,20
1,36,0,8
1,36,127,22
1,36,0,11
1,36,127,19
1,36,0,9
1,36,127,21
1,36,0,9
1,36,127,21
1,36,0,9
1,36,127,21
1,36,0,9
1,36,127,21
1,36,0,8
1,36,127,22
1,36,0,10
1,36,127,20
1,36,0,8
1,36,127,22
1,36,0,10
1,36,127,20
1,36,0,8
1,36,127,22
1,36,0,10
1,36,127,20
1,36,0,8
1,36,127,22
1,36,0,10
1,36,127,20
1,36,0,7
1,36,127,23
1,36,0,10
1,36,127,20
1,36,0,7
1,36,127,23
1,36,0,8
1,36,127,22
1,36,0,9
1,36,127,21
1,36,0,11
1,36,127,19
1,36,0,10
1,36,127,20
1,36,0,10
1,36,127,20
1,36,0,9
1,36,127,21
1,36,0,11
1,36,127,19
1,36,0,9
1,36,127,21
1,36,0,11
1,36,127,19
1,36,0,8
1,36,127,22
1,36,0,10
1,36,127,20
1,36,0,8
1,36,127,22
1,36,0,10
1,36,127,20
1,36,0,10
1,36,127,20
1,36,0,11
1,36,127,19
1,36,0,8
1,36,127,22
1,36,0,11
1,36,127,19
1,36,0,9
1,36,127,21
1,36,0,11
1,36,127,19
1,36,0,8
1,36,127,22
1,36,0,11
1,36,127,19
1,36,0,8
1,36,127,22
1,36,0,9
1,36,127,21
1,36,0,8
1,36,127,22
1,36,0,10
1,36,127,20
1,36,0,10
1,36,127,20
1,36,0,10
1,36,127,20
1,36,0,9
1,36,127,21
1,36,0,10
1,36,127,20
1,36,0,8
1,36,127,22
1,36,0,10
1,36,127,20
1,36,0,9
1,36,127,21
1,36,0,9
1,36,127,21
1,36,0,8
1,36,127,22
1,36,0,9
1,36,127,21
1,36,0,9
1,36,127,21
1,36,0,9
1,36,127,21
1,36,0,9
1,36,127,21
1,37,127,30
1,36,0,8
1,37,0,3
1,37,127,19
1,37,0,12
1,37,127,18
1,37,0,10
1,37,127,20
1,37,0,12
1,37,127,18
1,37,0,10
1,37,127,20
1,37,0,11
1,37,127,19
1,37,0,10
1,37,127,20
1,37,0,12
1,37,127,18
1,37,0,10
1,37,127,20
1,37,0,10
1,37,127,20
1,37,0,10
1,37,127,20
1,37,0,11
1,37,127,19
1,37,0,11
1,37,127,19
1,37,0,11
1,37,127,19
1,37,0,11
1,37,127,19
1,37,0,11
1,37,127,19
1,37,0,10
1,37,127,20
1,37,0,13
1,37,127,17
1,37,0,12
1,37,127,18
1,37,0,11
1,37,127,19
1,37,0,11
1,37,127,19
1,37,0,12
1,37,127,18
1,37,0,12
1,37,127,18
1,37,0,12
1,37,127,18
1,37,0,12
1,37,127,18
1,37,0,13
1,37,127,17
1,37,0,11
1,37,127,19
1,37,0,12
1,37,127,18
1,37,0,10
1,37,127,20
1,37,0,11
1,37,127,19
1,37,0,10
1,37,127,20
1,37,0,11
1,37,127,19
1,37,0,11
1,37,127,19
1,37,0,12
1,37,127,18
1,37,0,11
1,37,127,19
1,37,0,12
1,37,127,18
1,37,0,11
1,37,127,19
1,37,0,11
1,37,127,19
1,37,0,9
1,37,127,21
1,37,0,11
1,37,127,19
1,37,0,12
1,37,127,18
1,37,0,12
1,37,127,18
1,37,0,11
1,37,127,19
1,37,0,13
1,37,127,17
1,37,0,11
1,37,127,19
1,37,0,11
1,37,127,19
1,37,0,11
1,37,127,19
1,37,0,11
1,37,127,19
1,37,0,12
1,37,127,18
1,37,0,12
1,37,127,18
1,37,0,12
1,37,127,18
1,37,0,13
1,37,127,17
1,37,0,13
1,37,127,17
1,37,0,11
1,37,127,19
1,37,0,11
1,37,127,19
1,37,0,12
1,37,127,18
1,37,0,12
1,37,127,18
1,37,0,12
1,37,127,18
1,37,0,12
1,37,127,18
1,37,0,12
1,37,127,18
1,37,0,12
1,37,127,18
1,37,0,12
1,37,127,18
1,37,0,12
1,37,127,18
1,37,0,11
1,37,127,19
1,37,0,30
1,36,127,0
1,36,127,0
1,36,0,9
1,36,0,0
1,36,127,21
1,36,0,10
1,36,127,20
1,36,0,9
1,36,127,21
1,36,0,10
1,36,127,20
1,36,0,11
1,36,127,19
1,36,0,10
1,36,127,20
1,36,0,10
1,36,127,20
1,36,0,10
1,36,127,20
1,36,0,11
1,36,127,19
1,36,0,11
1,36,127,19
1,36,0,11
1,36,127,19
1,36,0,12
1,36,127,18
1,36,0,11
1,36,127,19
1,36,0,10
1,36,127,20
1,36,0,10
1,36,127,20
1,36,0,12
1,31,127,18
1,31,0,11
1,31,127,19
1,31,0,11
1,31,127,19
1,31,0,11
1,31,127,19
1,31,0,10
1,31,127,20
1,31,0,10
1,31,127,20
1,31,0,10
1,31,127,20
1,31,0,10
1,36,127,20
1,36,0,10
1,36,127,20
1,36,0,10
1,36,127,20
1,36,0,12
1,36,127,18
1,36,0,11
1,36,127,19
1,36,0,11
1,36,127,19
1,36,0,12
1,36,127,18
1,36,0,11
1,36,127,19
1,36,0,11
1,36,127,19
1,36,0,11
1,36,127,19
1,36,0,11
1,36,127,19
1,36,0,10
1,36,127,20
1,36,0,10
1,36,127,20
1,36,0,11
1,36,127,19
1,36,0,11
1,36,127,19
1,36,0,10
1,36,127,20
1,36,0,11
1,36,127,19
1,36,0,12
1,29,127,15
1,29,0,60
1,29,127,96
1,29,0,60
1,29,127,120
1,29,0,60
1,37,127,87
1,37,0,10
1,37,127,20
1,37,0,10
1,37,127,20
1,37,0,9
1,37,127,21
1,37,0,10
1,37,127,20
1,38,127,0
1,37,0,11
1,38,0,0
1,37,127,19
1,37,0,10
1,37,127,20
1,37,0,11
1,37,127,19
1,37,0,11
1,37,127,19
1,37,0,9
1,37,127,21
1,37,0,9
1,37,127,21
1,37,0,11
1,37,127,19
1,37,0,11
1,37,127,19
1,37,0,11
1,37,127,19
1,37,0,10
1,37,127,20
1,37,0,10
1,37,127,20
1,37,0,10
1,29,127,18
1,29,0,60
1,29,127,97
1,29,0,60
1,29,127,117
1,29,0,60
1,29,127,117
1,29,0,60
1,34,127,55
1,34,0,60
1,36,127,99
1,36,0,464
1,36,127,24
1,36,0,45
1,31,126,10
1,31,0,401
1,36,127,73
1,36,0,8
1,36,127,22
1,36,0,9
1,36,127,21
1,36,0,10
1,36,127,20
1,36,0,9
1,36,127,21
1,36,0,8
1,36,127,22
1,36,0,8
1,36,127,22
1,36,0,9
1,36,127,21
1,36,0,8
1,36,127,22
1,36,0,9
1,36,127,21
1,36,0,9
1,36,127,21
1,36,0,9
1,36,127,21
1,36,0,9
1,36,127,21
1,36,0,8
1,36,127,22
1,36,0,9
1,36,127,21
1,36,0,9
1,36,127,21
1,36,0,10
1,36,127,20
1,36,0,9
1,36,127,21
1,36,0,10
1,36,127,20
1,36,0,10
1,36,127,20
1,36,0,10
1,36,127,20
1,36,0,10
1,36,127,20
1,36,0,8
1,36,127,22
1,36,0,11
1,36,127,19
1,36,0,10
1,36,127,20
1,36,0,9
1,36,127,21
1,36,0,8
1,36,127,22
1,36,0,10
1,36,127,20
1,36,0,10
1,36,127,20
1,36,0,11
1,36,127,19
1,36,0,8
1,36,127,22
1,36,0,9
1,36,127,21
1,36,0,9
1,36,127,21
1,36,0,11
1,36,127,19
1,36,0,10
1,36,127,20
1,36,0,11
1,36,127,19
1,36,0,9
1,36,127,21
1,36,0,10
1,36,127,20
1,36,0,8
1,36,127,22
1,36,0,11
1,36,127,19
1,36,0,9
1,36,127,21
1,36,0,10
1,36,127,20
1,36,0,9
1,36,127,21
1,36,0,9
1,36,127,21
1,36,0,9
1,36,127,21
1,36,0,10
1,36,127,20
1,36,0,11
1,36,127,19
1,36,0,10
1,36,127,20
1,36,0,10
1,36,127,20
1,36,0,10
1,36,127,20
1,36,0,10
1,36,127,20
1,36,0,10
1,36,127,20
1,36,0,9
1,36,127,21
1,36,0,9
1,36,127,21
1,36,0,10
1,36,127,20
1,36,0,11
1,36,127,19
1,36,0,8
1,36,127,22
1,36,0,9
1,36,127,21
1,36,0,10
1,36,127,20
1,36,0,10
1,36,127,20
1,36,0,10
1,36,127,20
1,36,0,8
1,36,127,22
1,36,0,10
1,36,127,20
1,36,0,11
1,36,127,19
1,36,0,9
1,36,127,21
1,36,0,10
1,36,127,20
1,36,0,10
1,36,127,20
1,36,0,10
1,36,127,20
1,36,0,10
1,36,127,20
1,36,0,10
1,36,127,20
1,36,0,11
1,36,127,19
1,36,0,11
1,36,127,19
1,36,0,11
1,36,127,19
1,36,0,11
1,36,127,19
1,36,0,11
1,36,127,19
1,36,0,10
1,36,127,20
1,36,0,11
1,36,127,19
1,36,0,11
1,36,127,19
1,36,0,10
1,36,127,20
1,36,0,11
1,36,127,19
1,36,0,11
1,36,127,19
1,36,0,11
1,36,127,19
1,36,0,11
1,36,127,19
1,36,0,10
1,36,127,20
1,36,0,11
1,36,127,19
1,36,0,11
1,36,127,19
1,36,0,11
1,36,127,19
1,36,0,10
1,36,127,20
1,36,0,10
1,36,127,20
1,36,0,11
1,36,127,19
1,36,0,9
1,36,127,21
1,36,0,11
1,36,127,19
1,36,0,10
1,36,127,20
1,36,0,9
1,36,127,21
1,36,0,11
1,36,127,19
1,36,0,10
1,36,127,20
1,36,0,9
1,36,127,21
1,36,0,9
1,36,127,21
1,36,0,10
1,36,127,20
1,36,0,10
1,36,127,20
1,36,0,10
1,36,127,20
1,36,0,9
1,36,127,21
1,36,0,8
1,36,127,22
1,37,127,30
1,36,0,2
1,37,0,20
1,37,127,8
1,37,0,13
1,37,127,17
1,37,0,9
1,37,127,21
1,37,0,11
1,37,127,19
1,37,0,10
1,37,127,20
1,37,0,11
1,37,127,19
1,37,0,10
1,37,127,20
1,37,0,10
1,37,127,20
1,37,0,11
1,37,127,19
1,37,0,12
1,37,127,18
1,37,0,10
1,37,127,20
1,37,0,12
1,37,127,18
1,37,0,10
1,37,127,20
1,37,0,11
1,37,127,19
1,37,0,11
1,37,127,19
1,37,0,11
1,37,127,19
1,37,0,11
1,37,127,19
1,37,0,11
1,37,127,19
1,37,0,12
1,37,127,18
1,37,0,12
1,37,127,18
1,37,0,11
1,37,127,19
1,37,0,11
1,37,127,19
1,37,0,12
1,37,127,18
1,37,0,11
1,37,127,19
1,37,0,11
1,37,127,19
1,37,0,12
1,37,127,18
1,37,0,11
1,37,127,19
1,37,0,12
1,37,127,18
1,37,0,11
1,37,127,19
1,37,0,10
1,37,127,20
1,37,0,11
1,37,127,19
1,37,0,13
1,37,127,17
1,37,0,12
1,37,127,18
1,37,0,12
1,37,127,18
1,37,0,12
1,37,127,18
1,37,0,12
1,37,127,18
1,37,0,11
1,37,127,19
1,37,0,13
1,37,127,17
1,37,0,11
1,37,127,19
1,37,0,12
1,37,127,18
1,37,0,12
1,37,127,18
1,37,0,13
1,37,127,17
1,37,0,12
1,37,127,18
1,37,0,11
1,37,127,19
1,37,0,11
1,37,127,19
1,37,0,11
1,37,127,19
1,37,0,11
1,37,127,19
1,37,0,12
1,37,127,18
1,37,0,12
1,37,127,18
1,37,0,13
1,37,127,17
1,37,0,13
1,37,127,17
1,37,0,13
1,37,127,17
1,37,0,11
1,37,127,19
1,37,0,12
1,37,127,18
1,37,0,10
1,37,127,20
1,37,0,11
1,37,127,19
1,37,0,11
1,37,127,19
1,37,0,11
1,37,127,19
1,37,0,11
1,37,127,19
1,37,0,11
1,37,127,19
1,37,0,10
1,37,127,20
1,37,0,11
1,37,127,19
1,37,0,11
1,37,127,19
1,37,0,10
1,37,127,20
1,37,0,29
1,36,127,1
1,36,0,16
1,36,127,14
1,36,0,10
1,36,127,20
1,36,0,10
1,36,127,20
1,36,0,10
1,36,127,20
1,36,0,10
1,36,127,20
1,36,0,9
1,36,127,21
1,36,0,10
1,36,127,20
1,36,0,11
1,36,127,19
1,36,0,11
1,36,127,19
1,36,0,10
1,36,127,20
1,36,0,11
1,36,127,19
1,36,0,10
1,36,127,20
1,36,0,11
1,36,127,19
1,36,0,11
1,36,127,19
1,36,0,12
1,36,127,18
1,36,0,10
1,31,127,20
1,31,0,10
1,31,127,20
1,31,0,10
1,31,127,20
1,31,0,10
1,31,127,20
1,31,0,10
1,31,127,20
1,31,0,10
1,31,127,20
1,31,0,9
