track,note,velocity,time
3,78,111,672
3,78,0,480
3,73,98,0
3,73,0,120
3,74,102,0
3,74,0,120
3,76,103,0
3,76,0,480
3,73,90,0
3,73,0,240
3,78,105,0
3,78,0,480
3,73,107,0
3,73,0,120
3,74,101,0
3,74,0,120
3,76,105,0
3,76,0,480
3,73,99,0
3,73,0,240
3,78,108,0
3,78,0,480
3,73,92,0
3,73,0,120
3,74,94,0
3,74,0,120
3,76,107,0
3,76,0,480
3,73,94,0
3,73,0,240
3,71,108,0
3,71,0,720
3,69,107,0
3,69,0,720
3,78,108,0
3,78,0,480
3,73,92,0
3,73,0,120
3,74,94,0
3,74,0,120
3,76,107,0
3,76,0,480
3,73,94,0
3,73,0,240
3,71,108,0
3,71,0,720
3,69,107,0
3,69,0,720
3,78,108,0
3,78,0,480
3,73,92,0
3,73,0,120
3,74,94,0
3,74,0,120
3,76,107,0
3,76,0,480
3,73,94,0
3,73,0,240
3,71,108,0
3,71,0,720
3,69,107,0
3,69,0,720
3,78,108,0
3,78,0,480
3,73,92,0
3,73,0,120
3,74,94,0
3,74,0,120
3,76,107,0
3,76,0,480
3,73,94,0
3,73,0,240
3,71,108,0
3,71,0,720
3,69,107,0
3,69,0,720
3,78,108,0
3,78,0,480
3,73,92,0
3,73,0,120
3,74,94,0
3,74,0,120
3,76,107,0
3,76,0,480
3,73,94,0
3,73,0,240
3,71,115,0
3,71,0,240
3,83,100,1890
3,83,0,119
3,79,101,151
3,79,0,720
3,81,92,0
3,81,0,677
3,81,85,43
3,81,0,670
3,81,84,50
3,81,0,684
3,81,85,36
3,81,0,653
3,78,108,67
3,78,0,480
3,73,92,0
3,73,0,120
3,74,94,0
3,74,0,120
3,76,107,0
3,76,0,480
3,73,94,0
3,73,0,240
3,71,108,0
3,71,0,720
3,69,107,0
3,69,0,720
3,78,108,0
3,78,0,480
3,73,92,0
3,73,0,120
3,74,94,0
3,74,0,120
3,76,107,0
3,76,0,480
3,73,94,0
3,73,0,240
3,71,108,0
3,71,0,720
3,69,107,0
3,69,0,720
3,78,108,0
3,78,0,480
3,73,92,0
3,73,0,120
3,74,94,0
3,74,0,120
3,76,107,0
3,76,0,480
3,73,90,0
3,73,0,240
3,71,86,0
3,71,0,240
3,76,100,0
3,76,0,1440
3,80,81,0
3,80,0,1440
3,78,92,0
3,78,0,677
3,78,85,43
3,78,0,670
3,78,84,50
3,78,0,684
3,78,85,36
3,78,0,653
3,78,92,67
3,78,0,677
3,78,85,43
3,78,0,670
3,78,84,50
3,78,0,684
3,78,85,36
3,78,0,653
3,75,108,67
3,75,0,480
3,70,92,0
3,70,0,120
3,71,94,0
3,71,0,120
3,73,107,0
3,73,0,480
3,70,94,0
3,70,0,240
3,68,108,0
3,68,0,720
3,66,107,0
3,66,0,720
3,75,108,0
3,75,0,480
3,70,92,0
3,70,0,120
3,71,94,0
3,71,0,120
3,73,107,0
3,73,0,480
3,70,94,0
3,70,0,240
3,68,108,0
3,68,0,720
3,66,107,0
3,66,0,720
3,75,108,0
3,75,0,480
3,70,92,0
3,70,0,120
3,71,94,0
3,71,0,120
3,73,107,0
3,73,0,480
3,70,94,0
3,70,0,480
3,78,113,0
3,78,0,480
3,75,113,0
3,75,0,120
3,76,113,0
3,76,0,120
3,78,114,0
3,78,0,705
3,78,113,15
3,78,0,480
3,75,114,0
3,75,0,120
3,76,111,0
3,76,0,120
3,78,113,0
3,78,0,480
3,75,114,0
3,75,0,240
3,78,114,0
3,78,0,720
3,76,113,0
3,76,0,720
3,78,113,0
3,78,0,720
3,76,110,0
3,76,0,240
3,78,109,0
3,78,0,240
3,76,112,0
3,76,0,240
3,69,96,2
3,66,100,3
3,74,99,1
3,78,105,0
3,69,0,179
3,74,0,3
3,66,0,5
3,78,0,11
3,78,101,38
3,66,101,2
3,74,100,3
3,69,86,2
3,69,0,69
3,66,0,1
3,78,0,5
3,74,0,3
3,69,90,24
3,74,94,0
3,66,101,1
3,78,89,16
3,66,0,39
3,74,0,21
3,78,0,1
3,69,0,9
3,66,98,35
3,78,97,1
3,74,98,5
3,69,79,8
3,66,0,63
3,78,0,4
3,74,0,2
3,69,0,0
3,69,87,35
3,74,98,8
3,78,94,0
3,66,87,10
3,69,0,37
3,74,0,11
3,78,0,25
3,66,0,9
3,69,86,23
3,74,101,4
3,66,96,9
3,78,97,2
3,74,0,170
3,69,0,29
3,66,0,7
3,78,0,4
3,78,97,24
3,69,88,0
3,74,96,3
3,66,103,4
3,78,0,61
3,66,0,4
3,69,0,3
3,74,0,5
3,69,92,34
3,78,99,0
3,74,92,3
3,66,94,9
3,69,0,42
3,74,0,9
3,78,0,2
3,66,0,5
3,74,103,43
3,66,96,1
3,78,96,12
3,69,88,7
3,74,0,32
3,66,0,14
3,78,0,3
3,69,0,28
3,69,94,24
3,78,92,4
3,74,96,8
3,66,92,1
3,69,0,40
3,78,0,12
3,74,0,5
3,66,0,18
3,74,109,31
3,69,103,5
3,78,103,7
3,66,98,2
3,69,0,184
3,74,0,0
3,78,0,4
3,66,0,1
3,66,101,37
3,78,102,2
3,69,89,3
3,74,99,11
3,78,0,46
3,66,0,0
3,69,0,12
3,74,0,0
3,66,94,50
3,74,95,4
3,78,94,2
3,69,96,7
3,66,0,42
3,69,0,10
3,78,0,9
3,74,0,3
3,78,94,45
3,69,94,3
3,66,97,2
3,74,102,9
3,74,0,45
3,69,0,4
3,78,0,17
3,66,0,1
3,69,94,39
3,74,96,1
3,78,97,10
3,66,91,2
3,74,0,51
3,69,0,8
3,66,0,4
3,78,0,7
3,78,103,35
3,74,108,2
3,69,105,2
3,66,105,7
3,74,0,172
3,78,0,3
3,69,0,27
3,66,0,4
3,74,105,24
3,78,97,1
3,66,99,1
3,69,94,3
3,74,0,50
3,69,0,3
3,66,0,0
3,78,0,19
3,78,87,48
3,66,106,6
3,74,98,1
3,69,97,2
3,74,0,44
3,69,0,6
3,78,0,8
3,66,0,5
3,69,88,46
3,78,95,3
3,74,104,2
3,66,98,6
3,74,0,38
3,78,0,17
3,69,0,3
3,66,0,21
3,78,96,23
3,74,91,1
3,69,95,9
3,66,91,3
3,78,0,38
3,74,0,4
3,69,0,8
3,66,0,14
3,74,101,45
3,69,98,3
3,66,94,3
3,78,105,2
3,74,0,179
3,69,0,2
3,66,0,9
3,78,0,26
3,74,103,15
3,66,96,3
3,78,94,6
3,69,97,4
3,74,0,41
3,66,0,8
3,78,0,8
3,69,0,21
3,78,89,29
3,74,96,4
3,69,95,3
3,66,99,1
3,66,0,46
3,74,0,3
3,69,0,6
3,78,0,13
3,69,88,45
3,66,98,1
3,78,90,3
3,74,96,12
3,66,0,34
3,69,0,5
3,78,0,5
3,74,0,6
3,66,91,56
3,69,88,11
3,78,96,2
3,74,100,1
3,66,0,36
3,69,0,25
3,78,0,2
3,74,0,7
3,74,106,40
3,78,108,0
3,69,103,4
3,66,104,0
3,74,0,180
3,66,0,13
3,78,0,4
3,69,0,9
3,74,107,22
3,69,94,2
3,66,105,5
3,78,105,5
3,74,0,53
3,69,0,17
3,66,0,3
3,78,0,6
3,69,93,29
3,74,92,3
3,66,95,1
3,78,94,4
3,74,0,48
3,69,0,8
3,78,0,5
3,66,0,1
3,74,102,49
3,66,92,14
3,69,86,3
3,78,89,1
3,74,0,56
3,66,0,2
3,69,0,1
3,78,0,19
3,66,102,24
3,78,92,3
3,69,87,8
3,74,96,3
3,78,0,52
3,69,0,6
3,66,0,5
3,74,0,7
3,66,103,36
3,74,106,0
3,69,96,1
3,78,98,10
3,66,0,182
3,69,0,3
3,74,0,29
3,66,106,15
3,69,103,0
3,78,0,1
3,74,102,0
3,78,102,16
3,66,0,57
3,74,0,3
3,69,0,2
3,78,0,10
3,66,101,32
3,74,94,7
3,69,94,3
3,78,99,9
3,74,0,44
3,69,0,7
3,66,0,3
3,78,0,24
3,78,86,25
3,74,97,5
3,66,100,8
3,69,97,1
3,74,0,41
3,69,0,10
3,66,0,3
3,78,0,12
3,74,96,37
3,66,100,9
3,78,95,7
3,69,94,3
3,74,0,52
3,78,0,6
3,66,0,8
3,69,0,16
3,74,99,20
3,78,97,7
3,66,102,5
3,69,93,7
3,74,0,167
3,66,0,4
3,69,0,9
3,78,0,2
3,78,92,39
3,66,96,3
3,74,90,1
3,69,92,2
3,74,0,47
3,69,0,14
3,78,0,0
3,66,0,3
3,74,100,51
3,66,98,3
3,78,101,6
3,69,91,8
3,66,0,47
3,74,0,8
3,78,0,19
3,69,0,4
3,69,97,29
3,78,97,1
3,74,91,4
3,66,97,8
3,74,0,39
3,69,0,28
3,78,0,2
3,66,0,10
3,74,100,33
3,66,102,1
3,69,97,1
3,78,102,5
3,69,0,62
3,78,0,8
3,66,0,0
3,74,0,4
3,73,96,29
3,69,102,1
3,64,100,10
3,76,102,6
3,69,0,164
3,73,0,6
3,64,0,18
3,76,0,16
3,69,92,18
3,64,103,5
3,73,92,12
3,76,97,0
3,69,0,47
3,64,0,20
3,73,0,10
3,76,0,20
3,76,92,6
3,64,103,11
3,69,83,3
3,73,93,3
3,64,0,54
3,69,0,7
3,76,0,3
3,73,0,29
3,76,94,20
3,64,101,2
3,73,83,1
3,69,80,7
3,73,0,47
3,76,0,7
3,64,0,0
3,69,0,4
3,69,91,54
3,64,103,2
3,76,96,1
3,73,86,3
3,76,0,58
3,64,0,0
3,69,0,7
3,73,0,10
3,64,104,29
3,69,98,5
3,73,101,8
3,76,106,3
3,64,0,197
3,69,0,1
3,73,0,2
3,76,0,15
3,76,104,7
3,69,96,7
3,73,94,7
3,64,105,6
3,73,0,58
3,76,0,3
3,69,0,7
3,64,0,29
3,69,85,8
3,64,99,1
3,73,91,9
3,76,101,2
3,69,0,39
3,73,0,34
3,64,0,3
3,76,0,9
3,64,107,22
3,69,91,5
3,76,99,7
3,73,100,1
3,73,0,52
3,69,0,7
3,64,0,3
3,76,0,10
3,76,95,32
3,69,94,0
3,73,85,2
3,64,106,6
3,69,0,60
3,64,0,6
3,73,0,7
3,76,0,3
3,78,99,43
3,74,103,0
3,66,98,1
3,69,100,2
3,66,0,197
3,74,0,1
3,78,0,13
3,69,0,4
3,78,95,15
3,74,99,2
3,66,106,0
3,69,101,16
3,66,0,49
3,74,0,1
3,69,0,2
3,78,0,14
3,66,99,37
3,69,96,5
3,74,94,0
3,78,95,12
3,66,0,34
3,74,0,12
3,69,0,5
3,78,0,12
3,74,101,38
3,69,97,11
3,78,89,0
3,66,93,3
3,74,0,31
3,69,0,27
3,78,0,4
3,66,0,3
3,78,98,49
3,74,96,5
3,69,87,4
3,66,90,3
3,66,0,53
3,78,0,2
3,74,0,8
3,69,0,16
3,74,103,21
3,78,96,1
3,66,102,3
3,69,94,6
3,74,0,156
3,78,0,17
3,66,0,3
3,69,0,13
3,66,99,42
3,78,100,3
3,69,92,10
3,74,97,0
3,69,0,51
3,66,0,0
3,78,0,10
3,74,0,5
3,69,93,45
3,74,93,2
3,78,94,5
3,66,98,6
3,69,0,39
3,74,0,19
3,78,0,16
3,66,0,3
3,74,96,26
3,69,98,3
3,66,102,2
3,78,97,9
3,74,0,34
3,69,0,36
3,66,0,2
3,78,0,10
3,69,95,29
3,66,99,10
3,74,105,0
3,78,102,1
3,66,0,53
3,74,0,7
3,78,0,11
3,69,0,1
3,76,108,35
3,73,99,1
3,64,105,7
3,69,93,8
3,73,0,167
3,69,0,21
3,64,0,0
3,76,0,1
3,73,90,34
3,64,100,2
3,69,95,6
3,76,102,0
3,64,0,62
3,69,0,15
3,73,0,4
3,76,0,11
3,64,94,18
3,69,91,4
3,73,93,0
3,76,95,15
3,69,0,51
3,64,0,1
3,73,0,9
3,76,0,12
3,69,86,32
3,73,90,4
3,76,94,4
3,64,97,5
3,73,0,43
3,69,0,16
3,76,0,23
3,64,0,1
3,69,86,28
3,73,84,6
3,64,99,4
3,76,98,0
3,69,0,35
3,73,0,28
3,76,0,0
3,64,0,15
3,76,108,23
3,73,96,11
3,69,92,7
3,64,108,2
3,73,0,177
3,69,0,12
3,76,0,12
3,64,0,12
3,76,107,9
3,73,99,1
3,69,88,5
3,64,103,11
3,76,0,57
3,69,0,2
3,73,0,12
3,64,0,1
3,76,102,33
3,73,97,2
3,69,84,7
3,64,103,6
3,73,0,56
3,69,0,1
3,76,0,6
3,64,0,21
3,69,92,21
3,76,103,7
3,73,90,3
3,64,102,2
3,76,0,54
3,69,0,10
3,73,0,7
3,64,0,15
3,73,88,23
3,64,101,0
3,69,94,2
3,76,94,7
3,76,0,58
3,69,0,4
3,64,0,3
3,73,0,10
3,66,97,42
3,78,95,1
3,69,101,3
3,74,98,3
3,66,0,193
3,74,0,6
3,78,0,4
3,69,0,10
3,66,100,14
3,69,104,1
3,74,103,1
3,78,101,6
3,69,0,47
3,66,0,6
3,74,0,11
3,78,0,12
3,66,95,37
3,69,93,6
3,74,103,2
3,78,90,1
3,78,0,56
3,69,0,3
3,66,0,2
3,74,0,7
3,66,96,40
3,69,97,1
3,74,94,0
3,78,88,10
3,74,0,39
3,66,0,5
3,69,0,2
3,78,0,38
3,74,101,23
3,66,98,10
3,78,93,0
3,69,91,4
3,74,0,53
3,69,0,3
3,78,0,2
3,66,0,1
3,74,99,48
3,66,104,12
3,69,95,3
3,78,99,1
3,74,0,170
3,66,0,4
3,69,0,18
3,78,0,8
3,66,102,27
3,78,92,0
3,74,97,5
3,69,100,5
3,74,0,44
3,78,0,1
3,69,0,7
3,66,0,9
3,78,102,49
3,74,94,6
3,66,93,4
3,69,91,1
3,74,0,47
3,78,0,4
3,66,0,1
3,69,0,0
3,74,96,54
3,69,96,13
3,66,92,2
3,78,94,0
3,74,0,45
3,69,0,6
3,66,0,6
3,78,0,3
3,66,103,45
3,74,106,8
3,78,100,0
3,69,97,10
3,66,0,39
3,78,0,15
3,69,0,6
3,74,0,4
3,76,104,46
3,67,103,2
3,71,102,5
3,79,108,1
3,71,0,203
3,67,0,9
3,76,0,3
3,79,109,7
3,67,103,5
3,79,0,1
3,76,103,1
3,71,93,5
3,67,0,51
3,79,0,17
3,76,0,5
3,71,0,4
3,71,95,34
3,79,96,0
3,76,100,4
3,67,102,6
3,67,0,54
3,71,0,17
3,79,0,0
3,76,0,19
3,76,97,20
3,67,97,4
3,79,108,4
3,71,90,9
3,76,0,54
3,67,0,3
3,79,0,1
3,71,0,31
3,76,100,18
3,71,94,1
3,79,99,6
3,67,110,4
3,79,0,92
3,76,0,1
3,71,0,12
3,67,100,1
3,76,108,4
3,64,103,3
3,67,0,1
3,72,102,4
3,76,0,184
3,72,0,8
3,64,0,3
3,67,0,1
3,67,97,30
3,76,106,2
3,64,101,1
3,72,99,12
3,64,0,66
3,76,0,1
3,67,0,1
3,72,0,12
3,76,106,25
3,72,103,8
3,64,103,0
3,67,95,6
3,76,0,50
3,67,0,8
3,64,0,0
3,72,0,10
3,64,106,45
3,76,104,0
3,72,99,3
3,67,86,2
3,67,0,54
3,72,0,10
3,64,0,3
3,76,0,5
3,67,95,35
3,64,106,11
3,72,102,4
3,76,100,2
3,64,0,99
3,67,0,1
3,64,110,3
3,72,103,0
3,76,0,4
3,72,0,4
3,76,107,7
3,67,104,3
3,72,0,165
3,67,0,21
3,64,0,2
3,76,0,14
3,64,104,19
3,67,94,2
3,72,104,12
3,76,107,5
3,64,0,73
3,67,0,10
3,72,0,12
3,72,110,7
3,76,0,1
3,76,108,0
3,64,108,10
3,67,91,4
3,72,0,58
3,64,0,5
3,67,0,3
3,76,0,4
3,64,105,36
3,72,101,1
3,76,105,5
3,67,90,9
3,67,0,54
3,76,0,4
3,72,0,2
3,64,0,8
3,64,104,47
3,76,106,3
3,67,96,0
3,72,107,0
3,69,92,106
3,76,0,2
3,62,101,0
3,66,99,0
3,72,0,6
3,74,98,5
3,64,0,1
3,67,0,8
3,69,0,189
3,62,0,10
3,66,0,5
3,69,94,16
3,66,100,1
3,74,0,1
3,62,100,11
3,74,103,3
