track,note,velocity,time
2,34,108,7440
2,34,0,3524
2,32,105,76
2,32,0,112
2,34,97,8
2,34,0,108
2,37,108,12
2,37,0,88
2,39,100,32
2,39,0,80
2,39,105,40
2,39,0,72
2,39,108,48
2,39,0,88
2,39,102,152
2,39,0,60
2,39,108,60
2,39,0,72
2,39,105,48
2,39,0,80
2,39,113,160
2,39,0,64
2,39,108,56
2,39,0,68
2,39,108,52
2,39,0,92
2,39,113,148
2,39,0,60
2,32,102,60
2,32,0,116
2,34,95,4
2,34,0,84
2,37,108,36
2,37,0,72
2,39,108,48
2,39,0,72
2,39,102,48
2,39,0,80
2,39,108,40
2,39,0,92
2,39,108,148
2,39,0,64
2,39,105,56
2,39,0,80
2,39,108,40
2,39,0,80
2,39,108,160
2,39,0,60
2,39,105,60
2,39,0,68
2,39,113,52
2,39,0,88
2,39,113,152
2,39,0,60
2,32,93,60
2,32,0,108
2,34,95,12
2,34,0,88
2,37,108,32
2,37,0,88
2,39,100,32
2,39,0,80
2,39,105,40
2,39,0,72
2,39,108,48
2,39,0,88
2,39,102,152
2,39,0,60
2,39,108,60
2,39,0,72
2,39,105,48
2,39,0,80
2,39,113,160
2,39,0,64
2,39,108,56
2,39,0,68
2,39,108,52
2,39,0,92
2,39,113,148
2,39,0,60
2,32,102,60
2,32,0,116
2,34,95,4
2,34,0,84
2,37,108,36
2,37,0,72
2,39,108,48
2,39,0,72
2,39,102,48
2,39,0,80
2,39,108,40
2,39,0,92
2,39,108,148
2,39,0,64
2,39,105,56
2,39,0,80
2,39,108,40
2,39,0,80
2,39,108,160
2,39,0,60
2,39,105,60
2,39,0,68
2,39,113,52
2,39,0,88
2,39,113,152
2,39,0,60
2,32,93,60
2,32,0,108
2,34,95,12
2,34,0,88
2,37,102,32
2,37,0,88
2,39,100,32
2,39,0,80
2,39,105,40
2,39,0,72
2,39,108,48
2,39,0,88
2,39,102,152
2,39,0,60
2,39,108,60
2,39,0,72
2,39,105,48
2,39,0,80
2,39,113,160
2,39,0,64
2,39,108,56
2,39,0,68
2,39,108,52
2,39,0,92
2,39,113,148
2,39,0,60
2,32,102,60
2,32,0,116
2,34,95,4
2,34,0,84
2,37,108,36
2,37,0,72
2,39,108,48
2,39,0,72
2,39,102,48
2,39,0,80
2,39,108,40
2,39,0,92
2,39,108,148
2,39,0,64
2,39,105,56
2,39,0,80
2,39,108,40
2,39,0,80
2,39,108,160
2,39,0,60
2,39,105,60
2,39,0,68
2,39,113,52
2,39,0,88
2,39,113,152
2,39,0,60
2,32,93,60
2,32,0,108
2,34,95,12
2,34,0,88
2,37,108,32
2,37,0,88
2,39,100,32
2,39,0,80
2,39,105,40
2,39,0,72
2,39,108,48
2,39,0,88
2,39,102,152
2,39,0,60
2,39,108,60
2,39,0,72
2,39,105,48
2,39,0,80
2,39,113,160
2,39,0,64
2,39,108,56
2,39,0,68
2,39,108,52
2,39,0,92
2,39,113,148
2,39,0,60
2,32,102,60
2,32,0,116
2,34,95,4
2,34,0,84
2,37,108,36
2,37,0,72
2,39,108,48
2,39,0,72
2,39,102,48
2,39,0,80
2,39,108,40
2,39,0,92
2,39,108,148
2,39,0,64
2,39,105,56
2,39,0,80
2,39,108,40
2,39,0,80
2,39,108,160
2,39,0,112
2,42,110,8
2,42,0,112
2,44,104,8
2,44,0,104
2,46,111,16
2,46,0,96
2,49,107,24
2,49,0,112
2,51,103,8
2,51,0,108
2,37,98,12
2,37,0,112
2,37,108,8
2,37,0,88
2,39,100,32
2,39,0,80
2,39,105,40
2,39,0,72
2,39,108,48
2,39,0,88
2,39,102,152
2,39,0,60
2,39,108,60
2,39,0,72
2,39,105,48
2,39,0,80
2,39,113,160
2,39,0,64
2,39,108,56
2,39,0,68
2,39,108,52
2,39,0,92
2,39,113,148
2,39,0,60
2,32,102,60
2,32,0,116
2,34,95,4
2,34,0,84
2,37,108,36
2,37,0,72
2,39,108,48
2,39,0,72
2,39,102,48
2,39,0,80
2,39,108,40
2,39,0,92
2,39,108,148
2,39,0,64
2,39,105,56
2,39,0,80
2,39,108,40
2,39,0,80
2,39,108,160
2,39,0,60
2,39,105,60
2,39,0,68
2,39,113,52
2,39,0,88
2,39,113,152
2,39,0,60
2,32,93,60
2,32,0,108
2,34,95,12
2,34,0,88
2,37,108,32
2,37,0,72
2,39,108,48
2,39,0,72
2,39,102,48
2,39,0,80
2,39,108,40
2,39,0,92
2,39,108,148
2,39,0,64
2,39,105,56
2,39,0,80
2,39,108,40
2,39,0,80
2,39,108,160
2,39,0,60
2,39,105,60
2,39,0,68
2,39,113,52
2,39,0,88
2,39,113,152
2,39,0,60
2,32,93,60
2,32,0,108
2,34,95,12
2,34,0,88
2,37,108,32
2,37,0,88
2,39,100,32
2,39,0,80
2,39,105,40
2,39,0,72
2,39,108,48
2,39,0,88
2,39,102,152
2,39,0,60
2,39,108,60
2,39,0,72
2,39,105,48
2,39,0,80
2,39,113,160
2,39,0,64
2,32,93,56
2,32,0,108
2,34,95,12
2,34,0,88
2,37,108,32
2,37,0,88
2,39,100,32
2,39,0,80
2,32,102,40
2,32,0,112
2,34,95,8
2,34,0,84
2,37,113,36
2,37,0,92
2,39,99,28
2,39,0,80
2,39,99,40
2,39,0,104
2,39,100,16
2,39,0,120
2,39,108,120
2,39,0,72
2,39,105,48
2,39,0,80
2,39,108,40
2,39,0,96
2,39,108,144
2,39,0,64
2,41,105,56
2,41,0,112
2,39,105,8
2,39,0,92
2,43,97,28
2,43,0,116
2,39,102,4
2,39,0,116
2,43,95,4
2,43,0,108
2,37,105,12
2,37,0,100
2,39,113,20
2,39,0,92
2,41,99,28
2,41,0,80
2,39,99,40
2,39,0,104
2,39,100,16
2,39,0,120
2,39,111,120
2,39,0,312
2,37,103,168
2,37,0,160
2,39,105,80
2,39,0,92
2,39,102,148
2,39,0,116
2,34,95,4
2,34,0,108
2,37,105,12
2,37,0,100
2,39,113,20
2,39,0,92
2,41,100,28
2,41,0,76
2,39,105,44
2,39,0,84
2,39,105,36
2,39,0,76
2,39,108,164
2,39,0,96
2,39,108,144
2,39,0,96
2,39,108,144
2,39,0,92
2,39,108,148
2,39,0,100
2,39,102,140
2,39,0,96
2,32,105,24
2,32,0,96
2,34,105,24
2,34,0,76
2,39,113,44
2,39,0,92
2,41,100,28
2,41,0,76
2,39,105,44
2,39,0,84
2,39,105,36
2,39,0,76
2,39,108,164
2,39,0,96
2,39,108,144
2,39,0,88
2,41,107,32
2,41,0,232
2,39,108,8
2,39,0,220
2,37,108,20
2,37,0,232
2,34,95,8
2,34,0,224
2,32,113,16
2,32,0,940
2,37,108,20
2,37,0,952
2,42,108,8
2,42,0,816
2,35,107,24
2,35,0,1048
2,32,113,32
2,32,0,940
2,37,108,20
2,37,0,952
2,42,108,8
2,42,0,816
2,35,107,24
2,35,0,1048
2,32,102,32
2,32,0,828
2,35,95,12
2,35,0,116
2,37,105,4
2,37,0,952
2,42,102,8
2,42,0,836
2,35,95,4
2,35,0,944
2,34,102,16
2,34,0,104
2,32,102,16
2,32,0,828
2,35,95,12
2,35,0,116
2,37,105,4
2,37,0,952
2,39,108,8
2,39,0,1384
2,41,107,56
2,41,0,116
2,43,95,4
2,43,0,116
2,41,91,4
2,41,0,112
2,39,95,8
2,39,0,104
2,37,102,16
2,37,0,88
2,39,100,32
2,39,0,80
2,39,105,40
2,39,0,72
2,39,108,48
2,39,0,88
2,39,102,152
2,39,0,60
2,39,108,60
2,39,0,72
2,39,105,48
2,39,0,80
2,39,113,160
2,39,0,64
2,39,108,56
2,39,0,68
2,39,108,52
2,39,0,92
2,39,113,148
2,39,0,60
2,32,102,60
2,32,0,116
2,34,95,4
2,34,0,84
2,37,108,36
2,37,0,72
2,39,108,48
2,39,0,72
2,39,102,48
2,39,0,80
2,39,108,40
2,39,0,92
2,39,108,148
2,39,0,64
2,39,105,56
2,39,0,80
2,39,108,40
2,39,0,80
2,39,108,160
2,39,0,60
2,39,105,60
2,39,0,68
2,39,113,52
2,39,0,88
2,39,113,152
2,39,0,60
2,32,93,60
2,32,0,108
2,34,95,12
2,34,0,88
2,37,108,32
2,37,0,88
2,39,100,32
2,39,0,80
2,39,105,40
2,39,0,72
2,39,108,48
2,39,0,88
2,39,102,152
2,39,0,60
2,39,108,60
2,39,0,72
2,39,105,48
2,39,0,80
2,39,113,160
2,39,0,64
2,39,108,56
2,39,0,68
2,39,108,52
2,39,0,92
2,39,113,148
2,39,0,60
2,32,102,60
2,32,0,116
2,34,95,4
2,34,0,84
2,37,108,36
2,37,0,72
2,39,108,48
2,39,0,72
2,39,102,48
2,39,0,80
2,39,108,40
2,39,0,92
2,39,108,148
2,39,0,64
2,39,105,56
2,39,0,80
2,39,108,40
2,39,0,80
2,39,108,160
2,39,0,112
2,32,110,8
2,32,0,112
2,34,104,8
2,34,0,104
2,37,111,16
2,37,0,96
2,39,107,24
2,39,0,112
2,32,103,8
2,32,0,108
2,34,98,12
2,34,0,112
2,37,108,8
2,37,0,88
2,39,100,32
2,39,0,80
2,39,105,40
2,39,0,72
2,39,108,48
2,39,0,88
2,39,102,152
2,39,0,60
2,39,108,60
2,39,0,72
2,39,105,48
2,39,0,80
2,39,113,160
2,39,0,64
2,39,108,56
2,39,0,68
2,39,108,52
2,39,0,92
2,39,113,148
2,39,0,60
2,32,102,60
2,32,0,116
2,34,95,4
2,34,0,84
2,37,108,36
2,37,0,72
2,39,108,48
2,39,0,72
2,39,102,48
2,39,0,80
2,39,108,40
2,39,0,92
2,39,108,148
2,39,0,64
2,39,105,56
2,39,0,80
2,39,108,40
2,39,0,80
2,39,108,160
2,39,0,60
2,39,105,60
2,39,0,68
2,39,113,52
2,39,0,88
2,39,113,152
2,39,0,60
2,32,93,60
2,32,0,108
2,34,95,12
2,34,0,88
2,37,108,32
2,37,0,72
2,39,108,48
2,39,0,72
2,39,102,48
2,39,0,80
2,39,108,40
2,39,0,92
2,39,108,148
2,39,0,64
2,39,105,56
2,39,0,80
2,39,108,40
2,39,0,80
2,39,108,160
2,39,0,60
2,39,105,60
2,39,0,68
2,39,113,52
2,39,0,88
2,39,113,152
2,39,0,60
2,32,93,60
2,32,0,108
2,34,95,12
2,34,0,88
2,37,108,32
2,37,0,88
2,39,100,32
2,39,0,80
2,39,105,40
2,39,0,72
2,39,108,48
2,39,0,88
2,39,102,152
2,39,0,60
2,39,108,60
2,39,0,72
2,39,105,48
2,39,0,80
2,39,113,160
2,39,0,64
2,32,93,56
2,32,0,108
2,34,95,12
2,34,0,88
2,37,108,32
2,37,0,88
2,39,100,32
2,39,0,80
2,32,102,40
2,32,0,112
2,34,95,8
2,34,0,84
2,37,107,36
2,37,0,88
2,39,100,32
2,39,0,80
2,39,105,40
2,39,0,72
2,39,108,48
2,39,0,88
2,39,102,152
2,39,0,60
2,39,108,60
2,39,0,72
2,39,105,48
2,39,0,80
2,39,113,160
2,39,0,64
2,39,108,56
2,39,0,68
2,39,108,52
2,39,0,92
2,39,113,148
2,39,0,60
2,32,102,60
2,32,0,116
2,34,95,4
2,34,0,84
2,39,108,36
2,39,0,72
2,41,108,48
2,41,0,72
2,39,102,48
2,39,0,80
2,39,108,40
2,39,0,92
2,39,108,148
2,39,0,64
2,39,105,56
2,39,0,80
2,39,108,40
2,39,0,80
2,39,108,160
2,39,0,60
2,39,105,60
2,39,0,68
2,39,113,52
2,39,0,88
2,39,113,152
2,39,0,60
2,32,93,60
2,32,0,108
2,34,95,12
2,34,0,88
2,39,108,32
2,39,0,88
2,41,100,32
2,41,0,80
2,39,105,40
2,39,0,72
2,39,108,48
2,39,0,88
2,39,102,152
2,39,0,60
2,39,108,60
2,39,0,72
2,39,105,48
2,39,0,80
2,39,113,160
2,39,0,64
2,39,108,56
2,39,0,68
2,39,108,52
2,39,0,92
2,39,113,148
2,39,0,60
2,32,102,60
2,32,0,116
2,34,95,4
2,34,0,84
2,39,108,36
2,39,0,72
2,41,108,48
2,41,0,72
2,39,102,48
2,39,0,80
2,39,108,40
2,39,0,92
2,39,108,148
2,39,0,64
2,39,105,56
2,39,0,80
2,39,108,40
2,39,0,80
2,41,107,40
2,41,0,232
2,39,108,8
2,39,0,220
2,37,108,20
2,37,0,232
2,34,95,8
2,34,0,224
2,32,102,16
2,32,0,828
2,35,95,12
2,35,0,116
2,37,105,4
2,37,0,952
2,42,102,8
2,42,0,836
2,35,95,4
2,35,0,944
2,34,102,16
2,34,0,104
2,32,102,16
2,32,0,828
2,35,95,12
2,35,0,116
2,37,105,4
2,37,0,952
2,42,102,8
2,42,0,836
2,35,95,4
2,35,0,944
2,34,102,16
2,34,0,104
2,32,102,16
2,32,0,828
2,35,95,12
2,35,0,116
2,37,105,4
2,37,0,952
2,42,102,8
2,42,0,836
2,35,95,4
2,35,0,944
2,34,102,16
2,34,0,104
2,32,102,16
2,32,0,828
2,35,95,12
2,35,0,116
2,37,105,4
2,37,0,952
2,39,108,8
2,39,0,1656
2,32,91,24
2,32,0,112
2,34,95,8
2,34,0,104
2,27,108,16
2,27,0,1304
2,39,108,16
2,39,0,92
2,37,113,148
2,37,0,80
2,34,108,160
2,34,0,64
2,27,108,56
2,27,0,344
2,39,105,16
2,39,0,824
2,32,113,136
2,32,0,12
2,27,105,116
2,27,0,16
2,39,108,4
2,39,0,72
2,37,98,128
2,37,0,84
2,34,89,156
2,34,0,64
2,27,107,56
2,27,0,352
2,39,104,8
2,39,0,1424
2,34,113,136
2,34,0,440
2,34,113,520
2,34,0,440
2,38,107,520
2,38,0,484
2,43,105,476
2,43,0,480
2,43,110,480
2,43,0,500
2,34,113,460
2,34,0,500
2,38,111,460
2,38,0,496
2,31,113,464
2,31,0,420
2,31,108,60
2,31,0,412
2,31,113,68
2,31,0,440
2,34,113,520
2,34,0,440
2,38,107,520
2,38,0,484
2,43,105,476
2,43,0,480
2,43,110,480
2,43,0,500
2,34,113,460
2,34,0,500
2,38,111,460
2,38,0,496
2,31,113,464
2,31,0,900
2,32,105,60
2,32,0,452
2,32,102,508
2,32,0,460
2,31,105,500
2,31,0,472
2,31,107,488
2,31,0,476
2,29,107,484
2,29,0,492
2,29,107,468
2,29,0,460
2,39,119,380
2,39,0,2016
2,34,105,24
2,34,0,1900
2,37,113,20
2,37,0,104
2,39,97,16
2,39,0,104
2,39,102,16
2,39,0,100
2,39,97,20
2,39,0,100
2,39,105,20
2,39,0,104
2,39,93,16
2,39,0,100
2,39,105,20
2,39,0,100
2,39,100,20
2,39,0,104
2,39,105,16
2,39,0,104
2,39,99,16
2,39,0,104
2,39,102,16
2,39,0,100
2,39,100,20
2,39,0,96
2,39,102,24
2,39,0,92
2,39,102,28
2,39,0,104
2,32,95,16
2,32,0,112
2,34,102,8
2,34,0,104
2,37,113,16
2,37,0,104
2,39,97,16
2,39,0,104
2,39,102,16
2,39,0,100
2,39,97,20
2,39,0,100
2,39,105,20
2,39,0,104
2,39,93,16
2,39,0,100
2,39,105,20
2,39,0,100
2,39,100,20
2,39,0,104
2,39,105,16
2,39,0,104
2,39,99,16
2,39,0,104
2,39,102,16
2,39,0,100
2,39,100,20
2,39,0,96
2,39,102,24
2,39,0,0
2,39,102,120
2,39,0,104
2,32,95,16
2,32,0,112
2,34,102,8
2,34,0,104
2,37,113,16
2,37,0,104
2,39,97,16
2,39,0,104
2,39,102,16
2,39,0,100
2,39,97,20
2,39,0,100
2,39,105,20
2,39,0,104
2,39,93,16
2,39,0,100
2,39,105,20
2,39,0,100
2,39,100,20
2,39,0,104
2,39,105,16
2,39,0,104
2,39,99,16
2,39,0,104
2,39,102,16
2,39,0,100
2,39,100,20
2,39,0,96
2,39,102,24
2,39,0,92
2,39,102,28
2,39,0,104
2,32,95,16
2,32,0,112
2,34,102,8
2,34,0,104
2,37,113,16
2,37,0,104
2,39,97,16
2,39,0,104
2,39,102,16
2,39,0,100
2,39,97,20
2,39,0,100
2,39,105,20
2,39,0,104
2,39,93,16
2,39,0,100
