track,note,velocity,time
1,66,64,192
1,66,0,10
1,67,64,2
1,67,0,10
1,69,64,2
1,69,0,10
1,71,64,2
1,71,0,10
1,64,64,2
1,64,0,92
1,72,64,4
1,72,0,45
1,71,64,3
1,71,0,45
1,69,64,3
1,69,0,92
1,66,64,4
1,66,0,10
1,67,64,2
1,67,0,10
1,69,64,2
1,69,0,10
1,71,64,2
1,71,0,10
1,62,64,2
1,62,0,92
1,71,64,4
1,71,0,45
1,69,64,3
1,69,0,45
1,67,64,3
1,67,0,92
1,66,64,4
1,66,0,10
1,67,64,2
1,67,0,10
1,69,64,2
1,69,0,10
1,71,64,2
1,71,0,10
1,64,64,2
1,64,0,382
1,66,64,1
1,67,64,0
1,71,64,0
1,74,64,0
1,66,0,92
1,64,64,4
1,64,0,92
1,74,0,2
1,71,0,0
1,67,0,0
1,64,64,2
1,66,64,0
1,69,64,0
1,64,0,92
1,62,64,4
1,62,0,92
1,69,0,2
1,66,0,0
1,61,64,2
1,64,64,0
1,69,64,0
1,69,0,142
1,64,0,0
1,61,0,0
1,63,64,2
1,66,64,0
1,69,64,0
1,69,0,45
1,66,0,0
1,63,0,0
1,66,64,3
1,68,64,0
1,71,64,0
1,66,0,92
1,64,64,4
1,64,0,92
1,71,0,2
1,68,0,0
1,66,64,2
1,67,64,0
1,71,64,0
1,66,0,92
1,64,64,4
1,64,0,92
1,71,0,2
1,67,0,0
1,64,64,2
1,66,64,0
1,69,64,0
1,64,0,92
1,62,64,4
1,62,0,92
1,69,0,2
1,66,0,0
1,55,64,2
1,62,64,0
1,62,0,382
1,55,0,0
1,69,64,2
1,78,64,0
1,78,0,92
1,69,0,0
1,67,64,4
1,76,64,0
1,76,0,92
1,67,0,0
1,67,64,4
1,74,64,0
1,74,0,92
1,67,0,0
1,69,64,4
1,73,64,0
1,73,0,92
1,69,0,0
1,69,64,4
1,78,64,0
1,78,0,92
1,69,0,0
1,67,64,4
1,76,64,0
1,76,0,92
1,67,0,0
1,67,64,4
1,74,64,0
1,74,0,92
1,67,0,0
1,69,64,4
1,73,64,0
1,73,0,92
1,69,0,0
1,64,64,4
1,72,64,0
1,72,0,92
1,64,0,0
1,65,64,4
1,74,64,0
1,68,64,96
1,74,0,190
1,68,0,0
1,65,0,0
1,59,64,2
1,64,64,0
1,67,64,0
1,67,0,190
1,64,0,0
1,59,0,0
1,59,64,2
1,62,64,0
1,66,64,0
1,66,0,190
1,62,0,0
1,59,0,0
1,60,64,2
1,64,64,0
1,67,64,0
1,67,0,284
1,64,0,0
1,60,0,0
1,62,64,4
1,66,64,0
1,66,0,92
1,62,0,0
1,66,64,1
1,67,64,0
1,71,64,0
1,74,64,0
1,66,0,92
1,64,64,4
1,64,0,92
1,74,0,2
1,71,0,0
1,67,0,0
1,64,64,2
1,66,64,0
1,69,64,0
1,64,0,92
1,62,64,4
1,62,0,92
1,69,0,2
1,66,0,0
1,61,64,2
1,64,64,0
1,69,64,0
1,69,0,142
1,64,0,0
1,61,0,0
1,63,64,2
1,66,64,0
1,69,64,0
1,69,0,45
1,66,0,0
1,63,0,0
1,66,64,3
1,68,64,0
1,71,64,0
1,66,0,92
1,64,64,4
1,64,0,92
1,71,0,2
1,68,0,0
1,66,64,2
1,67,64,0
1,71,64,0
1,66,0,92
1,64,64,4
1,64,0,92
1,71,0,2
1,67,0,0
1,64,64,2
1,66,64,0
1,69,64,0
1,64,0,92
1,62,64,4
1,62,0,92
1,69,0,2
1,66,0,0
1,55,64,2
1,62,64,0
1,62,0,382
1,55,0,0
1,69,64,2
1,78,64,0
1,78,0,92
1,69,0,0
1,67,64,4
1,76,64,0
1,76,0,92
1,67,0,0
1,67,64,4
1,74,64,0
1,74,0,92
1,67,0,0
1,69,64,4
1,73,64,0
1,73,0,92
1,69,0,0
1,69,64,4
1,78,64,0
1,78,0,92
1,69,0,0
1,67,64,4
1,76,64,0
1,76,0,92
1,67,0,0
1,67,64,4
1,74,64,0
1,74,0,92
1,67,0,0
1,69,64,4
1,73,64,0
1,73,0,92
1,69,0,0
1,64,64,4
1,72,64,0
1,72,0,92
1,64,0,0
1,65,64,4
1,74,64,0
1,68,64,96
1,74,0,190
1,68,0,0
1,65,0,0
1,59,64,2
1,64,64,0
1,67,64,0
1,67,0,190
1,64,0,0
1,59,0,0
1,59,64,2
1,62,64,0
1,66,64,0
1,66,0,190
1,62,0,0
1,59,0,0
1,60,64,2
1,64,64,0
1,67,64,0
1,67,0,284
1,64,0,0
1,60,0,0
1,62,86,0
1,62,0,34
1,64,86,2
1,64,0,34
1,66,86,2
1,66,0,22
1,68,86,2
1,68,0,190
1,69,86,2
1,73,86,0
1,73,0,190
1,72,86,2
1,69,0,190
1,65,86,2
1,69,86,0
1,69,0,92
1,65,0,0
1,64,86,4
1,67,86,0
1,67,0,92
1,64,0,0
1,72,0,2
1,62,86,2
1,66,86,0
1,69,86,0
1,69,0,92
1,66,0,0
1,62,0,0
1,65,86,4
1,70,86,0
1,74,86,0
1,74,0,92
1,70,0,0
1,65,0,0
1,65,86,4
1,69,86,0
1,72,86,0
1,72,0,92
1,69,0,0
1,65,0,0
1,65,86,4
1,68,86,0
1,71,86,0
1,74,86,0
1,71,0,92
1,68,0,0
1,70,86,4
1,74,0,190
1,70,0,0
1,65,0,0
1,65,86,1
1,69,86,0
1,72,86,0
1,77,86,0
1,77,0,190
1,72,0,0
1,69,0,0
1,65,0,0
1,67,86,2
1,71,86,0
1,74,86,0
1,71,0,92
1,67,0,0
1,66,86,4
1,69,86,0
1,69,0,92
1,66,0,0
1,74,0,2
1,61,86,1
1,64,86,0
1,68,86,0
1,71,86,0
1,76,86,0
1,76,0,92
1,71,0,0
1,68,0,0
1,64,0,0
1,61,0,0
1,62,86,4
1,66,86,0
1,66,0,92
1,62,0,0
1,64,86,4
1,68,86,0
1,68,0,190
1,64,0,0
1,61,86,2
1,64,86,0
1,64,0,92
1,61,0,0
1,62,86,4
1,66,86,0
1,66,0,92
1,62,0,0
1,64,86,4
1,68,86,0
1,68,0,190
1,64,0,0
1,73,86,8
1,73,0,2
1,73,86,6
1,73,0,2
1,73,86,6
1,73,0,2
1,73,86,6
1,73,0,12
1,75,86,36
1,75,0,12
1,78,86,36
1,78,0,12
1,73,86,36
1,73,0,2
1,73,86,6
1,73,0,2
1,73,86,6
1,73,0,2
1,73,86,6
1,73,0,12
1,75,86,36
1,75,0,12
1,78,86,36
1,78,0,12
1,73,86,36
1,73,0,2
1,73,86,6
1,73,0,2
1,73,86,6
1,73,0,2
1,73,86,6
1,73,0,12
1,75,86,36
1,75,0,12
1,78,86,36
1,78,0,12
1,73,86,36
1,73,0,2
1,73,86,6
1,73,0,2
1,73,86,6
1,73,0,2
1,73,86,6
1,73,0,12
1,75,86,36
1,75,0,12
1,78,86,36
1,78,0,12
1,73,86,36
1,73,0,2
1,73,86,6
1,73,0,2
1,73,86,6
1,73,0,2
1,73,86,6
1,73,0,12
1,75,86,36
1,75,0,12
1,78,86,36
1,78,0,12
1,73,86,36
1,73,0,2
1,73,86,6
1,73,0,2
1,73,86,6
1,73,0,2
1,73,86,6
1,73,0,12
1,75,86,36
1,75,0,12
1,78,86,36
1,78,0,12
1,73,86,36
1,73,0,2
1,73,86,6
1,73,0,2
1,73,86,6
1,73,0,2
1,73,86,6
1,73,0,12
1,75,86,36
1,75,0,12
1,78,86,36
1,78,0,12
1,73,86,36
1,73,0,2
1,73,86,6
1,73,0,2
1,73,86,6
1,73,0,2
1,73,86,6
1,73,0,12
1,75,86,36
1,75,0,12
1,78,86,36
1,78,0,12
1,76,86,36
1,76,0,2
1,76,86,6
1,76,0,2
1,76,86,6
1,76,0,2
1,76,86,6
1,76,0,12
1,78,86,36
1,78,0,12
1,80,86,36
1,80,0,12
1,76,86,36
1,76,0,2
1,76,86,6
1,76,0,2
1,76,86,6
1,76,0,2
1,76,86,6
1,76,0,12
1,78,86,36
1,78,0,12
1,80,86,36
1,80,0,12
1,76,86,36
1,76,0,2
1,76,86,6
1,76,0,2
1,76,86,6
1,76,0,2
1,76,86,6
1,76,0,12
1,78,86,36
1,78,0,12
1,80,86,36
1,80,0,12
1,76,86,36
1,76,0,2
1,76,86,6
1,76,0,2
1,76,86,6
1,76,0,2
1,76,86,6
1,76,0,12
1,78,86,36
1,78,0,12
1,80,86,36
1,80,0,12
1,81,86,132
1,81,0,2
1,81,86,6
1,81,0,2
1,81,86,6
1,81,0,2
1,81,86,6
1,81,0,12
1,84,86,36
1,84,0,12
1,84,86,36
1,84,0,12
1,81,86,36
1,81,0,2
1,81,86,6
1,81,0,2
1,81,86,6
1,81,0,2
1,81,86,6
1,81,0,12
1,84,86,36
1,84,0,12
1,84,86,36
1,84,0,12
1,81,86,36
1,81,0,2
1,81,86,6
1,81,0,2
1,81,86,6
1,81,0,2
1,81,86,6
1,81,0,12
1,84,86,36
1,84,0,12
1,84,86,36
1,84,0,12
1,81,86,36
1,81,0,2
1,81,86,6
1,81,0,2
1,81,86,6
1,81,0,2
1,81,86,6
1,81,0,12
1,84,86,36
1,84,0,12
1,84,86,36
1,84,0,12
1,71,86,60
1,71,0,2
1,80,86,2
1,80,0,6
1,77,64,2
1,77,0,6
1,73,64,2
1,73,0,6
1,68,64,2
1,68,0,6
1,73,64,2
1,73,0,6
1,77,64,2
1,77,0,6
1,80,86,2
1,80,0,6
1,77,64,2
1,77,0,6
1,73,64,2
1,73,0,6
1,82,86,2
1,82,0,6
1,78,64,2
1,78,0,6
1,73,64,2
1,73,0,6
1,70,64,2
1,70,0,6
1,73,64,2
1,73,0,6
1,78,64,2
1,78,0,6
1,82,86,2
1,82,0,6
1,78,64,2
1,78,0,6
1,73,64,2
1,73,0,6
1,80,86,2
1,80,0,6
1,77,64,2
1,77,0,6
1,73,64,2
1,73,0,6
1,68,64,2
1,68,0,6
1,73,64,2
1,73,0,6
1,77,64,2
1,77,0,6
1,80,86,2
1,80,0,6
1,77,64,2
1,77,0,6
1,73,64,2
1,73,0,6
1,83,86,2
1,83,0,6
1,78,64,2
1,78,0,6
1,75,64,2
1,75,0,6
1,71,64,2
1,71,0,6
1,75,64,2
1,75,0,6
1,78,64,2
1,78,0,6
1,82,86,2
1,82,0,6
1,78,64,2
1,78,0,6
1,75,64,2
1,75,0,6
1,80,86,2
1,80,0,6
1,77,64,2
1,77,0,6
1,73,64,2
1,73,0,6
1,68,64,2
1,68,0,6
1,73,64,2
1,73,0,6
1,77,64,2
1,77,0,6
1,80,86,2
1,80,0,6
1,77,64,2
1,77,0,6
1,73,64,2
1,73,0,6
1,82,86,2
1,82,0,6
1,78,64,2
1,78,0,6
1,73,64,2
1,73,0,6
1,70,64,2
1,70,0,6
1,73,64,2
1,73,0,6
1,78,64,2
1,78,0,6
1,82,86,2
1,82,0,6
1,78,64,2
1,78,0,6
1,73,64,2
1,73,0,6
1,80,86,2
1,80,0,6
1,77,64,2
1,77,0,6
1,73,64,2
1,73,0,6
1,68,64,2
1,68,0,6
1,73,64,2
1,73,0,6
1,77,64,2
1,77,0,6
1,80,86,2
1,80,0,6
1,77,64,2
1,77,0,6
1,73,64,2
1,73,0,6
1,83,86,2
1,83,0,6
1,78,64,2
1,78,0,6
1,75,64,2
1,75,0,6
1,71,64,2
1,71,0,6
1,75,64,2
1,75,0,6
1,78,64,2
1,78,0,6
1,82,86,2
1,82,0,6
1,78,64,2
1,78,0,6
1,75,64,2
1,75,0,6
1,80,86,2
1,80,0,6
1,77,64,2
1,77,0,6
1,73,64,2
1,73,0,6
1,68,64,2
1,68,0,6
1,73,64,2
1,73,0,6
1,77,64,2
1,77,0,6
1,80,86,2
1,80,0,6
1,77,64,2
1,77,0,6
1,73,64,2
1,73,0,6
1,81,86,2
1,81,0,6
1,78,64,2
1,78,0,6
1,73,64,2
1,73,0,6
1,69,64,2
1,69,0,6
1,73,64,2
1,73,0,6
1,78,64,2
1,78,0,6
1,71,86,2
1,71,0,6
1,75,64,2
1,75,0,6
1,78,64,2
1,78,0,6
1,80,86,2
1,80,0,6
1,77,64,2
1,77,0,6
1,73,64,2
1,73,0,6
1,68,64,2
1,68,0,6
1,73,64,2
1,73,0,6
1,77,64,2
1,77,0,6
1,80,86,2
1,80,0,6
1,77,64,2
1,77,0,6
1,73,64,2
1,73,0,6
1,81,86,2
1,81,0,6
1,78,64,2
1,78,0,6
1,73,64,2
1,73,0,6
1,69,64,2
1,69,0,6
1,73,64,2
1,73,0,6
1,78,64,2
1,78,0,6
1,71,86,2
1,71,0,6
1,75,64,2
1,75,0,6
1,78,64,2
1,78,0,6
1,76,86,2
1,76,0,6
1,73,64,2
1,73,0,6
1,69,64,2
1,69,0,6
1,64,86,2
1,64,0,6
1,69,64,2
1,69,0,6
1,73,64,2
1,73,0,6
1,63,86,2
1,63,0,6
1,66,64,2
1,66,0,6
1,71,64,2
1,71,0,6
1,76,86,2
1,76,0,6
1,73,64,2
1,73,0,6
1,69,64,2
1,69,0,6
1,64,86,2
1,64,0,6
1,69,64,2
1,69,0,6
1,73,64,2
1,73,0,6
1,63,86,2
1,63,0,6
1,66,64,2
1,66,0,6
1,71,64,2
1,71,0,6
1,75,64,2
1,75,0,6
1,71,64,2
1,71,0,6
1,75,64,2
1,75,0,6
1,71,64,2
1,71,0,6
1,66,64,2
1,66,0,6
1,63,64,2
1,63,0,6
1,66,64,2
1,66,0,5
1,71,64,1
1,71,0,5
1,75,64,1
1,75,0,5
1,71,64,1
1,71,0,5
1,75,64,1
1,75,0,6
1,71,64,2
1,71,0,6
1,66,64,2
1,66,0,6
1,63,46,2
1,63,0,6
1,66,64,2
1,66,0,6
1,71,64,2
1,71,0,6
1,75,64,2
1,75,0,6
1,71,64,2
1,71,0,6
1,66,64,2
1,66,0,6
1,75,64,2
1,75,0,6
1,71,64,2
1,71,0,6
1,66,64,2
1,66,0,6
1,63,64,2
1,63,0,6
1,66,64,2
1,66,0,6
1,71,64,2
1,71,0,6
1,75,64,2
1,75,0,6
1,71,64,2
1,71,0,6
1,66,64,2
1,66,0,6
1,75,64,2
1,75,0,6
1,71,64,2
1,71,0,6
1,66,64,2
1,66,0,6
1,63,64,2
1,63,0,6
1,66,64,2
1,66,0,6
1,71,64,2
1,71,0,6
1,75,64,2
1,75,0,6
1,71,64,2
1,71,0,6
1,66,64,2
1,66,0,6
1,75,64,2
1,75,0,6
1,73,64,2
1,73,0,6
1,69,64,2
1,69,0,6
1,66,64,2
1,66,0,6
1,69,64,2
1,69,0,6
1,73,64,2
1,73,0,6
1,75,64,2
1,75,0,6
1,73,64,2
1,73,0,6
1,69,64,2
1,69,0,6
1,75,64,2
1,75,0,6
1,73,64,2
1,73,0,6
1,69,64,2
1,69,0,6
1,66,64,2
1,66,0,6
1,69,64,2
1,69,0,6
1,73,64,2
1,73,0,6
1,75,64,2
1,75,0,6
1,73,64,2
1,73,0,6
1,69,64,2
1,69,0,6
1,75,64,2
1,75,0,6
1,73,64,2
1,73,0,6
1,69,64,2
1,69,0,6
1,66,64,2
1,66,0,6
1,69,64,2
1,69,0,6
1,73,64,2
1,73,0,6
1,75,64,2
1,75,0,6
1,73,64,2
1,73,0,6
1,69,64,2
1,69,0,6
1,75,64,2
1,75,0,6
1,73,64,2
1,73,0,6
1,69,64,2
1,69,0,6
1,66,64,2
1,66,0,6
1,69,64,2
1,69,0,6
1,73,64,2
1,73,0,6
1,75,64,2
1,75,0,6
1,73,64,2
1,73,0,6
1,69,64,2
1,69,0,6
1,75,64,2
1,75,0,6
1,73,64,2
1,73,0,6
1,69,64,2
1,69,0,6
1,66,64,2
1,66,0,6
1,69,64,2
1,69,0,6
1,73,64,2
1,73,0,6
1,75,64,2
1,75,0,6
1,73,64,2
1,73,0,6
1,69,64,2
1,69,0,6
1,75,64,2
1,75,0,6
1,73,64,2
1,73,0,6
1,69,64,2
1,69,0,6
1,66,64,2
1,66,0,6
1,69,64,2
1,69,0,6
