track,note,velocity,time
2,51,106,16920
2,36,120,0
2,51,78,180
2,51,78,180
2,38,92,0
2,51,78,180
2,51,92,180
2,36,106,0
2,51,78,180
2,51,78,180
2,38,92,0
2,51,78,180
2,51,106,180
2,36,120,0
2,51,78,180
2,51,78,180
2,38,92,0
2,51,78,180
2,51,92,180
2,36,106,0
2,51,78,180
2,51,78,180
2,38,92,0
2,51,78,180
2,51,106,180
2,36,120,0
2,51,78,180
2,51,78,180
2,38,92,0
2,51,78,180
2,51,92,180
2,36,106,0
2,51,78,180
2,51,78,180
2,38,92,0
2,51,78,180
2,51,106,180
2,36,120,0
2,51,78,180
2,51,78,180
2,38,92,0
2,51,78,180
2,51,92,180
2,36,106,0
2,51,78,180
2,51,92,180
2,38,92,0
2,51,78,180
2,51,78,60
2,36,120,60
2,51,106,0
2,48,106,180
2,36,120,60
2,51,106,0
2,45,106,180
2,36,120,60
2,51,106,0
2,41,106,180
2,36,106,60
2,51,78,0
2,36,106,180
2,51,78,0
2,51,106,180
2,36,120,0
2,51,78,180
2,51,78,180
2,38,92,0
2,51,78,180
2,51,92,180
2,36,106,0
2,51,78,180
2,51,78,180
2,38,92,0
2,51,78,180
2,51,106,180
2,36,120,0
2,51,64,180
2,51,64,60
2,38,106,60
2,51,78,0
2,51,78,180
2,51,92,180
2,36,106,0
2,51,78,180
2,38,92,180
2,51,78,0
2,51,78,180
2,51,106,180
2,36,120,0
2,51,78,180
2,51,78,180
2,38,92,0
2,51,78,180
2,51,92,180
2,36,106,0
2,51,78,180
2,51,78,180
2,38,92,0
2,51,78,180
2,51,106,180
2,36,120,0
2,51,78,180
2,51,78,180
2,38,92,0
2,51,78,180
2,51,92,180
2,36,106,0
2,51,78,180
2,51,78,180
2,38,92,0
2,51,78,180
2,51,106,180
2,36,120,0
2,51,78,180
2,51,78,180
2,38,106,0
2,51,78,180
2,51,120,180
2,36,120,0
2,38,106,180
2,51,120,60
2,36,106,60
2,38,106,60
2,51,78,60
2,36,120,0
2,51,106,180
2,36,120,0
2,51,78,180
2,51,78,180
2,38,92,0
2,51,78,180
2,51,92,180
2,36,106,0
2,51,78,180
2,51,78,180
2,38,92,0
2,51,78,180
2,51,92,180
2,36,120,0
2,51,78,180
2,36,106,60
2,51,92,60
2,38,106,0
2,51,78,180
2,36,106,60
2,51,120,60
2,36,120,0
2,38,106,180
2,51,120,60
2,36,106,0
2,38,106,180
2,51,120,60
2,36,106,0
2,36,120,180
2,51,120,0
2,45,106,60
2,41,106,60
2,36,120,60
2,51,120,0
2,41,106,180
2,45,106,60
2,49,106,180
2,36,120,0
2,46,22,900
2,46,22,0
2,46,36,0
2,46,36,0
2,46,50,0
2,46,50,0
2,46,64,0
2,46,64,0
2,46,78,0
2,46,78,0
2,46,92,0
2,46,92,0
2,46,106,0
2,46,106,0
2,46,120,0
2,46,120,0
2,51,106,0
2,36,120,0
2,51,78,180
2,51,78,180
2,38,92,0
2,51,78,180
2,51,92,180
2,36,106,0
2,51,78,180
2,51,78,180
2,38,92,0
2,51,78,180
2,51,106,180
2,36,120,0
2,51,78,180
2,51,78,180
2,38,92,0
2,51,78,180
2,51,92,180
2,36,106,0
2,51,78,180
2,51,78,180
2,38,92,0
2,51,78,180
2,51,106,180
2,36,120,0
2,51,78,180
2,51,78,180
2,38,92,0
2,51,78,180
2,51,92,180
2,36,106,0
2,51,78,180
2,51,78,180
2,38,92,0
2,51,78,180
2,51,106,180
2,36,120,0
2,51,78,180
2,51,78,180
2,38,92,0
2,51,78,180
2,51,92,180
2,36,106,0
2,51,78,180
2,51,92,180
2,38,92,0
2,51,78,180
2,51,78,60
2,36,120,60
2,51,106,0
2,48,106,180
2,36,120,60
2,51,106,0
2,45,106,180
2,36,120,60
2,51,106,0
2,41,106,180
2,36,106,60
2,51,78,0
2,36,106,180
2,51,78,0
2,51,106,180
2,36,120,0
2,51,78,180
2,51,78,180
2,38,92,0
2,51,78,180
2,51,92,180
2,36,106,0
2,51,78,180
2,51,78,180
2,38,92,0
2,51,78,180
2,51,106,180
2,36,120,0
2,51,64,180
2,51,64,60
2,38,106,60
2,51,78,0
2,51,78,180
2,51,92,180
2,36,106,0
2,51,78,180
2,38,92,180
2,51,78,0
2,51,78,180
2,51,106,180
2,36,120,0
2,51,78,180
2,51,78,180
2,38,92,0
2,51,78,180
2,51,92,180
2,36,106,0
2,51,78,180
2,51,78,180
2,38,92,0
2,51,78,180
2,51,106,180
2,36,120,0
2,51,78,180
2,51,78,180
2,38,92,0
2,51,78,180
2,51,92,180
2,36,106,0
2,51,78,180
2,51,78,180
2,38,92,0
2,51,78,180
2,51,106,180
2,36,120,0
2,51,78,180
2,51,78,180
2,38,106,0
2,51,78,180
2,51,120,180
2,36,120,0
2,38,106,180
2,51,120,60
2,36,106,60
2,38,106,60
2,51,78,60
2,36,120,0
2,51,106,180
2,36,120,0
2,51,78,180
2,51,78,180
2,38,92,0
2,51,78,180
2,51,92,180
2,36,106,0
2,51,78,180
2,51,78,180
2,38,92,0
2,51,78,180
2,51,92,180
2,36,120,0
2,51,78,180
2,36,106,60
2,51,92,60
2,38,106,0
2,51,78,180
2,36,106,60
2,51,120,60
2,36,120,0
2,38,106,180
2,51,120,60
2,36,106,0
2,38,106,180
2,51,120,60
2,36,106,0
2,36,120,180
2,51,120,0
2,45,106,60
2,41,106,60
2,36,120,60
2,51,120,0
2,41,106,180
2,45,106,60
2,49,92,0
2,36,120,0
2,51,93,1620
2,51,106,60
2,52,120,60
2,36,120,0
2,52,106,300
2,36,106,0
2,38,120,180
2,51,106,180
2,45,106,60
2,45,106,60
2,41,106,60
2,45,106,60
2,41,106,180
2,45,106,60
2,45,106,60
2,36,120,60
2,49,106,0
2,38,120,180
2,36,106,60
2,49,106,0
2,38,106,300
2,51,78,0
2,36,120,180
2,51,92,0
2,51,78,180
2,38,120,180
2,51,78,0
2,51,78,180
2,36,120,180
2,49,106,0
2,38,120,180
2,36,106,60
2,49,106,0
2,38,120,180
2,36,120,60
2,49,106,0
2,41,106,180
2,45,106,60
2,36,120,60
2,55,120,0
2,46,120,60
2,36,106,60
2,55,120,0
2,46,120,60
2,36,120,60
2,55,120,0
2,46,120,60
2,36,120,60
2,49,106,0
2,38,120,180
2,36,106,60
2,49,106,0
2,48,120,180
2,36,120,60
2,49,106,0
2,45,120,60
2,45,92,60
2,36,120,60
2,45,120,0
2,41,92,60
2,36,120,60
2,41,120,0
2,41,92,60
2,41,120,0
2,36,120,0
2,38,120,0
2,38,106,60
2,36,120,180
2,51,106,0
2,51,78,180
2,38,106,180
2,51,78,0
2,51,78,180
2,36,120,180
2,51,106,0
2,51,78,180
2,38,106,180
2,51,78,0
2,51,78,180
2,36,120,180
2,49,106,0
2,45,106,60
2,45,106,60
2,36,120,60
2,49,106,0
2,46,120,180
2,46,120,60
2,38,120,60
2,36,120,60
2,51,106,0
2,51,78,180
2,38,120,180
2,51,106,0
2,51,78,180
2,36,120,180
2,49,106,0
2,38,120,180
2,36,106,60
2,49,106,0
2,38,120,180
2,51,78,60
2,38,120,60
2,36,120,60
2,51,106,0
2,51,78,180
2,38,120,180
2,51,106,0
2,51,78,180
2,36,120,180
2,49,106,0
2,45,106,60
2,45,106,60
2,36,120,60
2,49,106,0
2,38,120,180
2,36,106,60
2,51,106,0
2,36,120,180
2,51,106,0
2,48,120,60
2,48,120,0
2,45,120,60
2,45,120,0
2,41,120,60
2,41,120,180
2,36,120,180
2,49,106,0
2,36,120,300
2,49,106,0
2,38,120,180
2,36,120,60
2,49,106,0
2,44,120,180
2,44,120,60
2,38,120,60
2,44,120,0
2,44,120,60
2,44,120,60
2,36,120,60
2,46,120,0
2,38,120,60
2,44,120,0
2,44,120,60
2,36,120,60
2,51,106,0
2,48,120,60
2,45,120,60
2,36,120,60
2,51,106,0
2,41,120,60
2,36,120,60
2,49,120,0
2,36,120,1140
2,51,106,0
2,48,120,60
2,45,120,60
2,36,120,60
2,51,106,0
2,41,120,60
2,36,120,60
2,49,120,0
2,36,120,1140
2,51,106,0
2,48,120,60
2,45,120,60
2,36,120,60
2,51,106,0
2,41,120,60
2,36,120,60
2,49,120,0
2,51,78,3060
2,51,92,180
2,51,106,27900
2,51,106,300
2,38,106,300
2,51,66,180
2,51,106,900
2,38,106,180
2,51,106,60
2,38,106,180
2,51,70,300
2,46,22,5220
2,46,22,30
2,46,36,0
2,46,36,0
2,46,50,0
2,46,50,0
2,46,64,0
2,46,64,0
2,46,78,0
2,46,78,0
2,46,92,0
2,46,92,0
2,46,106,0
2,46,106,0
2,46,120,0
2,46,120,0
2,36,120,0
2,46,120,0
2,42,106,180
2,42,106,180
2,42,106,180
2,42,120,180
2,42,106,180
2,42,106,180
2,42,106,180
2,42,120,180
2,36,120,60
2,46,120,0
2,42,120,180
2,36,120,60
2,42,120,0
2,42,106,180
2,38,106,180
2,42,120,0
2,42,106,60
2,42,106,60
2,42,106,60
2,42,120,60
2,42,106,60
2,42,106,60
2,42,106,60
2,42,120,60
2,36,120,60
2,46,120,0
2,42,120,180
2,36,120,60
2,42,120,0
2,42,106,180
2,38,106,180
2,42,120,0
2,42,106,60
2,42,106,60
2,42,106,60
2,42,120,60
2,42,106,60
2,42,106,60
2,42,106,60
2,42,120,60
2,36,120,60
2,46,120,0
2,42,106,180
2,36,120,60
2,48,106,0
2,42,120,0
2,45,106,180
2,42,106,0
2,38,106,180
2,42,120,0
2,42,106,60
2,42,106,60
2,42,106,60
2,42,120,60
2,42,106,60
2,42,106,60
2,42,106,60
2,42,120,60
2,36,120,60
2,46,120,0
2,42,120,180
2,36,120,60
2,42,106,0
2,42,106,180
2,38,106,180
2,36,120,0
2,49,106,0
2,42,106,60
2,42,106,60
2,42,106,60
2,42,120,60
2,42,106,60
2,42,106,60
2,42,106,60
2,42,120,60
2,36,120,60
2,46,120,0
2,42,120,180
2,36,120,60
2,42,106,0
2,38,106,180
2,38,92,180
2,42,106,60
2,42,92,60
2,42,106,60
2,42,92,60
2,42,106,60
2,42,92,60
2,42,106,60
2,42,120,60
2,36,120,60
2,46,120,0
2,42,120,180
2,36,120,60
2,42,120,0
2,42,106,60
2,38,120,60
2,42,106,60
2,42,120,60
2,42,106,60
2,42,106,60
2,42,106,60
2,42,120,60
2,42,106,60
2,42,106,60
2,42,106,60
2,42,120,60
2,42,106,60
2,45,106,60
2,45,92,60
2,45,106,180
2,45,92,60
2,36,120,180
2,42,120,0
2,42,106,180
2,42,106,60
2,42,120,60
2,42,106,60
2,42,120,60
2,42,106,60
2,38,92,60
2,38,106,60
2,38,92,180
2,45,106,60
2,41,92,180
2,36,120,180
2,42,120,0
2,42,106,180
2,42,106,60
2,42,120,60
2,42,106,60
2,42,120,60
2,42,106,60
2,38,92,60
2,38,106,60
2,38,92,180
2,42,120,60
2,38,106,180
2,36,120,180
2,49,120,0
2,42,120,660
2,42,106,60
2,38,106,60
2,38,92,60
2,42,120,60
2,38,106,60
2,42,120,60
2,38,106,180
2,48,106,180
2,45,92,180
2,48,106,60
2,45,106,60
2,48,106,60
2,41,106,60
2,36,120,180
2,49,106,0
2,46,120,180
2,36,106,180
2,38,120,0
2,42,120,0
2,42,106,180
2,36,120,180
2,42,120,0
2,46,120,180
2,36,106,180
2,38,120,0
2,42,120,0
2,42,106,180
2,36,120,180
2,42,120,0
2,46,120,180
2,36,106,180
2,38,120,0
2,42,120,0
2,42,106,180
2,36,120,180
2,42,120,0
2,46,120,180
2,36,106,180
2,38,120,0
2,42,120,0
2,42,106,180
2,36,120,180
2,42,120,0
2,46,120,180
2,36,106,180
2,38,120,0
2,42,120,0
2,42,106,180
2,36,120,180
2,42,120,0
2,46,120,180
2,36,106,180
2,38,120,0
2,42,120,0
2,42,106,180
2,36,120,180
2,42,120,0
2,46,120,180
2,36,106,180
2,38,106,0
2,42,120,0
2,46,120,180
2,36,120,180
2,42,120,0
2,42,106,180
2,36,106,180
2,38,106,0
2,42,120,0
2,42,106,180
2,36,120,180
2,42,120,0
2,46,120,180
2,36,106,180
2,38,106,0
2,42,120,0
2,42,106,180
2,36,120,180
2,42,120,0
2,46,120,180
2,38,106,180
2,42,120,0
2,45,106,180
2,48,106,60
2,36,120,60
2,49,106,0
2,38,106,180
2,38,92,60
2,38,106,60
2,38,106,60
2,38,92,60
2,36,120,180
2,49,106,0
2,42,106,180
2,36,106,180
2,38,106,0
2,42,120,0
2,46,120,180
2,36,120,180
2,42,120,0
2,46,120,180
2,36,106,180
2,38,106,0
2,42,120,0
2,42,106,180
2,36,120,180
2,42,120,0
2,46,120,180
2,36,106,180
2,38,120,0
2,42,120,0
2,42,106,180
2,36,120,180
2,42,120,0
2,46,120,180
2,36,106,180
2,38,120,0
2,42,120,0
2,42,106,180
2,36,120,180
2,42,120,0
2,46,120,180
2,36,106,180
2,38,120,0
2,42,120,0
2,42,106,180
2,36,120,180
2,42,120,0
2,46,120,180
2,36,106,180
2,38,120,0
2,42,120,0
2,42,106,180
2,36,120,180
2,42,120,0
2,46,120,180
2,36,106,180
2,38,120,0
2,42,120,0
2,42,106,180
2,36,120,180
2,42,120,0
2,46,120,180
2,36,106,180
2,38,120,0
2,42,120,0
2,42,106,180
2,36,120,180
2,42,120,0
2,46,120,180
2,36,106,180
2,38,120,0
2,42,120,0
2,42,106,180
2,36,120,180
2,42,120,0
2,46,120,180
2,36,106,180
2,38,120,0
2,42,120,0
2,42,106,180
2,36,120,180
2,42,120,0
2,46,120,180
2,36,106,180
2,38,120,0
2,42,120,0
2,42,106,180
2,36,120,180
2,42,120,0
2,46,120,180
2,36,106,180
2,38,120,0
2,42,120,0
2,42,106,180
2,36,120,180
2,51,106,0
2,36,106,180
2,51,106,0
2,36,106,180
2,38,106,0
2,42,120,0
2,46,120,180
2,36,120,180
2,42,120,0
2,46,120,180
2,36,106,180
2,38,106,0
2,42,120,0
2,46,120,180
2,38,106,15
2,38,106,60
2,48,106,60
2,48,106,60
2,45,106,60
2,38,106,180
2,38,106,60
2,48,106,60
2,48,106,60
2,45,106,60
2,41,106,180
2,41,106,180
2,41,106,60
2,36,120,60
2,51,120,0
2,51,92,180
2,36,106,180
2,38,106,0
2,51,92,0
2,51,92,180
2,36,120,180
2,51,120,0
2,51,92,180
2,36,106,180
2,38,106,0
2,51,92,0
2,51,120,180
2,51,92,180
2,36,120,0
2,51,120,180
2,51,92,180
2,36,106,0
2,38,106,0
2,51,120,180
2,51,92,180
2,36,120,0
2,51,120,180
2,51,92,180
2,36,106,0
2,38,106,0
2,51,120,180
2,36,120,180
2,51,120,0
2,51,92,180
2,36,106,180
2,38,106,0
2,51,92,0
2,51,120,180
2,36,120,180
2,51,92,0
2,51,92,180
2,36,106,180
2,38,106,0
2,51,92,0
2,51,92,180
2,36,120,180
2,51,120,0
2,51,92,180
2,36,106,180
2,38,106,0
2,51,92,0
2,51,92,180
2,36,120,180
2,51,120,0
2,51,92,180
2,36,106,180
2,38,106,0
2,51,92,0
2,51,92,180
2,36,120,180
2,51,106,0
2,51,92,180
2,36,106,180
2,38,106,0
2,51,106,0
2,51,92,180
2,51,92,180
2,36,120,180
2,49,106,0
2,36,106,420
2,49,92,0
2,36,120,420
2,49,106,0
2,38,106,180
2,38,106,180
2,36,106,180
2,46,120,0
2,36,120,180
2,51,106,0
2,46,120,180
2,36,106,180
2,38,106,0
2,51,92,0
2,42,120,0
2,46,120,180
2,36,120,180
2,51,92,0
2,42,120,0
2,46,120,180
2,36,106,180
2,38,106,0
2,51,92,0
2,42,120,0
2,46,120,180
2,36,120,180
2,51,106,0
2,42,120,0
2,46,120,180
2,36,106,180
2,38,106,0
2,51,92,0
2,42,120,0
2,46,120,180
2,36,120,180
2,51,92,0
2,42,120,0
2,46,120,180
2,36,106,180
2,38,106,0
2,51,92,0
2,42,120,0
2,46,120,180
2,36,120,180
2,51,106,0
2,42,120,0
2,46,120,180
2,36,106,180
2,38,106,0
2,51,92,0
