track,note,velocity,time
0,42,85,183
0,42,0,1
0,42,85,95
0,42,0,1
0,42,85,95
0,42,0,1
0,42,85,95
0,42,0,1
0,36,74,95
0,54,64,0
0,54,0,1
0,36,0,0
0,36,19,23
0,54,30,0
0,54,0,1
0,36,0,0
0,36,74,23
0,54,40,0
0,41,44,0
0,77,64,0
0,54,0,1
0,36,0,0
0,41,0,2
0,77,0,0
0,36,19,21
0,54,50,0
0,41,17,0
0,77,34,0
0,54,0,1
0,36,0,0
0,41,0,2
0,77,0,0
0,39,64,21
0,54,64,0
0,54,0,1
0,39,0,0
0,39,25,23
0,54,30,0
0,86,64,0
0,54,0,1
0,39,0,0
0,86,0,2
0,54,60,21
0,86,34,0
0,54,0,1
0,86,0,2
0,54,55,21
0,54,0,1
0,54,64,23
0,99,64,0
0,54,0,1
0,99,0,2
0,54,30,21
0,99,34,0
0,54,0,1
0,99,0,2
0,54,50,21
0,54,0,1
0,54,30,23
0,86,64,0
0,54,0,1
0,86,0,2
0,39,64,21
0,54,30,0
0,86,34,0
0,54,0,1
0,39,0,0
0,86,0,2
0,39,25,21
0,54,30,0
0,54,0,1
0,39,0,0
0,54,50,23
0,62,74,0
0,62,0,1
0,54,0,0
0,36,50,23
0,54,30,0
0,62,74,0
0,62,0,1
0,54,0,0
0,36,0,0
0,36,74,23
0,54,64,0
0,62,74,0
0,62,0,1
0,54,0,0
0,36,0,0
0,54,30,23
0,62,19,0
0,36,19,0
0,36,0,1
0,62,0,0
0,54,0,0
0,36,74,23
0,54,40,0
0,54,0,1
0,36,0,0
0,36,19,23
0,54,50,0
0,54,0,1
0,36,0,0
0,39,64,23
0,54,64,0
0,54,0,1
0,39,0,0
0,39,25,23
0,54,30,0
0,54,0,1
0,39,0,0
0,54,60,23
0,54,0,1
0,36,50,23
0,54,55,0
0,54,0,1
0,36,0,0
0,54,64,23
0,38,116,0
0,36,74,0
0,45,64,0
0,45,0,1
0,54,0,0
0,38,0,0
0,36,0,0
0,36,19,23
0,38,45,0
0,54,30,0
0,54,0,1
0,38,0,0
0,36,0,0
0,36,74,23
0,54,50,0
0,54,0,1
0,36,0,0
0,45,64,23
0,38,116,0
0,54,30,0
0,36,19,0
0,36,0,1
0,45,0,0
0,38,0,0
0,54,0,0
0,39,64,23
0,54,30,0
0,38,35,0
0,38,0,1
0,54,0,0
0,39,0,0
0,39,25,23
0,54,30,0
0,54,0,1
0,39,0,0
0,54,50,23
0,54,0,1
0,54,30,23
0,54,0,1
0,36,74,23
0,54,64,0
0,54,0,1
0,36,0,0
0,36,19,23
0,54,30,0
0,54,0,1
0,36,0,0
0,36,74,23
0,54,40,0
0,41,44,0
0,77,64,0
0,54,0,1
0,36,0,0
0,41,0,2
0,77,0,0
0,36,19,21
0,54,50,0
0,77,34,0
0,41,17,0
0,54,0,1
0,36,0,0
0,77,0,2
0,41,0,0
0,39,64,21
0,54,64,0
0,54,0,1
0,39,0,0
0,39,25,23
0,54,30,0
0,86,64,0
0,54,0,1
0,39,0,0
0,86,0,2
0,54,60,21
0,86,34,0
0,54,0,1
0,86,0,2
0,54,55,21
0,54,0,1
0,54,64,23
0,99,64,0
0,54,0,1
0,99,0,2
0,54,30,21
0,99,34,0
0,54,0,1
0,99,0,2
0,54,50,21
0,54,0,1
0,54,30,23
0,86,64,0
0,54,0,1
0,86,0,2
0,39,64,21
0,54,30,0
0,86,34,0
0,54,0,1
0,39,0,0
0,86,0,2
0,39,25,21
0,54,30,0
0,54,0,1
0,39,0,0
0,54,50,23
0,62,74,0
0,62,0,1
0,54,0,0
0,36,50,23
0,54,30,0
0,62,74,0
0,62,0,1
0,54,0,0
0,36,0,0
0,36,74,23
0,54,64,0
0,62,74,0
0,62,0,1
0,54,0,0
0,36,0,0
0,62,19,23
0,36,19,0
0,54,30,0
0,54,0,1
0,36,0,0
0,62,0,0
0,36,74,23
0,54,40,0
0,54,0,1
0,36,0,0
0,36,19,23
0,54,50,0
0,54,0,1
0,36,0,0
0,39,64,23
0,54,64,0
0,54,0,1
0,39,0,0
0,39,25,23
0,54,30,0
0,54,0,1
0,39,0,0
0,54,60,23
0,54,0,1
0,36,50,23
0,54,55,0
0,54,0,1
0,36,0,0
0,45,64,23
0,54,64,0
0,36,74,0
0,38,116,0
0,38,0,1
0,45,0,0
0,54,0,0
0,36,0,0
0,36,19,23
0,38,45,0
0,54,30,0
0,54,0,1
0,38,0,0
0,36,0,0
0,36,74,23
0,54,50,0
0,54,0,1
0,36,0,0
0,36,19,23
0,38,116,0
0,45,64,0
0,54,30,0
0,54,0,1
0,36,0,0
0,38,0,0
0,45,0,0
0,38,35,23
0,39,64,0
0,54,30,0
0,54,0,1
0,39,0,0
0,38,0,0
0,39,25,23
0,54,30,0
0,54,0,1
0,39,0,0
0,54,50,23
0,54,0,1
0,54,30,23
0,54,0,1
0,22,74,23
0,34,74,0
0,46,49,0
0,58,64,0
0,62,64,0
0,85,54,0
0,36,74,0
0,54,64,0
0,54,0,1
0,36,0,0
0,85,0,20
0,36,19,3
0,54,30,0
0,54,0,1
0,36,0,0
0,101,34,0
0,36,74,0
0,54,40,0
0,41,44,0
0,77,64,0
0,54,0,1
0,36,0,0
0,41,0,2
0,77,0,0
0,101,0,18
0,36,19,3
0,54,50,0
0,41,17,0
0,77,34,0
0,54,0,1
0,36,0,0
0,77,0,2
0,41,0,0
0,97,34,21
0,39,64,0
0,54,64,0
0,54,0,1
0,39,0,0
0,97,0,20
0,39,25,3
0,54,30,0
0,86,64,0
0,54,0,1
0,39,0,0
0,86,0,2
0,101,34,21
0,54,60,0
0,86,34,0
0,54,0,1
0,86,0,2
0,101,0,18
0,54,55,3
0,54,0,1
0,54,64,23
0,99,64,0
0,54,0,1
0,99,0,2
0,54,30,21
0,99,34,0
0,54,0,1
0,99,0,2
0,101,34,21
0,54,50,0
0,54,0,1
0,101,0,20
0,54,30,3
0,86,64,0
0,54,0,1
0,86,0,2
0,97,34,21
0,39,64,0
0,54,30,0
0,86,34,0
0,54,0,1
0,39,0,0
0,86,0,2
0,97,0,18
0,39,25,3
0,54,30,0
0,54,0,1
0,39,0,0
0,101,34,23
0,54,50,0
0,62,74,0
0,62,0,1
0,54,0,0
0,101,0,20
0,36,50,3
0,54,30,0
0,62,74,0
0,62,0,1
0,54,0,0
0,36,0,0
0,36,74,23
0,54,64,0
0,62,74,0
0,62,0,1
0,54,0,0
0,36,0,0
0,54,30,23
0,62,19,0
0,36,19,0
0,36,0,1
0,62,0,0
0,54,0,0
0,101,34,23
0,36,74,0
0,54,40,0
0,54,0,1
0,36,0,0
0,101,0,20
0,36,19,3
0,54,50,0
0,54,0,1
0,36,0,0
0,97,34,23
0,39,64,0
0,54,64,0
0,54,0,1
0,39,0,0
0,97,0,20
0,39,25,3
0,54,30,0
0,54,0,1
0,39,0,0
0,101,34,23
0,54,60,0
0,54,0,1
0,101,0,20
0,36,50,3
0,54,55,0
0,54,0,1
0,36,0,0
0,45,64,23
0,54,64,0
0,36,74,0
0,38,116,0
0,38,0,1
0,36,0,0
0,54,0,0
0,45,0,0
0,54,30,23
0,36,19,0
0,38,45,0
0,38,0,1
0,36,0,0
0,54,0,0
0,101,34,23
0,36,74,0
0,54,50,0
0,54,0,1
0,36,0,0
0,101,0,20
0,38,116,3
0,36,19,0
0,54,30,0
0,45,64,0
0,45,0,1
0,54,0,0
0,36,0,0
0,38,0,0
0,97,34,23
0,39,64,0
0,54,30,0
0,38,35,0
0,38,0,1
0,54,0,0
0,39,0,0
0,97,0,20
0,39,25,3
0,54,30,0
0,54,0,1
0,39,0,0
0,101,34,23
0,54,50,0
0,54,0,1
0,101,0,20
0,54,30,3
0,54,0,1
0,46,0,22
0,22,0,0
0,34,0,0
0,58,0,0
0,21,74,1
0,33,74,0
0,45,49,0
0,57,64,0
0,84,54,0
0,36,74,0
0,54,64,0
0,54,0,1
0,36,0,0
0,84,0,20
0,36,19,3
0,54,30,0
0,54,0,1
0,36,0,0
0,101,34,0
0,36,74,0
0,54,40,0
0,41,44,0
0,77,64,0
0,54,0,1
0,36,0,0
0,41,0,2
0,77,0,0
0,101,0,18
0,36,19,3
0,54,50,0
0,41,17,0
0,77,34,0
0,54,0,1
0,36,0,0
0,77,0,2
0,41,0,0
0,96,34,21
0,39,64,0
0,54,64,0
0,54,0,1
0,39,0,0
0,96,0,20
0,39,25,3
0,54,30,0
0,86,64,0
0,54,0,1
0,39,0,0
0,86,0,2
0,101,34,21
0,54,60,0
0,86,34,0
0,54,0,1
0,86,0,2
0,101,0,18
0,54,55,3
0,54,0,1
0,54,64,23
0,99,64,0
0,54,0,1
0,99,0,2
0,54,30,21
0,99,34,0
0,54,0,1
0,99,0,2
0,101,34,21
0,54,50,0
0,54,0,1
0,101,0,20
0,54,30,3
0,86,64,0
0,54,0,1
0,86,0,2
0,96,34,21
0,39,64,0
0,54,30,0
0,86,34,0
0,54,0,1
0,39,0,0
0,86,0,2
0,96,0,18
0,39,25,3
0,54,30,0
0,54,0,1
0,39,0,0
0,101,34,23
0,54,50,0
0,62,74,0
0,62,0,1
0,54,0,0
0,101,0,20
0,36,50,3
0,54,30,0
0,62,74,0
0,62,0,1
0,54,0,0
0,36,0,0
0,62,74,23
0,36,74,0
0,54,64,0
0,54,0,1
0,36,0,0
0,62,0,0
0,36,19,23
0,54,30,0
0,62,19,0
0,62,0,1
0,54,0,0
0,36,0,0
0,101,34,23
0,36,74,0
0,54,40,0
0,54,0,1
0,36,0,0
0,101,0,20
0,36,19,3
0,54,50,0
0,54,0,1
0,36,0,0
0,96,34,23
0,39,64,0
0,54,64,0
0,54,0,1
0,39,0,0
0,96,0,20
0,39,25,3
0,54,30,0
0,54,0,1
0,39,0,0
0,101,34,23
0,54,60,0
0,54,0,1
0,101,0,20
0,36,50,3
0,54,55,0
0,54,0,1
0,36,0,0
0,33,0,22
0,21,0,0
0,26,74,1
0,38,74,0
0,45,64,0
0,54,64,0
0,36,74,0
0,38,116,0
0,38,0,1
0,36,0,0
0,54,0,0
0,45,0,0
0,36,19,23
0,38,45,0
0,54,30,0
0,54,0,1
0,38,0,0
0,36,0,0
0,77,69,23
0,65,66,0
0,57,66,0
0,53,20,0
0,101,34,0
0,36,74,0
0,54,50,0
0,54,0,1
0,36,0,0
0,101,0,20
0,38,116,0
0,36,19,0
0,54,30,0
0,45,64,0
0,45,0,1
0,38,0,0
0,54,0,0
0,36,0,0
0,96,34,0
0,54,30,0
0,38,35,0
0,39,64,0
0,39,0,1
0,38,0,0
0,54,0,0
0,96,0,20
0,39,25,3
0,54,30,0
0,54,0,1
0,39,0,0
0,101,34,0
0,54,50,0
0,54,0,1
0,101,0,1
0,54,30,0
0,54,0,1
0,38,0,3
0,45,0,0
0,57,0,0
0,62,0,0
0,26,0,0
0,22,74,1
0,34,74,0
0,46,49,0
0,58,64,0
0,62,64,0
0,85,54,0
0,36,74,0
0,54,64,0
0,54,0,1
0,36,0,0
0,85,0,9
0,36,19,3
0,54,30,0
0,54,0,1
0,36,0,0
0,57,0,17
0,53,0,0
0,65,0,0
0,77,0,0
0,101,34,0
0,36,74,0
0,54,40,0
0,41,44,0
0,77,64,0
0,54,0,1
0,36,0,0
0,41,0,2
0,77,0,0
0,101,0,18
0,36,19,3
0,54,50,0
0,77,34,0
0,41,17,0
0,54,0,1
0,36,0,0
0,41,0,2
0,77,0,0
0,97,34,21
0,39,64,0
0,54,64,0
0,54,0,1
0,39,0,0
0,97,0,20
0,39,25,3
0,54,30,0
0,86,64,0
0,54,0,1
0,39,0,0
0,86,0,2
0,101,34,21
0,54,60,0
0,86,34,0
0,54,0,1
0,86,0,2
0,101,0,18
0,54,55,3
0,54,0,1
0,54,64,23
0,99,64,0
0,54,0,1
0,99,0,2
0,54,30,21
0,99,34,0
0,54,0,1
0,99,0,2
0,101,34,21
0,54,50,0
0,54,0,1
0,101,0,20
0,54,30,3
0,86,64,0
0,54,0,1
0,86,0,2
0,97,34,21
0,39,64,0
0,54,30,0
0,86,34,0
0,54,0,1
0,39,0,0
0,86,0,2
0,97,0,18
0,39,25,3
0,54,30,0
0,54,0,1
0,39,0,0
0,101,34,23
0,54,50,0
0,62,74,0
0,62,0,1
0,54,0,0
0,101,0,20
0,36,50,3
0,54,30,0
0,62,74,0
0,62,0,1
0,54,0,0
0,36,0,0
0,36,74,23
0,54,64,0
0,62,74,0
0,62,0,1
0,54,0,0
0,36,0,0
0,36,19,23
0,54,30,0
0,62,19,0
0,62,0,1
0,54,0,0
0,36,0,0
0,101,34,23
0,36,74,0
0,54,40,0
0,54,0,1
0,36,0,0
0,101,0,20
0,36,19,3
0,54,50,0
0,54,0,1
0,36,0,0
0,97,34,23
0,39,64,0
0,54,64,0
0,54,0,1
0,39,0,0
0,97,0,20
0,39,25,3
0,54,30,0
0,54,0,1
0,39,0,0
0,101,34,23
0,54,60,0
0,54,0,1
0,101,0,20
0,36,50,3
0,54,55,0
0,54,0,1
0,36,0,0
0,36,74,23
0,38,116,0
0,45,64,0
0,54,64,0
0,54,0,1
0,45,0,0
0,38,0,0
0,36,0,0
0,36,19,23
0,38,45,0
0,54,30,0
0,54,0,1
0,38,0,0
0,36,0,0
0,101,34,23
0,36,74,0
0,54,50,0
0,54,0,1
0,36,0,0
0,101,0,20
0,54,30,3
0,45,64,0
0,38,116,0
0,36,19,0
0,36,0,1
0,38,0,0
0,45,0,0
0,54,0,0
0,97,34,23
0,38,35,0
0,39,64,0
0,54,30,0
0,54,0,1
0,39,0,0
0,38,0,0
0,97,0,20
0,39,25,3
0,54,30,0
0,54,0,1
0,39,0,0
0,101,34,23
0,54,50,0
0,54,0,1
0,101,0,20
0,54,30,3
0,54,0,1
0,22,0,22
0,58,0,0
0,46,0,0
0,34,0,0
0,21,74,1
0,33,74,0
0,45,49,0
0,57,64,0
0,84,54,0
0,36,74,0
0,54,64,0
0,54,0,1
0,36,0,0
0,84,0,20
0,36,19,3
0,54,30,0
0,54,0,1
0,36,0,0
0,101,34,0
0,36,74,0
0,54,40,0
0,77,64,0
0,41,44,0
0,54,0,1
0,36,0,0
0,77,0,2
0,41,0,0
0,101,0,18
0,36,19,3
0,54,50,0
0,77,34,0
0,41,17,0
0,54,0,1
0,36,0,0
0,41,0,2
0,77,0,0
0,96,34,21
0,39,64,0
0,54,64,0
0,54,0,1
0,39,0,0
0,96,0,20
0,39,25,3
0,54,30,0
0,86,64,0
0,54,0,1
0,39,0,0
0,86,0,2
0,101,34,21
0,54,60,0
0,86,34,0
0,54,0,1
0,86,0,2
0,101,0,18
0,54,55,3
0,54,0,1
0,54,64,23
0,99,64,0
0,54,0,1
0,99,0,2
0,54,30,21
0,99,34,0
0,54,0,1
0,99,0,2
0,101,34,21
0,54,50,0
0,54,0,1
0,101,0,20
0,54,30,3
0,86,64,0
0,54,0,1
0,86,0,2
0,96,34,21
0,39,64,0
0,54,30,0
0,86,34,0
0,54,0,1
0,39,0,0
0,86,0,2
0,96,0,18
0,39,25,3
0,54,30,0
0,54,0,1
0,39,0,0
0,101,34,23
0,54,50,0
0,62,74,0
0,62,0,1
0,54,0,0
0,101,0,20
0,54,30,3
0,62,74,0
0,36,50,0
0,36,0,1
0,62,0,0
0,54,0,0
0,36,74,0
0,54,64,0
0,62,74,0
0,62,0,1
0,54,0,0
0,36,0,0
0,62,19,23
0,36,19,0
0,54,30,0
0,54,0,1
0,36,0,0
0,62,0,0
0,101,34,23
0,36,74,0
0,54,40,0
0,54,0,1
0,36,0,0
0,101,0,20
0,36,19,3
0,54,50,0
0,54,0,1
0,36,0,0
0,96,34,23
0,39,64,0
0,54,64,0
0,54,0,1
0,39,0,0
0,96,0,20
0,39,25,3
0,54,30,0
0,54,0,1
0,39,0,0
0,101,34,23
0,54,60,0
0,54,0,1
0,101,0,20
0,36,50,3
0,54,55,0
0,54,0,1
0,36,0,0
0,33,0,22
0,21,0,0
0,26,74,1
