track,note,velocity,time
0,42,85,0
0,42,85,95
0,42,85,95
0,42,85,95
0,36,74,95
0,54,64,0
0,36,19,23
0,54,30,0
0,36,74,23
0,54,40,0
0,41,44,0
0,77,64,0
0,36,19,21
0,54,50,0
0,41,17,0
0,77,34,0
0,39,64,21
0,54,64,0
0,39,25,23
0,54,30,0
0,86,64,0
0,54,60,21
0,86,34,0
0,54,55,21
0,54,64,23
0,99,64,0
0,54,30,21
0,99,34,0
0,54,50,21
0,54,30,23
0,86,64,0
0,39,64,21
0,54,30,0
0,86,34,0
0,39,25,21
0,54,30,0
0,54,50,23
0,62,74,0
0,36,50,23
0,54,30,0
0,62,74,0
0,36,74,23
0,54,64,0
0,62,74,0
0,36,19,23
0,54,30,0
0,62,19,0
0,36,74,23
0,54,40,0
0,36,19,23
0,54,50,0
0,39,64,23
0,54,64,0
0,39,25,23
0,54,30,0
0,54,60,23
0,36,50,23
0,54,55,0
0,36,74,23
0,38,116,0
0,45,64,0
0,54,64,0
0,36,19,23
0,38,45,0
0,54,30,0
0,36,74,23
0,54,50,0
0,36,19,23
0,38,116,0
0,45,64,0
0,54,30,0
0,38,35,23
0,39,64,0
0,54,30,0
0,39,25,23
0,54,30,0
0,54,50,23
0,54,30,23
0,36,74,23
0,54,64,0
0,36,19,23
0,54,30,0
0,36,74,23
0,54,40,0
0,41,44,0
0,77,64,0
0,36,19,21
0,54,50,0
0,41,17,0
0,77,34,0
0,39,64,21
0,54,64,0
0,39,25,23
0,54,30,0
0,86,64,0
0,54,60,21
0,86,34,0
0,54,55,21
0,54,64,23
0,99,64,0
0,54,30,21
0,99,34,0
0,54,50,21
0,54,30,23
0,86,64,0
0,39,64,21
0,54,30,0
0,86,34,0
0,39,25,21
0,54,30,0
0,54,50,23
0,62,74,0
0,36,50,23
0,54,30,0
0,62,74,0
0,36,74,23
0,54,64,0
0,62,74,0
0,36,19,23
0,54,30,0
0,62,19,0
0,36,74,23
0,54,40,0
0,36,19,23
0,54,50,0
0,39,64,23
0,54,64,0
0,39,25,23
0,54,30,0
0,54,60,23
0,36,50,23
0,54,55,0
0,36,74,23
0,38,116,0
0,45,64,0
0,54,64,0
0,36,19,23
0,38,45,0
0,54,30,0
0,36,74,23
0,54,50,0
0,36,19,23
0,38,116,0
0,45,64,0
0,54,30,0
0,38,35,23
0,39,64,0
0,54,30,0
0,39,25,23
0,54,30,0
0,54,50,23
0,54,30,23
0,36,74,23
0,54,64,0
0,22,74,0
0,34,74,0
0,46,49,0
0,58,64,0
0,62,64,0
0,85,54,0
0,36,19,3
0,54,30,0
0,36,74,23
0,54,40,0
0,101,34,0
0,41,44,0
0,77,64,0
0,36,19,3
0,54,50,0
0,41,17,0
0,77,34,0
0,39,64,21
0,54,64,0
0,97,34,0
0,39,25,3
0,54,30,0
0,86,64,0
0,54,60,21
0,101,34,0
0,86,34,0
0,54,55,3
0,54,64,23
0,99,64,0
0,54,30,21
0,99,34,0
0,54,50,21
0,101,34,0
0,54,30,3
0,86,64,0
0,39,64,21
0,54,30,0
0,97,34,0
0,86,34,0
0,39,25,3
0,54,30,0
0,54,50,23
0,62,74,0
0,101,34,0
0,36,50,3
0,54,30,0
0,62,74,0
0,36,74,23
0,54,64,0
0,62,74,0
0,36,19,23
0,54,30,0
0,62,19,0
0,36,74,23
0,54,40,0
0,101,34,0
0,36,19,3
0,54,50,0
0,39,64,23
0,54,64,0
0,97,34,0
0,39,25,3
0,54,30,0
0,54,60,23
0,101,34,0
0,36,50,3
0,54,55,0
0,36,74,23
0,38,116,0
0,45,64,0
0,54,64,0
0,36,19,23
0,38,45,0
0,54,30,0
0,36,74,23
0,54,50,0
0,101,34,0
0,36,19,3
0,38,116,0
0,45,64,0
0,54,30,0
0,38,35,23
0,39,64,0
0,54,30,0
0,97,34,0
0,39,25,3
0,54,30,0
0,54,50,23
0,101,34,0
0,54,30,3
0,36,74,1
0,54,64,0
0,21,74,0
0,33,74,0
0,45,49,0
0,57,64,0
0,84,54,0
0,36,19,3
0,54,30,0
0,36,74,23
0,54,40,0
0,101,34,0
0,41,44,0
0,77,64,0
0,36,19,3
0,54,50,0
0,41,17,0
0,77,34,0
0,39,64,21
0,54,64,0
0,96,34,0
0,39,25,3
0,54,30,0
0,86,64,0
0,54,60,21
0,101,34,0
0,86,34,0
0,54,55,3
0,54,64,23
0,99,64,0
0,54,30,21
0,99,34,0
0,54,50,21
0,101,34,0
0,54,30,3
0,86,64,0
0,39,64,21
0,54,30,0
0,96,34,0
0,86,34,0
0,39,25,3
0,54,30,0
0,54,50,23
0,62,74,0
0,101,34,0
0,36,50,3
0,54,30,0
0,62,74,0
0,36,74,23
0,54,64,0
0,62,74,0
0,36,19,23
0,54,30,0
0,62,19,0
0,36,74,23
0,54,40,0
0,101,34,0
0,36,19,3
0,54,50,0
0,39,64,23
0,54,64,0
0,96,34,0
0,39,25,3
0,54,30,0
0,54,60,23
0,101,34,0
0,36,50,3
0,54,55,0
0,36,74,1
0,38,116,0
0,45,64,0
0,54,64,0
0,26,74,0
0,38,74,0
0,36,19,23
0,38,45,0
0,54,30,0
0,36,74,23
0,54,50,0
0,77,69,0
0,65,66,0
0,53,20,0
0,57,66,0
0,101,34,0
0,36,19,3
0,38,116,0
0,45,64,0
0,54,30,0
0,38,35,12
0,39,64,0
0,54,30,0
0,96,34,0
0,39,25,3
0,54,30,0
0,54,50,4
0,101,34,0
0,54,30,3
0,36,74,1
0,54,64,0
0,22,74,0
0,34,74,0
0,46,49,0
0,58,64,0
0,62,64,0
0,85,54,0
0,36,19,3
0,54,30,0
0,36,74,6
0,54,40,0
0,101,34,0
0,41,44,0
0,77,64,0
0,36,19,3
0,54,50,0
0,41,17,0
0,77,34,0
0,39,64,21
0,54,64,0
0,97,34,0
0,39,25,3
0,54,30,0
0,86,64,0
0,54,60,21
0,101,34,0
0,86,34,0
0,54,55,3
0,54,64,23
0,99,64,0
0,54,30,21
0,99,34,0
0,54,50,21
0,101,34,0
0,54,30,3
0,86,64,0
0,39,64,21
0,54,30,0
0,97,34,0
0,86,34,0
0,39,25,3
0,54,30,0
0,54,50,23
0,62,74,0
0,101,34,0
0,36,50,3
0,54,30,0
0,62,74,0
0,36,74,23
0,54,64,0
0,62,74,0
0,36,19,23
0,54,30,0
0,62,19,0
0,36,74,23
0,54,40,0
0,101,34,0
0,36,19,3
0,54,50,0
0,39,64,23
0,54,64,0
0,97,34,0
0,39,25,3
0,54,30,0
0,54,60,23
0,101,34,0
0,36,50,3
0,54,55,0
0,36,74,23
0,38,116,0
0,45,64,0
0,54,64,0
0,36,19,23
0,38,45,0
0,54,30,0
0,36,74,23
0,54,50,0
0,101,34,0
0,36,19,3
0,38,116,0
0,45,64,0
0,54,30,0
0,38,35,23
0,39,64,0
0,54,30,0
0,97,34,0
0,39,25,3
0,54,30,0
0,54,50,23
0,101,34,0
0,54,30,3
0,36,74,1
0,54,64,0
0,21,74,0
0,33,74,0
0,45,49,0
0,57,64,0
0,84,54,0
0,36,19,3
0,54,30,0
0,36,74,23
0,54,40,0
0,101,34,0
0,41,44,0
0,77,64,0
0,36,19,3
0,54,50,0
0,41,17,0
0,77,34,0
0,39,64,21
0,54,64,0
0,96,34,0
0,39,25,3
0,54,30,0
0,86,64,0
0,54,60,21
0,101,34,0
0,86,34,0
0,54,55,3
0,54,64,23
0,99,64,0
0,54,30,21
0,99,34,0
0,54,50,21
0,101,34,0
0,54,30,3
0,86,64,0
0,39,64,21
0,54,30,0
0,96,34,0
0,86,34,0
0,39,25,3
0,54,30,0
0,54,50,23
0,62,74,0
0,101,34,0
0,36,50,3
0,54,30,0
0,62,74,0
0,36,74,23
0,54,64,0
0,62,74,0
0,36,19,23
0,54,30,0
0,62,19,0
0,36,74,23
0,54,40,0
0,101,34,0
0,36,19,3
0,54,50,0
0,39,64,23
0,54,64,0
0,96,34,0
0,39,25,3
0,54,30,0
0,54,60,23
0,101,34,0
0,36,50,3
0,54,55,0
0,36,74,1
0,37,104,0
0,38,116,0
0,45,64,0
0,54,64,0
0,62,126,0
0,26,74,0
0,38,74,0
0,36,19,23
0,37,104,0
0,38,45,0
0,54,30,0
0,62,126,0
0,36,74,23
0,37,104,0
0,54,50,0
0,62,126,0
0,77,69,0
0,65,66,0
0,53,20,0
0,57,66,0
0,101,34,0
0,36,19,3
0,37,104,0
0,38,116,0
0,45,64,0
0,54,30,0
0,62,126,0
0,38,35,12
0,39,64,0
0,54,30,0
0,96,34,0
0,39,25,3
0,54,30,0
0,54,50,4
0,101,34,0
0,54,30,3
0,36,74,1
0,54,64,0
0,22,74,0
0,34,74,0
0,46,49,0
0,58,64,0
0,62,64,0
0,85,54,0
0,54,30,3
0,36,74,6
0,54,40,0
0,101,34,0
0,41,44,0
0,77,64,0
0,54,50,3
0,39,64,23
0,54,64,0
0,97,34,0
0,54,30,3
0,60,106,0
0,86,64,0
0,54,60,3
0,62,126,0
0,101,34,0
0,54,55,3
0,60,106,0
0,54,64,3
0,62,126,0
0,99,64,0
0,54,30,21
0,54,50,3
0,62,126,0
0,101,34,0
0,54,30,3
0,60,106,0
0,86,64,0
0,39,64,3
0,54,30,0
0,62,126,0
0,97,34,0
0,54,30,3
0,54,50,3
0,62,74,0
0,62,126,0
0,101,34,0
0,36,50,3
0,54,30,0
0,62,74,0
0,60,106,0
0,36,74,3
0,54,64,0
0,62,74,0
0,64,126,0
0,54,30,12
0,36,74,23
0,54,40,0
0,101,34,0
0,54,50,3
0,39,64,3
0,54,64,0
0,62,126,0
0,97,34,0
0,54,30,3
0,54,60,23
0,101,34,0
0,36,50,3
0,54,55,0
0,36,74,23
0,38,116,0
0,45,64,0
0,54,64,0
0,54,30,23
0,36,74,3
0,54,50,0
0,57,94,0
0,101,34,0
0,38,116,3
0,45,64,0
0,54,30,0
0,39,64,23
0,54,30,0
0,97,34,0
0,54,30,3
0,54,50,23
0,101,34,0
0,54,30,3
0,36,74,1
0,54,64,0
0,21,74,0
0,33,74,0
0,45,49,0
0,57,64,0
0,84,54,0
0,54,30,3
0,36,74,23
0,54,40,0
0,101,34,0
0,41,44,0
0,77,64,0
0,54,50,3
0,39,64,23
0,54,64,0
0,96,34,0
0,54,30,3
0,86,64,0
0,54,60,21
0,101,34,0
0,54,55,3
0,54,64,23
0,99,64,0
0,54,30,21
0,54,50,23
0,101,34,0
0,54,30,3
0,86,64,0
0,39,64,21
0,54,30,0
0,96,34,0
0,54,30,3
0,54,50,23
0,62,74,0
0,62,126,0
0,101,34,0
0,36,50,3
0,54,30,0
0,62,74,0
0,60,106,0
0,36,74,3
0,54,64,0
0,62,74,0
0,64,126,0
0,54,30,12
0,36,74,23
0,54,40,0
0,101,34,0
0,54,50,3
0,39,64,6
0,54,64,0
0,62,126,0
0,96,34,0
0,54,30,3
0,54,60,23
0,101,34,0
0,36,50,3
0,54,55,0
0,36,74,1
0,38,116,0
0,45,64,0
0,54,64,0
0,26,74,0
0,38,74,0
0,54,30,23
0,36,74,23
0,54,50,0
0,77,69,0
0,65,66,0
0,53,20,0
0,57,66,0
0,101,34,0
0,38,116,3
0,45,64,0
0,54,30,0
0,39,64,12
0,54,30,0
0,96,34,0
0,54,30,3
0,54,50,4
0,101,34,0
0,54,30,3
0,36,74,1
0,54,64,0
0,22,74,0
0,34,74,0
0,46,49,0
0,58,64,0
0,62,64,0
0,85,54,0
0,54,30,3
0,36,74,6
0,54,40,0
0,101,34,0
0,41,44,0
0,77,64,0
0,54,50,3
0,39,64,23
0,54,64,0
0,97,34,0
0,54,30,3
0,86,64,0
0,54,60,21
0,62,126,0
0,101,34,0
0,54,55,3
0,60,106,0
0,54,64,3
0,62,126,0
0,99,64,0
0,54,30,21
0,54,50,3
0,62,126,0
0,101,34,0
0,54,30,3
0,60,106,0
0,86,64,0
0,39,64,3
0,54,30,0
0,62,126,0
0,97,34,0
0,54,30,3
0,54,50,3
0,62,74,0
0,62,126,0
0,101,34,0
0,36,50,3
0,54,30,0
0,62,74,0
0,60,106,0
0,36,74,3
0,54,64,0
0,62,74,0
0,64,126,0
0,54,30,12
0,36,74,23
0,54,40,0
0,101,34,0
0,54,50,3
0,39,64,6
0,54,64,0
0,62,126,0
0,97,34,0
0,54,30,3
0,54,60,23
0,101,34,0
0,36,50,3
0,54,55,0
0,36,74,3
0,38,116,0
0,45,64,0
0,54,64,0
0,57,94,0
0,54,30,23
0,36,74,23
0,54,50,0
0,101,34,0
0,38,116,3
0,45,64,0
0,54,30,0
0,39,64,23
0,54,30,0
0,97,34,0
0,54,30,3
0,54,50,23
0,101,34,0
0,54,30,3
0,36,74,1
0,54,64,0
0,21,74,0
0,33,74,0
0,45,49,0
0,57,64,0
0,84,54,0
0,54,30,3
0,36,74,23
0,54,40,0
0,101,34,0
0,41,44,0
0,77,64,0
0,54,50,3
0,39,64,23
0,54,64,0
0,96,34,0
0,54,30,3
0,86,64,0
0,54,60,21
0,101,34,0
0,54,55,3
0,54,64,23
0,99,64,0
0,54,30,21
0,54,50,23
0,62,126,0
0,101,34,0
0,54,30,3
0,86,64,0
0,39,64,21
0,54,30,0
0,96,34,0
0,54,30,3
0,54,50,10
0,62,74,0
0,62,126,0
0,101,34,0
0,36,50,3
0,54,30,0
0,62,74,0
0,60,126,0
0,36,74,3
0,54,64,0
0,62,74,0
0,64,126,0
0,54,30,23
0,36,74,23
0,54,40,0
0,101,34,0
0,54,50,3
0,39,64,12
0,54,64,0
0,96,34,0
0,54,30,3
0,54,60,23
0,101,34,0
0,36,50,3
0,54,55,0
0,36,74,1
0,37,104,0
0,38,116,0
0,45,64,0
0,54,64,0
0,62,126,0
0,26,74,0
0,38,74,0
0,62,126,0
0,37,104,23
0,54,30,0
0,62,126,0
0,36,74,3
0,37,104,0
0,54,50,0
0,62,126,0
0,57,94,0
0,77,69,0
0,65,66,0
0,53,20,0
0,57,66,0
0,101,34,0
0,37,104,3
0,38,116,0
0,45,64,0
0,54,30,0
0,62,126,0
0,39,64,3
0,54,30,0
0,96,34,0
0,54,30,3
0,54,50,4
0,101,34,0
0,54,30,3
0,36,74,1
0,54,64,0
0,22,74,0
0,34,74,0
0,46,49,0
0,58,64,0
0,62,64,0
0,85,54,0
0,54,30,3
0,36,74,6
0,54,40,0
0,101,34,0
0,41,44,0
0,77,64,0
0,54,50,3
0,39,64,23
0,54,64,0
0,97,34,0
0,54,30,3
0,86,64,0
0,54,60,21
0,62,126,0
0,101,34,0
0,54,55,3
0,60,106,0
0,54,64,3
0,62,126,0
0,99,64,0
0,54,30,21
0,54,50,3
0,62,126,0
0,101,34,0
0,54,30,3
0,86,64,0
0,39,64,3
0,54,30,0
0,62,126,0
0,97,34,0
0,54,30,3
0,54,50,3
0,62,74,0
0,101,34,0
0,36,50,3
0,54,30,0
0,62,74,0
0,36,74,23
0,54,64,0
0,62,74,0
0,62,126,0
0,54,30,3
0,62,106,0
0,36,74,23
0,54,40,0
0,101,34,0
0,54,50,3
0,39,64,23
0,54,64,0
0,62,126,0
0,97,34,0
0,54,30,3
0,54,60,23
0,101,34,0
0,36,50,3
0,54,55,0
0,36,74,23
0,38,116,0
0,45,64,0
0,54,64,0
0,54,30,23
0,36,74,23
0,54,50,0
0,101,34,0
0,38,116,3
0,45,64,0
0,54,30,0
0,62,94,0
0,39,64,3
0,54,30,0
0,62,126,0
0,97,34,0
0,54,30,3
0,62,106,0
0,54,50,23
0,101,34,0
0,54,30,3
0,64,126,0
0,36,74,1
0,54,64,0
0,24,74,0
0,36,74,0
0,48,49,0
0,60,64,0
0,64,64,0
0,84,54,0
0,54,30,3
0,36,74,12
0,54,40,0
0,79,69,0
0,67,66,0
0,52,20,0
0,55,66,0
0,103,34,0
0,41,44,0
0,77,64,0
0,54,50,3
0,39,64,12
0,54,64,0
0,100,34,0
0,54,30,3
0,86,64,0
0,54,60,4
0,106,34,0
0,54,55,3
0,54,64,4
0,99,64,0
