track,note,velocity,time
1,34,100,1920
1,34,0,120
1,34,100,120
1,34,0,60
1,34,100,0
1,34,0,60
1,34,100,0
1,34,0,60
1,34,100,0
1,34,0,60
1,34,100,0
1,34,0,120
1,46,100,0
1,46,0,60
1,34,100,0
1,34,0,120
1,34,100,0
1,34,0,60
1,34,100,0
1,34,0,60
1,34,100,0
1,34,0,60
1,34,100,0
1,34,0,120
1,34,100,120
1,34,0,60
1,34,100,0
1,34,0,60
1,34,100,0
1,34,0,60
1,34,100,0
1,34,0,60
1,34,100,0
1,34,0,120
1,34,100,60
1,34,0,60
1,38,100,0
1,38,0,55
1,38,100,5
1,38,0,55
1,41,100,5
1,41,0,55
1,34,100,5
1,34,0,55
1,34,100,5
1,34,0,120
1,34,100,120
1,34,0,60
1,34,100,0
1,34,0,60
1,34,100,0
1,34,0,60
1,34,100,0
1,34,0,60
1,34,100,0
1,34,0,180
1,34,100,0
1,34,0,120
1,34,100,0
1,34,0,60
1,38,100,0
1,38,0,60
1,41,100,0
1,41,0,60
1,34,100,0
1,34,0,120
1,34,100,120
1,34,0,60
1,34,100,0
1,34,0,60
1,34,100,0
1,34,0,60
1,34,100,0
1,34,0,60
1,34,100,0
1,34,0,120
1,34,100,60
1,34,0,60
1,38,100,0
1,38,0,55
1,38,100,5
1,38,0,55
1,41,100,5
1,41,0,55
1,41,100,5
1,41,0,55
1,38,100,125
1,38,0,180
1,38,100,0
1,38,0,120
1,34,100,60
1,34,0,60
1,36,100,0
1,36,0,60
1,38,100,0
1,38,0,60
1,41,100,0
1,41,0,120
1,41,100,0
1,41,0,60
1,41,100,0
1,41,0,60
1,36,100,0
1,36,0,180
1,36,100,180
1,36,0,180
1,36,100,0
1,36,0,180
1,34,100,0
1,34,0,120
1,34,100,0
1,34,0,60
1,34,100,0
1,34,0,60
1,34,100,0
1,34,0,60
1,38,100,120
1,38,0,180
1,38,100,0
1,38,0,120
1,34,100,60
1,34,0,60
1,36,100,0
1,36,0,60
1,38,100,0
1,38,0,60
1,41,100,0
1,41,0,120
1,41,100,0
1,41,0,60
1,41,100,0
1,41,0,60
1,36,100,0
1,36,0,180
1,36,100,180
1,36,0,180
1,36,100,0
1,36,0,180
1,34,100,0
1,34,0,120
1,34,100,0
1,34,0,60
1,34,100,0
1,34,0,60
1,34,100,0
1,34,0,60
1,38,100,120
1,38,0,180
1,38,100,0
1,38,0,120
1,34,100,60
1,34,0,60
1,36,100,0
1,36,0,60
1,38,100,0
1,38,0,60
1,41,100,0
1,41,0,120
1,41,100,0
1,41,0,60
1,41,100,0
1,41,0,60
1,36,100,0
1,36,0,180
1,36,100,180
1,36,0,180
1,36,100,0
1,36,0,180
1,34,100,0
1,34,0,120
1,34,100,0
1,34,0,60
1,34,100,0
1,34,0,60
1,34,100,0
1,34,0,60
1,38,100,120
1,38,0,180
1,38,100,0
1,38,0,120
1,34,100,60
1,34,0,60
1,36,100,0
1,36,0,60
1,38,100,0
1,38,0,60
1,41,100,0
1,41,0,120
1,41,100,0
1,41,0,60
1,41,100,0
1,41,0,60
1,36,100,0
1,36,0,180
1,36,100,180
1,36,0,180
1,36,100,0
1,36,0,180
1,34,100,0
1,34,0,120
1,34,100,0
1,34,0,60
1,34,100,0
1,34,0,60
1,34,100,0
1,34,0,60
1,41,100,0
1,41,0,120
1,41,100,0
1,41,0,55
1,41,100,5
1,41,0,300
1,41,100,0
1,41,0,60
1,41,100,0
1,41,0,60
1,41,100,0
1,41,0,55
1,41,100,5
1,41,0,180
1,41,100,0
1,41,0,60
1,41,100,0
1,41,0,60
1,41,100,0
1,41,0,120
1,41,100,0
1,41,0,55
1,41,100,5
1,41,0,300
1,41,100,0
1,41,0,120
1,38,100,0
1,38,0,55
1,39,100,5
1,39,0,120
1,41,100,0
1,41,0,40
1,41,100,80
1,41,0,60
1,41,100,0
1,41,0,240
1,41,100,0
1,41,0,60
1,41,100,0
1,41,0,60
1,38,100,0
1,38,0,60
1,41,100,0
1,41,0,180
1,41,100,60
1,41,0,60
1,41,100,0
1,41,0,60
1,41,100,0
1,41,0,60
1,38,100,0
1,38,0,60
1,41,100,0
1,41,0,120
1,41,100,120
1,41,0,60
1,41,100,0
1,41,0,60
1,41,100,0
1,41,0,60
1,38,100,0
1,38,0,60
1,41,100,0
1,41,0,60
1,41,100,0
1,41,0,60
1,29,100,0
1,29,0,120
1,31,100,0
1,31,0,120
1,33,100,0
1,33,0,55
1,33,100,5
1,33,0,120
1,34,100,0
1,34,0,120
1,34,100,120
1,34,0,60
1,34,100,0
1,34,0,60
1,34,100,0
1,34,0,60
1,34,100,0
1,34,0,60
1,34,100,0
1,34,0,120
1,46,100,0
1,46,0,60
1,34,100,0
1,34,0,120
1,34,100,0
1,34,0,60
1,34,100,0
1,34,0,60
1,34,100,0
1,34,0,60
1,34,100,0
1,34,0,120
1,34,100,120
1,34,0,60
1,34,100,0
1,34,0,60
1,34,100,0
1,34,0,60
1,34,100,0
1,34,0,60
1,34,100,0
1,34,0,120
1,34,100,60
1,34,0,60
1,38,100,0
1,38,0,55
1,38,100,5
1,38,0,55
1,41,100,5
1,41,0,55
1,34,100,5
1,34,0,55
1,34,100,5
1,34,0,120
1,34,100,120
1,34,0,60
1,34,100,0
1,34,0,60
1,34,100,0
1,34,0,60
1,34,100,0
1,34,0,60
1,34,100,0
1,34,0,180
1,34,100,0
1,34,0,120
1,34,100,0
1,34,0,60
1,38,100,0
1,38,0,60
1,41,100,0
1,41,0,60
1,34,100,0
1,34,0,120
1,34,100,120
1,34,0,60
1,34,100,0
1,34,0,60
1,34,100,0
1,34,0,60
1,34,100,0
1,34,0,60
1,34,100,0
1,34,0,120
1,34,100,60
1,34,0,60
1,38,100,0
1,38,0,55
1,38,100,5
1,38,0,55
1,41,100,5
1,41,0,55
1,41,100,5
1,41,0,55
1,38,100,125
1,38,0,180
1,38,100,0
1,38,0,120
1,34,100,60
1,34,0,60
1,36,100,0
1,36,0,60
1,38,100,0
1,38,0,60
1,41,100,0
1,41,0,120
1,41,100,0
1,41,0,60
1,41,100,0
1,41,0,60
1,36,100,0
1,36,0,180
1,36,100,180
1,36,0,180
1,36,100,0
1,36,0,180
1,34,100,0
1,34,0,120
1,34,100,0
1,34,0,60
1,34,100,0
1,34,0,60
1,34,100,0
1,34,0,60
1,38,100,120
1,38,0,180
1,38,100,0
1,38,0,120
1,34,100,60
1,34,0,60
1,36,100,0
1,36,0,60
1,38,100,0
1,38,0,60
1,41,100,0
1,41,0,120
1,41,100,0
1,41,0,60
1,41,100,0
1,41,0,60
1,36,100,0
1,36,0,180
1,36,100,180
1,36,0,180
1,36,100,0
1,36,0,180
1,34,100,0
1,34,0,120
1,34,100,0
1,34,0,60
1,34,100,0
1,34,0,60
1,34,100,0
1,34,0,60
1,41,100,0
1,41,0,120
1,41,100,0
1,41,0,55
1,41,100,5
1,41,0,300
1,41,100,0
1,41,0,60
1,41,100,0
1,41,0,60
1,41,100,0
1,41,0,55
1,41,100,5
1,41,0,180
1,41,100,0
1,41,0,60
1,41,100,0
1,41,0,60
1,41,100,0
1,41,0,120
1,41,100,0
1,41,0,55
1,41,100,5
1,41,0,300
1,41,100,0
1,41,0,120
1,38,100,0
1,38,0,55
1,39,100,5
1,39,0,120
1,41,100,0
1,41,0,40
1,41,100,80
1,41,0,60
1,34,100,0
1,34,0,120
1,34,100,120
1,34,0,60
1,34,100,0
1,34,0,60
1,34,100,0
1,34,0,60
1,34,100,0
1,34,0,60
1,34,100,0
1,34,0,120
1,46,100,0
1,46,0,60
1,34,100,0
1,34,0,120
1,34,100,0
1,34,0,60
1,34,100,0
1,34,0,60
1,34,100,0
1,34,0,60
1,34,100,0
1,34,0,120
1,34,100,120
1,34,0,60
1,34,100,0
1,34,0,60
1,34,100,0
1,34,0,60
1,34,100,0
1,34,0,60
1,34,100,0
1,34,0,120
1,34,100,60
1,34,0,60
1,38,100,0
1,38,0,55
1,38,100,5
1,38,0,55
1,41,100,5
1,41,0,55
1,34,100,5
1,34,0,55
1,34,100,5
1,34,0,120
1,34,100,120
1,34,0,60
1,34,100,0
1,34,0,60
1,34,100,0
1,34,0,60
1,34,100,0
1,34,0,60
1,34,100,0
1,34,0,180
1,34,100,0
1,34,0,120
1,34,100,0
1,34,0,60
1,38,100,0
1,38,0,60
1,41,100,0
1,41,0,60
1,34,100,0
1,34,0,120
1,34,100,120
1,34,0,60
1,34,100,0
1,34,0,60
1,34,100,0
1,34,0,60
1,34,100,0
1,34,0,60
1,34,100,0
1,34,0,120
1,34,100,60
1,34,0,60
1,38,100,0
1,38,0,55
1,38,100,5
1,38,0,55
1,41,100,5
1,41,0,55
1,41,100,5
1,41,0,55
1,34,100,5
1,34,0,120
1,34,100,120
1,34,0,60
1,34,100,0
1,34,0,60
1,34,100,0
1,34,0,60
1,34,100,0
1,34,0,60
1,34,100,0
1,34,0,120
1,46,100,0
1,46,0,60
1,34,100,0
1,34,0,120
1,34,100,0
1,34,0,60
1,34,100,0
1,34,0,60
1,34,100,0
1,34,0,60
1,34,100,0
1,34,0,120
1,34,100,120
1,34,0,60
1,34,100,0
1,34,0,60
1,34,100,0
1,34,0,60
1,34,100,0
1,34,0,60
1,34,100,0
1,34,0,120
1,34,100,60
1,34,0,60
1,38,100,0
1,38,0,55
1,38,100,5
1,38,0,55
1,41,100,5
1,41,0,55
1,34,100,5
1,34,0,55
1,34,100,5
1,34,0,120
1,34,100,120
1,34,0,60
1,34,100,0
1,34,0,60
1,34,100,0
1,34,0,60
1,34,100,0
1,34,0,60
1,34,100,0
1,34,0,180
1,34,100,0
1,34,0,120
1,34,100,0
1,34,0,60
1,38,100,0
1,38,0,60
1,41,100,0
1,41,0,60
1,34,100,0
1,34,0,120
1,34,100,120
1,34,0,60
1,34,100,0
1,34,0,60
1,34,100,0
1,34,0,60
1,34,100,0
1,34,0,60
1,34,100,0
1,34,0,120
1,34,100,60
1,34,0,60
1,38,100,0
1,38,0,55
1,38,100,5
1,38,0,55
1,41,100,5
1,41,0,55
1,41,100,5
1,41,0,55
1,34,100,5
1,34,0,120
1,34,100,120
1,34,0,60
1,34,100,0
1,34,0,60
1,34,100,0
1,34,0,60
1,34,100,0
1,34,0,60
1,34,100,0
1,34,0,120
1,46,100,0
1,46,0,60
1,34,100,0
1,34,0,120
1,34,100,0
1,34,0,60
1,34,100,0
1,34,0,60
1,34,100,0
1,34,0,60
1,32,100,0
1,32,0,120
1,32,100,120
1,32,0,60
1,32,100,0
1,32,0,60
1,32,100,0
1,32,0,60
1,32,100,0
1,32,0,60
1,32,100,0
1,32,0,120
1,32,100,120
1,32,0,60
1,32,100,0
1,32,0,60
1,32,100,0
1,32,0,60
1,32,100,0
1,32,0,60
1,31,100,0
1,31,0,900
1,29,100,0
1,29,0,960
1,36,100,0
1,36,0,960
1,39,100,0
1,39,0,540
1,38,100,0
1,38,0,240
1,29,100,0
1,29,0,180
1,31,100,0
1,31,0,960
1,29,100,0
1,29,0,960
1,36,100,0
1,36,0,960
1,39,100,0
1,39,0,540
1,38,100,0
1,38,0,480
1,38,100,0
1,38,0,60
1,38,100,360
1,38,0,25
1,33,100,35
1,33,0,60
1,35,100,0
1,35,0,60
1,38,100,0
1,38,0,60
1,38,100,300
1,38,0,60
1,31,100,60
1,31,0,60
1,38,100,240
1,38,0,60
1,31,100,0
1,31,0,60
1,31,100,60
1,31,0,60
1,38,100,240
1,38,0,60
1,36,100,0
1,36,0,60
1,35,100,0
1,35,0,60
1,36,100,0
1,36,0,60
1,36,100,240
1,36,0,60
1,33,100,0
1,33,0,60
1,35,100,0
1,35,0,60
1,38,100,0
1,38,0,60
1,33,100,300
1,33,0,60
1,38,100,60
1,38,0,60
1,33,100,240
1,33,0,60
1,38,100,0
1,38,0,60
1,38,100,420
1,38,0,60
1,38,100,360
1,38,0,25
1,33,100,35
1,33,0,60
1,35,100,0
1,35,0,60
1,38,100,0
1,38,0,60
1,38,100,300
1,38,0,60
1,31,100,60
1,31,0,60
1,38,100,240
1,38,0,60
1,31,100,0
1,31,0,60
1,31,100,60
1,31,0,60
1,38,100,240
1,38,0,60
1,36,100,0
1,36,0,60
1,35,100,0
1,35,0,60
1,36,100,0
1,36,0,60
1,36,100,240
1,36,0,60
1,33,100,0
1,33,0,60
1,35,100,0
1,35,0,60
1,38,100,0
1,38,0,60
1,33,100,300
1,33,0,60
1,38,100,60
1,38,0,60
1,33,100,240
1,33,0,60
1,38,100,0
1,38,0,60
1,38,100,180
1,38,0,50
1,40,100,70
1,40,0,50
1,42,100,70
1,42,0,50
1,42,100,130
1,42,0,50
1,38,100,70
1,38,0,50
1,40,100,70
1,40,0,50
1,40,100,10
1,40,0,50
1,38,100,190
1,38,0,50
1,40,100,70
1,40,0,50
1,42,100,70
1,42,0,50
1,42,100,130
1,42,0,50
1,43,100,70
1,43,0,50
1,40,100,70
1,40,0,50
1,40,100,10
1,40,0,50
1,38,100,190
1,38,0,50
1,40,100,70
1,40,0,50
1,42,100,70
1,42,0,50
1,42,100,130
1,42,0,50
1,38,100,70
1,38,0,50
1,40,100,70
1,40,0,50
1,40,100,10
1,40,0,50
1,38,100,190
1,38,0,50
1,40,100,70
1,40,0,50
1,42,100,70
1,42,0,50
1,42,100,130
1,42,0,50
1,43,100,70
1,43,0,50
1,40,100,70
1,40,0,50
1,40,100,10
1,40,0,50
1,38,100,430
1,38,0,60
1,38,100,360
1,38,0,25
1,33,100,35
1,33,0,60
1,35,100,0
1,35,0,60
1,38,100,0
1,38,0,60
1,38,100,300
1,38,0,60
1,31,100,60
1,31,0,60
1,38,100,240
1,38,0,60
1,31,100,0
1,31,0,60
1,31,100,60
1,31,0,60
1,38,100,240
1,38,0,60
1,36,100,0
1,36,0,60
1,35,100,0
1,35,0,60
1,36,100,0
1,36,0,60
1,36,100,240
1,36,0,60
1,33,100,0
1,33,0,60
1,35,100,0
1,35,0,60
1,38,100,0
1,38,0,60
1,33,100,300
1,33,0,60
1,38,100,60
1,38,0,60
1,33,100,240
1,33,0,60
1,38,100,0
1,38,0,60
1,38,100,420
1,38,0,60
1,38,100,360
1,38,0,25
1,33,100,35
1,33,0,60
1,35,100,0
1,35,0,60
1,38,100,0
1,38,0,60
1,38,100,300
1,38,0,60
1,31,100,60
1,31,0,60
1,38,100,240
1,38,0,60
1,31,100,0
1,31,0,60
1,31,100,60
1,31,0,60
1,38,100,240
1,38,0,60
1,36,100,0
1,36,0,60
1,35,100,0
1,35,0,60
1,36,100,0
1,36,0,60
1,36,100,240
1,36,0,60
1,33,100,0
1,33,0,60
1,35,100,0
1,35,0,60
1,38,100,0
1,38,0,60
1,33,100,300
1,33,0,60
1,38,100,60
1,38,0,60
1,33,100,240
1,33,0,60
1,38,100,0
1,38,0,60
1,38,100,180
1,38,0,50
1,40,100,70
1,40,0,50
1,42,100,70
1,42,0,50
1,42,100,130
1,42,0,50
1,38,100,70
1,38,0,50
1,40,100,70
1,40,0,50
1,40,100,10
1,40,0,50
1,38,100,190
1,38,0,50
1,40,100,70
1,40,0,50
1,42,100,70
1,42,0,50
1,42,100,130
1,42,0,50
1,43,100,70
1,43,0,50
1,40,100,70
1,40,0,50
1,40,100,10
1,40,0,50
1,38,100,190
1,38,0,50
1,40,100,70
1,40,0,50
1,42,100,70
1,42,0,50
1,42,100,130
1,42,0,50
1,38,100,70
1,38,0,50
1,40,100,70
1,40,0,50
1,40,100,10
1,40,0,50
1,38,100,190
1,38,0,50
1,40,100,70
1,40,0,50
1,42,100,70
1,42,0,50
1,42,100,130
1,42,0,50
1,43,100,70
1,43,0,50
1,40,100,70
1,40,0,50
1,40,100,10
1,40,0,50
1,40,100,250
1,40,0,180
1,41,100,0
1,41,0,120
1,41,100,0
1,41,0,55
1,41,100,5
1,41,0,300
1,41,100,0
1,41,0,60
1,41,100,0
1,41,0,60
1,41,100,0
1,41,0,55
1,41,100,5
1,41,0,180
