track,note,velocity,time
1,71,11,288
1,35,71,96
1,71,9,288
1,35,51,192
1,35,66,1632
1,35,39,52
1,35,45,52
1,35,52,52
1,35,59,52
1,38,60,148
1,35,66,148
1,35,39,52
1,35,45,52
1,35,52,52
1,35,59,52
1,38,60,148
1,35,66,148
1,35,39,52
1,35,45,52
1,35,52,52
1,35,59,52
1,38,60,148
1,35,66,148
1,35,39,52
1,35,45,52
1,35,52,52
1,35,59,52
1,38,60,148
1,35,66,148
1,35,39,52
1,35,45,52
1,35,52,52
1,35,59,52
1,38,60,148
1,35,66,148
1,35,39,52
1,35,45,52
1,35,52,52
1,35,59,52
1,38,60,148
1,35,66,148
1,35,39,52
1,35,45,52
1,35,52,52
1,35,59,52
1,38,60,148
1,35,66,148
1,35,39,52
1,35,45,52
1,35,52,52
1,35,59,52
1,38,60,148
1,35,66,148
1,35,39,52
1,35,45,52
1,35,52,52
1,35,59,52
1,38,60,148
1,35,66,148
1,35,39,52
1,35,45,52
1,35,52,52
1,35,59,52
1,38,60,148
1,35,66,148
1,35,39,52
1,35,45,52
1,35,52,52
1,35,59,52
1,38,60,148
1,35,66,148
1,35,39,52
1,35,45,52
1,35,52,52
1,35,59,52
1,38,60,148
1,35,66,148
1,35,39,52
1,35,45,52
1,35,52,52
1,35,59,52
1,38,60,148
1,35,66,148
1,35,39,52
1,35,45,52
1,35,52,52
1,35,59,52
1,38,60,148
1,47,32,2
1,35,82,2
1,23,127,144
1,35,107,100
1,35,107,28
1,23,127,28
1,35,107,100
1,35,107,28
1,23,127,28
1,35,107,100
1,35,107,28
1,23,127,28
1,35,107,100
1,35,107,28
1,23,127,28
1,35,107,100
1,35,107,28
1,23,127,28
1,35,107,100
1,35,107,28
1,23,127,28
1,35,107,100
1,35,107,28
1,23,127,28
1,35,107,100
1,35,107,28
1,19,127,28
1,31,107,100
1,31,107,28
1,19,127,28
1,31,107,100
1,31,107,28
1,19,127,28
1,31,107,100
1,31,107,28
1,19,127,28
1,31,107,100
1,31,107,28
1,21,127,28
1,33,107,100
1,33,107,28
1,21,127,28
1,33,107,100
1,33,107,28
1,21,127,28
1,33,107,100
1,33,107,28
1,21,127,28
1,33,107,100
1,33,107,28
1,23,127,28
1,35,107,124
1,35,107,28
1,23,127,28
1,35,107,124
1,35,107,28
1,23,127,28
1,35,107,124
1,35,107,28
1,23,127,28
1,35,107,124
1,35,107,28
1,23,127,28
1,35,107,124
1,35,107,28
1,23,127,28
1,35,107,124
1,35,107,28
1,23,127,28
1,35,107,124
1,35,107,28
1,23,127,28
1,35,107,124
1,35,107,28
1,19,127,28
1,31,107,124
1,31,107,28
1,19,127,28
1,31,107,124
1,31,107,28
1,19,127,28
1,31,107,124
1,31,107,28
1,19,127,28
1,31,107,124
1,31,107,28
1,21,127,28
1,33,107,124
1,33,107,28
1,21,127,28
1,33,107,124
1,33,107,28
1,21,127,28
1,33,107,124
1,33,107,28
1,21,127,28
1,33,107,124
1,33,107,28
1,23,127,28
1,35,77,100
1,35,77,28
1,23,127,28
1,35,77,100
1,35,77,28
1,23,127,28
1,35,77,100
1,35,77,28
1,23,127,28
1,35,77,100
1,35,77,28
1,23,127,28
1,35,77,100
1,35,77,28
1,23,127,28
1,35,77,100
1,35,77,28
1,23,127,28
1,33,107,100
1,33,107,28
1,33,106,28
1,33,105,28
1,33,105,28
1,33,104,28
1,23,127,28
1,35,77,100
1,35,77,28
1,23,127,28
1,35,77,100
1,35,77,28
1,23,127,28
1,35,77,100
1,35,77,28
1,23,127,28
1,35,77,100
1,35,77,28
1,23,127,28
1,35,77,100
1,35,77,28
1,23,127,28
1,35,77,100
1,35,77,28
1,23,127,28
1,33,107,100
1,33,107,28
1,33,106,28
1,33,105,28
1,33,105,28
1,33,104,28
1,23,127,28
1,35,77,100
1,35,77,28
1,23,127,28
1,35,77,100
1,35,77,28
1,23,127,28
1,35,77,100
1,35,77,28
1,23,127,28
1,35,77,100
1,35,77,28
1,23,127,28
1,35,77,100
1,35,77,28
1,23,127,28
1,35,77,100
1,35,77,28
1,23,127,28
1,33,107,100
1,33,107,28
1,33,106,28
1,33,105,28
1,33,105,28
1,33,104,28
1,23,127,28
1,35,77,100
1,35,77,28
1,23,127,28
1,35,77,100
1,35,77,28
1,23,127,28
1,35,77,100
1,35,77,28
1,23,127,28
1,35,77,100
1,35,77,28
1,23,127,28
1,35,77,100
1,35,77,28
1,23,127,28
1,35,77,100
1,35,77,28
1,23,127,28
1,33,107,100
1,33,107,28
1,33,106,28
1,33,105,28
1,33,105,28
1,33,104,28
1,23,127,28
1,35,97,100
1,35,97,28
1,23,127,28
1,35,97,4
1,35,97,28
1,35,97,28
1,19,127,28
1,31,97,100
1,31,97,28
1,19,127,28
1,31,97,100
1,31,97,28
1,26,127,28
1,38,97,100
1,38,97,28
1,26,127,28
1,38,97,4
1,38,97,28
1,38,97,28
1,21,127,28
1,33,97,100
1,33,97,28
1,21,127,28
1,33,97,100
1,33,97,28
1,23,127,28
1,35,97,100
1,35,97,28
1,23,127,28
1,35,97,4
1,35,97,28
1,35,97,28
1,19,127,28
1,31,97,100
1,31,97,28
1,19,127,28
1,31,97,100
1,31,97,28
1,26,127,28
1,38,97,100
1,38,97,28
1,26,127,28
1,38,97,4
1,38,97,28
1,38,97,28
1,21,127,28
1,33,97,100
1,33,97,28
1,21,127,28
1,33,97,100
1,33,97,28
1,23,127,28
1,35,97,100
1,35,97,28
1,23,127,28
1,35,97,4
1,35,97,28
1,35,97,28
1,19,127,28
1,31,97,100
1,31,97,28
1,19,127,28
1,31,97,100
1,31,97,28
1,26,127,28
1,38,97,100
1,38,97,28
1,26,127,28
1,38,97,4
1,38,97,28
1,38,97,28
1,21,127,28
1,33,97,100
1,33,97,28
1,21,127,28
1,33,97,100
1,33,97,28
1,23,127,3100
1,35,97,100
1,35,97,28
1,23,127,28
1,35,97,4
1,35,97,28
1,35,97,28
1,19,127,28
1,31,97,100
1,31,97,28
1,19,127,28
1,31,97,100
1,31,97,28
1,26,127,28
1,38,97,100
1,38,97,28
1,26,127,28
1,38,97,4
1,38,97,28
1,38,97,28
1,21,127,28
1,33,97,100
1,33,97,28
1,21,127,28
1,33,97,100
1,33,97,28
1,23,127,28
1,35,97,100
1,35,97,28
1,23,127,28
1,35,97,4
1,35,97,28
1,35,97,28
1,19,127,28
1,31,97,100
1,31,97,28
1,19,127,28
1,31,97,100
1,31,97,28
1,26,127,28
1,38,97,100
1,38,97,28
1,26,127,28
1,38,97,4
1,38,97,28
1,38,97,28
1,21,127,28
1,33,97,100
1,33,97,28
1,21,127,28
1,33,97,100
1,33,97,28
1,23,127,28
1,35,97,100
1,35,97,28
1,23,127,28
1,35,97,4
1,35,97,28
1,35,97,28
1,19,127,28
1,31,97,100
1,31,97,28
1,19,127,28
1,31,97,100
1,31,97,28
1,26,127,28
1,38,97,100
1,38,97,28
1,26,127,28
1,38,97,4
1,38,97,28
1,38,97,28
1,21,127,28
1,33,97,100
1,33,97,28
1,21,127,28
1,33,97,100
1,33,97,28
1,23,127,28
1,35,97,100
1,35,97,28
1,23,127,28
1,35,97,4
1,35,97,28
1,35,97,28
1,19,127,28
1,31,97,100
1,31,97,28
1,19,127,28
1,31,97,100
1,31,97,28
1,26,127,28
1,38,97,100
1,38,97,28
1,26,127,28
1,38,97,4
1,38,97,28
1,38,97,28
1,21,127,28
1,33,97,100
1,33,97,28
1,21,127,28
1,33,97,100
1,33,97,28
1,23,127,28
1,35,107,100
1,35,107,28
1,23,127,28
1,35,107,100
1,35,107,28
1,23,127,28
1,35,107,100
1,35,107,28
1,23,127,28
1,35,107,100
1,35,107,28
1,23,127,28
1,35,107,100
1,35,107,28
1,23,127,28
1,35,107,100
1,35,107,28
1,23,127,28
1,35,107,100
1,35,107,28
1,23,127,28
1,35,107,100
1,35,107,28
1,19,127,40
1,31,107,124
1,31,107,28
1,19,127,28
1,31,107,124
1,31,107,28
1,19,127,28
1,31,107,124
1,31,107,28
1,19,127,28
1,31,107,124
1,31,107,28
1,21,127,28
1,33,107,124
1,33,107,28
1,21,127,28
1,33,107,124
1,33,107,28
1,21,127,28
1,33,107,124
1,33,107,28
1,21,127,28
1,33,107,124
1,33,107,28
1,23,127,28
1,35,77,100
1,35,77,28
1,23,127,28
1,35,77,100
1,35,77,28
1,23,127,28
1,35,77,100
1,35,77,28
1,23,127,28
1,35,77,100
1,35,77,28
1,23,127,28
1,35,77,100
1,35,77,28
1,23,127,28
1,35,77,100
1,35,77,28
1,23,127,28
1,33,107,100
1,33,107,28
1,33,106,28
1,33,105,28
1,33,105,28
1,33,104,28
1,23,127,28
1,35,77,100
1,35,77,28
1,23,127,28
1,35,77,100
1,35,77,28
1,23,127,28
1,35,77,100
1,35,77,28
1,23,127,28
1,35,77,100
1,35,77,28
1,23,127,28
1,35,77,100
1,35,77,28
1,23,127,28
1,35,77,100
1,35,77,28
1,23,127,28
1,33,107,100
1,33,107,28
1,33,106,28
1,33,105,28
1,33,105,28
1,33,104,28
1,23,127,28
1,35,77,100
1,35,77,28
1,23,127,28
1,35,77,100
1,35,77,28
1,23,127,28
1,35,77,100
1,35,77,28
1,23,127,28
1,35,77,100
1,35,77,28
1,23,127,28
1,35,77,100
1,35,77,28
1,23,127,28
1,35,77,100
1,35,77,28
1,23,127,28
1,33,107,100
1,33,107,28
1,33,106,28
1,33,105,28
1,33,105,28
1,33,104,28
1,23,127,28
1,35,77,100
1,35,77,28
1,23,127,28
1,35,77,100
1,35,77,28
1,23,127,28
1,35,77,100
1,35,77,28
1,23,127,28
1,35,77,100
1,35,77,28
1,23,127,28
1,35,77,100
1,35,77,28
1,23,127,28
1,35,77,100
1,35,77,28
1,23,127,28
1,33,107,100
1,33,107,28
1,33,106,28
1,33,105,28
1,33,105,28
1,33,104,28
1,23,127,28
1,35,97,100
1,35,97,28
1,23,127,28
1,35,97,4
1,35,97,28
1,35,97,28
1,19,127,28
1,31,97,100
1,31,97,28
1,19,127,28
1,31,97,100
1,31,97,28
1,26,127,28
1,38,97,100
1,38,97,28
1,26,127,28
1,38,97,4
1,38,97,28
1,38,97,28
1,21,127,28
1,33,97,100
1,33,97,28
1,21,127,28
1,33,97,100
1,33,97,28
1,23,127,28
1,35,97,100
1,35,97,28
1,23,127,28
1,35,97,4
1,35,97,28
1,35,97,28
1,19,127,28
1,31,97,100
1,31,97,28
1,19,127,28
1,31,97,100
1,31,97,28
1,26,127,28
1,38,97,100
1,38,97,28
1,26,127,28
1,38,97,4
1,38,97,28
1,38,97,28
1,21,127,28
1,33,97,100
1,33,97,28
1,21,127,28
1,33,97,100
1,33,97,28
1,23,127,28
1,35,97,100
1,35,97,28
1,23,127,28
1,35,97,4
1,35,97,28
1,35,97,28
1,19,127,28
1,31,97,100
1,31,97,28
1,19,127,28
1,31,97,100
1,31,97,28
1,26,127,28
1,38,97,100
1,38,97,28
1,26,127,28
1,38,97,4
1,38,97,28
1,38,97,28
1,21,127,28
1,33,97,100
1,33,97,28
1,21,127,28
1,33,97,100
1,33,97,28
1,23,127,3100
1,35,97,100
1,35,97,28
1,23,127,28
1,35,97,4
1,35,97,28
1,35,97,28
1,19,127,28
1,31,97,100
1,31,97,28
1,19,127,28
1,31,97,100
1,31,97,28
1,26,127,28
1,38,97,100
1,38,97,28
1,26,127,28
1,38,97,4
1,38,97,28
1,38,97,28
1,21,127,28
1,33,97,100
1,33,97,28
1,21,127,28
1,33,97,100
1,33,97,28
1,23,127,40
1,35,97,100
1,35,97,28
1,23,127,28
1,35,97,4
1,35,97,28
1,35,97,28
1,19,127,28
1,31,97,100
1,31,97,28
1,19,127,28
1,31,97,100
1,31,97,28
1,26,127,28
1,38,97,100
1,38,97,28
1,26,127,28
1,38,97,4
1,38,97,28
1,38,97,28
1,21,127,28
1,33,97,100
1,33,97,28
1,21,127,28
1,33,97,100
1,33,97,28
1,23,127,28
1,35,97,100
1,35,97,28
1,23,127,28
1,35,97,4
1,35,97,28
1,35,97,28
1,19,127,28
1,31,97,100
1,31,97,28
1,19,127,28
1,31,97,100
1,31,97,28
1,26,127,28
1,38,97,100
1,38,97,28
1,26,127,28
1,38,97,4
1,38,97,28
1,38,97,28
1,21,127,28
1,33,97,100
1,33,97,28
1,21,127,28
1,33,97,100
1,33,97,28
1,23,127,28
1,35,97,100
1,35,97,28
1,23,127,28
1,35,97,4
1,35,97,28
1,35,97,28
1,19,127,28
1,31,97,100
1,31,97,28
1,19,127,28
1,31,97,100
1,31,97,28
1,26,127,28
1,38,97,100
1,38,97,28
1,26,127,28
1,38,97,4
1,38,97,28
1,38,97,28
1,21,127,28
1,33,97,100
1,33,97,28
1,21,127,28
1,33,97,100
1,33,97,28
1,35,66,3100
1,35,39,4
1,35,45,4
1,35,52,4
1,35,59,4
1,38,60,100
1,35,66,100
1,35,39,4
1,35,45,4
1,35,52,100
1,35,59,4
1,35,60,4
1,35,66,100
1,35,39,4
1,35,45,4
1,35,52,100
1,35,59,4
1,35,60,4
1,35,66,100
1,35,39,4
1,35,45,4
1,35,52,100
1,35,59,4
1,35,60,4
1,35,66,100
1,35,39,4
1,35,45,4
1,35,52,4
1,35,59,4
1,38,60,100
1,35,66,100
1,35,39,4
1,35,45,4
1,35,52,100
1,35,59,4
1,35,60,4
1,35,66,100
1,35,39,4
1,35,45,4
1,35,52,100
1,35,59,4
1,35,60,4
1,35,66,100
1,35,39,4
1,35,45,4
1,35,52,100
1,35,59,4
1,35,60,4
1,35,66,100
1,35,39,4
1,35,45,4
1,35,52,4
1,35,59,4
1,38,60,100
1,35,66,100
1,35,39,4
1,35,45,4
1,35,52,100
1,35,59,4
1,35,60,4
1,35,66,100
1,35,39,4
1,35,45,4
1,35,52,100
1,35,59,4
1,35,60,4
1,35,66,100
1,35,39,4
1,35,45,4
1,35,52,100
1,35,59,4
1,35,60,4
1,35,66,100
1,35,39,4
1,35,45,4
1,35,52,4
1,35,59,4
1,38,60,100
1,35,66,100
1,35,39,4
1,35,45,4
1,35,59,100
1,35,59,4
1,35,60,4
1,47,32,2
1,35,82,60
1,23,127,192
1,35,107,100
1,35,107,28
1,23,127,28
1,35,107,100
1,35,107,28
1,23,127,28
1,35,107,100
1,35,107,28
1,23,127,28
1,35,107,100
1,35,107,28
1,23,127,30
1,35,107,124
1,35,107,28
1,23,127,28
1,35,107,124
1,35,107,28
1,23,127,28
1,35,107,124
1,35,107,28
1,23,127,28
1,35,107,124
1,35,107,28
1,19,127,28
1,31,107,124
1,31,107,28
1,19,127,28
1,31,107,124
1,31,107,28
1,19,127,28
1,31,107,124
1,31,107,28
1,19,127,28
1,31,107,124
1,31,107,28
1,21,127,28
1,33,107,124
1,33,107,28
1,21,127,28
1,33,107,124
1,33,107,28
1,21,127,28
1,33,107,124
1,33,107,28
1,21,127,28
1,33,107,124
1,33,107,28
1,23,127,28
1,35,97,100
1,35,97,28
1,23,127,28
1,35,97,4
1,35,97,28
1,35,97,28
1,19,127,28
1,31,97,100
1,31,97,28
1,19,127,28
1,31,97,100
1,31,97,28
1,26,127,28
1,38,97,100
1,38,97,28
1,26,127,28
1,38,97,4
1,38,97,28
1,38,97,28
1,21,127,28
1,33,97,100
1,33,97,28
1,21,127,28
1,33,97,100
1,33,97,28
1,23,127,40
1,35,97,100
1,35,97,28
1,23,127,28
1,35,97,4
1,35,97,28
1,35,97,28
1,19,127,28
1,31,97,100
1,31,97,28
1,19,127,28
1,31,97,100
1,31,97,28
1,26,127,28
1,38,97,100
1,38,97,28
1,26,127,28
1,38,97,4
1,38,97,28
1,38,97,28
1,21,127,28
1,33,97,100
1,33,97,28
1,21,127,28
1,33,97,100
1,33,97,28
1,23,127,28
1,35,97,100
1,35,97,28
1,23,127,28
1,35,97,4
1,35,97,28
1,35,97,28
1,19,127,28
1,31,97,100
1,31,97,28
1,19,127,28
1,31,97,100
1,31,97,28
1,26,127,28
1,38,97,100
1,38,97,28
