track,note,velocity,time
1,22,74,8796
1,34,74,0
1,21,74,4
1,33,74,0
1,26,74,4
1,38,74,0
1,22,74,4
1,34,74,0
1,21,74,4
1,33,74,0
1,26,74,4
1,38,74,0
1,22,74,4
1,34,74,0
1,21,74,4
1,33,74,0
1,26,74,4
1,38,74,0
1,22,74,4
1,34,74,0
1,21,74,4
1,33,74,0
1,26,74,4
1,38,74,0
1,22,74,4
1,34,74,0
1,24,74,4
1,36,74,0
1,26,74,4
1,38,74,0
1,31,74,4
1,31,74,4
1,31,74,4
1,31,74,4
1,22,74,4
1,34,74,0
1,21,74,4
1,33,74,0
1,26,74,4
1,38,74,0
1,22,74,4
1,34,74,0
1,21,74,4
1,33,74,0
1,26,74,4
1,38,74,0
1,22,74,4
1,34,74,0
1,21,74,4
1,33,74,0
1,26,74,4
1,38,74,0
1,22,74,4
1,34,74,0
1,24,74,4
1,36,74,0
1,26,74,4
1,38,74,0
1,31,74,4
1,31,74,4
1,31,74,4
1,31,74,4
1,31,74,4
1,34,74,4
1,36,74,4
1,38,74,4
1,31,74,4
1,34,74,4
1,36,74,4
1,29,74,4
1,41,74,0
1,31,74,4
1,34,74,4
1,36,74,4
1,38,74,4
1,31,74,4
1,34,74,4
1,36,74,4
1,26,74,4
1,38,74,0
1,31,74,4
1,31,74,4
1,31,74,4
1,31,74,4
1,64,70,27076
1,62,70,4
1,60,70,4
1,57,70,4
1,69,70,1156
1,67,70,4
1,65,70,4
1,67,70,4
1,69,70,388
1,72,70,4
1,74,70,0
1,69,70,4
1,72,70,4
1,74,70,4
1,34,74,1536
1,33,74,4
1,29,74,4
1,26,74,4
1,31,74,4
1,34,74,4
1,33,74,4
1,29,74,4
1,26,74,4
1,31,74,4
1,34,74,4
1,33,74,4
1,29,74,4
1,26,74,4
1,31,74,4
1,34,74,4
1,33,74,4
1,29,74,4
1,26,74,4
1,24,74,4
1,24,74,4
1,24,74,4
1,24,74,4
1,24,74,4
1,24,74,4
1,24,74,4
1,24,74,4
1,26,74,4
1,26,74,4
1,31,74,4
1,31,74,4
1,31,74,4
1,31,74,4
1,31,74,4
1,31,74,4
1,31,74,4
1,31,74,4
1,31,74,4
1,31,74,4
1,31,74,4
1,31,74,4
1,31,74,4
1,31,74,4
1,31,74,4
1,31,74,4
1,31,74,4
1,31,74,4
2,46,49,8776
2,45,49,4
2,46,49,4
2,45,49,4
2,46,49,4
2,45,49,4
2,46,49,4
2,45,49,4
2,46,49,4
2,48,49,4
2,50,49,4
2,57,35,4
2,60,35,0
2,55,35,4
2,59,35,0
2,57,35,4
2,60,35,0
2,55,35,4
2,59,35,0
2,46,49,4
2,45,49,4
2,46,49,4
2,45,49,4
2,46,49,4
2,45,49,4
2,46,49,4
2,48,49,4
2,50,49,4
2,57,35,4
2,60,35,0
2,81,25,0
2,55,35,4
2,59,35,0
2,79,25,0
2,57,35,4
2,60,35,0
2,81,25,0
2,55,35,4
2,59,35,0
2,79,25,0
2,58,45,4
2,62,45,0
2,74,25,0
2,57,45,4
2,60,45,0
2,72,25,0
2,58,45,4
2,62,45,0
2,74,25,0
2,57,45,4
2,60,45,0
2,72,25,0
2,65,45,4
2,58,45,4
2,62,45,0
2,74,25,0
2,57,45,4
2,60,45,0
2,72,25,0
2,58,45,4
2,62,45,0
2,74,25,0
2,57,45,4
2,60,45,0
2,72,25,0
2,66,45,4
2,74,25,0
2,57,35,4
2,60,35,0
2,81,25,0
2,55,35,4
2,59,35,0
2,79,25,0
2,57,35,4
2,60,35,0
2,81,25,0
2,55,35,4
2,59,35,0
2,79,25,0
2,50,55,100
2,46,55,4
2,48,55,4
2,45,55,4
2,43,55,4
2,38,55,4
2,38,65,96
2,62,45,0
2,65,45,0
2,72,55,96
2,70,55,4
2,67,45,4
2,71,55,0
2,64,45,4
2,72,55,0
2,62,45,4
2,65,45,0
2,70,55,4
2,64,45,4
2,67,45,0
2,72,55,0
2,62,45,4
2,65,45,0
2,69,55,0
2,72,55,4
2,70,55,4
2,67,45,4
2,71,55,0
2,64,45,4
2,72,55,0
2,62,45,4
2,65,45,0
2,70,55,4
2,64,45,4
2,67,45,0
2,72,55,0
2,62,45,4
2,72,55,0
2,74,45,0
2,62,50,4
2,65,50,0
2,70,50,0
2,74,50,0
2,77,50,0
2,82,50,0
2,60,50,4
2,64,50,0
2,69,50,0
2,72,50,0
2,76,50,0
2,81,50,0
2,65,50,4
2,77,50,0
2,64,50,4
2,67,50,0
2,74,50,0
2,79,50,0
2,59,50,4
2,62,50,0
2,71,50,0
2,62,50,4
2,65,50,0
2,70,50,0
2,74,50,0
2,77,50,0
2,82,50,0
2,60,50,4
2,64,50,0
2,69,50,0
2,72,50,0
2,76,50,0
2,81,50,0
2,65,50,4
2,77,50,0
2,64,50,4
2,67,50,0
2,74,50,0
2,79,50,0
2,59,50,4
2,62,50,0
2,71,50,0
2,62,50,4
2,65,50,0
2,70,50,0
2,74,50,0
2,77,50,0
2,82,50,0
2,60,50,4
2,64,50,0
2,69,50,0
2,72,50,0
2,76,50,0
2,81,50,0
2,65,50,4
2,77,50,0
2,60,50,4
2,62,50,0
2,67,50,0
2,72,50,0
2,74,50,0
2,79,50,0
2,59,50,4
2,71,50,0
2,62,50,4
2,65,50,0
2,70,50,0
2,74,50,0
2,77,50,0
2,82,50,0
2,60,50,4
2,64,50,0
2,69,50,0
2,72,50,0
2,76,50,0
2,81,50,0
2,65,50,4
2,77,50,0
2,58,50,4
2,62,50,0
2,65,50,0
2,70,50,0
2,74,50,0
2,77,50,0
2,57,50,4
2,60,50,0
2,64,50,0
2,69,50,0
2,72,50,0
2,76,50,0
2,58,50,4
2,62,50,0
2,65,50,0
2,70,50,0
2,74,50,0
2,77,50,0
2,67,50,4
2,79,50,0
2,60,50,4
2,64,50,0
2,69,50,0
2,72,50,0
2,76,50,0
2,81,50,0
2,58,50,4
2,62,50,0
2,65,50,0
2,70,50,0
2,74,50,0
2,77,50,0
2,57,50,4
2,60,50,0
2,64,50,0
2,69,50,0
2,72,50,0
2,76,50,0
2,58,50,4
2,62,50,0
2,65,50,0
2,70,50,0
2,74,50,0
2,77,50,0
2,67,50,4
2,79,50,0
2,60,50,4
2,64,50,0
2,69,50,0
2,72,50,0
2,76,50,0
2,81,50,0
2,38,70,4
2,62,50,0
2,69,50,0
2,72,50,0
2,81,50,0
2,57,60,4
2,60,60,0
2,65,60,0
2,69,60,0
2,81,50,0
2,55,60,4
2,59,60,0
2,64,60,0
2,67,60,0
2,79,50,0
2,57,60,4
2,60,60,0
2,65,60,0
2,69,60,0
2,81,50,0
2,55,60,4
2,59,60,0
2,64,60,0
2,67,60,0
2,79,50,0
2,60,60,4
2,65,60,0
2,69,60,0
2,81,50,0
2,84,60,0
2,59,60,4
2,64,60,0
2,67,60,0
2,79,50,0
2,83,60,0
2,60,60,4
2,65,60,0
2,69,60,0
2,81,50,0
2,84,60,0
2,59,60,4
2,64,60,0
2,67,60,0
2,79,50,0
2,83,60,0
2,60,60,4
2,65,60,0
2,69,60,0
2,81,50,0
2,84,60,0
2,59,60,4
2,64,60,0
2,67,60,0
2,79,50,0
2,83,60,0
2,60,60,4
2,65,60,0
2,69,60,0
2,81,50,0
2,84,60,0
2,59,60,4
2,64,60,0
2,67,60,0
2,79,50,0
2,83,60,0
2,60,60,4
2,65,60,0
2,69,60,0
2,81,50,0
2,84,60,0
2,59,60,4
2,64,60,0
2,67,60,0
2,79,50,0
2,83,60,0
2,60,60,0
2,65,60,0
2,69,60,0
2,81,50,0
2,84,60,0
2,59,60,0
2,64,60,0
2,67,60,0
2,79,50,0
2,83,60,0
2,60,60,0
2,65,60,0
2,69,60,0
2,81,50,0
2,84,60,0
2,59,60,0
2,64,60,0
2,67,60,0
2,79,50,0
2,83,60,0
3,60,106,2016
3,62,126,12
3,60,106,12
3,62,126,12
3,62,126,12
3,60,106,12
3,62,126,12
3,62,126,12
3,60,106,12
3,64,126,0
3,62,126,12
3,57,94,0
3,62,126,1712
3,60,106,12
3,64,126,0
3,62,126,24
3,62,126,1432
3,60,106,12
3,62,126,12
3,62,126,12
3,60,106,12
3,62,126,12
3,62,126,12
3,60,106,12
3,64,126,0
3,62,126,24
3,57,94,0
3,62,126,0
3,62,126,40
3,60,126,12
3,64,126,12
3,62,126,0
3,57,94,0
3,62,126,972
3,60,106,12
3,62,126,12
3,62,126,12
3,62,126,12
3,62,126,204
3,62,106,12
3,62,126,108
3,62,94,396
3,62,126,12
3,62,106,12
3,64,126,0
3,55,94,1164
3,64,126,12
3,64,106,12
3,64,106,12
3,64,126,12
3,64,126,12
3,62,126,12
3,66,126,396
3,64,126,12
3,62,126,192
3,62,106,12
3,69,126,12
3,62,106,204
3,65,126,12
3,62,106,204
3,69,126,12
3,69,126,396
3,67,126,12
3,62,94,876
3,62,126,12
3,62,106,12
3,65,126,12
3,67,106,12
3,69,126,0
3,62,106,368
3,69,126,12
3,62,106,204
3,65,126,12
3,62,106,204
3,69,126,12
3,69,126,396
3,67,126,12
3,60,94,6576
3,62,126,12
3,60,106,12
3,62,126,12
3,62,126,12
3,60,106,12
3,62,126,12
3,62,126,12
3,60,106,12
3,64,126,0
3,62,126,12
3,57,94,0
3,62,126,192
3,62,106,12
3,64,126,0
3,62,126,12
3,62,126,1436
3,60,106,12
3,62,126,12
3,60,106,12
3,62,126,12
3,62,126,12
3,60,94,108
3,62,126,12
3,62,106,12
3,62,126,12
3,62,126,12
3,62,126,12
3,60,106,12
3,64,126,0
3,62,126,12
3,57,94,0
3,60,94,1068
3,62,126,12
3,60,106,12
3,62,126,12
3,60,106,12
3,64,126,12
3,60,126,0
3,57,94,12
3,60,94,876
3,62,126,12
3,60,106,12
3,62,126,12
3,62,126,12
3,60,126,12
3,62,126,12
3,62,126,204
3,60,106,12
3,62,126,12
3,62,106,12
3,62,126,12
3,62,126,0
3,60,106,12
3,64,126,0
3,55,94,588
3,64,126,12
3,64,126,12
3,64,106,12
3,64,106,12
3,64,126,12
3,64,126,12
3,64,126,12
3,66,126,0
3,64,126,12
3,62,126,192
3,62,106,12
3,69,126,12
3,62,106,204
3,65,126,12
3,62,106,204
3,69,126,12
3,69,126,396
3,67,126,12
3,62,94,876
3,62,126,12
3,62,106,12
3,65,126,12
3,67,106,12
3,69,126,0
3,62,106,368
3,69,126,12
3,62,106,204
3,65,126,12
3,62,106,204
3,69,126,12
3,69,126,396
3,67,126,12
3,62,106,1740
3,62,126,12
3,65,106,12
3,65,126,12
3,62,106,12
3,69,126,12
3,69,106,12
3,67,126,12
3,69,106,12
3,65,106,492
3,67,126,12
3,67,126,108
3,65,106,12
3,67,106,12
3,69,126,0
3,60,94,292
3,62,126,12
3,65,106,12
3,65,126,12
3,62,106,12
3,69,126,0
3,69,106,12
3,67,126,12
3,69,106,12
3,62,94,588
3,67,126,12
3,65,106,12
3,67,126,12
3,65,106,12
3,67,106,12
3,67,126,12
3,65,94,12
3,60,106,12
3,62,106,12
3,62,126,2508
3,64,126,0
3,65,126,0
3,62,106,12
3,69,106,0
3,67,126,0
3,67,106,96
3,65,126,12
3,67,106,12
3,69,126,0
3,62,106,20
3,62,106,12
3,65,126,108
3,62,126,12
3,69,106,12
3,67,126,12
3,67,126,396
3,66,106,12
3,67,126,12
3,67,126,12
3,67,126,0
3,69,126,12
3,62,106,384
3,69,126,12
3,62,106,204
3,65,126,12
3,62,106,204
3,69,126,12
3,69,126,396
3,67,126,12
3,62,94,876
3,62,126,12
3,62,106,12
3,65,126,12
3,67,106,12
3,69,126,0
3,62,106,368
3,69,126,12
3,62,106,204
3,65,126,12
3,62,106,204
3,69,126,12
3,69,126,396
3,67,126,12
3,62,94,192
3,69,126,12
3,69,126,60
3,69,126,60
3,67,106,12
3,65,126,12
3,69,106,12
3,69,106,12
3,69,126,12
3,67,106,12
3,64,126,0
3,64,106,480
3,64,126,12
3,65,126,12
3,60,106,12
3,60,126,12
3,64,126,12
3,67,126,12
3,69,126,0
3,67,126,12
3,62,94,0
3,62,94,1408
3,69,126,12
3,69,126,60
3,69,126,60
3,67,106,12
3,65,126,12
3,69,126,12
3,67,126,12
3,65,106,12
3,69,126,0
3,67,126,12
3,64,126,192
3,65,126,12
3,60,106,12
3,60,126,12
3,64,126,12
3,67,106,492
3,69,106,12
3,67,126,12
3,60,94,1068
3,70,126,12
3,69,126,12
3,65,126,12
3,67,126,0
3,67,126,12
3,60,106,192
3,62,126,12
3,62,106,12
3,65,126,12
3,65,106,12
3,70,126,204
3,69,106,12
3,67,126,12
3,65,126,12
3,62,126,12
3,60,126,12
3,65,106,0
3,65,106,12
3,65,106,108
3,64,126,12
3,60,106,0
3,60,126,12
3,67,126,0
3,65,126,0
3,65,106,108
3,62,126,0
3,57,106,96
3,60,126,12
3,57,94,12
3,60,106,192
3,60,126,108
3,62,106,12
3,62,126,12
3,65,106,12
3,67,126,12
3,69,106,12
3,65,126,0
3,69,126,0
3,70,126,12
3,67,126,0
3,60,106,96
3,62,126,12
3,65,106,12
3,69,126,12
3,69,126,492
3,69,126,108
3,69,126,12
3,69,126,12
3,69,126,12
3,62,126,192
3,62,106,12
3,69,126,12
3,62,106,204
3,65,126,12
3,62,106,204
3,69,126,12
3,69,126,396
3,67,126,12
3,62,94,876
3,62,126,12
3,62,106,12
3,65,126,12
3,67,106,12
3,69,126,0
3,62,106,368
3,69,126,12
3,62,106,204
3,65,126,12
3,62,106,204
3,69,126,12
3,69,126,396
3,67,126,12
3,62,106,384
3,69,126,12
3,62,106,204
3,65,126,12
3,62,106,204
3,69,126,12
3,69,126,396
3,67,126,12
3,62,106,384
3,69,126,12
3,62,106,204
3,65,126,12
3,62,106,204
3,69,126,12
3,69,126,396
3,67,126,12
3,62,106,384
3,69,126,12
3,62,106,204
3,65,126,12
3,62,106,204
3,69,126,12
3,69,126,396
3,67,126,12
3,62,106,384
3,69,126,12
3,62,106,204
3,65,126,12
3,62,106,204
3,69,126,12
3,69,126,396
3,67,126,12
3,62,106,384
3,69,126,12
3,62,106,204
3,65,126,12
3,62,106,204
3,69,126,12
3,69,126,396
3,67,126,12
3,62,106,0
3,69,126,0
3,62,106,0
3,65,126,0
3,62,106,0
3,69,126,0
3,69,126,0
3,67,126,0
3,62,106,0
3,69,126,0
3,62,106,0
3,65,126,0
3,62,106,0
3,69,126,0
3,69,126,0
3,67,126,0
4,58,64,8736
4,62,64,0
4,57,64,4
4,58,64,4
4,62,64,0
4,57,64,4
4,58,64,4
4,62,64,0
4,57,64,4
4,58,64,4
4,62,64,0
4,57,64,4
4,58,64,4
4,62,64,0
4,60,64,4
4,64,64,0
4,62,64,4
4,66,64,0
4,65,60,4
4,69,50,0
4,72,50,0
4,64,60,4
4,67,50,0
4,71,50,0
4,65,60,4
4,69,50,0
4,72,50,0
4,64,60,4
4,67,50,0
4,71,50,0
4,58,64,4
4,62,64,0
4,57,64,4
4,58,64,4
4,62,64,0
4,57,64,4
4,58,64,4
4,62,64,0
4,57,64,4
4,58,64,4
4,62,64,0
4,60,64,4
4,64,64,0
4,62,64,4
4,66,64,0
4,65,60,4
4,69,60,0
4,72,60,0
4,64,60,4
4,67,60,0
4,71,60,0
4,65,60,4
4,69,60,0
4,72,60,0
4,64,60,4
4,67,60,0
4,71,60,0
4,65,60,4
4,69,60,0
4,64,60,4
4,67,60,0
4,65,60,4
4,69,60,0
4,64,60,4
4,67,60,0
4,65,60,4
4,69,60,0
4,65,60,4
4,69,60,0
4,64,60,4
4,67,60,0
4,65,60,4
4,69,60,0
4,64,60,4
4,67,60,0
4,66,60,4
4,69,60,0
4,65,60,4
4,69,60,0
4,72,60,0
4,64,60,4
4,67,60,0
4,71,60,0
4,65,60,4
4,69,60,0
4,72,60,0
4,64,60,4
4,67,60,0
4,71,60,0
4,62,17,0
4,69,17,36
4,74,17,0
4,81,17,36
4,65,17,0
4,72,17,36
4,77,17,0
4,84,17,36
4,62,17,0
4,69,17,36
4,74,17,0
