track,note,velocity,time
1,64,100,360
1,64,0,120
1,45,100,0
1,62,100,0
1,62,0,120
1,61,100,0
1,61,0,120
1,45,0,0
1,47,100,0
1,62,100,0
1,62,0,120
1,64,100,0
1,64,0,120
1,47,0,0
1,49,100,0
1,69,100,0
1,49,0,240
1,45,100,0
1,74,100,0
1,74,0,60
1,69,0,60
1,73,100,0
1,73,0,60
1,71,100,60
1,62,127,232
1,66,127,3
1,71,127,2
1,71,0,3
1,45,0,0
1,45,100,0
1,45,0,240
1,71,0,0
1,44,100,0
1,64,100,0
1,62,0,4
1,66,0,1
1,52,100,55
1,64,0,60
1,59,100,0
1,52,0,60
1,54,100,0
1,59,0,60
1,44,0,0
1,44,100,0
1,64,100,0
1,54,0,60
1,54,100,0
1,64,0,60
1,59,100,0
1,59,0,120
1,54,0,0
1,44,0,0
1,42,127,0
1,69,127,0
1,57,127,60
1,57,0,59
1,62,127,1
1,69,0,59
1,50,127,1
1,66,127,0
1,66,0,59
1,62,0,0
1,50,0,1
1,42,0,0
1,44,127,0
1,64,127,0
1,52,127,60
1,64,0,59
1,59,127,1
1,52,0,60
1,50,127,0
1,59,0,59
1,50,0,1
1,44,0,0
1,40,127,0
1,68,127,0
1,56,127,60
1,56,0,60
1,61,127,0
1,61,0,60
1,59,127,0
1,54,127,50
1,66,127,3
1,61,127,0
1,59,0,7
1,40,0,0
1,68,0,0
1,69,127,3
1,69,0,237
1,61,0,0
1,66,0,0
1,54,0,0
1,68,127,0
1,61,127,2
1,54,127,1
1,68,0,17
1,69,127,0
1,69,0,20
1,68,127,0
1,68,0,20
1,66,127,0
1,50,127,174
1,61,127,3
1,66,127,1
1,66,0,2
1,69,127,0
1,61,0,2
1,54,0,1
1,61,0,57
1,66,0,0
1,69,0,0
1,71,127,0
1,71,0,60
1,69,127,0
1,69,0,60
1,73,127,0
1,73,0,60
1,50,0,0
1,71,127,0
1,68,127,7
1,64,127,3
1,50,127,3
1,71,0,107
1,76,127,0
1,68,0,7
1,64,0,3
1,50,0,3
1,76,0,47
1,74,127,0
1,74,0,60
1,45,127,0
1,74,127,0
1,74,0,60
1,73,127,0
1,73,0,60
1,59,127,0
1,59,0,60
1,62,127,0
1,62,0,60
1,45,0,0
1,45,127,0
1,62,127,0
1,62,0,120
1,61,127,0
1,61,0,120
1,45,0,0
1,49,127,0
1,62,127,0
1,62,0,120
1,64,127,0
1,64,0,120
1,49,0,0
1,69,127,0
1,49,127,0
1,49,0,240
1,45,127,0
1,69,0,120
1,74,127,0
1,74,0,60
1,73,127,0
1,73,0,60
1,71,127,0
1,45,127,227
1,62,127,6
1,66,127,0
1,71,0,7
1,45,0,0
1,71,127,0
1,71,0,240
1,66,0,0
1,45,0,0
1,62,0,0
1,44,127,0
1,64,127,60
1,52,127,60
1,64,0,60
1,59,127,0
1,59,0,60
1,44,0,0
1,44,127,0
1,59,127,0
1,59,0,60
1,64,127,0
1,52,0,60
1,52,127,0
1,64,0,60
1,59,127,0
1,59,0,60
1,52,0,0
1,44,0,0
1,43,127,0
1,64,127,0
1,52,127,60
1,64,0,60
1,59,127,0
1,59,0,60
1,64,127,0
1,64,0,60
1,52,0,0
1,43,0,0
1,42,127,0
1,58,127,0
1,67,127,60
1,67,0,60
1,58,0,0
1,42,0,0
1,46,127,0
1,66,127,0
1,66,0,60
1,64,127,0
1,64,0,60
1,46,0,0
1,66,127,0
1,51,127,0
1,66,0,60
1,59,127,0
1,59,0,60
1,60,127,0
1,60,0,60
1,59,127,0
1,59,0,60
1,51,0,0
1,66,127,0
1,45,127,0
1,66,0,60
1,59,127,0
1,59,0,60
1,45,0,0
1,60,127,0
1,42,127,0
1,60,0,60
1,59,127,0
1,59,0,60
1,42,0,0
1,40,127,0
1,59,127,120
1,67,127,0
1,67,0,120
1,59,0,0
1,59,127,0
1,67,127,0
1,67,0,80
1,59,0,0
1,69,127,0
1,60,127,0
1,60,0,80
1,69,0,0
1,59,127,0
1,67,127,0
1,67,0,80
1,59,0,0
1,40,0,0
1,40,127,0
1,63,127,120
1,54,127,0
1,54,0,120
1,63,0,0
1,57,127,0
1,66,127,0
1,66,0,120
1,57,0,0
1,57,127,0
1,66,127,0
1,66,0,90
1,57,0,0
1,59,127,0
1,59,0,30
1,40,0,0
1,40,127,0
1,59,127,120
1,67,127,0
1,67,0,120
1,59,0,0
1,59,127,0
1,67,127,0
1,67,0,80
1,59,0,0
1,69,127,0
1,60,127,0
1,60,0,80
1,69,0,0
1,59,127,0
1,67,127,0
1,67,0,80
1,59,0,0
1,40,0,0
1,40,127,0
1,63,127,120
1,54,127,0
1,54,0,120
1,63,0,0
1,57,127,0
1,66,127,0
1,66,0,120
1,57,0,0
1,57,127,0
1,66,127,0
1,66,0,90
1,57,0,0
1,59,127,0
1,59,0,30
1,40,0,0
1,64,127,0
1,40,127,0
1,64,0,60
1,59,127,0
1,59,0,60
1,66,127,0
1,66,0,60
1,64,127,0
1,64,0,60
1,40,0,0
1,64,127,0
1,55,127,0
1,64,0,60
1,59,127,0
1,59,0,60
1,66,127,0
1,66,0,60
1,64,127,0
1,64,0,60
1,55,0,0
1,64,127,0
1,40,127,0
1,64,0,60
1,59,127,0
1,59,0,60
1,66,127,0
1,66,0,60
1,64,127,0
1,64,0,60
1,40,0,0
1,64,127,0
1,55,127,0
1,64,0,60
1,59,127,0
1,59,0,60
1,66,127,0
1,66,0,60
1,64,127,0
1,64,0,60
1,55,0,0
1,64,127,0
1,48,127,0
1,64,0,60
1,55,127,0
1,55,0,60
1,66,127,0
1,66,0,60
1,64,127,0
1,64,0,60
1,48,0,0
1,64,127,0
1,55,127,0
1,64,0,60
1,59,127,0
1,59,0,60
1,66,127,0
1,66,0,60
1,64,127,0
1,64,0,60
1,55,0,0
1,64,127,0
1,48,127,0
1,64,0,60
1,55,127,0
1,55,0,60
1,66,127,0
1,66,0,60
1,64,127,0
1,64,0,60
1,48,0,0
1,64,127,0
1,55,127,0
1,64,0,120
1,59,127,0
1,59,0,120
1,55,0,0
1,57,127,0
1,66,127,0
1,66,0,60
1,64,127,0
1,64,0,60
1,57,0,0
1,56,127,0
1,59,127,0
1,59,0,120
1,56,0,0
1,55,127,0
1,71,127,0
1,55,0,120
1,59,127,0
1,59,0,120
1,71,0,0
1,40,127,0
1,76,127,0
1,40,0,120
1,55,127,0
1,55,0,120
1,76,0,0
1,40,127,0
1,71,127,0
1,40,0,120
1,55,127,0
1,71,0,60
1,67,127,0
1,67,0,60
1,55,0,0
1,40,127,0
1,66,127,0
1,66,0,30
1,67,127,0
1,67,0,30
1,66,127,0
1,66,0,30
1,64,127,0
1,64,0,30
1,40,0,0
1,55,127,0
1,66,127,0
1,66,0,30
1,67,127,0
1,67,0,30
1,66,127,0
1,66,0,30
1,64,127,0
1,64,0,30
1,55,0,0
1,40,127,0
1,66,127,0
1,40,0,120
1,55,127,0
1,66,0,60
1,64,127,0
1,64,0,60
1,55,0,0
1,40,127,0
1,76,127,0
1,40,0,120
1,55,127,0
1,55,0,120
1,76,0,0
1,40,127,0
1,71,127,0
1,40,0,120
1,55,127,0
1,71,0,60
1,67,127,0
1,67,0,60
1,55,0,0
1,40,127,0
1,66,127,0
1,66,0,30
1,67,127,0
1,67,0,30
1,66,127,0
1,66,0,30
1,64,127,0
1,64,0,30
1,40,0,0
1,55,127,0
1,66,127,0
1,66,0,30
1,67,127,0
1,67,0,30
1,66,127,0
1,66,0,30
1,64,127,0
1,64,0,30
1,55,0,0
1,40,127,0
1,66,127,0
1,40,0,120
1,55,127,0
1,66,0,60
1,64,127,0
1,64,0,60
1,55,0,0
1,45,127,0
1,69,127,0
1,69,0,30
1,71,127,0
1,71,0,30
1,69,127,0
1,69,0,30
1,64,127,0
1,64,0,30
1,45,0,0
1,69,127,0
1,55,127,0
1,69,0,30
1,71,127,0
1,71,0,30
1,69,127,0
1,69,0,30
1,64,127,0
1,64,0,30
1,55,0,0
1,45,127,0
1,69,127,0
1,45,0,120
1,55,127,0
1,69,0,60
1,64,127,0
1,64,0,60
1,55,0,0
1,45,127,0
1,69,127,0
1,69,0,30
1,71,127,0
1,71,0,30
1,69,127,0
1,69,0,30
1,64,127,0
1,64,0,30
1,45,0,0
1,69,127,0
1,55,127,0
1,69,0,30
1,71,127,0
1,71,0,30
1,69,127,0
1,69,0,30
1,64,127,0
1,64,0,30
1,55,0,0
1,45,127,0
1,69,127,0
1,45,0,120
1,55,127,0
1,69,0,60
1,64,127,0
1,64,0,60
1,55,0,0
1,40,127,0
1,74,127,0
1,74,0,30
1,76,127,0
1,76,0,30
1,74,127,0
1,74,0,60
1,40,0,0
1,55,127,0
1,71,127,0
1,71,0,30
1,73,127,0
1,73,0,30
1,71,127,0
1,71,0,20
1,73,127,0
1,73,0,20
1,71,127,0
1,71,0,20
1,55,0,0
1,40,127,0
1,74,127,0
1,40,0,120
1,55,127,0
1,55,0,120
1,74,0,0
1,40,127,0
1,74,127,0
1,74,0,30
1,76,127,0
1,76,0,30
1,74,127,0
1,74,0,60
1,40,0,0
1,55,127,0
1,71,127,0
1,71,0,30
1,73,127,0
1,73,0,30
1,71,127,0
1,71,0,20
1,73,127,0
1,73,0,20
1,71,127,0
1,71,0,20
1,55,0,0
1,40,127,0
1,74,127,0
1,40,0,120
1,55,127,0
1,55,0,120
1,74,0,0
1,40,127,0
1,67,127,0
1,40,0,120
1,55,127,0
1,67,0,60
1,62,127,0
1,62,0,60
1,66,127,0
1,55,0,120
1,55,127,0
1,66,0,60
1,62,127,0
1,62,0,60
1,66,127,0
1,55,0,120
1,55,127,0
1,66,0,60
1,62,127,0
1,62,0,60
1,66,127,0
1,55,0,120
1,55,127,0
1,55,0,120
1,66,0,0
2,62,100,16320
2,67,100,0
2,67,0,120
2,62,0,0
2,55,100,0
2,55,0,60
2,62,100,0
2,66,100,0
2,66,0,60
2,62,0,0
2,62,100,0
2,66,100,0
2,66,0,120
2,62,0,0
2,55,100,0
2,55,0,60
2,62,100,0
2,62,0,60
2,66,100,0
2,66,0,120
2,55,100,0
2,55,0,60
2,66,100,0
2,66,0,60
2,62,100,0
2,66,100,0
2,66,0,60
2,62,0,0
2,67,100,0
2,67,0,60
2,60,100,0
2,69,100,0
2,67,100,0
2,67,0,60
2,69,0,0
2,60,0,0
2,71,100,0
2,71,0,60
2,60,100,0
2,64,100,0
2,67,100,0
2,67,0,60
2,64,0,0
2,60,0,0
2,60,100,0
2,60,0,60
2,64,100,0
2,64,0,60
2,62,100,0
2,66,100,0
2,66,0,60
2,62,0,0
2,66,100,0
2,66,0,60
2,57,100,0
2,57,0,60
2,62,100,0
2,62,0,60
2,57,100,0
2,57,0,60
2,66,100,0
2,66,0,60
2,55,100,0
2,55,0,120
2,62,100,0
2,62,0,60
2,56,100,0
2,59,100,0
2,64,100,0
2,64,0,120
2,59,0,0
2,56,0,0
2,59,100,0
2,64,100,0
2,68,100,0
2,68,0,120
2,64,0,0
2,59,0,0
2,63,100,0
2,66,100,0
2,71,100,0
2,71,0,180
2,66,0,0
2,63,0,0
2,63,100,0
2,63,0,60
2,64,100,0
2,64,0,120
2,63,100,0
2,63,0,120
2,61,100,0
2,61,0,60
2,68,100,0
2,68,0,60
2,66,100,0
2,66,0,120
2,68,100,60
2,68,0,60
2,73,100,0
2,73,0,120
2,61,100,0
2,57,100,0
2,66,100,0
2,64,100,0
2,64,0,120
2,61,0,0
2,57,0,0
2,66,0,0
2,62,100,0
2,69,100,0
2,66,100,0
2,66,0,120
2,69,0,0
2,62,0,0
2,71,100,0
2,62,100,0
2,66,100,0
2,66,0,60
2,62,0,0
2,71,0,0
2,57,100,0
2,57,0,60
2,62,100,0
2,62,0,60
2,57,100,0
2,57,0,60
2,66,100,0
2,66,0,60
2,57,100,0
2,57,0,60
2,62,100,0
2,62,0,120
2,57,100,0
2,62,100,0
2,66,100,0
2,66,0,120
2,62,0,0
2,57,0,0
2,69,100,0
2,69,0,60
2,73,100,0
2,73,0,60
2,72,100,0
2,63,100,0
2,68,100,0
2,68,0,120
2,63,0,0
2,72,0,0
2,68,100,0
2,59,100,120
2,64,100,0
2,64,0,120
2,59,0,0
2,68,0,0
2,71,100,0
2,71,0,60
2,75,100,0
2,75,0,60
2,65,100,0
2,70,100,0
2,74,100,0
2,74,0,120
2,70,0,0
2,65,0,0
2,67,100,0
2,67,0,120
2,73,100,0
2,64,100,0
2,69,100,0
2,69,0,240
2,64,0,0
2,73,0,0
2,66,100,0
2,74,100,0
2,66,0,60
2,55,100,0
2,55,0,60
2,62,100,0
2,62,0,120
2,64,100,0
2,64,0,120
2,60,100,0
2,60,0,120
2,66,100,0
2,66,0,60
2,55,100,0
2,55,0,60
2,62,100,0
2,62,0,120
2,64,100,0
2,64,0,120
2,60,100,0
2,60,0,120
2,74,0,0
2,62,100,0
2,67,100,0
2,67,0,120
2,62,0,0
2,55,100,0
2,55,0,60
2,62,100,0
2,66,100,0
2,66,0,60
2,62,0,0
2,62,100,0
2,66,100,0
2,66,0,120
2,62,0,0
2,55,100,0
2,55,0,60
2,62,100,0
2,62,0,60
2,66,100,0
2,66,0,120
2,55,100,0
2,55,0,60
2,66,100,0
2,66,0,60
2,62,100,0
2,66,100,0
2,66,0,60
2,62,0,0
2,67,100,0
2,67,0,60
2,60,100,0
2,69,100,0
2,67,100,0
2,67,0,60
2,69,0,0
2,60,0,0
2,71,100,0
2,71,0,60
2,60,100,0
2,64,100,0
2,67,100,0
2,67,0,60
2,64,0,0
2,60,0,0
2,60,100,0
2,60,0,60
2,64,100,0
2,64,0,60
2,62,100,0
2,66,100,0
2,66,0,60
2,62,0,0
2,66,100,0
2,66,0,60
2,57,100,0
2,57,0,60
2,62,100,0
2,62,0,60
2,57,100,0
2,57,0,60
2,66,100,0
2,66,0,60
2,57,100,0
2,57,0,120
2,62,100,0
2,62,0,60
2,56,100,0
2,59,100,0
2,64,100,0
2,64,0,120
2,59,0,0
2,56,0,0
2,59,100,0
2,64,100,0
2,68,100,0
2,68,0,120
2,64,0,0
2,59,0,0
2,63,100,0
2,66,100,0
2,71,100,0
2,71,0,180
2,66,0,0
2,63,0,0
2,68,100,0
2,68,0,60
2,63,100,0
2,73,100,0
2,68,100,0
2,73,0,60
2,71,100,7
2,68,100,110
2,68,0,3
2,63,0,0
2,71,0,7
2,68,0,50
2,61,100,3
2,69,100,0
2,69,0,60
2,68,100,0
2,68,0,60
2,66,100,0
2,66,0,120
2,61,0,0
2,68,100,60
2,68,0,60
2,73,100,0
2,73,0,120
2,61,100,0
2,57,100,0
2,64,100,0
2,66,100,0
2,66,0,120
2,61,0,0
2,57,0,0
2,64,0,0
2,62,100,0
2,69,100,0
2,66,100,0
2,66,0,120
2,69,0,0
2,62,0,0
2,66,100,0
2,66,0,60
2,57,100,0
2,57,0,60
2,62,100,0
2,62,0,60
2,57,100,0
2,57,0,60
2,66,100,0
2,66,0,60
2,57,100,0
2,57,0,60
2,62,100,0
2,62,0,120
2,73,100,0
2,73,0,60
2,61,100,0
2,61,0,60
2,68,100,0
2,68,0,60
2,64,100,0
2,64,0,60
2,61,100,0
2,61,0,60
2,68,100,0
2,68,0,60
2,73,100,0
2,73,0,60
2,61,100,0
2,61,0,60
2,68,100,0
2,68,0,60
2,64,100,0
2,64,0,60
2,61,100,0
2,61,0,60
2,68,100,0
2,68,0,60
2,73,100,0
2,73,0,60
2,68,100,0
2,68,0,60
2,72,100,0
2,72,0,60
2,60,100,0
2,60,0,60
2,67,100,0
2,67,0,60
2,64,100,0
2,64,0,60
2,60,100,0
2,60,0,60
2,67,100,0
2,67,0,60
2,72,100,0
2,72,0,60
2,60,100,0
2,60,0,60
2,67,100,0
2,67,0,60
2,64,100,0
2,64,0,60
2,60,100,0
2,60,0,60
2,67,100,0
2,67,0,60
2,72,100,0
2,72,0,60
2,67,100,0
2,67,0,60
2,71,100,0
2,71,0,60
2,59,100,0
2,59,0,60
