track,note,velocity,time
1,70,64,36864
1,75,64,0
1,79,64,0
1,72,64,0
1,77,64,0
1,80,64,0
1,73,64,0
1,77,64,0
1,80,64,0
1,70,64,0
1,75,64,0
1,79,64,0
1,72,64,0
1,77,64,0
1,80,64,0
1,73,64,0
1,77,64,0
1,80,64,0
1,70,64,0
1,75,64,0
1,79,64,0
1,77,64,0
1,74,64,0
1,70,64,0
1,67,64,0
1,72,64,0
1,76,64,0
1,72,64,0
1,66,64,0
1,69,64,0
1,74,64,0
1,79,64,0
1,83,64,0
1,83,64,0
1,78,64,0
1,74,64,0
1,76,64,0
1,79,64,0
1,86,64,0
1,84,64,0
1,86,64,0
1,84,64,0
1,81,64,0
1,75,64,0
1,86,64,0
1,84,64,0
1,86,64,0
1,84,64,0
1,74,64,0
1,79,64,0
1,83,64,0
1,83,64,0
1,78,64,0
1,74,64,0
1,76,64,0
1,79,64,0
1,86,64,0
1,84,64,0
1,86,64,0
1,84,64,0
1,77,64,0
1,81,64,0
1,84,64,0
1,78,64,0
1,74,64,0
1,79,64,0
1,83,64,0
1,83,64,0
1,78,64,0
1,74,64,0
1,76,64,0
1,79,64,0
1,86,64,0
1,84,64,0
1,86,64,0
1,84,64,0
1,81,64,0
1,75,64,0
1,86,64,0
1,84,64,0
1,86,64,0
1,84,64,0
1,80,64,0
1,76,64,0
1,71,64,0
1,73,64,0
1,76,64,0
1,81,64,0
1,83,64,0
1,78,64,0
1,75,64,0
1,83,64,0
1,79,64,0
1,76,64,0
1,84,64,0
1,81,64,0
1,78,64,0
1,75,64,0
1,70,64,0
1,75,64,0
1,79,64,0
1,72,64,0
1,77,64,0
1,80,64,0
1,73,64,0
1,77,64,0
1,80,64,0
1,70,64,0
1,75,64,0
1,79,64,0
1,72,64,0
1,77,64,0
1,80,64,0
1,73,64,0
1,77,64,0
1,80,64,0
1,70,64,0
1,75,64,0
1,79,64,0
1,77,64,0
1,74,64,0
1,70,64,0
1,67,64,0
1,72,64,0
1,76,64,0
1,69,64,0
1,74,64,0
1,77,64,0
1,81,64,0
1,70,64,0
1,74,64,0
1,77,64,0
1,81,64,0
1,72,64,0
1,76,64,0
1,79,64,0
1,84,64,0
1,69,64,0
1,74,64,0
1,77,64,0
1,81,64,0
1,70,64,0
1,74,64,0
1,77,64,0
1,81,64,0
1,72,64,0
1,76,64,0
1,79,64,0
1,84,64,0
1,69,64,0
1,74,64,0
1,77,64,0
1,81,64,0
1,70,64,0
1,74,64,0
1,77,64,0
1,81,64,0
1,72,64,0
1,76,64,0
1,79,64,0
1,84,64,0
1,69,64,0
1,74,64,0
1,77,64,0
1,81,64,0
1,70,64,0
1,74,64,0
1,77,64,0
1,81,64,0
1,76,64,0
1,79,64,0
1,84,64,0
1,74,64,0
1,79,64,0
1,83,64,0
1,81,64,0
1,76,64,0
1,73,64,0
1,69,64,0
1,74,64,0
1,78,64,0
1,81,64,0
1,81,64,0
1,78,64,0
1,73,64,0
1,74,64,0
1,79,64,0
1,83,64,0
1,74,64,0
1,79,64,0
1,82,64,0
1,74,64,0
1,78,64,0
1,81,64,0
1,81,64,0
1,78,64,0
1,73,64,0
1,74,64,0
1,79,64,0
1,83,64,0
1,84,64,0
1,79,64,0
1,76,64,0
1,85,64,0
1,81,64,0
1,74,64,0
1,78,64,0
1,81,64,0
1,81,64,0
1,78,64,0
1,73,64,0
1,74,64,0
1,79,64,0
1,83,64,0
1,74,64,0
1,79,64,0
1,82,64,0
1,74,64,0
1,78,64,0
1,81,64,0
1,81,64,0
1,78,64,0
1,73,64,0
1,74,64,0
1,79,64,0
1,83,64,0
1,84,64,0
1,79,64,0
1,76,64,0
1,85,64,0
1,81,64,0
2,71,84,13056
2,72,84,0
2,74,84,0
2,71,84,960
2,74,84,0
2,72,84,0
2,71,84,0
2,69,84,0
2,67,84,0
2,69,84,0
2,74,84,1536
2,74,84,0
2,79,84,0
2,78,84,0
2,79,84,0
2,74,84,0
2,67,84,3264
2,71,84,0
2,72,84,0
2,74,84,0
2,71,84,960
2,74,84,0
2,72,84,0
2,71,84,0
2,69,84,0
2,67,84,0
2,69,84,0
2,71,84,1344
2,71,84,0
2,71,84,0
2,76,84,0
2,75,84,0
2,76,84,0
2,71,84,0
2,69,84,2496
2,70,84,0
2,63,84,1920
2,65,84,0
2,67,84,0
2,67,84,0
2,65,84,0
2,65,84,0
2,65,84,1536
2,67,84,0
2,68,84,0
2,72,84,1920
2,70,84,0
2,63,84,2112
2,63,84,0
2,65,84,0
2,67,84,0
2,67,84,0
2,65,84,0
2,65,84,0
2,65,84,0
2,63,84,0
2,62,84,0
2,63,84,0
2,65,84,0
2,67,84,0
2,68,84,0
2,67,84,1344
2,68,84,0
2,65,84,0
2,72,84,0
2,70,84,0
2,68,84,0
2,70,84,0
2,72,84,384
2,70,84,0
2,68,84,384
2,67,84,0
2,71,84,3456
2,74,84,0
2,76,84,0
2,72,84,0
2,79,84,0
2,74,84,0
2,71,84,960
2,74,84,0
2,72,84,0
2,71,84,0
2,69,84,0
2,67,84,0
2,69,84,0
2,74,84,1152
2,74,84,0
2,74,84,0
2,79,84,0
2,78,84,0
2,79,84,0
2,74,84,0
2,71,84,3456
2,72,84,0
2,74,84,0
2,71,84,960
2,74,84,0
2,72,84,0
2,71,84,0
2,69,84,0
2,67,84,0
2,69,84,0
2,71,84,1152
2,71,84,0
2,71,84,0
2,76,84,0
2,76,84,0
2,75,84,0
2,76,84,0
2,71,84,0
2,69,84,2112
2,70,84,0
2,63,84,1920
2,65,84,14
2,67,84,4
2,67,84,10
2,65,84,0
2,65,84,0
2,65,84,1152
2,65,84,0
2,67,84,0
2,68,84,0
2,72,84,1920
2,70,84,0
2,63,84,2112
2,63,84,0
2,65,84,0
2,67,84,0
2,67,84,0
2,65,84,0
2,65,84,0
2,63,84,0
2,62,84,0
2,63,84,0
2,65,84,0
2,68,84,576
2,68,84,0
2,65,84,0
2,68,84,768
2,65,84,0
2,72,84,0
2,70,84,0
2,68,84,0
2,70,84,0
2,72,84,384
2,70,84,0
2,68,84,384
2,67,84,0
2,77,84,1344
2,76,84,0
2,77,84,12
2,76,84,14
2,76,84,0
2,74,84,0
2,74,84,0
2,74,84,1152
2,76,84,0
2,77,84,0
2,81,84,1536
2,79,84,0
2,67,84,1344
2,72,84,0
2,74,84,0
2,76,84,0
2,76,84,0
2,74,84,0
2,74,84,0
2,74,84,0
2,72,84,0
2,71,84,0
2,72,84,0
2,74,84,0
2,76,84,0
2,77,84,0
2,74,84,1344
2,77,84,0
2,74,84,0
2,81,84,0
2,79,84,0
2,77,84,0
2,79,84,0
2,72,84,1728
2,72,84,0
2,74,84,10
2,76,84,2
2,76,84,24
2,74,84,0
2,74,84,0
2,74,84,768
2,74,84,0
2,76,84,0
2,77,84,0
2,81,84,1920
2,79,84,0
2,67,84,1344
2,72,84,0
2,74,84,10
2,76,84,2
2,76,84,24
2,74,84,0
2,74,84,0
2,74,84,0
2,72,84,0
2,72,84,0
2,71,84,0
2,72,84,0
2,74,84,0
2,76,84,192
2,77,84,0
2,74,84,0
2,77,84,768
2,74,84,0
2,81,84,0
2,79,84,0
2,77,84,0
2,79,84,0
2,81,84,384
2,79,84,0
2,77,84,384
2,76,84,0
3,43,64,0
3,36,64,0
3,43,64,0
3,36,64,0
3,43,64,0
3,36,64,0
3,47,64,0
3,40,64,0
3,43,64,0
3,45,64,0
3,39,64,0
3,38,64,0
3,48,64,0
3,50,64,0
3,43,64,0
3,48,64,0
3,43,64,0
3,36,64,0
3,43,64,0
3,36,64,0
3,47,64,0
3,40,64,0
3,43,64,0
3,45,64,0
3,39,64,0
3,38,64,0
3,48,64,0
3,36,64,0
3,48,64,0
3,47,64,0
3,45,64,0
3,38,64,0
3,43,64,0
3,38,64,0
3,43,64,0
3,38,64,0
3,43,64,0
3,38,64,0
3,43,64,0
4,67,64,0
4,59,64,0
4,67,64,0
4,59,64,0
4,66,64,0
4,59,64,0
4,66,64,0
4,59,64,0
4,64,64,0
4,60,64,0
4,64,64,0
4,60,64,0
4,67,64,0
4,63,64,0
4,67,64,0
4,63,64,0
4,67,64,0
4,59,64,0
4,67,64,0
4,59,64,0
4,66,64,0
4,59,64,0
4,66,64,0
4,59,64,0
4,64,64,0
4,60,64,0
4,64,64,0
4,60,64,0
4,65,64,0
4,60,64,0
4,66,64,0
4,62,64,0
4,67,64,0
4,59,64,0
4,67,64,0
4,59,64,0
4,66,64,0
4,59,64,0
4,66,64,0
4,59,64,0
4,64,64,0
4,60,64,0
4,64,64,0
4,60,64,0
4,67,64,0
4,63,64,0
4,67,64,0
4,63,64,0
4,67,64,0
4,59,64,0
4,67,64,0
4,59,64,0
4,66,64,0
4,59,64,0
4,66,64,0
4,59,64,0
4,64,64,0
4,60,64,0
4,64,64,0
4,60,64,0
4,65,64,0
4,60,64,0
4,66,64,0
4,62,64,0
4,67,64,0
4,59,64,0
4,67,64,0
4,59,64,0
4,66,64,0
4,59,64,0
4,66,64,0
4,59,64,0
4,64,64,0
4,60,64,0
4,64,64,0
4,60,64,0
4,67,64,0
4,63,64,0
4,67,64,0
4,63,64,0
4,59,64,0
4,64,64,0
4,56,64,0
4,57,64,0
4,59,64,0
4,61,64,0
4,57,64,0
4,56,64,0
4,54,64,0
4,59,64,0
4,63,64,0
4,66,64,0
4,67,64,0
4,59,64,0
4,55,64,0
4,69,64,0
4,63,64,0
4,60,64,0
4,55,64,0
4,70,64,0
4,63,64,0
4,67,64,0
4,63,64,0
4,58,64,0
4,63,64,0
4,58,64,0
4,65,64,0
4,60,64,0
4,56,64,0
4,60,64,0
4,65,64,0
4,60,64,0
4,56,64,0
4,60,64,0
4,65,64,0
4,56,64,0
4,61,64,0
4,56,64,0
4,65,64,0
4,56,64,0
4,61,64,0
4,56,64,0
4,67,64,0
4,58,64,0
4,63,64,0
4,58,64,0
4,67,64,0
4,58,64,0
4,63,64,0
4,58,64,0
4,65,64,0
4,56,64,0
4,60,64,0
4,56,64,0
4,56,64,0
4,60,64,0
4,65,64,0
4,56,64,0
4,61,64,0
4,56,64,0
4,65,64,0
4,56,64,0
4,67,64,0
4,58,64,0
4,65,64,0
4,58,64,0
4,64,64,0
4,60,64,0
4,66,64,0
4,62,64,0
4,67,64,0
4,59,64,0
4,67,64,0
4,59,64,0
4,66,64,0
4,59,64,0
4,66,64,0
4,59,64,0
4,64,64,0
4,60,64,0
4,64,64,0
4,60,64,0
4,67,64,0
4,63,64,0
4,67,64,0
4,63,64,0
4,67,64,0
4,59,64,0
4,67,64,0
4,59,64,0
4,66,64,0
4,59,64,0
4,66,64,0
4,59,64,0
4,64,64,0
4,60,64,0
4,64,64,0
4,60,64,0
4,65,64,0
4,60,64,0
4,66,64,0
4,62,64,0
4,67,64,0
4,59,64,0
4,67,64,0
4,59,64,0
4,66,64,0
4,59,64,0
4,66,64,0
4,59,64,0
4,64,64,0
4,60,64,0
4,64,64,0
4,60,64,0
4,67,64,0
4,63,64,0
4,67,64,0
4,63,64,0
4,59,64,0
4,64,64,0
4,56,64,0
4,57,64,0
4,59,64,0
4,61,64,0
4,57,64,0
4,56,64,0
4,54,64,0
4,59,64,0
4,63,64,0
4,66,64,0
4,67,64,0
4,59,64,0
4,55,64,0
4,69,64,0
4,63,64,0
4,60,64,0
4,63,64,0
4,55,64,0
4,58,64,0
4,63,64,0
4,67,64,0
4,55,64,0
4,58,64,0
4,63,64,0
4,65,64,0
4,56,64,0
4,65,64,0
4,56,64,0
4,65,64,0
4,61,64,0
4,56,64,0
4,65,64,0
4,61,64,0
4,67,64,0
4,63,64,0
4,58,64,0
4,67,64,0
4,63,64,0
4,58,64,0
4,65,64,0
4,56,64,0
4,60,64,0
4,56,64,0
4,65,64,0
4,56,64,0
4,65,64,0
4,56,64,0
4,65,64,0
4,56,64,0
4,61,64,0
4,56,64,0
4,65,64,0
4,56,64,0
4,61,64,0
4,56,64,0
4,67,64,0
4,58,64,0
4,63,64,0
4,58,64,0
4,65,64,0
4,58,64,0
4,62,64,0
4,58,64,0
4,64,64,0
4,55,64,0
4,60,64,0
4,55,64,0
4,64,64,0
4,55,64,0
4,60,64,0
4,55,64,0
4,65,64,0
4,62,64,0
4,57,64,0
4,62,64,0
4,65,64,0
4,62,64,0
4,57,64,0
4,62,64,0
4,62,64,0
4,58,64,0
4,65,64,0
4,58,64,0
4,62,64,0
4,58,64,0
4,65,64,0
4,57,64,0
4,60,64,0
4,55,64,0
4,64,64,0
4,55,64,0
4,60,64,0
4,55,64,0
4,64,64,0
4,60,64,0
4,62,64,0
4,57,64,0
4,65,64,0
4,62,64,0
4,65,64,0
4,62,64,0
4,57,64,0
4,64,64,0
4,62,64,0
4,58,64,0
4,65,64,0
4,62,64,0
4,62,64,0
4,58,64,0
4,65,64,0
4,62,64,0
4,60,64,0
4,55,64,0
4,64,64,0
4,60,64,0
4,60,64,0
4,55,64,0
4,64,64,0
4,60,64,0
4,62,64,0
4,57,64,0
4,65,64,0
4,62,64,0
4,65,64,0
4,62,64,0
4,57,64,0
4,62,64,0
4,62,64,0
4,58,64,0
4,62,64,0
4,65,64,0
4,62,64,0
4,65,64,0
4,62,64,0
4,65,64,0
4,62,64,0
4,60,64,0
4,55,64,0
4,64,64,0
4,60,64,0
4,60,64,0
4,55,64,0
4,64,64,0
4,60,64,0
4,62,64,0
4,57,64,0
4,65,64,0
4,62,64,0
4,62,64,0
4,57,64,0
4,65,64,0
4,62,64,0
4,62,64,0
4,58,64,0
4,65,64,0
4,57,64,0
4,62,64,0
4,58,64,0
4,65,64,0
4,57,64,0
4,60,64,0
4,55,64,0
4,64,64,0
4,55,64,0
4,59,64,0
4,55,64,0
4,62,64,0
4,55,64,0
4,61,64,384
4,64,64,0
4,69,64,0
4,73,64,0
4,74,64,0
4,78,64,0
4,69,64,0
4,69,64,0
4,73,64,0
4,78,64,0
4,79,64,0
4,74,64,0
4,71,64,0
4,70,64,0
4,74,64,0
4,79,64,0
4,79,64,0
4,76,64,0
4,74,64,0
4,78,64,0
4,69,64,0
4,69,64,0
4,73,64,0
4,78,64,0
4,79,64,0
4,74,64,0
4,71,64,0
4,79,64,0
4,76,64,0
4,72,64,0
4,73,64,0
4,74,64,0
4,78,64,0
4,69,64,0
4,69,64,0
4,73,64,0
4,78,64,0
4,79,64,0
4,74,64,0
4,71,64,0
4,70,64,0
4,74,64,0
4,79,64,0
4,79,64,0
4,76,64,0
4,74,64,0
4,78,64,0
4,69,64,0
4,69,64,0
4,73,64,0
4,78,64,0
4,79,64,0
4,74,64,0
4,71,64,0
4,79,64,0
4,76,64,0
4,72,64,0
4,73,64,0
5,74,54,0
5,74,54,0
5,79,54,0
5,79,54,0
5,83,54,0
5,83,54,0
5,83,54,0
5,83,54,0
5,78,54,0
5,78,54,0
5,74,54,0
5,74,54,0
5,76,54,0
5,76,54,0
5,79,54,0
5,79,54,0
5,84,54,0
5,84,54,0
5,84,54,0
5,84,54,0
5,81,54,0
5,81,54,0
5,75,54,0
5,75,54,0
5,74,54,0
5,74,54,0
5,79,54,0
5,79,54,0
5,83,54,0
5,83,54,0
5,83,54,0
5,83,54,0
5,78,54,0
5,78,54,0
5,74,54,0
5,74,54,0
5,76,54,0
5,76,54,0
5,79,54,0
5,79,54,0
5,84,54,0
5,84,54,0
5,77,54,0
5,77,54,0
5,81,54,0
5,81,54,0
5,84,54,0
5,84,54,0
5,78,54,0
5,78,54,0
5,74,54,0
5,74,54,0
5,79,54,0
5,79,54,0
5,83,54,0
5,83,54,0
5,83,54,0
5,83,54,0
5,78,54,0
5,78,54,0
5,74,54,0
5,74,54,0
5,76,54,0
5,76,54,0
5,79,54,0
5,79,54,0
5,84,54,0
5,84,54,0
5,84,54,0
5,84,54,0
5,81,54,0
5,81,54,0
5,75,54,0
5,75,54,0
5,74,54,0
5,74,54,0
5,79,54,0
5,79,54,0
5,83,54,0
5,83,54,0
5,83,54,0
5,83,54,0
5,78,54,0
5,78,54,0
