track,note,velocity,time
1,70,88,10834
1,70,88,2944
1,65,88,592
1,63,88,112
1,65,88,64
1,60,88,30
1,63,88,546
1,65,88,0
1,63,88,2
1,60,88,160
1,63,88,162
1,70,88,2256
1,65,88,2
1,70,88,2018
1,69,88,176
1,65,88,126
1,65,88,0
1,63,88,176
1,65,88,62
1,60,88,16
1,63,88,0
1,65,88,494
1,63,88,2
1,65,88,2
1,60,88,1488
1,63,88,2
1,65,88,190
1,63,88,2
1,60,88,400
1,63,88,2
1,65,88,208
1,63,88,2
1,65,88,36
1,70,88,782
1,65,88,16
1,70,88,576
1,65,88,2
1,70,88,142
1,65,88,2
1,65,88,16
1,65,88,80
1,65,88,18
1,63,88,48
1,65,88,0
1,65,88,18
1,70,88,0
1,70,88,32
1,65,88,64
1,65,88,226
1,63,88,16
1,65,88,0
1,72,88,9858
1,68,88,78
1,72,88,2
1,65,88,32292
1,70,88,782
1,65,88,16
1,70,88,576
1,65,88,0
1,70,88,142
1,65,88,0
1,65,88,16
1,65,88,80
1,65,88,16
1,63,88,50
1,65,88,0
1,65,88,18
1,70,88,0
1,70,88,78
1,65,88,14
1,65,88,226
1,63,88,16
1,65,88,0
1,51,64,180
1,53,64,10
1,51,64,0
1,53,64,80
1,51,64,0
1,53,64,62
1,51,64,16
1,53,64,64
1,51,64,34
1,53,64,96
1,51,64,16
1,53,64,0
1,51,64,0
1,53,64,64
1,51,64,16
1,53,64,46
1,49,64,30
1,51,64,2
1,49,64,16
1,51,64,16
1,49,64,16
1,51,64,32
1,49,64,16
1,51,64,16
1,51,64,32
1,53,64,68
1,51,64,658
1,53,64,50
1,51,64,688
1,53,64,50
1,51,64,0
1,53,64,66
1,56,64,704
1,58,64,128
1,56,64,526
1,58,64,34
1,56,64,2
1,58,64,48
1,56,64,704
1,58,64,238
1,60,64,96
1,48,64,98
1,53,64,0
1,53,64,30
1,55,64,66
1,53,64,50
1,48,64,146
1,48,64,64
1,48,64,16
1,53,64,176
1,48,64,78
1,48,64,46
1,53,64,226
1,48,64,46
1,55,64,20
1,56,64,0
1,55,64,0
1,56,64,30
1,55,64,0
1,56,64,16
1,55,64,0
1,56,64,30
1,55,64,0
1,56,64,30
1,55,64,34
1,56,64,30
1,55,64,34
1,56,64,14
1,55,64,0
1,56,64,30
1,55,64,32
1,56,64,0
1,55,64,50
1,56,64,14
1,55,64,0
1,56,64,30
1,55,64,0
1,56,64,30
1,55,64,0
1,56,64,30
1,55,64,16
1,56,64,0
1,55,64,32
1,56,64,14
1,55,64,32
1,56,64,30
1,55,64,34
1,56,64,16
1,55,64,16
1,56,64,32
1,55,64,32
1,56,64,32
1,55,64,32
1,56,64,16
1,55,64,30
1,56,64,34
1,55,64,30
1,56,64,34
1,55,64,0
1,56,64,34
1,55,64,0
1,56,64,34
1,55,64,0
1,56,64,34
1,55,64,0
1,56,64,48
1,55,64,0
1,56,64,30
1,55,64,0
1,56,64,46
1,55,64,34
1,56,64,30
1,55,64,0
1,56,64,30
1,55,64,18
1,56,64,30
1,55,64,34
1,56,64,30
1,53,64,34
1,55,64,66
1,56,64,112
1,58,64,30
1,56,64,16
1,55,64,126
1,53,64,142
1,55,64,66
1,53,64,16
1,55,64,64
1,56,64,146
1,58,64,32
1,56,64,112
1,55,64,130
1,56,64,66
1,55,64,128
1,53,64,126
1,55,64,66
1,56,64,194
1,60,64,166
1,56,64,18
1,55,64,46
1,56,64,34
1,61,86,18
1,56,64,18
1,55,64,46
1,56,64,18
1,60,64,48
1,56,64,0
1,55,64,46
1,56,64,34
1,61,86,18
1,56,64,18
1,55,64,46
1,56,64,34
1,60,64,18
1,56,64,18
1,55,64,0
1,56,64,18
1,61,86,18
1,56,64,18
1,55,64,46
1,56,64,34
1,60,64,2
1,56,64,48
1,55,64,16
1,61,86,2
1,56,64,48
1,55,64,48
1,56,64,34
1,60,64,34
1,56,64,16
1,55,64,46
1,56,64,34
1,61,86,18
1,56,64,16
1,55,64,48
1,56,64,16
1,60,64,48
1,56,64,0
1,55,64,46
1,56,64,34
1,61,86,18
1,56,64,16
1,55,64,46
1,56,64,34
1,60,64,18
1,56,64,16
1,55,64,0
1,56,64,16
1,61,86,18
1,56,64,16
1,55,64,48
1,56,64,34
1,60,64,2
1,56,64,48
1,55,64,16
1,61,86,2
1,56,64,48
1,55,64,48
1,56,64,34
1,60,64,36
1,56,64,16
1,55,64,46
1,56,64,34
1,61,86,18
1,56,64,16
1,55,64,46
1,56,64,16
1,60,64,48
1,56,64,0
1,55,64,46
1,56,64,32
1,61,86,18
1,56,64,16
1,55,64,46
1,56,64,32
1,60,64,18
1,56,64,16
1,55,64,0
1,56,64,16
1,61,86,18
1,56,64,14
1,55,64,48
1,56,64,30
1,60,64,2
1,56,64,46
1,55,64,16
1,61,86,2
1,56,64,46
1,55,64,48
1,56,64,30
1,60,64,36
1,56,64,14
1,55,64,48
1,56,64,30
1,61,86,18
1,56,64,14
1,55,64,50
1,56,64,14
1,60,64,50
1,56,64,2
1,55,64,46
1,56,64,30
1,61,86,18
1,56,64,14
1,55,64,48
1,56,64,30
1,60,64,18
1,56,64,14
1,55,64,0
1,56,64,14
1,61,86,18
1,56,64,14
1,55,64,50
1,56,64,30
1,60,64,0
1,56,64,46
1,55,64,18
1,61,86,0
1,56,64,46
1,55,64,50
1,56,64,30
1,53,64,0
1,55,64,110
1,56,64,128
1,58,64,82
1,56,64,16
1,55,64,110
1,53,64,0
1,55,64,96
1,53,64,16
1,55,64,112
1,56,64,128
1,58,64,80
1,56,64,96
1,55,64,112
1,56,64,0
1,55,64,146
1,53,64,112
1,55,64,48
1,53,64,0
1,60,88,1536
1,58,88,32
1,56,88,80
1,55,88,64
1,53,88,80
1,51,88,62
1,48,88,46
1,46,88,64
1,48,88,80
1,48,88,5328
1,51,88,146
1,48,88,126
1,48,88,178
1,53,88,34
1,53,88,50
1,51,88,34
1,46,88,50
1,48,88,50
1,60,88,4864
1,58,88,30
1,56,88,80
1,55,88,80
1,53,88,62
1,51,88,62
1,48,88,62
1,46,88,46
1,48,88,80
1,55,88,1294
1,56,88,48
1,58,88,2
1,56,88,786
1,51,88,158
1,53,88,1026
1,49,88,64
1,55,88,544
1,56,88,0
1,53,88,306
1,55,88,96
1,56,88,0
1,53,88,432
1,55,88,128
1,56,88,62
1,53,88,466
1,55,88,80
1,56,88,0
1,58,88,80
1,65,88,0
1,63,88,0
1,65,88,80
1,63,88,178
1,60,88,16
1,58,88,64
1,56,88,50
1,53,88,14
1,56,88,14
1,58,88,82
1,56,88,32
1,55,88,16
1,51,88,96
1,53,88,82
1,72,88,182
1,68,88,362
1,70,88,2
1,67,88,366
1,68,88,2
1,65,88,366
1,68,88,2
1,67,88,350
1,65,88,80
1,68,88,0
1,72,88,96
1,77,88,64
1,72,88,18
1,70,88,18
1,68,88,2
1,67,88,16
1,63,86,18
1,65,88,0
1,68,88,0
1,72,88,96
1,77,88,66
1,72,88,18
1,70,88,18
1,68,88,2
1,67,88,16
1,63,86,18
1,65,88,48
1,72,88,274
1,39,86,288
1,39,86,16
1,39,86,16
1,39,86,16
1,39,86,16
1,39,86,16
1,39,86,16
1,39,86,16
1,65,88,16
1,68,88,0
1,72,88,96
1,77,88,66
1,72,88,16
1,70,88,16
1,68,88,0
1,67,88,16
1,63,86,16
1,65,88,0
1,68,88,0
1,72,88,96
1,77,88,66
1,72,88,16
1,70,88,16
1,68,88,0
1,67,88,16
1,63,86,16
1,65,88,46
1,72,88,272
1,72,88,1058
1,70,88,80
1,68,88,0
1,72,88,96
1,70,88,48
1,68,88,0
1,70,88,96
1,63,88,14
1,65,88,18
1,72,88,208
1,63,88,222
1,63,88,46
1,63,88,34
1,63,88,32
1,63,88,48
1,63,88,46
1,63,88,48
1,63,88,46
1,72,88,62
1,75,88,80
1,72,88,110
1,77,88,0
1,75,88,16
1,74,88,130
1,70,88,0
1,65,88,66
1,65,88,62
1,72,88,272
1,65,88,1096
1,67,88,106
1,68,88,2
1,70,88,0
1,68,88,350
1,67,88,0
1,65,88,18
1,67,88,46
1,65,88,52
1,67,88,94
1,68,88,142
1,70,88,34
1,68,88,112
1,67,88,0
1,68,88,14
1,67,88,112
1,65,88,34
1,67,88,0
1,63,88,16
1,65,88,34
1,60,64,20
1,56,64,16
1,55,64,50
1,56,64,32
1,61,86,16
1,56,64,16
1,55,64,50
1,56,64,16
1,60,64,50
1,56,64,2
1,55,64,48
1,56,64,34
1,61,86,16
1,56,64,16
1,55,64,50
1,56,64,32
1,60,64,16
1,56,64,16
1,55,64,0
1,56,64,16
1,61,86,16
1,56,64,16
1,55,64,50
1,56,64,32
1,60,64,0
1,56,64,46
1,55,64,16
1,61,86,2
1,56,64,46
1,55,64,50
1,56,64,34
1,60,64,34
1,56,64,16
1,55,64,48
1,56,64,32
1,61,86,16
1,56,64,16
1,55,64,48
1,56,64,16
1,60,64,50
1,56,64,2
1,55,64,46
1,56,64,30
1,61,86,16
1,56,64,16
1,55,64,48
1,56,64,32
1,60,64,16
1,56,64,16
1,55,64,2
1,56,64,16
1,61,86,16
1,56,64,18
1,55,64,48
1,56,64,34
1,60,64,2
1,56,64,48
1,55,64,14
1,61,86,2
1,56,64,48
1,55,64,46
1,56,64,34
1,60,64,34
1,56,64,18
1,55,64,46
1,56,64,34
1,61,86,18
1,56,64,18
1,55,64,48
1,56,64,16
1,60,64,48
1,56,64,0
1,55,64,46
1,56,64,34
1,61,86,18
1,56,64,18
1,55,64,46
1,56,64,34
1,60,64,18
1,56,64,18
1,55,64,2
1,56,64,18
1,61,86,18
1,56,64,18
1,55,64,48
1,56,64,34
1,60,64,2
1,56,64,48
1,55,64,16
1,61,86,2
1,56,64,48
1,55,64,48
1,56,64,34
1,60,64,34
1,56,64,16
1,55,64,46
1,56,64,34
1,61,86,18
1,56,64,16
1,55,64,46
1,56,64,16
1,60,64,48
1,56,64,0
1,55,64,46
1,56,64,34
1,61,86,18
1,56,64,16
1,55,64,46
1,56,64,34
1,60,64,18
1,56,64,16
1,55,64,2
1,56,64,16
1,61,86,18
1,56,64,16
1,55,64,48
1,56,64,34
1,60,64,2
1,56,64,48
1,55,64,16
1,61,86,2
1,56,64,48
1,55,64,48
1,56,64,34
1,65,88,36
1,67,88,96
1,68,88,2
1,70,88,0
1,68,88,350
1,67,88,0
1,65,88,16
1,67,88,48
1,65,88,52
1,67,88,92
1,68,88,142
1,70,88,34
1,68,88,112
1,67,88,2
1,68,88,18
1,67,88,112
1,65,88,34
1,67,88,2
1,63,88,14
1,65,88,32
1,69,88,0
1,70,88,408
1,67,88,338
1,69,88,334
1,69,88,14
1,70,88,562
1,67,88,162
1,74,88,56
1,72,88,538
1,74,88,142
1,72,88,18
1,74,88,208
1,72,88,368
1,71,88,370
1,72,88,368
1,65,88,338
1,64,88,562
1,65,88,0
1,67,88,50
1,69,88,46
1,67,88,2
1,65,88,2
1,67,88,368
1,65,88,400
1,67,88,558
1,69,88,176
1,67,88,144
1,65,88,160
1,67,88,176
1,65,88,192
1,69,88,198
1,70,88,378
1,67,88,304
1,69,88,0
1,69,88,30
1,70,88,50
1,67,88,34
1,74,88,46
1,72,88,2
1,74,88,16
1,72,88,16
1,74,88,0
1,72,88,400
1,71,88,352
1,72,88,334
1,65,88,418
1,64,88,0
1,65,88,208
1,67,88,126
1,69,88,48
1,67,88,2
1,65,88,16
1,67,88,592
1,69,88,46
1,67,88,176
1,65,88,176
1,67,88,192
1,65,88,176
1,67,88,560
1,69,88,160
1,67,88,0
1,65,88,176
1,67,88,0
1,65,88,0
1,65,88,34
1,65,88,18
1,65,88,34
1,65,88,16
1,67,88,594
1,69,88,0
1,67,88,0
1,65,88,192
1,67,88,0
1,65,88,192
1,65,88,16
1,65,88,16
1,65,88,32
1,65,88,32
1,67,88,574
1,69,88,2
1,67,88,0
1,65,88,192
1,67,88,0
1,65,88,2
1,65,88,16
1,65,88,16
1,65,88,34
1,65,88,34
1,67,88,624
1,69,88,2
1,67,88,174
1,65,88,176
1,67,88,2
1,65,88,190
1,65,88,18
1,65,88,16
1,65,88,50
1,65,88,32
1,65,88,32
1,67,88,80
1,69,88,80
1,67,88,80
1,65,88,0
1,67,88,80
1,69,88,18
1,67,88,16
1,67,88,32
1,60,88,16
1,60,88,32
1,60,88,30
1,60,88,46
1,70,88,32
1,69,88,594
1,65,88,176
1,74,88,368
1,65,88,16
1,62,88,2
1,65,88,0
1,62,88,192
1,65,88,0
1,69,88,34
1,67,88,2
1,69,88,94
1,67,88,64
1,69,88,18
1,67,88,78
1,69,88,14
1,67,88,0
1,69,88,16
1,67,88,0
1,69,88,16
1,67,88,0
1,69,88,0
1,67,88,16
1,69,88,0
1,67,88,0
1,65,88,64
1,60,88,142
1,65,88,192
1,65,88,272
1,60,88,78
1,53,88,144
2,41,88,17648
2,43,88,50
2,44,88,50
2,48,88,0
2,49,88,128
2,49,88,16
2,44,88,62
2,44,88,32
2,48,88,0
2,49,88,82
2,44,88,18
2,44,88,62
2,41,88,80
2,44,88,176
2,48,88,560
2,48,88,612
2,41,88,0
2,43,88,0
2,44,88,64
2,48,88,16
2,46,88,782
2,41,88,20
2,41,88,30
2,51,88,68
2,48,88,588
2,48,88,50
2,44,88,2
2,39,88,886
2,46,88,572
2,46,88,98
2,41,88,48
2,39,88,130
2,46,88,0
2,46,88,78
2,39,88,560
2,41,88,16
2,41,88,180
2,41,88,130
2,41,88,50
2,39,88,384
2,41,88,50
2,41,88,32
2,41,88,66
2,39,88,384
2,41,88,16
2,41,88,32
2,41,88,32
2,39,88,384
2,41,88,36
2,41,88,32
2,41,88,48
2,39,88,48
2,41,88,2
2,41,88,34
2,41,88,34
2,39,88,34
2,41,88,18
2,41,88,50
2,41,88,18
2,39,88,18
2,41,88,366
2,41,88,32
2,41,88,50
2,39,88,66
2,41,88,34
2,41,88,34
2,41,88,34
2,39,88,50
2,41,88,36
2,41,88,48
2,41,88,50
2,39,88,32
2,41,88,66
2,41,88,46
2,41,88,50
2,39,88,82
2,41,88,96
2,41,88,2894
2,37,88,0
2,41,88,46
2,37,88,96
2,30,88,46
2,37,88,80
2,34,88,542
2,37,88,16
2,39,88,560
2,42,88,192
2,48,88,9426
2,48,88,48
2,48,88,82
2,48,88,80
2,46,88,352
2,44,88,146
2,46,88,16
2,44,88,560
2,43,88,66
2,44,88,114
2,44,88,210
2,41,88,592
2,44,88,0
2,46,88,368
2,44,88,176
2,43,88,194
2,39,88,82
2,44,88,82
2,41,88,0
2,48,88,2
2,39,88,948
2,46,88,574
2,46,88,98
2,41,88,50
2,39,88,130
2,46,88,2
2,46,88,78
2,39,88,560
2,41,88,18
2,39,88,128
2,39,88,1504
2,41,88,66
2,39,88,80
2,41,88,64
2,39,88,16
2,41,88,70
2,39,88,80
2,41,88,64
2,39,88,18
2,41,88,64
2,39,88,34
2,41,88,64
2,37,88,34
2,39,88,66
2,37,88,34
2,39,88,64
2,37,88,34
2,39,88,66
2,37,88,32
2,39,88,64
2,37,88,50
2,41,88,2
2,39,88,80
2,41,88,66
2,39,88,14
2,41,88,70
2,39,88,30
2,41,88,66
2,37,88,32
2,39,88,68
2,37,88,32
2,39,88,66
2,37,88,32
2,39,88,68
2,37,88,32
2,39,88,66
2,37,88,50
2,41,88,2
2,39,88,78
2,41,88,66
2,39,88,18
2,41,88,66
2,39,88,34
2,41,88,64
2,37,88,34
2,39,88,66
2,37,88,34
2,39,88,64
2,37,88,34
2,39,88,66
2,37,88,32
2,39,88,64
2,37,88,48
2,37,88,30
2,37,88,34
2,37,88,16
2,34,88,16
2,37,88,2
2,37,88,96
2,37,88,50
2,34,88,16
2,37,88,80
2,37,88,96
2,37,88,50
2,34,88,34
2,37,88,80
2,37,88,112
2,37,88,48
2,34,88,16
2,37,88,66
2,41,88,198
2,39,88,80
2,41,88,66
2,39,88,16
2,41,88,68
2,39,88,32
2,41,88,66
2,37,88,32
2,39,88,68
2,37,88,34
