track,note,velocity,time
0,48,81,240
0,47,69,250
0,68,68,225
0,59,57,2
0,64,66,1
0,35,80,0
0,56,64,0
0,59,64,0
0,41,60,0
0,63,49,0
0,70,54,0
0,49,83,0
0,36,59,0
0,68,64,10
0,62,49,0
0,70,54,0
0,42,73,20
0,64,64,10
0,62,49,0
0,70,54,0
0,42,63,0
0,42,73,0
0,59,62,1
0,66,67,3
0,63,70,3
0,42,80,3
0,54,64,0
0,59,64,0
0,63,49,0
0,70,54,0
0,36,59,0
0,42,63,0
0,66,64,10
0,62,49,0
0,70,54,0
0,36,59,0
0,42,63,0
0,63,64,10
0,63,49,0
0,70,54,0
0,59,64,10
0,62,49,0
0,70,54,0
0,38,69,0
0,42,63,0
0,61,60,101
0,42,63,0
0,69,60,8
0,35,80,2
0,57,64,0
0,64,64,0
0,64,65,0
0,62,49,0
0,70,54,0
0,35,80,10
0,63,49,0
0,70,54,0
0,36,59,0
0,42,63,0
0,61,64,10
0,62,49,0
0,70,54,0
0,42,73,0
0,57,64,10
0,62,49,0
0,70,54,0
0,42,63,0
0,69,64,10
0,63,49,0
0,70,54,0
0,36,59,0
0,42,73,0
0,62,49,10
0,70,54,0
0,36,59,0
0,42,63,0
0,42,63,0
0,57,64,10
0,63,49,0
0,70,54,0
0,64,64,10
0,62,49,0
0,70,54,0
0,38,69,0
0,42,63,0
0,46,72,0
0,61,64,10
0,62,49,0
0,70,54,0
0,68,50,85
0,64,61,2
0,59,50,1
0,35,80,10
0,56,64,0
0,59,64,0
0,63,49,0
0,70,54,0
0,36,59,0
0,42,63,0
0,68,64,10
0,62,49,0
0,70,54,0
0,42,73,0
0,64,64,10
0,62,49,0
0,70,54,0
0,42,63,0
0,42,73,124
0,63,63,7
0,66,61,0
0,59,58,5
0,42,80,5
0,54,64,0
0,59,64,0
0,63,49,0
0,70,54,0
0,36,59,0
0,66,64,10
0,62,49,0
0,70,54,0
0,36,59,0
0,42,63,0
0,42,63,130
0,63,64,10
0,63,49,0
0,70,54,0
0,42,63,180
0,59,64,10
0,62,49,0
0,70,54,0
0,38,69,0
0,61,64,114
0,69,59,1
0,64,73,5
0,42,63,10
0,35,80,10
0,57,64,0
0,64,64,0
0,62,49,0
0,70,54,0
0,42,63,190
0,35,80,10
0,63,49,0
0,70,54,0
0,36,59,0
0,61,64,10
0,62,49,0
0,70,54,0
0,42,73,0
0,42,63,0
0,57,64,10
0,62,49,0
0,70,54,0
0,69,64,10
0,63,49,0
0,70,54,0
0,36,59,0
0,42,73,0
0,62,49,10
0,70,54,0
0,36,59,0
0,42,63,0
0,42,63,130
0,57,64,10
0,63,49,0
0,70,54,0
0,61,64,10
0,62,49,0
0,70,54,0
0,42,63,0
0,38,69,0
0,46,72,120
0,62,49,10
0,70,54,0
0,64,39,57
0,68,73,32
0,42,63,3
0,59,58,5
0,35,80,10
0,59,64,0
0,64,64,0
0,68,64,0
0,63,49,0
0,70,54,0
0,36,59,0
0,42,73,0
0,69,64,10
0,62,49,0
0,70,54,0
0,42,63,160
0,68,64,10
0,62,49,0
0,70,54,0
0,42,73,0
0,42,80,10
0,59,64,0
0,63,64,0
0,66,64,0
0,63,49,0
0,70,54,0
0,36,59,0
0,63,67,13
0,59,56,1
0,66,66,4
0,62,49,10
0,70,54,0
0,36,59,0
0,42,63,0
0,42,63,0
0,64,64,10
0,63,49,0
0,70,54,0
0,63,64,10
0,62,49,0
0,70,54,0
0,38,69,0
0,42,63,0
0,69,60,125
0,64,67,5
0,61,56,7
0,35,80,10
0,57,64,0
0,61,64,0
0,64,64,0
0,66,64,0
0,62,49,0
0,70,54,0
0,42,63,10
0,42,63,0
0,63,49,10
0,70,54,0
0,36,59,0
0,42,73,0
0,57,64,10
0,62,49,0
0,70,54,0
0,61,64,10
0,62,49,0
0,70,54,0
0,42,63,10
0,68,50,11
0,37,80,10
0,56,64,0
0,61,64,0
0,64,64,0
0,63,49,0
0,70,54,0
0,36,59,0
0,42,73,0
0,42,63,0
0,62,49,10
0,70,54,0
0,36,59,0
0,56,64,10
0,63,49,0
0,70,54,0
0,42,63,0
0,42,63,0
0,64,64,10
0,62,49,0
0,70,54,0
0,38,69,0
0,46,72,0
0,32,80,10
0,61,64,0
0,62,49,0
0,70,54,0
0,68,65,84
0,61,61,2
0,64,69,0
0,37,80,10
0,63,49,0
0,70,54,0
0,36,59,0
0,42,63,0
0,56,64,10
0,61,64,0
0,64,64,0
0,62,49,0
0,70,54,0
0,42,73,0
0,62,49,10
0,70,54,0
0,42,63,0
0,63,67,53
0,68,38,4
0,59,64,11
0,42,73,8
0,32,80,10
0,56,64,0
0,59,64,0
0,63,49,0
0,70,54,0
0,36,59,0
0,42,63,0
0,63,64,10
0,62,49,0
0,70,54,0
0,36,59,0
0,42,63,0
0,59,64,10
0,63,49,0
0,70,54,0
0,42,63,0
0,56,64,10
0,62,49,0
0,70,54,0
0,38,69,0
0,57,58,93
0,61,62,2
0,66,49,9
0,42,63,26
0,54,64,10
0,62,49,0
0,70,54,0
0,30,80,10
0,63,49,0
0,70,54,0
0,36,59,0
0,42,63,0
0,42,73,0
0,57,64,10
0,62,49,0
0,70,54,0
0,61,64,10
0,62,49,0
0,70,54,0
0,42,63,0
0,59,64,10
0,64,64,0
0,63,49,0
0,70,54,0
0,36,59,0
0,42,73,0
0,62,49,10
0,70,54,0
0,36,59,0
0,42,63,0
0,54,64,10
0,63,49,0
0,70,54,0
0,42,63,20
0,54,64,10
0,62,49,0
0,70,54,0
0,38,69,0
0,42,63,0
0,62,49,10
0,70,54,0
0,42,63,10
0,68,68,115
0,59,57,2
0,64,66,1
0,35,80,10
0,56,64,0
0,59,64,0
0,63,49,0
0,70,54,0
0,36,59,0
0,49,83,0
0,42,73,0
0,68,64,10
0,62,49,0
0,70,54,0
0,64,64,10
0,62,49,0
0,70,54,0
0,42,63,0
0,42,73,0
0,59,62,1
0,66,67,3
0,63,70,3
0,80,64,3
0,42,80,0
0,54,64,0
0,59,64,0
0,63,49,0
0,70,54,0
0,36,59,0
0,42,63,0
0,66,64,10
0,62,49,0
0,70,54,0
0,36,59,0
0,78,64,10
0,63,64,0
0,63,49,0
0,70,54,0
0,42,63,0
0,59,64,10
0,62,49,0
0,70,54,0
0,38,69,0
0,42,63,0
0,61,60,101
0,42,63,0
0,69,60,8
0,80,64,2
0,35,80,0
0,57,64,0
0,64,64,0
0,64,65,0
0,62,49,0
0,70,54,0
0,35,80,10
0,63,49,0
0,70,54,0
0,36,59,0
0,42,63,0
0,76,64,10
0,61,64,0
0,62,49,0
0,70,54,0
0,42,73,10
0,73,64,10
0,57,64,0
0,62,49,0
0,70,54,0
0,42,63,0
0,73,64,10
0,69,64,0
0,63,49,0
0,70,54,0
0,36,59,0
0,42,73,0
0,42,73,0
0,62,49,10
0,70,54,0
0,36,59,0
0,42,63,0
0,71,64,10
0,57,64,0
0,63,49,0
0,70,54,0
0,73,64,10
0,64,64,0
0,62,49,0
0,70,54,0
0,38,69,0
0,42,63,0
0,71,64,10
0,61,64,0
0,62,49,0
0,70,54,0
0,46,72,0
0,68,50,35
0,64,61,2
0,59,50,1
0,35,80,10
0,56,64,0
0,59,64,0
0,63,49,0
0,70,54,0
0,42,63,0
0,36,59,0
0,68,64,10
0,62,49,0
0,70,54,0
0,42,73,0
0,64,64,10
0,62,49,0
0,70,54,0
0,42,63,0
0,63,63,127
0,66,61,0
0,42,73,0
0,59,58,5
0,80,64,5
0,42,80,0
0,54,64,0
0,59,64,0
0,63,49,0
0,70,54,0
0,36,59,0
0,66,64,10
0,62,49,0
0,70,54,0
0,36,59,0
0,42,73,0
0,42,63,0
0,78,64,10
0,63,64,0
0,63,49,0
0,70,54,0
0,42,63,0
0,76,64,10
0,59,64,0
0,62,49,0
0,70,54,0
0,38,69,0
0,61,64,114
0,69,59,1
0,64,73,5
0,80,64,10
0,35,80,0
0,57,64,0
0,64,64,0
0,62,49,0
0,70,54,0
0,42,63,0
0,35,80,10
0,63,49,0
0,70,54,0
0,36,59,0
0,42,63,0
0,76,64,10
0,61,64,0
0,62,49,0
0,70,54,0
0,42,73,0
0,42,63,0
0,57,64,10
0,62,49,0
0,70,54,0
0,42,73,160
0,73,64,10
0,64,64,0
0,63,49,0
0,70,54,0
0,36,59,0
0,42,63,0
0,62,49,10
0,70,54,0
0,36,59,0
0,42,63,130
0,76,64,10
0,57,64,0
0,63,49,0
0,70,54,0
0,42,63,160
0,73,64,10
0,61,64,0
0,62,49,0
0,70,54,0
0,38,69,0
0,46,72,0
0,76,64,10
0,57,64,0
0,62,49,0
0,70,54,0
0,64,39,55
0,68,73,32
0,59,58,8
0,42,63,0
0,35,80,10
0,56,64,0
0,59,64,0
0,63,49,0
0,70,54,0
0,36,59,0
0,42,73,0
0,68,64,10
0,62,49,0
0,70,54,0
0,42,63,0
0,64,64,10
0,62,49,0
0,70,54,0
0,42,73,0
0,80,64,10
0,42,80,0
0,54,64,0
0,59,64,0
0,63,49,0
0,70,54,0
0,36,59,0
0,63,67,13
0,59,56,1
0,66,66,4
0,42,63,0
0,80,64,10
0,66,64,0
0,62,49,0
0,70,54,0
0,36,59,0
0,42,63,0
0,80,64,10
0,63,64,0
0,63,49,0
0,70,54,0
0,42,63,0
0,78,64,10
0,59,64,0
0,62,49,0
0,70,54,0
0,38,69,0
0,69,60,125
0,64,67,5
0,61,56,7
0,42,63,0
0,81,64,10
0,35,80,0
0,57,64,0
0,64,64,0
0,62,49,0
0,70,54,0
0,63,49,10
0,70,54,0
0,36,59,0
0,42,63,0
0,42,73,0
0,80,64,10
0,61,64,0
0,62,49,0
0,70,54,0
0,42,63,0
0,80,64,10
0,57,64,0
0,62,49,0
0,70,54,0
0,78,64,10
0,68,50,11
0,42,73,33
0,76,64,10
0,37,80,0
0,56,64,0
0,61,64,0
0,64,64,0
0,63,49,0
0,70,54,0
0,36,59,0
0,42,63,0
0,62,49,10
0,70,54,0
0,36,59,0
0,42,63,0
0,56,64,10
0,63,49,0
0,70,54,0
0,64,64,10
0,62,49,0
0,70,54,0
0,42,63,0
0,38,69,0
0,71,64,10
0,32,80,0
0,61,64,0
0,62,49,0
0,70,54,0
0,46,72,0
0,68,65,124
0,61,61,2
0,64,69,0
0,49,83,0
0,76,64,10
0,37,80,0
0,63,49,0
0,70,54,0
0,36,59,0
0,76,64,10
0,56,64,0
0,61,64,0
0,64,64,0
0,62,49,0
0,70,54,0
0,42,73,0
0,75,64,10
0,62,49,0
0,70,54,0
0,42,73,0
0,63,67,53
0,68,38,4
0,59,64,11
0,42,73,0
0,71,64,10
0,32,80,0
0,56,64,0
0,59,64,0
0,63,49,0
0,70,54,0
0,36,59,0
0,63,64,10
0,62,49,0
0,70,54,0
0,36,59,0
0,42,63,0
0,68,64,10
0,59,64,0
0,63,49,0
0,70,54,0
0,42,63,0
0,56,64,10
0,62,49,0
0,70,54,0
0,38,69,0
0,42,63,0
0,57,58,93
0,61,62,2
0,66,49,9
0,42,63,0
0,71,64,10
0,62,49,0
0,70,54,0
0,30,80,10
0,54,64,0
0,63,49,0
0,70,54,0
0,36,59,0
0,42,63,0
0,42,73,0
0,57,64,10
0,62,49,0
0,70,54,0
0,61,64,10
0,62,49,0
0,70,54,0
0,42,63,0
0,42,73,160
0,57,64,10
0,64,64,0
0,63,49,0
0,70,54,0
0,36,59,0
0,62,49,10
0,70,54,0
0,36,59,0
0,42,63,0
0,63,49,10
0,70,54,0
0,42,63,0
0,42,63,0
0,62,49,10
0,70,54,0
0,38,69,0
0,46,72,130
0,62,49,10
0,70,54,0
0,40,80,10
0,59,64,0
0,63,49,0
0,70,54,0
0,36,59,0
0,64,73,3
0,52,66,2
0,59,72,1
0,42,63,4
0,42,73,0
0,66,64,10
0,62,49,0
0,70,54,0
0,42,73,150
0,71,64,10
0,62,49,0
0,70,54,0
0,74,64,10
0,63,49,0
0,70,54,0
0,36,59,0
0,42,73,0
0,62,49,10
0,70,54,0
0,36,59,0
0,42,63,0
0,42,63,130
0,66,64,10
0,63,49,0
0,70,54,0
0,52,80,10
0,71,64,0
0,62,49,0
0,70,54,0
0,38,69,0
0,42,63,0
0,66,64,10
0,62,49,0
0,70,54,0
0,42,63,0
0,42,63,0
0,40,80,10
0,63,49,0
0,70,54,0
0,36,59,0
0,42,73,0
0,59,64,10
0,62,49,0
0,70,54,0
0,42,63,160
0,66,64,10
0,62,49,0
0,70,54,0
0,42,73,170
0,71,64,10
0,63,49,0
0,70,54,0
0,36,59,0
0,42,63,130
0,74,64,10
0,62,49,0
0,70,54,0
0,36,59,0
0,42,63,130
0,66,64,10
0,63,49,0
0,70,54,0
0,52,80,10
0,71,64,0
0,62,49,0
0,70,54,0
0,42,63,0
0,38,69,0
0,66,64,10
0,62,49,0
0,70,54,0
0,46,72,0
0,40,80,10
0,63,49,0
0,70,54,0
0,36,59,0
0,42,73,20
0,59,64,10
0,62,49,0
0,70,54,0
0,42,73,0
0,66,64,10
0,62,49,0
0,70,54,0
0,42,63,10
0,71,64,10
0,63,49,0
0,70,54,0
0,36,59,0
0,42,73,0
0,74,64,10
0,62,49,0
0,70,54,0
0,36,59,0
0,42,63,0
0,42,63,0
0,66,64,10
0,63,49,0
0,70,54,0
0,52,80,10
0,71,64,0
0,62,49,0
0,70,54,0
0,38,69,0
0,42,63,0
0,42,63,0
0,66,64,10
0,62,49,0
0,70,54,0
0,40,80,10
0,63,49,0
0,70,54,0
0,36,59,0
0,42,63,0
0,42,73,0
0,59,64,10
0,62,49,0
0,70,54,0
0,66,64,10
0,62,49,0
0,70,54,0
0,42,63,0
0,42,73,0
0,71,64,10
0,63,49,0
0,70,54,0
0,36,59,0
0,74,64,10
0,62,49,0
0,70,54,0
0,36,59,0
0,42,63,0
0,66,64,10
0,63,49,0
0,70,54,0
0,38,69,0
0,42,63,0
0,42,63,130
0,52,80,10
0,71,64,0
0,62,49,0
0,70,54,0
0,38,69,0
0,46,72,0
0,47,80,10
0,62,49,0
0,70,54,0
0,71,64,10
0,40,80,0
0,59,64,0
0,64,64,0
0,59,65,0
0,67,54,0
0,64,68,0
0,63,49,0
0,70,54,0
0,49,83,0
0,36,59,0
0,42,73,0
0,72,64,10
0,72,64,0
0,62,49,0
0,70,54,0
0,42,63,0
0,71,64,10
0,71,64,0
0,62,49,0
0,70,54,0
0,66,68,104
0,62,72,18
0,42,73,17
0,66,64,10
0,40,80,0
0,62,64,0
0,66,64,0
0,74,64,0
0,63,49,0
0,70,54,0
0,36,59,0
0,42,63,130
0,62,49,10
0,70,54,0
0,36,59,0
0,42,63,130
0,69,64,10
0,63,49,0
0,70,54,0
0,42,63,180
0,47,80,10
0,62,49,0
0,70,54,0
0,38,69,0
0,42,63,0
0,71,64,10
0,62,49,0
0,70,54,0
0,64,76,110
0,59,72,6
0,67,58,0
0,42,63,0
0,40,80,10
0,59,64,0
0,64,64,0
0,63,49,0
0,70,54,0
0,36,59,0
0,42,73,0
0,72,64,10
0,72,64,0
0,62,49,0
0,70,54,0
0,42,63,0
0,71,64,10
0,71,64,0
0,62,49,0
0,70,54,0
0,66,73,118
0,62,63,14
0,42,73,0
0,66,64,10
0,40,80,0
0,62,64,0
0,66,64,0
0,74,64,0
0,63,49,0
0,70,54,0
0,36,59,0
0,42,63,0
0,62,49,10
0,70,54,0
0,36,59,0
0,42,63,130
0,69,64,10
0,63,49,0
0,70,54,0
0,42,63,160
0,47,80,10
0,62,49,0
0,70,54,0
0,38,69,0
0,46,72,100
0,71,64,10
0,62,49,0
0,70,54,0
0,42,63,100
0,67,79,23
0,64,75,6
0,59,68,0
0,40,80,10
0,59,64,0
0,64,64,0
0,67,64,0
0,63,49,0
0,70,54,0
0,36,59,0
0,42,73,0
0,71,64,10
0,64,64,0
0,62,49,0
0,70,54,0
0,59,64,10
0,62,49,0
0,70,54,0
0,42,63,0
0,66,62,0
0,62,56,19
0,42,73,21
0,64,64,10
