track,note,velocity,time
1,74,123,4259
1,74,119,76
1,76,119,62
1,74,124,974
1,74,115,15
1,79,113,66
1,78,123,75
1,74,124,4819
1,74,121,79
1,76,121,74
1,74,113,486
1,74,102,86
1,79,107,54
1,78,123,53
1,74,123,4788
1,74,123,84
1,76,123,81
1,74,124,867
1,79,121,3
1,78,125,43
1,79,123,60
1,81,121,51
1,81,126,631
1,79,117,80
1,78,117,82
1,74,119,31
1,71,111,15
1,74,123,14
1,74,126,10
1,74,119,67
1,76,121,76
1,74,127,840
1,79,115,15
1,78,127,11
1,79,121,33
1,81,123,37
1,81,126,511
1,79,121,83
1,78,115,87
1,76,124,44
1,76,113,43
1,74,121,19
1,76,124,66
1,74,123,53
1,76,124,491
1,76,123,77
1,72,127,68
1,79,107,74
1,78,117,38
1,76,119,86
1,72,124,29
1,72,127,4
1,72,127,28
1,74,124,102
1,69,124,308
1,74,127,252
1,74,126,288
1,76,126,26
1,78,118,19
1,79,119,19
1,74,117,11
1,76,127,54
1,69,123,1249
1,74,123,26
1,74,123,82
1,74,119,32
1,76,119,295
1,79,124,4
1,78,119,34
1,76,109,28
1,74,117,9
1,74,119,311
1,79,115,101
1,76,109,72
1,79,106,90
1,76,111,67
1,74,123,12
1,72,126,66
1,76,113,2227
1,76,113,90
1,72,119,57
1,79,119,40
1,78,106,62
1,76,119,86
1,72,126,36
1,72,127,388
1,72,126,2
1,72,127,2
1,74,127,2
1,69,115,486
1,74,121,2
1,74,113,1
1,74,121,75
1,76,119,84
1,78,123,84
1,79,123,9
1,74,119,4
1,76,124,83
1,74,124,1665
1,74,121,92
1,74,126,81
1,76,123,93
1,79,127,96
1,79,124,21
1,78,112,21
1,76,124,0
1,74,111,37
1,74,96,93
1,76,109,38
1,76,115,110
1,79,111,66
1,76,111,359
1,74,117,0
1,72,123,133
1,74,119,2817
1,74,115,99
1,76,123,79
1,74,123,750
1,79,117,62
1,79,119,82
1,78,119,78
1,79,123,76
1,81,123,48
1,78,119,642
1,81,124,86
1,79,121,87
1,78,119,94
1,74,121,22
1,71,117,588
1,74,127,38
1,74,121,1333
1,74,117,101
1,76,123,96
1,79,119,78
1,78,115,169
1,79,119,77
1,81,126,73
1,81,115,1067
1,79,117,36
1,78,115,76
1,76,117,38
1,74,123,73
1,76,111,267
1,74,121,104
1,76,126,86
1,74,127,10
1,74,123,555
1,74,123,84
1,76,123,81
1,74,124,867
1,79,121,3
1,78,125,43
1,79,123,60
1,81,121,51
1,81,126,631
1,79,117,80
1,78,117,82
1,74,119,31
1,71,111,15
1,74,123,14
1,74,126,10
1,74,119,67
1,76,121,76
1,74,127,840
1,79,115,15
1,78,127,11
1,79,121,33
1,81,123,37
1,81,126,511
1,79,121,83
1,78,115,87
1,76,124,44
1,76,113,43
1,74,121,19
1,76,124,66
1,74,123,53
1,76,124,491
1,76,123,77
1,72,127,68
1,79,107,74
1,78,117,38
1,76,119,86
1,72,124,29
1,72,127,4
1,72,127,28
1,74,124,102
1,69,124,308
1,74,127,252
1,74,126,288
1,76,126,26
1,78,118,19
1,79,119,19
1,74,117,11
1,76,127,54
1,69,123,1249
1,74,123,26
1,74,123,82
1,74,119,32
1,76,119,295
1,79,124,4
1,78,119,34
1,76,109,28
1,74,117,9
1,74,119,311
1,79,115,101
1,76,109,72
1,79,106,90
1,76,111,67
1,74,123,12
1,72,126,66
1,76,113,2227
1,76,113,90
1,72,119,57
1,79,119,40
1,78,106,62
1,76,119,86
1,72,126,36
1,72,127,388
1,72,126,2
1,72,127,2
1,72,127,0
1,74,127,2
1,74,124,2
1,69,115,246
1,74,121,2
1,74,113,1
1,74,121,75
1,76,119,84
1,78,123,84
1,79,123,9
1,74,119,4
1,76,124,83
1,69,126,1413
1,74,124,14
1,74,121,92
1,74,126,81
1,76,123,93
1,79,127,96
1,79,124,21
1,78,112,21
1,76,124,0
1,74,111,37
1,74,96,93
1,76,109,38
1,76,115,110
1,79,111,66
1,76,111,359
1,74,117,0
1,72,123,133
1,74,124,18184
1,74,121,79
1,76,121,74
1,74,113,486
1,74,102,86
1,79,107,54
1,78,123,53
1,74,123,4788
1,74,123,84
1,76,123,81
1,74,124,867
1,79,121,3
1,78,125,43
1,79,123,60
1,81,121,51
1,81,126,631
1,79,117,80
1,78,117,82
1,74,119,31
1,71,111,15
1,74,123,14
1,74,126,10
1,74,119,67
1,76,121,76
1,74,127,840
1,79,115,15
1,78,127,11
1,79,121,33
1,81,123,37
1,81,126,511
1,79,121,83
1,78,115,87
1,76,124,44
1,76,113,43
1,74,121,19
1,76,124,66
1,74,123,53
1,74,124,706
1,74,121,79
1,76,121,74
1,74,113,486
1,74,102,86
1,79,107,54
1,78,123,53
1,74,123,4788
1,74,123,84
1,76,123,81
1,74,124,867
1,79,121,3
1,78,125,43
1,79,123,60
1,81,121,51
1,81,126,671
1,79,121,83
1,78,115,87
1,76,124,44
1,76,113,43
1,74,121,19
1,76,124,66
1,74,123,53
1,81,126,704
1,79,121,83
1,78,115,87
1,76,124,44
1,76,113,43
1,74,121,19
1,76,124,66
1,74,123,53
3,78,104,4204
3,74,109,0
3,69,109,0
3,67,102,2
3,76,106,0
3,74,101,0
3,79,113,2
3,71,117,0
3,74,113,0
3,78,112,24
3,76,97,218
3,74,98,0
3,69,102,0
3,78,117,2
3,74,113,0
3,69,106,0
3,74,106,482
3,69,107,0
3,78,101,0
3,78,102,2
3,74,106,0
3,67,104,0
3,76,83,2
3,67,85,0
3,74,98,0
3,81,102,2
3,71,107,0
3,74,111,0
3,74,109,9
3,76,109,233
3,69,107,0
3,74,106,0
3,69,104,2
3,78,115,0
3,74,115,0
3,78,104,482
3,74,109,0
3,69,109,0
3,67,102,2
3,76,106,0
3,74,101,0
3,79,113,2
3,71,117,0
3,74,113,0
3,78,112,9
3,76,97,233
3,74,98,0
3,69,102,0
3,78,117,2
3,74,113,0
3,69,106,0
3,78,106,482
3,69,95,0
3,74,109,0
3,81,119,5
3,76,102,237
3,74,109,0
3,71,109,0
3,62,107,2
3,72,111,0
3,67,106,0
3,76,85,0
3,62,115,2
3,76,86,0
3,72,104,0
3,67,101,0
3,74,115,2
3,74,104,2
3,76,106,0
3,67,97,0
3,74,106,2
3,78,102,0
3,69,106,0
3,78,104,482
3,74,109,0
3,69,109,0
3,67,102,2
3,76,106,0
3,74,101,0
3,79,113,2
3,71,117,0
3,74,113,0
3,78,112,11
3,76,97,231
3,74,98,0
3,69,102,0
3,78,117,2
3,74,113,0
3,69,106,0
3,74,106,482
3,69,107,0
3,78,101,0
3,78,102,2
3,74,106,0
3,67,104,0
3,76,83,2
3,67,85,0
3,74,98,0
3,81,102,2
3,71,107,0
3,74,111,0
3,74,109,7
3,76,109,235
3,69,107,0
3,74,106,0
3,69,104,2
3,78,115,0
3,74,115,0
3,78,104,482
3,74,109,0
3,69,109,0
3,67,102,2
3,76,106,0
3,74,101,0
3,79,113,2
3,71,117,0
3,74,113,0
3,78,112,11
3,76,97,231
3,74,98,0
3,69,102,0
3,78,117,2
3,74,113,0
3,69,106,0
3,78,106,482
3,69,95,0
3,74,109,0
3,81,119,2
3,76,102,2
3,74,109,0
3,71,109,0
3,62,107,2
3,72,111,0
3,67,106,0
3,76,85,0
3,62,115,2
3,76,86,0
3,72,104,0
3,67,101,0
3,74,115,2
3,74,104,2
3,76,106,0
3,67,97,0
3,74,106,2
3,78,102,0
3,69,106,0
3,50,127,2
3,84,121,480
3,77,117,0
3,62,121,0
3,69,126,0
3,81,121,2
3,74,111,0
3,66,127,0
3,62,122,0
3,74,117,2
3,79,126,0
3,52,127,0
3,81,109,2
3,74,109,0
3,54,127,0
3,83,113,2
3,74,109,0
3,55,123,0
3,50,124,2
3,84,117,480
3,77,111,0
3,69,118,0
3,62,111,0
3,74,127,2
3,81,127,0
3,66,127,0
3,62,109,0
3,74,115,2
3,79,124,0
3,52,127,0
3,74,113,2
3,81,119,0
3,54,127,0
3,74,115,2
3,83,121,0
3,55,123,0
3,50,124,2
3,84,127,480
3,77,123,0
3,69,118,0
3,62,111,0
3,74,109,2
3,81,119,0
3,66,127,0
3,62,109,0
3,74,109,2
3,79,121,0
3,52,127,0
3,74,104,2
3,81,119,0
3,54,127,0
3,83,102,2
3,74,101,0
3,55,123,0
3,76,100,2
3,81,91,0
3,79,104,0
3,72,100,0
3,57,124,0
3,76,119,2
3,79,113,0
3,72,117,0
3,57,121,0
3,76,124,2
3,76,98,2
3,79,100,0
3,72,101,0
3,81,100,0
3,57,123,0
3,84,100,2
3,79,97,0
3,81,92,0
3,76,109,0
3,50,121,0
3,52,127,2
3,55,124,2
3,57,126,2
3,50,127,2
3,84,121,480
3,77,117,0
3,62,121,0
3,69,126,0
3,81,121,2
3,74,111,0
3,66,127,0
3,62,122,0
3,74,117,2
3,79,126,0
3,52,127,0
3,81,109,2
3,74,109,0
3,54,127,0
3,83,113,2
3,74,109,0
3,55,123,0
3,50,124,2
3,84,117,480
3,77,111,0
3,69,118,0
3,62,111,0
3,74,127,2
3,81,127,0
3,66,127,0
3,62,109,0
3,74,115,2
3,79,124,0
3,52,127,0
3,74,113,2
3,81,119,0
3,54,127,0
3,74,115,2
3,83,121,0
3,55,123,0
3,50,124,2
3,84,127,480
3,77,123,0
3,69,118,0
3,62,111,0
3,74,109,2
3,81,119,0
3,66,127,0
3,62,109,0
3,74,109,2
3,79,121,0
3,52,127,0
3,74,104,2
3,81,119,0
3,54,127,0
3,83,102,2
3,74,101,0
3,55,123,0
3,76,100,2
3,81,91,0
3,79,104,0
3,72,100,0
3,57,124,0
3,76,119,2
3,79,113,0
3,72,117,0
3,57,121,0
3,76,124,2
3,76,98,2
3,79,100,0
3,72,101,0
3,81,100,0
3,57,123,0
3,84,100,2
3,79,97,0
3,81,92,0
3,76,109,0
3,50,121,0
3,52,127,2
3,55,124,2
3,57,126,2
3,78,104,482
3,74,109,0
3,69,109,0
3,67,102,2
3,76,106,0
3,74,101,0
3,79,113,2
3,71,117,0
3,74,113,0
3,78,112,11
3,76,97,231
3,74,98,0
3,69,102,0
3,78,117,2
3,74,113,0
3,69,106,0
3,74,106,482
3,69,107,0
3,78,101,0
3,78,102,2
3,74,106,0
3,67,104,0
3,76,83,2
3,67,85,0
3,74,98,0
3,81,102,2
3,71,107,0
3,74,111,0
3,74,109,7
3,76,109,235
3,69,107,0
3,74,106,0
3,69,104,2
3,78,115,0
3,74,115,0
3,78,104,482
3,74,109,0
3,69,109,0
3,67,102,2
3,76,106,0
3,74,101,0
3,79,113,2
3,71,117,0
3,74,113,0
3,78,112,11
3,76,97,231
3,74,98,0
3,69,102,0
3,78,117,2
3,74,113,0
3,69,106,0
3,78,106,482
3,69,95,0
3,74,109,0
3,81,119,2
3,76,102,2
3,74,109,0
3,71,109,0
3,62,107,2
3,72,111,0
3,67,106,0
3,76,85,0
3,62,115,2
3,76,86,0
3,72,104,0
3,67,101,0
3,74,115,2
3,74,104,2
3,76,106,0
3,67,97,0
3,74,106,2
3,78,102,0
3,69,106,0
3,78,104,482
3,74,109,0
3,69,109,0
3,67,102,2
3,76,106,0
3,74,101,0
3,79,113,2
3,71,117,0
3,74,113,0
3,78,112,11
3,76,97,231
3,74,98,0
3,69,102,0
3,78,117,2
3,74,113,0
3,69,106,0
3,74,106,482
3,69,107,0
3,78,101,0
3,78,102,2
3,74,106,0
3,67,104,0
3,76,83,2
3,67,85,0
3,74,98,0
3,81,102,2
3,71,107,0
3,74,111,0
3,74,109,7
3,76,109,235
3,69,107,0
3,74,106,0
3,69,104,2
3,78,115,0
3,74,115,0
3,78,104,482
3,74,109,0
3,69,109,0
3,67,102,2
3,76,106,0
3,74,101,0
3,79,113,2
3,71,117,0
3,74,113,0
3,78,112,11
3,76,97,231
3,74,98,0
3,69,102,0
3,78,117,2
3,74,113,0
3,69,106,0
3,78,106,482
3,69,95,0
3,74,109,0
3,81,119,2
3,76,102,2
3,74,109,0
3,71,109,0
3,62,107,2
3,72,111,0
3,67,106,0
3,76,85,0
3,62,115,2
3,76,86,0
3,72,104,0
3,67,101,0
3,74,115,2
3,74,104,2
3,76,106,0
3,67,97,0
3,74,106,2
3,78,102,0
3,69,106,0
3,50,127,2
3,84,121,480
3,77,117,0
3,62,121,0
3,69,126,0
3,81,121,2
3,74,111,0
3,66,127,0
3,62,122,0
3,74,117,2
3,79,126,0
3,52,127,0
3,81,109,2
3,74,109,0
3,54,127,0
3,83,113,2
3,74,109,0
3,55,123,0
3,50,124,2
3,84,117,480
3,77,111,0
3,69,118,0
3,62,111,0
3,74,127,2
3,81,127,0
3,66,127,0
3,62,109,0
3,74,115,2
3,79,124,0
3,52,127,0
3,74,113,2
3,81,119,0
3,54,127,0
3,74,115,2
3,83,121,0
3,55,123,0
3,50,124,2
3,84,127,480
3,77,123,0
3,69,118,0
3,62,111,0
3,74,109,2
3,81,119,0
3,66,127,0
3,62,109,0
3,74,109,2
3,79,121,0
3,52,127,0
3,74,104,2
3,81,119,0
3,54,127,0
3,83,102,2
3,74,101,0
3,55,123,0
3,76,100,2
3,81,91,0
3,79,104,0
3,72,100,0
3,57,124,0
3,76,119,2
3,79,113,0
3,72,117,0
3,57,121,0
3,76,124,2
3,76,98,2
3,79,100,0
3,72,101,0
3,81,100,0
3,57,123,0
3,84,100,2
3,79,97,0
3,81,92,0
3,76,109,0
3,50,121,0
3,52,127,2
3,55,124,2
3,57,126,2
3,50,127,2
3,84,121,480
3,77,117,0
3,62,121,0
3,69,126,0
3,81,121,2
3,74,111,0
3,66,127,0
3,62,122,0
3,74,117,2
3,79,126,0
3,52,127,0
3,81,109,2
3,74,109,0
3,54,127,0
3,83,113,2
3,74,109,0
3,55,123,0
3,50,124,2
3,84,117,480
3,77,111,0
3,69,118,0
3,62,111,0
3,74,127,2
3,81,127,0
3,66,127,0
3,62,109,0
3,74,115,2
3,79,124,0
3,52,127,0
3,74,113,2
3,81,119,0
3,54,127,0
3,74,115,2
3,83,121,0
3,55,123,0
3,50,124,2
3,84,127,480
3,77,123,0
3,69,118,0
3,62,111,0
3,74,109,2
3,81,119,0
3,66,127,0
3,62,109,0
3,74,109,2
3,79,121,0
3,52,127,0
3,74,104,2
3,81,119,0
3,54,127,0
3,83,102,2
3,74,101,0
3,55,123,0
3,76,100,2
3,81,91,0
3,79,104,0
3,72,100,0
3,57,124,0
3,76,119,2
3,79,113,0
3,72,117,0
3,57,121,0
3,76,124,2
3,76,98,2
3,79,100,0
3,72,101,0
3,81,100,0
3,57,123,0
3,84,100,2
3,79,97,0
3,81,92,0
3,76,109,0
3,50,121,0
3,52,127,2
3,55,124,2
3,57,126,2
3,89,106,2
3,86,97,0
3,93,100,0
3,83,101,0
3,88,106,2
3,95,109,0
3,91,102,0
3,84,102,0
3,81,89,2
3,84,101,0
3,88,85,0
3,77,106,0
3,77,102,2
3,81,100,0
3,84,107,0
3,74,104,0
3,83,100,482
3,89,109,0
3,93,104,0
3,86,100,0
3,81,111,2
3,88,100,0
3,91,106,0
3,84,101,0
3,88,95,2
3,84,102,0
3,81,101,0
3,77,106,0
3,79,96,2
3,83,95,0
3,76,102,0
3,86,93,0
3,86,96,482
3,89,102,0
3,93,96,0
3,83,95,0
3,84,102,2
3,88,98,0
3,91,86,0
3,81,93,0
3,81,100,2
3,88,98,0
3,84,104,0
3,77,96,0
3,77,96,2
3,81,88,0
3,84,104,0
3,74,95,0
3,87,88,482
3,94,79,0
3,86,70,0
3,91,100,0
3,84,98,2
3,88,101,0
3,91,97,0
3,81,102,0
3,82,104,2
3,89,106,0
3,86,109,0
3,77,100,0
3,81,91,2
3,84,107,0
3,89,107,0
3,77,98,0
3,91,102,2
3,83,104,0
3,86,100,0
3,79,89,0
3,78,104,482
3,74,109,0
3,69,109,0
3,67,102,2
3,76,106,0
3,74,101,0
3,79,113,2
3,71,117,0
3,74,113,0
3,78,112,9
3,76,97,233
3,74,98,0
3,69,102,0
3,78,117,2
3,74,113,0
