track,note,velocity,time
1,80,104,480
1,72,105,0
1,84,100,0
1,78,114,0
1,72,105,0
1,82,114,0
1,84,121,720
1,72,118,0
1,80,117,0
1,72,109,0
1,82,117,0
1,78,120,0
1,78,108,720
1,70,123,0
1,82,110,0
1,76,116,0
1,70,114,0
1,80,117,0
1,78,100,720
1,70,114,0
1,82,108,0
1,76,118,0
1,70,117,0
1,80,108,0
1,80,104,720
1,72,105,0
1,84,100,0
1,78,114,0
1,72,105,0
1,82,114,0
1,84,121,720
1,72,118,0
1,80,117,0
1,72,109,0
1,82,117,0
1,78,120,0
1,78,108,720
1,70,123,0
1,82,110,0
1,76,116,0
1,70,114,0
1,80,117,0
1,78,100,720
1,70,114,0
1,82,108,0
1,76,118,0
1,70,117,0
1,80,108,0
1,67,90,104880
1,76,90,0
1,72,90,0
1,69,90,0
1,64,107,0
1,71,109,0
1,67,109,0
1,65,123,0
1,72,127,0
1,69,127,0
1,64,113,0
1,67,123,0
1,71,125,0
1,62,121,0
1,65,127,0
1,69,127,0
1,64,111,0
1,67,116,0
1,71,116,0
1,65,125,0
1,72,126,0
1,69,126,0
1,74,126,0
1,67,118,0
1,71,127,0
1,67,90,0
1,76,90,0
1,72,90,0
1,69,90,0
1,64,107,0
1,71,109,0
1,67,109,0
1,65,123,0
1,72,127,0
1,69,127,0
1,64,113,0
1,67,123,0
1,71,125,0
1,62,121,0
1,65,127,0
1,69,127,0
1,64,111,0
1,67,116,0
1,71,116,0
1,65,125,0
1,72,126,0
1,69,126,0
1,74,126,0
1,67,118,0
1,71,127,0
1,67,90,66240
1,76,90,0
1,72,90,0
1,69,90,0
1,64,107,0
1,71,109,0
1,67,109,0
1,65,123,0
1,72,127,0
1,69,127,0
1,64,113,0
1,67,123,0
1,71,125,0
1,62,121,0
1,65,127,0
1,69,127,0
1,64,111,0
1,67,116,0
1,71,116,0
1,65,125,0
1,72,126,0
1,69,126,0
1,74,126,0
1,67,118,0
1,71,127,0
1,67,90,0
1,76,90,0
1,72,90,0
1,69,90,0
1,64,107,0
1,71,109,0
1,67,109,0
1,65,123,0
1,72,127,0
1,69,127,0
1,64,113,0
1,67,123,0
1,71,125,0
1,62,121,0
1,65,127,0
1,69,127,0
1,64,111,0
1,67,116,0
1,71,116,0
1,65,125,0
1,72,126,0
1,69,126,0
1,74,126,0
1,67,118,0
1,71,127,0
1,67,90,0
1,76,90,0
1,72,90,0
1,69,90,0
1,64,107,0
1,71,109,0
1,67,109,0
1,65,123,0
1,72,127,0
1,69,127,0
1,64,113,0
1,67,123,0
1,71,125,0
1,62,121,0
1,65,127,0
1,69,127,0
1,64,111,0
1,67,116,0
1,71,116,0
1,65,125,0
1,72,126,0
1,69,126,0
1,74,126,0
1,67,118,0
1,71,127,0
1,67,90,0
1,76,90,0
1,72,90,0
1,69,90,0
1,64,107,0
1,71,109,0
1,67,109,0
1,65,123,0
1,72,127,0
1,69,127,0
1,64,113,0
1,67,123,0
1,71,125,0
1,62,121,0
1,65,127,0
1,69,127,0
1,64,111,0
1,67,116,0
1,71,116,0
1,65,125,0
1,72,126,0
1,69,126,0
1,74,126,0
1,67,118,0
1,71,127,0
1,80,104,480
1,72,105,0
1,84,100,0
1,78,114,0
1,72,105,0
1,82,114,0
1,84,121,720
1,72,118,0
1,80,117,0
1,72,109,0
1,82,117,0
1,78,120,0
1,78,108,720
1,70,123,0
1,82,110,0
1,76,116,0
1,70,114,0
1,80,117,0
1,78,100,720
1,70,114,0
1,82,108,0
1,76,118,0
1,70,117,0
1,80,108,0
1,80,104,720
1,72,105,0
1,84,100,0
1,78,114,0
1,72,105,0
1,82,114,0
1,84,121,720
1,72,118,0
1,80,117,0
1,72,109,0
1,82,117,0
1,78,120,0
1,78,108,720
1,70,123,0
1,82,110,0
1,76,116,0
1,70,114,0
1,80,117,0
1,78,100,720
1,70,114,0
1,82,108,0
1,76,118,0
1,70,117,0
1,80,108,0
1,67,127,30480
1,72,127,0
1,76,127,0
1,74,125,0
1,67,123,0
1,72,125,0
1,77,127,0
1,74,127,0
1,70,127,0
1,77,127,120
1,72,127,0
1,81,123,0
1,72,126,0
1,79,126,0
1,77,121,0
1,84,113,0
1,72,113,0
1,76,113,0
1,79,113,0
1,76,127,120
1,67,127,0
1,72,127,0
1,67,111,0
1,74,126,0
1,72,127,0
1,77,118,0
1,70,127,0
1,74,127,0
1,77,127,120
1,81,126,0
1,72,127,0
1,72,107,0
1,77,107,0
1,81,107,0
1,77,121,0
1,79,127,0
1,72,126,0
1,79,113,0
1,72,105,0
1,84,60,0
1,76,116,0
1,76,127,120
1,72,127,0
1,67,125,0
1,67,125,0
1,74,123,0
1,72,126,0
1,69,127,0
1,77,118,0
1,74,127,0
1,76,127,0
1,71,126,0
1,79,125,0
1,81,76,0
1,69,127,0
1,76,126,0
1,72,127,0
1,79,81,120
1,67,81,0
1,72,81,0
1,76,81,0
1,67,93,0
1,72,93,0
1,76,93,0
1,79,93,0
1,67,123,0
1,74,121,0
1,72,125,0
1,74,126,0
1,70,125,0
1,77,123,0
1,81,123,120
1,77,127,0
1,72,127,0
1,72,125,0
1,77,123,0
1,79,123,0
1,79,90,0
1,84,60,0
1,72,109,0
1,76,121,0
1,67,127,15120
1,72,127,0
1,76,127,0
1,74,125,0
1,67,123,0
1,72,125,0
1,77,127,0
1,74,127,0
1,70,127,0
1,77,127,120
1,72,127,0
1,81,123,0
1,72,116,0
1,77,116,0
1,81,116,0
1,72,126,0
1,79,126,0
1,77,121,0
1,84,113,0
1,72,113,0
1,76,113,0
1,79,113,0
1,76,127,120
1,67,127,0
1,72,127,0
1,67,111,0
1,74,126,0
1,72,127,0
1,77,118,0
1,70,127,0
1,74,127,0
1,77,127,120
1,81,126,0
1,72,127,0
1,72,107,0
1,77,107,0
1,81,107,0
1,77,121,0
1,79,127,0
1,72,126,0
1,79,113,0
1,72,105,0
1,84,60,0
1,76,116,0
1,76,127,120
1,72,127,0
1,67,125,0
1,67,113,0
1,72,113,0
1,76,113,0
1,67,125,0
1,74,123,0
1,72,126,0
1,69,127,0
1,77,118,0
1,74,127,0
1,76,127,0
1,71,126,0
1,79,125,0
1,81,76,0
1,69,127,0
1,76,126,0
1,72,127,0
1,79,81,120
1,67,81,0
1,72,81,0
1,76,81,0
1,67,93,0
1,72,93,0
1,76,93,0
1,79,93,0
1,67,123,0
1,74,121,0
1,72,125,0
1,74,126,0
1,70,125,0
1,77,123,0
1,81,123,120
1,77,127,0
1,72,127,0
1,72,125,0
1,77,123,0
1,79,123,0
1,79,90,0
1,84,60,0
1,72,109,0
1,76,121,0
1,76,127,0
1,72,127,0
1,67,127,0
1,76,107,0
1,72,107,0
1,67,107,0
1,72,125,0
1,67,123,0
1,74,125,0
1,77,127,0
1,74,127,0
1,70,127,0
1,77,127,0
1,72,127,0
1,81,123,0
1,72,116,0
1,77,116,0
1,81,116,0
1,72,126,0
1,79,126,0
1,77,121,0
1,84,113,0
1,72,113,0
1,76,113,0
1,79,113,0
1,76,127,0
1,67,127,0
1,72,127,0
1,67,116,0
1,72,116,0
1,76,116,0
1,67,111,0
1,74,126,0
1,72,127,0
1,77,118,0
1,70,127,0
1,74,127,0
1,77,127,0
1,81,126,0
1,72,127,0
1,72,107,0
1,77,107,0
1,81,107,0
1,77,121,0
1,79,127,0
1,72,126,0
1,79,113,0
1,72,105,0
1,84,60,0
1,76,116,0
1,76,127,0
1,72,127,0
1,67,125,0
1,67,113,0
1,72,113,0
1,76,113,0
1,67,125,0
1,74,123,0
1,72,126,0
1,69,127,0
1,77,118,0
1,74,127,0
1,76,127,0
1,71,126,0
1,79,125,0
1,81,76,0
1,69,127,0
1,76,126,0
1,72,127,0
1,79,81,0
1,67,81,0
1,72,81,0
1,76,81,0
1,67,93,0
1,72,93,0
1,76,93,0
1,79,93,0
1,67,123,0
1,74,121,0
1,72,125,0
1,74,126,0
1,70,125,0
1,77,123,0
1,81,123,0
1,77,127,0
1,72,127,0
1,72,116,0
1,77,116,0
1,81,116,0
1,72,125,0
1,77,123,0
1,79,123,0
1,79,90,0
1,84,60,0
1,72,109,0
1,76,121,0
2,63,102,127920
2,52,95,0
2,57,118,0
2,61,90,0
2,63,108,0
2,52,121,0
2,57,126,0
2,61,108,0
2,63,120,240
2,52,113,0
2,57,126,0
2,61,102,0
2,63,120,0
2,52,118,0
2,57,126,0
2,61,102,0
2,63,120,240
2,52,109,0
2,57,125,0
2,61,92,0
2,63,114,0
2,52,116,0
2,57,126,0
2,61,102,0
2,63,123,240
2,52,109,0
2,57,126,0
2,61,106,0
2,63,117,0
2,52,116,0
2,57,127,0
2,61,110,0
2,63,114,240
2,57,118,0
2,60,116,0
2,65,118,0
2,63,120,0
2,57,125,0
2,60,123,0
2,65,121,0
2,63,114,240
2,65,118,0
2,57,118,0
2,60,121,0
2,63,108,0
2,57,125,0
2,60,121,0
2,65,121,0
2,63,104,240
2,58,108,0
2,61,106,0
2,66,96,0
2,63,106,0
2,61,104,0
2,58,110,0
2,66,110,0
2,63,114,240
2,66,108,0
2,61,108,0
2,58,114,0
2,63,104,0
2,63,117,0
2,68,110,0
2,60,93,0
3,63,82,73920
3,65,98,0
3,68,69,0
3,60,76,0
3,72,52,0
3,69,99,42240
3,60,109,0
3,64,113,0
3,60,116,0
3,64,123,0
3,69,100,0
3,69,99,66240
3,60,109,0
3,64,113,0
3,60,116,0
3,64,123,0
3,69,100,0
3,69,99,0
3,60,109,0
3,64,113,0
3,60,116,0
3,64,123,0
3,69,100,0
4,61,58,26880
4,73,90,120
4,61,64,120
4,73,85,120
4,61,61,120
4,73,92,120
4,61,61,120
4,73,102,120
4,61,58,120
4,73,90,120
4,61,64,120
4,73,85,120
4,61,61,120
4,73,92,120
4,61,61,120
4,73,102,120
4,61,58,120
4,73,90,120
4,61,64,120
4,73,85,120
4,61,61,120
4,73,92,120
4,61,61,120
4,73,102,120
4,61,58,120
4,73,90,120
4,61,64,120
4,73,85,120
4,61,61,120
4,73,92,120
4,61,61,120
4,73,102,120
4,61,58,7800
4,73,90,120
4,61,64,120
4,73,85,120
4,61,61,120
4,73,92,120
4,61,61,120
4,73,102,120
4,61,58,120
4,73,90,120
4,61,64,120
4,73,85,120
4,61,61,120
4,73,92,120
4,61,61,120
4,73,102,120
4,61,58,120
4,73,90,120
4,61,64,120
4,73,85,120
4,61,61,120
4,73,92,120
4,61,61,120
4,73,102,120
4,61,58,120
4,73,90,120
4,61,64,120
4,73,85,120
4,61,61,120
4,73,92,120
4,61,61,120
4,73,102,120
4,61,58,7800
4,73,90,120
4,61,64,120
4,73,85,120
4,61,61,120
4,73,92,120
4,61,61,120
4,73,102,120
4,61,58,120
4,73,90,120
4,61,64,120
4,73,85,120
4,61,61,120
4,73,92,120
4,61,61,120
4,73,102,120
4,61,58,120
4,73,90,120
4,61,64,120
4,73,85,120
4,61,61,120
4,73,92,120
4,61,61,120
4,73,102,120
4,61,58,120
4,73,90,120
4,61,64,120
4,73,85,120
4,61,61,120
4,73,92,120
4,61,61,120
4,73,102,120
4,65,105,35640
4,63,120,0
4,60,79,0
4,58,117,0
4,60,93,0
4,61,58,36480
4,73,90,120
4,61,64,120
4,73,85,120
4,61,61,120
4,73,92,120
4,61,61,120
4,73,102,120
4,61,58,120
4,73,90,120
4,61,64,120
4,73,85,120
4,61,61,120
4,73,92,120
4,61,61,120
4,73,102,120
4,61,58,120
4,73,90,120
4,61,64,120
4,73,85,120
4,61,61,120
4,73,92,120
4,61,61,120
4,73,102,120
4,61,58,120
4,73,90,120
4,61,64,120
4,73,85,120
4,61,61,120
4,73,92,120
4,61,61,120
4,73,102,120
4,61,58,7800
4,73,90,120
4,61,64,120
4,73,85,120
4,61,61,120
4,73,92,120
4,61,61,120
4,73,102,120
4,61,58,120
4,73,90,120
4,61,64,120
4,73,85,120
4,61,61,120
4,73,92,120
4,61,61,120
4,73,102,120
4,61,58,120
4,73,90,120
4,61,64,120
4,73,85,120
4,61,61,120
4,73,92,120
4,61,61,120
4,73,102,120
4,61,58,120
4,73,90,120
4,61,64,120
4,73,85,120
4,61,61,120
4,73,92,120
4,61,61,120
4,73,102,120
4,65,105,8760
4,63,120,0
4,60,96,0
4,58,123,0
4,60,111,0
4,79,126,51120
4,74,121,0
4,76,118,0
4,72,126,0
4,72,127,480
4,71,109,600
4,72,111,0
4,74,109,0
4,71,103,0
4,67,116,0
4,67,127,480
4,67,121,600
4,69,111,0
4,72,116,0
4,71,125,0
4,67,103,0
4,64,121,0
4,64,127,480
4,65,113,600
4,67,111,0
4,68,108,0
4,67,118,0
4,65,118,0
4,62,121,0
4,79,126,240
4,74,121,0
4,76,118,0
4,72,126,0
4,72,127,480
4,71,109,600
4,72,111,0
4,74,109,0
4,71,103,0
4,67,116,0
4,67,127,480
4,67,121,600
4,69,111,0
4,72,116,0
4,71,125,0
4,67,103,0
4,64,121,0
4,64,127,480
4,65,113,600
4,67,111,0
4,68,108,0
4,67,118,0
4,65,118,0
4,62,121,0
4,79,126,240
4,74,121,0
4,76,118,0
4,72,126,0
4,72,127,480
4,71,109,600
4,72,111,0
4,74,109,0
4,71,103,0
4,67,116,0
4,67,127,480
4,67,121,600
4,69,111,0
4,72,116,0
4,71,125,0
4,67,103,0
4,64,121,0
4,64,127,480
4,65,113,600
4,67,111,0
4,68,108,0
4,67,118,0
4,65,118,0
4,62,121,0
4,79,126,15600
4,74,121,0
4,76,118,0
4,72,126,0
4,72,127,480
4,71,109,600
4,72,111,0
4,74,109,0
4,71,103,0
4,67,116,0
4,67,127,480
4,67,121,600
4,69,111,0
4,72,116,0
4,71,125,0
4,67,103,0
4,64,121,0
4,64,127,480
4,65,113,600
4,67,111,0
4,68,108,0
4,67,118,0
4,65,118,0
4,62,121,0
4,79,126,240
4,74,121,0
4,76,118,0
4,72,126,0
4,72,127,480
4,71,109,600
4,72,111,0
4,74,109,0
4,71,103,0
4,67,116,0
4,67,127,480
4,67,121,600
4,69,111,0
4,72,116,0
4,71,125,0
4,67,103,0
4,64,121,0
4,64,127,480
4,65,113,600
4,67,111,0
4,68,108,0
4,67,118,0
4,65,118,0
4,62,121,0
5,65,84,66720
5,56,96,0
5,60,85,0
5,63,46,720
5,72,116,0
5,68,116,0
5,65,116,0
5,65,116,360
5,68,116,0
5,72,116,0
5,63,46,0
5,65,116,360
5,68,116,0
5,72,116,0
5,63,46,0
5,65,116,360
5,68,116,0
5,72,116,0
5,63,46,0
5,65,116,360
5,68,116,0
5,72,116,0
5,63,46,0
5,65,116,360
5,68,116,0
5,72,116,0
5,63,46,0
5,65,116,360
5,68,116,0
5,72,116,0
5,63,46,0
5,74,116,120
5,70,116,0
5,65,116,0
5,63,46,0
5,65,116,0
5,68,116,0
5,72,116,0
5,63,46,0
5,63,46,360
5,72,116,0
5,68,116,0
5,65,116,0
5,65,116,360
5,68,116,0
5,72,116,0
5,63,46,0
5,65,116,360
5,68,116,0
5,72,116,0
5,63,46,0
5,65,116,360
5,68,116,0
5,72,116,0
5,63,46,0
5,65,116,360
5,68,116,0
5,72,116,0
5,63,46,0
5,65,116,360
5,68,116,0
5,72,116,0
5,63,46,0
5,65,116,360
5,68,116,0
5,72,116,0
5,63,46,0
5,74,116,120
5,70,116,0
5,65,116,0
5,63,46,0
5,65,116,0
5,68,116,0
5,72,116,0
5,63,46,0
5,63,46,360
5,72,116,0
5,68,116,0
5,65,116,0
5,65,116,360
5,68,116,0
5,72,116,0
5,63,46,0
5,65,116,360
5,68,116,0
5,72,116,0
5,63,46,0
5,65,116,360
5,68,116,0
5,72,116,0
5,63,46,0
5,65,116,360
5,68,116,0
5,72,116,0
5,63,46,0
5,65,116,360
5,68,116,0
5,72,116,0
5,63,46,0
5,65,116,360
5,68,116,0
5,72,116,0
5,63,46,0
5,74,116,120
5,70,116,0
5,65,116,0
5,63,46,0
5,65,116,0
5,68,116,0
5,72,116,0
5,63,46,0
5,63,46,360
5,72,116,0
