track,note,velocity,time
3,64,100,362
3,69,100,0
3,73,100,0
3,73,0,240
3,69,0,0
3,64,0,0
3,68,95,38
3,68,0,12
3,69,83,9
3,69,0,15
3,71,62,6
3,73,82,20
3,71,0,1
3,73,0,16
3,74,81,7
3,74,0,13
3,76,54,5
3,78,65,18
3,76,0,4
3,80,58,16
3,78,0,2
3,80,0,12
3,81,65,8
3,81,0,14
3,83,70,6
3,83,0,17
3,85,118,4
3,85,0,31
3,64,100,204
3,68,100,0
3,71,100,0
3,64,0,435
3,68,0,5
3,71,0,2
3,66,100,43
3,69,100,0
3,73,100,0
3,73,0,240
3,69,0,0
3,66,0,0
3,68,82,40
3,68,0,16
3,69,83,5
3,69,0,16
3,71,49,1
3,73,78,22
3,71,0,3
3,73,0,15
3,74,83,6
3,74,0,16
3,76,61,6
3,78,59,15
3,76,0,4
3,80,57,17
3,78,0,2
3,80,0,14
3,81,81,6
3,81,0,14
3,83,81,3
3,83,0,18
3,85,115,2
3,85,0,24
3,64,100,210
3,68,100,0
3,73,100,0
3,64,0,463
3,68,0,7
3,73,0,1
3,66,100,9
3,69,100,0
3,74,100,0
3,74,0,444
3,66,0,12
3,69,0,1
3,64,100,23
3,67,100,0
3,72,100,0
3,64,0,469
3,67,0,3
3,62,100,8
3,66,100,0
3,71,100,0
3,72,0,1
3,66,0,19
3,71,0,1
3,62,0,1
3,74,100,462
3,77,100,0
3,81,100,2
3,81,0,467
3,83,100,17
3,74,0,219
3,77,0,7
3,80,100,11
3,76,100,4
3,83,0,230
3,80,0,2
3,76,0,2
3,74,100,119
3,67,100,1
3,71,100,0
3,71,0,23
3,67,0,5
3,74,0,0
3,76,100,92
3,69,100,1
3,72,100,0
3,76,0,24
3,72,0,2
3,69,0,4
3,71,100,86
3,67,100,0
3,64,100,0
3,67,0,18
3,64,0,1
3,71,0,2
3,74,100,97
3,67,100,1
3,71,100,0
3,71,0,21
3,67,0,1
3,74,0,4
3,76,100,63
3,72,100,0
3,69,100,0
3,72,0,18
3,76,0,0
3,69,0,3
3,71,100,65
3,67,100,1
3,74,100,0
3,71,0,18
3,74,0,2
3,67,0,0
3,72,100,280
3,76,100,0
3,81,100,0
3,76,0,15
3,81,0,4
3,72,0,1
3,67,100,103
3,71,100,0
3,74,100,0
3,71,0,24
3,67,0,0
3,74,0,1
3,76,100,100
3,72,100,2
3,69,100,0
3,72,0,21
3,76,0,2
3,69,0,3
3,64,100,89
3,67,100,0
3,71,100,0
3,67,0,19
3,64,0,2
3,71,0,1
3,67,100,96
3,71,100,0
3,74,100,0
3,67,0,26
3,71,0,1
3,74,0,3
3,69,100,57
3,72,100,0
3,76,100,2
3,76,0,20
3,72,0,0
3,69,0,1
3,67,100,56
3,74,100,1
3,71,100,1
3,71,0,18
3,67,0,2
3,74,0,1
3,71,100,56
3,74,100,1
3,67,100,0
3,67,0,22
3,71,0,1
3,74,0,2
3,74,100,59
3,71,100,0
3,67,100,1
3,71,0,19
3,67,0,1
3,74,0,2
3,71,100,56
3,67,100,0
3,74,100,1
3,67,0,20
3,71,0,1
3,74,0,2
3,65,100,47
3,69,100,0
3,74,100,0
3,65,0,207
3,74,0,4
3,69,0,2
3,64,100,27
3,69,100,0
3,72,100,0
3,64,0,211
3,72,0,6
3,69,0,0
3,69,100,26
3,71,100,2
3,64,100,0
3,69,0,212
3,68,100,29
3,64,0,214
3,68,0,7
3,71,0,4
3,65,100,9
3,69,100,0
3,74,100,0
3,65,0,209
3,74,0,3
3,69,0,6
3,72,100,22
3,69,100,7
3,64,100,3
3,72,0,210
3,69,0,1
3,64,0,2
3,64,100,17
3,68,100,0
3,71,100,0
3,71,0,359
3,64,0,0
3,68,0,1
3,72,64,10
3,76,81,0
3,81,83,0
3,81,0,29
3,76,0,0
3,72,0,6
3,67,74,75
3,71,83,1
3,74,78,0
3,71,0,28
3,67,0,2
3,74,0,1
3,69,74,80
3,76,77,0
3,72,75,3
3,72,0,24
3,76,0,2
3,69,0,2
3,71,74,93
3,64,59,1
3,67,68,0
3,67,0,23
3,64,0,2
3,71,0,3
3,67,68,91
3,74,69,1
3,71,77,0
3,71,0,19
3,67,0,1
3,74,0,1
3,69,73,59
3,76,75,1
3,72,71,1
3,72,0,11
3,76,0,1
3,69,0,3
3,67,84,26
3,74,91,0
3,71,86,0
3,71,0,16
3,74,0,4
3,67,0,0
3,71,91,53
3,64,89,1
3,67,95,0
3,64,0,162
3,67,0,2
3,71,0,6
3,81,81,116
3,76,86,2
3,72,78,0
3,76,0,29
3,81,0,2
3,72,0,2
3,67,71,87
3,74,83,0
3,71,83,0
3,71,0,22
3,67,0,2
3,74,0,6
3,69,74,86
3,76,84,0
3,72,84,1
3,72,0,24
3,76,0,4
3,69,0,1
3,71,86,95
3,64,86,0
3,67,83,0
3,67,0,23
3,64,0,3
3,71,0,3
3,67,81,89
3,74,83,0
3,71,86,0
3,71,0,22
3,67,0,3
3,74,0,2
3,69,71,59
3,76,83,0
3,72,83,1
3,72,0,19
3,76,0,3
3,69,0,1
3,67,74,57
3,74,81,0
3,71,83,1
3,71,0,17
3,67,0,3
3,74,0,1
3,67,84,54
3,74,89,0
3,71,89,0
3,71,0,21
3,74,0,3
3,67,0,0
3,67,81,57
3,74,89,0
3,71,89,0
3,71,0,20
3,74,0,3
3,67,0,0
3,67,74,55
3,71,83,0
3,74,83,0
3,71,0,20
3,67,0,3
3,74,0,1
3,72,81,60
3,81,95,1
3,76,93,0
3,76,0,20
3,81,0,4
3,72,0,0
3,67,84,90
3,71,91,1
3,74,89,0
3,71,0,25
3,67,0,2
3,74,0,1
3,69,86,90
3,76,89,0
3,72,91,0
3,72,0,25
3,69,0,2
3,76,0,1
3,64,84,89
3,71,84,0
3,67,89,0
3,67,0,24
3,64,0,1
3,71,0,4
3,67,78,87
3,74,81,0
3,71,83,1
3,71,0,18
3,67,0,3
3,74,0,3
3,69,71,56
3,76,78,0
3,72,77,0
3,72,0,14
3,76,0,1
3,69,0,2
3,67,83,31
3,74,75,0
3,71,78,1
3,71,0,11
3,74,0,3
3,67,0,0
3,71,93,57
3,67,101,0
3,64,95,1
3,64,0,144
3,67,0,4
3,71,0,6
3,81,86,127
3,72,75,0
3,76,86,0
3,76,0,33
3,72,0,5
3,81,0,0
3,67,70,86
3,71,84,0
3,74,74,1
3,71,0,28
3,67,0,1
3,74,0,4
3,69,74,88
3,76,83,0
3,72,86,0
3,72,0,22
3,76,0,5
3,69,0,0
3,71,74,85
3,64,74,0
3,67,75,2
3,67,0,22
3,64,0,2
3,71,0,4
3,67,77,95
3,74,86,0
3,71,89,0
3,71,0,22
3,67,0,3
3,74,0,2
3,76,83,58
3,69,71,1
3,72,75,1
3,72,0,17
3,69,0,5
3,76,0,0
3,67,68,60
3,74,70,0
3,71,74,1
3,71,0,20
3,74,0,3
3,67,0,0
3,74,83,49
3,67,75,1
3,71,83,0
3,71,0,21
3,67,0,6
3,74,0,1
3,67,70,58
3,74,83,0
3,71,83,0
3,71,0,22
3,67,0,5
3,74,0,2
3,74,83,44
3,67,74,0
3,71,89,1
3,71,0,25
3,74,0,2
3,67,0,3
3,74,95,59
3,69,95,0
3,65,91,1
3,65,0,211
3,69,0,3
3,74,0,0
3,69,101,19
3,72,95,0
3,64,91,1
3,64,0,219
3,69,0,0
3,72,0,3
3,69,93,20
3,64,84,1
3,71,93,1
3,69,0,222
3,68,84,29
3,57,57,1
3,72,27,0
3,76,23,0
3,81,29,0
3,71,0,11
3,68,0,2
3,64,0,2
3,72,0,465
3,76,0,0
3,77,46,0
3,74,58,0
3,74,0,480
3,77,0,0
3,81,0,0
3,72,42,0
3,76,50,0
3,81,36,0
3,81,0,240
3,57,0,0
3,72,0,0
3,76,0,0
3,55,70,0
3,76,67,0
3,71,74,0
3,79,63,0
3,79,0,240
3,55,0,0
3,76,0,0
3,71,0,0
3,53,53,0
3,77,46,0
3,74,59,0
3,81,39,0
3,81,0,480
3,53,0,0
3,77,0,0
3,74,0,0
3,72,58,0
3,76,58,0
3,81,32,0
3,81,60,0
3,81,0,40
3,88,55,0
3,88,0,40
3,81,40,0
3,81,0,40
3,88,52,0
3,88,0,40
3,81,52,0
3,81,0,40
3,88,60,0
3,88,0,40
3,81,46,0
3,81,0,40
3,88,58,0
3,88,0,40
3,81,65,0
3,81,0,40
3,88,61,0
3,88,0,40
3,81,53,0
3,81,0,40
3,88,44,0
3,88,0,40
3,76,0,0
3,72,0,0
3,86,48,0
3,74,63,0
3,77,64,0
3,86,0,40
3,89,56,0
3,89,0,40
3,86,43,0
3,86,0,40
3,89,48,0
3,89,0,40
3,86,32,0
3,86,0,40
3,89,48,0
3,89,0,40
3,86,59,0
3,86,0,40
3,89,56,0
3,89,0,40
3,86,46,0
3,86,0,40
3,89,41,0
3,89,0,40
3,86,31,0
3,86,0,40
3,89,43,0
3,89,0,40
3,77,0,0
3,74,0,0
3,81,0,0
3,84,62,0
3,76,55,0
3,81,38,0
3,72,42,0
3,84,0,40
3,88,55,0
3,88,0,40
3,84,59,0
3,84,0,40
3,88,52,0
3,88,0,40
3,84,48,0
3,84,0,40
3,88,57,0
3,88,0,40
3,72,0,0
3,81,0,0
3,76,0,0
3,83,69,0
3,79,54,0
3,76,50,0
3,71,54,0
3,83,0,40
3,88,61,0
3,88,0,40
3,83,55,0
3,83,0,40
3,88,53,0
3,88,0,40
3,83,49,0
3,83,0,40
3,88,58,0
3,88,0,40
3,71,0,0
3,76,0,0
3,79,0,0
3,81,71,0
3,77,59,0
3,69,61,0
3,74,66,0
3,81,0,40
3,86,62,0
3,86,0,40
3,81,63,0
3,81,0,40
3,86,52,0
3,86,0,40
3,81,66,0
3,81,0,40
3,86,52,0
3,86,0,40
3,81,52,0
3,81,0,40
3,86,57,0
3,86,0,40
3,81,48,0
3,81,0,40
3,86,46,0
3,86,0,40
3,81,60,0
3,81,0,40
3,86,46,0
3,86,0,40
3,74,0,0
3,69,0,0
3,77,0,0
3,72,58,0
3,76,58,0
3,81,32,0
3,81,58,0
3,81,0,40
3,88,26,0
3,88,0,40
3,81,48,0
3,81,0,40
3,88,46,0
3,88,0,40
3,81,46,0
3,81,0,40
3,88,49,0
3,88,0,40
3,81,49,0
3,81,0,40
3,88,26,0
3,88,0,40
3,81,59,0
3,81,0,40
3,88,48,0
3,88,0,40
3,81,68,0
3,81,0,40
3,88,54,0
3,88,0,40
3,76,0,0
3,72,0,0
3,74,63,0
3,77,64,0
3,86,32,0
3,86,0,40
3,89,59,0
3,89,0,40
3,86,31,0
3,86,0,40
3,89,36,0
3,89,0,40
3,86,33,0
3,86,0,40
3,89,48,0
3,89,0,40
3,86,43,0
3,86,0,40
3,89,51,0
3,89,0,40
3,86,48,0
3,86,0,40
3,89,39,0
3,89,0,40
3,86,44,0
3,86,0,40
3,89,45,0
3,89,0,40
3,77,0,0
3,74,0,0
3,81,0,0
3,84,60,0
3,76,55,0
3,81,38,0
3,72,42,0
3,84,0,40
3,88,55,0
3,88,0,40
3,84,33,0
3,84,0,40
3,88,46,0
3,88,0,40
3,84,44,0
3,84,0,40
3,88,52,0
3,88,0,40
3,72,0,0
3,81,0,0
3,76,0,0
3,83,65,0
3,79,54,0
3,76,50,0
3,71,54,0
3,83,0,40
3,88,55,0
3,88,0,40
3,83,62,0
3,83,0,40
3,88,60,0
3,88,0,40
3,83,62,0
3,83,0,40
3,88,63,0
3,88,0,40
3,71,0,0
3,76,0,0
3,79,0,0
3,81,69,0
3,77,59,0
3,69,61,0
3,74,66,0
3,81,0,40
3,86,69,0
3,86,0,40
3,81,59,0
3,81,0,40
3,86,58,0
3,86,0,40
3,81,70,0
3,81,0,40
3,86,58,0
3,86,0,40
3,81,68,0
3,81,0,40
3,86,51,0
3,86,0,40
3,81,58,0
3,81,0,40
3,86,46,0
3,86,0,40
3,81,67,0
3,81,0,40
3,86,71,0
3,86,0,40
3,74,0,0
3,69,0,0
3,77,0,0
3,62,46,0
3,69,56,0
3,65,46,0
3,65,0,480
3,69,0,0
3,62,0,0
3,68,67,0
3,71,68,0
3,64,78,0
3,64,0,480
3,71,0,0
3,68,0,0
3,69,69,0
3,62,61,0
3,65,69,0
3,65,0,240
3,62,0,0
3,69,0,0
3,62,32,0
3,64,57,0
3,68,44,0
3,71,36,0
3,71,0,240
3,62,0,0
3,64,0,0
3,68,0,0
3,69,65,0
3,72,89,0
3,76,81,0
3,76,0,480
3,72,0,0
3,69,0,0
3,69,48,0
3,74,29,0
3,65,19,0
3,65,0,480
3,74,0,0
3,69,0,0
3,71,51,0
3,68,56,0
3,76,65,0
3,76,0,480
3,68,0,0
3,71,0,0
3,69,65,0
3,74,66,0
3,65,59,0
3,65,0,240
3,74,0,0
3,69,0,0
3,71,84,0
3,68,71,0
3,76,63,0
3,76,0,240
3,68,0,0
3,71,0,0
3,69,68,0
3,76,89,0
3,72,86,0
3,72,0,480
3,76,0,0
3,69,0,0
3,72,64,10
3,76,81,0
3,81,83,0
3,81,0,29
3,76,0,0
3,72,0,6
3,67,74,75
3,71,83,1
3,74,78,0
3,71,0,28
3,67,0,2
3,74,0,1
3,69,74,80
3,76,77,0
3,72,75,3
3,72,0,24
3,76,0,2
3,69,0,2
3,71,74,93
3,64,59,1
3,67,68,0
3,67,0,23
3,64,0,2
3,71,0,3
3,67,68,91
3,74,69,1
3,71,77,0
3,71,0,19
3,67,0,1
3,74,0,1
3,69,73,59
3,76,75,1
3,72,71,1
3,72,0,11
3,76,0,1
3,69,0,3
3,67,84,26
3,74,91,0
3,71,86,0
3,71,0,16
3,74,0,4
3,67,0,0
3,71,91,53
3,64,89,1
3,67,95,0
3,64,0,162
3,67,0,2
3,71,0,6
3,81,81,116
3,76,86,2
3,72,78,0
3,76,0,29
3,81,0,2
3,72,0,2
3,67,71,87
3,74,83,0
3,71,83,0
3,71,0,22
3,67,0,2
3,74,0,6
3,69,74,86
3,76,84,0
3,72,84,1
3,72,0,24
3,76,0,4
3,69,0,1
3,71,86,95
3,64,86,0
3,67,83,0
3,67,0,23
3,64,0,3
3,71,0,3
3,67,81,89
3,74,83,0
3,71,86,0
3,71,0,22
3,67,0,3
3,74,0,2
3,69,71,59
3,76,83,0
3,72,83,1
3,72,0,19
3,76,0,3
3,69,0,1
3,67,74,57
3,74,81,0
3,71,83,1
3,71,0,17
3,67,0,3
3,74,0,1
3,67,84,54
3,74,89,0
3,71,89,0
3,71,0,21
3,74,0,3
3,67,0,0
3,67,81,57
3,74,89,0
3,71,89,0
3,71,0,20
3,74,0,3
3,67,0,0
3,67,74,55
3,71,83,0
3,74,83,0
3,71,0,20
3,67,0,3
3,74,0,1
3,72,81,60
3,81,95,1
3,76,93,0
3,76,0,20
3,81,0,4
3,72,0,0
3,67,84,90
3,71,91,1
3,74,89,0
3,71,0,25
3,67,0,2
3,74,0,1
3,69,86,90
3,76,89,0
3,72,91,0
3,72,0,25
3,69,0,2
3,76,0,1
3,64,84,89
3,71,84,0
3,67,89,0
3,67,0,24
3,64,0,1
3,71,0,4
3,67,78,87
3,74,81,0
3,71,83,1
3,71,0,18
3,67,0,3
3,74,0,3
3,69,71,56
3,76,78,0
3,72,77,0
3,72,0,14
3,76,0,1
3,69,0,2
3,67,83,31
3,74,75,0
3,71,78,1
3,71,0,11
3,74,0,3
3,67,0,0
3,71,93,57
3,67,101,0
3,64,95,1
3,64,0,144
3,67,0,4
3,71,0,6
3,81,86,127
3,72,75,0
3,76,86,0
3,76,0,33
3,72,0,5
3,81,0,0
3,67,70,86
3,71,84,0
3,74,74,1
3,71,0,28
3,67,0,1
3,74,0,4
3,69,74,88
3,76,83,0
3,72,86,0
3,72,0,22
3,76,0,5
3,69,0,0
3,71,74,85
3,64,74,0
3,67,75,2
3,67,0,22
3,64,0,2
3,71,0,4
3,67,77,95
3,74,86,0
3,71,89,0
3,71,0,22
3,67,0,3
3,74,0,2
3,76,83,58
3,69,71,1
