track,note,velocity,time
1,71,70,2808
1,64,70,0
1,74,70,0
1,67,70,0
1,74,70,246
1,67,70,0
1,71,70,0
1,64,70,0
1,74,70,212
1,71,70,0
1,67,70,0
1,64,70,0
1,67,70,224
1,71,70,0
1,74,70,0
1,64,70,0
1,71,70,218
1,73,70,0
1,67,70,0
1,64,70,0
1,73,70,216
1,71,70,0
1,67,70,0
1,64,70,0
1,73,70,240
1,71,70,0
1,67,70,0
1,64,70,0
1,71,70,222
1,67,70,0
1,73,70,0
1,64,70,0
1,64,70,220
1,67,70,0
1,71,70,0
1,74,70,0
1,64,70,218
1,71,70,0
1,74,70,0
1,67,70,0
1,74,70,234
1,71,70,0
1,67,70,0
1,64,70,0
1,74,70,222
1,71,70,0
1,67,70,0
1,64,70,0
1,67,70,214
1,71,70,0
1,73,70,0
1,64,70,0
1,73,70,214
1,71,70,0
1,67,70,0
1,64,70,0
1,73,70,254
1,71,70,0
1,67,70,0
1,64,70,0
1,73,70,246
1,67,70,0
1,71,70,0
1,64,70,0
1,66,70,230
1,71,70,0
1,74,70,0
1,71,70,196
1,66,70,0
1,74,70,0
1,73,70,248
1,66,70,0
1,69,70,0
1,74,70,0
1,73,70,168
1,66,70,0
1,74,70,0
1,69,70,0
1,71,70,172
1,66,70,0
1,74,70,0
1,74,70,160
1,71,70,0
1,66,70,0
1,66,70,204
1,74,70,0
1,71,70,0
1,71,70,222
1,66,70,0
1,74,70,0
1,67,70,204
1,71,70,0
1,74,70,0
1,74,70,164
1,67,70,0
1,71,70,0
1,74,70,132
1,73,70,0
1,69,70,0
1,67,70,0
1,73,70,176
1,74,70,0
1,67,70,0
1,69,70,0
1,71,70,190
1,67,70,0
1,74,70,0
1,74,70,188
1,71,70,0
1,67,70,0
1,71,70,188
1,67,70,0
1,74,70,0
1,74,70,200
1,67,70,0
1,71,70,0
1,71,70,194
1,64,70,0
1,74,70,0
1,67,70,0
1,74,70,246
1,67,70,0
1,71,70,0
1,64,70,0
1,74,70,212
1,71,70,0
1,67,70,0
1,64,70,0
1,67,70,224
1,71,70,0
1,74,70,0
1,64,70,0
1,71,70,218
1,73,70,0
1,67,70,0
1,64,70,0
1,73,70,216
1,71,70,0
1,67,70,0
1,64,70,0
1,73,70,240
1,71,70,0
1,67,70,0
1,64,70,0
1,71,70,222
1,67,70,0
1,73,70,0
1,64,70,0
1,64,70,220
1,67,70,0
1,71,70,0
1,74,70,0
1,64,70,218
1,71,70,0
1,74,70,0
1,67,70,0
1,74,70,234
1,71,70,0
1,67,70,0
1,64,70,0
1,74,70,222
1,71,70,0
1,67,70,0
1,64,70,0
1,67,70,214
1,71,70,0
1,73,70,0
1,64,70,0
1,73,70,214
1,71,70,0
1,67,70,0
1,64,70,0
1,73,70,254
1,71,70,0
1,67,70,0
1,64,70,0
1,73,70,246
1,67,70,0
1,71,70,0
1,64,70,0
1,66,70,230
1,71,70,0
1,74,70,0
1,71,70,196
1,66,70,0
1,74,70,0
1,73,70,248
1,66,70,0
1,69,70,0
1,74,70,0
1,73,70,168
1,66,70,0
1,74,70,0
1,69,70,0
1,71,70,172
1,66,70,0
1,74,70,0
1,74,70,160
1,71,70,0
1,66,70,0
1,66,70,204
1,74,70,0
1,71,70,0
1,71,70,222
1,66,70,0
1,74,70,0
1,67,70,204
1,71,70,0
1,74,70,0
1,74,70,164
1,67,70,0
1,71,70,0
1,74,70,132
1,73,70,0
1,69,70,0
1,67,70,0
1,73,70,176
1,74,70,0
1,67,70,0
1,69,70,0
1,71,70,190
1,67,70,0
1,74,70,0
1,74,70,188
1,71,70,0
1,67,70,0
1,71,70,188
1,67,70,0
1,74,70,0
1,74,70,200
1,67,70,0
1,71,70,0
1,71,70,194
1,64,70,0
1,74,70,0
1,67,70,0
1,74,70,246
1,67,70,0
1,71,70,0
1,64,70,0
1,74,70,212
1,71,70,0
1,67,70,0
1,64,70,0
1,67,70,224
1,71,70,0
1,74,70,0
1,64,70,0
1,71,70,218
1,73,70,0
1,67,70,0
1,64,70,0
1,73,70,216
1,71,70,0
1,67,70,0
1,64,70,0
1,73,70,240
1,71,70,0
1,67,70,0
1,64,70,0
1,71,70,222
1,67,70,0
1,73,70,0
1,64,70,0
1,64,70,220
1,67,70,0
1,71,70,0
1,74,70,0
1,64,70,218
1,71,70,0
1,74,70,0
1,67,70,0
1,74,70,234
1,71,70,0
1,67,70,0
1,64,70,0
1,74,70,222
1,71,70,0
1,67,70,0
1,64,70,0
1,67,70,214
1,71,70,0
1,73,70,0
1,64,70,0
1,73,70,214
1,71,70,0
1,67,70,0
1,64,70,0
1,73,70,254
1,71,70,0
1,67,70,0
1,64,70,0
1,73,70,246
1,67,70,0
1,71,70,0
1,64,70,0
1,66,70,230
1,71,70,0
1,74,70,0
1,71,70,196
1,66,70,0
1,74,70,0
1,73,70,248
1,66,70,0
1,69,70,0
1,74,70,0
1,73,70,168
1,66,70,0
1,74,70,0
1,69,70,0
1,71,70,172
1,66,70,0
1,74,70,0
1,74,70,160
1,71,70,0
1,66,70,0
1,66,70,204
1,74,70,0
1,71,70,0
1,71,70,222
1,66,70,0
1,74,70,0
1,67,70,204
1,71,70,0
1,74,70,0
1,74,70,164
1,67,70,0
1,71,70,0
1,74,70,132
1,73,70,0
1,69,70,0
1,67,70,0
1,73,70,176
1,74,70,0
1,67,70,0
1,69,70,0
1,71,70,190
1,67,70,0
1,74,70,0
1,74,70,188
1,71,70,0
1,67,70,0
1,71,70,188
1,67,70,0
1,74,70,0
1,74,70,200
1,67,70,0
1,71,70,0
1,66,70,194
1,69,70,0
1,74,70,0
1,69,70,192
1,74,70,0
1,66,70,0
1,69,70,186
1,66,70,0
1,74,70,0
1,69,70,170
1,66,70,0
1,74,70,0
1,67,70,192
1,71,70,0
1,74,70,0
1,71,70,192
1,67,70,0
1,74,70,0
1,71,70,174
1,74,70,0
1,67,70,0
1,67,70,180
1,71,70,0
1,74,70,0
1,74,70,188
1,66,70,0
1,69,70,0
1,66,70,162
1,69,70,0
1,74,70,0
1,74,70,196
1,69,70,0
1,66,70,0
1,66,70,182
1,69,70,0
1,74,70,0
1,71,70,194
1,67,70,0
1,74,70,0
1,71,70,198
1,74,70,0
1,67,70,0
1,71,70,198
1,67,70,0
1,74,70,0
1,71,70,192
1,74,70,0
1,67,70,0
1,69,70,190
1,66,70,0
1,74,70,0
1,66,70,188
1,69,70,0
1,74,70,0
1,69,70,198
1,66,70,0
1,74,70,0
1,66,70,198
1,69,70,0
1,74,70,0
1,67,70,180
1,71,70,0
1,74,70,0
1,71,70,206
1,74,70,0
1,67,70,0
1,71,70,196
1,67,70,0
1,74,70,0
1,71,70,194
1,67,70,0
1,74,70,0
1,74,70,174
1,66,70,0
1,69,70,0
1,66,70,180
1,69,70,0
1,74,70,0
1,66,70,188
1,69,70,0
1,74,70,0
1,74,70,194
1,69,70,0
1,66,70,0
1,74,70,174
1,67,70,0
1,71,70,0
1,71,70,182
1,74,70,0
1,67,70,0
1,71,70,12392
1,64,70,0
1,74,70,0
1,67,70,0
1,74,70,246
1,67,70,0
1,71,70,0
1,64,70,0
1,74,70,212
1,71,70,0
1,67,70,0
1,64,70,0
1,67,70,224
1,71,70,0
1,74,70,0
1,64,70,0
1,71,70,218
1,73,70,0
1,67,70,0
1,64,70,0
1,73,70,216
1,71,70,0
1,67,70,0
1,64,70,0
1,73,70,240
1,71,70,0
1,67,70,0
1,64,70,0
1,71,70,222
1,67,70,0
1,73,70,0
1,64,70,0
1,64,70,220
1,67,70,0
1,71,70,0
1,74,70,0
1,64,70,218
1,71,70,0
1,74,70,0
1,67,70,0
1,74,70,234
1,71,70,0
1,67,70,0
1,64,70,0
1,74,70,222
1,71,70,0
1,67,70,0
1,64,70,0
1,67,70,214
1,71,70,0
1,73,70,0
1,64,70,0
1,73,70,214
1,71,70,0
1,67,70,0
1,64,70,0
1,73,70,254
1,71,70,0
1,67,70,0
1,64,70,0
1,73,70,246
1,67,70,0
1,71,70,0
1,64,70,0
1,66,70,230
1,71,70,0
1,74,70,0
1,71,70,196
1,66,70,0
1,74,70,0
1,73,70,248
1,66,70,0
1,69,70,0
1,74,70,0
1,73,70,168
1,66,70,0
1,74,70,0
1,69,70,0
1,71,70,172
1,66,70,0
1,74,70,0
1,74,70,160
1,71,70,0
1,66,70,0
1,66,70,204
1,74,70,0
1,71,70,0
1,71,70,222
1,66,70,0
1,74,70,0
1,67,70,204
1,71,70,0
1,74,70,0
1,74,70,164
1,67,70,0
1,71,70,0
1,74,70,132
1,73,70,0
1,69,70,0
1,67,70,0
1,73,70,176
1,74,70,0
1,67,70,0
1,69,70,0
1,71,70,190
1,67,70,0
1,74,70,0
1,74,70,188
1,71,70,0
1,67,70,0
1,71,70,188
1,67,70,0
1,74,70,0
1,74,70,200
1,67,70,0
1,71,70,0
1,71,70,194
1,64,70,0
1,74,70,0
1,67,70,0
1,74,70,246
1,67,70,0
1,71,70,0
1,64,70,0
1,74,70,212
1,71,70,0
1,67,70,0
1,64,70,0
1,67,70,224
1,71,70,0
1,74,70,0
1,64,70,0
1,71,70,218
1,73,70,0
1,67,70,0
1,64,70,0
1,73,70,216
1,71,70,0
1,67,70,0
1,64,70,0
1,73,70,240
1,71,70,0
1,67,70,0
1,64,70,0
1,71,70,222
1,67,70,0
1,73,70,0
1,64,70,0
1,64,70,220
1,67,70,0
1,71,70,0
1,74,70,0
1,64,70,218
1,71,70,0
1,74,70,0
1,67,70,0
1,74,70,234
1,71,70,0
1,67,70,0
1,64,70,0
1,74,70,222
1,71,70,0
1,67,70,0
1,64,70,0
1,67,70,214
1,71,70,0
1,73,70,0
1,64,70,0
1,73,70,214
1,71,70,0
1,67,70,0
1,64,70,0
1,73,70,254
1,71,70,0
1,67,70,0
1,64,70,0
1,73,70,246
1,67,70,0
1,71,70,0
1,64,70,0
1,66,70,230
1,71,70,0
1,74,70,0
1,71,70,196
1,66,70,0
1,74,70,0
1,73,70,248
1,66,70,0
1,69,70,0
1,74,70,0
1,73,70,168
1,66,70,0
1,74,70,0
1,69,70,0
1,71,70,172
1,66,70,0
1,74,70,0
1,74,70,160
1,71,70,0
1,66,70,0
1,66,70,204
1,74,70,0
1,71,70,0
1,71,70,222
1,66,70,0
1,74,70,0
1,67,70,204
1,71,70,0
1,74,70,0
1,74,70,164
1,67,70,0
1,71,70,0
1,74,70,132
1,73,70,0
1,69,70,0
1,67,70,0
1,73,70,176
1,74,70,0
1,67,70,0
1,69,70,0
1,71,70,190
1,67,70,0
1,74,70,0
1,74,70,188
1,71,70,0
1,67,70,0
1,71,70,188
1,67,70,0
1,74,70,0
1,74,70,200
1,67,70,0
1,71,70,0
1,66,70,194
1,69,70,0
1,74,70,0
1,69,70,192
1,74,70,0
1,66,70,0
1,69,70,186
1,66,70,0
1,74,70,0
1,69,70,170
1,66,70,0
1,74,70,0
1,67,70,192
1,71,70,0
1,74,70,0
1,71,70,192
1,67,70,0
1,74,70,0
1,71,70,174
1,74,70,0
1,67,70,0
1,67,70,180
1,71,70,0
1,74,70,0
1,74,70,188
1,66,70,0
1,69,70,0
1,66,70,162
1,69,70,0
1,74,70,0
1,74,70,196
1,69,70,0
1,66,70,0
1,66,70,182
1,69,70,0
1,74,70,0
1,71,70,194
1,67,70,0
1,74,70,0
1,71,70,198
1,74,70,0
1,67,70,0
1,71,70,198
1,67,70,0
1,74,70,0
1,71,70,192
1,74,70,0
1,67,70,0
1,69,70,190
1,66,70,0
1,74,70,0
1,66,70,188
1,69,70,0
1,74,70,0
1,69,70,198
1,66,70,0
1,74,70,0
1,66,70,198
1,69,70,0
1,74,70,0
1,67,70,180
1,71,70,0
1,74,70,0
1,71,70,206
1,74,70,0
1,67,70,0
1,71,70,196
1,67,70,0
1,74,70,0
1,71,70,194
1,67,70,0
1,74,70,0
1,74,70,174
1,66,70,0
1,69,70,0
1,66,70,180
1,69,70,0
1,74,70,0
1,66,70,188
1,69,70,0
1,74,70,0
1,74,70,194
1,69,70,0
1,66,70,0
1,74,70,174
1,67,70,0
1,71,70,0
1,71,70,182
1,74,70,0
1,67,70,0
1,66,90,12404
1,62,76,0
1,69,97,2
1,71,77,2678
1,67,86,2
1,62,71,0
1,66,80,164
1,69,84,0
1,62,74,4
1,62,72,196
1,71,70,0
1,67,80,2
1,66,83,170
1,69,86,0
1,62,73,4
1,71,74,218
1,67,84,0
1,62,65,0
1,66,90,116
1,62,76,0
1,69,97,2
1,60,68,116
1,69,62,0
1,64,65,0
1,67,70,4
1,60,70,218
1,64,68,0
1,67,73,0
1,69,65,0
1,60,77,230
1,67,88,0
1,69,84,0
1,64,80,0
1,69,73,212
1,67,77,4
1,60,84,0
1,64,82,2
1,62,76,196
1,66,47,0
1,59,73,0
1,69,65,10
1,66,54,148
1,59,65,4
1,62,77,0
1,67,84,10
1,66,83,170
1,59,69,4
1,62,82,0
1,67,84,0
1,66,69,196
1,67,80,0
1,62,77,0
1,59,60,0
1,66,63,194
1,62,80,0
1,59,74,0
1,69,69,0
1,66,75,156
1,62,88,4
1,69,77,0
1,59,79,2
1,66,86,182
1,62,84,2
1,69,84,2
1,59,71,0
1,66,86,182
1,62,88,4
1,69,84,0
1,59,72,0
1,60,76,204
1,69,79,4
1,64,74,2
1,57,67,2
1,60,63,176
1,64,66,4
1,69,63,2
1,57,62,0
1,60,95,218
1,64,86,0
1,69,86,2
1,57,72,6
1,60,77,172
1,64,73,2
1,57,74,4
1,69,80,0
1,64,72,158
1,60,79,2
1,67,67,2
1,55,62,2
1,57,66,8
1,60,95,168
1,64,90,0
1,67,88,0
1,55,82,0
1,60,95,200
1,67,88,0
1,64,88,0
1,55,77,2
1,67,84,190
1,60,92,0
1,64,86,0
1,55,80,4
1,60,80,200
1,64,90,4
1,71,86,2
1,67,90,2
1,71,77,184
1,64,90,0
1,67,97,0
1,60,86,0
1,71,70,194
1,64,82,2
1,67,84,2
1,60,72,2
1,71,84,186
1,64,92,0
1,60,84,0
1,67,90,0
1,66,80,174
1,69,79,2
1,64,77,0
1,60,67,6
1,66,86,160
1,60,79,2
1,64,84,0
1,69,84,4
1,60,86,182
1,69,92,2
1,66,106,0
1,64,95,0
1,66,106,172
1,60,84,0
1,64,92,0
1,69,92,0
1,71,70,246
1,64,70,0
1,74,70,0
1,67,70,0
1,74,70,246
1,67,70,0
1,71,70,0
1,64,70,0
1,74,70,212
1,71,70,0
1,67,70,0
1,64,70,0
1,67,70,224
1,71,70,0
1,74,70,0
1,64,70,0
1,71,70,218
1,73,70,0
1,67,70,0
1,64,70,0
1,73,70,216
1,71,70,0
1,67,70,0
1,64,70,0
1,73,70,240
1,71,70,0
1,67,70,0
1,64,70,0
1,71,70,222
1,67,70,0
1,73,70,0
1,64,70,0
1,64,70,220
1,67,70,0
1,71,70,0
1,74,70,0
1,64,70,218
1,71,70,0
1,74,70,0
1,67,70,0
1,74,70,234
1,71,70,0
1,67,70,0
1,64,70,0
1,74,70,222
1,71,70,0
1,67,70,0
1,64,70,0
1,67,70,214
1,71,70,0
1,73,70,0
1,64,70,0
1,73,70,214
1,71,70,0
1,67,70,0
1,64,70,0
1,73,70,254
1,71,70,0
1,67,70,0
1,64,70,0
1,73,70,246
1,67,70,0
1,71,70,0
1,64,70,0
1,66,70,230
1,71,70,0
1,74,70,0
1,71,70,196
1,66,70,0
1,74,70,0
1,73,70,248
1,66,70,0
1,69,70,0
1,74,70,0
1,73,70,168
1,66,70,0
1,74,70,0
1,69,70,0
1,71,70,172
1,66,70,0
1,74,70,0
1,74,70,160
1,71,70,0
1,66,70,0
1,66,70,204
1,74,70,0
1,71,70,0
1,71,70,222
1,66,70,0
1,74,70,0
1,67,70,204
1,71,70,0
1,74,70,0
1,74,70,164
1,67,70,0
1,71,70,0
1,74,70,132
1,73,70,0
1,69,70,0
1,67,70,0
1,73,70,176
1,74,70,0
1,67,70,0
1,69,70,0
1,71,70,190
1,67,70,0
