track,note,velocity,time
3,57,89,8398
3,57,0,105
3,60,89,7
3,57,82,134
3,60,0,27
3,60,92,220
3,57,0,4
3,60,0,658
3,62,76,3
3,55,89,246
3,62,0,27
3,55,0,730
3,55,89,921
3,57,85,240
3,55,0,34
3,60,82,206
3,57,0,7
3,57,76,239
3,60,0,31
3,55,85,219
3,57,0,7
3,55,0,474
3,53,76,9
3,53,0,182
3,53,85,57
3,53,0,465
3,55,92,7
3,55,0,686
3,48,25,784
3,48,0,43
3,55,82,148
3,57,79,267
3,55,0,14
3,57,0,190
3,60,92,35
3,55,92,253
3,60,0,6
3,55,0,446
3,53,92,244
3,53,0,153
3,53,92,77
3,53,0,1280
3,60,92,19099
3,57,85,205
3,60,0,9
3,57,0,209
3,60,92,8
3,62,85,740
3,60,0,4
3,55,89,214
3,62,0,23
3,55,0,635
3,55,100,963
3,57,89,226
3,55,0,4
3,58,104,264
3,57,0,20
3,60,89,207
3,58,0,5
3,58,108,239
3,60,0,23
3,57,96,454
3,58,0,29
3,57,0,172
3,57,96,49
3,57,0,992
3,55,104,1171
3,57,92,222
3,55,0,8
3,58,104,233
3,57,0,35
3,60,85,213
3,58,0,4
3,58,108,237
3,60,0,21
3,57,96,439
3,58,0,10
3,57,0,186
3,57,100,60
3,57,0,708
3,55,79,7
3,55,0,244
3,57,96,7
3,57,0,191
3,57,96,2425
3,57,0,193
3,60,100,56
3,57,92,171
3,60,0,20
3,57,0,188
3,60,92,11
3,62,85,705
3,60,0,4
3,55,96,241
3,62,0,16
3,55,0,27
3,55,96,908
3,57,96,217
3,55,0,21
3,60,96,216
3,57,0,11
3,57,89,231
3,60,0,9
3,57,0,256
3,55,85,5
3,53,96,474
3,55,0,8
3,53,0,180
3,53,85,51
3,53,0,443
3,55,92,11
3,55,0,739
3,55,96,936
3,57,96,234
3,55,0,18
3,60,82,231
3,57,0,4
3,57,85,225
3,60,0,16
3,57,0,215
3,55,85,3
3,55,0,493
3,53,96,8
3,53,0,190
3,53,96,66
3,53,0,130
3,53,96,81
3,53,0,511
3,64,96,2107
3,64,0,201
3,64,89,63
3,65,85,64
3,64,0,37
3,65,0,3011
3,62,96,230
3,64,104,233
3,62,0,25
3,65,104,228
3,64,0,13
3,67,104,1931
3,65,0,16
3,67,0,1444
3,65,104,227
3,65,0,35
3,65,85,38
3,65,0,460
3,64,104,22
3,64,0,6
3,62,79,10
3,62,0,952
3,58,113,402
3,58,0,231
3,60,100,11
3,60,0,210
3,62,96,39
3,62,0,164
3,62,85,56
3,62,0,129
3,62,96,118
3,62,0,433
3,60,104,48
3,60,0,132
3,60,100,99
3,58,108,257
3,60,0,29
3,58,0,155
3,60,104,39
3,60,0,1013
3,62,100,2582
3,62,0,239
3,64,100,6
3,64,0,183
3,64,89,79
3,65,92,42
3,64,0,27
3,65,0,2816
3,65,108,465
3,65,0,200
3,67,96,38
3,67,0,129
3,67,104,128
3,67,0,159
3,65,104,31
3,65,0,419
3,64,104,33
3,64,0,30
3,60,104,77
3,60,0,11
3,65,108,618
3,65,0,20
3,65,104,90
3,65,0,340
3,64,104,106
3,64,0,38
3,64,100,94
3,64,0,1092
3,58,108,293
3,58,0,196
3,60,96,18
3,60,0,203
3,62,96,52
3,62,0,156
3,62,85,67
3,62,0,132
3,62,89,115
3,60,100,458
3,62,0,24
3,60,0,157
3,60,85,56
3,58,104,229
3,60,0,29
3,58,0,209
3,60,100,10
3,60,0,384
3,57,92,2194
3,45,85,22
3,57,0,77
3,45,0,12
3,57,73,26
3,45,64,4
3,57,0,141
3,45,0,3
3,45,79,74
3,57,89,4
3,45,0,207
3,57,0,5
3,57,64,33
3,45,70,5
3,57,0,99
3,45,0,27
3,57,92,91
3,45,76,4
3,57,0,201
3,45,0,8
3,55,89,32
3,43,53,5
3,55,0,134
3,43,0,3
3,43,70,91
3,55,92,4
3,55,0,336
3,43,0,11
3,43,76,245
3,55,85,6
3,55,0,74
3,43,0,2
3,43,67,46
3,55,82,5
3,55,0,120
3,43,0,14
3,55,96,103
3,43,76,4
3,43,0,217
3,53,76,18
3,41,76,4
3,55,0,4
3,53,0,93
3,41,0,12
3,53,96,126
3,41,85,4
3,41,0,557
3,53,0,3
3,45,85,508
3,57,96,6
3,57,0,81
3,45,0,5
3,45,82,148
3,57,96,5
3,45,0,77
3,57,0,5
3,45,89,149
3,57,96,4
3,45,0,192
3,57,0,5
3,45,64,34
3,57,73,7
3,57,0,81
3,45,0,3
3,45,67,45
3,57,82,8
3,57,0,191
3,45,0,25
3,55,76,11
3,43,67,4
3,55,0,115
3,43,0,3
3,55,100,109
3,43,73,6
3,55,0,336
3,43,0,9
3,55,96,286
3,43,79,5
3,45,79,454
3,57,82,8
3,43,0,10
3,55,0,5
3,53,85,218
3,41,85,5
3,45,0,5
3,57,0,5
3,53,0,726
3,41,0,3
3,57,96,473
3,45,82,5
3,45,0,150
3,57,0,5
3,45,55,60
3,57,70,5
3,57,0,78
3,45,0,12
3,45,85,43
3,57,96,5
3,45,0,342
3,57,0,15
3,45,85,101
3,57,82,4
3,57,0,228
3,45,0,6
3,55,76,5
3,43,67,5
3,55,0,145
3,43,0,11
3,43,76,58
3,55,92,7
3,55,0,322
3,43,0,12
3,43,70,263
3,55,89,6
3,43,0,70
3,55,0,4
3,43,67,52
3,55,82,7
3,55,0,86
3,43,0,9
3,55,96,125
3,43,73,7
3,55,0,141
3,43,0,9
3,41,76,92
3,53,85,3
3,53,0,78
3,41,0,5
3,41,85,160
3,53,92,6
3,53,0,589
3,41,0,13
3,57,100,483
3,45,85,4
3,57,0,87
3,45,0,8
3,45,79,112
3,57,92,5
3,57,0,81
3,45,0,3
3,57,100,167
3,45,89,4
3,45,0,194
3,57,0,5
3,45,64,36
3,57,73,4
3,45,0,86
3,57,0,6
3,45,70,27
3,57,89,8
3,57,0,157
3,45,0,18
3,55,89,51
3,43,62,11
3,55,0,101
3,43,0,4
3,43,79,113
3,55,96,5
3,55,0,367
3,43,0,8
3,43,82,266
3,55,96,5
3,57,82,444
3,45,73,5
3,55,0,11
3,43,0,4
3,53,96,227
3,41,82,5
3,45,0,5
3,57,0,12
3,53,0,758
3,41,0,5
3,60,100,2690
3,57,96,224
3,60,0,18
3,60,100,200
3,57,0,29
3,62,85,700
3,60,0,12
3,55,100,232
3,62,0,17
3,55,0,23
3,55,100,882
3,57,100,222
3,55,0,30
3,58,104,202
3,57,0,14
3,58,0,238
3,60,79,7
3,58,104,241
3,60,0,32
3,58,0,436
3,57,89,22
3,57,0,182
3,57,96,57
3,57,0,1169
3,55,96,977
3,57,92,223
3,55,0,22
3,58,100,219
3,57,0,30
3,60,73,223
3,58,0,19
3,57,89,246
3,60,0,6
3,57,0,175
3,57,100,51
3,57,0,444
3,55,100,244
3,57,104,267
3,55,0,32
3,57,0,12
3,57,100,3455
3,57,0,170
3,60,100,95
3,57,82,210
3,60,0,8
3,57,0,224
3,60,100,11
3,62,96,709
3,60,0,16
3,55,96,220
3,62,0,4
3,55,0,8
3,55,100,880
3,55,0,240
3,57,96,3
3,57,0,236
3,60,96,3
3,57,82,236
3,60,0,8
3,57,0,234
3,55,104,24
3,55,0,461
3,53,100,6
3,53,0,175
3,53,100,79
3,53,0,450
3,55,108,14
3,55,0,750
3,48,67,666
3,55,82,252
3,48,0,6
3,57,73,241
3,55,0,20
3,57,0,145
3,60,82,102
3,60,0,204
3,55,96,28
3,55,0,438
3,53,96,221
3,53,0,145
3,53,85,68
3,53,0,6
3,64,92,2546
3,64,0,193
3,64,89,59
3,65,89,43
3,64,0,34
3,65,0,1812
3,62,89,317
3,64,96,254
3,62,0,8
3,64,0,214
3,65,100,15
3,67,96,1946
3,65,0,30
3,67,0,1440
3,65,96,238
3,65,0,476
3,64,108,52
3,64,0,1176
3,58,108,174
3,60,92,225
3,58,0,5
3,60,0,189
3,60,104,70
3,60,0,120
3,60,89,26
3,60,0,147
3,60,104,87
3,60,0,7
3,60,100,4
3,60,0,121
3,60,89,70
3,60,0,240
3,58,108,3
3,58,0,209
3,60,96,27
3,60,0,100
3,62,89,2198
3,64,96,243
3,62,0,15
3,64,0,186
3,65,108,77
3,65,0,1348
3,65,92,362
3,67,96,242
3,65,0,5
3,67,0,178
3,67,89,68
3,67,0,188
3,65,96,19
3,65,0,448
3,64,100,19
3,64,0,13
3,60,100,5
3,60,0,5
3,64,100,531
3,64,0,950
3,65,104,2
3,65,0,510
3,64,89,198
3,67,100,257
3,64,0,5
3,67,0,331
3,69,92,37
3,69,0,289
3,67,96,40
3,67,0,206
3,65,89,58
3,65,0,242
3,67,104,70
3,67,0,197
3,65,108,155
3,65,0,215
3,67,96,33
3,67,0,313
3,69,96,52
3,69,0,314
3,67,92,44
3,67,0,230
3,65,104,36
3,65,0,254
3,65,100,107
3,65,0,276
3,64,89,68
3,64,0,235
3,60,108,10
3,60,0,461
3,62,89,1802
3,62,0,143
3,64,100,92
3,64,0,97
3,65,100,162
3,65,0,49
3,65,92,385
3,67,79,8
3,67,0,67
3,65,0,54
3,67,100,98
3,67,0,140
3,69,108,134
3,67,100,453
3,69,0,25
3,67,0,76
3,65,92,143
3,65,0,277
3,64,100,206
3,64,0,7
3,60,100,52
3,60,0,27
3,65,92,618
3,65,0,119
3,65,96,55
3,65,0,472
3,64,100,14
3,64,0,1158
3,58,108,178
3,58,0,177
3,60,100,53
3,60,0,167
3,60,100,90
3,60,0,74
3,60,79,29
3,60,0,138
3,60,104,124
3,60,0,7
3,60,100,45
3,60,0,104
3,60,100,111
3,58,108,246
3,60,0,21
3,58,0,149
3,60,100,57
3,60,0,1502
3,64,100,2360
3,64,0,167
3,64,96,33
3,65,92,28
3,64,0,36
3,65,0,265
3,65,104,302
3,65,0,43
3,67,104,66
3,67,0,103
3,67,104,147
3,69,79,1
3,67,0,21
3,67,104,347
3,69,0,32
3,67,0,29
3,65,100,139
3,65,0,28
3,64,104,196
3,64,0,4
3,60,104,39
3,60,0,134
3,65,104,249
3,65,0,43
3,65,92,60
3,62,100,375
3,65,0,7
3,62,0,15
3,62,89,15
3,62,0,269
3,58,108,117
3,58,0,218
3,60,89,10
3,62,92,160
3,60,0,5
3,62,0,166
3,62,79,59
3,62,0,84
3,62,100,109
3,60,100,230
3,62,0,11
3,60,0,84
3,60,104,29
3,58,108,250
3,60,0,21
3,58,0,54
3,60,92,14
3,60,0,848
4,38,104,23040
4,36,92,1920
4,38,0,50
4,36,0,1866
4,34,108,4
4,29,104,1920
4,34,0,28
4,31,100,1652
4,29,0,51
4,33,96,69
4,31,0,36
4,33,0,83
4,38,108,1
4,38,0,1905
4,36,92,15
4,36,0,1912
4,34,108,8
4,29,100,65
4,34,0,4
4,31,104,1556
4,29,0,50
4,38,96,1
4,31,0,9
4,38,0,1801
4,36,100,38
4,34,104,1920
4,36,0,47
4,36,70,1873
4,34,0,23
4,34,108,1897
4,36,0,18
4,34,0,1855
4,34,82,47
4,34,0,1628
4,41,92,52
4,29,100,17
4,41,0,21
4,41,70,1596
4,41,0,113
4,36,53,7
4,29,0,1
4,29,100,119
4,36,0,4
4,36,27,716
4,29,0,38
4,36,0,3
4,29,85,79
4,31,96,840
4,29,0,32
4,38,104,73
4,31,0,16
4,38,0,1798
4,36,92,26
4,34,108,1920
4,36,0,34
4,34,0,1875
4,29,96,11
4,36,82,960
4,29,0,7
4,36,0,947
4,31,96,6
4,36,92,1920
4,31,0,20
4,36,0,1652
4,31,89,8
4,33,79,120
4,31,0,48
4,38,100,72
4,33,0,18
4,38,0,1879
4,38,85,23
4,38,0,1400
4,38,85,40
4,38,0,10
4,34,104,4
4,34,0,1798
4,34,100,63
4,34,0,1870
4,34,100,50
4,41,100,1440
4,34,0,12
4,41,0,9
4,29,100,34
4,29,0,1839
4,34,104,13
4,34,0,1899
4,31,100,21
4,31,0,1894
4,31,79,26
4,31,0,1912
4,29,100,8
4,31,92,1680
4,29,0,5
4,31,0,8
4,38,100,8
4,38,0,1384
4,38,100,12
4,38,0,1
4,34,104,2
4,34,0,3248
4,46,100,19
4,46,0,447
4,34,96,33
4,41,89,1440
4,34,0,49
4,29,100,431
4,41,0,5
4,29,0,1570
4,29,82,105
4,34,104,5
4,29,0,2
4,34,0,1
4,31,89,6
4,31,0,1855
4,31,76,58
4,31,0,1338
4,31,70,102
4,31,92,22
4,31,0,8
4,31,0,0
4,33,100,1658
4,38,76,250
4,36,82,0
4,38,67,0
4,33,0,6
4,36,0,49
4,38,0,35
4,38,0,0
4,38,55,1710
4,38,0,1849
4,38,73,71
4,33,67,3480
4,38,0,7
4,33,0,149
4,38,79,204
4,38,0,1508
4,38,79,52
4,45,76,120
4,38,0,20
4,50,96,100
4,45,0,11
4,50,0,2005
4,38,92,24
4,45,76,3720
4,38,0,40
4,45,0,58
4,50,96,22
4,50,0,1680
4,38,104,240
4,36,92,1920
4,38,0,50
4,36,0,1866
4,34,108,4
4,29,104,1920
4,34,0,28
4,31,100,1652
4,29,0,51
4,33,96,69
4,31,0,36
4,33,0,83
4,38,108,1
4,38,0,1905
4,36,92,15
4,36,0,1912
4,34,108,8
4,29,100,65
4,34,0,4
4,31,104,1556
4,29,0,50
4,38,96,1
4,31,0,9
4,38,0,1801
4,36,100,38
4,34,104,1920
4,36,0,47
4,36,70,1873
4,34,0,23
4,34,108,1897
4,36,0,18
4,34,0,1855
4,34,82,47
4,34,0,1628
4,41,92,52
4,29,100,17
4,41,0,21
4,41,70,1596
4,41,0,113
4,36,53,7
4,29,0,1
4,29,100,119
4,36,0,4
4,36,27,716
4,29,0,38
4,36,0,3
4,29,85,79
4,31,96,840
4,29,0,32
4,38,104,73
4,31,0,16
4,38,0,1798
4,36,92,26
4,34,108,1920
4,36,0,34
4,34,0,1875
4,29,96,11
4,36,82,960
4,29,0,7
4,36,0,947
4,31,96,6
4,36,92,1920
4,31,0,20
4,36,0,1652
4,31,89,8
4,33,79,120
4,31,0,48
4,38,100,72
4,33,0,18
4,38,0,1879
4,38,85,23
4,38,0,1400
4,38,85,40
4,38,0,10
4,34,104,4
4,34,0,1798
4,34,100,63
4,34,0,1870
4,34,100,50
4,41,100,1440
4,34,0,12
4,41,0,9
4,29,100,34
4,29,0,1839
4,34,104,13
4,34,0,1899
4,31,100,21
4,31,0,1894
4,31,79,26
4,31,0,1912
4,29,100,8
4,31,92,1680
4,29,0,5
4,31,0,8
4,38,100,8
4,38,0,1384
4,38,100,12
4,38,0,1
4,34,104,2
4,34,0,3248
4,46,100,19
4,46,0,447
4,34,96,33
4,41,89,1440
4,34,0,49
4,29,100,431
4,41,0,5
4,29,0,1570
4,29,82,105
4,34,104,5
4,29,0,2
4,34,0,1
4,31,89,6
4,31,0,1855
4,31,76,58
4,31,0,1338
4,31,70,102
4,31,92,22
4,31,0,8
4,31,0,0
4,33,100,1658
4,38,76,250
4,36,82,0
4,38,67,0
4,33,0,6
4,36,0,49
4,38,0,35
4,38,0,0
4,34,104,1710
4,34,0,1798
4,34,100,63
4,34,0,1870
4,34,100,50
4,41,100,1440
4,34,0,12
4,41,0,9
4,29,100,34
4,29,0,1839
4,34,104,13
4,34,0,1899
4,31,100,21
4,31,0,1894
4,31,79,26
4,31,0,1912
4,29,100,8
4,31,92,1680
4,29,0,5
4,31,0,8
4,38,100,8
4,38,0,1384
4,38,100,12
4,38,0,1
4,34,104,2
4,34,0,405
4,46,100,19
4,46,0,434
4,34,96,30
4,41,89,160
4,34,0,49
4,29,100,204
4,41,0,5
4,29,0,32
4,29,82,105
4,34,104,5
4,29,0,2
4,34,0,1
4,31,89,6
4,31,0,229
4,31,76,58
4,31,0,315
4,31,70,102
4,31,92,22
4,31,0,8
4,31,0,0
4,33,100,394
4,38,76,250
4,36,82,0
4,38,67,0
4,33,0,6
4,36,0,49
4,38,0,35
4,38,0,0
5,62,96,38400
5,65,82,0
5,62,0,58
5,65,0,8
5,65,76,294
5,62,73,0
5,62,0,69
5,65,0,13
5,65,67,278
5,62,73,0
5,62,0,143
5,65,0,7
5,62,64,210
5,65,64,0
5,62,0,82
5,65,0,17
5,65,82,261
5,62,73,0
5,62,0,113
5,65,0,0
5,62,47,127
5,62,0,99
