track,note,velocity,time
1,43,99,0
1,43,99,0
1,43,99,0
1,31,99,0
1,43,75,12
1,43,85,12
1,43,85,12
1,55,85,12
1,55,85,12
1,55,85,12
1,50,85,0
1,50,85,12
1,48,85,12
1,45,85,0
1,43,99,0
1,38,99,12
1,31,99,12
1,31,99,12
1,31,99,12
1,33,99,12
1,40,99,12
1,45,99,12
1,40,99,12
1,33,99,12
1,31,99,12
1,31,99,12
1,33,99,12
1,40,99,12
1,45,99,12
1,40,99,12
1,33,99,12
1,38,99,12
1,50,99,12
1,31,99,12
1,31,79,12
1,31,99,12
1,31,79,12
1,33,99,12
1,35,99,12
1,36,99,108
1,43,79,12
1,48,79,12
1,36,99,12
1,43,79,12
1,36,99,12
1,36,99,12
1,38,99,12
1,45,79,12
1,50,79,12
1,50,99,12
1,45,99,108
1,38,79,108
1,31,99,12
1,31,99,12
1,33,99,12
1,40,99,12
1,45,99,12
1,40,99,12
1,33,99,12
1,31,99,12
1,31,99,12
1,33,99,12
1,40,99,12
1,45,99,12
1,40,99,12
1,33,99,12
1,38,99,12
1,50,99,12
1,31,99,12
1,31,79,12
1,31,99,12
1,31,79,12
1,33,99,12
1,35,99,12
1,36,99,108
1,43,79,12
1,48,79,12
1,36,99,12
1,43,79,12
1,36,99,12
1,36,99,12
1,38,99,12
1,50,79,12
1,55,99,12
1,50,79,12
1,31,99,12
1,43,99,12
1,31,99,12
1,43,99,12
1,43,79,12
1,50,99,12
1,43,79,12
1,38,99,12
1,31,99,12
1,43,99,12
1,36,79,12
1,38,99,0
1,31,99,12
1,50,79,12
1,55,99,12
1,50,79,12
1,43,99,12
1,31,99,12
1,43,99,12
1,33,99,12
1,45,99,12
1,38,99,12
1,50,99,12
1,47,99,12
1,35,99,12
1,40,99,12
1,52,99,12
1,50,99,12
1,38,99,12
1,36,99,12
1,48,99,12
1,38,99,12
1,50,99,12
1,55,99,12
1,50,99,0
1,43,99,12
1,38,99,12
1,31,99,12
1,31,99,12
1,31,99,12
1,33,99,12
1,40,99,12
1,45,99,12
1,40,99,12
1,33,99,12
1,31,99,12
1,31,99,12
1,33,99,12
1,40,99,12
1,45,99,12
1,40,99,12
1,33,99,12
1,38,99,12
1,50,99,12
1,31,99,12
1,31,79,12
1,31,99,12
1,31,79,12
1,33,99,12
1,35,99,12
1,36,99,108
1,43,79,12
1,48,79,12
1,36,99,12
1,43,79,12
1,36,99,12
1,36,99,12
1,38,99,12
1,45,79,12
1,50,79,12
1,50,99,12
1,45,99,108
1,38,79,108
1,31,99,12
1,31,99,12
1,33,99,12
1,40,99,12
1,45,99,12
1,40,99,12
1,33,99,12
1,31,99,12
1,31,99,12
1,33,99,12
1,40,99,12
1,45,99,12
1,40,99,12
1,33,99,12
1,38,99,12
1,50,99,12
1,31,99,12
1,31,79,12
1,31,99,12
1,31,79,12
1,33,99,12
1,35,99,12
1,36,99,108
1,43,79,12
1,48,79,12
1,36,99,12
1,43,79,12
1,36,99,12
1,36,99,12
1,38,99,12
1,50,79,12
1,55,99,12
1,50,79,12
1,31,99,12
1,43,99,12
1,31,99,12
1,43,99,12
1,43,79,12
1,50,99,12
1,43,79,12
1,38,99,12
1,31,99,12
1,43,99,12
1,36,79,12
1,38,99,0
1,31,99,12
1,50,79,12
1,55,99,12
1,50,79,12
1,43,99,12
1,31,99,12
1,43,99,12
1,33,99,12
1,45,99,12
1,38,99,12
1,50,99,12
1,47,99,12
1,35,99,12
1,40,99,12
1,52,99,12
1,50,99,12
1,38,99,12
1,36,99,12
1,48,99,12
1,38,99,12
1,50,99,12
1,55,99,12
1,50,99,0
1,31,99,12
1,31,99,12
1,43,99,12
1,31,99,12
1,43,79,12
1,50,99,12
1,55,99,12
1,55,99,108
1,50,79,108
1,43,99,12
1,31,99,12
1,36,99,12
1,43,99,0
1,38,79,12
1,31,99,12
1,43,79,12
1,50,79,12
1,55,99,12
1,50,79,108
1,43,99,12
1,31,99,12
1,43,79,12
1,33,99,12
1,45,79,12
1,38,99,12
1,50,79,12
1,35,99,12
1,47,79,12
1,40,99,12
1,52,79,12
1,38,99,12
1,50,79,12
1,36,99,12
1,48,79,12
1,38,99,12
1,50,79,12
1,31,99,12
1,43,99,12
1,31,99,12
1,43,99,12
1,43,79,12
1,50,99,12
1,43,79,12
1,38,99,12
1,31,99,12
1,43,99,12
1,36,79,12
1,38,99,0
1,31,99,12
1,50,79,12
1,55,99,12
1,50,79,12
1,43,99,12
1,31,99,12
1,43,99,12
1,33,99,12
1,45,99,12
1,38,99,12
1,50,99,12
1,47,99,12
1,35,99,12
1,40,99,12
1,52,99,12
1,50,99,12
1,38,99,12
1,36,99,12
1,48,99,12
1,38,99,12
1,50,99,12
1,55,99,12
1,50,99,0
1,31,99,12
1,43,99,12
1,31,99,12
1,43,99,12
1,43,79,12
1,50,99,12
1,43,79,12
1,38,99,12
1,31,99,12
1,43,99,12
1,36,79,12
1,38,99,0
1,31,99,12
1,50,79,12
1,55,99,12
1,50,79,12
1,43,99,12
1,31,99,12
1,43,99,12
1,33,99,12
1,45,99,12
1,38,99,12
1,50,99,12
1,47,99,12
1,35,99,12
1,40,99,12
1,52,99,12
1,50,99,12
1,38,99,12
1,36,99,12
1,48,99,12
1,38,99,12
1,50,99,12
1,55,99,12
1,50,99,0
1,31,99,12
1,43,99,12
1,31,99,0
1,43,99,0
1,43,79,12
1,50,99,0
1,43,79,12
1,38,99,0
1,31,99,0
1,43,99,0
1,36,79,0
1,38,99,0
1,31,99,0
1,50,79,12
1,55,99,0
1,50,79,12
1,43,99,0
1,31,99,0
1,43,99,0
1,33,99,0
1,45,99,0
1,38,99,0
1,50,99,0
1,47,99,0
1,35,99,0
1,40,99,0
1,52,99,0
1,50,99,0
1,38,99,0
1,36,99,0
1,48,99,0
1,38,99,0
1,50,99,0
1,55,99,0
1,50,99,0
1,31,99,0
1,43,99,0
1,31,99,0
1,43,99,0
1,43,79,12
1,50,99,0
1,43,79,12
1,38,99,0
1,31,99,0
1,43,99,0
1,36,79,0
1,38,99,0
1,31,99,0
1,50,79,12
1,55,99,0
1,50,79,12
1,43,99,0
1,31,99,0
1,43,99,0
1,33,99,0
1,45,99,0
2,67,69,8776
2,71,69,0
2,66,69,12
2,64,69,12
2,66,69,12
2,67,69,12
2,66,69,12
2,64,69,12
2,66,69,12
2,67,69,12
2,71,69,0
2,66,69,12
2,69,69,12
2,72,69,0
2,67,69,12
2,71,69,0
2,66,69,12
2,69,69,12
2,72,69,0
2,65,69,1536
2,67,69,12
2,71,69,0
2,67,69,12
2,72,69,0
2,64,69,12
2,67,69,12
2,69,69,0
2,74,69,0
2,66,69,12
2,67,69,12
2,71,69,0
2,66,69,12
2,69,69,12
2,72,69,0
2,67,69,12
2,71,69,0
2,66,69,12
2,69,69,12
2,72,69,0
2,65,69,1536
2,67,69,12
2,71,69,0
2,67,69,12
2,72,69,0
2,64,69,12
2,67,69,12
2,69,69,0
2,74,69,0
2,66,69,12
2,62,69,12
2,67,69,0
2,71,69,0
2,66,69,12
2,64,69,12
2,67,69,0
2,72,69,0
2,62,69,12
2,67,69,0
2,71,69,0
2,66,69,12
2,64,69,12
2,67,69,0
2,72,69,0
2,62,69,12
2,67,69,0
2,71,69,0
2,64,69,12
2,72,69,0
2,66,69,12
2,69,69,0
2,63,69,12
2,71,69,0
2,64,69,12
2,67,69,0
2,62,69,12
2,66,69,0
2,69,69,0
2,64,69,12
2,67,69,0
2,72,69,0
2,66,69,12
2,69,69,0
2,67,69,12
2,71,69,0
2,66,69,12
2,69,69,12
2,72,69,0
2,67,69,12
2,71,69,0
2,66,69,12
2,69,69,12
2,72,69,0
2,65,69,1536
2,67,69,12
2,71,69,0
2,67,69,12
2,72,69,0
2,64,69,12
2,67,69,12
2,69,69,0
2,74,69,0
2,66,69,12
2,67,69,12
2,71,69,0
2,66,69,12
2,69,69,12
2,72,69,0
2,67,69,12
2,71,69,0
2,66,69,12
2,69,69,12
2,72,69,0
2,65,69,1536
2,67,69,12
2,71,69,0
2,67,69,12
2,72,69,0
2,64,69,12
2,67,69,12
2,69,69,0
2,74,69,0
2,66,69,12
2,62,69,12
2,67,69,0
2,71,69,0
2,66,69,12
2,64,69,12
2,67,69,0
2,72,69,0
2,62,69,12
2,67,69,0
2,71,69,0
2,66,69,12
2,64,69,12
2,67,69,0
2,72,69,0
2,62,69,12
2,67,69,0
2,71,69,0
2,64,69,12
2,72,69,0
2,66,69,12
2,69,69,0
2,63,69,12
2,71,69,0
2,64,69,12
2,67,69,0
2,62,69,12
2,66,69,0
2,69,69,0
2,64,69,12
2,67,69,0
2,72,69,0
2,66,69,12
2,69,69,0
2,62,69,12300
2,67,69,0
2,71,69,0
2,66,69,12
2,64,69,12
2,67,69,0
2,72,69,0
2,62,69,12
2,67,69,0
2,71,69,0
2,66,69,12
2,64,69,12
2,67,69,0
2,72,69,0
2,62,69,12
2,67,69,0
2,71,69,0
2,64,69,12
2,72,69,0
2,66,69,12
2,69,69,0
2,63,69,12
2,71,69,0
2,64,69,12
2,67,69,0
2,62,69,12
2,66,69,0
2,69,69,0
2,64,69,12
2,67,69,0
2,72,69,0
2,66,69,12
2,69,69,0
2,62,69,12
2,67,69,0
2,71,69,0
2,66,69,12
2,64,69,12
2,67,69,0
2,72,69,0
2,62,69,12
2,67,69,0
2,71,69,0
2,66,69,12
2,64,69,12
2,67,69,0
2,72,69,0
2,62,69,12
2,67,69,0
2,71,69,0
2,64,69,12
2,72,69,0
2,66,69,12
2,69,69,0
2,63,69,12
2,71,69,0
2,64,69,12
2,67,69,0
2,62,69,12
2,66,69,0
2,69,69,0
2,64,69,12
2,67,69,0
2,72,69,0
2,66,69,12
2,69,69,0
2,62,69,12
2,67,69,0
2,71,69,0
2,66,69,12
2,64,69,0
2,67,69,0
2,72,69,0
2,62,69,0
2,67,69,0
2,71,69,0
2,66,69,0
2,64,69,0
2,67,69,0
2,72,69,0
2,62,69,0
2,67,69,0
2,71,69,0
2,64,69,0
2,72,69,0
2,66,69,0
2,69,69,0
2,63,69,0
2,71,69,0
2,64,69,0
2,67,69,0
2,62,69,0
2,66,69,0
2,69,69,0
2,64,69,0
2,67,69,0
2,72,69,0
2,66,69,0
2,69,69,0
2,62,69,0
2,67,69,0
2,71,69,0
2,66,69,0
2,64,69,0
2,67,69,0
2,72,69,0
2,62,69,0
2,67,69,0
2,71,69,0
2,66,69,0
2,64,69,0
2,67,69,0
2,72,69,0
2,62,69,0
2,67,69,0
2,71,69,0
2,64,69,0
2,72,69,0
3,62,126,0
3,71,126,396
3,69,126,12
3,64,116,588
3,62,126,12
3,67,116,12
3,71,126,12
3,74,126,12
3,74,126,12
3,76,126,12
3,72,126,12
3,69,126,368
3,71,126,12
3,72,126,12
3,67,116,12
3,74,126,12
3,67,116,204
3,77,126,12
3,76,126,12
3,76,116,12
3,74,126,12
3,72,126,12
3,72,126,212
3,71,116,12
3,69,126,12
3,62,126,836
3,71,126,12
3,69,126,12
3,64,116,460
3,62,126,12
3,67,116,12
3,71,126,12
3,74,126,204
3,74,126,12
3,76,116,12
3,72,126,12
3,69,126,296
3,71,116,12
3,72,126,12
3,67,106,12
3,67,116,12
3,74,126,12
3,74,116,12
3,77,126,12
3,76,116,12
3,74,126,12
3,72,116,12
3,72,126,12
3,72,116,208
3,72,126,12
3,71,116,12
3,69,126,12
3,67,126,12
3,69,126,12
3,69,126,12
3,67,116,12
3,71,126,12
3,69,126,12
3,67,116,12
3,72,126,12
3,71,116,12
3,69,126,12
3,67,126,12
3,69,116,12
3,69,126,12
3,67,116,12
3,71,126,12
3,69,126,12
3,67,116,12
3,72,126,12
3,71,116,12
3,69,126,12
3,67,126,12
3,69,116,12
3,69,126,12
3,67,116,12
3,71,126,12
3,69,126,12
3,67,116,12
3,72,126,12
3,71,116,12
3,69,126,12
3,67,126,12
3,69,116,12
3,69,126,12
3,67,116,12
3,71,126,12
3,69,126,12
3,67,116,12
3,72,126,12
3,71,116,12
3,69,126,12
3,62,126,780
3,71,116,12
3,69,126,12
3,64,116,780
3,62,126,12
3,67,116,12
3,71,126,12
3,74,126,12
3,74,126,12
3,76,116,12
3,72,126,12
3,69,126,396
3,71,116,12
3,72,126,12
3,67,116,300
3,74,126,12
3,74,116,12
3,77,126,12
3,76,126,12
3,76,116,12
3,74,126,12
3,74,116,12
3,74,126,12
3,72,126,684
3,72,126,12
3,71,116,12
3,69,126,12
3,71,126,944
3,67,116,12
3,69,126,12
3,64,116,684
3,62,109,12
3,62,126,12
3,67,116,12
3,71,126,12
3,74,116,192
3,74,126,12
3,76,116,12
3,72,126,12
3,69,126,240
3,71,116,12
3,72,126,12
3,71,116,12
3,67,116,12
3,74,126,12
3,74,126,12
3,77,126,12
3,76,116,12
3,74,126,12
3,74,116,12
3,74,126,12
3,72,116,492
3,72,126,12
3,71,116,12
3,69,126,12
3,67,126,12
3,69,116,12
3,69,126,4
3,67,116,12
3,71,126,12
3,69,126,12
3,67,116,12
3,72,126,12
3,71,116,12
3,69,126,12
3,67,126,12
3,69,116,12
3,69,126,12
3,67,116,12
3,71,126,12
3,69,126,12
3,67,116,12
3,72,126,12
3,71,116,12
3,69,126,12
3,67,126,12
3,69,116,12
3,69,126,12
3,67,116,12
3,71,126,12
3,69,126,12
3,67,116,12
3,72,126,12
3,71,116,12
3,69,126,12
3,67,126,12
3,69,116,12
3,69,126,12
3,67,116,12
3,71,126,12
3,69,126,12
3,67,116,12
3,72,126,12
3,71,116,12
3,69,126,12
3,69,126,12492
3,67,116,12
3,71,126,12
3,69,126,12
3,67,116,12
3,72,126,12
3,71,116,12
3,69,126,12
3,67,126,12
3,69,116,12
3,69,126,12
3,67,116,12
3,71,126,12
3,69,126,12
3,67,116,12
3,72,126,12
3,71,116,12
3,69,126,12
3,67,126,12
3,69,116,12
3,69,126,12
3,67,116,12
3,71,126,12
3,69,126,12
3,67,116,12
3,72,126,12
3,71,116,12
3,69,126,12
3,67,126,12
3,69,116,12
3,69,126,12
3,67,116,12
3,71,126,12
3,69,126,12
3,67,116,12
3,72,126,12
3,71,116,12
3,69,126,12
3,67,126,12
3,69,116,12
3,69,126,12
3,67,116,12
3,71,126,12
3,69,126,12
3,67,116,12
3,72,126,12
3,71,116,12
3,69,126,12
3,67,126,12
3,69,116,12
3,69,126,12
3,67,116,12
3,71,126,12
3,69,126,12
3,67,116,12
3,72,126,12
3,71,116,12
3,69,126,12
3,67,126,12
3,69,116,12
3,69,126,0
3,67,116,12
3,71,126,0
3,69,126,12
3,67,116,0
3,72,126,0
3,71,116,12
3,69,126,0
3,67,126,12
3,69,116,0
3,69,126,0
3,67,116,12
3,71,126,0
3,69,126,12
3,67,116,0
3,72,126,0
3,71,116,12
3,69,126,0
3,67,126,12
3,69,116,0
3,69,126,0
3,67,116,12
3,71,126,0
3,69,126,12
3,67,116,0
3,72,126,0
3,71,116,12
3,69,126,0
3,67,126,12
3,69,116,0
3,69,126,0
3,67,116,12
3,71,126,0
3,69,126,12
3,67,116,0
3,72,126,0
3,71,116,12
3,69,126,0
3,67,126,12
3,69,116,0
4,50,99,88608
4,55,99,0
4,59,99,0
4,50,99,4
4,54,99,0
4,59,99,0
4,52,99,4
4,55,99,0
4,60,99,0
4,54,99,4
4,57,99,0
4,62,99,0
4,50,99,4
4,55,99,0
4,59,99,0
4,50,99,4
4,54,99,0
4,59,99,0
4,52,99,4
4,55,99,0
4,60,99,0
4,54,99,4
4,57,99,0
4,62,99,0
4,50,99,4
4,55,99,0
4,59,99,0
4,52,99,4
4,55,99,0
4,60,99,0
4,54,99,4
4,57,99,0
4,62,99,0
4,51,99,4
4,54,99,0
4,59,99,0
4,50,99,4
4,55,99,0
4,59,99,0
4,50,99,4
4,54,99,0
4,59,99,0
4,52,99,4
4,55,99,0
4,60,99,0
4,54,99,4
4,57,99,0
4,62,99,0
5,50,79,2572
5,57,109,12
5,50,49,96
5,50,79,56
