track,note,velocity,time
2,36,127,24952
2,36,127,1520
2,36,127,166
2,36,127,180
2,36,127,188
2,36,127,216
2,36,127,166
2,36,127,180
2,36,127,188
2,36,127,216
2,36,127,166
2,36,127,180
2,36,127,188
2,36,127,216
2,36,127,166
2,36,127,180
2,36,127,188
2,36,127,216
2,36,127,166
2,36,127,180
2,36,127,188
2,36,127,216
2,36,127,166
2,36,127,180
2,36,127,188
2,36,127,216
2,36,127,166
2,36,127,180
2,36,127,188
2,36,127,216
2,36,127,1318
2,36,127,166
2,36,127,180
2,36,127,188
2,36,127,216
2,36,127,166
2,36,127,180
2,36,127,188
2,36,127,216
2,36,127,166
2,36,127,180
2,36,127,188
2,36,127,216
2,36,127,166
2,36,127,180
2,36,127,188
2,36,127,216
2,36,127,166
2,36,127,180
2,36,127,188
2,36,127,216
2,36,127,166
2,36,127,180
2,36,127,188
2,36,127,216
2,36,127,166
2,36,127,180
2,36,127,188
2,36,127,216
2,36,127,166
2,36,127,180
2,36,127,188
2,36,127,216
2,36,127,166
2,36,127,180
2,36,127,188
2,36,127,216
2,36,127,166
2,36,127,180
2,36,127,188
2,36,127,216
2,36,127,166
2,36,127,180
2,36,127,188
2,36,127,216
2,36,127,166
2,36,127,180
2,36,127,188
2,36,127,216
2,36,127,166
2,36,127,180
2,36,127,188
2,36,127,216
2,36,127,166
2,36,127,180
2,36,127,188
2,36,127,216
2,36,127,166
2,36,127,180
2,36,127,188
2,36,127,216
2,36,127,166
2,36,127,180
2,36,127,188
2,36,127,216
2,36,127,166
2,36,127,180
2,36,127,188
2,36,127,216
2,36,127,166
2,36,127,180
2,36,127,188
2,36,127,216
2,36,127,166
2,36,127,180
2,36,127,188
2,36,127,216
2,36,127,166
2,36,127,180
2,36,127,188
2,36,127,216
2,36,127,166
2,36,127,180
2,36,127,188
2,36,127,216
2,36,127,166
2,36,127,180
2,36,127,188
2,36,127,216
2,36,127,166
2,36,127,180
2,36,127,188
2,36,127,216
2,36,127,166
2,36,127,180
2,36,127,0
2,36,127,0
2,36,127,96
2,36,127,96
2,36,127,96
2,36,127,166
2,36,127,180
2,36,127,188
2,36,127,216
2,36,127,166
2,36,127,180
2,36,127,188
2,36,127,216
2,36,127,166
2,36,127,180
2,36,127,188
2,36,127,216
2,36,127,166
2,36,127,180
2,36,127,188
2,36,127,216
2,36,127,166
2,36,127,180
2,36,127,188
2,36,127,216
2,36,127,166
2,36,127,180
2,36,127,188
2,36,127,216
2,36,127,166
2,36,127,180
2,36,127,188
2,36,127,216
2,36,127,1318
2,36,127,166
2,36,127,180
2,36,127,188
2,36,127,216
2,36,127,166
2,36,127,180
2,36,127,188
2,36,127,216
2,36,127,166
2,36,127,180
2,36,127,188
2,36,127,216
2,36,127,166
2,36,127,180
2,36,127,188
2,36,127,216
2,36,127,166
2,36,127,180
2,36,127,188
2,36,127,216
2,36,127,166
2,36,127,180
2,36,127,188
2,36,127,216
2,36,127,166
2,36,127,180
2,36,127,188
2,36,127,216
2,36,127,166
2,36,127,180
2,36,127,188
2,36,127,216
2,36,127,166
2,36,127,180
2,36,127,188
2,36,127,216
2,36,127,166
2,36,127,180
2,36,127,188
2,36,127,216
2,36,127,166
2,36,127,180
2,36,127,188
2,36,127,216
2,36,127,166
2,36,127,180
2,36,127,188
2,36,127,216
2,36,127,166
2,36,127,180
2,36,127,188
2,36,127,216
2,36,127,166
2,36,127,180
2,36,127,188
2,36,127,216
2,36,127,166
2,36,127,180
2,36,127,188
2,36,127,216
2,36,127,166
2,36,127,180
2,36,127,188
2,36,127,216
2,36,127,166
2,36,127,180
2,36,127,188
2,36,127,216
2,36,127,166
2,36,127,180
2,36,127,188
2,36,127,216
2,36,127,166
2,36,127,180
2,36,127,188
2,36,127,216
2,36,127,166
2,36,127,180
2,36,127,188
2,36,127,216
2,36,127,166
2,36,127,180
2,36,127,188
2,36,127,216
2,36,127,166
2,36,127,180
2,36,127,188
2,36,127,216
2,36,127,166
2,36,127,180
2,36,127,188
2,36,127,216
2,36,127,166
2,36,127,180
2,36,127,288
2,36,127,288
2,36,127,166
2,36,127,180
2,36,127,188
2,36,127,216
2,36,127,166
2,36,127,180
2,36,127,188
2,36,127,216
2,36,127,166
2,36,127,180
2,36,127,188
2,36,127,216
2,36,127,166
2,36,127,180
2,36,127,188
2,36,127,216
2,36,127,166
2,36,127,180
2,36,127,188
2,36,127,216
2,36,127,166
2,36,127,180
2,36,127,188
2,36,127,216
2,36,127,166
2,36,127,180
2,36,127,188
2,36,127,216
2,36,127,166
2,36,127,180
2,36,127,0
2,36,127,0
2,36,127,96
2,36,127,96
2,36,127,96
2,36,127,166
2,36,127,180
2,36,127,188
2,36,127,216
2,36,127,166
2,36,127,180
2,36,127,188
2,36,127,216
2,36,127,10309
2,36,127,687
2,36,127,166
2,36,127,180
2,36,127,188
2,36,127,216
2,36,127,166
2,36,127,180
2,36,127,188
2,36,127,216
2,36,127,166
2,36,127,180
2,36,127,188
2,36,127,216
2,36,127,166
2,36,127,180
2,36,127,188
2,36,127,216
2,36,127,166
2,36,127,180
2,36,127,188
2,36,127,216
2,36,127,166
2,36,127,180
2,36,127,188
2,36,127,216
2,36,127,166
2,36,127,180
2,36,127,188
2,36,127,216
2,36,127,1318
2,36,127,166
2,36,127,180
2,36,127,188
2,36,127,216
2,36,127,166
2,36,127,180
2,36,127,188
2,36,127,216
2,36,127,166
2,36,127,180
2,36,127,188
2,36,127,216
2,36,127,166
2,36,127,180
2,36,127,188
2,36,127,216
2,36,127,166
2,36,127,180
2,36,127,188
2,36,127,216
2,36,127,166
2,36,127,180
2,36,127,188
2,36,127,216
2,36,127,166
2,36,127,180
2,36,127,188
2,36,127,216
2,36,127,166
2,36,127,180
2,36,127,288
2,36,127,288
2,36,127,166
2,36,127,180
2,36,127,188
2,36,127,216
2,36,127,166
2,36,127,180
2,36,127,188
2,36,127,216
2,36,127,166
2,36,127,180
2,36,127,188
2,36,127,216
2,36,127,166
2,36,127,180
2,36,127,188
2,36,127,216
2,36,127,166
2,36,127,180
2,36,127,188
2,36,127,216
2,36,127,166
2,36,127,180
2,36,127,188
2,36,127,216
2,36,127,166
2,36,127,180
2,36,127,188
2,36,127,216
2,36,127,166
2,36,127,180
2,36,127,0
2,36,127,0
2,36,127,96
2,36,127,96
2,36,127,96
3,40,83,37236
3,40,84,46
3,40,85,46
3,40,86,47
3,40,87,53
3,40,89,45
3,40,90,56
3,40,91,46
3,40,92,54
3,40,93,48
3,40,94,54
3,40,95,43
3,40,96,55
3,40,98,46
3,40,99,48
3,40,100,36
3,40,83,10787
3,40,84,46
3,40,85,46
3,40,86,47
3,40,87,53
3,40,89,45
3,40,90,56
3,40,91,46
3,40,92,54
3,40,93,48
3,40,94,54
3,40,95,43
3,40,96,55
3,40,98,46
3,40,99,48
3,40,100,36
3,40,104,10595
3,40,104,60
3,40,104,222
3,40,104,128
3,40,104,43
3,40,104,130
3,40,104,46
3,40,104,41
3,40,104,57
3,40,104,49
3,40,104,60
3,40,104,44
3,40,104,60
3,40,104,42
3,40,83,23086
3,40,84,46
3,40,85,46
3,40,86,47
3,40,87,53
3,40,89,45
3,40,90,56
3,40,91,46
3,40,92,54
3,40,93,48
3,40,94,54
3,40,95,43
3,40,96,55
3,40,98,46
3,40,99,48
3,40,100,36
3,40,83,10787
3,40,84,46
3,40,85,46
3,40,86,47
3,40,87,53
3,40,89,45
3,40,90,56
3,40,91,46
3,40,92,54
3,40,93,48
3,40,94,54
3,40,95,43
3,40,96,55
3,40,98,46
3,40,99,48
3,40,100,36
3,40,104,10595
3,40,104,60
3,40,104,222
3,40,104,128
3,40,104,43
3,40,104,130
3,40,104,46
3,40,104,41
3,40,104,57
3,40,104,49
3,40,104,60
3,40,104,44
3,40,104,60
3,40,104,42
3,40,95,10990
3,40,95,48
3,40,95,221
3,40,95,129
3,40,95,50
3,40,95,49
3,40,95,63
3,40,95,59
3,40,95,51
3,40,95,58
3,40,95,49
3,40,90,13876
3,40,92,64
3,40,94,47
3,40,96,69
3,40,98,55
3,40,100,68
3,40,102,53
3,40,104,69
3,40,106,62
3,40,108,61
3,40,110,54
3,40,112,51
3,40,114,52
3,40,116,47
3,40,118,58
3,40,120,45
3,40,83,23083
3,40,84,46
3,40,85,46
3,40,86,47
3,40,87,53
3,40,89,45
3,40,90,56
3,40,91,46
3,40,92,54
3,40,93,48
3,40,94,54
3,40,95,43
3,40,96,55
3,40,98,46
3,40,99,48
3,40,100,36
3,40,95,10979
3,40,95,48
3,40,95,221
3,40,95,129
3,40,95,50
3,40,95,49
3,40,95,63
3,40,95,59
3,40,95,51
3,40,95,58
3,40,95,49
4,42,93,14192
4,42,73,48
4,46,106,48
4,42,73,52
4,42,93,49
4,42,73,39
4,46,106,49
4,42,73,51
4,42,93,51
4,42,73,38
4,46,106,51
4,42,73,40
4,42,93,45
4,42,73,34
4,46,106,41
4,42,73,39
4,42,93,34
4,42,73,48
4,46,106,48
4,42,73,52
4,42,93,49
4,42,73,39
4,46,106,49
4,42,73,51
4,42,93,51
4,42,73,38
4,46,106,51
4,42,73,40
4,42,93,45
4,42,73,34
4,46,106,41
4,42,73,39
4,42,93,34
4,42,73,48
4,46,106,48
4,42,73,52
4,42,93,49
4,42,73,39
4,46,106,49
4,42,73,51
4,42,93,51
4,42,73,38
4,46,106,51
4,42,73,40
4,42,93,45
4,42,73,34
4,46,106,41
4,42,73,39
4,42,93,34
4,42,73,48
4,46,106,48
4,42,73,52
4,42,93,49
4,42,73,39
4,46,106,49
4,42,73,51
4,42,93,51
4,42,73,38
4,46,106,51
4,42,73,40
4,42,93,45
4,42,73,34
4,46,106,41
4,42,73,39
4,42,93,34
4,42,73,48
4,46,106,48
4,42,73,52
4,42,93,49
4,42,73,39
4,46,106,49
4,42,73,51
4,42,93,51
4,42,73,38
4,46,106,51
4,42,73,40
4,42,93,45
4,42,73,34
4,46,106,41
4,42,73,39
4,42,93,34
4,42,73,48
4,46,106,48
4,42,73,52
4,42,93,49
4,42,73,39
4,46,106,49
4,42,73,51
4,42,93,51
4,42,73,38
4,46,106,51
4,42,73,40
4,42,93,45
4,42,73,34
4,46,106,41
4,42,73,39
4,42,93,34
4,42,73,48
4,46,106,48
4,42,73,52
4,42,93,49
4,42,73,39
4,46,106,49
4,42,73,51
4,42,93,51
4,42,73,38
4,46,106,51
4,42,73,40
4,42,93,45
4,42,73,34
4,46,106,41
4,42,73,39
4,42,93,1570
4,42,73,48
4,46,106,48
4,42,73,52
4,42,93,49
4,42,73,39
4,46,106,49
4,42,73,51
4,42,93,51
4,42,73,38
4,46,106,51
4,42,73,40
4,42,93,45
4,42,73,34
4,46,106,41
4,42,73,39
4,42,93,34
4,42,73,48
4,46,106,48
4,42,73,52
4,42,93,49
4,42,73,39
4,46,106,49
4,42,73,51
4,42,93,51
4,42,73,38
4,46,106,51
4,42,73,40
4,42,93,45
4,42,73,34
4,46,106,41
4,42,73,39
4,42,93,34
4,42,73,48
4,46,106,48
4,42,73,52
4,42,93,49
4,42,73,39
4,46,106,49
4,42,73,51
4,42,93,51
4,42,73,38
4,46,106,51
4,42,73,40
4,42,93,45
4,42,73,34
4,46,106,41
4,42,73,39
4,42,93,34
4,42,73,48
4,46,106,48
4,42,73,52
4,42,93,49
4,42,73,39
4,46,106,49
4,42,73,51
4,42,93,51
4,42,73,38
4,46,106,51
4,42,73,40
4,42,93,45
4,42,73,34
4,46,106,41
4,42,73,39
4,42,93,34
4,42,73,48
4,46,106,48
4,42,73,52
4,42,93,49
4,42,73,39
4,46,106,49
4,42,73,51
4,42,93,51
4,42,73,38
4,46,106,51
4,42,73,40
4,42,93,45
4,42,73,34
4,46,106,41
4,42,73,39
4,42,93,34
4,42,73,48
4,46,106,48
4,42,73,52
4,42,93,49
4,42,73,39
4,46,106,49
4,42,73,51
4,42,93,51
4,42,73,38
4,46,106,51
4,42,73,40
4,42,93,45
4,42,73,34
4,46,106,41
4,42,73,39
4,42,93,34
4,42,73,48
4,46,106,48
4,42,73,52
4,42,93,49
4,42,73,39
4,46,106,49
4,42,73,51
4,42,93,51
4,42,73,38
4,46,106,51
4,42,73,40
4,42,93,45
4,42,73,34
4,46,106,41
4,42,73,39
4,42,93,34
4,42,73,48
4,46,106,48
4,42,73,52
4,42,93,49
4,42,73,39
4,46,106,49
4,42,73,51
4,42,93,51
4,42,73,38
4,46,106,51
4,42,73,40
4,42,93,45
4,42,73,34
4,46,106,41
4,42,73,39
4,42,93,34
4,42,73,48
4,46,106,48
4,42,73,52
4,42,93,49
4,42,73,39
4,46,106,49
4,42,73,51
4,42,93,51
4,42,73,38
4,46,106,51
4,42,73,40
4,42,93,45
4,42,73,34
4,46,106,41
4,42,73,39
4,42,93,34
4,42,73,48
4,46,106,48
4,42,73,52
4,42,93,49
4,42,73,39
4,46,106,49
4,42,73,51
4,42,93,51
4,42,73,38
4,46,106,51
4,42,73,40
4,42,93,45
4,42,73,34
4,46,106,41
4,42,73,39
4,42,93,34
4,42,73,48
4,46,106,48
4,42,73,52
4,42,93,49
4,42,73,39
4,46,106,49
4,42,73,51
4,42,93,51
4,42,73,38
4,46,106,51
4,42,73,40
4,42,93,45
4,42,73,34
4,46,106,41
4,42,73,39
4,42,93,34
4,42,73,48
4,46,106,48
4,42,73,52
4,42,93,49
4,42,73,39
4,46,106,49
4,42,73,51
4,42,93,51
4,42,73,38
4,46,106,51
4,42,73,40
4,42,93,45
4,42,73,34
4,46,106,41
4,42,73,39
4,42,93,34
4,42,73,48
4,46,106,48
4,42,73,52
4,42,93,49
4,42,73,39
4,46,106,49
4,42,73,51
4,42,93,51
4,42,73,38
4,46,106,51
4,42,73,40
4,42,93,45
4,42,73,34
4,46,106,41
4,42,73,39
4,42,93,34
4,42,73,48
4,46,106,48
4,42,73,52
4,42,93,49
4,42,73,39
4,46,106,49
4,42,73,51
4,42,93,51
4,42,73,38
4,46,106,51
4,42,73,40
4,42,93,45
4,42,73,34
4,46,106,41
4,42,73,39
4,42,93,34
4,42,73,48
4,46,106,48
4,42,73,52
4,42,93,49
4,42,73,39
4,46,106,49
4,42,73,51
4,42,93,51
4,42,73,38
4,46,106,51
4,42,73,40
4,42,93,45
4,42,73,34
4,46,106,41
4,42,73,39
4,42,93,34
4,42,73,48
4,46,106,48
4,42,73,52
4,42,93,49
4,42,73,39
4,46,106,49
4,42,73,51
4,42,93,51
4,42,73,38
4,46,106,51
4,42,73,40
4,42,93,45
4,42,73,34
4,46,106,41
4,42,73,39
4,42,93,34
4,42,73,48
4,46,106,48
4,42,73,52
4,42,93,49
4,42,73,39
4,46,106,49
4,42,73,51
4,42,93,51
4,42,73,38
4,46,106,51
4,42,73,40
4,42,93,45
4,42,73,34
4,46,106,41
4,42,73,39
4,42,93,34
4,42,73,48
4,46,106,48
4,42,73,52
4,42,93,49
4,42,73,39
4,46,106,49
4,42,73,51
4,42,93,51
4,42,73,38
4,46,106,51
4,42,73,40
4,42,93,45
4,42,73,34
4,46,106,41
4,42,73,39
4,42,93,34
4,42,73,48
4,46,106,48
4,42,73,52
4,42,93,49
4,42,73,39
4,46,106,49
4,42,73,51
4,42,93,51
4,42,73,38
4,46,106,51
4,42,73,40
4,42,93,45
4,42,73,34
4,46,106,41
4,42,73,39
4,42,93,34
4,42,73,48
4,46,106,48
4,42,73,52
4,42,93,49
4,42,73,39
4,46,106,49
4,42,73,51
4,42,93,51
4,42,73,38
4,46,106,51
4,42,73,40
4,42,93,45
4,42,73,34
4,46,106,41
4,42,73,39
4,42,93,34
4,42,73,48
4,46,106,48
4,42,73,52
4,42,93,49
4,42,73,39
4,46,106,49
4,42,73,51
4,42,93,51
4,42,73,38
4,46,106,51
4,42,73,40
4,42,93,45
4,42,73,34
4,46,106,41
4,42,73,39
4,42,93,34
4,42,73,48
4,46,106,48
4,42,73,52
4,42,93,49
4,42,73,39
4,46,106,49
4,42,73,51
4,42,93,51
4,42,73,38
