track,note,velocity,time
0,55,81,664
0,47,99,0
0,52,99,0
0,55,81,15
0,47,99,0
0,52,99,0
0,52,0,45
0,55,0,0
0,47,0,0
0,55,0,15
0,47,0,0
0,52,0,0
0,52,99,165
0,55,81,0
0,47,99,0
0,52,99,15
0,55,81,0
0,47,99,0
0,47,0,45
0,52,0,0
0,55,0,0
0,52,0,15
0,55,0,0
0,47,0,0
0,47,99,165
0,52,99,0
0,55,81,0
0,52,99,15
0,55,81,0
0,47,99,0
0,55,0,45
0,47,0,0
0,52,0,0
0,52,0,15
0,55,0,0
0,47,0,0
0,47,99,165
0,52,99,0
0,55,81,0
0,47,99,15
0,55,81,0
0,52,99,0
0,55,0,45
0,47,0,0
0,52,0,0
0,27,123,0
0,38,114,0
0,47,0,15
0,52,0,0
0,55,0,0
0,52,64,40
0,27,0,5
0,38,0,0
0,28,123,0
0,49,49,0
0,35,45,0
0,40,64,0
0,52,0,55
0,35,0,5
0,28,0,0
0,40,0,0
0,42,64,0
0,42,0,30
0,52,99,30
0,55,81,0
0,47,99,0
0,42,64,0
0,40,70,0
0,52,99,15
0,47,99,0
0,55,81,0
0,42,0,15
0,52,64,25
0,47,0,5
0,55,0,0
0,40,0,0
0,52,0,0
0,28,123,0
0,42,64,0
0,35,45,0
0,40,64,0
0,55,0,15
0,47,0,0
0,52,0,0
0,42,0,15
0,52,0,25
0,40,0,5
0,35,0,0
0,42,64,0
0,28,0,3
0,42,0,27
0,42,64,30
0,42,0,30
0,47,99,30
0,52,99,0
0,55,81,0
0,54,58,0
0,42,64,0
0,40,70,0
0,54,48,7
0,54,0,1
0,54,0,7
0,47,99,0
0,55,81,0
0,52,99,0
0,54,37,0
0,54,27,7
0,54,0,1
0,54,0,7
0,49,0,0
0,42,0,0
0,55,0,30
0,47,0,0
0,40,0,0
0,52,0,0
0,42,64,0
0,55,0,15
0,52,0,0
0,47,0,0
0,42,0,15
0,52,64,25
0,28,123,5
0,35,45,0
0,42,64,0
0,40,64,0
0,42,0,30
0,52,0,25
0,40,0,5
0,35,0,0
0,42,64,0
0,28,0,3
0,42,0,27
0,52,99,30
0,55,81,0
0,47,99,0
0,40,70,0
0,42,64,0
0,52,99,15
0,47,99,0
0,55,81,0
0,42,0,15
0,52,64,25
0,40,0,5
0,52,0,0
0,47,0,0
0,55,0,0
0,28,123,0
0,42,64,0
0,35,45,0
0,40,64,0
0,47,0,15
0,55,0,0
0,52,0,0
0,42,0,15
0,52,0,25
0,40,0,5
0,35,0,0
0,42,64,0
0,28,0,3
0,42,0,27
0,42,64,30
0,42,0,30
0,47,99,30
0,52,99,0
0,55,81,0
0,40,70,0
0,42,64,0
0,54,58,0
0,54,48,7
0,54,0,1
0,54,0,7
0,47,99,0
0,55,81,0
0,52,99,0
0,54,37,0
0,54,27,7
0,54,0,1
0,54,0,7
0,42,0,0
0,47,0,30
0,40,0,0
0,55,0,0
0,52,0,0
0,27,123,0
0,42,64,0
0,38,114,0
0,52,0,15
0,47,0,0
0,55,0,0
0,42,0,15
0,52,64,25
0,38,0,5
0,27,0,0
0,28,123,0
0,35,45,0
0,42,64,0
0,40,64,0
0,42,0,30
0,52,0,25
0,28,0,5
0,35,0,0
0,40,0,0
0,42,64,0
0,42,0,1
0,69,64,0
0,47,99,0
0,52,99,0
0,55,81,0
0,40,70,0
0,42,64,0
0,47,99,0
0,52,99,0
0,55,81,0
0,42,0,1
0,52,64,3
0,55,0,5
0,52,0,0
0,40,0,0
0,47,0,0
0,28,123,0
0,42,64,0
0,35,45,0
0,40,64,0
0,55,0,15
0,52,0,0
0,47,0,0
0,42,0,15
0,52,0,25
0,40,0,5
0,35,0,0
0,42,64,0
0,28,0,7
0,42,0,23
0,42,64,30
0,42,0,30
0,47,99,30
0,52,99,0
0,55,81,0
0,40,70,0
0,54,58,0
0,42,64,0
0,54,48,7
0,54,0,1
0,54,0,7
0,47,99,0
0,52,99,0
0,55,81,0
0,54,37,0
0,54,27,7
0,54,0,1
0,54,0,7
0,42,0,0
0,69,0,3
0,55,0,2
0,40,0,0
0,47,0,0
0,52,0,0
0,71,64,0
0,42,64,0
0,52,0,5
0,55,0,0
0,47,0,0
0,42,0,15
0,52,64,25
0,28,123,5
0,35,45,0
0,42,64,0
0,40,64,0
0,42,0,30
0,52,0,25
0,35,0,5
0,40,0,0
0,42,64,0
0,28,0,3
0,42,0,27
0,71,0,24
0,71,64,2
0,52,99,0
0,55,81,0
0,47,99,0
0,42,64,0
0,40,70,0
0,52,99,1
0,47,99,0
0,55,81,0
0,42,0,2
0,52,64,7
0,47,0,5
0,55,0,0
0,40,0,0
0,52,0,0
0,28,123,0
0,42,64,0
0,35,45,0
0,40,64,0
0,55,0,15
0,47,0,0
0,52,0,0
0,42,0,15
0,52,0,25
0,28,0,4
0,40,0,1
0,35,0,0
0,42,64,0
0,42,0,30
0,71,0,21
0,64,64,2
0,42,64,4
0,42,0,30
0,47,99,3
0,52,99,0
0,55,81,0
0,38,123,0
0,42,64,0
0,54,58,0
0,40,70,0
0,54,48,7
0,54,0,1
0,54,0,7
0,52,99,0
0,55,81,0
0,47,99,0
0,54,37,0
0,54,27,6
0,54,0,1
0,42,0,1
0,54,0,0
0,40,0,1
0,52,0,0
0,47,0,0
0,55,0,0
0,42,64,0
0,38,114,0
0,55,0,3
0,52,0,0
0,47,0,0
0,42,0,1
0,52,64,3
0,38,0,4
0,38,0,0
0,28,123,0
0,42,64,0
0,35,45,0
0,40,64,0
0,64,0,23
0,42,0,7
0,52,0,25
0,35,0,5
0,40,0,0
0,42,64,0
0,28,0,2
0,42,0,28
0,69,64,7
0,55,81,0
0,47,99,0
0,52,99,0
0,42,64,0
0,40,70,0
0,52,99,1
0,55,81,0
0,47,99,0
0,42,0,2
0,52,64,7
0,52,0,5
0,47,0,0
0,40,0,0
0,55,0,0
0,28,123,0
0,35,45,0
0,42,64,0
0,40,64,0
0,47,0,15
0,55,0,0
0,52,0,0
0,42,0,15
0,52,0,25
0,35,0,5
0,40,0,0
0,42,64,0
0,28,0,5
0,42,0,25
0,42,64,30
0,42,0,30
0,47,99,30
0,52,99,0
0,55,81,0
0,54,58,0
0,40,70,0
0,42,64,0
0,54,48,7
0,54,0,1
0,54,0,7
0,55,81,0
0,47,99,0
0,52,99,0
0,54,37,0
0,54,27,7
0,54,0,1
0,54,0,7
0,42,0,0
0,69,0,1
0,47,0,2
0,55,0,0
0,52,0,0
0,40,0,0
0,71,64,0
0,42,64,0
0,52,0,7
0,55,0,0
0,47,0,0
0,42,0,15
0,52,64,25
0,28,123,5
0,42,64,0
0,35,45,0
0,40,64,0
0,42,0,30
0,52,0,25
0,35,0,5
0,40,0,0
0,42,64,0
0,28,0,8
0,42,0,22
0,71,0,24
0,71,64,6
0,47,99,0
0,52,99,0
0,55,81,0
0,42,64,0
0,40,70,0
0,55,81,1
0,47,99,0
0,52,99,0
0,42,0,2
0,52,64,15
0,55,0,5
0,52,0,0
0,40,0,0
0,47,0,0
0,28,123,0
0,35,45,0
0,42,64,0
0,40,64,0
0,52,0,15
0,47,0,0
0,55,0,0
0,42,0,15
0,52,0,25
0,35,0,5
0,40,0,0
0,42,64,0
0,28,0,6
0,42,0,24
0,71,0,4
0,64,64,0
0,42,64,0
0,42,0,30
0,55,81,30
0,52,99,0
0,47,99,0
0,40,70,0
0,54,58,0
0,42,64,0
0,54,48,7
0,54,0,1
0,54,0,7
0,47,99,0
0,55,81,0
0,52,99,0
0,54,37,0
0,54,27,7
0,54,0,1
0,54,0,7
0,42,0,0
0,52,0,30
0,47,0,0
0,40,0,0
0,55,0,0
0,27,123,0
0,42,64,0
0,38,114,0
0,55,0,15
0,52,0,0
0,47,0,0
0,42,0,15
0,52,64,25
0,38,0,5
0,27,0,0
0,28,123,0
0,35,45,0
0,42,64,0
0,40,64,0
0,64,110,3
0,59,110,0
0,64,0,21
0,59,0,4
0,42,0,2
0,64,0,0
0,52,0,25
0,35,0,5
0,40,0,0
0,59,110,0
0,64,110,0
0,42,64,0
0,28,0,5
0,59,0,17
0,64,0,3
0,42,0,5
0,69,64,1
0,55,81,0
0,47,99,0
0,52,99,0
0,64,110,0
0,59,110,0
0,42,64,0
0,40,70,0
0,52,99,0
0,55,81,0
0,47,99,0
0,59,0,1
0,64,0,2
0,42,0,1
0,52,64,13
0,40,0,5
0,52,0,0
0,47,0,0
0,55,0,0
0,28,123,0
0,64,110,0
0,59,110,0
0,35,45,0
0,42,64,0
0,40,64,0
0,55,0,15
0,52,0,0
0,47,0,0
0,59,0,9
0,64,0,4
0,42,0,2
0,52,0,25
0,35,0,5
0,40,0,0
0,28,0,0
0,59,110,0
0,64,110,0
0,42,64,0
0,59,0,23
0,64,0,4
0,42,0,3
0,64,110,30
0,59,110,0
0,42,64,0
0,59,0,23
0,64,0,4
0,42,0,3
0,52,99,30
0,55,81,0
0,47,99,0
0,64,110,0
0,59,110,0
0,54,58,0
0,40,70,0
0,42,64,0
0,54,48,7
0,54,0,1
0,54,0,7
0,52,99,0
0,55,81,0
0,47,99,0
0,54,37,0
0,54,27,7
0,54,0,1
0,59,0,1
0,64,0,2
0,42,0,4
0,54,0,0
0,69,0,4
0,52,0,4
0,40,0,0
0,47,0,0
0,55,0,0
0,69,64,0
0,64,110,0
0,59,110,0
0,42,64,0
0,52,0,3
0,55,0,0
0,47,0,0
0,59,0,9
0,64,0,3
0,42,0,3
0,52,64,25
0,28,123,5
0,64,110,0
0,59,110,0
0,42,64,0
0,35,45,0
0,40,64,0
0,59,0,23
0,64,0,4
0,42,0,3
0,52,0,25
0,28,0,3
0,40,0,2
0,35,0,0
0,64,110,0
0,59,110,0
0,42,64,0
0,59,0,24
0,64,0,3
0,42,0,3
0,69,0,26
0,47,99,4
0,55,81,0
0,52,99,0
0,59,110,0
0,64,110,0
0,40,70,0
0,42,64,0
0,71,64,3
0,47,99,12
0,55,81,0
0,52,99,0
0,59,0,9
0,64,0,2
0,42,0,4
0,52,64,25
0,47,0,5
0,52,0,0
0,55,0,0
0,40,0,0
0,28,123,0
0,59,110,0
0,64,110,0
0,35,45,0
0,42,64,0
0,40,64,0
0,52,0,15
0,47,0,0
0,55,0,0
0,59,0,8
0,64,0,5
0,42,0,2
0,28,0,18
0,52,0,7
0,40,0,5
0,35,0,0
0,59,110,0
0,64,110,0
0,42,64,0
0,59,0,24
0,64,0,3
0,42,0,3
0,64,64,4
0,64,110,0
0,59,110,0
0,42,64,0
0,71,0,3
0,59,0,20
0,64,0,4
0,42,0,3
0,55,81,30
0,52,99,0
0,47,99,0
0,38,123,0
0,59,110,0
0,64,110,0
0,54,58,0
0,42,64,0
0,40,70,0
0,54,48,7
0,54,0,1
0,54,0,7
0,52,99,0
0,47,99,0
0,55,81,0
0,54,37,0
0,59,0,4
0,54,27,0
0,54,0,1
0,64,0,4
0,42,0,2
0,54,0,0
0,52,0,2
0,40,0,0
0,55,0,0
0,47,0,0
0,64,110,0
0,59,110,0
0,42,64,0
0,38,114,0
0,55,0,1
0,52,0,0
0,47,0,0
0,59,0,2
0,64,0,4
0,42,0,2
0,52,64,1
0,38,0,2
0,38,0,0
0,28,123,0
0,64,110,0
0,59,110,0
0,35,45,0
0,42,64,0
0,40,64,0
0,64,0,15
0,59,0,7
0,64,0,3
0,42,0,2
0,52,0,25
0,35,0,5
0,40,0,0
0,64,110,0
0,59,110,0
0,42,64,0
0,28,0,6
0,59,0,18
0,64,0,5
0,42,0,1
0,69,64,1
0,52,99,0
0,55,81,0
0,47,99,0
0,59,110,0
0,64,110,0
0,42,64,0
0,40,70,0
0,52,99,0
0,47,99,0
0,55,81,0
0,59,0,2
0,42,0,3
0,64,0,0
0,52,64,15
0,40,0,5
0,47,0,0
0,55,0,0
0,52,0,0
0,28,123,0
0,64,110,0
0,59,110,0
0,35,45,0
0,42,64,0
0,40,64,0
0,47,0,15
0,52,0,0
0,55,0,0
0,59,0,9
0,64,0,3
0,42,0,3
0,52,0,25
0,35,0,5
0,40,0,0
0,59,110,0
0,64,110,0
0,42,64,0
0,28,0,16
0,59,0,10
0,64,0,2
0,42,0,2
0,59,110,30
0,64,110,0
0,42,64,0
0,59,0,23
0,64,0,5
0,42,0,2
0,47,99,30
0,52,99,0
0,55,81,0
0,59,110,0
0,64,110,0
0,40,70,0
0,42,64,0
0,54,58,0
0,54,48,7
0,54,0,1
0,54,0,7
0,47,99,0
0,55,81,0
0,52,99,0
0,54,37,0
0,54,27,7
0,54,0,1
0,59,0,4
0,64,0,2
0,42,0,1
0,54,0,0
0,69,0,1
0,47,0,3
0,40,0,0
0,55,0,0
0,52,0,0
0,69,64,0
0,59,110,0
0,64,110,0
0,42,64,0
0,47,0,5
0,55,0,0
0,52,0,0
0,59,0,6
0,42,0,7
0,64,0,0
0,52,64,25
0,28,123,5
0,64,110,0
0,59,110,0
0,42,64,0
0,35,45,0
0,40,64,0
0,59,0,25
0,64,0,4
0,42,0,1
0,52,0,25
0,40,0,5
0,35,0,0
0,64,110,0
0,59,110,0
0,42,64,0
0,28,0,12
0,59,0,11
0,64,0,6
0,42,0,1
0,69,0,26
0,71,64,4
0,47,99,0
0,55,81,0
0,52,99,0
0,64,110,0
0,59,110,0
0,42,64,0
0,40,70,0
0,47,99,15
0,52,99,0
0,55,81,0
0,59,0,9
0,64,0,4
0,42,0,2
0,52,64,25
0,40,0,5
0,52,0,0
0,55,0,0
0,47,0,0
0,28,123,0
0,64,110,0
0,59,110,0
0,35,45,0
0,42,64,0
0,40,64,0
0,52,0,15
0,47,0,0
0,55,0,0
0,59,0,8
0,64,0,6
0,42,0,1
0,52,0,25
0,35,0,5
0,40,0,0
0,59,110,0
0,64,110,0
0,42,64,0
0,28,0,3
0,59,0,20
0,64,0,4
0,42,0,3
0,64,64,1
0,71,0,4
0,59,110,5
0,64,110,0
0,42,64,0
0,59,0,24
0,64,0,5
0,42,0,1
0,52,99,30
0,55,81,0
0,47,99,0
0,38,126,0
0,64,110,0
0,59,110,0
0,40,70,0
0,42,64,0
0,54,58,0
0,54,48,7
0,54,0,1
0,54,0,1
0,52,99,0
0,47,99,0
0,55,81,0
0,54,37,0
0,54,27,5
0,54,0,1
0,59,0,1
0,64,0,2
0,42,0,1
0,54,0,0
0,40,0,3
0,55,0,0
0,47,0,0
0,52,0,0
0,64,110,0
0,59,110,0
0,42,64,0
0,38,114,0
0,55,0,1
0,47,0,0
0,52,0,0
0,59,0,3
0,64,0,1
0,64,0,1
0,42,0,1
0,52,64,1
0,38,0,3
0,38,0,2
0,76,64,0
0,28,123,0
0,59,110,0
0,64,110,0
0,35,45,0
0,49,49,0
0,40,64,0
0,67,86,7
0,59,86,0
0,64,86,0
0,59,0,19
0,64,0,3
0,76,0,19
0,52,0,7
0,40,0,2
0,35,0,0
0,76,64,0
0,64,110,0
0,59,110,0
0,42,64,0
0,28,0,16
0,59,0,7
0,64,0,5
0,42,0,2
0,74,64,2
0,64,110,0
0,59,110,0
0,40,70,0
0,42,64,0
0,76,0,1
0,59,0,18
0,42,0,4
0,64,0,1
0,74,0,21
0,52,64,3
0,40,0,2
0,79,64,0
0,28,123,0
0,64,110,0
0,59,110,0
0,35,45,0
0,42,64,0
0,40,64,0
0,59,0,6
0,64,0,5
0,42,0,1
0,52,0,25
0,35,0,2
0,40,0,0
0,28,0,0
0,76,64,0
0,64,110,0
0,59,110,0
0,42,64,0
0,79,0,8
0,59,0,17
0,42,0,2
0,64,0,0
0,59,110,30
0,64,110,0
0,42,64,0
0,59,0,25
0,64,0,2
0,42,0,3
0,74,64,7
0,64,110,0
0,59,110,0
0,40,70,0
0,42,64,0
0,54,58,0
0,76,0,3
0,54,48,4
0,54,0,1
0,54,0,2
0,54,37,0
0,59,0,7
0,54,27,0
0,54,0,1
0,64,0,4
0,54,0,3
0,42,0,0
0,49,0,0
0,40,0,7
0,59,110,0
0,64,110,0
0,42,64,0
0,59,0,12
