track,note,velocity,time
0,42,80,0
0,42,80,93
0,42,80,93
0,42,80,93
0,50,79,93
0,50,79,24
0,57,109,3
0,50,49,24
0,57,109,0
0,50,79,3
0,50,49,0
0,55,89,3
0,50,79,0
0,50,49,3
0,55,89,0
0,50,79,3
0,50,49,0
0,59,109,3
0,50,79,0
0,50,49,3
0,59,109,0
0,50,79,3
0,50,49,0
0,57,109,3
0,50,79,0
0,50,49,3
0,57,109,0
0,50,79,3
0,50,49,0
0,55,89,3
0,50,79,0
0,50,49,3
0,55,89,0
0,50,79,3
0,50,49,0
0,50,79,14
0,60,109,3
0,50,49,24
0,60,109,0
0,50,79,3
0,50,49,0
0,59,89,3
0,50,79,0
0,50,49,3
0,59,89,0
0,50,79,3
0,50,49,0
0,57,109,3
0,50,79,0
0,50,49,3
0,57,109,0
0,50,79,3
0,50,49,0
0,55,109,3
0,50,79,0
0,50,49,3
0,55,109,0
0,50,79,3
0,50,49,0
0,57,89,3
0,50,79,0
0,50,49,3
0,57,89,0
0,50,79,3
0,50,49,0
0,42,25,0
0,50,79,14
0,57,109,3
0,42,45,0
0,50,49,21
0,57,109,0
0,42,65,0
0,50,79,3
0,50,49,0
0,42,85,0
0,55,89,3
0,50,79,0
0,50,49,3
0,55,89,0
0,42,65,0
0,50,79,3
0,50,49,0
0,42,45,0
0,59,109,3
0,50,79,0
0,50,49,3
0,59,109,0
0,50,79,3
0,50,49,0
0,42,45,0
0,57,109,3
0,50,79,0
0,42,65,0
0,50,49,3
0,57,109,0
0,42,85,0
0,50,79,3
0,50,49,0
0,55,89,3
0,50,79,0
0,42,65,0
0,50,49,3
0,55,89,0
0,42,45,0
0,50,79,3
0,50,49,0
0,42,25,0
0,50,79,14
0,60,109,3
0,42,45,0
0,50,49,21
0,60,109,0
0,42,65,0
0,50,79,3
0,50,49,0
0,42,85,0
0,59,89,3
0,50,79,0
0,40,50,0
0,50,49,3
0,59,89,0
0,42,65,0
0,50,79,3
0,50,49,0
0,40,70,0
0,57,109,3
0,50,79,0
0,47,45,0
0,50,49,3
0,57,109,0
0,47,65,0
0,50,79,3
0,50,49,0
0,47,85,0
0,55,109,3
0,50,79,0
0,40,50,0
0,50,49,3
0,55,109,0
0,45,85,0
0,50,79,3
0,50,49,0
0,40,40,0
0,57,89,3
0,50,79,0
0,43,65,0
0,50,49,3
0,57,89,0
0,40,35,0
0,43,99,0
0,67,69,0
0,71,69,0
0,50,79,0
0,50,49,0
0,36,89,0
0,42,39,0
0,69,34,0
0,50,79,12
0,69,29,0
0,57,109,3
0,42,59,0
0,69,49,0
0,50,49,21
0,57,109,0
0,69,34,0
0,50,79,3
0,50,49,0
0,36,89,0
0,40,95,0
0,42,39,0
0,69,34,0
0,55,89,3
0,50,79,0
0,69,29,0
0,50,49,3
0,55,89,0
0,42,59,0
0,69,49,0
0,50,79,3
0,50,49,0
0,40,35,0
0,69,34,0
0,40,25,4
0,40,17,4
0,40,17,1
0,66,69,2
0,59,109,0
0,50,79,0
0,36,89,0
0,42,39,0
0,69,34,0
0,50,49,3
0,59,109,0
0,40,75,0
0,69,29,0
0,50,79,3
0,50,49,0
0,42,59,0
0,69,49,0
0,57,109,3
0,50,79,0
0,69,34,0
0,50,49,3
0,57,109,0
0,36,89,0
0,40,95,0
0,42,39,0
0,69,34,0
0,50,79,3
0,50,49,0
0,69,29,0
0,55,89,3
0,50,79,0
0,42,59,0
0,69,49,0
0,50,49,3
0,55,89,0
0,69,34,0
0,43,99,0
0,64,69,0
0,50,79,0
0,50,49,0
0,36,89,0
0,42,39,0
0,69,34,0
0,50,79,12
0,69,29,0
0,60,109,3
0,42,59,0
0,69,49,0
0,50,49,21
0,60,109,0
0,69,34,0
0,50,79,3
0,50,49,0
0,36,89,0
0,40,95,0
0,42,39,0
0,69,34,0
0,59,89,3
0,50,79,0
0,69,29,0
0,50,49,3
0,59,89,0
0,42,59,0
0,69,49,0
0,50,79,3
0,50,49,0
0,40,35,0
0,42,59,0
0,69,34,0
0,40,25,4
0,40,17,4
0,40,17,1
0,66,69,2
0,57,109,0
0,50,79,0
0,36,89,0
0,42,39,0
0,69,34,0
0,50,49,3
0,57,109,0
0,40,75,0
0,69,29,0
0,50,79,3
0,50,49,0
0,42,59,0
0,69,49,0
0,55,109,3
0,50,79,0
0,69,34,0
0,50,49,3
0,55,109,0
0,36,89,0
0,40,95,0
0,42,39,0
0,69,34,0
0,50,79,3
0,50,49,0
0,69,29,0
0,57,89,3
0,50,79,0
0,42,59,0
0,69,49,0
0,50,49,3
0,57,89,0
0,69,34,0
0,43,99,0
0,67,69,0
0,50,79,0
0,50,49,0
0,36,89,0
0,42,39,0
0,69,34,0
0,50,79,12
0,69,29,0
0,57,109,3
0,42,59,0
0,69,49,0
0,50,49,21
0,57,109,0
0,69,34,0
0,50,79,3
0,50,49,0
0,36,89,0
0,40,95,0
0,42,39,0
0,69,34,0
0,55,89,3
0,50,79,0
0,69,29,0
0,50,49,3
0,55,89,0
0,42,59,0
0,69,49,0
0,50,79,3
0,50,49,0
0,40,35,0
0,69,34,0
0,40,25,4
0,40,17,4
0,40,17,1
0,66,69,2
0,59,109,0
0,50,79,0
0,36,89,0
0,42,39,0
0,69,34,0
0,50,49,3
0,59,109,0
0,40,75,0
0,69,29,0
0,50,79,3
0,50,49,0
0,42,59,0
0,69,49,0
0,57,109,3
0,50,79,0
0,69,34,0
0,50,49,3
0,57,109,0
0,36,89,0
0,40,95,0
0,42,39,0
0,69,34,0
0,50,79,3
0,50,49,0
0,69,29,0
0,55,89,3
0,50,79,0
0,42,59,0
0,69,49,0
0,50,49,3
0,55,89,0
0,69,34,0
0,31,99,0
0,64,69,0
0,50,79,0
0,50,49,0
0,36,89,0
0,42,39,0
0,69,34,0
0,50,79,12
0,69,29,0
0,43,75,3
0,60,109,0
0,42,59,0
0,69,49,0
0,43,85,3
0,50,49,0
0,60,109,0
0,69,34,0
0,43,85,3
0,50,79,0
0,50,49,0
0,36,89,0
0,40,95,0
0,42,39,0
0,69,34,0
0,55,85,3
0,59,89,0
0,50,79,0
0,69,29,0
0,50,49,3
0,59,89,0
0,42,59,0
0,69,49,0
0,55,85,3
0,50,79,0
0,50,49,0
0,40,35,0
0,42,59,0
0,69,34,0
0,40,25,4
0,40,17,4
0,40,17,1
0,55,85,2
0,66,69,0
0,57,109,0
0,50,79,0
0,36,89,0
0,42,39,0
0,69,34,0
0,50,49,0
0,57,109,0
0,40,75,0
0,69,29,0
0,50,85,0
0,50,79,0
0,50,49,0
0,42,59,0
0,69,49,0
0,50,85,3
0,55,109,0
0,50,79,0
0,69,34,0
0,48,85,3
0,50,49,0
0,55,109,0
0,36,89,0
0,40,95,0
0,42,39,0
0,69,34,0
0,50,79,0
0,50,49,0
0,69,29,0
0,45,85,0
0,57,89,0
0,50,79,0
0,42,59,0
0,69,49,0
0,50,49,0
0,57,89,0
0,69,34,0
0,43,99,0
0,67,69,0
0,71,69,0
0,62,126,0
0,50,79,0
0,50,49,0
0,62,79,0
0,36,89,0
0,42,39,0
0,69,34,0
0,62,59,0
0,38,99,3
0,50,79,0
0,69,29,0
0,31,99,3
0,57,109,0
0,42,59,0
0,69,49,0
0,50,49,21
0,57,109,0
0,69,34,0
0,31,99,3
0,50,79,0
0,50,49,0
0,36,89,0
0,40,95,0
0,42,39,0
0,69,34,0
0,55,89,3
0,50,79,0
0,69,29,0
0,50,49,3
0,55,89,0
0,42,59,0
0,69,49,0
0,50,79,3
0,50,49,0
0,40,35,0
0,69,34,0
0,40,25,4
0,40,17,4
0,40,17,1
0,66,69,2
0,59,109,0
0,50,79,0
0,36,89,0
0,42,39,0
0,69,34,0
0,50,49,3
0,59,109,0
0,40,75,0
0,69,29,0
0,71,126,0
0,50,79,0
0,50,49,0
0,42,59,0
0,69,49,0
0,57,109,3
0,50,79,0
0,69,34,0
0,50,49,1
0,57,109,0
0,71,79,0
0,36,89,0
0,40,95,0
0,42,39,0
0,69,34,0
0,71,59,0
0,50,79,0
0,50,49,0
0,69,29,0
0,31,99,3
0,55,89,0
0,50,79,0
0,42,59,0
0,69,49,0
0,50,49,3
0,55,89,0
0,69,34,0
0,33,99,1
0,69,69,0
0,72,69,0
0,69,126,0
0,52,79,0
0,50,49,0
0,69,79,0
0,36,89,0
0,42,39,0
0,69,34,0
0,69,59,0
0,52,79,14
0,69,29,0
0,60,109,3
0,42,59,0
0,69,49,0
0,52,49,21
0,60,109,0
0,69,34,0
0,52,79,3
0,52,49,0
0,36,89,0
0,40,95,0
0,42,39,0
0,69,34,0
0,59,89,3
0,52,79,0
0,69,29,0
0,52,49,3
0,59,89,0
0,42,59,0
0,69,49,0
0,52,79,3
0,52,49,0
0,40,35,0
0,42,59,0
0,69,34,0
0,40,25,4
0,40,17,4
0,40,17,1
0,57,109,2
0,52,79,0
0,36,89,0
0,42,39,0
0,69,34,0
0,52,49,3
0,57,109,0
0,40,75,0
0,69,29,0
0,52,79,3
0,52,49,0
0,42,59,0
0,69,49,0
0,40,99,3
0,55,109,0
0,52,79,0
0,69,34,0
0,45,99,1
0,64,116,0
0,52,49,0
0,55,109,0
0,64,79,0
0,36,89,0
0,40,95,0
0,42,39,0
0,69,34,0
0,64,59,0
0,40,99,3
0,52,79,0
0,52,49,0
0,69,29,0
0,33,99,3
0,57,89,0
0,52,79,0
0,42,59,0
0,69,49,0
0,52,49,3
0,57,89,0
0,69,34,0
0,31,99,1
0,67,69,0
0,71,69,0
0,62,126,0
0,50,79,0
0,52,49,0
0,62,79,0
0,36,89,0
0,42,39,0
0,69,34,0
0,62,59,0
0,50,79,14
0,69,29,0
0,57,109,3
0,42,59,0
0,69,49,0
0,50,49,21
0,57,109,0
0,69,34,0
0,67,116,3
0,50,79,0
0,50,49,0
0,36,89,0
0,40,95,0
0,42,39,0
0,69,34,0
0,55,89,3
0,50,79,0
0,69,29,0
0,71,126,3
0,50,49,0
0,55,89,0
0,42,59,0
0,69,49,0
0,50,79,3
0,50,49,0
0,40,35,0
0,69,34,0
0,40,25,4
0,40,17,4
0,40,17,1
0,66,69,2
0,59,109,0
0,50,79,0
0,36,89,0
0,42,39,0
0,69,34,0
0,50,49,3
0,59,109,0
0,40,75,0
0,69,29,0
0,74,126,3
0,50,79,0
0,50,49,0
0,42,59,0
0,69,49,0
0,57,109,3
0,50,79,0
0,69,34,0
0,50,49,1
0,57,109,0
0,71,79,0
0,36,89,0
0,40,95,0
0,42,39,0
0,69,34,0
0,71,59,0
0,50,79,3
0,50,49,0
0,69,29,0
0,31,99,3
0,74,126,0
0,55,89,0
0,50,79,0
0,42,59,0
0,69,49,0
0,50,49,3
0,55,89,0
0,69,34,0
0,33,99,1
0,69,69,0
0,72,69,0
0,52,79,0
0,50,49,0
0,69,79,0
0,36,89,0
0,42,39,0
0,69,34,0
0,69,59,0
0,52,79,14
0,69,29,0
0,76,126,3
0,60,109,0
0,42,59,0
0,69,49,0
0,52,49,21
0,60,109,0
0,69,34,0
0,52,79,3
0,52,49,0
0,36,89,0
0,40,95,0
0,42,39,0
0,69,34,0
0,59,89,3
0,52,79,0
0,69,29,0
0,72,126,3
0,52,49,0
0,59,89,0
0,42,59,0
0,69,49,0
0,52,79,3
0,52,49,0
0,40,35,0
0,42,59,0
0,69,34,0
0,40,25,4
0,40,17,4
0,40,17,1
0,57,109,2
0,52,79,0
0,36,89,0
0,42,39,0
0,69,34,0
0,52,49,3
0,57,109,0
0,40,75,0
0,69,29,0
0,52,79,3
0,52,49,0
0,42,59,0
0,69,49,0
0,40,99,3
0,55,109,0
0,52,79,0
0,69,34,0
0,45,99,1
0,52,49,0
0,55,109,0
0,76,79,0
0,36,89,0
0,40,95,0
0,42,39,0
0,69,34,0
0,76,59,0
0,40,99,3
0,52,79,0
0,52,49,0
0,69,29,0
0,33,99,3
0,57,89,0
0,52,79,0
0,42,59,0
0,69,49,0
0,52,49,3
0,57,89,0
0,69,34,0
0,38,99,1
0,65,69,0
0,69,126,0
0,53,79,0
0,52,49,0
0,74,79,0
0,36,89,0
0,42,39,0
0,69,34,0
0,74,59,0
0,53,79,14
0,69,29,0
0,71,126,3
0,60,109,0
0,42,59,0
0,69,49,0
0,53,49,21
0,60,109,0
0,69,34,0
0,53,79,3
0,53,49,0
0,36,89,0
0,40,95,0
0,42,39,0
0,69,34,0
0,59,89,3
0,53,79,0
0,69,29,0
0,53,49,3
0,59,89,0
0,42,59,0
0,69,49,0
0,53,79,3
0,53,49,0
0,40,35,0
0,69,34,0
0,40,25,4
0,40,17,4
0,40,17,1
0,72,126,0
0,57,109,0
0,53,79,0
0,69,79,0
0,36,89,0
0,42,39,0
0,69,34,0
0,69,59,0
0,53,49,3
0,57,109,0
0,40,75,0
0,69,29,0
0,53,79,0
0,53,49,0
0,42,59,0
0,69,49,0
0,55,109,3
0,53,79,0
0,69,34,0
0,50,99,3
0,67,116,0
0,53,49,0
0,55,109,0
0,36,89,0
0,40,95,0
0,42,39,0
0,69,34,0
0,53,79,3
0,53,49,0
0,69,29,0
0,74,126,3
0,57,89,0
0,53,79,0
0,42,59,0
0,69,49,0
0,53,49,3
0,57,89,0
0,69,34,0
0,31,99,1
0,67,69,0
0,71,69,0
0,50,79,0
0,53,49,0
0,67,79,0
0,36,89,0
0,42,39,0
0,69,34,0
0,67,59,0
0,50,79,14
0,69,29,0
0,57,109,3
0,42,59,0
0,69,49,0
0,50,49,21
0,57,109,0
0,69,34,0
0,50,79,3
0,50,49,0
0,36,89,0
0,40,95,0
0,42,39,0
0,69,34,0
0,55,89,3
0,50,79,0
0,69,29,0
0,67,116,3
0,50,49,0
0,55,89,0
0,42,59,0
0,69,49,0
0,31,79,3
0,50,79,0
0,50,49,0
0,40,35,0
0,42,59,0
0,69,34,0
0,40,25,4
0,40,17,4
0,40,17,1
0,31,99,1
0,77,126,0
0,59,109,0
0,50,79,0
0,62,79,0
0,36,89,0
0,42,39,0
0,69,34,0
0,62,59,0
0,31,79,3
0,50,49,0
0,59,109,0
0,40,75,0
0,69,29,0
0,33,99,3
0,50,79,0
0,50,49,0
0,42,59,0
0,69,49,0
0,76,126,3
0,57,109,0
0,50,79,0
0,69,34,0
0,50,49,3
0,57,109,0
0,36,89,0
0,40,95,0
0,42,39,0
0,69,34,0
0,35,99,3
0,50,79,0
0,50,49,0
0,69,29,0
0,76,116,3
0,55,89,0
0,50,79,0
0,42,59,0
0,69,49,0
0,50,49,3
0,55,89,0
0,69,34,0
0,36,99,1
0,67,69,0
0,72,69,0
0,74,126,0
0,48,79,0
0,50,49,0
0,65,79,0
0,36,89,0
0,42,39,0
0,69,34,0
0,65,59,0
0,48,79,0
0,69,29,0
0,53,109,0
0,42,59,0
0,69,49,0
0,48,49,21
0,53,109,0
0,69,34,0
0,48,79,3
0,48,49,0
0,36,89,0
0,40,95,0
0,42,39,0
0,69,34,0
0,53,89,3
0,48,79,0
0,69,29,0
0,43,79,1
0,72,126,0
0,48,49,0
0,53,89,0
0,67,79,0
0,42,59,0
0,69,49,0
0,67,59,0
0,48,79,3
0,48,79,0
0,48,49,0
0,40,35,0
0,69,34,0
0,40,25,4
0,40,17,4
0,40,17,1
0,36,99,1
0,64,69,0
0,52,109,0
0,48,79,0
0,67,79,0
0,36,89,0
0,42,39,0
0,69,34,0
0,67,59,0
0,48,49,3
0,52,109,0
0,40,75,0
0,69,29,0
0,48,79,3
0,48,49,0
0,42,59,0
0,69,49,0
0,43,79,3
0,53,109,0
0,48,79,0
0,69,34,0
0,36,99,3
0,48,49,0
0,53,109,0
0,36,89,0
0,40,95,0
0,42,39,0
0,69,34,0
0,48,79,3
0,48,49,0
0,69,29,0
0,36,99,3
0,55,89,0
0,48,79,0
0,42,59,0
0,69,49,0
0,48,49,3
0,55,89,0
0,69,34,0
0,38,99,1
0,67,69,0
0,69,69,0
0,74,69,0
0,50,79,0
0,48,49,0
0,67,79,0
0,36,89,0
