track,note,velocity,time
0,48,100,11
0,53,100,0
0,57,100,0
0,51,55,84
0,59,55,32
0,59,68,0
0,41,71,0
0,48,70,0
0,41,75,0
0,41,95,0
0,57,69,0
0,65,68,0
0,48,78,176
0,57,93,2
0,41,75,8
0,52,82,0
0,52,67,0
0,64,65,0
0,53,89,4
0,53,81,4
0,65,73,0
0,55,39,4
0,58,100,8
0,62,100,0
0,63,100,0
0,65,100,0
0,60,80,0
0,55,104,0
0,60,92,0
0,72,78,0
0,57,48,36
0,57,75,0
0,53,73,12
0,60,79,0
0,53,83,0
0,65,71,0
0,51,42,12
0,51,31,0
0,51,43,8
0,51,54,8
0,51,71,28
0,53,70,12
0,62,70,0
0,53,51,0
0,53,104,0
0,57,84,0
0,58,75,0
0,65,52,0
0,70,52,0
0,53,69,4
0,41,72,12
0,41,77,0
0,53,62,0
0,60,71,8
0,65,71,11
0,70,83,13
0,72,88,19
0,48,100,4
0,53,100,0
0,57,100,0
0,77,89,25
0,51,42,0
0,51,30,0
0,51,43,0
0,51,55,17
0,51,70,22
0,79,80,3
0,41,71,3
0,48,71,0
0,41,74,0
0,41,94,0
0,57,69,0
0,65,69,0
0,48,79,4
0,81,54,4
0,57,92,8
0,77,77,4
0,41,75,8
0,51,38,4
0,52,83,0
0,52,66,0
0,64,64,0
0,51,41,4
0,53,88,8
0,53,80,4
0,65,72,0
0,72,63,8
0,69,94,8
0,58,100,4
0,62,100,0
0,63,100,0
0,65,100,0
0,60,81,0
0,55,105,0
0,60,92,0
0,72,79,0
0,57,74,21
0,53,73,8
0,53,83,0
0,65,71,0
0,77,78,0
0,51,43,12
0,51,30,0
0,51,42,18
0,65,89,8
0,51,55,4
0,51,70,20
0,60,76,3
0,53,70,0
0,62,70,0
0,53,50,0
0,53,105,0
0,58,74,0
0,65,52,0
0,70,53,0
0,53,68,3
0,62,82,12
0,41,72,0
0,41,76,0
0,60,71,0
0,53,63,0
0,59,39,3
0,65,71,11
0,46,63,0
0,53,58,0
0,70,83,8
0,62,86,36
0,60,75,28
0,72,88,8
0,48,100,4
0,53,100,0
0,57,100,0
0,58,69,16
0,51,47,4
0,77,88,0
0,58,80,8
0,51,43,0
0,51,30,4
0,51,43,0
0,51,54,24
0,51,70,28
0,79,81,12
0,41,71,4
0,48,70,0
0,41,75,0
0,41,95,0
0,57,68,0
0,65,69,0
0,57,76,0
0,48,79,16
0,77,80,8
0,72,73,12
0,57,92,36
0,41,75,16
0,52,82,0
0,52,67,0
0,64,65,0
0,53,88,8
0,53,81,4
0,65,72,0
0,69,81,4
0,55,38,8
0,58,100,4
0,62,100,0
0,63,100,0
0,65,100,0
0,60,80,0
0,55,105,0
0,60,93,0
0,72,79,0
0,57,49,56
0,57,74,0
0,53,73,12
0,60,79,0
0,53,82,0
0,65,70,0
0,51,43,0
0,51,31,0
0,51,42,24
0,51,54,8
0,51,71,28
0,53,70,12
0,62,70,0
0,53,50,0
0,53,105,0
0,57,85,0
0,58,74,0
0,65,52,0
0,70,53,0
0,53,69,4
0,41,73,12
0,41,76,0
0,53,63,0
0,69,105,0
0,60,70,8
0,65,70,8
0,70,104,0
0,70,82,92
0,72,89,8
0,48,100,4
0,53,100,0
0,57,100,0
0,67,105,0
0,77,89,52
0,51,43,0
0,51,30,0
0,51,42,0
0,51,55,4
0,51,70,6
0,79,80,8
0,41,85,4
0,48,85,0
0,57,84,0
0,53,77,0
0,41,94,0
0,65,105,0
0,65,91,0
0,69,84,0
0,53,69,4
0,81,80,28
0,79,81,38
0,48,79,4
0,77,81,34
0,72,70,30
0,57,93,0
0,53,56,16
0,41,74,0
0,57,51,16
0,52,83,0
0,52,94,0
0,64,96,0
0,40,64,8
0,53,88,12
0,41,109,0
0,53,109,0
0,65,99,0
0,41,73,0
0,58,100,12
0,62,100,0
0,63,100,0
0,65,100,0
0,45,116,0
0,60,106,0
0,55,104,0
0,60,93,0
0,72,105,0
0,62,86,8
0,57,75,56
0,60,101,0
0,45,72,36
0,48,107,16
0,53,106,0
0,53,82,0
0,65,98,0
0,57,60,0
0,41,82,16
0,62,107,4
0,50,81,0
0,50,58,8
0,41,81,0
0,41,89,0
0,50,89,0
0,58,88,0
0,53,77,0
0,62,82,0
0,70,83,0
0,58,84,4
0,60,89,12
0,60,38,0
0,76,40,23
0,60,18,0
0,74,57,8
0,72,73,12
0,70,78,12
0,69,79,8
0,67,76,12
0,65,74,8
0,64,69,8
0,62,65,8
0,60,56,12
0,60,104,0
0,58,56,4
0,57,53,8
0,48,100,8
0,53,100,0
0,57,100,0
0,60,6,0
0,55,47,0
0,60,105,0
0,53,40,12
0,52,36,12
0,50,31,0
0,48,28,12
0,46,24,4
0,45,19,4
0,43,17,12
0,72,104,0
0,51,77,16
0,41,8,12
0,59,91,0
0,51,71,0
0,41,73,0
0,41,91,0
0,41,80,0
0,48,77,0
0,57,90,0
0,72,104,0
0,60,64,0
0,69,87,0
0,80,29,56
0,48,57,20
0,80,54,8
0,53,81,76
0,36,100,4
0,40,100,0
0,41,100,0
0,43,100,0
0,44,101,0
0,57,94,144
0,41,95,24
0,80,15,4
0,64,76,0
0,53,87,0
0,60,82,0
0,67,63,4
0,80,31,52
0,52,90,52
0,80,51,4
0,60,105,0
0,44,88,8
0,53,71,0
0,58,100,4
0,62,100,0
0,63,100,0
0,65,100,0
0,60,105,0
0,60,89,8
0,72,104,4
0,53,74,4
0,58,72,4
0,62,87,24
0,65,93,8
0,80,18,0
0,50,96,0
0,58,80,0
0,70,104,0
0,41,94,16
0,80,29,26
0,50,75,8
0,80,58,4
0,44,87,84
0,53,85,0
0,50,66,4
0,58,70,12
0,50,61,4
0,53,61,0
0,50,98,0
0,50,66,12
0,80,18,4
0,58,69,0
0,62,80,0
0,70,90,4
0,62,93,0
0,80,25,28
0,80,53,24
0,50,61,0
0,50,67,32
0,60,105,4
0,44,89,8
0,58,70,0
0,36,100,4
0,40,100,0
0,41,100,0
0,43,100,0
0,60,105,0
0,53,77,38
0,72,104,12
0,41,88,0
0,55,82,0
0,72,91,0
0,64,99,0
0,70,104,0
0,80,24,26
0,48,78,18
0,80,50,4
0,48,74,0
0,44,90,84
0,52,89,0
0,55,71,0
0,55,91,8
0,72,82,4
0,80,15,16
0,67,90,0
0,76,95,4
0,80,29,56
0,80,53,52
0,60,105,60
0,44,91,4
0,48,100,8
0,53,100,0
0,57,100,0
0,48,66,0
0,60,104,0
0,52,78,28
0,53,83,4
0,70,105,4
0,55,89,8
0,69,105,4
0,80,18,8
0,60,99,4
0,69,100,0
0,41,90,0
0,48,70,0
0,57,87,0
0,41,86,12
0,80,28,16
0,80,49,32
0,48,74,0
0,53,81,67
0,44,90,4
0,57,89,72
0,81,73,144
0,65,93,0
0,57,79,0
0,48,76,20
0,65,104,4
0,53,89,4
0,57,90,0
0,55,100,4
0,57,100,0
0,60,100,0
0,64,100,0
0,44,90,0
0,60,84,0
0,65,105,0
0,72,104,12
0,51,42,18
0,72,104,12
0,51,55,0
0,51,70,8
0,48,84,0
0,55,85,0
0,80,18,4
0,45,78,0
0,60,100,0
0,53,68,4
0,45,87,0
0,80,29,26
0,80,59,22
0,52,69,0
0,44,87,148
0,60,84,4
0,45,96,20
0,52,78,0
0,80,18,188
0,72,87,4
0,64,101,0
0,80,25,60
0,80,52,12
0,52,63,0
0,52,89,16
0,65,105,0
0,44,89,8
0,53,80,0
0,43,100,4
0,46,100,0
0,49,100,0
0,51,100,0
0,53,94,0
0,65,105,0
0,55,85,8
0,55,96,0
0,81,76,4
0,75,104,0
0,75,104,6
0,46,82,0
0,63,84,8
0,67,98,0
0,55,89,0
0,63,86,0
0,58,100,4
0,62,100,0
0,65,100,0
0,51,82,0
0,46,81,0
0,80,24,18
0,46,65,8
0,80,51,4
0,74,105,0
0,74,105,12
0,44,90,2
0,34,59,0
0,65,93,0
0,53,89,0
0,62,96,0
0,59,74,0
0,62,92,0
0,46,80,4
0,72,104,12
0,70,104,4
0,80,29,236
0,80,52,52
0,46,59,24
0,65,105,4
0,44,90,0
0,46,56,4
0,50,100,4
0,55,100,0
0,59,100,0
0,65,104,0
0,53,83,32
0,53,90,0
0,46,65,4
0,62,76,4
0,46,87,0
0,80,60,4
0,74,105,0
0,45,94,8
0,45,109,0
0,81,67,4
0,60,87,0
0,74,105,0
0,43,86,4
0,50,90,0
0,80,19,0
0,43,67,0
0,59,77,4
0,59,78,0
0,55,89,0
0,43,89,4
0,59,97,16
0,80,29,15
0,80,48,16
0,50,99,0
0,50,88,0
0,44,91,0
0,55,78,0
0,55,86,0
0,43,83,0
0,55,83,8
0,55,82,4
0,59,84,0
0,59,90,0
0,80,18,0
0,67,97,4
0,74,97,0
0,55,67,4
0,59,67,0
0,80,31,38
0,80,48,21
0,67,104,39
0,36,100,12
0,40,100,0
0,43,100,0
0,44,91,0
0,67,105,0
0,40,76,8
0,81,69,12
0,77,104,0
0,38,80,4
0,36,79,0
0,48,90,4
0,59,76,8
0,55,78,0
0,60,87,0
0,77,104,0
0,80,29,56
0,52,82,52
0,80,49,4
0,52,86,0
0,76,105,24
0,55,79,0
0,44,90,4
0,55,82,0
0,60,81,0
0,76,105,0
0,60,77,148
0,52,89,0
0,80,18,80
0,72,98,8
0,76,98,0
0,60,72,0
0,64,80,0
0,80,31,60
0,80,48,60
0,74,104,0
0,58,100,2
0,62,100,0
0,65,100,0
0,44,90,0
0,60,67,0
0,55,71,0
0,60,71,0
0,74,104,0
0,80,48,4
0,74,105,0
0,81,56,4
0,74,105,8
0,48,74,0
0,36,95,0
0,53,94,0
0,48,94,0
0,58,85,0
0,65,101,0
0,48,82,0
0,58,98,0
0,62,99,0
0,72,104,0
0,55,96,4
0,44,69,4
0,69,104,0
0,72,105,0
0,42,51,92
0,58,61,0
0,80,63,92
0,42,18,0
0,60,72,0
0,57,91,4
0,62,90,0
0,81,59,4
0,48,79,0
0,60,70,0
0,49,4,20
0,60,104,0
0,57,5,0
0,62,97,2
0,48,100,4
0,53,100,0
0,57,100,0
0,49,6,0
0,67,87,0
0,60,65,0
0,60,105,0
0,57,7,4
0,49,8,8
0,57,12,8
0,49,19,8
0,74,105,0
0,65,74,4
0,57,29,8
0,49,40,8
0,57,56,8
0,35,127,0
0,49,73,0
0,41,90,0
0,48,91,0
0,41,85,0
0,41,86,0
0,41,91,0
0,60,86,0
0,69,105,0
0,29,111,0
0,65,90,0
0,72,104,0
0,57,91,0
0,60,90,0
0,80,33,36
0,57,67,0
0,42,55,38
0,80,58,4
0,60,70,0
0,82,41,44
0,65,88,0
0,37,105,5
0,42,71,0
0,75,65,0
0,36,47,0
0,57,71,0
0,42,54,12
0,57,77,0
0,29,94,0
0,60,71,0
0,82,42,56
0,65,94,0
0,42,73,0
0,60,82,0
0,69,86,0
0,57,77,0
0,65,74,0
0,80,20,4
0,41,70,52
0,80,35,4
0,82,41,0
0,42,54,52
0,80,57,0
0,53,75,0
0,35,122,4
0,41,71,52
0,41,98,4
0,60,105,0
0,42,72,8
0,75,66,0
0,52,83,0
0,58,100,4
0,62,100,0
0,63,100,0
0,65,100,0
0,37,104,0
0,52,86,0
0,60,104,0
0,41,70,52
0,42,67,8
0,53,83,0
0,53,79,0
0,35,69,4
0,53,91,0
0,72,104,0
0,82,39,8
0,72,105,4
0,80,22,0
0,53,82,0
0,58,72,0
0,29,106,0
0,65,86,0
0,35,115,4
0,42,75,0
0,53,83,0
0,41,85,0
0,41,79,0
0,58,91,0
0,62,90,0
0,58,81,12
0,80,32,4
0,53,76,0
0,62,71,8
0,62,63,0
0,80,65,4
0,42,52,0
0,58,60,0
0,70,105,0
0,82,40,12
0,60,71,0
0,65,86,0
0,70,104,0
0,37,111,52
0,42,74,4
0,75,65,0
0,65,77,0
0,62,87,0
0,58,63,12
0,42,53,12
0,62,66,0
0,62,56,0
0,65,92,44
0,82,39,4
0,42,73,20
0,80,24,0
0,58,71,0
0,62,76,4
0,70,77,0
0,80,31,20
0,58,54,0
0,82,38,4
0,42,50,0
0,65,90,0
0,58,73,0
0,35,122,4
0,80,59,0
0,37,105,76
0,42,70,0
0,75,65,0
0,60,74,0
0,36,100,4
0,40,100,0
0,41,100,0
0,43,100,0
0,60,104,0
0,62,81,0
0,42,51,8
0,50,88,0
0,35,69,4
0,58,64,0
0,82,32,14
0,53,71,0
0,70,105,0
0,55,80,0
0,64,87,0
0,36,87,0
0,55,70,0
0,60,87,0
0,64,82,0
0,35,126,0
0,41,80,0
0,52,80,0
0,41,84,0
0,29,111,0
0,48,83,0
0,70,105,0
0,60,82,0
0,67,83,0
0,42,72,4
0,80,32,52
0,55,67,0
0,42,55,52
0,60,70,0
0,80,59,4
0,82,41,48
0,64,80,0
0,37,104,40
0,42,71,0
0,75,64,0
0,55,63,28
0,42,54,16
0,53,94,0
0,58,81,0
0,60,66,0
0,48,73,4
0,82,43,8
0,64,79,0
0,42,73,4
0,52,80,0
0,60,79,0
0,80,20,4
0,48,65,52
0,80,34,4
0,82,40,0
0,70,104,0
0,42,54,2
0,80,57,0
0,35,122,4
0,36,97,0
0,55,46,0
0,64,59,8
0,70,104,4
0,42,72,8
0,75,67,0
0,55,86,0
0,65,102,0
0,48,100,4
0,53,100,0
0,57,100,0
0,37,105,0
0,72,89,0
0,60,74,8
0,70,105,4
0,42,67,8
0,55,64,0
0,35,69,4
0,57,86,0
0,62,66,0
0,67,82,0
0,82,38,8
0,70,104,4
0,80,23,4
0,57,77,0
0,65,91,0
0,29,107,0
0,65,75,0
0,35,115,0
0,42,75,0
0,41,69,0
0,53,69,0
0,41,85,0
0,41,89,0
0,60,95,0
0,69,100,0
0,60,66,0
0,69,79,0
0,57,75,44
0,80,32,3
0,60,74,8
0,80,64,4
0,42,52,0
0,48,76,0
0,72,105,0
0,82,41,12
0,65,80,0
0,69,105,0
0,37,110,48
0,57,66,0
0,42,74,4
0,75,64,0
0,57,69,40
0,65,80,20
0,42,53,8
0,60,79,4
0,65,80,0
0,57,95,0
0,60,77,0
0,82,39,12
0,65,94,0
0,42,73,20
0,80,25,0
0,69,105,0
0,60,89,0
0,65,71,0
0,72,80,0
0,80,31,12
0,82,38,4
0,41,64,0
0,42,50,8
0,41,112,0
0,35,122,4
0,80,58,0
0,48,85,0
0,41,79,4
0,53,60,0
0,65,104,0
0,53,94,0
0,37,104,4
0,42,70,0
0,75,64,0
0,57,123,0
0,60,113,0
0,55,100,4
0,57,100,0
0,60,100,0
0,64,100,0
0,57,73,0
0,65,105,0
0,69,94,0
0,77,85,0
0,67,90,4
0,60,98,0
0,58,81,24
0,55,94,4
0,42,51,8
0,65,99,0
0,58,104,0
0,35,68,0
0,48,60,0
0,72,104,0
0,57,93,0
0,82,32,8
0,60,109,0
0,60,91,0
0,72,104,4
0,57,88,0
0,64,93,0
0,57,96,0
0,35,127,0
0,42,72,0
0,57,74,0
0,64,74,0
0,45,84,0
0,45,80,0
0,69,80,0
0,33,110,0
0,45,88,0
0,72,80,0
0,76,77,0
0,80,32,0
0,57,97,0
0,52,78,0
0,42,55,18
0,80,59,4
0,55,77,0
0,82,41,16
0,60,89,0
0,64,83,4
0,37,105,20
0,42,71,0
0,75,65,0
0,60,91,4
0,64,91,0
0,52,62,8
0,64,66,4
0,69,85,0
0,72,72,0
0,42,54,12
0,33,113,0
0,69,96,4
0,55,76,0
0,64,83,0
0,67,84,0
0,82,42,56
0,76,91,4
0,60,91,0
0,42,73,36
0,80,20,0
0,57,77,0
0,33,112,0
0,72,72,0
0,57,66,12
0,80,35,8
0,82,41,0
0,64,70,0
0,42,54,44
0,80,57,0
0,45,77,0
0,35,123,4
0,69,78,0
0,65,105,0
0,60,65,4
0,72,81,0
0,65,105,0
0,42,72,8
0,75,67,0
0,52,82,0
0,43,100,4
0,46,100,0
0,49,100,0
0,51,100,0
0,37,105,0
0,57,74,40
0,69,76,0
0,42,67,8
0,35,68,4
0,64,79,0
0,60,82,0
