track,note,velocity,time
1,76,122,465
1,76,0,30
1,74,122,0
1,74,0,30
1,72,105,0
1,72,0,30
1,74,115,0
1,74,0,30
1,76,122,0
1,76,0,840
1,74,122,0
1,74,0,30
1,72,122,0
1,72,0,30
1,70,110,0
1,70,0,30
1,72,110,0
1,72,0,30
1,74,122,0
1,74,0,210
1,74,115,30
1,76,122,0
1,74,0,30
1,76,0,30
1,72,122,0
1,72,0,510
1,76,122,30
1,76,0,30
1,74,122,0
1,74,0,30
1,72,115,0
1,72,0,30
1,74,110,0
1,74,0,30
1,76,115,0
1,76,0,720
1,72,122,0
1,72,0,60
1,77,122,0
1,77,0,30
1,79,96,30
1,79,0,90
1,79,122,30
1,79,0,60
1,76,127,0
1,76,0,180
1,69,122,0
1,69,0,60
1,72,127,0
1,72,0,510
1,76,122,3510
1,76,0,60
1,72,122,60
1,72,0,60
1,69,127,0
1,69,0,60
1,67,127,60
1,67,0,360
1,53,122,3540
1,50,122,0
1,57,122,0
1,60,105,0
1,60,0,30
1,53,0,0
1,50,0,0
1,57,0,0
1,60,105,0
1,53,122,0
1,57,122,0
1,50,115,0
1,50,0,30
1,60,0,0
1,53,0,0
1,57,0,0
1,60,83,0
1,50,86,0
1,57,96,0
1,53,96,0
1,53,0,30
1,60,0,0
1,50,0,0
1,57,0,0
1,57,92,0
1,60,80,0
1,50,86,0
1,53,92,0
1,53,0,30
1,57,0,0
1,60,0,0
1,50,0,0
1,50,115,0
1,60,110,0
1,53,122,0
1,57,115,0
1,57,0,30
1,50,0,0
1,60,0,0
1,53,0,0
1,64,122,270
1,57,115,0
1,60,122,0
1,60,0,30
1,57,0,0
1,64,0,0
1,64,115,90
1,57,115,0
1,60,122,0
1,60,0,30
1,57,0,0
1,64,0,0
1,59,122,90
1,62,122,0
1,55,115,0
1,55,0,270
1,62,0,0
1,59,0,0
1,57,122,30
1,53,122,0
1,60,100,0
1,50,122,0
1,50,0,30
1,57,0,0
1,53,0,0
1,60,0,0
1,53,105,0
1,50,92,0
1,60,92,0
1,57,100,0
1,57,0,30
1,53,0,0
1,50,0,0
1,60,0,0
1,60,77,0
1,57,92,0
1,50,80,0
1,53,89,0
1,53,0,30
1,60,0,0
1,57,0,0
1,50,0,0
1,60,75,0
1,50,77,0
1,57,92,0
1,53,89,0
1,53,0,30
1,60,0,0
1,50,0,0
1,57,0,0
1,60,96,0
1,50,105,0
1,57,110,0
1,53,115,0
1,53,0,30
1,60,0,0
1,50,0,0
1,57,0,0
1,72,122,270
1,67,105,0
1,69,115,0
1,74,122,0
1,79,110,0
1,79,0,30
1,69,0,0
1,72,0,0
1,67,0,0
1,74,0,0
1,72,127,90
1,69,122,0
1,67,110,0
1,74,127,0
1,79,115,0
1,79,0,30
1,67,0,0
1,72,0,0
1,69,0,0
1,74,0,0
1,67,122,90
1,72,127,0
1,74,127,0
1,79,115,0
1,79,0,300
1,67,0,0
1,72,0,0
1,74,0,0
1,76,122,0
1,76,0,30
1,74,122,0
1,74,0,30
1,72,105,0
1,72,0,30
1,74,115,0
1,74,0,30
1,76,122,0
1,76,0,840
1,74,122,0
1,74,0,30
1,72,122,0
1,72,0,30
1,70,110,0
1,70,0,30
1,72,110,0
1,72,0,30
1,74,122,0
1,74,0,210
1,74,115,30
1,76,122,0
1,74,0,30
1,76,0,30
1,72,122,0
1,72,0,510
1,76,122,30
1,76,0,30
1,74,122,0
1,74,0,30
1,72,115,0
1,72,0,30
1,74,110,0
1,74,0,30
1,76,115,0
1,76,0,720
1,72,122,0
1,72,0,60
1,77,122,0
1,77,0,30
1,79,96,30
1,79,0,90
1,79,122,30
1,79,0,60
1,76,127,0
1,76,0,180
1,69,122,0
1,69,0,60
1,72,127,0
1,72,0,510
1,53,122,5790
1,50,122,0
1,57,122,0
1,60,105,0
1,60,0,30
1,53,0,0
1,50,0,0
1,57,0,0
1,60,105,0
1,53,122,0
1,57,122,0
1,50,115,0
1,50,0,30
1,60,0,0
1,53,0,0
1,57,0,0
1,60,83,0
1,50,86,0
1,57,96,0
1,53,96,0
1,53,0,30
1,60,0,0
1,50,0,0
1,57,0,0
1,57,92,0
1,60,80,0
1,50,86,0
1,53,92,0
1,53,0,30
1,57,0,0
1,60,0,0
1,50,0,0
1,50,115,0
1,60,110,0
1,53,122,0
1,57,115,0
1,57,0,30
1,50,0,0
1,60,0,0
1,53,0,0
1,64,122,270
1,57,115,0
1,60,122,0
1,60,0,30
1,57,0,0
1,64,0,0
1,64,115,90
1,57,115,0
1,60,122,0
1,60,0,30
1,57,0,0
1,64,0,0
1,59,122,90
1,62,122,0
1,55,115,0
1,55,0,270
1,62,0,0
1,59,0,0
1,57,122,30
1,53,122,0
1,60,100,0
1,50,122,0
1,50,0,30
1,57,0,0
1,53,0,0
1,60,0,0
1,53,105,0
1,50,92,0
1,60,92,0
1,57,100,0
1,57,0,30
1,53,0,0
1,50,0,0
1,60,0,0
1,60,77,0
1,57,92,0
1,50,80,0
1,53,89,0
1,53,0,30
1,60,0,0
1,57,0,0
1,50,0,0
1,60,75,0
1,50,77,0
1,57,92,0
1,53,89,0
1,53,0,30
1,60,0,0
1,50,0,0
1,57,0,0
1,60,96,0
1,50,105,0
1,57,110,0
1,53,115,0
1,53,0,30
1,60,0,0
1,50,0,0
1,57,0,0
1,72,122,270
1,67,105,0
1,69,115,0
1,74,122,0
1,79,110,0
1,79,0,30
1,69,0,0
1,72,0,0
1,67,0,0
1,74,0,0
1,72,127,90
1,69,122,0
1,67,110,0
1,74,127,0
1,79,115,0
1,79,0,30
1,67,0,0
1,72,0,0
1,69,0,0
1,74,0,0
1,67,122,90
1,72,127,0
1,74,127,0
1,79,115,0
1,79,0,300
1,67,0,0
1,72,0,0
1,74,0,0
1,76,122,0
1,76,0,30
1,74,122,0
1,74,0,30
1,72,105,0
1,72,0,30
1,74,115,0
1,74,0,30
1,76,122,0
1,76,0,840
1,74,122,0
1,74,0,30
1,72,122,0
1,72,0,30
1,70,110,0
1,70,0,30
1,72,110,0
1,72,0,30
1,74,122,0
1,74,0,210
1,74,115,30
1,76,122,0
1,74,0,30
1,76,0,30
1,72,122,0
1,72,0,510
1,76,122,30
1,76,0,30
1,74,122,0
1,74,0,30
1,72,115,0
1,72,0,30
1,74,110,0
1,74,0,30
1,76,115,0
1,76,0,720
1,72,122,0
1,72,0,60
1,77,122,0
1,77,0,30
1,79,96,30
1,79,0,90
1,79,122,30
1,79,0,60
1,76,127,0
1,76,0,180
1,69,122,0
1,69,0,60
1,72,127,0
1,72,0,510
1,53,122,3870
1,50,122,0
1,57,122,0
1,60,105,0
1,60,0,30
1,53,0,0
1,50,0,0
1,57,0,0
1,60,105,0
1,53,122,0
1,57,122,0
1,50,115,0
1,50,0,30
1,60,0,0
1,53,0,0
1,57,0,0
1,60,83,0
1,50,86,0
1,57,96,0
1,53,96,0
1,53,0,30
1,60,0,0
1,50,0,0
1,57,0,0
1,57,92,0
1,60,80,0
1,50,86,0
1,53,92,0
1,53,0,30
1,57,0,0
1,60,0,0
1,50,0,0
1,50,115,0
1,60,110,0
1,53,122,0
1,57,115,0
1,57,0,30
1,50,0,0
1,60,0,0
1,53,0,0
1,64,122,270
1,57,115,0
1,60,122,0
1,60,0,30
1,57,0,0
1,64,0,0
1,64,115,90
1,57,115,0
1,60,122,0
1,60,0,30
1,57,0,0
1,64,0,0
1,59,122,90
1,62,122,0
1,55,115,0
1,55,0,270
1,62,0,0
1,59,0,0
1,57,122,30
1,53,122,0
1,60,100,0
1,50,122,0
1,50,0,30
1,57,0,0
1,53,0,0
1,60,0,0
1,53,105,0
1,50,92,0
1,60,92,0
1,57,100,0
1,57,0,30
1,53,0,0
1,50,0,0
1,60,0,0
1,60,77,0
1,57,92,0
1,50,80,0
1,53,89,0
1,53,0,30
1,60,0,0
1,57,0,0
1,50,0,0
1,60,75,0
1,50,77,0
1,57,92,0
1,53,89,0
1,53,0,30
1,60,0,0
1,50,0,0
1,57,0,0
1,60,96,0
1,50,105,0
1,57,110,0
1,53,115,0
1,53,0,30
1,60,0,0
1,50,0,0
1,57,0,0
1,72,122,270
1,67,105,0
1,69,115,0
1,74,122,0
1,79,110,0
1,79,0,30
1,69,0,0
1,72,0,0
1,67,0,0
1,74,0,0
1,72,127,90
1,69,122,0
1,67,110,0
1,74,127,0
1,79,115,0
1,79,0,30
1,67,0,0
1,72,0,0
1,69,0,0
1,74,0,0
1,67,122,90
1,72,127,0
1,74,127,0
1,79,115,0
1,79,0,300
1,67,0,0
1,72,0,0
1,74,0,0
1,76,122,0
1,76,0,30
1,74,122,0
1,74,0,30
1,72,105,0
1,72,0,30
1,74,115,0
1,74,0,30
1,76,122,0
1,76,0,840
1,74,122,0
1,74,0,30
1,72,122,0
1,72,0,30
1,70,110,0
1,70,0,30
1,72,110,0
1,72,0,30
1,74,122,0
1,74,0,210
1,74,115,30
1,76,122,0
1,74,0,30
1,76,0,30
1,72,122,0
1,72,0,510
1,76,122,30
1,76,0,30
1,74,122,0
1,74,0,30
1,72,115,0
1,72,0,30
1,74,110,0
1,74,0,30
1,76,115,0
1,76,0,720
1,72,122,0
1,72,0,60
1,77,122,0
1,77,0,30
1,79,96,30
1,79,0,90
1,79,122,30
1,79,0,60
1,76,127,0
1,76,0,180
1,69,122,0
1,69,0,60
1,72,127,0
1,72,0,510
1,76,122,30
1,76,0,30
1,74,122,0
1,74,0,30
1,72,105,0
1,72,0,30
1,74,115,0
1,74,0,30
1,76,122,0
1,76,0,840
1,74,122,0
1,74,0,30
1,72,122,0
1,72,0,30
1,70,110,0
1,70,0,30
1,72,110,0
1,72,0,30
1,74,122,0
1,74,0,210
1,74,115,30
1,76,122,0
1,74,0,30
1,76,0,30
1,72,122,0
1,72,0,510
1,76,122,30
1,76,0,30
1,74,122,0
1,74,0,30
1,72,115,0
1,72,0,30
1,74,110,0
1,74,0,30
1,76,115,0
1,76,0,720
1,72,122,0
1,72,0,60
1,77,122,0
1,77,0,30
1,79,96,30
1,79,0,90
1,79,122,30
1,79,0,60
1,76,127,0
1,76,0,180
1,69,122,0
1,69,0,60
1,72,127,0
1,72,0,510
1,76,122,30
1,76,0,30
1,74,122,0
1,74,0,30
1,72,105,0
1,72,0,30
1,74,115,0
1,74,0,30
1,76,122,0
1,76,0,840
1,74,122,0
1,74,0,30
1,72,122,0
1,72,0,30
1,70,110,0
1,70,0,30
1,72,110,0
1,72,0,30
1,74,122,0
1,74,0,210
1,74,115,30
1,76,122,0
1,74,0,30
1,76,0,30
1,72,122,0
1,72,0,510
1,76,122,30
1,76,0,30
1,74,122,0
1,74,0,30
1,72,115,0
1,72,0,30
1,74,110,0
1,74,0,30
1,76,115,0
1,76,0,720
1,72,122,0
1,72,0,60
1,77,122,0
1,77,0,30
1,79,96,30
1,79,0,90
1,79,122,30
1,79,0,60
1,76,127,0
1,76,0,180
1,69,122,0
1,69,0,60
1,72,127,0
1,72,0,510
2,64,122,430
2,64,0,30
2,62,122,0
2,62,0,30
2,60,105,0
2,60,0,30
2,62,115,0
2,62,0,30
2,64,122,0
2,64,0,840
2,62,122,0
2,62,0,30
2,60,122,0
2,60,0,30
2,58,110,0
2,58,0,30
2,60,110,0
2,60,0,30
2,62,122,0
2,62,0,210
2,62,115,30
2,64,122,0
2,62,0,30
2,64,0,30
2,60,122,0
2,60,0,510
2,64,122,30
2,64,0,30
2,62,122,0
2,62,0,30
2,60,115,0
2,60,0,30
2,62,110,0
2,62,0,30
2,64,115,0
2,64,0,720
2,60,122,0
2,60,0,60
2,65,122,0
2,65,0,30
2,67,96,30
2,67,0,90
2,67,122,30
2,67,0,60
2,64,127,0
2,64,0,180
2,57,122,0
2,57,0,60
2,60,127,0
2,60,0,510
2,64,122,3510
2,64,0,60
2,60,122,60
2,60,0,60
2,57,127,0
2,57,0,60
2,55,127,60
2,55,0,360
3,64,96,450
3,55,105,0
3,60,100,0
3,60,0,240
3,55,0,30
3,64,0,0
3,64,122,30
3,55,122,0
3,60,122,0
3,60,0,90
3,55,0,0
3,64,0,0
3,59,122,30
3,55,115,0
3,62,122,0
3,62,0,330
3,55,0,0
3,59,0,0
3,55,122,30
3,59,122,0
3,62,115,0
3,62,0,90
3,59,0,0
3,55,0,0
3,62,92,30
3,53,115,0
3,58,122,0
3,58,0,330
3,53,0,0
3,62,0,0
3,62,122,30
3,58,122,0
3,53,115,0
3,53,0,90
3,58,0,0
3,62,0,0
3,53,110,30
3,60,110,0
3,57,122,0
3,57,0,270
3,60,0,0
3,53,0,0
3,53,92,30
3,60,86,0
3,60,0,0
3,57,105,0
3,57,0,30
3,53,0,0
3,62,122,30
3,55,122,0
3,59,127,0
3,59,0,150
3,55,0,0
3,62,0,0
3,64,105,30
3,60,115,0
3,55,115,0
3,55,0,270
3,60,0,0
3,64,0,0
3,55,110,30
3,64,122,0
3,60,115,0
3,60,0,90
3,64,0,0
3,55,0,0
3,59,122,30
3,55,105,0
3,62,115,0
3,62,0,330
3,55,0,0
3,59,0,0
3,55,100,30
3,59,122,0
3,62,110,0
3,62,0,90
3,59,0,0
3,55,0,0
3,58,122,30
3,53,115,0
3,62,115,0
3,62,0,330
3,53,0,0
3,58,0,0
3,58,122,30
3,62,115,0
3,53,115,0
3,53,0,90
3,62,0,0
3,58,0,0
3,57,122,30
3,60,115,0
3,53,105,0
3,53,0,270
3,60,0,0
3,57,0,0
3,60,100,30
3,53,100,0
3,57,110,0
3,57,0,30
3,53,0,0
3,60,0,0
3,55,122,30
3,62,122,0
3,59,122,0
3,59,0,150
3,62,0,0
3,55,0,0
3,64,96,30
3,55,105,0
3,60,100,0
3,60,0,240
3,55,0,30
3,64,0,0
3,64,122,30
3,55,122,0
3,60,122,0
3,60,0,90
3,55,0,0
3,64,0,0
3,59,122,30
3,55,115,0
3,62,122,0
3,62,0,330
3,55,0,0
3,59,0,0
3,55,122,30
3,59,122,0
3,62,115,0
3,62,0,90
3,59,0,0
3,55,0,0
3,62,92,30
3,53,115,0
3,58,122,0
3,58,0,330
3,53,0,0
3,62,0,0
3,62,122,30
3,58,122,0
3,53,115,0
3,53,0,90
3,58,0,0
3,62,0,0
3,53,110,30
3,60,110,0
3,57,122,0
3,57,0,270
3,60,0,0
3,53,0,0
3,53,92,30
3,60,86,0
3,60,0,0
3,57,105,0
3,57,0,30
3,53,0,0
3,62,122,30
3,55,122,0
3,59,127,0
3,59,0,150
3,55,0,0
3,62,0,0
3,64,105,30
3,60,115,0
3,55,115,0
3,55,0,270
3,60,0,0
3,64,0,0
3,55,110,30
3,64,122,0
3,60,115,0
3,60,0,90
3,64,0,0
3,55,0,0
3,59,122,30
3,55,105,0
3,62,115,0
3,62,0,330
3,55,0,0
3,59,0,0
3,55,100,30
3,59,122,0
3,62,110,0
3,62,0,90
3,59,0,0
3,55,0,0
3,58,122,30
3,53,115,0
3,62,115,0
3,62,0,330
3,53,0,0
3,58,0,0
3,58,122,30
3,62,115,0
3,53,115,0
3,53,0,90
3,62,0,0
3,58,0,0
3,57,122,30
3,60,115,0
3,53,105,0
3,53,0,270
3,60,0,0
3,57,0,0
3,60,100,30
3,53,100,0
3,57,110,0
3,57,0,30
3,53,0,0
3,60,0,0
3,55,122,30
3,62,122,0
3,59,122,0
3,59,0,150
3,62,0,0
3,55,0,0
3,64,96,30
3,55,105,0
3,60,100,0
3,60,0,240
3,55,0,30
3,64,0,0
3,64,122,30
3,55,122,0
3,60,122,0
3,60,0,90
3,55,0,0
3,64,0,0
3,59,122,30
3,55,115,0
3,62,122,0
3,62,0,330
3,55,0,0
3,59,0,0
3,55,122,30
3,59,122,0
3,62,115,0
3,62,0,90
3,59,0,0
3,55,0,0
3,62,92,30
3,53,115,0
3,58,122,0
3,58,0,330
3,53,0,0
3,62,0,0
3,62,122,30
3,58,122,0
3,53,115,0
3,53,0,90
3,58,0,0
3,62,0,0
3,53,110,30
3,60,110,0
3,57,122,0
3,57,0,270
