track,note,velocity,time
0,42,120,0
0,42,0,4
0,42,70,92
0,42,0,4
0,42,70,92
0,42,0,4
0,42,70,92
0,42,0,4
0,55,98,0
0,60,98,0
0,60,99,0
0,52,98,0
0,55,98,0
0,36,99,0
0,48,100,1
0,52,100,0
0,42,65,0
0,36,0,3
0,42,0,1
0,36,86,44
0,46,68,0
0,46,0,4
0,36,0,0
0,36,103,20
0,36,0,4
0,42,62,19
0,72,119,0
0,38,70,0
0,40,103,0
0,60,101,0
0,42,0,3
0,40,0,1
0,38,0,0
0,72,0,42
0,42,62,1
0,72,118,0
0,36,103,1
0,42,0,3
0,36,0,1
0,42,62,43
0,72,0,1
0,72,122,0
0,42,0,3
0,72,0,44
0,71,117,0
0,42,67,1
0,36,103,0
0,36,0,4
0,42,0,0
0,60,0,43
0,69,117,0
0,71,0,1
0,38,70,0
0,40,102,0
0,42,65,0
0,60,103,0
0,42,0,4
0,40,0,0
0,38,0,0
0,52,0,43
0,60,0,0
0,48,0,0
0,50,99,0
0,67,118,0
0,52,0,1
0,60,0,0
0,60,0,0
0,55,0,0
0,69,0,0
0,59,100,0
0,55,101,0
0,59,101,0
0,50,101,0
0,42,67,0
0,59,102,0
0,42,0,4
0,42,64,43
0,62,100,1
0,36,102,0
0,42,0,3
0,36,0,1
0,46,63,43
0,36,87,1
0,46,0,3
0,36,0,1
0,36,98,19
0,36,0,4
0,42,62,20
0,38,70,0
0,40,103,0
0,42,0,3
0,38,0,1
0,40,0,0
0,67,0,42
0,42,64,1
0,36,98,0
0,67,119,0
0,36,0,3
0,42,0,0
0,67,0,45
0,42,65,0
0,67,121,0
0,42,0,4
0,67,0,43
0,42,63,0
0,69,118,0
0,36,101,1
0,42,0,3
0,36,0,1
0,59,0,43
0,42,64,0
0,69,0,1
0,38,70,0
0,40,102,0
0,59,102,0
0,71,121,0
0,42,0,3
0,40,0,1
0,38,0,0
0,59,0,35
0,55,0,0
0,59,0,0
0,59,0,0
0,50,0,0
0,62,0,0
0,71,0,0
0,64,99,0
0,52,97,0
0,57,97,0
0,50,0,1
0,55,0,0
0,60,101,0
0,52,102,0
0,57,102,0
0,60,101,0
0,46,66,0
0,60,100,0
0,69,122,0
0,46,0,4
0,42,64,43
0,36,101,1
0,42,0,3
0,36,0,1
0,69,0,19
0,67,117,0
0,36,84,24
0,67,0,1
0,46,68,0
0,64,122,0
0,36,0,3
0,46,0,1
0,36,98,19
0,36,0,4
0,60,0,20
0,42,62,0
0,60,98,0
0,38,70,0
0,40,103,0
0,42,0,3
0,38,0,1
0,40,0,0
0,36,102,44
0,42,66,0
0,42,0,4
0,36,0,0
0,64,0,19
0,64,119,24
0,42,67,1
0,42,0,4
0,36,97,43
0,42,63,0
0,64,0,1
0,65,121,0
0,42,0,3
0,36,0,0
0,65,0,44
0,42,64,0
0,67,118,0
0,38,70,1
0,40,103,0
0,42,0,3
0,38,0,1
0,40,0,0
0,57,0,42
0,52,0,1
0,60,0,0
0,57,0,0
0,60,0,0
0,60,99,0
0,57,97,0
0,65,98,0
0,60,98,0
0,42,63,0
0,60,0,1
0,52,0,0
0,67,0,0
0,64,0,0
0,53,100,0
0,53,100,0
0,57,101,0
0,67,123,0
0,42,0,3
0,42,65,45
0,36,101,0
0,36,0,4
0,42,0,0
0,67,0,43
0,36,82,1
0,46,68,0
0,65,123,0
0,46,0,4
0,36,0,0
0,36,103,20
0,36,0,4
0,65,0,19
0,40,99,0
0,38,70,0
0,42,65,0
0,64,123,0
0,40,0,3
0,42,0,1
0,38,0,0
0,64,0,43
0,42,62,0
0,60,118,0
0,65,0,1
0,67,101,0
0,36,101,0
0,42,0,3
0,36,0,1
0,42,66,44
0,42,0,4
0,38,70,20
0,38,0,4
0,42,64,19
0,36,101,1
0,42,0,3
0,36,0,1
0,60,0,1
0,38,70,0
0,40,102,0
0,42,67,0
0,65,120,0
0,42,0,4
0,40,0,0
0,38,0,0
0,67,0,35
0,65,0,0
0,53,0,0
0,48,98,0
0,60,0,1
0,57,0,0
0,55,103,0
0,60,103,0
0,52,101,0
0,46,67,0
0,60,102,0
0,64,123,0
0,46,0,4
0,60,0,10
0,57,0,1
0,53,0,0
0,60,99,0
0,52,97,0
0,36,99,0
0,42,62,0
0,24,109,0
0,55,100,0
0,42,0,3
0,36,0,0
0,24,0,11
0,24,106,11
0,36,86,0
0,46,68,0
0,46,0,4
0,36,0,0
0,36,98,11
0,36,0,3
0,24,0,9
0,72,104,0
0,40,97,0
0,38,70,0
0,42,68,0
0,40,0,3
0,42,0,1
0,38,0,0
0,72,0,11
0,24,107,11
0,42,64,0
0,72,98,1
0,36,100,0
0,42,0,3
0,36,0,1
0,72,0,4
0,64,0,11
0,72,99,1
0,42,68,0
0,42,0,4
0,72,0,2
0,42,62,2
0,36,98,0
0,71,96,1
0,36,0,3
0,42,0,0
0,71,0,8
0,24,0,4
0,55,0,11
0,60,0,0
0,52,0,0
0,60,0,0
0,28,105,0
0,69,100,0
0,40,97,0
0,42,64,0
0,48,0,1
0,38,70,0
0,60,102,0
0,42,0,3
0,40,0,0
0,38,0,1
0,28,0,32
0,69,0,3
0,67,100,7
0,55,0,1
0,60,0,0
0,31,107,0
0,55,98,0
0,59,98,0
0,52,0,1
0,60,0,0
0,50,102,0
0,59,100,0
0,42,66,0
0,42,0,4
0,31,0,20
0,31,107,11
0,42,62,0
0,67,0,1
0,36,102,0
0,42,0,3
0,36,0,1
0,31,0,20
0,46,62,23
0,59,0,1
0,31,111,0
0,36,86,0
0,50,103,0
0,46,0,3
0,36,0,1
0,36,102,20
0,36,0,4
0,31,0,7
0,50,0,12
0,59,99,0
0,38,70,0
0,40,102,0
0,42,68,0
0,42,0,4
0,38,0,0
0,40,0,0
0,36,98,43
0,31,110,1
0,42,65,0
0,36,0,3
0,42,0,1
0,67,99,3
0,42,67,1
0,42,0,4
0,67,0,31
0,69,100,0
0,59,0,1
0,36,100,0
0,42,65,0
0,50,102,0
0,42,0,4
0,36,0,0
0,69,0,15
0,31,0,16
0,50,0,2
0,71,96,0
0,40,98,0
0,42,63,0
0,31,108,1
0,38,70,0
0,59,101,0
0,42,0,1
0,40,0,0
0,38,0,1
0,71,0,1
0,50,0,8
0,59,0,0
0,69,100,0
0,57,97,0
0,52,97,0
0,60,98,0
0,55,0,1
0,46,68,0
0,46,0,4
0,31,0,31
0,33,107,12
0,36,99,0
0,42,63,0
0,42,0,4
0,36,0,0
0,69,0,13
0,67,96,7
0,33,0,1
0,67,0,22
0,59,0,1
0,33,105,0
0,64,95,0
0,46,62,0
0,36,82,1
0,52,100,0
0,46,0,3
0,36,0,1
0,36,99,19
0,36,0,4
0,33,0,9
0,64,0,1
0,52,0,10
0,38,70,0
0,42,67,0
0,40,103,0
0,60,100,0
0,40,0,4
0,38,0,0
0,42,0,0
0,36,98,43
0,33,109,1
0,42,67,0
0,36,0,3
0,42,0,1
0,64,100,43
0,42,63,0
0,42,0,4
0,64,0,38
0,65,99,5
0,36,98,1
0,42,66,1
0,36,0,3
0,42,0,1
0,33,0,31
0,65,0,4
0,67,99,7
0,60,0,1
0,33,105,0
0,40,99,0
0,38,70,1
0,42,67,0
0,60,103,0
0,40,0,3
0,42,0,1
0,38,0,0
0,67,0,21
0,33,0,11
0,60,0,7
0,67,98,0
0,60,97,1
0,42,62,0
0,57,0,1
0,52,0,0
0,31,111,0
0,53,100,0
0,57,103,0
0,42,0,1
0,31,0,26
0,42,62,1
0,26,108,1
0,36,101,0
0,42,0,3
0,36,0,1
0,26,0,3
0,67,0,11
0,60,0,6
0,26,106,0
0,65,99,0
0,46,62,0
0,36,82,1
0,53,101,0
0,46,0,3
0,36,0,1
0,36,98,19
0,36,0,4
0,65,0,17
0,53,0,3
0,40,97,0
0,42,64,0
0,60,97,0
0,64,102,0
0,38,70,0
0,42,0,3
0,40,0,0
0,38,0,1
0,64,0,32
0,26,0,0
0,36,99,11
0,31,109,1
0,60,97,0
0,42,68,0
0,36,0,3
0,42,0,1
0,42,63,1
0,42,0,4
0,38,70,5
0,38,0,4
0,31,0,2
0,60,0,2
0,62,102,5
0,36,98,0
0,53,99,0
0,60,0,1
0,31,109,0
0,42,67,0
0,36,0,3
0,42,0,1
0,31,0,19
0,62,0,17
0,64,98,6
0,60,98,1
0,53,0,1
0,31,109,0
0,38,70,0
0,40,100,0
0,42,68,0
0,42,0,4
0,40,0,0
0,38,0,0
0,64,0,22
0,31,0,9
0,64,99,11
0,46,63,1
0,24,108,1
0,46,0,3
0,24,0,5
0,60,0,2
0,53,0,1
0,57,0,0
0,24,106,0
0,52,98,0
0,60,100,1
0,55,103,0
0,36,101,0
0,42,68,0
0,42,0,3
0,36,0,0
0,24,0,20
0,24,106,23
0,60,0,1
0,36,82,0
0,46,67,0
0,52,100,0
0,46,0,4
0,36,0,0
0,36,97,19
0,64,0,1
0,36,0,3
0,24,0,9
0,52,0,2
0,42,62,0
0,72,103,0
0,38,70,0
0,40,103,0
0,60,103,0
0,42,0,3
0,40,0,1
0,38,0,0
0,72,0,15
0,24,107,16
0,42,64,0
0,72,100,1
0,36,103,0
0,42,0,3
0,36,0,1
0,72,0,13
0,72,100,30
0,42,68,1
0,42,0,2
0,60,0,3
0,42,63,0
0,72,0,1
0,36,101,0
0,52,101,0
0,71,95,1
0,42,0,2
0,36,0,1
0,71,0,31
0,24,0,1
0,52,0,11
0,69,97,0
0,40,97,0
0,42,64,0
0,28,110,1
0,38,70,0
0,60,100,0
0,42,0,3
0,40,0,0
0,38,0,1
0,28,0,31
0,69,0,3
0,67,99,8
0,60,0,1
0,55,0,0
0,60,0,0
0,31,106,0
0,59,97,0
0,55,98,0
0,59,97,0
0,52,0,1
0,50,101,0
0,42,66,0
0,42,0,4
0,31,0,20
0,42,62,23
0,31,111,1
0,36,101,0
0,42,0,3
0,36,0,1
0,67,0,0
0,31,0,19
0,46,63,24
0,50,98,0
0,59,0,1
0,31,111,0
0,36,86,0
0,46,0,3
0,36,0,1
0,36,101,20
0,36,0,4
0,31,0,7
0,67,96,10
0,40,98,2
0,50,0,0
0,38,70,0
0,42,65,0
0,59,103,0
0,40,0,3
0,42,0,1
0,38,0,0
0,67,0,18
0,67,100,25
0,31,108,1
0,36,101,0
0,42,66,0
0,42,0,4
0,36,0,0
0,67,0,15
0,67,100,2
0,42,63,0
0,42,0,2
0,67,0,1
0,69,100,5
0,59,0,1
0,50,98,0
0,42,67,1
0,36,103,0
0,36,0,4
0,42,0,0
0,69,0,26
0,31,0,5
0,71,96,5
0,50,0,2
0,31,109,0
0,38,70,0
0,40,101,0
0,42,68,0
0,59,101,0
0,42,0,2
0,40,0,0
0,38,0,0
0,71,0,19
0,50,0,18
0,52,99,0
0,60,97,0
0,57,98,0
0,46,64,0
0,55,0,1
0,59,0,0
0,69,98,0
0,46,0,3
0,31,0,2
0,42,62,11
0,33,108,1
0,36,101,0
0,42,0,3
0,36,0,1
0,69,0,1
0,33,0,2
0,67,96,0
0,67,0,20
0,59,0,3
0,33,107,0
0,46,64,0
0,36,84,0
0,64,96,1
0,52,102,0
0,36,0,3
0,46,0,0
0,36,100,21
0,36,0,4
0,64,0,8
0,33,0,0
0,52,0,11
0,40,97,0
0,60,98,0
0,38,70,0
0,42,68,0
0,40,0,3
0,38,0,1
0,42,0,0
0,33,110,44
0,42,65,0
0,36,103,0
0,36,0,4
0,42,0,0
0,64,103,43
0,42,62,0
0,42,0,4
0,33,0,32
0,64,0,7
0,65,98,5
0,36,98,0
0,60,0,1
0,33,109,0
0,42,67,0
0,53,100,0
0,36,0,3
0,42,0,1
0,33,0,31
0,65,0,4
0,67,98,7
0,53,0,1
0,31,107,0
0,40,99,0
0,42,62,0
0,38,70,1
0,60,101,0
0,42,0,3
0,40,0,0
0,38,0,1
0,67,0,22
0,31,0,10
0,57,0,2
0,67,98,1
0,57,99,0
0,53,97,0
0,42,62,0
0,60,0,1
0,52,0,0
0,26,111,0
0,60,103,0
0,42,0,3
0,26,0,23
0,26,106,12
0,42,64,0
0,36,101,1
0,42,0,3
0,36,0,1
0,67,0,18
0,26,0,14
0,65,100,10
0,60,0,1
0,36,85,0
0,46,64,0
0,53,83,0
0,28,109,1
0,46,0,3
0,36,0,0
0,57,84,0
0,60,86,2
0,36,101,19
0,36,0,4
0,65,0,5
0,28,0,2
0,29,106,12
0,64,100,0
0,40,97,0
0,42,64,0
0,38,70,0
0,42,0,3
0,40,0,0
0,38,0,1
0,64,0,26
0,29,0,6
0,53,0,10
0,60,98,1
0,42,64,0
0,53,83,0
0,29,111,1
0,36,102,0
0,60,0,2
0,57,0,0
0,42,0,1
0,57,87,0
0,36,0,1
0,60,83,0
0,42,65,11
0,42,0,4
0,38,70,5
0,38,0,4
0,29,0,2
0,60,0,6
0,53,0,2
0,62,100,1
0,53,83,0
0,31,108,1
0,36,102,0
0,42,66,0
0,57,0,1
0,57,87,2
0,42,0,1
0,36,0,0
0,60,0,1
0,60,87,0
0,62,0,35
0,64,98,6
0,40,98,1
0,38,70,1
0,42,66,0
0,55,107,0
0,40,0,3
0,42,0,1
0,38,0,0
0,64,0,21
0,31,0,10
0,24,107,12
0,64,102,0
0,60,102,0
0,53,0,1
0,46,67,0
0,57,0,1
0,46,0,3
0,60,0,0
0,24,0,1
0,60,0,2
0,24,105,0
0,60,97,0
0,52,97,0
0,60,90,0
0,36,98,0
0,57,0,1
0,53,0,0
0,55,100,0
0,55,82,0
0,42,65,0
0,36,0,2
0,42,0,1
0,55,0,0
0,24,0,20
0,24,108,24
0,36,86,0
0,46,66,0
0,64,0,3
0,46,0,1
0,36,0,0
0,36,102,20
0,36,0,4
0,24,0,7
0,40,97,12
0,38,70,0
0,42,67,0
0,40,0,3
0,42,0,1
0,38,0,0
0,24,107,43
0,42,64,0
0,36,98,0
0,36,0,4
0,42,0,0
0,52,1,0
0,64,1,0
0,42,63,0
0,52,102,0
0,64,102,0
0,72,105,1
0,42,0,2
0,72,0,5
0,52,0,14
0,64,0,0
0,64,0,9
0,52,0,0
0,52,1,0
0,64,1,0
0,52,99,3
0,64,102,1
0,36,100,0
0,42,66,0
0,72,104,1
0,42,0,3
0,36,0,0
0,72,0,11
0,64,0,20
0,52,0,1
0,24,0,0
0,52,0,8
0,64,0,0
0,53,1,0
0,65,1,0
0,55,0,3
0,28,107,0
0,40,98,0
0,60,0,1
0,60,0,0
0,53,103,0
0,65,103,0
0,72,105,0
0,69,93,0
0,38,70,0
0,42,65,0
0,60,104,0
0,40,0,3
0,42,0,1
0,38,0,0
0,72,0,12
0,60,0,7
0,62,103,0
0,53,0,12
0,65,0,0
0,28,0,1
0,53,0,8
0,65,0,0
0,55,1,0
0,67,1,0
0,55,0,3
0,69,0,0
0,31,106,0
0,74,102,0
0,50,97,0
0,67,90,0
0,42,64,0
0,52,0,1
0,60,0,0
0,62,0,0
0,55,100,0
0,67,103,0
0,55,101,0
0,59,101,0
0,55,105,0
0,42,0,1
0,31,0,2
0,67,0,6
0,55,0,0
0,55,0,9
0,67,0,0
0,31,106,3
0,42,62,0
0,36,103,0
0,42,0,3
0,36,0,1
0,31,0,10
0,74,0,17
0,52,1,3
0,64,1,0
0,52,100,4
0,64,102,0
0,31,110,0
0,72,99,0
0,36,88,0
0,46,65,0
0,46,0,4
0,36,0,0
0,72,0,8
0,36,99,11
0,36,0,4
0,64,0,8
0,52,0,0
0,31,0,0
0,64,0,3
0,52,0,0
0,69,1,0
0,57,1,0
0,55,0,3
0,69,99,0
0,76,102,0
0,40,99,0
0,42,64,0
0,57,103,0
0,38,70,0
0,42,0,3
0,40,0,0
0,38,0,1
0,76,0,8
0,57,0,15
0,69,0,1
0,57,0,8
0,69,0,0
0,67,1,0
0,55,1,0
0,67,99,3
0,31,105,0
0,74,99,0
0,36,99,0
0,55,103,1
0,42,66,0
0,36,0,3
0,42,0,1
0,55,0,1
0,67,0,1
0,55,0,2
0,67,0,0
