track,note,velocity,time
1,34,95,17474
1,34,95,48
1,34,95,148
1,34,95,244
1,34,95,244
1,34,95,52
1,34,95,48
1,34,95,148
1,34,95,52
1,34,95,48
1,34,95,148
1,34,95,52
1,34,95,48
1,34,95,148
1,34,95,244
1,34,95,244
1,34,95,52
1,34,95,48
1,34,95,148
1,34,95,52
1,34,95,48
1,34,95,148
1,34,95,52
1,34,95,48
1,34,95,148
1,34,95,244
1,34,95,244
1,34,95,52
1,34,95,48
1,34,95,148
1,34,95,52
1,34,95,48
1,34,95,148
1,34,95,52
1,34,95,48
1,34,95,148
1,34,95,244
1,34,95,244
1,34,95,52
1,34,95,1396
1,34,95,48
1,34,95,148
1,34,95,244
1,34,95,244
1,34,95,52
1,34,95,48
1,34,95,148
1,34,95,52
1,34,95,48
1,34,95,148
1,34,95,52
1,34,95,48
1,34,95,148
1,34,95,244
1,34,95,244
1,32,95,52
1,32,95,48
1,32,95,148
1,32,95,52
1,32,95,48
1,32,95,148
1,32,95,52
1,32,95,48
1,32,95,148
1,32,95,244
1,32,95,244
1,32,95,52
1,32,95,48
1,32,95,148
1,32,95,52
1,32,95,48
1,32,95,148
1,36,95,52
1,36,95,48
1,36,95,148
1,36,95,244
1,36,95,244
1,36,95,52
1,36,95,48
1,36,95,148
1,36,95,52
1,36,95,48
1,36,95,148
1,34,95,52
1,34,95,48
1,34,95,148
1,34,95,244
1,34,95,244
1,34,95,52
1,34,95,48
1,34,95,148
1,34,95,52
1,34,95,48
1,34,95,148
1,34,95,52
1,34,95,48
1,34,95,148
1,34,95,244
1,34,95,244
1,32,95,52
1,32,95,48
1,32,95,148
1,32,95,52
1,32,95,48
1,32,95,148
1,32,95,52
1,32,95,48
1,32,95,148
1,32,95,244
1,32,95,244
1,32,95,52
1,32,95,48
1,32,95,148
1,32,95,52
1,32,95,48
1,32,95,148
1,36,95,52
1,36,95,48
1,36,95,148
1,36,95,244
1,36,95,244
1,36,95,52
1,36,95,48
1,36,95,148
1,36,95,52
1,36,95,48
1,36,95,148
1,34,95,52
1,34,95,48
1,34,95,148
1,34,95,244
1,34,95,244
1,34,95,52
1,34,95,48
1,34,95,148
1,34,95,52
1,34,95,48
1,34,95,148
1,34,95,52
1,34,95,48
1,34,95,148
1,34,95,244
1,34,95,244
1,32,95,52
1,32,95,48
1,32,95,148
1,32,95,52
1,32,95,48
1,32,95,148
1,32,95,52
1,32,95,48
1,32,95,148
1,32,95,244
1,32,95,244
1,32,95,52
1,32,95,48
1,32,95,148
1,32,95,52
1,32,95,48
1,32,95,148
1,36,95,52
1,36,95,48
1,36,95,148
1,36,95,244
1,36,95,244
1,36,95,52
1,32,95,1396
1,32,95,48
1,32,95,148
1,32,95,244
1,32,95,244
1,36,95,52
1,36,95,48
1,36,95,148
1,36,95,244
1,36,95,244
1,34,95,52
1,34,95,48
1,34,95,148
1,34,95,244
1,34,95,244
1,29,95,52
1,29,95,48
1,29,95,148
1,29,95,52
1,29,95,48
1,29,95,148
1,29,95,52
1,29,95,48
1,29,95,148
1,29,95,244
1,29,95,244
1,32,95,52
1,32,95,48
1,32,95,148
1,32,95,244
1,32,95,244
1,36,95,52
1,36,95,48
1,36,95,148
1,36,95,244
1,36,95,244
1,34,95,52
1,34,95,48
1,34,95,148
1,34,95,244
1,34,95,244
1,29,95,52
1,29,95,48
1,29,95,148
1,29,95,52
1,29,95,48
1,29,95,148
1,29,95,52
1,36,95,1396
1,35,95,1204
1,34,95,52
1,36,95,1396
1,35,95,1204
1,34,95,52
1,36,95,1396
1,35,95,1204
1,34,95,52
1,36,95,1396
1,35,95,1204
1,34,95,52
1,34,95,1396
1,34,95,48
1,34,95,148
1,34,95,244
1,34,95,244
1,34,95,52
1,34,95,48
1,34,95,148
1,34,95,52
1,34,95,48
1,34,95,148
1,34,95,52
1,34,95,48
1,34,95,148
1,34,95,244
1,34,95,244
1,32,95,52
1,32,95,48
1,32,95,148
1,32,95,52
1,32,95,48
1,32,95,148
1,32,95,52
1,32,95,48
1,32,95,148
1,32,95,244
1,32,95,244
1,32,95,52
1,32,95,48
1,32,95,148
1,32,95,52
1,32,95,48
1,32,95,148
1,36,95,52
1,36,95,48
1,36,95,148
1,36,95,244
1,36,95,244
1,36,95,52
1,36,95,48
1,36,95,148
1,36,95,52
1,36,95,48
1,36,95,148
1,34,95,52
1,34,95,48
1,34,95,148
1,34,95,244
1,34,95,244
1,34,95,52
1,34,95,48
1,34,95,148
1,34,95,52
1,34,95,48
1,34,95,148
1,34,95,52
1,34,95,48
1,34,95,148
1,34,95,244
1,34,95,244
1,32,95,52
1,32,95,48
1,32,95,148
1,32,95,52
1,32,95,48
1,32,95,148
1,32,95,52
1,32,95,48
1,32,95,148
1,32,95,244
1,32,95,244
1,32,95,52
1,32,95,48
1,32,95,148
1,32,95,52
1,32,95,48
1,32,95,148
1,36,95,52
1,36,95,48
1,36,95,148
1,32,95,2356
1,32,95,48
1,32,95,148
1,32,95,244
1,32,95,244
1,36,95,52
1,36,95,48
1,36,95,148
1,36,95,244
1,36,95,244
1,34,95,52
1,34,95,48
1,34,95,148
1,34,95,244
1,34,95,244
1,29,95,52
1,29,95,48
1,29,95,148
1,29,95,52
1,29,95,48
1,29,95,148
1,29,95,52
1,29,95,48
1,29,95,148
1,29,95,244
1,29,95,244
1,32,95,52
1,32,95,48
1,32,95,148
1,32,95,244
1,32,95,244
1,36,95,52
1,36,95,48
1,36,95,148
1,36,95,244
1,36,95,244
1,34,95,52
1,34,95,48
1,34,95,148
1,34,95,244
1,34,95,244
1,29,95,52
1,29,95,48
1,29,95,148
1,29,95,52
1,29,95,48
1,29,95,148
1,29,95,52
1,29,95,48
1,29,95,148
1,29,95,244
1,29,95,244
1,32,95,52
1,32,95,48
1,32,95,148
1,32,95,244
1,32,95,244
1,36,95,52
1,36,95,48
1,36,95,148
1,36,95,244
1,36,95,244
1,34,95,52
1,34,95,48
1,34,95,148
1,34,95,244
1,34,95,244
1,29,95,52
1,29,95,48
1,29,95,148
1,29,95,52
1,29,95,48
1,29,95,148
1,29,95,52
1,29,95,48
1,29,95,148
1,29,95,244
1,29,95,244
1,32,95,52
1,32,95,48
1,32,95,148
1,32,95,244
1,32,95,244
1,36,95,52
1,36,95,48
1,36,95,148
1,36,95,244
1,36,95,244
1,34,95,52
1,34,95,48
1,34,95,148
1,34,95,244
1,34,95,244
1,29,95,52
1,29,95,48
1,29,95,148
1,29,95,52
1,29,95,48
1,29,95,148
1,29,95,52
1,29,95,48
1,29,95,148
1,29,95,244
1,29,95,244
1,32,95,12340
1,32,95,48
1,32,95,148
1,32,95,244
1,32,95,244
1,36,95,52
1,36,95,48
1,36,95,148
1,36,95,244
1,36,95,244
1,34,95,52
1,34,95,48
1,34,95,148
1,34,95,244
1,34,95,244
1,29,95,52
1,29,95,48
1,29,95,148
1,29,95,52
1,29,95,48
1,29,95,148
1,29,95,52
1,29,95,48
1,29,95,148
1,29,95,244
1,29,95,244
1,32,95,52
1,32,95,48
1,32,95,148
1,32,95,244
1,32,95,244
1,36,95,52
1,36,95,48
1,36,95,148
1,36,95,244
1,36,95,244
1,34,95,52
1,34,95,48
1,34,95,148
1,34,95,244
1,34,95,244
1,29,95,52
1,29,95,48
1,29,95,148
1,29,95,52
1,29,95,48
1,29,95,148
1,29,95,52
1,29,95,48
1,29,95,148
1,29,95,244
1,29,95,244
1,32,95,52
1,32,95,48
1,32,95,148
1,32,95,244
1,32,95,244
1,36,95,52
1,36,95,48
1,36,95,148
1,36,95,244
1,36,95,244
1,34,95,52
1,34,95,48
1,34,95,148
1,34,95,244
1,34,95,244
1,29,95,52
1,29,95,48
1,29,95,148
1,29,95,52
1,29,95,48
1,29,95,148
1,29,95,52
1,29,95,48
1,29,95,148
1,29,95,244
1,29,95,244
1,32,95,52
1,32,95,48
1,32,95,148
1,32,95,244
1,32,95,244
1,36,95,52
1,36,95,48
1,36,95,148
1,36,95,244
1,36,95,244
1,34,95,52
1,34,95,48
1,34,95,148
1,34,95,244
1,34,95,244
1,29,95,52
1,29,95,48
1,29,95,148
1,29,95,52
1,29,95,48
1,29,95,148
1,29,95,52
1,29,95,48
1,29,95,148
1,29,95,244
1,29,95,244
1,32,95,1588
1,32,95,48
1,32,95,148
1,32,95,244
1,32,95,244
1,36,95,52
1,36,95,48
1,36,95,148
1,36,95,244
1,36,95,244
1,34,95,52
1,34,95,48
1,34,95,148
1,34,95,244
1,34,95,244
1,29,95,52
1,29,95,48
1,29,95,148
1,29,95,52
1,29,95,48
1,29,95,148
1,29,95,52
1,29,95,48
1,29,95,148
1,29,95,244
1,29,95,244
1,32,95,52
1,32,95,48
1,32,95,148
1,32,95,244
1,32,95,244
1,36,95,52
1,36,95,48
1,36,95,148
1,36,95,244
1,36,95,244
1,34,95,52
1,34,95,48
1,34,95,148
1,34,95,244
1,34,95,244
1,29,95,52
1,29,95,48
1,29,95,148
1,29,95,52
1,29,95,48
1,29,95,148
1,29,95,52
1,29,95,48
1,29,95,148
1,29,95,244
1,29,95,244
1,32,95,52
1,32,95,48
1,32,95,148
1,32,95,244
1,32,95,244
1,36,95,52
1,36,95,48
1,36,95,148
1,36,95,244
1,36,95,244
1,34,95,52
1,34,95,48
1,34,95,148
1,34,95,244
1,34,95,244
1,29,95,52
1,29,95,48
1,29,95,148
1,29,95,52
1,29,95,48
1,29,95,148
1,29,95,52
1,29,95,48
1,29,95,148
1,29,95,244
1,29,95,244
1,32,95,52
1,32,95,48
1,32,95,148
1,32,95,244
1,32,95,244
1,36,95,52
1,36,95,48
1,36,95,148
1,36,95,244
1,36,95,244
1,34,95,52
1,34,95,48
1,34,95,148
1,34,95,244
1,34,95,244
1,29,95,52
1,29,95,48
1,29,95,148
1,29,95,52
1,29,95,48
1,29,95,148
1,32,95,1588
1,32,95,48
1,32,95,148
1,32,95,244
1,32,95,244
1,36,95,52
1,36,95,48
1,36,95,148
1,36,95,244
1,36,95,244
1,34,95,52
1,34,95,48
1,34,95,148
1,34,95,244
1,34,95,244
1,29,95,52
1,29,95,48
1,29,95,148
1,29,95,52
1,29,95,48
1,29,95,148
1,29,95,52
1,29,95,48
1,29,95,148
1,29,95,244
1,29,95,244
1,32,95,52
1,32,95,48
1,32,95,148
1,32,95,244
1,32,95,244
1,36,95,52
1,36,95,48
1,36,95,148
1,36,95,244
1,36,95,244
1,34,95,52
1,34,95,48
1,34,95,148
1,34,95,244
1,34,95,244
1,29,95,52
1,29,95,48
1,29,95,148
1,29,95,52
1,29,95,48
1,29,95,148
1,29,95,52
1,29,95,48
1,29,95,148
1,29,95,244
1,29,95,244
1,36,92,52
2,58,100,17988
2,63,100,102
2,65,100,102
2,63,100,102
2,68,100,6
2,67,100,102
2,65,100,102
2,67,100,102
2,63,100,6
2,58,100,102
2,63,100,102
2,65,100,102
2,63,100,102
2,68,100,6
2,67,100,102
2,65,100,102
2,67,100,102
2,63,100,6
2,58,100,102
2,63,100,102
2,65,100,102
2,63,100,102
2,68,100,6
2,67,100,102
2,65,100,102
2,67,100,102
2,63,100,6
2,58,100,102
2,63,100,102
2,65,100,102
2,63,100,102
2,68,100,6
2,67,100,102
2,65,100,102
2,67,100,102
2,63,100,6
2,58,100,102
2,63,100,102
2,65,100,102
2,63,100,102
2,68,100,6
2,67,100,102
2,65,100,102
2,67,100,102
2,63,100,6
2,58,100,102
2,63,100,102
2,65,100,102
2,63,100,102
2,68,100,6
2,67,100,102
2,65,100,102
2,67,100,102
2,63,100,6
2,58,100,102
2,63,100,102
2,65,100,102
2,63,100,102
2,68,100,6
2,67,100,102
2,65,100,102
2,67,100,102
2,63,100,6
2,58,100,102
2,58,100,1446
2,63,100,102
2,65,100,102
2,63,100,102
2,68,100,6
2,67,100,102
2,65,100,102
2,67,100,102
2,63,100,6
2,58,100,102
2,63,100,102
2,65,100,102
2,63,100,102
2,68,100,6
2,67,100,102
2,65,100,102
2,67,100,102
2,63,100,6
2,58,100,102
2,63,100,102
2,65,100,102
2,63,100,102
2,68,100,6
2,67,100,102
2,65,100,102
2,67,100,102
2,63,100,6
2,56,100,102
2,63,100,102
2,65,100,102
2,63,100,102
2,68,100,6
2,67,100,102
2,65,100,102
2,67,100,102
2,63,100,6
2,56,100,102
2,63,100,102
2,65,100,102
2,63,100,102
2,68,100,6
2,67,100,102
2,65,100,102
2,67,100,102
2,63,100,6
2,56,100,102
2,63,100,102
2,65,100,102
2,63,100,102
2,68,100,6
2,67,100,102
2,65,100,102
2,67,100,102
2,63,100,6
2,60,100,102
2,63,100,102
2,65,100,102
2,63,100,102
2,68,100,6
2,67,100,102
2,65,100,102
2,67,100,102
2,63,100,6
2,60,100,102
2,63,100,102
2,65,100,102
2,63,100,102
2,68,100,6
2,67,100,102
2,65,100,102
2,67,100,102
2,63,100,6
2,56,100,24678
2,63,100,102
2,65,100,102
2,63,100,102
2,68,100,6
2,67,100,102
2,65,100,102
2,67,100,102
2,63,100,6
2,60,100,102
2,63,100,102
2,65,100,102
2,63,100,102
2,68,100,6
2,67,100,102
2,65,100,102
2,67,100,102
2,63,100,6
2,58,100,102
2,63,100,102
2,65,100,102
2,63,100,102
2,68,100,6
2,67,100,102
2,65,100,102
2,67,100,102
2,63,100,6
2,53,100,102
2,63,100,102
2,65,100,102
2,63,100,102
2,68,100,6
2,67,100,102
2,65,100,102
2,67,100,102
2,63,100,6
2,53,100,102
2,63,100,102
2,65,100,102
2,63,100,102
2,68,100,6
2,67,100,102
2,65,100,102
2,67,100,102
2,63,100,6
2,56,100,102
2,63,100,102
2,65,100,102
2,63,100,102
2,68,100,6
2,67,100,102
2,65,100,102
2,67,100,102
2,63,100,6
2,60,100,102
2,63,100,102
2,65,100,102
2,63,100,102
2,68,100,6
2,67,100,102
2,65,100,102
2,67,100,102
2,63,100,6
2,58,100,102
2,63,100,102
2,65,100,102
2,63,100,102
2,68,100,6
2,67,100,102
2,65,100,102
2,67,100,102
2,63,100,6
2,53,100,102
2,63,100,102
2,65,100,102
2,63,100,102
2,68,100,6
2,67,100,102
2,65,100,102
2,67,100,102
2,63,100,6
2,53,100,102
2,63,100,102
2,65,100,102
2,63,100,102
2,68,100,6
2,67,100,102
2,65,100,102
2,67,100,102
2,63,100,6
2,56,100,36966
2,63,100,102
2,65,100,102
2,63,100,102
2,68,100,6
2,67,100,102
2,65,100,102
2,67,100,102
2,63,100,6
2,60,100,102
2,63,100,102
2,65,100,102
2,63,100,102
2,68,100,6
2,67,100,102
2,65,100,102
2,67,100,102
2,63,100,6
2,58,100,102
2,63,100,102
2,65,100,102
2,63,100,102
2,68,100,6
2,67,100,102
2,65,100,102
2,67,100,102
2,63,100,6
2,53,100,102
2,63,100,102
2,65,100,102
2,63,100,102
2,68,100,6
2,67,100,102
2,65,100,102
2,67,100,102
2,63,100,6
2,53,100,102
2,63,100,102
2,65,100,102
2,63,100,102
2,68,100,6
2,67,100,102
2,65,100,102
2,67,100,102
2,63,100,6
2,56,100,102
2,63,100,102
2,65,100,102
2,63,100,102
2,68,100,6
2,67,100,102
2,65,100,102
2,67,100,102
2,63,100,6
2,60,100,102
2,63,100,102
2,65,100,102
2,63,100,102
2,68,100,6
2,67,100,102
2,65,100,102
2,67,100,102
2,63,100,6
2,58,100,102
2,63,100,102
2,65,100,102
2,63,100,102
2,68,100,6
2,67,100,102
2,65,100,102
2,67,100,102
2,63,100,6
2,53,100,102
2,63,100,102
2,65,100,102
2,63,100,102
2,68,100,6
2,67,100,102
2,65,100,102
2,67,100,102
2,63,100,6
2,53,100,102
2,63,100,102
2,65,100,102
2,63,100,102
2,68,100,6
2,67,100,102
2,65,100,102
2,67,100,102
2,63,100,6
2,56,100,102
2,63,100,102
2,65,100,102
2,63,100,102
2,68,100,6
2,67,100,102
2,65,100,102
2,67,100,102
2,63,100,6
2,60,100,102
2,63,100,102
2,65,100,102
2,63,100,102
2,68,100,6
2,67,100,102
2,65,100,102
2,67,100,102
2,63,100,6
