track,note,velocity,time
3,76,122,465
3,76,0,30
3,74,122,0
3,74,0,30
3,72,105,0
3,72,0,30
3,74,115,0
3,74,0,30
3,76,122,0
3,76,0,840
3,74,122,0
3,74,0,30
3,72,122,0
3,72,0,30
3,70,110,0
3,70,0,30
3,72,110,0
3,72,0,30
3,74,122,0
3,74,0,210
3,74,115,30
3,76,122,0
3,74,0,30
3,76,0,30
3,72,122,0
3,72,0,510
3,76,122,30
3,76,0,30
3,74,122,0
3,74,0,30
3,72,115,0
3,72,0,30
3,74,110,0
3,74,0,30
3,76,115,0
3,76,0,720
3,72,122,0
3,72,0,60
3,77,122,0
3,77,0,30
3,79,96,30
3,79,0,90
3,79,122,30
3,79,0,60
3,76,127,0
3,76,0,180
3,69,122,0
3,69,0,60
3,72,127,0
3,72,0,510
3,76,122,3510
3,76,0,60
3,72,122,60
3,72,0,60
3,69,127,0
3,69,0,60
3,67,127,60
3,67,0,360
3,53,122,3540
3,50,122,0
3,57,122,0
3,60,105,0
3,60,0,30
3,53,0,0
3,50,0,0
3,57,0,0
3,60,105,0
3,53,122,0
3,57,122,0
3,50,115,0
3,50,0,30
3,60,0,0
3,53,0,0
3,57,0,0
3,60,83,0
3,50,86,0
3,57,96,0
3,53,96,0
3,53,0,30
3,60,0,0
3,50,0,0
3,57,0,0
3,57,92,0
3,60,80,0
3,50,86,0
3,53,92,0
3,53,0,30
3,57,0,0
3,60,0,0
3,50,0,0
3,50,115,0
3,60,110,0
3,53,122,0
3,57,115,0
3,57,0,30
3,50,0,0
3,60,0,0
3,53,0,0
3,64,122,270
3,57,115,0
3,60,122,0
3,60,0,30
3,57,0,0
3,64,0,0
3,64,115,90
3,57,115,0
3,60,122,0
3,60,0,30
3,57,0,0
3,64,0,0
3,59,122,90
3,62,122,0
3,55,115,0
3,55,0,270
3,62,0,0
3,59,0,0
3,57,122,30
3,53,122,0
3,60,100,0
3,50,122,0
3,50,0,30
3,57,0,0
3,53,0,0
3,60,0,0
3,53,105,0
3,50,92,0
3,60,92,0
3,57,100,0
3,57,0,30
3,53,0,0
3,50,0,0
3,60,0,0
3,60,77,0
3,57,92,0
3,50,80,0
3,53,89,0
3,53,0,30
3,60,0,0
3,57,0,0
3,50,0,0
3,60,75,0
3,50,77,0
3,57,92,0
3,53,89,0
3,53,0,30
3,60,0,0
3,50,0,0
3,57,0,0
3,60,96,0
3,50,105,0
3,57,110,0
3,53,115,0
3,53,0,30
3,60,0,0
3,50,0,0
3,57,0,0
3,72,122,270
3,67,105,0
3,69,115,0
3,74,122,0
3,79,110,0
3,79,0,30
3,69,0,0
3,72,0,0
3,67,0,0
3,74,0,0
3,72,127,90
3,69,122,0
3,67,110,0
3,74,127,0
3,79,115,0
3,79,0,30
3,67,0,0
3,72,0,0
3,69,0,0
3,74,0,0
3,67,122,90
3,72,127,0
3,74,127,0
3,79,115,0
3,79,0,300
3,67,0,0
3,72,0,0
3,74,0,0
3,76,122,0
3,76,0,30
3,74,122,0
3,74,0,30
3,72,105,0
3,72,0,30
3,74,115,0
3,74,0,30
3,76,122,0
3,76,0,840
3,74,122,0
3,74,0,30
3,72,122,0
3,72,0,30
3,70,110,0
3,70,0,30
3,72,110,0
3,72,0,30
3,74,122,0
3,74,0,210
3,74,115,30
3,76,122,0
3,74,0,30
3,76,0,30
3,72,122,0
3,72,0,510
3,76,122,30
3,76,0,30
3,74,122,0
3,74,0,30
3,72,115,0
3,72,0,30
3,74,110,0
3,74,0,30
3,76,115,0
3,76,0,720
3,72,122,0
3,72,0,60
3,77,122,0
3,77,0,30
3,79,96,30
3,79,0,90
3,79,122,30
3,79,0,60
3,76,127,0
3,76,0,180
3,69,122,0
3,69,0,60
3,72,127,0
3,72,0,510
3,53,122,5790
3,50,122,0
3,57,122,0
3,60,105,0
3,60,0,30
3,53,0,0
3,50,0,0
3,57,0,0
3,60,105,0
3,53,122,0
3,57,122,0
3,50,115,0
3,50,0,30
3,60,0,0
3,53,0,0
3,57,0,0
3,60,83,0
3,50,86,0
3,57,96,0
3,53,96,0
3,53,0,30
3,60,0,0
3,50,0,0
3,57,0,0
3,57,92,0
3,60,80,0
3,50,86,0
3,53,92,0
3,53,0,30
3,57,0,0
3,60,0,0
3,50,0,0
3,50,115,0
3,60,110,0
3,53,122,0
3,57,115,0
3,57,0,30
3,50,0,0
3,60,0,0
3,53,0,0
3,64,122,270
3,57,115,0
3,60,122,0
3,60,0,30
3,57,0,0
3,64,0,0
3,64,115,90
3,57,115,0
3,60,122,0
3,60,0,30
3,57,0,0
3,64,0,0
3,59,122,90
3,62,122,0
3,55,115,0
3,55,0,270
3,62,0,0
3,59,0,0
3,57,122,30
3,53,122,0
3,60,100,0
3,50,122,0
3,50,0,30
3,57,0,0
3,53,0,0
3,60,0,0
3,53,105,0
3,50,92,0
3,60,92,0
3,57,100,0
3,57,0,30
3,53,0,0
3,50,0,0
3,60,0,0
3,60,77,0
3,57,92,0
3,50,80,0
3,53,89,0
3,53,0,30
3,60,0,0
3,57,0,0
3,50,0,0
3,60,75,0
3,50,77,0
3,57,92,0
3,53,89,0
3,53,0,30
3,60,0,0
3,50,0,0
3,57,0,0
3,60,96,0
3,50,105,0
3,57,110,0
3,53,115,0
3,53,0,30
3,60,0,0
3,50,0,0
3,57,0,0
3,72,122,270
3,67,105,0
3,69,115,0
3,74,122,0
3,79,110,0
3,79,0,30
3,69,0,0
3,72,0,0
3,67,0,0
3,74,0,0
3,72,127,90
3,69,122,0
3,67,110,0
3,74,127,0
3,79,115,0
3,79,0,30
3,67,0,0
3,72,0,0
3,69,0,0
3,74,0,0
3,67,122,90
3,72,127,0
3,74,127,0
3,79,115,0
3,79,0,300
3,67,0,0
3,72,0,0
3,74,0,0
3,76,122,0
3,76,0,30
3,74,122,0
3,74,0,30
3,72,105,0
3,72,0,30
3,74,115,0
3,74,0,30
3,76,122,0
3,76,0,840
3,74,122,0
3,74,0,30
3,72,122,0
3,72,0,30
3,70,110,0
3,70,0,30
3,72,110,0
3,72,0,30
3,74,122,0
3,74,0,210
3,74,115,30
3,76,122,0
3,74,0,30
3,76,0,30
3,72,122,0
3,72,0,510
3,76,122,30
3,76,0,30
3,74,122,0
3,74,0,30
3,72,115,0
3,72,0,30
3,74,110,0
3,74,0,30
3,76,115,0
3,76,0,720
3,72,122,0
3,72,0,60
3,77,122,0
3,77,0,30
3,79,96,30
3,79,0,90
3,79,122,30
3,79,0,60
3,76,127,0
3,76,0,180
3,69,122,0
3,69,0,60
3,72,127,0
3,72,0,510
3,53,122,3870
3,50,122,0
3,57,122,0
3,60,105,0
3,60,0,30
3,53,0,0
3,50,0,0
3,57,0,0
3,60,105,0
3,53,122,0
3,57,122,0
3,50,115,0
3,50,0,30
3,60,0,0
3,53,0,0
3,57,0,0
3,60,83,0
3,50,86,0
3,57,96,0
3,53,96,0
3,53,0,30
3,60,0,0
3,50,0,0
3,57,0,0
3,57,92,0
3,60,80,0
3,50,86,0
3,53,92,0
3,53,0,30
3,57,0,0
3,60,0,0
3,50,0,0
3,50,115,0
3,60,110,0
3,53,122,0
3,57,115,0
3,57,0,30
3,50,0,0
3,60,0,0
3,53,0,0
3,64,122,270
3,57,115,0
3,60,122,0
3,60,0,30
3,57,0,0
3,64,0,0
3,64,115,90
3,57,115,0
3,60,122,0
3,60,0,30
3,57,0,0
3,64,0,0
3,59,122,90
3,62,122,0
3,55,115,0
3,55,0,270
3,62,0,0
3,59,0,0
3,57,122,30
3,53,122,0
3,60,100,0
3,50,122,0
3,50,0,30
3,57,0,0
3,53,0,0
3,60,0,0
3,53,105,0
3,50,92,0
3,60,92,0
3,57,100,0
3,57,0,30
3,53,0,0
3,50,0,0
3,60,0,0
3,60,77,0
3,57,92,0
3,50,80,0
3,53,89,0
3,53,0,30
3,60,0,0
3,57,0,0
3,50,0,0
3,60,75,0
3,50,77,0
3,57,92,0
3,53,89,0
3,53,0,30
3,60,0,0
3,50,0,0
3,57,0,0
3,60,96,0
3,50,105,0
3,57,110,0
3,53,115,0
3,53,0,30
3,60,0,0
3,50,0,0
3,57,0,0
3,72,122,270
3,67,105,0
3,69,115,0
3,74,122,0
3,79,110,0
3,79,0,30
3,69,0,0
3,72,0,0
3,67,0,0
3,74,0,0
3,72,127,90
3,69,122,0
3,67,110,0
3,74,127,0
3,79,115,0
3,79,0,30
3,67,0,0
3,72,0,0
3,69,0,0
3,74,0,0
3,67,122,90
3,72,127,0
3,74,127,0
3,79,115,0
3,79,0,300
3,67,0,0
3,72,0,0
3,74,0,0
3,76,122,0
3,76,0,30
3,74,122,0
3,74,0,30
3,72,105,0
3,72,0,30
3,74,115,0
3,74,0,30
3,76,122,0
3,76,0,840
3,74,122,0
3,74,0,30
3,72,122,0
3,72,0,30
3,70,110,0
3,70,0,30
3,72,110,0
3,72,0,30
3,74,122,0
3,74,0,210
3,74,115,30
3,76,122,0
3,74,0,30
3,76,0,30
3,72,122,0
3,72,0,510
3,76,122,30
3,76,0,30
3,74,122,0
3,74,0,30
3,72,115,0
3,72,0,30
3,74,110,0
3,74,0,30
3,76,115,0
3,76,0,720
3,72,122,0
3,72,0,60
3,77,122,0
3,77,0,30
3,79,96,30
3,79,0,90
3,79,122,30
3,79,0,60
3,76,127,0
3,76,0,180
3,69,122,0
3,69,0,60
3,72,127,0
3,72,0,510
3,76,122,30
3,76,0,30
3,74,122,0
3,74,0,30
3,72,105,0
3,72,0,30
3,74,115,0
3,74,0,30
3,76,122,0
3,76,0,840
3,74,122,0
3,74,0,30
3,72,122,0
3,72,0,30
3,70,110,0
3,70,0,30
3,72,110,0
3,72,0,30
3,74,122,0
3,74,0,210
3,74,115,30
3,76,122,0
3,74,0,30
3,76,0,30
3,72,122,0
3,72,0,510
3,76,122,30
3,76,0,30
3,74,122,0
3,74,0,30
3,72,115,0
3,72,0,30
3,74,110,0
3,74,0,30
3,76,115,0
3,76,0,720
3,72,122,0
3,72,0,60
3,77,122,0
3,77,0,30
3,79,96,30
3,79,0,90
3,79,122,30
3,79,0,60
3,76,127,0
3,76,0,180
3,69,122,0
3,69,0,60
3,72,127,0
3,72,0,510
3,76,122,30
3,76,0,30
3,74,122,0
3,74,0,30
3,72,105,0
3,72,0,30
3,74,115,0
3,74,0,30
3,76,122,0
3,76,0,840
3,74,122,0
3,74,0,30
3,72,122,0
3,72,0,30
3,70,110,0
3,70,0,30
3,72,110,0
3,72,0,30
3,74,122,0
3,74,0,210
3,74,115,30
3,76,122,0
3,74,0,30
3,76,0,30
3,72,122,0
3,72,0,510
3,76,122,30
3,76,0,30
3,74,122,0
3,74,0,30
3,72,115,0
3,72,0,30
3,74,110,0
3,74,0,30
3,76,115,0
3,76,0,720
3,72,122,0
3,72,0,60
3,77,122,0
3,77,0,30
3,79,96,30
3,79,0,90
3,79,122,30
3,79,0,60
3,76,127,0
3,76,0,180
3,69,122,0
3,69,0,60
3,72,127,0
3,72,0,510
4,64,122,430
4,64,0,30
4,62,122,0
4,62,0,30
4,60,105,0
4,60,0,30
4,62,115,0
4,62,0,30
4,64,122,0
4,64,0,840
4,62,122,0
4,62,0,30
4,60,122,0
4,60,0,30
4,58,110,0
4,58,0,30
4,60,110,0
4,60,0,30
4,62,122,0
4,62,0,210
4,62,115,30
4,64,122,0
4,62,0,30
4,64,0,30
4,60,122,0
4,60,0,510
4,64,122,30
4,64,0,30
4,62,122,0
4,62,0,30
4,60,115,0
4,60,0,30
4,62,110,0
4,62,0,30
4,64,115,0
4,64,0,720
4,60,122,0
4,60,0,60
4,65,122,0
4,65,0,30
4,67,96,30
4,67,0,90
4,67,122,30
4,67,0,60
4,64,127,0
4,64,0,180
4,57,122,0
4,57,0,60
4,60,127,0
4,60,0,510
4,64,122,3510
4,64,0,60
4,60,122,60
4,60,0,60
4,57,127,0
4,57,0,60
4,55,127,60
4,55,0,360
5,64,96,450
5,55,105,0
5,60,100,0
5,60,0,240
5,55,0,30
5,64,0,0
5,64,122,30
5,55,122,0
5,60,122,0
5,60,0,90
5,55,0,0
5,64,0,0
5,59,122,30
5,55,115,0
5,62,122,0
5,62,0,330
5,55,0,0
5,59,0,0
5,55,122,30
5,59,122,0
5,62,115,0
5,62,0,90
5,59,0,0
5,55,0,0
5,62,92,30
5,53,115,0
5,58,122,0
5,58,0,330
5,53,0,0
5,62,0,0
5,62,122,30
5,58,122,0
5,53,115,0
5,53,0,90
5,58,0,0
5,62,0,0
5,53,110,30
5,60,110,0
5,57,122,0
5,57,0,270
5,60,0,0
5,53,0,0
5,53,92,30
5,60,86,0
5,60,0,0
5,57,105,0
5,57,0,30
5,53,0,0
5,62,122,30
5,55,122,0
5,59,127,0
5,59,0,150
5,55,0,0
5,62,0,0
5,64,105,30
5,60,115,0
5,55,115,0
5,55,0,270
5,60,0,0
5,64,0,0
5,55,110,30
5,64,122,0
5,60,115,0
5,60,0,90
5,64,0,0
5,55,0,0
5,59,122,30
5,55,105,0
5,62,115,0
5,62,0,330
5,55,0,0
5,59,0,0
5,55,100,30
5,59,122,0
5,62,110,0
5,62,0,90
5,59,0,0
5,55,0,0
5,58,122,30
5,53,115,0
5,62,115,0
5,62,0,330
5,53,0,0
5,58,0,0
5,58,122,30
5,62,115,0
5,53,115,0
5,53,0,90
5,62,0,0
5,58,0,0
5,57,122,30
5,60,115,0
5,53,105,0
5,53,0,270
5,60,0,0
5,57,0,0
5,60,100,30
5,53,100,0
5,57,110,0
5,57,0,30
5,53,0,0
5,60,0,0
5,55,122,30
5,62,122,0
5,59,122,0
5,59,0,150
5,62,0,0
5,55,0,0
5,64,96,30
5,55,105,0
5,60,100,0
5,60,0,240
5,55,0,30
5,64,0,0
5,64,122,30
5,55,122,0
5,60,122,0
5,60,0,90
5,55,0,0
5,64,0,0
5,59,122,30
5,55,115,0
5,62,122,0
5,62,0,330
5,55,0,0
5,59,0,0
5,55,122,30
5,59,122,0
5,62,115,0
5,62,0,90
5,59,0,0
5,55,0,0
5,62,92,30
5,53,115,0
5,58,122,0
5,58,0,330
5,53,0,0
5,62,0,0
5,62,122,30
5,58,122,0
5,53,115,0
5,53,0,90
5,58,0,0
5,62,0,0
5,53,110,30
5,60,110,0
5,57,122,0
5,57,0,270
5,60,0,0
5,53,0,0
5,53,92,30
5,60,86,0
5,60,0,0
5,57,105,0
5,57,0,30
5,53,0,0
5,62,122,30
5,55,122,0
5,59,127,0
5,59,0,150
5,55,0,0
5,62,0,0
5,64,105,30
5,60,115,0
5,55,115,0
5,55,0,270
5,60,0,0
5,64,0,0
5,55,110,30
5,64,122,0
5,60,115,0
5,60,0,90
5,64,0,0
5,55,0,0
5,59,122,30
5,55,105,0
5,62,115,0
5,62,0,330
5,55,0,0
5,59,0,0
5,55,100,30
5,59,122,0
5,62,110,0
5,62,0,90
5,59,0,0
5,55,0,0
5,58,122,30
5,53,115,0
5,62,115,0
5,62,0,330
5,53,0,0
5,58,0,0
5,58,122,30
5,62,115,0
5,53,115,0
5,53,0,90
5,62,0,0
5,58,0,0
5,57,122,30
5,60,115,0
5,53,105,0
5,53,0,270
5,60,0,0
5,57,0,0
5,60,100,30
5,53,100,0
5,57,110,0
5,57,0,30
5,53,0,0
5,60,0,0
5,55,122,30
5,62,122,0
5,59,122,0
5,59,0,150
5,62,0,0
5,55,0,0
5,64,96,30
5,55,105,0
5,60,100,0
5,60,0,240
5,55,0,30
5,64,0,0
5,64,122,30
5,55,122,0
5,60,122,0
5,60,0,90
5,55,0,0
5,64,0,0
5,59,122,30
5,55,115,0
5,62,122,0
5,62,0,330
5,55,0,0
5,59,0,0
5,55,122,30
5,59,122,0
5,62,115,0
5,62,0,90
5,59,0,0
5,55,0,0
5,62,92,30
5,53,115,0
5,58,122,0
5,58,0,330
5,53,0,0
5,62,0,0
5,62,122,30
5,58,122,0
5,53,115,0
5,53,0,90
5,58,0,0
5,62,0,0
5,53,110,30
5,60,110,0
5,57,122,0
5,57,0,270
