track,note,velocity,time
0,50,81,741
0,43,81,1
0,55,74,1
0,59,81,0
0,59,0,328
0,55,0,17
0,50,0,6
0,62,77,26
0,50,81,110
0,55,81,0
0,59,81,2
0,66,89,11
0,67,82,115
0,62,0,29
0,62,95,99
0,59,0,69
0,50,0,46
0,55,0,3
0,55,66,112
0,43,0,2
0,55,0,71
0,43,77,37
0,52,95,13
0,55,100,2
0,60,95,4
0,52,0,20
0,43,0,97
0,52,65,11
0,60,0,12
0,55,0,44
0,52,0,44
0,43,82,22
0,50,84,18
0,55,92,0
0,59,92,0
0,50,0,49
0,59,0,63
0,55,0,12
0,50,74,3
0,54,97,118
0,54,0,106
0,55,95,27
0,50,0,149
0,50,82,81
0,55,0,33
0,50,0,155
0,55,89,52
0,74,76,7
0,43,0,27
0,55,0,64
0,78,95,18
0,43,60,108
0,79,76,8
0,74,0,16
0,91,40,97
0,48,80,3
0,52,104,0
0,55,92,0
0,74,86,0
0,43,0,27
0,78,0,6
0,71,77,94
0,38,89,20
0,76,82,13
0,55,0,23
0,74,0,3
0,52,0,5
0,48,0,9
0,38,0,38
0,74,84,53
0,67,0,73
0,66,0,10
0,62,0,8
0,31,95,13
0,55,86,0
0,50,82,1
0,59,84,1
0,59,0,85
0,55,0,8
0,50,0,5
0,55,82,140
0,50,75,1
0,59,75,0
0,59,0,108
0,62,69,13
0,55,0,8
0,50,0,12
0,55,63,79
0,66,80,20
0,55,0,47
0,43,74,51
0,76,0,15
0,79,0,4
0,71,0,3
0,74,0,0
0,67,82,2
0,62,0,28
0,52,95,40
0,55,92,3
0,60,81,1
0,62,84,18
0,52,0,36
0,43,0,102
0,60,0,1
0,52,65,13
0,55,0,65
0,52,0,26
0,43,77,33
0,50,97,16
0,55,104,0
0,59,89,0
0,50,0,102
0,55,0,16
0,59,0,0
0,50,80,109
0,54,95,20
0,50,0,10
0,55,82,20
0,54,0,50
0,48,95,66
0,55,0,63
0,55,100,128
0,66,0,56
0,67,0,8
0,62,0,10
0,48,0,1
0,43,0,24
0,55,0,7
0,31,0,21
0,48,92,219
0,52,92,0
0,55,95,0
0,48,0,68
0,52,0,14
0,55,0,10
0,38,95,11
0,38,0,67
0,62,48,163
0,67,52,0
0,62,86,22
0,55,82,6
0,59,80,0
0,43,79,2
0,55,0,244
0,59,0,35
0,62,0,12
0,55,69,57
0,55,0,72
0,59,77,43
0,59,0,64
0,67,82,53
0,43,0,48
0,67,0,12
0,67,100,66
0,43,84,4
0,62,92,0
0,60,95,2
0,67,0,99
0,55,76,2
0,60,0,43
0,43,0,1
0,62,0,24
0,43,74,52
0,55,0,56
0,69,46,34
0,59,95,29
0,62,92,0
0,67,0,6
0,43,0,119
0,55,63,119
0,62,0,6
0,59,0,8
0,55,0,56
0,43,69,45
0,43,0,70
0,66,59,33
0,69,0,18
0,54,74,2
0,50,77,6
0,57,76,0
0,38,75,1
0,54,0,210
0,50,0,28
0,57,0,33
0,59,86,194
0,59,0,102
0,60,77,19
0,38,0,6
0,60,0,86
0,38,86,31
0,50,84,6
0,55,81,0
0,50,76,117
0,55,0,17
0,50,0,13
0,50,0,0
0,54,95,92
0,38,0,44
0,38,29,104
0,54,0,6
0,38,0,12
0,55,100,74
0,55,0,109
0,38,73,103
0,38,0,73
0,67,52,39
0,66,0,7
0,55,81,8
0,59,80,3
0,50,80,3
0,43,84,4
0,50,0,42
0,55,0,19
0,59,0,6
0,62,80,535
0,59,80,1
0,67,80,121
0,43,0,27
0,62,0,23
0,59,0,21
0,67,0,6
0,43,69,44
0,50,77,118
0,54,95,121
0,50,0,46
0,54,0,31
0,55,95,46
0,43,0,17
0,55,0,66
0,43,69,38
0,43,0,22
0,67,0,11
0,62,0,21
0,60,65,25
0,48,78,1
0,48,77,44
0,60,0,12
0,48,0,2
0,48,0,38
0,64,68,28
0,52,89,3
0,52,89,40
0,64,0,6
0,52,0,12
0,52,0,48
0,48,78,20
0,60,69,4
0,38,77,28
0,60,0,26
0,48,0,13
0,50,78,62
0,62,75,8
0,54,77,13
0,26,94,2
0,45,81,0
0,50,81,2
0,26,0,46
0,50,0,2
0,38,0,2
0,45,0,0
0,54,0,32
0,86,89,642
0,81,69,87
0,86,0,26
0,78,66,34
0,81,0,39
0,78,0,43
0,74,80,5
0,74,0,44
0,62,0,411
0,50,0,3
0,55,46,24
0,59,51,0
0,62,68,0
0,59,97,1
0,50,91,11
0,55,87,0
0,59,84,0
0,91,0,8
0,43,88,4
0,43,0,91
0,31,86,239
0,59,0,43
0,59,96,137
0,60,94,141
0,59,0,29
0,50,0,104
0,59,0,74
0,55,0,24
0,59,93,8
0,50,53,9
0,60,0,23
0,50,0,69
0,57,95,138
0,59,0,2
0,55,93,238
0,57,0,2
0,31,0,8
0,59,94,232
0,55,0,5
0,50,95,2
0,55,93,2
0,59,84,0
0,43,82,7
0,43,0,115
0,59,0,96
0,31,86,111
0,59,96,50
0,50,0,106
0,55,0,38
0,59,0,31
0,60,95,66
0,59,0,16
0,55,76,209
0,59,95,16
0,60,0,48
0,55,0,5
0,43,74,35
0,59,101,141
0,67,99,0
0,57,95,10
0,59,0,3
0,67,0,118
0,59,0,13
0,43,0,52
0,31,0,27
0,55,81,14
0,62,75,0
0,55,93,4
0,60,67,9
0,60,0,15
0,57,0,6
0,55,0,38
0,62,0,13
0,55,0,38
0,62,0,19
0,59,0,5
0,57,66,14
0,61,69,0
0,64,74,0
0,45,82,0
0,57,89,0
0,61,95,0
0,64,89,0
0,57,95,2
0,55,0,17
0,57,0,389
0,33,83,147
0,52,96,8
0,57,94,52
0,52,0,25
0,57,0,87
0,64,0,19
0,61,0,29
0,57,75,76
0,45,0,8
0,57,0,84
0,45,83,34
0,61,110,118
0,62,82,109
0,64,101,130
0,62,0,32
0,45,0,17
0,57,88,67
0,33,0,28
0,33,91,22
0,57,0,7
0,57,0,82
0,61,0,17
0,64,0,17
0,57,88,112
0,57,0,80
0,45,82,28
0,54,107,137
0,52,83,81
0,57,0,5
0,54,0,19
0,55,98,77
0,52,0,99
0,54,74,2
0,57,99,1
0,45,0,117
0,33,0,45
0,55,0,69
0,54,0,3
0,55,66,5
0,57,98,3
0,57,0,75
0,57,0,142
0,64,0,1
0,54,72,19
0,57,69,0
0,62,79,0
0,57,98,2
0,50,84,12
0,54,86,3
0,57,84,0
0,55,0,2
0,61,0,2
0,38,84,1
0,57,0,283
0,57,0,6
0,54,0,5
0,50,0,23
0,50,67,153
0,57,99,14
0,50,0,192
0,59,94,48
0,57,0,7
0,57,78,221
0,57,96,9
0,38,0,7
0,59,0,21
0,57,0,51
0,38,76,19
0,57,98,131
0,66,101,6
0,55,95,6
0,57,0,2
0,57,0,80
0,66,0,24
0,62,86,121
0,54,94,16
0,55,0,32
0,62,0,10
0,57,87,196
0,62,89,0
0,54,0,1
0,54,86,0
0,57,94,1
0,57,0,261
0,62,0,93
0,54,0,45
0,57,0,18
0,50,91,145
0,57,96,16
0,50,0,52
0,59,94,190
0,52,101,0
0,57,0,17
0,57,95,53
0,52,0,28
0,59,0,11
0,54,107,94
0,57,0,69
0,55,95,2
0,66,82,0
0,62,0,8
0,54,0,58
0,55,0,20
0,54,96,1
0,55,98,8
0,38,0,6
0,66,0,1
0,54,0,56
0,55,0,8
0,57,0,27
0,55,84,14
0,60,85,0
0,64,81,0
0,52,95,3
0,48,88,2
0,52,91,0
0,55,93,0
0,54,0,6
0,36,101,1
0,36,0,288
0,52,0,22
0,55,0,23
0,48,0,44
0,52,0,2
0,55,0,57
0,60,0,22
0,64,0,5
0,31,83,32
0,50,88,0
0,55,88,0
0,50,95,12
0,55,79,0
0,59,68,0
0,62,77,0
0,31,0,71
0,55,0,1
0,50,0,1
0,55,0,3
0,62,0,17
0,59,0,5
0,50,0,61
0,55,64,81
0,59,68,0
0,62,78,0
0,50,95,3
0,31,99,8
0,50,107,0
0,55,95,0
0,55,0,59
0,57,27,59
0,57,0,4
0,50,0,0
0,43,62,233
0,31,0,57
0,50,89,53
0,59,88,0
0,55,93,1
0,43,0,32
0,31,91,24
0,50,0,277
0,67,84,50
0,59,0,18
0,55,0,1
0,50,0,60
0,31,0,34
0,71,85,367
0,59,73,480
0,72,82,0
0,59,1,0
0,62,1,0
0,62,99,5
0,62,99,0
0,71,0,1
0,67,0,106
0,51,60,12
0,51,0,20
0,59,0,15
0,59,55,25
0,59,0,50
0,59,54,10
0,55,0,8
0,62,0,6
0,62,0,0
0,72,0,20
0,58,64,2
0,65,65,0
0,74,70,0
0,59,0,8
0,59,0,8
0,59,0,2
0,62,0,0
0,58,77,2
0,34,111,2
0,49,55,0
0,55,72,0
0,82,38,0
0,58,1,0
0,62,1,0
0,62,99,2
0,62,99,0
0,53,91,5
0,58,93,0
0,62,88,1
0,62,0,1
0,34,67,9
0,46,82,1
0,55,0,44
0,49,0,9
0,82,0,17
0,69,39,31
0,69,0,107
0,51,48,13
0,82,40,0
0,51,0,13
0,82,0,56
0,53,0,17
0,58,0,13
0,62,0,6
0,46,72,2
0,59,54,0
0,69,37,0
0,46,0,33
0,59,0,21
0,46,88,6
0,46,0,32
0,69,0,4
0,53,93,4
0,46,111,20
0,51,60,0
0,82,39,0
0,46,0,27
0,51,0,10
0,58,0,10
0,53,0,32
0,82,0,18
0,69,30,23
0,62,0,11
0,62,0,0
0,69,0,85
0,46,76,19
0,58,0,1
0,62,0,0
0,58,76,4
0,82,43,0
0,58,1,0
0,62,1,0
0,62,96,1
0,62,96,0
0,82,0,101
0,59,60,18
0,69,40,0
0,58,95,5
0,59,0,41
0,46,0,5
0,46,0,16
0,69,0,16
0,53,80,33
0,58,0,0
0,62,0,0
0,51,48,4
0,82,43,0
0,60,1,0
0,63,1,0
0,63,96,1
0,63,96,0
0,60,78,1
0,58,0,12
0,62,0,5
0,62,0,0
0,51,0,2
0,58,0,62
0,53,0,16
0,82,0,5
0,46,86,9
0,69,44,7
0,69,0,95
0,60,0,20
0,63,0,0
0,62,96,3
0,62,96,0
0,58,77,1
0,51,43,0
0,82,43,0
0,60,101,0
0,58,1,0
0,62,1,0
0,60,0,3
0,63,0,13
0,63,0,0
0,51,0,7
0,65,0,8
0,74,0,31
0,82,0,31
0,59,50,27
0,69,35,0
0,59,0,57
0,69,0,32
0,67,74,9
0,75,70,0
0,53,82,17
0,58,0,1
0,62,0,0
0,60,96,4
0,60,96,0
0,51,54,0
0,82,40,0
0,57,1,0
0,60,1,0
0,57,77,2
0,46,0,2
0,62,0,3
0,62,0,0
0,58,0,8
0,51,0,14
0,60,0,44
0,53,0,20
0,82,0,18
0,69,42,9
0,46,89,4
0,69,0,10
0,34,0,33
0,57,0,0
0,60,0,0
0,60,0,3
0,60,0,0
0,29,93,1
0,51,50,0
0,82,45,0
0,58,1,0
0,58,1,0
0,58,95,1
0,58,95,0
0,58,79,3
0,62,113,5
0,57,0,5
0,51,0,8
0,67,0,64
0,82,0,9
0,34,0,21
0,58,0,2
0,59,48,2
0,69,53,0
0,46,0,7
0,59,0,41
0,58,0,18
0,69,0,0
0,75,0,16
0,58,70,16
0,65,70,0
0,74,72,0
0,29,0,18
0,34,110,4
0,51,54,0
0,82,38,0
0,34,91,7
0,51,0,5
0,58,0,21
0,58,0,0
0,82,0,27
0,69,39,31
0,69,0,81
0,53,74,4
0,58,0,5
0,58,0,0
0,51,39,4
0,82,40,0
0,58,1,0
0,62,1,0
0,62,97,1
0,62,97,0
0,58,78,0
0,51,0,22
0,62,0,35
0,82,0,24
0,46,84,26
0,59,48,12
0,69,37,0
0,53,0,1
0,46,84,19
0,59,0,39
0,46,0,6
0,46,84,15
0,69,0,16
0,58,0,3
0,46,0,4
0,58,0,13
0,62,0,0
0,46,107,4
0,51,54,0
0,82,39,0
0,58,1,0
0,62,1,0
0,58,72,1
0,62,0,2
0,62,100,0
0,62,0,0
0,62,100,0
0,58,113,3
0,51,0,15
0,82,0,76
0,69,30,23
0,58,0,50
0,62,0,28
0,62,0,0
0,58,0,15
0,69,0,3
0,58,0,20
0,62,0,0
0,62,98,4
0,62,98,0
0,58,81,0
0,82,43,0
0,58,1,0
0,62,1,0
0,60,101,1
0,62,0,87
0,62,0,0
0,82,0,14
0,58,0,14
0,62,0,0
0,63,98,1
0,63,98,0
0,59,42,3
0,69,40,0
0,60,1,0
0,63,1,0
0,60,73,4
0,60,0,30
0,58,0,4
0,59,0,16
0,69,0,29
0,51,48,37
0,82,43,0
0,55,98,13
0,58,99,6
0,63,107,0
0,51,0,2
0,46,0,29
0,82,0,44
0,69,44,16
0,69,0,17
0,60,0,6
0,60,0,14
0,63,0,0
0,62,98,1
0,62,98,0
0,58,76,3
0,51,45,0
0,82,43,0
0,58,1,0
0,62,1,0
0,51,0,20
0,63,0,2
0,63,0,0
0,58,0,30
0,55,0,7
0,63,0,9
0,82,0,25
0,59,45,27
0,69,35,0
0,58,86,16
0,62,101,0
0,59,0,18
0,34,0,29
0,69,0,0
0,70,73,9
0,58,0,8
0,58,0,10
0,62,0,0
0,57,76,2
0,26,101,2
0,51,54,0
0,82,40,0
0,57,1,0
0,60,1,0
0,60,96,1
0,60,96,0
0,74,0,0
0,62,0,18
0,62,0,0
0,51,0,6
0,82,0,63
0,58,0,6
0,69,42,3
0,62,0,29
0,46,0,18
0,34,0,31
0,69,0,5
0,60,0,20
0,60,0,0
0,57,0,0
0,60,0,0
0,51,42,4
0,82,45,0
0,55,1,0
0,58,1,0
0,58,96,1
0,58,96,0
0,55,76,2
0,58,98,1
0,57,0,6
0,51,0,11
0,65,0,14
0,58,0,53
0,82,0,7
0,70,0,16
0,59,42,9
0,69,53,0
0,59,0,65
0,69,0,1
0,53,41,32
0,55,27,0
0,65,64,0
0,72,70,0
0,55,0,7
0,26,0,11
0,55,0,0
0,58,0,0
0,29,111,4
0,41,110,0
0,51,48,0
0,82,38,0
0,57,1,0
0,60,1,0
0,57,77,2
0,60,96,1
0,60,96,0
0,29,88,3
0,55,0,7
0,53,87,1
0,57,93,0
0,60,84,0
0,51,0,5
0,58,0,7
0,58,0,0
0,58,0,6
0,82,0,55
0,69,39,31
0,69,0,105
0,51,48,13
0,82,40,0
0,53,0,5
0,51,0,15
0,82,0,62
0,57,0,16
0,60,0,19
0,59,42,3
0,69,37,0
0,59,0,49
0,57,0,36
0,69,0,2
0,60,0,7
0,60,0,0
0,41,86,14
0,51,57,3
0,82,39,0
0,51,0,26
0,41,0,5
0,65,0,52
0,82,0,14
0,69,30,23
0,72,0,95
0,69,0,1
0,60,54,2
0,69,66,0
0,29,0,18
0,57,0,0
0,60,0,0
0,24,93,4
0,41,110,0
0,57,97,0
0,57,97,0
0,82,43,0
0,53,1,0
0,57,1,0
0,53,74,2
0,41,0,4
0,82,0,74
0,60,0,5
0,59,50,13
0,69,40,0
0,65,110,1
0,41,0,12
0,59,0,4
0,69,0,26
0,65,67,15
0,72,70,0
0,24,0,18
0,53,0,0
0,57,0,0
0,69,0,1
0,29,111,3
0,41,110,0
0,51,68,0
0,82,43,0
0,57,1,0
0,60,1,0
0,57,91,2
0,60,96,1
0,60,96,0
0,57,75,0
0,57,0,4
0,57,0,0
0,51,0,3
0,53,0,3
0,41,0,6
0,82,0,69
0,41,91,15
0,69,44,1
0,65,0,47
0,57,0,4
0,69,0,45
0,60,86,20
0,51,54,4
0,82,43,0
0,51,0,27
0,82,0,66
0,53,91,16
0,41,0,9
0,59,50,2
0,69,35,0
0,60,0,28
0,59,0,30
0,69,0,31
0,41,83,29
0,51,68,2
0,82,40,0
0,51,0,33
0,53,0,11
0,82,0,67
0,57,101,7
0,69,42,2
0,29,0,21
0,41,0,27
0,72,0,16
0,69,0,19
0,29,0,2
0,65,0,9
0,60,65,4
0,69,61,0
0,24,93,22
0,51,54,0
0,82,45,0
0,41,82,7
0,57,0,15
0,51,0,2
0,41,0,45
0,82,0,26
0,60,88,22
0,59,50,3
0,69,53,0
0,59,0,59
0,69,0,7
