track,note,velocity,time
1,57,118,12288
1,42,50,2
1,57,0,14
1,42,0,2
1,42,54,177
1,42,0,16
1,46,100,74
1,46,0,16
1,42,52,86
1,42,0,16
1,42,47,176
1,42,0,16
1,42,37,272
1,42,0,16
1,46,96,74
1,46,0,16
1,42,55,176
1,42,0,16
1,42,54,182
1,42,0,16
1,42,52,175
1,42,0,16
1,42,55,177
1,42,0,16
1,46,97,74
1,46,0,16
1,42,49,86
1,42,0,16
1,42,52,176
1,42,0,16
1,42,37,272
1,42,0,16
1,46,99,74
1,46,0,16
1,42,55,176
1,42,0,16
1,42,47,182
1,42,0,16
1,42,47,175
1,42,0,16
1,42,53,177
1,42,0,16
1,46,101,74
1,46,0,16
1,42,47,86
1,42,0,16
1,42,54,176
1,42,0,16
1,42,43,272
1,42,0,16
1,46,104,74
1,46,0,16
1,42,52,176
1,42,0,16
1,42,46,182
1,42,0,16
1,42,53,175
1,42,0,16
1,42,54,177
1,42,0,16
1,46,100,74
1,46,0,16
1,42,53,86
1,42,0,16
1,42,53,176
1,42,0,16
1,42,40,272
1,42,0,16
1,46,102,74
1,46,0,16
1,42,50,176
1,42,0,16
1,42,52,182
1,42,0,16
1,42,47,175
1,42,0,16
1,42,54,177
1,42,0,16
1,46,96,74
1,46,0,16
1,42,46,86
1,42,0,16
1,42,53,176
1,42,0,16
1,42,41,272
1,42,0,16
1,46,99,74
1,46,0,16
1,42,49,176
1,42,0,16
1,42,49,182
1,42,0,16
1,42,47,175
1,42,0,16
1,42,54,177
1,42,0,16
1,46,101,74
1,46,0,16
1,42,54,86
1,42,0,16
1,42,53,176
1,42,0,16
1,42,37,272
1,42,0,16
1,46,96,74
1,46,0,16
1,42,46,176
1,42,0,16
1,42,48,182
1,42,0,16
1,42,54,175
1,42,0,16
1,42,47,177
1,42,0,16
1,46,102,74
1,46,0,16
1,42,55,86
1,42,0,16
1,42,54,176
1,42,0,16
1,42,42,272
1,42,0,16
1,46,101,74
1,46,0,16
1,42,55,176
1,42,0,16
1,42,50,182
1,42,0,16
1,42,49,175
1,42,0,16
1,42,50,177
1,42,0,16
1,46,102,74
1,46,0,16
1,42,51,86
1,42,0,16
1,42,49,176
1,42,0,16
1,42,40,272
1,42,0,16
1,46,96,74
1,46,0,16
1,42,51,176
1,42,0,16
1,42,51,182
1,42,0,16
1,57,119,173
1,42,48,2
1,57,0,14
1,42,0,2
1,42,46,177
1,42,0,16
1,46,102,74
1,46,0,16
1,42,47,86
1,42,0,16
1,42,50,176
1,42,0,16
1,42,41,272
1,42,0,16
1,46,97,74
1,46,0,16
1,42,51,176
1,42,0,16
1,42,53,182
1,42,0,16
1,42,52,175
1,42,0,16
1,42,51,177
1,42,0,16
1,46,104,74
1,46,0,16
1,42,49,86
1,42,0,16
1,42,52,176
1,42,0,16
1,42,39,272
1,42,0,16
1,46,98,74
1,46,0,16
1,42,52,176
1,42,0,16
1,42,52,182
1,42,0,16
1,42,54,175
1,42,0,16
1,42,50,177
1,42,0,16
1,46,100,74
1,46,0,16
1,42,50,86
1,42,0,16
1,42,46,176
1,42,0,16
1,42,40,272
1,42,0,16
1,46,103,74
1,46,0,16
1,42,48,176
1,42,0,16
1,42,52,182
1,42,0,16
1,42,53,175
1,42,0,16
1,42,51,177
1,42,0,16
1,46,96,74
1,46,0,16
1,42,51,86
1,42,0,16
1,42,54,176
1,42,0,16
1,42,36,272
1,42,0,16
1,46,100,74
1,46,0,16
1,42,55,176
1,42,0,16
1,42,47,182
1,42,0,16
1,42,53,175
1,42,0,16
1,42,52,177
1,42,0,16
1,46,96,74
1,46,0,16
1,42,50,86
1,42,0,16
1,42,49,176
1,42,0,16
1,42,37,272
1,42,0,16
1,46,96,74
1,46,0,16
1,42,48,176
1,42,0,16
1,42,53,182
1,42,0,16
1,42,52,175
1,42,0,16
1,42,54,177
1,42,0,16
1,46,99,74
1,46,0,16
1,42,47,86
1,42,0,16
1,42,55,176
1,42,0,16
1,42,45,272
1,42,0,16
1,46,101,74
1,46,0,16
1,42,50,176
1,42,0,16
1,42,53,182
1,42,0,16
1,42,46,175
1,42,0,16
1,42,53,177
1,42,0,16
1,46,98,74
1,46,0,16
1,42,53,86
1,42,0,16
1,42,55,176
1,42,0,16
1,42,44,272
1,42,0,16
1,46,102,74
1,46,0,16
1,42,46,176
1,42,0,16
1,42,51,182
1,42,0,16
1,42,50,175
1,42,0,16
1,42,49,177
1,42,0,16
1,46,100,74
1,46,0,16
1,42,54,86
1,42,0,16
1,42,51,176
1,42,0,16
1,42,45,272
1,42,0,16
1,46,98,74
1,46,0,16
1,42,54,176
1,42,0,16
1,42,52,182
1,42,0,16
1,36,102,173
1,57,113,0
1,42,46,2
1,57,0,14
1,36,0,0
1,42,0,2
1,42,49,177
1,42,0,16
1,46,103,74
1,46,0,16
1,37,72,86
1,42,48,0
1,42,0,16
1,37,0,0
1,36,96,176
1,42,50,0
1,42,0,16
1,36,0,0
1,42,36,272
1,42,0,16
1,46,95,74
1,46,0,16
1,42,54,176
1,37,69,2
1,42,0,14
1,37,0,2
1,42,48,180
1,42,0,16
1,36,95,173
1,42,52,2
1,36,0,14
1,42,0,2
1,42,48,177
1,42,0,16
1,46,101,74
1,46,0,16
1,37,66,86
1,42,46,0
1,42,0,16
1,37,0,0
1,36,96,176
1,42,55,0
1,42,0,16
1,36,0,0
1,42,39,272
1,42,0,16
1,46,98,74
1,46,0,16
1,42,48,176
1,37,65,2
1,42,0,14
1,37,0,2
1,42,51,180
1,42,0,16
1,36,104,173
1,42,50,2
1,36,0,14
1,42,0,2
1,42,50,177
1,42,0,16
1,46,101,74
1,46,0,16
1,37,73,86
1,42,53,0
1,42,0,16
1,37,0,0
1,36,104,176
1,42,52,0
1,42,0,16
1,36,0,0
1,42,37,272
1,42,0,16
1,46,102,74
1,46,0,16
1,42,47,176
1,37,71,2
1,42,0,14
1,37,0,2
1,42,48,180
1,42,0,16
1,36,101,173
1,42,54,2
1,36,0,14
1,42,0,2
1,42,48,177
1,42,0,16
1,46,104,74
1,46,0,16
1,37,67,86
1,42,53,0
1,42,0,16
1,37,0,0
1,36,104,176
1,42,49,0
1,42,0,16
1,36,0,0
1,42,36,272
1,42,0,16
1,46,104,74
1,46,0,16
1,42,49,176
1,37,65,2
1,52,117,4
1,42,0,10
1,37,0,2
1,52,0,4
1,42,47,176
1,42,0,16
1,36,103,173
1,57,117,0
1,42,50,2
1,57,0,14
1,36,0,0
1,42,0,2
1,42,49,177
1,42,0,16
1,46,103,74
1,46,0,16
1,37,67,86
1,42,54,0
1,42,0,16
1,37,0,0
1,36,97,176
1,42,46,0
1,42,0,16
1,36,0,0
1,42,39,272
1,42,0,16
1,46,96,74
1,46,0,16
1,42,54,176
1,37,74,2
1,42,0,14
1,37,0,2
1,42,46,180
1,42,0,16
1,36,103,173
1,42,55,2
1,36,0,14
1,42,0,2
1,42,53,177
1,42,0,16
1,46,102,74
1,46,0,16
1,37,69,86
1,42,55,0
1,42,0,16
1,37,0,0
1,36,101,176
1,42,55,0
1,42,0,16
1,36,0,0
1,42,37,272
1,42,0,16
1,46,99,74
1,46,0,16
1,42,48,176
1,37,68,2
1,42,0,14
1,37,0,2
1,42,48,180
1,42,0,16
1,36,83,77
1,36,0,16
1,36,103,80
1,42,47,2
1,36,0,14
1,42,0,2
1,42,46,177
1,42,0,16
1,46,95,74
1,46,0,16
1,37,72,86
1,42,50,0
1,42,0,16
1,37,0,0
1,36,100,176
1,42,51,0
1,42,0,16
1,36,0,0
1,42,41,272
1,42,0,16
1,46,101,74
1,46,0,16
1,42,55,176
1,37,69,2
1,42,0,14
1,37,0,2
1,42,52,180
1,42,0,16
1,36,95,173
1,42,53,2
1,36,0,14
1,42,0,2
1,42,52,177
1,42,0,16
1,46,99,74
1,46,0,16
1,37,74,86
1,42,50,0
1,42,0,16
1,37,0,0
1,36,104,176
1,42,52,0
1,42,0,16
1,36,0,0
1,42,36,272
1,42,0,16
1,46,100,74
1,36,98,6
1,46,0,10
1,36,0,6
1,42,47,170
1,37,67,2
1,36,103,4
1,42,0,10
1,37,0,2
1,36,0,4
1,36,96,176
1,42,47,0
1,42,0,16
1,36,0,0
1,36,103,173
1,57,110,0
1,42,47,2
1,57,0,14
1,36,0,0
1,42,0,2
1,42,48,177
1,42,0,16
1,46,103,74
1,46,0,16
1,37,68,86
1,42,52,0
1,42,0,16
1,37,0,0
1,36,102,176
1,42,46,0
1,42,0,16
1,36,0,0
1,42,42,272
1,42,0,16
1,46,101,74
1,46,0,16
1,42,48,176
1,37,69,2
1,42,0,14
1,37,0,2
1,36,102,180
1,42,50,0
1,42,0,16
1,36,0,0
1,36,98,173
1,57,113,0
1,42,52,2
1,57,0,14
1,36,0,0
1,42,0,2
1,42,49,177
1,42,0,16
1,46,97,74
1,46,0,16
1,37,72,86
1,42,49,0
1,42,0,16
1,37,0,0
1,42,47,176
1,42,0,16
1,42,45,272
1,42,0,16
1,46,101,74
1,46,0,16
1,42,53,176
1,37,71,2
1,42,0,14
1,37,0,2
1,42,47,180
1,42,0,16
1,37,74,560
1,37,0,16
1,36,100,1133
1,36,0,16
1,36,96,563
1,46,117,0
1,46,0,16
1,36,0,0
1,45,95,464
1,45,0,16
1,42,55,74
1,43,102,0
1,43,0,16
1,42,0,0
1,42,41,80
1,42,0,16
1,42,52,86
1,42,0,16
1,36,96,173
1,57,116,0
1,42,50,2
1,57,0,14
1,36,0,0
1,42,0,2
1,42,46,177
1,42,0,16
1,46,98,74
1,46,0,16
1,37,74,86
1,42,49,0
1,42,0,16
1,37,0,0
1,36,99,176
1,42,51,0
1,42,0,16
1,36,0,0
1,42,37,272
1,42,0,16
1,46,97,74
1,46,0,16
1,42,48,176
1,37,71,2
1,42,0,14
1,37,0,2
1,42,54,180
1,42,0,16
1,36,98,173
1,42,55,2
1,36,0,14
1,42,0,2
1,42,46,177
1,42,0,16
1,36,102,74
1,46,99,0
1,46,0,16
1,36,0,0
1,37,74,86
1,42,47,0
1,42,0,16
1,37,0,0
1,36,98,176
1,42,55,0
1,42,0,16
1,36,0,0
1,42,43,272
1,42,0,16
1,46,96,74
1,46,0,16
1,42,48,176
1,37,65,2
1,42,0,14
1,37,0,2
1,42,50,180
1,42,0,16
1,36,87,77
1,36,0,16
1,36,98,80
1,42,48,2
1,36,0,14
1,42,0,2
1,42,50,177
1,42,0,16
1,46,96,74
1,46,0,16
1,37,71,86
1,42,49,0
1,42,0,16
1,37,0,0
1,36,96,176
1,42,49,0
1,42,0,16
1,36,0,0
1,42,41,272
1,42,0,16
1,46,102,74
1,46,0,16
1,42,47,176
1,37,69,2
1,42,0,14
1,37,0,2
1,42,51,180
1,42,0,16
1,36,102,173
1,42,51,2
1,36,0,14
1,42,0,2
1,42,50,177
1,42,0,16
1,46,102,74
1,36,101,6
1,46,0,10
1,36,0,6
1,37,72,80
1,42,52,0
1,42,0,16
1,37,0,0
1,36,104,176
1,42,49,0
1,42,0,16
1,36,0,0
1,42,36,272
1,42,0,16
1,46,95,74
1,46,0,16
1,42,55,176
1,37,72,2
1,42,0,14
1,37,0,2
1,36,103,177
1,42,50,3
1,36,0,13
1,42,0,3
1,36,99,173
1,42,46,2
1,36,0,14
1,42,0,2
1,42,46,177
1,42,0,16
1,46,99,74
1,46,0,16
1,37,68,86
1,42,52,0
1,42,0,16
1,37,0,0
1,36,103,176
1,42,48,0
1,42,0,16
1,36,0,0
1,42,41,272
1,42,0,16
1,46,95,74
1,46,0,16
1,42,55,176
1,37,72,2
1,42,0,14
1,37,0,2
1,42,55,180
1,42,0,16
1,36,104,173
1,42,51,2
1,36,0,14
1,42,0,2
1,42,54,177
1,42,0,16
1,46,101,74
1,36,101,6
1,46,0,10
1,36,0,6
1,37,66,80
1,42,53,0
1,42,0,16
1,37,0,0
1,36,97,176
1,42,48,0
1,42,0,16
1,36,0,0
1,42,37,272
1,42,0,16
1,46,101,74
1,46,0,16
1,42,53,176
1,37,67,2
1,42,0,14
1,37,0,2
1,36,100,174
1,42,53,6
1,36,0,10
1,42,0,6
1,36,103,173
1,42,51,2
1,36,0,14
1,42,0,2
1,42,51,177
1,42,0,16
1,46,99,74
1,46,0,16
1,37,66,86
1,42,51,0
1,42,0,16
1,37,0,0
1,36,96,176
1,42,55,0
1,42,0,16
1,36,0,0
1,36,96,170
1,36,0,16
1,42,45,86
1,42,0,16
1,46,97,74
1,46,0,16
1,42,55,176
1,37,74,2
1,42,0,14
1,37,0,2
1,42,49,180
1,42,0,16
1,36,104,173
1,42,55,2
1,36,0,14
1,42,0,2
1,42,51,177
1,42,0,16
1,46,96,74
1,46,0,16
1,37,74,86
1,42,49,0
1,42,0,16
1,37,0,0
1,36,104,176
1,42,54,0
1,42,0,16
1,36,0,0
1,36,98,176
1,36,0,16
1,42,40,80
1,42,0,16
1,46,96,74
1,40,97,6
1,46,0,10
1,40,0,6
1,42,54,170
1,37,68,2
1,36,102,4
1,40,95,0
1,42,0,10
1,37,0,2
1,36,0,4
1,40,0,0
1,50,100,81
1,50,0,16
1,42,51,79
1,47,103,1
1,42,0,15
1,47,0,1
1,36,99,172
1,57,113,0
1,42,54,2
1,57,0,14
1,36,0,0
1,42,0,2
1,42,54,177
1,42,0,16
1,46,99,74
1,46,0,16
1,37,66,86
1,40,97,0
1,42,51,0
1,42,0,16
1,40,0,0
1,37,0,0
1,36,103,176
1,42,48,0
1,42,0,16
1,36,0,0
1,42,43,272
1,42,0,16
1,46,95,74
1,36,95,6
1,46,0,10
1,36,0,6
1,42,46,170
1,37,71,2
1,40,101,4
1,42,0,10
1,37,0,2
1,40,0,4
1,42,48,176
1,42,0,16
1,36,103,173
1,42,50,2
1,36,0,14
1,42,0,2
1,42,49,177
1,42,0,16
1,46,101,74
1,46,0,16
1,37,73,86
1,40,93,0
1,42,55,0
1,42,0,16
1,40,0,0
1,37,0,0
1,36,97,176
1,42,55,0
1,42,0,16
1,36,0,0
1,42,38,272
1,42,0,16
1,46,102,74
1,36,95,6
1,46,0,10
1,36,0,6
1,42,50,170
1,37,65,2
1,40,93,4
1,42,0,10
1,37,0,2
1,40,0,4
1,42,53,176
1,42,0,16
1,36,99,173
1,42,49,2
1,36,0,14
1,42,0,2
1,42,53,177
1,42,0,16
1,46,96,74
1,46,0,16
1,37,71,86
1,40,93,0
1,42,52,0
1,42,0,16
1,40,0,0
1,37,0,0
1,36,103,176
1,42,52,0
1,42,0,16
1,36,0,0
1,42,42,272
1,42,0,16
1,46,98,74
1,36,99,6
1,46,0,10
1,36,0,6
1,42,46,170
1,37,67,2
1,40,92,4
1,42,0,10
1,37,0,2
1,40,0,4
1,42,55,176
1,42,0,16
1,36,100,173
1,42,47,2
1,36,0,14
1,42,0,2
1,42,54,177
1,42,0,16
1,36,104,74
1,46,96,0
1,46,0,16
1,36,0,0
1,37,70,86
1,40,93,0
1,42,52,0
1,42,0,16
1,40,0,0
1,37,0,0
1,36,103,176
1,42,51,0
1,42,0,16
1,36,0,0
1,42,41,272
1,42,0,16
1,36,98,74
1,46,103,0
1,46,0,16
1,36,0,0
1,36,102,176
1,42,54,0
1,37,70,2
1,40,92,4
1,42,0,10
1,36,0,0
1,37,0,2
1,40,0,4
1,36,100,170
1,42,49,6
1,36,0,10
1,42,0,6
1,36,95,173
1,57,112,0
1,42,53,2
1,57,0,14
1,36,0,0
1,42,0,2
1,42,52,177
1,42,0,16
1,46,100,74
1,46,0,16
1,37,71,86
1,40,96,0
1,42,53,0
1,42,0,16
1,40,0,0
1,37,0,0
1,36,103,176
1,42,52,0
1,42,0,16
1,36,0,0
1,42,41,272
1,42,0,16
1,36,103,74
1,46,102,0
1,46,0,16
1,36,0,0
1,42,54,176
1,37,65,2
1,40,92,4
1,42,0,10
1,37,0,2
1,40,0,4
1,42,53,176
1,42,0,16
1,36,102,173
1,42,50,2
1,36,0,14
1,42,0,2
1,42,46,177
1,42,0,16
