track,note,velocity,time
1,27,83,29816
1,32,75,4
1,27,83,4
1,32,83,4
1,34,91,4
1,34,71,4
1,27,99,4
1,31,91,4
1,32,99,4
1,29,91,4
1,27,99,4
1,36,99,4
1,32,83,4
1,34,83,4
1,27,99,4
1,31,91,4
1,32,83,4
1,29,99,4
1,27,83,4
1,36,91,4
1,34,91,4
1,27,99,4
1,34,99,4
1,32,91,4
1,27,99,4
1,32,99,4
1,27,99,4
1,32,99,4
1,34,99,4
1,27,99,4
1,34,91,4
1,32,99,4
1,29,91,4
1,27,99,4
1,36,99,4
1,32,83,4
1,34,83,4
1,27,99,4
1,31,91,4
1,32,99,4
1,29,91,4
1,27,99,4
1,36,99,4
1,32,83,4
1,34,83,4
1,27,99,4
1,31,91,4
1,32,99,4
1,29,91,4
1,27,99,4
1,36,99,4
1,32,83,4
1,34,83,4
1,27,99,4
1,31,91,4
1,32,99,4
1,29,91,4
1,27,99,4
1,36,99,4
1,34,83,4
1,27,83,4
1,34,99,4
1,32,91,4
1,27,99,4
1,27,99,4
1,27,99,4
1,27,99,4
2,27,59,732
2,39,65,192
2,46,92,96
2,51,62,192
2,46,35,24
2,55,72,24
2,39,52,70
2,46,55,192
2,51,59,96
2,53,84,192
2,46,53,58
2,58,65,88
2,39,57,24
2,46,62,192
2,51,88,96
2,53,92,192
2,46,62,52
2,58,72,70
2,51,52,384
2,39,57,28
2,46,55,168
2,51,72,96
2,53,80,192
2,46,65,6
2,58,80,2
2,27,72,18
2,55,80,0
2,58,100,0
2,63,76,0
2,55,51,16
2,55,68,50
2,58,92,0
2,63,88,0
2,39,100,12
2,55,88,0
2,58,100,0
2,63,92,80
2,31,92,32
2,53,92,0
2,58,100,0
2,63,84,0
2,53,59,88
2,53,80,22
2,58,100,0
2,62,100,0
2,43,100,4
2,53,88,88
2,58,72,46
2,63,92,0
2,32,76,76
2,51,76,0
2,56,68,0
2,60,92,0
2,56,80,80
2,60,92,96
2,63,62,0
2,44,92,8
2,60,84,96
2,63,100,12
2,68,92,0
2,41,92,10
2,60,100,0
2,63,92,0
2,68,100,0
2,60,65,8
2,63,84,62
2,67,108,0
2,29,100,72
2,60,80,48
2,63,76,6
2,68,100,0
2,60,76,38
2,27,76,16
2,63,76,0
2,67,100,0
2,58,84,30
2,58,68,32
2,63,88,0
2,67,92,0
2,39,100,0
2,58,92,82
2,63,88,16
2,67,84,0
2,36,100,4
2,62,92,0
2,63,84,0
2,67,65,0
2,60,80,192
2,60,88,46
2,62,92,0
2,63,76,0
2,67,100,0
2,48,108,32
2,60,100,70
2,62,84,28
2,63,65,0
2,32,108,28
2,60,92,0
2,63,51,0
2,67,100,0
2,60,84,20
2,63,100,96
2,67,108,0
2,44,100,10
2,60,76,0
2,63,72,30
2,68,100,0
2,60,76,96
2,34,100,14
2,63,108,0
2,67,100,0
2,58,80,22
2,63,44,0
2,58,80,2
2,46,108,38
2,62,92,0
2,58,84,26
2,27,72,40
2,55,80,0
2,58,100,0
2,63,76,0
2,55,51,16
2,55,68,50
2,58,92,0
2,63,88,0
2,39,100,12
2,55,88,0
2,58,100,0
2,63,92,80
2,31,92,32
2,53,92,0
2,58,100,0
2,63,84,0
2,53,59,88
2,53,80,22
2,58,100,0
2,62,100,0
2,43,100,4
2,53,88,88
2,58,72,46
2,63,92,0
2,32,76,76
2,51,76,0
2,56,68,0
2,60,92,0
2,56,80,80
2,60,92,96
2,63,62,0
2,44,92,8
2,60,84,96
2,63,100,12
2,68,92,0
2,41,92,10
2,60,100,0
2,63,92,0
2,68,100,0
2,60,65,8
2,63,84,62
2,67,108,0
2,29,100,72
2,60,80,48
2,63,76,6
2,68,100,0
2,60,76,38
2,27,76,16
2,63,76,0
2,67,100,0
2,58,84,30
2,58,68,32
2,63,88,0
2,67,92,0
2,39,100,0
2,58,92,82
2,63,88,16
2,67,84,0
2,36,100,4
2,62,92,0
2,63,84,0
2,67,65,0
2,60,80,192
2,60,88,46
2,62,92,0
2,63,76,0
2,67,100,0
2,48,108,32
2,60,100,70
2,62,84,28
2,63,65,0
2,32,108,28
2,60,92,0
2,63,51,0
2,67,100,0
2,60,84,20
2,63,100,96
2,67,108,0
2,44,100,10
2,60,76,0
2,63,72,30
2,68,100,0
2,60,76,96
2,34,100,14
2,63,108,0
2,67,100,0
2,58,80,22
2,63,44,0
2,58,80,2
2,46,108,38
2,62,92,0
2,58,84,26
2,27,72,40
2,55,80,0
2,58,100,0
2,63,76,0
2,55,51,16
2,55,68,50
2,58,92,0
2,63,88,0
2,39,100,12
2,55,88,0
2,58,100,0
2,63,92,80
2,31,92,32
2,53,92,0
2,58,100,0
2,63,84,0
2,53,59,88
2,53,80,22
2,58,100,0
2,62,100,0
2,43,100,4
2,53,88,88
2,58,72,46
2,63,92,0
2,32,76,76
2,51,76,0
2,56,68,0
2,60,92,0
2,56,80,80
2,60,92,96
2,63,62,0
2,44,92,8
2,60,84,96
2,63,100,12
2,68,92,0
2,41,92,10
2,60,100,0
2,63,92,0
2,68,100,0
2,60,65,8
2,63,84,62
2,67,108,0
2,29,100,72
2,60,80,48
2,63,76,6
2,68,100,0
2,60,76,38
2,27,76,16
2,63,76,0
2,67,100,0
2,58,84,30
2,58,68,32
2,63,88,0
2,67,92,0
2,39,100,0
2,58,92,82
2,63,88,16
2,67,84,0
2,36,100,4
2,62,92,0
2,63,84,0
2,67,65,0
2,60,80,192
2,60,88,46
2,62,92,0
2,63,76,0
2,67,100,0
2,48,108,32
2,60,100,70
2,62,84,28
2,63,65,0
2,32,108,28
2,60,92,0
2,63,51,0
2,67,100,0
2,60,84,20
2,63,100,96
2,67,108,0
2,44,100,10
2,60,76,0
2,63,72,30
2,68,100,0
2,60,76,96
2,34,100,14
2,63,108,0
2,67,100,0
2,58,80,22
2,63,44,0
2,58,80,2
2,46,108,38
2,62,92,0
2,58,84,26
2,27,92,40
2,55,83,0
2,58,95,0
2,63,87,0
2,55,79,78
2,58,102,82
2,63,102,0
2,39,102,96
2,55,106,80
2,58,98,52
2,63,82,0
2,31,92,26
2,53,102,0
2,58,98,0
2,63,106,0
2,53,79,90
2,58,98,48
2,62,122,0
2,43,114,96
2,53,95,0
2,63,114,96
2,32,82,82
2,51,81,0
2,56,89,0
2,60,114,0
2,56,67,100
2,60,114,96
2,63,89,0
2,44,106,0
2,60,106,52
2,63,87,96
2,68,89,40
2,29,102,24
2,60,82,0
2,63,79,0
2,68,102,0
2,60,98,0
2,63,89,64
2,67,118,0
2,41,106,22
2,60,95,0
2,63,82,28
2,68,110,0
2,39,95,58
2,63,89,0
2,67,114,0
2,58,89,42
2,63,81,96
2,67,102,0
2,51,114,48
2,58,110,96
2,63,95,8
2,67,114,28
2,36,95,18
2,62,114,0
2,63,87,0
2,67,95,0
2,62,92,76
2,60,118,28
2,63,87,0
2,67,114,0
2,48,95,96
2,60,122,36
2,63,95,8
2,67,118,26
2,34,53,16
2,58,92,0
2,62,84,0
2,53,72,142
2,27,72,12
2,55,65,0
2,58,80,0
2,63,59,0
2,55,55,72
2,58,65,64
2,63,80,0
2,39,76,96
2,55,84,0
2,58,80,38
2,63,59,0
2,32,55,74
2,56,76,0
2,60,72,0
2,63,55,0
2,56,52,52
2,60,100,66
2,63,62,0
2,44,80,96
2,56,76,64
2,60,88,0
2,63,53,74
2,27,59,20
2,55,62,0
2,58,80,0
2,63,49,0
2,55,65,72
2,58,72,54
2,63,84,0
2,39,84,36
2,55,68,96
2,58,80,24
2,63,36,38
2,32,89,34
2,56,85,0
2,60,110,0
2,63,87,0
2,60,122,4
2,63,87,90
2,34,95,32
2,58,102,0
2,62,110,0
2,53,106,96
2,58,89,24
2,62,114,96
2,46,127,28
2,53,95,0
2,58,110,0
2,62,122,0
2,53,92,58
2,58,106,0
2,62,92,96
2,27,108,16
2,55,116,0
2,58,108,0
2,63,84,0
2,55,57,66
2,58,92,84
2,63,92,0
2,39,108,2
2,55,80,0
2,58,100,56
2,63,100,0
2,55,62,6
2,31,92,26
2,53,100,0
2,58,108,0
2,62,108,0
2,53,76,82
2,43,124,178
2,58,108,0
2,62,116,0
2,53,92,64
2,32,80,50
2,56,92,0
2,60,108,0
2,63,55,0
2,60,59,54
2,44,108,28
2,63,100,0
2,68,100,0
2,60,100,60
2,29,100,40
2,63,92,0
2,68,108,0
2,60,100,96
2,41,116,38
2,63,108,0
2,67,116,0
2,60,92,82
2,39,84,44
2,63,88,0
2,67,116,0
2,58,84,14
2,51,108,34
2,63,80,0
2,67,100,0
2,58,84,6
2,36,88,32
2,62,108,0
2,63,88,0
2,67,100,0
2,62,84,72
2,48,108,104
2,60,108,0
2,63,100,0
2,67,88,0
2,60,80,4
2,32,68,50
2,60,88,0
2,63,100,0
2,68,108,0
2,60,76,58
2,44,108,4
2,60,92,0
2,63,108,0
2,68,100,0
2,60,88,92
2,34,84,58
2,58,100,0
2,63,88,0
2,67,92,0
2,58,88,70
2,46,100,22
2,58,62,0
2,62,124,0
2,67,92,0
2,58,88,64
2,27,80,54
2,55,100,0
2,58,108,0
2,63,92,0
2,55,68,72
2,39,108,8
2,55,68,0
2,58,108,0
2,63,100,0
2,55,80,70
2,31,84,32
2,53,116,0
2,58,108,0
2,63,84,0
2,53,62,64
2,58,108,62
2,62,108,0
2,43,100,58
2,53,62,44
2,58,55,18
2,63,100,0
2,32,92,46
2,56,100,0
2,60,92,0
2,63,80,0
2,60,88,30
2,44,100,8
2,63,100,0
2,68,108,0
2,60,84,36
2,29,92,30
2,60,76,0
2,63,92,0
2,68,100,0
2,60,100,74
2,63,100,54
2,67,100,0
2,41,124,68
2,60,84,8
2,63,76,76
2,68,108,0
2,60,84,22
2,27,72,18
2,63,100,0
2,67,108,0
2,58,80,192
2,63,88,58
2,67,100,0
2,39,100,18
2,58,92,104
2,36,88,66
2,62,92,0
2,63,88,0
2,67,92,0
2,62,59,66
2,48,100,34
2,60,100,0
2,63,100,0
2,67,100,0
2,60,84,0
2,34,100,64
2,58,108,0
2,62,100,0
2,65,92,0
2,58,65,64
2,27,72,100
2,55,92,0
2,58,92,0
2,63,80,0
2,55,65,52
2,39,116,88
2,58,100,0
2,63,108,0
2,55,72,46
2,34,108,44
2,53,108,0
2,58,100,0
2,62,100,0
2,53,76,76
2,46,100,12
2,53,59,0
2,58,108,0
2,62,116,0
2,53,76,2
2,32,68,84
2,56,88,0
2,60,84,0
2,51,76,168
2,27,68,60
2,55,80,0
2,58,92,0
2,55,55,6
2,39,108,8
2,55,72,0
2,58,108,0
2,63,92,0
2,55,62,84
2,32,62,34
2,56,76,0
2,60,100,0
2,63,54,0
2,56,76,78
2,44,116,52
2,60,108,0
2,63,88,0
2,56,88,102
2,27,76,80
2,55,88,0
2,58,92,0
2,63,72,0
2,55,68,80
2,58,92,64
2,63,92,0
2,39,116,0
2,55,84,78
2,58,100,62
2,63,92,8
2,32,84,16
2,56,108,0
2,60,116,0
2,63,44,0
2,56,80,60
2,34,84,60
2,53,116,0
2,58,108,0
2,62,108,0
2,53,92,64
2,27,80,10
2,55,80,0
2,58,116,0
2,63,84,0
2,55,72,86
2,39,100,172
2,58,108,0
2,63,108,0
2,55,84,0
2,58,84,66
2,63,100,96
2,31,88,16
2,55,47,0
2,65,108,0
2,55,80,48
2,58,76,54
2,63,116,96
2,43,116,26
2,55,100,0
2,58,108,56
2,65,108,96
2,55,68,36
2,32,84,36
2,63,92,0
2,67,100,0
2,60,68,164
2,63,108,74
2,67,108,0
2,44,108,24
2,60,88,4
2,63,92,96
2,67,92,8
2,29,88,40
2,60,65,0
2,65,116,0
2,70,65,0
2,60,100,2
2,65,100,94
2,68,116,0
2,41,124,96
2,60,100,96
2,65,100,70
2,70,88,0
2,39,68,32
2,63,100,0
2,67,92,0
2,70,59,0
2,63,80,80
2,67,92,56
2,70,92,0
2,51,108,96
2,63,84,8
2,67,92,36
2,70,45,4
2,36,84,64
2,62,100,0
2,63,100,0
2,67,100,0
2,62,68,2
2,60,100,72
2,63,88,0
2,67,88,0
2,48,116,82
2,60,100,62
2,63,84,74
2,67,88,12
2,32,76,38
2,63,92,0
2,68,108,0
2,60,88,70
2,63,88,66
2,68,100,0
2,44,116,12
2,60,108,4
2,63,84,62
2,68,80,0
2,34,80,50
2,53,92,0
2,58,100,0
2,63,84,0
2,53,80,74
2,58,100,72
2,62,124,0
2,46,100,12
2,53,72,4
2,58,84,60
2,63,116,0
2,27,80,48
2,58,80,0
2,63,80,0
2,67,100,0
2,58,100,70
2,39,108,14
2,58,68,0
2,63,100,0
2,67,108,0
2,58,100,6
2,31,84,78
2,62,100,0
2,65,116,0
2,70,92,0
2,62,108,74
2,43,116,66
2,65,124,0
2,70,116,0
2,62,124,128
2,32,88,12
2,63,116,0
2,68,100,0
2,60,116,188
2,44,92,152
2,63,100,0
2,68,108,0
2,60,116,168
2,34,72,66
2,62,100,0
2,63,92,0
2,70,80,0
2,62,100,62
2,63,116,68
2,70,100,0
2,46,116,96
2,62,124,76
2,63,116,76
2,70,108,0
2,62,100,8
2,27,62,64
2,63,100,0
2,67,92,0
2,63,100,54
2,39,116,126
2,67,92,0
2,70,88,0
2,63,108,12
2,36,72,110
2,62,88,0
2,63,65,0
2,67,84,0
2,62,92,68
2,60,92,16
2,62,100,0
2,63,116,0
2,67,92,0
2,48,124,8
2,60,124,4
2,63,116,68
2,67,108,6
2,32,108,28
2,60,62,0
2,63,108,0
2,68,124,0
2,60,108,62
2,44,108,156
2,63,100,0
2,68,108,0
2,60,116,0
2,34,92,32
2,53,88,0
2,55,92,0
2,58,108,0
2,63,100,0
2,53,100,46
2,53,80,24
2,58,116,0
2,62,124,0
2,46,124,96
2,53,100,12
2,58,124,80
2,63,124,0
2,27,80,26
2,55,80,0
2,58,116,0
2,63,84,0
2,55,72,86
2,39,100,172
2,58,108,0
2,63,108,0
2,55,84,0
2,58,84,66
2,63,100,96
2,31,88,16
2,55,47,0
2,65,108,0
2,55,80,48
2,58,76,54
2,63,116,96
2,43,116,26
2,55,100,0
2,58,108,56
2,65,108,96
2,55,68,36
2,32,84,36
2,63,92,0
2,67,100,0
2,60,68,164
2,63,108,74
2,67,108,0
2,44,108,24
2,60,88,4
2,63,92,96
2,67,92,8
2,29,88,40
2,60,65,0
2,65,116,0
2,70,65,0
2,60,100,2
2,65,100,94
2,68,116,0
2,41,124,96
2,60,100,96
2,65,100,70
2,70,88,0
2,39,68,32
2,63,100,0
2,67,92,0
2,70,59,0
2,63,80,80
2,67,92,56
2,70,92,0
2,51,108,96
2,63,84,8
2,67,92,36
2,70,45,4
2,36,84,64
2,62,100,0
2,63,100,0
2,67,100,0
2,62,68,2
2,60,100,72
2,63,88,0
2,67,88,0
2,48,116,82
2,60,100,62
2,63,84,74
2,67,88,12
2,32,76,38
2,63,92,0
2,68,108,0
2,60,88,70
2,63,88,66
2,68,100,0
2,44,116,12
2,60,108,4
2,63,84,62
2,68,80,0
2,34,80,50
2,53,92,0
2,58,100,0
2,63,84,0
2,53,80,74
2,58,100,72
2,62,124,0
2,46,100,12
2,53,72,4
2,58,84,60
2,63,116,0
2,27,92,48
2,55,88,0
2,58,108,0
2,63,92,0
2,55,62,64
2,55,84,24
2,58,116,0
2,63,116,0
2,39,100,18
2,55,88,8
2,58,92,34
2,63,100,62
2,31,72,32
2,43,72,0
2,55,62,0
2,58,88,0
2,65,116,0
2,55,84,8
2,58,100,86
2,63,108,0
2,43,80,10
2,55,100,96
2,58,100,84
2,62,116,0
2,32,84,94
2,56,84,0
2,60,108,0
2,63,62,0
2,60,92,76
2,60,88,32
2,63,100,0
2,68,108,0
2,44,92,10
2,60,108,0
2,63,100,96
2,68,84,44
2,29,84,40
2,41,80,0
2,60,84,0
2,65,100,0
2,68,100,0
2,60,88,84
2,65,108,76
2,67,100,0
2,41,100,2
2,60,100,96
2,65,100,60
2,68,92,0
2,27,76,48
2,39,62,0
2,63,88,0
2,67,84,0
