track,note,velocity,time
1,34,90,9004
1,34,90,24
1,34,90,74
1,34,90,122
1,34,90,122
1,34,90,26
1,34,90,24
1,34,90,74
1,34,90,26
1,34,90,24
1,34,90,74
1,34,90,26
1,34,90,24
1,34,90,74
1,34,90,122
1,34,90,122
1,34,90,26
1,34,90,24
1,34,90,74
1,34,90,26
1,34,90,24
1,34,90,74
1,34,90,26
1,34,90,24
1,34,90,74
1,34,90,122
1,34,90,122
1,34,90,26
1,34,90,24
1,34,90,74
1,34,90,26
1,34,90,24
1,34,90,74
1,34,90,26
1,34,90,24
1,34,90,74
1,34,90,122
1,34,90,122
1,34,90,26
1,34,90,698
1,34,90,24
1,34,90,74
1,34,90,122
1,34,90,122
1,34,90,26
1,34,90,24
1,34,90,74
1,34,90,26
1,34,90,24
1,34,90,74
1,34,90,26
1,34,90,24
1,34,90,74
1,34,90,122
1,34,90,122
1,32,90,26
1,32,90,24
1,32,90,74
1,32,90,26
1,32,90,24
1,32,90,74
1,32,90,26
1,32,90,24
1,32,90,74
1,32,90,122
1,32,90,122
1,32,90,26
1,32,90,24
1,32,90,74
1,32,90,26
1,32,90,24
1,32,90,74
1,36,90,26
1,36,90,24
1,36,90,74
1,36,90,122
1,36,90,122
1,36,90,26
1,36,90,24
1,36,90,74
1,36,90,26
1,36,90,24
1,36,90,74
1,34,90,26
1,34,90,24
1,34,90,74
1,34,90,122
1,34,90,122
1,34,90,26
1,34,90,24
1,34,90,74
1,34,90,26
1,34,90,24
1,34,90,74
1,34,90,26
1,34,90,24
1,34,90,74
1,34,90,122
1,34,90,122
1,32,90,26
1,32,90,24
1,32,90,74
1,32,90,26
1,32,90,24
1,32,90,74
1,32,90,26
1,32,90,24
1,32,90,74
1,32,90,122
1,32,90,122
1,32,90,26
1,32,90,24
1,32,90,74
1,32,90,26
1,32,90,24
1,32,90,74
1,36,90,26
1,36,90,24
1,36,90,74
1,36,90,122
1,36,90,122
1,36,90,26
1,36,90,24
1,36,90,74
1,36,90,26
1,36,90,24
1,36,90,74
1,34,90,26
1,34,90,24
1,34,90,74
1,34,90,122
1,34,90,122
1,34,90,26
1,34,90,24
1,34,90,74
1,34,90,26
1,34,90,24
1,34,90,74
1,34,90,26
1,34,90,24
1,34,90,74
1,34,90,122
1,34,90,122
1,32,90,26
1,32,90,24
1,32,90,74
1,32,90,26
1,32,90,24
1,32,90,74
1,32,90,26
1,32,90,24
1,32,90,74
1,32,90,122
1,32,90,122
1,32,90,26
1,32,90,24
1,32,90,74
1,32,90,26
1,32,90,24
1,32,90,74
1,36,90,26
1,36,90,24
1,36,90,74
1,36,90,122
1,36,90,122
1,36,90,26
1,32,90,698
1,32,90,24
1,32,90,74
1,32,90,122
1,32,90,122
1,36,90,26
1,36,90,24
1,36,90,74
1,36,90,122
1,36,90,122
1,34,90,26
1,34,90,24
1,34,90,74
1,34,90,122
1,34,90,122
1,29,90,26
1,29,90,24
1,29,90,74
1,29,90,26
1,29,90,24
1,29,90,74
1,29,90,26
1,29,90,24
1,29,90,74
1,29,90,122
1,29,90,122
1,32,90,26
1,32,90,24
1,32,90,74
1,32,90,122
1,32,90,122
1,36,90,26
1,36,90,24
1,36,90,74
1,36,90,122
1,36,90,122
1,34,90,26
1,34,90,24
1,34,90,74
1,34,90,122
1,34,90,122
1,29,90,26
1,29,90,24
1,29,90,74
1,29,90,26
1,29,90,24
1,29,90,74
1,29,90,26
1,36,90,698
1,35,90,602
1,34,90,26
1,36,90,698
1,35,90,602
1,34,90,26
1,36,90,698
1,35,90,602
1,34,90,26
1,36,90,698
1,35,90,602
1,34,90,26
1,34,90,698
1,34,90,24
1,34,90,74
1,34,90,122
1,34,90,122
1,34,90,26
1,34,90,24
1,34,90,74
1,34,90,26
1,34,90,24
1,34,90,74
1,34,90,26
1,34,90,24
1,34,90,74
1,34,90,122
1,34,90,122
1,32,90,26
1,32,90,24
1,32,90,74
1,32,90,26
1,32,90,24
1,32,90,74
1,32,90,26
1,32,90,24
1,32,90,74
1,32,90,122
1,32,90,122
1,32,90,26
1,32,90,24
1,32,90,74
1,32,90,26
1,32,90,24
1,32,90,74
1,36,90,26
1,36,90,24
1,36,90,74
1,36,90,122
1,36,90,122
1,36,90,26
1,36,90,24
1,36,90,74
1,36,90,26
1,36,90,24
1,36,90,74
1,34,90,26
1,34,90,24
1,34,90,74
1,34,90,122
1,34,90,122
1,34,90,26
1,34,90,24
1,34,90,74
1,34,90,26
1,34,90,24
1,34,90,74
1,34,90,26
1,34,90,24
1,34,90,74
1,34,90,122
1,34,90,122
1,32,90,26
1,32,90,24
1,32,90,74
1,32,90,26
1,32,90,24
1,32,90,74
1,32,90,26
1,32,90,24
1,32,90,74
1,32,90,122
1,32,90,122
1,32,90,26
1,32,90,24
1,32,90,74
1,32,90,26
1,32,90,24
1,32,90,74
1,36,90,26
1,36,90,24
1,36,90,74
1,32,90,1178
1,32,90,24
1,32,90,74
1,32,90,122
1,32,90,122
1,36,90,26
1,36,90,24
1,36,90,74
1,36,90,122
1,36,90,122
1,34,90,26
1,34,90,24
1,34,90,74
1,34,90,122
1,34,90,122
1,29,90,26
1,29,90,24
1,29,90,74
1,29,90,26
1,29,90,24
1,29,90,74
1,29,90,26
1,29,90,24
1,29,90,74
1,29,90,122
1,29,90,122
1,32,90,26
1,32,90,24
1,32,90,74
1,32,90,122
1,32,90,122
1,36,90,26
1,36,90,24
1,36,90,74
1,36,90,122
1,36,90,122
1,34,90,26
1,34,90,24
1,34,90,74
1,34,90,122
1,34,90,122
1,29,90,26
1,29,90,24
1,29,90,74
1,29,90,26
1,29,90,24
1,29,90,74
1,29,90,26
1,29,90,24
1,29,90,74
1,29,90,122
1,29,90,122
1,32,90,26
1,32,90,24
1,32,90,74
1,32,90,122
1,32,90,122
1,36,90,26
1,36,90,24
1,36,90,74
1,36,90,122
1,36,90,122
1,34,90,26
1,34,90,24
1,34,90,74
1,34,90,122
1,34,90,122
1,29,90,26
1,29,90,24
1,29,90,74
1,29,90,26
1,29,90,24
1,29,90,74
1,29,90,26
1,29,90,24
1,29,90,74
1,29,90,122
1,29,90,122
1,32,90,26
1,32,90,24
1,32,90,74
1,32,90,122
1,32,90,122
1,36,90,26
1,36,90,24
1,36,90,74
1,36,90,122
1,36,90,122
1,34,90,26
1,34,90,24
1,34,90,74
1,34,90,122
1,34,90,122
1,29,90,26
1,29,90,24
1,29,90,74
1,29,90,26
1,29,90,24
1,29,90,74
1,29,90,26
1,29,90,24
1,29,90,74
1,29,90,122
1,29,90,122
1,32,90,6170
1,32,90,24
1,32,90,74
1,32,90,122
1,32,90,122
1,36,90,26
1,36,90,24
1,36,90,74
1,36,90,122
1,36,90,122
1,34,90,26
1,34,90,24
1,34,90,74
1,34,90,122
1,34,90,122
1,29,90,26
1,29,90,24
1,29,90,74
1,29,90,26
1,29,90,24
1,29,90,74
1,29,90,26
1,29,90,24
1,29,90,74
1,29,90,122
1,29,90,122
1,32,90,26
1,32,90,24
1,32,90,74
1,32,90,122
1,32,90,122
1,36,90,26
1,36,90,24
1,36,90,74
1,36,90,122
1,36,90,122
1,34,90,26
1,34,90,24
1,34,90,74
1,34,90,122
1,34,90,122
1,29,90,26
1,29,90,24
1,29,90,74
1,29,90,26
1,29,90,24
1,29,90,74
1,29,90,26
1,29,90,24
1,29,90,74
1,29,90,122
1,29,90,122
1,32,90,26
1,32,90,24
1,32,90,74
1,32,90,122
1,32,90,122
1,36,90,26
1,36,90,24
1,36,90,74
1,36,90,122
1,36,90,122
1,34,90,26
1,34,90,24
1,34,90,74
1,34,90,122
1,34,90,122
1,29,90,26
1,29,90,24
1,29,90,74
1,29,90,26
1,29,90,24
1,29,90,74
1,29,90,26
1,29,90,24
1,29,90,74
1,29,90,122
1,29,90,122
1,32,90,26
1,32,90,24
1,32,90,74
1,32,90,122
1,32,90,122
1,36,90,26
1,36,90,24
1,36,90,74
1,36,90,122
1,36,90,122
1,34,90,26
1,34,90,24
1,34,90,74
1,34,90,122
1,34,90,122
1,29,90,26
1,29,90,24
1,29,90,74
1,29,90,26
1,29,90,24
1,29,90,74
1,29,90,26
1,29,90,24
1,29,90,74
1,29,90,122
1,29,90,122
1,32,90,794
1,32,90,24
1,32,90,74
1,32,90,122
1,32,90,122
1,36,90,26
1,36,90,24
1,36,90,74
1,36,90,122
1,36,90,122
1,34,90,26
1,34,90,24
1,34,90,74
1,34,90,122
1,34,90,122
1,29,90,26
1,29,90,24
1,29,90,74
1,29,90,26
1,29,90,24
1,29,90,74
1,29,90,26
1,29,90,24
1,29,90,74
1,29,90,122
1,29,90,122
1,32,90,26
1,32,90,24
1,32,90,74
1,32,90,122
1,32,90,122
1,36,90,26
1,36,90,24
1,36,90,74
1,36,90,122
1,36,90,122
1,34,90,26
1,34,90,24
1,34,90,74
1,34,90,122
1,34,90,122
1,29,90,26
1,29,90,24
1,29,90,74
1,29,90,26
1,29,90,24
1,29,90,74
1,29,90,26
1,29,90,24
1,29,90,74
1,29,90,122
1,29,90,122
1,32,90,26
1,32,90,24
1,32,90,74
1,32,90,122
1,32,90,122
1,36,90,26
1,36,90,24
1,36,90,74
1,36,90,122
1,36,90,122
1,34,90,26
1,34,90,24
1,34,90,74
1,34,90,122
1,34,90,122
1,29,90,26
1,29,90,24
1,29,90,74
1,29,90,26
1,29,90,24
1,29,90,74
1,29,90,26
1,29,90,24
1,29,90,74
1,29,90,122
1,29,90,122
1,32,90,26
1,32,90,24
1,32,90,74
1,32,90,122
1,32,90,122
1,36,90,26
1,36,90,24
1,36,90,74
1,36,90,122
1,36,90,122
1,34,90,26
1,34,90,24
1,34,90,74
1,34,90,122
1,34,90,122
1,29,90,26
1,29,90,24
1,29,90,74
1,29,90,26
1,29,90,24
1,29,90,74
1,32,90,794
1,32,90,24
1,32,90,74
1,32,90,122
1,32,90,122
1,36,90,26
1,36,90,24
1,36,90,74
1,36,90,122
1,36,90,122
1,34,90,26
1,34,90,24
1,34,90,74
1,34,90,122
1,34,90,122
1,29,90,26
1,29,90,24
1,29,90,74
1,29,90,26
1,29,90,24
1,29,90,74
1,29,90,26
1,29,90,24
1,29,90,74
1,29,90,122
1,29,90,122
1,32,90,26
1,32,90,24
1,32,90,74
1,32,90,122
1,32,90,122
1,36,90,26
1,36,90,24
1,36,90,74
1,36,90,122
1,36,90,122
1,34,90,26
1,34,90,24
1,34,90,74
1,34,90,122
1,34,90,122
1,29,90,26
1,29,90,24
1,29,90,74
1,29,90,26
1,29,90,24
1,29,90,74
1,29,90,26
1,29,90,24
1,29,90,74
1,29,90,122
1,29,90,122
1,36,87,26
2,58,100,8994
2,63,100,51
2,65,100,51
2,63,100,51
2,68,100,3
2,67,100,51
2,65,100,51
2,67,100,51
2,63,100,3
2,58,100,51
2,63,100,51
2,65,100,51
2,63,100,51
2,68,100,3
2,67,100,51
2,65,100,51
2,67,100,51
2,63,100,3
2,58,100,51
2,63,100,51
2,65,100,51
2,63,100,51
2,68,100,3
2,67,100,51
2,65,100,51
2,67,100,51
2,63,100,3
2,58,100,51
2,63,100,51
2,65,100,51
2,63,100,51
2,68,100,3
2,67,100,51
2,65,100,51
2,67,100,51
2,63,100,3
2,58,100,51
2,63,100,51
2,65,100,51
2,63,100,51
2,68,100,3
2,67,100,51
2,65,100,51
2,67,100,51
2,63,100,3
2,58,100,51
2,63,100,51
2,65,100,51
2,63,100,51
2,68,100,3
2,67,100,51
2,65,100,51
2,67,100,51
2,63,100,3
2,58,100,51
2,63,100,51
2,65,100,51
2,63,100,51
2,68,100,3
2,67,100,51
2,65,100,51
2,67,100,51
2,63,100,3
2,58,100,51
2,58,100,723
2,63,100,51
2,65,100,51
2,63,100,51
2,68,100,3
2,67,100,51
2,65,100,51
2,67,100,51
2,63,100,3
2,58,100,51
2,63,100,51
2,65,100,51
2,63,100,51
2,68,100,3
2,67,100,51
2,65,100,51
2,67,100,51
2,63,100,3
2,58,100,51
2,63,100,51
2,65,100,51
2,63,100,51
2,68,100,3
2,67,100,51
2,65,100,51
2,67,100,51
2,63,100,3
2,56,100,51
2,63,100,51
2,65,100,51
2,63,100,51
2,68,100,3
2,67,100,51
2,65,100,51
2,67,100,51
2,63,100,3
2,56,100,51
2,63,100,51
2,65,100,51
2,63,100,51
2,68,100,3
2,67,100,51
2,65,100,51
2,67,100,51
2,63,100,3
2,56,100,51
2,63,100,51
2,65,100,51
2,63,100,51
2,68,100,3
2,67,100,51
2,65,100,51
2,67,100,51
2,63,100,3
2,60,100,51
2,63,100,51
2,65,100,51
2,63,100,51
2,68,100,3
2,67,100,51
2,65,100,51
2,67,100,51
2,63,100,3
2,60,100,51
2,63,100,51
2,65,100,51
2,63,100,51
2,68,100,3
2,67,100,51
2,65,100,51
2,67,100,51
2,63,100,3
2,56,100,12339
2,63,100,51
2,65,100,51
2,63,100,51
2,68,100,3
2,67,100,51
2,65,100,51
2,67,100,51
2,63,100,3
2,60,100,51
2,63,100,51
2,65,100,51
2,63,100,51
2,68,100,3
2,67,100,51
2,65,100,51
2,67,100,51
2,63,100,3
2,58,100,51
2,63,100,51
2,65,100,51
2,63,100,51
2,68,100,3
2,67,100,51
2,65,100,51
2,67,100,51
2,63,100,3
2,53,100,51
2,63,100,51
2,65,100,51
2,63,100,51
2,68,100,3
2,67,100,51
2,65,100,51
2,67,100,51
2,63,100,3
2,53,100,51
2,63,100,51
2,65,100,51
2,63,100,51
2,68,100,3
2,67,100,51
2,65,100,51
2,67,100,51
2,63,100,3
2,56,100,51
2,63,100,51
2,65,100,51
2,63,100,51
2,68,100,3
2,67,100,51
2,65,100,51
2,67,100,51
2,63,100,3
2,60,100,51
2,63,100,51
2,65,100,51
2,63,100,51
2,68,100,3
2,67,100,51
2,65,100,51
2,67,100,51
2,63,100,3
2,58,100,51
2,63,100,51
2,65,100,51
2,63,100,51
2,68,100,3
2,67,100,51
2,65,100,51
2,67,100,51
2,63,100,3
2,53,100,51
2,63,100,51
2,65,100,51
2,63,100,51
2,68,100,3
2,67,100,51
2,65,100,51
2,67,100,51
2,63,100,3
2,53,100,51
2,63,100,51
2,65,100,51
2,63,100,51
2,68,100,3
2,67,100,51
2,65,100,51
2,67,100,51
2,63,100,3
2,56,100,18483
2,63,100,51
2,65,100,51
2,63,100,51
2,68,100,3
2,67,100,51
2,65,100,51
2,67,100,51
2,63,100,3
2,60,100,51
2,63,100,51
2,65,100,51
2,63,100,51
2,68,100,3
2,67,100,51
2,65,100,51
2,67,100,51
2,63,100,3
2,58,100,51
2,63,100,51
2,65,100,51
2,63,100,51
2,68,100,3
2,67,100,51
2,65,100,51
2,67,100,51
2,63,100,3
2,53,100,51
2,63,100,51
2,65,100,51
2,63,100,51
2,68,100,3
2,67,100,51
2,65,100,51
2,67,100,51
2,63,100,3
2,53,100,51
2,63,100,51
2,65,100,51
2,63,100,51
2,68,100,3
2,67,100,51
2,65,100,51
2,67,100,51
2,63,100,3
2,56,100,51
2,63,100,51
2,65,100,51
2,63,100,51
2,68,100,3
2,67,100,51
2,65,100,51
2,67,100,51
2,63,100,3
2,60,100,51
2,63,100,51
2,65,100,51
2,63,100,51
2,68,100,3
2,67,100,51
2,65,100,51
2,67,100,51
2,63,100,3
2,58,100,51
2,63,100,51
2,65,100,51
2,63,100,51
2,68,100,3
2,67,100,51
2,65,100,51
2,67,100,51
2,63,100,3
2,53,100,51
2,63,100,51
2,65,100,51
2,63,100,51
2,68,100,3
2,67,100,51
2,65,100,51
2,67,100,51
2,63,100,3
2,53,100,51
2,63,100,51
2,65,100,51
2,63,100,51
2,68,100,3
2,67,100,51
2,65,100,51
2,67,100,51
2,63,100,3
2,56,100,51
2,63,100,51
2,65,100,51
2,63,100,51
2,68,100,3
2,67,100,51
2,65,100,51
2,67,100,51
2,63,100,3
2,60,100,51
2,63,100,51
2,65,100,51
2,63,100,51
2,68,100,3
2,67,100,51
2,65,100,51
2,67,100,51
2,63,100,3
