track,note,velocity,time
1,36,96,14250
1,42,63,96
1,36,0,62
1,42,0,24
1,40,105,14
1,40,0,68
1,40,104,24
1,42,87,10
1,42,0,96
1,40,0,64
1,42,72,24
1,40,108,8
1,42,0,66
1,40,0,98
1,42,91,18
1,36,76,2
1,49,100,2
1,49,0,2
1,42,0,64
1,42,66,124
1,42,0,76
1,40,107,118
1,42,78,2
1,36,0,38
1,42,0,52
1,42,61,96
1,42,0,56
1,40,0,124
1,36,102,14
1,42,83,6
1,42,0,82
1,36,0,40
1,42,69,62
1,36,80,0
1,42,0,98
1,40,104,98
1,42,87,2
1,36,0,14
1,42,0,76
1,42,82,104
1,42,0,64
1,40,0,50
1,36,80,76
1,42,90,0
1,42,0,58
1,42,65,130
1,42,0,92
1,40,112,96
1,42,78,10
1,36,0,30
1,42,0,60
1,42,54,100
1,42,0,52
1,40,0,120
1,42,90,14
1,36,90,4
1,42,0,86
1,36,0,50
1,42,68,50
1,36,86,4
1,42,0,84
1,40,107,104
1,42,91,6
1,36,0,22
1,42,0,72
1,42,73,94
1,42,0,80
1,40,0,40
1,42,87,70
1,36,83,10
1,42,0,66
1,42,61,124
1,42,0,76
1,40,108,116
1,42,90,0
1,36,0,36
1,42,0,58
1,42,63,100
1,42,0,58
1,40,0,108
1,42,84,16
1,36,94,6
1,42,0,84
1,36,0,52
1,42,67,52
1,36,82,6
1,42,0,92
1,42,93,94
1,40,113,8
1,36,0,14
1,42,0,68
1,42,76,102
1,42,0,78
1,40,0,44
1,42,78,70
1,36,99,0
1,42,0,80
1,42,64,112
1,42,0,86
1,36,0,82
1,36,98,28
1,42,85,2
1,42,0,92
1,36,0,76
1,42,55,16
1,40,125,8
1,42,0,50
1,40,0,104
1,42,92,36
1,42,0,76
1,36,100,22
1,42,62,92
1,36,0,70
1,42,0,18
1,40,106,6
1,40,0,78
1,42,81,16
1,40,107,10
1,42,0,82
1,40,0,72
1,42,80,30
1,40,109,6
1,42,0,72
1,40,0,92
1,49,91,16
1,36,88,4
1,51,84,2
1,49,0,6
1,54,106,2
1,54,0,144
1,51,0,0
1,54,100,38
1,51,78,8
1,54,0,144
1,51,0,8
1,54,109,32
1,40,107,2
1,36,0,34
1,54,0,132
1,54,95,34
1,51,81,0
1,54,0,136
1,51,0,8
1,40,0,22
1,36,89,16
1,51,77,0
1,54,108,10
1,36,0,132
1,51,0,12
1,54,0,8
1,54,102,34
1,36,77,2
1,51,79,2
1,54,0,146
1,51,0,8
1,40,112,36
1,54,117,4
1,36,0,22
1,54,0,120
1,51,74,40
1,36,88,2
1,54,100,6
1,40,0,108
1,54,0,40
1,51,0,4
1,36,0,10
1,36,81,24
1,51,99,6
1,54,106,2
1,51,0,154
1,54,0,24
1,54,80,12
1,51,92,2
1,51,0,148
1,54,0,8
1,54,109,28
1,40,112,6
1,36,0,44
1,54,0,124
1,51,98,20
1,36,77,2
1,54,79,4
1,36,0,146
1,51,0,6
1,54,0,6
1,40,0,16
1,51,98,10
1,36,100,8
1,54,104,0
1,36,0,126
1,51,0,34
1,36,78,22
1,54,0,2
1,51,97,4
1,54,79,2
1,54,0,144
1,51,0,2
1,54,108,44
1,40,111,2
1,36,0,24
1,54,0,154
1,54,78,10
1,36,88,4
1,51,98,0
1,40,0,126
1,36,0,6
1,54,0,12
1,51,0,10
1,51,73,32
1,36,76,0
1,54,109,4
1,54,0,152
1,51,0,10
1,51,78,24
1,54,91,8
1,54,0,148
1,51,0,8
1,40,117,30
1,54,112,6
1,36,0,36
1,54,0,122
1,54,98,32
1,51,83,4
1,54,0,148
1,51,0,12
1,40,0,24
1,54,108,2
1,36,98,2
1,51,83,4
1,36,0,120
1,54,0,32
1,51,0,2
1,36,77,28
1,54,89,2
1,51,85,4
1,54,0,138
1,51,0,12
1,40,110,40
1,54,109,6
1,36,0,24
1,54,0,120
1,54,91,42
1,51,82,2
1,36,98,4
1,40,0,116
1,54,0,28
1,36,0,2
1,51,0,2
1,36,86,40
1,54,112,0
1,51,98,2
1,51,0,156
1,54,0,22
1,54,80,14
1,51,88,2
1,51,0,146
1,54,0,0
1,40,115,38
1,54,112,4
1,36,0,2
1,54,0,176
1,51,101,12
1,54,79,6
1,36,74,0
1,36,0,140
1,54,0,12
1,51,0,0
1,40,0,18
1,54,104,12
1,36,91,8
1,51,98,2
1,36,0,126
1,51,0,32
1,54,0,12
1,54,72,14
1,36,86,4
1,51,90,4
1,51,0,148
1,54,0,6
1,40,105,36
1,54,114,0
1,36,0,24
1,54,0,148
1,51,93,18
1,54,74,0
1,36,89,2
1,40,0,110
1,36,0,26
1,54,0,8
1,51,0,14
1,42,79,28
1,36,94,6
1,42,0,64
1,42,66,120
1,42,0,98
1,36,0,72
1,42,85,30
1,36,95,2
1,42,0,80
1,36,0,96
1,40,120,8
1,42,51,4
1,42,0,64
1,40,0,82
1,42,87,42
1,42,0,92
1,36,98,12
1,42,59,92
1,36,0,58
1,40,101,28
1,42,0,6
1,40,0,84
1,42,85,14
1,40,108,0
1,42,0,98
1,40,0,70
1,42,81,22
1,40,117,4
1,42,0,66
1,40,0,104
1,36,78,18
1,49,90,4
1,51,79,0
1,49,0,2
1,54,118,0
1,54,0,154
1,51,0,0
1,54,92,38
1,51,83,0
1,54,0,144
1,51,0,18
1,54,110,22
1,40,112,0
1,36,0,42
1,54,0,116
1,51,82,38
1,54,94,2
1,54,0,138
1,51,0,18
1,40,0,24
1,51,80,8
1,36,100,2
1,54,115,0
1,36,0,138
1,51,0,14
1,54,0,4
1,51,76,32
1,54,99,4
1,36,76,2
1,54,0,148
1,51,0,10
1,40,109,32
1,54,107,2
1,36,0,24
1,54,0,136
1,36,102,26
1,54,92,6
1,51,76,0
1,40,0,114
1,54,0,36
1,36,0,2
1,51,0,0
1,36,81,34
1,54,110,6
1,51,81,4
1,51,0,146
1,54,0,2
1,54,92,34
1,51,78,6
1,54,0,146
1,51,0,10
1,40,115,36
1,54,109,4
1,36,0,30
1,54,0,112
1,54,93,44
1,51,79,2
1,54,0,136
1,51,0,14
1,40,0,36
1,54,108,2
1,51,81,8
1,36,101,0
1,36,0,130
1,54,0,26
1,51,0,4
1,36,84,28
1,51,85,0
1,54,93,4
1,54,0,138
1,51,0,10
1,54,108,34
1,40,105,6
1,36,0,24
1,54,0,130
1,51,75,38
1,54,101,2
1,36,102,2
1,40,0,110
1,54,0,38
1,36,0,10
1,51,0,2
1,51,79,30
1,54,104,0
1,36,79,0
1,54,0,158
1,51,0,4
1,54,93,28
1,51,72,2
1,51,0,144
1,54,0,6
1,54,117,34
1,40,112,8
1,36,0,40
1,54,0,112
1,54,102,34
1,51,79,4
1,54,0,134
1,51,0,20
1,40,0,22
1,54,118,16
1,36,101,4
1,51,74,0
1,36,0,132
1,51,0,14
1,54,0,10
1,36,86,32
1,51,79,2
1,54,102,2
1,54,0,136
1,51,0,12
1,54,104,40
1,40,118,2
1,36,0,26
1,54,0,126
1,36,92,34
1,51,83,0
1,54,93,4
1,40,0,122
1,54,0,28
1,51,0,4
1,36,0,8
1,36,91,24
1,42,82,8
1,42,0,68
1,42,62,124
1,42,0,88
1,36,0,62
1,42,88,34
1,40,111,0
1,42,0,98
1,42,55,96
1,42,0,54
1,40,0,136
1,42,93,2
1,36,99,6
1,42,0,88
1,36,0,64
1,40,127,32
1,42,71,6
1,42,0,82
1,40,0,70
1,40,127,38
1,42,81,2
1,42,0,98
1,36,122,92
1,42,83,0
1,42,0,74
1,40,0,0
1,36,0,66
1,51,80,48
1,54,114,0
1,49,93,0
1,36,84,4
1,49,0,4
1,51,0,152
1,54,0,0
1,51,73,38
1,54,93,2
1,51,0,144
1,54,0,2
1,40,107,44
1,54,112,4
1,36,0,42
1,54,0,108
1,51,81,36
1,54,99,2
1,54,0,134
1,51,0,20
1,40,0,34
1,36,102,0
1,51,79,0
1,54,108,0
1,36,0,128
1,54,0,32
1,51,0,8
1,36,85,24
1,51,81,4
1,54,91,4
1,54,0,134
1,51,0,22
1,54,110,26
1,40,108,6
1,36,0,14
1,54,0,136
1,54,101,38
1,51,73,0
1,36,101,4
1,40,0,122
1,54,0,22
1,51,0,6
1,36,0,6
1,36,76,32
1,54,110,0
1,51,101,4
1,51,0,156
1,54,0,24
1,51,88,12
1,54,85,4
1,51,0,144
1,54,0,2
1,54,116,38
1,40,110,2
1,36,0,48
1,54,0,140
1,54,83,0
1,36,74,0
1,54,0,2
1,51,99,6
1,36,0,144
1,51,0,16
1,40,0,14
1,36,96,14
1,51,95,2
1,54,105,2
1,36,0,132
1,51,0,28
1,54,0,22
1,51,94,2
1,36,77,0
1,54,77,2
1,51,0,154
1,54,0,14
1,40,104,30
1,54,111,2
1,36,0,18
1,54,0,160
1,54,82,4
1,51,90,2
1,36,89,4
1,40,0,116
1,36,0,24
1,51,0,8
1,54,0,6
1,54,111,34
1,51,88,0
1,36,87,2
1,51,0,156
1,54,0,28
1,54,78,4
1,51,94,4
1,51,0,148
1,54,0,10
1,40,108,34
1,54,114,2
1,36,0,40
1,54,0,140
1,36,78,8
1,51,89,6
1,54,74,2
1,36,0,138
1,54,0,12
1,51,0,2
1,40,0,18
1,51,88,12
1,36,89,6
1,54,110,2
1,36,0,128
1,51,0,22
1,54,0,24
1,36,80,10
1,54,72,8
1,51,95,0
1,51,0,156
1,54,0,0
1,54,107,28
1,40,114,8
1,36,0,20
1,54,0,150
1,36,93,14
1,51,89,6
1,54,77,4
1,40,0,114
1,36,0,30
1,51,0,8
1,54,0,2
1,36,88,30
1,51,84,0
1,54,108,0
1,54,0,150
1,51,0,10
1,54,102,32
1,51,84,4
1,54,0,152
1,51,0,12
1,54,113,22
1,40,105,8
1,36,0,34
1,54,0,110
1,51,73,42
1,54,91,6
1,54,0,142
1,51,0,18
1,40,0,18
1,36,88,6
1,51,80,2
1,54,111,4
1,36,0,134
1,54,0,18
1,51,0,2
1,51,78,36
1,54,102,0
1,36,79,0
1,51,0,148
1,54,0,6
1,40,116,36
1,54,112,6
1,36,0,22
1,54,0,136
1,36,88,26
1,54,100,2
1,51,80,6
1,40,0,118
1,36,0,28
1,54,0,0
1,51,0,10
1,54,113,30
1,51,75,4
1,36,84,4
1,54,0,144
1,51,0,6
1,51,72,38
1,54,94,2
1,54,0,134
1,51,0,16
1,54,116,36
1,40,117,0
1,36,0,32
1,54,0,132
1,54,90,28
1,51,81,2
1,54,0,142
1,51,0,10
1,40,0,32
1,51,86,6
1,54,111,2
1,36,94,2
1,36,0,122
1,54,0,36
1,51,0,2
1,54,90,30
1,51,80,4
1,36,81,2
1,54,0,138
1,51,0,16
1,54,117,28
1,40,115,0
1,36,0,32
1,54,0,126
1,36,98,36
1,54,92,2
1,51,81,4
1,40,0,114
1,54,0,20
1,36,0,12
1,51,0,6
1,42,80,36
1,36,87,6
1,42,0,56
1,42,63,126
1,42,0,92
1,42,86,100
1,36,0,44
1,42,0,46
1,42,64,104
1,42,0,58
1,42,91,140
1,36,100,2
1,42,0,76
1,36,0,46
1,42,57,62
1,42,0,98
1,42,91,102
1,42,0,88
1,42,73,102
1,42,0,74
1,54,117,110
1,36,77,0
1,51,78,0
1,51,0,150
1,54,0,2
1,51,76,34
1,54,97,6
1,54,0,146
1,51,0,12
1,40,118,28
1,54,105,6
1,36,0,28
1,54,0,130
1,54,94,28
1,51,80,2
1,54,0,148
1,51,0,16
1,40,0,26
1,54,111,0
1,51,77,2
1,36,91,8
1,36,0,122
1,54,0,20
1,51,0,12
1,36,84,32
1,51,77,0
1,54,93,6
1,54,0,148
1,51,0,12
1,54,114,32
1,40,110,0
1,36,0,26
1,54,0,130
1,54,92,28
1,51,86,6
1,36,95,2
1,40,0,120
1,54,0,24
1,51,0,2
1,36,0,12
1,36,78,24
1,51,81,2
1,54,112,2
1,51,0,148
1,54,0,4
1,54,99,42
1,51,77,2
1,54,0,134
1,51,0,28
1,40,115,24
1,54,116,4
1,36,0,44
1,54,0,120
1,54,94,24
1,51,86,8
1,54,0,148
1,51,0,8
1,40,0,20
1,54,111,6
1,51,80,4
1,36,96,2
1,36,0,124
1,54,0,30
1,51,0,10
1,51,82,22
1,36,82,6
1,54,99,2
1,54,0,142
1,51,0,4
1,54,104,40
1,40,108,6
1,36,0,18
1,54,0,126
1,51,86,42
1,36,100,0
1,54,99,2
1,40,0,128
1,51,0,22
1,54,0,0
1,36,0,6
1,36,89,34
1,51,84,8
1,54,106,0
1,54,0,142
1,51,0,18
1,51,84,22
1,54,98,0
1,54,0,156
1,51,0,10
1,40,105,26
1,54,115,0
1,36,0,38
1,54,0,124
1,51,83,36
1,54,90,4
1,54,0,140
1,51,0,18
1,40,0,20
1,54,107,6
1,36,90,4
1,51,86,4
1,36,0,136
1,54,0,12
1,51,0,4
1,36,77,30
1,51,75,8
1,54,92,2
1,54,0,138
1,51,0,12
1,40,109,32
1,54,114,4
1,36,0,18
1,54,0,140
1,36,102,30
1,51,73,8
1,54,100,2
1,40,0,110
1,36,0,32
1,54,0,6
1,51,0,12
1,51,75,26
1,54,104,4
1,36,89,0
1,51,0,144
1,54,0,14
1,54,93,32
1,51,86,0
1,54,0,140
1,51,0,18
1,40,113,32
1,54,112,6
1,36,0,42
1,54,0,114
1,51,75,28
1,54,98,0
1,54,0,140
1,51,0,10
1,40,0,36
1,36,89,4
1,54,116,2
1,51,75,4
1,36,0,134
1,51,0,20
1,54,0,8
1,36,77,28
1,54,96,2
1,51,86,4
1,54,0,142
1,51,0,2
1,40,113,42
1,54,110,0
1,36,0,28
1,54,0,128
1,54,89,36
1,36,102,2
1,51,79,2
1,40,0,112
1,54,0,28
1,36,0,10
1,51,0,0
1,54,104,36
1,36,82,6
1,51,84,2
1,54,0,158
1,51,0,2
1,54,88,28
1,51,81,0
1,54,0,144
1,51,0,10
1,40,111,32
1,54,117,2
1,36,0,50
1,54,0,118
1,51,80,22
1,54,88,2
1,54,0,144
1,51,0,20
1,40,0,22
1,36,91,4
1,54,112,8
1,51,86,0
1,36,0,120
1,51,0,38
1,54,0,2
1,51,79,28
1,54,102,2
1,36,79,0
1,54,0,140
1,51,0,10
1,40,118,38
1,54,108,2
1,36,0,16
1,54,0,140
1,36,102,32
1,51,83,0
1,54,102,6
1,40,0,120
1,54,0,28
1,36,0,8
1,51,0,2
1,54,117,30
1,36,84,2
1,51,80,2
1,51,0,148
1,54,0,4
1,51,85,36
1,54,96,6
1,54,0,134
1,51,0,22
1,54,112,28
1,40,105,8
1,36,0,34
1,54,0,128
1,51,79,26
1,54,101,0
1,54,0,142
1,51,0,20
1,40,0,14
1,54,111,12
1,36,97,8
1,51,84,2
1,36,0,126
1,54,0,24
1,51,0,8
1,51,85,26
1,36,78,4
1,54,89,4
1,54,0,148
1,51,0,12
1,54,116,26
1,40,112,4
1,36,0,26
1,54,0,134
1,54,100,28
1,51,83,0
1,36,98,4
1,40,0,116
1,51,0,30
1,54,0,4
1,36,0,6
1,36,81,28
1,51,83,8
1,54,106,2
1,54,0,152
1,51,0,8
1,51,74,24
1,54,98,6
1,54,0,150
1,51,0,4
1,54,115,34
1,40,105,6
1,36,0,28
1,54,0,116
1,51,86,44
1,54,100,2
1,54,0,136
1,51,0,26
1,40,0,20
1,36,89,10
1,51,86,0
1,54,114,2
1,36,0,118
1,54,0,32
1,51,0,6
1,54,89,26
1,36,85,0
1,51,86,2
1,54,0,154
1,51,0,8
1,40,105,32
1,54,118,4
1,36,0,26
1,54,0,136
1,51,83,32
1,36,96,0
1,54,94,0
1,40,0,122
1,54,0,16
1,51,0,6
1,36,0,8
1,36,101,30
1,42,91,6
1,42,0,72
1,42,65,114
1,42,0,86
1,36,0,72
1,40,108,42
1,42,87,2
1,42,0,82
1,42,58,102
1,42,0,66
1,40,0,112
1,48,81,14
1,42,93,2
1,36,94,6
1,42,0,78
1,36,0,64
1,42,71,42
1,36,86,2
1,42,0,90
1,45,90,2
1,48,0,16
1,45,0,64
1,45,110,16
