track,note,velocity,time
0,42,120,0
0,42,0,4
0,42,70,92
0,42,0,4
0,42,70,92
0,42,0,4
0,42,70,92
0,42,0,4
0,59,54,76
0,59,0,4
0,51,66,4
0,51,0,4
0,60,40,0
0,57,40,0
0,41,50,1
0,59,80,1
0,41,55,0
0,41,76,0
0,70,60,0
0,59,0,3
0,70,0,1
0,48,57,43
0,70,60,0
0,48,63,2
0,70,0,2
0,70,60,44
0,57,68,1
0,57,82,0
0,44,80,0
0,70,0,3
0,44,0,1
0,41,0,21
0,41,0,16
0,41,52,6
0,41,74,1
0,70,60,0
0,70,0,4
0,48,0,36
0,57,0,1
0,64,61,0
0,52,72,7
0,52,86,0
0,70,60,0
0,70,0,4
0,65,59,37
0,52,0,6
0,64,0,0
0,52,0,1
0,53,75,0
0,53,89,0
0,70,60,0
0,70,0,4
0,48,0,35
0,53,0,1
0,41,0,0
0,57,0,1
0,41,0,1
0,72,77,1
0,53,0,2
0,55,84,2
0,60,85,0
0,57,95,1
0,60,65,0
0,44,80,0
0,70,60,0
0,65,0,2
0,70,0,2
0,44,0,0
0,65,55,9
0,55,0,2
0,53,95,2
0,60,87,1
0,70,60,0
0,72,0,0
0,59,56,11
0,51,56,1
0,59,62,4
0,59,0,4
0,57,0,3
0,60,0,0
0,51,64,1
0,60,0,2
0,70,41,0
0,58,40,0
0,62,40,0
0,60,0,1
0,51,0,0
0,59,76,0
0,60,80,1
0,58,99,0
0,58,65,0
0,60,65,0
0,53,65,0
0,70,60,0
0,46,79,1
0,62,83,0
0,59,0,2
0,70,0,1
0,57,0,1
0,53,80,42
0,53,55,0
0,53,0,41
0,57,81,0
0,44,80,0
0,58,55,0
0,44,0,4
0,58,0,37
0,60,55,7
0,57,0,26
0,60,0,7
0,60,0,12
0,65,69,0
0,57,83,0
0,65,55,0
0,70,55,5
0,53,83,0
0,44,80,0
0,72,55,0
0,77,55,1
0,59,56,10
0,41,0,0
0,59,0,4
0,51,54,4
0,53,0,2
0,51,0,2
0,59,68,4
0,53,0,1
0,65,0,2
0,70,0,0
0,59,0,1
0,58,0,1
0,65,0,2
0,62,0,0
0,58,0,0
0,51,66,1
0,62,0,0
0,46,0,1
0,57,40,1
0,41,50,0
0,65,52,0
0,60,40,1
0,69,60,0
0,53,0,1
0,51,0,0
0,59,76,0
0,79,48,0
0,41,63,0
0,53,84,0
0,41,76,0
0,70,60,0
0,59,0,3
0,70,0,1
0,79,0,20
0,81,58,3
0,70,60,20
0,48,70,1
0,48,63,0
0,79,70,1
0,70,0,2
0,81,0,1
0,79,0,17
0,77,54,4
0,55,61,2
0,70,60,0
0,79,59,0
0,44,80,1
0,77,0,0
0,57,82,0
0,70,0,2
0,44,0,1
0,57,55,3
0,41,74,0
0,70,60,0
0,77,76,1
0,70,0,3
0,64,73,8
0,69,0,1
0,70,60,4
0,65,0,0
0,52,86,2
0,70,0,2
0,41,0,31
0,65,81,9
0,41,55,4
0,52,0,0
0,53,89,1
0,70,60,0
0,64,0,1
0,70,0,3
0,72,82,0
0,57,95,1
0,60,85,0
0,60,70,0
0,44,80,0
0,70,60,0
0,65,0,3
0,70,0,1
0,44,0,0
0,65,66,18
0,70,60,4
0,53,65,1
0,53,95,1
0,72,0,0
0,70,0,2
0,60,0,6
0,53,0,2
0,59,56,8
0,41,0,1
0,57,0,0
0,48,0,1
0,59,0,2
0,60,80,1
0,51,52,3
0,59,66,0
0,51,61,1
0,60,0,0
0,62,40,2
0,58,40,0
0,50,72,1
0,53,70,0
0,51,0,0
0,59,76,0
0,41,62,1
0,60,0,0
0,46,79,0
0,58,99,0
0,58,60,0
0,53,55,0
0,60,65,0
0,70,60,0
0,62,83,1
0,70,48,1
0,59,0,1
0,70,0,1
0,57,0,1
0,44,80,91
0,44,0,4
0,48,62,0
0,48,0,15
0,48,86,0
0,60,0,20
0,53,0,1
0,58,0,1
0,72,50,1
0,70,50,3
0,44,80,5
0,70,0,0
0,69,50,0
0,44,0,4
0,67,50,1
0,69,0,2
0,65,50,2
0,72,0,2
0,67,0,2
0,64,50,1
0,65,0,6
0,62,50,0
0,64,0,6
0,60,50,0
0,62,0,5
0,58,50,1
0,60,0,5
0,57,50,3
0,48,0,1
0,60,77,0
0,58,0,1
0,55,50,2
0,57,0,3
0,53,50,3
0,55,0,4
0,52,50,2
0,60,0,3
0,53,0,0
0,50,50,3
0,70,0,1
0,65,0,0
0,52,0,1
0,60,78,0
0,41,0,0
0,62,0,0
0,58,0,0
0,59,56,1
0,48,50,1
0,60,0,1
0,59,0,2
0,50,0,0
0,46,50,3
0,51,56,1
0,48,0,1
0,53,0,2
0,51,0,1
0,45,50,0
0,46,0,2
0,41,0,2
0,59,65,0
0,50,0,1
0,43,50,0
0,53,0,1
0,45,0,0
0,59,0,2
0,43,0,0
0,58,0,2
0,62,0,1
0,41,50,0
0,51,57,1
0,46,0,1
0,41,0,0
0,51,0,3
0,59,76,0
0,60,70,0
0,41,65,1
0,53,82,0
0,41,66,0
0,57,68,0
0,60,70,0
0,65,80,0
0,69,80,0
0,60,80,0
0,41,66,0
0,57,75,0
0,59,0,3
0,80,80,0
0,80,0,4
0,48,63,4
0,48,70,1
0,80,80,0
0,44,80,1
0,53,78,0
0,53,68,1
0,57,0,3
0,44,0,0
0,60,0,4
0,60,0,1
0,57,0,1
0,57,75,37
0,57,70,2
0,41,0,28
0,65,0,1
0,60,0,1
0,69,0,0
0,41,0,6
0,41,65,10
0,64,80,0
0,60,82,1
0,41,80,0
0,67,80,0
0,60,80,0
0,60,72,0
0,80,80,24
0,80,0,4
0,53,0,18
0,52,69,1
0,48,80,0
0,80,80,0
0,80,0,4
0,48,0,8
0,48,80,0
0,53,0,3
0,44,80,19
0,53,78,0
0,53,72,1
0,44,0,3
0,57,0,20
0,58,86,0
0,60,0,0
0,48,0,1
0,57,72,3
0,60,69,0
0,81,70,0
0,81,0,4
0,58,0,9
0,58,85,0
0,60,0,3
0,53,0,6
0,48,0,0
0,41,0,1
0,48,0,0
0,41,0,0
0,57,0,1
0,41,0,1
0,53,0,1
0,57,0,1
0,60,0,1
0,60,0,2
0,58,80,1
0,62,80,0
0,41,65,1
0,53,76,0
0,65,80,0
0,59,60,0
0,58,79,0
0,62,67,0
0,46,64,0
0,41,66,1
0,58,87,0
0,62,63,0
0,59,0,3
0,80,80,20
0,50,84,4
0,80,80,0
0,50,76,0
0,53,78,0
0,53,78,1
0,44,80,0
0,44,0,4
0,58,78,14
0,58,79,1
0,46,0,11
0,50,0,14
0,62,0,1
0,65,0,3
0,58,0,12
0,62,80,5
0,65,80,0
0,70,80,0
0,62,67,0
0,62,80,1
0,46,73,0
0,50,55,1
0,80,80,23
0,80,0,4
0,41,0,15
0,48,70,0
0,41,65,1
0,80,80,1
0,80,0,4
0,48,0,7
0,50,0,2
0,48,88,0
0,50,71,1
0,58,0,9
0,53,0,0
0,53,72,15
0,58,92,0
0,44,80,0
0,44,0,4
0,48,0,43
0,58,88,0
0,58,0,17
0,41,0,2
0,81,70,5
0,58,91,0
0,81,0,1
0,70,0,9
0,62,0,2
0,65,0,1
0,58,0,2
0,53,0,1
0,53,0,0
0,41,0,1
0,58,0,0
0,62,0,0
0,50,0,0
0,46,0,0
0,62,0,1
0,50,0,0
0,40,65,2
0,41,49,0
0,64,80,0
0,48,63,0
0,64,69,0
0,67,67,0
0,60,70,1
0,55,72,0
0,67,80,0
0,60,80,0
0,59,60,0
0,52,74,1
0,59,0,3
0,80,80,0
0,80,0,4
0,80,80,3
0,48,70,1
0,55,72,0
0,60,75,3
0,44,80,1
0,52,76,1
0,60,70,18
0,64,69,1
0,55,76,1
0,67,0,38
0,64,0,1
0,60,0,1
0,67,80,6
0,72,80,0
0,76,80,1
0,67,68,0
0,64,0,8
0,48,0,2
0,80,80,13
0,80,0,4
0,48,85,0
0,52,0,3
0,48,76,0
0,80,80,0
0,80,0,4
0,48,0,7
0,48,88,0
0,55,0,11
0,44,80,14
0,64,63,0
0,55,69,0
0,44,0,4
0,40,0,16
0,52,45,3
0,52,65,0
0,58,89,0
0,48,0,3
0,52,0,17
0,52,0,2
0,53,58,1
0,58,0,0
0,53,53,1
0,81,70,0
0,41,0,4
0,81,0,0
0,55,86,0
0,53,0,1
0,41,65,1
0,76,0,1
0,41,65,1
0,60,80,1
0,57,80,0
0,60,76,0
0,41,65,0
0,41,65,1
0,41,60,0
0,57,80,0
0,60,76,0
0,53,76,0
0,65,80,0
0,59,60,0
0,65,56,0
0,80,80,2
0,80,80,21
0,53,74,0
0,48,70,1
0,80,0,3
0,53,0,4
0,57,77,39
0,44,80,1
0,53,78,1
0,44,0,3
0,60,0,2
0,65,0,7
0,57,0,8
0,60,0,5
0,55,0,9
0,57,81,1
0,60,66,0
0,60,71,1
0,60,80,17
0,69,80,0
0,53,0,0
0,65,80,1
0,81,90,0
0,65,66,0
0,81,0,4
0,80,80,19
0,80,0,4
0,53,76,0
0,80,80,1
0,53,0,2
0,80,0,2
0,53,0,11
0,48,0,6
0,48,64,4
0,53,91,0
0,60,0,5
0,57,0,1
0,41,0,13
0,72,54,2
0,41,65,1
0,57,84,0
0,44,80,0
0,60,74,1
0,44,0,3
0,53,0,42
0,60,84,0
0,59,54,20
0,60,0,3
0,59,0,1
0,81,70,1
0,60,85,0
0,51,46,1
0,81,0,1
0,51,0,3
0,59,62,4
0,59,0,4
0,41,0,0
0,57,0,1
0,48,0,1
0,41,0,0
0,60,0,0
0,69,0,2
0,60,0,0
0,51,58,0
0,57,0,0
0,41,0,1
0,60,0,0
0,65,0,0
0,72,0,0
0,65,0,1
0,60,80,2
0,64,80,0
0,67,80,0
0,51,0,0
0,59,76,0
0,60,74,0
0,45,78,1
0,45,59,0
0,57,80,0
0,67,67,0
0,45,71,0
0,55,74,1
0,60,76,0
0,59,0,2
0,80,80,3
0,52,62,0
0,57,76,0
0,80,80,1
0,64,72,0
0,80,0,4
0,67,0,1
0,44,80,1
0,67,60,0
0,60,74,1
0,44,0,3
0,45,79,13
0,52,66,2
0,64,62,0
0,67,0,10
0,57,0,16
0,64,0,6
0,60,0,1
0,67,0,3
0,57,0,2
0,67,80,9
0,69,80,1
0,72,80,0
0,72,60,0
0,57,67,0
0,80,80,23
0,80,0,4
0,53,45,0
0,53,81,0
0,80,80,1
0,80,0,4
0,55,0,5
0,53,0,4
0,53,0,2
0,53,70,7
0,53,65,2
0,53,93,0
0,53,0,14
0,53,0,0
0,53,71,8
0,53,73,1
0,44,80,0
0,53,69,0
0,55,41,1
0,44,0,3
0,52,0,9
0,55,0,6
0,53,0,23
0,53,0,2
0,55,76,0
0,53,0,0
0,63,70,0
0,55,81,0
0,81,70,1
0,55,68,0
0,81,0,4
0,45,0,11
0,63,0,3
0,69,0,1
0,72,0,1
0,55,0,1
0,67,0,0
0,58,75,3
0,63,89,0
0,45,0,1
0,60,0,0
0,45,0,4
0,60,0,7
0,55,0,1
0,64,0,1
0,55,0,0
0,72,0,2
0,57,0,1
0,63,70,3
0,63,80,0
0,51,64,0
0,46,61,0
0,67,80,1
0,58,80,0
0,63,68,0
0,67,66,0
0,46,67,1
0,58,87,0
0,59,78,0
0,51,0,2
0,59,0,2
0,80,80,4
0,53,81,0
0,80,80,0
0,58,79,0
0,62,78,0
0,46,75,1
0,80,0,2
0,62,0,15
0,62,81,0
0,63,0,6
0,58,0,3
0,63,0,1
0,67,0,1
0,63,0,1
0,58,0,1
0,67,0,0
0,62,76,8
0,58,80,0
0,65,80,1
0,62,80,0
0,44,80,0
0,62,70,0
0,65,55,0
0,58,89,1
0,44,0,3
0,74,56,3
0,80,80,22
0,46,0,1
0,46,0,1
0,80,0,2
0,53,66,0
0,46,70,1
0,80,80,1
0,46,42,1
0,80,0,3
0,53,0,10
0,65,0,9
0,53,81,0
0,62,0,12
0,46,0,4
0,46,0,1
0,46,68,7
0,46,63,0
0,44,80,0
0,65,57,0
0,62,67,0
0,44,0,4
0,53,0,19
0,62,79,0
0,58,0,21
0,46,0,22
0,58,0,1
0,46,0,2
0,62,0,0
0,65,0,0
0,45,69,1
0,45,66,1
0,62,0,0
0,81,70,0
0,60,88,0
0,43,85,1
0,43,66,0
0,62,80,0
0,59,80,0
0,59,69,0
0,67,64,0
0,55,89,1
0,62,80,0
0,59,81,0
0,67,80,0
0,59,80,0
0,62,72,0
0,43,76,0
0,59,0,4
0,80,80,19
0,80,0,4
0,50,66,1
0,80,80,1
0,55,81,0
0,50,84,1
0,59,69,5
0,60,0,1
0,55,84,23
0,55,76,0
0,44,80,1
0,59,75,0
0,62,0,1
0,50,0,3
0,44,0,0
0,59,0,2
0,67,0,13
0,62,80,2
0,62,69,0
0,50,75,1
0,59,84,0
0,67,80,13
0,71,80,0
0,67,78,0
0,74,80,1
0,59,0,7
0,43,0,8
0,80,80,9
0,80,0,4
0,55,0,17
0,55,65,0
0,55,75,0
0,43,60,1
0,80,80,0
0,80,0,4
0,55,0,6
0,55,0,6
0,55,86,0
0,43,0,18
0,50,0,1
0,43,75,3
0,53,56,0
0,55,70,0
0,44,80,0
0,59,77,0
0,44,0,4
0,55,0,40
0,65,70,0
0,50,72,1
0,55,0,0
0,81,70,0
0,81,0,4
0,71,0,17
0,74,0,1
0,67,0,0
0,65,0,1
0,65,73,0
0,62,0,0
0,50,0,9
0,43,0,0
0,53,0,1
0,55,0,1
0,59,0,3
0,62,0,0
0,50,0,2
0,62,0,0
0,43,0,0
0,67,0,1
0,55,0,0
0,43,0,1
0,59,0,0
0,36,85,2
0,64,80,0
0,67,80,0
0,60,75,0
0,52,76,1
0,55,71,0
0,60,77,0
0,60,80,0
0,59,80,0
0,48,72,0
0,67,74,0
0,64,71,0
0,48,63,1
0,59,0,3
0,80,80,5
0,48,70,5
0,80,80,0
0,55,74,0
0,64,81,0
0,64,75,0
0,52,0,8
0,52,72,12
0,44,80,1
0,60,78,0
0,44,0,4
0,55,0,2
0,55,70,0
0,60,50,0
0,64,75,0
0,52,64,1
0,67,58,3
0,72,80,0
0,67,73,0
0,67,80,1
0,76,80,0
0,64,0,10
0,80,80,14
0,80,0,4
0,62,69,0
0,80,80,0
0,80,0,4
0,60,0,7
0,55,0,14
0,62,0,13
0,62,76,0
0,55,69,0
0,44,80,1
0,60,76,0
0,44,0,4
0,62,0,39
0,62,72,0
0,62,0,21
0,76,0,0
0,72,0,0
0,51,42,0
0,67,0,1
0,60,86,0
0,81,70,0
0,51,0,1
0,81,0,3
0,48,85,0
0,62,80,0
0,65,58,0
0,62,63,0
0,53,70,0
0,48,67,0
0,58,70,0
0,62,76,0
0,58,80,0
0,65,80,0
0,55,80,0
0,59,70,0
0,58,76,0
0,48,71,0
0,55,71,1
0,52,0,2
0,59,0,1
0,67,0,2
0,55,76,3
0,60,83,0
0,60,84,0
0,58,0,16
0,53,60,5
0,58,71,0
0,58,70,1
0,62,0,5
0,60,71,0
0,62,58,0
0,55,50,3
0,60,50,0
0,48,50,0
0,60,57,1
0,60,75,1
0,56,69,0
0,53,62,0
0,65,58,0
0,48,78,0
0,57,50,0
0,48,90,0
0,57,0,4
0,53,0,8
0,60,0,3
0,67,58,5
0,55,0,1
0,62,0,0
0,58,0,0
0,65,80,0
0,60,70,0
0,63,60,0
0,67,60,0
0,65,0,1
0,65,44,1
0,48,0,0
0,63,0,0
0,65,56,0
0,60,86,0
0,60,89,0
0,60,0,2
0,65,0,2
0,48,0,7
0,58,0,3
0,53,0,0
0,48,0,1
0,65,0,1
0,48,0,0
0,60,0,0
0,55,0,0
0,53,0,1
0,62,0,0
0,60,0,0
0,48,0,0
0,58,0,0
0,55,0,0
0,62,0,0
0,60,0,1
0,65,0,0
0,55,0,0
0,60,55,0
0,41,80,0
0,57,55,1
0,53,82,1
0,41,95,1
0,53,59,0
0,41,73,0
0,57,84,0
0,36,80,0
0,42,112,0
0,49,90,0
0,65,60,0
0,60,82,0
0,53,82,1
0,60,82,0
