track,note,velocity,time
1,69,101,1195
1,74,112,240
1,69,0,45
1,74,0,185
1,76,107,10
1,76,0,85
1,78,95,10
1,50,79,0
1,78,0,75
1,62,66,125
1,73,118,240
1,50,0,25
1,62,0,40
1,73,0,125
1,74,117,50
1,54,77,90
1,74,0,170
1,69,112,45
1,54,0,110
1,67,99,370
1,69,0,35
1,55,77,125
1,59,52,230
1,67,0,65
1,62,91,175
1,69,105,240
1,67,95,240
1,69,0,20
1,67,0,260
1,55,0,310
1,73,107,130
1,59,0,65
1,74,117,55
1,73,0,15
1,74,0,70
1,76,125,25
1,57,105,0
1,62,0,5
1,64,82,225
1,64,0,220
1,71,117,20
1,57,0,25
1,76,0,5
1,71,0,200
1,73,114,10
1,49,83,20
1,73,0,205
1,67,105,275
1,49,0,110
1,67,0,120
1,66,81,10
1,50,99,0
1,66,0,40
1,57,86,200
1,57,0,205
1,62,101,35
1,50,0,70
1,64,92,170
1,62,0,10
1,64,0,95
1,66,83,15
1,45,80,90
1,64,112,0
1,66,0,20
1,45,0,555
1,38,74,65
1,64,0,40
1,54,23,180
1,57,83,240
1,54,0,40
1,42,72,60
1,38,0,20
1,57,0,40
1,69,92,405
1,42,0,140
1,62,67,100
1,71,94,110
1,43,64,0
1,69,0,35
1,62,0,95
1,71,0,55
1,50,46,35
1,55,75,240
1,57,80,240
1,59,101,240
1,57,0,30
1,59,0,465
1,43,0,340
1,45,109,75
1,50,0,15
1,55,0,5
1,52,64,205
1,57,95,240
1,61,81,240
1,64,92,480
1,61,0,95
1,69,91,145
1,64,0,70
1,57,0,30
1,45,0,50
1,50,103,25
1,69,0,5
1,52,0,30
1,57,72,165
1,62,97,240
1,57,0,60
1,62,0,175
1,64,88,5
1,50,0,125
1,64,0,35
1,50,115,55
1,66,104,0
1,57,75,225
1,66,0,80
1,57,0,130
1,49,87,20
1,61,92,0
1,57,95,0
1,64,117,0
1,50,0,30
1,57,0,145
1,61,0,45
1,64,0,25
1,49,0,10
1,54,62,85
1,66,97,0
1,59,103,0
1,47,89,0
1,62,109,0
1,59,0,275
1,62,0,145
1,59,77,40
1,66,0,125
1,47,0,70
1,62,77,45
1,59,0,25
1,57,79,5
1,66,87,0
1,45,70,0
1,62,0,65
1,54,0,430
1,57,0,105
1,66,0,70
1,45,0,105
1,62,79,65
1,43,75,0
1,67,49,0
1,67,0,45
1,71,112,45
1,62,0,115
1,69,107,110
1,71,0,15
1,67,99,225
1,69,0,10
1,67,0,205
1,43,0,5
1,66,83,20
1,66,0,45
1,45,82,75
1,59,74,85
1,62,94,0
1,67,95,0
1,59,0,165
1,67,0,35
1,66,111,35
1,62,0,40
1,66,0,130
1,64,94,70
1,45,0,110
1,62,82,10
1,62,0,60
1,64,0,65
1,37,16,5
1,61,81,0
1,57,86,0
1,64,103,0
1,49,62,0
1,49,0,260
1,37,0,10
1,61,0,220
1,64,0,105
1,57,0,55
1,38,17,70
1,57,71,0
1,66,70,0
1,62,94,0
1,50,72,0
1,62,0,520
1,66,0,15
1,57,0,25
1,38,0,125
1,61,89,75
1,62,107,120
1,61,0,30
1,62,0,70
1,45,94,0
1,64,120,0
1,50,0,35
1,55,65,180
1,64,0,185
1,59,91,55
1,55,0,55
1,62,86,185
1,59,0,20
1,62,0,105
1,61,77,115
1,57,82,0
1,64,86,0
1,45,0,410
1,61,0,225
1,64,0,0
1,57,0,25
1,38,95,55
1,45,92,170
1,50,105,255
1,38,0,195
1,62,105,30
1,64,112,110
1,62,0,10
1,64,0,50
1,66,114,20
1,42,114,10
1,50,0,10
1,45,0,5
1,66,0,375
1,57,115,80
1,42,0,45
1,43,94,75
1,59,109,5
1,57,0,25
1,50,95,180
1,55,89,250
1,59,0,45
1,69,112,200
1,69,0,195
1,67,112,30
1,55,0,130
1,67,0,375
1,43,0,115
1,55,68,35
1,45,88,5
1,59,89,30
1,64,117,40
1,64,0,685
1,55,0,25
1,62,112,0
1,59,0,25
1,61,104,80
1,62,0,15
1,50,0,260
1,55,103,200
1,61,0,5
1,45,0,35
1,38,85,155
1,54,75,5
1,55,0,55
1,45,85,170
1,54,0,65
1,50,99,170
1,54,89,250
1,54,0,50
1,62,112,25
1,38,0,105
1,45,0,10
1,62,0,50
1,49,97,40
1,61,89,5
1,64,120,0
1,57,101,0
1,50,0,15
1,57,0,190
1,49,0,30
1,61,0,35
1,64,0,60
1,47,44,0
1,54,64,45
1,59,88,5
1,62,101,10
1,66,114,35
1,59,0,230
1,62,0,180
1,59,80,25
1,66,0,225
1,62,99,15
1,59,0,80
1,47,0,25
1,57,89,75
1,45,80,0
1,66,85,5
1,54,0,555
1,57,0,145
1,62,0,55
1,45,0,0
1,66,0,0
1,43,80,80
1,71,86,5
1,69,92,210
1,55,77,5
1,71,0,15
1,67,92,215
1,69,0,25
1,66,87,205
1,67,0,15
1,43,0,30
1,45,89,75
1,67,107,10
1,66,0,10
1,55,0,40
1,66,97,170
1,67,0,20
1,64,101,220
1,66,0,5
1,62,95,230
1,64,0,5
1,45,0,40
1,62,0,10
1,61,92,85
1,57,107,0
1,64,109,5
1,61,0,355
1,64,0,25
1,57,0,10
1,54,60,305
1,62,101,0
1,57,99,5
1,38,86,100
1,54,0,70
1,54,75,135
1,57,0,20
1,62,0,25
1,54,0,165
1,57,95,30
1,62,91,225
1,57,0,20
1,62,0,75
1,66,85,50
1,42,92,5
1,69,103,0
1,62,91,5
1,38,0,10
1,66,0,415
1,69,0,10
1,62,0,0
1,74,112,20
1,42,0,90
1,43,89,75
1,71,117,10
1,74,0,25
1,71,0,160
1,50,83,50
1,55,92,235
1,55,0,215
1,59,99,10
1,43,0,80
1,61,92,60
1,45,86,0
1,59,0,25
1,50,0,155
1,61,0,255
1,57,99,35
1,64,115,0
1,64,0,90
1,66,95,5
1,45,0,5
1,50,86,10
1,57,0,120
1,66,0,200
1,49,81,30
1,64,115,0
1,57,89,5
1,50,0,25
1,57,0,175
1,49,0,95
1,54,49,0
1,66,107,5
1,47,75,5
1,64,0,5
1,59,71,190
1,66,0,55
1,59,0,195
1,71,120,15
1,54,0,160
1,69,99,65
1,47,0,5
1,71,0,15
1,40,89,85
1,67,112,5
1,69,0,25
1,67,0,160
1,52,82,55
1,55,97,255
1,55,0,215
1,59,94,15
1,45,95,100
1,62,117,5
1,55,103,0
1,52,0,5
1,40,0,15
1,55,0,200
1,59,0,25
1,62,0,135
1,61,92,100
1,57,99,0
1,64,117,0
1,45,0,165
1,61,0,55
1,66,89,100
1,38,85,0
1,64,0,25
1,57,0,105
1,50,105,90
1,57,91,235
1,66,0,25
1,57,0,225
1,66,107,0
1,38,0,95
1,50,0,0
1,66,0,0
1,38,2,10
1,64,109,55
1,55,95,5
1,50,107,5
1,64,0,260
1,55,0,40
1,54,77,60
1,62,112,5
1,42,89,0
1,57,105,5
1,38,0,10
1,50,0,45
1,42,0,145
1,57,0,30
1,54,0,15
1,62,0,40
1,43,97,25
1,62,117,5
1,55,105,0
1,59,107,5
1,55,0,180
1,50,85,15
1,59,0,5
1,62,0,60
1,59,107,195
1,67,107,0
1,59,0,215
1,62,103,10
1,43,0,25
1,67,0,70
1,62,0,40
1,45,103,0
1,64,123,5
1,50,0,5
1,52,83,210
1,64,0,20
1,57,107,225
1,64,125,0
1,57,0,190
1,57,37,60
1,64,0,10
1,62,57,35
1,57,0,10
1,45,0,10
1,62,0,0
1,57,101,100
1,62,117,5
1,66,118,0
1,50,107,5
1,52,0,10
1,66,0,200
1,62,0,50
1,57,0,15
1,49,92,75
1,61,107,0
1,57,105,5
1,64,123,0
1,50,0,20
1,57,0,240
1,61,0,40
1,64,0,10
1,49,0,85
1,54,66,0
1,59,107,0
1,66,118,5
1,62,112,5
1,47,77,0
1,59,0,285
1,66,0,35
1,47,0,15
1,62,0,5
1,45,91,85
1,62,112,5
1,66,104,0
1,57,97,0
1,54,0,115
1,57,0,70
1,62,0,45
1,66,0,5
1,45,0,110
1,43,97,85
1,62,112,10
1,67,115,0
1,71,127,5
1,62,0,520
1,67,0,115
1,66,104,30
1,71,0,15
1,43,0,45
1,69,79,45
1,66,0,25
1,40,86,90
1,67,117,0
1,69,0,10
1,67,0,180
1,47,77,25
1,52,91,260
1,40,0,180
1,47,0,15
1,55,75,40
1,67,80,65
1,45,105,20
1,52,0,20
1,55,0,20
1,67,0,170
1,69,84,0
1,55,65,10
1,55,0,210
1,69,0,20
1,71,90,0
1,59,80,20
1,71,0,220
1,74,94,0
1,62,86,5
1,59,0,5
1,62,0,60
1,74,0,40
1,61,70,0
1,73,80,0
1,57,75,5
1,64,68,5
1,73,0,215
1,45,0,275
1,61,0,65
1,64,0,5
1,57,0,10
1,38,71,35
1,45,61,185
1,50,103,250
1,38,0,125
1,62,97,120
1,45,0,45
1,42,83,60
1,66,95,5
1,62,0,25
1,50,0,5
1,66,0,425
1,57,112,30
1,42,0,90
1,43,86,95
1,59,101,5
1,57,0,15
1,50,86,220
1,55,99,250
1,59,0,55
1,69,94,185
1,69,0,200
1,67,112,20
1,55,0,220
1,67,0,400
1,43,0,100
1,45,95,10
1,55,55,10
1,59,91,30
1,50,0,20
1,64,115,20
1,55,0,660
1,59,0,65
1,55,70,25
1,64,0,5
1,59,88,20
1,62,86,35
1,55,0,70
1,59,0,40
1,62,0,100
1,61,118,0
1,45,0,440
1,61,0,25
1,55,105,10
1,54,81,80
1,38,85,5
1,55,0,10
1,45,70,210
1,38,0,185
1,45,0,40
1,50,94,15
1,52,101,235
1,54,0,10
1,50,0,20
1,62,107,85
1,62,0,50
1,61,95,25
1,64,117,5
1,49,104,0
1,57,97,5
1,52,0,20
1,57,0,185
1,49,0,50
1,61,0,15
1,54,28,80
1,64,0,35
1,54,0,0
1,47,60,15
1,59,79,25
1,54,59,10
1,62,62,0
1,66,114,40
1,59,0,205
1,62,0,185
1,59,88,60
1,66,0,180
1,62,91,50
1,59,0,50
1,47,0,30
1,57,86,95
1,66,95,0
1,45,65,5
1,54,0,485
1,57,0,120
1,45,0,10
1,62,0,55
1,66,0,20
1,43,25,140
1,55,47,40
1,62,82,5
1,71,82,55
1,69,94,220
1,71,0,25
1,62,0,20
1,67,107,190
1,69,0,20
1,55,0,130
1,66,89,95
1,67,0,5
1,66,0,90
1,67,77,70
1,45,85,5
1,43,0,20
1,67,0,175
1,66,87,30
1,66,0,195
1,64,109,35
1,62,88,240
1,64,0,5
1,62,0,40
1,61,95,95
1,64,109,0
1,57,97,5
1,45,0,40
1,61,0,280
1,64,0,15
1,57,0,10
1,54,62,355
1,38,70,5
1,62,103,5
1,50,72,0
1,57,103,0
1,54,0,440
1,54,28,30
1,57,0,105
1,62,0,145
1,57,47,15
1,57,0,65
1,54,0,60
1,38,0,75
1,43,94,5
1,50,0,10
1,55,86,205
1,55,0,205
1,59,109,30
1,43,0,105
1,62,105,140
1,59,0,70
1,59,46,30
1,62,0,25
1,59,0,55
1,45,103,30
1,59,105,10
1,62,112,5
1,55,95,0
1,55,0,220
1,59,0,30
1,62,0,70
1,52,101,30
1,57,105,5
1,61,95,0
1,64,120,0
1,61,0,30
1,52,0,80
1,45,0,40
1,57,0,20
1,66,97,75
1,38,97,5
1,64,0,15
1,66,0,120
1,50,101,110
1,54,111,245
1,50,0,50
1,38,0,15
1,54,0,135
1,57,103,40
1,62,97,115
1,42,85,0
1,54,75,5
1,57,0,155
1,54,0,0
1,62,0,75
1,69,123,230
1,42,0,65
1,62,89,180
1,71,99,95
1,43,95,5
1,69,0,25
1,62,0,35
1,71,0,135
1,50,79,10
1,55,99,250
1,59,115,225
1,55,0,140
1,43,0,35
1,43,95,65
1,57,105,0
1,59,0,30
1,57,0,195
1,55,99,0
1,55,0,205
1,59,125,40
1,43,0,225
1,62,109,10
1,59,0,75
1,62,0,60
1,50,0,40
1,45,74,40
1,59,101,20
1,62,112,5
1,55,95,0
1,52,92,15
1,62,0,275
1,59,0,25
1,55,0,105
1,55,105,55
1,62,120,0
1,55,0,120
1,59,89,100
1,62,0,35
1,59,0,40
1,49,72,100
1,45,0,5
1,61,104,0
1,57,101,0
1,64,123,5
1,52,0,20
1,57,0,110
1,57,68,105
1,61,0,215
1,64,0,5
1,57,0,5
1,69,109,20
1,49,0,125
1,67,95,100
1,69,0,15
1,69,97,100
1,67,0,40
1,66,107,75
1,69,0,10
1,50,109,0
1,54,68,195
1,66,0,240
1,57,107,10
1,54,0,125
1,57,0,90
1,62,115,20
1,50,0,75
1,62,0,65
1,66,104,30
1,50,117,10
1,66,0,200
1,57,97,5
1,50,0,115
1,66,121,0
1,57,0,30
1,66,0,75
1,49,100,35
1,64,123,5
1,64,0,170
1,61,97,20
1,49,0,80
1,61,0,25
1,64,117,15
1,62,123,85
1,64,0,5
1,47,97,0
1,54,73,215
1,62,0,135
1,59,103,100
1,59,0,195
1,62,107,35
1,47,0,20
1,62,0,45
1,62,105,30
1,66,111,0
1,57,97,0
1,45,85,10
1,62,0,270
1,66,0,0
1,57,0,75
1,62,112,120
1,66,100,0
1,57,107,5
1,54,0,25
1,57,0,165
1,45,0,40
1,62,0,0
1,66,0,0
1,43,92,95
1,62,105,5
1,71,117,0
1,69,103,210
1,55,75,0
1,71,0,25
1,62,0,80
1,69,0,130
1,67,103,5
1,66,104,240
1,67,0,15
1,55,0,25
1,66,0,15
1,43,0,40
1,45,99,90
1,67,105,5
1,59,105,5
1,67,0,170
1,66,111,50
1,59,0,75
1,66,0,120
1,64,112,40
1,64,0,230
1,62,99,0
1,62,0,55
1,61,114,75
1,57,112,0
1,64,125,0
1,45,0,55
1,61,0,370
1,64,0,0
1,57,0,25
1,54,72,220
1,62,105,0
1,57,107,5
1,54,0,175
1,54,83,95
1,57,0,25
1,62,0,150
1,57,103,60
1,54,0,75
1,54,68,145
1,62,101,90
1,38,79,10
1,57,0,10
1,54,0,30
1,54,66,145
1,62,0,160
1,54,0,20
1,57,92,70
1,38,0,45
1,57,0,180
1,62,95,30
1,62,0,60
1,69,109,75
1,42,97,0
1,69,0,210
1,62,103,10
1,62,0,230
1,74,117,15
1,42,0,110
1,74,0,95
1,43,99,5
1,71,101,5
1,69,109,5
1,69,0,100
1,50,92,120
1,71,0,155
1,55,107,100
1,62,103,215
1,55,0,30
1,64,105,80
1,43,0,30
1,62,0,5
1,61,111,65
1,64,0,10
1,45,103,5
1,50,0,10
1,52,85,215
1,61,0,5
1,57,92,225
1,61,114,5
1,45,0,90
1,61,0,30
1,52,0,55
1,64,95,60
1,64,0,65
1,57,0,70
1,50,101,25
1,66,104,5
1,54,72,0
1,62,115,0
1,69,115,5
1,54,0,180
1,50,0,10
1,69,0,50
1,66,0,15
1,62,0,0
1,61,92,85
1,69,97,0
1,49,87,5
1,64,109,5
1,57,97,0
1,64,0,160
1,61,0,30
1,69,0,0
1,57,0,40
1,49,0,5
1,54,68,35
1,66,104,5
1,62,115,5
1,59,107,5
1,47,97,0
1,66,0,300
1,62,0,10
1,59,0,30
1,59,109,90
1,62,117,5
1,66,104,0
1,54,0,185
1,47,0,75
1,66,0,120
1,40,88,80
1,62,0,185
1,59,0,5
1,52,89,15
1,59,109,245
1,64,107,5
1,55,107,0
1,40,0,120
1,64,0,90
1,62,99,20
1,55,0,45
1,62,0,15
1,59,0,5
1,45,99,25
1,59,107,10
1,62,109,5
1,55,107,0
1,52,0,20
1,55,0,180
1,59,0,65
1,62,0,10
1,61,97,50
1,57,103,5
1,64,117,0
1,45,0,140
1,61,0,115
1,64,0,55
1,66,92,15
1,38,97,10
1,57,0,45
1,66,0,105
1,50,107,60
1,54,100,250
1,54,0,145
1,62,94,100
1,62,0,40
1,55,105,65
1,60,109,0
1,64,117,0
1,38,0,110
1,64,0,95
1,55,0,65
1,57,8,100
1,60,0,15
1,54,69,50
1,62,112,0
1,42,85,5
1,50,0,25
1,57,0,130
1,54,0,35
1,42,0,15
1,62,0,130
1,55,97,55
1,59,105,0
1,62,115,0
1,43,95,5
