track,note,velocity,time
1,34,109,1536
1,34,59,140
1,34,86,88
1,34,89,96
1,34,96,106
1,34,100,120
1,34,92,88
1,29,94,22
1,34,100,20
1,29,104,192
1,34,109,6
1,34,96,176
1,34,96,98
1,34,96,124
1,34,96,104
1,34,84,138
1,34,92,96
1,29,110,12
1,34,100,8
1,29,117,8
1,34,109,24
1,34,96,146
1,34,92,110
1,34,89,126
1,34,100,112
1,34,89,138
1,34,96,104
1,29,120,92
1,34,100,32
1,34,86,126
1,34,96,104
1,34,96,120
1,34,96,98
1,34,100,138
1,34,92,104
1,29,104,24
1,34,100,14
1,29,107,192
1,34,109,20
1,34,96,152
1,34,96,102
1,34,92,102
1,34,100,118
1,34,92,128
1,34,96,110
1,29,107,80
1,34,96,42
1,34,100,138
1,34,100,112
1,34,86,88
1,34,96,92
1,34,96,138
1,34,100,110
1,29,94,24
1,34,100,16
1,29,107,192
1,34,109,28
1,34,92,144
1,34,100,108
1,34,92,94
1,34,104,114
1,34,100,164
1,34,104,98
1,29,120,90
1,34,104,26
1,34,96,150
1,34,104,104
1,34,92,104
1,34,104,108
1,34,104,136
1,35,94,56
1,35,90,68
1,36,120,108
1,36,107,150
1,36,110,98
1,36,110,88
1,31,107,64
1,31,94,92
1,31,110,114
1,29,120,152
1,29,107,152
1,29,107,114
1,41,107,26
1,29,120,16
1,29,117,142
1,31,120,40
1,34,100,72
1,31,107,38
1,36,113,22
1,36,99,124
1,36,101,112
1,36,99,100
1,31,113,40
1,31,113,118
1,34,109,24
1,36,101,24
1,29,117,8
1,29,107,166
1,29,110,100
1,41,117,34
1,29,110,28
1,29,110,126
1,31,114,16
1,34,113,64
1,31,109,20
1,34,109,30
1,34,104,154
1,34,104,122
1,34,89,116
1,34,100,120
1,34,86,134
1,34,96,118
1,29,107,112
1,34,96,16
1,34,100,160
1,34,96,112
1,34,89,96
1,34,96,114
1,34,100,132
1,34,100,116
1,29,117,42
1,34,100,16
1,29,110,0
1,34,104,32
1,34,96,176
1,34,100,122
1,34,89,134
1,34,96,132
1,34,100,134
1,34,96,128
1,29,110,100
1,34,104,32
1,34,96,168
1,34,96,120
1,34,86,156
1,34,100,124
1,34,96,158
1,34,100,124
1,29,99,26
1,34,100,26
1,29,107,192
1,34,104,40
1,34,100,184
1,34,96,122
1,34,92,142
1,34,104,124
1,34,96,170
1,34,104,124
1,29,113,120
1,34,104,34
1,34,96,152
1,34,96,118
1,34,86,106
1,34,104,128
1,34,96,156
1,34,100,120
1,29,107,18
1,34,100,26
1,29,107,4
1,34,104,38
1,34,104,184
1,34,104,128
1,34,100,156
1,34,100,126
1,34,96,168
1,34,104,120
1,29,110,72
1,34,109,32
1,34,100,142
1,34,104,114
1,34,104,116
1,34,109,120
1,34,109,146
1,35,97,88
1,35,104,82
1,36,120,200
1,36,107,150
1,36,110,98
1,36,110,88
1,31,107,64
1,31,94,92
1,31,110,114
1,29,120,152
1,29,107,152
1,29,107,114
1,41,107,26
1,29,120,16
1,29,117,142
1,31,120,40
1,34,100,72
1,31,107,38
1,36,113,22
1,36,99,124
1,36,101,112
1,36,99,100
1,31,113,40
1,31,113,118
1,34,109,24
1,36,101,24
1,29,117,8
1,29,107,166
1,29,110,100
1,41,117,34
1,29,110,28
1,29,110,126
1,31,114,16
1,34,113,64
1,31,109,20
1,36,120,30
1,36,113,186
1,36,113,116
1,36,107,128
1,36,113,136
1,36,113,158
1,36,110,108
1,31,107,142
1,36,107,20
1,36,104,168
1,36,99,106
1,36,92,156
1,36,99,102
1,36,110,182
1,36,101,112
1,31,110,14
1,36,110,28
1,31,107,192
1,36,110,38
1,36,97,168
1,36,107,108
1,36,104,160
1,36,99,120
1,36,107,162
1,36,104,118
1,31,110,64
1,36,110,40
1,36,92,136
1,36,97,104
1,36,104,112
1,36,97,120
1,36,104,140
1,36,99,118
1,31,110,14
1,36,104,34
1,31,107,192
1,36,113,58
1,36,104,186
1,36,101,112
1,36,101,168
1,36,101,112
1,36,104,160
1,36,107,118
1,31,110,176
1,36,99,38
1,36,97,126
1,36,104,120
1,36,92,138
1,36,107,112
1,36,101,162
1,36,104,112
1,31,110,8
1,36,107,34
1,31,113,4
1,36,117,46
1,36,110,180
1,36,110,116
1,36,104,142
1,36,107,118
1,36,101,170
1,36,110,110
1,31,120,128
1,36,101,68
1,36,110,132
1,36,110,116
1,36,101,128
1,36,107,116
1,36,104,138
1,36,97,104
1,39,96,38
1,36,107,26
1,34,109,98
1,34,104,154
1,34,104,122
1,34,89,116
1,34,100,120
1,34,86,134
1,34,96,118
1,29,107,112
1,34,96,16
1,34,100,160
1,34,96,112
1,34,89,96
1,34,96,114
1,34,100,132
1,34,100,116
1,29,117,42
1,34,100,16
1,29,110,0
1,34,104,32
1,34,96,176
1,34,100,122
1,34,89,134
1,34,96,132
1,34,100,134
1,34,96,128
1,29,110,100
1,34,104,32
1,34,96,168
1,34,96,120
1,34,86,156
1,34,100,124
1,34,96,158
1,34,100,124
1,29,99,26
1,34,100,26
1,29,107,192
1,34,104,40
1,34,100,184
1,34,96,122
1,34,92,142
1,34,104,124
1,34,96,170
1,34,104,124
1,29,113,120
1,34,104,34
1,34,96,152
1,34,96,118
1,34,86,106
1,34,104,128
1,34,96,156
1,34,100,120
1,29,107,18
1,34,100,26
1,29,107,4
1,34,104,38
1,34,104,184
1,34,104,128
1,34,100,156
1,34,100,126
1,34,96,168
1,34,104,120
1,29,110,72
1,34,109,32
1,34,100,142
1,34,104,114
1,34,104,116
1,34,109,120
1,34,109,146
1,35,97,88
1,35,104,82
1,36,120,200
1,36,107,150
1,36,110,98
1,36,110,88
1,31,107,64
1,31,94,92
1,31,110,114
1,29,120,152
1,29,107,152
1,29,107,114
1,41,107,26
1,29,120,16
1,29,117,142
1,31,120,40
1,34,100,72
1,31,107,38
1,36,113,22
1,36,99,124
1,36,101,112
1,36,99,100
1,31,113,40
1,31,113,118
1,34,109,24
1,36,101,24
1,29,117,8
1,29,107,166
1,29,110,100
1,41,117,34
1,29,110,28
1,29,110,126
1,31,114,16
1,34,113,64
1,31,109,20
1,36,120,30
1,36,107,150
1,36,110,98
1,36,110,88
1,31,107,64
1,31,94,92
1,31,110,114
1,29,120,152
1,29,107,152
1,29,107,114
1,41,107,26
1,29,120,16
1,29,117,142
1,31,120,40
1,34,100,72
1,31,107,38
1,36,113,22
1,36,99,124
1,36,101,112
1,36,99,100
1,31,113,40
1,31,113,118
1,34,109,24
1,36,101,24
1,29,117,8
1,29,107,166
1,29,110,100
1,41,117,34
1,29,110,28
1,29,110,126
1,31,114,16
1,34,113,64
1,31,109,20
1,36,123,30
2,46,96,13824
2,63,81,0
2,56,86,0
2,60,101,0
2,46,100,180
2,60,99,92
2,63,77,0
2,56,69,0
2,65,90,96
2,62,97,0
2,58,79,0
2,46,89,0
2,65,63,114
2,62,68,0
2,58,54,0
2,46,84,318
2,58,100,94
2,65,97,0
2,62,107,0
2,46,89,72
2,60,85,132
2,56,71,0
2,63,69,0
2,46,84,0
2,56,41,36
2,56,109,64
2,60,79,0
2,63,44,0
2,63,92,60
2,60,104,0
2,56,81,0
2,62,92,82
2,65,90,0
2,58,79,0
2,46,96,0
2,65,60,160
2,58,46,0
2,62,66,0
2,46,109,0
2,62,107,48
2,65,97,0
2,58,96,0
2,46,89,270
2,60,86,0
2,63,69,0
2,56,79,0
2,46,96,232
2,60,110,18
2,56,96,0
2,63,92,0
2,46,96,56
2,63,69,114
2,62,97,0
2,58,86,0
2,65,88,0
2,46,96,0
2,58,71,144
2,62,82,0
2,65,75,0
2,46,89,152
2,58,71,40
2,65,107,92
2,62,117,0
2,58,109,0
2,46,96,56
2,56,96,114
2,60,110,0
2,63,89,0
2,46,114,0
2,56,86,122
2,63,81,0
2,60,104,0
2,56,62,100
2,63,86,78
2,56,89,0
2,60,107,0
2,46,109,76
2,46,109,116
2,62,97,0
2,58,92,0
2,65,88,0
2,65,85,90
2,62,92,0
2,58,77,0
2,47,107,88
2,59,101,0
2,62,97,0
2,65,85,0
2,59,92,42
2,62,90,0
2,65,85,0
2,47,99,120
2,67,101,112
2,48,94,0
2,65,110,0
2,58,96,0
2,55,90,0
2,55,79,320
2,63,96,0
2,67,92,0
2,48,86,0
2,60,92,0
2,62,104,106
2,67,97,0
2,55,86,304
2,58,86,0
2,62,83,0
2,43,73,0
2,50,80,366
2,62,35,16
2,55,85,0
2,58,104,98
2,62,94,0
2,53,80,334
2,56,86,0
2,60,80,0
2,41,82,0
2,53,71,118
2,53,83,96
2,56,104,0
2,60,90,0
2,53,66,252
2,41,79,192
2,53,86,120
2,56,100,80
2,53,62,52
2,60,90,72
2,56,92,192
2,53,99,96
2,60,60,0
2,53,97,240
2,58,109,0
2,62,97,0
2,67,101,190
2,65,113,0
2,48,85,0
2,58,92,0
2,55,76,0
2,48,88,296
2,55,78,0
2,63,89,0
2,67,86,0
2,60,88,0
2,62,99,128
2,67,90,0
2,55,80,300
2,43,85,0
2,58,79,0
2,62,79,0
2,55,85,120
2,50,73,40
2,57,107,8
2,62,94,0
2,58,92,56
2,62,71,0
2,53,79,304
2,41,83,0
2,56,81,0
2,60,78,0
2,53,47,30
2,56,96,126
2,53,85,0
2,60,83,0
2,41,71,48
2,53,54,24
2,53,75,110
2,56,96,192
2,60,83,62
2,56,100,192
2,53,73,54
2,41,83,54
2,53,85,0
2,56,96,0
2,60,85,0
2,53,86,4
2,58,100,0
2,46,100,0
2,62,90,0
2,60,107,90
2,56,89,0
2,46,96,0
2,63,81,0
2,60,110,528
2,56,92,0
2,63,89,0
2,46,84,78
2,58,84,128
2,65,82,0
2,62,85,0
2,65,52,80
2,58,42,0
2,62,54,0
2,62,113,336
2,58,100,0
2,65,99,0
2,46,92,64
2,60,85,116
2,63,69,0
2,56,69,0
2,60,59,58
2,63,39,0
2,56,49,0
2,46,84,384
2,60,113,74
2,56,92,0
2,63,96,0
2,46,62,82
2,58,54,114
2,46,60,0
2,62,71,0
2,65,63,0
2,65,61,96
2,58,44,0
2,62,58,0
2,46,92,384
2,62,110,56
2,58,104,0
2,65,99,0
2,46,96,56
2,60,86,112
2,63,69,0
2,56,69,0
2,56,63,104
2,60,79,0
2,63,64,0
2,46,49,192
2,63,27,48
2,56,34,0
2,60,110,156
2,56,92,0
2,63,89,0
2,46,89,72
2,58,64,124
2,65,70,0
2,62,73,0
2,46,51,170
2,65,51,56
2,62,59,0
2,58,44,0
2,46,100,384
2,58,96,26
2,58,60,68
2,62,97,0
2,65,97,0
2,60,92,112
2,63,77,0
2,56,79,0
2,56,71,88
2,60,85,0
2,63,64,0
2,46,92,384
2,60,110,94
2,56,89,0
2,63,92,0
2,46,79,84
2,58,75,122
2,65,82,0
2,62,85,0
2,65,66,118
2,62,69,0
2,58,50,0
2,46,64,192
2,58,64,6
2,65,88,72
2,62,94,0
2,58,84,0
2,46,77,40
2,46,96,58
2,63,81,0
2,56,86,0
2,60,101,0
2,46,100,180
2,60,99,92
2,63,77,0
2,56,69,0
2,65,90,96
2,62,97,0
2,58,79,0
2,46,89,0
2,65,63,222
2,62,68,0
2,58,54,0
2,46,84,384
2,58,100,94
2,65,97,0
2,62,107,0
2,46,89,72
2,60,85,132
2,56,71,0
2,63,69,0
2,46,84,0
2,56,41,36
2,56,109,64
2,60,79,0
2,63,44,0
2,63,92,60
2,60,104,0
2,56,81,0
2,62,92,82
2,65,90,0
2,58,79,0
2,46,96,0
2,65,60,160
2,58,46,0
2,62,66,0
2,46,109,0
2,62,107,48
2,65,97,0
2,58,96,0
2,46,89,270
2,60,86,0
2,63,69,0
2,56,79,0
2,46,96,232
2,60,110,18
2,56,96,0
2,63,92,0
2,46,96,56
2,63,69,114
2,62,97,0
2,58,86,0
2,65,88,0
2,46,96,0
2,58,71,144
2,62,82,0
2,65,75,0
2,46,89,152
2,58,71,40
2,65,107,92
2,62,117,0
2,58,109,0
2,46,96,56
2,56,96,114
2,60,110,0
2,63,89,0
2,46,114,0
2,56,86,122
2,63,81,0
2,60,104,0
2,56,62,100
2,63,86,78
2,56,89,0
2,60,107,0
2,46,109,76
2,46,109,116
2,62,97,0
2,58,92,0
2,65,88,0
2,65,85,90
2,62,92,0
2,58,77,0
2,47,107,88
2,59,101,0
2,62,97,0
2,65,85,0
2,59,92,42
2,62,90,0
2,65,85,0
2,47,99,120
2,67,101,112
2,48,94,0
2,65,110,0
2,58,96,0
2,55,90,0
2,55,79,320
2,63,96,0
2,67,92,0
2,48,86,0
2,60,92,0
2,62,104,106
2,67,97,0
2,55,86,304
2,58,86,0
2,62,83,0
2,43,73,0
2,50,80,366
2,62,35,16
2,55,85,0
2,58,104,98
2,62,94,0
2,53,80,334
2,56,86,0
2,60,80,0
2,41,82,0
2,53,71,118
2,53,83,96
2,56,104,0
2,60,90,0
2,53,66,252
2,41,79,192
2,53,86,120
2,56,100,80
2,53,62,52
2,60,90,72
2,56,92,192
2,53,99,96
2,60,60,0
2,53,97,240
2,58,109,0
2,62,97,0
2,67,101,190
2,65,113,0
2,48,85,0
2,58,92,0
2,55,76,0
2,48,88,296
2,55,78,0
2,63,89,0
2,67,86,0
2,60,88,0
2,62,99,128
2,67,90,0
2,55,80,300
2,43,85,0
2,58,79,0
2,62,79,0
2,55,85,120
2,50,73,40
2,57,107,8
2,62,94,0
2,58,92,56
2,62,71,0
2,53,79,304
2,41,83,0
2,56,81,0
2,60,78,0
2,53,47,30
2,56,96,126
2,53,85,0
2,60,83,0
2,41,71,48
2,53,54,24
2,53,75,110
2,56,96,192
2,60,83,62
2,56,100,192
2,53,73,54
2,41,83,54
2,53,85,0
2,56,96,0
2,60,85,0
2,53,86,4
2,58,100,0
2,46,100,0
2,62,90,0
2,60,112,1050
2,63,112,0
2,67,112,0
2,57,112,278
2,55,112,0
2,62,112,366
2,63,112,192
2,65,112,120
2,63,112,176
2,62,112,172
2,62,112,186
2,63,112,10
2,60,112,10
2,55,112,96
2,60,112,570
2,60,112,28
2,62,112,62
2,63,112,94
2,65,112,72
2,67,112,72
2,67,112,28
2,72,112,308
2,67,112,0
2,67,112,16
2,65,112,298
2,63,112,384
2,65,112,16
2,67,112,6
2,63,112,4
2,60,112,48
2,65,112,42
2,63,112,102
2,67,112,62
2,63,112,38
2,60,112,48
2,65,112,24
2,63,112,88
2,67,112,4
2,63,112,142
2,60,112,80
2,65,112,48
2,63,112,100
2,67,112,6
2,63,112,138
2,60,112,2
2,65,112,46
2,63,112,116
2,67,112,2
2,63,112,180
2,60,112,10
2,65,112,44
2,63,112,104
2,67,112,6
2,70,112,30
2,70,112,70
2,70,112,96
2,67,112,24
2,70,112,192
2,67,112,2
2,65,112,192
2,63,112,76
2,65,112,192
2,60,112,170
2,60,112,194
2,63,112,192
2,65,112,10
2,67,112,192
2,70,112,32
2,72,112,30
2,70,112,30
2,72,112,54
2,60,107,96
2,56,89,0
2,46,96,0
2,63,81,0
2,60,110,528
2,56,92,0
2,63,89,0
2,46,84,78
2,58,84,128
2,65,82,0
2,62,85,0
2,65,52,80
2,58,42,0
2,62,54,0
2,62,113,336
2,58,100,0
2,65,99,0
2,46,92,64
2,60,85,116
2,63,69,0
2,56,69,0
2,60,59,58
2,63,39,0
2,56,49,0
2,46,84,384
2,60,113,74
2,56,92,0
2,63,96,0
2,46,62,82
2,58,54,114
2,46,60,0
2,62,71,0
2,65,63,0
2,65,61,96
2,58,44,0
2,62,58,0
2,46,92,384
2,62,110,56
2,58,104,0
2,65,99,0
2,46,96,56
2,60,86,112
2,63,69,0
2,56,69,0
2,56,63,104
2,60,79,0
2,63,64,0
2,46,49,192
2,63,27,48
2,56,34,0
2,60,110,156
2,56,92,0
2,63,89,0
2,46,89,72
2,58,64,124
2,65,70,0
2,62,73,0
2,46,51,170
2,65,51,56
2,62,59,0
2,58,44,0
2,46,100,384
2,58,96,26
2,58,60,68
2,62,97,0
2,65,97,0
2,60,92,112
2,63,77,0
