track,note,velocity,time
1,36,85,480
1,36,0,55
1,36,85,5
1,36,0,55
1,31,85,65
1,31,0,55
1,36,85,5
1,36,0,55
1,36,85,5
1,36,0,55
1,31,85,65
1,31,0,55
1,36,85,5
1,36,0,55
1,36,85,5
1,36,0,55
1,31,85,65
1,31,0,55
1,36,85,5
1,36,0,55
1,36,85,5
1,36,0,55
1,36,85,5
1,36,0,55
1,36,85,5
1,36,0,55
1,34,85,5
1,34,0,55
1,34,85,5
1,34,0,55
1,29,85,65
1,29,0,55
1,34,85,5
1,34,0,55
1,34,85,5
1,34,0,55
1,34,85,5
1,34,0,55
1,34,85,5
1,34,0,120
1,34,85,0
1,34,0,55
1,34,85,5
1,34,0,120
1,34,85,0
1,34,0,55
1,34,85,5
1,34,0,55
1,34,85,5
1,34,0,55
1,34,85,5
1,34,0,55
1,36,85,5
1,36,0,55
1,36,85,5
1,36,0,55
1,31,85,65
1,31,0,55
1,36,85,5
1,36,0,55
1,36,85,5
1,36,0,55
1,31,85,65
1,31,0,55
1,36,85,5
1,36,0,55
1,36,85,5
1,36,0,55
1,31,85,65
1,31,0,55
1,36,85,5
1,36,0,55
1,36,85,5
1,36,0,55
1,36,85,5
1,36,0,55
1,36,85,5
1,36,0,55
1,34,85,5
1,34,0,55
1,34,85,5
1,34,0,55
1,29,85,65
1,29,0,55
1,34,85,5
1,34,0,55
1,34,85,5
1,34,0,55
1,34,85,5
1,34,0,55
1,34,85,5
1,34,0,120
1,34,85,0
1,34,0,55
1,34,85,5
1,34,0,120
1,34,85,0
1,34,0,55
1,34,85,5
1,34,0,55
1,34,85,5
1,34,0,55
1,34,85,5
1,34,0,55
1,36,85,965
1,36,0,55
1,36,85,5
1,36,0,55
1,31,85,65
1,31,0,55
1,36,85,5
1,36,0,55
1,36,85,5
1,36,0,55
1,31,85,65
1,31,0,55
1,36,85,5
1,36,0,55
1,36,85,5
1,36,0,55
1,31,85,65
1,31,0,55
1,36,85,5
1,36,0,55
1,36,85,5
1,36,0,55
1,36,85,5
1,36,0,55
1,36,85,5
1,36,0,55
1,34,85,5
1,34,0,55
1,34,85,5
1,34,0,55
1,29,85,65
1,29,0,55
1,34,85,5
1,34,0,55
1,34,85,5
1,34,0,55
1,34,85,5
1,34,0,55
1,34,85,5
1,34,0,120
1,34,85,0
1,34,0,55
1,34,85,5
1,34,0,120
1,34,85,0
1,34,0,55
1,34,85,5
1,34,0,55
1,34,85,5
1,34,0,55
1,34,85,5
1,34,0,55
1,36,85,5
1,36,0,55
1,36,85,5
1,36,0,55
1,31,85,65
1,31,0,55
1,36,85,5
1,36,0,55
1,36,85,5
1,36,0,55
1,31,85,65
1,31,0,55
1,36,85,5
1,36,0,55
1,36,85,5
1,36,0,55
1,31,85,65
1,31,0,55
1,36,85,5
1,36,0,55
1,36,85,5
1,36,0,55
1,36,85,5
1,36,0,55
1,36,85,5
1,36,0,55
1,34,85,5
1,34,0,55
1,34,85,5
1,34,0,55
1,29,85,65
1,29,0,55
1,34,85,5
1,34,0,55
1,34,85,5
1,34,0,55
1,34,85,5
1,34,0,55
1,34,85,5
1,34,0,120
1,34,85,0
1,34,0,55
1,34,85,5
1,34,0,120
1,34,85,0
1,34,0,55
1,34,85,5
1,34,0,55
1,34,85,5
1,34,0,55
1,34,85,5
1,34,0,55
1,41,85,5
1,41,0,55
1,41,85,5
1,41,0,55
1,38,85,5
1,38,0,55
1,36,85,5
1,36,0,55
1,41,85,5
1,41,0,55
1,41,85,5
1,41,0,55
1,38,85,5
1,38,0,55
1,36,85,5
1,36,0,55
1,41,85,5
1,41,0,55
1,41,85,5
1,41,0,55
1,38,85,5
1,38,0,55
1,36,85,5
1,36,0,55
1,41,85,5
1,41,0,55
1,41,85,5
1,41,0,55
1,38,85,5
1,38,0,55
1,36,85,5
1,36,0,55
1,41,85,5
1,41,0,55
1,41,85,5
1,41,0,55
1,38,85,5
1,38,0,55
1,36,85,5
1,36,0,55
1,41,85,5
1,41,0,55
1,41,85,5
1,41,0,55
1,38,85,5
1,38,0,55
1,36,85,5
1,36,0,55
1,41,85,5
1,41,0,55
1,41,85,5
1,41,0,55
1,38,85,5
1,38,0,55
1,36,85,5
1,36,0,55
1,41,85,5
1,41,0,55
1,41,85,5
1,41,0,55
1,38,85,5
1,38,0,55
1,36,85,5
1,36,0,55
1,36,85,5
1,36,0,55
1,36,85,5
1,36,0,55
1,33,85,5
1,33,0,55
1,31,85,5
1,31,0,55
1,36,85,5
1,36,0,55
1,36,85,5
1,36,0,55
1,36,85,5
1,36,0,55
1,36,85,5
1,36,0,55
1,35,85,5
1,35,0,55
1,35,85,5
1,35,0,55
1,35,85,5
1,35,0,55
1,33,85,5
1,33,0,55
1,35,85,5
1,35,0,55
1,35,85,5
1,35,0,55
1,35,85,5
1,35,0,55
1,40,85,5
1,40,0,55
1,41,85,5
1,41,0,55
1,41,85,5
1,41,0,55
1,41,85,5
1,41,0,55
1,40,85,5
1,40,0,55
1,38,85,5
1,38,0,55
1,38,85,5
1,38,0,55
1,38,85,5
1,38,0,55
1,38,85,5
1,38,0,55
1,43,85,5
1,43,0,55
1,43,85,5
1,43,0,55
1,43,85,5
1,43,0,55
1,43,85,5
1,43,0,55
1,43,85,5
1,43,0,55
1,43,85,5
1,43,0,55
1,43,85,5
1,43,0,55
1,43,85,5
1,43,0,55
1,36,85,5
1,36,0,55
1,36,85,5
1,36,0,55
1,31,85,65
1,31,0,55
1,36,85,5
1,36,0,55
1,36,85,5
1,36,0,55
1,31,85,65
1,31,0,55
1,36,85,5
1,36,0,55
1,36,85,5
1,36,0,55
1,31,85,65
1,31,0,55
1,36,85,5
1,36,0,55
1,36,85,5
1,36,0,55
1,36,85,5
1,36,0,55
1,36,85,5
1,36,0,55
1,34,85,5
1,34,0,55
1,34,85,5
1,34,0,55
1,29,85,65
1,29,0,55
1,34,85,5
1,34,0,55
1,34,85,5
1,34,0,55
1,34,85,5
1,34,0,55
1,34,85,5
1,34,0,120
1,34,85,0
1,34,0,55
1,34,85,5
1,34,0,120
1,34,85,0
1,34,0,55
1,34,85,5
1,34,0,55
1,34,85,5
1,34,0,55
1,34,85,5
1,34,0,55
1,36,85,5
1,36,0,55
1,36,85,5
1,36,0,55
1,31,85,65
1,31,0,55
1,36,85,5
1,36,0,55
1,36,85,5
1,36,0,55
1,31,85,65
1,31,0,55
1,36,85,5
1,36,0,55
1,36,85,5
1,36,0,55
1,31,85,65
1,31,0,55
1,36,85,5
1,36,0,55
1,36,85,5
1,36,0,55
1,36,85,5
1,36,0,55
1,36,85,5
1,36,0,55
1,34,85,5
1,34,0,55
1,34,85,5
1,34,0,55
1,29,85,65
1,29,0,55
1,34,85,5
1,34,0,55
1,34,85,5
1,34,0,55
1,34,85,5
1,34,0,55
1,34,85,5
1,34,0,120
1,34,85,0
1,34,0,55
1,34,85,5
1,34,0,120
1,34,85,0
1,34,0,55
1,34,85,5
1,34,0,55
1,34,85,5
1,34,0,55
1,34,85,5
1,34,0,55
1,41,85,5
1,41,0,55
1,41,85,5
1,41,0,55
1,38,85,5
1,38,0,55
1,36,85,5
1,36,0,55
1,41,85,5
1,41,0,55
1,41,85,5
1,41,0,55
1,38,85,5
1,38,0,55
1,36,85,5
1,36,0,55
1,41,85,5
1,41,0,55
1,41,85,5
1,41,0,55
1,38,85,5
1,38,0,55
1,36,85,5
1,36,0,55
1,41,85,5
1,41,0,55
1,41,85,5
1,41,0,55
1,38,85,5
1,38,0,55
1,36,85,5
1,36,0,55
1,41,85,5
1,41,0,55
1,41,85,5
1,41,0,55
1,38,85,5
1,38,0,55
1,36,85,5
1,36,0,55
1,41,85,5
1,41,0,55
1,41,85,5
1,41,0,55
1,38,85,5
1,38,0,55
1,36,85,5
1,36,0,55
1,41,85,5
1,41,0,55
1,41,85,5
1,41,0,55
1,38,85,5
1,38,0,55
1,36,85,5
1,36,0,55
1,41,85,5
1,41,0,55
1,41,85,5
1,41,0,55
1,40,85,5
1,40,0,55
1,38,85,5
1,38,0,55
1,36,85,5
1,36,0,55
1,36,85,5
1,36,0,55
1,33,85,5
1,33,0,55
1,31,85,5
1,31,0,55
1,36,85,5
1,36,0,55
1,36,85,5
1,36,0,55
1,36,85,5
1,36,0,55
1,36,85,5
1,36,0,55
1,35,85,5
1,35,0,55
1,35,85,5
1,35,0,55
1,35,85,5
1,35,0,55
1,36,85,5
1,36,0,55
1,40,85,5
1,40,0,55
1,40,85,5
1,40,0,55
1,38,85,5
1,38,0,55
1,40,85,5
1,40,0,55
1,41,85,5
1,41,0,55
1,41,85,5
1,41,0,55
1,41,85,5
1,41,0,55
1,40,85,5
1,40,0,55
1,38,85,5
1,38,0,55
1,38,85,5
1,38,0,55
1,38,85,5
1,38,0,55
1,38,85,5
1,38,0,55
1,43,85,5
1,43,0,55
1,43,85,5
1,43,0,55
1,43,85,5
1,43,0,55
1,43,85,5
1,43,0,55
1,43,85,5
1,43,0,55
1,43,85,5
1,43,0,55
1,43,85,5
1,43,0,55
1,43,85,5
1,43,0,55
1,36,85,5
1,36,0,55
1,36,85,5
1,36,0,55
1,31,85,65
1,31,0,55
1,36,85,5
1,36,0,55
1,36,85,5
1,36,0,55
1,31,85,65
1,31,0,55
1,36,85,5
1,36,0,55
1,36,85,5
1,36,0,55
1,31,85,65
1,31,0,55
1,36,85,5
1,36,0,55
1,36,85,5
1,36,0,55
1,36,85,5
1,36,0,55
1,36,85,5
1,36,0,55
1,46,85,5
1,46,0,180
1,45,85,0
1,45,0,180
1,43,85,0
1,43,0,180
1,41,85,0
1,41,0,180
1,38,85,0
1,38,0,120
1,36,85,0
1,36,0,120
1,34,85,0
1,34,0,120
1,34,85,60
1,34,85,60
1,34,0,60
1,34,0,60
1,34,85,120
1,34,0,120
1,34,85,60
1,34,85,60
1,34,0,60
1,34,0,60
1,36,85,120
1,36,0,120
1,36,85,60
1,36,85,60
1,36,0,60
1,36,0,60
1,36,85,120
1,36,0,120
1,36,85,60
1,36,85,60
1,36,0,60
1,36,0,60
1,34,85,120
1,34,0,120
1,34,85,60
1,34,85,60
1,34,0,60
1,34,0,60
1,34,85,120
1,34,0,120
1,34,85,60
1,34,85,60
1,34,0,60
1,34,0,60
1,29,85,120
1,29,0,120
1,29,85,60
1,29,85,60
1,29,0,60
1,29,0,60
1,31,85,120
1,31,0,50
1,31,85,10
1,31,0,50
1,31,85,10
1,31,0,50
1,31,85,10
1,31,0,50
1,31,85,10
1,31,0,50
1,31,85,10
1,31,0,50
1,31,85,10
1,31,0,50
1,31,85,10
1,31,0,50
1,31,85,10
1,31,0,50
1,31,85,10
1,31,0,50
1,31,85,10
1,31,0,50
1,31,85,10
1,31,0,50
1,31,85,10
1,31,0,50
1,31,85,10
1,31,0,50
1,33,85,10
1,33,0,50
1,35,85,10
1,35,0,50
1,36,85,10
1,36,0,55
1,36,85,5
1,36,0,55
1,31,85,65
1,31,0,55
1,36,85,5
1,36,0,55
1,36,85,5
1,36,0,55
1,31,85,65
1,31,0,55
1,36,85,5
1,36,0,55
1,36,85,5
1,36,0,55
1,31,85,65
1,31,0,55
1,36,85,5
1,36,0,55
1,36,85,5
1,36,0,55
1,36,85,5
1,36,0,55
1,36,85,5
1,36,0,55
1,34,85,5
1,34,0,55
1,34,85,5
1,34,0,55
1,29,85,65
1,29,0,55
1,34,85,5
1,34,0,55
1,34,85,5
1,34,0,55
1,34,85,5
1,34,0,55
1,34,85,5
1,34,0,120
1,34,85,0
1,34,0,55
1,34,85,5
1,34,0,120
1,34,85,0
1,34,0,55
1,34,85,5
1,34,0,55
1,34,85,5
1,34,0,55
1,34,85,5
1,34,0,55
1,36,85,5
1,36,0,55
1,36,85,5
1,36,0,55
1,31,85,65
1,31,0,55
1,36,85,5
1,36,0,55
1,36,85,5
1,36,0,55
1,31,85,65
1,31,0,55
1,36,85,5
1,36,0,55
1,36,85,5
1,36,0,55
1,31,85,65
1,31,0,55
1,36,85,5
1,36,0,55
1,36,85,5
1,36,0,55
1,36,85,5
1,36,0,55
1,36,85,5
1,36,0,55
1,34,85,5
1,34,0,55
1,34,85,5
1,34,0,55
1,29,85,65
1,29,0,55
1,34,85,5
1,34,0,55
1,34,85,5
1,34,0,55
1,34,85,5
1,34,0,55
1,34,85,5
1,34,0,120
1,34,85,0
1,34,0,55
1,34,85,5
1,34,0,120
1,34,85,0
1,34,0,55
1,34,85,5
1,34,0,55
1,34,85,5
1,34,0,55
1,34,85,5
1,34,0,55
1,41,85,5
1,41,0,55
1,41,85,5
1,41,0,55
1,38,85,5
1,38,0,55
1,36,85,5
1,36,0,55
1,41,85,5
1,41,0,55
1,41,85,5
1,41,0,55
1,38,85,5
1,38,0,55
1,36,85,5
1,36,0,55
1,41,85,5
1,41,0,55
1,41,85,5
1,41,0,55
1,38,85,5
1,38,0,55
1,36,85,5
1,36,0,55
1,41,85,5
1,41,0,55
1,41,85,5
1,41,0,55
1,38,85,5
1,38,0,55
1,36,85,5
1,36,0,55
1,41,85,5
1,41,0,55
1,41,85,5
1,41,0,55
1,38,85,5
1,38,0,55
1,36,85,5
1,36,0,55
1,41,85,5
1,41,0,55
1,41,85,5
1,41,0,55
1,38,85,5
1,38,0,55
1,36,85,5
1,36,0,55
1,41,85,5
1,41,0,55
1,41,85,5
1,41,0,55
1,38,85,5
1,38,0,55
1,36,85,5
1,36,0,55
1,41,85,5
1,41,0,55
1,41,85,5
1,41,0,55
1,40,85,5
1,40,0,55
1,38,85,5
1,38,0,55
1,36,85,5
1,36,0,55
1,36,85,5
1,36,0,55
1,33,85,5
1,33,0,55
1,31,85,5
1,31,0,55
1,36,85,5
1,36,0,55
1,36,85,5
1,36,0,55
1,36,85,5
1,36,0,55
1,36,85,5
1,36,0,55
1,35,85,5
1,35,0,55
1,35,85,5
1,35,0,55
1,35,85,5
1,35,0,55
1,36,85,5
1,36,0,55
1,40,85,5
1,40,0,55
1,40,85,5
1,40,0,55
1,38,85,5
1,38,0,55
1,40,85,5
1,40,0,55
1,41,85,5
1,41,0,55
1,41,85,5
1,41,0,55
1,41,85,5
1,41,0,55
1,40,85,5
1,40,0,55
1,38,85,5
1,38,0,55
1,38,85,5
1,38,0,55
1,38,85,5
1,38,0,55
1,38,85,5
1,38,0,55
1,43,85,5
1,43,0,55
1,43,85,5
1,43,0,55
1,43,85,5
1,43,0,55
1,43,85,5
1,43,0,55
1,43,85,5
1,43,0,55
1,43,85,5
1,43,0,55
1,43,85,5
1,43,0,55
1,43,85,5
1,43,0,55
1,36,85,5
1,36,0,55
1,36,85,5
1,36,0,55
1,31,85,65
1,31,0,55
1,36,85,5
1,36,0,55
1,36,85,5
1,36,0,55
1,31,85,65
1,31,0,55
1,36,85,5
1,36,0,55
1,36,85,5
1,36,0,55
1,31,85,65
1,31,0,55
1,36,85,5
1,36,0,55
1,36,85,5
1,36,0,55
1,36,85,5
1,36,0,55
1,36,85,5
1,36,0,55
1,46,85,5
1,46,0,180
1,45,85,0
1,45,0,180
1,43,85,0
1,43,0,180
1,41,85,0
1,41,0,180
1,40,85,0
1,40,0,120
1,38,85,0
1,38,0,120
1,36,85,0
1,36,0,55
1,36,85,5
1,36,0,55
1,31,85,65
1,31,0,55
1,36,85,5
1,36,0,55
1,36,85,5
1,36,0,55
1,31,85,65
1,31,0,55
1,36,85,5
1,36,0,55
1,36,85,5
1,36,0,55
1,31,85,65
1,31,0,55
1,36,85,5
1,36,0,55
1,36,85,5
1,36,0,55
1,36,85,5
1,36,0,55
1,36,85,5
1,36,0,55
1,46,85,5
1,46,0,180
1,45,79,0
1,45,0,180
1,43,74,0
1,43,0,180
1,41,69,0
1,41,0,180
1,40,63,0
1,40,0,120
1,38,59,0
1,38,0,120
1,36,56,0
1,36,0,55
1,36,54,5
1,36,0,55
1,31,51,65
1,31,0,55
1,36,50,5
1,36,0,55
1,36,48,5
1,36,0,55
1,31,44,65
1,31,0,55
