track,note,velocity,time
0,42,79,0
0,35,127,2
0,42,57,88
0,42,42,50
0,40,127,30
0,42,42,2
0,42,57,90
0,42,42,50
0,42,79,30
0,35,127,50
0,42,57,30
0,35,57,0
0,42,57,50
0,40,127,30
0,42,42,0
0,42,57,90
0,42,57,50
0,42,79,30
0,35,127,0
0,42,57,90
0,42,42,50
0,40,127,30
0,42,42,0
0,42,57,92
0,42,42,50
0,42,79,30
0,40,57,50
0,35,57,2
0,42,57,28
0,42,57,50
0,40,127,30
0,42,42,2
0,42,57,90
0,35,127,0
0,42,57,50
0,42,79,30
0,35,127,0
0,42,57,90
0,42,42,50
0,40,127,30
0,42,42,0
0,42,57,90
0,42,42,50
0,42,79,30
0,35,127,50
0,42,57,30
0,35,57,0
0,42,57,50
0,40,127,32
0,42,42,0
0,42,57,90
0,42,57,50
0,42,79,30
0,35,127,2
0,42,57,90
0,42,42,50
0,40,127,30
0,42,42,0
0,42,57,90
0,42,42,50
0,40,127,30
0,42,79,0
0,35,57,2
0,35,127,50
0,42,57,30
0,35,57,0
0,42,57,50
0,40,127,30
0,42,42,0
0,47,127,50
0,43,127,30
0,42,57,0
0,30,66,25
0,52,127,23
0,42,57,0
0,42,66,22
0,24,127,8
0,67,127,0
0,72,127,0
0,48,127,0
0,42,79,0
0,35,127,0
0,42,57,90
0,42,42,52
0,40,127,30
0,42,42,2
0,42,57,88
0,42,42,50
0,42,79,30
0,35,127,50
0,42,57,30
0,35,57,2
0,42,57,50
0,40,127,30
0,42,42,0
0,42,57,90
0,42,57,50
0,42,79,30
0,35,127,0
0,42,57,90
0,42,42,50
0,40,127,30
0,42,42,0
0,42,57,90
0,42,42,50
0,42,79,30
0,40,57,52
0,35,57,0
0,42,57,30
0,42,57,35
0,31,127,5
0,55,127,0
0,40,127,2
0,42,42,0
0,70,118,3
0,33,115,38
0,57,115,0
0,71,104,7
0,42,57,10
0,35,127,0
0,42,57,50
0,42,79,28
0,35,127,2
0,24,127,5
0,48,127,0
0,72,125,5
0,67,121,0
0,70,92,3
0,42,57,90
0,42,42,50
0,40,127,30
0,42,42,0
0,42,57,90
0,42,42,50
0,42,79,30
0,35,127,50
0,42,57,30
0,35,57,2
0,42,57,50
0,40,127,30
0,42,42,2
0,42,57,90
0,42,57,50
0,42,79,30
0,35,127,0
0,42,57,90
0,42,42,50
0,40,127,30
0,42,42,0
0,42,57,90
0,42,42,50
0,42,79,30
0,40,57,50
0,46,109,0
0,35,127,0
0,42,57,30
0,35,57,0
0,42,57,20
0,24,127,22
0,48,127,0
0,72,107,3
0,84,105,0
0,60,107,5
0,40,127,0
0,43,109,0
0,60,50,5
0,24,127,18
0,48,127,0
0,42,79,0
0,72,108,2
0,67,96,0
0,35,127,0
0,42,57,88
0,42,42,50
0,40,127,30
0,42,42,0
0,42,57,90
0,42,42,50
0,42,79,30
0,35,127,50
0,42,57,30
0,35,57,0
0,42,57,50
0,40,127,30
0,42,42,0
0,42,57,90
0,42,57,50
0,29,127,5
0,77,79,0
0,53,127,0
0,42,79,18
0,35,127,0
0,42,57,90
0,42,42,52
0,40,127,30
0,42,42,2
0,79,94,80
0,42,57,8
0,24,127,32
0,48,127,0
0,75,94,5
0,42,42,13
0,42,79,30
0,24,115,32
0,48,115,0
0,67,82,5
0,72,54,5
0,35,127,0
0,24,127,17
0,48,127,0
0,72,106,3
0,67,82,2
0,42,57,8
0,35,57,2
0,42,57,48
0,40,127,30
0,42,42,0
0,42,57,90
0,42,57,50
0,67,121,25
0,72,115,0
0,24,127,2
0,48,127,0
0,42,79,3
0,35,127,0
0,42,57,90
0,42,42,50
0,40,127,30
0,42,42,0
0,42,57,90
0,42,42,50
0,42,79,30
0,35,127,50
0,42,57,30
0,35,57,0
0,42,57,48
0,40,127,30
0,42,42,2
0,42,57,88
0,42,57,50
0,31,127,0
0,71,90,0
0,43,127,0
0,74,102,2
0,42,79,3
0,35,127,2
0,42,57,90
0,42,42,50
0,40,127,30
0,42,42,0
0,42,57,90
0,42,42,50
0,42,79,30
0,35,127,50
0,42,57,30
0,35,57,0
0,42,57,50
0,40,127,30
0,42,42,0
0,42,57,90
0,42,57,3
0,31,127,27
0,43,127,0
0,42,79,3
0,35,127,0
0,42,57,90
0,42,42,50
0,40,127,30
0,42,42,2
0,42,57,88
0,42,42,50
0,42,79,30
0,40,57,50
0,35,57,2
0,42,57,30
0,42,57,50
0,40,127,30
0,42,42,0
0,42,57,90
0,35,127,0
0,42,57,13
0,31,127,5
0,79,79,0
0,43,127,0
0,42,79,0
0,35,127,0
0,42,57,90
0,42,42,50
0,40,127,30
0,42,42,0
0,42,57,90
0,42,42,50
0,42,79,30
0,40,57,50
0,35,57,0
0,42,57,30
0,42,57,50
0,40,127,30
0,42,42,2
0,42,57,88
0,35,127,2
0,42,57,18
0,31,127,22
0,43,127,0
0,77,74,8
0,42,79,0
0,35,127,2
0,42,57,90
0,42,42,50
0,40,127,30
0,42,42,0
0,42,57,90
0,42,42,50
0,42,79,30
0,40,57,50
0,35,57,0
0,42,57,30
0,42,57,50
0,40,127,30
0,42,42,0
0,42,57,90
0,35,127,0
0,42,57,3
0,24,127,18
0,48,127,0
0,67,82,5
0,72,121,5
0,49,127,0
0,42,79,0
0,35,127,0
0,70,84,2
0,42,57,92
0,42,42,50
0,40,127,30
0,42,42,2
0,42,57,88
0,42,42,50
0,42,79,30
0,35,127,50
0,42,57,30
0,35,57,0
0,42,57,50
0,40,127,30
0,42,42,0
0,60,107,85
0,72,98,0
0,42,57,5
0,42,57,5
0,69,86,18
0,77,84,0
0,29,127,5
0,53,127,0
0,53,107,0
0,42,79,5
0,35,127,0
0,42,57,70
0,42,42,50
0,40,127,30
0,42,42,0
0,48,60,70
0,79,98,8
0,42,57,0
0,72,95,27
0,60,107,0
0,31,127,5
0,43,127,0
0,75,108,5
0,42,42,3
0,42,79,3
0,60,107,28
0,72,82,5
0,24,118,5
0,48,118,0
0,67,110,5
0,72,76,0
0,35,127,0
0,72,36,15
0,60,107,0
0,24,127,8
0,48,127,0
0,72,125,7
0,42,57,0
0,35,57,0
0,67,98,3
0,42,57,15
0,67,86,20
0,69,107,0
0,55,107,5
0,40,127,5
0,42,42,2
0,69,78,20
0,35,127,8
0,57,107,2
0,42,57,18
0,46,127,50
0,24,127,17
0,48,127,0
0,72,127,10
0,67,127,0
0,42,79,3
0,35,127,2
0,42,57,90
0,42,42,50
0,40,127,30
0,42,42,0
0,42,57,90
0,42,42,50
0,42,79,30
0,35,127,50
0,42,57,30
0,35,57,0
0,42,57,50
0,40,127,30
0,42,42,0
0,60,107,82
0,72,90,0
0,42,57,8
0,42,57,23
0,69,80,15
0,75,92,0
0,77,88,0
0,65,107,0
0,53,107,0
0,29,127,5
0,53,127,0
0,42,79,5
0,35,127,2
0,42,57,88
0,42,42,50
0,40,127,30
0,42,42,2
0,42,57,25
0,79,115,0
0,24,118,20
0,48,118,0
0,72,101,5
0,60,105,0
0,75,112,2
0,42,42,3
0,42,79,5
0,24,100,27
0,48,100,0
0,60,105,8
0,72,90,2
0,72,110,0
0,67,75,5
0,35,127,3
0,24,100,15
0,48,100,0
0,60,101,8
0,72,72,0
0,67,82,2
0,72,115,0
0,42,57,3
0,35,57,0
0,42,57,35
0,67,92,27
0,70,115,3
0,40,127,0
0,42,42,0
0,55,107,5
0,71,100,37
0,69,92,3
0,35,127,0
0,57,107,2
0,42,57,20
0,46,127,50
0,60,107,20
0,72,101,2
0,24,127,3
0,72,118,0
0,48,127,0
0,67,127,0
0,49,127,5
0,42,79,0
0,35,127,0
0,42,57,90
0,42,42,50
0,40,127,30
0,42,42,0
0,42,57,90
0,42,42,52
0,67,84,5
0,71,78,0
0,59,95,0
0,31,125,8
0,79,92,0
0,43,125,0
0,49,127,2
0,42,79,0
0,35,127,0
0,42,57,88
0,42,57,50
0,40,127,30
0,42,42,2
0,42,57,90
0,42,57,50
0,69,54,0
0,29,121,3
0,41,121,0
0,75,82,5
0,65,48,0
0,63,72,0
0,77,72,5
0,53,95,0
0,42,79,0
0,35,127,2
0,42,57,90
0,42,42,50
0,40,127,30
0,42,42,0
0,42,57,90
0,42,42,50
0,42,79,30
0,40,57,50
0,46,109,0
0,35,127,0
0,42,57,30
0,35,57,0
0,42,57,15
0,67,105,20
0,40,127,10
0,43,109,0
0,29,127,5
0,53,127,0
0,69,105,32
0,31,125,0
0,55,125,0
0,67,102,5
0,70,65,0
0,72,101,0
0,72,94,2
0,60,107,0
0,24,127,3
0,48,127,0
0,49,127,0
0,42,79,2
0,35,127,0
0,42,57,75
0,42,42,50
0,40,127,30
0,42,42,2
0,42,57,88
0,42,42,50
0,42,79,30
0,35,127,50
0,42,57,30
0,35,57,0
0,42,57,50
0,40,127,30
0,42,42,0
0,42,57,90
0,42,57,50
0,77,75,2
0,29,118,8
0,53,118,0
0,42,79,5
0,35,127,0
0,42,57,90
0,42,42,50
0,40,127,30
0,42,42,0
0,79,108,3
0,42,57,0
0,75,104,22
0,42,42,13
0,42,79,10
0,24,118,40
0,72,92,0
0,48,118,0
0,35,127,10
0,72,106,22
0,24,127,3
0,48,127,0
0,42,57,5
0,35,57,2
0,42,57,28
0,40,127,30
0,42,42,2
0,42,57,90
0,42,57,50
0,24,121,22
0,48,121,0
0,67,121,5
0,72,121,0
0,70,102,0
0,42,79,3
0,35,127,0
0,42,57,90
0,42,42,50
0,40,127,30
0,42,42,0
0,42,57,90
0,42,42,50
0,42,79,30
0,35,127,50
0,42,57,30
0,35,57,0
0,42,57,50
0,40,127,30
0,42,42,0
0,42,57,90
0,42,57,25
0,79,80,15
0,71,35,5
0,31,127,2
0,43,127,0
0,42,79,3
0,35,127,2
0,42,57,88
0,42,42,50
0,40,127,30
0,42,42,2
0,42,57,88
0,42,42,50
0,42,79,30
0,35,127,50
0,42,57,30
0,35,57,0
0,42,57,50
0,40,127,30
0,42,42,0
0,42,57,90
0,42,57,50
0,31,127,22
0,43,127,0
0,42,79,8
0,35,127,0
0,42,57,90
0,42,42,50
0,40,127,30
0,42,42,0
0,42,57,90
0,42,42,50
0,42,79,30
0,40,57,50
0,35,57,2
0,42,57,28
0,42,57,50
0,40,127,30
0,42,42,2
0,42,57,88
0,35,127,2
0,42,57,8
0,31,127,22
0,43,127,0
0,77,53,5
0,42,79,3
0,35,127,0
0,42,57,90
0,42,42,50
0,40,127,30
0,42,42,0
0,42,57,90
0,42,42,50
0,42,79,30
0,40,57,50
0,35,57,0
0,42,57,30
0,42,57,50
0,40,127,30
0,42,42,0
0,42,57,90
0,35,127,0
0,42,57,13
0,42,79,30
0,35,127,2
0,31,127,3
0,43,127,0
0,42,57,88
0,42,42,50
0,40,127,30
0,42,42,2
0,42,57,90
0,42,42,50
0,42,79,30
0,31,121,40
0,43,121,0
0,67,118,8
0,74,127,0
0,40,57,0
0,35,57,0
0,42,57,3
0,31,121,50
0,43,121,0
0,42,57,0
0,75,118,5
0,67,118,0
0,40,127,0
0,42,42,0
0,31,115,50
0,43,115,0
0,67,92,12
0,76,125,0
0,42,57,3
0,35,127,0
0,42,57,50
0,24,58,7
0,48,58,0
0,49,127,25
0,42,79,0
0,35,127,0
0,72,127,7
0,67,118,0
0,70,98,3
0,24,127,7
0,48,127,0
0,42,57,90
0,42,42,50
0,40,127,30
0,42,42,0
0,42,57,88
0,42,42,50
0,42,79,30
0,35,127,50
0,42,57,30
0,35,57,2
0,42,57,48
0,40,127,30
0,42,42,2
0,72,88,77
0,60,107,3
0,42,57,10
0,42,57,50
0,65,101,18
0,75,39,2
0,53,107,5
0,42,79,3
0,35,127,0
0,29,127,2
0,77,80,0
0,53,127,0
0,42,57,90
0,42,42,50
0,40,127,30
0,42,42,0
0,79,121,90
0,42,57,0
0,60,107,20
0,72,98,3
0,75,121,2
0,24,127,3
0,48,127,0
0,42,42,5
0,42,79,5
0,24,127,37
0,72,108,0
0,48,127,0
0,60,105,5
0,72,95,3
0,35,127,5
0,60,59,15
0,72,72,0
0,24,121,3
0,72,127,0
0,48,121,0
0,42,57,5
0,35,57,0
0,42,57,35
0,67,92,30
0,40,127,0
0,42,42,0
0,70,118,2
0,55,107,5
0,71,118,37
0,69,98,8
0,35,127,0
0,57,107,2
0,42,57,18
0,46,127,50
0,24,127,27
0,48,127,0
0,72,127,3
0,67,125,0
0,42,79,0
0,35,127,2
0,60,107,3
0,72,101,0
0,42,57,88
0,42,42,50
0,40,127,30
0,42,42,2
0,42,57,90
0,42,42,50
0,42,79,30
0,35,127,50
0,42,57,30
0,35,57,0
0,42,57,50
0,40,127,30
0,42,42,0
0,72,98,80
0,55,107,2
0,60,107,0
0,42,57,8
0,42,57,50
0,75,90,5
0,77,92,0
0,65,107,0
0,53,107,2
0,29,127,5
0,53,127,0
0,42,79,3
0,35,127,0
0,42,57,90
0,42,42,50
0,40,127,32
0,42,42,0
0,55,92,60
0,79,106,0
0,42,57,8
0,60,107,17
0,72,98,0
0,75,96,3
0,24,127,8
0,48,127,0
0,42,42,5
0,60,51,0
0,42,79,10
0,60,107,25
0,72,95,5
0,72,104,7
0,24,104,5
0,48,104,0
0,35,127,0
0,60,90,10
0,72,56,0
0,72,106,12
0,24,125,5
0,48,125,0
0,42,57,3
0,35,57,2
0,42,57,28
0,67,105,15
0,70,106,7
0,55,107,3
0,40,127,5
0,42,42,0
0,69,101,27
0,71,102,3
0,57,107,0
0,35,127,0
0,42,57,30
0,46,127,50
0,60,107,12
0,72,98,0
0,67,121,10
0,24,127,3
0,72,118,0
0,48,127,0
0,49,127,5
0,42,79,0
0,35,127,2
0,42,57,90
0,42,42,50
0,40,127,30
0,42,42,0
0,42,57,90
0,42,42,0
0,67,86,2
0,59,84,0
0,71,64,0
0,79,78,8
0,49,127,0
0,42,79,0
0,35,127,0
0,31,127,2
0,43,127,0
0,42,57,90
0,42,57,50
0,40,127,30
0,42,42,2
0,42,57,88
0,42,57,20
0,63,60,0
0,65,52,3
0,53,92,7
0,75,98,13
0,69,104,0
0,77,92,2
0,49,127,3
0,29,127,2
0,41,127,0
0,42,79,0
0,35,127,0
0,42,57,88
0,42,42,50
0,40,127,30
0,42,42,0
0,46,109,50
0,42,57,30
0,42,42,50
0,35,57,0
0,40,127,30
0,42,79,0
0,35,127,50
0,42,57,30
0,35,57,0
0,42,57,0
0,40,62,15
0,65,86,0
0,41,69,2
0,55,95,3
0,43,106,0
0,53,62,0
0,40,127,0
0,42,42,0
0,29,127,0
0,45,88,0
0,53,127,0
0,46,80,5
0,48,98,2
0,50,102,7
0,52,75,5
0,67,88,3
0,53,47,2
0,31,125,3
0,55,125,0
0,55,84,3
0,46,109,0
0,57,71,0
0,58,64,10
0,56,62,3
0,60,50,10
0,40,127,0
0,42,57,0
0,64,36,0
0,65,62,5
0,67,53,10
0,42,57,0
0,69,58,2
0,70,35,0
0,65,107,3
0,70,74,0
0,72,88,0
0,34,125,5
0,46,125,0
0,58,107,0
0,49,127,0
0,42,79,0
0,35,127,0
0,74,127,2
0,54,79,0
0,77,127,3
0,70,118,0
0,72,77,2
0,54,57,48
0,42,57,30
0,54,79,0
0,42,42,48
0,40,127,30
0,42,42,2
0,54,57,0
0,54,57,48
0,42,57,30
0,54,79,2
0,42,42,48
0,54,57,2
0,42,79,30
0,54,79,2
0,26,112,17
0,50,112,0
0,40,57,8
0,35,127,2
0,54,57,0
0,42,57,28
0,35,57,2
0,54,79,0
0,42,57,48
0,54,57,0
0,29,127,27
0,53,127,0
0,40,127,3
0,42,42,0
0,54,79,2
0,74,98,43
0,54,57,3
0,31,127,13
0,55,127,0
0,52,127,5
0,42,57,0
0,77,88,0
0,54,79,0
0,42,57,48
0,54,57,0
0,42,79,30
0,35,127,0
0,54,79,2
0,72,95,3
0,81,88,0
0,34,127,2
0,46,127,0
0,58,86,0
0,82,54,5
0,54,57,33
0,42,57,30
0,54,79,0
0,42,42,50
0,40,127,30
0,42,42,0
