track,note,velocity,time
0,55,71,606
0,59,81,0
0,62,79,0
0,67,74,0
0,43,82,1
0,36,112,0
0,42,104,0
0,59,75,0
0,43,80,0
0,42,0,5
0,36,0,0
0,42,67,42
0,42,0,6
0,59,108,41
0,59,87,1
0,62,79,0
0,40,109,0
0,62,121,0
0,55,65,0
0,42,96,0
0,40,0,5
0,42,0,1
0,43,0,3
0,59,0,4
0,62,0,2
0,55,0,1
0,36,106,30
0,43,82,1
0,42,75,0
0,36,0,5
0,42,0,1
0,55,0,10
0,67,0,3
0,62,0,5
0,59,0,2
0,62,0,16
0,43,0,2
0,59,0,0
0,48,77,0
0,67,83,1
0,60,81,0
0,55,80,0
0,64,99,0
0,43,0,1
0,60,63,1
0,55,59,0
0,64,59,0
0,36,94,1
0,36,96,0
0,55,67,0
0,42,102,1
0,64,93,2
0,60,83,2
0,36,0,1
0,59,0,0
0,42,0,1
0,64,0,2
0,60,0,0
0,55,0,2
0,64,0,18
0,60,0,0
0,55,67,19
0,60,72,0
0,42,77,1
0,64,73,1
0,62,114,2
0,59,98,2
0,42,0,1
0,64,0,7
0,60,0,0
0,36,0,6
0,55,0,2
0,42,93,26
0,40,114,1
0,42,0,5
0,40,0,1
0,55,0,13
0,67,0,8
0,60,0,0
0,64,0,1
0,62,0,3
0,59,0,6
0,45,88,8
0,48,0,1
0,57,75,0
0,62,82,0
0,69,92,0
0,66,92,0
0,54,71,0
0,55,0,1
0,38,90,0
0,62,73,0
0,57,71,0
0,54,63,0
0,46,96,0
0,57,80,0
0,36,114,1
0,60,114,1
0,64,117,0
0,46,0,4
0,36,0,1
0,57,0,5
0,62,0,6
0,54,0,2
0,64,0,6
0,60,0,11
0,42,57,10
0,42,0,6
0,62,104,0
0,62,0,1
0,66,116,2
0,69,0,4
0,66,0,4
0,38,0,24
0,73,93,7
0,61,110,0
0,42,58,1
0,42,0,6
0,61,0,13
0,73,0,20
0,74,75,8
0,62,64,0
0,38,94,1
0,40,113,0
0,42,104,1
0,62,93,2
0,57,93,0
0,40,0,3
0,42,0,1
0,57,0,8
0,62,0,4
0,62,0,0
0,74,0,4
0,64,74,22
0,76,79,0
0,36,106,2
0,42,67,1
0,36,0,5
0,42,0,1
0,64,0,5
0,76,0,4
0,38,0,5
0,78,91,25
0,66,67,0
0,36,94,3
0,36,106,0
0,42,99,0
0,55,65,1
0,60,61,1
0,42,0,4
0,36,0,0
0,60,0,10
0,66,0,1
0,78,0,0
0,55,0,6
0,76,71,22
0,64,65,0
0,38,86,3
0,62,83,0
0,57,77,0
0,42,77,0
0,36,0,5
0,42,0,1
0,57,0,8
0,64,0,3
0,76,0,3
0,62,0,0
0,62,76,26
0,74,69,0
0,40,103,2
0,42,96,0
0,42,0,6
0,40,0,0
0,38,0,9
0,40,106,8
0,40,0,6
0,54,0,5
0,40,104,13
0,62,58,1
0,57,68,0
0,42,80,0
0,74,0,1
0,57,0,0
0,40,0,4
0,42,0,1
0,57,0,8
0,62,0,2
0,40,113,7
0,62,0,1
0,40,0,5
0,66,0,3
0,62,0,1
0,57,0,11
0,55,69,1
0,59,70,0
0,67,73,0
0,62,67,0
0,43,85,3
0,36,113,0
0,42,105,0
0,49,56,0
0,59,78,0
0,43,80,1
0,45,0,3
0,49,0,2
0,42,0,0
0,36,0,0
0,42,77,41
0,42,0,6
0,42,105,43
0,59,77,1
0,62,76,0
0,55,66,0
0,40,114,0
0,62,117,2
0,59,110,0
0,42,0,3
0,40,0,1
0,43,0,3
0,59,0,5
0,55,0,4
0,62,0,0
0,55,0,10
0,62,0,3
0,59,0,0
0,67,0,1
0,64,81,12
0,67,80,0
0,60,76,0
0,55,80,0
0,43,0,1
0,36,100,2
0,42,77,0
0,48,80,0
0,36,114,1
0,55,67,1
0,59,0,1
0,42,0,3
0,36,0,1
0,62,0,23
0,59,0,6
0,64,65,11
0,60,65,0
0,55,59,1
0,42,104,0
0,60,101,3
0,64,108,0
0,42,0,3
0,60,0,5
0,55,0,1
0,64,0,1
0,60,0,10
0,64,0,2
0,60,77,23
0,64,81,0
0,55,77,0
0,42,86,0
0,59,111,4
0,62,111,0
0,42,0,2
0,36,0,8
0,60,0,2
0,64,0,4
0,55,0,2
0,42,96,26
0,40,114,1
0,42,0,5
0,40,0,1
0,64,0,10
0,55,0,8
0,67,0,6
0,60,0,0
0,59,0,1
0,62,0,0
0,55,0,8
0,57,75,5
0,69,80,0
0,66,80,0
0,62,85,0
0,48,0,1
0,60,111,0
0,57,78,0
0,45,88,0
0,54,70,1
0,46,103,0
0,38,96,1
0,57,66,0
0,62,62,0
0,36,113,0
0,55,56,0
0,64,121,0
0,46,0,5
0,55,0,1
0,36,0,0
0,57,0,3
0,62,0,1
0,64,0,18
0,60,0,13
0,42,57,7
0,62,108,5
0,66,114,0
0,42,0,1
0,62,0,16
0,66,0,10
0,69,0,9
0,62,85,4
0,42,93,3
0,42,0,6
0,38,0,2
0,74,92,39
0,66,106,0
0,38,100,1
0,62,90,0
0,57,90,0
0,40,115,0
0,42,104,0
0,42,0,6
0,40,0,0
0,62,0,12
0,57,0,0
0,66,0,17
0,74,0,0
0,74,82,12
0,66,73,0
0,36,112,0
0,42,51,1
0,36,0,5
0,42,0,1
0,38,0,22
0,60,66,19
0,55,60,0
0,66,0,1
0,36,92,0
0,36,114,0
0,42,103,0
0,42,0,6
0,36,0,0
0,62,0,7
0,74,0,2
0,57,0,3
0,60,0,7
0,55,0,0
0,62,76,21
0,57,83,1
0,42,82,0
0,36,0,1
0,38,90,0
0,42,0,5
0,54,0,0
0,57,0,20
0,62,0,1
0,76,83,21
0,64,96,0
0,42,63,1
0,40,114,2
0,42,0,4
0,40,0,2
0,62,0,5
0,66,0,0
0,64,0,6
0,38,0,2
0,40,112,2
0,76,0,4
0,40,0,2
0,45,0,9
0,66,58,7
0,78,66,0
0,62,70,0
0,40,113,1
0,46,94,1
0,62,52,1
0,57,50,1
0,40,0,3
0,46,0,1
0,57,0,2
0,57,0,1
0,62,0,2
0,40,113,12
0,66,0,2
0,78,0,3
0,40,0,1
0,62,0,15
0,62,76,1
0,59,75,0
0,57,72,0
0,67,87,1
0,79,82,0
0,43,80,0
0,71,76,1
0,36,109,0
0,42,94,1
0,57,0,3
0,36,0,2
0,42,0,1
0,69,74,36
0,71,0,1
0,42,68,3
0,42,0,6
0,69,0,29
0,79,0,9
0,67,0,2
0,55,66,2
0,74,80,0
0,62,65,0
0,67,71,0
0,59,74,0
0,62,72,0
0,69,86,1
0,40,106,0
0,42,104,0
0,55,58,1
0,42,0,5
0,40,0,0
0,59,0,5
0,43,0,0
0,62,0,1
0,55,0,1
0,74,0,25
0,67,0,1
0,62,0,2
0,55,0,1
0,67,76,2
0,69,0,3
0,43,79,0
0,36,78,0
0,42,68,0
0,42,0,6
0,36,0,0
0,43,0,22
0,67,0,9
0,62,58,11
0,59,53,0
0,36,92,0
0,38,93,1
0,67,81,0
0,42,103,0
0,55,43,1
0,36,0,4
0,42,0,1
0,55,0,1
0,59,0,2
0,62,0,0
0,74,71,37
0,55,64,0
0,59,65,0
0,67,65,0
0,62,62,1
0,62,73,0
0,59,77,0
0,55,70,0
0,66,72,1
0,42,65,0
0,67,0,3
0,42,0,3
0,59,0,5
0,62,0,4
0,55,0,0
0,66,0,21
0,74,0,1
0,62,0,1
0,67,0,1
0,59,0,0
0,55,0,2
0,40,113,7
0,42,104,0
0,38,0,1
0,66,74,0
0,40,0,5
0,42,0,0
0,66,0,34
0,59,61,5
0,62,59,0
0,62,0,1
0,59,0,0
0,55,58,0
0,74,76,1
0,59,66,0
0,67,68,0
0,62,61,0
0,55,60,0
0,38,82,1
0,42,77,0
0,64,67,4
0,42,0,2
0,59,0,5
0,62,0,4
0,67,0,0
0,55,0,1
0,59,0,1
0,55,0,2
0,62,0,0
0,74,0,4
0,64,0,17
0,38,0,1
0,64,78,1
0,67,77,0
0,59,79,0
0,40,79,5
0,64,75,0
0,36,96,0
0,42,104,0
0,42,0,6
0,36,0,0
0,67,0,38
0,64,0,0
0,59,0,0
0,67,77,1
0,64,81,0
0,59,81,0
0,42,82,2
0,59,74,5
0,42,0,1
0,64,0,2
0,76,74,40
0,67,71,0
0,59,75,0
0,55,68,0
0,64,70,0
0,40,106,0
0,64,74,1
0,59,69,0
0,55,65,0
0,42,106,0
0,40,0,4
0,40,0,1
0,42,0,1
0,59,0,4
0,55,0,6
0,64,0,0
0,64,0,4
0,59,0,0
0,67,0,0
0,59,0,1
0,76,0,10
0,67,0,4
0,55,0,3
0,59,0,0
0,64,0,0
0,64,81,4
0,59,81,0
0,67,77,0
0,36,100,4
0,59,60,1
0,40,81,1
0,42,72,0
0,36,0,4
0,42,0,2
0,36,100,41
0,35,79,1
0,42,103,0
0,40,0,3
0,36,0,2
0,42,0,1
0,76,78,39
0,67,73,0
0,64,87,1
0,59,93,0
0,55,76,0
0,59,0,1
0,59,69,0
0,64,65,0
0,42,86,0
0,42,0,6
0,59,0,12
0,64,0,4
0,55,0,0
0,67,0,11
0,59,0,0
0,64,0,0
0,76,0,0
0,64,0,2
0,59,0,0
0,67,0,2
0,40,114,12
0,42,106,1
0,40,0,5
0,42,0,1
0,35,0,13
0,76,77,27
0,67,73,0
0,59,76,0
0,55,66,0
0,64,68,0
0,64,61,0
0,59,63,0
0,55,58,0
0,43,85,1
0,42,86,0
0,62,76,4
0,42,0,2
0,59,0,3
0,55,0,4
0,64,0,0
0,67,0,6
0,64,0,2
0,76,0,2
0,59,0,0
0,55,0,2
0,43,0,2
0,62,74,13
0,59,74,0
0,62,0,4
0,71,86,2
0,43,85,2
0,36,100,0
0,42,105,1
0,36,0,5
0,42,0,1
0,69,70,39
0,55,59,1
0,42,75,1
0,71,0,1
0,42,0,5
0,55,0,11
0,69,0,16
0,55,65,12
0,74,81,2
0,67,76,0
0,59,79,0
0,62,69,0
0,62,70,0
0,59,71,0
0,55,62,0
0,40,114,1
0,42,105,1
0,69,87,2
0,40,0,3
0,42,0,1
0,59,0,4
0,62,0,1
0,55,0,5
0,43,0,3
0,74,0,10
0,62,0,8
0,67,0,0
0,59,0,0
0,67,70,4
0,55,0,2
0,36,87,2
0,69,0,2
0,43,80,0
0,42,75,0
0,36,0,4
0,42,0,2
0,67,0,20
0,43,0,17
0,67,79,2
0,36,100,2
0,38,81,1
0,59,60,0
0,62,59,0
0,42,105,0
0,55,49,2
0,36,0,3
0,42,0,1
0,55,0,1
0,59,0,3
0,62,0,0
0,74,76,35
0,67,69,0
0,55,71,0
0,59,77,0
0,62,70,0
0,67,0,1
0,42,94,1
0,62,74,1
0,59,76,0
0,55,67,0
0,66,79,1
0,42,0,4
0,59,0,9
0,55,0,0
0,62,0,4
0,59,0,9
0,74,0,2
0,62,0,0
0,67,0,0
0,55,0,0
0,66,0,2
0,66,81,15
0,40,114,1
0,42,106,1
0,40,0,5
0,42,0,1
0,59,0,3
0,62,0,0
0,38,0,9
0,66,0,23
0,59,59,5
0,62,59,0
0,55,65,1
0,67,70,0
0,74,76,0
0,62,68,0
0,59,69,0
0,42,77,0
0,38,83,1
0,55,53,0
0,64,76,3
0,42,0,2
0,59,0,2
0,55,0,1
0,62,0,2
0,59,0,1
0,62,0,12
0,55,0,2
0,74,0,9
0,67,0,1
0,38,0,1
0,64,0,2
0,64,83,2
0,59,79,0
0,67,78,0
0,64,76,5
0,40,82,3
0,42,104,0
0,36,92,0
0,36,0,6
0,42,0,0
0,59,0,32
0,64,0,2
0,67,0,1
0,64,76,2
0,67,75,0
0,59,80,0
0,64,0,2
0,42,77,2
0,59,63,1
0,42,0,5
0,76,82,40
0,67,77,0
0,55,66,1
0,64,69,0
0,59,80,1
0,59,86,1
0,64,77,0
0,55,71,0
0,42,106,0
0,40,109,0
0,40,0,6
0,42,0,0
0,40,0,4
0,59,0,2
0,59,0,0
0,67,0,2
0,64,0,0
0,64,0,0
0,59,0,3
0,55,0,1
0,76,0,15
0,64,80,7
0,59,78,0
0,67,76,0
0,67,0,1
0,64,0,1
0,59,64,2
0,59,0,2
0,55,0,0
0,36,96,1
0,42,94,0
0,40,79,1
0,42,0,5
0,36,0,0
0,40,0,38
0,35,87,5
0,64,61,0
0,59,61,0
0,55,54,0
0,36,100,0
0,42,105,0
0,42,0,6
0,36,0,0
0,55,0,4
0,59,0,2
0,64,0,4
0,59,0,3
0,76,79,26
0,64,76,1
0,59,87,0
0,67,70,1
0,55,70,0
0,59,80,0
0,64,67,0
0,55,72,0
0,40,113,0
0,42,93,0
0,42,0,6
0,40,0,0
0,59,0,12
0,55,0,2
0,64,0,2
0,64,0,3
0,67,0,0
0,59,0,4
0,76,0,6
0,59,0,7
0,67,0,2
0,64,0,2
0,42,104,3
0,40,114,0
0,55,0,2
0,40,0,4
0,42,0,0
0,35,0,4
0,59,79,35
0,55,69,0
0,76,77,0
0,67,73,0
0,64,69,0
0,35,82,2
0,64,70,0
0,59,74,0
0,55,65,0
0,42,96,0
0,59,85,4
0,42,0,2
0,59,0,6
0,64,0,2
0,55,0,2
0,64,0,8
0,55,0,2
0,59,0,4
0,76,0,2
0,67,0,6
0,35,0,0
0,59,0,6
0,60,75,1
0,67,75,0
0,64,76,0
0,42,105,3
0,36,86,1
0,60,76,0
0,36,106,0
0,42,0,5
0,36,0,1
0,42,90,41
0,42,0,6
0,60,0,14
0,55,79,26
0,67,76,0
0,72,82,0
0,64,82,0
0,60,81,0
0,55,73,2
0,60,75,0
0,64,79,0
0,40,113,0
0,42,104,1
0,64,98,1
0,40,0,4
0,42,0,1
0,60,0,6
0,64,0,5
0,55,0,2
0,36,0,1
0,67,68,25
0,36,92,2
0,42,90,0
0,36,86,1
0,64,0,4
0,36,0,1
0,42,0,0
0,64,0,9
0,67,0,6
0,60,0,2
0,55,0,3
0,72,0,0
0,64,0,3
0,60,0,6
0,67,0,1
0,67,0,10
0,66,73,0
0,62,79,0
0,69,78,0
0,62,58,1
0,57,58,0
0,54,80,1
0,54,48,0
0,36,92,0
0,38,88,1
0,66,75,0
0,42,104,0
0,36,0,1
0,36,0,4
0,42,0,1
0,57,0,0
0,54,0,1
0,62,0,1
0,54,0,7
0,66,0,16
0,54,69,14
0,74,76,1
0,62,77,0
0,66,82,0
0,54,83,0
0,57,108,1
0,62,95,0
0,42,86,0
0,66,86,3
0,42,0,3
0,57,0,4
0,62,0,6
0,54,0,1
0,40,114,31
0,42,104,0
0,42,0,6
0,40,0,0
0,38,0,19
0,66,0,2
0,66,0,2
0,74,0,0
0,62,0,14
0,74,76,5
0,66,69,0
0,60,71,0
0,62,68,0
0,40,96,0
0,42,86,0
0,38,88,1
0,57,64,0
0,59,75,1
0,54,0,2
0,42,0,2
0,40,0,0
0,57,0,3
0,66,0,5
0,62,0,0
0,69,0,0
0,66,0,2
0,62,0,0
0,74,0,0
0,60,0,2
0,59,0,20
0,38,0,7
0,64,76,0
0,69,88,0
0,72,86,0
0,60,83,2
0,36,92,1
0,42,104,0
0,45,86,1
0,42,0,5
0,36,0,0
0,60,0,24
0,57,65,18
0,42,86,0
0,71,93,3
0,42,0,3
0,57,0,6
0,76,87,34
0,57,79,1
0,64,80,0
0,60,76,0
0,69,85,0
0,42,105,1
0,60,77,1
0,64,76,0
0,57,79,0
0,40,113,0
0,42,0,5
0,40,0,1
0,60,0,8
0,57,0,0
0,45,0,2
0,64,0,0
0,71,0,5
0,36,90,26
0,42,93,0
0,45,89,1
0,69,90,4
0,42,0,1
0,36,0,0
0,64,0,4
0,76,0,1
0,72,0,6
0,60,0,5
0,57,0,0
0,69,0,0
0,64,0,1
0,69,0,2
0,69,78,16
0,74,80,0
0,45,0,3
0,66,83,0
0,57,69,2
0,62,65,0
0,54,51,1
0,38,86,2
0,42,104,0
0,36,68,0
0,54,0,4
0,57,0,1
0,36,0,1
0,42,0,0
0,62,0,3
0,74,89,36
0,66,79,0
0,54,79,0
0,62,90,1
0,57,104,0
