track,note,velocity,time
1,55,71,2664
1,59,81,0
1,62,79,0
1,67,74,0
1,67,83,76
1,60,81,0
1,55,80,0
1,64,99,0
1,57,75,72
1,62,82,0
1,69,92,0
1,66,92,0
1,54,71,0
1,73,93,124
1,61,110,0
1,74,75,32
1,62,64,0
1,64,74,88
1,76,79,0
1,78,91,120
1,66,67,0
1,76,71,112
1,64,65,0
1,62,76,104
1,74,69,0
1,55,69,84
1,59,70,0
1,67,73,0
1,62,67,0
1,64,81,48
1,67,80,0
1,60,76,0
1,55,80,0
1,57,75,56
1,69,80,0
1,66,80,0
1,62,85,0
1,54,70,8
1,62,85,16
1,74,92,200
1,66,106,0
1,74,82,48
1,66,73,0
1,76,83,168
1,64,96,0
1,66,58,72
1,78,66,0
1,67,87,76
1,79,82,0
1,55,66,8
1,74,80,0
1,62,65,0
1,67,71,0
1,74,71,400
1,55,64,0
1,59,65,0
1,67,65,0
1,62,62,4
1,74,76,216
1,59,66,0
1,67,68,0
1,62,61,0
1,55,60,0
1,76,74,480
1,67,71,0
1,59,75,0
1,55,68,0
1,64,70,0
1,76,78,412
1,67,73,0
1,59,69,8
1,64,65,0
1,76,77,236
1,67,73,0
1,59,76,0
1,55,66,0
1,64,68,0
1,55,59,280
1,55,65,112
1,74,81,8
1,67,76,0
1,59,79,0
1,62,69,0
1,74,76,388
1,67,69,0
1,55,71,0
1,59,77,0
1,62,70,0
1,55,65,264
1,67,70,0
1,74,76,0
1,62,68,0
1,59,69,0
1,76,82,424
1,67,77,0
1,55,66,4
1,64,69,0
1,59,80,4
1,76,79,380
1,67,70,8
1,55,70,0
1,59,80,0
1,64,67,0
1,59,79,172
1,55,69,0
1,76,77,0
1,67,73,0
1,64,69,0
1,55,79,416
1,67,76,0
1,72,82,0
1,64,82,0
1,60,81,0
1,54,80,48
1,54,69,120
1,74,76,4
1,62,77,0
1,66,82,0
1,74,76,20
1,66,69,0
1,60,71,0
1,57,65,312
1,76,87,136
1,57,79,4
1,64,80,0
1,60,76,0
1,69,85,0
1,74,89,288
1,66,79,0
1,54,79,0
1,62,83,8
1,66,66,80
1,74,73,0
1,60,65,0
1,55,67,320
1,74,79,120
1,67,77,0
1,55,75,8
1,59,79,0
1,62,71,0
1,55,64,196
1,55,69,128
1,74,74,0
1,67,72,0
1,59,82,4
1,62,73,0
1,74,81,212
1,55,73,0
1,59,79,0
1,67,79,0
1,62,68,0
1,55,54,220
1,76,82,148
1,67,82,0
1,55,79,0
1,64,79,0
1,59,85,0
1,55,80,288
1,59,91,0
1,64,81,0
1,76,79,0
1,67,78,8
1,55,43,64
1,76,69,0
1,67,66,0
1,59,66,0
1,64,59,8
1,57,78,120
1,72,78,188
1,69,75,4
1,64,76,0
1,60,62,4
1,54,81,8
1,62,74,184
1,66,70,0
1,71,82,4
1,55,87,4
1,72,81,200
1,67,85,0
1,64,80,0
1,57,78,20
1,69,87,192
1,73,82,0
1,61,66,4
1,54,76,172
1,74,96,192
1,66,80,0
1,62,96,0
1,55,66,108
1,67,78,0
1,72,75,0
1,54,92,56
1,69,85,0
1,74,91,0
1,62,69,52
1,55,66,96
1,57,66,4
1,60,80,116
1,57,80,8
1,55,71,0
1,64,73,0
1,69,87,0
1,72,80,0
1,54,89,112
1,66,79,184
1,74,82,0
1,62,101,4
1,59,78,56
1,55,78,0
1,71,78,0
1,62,72,0
1,67,73,8
1,59,77,124
1,55,70,0
1,55,82,120
1,60,87,0
1,72,93,0
1,64,91,0
1,67,87,4
1,54,92,100
1,74,83,0
1,69,89,0
1,62,83,0
1,55,69,328
1,74,78,120
1,59,73,8
1,67,72,0
1,55,69,0
1,62,66,0
1,55,64,188
1,74,70,120
1,67,61,0
1,55,60,0
1,59,67,0
1,62,63,0
1,55,74,240
1,74,77,0
1,62,74,0
1,59,81,0
1,67,74,0
1,55,64,216
1,59,77,136
1,64,67,0
1,55,69,0
1,76,80,0
1,67,78,0
1,83,85,360
1,71,91,0
1,81,74,88
1,69,80,0
1,67,71,96
1,79,72,0
1,74,78,128
1,62,67,0
1,55,56,200
1,74,80,4
1,67,80,0
1,59,78,0
1,55,70,0
1,62,70,0
1,55,67,200
1,74,73,132
1,67,75,0
1,55,71,0
1,59,80,4
1,62,69,0
1,55,73,196
1,74,83,0
1,62,73,0
1,67,73,0
1,59,79,0
1,76,87,416
1,59,73,4
1,67,79,0
1,55,73,0
1,64,69,4
1,55,67,152
1,71,81,120
1,83,85,0
1,81,77,112
1,69,76,0
1,79,69,108
1,67,73,0
1,64,66,120
1,76,66,0
1,72,83,4
1,60,80,0
1,67,78,0
1,64,79,0
1,55,77,0
1,54,71,72
1,74,82,192
1,69,79,0
1,62,93,0
1,60,64,392
1,55,69,40
1,57,71,188
1,55,85,128
1,57,91,0
1,60,89,0
1,64,87,0
1,72,79,0
1,69,77,0
1,54,89,92
1,62,85,184
1,74,89,0
1,69,89,0
1,60,71,8
1,74,80,504
1,67,79,0
1,55,74,0
1,62,81,0
1,59,82,0
1,55,72,180
1,74,81,128
1,67,78,0
1,55,73,0
1,62,75,0
1,59,83,0
1,59,66,148
1,62,64,0
1,55,62,0
1,74,70,0
1,67,65,0
1,76,80,440
1,67,78,0
1,64,71,4
1,55,69,0
1,59,78,0
1,55,65,188
1,55,62,108
1,59,80,0
1,76,78,0
1,67,74,0
1,64,79,0
1,64,72,124
1,76,77,0
1,67,74,0
1,57,77,72
1,72,79,184
1,69,80,0
1,60,70,4
1,54,99,4
1,66,72,192
1,74,73,0
1,71,85,0
1,55,81,0
1,72,78,68
1,67,79,0
1,57,80,4
1,73,80,192
1,69,81,0
1,61,87,4
1,54,99,68
1,62,96,176
1,74,92,96
1,66,89,0
1,60,68,164
1,55,67,0
1,67,72,0
1,72,67,0
1,74,79,12
1,54,93,0
1,69,73,0
1,62,76,8
1,62,69,8
1,55,73,480
1,60,71,0
1,64,80,0
1,57,73,0
1,72,78,0
1,69,80,0
1,74,73,56
1,54,92,0
1,66,73,0
1,62,70,384
1,55,80,12
1,59,80,0
1,71,78,0
1,62,80,0
1,67,80,8
1,55,66,160
1,59,65,0
1,72,99,140
1,55,92,0
1,67,83,0
1,64,106,0
1,60,99,0
1,67,73,136
1,71,79,0
1,55,73,0
1,59,78,0
1,62,76,0
1,67,67,200
1,63,66,0
1,58,64,4
1,55,64,8
1,62,77,332
1,67,71,0
1,55,66,4
1,59,64,0
1,60,76,40
1,55,70,0
1,64,79,0
1,67,75,12
1,55,71,56
1,67,74,0
1,59,76,4
1,62,71,0
1,69,78,276
1,54,65,0
1,57,66,8
1,62,73,0
1,66,68,84
1,62,72,0
1,59,83,0
1,71,74,0
1,67,80,36
1,71,85,0
1,64,73,0
1,59,73,0
1,55,67,0
1,61,73,76
1,57,71,4
1,69,81,0
1,54,73,96
1,69,69,0
1,66,66,0
1,62,70,0
1,74,80,112
1,62,80,0
1,64,76,52
1,76,64,12
1,78,85,48
1,66,63,4
1,67,64,0
1,79,60,8
1,59,65,196
1,62,59,0
1,55,59,4
1,74,67,0
1,67,66,0
1,55,64,232
1,74,65,96
1,67,64,0
1,59,64,0
1,62,60,0
1,76,70,820
1,67,66,4
1,55,66,0
1,64,65,0
1,59,75,0
1,55,64,244
1,86,82,96
1,74,77,0
1,83,79,108
1,71,73,0
1,79,72,72
1,67,69,20
1,74,65,72
1,62,65,4
1,55,59,200
1,67,69,36
1,74,67,0
1,59,65,4
1,62,60,0
1,55,53,0
1,55,58,260
1,74,68,48
1,67,65,0
1,59,68,0
1,62,65,8
1,74,72,264
1,59,65,0
1,67,67,0
1,55,64,0
1,62,65,4
1,76,77,420
1,67,74,0
1,55,62,8
1,59,72,0
1,64,65,0
1,55,60,172
1,76,77,192
1,67,67,0
1,64,63,0
1,59,69,8
1,59,70,220
1,55,58,4
1,64,64,0
1,76,79,0
1,67,67,0
1,55,68,148
1,55,75,108
1,60,73,4
1,67,67,0
1,64,71,0
1,72,68,0
1,54,66,28
1,69,72,152
1,74,69,4
1,62,75,0
1,74,66,36
1,60,68,12
1,55,52,92
1,55,65,68
1,57,71,0
1,72,79,108
1,60,71,0
1,69,78,0
1,55,71,0
1,64,70,0
1,57,70,0
1,60,65,96
1,54,89,68
1,66,85,92
1,74,85,0
1,62,76,12
1,74,68,116
1,66,64,0
1,60,65,4
1,74,75,420
1,67,69,0
1,55,79,0
1,62,78,0
1,55,66,240
1,74,69,104
1,59,70,4
1,67,64,0
1,55,62,0
1,62,64,0
1,74,77,236
1,67,70,0
1,59,70,0
1,62,65,0
1,55,64,0
1,55,59,216
1,76,71,148
1,67,69,0
1,55,69,0
1,64,68,0
1,59,73,0
1,55,64,132
1,55,66,96
1,59,89,0
1,64,78,0
1,76,74,0
1,67,71,4
1,64,58,144
1,59,65,0
1,57,70,108
1,64,70,192
1,72,71,0
1,69,71,0
1,54,70,188
1,66,71,36
1,71,75,0
1,62,71,4
1,55,72,120
1,72,73,52
1,67,80,0
1,64,80,0
1,57,73,16
1,73,74,176
1,69,74,0
1,64,73,0
1,61,62,8
1,54,78,164
1,62,79,164
1,74,91,96
1,66,81,0
1,54,66,8
1,62,80,0
1,60,67,20
1,55,77,108
1,72,71,4
1,67,74,0
1,64,65,8
1,69,76,60
1,54,79,0
1,66,71,0
1,74,77,0
1,60,71,36
1,55,64,32
1,69,87,176
1,72,79,0
1,64,79,0
1,60,82,8
1,55,80,0
1,57,82,0
1,54,91,20
1,66,69,60
1,69,71,0
1,62,70,0
1,60,74,208
1,55,76,24
1,62,77,0
1,71,77,0
1,59,73,0
1,59,70,112
1,55,63,8
1,67,77,140
1,72,78,0
1,60,82,0
1,55,79,0
1,64,78,8
1,67,68,40
1,71,72,0
1,62,70,0
1,55,70,4
1,59,78,0
1,59,66,104
1,55,62,0
1,62,64,0
1,59,56,68
1,64,64,4
1,55,66,0
1,64,67,68
1,55,62,168
1,59,68,0
1,62,63,0
1,59,67,68
1,64,66,4
1,55,67,0
1,60,66,268
1,55,66,0
1,64,67,4
1,54,65,104
1,57,66,0
1,62,69,0
1,55,65,176
1,64,65,0
1,60,67,0
1,57,70,196
1,54,65,4
1,62,62,296
1,55,64,0
1,59,66,0
1,55,66,164
1,59,75,4
1,64,66,0
1,60,58,304
1,64,69,0
1,57,65,0
1,72,65,0
1,74,65,52
1,54,77,0
1,66,68,8
1,60,66,100
1,64,64,0
1,55,66,0
1,73,69,96
1,57,73,8
1,61,74,0
1,69,69,0
1,54,66,20
1,62,71,0
1,66,53,4
1,60,64,192
1,67,64,0
1,72,64,0
1,55,64,4
1,57,69,16
1,54,77,4
1,62,67,0
1,60,67,120
1,55,67,8
1,57,73,0
1,64,68,0
1,57,69,80
1,62,69,0
1,54,65,0
1,62,67,72
1,59,75,0
1,55,69,0
1,55,71,108
1,64,78,0
1,60,72,0
1,55,72,68
1,59,78,0
1,62,66,4
1,70,66,156
1,58,92,0
1,63,79,0
1,67,65,0
1,67,69,104
1,71,75,0
1,55,67,0
1,59,75,0
1,62,68,0
1,67,69,44
1,64,69,0
1,60,69,4
1,55,70,0
1,67,64,52
1,55,65,0
1,59,70,0
1,62,66,0
1,74,76,104
1,66,74,8
1,62,73,0
1,54,71,0
1,59,79,52
1,54,66,0
1,71,75,4
1,62,68,0
1,67,72,60
1,71,78,0
1,55,69,0
1,59,74,0
1,64,67,8
1,57,74,48
1,64,73,0
1,61,70,8
1,69,76,0
1,66,72,8
1,74,74,0
1,62,68,0
1,54,68,0
1,62,80,100
1,74,69,8
1,64,71,68
1,78,64,120
1,66,82,0
1,67,64,12
1,79,53,8
1,59,65,228
1,62,56,0
1,74,68,4
1,55,53,0
1,67,65,0
1,55,62,164
1,59,64,192
1,62,64,0
1,74,59,4
1,67,55,0
1,59,57,216
1,67,56,0
1,74,58,4
1,62,52,8
1,55,65,256
1,76,65,112
1,67,66,4
1,55,62,0
1,64,66,0
1,59,72,0
1,86,82,388
1,74,76,0
1,83,70,56
1,71,69,0
1,79,65,48
1,67,60,8
1,62,66,68
1,74,61,4
1,74,70,108
1,67,64,0
1,62,69,4
1,59,76,0
1,55,64,8
1,55,51,196
1,74,78,140
1,59,73,4
1,67,69,4
1,62,64,0
1,74,65,248
1,59,62,8
1,67,60,4
1,55,53,276
1,76,80,120
1,88,80,8
1,74,74,24
1,86,79,0
1,71,67,96
1,83,81,0
1,69,70,104
1,81,71,0
1,67,69,84
1,79,71,0
1,64,81,88
1,76,71,4
1,55,67,12
1,60,80,108
1,72,81,4
1,61,87,20
1,73,80,8
1,62,80,64
1,74,87,0
1,62,71,0
1,69,79,4
1,74,81,0
1,54,74,4
1,60,65,376
1,55,63,36
1,57,74,184
1,60,80,88
1,55,70,8
1,64,74,0
1,57,69,0
1,72,76,0
1,69,74,4
1,52,73,256
1,76,87,4
1,53,69,60
1,77,80,0
1,54,79,60
1,78,85,0
1,55,69,20
1,79,71,0
1,59,73,192
1,74,72,64
1,67,72,0
1,59,71,0
1,62,64,8
1,55,60,220
1,67,70,152
1,74,70,0
1,59,79,8
1,62,68,0
1,74,85,200
1,59,70,0
1,67,70,0
1,62,60,0
1,55,66,224
1,76,71,76
1,64,72,4
1,67,74,0
1,59,77,0
1,67,70,32
1,79,80,12
1,64,70,12
1,76,71,0
1,59,67,44
1,71,78,4
1,57,62,24
1,55,72,4
1,69,56,8
1,57,67,0
1,64,73,4
1,69,76,0
1,72,72,0
1,54,91,20
1,71,80,60
1,66,72,0
1,62,77,0
1,55,79,144
1,72,79,64
1,64,79,0
1,67,80,0
1,57,75,112
1,69,80,148
1,73,71,0
1,61,65,16
1,54,79,40
1,62,79,144
1,66,83,192
1,74,99,0
1,60,70,72
1,55,73,88
1,67,70,0
1,72,65,0
1,60,64,8
1,54,83,16
1,74,79,8
1,69,73,0
1,76,76,196
1,72,71,0
1,60,62,0
1,69,75,0
1,55,65,4
1,57,67,0
1,72,89,172
1,76,85,0
1,55,81,0
1,57,82,0
1,69,91,0
1,60,78,0
1,74,66,16
1,66,65,0
1,54,65,0
1,62,66,4
1,62,69,132
1,67,69,24
1,62,78,0
1,55,79,0
1,71,80,0
1,59,80,0
1,59,79,100
1,55,69,0
1,72,80,72
1,55,80,0
1,67,77,0
1,60,89,0
1,64,77,0
1,74,75,16
1,55,79,0
1,62,83,0
1,59,91,8
1,67,73,0
1,60,80,88
1,55,72,0
1,72,67,4
1,67,18,16
1,55,71,104
1,64,80,0
1,72,96,0
1,67,80,0
1,60,64,8
1,55,75,152
1,72,82,124
1,67,74,0
1,55,85,0
1,60,91,0
1,64,89,0
1,72,67,68
1,67,64,0
1,60,65,0
1,54,67,44
1,62,89,196
1,74,83,124
1,66,76,0
1,54,64,12
1,69,79,144
1,66,71,0
1,54,89,8
1,62,80,0
1,74,80,32
1,54,87,0
1,62,71,0
1,66,72,0
1,62,68,12
1,69,68,0
1,60,75,96
1,57,66,0
1,55,66,12
1,60,81,160
1,55,81,0
1,57,83,0
1,64,89,4
1,60,63,68
1,54,74,8
1,74,68,0
1,66,61,0
1,62,76,132
1,66,77,0
1,74,87,0
1,54,81,0
1,62,73,76
1,59,75,0
1,55,76,0
1,55,89,160
1,60,96,0
1,64,99,0
1,55,87,172
1,59,99,0
1,62,89,0
2,43,82,2652
2,43,82,152
2,36,94,16
2,38,90,304
2,38,94,224
2,36,94,112
2,38,86,192
2,43,85,324
2,36,100,152
2,38,96,328
2,38,100,160
2,36,92,80
2,38,90,0
2,43,80,296
2,43,79,144
2,38,93,84
2,38,82,188
2,40,79,28
2,40,81,176
2,35,79,192
2,43,85,112
2,43,85,84
2,43,80,112
2,38,81,20
2,38,83,120
2,40,82,48
2,40,79,152
2,35,87,20
2,35,82,148
2,36,86,44
2,36,86,112
2,38,88,192
2,38,88,96
2,45,86,16
2,45,89,128
2,38,86,20
2,38,85,108
2,43,81,24
2,43,81,184
2,38,79,20
2,38,82,144
2,40,82,28
2,40,82,156
2,35,96,4
2,35,84,108
