track,note,velocity,time
0,40,101,772
0,40,103,0
0,40,0,180
0,40,0,0
0,42,98,8
0,42,102,4
0,42,0,180
0,42,0,0
0,45,101,8
0,45,98,4
0,45,0,180
0,45,0,0
0,47,103,4
0,47,98,4
0,47,0,184
0,47,0,0
0,52,100,0
0,52,102,4
0,45,101,0
0,45,103,4
0,57,103,0
0,57,99,4
0,52,0,368
0,57,0,0
0,52,0,0
0,57,0,0
0,45,0,4
0,45,0,0
0,40,90,4
0,45,92,0
0,40,89,4
0,45,89,0
0,40,0,24
0,45,0,0
0,40,0,0
0,45,0,0
0,52,98,164
0,45,93,4
0,45,93,0
0,57,99,0
0,52,99,0
0,57,99,4
0,52,0,176
0,57,0,0
0,57,0,0
0,52,0,0
0,45,0,4
0,47,70,0
0,42,75,0
0,45,0,0
0,47,72,4
0,42,75,8
0,47,0,36
0,42,0,0
0,47,0,0
0,42,0,0
0,42,75,144
0,47,74,0
0,42,74,0
0,47,75,4
0,42,0,44
0,47,0,0
0,47,0,0
0,42,0,0
0,52,98,148
0,52,101,4
0,57,99,0
0,57,102,4
0,45,98,0
0,45,103,0
0,52,0,244
0,57,0,0
0,45,0,0
0,52,0,0
0,57,0,0
0,45,0,0
0,49,101,128
0,54,100,0
0,54,100,4
0,42,98,0
0,42,102,4
0,49,98,4
0,42,0,564
0,49,0,0
0,54,0,0
0,54,0,0
0,42,0,0
0,49,0,0
0,54,100,8
0,42,102,0
0,49,103,0
0,42,100,0
0,49,102,0
0,54,100,4
0,54,0,180
0,42,0,0
0,49,0,0
0,42,0,0
0,49,0,0
0,54,0,0
0,40,101,4
0,40,98,8
0,40,0,180
0,40,0,0
0,42,100,4
0,42,101,4
0,42,0,184
0,42,0,0
0,45,102,4
0,45,103,4
0,45,0,184
0,45,0,0
0,47,101,4
0,47,101,4
0,47,0,184
0,47,0,0
0,43,99,0
0,43,101,8
0,43,0,376
0,43,0,0
0,43,99,4
0,50,98,0
0,50,100,0
0,43,98,8
0,43,0,20
0,50,0,0
0,50,0,0
0,43,0,0
0,50,102,160
0,50,101,4
0,67,103,0
0,43,100,0
0,55,103,0
0,55,102,4
0,62,101,0
0,62,102,4
0,43,102,0
0,67,98,0
0,50,0,180
0,67,0,0
0,55,0,0
0,62,0,0
0,43,0,0
0,50,0,0
0,43,0,0
0,55,0,0
0,62,0,0
0,67,0,0
0,43,98,0
0,43,102,8
0,50,101,0
0,50,103,0
0,43,0,24
0,50,0,0
0,43,0,0
0,50,0,0
0,43,98,160
0,43,102,8
0,50,100,0
0,50,101,4
0,43,0,20
0,50,0,0
0,43,0,0
0,50,0,0
0,62,99,160
0,67,103,0
0,55,98,8
0,67,103,0
0,62,103,0
0,50,102,0
0,43,101,0
0,50,98,0
0,43,99,4
0,55,101,0
0,55,0,180
0,67,0,0
0,62,0,0
0,50,0,0
0,43,0,0
0,50,98,0
0,62,0,0
0,67,0,0
0,43,0,0
0,50,0,0
0,55,0,0
0,43,103,4
0,43,101,0
0,50,103,4
0,50,0,24
0,43,0,0
0,43,0,0
0,50,0,0
0,57,99,160
0,62,98,4
0,50,103,4
0,57,99,0
0,66,100,0
0,62,103,0
0,66,103,0
0,50,102,0
0,50,0,564
0,57,0,0
0,66,0,0
0,62,0,0
0,57,0,0
0,62,0,0
0,66,0,0
0,50,0,0
0,62,103,4
0,50,103,4
0,57,99,0
0,57,99,4
0,66,100,0
0,66,103,0
0,62,101,0
0,50,103,0
0,38,103,192
0,57,98,4
0,38,0,84
0,38,100,0
0,38,0,96
0,62,100,0
0,38,99,4
0,62,0,180
0,38,0,0
0,38,101,4
0,60,103,0
0,38,0,84
0,38,102,12
0,38,0,84
0,38,98,4
0,57,98,0
0,45,102,0
0,61,69,0
0,60,0,0
0,60,103,0
0,61,70,4
0,45,100,0
0,45,100,4
0,52,103,0
0,57,100,0
0,52,98,0
0,49,98,4
0,36,99,0
0,60,0,180
0,60,100,0
0,45,0,184
0,57,0,4
0,61,0,0
0,45,0,0
0,52,0,0
0,57,103,0
0,52,100,0
0,45,0,0
0,61,0,0
0,57,0,0
0,52,0,0
0,60,0,0
0,49,0,0
0,36,0,0
0,57,100,0
0,59,99,0
0,45,100,0
0,61,71,4
0,45,102,0
0,61,69,0
0,42,98,0
0,38,103,0
0,52,100,4
0,45,98,0
0,45,0,176
0,57,100,0
0,42,0,0
0,42,100,8
0,57,0,184
0,38,0,0
0,42,0,0
0,52,100,0
0,45,101,0
0,52,100,0
0,59,101,0
0,40,102,0
0,36,98,0
0,45,101,4
0,42,103,0
0,52,0,36
0,45,0,0
0,45,0,0
0,52,0,0
0,61,73,4
0,45,100,0
0,45,98,0
0,57,100,4
0,57,101,4
0,61,69,0
0,42,102,0
0,52,98,4
0,52,100,0
0,42,98,0
0,42,0,176
0,59,0,4
0,44,101,0
0,36,0,0
0,42,0,0
0,38,100,4
0,59,98,0
0,42,99,0
0,61,0,180
0,45,0,0
0,57,0,0
0,52,0,0
0,45,0,0
0,57,0,0
0,61,0,0
0,52,0,0
0,44,0,0
0,57,102,4
0,45,102,0
0,59,0,0
0,42,0,0
0,45,101,4
0,52,103,0
0,57,101,0
0,62,103,0
0,52,103,0
0,57,103,0
0,42,101,0
0,62,100,4
0,45,100,0
0,57,0,180
0,38,0,0
0,42,0,0
0,42,101,8
0,36,101,0
0,60,101,0
0,60,103,0
0,42,0,0
0,42,99,8
0,45,0,176
0,45,0,4
0,52,0,0
0,57,0,0
0,62,0,0
0,45,0,0
0,52,0,0
0,57,0,0
0,62,0,0
0,52,101,4
0,52,101,0
0,60,0,0
0,36,0,0
0,42,0,0
0,45,101,0
0,62,102,0
0,59,98,0
0,42,98,0
0,62,103,4
0,57,100,0
0,38,100,0
0,57,99,4
0,45,99,0
0,45,98,0
0,45,0,176
0,52,0,4
0,45,0,0
0,62,0,0
0,57,0,0
0,52,0,0
0,62,0,0
0,57,0,0
0,45,0,0
0,59,0,0
0,42,0,0
0,42,99,0
0,59,101,0
0,59,0,184
0,40,98,0
0,38,0,0
0,42,0,0
0,36,103,8
0,42,101,0
0,40,0,180
0,45,100,4
0,36,0,0
0,42,0,0
0,57,101,4
0,42,103,0
0,45,102,4
0,52,98,0
0,57,103,0
0,52,100,0
0,62,98,4
0,62,100,0
0,36,99,0
0,42,103,0
0,42,0,176
0,45,0,4
0,52,0,0
0,57,0,0
0,62,0,0
0,45,0,0
0,57,0,0
0,52,0,0
0,62,0,0
0,36,0,0
0,42,0,0
0,42,99,0
0,44,102,8
0,38,102,4
0,44,0,176
0,54,98,0
0,42,101,0
0,54,102,0
0,57,68,0
0,61,98,0
0,42,98,0
0,42,0,0
0,42,103,4
0,49,100,4
0,57,69,4
0,49,98,0
0,46,100,0
0,38,0,180
0,46,0,0
0,42,100,8
0,36,102,4
0,61,0,180
0,42,0,0
0,61,102,0
0,42,99,0
0,42,0,176
0,66,102,0
0,54,98,0
0,61,0,0
0,59,99,0
0,36,0,0
0,42,0,0
0,61,100,4
0,57,100,0
0,61,103,0
0,42,100,0
0,38,99,4
0,54,99,4
0,66,98,0
0,57,100,0
0,42,102,0
0,42,0,176
0,61,0,4
0,54,0,0
0,66,0,0
0,57,0,0
0,66,0,0
0,54,0,0
0,57,0,0
0,61,0,0
0,59,0,0
0,42,0,0
0,57,102,0
0,42,101,0
0,57,0,184
0,38,0,0
0,42,0,0
0,36,100,0
0,38,98,4
0,59,101,0
0,42,100,0
0,66,103,4
0,61,100,0
0,57,101,4
0,40,103,0
0,57,103,4
0,42,98,0
0,54,100,4
0,66,103,0
0,61,103,0
0,54,103,0
0,40,0,176
0,57,0,4
0,54,0,0
0,66,0,0
0,61,0,0
0,66,0,0
0,61,0,0
0,57,0,0
0,54,0,0
0,59,0,0
0,42,103,0
0,36,0,0
0,42,0,0
0,59,102,0
0,38,98,0
0,42,100,4
0,42,0,176
0,59,0,4
0,42,0,0
0,42,101,0
0,57,100,0
0,43,102,0
0,43,0,184
0,50,103,4
0,57,0,0
0,38,0,0
0,42,0,0
0,36,98,4
0,42,99,0
0,43,101,4
0,43,100,0
0,43,102,0
0,50,102,0
0,60,102,0
0,43,0,176
0,50,0,4
0,43,0,0
0,55,103,0
0,43,0,0
0,50,0,0
0,60,0,0
0,42,0,0
0,50,103,4
0,62,100,0
0,55,98,0
0,62,99,0
0,43,101,0
0,50,100,0
0,59,103,0
0,42,101,0
0,43,0,180
0,59,100,0
0,36,0,0
0,42,0,0
0,38,100,0
0,42,98,12
0,66,100,180
0,50,100,0
0,50,98,0
0,66,102,0
0,59,0,0
0,42,0,0
0,57,100,4
0,62,98,0
0,38,101,0
0,42,99,0
0,62,99,4
0,57,101,0
0,38,0,184
0,42,0,0
0,36,102,8
0,42,101,4
0,38,0,172
0,66,0,4
0,50,0,0
0,57,0,0
0,62,0,0
0,50,0,0
0,66,0,0
0,62,0,0
0,57,0,0
0,57,102,4
0,38,100,0
0,36,0,0
0,42,0,0
0,42,99,0
0,62,98,4
0,66,102,0
0,57,101,0
0,36,98,0
0,62,100,4
0,50,100,4
0,66,102,0
0,50,98,0
0,38,0,176
0,57,0,4
0,62,0,0
0,50,0,0
0,66,0,0
0,62,0,0
0,66,0,0
0,57,0,0
0,50,0,0
0,40,99,0
0,42,0,0
0,36,0,0
0,42,101,4
0,38,103,8
0,40,0,176
0,60,101,0
0,42,0,0
0,46,101,0
0,57,100,8
0,52,98,0
0,57,100,0
0,45,98,0
0,45,99,4
0,61,68,0
0,61,69,0
0,52,103,0
0,42,100,0
0,42,0,80
0,45,101,12
0,38,0,88
0,46,0,0
0,36,102,4
0,42,98,4
0,60,0,180
0,42,0,4
0,42,99,0
0,60,100,0
0,45,0,172
0,57,98,0
0,45,0,0
0,52,0,0
0,57,0,0
0,61,0,0
0,57,100,0
0,60,0,0
0,59,99,0
0,36,0,0
0,42,0,0
0,45,101,4
0,42,102,0
0,61,72,4
0,52,101,0
0,61,69,0
0,52,102,0
0,45,98,4
0,45,100,0
0,38,99,0
0,45,0,176
0,57,0,4
0,61,0,0
0,52,0,0
0,45,0,0
0,57,0,0
0,45,0,0
0,61,0,0
0,52,0,0
0,59,0,0
0,42,0,0
0,57,100,0
0,42,103,4
0,52,100,184
0,45,103,0
0,57,0,0
0,38,0,0
0,42,0,0
0,45,98,4
0,52,102,4
0,36,102,0
0,59,100,0
0,40,102,0
0,42,98,0
0,45,0,36
0,52,0,0
0,52,0,0
0,45,0,0
0,40,0,140
0,52,100,4
0,57,102,0
0,59,0,0
0,42,0,0
0,42,98,0
0,57,99,4
0,52,100,0
0,45,98,0
0,61,70,0
0,61,70,0
0,57,101,0
0,42,102,0
0,45,103,4
0,42,0,176
0,57,0,4
0,36,0,0
0,42,0,0
0,59,102,0
0,44,100,0
0,42,100,0
0,38,99,0
0,52,0,180
0,57,0,0
0,61,0,0
0,45,0,0
0,57,0,0
0,52,0,0
0,45,0,0
0,61,0,0
0,44,0,0
0,52,100,4
0,62,99,0
0,59,0,0
0,42,0,0
0,57,99,4
0,45,103,0
0,45,101,4
0,57,101,0
0,52,100,0
0,45,102,0
0,42,100,0
0,62,99,0
0,57,98,0
0,60,101,0
0,38,0,0
0,42,0,0
0,42,102,8
0,36,100,4
0,60,0,180
0,42,0,0
0,60,98,0
0,42,98,0
0,45,0,172
0,45,0,4
0,52,0,0
0,57,0,0
0,62,0,0
0,45,0,0
0,52,0,0
0,57,0,0
0,62,0,0
0,57,102,0
0,60,0,0
0,59,102,0
0,36,0,0
0,42,0,0
0,45,99,4
0,62,102,4
0,52,102,0
0,57,99,0
0,45,100,0
0,38,100,0
0,42,103,0
0,62,98,4
0,52,98,0
0,45,101,0
0,45,0,176
0,57,0,4
0,45,0,0
0,62,0,0
0,52,0,0
0,57,0,0
0,45,0,0
0,62,0,0
0,52,0,0
0,59,0,0
0,42,0,0
0,59,100,0
0,42,99,8
0,59,0,180
0,38,0,0
0,42,0,0
0,36,101,0
0,40,103,4
0,42,103,8
0,40,0,176
0,36,0,4
0,42,0,0
0,42,98,0
0,36,100,0
0,52,102,4
0,42,101,0
0,57,98,4
0,45,100,0
0,57,102,0
0,62,98,0
0,52,100,4
0,62,98,0
0,45,98,0
0,42,0,176
0,57,0,4
0,45,0,0
0,52,0,0
0,62,0,0
0,52,0,0
0,57,0,0
0,62,0,0
0,45,0,0
0,42,0,0
0,36,0,0
0,44,98,4
0,38,99,4
0,42,99,0
0,44,0,180
0,42,101,4
0,42,0,0
0,54,101,4
0,49,103,0
0,42,100,0
0,57,72,4
0,57,69,0
0,54,101,0
0,49,102,0
0,46,101,0
0,42,103,0
0,61,98,0
0,61,0,180
0,38,0,0
0,46,0,0
0,64,103,0
0,42,101,0
0,36,103,0
0,64,0,188
0,42,0,0
0,42,101,4
0,61,102,0
0,42,0,176
0,42,0,8
0,49,0,0
0,54,0,0
0,57,0,0
0,42,0,0
0,49,0,0
0,54,0,0
0,57,0,0
0,57,99,0
0,61,0,0
0,36,0,0
0,42,0,0
0,61,100,4
0,66,100,0
0,54,99,0
0,57,101,0
0,61,98,0
0,54,103,0
0,66,101,0
0,64,99,0
0,42,98,0
0,38,100,4
0,42,100,0
0,42,0,176
0,61,0,4
0,66,0,0
0,54,0,0
0,57,0,0
0,57,0,0
0,61,0,0
0,54,0,0
0,66,0,0
0,64,0,0
0,42,0,0
0,42,99,0
0,61,103,0
0,61,0,184
0,38,0,0
0,42,0,0
0,38,99,4
0,42,102,0
0,64,102,0
0,36,98,0
0,38,0,180
0,61,98,0
0,42,0,0
0,66,101,4
0,54,99,0
0,54,101,0
0,66,102,0
0,42,99,0
0,61,98,4
0,57,99,0
0,61,98,0
0,40,100,0
0,57,101,4
0,40,0,176
0,66,0,4
0,54,0,0
0,61,0,0
0,57,0,0
0,54,0,0
0,66,0,0
0,57,0,0
0,61,0,0
0,61,0,0
0,36,0,0
0,42,0,0
0,38,100,8
0,64,103,0
0,42,103,0
0,42,101,0
0,42,0,176
0,66,101,0
0,42,0,0
0,42,98,4
0,43,101,4
0,43,0,180
0,50,100,4
0,38,0,0
0,42,0,0
0,43,98,8
0,50,98,0
0,43,100,0
0,36,99,0
0,42,99,0
0,43,98,4
0,66,0,176
0,43,0,0
0,50,0,4
0,43,0,0
0,50,102,0
0,50,0,0
0,43,0,0
0,43,103,0
0,42,0,0
0,55,101,4
0,42,100,0
0,62,100,0
0,55,102,0
0,66,98,0
0,62,100,4
0,50,102,0
0,43,0,176
0,50,0,4
0,55,0,0
0,62,0,0
0,62,0,0
0,55,0,0
0,50,0,0
0,36,0,0
0,42,0,0
0,38,100,0
0,42,102,0
0,57,100,192
0,66,0,0
0,42,0,0
0,57,102,4
0,50,102,0
0,62,103,0
0,64,101,0
0,38,102,0
0,42,101,0
0,66,102,4
0,50,99,0
0,62,98,0
0,66,103,0
0,38,0,180
0,42,0,0
0,36,99,0
0,42,98,12
0,57,102,4
0,62,101,0
0,57,102,0
0,38,103,0
0,62,99,4
0,66,103,0
0,38,99,0
0,66,99,4
0,50,100,0
0,50,103,0
0,38,0,84
0,38,102,0
0,38,0,92
0,57,0,4
0,62,0,0
0,66,0,0
0,50,0,0
0,57,0,0
0,62,0,0
0,66,0,0
0,50,0,0
0,38,0,0
0,38,103,4
0,40,101,4
0,40,0,180
0,64,0,4
0,42,103,0
0,38,0,0
0,52,103,4
0,57,99,0
0,57,98,4
0,61,70,0
0,45,100,0
0,61,72,0
0,52,100,0
0,45,98,4
0,38,101,0
0,42,0,80
0,45,102,12
0,38,0,88
0,36,103,0
0,49,100,0
0,45,0,380
0,45,0,4
0,52,0,0
0,57,0,0
0,61,0,0
0,45,101,0
0,45,0,0
0,52,0,0
0,57,0,0
0,61,0,0
0,61,69,0
0,36,0,0
0,49,0,0
0,38,98,0
0,57,98,4
0,52,101,0
0,61,72,4
0,52,99,0
0,45,101,0
0,57,98,0
0,42,101,0
0,71,102,0
0,45,101,4
0,42,101,12
