track,note,velocity,time
1,66,45,0
1,76,56,0
1,81,55,0
1,62,54,0
1,69,52,0
1,69,38,0
1,76,59,46
1,81,53,0
1,69,53,2
1,69,38,34
1,69,58,68
1,76,59,0
1,81,59,0
1,69,35,56
1,69,55,62
1,81,55,0
1,76,62,2
1,69,35,62
1,66,61,64
1,69,57,0
1,76,62,0
1,81,59,0
1,62,69,4
1,69,23,68
1,76,58,68
1,69,47,2
1,81,43,0
1,69,19,58
1,69,40,34
1,76,61,4
1,81,51,0
1,69,40,54
1,69,47,64
1,76,62,0
1,81,50,0
1,69,45,56
1,69,53,60
1,62,69,2
1,66,62,0
1,76,62,0
1,81,51,0
1,69,37,56
1,76,60,64
1,81,52,0
1,69,52,4
1,69,49,158
1,76,57,0
1,81,47,4
1,69,37,60
1,69,54,70
1,76,64,0
1,81,61,0
1,69,33,66
1,62,52,42
1,67,70,6
1,69,55,0
1,74,63,0
1,81,59,0
1,69,26,72
1,81,52,64
1,74,67,4
1,69,55,2
1,69,40,54
1,81,54,64
1,69,57,2
1,76,63,0
1,69,40,52
1,81,24,12
1,69,60,6
1,78,50,0
1,69,48,58
1,62,55,44
1,76,62,0
1,81,61,0
1,66,58,4
1,69,60,0
1,69,49,58
1,76,58,54
1,81,57,0
1,69,55,2
1,69,30,64
1,81,62,66
1,69,55,2
1,76,62,0
1,69,30,62
1,76,62,70
1,81,56,0
1,69,56,2
1,69,30,62
1,62,39,38
1,81,38,4
1,67,73,6
1,69,55,0
1,74,62,0
1,81,53,152
1,69,60,6
1,74,66,0
1,69,28,64
1,69,46,20
1,69,56,28
1,81,55,0
1,76,63,2
1,69,43,56
1,78,54,12
1,81,63,0
1,69,63,2
1,54,37,64
1,61,57,0
1,66,50,36
1,42,63,34
1,61,67,0
1,66,57,0
1,73,66,0
1,68,47,4
1,61,38,52
1,61,55,20
1,66,46,0
1,73,53,0
1,68,46,4
1,61,51,78
1,61,66,70
1,73,51,0
1,66,58,4
1,69,66,0
1,61,47,62
1,61,12,22
1,54,55,30
1,61,59,0
1,66,54,0
1,68,48,0
1,73,59,0
1,61,56,74
1,73,15,2
1,43,65,56
1,55,63,2
1,62,68,4
1,67,70,0
1,71,72,0
1,71,70,144
1,62,63,2
1,67,63,0
1,62,43,62
1,67,55,28
1,67,60,12
1,69,73,0
1,55,62,4
1,73,57,0
1,62,17,36
1,67,49,30
1,55,62,24
1,67,76,0
1,71,74,0
1,62,69,4
1,74,76,0
1,62,32,58
1,67,56,18
1,64,30,28
1,44,65,30
1,56,57,0
1,64,78,0
1,68,65,0
1,71,70,0
1,76,72,0
1,64,38,64
1,71,62,68
1,64,55,2
1,68,51,0
1,76,51,0
1,66,57,172
1,69,62,2
1,71,60,4
1,56,31,12
1,66,76,28
1,71,72,0
1,68,45,20
1,66,46,42
1,45,59,46
1,57,58,4
1,62,66,0
1,66,67,0
1,69,73,0
1,74,48,252
1,78,44,0
1,86,10,14
1,76,52,4
1,79,52,4
1,81,66,24
1,78,48,2
1,64,74,58
1,69,61,0
1,57,60,4
1,66,40,8
1,62,53,18
1,33,72,28
1,45,70,0
1,62,83,2
1,64,81,0
1,69,79,0
1,57,84,4
1,61,67,70
1,48,68,72
1,52,70,8
1,55,66,10
1,36,90,8
1,58,62,0
1,60,70,6
1,41,67,0
1,53,62,0
1,57,62,0
1,60,39,0
1,65,57,0
1,69,62,0
1,57,34,12
1,57,66,28
1,60,66,4
1,65,65,0
1,69,68,0
1,57,41,0
1,60,60,38
1,57,70,16
1,60,70,0
1,65,65,0
1,53,62,2
1,69,66,0
1,57,43,20
1,57,78,24
1,60,82,0
1,65,75,0
1,69,70,0
1,57,36,6
1,41,76,24
1,60,72,0
1,69,72,0
1,53,66,2
1,57,70,0
1,64,70,2
1,57,29,36
1,69,66,18
1,57,61,2
1,60,63,0
1,64,67,0
1,57,46,28
1,57,69,68
1,64,67,0
1,69,65,0
1,60,68,2
1,57,49,52
1,69,63,34
1,57,62,2
1,60,68,0
1,64,70,0
1,57,58,2
1,60,29,2
1,38,83,12
1,50,77,0
1,57,75,4
1,62,74,0
1,65,74,0
1,69,81,0
1,57,45,50
1,57,62,12
1,62,72,0
1,69,70,0
1,65,65,2
1,57,59,42
1,65,31,2
1,62,33,6
1,39,80,68
1,51,80,0
1,67,86,0
1,57,92,4
1,60,90,0
1,63,85,0
1,57,51,8
1,36,84,28
1,48,98,0
1,57,87,0
1,60,89,0
1,63,96,0
1,67,89,0
1,57,52,6
1,60,59,2
1,34,68,2
1,46,87,4
1,62,53,0
1,65,64,0
1,58,87,2
1,58,24,10
1,58,54,24
1,65,67,0
1,62,77,2
1,58,39,14
1,58,46,12
1,58,73,32
1,65,66,0
1,62,74,4
1,58,42,16
1,58,39,18
1,58,65,34
1,62,81,0
1,65,72,0
1,58,42,8
1,58,73,30
1,61,66,0
1,65,73,0
1,67,76,0
1,34,75,2
1,46,87,4
1,58,40,4
1,61,32,4
1,36,89,22
1,48,92,0
1,58,78,0
1,61,65,0
1,65,72,0
1,67,73,0
1,58,49,2
1,37,85,32
1,49,75,0
1,58,66,0
1,61,65,0
1,65,70,0
1,67,70,0
1,58,43,10
1,43,70,16
1,55,69,2
1,58,67,0
1,61,71,4
1,65,72,0
1,67,78,0
1,58,38,18
1,61,60,32
1,41,84,0
1,53,74,0
1,60,68,0
1,62,72,2
1,69,73,0
1,60,10,66
1,60,75,32
1,69,71,0
1,62,75,2
1,65,66,0
1,55,47,64
1,57,55,26
1,38,79,32
1,55,84,0
1,57,84,0
1,62,83,0
1,50,67,4
1,55,34,90
1,53,70,30
1,57,79,0
1,62,77,0
1,53,33,12
1,31,76,66
1,43,70,2
1,55,69,0
1,59,66,0
1,62,73,0
1,67,71,0
1,55,33,42
1,59,28,2
1,55,66,112
1,67,72,0
1,59,63,2
1,62,73,0
1,33,68,10
1,67,60,0
1,45,78,4
1,57,70,0
1,60,73,0
1,35,81,10
1,47,94,4
1,59,82,2
1,67,83,0
1,62,87,2
1,59,40,22
1,62,61,38
1,67,76,32
1,59,57,24
1,62,57,46
1,36,69,20
1,67,76,0
1,48,74,2
1,55,94,0
1,60,83,0
1,64,83,0
1,55,36,24
1,48,67,6
1,57,53,10
1,33,72,10
1,45,70,0
1,57,73,0
1,62,81,0
1,64,78,0
1,69,83,0
1,57,56,8
1,61,63,8
1,45,81,24
1,64,79,0
1,69,96,4
1,76,55,0
1,81,66,0
1,50,66,0
1,62,41,0
1,69,62,0
1,69,41,4
1,69,57,66
1,76,63,0
1,81,62,0
1,69,33,40
1,69,37,22
1,62,62,22
1,69,63,2
1,76,65,0
1,81,66,0
1,69,35,40
1,69,62,36
1,76,63,0
1,50,62,2
1,81,66,0
1,69,51,2
1,43,70,54
1,55,56,4
1,69,62,0
1,81,62,0
1,74,71,4
1,69,39,34
1,81,63,56
1,69,63,4
1,74,71,0
1,69,49,28
1,69,64,80
1,76,66,0
1,81,63,0
1,69,47,26
1,69,63,64
1,78,57,0
1,81,54,4
1,69,48,22
1,76,60,46
1,62,60,2
1,50,66,32
1,76,66,0
1,81,67,0
1,69,66,4
1,69,25,60
1,69,70,76
1,76,65,0
1,81,66,0
1,69,37,18
1,47,79,66
1,59,61,0
1,69,79,4
1,74,79,0
1,81,69,0
1,81,60,130
1,74,77,2
1,76,19,14
1,69,53,0
1,55,51,26
1,43,70,50
1,69,79,0
1,74,70,0
1,71,55,18
1,67,77,10
1,55,66,170
1,59,58,44
1,62,57,48
1,67,59,46
1,67,53,4
1,71,79,2
1,62,76,8
1,55,60,20
1,67,66,34
1,71,75,0
1,54,73,12
1,66,85,0
1,69,89,0
1,42,62,4
1,61,35,16
1,61,70,20
1,66,76,0
1,68,71,0
1,73,85,0
1,49,49,74
1,54,52,24
1,56,75,20
1,61,82,0
1,30,87,6
1,49,46,28
1,54,54,2
1,56,53,54
1,61,57,32
1,49,48,38
1,54,55,10
1,43,25,6
1,31,73,8
1,50,57,0
1,59,77,0
1,55,79,2
1,50,41,56
1,55,83,14
1,59,79,0
1,50,75,4
1,50,44,24
1,55,66,0
1,55,69,8
1,43,75,4
1,57,89,0
1,61,85,0
1,50,31,24
1,55,56,62
1,50,83,8
1,55,87,0
1,59,92,0
1,62,90,4
1,43,86,8
1,52,54,18
1,32,68,32
1,44,85,0
1,52,89,0
1,56,87,0
1,59,96,0
1,64,92,0
1,52,75,12
1,56,62,0
1,59,67,0
1,44,67,24
1,64,57,18
1,54,66,4
1,57,71,0
1,44,43,22
1,64,51,8
1,59,72,2
1,56,58,4
1,62,52,4
1,44,50,30
1,54,65,36
1,62,71,0
1,33,63,4
1,45,59,0
1,50,67,0
1,57,68,0
1,45,59,40
1,62,48,44
1,66,46,0
1,74,46,2
1,64,56,16
1,67,62,2
1,66,73,18
1,69,78,0
1,45,60,16
1,69,73,62
1,64,92,4
1,66,54,12
1,62,56,0
1,33,70,46
1,45,70,0
1,57,76,0
1,62,79,0
1,64,78,0
1,69,81,0
1,61,70,2
1,48,100,144
1,52,71,2
1,55,70,12
1,36,107,12
1,58,100,0
1,60,96,0
1,55,70,12
1,48,60,60
1,52,65,8
1,48,77,4
1,41,66,0
1,53,60,0
1,57,62,0
1,60,60,0
1,65,62,0
1,69,57,0
1,57,42,28
1,57,76,64
1,60,73,0
1,65,63,0
1,69,67,0
1,57,43,54
1,60,52,6
1,53,67,30
1,57,76,2
1,60,75,0
1,65,70,0
1,69,66,0
1,57,41,56
1,57,66,58
1,60,68,0
1,65,63,0
1,69,63,0
1,57,37,4
1,40,68,52
1,52,65,0
1,69,64,2
1,57,73,2
1,60,71,0
1,64,74,0
1,57,51,42
1,57,69,70
1,69,63,2
1,60,71,2
1,64,72,0
1,57,51,60
1,60,55,22
1,60,75,16
1,69,65,0
1,57,82,4
1,64,74,0
1,57,45,48
1,69,70,60
1,57,76,4
1,60,79,0
1,64,74,0
1,57,53,54
1,38,70,72
1,50,59,0
1,57,83,4
1,62,79,0
1,65,76,0
1,69,70,0
1,57,45,38
1,57,78,16
1,69,74,0
1,62,83,4
1,65,73,0
1,57,50,52
1,39,82,78
1,51,68,0
1,57,77,2
1,60,94,0
1,63,100,0
1,65,84,0
1,57,46,30
1,36,84,16
1,48,98,4
1,57,76,0
1,60,94,0
1,63,96,0
1,65,84,0
1,57,51,0
1,60,57,2
1,34,63,8
1,46,65,0
1,58,82,0
1,65,66,0
1,62,83,0
1,58,28,24
1,65,59,48
1,58,57,2
1,62,75,0
1,58,30,96
1,62,53,8
1,58,53,32
1,62,67,0
1,65,63,0
1,58,41,54
1,65,60,40
1,58,53,4
1,62,70,0
1,58,45,6
1,34,78,74
1,46,73,0
1,58,85,0
1,61,75,0
1,65,70,0
1,67,75,0
1,58,39,6
1,36,84,68
1,48,89,0
1,58,66,0
1,61,70,0
1,65,71,0
1,67,69,0
1,58,52,4
1,37,78,60
1,49,82,0
1,58,76,0
1,61,70,0
1,65,74,0
1,67,73,0
1,58,24,30
1,43,77,66
1,67,72,0
1,55,75,4
1,58,71,0
1,61,71,0
1,65,75,0
1,57,19,26
1,60,46,34
1,41,83,12
1,53,76,0
1,60,73,0
1,57,77,2
1,65,69,0
1,69,70,0
1,57,28,8
1,57,66,0
1,60,71,0
1,69,67,0
1,65,71,4
1,57,56,56
1,57,63,28
1,38,81,32
1,50,75,2
1,55,86,0
1,57,92,0
1,62,86,0
1,55,51,58
1,53,84,72
1,57,87,0
1,60,86,0
1,62,70,0
1,55,65,32
1,31,87,66
1,43,73,0
1,55,90,0
1,59,83,0
1,67,83,0
1,55,56,36
1,55,52,80
1,67,54,10
1,55,71,2
1,59,70,0
1,33,63,24
1,45,67,4
1,57,63,0
1,60,66,0
1,35,66,14
1,67,70,0
1,47,98,4
1,59,76,0
1,62,83,0
1,59,57,36
1,59,68,24
1,62,77,2
1,59,55,26
1,62,17,6
1,36,76,18
1,48,81,0
1,55,86,0
1,60,82,0
1,64,76,0
1,67,78,0
1,46,59,0
1,58,57,0
1,74,65,0
1,62,63,0
1,65,67,0
1,70,60,0
1,65,70,102
1,74,71,0
1,62,75,0
1,70,65,0
1,64,53,60
1,67,60,0
1,72,75,0
1,76,76,0
1,48,90,0
1,60,66,0
1,64,24,2
1,64,84,82
1,67,79,0
1,72,81,0
1,76,70,0
1,63,63,150
1,67,71,0
1,72,73,0
1,75,68,0
1,39,80,0
1,51,68,0
1,70,58,0
1,63,9,72
1,75,44,0
1,67,66,0
1,67,70,12
1,70,57,0
1,72,66,0
1,75,65,0
1,63,54,0
1,63,48,30
1,67,59,18
1,38,73,14
1,67,82,0
1,74,82,0
1,50,63,0
1,62,89,0
1,69,78,0
1,62,60,52
1,42,76,76
1,54,67,0
1,74,86,0
1,62,89,0
1,66,82,0
1,69,84,0
1,62,52,8
1,66,51,24
1,43,76,6
1,55,74,0
1,62,82,0
1,67,83,0
1,70,85,0
1,74,89,0
1,62,47,32
1,67,41,48
1,62,94,32
1,67,90,0
1,70,82,0
1,74,87,0
1,62,45,14
1,70,30,48
1,67,40,0
1,40,87,18
1,52,78,0
1,67,90,0
1,70,85,0
1,72,89,0
1,64,87,0
1,64,45,18
1,67,63,26
1,64,73,6
1,67,78,0
1,70,78,0
1,72,86,0
1,64,44,6
1,67,63,2
1,41,82,22
1,53,70,0
1,60,89,0
1,65,82,0
1,69,83,0
1,72,62,0
1,71,62,0
1,39,82,4
1,51,82,0
1,69,84,0
1,60,77,0
1,63,93,0
1,65,89,0
1,60,70,14
1,63,56,48
1,65,60,34
1,69,60,0
1,65,59,18
1,62,57,0
1,70,61,0
1,34,70,0
1,46,65,0
1,62,46,18
1,65,52,26
1,70,58,14
1,74,79,0
1,62,48,34
1,64,65,2
1,67,70,2
1,72,72,0
1,76,74,0
1,36,70,0
1,48,82,0
1,64,50,40
1,72,71,16
1,76,71,0
1,64,46,30
1,67,53,8
1,63,53,14
1,72,83,0
1,39,71,0
1,51,67,0
1,75,75,0
1,70,51,0
1,63,48,12
1,70,53,10
1,72,78,0
1,75,70,0
1,63,47,22
1,67,70,14
1,38,77,28
1,50,71,0
1,69,82,0
1,74,83,0
1,62,61,96
1,67,54,2
1,54,68,6
1,42,71,0
1,66,66,0
1,62,55,18
1,66,58,30
1,62,65,0
1,43,63,8
1,67,84,0
1,74,73,0
1,55,50,0
1,70,82,0
1,62,25,16
1,67,59,20
1,70,55,30
1,67,50,16
1,62,60,20
1,64,83,30
1,69,76,0
1,45,66,0
1,57,52,184
1,61,55,0
1,57,55,0
1,62,68,0
1,50,49,10
1,67,70,0
1,69,63,0
1,64,63,192
1,66,51,72
1,66,52,2
1,38,78,0
1,69,70,0
1,48,76,18
1,64,65,0
1,67,59,0
1,55,57,0
1,36,89,46
1,60,83,0
1,41,45,0
1,53,51,0
1,57,45,0
1,60,47,0
1,65,51,0
1,69,41,0
1,57,32,0
1,57,45,48
1,60,49,0
1,65,44,0
1,69,42,0
1,57,25,46
1,60,34,50
1,65,23,0
1,57,53,18
1,60,55,0
1,65,52,0
1,69,55,0
1,57,35,50
1,57,54,62
1,60,56,0
1,65,50,0
1,69,55,0
1,57,29,4
1,41,57,74
1,53,56,0
1,57,52,0
1,64,60,0
1,69,55,0
1,60,58,4
1,57,26,60
1,57,45,66
1,69,38,0
1,60,42,4
1,64,52,0
1,57,22,58
1,57,33,70
1,60,40,2
1,64,49,0
1,69,33,0
1,57,11,68
1,57,32,54
1,60,44,0
1,64,59,0
1,69,46,0
1,57,39,66
1,41,62,68
1,53,59,4
1,57,62,0
1,60,63,0
1,62,67,0
1,69,44,0
1,57,19,70
1,69,45,12
1,57,21,4
1,62,57,0
1,60,57,2
1,57,23,48
1,60,60,92
1,63,51,0
1,69,46,4
1,57,10,0
1,57,45,16
1,60,62,2
1,69,50,0
1,63,51,4
1,53,35,96
1,58,44,20
1,62,56,18
1,34,52,2
1,46,43,0
1,65,50,8
1,53,26,54
1,53,22,70
1,65,34,0
