track,note,velocity,time
1,76,100,17280
1,76,100,128
1,71,100,64
1,69,100,64
1,67,100,64
1,69,100,64
1,67,100,64
1,71,100,64
1,62,100,64
1,76,100,960
1,76,100,128
1,71,100,64
1,69,100,64
1,67,100,64
1,69,100,64
1,67,100,64
1,71,100,64
1,62,100,64
1,76,100,960
1,76,100,64
1,76,100,32
1,76,100,32
1,76,100,64
1,76,100,256
1,76,100,64
1,76,100,64
1,76,100,64
1,71,100,64
1,76,100,832
1,74,100,64
1,76,100,64
1,71,100,64
1,69,100,64
1,67,100,64
1,69,100,64
1,67,100,64
1,71,100,64
1,62,100,64
1,74,100,448
1,76,100,128
1,76,100,128
1,69,100,320
1,69,100,64
1,67,100,64
1,69,100,64
1,69,100,64
1,67,100,64
1,71,100,64
1,76,100,576
1,76,100,128
1,71,100,320
1,71,100,64
1,67,100,64
1,69,100,64
1,69,100,64
1,67,100,64
1,69,100,64
1,67,100,32
1,71,100,32
1,76,100,512
1,76,100,128
1,71,100,64
1,69,100,64
1,67,100,64
1,67,100,64
1,67,100,64
1,71,100,64
1,62,100,128
1,79,100,1216
1,79,100,64
1,79,100,64
1,79,100,64
1,79,100,64
1,76,100,64
1,74,100,64
1,76,100,64
1,79,100,768
1,79,100,64
1,76,100,64
1,79,100,64
1,79,100,64
1,76,100,256
1,79,100,64
1,79,100,64
1,76,100,128
1,74,100,64
1,79,100,64
1,76,100,192
1,74,100,32
1,76,100,32
1,74,100,1920
1,76,100,64
1,74,100,64
1,76,100,448
1,74,100,64
1,76,100,64
1,71,100,64
1,69,100,64
1,67,100,64
1,69,100,64
1,69,100,64
1,67,100,64
1,71,100,64
1,62,100,64
1,74,100,832
1,76,100,64
1,76,100,64
1,76,100,64
1,71,100,128
1,71,100,64
1,69,100,64
1,67,100,64
1,71,100,64
1,62,100,64
1,76,100,896
1,76,100,64
1,76,100,64
1,76,100,64
1,74,100,64
1,76,100,64
1,76,100,64
1,76,100,64
1,76,100,64
1,76,100,64
1,69,100,64
1,71,100,64
1,69,100,64
1,76,100,640
1,76,100,64
1,76,100,64
1,76,100,64
1,71,100,64
1,69,100,64
1,67,100,64
1,69,100,64
1,67,100,64
1,69,100,64
1,71,100,64
1,74,100,256
1,74,100,64
1,79,100,256
1,79,100,128
1,76,100,320
1,76,100,64
1,74,100,64
1,76,100,64
1,76,100,64
1,79,100,64
1,76,100,64
1,79,100,576
1,79,100,128
1,79,100,64
1,79,100,256
1,76,100,96
1,76,100,96
1,76,100,64
1,79,100,64
1,76,100,64
1,79,100,576
1,79,100,128
1,79,100,64
1,79,100,256
1,74,100,128
1,76,100,64
1,74,100,64
1,76,100,64
1,71,100,128
1,81,100,9344
1,76,100,64
1,79,100,448
1,79,100,128
1,76,100,64
1,76,100,64
1,75,100,64
1,76,100,64
1,76,100,64
1,79,100,64
1,76,100,64
1,79,100,960
1,79,100,128
1,76,100,64
1,76,100,64
1,76,100,64
1,76,100,64
1,74,100,64
1,76,100,64
1,71,100,64
1,79,100,1216
1,79,100,64
1,79,100,32
1,79,100,32
1,79,100,64
1,79,100,256
1,79,100,64
1,76,100,64
1,79,100,64
1,76,100,64
1,79,100,960
1,76,100,64
1,79,100,64
1,76,100,128
1,76,100,256
1,74,100,64
1,76,100,64
1,74,100,160
1,76,100,32
1,76,100,64
1,79,100,64
1,81,100,64
1,83,100,64
1,76,100,128
1,79,100,1856
1,79,100,64
1,76,100,64
1,79,100,64
1,76,100,128
1,79,100,1856
1,79,100,64
1,76,100,64
1,79,100,64
1,76,100,128
1,79,100,256
1,76,100,128
1,79,100,256
1,76,100,128
1,79,100,256
1,76,100,128
1,79,100,256
1,76,100,128
1,79,100,256
1,76,100,128
1,79,100,256
1,76,100,128
1,76,100,256
1,76,100,64
1,79,100,64
1,81,100,64
1,83,100,64
1,76,100,128
2,52,100,1536
2,59,100,0
2,64,100,0
2,52,100,128
2,59,100,0
2,64,100,0
2,52,100,64
2,52,100,32
2,52,100,32
2,54,100,64
2,55,100,64
2,57,100,64
2,60,100,64
2,64,100,64
2,67,100,64
2,62,100,128
2,69,100,64
2,74,100,64
2,52,100,256
2,64,100,0
2,71,100,0
2,52,100,128
2,52,100,96
2,52,100,32
2,54,100,64
2,55,100,64
2,57,100,64
2,60,100,64
2,64,100,64
2,67,100,64
2,62,100,128
2,69,100,64
2,74,100,64
2,86,100,256
2,86,100,128
2,86,100,384
2,86,100,192
2,86,100,32
2,86,100,192
2,86,100,64
2,64,100,508
2,67,100,32
2,69,100,32
2,71,100,32
2,74,100,32
2,76,100,32
2,79,100,32
2,81,100,32
2,81,100,32
2,81,100,96
2,81,100,96
2,81,100,64
2,81,100,128
2,81,100,32
2,79,100,96
2,71,100,256
2,67,100,0
2,52,100,11260
2,59,100,0
2,64,100,0
2,52,100,128
2,59,100,0
2,64,100,0
2,52,100,64
2,52,100,32
2,52,100,32
2,54,100,64
2,55,100,64
2,57,100,64
2,60,100,64
2,64,100,64
2,67,100,64
2,62,100,128
2,69,100,64
2,74,100,64
2,52,100,256
2,59,100,0
2,64,100,0
2,52,100,128
2,59,100,0
2,64,100,0
2,52,100,64
2,52,100,32
2,52,100,32
2,54,100,64
2,55,100,64
2,57,100,64
2,60,100,64
2,64,100,64
2,67,100,64
2,62,100,128
2,69,100,64
2,74,100,64
2,52,100,256
2,59,100,0
2,64,100,0
2,52,100,128
2,59,100,0
2,64,100,0
2,52,100,64
2,52,100,32
2,52,100,32
2,54,100,64
2,55,100,64
2,57,100,64
2,60,100,64
2,64,100,64
2,67,100,64
2,62,100,128
2,69,100,64
2,74,100,64
2,86,100,256
2,86,100,128
2,86,100,384
2,86,100,192
2,86,100,32
2,86,100,192
2,86,100,64
2,81,100,508
2,81,100,64
2,79,100,64
2,81,100,64
2,81,100,256
2,79,100,128
2,76,100,128
2,71,100,0
2,67,100,0
2,52,100,11260
2,59,100,0
2,64,100,0
2,52,100,128
2,59,100,0
2,64,100,0
2,52,100,64
2,52,100,32
2,52,100,32
2,54,100,64
2,55,100,64
2,57,100,64
2,60,100,64
2,64,100,64
2,67,100,64
2,62,100,128
2,69,100,64
2,74,100,64
2,52,100,256
2,59,100,0
2,64,100,0
2,52,100,128
2,59,100,0
2,64,100,0
2,52,100,64
2,52,100,32
2,52,100,32
2,54,100,64
2,55,100,64
2,57,100,64
2,60,100,64
2,64,100,64
2,67,100,64
2,62,100,128
2,69,100,64
2,74,100,64
2,52,100,256
2,59,100,0
2,64,100,0
2,52,100,128
2,59,100,0
2,64,100,0
2,52,100,64
2,52,100,32
2,52,100,32
2,54,100,64
2,55,100,64
2,57,100,64
2,60,100,64
2,64,100,64
2,67,100,64
2,62,100,128
2,69,100,64
2,74,100,64
2,81,100,256
2,83,100,0
2,81,100,384
2,81,100,64
2,81,100,64
2,79,100,128
2,76,100,128
2,74,100,32
2,76,100,32
2,79,100,64
2,76,100,64
2,79,100,32
2,81,100,32
2,79,100,32
2,81,100,32
2,79,100,32
2,81,100,32
2,79,100,32
2,81,100,32
2,79,100,32
2,81,100,32
2,88,100,64
2,81,100,64
2,88,100,64
2,88,100,64
2,86,100,0
2,88,100,128
2,86,100,0
2,88,100,96
2,91,100,32
2,91,100,64
2,88,100,64
2,86,100,32
2,83,100,32
2,81,100,32
2,81,100,32
2,81,100,4348
2,81,100,64
2,79,100,64
2,76,100,128
2,81,100,1468
2,88,100,5884
2,86,100,0
2,88,100,128
2,86,100,0
2,88,100,128
2,86,100,0
2,86,100,128
2,83,100,128
2,81,100,128
2,79,100,64
2,81,100,64
2,81,100,128
2,81,100,128
2,81,100,128
2,81,100,128
2,81,100,128
2,81,100,128
2,79,100,64
2,76,100,64
2,74,100,64
3,52,100,1536
3,59,100,0
3,64,100,0
3,64,100,320
3,64,100,32
3,52,100,32
3,54,100,64
3,60,100,448
3,67,100,64
3,72,100,64
3,62,100,512
3,69,100,0
3,74,100,0
3,78,100,0
3,62,100,32
3,69,100,0
3,74,100,0
3,78,100,0
3,62,100,128
3,52,100,32
3,59,100,0
3,64,100,0
3,67,100,0
3,52,100,512
3,54,100,64
3,60,100,448
3,67,100,64
3,72,100,64
3,74,100,512
3,74,100,32
3,57,100,224
3,64,100,0
3,69,100,0
3,72,100,0
3,57,100,416
3,64,100,0
3,69,100,0
3,72,100,0
3,57,100,32
3,64,100,0
3,69,100,0
3,72,100,0
3,71,100,352
3,59,100,160
3,66,100,0
3,71,100,0
3,71,100,512
3,76,100,0
3,71,100,64
3,76,100,0
3,59,100,448
3,66,100,0
3,71,100,0
3,60,100,32
3,67,100,0
3,72,100,0
3,60,100,480
3,67,100,0
3,72,100,0
3,76,100,0
3,60,100,352
3,67,100,0
3,72,100,0
3,76,100,0
3,60,100,32
3,67,100,0
3,72,100,0
3,76,100,0
3,60,100,32
3,67,100,0
3,72,100,0
3,76,100,0
3,62,100,416
3,69,100,0
3,74,100,0
3,78,100,0
3,62,100,160
3,69,100,0
3,62,100,128
3,69,100,0
3,74,100,0
3,78,100,0
3,62,100,128
3,69,100,0
3,74,100,0
3,78,100,0
3,71,100,128
3,71,100,32
3,52,100,128
3,59,100,0
3,64,100,0
3,71,100,320
3,71,100,32
3,71,100,224
3,67,100,0
3,67,100,256
3,60,100,64
3,64,100,0
3,67,100,0
3,74,100,0
3,79,100,0
3,57,100,512
3,62,100,0
3,62,100,352
3,69,100,0
3,74,100,0
3,76,100,224
3,71,100,256
3,60,100,1024
3,67,100,256
3,62,100,256
3,74,100,256
3,76,100,256
3,71,100,256
3,60,100,1024
3,67,100,256
3,62,100,256
3,74,100,256
3,60,100,256
3,67,100,256
3,76,100,256
3,67,100,256
3,62,100,256
3,74,100,256
3,79,100,256
3,76,100,256
3,76,100,256
3,71,100,256
3,60,100,1024
3,67,100,256
3,62,100,256
3,74,100,256
3,52,100,256
3,59,100,0
3,64,100,0
3,64,100,320
3,64,100,32
3,52,100,32
3,54,100,64
3,60,100,448
3,67,100,64
3,72,100,64
3,62,100,512
3,69,100,0
3,74,100,0
3,78,100,0
3,62,100,32
3,69,100,0
3,74,100,0
3,78,100,0
3,62,100,128
3,52,100,32
3,59,100,0
3,64,100,0
3,64,100,320
3,64,100,32
3,52,100,32
3,54,100,64
3,60,100,448
3,67,100,64
3,72,100,64
3,62,100,512
3,69,100,0
3,74,100,0
3,78,100,0
3,62,100,32
3,69,100,0
3,74,100,0
3,78,100,0
3,62,100,128
3,52,100,32
3,59,100,0
3,64,100,0
3,64,100,320
3,64,100,32
3,52,100,32
3,54,100,64
3,60,100,448
3,67,100,64
3,72,100,64
3,62,100,512
3,69,100,0
3,74,100,0
3,78,100,0
3,62,100,32
3,69,100,0
3,74,100,0
3,78,100,0
3,62,100,128
3,57,100,32
3,64,100,0
3,69,100,0
3,72,100,0
3,57,100,416
3,64,100,0
3,69,100,0
3,72,100,0
3,57,100,32
3,64,100,0
3,69,100,0
3,72,100,0
3,71,100,352
3,59,100,160
3,66,100,0
3,71,100,0
3,71,100,512
3,76,100,0
3,71,100,64
3,76,100,0
3,59,100,448
3,66,100,0
3,71,100,0
3,60,100,32
3,67,100,0
3,72,100,0
3,60,100,480
3,67,100,0
3,72,100,0
3,76,100,0
3,60,100,352
3,67,100,0
3,72,100,0
3,76,100,0
3,60,100,32
3,67,100,0
3,72,100,0
3,76,100,0
3,60,100,32
3,67,100,0
3,72,100,0
3,76,100,0
3,62,100,416
3,69,100,0
3,74,100,0
3,78,100,0
3,62,100,160
3,69,100,0
3,62,100,128
3,69,100,0
3,74,100,0
3,78,100,0
3,62,100,128
3,69,100,0
3,74,100,0
3,78,100,0
3,71,100,128
3,71,100,32
3,52,100,128
3,59,100,0
3,64,100,0
3,71,100,320
3,71,100,32
3,71,100,224
3,67,100,0
3,67,100,256
3,60,100,64
3,64,100,0
3,67,100,0
3,74,100,0
3,79,100,0
3,57,100,512
3,62,100,0
3,62,100,352
3,69,100,0
3,74,100,0
3,76,100,224
3,71,100,256
3,60,100,1024
3,67,100,256
3,62,100,256
3,74,100,256
3,76,100,256
3,71,100,256
3,60,100,1024
3,67,100,256
3,62,100,256
3,74,100,256
3,60,100,256
3,67,100,256
3,76,100,256
3,67,100,256
3,62,100,256
3,74,100,256
3,79,100,256
3,76,100,256
3,76,100,256
3,71,100,256
3,60,100,1024
3,67,100,256
3,62,100,256
3,74,100,256
3,52,100,256
3,59,100,0
3,64,100,0
3,64,100,320
3,64,100,32
3,52,100,32
3,54,100,64
3,60,100,448
3,67,100,64
3,72,100,64
3,62,100,512
3,69,100,0
3,74,100,0
3,78,100,0
3,62,100,32
3,69,100,0
3,74,100,0
3,78,100,0
3,62,100,128
3,52,100,32
3,59,100,0
3,64,100,0
3,64,100,320
3,64,100,32
3,52,100,32
3,54,100,64
3,60,100,448
3,67,100,64
3,72,100,64
3,62,100,512
3,69,100,0
3,74,100,0
3,78,100,0
3,62,100,32
3,69,100,0
3,74,100,0
3,78,100,0
3,62,100,128
3,52,100,32
3,59,100,0
3,64,100,0
3,64,100,320
3,64,100,32
3,52,100,32
3,54,100,64
3,60,100,448
3,67,100,64
3,72,100,64
3,62,100,512
3,69,100,0
3,74,100,0
3,78,100,0
3,62,100,32
3,69,100,0
3,74,100,0
3,78,100,0
3,62,100,128
3,57,100,32
3,64,100,0
3,69,100,0
3,72,100,0
3,57,100,416
3,64,100,0
3,69,100,0
3,72,100,0
3,57,100,32
3,64,100,0
3,69,100,0
3,72,100,0
3,71,100,352
3,59,100,160
3,66,100,0
3,71,100,0
3,71,100,512
3,76,100,0
3,71,100,64
3,76,100,0
3,59,100,448
3,66,100,0
3,71,100,0
3,60,100,32
3,67,100,0
3,72,100,0
3,60,100,480
3,67,100,0
3,72,100,0
3,76,100,0
3,60,100,352
3,67,100,0
3,72,100,0
3,76,100,0
3,60,100,32
3,67,100,0
3,72,100,0
3,76,100,0
3,60,100,32
3,67,100,0
3,72,100,0
3,76,100,0
3,62,100,416
3,69,100,0
3,74,100,0
3,78,100,0
3,62,100,160
3,69,100,0
3,62,100,128
3,69,100,0
3,74,100,0
3,78,100,0
3,62,100,128
3,69,100,0
3,74,100,0
3,78,100,0
3,71,100,128
3,71,100,32
3,52,100,128
3,67,100,128
3,74,100,64
3,67,100,96
3,74,100,32
3,76,100,0
3,67,100,64
3,67,100,32
3,74,100,0
3,76,100,0
3,67,100,64
3,74,100,0
3,76,100,0
3,60,100,32
3,64,100,0
3,67,100,0
3,60,100,64
3,64,100,0
3,67,100,0
3,74,100,64
3,71,100,64
3,62,100,256
3,74,100,0
3,69,100,0
3,74,100,160
3,71,100,32
3,59,100,64
3,64,100,0
3,71,100,128
3,67,100,64
3,74,100,64
3,67,100,64
3,74,100,0
3,67,100,64
3,74,100,0
3,57,100,64
3,59,100,32
3,64,100,32
3,60,100,0
3,67,100,128
3,72,100,0
3,76,100,0
3,69,100,352
3,57,100,32
3,62,100,0
3,69,100,0
3,74,100,0
3,57,100,64
3,62,100,0
3,69,100,0
3,74,100,0
3,69,100,64
3,67,100,32
3,60,100,32
3,64,100,0
3,67,100,0
3,67,100,128
3,72,100,0
3,76,100,0
3,60,100,256
3,64,100,0
3,67,100,0
3,72,100,0
3,76,100,0
3,60,100,64
3,64,100,0
3,67,100,0
3,72,100,0
3,76,100,0
3,67,100,64
3,67,100,64
3,72,100,0
3,57,100,64
3,62,100,0
3,62,100,128
3,69,100,0
3,74,100,0
3,62,100,448
3,69,100,0
3,74,100,0
3,62,100,64
3,69,100,0
3,74,100,0
3,52,100,128
3,59,100,0
3,64,100,0
3,67,100,0
3,71,100,0
3,76,100,0
3,71,100,128
3,76,100,0
3,71,100,160
3,76,100,96
3,76,100,64
3,74,100,0
3,67,100,0
3,76,100,64
3,74,100,0
3,67,100,0
3,57,100,64
3,59,100,32
3,60,100,32
3,64,100,0
3,67,100,0
3,72,100,0
3,60,100,128
3,64,100,0
3,67,100,0
3,72,100,0
3,57,100,96
3,57,100,32
3,62,100,0
3,69,100,0
