track,note,velocity,time
0,57,121,511
0,57,122,0
0,57,126,0
0,56,126,1
0,55,126,1
0,54,40,0
0,54,126,0
0,54,33,0
0,53,126,0
0,52,126,0
0,51,126,1
0,50,126,1
0,49,126,0
0,48,126,1
0,47,108,2
0,47,112,0
0,47,116,0
0,59,118,24
0,59,122,0
0,59,112,0
0,59,118,4
0,59,122,0
0,59,114,1
0,57,100,0
0,57,104,0
0,54,87,0
0,54,91,0
0,54,82,0
0,57,111,23
0,57,115,0
0,57,106,0
0,59,115,2
0,59,116,0
0,59,120,0
0,57,104,1
0,57,108,0
0,57,103,1
0,54,106,0
0,54,110,0
0,54,102,1
0,50,94,1
0,50,98,0
0,50,94,1
0,54,112,0
0,54,116,0
0,54,113,2
0,50,102,2
0,50,106,0
0,50,87,0
0,50,116,0
0,50,120,0
0,50,109,1
0,47,107,1
0,47,116,0
0,47,120,0
0,59,116,1
0,59,120,0
0,59,116,1
0,59,118,1
0,59,122,0
0,59,118,1
0,57,104,1
0,54,111,4
0,54,115,0
0,54,110,2
0,50,121,23
0,50,125,0
0,57,114,1
0,57,115,0
0,45,110,0
0,57,118,0
0,50,118,1
0,62,112,1
0,35,114,0
0,38,100,0
0,40,110,0
0,49,75,0
0,62,116,0
0,62,92,0
0,57,99,2
0,38,109,1
0,59,104,0
0,47,99,0
0,56,99,0
0,44,94,0
0,59,105,0
0,47,100,0
0,58,100,1
0,46,95,0
0,52,118,2
0,59,117,2
0,52,124,0
0,35,114,0
0,38,110,0
0,40,120,0
0,57,90,0
0,52,127,0
0,59,118,0
0,59,122,0
0,64,116,1
0,40,105,0
0,64,114,0
0,64,118,0
0,47,106,1
0,35,115,0
0,49,100,0
0,35,105,0
0,47,124,1
0,47,127,0
0,59,118,0
0,59,116,1
0,59,120,0
0,59,116,23
0,59,114,0
0,59,118,0
0,57,100,0
0,57,104,0
0,57,100,0
0,54,102,2
0,54,93,1
0,54,97,0
0,57,107,0
0,57,106,0
0,57,110,0
0,59,116,1
0,59,115,0
0,59,119,0
0,57,100,1
0,57,107,1
0,57,111,0
0,54,105,1
0,54,108,0
0,54,112,0
0,50,60,1
0,50,71,1
0,50,75,0
0,54,114,1
0,54,112,0
0,54,116,0
0,50,96,1
0,50,104,1
0,50,108,0
0,50,111,0
0,50,117,1
0,50,121,0
0,47,116,1
0,47,120,1
0,47,124,0
0,59,116,10
0,59,118,0
0,59,122,0
0,59,120,1
0,59,116,0
0,59,120,0
0,57,111,2
0,57,115,0
0,54,113,1
0,54,113,1
0,54,117,0
0,50,126,10
0,50,119,2
0,50,123,0
0,57,105,1
0,57,88,0
0,57,92,0
0,62,111,1
0,57,105,0
0,62,104,0
0,45,100,0
0,50,99,0
0,62,112,1
0,66,100,0
0,54,95,0
0,62,116,0
0,35,114,1
0,38,97,0
0,40,107,0
0,49,97,0
0,38,102,1
0,52,118,8
0,40,108,0
0,52,120,0
0,35,113,0
0,38,108,0
0,40,118,0
0,57,92,0
0,52,124,0
0,59,110,1
0,59,108,0
0,59,103,0
0,47,98,0
0,59,112,0
0,64,116,1
0,64,99,0
0,68,101,0
0,52,94,0
0,56,96,0
0,64,114,1
0,64,118,0
0,48,34,61
0,47,75,1
0,45,90,5
0,35,107,2
0,49,103,0
0,47,122,1
0,54,105,0
0,42,100,0
0,35,119,0
0,47,118,0
0,59,103,0
0,47,98,0
0,47,122,0
0,66,99,1
0,54,94,0
0,59,118,48
0,59,118,0
0,59,122,0
0,38,64,3
0,40,74,0
0,59,114,1
0,59,118,0
0,59,120,1
0,38,46,0
0,40,56,0
0,57,101,0
0,56,102,0
0,56,106,0
0,54,99,0
0,54,103,0
0,54,103,5
0,38,60,3
0,40,70,0
0,57,106,1
0,57,110,0
0,57,107,4
0,38,53,1
0,40,63,0
0,59,116,5
0,59,120,0
0,59,118,0
0,38,69,0
0,40,79,0
0,57,103,0
0,57,107,0
0,57,107,0
0,38,59,0
0,40,69,0
0,54,106,0
0,54,110,0
0,54,112,3
0,38,75,1
0,40,85,0
0,50,94,0
0,50,98,0
0,50,59,3
0,38,65,1
0,40,75,0
0,54,112,2
0,54,116,0
0,54,116,3
0,38,83,1
0,40,93,0
0,50,99,0
0,50,103,0
0,50,103,3
0,38,69,2
0,40,79,0
0,50,114,0
0,50,118,0
0,50,111,2
0,38,86,3
0,40,96,0
0,38,67,1
0,40,77,0
0,47,120,0
0,47,124,0
0,47,124,0
0,38,83,0
0,40,93,0
0,38,45,3
0,40,55,0
0,38,69,11
0,40,79,0
0,38,55,1
0,40,65,0
0,59,116,2
0,59,120,0
0,59,120,1
0,38,75,1
0,40,85,0
0,38,48,11
0,40,58,0
0,38,72,2
0,40,82,0
0,38,65,11
0,40,75,0
0,59,114,6
0,59,118,0
0,59,120,3
0,38,80,0
0,40,90,0
0,38,48,0
0,40,58,0
0,57,114,0
0,57,118,0
0,38,72,6
0,40,82,0
0,38,63,11
0,40,73,0
0,54,114,1
0,54,118,0
0,54,115,1
0,38,83,1
0,40,93,0
0,38,52,1
0,40,62,0
0,38,78,0
0,40,88,0
0,38,71,11
0,40,81,0
0,50,123,2
0,50,124,0
0,62,86,0
0,50,81,0
0,50,127,0
0,57,100,1
0,45,95,0
0,38,103,1
0,66,80,0
0,54,75,0
0,38,83,0
0,40,93,0
0,57,108,0
0,62,110,0
0,62,114,0
0,45,93,0
0,62,116,1
0,57,93,2
0,57,97,0
0,38,47,7
0,40,57,0
0,38,73,11
0,40,83,0
0,38,60,11
0,40,70,0
0,38,83,11
0,40,93,0
0,38,51,11
0,40,61,0
0,38,81,11
0,40,91,0
0,38,69,4
0,40,79,0
0,40,109,2
0,38,94,1
0,40,104,0
0,47,100,1
0,59,105,0
0,47,100,0
0,52,124,1
0,64,104,0
0,68,98,0
0,52,99,0
0,56,93,0
0,59,121,1
0,52,120,0
0,59,115,0
0,52,124,0
0,59,119,0
0,64,112,1
0,64,116,0
0,64,110,1
0,38,52,6
0,40,62,0
0,38,80,11
0,40,90,0
0,38,67,11
0,40,77,0
0,38,100,11
0,40,110,0
0,38,56,11
0,40,66,0
0,38,92,2
0,40,102,0
0,38,75,2
0,40,85,0
0,49,115,0
0,42,118,0
0,35,112,0
0,30,127,0
0,54,106,0
0,57,88,0
0,42,114,0
0,54,108,2
0,49,110,1
0,30,127,2
0,49,116,0
0,38,102,0
0,40,112,0
0,49,88,0
0,49,118,0
0,54,112,0
0,54,95,1
0,57,70,0
0,42,100,0
0,59,120,0
0,47,115,0
0,35,108,0
0,61,100,0
0,35,110,1
0,42,99,5
0,38,102,0
0,40,112,0
0,49,82,0
0,42,99,9
0,35,115,2
0,59,119,5
0,47,114,0
0,61,99,0
0,57,62,2
0,40,100,4
0,35,107,0
0,38,91,3
0,40,101,0
0,49,76,0
0,35,111,0
0,35,110,2
0,57,73,0
0,39,105,0
0,38,106,11
0,40,116,0
0,49,84,1
0,38,101,0
0,35,114,20
0,57,70,0
0,54,110,0
0,30,93,0
0,42,115,1
0,49,111,1
0,49,112,0
0,42,108,1
0,54,107,0
0,49,114,5
0,30,93,1
0,38,104,0
0,40,114,0
0,49,84,0
0,54,110,1
0,42,113,0
0,49,113,0
0,54,91,2
0,59,119,3
0,47,114,0
0,61,99,0
0,35,105,2
0,42,101,0
0,57,73,0
0,35,110,1
0,38,94,2
0,40,104,0
0,49,80,0
0,42,94,0
0,42,94,3
0,35,114,1
0,59,120,3
0,47,115,0
0,61,100,0
0,57,68,2
0,40,100,2
0,35,108,0
0,40,88,5
0,38,100,1
0,40,110,0
0,49,78,1
0,35,114,5
0,30,105,2
0,35,108,1
0,57,71,0
0,54,127,1
0,42,116,1
0,64,109,0
0,33,99,1
0,45,111,0
0,57,120,0
0,62,107,0
0,38,108,2
0,40,118,0
0,49,78,0
0,35,109,0
0,54,110,0
0,35,112,0
0,57,88,0
0,47,111,1
0,59,113,1
0,47,113,1
0,54,108,3
0,59,91,3
0,54,112,1
0,35,95,0
0,54,112,1
0,38,102,0
0,40,112,0
0,49,88,0
0,47,119,0
0,47,112,1
0,59,113,0
0,64,115,3
0,52,110,0
0,66,93,0
0,47,107,0
0,57,70,1
0,35,108,0
0,35,110,3
0,47,107,1
0,38,102,1
0,40,112,0
0,49,82,0
0,47,98,8
0,35,115,0
0,64,116,1
0,52,111,0
0,66,95,0
0,57,62,1
0,46,92,5
0,35,107,2
0,45,96,3
0,38,91,1
0,40,101,0
0,49,76,0
0,35,111,8
0,44,91,3
0,35,110,3
0,57,73,0
0,43,103,8
0,38,106,2
0,40,116,0
0,49,84,1
0,77,70,3
0,35,94,3
0,35,114,2
0,57,70,0
0,54,104,0
0,47,113,4
0,59,109,2
0,47,112,0
0,59,107,2
0,54,108,1
0,47,112,1
0,35,101,2
0,54,110,0
0,38,104,0
0,40,114,0
0,49,84,0
0,54,112,0
0,59,110,0
0,47,114,1
0,59,109,1
0,35,105,0
0,47,105,0
0,57,73,0
0,65,115,0
0,53,110,0
0,66,92,0
0,35,110,2
0,38,94,1
0,40,104,0
0,49,80,0
0,47,100,1
0,62,118,1
0,50,113,0
0,59,100,0
0,47,95,0
0,47,91,3
0,35,114,0
0,64,118,3
0,52,113,0
0,64,97,0
0,35,108,0
0,52,68,0
0,46,88,2
0,38,83,2
0,40,93,0
0,62,116,3
0,50,111,0
0,62,94,0
0,45,91,2
0,38,98,0
0,40,108,0
0,35,114,0
0,44,85,0
0,38,112,3
0,40,122,0
0,66,118,0
0,47,121,1
0,35,113,2
0,59,121,2
0,35,108,0
0,44,78,0
0,63,90,0
0,57,115,1
0,45,120,1
0,61,91,1
0,33,81,1
0,38,102,1
0,40,112,0
0,35,114,0
0,44,85,0
0,38,112,0
0,40,122,0
0,49,115,0
0,42,118,0
0,35,112,0
0,30,105,0
0,54,106,0
0,46,82,0
0,42,114,0
0,54,108,2
0,49,110,1
0,34,100,63
0,49,100,0
0,30,116,1
0,49,116,0
0,38,102,0
0,40,112,0
0,42,109,0
0,49,118,0
0,54,112,0
0,54,95,0
0,66,118,0
0,35,108,5
0,42,91,0
0,35,110,4
0,64,91,15
0,38,102,2
0,40,112,0
0,42,103,0
0,66,110,10
0,35,115,0
0,42,83,20
0,35,107,7
0,38,60,4
0,40,70,0
0,38,91,1
0,40,101,0
0,44,97,0
0,35,111,10
0,42,94,5
0,64,97,0
0,66,110,1
0,38,60,3
0,40,70,0
0,38,106,1
0,40,116,0
0,44,105,0
0,35,112,9
0,46,85,0
0,30,111,0
0,54,110,0
0,42,115,2
0,49,111,1
0,49,112,0
0,42,108,1
0,54,107,2
0,49,106,4
0,34,106,0
0,49,114,2
0,38,104,1
0,40,114,0
0,42,105,0
0,30,115,0
0,54,110,1
0,42,113,0
0,49,113,0
0,54,91,2
0,69,110,0
0,35,105,2
0,42,94,0
0,35,110,4
0,68,116,14
0,38,94,2
0,40,104,0
0,42,101,0
0,66,104,1
0,35,114,1
0,42,89,8
0,35,108,1
0,38,60,3
0,40,70,0
0,38,100,0
0,40,110,0
0,44,99,0
0,35,114,5
0,64,121,4
0,68,97,2
0,42,92,0
0,30,109,0
0,42,119,2
0,62,125,1
0,66,98,0
0,33,113,1
0,45,112,1
0,38,60,0
0,40,70,0
0,38,108,1
0,40,118,0
0,44,99,0
0,54,110,1
0,35,112,0
0,35,101,0
0,46,82,0
0,47,111,1
0,59,113,1
0,47,113,1
0,54,108,3
0,59,91,3
0,49,97,5
0,34,97,0
0,54,112,1
0,35,114,1
0,54,112,0
0,38,102,0
0,40,112,0
0,42,109,0
0,47,119,0
0,47,112,1
0,59,113,0
0,66,112,2
0,35,108,2
0,42,91,0
0,35,110,1
0,64,88,2
0,38,102,4
0,40,112,0
0,42,103,0
0,66,110,9
0,35,115,0
0,42,83,23
0,35,107,4
0,38,60,6
0,40,70,0
0,38,91,1
0,40,101,0
0,44,97,0
0,35,111,3
0,64,98,5
0,42,94,3
0,64,89,2
0,66,106,5
0,38,60,0
0,40,70,0
0,38,106,1
0,40,116,0
0,44,105,0
0,77,70,5
0,35,112,4
0,35,117,0
0,46,85,0
0,54,104,0
0,47,113,4
0,54,108,2
0,59,109,0
0,47,112,0
0,59,107,0
0,49,91,4
0,34,91,0
0,47,112,0
0,54,110,2
0,35,117,1
0,38,104,0
0,40,114,0
0,42,105,0
0,54,112,1
0,59,110,0
0,47,114,1
0,59,109,1
0,35,105,1
0,42,94,0
0,35,110,3
0,38,94,14
0,40,104,0
0,42,101,0
0,35,114,4
0,42,89,10
0,35,108,8
0,38,60,6
0,40,70,0
0,38,100,1
0,40,110,0
0,44,99,0
0,35,114,7
0,47,125,1
0,59,127,1
0,62,96,2
0,42,92,0
0,35,115,0
0,45,116,2
0,57,127,1
0,33,110,1
0,61,104,0
0,38,60,0
0,40,70,0
0,38,108,0
0,40,118,0
0,44,99,0
0,49,115,2
0,42,118,0
0,35,112,0
0,54,106,0
0,46,82,0
0,42,114,0
0,30,115,0
0,54,108,2
0,49,110,1
0,49,103,1
0,34,103,0
0,66,103,2
0,30,109,2
0,49,116,0
0,38,102,0
0,40,112,0
0,42,109,0
0,49,118,0
0,54,112,0
0,54,95,1
0,66,104,1
0,35,108,3
0,42,91,0
0,35,110,3
0,64,94,1
0,38,102,27
0,40,112,0
0,42,103,0
0,66,104,36
0,35,115,0
0,42,83,2
0,64,91,3
0,35,107,1
0,38,60,4
0,40,70,0
0,38,91,1
0,40,101,0
0,44,97,0
0,66,103,9
0,35,111,5
0,42,94,5
0,66,98,3
0,38,60,2
0,40,70,0
0,38,106,1
0,40,116,0
0,44,105,0
0,30,109,7
0,35,112,0
0,46,85,0
0,54,110,0
0,42,115,2
0,49,111,1
0,49,112,0
0,42,108,1
0,54,107,2
0,49,100,3
0,34,100,0
0,49,114,1
0,38,104,0
0,40,114,0
0,42,105,0
0,30,111,0
0,54,110,2
0,42,113,0
0,49,113,0
0,54,91,2
0,69,109,2
0,35,105,1
0,42,94,0
0,35,110,4
0,38,94,2
0,40,104,0
0,42,101,0
0,68,70,3
0,35,114,11
0,66,107,0
0,42,89,3
0,35,108,1
0,38,60,7
0,40,70,0
0,38,100,1
0,40,110,0
0,44,99,0
0,35,114,3
0,64,121,4
0,30,111,2
0,68,97,0
0,42,92,0
0,42,119,0
0,62,125,1
0,66,98,0
0,33,111,1
0,45,115,1
0,38,60,1
0,40,70,0
0,38,108,1
0,40,118,0
0,44,99,0
0,54,110,0
0,35,112,0
0,35,105,0
0,46,82,0
0,47,111,1
0,59,113,1
0,47,113,1
0,54,108,3
0,59,91,3
0,49,100,8
0,34,100,0
0,69,103,0
0,54,112,1
0,35,117,1
0,54,112,0
0,38,102,0
0,40,112,0
0,42,109,0
0,47,119,0
0,47,112,1
0,59,113,0
0,66,112,1
0,35,108,0
0,42,91,0
0,35,110,1
0,66,114,10
0,38,102,4
0,40,112,0
0,42,103,0
0,35,115,0
0,64,97,1
0,42,83,3
0,66,116,1
0,35,107,0
0,38,60,6
0,40,70,0
0,38,91,1
0,40,101,0
0,44,97,0
0,69,110,10
0,35,111,2
0,42,94,1
0,38,60,5
0,40,70,0
0,38,106,1
0,40,116,0
0,44,105,0
0,77,70,5
0,35,112,4
0,35,117,0
0,46,85,0
0,54,104,0
0,47,113,4
0,54,108,1
0,59,109,1
0,47,112,0
0,59,107,2
0,49,85,12
0,34,85,0
0,47,112,1
0,54,110,2
0,35,117,1
0,38,104,0
0,40,114,0
0,42,105,0
0,54,112,1
0,59,110,0
0,47,114,1
0,59,109,1
0,35,105,5
0,42,94,0
0,71,112,1
0,71,112,0
0,35,110,3
0,69,114,1
0,69,114,0
0,38,94,8
0,40,104,0
0,42,101,0
0,66,104,2
0,66,104,0
0,65,106,9
0,65,106,0
0,35,114,3
0,64,106,9
0,64,106,0
0,38,58,3
0,40,68,0
0,44,89,0
0,63,96,3
0,63,96,0
0,38,80,5
0,40,90,0
0,62,117,5
0,62,117,0
0,45,87,0
0,35,108,0
