track,note,velocity,time
0,35,107,0
0,38,42,80
0,40,40,0
0,38,95,16
0,40,93,0
0,38,42,80
0,40,40,0
0,38,110,16
0,40,108,0
0,35,96,96
0,38,42,80
0,40,40,0
0,38,103,0
0,40,101,0
0,38,42,80
0,40,40,0
0,38,103,16
0,40,101,0
0,38,88,96
0,40,86,0
0,35,98,96
0,43,74,0
0,43,98,0
0,35,96,96
0,41,109,0
0,41,106,0
0,35,106,96
0,38,42,80
0,40,40,0
0,38,103,16
0,40,101,0
0,38,42,80
0,40,40,0
0,38,101,16
0,40,99,0
0,35,99,96
0,38,42,80
0,40,40,0
0,38,99,0
0,40,97,0
0,38,42,80
0,40,40,0
0,38,101,16
0,40,99,0
0,38,90,96
0,40,88,0
0,35,101,96
0,38,90,0
0,40,88,0
0,38,46,48
0,40,44,0
0,38,80,0
0,40,78,0
0,38,62,0
0,40,60,0
0,35,99,48
0,38,100,0
0,40,98,0
0,38,48,0
0,40,46,0
0,38,84,0
0,40,82,0
0,38,68,0
0,40,66,0
0,55,96,0
0,56,100,0
0,35,107,0
0,38,42,80
0,40,40,0
0,38,95,16
0,40,93,0
0,38,42,4
0,40,40,0
0,55,86,0
0,55,93,0
0,38,110,0
0,40,108,0
0,35,96,96
0,38,42,80
0,40,40,0
0,38,103,0
0,40,101,0
0,55,87,0
0,55,95,0
0,38,42,80
0,40,40,0
0,38,103,16
0,40,101,0
0,38,88,96
0,40,86,0
0,55,87,0
0,55,98,0
0,35,98,0
0,43,73,0
0,43,97,0
0,35,96,96
0,41,110,0
0,41,108,0
0,55,88,0
0,55,101,0
0,35,106,0
0,38,42,80
0,40,40,0
0,38,103,16
0,40,101,0
0,38,42,16
0,40,40,0
0,55,85,0
0,55,96,0
0,38,101,0
0,40,99,0
0,35,99,96
0,38,42,80
0,40,40,0
0,38,99,0
0,40,97,0
0,55,85,0
0,55,94,0
0,38,42,80
0,40,40,0
0,38,101,16
0,40,99,0
0,38,90,96
0,40,88,0
0,55,86,0
0,55,93,0
0,35,101,0
0,38,90,0
0,40,88,0
0,38,46,48
0,40,44,0
0,38,80,0
0,40,78,0
0,38,62,0
0,40,60,0
0,31,93,0
0,31,85,0
0,35,99,0
0,38,100,0
0,40,98,0
0,38,48,0
0,40,46,0
0,32,102,20
0,32,93,0
0,38,84,0
0,40,82,0
0,38,68,0
0,40,66,0
0,55,87,20
0,56,100,0
0,33,110,0
0,33,100,0
0,59,91,0
0,47,94,0
0,35,107,0
0,38,42,80
0,40,40,0
0,38,95,16
0,40,93,0
0,38,42,0
0,40,40,0
0,55,89,0
0,55,93,0
0,59,91,0
0,47,94,0
0,38,110,0
0,40,108,0
0,35,96,24
0,38,42,80
0,40,40,0
0,38,103,0
0,40,101,0
0,55,80,0
0,55,95,0
0,59,89,0
0,47,93,0
0,38,42,80
0,40,40,0
0,38,103,16
0,40,101,0
0,38,88,96
0,40,86,0
0,55,79,0
0,55,98,0
0,59,88,0
0,47,91,0
0,35,98,0
0,43,73,0
0,43,99,0
0,35,106,0
0,35,96,0
0,35,96,0
0,41,112,0
0,41,109,0
0,55,85,0
0,55,101,0
0,33,112,0
0,33,101,0
0,62,90,0
0,50,93,0
0,35,106,0
0,38,42,80
0,40,40,0
0,38,103,16
0,40,101,0
0,38,42,12
0,40,40,0
0,55,84,0
0,55,96,0
0,62,94,0
0,50,97,0
0,38,101,0
0,40,99,0
0,55,77,20
0,55,94,0
0,63,94,0
0,63,86,0
0,65,94,0
0,53,97,0
0,35,99,0
0,38,83,0
0,40,81,0
0,63,84,12
0,63,77,0
0,38,42,0
0,40,40,0
0,63,84,0
0,38,75,0
0,40,73,0
0,61,82,48
0,61,75,0
0,38,59,0
0,40,57,0
0,61,82,4
0,61,75,0
0,35,98,0
0,38,96,0
0,40,94,0
0,61,81,12
0,61,74,0
0,38,46,0
0,40,44,0
0,60,84,8
0,60,77,0
0,38,83,0
0,40,81,0
0,60,84,20
0,58,82,0
0,58,75,0
0,38,68,0
0,40,66,0
0,55,85,0
0,55,93,0
0,58,81,0
0,58,74,0
0,65,93,0
0,53,96,0
0,35,104,0
0,38,98,0
0,40,96,0
0,57,83,8
0,57,76,0
0,38,46,0
0,40,44,0
0,57,78,8
0,57,72,0
0,38,81,0
0,40,79,0
0,56,77,8
0,56,71,0
0,38,64,0
0,40,62,0
0,56,77,12
0,56,71,0
0,35,100,0
0,38,104,0
0,40,102,0
0,55,73,12
0,54,68,0
0,55,67,0
0,54,63,0
0,38,50,0
0,40,48,0
0,53,67,28
0,53,62,0
0,38,89,0
0,40,87,0
0,53,59,16
0,53,55,0
0,38,73,0
0,40,71,0
0,45,99,8
0,45,109,0
0,33,106,0
0,33,96,0
0,64,89,0
0,52,93,0
0,35,106,0
0,57,104,0
0,45,85,4
0,45,96,0
0,33,91,0
0,33,83,0
0,64,86,0
0,52,89,0
0,43,96,0
0,43,107,0
0,31,107,0
0,31,97,0
0,62,91,0
0,50,94,0
0,38,103,0
0,40,101,0
0,42,106,0
0,40,79,4
0,40,88,0
0,28,73,0
0,28,67,0
0,60,71,0
0,48,75,0
0,45,98,12
0,45,101,0
0,33,112,0
0,33,101,0
0,64,88,0
0,52,91,0
0,38,101,0
0,40,99,0
0,42,121,0
0,35,99,44
0,38,99,0
0,40,97,0
0,42,102,0
0,48,95,96
0,48,102,0
0,36,103,0
0,36,93,0
0,64,93,0
0,52,96,0
0,38,101,0
0,40,99,0
0,42,118,0
0,38,90,96
0,40,88,0
0,47,99,0
0,47,103,0
0,35,111,0
0,35,100,0
0,62,93,0
0,50,96,0
0,35,101,0
0,38,80,0
0,40,78,0
0,45,100,16
0,45,95,0
0,33,98,0
0,33,89,0
0,60,74,0
0,48,78,0
0,35,99,0
0,43,110,0
0,43,49,48
0,43,72,0
0,38,77,28
0,40,75,0
0,53,103,48
0,60,91,0
0,53,108,0
0,60,93,0
0,29,104,0
0,29,94,0
0,65,93,0
0,53,96,0
0,35,107,0
0,49,100,0
0,65,43,48
0,38,95,96
0,40,93,0
0,42,109,0
0,65,89,0
0,60,83,0
0,65,81,0
0,60,82,0
0,65,90,0
0,53,93,0
0,31,87,36
0,31,80,0
0,53,108,8
0,60,96,0
0,65,94,0
0,60,102,0
0,53,103,0
0,65,92,0
0,41,103,0
0,41,93,0
0,65,92,0
0,53,95,0
0,38,110,0
0,40,108,0
0,42,121,0
0,35,96,96
0,38,103,0
0,40,101,0
0,42,112,0
0,62,44,16
0,59,28,0
0,50,49,0
0,47,34,0
0,35,102,24
0,35,106,0
0,38,42,8
0,40,40,0
0,38,103,0
0,40,101,0
0,35,107,16
0,38,69,0
0,38,64,0
0,35,98,0
0,43,84,0
0,43,109,0
0,35,56,0
0,35,53,0
0,35,96,24
0,41,123,0
0,41,123,0
0,43,101,0
0,50,94,0
0,55,63,0
0,43,111,0
0,50,101,0
0,31,112,0
0,31,101,0
0,58,97,0
0,46,98,0
0,35,106,0
0,57,91,0
0,38,103,96
0,40,101,0
0,42,106,0
0,38,101,96
0,40,99,0
0,42,115,0
0,35,99,24
0,38,100,0
0,40,98,0
0,38,48,24
0,40,46,0
0,41,94,0
0,38,68,0
0,40,66,0
0,45,108,0
0,57,79,0
0,52,95,0
0,45,109,0
0,52,101,0
0,33,112,0
0,33,101,0
0,64,98,0
0,52,98,0
0,35,99,0
0,49,104,0
0,38,101,96
0,40,99,0
0,64,92,0
0,52,96,0
0,64,84,8
0,52,93,0
0,35,101,0
0,38,90,0
0,40,88,0
0,38,80,0
0,40,78,0
0,38,62,40
0,40,60,0
0,43,108,24
0,50,83,0
0,55,5,0
0,43,109,0
0,50,93,0
0,31,107,0
0,31,97,0
0,62,90,0
0,50,94,0
0,35,101,0
0,43,90,0
0,43,58,0
0,41,94,0
0,41,78,0
0,48,102,40
0,41,110,0
0,41,102,0
0,48,90,0
0,29,112,0
0,29,101,0
0,60,93,0
0,48,97,0
0,35,106,0
0,57,98,0
0,38,103,96
0,40,101,0
0,42,104,0
0,50,106,28
0,50,92,0
0,62,93,0
0,50,98,0
0,38,101,96
0,40,99,0
0,42,118,0
0,52,99,0
0,52,98,0
0,64,93,0
0,52,97,0
0,35,99,0
0,38,42,80
0,40,40,0
0,38,99,0
0,40,97,0
0,35,100,16
0,55,98,0
0,55,97,0
0,67,91,0
0,55,94,0
0,38,78,0
0,40,76,0
0,35,99,60
0,38,100,0
0,40,98,0
0,38,85,0
0,40,83,0
0,55,98,20
0,57,110,0
0,69,91,0
0,57,94,0
0,35,102,0
0,38,94,0
0,40,92,0
0,38,86,0
0,40,84,0
0,35,101,96
0,38,109,0
0,40,107,0
0,38,94,0
0,40,92,0
0,45,98,0
0,45,107,0
0,33,110,0
0,33,100,0
0,72,102,0
0,35,106,0
0,42,89,0
0,45,74,8
0,45,101,0
0,33,66,0
0,33,61,0
0,43,93,4
0,43,103,0
0,31,108,0
0,31,98,0
0,35,106,0
0,42,71,0
0,40,80,4
0,40,87,0
0,28,71,0
0,28,66,0
0,45,100,0
0,45,104,0
0,33,112,0
0,33,101,0
0,69,100,0
0,38,99,0
0,40,97,0
0,42,102,0
0,42,72,80
0,35,104,84
0,42,94,0
0,48,100,16
0,48,104,0
0,36,107,0
0,36,97,0
0,35,104,0
0,42,75,0
0,35,101,96
0,47,101,0
0,47,102,0
0,35,107,0
0,35,97,0
0,72,108,0
0,38,113,0
0,40,111,0
0,42,90,0
0,45,99,0
0,45,99,0
0,33,92,0
0,33,84,0
0,69,77,0
0,46,58,0
0,38,32,32
0,40,30,0
0,38,49,0
0,40,47,0
0,38,70,32
0,40,68,0
0,41,93,0
0,48,96,0
0,53,41,0
0,41,106,0
0,48,97,0
0,29,98,0
0,29,89,0
0,72,102,0
0,35,108,0
0,42,87,0
0,35,106,96
0,42,58,0
0,53,89,0
0,48,86,0
0,53,69,0
0,48,80,0
0,29,70,0
0,29,65,0
0,41,101,0
0,48,94,0
0,53,55,0
0,48,103,0
0,41,85,0
0,53,77,0
0,29,103,0
0,29,93,0
0,69,88,0
0,38,110,0
0,40,108,0
0,42,90,0
0,42,62,56
0,35,103,96
0,42,77,0
0,35,103,32
0,65,89,32
0,60,89,0
0,53,77,0
0,48,78,0
0,29,99,0
0,29,90,0
0,65,93,0
0,53,96,0
0,42,72,0
0,60,88,4
0,65,88,0
0,53,87,0
0,48,87,0
0,67,84,0
0,55,88,0
0,35,102,0
0,65,91,4
0,60,91,0
0,53,105,0
0,48,105,0
0,31,106,0
0,31,96,0
0,65,91,0
0,53,94,0
0,38,103,0
0,40,101,0
0,42,89,0
0,46,59,48
0,62,52,0
0,50,57,0
0,38,93,0
0,40,91,0
0,43,102,0
0,50,88,0
0,55,82,0
0,50,99,0
0,43,103,0
0,55,91,0
0,31,112,0
0,31,101,0
0,59,96,0
0,47,99,0
0,67,98,0
0,35,104,0
0,49,86,0
0,67,86,0
0,67,81,0
0,35,106,0
0,42,66,0
0,67,86,0
0,71,100,0
0,38,113,0
0,40,111,0
0,42,87,0
0,67,97,0
0,42,61,0
0,38,36,12
0,40,34,0
0,38,47,24
0,40,45,0
0,38,71,32
0,40,69,0
0,45,101,0
0,52,97,0
0,57,83,0
0,45,105,0
0,52,97,0
0,57,73,0
0,33,112,0
0,33,101,0
0,60,94,0
0,48,98,0
0,69,93,0
0,35,107,0
0,57,86,0
0,69,83,0
0,69,75,0
0,35,105,0
0,42,90,0
0,69,80,0
0,72,98,0
0,38,103,0
0,40,101,0
0,43,67,8
0,50,93,0
0,55,89,0
0,55,87,0
0,50,89,0
0,43,53,0
0,31,97,0
0,31,88,0
0,59,89,0
0,47,93,0
0,46,72,0
0,69,98,0
0,44,38,0
0,38,27,40
0,40,25,0
0,38,33,24
0,40,31,0
0,38,62,32
0,40,60,0
0,48,96,0
0,53,66,0
0,41,97,0
0,41,110,0
0,48,97,0
0,53,67,0
0,29,112,0
0,29,101,0
0,57,91,0
0,45,94,0
0,72,96,0
0,35,106,0
0,42,96,0
0,72,92,0
0,69,78,0
0,35,106,0
0,42,73,0
0,69,76,0
0,38,50,0
0,40,48,0
0,46,87,0
0,72,95,0
0,38,105,0
0,40,103,0
0,72,91,0
0,35,101,0
0,69,86,0
0,35,98,0
0,38,50,4
0,40,48,0
0,69,80,0
0,38,101,0
0,40,99,0
0,72,93,0
0,35,100,0
0,44,76,0
0,48,90,0
0,41,74,0
0,53,87,0
0,48,91,0
0,41,71,0
0,72,85,0
0,38,78,0
0,40,76,0
0,48,86,0
0,53,48,0
0,48,87,0
0,41,94,0
0,53,54,0
0,69,80,0
0,35,99,0
0,38,100,0
0,40,98,0
0,41,106,0
0,53,89,0
0,48,89,0
0,53,94,0
0,48,87,0
0,69,77,0
0,38,85,0
0,40,83,0
0,72,91,0
0,35,102,0
0,38,94,0
0,40,92,0
0,44,96,0
0,53,82,76
0,48,93,0
0,41,83,0
0,48,86,0
0,53,82,0
0,41,77,0
0,38,86,0
0,40,84,0
0,41,102,0
0,48,83,0
0,41,102,0
0,53,75,0
0,69,86,0
0,35,101,0
0,38,109,0
0,40,107,0
0,38,94,0
0,40,92,0
0,45,98,0
0,45,107,0
0,33,112,0
0,33,101,0
0,76,100,0
0,35,106,0
0,42,100,0
0,45,74,8
0,45,101,0
0,33,108,0
0,33,98,0
0,43,93,4
0,43,103,0
0,31,109,0
0,31,99,0
0,35,106,0
0,42,94,0
0,40,80,4
0,40,87,0
0,28,76,0
0,28,70,0
0,45,100,0
0,45,104,0
0,33,112,0
0,33,101,0
0,69,83,0
0,38,99,0
0,40,97,0
0,42,106,0
0,42,83,60
0,35,104,96
0,42,90,0
0,48,100,96
0,48,104,0
0,36,108,0
0,36,98,0
0,35,104,0
0,42,75,0
0,35,101,96
0,47,101,0
0,47,102,0
0,35,109,0
0,35,99,0
0,72,97,0
0,38,113,0
0,40,111,0
0,42,102,0
0,45,99,0
0,45,99,0
0,33,107,0
0,33,97,0
0,69,80,0
0,46,71,0
0,38,32,16
0,40,30,0
0,38,49,12
0,40,47,0
0,38,70,32
0,40,68,0
0,41,93,0
0,48,96,0
0,53,41,0
0,41,106,0
0,48,97,0
0,29,98,0
0,29,89,0
0,76,91,0
0,35,108,0
0,42,96,0
0,35,106,96
0,42,87,0
0,53,89,0
0,48,86,0
0,53,69,0
0,48,80,0
0,29,79,0
0,29,73,0
0,41,101,0
0,48,94,0
0,53,55,0
0,48,103,0
0,41,85,0
0,53,77,0
0,29,101,0
0,29,92,0
0,69,85,0
0,38,110,0
0,40,108,0
0,42,100,0
0,42,84,60
0,35,103,96
0,42,82,0
0,35,103,96
0,65,89,96
0,60,89,0
0,53,54,0
0,48,54,0
0,29,109,0
0,29,99,0
0,65,91,0
0,53,94,0
0,42,86,0
0,60,88,4
0,65,88,0
0,53,68,0
0,48,68,0
0,29,60,0
0,29,56,0
0,67,89,0
0,55,92,0
0,35,102,0
0,65,91,4
0,60,91,0
0,53,105,0
0,48,105,0
0,29,112,0
0,29,101,0
0,65,89,0
0,53,92,0
0,38,103,0
0,40,101,0
0,42,98,0
0,46,79,96
0,38,93,16
0,40,91,0
0,43,102,0
0,50,88,0
0,55,82,0
0,43,103,0
0,50,99,0
0,55,91,0
0,31,90,0
0,31,82,0
0,59,94,0
0,47,98,0
0,67,98,0
0,35,104,0
0,49,89,0
0,67,85,0
0,67,81,0
0,35,106,0
0,42,80,0
0,67,86,0
0,71,100,0
0,38,113,0
0,40,111,0
0,42,89,0
0,67,97,0
0,42,72,0
0,38,36,20
0,40,34,0
0,38,47,24
0,40,45,0
0,38,71,32
0,40,69,0
0,45,101,0
0,52,97,0
0,57,83,0
0,45,105,0
0,52,97,0
0,57,73,0
0,36,112,0
0,36,101,0
0,60,90,0
0,48,93,0
0,69,93,0
0,35,107,0
0,57,89,0
0,69,83,0
0,69,75,0
0,35,105,0
0,42,96,0
0,69,80,0
0,72,98,0
0,38,103,0
0,40,101,0
0,42,75,0
0,43,67,12
