track,note,velocity,time
1,76,100,17280
1,76,0,256
1,76,100,128
1,76,0,128
1,71,100,64
1,71,0,128
1,69,100,64
1,69,0,128
1,67,100,64
1,67,0,128
1,69,100,64
1,69,0,128
1,67,100,64
1,67,0,128
1,71,100,64
1,71,0,128
1,62,100,64
1,62,0,384
1,76,100,960
1,76,0,256
1,76,100,128
1,76,0,128
1,71,100,64
1,71,0,128
1,69,100,64
1,69,0,128
1,67,100,64
1,67,0,128
1,69,100,64
1,69,0,128
1,67,100,64
1,67,0,128
1,71,100,64
1,71,0,128
1,62,100,64
1,62,0,384
1,76,100,960
1,76,0,128
1,76,100,64
1,76,0,64
1,76,100,32
1,76,0,64
1,76,100,32
1,76,0,128
1,76,100,64
1,76,0,128
1,76,100,256
1,76,0,128
1,76,100,64
1,76,0,128
1,76,100,64
1,76,0,128
1,76,100,64
1,76,0,128
1,71,100,64
1,71,0,512
1,76,100,832
1,76,0,128
1,74,100,64
1,74,0,128
1,76,100,64
1,76,0,128
1,71,100,64
1,71,0,128
1,69,100,64
1,69,0,128
1,67,100,64
1,67,0,128
1,69,100,64
1,69,0,128
1,67,100,64
1,67,0,128
1,71,100,64
1,71,0,128
1,62,100,64
1,62,0,128
1,74,100,448
1,74,0,256
1,76,100,128
1,76,0,256
1,76,100,128
1,76,0,256
1,69,100,320
1,69,0,128
1,69,100,64
1,69,0,128
1,67,100,64
1,67,0,128
1,69,100,64
1,69,0,128
1,69,100,64
1,69,0,128
1,67,100,64
1,67,0,128
1,71,100,64
1,71,0,384
1,76,100,576
1,76,0,256
1,76,100,128
1,76,0,256
1,71,100,320
1,71,0,128
1,71,100,64
1,71,0,128
1,67,100,64
1,67,0,128
1,69,100,64
1,69,0,128
1,69,100,64
1,69,0,128
1,67,100,64
1,67,0,128
1,69,100,64
1,69,0,64
1,67,100,32
1,67,0,64
1,71,100,32
1,71,0,256
1,76,100,512
1,76,0,256
1,76,100,128
1,76,0,512
1,71,100,64
1,71,0,128
1,69,100,64
1,69,0,128
1,67,100,64
1,67,0,128
1,67,100,64
1,67,0,128
1,67,100,64
1,67,0,128
1,71,100,64
1,71,0,256
1,62,100,128
1,62,0,128
1,79,100,1216
1,79,0,128
1,79,100,64
1,79,0,128
1,79,100,64
1,79,0,128
1,79,100,64
1,79,0,128
1,79,100,64
1,79,0,320
1,76,100,64
1,76,0,128
1,74,100,64
1,74,0,128
1,76,100,64
1,76,0,384
1,79,100,768
1,79,0,128
1,79,100,64
1,79,0,128
1,76,100,64
1,76,0,128
1,79,100,64
1,79,0,128
1,79,100,64
1,79,0,128
1,76,100,256
1,76,0,128
1,79,100,64
1,79,0,128
1,79,100,64
1,79,0,256
1,76,100,128
1,76,0,128
1,74,100,64
1,74,0,128
1,79,100,64
1,79,0,384
1,76,100,192
1,76,0,64
1,74,100,32
1,74,0,64
1,76,100,32
1,76,0,384
1,74,100,1920
1,74,0,128
1,76,100,64
1,76,0,128
1,74,100,64
1,74,0,128
1,76,100,448
1,76,0,128
1,74,100,64
1,74,0,128
1,76,100,64
1,76,0,128
1,71,100,64
1,71,0,128
1,69,100,64
1,69,0,128
1,67,100,64
1,67,0,128
1,69,100,64
1,69,0,128
1,69,100,64
1,69,0,128
1,67,100,64
1,67,0,128
1,71,100,64
1,71,0,128
1,62,100,64
1,62,0,128
1,74,100,832
1,74,0,128
1,76,100,64
1,76,0,128
1,76,100,64
1,76,0,128
1,76,100,64
1,76,0,256
1,71,100,128
1,71,0,128
1,71,100,64
1,71,0,128
1,69,100,64
1,69,0,128
1,67,100,64
1,67,0,128
1,71,100,64
1,71,0,128
1,62,100,64
1,62,0,256
1,76,100,896
1,76,0,128
1,76,100,64
1,76,0,128
1,76,100,64
1,76,0,128
1,76,100,64
1,76,0,128
1,74,100,64
1,74,0,128
1,76,100,64
1,76,0,128
1,76,100,64
1,76,0,128
1,76,100,64
1,76,0,128
1,76,100,64
1,76,0,128
1,76,100,64
1,76,0,128
1,69,100,64
1,69,0,128
1,71,100,64
1,71,0,128
1,69,100,64
1,69,0,128
1,76,100,640
1,76,0,128
1,76,100,64
1,76,0,128
1,76,100,64
1,76,0,128
1,76,100,64
1,76,0,128
1,71,100,64
1,71,0,128
1,69,100,64
1,69,0,128
1,67,100,64
1,67,0,128
1,69,100,64
1,69,0,128
1,67,100,64
1,67,0,128
1,69,100,64
1,69,0,128
1,71,100,64
1,71,0,128
1,74,100,256
1,74,0,128
1,74,100,64
1,74,0,128
1,79,100,256
1,79,0,256
1,79,100,128
1,79,0,256
1,76,100,320
1,76,0,128
1,76,100,64
1,76,0,128
1,74,100,64
1,74,0,128
1,76,100,64
1,76,0,128
1,76,100,64
1,76,0,128
1,79,100,64
1,79,0,128
1,76,100,64
1,76,0,384
1,79,100,576
1,79,0,256
1,79,100,128
1,79,0,128
1,79,100,64
1,79,0,128
1,79,100,256
1,79,0,192
1,76,100,96
1,76,0,192
1,76,100,96
1,76,0,128
1,76,100,64
1,76,0,128
1,79,100,64
1,79,0,128
1,76,100,64
1,76,0,384
1,79,100,576
1,79,0,256
1,79,100,128
1,79,0,128
1,79,100,64
1,79,0,128
1,79,100,256
1,79,0,256
1,74,100,128
1,74,0,128
1,76,100,64
1,76,0,128
1,74,100,64
1,74,0,128
1,76,100,64
1,76,0,256
1,71,100,128
1,71,0,256
1,81,100,9344
1,81,0,128
1,76,100,64
1,76,0,128
1,79,100,448
1,79,0,256
1,79,100,128
1,79,0,128
1,76,100,64
1,76,0,128
1,76,100,64
1,76,0,128
1,75,100,64
1,75,0,128
1,76,100,64
1,76,0,128
1,76,100,64
1,76,0,128
1,79,100,64
1,79,0,128
1,76,100,64
1,76,0,384
1,79,100,960
1,79,0,256
1,79,100,128
1,79,0,128
1,76,100,64
1,76,0,128
1,76,100,64
1,76,0,128
1,76,100,64
1,76,0,128
1,76,100,64
1,76,0,128
1,74,100,64
1,74,0,128
1,76,100,64
1,76,0,128
1,71,100,64
1,71,0,128
1,79,100,1216
1,79,0,128
1,79,100,64
1,79,0,64
1,79,100,32
1,79,0,64
1,79,100,32
1,79,0,128
1,79,100,64
1,79,0,128
1,79,100,256
1,79,0,128
1,79,100,64
1,79,0,128
1,76,100,64
1,76,0,128
1,79,100,64
1,79,0,128
1,76,100,64
1,76,0,384
1,79,100,960
1,79,0,128
1,76,100,64
1,76,0,128
1,79,100,64
1,79,0,256
1,76,100,128
1,76,0,128
1,76,100,256
1,76,0,128
1,74,100,64
1,74,0,128
1,76,100,64
1,76,0,128
1,74,100,160
1,74,0,64
1,76,100,32
1,76,0,128
1,76,100,64
1,76,0,128
1,79,100,64
1,79,0,128
1,81,100,64
1,81,0,128
1,83,100,64
1,83,0,256
1,76,100,128
1,76,0,256
1,79,100,1856
1,79,0,128
1,79,100,64
1,79,0,128
1,76,100,64
1,76,0,128
1,79,100,64
1,79,0,256
1,76,100,128
1,76,0,256
1,79,100,1856
1,79,0,128
1,79,100,64
1,79,0,128
1,76,100,64
1,76,0,128
1,79,100,64
1,79,0,256
1,76,100,128
1,76,0,128
1,79,100,256
1,79,0,256
1,76,100,128
1,76,0,128
1,79,100,256
1,79,0,256
1,76,100,128
1,76,0,128
1,79,100,256
1,79,0,256
1,76,100,128
1,76,0,128
1,79,100,256
1,79,0,256
1,76,100,128
1,76,0,128
1,79,100,256
1,79,0,256
1,76,100,128
1,76,0,128
1,79,100,256
1,79,0,256
1,76,100,128
1,76,0,128
1,76,100,256
1,76,0,128
1,76,100,64
1,76,0,128
1,79,100,64
1,79,0,128
1,81,100,64
1,81,0,128
1,83,100,64
1,83,0,256
1,76,100,128
1,76,0,256
2,52,100,1536
2,59,100,0
2,64,100,0
2,64,0,256
2,59,0,0
2,52,0,0
2,52,100,128
2,59,100,0
2,64,100,0
2,64,0,128
2,59,0,0
2,52,0,0
2,52,100,64
2,52,0,64
2,52,100,32
2,52,0,64
2,52,100,32
2,52,0,128
2,54,100,64
2,54,0,128
2,55,100,64
2,55,0,128
2,57,100,64
2,57,0,128
2,60,100,64
2,60,0,128
2,64,100,64
2,64,0,128
2,67,100,64
2,67,0,256
2,62,100,128
2,62,0,128
2,69,100,64
2,69,0,128
2,74,100,64
2,74,0,128
2,52,100,256
2,64,100,0
2,71,100,0
2,71,0,256
2,64,0,0
2,52,0,0
2,52,100,128
2,52,0,192
2,52,100,96
2,52,0,64
2,52,100,32
2,52,0,128
2,54,100,64
2,54,0,128
2,55,100,64
2,55,0,128
2,57,100,64
2,57,0,128
2,60,100,64
2,60,0,128
2,64,100,64
2,64,0,128
2,67,100,64
2,67,0,256
2,62,100,128
2,62,0,128
2,69,100,64
2,69,0,128
2,74,100,64
2,74,0,128
2,86,100,256
2,86,0,256
2,86,100,128
2,86,0,768
2,86,100,384
2,86,0,384
2,86,100,192
2,86,0,928
2,86,100,32
2,86,0,384
2,86,100,192
2,86,0,896
2,86,100,64
2,86,0,1028
2,64,100,508
2,64,0,64
2,67,100,32
2,67,0,64
2,69,100,32
2,69,0,64
2,71,100,32
2,71,0,64
2,74,100,32
2,74,0,64
2,76,100,32
2,76,0,64
2,79,100,32
2,79,0,64
2,81,100,32
2,81,0,64
2,81,100,32
2,81,0,192
2,81,100,96
2,81,0,192
2,81,100,96
2,81,0,128
2,81,100,64
2,81,0,256
2,81,100,128
2,81,0,64
2,81,100,32
2,81,0,192
2,79,100,96
2,79,0,512
2,71,100,256
2,67,100,0
2,67,0,1028
2,71,0,0
2,52,100,11260
2,59,100,0
2,64,100,0
2,64,0,256
2,59,0,0
2,52,0,0
2,52,100,128
2,59,100,0
2,64,100,0
2,64,0,128
2,59,0,0
2,52,0,0
2,52,100,64
2,52,0,64
2,52,100,32
2,52,0,64
2,52,100,32
2,52,0,128
2,54,100,64
2,54,0,128
2,55,100,64
2,55,0,128
2,57,100,64
2,57,0,128
2,60,100,64
2,60,0,128
2,64,100,64
2,64,0,128
2,67,100,64
2,67,0,256
2,62,100,128
2,62,0,128
2,69,100,64
2,69,0,128
2,74,100,64
2,74,0,128
2,52,100,256
2,59,100,0
2,64,100,0
2,64,0,256
2,59,0,0
2,52,0,0
2,52,100,128
2,59,100,0
2,64,100,0
2,64,0,128
2,59,0,0
2,52,0,0
2,52,100,64
2,52,0,64
2,52,100,32
2,52,0,64
2,52,100,32
2,52,0,128
2,54,100,64
2,54,0,128
2,55,100,64
2,55,0,128
2,57,100,64
2,57,0,128
2,60,100,64
2,60,0,128
2,64,100,64
2,64,0,128
2,67,100,64
2,67,0,256
2,62,100,128
2,62,0,128
2,69,100,64
2,69,0,128
2,74,100,64
2,74,0,128
2,52,100,256
2,59,100,0
2,64,100,0
2,64,0,256
2,59,0,0
2,52,0,0
2,52,100,128
2,59,100,0
2,64,100,0
2,64,0,128
2,59,0,0
2,52,0,0
2,52,100,64
2,52,0,64
2,52,100,32
2,52,0,64
2,52,100,32
2,52,0,128
2,54,100,64
2,54,0,128
2,55,100,64
2,55,0,128
2,57,100,64
2,57,0,128
2,60,100,64
2,60,0,128
2,64,100,64
2,64,0,128
2,67,100,64
2,67,0,256
2,62,100,128
2,62,0,128
2,69,100,64
2,69,0,128
2,74,100,64
2,74,0,128
2,86,100,256
2,86,0,256
2,86,100,128
2,86,0,768
2,86,100,384
2,86,0,384
2,86,100,192
2,86,0,928
2,86,100,32
2,86,0,384
2,86,100,192
2,86,0,896
2,86,100,64
2,86,0,1028
2,81,100,508
2,81,0,1088
2,81,100,64
2,81,0,128
2,79,100,64
2,79,0,128
2,81,100,64
2,81,0,512
2,81,100,256
2,81,0,256
2,79,100,128
2,79,0,256
2,76,100,128
2,71,100,0
2,67,100,0
2,76,0,768
2,67,0,260
2,71,0,0
2,52,100,11260
2,59,100,0
2,64,100,0
2,64,0,256
2,59,0,0
2,52,0,0
2,52,100,128
2,59,100,0
2,64,100,0
2,64,0,128
2,59,0,0
2,52,0,0
2,52,100,64
2,52,0,64
2,52,100,32
2,52,0,64
2,52,100,32
2,52,0,128
2,54,100,64
2,54,0,128
2,55,100,64
2,55,0,128
2,57,100,64
2,57,0,128
2,60,100,64
2,60,0,128
2,64,100,64
2,64,0,128
2,67,100,64
2,67,0,256
2,62,100,128
2,62,0,128
2,69,100,64
2,69,0,128
2,74,100,64
2,74,0,128
2,52,100,256
2,59,100,0
2,64,100,0
2,64,0,256
2,59,0,0
2,52,0,0
2,52,100,128
2,59,100,0
2,64,100,0
2,64,0,128
2,59,0,0
2,52,0,0
2,52,100,64
2,52,0,64
2,52,100,32
2,52,0,64
2,52,100,32
2,52,0,128
2,54,100,64
2,54,0,128
2,55,100,64
2,55,0,128
2,57,100,64
2,57,0,128
2,60,100,64
2,60,0,128
2,64,100,64
2,64,0,128
2,67,100,64
2,67,0,256
2,62,100,128
2,62,0,128
2,69,100,64
2,69,0,128
2,74,100,64
2,74,0,128
2,52,100,256
2,59,100,0
2,64,100,0
2,64,0,256
2,59,0,0
2,52,0,0
2,52,100,128
2,59,100,0
2,64,100,0
2,64,0,128
2,59,0,0
2,52,0,0
2,52,100,64
2,52,0,64
2,52,100,32
2,52,0,64
2,52,100,32
2,52,0,128
2,54,100,64
2,54,0,128
2,55,100,64
2,55,0,128
2,57,100,64
2,57,0,128
2,60,100,64
2,60,0,128
2,64,100,64
2,64,0,128
2,67,100,64
2,67,0,256
2,62,100,128
2,62,0,128
2,69,100,64
2,69,0,128
2,74,100,64
2,74,0,128
2,81,100,256
2,83,100,0
2,83,0,768
2,81,0,0
2,81,100,384
2,81,0,128
2,81,100,64
2,81,0,128
2,81,100,64
2,81,0,256
2,79,100,128
2,79,0,256
2,76,100,128
2,76,0,64
2,74,100,32
2,74,0,64
2,76,100,32
2,76,0,128
2,79,100,64
2,79,0,128
2,76,100,64
2,76,0,64
2,79,100,32
2,79,0,64
2,81,100,32
2,81,0,64
2,79,100,32
2,79,0,64
2,81,100,32
2,81,0,64
2,79,100,32
2,79,0,64
2,81,100,32
2,81,0,64
2,79,100,32
2,79,0,64
2,81,100,32
2,81,0,64
2,79,100,32
2,79,0,64
2,81,100,32
2,81,0,128
2,88,100,64
2,88,0,128
2,81,100,64
2,81,0,128
2,88,100,64
2,88,0,128
2,88,100,64
2,86,100,0
2,86,0,256
2,88,0,0
2,88,100,128
2,86,100,0
2,86,0,192
2,88,0,0
2,88,100,96
2,88,0,64
2,91,100,32
2,91,0,128
2,91,100,64
2,91,0,128
2,88,100,64
2,88,0,64
2,86,100,32
2,86,0,64
2,83,100,32
2,83,0,64
2,81,100,32
2,81,0,64
2,81,100,32
2,81,0,1028
2,81,100,4348
2,81,0,128
2,81,100,64
2,81,0,128
2,79,100,64
2,79,0,256
2,76,100,128
2,76,0,1028
2,81,100,1468
2,81,0,1604
2,88,100,5884
2,86,100,0
2,86,0,256
2,88,0,0
2,88,100,128
2,86,100,0
2,86,0,256
2,88,0,0
2,88,100,128
2,86,100,0
2,86,0,3328
2,88,0,0
2,86,100,128
2,86,0,256
2,83,100,128
2,83,0,256
2,81,100,128
2,81,0,128
2,79,100,64
2,79,0,128
2,81,100,64
2,81,0,256
2,81,100,128
2,81,0,256
2,81,100,128
2,81,0,256
2,81,100,128
2,81,0,256
2,81,100,128
2,81,0,256
2,81,100,128
2,81,0,256
2,81,100,128
2,81,0,128
2,79,100,64
2,79,0,128
2,76,100,64
2,76,0,128
2,74,100,64
2,74,0,128
3,52,100,1536
3,59,100,0
3,64,100,0
3,64,0,256
3,59,0,0
3,52,0,0
3,64,100,320
3,64,0,64
3,64,100,32
3,64,0,64
3,52,100,32
3,52,0,128
3,54,100,64
3,54,0,128
3,60,100,448
3,60,0,128
3,67,100,64
3,67,0,128
3,72,100,64
3,72,0,256
3,62,100,512
3,69,100,0
3,74,100,0
3,78,100,0
3,78,0,64
3,62,0,0
3,69,0,0
3,74,0,0
3,62,100,32
3,69,100,0
3,74,100,0
3,78,100,0
3,78,0,64
3,62,0,0
3,69,0,0
3,74,0,0
3,62,100,128
3,62,0,64
