track,note,velocity,time
1,36,100,2880
1,57,98,0
1,36,0,57
1,57,0,2
1,57,102,1
1,36,100,0
1,36,0,55
1,57,0,4
1,57,1,1
1,57,0,57
1,57,99,782
1,36,102,1
1,36,0,57
1,57,0,0
1,57,103,5
1,36,101,0
1,36,0,55
1,57,0,0
1,57,4,4
1,57,0,56
1,44,98,541
1,44,0,59
1,36,102,5
1,36,0,25
1,36,103,4
1,36,0,26
1,38,101,0
1,38,101,3
1,38,0,114
1,38,0,4
1,36,101,0
1,57,101,0
1,57,0,119
1,36,0,0
1,51,99,1
1,38,103,1
1,38,0,118
1,51,0,0
1,51,99,1
1,36,98,64
1,36,0,55
1,51,0,0
1,51,99,1
1,38,99,2
1,38,0,57
1,51,0,0
1,36,100,1
1,51,102,0
1,51,0,59
1,36,0,0
1,36,99,2
1,57,103,1
1,57,0,117
1,36,0,0
1,38,100,3
1,51,102,1
1,51,0,116
1,38,0,0
1,51,99,4
1,36,98,57
1,36,0,29
1,36,81,4
1,36,0,26
1,51,0,0
1,51,100,2
1,38,100,1
1,38,0,57
1,51,0,0
1,36,102,1
1,51,103,3
1,51,0,56
1,36,0,0
1,57,99,4
1,36,103,1
1,36,0,115
1,57,0,0
1,51,100,2
1,38,103,1
1,38,0,117
1,51,0,0
1,51,101,5
1,36,99,59
1,36,0,56
1,51,0,0
1,51,99,5
1,38,100,0
1,38,0,55
1,51,0,0
1,51,101,1
1,36,99,2
1,36,0,57
1,51,0,0
1,57,99,2
1,36,98,1
1,36,0,117
1,57,0,0
1,38,98,2
1,51,102,3
1,51,0,115
1,38,0,0
1,51,103,4
1,36,102,61
1,36,0,55
1,51,0,0
1,38,102,5
1,51,98,0
1,51,0,55
1,38,0,0
1,36,100,2
1,51,101,2
1,51,0,56
1,36,0,0
1,57,103,2
1,36,99,0
1,36,0,118
1,57,0,0
1,51,101,1
1,38,102,4
1,38,0,115
1,51,0,0
1,51,103,2
1,36,103,59
1,36,0,29
1,36,82,4
1,36,0,26
1,51,0,0
1,38,101,1
1,51,99,0
1,51,0,59
1,38,0,0
1,36,102,2
1,51,98,3
1,51,0,55
1,36,0,0
1,36,101,2
1,57,102,1
1,57,0,117
1,36,0,0
1,38,100,4
1,51,103,1
1,51,0,115
1,38,0,0
1,51,98,4
1,36,100,59
1,36,0,57
1,51,0,0
1,38,98,2
1,51,102,2
1,51,0,56
1,38,0,0
1,36,99,3
1,51,99,0
1,51,0,57
1,36,0,0
1,36,99,4
1,57,99,1
1,57,0,115
1,36,0,0
1,42,103,841
1,42,0,119
1,42,102,3
1,42,0,57
1,42,98,2
1,42,0,58
1,42,100,4
1,42,0,116
1,42,98,4
1,42,0,116
1,42,103,3
1,42,0,57
1,42,48,2
1,42,0,58
1,42,101,1
1,42,0,119
1,42,103,2
1,42,0,118
1,42,101,3
1,42,0,57
1,42,103,5
1,42,0,55
1,36,100,3
1,42,100,2
1,42,0,55
1,42,56,4
1,42,0,56
1,36,0,0
1,42,101,2
1,42,0,58
1,42,58,1
1,42,0,59
1,42,103,4
1,42,0,56
1,42,55,3
1,42,0,57
1,42,98,1
1,42,0,59
1,42,57,3
1,36,98,1
1,36,0,56
1,42,0,0
1,36,101,1
1,42,100,4
1,42,0,55
1,42,59,1
1,42,0,59
1,36,0,0
1,42,101,5
1,42,0,55
1,42,55,4
1,42,0,56
1,42,100,2
1,42,0,58
1,42,56,3
1,42,0,57
1,42,101,1
1,42,0,59
1,42,58,4
1,36,98,1
1,36,0,55
1,42,0,0
1,36,98,1
1,42,100,4
1,42,0,55
1,42,55,5
1,42,0,55
1,36,0,0
1,42,99,3
1,42,0,57
1,42,58,1
1,42,0,59
1,42,103,1
1,42,0,59
1,42,55,5
1,42,0,55
1,42,99,3
1,42,0,57
1,42,57,1
1,42,0,59
1,36,100,3
1,42,103,1
1,42,0,56
1,42,56,3
1,42,0,57
1,36,0,0
1,42,100,2
1,42,0,58
1,42,56,3
1,42,0,57
1,42,100,4
1,42,0,56
1,42,57,4
1,42,0,56
1,42,103,4
1,42,0,56
1,42,56,1
1,36,100,2
1,36,0,57
1,42,0,0
1,36,103,2
1,42,101,3
1,42,0,55
1,42,56,1
1,42,0,59
1,36,0,0
1,42,101,3
1,42,0,57
1,42,58,4
1,42,0,56
1,42,98,3
1,42,0,57
1,42,54,1
1,42,0,59
1,42,99,5
1,42,0,55
1,42,54,3
1,36,99,2
1,36,0,55
1,42,0,0
1,36,100,2
1,42,101,1
1,42,0,57
1,42,55,2
1,42,0,58
1,36,0,0
1,42,98,5
1,42,0,55
1,42,57,2
1,42,0,58
1,42,98,3
1,42,0,57
1,36,99,2
1,42,58,3
1,42,0,55
1,36,0,0
1,42,100,2
1,42,0,58
1,42,59,3
1,36,99,1
1,36,0,56
1,42,0,0
1,36,98,1
1,42,101,3
1,42,0,56
1,42,55,5
1,42,0,55
1,36,0,0
1,42,98,2
1,42,0,58
1,42,57,3
1,42,0,57
1,42,102,5
1,42,0,55
1,42,54,1
1,42,0,59
1,42,103,5
1,42,0,55
1,42,56,1
1,36,103,2
1,36,0,57
1,42,0,0
1,36,101,1
1,46,99,2
1,46,0,117
1,36,0,0
1,38,39,4
1,36,40,1
1,36,0,55
1,38,0,0
1,36,44,1
1,38,45,3
1,38,0,56
1,36,0,0
1,36,52,1
1,38,53,4
1,38,0,55
1,36,0,0
1,36,55,1
1,38,55,3
1,38,0,56
1,36,0,0
1,38,62,2
1,36,62,3
1,36,0,55
1,38,0,0
1,38,63,2
1,36,63,0
1,36,0,58
1,38,0,0
1,36,72,1
1,38,73,3
1,57,71,1
1,57,0,55
1,38,0,0
1,36,0,0
1,38,75,4
1,36,75,0
1,57,73,0
1,57,0,56
1,36,0,0
1,38,0,0
1,36,80,1
1,38,79,0
1,57,80,1
1,57,0,58
1,38,0,0
1,36,0,0
1,36,88,1
1,57,84,4
1,38,84,0
1,38,0,55
1,57,0,0
1,36,0,0
1,36,88,1
1,38,90,1
1,57,89,1
1,57,0,57
1,38,0,0
1,36,0,0
1,57,94,1
1,38,94,0
1,36,94,2
1,36,0,57
1,38,0,0
1,57,0,0
1,57,100,3
1,36,98,1
1,38,101,0
1,38,0,116
1,36,0,0
1,57,0,0
1,57,103,1
1,36,102,2
1,36,0,117
1,57,0,0
1,42,100,2
1,38,103,2
1,38,0,56
1,36,99,2
1,36,0,58
1,42,0,0
1,42,100,3
1,42,0,117
1,42,100,2
1,38,102,1
1,38,0,117
1,42,0,0
1,36,99,3
1,42,103,1
1,42,0,116
1,36,0,0
1,42,99,1
1,38,99,2
1,38,0,57
1,36,102,5
1,36,0,55
1,42,0,0
1,42,102,4
1,36,101,61
1,36,0,55
1,42,0,0
1,42,102,1
1,38,98,1
1,38,0,57
1,36,99,2
1,36,0,59
1,42,0,0
1,36,99,3
1,57,103,2
1,57,0,115
1,36,0,0
1,38,103,2
1,42,101,2
1,38,0,57
1,36,102,3
1,42,0,55
1,36,0,1
1,42,99,1
1,42,0,119
1,42,103,3
1,38,100,2
1,38,0,115
1,42,0,0
1,36,98,1
1,42,102,4
1,42,0,115
1,36,0,0
1,42,98,2
1,38,99,0
1,38,0,58
1,36,100,4
1,36,0,56
1,42,0,0
1,42,101,3
1,36,101,59
1,36,0,58
1,42,0,0
1,42,100,4
1,38,98,0
1,38,0,55
1,36,103,4
1,36,0,57
1,42,0,0
1,36,98,3
1,42,98,0
1,42,0,117
1,36,0,0
1,42,103,4
1,38,100,1
1,38,0,55
1,36,102,3
1,36,0,55
1,42,0,2
1,42,99,4
1,42,0,116
1,42,98,3
1,38,100,1
1,38,0,56
1,36,102,2
1,36,0,58
1,42,0,0
1,36,101,1
1,42,102,3
1,42,0,116
1,36,0,0
1,38,103,3
1,42,99,2
1,38,0,55
1,36,100,2
1,36,0,58
1,42,0,0
1,42,103,1
1,42,0,119
1,38,98,4
1,42,103,0
1,38,0,56
1,36,101,3
1,36,0,57
1,42,0,0
1,36,99,2
1,42,98,1
1,42,0,117
1,36,0,0
1,38,99,1
1,42,99,3
1,38,0,56
1,36,99,4
1,36,0,56
1,42,0,0
1,42,99,4
1,36,103,60
1,36,0,56
1,42,0,0
1,42,101,1
1,38,102,4
1,38,0,55
1,36,99,3
1,36,0,57
1,42,0,0
1,42,102,5
1,36,102,0
1,36,0,115
1,42,0,0
1,42,103,4
1,38,103,0
1,38,0,56
1,36,103,1
1,36,0,59
1,42,0,0
1,38,99,4
1,38,0,26
1,38,98,5
1,38,0,25
1,38,98,2
1,38,0,58
1,38,103,3
1,38,0,57
1,38,98,2
1,38,0,58
1,57,103,1
1,36,100,0
1,36,0,119
1,57,0,0
1,49,103,5
1,38,100,0
1,38,0,55
1,36,99,4
1,36,0,56
1,49,0,0
1,51,102,1
1,51,0,59
1,36,103,1
1,51,100,1
1,51,0,58
1,36,0,0
1,51,100,1
1,38,102,3
1,38,0,115
1,51,0,1
1,36,99,3
1,51,100,2
1,36,0,55
1,36,101,3
1,36,0,57
1,51,0,0
1,38,102,2
1,51,102,1
1,38,0,57
1,36,102,3
1,36,0,57
1,51,0,0
1,51,100,3
1,51,0,57
1,51,102,1
1,36,101,1
1,36,0,58
1,51,0,0
1,38,99,2
1,51,100,2
1,38,0,56
1,36,98,5
1,36,0,55
1,51,0,0
1,51,103,5
1,36,102,0
1,36,0,55
1,36,100,4
1,36,0,56
1,51,0,0
1,51,99,2
1,38,99,3
1,38,0,55
1,36,99,1
1,36,0,59
1,51,0,0
1,51,98,1
1,51,0,59
1,36,103,3
1,51,99,1
1,51,0,56
1,36,0,0
1,51,100,4
1,38,98,1
1,38,0,55
1,36,103,1
1,36,0,59
1,51,0,0
1,36,102,2
1,51,99,2
1,36,101,1
1,36,0,55
1,36,100,1
1,36,0,59
1,36,0,0
1,51,0,0
1,38,102,2
1,51,100,1
1,38,0,57
1,36,101,2
1,36,0,58
1,51,0,0
1,51,102,5
1,51,0,55
1,51,99,3
1,36,99,1
1,36,0,56
1,51,0,0
1,51,103,1
1,38,102,2
1,38,0,57
1,36,99,2
1,36,0,58
1,51,0,0
1,57,103,3
1,36,98,1
1,36,0,56
1,36,102,3
1,36,0,57
1,57,0,0
1,51,98,2
1,38,98,2
1,38,0,56
1,36,98,3
1,36,0,57
1,51,0,0
1,51,101,4
1,51,0,56
1,36,101,1
1,51,101,1
1,51,0,58
1,36,0,0
1,38,99,1
1,51,98,3
1,38,0,56
1,36,99,4
1,36,0,56
1,51,0,0
1,36,98,3
1,51,99,2
1,36,0,55
1,36,99,4
1,36,0,56
1,51,0,0
1,38,102,2
1,51,101,1
1,38,0,57
1,36,98,4
1,36,0,56
1,51,0,0
1,51,99,3
1,51,0,57
1,51,98,2
1,36,99,3
1,36,0,55
1,51,0,0
1,38,101,1
1,51,99,3
1,38,0,56
1,36,101,2
1,36,0,58
1,51,0,0
1,51,98,1
1,36,100,3
1,36,0,56
1,36,98,5
1,36,0,55
1,51,0,0
1,38,99,1
1,51,102,3
1,38,0,56
1,36,101,2
1,36,0,58
1,51,0,0
1,51,99,1
1,51,0,59
1,36,103,1
1,51,103,3
1,51,0,56
1,36,0,0
1,51,98,5
1,38,99,0
1,38,0,55
1,36,102,3
1,36,0,57
1,51,0,0
1,51,100,4
1,36,99,1
1,36,0,55
1,36,100,1
1,36,0,59
1,51,0,0
1,51,101,1
1,38,102,3
1,38,0,56
1,36,101,4
1,36,0,56
1,51,0,0
1,51,98,2
1,51,0,58
1,51,102,1
1,36,101,0
1,36,0,59
1,51,0,0
1,38,98,2
1,51,101,2
1,38,0,56
1,36,103,2
1,36,0,58
1,51,0,0
1,57,102,2
1,36,100,2
1,36,0,116
1,57,0,0
1,42,100,5
1,42,0,115
1,42,103,5
1,42,0,55
1,42,101,3
1,42,0,57
1,42,100,4
1,42,0,115
1,42,103,5
1,42,0,56
1,42,81,5
1,42,0,55
1,42,98,1
1,42,0,59
1,42,81,4
1,42,0,56
1,42,98,3
1,42,0,57
1,42,79,2
1,42,0,58
1,42,101,1
1,42,0,59
1,42,82,5
1,42,0,55
1,36,100,1
1,57,103,2
1,57,0,57
1,42,58,3
1,42,0,57
1,36,0,0
1,42,100,2
1,42,0,58
1,42,56,3
1,42,0,57
1,42,100,2
1,42,0,58
1,42,57,2
1,42,0,58
1,42,100,1
1,42,0,59
1,42,57,1
1,36,101,4
1,36,0,55
1,42,0,0
1,36,100,2
1,42,103,2
1,42,0,56
1,42,55,5
1,42,0,55
1,36,0,0
1,42,98,4
1,42,0,56
1,42,54,4
1,42,0,56
1,42,98,4
1,42,0,56
1,42,55,2
1,42,0,58
1,42,99,5
1,42,0,55
1,36,100,2
1,42,58,3
1,42,0,55
1,36,0,0
1,36,100,2
1,42,98,0
1,42,0,58
1,42,57,3
1,42,0,57
1,36,0,0
1,42,103,5
1,42,0,55
1,42,58,1
1,42,0,59
1,42,99,1
1,42,0,59
1,42,59,3
1,42,0,57
1,42,99,3
1,42,0,57
1,36,98,1
1,42,57,1
1,42,0,58
1,36,0,0
1,42,98,2
1,36,103,3
1,42,0,55
1,42,57,1
1,42,0,59
1,36,0,0
1,42,100,1
1,42,0,59
1,42,54,5
1,42,0,55
1,42,99,1
1,42,0,59
1,36,103,1
1,42,57,0
1,42,0,59
1,36,0,0
1,42,98,2
1,42,0,58
1,42,54,2
1,36,101,3
1,36,0,55
1,42,0,0
1,36,103,3
1,42,101,2
1,42,0,55
1,42,55,5
1,42,0,55
1,36,0,0
1,42,100,3
1,42,0,57
1,42,59,5
1,42,0,55
1,42,98,4
1,42,0,56
1,42,56,2
1,42,0,58
1,42,101,2
1,42,0,58
1,36,100,1
1,42,55,2
1,42,0,57
1,36,0,0
1,42,101,2
1,36,99,3
1,42,0,55
1,42,55,2
1,42,0,58
1,36,0,0
1,42,101,3
1,42,0,57
1,42,59,2
1,42,0,58
1,42,100,4
1,42,0,56
1,42,55,3
1,36,102,2
1,36,0,55
1,42,0,0
1,42,100,5
1,42,0,55
1,36,101,1
1,42,56,4
1,42,0,55
1,36,0,0
1,36,103,4
1,42,98,0
1,42,0,56
1,42,57,3
1,42,0,57
1,36,0,0
1,42,98,1
1,42,0,59
1,42,55,2
1,42,0,58
1,42,98,2
1,42,0,58
1,42,54,1
1,42,0,59
1,42,102,3
1,42,0,57
1,36,102,1
1,42,56,3
1,42,0,56
1,36,0,0
1,36,100,1
1,46,101,4
1,46,0,115
1,36,0,0
1,38,40,4
1,36,41,1
1,36,0,55
1,38,0,0
1,38,43,4
1,36,47,1
1,36,0,55
1,38,0,0
1,38,50,3
1,36,53,1
1,36,0,56
1,38,0,0
1,36,56,1
1,38,58,3
1,38,0,56
1,36,0,0
1,38,60,4
1,36,62,0
1,36,0,56
1,38,0,0
1,38,66,1
1,36,65,4
1,36,0,55
1,38,0,0
1,57,72,1
1,38,73,3
1,36,68,0
1,36,0,56
1,38,0,0
1,57,0,0
1,57,77,1
1,38,75,2
1,36,74,2
1,36,0,55
1,38,0,0
1,57,0,0
1,38,82,1
1,57,82,1
1,36,79,3
1,36,0,55
1,57,0,0
1,38,0,0
1,57,86,2
1,36,84,2
1,38,83,1
1,38,0,55
1,36,0,0
1,57,0,0
1,38,92,2
1,57,90,0
1,36,89,2
1,36,0,56
1,57,0,0
1,38,0,0
1,57,94,1
1,38,96,1
1,36,94,1
1,36,0,57
1,38,0,0
1,57,0,0
1,36,99,1
1,38,99,4
1,57,101,0
1,57,0,115
1,38,0,0
1,36,0,0
1,36,102,1
1,57,102,2
1,57,0,117
1,36,0,0
1,38,101,1
1,49,98,3
1,38,0,56
1,36,99,5
1,36,0,55
1,49,0,0
1,42,103,4
1,42,0,116
1,38,99,2
1,42,99,3
1,42,0,115
1,38,0,0
1,42,98,1
1,36,100,2
1,36,0,117
1,42,0,0
1,38,99,1
1,42,103,3
1,38,0,56
1,36,99,3
1,36,0,57
1,42,0,0
1,42,99,2
1,36,101,63
1,36,0,55
1,42,0,0
