track,note,velocity,time
0,59,99,312
0,52,98,0
0,52,101,0
0,59,98,0
0,59,0,70
0,52,0,3
0,52,102,7
0,59,101,0
0,52,99,0
0,59,98,0
0,59,0,1
0,52,0,3
0,52,0,26
0,59,0,4
0,69,108,6
0,73,110,0
0,64,108,0
0,64,111,0
0,69,109,0
0,59,0,1
0,52,0,1
0,64,0,113
0,73,0,1
0,69,0,2
0,69,0,1
0,64,0,0
0,59,102,1
0,52,100,0
0,59,99,0
0,52,102,0
0,52,0,72
0,59,0,2
0,59,103,6
0,52,99,0
0,59,100,0
0,52,102,0
0,52,0,2
0,59,0,2
0,52,0,29
0,59,0,1
0,62,113,6
0,67,112,0
0,71,112,0
0,52,0,0
0,67,113,0
0,62,108,0
0,59,0,3
0,71,0,112
0,67,0,1
0,62,0,1
0,62,0,1
0,67,0,1
0,52,101,1
0,59,99,0
0,52,100,0
0,59,101,0
0,59,0,71
0,52,0,3
0,59,0,0
0,52,0,0
0,59,98,6
0,52,99,0
0,52,100,0
0,59,102,0
0,64,113,40
0,69,112,0
0,73,108,0
0,59,0,0
0,69,99,0
0,64,103,0
0,52,0,2
0,52,0,1
0,59,0,0
0,73,0,67
0,69,0,3
0,64,0,1
0,64,0,0
0,69,0,0
0,67,112,6
0,64,88,0
0,64,99,3
0,64,100,0
0,64,0,1
0,67,0,3
0,64,0,37
0,64,0,0
0,40,127,1
0,47,127,0
0,52,98,0
0,59,99,0
0,40,101,0
0,52,101,0
0,47,98,0
0,59,102,0
0,64,100,0
0,57,127,0
0,36,127,0
0,59,0,1
0,52,0,1
0,52,103,1
0,59,102,0
0,59,0,1
0,64,108,0
0,69,111,0
0,52,0,2
0,69,0,1
0,64,0,1
0,59,99,1
0,52,99,0
0,52,0,1
0,59,0,1
0,52,100,1
0,59,100,0
0,67,108,16
0,62,111,0
0,59,0,1
0,52,0,3
0,62,0,1
0,57,0,0
0,67,0,1
0,36,0,0
0,59,98,1
0,52,100,0
0,52,0,1
0,59,0,1
0,52,99,1
0,59,99,0
0,64,113,23
0,69,108,0
0,59,0,3
0,52,0,0
0,69,0,68
0,64,0,1
0,67,109,8
0,47,0,1
0,40,0,0
0,67,0,5
0,64,109,0
0,40,127,0
0,64,0,25
0,59,93,11
0,64,0,15
0,47,0,2
0,59,0,0
0,52,0,0
0,40,0,1
0,40,0,0
0,47,127,2
0,40,127,0
0,59,103,0
0,52,99,0
0,56,101,0
0,40,101,0
0,62,101,0
0,67,99,0
0,52,101,0
0,47,102,0
0,57,127,0
0,36,127,0
0,59,0,7
0,52,0,2
0,59,0,1
0,59,98,1
0,52,101,0
0,52,0,1
0,64,113,0
0,69,112,0
0,59,0,1
0,69,0,2
0,64,0,0
0,59,101,1
0,52,100,0
0,52,0,2
0,59,0,1
0,59,103,1
0,52,99,0
0,62,112,16
0,67,111,0
0,52,0,3
0,59,0,0
0,62,0,1
0,67,0,0
0,57,0,0
0,36,0,0
0,59,99,1
0,52,99,0
0,52,0,1
0,59,0,0
0,59,100,1
0,52,102,0
0,69,109,23
0,64,109,0
0,52,0,1
0,59,0,3
0,64,0,66
0,69,0,2
0,67,112,8
0,40,127,2
0,40,0,6
0,40,127,3
0,40,0,7
0,40,0,2
0,47,0,2
0,64,99,3
0,40,127,0
0,36,127,0
0,67,0,3
0,40,0,10
0,36,0,16
0,47,0,34
0,52,0,0
0,67,0,1
0,62,0,1
0,64,0,2
0,40,0,0
0,56,0,0
0,40,127,1
0,59,99,0
0,52,102,0
0,62,101,0
0,52,98,0
0,57,99,0
0,57,127,0
0,36,127,0
0,40,0,39
0,40,127,1
0,52,0,1
0,59,0,0
0,40,0,1
0,40,127,1
0,52,103,0
0,59,103,0
0,40,0,1
0,36,0,0
0,40,127,1
0,59,0,0
0,52,0,0
0,73,112,0
0,64,109,0
0,69,108,0
0,40,0,1
0,40,127,3
0,40,0,37
0,40,127,3
0,40,0,1
0,69,0,0
0,64,0,0
0,73,0,1
0,40,127,1
0,59,103,0
0,52,98,0
0,40,0,18
0,40,127,3
0,52,0,1
0,59,0,1
0,40,0,1
0,40,127,1
0,59,98,0
0,52,103,0
0,40,0,12
0,40,127,4
0,62,113,0
0,71,109,0
0,67,113,0
0,52,0,1
0,59,0,1
0,40,0,1
0,40,127,1
0,40,0,25
0,40,127,5
0,67,0,1
0,71,0,1
0,62,0,1
0,57,0,0
0,40,0,1
0,40,127,1
0,52,99,0
0,59,101,0
0,40,127,0
0,40,0,4
0,40,0,3
0,40,127,2
0,40,127,0
0,59,0,1
0,52,0,1
0,40,0,0
0,40,0,1
0,40,127,1
0,52,101,0
0,59,101,0
0,40,127,0
0,40,0,20
0,40,0,1
0,40,127,2
0,73,109,0
0,64,110,0
0,69,110,0
0,40,127,0
0,59,0,1
0,52,0,2
0,40,0,35
0,40,0,0
0,40,127,2
0,40,127,0
0,64,0,31
0,69,0,0
0,73,0,3
0,40,0,4
0,40,0,0
0,40,127,2
0,67,110,0
0,40,127,0
0,57,0,0
0,52,0,0
0,62,0,0
0,40,0,0
0,40,0,1
0,40,127,1
0,50,100,0
0,59,100,0
0,55,102,0
0,47,127,0
0,55,0,2
0,59,0,0
0,50,0,0
0,40,0,17
0,47,0,1
0,40,127,1
0,47,127,0
0,40,0,2
0,47,0,0
0,40,127,2
0,47,127,0
0,40,0,8
0,47,0,1
0,40,127,2
0,64,99,0
0,45,100,0
0,40,127,0
0,67,0,2
0,40,0,35
0,40,0,1
0,40,127,2
0,40,127,0
0,40,0,0
0,40,0,1
0,40,127,1
0,36,127,0
0,40,0,5
0,64,0,1
0,45,0,0
0,36,0,1
0,40,127,1
0,59,101,0
0,52,99,0
0,47,99,0
0,40,101,0
0,57,127,0
0,36,127,0
0,40,0,6
0,47,0,3
0,40,0,29
0,40,127,2
0,52,0,32
0,59,0,1
0,40,0,4
0,40,127,3
0,52,98,0
0,59,102,0
0,47,100,0
0,40,103,0
0,40,0,6
0,47,0,3
0,40,0,28
0,36,0,1
0,57,0,0
0,40,127,2
0,64,112,0
0,69,110,0
0,61,111,0
0,57,110,0
0,40,127,0
0,59,127,0
0,59,0,2
0,52,0,1
0,40,0,33
0,40,127,4
0,40,0,37
0,40,127,3
0,69,0,35
0,57,0,1
0,40,0,1
0,61,0,1
0,59,0,0
0,40,0,0
0,64,0,1
0,40,127,1
0,59,100,0
0,52,98,0
0,47,102,0
0,40,100,0
0,59,127,0
0,36,127,0
0,40,0,6
0,47,0,0
0,40,0,30
0,40,127,4
0,52,0,31
0,59,0,1
0,40,0,7
0,40,127,1
0,59,103,0
0,52,103,0
0,40,102,0
0,47,101,0
0,47,0,6
0,40,0,1
0,40,0,31
0,36,0,0
0,59,0,0
0,40,127,2
0,67,110,0
0,62,113,0
0,59,109,0
0,55,111,0
0,59,127,0
0,40,127,0
0,52,0,4
0,59,0,0
0,40,0,32
0,40,127,4
0,40,0,35
0,40,127,5
0,55,0,35
0,62,0,1
0,59,0,0
0,40,0,1
0,67,0,0
0,40,0,1
0,59,0,0
0,40,127,2
0,52,109,0
0,59,112,0
0,47,102,0
0,40,100,0
0,36,127,0
0,59,127,0
0,40,0,9
0,47,0,0
0,40,0,26
0,40,127,5
0,59,0,31
0,52,0,3
0,40,0,2
0,40,127,4
0,59,101,0
0,52,100,0
0,40,101,0
0,47,100,0
0,47,0,7
0,40,0,0
0,40,0,28
0,59,0,3
0,36,0,0
0,40,127,2
0,73,113,0
0,69,110,0
0,57,112,0
0,61,108,0
0,40,127,0
0,59,127,0
0,52,0,3
0,59,0,0
0,40,0,33
0,40,127,4
0,73,0,30
0,69,0,0
0,61,0,2
0,57,0,2
0,40,0,5
0,40,127,1
0,67,113,0
0,55,112,0
0,59,112,0
0,40,0,7
0,59,0,2
0,40,0,0
0,40,127,2
0,36,127,0
0,59,127,0
0,40,0,37
0,40,127,3
0,40,0,1
0,40,127,2
0,40,0,4
0,59,0,3
0,36,0,0
0,40,127,2
0,62,110,0
0,59,0,0
0,45,108,0
0,40,127,0
0,59,127,0
0,67,0,1
0,55,0,0
0,40,0,35
0,40,127,4
0,40,0,1
0,45,0,0
0,40,127,1
0,50,111,0
0,62,0,20
0,40,0,13
0,50,0,0
0,59,0,2
0,40,0,0
0,40,127,1
0,59,100,0
0,52,99,0
0,47,98,0
0,40,103,0
0,59,127,0
0,36,127,0
0,40,0,6
0,47,0,1
0,52,0,63
0,59,0,3
0,40,0,5
0,35,127,2
0,52,99,0
0,59,102,0
0,40,103,0
0,47,98,0
0,47,0,9
0,40,0,0
0,35,0,26
0,36,0,3
0,59,0,0
0,38,127,2
0,64,109,0
0,69,111,0
0,57,111,0
0,61,108,0
0,59,127,0
0,40,127,0
0,59,0,1
0,52,0,0
0,38,0,74
0,40,127,5
0,69,0,35
0,64,0,1
0,61,0,0
0,40,0,1
0,57,0,1
0,40,0,0
0,59,0,0
0,52,100,2
0,59,100,0
0,40,100,0
0,47,98,0
0,59,127,0
0,36,127,0
0,47,0,6
0,40,0,2
0,59,0,63
0,52,0,2
0,35,127,7
0,59,103,0
0,52,100,0
0,40,99,0
0,47,98,0
0,47,0,5
0,40,0,1
0,35,0,32
0,36,0,0
0,59,0,0
0,35,127,2
0,67,113,0
0,62,110,0
0,55,112,0
0,59,108,0
0,59,127,0
0,40,127,0
0,52,0,3
0,59,0,0
0,35,0,73
0,38,127,4
0,62,0,35
0,59,0,0
0,38,0,1
0,55,0,0
0,40,0,2
0,59,0,0
0,67,0,1
0,40,127,1
0,59,110,0
0,52,113,0
0,40,102,0
0,47,98,0
0,59,127,0
0,36,127,0
0,47,0,5
0,40,0,2
0,52,0,65
0,59,0,0
0,40,0,4
0,35,127,4
0,59,98,0
0,52,102,0
0,47,98,0
0,40,98,0
0,40,0,7
0,47,0,2
0,35,0,26
0,36,0,3
0,59,0,0
0,38,127,2
0,69,110,0
0,73,109,0
0,61,112,0
0,57,111,0
0,59,127,0
0,40,127,0
0,52,0,1
0,59,0,1
0,57,0,69
0,61,0,1
0,73,0,1
0,69,0,1
0,38,0,3
0,40,127,3
0,67,110,0
0,59,111,0
0,55,113,0
0,40,0,9
0,40,0,0
0,59,0,0
0,59,127,2
0,36,127,0
0,55,0,0
0,59,0,0
0,36,0,0
0,59,0,0
0,38,127,2
0,45,101,0
0,62,127,0
0,40,127,0
0,57,127,0
0,57,0,7
0,40,0,0
0,62,110,0
0,62,0,0
0,64,127,0
0,67,0,4
0,64,0,0
0,67,127,0
0,62,0,1
0,38,0,1
0,28,127,1
0,59,110,0
0,52,113,0
0,47,103,0
0,40,98,0
0,59,127,0
0,36,127,0
0,45,0,2
0,40,0,5
0,47,0,0
0,52,0,63
0,59,0,3
0,67,0,1
0,28,0,3
0,35,127,2
0,52,98,0
0,59,103,0
0,40,99,0
0,47,102,0
0,66,127,0
0,47,0,5
0,40,0,2
0,35,0,28
0,36,0,0
0,59,0,0
0,38,127,2
0,69,113,0
0,64,113,0
0,61,111,0
0,57,112,0
0,59,127,0
0,40,127,0
0,59,0,2
0,52,0,1
0,66,0,70
0,38,0,4
0,40,127,1
0,64,127,0
0,64,0,35
0,57,0,2
0,69,0,1
0,40,0,0
0,59,0,0
0,40,0,1
0,61,0,0
0,52,110,1
0,59,108,0
0,40,103,0
0,47,99,0
0,59,127,0
0,36,127,0
0,47,0,6
0,40,0,1
0,59,0,64
0,52,0,3
0,35,127,6
0,52,100,0
0,59,101,0
0,40,98,0
0,47,101,0
0,47,0,6
0,40,0,0
0,35,0,30
0,64,0,2
0,36,0,0
0,59,0,0
0,35,127,2
0,62,112,0
0,67,108,0
0,55,112,0
0,59,108,0
0,40,127,0
0,59,127,0
0,59,0,1
0,52,0,2
0,35,0,73
0,38,127,4
0,67,0,35
0,59,0,0
0,55,0,0
0,38,0,2
0,59,0,1
0,40,0,0
0,62,0,1
0,40,127,1
0,59,111,0
0,52,110,0
0,40,100,0
0,47,103,0
0,36,127,0
0,59,127,0
0,47,0,6
0,40,0,2
0,52,0,63
0,59,0,3
0,40,0,2
0,35,127,4
0,59,101,0
0,52,103,0
0,47,103,0
0,40,99,0
0,40,0,8
0,47,0,1
0,35,0,26
0,59,0,3
0,36,0,0
0,38,127,2
0,64,109,0
0,69,108,0
0,57,110,0
0,61,112,0
0,59,127,0
0,40,127,0
0,52,0,1
0,59,0,2
0,69,0,67
0,61,0,1
0,64,0,2
0,57,0,1
0,38,0,1
0,40,127,5
0,67,112,0
0,55,108,0
0,59,109,0
0,40,0,37
0,40,0,1
0,59,0,0
0,59,127,0
0,36,127,0
0,59,0,12
0,55,0,0
0,36,0,3
0,59,0,0
0,35,127,2
0,45,98,0
0,64,127,0
0,57,127,0
0,40,127,0
0,40,0,38
0,57,0,0
0,64,127,2
0,64,0,2
0,64,0,25
0,66,127,5
0,35,0,1
0,28,127,1
0,59,111,0
0,52,112,0
0,45,0,0
0,40,98,0
0,47,101,0
0,59,127,0
0,36,127,0
0,67,0,1
0,47,0,4
0,40,0,3
0,52,0,62
0,59,0,3
0,28,0,4
0,35,127,3
0,59,98,0
0,52,100,0
0,47,102,0
0,40,102,0
0,40,0,5
0,47,0,4
0,36,0,29
0,59,0,0
0,35,0,1
0,66,0,0
0,38,127,1
0,69,111,0
0,64,110,0
0,61,110,0
0,57,111,0
0,62,127,0
0,40,127,0
0,59,127,0
0,52,0,4
0,59,0,0
0,62,0,68
0,38,0,3
0,40,127,5
0,64,127,0
0,40,0,35
0,64,0,1
0,69,0,2
0,57,0,0
0,59,0,0
0,40,0,0
0,61,0,1
0,59,111,1
0,52,110,0
0,40,102,0
0,47,99,0
0,59,127,0
0,36,127,0
0,47,0,6
0,40,0,2
0,52,0,64
0,59,0,1
0,35,127,7
0,59,100,0
0,52,99,0
0,40,100,0
0,47,101,0
0,47,0,6
0,40,0,1
0,35,0,30
0,36,0,1
0,59,0,0
0,35,127,2
0,62,111,0
0,67,110,0
0,59,113,0
0,55,109,0
0,59,127,0
0,40,127,0
0,52,0,2
0,59,0,1
0,35,0,75
0,38,127,2
0,67,0,35
0,55,0,2
0,40,0,1
0,59,0,0
0,38,0,1
0,62,0,0
0,59,0,0
0,64,0,0
0,40,127,1
0,52,108,0
0,59,112,0
0,47,102,0
0,40,103,0
0,59,127,0
0,36,127,0
0,40,0,5
0,47,0,2
0,59,0,65
0,52,0,0
0,40,0,3
0,35,127,5
0,59,102,0
0,52,103,0
0,47,101,0
0,40,101,0
0,40,0,6
0,47,0,1
0,35,0,28
0,36,0,3
0,59,0,0
0,38,127,2
0,64,111,0
0,69,111,0
0,61,111,0
0,57,112,0
0,59,127,0
0,40,127,0
0,52,0,3
0,59,0,0
0,57,0,67
0,61,0,0
0,69,0,1
0,64,0,3
0,38,0,4
0,40,127,1
0,67,112,0
0,59,111,0
0,55,109,0
0,40,0,38
0,59,0,0
0,40,0,1
0,59,127,0
0,36,127,0
0,55,0,1
0,59,0,2
0,36,0,0
0,59,0,0
0,35,127,2
0,45,98,0
0,64,127,0
0,40,127,0
0,57,127,0
0,57,0,38
0,40,0,0
0,64,0,2
0,62,127,0
0,62,0,23
0,64,127,5
0,35,0,5
0,28,127,1
0,59,111,0
0,52,112,0
0,47,101,0
0,40,102,0
0,36,127,0
0,59,127,0
0,67,0,2
0,45,0,1
0,40,0,2
0,47,0,1
0,52,0,64
0,59,0,3
0,28,0,5
0,35,127,2
0,52,98,0
0,59,99,0
0,40,103,0
0,47,99,0
0,47,0,7
0,40,0,2
0,35,0,27
0,64,0,2
0,59,0,0
0,36,0,0
0,38,127,2
0,59,0,0
0,64,112,0
0,69,111,0
0,57,111,0
0,61,110,0
0,67,127,0
0,59,127,0
0,40,127,0
0,52,0,3
0,67,0,66
0,38,0,4
0,40,127,1
0,64,127,0
0,61,0,1
0,69,0,1
0,40,0,1
0,40,0,0
0,59,0,0
0,64,0,1
0,57,0,0
0,52,110,1
0,59,112,0
0,47,99,0
0,40,103,0
0,59,127,0
