track,note,velocity,time
3,55,53,1140
3,71,61,84
3,67,63,96
3,55,33,52
3,71,63,48
3,67,60,36
3,55,66,48
3,71,61,48
3,55,35,32
3,71,60,40
3,67,26,52
3,55,51,52
3,71,82,40
3,67,50,52
3,55,44,44
3,71,54,32
3,55,54,20
3,69,73,104
3,67,45,84
3,55,42,52
3,69,73,44
3,67,44,48
3,55,60,36
3,69,56,40
3,55,44,48
3,69,66,36
3,67,53,40
3,55,58,44
3,69,75,56
3,67,78,52
3,55,51,44
3,69,63,44
3,55,61,48
3,69,48,40
3,67,40,48
3,55,37,44
3,69,79,52
3,67,81,52
3,55,61,40
3,69,76,48
3,55,44,52
3,69,48,44
3,67,50,52
3,55,66,44
3,69,80,56
3,67,85,52
3,55,66,44
3,69,67,48
3,55,66,52
3,67,61,92
3,62,63,92
3,55,67,44
3,67,63,36
3,62,45,32
3,55,33,44
3,67,45,28
3,55,33,56
3,67,56,32
3,62,53,36
3,55,33,44
3,67,70,40
3,62,53,36
3,55,72,48
3,67,75,36
3,55,61,32
3,71,63,100
3,67,63,100
3,55,54,48
3,71,70,40
3,67,68,48
3,55,70,52
3,71,70,52
3,55,61,56
3,71,77,48
3,67,70,48
3,55,50,48
3,71,79,48
3,67,79,52
3,55,83,44
3,71,67,44
3,55,73,44
3,69,73,92
3,67,46,100
3,55,68,8
3,69,73,96
3,67,83,52
3,55,48,48
3,69,68,60
3,55,72,56
3,69,72,44
3,67,66,56
3,55,48,52
3,69,73,56
3,67,69,44
3,55,45,44
3,69,65,48
3,55,82,52
3,69,74,44
3,67,47,64
3,55,43,48
3,69,63,48
3,67,73,48
3,55,50,36
3,69,58,36
3,55,53,52
3,69,76,48
3,67,85,64
3,55,58,52
3,69,81,48
3,67,80,32
3,55,82,32
3,69,83,52
3,55,87,28
3,67,69,96
3,62,54,92
3,55,54,40
3,67,69,32
3,62,50,36
3,55,39,44
3,67,68,36
3,55,68,20
3,67,61,20
3,62,50,36
3,55,50,52
3,67,60,44
3,62,51,36
3,55,81,44
3,67,57,36
3,55,67,48
3,71,70,100
3,67,62,96
3,55,68,44
3,71,73,40
3,67,47,40
3,55,50,52
3,71,67,44
3,55,61,48
3,71,70,48
3,67,82,48
3,55,77,44
3,71,73,44
3,67,83,48
3,55,81,40
3,71,81,44
3,55,94,40
3,69,67,100
3,67,50,96
3,55,60,52
3,69,73,56
3,67,75,48
3,55,46,44
3,69,75,52
3,55,74,32
3,69,70,36
3,67,42,44
3,55,58,48
3,69,77,48
3,67,58,40
3,55,58,48
3,69,66,56
3,55,73,44
3,69,68,32
3,67,61,40
3,55,58,44
3,69,79,40
3,67,58,28
3,55,70,36
3,69,80,48
3,55,45,60
3,69,74,40
3,67,66,44
3,55,79,48
3,69,74,40
3,67,68,36
3,55,50,48
3,69,67,40
3,55,81,24
3,67,68,104
3,62,54,88
3,55,53,40
3,67,73,52
3,62,51,48
3,55,58,52
3,67,68,52
3,55,56,52
3,67,77,40
3,62,81,52
3,55,75,44
3,67,61,40
3,62,74,28
3,55,85,36
3,67,66,44
3,55,91,8
3,71,45,104
3,67,81,92
3,55,50,48
3,71,76,44
3,67,77,48
3,55,70,40
3,71,61,36
3,55,73,44
3,71,60,40
3,67,44,44
3,55,58,44
3,71,84,56
3,67,84,48
3,55,82,48
3,71,82,36
3,55,61,44
3,69,81,100
3,67,81,88
3,55,75,56
3,69,76,48
3,67,77,44
3,55,44,40
3,69,61,48
3,55,80,48
3,69,79,40
3,67,85,64
3,55,81,52
3,69,80,44
3,67,65,40
3,55,40,36
3,69,77,40
3,55,85,44
3,69,75,28
3,67,63,28
3,55,80,44
3,69,76,32
3,67,66,24
3,55,66,44
3,69,61,44
3,55,56,32
3,69,73,36
3,67,63,40
3,55,73,40
3,69,75,28
3,67,60,24
3,55,69,48
3,69,74,44
3,55,82,36
3,67,65,104
3,62,57,96
3,55,54,40
3,67,75,44
3,62,78,44
3,55,73,40
3,67,70,32
3,55,56,36
3,67,72,40
3,62,80,48
3,55,44,40
3,67,79,44
3,62,57,40
3,55,88,36
3,67,79,52
3,60,88,36
3,69,70,92
3,65,68,92
3,60,70,48
3,69,79,36
3,65,74,48
3,60,87,44
3,69,75,36
3,60,83,52
3,67,68,96
3,64,70,96
3,60,69,48
3,67,68,36
3,64,79,48
3,60,69,52
3,67,58,32
3,43,74,20
3,50,90,192
3,55,61,76
3,60,81,100
3,59,77,8
3,57,74,24
3,59,77,16
3,50,35,60
3,59,68,56
3,55,44,96
3,50,35,28
3,43,99,4
3,45,95,16
3,46,102,32
3,47,114,16
3,59,55,192
3,62,60,92
3,54,63,196
3,62,40,76
3,46,55,8
3,52,33,40
3,55,64,96
3,61,72,84
3,55,65,20
3,61,74,20
3,45,62,40
3,60,70,100
3,57,58,96
3,52,81,92
3,60,73,44
3,57,62,60
3,52,80,52
3,67,86,4
3,64,86,8
3,60,85,12
3,55,87,60
3,71,83,96
3,67,43,96
3,55,51,48
3,71,75,48
3,67,51,60
3,55,66,56
3,71,53,44
3,55,42,48
3,71,53,36
3,67,72,44
3,55,44,60
3,71,75,32
3,67,53,24
3,55,77,68
3,71,47,40
3,55,80,32
3,69,67,96
3,67,45,96
3,55,40,64
3,69,73,48
3,67,61,56
3,55,62,60
3,69,56,36
3,69,67,40
3,67,45,44
3,55,74,92
3,69,68,36
3,67,63,52
3,55,88,60
3,69,62,32
3,55,63,64
3,69,67,40
3,67,52,44
3,55,46,60
3,69,77,44
3,67,69,44
3,55,87,48
3,69,76,56
3,55,42,32
3,69,58,32
3,67,50,32
3,55,73,48
3,69,45,44
3,67,39,48
3,55,66,56
3,69,56,52
3,55,63,32
3,67,63,96
3,62,62,92
3,55,58,64
3,67,70,48
3,62,58,24
3,55,70,56
3,67,68,44
3,55,66,44
3,67,73,36
3,62,60,56
3,55,80,44
3,67,65,52
3,62,80,44
3,55,90,48
3,67,54,68
3,55,91,56
3,71,51,104
3,67,67,88
3,55,61,68
3,71,67,40
3,67,75,44
3,55,48,48
3,71,53,48
3,55,60,60
3,71,75,44
3,67,56,48
3,55,81,60
3,71,77,40
3,67,70,52
3,55,88,52
3,71,69,40
3,55,92,40
3,69,63,96
3,67,68,96
3,55,58,48
3,69,70,52
3,67,56,44
3,55,73,96
3,69,79,48
3,55,51,48
3,69,70,40
3,67,62,44
3,55,72,48
3,69,75,44
3,67,57,44
3,55,67,40
3,69,56,44
3,55,60,48
3,69,68,36
3,67,73,48
3,55,42,44
3,69,48,40
3,67,50,44
3,55,50,32
3,69,70,44
3,55,68,40
3,69,76,40
3,67,86,60
3,55,66,64
3,69,75,40
3,67,83,36
3,55,78,44
3,69,56,40
3,55,79,40
3,67,44,96
3,62,45,92
3,55,83,32
3,67,68,40
3,62,58,40
3,55,65,44
3,67,75,48
3,55,74,48
3,67,69,40
3,62,58,44
3,55,88,52
3,67,73,44
3,62,62,44
3,55,98,52
3,67,78,40
3,55,52,24
3,71,77,104
3,67,48,100
3,55,58,56
3,71,79,48
3,67,66,60
3,55,81,56
3,71,73,36
3,55,78,56
3,71,73,32
3,67,66,56
3,55,79,56
3,71,73,28
3,67,67,44
3,55,83,56
3,71,54,32
3,55,51,40
3,69,68,92
3,67,65,96
3,55,56,56
3,69,70,36
3,67,68,40
3,55,77,64
3,69,77,40
3,55,78,56
3,69,70,40
3,67,67,32
3,55,56,60
3,69,70,44
3,67,77,48
3,55,87,52
3,69,79,44
3,55,84,48
3,69,72,44
3,67,76,52
3,55,78,56
3,69,70,44
3,67,74,44
3,55,45,56
3,69,77,48
3,55,45,32
3,69,67,36
3,67,81,44
3,55,67,64
3,69,76,44
3,67,81,32
3,55,81,64
3,69,70,40
3,55,80,44
3,67,62,96
3,62,67,92
3,55,87,48
3,67,68,48
3,62,63,56
3,55,68,68
3,67,81,0
3,55,86,92
3,67,76,40
3,62,65,48
3,55,87,52
3,67,76,52
3,62,56,44
3,55,99,52
3,64,52,12
3,60,94,36
3,69,70,76
3,65,66,92
3,60,70,64
3,69,73,48
3,65,80,44
3,60,83,64
3,69,72,44
3,60,101,64
3,67,63,92
3,64,66,96
3,60,74,72
3,67,76,44
3,64,65,40
3,60,89,60
3,67,75,40
3,59,93,132
3,50,77,100
3,55,79,88
3,60,86,32
3,59,63,0
3,57,73,24
3,59,93,88
3,59,86,16
3,55,65,104
3,50,63,92
3,43,94,52
3,45,73,68
3,46,81,24
3,47,87,96
3,59,70,204
3,62,84,96
3,59,60,72
3,62,86,20
3,46,81,64
3,61,84,104
3,46,70,60
3,61,70,72
3,46,61,44
3,61,84,44
3,45,66,16
3,60,73,96
3,57,83,88
3,52,75,100
3,60,77,64
3,57,82,44
3,52,73,44
3,50,73,140
3,60,102,8
3,64,104,8
3,67,97,4
3,55,97,16
3,71,88,92
3,67,90,92
3,55,85,60
3,71,79,60
3,67,61,52
3,55,90,64
3,71,88,44
3,55,76,44
3,71,65,32
3,67,52,40
3,55,87,60
3,71,88,44
3,67,73,44
3,55,85,60
3,71,54,32
3,55,94,48
3,69,80,96
3,67,66,92
3,55,92,44
3,69,82,40
3,67,70,48
3,55,94,60
3,69,86,52
3,55,73,64
3,69,60,36
3,67,81,44
3,55,94,56
3,69,90,48
3,67,79,56
3,55,86,60
3,69,58,44
3,55,88,40
3,69,78,40
3,67,60,52
3,55,81,52
3,69,78,52
3,67,84,48
3,55,96,52
3,69,80,44
3,55,59,36
3,69,77,28
3,67,73,48
3,55,85,56
3,69,75,40
3,67,81,48
3,55,86,48
3,69,59,52
3,55,73,32
3,67,73,96
3,62,78,100
3,55,66,56
3,67,73,48
3,62,63,48
3,55,77,56
3,67,76,44
3,55,57,52
3,67,70,32
3,62,68,60
3,55,82,56
3,67,75,48
3,62,69,44
3,55,98,36
3,64,65,12
3,55,98,8
3,71,80,100
3,67,75,96
3,55,56,52
3,71,81,44
3,67,77,56
3,55,66,64
3,71,84,48
3,55,52,60
3,71,76,24
3,67,81,56
3,55,94,44
3,71,80,44
3,67,85,44
3,55,91,52
3,71,61,44
3,55,72,48
3,69,78,96
3,67,56,96
3,55,85,56
3,69,76,52
3,67,81,52
3,55,68,60
3,69,75,44
3,55,53,60
3,69,77,48
3,67,81,52
3,55,50,52
3,69,70,44
3,67,84,52
3,55,85,48
3,69,59,40
3,55,87,40
3,69,82,44
3,67,81,52
3,55,83,52
3,69,81,48
3,67,80,56
3,55,88,56
3,69,78,0
3,55,83,96
3,69,79,40
3,67,84,44
3,55,80,48
3,69,76,44
3,67,85,44
3,55,90,52
3,55,90,48
3,67,66,4
3,62,70,8
3,55,101,27628
3,59,99,28
3,67,95,28
3,57,87,104
3,61,92,0
3,67,85,48
3,57,104,328
3,60,104,20
3,67,98,36
3,50,58,288
3,55,81,12
3,59,79,28
3,67,83,28
3,67,103,100
3,62,84,100
3,59,84,100
3,67,93,12
3,62,89,28
3,67,98,8
3,60,81,152
3,65,70,100
3,69,54,100
3,65,68,28
3,69,77,28
3,67,86,136
3,64,54,96
3,60,74,88
3,67,77,28
3,64,75,36
3,60,82,28
3,59,94,172
3,50,79,96
3,55,68,92
3,60,113,28
3,59,98,4
3,57,81,8
3,59,92,4
3,59,89,36
3,55,74,100
3,50,78,96
3,43,100,92
3,45,100,16
3,46,95,16
3,47,101,100
3,54,61,52
3,59,77,32
3,62,84,4
3,62,57,28
3,52,63,164
3,58,81,0
3,61,77,44
3,61,62,156
3,60,86,0
3,57,87,96
3,52,63,96
3,60,95,24
3,57,73,48
3,50,63,96
3,60,73,84
3,64,75,20
3,67,79,24
3,71,51,104
3,67,69,104
3,55,83,96
3,71,53,52
3,67,61,64
3,55,77,36
3,71,63,36
3,71,79,48
3,67,98,48
3,55,81,48
3,71,54,40
3,67,101,44
3,55,65,48
3,55,73,56
3,69,86,92
3,67,94,48
3,55,68,40
3,69,74,48
3,67,89,48
3,55,84,56
3,69,90,92
3,69,87,28
3,67,98,36
3,55,89,48
3,69,62,28
3,67,106,48
3,55,100,52
3,55,96,44
3,69,73,88
3,67,107,56
3,55,87,44
3,69,92,56
3,67,104,44
3,55,91,40
3,69,88,40
3,69,75,36
3,67,83,56
3,55,90,56
3,69,73,48
3,67,92,52
3,55,81,48
3,55,82,52
3,62,88,200
3,55,88,56
3,67,88,96
3,62,98,56
3,55,100,48
3,67,88,36
3,55,101,32
3,67,83,44
3,62,109,52
3,55,100,44
3,67,91,48
3,62,108,48
3,55,90,48
3,51,75,6148
3,63,66,180
3,67,61,104
3,63,51,24
3,67,58,20
3,63,63,24
3,69,72,32
3,63,70,16
3,69,62,24
3,51,66,8
3,63,72,180
3,67,69,100
3,63,67,16
3,67,60,20
3,63,58,20
3,51,66,12
3,63,77,96
3,67,72,96
3,65,83,28
3,69,44,4
3,67,50,24
3,58,53,84
3,62,76,188
3,58,53,24
3,65,82,80
3,62,70,64
3,57,45,76
3,60,37,192
3,63,98,24
3,62,89,0
3,60,74,24
3,58,23,20
3,58,56,48
3,62,66,192
3,58,61,24
3,65,96,100
3,62,84,32
3,55,63,56
3,58,63,88
3,63,87,100
3,63,98,76
3,62,87,0
3,58,82,92
3,53,69,16
3,58,75,20
3,63,47,96
3,58,63,16
3,67,92,92
3,63,50,20
3,58,62,24
3,67,81,20
3,60,62,4
3,65,51,104
3,60,62,20
3,69,87,100
3,60,61,16
3,65,54,4
3,60,66,8
3,58,77,4
3,67,73,8
3,63,48,92
3,58,79,24
3,67,95,12
3,63,62,4
3,63,66,12
3,58,70,8
3,67,85,20
3,60,76,0
3,65,61,100
3,60,72,16
3,69,87,96
3,60,73,16
3,65,68,4
3,60,70,12
3,62,75,4
3,65,54,100
3,62,61,20
3,70,98,92
3,65,72,4
3,62,72,28
3,65,75,88
3,62,77,20
3,70,78,24
3,63,68,16
3,65,51,28
3,63,74,16
3,70,93,24
3,63,66,12
3,65,70,32
3,63,60,16
3,65,66,24
3,62,76,12
3,65,54,24
3,62,80,24
3,70,94,28
3,65,57,4
3,62,80,12
3,65,68,88
3,62,73,16
3,65,62,20
3,62,68,16
3,67,50,64
3,63,75,92
3,70,104,12
3,65,79,8
3,62,77,16
3,65,80,24
3,62,89,16
3,65,77,8
3,70,81,28
3,55,94,5828
3,62,81,88
3,67,33,100
3,55,89,44
3,62,80,76
3,67,72,60
3,55,86,40
3,62,63,72
3,67,47,56
3,55,84,20
3,69,66,88
3,67,66,100
3,55,74,56
3,69,58,44
3,67,58,60
3,55,73,52
3,69,57,36
3,67,76,48
3,55,81,20
3,69,39,96
3,67,69,64
3,55,69,60
3,69,57,52
3,55,61,36
3,55,80,28
3,69,70,92
3,67,81,96
3,55,62,52
3,69,45,40
3,67,65,52
3,55,47,48
3,69,39,44
3,67,68,48
3,55,42,40
3,69,40,48
3,67,75,56
3,55,56,44
3,69,68,48
3,67,77,52
3,55,42,56
3,67,31,100
3,62,68,92
3,55,39,40
3,67,40,56
3,62,71,48
3,55,42,44
3,67,48,56
3,62,79,52
3,55,47,44
3,67,53,48
3,62,71,64
3,55,61,60
3,67,57,44
3,62,79,48
3,55,82,64
3,71,63,100
3,67,75,96
3,55,70,44
3,71,75,44
3,67,74,56
3,55,65,48
3,71,47,52
3,67,80,44
3,55,69,32
3,71,62,44
3,67,77,56
3,55,58,52
3,71,47,52
3,67,74,52
3,55,70,60
3,69,54,96
3,67,79,104
3,55,53,60
3,69,76,44
3,67,77,60
3,55,55,60
3,69,63,60
3,67,72,56
3,55,61,20
3,69,47,56
3,67,68,56
3,55,60,68
3,69,51,56
3,55,61,12
3,55,73,20
3,69,73,88
3,67,71,92
3,55,69,16
3,69,64,56
3,67,69,44
3,55,68,56
3,69,44,40
3,67,69,44
3,55,70,60
3,69,66,40
3,67,58,36
3,55,53,60
3,69,63,44
3,67,70,36
3,55,53,100
3,67,48,84
3,62,67,96
3,55,53,48
3,67,61,44
3,62,48,40
3,55,44,56
3,67,63,44
3,62,58,48
3,55,45,56
3,67,51,28
3,62,61,32
