track,note,velocity,time
0,35,116,234
0,35,0,1
0,38,42,45
0,40,40,0
0,40,0,1
0,38,0,0
0,38,95,1
0,40,93,0
0,40,0,1
0,38,0,0
0,38,42,45
0,40,40,0
0,40,0,1
0,38,0,0
0,38,110,1
0,40,108,0
0,40,0,1
0,38,0,0
0,35,104,46
0,35,0,1
0,38,42,22
0,40,40,0
0,40,0,1
0,38,0,0
0,38,103,1
0,40,101,0
0,40,0,1
0,38,0,0
0,38,42,45
0,40,40,0
0,40,0,1
0,38,0,0
0,38,103,1
0,40,101,0
0,40,0,1
0,38,0,0
0,38,88,46
0,40,86,0
0,40,0,1
0,38,0,0
0,43,74,23
0,43,0,1
0,35,106,0
0,35,0,1
0,43,98,23
0,43,0,1
0,41,109,22
0,41,0,1
0,35,104,0
0,35,0,1
0,41,106,23
0,41,0,1
0,35,115,23
0,35,0,1
0,38,42,45
0,40,40,0
0,40,0,1
0,38,0,0
0,38,103,1
0,40,101,0
0,40,0,1
0,38,0,0
0,38,42,45
0,40,40,0
0,40,0,1
0,38,0,0
0,38,101,1
0,40,99,0
0,40,0,1
0,38,0,0
0,35,107,47
0,35,0,1
0,38,42,21
0,40,40,0
0,40,0,1
0,38,0,0
0,38,99,1
0,40,97,0
0,40,0,1
0,38,0,0
0,38,42,45
0,40,40,0
0,40,0,1
0,38,0,0
0,38,101,1
0,40,99,0
0,40,0,1
0,38,0,0
0,38,90,46
0,40,88,0
0,40,0,1
0,38,0,0
0,35,109,24
0,38,90,0
0,40,88,0
0,40,0,1
0,38,0,0
0,35,0,0
0,38,46,11
0,40,44,0
0,40,0,1
0,38,0,0
0,38,80,11
0,40,78,0
0,40,0,1
0,38,0,0
0,38,62,11
0,40,60,0
0,40,0,1
0,38,0,0
0,35,107,11
0,38,100,0
0,40,98,0
0,40,0,1
0,38,0,0
0,35,0,0
0,38,48,11
0,40,46,0
0,40,0,1
0,38,0,0
0,38,84,11
0,40,82,0
0,40,0,1
0,38,0,0
0,38,68,11
0,40,66,0
0,40,0,1
0,38,0,0
0,56,100,10
0,35,116,0
0,35,0,1
0,55,100,0
0,38,42,28
0,40,40,0
0,40,0,1
0,38,0,0
0,38,95,1
0,40,93,0
0,40,0,1
0,38,0,0
0,56,0,42
0,55,0,1
0,38,42,0
0,40,40,0
0,40,0,1
0,38,0,0
0,55,90,0
0,55,93,1
0,38,110,0
0,40,108,0
0,40,0,1
0,38,0,0
0,35,104,3
0,35,0,1
0,38,42,22
0,40,40,0
0,40,0,1
0,38,0,0
0,38,103,1
0,40,101,0
0,40,0,1
0,38,0,0
0,55,0,1
0,55,0,2
0,55,91,1
0,55,95,1
0,38,42,10
0,40,40,0
0,40,0,1
0,38,0,0
0,38,103,1
0,40,101,0
0,40,0,1
0,38,0,0
0,38,88,46
0,40,86,0
0,40,0,1
0,38,0,0
0,55,0,3
0,55,0,1
0,55,98,1
0,55,91,0
0,43,73,0
0,43,0,1
0,35,106,0
0,35,0,1
0,43,97,8
0,43,0,1
0,41,110,22
0,41,0,1
0,35,104,0
0,35,0,1
0,41,108,23
0,41,0,1
0,55,0,2
0,55,0,3
0,55,101,1
0,55,92,0
0,35,115,1
0,35,0,1
0,38,42,31
0,40,40,0
0,40,0,1
0,38,0,0
0,38,103,1
0,40,101,0
0,40,0,1
0,38,0,0
0,55,0,6
0,55,0,2
0,38,42,0
0,40,40,0
0,40,0,1
0,38,0,0
0,55,96,0
0,55,89,0
0,38,101,0
0,40,99,0
0,40,0,1
0,38,0,0
0,35,107,36
0,35,0,1
0,38,42,21
0,40,40,0
0,40,0,1
0,38,0,0
0,38,99,1
0,40,97,0
0,40,0,1
0,38,0,0
0,55,0,3
0,55,0,0
0,55,94,1
0,55,89,0
0,38,42,11
0,40,40,0
0,40,0,1
0,38,0,0
0,38,101,1
0,40,99,0
0,40,0,1
0,38,0,0
0,38,90,14
0,40,88,0
0,40,0,1
0,38,0,0
0,55,0,18
0,55,0,1
0,55,93,1
0,55,90,0
0,35,109,1
0,38,90,0
0,40,88,0
0,40,0,1
0,35,0,0
0,38,0,0
0,38,46,0
0,40,44,0
0,40,0,1
0,38,0,0
0,38,80,11
0,40,78,0
0,40,0,1
0,38,0,0
0,38,62,11
0,40,60,0
0,40,0,1
0,38,0,0
0,35,107,11
0,38,100,0
0,40,98,0
0,40,0,1
0,35,0,0
0,38,0,0
0,31,93,0
0,31,98,0
0,38,48,10
0,40,46,0
0,40,0,1
0,38,0,0
0,31,0,7
0,31,0,0
0,32,102,4
0,32,107,0
0,38,84,0
0,40,82,0
0,40,0,1
0,38,0,0
0,38,68,0
0,40,66,0
0,40,0,1
0,55,0,0
0,38,0,0
0,55,0,1
0,56,100,1
0,55,91,0
0,35,116,1
0,35,0,1
0,32,0,0
0,32,0,0
0,33,110,0
0,33,115,0
0,59,109,0
0,47,117,0
0,38,42,2
0,40,40,0
0,40,0,1
0,38,0,0
0,38,95,1
0,40,93,0
0,40,0,1
0,38,0,0
0,47,0,4
0,59,0,0
0,56,0,2
0,55,0,1
0,59,109,0
0,47,117,0
0,38,42,0
0,40,40,0
0,40,0,1
0,38,0,0
0,55,93,0
0,55,93,1
0,38,110,0
0,40,108,0
0,40,0,1
0,38,0,0
0,35,104,34
0,35,0,1
0,38,42,2
0,40,40,0
0,40,0,1
0,38,0,0
0,38,103,1
0,40,101,0
0,40,0,1
0,38,0,0
0,59,0,2
0,47,0,0
0,55,0,1
0,59,107,0
0,47,115,0
0,55,0,1
0,55,84,1
0,55,95,1
0,38,42,4
0,40,40,0
0,40,0,1
0,38,0,0
0,38,103,1
0,40,101,0
0,40,0,1
0,38,0,0
0,38,88,0
0,40,86,0
0,40,0,1
0,38,0,0
0,47,0,1
0,59,0,0
0,55,0,1
0,59,105,1
0,47,113,0
0,55,0,1
0,55,98,1
0,55,83,0
0,43,73,0
0,43,0,1
0,35,106,0
0,35,0,1
0,33,0,2
0,33,0,0
0,43,99,0
0,43,0,1
0,41,112,0
0,41,0,1
0,35,106,0
0,35,111,0
0,35,104,0
0,35,0,1
0,41,109,16
0,41,0,1
0,55,0,6
0,47,0,1
0,59,0,0
0,55,0,1
0,62,108,0
0,50,116,0
0,55,101,1
0,55,89,0
0,35,115,0
0,35,0,1
0,35,0,0
0,35,0,0
0,33,112,0
0,33,117,0
0,38,42,2
0,40,40,0
0,40,0,1
0,38,0,0
0,38,103,1
0,40,101,0
0,40,0,1
0,38,0,0
0,55,0,1
0,62,0,1
0,50,0,0
0,62,112,0
0,50,120,0
0,55,0,1
0,38,42,0
0,40,40,0
0,40,0,1
0,38,0,0
0,55,96,0
0,55,88,0
0,38,101,0
0,40,99,0
0,40,0,1
0,38,0,0
0,62,0,5
0,50,0,0
0,55,0,1
0,33,0,1
0,33,0,0
0,65,112,0
0,53,120,0
0,55,0,1
0,55,94,1
0,55,81,0
0,63,94,0
0,63,99,0
0,35,107,0
0,38,83,0
0,40,81,0
0,40,0,1
0,38,0,0
0,35,0,0
0,63,0,1
0,63,0,0
0,63,84,0
0,63,89,0
0,38,42,1
0,40,40,0
0,40,0,1
0,38,0,0
0,63,0,1
0,63,84,1
0,38,75,0
0,40,73,0
0,40,0,1
0,38,0,0
0,38,59,0
0,40,57,0
0,40,0,1
0,38,0,0
0,63,0,0
0,63,0,1
0,61,82,0
0,61,87,0
0,35,106,8
0,38,96,0
0,40,94,0
0,40,0,1
0,38,0,0
0,35,0,0
0,61,0,0
0,61,0,0
0,61,82,1
0,61,87,0
0,61,0,5
0,61,0,0
0,61,81,0
0,61,86,0
0,38,46,0
0,40,44,0
0,40,0,1
0,38,0,0
0,61,0,3
0,61,0,0
0,60,84,1
0,60,89,0
0,38,83,0
0,40,81,0
0,40,0,1
0,38,0,0
0,60,0,1
0,60,84,1
0,38,68,1
0,40,66,0
0,40,0,1
0,38,0,0
0,60,0,1
0,60,0,1
0,58,82,0
0,58,87,0
0,55,0,1
0,58,0,1
0,55,0,0
0,58,0,0
0,65,0,1
0,53,0,0
0,55,93,1
0,58,81,0
0,55,89,0
0,65,111,0
0,53,119,0
0,58,86,0
0,35,112,0
0,38,98,0
0,40,96,0
0,40,0,1
0,38,0,0
0,35,0,0
0,58,0,3
0,58,0,0
0,57,83,0
0,57,88,0
0,38,46,0
0,40,44,0
0,40,0,1
0,38,0,0
0,57,0,5
0,57,0,0
0,57,78,1
0,57,83,0
0,38,81,0
0,40,79,0
0,40,0,1
0,38,0,0
0,57,0,6
0,57,0,0
0,56,77,0
0,56,82,0
0,38,64,3
0,40,62,0
0,40,0,1
0,38,0,0
0,56,0,4
0,56,0,0
0,56,77,1
0,56,82,0
0,35,108,0
0,38,104,0
0,40,102,0
0,40,0,1
0,38,0,0
0,35,0,0
0,56,0,3
0,56,0,0
0,55,73,1
0,55,78,0
0,55,0,3
0,55,0,0
0,38,50,0
0,40,48,0
0,40,0,1
0,38,0,0
0,54,68,1
0,54,73,0
0,54,0,1
0,54,0,0
0,38,89,1
0,40,87,0
0,40,0,1
0,38,0,0
0,53,67,1
0,53,72,0
0,53,0,4
0,53,0,0
0,53,0,1
0,65,0,0
0,55,0,0
0,53,59,1
0,53,64,0
0,38,73,0
0,40,71,0
0,40,0,1
0,55,0,0
0,38,0,0
0,53,0,4
0,53,0,0
0,45,109,2
0,33,106,0
0,33,111,0
0,35,115,0
0,57,104,0
0,57,0,1
0,35,0,0
0,45,104,0
0,64,107,1
0,52,115,0
0,33,0,15
0,33,0,0
0,64,0,1
0,52,0,0
0,45,0,1
0,45,96,1
0,45,0,1
0,33,91,1
0,45,89,0
0,64,103,0
0,52,111,0
0,33,96,0
0,52,0,19
0,64,0,0
0,33,0,1
0,33,0,0
0,38,103,3
0,40,101,0
0,42,106,0
0,42,0,1
0,38,0,0
0,45,0,0
0,45,0,0
0,40,0,0
0,43,107,0
0,62,109,0
0,50,117,0
0,31,107,1
0,43,101,0
0,31,112,0
0,31,0,18
0,31,0,0
0,43,0,1
0,50,0,1
0,62,0,0
0,43,0,2
0,40,83,0
0,28,73,1
0,60,85,0
0,48,93,0
0,28,78,0
0,40,88,1
0,28,0,19
0,28,0,0
0,40,0,0
0,40,0,2
0,38,101,1
0,40,99,0
0,42,121,0
0,42,0,1
0,38,0,0
0,60,0,0
0,48,0,0
0,40,0,0
0,33,112,0
0,45,103,0
0,64,105,0
0,52,113,0
0,33,117,0
0,45,101,1
0,52,0,3
0,64,0,0
0,45,0,0
0,45,0,6
0,35,107,9
0,35,0,1
0,33,0,1
0,33,0,0
0,38,99,22
0,40,97,0
0,42,102,0
0,42,0,1
0,40,0,0
0,38,0,0
0,48,102,45
0,36,103,1
0,64,111,0
0,52,119,0
0,36,108,0
0,48,99,0
0,38,101,0
0,40,99,0
0,42,118,0
0,42,0,1
0,40,0,0
0,38,0,0
0,38,90,1
0,40,88,0
0,40,0,1
0,38,0,0
0,52,0,1
0,64,0,0
0,62,111,0
0,50,119,0
0,48,0,1
0,47,103,0
0,36,0,1
0,36,0,0
0,48,0,0
0,35,111,0
0,47,104,0
0,35,116,0
0,35,109,0
0,35,0,1
0,38,80,23
0,40,78,0
0,40,0,1
0,38,0,0
0,50,0,15
0,62,0,0
0,47,0,3
0,35,0,1
0,35,0,0
0,60,89,2
0,48,97,0
0,45,105,1
0,47,0,1
0,35,107,0
0,43,110,0
0,43,0,1
0,35,0,0
0,45,95,0
0,33,98,0
0,33,103,0
0,60,0,10
0,48,0,0
0,43,49,2
0,43,0,1
0,45,0,2
0,43,72,8
0,43,0,1
0,33,0,3
0,33,0,0
0,45,0,0
0,38,77,8
0,40,75,0
0,40,0,1
0,38,0,0
0,65,111,9
0,53,119,0
0,53,108,1
0,29,104,1
0,53,108,0
0,29,109,0
0,35,116,0
0,49,100,0
0,49,0,1
0,35,0,0
0,60,95,0
0,60,93,1
0,65,43,3
0,38,95,1
0,40,93,0
0,42,109,0
0,42,0,1
0,38,0,0
0,40,0,0
0,65,0,2
0,65,0,1
0,53,0,0
0,60,0,1
0,65,81,0
0,60,0,1
0,60,82,1
0,65,93,0
0,65,108,0
0,53,116,0
0,60,87,1
0,29,0,10
0,29,0,0
0,31,87,0
0,31,92,0
0,60,0,3
0,65,0,1
0,53,0,2
0,65,0,0
0,53,0,0
0,60,0,0
0,65,0,1
0,38,110,0
0,40,108,0
0,42,121,0
0,42,0,1
0,38,0,0
0,53,0,0
0,40,0,0
0,60,102,0
0,65,110,0
0,53,118,0
0,65,92,1
0,53,103,0
0,65,98,0
0,53,113,0
0,60,100,0
0,31,0,1
0,31,0,0
0,41,103,0
0,41,108,0
0,35,104,0
0,35,0,1
0,38,103,1
0,40,101,0
0,42,112,0
0,42,0,1
0,40,0,0
0,38,0,0
0,65,0,3
0,53,0,0
0,62,53,0
0,50,61,0
0,50,0,5
0,62,0,0
0,59,34,0
0,47,42,0
0,47,0,1
0,59,0,0
0,35,110,1
0,35,0,1
0,35,114,2
0,35,0,1
0,38,42,5
0,40,40,0
0,40,0,1
0,38,0,0
0,38,103,1
0,40,101,0
0,40,0,1
0,38,0,0
0,35,116,12
0,35,0,1
0,41,0,12
0,41,0,0
0,38,69,0
0,38,74,0
0,43,84,2
0,43,0,1
0,35,106,0
0,35,0,1
0,43,109,0
0,43,0,1
0,38,0,1
0,38,0,0
0,35,56,0
0,35,61,0
0,35,0,3
0,35,0,0
0,41,123,1
0,41,0,1
0,35,104,0
0,35,0,1
0,65,0,6
0,65,0,1
0,41,123,2
0,41,0,1
0,60,0,1
0,60,0,2
0,53,0,6
0,53,0,5
0,58,116,0
0,46,121,0
0,35,115,0
0,57,91,0
0,57,0,1
0,35,0,0
0,43,111,0
0,50,101,0
0,31,112,0
0,50,98,0
0,43,106,0
0,31,117,0
0,55,66,1
0,38,103,5
0,40,101,0
0,42,106,0
0,42,0,1
0,38,0,0
0,40,0,0
0,38,101,0
0,40,99,0
0,42,115,0
0,42,0,1
0,38,0,0
0,40,0,0
0,35,107,0
0,38,100,0
0,40,98,0
0,40,0,1
0,35,0,0
0,38,0,0
0,50,0,4
0,43,0,1
0,55,0,1
0,58,0,2
0,46,0,0
0,38,48,0
0,40,46,0
0,40,0,1
0,38,0,0
0,31,0,9
0,50,0,0
0,31,0,0
0,41,94,2
0,41,0,1
0,43,0,1
0,38,68,10
0,40,66,0
0,40,0,1
0,38,0,0
0,33,112,10
0,33,117,0
0,64,117,1
0,52,121,0
0,35,107,0
0,49,104,0
0,49,0,1
0,35,0,0
0,45,113,0
0,45,109,1
0,52,101,0
0,57,83,0
0,52,99,0
0,38,101,1
0,40,99,0
0,40,0,1
0,38,0,0
0,52,0,1
0,64,0,0
0,64,110,0
0,52,119,0
0,52,0,20
0,52,0,1
0,64,0,0
0,35,109,0
0,38,90,0
0,40,88,0
0,40,0,1
0,38,0,0
0,35,0,0
0,57,0,0
0,64,101,1
0,52,115,0
0,45,0,1
0,52,0,12
0,45,0,6
0,38,80,3
0,40,78,0
0,40,0,1
0,38,0,0
0,64,0,3
0,52,0,0
0,38,62,8
0,40,60,0
0,40,0,1
0,38,0,0
0,33,0,10
0,33,0,0
0,31,107,0
0,31,112,0
0,35,109,1
0,43,90,0
0,43,0,1
0,35,0,0
0,50,93,0
0,43,109,0
0,43,113,0
0,62,108,0
0,50,117,0
0,50,87,1
0,55,6,0
0,43,58,10
0,43,0,1
0,50,0,10
0,62,0,0
0,50,0,0
0,41,94,1
0,41,0,1
0,55,0,2
0,50,0,2
0,43,0,1
0,43,0,0
0,41,78,6
0,41,0,1
0,31,0,0
0,31,0,0
0,29,112,10
0,29,117,0
0,60,111,1
0,48,120,0
0,35,115,0
0,57,98,0
0,57,0,1
0,35,0,0
0,48,107,0
0,41,102,1
0,41,115,0
0,48,90,1
0,38,103,1
0,40,101,0
0,42,104,0
0,42,0,1
0,40,0,0
0,38,0,0
0,41,0,4
0,48,0,2
0,41,0,2
0,60,0,2
0,48,0,0
0,62,111,0
