track,note,velocity,time
1,31,27,0
1,38,24,4
1,86,22,0
1,91,25,0
1,43,25,0
1,98,42,4
1,74,20,504
1,62,16,6
1,55,17,8
1,50,11,0
1,67,15,2
1,76,36,250
1,64,23,6
1,69,23,2
1,57,21,2
1,52,21,2
1,83,70,270
1,76,27,2
1,71,41,2
1,59,13,4
1,64,31,0
1,79,32,294
1,86,44,2
1,74,28,2
1,62,17,0
1,67,24,2
1,88,24,286
1,76,10,10
1,81,19,2
1,69,9,0
1,64,22,0
1,38,28,888
1,31,33,300
1,38,20,22
1,41,24,306
1,86,31,0
1,36,24,4
1,91,14,0
1,29,26,0
1,98,27,4
1,74,26,442
1,67,24,0
1,55,19,2
1,62,17,2
1,50,16,4
1,69,27,234
1,76,43,0
1,52,27,2
1,57,18,2
1,64,31,0
1,83,72,256
1,76,31,6
1,59,28,6
1,71,29,0
1,64,33,4
1,86,56,256
1,74,46,0
1,79,44,2
1,67,25,4
1,62,25,2
1,88,29,306
1,76,22,10
1,81,22,0
1,69,9,10
1,64,19,0
1,36,25,764
1,29,28,316
1,36,28,116
1,98,34,530
1,91,15,4
1,86,30,2
1,40,35,2
1,35,29,0
1,28,21,2
1,74,31,496
1,67,25,4
1,50,24,6
1,62,16,2
1,55,24,0
1,76,41,254
1,64,35,4
1,69,24,4
1,57,20,4
1,52,28,0
1,83,67,264
1,71,36,0
1,64,17,2
1,76,30,0
1,59,3,4
1,86,45,222
1,79,38,4
1,62,30,4
1,74,38,2
1,67,19,0
1,88,44,298
1,76,25,4
1,64,17,2
1,64,40,476
1,88,63,2
1,76,44,0
1,88,38,584
1,76,39,6
1,64,39,0
1,88,68,596
1,76,29,2
1,64,42,4
1,85,59,310
1,73,34,10
1,61,22,4
1,88,70,440
1,76,37,6
1,64,34,0
1,75,43,492
1,87,67,0
1,63,40,2
1,92,54,398
1,80,35,6
1,68,31,0
1,88,67,406
1,76,33,6
1,64,45,12
1,85,62,402
1,73,41,4
1,61,26,2
1,80,61,454
1,76,52,4
1,88,68,2
1,68,43,4
1,64,47,0
1,56,34,0
1,88,62,198
1,82,48,4
1,70,48,4
1,58,30,0
1,64,44,4
1,76,40,2
1,87,72,216
1,75,62,8
1,63,56,2
1,88,66,186
1,76,51,0
1,64,44,2
1,83,85,2
1,71,52,0
1,59,26,2
1,80,70,188
1,68,57,4
1,56,38,6
1,88,78,94
1,82,63,2
1,70,56,4
1,76,50,0
1,58,35,10
1,64,37,2
1,87,72,144
1,75,74,10
1,63,65,8
1,88,59,166
1,73,36,6
1,85,46,0
1,61,28,2
1,76,37,2
1,64,41,0
1,87,41,200
1,75,46,14
1,63,38,4
1,88,27,160
1,83,40,4
1,71,21,2
1,59,16,0
1,76,19,4
1,64,19,0
1,28,9,30
1,40,38,2
1,47,37,560
1,38,29,268
1,26,22,8
1,31,27,564
1,95,13,0
1,36,25,2
1,24,26,6
1,83,40,2
1,88,12,0
1,57,21,420
1,74,22,2
1,67,19,0
1,62,13,2
1,50,16,4
1,43,32,4
1,76,33,238
1,59,23,4
1,52,31,2
1,69,24,0
1,64,22,4
1,45,23,0
1,83,61,12
1,71,21,8
1,76,26,2
1,57,16,270
1,43,27,2
1,86,34,4
1,50,27,0
1,74,23,0
1,79,31,2
1,88,37,264
1,81,26,4
1,45,26,0
1,59,26,4
1,76,27,2
1,52,38,0
1,95,34,414
1,83,58,0
1,88,21,0
1,24,33,4
1,36,13,2
1,31,31,4
1,57,35,328
1,88,42,0
1,50,32,8
1,76,17,2
1,81,25,2
1,43,24,0
1,86,45,248
1,74,35,10
1,79,42,0
1,52,35,0
1,59,22,4
1,45,28,2
1,76,32,40
1,83,52,0
1,71,32,2
1,76,35,392
1,69,14,6
1,57,22,4
1,64,22,2
1,50,21,0
1,43,24,0
1,74,30,398
1,67,21,6
1,45,16,2
1,52,25,0
1,62,15,2
1,59,22,0
1,23,55,368
1,35,59,2
1,42,34,128
1,35,53,108
1,66,40,160
1,51,29,2
1,63,37,2
1,42,30,2
1,59,33,4
1,35,32,30
1,42,27,116
1,68,54,122
1,54,46,4
1,61,31,0
1,63,36,0
1,35,33,6
1,42,33,2
1,54,22,0
1,75,60,160
1,71,40,6
1,63,43,2
1,66,27,2
1,56,8,8
1,59,35,0
1,54,44,0
1,47,47,104
1,68,55,80
1,61,48,4
1,63,39,2
1,54,57,8
1,42,45,76
1,51,53,224
1,63,48,2
1,66,50,0
1,59,49,4
1,42,27,44
1,35,43,34
1,42,43,126
1,92,86,270
1,66,43,6
1,59,44,2
1,54,45,0
1,56,13,0
1,68,70,2
1,80,48,2
1,87,55,2
1,78,64,4
1,23,33,184
1,35,51,60
1,66,38,158
1,63,45,2
1,51,36,4
1,59,41,0
1,42,24,12
1,35,45,40
1,42,44,110
1,68,52,94
1,61,45,8
1,54,61,2
1,35,55,0
1,63,47,2
1,42,45,16
1,54,64,130
1,75,63,140
1,63,48,10
1,71,61,0
1,66,38,2
1,59,13,6
1,56,37,4
1,54,48,6
1,47,52,90
1,68,52,126
1,61,45,4
1,63,47,4
1,54,48,2
1,42,36,92
1,35,50,100
1,66,39,134
1,63,41,8
1,51,49,2
1,59,39,4
1,42,34,2
1,35,50,62
1,42,50,94
1,92,92,236
1,56,36,4
1,66,38,2
1,80,68,0
1,54,32,4
1,87,65,0
1,68,83,0
1,59,61,2
1,78,76,6
1,23,74,232
1,35,69,60
1,66,44,154
1,51,48,2
1,63,51,0
1,59,44,2
1,42,33,0
1,35,61,22
1,42,55,32
1,68,62,74
1,61,42,6
1,63,55,0
1,54,56,6
1,35,62,6
1,42,47,4
1,54,58,12
1,75,55,156
1,66,36,6
1,71,55,2
1,63,39,0
1,56,30,2
1,59,28,4
1,54,52,14
1,47,54,98
1,66,58,138
1,63,67,0
1,51,55,0
1,59,55,8
1,42,50,48
1,35,71,40
1,68,68,24
1,63,64,10
1,61,50,2
1,54,52,6
1,42,50,2
1,35,69,30
1,42,61,66
1,87,73,188
1,75,60,4
1,82,57,2
1,27,83,0
1,39,62,30
1,46,30,162
1,70,56,194
1,67,37,4
1,58,34,2
1,65,31,4
1,46,65,150
1,51,65,8
1,72,85,32
1,67,61,2
1,60,78,0
1,63,70,0
1,51,63,50
1,58,56,156
1,62,88,76
1,70,42,0
1,77,89,2
1,67,52,2
1,65,41,2
1,55,67,6
1,51,50,4
1,60,71,52
1,58,47,88
1,58,50,152
1,70,70,0
1,67,53,8
1,65,52,4
1,65,2,146
1,46,58,16
1,39,74,6
1,72,91,144
1,60,78,8
1,63,67,0
1,67,70,4
1,34,70,4
1,27,91,80
1,79,98,244
1,75,73,2
1,67,77,4
1,70,59,0
1,65,95,4
1,55,77,6
1,58,58,4
1,63,71,28
1,62,74,6
1,60,90,62
1,58,69,100
1,70,78,2
1,67,70,8
1,65,62,0
1,51,79,20
1,46,75,44
1,72,92,54
1,63,78,4
1,60,82,0
1,67,74,8
1,39,83,174
1,34,78,18
1,27,100,6
1,77,95,180
1,70,61,6
1,67,74,0
1,65,78,4
1,55,52,2
1,62,93,2
1,51,63,4
1,60,88,24
1,58,84,30
1,58,79,132
1,70,86,2
1,67,80,12
1,65,75,0
1,46,85,198
1,39,92,4
1,72,100,58
1,63,88,2
1,60,89,2
1,67,88,0
1,34,92,14
1,27,103,74
1,79,106,216
1,70,79,2
1,67,90,4
1,65,109,0
1,58,84,4
1,55,94,0
1,53,101,6
1,63,100,80
1,51,99,4
1,50,101,48
1,62,94,4
1,60,85,44
1,48,92,2
1,70,84,40
1,58,84,0
1,65,77,4
1,67,84,2
1,58,92,12
1,46,93,6
1,51,98,98
1,39,95,6
1,72,103,132
1,63,92,0
1,60,98,4
1,67,92,0
1,46,96,4
1,34,99,6
1,39,111,82
1,27,106,2
1,70,90,204
1,79,109,2
1,67,101,4
1,65,108,2
1,55,100,4
1,53,105,0
1,58,78,6
1,63,103,72
1,51,103,6
1,62,106,22
1,50,111,0
1,60,106,76
1,48,100,2
1,70,92,42
1,58,95,0
1,67,95,2
1,65,89,6
1,58,91,120
1,46,95,6
1,51,104,102
1,39,99,2
1,72,105,90
1,63,96,0
1,60,107,2
1,67,97,4
1,46,99,6
1,34,96,6
1,39,79,112
1,27,84,4
1,91,103,262
1,79,106,2
1,86,98,6
1,43,102,2
1,31,101,0
1,38,92,0
1,79,108,410
1,67,100,2
1,72,97,0
1,62,93,2
1,74,103,2
1,55,91,0
1,60,91,0
1,81,108,28
1,69,94,2
1,57,94,4
1,74,111,398
1,86,105,2
1,79,103,0
1,84,105,0
1,72,97,2
1,62,75,2
1,67,69,2
1,69,73,0
1,65,67,2
1,60,98,40
1,67,94,2
1,62,95,0
1,65,41,0
1,55,98,2
1,98,115,366
1,86,100,2
1,96,108,82
1,84,105,4
1,93,87,0
1,89,80,4
1,69,95,2
1,57,88,4
1,95,106,50
1,83,115,8
1,93,103,100
1,89,92,0
1,72,89,2
1,81,99,0
1,74,104,4
1,86,87,0
1,69,57,0
1,67,61,2
1,65,46,4
1,62,65,4
1,95,108,50
1,83,112,8
1,93,103,98
1,67,94,2
1,65,89,2
1,60,71,0
1,62,65,2
1,81,100,0
1,55,79,2
1,91,103,130
1,79,95,6
1,89,101,102
1,77,101,0
1,69,91,4
1,57,74,12
1,88,101,100
1,76,92,6
1,86,101,126
1,69,67,2
1,74,104,0
1,72,94,4
1,67,72,0
1,62,78,0
1,81,86,2
1,65,63,2
1,57,82,462
1,67,89,2
1,62,76,0
1,65,73,0
1,55,83,0
1,50,101,342
1,38,94,2
1,48,89,62
1,69,93,4
1,57,93,2
1,36,97,0
1,47,97,12
1,35,104,2
1,69,75,54
1,74,95,2
1,45,93,2
1,60,91,0
1,62,88,0
1,72,78,2
1,67,76,0
1,65,70,4
1,33,99,0
1,47,98,2
1,35,103,4
1,55,87,54
1,65,71,0
1,45,95,2
1,67,84,0
1,33,101,2
1,60,70,2
1,62,64,4
1,43,101,90
1,31,102,4
1,69,89,38
1,57,84,2
1,41,101,4
1,29,103,2
1,40,110,26
1,28,97,4
1,74,100,62
1,69,76,0
1,72,54,2
1,60,91,4
1,62,89,0
1,38,105,0
1,67,78,0
1,26,104,2
1,65,67,2
1,48,97,198
1,36,94,2
1,45,97,106
1,33,104,6
1,43,104,68
1,31,107,2
1,43,108,140
1,41,110,0
1,29,111,2
1,38,104,196
1,26,98,0
1,24,113,330
1,36,112,4
1,72,98,286
1,60,94,4
1,52,76,0
1,55,91,2
1,48,57,0
1,64,89,2
1,67,88,0
1,43,63,2
1,74,108,240
1,62,102,6
1,69,85,0
1,57,91,0
1,65,87,2
1,53,104,0
1,50,85,2
1,45,85,0
1,79,108,322
1,67,100,2
1,74,96,0
1,71,97,0
1,62,94,2
1,50,91,0
1,59,87,0
1,55,80,4
1,77,99,352
1,72,84,4
1,65,85,2
1,69,69,0
1,60,80,0
1,57,70,8
1,48,54,2
1,53,85,4
1,76,97,128
1,64,94,4
1,71,94,2
1,59,83,0
1,67,79,2
1,55,76,4
1,47,66,4
1,52,80,0
1,74,101,146
1,57,77,2
1,62,90,2
1,69,76,2
1,65,78,2
1,53,99,0
1,45,64,0
1,50,71,4
1,74,104,172
1,62,97,6
1,65,81,0
1,57,88,0
1,69,79,0
1,53,101,4
1,50,76,2
1,45,74,0
1,57,86,360
1,45,66,0
1,69,91,0
1,52,98,0
1,60,81,2
1,48,71,0
1,40,87,0
1,64,87,0
1,76,95,250
1,67,77,4
1,55,81,2
1,71,92,2
1,64,91,0
1,47,71,0
1,59,87,0
1,52,82,2
1,60,83,164
1,72,83,0
1,77,100,0
1,53,87,2
1,65,88,2
1,57,70,0
1,69,74,0
1,48,68,0
1,74,105,182
1,69,81,4
1,62,98,2
1,65,76,2
1,57,81,0
1,45,70,6
1,53,101,2
1,50,73,4
1,72,92,190
1,60,87,0
1,67,84,6
1,55,84,2
1,64,81,2
1,52,81,4
1,48,59,2
1,43,61,2
1,72,96,10
1,67,88,4
1,55,98,2
1,60,96,2
1,64,94,0
1,43,81,4
1,52,94,0
1,48,72,0
1,24,112,498
1,69,88,430
1,57,85,2
1,60,82,0
1,52,91,4
1,64,87,2
1,40,88,2
1,48,69,0
1,45,60,4
1,70,86,222
1,58,86,0
1,53,105,6
1,62,92,2
1,65,84,0
1,46,68,0
1,41,76,4
1,50,85,0
1,74,103,212
1,62,97,4
1,57,85,2
1,65,84,0
1,69,77,0
1,45,73,4
1,53,101,2
1,50,80,6
1,77,100,198
1,65,98,2
1,69,80,0
1,72,90,4
1,60,89,0
1,57,75,4
1,48,58,8
1,53,97,0
1,72,95,266
1,60,97,2
1,64,93,0
1,67,83,4
1,55,92,0
1,52,83,6
1,43,66,6
1,48,66,0
1,24,111,510
1,69,79,294
1,57,85,0
1,60,80,2
1,52,94,4
1,64,86,4
1,40,89,0
1,48,65,4
1,45,63,4
1,70,88,170
1,58,86,2
1,53,107,2
1,62,91,6
1,46,67,2
1,41,78,0
1,50,83,0
1,65,81,4
1,74,103,200
1,62,98,4
1,65,75,0
1,57,86,2
1,69,75,2
1,45,73,4
1,53,100,6
1,50,78,4
1,77,97,196
1,69,76,2
1,60,85,2
1,65,90,0
1,72,85,2
1,57,63,4
1,48,59,2
1,53,88,6
1,79,103,132
1,67,91,0
1,62,84,2
1,70,78,0
1,74,90,2
1,58,62,2
1,50,75,4
1,55,70,2
1,24,103,412
1,77,97,214
1,65,86,2
1,69,65,2
1,72,83,2
1,60,88,2
1,57,60,4
1,48,60,4
1,53,78,2
1,79,106,138
1,67,97,4
1,70,81,0
1,74,95,0
1,62,89,2
1,58,67,6
1,50,75,2
1,55,74,2
1,82,92,172
1,70,88,2
1,65,94,2
1,77,90,4
1,74,95,2
1,58,55,0
1,62,84,0
1,53,96,2
1,70,89,164
1,79,107,0
1,67,98,4
1,74,98,0
1,58,71,0
1,55,77,2
1,50,81,0
1,62,94,0
1,24,97,432
1,81,105,274
1,69,92,0
1,76,94,0
1,72,86,4
1,64,95,2
1,57,60,2
1,60,80,0
1,52,84,4
1,69,81,304
1,77,102,0
1,72,92,4
1,65,92,0
1,53,97,0
1,48,65,0
1,57,79,2
1,60,98,4
1,24,106,520
1,77,104,292
1,65,101,0
1,69,86,0
1,60,94,2
1,72,94,0
1,57,78,6
1,48,62,4
1,53,89,2
1,74,96,450
1,57,73,4
1,69,65,0
1,62,84,0
1,53,92,2
1,65,63,2
1,45,47,2
1,50,62,4
1,76,83,210
1,67,63,0
1,71,78,4
1,64,73,2
1,59,66,0
1,55,60,2
1,47,52,0
1,52,63,4
1,72,66,358
1,64,64,2
1,67,56,2
1,60,48,4
1,48,35,2
1,52,54,0
1,55,50,0
1,43,31,4
1,60,89,450
1,24,59,22
1,62,87,192
1,67,78,298
1,72,72,334
1,74,75,258
1,79,60,568
1,74,47,0
1,72,35,2
1,60,19,2
1,62,22,2
1,55,25,2
1,67,6,0
1,46,29,510
1,98,44,6
1,34,21,0
1,86,23,2
1,96,29,2
1,84,28,0
1,74,49,1092
1,79,57,2
1,72,31,2
1,67,34,8
1,55,27,0
1,60,24,6
1,62,28,0
1,98,50,484
1,96,38,2
1,34,37,6
1,84,26,2
1,86,22,2
1,46,18,0
1,74,37,1112
1,79,44,0
1,72,26,6
1,62,18,0
1,67,24,0
1,60,25,2
1,55,29,6
1,44,27,626
1,98,39,4
1,32,13,2
1,86,22,2
1,96,24,0
1,84,23,4
1,79,33,1340
1,74,24,2
1,72,19,0
1,67,18,2
1,62,14,6
1,55,18,4
1,60,25,0
1,32,25,840
1,86,18,2
1,98,34,0
1,96,15,2
1,84,23,4
1,44,25,0
1,44,25,774
1,32,14,6
1,52,52,1444
1,49,39,1668
1,51,39,1008
1,56,35,194
1,52,41,264
1,49,44,430
1,44,42,298
1,32,34,436
1,46,36,266
1,51,37,228
1,47,33,598
1,56,32,312
1,52,37,4
1,44,26,4
1,58,42,4
1,46,33,14
1,56,31,58
1,63,42,6
1,58,21,0
1,52,26,6
