track,note,velocity,time
1,43,67,10294
1,43,73,32
1,43,79,32
1,43,85,32
1,43,92,32
1,43,98,32
1,36,91,32
1,36,93,80
1,36,93,92
1,36,92,116
1,41,92,86
1,41,92,112
1,41,92,108
1,41,92,94
1,36,92,92
1,36,92,78
1,36,92,90
1,36,91,84
1,40,91,4
1,41,91,128
1,36,91,18
1,41,91,2
1,41,91,84
1,36,91,88
1,36,91,72
1,36,91,96
1,36,90,68
1,45,90,20
1,43,90,2
1,43,90,102
1,43,90,96
1,43,90,94
1,41,90,78
1,36,91,4
1,36,93,80
1,36,93,92
1,36,92,116
1,41,92,86
1,41,92,112
1,41,92,108
1,41,92,94
1,36,92,92
1,36,92,78
1,36,92,90
1,36,91,84
1,40,91,4
1,41,91,128
1,36,91,18
1,41,91,2
1,41,91,84
1,36,91,88
1,36,91,72
1,36,91,96
1,36,90,68
1,45,90,20
1,43,90,2
1,43,90,102
1,43,90,96
1,43,90,94
1,41,90,78
1,36,91,2
1,36,93,80
1,36,93,92
1,36,92,116
1,41,92,86
1,41,92,112
1,41,92,108
1,41,92,94
1,36,92,92
1,36,92,78
1,36,92,90
1,36,91,84
1,40,91,4
1,41,91,128
1,36,91,18
1,41,91,2
1,41,91,84
1,36,91,88
1,36,91,72
1,36,91,96
1,36,90,68
1,45,90,20
1,43,90,2
1,43,90,102
1,43,90,96
1,43,90,94
1,41,90,78
1,43,95,2
1,43,84,140
1,38,95,188
1,38,95,142
1,43,83,142
1,43,83,178
1,38,101,164
1,38,100,222
1,36,87,86
1,43,93,16
1,51,84,4
1,43,91,4
1,38,95,16
1,46,96,128
1,44,92,84
1,39,81,22
1,48,73,128
1,43,83,82
1,43,88,32
1,43,77,32
1,43,80,32
1,43,90,32
1,43,97,32
1,43,105,32
1,43,105,32
1,43,109,32
1,43,115,32
1,43,125,32
1,43,125,32
1,36,91,32
1,36,93,80
1,36,93,92
1,36,92,116
1,41,92,86
1,41,92,112
1,41,92,108
1,41,92,94
1,36,92,92
1,36,92,78
1,36,92,90
1,36,91,84
1,40,91,4
1,41,91,128
1,36,91,18
1,41,91,2
1,41,91,84
1,36,91,88
1,36,91,72
1,36,91,96
1,36,90,68
1,45,90,20
1,43,90,2
1,43,90,102
1,43,84,96
1,43,76,38
1,43,90,36
1,43,100,30
1,43,100,28
1,43,105,46
1,36,91,28
1,36,93,80
1,36,93,92
1,36,92,116
1,41,92,86
1,41,92,112
1,41,92,108
1,41,92,94
1,36,92,92
1,36,92,78
1,36,92,90
1,36,91,84
1,40,91,4
1,41,91,128
1,36,91,18
1,41,91,2
1,41,91,84
1,36,91,88
1,36,91,72
1,36,91,96
1,36,90,68
1,45,90,20
1,43,90,2
1,43,90,102
1,43,90,96
1,43,90,94
1,41,90,78
1,36,75,1538
1,36,75,4
1,41,75,4
1,41,74,4
1,36,74,4
1,36,74,4
1,41,74,4
1,41,73,4
1,36,73,4
1,36,73,4
1,43,73,4
1,43,73,4
2,55,65,16
2,64,72,0
2,60,76,2
2,65,72,4
2,57,65,0
2,60,74,0
2,64,76,14
2,55,68,4
2,60,71,4
2,60,76,4
2,57,63,2
2,65,75,0
2,64,73,4
2,67,73,6
2,60,54,2
2,67,70,4
2,59,65,2
2,62,85,0
2,55,65,16
2,64,72,0
2,60,76,2
2,65,72,4
2,57,65,0
2,60,74,0
2,64,76,14
2,55,68,4
2,60,71,4
2,60,76,4
2,65,75,2
2,57,63,0
2,64,73,4
2,67,73,6
2,60,54,2
2,67,70,4
2,59,65,2
2,62,85,0
2,57,62,8
2,60,65,0
2,65,67,0
2,55,65,16
2,64,72,0
2,60,76,2
2,57,65,4
2,60,74,0
2,65,72,0
2,64,76,14
2,55,68,4
2,60,71,4
2,60,76,4
2,65,75,2
2,57,63,0
2,64,73,4
2,67,73,6
2,60,54,2
2,67,70,4
2,59,65,2
2,62,85,0
2,65,67,82
2,60,65,0
2,57,62,0
2,64,72,16
2,55,65,0
2,60,76,2
2,65,72,4
2,60,74,0
2,57,65,0
2,64,76,14
2,55,68,4
2,60,71,4
2,60,76,4
2,65,75,2
2,57,63,0
2,64,73,4
2,67,73,6
2,60,54,2
2,67,70,4
2,62,85,2
2,59,65,0
2,60,65,82
2,65,67,0
2,57,62,0
2,58,29,100
2,67,63,4
2,62,72,2
2,65,63,90
2,62,59,0
2,57,58,4
2,58,53,94
2,67,67,0
2,62,74,4
2,65,70,128
2,62,68,2
2,57,42,2
2,60,59,150
2,63,57,2
2,55,60,6
2,67,59,40
2,58,39,2
2,62,70,6
2,63,68,6
2,60,68,8
2,56,72,0
2,62,82,18
2,59,62,2
2,67,96,2
2,55,65,16
2,64,72,0
2,60,76,2
2,96,80,46
2,60,74,4
2,81,78,0
2,57,65,0
2,65,72,0
2,64,76,14
2,55,68,4
2,72,79,2
2,60,71,2
2,74,85,80
2,76,79,2
2,81,59,2
2,60,76,4
2,96,55,0
2,57,63,2
2,65,75,0
2,64,73,4
2,67,73,6
2,60,54,2
2,67,70,4
2,59,65,2
2,62,85,0
2,64,72,16
2,55,65,0
2,60,76,2
2,60,74,4
2,57,65,0
2,65,72,0
2,96,60,390
2,81,46,6
2,64,76,10
2,55,68,4
2,60,71,4
2,79,48,10
2,60,76,4
2,57,63,2
2,65,75,0
2,64,73,4
2,67,73,6
2,60,54,2
2,67,70,4
2,59,65,2
2,62,85,0
2,57,62,8
2,65,67,0
2,60,65,0
2,55,65,16
2,64,72,0
2,60,76,2
2,57,65,4
2,60,74,0
2,65,72,0
2,64,76,14
2,55,68,4
2,60,71,4
2,60,76,4
2,65,75,2
2,57,63,0
2,64,73,4
2,67,73,6
2,60,54,2
2,67,70,4
2,59,65,2
2,62,85,0
3,64,83,1792
3,65,84,26
3,67,84,640
3,57,80,68
3,64,86,174
3,65,83,768
3,67,83,0
3,57,79,78
3,65,84,118
3,65,83,66
3,65,83,72
3,65,83,80
3,64,80,134
3,64,88,92
3,64,74,100
3,64,78,66
3,64,81,78
3,64,87,62
3,62,95,138
3,62,93,92
3,64,103,0
3,65,104,26
3,67,104,640
3,57,100,68
3,64,106,174
3,65,103,768
3,67,103,0
3,57,99,78
3,65,104,118
3,65,103,66
3,65,103,72
3,65,103,80
3,64,100,134
3,64,108,92
3,64,94,100
3,64,98,66
3,64,101,78
3,64,107,62
3,62,115,138
3,62,113,92
3,62,94,100
3,62,88,66
3,62,100,70
3,62,107,72
3,60,84,140
3,60,83,58
3,76,82,11072
3,76,83,26
3,76,83,458
3,77,79,8
3,79,71,16
3,69,74,0
3,76,84,408
3,76,82,48
3,76,80,830
3,77,89,2
3,79,82,12
3,69,79,128
3,77,101,132
3,77,90,64
3,77,89,56
3,77,97,56
3,76,78,48
3,76,87,46
3,76,94,728
3,76,88,56
3,76,84,60
3,76,93,64
3,74,98,64
3,74,97,58
3,74,89,1014
3,74,93,72
3,72,79,50
3,72,78,348
3,71,77,70
3,69,75,28
3,64,103,12562
3,65,104,26
3,67,104,640
3,57,100,68
3,64,106,174
3,65,103,768
3,67,103,0
3,57,99,78
3,65,104,118
3,65,103,66
3,65,103,72
3,65,103,80
3,64,100,134
3,64,108,92
3,64,94,100
3,64,98,66
3,64,101,78
3,64,107,62
3,62,115,138
3,62,113,0
3,64,103,0
3,65,104,26
3,67,104,640
3,57,100,68
3,64,106,174
3,65,103,768
3,67,103,0
3,57,99,78
3,65,104,118
3,65,103,66
3,65,103,72
3,65,103,80
3,64,100,134
3,64,108,92
3,64,94,100
3,64,98,66
3,64,101,78
3,64,107,62
3,62,115,138
3,62,113,0
3,62,94,100
3,62,88,66
3,62,100,70
3,62,107,72
3,60,84,140
3,60,83,58
3,77,76,5888
3,77,73,40
3,77,83,50
3,77,87,24
3,76,69,90
3,76,75,38
3,76,69,72
3,76,70,30
3,76,69,40
3,76,73,36
3,74,76,126
3,74,80,54
4,76,75,234
4,67,75,0
4,72,75,0
4,76,74,4
4,67,74,0
4,72,74,0
4,76,74,4
4,72,74,0
4,67,74,0
4,76,73,4
4,72,73,0
4,67,73,0
4,67,62,4
4,72,80,0
4,76,63,0
4,72,78,4
4,67,66,0
4,76,73,0
4,76,84,4
4,72,86,0
4,67,74,0
4,76,79,4
4,72,86,0
4,67,71,0
4,69,62,4
4,77,68,0
4,72,74,0
4,69,62,4
4,72,71,0
4,77,65,0
4,77,62,4
4,72,67,0
4,69,58,0
4,72,73,4
4,77,71,0
4,69,59,0
4,76,72,4
4,67,55,0
4,72,73,0
4,72,71,4
4,76,70,0
4,67,57,0
4,76,66,4
4,67,50,0
4,72,68,0
4,72,74,4
4,67,61,0
4,76,73,0
4,69,64,4
4,77,61,0
4,72,74,0
4,69,60,4
4,72,73,0
4,77,72,0
4,77,71,4
4,72,75,0
4,69,62,0
4,77,73,4
4,69,66,0
4,72,79,0
4,67,57,4
4,76,72,0
4,72,73,0
4,67,53,4
4,72,68,0
4,76,69,0
4,76,71,4
4,72,69,0
4,67,54,0
4,76,72,4
4,72,68,0
4,67,55,0
4,67,53,4
4,71,66,0
4,74,79,0
4,67,58,4
4,71,66,0
4,74,79,0
4,74,72,4
4,67,56,0
4,71,67,0
4,67,60,4
4,71,67,0
4,74,79,0
4,67,70,4
4,76,77,0
4,72,85,0
4,72,81,4
4,67,68,0
4,76,74,0
4,67,71,4
4,76,73,0
4,72,86,0
4,72,79,4
4,76,66,0
4,67,64,0
4,67,78,4
4,76,86,0
4,72,79,0
4,72,85,4
4,69,83,0
4,77,89,0
4,77,67,4
4,69,69,0
4,72,76,0
4,72,78,4
4,69,66,0
4,77,76,0
4,69,66,4
4,77,73,0
4,72,82,0
4,72,82,4
4,69,72,0
4,77,54,0
4,67,63,4
4,76,82,0
4,72,79,0
4,72,75,4
4,76,74,0
4,67,65,0
4,67,64,4
4,76,74,0
4,72,73,0
4,72,71,4
4,67,66,0
4,76,73,0
4,76,79,4
4,67,67,0
4,72,72,0
4,72,75,4
4,77,76,0
4,69,71,0
4,69,63,4
4,77,68,0
4,72,72,0
4,72,76,4
4,69,65,0
4,77,72,0
4,69,58,4
4,72,72,0
4,77,67,0
4,69,71,4
4,77,74,0
4,72,79,0
4,72,71,4
4,67,68,0
4,76,79,0
4,76,68,4
4,72,67,0
4,67,56,0
4,72,66,4
4,67,55,0
4,76,71,0
4,76,72,4
4,72,70,0
4,67,61,0
4,67,55,4
4,76,67,0
4,72,71,0
4,67,62,4
4,74,82,0
4,71,70,0
4,71,71,4
4,74,86,0
4,67,66,0
4,67,56,4
4,74,83,0
4,71,63,0
4,71,65,4
4,67,58,0
4,74,76,0
4,74,70,4
4,67,61,0
4,71,72,0
4,69,74,4
4,65,59,0
4,72,72,0
4,67,70,484
4,76,77,0
4,72,85,0
4,72,81,4
4,67,68,0
4,76,74,0
4,67,71,4
4,76,73,0
4,72,86,0
4,72,79,4
4,67,64,0
4,76,66,0
4,76,86,4
4,67,78,0
4,72,79,0
4,72,85,4
4,77,89,0
4,69,83,0
4,72,76,4
4,77,67,0
4,69,69,0
4,72,78,4
4,77,76,0
4,69,66,0
4,72,82,4
4,69,66,0
4,77,73,0
4,72,82,4
4,77,54,0
4,69,72,0
4,67,63,4
4,72,79,0
4,76,82,0
4,72,75,4
4,67,65,0
4,76,74,0
4,67,64,4
4,72,73,0
4,76,74,0
4,67,66,4
4,76,73,0
4,72,71,0
4,76,79,4
4,72,72,0
4,67,67,0
4,69,71,4
4,77,76,0
4,72,75,0
4,72,72,4
4,69,63,0
4,77,68,0
4,69,65,4
4,77,72,0
4,72,76,0
4,72,72,4
4,77,67,0
4,69,58,0
4,77,74,4
4,69,71,0
4,72,79,0
4,76,79,4
4,72,71,0
4,67,68,0
4,76,68,4
4,67,56,0
4,72,67,0
4,76,71,4
4,67,55,0
4,72,66,0
4,76,72,4
4,72,70,0
4,67,61,0
4,72,71,4
4,76,67,0
4,67,55,0
4,67,62,4
4,74,82,0
4,71,70,0
4,71,71,4
4,74,86,0
4,67,66,0
4,67,56,4
4,74,83,0
4,71,63,0
4,71,65,4
4,74,76,0
4,67,58,0
4,67,61,4
4,74,70,0
4,71,72,0
4,69,74,4
4,65,59,0
4,72,72,0
4,76,104,714
4,67,97,0
4,72,112,0
4,72,108,4
4,76,101,0
4,67,95,0
4,76,100,4
4,72,113,0
4,67,98,0
4,72,106,4
4,67,91,0
4,76,93,0
4,72,106,4
4,76,113,0
4,67,105,0
4,72,112,4
4,77,116,0
4,69,110,0
4,69,96,4
4,77,94,0
4,72,103,0
4,72,105,4
4,69,93,0
4,77,103,0
4,69,93,4
4,77,100,0
4,72,109,0
4,72,109,4
4,77,81,0
4,69,99,0
4,67,90,4
4,76,109,0
4,72,106,0
4,72,102,4
4,67,92,0
4,76,101,0
4,76,101,4
4,67,91,0
4,72,100,0
4,72,98,4
4,67,93,0
4,76,100,0
4,76,106,4
4,67,94,0
4,72,99,0
4,72,102,4
4,69,98,0
4,77,103,0
4,69,90,4
4,77,95,0
4,72,99,0
4,72,103,4
4,69,92,0
4,77,99,0
4,77,94,4
4,72,99,0
4,69,85,0
4,72,106,4
4,69,98,0
4,77,101,0
4,67,95,4
4,76,106,0
4,72,98,0
4,72,94,4
4,67,83,0
4,76,95,0
4,72,93,4
4,76,98,0
4,67,82,0
4,76,99,4
4,67,88,0
4,72,97,0
4,76,94,4
4,72,98,0
4,67,82,0
4,71,97,4
4,74,109,0
4,67,89,0
4,74,113,4
4,71,98,0
4,67,93,0
4,67,83,4
4,74,110,0
4,71,90,0
4,67,85,4
4,74,103,0
4,71,92,0
4,74,97,4
4,71,99,0
4,67,88,0
4,72,99,4
4,69,101,0
4,65,86,0
4,74,104,714
4,67,88,0
4,70,107,0
4,70,103,4
4,67,91,0
4,74,106,0
4,74,104,4
4,70,108,0
4,67,90,0
4,74,106,4
4,70,110,0
4,67,91,0
4,69,106,4
4,74,106,0
4,65,92,0
4,69,101,4
4,74,100,0
4,65,87,0
4,65,91,4
4,74,95,0
4,69,101,0
4,65,89,4
4,69,99,0
4,74,99,0
4,74,99,4
4,67,89,0
4,70,117,0
4,70,105,4
4,74,89,0
4,67,90,0
4,67,93,4
4,74,89,0
4,70,104,0
4,70,101,4
4,67,91,0
4,74,94,0
4,74,101,4
4,69,101,0
4,65,88,0
4,74,92,4
4,69,99,0
4,65,89,0
4,69,102,4
4,65,89,0
4,74,96,0
4,65,92,4
4,69,97,0
4,74,99,0
4,67,106,4
4,72,97,0
4,63,81,0
4,72,99,4
4,63,81,0
4,67,105,0
4,67,106,4
4,63,82,0
4,72,99,0
4,63,82,4
4,67,108,0
4,72,99,0
4,74,106,4
4,67,93,0
4,70,115,0
4,74,99,4
4,70,106,0
4,67,88,0
4,67,89,4
4,74,98,0
4,70,103,0
4,74,100,4
4,70,103,0
4,67,89,0
4,63,81,4
4,68,89,0
4,72,107,0
4,68,89,4
4,72,112,0
4,63,89,0
4,72,114,4
4,63,86,0
4,68,94,0
4,68,87,4
4,72,112,0
4,63,89,0
4,67,96,4
4,71,101,0
4,74,110,0
4,74,112,4
4,71,106,0
4,67,95,0
4,67,92,4
4,74,109,0
4,71,107,0
4,71,107,4
4,67,98,0
4,74,113,0
4,67,70,112
4,72,85,0
4,76,77,0
4,76,74,4
4,72,81,0
4,67,68,0
4,76,73,4
4,72,86,0
4,67,71,0
4,76,66,4
4,67,64,0
4,72,79,0
4,67,78,4
4,72,79,0
4,76,86,0
4,69,83,4
4,77,89,0
4,72,85,0
4,72,76,4
4,77,67,0
4,69,69,0
4,77,76,4
4,69,66,0
4,72,78,0
4,69,66,4
4,72,82,0
4,77,73,0
4,72,82,4
4,69,72,0
4,77,54,0
4,76,82,4
4,67,63,0
4,72,79,0
4,72,75,4
4,76,74,0
4,67,65,0
4,67,64,4
4,72,73,0
4,76,74,0
4,67,66,4
4,76,73,0
4,72,71,0
4,72,72,4
4,67,67,0
4,76,79,0
4,72,75,4
4,77,76,0
4,69,71,0
4,69,63,4
4,72,72,0
