track,note,velocity,time
0,60,95,470
0,60,0,174
0,59,86,18
0,59,0,186
0,35,127,6
0,69,74,0
0,57,101,2
0,35,0,2
0,69,0,0
0,57,0,87
0,52,76,12
0,52,0,41
0,70,74,48
0,70,0,4
0,52,89,1
0,52,0,36
0,52,78,59
0,52,0,38
0,52,86,54
0,35,127,0
0,69,74,0
0,35,0,4
0,69,0,0
0,52,0,44
0,52,59,53
0,52,0,50
0,59,95,37
0,70,74,4
0,70,0,4
0,59,0,47
0,57,86,49
0,57,0,45
0,35,127,47
0,69,74,0
0,56,106,4
0,35,0,0
0,69,0,0
0,56,0,89
0,52,80,1
0,52,0,37
0,70,74,61
0,70,0,4
0,52,82,1
0,52,0,49
0,52,65,46
0,52,0,38
0,52,84,52
0,35,127,2
0,69,74,0
0,35,0,4
0,69,0,0
0,52,0,86
0,59,95,98
0,70,74,4
0,71,73,3
0,70,0,1
0,59,0,47
0,71,0,32
0,69,64,12
0,57,86,5
0,69,0,40
0,57,0,5
0,52,73,46
0,35,127,1
0,69,74,0
0,68,64,1
0,56,112,3
0,35,0,0
0,69,0,0
0,68,0,84
0,56,0,5
0,52,0,1
0,52,80,0
0,64,64,3
0,52,0,34
0,64,0,16
0,56,64,42
0,70,74,3
0,64,64,2
0,70,0,2
0,52,89,1
0,52,0,40
0,64,0,8
0,56,0,36
0,52,71,11
0,64,73,0
0,52,0,38
0,64,0,5
0,52,84,47
0,59,82,0
0,35,127,2
0,69,74,0
0,35,0,4
0,69,0,0
0,64,73,2
0,52,0,36
0,64,0,37
0,52,59,21
0,64,64,0
0,59,0,1
0,64,0,42
0,52,0,6
0,64,63,39
0,70,74,4
0,66,72,1
0,56,64,1
0,70,0,2
0,66,0,43
0,64,0,4
0,56,0,43
0,68,64,5
0,62,54,1
0,68,0,41
0,62,0,4
0,57,64,47
0,35,127,0
0,69,74,0
0,69,81,2
0,61,86,2
0,35,0,0
0,69,0,0
0,69,0,84
0,61,0,5
0,60,54,1
0,68,64,5
0,57,0,15
0,68,0,16
0,60,0,1
0,61,60,59
0,70,74,2
0,69,73,4
0,70,0,0
0,61,63,1
0,69,0,32
0,61,0,11
0,73,64,47
0,61,0,4
0,64,45,1
0,73,0,34
0,64,0,4
0,57,64,50
0,69,54,2
0,76,82,2
0,35,127,0
0,69,74,0
0,35,0,4
0,69,0,0
0,69,0,74
0,57,0,26
0,76,0,15
0,88,67,27
0,88,0,31
0,64,69,11
0,73,73,2
0,97,76,0
0,70,74,2
0,70,0,4
0,97,0,35
0,73,0,5
0,64,0,7
0,71,64,42
0,95,76,0
0,62,60,7
0,71,0,23
0,95,0,18
0,62,0,4
0,93,55,32
0,57,64,11
0,69,76,1
0,35,127,3
0,69,74,0
0,64,82,2
0,93,0,0
0,95,51,1
0,35,0,1
0,69,0,0
0,95,0,34
0,93,64,1
0,69,0,43
0,93,0,5
0,64,0,5
0,64,51,2
0,88,67,4
0,61,60,5
0,57,0,1
0,88,0,25
0,61,0,15
0,64,0,2
0,52,73,39
0,70,74,7
0,64,68,1
0,88,63,3
0,70,0,0
0,61,63,1
0,64,0,29
0,61,0,7
0,88,0,9
0,64,59,45
0,61,52,5
0,88,55,0
0,52,0,7
0,64,0,19
0,88,0,10
0,61,0,2
0,45,64,51
0,61,63,3
0,35,127,0
0,69,74,0
0,88,59,2
0,35,0,2
0,69,0,0
0,64,68,1
0,61,0,42
0,64,0,9
0,88,0,13
0,61,37,32
0,64,51,3
0,45,0,10
0,88,54,32
0,61,0,5
0,64,0,1
0,64,69,36
0,88,0,1
0,70,74,3
0,71,76,3
0,95,75,0
0,70,0,1
0,95,0,43
0,71,0,2
0,64,0,2
0,69,59,44
0,64,60,5
0,93,58,0
0,69,0,39
0,64,0,6
0,93,0,7
0,92,55,25
0,68,76,12
0,47,73,3
0,35,127,0
0,69,74,0
0,92,0,2
0,93,51,1
0,62,80,1
0,35,0,0
0,69,0,0
0,93,0,26
0,92,64,1
0,92,0,48
0,62,0,5
0,68,0,1
0,47,0,4
0,62,54,5
0,88,63,4
0,64,51,1
0,62,0,32
0,88,0,10
0,64,0,8
0,70,74,43
0,52,73,3
0,88,75,0
0,64,68,1
0,70,0,0
0,62,56,1
0,88,0,42
0,64,0,2
0,62,0,5
0,52,0,28
0,64,51,11
0,62,39,7
0,88,58,0
0,62,0,38
0,64,0,3
0,88,0,11
0,64,59,32
0,62,48,6
0,56,73,1
0,35,127,1
0,69,74,0
0,88,63,2
0,35,0,2
0,69,0,0
0,88,0,38
0,62,0,18
0,64,0,26
0,64,32,13
0,56,0,23
0,64,0,23
0,64,69,43
0,70,74,4
0,95,75,3
0,70,0,1
0,71,64,1
0,95,0,42
0,64,0,4
0,71,0,11
0,69,73,37
0,64,60,1
0,93,58,0
0,69,0,36
0,64,0,9
0,93,0,7
0,92,55,25
0,47,73,12
0,68,81,3
0,35,127,0
0,69,74,0
0,92,0,2
0,93,51,1
0,64,86,1
0,35,0,0
0,69,0,0
0,93,0,26
0,92,64,1
0,92,0,48
0,47,0,2
0,68,0,4
0,64,55,8
0,64,0,0
0,62,54,1
0,88,63,4
0,62,0,33
0,88,0,10
0,64,0,3
0,64,73,48
0,70,74,0
0,52,73,2
0,88,75,1
0,70,0,1
0,62,63,1
0,88,0,42
0,64,0,3
0,62,0,4
0,52,0,40
0,64,64,5
0,62,45,1
0,88,58,0
0,62,0,38
0,64,0,5
0,88,0,9
0,62,69,38
0,35,127,2
0,69,74,0
0,64,82,2
0,88,63,0
0,56,82,1
0,35,0,1
0,69,0,0
0,88,0,38
0,62,0,10
0,64,0,10
0,64,64,32
0,62,43,6
0,56,0,16
0,64,0,29
0,88,59,0
0,62,0,4
0,64,69,39
0,66,72,3
0,70,74,1
0,88,0,2
0,90,75,1
0,70,0,1
0,90,0,43
0,64,0,4
0,66,0,36
0,68,64,6
0,64,60,7
0,92,58,0
0,68,0,33
0,64,0,12
0,92,0,7
0,45,99,40
0,57,97,0
0,69,105,0
0,35,127,0
0,49,60,0
0,35,0,4
0,49,0,0
0,45,0,90
0,57,0,0
0,69,0,0
0,44,99,50
0,56,97,0
0,68,105,0
0,35,127,0
0,57,60,0
0,35,0,4
0,57,0,0
0,44,0,42
0,35,127,2
0,35,0,4
0,56,0,42
0,68,0,0
0,40,99,50
0,52,97,0
0,64,105,0
0,35,127,0
0,49,60,0
0,35,0,4
0,49,0,0
0,40,0,42
0,52,0,0
0,64,0,0
0,30,110,50
0,61,89,0
0,66,105,0
0,35,127,0
0,42,42,0
0,54,59,0
0,57,60,0
0,35,0,4
0,42,0,0
0,54,0,0
0,57,0,0
0,30,0,42
0,61,0,0
0,54,47,2
0,54,0,4
0,66,0,42
0,42,110,2
0,69,89,0
0,46,66,0
0,54,59,0
0,46,0,4
0,54,0,0
0,42,0,42
0,69,0,0
0,54,47,2
0,54,0,4
0,30,110,44
0,68,89,0
0,35,127,0
0,39,50,0
0,42,42,0
0,54,59,0
0,35,0,4
0,39,0,0
0,42,0,0
0,54,0,0
0,30,0,42
0,68,0,0
0,54,47,2
0,54,0,4
0,42,110,44
0,69,89,0
0,46,66,0
0,54,59,0
0,46,0,4
0,54,0,0
0,42,0,42
0,69,0,0
0,61,89,2
0,54,47,0
0,54,0,4
0,61,0,42
0,30,110,2
0,35,127,0
0,42,42,0
0,54,59,0
0,35,0,4
0,42,0,0
0,54,0,0
0,30,0,42
0,61,89,2
0,54,47,0
0,54,0,4
0,61,0,42
0,42,110,2
0,69,89,0
0,46,66,0
0,54,59,0
0,46,0,4
0,54,0,0
0,42,0,42
0,69,0,0
0,54,47,2
0,54,0,4
0,30,110,44
0,68,89,0
0,35,127,0
0,39,50,0
0,42,42,0
0,54,59,0
0,35,0,4
0,39,0,0
0,42,0,0
0,54,0,0
0,30,0,42
0,68,0,0
0,54,47,2
0,54,0,4
0,42,110,44
0,69,89,0
0,46,66,0
0,54,59,0
0,46,0,4
0,54,0,0
0,42,0,42
0,69,0,0
0,54,47,2
0,54,0,4
0,26,110,44
0,61,89,0
0,35,127,0
0,42,42,0
0,54,59,0
0,35,0,4
0,42,0,0
0,54,0,0
0,26,0,42
0,61,0,0
0,54,47,2
0,54,0,4
0,38,110,44
0,69,89,0
0,46,66,0
0,54,59,0
0,46,0,4
0,54,0,0
0,38,0,42
0,69,0,0
0,54,47,2
0,54,0,4
0,26,110,44
0,68,89,0
0,35,127,0
0,39,50,0
0,42,42,0
0,54,59,0
0,35,0,4
0,39,0,0
0,42,0,0
0,54,0,0
0,26,0,42
0,68,0,0
0,54,47,2
0,54,0,4
0,38,110,44
0,69,89,0
0,46,66,0
0,54,59,0
0,46,0,4
0,54,0,0
0,38,0,42
0,69,0,0
0,71,89,2
0,54,47,0
0,54,0,4
0,28,110,44
0,35,127,0
0,42,42,0
0,54,59,0
0,35,0,4
0,42,0,0
0,54,0,0
0,28,0,42
0,71,0,0
0,54,47,2
0,54,0,4
0,40,110,44
0,69,89,0
0,46,66,0
0,54,59,0
0,46,0,4
0,54,0,0
0,40,0,42
0,69,0,0
0,54,47,2
0,54,0,4
0,28,110,44
0,68,89,0
0,35,127,0
0,39,50,0
0,42,42,0
0,54,59,0
0,35,0,4
0,39,0,0
0,42,0,0
0,54,0,0
0,28,0,42
0,68,0,0
0,54,47,2
0,54,0,4
0,40,110,44
0,66,89,0
0,35,127,0
0,46,66,0
0,54,59,0
0,35,0,4
0,46,0,0
0,54,0,0
0,40,0,42
0,66,0,0
0,54,47,2
0,54,0,4
0,30,110,44
0,42,89,0
0,35,127,0
0,42,42,0
0,54,59,0
0,35,0,4
0,42,0,0
0,54,0,0
0,30,0,42
0,42,0,0
0,54,47,2
0,54,0,4
0,42,64,44
0,42,110,0
0,66,95,0
0,78,95,0
0,46,66,0
0,54,59,0
0,46,0,4
0,54,0,0
0,42,0,42
0,42,0,0
0,54,47,2
0,54,0,4
0,66,0,6
0,78,0,0
0,30,110,38
0,42,64,0
0,68,95,0
0,80,95,0
0,35,127,0
0,39,50,0
0,42,42,0
0,54,59,0
0,35,0,4
0,39,0,0
0,42,0,0
0,54,0,0
0,30,0,42
0,42,0,0
0,54,47,2
0,54,0,4
0,68,0,6
0,80,0,0
0,42,64,38
0,42,110,0
0,66,95,0
0,78,95,0
0,46,66,0
0,54,59,0
0,46,0,4
0,54,0,0
0,42,0,24
0,42,0,18
0,42,64,2
0,54,47,0
0,54,0,4
0,66,0,6
0,78,0,0
0,30,110,38
0,69,95,0
0,81,95,0
0,35,127,0
0,42,42,0
0,54,59,0
0,35,0,4
0,42,0,0
0,54,0,0
0,42,0,30
0,30,0,12
0,54,47,2
0,54,0,4
0,69,0,6
0,81,0,0
0,42,64,38
0,42,110,0
0,46,66,0
0,54,59,0
0,46,0,4
0,54,0,0
0,42,0,24
0,42,0,18
0,42,64,2
0,68,95,0
0,80,95,0
0,54,47,0
0,54,0,4
0,30,110,44
0,35,127,0
0,39,50,0
0,42,42,0
0,54,59,0
0,35,0,4
0,39,0,0
0,42,0,0
0,54,0,0
0,68,0,6
0,80,0,0
0,30,0,36
0,42,0,0
0,54,47,2
0,54,0,4
0,42,64,44
0,42,110,0
0,66,95,0
0,78,95,0
0,46,66,0
0,54,59,0
0,46,0,4
0,54,0,0
0,42,0,42
0,42,0,0
0,54,47,2
0,54,0,4
0,66,0,6
0,78,0,0
0,26,110,38
0,38,64,0
0,35,127,0
0,42,42,0
0,54,59,0
0,35,0,4
0,42,0,0
0,54,0,0
0,26,0,42
0,38,0,0
0,54,47,2
0,54,0,4
0,38,64,44
0,38,110,0
0,66,95,0
0,78,95,0
0,46,66,0
0,54,59,0
0,46,0,4
0,54,0,0
0,38,0,42
0,38,0,0
0,54,47,2
0,54,0,4
0,66,0,6
0,78,0,0
0,26,110,38
0,38,64,0
0,68,95,0
0,80,95,0
0,35,127,0
0,39,50,0
0,42,42,0
0,54,59,0
0,35,0,4
0,39,0,0
0,42,0,0
0,54,0,0
0,26,0,42
0,38,0,0
0,54,47,2
0,54,0,4
0,68,0,6
0,80,0,0
0,38,64,38
0,38,110,0
0,66,95,0
0,78,95,0
0,46,66,0
0,54,59,0
0,46,0,4
0,54,0,0
0,38,0,24
0,38,0,18
0,40,64,2
0,54,47,0
0,54,0,4
0,66,0,6
0,78,0,0
0,28,110,38
0,71,95,0
0,83,95,0
0,35,127,0
0,42,42,0
0,54,59,0
0,35,0,4
0,42,0,0
0,54,0,0
0,40,0,27
0,28,0,15
0,54,47,2
0,54,0,4
0,71,0,6
0,83,0,0
0,40,64,38
0,40,110,0
0,46,66,0
0,54,59,0
0,46,0,4
0,54,0,0
0,40,0,24
0,40,0,18
0,40,64,2
0,69,95,0
0,81,95,0
0,35,127,0
0,54,47,0
0,35,0,4
0,54,0,0
0,28,110,44
0,35,127,0
0,39,50,0
0,42,42,0
0,54,59,0
0,35,0,4
0,39,0,0
0,42,0,0
0,54,0,0
0,69,0,6
0,81,0,0
0,28,0,36
0,40,0,0
0,54,47,2
0,54,0,4
0,40,64,44
0,40,110,0
0,66,95,0
0,78,95,0
0,35,127,0
0,46,66,0
0,54,59,0
0,35,0,4
0,46,0,0
0,54,0,0
0,40,0,42
0,40,0,0
0,54,47,2
0,54,0,4
0,66,0,6
0,78,0,0
0,30,110,38
0,61,89,0
0,35,127,0
0,42,42,0
0,54,59,0
0,35,0,4
0,42,0,0
0,54,0,0
0,30,0,42
0,61,0,0
0,54,47,2
0,54,0,4
0,42,110,44
0,69,89,0
0,46,66,0
0,54,59,0
0,46,0,4
0,54,0,0
0,42,0,42
0,69,0,0
0,54,47,2
0,54,0,4
0,30,110,44
0,68,89,0
0,35,127,0
0,39,50,0
0,42,42,0
0,54,59,0
0,35,0,4
0,39,0,0
0,42,0,0
0,54,0,0
0,30,0,42
0,68,0,0
0,54,47,2
0,54,0,4
0,42,110,44
0,69,89,0
0,46,66,0
0,54,59,0
0,46,0,4
0,54,0,0
0,42,0,42
0,69,0,0
0,61,89,2
0,54,47,0
0,54,0,4
0,61,0,42
0,30,110,2
0,35,127,0
0,42,42,0
0,54,59,0
0,35,0,4
0,42,0,0
0,54,0,0
0,30,0,42
0,61,89,2
0,54,47,0
0,54,0,4
0,61,0,42
0,42,110,2
0,69,89,0
0,46,66,0
0,54,59,0
0,46,0,4
0,54,0,0
0,42,0,42
0,69,0,0
0,54,47,2
0,54,0,4
0,30,110,44
0,68,89,0
0,35,127,0
0,39,50,0
0,42,42,0
0,54,59,0
0,35,0,4
0,39,0,0
0,42,0,0
0,54,0,0
0,30,0,42
0,68,0,0
0,54,47,2
0,54,0,4
0,42,110,44
0,69,89,0
0,46,66,0
0,54,59,0
0,46,0,4
0,54,0,0
0,42,0,42
0,69,0,0
0,54,47,2
0,54,0,4
0,26,110,44
0,61,89,0
0,35,127,0
0,42,42,0
0,54,59,0
0,35,0,4
0,42,0,0
0,54,0,0
0,26,0,42
0,61,0,0
0,54,47,2
0,54,0,4
0,38,110,44
0,69,89,0
0,46,66,0
0,54,59,0
0,46,0,4
0,54,0,0
0,38,0,42
0,69,0,0
0,54,47,2
0,54,0,4
0,26,110,44
0,68,89,0
0,35,127,0
0,39,50,0
0,42,42,0
0,54,59,0
0,35,0,4
0,39,0,0
0,42,0,0
0,54,0,0
0,26,0,42
0,68,0,0
0,54,47,2
0,54,0,4
0,38,110,44
0,69,89,0
0,46,66,0
0,54,59,0
0,46,0,4
0,54,0,0
0,38,0,42
0,69,0,0
0,71,89,2
0,54,47,0
0,54,0,4
0,28,110,44
0,35,127,0
0,42,42,0
0,54,59,0
0,35,0,4
0,42,0,0
0,54,0,0
0,28,0,42
0,71,0,0
0,54,47,2
0,54,0,4
0,40,110,44
0,69,89,0
0,46,66,0
0,54,59,0
0,46,0,4
0,54,0,0
0,40,0,42
0,69,0,0
0,54,47,2
0,54,0,4
0,28,110,44
0,68,89,0
0,35,127,0
0,39,50,0
0,42,42,0
0,54,59,0
