track,note,velocity,time
1,45,120,15644
1,45,120,196
1,45,120,196
1,45,120,196
1,41,120,196
1,41,120,196
1,43,120,196
1,43,120,196
1,45,120,196
1,45,120,196
1,45,120,196
1,45,120,196
1,41,120,196
1,41,120,196
1,43,120,196
1,43,120,196
1,45,120,196
1,45,120,196
1,45,120,196
1,45,120,196
1,41,120,196
1,41,120,196
1,43,120,196
1,43,120,196
1,45,120,196
1,45,120,196
1,45,120,196
1,45,120,196
1,36,120,1732
1,36,120,196
1,36,120,196
1,36,120,196
1,41,120,196
1,41,120,196
1,36,120,196
1,36,120,196
1,43,120,196
1,43,120,196
1,36,120,196
1,36,120,196
1,38,120,196
1,38,120,196
1,43,120,196
1,43,120,196
1,36,120,196
1,36,120,196
1,36,120,196
1,36,120,196
1,41,120,196
1,41,120,196
1,36,120,196
1,36,120,196
1,43,120,196
1,43,120,196
1,36,120,196
1,36,120,196
1,38,120,196
1,38,120,196
1,43,120,196
1,43,120,196
1,43,120,196
1,43,120,196
1,43,120,196
1,43,120,196
1,36,120,196
1,36,120,196
1,36,120,196
1,36,120,196
1,43,120,196
1,43,120,196
1,43,120,196
1,43,120,196
1,36,120,196
1,36,120,196
1,36,120,196
1,36,120,196
1,43,120,196
1,43,120,196
1,43,120,196
1,43,120,196
1,36,120,196
1,36,120,196
1,36,120,196
1,36,120,196
1,41,120,196
1,41,120,196
1,43,120,196
1,43,120,196
1,36,120,196
1,36,120,196
1,36,120,196
1,36,120,196
1,45,120,196
1,45,120,196
1,45,120,196
1,45,120,196
1,45,120,196
1,45,120,196
1,45,120,196
1,45,120,196
1,45,120,196
1,45,120,196
1,45,120,196
1,45,120,196
1,41,120,196
1,41,120,196
1,43,120,196
1,43,120,196
1,45,120,196
1,45,120,196
1,45,120,196
1,45,120,196
1,45,120,196
1,45,120,196
1,45,120,196
1,45,120,196
1,45,120,196
1,45,120,196
1,45,120,196
1,45,120,196
1,41,120,196
1,41,120,196
1,43,120,196
1,43,120,196
1,45,120,196
1,45,120,196
1,45,120,196
1,45,120,196
1,45,120,196
1,45,120,196
1,45,120,196
1,45,120,196
1,45,120,196
1,45,120,196
1,45,120,196
1,45,120,196
1,41,120,196
1,41,120,196
1,43,120,196
1,43,120,196
1,45,120,196
1,45,120,196
1,45,120,196
1,45,120,196
1,45,120,196
1,45,120,196
1,45,120,196
1,45,120,196
1,45,120,196
1,45,120,196
1,45,120,196
1,45,120,196
1,41,120,196
1,41,120,196
1,43,120,196
1,43,120,196
1,36,120,196
1,36,120,196
1,36,120,196
1,36,120,196
1,41,120,196
1,41,120,196
1,36,120,196
1,36,120,196
1,43,120,196
1,43,120,196
1,36,120,196
1,36,120,196
1,38,120,196
1,38,120,196
1,43,120,196
1,43,120,196
1,36,120,196
1,36,120,196
1,36,120,196
1,36,120,196
1,41,120,196
1,41,120,196
1,36,120,196
1,36,120,196
1,43,120,196
1,43,120,196
1,36,120,196
1,36,120,196
1,38,120,196
1,38,120,196
1,43,120,196
1,43,120,196
1,43,120,196
1,43,120,196
1,43,120,196
1,43,120,196
1,36,120,196
1,36,120,196
1,36,120,196
1,36,120,196
1,43,120,196
1,43,120,196
1,43,120,196
1,43,120,196
1,36,120,196
1,36,120,196
1,36,120,196
1,36,120,196
1,43,120,196
1,43,120,196
1,43,120,196
1,43,120,196
1,36,120,196
1,36,120,196
1,36,120,196
1,36,120,196
1,41,120,196
1,41,120,196
1,43,120,196
1,43,120,196
1,36,120,196
1,36,120,196
1,36,120,196
1,36,120,196
1,45,120,12484
1,45,120,196
1,45,120,196
1,45,120,196
1,45,120,196
1,45,120,196
1,45,120,196
1,45,120,196
1,45,120,196
1,45,120,196
1,45,120,196
1,45,120,196
1,45,120,196
1,45,120,196
1,45,120,196
1,45,120,196
1,38,120,196
1,38,120,196
1,38,120,196
1,38,120,196
1,38,120,196
1,38,120,196
1,38,120,196
1,38,120,196
1,41,120,196
1,41,120,196
1,41,120,196
1,41,120,196
1,36,120,1732
1,36,120,196
1,36,120,196
1,36,120,196
1,41,120,196
1,41,120,196
1,36,120,196
1,36,120,196
1,43,120,196
1,43,120,196
1,36,120,196
1,36,120,196
1,38,120,196
1,38,120,196
1,43,120,196
1,43,120,196
1,36,120,196
1,36,120,196
1,36,120,196
1,36,120,196
1,41,120,196
1,41,120,196
1,36,120,196
1,36,120,196
1,43,120,196
1,43,120,196
1,36,120,196
1,36,120,196
1,38,120,196
1,38,120,196
1,43,120,196
1,43,120,196
1,43,120,196
1,43,120,196
1,43,120,196
1,43,120,196
1,36,120,196
1,36,120,196
1,36,120,196
1,36,120,196
1,43,120,196
1,43,120,196
1,43,120,196
1,43,120,196
1,36,120,196
1,36,120,196
1,36,120,196
1,36,120,196
1,43,120,196
1,43,120,196
1,43,120,196
1,43,120,196
1,36,120,196
1,36,120,196
1,36,120,196
1,36,120,196
1,41,120,196
1,41,120,196
1,43,120,196
1,43,120,196
1,36,120,196
1,36,120,196
1,36,120,196
1,36,120,196
1,45,120,196
1,45,120,196
1,45,120,196
1,45,120,196
1,45,120,196
1,45,120,196
1,45,120,196
1,45,120,196
1,45,120,196
1,45,120,196
1,45,120,196
1,45,120,196
1,41,120,196
1,41,120,196
1,43,120,196
1,43,120,196
1,45,120,196
1,45,120,196
1,45,120,196
1,45,120,196
1,45,120,196
1,45,120,196
1,45,120,196
1,45,120,196
1,45,120,196
1,45,120,196
1,45,120,196
1,45,120,196
1,41,120,196
1,41,120,196
1,43,120,196
1,43,120,196
1,45,120,196
1,45,120,196
1,45,120,196
1,45,120,196
1,45,120,196
1,45,120,196
1,45,120,196
1,45,120,196
1,45,120,196
1,45,120,196
1,45,120,196
1,45,120,196
1,41,120,196
1,41,120,196
1,43,120,196
1,43,120,196
1,45,120,196
1,45,120,196
1,45,120,196
1,45,120,196
1,45,120,196
1,45,120,196
1,45,120,196
1,45,120,196
1,45,120,196
1,45,120,196
1,45,120,196
1,45,120,196
1,41,120,196
1,41,120,196
1,43,120,196
1,43,120,196
1,36,120,196
1,36,120,196
1,36,120,196
1,36,120,196
1,41,120,196
1,41,120,196
1,36,120,196
1,36,120,196
1,43,120,196
1,43,120,196
1,36,120,196
1,36,120,196
1,38,120,196
1,38,120,196
1,43,120,196
1,43,120,196
1,36,120,196
1,36,120,196
1,36,120,196
1,36,120,196
1,41,120,196
1,41,120,196
1,36,120,196
1,36,120,196
1,43,120,196
1,43,120,196
1,36,120,196
1,36,120,196
1,38,120,196
1,38,120,196
1,43,120,196
1,43,120,196
1,43,120,12484
1,43,120,196
1,43,120,196
1,43,120,196
1,36,120,196
1,36,120,196
1,36,120,196
1,36,120,196
1,43,120,196
1,43,120,196
1,43,120,196
1,43,120,196
1,36,120,196
1,36,120,196
1,36,120,196
1,36,120,196
1,43,120,196
1,43,120,196
1,43,120,196
1,43,120,196
1,36,120,196
1,36,120,196
1,36,120,196
1,36,120,196
1,41,120,196
1,41,120,196
1,43,120,196
1,43,120,196
2,60,112,15734
2,62,112,100
2,60,112,100
2,67,112,100
2,59,112,196
2,60,112,196
2,60,112,292
2,62,112,100
2,60,112,100
2,65,112,100
2,59,112,196
2,60,112,196
2,60,112,292
2,62,112,100
2,60,112,100
2,67,112,100
2,59,112,196
2,60,112,196
2,60,112,292
2,62,112,100
2,60,112,100
2,65,112,100
2,64,112,100
2,62,112,100
2,60,112,100
2,60,112,292
2,62,112,100
2,60,112,100
2,67,112,100
2,59,112,196
2,60,112,196
2,60,112,292
2,62,112,100
2,60,112,100
2,65,112,100
2,59,112,196
2,60,112,196
2,60,112,292
2,62,112,100
2,60,112,100
2,67,112,100
2,59,112,196
2,60,112,196
2,53,67,100
2,65,67,0
2,53,67,52
2,65,67,0
2,53,67,52
2,65,67,0
2,53,67,52
2,65,67,0
2,53,67,52
2,65,67,0
2,53,67,52
2,65,67,0
2,53,67,52
2,65,67,0
2,53,67,52
2,65,67,0
2,55,67,52
2,67,67,0
2,55,67,52
2,67,67,0
2,55,67,52
2,67,67,0
2,55,67,52
2,67,67,0
2,55,67,52
2,67,67,0
2,55,67,52
2,67,67,0
2,55,67,52
2,67,67,0
2,55,67,52
2,67,67,0
2,48,67,52
2,60,67,0
2,48,67,52
2,60,67,0
2,48,67,52
2,60,67,0
2,48,67,52
2,60,67,0
2,48,67,52
2,60,67,0
2,48,67,52
2,60,67,0
2,48,67,52
2,60,67,0
2,48,67,52
2,60,67,0
2,48,67,52
2,60,67,0
2,48,67,52
2,60,67,0
2,48,67,52
2,60,67,0
2,48,67,52
2,60,67,0
2,48,67,52
2,60,67,0
2,48,67,52
2,60,67,0
2,48,67,52
2,60,67,0
2,48,67,52
2,60,67,0
2,53,67,52
2,65,67,0
2,53,67,52
2,65,67,0
2,53,67,52
2,65,67,0
2,53,67,52
2,65,67,0
2,53,67,52
2,65,67,0
2,53,67,52
2,65,67,0
2,53,67,52
2,65,67,0
2,53,67,52
2,65,67,0
2,48,67,52
2,60,67,0
2,48,67,52
2,60,67,0
2,48,67,52
2,60,67,0
2,48,67,52
2,60,67,0
2,48,67,52
2,60,67,0
2,48,67,52
2,60,67,0
2,48,67,52
2,60,67,0
2,48,67,52
2,60,67,0
2,55,67,52
2,67,67,0
2,55,67,52
2,67,67,0
2,55,67,52
2,67,67,0
2,55,67,52
2,67,67,0
2,55,67,52
2,67,67,0
2,55,67,52
2,67,67,0
2,55,67,52
2,67,67,0
2,55,67,52
2,67,67,0
2,48,67,52
2,60,67,0
2,48,67,52
2,60,67,0
2,48,67,52
2,60,67,0
2,48,67,52
2,60,67,0
2,48,67,52
2,60,67,0
2,48,67,52
2,60,67,0
2,48,67,52
2,60,67,0
2,48,67,52
2,60,67,0
2,50,67,52
2,62,67,0
2,50,67,52
2,62,67,0
2,50,67,52
2,62,67,0
2,50,67,52
2,62,67,0
2,50,67,52
2,62,67,0
2,50,67,52
2,62,67,0
2,50,67,52
2,62,67,0
2,50,67,52
2,62,67,0
2,55,67,52
2,67,67,0
2,55,67,52
2,67,67,0
2,55,67,52
2,67,67,0
2,55,67,52
2,67,67,0
2,55,67,52
2,67,67,0
2,55,67,52
2,67,67,0
2,55,67,52
2,67,67,0
2,55,67,52
2,67,67,0
2,48,67,52
2,60,67,0
2,48,67,52
2,60,67,0
2,48,67,52
2,60,67,0
2,48,67,52
2,60,67,0
2,48,67,52
2,60,67,0
2,48,67,52
2,60,67,0
2,48,67,52
2,60,67,0
2,48,67,52
2,60,67,0
2,48,67,52
2,60,67,0
2,48,67,52
2,60,67,0
2,48,67,52
2,60,67,0
2,48,67,52
2,60,67,0
2,48,67,52
2,60,67,0
2,48,67,52
2,60,67,0
2,48,67,52
2,60,67,0
2,48,67,52
2,60,67,0
2,53,67,52
2,65,67,0
2,53,67,52
2,65,67,0
2,53,67,52
2,65,67,0
2,53,67,52
2,65,67,0
2,53,67,52
2,65,67,0
2,53,67,52
2,65,67,0
2,53,67,52
2,65,67,0
2,53,67,52
2,65,67,0
2,48,67,52
2,60,67,0
2,48,67,52
2,60,67,0
2,48,67,52
2,60,67,0
2,48,67,52
2,60,67,0
2,48,67,52
2,60,67,0
2,48,67,52
2,60,67,0
2,48,67,52
2,60,67,0
2,48,67,52
2,60,67,0
2,55,67,52
2,67,67,0
2,55,67,52
2,67,67,0
2,55,67,52
2,67,67,0
2,55,67,52
2,67,67,0
2,55,67,52
2,67,67,0
2,55,67,52
2,67,67,0
2,55,67,52
2,67,67,0
2,55,67,52
2,67,67,0
2,48,67,52
2,60,67,0
2,48,67,52
2,60,67,0
2,48,67,52
2,60,67,0
2,48,67,52
2,60,67,0
2,48,67,52
2,60,67,0
2,48,67,52
2,60,67,0
2,48,67,52
2,60,67,0
2,48,67,52
2,60,67,0
2,50,67,52
2,62,67,0
2,50,67,52
2,62,67,0
2,50,67,52
2,62,67,0
2,50,67,52
2,62,67,0
2,50,67,52
2,62,67,0
2,50,67,52
2,62,67,0
2,50,67,52
2,62,67,0
2,50,67,52
2,62,67,0
2,55,67,52
2,67,67,0
2,55,67,52
2,67,67,0
2,55,67,52
2,67,67,0
2,55,67,52
2,67,67,0
2,55,67,52
2,67,67,0
2,55,67,52
2,67,67,0
2,55,67,52
2,67,67,0
2,55,67,52
2,67,67,0
2,60,107,244
2,62,107,100
2,60,107,100
2,67,107,100
2,59,107,196
2,60,107,196
2,60,107,292
2,62,107,100
2,60,107,100
2,64,107,100
2,60,107,100
2,62,107,100
2,60,107,100
2,60,107,292
2,62,107,100
2,60,107,100
2,67,107,100
2,59,107,196
2,60,107,196
2,60,107,292
2,62,107,100
2,60,107,100
2,64,107,100
2,60,107,100
2,62,107,100
2,60,107,100
2,60,107,292
2,62,107,100
2,60,107,100
2,67,107,100
2,59,107,196
2,60,107,196
2,60,107,292
2,62,107,100
2,60,107,100
2,64,107,100
2,60,107,100
2,62,107,100
2,60,107,100
2,60,107,292
2,62,107,100
2,60,107,100
2,65,107,100
2,59,107,196
2,60,107,196
2,60,107,292
2,62,107,100
2,60,107,100
2,64,107,100
2,60,107,100
2,62,107,100
2,60,107,100
2,69,75,292
2,69,75,244
2,69,75,244
2,69,75,244
2,69,75,244
2,69,75,244
2,69,75,52
2,72,75,52
2,69,75,52
2,67,75,52
2,69,75,244
2,69,75,244
2,69,75,244
2,69,75,244
2,65,75,52
2,65,75,196
2,67,75,196
2,67,75,196
2,69,75,388
2,69,75,244
2,69,75,244
2,69,75,244
2,69,75,244
2,69,75,244
2,69,75,52
2,72,75,52
2,69,75,52
2,67,75,52
2,69,75,244
2,69,75,244
2,69,75,244
2,69,75,244
2,65,75,52
2,65,75,196
2,67,75,196
2,67,75,196
2,69,75,388
2,69,75,244
2,69,75,244
2,69,75,244
2,69,75,244
2,69,75,244
2,69,75,52
2,72,75,52
2,69,75,52
2,67,75,52
2,69,75,244
2,69,75,244
2,69,75,244
2,69,75,244
2,65,75,52
2,65,75,196
2,67,75,196
2,67,75,196
2,69,75,388
2,69,75,244
2,69,75,244
2,69,75,244
2,69,75,244
2,69,75,244
2,69,75,52
2,72,75,52
2,69,75,52
2,67,75,52
2,69,75,244
2,69,75,244
2,69,75,244
2,69,75,244
2,65,75,52
2,65,75,196
2,67,75,196
2,67,75,196
2,48,67,196
2,60,67,0
2,48,67,52
2,60,67,0
2,48,67,52
2,60,67,0
2,48,67,52
2,60,67,0
2,48,67,52
2,60,67,0
2,48,67,52
2,60,67,0
2,48,67,52
2,60,67,0
2,48,67,52
2,60,67,0
2,48,67,52
2,60,67,0
2,48,67,52
2,60,67,0
2,48,67,52
2,60,67,0
2,48,67,52
2,60,67,0
2,48,67,52
2,60,67,0
2,48,67,52
2,60,67,0
2,48,67,52
2,60,67,0
2,48,67,52
2,60,67,0
2,53,67,52
2,65,67,0
2,53,67,52
2,65,67,0
2,53,67,52
2,65,67,0
2,53,67,52
2,65,67,0
2,53,67,52
2,65,67,0
2,53,67,52
2,65,67,0
2,53,67,52
2,65,67,0
2,53,67,52
2,65,67,0
2,48,67,52
2,60,67,0
2,48,67,52
2,60,67,0
2,48,67,52
2,60,67,0
2,48,67,52
2,60,67,0
2,48,67,52
2,60,67,0
2,48,67,52
2,60,67,0
2,48,67,52
2,60,67,0
2,48,67,52
2,60,67,0
2,55,67,52
2,67,67,0
2,55,67,52
2,67,67,0
2,55,67,52
2,67,67,0
2,55,67,52
2,67,67,0
2,55,67,52
2,67,67,0
2,55,67,52
2,67,67,0
2,55,67,52
2,67,67,0
2,55,67,52
2,67,67,0
2,48,67,52
2,60,67,0
2,48,67,52
2,60,67,0
2,48,67,52
2,60,67,0
2,48,67,52
2,60,67,0
2,48,67,52
2,60,67,0
2,48,67,52
2,60,67,0
2,48,67,52
2,60,67,0
2,48,67,52
2,60,67,0
2,50,67,52
2,62,67,0
2,50,67,52
2,62,67,0
2,50,67,52
2,62,67,0
2,50,67,52
2,62,67,0
2,50,67,52
2,62,67,0
2,50,67,52
2,62,67,0
2,50,67,52
