track,note,velocity,time
0,59,63,214
0,59,0,11
0,66,69,12
0,66,0,12
0,71,70,12
0,71,0,12
0,78,95,12
0,78,0,12
0,59,62,12
0,59,0,12
0,66,73,12
0,66,0,12
0,71,76,12
0,71,0,12
0,78,95,12
0,78,0,12
0,59,66,12
0,59,0,12
0,66,76,12
0,66,0,12
0,71,76,12
0,71,0,12
0,78,96,12
0,78,0,12
0,59,63,12
0,59,0,12
0,66,77,12
0,66,0,12
0,71,76,12
0,71,0,12
0,78,96,12
0,78,0,12
0,59,66,12
0,59,0,12
0,66,75,12
0,66,0,12
0,71,79,12
0,71,0,12
0,78,97,12
0,78,0,12
0,59,64,12
0,59,0,12
0,66,76,12
0,66,0,12
0,71,80,12
0,71,0,12
0,78,97,12
0,78,0,12
0,59,63,12
0,59,0,12
0,66,76,12
0,66,0,12
0,71,75,12
0,71,0,12
0,78,96,12
0,78,0,12
0,59,63,12
0,59,0,12
0,66,70,12
0,66,0,12
0,71,75,12
0,71,0,12
0,78,94,12
0,78,0,12
0,59,63,12
0,59,0,12
0,66,73,12
0,66,0,12
0,71,76,12
0,71,0,12
0,78,96,12
0,78,0,12
0,59,62,12
0,59,0,12
0,66,73,12
0,66,0,12
0,71,80,12
0,71,0,12
0,78,96,12
0,78,0,12
0,59,62,12
0,59,0,12
0,66,72,12
0,66,0,12
0,71,78,12
0,71,0,12
0,78,95,12
0,78,0,12
0,59,60,12
0,59,0,12
0,66,71,12
0,66,0,12
0,71,76,12
0,71,0,12
0,78,97,12
0,78,0,12
0,59,63,12
0,59,0,12
0,66,77,12
0,66,0,12
0,71,87,12
0,71,0,12
0,78,98,12
0,78,0,12
0,59,63,12
0,59,0,12
0,66,76,12
0,66,0,12
0,71,81,12
0,71,0,12
0,78,99,12
0,78,0,12
0,59,64,12
0,59,0,12
0,66,77,12
0,66,0,12
0,71,82,12
0,71,0,12
0,78,97,12
0,78,0,12
0,59,63,12
0,59,0,12
0,66,73,12
0,66,0,12
0,71,82,12
0,71,0,12
0,78,97,12
0,78,0,12
0,59,34,12
0,62,34,0
0,59,63,0
0,59,83,1
0,74,100,0
0,59,0,10
0,66,69,12
0,59,0,4
0,74,0,0
0,66,0,8
0,62,0,11
0,59,0,0
0,59,72,0
0,74,94,0
0,62,34,1
0,59,34,0
0,71,70,0
0,71,0,12
0,59,0,12
0,78,95,0
0,78,0,12
0,74,0,10
0,59,0,1
0,59,76,0
0,62,0,1
0,78,102,0
0,59,34,0
0,66,34,0
0,59,62,0
0,59,0,12
0,66,73,12
0,59,0,5
0,66,0,7
0,78,0,9
0,59,0,3
0,66,0,0
0,57,36,0
0,61,36,0
0,71,76,0
0,57,78,1
0,73,96,0
0,71,0,11
0,78,95,12
0,78,0,12
0,59,66,12
0,59,0,12
0,73,0,2
0,66,76,10
0,57,0,7
0,66,0,5
0,57,0,11
0,78,94,1
0,57,36,0
0,66,36,0
0,71,76,0
0,57,64,1
0,61,0,6
0,71,0,5
0,78,96,12
0,78,0,12
0,57,0,12
0,59,63,0
0,59,0,12
0,78,0,1
0,66,77,11
0,66,0,12
0,57,0,11
0,66,0,0
0,59,47,1
0,57,36,0
0,61,36,0
0,71,76,0
0,55,80,1
0,73,95,0
0,71,0,11
0,78,96,12
0,78,0,12
0,59,66,12
0,59,0,12
0,66,75,12
0,66,0,12
0,73,0,4
0,74,95,6
0,61,0,2
0,57,0,0
0,62,33,0
0,59,33,0
0,71,79,0
0,71,0,12
0,73,86,11
0,62,0,1
0,59,0,0
0,61,34,0
0,57,34,0
0,78,97,0
0,74,0,5
0,78,0,7
0,71,86,11
0,61,0,1
0,57,0,0
0,59,36,0
0,55,36,0
0,59,64,0
0,73,0,7
0,59,0,5
0,66,76,12
0,66,0,12
0,71,80,12
0,71,0,12
0,55,0,1
0,59,0,2
0,78,97,9
0,71,0,7
0,78,0,5
0,55,0,11
0,59,0,0
0,55,81,0
0,71,95,1
0,55,36,0
0,59,36,0
0,59,63,0
0,59,0,12
0,66,76,12
0,66,0,12
0,71,75,12
0,71,0,12
0,55,0,10
0,78,96,2
0,78,0,12
0,71,0,3
0,73,94,8
0,55,0,1
0,59,0,0
0,57,79,0
0,61,38,0
0,57,38,0
0,59,63,0
0,59,0,12
0,66,70,12
0,66,0,12
0,71,75,12
0,57,0,7
0,71,0,5
0,73,0,1
0,78,94,11
0,78,0,12
0,74,94,10
0,61,0,1
0,59,78,0
0,57,0,1
0,62,38,0
0,59,38,0
0,59,63,0
0,59,0,12
0,66,73,12
0,59,0,3
0,66,0,9
0,74,0,9
0,76,99,1
0,59,0,1
0,59,76,0
0,62,0,1
0,64,38,0
0,59,38,0
0,71,76,0
0,71,0,12
0,78,96,12
0,59,0,3
0,78,0,9
0,76,0,2
0,59,0,9
0,59,76,0
0,74,100,0
0,64,0,1
0,62,38,0
0,59,38,0
0,59,62,0
0,59,0,12
0,66,73,12
0,59,0,9
0,66,0,3
0,74,0,9
0,73,95,2
0,62,0,1
0,59,0,0
0,61,38,0
0,57,38,0
0,71,80,0
0,57,76,1
0,71,0,11
0,78,96,12
0,78,0,12
0,59,62,12
0,59,0,12
0,57,0,12
0,66,72,0
0,73,0,8
0,66,0,4
0,57,0,11
0,61,0,0
0,74,100,0
0,62,38,1
0,57,38,0
0,71,78,0
0,57,75,1
0,71,0,11
0,78,95,12
0,57,0,5
0,78,0,7
0,57,0,11
0,62,0,1
0,57,69,0
0,73,93,0
0,57,38,0
0,61,38,0
0,59,60,0
0,74,0,5
0,59,0,7
0,66,71,12
0,57,0,5
0,66,0,7
0,73,0,0
0,57,0,11
0,61,0,0
0,57,38,1
0,61,38,0
0,71,76,0
0,57,79,1
0,73,101,0
0,71,0,11
0,78,97,12
0,78,0,12
0,59,63,12
0,59,0,12
0,66,77,12
0,66,0,12
0,57,0,11
0,57,0,1
0,61,0,0
0,55,38,0
0,59,38,0
0,71,87,0
0,55,75,1
0,71,87,0
0,73,0,5
0,71,0,6
0,78,98,12
0,55,0,4
0,71,0,6
0,78,0,2
0,59,0,11
0,55,0,0
0,59,43,1
0,55,38,0
0,59,38,0
0,59,63,0
0,55,63,1
0,71,88,0
0,59,0,11
0,66,76,12
0,66,0,12
0,71,81,12
0,71,0,12
0,71,0,12
0,78,99,0
0,78,0,12
0,59,64,12
0,59,0,12
0,66,77,12
0,66,0,12
0,59,0,11
0,55,0,1
0,71,82,0
0,71,0,12
0,78,97,12
0,78,0,12
0,73,92,11
0,61,38,1
0,57,38,0
0,59,63,0
0,59,0,12
0,66,73,12
0,66,0,12
0,55,0,8
0,59,0,3
0,71,82,1
0,71,0,12
0,73,0,8
0,78,97,4
0,78,0,12
0,61,0,11
0,74,98,0
0,57,0,1
0,62,38,0
0,59,38,0
0,59,63,0
0,59,79,1
0,59,0,11
0,59,0,10
0,66,69,2
0,74,0,9
0,66,0,3
0,59,0,11
0,62,0,0
0,59,72,0
0,74,98,0
0,62,38,1
0,59,38,0
0,71,70,0
0,71,0,12
0,59,0,12
0,78,95,0
0,78,0,12
0,59,0,11
0,59,80,0
0,78,98,0
0,62,0,1
0,66,38,0
0,59,38,0
0,59,62,0
0,74,0,2
0,59,0,10
0,66,73,12
0,66,0,12
0,59,0,0
0,78,0,7
0,59,0,5
0,66,0,0
0,73,98,0
0,57,38,0
0,61,38,0
0,71,76,0
0,57,75,1
0,71,0,11
0,78,95,12
0,78,0,12
0,59,66,12
0,59,0,12
0,66,76,12
0,57,0,3
0,73,0,5
0,66,0,4
0,61,0,11
0,57,0,0
0,78,98,0
0,66,38,1
0,57,38,0
0,71,76,0
0,57,64,1
0,71,0,11
0,78,96,12
0,78,0,12
0,59,63,12
0,57,0,8
0,59,0,4
0,78,0,12
0,66,77,0
0,66,0,12
0,57,0,11
0,66,0,0
0,73,98,0
0,59,45,1
0,61,38,0
0,57,38,0
0,71,76,0
0,55,79,1
0,71,0,11
0,78,96,12
0,78,0,12
0,59,66,12
0,59,0,12
0,57,0,10
0,61,0,0
0,55,38,2
0,59,38,0
0,66,75,0
0,71,92,1
0,73,0,5
0,66,0,6
0,59,0,10
0,55,0,0
0,73,77,2
0,57,38,0
0,61,38,0
0,71,79,0
0,71,0,1
0,71,0,11
0,78,97,12
0,78,0,12
0,61,0,11
0,57,0,0
0,71,94,1
0,59,38,0
0,55,38,0
0,59,64,0
0,73,0,7
0,59,0,5
0,66,76,12
0,66,0,12
0,71,80,12
0,71,0,12
0,55,0,5
0,71,0,6
0,59,0,0
0,78,97,1
0,78,0,12
0,55,80,11
0,59,63,1
0,59,0,12
0,66,76,12
0,66,0,12
0,71,75,12
0,71,0,12
0,78,96,12
0,78,0,12
0,55,0,1
0,55,0,10
0,59,0,0
0,57,80,0
0,57,38,1
0,61,38,0
0,59,63,0
0,73,101,1
0,59,0,11
0,66,70,12
0,66,0,12
0,73,0,2
0,61,0,9
0,57,0,0
0,57,39,1
0,61,39,0
0,71,75,0
0,73,102,1
0,71,0,11
0,57,0,10
0,78,94,2
0,78,0,12
0,73,0,6
0,61,0,6
0,57,0,0
0,59,39,0
0,62,39,0
0,59,63,0
0,59,80,1
0,74,102,0
0,59,0,11
0,66,73,12
0,59,0,10
0,66,0,2
0,74,0,11
0,59,0,0
0,62,0,1
0,59,39,0
0,64,39,0
0,71,76,0
0,59,76,1
0,76,102,0
0,71,0,11
0,78,96,12
0,59,0,2
0,78,0,10
0,59,0,11
0,64,0,1
0,59,80,0
0,59,39,0
0,62,39,0
0,59,62,0
0,74,102,1
0,76,0,3
0,59,0,8
0,66,73,12
0,66,0,12
0,59,0,0
0,74,0,10
0,62,0,2
0,59,0,0
0,57,39,0
0,61,39,0
0,71,80,0
0,57,78,1
0,73,102,0
0,71,0,11
0,78,96,12
0,78,0,12
0,59,62,12
0,59,0,12
0,66,72,12
0,57,0,5
0,66,0,7
0,73,0,2
0,57,76,9
0,61,0,1
0,57,0,0
0,55,39,0
0,62,39,0
0,71,78,0
0,74,102,1
0,71,0,11
0,78,95,12
0,57,0,6
0,78,0,6
0,55,0,12
0,62,0,0
0,54,39,0
0,61,39,0
0,59,60,0
0,57,77,1
0,73,102,0
0,74,0,4
0,59,0,7
0,66,71,12
0,57,0,6
0,73,0,5
0,66,0,1
0,61,0,11
0,54,0,1
0,57,39,0
0,61,39,0
0,71,76,0
0,57,80,1
0,73,96,1
0,71,0,10
0,78,97,12
0,78,0,12
0,59,63,12
0,59,0,12
0,66,77,12
0,66,0,12
0,57,0,12
0,61,0,0
0,59,39,0
0,62,39,0
0,71,87,0
0,57,0,1
0,73,0,0
0,55,78,0
0,74,95,0
0,71,0,11
0,74,0,11
0,62,0,1
0,59,0,0
0,73,90,0
0,57,39,0
0,61,39,0
0,78,98,0
0,55,0,4
0,78,0,8
0,61,0,12
0,57,0,0
0,55,39,0
0,59,39,0
0,59,63,0
0,73,0,1
0,55,68,0
0,59,45,0
0,71,87,1
0,59,0,10
0,66,76,12
0,66,0,12
0,71,81,12
0,71,0,12
0,71,0,8
0,78,99,4
0,78,0,12
0,59,64,12
0,59,0,12
0,66,77,12
0,66,0,12
0,71,82,12
0,71,0,12
0,55,0,11
0,59,0,0
0,78,97,1
0,78,0,12
0,40,105,6
0,38,80,0
0,38,0,1
0,40,0,0
0,59,63,5
0,40,122,2
0,38,97,0
0,38,0,1
0,40,0,0
0,59,0,9
0,59,0,9
0,66,73,3
0,55,0,2
0,66,0,10
0,71,82,12
0,71,0,12
0,78,97,12
0,78,0,12
0,35,83,12
0,59,63,0
0,62,89,0
0,66,89,0
0,54,112,0
0,59,112,0
0,35,112,0
0,56,81,0
0,56,0,1
0,35,0,0
0,47,124,0
0,54,105,0
0,59,110,0
0,62,112,0
0,49,89,0
0,49,0,1
0,59,0,10
0,66,69,12
0,35,0,3
0,47,0,3
0,62,0,3
0,66,0,3
0,59,0,1
0,54,0,1
0,66,0,7
0,62,0,0
0,66,102,1
0,47,100,1
0,54,66,0
0,62,80,0
0,59,81,0
0,62,107,0
0,35,86,1
0,71,70,0
0,42,72,0
0,42,0,1
0,71,0,11
0,54,0,11
0,78,95,1
0,54,0,5
0,59,0,2
0,62,0,2
0,78,0,3
0,59,0,0
0,62,0,1
0,47,0,7
0,61,104,0
0,52,94,0
0,66,0,1
0,57,112,1
0,66,94,0
0,61,88,1
0,52,107,1
0,57,90,0
0,45,107,0
0,33,86,0
0,59,62,0
0,42,70,0
0,40,112,0
0,38,87,0
0,56,93,0
0,56,0,1
0,42,0,0
0,38,0,0
0,40,0,0
0,35,0,7
0,59,0,4
0,52,0,12
0,66,73,0
0,52,0,6
0,57,0,5
0,61,0,0
0,66,0,1
0,57,0,3
0,61,0,3
0,66,0,2
0,66,102,1
0,33,0,1
0,62,108,0
0,59,103,0
0,35,86,2
0,71,76,0
0,54,65,0
0,42,69,0
0,42,0,1
0,54,117,0
0,59,100,0
0,62,116,0
0,47,117,0
0,45,0,4
0,71,0,7
0,78,95,12
0,62,0,7
0,66,0,1
0,59,0,0
0,54,0,2
0,59,0,2
0,54,0,0
0,78,0,0
0,62,0,8
0,47,0,4
0,59,66,0
0,42,86,0
0,35,112,0
0,56,87,0
0,56,0,1
0,42,0,0
0,35,0,0
0,59,0,11
0,35,0,2
0,66,76,10
0,66,0,12
0,66,100,9
0,57,98,1
0,61,107,0
0,45,110,1
0,52,78,0
0,61,101,1
0,52,108,0
0,57,111,0
0,33,86,0
0,71,76,0
0,42,60,0
0,42,0,1
0,71,0,11
0,52,0,11
0,78,96,1
0,57,0,4
0,61,0,3
0,78,0,5
0,66,0,6
0,59,63,6
0,42,98,0
0,40,112,0
0,38,87,0
0,56,97,0
0,56,0,1
0,38,0,0
0,42,0,0
0,40,0,0
0,61,0,1
0,57,0,3
0,45,0,4
0,59,0,3
0,33,0,4
0,52,0,4
0,66,77,4
0,66,0,12
0,59,111,11
0,54,111,0
0,55,102,0
0,43,116,0
0,66,99,0
0,31,86,1
0,71,76,0
0,62,103,0
0,42,67,0
0,42,0,1
0,59,101,0
0,55,61,1
0,71,0,10
0,78,96,12
0,78,0,12
0,59,66,12
0,42,92,0
0,35,112,0
0,56,85,0
0,56,0,1
0,35,0,0
0,42,0,0
0,59,0,11
0,66,75,12
0,66,0,12
0,71,79,12
0,42,62,0
0,42,0,1
0,71,0,11
0,78,97,12
0,78,0,12
0,59,64,12
0,42,98,0
0,40,112,0
0,38,87,0
0,56,101,0
0,56,0,1
0,38,0,0
0,42,0,0
0,40,0,0
0,59,0,11
0,66,76,12
0,55,0,7
0,62,0,2
0,66,0,0
0,66,0,3
0,59,0,2
0,71,80,10
0,42,76,0
0,42,0,1
0,31,0,8
0,71,0,3
0,59,0,8
0,54,0,4
0,78,97,0
0,55,0,10
0,78,0,2
0,43,0,0
0,55,104,11
0,54,109,0
0,59,104,0
0,43,114,1
0,31,86,0
0,59,63,0
0,42,98,0
0,35,102,0
0,56,73,0
0,56,0,1
0,35,0,0
0,42,0,0
0,55,100,0
0,59,103,0
0,66,103,0
0,62,112,0
0,59,0,11
0,66,76,12
0,66,0,12
0,66,0,5
0,62,0,2
0,55,0,4
0,71,75,1
0,42,72,0
0,35,105,0
0,56,76,0
0,56,0,1
0,35,0,0
0,59,0,0
0,42,0,0
0,71,0,11
0,31,0,5
0,54,0,6
0,78,96,1
0,55,0,10
0,78,0,2
0,59,0,0
0,43,0,5
0,45,107,7
0,33,88,0
0,59,63,0
0,52,99,0
0,66,101,0
0,42,95,0
0,40,112,0
0,38,87,0
0,56,91,0
0,56,0,1
0,38,0,0
0,40,0,0
0,42,0,0
0,52,114,0
0,57,112,0
0,61,111,0
0,57,109,0
0,61,69,4
0,59,0,7
0,66,70,12
0,66,0,12
0,61,0,1
0,52,0,1
0,57,0,5
0,66,0,0
0,71,75,5
0,42,69,0
0,42,0,1
0,71,0,11
0,52,0,4
0,78,94,8
0,61,0,5
0,57,0,7
0,78,0,0
0,33,0,8
0,45,0,0
