track,note,velocity,time
1.0,61.0,82.0,2095.0
1.0,34.0,91.0,30.0
1.0,66.0,80.0,10.0
1.0,70.0,80.0,20.0
1.0,46.0,88.0,405.0
1.0,61.0,88.0,20.0
1.0,70.0,50.0,45.0
1.0,66.0,74.0,20.0
1.0,70.0,78.0,105.0
1.0,61.0,82.0,65.0
1.0,63.0,95.0,130.0
1.0,68.0,88.0,5.0
1.0,36.0,95.0,15.0
1.0,48.0,98.0,85.0
1.0,60.0,98.0,15.0
1.0,63.0,88.0,90.0
1.0,68.0,88.0,90.0
1.0,61.0,82.0,120.0
1.0,41.0,88.0,50.0
1.0,65.0,82.0,0.0
1.0,68.0,82.0,0.0
1.0,53.0,98.0,130.0
1.0,61.0,88.0,50.0
1.0,65.0,70.0,70.0
1.0,61.0,58.0,85.0
1.0,68.0,91.0,5.0
1.0,34.0,82.0,335.0
1.0,58.0,91.0,5.0
1.0,61.0,91.0,5.0
1.0,66.0,91.0,0.0
1.0,46.0,80.0,35.0
1.0,58.0,82.0,230.0
1.0,58.0,50.0,10.0
1.0,65.0,76.0,25.0
1.0,66.0,73.0,200.0
1.0,58.0,88.0,110.0
1.0,39.0,88.0,10.0
1.0,63.0,73.0,10.0
1.0,51.0,88.0,165.0
1.0,66.0,80.0,395.0
1.0,58.0,50.0,30.0
1.0,65.0,76.0,70.0
1.0,60.0,95.0,300.0
1.0,33.0,73.0,35.0
1.0,57.0,52.0,30.0
1.0,45.0,88.0,70.0
1.0,57.0,95.0,445.0
1.0,65.0,85.0,40.0
1.0,61.0,88.0,165.0
1.0,46.0,82.0,10.0
1.0,34.0,80.0,5.0
1.0,58.0,74.0,180.0
1.0,61.0,80.0,50.0
1.0,65.0,80.0,5.0
1.0,65.0,68.0,75.0
1.0,60.0,98.0,10.0
1.0,36.0,91.0,5.0
1.0,48.0,98.0,0.0
1.0,57.0,88.0,210.0
1.0,60.0,88.0,65.0
1.0,65.0,76.0,10.0
1.0,37.0,91.0,40.0
1.0,61.0,104.0,5.0
1.0,49.0,80.0,340.0
1.0,58.0,95.0,15.0
1.0,61.0,74.0,50.0
1.0,65.0,91.0,0.0
1.0,61.0,88.0,330.0
1.0,66.0,91.0,25.0
1.0,34.0,95.0,5.0
1.0,70.0,91.0,5.0
1.0,46.0,91.0,40.0
1.0,61.0,95.0,35.0
1.0,66.0,82.0,35.0
1.0,70.0,82.0,110.0
1.0,61.0,80.0,90.0
1.0,63.0,104.0,155.0
1.0,68.0,91.0,0.0
1.0,36.0,104.0,10.0
1.0,48.0,88.0,170.0
1.0,60.0,104.0,50.0
1.0,63.0,91.0,0.0
1.0,68.0,95.0,95.0
1.0,61.0,91.0,265.0
1.0,68.0,104.0,15.0
1.0,65.0,95.0,5.0
1.0,41.0,98.0,0.0
1.0,53.0,104.0,0.0
1.0,61.0,91.0,290.0
1.0,65.0,65.0,60.0
1.0,68.0,82.0,45.0
1.0,61.0,39.0,0.0
1.0,58.0,88.0,320.0
1.0,61.0,80.0,15.0
1.0,66.0,74.0,0.0
1.0,34.0,88.0,25.0
1.0,46.0,80.0,0.0
1.0,66.0,80.0,430.0
1.0,65.0,74.0,85.0
1.0,66.0,50.0,115.0
1.0,63.0,88.0,200.0
1.0,58.0,82.0,5.0
1.0,39.0,88.0,10.0
1.0,51.0,80.0,10.0
1.0,58.0,52.0,465.0
1.0,65.0,76.0,5.0
1.0,66.0,78.0,50.0
1.0,60.0,98.0,315.0
1.0,33.0,80.0,25.0
1.0,57.0,73.0,10.0
1.0,45.0,82.0,110.0
1.0,57.0,85.0,445.0
1.0,65.0,82.0,20.0
1.0,61.0,82.0,225.0
1.0,46.0,80.0,15.0
1.0,34.0,82.0,0.0
1.0,65.0,64.0,30.0
1.0,58.0,68.0,160.0
1.0,61.0,74.0,200.0
1.0,65.0,80.0,120.0
1.0,67.0,95.0,15.0
1.0,46.0,88.0,10.0
1.0,34.0,82.0,5.0
1.0,63.0,73.0,15.0
1.0,58.0,73.0,20.0
1.0,63.0,73.0,230.0
1.0,67.0,88.0,100.0
1.0,34.0,82.0,75.0
1.0,61.0,91.0,0.0
1.0,46.0,82.0,5.0
1.0,58.0,82.0,0.0
1.0,34.0,88.0,700.0
1.0,53.0,95.0,5.0
1.0,58.0,82.0,0.0
1.0,61.0,95.0,0.0
1.0,46.0,71.0,190.0
1.0,65.0,91.0,355.0
1.0,53.0,74.0,25.0
1.0,58.0,1.0,10.0
1.0,46.0,78.0,0.0
1.0,53.0,91.0,245.0
1.0,58.0,88.0,35.0
1.0,61.0,82.0,30.0
1.0,46.0,88.0,370.0
1.0,65.0,95.0,445.0
1.0,58.0,54.0,110.0
1.0,53.0,98.0,90.0
1.0,33.0,78.0,60.0
1.0,53.0,74.0,0.0
1.0,57.0,82.0,25.0
1.0,60.0,85.0,5.0
1.0,45.0,76.0,145.0
1.0,65.0,91.0,305.0
1.0,45.0,95.0,10.0
1.0,53.0,91.0,50.0
1.0,57.0,91.0,20.0
1.0,60.0,91.0,5.0
1.0,36.0,104.0,5.0
1.0,48.0,80.0,95.0
1.0,53.0,104.0,50.0
1.0,60.0,82.0,75.0
1.0,37.0,88.0,315.0
1.0,53.0,88.0,0.0
1.0,61.0,91.0,10.0
1.0,58.0,63.0,35.0
1.0,49.0,80.0,100.0
1.0,53.0,98.0,35.0
1.0,65.0,74.0,0.0
1.0,53.0,88.0,310.0
1.0,36.0,91.0,10.0
1.0,60.0,91.0,0.0
1.0,57.0,82.0,0.0
1.0,48.0,82.0,55.0
1.0,53.0,95.0,35.0
1.0,60.0,85.0,445.0
1.0,61.0,88.0,300.0
1.0,46.0,91.0,20.0
1.0,34.0,88.0,10.0
1.0,53.0,85.0,50.0
1.0,58.0,78.0,195.0
1.0,61.0,73.0,10.0
1.0,60.0,98.0,25.0
1.0,36.0,91.0,20.0
1.0,48.0,95.0,5.0
1.0,53.0,91.0,20.0
1.0,57.0,82.0,215.0
1.0,60.0,88.0,80.0
1.0,61.0,104.0,35.0
1.0,53.0,67.0,0.0
1.0,37.0,80.0,50.0
1.0,49.0,91.0,15.0
1.0,53.0,104.0,35.0
1.0,58.0,88.0,465.0
1.0,61.0,95.0,300.0
1.0,34.0,91.0,5.0
1.0,53.0,98.0,5.0
1.0,58.0,80.0,10.0
1.0,46.0,82.0,215.0
1.0,65.0,88.0,265.0
1.0,53.0,82.0,5.0
1.0,46.0,82.0,380.0
1.0,58.0,95.0,285.0
1.0,53.0,95.0,0.0
1.0,61.0,91.0,0.0
1.0,46.0,91.0,375.0
1.0,65.0,91.0,0.0
1.0,53.0,98.0,370.0
1.0,33.0,80.0,100.0
1.0,53.0,88.0,5.0
1.0,57.0,88.0,5.0
1.0,60.0,88.0,10.0
1.0,45.0,82.0,200.0
1.0,57.0,1.0,270.0
1.0,65.0,91.0,0.0
1.0,45.0,98.0,225.0
1.0,53.0,95.0,45.0
1.0,36.0,98.0,5.0
1.0,57.0,82.0,15.0
1.0,60.0,91.0,0.0
1.0,65.0,61.0,10.0
1.0,48.0,80.0,45.0
1.0,53.0,98.0,40.0
1.0,60.0,82.0,30.0
1.0,53.0,95.0,320.0
1.0,61.0,95.0,5.0
1.0,37.0,95.0,5.0
1.0,58.0,58.0,45.0
1.0,49.0,78.0,70.0
1.0,53.0,104.0,30.0
1.0,61.0,80.0,90.0
1.0,53.0,82.0,285.0
1.0,60.0,88.0,0.0
1.0,36.0,95.0,5.0
1.0,57.0,85.0,5.0
1.0,48.0,91.0,55.0
1.0,53.0,98.0,25.0
1.0,60.0,85.0,435.0
1.0,34.0,91.0,295.0
1.0,53.0,95.0,0.0
1.0,61.0,95.0,0.0
1.0,58.0,80.0,10.0
1.0,46.0,95.0,35.0
1.0,65.0,60.0,10.0
1.0,53.0,91.0,110.0
1.0,36.0,95.0,5.0
1.0,60.0,95.0,10.0
1.0,57.0,95.0,5.0
1.0,48.0,95.0,45.0
1.0,53.0,80.0,70.0
1.0,61.0,91.0,20.0
1.0,37.0,95.0,10.0
1.0,58.0,74.0,15.0
1.0,49.0,95.0,95.0
1.0,53.0,98.0,90.0
1.0,57.0,91.0,15.0
1.0,36.0,95.0,0.0
1.0,60.0,95.0,5.0
1.0,48.0,104.0,30.0
1.0,42.0,95.0,395.0
1.0,66.0,109.0,20.0
1.0,61.0,95.0,5.0
1.0,58.0,80.0,0.0
1.0,54.0,88.0,130.0
1.0,58.0,95.0,85.0
1.0,61.0,74.0,75.0
1.0,66.0,78.0,105.0
1.0,58.0,78.0,120.0
1.0,36.0,95.0,160.0
1.0,60.0,95.0,10.0
1.0,56.0,91.0,5.0
1.0,48.0,91.0,130.0
1.0,51.0,88.0,50.0
1.0,56.0,80.0,195.0
1.0,60.0,91.0,45.0
1.0,65.0,85.0,340.0
1.0,56.0,88.0,5.0
1.0,41.0,91.0,5.0
1.0,61.0,88.0,5.0
1.0,53.0,85.0,40.0
1.0,56.0,91.0,55.0
1.0,53.0,85.0,230.0
1.0,68.0,91.0,0.0
1.0,54.0,78.0,430.0
1.0,58.0,88.0,20.0
1.0,34.0,91.0,10.0
1.0,61.0,88.0,0.0
1.0,46.0,82.0,65.0
1.0,54.0,95.0,80.0
1.0,58.0,88.0,5.0
1.0,61.0,80.0,60.0
1.0,63.0,95.0,90.0
1.0,54.0,80.0,5.0
1.0,58.0,59.0,20.0
1.0,39.0,80.0,20.0
1.0,51.0,74.0,105.0
1.0,63.0,91.0,305.0
1.0,54.0,104.0,15.0
1.0,33.0,78.0,350.0
1.0,53.0,88.0,5.0
1.0,60.0,91.0,0.0
1.0,57.0,85.0,10.0
1.0,45.0,85.0,10.0
1.0,53.0,95.0,20.0
1.0,60.0,91.0,10.0
1.0,46.0,88.0,335.0
1.0,34.0,88.0,10.0
1.0,65.0,88.0,5.0
1.0,61.0,74.0,10.0
1.0,58.0,73.0,10.0
1.0,61.0,74.0,190.0
1.0,65.0,80.0,55.0
1.0,65.0,80.0,90.0
1.0,60.0,98.0,10.0
1.0,48.0,98.0,0.0
1.0,36.0,91.0,5.0
1.0,57.0,88.0,5.0
1.0,60.0,88.0,30.0
1.0,65.0,76.0,105.0
1.0,65.0,78.0,55.0
1.0,61.0,104.0,5.0
1.0,37.0,95.0,5.0
1.0,49.0,88.0,150.0
1.0,58.0,88.0,45.0
1.0,65.0,78.0,145.0
1.0,61.0,73.0,15.0
1.0,58.0,82.0,320.0
1.0,61.0,95.0,5.0
1.0,42.0,88.0,5.0
1.0,66.0,91.0,10.0
1.0,54.0,88.0,145.0
1.0,58.0,104.0,60.0
1.0,61.0,88.0,180.0
1.0,66.0,82.0,135.0
1.0,58.0,80.0,55.0
1.0,36.0,95.0,160.0
1.0,56.0,91.0,15.0
1.0,60.0,95.0,5.0
1.0,48.0,91.0,160.0
1.0,51.0,91.0,60.0
1.0,56.0,80.0,205.0
1.0,60.0,85.0,20.0
1.0,56.0,88.0,325.0
1.0,61.0,82.0,15.0
1.0,65.0,91.0,10.0
1.0,41.0,85.0,0.0
1.0,53.0,85.0,65.0
1.0,56.0,82.0,30.0
1.0,53.0,88.0,240.0
1.0,68.0,91.0,35.0
1.0,53.0,109.0,40.0
1.0,58.0,88.0,350.0
1.0,54.0,80.0,5.0
1.0,61.0,82.0,15.0
1.0,34.0,88.0,15.0
1.0,46.0,82.0,235.0
1.0,54.0,95.0,15.0
1.0,58.0,78.0,135.0
1.0,61.0,68.0,170.0
1.0,63.0,91.0,35.0
1.0,39.0,82.0,25.0
1.0,54.0,67.0,5.0
1.0,51.0,82.0,110.0
1.0,63.0,82.0,10.0
1.0,54.0,91.0,140.0
1.0,57.0,80.0,325.0
1.0,33.0,78.0,5.0
1.0,53.0,85.0,5.0
1.0,60.0,78.0,5.0
1.0,45.0,78.0,15.0
1.0,53.0,88.0,10.0
1.0,60.0,76.0,50.0
1.0,34.0,80.0,360.0
1.0,46.0,82.0,5.0
1.0,61.0,82.0,0.0
1.0,65.0,85.0,15.0
1.0,58.0,67.0,110.0
1.0,61.0,80.0,25.0
1.0,65.0,82.0,200.0
1.0,46.0,88.0,15.0
1.0,67.0,95.0,0.0
1.0,63.0,95.0,5.0
1.0,34.0,82.0,0.0
1.0,58.0,64.0,5.0
1.0,63.0,78.0,205.0
1.0,67.0,88.0,90.0
1.0,46.0,88.0,35.0
1.0,34.0,91.0,10.0
1.0,58.0,88.0,5.0
1.0,61.0,95.0,0.0
1.0,61.0,104.0,5.0
1.0,34.0,88.0,20.0
1.0,46.0,91.0,155.0
1.0,58.0,91.0,430.0
1.0,61.0,80.0,95.0
1.0,61.0,91.0,215.0
1.0,66.0,95.0,15.0
1.0,70.0,91.0,5.0
1.0,34.0,104.0,0.0
1.0,46.0,95.0,85.0
1.0,61.0,95.0,20.0
1.0,66.0,95.0,90.0
1.0,70.0,91.0,95.0
1.0,61.0,91.0,80.0
1.0,63.0,95.0,120.0
1.0,68.0,91.0,10.0
1.0,36.0,98.0,5.0
1.0,48.0,95.0,45.0
1.0,60.0,109.0,50.0
1.0,63.0,88.0,195.0
1.0,68.0,88.0,80.0
1.0,61.0,88.0,135.0
1.0,41.0,91.0,35.0
1.0,68.0,95.0,5.0
1.0,65.0,91.0,5.0
1.0,53.0,98.0,0.0
1.0,61.0,95.0,175.0
1.0,65.0,82.0,195.0
1.0,68.0,95.0,25.0
1.0,61.0,88.0,210.0
1.0,61.0,95.0,155.0
1.0,66.0,95.0,0.0
1.0,34.0,109.0,5.0
1.0,46.0,95.0,50.0
1.0,58.0,91.0,175.0
1.0,58.0,31.0,115.0
1.0,66.0,88.0,10.0
1.0,65.0,71.0,85.0
1.0,63.0,95.0,40.0
1.0,58.0,78.0,35.0
1.0,39.0,95.0,5.0
1.0,51.0,95.0,35.0
1.0,58.0,74.0,235.0
1.0,63.0,71.0,5.0
1.0,65.0,91.0,0.0
1.0,63.0,14.0,165.0
1.0,66.0,88.0,15.0
1.0,33.0,85.0,275.0
1.0,65.0,95.0,0.0
1.0,60.0,109.0,0.0
1.0,57.0,98.0,10.0
1.0,45.0,91.0,30.0
1.0,57.0,98.0,250.0
1.0,65.0,85.0,30.0
1.0,65.0,70.0,80.0
1.0,61.0,95.0,5.0
1.0,34.0,91.0,25.0
1.0,46.0,95.0,0.0
1.0,58.0,78.0,95.0
1.0,61.0,78.0,120.0
1.0,65.0,80.0,0.0
1.0,60.0,104.0,120.0
1.0,36.0,95.0,15.0
1.0,48.0,104.0,0.0
1.0,65.0,80.0,0.0
1.0,57.0,95.0,15.0
1.0,60.0,95.0,45.0
1.0,65.0,85.0,30.0
1.0,61.0,104.0,95.0
1.0,65.0,88.0,20.0
1.0,37.0,104.0,10.0
1.0,49.0,95.0,75.0
1.0,58.0,104.0,55.0
1.0,65.0,95.0,200.0
1.0,61.0,74.0,15.0
1.0,70.0,104.0,290.0
1.0,66.0,104.0,0.0
1.0,34.0,109.0,5.0
1.0,61.0,88.0,5.0
1.0,46.0,95.0,25.0
1.0,61.0,104.0,40.0
1.0,66.0,91.0,80.0
1.0,70.0,88.0,130.0
1.0,61.0,95.0,115.0
1.0,63.0,109.0,155.0
1.0,68.0,95.0,5.0
1.0,36.0,104.0,10.0
1.0,48.0,109.0,65.0
1.0,60.0,109.0,50.0
1.0,63.0,88.0,180.0
1.0,68.0,95.0,65.0
1.0,61.0,91.0,215.0
1.0,68.0,88.0,20.0
1.0,65.0,98.0,0.0
1.0,41.0,88.0,5.0
1.0,53.0,114.0,30.0
1.0,61.0,95.0,0.0
1.0,65.0,85.0,200.0
1.0,68.0,104.0,25.0
1.0,61.0,91.0,195.0
1.0,66.0,104.0,165.0
1.0,34.0,104.0,5.0
1.0,61.0,95.0,0.0
1.0,46.0,95.0,65.0
1.0,66.0,95.0,0.0
1.0,58.0,82.0,0.0
1.0,65.0,85.0,0.0
1.0,63.0,95.0,225.0
1.0,58.0,88.0,10.0
1.0,39.0,95.0,5.0
1.0,51.0,91.0,65.0
1.0,58.0,63.0,420.0
1.0,65.0,85.0,0.0
1.0,66.0,88.0,90.0
1.0,57.0,88.0,270.0
1.0,60.0,91.0,20.0
1.0,33.0,91.0,0.0
1.0,65.0,88.0,10.0
1.0,57.0,26.0,115.0
1.0,45.0,85.0,25.0
1.0,57.0,104.0,45.0
1.0,65.0,78.0,25.0
1.0,46.0,88.0,120.0
1.0,61.0,95.0,5.0
1.0,34.0,88.0,5.0
1.0,65.0,60.0,10.0
1.0,58.0,74.0,85.0
1.0,61.0,80.0,220.0
1.0,65.0,88.0,10.0
1.0,67.0,95.0,25.0
1.0,46.0,104.0,5.0
1.0,34.0,88.0,5.0
1.0,63.0,95.0,0.0
1.0,58.0,88.0,100.0
1.0,63.0,80.0,210.0
1.0,67.0,85.0,10.0
1.0,58.0,56.0,20.0
1.0,58.0,88.0,110.0
1.0,46.0,95.0,5.0
1.0,61.0,91.0,5.0
1.0,34.0,95.0,5.0
1.0,65.0,82.0,5.0
1.0,70.0,73.0,690.0
1.0,73.0,78.0,15.0
2.0,46.0,64.0,30375.0
2.0,61.0,66.0,10.0
2.0,53.0,68.0,5.0
2.0,58.0,66.0,25.0
2.0,65.0,55.0,15.0
2.0,45.0,88.0,25.0
2.0,60.0,71.0,30.0
2.0,57.0,1.0,120.0
2.0,48.0,80.0,20.0
2.0,61.0,64.0,110.0
2.0,49.0,80.0,5.0
2.0,58.0,61.0,15.0
2.0,48.0,85.0,15.0
2.0,57.0,78.0,35.0
2.0,60.0,71.0,20.0
2.0,61.0,78.0,80.0
2.0,46.0,91.0,5.0
2.0,58.0,74.0,5.0
2.0,48.0,85.0,55.0
2.0,57.0,85.0,20.0
2.0,60.0,74.0,15.0
2.0,49.0,82.0,70.0
2.0,58.0,80.0,10.0
2.0,61.0,66.0,20.0
2.0,48.0,95.0,35.0
2.0,57.0,88.0,45.0
2.0,60.0,85.0,25.0
2.0,58.0,78.0,95.0
2.0,61.0,73.0,5.0
2.0,46.0,88.0,15.0
2.0,65.0,88.0,920.0
2.0,57.0,80.0,60.0
2.0,45.0,95.0,0.0
2.0,60.0,71.0,40.0
2.0,62.0,66.0,5.0
2.0,65.0,82.0,815.0
2.0,48.0,91.0,50.0
2.0,49.0,82.0,50.0
2.0,58.0,82.0,10.0
2.0,61.0,88.0,0.0
2.0,48.0,98.0,5.0
2.0,57.0,78.0,15.0
2.0,60.0,74.0,50.0
2.0,58.0,74.0,115.0
2.0,46.0,91.0,5.0
2.0,61.0,68.0,10.0
2.0,48.0,98.0,20.0
2.0,57.0,88.0,10.0
2.0,60.0,82.0,20.0
2.0,49.0,82.0,85.0
2.0,58.0,82.0,15.0
2.0,61.0,68.0,20.0
2.0,48.0,91.0,55.0
2.0,57.0,85.0,30.0
2.0,60.0,67.0,25.0
2.0,54.0,73.0,330.0
2.0,58.0,74.0,30.0
2.0,61.0,78.0,5.0
2.0,42.0,78.0,5.0
2.0,66.0,67.0,35.0
2.0,48.0,56.0,260.0
2.0,36.0,74.0,35.0
2.0,60.0,67.0,50.0
2.0,51.0,56.0,75.0
2.0,60.0,64.0,5.0
2.0,56.0,68.0,25.0
2.0,56.0,68.0,555.0
2.0,53.0,73.0,15.0
2.0,65.0,70.0,5.0
2.0,61.0,74.0,10.0
2.0,41.0,76.0,5.0
2.0,46.0,74.0,625.0
2.0,54.0,73.0,0.0
2.0,34.0,78.0,5.0
2.0,58.0,73.0,15.0
2.0,61.0,78.0,5.0
2.0,54.0,63.0,260.0
2.0,63.0,78.0,10.0
2.0,58.0,59.0,5.0
2.0,51.0,78.0,10.0
2.0,39.0,78.0,5.0
2.0,45.0,74.0,885.0
2.0,33.0,71.0,5.0
2.0,53.0,80.0,5.0
2.0,57.0,76.0,15.0
2.0,60.0,71.0,10.0
2.0,61.0,73.0,5.0
2.0,46.0,82.0,5.0
2.0,58.0,74.0,0.0
2.0,65.0,78.0,5.0
2.0,34.0,82.0,0.0
2.0,48.0,68.0,230.0
2.0,65.0,57.0,20.0
2.0,57.0,74.0,5.0
2.0,36.0,63.0,5.0
2.0,60.0,88.0,0.0
2.0,49.0,67.0,250.0
2.0,58.0,82.0,5.0
2.0,61.0,82.0,0.0
2.0,37.0,74.0,10.0
2.0,57.0,78.0,10.0
2.0,48.0,85.0,5.0
2.0,60.0,88.0,5.0
2.0,36.0,91.0,5.0
2.0,54.0,80.0,330.0
2.0,42.0,78.0,0.0
2.0,61.0,82.0,25.0
2.0,58.0,61.0,10.0
2.0,66.0,73.0,0.0
2.0,48.0,78.0,20.0
2.0,36.0,80.0,5.0
2.0,56.0,78.0,5.0
2.0,51.0,73.0,5.0
2.0,60.0,80.0,5.0
2.0,53.0,91.0,30.0
2.0,56.0,80.0,5.0
2.0,41.0,73.0,5.0
2.0,61.0,78.0,5.0
2.0,65.0,82.0,5.0
2.0,68.0,80.0,540.0
2.0,54.0,68.0,20.0
2.0,46.0,78.0,10.0
2.0,34.0,82.0,0.0
2.0,58.0,80.0,25.0
2.0,61.0,74.0,25.0
2.0,63.0,82.0,600.0
2.0,54.0,80.0,10.0
2.0,51.0,82.0,10.0
2.0,39.0,80.0,5.0
2.0,58.0,74.0,0.0
2.0,33.0,74.0,25.0
2.0,53.0,88.0,0.0
2.0,45.0,80.0,10.0
2.0,57.0,85.0,0.0
2.0,60.0,70.0,5.0
2.0,34.0,80.0,5.0
2.0,46.0,74.0,5.0
2.0,58.0,71.0,0.0
2.0,65.0,76.0,10.0
2.0,61.0,68.0,10.0
2.0,67.0,74.0,45.0
2.0,63.0,71.0,20.0
2.0,46.0,82.0,5.0
2.0,34.0,78.0,5.0
2.0,58.0,67.0,85.0
2.0,61.0,71.0,20.0
2.0,34.0,74.0,10.0
2.0,46.0,78.0,15.0
2.0,67.0,36.0,90.0
3.0,61.0,74.0,30145.0
3.0,63.0,67.0,230.0
3.0,65.0,78.0,20.0
3.0,70.0,78.0,15.0
3.0,68.0,80.0,455.0
3.0,70.0,80.0,195.0
3.0,61.0,80.0,15.0
3.0,63.0,78.0,205.0
3.0,65.0,76.0,60.0
3.0,72.0,88.0,35.0
3.0,70.0,88.0,5.0
3.0,72.0,85.0,25.0
3.0,73.0,82.0,895.0
3.0,65.0,68.0,45.0
3.0,70.0,91.0,435.0
3.0,70.0,95.0,215.0
3.0,70.0,104.0,140.0
3.0,70.0,95.0,210.0
3.0,69.0,85.0,35.0
3.0,70.0,95.0,40.0
3.0,61.0,88.0,440.0
3.0,63.0,78.0,45.0
3.0,65.0,82.0,70.0
3.0,70.0,78.0,30.0
3.0,68.0,80.0,430.0
3.0,70.0,82.0,235.0
3.0,61.0,88.0,1630.0
3.0,63.0,82.0,10.0
3.0,65.0,80.0,40.0
3.0,72.0,88.0,30.0
3.0,70.0,82.0,450.0
3.0,72.0,88.0,25.0
3.0,73.0,88.0,35.0
3.0,65.0,88.0,10.0
3.0,70.0,95.0,460.0
3.0,70.0,91.0,130.0
3.0,70.0,104.0,130.0
3.0,70.0,95.0,205.0
3.0,69.0,82.0,15.0
3.0,70.0,88.0,30.0
4.0,73.0,74.0,58590.0
4.0,78.0,91.0,455.0
4.0,70.0,88.0,5.0
4.0,72.0,91.0,20.0
4.0,68.0,80.0,1350.0
4.0,77.0,82.0,40.0
4.0,80.0,88.0,885.0
4.0,73.0,80.0,15.0
4.0,72.0,95.0,35.0
4.0,73.0,91.0,180.0
4.0,75.0,104.0,55.0
4.0,75.0,95.0,85.0
4.0,73.0,88.0,385.0
4.0,72.0,98.0,25.0
4.0,78.0,91.0,10.0
4.0,77.0,98.0,50.0
4.0,73.0,82.0,3125.0
4.0,78.0,95.0,40.0
4.0,70.0,88.0,10.0
4.0,72.0,82.0,20.0
4.0,68.0,82.0,1355.0
4.0,77.0,95.0,45.0
4.0,80.0,88.0,895.0
4.0,73.0,82.0,15.0
4.0,72.0,88.0,40.0
4.0,73.0,88.0,185.0
4.0,75.0,95.0,50.0
4.0,75.0,95.0,85.0
4.0,73.0,82.0,410.0
4.0,72.0,95.0,30.0
4.0,70.0,82.0,1295.0
4.0,70.0,95.0,75.0
0.0,0.0,0.0,0.0
0.0,0.0,0.0,0.0
0.0,0.0,0.0,0.0
0.0,0.0,0.0,0.0
0.0,0.0,0.0,0.0
0.0,0.0,0.0,0.0
0.0,0.0,0.0,0.0
0.0,0.0,0.0,0.0
0.0,0.0,0.0,0.0
0.0,0.0,0.0,0.0
0.0,0.0,0.0,0.0
0.0,0.0,0.0,0.0
0.0,0.0,0.0,0.0
0.0,0.0,0.0,0.0
0.0,0.0,0.0,0.0
0.0,0.0,0.0,0.0
0.0,0.0,0.0,0.0
0.0,0.0,0.0,0.0
0.0,0.0,0.0,0.0
0.0,0.0,0.0,0.0
0.0,0.0,0.0,0.0
0.0,0.0,0.0,0.0
0.0,0.0,0.0,0.0
0.0,0.0,0.0,0.0
0.0,0.0,0.0,0.0
0.0,0.0,0.0,0.0
0.0,0.0,0.0,0.0
0.0,0.0,0.0,0.0
0.0,0.0,0.0,0.0
0.0,0.0,0.0,0.0
0.0,0.0,0.0,0.0
0.0,0.0,0.0,0.0
0.0,0.0,0.0,0.0
0.0,0.0,0.0,0.0
0.0,0.0,0.0,0.0
0.0,0.0,0.0,0.0
0.0,0.0,0.0,0.0
0.0,0.0,0.0,0.0
0.0,0.0,0.0,0.0
0.0,0.0,0.0,0.0
0.0,0.0,0.0,0.0
0.0,0.0,0.0,0.0
0.0,0.0,0.0,0.0
0.0,0.0,0.0,0.0
0.0,0.0,0.0,0.0
0.0,0.0,0.0,0.0
0.0,0.0,0.0,0.0
0.0,0.0,0.0,0.0
0.0,0.0,0.0,0.0
0.0,0.0,0.0,0.0
0.0,0.0,0.0,0.0
0.0,0.0,0.0,0.0
0.0,0.0,0.0,0.0
0.0,0.0,0.0,0.0
0.0,0.0,0.0,0.0
0.0,0.0,0.0,0.0
0.0,0.0,0.0,0.0
0.0,0.0,0.0,0.0
0.0,0.0,0.0,0.0
0.0,0.0,0.0,0.0
0.0,0.0,0.0,0.0
0.0,0.0,0.0,0.0
0.0,0.0,0.0,0.0
0.0,0.0,0.0,0.0
0.0,0.0,0.0,0.0
0.0,0.0,0.0,0.0
0.0,0.0,0.0,0.0
0.0,0.0,0.0,0.0
0.0,0.0,0.0,0.0
0.0,0.0,0.0,0.0
0.0,0.0,0.0,0.0
0.0,0.0,0.0,0.0
0.0,0.0,0.0,0.0
0.0,0.0,0.0,0.0
0.0,0.0,0.0,0.0
0.0,0.0,0.0,0.0
0.0,0.0,0.0,0.0
0.0,0.0,0.0,0.0
0.0,0.0,0.0,0.0
0.0,0.0,0.0,0.0
0.0,0.0,0.0,0.0
0.0,0.0,0.0,0.0
0.0,0.0,0.0,0.0
0.0,0.0,0.0,0.0
0.0,0.0,0.0,0.0
0.0,0.0,0.0,0.0
0.0,0.0,0.0,0.0
0.0,0.0,0.0,0.0
0.0,0.0,0.0,0.0
0.0,0.0,0.0,0.0
0.0,0.0,0.0,0.0
0.0,0.0,0.0,0.0
0.0,0.0,0.0,0.0
0.0,0.0,0.0,0.0
0.0,0.0,0.0,0.0
0.0,0.0,0.0,0.0
0.0,0.0,0.0,0.0
0.0,0.0,0.0,0.0
0.0,0.0,0.0,0.0
0.0,0.0,0.0,0.0
0.0,0.0,0.0,0.0
0.0,0.0,0.0,0.0
0.0,0.0,0.0,0.0
0.0,0.0,0.0,0.0
0.0,0.0,0.0,0.0
0.0,0.0,0.0,0.0
0.0,0.0,0.0,0.0
0.0,0.0,0.0,0.0
0.0,0.0,0.0,0.0
0.0,0.0,0.0,0.0
0.0,0.0,0.0,0.0
0.0,0.0,0.0,0.0
0.0,0.0,0.0,0.0
0.0,0.0,0.0,0.0
0.0,0.0,0.0,0.0
0.0,0.0,0.0,0.0
0.0,0.0,0.0,0.0
0.0,0.0,0.0,0.0
0.0,0.0,0.0,0.0
0.0,0.0,0.0,0.0
0.0,0.0,0.0,0.0
0.0,0.0,0.0,0.0
0.0,0.0,0.0,0.0
0.0,0.0,0.0,0.0
0.0,0.0,0.0,0.0
0.0,0.0,0.0,0.0
0.0,0.0,0.0,0.0
0.0,0.0,0.0,0.0
0.0,0.0,0.0,0.0
0.0,0.0,0.0,0.0
0.0,0.0,0.0,0.0
0.0,0.0,0.0,0.0
0.0,0.0,0.0,0.0
0.0,0.0,0.0,0.0
0.0,0.0,0.0,0.0
0.0,0.0,0.0,0.0
0.0,0.0,0.0,0.0
0.0,0.0,0.0,0.0
0.0,0.0,0.0,0.0
0.0,0.0,0.0,0.0
0.0,0.0,0.0,0.0
0.0,0.0,0.0,0.0
0.0,0.0,0.0,0.0
0.0,0.0,0.0,0.0
0.0,0.0,0.0,0.0
0.0,0.0,0.0,0.0
0.0,0.0,0.0,0.0
0.0,0.0,0.0,0.0
0.0,0.0,0.0,0.0
0.0,0.0,0.0,0.0
0.0,0.0,0.0,0.0
0.0,0.0,0.0,0.0
0.0,0.0,0.0,0.0
0.0,0.0,0.0,0.0
0.0,0.0,0.0,0.0
0.0,0.0,0.0,0.0
0.0,0.0,0.0,0.0
0.0,0.0,0.0,0.0
0.0,0.0,0.0,0.0
0.0,0.0,0.0,0.0
0.0,0.0,0.0,0.0
0.0,0.0,0.0,0.0
0.0,0.0,0.0,0.0
0.0,0.0,0.0,0.0
0.0,0.0,0.0,0.0
0.0,0.0,0.0,0.0
0.0,0.0,0.0,0.0
0.0,0.0,0.0,0.0
0.0,0.0,0.0,0.0
0.0,0.0,0.0,0.0
0.0,0.0,0.0,0.0
0.0,0.0,0.0,0.0
0.0,0.0,0.0,0.0
0.0,0.0,0.0,0.0
0.0,0.0,0.0,0.0
0.0,0.0,0.0,0.0
0.0,0.0,0.0,0.0
0.0,0.0,0.0,0.0
0.0,0.0,0.0,0.0
0.0,0.0,0.0,0.0
0.0,0.0,0.0,0.0
0.0,0.0,0.0,0.0
0.0,0.0,0.0,0.0
0.0,0.0,0.0,0.0
0.0,0.0,0.0,0.0
0.0,0.0,0.0,0.0
0.0,0.0,0.0,0.0
0.0,0.0,0.0,0.0
0.0,0.0,0.0,0.0
0.0,0.0,0.0,0.0
0.0,0.0,0.0,0.0
0.0,0.0,0.0,0.0
0.0,0.0,0.0,0.0
0.0,0.0,0.0,0.0
0.0,0.0,0.0,0.0
0.0,0.0,0.0,0.0
0.0,0.0,0.0,0.0
0.0,0.0,0.0,0.0
0.0,0.0,0.0,0.0
0.0,0.0,0.0,0.0
0.0,0.0,0.0,0.0
0.0,0.0,0.0,0.0
0.0,0.0,0.0,0.0
0.0,0.0,0.0,0.0
0.0,0.0,0.0,0.0
0.0,0.0,0.0,0.0
0.0,0.0,0.0,0.0
0.0,0.0,0.0,0.0
0.0,0.0,0.0,0.0
0.0,0.0,0.0,0.0
0.0,0.0,0.0,0.0
0.0,0.0,0.0,0.0
0.0,0.0,0.0,0.0
0.0,0.0,0.0,0.0
0.0,0.0,0.0,0.0
0.0,0.0,0.0,0.0
0.0,0.0,0.0,0.0
0.0,0.0,0.0,0.0
0.0,0.0,0.0,0.0
0.0,0.0,0.0,0.0
0.0,0.0,0.0,0.0
0.0,0.0,0.0,0.0
0.0,0.0,0.0,0.0
0.0,0.0,0.0,0.0
0.0,0.0,0.0,0.0
0.0,0.0,0.0,0.0
0.0,0.0,0.0,0.0
0.0,0.0,0.0,0.0
0.0,0.0,0.0,0.0
0.0,0.0,0.0,0.0
0.0,0.0,0.0,0.0
0.0,0.0,0.0,0.0
0.0,0.0,0.0,0.0
0.0,0.0,0.0,0.0
0.0,0.0,0.0,0.0
0.0,0.0,0.0,0.0
0.0,0.0,0.0,0.0
0.0,0.0,0.0,0.0
0.0,0.0,0.0,0.0
0.0,0.0,0.0,0.0
0.0,0.0,0.0,0.0
0.0,0.0,0.0,0.0
0.0,0.0,0.0,0.0
0.0,0.0,0.0,0.0
0.0,0.0,0.0,0.0
0.0,0.0,0.0,0.0
