track,note,velocity,time
0,46,66,549
0,42,75,0
0,42,74,0
0,46,0,1
0,42,0,43
0,42,0,3
0,54,80,0
0,47,86,1
0,47,78,0
0,42,63,1
0,42,0,1
0,35,101,0
0,36,88,0
0,36,0,1
0,61,107,0
0,54,0,27
0,47,0,2
0,47,0,0
0,44,66,15
0,47,74,0
0,54,68,0
0,47,75,0
0,44,0,1
0,62,97,2
0,35,0,3
0,61,0,2
0,47,0,13
0,47,0,6
0,54,0,1
0,42,65,20
0,40,92,0
0,47,80,0
0,54,75,0
0,47,76,0
0,40,0,1
0,62,0,0
0,42,0,0
0,35,101,1
0,66,78,1
0,54,0,21
0,47,0,1
0,47,0,2
0,59,81,20
0,47,75,0
0,54,67,0
0,44,67,1
0,47,75,0
0,44,0,1
0,66,0,6
0,47,0,11
0,35,0,2
0,47,0,5
0,54,0,2
0,35,113,21
0,36,81,0
0,42,66,0
0,47,74,0
0,54,69,0
0,47,76,0
0,42,0,1
0,36,0,0
0,54,0,17
0,47,0,3
0,47,0,5
0,47,74,21
0,54,68,0
0,44,69,1
0,47,69,0
0,44,0,1
0,47,0,17
0,47,0,0
0,54,0,11
0,59,0,14
0,61,79,5
0,42,66,0
0,47,86,0
0,47,74,0
0,42,0,1
0,40,90,1
0,40,0,1
0,35,0,17
0,47,0,8
0,47,0,1
0,61,0,15
0,54,69,3
0,35,97,1
0,44,70,0
0,47,74,0
0,47,69,0
0,44,0,1
0,57,90,2
0,47,0,15
0,47,0,4
0,54,0,9
0,35,0,9
0,74,66,8
0,71,86,0
0,42,65,0
0,47,80,0
0,54,74,0
0,47,75,0
0,42,0,1
0,35,101,0
0,36,80,1
0,36,0,1
0,74,65,2
0,71,85,0
0,54,0,3
0,47,0,4
0,47,0,2
0,47,75,2
0,54,65,0
0,44,69,1
0,47,69,0
0,44,0,1
0,47,0,2
0,47,0,1
0,35,0,3
0,54,0,2
0,42,66,4
0,47,80,0
0,54,79,0
0,47,74,0
0,42,0,1
0,35,114,1
0,40,88,0
0,40,0,1
0,47,0,1
0,54,0,1
0,47,0,1
0,44,69,0
0,47,76,0
0,54,69,0
0,47,74,0
0,44,0,1
0,47,0,3
0,35,0,1
0,47,0,4
0,54,0,3
0,35,110,1
0,47,79,0
0,54,78,0
0,47,75,0
0,42,67,1
0,36,92,0
0,36,0,1
0,42,0,0
0,54,0,3
0,47,0,1
0,47,0,1
0,44,71,2
0,47,75,0
0,54,73,0
0,47,71,0
0,44,0,1
0,47,0,1
0,47,0,1
0,54,0,1
0,42,66,0
0,40,97,0
0,47,80,0
0,54,75,0
0,40,0,1
0,42,0,0
0,47,74,0
0,54,0,2
0,47,0,1
0,47,0,1
0,57,0,13
0,44,68,5
0,47,81,0
0,54,66,0
0,47,73,0
0,44,0,1
0,47,0,17
0,54,0,7
0,47,0,0
0,35,0,9
0,61,92,13
0,31,101,0
0,43,76,0
0,42,68,1
0,50,84,0
0,50,80,0
0,43,75,0
0,42,0,1
0,36,90,0
0,36,0,1
0,43,0,23
0,43,0,0
0,50,0,1
0,50,0,2
0,43,69,19
0,50,69,0
0,62,100,1
0,44,69,0
0,43,73,0
0,50,73,0
0,44,0,1
0,61,0,4
0,50,0,15
0,43,0,0
0,50,0,1
0,31,0,2
0,43,0,1
0,43,75,5
0,50,76,0
0,31,100,1
0,42,67,0
0,40,90,0
0,50,74,0
0,43,74,0
0,40,0,1
0,42,0,0
0,66,78,0
0,62,0,3
0,50,0,21
0,50,0,1
0,43,0,0
0,43,0,2
0,43,69,19
0,50,74,0
0,59,83,1
0,44,70,0
0,43,68,0
0,50,73,0
0,44,0,1
0,66,0,3
0,31,0,11
0,50,0,8
0,43,0,1
0,50,0,0
0,43,0,1
0,50,76,22
0,43,75,0
0,31,106,1
0,36,95,0
0,42,65,0
0,43,75,0
0,50,77,0
0,42,0,1
0,36,0,0
0,50,0,11
0,50,0,0
0,43,0,8
0,43,0,3
0,43,73,6
0,50,74,0
0,44,66,1
0,43,73,0
0,50,74,0
0,44,0,1
0,50,0,17
0,50,0,1
0,43,0,1
0,43,0,2
0,59,0,13
0,43,76,9
0,50,82,0
0,42,67,1
0,40,88,0
0,43,74,0
0,50,74,0
0,40,0,1
0,42,0,0
0,61,81,0
0,31,0,20
0,50,0,2
0,43,0,2
0,43,0,1
0,50,0,0
0,61,0,14
0,43,75,3
0,50,75,0
0,31,88,1
0,44,72,0
0,50,62,0
0,43,68,0
0,44,0,1
0,57,82,1
0,43,0,18
0,50,0,1
0,50,0,0
0,43,0,1
0,31,0,12
0,50,80,6
0,43,77,0
0,31,94,1
0,42,67,0
0,50,75,0
0,43,74,0
0,42,0,1
0,36,88,1
0,36,0,1
0,50,0,22
0,43,0,5
0,43,0,1
0,50,0,2
0,50,75,13
0,43,73,0
0,44,69,1
0,43,70,0
0,50,71,0
0,44,0,1
0,31,0,1
0,50,0,7
0,50,0,1
0,43,0,1
0,43,0,2
0,57,0,16
0,43,78,8
0,50,82,0
0,31,99,1
0,42,67,0
0,40,92,0
0,50,75,0
0,43,74,0
0,40,0,1
0,42,0,0
0,59,97,0
0,43,0,27
0,43,0,0
0,50,0,1
0,50,0,2
0,59,0,12
0,71,0,2
0,74,0,0
0,43,73,0
0,50,75,0
0,44,66,1
0,43,69,0
0,50,70,0
0,44,0,1
0,55,79,1
0,74,0,13
0,31,0,0
0,71,0,0
0,43,0,4
0,50,0,0
0,50,0,2
0,43,0,1
0,74,85,7
0,31,100,2
0,43,78,0
0,36,84,1
0,42,66,0
0,50,84,0
0,43,75,0
0,50,76,0
0,42,0,1
0,36,0,0
0,74,86,1
0,50,0,1
0,50,0,0
0,43,0,1
0,43,0,1
0,50,77,0
0,43,74,0
0,44,71,0
0,50,73,0
0,43,69,0
0,44,0,1
0,50,0,1
0,43,0,0
0,50,0,0
0,43,0,1
0,43,74,1
0,42,63,0
0,40,95,0
0,50,84,0
0,43,74,0
0,50,75,0
0,40,0,1
0,42,0,0
0,50,0,17
0,50,0,4
0,43,0,0
0,55,0,10
0,43,0,3
0,45,86,5
0,46,71,1
0,45,76,0
0,46,0,1
0,31,0,25
0,45,0,12
0,45,0,2
0,61,94,1
0,35,104,0
0,42,64,0
0,47,84,0
0,54,73,0
0,42,0,1
0,47,77,0
0,36,84,0
0,36,0,1
0,54,0,1
0,47,0,1
0,47,0,1
0,44,68,16
0,54,73,0
0,47,68,0
0,44,0,1
0,61,0,0
0,62,100,1
0,47,76,0
0,47,0,16
0,35,0,1
0,47,0,2
0,54,0,5
0,62,0,22
0,35,110,0
0,42,64,0
0,47,79,0
0,42,0,1
0,66,80,0
0,40,96,0
0,47,79,0
0,40,0,1
0,54,73,0
0,54,0,23
0,47,0,0
0,47,0,0
0,66,0,19
0,59,90,3
0,44,69,1
0,47,76,0
0,54,65,0
0,47,74,0
0,44,0,1
0,47,0,1
0,47,0,1
0,35,0,1
0,54,0,3
0,35,120,1
0,42,64,0
0,36,92,0
0,47,80,0
0,54,74,0
0,47,79,0
0,36,0,1
0,42,0,0
0,47,0,21
0,54,0,2
0,47,0,3
0,54,63,10
0,44,69,1
0,47,76,0
0,47,72,0
0,44,0,1
0,47,0,16
0,47,0,3
0,54,0,7
0,59,0,7
0,61,84,11
0,47,79,0
0,54,75,0
0,47,78,0
0,42,64,1
0,40,92,0
0,40,0,1
0,42,0,0
0,35,0,13
0,47,0,7
0,47,0,3
0,54,0,4
0,35,101,18
0,44,69,1
0,47,75,0
0,54,69,0
0,47,73,0
0,44,0,1
0,61,0,3
0,57,94,0
0,47,0,14
0,47,0,3
0,54,0,6
0,35,0,1
0,35,106,6
0,42,67,0
0,47,82,0
0,54,75,0
0,47,77,0
0,42,0,1
0,36,92,1
0,36,0,1
0,47,0,14
0,47,0,4
0,54,0,2
0,35,0,14
0,47,74,5
0,44,68,1
0,54,69,0
0,47,72,0
0,44,0,1
0,47,0,15
0,47,0,2
0,54,0,5
0,35,112,25
0,42,66,0
0,40,95,0
0,47,82,0
0,54,68,0
0,47,77,0
0,40,0,1
0,42,0,0
0,74,0,8
0,47,0,4
0,54,0,1
0,47,0,9
0,47,74,12
0,54,66,0
0,44,74,1
0,47,64,0
0,44,0,1
0,35,0,8
0,47,0,6
0,74,0,2
0,47,0,1
0,54,0,4
0,71,79,12
0,35,114,2
0,42,66,1
0,47,85,0
0,54,73,0
0,47,78,0
0,42,0,1
0,36,100,0
0,36,0,1
0,71,89,1
0,54,0,1
0,47,0,1
0,47,0,1
0,47,76,2
0,44,72,1
0,54,67,0
0,47,72,0
0,44,0,1
0,47,0,1
0,47,0,1
0,54,0,1
0,42,65,8
0,40,91,0
0,47,82,0
0,54,75,0
0,47,78,0
0,40,0,1
0,42,0,0
0,54,0,21
0,47,0,6
0,47,0,0
0,57,0,3
0,47,76,16
0,44,70,1
0,54,72,0
0,47,76,0
0,44,0,1
0,47,0,19
0,54,0,6
0,47,0,1
0,35,0,1
0,61,94,1
0,31,91,1
0,42,66,0
0,36,92,0
0,50,91,0
0,43,75,0
0,50,82,0
0,43,74,0
0,36,0,1
0,42,0,0
0,43,0,1
0,50,0,0
0,50,0,1
0,43,0,1
0,61,0,1
0,62,97,4
0,43,71,0
0,50,74,0
0,44,68,1
0,43,65,0
0,50,69,0
0,44,0,1
0,31,0,14
0,50,0,7
0,50,0,3
0,43,0,0
0,43,0,0
0,66,77,22
0,50,79,0
0,43,76,0
0,31,96,1
0,42,66,0
0,40,94,0
0,50,77,0
0,43,74,0
0,40,0,1
0,42,0,0
0,62,0,2
0,50,0,20
0,43,0,4
0,50,0,4
0,43,0,0
0,59,83,16
0,50,75,0
0,43,73,0
0,44,67,1
0,43,74,0
0,50,74,0
0,44,0,1
0,66,0,9
0,31,0,9
0,43,0,1
0,50,0,2
0,43,0,0
0,50,0,1
0,31,100,24
0,43,76,0
0,50,80,0
0,42,66,1
0,50,76,0
0,43,72,0
0,42,0,1
0,36,95,1
0,36,0,1
0,50,0,24
0,43,0,2
0,50,0,0
0,43,0,1
0,43,74,17
0,50,74,0
0,44,71,1
0,43,69,0
0,50,74,0
0,44,0,1
0,43,0,20
0,43,0,0
0,50,0,1
0,50,0,3
0,59,0,11
0,43,76,11
0,50,79,0
0,42,64,1
0,40,96,0
0,43,74,0
0,50,75,0
0,40,0,1
0,42,0,0
0,61,84,1
0,31,0,17
0,50,0,8
0,50,0,0
0,43,0,3
0,43,0,1
0,61,0,13
0,31,90,3
0,50,74,0
0,43,72,0
0,44,75,1
0,50,75,0
0,43,69,0
0,44,0,1
0,57,82,1
0,43,0,17
0,50,0,1
0,43,0,1
0,50,0,1
0,31,0,21
0,50,80,4
0,43,77,0
0,31,98,1
0,42,64,0
0,43,73,0
0,50,75,0
0,42,0,1
0,36,95,0
0,36,0,1
0,50,0,25
0,43,0,2
0,50,0,1
0,43,0,3
0,50,77,14
0,43,74,0
0,44,72,1
0,50,74,0
0,43,68,0
0,44,0,1
0,71,0,3
0,71,0,1
0,31,0,2
0,43,0,13
0,50,0,1
0,50,0,0
0,43,0,0
0,57,0,22
0,59,94,4
0,43,76,0
0,50,80,0
0,31,101,1
0,42,66,0
0,43,75,0
0,50,76,0
0,42,0,1
0,40,94,0
0,40,0,1
0,50,0,23
0,43,0,5
0,50,0,1
0,43,0,5
0,59,0,8
0,50,74,3
0,43,73,0
0,44,79,1
0,43,68,0
0,50,74,0
0,44,0,1
0,55,74,0
0,31,0,10
0,50,0,7
0,43,0,1
0,50,0,0
0,43,0,3
0,78,80,17
0,50,80,2
0,43,75,0
0,31,100,1
0,36,84,0
0,46,71,0
0,50,74,0
0,43,74,0
0,46,0,1
0,36,0,0
0,78,82,1
0,50,0,1
0,50,0,1
0,43,0,1
0,43,0,1
0,40,65,1
0,43,75,0
0,50,74,0
0,40,0,1
0,50,74,0
0,43,69,0
0,42,64,0
0,42,0,1
0,40,64,0
0,40,0,1
0,50,0,1
0,43,0,1
0,43,0,0
0,50,0,0
0,40,68,0
0,40,0,1
0,40,67,1
0,40,0,1
0,43,78,2
0,50,79,0
0,44,73,1
0,43,74,0
0,50,75,0
0,44,0,1
0,40,78,1
0,40,0,1
0,50,0,9
0,50,0,2
0,43,0,1
0,43,0,0
0,55,0,2
0,50,78,3
0,43,73,0
0,43,73,0
0,50,74,0
0,42,66,1
0,40,89,0
0,40,0,1
0,42,0,0
0,50,0,1
0,50,0,1
0,43,0,4
0,43,0,1
0,31,0,1
0,45,75,0
0,50,75,0
0,50,82,1
0,69,92,0
0,61,73,0
0,38,102,0
0,52,97,0
0,52,21,0
0,42,72,0
0,36,98,0
0,50,90,0
0,36,0,1
0,42,0,0
0,64,102,0
0,45,88,0
0,45,0,1
0,45,0,1
0,50,0,0
0,50,0,1
0,50,77,6
0,44,69,1
0,44,0,1
0,45,77,0
0,50,65,1
0,45,73,1
0,45,0,15
0,38,0,0
0,50,0,4
0,45,0,1
0,50,0,4
0,50,83,20
0,45,81,0
0,40,103,1
0,45,75,0
0,40,0,1
0,50,80,0
0,38,106,1
0,42,68,0
0,42,0,1
0,50,0,20
0,45,0,9
0,45,0,1
0,50,0,1
0,52,0,4
0,61,0,0
0,64,0,6
0,50,80,1
0,45,75,0
0,50,67,1
0,44,67,2
0,45,68,0
0,44,0,1
0,52,0,1
0,62,102,0
0,66,73,0
0,54,94,0
0,54,20,0
0,45,0,18
0,45,0,1
0,50,0,0
0,50,0,2
0,38,0,5
0,45,75,17
0,50,87,1
0,45,82,0
0,50,74,1
0,38,97,1
0,36,100,0
0,42,62,0
0,42,0,1
0,36,0,0
0,45,0,24
0,50,0,5
0,50,0,1
0,45,0,1
0,50,78,12
0,50,65,1
0,45,74,1
0,45,69,0
0,44,65,2
0,44,0,1
0,45,0,14
0,50,0,5
0,50,0,1
0,45,0,1
0,45,74,4
0,50,89,2
0,50,78,0
0,45,80,1
0,42,69,1
0,40,100,0
0,40,0,1
0,42,0,0
0,69,0,12
0,38,0,2
0,50,0,7
0,45,0,5
0,45,0,4
0,50,0,0
0,54,0,4
0,50,79,9
0,50,56,0
0,45,76,2
0,45,62,0
0,50,0,1
0,38,101,1
0,44,69,0
0,44,0,1
0,54,0,0
0,50,0,8
0,45,0,2
0,45,0,0
0,50,0,3
0,66,0,10
0,38,0,2
0,62,0,4
0,50,79,1
0,45,75,0
0,50,90,1
0,45,86,0
0,52,84,1
0,52,20,0
0,36,95,0
0,42,68,0
0,42,0,1
0,36,0,0
0,38,102,0
0,50,72,1
0,61,70,0
0,69,81,0
0,64,93,1
0,50,0,11
0,45,0,1
0,45,0,2
0,50,0,1
0,52,0,11
0,50,78,1
0,50,57,0
0,45,74,2
0,45,61,0
0,44,72,2
0,44,0,1
0,52,0,0
0,54,88,0
0,54,20,0
0,38,0,17
0,45,0,0
0,50,0,1
0,45,0,0
0,50,0,2
0,64,0,8
0,61,0,1
0,45,75,0
0,50,89,2
0,45,82,0
0,50,77,0
0,62,93,1
0,42,67,1
0,40,95,0
0,40,0,1
0,42,0,0
0,38,102,1
0,50,0,27
0,45,0,1
0,45,0,1
0,50,0,1
0,78,0,3
0,54,0,4
0,50,74,5
0,45,73,0
0,50,57,1
0,69,0,2
0,66,76,0
0,45,60,0
0,54,0,1
0,57,84,0
0,57,20,0
0,44,66,2
0,44,0,1
0,45,0,10
0,45,0,2
0,50,0,0
0,38,0,1
0,50,0,1
0,78,0,20
0,45,76,1
0,50,76,1
0,45,80,1
0,50,92,0
0,36,109,1
0,36,0,1
0,38,103,0
0,42,65,1
0,42,0,1
0,45,0,22
0,50,0,4
0,45,0,2
0,50,0,4
0,57,0,9
0,50,62,0
0,50,79,1
0,45,73,1
0,45,63,1
0,57,0,1
0,45,88,0
0,45,20,0
0,44,72,0
0,44,0,1
0,45,0,17
0,45,0,1
0,50,0,1
0,50,0,1
0,45,0,22
0,45,80,3
0,50,81,0
0,45,74,0
0,50,76,0
0,45,0,1
0,57,66,0
0,46,86,0
