track,note,velocity,time
1,79,58,2742
1,74,64,33
1,70,68,45
1,67,79,51
1,77,68,217
1,74,67,0
1,82,60,0
1,77,63,333
1,70,57,0
1,74,66,0
1,70,52,335
1,74,62,0
1,65,62,0
1,67,66,335
1,60,66,0
1,63,58,0
1,48,66,0
1,36,63,0
1,69,62,308
1,60,73,0
1,67,64,0
1,53,55,0
1,41,61,0
1,34,62,466
1,60,64,0
1,65,68,0
1,46,58,0
1,62,68,0
1,65,66,18
1,67,64,0
1,58,68,0
1,39,58,0
1,51,58,0
1,60,68,473
1,63,66,0
1,67,66,0
1,36,62,0
1,48,61,0
1,69,64,16
1,38,66,0
1,60,73,0
1,50,66,0
1,67,60,0
1,60,62,152
1,69,62,0
1,66,55,0
1,62,63,161
1,67,64,0
1,70,57,0
1,43,60,0
1,55,61,0
1,60,73,1209
1,67,66,0
1,36,64,0
1,63,62,0
1,48,63,0
1,69,62,382
1,60,76,0
1,67,68,0
1,41,64,0
1,53,63,0
1,60,68,360
1,62,69,0
1,34,62,0
1,65,67,0
1,46,60,0
1,67,64,483
1,65,68,0
1,39,61,0
1,58,68,0
1,51,57,0
1,60,69,523
1,67,67,0
1,36,63,0
1,48,64,0
1,63,63,0
1,57,66,595
1,62,66,0
1,67,64,0
1,38,61,0
1,50,58,0
1,62,57,175
1,57,55,0
1,66,52,0
1,62,63,149
1,58,57,0
1,55,60,0
1,43,62,0
1,67,63,0
1,63,68,155
1,60,79,2
1,48,60,2
1,67,67,2
1,36,67,2
1,60,68,283
1,41,62,0
1,69,66,0
1,65,68,0
1,53,55,0
1,65,62,137
1,60,64,0
1,62,61,0
1,69,63,0
1,46,58,0
1,39,60,231
1,65,66,0
1,51,57,0
1,67,67,0
1,58,64,0
1,60,64,272
1,63,60,0
1,36,62,0
1,67,66,0
1,48,61,0
1,38,63,239
1,57,68,0
1,67,64,0
1,62,68,0
1,50,61,0
1,62,69,124
1,57,69,0
1,66,63,0
1,60,76,178
1,62,79,0
1,67,68,0
1,43,66,0
1,55,62,0
1,67,66,238
1,60,66,0
1,63,62,0
1,48,56,0
1,36,61,0
1,41,63,264
1,60,68,0
1,65,69,0
1,69,66,0
1,53,58,0
1,69,66,262
1,60,66,0
1,62,64,0
1,65,66,0
1,46,64,0
1,65,67,237
1,58,67,0
1,67,63,0
1,39,58,0
1,51,56,0
1,60,67,241
1,67,63,0
1,63,67,0
1,36,57,0
1,48,58,0
1,48,28,2
1,38,64,144
1,62,67,0
1,57,68,0
1,50,60,0
1,67,63,0
1,62,64,90
1,57,62,0
1,66,56,0
1,70,57,173
1,63,58,0
1,36,57,0
1,67,67,0
1,48,56,0
1,62,64,0
1,41,55,54
1,69,60,0
1,65,55,0
1,72,63,0
1,53,46,253
1,69,55,307
1,65,35,0
1,74,56,0
1,46,46,0
1,58,41,0
1,74,58,264
1,70,41,0
1,79,57,0
1,39,38,0
1,51,33,0
1,63,42,248
1,72,57,0
1,67,62,0
1,48,48,0
1,57,67,326
1,62,68,0
1,67,67,0
1,38,64,0
1,50,57,0
1,50,68,97
1,38,56,121
1,57,42,0
1,38,61,72
1,50,58,0
1,66,53,0
1,57,62,0
1,62,67,0
1,50,55,102
1,57,48,80
1,62,56,0
1,66,52,0
1,38,56,0
1,50,47,192
1,58,71,30
1,62,76,0
1,67,69,0
1,43,66,0
1,43,55,102
1,58,52,96
1,62,60,96
1,48,68,9
1,60,69,0
1,67,67,0
1,63,67,0
1,48,33,98
1,60,79,344
1,67,73,0
1,70,60,0
1,53,62,0
1,41,64,0
1,53,56,9
1,60,67,0
1,65,71,0
1,69,66,0
1,53,48,77
1,46,79,263
1,62,82,0
1,60,87,0
1,65,82,0
1,55,73,410
1,60,73,0
1,57,67,10
1,62,63,0
1,46,38,0
1,60,66,96
1,62,51,2
1,65,79,96
1,60,69,0
1,65,51,0
1,43,66,131
1,58,71,0
1,62,73,0
1,67,67,0
1,63,79,431
1,60,79,0
1,67,71,0
1,48,79,0
1,60,76,1306
1,67,71,0
1,41,64,0
1,70,58,0
1,53,55,0
1,60,68,226
1,69,64,0
1,65,71,0
1,62,76,332
1,46,79,0
1,60,71,0
1,65,66,0
1,60,79,5
1,65,73,0
1,62,82,47
1,67,64,0
1,65,64,170
1,70,60,0
1,67,61,0
1,63,63,0
1,62,66,0
1,70,55,0
1,36,69,0
1,48,66,0
1,60,84,12
1,67,67,0
1,69,64,0
1,41,67,0
1,53,58,0
1,60,76,266
1,62,73,0
1,65,64,0
1,46,66,0
1,58,69,322
1,65,67,0
1,39,58,0
1,51,61,0
1,67,64,0
1,60,64,270
1,36,64,0
1,48,61,0
1,63,58,0
1,67,64,0
1,38,63,305
1,50,58,0
1,62,67,0
1,57,64,0
1,67,64,0
1,62,64,173
1,57,63,0
1,66,60,0
1,62,71,227
1,58,64,0
1,43,66,0
1,67,67,0
1,55,63,0
1,31,61,758
1,43,61,0
1,67,62,50
1,48,60,0
1,70,53,0
1,63,60,0
1,60,56,0
1,72,64,0
1,65,60,321
1,67,66,0
1,72,62,0
1,53,58,0
1,46,62,372
1,60,62,0
1,62,67,0
1,67,63,0
1,67,52,21
1,74,61,0
1,70,55,0
1,77,64,0
1,51,46,0
1,39,52,0
1,74,63,255
1,70,53,0
1,65,66,0
1,62,55,26
1,67,58,0
1,48,57,0
1,70,56,0
1,63,56,0
1,38,63,264
1,67,66,0
1,60,68,0
1,69,67,0
1,50,62,0
1,60,66,62
1,66,57,0
1,69,68,0
1,43,56,208
1,55,56,0
1,62,67,0
1,58,57,0
1,67,63,0
1,43,62,383
1,31,63,0
1,43,55,0
1,58,52,96
1,62,60,96
1,48,68,9
1,60,69,0
1,67,67,0
1,63,67,0
1,48,33,98
1,60,79,344
1,67,73,0
1,70,60,0
1,53,62,0
1,41,64,0
1,53,56,9
1,60,67,0
1,65,71,0
1,69,66,0
1,53,48,77
1,46,79,263
1,62,82,0
1,60,87,0
1,65,82,0
1,55,73,410
1,60,73,0
1,57,67,10
1,62,63,0
1,46,38,0
1,60,66,96
1,62,51,2
1,65,79,96
1,60,69,0
1,65,51,0
1,43,66,131
1,58,71,0
1,62,73,0
1,67,67,0
1,63,79,431
1,60,79,0
1,67,71,0
1,48,79,0
1,60,76,1306
1,67,71,0
1,41,64,0
1,70,58,0
1,53,55,0
1,60,68,226
1,69,64,0
1,65,71,0
1,62,76,332
1,46,79,0
1,60,71,0
1,65,66,0
1,60,79,5
1,65,73,0
1,62,82,47
1,67,64,0
1,65,64,170
1,70,60,0
1,58,71,0
1,62,76,0
1,67,69,0
1,43,66,0
1,43,55,102
1,58,52,96
1,62,60,96
1,48,68,9
1,60,69,0
1,67,67,0
1,63,67,0
1,48,33,98
1,60,79,344
1,67,73,0
1,70,60,0
1,53,62,0
1,41,64,0
1,53,56,9
1,60,67,0
1,65,71,0
1,69,66,0
1,53,48,77
1,46,79,263
1,62,82,0
1,60,87,0
1,65,82,0
1,55,73,410
1,60,73,0
1,57,67,10
1,62,63,0
1,46,38,0
1,60,66,96
1,62,51,2
1,65,79,96
1,60,69,0
1,65,51,0
1,43,66,131
1,58,71,0
1,62,73,0
1,67,67,0
1,63,79,431
1,60,79,0
1,67,71,0
1,48,79,0
1,60,76,1306
1,67,71,0
1,41,64,0
1,70,58,0
1,53,55,0
1,60,68,226
1,69,64,0
1,65,71,0
1,62,76,332
1,46,79,0
1,60,71,0
1,65,66,0
1,60,79,5
1,65,73,0
1,62,82,47
1,67,64,0
1,65,64,170
1,70,60,0
1,46,66,0
1,61,71,0
1,65,76,0
1,70,69,0
1,46,55,102
1,61,52,96
1,65,60,96
1,51,68,9
1,63,69,0
1,66,67,0
1,70,67,0
1,51,33,98
1,44,64,344
1,56,62,0
1,63,79,0
1,70,73,0
1,73,60,0
1,56,56,9
1,63,67,0
1,68,71,0
1,72,66,0
1,56,48,77
1,49,79,263
1,63,87,0
1,65,82,0
1,68,82,0
1,58,73,410
1,63,73,0
1,49,38,10
1,60,67,0
1,65,63,0
1,63,66,96
1,65,51,2
1,63,69,96
1,68,51,0
1,68,79,0
1,46,66,131
1,61,71,0
1,65,73,0
1,70,67,0
1,51,79,431
1,63,79,0
1,66,79,0
1,70,71,0
1,44,64,1306
1,56,55,0
1,63,76,0
1,70,71,0
1,73,58,0
1,63,68,226
1,68,71,0
1,72,64,0
1,49,79,332
1,63,71,0
1,65,76,0
1,68,66,0
1,63,79,5
1,68,73,0
1,65,82,47
1,70,64,0
1,68,64,170
1,73,60,0
1,46,66,0
1,61,71,0
1,65,76,0
1,70,69,0
1,46,55,102
1,61,52,96
1,65,60,96
1,51,68,9
1,63,69,0
1,66,67,0
1,70,67,0
1,51,33,98
1,44,64,344
1,56,62,0
1,63,79,0
1,70,73,0
1,73,60,0
1,56,56,9
1,63,67,0
1,68,71,0
1,72,66,0
1,56,48,77
1,49,79,263
1,63,87,0
1,65,82,0
1,68,82,0
1,58,73,410
1,63,73,0
1,49,38,10
1,60,67,0
1,65,63,0
1,63,66,96
1,65,51,2
1,63,69,96
1,68,51,0
1,68,79,0
1,46,66,131
1,61,71,0
1,65,73,0
1,70,67,0
1,51,79,431
1,63,79,0
1,66,79,0
1,70,71,0
1,44,64,1306
1,56,55,0
1,63,76,0
1,70,71,0
1,73,58,0
1,63,68,226
1,68,71,0
1,72,64,0
1,49,79,332
1,63,71,0
1,65,76,0
1,68,66,0
1,63,79,5
1,68,73,0
1,65,82,47
1,70,64,0
1,68,64,170
1,73,60,0
1,46,66,0
1,61,71,0
1,65,76,0
1,70,69,0
1,46,55,102
1,61,52,96
1,65,60,96
1,51,68,9
1,63,69,0
1,66,67,0
1,70,67,0
1,51,33,98
1,44,64,344
1,56,62,0
1,63,79,0
1,70,73,0
1,73,60,0
1,56,56,9
1,63,67,0
1,68,71,0
1,72,66,0
1,56,48,77
1,49,79,263
1,63,87,0
1,65,82,0
1,68,82,0
1,58,73,410
1,63,73,0
1,49,38,10
1,60,67,0
1,65,63,0
1,63,66,96
1,65,51,2
1,63,69,96
1,68,51,0
1,68,79,0
1,46,66,131
1,61,71,0
1,65,73,0
1,70,67,0
1,51,79,431
1,63,79,0
1,66,79,0
1,70,71,0
1,44,64,1306
1,56,55,0
1,63,76,0
1,70,71,0
1,73,58,0
1,63,68,226
1,68,71,0
1,72,64,0
1,49,79,332
1,63,71,0
1,65,76,0
1,68,66,0
1,63,79,5
1,68,73,0
1,65,82,47
1,70,64,0
1,68,64,170
1,73,60,0
2,36,82,16704
2,36,67,50
2,41,79,56
2,34,73,768
2,34,64,59
2,39,82,37
2,39,79,67
2,34,66,14
2,36,82,19
2,36,68,76
2,38,84,35
2,38,84,42
2,31,82,15
2,31,67,146
2,36,95,38
2,29,84,50
2,29,87,81
2,34,84,9
2,39,84,24
2,34,87,17
2,36,79,288
2,38,91,11
2,26,103,480
2,36,87,30
2,36,64,30
2,29,84,96
2,34,84,55
2,34,55,73
2,39,60,46
2,34,71,0
2,27,71,9
2,36,82,20
2,36,71,59
2,38,82,60
2,38,63,70
2,38,82,64
2,38,79,41
2,26,69,4
2,31,91,54
2,31,91,58
2,29,79,0
2,31,99,96
2,31,68,902
2,34,87,96
2,31,68,85
2,36,95,16
2,31,64,41
2,34,87,96
2,36,82,5
2,36,87,989
2,31,82,96
2,29,79,71
2,29,73,33
2,27,95,96
2,29,82,77
2,29,107,316
2,29,87,596
2,31,63,96
2,34,87,13
2,34,84,38
2,34,87,45
2,46,73,537
2,34,82,288
2,34,76,56
2,31,95,26
2,26,73,3
2,29,91,96
2,31,99,76
2,31,87,300
2,31,99,49
2,31,76,508
2,34,73,96
2,36,79,18
2,31,63,96
2,34,91,9
2,36,82,22
2,36,95,335
2,36,95,30
2,36,76,531
2,31,68,96
2,29,84,20
2,29,84,46
2,27,79,96
2,29,91,91
2,29,99,308
2,29,103,35
2,29,82,520
2,31,76,17
2,34,84,9
2,31,87,0
2,34,87,6
2,34,87,491
2,29,87,0
2,34,87,8
2,36,73,24
2,36,69,54
2,29,73,4
2,34,79,8
2,27,79,23
2,58,66,96
2,51,62,24
2,46,68,19
2,27,73,29
2,55,64,96
2,24,91,238
2,24,69,50
2,26,87,96
2,31,84,747
2,31,84,463
2,31,87,0
2,31,87,14
2,31,87,0
2,36,87,140
2,29,82,768
2,34,87,762
2,39,79,40
2,38,82,57
2,36,82,3
2,38,82,34
2,26,82,18
2,31,84,14
2,31,79,48
2,31,84,258
2,31,73,243
2,31,68,96
2,34,87,96
2,31,68,85
2,36,95,16
2,31,64,41
2,34,87,96
2,36,82,5
2,36,87,989
2,31,82,96
2,29,79,71
2,29,73,33
2,27,95,96
2,29,82,77
2,29,107,316
2,29,87,596
2,31,63,96
2,34,87,13
2,34,84,38
2,34,87,45
2,46,73,537
2,34,82,288
2,34,76,56
2,31,95,26
2,26,73,3
2,29,91,96
2,31,99,76
2,31,87,300
2,31,99,49
2,31,76,508
2,34,73,96
2,36,79,18
2,31,63,96
2,34,91,9
2,36,82,22
2,36,95,335
2,36,95,30
2,36,76,531
2,31,68,96
2,29,84,20
2,29,84,46
2,27,79,96
2,29,91,91
2,29,99,308
2,29,103,35
2,29,82,520
2,31,76,17
2,34,84,9
2,31,87,0
2,34,87,6
2,34,87,491
2,29,87,0
2,34,87,8
2,31,91,24
2,31,91,58
2,29,79,0
2,31,99,96
2,31,68,902
2,34,87,96
2,31,68,85
2,36,95,16
2,31,64,41
2,34,87,96
2,36,82,5
2,36,87,989
2,31,82,96
2,29,79,71
2,29,73,33
2,27,95,96
2,29,82,77
2,29,107,316
2,29,87,596
2,31,63,96
2,34,87,13
2,34,84,38
2,34,87,45
2,46,73,537
2,34,82,288
2,34,76,56
2,31,95,26
2,26,73,3
2,29,91,96
2,31,99,76
2,31,87,300
2,31,99,49
2,31,76,508
2,34,73,96
2,36,79,18
2,31,63,96
2,34,91,9
2,36,82,22
2,36,95,335
2,36,95,30
2,36,76,531
2,31,68,96
2,29,84,20
2,29,84,46
2,27,79,96
2,29,91,91
2,29,99,308
2,29,103,35
2,29,82,520
2,31,76,17
2,34,84,9
2,31,87,0
2,34,87,6
2,34,87,491
2,29,87,0
2,34,87,8
2,34,91,24
2,34,91,58
2,32,79,0
2,34,99,96
2,34,82,230
2,34,68,160
2,37,87,96
2,34,68,85
2,39,95,16
2,34,64,41
2,37,87,96
2,39,82,5
2,39,87,989
2,34,82,96
2,32,79,71
2,32,73,33
2,30,95,96
2,32,82,77
2,32,107,316
2,32,87,596
2,34,63,96
2,37,87,13
2,37,84,38
2,37,87,45
2,49,73,537
2,37,82,288
2,37,76,56
2,34,95,26
2,29,73,3
2,32,91,96
2,34,99,76
2,34,87,300
2,34,99,49
2,34,76,508
2,37,73,96
2,39,79,18
2,34,63,96
2,37,91,9
2,39,82,22
2,39,95,335
2,39,95,30
2,39,76,531
2,34,68,96
2,32,84,20
2,32,84,46
2,30,79,96
2,32,91,91
2,32,99,308
2,32,103,35
2,32,82,520
2,34,76,17
2,37,84,9
2,34,87,0
2,37,87,6
2,37,87,491
2,32,87,0
2,37,87,8
2,34,91,24
2,34,91,58
2,32,79,0
2,34,99,96
2,34,68,902
2,37,87,96
2,34,68,85
2,39,95,16
2,34,64,41
2,37,87,96
2,39,82,5
2,39,87,989
2,34,82,96
2,32,79,71
2,32,73,33
2,30,95,96
2,32,82,77
2,32,107,316
2,32,87,596
2,34,63,96
2,37,87,13
2,37,84,38
2,37,87,45
2,49,73,537
2,37,82,288
2,37,76,56
2,34,95,26
2,29,73,3
2,32,91,96
2,34,99,76
2,34,87,300
2,34,99,49
2,34,76,508
2,37,73,96
2,39,79,18
2,34,63,96
2,37,91,9
2,39,82,22
2,39,95,335
2,39,95,30
2,39,76,531
2,34,68,96
2,32,84,20
2,32,84,46
2,30,79,96
2,32,91,91
2,32,99,308
2,32,103,35
2,32,82,520
2,34,76,17
2,37,84,9
2,34,87,0
2,37,87,6
2,37,87,491
2,32,87,0
