track,note,velocity,time
0,65,59,463
0,74,69,0
0,86,71,0
0,77,58,0
0,65,0,45
0,74,0,1
0,86,0,0
0,67,76,1
0,76,90,0
0,88,70,0
0,79,56,0
0,77,0,1
0,67,0,45
0,76,0,1
0,79,0,1
0,69,70,0
0,77,90,0
0,89,65,0
0,81,61,0
0,88,0,1
0,57,67,40
0,65,62,7
0,62,57,0
0,57,61,0
0,50,66,1
0,62,85,0
0,65,69,12
0,89,0,33
0,81,0,0
0,88,67,0
0,79,53,0
0,57,83,2
0,77,49,46
0,79,0,1
0,88,0,0
0,62,82,0
0,42,95,0
0,42,0,1
0,86,65,0
0,69,0,21
0,84,68,26
0,76,59,0
0,77,0,1
0,69,76,0
0,86,0,1
0,57,0,15
0,62,0,5
0,65,0,6
0,50,0,13
0,60,78,1
0,62,0,4
0,45,61,2
0,64,67,1
0,55,58,0
0,60,57,0
0,77,0,1
0,65,0,0
0,57,0,1
0,62,0,1
0,64,78,2
0,67,79,9
0,76,0,31
0,81,65,1
0,72,57,0
0,84,0,1
0,55,79,47
0,60,84,0
0,52,72,0
0,84,60,0
0,76,55,0
0,69,0,1
0,57,0,0
0,42,101,0
0,42,0,1
0,81,0,1
0,72,0,0
0,76,0,44
0,55,0,0
0,52,0,1
0,84,0,0
0,62,90,0
0,77,59,0
0,60,0,1
0,86,66,1
0,60,0,14
0,67,0,6
0,64,0,3
0,45,0,13
0,60,70,7
0,64,0,2
0,55,0,0
0,60,90,1
0,46,58,0
0,58,66,0
0,62,73,0
0,53,56,0
0,60,0,1
0,72,70,0
0,65,71,0
0,74,74,0
0,62,79,5
0,65,78,7
0,86,0,34
0,77,0,0
0,76,56,0
0,84,70,1
0,76,0,47
0,72,0,1
0,82,66,0
0,74,50,0
0,42,95,1
0,42,0,1
0,84,0,0
0,58,77,0
0,58,70,6
0,62,0,15
0,60,0,0
0,74,0,25
0,81,70,2
0,74,49,0
0,82,0,1
0,60,0,3
0,65,0,8
0,62,0,8
0,65,0,2
0,58,0,10
0,46,0,8
0,62,0,2
0,58,0,0
0,57,75,0
0,53,0,1
0,62,69,2
0,57,64,0
0,74,0,1
0,53,59,0
0,69,81,2
0,65,74,0
0,38,68,0
0,62,78,7
0,65,78,8
0,58,0,8
0,57,78,24
0,62,72,48
0,42,101,0
0,42,0,1
0,74,0,21
0,81,0,0
0,79,67,0
0,76,57,1
0,77,58,24
0,79,0,1
0,76,0,1
0,74,50,0
0,57,0,18
0,79,64,4
0,76,55,0
0,62,0,1
0,65,0,0
0,77,0,0
0,74,0,2
0,65,0,3
0,69,0,2
0,38,0,2
0,62,0,12
0,57,0,0
0,57,71,1
0,79,0,1
0,76,0,0
0,62,0,0
0,57,0,0
0,81,67,0
0,50,67,1
0,57,65,0
0,74,90,1
0,69,89,0
0,65,84,0
0,62,63,0
0,65,69,0
0,77,57,0
0,53,0,3
0,62,78,3
0,65,78,9
0,81,0,31
0,57,72,0
0,86,70,0
0,77,0,46
0,62,90,2
0,81,65,0
0,77,69,1
0,42,95,0
0,42,0,1
0,86,0,1
0,57,0,4
0,81,0,40
0,77,0,0
0,81,70,1
0,57,78,2
0,77,66,0
0,74,0,4
0,57,0,15
0,65,0,1
0,62,0,2
0,50,0,18
0,65,0,1
0,69,0,0
0,55,70,2
0,57,0,2
0,62,0,1
0,72,89,0
0,45,68,0
0,55,64,0
0,60,65,0
0,64,72,0
0,64,89,1
0,69,95,0
0,65,0,2
0,60,80,5
0,64,86,7
0,81,0,32
0,77,0,0
0,57,0,0
0,52,83,1
0,86,61,0
0,62,0,2
0,77,65,0
0,77,0,45
0,60,83,1
0,81,67,0
0,42,101,1
0,42,0,1
0,86,0,0
0,76,58,0
0,81,0,45
0,81,65,3
0,72,54,0
0,76,0,1
0,72,0,20
0,69,0,1
0,64,0,0
0,45,0,16
0,55,0,0
0,60,0,1
0,64,0,3
0,60,0,0
0,64,0,2
0,52,0,1
0,60,0,2
0,69,94,0
0,74,98,0
0,65,93,0
0,50,67,0
0,62,94,1
0,65,76,0
0,62,71,0
0,62,73,0
0,65,77,0
0,57,69,0
0,55,0,1
0,72,0,44
0,74,57,1
0,81,0,1
0,57,74,0
0,86,65,1
0,62,0,41
0,65,0,0
0,62,0,1
0,50,0,0
0,69,0,1
0,65,0,0
0,65,0,2
0,67,100,1
0,64,83,0
0,67,72,0
0,64,83,0
0,52,65,1
0,67,87,0
0,42,95,0
0,42,0,1
0,62,0,0
0,67,0,47
0,64,79,0
0,57,0,2
0,74,0,40
0,64,0,0
0,52,0,0
0,67,0,1
0,67,0,4
0,64,0,0
0,64,0,0
0,74,86,0
0,65,86,0
0,69,90,0
0,53,68,0
0,65,73,0
0,69,73,0
0,62,78,1
0,62,100,46
0,53,0,40
0,65,0,4
0,62,0,2
0,62,0,0
0,69,0,0
0,64,88,0
0,69,0,2
0,52,65,0
0,67,80,0
0,64,75,0
0,67,93,1
0,64,82,0
0,42,101,0
0,42,0,1
0,64,82,0
0,65,0,1
0,64,0,39
0,65,91,2
0,57,83,5
0,86,0,22
0,74,0,4
0,57,0,8
0,57,64,6
0,64,0,1
0,74,0,2
0,57,0,1
0,52,0,1
0,64,0,1
0,67,0,1
0,64,0,0
0,67,0,0
0,50,71,1
0,62,74,0
0,65,62,0
0,69,62,0
0,77,62,0
0,74,41,1
0,65,80,14
0,65,0,25
0,64,81,5
0,57,74,2
0,64,0,46
0,65,90,2
0,42,95,1
0,42,0,1
0,62,81,0
0,57,0,4
0,62,0,32
0,60,77,7
0,57,80,5
0,57,0,13
0,65,0,13
0,62,0,1
0,50,0,10
0,57,79,4
0,60,0,1
0,55,78,0
0,77,0,5
0,45,67,0
0,76,55,0
0,72,44,0
0,64,57,1
0,67,69,0
0,60,77,2
0,74,0,1
0,65,0,0
0,69,0,0
0,64,64,10
0,57,0,31
0,65,0,1
0,52,67,1
0,57,0,20
0,60,87,25
0,57,90,3
0,42,101,1
0,42,0,1
0,52,0,3
0,60,0,33
0,52,73,12
0,62,87,2
0,60,0,8
0,64,0,0
0,55,0,0
0,53,69,21
0,45,0,6
0,58,77,1
0,76,0,6
0,67,0,1
0,46,58,1
0,62,65,0
0,65,77,0
0,70,53,0
0,64,0,1
0,74,53,0
0,60,35,1
0,72,0,1
0,57,0,4
0,62,72,3
0,58,0,10
0,52,0,23
0,62,0,3
0,60,87,1
0,53,82,2
0,60,0,41
0,60,0,2
0,58,85,4
0,58,88,1
0,58,68,0
0,42,95,0
0,42,0,1
0,58,0,45
0,62,83,1
0,57,79,1
0,58,0,26
0,53,0,0
0,62,0,3
0,46,0,13
0,53,63,3
0,70,0,1
0,69,49,0
0,74,0,1
0,38,73,1
0,74,50,1
0,53,0,3
0,57,71,2
0,62,62,10
0,58,0,30
0,62,0,1
0,53,82,2
0,57,0,1
0,42,101,46
0,42,0,1
0,62,89,0
0,57,80,46
0,53,77,1
0,57,0,7
0,53,0,1
0,62,0,7
0,53,0,4
0,55,92,0
0,53,67,11
0,38,0,5
0,57,80,4
0,55,0,1
0,74,0,3
0,74,53,4
0,38,73,1
0,62,80,0
0,57,78,1
0,57,0,1
0,53,0,0
0,62,0,2
0,57,0,41
0,62,84,0
0,57,82,2
0,62,89,47
0,57,0,2
0,57,82,0
0,42,95,0
0,42,0,1
0,62,0,2
0,57,0,35
0,57,76,9
0,57,82,1
0,53,0,12
0,57,0,9
0,62,0,3
0,52,64,13
0,38,0,4
0,57,0,2
0,55,78,1
0,74,0,2
0,62,73,1
0,60,59,0
0,64,71,0
0,72,55,0
0,67,48,0
0,33,73,1
0,62,0,2
0,69,0,0
0,65,0,0
0,60,75,3
0,57,0,38
0,62,0,2
0,52,80,2
0,62,0,1
0,57,82,3
0,57,0,38
0,57,88,6
0,42,101,1
0,42,0,1
0,57,80,4
0,52,0,17
0,57,0,24
0,52,69,1
0,62,74,5
0,52,0,8
0,55,0,7
0,57,0,3
0,60,0,6
0,33,0,5
0,52,0,11
0,72,0,1
0,67,0,2
0,65,99,0
0,38,65,0
0,50,81,0
0,62,65,0
0,74,56,0
0,65,49,0
0,60,0,1
0,53,59,1
0,64,0,1
0,57,86,46
0,57,82,1
0,65,0,21
0,74,0,24
0,67,98,1
0,76,57,0
0,45,69,1
0,55,51,0
0,67,55,0
0,42,95,0
0,42,0,1
0,38,0,0
0,55,73,0
0,53,0,1
0,65,0,1
0,57,0,21
0,64,84,23
0,57,85,2
0,45,0,42
0,67,0,1
0,76,0,1
0,67,0,1
0,55,0,0
0,77,61,1
0,69,62,0
0,69,90,1
0,50,58,0
0,57,68,0
0,62,76,2
0,57,0,22
0,62,0,3
0,62,94,22
0,57,76,1
0,69,0,4
0,77,0,39
0,50,0,0
0,62,0,1
0,79,65,1
0,67,90,1
0,42,101,0
0,42,0,1
0,45,65,0
0,55,66,0
0,57,0,1
0,64,89,1
0,57,0,22
0,64,0,18
0,65,88,4
0,57,71,2
0,45,0,29
0,50,0,1
0,57,0,2
0,55,0,0
0,62,0,2
0,64,0,6
0,57,78,1
0,55,0,3
0,67,0,0
0,62,0,1
0,57,0,0
0,69,0,0
0,79,0,0
0,38,70,2
0,62,74,0
0,65,62,0
0,69,62,0
0,81,58,0
0,74,52,0
0,65,80,15
0,57,74,32
0,65,0,1
0,64,80,0
0,64,0,22
0,62,84,4
0,65,90,21
0,42,95,1
0,42,0,1
0,57,0,4
0,62,0,44
0,57,80,0
0,60,79,3
0,57,0,6
0,65,0,17
0,62,0,1
0,38,0,10
0,55,78,5
0,74,0,4
0,45,70,1
0,72,52,0
0,64,57,1
0,67,69,0
0,60,0,2
0,60,77,0
0,65,0,1
0,69,0,0
0,57,78,0
0,64,64,10
0,57,0,31
0,65,0,1
0,52,67,1
0,57,0,12
0,57,90,36
0,60,82,1
0,42,101,0
0,42,0,1
0,52,0,3
0,60,0,43
0,52,73,2
0,62,81,0
0,60,0,10
0,64,0,0
0,55,0,0
0,53,69,21
0,45,0,4
0,58,77,3
0,67,0,7
0,72,0,1
0,62,65,0
0,65,77,0
0,64,0,1
0,74,52,0
0,46,61,1
0,60,35,0
0,84,64,0
0,81,0,1
0,57,0,4
0,62,72,3
0,58,0,10
0,52,0,23
0,53,82,6
0,62,0,2
0,60,76,2
0,60,0,14
0,58,78,6
0,60,0,19
0,58,88,5
0,58,68,0
0,42,95,0
0,42,0,1
0,82,59,0
0,84,0,2
0,58,0,42
0,62,83,2
0,57,78,1
0,58,0,26
0,53,0,0
0,62,0,3
0,46,0,13
0,53,63,3
0,82,0,3
0,38,70,1
0,81,58,0
0,53,0,3
0,57,71,2
0,62,62,10
0,57,0,7
0,58,0,23
0,62,0,1
0,53,82,2
0,53,82,3
0,42,101,44
0,42,0,1
0,62,89,0
0,53,0,2
0,55,90,0
0,79,53,20
0,79,0,24
0,57,80,0
0,77,42,2
0,55,0,1
0,57,84,0
0,57,0,5
0,53,0,1
0,62,0,7
0,77,0,8
0,79,51,0
0,53,67,7
0,38,0,1
0,57,80,8
0,79,0,8
0,74,0,0
0,50,69,0
0,62,80,1
0,74,53,0
0,53,0,2
0,57,0,0
0,62,0,2
0,57,0,33
0,62,90,3
0,57,82,7
0,62,89,47
0,57,78,0
0,62,0,1
0,57,0,1
0,42,95,0
0,42,0,1
0,57,0,39
0,57,81,5
0,57,76,2
0,53,0,13
0,57,0,9
0,62,0,3
0,52,64,13
0,50,0,5
0,55,78,2
0,45,69,3
0,60,59,0
0,64,71,0
0,74,0,2
0,72,48,0
0,76,46,0
0,65,0,1
0,62,0,0
0,60,75,3
0,57,0,35
0,57,0,3
0,62,83,1
0,62,0,1
0,52,80,2
0,62,0,47
0,57,88,1
0,57,82,0
0,42,101,1
0,42,0,1
0,52,0,21
0,57,0,18
0,81,0,6
0,52,69,1
0,57,86,0
0,79,54,0
0,52,0,13
0,55,0,7
0,57,0,3
0,60,0,6
0,52,0,16
0,76,0,0
0,45,0,3
0,65,99,0
0,50,81,0
0,62,65,0
0,77,48,0
0,69,55,0
0,60,0,1
0,72,0,1
0,79,0,0
0,50,68,0
0,53,59,0
0,64,0,1
0,57,0,46
0,57,86,0
0,57,82,1
0,62,87,0
0,65,0,21
0,50,0,18
0,77,0,5
0,76,56,1
0,69,0,1
0,67,98,0
0,67,49,0
0,55,51,1
0,42,95,0
0,42,0,1
0,52,64,0
0,55,73,0
0,53,0,1
0,57,0,22
0,64,84,23
0,57,85,2
0,52,0,41
0,67,0,2
0,55,0,2
0,76,0,1
0,74,51,0
0,69,51,0
0,65,51,0
0,69,90,1
0,53,66,0
0,57,68,0
0,67,0,1
0,62,76,1
0,57,0,22
0,62,0,24
0,53,95,1
0,57,76,1
0,69,0,4
0,53,0,30
0,67,50,10
0,65,0,1
0,69,0,0
0,52,56,0
0,72,50,0
0,64,35,0
0,74,0,1
0,67,90,0
0,42,101,0
0,42,0,1
0,55,66,0
0,57,0,1
0,55,111,0
0,53,0,3
0,57,0,20
0,55,0,20
0,57,71,4
0,57,94,0
0,52,0,24
0,50,0,6
0,62,0,4
0,64,0,6
0,57,0,1
0,72,0,1
0,67,0,2
0,55,0,0
0,64,0,1
0,62,0,0
0,57,0,0
0,67,0,0
0,55,0,1
0,45,110,1
0,45,90,0
0,69,72,0
0,64,73,0
0,62,64,0
0,36,80,0
0,36,0,1
0,74,72,0
0,67,70,0
0,69,69,0
0,59,83,0
0,59,0,1
0,57,0,34
0,69,0,2
0,74,0,1
0,67,0,2
0,74,75,8
0,67,62,0
0,69,77,0
0,57,94,0
0,59,70,0
0,59,0,1
0,55,74,3
0,51,48,20
0,51,0,1
0,57,0,16
0,45,0,1
0,62,89,1
0,40,100,3
0,57,59,1
0,57,98,0
0,42,95,0
0,42,0,1
0,59,70,0
0,59,0,1
0,40,0,17
0,51,61,6
0,51,0,1
0,69,0,10
0,67,0,2
0,74,0,0
0,57,0,1
0,61,78,7
0,57,0,1
0,62,0,0
0,33,106,1
0,57,83,0
0,57,102,0
0,69,80,1
0,73,77,0
0,67,72,0
0,61,64,0
0,59,77,0
0,59,0,1
0,62,0,0
0,57,0,94
0,62,101,0
0,62,0,47
0,57,0,0
0,57,58,1
0,42,101,0
0,42,0,1
0,64,94,0
0,61,0,11
0,33,0,31
0,64,0,1
0,65,98,5
0,36,34,23
0,36,0,1
0,67,0,10
0,73,0,1
0,69,0,0
0,64,0,5
0,69,0,6
0,45,0,0
0,57,0,0
0,50,102,0
0,67,89,0
0,64,67,0
0,61,0,1
0,69,80,0
0,36,80,0
0,36,0,1
0,76,82,0
0,69,77,0
0,67,78,0
0,50,90,0
0,59,80,0
0,59,0,1
0,55,0,2
0,64,100,43
0,65,0,1
0,57,78,1
0,59,73,0
0,59,0,1
0,64,0,16
0,62,90,4
0,51,51,3
0,51,0,1
0,45,92,21
0,50,0,1
0,42,95,0
0,42,0,1
0,64,94,0
0,59,70,0
0,59,0,1
0,45,0,19
0,51,65,4
0,51,0,1
0,69,0,2
0,67,0,0
0,76,0,0
0,67,0,18
0,64,0,0
0,38,92,1
0,65,68,0
0,62,67,0
0,74,81,2
0,65,76,0
0,69,71,0
0,62,86,0
0,59,80,0
0,59,0,1
0,62,0,91
0,53,108,7
0,50,0,40
0,57,0,4
0,42,101,0
0,42,0,1
0,53,58,0
0,53,0,1
0,55,109,0
0,55,0,41
0,62,0,5
0,55,63,0
0,57,105,0
0,53,0,3
0,36,34,21
0,36,0,1
0,65,0,2
0,38,0,3
0,74,0,1
0,69,0,0
0,55,0,11
0,69,0,3
0,65,0,1
0,62,0,0
0,64,0,2
0,45,90,0
0,67,71,0
0,69,68,0
0,64,69,0
0,36,81,0
0,36,0,1
0,69,62,0
0,74,66,0
0,67,66,0
0,45,104,0
0,59,88,0
0,59,0,1
0,74,0,35
0,69,0,0
0,67,0,1
0,57,0,0
0,57,95,5
0,74,83,6
0,67,82,0
0,69,88,0
0,59,77,0
0,59,0,1
0,55,74,3
0,51,64,20
0,51,0,1
