track,note,velocity,time
0,40,118,501
0,40,0,0
0,40,122,5
0,40,0,0
0,43,97,47
0,55,100,14
0,43,101,1
0,50,102,1
0,50,104,10
0,55,104,1
0,58,107,1
0,62,110,9
0,58,111,3
0,67,112,4
0,62,112,3
0,31,103,1
0,70,82,0
0,43,78,0
0,62,86,0
0,55,70,0
0,50,84,0
0,42,101,0
0,42,0,0
0,36,110,0
0,36,0,0
0,70,118,0
0,70,107,0
0,67,96,0
0,67,114,5
0,31,0,62
0,43,0,27
0,42,85,0
0,42,0,0
0,40,112,0
0,40,0,0
0,31,94,1
0,55,81,0
0,62,0,22
0,70,0,34
0,67,0,3
0,70,0,6
0,31,0,3
0,70,0,16
0,55,0,9
0,69,78,1
0,60,81,0
0,43,77,1
0,69,97,0
0,65,95,0
0,42,87,1
0,42,0,0
0,36,107,0
0,36,0,0
0,31,104,1
0,69,110,0
0,31,0,65
0,55,83,30
0,42,84,0
0,42,0,0
0,40,111,0
0,40,0,0
0,31,101,1
0,43,0,2
0,43,0,19
0,60,0,2
0,50,0,3
0,65,0,2
0,69,0,4
0,69,0,2
0,31,0,31
0,69,0,24
0,70,99,4
0,70,103,0
0,62,95,0
0,70,83,1
0,62,83,0
0,43,76,0
0,42,84,0
0,42,0,0
0,31,100,2
0,36,105,0
0,36,0,0
0,55,0,1
0,70,0,15
0,62,0,7
0,62,0,0
0,70,0,0
0,70,0,3
0,72,91,18
0,72,96,1
0,64,78,1
0,72,72,0
0,64,90,0
0,31,0,17
0,64,0,6
0,72,0,5
0,72,0,0
0,72,0,2
0,64,0,3
0,43,0,7
0,62,0,2
0,43,0,2
0,69,99,3
0,60,81,0
0,60,89,1
0,69,85,0
0,55,75,0
0,42,84,0
0,42,0,0
0,40,112,0
0,40,0,0
0,69,105,0
0,58,0,1
0,50,0,0
0,31,103,0
0,67,0,1
0,55,0,1
0,62,0,2
0,55,0,7
0,58,0,1
0,67,0,3
0,60,0,0
0,69,0,0
0,60,0,9
0,69,0,1
0,69,0,5
0,67,101,16
0,62,91,0
0,58,89,2
0,67,89,0
0,67,97,0
0,31,0,14
0,55,0,21
0,43,79,12
0,42,84,0
0,42,0,0
0,36,107,1
0,36,0,0
0,31,104,1
0,31,0,64
0,42,83,30
0,42,0,0
0,55,85,1
0,40,112,0
0,40,0,0
0,50,0,1
0,55,0,0
0,31,103,1
0,43,0,2
0,67,0,14
0,67,0,4
0,58,0,4
0,67,0,9
0,62,0,3
0,43,100,8
0,43,100,4
0,50,106,10
0,31,0,5
0,50,103,3
0,55,111,1
0,55,104,2
0,58,113,10
0,58,108,3
0,62,116,7
0,62,111,1
0,70,118,1
0,70,77,1
0,42,88,0
0,42,0,0
0,55,0,1
0,43,83,0
0,62,103,0
0,36,107,0
0,36,0,0
0,67,92,0
0,67,117,1
0,70,107,0
0,31,104,1
0,50,75,0
0,55,73,0
0,67,113,1
0,70,0,52
0,70,0,4
0,67,0,4
0,31,0,3
0,70,0,7
0,62,0,3
0,67,87,19
0,70,82,1
0,42,86,0
0,42,0,0
0,31,100,1
0,55,85,0
0,62,94,0
0,40,112,0
0,40,0,0
0,70,118,0
0,70,113,0
0,43,0,7
0,62,0,13
0,70,0,33
0,67,0,3
0,31,0,5
0,70,0,3
0,70,0,11
0,69,107,19
0,69,87,1
0,60,79,0
0,42,87,0
0,42,0,0
0,65,92,0
0,43,78,1
0,36,105,0
0,36,0,0
0,69,99,0
0,31,104,1
0,55,0,6
0,69,0,13
0,60,0,3
0,65,0,4
0,69,0,4
0,69,0,6
0,70,79,9
0,67,92,0
0,62,85,1
0,70,93,0
0,70,91,0
0,31,0,14
0,62,0,1
0,70,0,8
0,70,0,0
0,67,0,1
0,70,0,4
0,72,95,17
0,64,83,1
0,64,90,1
0,72,96,0
0,72,87,1
0,55,80,0
0,42,85,1
0,42,0,0
0,40,112,0
0,40,0,0
0,31,102,2
0,43,0,2
0,72,0,11
0,64,0,1
0,64,0,9
0,72,0,3
0,72,0,6
0,69,106,12
0,65,93,0
0,69,96,1
0,60,79,0
0,62,0,1
0,69,103,0
0,50,0,12
0,43,0,2
0,31,0,1
0,55,0,1
0,67,0,2
0,58,0,3
0,55,0,7
0,62,0,12
0,50,0,5
0,58,0,2
0,43,78,0
0,42,83,1
0,42,0,0
0,36,108,0
0,36,0,0
0,31,104,2
0,55,0,2
0,67,0,1
0,43,0,1
0,31,0,58
0,43,0,23
0,55,85,7
0,42,85,2
0,42,0,0
0,40,112,0
0,40,0,0
0,31,104,2
0,31,0,58
0,55,0,8
0,42,84,27
0,42,0,0
0,31,103,1
0,43,77,0
0,36,108,0
0,36,0,0
0,43,0,36
0,36,107,11
0,36,0,0
0,31,0,19
0,41,96,27
0,53,99,2
0,42,89,1
0,42,0,0
0,40,112,0
0,40,0,0
0,50,0,3
0,55,0,2
0,69,0,8
0,69,0,1
0,65,0,11
0,43,93,13
0,53,0,1
0,60,0,5
0,43,102,0
0,55,80,3
0,43,101,1
0,41,0,1
0,50,95,7
0,50,105,5
0,55,95,1
0,55,105,6
0,58,95,10
0,58,106,1
0,69,0,6
0,62,98,0
0,62,108,4
0,70,124,3
0,67,99,1
0,55,0,1
0,43,0,0
0,67,100,0
0,31,100,1
0,43,85,0
0,62,80,0
0,70,86,0
0,50,75,0
0,42,84,0
0,42,0,0
0,36,110,0
0,36,0,0
0,55,74,1
0,67,110,0
0,70,109,0
0,31,0,62
0,31,100,33
0,42,87,0
0,42,0,0
0,40,112,0
0,40,0,0
0,55,84,1
0,43,0,3
0,62,0,6
0,67,0,42
0,70,0,5
0,31,0,2
0,70,0,14
0,70,0,5
0,55,0,5
0,65,97,11
0,69,89,1
0,60,87,0
0,43,83,1
0,42,86,0
0,42,0,0
0,36,110,0
0,36,0,0
0,31,101,1
0,69,106,0
0,69,118,0
0,31,0,62
0,42,86,33
0,42,0,0
0,40,111,0
0,40,0,0
0,55,90,1
0,43,0,1
0,31,102,0
0,60,0,35
0,43,0,3
0,50,0,1
0,69,0,4
0,65,0,1
0,69,0,7
0,55,0,8
0,31,0,1
0,62,0,1
0,62,0,6
0,55,0,6
0,58,0,0
0,50,0,2
0,67,0,1
0,55,0,6
0,58,0,1
0,67,0,4
0,62,103,4
0,43,0,2
0,70,113,0
0,70,78,1
0,43,80,0
0,62,81,0
0,42,87,0
0,42,0,0
0,36,107,0
0,36,0,0
0,70,105,0
0,31,101,1
0,69,0,2
0,70,0,16
0,62,0,1
0,70,0,4
0,70,0,4
0,62,0,3
0,72,94,15
0,72,96,1
0,64,94,0
0,72,85,1
0,64,80,0
0,31,0,13
0,72,0,12
0,64,0,1
0,72,0,1
0,64,0,2
0,72,0,2
0,43,0,11
0,60,81,3
0,69,80,2
0,60,81,0
0,55,78,0
0,69,97,0
0,69,103,1
0,31,101,1
0,42,88,0
0,42,0,0
0,40,112,0
0,40,0,0
0,69,0,14
0,60,0,2
0,60,0,8
0,69,0,3
0,69,0,4
0,62,99,14
0,67,96,1
0,58,86,0
0,67,93,0
0,67,92,1
0,31,0,12
0,55,0,3
0,43,76,32
0,31,100,2
0,42,85,0
0,42,0,0
0,36,108,0
0,36,0,0
0,31,0,55
0,43,0,8
0,55,84,32
0,42,91,1
0,42,0,0
0,40,112,0
0,40,0,0
0,31,101,1
0,55,0,11
0,50,0,2
0,67,0,5
0,67,0,4
0,62,0,10
0,43,97,5
0,43,98,8
0,50,98,10
0,31,0,6
0,55,98,2
0,50,98,0
0,55,0,6
0,55,106,0
0,58,101,5
0,58,0,3
0,62,102,3
0,58,106,2
0,67,0,7
0,62,106,1
0,70,84,3
0,43,80,0
0,70,101,0
0,62,94,1
0,67,92,0
0,50,84,1
0,67,105,0
0,42,86,0
0,42,0,0
0,36,105,0
0,36,0,0
0,70,118,0
0,31,102,1
0,55,79,0
0,67,114,5
0,70,0,50
0,31,0,1
0,70,0,2
0,67,0,6
0,70,0,1
0,62,0,2
0,67,94,26
0,70,81,1
0,55,84,0
0,62,89,0
0,70,113,0
0,70,107,0
0,43,0,1
0,42,94,0
0,42,0,0
0,40,110,0
0,40,0,0
0,31,102,2
0,62,0,26
0,70,0,31
0,70,0,3
0,67,0,0
0,70,0,5
0,31,0,6
0,36,100,22
0,60,83,0
0,69,92,0
0,55,0,1
0,43,83,0
0,42,91,0
0,42,0,0
0,36,109,0
0,36,0,0
0,69,107,0
0,65,95,0
0,69,97,1
0,60,0,15
0,69,0,12
0,65,0,2
0,69,0,1
0,69,0,2
0,36,0,4
0,38,86,8
0,62,81,2
0,70,77,0
0,40,110,0
0,40,0,0
0,67,93,0
0,70,97,1
0,70,97,1
0,62,0,18
0,70,0,1
0,70,0,5
0,70,0,3
0,67,0,1
0,38,0,6
0,43,0,8
0,41,90,1
0,64,87,2
0,72,92,1
0,55,76,0
0,40,108,0
0,40,0,0
0,72,97,0
0,64,81,0
0,42,87,1
0,42,0,0
0,72,94,0
0,64,0,12
0,72,0,3
0,72,0,11
0,72,0,2
0,64,0,0
0,55,0,4
0,62,0,1
0,43,0,2
0,50,0,0
0,58,0,1
0,67,0,1
0,50,0,0
0,41,0,3
0,43,0,2
0,74,106,2
0,65,95,1
0,43,101,1
0,74,90,1
0,65,98,0
0,36,110,0
0,36,0,0
0,74,105,0
0,49,92,1
0,49,0,0
0,62,0,2
0,55,0,0
0,58,0,7
0,67,0,1
0,42,87,133
0,42,0,0
0,55,0,69
0,42,94,28
0,42,0,0
0,36,114,48
0,36,0,0
0,42,107,48
0,42,0,0
0,40,117,1
0,40,0,0
0,74,0,18
0,43,0,7
0,55,0,7
0,50,0,3
0,43,98,5
0,43,98,7
0,65,0,2
0,74,0,3
0,50,98,5
0,50,99,0
0,55,99,2
0,55,98,2
0,65,0,6
0,58,92,7
0,74,0,1
0,58,102,2
0,62,103,6
0,62,102,2
0,58,58,8
0,74,71,0
0,55,61,0
0,62,66,0
0,81,70,0
0,31,104,1
0,81,85,0
0,91,56,0
0,42,95,0
0,42,0,0
0,36,111,0
0,36,0,0
0,67,110,0
0,67,108,3
0,62,0,17
0,55,0,1
0,58,0,4
0,62,0,1
0,58,0,8
0,55,0,0
0,31,0,1
0,81,0,6
0,82,70,4
0,38,88,0
0,42,74,1
0,42,0,0
0,81,0,1
0,82,84,1
0,74,0,26
0,38,0,0
0,82,0,2
0,55,0,2
0,58,0,3
0,43,97,11
0,82,65,1
0,62,121,0
0,58,100,0
0,55,99,0
0,42,101,2
0,42,0,0
0,40,112,0
0,40,0,0
0,67,0,1
0,74,60,0
0,74,115,0
0,65,103,1
0,70,105,0
0,74,115,1
0,70,107,0
0,70,0,20
0,62,0,1
0,43,0,1
0,70,0,1
0,74,0,1
0,74,0,3
0,43,0,0
0,58,0,6
0,55,0,2
0,65,0,3
0,50,0,1
0,82,0,2
0,82,0,1
0,38,92,0
0,77,74,1
0,42,75,1
0,42,0,0
0,77,77,3
0,38,0,23
0,41,102,19
0,42,79,4
0,42,0,0
0,36,104,0
0,36,0,0
0,41,0,32
0,43,95,13
0,90,64,1
0,42,78,1
0,42,0,0
0,58,103,0
0,55,102,0
0,65,112,1
0,74,116,0
0,70,107,0
0,62,124,1
0,65,105,0
0,74,109,0
0,70,109,0
0,43,0,4
0,50,0,1
0,62,0,4
0,90,0,0
0,70,0,6
0,70,0,2
0,62,0,1
0,74,0,2
0,74,0,0
0,90,58,1
0,65,0,5
0,58,0,1
0,43,0,1
0,55,0,6
0,90,0,4
0,67,0,2
0,65,0,0
0,74,0,4
0,38,99,1
0,62,59,1
0,79,72,1
0,89,59,0
0,42,113,0
0,42,0,0
0,40,110,0
0,40,0,0
0,77,0,2
0,79,78,0
0,77,0,2
0,89,0,8
0,89,55,12
0,89,0,14
0,43,94,2
0,38,0,1
0,43,102,3
0,88,67,3
0,42,74,0
0,42,0,0
0,74,68,1
0,79,0,1
0,74,75,3
0,79,0,1
0,50,102,3
0,50,99,5
0,88,0,1
0,55,103,2
0,55,95,2
0,88,65,5
0,58,103,5
0,58,98,2
0,88,0,6
0,62,103,4
0,62,101,0
0,62,0,5
0,87,67,2
0,31,106,1
0,42,80,0
0,42,0,0
0,36,110,0
0,36,0,0
0,67,114,2
0,67,109,3
0,74,0,5
0,87,0,1
0,62,0,10
0,87,60,2
0,31,0,4
0,58,0,9
0,55,0,2
0,74,0,6
0,87,0,0
0,42,81,3
0,42,0,0
0,62,0,1
0,38,96,0
0,86,72,0
0,55,0,1
0,74,66,0
0,69,71,0
0,58,0,1
0,62,58,0
0,69,76,1
0,86,0,9
0,86,71,12
0,38,0,6
0,86,0,8
0,62,0,2
0,85,67,7
0,40,112,0
0,40,0,0
0,43,97,1
0,42,110,0
0,42,0,0
0,55,114,0
0,58,111,0
0,62,116,1
0,74,114,0
0,70,103,0
0,65,107,0
0,62,121,0
0,74,114,2
0,70,111,0
0,67,0,1
0,65,106,0
0,43,0,4
0,85,0,3
0,50,0,0
0,67,0,2
0,70,0,7
0,70,0,2
0,85,71,0
0,43,0,2
0,74,0,0
0,62,0,1
0,74,0,2
0,65,0,1
0,65,0,6
0,62,0,4
0,55,0,1
0,58,0,0
0,74,0,2
0,85,0,1
0,69,0,3
0,84,67,1
0,38,92,1
0,62,56,1
0,42,78,0
0,42,0,0
0,69,0,7
0,84,0,7
0,62,0,1
0,84,68,8
0,38,0,4
0,84,0,12
0,41,97,7
0,42,75,1
0,42,0,0
0,74,72,1
0,69,90,0
0,83,70,0
0,69,87,1
0,36,111,0
0,36,0,0
0,83,0,13
0,83,69,10
0,41,0,1
0,69,0,16
0,83,0,1
0,69,0,2
0,43,0,1
0,43,94,1
0,82,66,0
0,50,0,1
0,70,105,0
0,42,78,0
0,42,0,0
0,58,103,0
0,62,119,0
0,55,101,0
0,67,62,1
0,74,114,0
0,65,107,0
0,62,121,1
0,74,116,0
0,65,107,0
0,70,104,0
0,67,74,1
0,82,0,11
0,70,0,7
0,62,0,1
0,74,0,1
0,65,0,0
0,82,66,0
0,58,0,1
0,62,0,1
0,70,0,2
0,65,0,2
0,74,0,1
0,43,0,1
0,55,0,4
0,82,0,4
0,38,101,8
0,81,64,0
0,42,107,1
0,42,0,0
0,67,0,1
0,40,112,0
0,40,0,0
0,67,0,1
0,65,67,0
0,65,72,1
0,81,0,13
0,81,61,8
0,81,0,16
0,38,0,1
0,43,91,1
0,43,99,2
0,80,57,3
0,60,74,1
0,42,87,0
0,42,0,0
0,60,63,2
0,50,101,10
0,80,0,1
0,91,0,0
0,50,98,1
0,55,99,1
0,55,101,2
0,80,54,6
0,58,91,3
0,58,101,6
0,62,101,3
0,62,101,2
0,80,0,8
0,67,115,0
0,60,0,1
0,60,0,1
0,91,57,1
0,42,78,0
0,42,0,0
0,31,103,1
0,62,69,1
0,36,112,0
0,36,0,0
0,62,81,1
0,67,103,2
0,62,0,12
0,62,0,11
0,55,0,5
0,58,0,1
0,31,0,3
0,55,0,0
0,58,0,1
0,62,0,8
0,62,0,0
0,38,97,1
0,60,64,1
0,42,79,0
0,42,0,0
0,60,71,2
0,38,0,31
0,60,0,12
0,58,69,0
0,60,0,3
0,58,71,0
0,70,110,0
0,74,114,0
0,65,110,0
0,42,110,0
0,42,0,0
0,58,101,0
0,43,91,1
0,40,112,0
0,40,0,0
0,55,104,0
0,62,117,0
0,70,108,1
0,74,114,0
0,65,107,0
0,62,115,1
0,67,0,3
0,70,0,14
0,70,0,4
0,74,0,2
0,43,0,3
0,65,0,0
0,62,0,2
0,74,0,3
0,65,0,1
0,65,0,2
0,58,0,3
0,62,0,2
0,55,0,0
0,43,0,2
0,57,71,3
0,42,78,1
0,42,0,0
0,38,93,1
0,57,75,0
0,58,0,2
0,50,0,5
0,58,0,2
0,38,0,18
0,41,93,21
0,42,81,0
0,42,0,0
0,36,111,0
0,36,0,0
0,41,0,31
0,74,0,5
0,43,0,6
0,90,68,4
0,43,92,2
0,70,104,0
0,74,112,0
0,65,105,0
0,42,78,0
