track,note,velocity,time
2,36,110,4608
2,36,110,552
2,36,110,168
2,36,110,744
2,36,110,552
2,36,110,168
2,36,110,744
2,36,110,552
2,36,110,168
2,36,110,744
2,36,110,552
2,36,110,168
2,36,110,744
2,36,110,552
2,36,110,168
2,36,110,744
2,36,110,552
2,36,110,168
2,36,110,744
2,36,110,552
2,36,110,168
2,36,110,744
2,36,110,552
2,36,110,168
2,36,110,744
2,36,110,552
2,36,110,168
2,36,110,744
2,36,110,552
2,36,110,168
2,36,110,744
2,36,110,552
2,36,110,168
2,36,110,744
2,36,110,552
2,36,110,168
2,36,110,744
2,36,110,552
2,36,110,168
2,36,110,744
2,36,110,552
2,36,110,168
2,36,110,744
2,36,110,552
2,36,110,168
2,36,110,744
2,36,110,552
2,36,110,168
2,36,110,744
2,36,110,552
2,36,110,168
2,36,110,744
2,36,110,552
2,36,110,168
2,36,110,744
2,36,110,552
2,36,110,168
2,36,110,744
2,36,110,552
2,36,110,168
2,36,110,744
2,36,110,552
2,36,110,168
2,36,110,744
2,36,110,552
2,36,110,168
2,36,110,744
2,36,110,552
2,36,110,168
2,36,110,744
2,36,110,552
2,36,110,168
2,36,110,744
2,36,110,1512
2,36,110,552
2,36,110,168
2,36,110,744
2,36,110,552
2,36,110,168
2,36,110,744
2,36,110,552
2,36,110,168
2,36,110,744
2,36,110,552
2,36,110,168
2,36,110,744
2,36,110,552
2,36,110,168
2,36,110,744
2,36,110,552
2,36,110,168
2,36,110,744
2,36,110,552
2,36,110,168
2,36,110,744
2,36,110,552
2,36,110,168
2,36,110,744
2,36,110,552
2,36,110,168
2,36,110,744
2,36,110,552
2,36,110,168
2,36,110,744
2,36,110,552
2,36,110,168
2,36,110,744
2,36,110,552
2,36,110,168
2,36,110,744
2,36,110,552
2,36,110,168
2,36,110,744
2,36,110,552
2,36,110,168
2,36,110,744
2,36,110,552
2,36,110,168
2,36,110,744
2,36,110,552
2,36,110,168
2,36,110,744
2,36,110,552
2,36,110,168
2,36,110,744
2,36,110,552
2,36,110,168
2,36,110,744
2,36,110,552
2,36,110,168
2,36,110,744
2,36,110,552
2,36,110,168
2,36,110,744
2,36,110,552
2,36,110,168
2,36,110,744
2,36,110,552
2,36,110,168
2,36,110,744
2,36,110,552
2,36,110,168
2,36,110,744
2,36,110,552
2,36,110,168
2,36,110,744
2,36,110,552
2,36,110,168
2,36,110,744
2,36,110,552
2,36,110,168
2,36,110,744
2,36,110,552
2,36,110,168
2,36,110,744
2,36,110,552
2,36,110,168
2,36,110,744
2,36,110,552
2,36,110,168
2,36,110,744
2,36,110,552
2,36,110,168
2,36,110,744
2,36,110,552
2,36,110,168
2,36,110,744
2,36,110,552
2,36,110,168
2,36,110,744
2,36,110,1512
2,36,110,552
2,36,110,168
2,36,110,744
2,36,110,552
2,36,110,168
2,36,110,744
2,36,110,552
2,36,110,168
2,36,110,744
2,36,110,552
2,36,110,168
2,36,110,744
2,36,110,552
2,36,110,168
2,36,110,744
2,36,110,552
2,36,110,168
2,36,110,744
2,36,110,552
2,36,110,168
2,36,110,744
2,36,110,552
2,36,110,168
2,36,110,744
2,36,110,552
2,36,110,168
2,36,110,744
2,36,110,552
2,36,110,168
2,36,110,744
2,36,110,552
2,36,110,168
2,36,110,744
2,36,110,552
2,36,110,168
2,36,110,744
2,36,110,552
2,36,110,168
2,36,110,744
2,36,110,552
2,36,110,168
2,36,110,744
2,36,110,552
2,36,110,168
2,36,110,744
2,36,110,744
2,36,110,744
2,36,110,552
2,36,110,168
2,36,110,744
2,36,110,552
2,36,110,168
2,36,110,744
2,36,110,552
2,36,110,168
2,36,110,744
2,36,110,552
2,36,110,168
2,36,110,744
2,36,110,552
2,36,110,168
2,36,110,744
2,36,110,552
2,36,110,168
2,36,110,744
2,36,110,552
2,36,110,168
2,36,110,744
2,36,110,552
2,36,110,168
2,36,110,744
2,36,110,552
2,36,110,168
2,36,110,744
2,36,110,552
2,36,110,168
2,36,110,744
2,36,110,552
2,36,110,168
2,36,110,744
2,36,110,552
2,36,110,168
2,36,110,744
2,36,110,552
2,36,110,168
2,36,110,744
2,36,110,552
2,36,110,168
2,36,110,744
2,36,110,552
2,36,110,168
2,36,110,744
2,36,110,552
2,36,110,168
2,36,110,744
2,36,110,552
2,36,110,168
2,36,110,744
3,38,95,4224
3,38,95,744
3,38,95,744
3,38,95,744
3,38,95,744
3,38,95,744
3,38,95,744
3,38,95,744
3,38,95,744
3,38,95,744
3,38,95,744
3,38,95,744
3,38,95,744
3,38,95,29928
3,38,95,744
3,38,95,744
3,38,95,744
3,38,95,744
3,38,95,744
3,38,95,744
3,38,95,744
3,38,95,744
3,38,95,744
3,38,95,744
3,38,95,744
3,38,95,744
3,38,95,744
3,38,95,744
3,38,95,744
3,38,95,744
3,38,95,744
3,38,95,744
3,38,95,744
3,38,95,744
3,38,95,744
3,38,95,744
3,38,95,744
3,38,95,744
3,38,95,744
3,38,95,744
3,38,95,744
3,38,95,29928
3,38,95,744
3,38,95,744
3,38,95,744
3,38,95,744
3,38,95,744
3,38,95,744
3,38,95,744
3,38,95,744
3,38,95,744
3,38,95,744
3,38,95,744
3,38,95,744
3,38,95,744
3,38,95,744
3,38,95,744
3,38,95,744
3,38,95,744
3,38,95,744
3,38,95,744
3,38,95,744
3,38,95,744
3,38,95,744
3,38,95,744
3,38,95,744
3,38,95,744
3,38,95,744
3,38,95,744
3,38,95,744
3,38,95,744
3,38,95,2280
3,38,95,744
3,38,95,744
3,38,95,744
3,38,95,744
3,38,95,744
3,38,95,744
3,38,95,744
3,38,95,744
3,38,95,744
3,38,95,744
3,38,95,744
3,38,95,744
3,38,95,744
3,38,95,744
3,38,95,744
3,38,95,744
3,38,95,744
3,38,95,744
3,38,95,744
3,38,95,744
3,38,95,744
3,38,95,744
3,38,95,744
3,38,95,744
3,38,95,744
3,38,95,744
3,38,95,744
3,38,95,744
3,38,95,744
3,38,95,744
3,38,95,744
3,38,95,744
4,42,96,4608
4,42,54,168
4,42,96,168
4,42,56,168
4,42,94,168
4,42,52,168
4,42,98,168
4,42,48,168
4,42,96,168
4,42,54,168
4,42,96,168
4,42,56,168
4,42,94,168
4,42,52,168
4,42,98,168
4,42,91,360
4,42,54,168
4,42,96,168
4,42,56,168
4,42,94,168
4,42,52,168
4,42,98,168
4,42,48,168
4,42,96,168
4,42,54,168
4,42,96,168
4,42,56,168
4,42,94,168
4,42,52,168
4,42,98,168
4,42,91,360
4,42,54,168
4,42,96,168
4,42,56,168
4,42,94,168
4,42,52,168
4,42,98,168
4,42,48,168
4,42,96,168
4,42,54,168
4,42,96,168
4,42,56,168
4,42,94,168
4,42,52,168
4,42,98,168
4,42,91,360
4,42,85,3048
4,42,85,360
4,42,85,360
4,42,85,360
4,42,85,360
4,42,85,360
4,42,85,360
4,42,85,360
4,42,85,360
4,42,85,360
4,42,85,360
4,42,85,360
4,42,85,360
4,42,85,360
4,42,85,360
4,42,85,360
4,42,85,360
4,42,85,360
4,42,85,360
4,42,85,360
4,42,85,360
4,42,85,360
4,42,85,360
4,42,85,360
4,42,85,360
4,42,85,360
4,42,85,360
4,42,85,360
4,42,85,360
4,42,85,360
4,42,85,360
4,42,85,360
4,42,96,360
4,42,54,168
4,42,96,168
4,42,56,168
4,42,94,168
4,42,52,168
4,42,98,168
4,42,48,168
4,42,96,168
4,42,54,168
4,42,96,168
4,42,56,168
4,42,94,168
4,42,52,168
4,42,98,168
4,42,91,360
4,42,54,168
4,42,96,168
4,42,56,168
4,42,94,168
4,42,52,168
4,42,98,168
4,42,48,168
4,42,96,168
4,42,54,168
4,42,96,168
4,42,56,168
4,42,94,168
4,42,52,168
4,42,98,168
4,42,96,360
4,42,54,168
4,42,96,168
4,42,56,168
4,42,94,168
4,42,52,168
4,42,98,168
4,42,48,168
4,42,96,168
4,42,54,168
4,42,96,168
4,42,56,168
4,42,94,168
4,42,52,168
4,42,98,168
4,42,91,360
4,42,54,168
4,42,96,168
4,42,56,168
4,42,94,168
4,42,52,168
4,42,98,168
4,42,48,168
4,42,96,168
4,42,54,168
4,42,96,168
4,42,56,168
4,42,94,168
4,42,52,168
4,42,98,168
4,42,58,168
4,42,96,1704
4,42,54,168
4,42,96,168
4,42,56,168
4,42,94,168
4,42,52,168
4,42,98,168
4,42,48,168
4,42,96,168
4,42,54,168
4,42,96,168
4,42,56,168
4,42,94,168
4,42,52,168
4,42,98,168
4,42,91,360
4,42,54,168
4,42,96,168
4,42,56,168
4,42,94,168
4,42,52,168
4,42,98,168
4,42,48,168
4,42,96,168
4,42,54,168
4,42,96,168
4,42,56,168
4,42,94,168
4,42,52,168
4,42,98,168
4,42,96,360
4,42,54,168
4,42,96,168
4,42,56,168
4,42,94,168
4,42,52,168
4,42,98,168
4,42,96,360
4,42,54,168
4,42,96,168
4,42,56,168
4,42,94,168
4,42,52,168
4,42,98,168
4,42,96,360
4,42,54,168
4,42,96,168
4,42,56,168
4,42,94,168
4,42,52,168
4,42,98,168
4,42,96,360
4,42,96,1512
4,42,54,168
4,42,96,168
4,42,56,168
4,42,94,168
4,42,52,168
4,42,98,168
4,42,48,168
4,42,96,168
4,42,54,168
4,42,96,168
4,42,56,168
4,42,94,168
4,42,52,168
4,42,98,168
4,42,91,360
4,42,54,168
4,42,96,168
4,42,56,168
4,42,94,168
4,42,52,168
4,42,98,168
4,42,48,168
4,42,96,168
4,42,54,168
4,42,96,168
4,42,56,168
4,42,94,168
4,42,52,168
4,42,98,168
4,42,91,360
4,42,54,168
4,42,96,168
4,42,56,168
4,42,94,168
4,42,52,168
4,42,98,168
4,42,48,168
4,42,96,168
4,42,54,168
4,42,96,168
4,42,56,168
4,42,94,168
4,42,52,168
4,42,98,168
4,42,91,360
4,42,85,3048
4,42,85,360
4,42,85,360
4,42,85,360
4,42,85,360
4,42,85,360
4,42,85,360
4,42,85,360
4,42,85,360
4,42,85,360
4,42,85,360
4,42,85,360
4,42,85,360
4,42,85,360
4,42,85,360
4,42,85,360
4,42,85,360
4,42,85,360
4,42,85,360
4,42,85,360
4,42,85,360
4,42,85,360
4,42,85,360
4,42,85,360
4,42,85,360
4,42,85,360
4,42,85,360
4,42,85,360
4,42,85,360
4,42,85,360
4,42,85,360
4,42,85,360
4,42,96,360
4,42,54,168
4,42,96,168
4,42,56,168
4,42,94,168
4,42,52,168
4,42,98,168
4,42,48,168
4,42,96,168
4,42,54,168
4,42,96,168
4,42,56,168
4,42,94,168
4,42,52,168
4,42,98,168
4,42,91,360
4,42,54,168
4,42,96,168
4,42,56,168
4,42,94,168
4,42,52,168
4,42,98,168
4,42,48,168
4,42,96,168
4,42,54,168
4,42,96,168
4,42,56,168
4,42,94,168
4,42,52,168
4,42,98,168
4,42,96,360
4,42,54,168
4,42,96,168
4,42,56,168
4,42,94,168
4,42,52,168
4,42,98,168
4,42,48,168
4,42,96,168
4,42,54,168
4,42,96,168
4,42,56,168
4,42,94,168
4,42,52,168
4,42,98,168
4,42,91,360
4,42,54,168
4,42,96,168
4,42,56,168
4,42,94,168
4,42,52,168
4,42,98,168
4,42,48,168
4,42,96,168
4,42,54,168
4,42,96,168
4,42,56,168
4,42,94,168
4,42,52,168
4,42,98,168
4,42,58,168
4,42,96,1704
4,42,54,168
4,42,96,168
4,42,56,168
4,42,94,168
4,42,52,168
4,42,98,168
4,42,48,168
4,42,96,168
4,42,54,168
4,42,96,168
4,42,56,168
4,42,94,168
4,42,52,168
4,42,98,168
4,42,91,360
4,42,54,168
4,42,96,168
4,42,56,168
4,42,94,168
4,42,52,168
4,42,98,168
4,42,48,168
4,42,96,168
4,42,54,168
4,42,96,168
4,42,56,168
4,42,94,168
4,42,52,168
4,42,98,168
4,42,96,360
4,42,54,168
4,42,96,168
4,42,56,168
4,42,94,168
4,42,52,168
4,42,98,168
4,42,96,360
4,42,54,168
4,42,96,168
4,42,56,168
4,42,94,168
4,42,52,168
4,42,98,168
4,42,96,360
4,42,54,168
4,42,96,168
4,42,56,168
4,42,94,168
4,42,52,168
4,42,98,168
4,42,96,360
4,42,96,1512
4,42,54,168
4,42,96,168
4,42,56,168
4,42,94,168
4,42,52,168
4,42,98,168
4,42,48,168
4,42,96,168
4,42,54,168
4,42,96,168
4,42,56,168
4,42,94,168
4,42,52,168
4,42,98,168
4,42,91,360
4,42,54,168
4,42,96,168
4,42,56,168
4,42,94,168
4,42,52,168
4,42,98,168
4,42,48,168
4,42,96,168
4,42,54,168
4,42,96,168
4,42,56,168
4,42,94,168
4,42,52,168
4,42,98,168
4,42,91,360
4,42,54,168
4,42,96,168
4,42,56,168
4,42,94,168
4,42,52,168
4,42,98,168
4,42,48,168
4,42,96,168
4,42,54,168
4,42,96,168
4,42,56,168
4,42,94,168
4,42,52,168
4,42,98,168
4,42,96,360
4,42,54,168
4,42,96,168
4,42,56,168
4,42,94,168
4,42,52,168
4,42,98,168
4,42,58,168
4,42,96,1704
4,42,54,168
4,42,96,168
4,42,56,168
4,42,94,168
4,42,52,168
4,42,98,168
4,42,48,168
4,42,96,168
4,42,54,168
4,42,96,168
4,42,56,168
4,42,94,168
4,42,52,168
4,42,98,168
4,42,91,360
4,42,54,168
4,42,96,168
4,42,56,168
4,42,94,168
4,42,52,168
4,42,98,168
4,42,48,168
4,42,96,168
4,42,54,168
4,42,96,168
4,42,56,168
4,42,94,168
4,42,52,168
4,42,98,168
4,42,96,360
4,42,54,168
4,42,96,168
4,42,56,168
4,42,94,168
4,42,52,168
4,42,98,168
4,42,96,360
4,42,54,168
4,42,96,168
4,42,56,168
4,42,94,168
4,42,52,168
4,42,98,168
4,42,96,360
4,42,54,168
4,42,96,168
4,42,56,168
4,42,94,168
4,42,52,168
4,42,98,168
4,42,96,360
4,42,96,1512
4,42,54,168
4,42,96,168
4,42,56,168
4,42,94,168
4,42,52,168
4,42,98,168
4,42,48,168
4,42,96,168
4,42,54,168
4,42,96,168
4,42,56,168
4,42,94,168
4,42,52,168
4,42,98,168
4,42,91,360
4,42,54,168
4,42,96,168
4,42,56,168
4,42,94,168
4,42,52,168
4,42,98,168
4,42,48,168
4,42,96,168
4,42,54,168
4,42,96,168
4,42,56,168
4,42,94,168
4,42,52,168
4,42,98,168
4,42,91,360
4,42,54,168
4,42,96,168
4,42,56,168
4,42,94,168
4,42,52,168
4,42,98,168
4,42,48,168
4,42,96,168
4,42,54,168
4,42,96,168
4,42,56,168
4,42,94,168
4,42,52,168
4,42,98,168
4,42,91,360
4,42,54,168
4,42,96,168
4,42,56,168
4,42,94,168
4,42,52,168
4,42,98,168
4,42,48,168
4,42,96,168
4,42,54,168
4,42,96,168
4,42,56,168
4,42,94,168
4,42,52,168
4,42,98,168
4,42,91,360
4,42,54,168
4,42,96,168
4,42,56,168
5,46,58,7488
5,46,58,3048
5,46,58,3048
5,46,70,6120
5,46,70,3048
5,46,70,3048
5,46,70,3048
5,46,58,3048
5,46,58,3048
5,46,58,3048
5,46,58,7656
5,46,58,3048
5,46,58,1512
5,46,58,1512
5,46,58,1512
5,46,58,4584
5,46,58,3048
5,46,58,3048
5,46,70,6120
5,46,70,3048
5,46,70,3048
5,46,70,3048
5,46,58,3048
5,46,58,3048
5,46,58,3048
5,46,58,7656
5,46,58,3048
5,46,58,1512
5,46,58,1512
5,46,58,1512
5,46,58,4584
5,46,58,3048
5,46,58,3048
5,46,58,6120
5,46,58,3048
5,46,58,1512
5,46,58,1512
5,46,58,1512
5,46,58,4584
5,46,58,3048
5,46,58,3048
5,46,58,3048
6,43,110,42432
6,43,110,168
6,43,110,11688
6,43,110,744
6,43,110,37992
6,43,110,168
6,43,110,11688
6,43,110,744
6,43,110,23784
6,43,110,744
7,41,122,4224
7,41,122,1512
7,41,122,1512
7,41,122,1512
7,41,122,1512
7,41,122,1512
7,41,122,1512
7,41,122,1512
7,41,122,1512
7,41,122,3048
7,41,122,3048
7,41,122,3048
7,41,122,3048
7,41,122,3048
7,41,122,3048
7,41,122,3048
7,41,122,3048
7,41,115,1704
7,41,115,72
7,41,122,1224
7,41,122,1512
7,41,122,1512
7,41,122,1512
7,41,122,1512
