track,note,velocity,time
1,49,70,667
1,64,83,0
1,61,90,0
1,56,73,0
1,37,88,1
1,54,73,42
1,63,89,1
1,59,89,1
1,64,77,41
1,61,80,1
1,56,73,0
1,56,80,27
1,59,103,50
1,61,113,46
1,33,84,2
1,45,76,0
1,61,94,0
1,56,88,1
1,64,91,1
1,63,97,41
1,54,84,1
1,59,96,2
1,57,77,66
1,61,85,1
1,52,70,0
1,52,77,16
1,59,105,48
1,57,105,47
1,61,97,3
1,57,98,0
1,30,97,1
1,42,84,0
1,52,79,1
1,57,96,32
1,61,99,1
1,64,98,1
1,32,88,82
1,63,88,1
1,61,93,0
1,44,84,0
1,56,83,1
1,68,101,55
1,63,95,0
1,61,93,1
1,45,62,4
1,64,72,0
1,33,59,1
1,61,90,0
1,63,95,47
1,59,86,1
1,57,61,4
1,61,63,1
1,37,90,3
1,49,84,0
1,56,82,1
1,64,89,0
1,61,92,1
1,54,83,51
1,59,90,2
1,63,96,0
1,64,77,53
1,56,76,1
1,61,85,0
1,56,78,11
1,59,99,49
1,61,109,48
1,45,83,1
1,64,98,0
1,33,87,1
1,61,103,0
1,56,92,1
1,63,98,50
1,54,87,0
1,59,95,2
1,61,83,62
1,57,80,0
1,52,71,1
1,52,77,26
1,59,104,47
1,57,86,49
1,61,88,93
1,42,77,0
1,57,88,1
1,52,74,0
1,30,84,0
1,64,100,121
1,66,107,84
1,61,94,0
1,32,90,0
1,44,72,1
1,63,94,1
1,56,84,0
1,68,102,117
1,63,101,34
1,56,82,1
1,37,77,35
1,56,91,0
1,49,82,2
1,61,100,0
1,64,91,1
1,59,91,55
1,66,101,1
1,56,91,0
1,63,94,1
1,68,79,83
1,61,84,0
1,56,69,0
1,64,81,1
1,56,88,33
1,49,93,47
1,59,108,34
1,61,112,48
1,56,101,39
1,49,99,4
1,52,89,26
1,56,82,0
1,64,98,0
1,40,88,0
1,59,99,1
1,63,99,31
1,59,87,3
1,66,102,0
1,68,92,45
1,59,76,1
1,64,76,1
1,59,94,10
1,52,93,48
1,61,94,31
1,71,108,13
1,64,88,3
1,57,95,0
1,45,83,0
1,61,103,1
1,33,89,1
1,66,96,0
1,63,97,1
1,59,84,1
1,68,100,1
1,61,99,45
1,64,89,2
1,57,75,0
1,59,76,50
1,61,97,46
1,71,105,48
1,66,107,3
1,42,88,20
1,30,97,1
1,61,93,133
1,54,75,0
1,57,82,1
1,61,94,77
1,57,74,1
1,64,93,0
1,44,90,48
1,61,103,0
1,63,95,1
1,56,98,0
1,32,100,1
1,68,108,118
1,63,97,28
1,56,90,3
1,57,91,2
1,64,94,1
1,61,97,0
1,33,87,0
1,45,80,0
1,52,80,22
1,57,95,7
1,63,107,19
1,59,104,0
1,57,82,95
1,59,111,48
1,57,110,3
1,33,98,6
1,61,105,1
1,45,93,1
1,64,101,0
1,57,105,0
1,57,91,45
1,63,113,32
1,66,115,1
1,59,108,0
1,63,109,54
1,35,100,1
1,47,89,0
1,59,101,0
1,66,109,1
1,59,99,46
1,64,103,5
1,61,107,0
1,30,101,0
1,42,90,0
1,57,95,1
1,61,107,60
1,68,105,146
1,66,113,10
1,59,99,0
1,63,108,0
1,35,100,1
1,47,94,1
1,59,96,63
1,30,102,1
1,61,100,1
1,42,84,0
1,57,89,0
1,64,92,1
1,61,99,54
1,68,105,143
1,35,101,0
1,66,110,0
1,59,101,1
1,63,108,0
1,47,94,0
1,59,101,73
1,30,104,99
1,64,93,0
1,61,102,0
1,57,94,1
1,42,90,1
1,61,103,42
1,32,113,5
1,44,105,0
1,33,101,48
1,45,98,0
1,64,108,1
1,57,105,0
1,61,110,0
1,54,105,47
1,63,110,0
1,59,110,2
1,61,112,42
1,45,96,1
1,33,103,2
1,57,104,0
1,64,108,0
1,59,107,64
1,63,112,2
1,66,115,1
1,40,99,2
1,66,112,1
1,59,101,1
1,63,112,0
1,52,94,1
1,68,109,13
1,64,110,1
1,59,105,0
1,66,110,16
1,40,110,1
1,59,104,2
1,63,112,0
1,52,90,1
1,68,108,15
1,59,100,0
1,64,100,1
1,66,118,47
1,64,104,4
1,45,91,17
1,64,104,1
1,68,108,0
1,61,110,0
1,33,96,1
1,61,109,6
1,68,110,0
1,64,105,1
1,59,100,11
1,66,105,0
1,63,105,0
1,33,100,1
1,45,95,1
1,68,112,42
1,61,108,0
1,64,107,0
1,57,110,23
1,61,112,1
1,30,113,0
1,66,112,1
1,42,94,0
1,61,112,7
1,57,101,0
1,66,109,0
1,61,113,51
1,57,107,5
1,32,103,5
1,63,105,0
1,61,104,0
1,44,91,1
1,56,97,0
1,63,104,18
1,56,103,2
1,61,113,0
1,49,97,1
1,37,95,1
1,56,98,1
1,61,102,0
1,64,96,0
1,63,97,46
1,54,88,1
1,59,99,0
1,64,86,48
1,56,86,0
1,61,93,0
1,64,93,7
1,56,97,1
1,61,98,0
1,45,82,0
1,33,99,0
1,63,101,56
1,59,100,1
1,54,87,1
1,61,91,52
1,52,78,1
1,57,89,0
1,61,90,134
1,64,87,0
1,37,88,0
1,49,82,1
1,68,81,0
1,59,73,36
1,63,88,1
1,66,92,1
1,68,102,1
1,64,75,44
1,61,86,0
1,56,70,0
1,64,89,125
1,33,74,0
1,61,88,0
1,68,93,1
1,45,71,0
1,63,94,70
1,66,96,1
1,59,79,0
1,68,94,21
1,57,67,48
1,61,90,2
1,64,79,0
1,57,82,111
1,61,89,49
1,64,105,12
1,57,94,1
1,54,89,34
1,42,83,0
1,30,89,1
1,61,96,0
1,57,98,1
1,61,100,50
1,64,96,146
1,32,98,60
1,61,99,0
1,63,92,0
1,44,81,1
1,56,86,0
1,59,104,18
1,68,105,71
1,63,94,52
1,37,82,56
1,49,82,1
1,64,80,1
1,56,77,0
1,61,99,0
1,59,86,68
1,66,98,1
1,63,101,0
1,68,88,73
1,64,82,0
1,61,86,2
1,66,98,40
1,59,83,1
1,63,91,0
1,66,102,33
1,68,97,27
1,64,103,1
1,61,86,1
1,64,98,19
1,71,110,50
1,68,105,3
1,64,99,3
1,59,86,0
1,40,63,0
1,52,80,1
1,59,58,45
1,66,94,0
1,63,96,2
1,59,87,45
1,56,70,1
1,64,95,1
1,68,108,58
1,66,109,96
1,68,105,72
1,45,82,0
1,64,100,1
1,33,84,1
1,61,103,1
1,63,98,47
1,59,82,2
1,66,96,0
1,61,91,42
1,57,76,0
1,64,79,2
1,59,78,50
1,57,82,46
1,64,105,42
1,59,94,0
1,54,88,40
1,61,100,0
1,57,101,1
1,42,88,0
1,30,95,1
1,54,94,46
1,64,99,48
1,59,90,29
1,63,99,3
1,56,88,0
1,44,85,10
1,32,97,0
1,52,75,68
1,57,89,0
1,45,81,0
1,61,88,1
1,33,78,0
1,63,98,44
1,59,94,1
1,54,90,1
1,63,98,42
1,59,101,0
1,54,92,1
1,61,108,5
1,64,99,0
1,57,95,2
1,66,110,58
1,63,108,0
1,59,99,0
1,63,108,42
1,59,108,35
1,57,96,3
1,59,104,39
1,40,100,0
1,54,97,0
1,52,85,0
1,63,100,1
1,56,104,9
1,64,107,1
1,59,107,0
1,59,121,14
1,63,105,0
1,40,94,0
1,52,84,0
1,54,100,2
1,59,108,46
1,64,110,0
1,56,107,2
1,59,107,20
1,66,113,48
1,61,107,47
1,33,98,0
1,64,117,1
1,45,93,0
1,68,110,1
1,68,107,23
1,64,107,1
1,61,109,0
1,33,121,9
1,66,107,0
1,63,107,1
1,59,101,1
1,45,96,0
1,61,103,7
1,64,100,2
1,68,109,0
1,30,101,10
1,57,105,1
1,66,107,0
1,61,121,1
1,42,90,0
1,66,108,5
1,61,108,1
1,57,96,1
1,57,81,7
1,61,104,24
1,66,110,24
1,61,103,23
1,44,94,7
1,63,103,0
1,61,104,2
1,32,99,0
1,56,88,1
1,63,109,26
1,56,101,0
1,61,113,0
1,64,105,15
1,49,98,1
1,37,99,0
1,56,102,0
1,61,113,1
1,66,108,74
1,59,98,1
1,63,108,1
1,68,102,47
1,61,101,0
1,64,100,0
1,59,84,43
1,61,101,48
1,68,115,49
1,61,98,2
1,57,92,5
1,64,105,0
1,61,104,1
1,45,84,0
1,33,84,1
1,54,94,65
1,59,98,2
1,63,100,0
1,52,74,4
1,61,96,1
1,57,91,0
1,52,88,27
1,59,89,24
1,57,111,11
1,61,104,1
1,52,92,1
1,57,108,0
1,64,96,28
1,37,99,0
1,49,100,0
1,61,98,0
1,56,90,0
1,59,101,27
1,63,94,0
1,54,90,0
1,61,94,13
1,52,76,0
1,56,93,1
1,56,95,11
1,59,88,1
1,52,82,2
1,59,100,11
1,52,81,0
1,56,101,2
1,52,107,21
1,56,94,6
1,61,101,1
1,64,87,1
1,56,103,12
1,33,92,1
1,64,98,0
1,45,90,1
1,61,105,0
1,59,98,11
1,63,103,0
1,54,92,2
1,59,90,3
1,63,113,48
1,59,98,44
1,61,99,4
1,57,96,1
1,52,78,1
1,59,104,4
1,63,105,0
1,54,96,1
1,64,111,5
1,57,111,1
1,61,125,0
1,63,112,44
1,66,113,0
1,59,111,1
1,47,107,33
1,35,104,1
1,59,105,38
1,57,99,2
1,42,91,0
1,61,101,1
1,30,99,0
1,54,93,0
1,61,112,42
1,35,86,84
1,59,96,0
1,63,107,1
1,66,108,0
1,47,88,0
1,59,94,37
1,30,98,115
1,61,100,1
1,42,90,0
1,57,104,0
1,54,93,0
1,61,100,40
1,35,89,1
1,47,83,0
1,59,89,0
1,63,103,1
1,66,105,0
1,59,100,39
1,42,88,0
1,54,86,0
1,61,101,1
1,57,104,0
1,30,91,1
1,61,109,28
1,44,112,1
1,32,115,1
1,61,109,45
1,45,99,1
1,57,101,0
1,64,110,0
1,33,95,1
1,54,91,45
1,59,100,1
1,63,104,0
1,64,111,73
1,61,113,0
1,57,110,2
1,66,115,57
1,63,115,1
1,59,108,1
1,59,90,42
1,52,93,1
1,66,103,1
1,63,107,0
1,40,84,0
1,64,100,10
1,68,108,1
1,59,99,0
1,52,90,19
1,40,98,0
1,66,109,1
1,59,99,0
1,63,109,0
1,68,116,28
1,59,105,0
1,64,100,1
1,66,116,40
1,64,89,3
1,61,109,10
1,45,108,0
1,68,112,0
1,33,107,1
1,64,103,0
1,68,105,11
1,64,96,1
1,61,103,0
1,45,84,12
1,59,93,2
1,33,92,0
1,66,107,0
1,63,107,0
1,68,107,23
1,61,104,0
1,64,93,0
1,57,99,11
1,66,109,0
1,30,95,0
1,42,88,1
1,61,115,0
1,57,95,3
1,66,108,0
1,61,105,1
1,61,110,44
1,57,89,3
1,56,99,7
1,61,102,0
1,32,105,0
1,63,100,1
1,44,89,0
1,63,105,17
1,61,105,0
1,56,100,1
1,49,84,6
1,61,97,2
1,37,86,0
1,56,90,0
1,64,87,2
1,66,105,68
1,59,93,1
1,63,108,0
1,63,102,1
1,59,91,0
1,66,108,0
1,61,102,40
1,49,97,1
1,64,94,0
1,56,91,1
1,37,98,0
1,63,109,39
1,66,108,1
1,59,95,1
1,63,113,44
1,59,101,0
1,66,112,1
1,40,89,51
1,66,98,0
1,52,80,0
1,63,89,1
1,71,99,0
1,64,89,32
1,68,105,2
1,71,99,0
1,64,103,4
1,71,92,5
1,71,107,12
1,63,104,0
1,40,103,0
1,52,94,1
1,66,108,1
1,68,102,12
1,71,98,1
1,64,98,1
1,66,110,52
1,64,83,0
1,68,105,3
1,64,89,0
1,45,89,1
1,61,99,1
1,33,90,1
1,61,99,31
1,68,105,0
1,64,105,0
1,33,90,13
1,63,102,0
1,66,103,0
1,59,93,1
1,45,85,1
1,61,105,22
1,64,94,1
1,68,105,0
1,66,102,60
1,63,102,0
1,59,93,1
1,61,107,2
1,57,90,1
1,42,107,0
1,66,107,1
1,30,123,0
1,57,95,31
1,61,107,0
1,66,109,1
1,44,84,12
1,61,108,0
1,56,97,1
1,32,98,1
1,63,105,0
1,63,104,5
1,56,95,1
1,61,110,1
1,56,97,51
1,63,101,0
1,61,108,1
1,64,86,7
1,56,88,1
1,49,89,0
1,37,86,1
1,61,101,1
1,59,90,45
1,63,96,2
1,54,84,1
1,64,83,44
1,56,86,1
1,61,98,0
1,61,108,41
1,61,101,5
1,56,92,0
1,64,95,1
1,45,82,1
1,33,81,0
1,54,88,4
1,63,104,0
1,59,103,1
1,52,76,59
1,61,88,0
1,57,84,1
1,52,82,39
1,59,101,1
1,57,107,45
1,59,104,41
1,52,82,0
1,30,90,0
1,61,100,1
1,57,98,0
1,42,82,0
1,64,96,126
1,57,91,91
1,64,98,0
1,66,101,8
1,33,98,5
1,45,82,0
1,68,109,2
1,66,107,16
1,64,104,36
1,63,105,4
1,47,82,41
1,35,85,1
1,59,89,0
1,63,104,68
1,59,91,2
1,61,88,1
1,37,69,0
1,52,69,0
1,56,85,0
1,49,81,1
2,37,89,662
2,33,100,5
2,30,100,769
2,32,98,6
2,33,92,382
2,37,84,6
2,33,86,2
2,30,94,9
2,32,95,0
2,37,83,2
2,28,87,2
2,33,79,13
2,30,95,768
2,32,95,381
2,33,89,2
2,33,77,4
2,35,96,13
2,35,85,16
2,35,97,23
2,30,103,11
2,30,89,23
2,30,98,23
2,35,93,27
2,35,97,25
2,35,98,16
2,35,91,27
2,37,94,0
2,30,97,25
2,30,106,25
2,30,105,24
2,35,101,28
2,35,104,27
2,35,100,19
2,30,98,27
2,30,105,30
2,30,105,22
2,32,102,96
2,33,101,7
2,33,104,15
2,33,93,23
2,33,96,16
2,33,103,16
2,33,112,15
2,33,104,14
2,28,104,49
2,28,96,18
2,28,108,24
2,28,97,23
2,28,106,21
2,28,96,23
2,28,97,24
2,28,104,25
2,28,104,20
2,28,101,22
2,28,108,24
2,28,106,27
2,28,100,19
2,28,104,22
2,28,101,21
2,28,104,19
2,33,110,21
2,33,89,25
2,33,94,20
2,33,96,22
2,33,103,22
2,33,96,22
2,33,101,25
2,33,89,20
2,33,103,26
2,33,89,24
2,33,96,23
2,33,96,24
2,33,96,21
2,33,96,26
2,33,106,25
2,33,100,23
2,30,105,15
2,30,85,24
2,30,106,23
2,30,108,22
2,30,108,23
2,30,98,22
2,30,105,17
2,30,97,22
2,32,106,22
2,32,86,18
2,32,105,21
2,32,94,20
2,32,105,22
2,32,101,24
2,32,114,18
2,32,113,24
2,37,97,23
2,39,97,2
2,40,96,3
2,47,83,49
2,33,98,238
2,37,98,29
2,37,92,22
2,37,90,24
2,37,97,18
2,37,111,24
2,37,87,20
2,37,101,23
2,37,93,19
2,37,105,22
2,37,100,22
2,37,106,22
2,37,89,21
2,37,97,22
2,37,93,19
2,37,106,20
2,37,96,24
2,33,98,22
2,33,87,23
2,33,91,25
2,33,88,22
2,33,97,24
2,33,96,22
2,33,100,24
2,33,82,24
2,33,92,27
2,33,77,23
2,33,106,24
2,33,91,22
2,33,97,25
2,33,86,22
2,33,94,26
2,33,88,25
2,30,100,24
2,30,90,19
2,30,98,21
2,30,85,23
2,30,105,25
2,30,85,18
2,30,95,25
2,30,100,22
2,32,102,18
2,32,88,20
2,32,106,20
2,32,89,22
2,32,93,24
2,32,96,20
2,32,111,25
2,32,91,22
2,37,95,24
2,37,87,14
2,37,93,22
2,37,88,21
2,37,102,25
2,37,91,21
2,37,95,23
2,37,85,25
2,37,97,23
2,37,95,22
2,37,105,24
2,37,96,22
2,37,106,24
2,37,87,23
2,37,113,22
2,37,95,23
2,28,106,24
2,28,87,23
2,28,103,29
2,28,83,24
2,28,94,28
2,28,85,22
2,28,101,27
2,28,89,21
2,28,106,24
2,28,103,22
2,28,108,26
2,28,92,22
2,28,101,19
2,28,98,25
2,28,110,23
2,28,94,21
2,33,103,25
2,33,86,20
2,33,106,27
2,33,96,21
2,33,100,25
2,33,86,22
2,33,96,26
2,33,96,22
2,33,93,26
2,33,96,23
2,33,104,28
2,33,85,25
2,33,100,29
2,33,92,23
2,33,101,29
2,33,98,22
2,30,111,23
2,30,92,24
2,30,97,24
2,30,92,25
2,30,101,26
2,30,100,20
2,30,106,25
2,30,98,19
2,32,105,24
