track,note,velocity,time
1,87,68,1154
1,88,56,188
1,95,69,187
1,90,75,193
1,88,51,1147
1,92,82,190
1,90,81,200
1,83,62,374
1,87,76,581
1,88,63,192
1,95,69,186
1,90,76,187
1,88,56,1153
1,92,72,197
1,90,83,181
1,95,80,388
1,87,75,575
1,88,69,187
1,95,67,186
1,90,80,192
1,88,61,1160
1,92,78,188
1,90,76,185
1,83,66,381
1,87,81,584
1,88,70,183
1,95,68,193
1,90,76,190
1,88,66,581
1,90,67,191
1,100,71,23414
1,99,80,195
1,95,85,191
1,97,76,383
1,93,83,379
1,92,81,386
1,88,72,194
1,88,90,187
1,85,77,378
1,92,87,199
1,90,76,181
1,88,75,97
1,90,95,98
1,83,71,572
1,92,87,2116
1,90,76,185
1,88,81,97
1,90,87,95
1,83,80,568
1,92,84,2121
1,90,77,183
1,88,83,98
1,90,90,90
1,83,81,581
1,87,75,14780
1,88,69,187
1,95,67,186
1,90,80,192
1,88,61,1160
1,92,78,188
1,90,76,185
1,83,66,381
1,87,81,584
1,88,70,183
1,95,68,193
1,90,76,190
1,88,66,581
1,90,67,191
1,100,74,11130
1,99,85,185
1,95,73,200
1,97,79,377
1,92,76,380
1,90,76,383
1,95,83,198
1,92,91,189
1,90,68,380
1,95,77,191
1,92,87,191
1,90,77,33985
1,85,75,188
1,90,76,187
1,83,64,199
1,90,79,183
1,85,76,194
1,90,81,193
1,83,62,185
1,90,76,190
1,85,71,195
1,90,76,191
1,83,52,191
1,90,78,191
1,85,55,193
1,90,76,187
1,95,76,191
1,90,83,189
1,85,76,197
1,90,74,183
1,83,56,190
1,90,74,200
1,85,72,183
1,90,77,194
1,83,62,186
1,90,79,191
1,85,68,193
1,90,65,194
1,83,60,190
1,90,82,191
1,85,59,188
1,90,69,191
1,95,78,184
1,90,83,192
1,85,64,194
1,90,75,190
1,83,59,191
1,90,81,195
1,85,65,181
1,90,71,196
1,83,63,188
1,90,78,192
1,85,58,195
1,90,70,181
1,83,61,199
1,90,82,193
1,85,60,185
1,90,74,194
1,95,74,183
1,87,68,24774
1,88,56,188
1,95,69,187
1,90,75,193
1,88,51,1147
1,92,82,190
1,90,81,200
1,83,62,374
1,87,76,581
1,88,63,192
1,95,69,186
1,90,76,187
1,88,56,1153
1,92,72,197
1,90,83,181
1,95,80,388
1,87,75,571
1,88,72,199
1,95,69,191
1,90,82,185
1,88,71,577
1,90,80,191
1,92,80,184
1,90,78,196
1,88,71,187
1,87,73,191
1,90,83,190
1,88,72,195
1,87,84,195
1,83,73,189
1,85,83,189
2,37,78,1148
2,33,89,20
2,30,89,3078
2,32,87,26
2,33,81,1528
2,37,73,26
2,33,75,8
2,30,83,38
2,32,84,0
2,37,72,6
2,28,76,10
2,33,68,50
2,30,84,3072
2,32,84,1526
2,33,78,10
2,33,66,16
2,35,85,50
2,35,74,62
2,35,86,92
2,30,92,44
2,30,78,90
2,30,87,92
2,35,82,110
2,35,86,102
2,35,87,64
2,35,80,108
2,37,83,94
2,30,86,98
2,30,95,98
2,30,94,94
2,35,90,112
2,35,93,108
2,35,89,76
2,30,87,108
2,30,94,122
2,30,94,88
2,32,91,386
2,33,90,30
2,33,93,62
2,33,82,94
2,33,85,64
2,33,92,64
2,33,101,60
2,33,93,56
2,28,93,196
2,28,85,72
2,28,97,96
2,28,86,94
2,28,95,86
2,28,85,92
2,28,86,96
2,28,93,102
2,28,93,80
2,28,90,88
2,28,97,98
2,28,95,106
2,28,89,76
2,28,93,90
2,28,90,84
2,28,93,78
2,33,99,84
2,33,78,100
2,33,83,82
2,33,85,88
2,33,92,86
2,33,85,88
2,33,90,100
2,33,78,82
2,33,92,104
2,33,78,94
2,33,85,92
2,33,85,94
2,33,85,86
2,33,85,104
2,33,95,102
2,33,89,92
2,30,94,62
2,30,74,98
2,30,95,92
2,30,97,90
2,30,97,92
2,30,87,88
2,30,94,70
2,30,86,88
2,32,95,88
2,32,75,74
2,32,94,86
2,32,83,82
2,32,94,88
2,32,90,96
2,32,103,74
2,32,102,94
2,37,86,92
2,39,86,8
2,40,85,12
2,47,72,196
2,33,87,954
2,37,87,114
2,37,81,88
2,37,79,96
2,37,86,72
2,37,100,96
2,37,76,78
2,37,90,92
2,37,82,78
2,37,94,90
2,37,89,88
2,37,95,88
2,37,78,84
2,37,86,88
2,37,82,76
2,37,95,80
2,37,85,98
2,33,87,88
2,33,76,92
2,33,80,98
2,33,77,88
2,33,86,94
2,33,85,86
2,33,89,96
2,33,71,96
2,33,81,106
2,33,66,94
2,33,95,98
2,33,80,90
2,33,86,102
2,33,75,86
2,33,83,104
2,33,77,98
2,30,89,98
2,30,79,78
2,30,87,86
2,30,74,92
2,30,94,98
2,30,74,74
2,30,84,100
2,30,89,90
2,32,91,72
2,32,77,82
2,32,95,82
2,32,78,86
2,32,82,94
2,32,85,78
2,32,100,100
2,32,80,86
2,37,84,96
2,37,76,54
2,37,82,86
2,37,77,84
2,37,91,100
2,37,80,86
2,37,84,92
2,37,74,102
2,37,86,92
2,37,84,88
2,37,94,96
2,37,85,86
2,37,95,96
2,37,76,92
2,37,102,90
2,37,84,94
2,28,95,98
2,28,76,90
2,28,92,116
2,28,72,94
2,28,83,114
2,28,74,90
2,28,90,108
2,28,78,86
2,28,95,96
2,28,92,88
2,28,97,106
2,28,81,90
2,28,90,76
2,28,87,100
2,28,99,94
2,28,83,84
2,33,92,100
2,33,75,80
2,33,95,108
2,33,85,84
2,33,89,100
2,33,75,90
2,33,85,106
2,33,85,88
2,33,82,104
2,33,85,92
2,33,93,112
2,33,74,98
2,33,89,116
2,33,81,92
2,33,90,118
2,33,87,86
2,30,100,92
2,30,81,96
2,30,86,96
2,30,81,100
2,30,90,102
2,30,89,80
2,30,95,102
2,30,87,76
2,32,94,96
2,32,76,82
2,32,98,96
2,32,70,92
2,32,91,96
2,32,89,80
2,32,94,94
2,32,77,96
2,33,89,80
2,33,66,118
2,33,82,104
2,33,75,94
2,33,89,112
2,33,85,96
2,33,87,106
2,33,78,94
2,33,93,106
2,33,86,90
2,33,97,92
2,33,85,94
2,33,93,98
2,33,90,106
2,33,101,104
2,33,101,92
2,28,92,88
2,28,82,54
2,28,99,92
2,28,80,92
2,28,92,82
2,28,83,82
2,28,97,100
2,28,78,72
2,28,92,88
2,28,76,90
2,28,95,92
2,28,87,82
2,28,99,92
2,28,74,80
2,28,99,92
2,28,85,80
2,33,95,100
2,33,82,94
2,33,89,92
2,33,83,82
2,33,81,82
2,33,81,86
2,33,89,86
2,33,85,94
2,33,92,94
2,33,87,100
2,33,90,78
2,33,82,96
2,33,87,96
2,33,87,80
2,33,95,78
2,33,86,96
2,30,98,84
2,30,94,88
2,30,102,86
2,30,80,102
2,30,94,78
2,30,77,86
2,30,97,106
2,30,87,72
2,32,98,80
2,32,76,116
2,32,98,90
2,32,92,76
2,32,89,90
2,32,90,90
2,32,92,80
2,32,92,94
2,37,100,90
2,37,81,74
2,37,89,84
2,37,89,90
2,37,94,88
2,37,91,76
2,37,92,90
2,37,82,78
2,37,94,94
2,37,79,76
2,37,97,92
2,37,73,54
2,37,86,86
2,37,85,98
2,37,98,86
2,37,94,92
2,33,86,76
2,33,90,74
2,33,87,108
2,33,68,108
2,33,82,92
2,33,87,90
2,33,92,92
2,33,73,94
2,33,97,108
2,33,78,96
2,33,93,94
2,33,80,90
2,33,81,96
2,33,81,98
2,33,82,94
2,33,93,104
2,37,97,80
2,37,84,112
2,37,91,106
2,37,78,96
2,37,90,92
2,37,86,90
2,37,91,92
2,37,85,88
2,37,91,84
2,37,81,92
2,37,92,86
2,37,84,84
2,37,97,94
2,37,90,88
2,37,100,88
2,37,86,88
2,33,92,76
2,33,76,106
2,33,82,100
2,33,73,102
2,33,93,108
2,33,87,90
2,33,86,104
2,33,82,100
2,33,80,96
2,33,77,110
2,33,89,96
2,33,93,100
2,33,95,100
2,33,90,106
2,33,93,100
2,33,92,88
2,35,93,104
2,35,93,100
2,35,99,78
2,30,97,12
2,30,97,104
2,30,91,104
2,35,97,84
2,35,93,158
2,35,97,80
2,30,97,56
2,30,94,136
2,30,94,102
2,35,89,4
2,37,76,98
2,35,99,86
2,35,92,156
2,35,95,80
2,30,97,120
2,30,95,144
2,30,92,112
2,32,98,190
2,33,95,52
2,33,66,64
2,33,87,82
2,33,69,82
2,33,86,86
2,33,78,76
2,33,87,82
2,33,77,82
2,33,92,84
2,33,65,52
2,33,92,84
2,33,82,74
2,33,89,100
2,33,95,66
2,33,97,86
2,33,95,84
2,28,93,74
2,28,85,62
2,28,101,76
2,28,86,88
2,28,95,84
2,28,85,74
2,28,86,74
2,28,73,76
2,28,101,84
2,28,68,72
2,28,97,72
2,28,78,78
2,28,92,90
2,28,83,72
2,28,86,78
2,28,77,86
2,33,86,90
2,33,97,90
2,33,95,92
2,33,87,90
2,33,85,66
2,33,86,96
2,33,90,100
2,33,78,96
2,33,93,104
2,33,87,98
2,33,92,90
2,33,86,88
2,33,90,96
2,33,87,76
2,33,93,78
2,33,87,84
2,30,94,82
2,30,72,94
2,30,102,86
2,30,83,84
2,30,92,78
2,30,83,96
2,30,91,62
2,30,85,82
2,32,95,80
2,32,85,96
2,32,105,82
2,32,91,82
2,32,90,96
2,32,83,90
2,32,92,100
2,32,85,90
2,37,85,108
2,37,80,62
2,37,102,92
2,37,92,84
2,37,83,86
2,37,76,90
2,37,87,74
2,37,80,94
2,37,91,92
2,37,85,82
2,37,84,90
2,37,83,70
2,37,94,86
2,37,92,90
2,37,100,92
2,37,95,88
2,28,95,86
2,28,86,96
2,28,95,96
2,28,80,92
2,28,99,108
2,28,89,84
2,28,97,98
2,28,77,90
2,28,97,98
2,28,74,104
2,28,97,94
2,28,87,90
2,28,87,98
2,28,92,100
2,28,85,90
2,28,90,98
2,33,95,96
2,33,77,86
2,33,85,98
2,33,77,94
2,33,89,86
2,33,83,98
2,33,86,86
2,33,81,72
2,33,89,76
2,33,80,92
2,33,87,96
2,33,87,84
2,33,78,100
2,33,86,92
2,33,87,90
2,33,86,92
2,30,90,92
2,30,105,92
2,30,95,100
2,30,94,86
2,30,90,74
2,30,89,74
2,30,95,80
2,30,89,82
2,32,89,96
2,32,92,108
2,32,98,88
2,32,90,102
2,32,100,88
2,32,98,92
2,32,105,92
2,32,100,90
2,37,105,104
2,39,90,18
2,40,93,188
2,47,87,178
2,33,87,14
2,30,89,0
2,33,85,22
2,35,87,772
2,37,86,746
3,49,52,1146
3,64,65,2
3,61,72,2
3,56,55,2
3,37,70,2
3,54,55,170
3,63,71,4
3,59,71,4
3,64,59,164
3,61,62,2
3,56,55,0
3,56,62,106
3,59,85,202
3,61,95,184
3,33,66,6
3,45,58,0
3,61,76,2
3,56,70,4
3,64,73,4
3,63,79,166
3,54,66,4
3,59,78,6
3,57,59,262
3,61,67,4
3,52,52,0
3,52,59,64
3,59,87,192
3,57,87,188
3,61,79,10
3,57,80,2
3,30,79,4
3,42,66,0
3,52,61,2
3,57,78,126
3,61,81,6
3,64,80,2
3,32,70,326
3,63,70,6
3,61,75,0
3,44,66,0
3,56,65,4
3,68,83,220
3,63,77,2
3,61,75,2
3,45,44,14
3,64,54,2
3,33,41,2
3,61,72,2
3,63,77,190
3,59,68,2
3,57,43,16
3,61,45,6
3,37,72,10
3,49,66,0
3,56,64,6
3,64,71,0
3,61,74,2
3,54,65,204
3,59,72,8
3,63,78,2
3,64,59,210
3,56,58,4
3,61,67,2
3,56,60,44
3,59,81,198
3,61,91,192
3,45,65,4
3,64,80,2
3,33,69,2
3,61,85,2
3,56,74,4
3,63,80,200
3,54,69,0
3,59,77,6
3,61,65,248
3,57,62,0
3,52,53,6
3,52,59,106
3,59,86,188
3,57,68,196
3,61,70,374
3,42,59,0
3,57,70,2
3,52,56,2
3,30,66,0
3,64,82,482
3,66,89,334
3,61,76,0
3,32,72,2
3,44,54,4
3,63,76,4
3,56,66,0
3,68,84,468
3,63,83,138
3,56,64,4
3,37,59,140
3,56,73,0
3,49,64,6
3,61,82,2
3,64,73,2
3,59,73,220
3,66,83,4
3,56,73,0
3,63,76,4
3,68,61,330
3,61,66,2
3,56,51,0
3,64,63,2
3,56,70,130
3,49,75,188
3,59,90,136
3,61,94,192
3,56,83,158
3,49,81,18
3,52,71,102
3,56,64,2
3,64,80,0
3,40,70,2
3,40,67,0
3,64,75,1
3,59,81,0
3,56,84,2
3,52,54,0
3,59,75,0
3,63,81,270
3,59,69,12
3,66,84,0
3,68,74,182
3,59,58,4
3,64,58,4
3,59,76,122
3,52,75,192
3,61,76,124
3,71,90,52
3,64,70,10
3,57,77,0
3,45,65,2
3,61,85,4
3,33,71,2
3,66,78,0
3,63,79,4
3,59,66,2
3,68,82,4
3,61,81,182
3,64,71,6
3,57,57,2
3,59,58,200
3,61,79,184
3,71,87,194
3,66,89,14
3,42,70,78
3,30,79,4
3,61,75,534
3,54,57,0
3,57,64,4
3,61,76,308
3,57,56,2
3,64,75,2
3,44,72,194
3,61,85,0
3,63,77,4
3,56,80,0
3,32,82,6
3,68,90,474
3,63,79,114
3,56,72,12
3,57,73,10
3,64,76,2
3,61,79,0
3,33,69,2
3,45,62,0
3,52,62,86
3,57,77,30
3,63,89,74
3,59,86,0
3,57,64,382
3,59,93,190
3,57,92,10
3,33,80,24
3,61,87,6
3,45,75,2
3,64,83,0
3,57,87,2
3,57,73,180
3,63,95,128
3,66,97,2
3,59,90,2
3,63,91,216
3,35,82,2
3,47,71,0
3,59,83,2
3,66,91,2
3,59,81,184
3,64,85,20
3,61,89,0
3,30,83,2
3,42,72,0
3,57,77,2
3,61,89,240
3,68,87,582
3,66,95,40
3,59,81,0
3,63,90,0
3,35,82,2
3,47,76,4
3,59,78,252
3,30,84,4
3,61,82,6
3,42,66,0
3,57,71,0
3,64,74,2
3,61,81,216
3,68,87,570
3,35,83,2
3,66,92,0
3,59,83,2
3,63,90,0
3,47,76,0
3,59,83,292
3,30,86,394
3,64,75,2
3,61,84,0
3,57,76,2
3,42,72,6
3,61,85,168
3,32,95,20
3,44,87,2
3,33,83,190
3,45,80,2
3,64,90,2
3,57,87,2
3,61,92,0
3,54,87,186
3,63,92,2
3,59,92,8
3,61,94,170
3,45,78,4
3,33,85,6
3,57,86,0
3,64,90,2
3,59,89,256
3,63,94,6
3,66,97,6
3,40,81,6
3,66,94,4
3,59,83,6
3,63,94,0
3,52,76,2
3,68,91,52
3,64,92,4
3,59,87,0
3,66,92,66
3,40,92,4
3,59,86,8
3,63,94,0
3,52,72,2
3,68,90,60
3,59,82,2
3,64,82,4
3,66,100,186
3,64,86,14
3,45,73,68
3,64,86,2
3,68,90,2
3,61,92,0
3,33,78,4
3,61,91,24
3,68,92,0
3,64,87,2
3,59,82,44
3,66,87,0
3,63,87,2
3,33,82,2
3,45,77,4
3,68,94,168
3,61,90,2
3,64,89,0
3,57,92,92
3,61,94,4
3,30,95,0
3,66,94,2
3,42,76,2
3,61,94,26
3,57,83,0
3,66,91,2
3,61,95,206
3,57,89,20
3,32,85,18
3,63,87,0
3,61,86,2
3,44,73,4
3,56,79,0
3,63,86,72
3,56,85,6
3,61,95,0
3,49,79,6
3,37,77,2
3,56,80,4
3,61,84,0
3,64,78,2
3,63,79,186
3,54,70,4
3,59,81,0
3,64,68,194
3,56,68,0
3,61,75,0
3,64,75,26
3,56,79,4
3,61,80,2
3,45,64,0
3,33,81,0
3,63,83,226
3,59,82,4
3,54,69,2
3,61,73,208
3,52,60,2
3,57,71,2
3,61,72,534
3,64,69,0
3,37,70,2
3,49,64,2
3,68,63,2
3,59,55,144
3,63,70,2
3,66,74,6
3,68,84,6
3,64,57,178
3,61,68,0
3,56,52,0
3,64,71,498
3,33,56,2
3,61,70,0
3,68,75,4
3,45,53,0
3,63,76,278
3,66,78,4
3,59,61,2
3,68,76,86
3,57,49,192
3,61,72,6
3,64,61,2
3,57,64,444
3,61,71,198
3,64,87,48
3,57,76,2
3,54,71,136
3,42,65,0
