track,note,velocity,time
1,49,117,0
1,56,99,2
1,61,86,10
1,49,100,4
1,56,74,6
1,49,115,4
1,56,104,0
1,61,98,12
1,49,115,0
1,56,101,6
1,61,92,10
1,49,109,0
1,59,30,0
1,56,103,4
1,59,97,2
1,61,56,0
1,49,97,0
1,56,70,0
1,49,100,0
1,56,100,0
1,61,90,8
1,49,99,0
1,56,56,0
1,49,115,0
1,56,103,0
1,61,95,8
1,48,78,0
1,45,103,0
1,52,105,6
1,57,98,14
1,45,103,4
1,52,75,2
1,45,94,0
1,52,87,0
1,57,68,20
1,45,100,0
1,52,68,0
1,45,105,0
1,52,91,0
1,57,70,10
1,45,109,0
1,52,96,4
1,57,81,8
1,45,100,6
1,52,85,4
1,57,69,4
1,57,88,194
1,52,73,0
1,45,72,0
1,45,77,177
1,52,71,0
1,57,102,0
1,45,64,2
1,52,70,4
1,57,103,10
1,45,79,178
1,52,92,0
1,57,94,0
1,57,84,0
1,52,80,0
1,45,71,0
1,49,114,0
1,56,103,0
1,61,94,8
1,49,103,10
1,49,108,0
1,56,101,0
1,61,92,8
1,56,81,2
1,49,84,0
1,49,113,0
1,56,101,0
1,61,87,10
1,49,109,0
1,56,97,2
1,61,97,10
1,61,81,72
1,56,87,4
1,61,87,6
1,49,107,0
1,56,95,0
1,61,89,8
1,49,105,0
1,56,81,0
1,49,111,0
1,61,35,0
1,56,99,4
1,61,91,4
1,57,24,0
1,45,109,0
1,52,97,6
1,57,96,2
1,57,83,24
1,45,84,8
1,52,78,0
1,45,107,0
1,52,99,0
1,57,86,10
1,45,91,0
1,45,104,0
1,52,99,0
1,57,81,14
1,45,108,0
1,52,98,6
1,57,94,12
1,45,100,8
1,52,86,4
1,52,90,0
1,57,92,8
1,45,95,0
1,52,76,0
1,57,72,8
1,45,109,6
1,52,99,4
1,57,88,4
1,49,105,0
1,56,99,0
1,61,77,12
1,49,74,20
1,61,81,2
1,49,99,0
1,56,100,0
1,61,95,8
1,61,16,0
1,49,101,0
1,56,62,12
1,61,105,0
1,56,97,0
1,49,98,10
1,49,107,0
1,56,103,0
1,59,107,12
1,61,71,0
1,49,99,12
1,56,70,2
1,56,101,2
1,61,99,2
1,49,96,0
1,56,40,0
1,49,111,0
1,56,103,0
1,61,87,12
1,45,107,0
1,52,96,6
1,57,97,8
1,57,68,18
1,45,88,20
1,45,100,4
1,52,89,4
1,57,84,4
1,57,64,4
1,45,83,0
1,52,26,0
1,45,97,0
1,52,85,2
1,57,94,10
1,45,95,0
1,52,99,8
1,57,93,10
1,57,94,2
1,52,98,0
1,45,91,0
1,45,100,179
1,52,86,10
1,52,90,0
1,57,92,8
1,45,95,0
1,52,76,0
1,57,72,8
1,45,109,6
1,52,99,4
1,57,88,4
1,40,108,0
1,47,108,0
1,52,110,0
1,61,77,12
1,64,110,190
1,59,104,0
1,40,57,242
1,47,67,0
1,52,65,0
1,64,115,190
1,59,110,0
1,47,117,258
1,40,115,56
1,47,104,124
1,49,123,16
1,50,122,14
1,47,124,386
1,47,108,552
1,40,102,0
1,52,104,1
1,64,118,190
1,59,112,2
1,47,88,2
1,52,80,2
1,40,74,0
1,64,120,190
1,59,114,0
1,47,112,214
1,40,112,178
1,47,121,4
1,49,118,0
1,40,114,22
1,50,124,192
1,47,92,212
1,40,115,0
1,52,24,0
1,40,101,0
1,47,109,0
1,52,97,6
1,40,102,32
1,47,90,2
1,40,94,10
1,47,82,2
1,40,105,0
1,47,110,8
1,52,97,8
1,40,84,30
1,47,74,0
1,40,82,130
1,47,76,0
1,40,71,10
1,47,71,0
1,40,100,0
1,47,105,0
1,52,80,8
1,28,19,156
1,40,93,8
1,47,109,6
1,52,94,8
1,40,101,0
1,47,107,14
1,52,98,4
1,40,64,14
1,47,64,0
1,40,74,132
1,47,71,0
1,40,92,8
1,47,82,0
1,40,86,6
1,47,82,0
1,40,92,2
1,47,82,0
1,40,97,0
1,47,110,0
1,52,95,10
1,40,90,56
1,47,86,0
1,40,86,126
1,47,84,0
1,40,104,0
1,47,109,10
1,52,94,10
1,40,82,32
1,47,84,0
1,40,86,128
1,47,78,0
1,40,82,10
1,47,80,0
1,40,99,0
1,47,108,0
1,52,93,8
1,40,97,6
1,47,107,4
1,52,91,4
1,52,97,0
1,47,108,20
1,40,99,28
1,47,64,26
1,40,64,0
1,40,78,8
1,47,73,2
1,40,92,34
1,47,80,0
1,40,82,6
1,47,73,0
1,40,90,4
1,47,84,0
1,40,101,0
1,52,94,4
1,47,105,16
1,40,86,48
1,47,80,0
1,40,86,16
1,47,74,0
1,47,107,0
1,52,97,6
1,40,99,18
1,40,80,14
1,47,76,0
1,40,88,2
1,47,80,2
1,40,84,100
1,47,78,0
1,40,101,0
1,52,85,4
1,47,104,10
1,40,94,6
1,47,94,6
1,40,103,0
1,47,109,0
1,52,94,10
1,40,64,6
1,47,64,0
1,40,80,130
1,47,71,0
1,40,90,142
1,47,82,2
1,40,86,138
1,47,78,0
1,40,94,144
1,47,82,0
1,40,103,0
1,47,109,8
1,52,97,8
1,40,92,24
1,47,78,2
1,40,82,0
1,47,74,0
1,40,105,0
1,47,109,8
1,52,96,8
1,40,84,0
1,47,74,2
1,40,88,138
1,47,74,0
1,40,90,10
1,47,78,0
1,40,103,0
1,47,109,0
1,52,91,8
1,40,91,6
1,47,103,6
1,52,83,6
1,40,101,0
1,47,109,0
1,52,94,8
1,47,64,26
1,40,64,0
1,40,90,16
1,47,82,0
1,40,90,34
1,47,80,0
1,40,96,138
1,47,86,0
1,47,92,134
1,40,115,0
1,47,108,0
1,52,97,4
1,40,102,26
1,40,102,44
1,47,90,2
1,40,94,8
1,47,82,2
1,40,101,0
1,47,109,14
1,52,98,6
1,40,84,14
1,47,74,0
1,40,82,10
1,47,76,0
1,40,71,24
1,47,71,0
1,40,87,0
1,47,99,12
1,52,88,12
1,40,66,2
1,47,104,6
1,52,93,6
1,40,97,0
1,47,107,14
1,52,98,12
1,40,64,18
1,47,64,0
1,40,74,0
1,47,71,0
1,40,92,2
1,47,82,0
1,40,86,4
1,47,82,0
1,40,92,84
1,47,82,0
1,40,103,0
1,52,75,2
1,47,106,10
1,40,90,4
1,47,86,0
1,40,86,90
1,47,84,0
1,40,101,0
1,52,97,4
1,47,107,12
1,40,82,10
1,47,84,0
1,40,86,8
1,47,78,0
1,40,82,132
1,47,80,0
1,47,106,0
1,52,98,10
1,40,87,36
1,40,86,4
1,47,105,6
1,52,95,6
1,40,81,0
1,47,107,4
1,52,93,10
1,47,64,38
1,40,64,0
1,40,78,12
1,47,73,2
1,40,92,0
1,47,80,0
1,40,82,122
1,47,73,0
1,40,90,2
1,47,84,0
1,40,101,0
1,47,109,12
1,52,98,20
1,40,86,20
1,47,80,0
1,40,86,140
1,47,74,0
1,40,97,0
1,47,109,0
1,52,99,8
1,40,80,6
1,47,76,0
1,40,88,134
1,47,80,2
1,40,84,136
1,47,78,0
1,40,96,0
1,47,109,0
1,52,96,10
1,47,105,6
1,52,96,6
1,40,93,0
1,47,109,12
1,52,95,10
1,40,64,14
1,47,64,0
1,40,80,130
1,47,71,0
1,40,90,142
1,47,82,2
1,40,86,138
1,47,78,0
1,40,94,144
1,47,82,0
1,40,111,0
1,47,116,8
1,52,96,12
1,40,92,58
1,47,78,2
1,40,82,14
1,47,74,0
1,40,101,0
1,47,103,0
1,40,107,0
1,40,84,2
1,47,74,0
1,52,78,8
1,40,88,172
1,47,74,0
1,40,103,124
1,47,110,10
1,40,90,0
1,47,78,0
1,52,101,2
1,40,107,354
1,47,112,6
1,52,118,10
1,40,98,6
1,47,99,6
1,52,101,4
1,40,123,14
1,52,127,10
1,47,123,3
1,44,113,0
1,47,64,2
1,40,64,0
1,40,90,4
1,47,82,0
1,42,112,0
1,40,90,138
1,47,80,0
1,49,117,0
1,56,99,2
1,40,96,0
1,47,86,0
1,61,86,8
1,49,100,4
1,56,74,6
1,49,115,4
1,56,104,0
1,61,98,12
1,49,115,0
1,56,101,6
1,61,92,10
1,49,109,0
1,59,30,0
1,56,103,4
1,59,97,2
1,61,56,0
1,49,97,0
1,56,70,0
1,49,100,0
1,56,100,0
1,61,90,8
1,49,99,0
1,56,56,0
1,49,115,0
1,56,103,0
1,61,95,8
1,48,78,0
1,45,103,0
1,52,105,6
1,57,98,14
1,45,103,4
1,52,75,2
1,45,94,0
1,52,87,0
1,57,68,20
1,45,100,0
1,52,68,0
1,45,105,0
1,52,91,0
1,57,70,10
1,45,109,0
1,52,96,4
1,57,81,8
1,45,100,6
1,52,85,4
1,57,69,4
1,57,88,194
1,52,73,0
1,45,72,0
1,45,77,177
1,52,71,0
1,57,102,0
1,45,64,2
1,52,70,4
1,57,103,10
1,49,114,0
1,56,103,0
1,61,94,8
1,49,103,10
1,49,108,0
1,56,101,0
1,61,92,8
1,56,81,2
1,49,84,0
1,49,113,0
1,56,101,0
1,61,87,10
1,49,109,0
1,56,97,2
1,61,97,10
1,61,81,72
1,56,87,4
1,61,87,6
1,49,107,0
1,56,95,0
1,61,89,8
1,49,105,0
1,56,81,0
1,49,111,0
1,56,99,4
1,61,91,10
1,45,109,0
1,52,97,6
1,57,96,8
1,57,83,24
1,45,84,8
1,52,78,0
1,45,107,0
1,52,99,0
1,57,86,10
1,45,91,0
1,45,104,0
1,52,99,0
1,57,81,14
1,45,108,0
1,52,98,6
1,57,94,12
1,45,100,8
1,52,86,4
1,52,90,0
1,57,92,8
1,45,95,0
1,52,76,0
1,57,72,8
1,45,109,6
1,52,99,4
1,57,88,4
1,49,105,0
1,56,99,0
1,61,77,12
1,49,74,20
1,61,81,2
1,49,99,0
1,56,100,0
1,61,95,8
1,61,16,0
1,49,101,0
1,56,62,12
1,61,105,0
1,56,97,0
1,49,98,10
1,49,107,0
1,56,103,0
1,61,71,174
1,49,99,12
1,56,70,2
1,56,101,2
1,61,99,2
1,49,96,0
1,56,40,0
1,49,111,0
1,56,103,0
1,61,87,12
1,45,107,0
1,52,96,6
1,57,97,8
1,57,68,18
1,45,88,20
1,45,100,4
1,52,89,4
1,57,84,4
1,57,64,4
1,45,83,0
1,52,26,0
1,45,97,0
1,52,85,2
1,57,74,10
1,45,95,0
1,52,99,8
1,57,93,10
1,57,94,2
1,52,98,0
1,45,91,0
1,40,97,184
1,47,97,0
1,40,114,172
1,47,115,1
1,40,91,0
1,49,98,0
1,47,100,106
1,40,99,4
1,40,117,2
1,47,117,0
1,40,88,2
1,47,83,2
1,40,97,2
1,49,99,0
1,40,106,10
1,47,114,4
1,49,111,0
1,50,117,0
1,52,111,4
1,49,94,2
1,40,97,0
1,47,97,0
1,40,114,172
1,47,115,1
1,40,91,0
1,49,98,0
1,47,100,106
1,40,99,0
1,40,117,2
1,47,117,0
1,40,88,2
1,47,83,0
1,40,97,2
1,49,99,0
1,40,106,10
1,47,116,4
1,43,120,0
1,40,116,386
1,47,82,174
1,40,105,0
1,40,101,0
1,47,109,0
1,52,97,2
1,40,92,42
1,47,80,2
1,40,84,18
1,47,72,2
1,40,105,12
1,47,110,0
1,52,97,2
1,40,74,20
1,47,64,0
1,40,72,124
1,47,66,0
1,40,61,18
1,47,61,0
1,40,100,6
1,47,105,2
1,52,80,0
1,40,93,192
1,47,109,0
1,52,94,1
1,40,101,12
1,47,107,0
1,52,98,2
1,40,54,26
1,47,54,0
1,40,64,4
1,47,61,0
1,40,82,0
1,47,72,0
1,40,76,14
1,47,72,0
1,40,82,10
1,47,72,0
1,40,97,4
1,47,110,0
1,52,95,0
1,40,80,50
1,47,76,0
1,40,76,120
1,47,74,0
1,40,104,16
1,47,109,0
1,52,94,2
1,40,72,20
1,47,74,0
1,40,76,122
1,47,68,0
1,40,72,18
1,47,70,0
1,40,99,0
1,47,108,2
1,52,93,0
1,40,97,190
1,47,107,0
1,52,91,1
1,52,97,66
1,47,108,2
1,40,99,78
1,47,54,0
1,40,54,0
1,40,68,2
1,47,63,2
1,40,82,0
1,47,70,0
1,40,72,14
1,47,63,0
1,40,80,12
1,47,74,0
1,40,101,6
1,52,94,0
1,47,105,0
1,40,76,66
1,47,70,0
1,40,76,6
1,47,64,0
1,47,107,6
1,52,97,0
1,40,99,2
1,40,70,22
1,47,66,0
1,40,78,10
1,47,70,2
1,40,74,108
1,47,68,0
1,40,101,6
1,52,85,0
1,47,104,0
1,40,94,4
1,47,94,2
1,40,103,0
1,47,109,2
1,52,94,2
1,40,54,10
1,47,54,0
1,40,70,124
1,47,61,0
1,40,80,136
1,47,72,2
1,40,76,132
1,47,68,0
1,40,84,138
1,47,72,0
1,40,103,6
1,47,109,2
1,52,97,0
1,40,82,18
1,47,68,2
1,40,72,8
1,47,64,0
1,40,105,2
1,47,109,0
1,52,96,0
1,40,74,4
1,47,64,2
1,40,78,132
1,47,64,0
1,40,80,18
1,47,68,0
1,40,103,4
1,47,109,2
1,52,91,0
1,40,91,190
1,47,103,0
1,52,83,1
1,40,101,2
1,47,109,0
1,52,94,2
1,47,54,26
1,40,54,0
1,40,80,2
1,47,72,0
1,40,80,2
1,47,70,0
1,40,86,132
1,47,76,0
1,47,82,0
1,40,105,0
1,47,108,10
1,52,97,0
1,40,102,68
1,40,92,30
1,47,80,2
1,40,84,0
1,47,72,2
1,40,101,0
1,47,109,0
1,52,98,2
1,40,74,4
1,47,64,0
1,40,72,18
1,47,66,0
1,40,61,32
1,47,61,0
1,40,87,4
1,47,99,2
1,52,88,0
1,40,66,10
1,47,104,2
1,52,93,2
1,40,97,228
1,47,107,0
1,52,98,2
1,40,54,2
1,47,54,0
1,40,64,8
1,47,61,0
1,40,82,10
1,47,72,0
1,40,76,12
1,47,72,0
1,40,82,92
1,47,72,0
1,40,103,36
1,52,75,0
1,47,106,0
1,40,80,0
1,47,76,0
1,40,76,98
1,47,74,0
1,40,101,8
1,52,97,0
1,47,107,2
1,40,72,4
1,47,74,0
1,40,76,2
1,47,68,0
1,40,72,126
1,47,70,0
1,47,106,2
1,52,98,2
1,40,87,4
1,40,86,54
1,47,105,0
1,52,95,1
1,40,81,178
1,47,107,0
1,52,93,2
1,47,54,4
1,40,54,0
1,40,68,20
1,47,63,2
1,40,82,8
1,47,70,0
1,40,72,116
1,47,63,0
1,40,80,10
1,47,74,0
1,40,101,8
1,52,98,0
1,47,109,2
1,40,76,28
1,47,70,0
1,40,76,134
1,47,64,0
1,40,97,0
1,47,109,0
1,52,99,0
1,40,70,4
1,47,66,0
1,40,78,128
1,47,70,2
1,40,74,130
1,47,68,0
1,40,96,14
1,47,109,2
1,52,96,0
1,47,105,192
1,52,96,1
1,40,93,6
1,47,109,2
1,52,95,0
1,40,54,12
1,47,54,0
1,40,70,124
1,47,61,0
1,40,80,136
1,47,72,2
1,40,76,132
1,47,68,0
1,40,84,138
1,47,72,0
1,40,111,0
1,47,116,8
1,52,96,12
1,40,82,66
1,47,68,2
1,40,72,22
1,47,64,0
1,40,101,0
1,47,103,0
1,40,107,0
1,40,74,4
1,47,64,1
1,52,78,2
1,40,78,132
1,47,64,0
1,40,103,110
1,47,110,10
1,52,81,6
1,40,80,2
1,47,68,0
1,40,107,338
1,47,112,6
1,52,108,10
1,40,98,6
1,47,99,6
1,52,97,4
1,40,123,14
1,47,123,14
1,44,113,8
1,47,54,4
1,40,54,0
1,40,80,16
1,47,72,0
1,42,112,0
1,40,80,132
1,47,70,0
1,49,117,0
1,56,99,2
1,61,86,10
1,49,100,4
1,56,74,6
1,49,115,4
1,56,104,0
1,61,98,12
1,49,115,0
1,61,30,0
1,56,101,6
1,61,92,4
1,49,109,0
1,59,30,0
1,56,103,4
1,59,97,2
1,61,56,0
1,49,97,0
1,56,70,0
1,49,100,0
1,56,100,0
1,61,90,8
1,49,99,0
1,56,56,0
1,49,115,0
1,56,103,0
1,61,95,8
1,48,78,0
1,57,16,0
1,45,103,0
1,52,105,6
1,57,98,6
1,45,103,4
1,52,75,2
1,45,94,0
1,52,87,0
1,57,68,20
