track,note,velocity,time
1,63,23,466
1,51,24,10
1,68,42,536
1,56,30,0
1,66,45,178
1,54,28,24
1,63,38,844
1,51,35,24
1,61,57,20
1,49,39,4
1,63,64,110
1,51,57,2
1,54,50,46
1,66,68,10
1,68,67,32
1,56,48,16
1,71,44,14
1,59,37,20
1,70,63,78
1,58,42,8
1,73,48,22
1,61,15,26
1,70,27,0
1,58,25,4
1,70,34,206
1,58,28,12
1,71,38,44
1,59,34,16
1,68,55,20
1,56,43,0
1,58,52,4
1,70,67,0
1,66,62,4
1,54,57,2
1,63,70,130
1,51,60,10
1,66,66,90
1,54,57,10
1,70,61,124
1,58,42,18
1,73,40,18
1,61,28,20
1,70,54,4
1,58,42,22
1,71,46,0
1,59,34,18
1,68,55,4
1,56,41,8
1,58,56,32
1,70,66,0
1,66,57,96
1,54,41,8
1,63,50,192
1,51,33,20
1,49,30,196
1,61,35,2
1,58,32,120
1,46,33,16
1,32,31,564
1,68,41,472
1,80,45,6
1,63,21,12
1,51,29,6
1,71,23,4
1,59,19,16
1,56,18,4
1,80,54,10
1,83,48,128
1,61,28,160
1,73,47,4
1,69,57,0
1,64,35,18
1,83,29,2
1,52,29,10
1,57,38,2
1,80,73,22
1,80,79,134
1,66,45,6
1,54,35,4
1,71,50,6
1,63,49,0
1,75,47,2
1,59,35,24
1,80,67,0
1,83,62,76
1,83,55,156
1,61,38,4
1,73,41,4
1,64,36,14
1,52,38,2
1,69,34,0
1,57,21,26
1,80,66,8
1,80,45,272
1,71,27,34
1,68,41,4
1,63,20,6
1,51,18,8
1,56,17,2
1,59,21,8
1,32,38,16
1,68,27,470
1,75,30,6
1,63,19,8
1,71,20,4
1,59,22,24
1,56,21,8
1,51,21,2
1,75,56,22
1,78,74,80
1,78,72,120
1,61,30,14
1,69,57,2
1,73,50,4
1,64,42,0
1,52,36,22
1,57,34,8
1,75,64,48
1,66,40,166
1,75,56,0
1,54,24,4
1,63,46,4
1,71,43,4
1,59,35,30
1,75,51,6
1,78,54,108
1,78,37,144
1,61,19,4
1,64,32,12
1,73,34,2
1,52,29,2
1,69,26,6
1,57,30,8
1,75,23,46
1,68,25,290
1,75,29,8
1,63,18,12
1,71,13,8
1,51,16,6
1,56,14,4
1,59,19,10
1,32,37,98
1,75,44,478
1,58,38,6
1,68,26,20
1,54,32,0
1,64,31,10
1,73,52,200
1,75,51,10
1,68,67,152
1,63,38,2
1,57,44,4
1,47,31,12
1,68,63,196
1,57,45,8
1,52,32,12
1,45,50,0
1,61,48,16
1,66,70,32
1,68,78,0
1,54,63,4
1,61,69,6
1,56,48,12
1,40,37,14
1,39,43,30
1,51,50,6
1,59,72,108
1,61,81,20
1,63,72,130
1,49,46,0
1,56,55,10
1,37,37,0
1,52,47,2
1,35,47,96
1,47,46,2
1,61,66,180
1,63,74,36
1,70,68,242
1,65,50,18
1,56,41,4
1,46,52,0
1,34,45,10
1,58,46,4
1,62,46,0
1,75,47,188
1,27,47,2
1,70,44,6
1,39,26,20
1,63,29,6
1,67,42,10
1,75,34,456
1,63,27,4
1,58,41,6
1,70,35,12
1,67,38,8
1,51,35,14
1,58,44,712
1,46,47,10
1,51,29,160
1,63,46,8
1,61,49,168
1,49,34,4
1,58,40,432
1,46,44,4
1,56,50,12
1,44,39,12
1,58,73,132
1,46,80,4
1,49,66,80
1,61,75,12
1,63,72,84
1,51,60,0
1,66,57,134
1,54,41,26
1,64,74,6
1,52,48,12
1,68,73,196
1,56,55,4
1,64,44,18
1,52,48,6
1,71,64,344
1,59,42,12
1,58,80,30
1,70,89,8
1,73,74,100
1,61,62,26
1,58,59,182
1,70,63,10
1,63,39,2
1,66,37,12
1,51,31,12
1,54,32,12
1,61,28,192
1,49,28,2
1,64,32,10
1,52,29,14
1,70,47,200
1,58,33,10
1,71,48,20
1,59,29,28
1,68,58,6
1,56,43,4
1,70,71,8
1,58,63,10
1,66,69,122
1,54,50,26
1,63,69,68
1,59,50,12
1,47,48,10
1,51,52,6
1,54,48,130
1,46,66,10
1,58,61,4
1,66,66,0
1,61,56,2
1,49,47,14
1,70,81,32
1,66,57,8
1,58,85,14
1,63,58,6
1,51,46,4
1,54,44,4
1,61,49,172
1,64,65,4
1,49,50,16
1,52,48,12
1,73,67,70
1,61,54,8
1,70,73,86
1,58,70,10
1,59,51,44
1,71,57,4
1,56,57,30
1,68,60,0
1,70,78,24
1,58,69,4
1,66,79,72
1,54,47,32
1,63,74,40
1,59,51,6
1,47,45,2
1,51,56,8
1,61,55,272
1,58,57,10
1,46,47,14
1,49,38,8
1,64,42,262
1,57,29,4
1,52,33,14
1,45,37,6
1,45,45,502
1,38,13,16
1,26,37,8
1,71,56,468
1,83,75,0
1,68,47,14
1,80,26,16
1,66,43,192
1,78,36,6
1,81,33,12
1,69,28,8
1,80,51,24
1,68,32,2
1,64,44,24
1,76,44,6
1,69,56,112
1,81,59,6
1,80,49,16
1,68,25,0
1,64,26,20
1,76,4,6
1,78,50,104
1,74,44,10
1,66,39,2
1,62,28,10
1,78,47,200
1,66,35,22
1,74,22,16
1,62,27,6
1,57,65,362
1,45,57,22
1,81,86,132
1,80,61,8
1,69,61,6
1,68,46,0
1,76,61,8
1,64,34,26
1,73,60,0
1,76,75,0
1,64,65,8
1,61,38,28
1,80,73,52
1,68,70,14
1,76,57,12
1,80,64,88
1,68,65,20
1,76,74,6
1,64,34,32
1,66,74,28
1,78,73,2
1,74,67,4
1,62,62,0
1,66,59,198
1,78,79,2
1,73,68,8
1,61,58,14
1,76,65,2
1,64,41,22
1,71,53,12
1,74,73,4
1,59,52,0
1,62,57,0
1,61,73,86
1,73,77,4
1,69,67,14
1,57,54,10
1,74,58,194
1,69,55,8
1,61,32,0
1,73,51,0
1,62,39,2
1,57,39,28
1,67,34,2
1,71,36,0
1,59,27,18
1,55,30,4
1,71,29,174
1,59,17,4
1,67,16,10
1,55,40,16
1,31,55,362
1,43,42,6
1,50,56,12
1,74,64,586
1,62,37,0
1,73,41,2
1,61,31,4
1,69,33,14
1,57,17,16
1,66,50,14
1,54,59,2
1,69,51,2
1,57,28,2
1,57,37,102
1,73,66,0
1,69,53,6
1,61,58,2
1,73,64,140
1,61,53,10
1,69,32,8
1,57,25,14
1,71,45,58
1,67,37,4
1,55,48,0
1,59,28,8
1,66,59,212
1,71,53,0
1,54,50,6
1,59,44,4
1,69,55,4
1,57,35,28
1,64,55,74
1,67,60,8
1,52,60,6
1,55,38,18
1,54,48,96
1,66,54,0
1,62,63,10
1,50,66,2
1,55,44,260
1,67,61,0
1,66,52,2
1,62,36,20
1,46,47,4
1,34,47,4
1,61,48,98
1,64,39,16
1,61,46,144
1,64,54,22
1,37,42,122
1,49,34,2
1,68,58,202
1,56,46,2
1,66,42,14
1,63,24,0
1,64,53,18
1,61,32,14
1,63,53,10
1,66,50,8
1,61,67,168
1,73,69,10
1,68,48,22
1,40,38,4
1,52,32,12
1,71,24,50
1,75,59,126
1,63,27,2
1,39,37,0
1,51,25,0
1,67,44,2
1,70,31,8
1,67,57,152
1,34,35,0
1,62,36,0
1,66,51,4
1,46,37,4
1,55,41,4
1,61,34,220
1,64,20,22
1,61,39,152
1,64,35,20
1,49,29,244
1,37,36,12
1,56,49,220
1,68,55,0
1,66,38,26
1,63,35,2
1,61,55,92
1,64,52,6
1,66,66,26
1,63,57,6
1,73,78,154
1,61,70,4
1,71,51,10
1,52,50,8
1,68,64,6
1,40,50,2
1,75,79,86
1,51,44,6
1,63,41,8
1,70,70,0
1,39,47,2
1,67,59,6
1,68,49,40
1,37,32,4
1,63,54,4
1,49,38,4
1,73,50,4
1,75,68,2
1,76,90,16
1,64,51,10
1,66,76,124
1,61,59,2
1,64,38,2
1,56,33,0
1,76,85,4
1,73,50,8
1,68,81,96
1,68,90,0
1,78,90,472
1,66,61,10
1,63,56,4
1,73,56,2
1,75,56,0
1,61,34,4
1,80,93,2
1,68,74,8
1,76,77,12
1,64,67,16
1,80,79,80
1,68,83,10
1,76,70,10
1,64,67,4
1,68,52,6
1,61,60,6
1,76,92,2
1,73,53,2
1,64,54,14
1,80,75,14
1,33,72,2
1,45,73,6
1,52,41,162
1,57,52,20
1,61,62,56
1,81,72,32
1,73,42,6
1,69,44,8
1,76,61,2
1,64,54,6
1,81,47,332
1,73,32,2
1,76,39,10
1,69,22,4
1,61,13,26
1,64,16,8
1,52,10,0
1,57,15,10
1,81,71,358
1,73,37,18
1,69,41,0
1,76,57,10
1,64,22,2
1,52,20,10
1,61,25,6
1,57,18,12
1,63,24,36
1,72,48,0
1,75,42,2
1,60,17,60
1,80,65,196
1,75,45,24
1,63,29,4
1,68,23,2
1,72,32,6
1,60,29,8
1,62,32,14
1,71,29,2
1,74,49,2
1,59,29,6
1,78,67,126
1,66,40,14
1,73,43,6
1,61,34,6
1,70,44,0
1,58,46,10
1,52,35,20
1,71,43,36
1,74,59,6
1,62,45,4
1,59,43,6
1,80,83,32
1,68,77,2
1,63,47,4
1,60,44,6
1,72,69,10
1,75,42,12
1,80,66,92
1,68,46,20
1,63,40,4
1,75,43,8
1,52,30,4
1,72,66,2
1,60,45,16
1,81,69,42
1,73,51,4
1,76,70,6
1,69,51,8
1,61,47,0
1,64,49,2
1,81,70,138
1,73,39,6
1,61,34,4
1,64,38,2
1,76,46,6
1,69,52,0
1,52,31,22
1,57,36,4
1,33,39,412
1,45,38,4
1,81,79,440
1,73,36,16
1,64,29,8
1,57,26,2
1,69,32,0
1,61,28,2
1,76,38,0
1,52,19,10
1,75,47,14
1,72,52,0
1,63,42,8
1,60,30,28
1,80,78,172
1,68,41,16
1,75,52,4
1,63,51,0
1,60,37,22
1,72,31,4
1,74,59,166
1,71,38,6
1,62,39,6
1,59,41,0
1,78,79,102
1,66,57,8
1,73,60,2
1,61,49,0
1,70,61,16
1,58,62,0
1,52,44,0
1,57,30,18
1,71,56,64
1,74,75,4
1,62,44,18
1,59,53,0
1,80,83,28
1,68,77,4
1,63,64,54
1,60,50,24
1,75,72,12
1,72,76,4
1,80,89,96
1,68,75,6
1,63,67,6
1,75,75,4
1,72,72,0
1,52,57,14
1,60,61,6
1,57,37,14
1,78,73,106
1,71,65,6
1,83,76,0
1,74,72,0
1,66,66,2
1,62,49,16
1,52,77,114
1,83,79,110
1,78,74,4
1,74,75,2
1,71,63,0
1,66,70,20
1,62,55,0
1,57,48,26
1,33,83,290
1,45,77,2
1,52,71,26
1,83,69,184
1,78,68,4
1,66,66,4
1,71,62,4
1,74,72,0
1,57,44,22
1,62,44,6
1,85,100,116
1,77,91,6
1,73,87,2
1,68,81,6
1,80,82,4
1,65,85,10
1,85,101,114
1,73,95,6
1,68,83,0
1,80,84,4
1,77,87,2
1,57,72,8
1,65,67,6
1,62,54,8
1,88,93,278
1,80,76,0
1,76,89,4
1,71,72,0
1,83,75,0
1,68,72,4
1,62,54,14
1,85,90,8
1,73,95,2
1,80,91,2
1,77,98,4
1,68,81,4
1,65,88,4
1,73,94,138
1,85,99,2
1,68,85,0
1,80,90,0
1,77,94,8
1,65,81,8
1,62,54,8
1,57,62,4
1,66,70,44
1,78,86,0
1,83,89,2
1,71,83,0
1,74,87,4
1,62,57,8
1,52,93,6
1,78,81,84
1,83,91,0
1,74,94,4
1,71,72,0
1,66,84,4
1,57,61,18
1,62,67,6
1,45,105,416
1,33,98,2
1,52,90,30
1,83,97,172
1,66,92,2
1,78,91,2
1,71,92,0
1,74,104,2
1,57,87,8
1,62,81,2
1,85,103,120
1,80,96,2
1,73,102,0
1,68,92,4
1,77,101,0
1,65,89,12
1,68,95,144
1,85,110,0
1,73,105,2
1,80,95,0
1,77,108,8
1,57,74,4
1,65,79,2
1,62,66,12
1,88,112,272
1,76,111,6
1,80,95,0
1,83,92,2
1,68,85,4
1,71,86,0
1,64,90,6
1,62,73,4
1,90,103,132
1,78,100,4
1,66,86,14
1,32,105,0
1,44,101,100
1,92,106,112
1,80,100,2
1,87,94,0
1,63,103,4
1,51,84,4
1,84,97,0
1,60,84,0
1,56,75,14
1,68,104,268
1,66,96,384
1,63,79,776
1,92,62,542
1,68,41,12
1,80,33,0
1,78,44,180
1,90,55,0
1,66,31,24
1,87,50,542
1,75,29,10
1,63,29,12
1,68,46,890
1,66,52,100
1,63,41,496
1,61,51,222
1,57,48,10
1,52,35,10
1,33,42,14
1,45,39,6
1,63,63,18
1,66,73,98
1,68,78,140
1,56,58,4
1,64,41,8
1,28,47,2
1,40,43,0
1,59,42,6
1,71,70,50
1,70,83,86
1,58,79,4
1,64,41,10
1,37,50,2
1,25,58,0
1,68,67,0
1,73,66,150
1,61,61,4
1,68,53,6
1,34,46,2
1,22,51,12
1,64,57,4
1,27,24,486
1,70,36,2
1,58,34,2
1,39,21,6
1,61,26,18
1,66,25,0
1,63,24,10
1,32,38,6
1,70,42,420
1,44,8,28
1,63,20,2
1,58,19,0
1,61,19,6
1,51,27,22
1,71,38,110
1,59,29,12
1,68,45,160
1,56,37,4
1,70,56,76
1,58,56,10
1,66,50,38
1,54,44,2
1,51,41,128
1,63,48,6
1,61,33,2
1,44,31,8
1,54,30,246
1,66,40,0
1,70,30,352
1,63,21,14
1,61,24,4
1,44,11,2
1,51,20,28
1,58,7,2
1,32,29,100
1,51,34,352
1,63,30,2
1,49,27,14
1,61,25,4
1,58,47,16
1,46,41,22
1,47,34,64
1,59,39,2
1,56,51,64
1,44,36,14
1,58,65,54
1,46,64,16
1,54,50,12
1,42,39,20
1,51,44,38
1,58,57,2
1,39,42,2
1,46,43,4
1,49,45,520
1,37,38,16
1,34,34,14
1,46,42,0
1,51,37,2
1,39,23,18
1,44,38,350
1,32,28,4
1,32,19,312
1,44,19,0
1,32,22,1566
1,44,18,2
1,70,47,614
1,66,19,38
1,56,14,14
1,60,12,0
1,51,19,2
1,65,51,390
1,56,25,4
1,50,24,18
1,59,24,4
1,66,54,254
1,61,50,0
1,57,42,0
1,51,40,6
1,44,38,2
1,72,37,414
1,61,24,0
1,57,25,26
1,67,25,6
1,52,17,16
1,70,52,182
1,68,33,12
1,62,30,24
1,53,34,6
1,58,40,2
1,32,28,504
1,77,38,1082
1,44,22,448
1,69,36,2
1,66,13,2
1,51,20,2
1,61,29,4
1,54,28,8
1,57,20,0
1,75,37,160
1,71,26,18
1,73,52,10
1,69,37,22
1,75,48,54
1,71,37,8
1,32,39,312
1,73,64,230
1,77,76,10
1,80,80,146
1,54,50,12
1,77,60,2
1,61,62,2
1,69,37,0
1,57,41,40
1,78,67,16
1,75,53,8
1,63,68,96
1,77,85,2
1,73,55,6
1,59,52,16
1,78,89,366
1,75,67,16
1,61,58,16
1,65,85,10
1,80,92,84
1,77,58,42
1,84,76,348
1,80,28,4
1,77,44,10
1,65,26,2
1,74,26,6
1,62,39,4
1,72,33,2
1,56,22,2
1,58,39,12
1,53,36,2
1,44,42,362
1,32,42,26
1,49,63,208
1,70,69,116
1,79,86,2
1,76,83,2
1,67,64,0
1,64,70,24
1,58,55,10
1,55,52,4
1,50,66,72
1,68,64,178
1,80,80,2
1,77,73,6
1,65,74,6
1,71,53,6
1,56,41,14
1,59,47,4
1,52,49,184
1,86,101,34
1,74,86,2
1,62,51,8
1,58,80,2
1,79,73,4
1,67,74,4
1,53,72,10
1,84,106,66
1,72,87,2
1,74,96,2
1,80,79,4
1,68,89,12
1,62,59,20
1,58,73,6
1,32,86,438
1,44,81,0
1,92,109,598
1,80,98,4
1,68,100,8
1,72,113,44
1,81,101,4
1,84,101,0
1,69,90,4
1,90,99,118
1,66,81,2
1,78,99,2
1,87,105,22
1,75,96,4
1,63,84,4
1,85,108,138
1,73,101,2
1,68,71,8
1,61,63,2
1,78,78,0
1,66,68,4
1,80,62,10
1,83,90,138
1,71,79,2
1,65,74,6
1,74,70,4
1,77,87,0
1,62,50,12
1,59,46,2
1,80,78,204
1,56,58,4
1,68,59,2
1,57,51,2
1,71,52,4
1,59,29,6
1,78,48,56
