track,note,velocity,time
3,68,115,15837
3,71,105,450
3,68,0,20
3,73,104,229
3,71,0,20
3,68,99,454
3,73,0,1
3,68,0,1784
3,68,112,869
3,68,0,161
3,68,112,64
3,71,103,244
3,68,0,11
3,73,105,231
3,71,0,18
3,68,104,489
3,73,0,12
3,66,81,836
3,68,0,22
3,64,76,88
3,66,0,47
3,64,0,935
3,68,108,686
3,71,103,467
3,68,0,17
3,73,104,233
3,71,0,24
3,68,99,453
3,73,0,12
3,68,0,0
3,68,110,471
3,66,99,431
3,68,0,42
3,64,78,89
3,66,0,2
3,66,101,640
3,64,0,0
3,64,93,222
3,66,0,13
3,68,112,249
3,64,0,2
3,68,0,465
3,66,110,3
3,66,0,199
3,66,112,48
3,64,84,528
3,66,0,22
3,61,84,90
3,64,0,12
3,61,0,1423
3,68,108,358
3,68,0,181
3,68,107,44
3,68,0,160
3,68,113,65
3,71,109,235
3,68,0,14
3,73,105,233
3,71,0,19
3,68,101,464
3,73,0,20
3,66,87,517
3,68,0,27
3,64,83,81
3,66,0,18
3,64,0,1054
3,68,92,709
3,68,0,186
3,68,107,54
3,68,0,178
3,68,112,50
3,71,105,242
3,68,0,22
3,73,101,217
3,71,0,11
3,68,102,444
3,73,0,25
3,66,89,565
3,68,0,18
3,64,79,93
3,66,0,40
3,64,0,917
3,68,107,1242
3,71,103,221
3,68,0,5
3,71,0,184
3,71,107,52
3,73,105,225
3,71,0,7
3,68,112,241
3,73,0,2
3,68,0,388
3,68,102,623
3,66,82,515
3,68,0,26
3,64,76,96
3,66,0,49
3,64,0,559
3,68,104,172
3,66,101,228
3,68,0,22
3,64,93,213
3,66,0,7
3,66,99,242
3,64,0,19
3,68,102,460
3,66,0,18
3,66,102,202
3,68,0,22
3,64,93,502
3,66,0,5
3,64,0,1583
3,71,109,2691
3,75,108,245
3,71,0,22
3,76,102,208
3,75,0,21
3,78,105,221
3,76,0,29
3,78,0,176
3,78,108,41
3,76,100,929
3,78,0,11
3,75,101,138
3,76,0,27
3,73,97,135
3,75,0,15
3,73,0,651
3,71,107,977
3,75,105,240
3,71,0,30
3,76,103,205
3,75,0,5
3,78,105,222
3,76,0,25
3,78,0,195
3,78,99,25
3,76,99,991
3,78,0,20
3,75,96,133
3,76,0,22
3,71,96,144
3,75,0,6
3,68,77,119
3,71,0,35
3,66,86,101
3,68,0,18
3,66,0,454
3,71,102,843
3,75,104,254
3,71,0,10
3,76,100,225
3,75,0,25
3,78,102,207
3,76,0,32
3,78,0,155
3,78,102,57
3,76,96,500
3,78,0,12
3,75,101,227
3,76,0,30
3,73,94,203
3,75,0,22
3,71,77,225
3,73,0,15
3,71,0,266
3,75,110,222
3,76,107,228
3,75,0,32
3,76,0,1062
3,80,117,574
3,78,108,231
3,80,0,13
3,76,96,417
3,78,0,26
3,73,91,59
3,76,0,20
3,73,0,452
3,80,110,207
3,80,0,455
3,78,117,22
3,78,0,402
3,78,115,129
3,78,0,460
3,80,107,2
3,80,0,192
3,80,113,57
3,80,0,383
3,76,111,532
3,78,110,261
3,76,0,25
3,80,101,203
3,78,0,38
3,81,107,214
3,80,0,10
3,80,105,219
3,81,0,48
3,78,101,434
3,80,0,30
3,76,103,212
3,78,0,25
3,76,0,311
3,80,107,389
3,80,0,205
3,80,108,54
3,80,0,74
3,80,110,35
3,83,111,135
3,80,0,1
3,80,108,688
3,83,0,1
3,78,104,229
3,80,0,22
3,76,83,418
3,78,0,23
3,73,92,86
3,76,0,10
3,73,0,358
3,80,113,318
3,80,0,456
3,78,112,9
3,78,0,390
3,78,112,124
3,80,105,443
3,78,0,0
3,80,0,199
3,80,110,53
3,80,0,513
3,80,119,432
3,80,0,897
3,73,101,50
3,80,113,235
3,73,0,5
3,80,0,390
3,80,115,84
3,78,107,504
3,80,0,2
3,76,99,479
3,78,0,60
3,73,94,87
3,76,0,26
3,73,0,1851
3,68,99,3491
3,68,0,195
3,68,99,39
3,68,0,173
3,68,113,57
3,71,113,240
3,68,0,15
3,73,105,235
3,71,0,15
3,73,0,703
3,68,102,14
3,68,0,972
3,68,115,1403
3,68,0,184
3,68,105,58
3,71,107,253
3,68,0,17
3,73,107,217
3,71,0,12
3,73,0,707
3,68,105,18
3,66,88,691
3,68,0,72
3,64,77,25
3,66,0,15
3,64,0,652
3,68,107,692
3,68,0,199
3,68,110,35
3,68,0,176
3,68,113,62
3,71,109,249
3,68,0,8
3,73,101,239
3,71,0,15
3,68,107,481
3,73,0,6
3,66,93,393
3,68,0,21
3,64,96,92
3,66,0,7
3,64,0,221
3,68,90,205
3,66,104,207
3,68,0,20
3,64,109,244
3,66,0,13
3,64,0,220
3,68,107,721
3,66,99,237
3,68,0,34
3,64,97,220
3,66,0,1
3,68,101,234
3,64,0,2
3,68,0,448
3,66,99,17
3,66,0,212
3,66,99,40
3,64,93,477
3,66,0,30
3,61,94,64
3,64,0,12
3,61,0,568
3,68,105,1260
3,68,0,212
3,68,110,18
3,68,0,161
3,68,112,72
3,71,107,237
3,68,0,14
3,73,110,265
3,71,0,5
3,73,0,435
3,76,107,9
3,73,107,403
3,76,0,12
3,71,99,205
3,73,0,16
3,71,0,793
3,80,110,966
3,78,105,246
3,80,0,28
3,76,103,200
3,78,0,9
3,78,100,235
3,76,0,10
3,78,0,469
3,73,113,38
3,73,0,234
3,76,102,1
3,73,104,950
3,76,0,23
3,71,97,230
3,73,0,2
3,69,90,131
3,71,0,5
3,69,0,586
3,73,115,701
3,73,0,154
3,73,104,66
3,76,107,240
3,73,0,24
3,78,108,233
3,76,0,19
3,80,108,240
3,78,0,12
3,78,105,225
3,80,0,18
3,76,103,464
3,78,0,27
3,73,91,72
3,76,0,20
3,71,83,793
3,73,0,25
3,69,93,76
3,71,0,2
3,69,0,361
3,80,108,506
3,78,105,255
3,80,0,23
3,76,105,207
3,78,0,24
3,78,107,248
3,76,0,17
3,78,0,445
3,80,104,2
3,78,108,217
3,80,0,22
3,78,0,462
3,73,92,72
3,76,105,122
3,73,0,22
3,76,0,956
3,80,117,1487
3,78,113,464
3,80,0,0
3,78,0,413
3,78,113,118
3,80,102,443
3,78,0,3
3,80,0,195
3,80,108,37
3,80,0,398
3,76,95,575
3,78,113,255
3,76,0,5
3,80,104,204
3,78,0,30
3,81,107,235
3,80,0,12
3,80,108,235
3,81,0,5
3,78,108,452
3,80,0,27
3,76,105,233
3,78,0,5
3,76,0,276
3,83,111,413
3,83,0,177
3,83,113,77
3,80,92,112
3,83,0,22
3,83,111,86
3,80,0,37
3,80,105,694
3,83,0,5
3,83,100,215
3,80,0,15
3,80,99,97
3,83,0,29
3,80,0,8
3,80,115,368
3,78,112,513
3,80,0,1
3,78,0,365
3,78,117,134
3,80,107,444
3,78,0,22
3,80,0,149
3,80,119,59
3,80,0,516
3,80,117,452
3,80,0,5
3,73,112,131
3,80,115,203
3,73,0,17
3,80,0,388
3,80,119,89
3,80,0,475
3,78,110,1
3,76,110,347
3,78,0,32
3,73,110,66
3,76,0,27
3,73,0,1455
3,71,115,14174
3,75,108,235
3,71,0,17
3,76,111,201
3,75,0,24
3,78,105,223
3,76,0,2
3,78,0,195
3,78,113,54
3,76,103,974
3,78,0,7
3,75,108,85
3,76,0,32
3,73,105,118
3,75,0,2
3,73,0,776
3,71,103,884
3,75,107,238
3,71,0,2
3,76,105,247
3,75,0,17
3,78,108,198
3,76,0,48
3,78,0,143
3,78,115,47
3,76,100,938
3,78,0,13
3,75,107,131
3,76,0,27
3,71,97,141
3,75,0,10
3,68,108,116
3,71,0,30
3,66,104,79
3,68,0,27
3,66,0,521
3,71,103,874
3,75,107,232
3,71,0,16
3,76,107,229
3,75,0,10
3,78,107,202
3,76,0,8
3,78,0,185
3,78,115,50
3,76,102,491
3,78,0,25
3,75,108,200
3,76,0,33
3,73,105,192
3,75,0,10
3,71,100,228
3,73,0,9
3,71,0,304
3,75,108,232
3,75,0,200
3,76,119,25
3,76,0,1202
3,80,121,448
3,78,113,242
3,80,0,23
3,76,102,366
3,78,0,36
3,73,100,55
3,76,0,25
3,73,0,435
3,80,125,281
3,78,119,469
3,80,0,18
3,78,0,400
3,78,115,96
3,78,0,428
3,80,110,14
3,80,0,188
3,80,121,77
3,80,0,717
3,76,105,200
3,78,121,286
3,76,0,5
3,80,110,213
3,78,0,26
3,81,109,211
3,80,0,22
3,80,115,240
3,81,0,5
3,78,117,444
3,80,0,25
3,76,109,245
3,78,0,0
3,76,0,400
3,80,112,323
3,80,0,181
3,80,105,37
3,80,0,74
3,80,110,30
3,83,113,128
3,80,0,2
3,80,117,719
3,83,0,11
3,78,112,222
3,80,0,32
3,76,97,400
3,78,0,35
3,73,97,67
3,76,0,16
3,73,0,324
3,80,123,326
3,78,115,472
3,80,0,18
3,78,0,409
3,78,113,74
3,78,0,463
3,80,104,17
3,80,0,200
3,80,117,40
3,80,0,481
3,80,117,477
3,80,0,781
3,73,110,166
3,80,117,261
3,73,0,5
3,80,0,398
3,80,107,67
3,78,105,514
3,80,0,7
3,76,91,218
3,78,0,36
3,73,113,77
3,76,0,22
3,73,0,1112
3,80,121,1369
3,78,119,491
3,80,0,0
3,78,0,411
3,78,113,103
3,80,113,440
3,78,0,2
3,80,0,213
3,80,115,52
3,80,0,652
3,76,111,277
3,78,115,270
3,76,0,6
3,80,113,208
3,78,0,40
3,81,113,219
3,80,0,25
3,80,113,225
3,81,0,10
3,78,110,443
3,80,0,27
3,76,109,236
3,78,0,1
3,76,0,375
3,83,107,329
3,83,0,170
3,83,115,60
3,80,104,116
3,83,0,2
3,83,119,101
3,80,0,3
3,83,0,684
3,80,110,65
3,80,0,241
3,83,115,1
3,83,0,116
3,80,119,7
3,80,0,0
3,80,119,393
3,78,117,487
3,80,0,2
3,78,0,428
3,78,113,88
3,80,108,457
3,78,0,6
3,80,0,197
3,80,113,35
3,80,0,390
3,80,117,563
3,80,0,843
3,73,110,103
3,80,108,246
3,73,0,12
3,80,0,400
3,80,110,66
3,80,0,569
3,78,102,123
3,76,103,321
3,78,0,21
3,76,0,1679
3,80,107,868
3,80,0,723
3,78,104,27
3,78,0,368
3,76,99,6
3,73,95,120
3,76,0,20
3,73,0,1865
3,68,93,4108
3,73,112,232
3,68,0,10
3,76,109,451
3,73,0,22
3,78,104,478
3,76,0,12
3,76,95,199
3,78,0,25
3,73,105,43
3,76,0,13
3,73,0,2
4,35,84,47280
4,35,0,1
4,38,90,236
4,38,0,1
4,42,37,242
4,42,0,1
4,57,85,234
4,57,0,1
4,35,90,3
4,35,0,1
4,42,65,476
4,42,0,1
4,35,76,244
4,42,25,1
4,35,0,0
4,42,0,1
4,42,65,235
4,42,0,1
4,35,94,1
4,35,0,1
4,42,25,234
4,42,0,1
4,42,65,244
4,42,0,1
4,38,90,2
4,38,0,1
4,42,25,235
4,42,0,1
4,35,90,236
4,35,0,1
4,42,65,6
4,42,0,1
4,42,25,233
4,42,0,1
4,42,65,246
4,42,0,1
4,35,69,236
4,35,0,1
4,42,25,1
4,42,0,1
4,42,65,237
4,42,0,1
4,35,94,2
4,35,0,1
4,42,25,231
4,42,0,1
4,38,88,240
4,38,0,1
4,42,65,2
4,42,0,1
4,42,25,239
4,42,0,1
4,42,65,236
4,42,0,1
4,35,92,1
4,35,0,1
4,42,25,239
4,42,0,1
4,42,65,239
4,42,0,1
4,42,25,239
4,42,0,1
4,35,82,3
4,35,0,1
4,35,92,231
4,35,0,1
4,42,63,5
4,42,0,1
4,42,25,240
4,42,0,1
4,38,84,237
4,38,0,1
4,42,59,4
4,42,0,1
4,42,25,234
4,42,0,1
4,42,65,234
4,42,0,1
4,35,86,3
4,35,0,1
4,42,25,240
4,42,0,1
4,42,62,239
4,42,0,1
4,35,72,234
4,35,0,1
4,42,25,8
4,42,0,1
4,35,92,232
4,35,0,1
4,42,63,5
4,42,0,1
4,42,25,231
4,42,0,1
4,38,92,244
4,38,0,1
4,42,65,4
4,42,0,1
4,42,25,231
4,42,0,1
4,35,88,240
4,35,0,1
4,42,65,3
4,42,0,1
4,42,25,234
4,42,0,1
4,42,65,247
4,42,0,1
4,42,25,232
4,42,0,1
4,35,73,5
4,35,0,1
4,42,63,234
4,42,0,1
4,35,92,3
4,35,0,1
4,42,25,236
4,42,0,1
4,38,88,238
4,38,0,1
4,42,62,2
4,42,0,1
4,42,25,234
4,42,0,1
4,35,92,237
4,35,0,1
4,42,65,2
4,42,0,1
4,42,25,244
4,42,0,1
4,42,65,240
4,42,0,1
4,42,25,230
4,42,0,1
4,35,78,6
4,35,0,1
4,42,65,232
4,35,88,0
4,35,0,1
4,42,0,0
4,42,25,245
4,42,0,1
4,42,65,233
4,42,0,1
4,38,88,2
4,38,0,1
4,35,94,476
4,35,0,1
4,42,65,7
4,42,0,1
4,42,25,235
4,42,0,1
4,38,86,239
4,38,0,1
4,42,65,1
4,42,0,1
4,35,75,234
4,35,0,1
4,42,25,7
4,42,0,1
4,42,65,231
4,42,0,1
4,42,25,248
4,42,0,1
4,42,63,234
4,38,86,0
4,38,0,1
4,42,0,0
4,42,25,236
4,42,0,1
4,35,86,237
4,35,0,1
4,42,62,4
4,42,0,1
4,42,26,236
4,42,0,1
4,38,88,242
4,38,0,1
4,46,65,3
4,46,0,1
4,35,80,233
4,35,0,1
4,47,70,240
4,47,0,1
4,45,67,237
4,45,0,1
4,43,67,242
4,43,0,1
4,41,68,244
4,41,0,1
4,35,86,232
4,35,0,1
4,57,78,5
4,57,0,1
4,38,86,473
4,38,0,1
4,51,75,6
4,51,0,1
4,51,42,234
4,51,0,1
4,35,90,237
4,35,0,1
4,51,77,2
4,51,0,1
4,51,50,241
4,51,0,1
4,38,86,233
4,38,0,1
4,51,75,7
4,51,0,1
4,51,43,232
4,51,0,1
4,35,88,239
4,35,0,1
4,51,69,4
4,51,0,1
4,51,40,239
4,51,0,1
4,51,74,231
4,51,0,1
4,38,86,9
4,38,0,1
4,51,43,230
4,51,0,1
4,35,92,238
4,35,0,1
4,51,72,5
4,51,0,1
4,51,40,240
4,51,0,1
4,51,74,234
4,51,0,1
4,38,86,4
4,38,0,1
4,51,40,234
4,51,0,1
4,51,78,238
4,51,0,1
4,35,94,6
4,35,0,1
4,51,40,238
4,51,0,1
4,51,70,237
4,38,88,0
4,38,0,1
4,51,0,0
4,51,52,244
4,51,0,1
4,51,78,232
4,51,0,1
4,35,92,1
4,35,0,1
4,51,40,240
4,51,0,1
4,38,84,238
4,38,0,1
4,51,72,2
4,51,0,1
4,51,40,231
4,51,0,1
4,51,71,240
4,51,0,1
4,35,90,3
4,35,0,1
4,51,40,242
4,51,0,1
4,38,84,233
4,38,0,1
4,51,75,2
4,51,0,1
4,51,41,244
4,51,0,1
4,51,77,231
4,51,0,1
4,35,90,2
4,35,0,1
4,51,40,244
4,51,0,1
4,51,80,238
4,38,86,0
4,38,0,1
4,51,0,0
4,51,57,234
4,51,0,1
4,57,78,240
4,35,88,0
4,35,0,1
4,57,0,0
4,51,75,480
4,51,0,1
4,38,88,1
4,38,0,1
4,51,40,231
4,51,0,1
4,35,86,243
4,35,0,1
4,51,70,4
4,51,0,1
4,51,40,238
4,51,0,1
4,38,86,232
4,51,70,1
4,38,0,0
4,51,0,1
4,51,44,242
4,51,0,1
4,51,74,234
4,51,0,1
4,35,88,4
4,35,0,1
4,51,40,235
4,51,0,1
4,38,88,239
4,38,0,1
4,51,78,3
4,51,0,1
4,51,42,237
4,51,0,1
4,47,68,242
4,47,0,1
4,45,60,238
4,45,0,1
4,45,61,120
4,45,0,1
4,43,67,119
4,43,0,1
4,41,67,241
4,41,0,1
4,57,74,231
4,57,0,1
4,35,90,8
4,35,0,1
4,42,65,476
4,42,0,1
4,42,25,238
4,42,0,1
4,42,65,235
4,42,0,1
4,42,25,240
4,42,0,1
4,42,65,245
4,42,0,1
4,42,47,236
4,42,0,1
4,42,44,81
4,42,0,1
4,42,43,77
4,42,0,1
4,42,65,80
4,42,0,1
4,42,25,238
4,42,0,1
