track,note,velocity,time
3,35,27,952
3,27,25,2
3,39,53,102
3,35,34,226
3,35,16,142
3,35,27,48
3,39,53,80
3,35,34,34
3,35,16,122
3,35,27,56
3,27,25,2
3,39,53,102
3,35,34,226
3,35,16,142
3,35,27,48
3,39,53,80
3,35,34,34
3,35,16,122
3,35,27,56
3,27,25,2
3,39,53,102
3,35,34,228
3,35,16,142
3,35,27,48
3,39,53,80
3,35,34,34
3,35,16,122
3,35,27,56
3,27,25,2
3,39,53,102
3,35,34,226
3,35,27,222
3,39,53,80
3,36,90,306
3,41,54,0
3,42,101,0
3,49,72,0
3,51,76,0
3,27,25,2
3,42,81,0
3,36,48,2
3,42,101,0
3,51,67,0
3,54,79,0
3,42,81,54
3,39,53,50
3,40,93,0
3,42,101,0
3,42,81,34
3,42,101,50
3,51,56,0
3,54,79,0
3,36,77,68
3,42,81,0
3,42,101,30
3,51,62,0
3,36,59,72
3,42,81,0
3,36,42,48
3,42,101,0
3,51,68,0
3,54,79,0
3,42,81,2
3,39,53,50
3,40,93,0
3,42,101,0
3,36,77,34
3,42,81,0
3,46,71,10
3,51,56,0
3,54,79,0
3,36,59,66
3,42,81,0
3,36,90,50
3,41,54,0
3,42,101,0
3,51,76,0
3,27,25,2
3,42,81,0
3,36,48,2
3,42,101,0
3,51,67,0
3,54,79,0
3,42,81,54
3,39,53,50
3,40,93,0
3,42,101,0
3,42,81,34
3,42,101,50
3,51,56,0
3,54,79,0
3,36,77,68
3,42,81,0
3,42,101,30
3,51,62,0
3,36,59,72
3,42,81,0
3,36,42,48
3,42,101,0
3,51,68,0
3,54,79,0
3,42,81,2
3,39,53,50
3,40,93,0
3,42,101,0
3,36,77,34
3,42,81,0
3,46,71,10
3,51,56,0
3,54,79,0
3,36,59,64
3,42,81,0
3,36,90,50
3,41,54,0
3,42,101,0
3,49,72,0
3,51,76,0
3,27,25,2
3,42,81,0
3,36,48,2
3,42,101,0
3,51,67,0
3,54,79,0
3,42,81,54
3,39,53,50
3,40,93,0
3,42,101,0
3,42,81,34
3,42,101,50
3,51,56,0
3,54,79,0
3,36,77,68
3,42,81,0
3,42,101,30
3,51,62,0
3,36,59,72
3,42,81,0
3,36,42,48
3,42,101,0
3,51,68,0
3,54,79,0
3,42,81,2
3,39,53,50
3,40,93,0
3,42,101,0
3,36,77,34
3,42,81,0
3,46,71,10
3,51,56,0
3,54,79,0
3,36,59,64
3,42,81,0
3,36,90,50
3,41,54,0
3,42,101,0
3,51,76,0
3,27,25,2
3,42,81,0
3,36,48,2
3,42,101,0
3,51,67,0
3,54,79,0
3,42,81,54
3,39,53,50
3,40,93,0
3,42,101,0
3,42,81,34
3,42,101,50
3,51,56,0
3,54,79,0
3,36,77,68
3,42,81,0
3,42,101,30
3,51,62,0
3,36,59,72
3,42,81,0
3,36,42,48
3,42,101,0
3,51,68,0
3,54,79,0
3,42,81,2
3,39,53,50
3,40,93,0
3,42,101,0
3,43,42,0
3,36,77,4
3,40,48,0
3,42,81,0
3,43,39,0
3,39,32,2
3,40,57,0
3,43,43,0
3,46,71,0
3,51,56,0
3,54,79,0
3,36,59,16
3,40,27,0
3,41,28,0
3,42,81,0
3,36,90,18
3,41,54,0
3,42,101,0
3,49,72,0
3,51,76,0
3,27,25,2
3,42,81,0
3,36,48,2
3,42,101,0
3,51,67,0
3,54,79,0
3,42,81,54
3,39,53,50
3,40,93,0
3,42,101,0
3,42,81,34
3,42,101,50
3,51,56,0
3,54,79,0
3,36,77,68
3,42,81,0
3,42,101,30
3,51,62,0
3,36,59,72
3,42,81,0
3,36,42,48
3,42,101,0
3,51,68,0
3,54,79,0
3,42,81,2
3,39,53,50
3,40,93,0
3,42,101,0
3,36,77,34
3,42,81,0
3,46,71,10
3,51,56,0
3,54,79,0
3,36,59,64
3,42,81,0
3,36,90,50
3,41,54,0
3,42,101,0
3,51,76,0
3,27,25,2
3,42,81,0
3,36,48,2
3,42,101,0
3,51,67,0
3,54,79,0
3,42,81,54
3,39,53,50
3,40,93,0
3,42,101,0
3,42,81,34
3,42,101,50
3,51,56,0
3,54,79,0
3,36,77,68
3,42,81,0
3,42,101,30
3,51,62,0
3,36,59,72
3,42,81,0
3,36,42,48
3,42,101,0
3,51,68,0
3,54,79,0
3,42,81,2
3,39,53,50
3,40,93,0
3,42,101,0
3,36,77,34
3,42,81,0
3,46,71,10
3,51,56,0
3,54,79,0
3,36,59,64
3,42,81,0
3,36,90,50
3,41,54,0
3,42,101,0
3,49,72,0
3,51,76,0
3,27,25,2
3,42,81,0
3,36,48,2
3,42,101,0
3,51,67,0
3,54,79,0
3,42,81,54
3,39,53,50
3,40,93,0
3,42,101,0
3,42,81,34
3,42,101,50
3,51,56,0
3,54,79,0
3,36,77,68
3,42,81,0
3,42,101,30
3,51,62,0
3,36,59,72
3,42,81,0
3,36,42,48
3,42,101,0
3,51,68,0
3,54,79,0
3,42,81,2
3,39,53,50
3,40,93,0
3,42,101,0
3,36,77,34
3,42,81,0
3,46,71,10
3,51,56,0
3,54,79,0
3,36,59,64
3,42,81,0
3,36,90,50
3,41,54,0
3,42,101,0
3,51,76,0
3,27,25,2
3,42,81,0
3,36,48,2
3,42,101,0
3,51,67,0
3,54,79,0
3,42,81,54
3,39,53,50
3,40,93,0
3,42,101,0
3,42,81,34
3,42,101,50
3,51,56,0
3,54,79,0
3,36,77,68
3,42,81,0
3,42,101,30
3,51,62,0
3,36,59,72
3,42,81,0
3,36,42,48
3,40,54,0
3,42,101,0
3,45,62,0
3,51,68,0
3,54,79,0
3,42,81,2
3,39,53,50
3,40,93,0
3,42,101,0
3,43,62,0
3,36,77,4
3,40,48,0
3,42,81,0
3,43,59,0
3,39,32,2
3,40,57,0
3,43,63,0
3,46,71,0
3,51,56,0
3,54,79,0
3,36,59,16
3,40,27,0
3,41,48,0
3,42,81,0
3,36,90,18
3,41,54,0
3,42,72,0
3,49,72,0
3,51,76,0
3,27,25,2
3,42,72,2
3,51,67,0
3,54,59,0
3,39,53,132
3,40,93,0
3,42,72,0
3,42,72,114
3,51,56,0
3,36,60,68
3,42,72,30
3,51,62,0
3,36,31,70
3,36,53,48
3,42,72,0
3,51,68,0
3,39,53,80
3,40,93,0
3,42,72,0
3,36,60,34
3,46,42,0
3,42,52,10
3,51,56,0
3,36,31,62
3,42,71,0
3,36,90,2
3,41,54,0
3,42,72,0
3,51,76,0
3,27,25,2
3,42,72,2
3,51,67,0
3,39,53,132
3,40,93,0
3,42,72,0
3,42,72,114
3,51,56,0
3,36,60,68
3,42,72,30
3,51,62,0
3,36,31,70
3,36,53,48
3,42,72,0
3,51,68,0
3,39,53,80
3,40,93,0
3,42,72,0
3,36,60,34
3,46,42,0
3,42,52,10
3,51,56,0
3,36,31,62
3,36,90,56
3,41,54,0
3,42,72,0
3,51,76,0
3,27,25,2
3,42,72,2
3,51,67,0
3,39,53,132
3,40,93,0
3,42,72,0
3,42,72,114
3,51,56,0
3,36,60,68
3,42,72,30
3,51,62,0
3,36,31,70
3,36,53,48
3,42,72,0
3,51,68,0
3,39,53,80
3,40,93,0
3,42,72,0
3,36,60,34
3,46,42,0
3,42,52,10
3,51,56,0
3,36,31,62
3,42,71,0
3,36,90,2
3,41,54,0
3,42,72,0
3,51,76,0
3,27,25,2
3,42,72,2
3,51,67,0
3,39,53,132
3,40,93,0
3,42,72,0
3,42,72,114
3,51,56,0
3,36,60,68
3,42,72,30
3,51,62,0
3,36,31,70
3,40,22,0
3,40,35,2
3,36,53,2
3,40,54,0
3,42,72,0
3,45,49,0
3,51,68,0
3,39,53,80
3,40,93,0
3,42,72,0
3,45,49,0
3,36,60,2
3,40,48,0
3,43,46,0
3,46,42,0
3,39,32,2
3,40,57,0
3,42,52,0
3,43,50,0
3,51,56,0
3,36,31,14
3,40,19,0
3,36,90,48
3,41,54,0
3,42,90,0
3,49,72,0
3,82,31,0
3,27,25,2
3,69,24,0
3,36,43,2
3,42,90,0
3,54,59,0
3,69,24,2
3,82,16,0
3,39,53,18
3,40,93,0
3,42,90,0
3,82,36,0
3,69,24,34
3,42,90,18
3,82,31,0
3,36,60,76
3,69,24,0
3,42,90,18
3,36,31,76
3,69,24,0
3,82,16,0
3,36,53,20
3,42,90,0
3,82,36,0
3,69,24,2
3,39,53,18
3,40,93,0
3,42,90,0
3,82,31,0
3,36,60,34
3,46,60,0
3,42,70,10
3,82,22,0
3,36,31,62
3,42,20,0
3,36,90,2
3,41,54,0
3,42,90,0
3,82,31,0
3,27,25,2
3,69,24,0
3,36,43,2
3,42,90,0
3,69,24,2
3,82,16,0
3,39,53,18
3,40,93,0
3,42,90,0
3,82,36,0
3,69,24,34
3,42,90,18
3,82,31,0
3,36,60,76
3,69,24,0
3,42,90,18
3,36,31,76
3,69,24,0
3,82,16,0
3,36,53,20
3,42,90,0
3,82,36,0
3,69,24,2
3,39,53,18
3,40,93,0
3,42,90,0
3,82,31,0
3,36,60,34
3,46,60,0
3,42,70,10
3,82,22,0
3,36,31,62
3,69,24,0
3,36,90,18
3,41,54,0
3,42,90,0
3,82,31,0
3,27,25,2
3,69,24,0
3,36,43,2
3,42,90,0
3,69,24,2
3,82,16,0
3,39,53,18
3,40,93,0
3,42,90,0
3,82,36,0
3,69,24,34
3,42,90,18
3,82,31,0
3,36,60,76
3,69,24,0
3,42,90,18
3,36,31,76
3,69,24,0
3,82,16,0
3,36,53,20
3,42,90,0
3,82,36,0
3,69,24,2
3,39,53,18
3,40,93,0
3,42,90,0
3,82,31,0
3,36,60,34
3,46,60,0
3,42,70,10
3,82,22,0
3,36,31,62
3,42,20,0
3,36,90,2
3,41,54,0
3,42,90,0
3,82,31,0
3,27,25,2
3,69,24,0
3,36,43,2
3,42,90,0
3,69,24,2
3,82,16,0
3,39,53,18
3,40,93,0
3,42,90,0
3,82,36,0
3,69,24,34
3,42,90,18
3,82,31,0
3,36,60,76
3,69,24,0
3,42,90,18
3,36,31,76
3,69,24,0
3,82,16,0
3,36,53,18
3,42,90,0
3,82,36,0
3,69,24,2
3,39,53,18
3,40,93,0
3,42,90,0
3,43,42,0
3,82,31,0
3,36,60,2
3,43,39,0
3,46,60,0
3,42,70,2
3,43,43,0
3,82,22,0
3,36,31,14
3,41,28,0
3,69,24,0
3,36,90,18
3,41,54,0
3,42,90,0
3,49,72,0
3,82,43,2
3,27,25,62
3,69,24,0
3,36,43,2
3,42,90,0
3,54,59,0
3,69,24,2
3,82,28,0
3,39,53,18
3,40,93,0
3,42,90,0
3,82,48,0
3,69,24,34
3,42,90,18
3,82,43,0
3,36,60,76
3,69,24,0
3,42,90,18
3,36,31,76
3,69,24,0
3,82,28,0
3,36,53,20
3,42,90,0
3,82,48,0
3,69,24,2
3,39,53,18
3,40,93,0
3,42,90,0
3,82,43,0
3,36,60,34
3,46,60,0
3,42,70,10
3,82,34,0
3,36,31,64
3,42,20,0
3,36,90,2
3,41,54,0
3,42,90,0
3,82,43,0
3,27,25,2
3,69,24,0
3,36,43,2
3,42,90,0
3,69,24,2
3,82,28,0
3,39,53,18
3,40,93,0
3,42,90,0
3,82,48,0
3,69,24,34
3,42,90,18
3,82,43,0
3,36,60,76
3,69,24,0
3,42,90,18
3,36,31,76
3,69,24,0
3,82,28,0
3,36,53,20
3,42,90,0
3,82,48,0
3,69,24,2
3,39,53,18
3,40,93,0
3,42,90,0
3,82,43,0
3,36,60,34
3,46,60,0
3,42,70,10
3,82,34,0
3,36,31,64
3,69,24,0
3,36,90,18
3,41,54,0
3,42,90,0
3,82,43,0
3,27,25,2
3,69,24,0
3,36,43,2
3,42,90,0
3,69,24,2
3,82,28,0
3,39,53,18
3,40,93,0
3,42,90,0
3,82,48,0
3,69,24,34
3,42,90,18
3,82,43,0
3,36,60,76
3,69,24,0
3,42,90,18
3,36,31,76
3,69,24,0
3,82,28,0
3,36,53,20
3,42,90,0
3,82,48,0
3,69,24,2
3,39,53,18
3,40,93,0
3,42,90,0
3,82,43,0
3,36,60,34
3,46,60,0
3,42,70,10
3,82,34,0
3,36,31,64
3,42,20,0
3,82,21,0
3,36,90,2
3,41,54,0
3,42,90,0
3,82,43,0
3,27,25,2
3,69,24,0
3,36,43,2
3,42,90,0
3,82,48,0
3,69,24,2
3,39,53,18
3,40,93,0
3,42,90,0
3,82,43,0
3,69,24,2
3,42,90,18
3,82,47,0
3,36,60,76
3,40,83,0
3,69,24,0
3,82,29,0
3,42,90,20
3,43,42,0
3,82,43,0
3,36,31,2
3,40,38,0
3,43,39,0
3,36,53,2
3,40,47,0
3,42,90,0
3,43,43,0
3,40,17,2
3,39,53,48
3,40,93,0
3,42,90,0
3,36,60,34
3,40,40,0
3,43,41,0
3,46,60,0
3,42,70,2
3,36,31,82
3,36,90,56
3,41,54,0
3,42,101,0
3,49,72,0
3,51,76,0
3,27,25,2
3,42,81,0
3,36,48,2
3,42,101,0
3,51,67,0
3,54,79,0
3,42,81,54
3,39,53,50
3,40,93,0
3,42,101,0
3,42,81,34
3,42,101,50
3,51,56,0
3,54,79,0
3,36,77,68
3,42,81,0
3,42,101,30
3,51,62,0
3,36,59,70
3,42,81,0
3,36,42,48
3,42,101,0
3,51,68,0
3,54,79,0
3,42,81,2
3,39,53,50
3,40,93,0
3,42,101,0
3,36,77,34
3,42,81,0
3,46,71,10
3,51,56,0
3,54,79,0
3,36,59,64
3,42,81,0
3,36,90,50
3,41,54,0
3,42,101,0
3,51,76,0
3,27,25,2
3,42,81,0
3,36,48,2
3,42,101,0
3,51,67,0
3,54,79,0
3,42,81,54
3,39,53,50
3,40,93,0
3,42,101,0
3,42,81,34
3,42,101,50
3,51,56,0
3,54,79,0
3,36,77,68
3,42,81,0
3,42,101,30
3,51,62,0
3,36,59,72
3,42,81,0
3,36,42,48
3,42,101,0
3,51,68,0
3,54,79,0
3,42,81,2
3,39,53,50
3,40,93,0
3,42,101,0
3,36,77,34
3,42,81,0
3,46,71,10
3,51,56,0
3,54,79,0
3,36,59,64
3,42,81,0
3,36,90,50
3,41,54,0
3,42,101,0
3,49,72,0
3,51,76,0
3,27,25,2
3,42,81,0
3,36,48,2
3,42,101,0
3,51,67,0
3,54,79,0
3,42,81,54
3,39,53,50
3,40,93,0
3,42,101,0
3,42,81,34
3,42,101,50
3,51,56,0
3,54,79,0
3,36,77,68
3,42,81,0
3,42,101,30
3,51,62,0
3,36,59,72
3,42,81,0
3,36,42,48
3,42,101,0
3,51,68,0
3,54,79,0
3,42,81,2
3,39,53,50
3,40,93,0
3,42,101,0
3,36,77,34
3,42,81,0
3,46,71,10
3,51,56,0
3,54,79,0
3,36,59,64
3,42,81,0
3,36,90,50
3,41,54,0
3,42,101,0
3,51,76,0
3,27,25,2
3,42,81,0
3,36,48,2
3,42,101,0
3,51,67,0
3,54,79,0
3,42,81,54
3,39,53,50
3,40,93,0
3,42,101,0
3,42,81,34
3,42,101,50
3,51,56,0
3,54,79,0
3,36,77,68
3,42,81,0
3,42,101,30
3,51,62,0
3,36,59,72
3,42,81,0
3,36,42,48
3,42,101,0
3,51,68,0
3,54,79,0
3,42,81,2
3,39,53,50
3,40,93,0
3,42,101,0
3,43,42,0
3,36,77,2
3,40,48,0
3,42,81,0
3,43,39,0
3,39,32,4
3,40,57,0
3,43,43,0
3,46,71,0
3,51,56,0
3,54,79,0
3,36,59,14
3,40,27,0
3,41,28,0
3,42,81,0
3,36,90,18
3,41,54,0
3,42,101,0
3,49,72,0
3,51,76,0
3,27,25,2
3,42,81,0
3,36,48,2
3,42,101,0
3,51,67,0
3,54,79,0
3,42,81,54
3,39,53,50
3,40,93,0
3,42,101,0
3,42,81,34
3,42,101,50
3,51,56,0
3,54,79,0
3,36,77,68
3,42,81,0
3,42,101,30
3,51,62,0
3,36,59,72
3,42,81,0
3,36,42,48
3,42,101,0
3,51,68,0
3,54,79,0
3,42,81,2
3,39,53,50
3,40,93,0
3,42,101,0
3,36,77,34
3,42,81,0
