track,note,velocity,time
1,29,102,2166
1,29,103,54
1,29,102,270
1,29,101,50
1,29,101,50
1,28,103,314
1,28,101,46
1,28,102,212
1,28,98,44
1,28,102,46
1,31,100,2
1,32,99,6
1,33,102,16
1,33,103,54
1,33,102,270
1,33,101,50
1,33,101,50
1,31,103,314
1,31,101,46
1,31,102,212
1,31,98,44
1,40,102,2
1,38,103,2
1,35,98,2
1,31,99,2
1,29,102,16
1,29,102,342
1,29,101,50
1,29,101,50
1,28,102,314
1,28,102,334
1,28,98,44
1,28,102,46
1,31,100,2
1,32,99,6
1,33,102,16
1,33,102,342
1,33,101,50
1,33,101,50
1,31,103,314
1,31,102,334
1,31,98,44
1,33,102,46
1,31,103,34
1,28,99,62
1,29,102,16
1,29,102,342
1,29,101,50
1,29,101,50
1,28,102,314
1,28,102,334
1,28,98,44
1,28,102,46
1,31,100,2
1,32,99,6
1,33,102,16
1,33,102,342
1,33,101,50
1,33,101,50
1,31,103,314
1,31,102,430
1,31,98,44
1,31,102,46
1,33,100,2
1,31,99,6
1,29,102,16
1,29,102,342
1,29,101,50
1,29,101,50
1,28,103,314
1,28,102,334
1,28,98,44
1,28,102,46
1,31,103,2
1,28,98,2
1,32,99,2
1,33,102,16
1,31,102,342
1,33,101,50
1,33,100,50
1,33,102,26
1,31,98,122
1,33,102,32
1,31,102,334
1,33,98,44
1,33,102,46
1,36,100,36
1,33,99,6
1,31,98,6
1,33,102,32
1,33,102,342
1,33,101,50
1,33,101,50
1,33,103,314
1,33,102,334
1,33,98,44
1,33,102,46
1,33,103,34
1,28,99,62
1,26,102,16
1,26,102,342
1,26,101,50
1,26,101,50
1,26,102,314
1,26,102,334
1,26,98,44
1,38,102,46
1,36,100,2
1,33,99,6
1,29,102,16
1,29,102,334
1,29,98,44
1,29,102,46
1,29,102,194
1,29,100,46
1,29,102,238
1,29,98,44
1,29,102,46
1,31,102,194
1,31,102,334
1,31,98,44
1,31,102,46
1,31,102,194
1,31,100,46
1,31,102,238
1,31,98,44
1,31,102,238
1,29,102,2
1,29,103,54
1,29,102,270
1,29,101,50
1,29,101,50
1,28,103,314
1,28,101,46
1,28,102,212
1,28,98,44
1,28,102,46
1,31,100,2
1,32,99,6
1,33,102,16
1,33,103,54
1,33,102,270
1,33,101,50
1,33,101,50
1,31,103,314
1,31,101,46
1,31,102,212
1,31,98,44
1,40,102,2
1,38,103,2
1,35,98,2
1,31,99,2
1,29,102,16
1,29,102,342
1,29,101,50
1,29,101,50
1,28,102,314
1,28,102,334
1,28,98,44
1,28,102,46
1,31,100,2
1,32,99,6
1,33,102,16
1,33,102,342
1,33,101,50
1,33,101,50
1,31,103,314
1,31,102,334
1,31,98,44
1,33,102,46
1,31,103,34
1,28,99,62
1,29,102,16
1,29,102,342
1,29,101,50
1,29,101,50
1,28,102,314
1,28,102,334
1,28,98,44
1,28,102,46
1,31,100,2
1,32,99,6
1,33,102,16
1,33,102,342
1,33,101,50
1,33,101,50
1,31,103,314
1,31,102,430
1,31,98,44
1,31,102,46
1,33,100,2
1,31,99,6
1,29,102,16
1,29,102,342
1,29,101,50
1,29,101,50
1,28,103,314
1,28,102,334
1,28,98,44
1,28,102,46
1,31,103,2
1,28,98,2
1,32,99,2
1,33,102,16
1,31,102,342
1,33,101,50
1,33,100,50
1,33,102,26
1,31,98,122
1,33,102,32
1,31,102,334
1,33,98,44
1,33,102,46
1,36,100,36
1,33,99,6
1,31,98,6
1,33,102,32
1,33,102,342
1,33,101,50
1,33,101,50
1,33,103,314
1,33,102,334
1,33,98,44
1,33,102,46
1,33,103,34
1,28,99,62
1,26,102,16
1,26,102,342
1,26,101,50
1,26,101,50
1,26,102,314
1,26,102,334
1,26,98,44
1,38,102,46
1,36,100,2
1,33,99,6
1,29,102,16
1,29,102,334
1,29,98,44
1,29,102,46
1,29,102,194
1,29,100,46
1,29,102,238
1,29,98,44
1,29,102,46
1,31,102,194
1,31,102,334
1,31,98,44
1,31,102,46
1,31,102,194
1,31,100,46
1,31,102,238
1,31,98,44
1,31,102,238
1,29,102,2
1,29,103,54
1,29,102,270
1,29,101,50
1,29,101,50
1,28,103,314
1,28,101,46
1,28,102,212
1,28,98,44
1,28,102,46
1,31,100,2
1,32,99,6
1,33,102,16
1,33,103,54
1,33,102,270
1,33,101,50
1,33,101,50
1,31,103,314
1,31,101,46
1,31,102,212
1,31,98,44
1,40,102,2
1,38,103,2
1,35,98,2
1,31,99,2
1,29,102,16
1,29,102,342
1,29,101,50
1,29,101,50
1,28,102,314
1,28,102,334
1,28,98,44
1,28,102,46
1,31,100,2
1,32,99,6
1,33,102,16
1,33,102,342
1,33,101,50
1,33,101,50
1,31,103,314
1,31,102,334
1,31,98,44
1,33,102,46
1,31,103,34
1,28,99,62
1,29,102,16
1,29,102,342
1,29,101,50
1,29,101,50
1,28,102,314
1,28,102,334
1,28,98,44
1,28,102,46
1,31,100,2
1,32,99,6
1,33,102,16
1,33,102,342
1,33,101,50
1,33,101,50
1,31,103,314
1,31,102,430
1,31,98,44
1,31,102,46
1,33,100,2
1,31,99,6
1,29,102,16
1,29,102,342
1,29,101,50
1,29,101,50
1,28,103,314
1,28,102,334
1,28,98,44
1,28,102,46
1,31,103,2
1,28,98,2
1,32,99,2
1,33,102,16
1,31,102,342
1,33,101,50
1,33,100,50
1,33,102,26
1,31,98,122
1,33,102,992
1,36,100,36
1,33,99,6
1,31,98,6
1,33,102,32
1,33,102,342
1,33,101,50
1,33,101,50
1,33,103,314
1,33,102,334
1,33,98,44
1,33,102,46
1,33,103,34
1,28,99,62
1,26,102,16
1,26,102,342
1,26,101,50
1,26,101,50
1,26,102,314
1,26,102,334
1,26,98,44
1,38,102,46
1,36,100,2
1,33,99,6
1,29,102,16
1,29,102,334
1,29,98,44
1,29,102,46
1,29,102,194
1,29,100,46
1,29,102,238
1,29,98,44
1,29,102,46
1,31,102,194
1,31,102,334
1,31,98,44
1,31,102,46
1,31,102,194
1,31,100,46
1,31,102,238
1,31,98,44
1,31,102,238
1,29,102,2
1,29,103,54
1,29,102,270
1,29,101,50
1,29,101,50
1,28,103,314
1,28,101,46
1,28,102,212
1,28,98,44
1,28,102,46
1,31,100,2
1,32,99,6
1,33,102,16
1,33,103,54
1,33,102,270
1,33,101,50
1,33,101,50
1,31,103,314
1,31,101,46
1,31,102,212
1,31,98,44
1,40,102,2
1,38,103,2
1,35,98,2
1,31,99,2
1,29,102,16
1,29,102,342
1,29,101,50
1,29,101,50
1,28,102,314
1,28,102,334
1,28,98,44
1,28,102,46
1,31,100,2
1,32,99,6
1,33,102,16
1,33,102,342
1,33,101,50
1,33,101,50
1,31,103,314
1,31,102,334
1,31,98,44
1,33,102,46
1,31,103,34
1,28,99,62
1,29,102,16
1,29,103,54
1,29,102,270
1,29,101,50
1,29,101,50
1,28,103,314
1,28,101,46
1,28,102,212
1,28,98,44
1,28,102,46
1,31,100,2
1,32,99,6
1,33,102,16
1,33,103,54
1,33,102,270
1,33,101,50
1,33,101,50
1,31,103,314
1,31,101,46
1,31,102,212
1,31,98,44
1,40,102,2
1,38,103,2
1,35,98,2
1,31,99,2
1,29,102,16
1,29,102,342
1,29,101,50
1,29,101,50
1,28,102,314
1,28,102,334
1,28,98,44
1,28,102,46
1,31,100,2
1,32,99,6
1,33,102,16
1,33,102,342
1,33,101,50
1,33,101,50
1,31,103,314
1,31,102,334
1,31,98,44
1,33,102,46
1,31,103,34
1,28,99,62
1,29,102,16
2,41,87,2184
2,53,86,0
2,57,91,0
2,60,86,0
2,64,86,0
2,40,72,8
2,52,77,0
2,56,82,0
2,59,85,0
2,62,87,0
2,40,79,8
2,56,82,0
2,59,91,0
2,62,88,0
2,45,87,8
2,52,88,0
2,57,90,0
2,60,88,0
2,43,80,8
2,52,80,8
2,43,87,8
2,55,86,0
2,59,91,0
2,62,86,0
2,41,87,8
2,53,86,0
2,57,91,0
2,60,86,0
2,64,86,0
2,40,72,8
2,52,77,0
2,56,82,0
2,59,85,0
2,62,87,0
2,40,79,8
2,56,82,0
2,59,91,0
2,62,88,0
2,45,87,8
2,52,88,0
2,57,90,0
2,60,88,0
2,43,80,8
2,52,80,8
2,43,87,8
2,55,86,0
2,59,91,0
2,62,86,0
2,41,87,8
2,53,86,0
2,57,91,0
2,60,86,0
2,64,86,0
2,40,72,8
2,52,77,0
2,56,82,0
2,59,85,0
2,62,87,0
2,52,89,8
2,64,89,0
2,56,92,8
2,68,92,0
2,53,87,8
2,65,87,0
2,45,87,8
2,52,88,0
2,57,90,0
2,60,88,0
2,43,80,8
2,52,80,8
2,43,87,8
2,55,86,0
2,59,91,0
2,62,86,0
2,41,87,8
2,53,86,0
2,57,91,0
2,60,86,0
2,64,86,0
2,40,72,8
2,52,77,0
2,56,82,0
2,59,85,0
2,62,87,0
2,62,88,8
2,40,79,8
2,56,82,0
2,60,91,0
2,45,87,8
2,52,88,0
2,57,90,0
2,60,88,0
2,45,87,8
2,50,88,0
2,55,90,0
2,59,88,0
2,62,88,876
2,64,87,86
2,45,84,2
2,52,84,0
2,60,84,0
2,69,92,2
2,45,84,8
2,52,84,0
2,60,84,0
2,69,93,0
2,45,84,62
2,52,84,0
2,61,84,0
2,69,96,10
2,45,82,8
2,52,79,0
2,57,82,0
2,61,75,0
2,38,84,22
2,50,72,0
2,53,79,0
2,57,76,0
2,60,66,0
2,38,84,50
2,50,78,0
2,53,77,0
2,57,77,0
2,60,82,0
2,41,78,120
2,48,80,0
2,53,80,0
2,56,77,0
2,60,84,0
2,41,79,50
2,48,82,0
2,53,78,0
2,56,77,0
2,60,85,0
2,43,74,94
2,48,78,0
2,53,79,0
2,57,78,0
2,43,70,8
2,48,80,0
2,53,81,0
2,57,79,0
2,43,76,8
2,50,84,0
2,55,86,0
2,59,88,0
2,43,75,2
2,55,79,0
2,60,82,0
2,43,80,8
2,55,77,0
2,62,87,0
2,41,87,338
2,53,86,0
2,57,91,0
2,60,86,0
2,64,86,0
2,40,72,8
2,52,77,0
2,56,82,0
2,59,85,0
2,62,87,0
2,40,79,8
2,56,82,0
2,59,91,0
2,62,88,0
2,45,87,8
2,52,88,0
2,57,90,0
2,60,88,0
2,43,80,8
2,52,80,8
2,43,87,8
2,55,86,0
2,59,91,0
2,62,86,0
2,41,87,8
2,53,86,0
2,57,91,0
2,60,86,0
2,64,86,0
2,40,72,8
2,52,77,0
2,56,82,0
2,59,85,0
2,62,87,0
2,40,79,8
2,56,82,0
2,59,91,0
2,62,88,0
2,45,87,8
2,52,88,0
2,57,90,0
2,60,88,0
2,43,80,8
2,52,80,8
2,43,87,8
2,55,86,0
2,59,91,0
2,62,86,0
2,41,87,8
2,53,86,0
2,57,91,0
2,60,86,0
2,64,86,0
2,40,72,8
2,52,77,0
2,56,82,0
2,59,85,0
2,62,87,0
2,52,89,8
2,64,89,0
2,56,92,8
2,68,92,0
2,53,87,8
2,65,87,0
2,45,87,8
2,52,88,0
2,57,90,0
2,60,88,0
2,43,80,8
2,52,80,8
2,43,87,8
2,55,86,0
2,59,91,0
2,62,86,0
2,41,87,8
2,53,86,0
2,57,91,0
2,60,86,0
2,64,86,0
2,40,72,8
2,52,77,0
2,56,82,0
2,59,85,0
2,62,87,0
2,62,88,8
2,40,79,8
2,56,82,0
2,60,91,0
2,45,87,8
2,52,88,0
2,57,90,0
2,60,88,0
2,45,87,8
2,50,88,0
2,55,90,0
2,59,88,0
2,62,88,876
2,64,87,86
2,45,84,2
2,52,84,0
2,60,84,0
2,69,92,2
2,45,84,8
2,52,84,0
2,60,84,0
2,69,93,0
2,45,84,62
2,52,84,0
2,61,84,0
2,69,96,10
2,45,82,8
2,52,79,0
2,57,82,0
2,61,75,0
2,38,84,22
2,50,72,0
2,53,79,0
2,57,76,0
2,60,66,0
2,38,84,50
2,50,78,0
2,53,77,0
2,57,77,0
2,60,82,0
2,41,78,120
2,48,80,0
2,53,80,0
2,56,77,0
2,60,84,0
2,41,79,50
2,48,82,0
2,53,78,0
2,56,77,0
2,60,85,0
2,43,74,94
2,48,78,0
2,53,79,0
2,57,78,0
2,43,70,8
2,48,80,0
2,53,81,0
2,57,79,0
2,43,76,8
2,50,84,0
2,55,86,0
2,59,88,0
2,43,75,2
2,55,79,0
2,60,82,0
2,43,80,8
2,55,77,0
2,62,87,0
2,41,87,338
2,53,86,0
2,57,91,0
2,60,86,0
2,64,86,0
2,40,72,8
2,52,77,0
2,56,82,0
2,59,85,0
2,62,87,0
2,40,79,8
2,56,82,0
2,59,91,0
2,62,88,0
2,45,87,8
2,52,88,0
2,57,90,0
2,60,88,0
2,43,80,8
2,52,80,8
2,43,87,8
2,55,86,0
2,59,91,0
2,62,86,0
2,41,87,8
2,53,86,0
2,57,91,0
2,60,86,0
2,64,86,0
2,40,72,8
2,52,77,0
2,56,82,0
2,59,85,0
2,62,87,0
2,40,79,8
2,56,82,0
2,59,91,0
2,62,88,0
2,45,87,8
2,52,88,0
2,57,90,0
2,60,88,0
2,43,80,8
2,52,80,8
2,43,87,8
2,55,86,0
2,59,91,0
2,62,86,0
2,45,84,12296
2,52,84,0
2,61,84,0
2,69,96,10
2,45,82,8
2,52,79,0
2,57,82,0
2,61,75,0
2,38,84,22
2,50,72,0
2,53,79,0
2,57,76,0
2,60,66,0
2,38,84,50
2,50,78,0
2,53,77,0
2,57,77,0
2,60,82,0
2,41,78,120
2,48,80,0
2,53,80,0
2,56,77,0
2,60,84,0
2,41,79,50
2,48,82,0
2,53,78,0
2,56,77,0
2,60,85,0
2,43,74,94
2,48,78,0
2,53,79,0
2,57,78,0
2,43,70,8
2,48,80,0
2,53,81,0
2,57,79,0
2,43,76,8
2,50,84,0
2,55,86,0
2,59,88,0
2,43,75,2
2,55,79,0
2,60,82,0
2,43,80,8
2,55,77,0
2,62,87,0
2,41,87,338
2,53,86,0
2,57,91,0
2,60,86,0
2,64,86,0
2,40,72,8
2,52,77,0
2,56,82,0
2,59,85,0
2,62,87,0
2,40,79,8
2,56,82,0
2,59,91,0
2,62,88,0
2,45,87,8
2,52,88,0
2,57,90,0
2,60,88,0
2,43,80,8
2,52,80,8
2,43,87,8
2,55,86,0
2,59,91,0
2,62,86,0
2,41,87,8
2,53,86,0
2,57,91,0
2,60,86,0
2,64,86,0
2,40,72,8
2,52,77,0
2,56,82,0
2,59,85,0
2,62,87,0
2,40,79,8
2,56,82,0
2,59,91,0
2,62,88,0
2,45,87,8
2,52,88,0
2,57,90,0
2,60,88,0
2,43,80,8
2,52,80,8
2,43,87,8
2,55,86,0
2,59,91,0
2,62,86,0
2,41,87,8
2,53,86,0
2,57,91,0
2,60,86,0
2,64,86,0
2,40,72,8
2,52,77,0
2,56,82,0
2,59,85,0
2,62,87,0
2,40,79,8
2,56,82,0
2,59,91,0
2,62,88,0
2,45,87,8
2,52,88,0
2,57,90,0
2,60,88,0
2,43,80,8
2,52,80,8
2,43,87,8
2,55,86,0
2,59,91,0
2,62,86,0
2,41,87,8
2,53,86,0
2,57,91,0
2,60,86,0
2,64,86,0
2,40,72,8
2,52,77,0
2,56,82,0
2,59,85,0
2,62,87,0
2,40,79,8
2,56,82,0
2,59,91,0
2,62,88,0
2,45,87,8
2,52,88,0
2,57,90,0
2,60,88,0
2,43,80,8
2,52,80,8
2,43,87,8
2,55,86,0
2,59,91,0
2,62,86,0
2,64,105,8
2,72,100,8
2,62,96,8
2,71,100,8
2,60,100,8
2,69,102,8
2,59,105,8
2,67,101,8
2,57,99,8
2,65,101,8
2,55,99,8
2,64,102,8
2,53,100,8
2,62,102,8
2,52,100,8
2,60,101,8
2,50,100,8
2,59,103,8
2,48,96,8
2,57,100,8
2,47,99,8
2,55,99,8
2,45,101,8
2,53,100,8
2,57,109,116
2,45,107,12
2,52,105,94
2,64,108,54
3,64,90,2
3,67,91,108
3,67,88,182
3,69,90,2
3,71,90,26
3,72,91,2
3,74,88,2
3,72,84,2
3,72,86,8
