track,note,velocity,time
1,84,80,77628
1,81,80,96
1,76,80,6
1,72,80,96
1,69,80,4
1,64,80,96
1,60,80,4
1,57,80,0
1,52,80,0
1,48,80,2
1,45,80,2
1,40,80,96
1,84,80,386
1,79,80,4
1,76,80,10
1,72,80,0
1,67,80,2
1,64,80,96
1,60,80,4
1,55,80,96
1,52,80,0
1,48,80,2
1,43,80,96
1,40,80,4
1,84,80,394
1,81,80,0
1,77,80,4
1,72,80,6
1,69,80,10
1,65,80,0
1,60,80,8
1,57,80,0
1,53,80,10
1,48,80,96
1,45,80,90
1,41,80,10
1,86,80,398
1,81,80,14
1,77,80,96
1,74,80,94
1,69,80,8
1,65,80,96
1,62,80,0
1,57,80,96
1,53,80,84
1,50,80,4
1,45,80,96
1,41,80,20
1,84,127,416
1,81,120,96
1,76,113,6
1,72,106,96
1,69,98,4
1,64,91,96
1,60,84,4
1,57,77,0
1,52,69,0
1,48,62,2
1,45,55,2
1,40,48,96
1,84,124,386
1,79,116,4
1,76,109,10
1,72,101,0
1,67,93,2
1,64,85,96
1,60,78,4
1,55,70,96
1,52,62,0
1,48,54,2
1,43,47,96
1,40,39,4
1,84,127,394
1,81,118,0
1,77,109,4
1,72,100,6
1,69,91,10
1,65,82,0
1,60,73,8
1,57,64,0
1,53,55,10
1,48,46,96
1,45,37,90
1,41,28,10
1,86,120,398
1,81,112,14
1,77,104,96
1,74,96,94
1,69,88,8
1,65,80,96
1,62,72,0
1,57,64,96
1,53,56,84
1,50,47,4
1,45,39,96
1,41,31,20
1,84,80,37280
1,81,80,96
1,76,80,6
1,72,80,96
1,69,80,4
1,64,80,96
1,60,80,4
1,57,80,0
1,52,80,0
1,48,80,2
1,45,80,2
1,40,80,96
1,84,80,386
1,79,80,4
1,76,80,10
1,72,80,0
1,67,80,2
1,64,80,96
1,60,80,4
1,55,80,96
1,52,80,0
1,48,80,2
1,43,80,96
1,40,80,4
1,84,80,394
1,81,80,0
1,77,80,4
1,72,80,6
1,69,80,10
1,65,80,0
1,60,80,8
1,57,80,0
1,53,80,10
1,48,80,96
1,45,80,90
1,41,80,10
1,86,80,398
1,81,80,14
1,77,80,96
1,74,80,94
1,69,80,8
1,65,80,96
1,62,80,0
1,57,80,96
1,53,80,84
1,50,80,4
1,45,80,96
1,41,80,20
1,84,127,416
1,81,120,96
1,76,113,6
1,72,106,96
1,69,98,4
1,64,91,96
1,60,84,4
1,57,77,0
1,52,69,0
1,48,62,2
1,45,55,2
1,40,48,96
1,84,124,386
1,79,116,4
1,76,109,10
1,72,101,0
1,67,93,2
1,64,85,96
1,60,78,4
1,55,70,96
1,52,62,0
1,48,54,2
1,43,47,96
1,40,39,4
1,84,127,394
1,81,118,0
1,77,109,4
1,72,100,6
1,69,91,10
1,65,82,0
1,60,73,8
1,57,64,0
1,53,55,10
1,48,46,96
1,45,37,90
1,41,28,10
1,86,120,398
1,81,112,14
1,77,104,96
1,74,96,94
1,69,88,8
1,65,80,96
1,62,72,0
1,57,64,96
1,53,56,84
1,50,47,4
1,45,39,96
1,41,31,20
1,84,80,12704
1,81,80,96
1,76,80,6
1,72,80,96
1,69,80,4
1,64,80,96
1,60,80,4
1,57,80,0
1,52,80,0
1,48,80,2
1,45,80,2
1,40,80,96
1,84,80,386
1,79,80,4
1,76,80,10
1,72,80,0
1,67,80,2
1,64,80,96
1,60,80,4
1,55,80,96
1,52,80,0
1,48,80,2
1,43,80,96
1,40,80,4
1,84,80,394
1,81,80,0
1,77,80,4
1,72,80,6
1,69,80,10
1,65,80,0
1,60,80,8
1,57,80,0
1,53,80,10
1,48,80,96
1,45,80,90
1,41,80,10
1,86,80,398
1,81,80,14
1,77,80,96
1,74,80,94
1,69,80,8
1,65,80,96
1,62,80,0
1,57,80,96
1,53,80,84
1,50,80,4
1,45,80,96
1,41,80,20
1,84,127,416
1,81,120,96
1,76,113,6
1,72,106,96
1,69,98,4
1,64,91,96
1,60,84,4
1,57,77,0
1,52,69,0
1,48,62,2
1,45,55,2
1,40,48,96
1,84,124,386
1,79,116,4
1,76,109,10
1,72,101,0
1,67,93,2
1,64,85,96
1,60,78,4
1,55,70,96
1,52,62,0
1,48,54,2
1,43,47,96
1,40,39,4
1,84,127,394
1,81,118,0
1,77,109,4
1,72,100,6
1,69,91,10
1,65,82,0
1,60,73,8
1,57,64,0
1,53,55,10
1,48,46,96
1,45,37,90
1,41,28,10
1,86,120,398
1,81,112,14
1,77,104,96
1,74,96,94
1,69,88,8
1,65,80,96
1,62,72,0
1,57,64,96
1,53,56,84
1,50,47,4
1,45,39,96
1,41,31,20
2,33,127,28764
2,26,100,4682
2,24,100,342
2,36,120,8
2,31,97,26
2,33,120,8
2,24,112,4076
2,26,120,96
2,33,127,74
2,33,127,80
2,33,127,76
2,33,127,74
2,33,127,92
2,33,127,76
2,31,127,30
2,33,127,26
2,33,127,80
2,33,127,80
2,33,127,80
2,33,127,52
2,33,127,50
2,33,127,56
2,31,127,74
2,33,127,20
2,33,127,80
2,33,127,76
2,33,127,74
2,33,127,92
2,33,127,76
2,31,127,30
2,33,127,26
2,33,127,80
2,33,127,80
2,33,127,80
2,33,127,52
2,33,127,50
2,33,127,56
2,31,127,74
2,33,127,20
2,33,127,80
2,33,127,76
2,33,127,74
2,33,127,92
2,33,127,76
2,31,127,30
2,33,127,26
2,33,127,80
2,33,127,80
2,33,127,80
2,33,127,52
2,33,127,50
2,33,127,56
2,31,127,74
2,33,127,20
2,33,127,80
2,33,127,76
2,33,127,74
2,33,127,92
2,33,127,76
2,31,127,30
2,33,127,26
2,33,127,80
2,33,127,80
2,33,127,80
2,33,127,52
2,33,127,50
2,33,127,56
2,31,127,74
2,33,127,20
2,33,127,102
2,33,127,276
2,33,127,150
2,33,100,2446
2,33,127,138
2,31,127,1320
2,33,127,18
2,33,127,132
2,33,127,300
2,33,127,166
2,33,127,1490
2,33,127,154
2,33,127,328
2,33,127,172
2,31,127,1304
2,33,127,10
2,33,127,44
2,33,127,42
2,33,127,36
2,33,127,154
2,33,127,60
2,33,127,48
2,33,127,42
2,33,127,48
2,33,127,42
2,33,127,44
2,33,127,60
2,33,127,42
2,33,127,36
2,33,127,60
2,33,127,108
2,33,127,40
2,33,127,72
2,33,127,48
2,33,127,48
2,33,127,48
2,33,127,42
2,33,127,44
2,38,127,48
2,38,127,44
2,38,127,42
2,38,127,36
2,38,127,154
2,38,127,60
2,38,127,48
2,38,127,42
2,38,127,48
2,38,127,42
2,38,127,44
2,31,127,60
2,31,127,42
2,31,127,36
2,31,127,60
2,31,127,108
2,31,127,40
2,31,127,72
2,31,127,48
2,31,127,48
2,31,127,48
2,31,127,42
2,31,127,44
2,33,127,48
2,33,127,44
2,33,127,42
2,33,127,36
2,33,127,154
2,33,127,60
2,33,127,48
2,33,127,42
2,33,127,48
2,33,127,42
2,33,127,44
2,33,127,60
2,33,127,42
2,33,127,36
2,33,127,60
2,33,127,108
2,33,127,40
2,33,127,72
2,33,127,48
2,33,127,48
2,33,127,48
2,33,127,42
2,33,127,44
2,38,127,48
2,38,127,44
2,38,127,42
2,38,127,36
2,38,127,154
2,38,127,60
2,38,127,48
2,38,127,42
2,38,127,48
2,38,127,42
2,38,127,44
2,31,127,60
2,31,127,42
2,31,127,36
2,31,127,60
2,31,127,108
2,31,127,40
2,31,127,72
2,31,127,48
2,31,127,48
2,31,127,48
2,31,127,42
2,31,127,44
2,33,127,48
2,33,127,44
2,33,127,42
2,33,127,36
2,33,127,154
2,33,127,60
2,33,127,48
2,33,127,42
2,33,127,48
2,33,127,42
2,33,127,44
2,36,127,60
2,36,127,42
2,36,127,36
2,36,127,60
2,36,127,108
2,36,127,40
2,36,127,72
2,36,127,48
2,36,127,48
2,36,127,48
2,36,127,42
2,36,127,44
2,29,127,48
2,29,127,44
2,29,127,42
2,29,127,36
2,29,127,154
2,29,127,60
2,29,127,48
2,29,127,42
2,29,127,48
2,29,127,42
2,29,127,44
2,38,127,60
2,38,127,42
2,38,127,36
2,38,127,60
2,38,127,108
2,38,127,40
2,38,127,72
2,38,127,48
2,38,127,48
2,38,127,48
2,38,127,42
2,38,127,44
2,33,127,48
2,33,127,44
2,33,127,42
2,33,127,36
2,33,127,154
2,33,127,60
2,33,127,48
2,33,127,42
2,33,127,48
2,33,127,42
2,33,127,44
2,36,127,60
2,36,127,42
2,36,127,36
2,36,127,60
2,36,127,108
2,36,127,40
2,36,127,72
2,36,127,48
2,36,127,48
2,36,127,48
2,36,127,42
2,36,127,44
2,29,127,48
2,29,127,44
2,29,127,42
2,29,127,36
2,29,127,154
2,29,127,60
2,29,127,48
2,29,127,42
2,29,127,48
2,29,127,42
2,29,127,44
2,38,127,60
2,38,127,42
2,38,127,36
2,38,127,60
2,38,127,108
2,38,127,40
2,38,127,72
2,38,127,48
2,38,127,48
2,38,127,48
2,38,127,42
2,38,127,44
2,33,127,48
2,33,127,80
2,33,127,76
2,33,127,74
2,33,127,92
2,33,127,76
2,31,127,30
2,33,127,26
2,33,127,80
2,33,127,80
2,33,127,80
2,33,127,52
2,33,127,50
2,33,127,56
2,31,127,74
2,33,127,20
2,33,127,80
2,33,127,76
2,33,127,74
2,33,127,92
2,33,127,76
2,31,127,30
2,33,127,26
2,33,127,80
2,33,127,80
2,33,127,80
2,33,127,52
2,33,127,50
2,33,127,56
2,31,127,74
2,33,127,20
2,33,127,80
2,33,127,76
2,33,127,74
2,33,127,92
2,33,127,76
2,31,127,30
2,33,127,26
2,33,127,80
2,33,127,80
2,33,127,80
2,33,127,52
2,33,127,50
2,33,127,56
2,31,127,74
2,33,127,20
2,33,127,80
2,33,127,76
2,33,127,74
2,33,127,92
2,33,127,76
2,31,127,30
2,33,127,26
2,33,127,80
2,33,127,80
2,33,127,80
2,33,127,52
2,33,127,50
2,33,127,56
2,31,127,74
2,33,127,20
2,33,127,102
2,33,127,276
2,33,127,150
2,33,100,2446
2,33,127,138
2,31,127,1320
2,33,127,18
2,33,127,132
2,33,127,300
2,33,127,166
2,33,127,1490
2,33,127,154
2,33,127,328
2,33,127,172
2,31,127,1304
2,33,127,10
2,33,127,44
2,33,127,42
2,33,127,36
2,33,127,154
2,33,127,60
2,33,127,48
2,33,127,42
2,33,127,48
2,33,127,42
2,33,127,44
2,33,127,60
2,33,127,42
2,33,127,36
2,33,127,60
2,33,127,108
2,33,127,40
2,33,127,72
2,33,127,48
2,33,127,48
2,33,127,48
2,33,127,42
2,33,127,44
2,38,127,48
2,38,127,44
2,38,127,42
2,38,127,36
2,38,127,154
2,38,127,60
2,38,127,48
2,38,127,42
2,38,127,48
2,38,127,42
2,38,127,44
2,31,127,60
2,31,127,42
2,31,127,36
2,31,127,60
2,31,127,108
2,31,127,40
2,31,127,72
2,31,127,48
2,31,127,48
2,31,127,48
2,31,127,42
2,31,127,44
2,33,127,48
2,33,127,44
2,33,127,42
2,33,127,36
2,33,127,154
2,33,127,60
2,33,127,48
2,33,127,42
2,33,127,48
2,33,127,42
2,33,127,44
2,33,127,60
2,33,127,42
2,33,127,36
2,33,127,60
2,33,127,108
2,33,127,40
2,33,127,72
2,33,127,48
2,33,127,48
2,33,127,48
2,33,127,42
2,33,127,44
2,38,127,48
2,38,127,44
2,38,127,42
2,38,127,36
2,38,127,154
2,38,127,60
2,38,127,48
2,38,127,42
2,38,127,48
2,38,127,42
2,38,127,44
2,31,127,60
2,31,127,42
2,31,127,36
2,31,127,60
2,31,127,108
2,31,127,40
2,31,127,72
2,31,127,48
2,31,127,48
2,31,127,48
2,31,127,42
2,31,127,44
2,33,127,48
2,26,100,4682
2,24,100,342
2,36,120,8
2,31,97,26
2,33,120,8
2,24,112,4076
2,26,120,96
2,33,127,74
2,33,127,80
2,33,127,76
2,33,127,74
2,33,127,92
2,33,127,76
2,31,127,30
2,33,127,26
2,33,127,80
2,33,127,80
2,33,127,80
2,33,127,52
2,33,127,50
2,33,127,56
2,31,127,74
2,33,127,20
2,33,127,80
2,33,127,76
2,33,127,74
2,33,127,92
2,33,127,76
2,31,127,30
2,33,127,26
2,33,127,80
2,33,127,80
2,33,127,80
2,33,127,52
2,33,127,50
2,33,127,56
2,31,127,74
2,33,127,20
2,33,127,80
2,33,127,76
2,33,127,74
2,33,127,92
2,33,127,76
2,31,127,30
2,33,127,26
2,33,127,80
2,33,127,80
2,33,127,80
2,33,127,52
2,33,127,50
2,33,127,56
2,31,127,74
2,33,127,20
2,33,127,80
2,33,127,76
2,33,127,74
2,33,127,92
2,33,127,76
2,31,127,30
2,33,127,26
2,33,127,80
2,33,127,80
2,33,127,80
2,33,127,52
2,33,127,50
2,33,127,56
2,31,127,74
2,33,127,20
2,33,127,44
2,33,127,42
2,33,127,36
2,33,127,154
2,33,127,60
2,33,127,48
2,33,127,42
2,33,127,48
2,33,127,42
2,33,127,44
2,36,127,60
2,36,127,42
2,36,127,36
2,36,127,60
2,36,127,108
2,36,127,40
2,36,127,72
2,36,127,48
2,36,127,48
2,36,127,48
2,36,127,42
2,36,127,44
2,29,127,48
2,29,127,44
2,29,127,42
2,29,127,36
2,29,127,154
2,29,127,60
2,29,127,48
2,29,127,42
2,29,127,48
2,29,127,42
2,29,127,44
2,38,127,60
2,38,127,42
2,38,127,36
2,38,127,60
2,38,127,108
2,38,127,40
2,38,127,72
2,38,127,48
2,38,127,48
2,38,127,48
2,38,127,42
2,38,127,44
2,33,127,48
2,33,127,44
2,33,127,42
2,33,127,36
2,33,127,154
2,33,127,60
2,33,127,48
2,33,127,42
2,33,127,48
2,33,127,42
2,33,127,44
2,36,127,60
2,36,127,42
2,36,127,36
2,36,127,60
2,36,127,108
2,36,127,40
2,36,127,72
2,36,127,48
2,36,127,48
2,36,127,48
2,36,127,42
2,36,127,44
2,29,127,48
2,29,127,44
2,29,127,42
2,29,127,36
2,29,127,154
2,29,127,60
2,29,127,48
2,29,127,42
2,29,127,48
2,29,127,42
2,29,127,44
2,38,127,60
2,38,127,42
2,38,127,36
2,38,127,60
2,38,127,108
2,38,127,40
2,38,127,72
2,38,127,48
2,38,127,48
2,38,127,48
2,38,127,42
2,38,127,44
3,45,70,34344
3,45,70,168
3,45,70,170
3,45,70,320
3,45,70,92
3,48,70,240
3,48,70,154
3,48,70,170
3,48,70,330
3,48,70,82
3,41,89,234
3,41,70,191
3,41,70,150
3,41,70,332
3,41,70,84
3,38,77,228
3,38,70,191
3,38,70,148
3,38,70,320
3,38,70,76
3,33,97,12540
3,33,90,98
3,33,38,102
3,33,74,126
3,33,11,112
3,33,48,112
3,33,22,124
3,33,74,132
3,33,18,104
3,33,56,104
3,33,30,120
3,33,81,120
3,33,15,98
3,33,66,98
3,33,25,114
3,33,81,114
3,33,30,106
3,33,63,96
3,33,35,116
3,33,85,118
3,33,31,100
3,33,83,118
3,33,18,106
3,31,83,128
3,31,25,94
3,31,70,126
3,31,46,122
3,31,85,108
3,31,39,98
3,31,85,108
3,33,24,102
3,33,85,124
3,33,21,98
3,33,83,110
3,33,23,98
3,33,85,112
3,33,39,92
3,33,72,100
3,33,21,116
3,33,83,118
3,33,29,88
3,33,70,100
3,33,21,106
3,33,85,114
3,33,28,76
3,33,68,86
3,33,21,112
3,33,72,106
3,33,30,106
3,33,74,104
3,33,27,88
3,33,72,98
3,33,22,82
3,33,66,96
3,33,22,106
3,31,85,118
3,31,87,138
3,31,90,154
3,31,90,164
3,33,76,12316
3,33,72,164
3,33,83,162
3,33,76,116
3,33,81,138
3,33,87,148
3,33,85,150
3,33,81,70
3,36,100,142
3,36,72,150
3,36,81,162
3,36,83,120
3,36,74,156
3,36,83,158
3,36,66,146
3,36,87,70
3,29,74,134
3,29,83,160
3,29,90,150
3,29,76,102
3,29,83,146
3,29,83,144
3,29,81,146
3,29,92,72
3,38,87,126
3,38,92,148
3,38,92,152
3,38,92,94
3,38,85,144
3,38,90,158
3,38,74,146
3,38,90,72
3,33,72,140
3,33,85,164
3,33,87,160
3,33,81,134
3,33,85,138
