track,note,velocity,time
1,41,84,56764
1,36,100,26
1,36,100,26
1,41,84,1178
1,36,100,26
1,36,100,26
1,41,84,1178
1,36,100,26
1,36,100,26
1,41,84,1178
1,36,100,26
1,36,100,26
1,29,105,1178
1,29,105,112
1,29,105,74
1,29,105,120
1,29,105,112
1,27,105,26
1,27,105,112
1,27,105,74
1,27,105,120
1,27,105,112
1,25,105,26
1,25,105,112
1,25,105,74
1,25,105,120
1,25,105,112
1,24,105,26
1,24,105,112
1,29,105,58
1,29,105,110
1,27,105,112
1,29,105,38
1,29,105,112
1,29,105,74
1,29,105,120
1,29,105,112
1,27,105,26
1,27,105,112
1,27,105,74
1,27,105,120
1,27,105,112
1,25,105,26
1,25,105,112
1,25,105,74
1,25,105,120
1,25,105,112
1,24,105,26
1,24,105,112
1,29,105,58
1,29,105,110
1,27,105,112
1,29,110,34
1,29,110,112
1,29,110,74
1,29,110,120
1,29,110,112
1,27,110,26
1,27,110,112
1,27,110,74
1,27,110,120
1,27,110,112
1,25,110,26
1,25,110,112
1,25,110,74
1,25,110,120
1,25,110,112
1,27,110,26
1,27,110,112
1,27,110,74
1,29,110,120
1,29,110,22
1,27,110,22
1,29,110,26
1,29,110,112
1,29,110,74
1,29,110,120
1,29,110,112
1,27,110,26
1,27,110,112
1,27,110,74
1,27,110,120
1,27,110,112
1,25,110,26
1,25,110,112
1,25,110,74
1,25,110,120
1,25,110,112
1,27,110,26
1,27,110,112
1,27,110,74
1,29,110,120
1,29,110,22
1,27,110,22
1,29,90,26
1,29,90,50
1,29,90,92
1,32,90,24
1,32,90,50
1,32,90,92
1,31,90,24
1,31,90,50
1,31,90,92
1,27,90,24
1,27,90,50
1,27,90,92
1,25,90,24
1,25,90,50
1,25,90,92
1,29,90,24
1,29,90,50
1,29,90,92
1,24,90,24
1,24,90,50
1,27,90,92
1,29,90,48
1,29,90,48
1,27,90,48
1,24,90,48
1,29,90,48
1,29,90,50
1,29,90,92
1,32,90,24
1,32,90,50
1,32,90,92
1,31,90,24
1,31,90,50
1,31,90,92
1,27,90,24
1,27,90,50
1,29,90,50
1,27,90,8
1,25,90,50
1,25,90,50
1,25,90,92
1,29,90,24
1,29,90,50
1,29,90,92
1,24,90,24
1,24,98,48
1,27,98,48
1,29,98,48
1,32,98,48
1,32,98,48
1,29,98,48
1,27,98,48
1,29,114,48
1,29,110,104
1,27,98,42
1,29,109,30
1,29,111,112
1,27,99,36
1,24,109,56
1,24,110,74
1,24,100,118
1,24,105,18
1,24,109,86
1,27,101,30
1,24,105,192
1,29,114,26
1,29,110,104
1,27,98,42
1,29,109,30
1,29,111,112
1,27,99,36
1,24,109,56
1,24,110,74
1,24,100,118
1,27,105,18
1,27,109,86
1,27,101,30
1,24,105,192
1,29,114,26
1,29,110,104
1,27,98,42
1,29,109,30
1,29,111,112
1,27,99,36
1,24,109,56
1,24,110,74
1,24,100,118
1,24,105,18
1,24,109,86
1,27,101,30
1,24,105,192
1,29,114,26
1,29,110,104
1,27,98,42
1,29,109,30
1,29,111,112
1,27,99,36
1,24,109,56
1,29,105,1226
1,29,105,112
1,29,105,74
1,29,105,120
1,29,105,112
1,27,105,26
1,27,105,112
1,27,105,74
1,27,105,120
1,27,105,112
1,25,105,26
1,25,105,112
1,25,105,74
1,25,105,120
1,25,105,112
1,24,105,26
1,24,105,112
1,29,105,58
1,29,105,110
1,27,105,112
1,29,105,38
1,29,105,112
1,29,105,74
1,29,105,120
1,29,105,112
1,27,105,26
1,27,105,112
1,27,105,74
1,27,105,120
1,27,105,112
1,25,105,26
1,25,105,112
1,25,105,74
1,25,105,120
1,25,105,112
1,24,105,26
1,24,105,112
1,29,105,58
1,29,105,110
1,27,105,112
1,29,110,34
1,29,110,112
1,29,110,74
1,29,110,120
1,29,110,112
1,27,110,26
1,27,110,112
1,27,110,74
1,27,110,120
1,27,110,112
1,25,110,26
1,25,110,112
1,25,110,74
1,25,110,120
1,25,110,112
1,27,110,26
1,27,110,112
1,27,110,74
1,29,110,120
1,29,110,22
1,27,110,22
1,29,110,26
1,29,110,112
1,29,110,74
1,29,110,120
1,29,110,112
1,27,110,26
1,27,110,112
1,27,110,74
1,27,110,120
1,27,110,112
1,25,110,26
1,25,110,112
1,25,110,74
1,25,110,120
1,25,110,112
1,27,110,26
1,27,110,112
1,27,110,74
1,29,110,120
1,29,110,22
1,27,110,22
1,29,93,26
1,29,93,50
1,29,93,92
1,32,93,24
1,32,93,50
1,32,93,92
1,31,93,24
1,31,93,50
1,31,93,92
1,27,93,24
1,27,93,50
1,27,93,92
1,25,93,24
1,25,93,50
1,25,93,92
1,29,93,24
1,29,93,50
1,29,93,92
1,24,93,24
1,24,93,50
1,27,93,92
1,29,93,48
1,29,93,48
1,27,93,48
1,24,93,48
1,29,93,48
1,29,93,50
1,29,93,92
1,32,93,24
1,32,93,50
1,32,93,92
1,31,93,24
1,31,93,50
1,31,93,92
1,27,93,24
1,27,93,50
1,29,93,50
1,27,93,8
1,25,93,50
1,25,93,50
1,25,93,92
1,29,93,24
1,29,93,50
1,29,93,92
1,24,93,24
1,24,101,48
1,27,101,48
1,29,101,48
1,32,101,48
1,32,101,48
1,29,101,48
1,27,101,48
1,29,114,48
1,29,110,104
1,27,98,42
1,29,109,30
1,29,111,112
1,27,99,36
1,24,109,56
1,24,110,74
1,24,100,118
1,24,105,18
1,24,109,86
1,27,101,30
1,24,105,192
1,29,114,26
1,29,110,104
1,27,98,42
1,29,109,30
1,29,111,112
1,27,99,36
1,24,109,56
1,24,110,74
1,24,100,118
1,27,105,18
1,27,109,86
1,27,101,30
1,24,105,192
1,29,114,26
1,29,110,104
1,27,98,42
1,29,109,30
1,29,111,112
1,27,99,36
1,24,109,56
1,24,110,74
1,24,100,118
1,24,105,18
1,24,109,86
1,27,101,30
1,24,105,192
1,29,114,26
1,29,110,104
1,27,98,42
1,29,109,30
1,29,111,112
1,27,99,36
1,24,109,56
1,29,114,1226
1,29,110,104
1,27,98,42
1,29,109,30
1,29,111,112
1,27,99,36
1,24,109,56
1,24,110,74
1,24,100,118
1,24,105,18
1,24,109,86
1,27,101,30
1,24,105,192
1,29,114,26
1,29,110,104
1,27,98,42
1,29,109,30
1,29,111,112
1,27,99,36
1,24,109,56
1,24,110,74
1,24,100,118
1,27,105,18
1,27,109,86
1,27,101,30
1,24,105,192
1,29,114,26
1,29,110,104
1,27,98,42
1,29,109,30
1,29,111,112
1,27,99,36
1,24,109,56
1,24,110,74
1,24,100,118
1,24,105,18
1,24,109,86
1,27,101,30
1,24,105,192
1,29,114,26
1,29,110,104
1,27,98,42
1,29,109,30
1,29,111,112
1,27,99,36
1,24,109,56
1,24,109,20
1,27,109,20
1,29,109,20
1,32,109,20
1,31,109,20
1,29,109,20
1,27,109,20
1,29,110,20
1,29,110,112
1,29,110,74
1,29,110,120
1,29,110,112
1,27,110,26
1,27,110,112
1,27,110,74
1,27,110,120
1,27,110,112
1,25,110,26
1,25,110,112
1,25,110,74
1,25,110,120
1,25,110,112
1,27,110,26
1,27,110,112
1,27,110,74
1,29,110,120
1,29,110,22
1,27,110,22
1,29,110,26
1,29,110,112
1,29,110,74
1,29,110,120
1,29,110,112
1,27,110,26
1,27,110,112
1,27,110,74
1,27,110,120
1,27,110,112
1,25,110,26
1,25,110,112
1,25,110,74
1,25,110,120
1,25,110,112
1,27,110,26
1,27,110,112
1,27,110,74
1,29,110,120
1,29,110,22
1,27,110,22
1,41,84,26
1,36,100,26
1,36,100,26
1,41,84,1178
1,36,100,26
1,36,100,26
1,41,84,1178
1,36,100,26
1,36,100,26
1,41,84,1178
1,36,100,26
1,36,100,26
1,29,117,1178
1,29,113,104
1,27,101,42
1,29,112,30
1,29,114,112
1,27,102,36
1,24,112,56
1,24,113,74
1,24,103,118
1,24,108,18
1,24,112,86
1,27,104,30
1,24,108,192
1,29,117,26
1,29,113,104
1,27,101,42
1,29,112,30
1,29,114,112
1,27,102,36
1,24,112,56
1,24,113,74
1,24,103,118
1,27,108,18
1,27,112,86
1,27,104,30
1,24,108,192
1,29,117,26
1,29,113,104
1,27,101,42
1,29,112,30
1,29,114,112
1,27,102,36
1,24,112,56
1,24,113,74
1,24,103,118
1,24,108,18
1,24,112,86
1,27,104,30
1,24,108,192
1,29,117,26
1,29,113,104
1,27,101,42
1,29,112,30
1,29,114,112
1,27,102,36
1,24,112,56
2,48,53,6006
2,53,59,2
2,53,79,2
2,51,85,1152
2,49,95,1518
2,48,105,1520
2,41,110,96
2,41,60,1520
2,39,66,734
2,37,68,768
2,36,64,1520
2,41,62,732
2,39,59,8
2,37,58,1536
2,36,63,1520
2,41,80,732
2,39,72,8
2,44,75,2
2,46,75,2
2,48,77,2
2,41,68,2
2,39,69,2
2,37,68,2
2,39,69,2
2,41,82,2
2,41,65,1542
2,39,65,2
2,37,65,2
2,39,65,2
2,41,65,2
2,39,65,2
2,37,65,2
2,39,65,2
2,41,65,2
2,48,58,170498
2,41,58,2
3,68,76,13628
3,68,75,104
3,67,77,88
3,65,78,48
3,65,77,62
3,70,77,36
3,68,76,66
3,68,76,84
3,70,77,502
3,70,78,104
3,68,76,62
3,67,77,50
3,67,77,68
3,68,76,56
3,68,76,106
3,65,77,4
3,65,78,72
3,68,77,266
3,68,75,110
3,68,76,110
3,68,75,108
3,65,77,58
3,65,76,128
3,70,76,28
3,70,76,122
3,70,76,72
3,70,76,86
3,67,77,56
3,67,77,116
3,68,76,32
3,68,74,110
3,68,76,108
3,68,75,116
3,65,76,110
3,67,77,68
3,68,77,88
3,68,76,96
3,65,75,30
3,65,76,80
3,65,76,62
3,65,77,142
3,65,78,96
3,68,77,66
3,67,78,86
3,67,78,98
3,67,78,96
3,67,78,88
3,68,77,74
3,68,77,380
3,68,78,118
3,70,77,98
3,68,77,36
3,67,77,54
3,67,78,24
3,65,79,10
3,65,78,98
3,65,78,80
3,65,78,90
3,67,78,52
3,67,78,368
3,67,77,102
3,67,78,38
3,67,78,156
3,68,78,94
3,68,76,68
3,68,76,98
3,70,78,46
3,68,77,4
3,71,78,6
3,70,77,174
3,68,78,182
3,77,84,0
3,68,80,1950
3,67,82,196
3,65,80,12
3,70,80,438
3,68,80,194
3,67,81,380
3,68,81,586
3,67,83,192
3,65,82,12
3,63,79,234
3,63,80,86
3,65,80,192
3,68,81,4
3,65,81,26
3,68,80,376
3,67,82,196
3,65,82,40
3,70,82,384
3,68,81,22
3,67,81,20
3,68,81,12
3,65,81,10
3,63,80,810
3,63,79,94
3,65,81,8
3,68,81,8
3,65,82,388
3,63,81,3232
3,63,80,110
3,65,80,22
3,63,81,308
3,63,80,112
3,65,80,8
3,63,80,112
3,63,79,126
3,63,78,50
3,63,80,110
3,63,80,52
3,63,81,118
3,63,80,130
3,63,82,116
3,65,81,34
3,63,80,270
3,63,79,118
3,65,80,36
3,63,80,294
3,63,81,120
3,65,80,52
3,63,80,96
3,63,77,132
3,63,80,38
3,63,78,100
3,63,79,32
3,63,79,124
3,63,79,126
3,63,78,130
3,65,80,44
3,63,81,284
3,63,82,128
3,65,82,28
3,63,81,292
3,63,81,118
3,65,80,24
3,63,80,100
3,63,80,138
3,63,73,32
3,63,79,110
3,63,81,36
3,63,81,126
3,63,80,134
3,63,82,126
3,65,80,48
3,63,80,302
3,63,82,128
3,65,81,26
3,63,81,300
3,63,82,118
3,65,80,54
3,60,80,292
3,63,80,8
3,65,79,36
3,68,81,0
3,65,82,42
3,65,80,248
3,68,80,192
3,68,80,124
3,68,81,132
3,68,79,134
3,67,80,94
3,67,81,112
3,70,80,12
3,70,80,122
3,70,79,130
3,70,80,126
3,68,81,74
3,68,78,98
3,71,79,38
3,71,80,124
3,71,78,126
3,70,81,110
3,70,82,116
3,63,77,70
3,63,81,122
3,65,79,192
3,68,81,20
3,65,79,48
3,63,81,0
3,65,80,26
3,65,80,176
3,68,79,6
3,68,79,126
3,68,79,132
3,68,80,132
3,67,80,128
3,67,79,84
3,70,78,38
3,70,80,122
3,70,79,128
3,70,81,124
3,68,80,124
3,68,78,80
3,71,80,76
3,68,78,32
3,70,81,28
3,68,81,32
3,63,79,616
3,63,81,114
3,65,79,30
3,68,80,24
3,65,78,34
3,63,79,56
3,65,80,18
3,65,80,240
3,65,81,166
3,65,81,80
3,67,82,102
3,67,82,92
3,67,81,128
3,68,81,80
3,68,81,126
3,68,81,600
3,68,82,106
3,70,82,62
3,68,81,86
3,67,82,70
3,68,81,64
3,65,81,78
3,65,80,18
3,65,81,108
3,65,81,94
3,67,80,114
3,67,81,82
3,67,80,90
3,67,80,122
3,68,81,118
3,68,79,318
3,68,80,108
3,70,82,60
3,68,80,30
3,71,83,46
3,70,79,58
3,68,81,192
3,77,81,18
3,68,80,1344
3,67,81,12
3,65,81,30
3,70,81,554
3,68,80,16
3,67,80,66
3,68,79,588
3,67,82,192
3,65,82,2
3,63,78,384
3,63,80,108
3,65,80,34
3,68,81,56
3,65,83,38
3,68,81,456
3,67,80,2
3,65,81,40
3,70,82,384
3,68,80,46
3,67,82,28
3,68,80,42
3,65,80,12
3,63,79,1336
3,63,80,120
3,65,80,32
3,68,82,50
3,65,82,18
3,63,86,260
3,63,85,110
3,65,85,22
3,63,86,308
3,63,85,112
3,65,85,8
3,63,85,112
3,63,84,126
3,63,83,50
3,63,85,110
3,63,85,52
3,63,86,118
3,63,85,130
3,63,87,116
3,65,86,34
3,63,85,270
3,63,84,118
3,65,85,36
3,63,85,294
3,63,86,120
3,65,85,52
3,63,85,96
3,63,82,132
3,63,85,38
3,63,83,100
3,63,84,32
3,63,84,124
3,63,84,126
3,63,83,130
3,65,85,44
3,63,86,284
3,63,87,128
3,65,87,28
3,63,86,292
3,63,86,118
3,65,85,24
3,63,85,100
3,63,85,138
3,63,78,32
3,63,84,110
3,63,86,36
3,63,86,126
3,63,85,134
3,63,87,126
3,65,85,48
3,63,85,302
3,63,87,128
3,65,86,26
3,63,86,300
3,63,87,118
3,65,85,54
3,60,85,292
3,63,85,8
3,65,84,36
3,68,86,0
3,65,87,42
3,65,80,248
3,68,80,192
3,68,80,124
3,68,81,132
3,68,79,134
3,67,80,94
3,67,81,112
3,70,80,12
3,70,80,122
3,70,79,130
3,70,80,126
3,68,81,74
3,68,78,98
3,71,79,38
3,71,80,124
3,71,78,126
3,70,81,110
3,70,82,116
3,63,77,70
3,63,81,122
3,65,79,192
3,68,81,20
3,65,79,48
3,63,81,0
3,65,80,26
3,65,80,176
3,68,79,6
3,68,79,126
3,68,79,132
3,68,80,132
3,67,80,128
3,67,79,84
3,70,78,38
3,70,80,122
3,70,79,128
3,70,81,124
3,68,80,124
3,68,78,80
3,71,80,76
3,68,78,32
3,70,81,28
3,68,81,32
3,63,79,616
3,63,81,114
3,65,79,30
3,68,80,24
3,65,78,34
3,63,79,56
3,65,80,18
3,65,80,240
3,65,81,166
3,65,81,80
3,67,82,102
3,67,82,92
3,67,81,128
3,68,81,80
3,68,81,126
3,68,81,600
3,68,82,106
3,70,82,62
3,68,81,86
3,67,82,70
3,68,81,64
3,65,81,78
3,65,80,18
3,65,81,108
3,65,81,94
3,67,80,114
3,67,81,82
3,67,80,90
3,67,80,122
3,68,81,118
3,68,79,318
3,68,80,108
3,70,82,60
3,68,80,30
3,71,83,46
3,70,79,58
3,68,81,192
3,77,81,18
3,68,80,1344
3,67,81,12
3,65,81,30
3,70,81,554
3,68,80,16
3,67,80,66
3,68,79,588
3,67,82,192
3,65,82,2
3,63,78,384
3,63,80,108
3,65,80,34
3,68,81,56
3,65,83,38
3,68,81,456
3,67,80,2
3,65,81,40
3,70,82,384
3,68,80,46
3,67,82,28
3,68,80,42
3,65,80,12
3,63,79,1336
3,63,80,120
3,65,80,32
3,68,82,50
3,65,82,18
3,63,86,260
3,63,85,110
3,65,85,22
3,63,86,308
3,63,85,112
3,65,85,8
3,63,85,112
3,63,84,126
3,63,83,50
3,63,85,110
3,63,85,52
3,63,86,118
3,63,85,130
3,63,87,116
