track,note,velocity,time
1,61,39,0
1,63,47,450
1,42,32,198
1,65,57,30
1,49,41,152
1,57,40,8
1,61,23,16
1,68,60,30
1,37,41,70
1,65,60,10
1,42,56,236
1,68,72,82
1,49,54,6
1,57,66,2
1,65,74,8
1,61,23,10
1,68,75,86
1,37,43,110
1,65,80,14
1,68,76,4
1,65,71,2
1,42,38,12
1,61,58,220
1,49,40,6
1,57,39,22
1,37,50,266
1,65,69,2
1,42,58,0
1,49,67,74
1,61,67,174
1,57,50,6
1,37,55,84
1,63,81,68
1,42,52,130
1,65,80,6
1,61,56,172
1,57,73,22
1,49,57,0
1,68,91,118
1,65,95,122
1,37,55,0
1,42,79,140
1,49,78,74
1,68,93,2
1,61,77,16
1,65,80,0
1,57,70,8
1,68,91,24
1,58,101,38
1,66,89,12
1,42,67,2
1,70,112,8
1,75,107,82
1,43,81,18
1,61,87,122
1,63,66,6
1,70,86,0
1,51,74,6
1,63,11,108
1,43,71,354
1,75,83,292
1,61,54,0
1,51,68,8
1,58,68,10
1,75,72,276
1,78,89,2
1,44,79,8
1,32,79,0
1,70,63,286
1,58,66,18
1,66,34,4
1,59,39,2
1,71,42,0
1,77,89,96
1,59,13,2
1,75,78,0
1,65,64,120
1,56,40,6
1,68,66,4
1,66,69,106
1,63,57,8
1,54,27,38
1,73,72,36
1,61,53,4
1,65,57,6
1,53,39,2
1,71,11,6
1,56,24,18
1,77,59,10
1,68,42,8
1,65,32,14
1,75,48,208
1,63,26,20
1,54,29,4
1,66,19,0
1,59,19,8
1,73,70,136
1,71,55,188
1,65,54,38
1,63,47,462
1,70,68,2
1,61,43,26
1,68,65,94
1,59,37,14
1,58,67,16
1,66,60,2
1,44,55,0
1,59,32,28
1,56,61,6
1,65,62,2
1,63,70,118
1,54,53,4
1,66,75,134
1,58,69,2
1,56,67,126
1,65,72,0
1,54,64,0
1,63,73,16
1,58,64,136
1,66,67,18
1,65,71,104
1,63,67,110
1,66,70,116
1,56,54,116
1,65,61,28
1,63,66,38
1,54,58,12
1,61,58,112
1,53,22,18
1,59,37,12
1,63,72,118
1,65,50,220
1,43,45,364
1,46,41,476
1,61,45,38
1,44,30,4
1,37,36,314
1,63,47,16
1,42,31,312
1,65,50,4
1,61,43,144
1,49,33,20
1,57,37,8
1,68,65,30
1,37,40,24
1,65,57,8
1,42,48,102
1,49,56,22
1,68,74,14
1,65,81,4
1,57,65,4
1,61,56,12
1,68,64,18
1,37,35,6
1,65,74,0
1,68,88,110
1,65,64,0
1,42,43,4
1,61,55,218
1,49,37,2
1,57,35,10
1,37,44,40
1,65,77,8
1,42,72,76
1,49,75,32
1,61,90,114
1,57,78,6
1,37,83,204
1,63,91,68
1,42,74,94
1,65,92,10
1,61,78,40
1,49,75,6
1,57,78,6
1,68,95,108
1,65,95,48
1,37,68,4
1,57,54,2
1,61,83,4
1,42,84,20
1,68,95,74
1,49,84,8
1,61,75,58
1,65,84,6
1,57,83,6
1,68,96,20
1,58,100,102
1,66,91,4
1,42,78,12
1,70,112,46
1,75,111,64
1,43,100,6
1,61,95,138
1,70,97,8
1,63,79,0
1,51,66,6
1,58,67,10
1,43,111,10
1,58,103,200
1,61,81,2
1,75,108,0
1,51,91,0
1,75,111,300
1,35,103,36
1,82,122,6
1,75,87,350
1,54,64,8
1,63,69,2
1,66,75,2
1,71,69,4
1,59,52,2
1,80,96,54
1,78,90,254
1,82,74,40
1,70,46,4
1,80,76,156
1,68,53,10
1,78,75,136
1,66,62,2
1,82,89,112
1,70,71,14
1,80,82,104
1,68,64,4
1,78,75,48
1,66,58,16
1,75,73,116
1,63,48,0
1,73,65,100
1,61,58,0
1,59,56,60
1,71,62,2
1,75,82,118
1,63,59,0
1,61,74,100
1,73,82,0
1,59,65,62
1,71,66,10
1,56,48,2
1,68,69,10
1,66,65,108
1,54,52,14
1,65,75,34
1,53,63,4
1,68,72,96
1,56,57,2
1,66,67,78
1,54,58,8
1,63,64,134
1,51,56,4
1,61,66,92
1,49,66,18
1,59,57,102
1,47,50,2
1,58,54,138
1,46,67,10
1,61,59,64
1,49,66,8
1,59,63,2
1,47,48,10
1,51,64,168
1,63,60,0
1,65,68,154
1,53,53,2
1,59,43,188
1,71,46,24
1,58,54,264
1,70,62,2
1,65,58,42
1,53,37,16
1,62,52,136
1,50,51,12
1,65,57,154
1,53,37,2
1,68,59,132
1,56,47,6
1,54,48,178
1,66,55,8
1,61,42,308
1,49,30,16
1,58,22,4
1,42,26,0
1,30,31,654
1,58,47,308
1,59,47,200
1,61,72,152
1,63,82,132
1,65,87,106
1,38,33,168
1,70,75,0
1,66,58,230
1,59,28,26
1,56,29,2
1,50,13,22
1,65,49,2
1,38,44,348
1,58,78,6
1,59,66,52
1,61,87,134
1,63,92,94
1,65,100,98
1,39,78,38
1,70,100,16
1,56,67,134
1,66,81,12
1,51,70,0
1,59,53,6
1,65,84,278
1,39,81,268
1,58,102,142
1,59,90,22
1,61,99,120
1,63,96,104
1,65,97,82
1,41,79,44
1,70,100,44
1,59,82,96
1,61,86,48
1,56,66,2
1,49,72,8
1,59,71,6
1,63,90,56
1,65,110,98
1,66,92,126
1,39,94,50
1,71,91,20
1,61,97,46
1,56,88,22
1,63,91,4
1,59,82,4
1,49,79,0
1,65,106,8
1,66,95,140
1,68,103,78
1,37,93,18
1,73,106,6
1,63,92,34
1,65,110,64
1,56,78,8
1,49,79,0
1,59,72,0
1,66,99,8
1,68,99,82
1,70,108,84
1,42,94,38
1,75,93,12
1,70,107,146
1,58,59,4
1,71,97,10
1,59,87,8
1,61,92,98
1,73,102,4
1,63,92,68
1,75,103,16
1,77,109,74
1,65,108,0
1,82,120,0
1,70,106,8
1,56,74,146
1,63,79,0
1,78,92,8
1,71,69,8
1,59,53,2
1,66,64,0
1,51,66,0
1,77,85,256
1,65,54,24
1,32,72,34
1,58,67,224
1,70,77,8
1,71,57,2
1,59,61,14
1,73,75,0
1,61,70,4
1,63,76,106
1,75,79,10
1,65,88,72
1,77,97,4
1,82,89,154
1,70,61,6
1,78,56,210
1,66,36,12
1,70,57,0
1,56,45,0
1,62,34,2
1,58,50,4
1,77,56,404
1,65,50,12
1,46,54,270
1,34,36,18
1,82,98,488
1,70,69,12
1,84,113,470
1,72,103,4
1,27,97,36
1,84,111,2
1,39,91,6
1,72,97,2
1,67,84,222
1,63,76,2
1,58,78,2
1,55,79,4
1,46,76,4
1,70,103,82
1,82,105,2
1,80,110,82
1,68,89,6
1,79,101,80
1,67,89,8
1,77,108,42
1,31,111,6
1,43,101,2
1,65,39,2
1,55,47,96
1,67,99,0
1,58,88,4
1,46,92,2
1,63,95,56
1,75,92,0
1,62,95,86
1,74,102,2
1,72,114,80
1,60,69,16
1,71,94,72
1,30,95,2
1,42,85,4
1,59,64,8
1,63,57,56
1,51,79,2
1,69,94,4
1,57,67,2
1,61,95,72
1,73,99,6
1,56,103,84
1,68,99,2
1,57,95,42
1,69,107,4
1,29,106,8
1,41,102,0
1,58,96,0
1,70,117,2
1,68,85,30
1,56,89,2
1,50,92,2
1,82,115,212
1,70,103,2
1,27,104,6
1,39,100,8
1,72,69,14
1,84,86,8
1,46,89,176
1,55,96,6
1,63,80,2
1,67,94,2
1,58,84,2
1,82,44,76
1,70,106,2
1,80,78,48
1,68,78,16
1,79,85,68
1,67,84,0
1,65,93,44
1,77,100,10
1,31,111,2
1,43,106,2
1,67,102,140
1,55,67,8
1,46,74,12
1,58,96,0
1,63,95,54
1,75,89,10
1,74,101,78
1,62,50,14
1,72,109,40
1,71,99,82
1,30,93,10
1,59,66,4
1,42,80,0
1,51,94,18
1,69,87,8
1,63,59,4
1,57,72,2
1,73,100,60
1,61,79,10
1,68,107,62
1,56,58,14
1,57,72,80
1,69,96,0
1,41,105,2
1,29,99,0
1,70,117,14
1,58,111,6
1,68,79,146
1,56,92,6
1,50,89,6
1,74,108,160
1,62,23,14
1,32,99,160
1,73,103,8
1,61,97,4
1,71,78,42
1,53,79,2
1,59,70,4
1,75,103,56
1,63,76,14
1,70,107,58
1,58,97,10
1,71,92,44
1,59,58,2
1,31,98,18
1,72,103,20
1,60,35,12
1,70,96,126
1,58,81,2
1,52,87,8
1,64,52,2
1,64,61,142
1,76,96,4
1,63,60,6
1,75,59,2
1,61,66,44
1,73,62,6
1,67,44,8
1,58,50,10
1,77,79,4
1,65,81,4
1,63,84,104
1,75,89,0
1,65,88,72
1,77,100,16
1,78,100,0
1,66,87,0
1,73,87,118
1,63,69,6
1,61,75,8
1,57,73,0
1,80,100,12
1,68,98,6
1,78,103,106
1,66,92,0
1,68,84,6
1,80,107,0
1,81,113,12
1,69,103,2
1,73,79,30
1,63,78,8
1,61,62,2
1,56,46,8
1,83,85,68
1,71,69,12
1,81,95,2
1,69,90,0
1,83,88,90
1,71,60,12
1,73,71,46
1,85,82,4
1,68,82,104
1,69,81,76
1,61,53,20
1,54,42,8
1,63,32,0
1,71,62,62
1,73,71,8
1,75,72,154
1,47,30,188
1,77,81,10
1,63,57,126
1,75,53,2
1,56,33,2
1,68,35,4
1,65,19,2
1,80,75,82
1,77,78,112
1,48,64,18
1,80,72,2
1,68,59,6
1,77,72,10
1,56,52,2
1,62,50,0
1,74,40,6
1,80,75,0
1,77,88,50
1,80,88,0
1,77,95,128
1,47,69,4
1,68,62,162
1,75,75,0
1,56,55,0
1,63,75,4
1,65,55,4
1,77,103,206
1,49,95,2
1,73,95,162
1,56,66,4
1,68,77,6
1,61,84,2
1,65,85,6
1,75,103,264
1,50,107,0
1,77,113,8
1,72,107,164
1,60,87,2
1,56,83,8
1,65,91,0
1,68,91,0
1,80,107,82
1,77,109,130
1,51,109,82
1,80,111,30
1,71,94,78
1,59,51,2
1,56,92,0
1,77,86,2
1,68,78,4
1,65,105,0
1,80,114,34
1,63,101,128
1,70,85,0
1,58,110,8
1,78,84,2
1,54,86,0
1,82,108,52
1,32,106,160
1,87,113,10
1,51,97,188
1,58,108,2
1,59,86,2
1,54,90,6
1,71,91,358
1,70,106,0
1,63,89,12
1,66,85,4
1,82,97,452
1,83,88,12
1,75,80,4
1,78,79,0
1,87,110,486
1,87,94,480
1,32,53,412
1,94,92,2
1,51,45,536
1,54,36,78
1,58,54,44
1,60,44,38
1,63,51,8
1,66,62,2
1,70,56,20
1,72,59,34
1,75,47,14
1,78,53,44
1,82,57,16
1,84,54,10
1,92,41,904
1,90,52,46
1,94,69,178
1,92,67,180
1,90,75,142
1,82,81,4
1,80,79,162
1,78,79,134
1,82,94,110
1,80,84,126
1,78,83,124
1,70,91,2
1,68,77,154
1,66,78,90
1,65,78,98
1,68,67,150
1,66,72,120
1,51,44,138
1,63,66,0
1,61,71,98
1,49,58,6
1,59,65,104
1,47,52,4
1,58,85,150
1,46,62,14
1,49,68,100
1,61,72,8
1,47,50,0
1,59,50,6
1,63,62,184
1,51,58,18
1,65,78,142
1,53,56,10
1,59,42,164
1,71,40,8
1,70,67,264
1,58,56,4
1,53,37,46
1,65,50,0
1,62,51,166
1,50,45,2
1,65,51,198
1,53,37,2
1,56,39,190
1,68,55,2
1,66,61,264
1,54,38,2
1,61,52,714
1,49,36,2
1,58,46,2
1,42,32,2
1,30,45,562
1,60,31,644
1,61,46,106
1,46,41,162
1,62,53,0
1,52,46,120
1,56,57,26
1,66,66,148
1,46,56,158
1,62,51,20
1,47,41,6
1,58,70,86
1,52,54,8
1,56,74,86
1,59,70,4
1,60,98,6
1,61,87,72
1,47,47,40
1,62,101,4
1,63,81,148
1,48,74,2
1,68,90,22
1,52,56,12
1,57,74,122
1,63,83,6
1,48,87,190
1,49,73,268
1,52,58,16
1,64,76,4
1,60,80,4
1,57,48,10
1,61,91,56
1,62,92,4
1,40,58,18
1,63,85,76
1,48,84,84
1,68,88,90
1,52,81,14
1,61,86,38
1,49,83,0
1,57,43,6
1,63,83,0
1,64,104,10
1,65,101,128
1,40,88,10
1,66,100,2
1,48,92,136
1,63,93,0
1,68,99,76
1,52,99,12
1,49,81,36
1,61,97,4
1,57,37,6
1,63,78,2
1,64,110,22
1,40,86,42
1,65,105,0
1,66,102,74
1,61,86,122
1,55,93,8
1,46,98,0
1,67,101,46
1,78,97,136
1,52,94,10
1,66,92,276
1,40,77,16
1,67,101,18
1,62,91,166
1,56,83,8
1,47,76,2
1,68,97,16
1,80,90,112
1,40,99,8
1,78,34,18
1,78,93,56
1,47,98,80
1,48,108,88
1,58,109,114
1,66,95,4
1,49,95,6
1,64,59,0
1,67,107,64
1,55,98,68
1,78,97,6
1,65,90,280
1,50,88,8
1,66,92,2
1,59,76,2
1,67,107,8
1,51,88,90
1,66,103,6
1,60,89,8
1,68,112,62
1,80,111,116
1,78,106,192
1,44,91,132
1,80,108,34
1,35,104,86
1,81,117,8
1,85,113,0
1,54,76,6
1,61,84,2
1,57,86,0
1,50,83,2
1,78,97,76
1,74,105,10
1,56,84,4
1,83,99,2
1,62,92,2
1,59,79,4
1,80,99,2
1,52,91,2
1,76,110,2
1,73,103,2
1,78,97,22
1,81,110,4
1,54,67,4
1,61,88,2
1,64,81,2
1,57,70,4
1,66,86,126
1,56,85,2
1,59,70,8
1,62,84,4
1,74,98,4
1,71,85,8
1,61,81,4
1,57,76,6
1,80,92,4
1,76,92,2
1,68,72,4
1,64,59,0
1,73,95,4
1,69,91,2
1,78,98,6
1,74,97,2
1,69,72,8
1,66,66,4
1,59,63,0
1,62,58,20
1,73,84,294
1,57,69,2
1,61,70,4
1,69,85,2
1,66,79,0
1,62,82,14
1,56,70,20
1,68,77,6
1,71,70,8
1,59,47,12
1,61,72,38
1,64,67,0
1,57,55,16
1,54,45,4
1,66,67,14
1,69,63,0
1,62,64,40
1,59,51,4
1,56,59,4
1,68,60,2
1,52,51,2
1,64,56,2
1,61,68,18
1,57,32,28
1,66,51,10
1,62,51,8
1,47,33,2
1,54,46,2
1,57,34,0
1,46,59,6
1,62,44,22
1,52,32,130
1,56,66,24
1,66,83,124
1,40,61,142
1,62,80,10
1,47,65,102
1,58,98,30
1,52,78,12
1,56,91,30
1,59,83,14
1,60,100,48
1,61,99,82
1,40,72,6
1,62,108,2
1,48,97,114
1,63,95,10
1,52,89,66
1,68,103,6
1,63,106,16
1,57,103,6
1,48,106,112
1,49,106,216
1,57,111,16
1,52,103,116
1,64,114,2
1,57,85,68
1,66,103,12
1,61,84,14
1,68,106,56
1,69,117,58
1,40,106,8
1,73,115,0
1,85,112,130
1,42,112,0
1,88,117,2
1,30,116,2
1,61,96,104
1,64,100,4
1,54,86,4
1,57,89,0
1,81,108,30
1,78,100,2
1,56,94,4
1,66,86,2
1,87,105,0
1,63,88,0
1,83,92,6
1,59,76,2
1,80,100,8
1,76,105,4
1,61,92,0
1,81,106,4
1,68,86,2
1,57,98,0
1,85,105,2
1,64,88,0
1,66,82,14
1,69,97,6
1,59,82,2
1,63,94,0
1,78,97,26
1,75,100,2
1,71,84,126
1,83,95,2
1,68,89,2
1,80,98,4
1,61,82,0
1,64,92,2
1,73,100,26
1,76,102,0
1,73,86,54
1,78,93,0
1,81,103,2
1,66,72,8
1,63,75,0
1,69,73,0
1,73,69,292
1,57,56,18
1,69,62,10
1,66,72,6
1,61,61,2
1,63,51,6
1,71,69,2
1,68,74,0
1,59,70,2
1,56,70,56
1,64,75,6
1,61,70,0
1,69,78,34
1,54,61,4
1,66,65,2
1,57,57,2
1,63,72,2
1,59,41,20
1,56,69,20
1,68,74,0
1,64,31,8
1,61,69,12
1,52,44,6
1,57,46,18
1,66,57,26
1,63,53,2
1,47,26,36
1,54,40,136
1,57,46,18
1,62,66,108
1,53,58,18
1,46,61,0
1,56,33,0
1,54,49,212
1,47,42,0
1,57,49,12
1,66,56,164
1,62,55,50
1,48,61,122
1,58,83,124
1,56,55,94
1,49,64,0
1,59,76,0
1,53,51,4
1,60,90,68
1,61,94,84
1,62,98,72
1,63,82,108
1,48,60,14
1,57,80,0
1,68,88,66
