track,note,velocity,time
0,48,105,944
0,51,110,1
0,53,115,1
0,56,120,2
0,56,0,54
0,53,0,1
0,51,0,1
0,48,0,1
0,48,77,1
0,51,74,2
0,53,72,2
0,56,77,2
0,48,0,16
0,51,0,6
0,53,0,0
0,56,0,0
0,56,78,3
0,53,72,2
0,51,77,2
0,48,74,3
0,48,0,22
0,56,0,0
0,53,0,0
0,51,0,0
0,48,82,4
0,51,81,2
0,53,82,2
0,56,81,2
0,56,0,22
0,48,0,0
0,51,0,0
0,53,0,0
0,56,77,4
0,53,84,2
0,51,84,2
0,48,84,2
0,56,0,16
0,53,0,2
0,51,0,2
0,48,0,2
0,48,105,6
0,51,110,1
0,53,115,1
0,56,120,2
0,56,0,54
0,53,0,1
0,51,0,1
0,48,0,1
0,48,76,1
0,51,79,2
0,53,75,2
0,56,74,2
0,56,0,22
0,48,0,0
0,51,0,0
0,53,0,0
0,56,73,3
0,53,73,2
0,51,76,2
0,48,78,3
0,48,0,22
0,56,0,0
0,53,0,0
0,51,0,0
0,48,84,4
0,51,84,2
0,53,88,2
0,56,87,2
0,56,0,22
0,48,0,0
0,51,0,0
0,53,0,0
0,56,88,4
0,53,84,2
0,51,82,2
0,48,86,2
0,56,0,16
0,53,0,2
0,51,0,2
0,48,0,2
0,48,105,6
0,51,110,1
0,53,115,1
0,56,120,2
0,56,0,54
0,53,0,1
0,51,0,1
0,48,0,1
0,48,74,1
0,51,72,2
0,53,73,2
0,56,79,2
0,56,0,22
0,48,0,0
0,51,0,0
0,53,0,0
0,56,79,3
0,53,75,2
0,51,76,2
0,48,78,3
0,48,0,22
0,56,0,0
0,53,0,0
0,51,0,0
0,48,84,4
0,51,88,2
0,53,85,2
0,56,80,2
0,56,0,22
0,48,0,0
0,51,0,0
0,53,0,0
0,56,86,4
0,53,84,2
0,51,83,2
0,48,85,2
0,56,0,16
0,53,0,2
0,51,0,2
0,48,0,2
0,48,105,6
0,51,110,1
0,53,115,1
0,56,120,2
0,56,0,54
0,53,0,1
0,51,0,1
0,48,0,1
0,48,76,1
0,51,71,2
0,53,74,2
0,56,78,2
0,56,0,22
0,48,0,0
0,51,0,0
0,53,0,0
0,56,76,3
0,53,78,3
0,51,73,2
0,48,78,2
0,48,0,22
0,56,0,0
0,53,0,0
0,51,0,0
0,48,88,3
0,51,86,3
0,53,89,2
0,56,81,2
0,56,0,22
0,48,0,0
0,51,0,0
0,53,0,0
0,56,79,4
0,53,84,2
0,51,81,2
0,48,83,2
0,56,0,22
0,53,0,2
0,51,0,2
0,48,0,2
0,51,110,1
0,46,115,1
0,70,90,2
0,55,120,0
0,55,0,54
0,46,0,1
0,51,0,1
0,51,74,4
0,46,72,2
0,55,77,2
0,55,0,22
0,46,0,0
0,51,0,0
0,55,78,3
0,46,72,2
0,51,77,2
0,51,0,25
0,46,0,0
0,55,0,0
0,51,81,6
0,46,82,2
0,55,70,2
0,55,0,2
0,46,0,0
0,51,0,0
0,55,78,4
0,46,84,0
0,51,78,2
0,55,0,6
0,46,0,2
0,51,0,2
0,51,110,3
0,46,115,1
0,55,120,2
0,55,0,2
0,46,0,1
0,51,0,1
0,51,79,4
0,46,75,2
0,55,74,2
0,55,0,22
0,46,0,0
0,51,0,0
0,55,73,3
0,46,73,2
0,51,76,2
0,51,0,25
0,46,0,0
0,55,0,0
0,51,84,6
0,46,88,2
0,55,87,2
0,55,0,1
0,46,0,0
0,51,0,0
0,55,84,4
0,46,87,2
0,51,84,1
0,55,0,4
0,46,0,2
0,51,0,1
0,51,110,3
0,46,115,1
0,55,120,2
0,55,0,6
0,46,0,1
0,51,0,1
0,51,72,2
0,46,73,2
0,55,79,2
0,55,0,21
0,46,0,0
0,51,0,0
0,55,79,3
0,46,75,2
0,51,76,2
0,51,0,25
0,46,0,0
0,55,0,0
0,51,88,6
0,46,85,2
0,55,80,2
0,55,0,22
0,46,0,0
0,51,0,0
0,55,79,4
0,46,81,2
0,51,82,2
0,55,0,18
0,46,0,2
0,51,0,2
0,51,110,9
0,46,115,1
0,55,120,2
0,70,0,5
0,55,0,14
0,46,0,1
0,51,0,1
0,51,71,4
0,46,74,2
0,55,78,2
0,55,0,22
0,46,0,0
0,51,0,0
0,55,76,3
0,46,78,3
0,51,73,2
0,51,0,24
0,46,0,0
0,55,0,0
0,51,86,6
0,46,89,2
0,55,81,2
0,55,0,22
0,46,0,0
0,51,0,0
0,55,79,4
0,46,86,2
0,51,82,2
0,55,0,24
0,46,0,2
0,51,0,2
0,49,110,3
0,53,115,1
0,56,120,0
0,56,0,54
0,53,0,1
0,49,0,1
0,49,74,4
0,53,72,2
0,56,77,2
0,56,0,22
0,53,0,0
0,49,0,0
0,56,94,3
0,53,93,2
0,49,92,2
0,49,0,25
0,53,0,0
0,56,0,0
0,49,81,6
0,53,82,2
0,56,79,2
0,56,0,22
0,53,0,0
0,49,0,0
0,56,78,4
0,53,83,2
0,49,80,2
0,56,0,18
0,53,0,2
0,49,0,2
0,49,110,9
0,53,115,1
0,56,120,2
0,56,0,54
0,53,0,1
0,49,0,1
0,49,79,4
0,53,75,2
0,56,74,2
0,56,0,22
0,53,0,0
0,49,0,0
0,56,73,3
0,53,73,2
0,49,76,2
0,49,0,25
0,53,0,0
0,56,0,0
0,49,84,6
0,53,88,2
0,56,87,2
0,56,0,22
0,53,0,0
0,49,0,0
0,56,88,4
0,53,85,2
0,49,86,2
0,56,0,18
0,53,0,2
0,49,0,2
0,49,110,9
0,53,115,1
0,56,120,2
0,56,0,54
0,53,0,1
0,49,0,1
0,49,72,4
0,53,73,2
0,56,79,2
0,56,0,22
0,53,0,0
0,49,0,0
0,56,92,3
0,53,92,2
0,49,95,2
0,49,0,25
0,53,0,0
0,56,0,0
0,49,88,6
0,53,85,2
0,56,80,2
0,56,0,22
0,53,0,0
0,49,0,0
0,56,82,4
0,53,81,2
0,49,88,2
0,56,0,18
0,53,0,2
0,49,0,2
0,49,110,9
0,53,115,1
0,56,120,2
0,56,0,54
0,53,0,1
0,49,0,1
0,49,71,4
0,53,74,2
0,56,78,2
0,56,0,22
0,53,0,0
0,49,0,0
0,56,76,3
0,53,78,3
0,49,73,2
0,49,0,24
0,53,0,0
0,56,0,0
0,49,86,6
0,53,89,2
0,56,81,2
0,56,0,22
0,53,0,0
0,49,0,0
0,56,77,4
0,53,82,2
0,49,80,2
0,56,0,24
0,53,0,2
0,49,0,2
0,51,110,3
0,46,115,1
0,55,120,2
0,70,80,4
0,75,80,0
0,67,80,2
0,55,0,48
0,46,0,1
0,51,0,1
0,51,74,4
0,46,72,2
0,55,77,2
0,55,0,22
0,51,0,0
0,46,0,0
0,55,78,3
0,46,72,2
0,51,77,2
0,51,0,22
0,55,0,0
0,46,0,0
0,51,81,6
0,46,82,2
0,55,81,2
0,55,0,6
0,51,0,0
0,46,0,0
0,55,83,4
0,46,85,2
0,51,78,2
0,55,0,18
0,46,0,2
0,51,0,2
0,51,110,9
0,46,115,1
0,55,120,0
0,55,0,6
0,46,0,1
0,51,0,1
0,51,79,4
0,46,75,2
0,55,74,2
0,55,0,22
0,51,0,0
0,46,0,0
0,55,73,3
0,46,73,2
0,51,76,2
0,51,0,22
0,55,0,0
0,46,0,0
0,51,84,6
0,46,88,2
0,55,87,2
0,55,0,6
0,51,0,0
0,46,0,0
0,55,89,4
0,46,86,2
0,51,81,2
0,55,0,18
0,46,0,2
0,51,0,2
0,51,110,9
0,46,115,1
0,55,120,0
0,55,0,6
0,46,0,1
0,51,0,1
0,51,72,4
0,46,73,2
0,55,79,2
0,55,0,22
0,51,0,0
0,46,0,0
0,55,79,3
0,46,75,2
0,51,76,2
0,51,0,22
0,55,0,0
0,46,0,0
0,51,88,6
0,46,85,2
0,55,80,2
0,55,0,6
0,51,0,0
0,46,0,0
0,55,79,4
0,46,80,2
0,51,86,2
0,55,0,18
0,46,0,2
0,51,0,2
0,51,110,9
0,46,115,1
0,55,120,0
0,55,0,54
0,46,0,1
0,51,0,1
0,51,71,4
0,46,74,2
0,55,78,2
0,55,0,22
0,51,0,0
0,46,0,0
0,55,76,3
0,46,78,3
0,51,73,2
0,51,0,24
0,55,0,0
0,46,0,0
0,51,86,6
0,46,89,2
0,56,121,2
0,55,81,0
0,55,0,22
0,51,0,0
0,46,0,0
0,55,76,4
0,46,84,2
0,51,79,2
0,55,0,24
0,56,0,1
0,46,0,1
0,51,0,2
0,67,0,2
0,75,0,0
0,70,0,0
0,48,105,0
0,51,110,1
0,53,115,1
0,56,120,2
0,60,124,2
0,60,0,30
0,56,0,22
0,53,0,1
0,51,0,1
0,48,0,1
0,48,77,1
0,51,74,2
0,60,122,1
0,53,72,1
0,56,77,2
0,48,0,16
0,53,0,6
0,51,0,0
0,56,0,0
0,56,78,3
0,53,72,2
0,60,0,1
0,51,77,1
0,48,74,3
0,48,0,22
0,56,0,0
0,53,0,0
0,51,0,0
0,48,82,4
0,51,81,2
0,53,82,2
0,60,107,2
0,56,81,0
0,56,0,22
0,48,0,0
0,53,0,0
0,51,0,0
0,60,0,3
0,56,77,1
0,53,84,2
0,51,84,2
0,48,84,2
0,56,0,16
0,53,0,2
0,51,0,2
0,48,0,2
0,48,105,6
0,51,110,1
0,53,115,1
0,56,120,2
0,60,120,2
0,60,0,25
0,56,0,27
0,53,0,1
0,51,0,1
0,48,0,1
0,48,76,1
0,51,79,2
0,60,114,2
0,53,75,0
0,56,74,2
0,56,0,22
0,51,0,0
0,48,0,0
0,53,0,0
0,56,73,3
0,60,0,1
0,53,73,1
0,51,76,2
0,48,78,3
0,48,0,22
0,56,0,0
0,53,0,0
0,51,0,0
0,48,84,4
0,60,117,2
0,51,84,0
0,53,88,2
0,56,87,2
0,56,0,22
0,51,0,0
0,53,0,0
0,48,0,0
0,60,0,2
0,56,88,2
0,53,84,2
0,51,82,2
0,48,86,2
0,56,0,16
0,53,0,2
0,51,0,2
0,48,0,2
0,48,105,6
0,51,110,1
0,60,117,1
0,53,115,0
0,56,120,2
0,60,0,24
0,56,0,30
0,53,0,1
0,51,0,1
0,48,0,1
0,48,74,1
0,51,72,2
0,53,73,2
0,56,79,2
0,60,117,1
0,56,0,21
0,53,0,0
0,48,0,0
0,51,0,0
0,60,0,3
0,56,79,0
0,53,75,2
0,51,76,2
0,48,78,3
0,48,0,22
0,56,0,0
0,53,0,0
0,51,0,0
0,48,84,4
0,51,88,2
0,53,85,2
0,60,114,2
0,56,80,0
0,56,0,22
0,48,0,0
0,53,0,0
0,51,0,0
0,60,0,2
0,56,86,2
0,53,84,2
0,51,83,2
0,48,85,2
0,56,0,16
0,53,0,2
0,51,0,2
0,48,0,2
0,48,105,6
0,51,110,1
0,53,115,1
0,56,120,2
0,60,124,2
0,56,0,52
0,53,0,1
0,51,0,1
0,48,0,1
0,48,76,1
0,51,71,2
0,53,74,2
0,56,78,2
0,58,116,4
0,60,0,5
0,56,0,13
0,53,0,0
0,48,0,0
0,51,0,0
0,56,76,3
0,53,78,3
0,51,73,2
0,48,78,2
0,48,0,22
0,53,0,0
0,51,0,0
0,56,0,0
0,48,88,3
0,51,86,3
0,58,0,2
0,53,89,0
0,56,81,2
0,56,121,3
0,56,0,19
0,53,0,0
0,48,0,0
0,51,0,0
0,56,79,4
0,53,84,2
0,51,81,2
0,48,83,2
0,56,0,13
0,56,0,9
0,53,0,2
0,51,0,2
0,48,0,2
0,51,110,1
0,46,115,1
0,55,120,2
0,58,124,7
0,55,0,47
0,46,0,1
0,51,0,1
0,51,74,4
0,46,72,2
0,55,77,2
0,55,0,22
0,46,0,0
0,51,0,0
0,55,78,3
0,46,72,2
0,51,77,2
0,58,0,22
0,55,0,3
0,46,0,0
0,51,0,0
0,51,81,6
0,46,82,2
0,55,70,2
0,60,117,16
0,55,0,6
0,51,0,0
0,46,0,0
0,55,78,4
0,46,84,2
0,51,78,2
0,55,0,18
0,46,0,2
0,51,0,2
0,51,110,9
0,46,115,1
0,55,120,2
0,55,0,54
0,46,0,1
0,51,0,1
0,60,0,3
0,51,79,1
0,46,75,2
0,55,74,2
0,55,0,22
0,46,0,0
0,51,0,0
0,55,73,3
0,46,73,2
0,51,76,2
0,56,121,3
0,51,0,22
0,55,0,0
0,46,0,0
0,51,84,6
0,46,88,2
0,55,87,2
0,55,0,22
0,46,0,0
0,51,0,0
0,55,84,4
0,46,87,2
0,51,84,2
0,55,0,18
0,46,0,2
0,51,0,2
0,51,110,9
0,46,115,1
0,55,120,2
0,55,0,54
0,46,0,1
0,51,0,1
0,51,72,4
0,56,0,2
0,46,73,0
0,55,79,2
0,55,0,22
0,46,0,0
0,51,0,0
0,55,79,3
0,46,75,2
0,51,76,2
0,51,0,25
0,46,0,0
0,55,0,0
0,51,88,6
0,46,85,2
0,55,80,2
0,55,0,22
0,46,0,0
0,51,0,0
0,55,79,4
0,46,81,2
0,51,82,2
0,55,0,18
0,46,0,2
0,51,0,2
0,51,110,9
0,46,115,1
0,55,120,2
0,53,125,10
0,55,0,44
0,46,0,1
0,51,0,1
0,51,71,4
0,46,74,2
0,55,78,2
0,56,121,4
0,53,0,4
0,55,0,14
0,51,0,0
0,46,0,0
0,55,76,3
0,46,78,3
0,51,73,2
0,51,0,24
0,46,0,0
0,55,0,0
0,51,86,6
0,46,89,2
0,55,81,2
0,56,0,2
0,53,120,2
0,51,0,18
0,55,0,0
0,46,0,0
0,55,79,4
0,46,86,2
0,51,82,2
0,53,0,22
0,55,0,2
0,46,0,2
0,51,0,2
0,49,110,3
0,53,115,1
0,56,120,0
0,60,117,2
0,56,0,6
0,53,0,1
0,49,0,1
0,49,74,4
0,53,72,2
0,56,30,1
0,60,30,0
0,65,30,0
0,56,77,0
0,60,0,16
0,56,0,4
0,49,0,2
0,53,0,0
0,56,0,0
0,56,94,3
0,53,93,2
0,49,92,0
0,65,0,1
0,53,0,24
0,49,0,0
0,56,0,0
0,49,81,6
0,53,82,2
0,56,35,2
0,60,35,0
0,61,35,0
0,65,35,0
0,56,79,0
0,60,0,16
0,65,0,2
0,61,0,2
0,56,0,2
0,53,0,0
0,49,0,0
0,56,0,4
0,56,78,0
0,53,83,2
0,49,80,2
0,56,0,18
0,53,0,2
0,49,0,2
0,49,110,9
0,53,115,1
0,81,110,2
0,56,40,0
0,60,40,0
0,61,40,0
0,65,40,0
0,56,120,0
0,81,0,4
0,60,0,8
0,61,0,4
0,65,0,4
0,56,0,2
0,60,0,8
0,56,0,20
0,53,0,1
0,49,0,1
0,49,79,4
0,53,75,2
0,56,45,2
0,60,45,0
0,61,45,0
0,65,45,0
0,56,74,0
0,60,0,7
0,61,0,2
0,65,0,4
0,56,0,1
0,49,0,3
0,53,0,0
0,56,0,0
0,56,73,3
0,53,73,2
0,49,76,2
0,49,0,25
0,53,0,0
0,56,0,0
0,49,84,6
0,53,88,2
0,56,50,2
0,60,50,0
0,61,50,0
0,65,50,0
0,56,87,0
0,60,0,12
0,61,0,2
0,56,0,4
0,65,0,0
0,49,0,4
0,56,0,0
0,53,0,0
0,56,88,4
0,53,85,2
0,49,86,2
0,56,0,18
0,53,0,2
0,49,0,2
0,49,110,9
0,53,115,1
0,56,55,2
0,60,55,0
0,61,55,0
0,65,55,0
0,56,120,0
0,60,0,12
0,61,0,1
0,65,0,4
0,56,0,1
0,56,0,36
0,53,0,1
0,49,0,1
0,49,72,4
0,53,73,2
0,56,55,2
0,60,55,0
0,61,55,0
0,65,20,0
0,56,79,0
0,60,0,9
0,61,0,1
0,65,0,4
0,56,0,6
0,49,0,2
0,53,0,0
0,56,0,0
0,56,92,3
0,53,92,2
0,49,95,2
0,49,0,25
0,53,0,0
0,56,0,0
0,49,88,6
0,53,85,2
0,56,55,2
0,60,55,0
0,61,55,0
0,65,55,0
0,56,80,0
0,61,0,14
0,60,0,0
0,56,0,6
0,65,0,2
0,49,0,0
0,56,0,0
0,53,0,0
0,56,82,4
0,53,81,2
0,49,88,2
0,56,0,18
