track,note,velocity,time
1,73,94,10756
1,73,95,224
1,73,91,64
1,73,75,832
1,73,91,80
1,73,94,240
1,73,97,768
1,73,90,80
1,73,90,96
1,73,91,64
1,73,93,580
1,73,93,80
1,73,97,576
1,73,95,576
1,73,95,240
1,73,91,80
1,73,93,240
1,73,91,108
1,73,90,80
1,73,93,112
1,73,91,80
1,73,94,240
1,73,94,572
1,73,91,100
1,73,90,96
1,73,90,112
1,73,93,104
1,73,90,256
1,73,93,96
1,73,90,96
1,73,93,104
1,73,93,96
1,73,95,240
1,61,110,2308
1,61,107,64
1,61,108,68
1,61,107,52
1,65,106,48
1,61,106,32
1,61,112,80
1,58,112,240
1,58,105,64
1,60,108,48
1,60,106,56
1,61,108,48
1,61,112,416
1,61,107,32
1,61,109,80
1,61,109,96
1,65,109,72
1,61,109,52
1,61,110,80
1,58,112,192
1,58,108,96
1,60,107,192
1,60,109,64
1,61,108,56
1,70,108,472
1,58,107,32
1,70,108,32
1,68,106,36
1,56,108,64
1,68,105,28
1,65,104,0
1,61,109,80
1,61,111,104
1,65,105,0
1,70,109,608
1,58,109,80
1,70,106,48
1,68,104,24
1,70,109,20
1,68,104,16
1,65,106,0
1,65,105,160
1,70,109,896
1,58,108,72
1,70,108,32
1,68,107,28
1,68,109,224
1,65,103,0
1,61,103,16
1,61,110,80
1,65,104,16
1,66,111,704
1,66,107,68
1,66,106,76
1,65,105,32
1,65,106,128
1,61,110,80
1,58,109,380
1,61,108,60
1,58,104,20
1,65,105,40
1,61,106,24
1,58,110,32
1,56,108,128
1,65,106,32
1,68,107,0
1,68,108,80
1,61,108,1476
1,73,106,32
1,68,104,12
1,66,107,160
1,66,104,92
1,66,105,80
1,68,103,52
1,68,105,48
1,66,104,16
1,65,102,16
1,63,104,4
1,61,110,28
1,73,107,32
1,68,105,12
1,66,107,224
1,66,106,80
1,66,105,48
1,65,104,192
1,63,104,32
1,61,109,288
1,73,108,48
1,68,105,0
1,66,108,240
1,66,106,80
1,66,106,72
1,68,103,52
1,68,105,56
1,66,105,32
1,65,102,32
1,63,102,16
1,61,108,0
1,61,107,96
1,58,109,100
1,61,108,156
1,61,106,80
1,61,106,64
1,61,106,64
1,61,108,64
1,63,106,0
1,73,94,2276
1,73,95,224
1,73,91,64
1,73,93,832
1,73,91,80
1,73,94,240
1,73,97,768
1,73,90,80
1,73,90,96
1,73,91,64
1,73,93,576
1,73,93,80
1,73,97,572
1,73,95,576
1,73,95,240
1,73,91,80
1,73,93,240
1,73,91,108
1,73,90,80
1,73,93,112
1,73,91,80
1,73,94,240
1,73,94,572
1,73,91,104
1,73,90,96
1,73,90,108
1,73,93,100
1,73,90,256
1,73,93,96
1,73,90,96
1,73,93,108
1,73,93,96
1,73,95,240
1,61,110,2308
1,61,107,68
1,61,108,64
1,61,107,56
1,65,106,48
1,61,106,32
1,61,112,80
1,58,112,240
1,58,105,68
1,60,108,48
1,60,106,52
1,61,108,48
1,61,112,416
1,61,107,32
1,61,109,80
1,61,109,96
1,65,109,72
1,61,109,56
1,61,110,80
1,58,112,192
1,58,108,96
1,60,107,192
1,60,109,64
1,61,108,52
1,70,108,476
1,58,107,36
1,70,108,32
1,68,106,32
1,56,108,64
1,68,105,24
1,65,104,0
1,61,109,80
1,61,111,100
1,65,105,0
1,70,109,608
1,58,109,80
1,70,106,48
1,68,104,24
1,70,109,16
1,68,104,16
1,65,106,0
1,65,105,160
1,70,109,896
1,58,108,68
1,70,108,32
1,68,107,28
1,68,109,224
1,65,103,0
1,61,103,20
1,61,110,80
1,65,104,16
1,66,111,704
1,66,107,64
1,66,106,72
1,65,105,32
1,65,106,128
1,61,110,80
1,58,109,380
1,61,108,60
1,58,104,24
1,65,105,44
1,61,106,20
1,58,110,32
1,56,108,128
1,65,106,32
1,68,107,0
1,68,108,80
1,61,108,1476
1,73,106,32
1,68,104,8
1,66,107,160
1,66,104,96
1,66,105,80
1,68,103,56
1,68,105,48
1,66,104,16
1,65,102,16
1,63,104,4
1,61,110,24
1,73,107,32
1,68,105,16
1,66,107,224
1,66,106,80
1,66,105,48
1,65,104,192
1,63,104,32
1,61,109,288
1,73,108,44
1,68,105,0
1,66,108,240
1,66,106,80
1,66,106,68
1,68,103,56
1,68,105,52
1,66,105,32
1,65,102,36
1,63,102,16
1,61,108,4
1,61,107,96
1,58,109,96
1,61,108,152
1,61,106,80
1,61,106,64
1,61,106,64
1,61,108,64
1,63,106,0
1,61,110,2276
1,73,106,44
1,68,105,16
1,66,107,188
1,66,106,124
1,66,105,76
1,68,105,52
1,68,105,56
1,66,105,0
1,65,102,28
1,63,105,16
1,61,109,16
1,73,107,16
1,68,104,32
1,66,106,224
1,66,108,96
1,66,106,68
1,65,103,20
1,63,104,32
1,61,108,272
1,73,105,32
1,68,106,40
1,66,106,224
1,66,106,88
1,66,105,64
1,68,102,48
1,68,105,64
1,66,105,16
1,65,103,32
1,63,104,64
1,61,106,32
1,61,106,88
1,58,108,36
1,61,108,144
1,61,105,112
1,61,107,84
1,58,103,64
1,61,106,20
1,63,105,0
1,73,108,2532
1,73,108,156
1,73,106,32
1,73,109,2288
1,73,109,144
1,73,107,40
1,68,106,2276
1,56,103,16
1,63,105,20
1,66,104,16
1,68,105,12
1,72,106,0
1,63,110,112
1,75,107,16
1,70,106,48
1,68,109,208
1,68,107,128
1,68,105,84
1,70,105,60
1,70,105,92
1,68,105,32
1,67,104,0
1,65,105,192
1,63,110,20
1,75,108,36
1,70,107,32
1,68,108,256
1,68,109,128
1,68,107,72
1,67,103,0
1,65,105,44
1,63,109,220
1,75,106,76
1,70,107,32
1,68,108,256
1,68,106,96
1,68,105,68
1,70,106,16
1,70,105,80
1,68,105,0
1,67,103,16
1,65,104,16
1,63,109,0
1,63,107,112
1,63,110,240
1,63,104,128
1,63,108,88
1,65,105,192
1,67,106,188
1,65,106,64
1,62,107,656
1,62,109,224
1,63,106,80
1,65,104,32
1,65,106,36
1,62,107,960
1,62,109,192
1,65,108,192
1,65,107,228
1,70,112,208
1,70,113,188
1,63,112,292
1,75,108,0
1,70,107,16
1,68,108,160
1,68,106,128
1,68,106,68
1,70,105,72
1,70,108,80
1,68,102,0
1,67,103,192
1,65,103,160
1,63,113,0
1,75,108,20
1,70,106,32
1,68,109,268
1,68,110,128
1,68,106,80
1,67,105,48
1,65,106,12
1,63,110,192
1,75,108,32
1,70,108,32
1,68,109,268
1,68,107,124
1,68,107,72
1,70,105,60
1,70,108,56
1,68,103,16
1,67,104,16
1,65,106,192
1,63,111,48
1,63,111,160
1,60,107,164
1,63,110,640
1,63,110,192
1,67,105,48
1,65,102,28
1,65,107,192
1,63,108,176
1,63,112,224
1,63,107,68
1,65,106,32
1,63,112,672
1,75,108,0
1,70,107,16
1,68,108,160
1,68,106,128
1,68,106,72
1,70,105,68
1,70,108,80
1,68,102,0
1,67,103,192
1,65,103,160
1,63,113,0
1,75,108,20
1,70,106,32
1,68,109,268
1,68,110,128
1,68,106,80
1,67,105,48
1,65,106,12
1,63,110,192
1,75,108,32
1,70,108,32
1,68,109,272
1,68,107,128
1,68,107,72
1,70,105,60
1,70,108,60
1,68,103,16
1,67,104,16
1,65,106,192
1,63,111,48
1,63,111,160
1,60,107,164
1,63,110,640
1,63,110,192
1,67,105,48
1,65,102,28
1,65,107,192
1,63,108,180
1,63,112,224
1,63,107,68
1,65,106,32
1,63,112,668
1,75,108,0
1,70,107,16
1,68,108,160
1,68,106,128
1,68,106,72
1,70,105,72
1,70,108,80
1,68,102,0
1,67,103,192
1,65,103,160
1,63,113,0
1,75,108,24
1,70,106,28
1,68,109,272
1,68,110,128
1,68,106,80
1,67,105,48
1,65,106,8
1,63,110,192
1,75,108,32
1,70,108,32
1,68,109,268
1,68,107,124
1,68,107,68
1,70,105,64
1,70,108,60
1,68,103,16
1,67,104,16
1,65,106,192
1,63,111,48
1,63,111,160
1,60,107,168
1,63,110,640
1,63,110,192
1,67,105,48
1,65,102,28
1,65,107,192
1,63,108,180
1,63,112,224
1,63,107,72
1,65,106,32
2,49,66,4608
2,49,61,80
2,49,64,80
2,49,61,64
2,49,62,64
2,49,60,76
2,49,64,64
2,49,62,80
2,49,63,96
2,49,59,80
2,49,63,64
2,49,65,84
2,49,63,80
2,42,64,64
2,44,61,44
2,49,62,20
2,49,66,64
2,49,61,80
2,49,64,80
2,49,61,64
2,49,62,64
2,49,60,76
2,49,64,64
2,49,62,80
2,49,63,96
2,49,59,80
2,49,63,64
2,49,65,88
2,49,63,80
2,42,64,64
2,44,61,44
2,49,62,24
2,49,66,13888
2,49,61,80
2,49,64,80
2,49,61,64
2,49,62,64
2,49,60,80
2,49,64,64
2,49,62,80
2,49,63,96
2,49,59,80
2,49,63,68
2,49,65,88
2,49,63,80
2,42,64,64
2,44,61,44
2,49,62,20
2,49,66,64
2,49,61,80
2,49,64,80
2,49,61,64
2,49,62,68
2,49,60,76
2,49,64,64
2,49,62,80
2,49,63,96
2,49,59,80
2,49,63,64
2,49,65,84
2,49,63,80
2,42,64,64
2,44,61,48
2,49,62,20
2,42,65,64
2,42,61,80
2,46,61,0
2,42,62,16
2,44,61,80
2,44,59,60
2,48,61,0
2,44,61,44
2,49,61,48
2,49,61,68
2,46,62,16
2,44,59,64
2,49,60,60
2,49,60,80
2,46,61,32
2,44,61,0
2,42,63,80
2,42,59,64
2,46,58,28
2,42,58,48
2,44,62,60
2,44,60,64
2,48,62,32
2,44,60,32
2,53,60,32
2,49,57,64
2,48,58,32
2,46,56,32
2,53,60,48
2,49,59,60
2,48,60,16
2,46,60,48
2,42,65,52
2,42,61,80
2,46,61,0
2,42,62,16
2,44,61,80
2,44,59,60
2,48,61,0
2,44,61,44
2,49,61,48
2,49,61,72
2,46,62,16
2,44,59,64
2,49,60,60
2,49,60,80
2,46,61,32
2,44,61,0
2,42,63,80
2,42,59,64
2,46,58,32
2,42,58,48
2,44,62,60
2,44,60,64
2,48,62,32
2,44,60,32
2,53,60,32
2,49,57,64
2,48,58,32
2,46,56,32
2,53,60,48
2,49,59,64
2,48,60,16
2,46,60,48
2,46,60,52
2,46,60,84
2,44,60,192
2,42,61,64
2,42,63,64
2,42,62,60
2,46,61,60
2,42,63,48
2,44,69,256
2,41,62,192
2,39,63,0
2,44,67,192
2,41,61,0
2,39,63,0
2,44,66,224
2,41,60,16
2,39,63,192
2,44,70,192
2,41,60,192
2,39,66,180
2,49,60,52
2,49,61,80
2,46,60,16
2,44,59,32
2,49,61,52
2,49,60,96
2,46,63,16
2,44,60,16
2,42,62,80
2,42,60,96
2,46,59,32
2,42,63,80
2,44,62,52
2,44,61,64
2,48,61,8
2,44,60,32
2,49,61,96
2,49,59,96
2,46,58,32
2,44,61,32
2,49,62,48
2,49,60,88
2,46,62,32
2,44,61,16
2,42,63,52
2,42,61,96
2,46,61,60
2,42,61,32
2,44,62,48
2,44,60,64
2,48,61,0
2,44,61,32
2,49,60,64
2,49,59,80
2,46,60,44
2,44,60,28
2,49,60,52
2,49,60,88
2,46,61,48
2,44,57,24
2,42,61,60
2,42,59,80
2,46,59,60
2,42,60,32
2,44,61,52
2,44,61,48
2,48,60,0
2,46,59,32
2,49,61,80
2,51,61,192
2,53,59,0
2,58,60,16
2,46,62,36
2,46,59,80
2,46,61,76
2,44,57,16
2,42,63,32
2,42,61,80
2,46,61,0
2,42,58,16
2,44,61,64
2,44,61,64
2,48,61,0
2,44,60,32
2,44,62,48
2,44,60,64
2,44,62,64
2,44,61,80
2,44,61,64
2,44,60,96
2,44,62,48
2,44,61,88
2,44,61,64
2,44,60,80
2,44,61,68
2,44,61,80
2,44,61,68
2,44,60,64
2,44,61,80
2,44,63,96
2,49,66,13892
2,49,61,80
2,49,64,80
2,49,61,64
2,49,62,64
2,49,60,80
2,49,64,64
2,49,62,80
2,49,63,96
2,49,59,80
2,49,63,68
2,49,65,84
2,49,63,80
2,42,64,64
2,44,61,48
2,49,62,20
2,49,66,64
2,49,61,80
2,49,64,80
2,49,61,64
2,49,62,68
2,49,60,76
2,49,64,64
2,49,62,80
2,49,63,96
2,49,59,80
2,49,63,64
2,49,65,84
2,49,63,80
2,42,64,64
2,44,61,44
2,49,62,20
2,42,65,64
2,42,61,80
2,46,61,0
2,42,62,16
2,44,61,80
2,44,59,56
2,48,61,0
2,44,61,48
2,49,61,48
2,49,61,68
2,46,62,16
2,44,59,64
2,49,60,60
2,49,60,80
2,46,61,32
2,44,61,0
2,42,63,76
2,42,59,64
2,46,58,28
2,42,58,48
2,44,62,56
2,44,60,64
2,48,62,32
2,44,60,32
2,53,60,32
2,49,57,64
2,48,58,32
2,46,56,32
2,53,60,48
2,49,59,60
2,48,60,16
2,46,60,48
2,42,65,52
2,42,61,80
2,46,61,0
2,42,62,16
2,44,61,80
2,44,59,60
2,48,61,0
2,44,61,44
2,49,61,48
2,49,61,72
2,46,62,16
2,44,59,64
2,49,60,60
2,49,60,80
2,46,61,32
2,44,61,0
2,42,63,80
2,42,59,64
2,46,58,28
2,42,58,48
2,44,62,60
2,44,60,64
2,48,62,32
2,44,60,32
2,53,60,32
2,49,57,64
2,48,58,32
2,46,56,32
2,53,60,48
2,49,59,60
2,48,60,16
2,46,60,48
2,46,60,52
2,46,60,84
2,44,60,192
2,42,61,64
2,42,63,64
2,42,62,60
2,46,61,56
2,42,63,48
2,44,69,256
2,41,62,192
2,39,63,0
2,44,67,192
2,41,61,0
2,39,63,0
2,44,66,224
2,41,60,16
2,39,63,192
2,44,70,192
2,41,60,192
2,39,66,180
2,49,60,52
2,49,61,80
2,46,60,16
2,44,59,32
2,49,61,56
2,49,60,96
2,46,63,16
2,44,60,16
2,42,62,80
2,42,60,96
2,46,59,32
2,42,63,80
2,44,62,52
2,44,61,60
2,48,61,4
2,44,60,32
2,49,61,92
2,49,59,96
2,46,58,32
2,44,61,32
2,49,62,48
2,49,60,84
2,46,62,32
2,44,61,16
2,42,63,56
2,42,61,96
2,46,61,64
2,42,61,28
2,44,62,48
2,44,60,64
2,48,61,0
2,44,61,32
2,49,60,64
2,49,59,80
2,46,60,44
2,44,60,24
2,49,60,56
2,49,60,88
2,46,61,48
2,44,57,20
2,42,61,56
2,42,59,80
2,46,59,60
2,42,60,32
2,44,61,56
2,44,61,48
2,48,60,0
2,46,59,32
2,49,61,80
2,51,61,192
2,53,59,0
2,58,60,16
2,46,62,36
2,46,59,80
2,46,61,80
2,44,57,16
2,42,63,32
2,42,61,80
2,46,61,0
2,42,58,16
2,44,61,60
2,44,61,68
2,48,61,0
2,44,60,32
2,44,62,48
2,44,60,64
2,44,62,64
2,44,61,80
2,44,61,64
2,44,60,96
2,44,62,48
2,44,61,84
2,44,61,64
2,44,60,80
2,44,61,72
2,44,61,80
2,44,61,68
2,44,60,64
2,44,61,80
2,44,63,96
2,49,60,64
2,49,61,80
2,46,60,16
2,44,59,32
2,49,61,52
2,49,60,96
2,46,63,16
2,44,60,16
2,42,62,80
2,42,60,96
2,46,59,32
2,42,63,80
2,44,62,52
2,44,61,64
2,48,61,8
2,44,60,32
2,49,61,92
2,49,59,96
2,46,58,32
2,44,61,32
2,49,62,48
2,49,60,88
2,46,62,36
2,44,61,16
2,42,63,52
2,42,61,96
2,46,61,60
2,42,61,32
2,44,62,48
2,44,60,64
2,48,61,0
2,44,61,32
2,49,60,64
2,49,59,80
2,46,60,44
2,44,60,28
2,49,60,52
2,49,60,84
2,46,61,48
2,44,57,24
2,42,61,56
2,42,59,80
2,46,59,56
2,42,60,32
2,44,61,52
2,44,61,48
2,48,60,0
2,46,59,32
2,49,61,80
2,51,61,192
2,53,59,0
2,58,60,16
2,46,62,40
2,46,59,80
2,46,61,76
2,44,57,16
2,42,63,32
2,42,61,80
2,46,61,0
2,42,58,16
2,44,61,64
2,44,61,64
2,48,61,0
2,44,60,32
2,44,62,48
2,44,60,64
2,44,62,64
2,44,61,80
2,44,61,64
2,44,60,96
2,44,62,48
2,44,61,88
