track,note,velocity,time
1,52,127,0
1,52,0,344
1,52,127,0
1,52,0,42
1,52,127,0
1,52,0,357
1,60,127,0
1,60,0,30
1,58,127,0
1,58,0,30
1,60,127,0
1,60,0,30
1,58,127,0
1,58,0,30
1,60,127,0
1,60,0,30
1,58,127,0
1,58,0,30
1,60,127,0
1,60,0,30
1,58,127,0
1,58,0,30
1,60,127,0
1,60,0,30
1,58,127,0
1,58,0,30
1,60,127,0
1,60,0,30
1,60,127,0
1,60,0,30
1,58,127,0
1,58,0,30
1,60,127,0
1,60,0,30
1,58,127,0
1,58,0,30
1,60,127,0
1,60,0,30
1,60,127,0
1,60,0,30
1,58,127,0
1,58,0,30
1,60,127,0
1,60,0,30
1,58,127,0
1,58,0,30
1,60,127,0
1,60,0,30
1,58,127,0
1,58,0,30
1,60,127,0
1,60,0,30
1,58,127,0
1,58,0,30
1,60,127,0
1,60,0,30
1,58,127,0
1,58,0,30
1,60,127,0
1,60,0,30
1,58,127,0
1,58,0,30
1,60,127,0
1,60,0,30
1,58,127,0
1,58,0,30
1,60,127,0
1,60,0,30
1,58,127,0
1,58,0,30
1,60,127,0
1,60,0,30
1,58,127,0
1,58,0,30
1,60,127,0
1,60,0,30
1,58,127,0
1,58,0,30
1,60,127,0
1,60,0,30
1,58,127,0
1,58,0,30
1,60,127,0
1,60,0,30
1,58,127,0
1,58,0,30
1,60,127,0
1,60,0,30
1,60,127,0
1,60,0,30
1,58,127,0
1,58,0,30
1,60,127,0
1,60,0,30
1,58,127,0
1,58,0,30
1,60,127,0
1,60,0,30
1,58,127,0
1,58,0,30
1,60,127,0
1,60,0,30
1,58,127,0
1,58,0,30
1,60,127,30
1,60,0,30
1,58,127,0
1,58,0,30
1,60,127,0
1,60,0,30
1,58,127,0
1,58,0,30
1,60,127,0
1,60,0,30
1,58,127,0
1,58,0,30
1,60,127,0
1,60,0,30
1,58,127,0
1,58,0,30
1,60,127,0
1,60,0,30
1,58,127,0
1,58,0,30
1,60,127,0
1,60,0,30
1,58,127,0
1,58,0,30
1,58,127,0
1,58,0,30
1,60,127,0
1,60,0,30
1,58,127,0
1,58,0,30
1,60,127,0
1,60,0,30
1,58,127,0
1,58,0,30
1,60,127,0
1,60,0,30
1,58,127,0
1,58,0,30
1,60,127,0
1,60,0,30
1,58,127,0
1,58,0,30
1,60,127,0
1,60,0,30
1,58,127,0
1,58,0,30
1,60,127,0
1,60,0,30
1,58,127,0
1,58,0,30
1,60,127,0
1,60,0,30
1,58,127,0
1,58,0,30
1,60,127,0
1,60,0,30
1,58,127,0
1,58,0,30
1,60,127,0
1,60,0,30
1,58,127,0
1,58,0,30
1,60,127,0
1,60,0,30
1,58,127,0
1,58,0,30
1,60,127,0
1,60,0,30
1,58,127,0
1,58,0,30
1,60,127,0
1,60,0,30
1,60,127,0
1,60,0,30
1,60,127,0
1,60,0,30
1,58,127,0
1,58,0,30
1,60,127,0
1,60,0,30
1,60,127,0
1,60,0,30
1,60,127,0
1,60,0,30
1,58,127,0
1,58,0,30
1,58,127,0
1,58,0,30
1,60,127,0
1,60,0,30
1,58,127,0
1,58,0,30
1,60,127,0
1,60,0,30
1,58,127,0
1,58,0,30
1,60,127,0
1,60,0,30
1,58,127,0
1,58,0,30
1,60,127,0
1,60,0,30
1,60,127,0
1,60,0,30
1,58,127,0
1,58,0,30
1,60,127,0
1,60,0,30
1,60,127,0
1,60,0,30
1,60,127,0
1,60,0,30
1,58,127,0
1,58,0,30
1,58,127,0
1,58,0,30
1,60,127,0
1,60,0,30
1,58,127,0
1,58,0,30
1,58,127,0
1,58,0,30
1,58,127,0
1,58,0,30
1,60,127,0
1,60,0,30
1,60,127,0
1,60,0,30
1,58,127,0
1,58,0,30
1,60,127,0
1,60,0,30
1,58,127,0
1,58,0,30
1,60,127,0
1,60,0,30
1,58,127,0
1,58,0,30
1,58,127,0
1,58,0,30
1,60,127,0
1,60,0,30
1,58,127,0
1,58,0,30
1,58,127,0
1,58,0,30
1,58,127,0
1,54,127,0
1,54,0,180
1,58,0,0
1,60,127,0
1,60,0,30
1,58,127,0
1,58,0,30
1,60,127,0
1,60,0,30
1,58,127,0
1,58,0,30
1,60,127,0
1,60,0,30
1,58,127,0
1,58,0,30
1,60,127,0
1,60,0,30
1,58,127,0
1,58,0,30
1,60,127,0
1,60,0,30
1,58,127,0
1,58,0,30
1,60,127,0
1,60,0,30
1,60,127,0
1,60,0,30
1,58,127,0
1,58,0,30
1,60,127,0
1,60,0,30
1,58,127,0
1,58,0,30
1,60,127,0
1,60,0,30
1,58,127,0
1,58,0,30
1,60,127,0
1,60,0,30
1,58,127,0
1,58,0,30
1,60,127,0
1,60,0,30
1,60,127,0
1,60,0,30
1,58,127,0
1,58,0,30
1,60,127,0
1,60,0,30
1,58,127,0
1,58,0,30
1,60,127,0
1,60,0,30
1,58,127,0
1,58,0,30
1,60,127,0
1,60,0,30
1,58,127,0
1,58,0,30
1,60,127,0
1,60,0,30
1,58,127,0
1,58,0,30
1,60,127,0
1,60,0,30
1,58,127,0
1,58,0,30
1,60,127,0
1,60,0,30
1,58,127,0
1,58,0,30
1,60,127,0
1,60,0,30
1,58,127,0
1,58,0,30
1,60,127,0
1,60,0,30
1,58,127,0
1,58,0,30
1,60,127,0
1,60,0,30
1,58,127,0
1,58,0,30
1,60,127,0
1,60,0,30
1,58,127,0
1,58,0,30
1,60,127,0
1,60,0,30
1,58,127,0
1,58,0,30
1,60,127,0
1,60,0,30
1,58,127,0
1,58,0,30
1,60,127,0
1,60,0,30
1,58,127,0
1,58,0,30
1,60,127,0
1,60,0,30
1,58,127,0
1,58,0,30
1,60,127,0
1,60,0,30
1,58,127,0
1,58,0,30
1,60,127,0
1,60,0,30
1,58,127,0
1,58,0,30
1,60,127,0
1,60,0,30
1,58,127,0
1,58,0,30
1,60,127,0
1,60,0,30
1,58,127,0
1,58,0,30
1,60,127,0
1,60,0,30
1,58,127,0
1,58,0,30
1,60,127,0
1,60,0,30
1,58,127,0
1,58,0,30
1,60,127,0
1,60,0,30
1,60,127,0
1,60,0,30
1,58,127,0
1,58,0,30
1,60,127,0
1,60,0,30
1,58,127,0
1,58,0,30
1,60,127,0
1,60,0,30
1,58,127,0
1,58,0,30
1,60,127,0
1,60,0,30
1,58,127,0
1,58,0,30
1,60,127,0
1,60,0,30
1,58,127,0
1,58,0,30
1,60,127,0
1,60,0,30
1,58,127,0
1,58,0,30
1,60,127,0
1,60,0,30
1,58,127,0
1,58,0,30
1,60,127,0
1,60,0,30
1,58,127,0
1,58,0,30
1,60,127,0
1,60,0,30
1,58,127,0
1,58,0,30
1,60,127,0
1,60,0,30
1,58,127,0
1,58,0,30
1,60,127,0
1,60,0,30
1,58,127,0
1,58,0,30
1,60,127,0
1,60,0,30
1,58,127,0
1,58,0,30
1,60,127,0
1,60,0,30
1,58,127,0
1,58,0,30
1,60,127,0
1,60,0,30
1,60,127,0
1,60,0,30
1,58,127,0
1,58,0,30
1,60,127,0
1,60,0,30
1,58,127,0
1,58,0,30
1,60,127,0
1,60,0,30
1,58,127,0
1,58,0,30
1,60,127,0
1,60,0,30
1,58,127,0
1,58,0,30
1,60,127,0
1,60,0,30
1,58,127,0
1,58,0,30
1,60,127,0
1,60,0,30
1,58,127,0
1,58,0,30
1,60,127,0
1,60,0,30
1,58,127,0
1,58,0,30
1,60,127,0
1,60,0,30
1,58,127,0
1,58,0,30
1,60,127,0
1,60,0,30
1,58,127,0
1,58,0,30
1,60,127,0
1,60,0,30
1,58,127,0
1,58,0,30
1,60,127,0
1,60,0,30
1,58,127,0
1,58,0,30
1,60,127,0
1,60,0,30
1,58,127,0
1,58,0,30
1,60,127,0
1,60,0,30
1,58,127,0
1,58,0,30
1,60,127,0
1,60,0,30
1,58,127,0
1,58,0,30
1,60,127,0
1,60,0,30
1,58,127,0
1,58,0,30
1,60,127,0
1,60,0,30
1,58,127,0
1,58,0,30
1,60,127,0
1,60,0,30
1,58,127,0
1,58,0,30
1,56,127,0
1,56,0,150
1,60,127,0
1,60,0,30
1,60,127,0
1,60,0,30
1,58,127,0
1,58,0,30
1,60,127,0
1,60,0,30
1,58,127,0
1,58,0,30
1,60,127,0
1,60,0,30
1,58,127,0
1,58,0,30
1,60,127,0
1,60,0,30
1,58,127,0
1,58,0,30
1,60,127,0
1,60,0,30
1,58,127,0
1,58,0,30
1,60,127,0
1,60,0,30
1,58,127,0
1,58,0,30
1,60,127,0
1,60,0,30
1,58,127,0
1,58,0,30
1,60,127,0
1,60,0,30
1,58,127,0
1,58,0,30
1,60,127,0
1,60,0,30
1,60,127,0
1,60,0,30
1,58,127,0
1,58,0,30
1,60,127,0
1,60,0,30
1,58,127,0
1,58,0,30
1,60,127,0
1,60,0,30
1,58,127,0
1,58,0,30
1,60,127,0
1,60,0,30
1,58,127,0
1,58,0,30
1,60,127,0
1,60,0,30
1,58,127,0
1,58,0,30
1,60,127,0
1,60,0,30
1,58,127,0
1,58,0,30
1,60,127,0
1,60,0,30
1,58,127,0
1,58,0,30
1,60,127,0
1,60,0,30
1,58,127,0
1,58,0,30
1,60,127,0
1,60,0,30
1,58,127,0
1,58,0,30
1,60,127,0
1,60,0,30
1,58,127,0
1,58,0,30
1,60,127,0
1,60,0,30
1,54,127,0
1,54,0,30
1,52,127,0
1,52,0,30
1,54,127,0
1,54,0,30
1,52,127,0
1,52,0,30
1,54,127,0
1,54,0,30
1,52,127,0
1,52,0,30
1,54,127,0
1,54,0,30
1,52,127,0
1,52,0,30
1,54,127,0
1,54,0,30
1,52,127,0
1,52,0,30
1,54,127,0
1,54,0,30
1,52,127,0
1,52,0,30
1,54,127,0
1,54,0,30
1,52,127,0
1,52,0,30
1,54,127,0
1,54,0,30
1,52,127,0
1,52,0,30
1,54,127,0
1,54,0,30
1,52,127,0
1,52,0,30
1,54,127,0
1,54,0,30
1,52,127,0
1,52,0,30
1,54,127,0
1,54,0,30
1,52,127,0
1,52,0,30
1,54,127,0
1,54,0,30
1,52,127,0
1,52,0,30
1,54,127,0
1,54,0,30
1,52,127,0
1,52,0,30
1,54,127,0
1,54,0,30
1,52,127,0
1,52,0,30
1,54,127,0
1,54,0,30
1,52,127,0
1,52,0,30
1,54,127,0
1,54,0,30
1,52,127,0
1,52,0,30
1,54,127,0
1,54,0,30
1,52,127,0
1,52,0,30
1,54,127,0
1,54,0,30
1,52,127,0
1,52,0,30
1,54,127,0
1,54,0,30
1,52,127,0
1,52,0,30
1,54,127,0
1,54,0,300
1,54,127,0
1,54,0,30
1,54,127,0
1,54,0,180
1,54,127,0
1,54,0,19
1,52,127,0
1,52,0,16
2,33,127,834
2,33,0,115
2,33,127,60
2,33,0,55
2,28,127,5
2,28,0,20
2,28,127,40
2,28,0,50
2,30,127,5
2,30,0,60
2,28,127,0
2,28,0,55
2,33,127,5
2,33,0,135
2,33,127,55
2,33,0,50
2,28,127,5
2,28,0,20
2,28,127,40
2,28,0,50
2,30,127,10
2,28,127,55
2,30,0,5
2,28,0,50
2,33,127,10
2,33,0,130
2,33,127,50
2,33,0,50
2,28,127,5
2,28,0,25
2,28,127,40
2,28,0,50
2,30,127,10
2,28,127,55
2,30,0,5
2,28,0,50
2,33,127,10
2,33,0,120
2,33,127,60
2,33,0,55
2,28,127,5
2,28,0,25
2,28,127,35
2,28,0,55
2,30,127,5
2,30,0,60
2,28,127,0
2,28,0,50
2,33,127,10
2,33,0,125
2,33,127,55
2,33,0,55
2,28,127,5
2,28,0,25
2,28,127,40
2,28,0,50
2,30,127,5
2,30,0,60
2,28,127,0
2,28,0,50
2,33,127,10
2,33,0,125
2,33,127,55
2,33,0,50
2,28,127,10
2,28,0,20
2,28,127,40
2,28,0,55
2,30,127,10
2,30,0,55
2,28,127,0
2,28,0,45
2,33,127,15
2,33,0,125
2,33,127,55
2,33,0,55
2,28,127,5
2,28,0,20
2,28,127,40
2,28,0,50
2,30,127,10
2,30,0,45
2,28,127,10
2,28,0,50
2,40,127,10
2,40,0,130
2,40,127,60
2,40,0,50
2,35,127,5
2,35,0,20
2,35,127,45
2,35,0,45
2,37,127,10
2,37,0,60
2,35,127,0
2,35,0,50
2,40,127,10
2,40,0,130
2,40,127,50
2,40,0,55
2,35,127,5
2,35,0,25
2,35,127,35
2,35,0,50
2,37,127,10
2,37,0,55
2,35,127,5
2,35,0,50
2,40,127,10
2,40,0,120
2,40,127,60
2,40,0,50
2,35,127,10
2,35,0,25
2,35,127,40
2,35,0,50
2,37,127,5
2,37,0,55
2,35,127,5
2,35,0,55
2,40,127,10
2,40,0,115
2,40,127,55
2,40,0,55
2,35,127,10
2,35,0,20
2,35,127,40
2,35,0,45
2,37,127,10
2,37,0,60
2,35,127,0
2,35,0,55
2,33,127,15
2,33,0,115
2,33,127,60
2,33,0,50
2,28,127,10
2,28,0,20
2,28,127,40
2,28,0,45
2,30,127,10
2,30,0,60
2,28,127,0
2,28,0,50
2,33,127,15
2,33,0,125
2,33,127,60
2,33,0,50
2,28,127,10
2,28,0,20
2,28,127,35
2,28,0,55
2,30,127,10
2,30,0,50
2,28,127,5
2,28,0,50
2,33,127,10
2,33,0,120
2,33,127,65
2,33,0,45
2,28,127,10
2,28,0,20
2,28,127,45
2,28,0,45
2,30,127,10
2,30,0,60
2,28,127,0
2,28,0,45
2,33,127,20
2,33,0,120
2,33,127,55
2,33,0,50
2,28,127,10
2,28,0,20
2,28,127,40
2,28,0,45
2,30,127,15
2,30,0,45
2,28,127,10
2,28,0,45
2,40,127,15
2,40,0,125
2,40,127,65
2,40,0,55
2,35,127,0
2,35,0,25
2,35,127,40
2,35,0,35
2,37,127,15
2,37,0,60
2,35,127,0
2,35,0,50
2,40,127,15
2,40,0,125
2,40,127,60
2,40,0,50
2,35,127,5
2,35,0,25
2,35,127,40
2,35,0,45
2,37,127,10
2,37,0,55
2,35,127,5
2,35,0,50
2,40,127,15
2,40,0,120
2,40,127,55
2,40,0,50
2,35,127,10
2,35,0,25
2,35,127,40
2,35,0,45
2,37,127,10
2,37,0,55
2,35,127,5
2,35,0,50
2,40,127,15
2,40,0,120
2,40,127,55
2,40,0,55
2,35,127,0
2,35,0,25
2,35,127,45
2,35,0,45
2,37,127,10
2,37,0,55
2,35,127,0
2,35,0,60
2,33,127,5
2,33,0,120
2,33,127,60
2,33,0,50
2,28,127,10
2,28,0,25
2,28,127,40
2,28,0,40
2,30,127,15
2,30,0,60
2,28,127,5
2,28,0,50
2,33,127,15
2,33,0,105
2,33,127,70
2,33,0,55
2,28,127,5
2,28,0,20
2,28,127,35
2,28,0,45
2,30,127,10
2,30,0,65
2,28,127,0
2,28,0,45
2,33,127,15
2,33,0,125
2,33,127,60
2,33,0,50
2,28,127,5
2,28,0,25
2,28,127,40
2,28,0,40
2,30,127,15
2,28,127,60
2,30,0,5
2,28,0,45
2,33,127,15
2,33,0,120
2,33,127,55
2,33,0,50
2,28,127,10
2,28,0,25
2,28,127,35
2,28,0,50
2,30,127,15
2,30,0,45
2,28,127,10
2,28,0,40
2,40,127,15
2,40,0,10
2,40,127,0
2,40,0,120
2,40,127,50
2,40,0,55
2,35,127,0
2,35,0,25
2,35,127,50
2,35,0,45
2,37,127,5
2,37,0,60
2,35,127,0
2,35,0,50
2,40,127,15
2,40,0,115
2,40,127,70
2,40,0,55
2,35,127,0
2,35,0,25
2,35,127,40
2,35,0,45
2,37,127,10
2,37,0,55
2,35,127,0
2,35,0,50
2,40,127,15
2,40,0,115
2,40,127,70
2,40,0,50
2,35,127,5
2,35,0,20
2,35,127,40
2,35,0,50
2,37,127,15
2,37,0,55
2,35,127,0
2,35,0,50
2,40,127,10
2,40,0,115
2,40,127,65
2,40,0,55
2,35,127,0
2,35,0,25
2,35,127,40
2,35,0,45
2,37,127,15
2,37,0,55
2,35,127,0
2,35,0,55
2,33,127,10
2,33,0,115
2,33,127,65
2,33,0,55
2,28,127,5
2,28,0,25
