track,note,velocity,time
1,40,44,120
1,40,0,179
1,43,44,1
1,43,0,179
1,40,44,1
1,40,0,119
1,45,44,1
1,45,0,179
1,40,44,1
1,40,0,179
1,45,44,1
1,45,0,119
1,38,44,1
1,38,0,119
1,45,44,1
1,45,0,59
1,43,44,1
1,43,0,119
1,42,44,1
1,42,0,119
1,40,44,1
1,40,0,59
1,38,44,1
1,38,0,119
1,40,44,361
1,40,0,179
1,43,44,1
1,43,0,179
1,40,44,1
1,40,0,119
1,45,44,1
1,45,0,179
1,40,44,1
1,40,0,179
1,45,44,1
1,45,0,119
1,38,44,1
1,38,0,179
1,45,44,1
1,45,0,179
1,45,44,1
1,45,0,119
1,38,44,1
1,38,0,179
1,45,44,1
1,45,0,179
1,38,44,1
1,38,0,119
1,40,44,1
1,40,0,179
1,52,44,1
1,52,0,179
1,47,44,1
1,47,0,119
1,45,44,1
1,45,0,179
1,40,44,1
1,40,0,179
1,45,44,1
1,45,0,119
1,38,44,1
1,38,0,119
1,50,44,1
1,50,0,59
1,47,44,1
1,47,0,119
1,45,44,1
1,45,0,119
1,42,44,1
1,42,0,59
1,38,44,1
1,38,0,119
1,40,44,361
1,40,0,179
1,43,44,1
1,43,0,179
1,40,44,1
1,40,0,119
1,45,44,1
1,45,0,179
1,40,44,1
1,40,0,179
1,45,44,1
1,45,0,119
1,38,44,1
1,38,0,179
1,45,44,1
1,45,0,179
1,45,44,1
1,45,0,119
1,38,44,1
1,38,0,179
1,45,44,1
1,45,0,179
1,38,44,1
1,38,0,119
1,40,44,1
1,40,0,179
1,52,44,1
1,52,0,179
1,47,44,1
1,47,0,119
1,45,44,1
1,45,0,179
1,40,44,1
1,40,0,179
1,45,44,1
1,45,0,119
1,38,44,1
1,38,0,119
1,50,44,1
1,50,0,59
1,47,44,1
1,47,0,119
1,45,44,1
1,45,0,119
1,42,44,1
1,42,0,59
1,38,44,1
1,38,0,59
1,50,44,1
1,50,0,59
1,50,44,1
1,50,0,59
1,50,44,1
1,50,0,59
1,50,44,1
1,50,0,59
1,52,44,1
1,52,0,119
1,54,44,1
1,54,0,59
1,55,44,1
1,55,0,179
1,50,44,1
1,50,0,179
1,43,44,1
1,43,0,119
1,45,44,1
1,45,0,179
1,52,44,1
1,52,0,179
1,45,44,1
1,45,0,119
1,38,44,1
1,38,0,179
1,50,44,1
1,50,0,179
1,45,44,1
1,45,0,119
1,38,44,1
1,38,0,59
1,50,44,1
1,50,0,59
1,50,44,1
1,50,0,59
1,50,44,1
1,50,0,59
1,50,44,1
1,50,0,59
1,52,44,1
1,52,0,119
1,54,44,1
1,54,0,59
1,55,44,1
1,55,0,179
1,50,44,1
1,50,0,179
1,43,44,1
1,43,0,119
1,45,44,1
1,45,0,179
1,45,44,1
1,45,0,59
1,40,44,1
1,40,0,119
1,45,44,1
1,45,0,119
1,38,44,1
1,38,0,179
1,42,44,1
1,42,0,59
1,43,44,1
1,43,0,59
1,42,44,1
1,42,0,119
1,40,44,1
1,40,0,59
1,38,44,1
1,38,0,59
1,50,44,1
1,50,0,59
1,50,44,1
1,50,0,59
1,50,44,1
1,50,0,59
1,50,44,1
1,50,0,59
1,52,44,1
1,52,0,119
1,54,44,1
1,54,0,59
1,55,44,1
1,55,0,179
1,50,44,1
1,50,0,179
1,43,44,1
1,43,0,119
1,45,44,1
1,45,0,179
1,52,44,1
1,52,0,179
1,45,44,1
1,45,0,119
1,38,44,1
1,38,0,179
1,50,44,1
1,50,0,179
1,45,44,1
1,45,0,119
1,38,44,1
1,38,0,59
1,50,44,1
1,50,0,59
1,50,44,1
1,50,0,59
1,50,44,1
1,50,0,59
1,50,44,1
1,50,0,59
1,52,44,1
1,52,0,119
1,54,44,1
1,54,0,59
1,55,44,1
1,55,0,179
1,50,44,1
1,50,0,179
1,43,44,1
1,43,0,119
1,45,44,1
1,45,0,179
1,45,44,1
1,45,0,59
1,40,44,1
1,40,0,119
1,45,44,1
1,45,0,119
1,38,44,1
1,38,0,179
1,42,44,1
1,42,0,59
1,43,44,1
1,43,0,59
1,42,44,1
1,42,0,119
1,40,44,1
1,40,0,59
1,38,44,1
1,38,0,119
1,40,44,361
1,40,0,179
1,43,44,1
1,43,0,179
1,40,44,1
1,40,0,119
1,45,44,1
1,45,0,179
1,40,44,1
1,40,0,179
1,45,44,1
1,45,0,119
1,38,44,1
1,38,0,179
1,45,44,1
1,45,0,179
1,45,44,1
1,45,0,119
1,38,44,1
1,38,0,179
1,45,44,1
1,45,0,179
1,38,44,1
1,38,0,119
1,40,44,1
1,40,0,179
1,52,44,1
1,52,0,179
1,47,44,1
1,47,0,119
1,45,44,1
1,45,0,179
1,40,44,1
1,40,0,179
1,45,44,1
1,45,0,119
1,38,44,1
1,38,0,119
1,50,44,1
1,50,0,59
1,47,44,1
1,47,0,119
1,45,44,1
1,45,0,119
1,42,44,1
1,42,0,59
1,38,44,1
1,38,0,59
1,50,44,1
1,50,0,59
1,50,44,1
1,50,0,59
1,50,44,1
1,50,0,59
1,50,44,1
1,50,0,59
1,52,44,1
1,52,0,119
1,54,44,1
1,54,0,59
1,55,44,1
1,55,0,179
1,50,44,1
1,50,0,179
1,43,44,1
1,43,0,119
1,45,44,1
1,45,0,179
1,52,44,1
1,52,0,179
1,45,44,1
1,45,0,119
1,38,44,1
1,38,0,179
1,50,44,1
1,50,0,179
1,45,44,1
1,45,0,119
1,38,44,1
1,38,0,59
1,50,44,1
1,50,0,59
1,50,44,1
1,50,0,59
1,50,44,1
1,50,0,59
1,50,44,1
1,50,0,59
1,52,44,1
1,52,0,119
1,54,44,1
1,54,0,59
1,55,44,1
1,55,0,179
1,50,44,1
1,50,0,179
1,43,44,1
1,43,0,119
1,45,44,1
1,45,0,179
1,45,44,1
1,45,0,59
1,40,44,1
1,40,0,119
1,45,44,1
1,45,0,119
1,38,44,1
1,38,0,179
1,42,44,1
1,42,0,59
1,43,44,1
1,43,0,59
1,42,44,1
1,42,0,119
1,40,44,1
1,40,0,59
1,38,44,1
1,38,0,59
1,50,44,1
1,50,0,59
1,50,44,1
1,50,0,59
1,50,44,1
1,50,0,59
1,50,44,1
1,50,0,59
1,52,44,1
1,52,0,119
1,54,44,1
1,54,0,59
1,55,44,1
1,55,0,179
1,50,44,1
1,50,0,179
1,43,44,1
1,43,0,119
1,45,44,1
1,45,0,179
1,52,44,1
1,52,0,179
1,45,44,1
1,45,0,119
1,38,44,1
1,38,0,179
1,50,44,1
1,50,0,179
1,45,44,1
1,45,0,119
1,38,44,1
1,38,0,59
1,50,44,1
1,50,0,59
1,50,44,1
1,50,0,59
1,50,44,1
1,50,0,59
1,50,44,1
1,50,0,59
1,52,44,1
1,52,0,119
1,54,44,1
1,54,0,59
1,55,44,1
1,55,0,179
1,50,44,1
1,50,0,179
1,43,44,1
1,43,0,119
1,45,44,1
1,45,0,179
1,45,44,1
1,45,0,59
1,40,44,1
1,40,0,119
1,45,44,1
1,45,0,119
1,38,44,1
1,38,0,179
1,42,44,1
1,42,0,59
1,43,44,1
1,43,0,59
1,42,44,1
1,42,0,119
1,40,44,1
1,40,0,59
1,38,44,1
1,38,0,119
1,40,44,361
1,40,0,179
1,43,44,1
1,43,0,179
1,40,44,1
1,40,0,119
1,45,44,1
1,45,0,179
1,40,44,1
1,40,0,179
1,45,44,1
1,45,0,119
1,38,44,1
1,38,0,179
1,45,44,1
1,45,0,179
1,45,44,1
1,45,0,119
1,38,44,1
1,38,0,179
1,45,44,1
1,45,0,179
1,38,44,1
1,38,0,119
1,40,44,1
1,40,0,179
1,52,44,1
1,52,0,179
1,47,44,1
1,47,0,119
1,45,44,1
1,45,0,179
1,40,44,1
1,40,0,179
1,45,44,1
1,45,0,119
1,38,44,1
1,38,0,119
1,50,44,1
1,50,0,59
1,47,44,1
1,47,0,119
1,45,44,1
1,45,0,119
1,42,44,1
1,42,0,59
1,38,44,1
1,38,0,119
1,45,44,1
1,45,0,59
1,38,44,1
1,38,0,299
2,49,105,12240
2,49,0,1
2,49,115,84
2,49,0,1
2,49,115,89
2,49,0,1
2,49,125,15184
2,49,0,1
2,49,115,84
2,49,0,1
2,49,105,90
2,49,0,1
3,56,90,0
3,56,0,5
3,56,90,235
3,56,0,1
3,56,100,239
3,56,0,1
3,56,80,119
3,56,0,1
3,56,120,119
3,56,0,1
3,56,100,119
3,56,0,1
3,46,25,119
3,46,0,1
3,44,25,59
3,44,0,1
3,46,25,59
3,44,25,60
3,46,25,60
3,46,0,1
3,44,25,59
3,44,0,1
3,46,25,59
3,46,0,0
3,44,25,60
3,44,0,0
3,46,25,60
3,46,0,1
3,44,25,59
3,44,0,1
3,46,25,59
3,46,0,0
3,44,25,60
3,44,0,0
3,46,25,60
3,46,0,0
3,44,25,60
3,44,0,0
3,46,25,180
3,46,0,2
3,44,25,58
3,44,0,2
3,46,25,58
3,46,0,0
3,44,25,60
3,44,0,0
3,46,25,60
3,46,0,1
3,44,25,59
3,44,0,1
3,46,25,60
3,46,0,1
3,44,25,59
3,44,0,1
3,46,25,58
3,46,0,1
3,44,25,59
3,44,0,1
3,46,25,59
3,46,0,1
3,44,25,59
3,44,0,1
3,46,25,59
3,46,0,0
3,44,25,60
3,44,0,0
3,46,25,60
3,46,0,2
3,44,25,58
3,44,0,2
3,46,25,59
3,46,0,1
3,44,25,59
3,44,0,1
3,46,25,58
3,46,0,1
3,44,25,59
3,44,0,1
3,46,25,59
3,46,0,1
3,44,25,59
3,44,0,1
3,46,25,60
3,46,0,1
3,44,25,59
3,44,0,1
3,46,25,59
3,46,0,1
3,44,25,59
3,44,0,1
3,46,25,59
3,46,0,1
3,44,25,59
3,44,0,1
3,46,25,58
3,46,0,1
3,44,25,59
3,44,0,1
3,46,25,59
3,46,0,1
3,44,25,59
3,44,0,1
3,46,25,59
3,46,0,0
3,44,25,60
3,44,0,0
3,46,25,60
3,46,0,0
3,44,25,60
3,44,0,0
3,46,25,60
3,46,0,1
3,44,25,59
3,44,0,1
3,46,25,59
3,46,0,2
3,44,25,58
3,44,0,2
3,46,25,59
3,46,0,1
3,44,25,59
3,44,0,1
3,46,25,59
3,46,0,1
3,44,25,59
3,44,0,1
3,46,25,58
3,46,0,1
3,44,25,59
3,44,0,1
3,46,25,59
3,46,0,1
3,44,25,59
3,44,0,1
3,46,25,59
3,46,0,1
3,44,25,59
3,44,0,1
3,46,25,59
3,46,0,0
3,44,25,60
3,44,0,0
3,46,25,60
3,46,0,0
3,44,25,60
3,44,0,0
3,46,25,60
3,46,0,0
3,44,25,60
3,44,0,0
3,46,25,60
3,46,0,1
3,44,25,59
3,44,0,1
3,46,25,59
3,46,0,1
3,44,25,59
3,44,0,1
3,46,25,59
3,46,0,1
3,44,25,59
3,44,0,1
3,46,25,59
3,46,0,1
3,44,25,59
3,44,0,1
3,46,25,59
3,46,0,1
3,44,25,59
3,44,0,1
3,46,25,59
3,46,0,1
3,44,25,59
3,44,0,1
3,46,25,59
3,46,0,1
3,44,25,59
3,44,0,1
3,46,25,59
3,46,0,0
3,44,25,60
3,44,0,0
3,46,25,60
3,46,0,0
3,44,25,60
3,44,0,0
3,46,25,60
3,46,0,1
3,44,25,59
3,44,0,1
3,46,25,59
3,46,0,1
3,44,25,59
3,44,0,1
3,46,25,179
3,46,0,0
3,44,25,60
3,44,0,0
3,46,25,60
3,46,0,1
3,44,25,59
3,44,0,1
3,46,25,59
3,46,0,1
3,44,25,59
3,44,0,1
3,46,25,59
3,46,0,1
3,44,25,59
3,44,0,1
3,46,25,59
3,46,0,0
3,44,25,60
3,44,0,0
3,46,25,60
3,46,0,0
3,44,25,60
3,44,0,0
3,46,25,60
3,46,0,1
3,44,25,59
3,44,0,1
3,46,25,59
3,46,0,2
3,44,25,58
3,44,0,2
3,46,25,59
3,46,0,1
3,44,25,59
3,44,0,1
3,46,25,59
3,46,0,1
3,44,25,59
3,44,0,1
3,46,25,58
3,46,0,1
3,44,25,59
3,44,0,1
3,46,25,59
3,46,0,1
3,44,25,59
3,44,0,1
3,46,25,59
3,46,0,1
3,44,25,59
3,44,0,1
3,46,25,59
3,46,0,1
3,44,25,59
3,44,0,1
3,46,25,59
3,46,0,0
3,44,25,60
3,44,0,0
3,46,25,60
3,46,0,0
3,44,25,60
3,44,0,0
3,46,25,60
3,46,0,0
3,44,25,60
3,44,0,0
3,46,25,60
3,46,0,1
3,44,25,59
3,44,0,1
3,46,25,59
3,46,0,1
3,44,25,59
3,44,0,1
3,46,25,59
3,46,0,1
3,44,25,59
3,44,0,1
3,46,25,59
3,46,0,1
3,44,25,59
3,44,0,1
3,46,25,59
3,46,0,1
3,44,25,59
3,44,0,1
3,46,25,59
3,46,0,1
3,44,25,59
3,44,0,1
3,46,25,59
3,46,0,0
3,44,25,60
3,44,0,0
3,46,25,60
3,46,0,0
3,44,25,60
3,44,0,0
3,46,25,60
3,46,0,1
3,44,25,59
3,44,0,1
3,46,25,59
3,46,0,1
3,44,25,59
3,44,0,1
3,46,25,59
3,46,0,1
3,44,25,59
3,44,0,1
3,46,25,59
3,46,0,1
3,44,25,59
3,44,0,1
3,46,25,59
3,46,0,1
3,44,25,59
3,44,0,1
3,46,25,59
3,46,0,1
3,44,25,59
3,44,0,1
3,46,25,59
3,46,0,0
3,44,25,60
3,44,0,0
3,46,25,60
3,46,0,1
3,44,25,59
3,44,0,1
3,46,25,59
3,46,0,0
3,44,25,60
3,44,0,0
3,46,25,60
3,46,0,1
3,44,25,59
3,44,0,1
3,46,25,59
3,46,0,1
3,44,25,59
3,44,0,1
3,46,25,59
3,46,0,1
3,44,25,59
3,44,0,1
3,46,25,60
3,46,0,1
3,44,25,59
3,44,0,1
3,46,25,59
3,46,0,1
3,44,25,59
3,44,0,1
3,46,25,59
3,46,0,1
3,44,25,59
3,44,0,1
3,46,25,59
3,46,0,1
3,44,25,59
3,44,0,1
3,46,25,58
3,46,0,1
3,44,25,59
3,44,0,1
3,46,25,59
3,46,0,0
3,44,25,60
3,44,0,0
3,46,25,60
3,46,0,1
3,44,25,59
3,44,0,1
3,46,25,59
3,46,0,0
3,44,25,60
3,44,0,0
3,46,25,60
3,46,0,1
3,44,25,59
3,44,0,1
3,46,25,59
3,46,0,1
3,44,25,59
3,44,0,1
3,46,25,179
3,46,0,0
3,44,25,60
3,44,0,0
3,46,25,60
3,46,0,1
3,44,25,59
3,44,0,1
3,46,25,59
3,46,0,1
3,44,25,59
3,44,0,1
3,46,25,179
3,46,0,0
3,44,25,60
3,44,0,0
3,46,25,60
3,46,0,1
3,44,25,59
3,44,0,1
3,46,25,59
3,46,0,1
3,44,25,59
3,44,0,1
3,46,25,60
3,46,0,1
3,44,25,59
3,44,0,1
3,46,25,59
3,46,0,1
3,44,25,59
3,44,0,1
3,46,25,59
3,46,0,1
3,44,25,59
3,44,0,1
3,46,25,58
3,46,0,1
3,44,25,59
3,44,0,1
3,46,25,59
3,46,0,1
3,44,25,59
3,44,0,1
3,46,25,59
3,46,0,1
3,44,25,59
3,44,0,1
3,46,25,59
3,46,0,0
3,44,25,60
3,44,0,0
3,46,25,60
3,46,0,1
3,44,25,59
3,44,0,1
3,46,25,179
3,46,0,0
3,44,25,60
3,44,0,0
3,46,25,60
3,46,0,0
3,44,25,60
3,44,0,0
3,46,25,60
3,46,0,1
3,44,25,59
3,44,0,1
3,46,25,59
3,46,0,1
3,44,25,59
3,44,0,1
3,46,25,59
3,46,0,1
3,44,25,59
3,44,0,1
3,46,25,59
3,46,0,1
3,44,25,59
3,44,0,1
3,46,25,59
3,46,0,1
3,44,25,59
3,44,0,1
3,46,25,59
3,46,0,0
3,44,25,60
3,44,0,0
3,46,25,60
3,46,0,2
3,44,25,58
3,44,0,2
3,46,25,58
3,46,0,2
3,44,25,58
3,44,0,2
3,46,25,59
3,46,0,1
3,44,25,59
3,44,0,1
3,46,25,58
3,46,0,1
3,44,25,59
3,44,0,1
3,46,25,59
3,46,0,1
