track,note,velocity,time
0,36,90,146
0,38,115,0
0,50,113,0
0,54,80,0
0,57,92,0
0,62,97,0
0,66,92,0
0,81,96,0
0,50,114,4
0,57,90,3
0,62,99,4
0,66,127,4
0,36,64,26
0,38,121,0
0,54,40,0
0,40,110,28
0,54,90,0
0,60,89,0
0,82,90,0
0,66,127,50
0,62,123,1
0,57,90,3
0,33,115,1
0,54,35,0
0,66,113,0
0,69,93,0
0,82,46,0
0,50,117,2
0,36,90,2
0,38,115,0
0,54,90,0
0,71,107,0
0,74,107,0
0,66,111,1
0,62,105,1
0,36,64,2
0,38,115,0
0,50,127,0
0,54,46,0
0,57,93,0
0,62,107,0
0,50,127,1
0,57,127,2
0,62,90,2
0,66,127,2
0,40,110,5
0,54,98,0
0,64,85,0
0,69,113,0
0,73,107,0
0,81,80,0
0,82,90,0
0,66,93,4
0,62,72,1
0,57,90,4
0,38,110,2
0,54,27,0
0,64,93,0
0,71,102,0
0,74,107,0
0,82,48,0
0,50,76,3
0,43,113,27
0,55,56,0
0,59,92,0
0,50,127,1
0,55,99,2
0,59,114,0
0,67,127,3
0,36,90,1
0,43,115,0
0,54,90,0
0,67,107,0
0,71,113,0
0,83,83,0
0,36,64,26
0,43,110,0
0,54,34,0
0,55,120,3
0,67,127,3
0,40,110,4
0,54,90,0
0,60,89,0
0,69,98,0
0,74,127,0
0,82,90,0
0,38,115,55
0,54,32,0
0,67,103,0
0,71,119,0
0,82,54,0
0,67,127,3
0,59,108,1
0,55,102,3
0,36,90,7
0,43,109,0
0,54,90,0
0,66,103,0
0,69,127,0
0,36,64,9
0,43,93,0
0,54,34,0
0,62,98,0
0,62,102,0
0,67,127,0
0,59,90,2
0,67,99,0
0,55,99,1
0,50,108,3
0,50,127,2
0,40,110,3
0,54,80,0
0,55,96,0
0,63,89,0
0,82,90,0
0,59,127,2
0,67,78,1
0,43,97,1
0,54,46,0
0,63,93,0
0,64,80,0
0,69,107,0
0,82,42,0
0,45,107,44
0,57,60,0
0,61,92,0
0,64,74,0
0,36,90,9
0,45,106,0
0,54,80,0
0,79,87,0
0,81,90,0
0,57,96,3
0,64,127,5
0,36,64,31
0,45,103,0
0,54,40,0
0,57,120,4
0,64,127,3
0,40,110,3
0,54,90,0
0,60,89,0
0,82,90,0
0,40,111,69
0,54,35,0
0,67,93,0
0,71,107,0
0,82,46,0
0,64,127,5
0,61,123,3
0,57,123,2
0,36,90,3
0,45,115,0
0,54,90,0
0,73,102,0
0,76,119,0
0,64,108,1
0,36,64,1
0,45,110,0
0,54,46,0
0,62,102,0
0,61,87,1
0,57,102,1
0,52,127,3
0,52,96,1
0,40,110,2
0,54,98,0
0,64,89,0
0,71,85,0
0,74,113,0
0,82,90,0
0,57,127,2
0,61,96,0
0,64,127,0
0,45,110,12
0,54,27,0
0,64,89,0
0,67,85,0
0,71,107,0
0,82,48,0
0,50,101,44
0,62,84,0
0,66,68,0
0,81,83,0
0,50,127,5
0,57,120,3
0,36,90,2
0,38,115,0
0,54,90,0
0,66,93,0
0,69,113,0
0,62,127,2
0,66,127,1
0,36,64,35
0,38,115,0
0,54,34,0
0,50,127,3
0,62,127,0
0,40,110,2
0,54,90,0
0,60,102,0
0,69,127,0
0,82,90,0
0,38,110,52
0,54,32,0
0,67,113,0
0,82,54,0
0,66,117,4
0,62,123,2
0,57,127,2
0,36,90,12
0,45,106,0
0,54,90,0
0,66,119,0
0,36,64,7
0,45,97,0
0,54,34,0
0,62,102,0
0,69,113,0
0,66,90,2
0,62,87,1
0,57,105,3
0,50,127,3
0,50,127,3
0,57,108,2
0,62,127,2
0,40,110,1
0,54,80,0
0,64,89,0
0,82,90,0
0,66,70,2
0,45,106,55
0,54,46,0
0,62,107,0
0,64,85,0
0,82,42,0
0,50,108,6
0,57,123,3
0,36,90,3
0,38,115,0
0,54,80,0
0,62,127,0
0,78,83,0
0,81,80,0
0,66,127,3
0,36,64,23
0,38,97,0
0,54,40,0
0,50,117,3
0,57,102,1
0,62,96,1
0,66,127,2
0,40,110,2
0,54,90,0
0,60,89,0
0,82,90,0
0,33,110,66
0,54,35,0
0,66,113,0
0,69,93,0
0,82,46,0
0,66,127,4
0,62,127,1
0,57,72,3
0,36,90,11
0,38,115,0
0,54,90,0
0,71,113,0
0,74,107,0
0,66,127,1
0,36,64,2
0,38,101,0
0,54,46,0
0,62,99,0
0,62,107,0
0,57,96,3
0,50,117,4
0,50,127,1
0,57,127,1
0,62,125,1
0,66,127,0
0,40,110,5
0,54,98,0
0,64,85,0
0,69,113,0
0,73,102,0
0,82,90,0
0,38,114,10
0,54,27,0
0,64,93,0
0,71,107,0
0,74,93,0
0,82,48,0
0,43,107,44
0,55,46,0
0,59,56,0
0,79,87,0
0,50,127,1
0,55,127,3
0,59,127,4
0,36,90,2
0,43,114,0
0,54,90,0
0,67,107,0
0,67,87,0
0,67,127,0
0,71,93,0
0,71,85,0
0,36,64,16
0,43,116,0
0,54,34,0
0,55,127,4
0,67,127,3
0,40,110,3
0,54,90,0
0,60,89,0
0,82,90,0
0,38,115,8
0,54,32,0
0,59,93,0
0,67,89,0
0,67,111,0
0,82,54,0
0,59,93,3
0,36,90,15
0,43,117,0
0,54,90,0
0,62,108,0
0,71,93,0
0,36,64,2
0,43,120,0
0,54,34,0
0,62,102,0
0,67,117,0
0,59,108,4
0,55,96,3
0,50,117,3
0,50,127,1
0,55,127,1
0,59,111,2
0,40,110,1
0,54,80,0
0,62,112,0
0,63,89,0
0,71,102,0
0,71,88,0
0,74,92,0
0,83,83,0
0,82,90,0
0,67,127,0
0,43,112,10
0,54,46,0
0,61,112,0
0,63,93,0
0,69,102,0
0,82,42,0
0,45,101,31
0,57,48,0
0,61,84,0
0,64,74,0
0,36,90,2
0,45,106,0
0,54,80,0
0,69,90,0
0,73,94,0
0,81,92,0
0,81,74,0
0,52,111,1
0,57,127,1
0,61,127,3
0,64,127,3
0,36,64,21
0,45,104,0
0,54,40,0
0,61,108,0
0,69,102,0
0,52,127,3
0,61,120,3
0,40,110,6
0,54,90,0
0,60,89,0
0,82,90,0
0,64,127,49
0,61,127,3
0,40,113,1
0,52,127,0
0,54,35,0
0,57,120,0
0,61,109,0
0,69,98,0
0,82,46,0
0,36,90,1
0,45,105,0
0,54,90,0
0,59,108,0
0,67,102,0
0,67,97,0
0,71,98,0
0,79,87,0
0,64,105,2
0,61,99,2
0,57,99,1
0,36,64,2
0,45,107,0
0,54,46,0
0,62,102,0
0,52,127,2
0,52,127,1
0,57,90,1
0,61,127,1
0,64,70,2
0,40,110,4
0,43,121,0
0,54,98,0
0,61,107,0
0,64,89,0
0,67,102,0
0,82,90,0
0,64,84,24
0,61,82,4
0,57,87,1
0,52,111,5
0,40,110,3
0,54,27,0
0,64,89,0
0,82,48,0
0,50,121,29
0,57,92,0
0,62,107,0
0,66,97,0
0,50,127,1
0,57,99,1
0,62,127,1
0,66,127,2
0,36,90,6
0,38,115,0
0,54,90,0
0,60,102,0
0,62,110,0
0,66,102,0
0,66,118,0
0,69,120,0
0,78,107,0
0,40,108,1
0,54,44,9
0,54,30,92
0,47,52,92
0,54,35,0
0,69,104,0
0,47,84,48
0,74,110,0
0,47,69,138
0,73,104,0
0,74,104,52
0,36,90,49
0,43,115,0
0,54,80,0
0,55,54,0
0,59,80,0
0,71,104,0
0,50,100,2
0,55,99,2
0,59,115,3
0,67,115,3
0,36,64,26
0,43,110,0
0,54,40,0
0,67,127,3
0,59,117,1
0,40,110,1
0,54,90,0
0,71,107,0
0,74,113,0
0,82,90,0
0,55,120,1
0,50,99,1
0,38,115,53
0,54,35,0
0,59,127,0
0,67,107,0
0,71,113,0
0,82,46,0
0,67,127,1
0,36,90,7
0,43,109,0
0,54,90,0
0,64,89,0
0,67,107,0
0,36,64,13
0,43,93,0
0,54,46,0
0,62,107,0
0,66,98,0
0,67,103,2
0,59,99,3
0,55,89,3
0,50,94,2
0,40,110,2
0,50,127,0
0,54,98,0
0,55,114,0
0,59,117,0
0,82,90,0
0,67,127,2
0,43,97,55
0,54,27,0
0,61,107,0
0,64,102,0
0,82,48,0
0,52,62,44
0,57,50,0
0,61,74,0
0,36,90,9
0,45,106,0
0,52,98,0
0,54,90,0
0,57,101,2
0,61,105,2
0,64,101,1
0,81,88,4
0,36,64,31
0,45,103,0
0,54,34,0
0,40,110,6
0,52,114,0
0,54,90,0
0,82,90,0
0,61,111,3
0,64,111,46
0,40,111,2
0,54,32,0
0,61,108,0
0,71,99,0
0,82,54,0
0,57,99,2
0,52,98,2
0,36,90,15
0,45,115,0
0,54,90,0
0,76,104,0
0,64,108,2
0,61,90,3
0,36,64,2
0,45,110,0
0,54,34,0
0,57,93,0
0,52,127,3
0,52,127,4
0,57,99,1
0,61,127,1
0,64,117,3
0,40,110,2
0,54,80,0
0,74,104,0
0,82,90,0
0,45,110,40
0,54,46,0
0,71,99,0
0,82,42,0
0,54,70,5
0,62,74,0
0,50,127,37
0,57,127,2
0,62,78,3
0,66,127,2
0,36,90,3
0,38,115,0
0,54,80,0
0,69,104,0
0,36,64,35
0,38,115,0
0,54,40,0
0,50,108,1
0,57,120,1
0,62,68,2
0,66,115,1
0,40,110,2
0,54,90,0
0,66,107,0
0,69,107,0
0,82,90,0
0,66,123,20
0,62,105,2
0,57,108,2
0,38,110,1
0,54,35,0
0,62,113,0
0,66,89,0
0,82,46,0
0,50,105,2
0,36,90,12
0,45,106,0
0,54,90,0
0,57,107,0
0,62,102,0
0,66,96,2
0,62,96,2
0,57,108,1
0,36,64,1
0,45,97,0
0,50,127,0
0,54,46,0
0,55,98,0
0,59,93,0
0,57,102,1
0,62,108,1
0,66,127,1
0,40,110,7
0,54,98,0
0,82,90,0
0,66,78,43
0,62,72,3
0,57,32,3
0,45,106,5
0,54,98,0
0,54,27,0
0,57,102,0
0,82,48,0
0,50,70,44
0,50,127,5
0,57,102,3
0,62,127,3
0,36,90,2
0,38,115,0
0,54,90,0
0,66,120,0
0,81,82,4
0,36,64,23
0,38,97,0
0,54,34,0
0,57,114,4
0,66,127,3
0,40,110,2
0,54,90,0
0,82,90,0
0,33,110,9
0,54,32,0
0,82,54,0
0,66,117,2
0,69,104,0
0,62,123,1
0,57,93,1
0,50,96,2
0,36,90,54
0,38,115,0
0,54,90,0
0,74,110,9
0,36,64,2
0,38,101,0
0,54,34,0
0,66,105,0
0,62,90,1
0,57,102,1
0,50,127,1
0,73,110,81
0,50,127,3
0,40,110,1
0,54,80,0
0,82,90,0
0,57,127,1
0,62,127,1
0,66,127,1
0,74,99,46
0,38,114,3
0,54,46,0
0,82,42,0
0,66,93,1
0,62,80,2
0,57,82,3
0,50,60,3
0,55,70,38
0,59,90,0
0,50,93,3
0,55,102,1
0,36,90,1
0,43,114,0
0,54,80,0
0,59,106,0
0,67,98,3
0,71,110,4
0,36,64,16
0,43,116,0
0,54,40,0
0,50,127,8
0,40,110,4
0,54,90,0
0,71,102,0
0,74,93,0
0,82,90,0
0,59,111,1
0,67,114,1
0,67,77,34
0,67,114,4
0,59,114,1
0,55,90,3
0,38,115,1
0,50,123,0
0,54,35,0
0,67,93,0
0,71,93,0
0,82,46,0
0,69,104,11
0,36,90,7
0,43,117,0
0,54,90,0
0,64,93,0
0,67,98,0
0,67,93,7
0,71,110,0
0,36,64,1
0,43,120,0
0,54,46,0
0,62,98,0
0,66,98,0
0,59,96,1
0,55,89,1
0,50,104,3
0,50,125,3
0,40,110,1
0,54,98,0
0,82,90,0
0,55,99,1
0,59,127,2
0,67,107,1
0,67,84,42
0,43,112,1
0,54,27,0
0,61,107,0
0,64,102,0
0,82,48,0
0,69,104,2
0,52,80,6
0,57,70,0
0,61,90,0
0,81,88,7
0,36,90,1
0,45,106,0
0,54,90,0
0,52,111,1
0,57,108,2
0,61,117,1
0,64,113,2
0,36,64,21
0,45,104,0
0,54,34,0
0,57,93,0
0,69,104,3
0,57,127,3
0,40,110,4
0,54,90,0
0,59,89,0
0,64,99,0
0,82,90,0
0,69,104,28
0,64,111,2
0,61,108,2
0,40,113,1
0,54,32,0
0,61,98,0
0,82,54,0
0,57,108,2
0,67,99,4
0,36,90,4
0,45,105,0
0,54,90,0
0,62,93,0
0,64,93,1
0,61,93,1
0,57,88,3
0,36,64,1
0,45,88,0
0,54,34,0
0,64,102,0
0,52,89,2
0,69,104,1
0,52,127,5
0,40,110,1
0,43,121,0
0,54,80,0
0,66,98,0
0,82,90,0
0,57,102,2
0,61,127,1
0,64,98,1
0,40,110,9
0,54,46,0
0,69,87,0
0,82,42,0
0,66,95,4
0,50,54,2
0,54,66,0
0,62,80,0
0,38,115,4
0,50,120,1
0,57,114,3
0,62,93,3
0,66,127,2
0,36,90,1
0,54,80,0
0,66,72,0
0,47,100,22
0,36,64,4
0,54,40,0
0,57,107,0
0,62,93,0
0,50,127,3
0,62,90,4
0,40,110,7
0,54,90,0
0,59,93,0
0,66,80,0
0,82,90,0
0,54,35,4
0,57,54,0
0,61,107,0
0,71,93,0
0,82,46,0
0,45,91,2
0,66,127,1
0,62,99,1
0,57,120,1
0,50,127,2
0,36,90,29
0,54,90,0
0,62,93,0
0,66,93,1
0,43,106,3
0,62,73,0
0,36,64,3
0,54,46,0
0,64,102,0
0,69,93,0
0,42,101,5
0,40,110,2
0,54,98,0
0,65,107,0
0,66,93,0
0,82,90,0
0,40,101,5
0,54,27,9
0,64,72,0
0,66,93,0
0,82,48,0
0,38,113,11
0,50,127,1
0,36,90,2
0,54,90,0
0,57,60,0
0,62,107,0
0,62,93,0
0,62,127,0
0,66,87,0
0,40,110,1
0,54,44,9
0,54,30,92
0,69,90,91
0,47,52,1
0,54,35,0
0,47,84,65
0,74,110,2
0,73,110,131
0,47,69,4
0,74,99,53
0,43,115,47
0,36,90,1
0,54,80,0
0,55,102,0
0,59,89,0
0,62,107,0
0,67,58,0
0,71,70,0
0,83,102,0
0,71,104,1
0,50,100,1
0,55,99,2
0,59,115,3
0,67,115,3
0,43,101,21
0,36,64,3
0,54,40,0
0,67,127,3
0,59,117,1
0,40,110,1
0,54,90,0
0,60,89,0
0,71,109,0
0,74,113,0
0,82,90,0
0,55,120,1
0,50,99,1
0,38,101,33
0,54,35,9
0,59,127,0
0,67,103,0
0,71,98,0
0,82,46,0
0,67,127,1
0,43,110,16
0,36,90,5
0,54,90,0
0,64,103,0
0,67,107,0
0,43,97,24
0,36,64,1
0,54,46,0
0,62,98,0
0,62,107,0
0,66,98,0
0,67,103,2
0,59,99,3
0,55,89,3
0,50,94,2
0,40,110,2
0,50,127,0
0,54,98,0
0,55,114,0
0,59,117,0
0,64,85,0
0,82,90,0
0,67,127,2
0,38,101,52
0,54,27,3
0,61,98,0
0,64,102,0
0,64,93,0
0,82,48,0
0,57,113,44
0,61,102,0
0,64,102,0
0,85,102,0
0,45,115,6
0,36,90,3
0,52,98,0
0,54,90,0
0,69,62,0
0,73,70,0
0,57,101,2
0,61,105,2
0,64,101,1
0,81,88,0
0,36,64,21
0,54,34,0
0,45,115,2
0,40,110,17
0,52,114,0
0,54,90,0
0,60,89,0
0,82,90,0
0,61,111,3
0,64,111,17
0,71,86,0
0,54,32,2
0,61,108,0
0,82,54,0
0,40,101,1
0,57,99,1
0,52,98,2
0,45,115,7
0,76,110,5
0,36,90,1
0,54,90,0
0,64,108,9
0,61,90,3
0,36,64,1
0,54,34,0
0,57,93,0
0,62,102,0
0,52,127,3
0,45,101,1
0,52,127,4
0,57,99,1
0,61,127,1
0,74,110,2
0,64,117,1
0,40,110,2
0,54,80,0
0,63,89,0
0,82,90,0
0,71,95,22
0,54,46,6
0,63,93,0
0,82,42,0
0,45,106,1
0,50,127,7
0,57,93,0
0,62,85,0
0,66,98,0
0,86,93,0
0,50,127,13
0,57,127,3
0,62,78,3
0,66,127,2
0,69,104,1
0,36,90,2
0,38,101,0
0,54,80,0
0,74,66,0
0,36,64,20
0,38,110,0
0,54,40,0
