track,note,velocity,time
1,81,42,27648
1,81,42,96
1,79,42,32
1,79,42,96
1,77,60,32
1,81,42,0
1,81,42,1664
1,81,42,96
1,81,42,32
1,79,42,96
1,77,60,32
1,81,42,128
1,81,42,23168
1,81,42,96
1,79,42,32
1,79,42,96
1,77,60,32
1,81,42,0
1,81,42,1664
1,81,42,96
1,81,42,32
1,79,42,96
1,77,60,32
1,81,42,128
1,81,42,60032
1,81,42,96
1,79,42,32
1,79,42,96
1,77,60,32
1,81,42,0
1,81,42,1664
1,81,42,96
1,81,42,32
1,79,42,96
1,77,60,32
1,81,42,128
1,81,42,10880
1,81,42,96
1,79,42,32
1,79,42,96
1,77,60,32
1,81,42,0
1,81,42,1664
1,81,42,96
1,81,42,32
1,79,42,96
1,77,60,32
1,81,42,128
1,81,42,1664
1,81,42,96
1,79,42,32
1,79,42,96
1,77,60,32
1,81,42,0
1,81,42,1664
1,81,42,96
1,81,42,32
1,79,42,96
1,77,60,32
1,81,42,128
1,81,42,10112
1,81,42,96
1,79,42,32
1,79,42,96
1,77,60,32
1,81,42,0
1,81,42,1664
1,81,42,96
1,81,42,32
1,79,42,96
1,77,60,32
1,81,42,128
1,69,46,10880
1,68,46,32
1,69,46,128
1,69,46,32
1,69,46,128
1,67,46,32
1,65,46,128
1,69,46,224
2,77,55,15360
2,77,55,96
2,76,55,32
2,76,55,96
2,74,78,32
2,77,55,128
2,77,55,128
2,77,55,96
2,76,55,32
2,74,55,96
2,77,55,32
2,70,55,512
2,74,55,96
2,74,55,32
2,74,55,96
2,76,55,32
2,74,55,96
2,74,55,32
2,77,55,128
2,76,55,96
2,74,78,32
2,76,55,96
2,70,55,96
2,74,55,64
2,76,55,32
2,77,55,32
2,76,78,96
2,74,78,0
2,77,55,96
2,76,55,416
2,77,55,64
2,74,78,192
2,77,55,96
2,77,55,608
2,77,55,96
2,76,55,32
2,74,55,96
2,74,55,32
2,76,55,128
2,77,55,128
2,77,55,128
2,77,55,96
2,77,55,32
2,77,55,512
2,77,55,96
2,76,55,32
2,76,55,96
2,74,78,32
2,77,55,0
2,77,55,1664
2,77,55,96
2,77,55,32
2,76,55,96
2,74,78,32
2,77,55,128
2,77,55,1184
2,76,78,0
2,76,55,96
2,76,55,96
2,76,55,32
2,76,55,96
2,76,78,32
2,76,55,128
2,77,55,320
2,76,55,96
2,74,55,32
2,76,55,64
2,71,55,64
2,71,55,160
2,71,55,32
2,72,55,96
2,71,55,32
2,71,55,96
2,69,55,0
2,71,55,128
2,74,55,128
2,62,55,0
2,74,55,96
2,62,55,0
2,71,55,0
2,59,55,0
2,71,55,96
2,59,55,0
2,67,55,0
2,55,55,0
2,64,55,0
2,52,55,0
2,62,55,128
2,50,55,0
2,77,55,2044
2,77,55,96
2,76,55,32
2,74,55,96
2,77,55,32
2,77,55,128
2,77,55,96
2,77,55,32
2,77,55,96
2,77,55,32
2,76,55,96
2,77,55,32
2,70,55,512
2,74,55,96
2,74,55,32
2,74,55,96
2,76,55,32
2,74,55,96
2,74,55,32
2,77,55,128
2,76,55,96
2,74,78,32
2,76,55,96
2,70,55,96
2,77,55,256
2,76,55,96
2,74,55,32
2,77,55,64
2,77,55,704
2,74,55,192
2,77,55,64
2,77,55,704
2,77,55,96
2,74,55,96
2,77,55,64
2,77,55,96
2,74,55,96
2,77,55,64
2,77,55,32
2,79,55,96
2,74,55,64
2,77,55,0
2,77,55,512
2,77,55,96
2,76,55,32
2,76,55,96
2,74,78,32
2,77,55,128
2,77,55,1664
2,77,55,96
2,77,55,32
2,76,55,96
2,74,78,32
2,77,55,128
2,77,55,1184
2,76,78,0
2,76,55,96
2,76,55,96
2,76,55,32
2,76,55,96
2,76,78,32
2,76,55,128
2,77,55,320
2,76,55,96
2,74,55,32
2,76,55,64
2,71,55,64
2,71,55,160
2,71,55,32
2,72,55,96
2,71,55,32
2,71,55,96
2,69,55,0
2,71,55,128
2,74,55,128
2,62,55,0
2,74,55,96
2,62,55,0
2,71,55,0
2,59,55,0
2,71,55,96
2,59,55,0
2,67,55,0
2,55,55,0
2,64,55,0
2,52,55,0
2,62,55,128
2,50,55,0
2,65,78,0
2,67,78,16
2,62,78,124
2,67,78,192
2,65,78,32
2,62,78,32
2,65,78,128
2,64,78,64
2,62,78,64
2,74,78,40
2,62,78,192
2,74,78,192
2,74,78,92
2,69,78,4
2,62,78,16
2,67,78,296
2,67,78,64
2,65,78,96
2,67,78,32
2,71,78,96
2,74,78,0
2,67,78,32
2,67,78,96
2,67,78,32
2,67,78,96
2,65,78,32
2,62,78,96
2,67,78,96
2,67,78,96
2,77,78,672
2,79,78,0
2,81,78,32
2,80,78,0
2,81,78,32
2,79,78,288
2,76,78,0
2,79,78,64
2,76,78,64
2,62,78,256
2,65,78,64
2,62,78,0
2,65,78,20
2,62,78,0
2,65,78,96
2,62,78,0
2,65,78,0
2,62,78,0
2,67,78,128
2,77,55,22720
2,77,55,96
2,76,55,32
2,77,78,0
2,77,55,192
2,77,55,96
2,77,55,32
2,77,55,96
2,77,55,32
2,77,55,192
2,76,55,0
2,77,55,704
2,76,55,0
2,74,55,192
2,74,78,0
2,77,55,320
2,77,78,96
2,77,78,96
2,77,55,512
2,76,55,96
2,74,55,32
2,77,55,64
2,69,78,192
2,74,78,512
2,77,55,64
2,76,78,96
2,74,78,96
2,77,55,96
2,77,55,608
2,76,55,192
2,76,55,96
2,74,55,32
2,76,55,192
2,77,55,320
2,77,55,128
2,76,55,96
2,77,55,32
2,77,55,512
2,77,55,96
2,76,55,32
2,76,55,96
2,74,78,32
2,77,55,128
2,77,78,320
2,77,78,192
2,77,78,192
2,76,78,64
2,74,78,0
2,77,55,128
2,77,55,96
2,77,55,32
2,76,55,96
2,74,78,32
2,77,55,128
2,77,78,800
2,76,78,128
2,77,78,96
2,76,78,160
2,76,55,96
2,76,55,96
2,76,55,32
2,76,55,96
2,76,55,32
2,76,55,96
2,77,55,224
2,76,55,96
2,74,55,32
2,76,55,64
2,71,55,64
2,71,55,160
2,71,55,32
2,72,55,96
2,71,55,32
2,71,55,96
2,69,55,0
2,71,55,128
2,74,55,128
2,62,55,0
2,74,55,96
2,62,55,0
2,71,55,0
2,59,55,0
2,71,55,96
2,59,55,0
2,67,55,0
2,55,55,0
2,64,55,0
2,52,55,0
2,62,55,128
2,50,55,0
2,77,55,2044
2,77,55,96
2,76,55,32
2,76,55,96
2,74,78,32
2,77,55,128
2,77,55,1664
2,77,55,96
2,77,55,32
2,76,55,96
2,74,78,32
2,77,78,128
2,77,55,1664
2,77,55,96
2,76,55,32
2,76,78,96
2,74,78,32
2,77,55,128
2,77,55,1664
2,77,55,96
2,77,55,32
2,76,55,96
2,74,78,32
2,77,78,128
2,77,55,220
2,76,78,192
2,76,55,0
2,76,55,32
2,76,55,96
2,76,55,32
2,76,55,96
2,77,55,224
2,76,55,96
2,74,55,32
2,76,55,64
2,71,55,64
2,71,55,160
2,71,55,32
2,72,55,96
2,71,55,32
2,71,55,96
2,69,55,0
2,71,55,128
2,74,55,128
2,62,55,0
2,74,55,96
2,62,55,0
2,71,55,0
2,59,55,0
2,71,55,96
2,59,55,0
2,67,55,0
2,55,55,0
2,64,55,0
2,52,55,0
2,62,55,128
2,50,55,0
2,77,55,2044
2,77,55,96
2,76,55,32
2,76,55,96
2,74,78,32
2,77,55,128
2,77,55,1664
2,77,55,96
2,77,55,32
2,76,55,96
2,74,78,32
2,77,55,128
2,76,55,1664
2,76,55,288
2,76,55,32
2,76,55,96
2,76,78,32
2,76,55,128
2,77,55,320
2,76,55,96
2,74,55,32
2,76,55,64
2,71,55,64
2,71,55,160
2,71,55,32
2,72,55,96
2,71,55,32
2,71,55,96
2,69,55,0
2,71,55,128
2,77,78,128
2,77,46,96
2,77,78,32
2,77,46,96
2,77,78,32
2,76,46,96
2,74,78,32
2,74,78,96
3,59,90,1536
3,55,90,32
3,45,90,192
3,43,90,32
3,77,90,1600
3,53,90,192
3,52,90,0
3,53,90,40
3,52,90,0
3,53,90,48
3,52,90,0
3,50,90,64
3,59,90,23308
3,55,90,32
3,77,90,32
3,74,90,192
3,53,90,1792
3,52,90,0
3,53,90,40
3,52,90,0
3,53,90,48
3,52,90,0
3,50,90,64
3,69,90,96940
3,74,90,32
3,71,90,32
3,71,90,32
3,71,90,192
3,67,90,64
3,74,90,1856
3,74,90,0
3,73,90,32
3,72,90,96
3,69,90,96
3,68,90,32
3,67,90,96
3,77,90,96
3,74,90,64
4,58,87,55104
4,59,87,64
4,55,87,128
4,62,87,416
4,60,87,96
4,59,87,128
4,55,87,128
4,53,80,128
4,50,80,64
4,48,80,64
4,48,80,64
4,47,80,64
4,43,80,64
4,53,87,64
4,50,87,128
4,65,87,128
4,62,87,128
4,65,87,128
4,69,87,32
4,67,87,0
4,64,87,96
4,65,87,0
4,62,87,64
4,59,87,64
4,62,87,64
4,67,87,64
4,67,87,64
4,65,87,32
4,59,87,64
4,65,87,32
4,67,87,64
4,59,87,96
4,65,87,96
4,67,87,96
4,69,87,96
4,71,87,0
4,67,87,0
4,64,87,0
4,69,80,64
4,69,80,64
4,67,87,32
4,64,80,96
4,69,80,64
4,67,87,32
4,64,80,96
4,67,87,64
4,69,87,64
4,76,87,64
4,76,87,96
4,73,87,96
4,69,87,96
4,37,43,11228
4,44,43,0
4,38,43,192
4,45,43,0
4,37,43,316
4,44,43,0
4,38,43,192
4,45,43,0
4,40,43,316
4,34,43,192
4,41,43,0
4,40,43,316
4,34,43,192
4,41,43,0
4,37,43,316
4,44,43,0
4,38,43,192
4,45,43,0
4,37,43,316
4,44,43,0
4,38,43,192
4,45,43,0
4,40,43,316
4,34,43,192
4,41,43,0
4,40,43,316
4,34,43,192
4,41,43,0
4,37,43,12604
4,44,43,0
4,38,43,192
4,45,43,0
4,50,80,508
4,57,80,0
4,52,80,128
4,59,80,0
4,53,80,128
4,60,80,0
4,54,80,128
4,61,80,0
4,37,43,18368
4,44,43,0
4,38,43,192
4,45,43,0
4,50,80,508
4,57,80,0
4,50,80,0
4,57,80,0
4,52,80,128
4,59,80,0
4,52,80,0
4,59,80,0
4,53,80,128
4,60,80,0
4,53,80,0
4,60,80,0
4,54,80,128
4,61,80,0
4,54,80,0
4,61,80,0
4,62,87,12416
4,66,87,128
4,69,87,128
4,72,87,128
4,76,87,128
4,76,87,124
5,67,87,67488
5,67,80,96
5,65,80,64
5,64,80,64
5,62,80,64
5,61,80,64
5,60,80,64
5,62,80,64
5,61,80,64
5,60,80,64
5,59,80,64
5,55,87,32
5,59,80,96
5,55,80,64
5,53,80,64
5,50,80,64
5,49,80,64
5,48,80,64
5,50,80,64
5,49,80,64
5,48,80,64
5,52,87,64
5,53,87,0
5,50,87,96
5,65,87,128
5,62,87,128
5,65,87,128
5,69,87,32
5,65,87,160
5,62,87,64
5,59,87,64
5,62,87,64
5,67,87,96
5,67,87,32
5,65,87,32
5,62,87,64
5,65,87,32
5,67,87,64
5,65,87,64
5,67,87,288
5,70,87,96
5,71,87,96
5,67,87,0
5,59,87,192
5,59,87,288
5,59,87,192
5,59,87,96
5,57,87,0
5,64,87,288
5,64,87,288
5,64,87,192
5,64,87,0
5,64,87,0
5,50,80,26112
5,57,80,0
5,52,80,128
5,59,80,0
5,53,80,128
5,60,80,0
5,54,80,128
5,61,80,0
5,50,80,20096
5,57,80,0
5,52,80,128
5,59,80,0
5,53,80,128
5,60,80,0
5,54,80,128
5,61,80,0
5,62,87,12416
5,59,87,128
5,57,87,128
5,53,87,128
5,50,87,128
5,50,87,124
6,49,77,1344
6,56,77,0
6,50,77,192
6,57,77,0
6,49,77,316
6,56,77,0
6,50,77,192
6,57,77,0
6,49,77,316
6,56,77,0
6,50,77,192
6,57,77,0
6,49,77,316
6,56,77,0
6,50,77,192
6,57,77,0
6,49,77,316
6,56,77,0
6,49,77,192
6,56,77,0
6,50,77,0
6,57,77,0
6,49,77,316
6,56,77,0
6,50,77,192
6,57,77,0
6,49,77,316
6,56,77,0
6,50,77,192
6,57,77,0
6,49,77,316
6,56,77,0
6,50,77,192
6,57,77,0
6,49,77,316
6,56,77,0
6,50,77,192
6,57,77,0
6,49,77,1216
6,56,77,0
6,50,77,192
6,57,77,0
6,45,77,316
6,52,77,0
6,46,77,192
6,53,77,0
6,45,77,316
6,52,77,0
6,46,77,192
6,53,77,0
6,49,77,316
6,56,77,0
6,50,77,192
6,57,77,0
6,49,77,316
6,56,77,0
6,50,77,192
6,57,77,0
6,45,77,316
6,52,77,0
6,46,77,192
6,53,77,0
6,45,77,316
6,52,77,0
6,46,77,192
6,53,77,0
6,49,77,12096
6,56,77,0
6,50,77,192
6,57,77,0
6,49,77,316
6,56,77,0
6,50,77,192
6,57,77,0
6,49,77,316
6,56,77,0
6,50,77,192
6,57,77,0
6,45,77,316
6,52,77,0
6,46,77,192
6,53,77,0
6,45,77,316
6,52,77,0
6,46,77,192
6,53,77,0
6,49,77,316
6,56,77,0
6,50,77,192
6,57,77,0
6,49,77,316
6,56,77,0
6,50,77,192
6,57,77,0
6,45,77,316
6,52,77,0
6,46,77,192
6,53,77,0
6,45,77,316
6,52,77,0
6,46,77,192
6,53,77,0
6,49,77,12604
6,56,77,0
6,50,77,192
6,57,77,0
6,49,77,37180
6,56,77,0
6,50,77,192
6,57,77,0
6,49,77,316
6,56,77,0
6,50,77,192
6,57,77,0
6,45,77,316
6,52,77,0
6,46,77,192
6,53,77,0
6,45,77,316
6,52,77,0
6,46,77,192
6,53,77,0
6,49,77,316
6,56,77,0
6,50,77,192
6,57,77,0
6,49,77,316
6,56,77,0
6,50,77,192
6,57,77,0
6,45,77,316
6,52,77,0
6,46,77,192
6,53,77,0
6,45,77,316
6,52,77,0
6,46,77,192
6,53,77,0
6,49,77,12604
6,56,77,0
6,50,77,192
6,57,77,0
6,49,77,20284
6,56,77,0
6,50,77,192
6,57,77,0
7,52,40,33792
7,45,40,0
7,57,40,0
7,45,40,160
7,52,40,0
7,57,40,0
7,45,40,32
7,57,40,0
7,52,40,0
7,52,40,160
7,45,40,0
7,57,40,0
7,52,40,32
7,45,40,0
7,57,40,0
7,45,40,160
7,52,40,0
7,57,40,0
7,45,40,32
7,57,40,0
7,52,40,0
7,52,40,160
7,45,40,0
7,57,40,0
7,43,40,32
7,50,40,0
7,55,40,0
7,43,40,160
7,50,40,0
7,55,40,0
7,43,40,32
7,50,40,0
7,55,40,0
7,43,40,160
7,50,40,0
7,55,40,0
7,43,40,32
7,50,40,0
7,55,40,0
7,43,40,160
7,50,40,0
7,55,40,0
7,43,40,32
7,50,40,0
7,55,40,0
7,43,40,160
7,50,40,0
7,55,40,0
7,52,40,32
7,45,40,0
7,57,40,0
7,45,40,160
7,52,40,0
7,57,40,0
7,45,40,32
7,57,40,0
7,52,40,0
7,52,40,160
7,45,40,0
7,57,40,0
7,52,40,32
7,45,40,0
7,57,40,0
7,45,40,160
7,52,40,0
7,57,40,0
7,45,40,32
7,57,40,0
7,52,40,0
7,52,40,160
7,45,40,0
7,57,40,0
7,52,40,23072
7,45,40,0
7,57,40,0
7,45,40,160
7,52,40,0
7,57,40,0
7,45,40,32
7,57,40,0
7,52,40,0
7,52,40,160
7,45,40,0
7,57,40,0
7,52,40,32
7,45,40,0
7,57,40,0
7,45,40,160
7,52,40,0
7,57,40,0
7,45,40,32
7,57,40,0
7,52,40,0
7,52,40,160
7,45,40,0
7,57,40,0
7,43,40,32
7,50,40,0
7,55,40,0
7,43,40,160
7,50,40,0
7,55,40,0
7,43,40,32
7,50,40,0
7,55,40,0
7,43,40,160
7,50,40,0
7,55,40,0
7,43,40,32
7,50,40,0
7,55,40,0
7,43,40,160
7,50,40,0
7,55,40,0
7,43,40,32
7,50,40,0
7,55,40,0
7,43,40,160
7,50,40,0
7,55,40,0
7,52,40,32
7,45,40,0
7,57,40,0
7,45,40,160
7,52,40,0
7,57,40,0
7,45,40,32
7,57,40,0
7,52,40,0
7,52,40,160
7,45,40,0
7,57,40,0
7,52,40,32
7,45,40,0
