track,note,velocity,time
2,65,81,3840
2,57,83,0
2,60,81,0
2,65,77,1408
2,74,92,0
2,70,76,0
2,60,92,1408
2,65,81,0
2,57,83,0
2,70,83,1408
2,74,86,0
2,65,77,0
2,60,78,1408
2,65,83,0
2,57,76,0
2,65,79,1408
2,70,76,0
2,74,94,0
2,60,89,1408
2,57,86,0
2,65,63,0
2,70,81,1408
2,74,86,0
2,65,79,0
2,57,73,640
2,57,57,0
2,60,70,0
2,65,74,0
2,57,77,256
2,65,79,0
2,60,72,0
2,57,71,0
2,60,78,256
2,63,73,0
2,65,76,0
2,57,78,0
2,57,72,256
2,60,79,0
2,65,76,0
2,63,78,0
2,57,74,256
2,63,74,0
2,65,74,0
2,60,73,0
2,57,71,0
2,57,73,0
2,60,70,0
2,65,70,0
2,63,72,0
2,58,92,384
2,58,77,0
2,62,89,0
2,65,83,0
2,58,68,256
2,62,79,0
2,65,89,0
2,58,72,0
2,61,83,128
2,65,78,0
2,58,73,0
2,61,83,256
2,58,70,0
2,65,78,0
2,58,60,256
2,61,86,0
2,58,61,0
2,65,77,0
2,58,74,0
2,65,79,0
2,61,77,0
2,65,83,640
2,57,73,0
2,60,78,0
2,57,55,256
2,62,79,0
2,67,74,0
2,58,72,0
2,69,77,256
2,60,81,0
2,64,81,0
2,69,79,256
2,60,74,0
2,64,81,0
2,60,71,256
2,69,79,0
2,66,81,0
2,60,81,0
2,69,74,0
2,66,71,0
2,60,83,0
2,59,72,640
2,67,73,0
2,62,73,0
2,65,67,0
2,59,63,256
2,59,66,0
2,67,76,0
2,62,73,0
2,65,76,0
2,64,77,128
2,67,73,0
2,60,76,0
2,60,83,256
2,64,81,0
2,67,76,0
2,58,50,256
2,58,77,0
2,67,81,0
2,64,83,0
2,64,74,128
2,67,83,0
2,58,81,0
2,60,92,640
2,57,79,0
2,65,83,0
2,57,81,256
2,60,73,0
2,57,70,0
2,65,83,0
2,65,77,640
2,63,83,0
2,60,78,0
2,57,86,0
2,57,77,256
2,60,77,0
2,65,74,0
2,57,73,0
2,63,83,0
2,57,81,0
2,63,76,0
2,60,72,0
2,65,77,0
2,62,89,640
2,58,76,0
2,65,77,0
2,58,68,256
2,62,81,0
2,65,79,0
2,58,74,0
2,61,81,128
2,65,78,0
2,58,70,0
2,61,83,256
2,65,83,0
2,58,78,0
2,58,61,256
2,61,83,0
2,58,70,0
2,65,86,0
2,61,83,0
2,58,83,0
2,65,86,0
2,60,81,640
2,57,81,0
2,65,89,0
2,57,71,256
2,62,79,0
2,67,83,0
2,58,63,0
2,69,77,256
2,64,76,0
2,60,78,0
2,60,79,256
2,69,81,0
2,64,83,0
2,60,52,256
2,69,81,0
2,66,83,0
2,60,72,0
2,66,89,0
2,69,78,0
2,60,79,0
2,67,79,640
2,62,94,0
2,58,83,0
2,58,42,256
2,58,73,0
2,64,78,0
2,67,81,0
2,58,78,0
2,64,83,0
2,67,74,0
2,65,83,384
2,57,78,0
2,60,77,0
2,57,89,0
2,63,81,0
2,60,81,0
2,65,78,0
2,65,79,640
2,57,77,0
2,60,83,0
2,57,72,284
2,65,83,52
2,57,72,0
2,60,79,0
2,65,73,432
2,57,78,0
2,63,81,0
2,65,77,268
2,63,89,0
2,57,79,0
2,57,63,276
2,65,81,60
2,63,89,0
2,57,68,0
2,65,81,80
2,63,79,0
2,57,77,0
2,65,76,628
2,58,76,0
2,62,83,0
2,58,50,268
2,58,71,56
2,65,79,0
2,62,78,0
2,65,74,428
2,58,73,0
2,62,86,0
2,65,76,296
2,58,72,0
2,62,81,0
2,58,48,300
2,58,68,60
2,65,78,0
2,62,81,0
2,65,77,64
2,58,77,0
2,62,73,0
2,62,79,640
2,59,79,0
2,65,77,0
2,55,71,0
2,55,72,260
2,62,76,48
2,59,79,0
2,65,79,0
2,55,73,0
2,65,71,428
2,62,76,0
2,59,78,0
2,55,76,0
2,65,68,276
2,62,77,0
2,59,77,0
2,55,78,0
2,55,66,260
2,62,70,48
2,55,67,0
2,65,76,0
2,59,77,0
2,62,67,64
2,65,76,0
2,59,79,0
2,55,78,0
2,55,92,380
2,64,92,0
2,60,78,0
2,64,92,2516
2,60,79,0
2,55,86,0
2,60,92,320
2,57,79,0
2,65,83,0
2,57,81,256
2,60,73,0
2,57,70,0
2,65,83,0
2,65,77,640
2,63,83,0
2,60,78,0
2,57,86,0
2,57,77,256
2,60,77,0
2,65,74,0
2,57,73,0
2,63,83,0
2,57,81,0
2,63,76,0
2,60,72,0
2,65,77,0
2,62,89,640
2,58,76,0
2,65,77,0
2,58,68,256
2,62,81,0
2,65,79,0
2,58,74,0
2,61,81,128
2,65,78,0
2,58,70,0
2,61,83,256
2,65,83,0
2,58,78,0
2,58,61,256
2,61,83,0
2,58,70,0
2,65,86,0
2,61,83,0
2,58,83,0
2,65,86,0
2,60,81,640
2,57,81,0
2,65,89,0
2,57,71,256
2,62,79,0
2,67,83,0
2,58,63,0
2,69,77,256
2,64,76,0
2,60,78,0
2,60,79,256
2,69,81,0
2,64,83,0
2,60,52,256
2,69,81,0
2,66,83,0
2,60,72,0
2,66,89,0
2,69,78,0
2,60,79,0
2,67,79,640
2,62,94,0
2,58,83,0
2,58,42,256
2,58,73,0
2,64,78,0
2,67,81,0
2,58,78,0
2,64,83,0
2,67,74,0
2,65,83,384
2,57,78,0
2,60,77,0
2,57,89,0
2,63,81,0
2,60,81,0
2,65,78,0
2,57,73,3456
2,57,57,0
2,60,70,0
2,65,74,0
2,57,77,256
2,65,79,0
2,60,72,0
2,57,71,0
2,60,78,256
2,63,73,0
2,65,76,0
2,57,78,0
2,57,72,256
2,60,79,0
2,65,76,0
2,63,78,0
2,57,74,256
2,63,74,0
2,65,74,0
2,60,73,0
2,57,71,0
2,57,73,0
2,60,70,0
2,65,70,0
2,63,72,0
2,58,92,384
2,58,77,0
2,62,89,0
2,65,83,0
2,58,68,256
2,62,79,0
2,65,89,0
2,58,72,0
2,61,83,128
2,65,78,0
2,58,73,0
2,61,83,256
2,58,70,0
2,65,78,0
2,58,60,256
2,61,86,0
2,58,61,0
2,65,77,0
2,58,74,0
2,65,79,0
2,61,77,0
2,65,83,640
2,57,73,0
2,60,78,0
2,57,55,256
2,62,79,0
2,67,74,0
2,58,72,0
2,69,77,256
2,60,81,0
2,64,81,0
2,69,79,256
2,60,74,0
2,64,81,0
2,60,71,256
2,69,79,0
2,66,81,0
2,60,81,0
2,69,74,0
2,66,71,0
2,60,83,0
2,59,72,640
2,67,73,0
2,62,73,0
2,65,67,0
2,59,63,256
2,59,66,0
2,67,76,0
2,62,73,0
2,65,76,0
2,64,77,128
2,67,73,0
2,60,76,0
2,60,83,256
2,64,81,0
2,67,76,0
2,58,50,256
2,58,77,0
2,67,81,0
2,64,83,0
2,64,74,128
2,67,83,0
2,58,81,0
2,60,92,640
2,57,79,0
2,65,83,0
2,57,81,256
2,60,73,0
2,57,70,0
2,65,83,0
2,65,77,640
2,63,83,0
2,60,78,0
2,57,86,0
2,57,77,256
2,60,77,0
2,65,74,0
2,57,73,0
2,63,83,0
2,57,81,0
2,63,76,0
2,60,72,0
2,65,77,0
2,62,89,640
2,58,76,0
2,65,77,0
2,58,68,256
2,62,81,0
2,65,79,0
2,58,74,0
2,61,81,128
2,65,78,0
2,58,70,0
2,61,83,256
2,65,83,0
2,58,78,0
2,58,61,256
2,61,83,0
2,58,70,0
2,65,86,0
2,61,83,0
2,58,83,0
2,65,86,0
2,60,81,640
2,57,81,0
2,65,89,0
2,57,71,256
2,62,79,0
2,67,83,0
2,58,63,0
2,69,77,256
2,64,76,0
2,60,78,0
2,60,79,256
2,69,81,0
2,64,83,0
2,60,52,256
2,69,81,0
2,66,83,0
2,60,72,0
2,66,89,0
2,69,78,0
2,60,79,0
2,67,79,640
2,62,94,0
2,58,83,0
2,58,42,256
2,58,73,0
2,64,78,0
2,67,81,0
2,58,78,0
2,64,83,0
2,67,74,0
2,65,83,384
2,57,78,0
2,60,77,0
2,57,89,0
2,63,81,0
2,60,81,0
2,65,78,0
2,65,79,640
2,57,77,0
2,60,83,0
2,57,72,284
2,65,83,52
2,57,72,0
2,60,79,0
2,65,73,432
2,57,78,0
2,63,81,0
2,65,77,268
2,63,89,0
2,57,79,0
2,57,63,276
2,65,81,60
2,63,89,0
2,57,68,0
2,65,81,80
2,63,79,0
2,57,77,0
2,65,76,628
2,58,76,0
2,62,83,0
2,58,50,268
2,58,71,56
2,65,79,0
2,62,78,0
2,65,74,428
2,58,73,0
2,62,86,0
2,65,76,296
2,58,72,0
2,62,81,0
2,58,48,300
2,58,68,60
2,65,78,0
2,62,81,0
2,65,77,64
2,58,77,0
2,62,73,0
2,62,79,640
2,59,79,0
2,65,77,0
2,55,71,0
2,55,72,260
2,62,76,48
2,59,79,0
2,65,79,0
2,55,73,0
2,65,71,428
2,62,76,0
2,59,78,0
2,55,76,0
2,65,68,276
2,62,77,0
2,59,77,0
2,55,78,0
2,55,66,260
2,62,70,48
2,55,67,0
2,65,76,0
2,59,77,0
2,62,67,64
2,65,76,0
2,59,79,0
2,55,78,0
2,55,92,380
2,64,92,0
2,60,78,0
2,64,92,2516
2,60,79,0
2,55,86,0
2,60,92,320
2,57,79,0
2,65,83,0
2,57,81,256
2,60,73,0
2,57,70,0
2,65,83,0
2,65,77,640
2,63,83,0
2,60,78,0
2,57,86,0
2,57,77,256
2,60,77,0
2,65,74,0
2,57,73,0
2,63,83,0
2,57,81,0
2,63,76,0
2,60,72,0
2,65,77,0
2,62,89,640
2,58,76,0
2,65,77,0
2,58,68,256
2,62,81,0
2,65,79,0
2,58,74,0
2,61,81,128
2,65,78,0
2,58,70,0
2,61,83,256
2,65,83,0
2,58,78,0
2,58,61,256
2,61,83,0
2,58,70,0
2,65,86,0
2,61,83,0
2,58,83,0
2,65,86,0
2,60,81,640
2,57,81,0
2,65,89,0
2,57,71,256
2,62,79,0
2,67,83,0
2,58,63,0
2,69,77,256
2,64,76,0
2,60,78,0
2,60,79,256
2,69,81,0
2,64,83,0
2,60,52,256
2,69,81,0
2,66,83,0
2,60,72,0
2,66,89,0
2,69,78,0
2,60,79,0
2,67,79,640
2,62,94,0
2,58,83,0
2,58,42,256
2,58,73,0
2,64,78,0
2,67,81,0
2,58,78,0
2,64,83,0
2,67,74,0
2,65,83,384
2,57,78,0
2,60,77,0
2,57,89,0
2,63,81,0
2,60,81,0
2,65,78,0
2,65,86,384
2,57,81,0
2,60,89,0
2,65,89,2304
2,57,83,0
2,60,86,0
2,65,94,0
2,58,81,0
2,62,89,0
2,58,81,2304
2,62,94,0
2,65,89,0
2,59,83,0
2,67,92,0
2,62,89,0
2,67,89,2304
2,59,81,0
2,62,89,0
2,60,86,0
2,67,89,0
2,64,94,0
2,57,73,2944
2,57,57,0
2,60,70,0
2,65,74,0
2,57,77,256
2,65,79,0
2,60,72,0
2,57,71,0
2,60,78,256
2,63,73,0
2,65,76,0
2,57,78,0
2,57,72,256
2,60,79,0
2,65,76,0
2,63,78,0
2,57,74,256
2,63,74,0
2,65,74,0
2,60,73,0
2,57,71,0
2,57,73,0
2,60,70,0
2,65,70,0
2,63,72,0
2,58,92,384
2,58,77,0
2,62,89,0
2,65,83,0
2,58,68,256
2,62,79,0
2,65,89,0
2,58,72,0
2,61,83,128
2,65,78,0
2,58,73,0
2,61,83,256
2,58,70,0
2,65,78,0
2,58,60,256
2,61,86,0
2,58,61,0
2,65,77,0
2,58,74,0
2,65,79,0
2,61,77,0
2,65,83,640
2,57,73,0
2,60,78,0
2,57,55,256
2,62,79,0
2,67,74,0
2,58,72,0
2,69,77,256
2,60,81,0
2,64,81,0
2,69,79,256
2,60,74,0
2,64,81,0
2,60,71,256
2,69,79,0
2,66,81,0
2,60,81,0
2,69,74,0
2,66,71,0
2,60,83,0
2,59,72,640
2,67,73,0
2,62,73,0
2,65,67,0
2,59,63,256
2,59,66,0
2,67,76,0
2,62,73,0
2,65,76,0
2,64,77,128
2,67,73,0
2,60,76,0
2,60,83,256
2,64,81,0
2,67,76,0
2,58,50,256
2,58,77,0
2,67,81,0
2,64,83,0
2,64,74,128
2,67,83,0
2,58,81,0
2,59,72,640
2,67,73,0
2,62,73,0
2,65,67,0
2,59,63,256
2,59,66,0
2,67,76,0
2,62,73,0
2,65,76,0
2,60,76,256
2,67,73,0
2,64,77,0
3,36,109,2688
3,38,89,8
3,40,97,36
3,41,83,16
3,40,74,68
3,38,72,52
3,36,71,68
3,34,71,84
3,33,70,64
3,31,77,60
3,36,86,40
3,41,83,100
3,40,74,68
3,38,72,52
3,36,71,68
3,34,71,84
3,33,70,64
3,31,77,60
3,36,86,40
3,41,83,100
3,40,74,68
3,38,72,52
3,36,71,68
3,34,71,84
3,33,70,64
3,31,77,60
3,36,86,40
3,41,83,100
3,40,74,68
3,38,72,52
3,36,71,68
3,34,71,84
3,33,70,64
3,31,77,60
3,36,86,40
3,41,77,100
3,40,72,80
3,38,66,44
3,36,71,72
3,29,72,108
3,30,68,52
3,31,74,44
3,33,70,40
3,34,66,100
3,38,74,48
3,41,68,72
3,38,66,36
3,34,63,52
3,36,73,64
3,37,66,44
3,34,55,44
3,29,68,72
3,29,66,76
3,31,74,64
3,31,74,128
3,33,66,60
3,33,61,100
3,26,77,80
3,38,74,40
3,31,68,68
3,35,71,80
3,38,73,48
3,31,68,384
3,36,74,100
3,34,66,76
3,33,68,56
3,31,86,84
3,41,77,92
3,40,72,80
3,38,66,44
3,36,71,72
3,29,72,108
3,30,68,52
3,31,74,44
3,33,70,40
3,34,66,100
3,38,74,48
3,41,68,72
3,38,66,36
3,34,63,52
3,36,73,64
3,37,66,44
3,34,55,44
3,29,68,72
3,29,66,76
3,31,74,64
3,31,74,128
3,33,66,60
3,33,61,100
3,26,77,80
3,38,74,40
3,31,77,68
3,35,72,28
3,36,74,36
3,40,73,4
3,29,63,52
3,33,74,52
3,36,71,12
3,33,63,44
3,41,79,120
3,40,71,84
3,38,72,60
3,36,70,92
3,34,66,64
3,33,63,96
3,31,66,96
3,29,62,76
3,34,63,128
3,38,77,80
3,41,74,92
3,38,68,36
3,34,61,76
3,38,63,112
3,41,72,96
3,34,63,28
3,31,72,60
3,35,74,72
3,38,72,104
3,43,74,72
3,41,71,72
3,38,72,88
3,35,66,60
3,31,74,40
3,36,79,52
3,36,79,2516
3,38,71,128
3,40,81,16
3,41,77,12
3,40,72,80
3,38,66,44
3,36,71,72
3,29,72,108
3,30,68,52
3,31,74,44
3,33,70,40
3,34,66,100
3,38,74,48
3,41,68,72
3,38,66,36
3,34,63,52
3,36,73,64
3,37,66,44
3,34,55,44
3,29,68,72
3,29,66,76
3,31,74,64
3,31,74,128
3,33,66,60
3,33,61,100
3,26,77,80
3,38,74,40
3,31,77,68
3,35,72,28
3,36,74,36
3,40,73,4
3,29,63,52
3,33,74,52
3,36,71,12
3,33,63,44
3,36,97,120
3,36,79,120
3,36,79,60
3,36,86,148
3,34,71,20
3,31,83,200
3,36,92,12
3,41,77,1452
3,40,72,80
3,38,66,44
3,36,71,72
3,29,72,108
3,30,68,52
3,31,74,44
3,33,70,40
3,34,66,100
3,38,74,48
3,41,68,72
3,38,66,36
3,34,63,52
3,36,73,64
3,37,66,44
3,34,55,44
3,29,68,72
3,29,66,76
3,31,74,64
3,31,74,128
3,33,66,60
3,33,61,100
3,26,77,80
3,38,74,40
3,31,68,68
3,35,71,80
3,38,73,48
3,31,68,384
3,36,74,100
3,34,66,76
3,33,68,56
3,31,86,84
3,41,77,92
3,40,72,80
3,38,66,44
3,36,71,72
3,29,72,108
3,30,68,52
3,31,74,44
3,33,70,40
3,34,66,100
3,38,74,48
3,41,68,72
3,38,66,36
3,34,63,52
3,36,73,64
3,37,66,44
3,34,55,44
3,29,68,72
3,29,66,76
3,31,74,64
3,31,74,128
3,33,66,60
3,33,61,100
3,26,77,80
3,38,74,40
3,31,77,68
3,35,72,28
3,36,74,36
3,40,73,4
3,29,63,52
