track,note,velocity,time
0,42,100,320
0,42,0,8
0,42,85,184
0,42,0,8
0,42,85,184
0,42,0,8
0,42,85,184
0,42,0,8
0,46,127,88
0,46,0,74
0,53,100,2
0,57,120,0
0,60,120,0
0,41,110,0
0,57,100,0
0,60,120,0
0,65,97,0
0,53,100,0
0,57,112,0
0,60,120,0
0,65,127,0
0,69,127,0
0,72,127,0
0,36,120,0
0,42,127,0
0,62,88,0
0,69,70,2
0,65,70,1
0,72,90,0
0,62,0,17
0,42,0,2
0,42,53,26
0,62,53,0
0,42,0,10
0,36,0,2
0,62,0,6
0,42,32,30
0,61,93,0
0,42,0,18
0,41,0,10
0,60,0,6
0,53,0,2
0,57,0,2
0,72,0,6
0,65,0,2
0,36,70,2
0,42,95,0
0,65,0,4
0,72,0,0
0,69,0,0
0,69,0,2
0,61,0,1
0,53,0,2
0,57,0,1
0,60,0,0
0,60,0,1
0,57,0,0
0,65,0,1
0,42,0,2
0,36,0,10
0,67,70,16
0,64,70,0
0,72,90,0
0,52,127,6
0,55,127,0
0,60,127,0
0,55,127,1
0,60,127,0
0,52,76,1
0,55,112,0
0,60,127,0
0,40,110,0
0,64,127,0
0,64,127,0
0,67,127,0
0,72,127,0
0,36,127,0
0,42,127,0
0,63,93,0
0,42,0,18
0,42,59,30
0,42,0,12
0,36,0,4
0,63,0,11
0,72,0,21
0,67,0,0
0,42,35,0
0,64,72,0
0,64,0,2
0,60,0,6
0,40,0,0
0,52,0,2
0,55,0,4
0,60,0,2
0,64,0,2
0,42,0,0
0,72,0,2
0,52,0,0
0,55,0,0
0,67,0,0
0,55,0,2
0,60,0,2
0,64,0,2
0,65,70,8
0,62,70,1
0,72,90,0
0,64,0,5
0,50,94,8
0,53,112,0
0,60,112,0
0,38,110,0
0,57,127,0
0,60,127,0
0,65,127,0
0,50,112,0
0,53,127,0
0,62,127,0
0,65,127,0
0,72,127,0
0,60,127,0
0,42,95,0
0,60,83,0
0,42,0,16
0,60,0,3
0,57,0,3
0,65,0,5
0,53,0,3
0,50,0,4
0,60,0,2
0,60,0,12
0,50,0,0
0,53,0,0
0,42,127,0
0,62,77,0
0,62,0,2
0,65,0,0
0,72,0,0
0,72,0,5
0,72,64,5
0,42,0,4
0,62,0,26
0,60,0,1
0,42,64,5
0,63,83,0
0,42,0,21
0,81,104,22
0,69,104,3
0,42,35,2
0,63,0,13
0,42,0,6
0,81,0,1
0,69,0,8
0,36,74,20
0,42,95,0
0,61,25,0
0,61,0,18
0,42,0,4
0,36,0,2
0,79,104,15
0,67,104,1
0,36,127,8
0,42,127,0
0,61,93,0
0,62,93,0
0,79,0,19
0,67,0,2
0,42,0,1
0,62,0,10
0,69,104,4
0,81,104,0
0,61,0,6
0,50,100,6
0,42,64,0
0,42,0,16
0,81,0,2
0,69,0,0
0,72,104,18
0,84,104,0
0,36,0,2
0,53,97,10
0,42,35,0
0,64,67,0
0,42,0,20
0,64,0,4
0,72,0,8
0,65,0,10
0,62,0,1
0,60,120,5
0,42,95,0
0,64,69,0
0,50,0,13
0,42,0,5
0,53,0,0
0,38,0,1
0,60,0,13
0,72,90,3
0,64,0,1
0,65,70,0
0,69,70,0
0,57,127,10
0,60,127,0
0,65,127,0
0,53,90,2
0,57,100,0
0,60,92,0
0,41,110,0
0,65,127,0
0,69,127,0
0,72,127,0
0,42,127,0
0,62,88,0
0,53,120,1
0,57,127,0
0,60,127,1
0,62,0,18
0,42,0,2
0,69,0,2
0,65,0,0
0,72,0,0
0,53,0,2
0,57,0,2
0,60,0,0
0,65,0,2
0,60,0,0
0,57,0,0
0,57,0,6
0,60,0,2
0,53,0,0
0,41,0,0
0,65,0,6
0,69,0,0
0,72,0,3
0,42,53,1
0,62,60,0
0,42,0,10
0,62,0,14
0,69,70,6
0,65,70,0
0,72,90,0
0,57,127,1
0,60,127,0
0,65,127,0
0,53,120,0
0,57,127,0
0,60,127,1
0,53,94,1
0,57,112,0
0,60,127,0
0,41,110,0
0,65,127,0
0,69,127,0
0,72,127,0
0,42,32,0
0,61,76,0
0,42,0,6
0,60,0,0
0,57,0,2
0,65,0,3
0,65,0,1
0,72,0,0
0,57,0,2
0,69,0,1
0,60,0,1
0,53,0,1
0,57,0,9
0,60,0,0
0,61,0,2
0,53,0,0
0,41,0,4
0,65,0,2
0,69,0,2
0,36,81,0
0,42,95,0
0,72,0,1
0,42,0,13
0,36,0,8
0,67,70,2
0,72,90,0
0,64,70,2
0,55,120,1
0,60,127,0
0,52,120,0
0,55,127,0
0,60,127,0
0,64,112,1
0,52,100,1
0,55,112,0
0,60,120,0
0,40,110,0
0,64,127,0
0,67,127,0
0,72,127,0
0,36,127,0
0,42,127,0
0,63,100,0
0,42,0,6
0,52,0,6
0,60,0,0
0,64,0,0
0,55,0,0
0,55,0,2
0,60,0,0
0,72,0,2
0,64,0,2
0,67,0,0
0,40,0,11
0,55,0,1
0,52,0,0
0,60,0,0
0,42,59,6
0,64,0,2
0,72,0,2
0,67,0,0
0,42,0,8
0,63,0,4
0,67,70,11
0,64,70,1
0,72,90,0
0,36,0,2
0,52,127,11
0,55,127,0
0,55,112,1
0,60,120,0
0,64,100,0
0,60,127,0
0,52,87,1
0,55,92,0
0,60,94,0
0,40,110,0
0,64,127,0
0,67,127,0
0,72,127,0
0,42,35,0
0,64,70,0
0,67,0,6
0,64,0,1
0,72,0,1
0,42,0,1
0,60,0,4
0,52,0,1
0,55,0,1
0,55,0,0
0,64,0,4
0,64,0,0
0,67,0,2
0,64,0,0
0,60,0,2
0,72,0,2
0,40,0,3
0,52,0,1
0,55,0,0
0,62,70,0
0,65,70,0
0,72,90,2
0,60,0,4
0,50,83,4
0,53,92,0
0,60,83,0
0,38,110,0
0,57,127,0
0,60,127,0
0,65,120,0
0,62,127,0
0,65,127,0
0,72,120,0
0,42,95,0
0,60,93,0
0,60,97,2
0,53,127,1
0,50,127,1
0,42,0,6
0,60,0,6
0,57,0,2
0,65,0,10
0,53,0,3
0,60,0,0
0,50,0,4
0,72,0,2
0,72,67,4
0,42,127,0
0,62,88,0
0,65,0,6
0,62,0,6
0,72,0,0
0,42,0,2
0,60,0,4
0,42,64,10
0,63,83,0
0,72,0,4
0,62,0,3
0,84,0,4
0,42,0,10
0,69,104,25
0,81,104,2
0,42,35,0
0,63,0,5
0,42,0,14
0,69,0,2
0,81,0,5
0,36,81,22
0,42,95,0
0,61,45,0
0,42,0,22
0,61,0,2
0,36,0,0
0,79,104,19
0,67,104,1
0,36,127,4
0,42,127,0
0,61,80,0
0,62,105,0
0,50,0,16
0,42,0,6
0,67,0,6
0,79,0,1
0,62,0,2
0,61,0,9
0,69,99,1
0,81,104,0
0,50,76,7
0,42,64,0
0,53,0,8
0,42,0,8
0,81,0,6
0,69,0,1
0,36,0,11
0,75,104,2
0,60,0,2
0,63,104,0
0,53,92,10
0,42,35,0
0,64,72,0
0,64,0,20
0,42,0,0
0,63,0,16
0,75,0,0
0,74,99,0
0,62,99,2
0,65,0,3
0,62,0,0
0,60,112,7
0,42,95,0
0,64,83,0
0,72,0,4
0,42,0,14
0,53,0,1
0,50,0,3
0,64,0,1
0,62,0,1
0,60,0,8
0,74,0,2
0,38,0,0
0,72,90,2
0,65,70,0
0,69,70,0
0,60,104,1
0,72,104,5
0,53,120,2
0,57,127,0
0,60,127,0
0,57,127,3
0,60,112,0
0,65,120,0
0,53,112,1
0,57,112,0
0,60,87,0
0,41,110,0
0,65,127,0
0,69,127,0
0,72,127,0
0,42,127,0
0,62,88,0
0,62,0,20
0,42,0,2
0,42,53,26
0,62,53,0
0,42,0,10
0,62,0,8
0,42,32,30
0,61,93,0
0,42,0,18
0,72,0,30
0,36,81,0
0,42,95,0
0,65,0,6
0,69,0,0
0,60,0,1
0,61,0,0
0,57,0,1
0,53,0,0
0,57,0,1
0,65,0,3
0,65,0,0
0,60,0,1
0,69,0,1
0,72,0,0
0,42,0,0
0,53,0,1
0,57,0,1
0,41,0,0
0,60,0,2
0,36,0,4
0,67,70,3
0,64,70,1
0,72,90,1
0,60,127,4
0,52,120,0
0,55,127,0
0,55,120,1
0,64,127,0
0,52,85,1
0,55,97,0
0,60,127,0
0,40,110,0
0,64,120,0
0,67,127,0
0,72,127,0
0,60,127,0
0,36,127,0
0,42,127,0
0,63,93,0
0,42,0,14
0,36,0,14
0,42,59,0
0,42,0,10
0,63,0,5
0,42,35,12
0,64,72,0
0,72,0,4
0,67,0,2
0,64,0,2
0,60,0,6
0,55,0,2
0,60,0,2
0,42,0,0
0,55,0,0
0,72,0,2
0,55,0,0
0,52,0,0
0,52,0,1
0,64,0,0
0,60,0,1
0,67,0,0
0,64,0,1
0,40,0,2
0,72,90,10
0,65,70,1
0,62,70,0
0,64,0,2
0,57,127,7
0,60,127,0
0,50,100,1
0,53,120,0
0,60,97,0
0,38,110,0
0,65,120,0
0,62,127,0
0,65,127,0
0,72,127,0
0,42,95,0
0,60,83,0
0,50,120,2
0,53,127,0
0,60,127,0
0,42,0,14
0,60,0,4
0,57,0,0
0,65,0,2
0,53,0,6
0,50,0,4
0,65,0,0
0,60,0,2
0,62,0,0
0,42,127,0
0,62,77,0
0,72,0,1
0,72,0,9
0,42,0,3
0,72,71,2
0,62,0,8
0,60,0,1
0,60,0,3
0,42,64,2
0,63,83,0
0,42,0,20
0,72,0,9
0,69,104,13
0,81,104,1
0,42,35,4
0,63,0,13
0,42,0,6
0,69,0,1
0,81,0,6
0,36,72,22
0,42,95,0
0,61,25,0
0,65,0,7
0,62,0,3
0,72,0,2
0,38,0,4
0,61,0,2
0,42,0,4
0,36,0,5
0,79,104,13
0,62,70,2
0,65,70,0
0,72,90,0
0,57,120,0
0,53,100,0
0,48,100,0
0,60,112,0
0,67,104,2
0,57,120,3
0,60,120,0
0,65,112,0
0,60,0,1
0,53,0,0
0,50,0,0
0,53,97,0
0,57,100,0
0,60,120,0
0,31,110,0
0,36,127,0
0,42,72,0
0,61,93,0
0,62,93,0
0,42,0,22
0,79,0,3
0,57,0,1
0,60,0,0
0,65,0,2
0,67,0,1
0,72,0,3
0,62,0,0
0,65,0,0
0,53,0,2
0,60,0,0
0,48,0,0
0,62,0,1
0,57,0,1
0,81,104,4
0,61,0,2
0,69,104,2
0,36,0,2
0,42,91,2
0,60,0,2
0,57,0,2
0,53,0,0
0,31,0,2
0,42,0,10
0,81,0,5
0,69,0,2
0,62,70,11
0,65,70,1
0,72,90,2
0,84,104,0
0,72,104,5
0,48,112,2
0,53,120,0
0,57,127,0
0,60,120,0
0,57,112,2
0,60,127,0
0,65,120,1
0,53,97,1
0,57,112,0
0,60,112,0
0,31,110,0
0,46,55,0
0,64,67,0
0,65,0,12
0,62,0,0
0,84,0,4
0,72,0,0
0,46,0,4
0,72,0,0
0,60,0,2
0,57,0,1
0,64,0,1
0,65,0,0
0,57,0,2
0,60,0,2
0,53,0,0
0,72,104,8
0,60,104,4
0,31,0,2
0,67,70,0
0,64,70,0
0,72,66,0
0,57,0,2
0,53,0,1
0,52,120,1
0,55,120,0
0,52,94,2
0,55,112,0
0,60,100,0
0,36,110,0
0,55,97,0
0,60,112,0
0,64,112,0
0,64,69,0
0,64,0,36
0,36,112,12
0,42,104,0
0,62,88,0
0,62,0,20
0,42,0,4
0,62,60,0
0,62,0,24
0,37,25,0
0,42,89,0
0,61,76,0
0,36,0,6
0,42,0,20
0,37,0,7
0,36,0,1
0,61,0,6
0,43,110,8
0,43,0,1
0,43,110,14
0,36,112,0
0,37,43,0
0,42,113,0
0,63,100,0
0,42,0,4
0,37,0,6
0,63,0,2
0,42,68,0
0,64,70,0
0,36,0,16
0,42,0,2
0,64,0,10
0,43,0,6
0,36,110,2
0,37,43,0
0,42,86,0
0,60,93,0
0,42,0,3
0,36,0,3
0,37,0,8
0,36,110,5
0,36,127,0
0,42,72,0
0,62,88,0
0,42,0,4
0,60,0,7
0,37,1,0
0,42,41,0
0,63,83,0
0,62,0,7
0,42,0,4
0,37,0,3
0,36,0,6
0,37,50,0
0,42,122,0
0,63,0,5
0,36,0,15
0,42,0,1
0,37,0,23
0,31,110,4
0,42,41,0
0,61,45,0
0,42,0,20
0,31,0,3
0,61,0,1
0,31,110,24
0,36,120,0
0,37,56,0
0,42,72,0
0,61,80,0
0,62,105,0
0,42,0,22
0,62,0,6
0,37,0,3
0,61,0,6
0,42,44,0
0,36,0,4
0,52,0,0
0,50,97,1
0,64,0,1
0,55,0,1
0,60,0,5
0,55,0,1
0,42,0,7
0,60,0,1
0,31,0,17
0,55,120,1
0,35,110,0
0,42,119,0
0,64,72,0
0,64,0,6
0,42,0,2
0,53,97,3
0,60,94,1
0,36,61,0
0,42,47,0
0,64,83,0
0,36,0,20
0,64,0,3
0,42,0,1
0,35,0,8
0,64,100,16
0,36,110,0
0,36,127,0
0,42,72,0
0,62,88,0
0,62,0,20
0,42,0,2
0,42,44,0
0,62,53,0
0,62,0,18
0,42,0,4
0,37,46,0
0,42,122,0
0,61,93,0
0,42,0,20
0,37,0,8
0,36,0,3
0,36,0,13
0,43,110,4
0,42,44,0
0,61,0,7
0,43,0,7
0,42,0,2
0,43,110,32
0,36,127,0
0,37,43,0
0,42,72,0
0,63,93,0
0,42,0,18
0,37,0,11
0,42,44,0
0,42,0,22
0,63,0,5
0,42,122,0
0,64,72,0
0,42,0,19
0,43,0,13
0,64,0,8
0,36,0,7
0,36,110,1
0,37,43,0
0,42,44,0
0,60,83,0
0,36,0,20
0,42,0,1
0,37,0,13
0,60,0,10
0,36,110,4
0,36,127,0
0,42,72,0
0,62,77,0
0,42,0,20
0,72,0,0
0,62,0,22
0,60,0,1
0,72,76,5
0,37,1,0
0,42,44,0
0,63,83,0
0,37,0,12
0,42,0,19
0,76,75,17
0,37,43,0
0,42,125,0
0,63,0,13
0,42,0,8
0,37,0,14
0,36,0,3
0,36,0,2
0,31,110,8
0,42,44,0
0,61,25,0
0,61,0,18
0,31,0,2
0,42,0,4
0,76,0,24
0,76,97,0
0,31,110,0
0,36,127,0
0,37,50,0
0,42,72,0
0,61,93,0
0,62,93,0
0,42,0,20
0,37,0,8
0,62,0,4
0,72,0,2
0,61,0,8
0,42,97,0
0,67,0,6
0,64,0,15
0,42,0,1
0,53,0,10
0,50,0,4
0,31,0,10
0,36,0,2
0,35,110,0
0,46,100,0
0,64,67,0
0,48,0,10
0,52,0,1
0,55,0,1
0,60,0,2
0,46,0,2
0,64,0,4
0,64,69,2
0,35,0,26
0,64,0,10
0,55,0,5
0,76,0,3
0,60,0,2
0,64,0,0
0,48,90,2
0,55,94,0
0,60,97,0
0,64,100,0
0,36,110,0
0,55,75,0
0,60,75,0
0,36,120,0
0,42,72,0
0,59,85,0
0,62,88,0
0,64,75,1
0,72,0,4
0,62,0,15
0,42,0,2
0,42,44,26
0,62,53,0
0,62,0,18
0,42,0,4
0,52,127,26
0,37,39,0
0,42,122,0
0,61,93,0
0,42,0,20
0,36,0,6
0,37,0,5
0,36,0,17
0,43,110,0
0,42,44,0
0,61,0,7
0,42,0,9
0,43,0,1
0,52,0,7
0,43,110,24
0,43,127,0
0,36,127,0
0,37,52,0
0,42,72,0
0,63,93,0
0,42,0,18
0,43,0,6
0,43,127,24
0,42,44,0
0,37,0,2
0,42,0,20
0,63,0,5
0,36,0,20
0,42,122,1
0,64,72,0
0,43,0,4
0,43,0,7
0,42,0,8
0,59,0,1
0,64,0,20
0,36,110,8
0,36,68,0
0,42,44,0
0,60,83,0
0,36,0,19
0,42,0,2
0,36,0,1
0,36,110,26
0,36,127,0
0,42,72,0
0,62,77,0
0,42,0,20
0,62,0,22
0,60,0,1
0,42,44,5
0,63,83,0
0,42,0,31
0,36,0,9
0,64,0,8
0,42,125,0
0,60,0,2
0,55,0,3
0,36,0,5
0,63,0,3
0,42,0,8
0,55,0,27
0,31,110,0
0,55,83,0
0,60,83,0
0,64,83,0
0,36,64,0
0,42,44,0
0,61,25,0
