track,note,velocity,time
1,86,87,564
1,84,76,12
1,86,76,16
1,89,73,92
1,86,82,124
1,77,64,3168
1,79,66,12
1,80,63,176
1,82,67,160
1,83,73,4
1,86,73,4
1,89,69,4
1,89,58,3364
1,88,56,56
1,87,63,56
1,86,61,40
1,86,52,96
1,85,53,64
1,84,38,12
1,83,73,36
1,83,62,108
1,82,64,76
1,81,64,0
1,80,76,64
1,79,58,96
1,78,58,56
1,77,32,8
1,76,73,24
1,74,66,8
2,62,79,8432
2,63,73,40
2,65,67,40
2,67,67,44
2,63,71,204
2,60,69,204
2,67,67,228
2,63,64,260
2,60,58,224
2,62,64,452
2,62,53,80
2,62,79,204
2,63,79,36
2,65,79,52
2,70,82,0
2,67,58,16
2,63,76,56
2,67,69,68
2,63,67,8
2,60,61,52
2,63,69,16
2,65,76,44
2,62,64,40
2,62,87,296
2,63,73,32
2,65,76,44
2,67,82,68
2,65,82,8
2,67,67,16
2,65,87,24
2,63,82,4
2,65,79,52
2,62,79,64
2,62,93,704
2,63,79,0
2,65,73,44
2,67,69,40
2,65,73,16
2,67,69,108
2,65,82,92
2,63,87,112
2,65,76,32
2,62,76,68
2,62,69,88
2,63,79,44
2,65,76,56
2,67,87,56
2,65,76,16
2,67,69,4
2,65,82,24
2,63,73,12
2,65,76,44
2,62,82,56
2,62,87,3116
2,63,69,40
2,65,82,68
2,67,82,36
2,65,82,20
2,67,67,16
2,65,87,24
2,63,82,4
2,65,79,52
2,62,79,64
2,62,93,696
2,63,79,16
2,65,73,44
2,67,79,40
2,65,67,28
2,67,69,96
2,65,73,84
2,63,67,4
2,65,73,288
2,62,67,28
2,67,87,16
2,72,82,44
2,71,82,64
2,71,69,168
2,74,76,0
2,71,66,64
2,67,64,0
2,69,73,4232
2,69,73,84
2,64,71,432
2,69,67,20
2,67,69,88
2,64,71,96
2,67,61,36
2,64,63,36
2,69,73,36
2,69,82,12
2,64,73,460
2,69,69,8
2,67,73,100
2,64,69,44
2,67,69,28
2,64,64,4
2,69,82,40
2,69,69,4
2,64,61,456
2,69,69,192
2,69,79,104
2,66,79,4
2,62,58,24
2,66,67,0
2,69,82,24
2,69,87,128
2,60,58,0
2,65,67,92
2,69,79,16
2,67,82,52
2,67,76,44
2,67,69,40
2,67,64,40
2,67,67,56
2,62,63,312
2,63,79,40
2,65,73,52
2,67,82,24
2,65,82,12
2,67,67,16
2,65,87,24
2,63,82,4
2,65,79,52
2,62,79,64
2,62,93,688
2,63,79,8
2,65,73,44
2,67,82,52
2,65,82,20
2,67,67,16
2,65,87,24
2,63,82,4
2,65,79,52
2,62,79,64
2,62,93,696
2,63,79,16
2,65,73,44
2,67,79,40
2,65,67,28
2,67,69,96
2,65,73,84
2,63,67,4
2,65,73,288
2,62,67,28
2,67,87,16
2,72,82,44
2,71,82,64
2,71,69,168
2,74,76,0
2,71,66,64
2,67,64,0
2,69,73,4232
2,69,73,84
2,64,71,432
2,69,67,20
2,67,69,88
2,64,71,96
2,67,61,36
2,64,63,36
2,69,73,36
2,69,82,12
2,64,73,460
2,69,69,8
2,67,73,100
2,64,69,44
2,67,69,28
2,64,64,4
2,69,82,40
2,69,69,4
2,64,61,456
2,69,69,192
2,69,79,104
2,66,79,4
2,62,58,24
2,66,67,0
2,69,82,24
2,69,87,128
2,60,58,0
2,65,67,92
2,69,79,16
2,67,76,52
2,71,69,36996
2,74,76,0
2,71,66,64
2,67,64,0
2,69,73,4232
2,69,73,84
2,64,71,432
2,69,67,20
2,67,69,88
2,64,71,96
2,67,61,36
2,64,63,36
2,69,73,36
2,69,82,12
2,64,73,460
2,69,69,8
2,67,73,100
2,64,69,44
2,67,69,28
2,64,64,4
2,69,82,40
2,69,69,4
2,64,61,456
2,69,69,192
2,69,79,104
2,66,79,4
2,62,58,24
2,66,67,0
2,69,82,24
2,69,87,128
2,60,58,0
2,65,67,92
2,69,79,16
2,67,76,52
2,69,73,18564
2,69,73,84
2,64,71,432
2,69,67,20
2,67,69,88
2,64,71,80
2,67,61,36
2,64,63,36
2,69,73,36
2,69,82,4
2,64,73,460
2,69,69,8
2,67,73,100
2,64,69,44
2,67,69,28
2,64,64,4
2,69,82,40
2,69,69,16
2,64,61,456
2,69,69,192
2,69,79,104
2,66,79,16
2,62,58,24
2,66,67,0
2,69,82,24
2,69,87,128
2,60,58,12
2,65,67,92
2,69,79,16
2,67,76,52
3,64,79,57392
3,67,54,16
3,64,62,24
3,67,70,16
3,64,52,32
3,69,70,8
3,63,56,240
3,62,52,88
3,60,56,96
3,69,73,628
3,72,65,0
3,76,70,0
3,72,62,72
3,69,62,0
3,76,65,0
3,64,50,392
3,67,65,192
3,64,59,188
3,67,70,0
3,71,56,0
3,67,52,32
3,64,46,0
3,76,70,840
3,69,46,0
3,72,50,0
3,69,56,84
3,72,62,0
3,76,73,0
3,64,46,372
3,67,50,8
3,71,51,192
3,67,50,0
3,64,44,0
3,67,47,24
3,64,45,0
3,69,65,868
3,76,67,0
3,72,73,0
3,69,56,80
3,72,62,0
3,76,56,0
3,69,51,968
3,74,65,0
3,66,50,0
3,72,56,80
3,65,52,0
3,69,62,0
3,71,56,0
3,67,50,0
3,74,52,0
3,64,79,21892
3,67,54,16
3,64,62,24
3,67,70,16
3,64,52,32
3,69,70,8
3,63,56,240
3,62,52,88
3,60,56,64
3,69,73,516
3,72,65,0
3,76,70,0
3,72,62,88
3,69,62,0
3,76,65,0
3,64,50,392
3,67,65,192
3,64,59,188
3,67,70,0
3,71,56,0
3,67,52,32
3,64,46,0
3,76,70,840
3,69,46,0
3,72,50,0
3,69,56,84
3,72,62,0
3,76,73,0
3,64,46,372
3,67,50,8
3,71,51,192
3,67,50,0
3,64,44,0
3,67,47,24
3,64,45,0
3,69,65,868
3,76,67,0
3,72,73,0
3,69,56,80
3,72,62,0
3,76,56,0
3,69,51,968
3,74,65,0
3,66,50,0
3,72,56,80
3,65,52,0
3,69,62,0
3,64,59,576
3,64,52,0
3,67,65,40
3,64,70,16
3,67,67,8
3,64,56,192
3,69,70,8
3,64,70,232
3,64,70,904
3,67,70,16
3,64,70,192
3,67,65,12
3,64,56,192
3,69,82,0
3,64,76,304
3,64,65,920
3,67,76,8
3,64,76,192
3,67,67,168
3,64,59,188
3,69,70,0
3,64,70,312
3,64,70,948
3,67,70,12
3,64,67,192
3,67,70,184
3,64,62,0
3,69,76,16
3,64,76,304
3,64,76,916
3,67,65,12
3,64,62,192
3,67,65,188
3,64,56,184
3,69,76,8
3,64,76,292
3,64,70,664
3,67,76,4
3,64,70,192
3,67,67,4
3,64,65,12
3,69,79,4
3,64,79,304
3,67,56,1576
3,65,70,1520
3,63,65,8
3,62,62,12
3,67,70,44
3,65,70,4
3,63,56,768
3,62,70,100
3,67,70,80
3,65,70,1536
3,63,65,32
3,62,62,72
3,64,79,2192
3,67,54,16
3,64,62,24
3,67,70,16
3,64,52,32
3,69,70,8
3,63,56,240
3,62,52,88
3,60,56,64
3,69,73,516
3,72,65,0
3,76,70,0
3,72,62,88
3,69,62,0
3,76,65,0
3,64,50,392
3,67,65,192
3,64,59,188
3,67,70,0
3,71,56,0
3,67,52,32
3,64,46,0
3,76,70,840
3,69,46,0
3,72,50,0
3,69,56,84
3,72,62,0
3,76,73,0
3,64,46,372
3,67,50,8
3,71,51,192
3,67,50,0
3,64,44,0
3,67,47,24
3,64,45,0
3,69,65,868
3,76,67,0
3,72,73,0
3,69,56,80
3,72,62,0
3,76,56,0
3,69,51,968
3,74,65,0
3,66,50,0
3,72,56,80
3,65,52,0
3,69,62,0
3,64,59,576
3,64,52,0
3,67,65,40
3,64,70,16
3,67,67,8
3,64,56,192
3,69,70,8
3,64,70,232
3,64,70,904
3,67,70,16
3,64,70,192
3,67,65,12
3,64,56,192
3,69,82,0
3,64,76,304
3,64,65,920
3,67,76,8
3,64,76,192
3,67,67,168
3,64,59,188
3,69,70,0
3,64,70,312
3,64,70,948
3,67,70,12
3,64,67,192
3,67,70,184
3,64,62,0
3,69,76,16
3,64,76,304
3,64,76,916
3,67,65,12
3,64,62,192
3,67,65,188
3,64,56,184
3,69,76,8
3,64,76,292
3,64,70,664
3,67,76,4
3,64,70,192
3,67,67,4
3,64,65,12
3,69,79,4
3,64,79,304
3,69,73,1560
3,72,65,0
3,76,70,0
3,72,62,88
3,69,62,0
3,76,65,0
3,64,50,392
3,67,65,192
3,64,59,188
3,67,70,0
3,71,56,0
3,67,52,32
3,64,46,0
3,76,70,840
3,69,46,0
3,72,50,0
3,69,56,84
3,72,62,0
3,76,73,0
3,64,46,372
3,67,50,8
3,71,51,192
3,67,50,0
3,64,44,0
3,67,47,24
3,64,45,0
3,69,65,868
3,76,67,0
3,72,73,0
3,69,56,80
3,72,62,0
3,76,56,0
3,69,51,968
3,74,65,0
3,66,50,0
3,72,56,80
3,65,52,0
3,69,62,0
3,64,59,576
3,64,52,0
3,67,65,40
3,64,70,16
3,67,67,8
3,64,56,192
3,69,70,8
3,64,70,232
3,64,70,904
3,67,70,16
3,64,70,192
3,67,65,12
3,64,56,192
3,69,82,0
3,64,76,304
3,64,65,920
3,67,76,8
3,64,76,192
3,67,67,168
3,64,59,188
3,69,70,0
3,64,70,312
3,64,70,948
3,67,70,12
3,64,67,192
3,67,70,184
3,64,62,0
3,69,76,16
3,64,76,304
3,64,76,916
3,67,65,12
3,64,62,192
3,67,65,188
3,64,56,184
3,69,76,8
3,64,76,292
3,64,70,664
3,67,76,4
3,64,70,192
3,67,67,4
3,64,65,12
3,69,79,4
3,64,79,304
3,64,65,600
3,67,76,8
3,64,76,192
3,67,67,168
3,64,59,188
3,69,70,0
3,64,70,312
3,64,70,948
3,67,70,12
3,64,67,192
3,67,70,184
3,64,62,0
3,69,76,16
3,64,76,304
3,64,76,916
3,67,65,12
3,64,62,192
3,67,65,188
3,64,56,184
3,69,76,8
3,64,76,292
3,64,70,664
3,67,76,4
3,64,70,192
3,67,67,4
3,64,65,12
3,64,70,4
4,43,107,20728
4,43,102,72
4,43,107,76
4,32,93,68
4,32,102,80
4,38,102,48
4,31,107,136
4,31,102,100
4,31,102,144
4,32,99,48
4,32,96,72
4,38,107,96
4,31,99,64
4,31,107,92
4,31,99,44
4,32,89,136
4,32,93,56
4,38,93,108
4,31,102,80
4,31,102,76
4,31,93,108
4,36,96,52
4,36,89,28
4,36,93,140
4,31,102,68
4,31,102,80
4,31,102,104
4,32,93,0
4,32,102,80
4,38,102,48
4,31,107,136
4,31,102,100
4,31,102,144
4,32,93,48
4,32,102,80
4,38,93,48
4,31,102,80
4,31,102,76
4,31,93,108
4,36,102,52
4,36,86,100
4,31,89,188
4,36,93,20
4,36,93,108
4,31,84,196
4,36,96,0
4,36,93,84
4,31,84,188
4,36,89,12
4,36,82,72
4,43,102,160
4,36,89,4
4,36,89,64
4,31,87,188
4,36,87,32
4,36,89,88
4,31,84,184
4,36,83,4
4,36,89,116
4,31,87,188
4,36,93,64
4,38,89,56
4,40,93,56
4,41,107,8
4,41,96,88
4,36,93,188
4,41,107,100
4,41,102,100
4,36,89,176
4,40,102,96
4,40,96,96
4,35,93,180
4,40,107,84
4,40,102,108
4,35,89,180
4,41,102,100
4,41,102,76
4,36,93,176
4,41,107,84
4,41,99,88
4,36,91,180
4,40,99,100
4,40,99,76
4,35,102,192
4,40,102,88
4,40,102,96
4,35,87,176
4,41,102,100
4,41,96,80
4,36,87,184
4,41,89,108
4,41,93,72
4,36,87,184
4,38,96,92
4,38,96,80
4,33,96,172
4,38,96,80
4,38,93,76
4,33,87,184
4,31,93,96
4,31,89,96
4,38,89,168
4,31,89,112
4,31,93,80
4,31,89,168
4,31,113,112
4,31,89,48
4,31,102,44
4,31,96,48
4,31,113,40
4,31,96,328
4,31,93,56
4,31,96,72
4,32,93,20
4,32,102,80
4,38,102,48
4,31,107,136
4,31,102,100
4,31,102,144
4,32,93,48
4,32,102,80
4,38,102,48
4,31,107,136
4,31,102,100
4,31,102,144
4,32,93,48
4,32,102,80
4,38,93,48
4,31,102,80
4,31,102,76
4,31,93,108
4,36,102,52
4,36,86,100
4,31,89,188
4,36,93,20
4,36,93,108
4,31,84,196
4,36,96,0
4,36,93,84
4,31,84,188
4,36,89,12
4,36,82,72
4,43,102,160
4,36,89,4
4,36,89,64
4,31,87,188
4,36,87,32
4,36,89,88
4,31,84,184
4,36,83,4
4,36,89,116
4,31,87,188
4,36,93,64
4,38,89,56
4,40,93,56
4,41,107,8
4,41,96,88
4,36,93,188
4,41,107,100
4,41,102,100
4,36,89,176
4,40,102,96
4,40,96,96
4,35,93,180
4,40,107,84
4,40,102,108
4,35,89,180
4,41,102,100
4,41,102,76
4,36,93,176
4,41,107,84
4,41,99,88
4,36,91,180
4,40,99,100
4,40,99,76
4,35,102,192
4,40,102,88
4,40,102,96
4,35,87,176
4,41,102,100
4,41,96,80
4,36,87,184
4,41,89,108
4,41,93,72
4,36,87,184
4,38,107,92
4,50,104,192
4,52,103,4
4,53,107,84
4,54,102,96
4,50,102,8
4,38,107,128
4,31,102,16
4,31,107,84
4,38,104,160
4,31,89,24
4,31,102,72
4,38,99,172
4,31,99,0
4,38,102,4
4,43,104,136
4,43,107,96
4,31,93,20
4,31,96,52
4,43,107,40
4,36,93,108
4,36,89,76
4,31,91,164
4,36,99,88
4,36,96,108
4,31,87,184
4,41,107,88
4,41,102,60
4,36,99,176
4,41,113,104
4,41,102,68
4,36,102,188
4,36,93,116
4,36,96,96
4,31,89,172
4,36,99,88
4,36,102,96
4,31,87,172
4,41,107,88
4,41,89,84
4,34,31,96
4,36,93,176
4,41,107,108
4,41,99,104
4,36,93,180
4,36,102,108
4,36,96,96
4,31,93,184
4,36,99,84
4,36,93,68
4,31,87,188
4,41,99,96
4,41,93,60
4,36,102,192
4,41,107,108
4,41,96,104
4,36,102,192
4,36,102,108
4,36,102,88
4,31,99,176
4,36,102,76
4,36,96,84
4,31,93,184
4,41,99,88
4,41,99,60
4,36,102,184
4,41,107,108
4,41,102,92
4,36,102,168
4,36,99,104
4,36,102,64
4,31,99,192
4,36,102,96
4,36,93,96
4,31,93,176
4,41,102,104
4,41,96,60
4,36,93,184
4,41,107,120
4,41,93,68
4,36,102,176
4,36,96,116
4,36,96,80
4,31,91,192
4,36,99,112
4,36,96,80
4,31,87,164
4,29,107,80
4,31,99,116
4,31,102,88
4,31,107,108
4,32,93,24
4,32,102,80
4,38,102,48
4,31,107,136
4,31,102,100
4,31,102,144
4,32,93,48
4,32,102,80
4,38,102,48
4,31,107,136
4,31,102,100
4,31,102,144
4,32,93,48
4,32,102,80
4,38,93,48
4,31,102,80
4,31,102,76
4,31,93,108
4,36,102,52
4,36,86,100
4,31,89,188
4,36,93,20
4,36,93,108
4,31,84,196
4,36,96,0
4,36,93,84
4,31,84,188
4,36,89,12
4,36,82,72
4,43,102,160
4,36,89,4
4,36,89,64
4,31,87,188
4,36,87,32
4,36,89,88
4,31,84,184
4,36,83,4
4,36,89,116
4,31,87,188
4,36,93,64
4,38,89,56
4,40,93,56
4,41,107,8
4,41,96,88
4,36,93,188
4,41,107,100
4,41,102,100
4,36,89,176
4,40,102,96
4,40,96,96
4,35,93,180
4,40,107,84
4,40,102,108
4,35,89,180
4,41,102,100
4,41,102,76
4,36,93,176
4,41,107,84
4,41,99,88
4,36,91,180
4,40,99,100
4,40,99,76
4,35,102,192
4,40,102,88
4,40,102,96
4,35,87,176
4,41,102,100
4,41,96,80
4,36,87,184
4,41,89,108
4,41,93,72
4,36,87,184
4,38,107,92
4,50,104,192
4,52,103,4
4,53,107,84
4,54,102,96
4,50,102,8
4,38,107,128
4,31,102,16
4,31,107,84
4,38,104,160
4,31,89,24
4,31,102,72
4,38,99,172
4,31,99,0
4,38,102,4
4,43,104,136
4,43,107,96
4,31,93,20
4,31,96,52
4,43,107,40
4,36,93,108
4,36,89,76
4,31,91,164
4,36,99,88
4,36,96,108
4,31,87,184
4,41,107,88
4,41,102,60
