track,note,velocity,time
1,60,127,7864
1,60,127,72
1,60,127,76
1,62,127,28
1,64,127,196
1,65,127,176
1,64,127,68
1,62,127,384
1,60,127,692
1,60,127,72
1,60,127,96
1,62,127,36
1,64,127,28
1,64,127,128
1,62,127,376
1,67,127,560
1,67,127,80
1,67,127,80
1,67,127,80
1,67,127,68
1,67,127,76
1,60,127,8
1,57,127,964
1,60,127,180
1,62,127,56
1,64,127,68
1,65,127,84
1,64,127,4
1,62,127,0
1,60,127,1128
1,69,127,12
1,69,127,56
1,69,127,60
1,71,127,56
1,64,127,8
1,72,127,536
1,71,127,96
1,69,127,8
1,64,127,4
1,60,127,884
1,62,127,128
1,64,127,16
1,65,127,200
1,64,127,16
1,62,127,372
1,55,127,8
1,60,127,36
1,60,127,6104
1,62,127,16
1,64,127,0
1,65,127,188
1,64,127,8
1,62,127,368
1,60,127,684
1,60,127,52
1,60,115,40
1,62,127,28
1,64,127,56
1,62,127,4
1,67,127,736
1,67,127,72
1,67,127,88
1,67,127,76
1,67,127,92
1,67,127,92
1,60,127,8
1,57,127,868
1,60,127,188
1,62,127,52
1,64,127,88
1,65,127,104
1,64,127,4
1,62,127,292
1,60,127,1024
1,69,127,200
1,69,127,60
1,69,127,76
1,71,127,52
1,64,127,8
1,72,127,704
1,71,127,72
1,69,127,376
1,64,127,240
1,60,127,736
1,60,114,76
1,62,127,124
1,64,127,52
1,65,127,60
1,64,127,88
1,62,127,8
1,55,127,8
1,60,127,40
1,62,127,5916
1,62,127,72
1,62,127,52
1,62,127,64
1,64,127,60
1,65,127,44
1,65,127,76
1,64,127,60
1,62,127,560
1,62,127,96
1,62,127,96
1,64,127,84
1,65,127,36
1,64,127,68
1,67,127,568
1,67,127,64
1,67,127,72
1,67,127,72
1,69,127,56
1,71,127,252
1,69,101,12
1,72,127,12
1,67,127,280
1,69,127,856
1,71,127,8
1,72,127,8
1,71,127,64
1,67,127,24
1,64,127,292
1,62,127,96
1,62,127,860
1,62,127,132
1,64,127,16
1,65,127,64
1,64,127,212
1,62,127,360
1,55,127,872
1,60,127,28
1,60,127,11900
1,62,127,124
1,64,127,80
1,65,127,20
1,64,127,44
1,62,127,8
1,60,127,572
1,60,127,76
1,62,127,60
1,64,127,16
1,62,127,28
1,67,126,928
1,67,127,52
1,67,127,48
1,67,127,76
1,67,127,80
1,67,127,72
1,67,127,92
1,60,127,16
1,57,127,876
1,60,127,172
1,62,127,40
1,64,127,52
1,65,127,96
1,64,127,76
1,62,127,112
1,60,127,1268
1,69,127,28
1,69,127,44
1,69,127,80
1,71,127,80
1,64,127,8
1,72,127,672
1,71,127,388
1,69,127,356
1,64,127,8
1,60,127,612
1,62,127,104
1,64,127,32
1,65,127,192
1,64,127,12
1,62,127,376
1,55,127,744
1,60,127,44
1,60,127,12012
1,62,127,4
1,64,127,192
1,65,127,168
1,64,127,196
1,62,127,348
1,55,127,8
1,60,127,56
1,60,127,2416
1,62,127,584
1,64,127,172
1,65,127,168
1,64,127,192
1,62,127,332
1,67,127,956
1,67,127,52
1,62,127,364
1,65,127,140
1,64,127,200
1,60,127,352
2,36,127,1536
2,36,127,92
2,36,127,40
2,36,127,44
2,36,127,108
2,36,127,152
2,48,127,192
2,36,127,188
2,36,127,80
2,36,127,48
2,36,127,44
2,36,127,116
2,36,127,128
2,48,127,188
2,36,127,192
2,36,127,80
2,36,127,44
2,36,127,44
2,36,127,80
2,36,127,60
2,48,127,192
2,36,127,176
2,36,127,64
2,36,127,44
2,36,127,44
2,36,127,92
2,48,127,384
2,36,127,164
2,48,127,152
2,36,127,284
2,36,127,56
2,40,127,24
2,36,127,4
2,29,127,28
2,33,127,192
2,31,127,612
2,31,127,36
2,35,127,12
2,31,127,4
2,31,127,288
2,31,127,40
2,35,127,16
2,31,127,0
2,36,127,192
2,36,127,36
2,40,127,24
2,36,127,12
2,29,127,44
2,33,127,0
2,31,127,600
2,31,127,40
2,35,127,24
2,31,127,16
2,31,127,268
2,31,127,44
2,35,127,32
2,31,127,8
2,36,127,240
2,36,127,48
2,40,127,20
2,36,127,12
2,36,127,288
2,36,127,36
2,40,127,24
2,36,127,12
2,29,127,80
2,33,127,188
2,41,127,428
2,29,127,188
2,40,127,152
2,28,127,156
2,38,127,204
2,38,127,44
2,41,127,16
2,38,127,192
2,38,127,288
2,38,127,48
2,41,127,16
2,38,127,192
2,31,127,264
2,31,127,40
2,35,127,0
2,31,127,192
2,31,127,280
2,35,127,0
2,31,127,192
2,29,127,260
2,29,127,40
2,33,127,8
2,29,127,192
2,29,127,252
2,29,127,44
2,33,127,8
2,29,127,196
2,28,127,228
2,28,127,52
2,32,127,12
2,28,127,4
2,28,127,232
2,28,127,52
2,32,127,16
2,28,127,8
2,33,127,212
2,33,127,36
2,36,127,36
2,33,127,188
2,33,127,260
2,33,127,36
2,36,127,100
2,33,127,4
2,38,127,248
2,38,127,44
2,33,127,8
2,38,127,188
2,38,127,252
2,38,127,44
2,33,127,96
2,38,127,4
2,29,127,216
2,29,127,32
2,33,127,96
2,29,127,188
2,33,127,192
2,29,127,168
2,31,127,580
2,31,127,40
2,35,127,20
2,31,127,20
2,31,127,272
2,31,127,188
2,36,127,240
2,36,127,28
2,40,127,0
2,36,127,196
2,29,127,64
2,33,127,188
2,31,127,600
2,31,127,36
2,35,127,12
2,31,127,12
2,35,127,108
2,31,127,8
2,36,127,680
2,36,127,48
2,40,127,12
2,36,127,8
2,29,127,60
2,33,127,188
2,31,127,600
2,31,127,44
2,35,127,8
2,31,127,4
2,31,127,264
2,31,127,196
2,36,127,240
2,36,127,40
2,40,127,8
2,36,127,192
2,29,127,76
2,33,127,8
2,31,127,580
2,31,127,40
2,35,127,8
2,31,127,192
2,31,127,620
2,36,127,248
2,36,127,36
2,40,127,16
2,36,127,32
2,29,127,88
2,33,127,192
2,31,127,628
2,31,127,24
2,35,127,12
2,31,127,4
2,31,127,272
2,31,127,48
2,35,127,32
2,31,127,12
2,36,127,272
2,36,127,40
2,40,127,16
2,36,127,8
2,36,127,272
2,40,127,20
2,36,127,0
2,29,127,92
2,33,127,12
2,33,127,272
2,29,127,92
2,41,127,192
2,28,127,184
2,40,127,172
2,38,127,268
2,38,127,36
2,41,127,16
2,38,127,8
2,41,127,8
2,38,127,0
2,31,127,648
2,31,127,24
2,35,127,0
2,31,127,28
2,31,127,264
2,31,127,44
2,35,127,96
2,31,127,176
2,29,127,276
2,29,127,40
2,33,127,24
2,29,127,12
2,29,127,264
2,29,127,48
2,33,127,20
2,29,127,192
2,28,127,216
2,28,127,56
2,32,127,16
2,28,127,28
2,28,127,260
2,28,127,44
2,32,127,24
2,28,127,8
2,33,127,232
2,33,127,48
2,36,127,20
2,33,127,192
2,33,127,280
2,33,127,44
2,36,127,20
2,33,127,0
2,38,127,280
2,38,127,36
2,33,127,8
2,38,127,192
2,33,127,256
2,33,127,44
2,38,127,24
2,33,127,8
2,29,127,232
2,29,127,28
2,33,127,8
2,29,127,4
2,33,127,48
2,29,127,8
2,31,127,664
2,31,127,32
2,35,127,96
2,31,127,188
2,31,127,272
2,31,127,20
2,35,127,96
2,31,127,184
2,36,127,76
2,36,127,72
2,36,127,48
2,36,127,48
2,36,127,120
2,48,127,576
2,36,127,0
2,36,127,48
2,36,127,44
2,36,127,48
2,36,127,72
2,48,127,576
2,36,127,372
2,36,127,56
2,36,127,48
2,36,127,52
2,36,127,80
2,48,127,576
2,36,127,356
2,36,127,52
2,36,127,48
2,36,127,48
2,36,127,96
2,48,127,576
2,31,127,96
2,31,127,36
2,31,127,48
2,31,127,40
2,31,127,32
2,31,127,44
2,31,127,172
2,33,127,8
2,35,127,4
2,36,127,12
2,36,127,32
2,36,127,44
2,36,127,36
2,36,127,44
2,36,127,92
2,36,127,156
2,36,127,36
2,36,127,36
2,36,127,20
2,31,127,16
2,31,127,36
2,31,127,52
2,31,127,44
2,31,127,44
2,31,127,52
2,31,127,140
2,31,127,48
2,31,127,44
2,31,127,32
2,36,127,16
2,36,127,40
2,36,127,48
2,36,127,44
2,36,127,40
2,36,127,64
2,36,127,184
2,36,127,40
2,36,127,48
2,35,127,0
2,33,127,24
2,31,127,72
2,31,127,36
2,31,127,44
2,31,127,36
2,31,127,44
2,31,127,88
2,31,127,160
2,31,127,44
2,31,127,40
2,31,127,44
2,36,127,32
2,36,127,32
2,36,127,44
2,36,127,44
2,36,127,36
2,36,127,60
2,36,127,176
2,36,127,36
2,36,127,52
2,35,127,192
2,33,127,12
2,33,127,36
2,33,127,64
2,33,127,40
2,36,127,32
2,40,127,0
2,28,127,272
2,28,127,44
2,31,127,12
2,35,127,192
2,26,127,20
2,26,127,40
2,26,127,52
2,26,127,40
2,29,127,40
2,26,127,4
2,26,127,248
2,26,127,44
2,29,127,16
2,33,127,4
2,38,127,104
2,38,127,44
2,38,127,52
2,38,127,44
2,41,127,28
2,38,127,12
2,38,127,268
2,38,127,44
2,41,127,24
2,38,127,192
2,31,127,72
2,31,127,92
2,31,127,36
2,35,127,20
2,31,127,36
2,31,127,256
2,35,127,64
2,31,127,4
2,36,127,256
2,36,127,44
2,40,127,24
2,36,127,32
2,29,127,100
2,33,127,192
2,31,127,636
2,31,127,40
2,35,127,0
2,31,127,12
2,31,127,272
2,31,127,36
2,31,127,188
2,36,127,264
2,36,127,36
2,40,127,16
2,36,127,4
2,29,127,68
2,33,127,188
2,31,127,624
2,31,127,32
2,35,127,12
2,31,127,16
2,31,127,280
2,31,127,48
2,36,127,596
2,36,127,40
2,40,127,0
2,36,127,4
2,29,127,80
2,33,127,192
2,31,127,624
2,31,127,40
2,35,127,8
2,31,127,20
2,31,127,288
2,31,127,320
2,36,127,264
2,36,127,40
2,40,127,12
2,36,127,0
2,29,127,92
2,33,127,188
2,31,127,628
2,31,127,28
2,35,127,16
2,31,127,20
2,31,127,272
2,31,127,32
2,31,127,180
2,36,127,264
2,36,127,40
2,40,127,0
2,36,127,40
2,29,127,48
2,33,127,192
2,31,127,596
2,31,127,24
2,35,127,8
2,31,127,28
2,31,127,276
2,31,127,32
2,31,127,192
2,36,127,268
2,36,127,36
2,40,127,12
2,36,127,72
2,29,127,80
2,33,127,12
2,31,127,604
2,31,127,32
2,35,127,16
2,31,127,4
2,31,127,288
2,31,127,296
2,31,127,24
2,36,127,200
2,36,127,40
2,40,127,8
2,36,127,0
2,40,127,96
2,36,127,12
2,29,127,652
2,29,127,24
2,33,127,8
2,29,127,20
2,29,127,272
2,40,127,20
2,28,127,192
2,38,127,208
2,38,127,36
2,41,127,96
2,38,127,4
2,41,127,68
2,38,127,12
2,31,127,648
2,31,127,40
2,35,127,16
2,31,127,24
2,31,127,260
2,31,127,28
2,35,127,8
2,31,127,196
2,29,127,240
2,29,127,24
2,33,127,4
2,29,127,20
2,29,127,256
2,29,127,224
2,28,127,252
2,28,127,32
2,32,127,8
2,28,127,12
2,28,127,248
2,28,127,36
2,32,127,12
2,28,127,192
2,33,127,236
2,33,127,52
2,36,127,8
2,33,127,4
2,33,127,252
2,36,127,28
2,33,127,0
2,33,127,248
2,33,127,36
2,38,127,24
2,33,127,192
2,38,127,296
2,38,127,36
2,33,127,96
2,38,127,24
2,29,127,256
2,29,127,28
2,33,127,36
2,29,127,8
2,29,127,252
2,29,127,264
2,31,127,268
2,31,127,44
2,35,127,24
2,31,127,12
2,31,127,284
2,31,127,36
2,31,127,168
2,31,127,36
2,36,127,188
2,36,127,40
2,40,127,8
2,36,127,12
2,29,127,28
2,33,127,192
2,31,127,592
2,31,127,48
2,35,127,8
2,31,127,20
2,31,127,264
2,31,127,32
2,31,127,216
2,36,127,280
2,36,127,24
2,40,127,96
2,36,127,4
2,29,127,68
2,33,127,192
2,31,127,600
2,31,127,32
2,35,127,12
2,31,127,0
2,31,127,284
2,31,127,52
2,43,127,28
2,31,127,8
2,36,127,268
2,36,127,44
2,40,127,20
2,36,127,12
2,29,127,68
2,33,127,4
2,31,127,592
2,31,127,36
2,35,127,16
2,31,127,8
2,31,127,288
2,31,127,36
2,31,127,192
2,36,127,304
2,36,127,40
2,40,127,8
2,36,127,192
2,29,127,32
2,33,127,192
2,31,127,612
2,31,127,32
2,35,127,12
2,31,127,192
2,31,127,276
2,31,127,44
2,33,127,16
2,36,127,0
2,33,127,96
2,31,127,68
2,36,127,192
2,36,127,20
2,40,127,96
2,36,127,8
2,29,127,40
2,33,127,192
2,31,127,624
2,31,127,36
2,35,127,24
2,31,127,192
2,31,127,276
2,36,127,28
2,33,127,96
2,31,127,48
2,28,127,12
2,36,127,196
2,36,127,28
2,40,127,0
2,36,127,192
2,29,127,60
2,33,127,36
2,31,127,640
2,31,127,48
2,35,127,4
2,31,127,12
2,31,127,376
2,33,127,20
2,36,127,12
2,33,127,100
2,31,127,4
2,36,127,204
2,36,127,28
2,40,127,96
2,36,127,4
2,29,127,40
2,33,127,192
2,31,127,624
2,31,127,24
2,35,127,0
2,31,127,4
2,31,127,264
2,31,127,32
2,36,127,552
2,36,127,36
2,40,127,4
2,36,127,28
2,29,127,44
2,33,127,192
2,31,127,640
2,31,127,36
2,35,127,8
2,31,127,12
2,31,127,268
2,31,127,44
2,33,127,20
2,36,127,8
2,33,127,96
2,31,127,84
2,36,127,40
3,55,119,1536
3,60,122,0
3,64,117,4
3,57,119,104
3,65,119,0
3,60,127,0
3,59,122,76
3,62,122,0
3,67,127,4
3,60,127,56
3,57,119,0
3,65,124,0
3,57,117,92
3,60,107,172
3,64,107,44
3,55,127,0
3,60,117,4
3,57,119,80
3,60,127,0
3,65,127,0
3,57,119,52
3,60,112,64
3,65,109,60
3,59,122,40
3,62,122,0
3,67,124,0
3,57,124,92
3,65,122,0
3,60,127,0
3,57,122,68
3,60,122,88
3,65,106,140
3,55,112,60
3,60,112,0
3,64,105,0
3,57,105,92
3,60,106,0
3,65,106,0
3,55,108,92
3,59,103,0
3,62,101,0
3,64,103,208
3,55,109,0
3,60,108,0
3,60,108,80
3,57,105,0
3,65,107,0
3,59,108,80
3,67,122,0
3,62,108,0
3,55,117,960
3,59,119,84
3,62,114,76
3,67,112,100
3,55,109,28
3,64,101,0
3,60,107,0
3,60,106,248
3,69,115,0
3,65,114,0
3,69,124,104
3,60,122,0
3,65,127,0
3,64,119,36
3,60,117,0
3,67,117,0
3,57,117,140
3,65,114,0
3,60,122,0
3,59,109,160
3,62,110,4
3,67,122,0
3,65,114,264
3,60,106,0
3,69,115,0
3,62,109,272
3,64,109,0
3,68,111,0
3,71,112,0
3,59,100,768
3,62,110,12
3,64,106,80
3,68,112,192
3,71,109,192
3,57,93,24
3,72,109,0
3,64,105,0
3,69,114,0
3,66,99,336
3,62,98,0
3,74,109,0
3,69,114,0
3,60,99,176
3,65,106,0
3,69,117,0
3,57,105,56
3,60,119,168
3,65,109,192
3,69,115,20
3,67,106,8
3,62,106,0
3,55,112,0
3,59,110,192
3,55,124,468
3,60,127,0
3,64,117,0
3,57,117,96
3,65,117,0
3,60,122,0
3,59,117,80
3,62,119,0
3,67,127,0
3,60,115,276
3,64,117,0
3,55,119,0
3,57,115,108
3,65,124,4
3,60,124,0
3,59,112,84
3,62,114,0
3,67,127,0
3,55,106,268
3,64,104,0
3,60,106,0
3,60,100,80
3,65,98,0
3,57,93,0
3,55,98,108
3,62,97,0
3,59,94,0
3,55,95,96
3,62,109,96
3,67,110,96
3,64,109,76
3,60,107,0
3,60,107,140
3,65,103,0
3,57,102,0
3,59,105,128
3,62,103,0
3,55,110,0
3,67,108,768
3,60,109,156
3,64,99,0
3,55,112,0
3,60,104,104
3,65,94,0
3,57,97,0
3,60,117,108
3,65,117,0
3,69,122,0
3,64,122,44
3,60,115,0
3,67,117,0
3,57,110,152
3,65,112,0
3,60,117,0
3,59,103,188
3,67,110,4
3,62,98,0
3,59,106,44
3,62,109,168
3,67,107,144
3,69,110,24
3,65,102,0
3,60,107,0
3,60,105,148
3,65,112,132
3,69,110,196
3,62,106,24
