track,note,velocity,time
0,68,95,2492
0,92,110,0
0,52,82,0
0,59,92,0
0,64,91,0
0,68,81,0
0,59,82,0
0,42,91,0
0,59,93,180
0,64,82,0
0,42,46,0
0,56,88,0
0,37,99,146
0,42,93,0
0,35,105,0
0,42,48,180
0,59,94,0
0,64,82,0
0,56,78,0
0,66,87,0
0,90,115,0
0,60,91,0
0,60,84,0
0,66,91,0
0,42,87,0
0,63,87,0
0,51,91,0
0,60,91,180
0,54,91,0
0,63,79,0
0,42,56,0
0,37,98,150
0,42,103,0
0,35,107,0
0,60,92,180
0,63,92,0
0,54,88,0
0,42,53,0
0,88,113,0
0,42,92,0
0,56,93,0
0,61,92,0
0,64,91,0
0,49,91,0
0,64,92,0
0,56,91,0
0,42,50,180
0,61,88,0
0,56,82,0
0,64,83,0
0,37,104,146
0,35,105,0
0,42,91,0
0,56,83,180
0,64,86,0
0,61,91,0
0,42,49,0
0,57,81,0
0,42,96,0
0,59,83,0
0,61,78,0
0,66,91,0
0,64,80,0
0,85,108,0
0,52,91,0
0,45,91,0
0,57,97,180
0,66,99,0
0,61,103,0
0,42,46,0
0,37,101,0
0,88,109,0
0,64,91,0
0,35,107,0
0,57,91,0
0,42,96,0
0,42,91,0
0,57,88,180
0,64,89,0
0,61,99,0
0,42,56,0
0,64,82,0
0,42,91,0
0,83,108,0
0,59,91,0
0,59,72,0
0,68,91,0
0,47,91,0
0,68,74,0
0,56,80,0
0,64,89,180
0,56,95,0
0,59,98,0
0,42,46,0
0,42,93,154
0,35,105,0
0,37,99,0
0,92,112,0
0,56,81,180
0,64,85,0
0,59,89,0
0,42,48,0
0,59,73,0
0,66,70,0
0,66,91,0
0,64,77,0
0,47,91,0
0,57,88,0
0,57,91,0
0,42,87,0
0,63,91,180
0,57,90,0
0,59,97,0
0,42,56,0
0,51,91,0
0,37,98,0
0,42,103,0
0,35,107,0
0,90,110,0
0,47,91,0
0,63,78,0
0,42,53,180
0,63,87,0
0,59,96,0
0,57,88,0
0,42,92,0
0,40,91,0
0,59,85,0
0,88,118,0
0,64,92,0
0,56,95,0
0,47,91,0
0,64,91,0
0,56,78,180
0,42,50,0
0,64,78,0
0,59,90,0
0,37,104,148
0,42,91,0
0,35,105,0
0,64,80,180
0,59,87,0
0,56,83,0
0,42,49,0
0,57,84,0
0,59,82,0
0,54,91,0
0,47,91,0
0,63,68,0
0,42,96,0
0,83,114,0
0,63,91,0
0,63,77,180
0,57,85,0
0,59,90,0
0,42,46,0
0,42,96,156
0,37,101,0
0,35,107,0
0,63,82,16
0,42,56,0
0,57,91,0
0,59,91,0
0,52,94,0
0,40,91,0
0,59,89,0
0,64,90,0
0,68,88,0
0,42,91,0
0,59,84,50
0,56,74,0
0,40,83,0
0,42,46,0
0,64,79,0
0,59,87,46
0,42,93,30
0,54,109,0
0,35,96,0
0,35,105,0
0,37,99,0
0,64,87,12
0,66,82,34
0,56,73,26
0,40,92,0
0,64,79,0
0,59,82,0
0,42,48,0
0,68,81,18
0,59,81,0
0,51,95,0
0,66,88,0
0,42,87,0
0,68,92,4
0,42,56,106
0,63,74,0
0,56,78,0
0,59,82,0
0,54,118,28
0,39,87,0
0,35,107,0
0,42,103,0
0,37,98,0
0,66,81,18
0,63,80,2
0,59,86,0
0,42,53,0
0,56,78,0
0,32,88,0
0,42,92,0
0,49,96,0
0,59,85,0
0,37,87,0
0,64,87,0
0,66,98,2
0,61,87,8
0,64,89,0
0,42,50,0
0,56,80,0
0,37,89,0
0,64,78,4
0,61,78,10
0,42,91,24
0,54,112,0
0,37,104,0
0,32,89,0
0,35,105,0
0,56,87,22
0,61,92,0
0,42,49,0
0,64,87,0
0,37,86,0
0,61,72,48
0,42,96,0
0,56,78,180
0,64,79,0
0,42,46,0
0,59,86,0
0,42,96,142
0,54,120,0
0,37,101,0
0,35,96,0
0,35,107,0
0,56,78,32
0,37,74,0
0,59,90,0
0,42,56,0
0,64,85,0
0,59,87,0
0,42,91,0
0,33,101,0
0,45,91,0
0,64,80,0
0,57,83,0
0,61,86,0
0,64,84,40
0,61,87,0
0,57,86,0
0,42,46,0
0,33,97,0
0,64,84,42
0,37,99,38
0,35,105,0
0,40,91,0
0,42,93,0
0,54,123,0
0,69,94,2
0,71,86,12
0,64,90,28
0,42,48,0
0,61,92,0
0,37,78,0
0,57,89,0
0,73,93,34
0,63,79,0
0,66,79,0
0,59,74,0
0,47,86,0
0,57,73,0
0,42,87,0
0,73,95,0
0,63,75,12
0,54,70,0
0,59,86,0
0,42,56,0
0,73,87,14
0,42,103,4
0,37,98,0
0,35,102,0
0,54,120,0
0,35,107,0
0,71,85,4
0,39,88,58
0,42,53,0
0,54,73,0
0,59,83,0
0,63,72,0
0,68,81,2
0,71,92,32
0,66,92,0
0,40,97,0
0,52,89,0
0,42,92,0
0,59,78,0
0,68,87,0
0,68,93,18
0,56,78,2
0,64,81,0
0,42,50,0
0,59,87,0
0,40,94,0
0,54,116,16
0,35,101,0
0,42,91,0
0,37,104,0
0,35,105,0
0,40,105,2
0,56,75,0
0,59,89,0
0,64,82,0
0,42,49,0
0,59,87,60
0,64,91,0
0,68,88,0
0,42,96,0
0,62,82,170
0,56,66,0
0,59,80,0
0,42,46,0
0,54,115,22
0,35,107,0
0,28,83,0
0,52,85,0
0,42,96,0
0,37,101,0
0,62,86,0
0,32,88,0
0,59,84,0
0,56,78,0
0,42,56,0
0,33,94,0
0,45,96,0
0,61,89,0
0,42,91,0
0,64,86,0
0,57,89,0
0,57,80,54
0,42,46,0
0,64,82,0
0,33,98,0
0,61,83,0
0,64,82,56
0,35,105,46
0,37,99,0
0,37,83,0
0,42,93,0
0,54,110,0
0,69,96,2
0,71,90,12
0,57,82,18
0,40,85,0
0,61,82,0
0,42,48,0
0,64,78,0
0,73,93,10
0,54,78,0
0,63,78,0
0,42,87,0
0,59,91,0
0,47,91,0
0,71,91,12
0,42,56,40
0,59,87,0
0,54,83,0
0,63,78,0
0,35,81,10
0,39,76,18
0,35,107,0
0,42,103,0
0,37,98,0
0,54,115,0
0,42,80,42
0,63,75,0
0,42,53,0
0,54,83,0
0,59,89,0
0,69,88,50
0,56,83,0
0,61,86,0
0,42,92,0
0,37,92,0
0,49,99,0
0,59,90,0
0,64,84,0
0,68,102,12
0,42,50,0
0,56,81,0
0,61,86,0
0,64,76,0
0,37,95,0
0,69,95,0
0,68,94,6
0,40,85,30
0,37,104,0
0,42,91,0
0,35,105,0
0,54,112,0
0,64,82,10
0,61,87,0
0,37,93,0
0,56,85,0
0,42,49,0
0,66,87,2
0,64,94,20
0,57,79,0
0,45,86,0
0,64,77,0
0,42,96,0
0,61,82,0
0,57,85,8
0,64,80,0
0,61,89,0
0,42,46,0
0,33,78,18
0,64,82,0
0,42,96,0
0,61,78,0
0,54,120,0
0,46,81,0
0,37,101,0
0,34,83,0
0,55,78,0
0,35,107,0
0,64,85,46
0,58,85,0
0,61,86,0
0,42,56,0
0,34,78,46
0,64,76,0
0,59,88,0
0,56,88,0
0,42,91,0
0,35,96,0
0,47,88,0
0,42,46,54
0,64,78,0
0,59,87,0
0,56,77,0
0,35,98,0
0,59,91,20
0,64,90,40
0,35,78,12
0,37,99,0
0,35,105,0
0,42,93,0
0,54,121,0
0,66,88,12
0,56,79,12
0,59,88,0
0,35,107,0
0,42,48,0
0,64,78,0
0,68,95,6
0,68,97,16
0,42,87,0
0,57,74,0
0,63,81,0
0,47,86,0
0,59,84,0
0,59,77,14
0,63,73,0
0,42,56,0
0,57,74,0
0,37,98,12
0,47,89,0
0,54,121,0
0,35,107,0
0,42,103,0
0,35,97,2
0,59,82,0
0,63,78,0
0,42,53,0
0,57,78,0
0,66,82,12
0,59,102,0
0,56,89,0
0,40,97,0
0,64,95,0
0,42,92,0
0,64,92,6
0,42,50,12
0,40,94,0
0,59,86,0
0,64,83,0
0,56,78,0
0,54,123,22
0,42,91,0
0,35,99,0
0,35,105,0
0,37,104,0
0,59,85,12
0,56,78,0
0,42,49,0
0,64,78,0
0,40,88,0
0,63,89,0
0,59,91,0
0,42,96,0
0,57,91,0
0,42,46,180
0,63,80,0
0,57,76,0
0,59,83,0
0,64,97,16
0,35,84,0
0,42,96,62
0,35,107,0
0,54,112,0
0,37,79,0
0,37,101,0
0,59,79,30
0,42,56,0
0,39,92,0
0,57,78,0
0,63,76,0
0,66,102,0
0,42,91,0
0,59,69,0
0,59,89,0
0,68,88,0
0,64,90,0
0,52,89,0
0,52,94,0
0,68,83,0
0,40,91,0
0,40,83,50
0,42,46,0
0,59,84,0
0,56,74,0
0,64,79,0
0,59,87,46
0,37,99,30
0,35,105,0
0,35,96,0
0,54,109,0
0,42,93,0
0,56,102,7
0,64,87,5
0,66,82,24
0,57,107,3
0,64,79,26
0,42,48,0
0,40,92,0
0,59,82,0
0,56,73,0
0,68,81,8
0,59,101,14
0,42,87,0
0,59,80,0
0,51,90,0
0,66,88,0
0,66,79,0
0,51,95,0
0,59,81,0
0,68,92,4
0,59,96,5
0,59,82,106
0,42,56,0
0,56,78,0
0,63,74,0
0,39,87,28
0,35,107,0
0,54,118,0
0,37,98,0
0,42,103,0
0,66,81,18
0,42,53,2
0,32,88,0
0,56,78,0
0,63,80,0
0,59,86,0
0,57,91,29
0,59,85,0
0,64,87,0
0,42,92,0
0,64,83,0
0,49,96,0
0,49,87,0
0,37,87,0
0,56,88,0
0,66,98,2
0,56,86,8
0,42,50,8
0,37,89,0
0,56,80,0
0,64,89,0
0,61,87,0
0,64,78,4
0,61,78,10
0,42,91,24
0,35,105,0
0,54,112,0
0,37,104,0
0,32,89,0
0,61,92,22
0,37,86,0
0,56,87,0
0,42,49,0
0,64,87,0
0,42,96,48
0,61,72,0
0,64,79,180
0,56,78,0
0,42,46,0
0,59,86,0
0,35,107,0
0,47,88,0
0,35,96,0
0,37,101,0
0,56,82,0
0,63,91,0
0,54,120,0
0,42,96,0
0,59,90,32
0,56,78,0
0,37,74,0
0,64,85,0
0,42,56,0
0,45,98,0
0,33,101,0
0,64,80,0
0,42,91,0
0,45,91,0
0,57,83,0
0,52,81,0
0,61,89,0
0,61,86,0
0,59,87,0
0,64,84,40
0,61,87,0
0,57,86,0
0,33,97,0
0,42,46,0
0,52,85,41
0,64,84,1
0,42,93,38
0,40,91,0
0,35,105,0
0,54,123,0
0,37,99,0
0,69,94,2
0,61,102,2
0,71,86,12
0,63,96,5
0,57,89,23
0,42,48,0
0,64,90,0
0,37,78,0
0,61,92,0
0,73,93,15
0,64,106,15
0,57,73,0
0,47,86,0
0,42,87,0
0,59,74,0
0,47,91,0
0,63,79,0
0,54,87,0
0,63,82,0
0,66,79,0
0,73,95,0
0,63,108,6
0,59,86,12
0,63,75,0
0,42,56,0
0,54,70,0
0,73,87,14
0,54,120,4
0,37,98,0
0,35,107,0
0,35,102,0
0,42,103,0
0,71,85,4
0,61,89,5
0,59,83,53
0,42,53,0
0,39,88,0
0,54,73,0
0,63,72,0
0,59,92,7
0,68,81,2
0,59,99,21
0,71,92,11
0,47,100,0
0,64,91,0
0,59,78,0
0,56,85,0
0,42,92,0
0,66,92,0
0,52,89,0
0,68,87,0
0,40,97,0
0,68,93,8
0,59,87,6
0,64,81,0
0,42,50,0
0,56,78,0
0,40,94,0
0,35,105,16
0,35,101,0
0,54,116,0
0,42,91,0
0,37,104,0
0,56,75,2
0,40,105,0
0,64,82,0
0,42,49,0
0,59,89,0
0,59,87,60
0,68,88,0
0,64,91,0
0,42,96,0
0,62,95,0
0,62,82,170
0,42,46,0
0,59,80,0
0,56,66,0
0,35,107,22
0,37,101,0
0,42,96,0
0,52,85,0
0,28,83,0
0,54,115,0
0,56,78,0
0,42,56,0
0,62,86,0
0,59,84,0
0,32,88,0
0,61,89,0
0,57,89,0
0,61,81,0
0,42,91,0
0,64,86,0
0,45,96,0
0,52,96,0
0,33,94,0
0,45,102,0
0,64,82,54
0,57,80,0
0,33,98,0
0,42,46,0
0,61,83,0
0,52,97,38
0,64,82,18
0,35,105,46
0,54,110,0
0,42,93,0
0,37,83,0
0,37,99,0
0,61,109,8
0,69,96,2
0,63,93,2
0,71,90,10
0,61,82,18
0,57,82,0
0,42,48,0
0,64,78,0
0,40,85,0
0,64,97,8
0,73,93,2
0,47,92,0
0,54,82,0
0,63,97,0
0,59,91,0
0,54,78,0
0,42,87,0
0,47,91,0
0,63,78,0
0,63,90,1
0,71,91,11
0,59,87,40
0,54,83,0
0,42,56,0
0,63,78,0
0,35,81,10
0,35,107,0
0,39,76,0
0,42,103,0
0,37,98,0
0,54,115,0
0,59,89,10
0,42,53,0
0,42,80,0
0,63,75,0
0,54,83,0
0,61,87,27
0,69,88,4
0,42,92,0
0,61,86,0
0,49,100,0
0,56,83,0
0,64,84,0
0,37,92,0
0,56,87,0
0,59,90,0
0,64,91,0
0,49,99,0
0,59,99,5
0,68,102,5
0,64,76,0
0,61,86,0
0,56,81,0
0,37,95,0
0,42,50,0
0,69,95,0
0,61,94,1
0,59,103,11
0,68,94,6
0,54,112,30
0,40,85,0
0,37,104,0
0,35,105,0
0,42,91,0
0,42,49,10
0,56,85,0
0,61,87,0
0,64,82,0
0,37,93,0
0,57,95,10
0,66,87,2
0,57,95,9
0,64,94,11
0,64,77,0
0,45,90,0
0,45,86,0
0,57,89,0
0,61,82,0
0,52,93,0
0,57,79,0
0,42,96,0
0,61,87,0
0,61,89,8
0,57,85,0
0,42,46,0
0,64,80,0
0,33,78,18
0,42,96,0
0,54,120,0
0,64,82,0
0,35,107,0
0,55,107,0
0,61,70,0
0,46,90,0
0,34,83,0
0,46,81,0
0,52,74,0
0,37,101,0
0,61,78,0
0,55,78,0
0,55,85,4
0,58,85,46
0,42,56,0
0,64,85,0
0,61,86,0
0,34,78,46
0,56,82,9
0,64,76,0
0,59,88,0
0,35,96,0
0,59,100,0
0,52,87,0
0,42,91,0
0,56,88,0
0,47,88,0
0,56,71,0
0,47,100,0
0,42,46,6
0,35,98,0
0,56,77,0
0,64,78,0
0,59,87,0
0,59,91,6
0,64,90,6
0,42,93,12
0,35,105,0
0,37,99,0
0,35,78,0
0,54,121,0
0,56,95,5
0,66,88,9
0,57,105,21
0,56,79,12
0,59,88,0
0,64,78,0
0,35,107,0
0,42,48,0
0,68,95,6
0,59,100,8
0,68,97,4
0,59,107,1
0,51,82,0
0,47,86,0
0,59,84,0
0,63,81,0
0,42,87,0
0,47,102,0
0,57,89,0
0,57,74,0
0,59,87,0
0,59,77,0
0,57,74,0
0,63,73,0
0,42,56,0
0,37,98,10
0,54,121,0
0,42,103,0
0,35,107,0
0,47,89,0
0,42,53,2
0,63,78,0
0,57,78,0
0,35,97,0
0,59,82,0
0,66,82,3
0,57,93,11
0,52,92,0
0,42,92,0
0,56,86,0
0,59,89,0
0,64,83,0
0,47,89,0
0,40,98,0
0,56,73,0
0,40,96,0
0,64,84,0
0,64,92,6
0,56,87,1
0,59,86,12
0,40,91,0
0,42,50,0
0,64,83,0
0,56,78,0
0,35,105,4
0,37,104,0
0,35,102,0
0,42,91,0
0,54,123,0
0,42,49,20
0,40,85,0
0,56,78,0
0,59,85,0
0,64,78,0
0,42,96,62
0,62,90,0
0,56,82,0
0,64,80,148
0,42,46,0
0,59,83,0
0,56,76,0
0,54,112,0
0,42,96,0
0,28,98,0
0,37,101,0
0,62,82,0
0,35,107,0
0,59,79,32
0,42,56,0
0,64,76,0
0,40,94,0
0,56,78,0
0,32,89,52
0,59,85,0
0,42,91,0
0,61,95,0
0,45,99,0
0,61,98,0
0,57,87,0
0,64,89,0
0,33,105,0
0,52,91,0
0,33,104,8
0,64,84,0
0,42,46,0
0,69,84,0
0,61,81,0
0,73,92,20
0,42,93,44
0,37,99,0
0,40,100,0
0,54,109,0
0,35,105,0
0,73,88,46
0,64,87,8
0,61,81,0
0,42,48,0
0,69,82,0
0,33,102,0
0,73,82,18
0,55,98,0
0,46,92,0
0,64,84,0
