track,note,velocity,time
1,97,39,1536
1,85,64,10
1,85,66,125
1,73,51,134
1,85,57,86
1,85,42,102
1,79,37,152
1,67,31,1
1,81,60,37
1,69,48,12
1,61,24,616
1,97,30,17
1,85,48,21
1,85,33,100
1,73,45,103
1,85,65,88
1,85,48,127
1,77,33,165
1,65,11,23
1,79,43,2
1,67,44,19
1,97,39,500
1,85,58,56
1,85,65,160
1,79,49,9
1,67,33,18
1,73,42,25
1,85,68,50
1,81,66,6
1,69,58,4
1,73,43,155
1,83,64,83
1,71,55,8
1,81,66,34
1,69,44,10
1,79,65,162
1,67,36,26
1,97,45,256
1,65,39,6
1,89,37,6
1,61,32,9
1,85,46,13
1,79,43,134
1,85,36,12
1,67,38,2
1,73,29,39
1,79,25,115
1,85,37,6
1,67,36,21
1,85,40,81
1,97,48,121
1,49,30,1129
1,85,26,2
1,37,30,8
1,73,45,31
1,73,36,83
1,61,43,120
1,73,54,94
1,73,44,91
1,67,41,156
1,55,27,7
1,69,63,14
1,57,51,1
1,46,43,514
1,85,30,0
1,34,40,2
1,73,30,52
1,73,23,89
1,61,49,73
1,73,40,52
1,73,30,115
1,53,19,81
1,65,31,36
1,55,41,31
1,67,49,12
1,49,37,528
1,37,36,0
1,85,47,11
1,73,42,54
1,73,53,158
1,67,44,2
1,55,47,17
1,61,48,14
1,73,63,87
1,57,68,2
1,69,65,2
1,73,38,99
1,73,10,77
1,71,72,19
1,59,57,2
1,85,56,4
1,57,55,171
1,69,67,0
1,67,64,221
1,55,54,7
1,34,76,148
1,46,24,4
1,85,52,100
1,65,72,12
1,53,54,7
1,73,51,29
1,73,41,141
1,67,64,27
1,55,32,23
1,61,47,36
1,73,52,130
1,67,55,36
1,55,40,15
1,73,44,133
1,85,25,256
1,60,33,1250
1,38,28,17
1,45,31,6
1,53,28,2
1,52,41,49
1,60,44,92
1,50,27,8
1,52,10,80
1,67,38,58
1,69,64,16
1,53,30,20
1,50,24,24
1,60,39,0
1,52,33,53
1,45,33,138
1,53,26,8
1,50,24,9
1,38,43,213
1,60,23,14
1,53,36,137
1,45,36,5
1,52,45,64
1,60,45,67
1,50,37,6
1,52,37,43
1,65,22,25
1,67,44,33
1,53,33,11
1,50,25,27
1,60,24,38
1,52,37,130
1,53,39,119
1,45,38,25
1,50,33,10
1,60,37,329
1,38,34,18
1,67,62,69
1,65,37,8
1,45,45,14
1,52,46,117
1,69,74,17
1,60,28,20
1,50,43,5
1,52,44,86
1,71,69,37
1,50,38,19
1,65,31,17
1,72,70,115
1,60,41,16
1,71,61,2
1,65,44,15
1,52,39,0
1,69,76,77
1,60,59,2
1,50,37,29
1,45,31,1
1,67,77,41
1,65,52,20
1,65,72,119
1,60,37,25
1,38,29,17
1,67,63,48
1,65,51,14
1,45,39,14
1,52,41,68
1,67,70,3
1,60,47,14
1,50,45,23
1,52,39,84
1,67,51,128
1,53,30,24
1,50,28,4
1,60,30,63
1,52,35,163
1,53,36,75
1,50,31,14
1,45,30,15
1,53,34,270
1,45,35,8
1,60,46,50
1,37,31,2
1,51,48,94
1,65,68,1
1,49,48,14
1,51,47,83
1,75,48,106
1,77,77,90
1,49,47,0
1,72,48,1
1,45,39,0
1,65,51,13
1,51,58,98
1,49,44,109
1,60,45,20
1,37,26,7
1,53,44,0
1,44,40,21
1,37,40,311
1,59,45,1
1,51,52,40
1,65,58,19
1,49,43,15
1,51,44,65
1,73,44,80
1,75,48,46
1,49,41,2
1,71,30,10
1,44,37,0
1,65,44,2
1,51,45,135
1,49,39,149
1,59,37,8
1,37,26,31
1,45,53,1
1,53,47,8
1,37,47,61
1,73,68,33
1,61,54,6
1,51,64,19
1,75,84,84
1,63,69,4
1,49,65,4
1,51,63,61
1,77,92,37
1,72,73,3
1,65,62,4
1,49,46,12
1,79,95,40
1,67,76,8
1,45,17,42
1,77,88,54
1,51,46,4
1,65,67,6
1,75,84,98
1,49,53,2
1,63,69,2
1,69,66,5
1,37,39,4
1,73,82,85
1,61,70,5
1,71,67,150
1,65,54,6
1,59,46,0
1,44,44,10
1,37,46,51
1,73,48,2
1,61,37,10
1,51,46,0
1,61,55,105
1,49,45,4
1,73,55,14
1,51,43,69
1,49,53,50
1,59,39,5
1,71,39,0
1,65,45,7
1,44,46,7
1,73,63,68
1,61,58,1
1,51,44,14
1,75,80,89
1,63,66,2
1,49,45,11
1,37,28,10
1,77,90,52
1,65,61,8
1,79,88,96
1,37,38,134
1,81,94,18
1,72,54,10
1,69,59,11
1,45,57,42
1,51,52,48
1,77,66,104
1,79,95,12
1,49,65,8
1,67,63,4
1,51,77,43
1,79,83,127
1,81,103,7
1,60,62,0
1,49,61,4
1,69,54,12
1,53,73,15
1,37,53,3
1,77,66,137
1,79,90,22
1,67,57,4
1,72,61,6
1,45,54,16
1,75,54,167
1,77,70,37
1,65,54,4
1,71,30,0
1,37,37,32
1,44,30,4
1,51,50,129
1,73,35,44
1,75,47,20
1,63,37,0
1,68,38,2
1,49,44,3
1,51,52,9
1,75,35,58
1,77,63,0
1,65,26,15
1,71,34,0
1,59,28,0
1,49,21,19
1,53,23,2
1,37,30,26
1,73,35,248
1,75,31,24
1,44,26,0
1,68,26,13
1,63,10,6
1,37,31,102
1,73,44,167
1,37,10,121
1,75,46,21
1,44,28,6
1,63,21,0
1,71,30,11
1,53,21,231
1,59,27,152
1,53,36,2
1,44,29,250
1,37,30,200
1,53,34,14
1,61,34,142
1,44,30,111
1,59,25,14
1,63,54,9
1,53,32,60
1,37,30,15
1,44,30,13
1,59,32,105
1,37,19,80
1,59,33,77
1,59,44,74
1,59,47,81
1,59,41,122
1,59,34,52
1,59,33,114
1,59,30,92
1,59,22,110
1,59,19,160
1,59,13,236
1,59,23,126
1,59,20,129
1,59,16,123
1,59,19,175
1,67,41,115
1,63,22,22
1,59,21,2
1,69,50,12
1,65,37,19
1,59,43,12
1,59,39,27
1,59,36,94
1,59,30,54
1,73,53,238
1,69,28,12
1,59,17,7
1,59,37,27
1,77,77,78
1,73,57,6
1,59,37,14
1,59,37,100
1,66,57,46
1,62,44,10
1,63,45,0
1,67,59,4
1,59,20,13
1,59,25,146
1,59,39,96
1,59,47,88
1,59,46,80
1,59,28,72
1,59,23,213
1,59,24,100
1,59,28,67
1,59,33,102
1,59,35,78
1,68,57,194
1,64,42,10
1,59,47,86
1,70,72,6
1,66,54,1
1,59,37,102
1,59,40,77
1,59,42,83
1,59,44,61
1,59,36,273
1,74,83,22
1,70,70,7
1,59,24,40
1,78,73,133
1,59,29,14
1,74,53,3
1,59,32,101
1,68,63,62
1,64,57,4
1,69,78,58
1,65,67,5
1,59,36,6
1,59,28,117
1,59,37,109
1,59,45,83
1,59,52,89
1,59,37,0
1,59,35,154
1,59,33,19
1,59,37,88
1,59,31,88
1,80,57,57
1,76,54,12
1,77,59,76
1,81,87,5
1,69,43,2
1,59,21,13
1,65,51,3
1,59,28,12
1,59,18,48
1,79,53,62
1,75,50,5
1,68,57,35
1,80,84,8
1,76,61,2
1,59,26,5
1,64,38,22
1,59,43,11
1,80,64,65
1,76,51,10
1,77,77,21
1,81,89,12
1,69,64,9
1,65,42,0
1,59,23,7
1,59,15,15
1,59,37,72
1,75,56,30
1,79,64,6
1,80,76,31
1,76,76,10
1,68,66,7
1,64,71,12
1,59,26,6
1,59,42,36
1,78,55,43
1,74,42,19
1,75,66,7
1,79,90,0
1,67,77,3
1,57,68,0
1,59,64,2
1,63,57,2
1,59,57,78
1,59,24,113
1,59,38,86
1,59,38,80
1,59,48,133
1,29,51,9
1,41,26,10
1,59,59,256
1,59,36,93
1,59,50,81
1,59,46,82
1,80,68,76
1,76,44,9
1,81,84,0
1,65,55,5
1,69,71,10
1,59,34,2
1,77,64,0
1,59,37,48
1,59,13,100
1,79,57,47
1,75,41,1
1,59,57,23
1,68,75,5
1,80,85,2
1,76,87,4
1,64,72,8
1,59,52,10
1,80,30,16
1,76,67,0
1,77,77,48
1,69,78,6
1,81,92,2
1,59,43,2
1,65,69,2
1,59,55,20
1,59,47,77
1,79,44,31
1,75,57,5
1,68,78,2
1,80,83,7
1,76,90,12
1,59,64,4
1,64,57,6
1,59,57,53
1,78,66,0
1,74,55,11
1,75,70,45
1,79,90,3
1,59,61,2
1,67,86,6
1,57,77,4
1,63,69,2
1,59,58,64
1,59,26,81
1,59,44,67
1,59,50,70
1,59,23,147
1,29,19,1
1,41,17,6
1,59,32,238
1,59,44,66
1,59,43,85
1,59,31,92
1,59,42,2
1,60,64,156
1,72,78,7
1,59,28,8
1,64,40,11
1,67,25,12
1,59,43,53
1,66,78,40
1,74,98,2
1,62,70,2
1,69,53,21
1,59,63,35
1,62,55,11
1,76,96,46
1,64,68,4
1,71,44,15
1,67,51,2
1,59,30,23
1,66,62,52
1,78,78,18
1,72,62,1
1,69,68,4
1,59,34,14
1,59,54,70
1,64,81,3
1,67,81,10
1,76,78,6
1,71,47,3
1,62,76,83
1,74,94,2
1,59,53,2
1,69,90,4
1,66,72,13
1,60,85,36
1,59,61,4
1,72,98,2
1,64,87,6
1,67,79,2
1,62,74,77
1,74,104,2
1,69,76,0
1,59,53,5
1,66,78,0
1,64,81,94
1,76,100,0
1,67,92,4
1,59,63,0
1,59,46,73
1,79,102,96
1,67,95,0
1,71,75,6
1,59,38,15
1,74,62,0
1,59,52,90
1,91,115,162
1,86,98,5
1,79,96,0
1,83,78,8
1,90,14,108
1,96,118,73
1,91,105,4
1,84,108,1
1,79,98,4
1,88,98,0
1,76,64,2
1,72,92,5
1,71,74,181
1,59,86,25
1,59,74,67
1,93,119,45
1,88,114,4
1,84,107,3
1,81,111,0
1,76,111,0
1,69,94,7
1,71,87,2
1,72,101,0
1,59,68,173
1,59,79,6
1,89,116,198
1,77,103,3
1,72,104,0
1,81,103,0
1,84,106,3
1,65,88,7
1,69,84,4
1,59,79,125
1,59,92,48
1,69,90,231
1,59,70,3
1,86,115,0
1,77,97,4
1,74,103,2
1,62,73,2
1,81,97,0
1,65,74,0
1,59,62,14
1,59,52,60
1,59,72,82
1,92,111,6
1,80,97,4
1,75,97,2
1,83,86,6
1,87,83,0
1,68,85,1
1,71,60,3
1,59,88,0
1,59,61,39
1,88,105,232
1,80,76,0
1,71,61,4
1,64,63,0
1,76,84,4
1,68,51,3
1,83,59,3
1,59,66,6
1,59,55,66
1,59,26,250
1,68,52,2
1,61,51,2
1,85,72,1
1,80,48,5
1,73,54,1
1,65,54,2
1,77,55,7
1,59,37,81
1,59,47,106
1,59,36,132
1,69,96,143
1,59,64,11
1,60,67,2
1,64,66,4
1,57,66,7
1,59,56,42
1,59,50,109
1,58,75,110
1,66,77,1
1,61,65,3
1,59,48,11
1,54,43,4
1,59,56,80
1,59,55,41
1,62,57,223
1,57,59,5
1,54,47,3
1,59,47,1
1,50,47,4
1,59,47,37
1,59,41,24
1,59,47,106
1,43,52,123
1,53,47,2
1,57,70,2
1,59,72,1
1,50,55,3
1,59,55,75
1,59,54,19
1,59,46,106
1,56,72,0
1,49,51,1
1,42,48,1
1,52,67,0
1,59,67,0
1,59,44,90
1,51,62,180
1,59,51,14
1,55,49,8
1,48,46,4
1,41,42,0
1,59,55,69
1,59,64,67
1,59,56,113
1,43,47,22
1,36,47,0
1,48,47,6
1,59,54,1
1,52,58,10
1,59,51,244
1,59,42,98
1,59,42,111
1,59,45,83
1,59,49,126
1,59,30,276
1,59,44,86
1,59,39,98
1,59,25,148
1,59,38,187
1,57,43,13
1,48,36,0
1,53,35,6
1,29,30,13
1,41,21,2
1,59,23,106
1,59,39,88
1,59,19,127
1,59,30,156
1,59,19,307
1,59,19,409
1,81,36,776
1,64,30,96
1,82,57,9
1,56,10,10
1,59,24,2
1,53,28,15
1,44,29,2
1,79,25,274
1,80,52,44
1,37,30,29
1,81,36,226
1,67,46,43
1,82,61,19
1,44,37,482
1,44,34,30
1,44,30,92
1,79,40,4
1,80,57,22
1,44,38,104
1,81,44,110
1,82,59,72
1,63,39,29
1,56,37,1
1,59,35,12
1,53,43,0
1,79,34,368
1,80,43,37
1,81,31,52
1,82,51,39
1,44,31,86
1,37,26,225
1,79,31,9
1,80,38,44
1,76,57,436
1,68,30,10
1,71,26,3
1,64,37,5
1,53,26,4
1,56,26,2
1,59,30,5
1,67,54,262
1,79,58,0
1,44,32,23
1,68,50,292
1,72,80,0
1,60,54,4
1,65,55,12
1,37,36,21
1,73,82,119
1,61,69,1
1,44,40,14
1,74,87,181
1,62,69,3
1,71,59,12
1,67,57,0
1,56,36,7
1,59,42,3
1,53,34,15
1,77,94,232
1,68,60,8
1,65,70,2
1,46,69,6
1,73,57,4
1,34,62,1
1,81,53,313
1,82,82,56
1,74,59,5
1,62,36,11
1,71,44,0
1,67,48,12
1,73,45,225
1,61,33,6
1,69,42,4
1,65,24,5
1,79,59,44
1,80,62,17
1,74,60,407
1,71,43,10
1,62,18,8
1,56,23,5
1,67,30,0
1,59,28,2
1,53,23,10
1,73,37,309
1,65,42,2
1,68,33,6
1,77,52,0
1,32,54,6
1,44,33,11
1,81,45,294
1,82,69,38
1,74,37,10
1,62,17,12
1,67,20,1
1,71,19,3
1,73,25,323
1,69,35,12
1,61,22,7
1,65,17,5
1,79,26,67
1,80,40,2
1,50,22,376
1,38,31,4
1,53,33,68
1,41,36,6
1,50,42,242
1,38,30,15
1,35,27,144
1,47,28,2
1,45,36,15
1,33,21,8
1,47,30,100
1,35,23,8
1,43,23,32
1,31,30,10
1,45,39,419
1,33,30,13
1,61,39,83
1,47,28,177
1,35,30,9
1,63,42,25
1,65,49,202
1,45,28,13
1,33,29,16
1,67,52,34
1,65,62,154
1,43,29,22
1,31,32,14
1,63,62,136
1,61,71,147
1,41,38,160
1,59,64,1
1,29,46,6
1,61,63,319
1,43,47,137
1,31,57,3
1,61,79,124
1,41,77,107
1,29,58,8
1,59,75,317
1,61,86,10
1,39,76,6
1,27,73,11
1,63,89,90
1,65,96,52
1,79,83,276
1,37,83,6
1,25,90,4
1,73,85,19
1,80,106,0
1,68,80,4
1,56,95,259
1,49,84,5
1,44,65,7
1,65,74,106
1,77,71,5
1,79,108,10
1,67,96,12
1,79,83,226
1,68,97,17
1,80,106,3
1,73,74,19
1,56,91,278
1,49,84,10
1,44,73,2
1,77,84,19
1,65,83,8
1,79,107,16
1,67,94,0
1,53,60,227
1,58,69,6
1,75,86,15
1,77,113,12
1,65,95,4
1,70,89,4
1,63,95,0
1,44,84,52
1,73,72,265
1,68,91,17
1,75,97,6
1,61,90,4
1,56,81,2
1,75,71,34
1,65,94,44
1,63,96,3
1,77,102,0
1,70,88,1
1,58,95,8
1,53,73,6
1,44,89,15
1,73,64,250
1,61,82,33
1,68,93,2
1,75,98,0
1,56,86,2
1,91,111,336
1,92,96,4
1,91,89,4
1,92,89,8
1,91,88,2
1,92,94,50
1,91,100,56
1,92,95,48
1,91,92,56
1,92,94,4
1,91,87,77
1,92,89,58
1,94,97,61
1,97,92,10
1,94,85,56
1,92,78,49
1,91,85,38
1,89,81,9
1,87,95,21
1,85,61,62
1,84,103,50
1,53,71,26
1,58,87,11
1,82,62,8
1,63,100,8
1,80,69,7
1,79,93,48
1,77,103,179
1,44,84,13
1,79,99,58
1,80,96,67
1,82,103,49
1,84,101,33
1,72,90,9
1,85,92,50
1,73,93,1
1,87,98,38
1,75,82,13
1,77,100,32
1,89,104,2
1,79,103,23
1,91,105,5
1,92,89,27
1,94,103,7
1,97,95,8
1,94,89,53
1,92,87,47
1,91,89,23
1,89,79,10
1,87,92,7
1,85,92,60
1,84,95,7
1,53,86,27
1,82,109,10
1,58,87,27
1,80,101,18
1,63,96,27
1,79,108,36
1,44,98,92
1,77,101,19
1,79,101,2
1,80,97,83
1,82,103,52
1,84,105,29
1,72,97,8
1,73,87,40
1,85,95,10
1,75,84,15
1,87,97,9
1,77,97,4
1,89,105,17
1,91,104,11
1,79,113,4
1,92,88,29
1,94,105,12
1,97,91,12
