track,note,velocity,time
3,1,1,1920
3,54,74,1900
3,57,74,0
3,62,74,0
3,59,74,965
3,57,0,785
3,54,0,25
3,59,0,0
3,55,74,160
3,59,74,0
3,64,74,0
3,59,0,825
3,62,0,130
3,55,0,830
3,64,0,115
3,71,84,34585
3,74,84,5
3,78,84,0
3,74,0,1690
3,78,0,0
3,71,0,20
3,69,84,205
3,73,84,5
3,78,84,0
3,69,0,1630
3,73,0,0
3,78,0,0
3,71,84,285
3,74,84,5
3,78,84,0
3,74,0,1625
3,78,0,15
3,71,0,15
3,69,84,265
3,73,84,0
3,78,84,0
3,69,0,1580
3,73,0,10
3,78,0,25
3,71,84,305
3,74,84,0
3,79,84,0
3,71,0,1745
3,79,0,15
3,74,0,10
3,69,84,145
3,74,84,0
3,78,84,5
3,69,0,1585
3,74,0,15
3,78,0,25
3,73,84,290
3,81,84,0
3,76,84,5
3,73,0,1740
3,76,0,55
3,81,0,0
3,78,84,120
3,74,84,5
3,74,0,1705
3,78,0,10
3,71,84,30925
3,74,84,0
3,78,84,0
3,74,0,1610
3,78,0,25
3,71,0,5
3,69,84,280
3,73,84,0
3,78,84,0
3,73,0,1555
3,69,0,15
3,78,0,0
3,74,84,345
3,78,84,0
3,71,84,5
3,71,0,1745
3,74,0,0
3,78,0,0
3,69,84,175
3,73,84,0
3,78,84,0
3,69,0,1510
3,73,0,15
3,78,0,15
3,71,84,380
3,74,84,0
3,79,84,0
3,74,0,1725
3,71,0,10
3,79,0,15
3,69,84,165
3,78,84,0
3,74,84,5
3,74,0,1585
3,69,0,10
3,78,0,45
3,73,84,275
3,81,84,0
3,76,84,5
3,73,0,1725
3,76,0,60
3,81,0,40
3,74,84,95
3,78,84,0
3,74,0,1045
3,78,0,25
3,69,84,16210
3,74,84,0
3,78,84,0
3,69,0,1520
3,74,0,0
3,78,0,15
3,71,84,385
3,74,84,0
3,79,84,0
3,74,0,750
3,79,0,40
3,71,0,25
3,69,84,140
3,73,84,0
3,76,84,0
3,73,0,685
3,69,0,110
3,76,0,0
3,69,84,170
3,74,84,0
3,78,84,0
3,69,0,1135
3,78,0,0
3,74,0,55
3,71,84,730
3,74,84,0
3,79,84,0
3,74,0,645
3,79,0,15
3,71,0,15
3,69,84,285
3,73,84,0
3,76,84,0
3,73,0,615
3,69,0,45
3,76,0,0
3,69,84,300
3,74,84,0
3,78,84,0
3,69,0,1515
3,74,0,0
3,78,0,0
3,71,84,405
3,74,84,0
3,79,84,0
3,74,0,630
3,79,0,0
3,71,0,15
3,69,84,310
3,73,84,0
3,76,84,0
3,76,0,735
3,69,0,15
3,73,0,0
3,74,84,210
3,79,84,0
3,71,84,5
3,71,0,780
3,70,84,175
3,79,0,795
3,74,0,10
3,70,0,25
3,74,84,130
3,69,84,5
3,78,84,0
3,69,0,1640
3,74,0,25
3,78,0,0
4,1,1,1920
4,62,93,1920
4,62,0,65
4,62,90,55
4,62,0,70
4,62,82,50
4,62,0,70
4,62,88,50
4,62,0,85
4,59,100,35
4,59,0,200
4,57,97,40
4,57,0,145
4,59,102,215
4,59,0,70
4,59,83,50
4,59,0,70
4,59,85,50
4,59,0,90
4,57,100,30
4,57,0,120
4,59,97,0
4,59,0,90
4,62,92,35
4,62,0,215
4,61,64,950
4,57,64,15
4,57,0,910
4,61,0,0
4,54,64,60
4,57,64,0
4,62,64,0
4,59,64,940
4,57,0,805
4,54,0,15
4,59,0,15
4,55,64,155
4,59,64,0
4,64,64,0
4,59,0,825
4,61,64,100
4,62,0,5
4,57,64,15
4,55,0,815
4,57,0,65
4,61,0,25
4,64,0,0
4,54,64,65
4,57,64,0
4,62,64,0
4,59,64,945
4,57,0,730
4,59,0,15
4,54,0,60
4,55,64,160
4,59,64,0
4,64,64,0
4,59,0,810
4,61,64,140
4,57,64,15
4,62,0,5
4,55,0,825
4,57,0,65
4,61,0,20
4,64,0,25
4,54,64,35
4,57,64,0
4,62,64,0
4,59,64,945
4,54,0,805
4,57,0,0
4,59,0,15
4,55,64,135
4,59,64,20
4,64,64,0
4,59,0,790
4,57,64,130
4,61,64,0
4,62,0,5
4,55,0,825
4,57,0,75
4,64,0,40
4,61,0,15
4,54,64,20
4,62,64,0
4,57,64,25
4,59,64,925
4,54,0,820
4,57,0,0
4,59,0,0
4,55,64,160
4,59,64,0
4,64,64,0
4,59,0,810
4,62,0,110
4,57,64,20
4,61,64,0
4,57,0,815
4,55,0,100
4,61,0,20
4,55,64,30
4,59,64,5
4,62,64,0
4,64,0,30
4,59,0,815
4,58,64,110
4,55,0,830
4,54,64,120
4,57,64,15
4,58,0,25
4,57,0,1785
4,62,0,0
4,57,64,80
4,62,64,15
4,66,64,0
4,54,0,35
4,57,0,1780
4,66,0,85
4,62,0,10
4,59,64,10
4,64,64,20
4,67,64,0
4,59,0,1765
4,67,0,75
4,61,64,50
4,55,64,15
4,57,64,0
4,55,0,1820
4,57,0,0
4,61,0,35
4,54,64,70
4,57,64,0
4,66,64,0
4,62,64,30
4,64,0,5
4,54,0,1885
4,57,0,1815
4,62,0,75
4,66,0,10
4,59,64,30
4,64,64,0
4,67,64,0
4,59,0,1810
4,67,0,90
4,55,64,10
4,57,64,0
4,61,64,0
4,64,0,1750
4,61,0,25
4,54,64,155
4,62,64,0
4,66,64,0
4,55,0,35
4,57,0,1700
4,62,0,55
4,66,0,0
4,59,64,115
4,62,64,0
4,66,64,0
4,54,0,30
4,62,0,1780
4,59,0,25
4,57,64,110
4,61,64,0
4,57,0,1765
4,61,0,0
4,59,64,145
4,62,64,0
4,59,0,1800
4,62,0,0
4,66,0,25
4,57,64,90
4,61,64,0
4,66,64,0
4,57,0,1755
4,61,0,10
4,66,0,125
4,59,64,10
4,67,64,0
4,62,64,20
4,59,0,1805
4,62,0,65
4,67,0,10
4,57,64,30
4,66,64,0
4,62,64,25
4,62,0,1770
4,57,0,35
4,66,0,65
4,64,64,20
4,57,64,15
4,61,64,0
4,61,0,1870
4,54,64,70
4,62,64,0
4,64,0,40
4,54,0,1760
4,57,0,0
4,62,0,25
4,54,64,75
4,57,64,15
4,62,64,0
4,59,64,945
4,57,0,745
4,54,0,15
4,59,0,15
4,55,64,165
4,64,64,0
4,59,64,20
4,59,0,795
4,62,0,75
4,57,64,70
4,61,64,0
4,55,0,850
4,61,0,45
4,57,0,10
4,64,0,0
4,54,64,65
4,62,64,0
4,57,64,25
4,59,64,930
4,57,0,755
4,54,0,15
4,59,0,35
4,55,64,155
4,64,64,0
4,59,64,5
4,59,0,805
4,61,64,145
4,57,64,15
4,62,0,5
4,55,0,805
4,57,0,85
4,64,0,0
4,61,0,15
4,54,64,50
4,62,64,0
4,57,64,25
4,59,64,940
4,57,0,705
4,54,0,35
4,59,0,5
4,55,64,215
4,59,64,0
4,64,64,0
4,59,0,815
4,61,64,135
4,57,64,15
4,62,0,20
4,57,0,825
4,55,0,25
4,61,0,65
4,55,64,35
4,59,64,0
4,62,64,0
4,64,0,30
4,59,0,805
4,58,64,115
4,55,0,810
4,58,0,155
4,54,64,10
4,57,64,0
4,57,0,1670
4,54,0,25
4,62,0,25
4,57,64,195
4,62,64,0
4,66,64,0
4,57,0,1755
4,62,0,80
4,66,0,25
4,59,64,40
4,64,64,0
4,67,64,0
4,59,0,1830
4,67,0,75
4,57,64,15
4,61,64,0
4,57,0,1270
4,55,64,120
4,57,64,0
4,55,0,480
4,57,0,10
4,61,0,25
4,66,64,25
4,54,64,15
4,57,64,0
4,62,64,0
4,64,0,35
4,54,0,1815
4,57,0,1860
4,66,0,80
4,55,64,20
4,64,64,0
4,59,64,25
4,59,0,1755
4,62,0,115
4,57,64,40
4,61,64,0
4,57,0,1790
4,61,0,10
4,64,0,45
4,57,64,80
4,54,64,5
4,62,64,0
4,66,64,0
4,55,0,5
4,57,0,1765
4,59,64,115
4,62,0,1835
4,59,0,10
4,57,64,100
4,61,64,0
4,57,0,1815
4,61,0,35
4,59,64,70
4,62,64,0
4,59,0,1800
4,62,0,0
4,57,64,100
4,61,64,0
4,57,0,1815
4,61,0,30
4,54,0,100
4,66,0,0
4,55,64,10
4,59,64,0
4,62,64,0
4,67,64,0
4,59,0,1790
4,66,64,130
4,67,0,5
4,54,64,15
4,57,64,0
4,55,0,5
4,62,0,1725
4,57,0,55
4,66,0,55
4,54,0,10
4,52,64,30
4,61,64,0
4,64,64,0
4,57,64,30
4,57,0,1785
4,61,0,90
4,52,0,35
4,54,64,10
4,57,64,0
4,62,64,0
4,64,0,50
4,59,64,2790
4,57,0,780
4,54,0,10
4,59,0,25
4,64,64,135
4,55,64,15
4,59,64,20
4,59,0,825
4,61,64,105
4,62,0,5
4,57,64,15
4,55,0,825
4,57,0,45
4,61,0,25
4,64,0,30
4,62,64,15
4,54,64,15
4,57,64,0
4,59,64,930
4,54,0,790
4,59,0,10
4,57,0,5
4,55,64,175
4,64,64,0
4,59,64,25
4,59,0,815
4,62,0,105
4,61,64,10
4,57,64,15
4,55,0,835
4,57,0,50
4,61,0,25
4,64,0,10
4,54,64,45
4,57,64,0
4,62,64,0
4,59,64,940
4,57,0,745
4,54,0,25
4,59,0,35
4,55,64,155
4,59,64,0
4,64,64,20
4,59,0,760
4,62,0,180
4,57,64,5
4,61,64,0
4,55,0,850
4,57,0,25
4,61,0,75
4,62,64,0
4,55,64,15
4,59,64,0
4,64,0,30
4,59,0,805
4,58,64,120
4,55,0,850
4,58,0,110
4,54,64,15
4,57,64,0
4,59,64,2885
4,57,0,745
4,54,0,15
4,59,0,20
4,55,64,165
4,64,64,0
4,59,64,25
4,59,0,775
4,62,0,125
4,57,64,30
4,61,64,15
4,55,0,810
4,57,0,60
4,61,0,45
4,64,0,0
4,62,64,30
4,54,64,15
4,57,64,0
4,59,64,965
4,57,0,740
4,54,0,45
4,59,0,10
4,64,64,125
4,55,64,15
4,59,64,20
4,59,0,775
4,62,0,65
4,57,64,100
4,61,64,0
4,55,0,785
4,57,0,80
4,61,0,25
4,64,0,45
4,54,64,30
4,57,64,0
4,62,64,0
4,59,64,975
4,57,0,695
4,59,0,45
4,54,0,65
4,64,64,130
4,55,64,15
4,59,64,25
4,59,0,775
4,62,0,130
4,61,64,40
4,57,64,15
4,57,0,805
4,61,0,80
4,55,0,20
4,55,64,40
4,59,64,20
4,62,64,0
4,64,0,25
4,58,64,935
4,59,0,20
4,55,0,830
4,58,0,95
4,54,64,10
4,57,64,0
4,59,64,2840
4,54,0,825
4,57,0,10
4,59,0,35
4,55,64,110
4,64,64,0
4,59,64,25
4,59,0,815
4,61,64,105
4,57,64,5
4,62,0,0
4,55,0,860
4,57,0,40
4,61,0,15
4,64,0,0
4,62,64,40
4,54,64,20
4,57,64,0
4,59,64,950
4,54,0,790
4,57,0,15
4,59,0,105
4,64,64,35
4,55,64,20
4,59,64,0
4,59,0,805
4,61,64,135
4,62,0,5
4,57,64,10
4,55,0,805
4,57,0,95
4,61,0,15
4,62,64,40
4,54,64,15
4,57,64,0
4,64,0,30
4,59,64,945
4,57,0,730
4,54,0,40
4,59,0,0
4,64,64,140
4,55,64,15
4,59,64,0
4,55,0,50
4,55,64,0
4,59,0,0
4,59,64,0
4,62,0,0
4,62,64,0
4,64,0,0
4,64,64,0
4,55,0,50
4,59,0,0
4,62,0,10
4,64,0,0
4,59,64,55
4,62,64,0
4,64,64,0
4,55,64,5
4,59,0,600
4,62,0,145
4,55,0,10
4,64,0,15
4,57,64,35
4,55,64,15
4,61,64,0
4,64,64,0
4,60,64,30
4,61,0,5
4,60,0,55
4,57,0,45
4,57,64,20
4,61,64,15
4,55,0,640
4,57,0,50
4,64,0,35
4,61,0,10
4,55,64,45
4,59,64,0
4,62,64,0
4,62,0,75
4,58,64,900
4,59,0,20
4,55,0,805
4,58,0,95
4,54,64,30
4,62,64,0
4,57,64,5
4,59,64,2850
4,54,0,815
4,57,0,15
4,62,0,45
4,59,0,30
4,62,64,65
4,55,64,10
4,64,64,5
4,59,64,5
4,59,0,825
4,57,64,115
4,61,64,0
4,62,0,30
4,55,0,795
4,57,0,55
4,61,0,20
4,64,0,5
4,54,64,70
4,57,64,0
4,62,64,0
4,59,64,935
4,54,0,815
4,57,0,25
4,59,0,30
4,64,64,110
4,55,64,20
4,59,64,0
4,59,0,795
4,57,64,125
4,61,64,0
4,62,0,35
4,57,0,770
4,55,0,20
4,64,0,55
4,61,0,25
4,54,64,60
4,57,64,0
4,62,64,0
4,59,64,970
4,54,0,800
4,57,0,0
4,59,0,45
4,64,64,110
4,55,64,5
4,59,64,0
4,59,0,810
4,57,64,160
4,61,64,0
4,62,0,25
4,57,0,805
4,55,0,25
4,61,0,75
4,55,64,35
4,59,64,0
4,62,64,0
4,64,0,30
4,59,0,830
4,58,64,90
4,55,0,860
4,58,0,95
4,54,64,20
4,57,64,0
4,66,64,1890
4,66,0,970
4,54,0,15
4,57,0,0
4,62,0,0
5,57,76,2170
5,62,74,0
5,66,75,0
5,62,0,115
5,66,0,0
5,57,0,15
5,57,81,355
5,62,76,0
5,66,77,0
5,62,0,105
5,57,0,10
5,66,0,0
5,57,64,360
5,62,73,0
5,66,72,0
5,59,67,5
5,59,0,90
5,62,0,0
5,66,0,0
5,57,0,15
5,57,71,370
5,62,86,0
5,66,77,0
5,59,74,5
5,57,0,100
5,59,0,0
5,62,0,0
5,66,0,15
5,64,90,110
5,64,0,75
5,64,87,45
5,64,0,75
5,64,86,45
5,64,0,75
5,64,88,45
5,64,0,75
5,62,93,45
5,62,0,225
5,59,97,20
5,59,0,135
5,57,86,220
5,57,0,85
5,57,86,35
5,57,0,70
5,57,83,50
5,54,109,120
5,57,0,5
5,54,0,225
5,57,93,15
5,57,0,235
5,62,87,0
5,62,0,70
5,62,83,50
5,62,0,65
5,62,100,55
5,62,0,70
5,62,86,50
5,62,0,75
5,59,105,45
5,59,0,220
5,57,90,20
5,57,0,125
5,59,85,235
5,59,0,75
5,59,88,45
5,59,0,65
5,59,87,55
5,57,97,120
5,59,0,0
5,57,0,115
5,59,95,10
5,62,100,115
5,59,0,5
5,62,0,225
5,64,88,10
5,64,0,70
5,64,88,50
5,64,0,60
5,64,97,60
5,64,0,60
5,64,95,60
5,64,0,65
5,62,95,55
5,62,0,210
5,59,95,35
5,59,0,165
5,57,92,190
5,57,0,75
5,57,93,45
5,57,0,65
5,57,90,55
5,57,0,65
5,54,101,60
5,54,0,125
5,57,92,110
5,57,0,210
5,62,84,35
5,62,0,75
5,62,88,40
5,62,0,65
5,62,86,55
5,62,0,60
5,62,87,60
5,62,0,70
5,59,102,55
5,59,0,220
5,57,97,15
5,57,0,130
5,59,90,230
5,59,0,75
5,59,85,45
5,59,0,65
5,59,88,55
5,59,0,95
5,57,93,30
5,57,0,80
5,59,97,35
5,59,0,110
5,62,93,10
5,62,0,230
5,64,83,10
5,64,0,70
5,64,95,50
5,64,0,70
5,64,95,50
5,64,0,70
5,64,97,55
5,64,0,65
5,62,93,55
5,62,0,175
5,59,102,60
5,59,0,150
5,57,100,210
5,57,0,65
5,57,95,55
5,57,0,70
5,57,90,55
5,57,0,115
5,54,96,5
5,54,0,225
5,57,90,10
5,57,0,230
5,62,84,10
5,62,0,70
5,62,88,50
5,62,0,55
5,62,95,65
5,62,0,70
5,62,85,55
5,62,0,65
5,59,105,50
5,59,0,230
5,57,93,10
5,57,0,150
5,59,100,210
5,59,0,70
5,59,86,55
5,59,0,60
5,59,92,60
5,59,0,80
5,57,95,35
5,57,0,85
5,59,93,35
5,59,0,105
5,62,93,15
5,62,0,215
5,64,87,25
5,64,0,75
5,64,90,45
5,64,0,70
5,64,93,55
5,64,0,65
5,64,86,55
5,64,0,65
5,62,95,50
5,62,0,225
5,59,95,15
5,59,0,145
5,57,95,215
5,57,0,55
5,57,97,70
5,57,0,55
5,57,87,60
5,57,0,115
5,54,119,5
5,57,95,240
5,54,0,10
5,57,0,230
5,62,88,0
5,62,0,60
5,62,95,60
5,62,0,55
5,62,97,70
5,62,0,55
5,62,88,60
5,62,0,60
5,59,109,60
5,59,0,230
5,57,92,10
5,57,0,195
