track,note,velocity,time
1,62,127,9812
1,62,127,68
1,64,127,12
1,67,127,8
1,69,127,40
1,67,127,16
1,62,127,16
1,71,127,4
1,71,127,64
1,71,127,48
1,69,127,32
1,67,127,384
1,64,127,164
1,67,127,372
1,64,127,8
1,71,127,28
1,71,127,84
1,69,127,56
1,62,127,1024
1,62,127,56
1,64,127,176
1,67,127,12
1,69,127,20
1,67,127,48
1,64,127,188
1,71,127,4
1,71,127,56
1,71,127,60
1,69,127,40
1,67,127,16
1,64,127,196
1,67,127,12
1,64,127,384
1,71,127,456
1,71,127,36
1,69,127,40
1,71,127,624
1,69,127,64
1,71,127,0
1,69,127,16
1,67,127,0
1,71,127,0
1,69,127,8
1,69,127,40
1,67,127,200
1,71,127,412
1,71,127,52
1,69,127,32
1,67,127,8
1,69,114,364
1,69,127,84
1,71,127,8
1,69,127,12
1,67,127,196
1,69,127,364
1,67,127,364
1,71,127,220
1,71,127,60
1,71,127,56
1,69,127,32
1,67,127,0
1,69,127,92
1,71,127,32
1,69,127,76
1,67,127,192
1,64,127,188
1,67,127,180
1,69,127,40
1,71,127,64
1,69,127,56
1,69,127,52
1,67,127,576
1,71,127,208
1,72,127,72
1,69,127,16
1,69,127,312
1,71,127,112
1,69,127,96
1,71,127,80
1,67,127,16
1,69,127,148
1,71,127,8
1,69,127,12
1,62,127,148
1,69,127,40
1,69,127,88
1,67,127,196
1,69,127,72
1,71,127,32
1,69,127,84
1,67,127,380
1,67,127,88
1,64,127,176
1,67,127,20
1,64,127,400
1,67,127,12
1,71,127,108
1,71,127,64
1,69,127,60
1,69,127,88
1,71,127,96
1,69,127,92
1,71,127,72
1,67,127,96
1,69,127,324
1,71,127,20
1,62,127,160
1,69,127,48
1,69,127,80
1,67,127,8
1,69,127,80
1,71,127,4
1,69,127,68
1,67,127,8
1,64,127,192
1,67,127,12
1,64,127,392
1,67,127,12
1,71,127,72
1,71,127,76
1,69,127,68
1,62,127,1060
1,64,127,24
1,67,127,32
1,69,127,60
1,71,127,8
1,67,127,16
1,62,127,0
1,64,127,200
1,67,127,12
1,71,127,208
1,69,127,48
1,67,127,4
1,64,127,200
1,71,127,248
1,71,127,48
1,69,127,52
1,62,127,1052
1,64,127,28
1,67,127,36
1,69,127,60
1,67,127,52
1,62,127,8
1,66,127,12
1,71,127,372
1,71,127,56
1,71,127,36
1,69,127,180
1,67,127,204
1,69,127,372
1,71,127,372
1,64,127,568
1,67,127,4
1,71,127,64
1,69,127,68
1,71,127,348
1,71,127,40
1,69,127,32
1,67,127,12
1,64,127,4
1,67,127,160
1,69,127,204
1,71,127,168
1,69,127,180
1,67,127,168
1,71,127,32
1,71,127,148
1,69,127,16
1,69,127,44
1,67,127,0
1,69,127,216
1,64,127,152
1,69,127,92
1,71,127,380
1,69,127,32
1,67,127,4
1,64,127,172
1,67,127,212
1,69,127,12
1,71,127,200
1,69,127,8
1,69,127,64
1,67,127,192
1,69,127,28
1,67,121,0
1,67,127,364
1,71,127,168
1,69,127,164
1,67,127,172
1,69,127,188
1,71,127,4
1,64,127,164
1,67,127,40
1,64,127,196
1,67,127,40
1,64,127,184
1,67,127,12
1,64,127,0
1,67,127,40
1,69,127,24
1,71,127,272
1,72,127,68
1,69,127,4
1,69,127,116
1,71,127,88
1,69,127,88
1,71,127,92
1,67,127,4
1,69,127,360
1,71,127,180
1,62,127,8
1,69,127,20
1,69,127,100
1,67,127,0
1,69,127,64
1,71,127,192
1,69,127,44
1,67,127,8
1,67,127,76
1,64,127,8
1,67,127,16
1,64,127,0
1,67,127,32
1,69,127,244
1,71,127,28
1,71,127,72
1,69,127,16
1,67,127,268
1,69,127,224
1,71,127,184
1,62,127,8
1,69,127,28
1,69,127,84
1,67,127,0
1,69,127,76
1,71,127,24
1,69,127,80
1,67,127,16
1,64,127,8
1,67,127,68
1,64,127,392
1,67,127,12
1,71,127,180
1,71,127,48
1,71,127,72
1,69,127,76
1,67,127,6508
1,69,127,80
1,71,127,184
1,62,127,392
1,69,127,8
1,69,127,72
1,67,127,196
1,69,127,32
1,71,127,200
1,69,127,28
1,67,127,388
1,67,127,80
1,64,127,180
1,67,127,24
1,67,127,60
1,64,127,4
1,67,127,80
1,69,127,76
1,71,127,68
1,69,127,60
1,67,127,476
1,69,127,288
1,71,127,12
1,62,127,4
1,69,127,12
1,69,127,88
1,67,127,188
1,69,127,80
1,71,127,36
1,69,127,80
1,67,127,8
1,67,127,120
1,64,127,4
1,67,127,8
1,67,127,92
1,64,127,4
1,67,127,12
1,71,127,196
1,71,127,68
1,69,127,60
1,67,127,328
1,69,127,84
1,71,127,0
1,62,127,8
1,69,127,36
1,69,127,92
1,67,127,184
1,69,127,64
1,71,127,36
1,69,127,72
1,67,127,4
1,67,127,112
1,64,127,0
1,67,127,200
1,64,127,356
1,67,127,12
1,71,127,280
1,71,127,232
1,69,127,64
1,62,127,4
1,67,127,20
1,69,127,68
1,71,127,32
1,62,127,372
1,69,127,12
1,69,127,80
1,67,127,192
1,69,127,76
1,71,127,196
1,69,127,188
1,67,127,372
1,67,127,80
1,64,127,0
1,67,127,8
1,67,127,148
1,64,127,188
1,67,127,188
1,71,127,368
1,71,127,52
1,69,127,20
2,31,127,3076
2,31,127,100
2,31,127,40
2,31,127,44
2,31,127,92
2,31,127,28
2,30,127,8
2,30,127,72
2,30,127,44
2,30,127,44
2,30,127,80
2,30,127,56
2,28,127,32
2,28,127,80
2,28,127,44
2,28,127,48
2,28,127,84
2,28,127,44
2,26,127,44
2,26,127,80
2,26,127,36
2,26,127,52
2,26,127,92
2,26,127,36
2,24,127,48
2,24,127,80
2,24,127,48
2,24,127,48
2,24,127,88
2,24,127,44
2,24,127,48
2,24,127,96
2,24,127,44
2,24,127,48
2,24,127,80
2,24,127,44
2,26,127,40
2,26,127,80
2,26,127,44
2,26,127,40
2,26,127,96
2,26,127,44
2,26,127,52
2,26,127,88
2,26,127,44
2,26,127,44
2,26,127,88
2,26,127,32
2,31,127,116
2,31,127,36
2,31,127,36
2,31,127,32
2,31,127,36
2,31,127,104
2,30,127,12
2,30,127,28
2,30,127,36
2,30,127,108
2,30,127,40
2,28,127,284
2,28,127,40
2,28,127,40
2,28,127,52
2,28,127,20
2,28,127,116
2,26,127,48
2,26,127,36
2,26,127,36
2,35,127,100
2,35,127,28
2,31,127,192
2,36,127,24
2,36,127,32
2,36,127,40
2,36,127,32
2,31,127,108
2,36,127,24
2,36,127,28
2,36,127,40
2,36,127,100
2,36,127,28
2,33,127,276
2,38,127,24
2,38,127,40
2,38,127,40
2,38,127,40
2,33,127,116
2,38,127,24
2,38,127,40
2,38,127,36
2,38,127,72
2,38,127,92
2,38,127,32
2,31,127,112
2,31,127,44
2,31,127,36
2,31,127,52
2,31,127,36
2,31,127,100
2,30,127,20
2,30,127,40
2,30,127,32
2,30,127,116
2,30,127,72
2,30,127,24
2,28,127,116
2,28,127,36
2,28,127,32
2,28,127,48
2,28,127,32
2,28,127,112
2,26,127,44
2,26,127,36
2,26,127,44
2,26,127,124
2,26,127,44
2,31,127,304
2,36,127,28
2,36,127,44
2,36,127,48
2,36,127,40
2,31,127,104
2,36,127,24
2,36,127,36
2,36,127,40
2,36,127,100
2,36,127,32
2,33,127,284
2,38,127,24
2,38,127,40
2,38,127,40
2,38,127,32
2,33,127,112
2,38,127,24
2,38,127,40
2,38,127,40
2,38,127,96
2,38,127,24
2,30,127,116
2,30,127,100
2,35,127,4
2,35,127,24
2,35,127,32
2,35,127,32
2,30,127,104
2,35,127,24
2,35,127,40
2,35,127,28
2,35,127,108
2,35,127,20
2,35,127,296
2,40,127,28
2,40,127,32
2,40,127,40
2,40,127,36
2,35,127,116
2,40,127,24
2,40,127,32
2,40,127,32
2,40,127,100
2,40,127,32
2,26,127,300
2,31,127,4
2,31,127,40
2,31,127,44
2,31,127,40
2,31,127,116
2,31,127,32
2,31,127,32
2,31,127,32
2,31,127,92
2,31,127,24
2,31,127,108
2,31,127,92
2,36,127,32
2,36,127,44
2,36,127,44
2,36,127,36
2,31,127,112
2,36,127,32
2,36,127,40
2,36,127,32
2,36,127,104
2,36,127,32
2,28,127,304
2,33,127,16
2,33,127,40
2,33,127,32
2,33,127,32
2,28,127,112
2,33,127,32
2,33,127,32
2,33,127,44
2,33,127,104
2,33,127,40
2,28,127,304
2,33,127,12
2,33,127,40
2,33,127,44
2,33,127,36
2,33,127,108
2,33,127,52
2,33,127,36
2,33,127,36
2,33,127,112
2,33,127,36
2,33,127,108
2,33,127,20
2,33,127,76
2,33,127,80
2,33,127,64
2,33,127,72
2,33,127,72
2,33,127,68
2,33,127,72
2,38,127,76
2,38,127,76
2,38,127,76
2,38,127,60
2,38,127,68
2,38,127,68
2,38,127,64
2,38,127,64
2,38,127,60
2,38,127,64
2,38,127,60
2,38,127,56
2,31,127,168
2,31,127,36
2,31,127,40
2,31,127,40
2,31,127,28
2,31,127,104
2,30,127,4
2,30,127,36
2,30,127,20
2,30,127,80
2,30,127,20
2,30,127,92
2,28,127,116
2,28,127,32
2,28,127,32
2,28,127,40
2,28,127,36
2,28,127,108
2,28,127,136
2,28,127,40
2,28,127,100
2,28,127,28
2,28,127,104
2,29,127,104
2,29,127,44
2,29,127,36
2,29,127,40
2,29,127,20
2,29,127,112
2,36,127,20
2,36,127,24
2,36,127,40
2,36,127,92
2,36,127,32
2,36,127,52
2,33,127,108
2,38,127,24
2,38,127,40
2,38,127,40
2,38,127,36
2,33,127,112
2,38,127,24
2,38,127,32
2,38,127,36
2,38,127,92
2,38,127,24
2,38,127,92
2,31,127,112
2,31,127,40
2,31,127,40
2,31,127,44
2,31,127,28
2,31,127,116
2,30,127,20
2,30,127,32
2,30,127,32
2,30,127,88
2,30,127,24
2,30,127,32
2,28,127,184
2,28,127,32
2,28,127,40
2,28,127,44
2,28,127,36
2,28,127,92
2,28,127,104
2,28,127,36
2,28,127,80
2,35,127,4
2,28,127,96
2,29,127,132
2,29,127,40
2,29,127,40
2,29,127,40
2,29,127,28
2,29,127,100
2,36,127,12
2,36,127,36
2,36,127,40
2,36,127,104
2,36,127,32
2,36,127,88
2,38,127,108
2,38,127,48
2,38,127,32
2,38,127,44
2,38,127,40
2,33,127,112
2,38,127,20
2,38,127,36
2,38,127,48
2,38,127,112
2,38,127,32
2,38,127,100
2,31,127,112
2,31,127,44
2,31,127,36
2,31,127,44
2,31,127,36
2,31,127,124
2,30,127,32
2,30,127,128
2,30,127,20
2,30,127,40
2,30,127,28
2,30,127,104
2,28,127,104
2,28,127,40
2,28,127,32
2,28,127,48
2,28,127,24
2,28,127,108
2,35,127,24
2,35,127,40
2,35,127,40
2,26,127,88
2,35,127,4
2,35,127,104
2,36,127,100
2,36,127,40
2,36,127,44
2,36,127,48
2,36,127,48
2,31,127,108
2,36,127,16
2,36,127,40
2,36,127,40
2,36,127,108
2,36,127,24
2,33,127,304
2,38,127,8
2,38,127,32
2,38,127,44
2,38,127,36
2,33,127,112
2,38,127,24
2,38,127,32
2,38,127,40
2,38,127,104
2,38,127,32
2,38,127,92
2,31,127,120
2,31,127,40
2,31,127,36
2,31,127,48
2,31,127,36
2,38,127,108
2,30,127,96
2,30,127,32
2,30,127,40
2,30,127,92
2,30,127,24
2,30,127,104
2,28,127,108
2,28,127,32
2,28,127,44
2,28,127,52
2,28,127,40
2,28,127,104
2,26,127,36
2,26,127,28
2,35,127,24
2,35,127,100
2,35,127,24
2,35,127,76
2,31,127,108
2,36,127,20
2,36,127,32
2,36,127,36
2,36,127,32
2,31,127,92
2,36,127,24
2,36,127,40
2,36,127,44
2,36,127,100
2,36,127,32
2,36,127,104
2,33,127,108
2,38,127,28
2,38,127,40
2,38,127,40
2,38,127,28
2,33,127,108
2,38,127,32
2,38,127,36
2,38,127,36
2,38,127,92
2,38,127,40
2,30,127,288
2,35,127,96
2,35,127,24
2,35,127,24
2,35,127,20
2,30,127,88
2,35,127,12
2,35,127,20
2,35,127,24
2,35,127,96
2,35,127,64
2,35,127,28
2,28,127,124
2,28,127,32
2,28,127,40
2,40,127,32
2,40,127,32
2,35,127,104
2,40,127,24
2,40,127,32
2,40,127,36
2,35,127,100
2,40,127,0
2,40,127,96
2,26,127,88
2,31,127,12
2,31,127,40
2,31,127,44
2,31,127,44
2,26,127,108
2,31,127,96
2,31,127,40
2,31,127,40
2,31,127,112
2,26,127,16
2,31,127,104
2,31,127,108
2,36,127,8
2,36,127,16
2,36,127,24
2,36,127,24
2,31,127,104
2,36,127,12
2,36,127,16
2,36,127,24
2,36,127,88
2,36,127,76
2,28,127,164
2,33,127,32
2,33,127,28
2,33,127,32
2,33,127,32
2,28,127,104
2,33,127,96
2,33,127,28
2,33,127,32
2,33,127,100
2,33,127,380
2,33,127,48
2,33,127,36
2,33,127,40
2,33,127,32
2,28,127,104
2,33,127,96
2,33,127,44
2,33,127,40
2,33,127,104
2,33,127,88
2,33,127,96
2,33,127,80
2,33,127,80
2,33,127,80
2,33,127,80
2,33,127,80
2,33,127,92
2,33,127,100
2,38,127,84
2,38,127,104
2,38,127,96
2,38,127,92
2,38,127,88
2,38,127,84
2,38,127,84
2,38,127,84
2,38,127,96
2,38,127,92
2,38,127,100
2,38,127,100
2,31,127,160
2,31,127,32
2,31,127,28
2,31,127,36
2,31,127,32
2,31,127,100
2,30,127,96
2,30,127,32
2,30,127,32
2,30,127,84
2,30,127,100
2,30,127,24
2,28,127,108
2,28,127,40
2,28,127,36
2,28,127,36
2,28,127,28
2,28,127,108
2,28,127,36
2,28,127,36
2,28,127,36
2,28,127,100
2,28,127,184
2,29,127,108
2,29,127,28
2,29,127,40
2,29,127,32
2,29,127,32
2,24,127,108
2,36,127,40
2,36,127,44
2,36,127,40
2,36,127,104
2,36,127,80
2,33,127,164
2,38,127,20
2,38,127,32
2,38,127,40
2,38,127,40
2,33,127,128
2,38,127,12
2,38,127,32
2,38,127,40
2,38,127,32
2,38,127,108
2,38,127,24
2,31,127,192
2,31,127,32
2,31,127,36
2,31,127,40
2,31,127,28
2,31,127,108
2,30,127,16
2,30,127,40
2,30,127,40
2,30,127,96
2,30,127,100
2,30,127,32
2,28,127,96
2,28,127,32
2,28,127,28
2,28,127,44
2,28,127,36
2,35,127,80
2,40,127,24
2,40,127,40
2,40,127,40
2,40,127,100
2,28,127,80
2,34,127,0
2,28,127,20
2,29,127,92
2,29,127,44
2,29,127,44
2,29,127,44
2,29,127,36
2,29,127,108
2,36,127,16
2,36,127,32
2,36,127,40
2,36,127,104
2,36,127,40
2,36,127,40
2,33,127,112
2,38,127,20
2,38,127,48
2,38,127,52
2,38,127,36
2,33,127,108
2,38,127,20
2,38,127,36
2,38,127,40
2,38,127,96
2,38,127,32
2,31,127,292
2,31,127,32
2,31,127,88
2,31,127,20
2,38,127,84
2,30,127,4
2,30,127,28
2,30,127,32
2,30,127,92
2,30,127,76
2,30,127,28
2,29,127,104
2,29,127,32
2,29,127,28
2,29,127,32
2,29,127,32
2,29,127,104
2,28,127,8
2,28,127,40
2,28,127,40
2,28,127,100
2,28,127,96
2,28,127,24
2,33,127,108
2,33,127,32
2,33,127,32
2,33,127,44
2,33,127,36
2,33,127,96
2,33,127,36
2,33,127,88
2,33,127,80
2,33,127,92
2,33,127,92
2,33,127,92
2,33,127,92
2,33,127,96
2,33,127,88
2,33,127,92
2,33,127,96
2,33,127,100
2,31,127,180
2,31,127,40
2,31,127,32
2,31,127,48
2,31,127,32
2,31,127,104
2,30,127,4
2,30,127,32
2,30,127,28
2,30,127,84
2,30,127,80
2,30,127,24
2,28,127,120
2,28,127,32
2,28,127,28
2,28,127,36
2,28,127,36
2,28,127,108
2,28,127,24
2,28,127,32
2,28,127,36
2,28,127,80
2,28,127,172
2,29,127,96
2,29,127,32
2,29,127,40
2,29,127,36
2,29,127,28
2,29,127,100
2,36,127,12
2,36,127,40
2,36,127,36
2,36,127,84
2,31,127,136
2,33,127,92
2,38,127,12
