track,note,velocity,time
1,57,127,49168
1,57,127,56
1,57,127,124
1,57,127,100
1,62,127,68
1,62,127,80
1,57,127,20
1,57,127,120
1,60,127,140
1,60,127,144
1,57,127,16
1,60,127,28
1,60,127,124
1,57,127,388
1,60,127,724
1,60,127,124
1,58,127,84
1,58,127,152
1,58,127,1328
1,58,127,88
1,60,127,120
1,58,127,60
1,57,127,840
1,60,127,196
1,60,127,196
1,62,127,60
1,62,127,84
1,62,127,608
1,62,127,104
1,62,127,72
1,64,127,60
1,62,127,60
1,62,127,60
1,61,127,712
1,61,127,104
1,60,127,112
1,60,127,1432
1,60,127,60
1,57,127,1132
1,57,127,76
1,62,127,112
1,57,127,8
1,55,127,740
1,57,127,20
1,60,127,140
1,60,127,144
1,60,89,68
1,57,127,20
1,60,127,4
1,60,127,80
1,62,127,68
1,60,123,164
1,58,127,4
1,62,127,120
1,62,127,396
1,62,127,76
1,58,127,340
1,58,127,124
1,60,127,60
1,58,127,372
1,57,112,16
1,60,127,128
1,57,127,380
1,60,127,32
1,57,127,184
1,64,127,60
1,62,127,56
1,62,127,112
1,62,127,104
1,62,127,88
1,60,127,80
1,55,127,264
1,57,127,60
1,57,127,5712
1,57,127,60
1,60,127,68
1,60,127,68
1,57,127,964
1,62,127,48
1,57,127,4
1,57,127,144
1,55,127,276
1,57,127,184
1,60,127,60
1,57,127,60
1,57,127,100
1,60,127,52
1,57,127,1140
1,60,127,36
1,62,127,36
1,58,127,396
1,58,127,1060
1,58,127,68
1,58,127,76
1,60,126,208
1,60,127,136
1,58,127,352
1,60,127,104
1,60,127,80
1,57,127,376
1,60,127,752
1,57,127,180
1,62,127,148
1,62,127,816
1,64,127,48
1,62,127,72
1,62,127,92
1,61,118,680
1,61,127,144
1,61,127,132
1,58,127,28
1,60,127,28
1,60,127,1020
1,60,127,56
1,57,127,20
1,57,127,100
1,62,127,80
1,57,127,16
1,57,127,88
1,55,126,60
1,57,124,56
1,60,127,288
1,57,127,200
1,60,127,92
1,60,127,88
1,57,127,24
1,62,127,92
1,60,127,16
1,57,127,8
1,62,127,16
1,60,127,108
1,62,127,92
1,62,127,92
1,62,127,76
1,61,127,80
1,58,127,596
1,61,127,64
1,60,127,104
1,57,127,124
1,60,127,188
1,57,127,164
1,64,127,84
1,62,127,32
1,62,127,80
1,62,127,40
1,62,127,56
1,62,127,100
1,60,127,56
1,52,127,232
1,53,127,104
1,60,127,26904
1,60,127,80
1,57,127,40
1,55,127,368
1,57,127,204
1,62,127,124
1,57,127,20
1,57,127,124
1,55,127,96
1,57,127,68
1,60,127,144
1,60,127,144
1,57,127,8
1,60,127,576
1,60,127,100
1,60,127,124
1,62,127,80
1,62,127,92
1,58,127,392
1,58,127,164
1,58,127,128
1,61,127,136
1,61,127,100
1,60,123,68
1,58,127,132
1,60,127,100
1,57,127,8
1,60,127,28
1,57,127,200
1,64,127,40
1,62,127,40
1,62,127,72
1,62,127,28
1,62,127,52
1,62,127,64
1,62,127,100
1,60,127,92
1,60,127,132
1,60,127,88
2,29,83,1536
2,29,84,48
2,36,85,172
2,53,74,64
2,55,79,4
2,57,84,28
2,29,85,316
2,36,82,8
2,29,79,4
2,29,81,100
2,36,93,0
2,29,84,84
2,29,80,56
2,36,79,88
2,53,69,84
2,55,74,92
2,57,77,8
2,29,81,296
2,36,73,16
2,29,74,0
2,29,72,84
2,36,81,12
2,29,70,56
2,29,73,76
2,36,82,120
2,53,74,380
2,55,74,80
2,57,88,24
2,29,74,272
2,36,71,16
2,29,76,4
2,29,75,84
2,36,85,12
2,29,88,16
2,29,86,56
2,36,91,108
2,53,54,384
2,55,70,4
2,57,79,100
2,29,76,312
2,36,81,12
2,29,74,0
2,29,79,88
2,36,95,20
2,29,79,56
2,29,82,84
2,36,81,124
2,53,77,60
2,55,78,12
2,57,90,32
2,29,77,296
2,36,88,20
2,29,75,24
2,29,76,88
2,36,86,20
2,29,78,20
2,29,82,64
2,36,79,20
2,53,74,0
2,55,68,4
2,57,86,40
2,29,74,272
2,36,73,44
2,29,72,24
2,29,73,88
2,36,82,0
2,29,72,40
2,29,78,84
2,36,81,64
2,53,65,384
2,55,77,16
2,57,84,20
2,29,71,304
2,36,67,52
2,29,69,20
2,29,73,80
2,36,86,4
2,29,70,12
2,29,79,80
2,36,81,136
2,53,68,384
2,55,69,92
2,57,81,28
2,29,83,348
2,36,76,192
2,29,68,20
2,29,79,96
2,36,88,192
2,29,80,24
2,29,81,52
2,36,83,92
2,53,63,380
2,55,71,4
2,57,71,8
2,29,77,256
2,36,77,188
2,29,74,12
2,29,74,84
2,36,93,4
2,29,80,48
2,29,81,64
2,36,86,148
2,53,67,20
2,55,65,12
2,57,80,24
2,29,81,372
2,36,78,12
2,29,80,40
2,29,79,84
2,36,91,8
2,29,80,8
2,29,84,76
2,36,91,136
2,53,67,384
2,55,72,24
2,57,85,16
2,29,80,376
2,36,76,8
2,29,75,40
2,29,72,72
2,36,88,192
2,29,81,136
2,29,82,48
2,36,90,132
2,53,67,384
2,55,74,12
2,57,79,52
2,29,77,288
2,36,76,188
2,29,80,28
2,29,78,88
2,36,90,192
2,29,81,148
2,29,79,64
2,36,86,108
2,53,81,4
2,55,76,12
2,57,85,8
2,29,79,332
2,36,81,12
2,29,77,12
2,29,76,92
2,36,90,32
2,29,85,156
2,29,91,68
2,29,91,176
2,36,103,528
2,36,98,72
2,36,91,164
2,36,86,160
2,36,85,188
2,48,90,24
2,36,95,192
2,36,88,148
2,36,84,196
2,36,83,168
2,48,98,20
2,36,100,196
2,36,93,172
2,36,107,176
2,36,98,188
2,48,85,8
2,36,116,196
2,48,98,164
2,34,117,24
2,46,99,192
2,33,103,172
2,45,91,160
2,31,98,156
2,43,98,164
2,41,103,104
2,38,93,384
2,36,91,16
2,38,86,44
2,41,90,24
2,41,90,132
2,38,83,4
2,36,95,116
2,38,84,188
2,41,81,20
2,36,86,192
2,38,85,4
2,36,100,4
2,33,95,164
2,36,88,48
2,38,85,188
2,38,95,156
2,36,100,24
2,33,93,144
2,36,82,4
2,38,82,8
2,36,88,4
2,41,91,20
2,38,91,80
2,36,98,144
2,38,86,96
2,41,90,4
2,41,93,164
2,38,86,20
2,36,95,152
2,38,75,188
2,41,90,176
2,36,81,180
2,34,90,192
2,31,95,96
2,29,90,132
2,31,88,80
2,34,94,8
2,34,99,148
2,31,100,8
2,29,93,200
2,34,99,12
2,29,81,20
2,31,98,56
2,29,93,36
2,26,98,152
2,29,93,4
2,31,91,196
2,36,95,16
2,36,90,152
2,33,100,36
2,31,98,148
2,36,90,4
2,31,103,40
2,33,91,12
2,31,100,72
2,28,95,160
2,31,88,4
2,33,90,192
2,36,91,12
2,38,90,4
2,38,86,40
2,36,90,28
2,33,95,124
2,36,91,80
2,31,95,72
2,28,103,92
2,26,111,164
2,28,98,136
2,31,100,8
2,31,98,172
2,28,103,12
2,26,103,156
2,28,100,40
2,31,107,12
2,28,91,188
2,34,117,24
2,31,100,88
2,29,93,180
2,31,100,16
2,34,94,40
2,31,81,16
2,36,107,84
2,41,103,1084
2,38,98,384
2,36,95,156
2,38,88,108
2,41,93,40
2,41,100,152
2,38,95,0
2,36,95,188
2,38,85,192
2,41,85,24
2,36,83,188
2,38,93,40
2,36,90,16
2,33,93,128
2,36,88,72
2,38,95,12
2,38,98,148
2,36,93,4
2,33,95,180
2,36,82,188
2,38,88,180
2,36,82,8
2,41,86,12
2,41,81,56
2,38,81,16
2,36,90,148
2,38,85,84
2,41,98,188
2,41,91,148
2,38,85,32
2,36,86,236
2,38,85,192
2,41,86,12
2,36,83,8
2,34,99,196
2,31,88,80
2,29,88,132
2,31,85,36
2,34,94,20
2,34,103,148
2,31,93,24
2,29,90,152
2,31,88,188
2,31,93,188
2,34,96,36
2,31,98,92
2,29,88,176
2,31,86,104
2,34,99,44
2,34,103,160
2,31,100,20
2,29,90,188
2,31,86,20
2,34,89,52
2,36,100,108
2,41,91,24
2,38,93,80
2,36,103,160
2,41,91,8
2,36,93,4
2,38,95,12
2,38,98,136
2,36,93,4
2,33,93,144
2,36,91,188
2,38,90,8
2,33,90,188
2,31,95,88
2,38,80,8
2,38,85,136
2,31,83,192
2,31,81,48
2,36,93,188
2,36,86,0
2,36,83,168
2,36,98,188
2,36,86,52
2,36,98,184
2,38,88,28
2,29,98,40
2,29,85,76
2,36,93,164
2,29,88,16
2,29,81,96
2,36,103,60
2,29,85,228
2,36,84,56
2,29,91,32
2,29,81,88
2,36,107,96
2,29,91,256
2,36,93,24
2,29,93,20
2,29,90,60
2,36,91,188
2,29,90,20
2,29,81,100
2,36,107,76
2,36,90,240
2,48,90,192
2,36,95,76
2,48,74,192
2,36,95,36
2,48,81,0
2,36,98,76
2,48,80,192
2,41,98,120
2,38,88,12
2,36,95,188
2,38,95,72
2,41,91,40
2,41,95,140
2,38,98,192
2,36,103,204
2,38,86,20
2,41,86,24
2,36,88,188
2,38,91,28
2,36,100,40
2,33,93,212
2,36,98,108
2,38,100,40
2,38,100,228
2,36,91,12
2,33,100,200
2,36,90,188
2,38,88,24
2,36,82,16
2,41,85,48
2,41,78,84
2,38,88,28
2,36,91,168
2,38,84,84
2,41,90,188
2,41,86,184
2,38,93,60
2,36,95,220
2,29,91,12
2,31,84,4
2,33,93,28
2,34,94,16
2,31,95,84
2,29,90,212
2,31,85,24
2,34,92,20
2,34,96,156
2,31,90,20
2,34,96,236
2,33,91,28
2,34,63,4
2,31,100,132
2,31,98,148
2,29,91,32
2,26,85,224
2,29,90,8
2,31,93,44
2,36,90,96
2,33,93,72
2,31,93,184
2,33,91,64
2,36,91,16
2,31,90,4
2,33,98,48
2,31,95,120
2,28,107,172
2,31,103,192
2,33,95,28
2,38,100,92
2,38,98,128
2,36,98,12
2,33,100,124
2,36,91,188
2,38,98,156
2,33,85,0
2,43,93,8
2,40,95,92
2,38,95,132
2,40,100,92
2,43,100,4
2,43,86,208
2,40,100,52
2,38,90,148
2,36,103,80
2,34,103,132
2,31,100,36
2,29,95,144
2,31,100,0
2,34,111,52
2,31,82,28
2,34,40,0
2,36,111,88
2,41,100,1148
2,38,95,84
2,36,103,144
2,38,98,144
2,41,98,32
2,41,95,204
2,38,90,4
2,36,103,200
2,38,86,192
2,41,84,16
2,36,84,192
2,38,90,16
2,36,103,60
2,33,95,104
2,36,90,192
2,33,82,8
2,38,90,8
2,38,98,164
2,36,95,4
2,33,98,188
2,36,103,12
2,38,90,16
2,36,84,12
2,41,95,20
2,41,83,92
2,38,93,28
2,36,100,180
2,38,90,108
2,41,83,188
2,41,91,240
2,38,83,196
2,36,95,100
2,38,81,192
2,41,93,0
2,36,86,192
2,34,89,8
2,31,103,124
2,29,93,160
2,31,90,84
2,34,107,48
2,34,99,164
2,31,98,0
2,29,83,8
2,31,98,28
2,34,96,36
2,31,88,16
2,29,82,12
2,34,96,8
2,31,86,40
2,29,91,200
2,31,98,148
2,34,89,36
2,34,94,148
2,31,84,12
2,29,86,200
2,31,85,12
2,34,89,24
2,36,95,56
2,41,85,4
2,38,95,96
2,36,100,208
2,38,84,12
2,41,93,16
2,38,100,48
2,38,100,140
2,36,91,20
2,33,93,160
2,36,88,12
2,38,85,16
2,36,88,12
2,31,100,20
2,28,88,132
2,26,80,116
2,28,83,192
2,31,107,172
2,36,100,40
2,36,95,64
2,36,91,212
2,36,95,96
2,36,90,184
2,29,95,100
2,29,93,64
2,36,95,204
2,29,85,16
2,29,81,64
2,36,95,72
2,29,93,244
2,36,88,52
2,29,84,24
2,29,84,96
2,36,98,60
2,29,91,264
2,36,88,56
2,29,90,28
2,29,86,72
2,36,91,228
2,29,83,20
2,29,81,88
2,36,88,76
2,36,86,232
2,48,84,24
2,36,86,192
2,48,83,0
2,36,111,192
2,48,84,156
2,36,121,176
2,48,90,4
2,41,103,52
2,38,98,76
2,36,100,108
2,38,93,116
2,41,95,24
2,41,98,144
2,38,93,192
2,36,98,172
2,38,85,24
2,41,84,16
2,36,91,188
2,38,95,24
2,36,95,40
2,33,103,28
2,36,98,72
2,38,98,32
2,38,103,160
2,36,93,16
2,33,100,192
2,36,91,188
2,38,90,20
2,36,85,4
2,41,86,4
2,41,84,76
2,38,86,192
2,36,95,80
2,38,86,32
2,41,91,192
2,41,90,120
2,38,91,20
2,36,103,20
2,38,84,12
2,41,93,4
2,36,80,192
2,34,87,0
2,31,91,104
2,29,90,104
2,31,86,96
2,34,99,40
2,34,99,176
2,31,95,20
2,29,91,144
2,31,91,28
2,34,90,44
2,31,83,4
2,34,99,64
2,31,86,144
2,29,91,156
2,31,88,88
2,34,94,48
2,34,96,148
2,31,86,32
2,29,91,152
2,31,85,32
2,34,94,40
2,36,86,88
2,41,88,8
2,38,98,104
2,36,98,132
2,38,88,56
2,41,86,12
2,38,100,48
2,38,100,140
2,36,93,4
2,33,98,32
2,36,90,188
2,38,83,20
2,31,100,76
2,33,91,384
2,35,98,72
2,38,90,8
2,36,85,68
2,36,93,80
2,33,93,196
2,31,95,112
2,33,93,192
2,36,95,20
2,41,103,152
2,38,90,52
2,36,95,132
2,38,95,116
2,41,91,32
2,41,100,172
2,38,91,192
2,36,95,72
2,38,81,192
2,41,84,32
2,43,61,0
2,36,85,168
2,38,83,24
2,36,90,36
2,33,95,156
2,36,100,44
2,38,98,32
2,38,98,148
2,36,95,8
2,33,103,140
2,36,90,8
2,38,98,52
2,36,78,24
2,41,86,52
2,38,91,60
2,36,86,96
2,38,84,80
2,41,88,188
2,41,90,124
2,38,93,32
2,36,91,116
2,38,77,188
2,41,90,0
2,36,71,188
2,34,90,180
2,31,98,104
2,29,93,116
2,31,90,16
2,34,92,32
2,34,99,164
2,31,98,20
2,29,91,152
2,31,86,16
2,34,88,40
2,31,83,188
2,34,94,36
2,34,90,76
2,31,86,16
2,29,90,144
2,31,84,80
2,34,96,56
2,34,96,156
2,36,81,32
2,34,111,132
2,31,100,104
2,41,95,180
2,38,90,384
2,36,98,144
2,41,98,80
2,38,88,4
2,38,103,152
2,36,91,4
2,33,91,12
2,36,86,188
2,38,90,20
2,31,95,4
2,33,91,64
2,35,95,96
2,38,85,4
2,36,91,32
2,36,95,144
2,33,95,0
2,31,93,180
2,33,91,32
2,36,103,28
2,29,82,160
2,29,81,60
2,36,98,164
2,53,73,112
2,55,74,0
2,57,85,32
2,29,83,164
2,36,70,188
2,29,70,20
2,29,73,84
2,36,83,196
2,29,81,144
2,29,74,44
2,36,79,180
2,53,69,28
2,55,65,12
2,57,81,32
2,29,69,144
2,36,68,0
2,29,70,40
2,29,71,76
2,36,88,48
2,29,86,136
2,29,85,68
2,36,93,116
2,53,75,104
2,55,68,12
2,57,73,64
2,29,81,136
2,36,77,12
2,29,74,44
2,29,74,88
2,36,88,40
2,29,82,160
2,29,81,64
2,36,86,176
2,53,61,108
2,55,72,96
2,57,81,20
2,29,77,164
2,36,69,0
2,29,79,36
2,29,75,76
2,36,93,40
2,29,88,136
3,36,127,43008
3,48,127,0
3,84,127,960
3,72,127,0
3,48,125,72
3,36,127,0
3,84,127,752
3,72,127,4
3,48,123,160
3,36,127,0
3,84,127,532
3,72,127,4
3,48,111,68
3,36,115,100
3,96,115,0
3,84,106,0
3,95,100,0
3,83,86,4
3,84,123,108
3,96,118,0
3,94,121,120
3,82,127,0
3,94,127,124
3,82,127,0
3,93,125,116
3,81,127,0
3,93,123,116
3,81,120,0
3,91,123,116
3,79,125,0
3,81,105,0
3,91,123,116
3,79,125,0
3,53,111,84
3,57,118,0
3,65,120,0
3,60,123,0
3,57,120,152
3,60,125,0
3,65,123,0
3,57,120,80
3,65,123,4
3,60,127,0
3,57,95,4
3,53,113,92
3,64,113,0
3,57,115,0
3,60,125,0
3,53,127,128
3,57,123,120
3,64,125,0
3,60,127,0
3,53,105,128
3,60,123,120
3,57,116,0
3,62,118,0
3,53,116,108
3,57,116,0
3,60,127,0
3,62,127,0
3,50,107,300
3,57,120,140
3,60,127,0
