track,note,velocity,time
0,34,107,104
0,36,127,0
0,46,127,0
0,49,127,0
0,69,127,0
0,74,127,0
0,77,127,0
0,77,127,0
0,81,111,0
0,93,83,0
0,42,125,24
0,77,107,44
0,42,115,32
0,36,127,76
0,46,122,0
0,77,87,100
0,89,83,0
0,42,100,0
0,42,89,4
0,36,127,72
0,46,127,0
0,77,67,0
0,42,111,8
0,77,47,44
0,42,107,32
0,36,127,40
0,46,127,0
0,86,78,0
0,77,27,100
0,42,122,16
0,65,102,0
0,42,107,4
0,36,127,68
0,46,127,0
0,65,102,0
0,42,122,28
0,42,94,68
0,36,127,72
0,46,127,0
0,42,119,24
0,65,102,0
0,42,100,56
0,65,60,0
0,36,127,68
0,46,127,0
0,65,75,0
0,42,96,28
0,62,83,0
0,42,107,72
0,36,127,64
0,46,127,0
0,34,107,32
0,42,127,0
0,69,103,0
0,74,100,0
0,77,96,0
0,81,82,0
0,42,96,24
0,33,107,4
0,36,127,0
0,46,127,0
0,67,120,0
0,72,127,0
0,76,127,0
0,76,127,0
0,79,117,0
0,91,91,0
0,42,119,0
0,76,107,36
0,42,94,32
0,36,127,64
0,46,127,0
0,76,87,100
0,42,122,44
0,88,83,0
0,42,94,4
0,36,127,60
0,46,127,0
0,76,67,0
0,42,127,0
0,76,47,36
0,42,92,32
0,36,127,36
0,46,127,0
0,84,87,0
0,76,27,100
0,42,122,48
0,67,102,0
0,42,94,4
0,36,127,64
0,46,127,0
0,67,101,0
0,42,119,0
0,42,104,4
0,29,107,40
0,36,127,0
0,46,127,0
0,67,111,0
0,72,123,0
0,76,113,0
0,31,103,4
0,42,122,0
0,67,98,0
0,69,117,0
0,72,127,0
0,77,123,0
0,42,96,24
0,67,52,0
0,36,127,60
0,46,127,0
0,67,78,0
0,64,102,0
0,71,126,0
0,74,127,0
0,79,126,0
0,33,107,0
0,42,111,0
0,85,64,16
0,85,83,0
0,42,100,0
0,85,102,16
0,85,127,52
0,36,127,4
0,46,127,0
0,42,127,40
0,42,100,64
0,34,127,4
0,36,127,0
0,46,127,0
0,49,108,0
0,69,127,0
0,74,127,0
0,77,127,0
0,77,127,0
0,81,111,0
0,93,83,0
0,42,125,24
0,77,107,44
0,42,115,32
0,36,127,76
0,46,122,0
0,77,87,100
0,89,83,0
0,42,100,0
0,42,89,4
0,36,127,72
0,46,127,0
0,77,67,0
0,62,121,4
0,42,111,8
0,60,120,8
0,77,47,8
0,42,107,32
0,62,121,4
0,36,127,40
0,46,127,0
0,62,102,0
0,86,78,0
0,77,27,100
0,65,113,24
0,42,122,16
0,67,111,4
0,42,107,4
0,69,108,20
0,36,127,16
0,46,127,0
0,42,122,28
0,65,102,0
0,42,94,48
0,65,102,0
0,34,127,44
0,36,127,0
0,46,127,0
0,53,126,0
0,57,123,0
0,60,126,0
0,62,108,0
0,65,102,0
0,34,127,4
0,42,119,0
0,53,123,0
0,57,117,0
0,62,111,0
0,62,108,0
0,65,102,0
0,42,100,12
0,36,127,68
0,46,127,0
0,64,106,0
0,65,102,0
0,34,127,8
0,42,96,0
0,53,127,0
0,57,127,0
0,62,102,0
0,62,123,0
0,65,96,0
0,42,107,8
0,36,127,64
0,46,127,0
0,34,127,4
0,42,127,0
0,53,127,0
0,57,127,0
0,62,113,0
0,62,127,0
0,69,103,0
0,74,100,0
0,77,96,0
0,81,82,0
0,42,96,40
0,60,109,0
0,67,106,4
0,33,127,4
0,36,127,0
0,46,127,0
0,52,77,0
0,55,78,0
0,60,82,0
0,67,120,0
0,72,127,0
0,76,127,0
0,76,127,0
0,79,117,0
0,91,91,0
0,42,119,0
0,76,107,36
0,42,94,32
0,36,127,64
0,46,127,0
0,76,87,100
0,42,122,44
0,88,83,0
0,42,94,4
0,36,127,60
0,46,127,0
0,76,67,0
0,42,127,0
0,76,47,36
0,42,92,32
0,36,127,36
0,46,127,0
0,84,87,0
0,76,27,100
0,42,122,48
0,42,94,4
0,72,80,48
0,36,127,16
0,46,127,0
0,42,119,0
0,67,101,0
0,42,104,4
0,67,73,0
0,29,127,40
0,36,127,0
0,46,127,0
0,67,111,0
0,67,73,0
0,72,123,0
0,76,113,0
0,31,127,4
0,42,122,0
0,67,64,0
0,69,117,0
0,72,127,0
0,77,123,0
0,42,96,4
0,36,127,60
0,46,127,0
0,67,98,0
0,33,127,0
0,64,102,0
0,71,126,0
0,74,127,0
0,79,126,0
0,42,111,0
0,42,100,8
0,36,127,56
0,46,127,0
0,65,102,0
0,42,127,40
0,67,95,0
0,42,100,64
0,34,127,4
0,36,127,0
0,46,127,0
0,49,108,0
0,69,127,0
0,69,102,0
0,74,127,0
0,77,127,0
0,77,127,0
0,81,111,0
0,93,83,0
0,62,110,8
0,69,102,8
0,42,125,24
0,77,107,44
0,42,115,24
0,65,102,0
0,36,127,76
0,46,122,0
0,77,87,36
0,65,92,0
0,89,83,0
0,41,117,0
0,42,100,0
0,42,89,4
0,36,127,48
0,46,127,0
0,67,102,0
0,77,67,0
0,42,111,8
0,77,47,8
0,42,107,32
0,62,83,0
0,34,127,24
0,36,127,0
0,46,127,0
0,53,126,0
0,57,127,0
0,62,108,0
0,86,78,0
0,77,27,16
0,42,122,16
0,53,127,0
0,57,127,0
0,62,113,0
0,42,107,4
0,36,127,12
0,46,127,0
0,42,122,28
0,42,94,68
0,34,127,72
0,36,127,0
0,46,127,0
0,53,113,0
0,57,123,0
0,62,106,0
0,34,127,24
0,42,119,0
0,53,127,0
0,57,127,0
0,62,113,0
0,42,100,8
0,67,100,56
0,36,127,12
0,46,127,0
0,34,127,44
0,42,96,0
0,53,127,0
0,57,127,0
0,62,117,0
0,85,83,0
0,85,89,32
0,42,107,4
0,85,102,0
0,69,100,36
0,36,127,4
0,46,127,0
0,85,127,0
0,34,127,56
0,42,127,0
0,53,127,0
0,57,127,0
0,62,127,0
0,69,103,0
0,74,100,0
0,77,96,0
0,81,82,0
0,42,96,40
0,60,103,24
0,33,127,4
0,36,127,0
0,46,127,0
0,52,106,0
0,55,108,0
0,60,91,0
0,67,120,0
0,72,127,0
0,76,127,0
0,76,127,0
0,79,117,0
0,91,91,0
0,42,119,0
0,76,107,36
0,42,94,32
0,36,127,64
0,46,127,0
0,62,99,8
0,76,87,100
0,64,100,32
0,40,126,12
0,42,122,0
0,88,83,0
0,42,94,4
0,69,101,40
0,36,127,0
0,46,127,0
0,76,67,0
0,42,127,0
0,76,47,36
0,42,92,32
0,33,127,24
0,36,127,0
0,46,127,0
0,72,114,0
0,84,87,0
0,42,122,36
0,72,101,36
0,42,94,32
0,36,127,64
0,46,127,0
0,65,102,0
0,67,98,0
0,72,87,76
0,42,119,0
0,42,104,4
0,65,102,0
0,29,127,40
0,36,127,0
0,46,127,0
0,52,126,0
0,55,120,0
0,60,103,0
0,67,111,0
0,72,67,0
0,72,123,0
0,76,113,0
0,31,127,4
0,42,122,0
0,53,123,0
0,57,120,0
0,62,123,0
0,64,101,0
0,69,117,0
0,72,127,0
0,77,123,0
0,72,47,4
0,42,96,24
0,36,127,16
0,46,127,0
0,65,102,0
0,72,27,100
0,33,127,0
0,55,127,0
0,59,127,0
0,64,127,0
0,71,126,0
0,74,127,0
0,79,126,0
0,42,111,0
0,74,99,0
0,42,100,4
0,69,101,0
0,36,127,0
0,46,127,0
0,72,105,0
0,42,127,40
0,42,100,64
0,34,127,28
0,36,127,0
0,46,127,0
0,49,108,0
0,62,98,0
0,69,127,0
0,74,127,0
0,77,127,0
0,77,127,0
0,81,111,0
0,93,83,0
0,62,110,8
0,42,125,24
0,77,107,44
0,42,115,32
0,36,127,28
0,46,122,0
0,69,102,84
0,77,87,16
0,41,120,0
0,89,83,0
0,42,100,0
0,42,89,4
0,36,127,72
0,46,127,0
0,77,67,0
0,42,111,8
0,77,47,44
0,42,107,32
0,34,125,12
0,36,127,0
0,46,127,0
0,53,126,0
0,57,127,0
0,62,108,0
0,67,98,0
0,86,78,0
0,77,27,16
0,42,122,16
0,53,127,0
0,57,127,0
0,62,113,0
0,64,81,0
0,42,107,4
0,36,127,32
0,46,127,0
0,60,86,0
0,42,122,28
0,42,94,68
0,34,127,72
0,36,127,0
0,46,127,0
0,53,113,0
0,57,123,0
0,62,106,0
0,34,127,24
0,42,119,0
0,53,127,0
0,57,127,0
0,62,113,0
0,42,100,4
0,36,127,68
0,46,127,0
0,34,127,44
0,42,96,0
0,53,127,0
0,57,127,0
0,62,117,0
0,85,83,0
0,85,89,32
0,42,107,0
0,85,102,0
0,72,127,20
0,84,127,0
0,36,127,4
0,40,127,0
0,46,127,0
0,85,127,0
0,69,127,4
0,81,127,0
0,67,127,8
0,79,127,0
0,35,127,40
0,42,127,0
0,53,127,0
0,57,127,0
0,62,127,0
0,69,103,0
0,74,100,0
0,77,96,0
0,81,82,0
0,64,127,0
0,76,127,0
0,42,96,0
0,36,127,4
0,36,127,0
0,42,127,0
0,49,127,0
0,50,108,0
0,53,127,0
0,60,127,0
0,60,127,0
0,60,123,0
0,62,127,0
0,65,127,0
0,60,118,4
0,72,75,0
0,42,56,0
0,36,127,48
0,50,108,0
0,53,120,0
0,60,117,0
0,60,106,0
0,62,127,0
0,65,127,0
0,40,127,12
0,42,122,0
0,36,127,28
0,42,60,0
0,50,117,0
0,53,117,0
0,60,127,0
0,60,111,0
0,62,127,0
0,65,127,0
0,40,127,4
0,36,127,36
0,42,96,0
0,42,42,124
0,40,127,128
0,42,115,0
0,33,123,28
0,46,87,0
0,34,127,32
0,67,108,28
0,79,65,0
0,36,127,12
0,36,127,0
0,42,127,0
0,50,111,0
0,53,127,0
0,60,127,0
0,60,111,0
0,62,127,0
0,65,127,0
0,42,50,104
0,62,127,0
0,36,127,44
0,50,103,0
0,53,111,0
0,60,108,0
0,60,96,0
0,62,127,0
0,65,127,0
0,40,127,0
0,42,125,0
0,65,126,0
0,36,127,64
0,42,53,0
0,50,111,0
0,53,113,0
0,60,127,0
0,60,113,0
0,62,127,0
0,65,127,0
0,40,127,4
0,36,127,56
0,42,122,0
0,42,56,124
0,67,127,0
0,40,127,0
0,42,111,0
0,69,127,0
0,33,127,0
0,46,84,0
0,70,127,0
0,34,125,40
0,72,117,32
0,84,74,0
0,36,127,0
0,36,127,0
0,42,122,0
0,53,113,0
0,60,127,0
0,60,120,0
0,62,127,0
0,62,106,0
0,65,127,0
0,69,113,0
0,72,127,0
0,42,42,100
0,36,127,24
0,53,117,0
0,60,113,0
0,60,113,0
0,62,127,0
0,62,108,0
0,65,127,0
0,69,93,0
0,40,127,12
0,42,125,0
0,36,127,60
0,42,65,0
0,53,117,0
0,60,127,0
0,60,113,0
0,62,127,0
0,62,108,0
0,65,127,0
0,69,113,0
0,40,127,12
0,36,127,56
0,42,122,0
0,42,63,40
0,40,127,140
0,42,122,0
0,33,113,40
0,42,85,0
0,42,58,0
0,34,125,0
0,42,64,4
0,36,123,32
0,36,127,0
0,42,96,0
0,53,113,0
0,60,120,0
0,60,113,0
0,62,127,0
0,62,106,0
0,65,127,0
0,69,100,0
0,40,111,84
0,42,127,0
0,36,127,40
0,53,113,0
0,60,117,0
0,60,113,0
0,62,127,0
0,62,103,0
0,65,127,0
0,69,93,0
0,40,127,8
0,42,106,0
0,36,127,132
0,40,127,0
0,42,119,0
0,53,120,0
0,60,127,0
0,60,126,0
0,62,127,0
0,62,113,0
0,65,127,0
0,69,111,0
0,40,127,20
0,42,106,0
0,74,127,0
0,60,127,4
0,62,127,0
0,38,98,4
0,40,127,0
0,42,125,0
0,49,102,0
0,40,127,20
0,65,127,52
0,41,113,0
0,42,106,0
0,50,106,0
0,72,127,0
0,48,119,48
0,67,127,8
0,38,123,0
0,42,122,0
0,45,126,0
0,49,102,0
0,41,113,0
0,29,127,0
0,36,127,0
0,42,127,0
0,54,94,0
0,56,127,0
0,60,127,0
0,60,117,0
0,65,127,0
0,69,111,0
0,69,127,0
0,72,87,0
0,75,117,0
0,54,51,48
0,42,70,12
0,54,94,0
0,33,127,44
0,54,51,0
0,60,96,0
0,64,117,0
0,67,103,0
0,67,127,0
0,36,127,8
0,40,126,0
0,42,127,0
0,54,94,0
0,56,122,0
0,75,117,0
0,54,51,0
0,38,126,24
0,42,76,0
0,54,94,0
0,60,111,0
0,62,126,0
0,65,127,0
0,65,127,0
0,40,100,52
0,54,59,0
0,36,127,40
0,42,127,0
0,54,94,0
0,56,125,0
0,75,117,0
0,54,59,36
0,29,127,4
0,42,76,0
0,54,94,0
0,60,120,0
0,54,51,44
0,36,127,72
0,38,117,0
0,40,123,0
0,42,119,0
0,54,94,0
0,56,125,0
0,60,126,0
0,75,117,0
0,36,117,36
0,54,51,0
0,62,117,0
0,33,127,20
0,46,96,0
0,54,94,0
0,65,111,0
0,54,51,40
0,34,127,32
0,36,127,0
0,42,127,0
0,54,94,0
0,56,122,0
0,57,86,0
0,60,127,0
0,60,117,0
0,65,127,0
0,65,117,0
0,69,91,0
0,69,90,0
0,75,117,0
0,54,51,16
0,42,68,36
0,54,94,0
0,33,127,40
0,54,51,0
0,55,96,0
0,60,91,0
0,60,113,0
0,64,106,0
0,64,116,0
0,67,96,0
0,67,110,0
0,36,127,36
0,40,108,0
0,42,127,0
0,54,94,0
0,56,127,0
0,75,117,0
0,54,51,20
0,31,127,40
0,53,85,0
0,54,94,0
0,60,106,0
0,60,116,0
0,62,113,0
0,62,117,0
0,65,123,0
0,65,116,0
0,40,123,64
0,54,51,0
0,36,127,48
0,42,127,0
0,54,94,0
0,56,125,0
0,65,127,0
0,75,117,0
0,54,51,32
0,60,120,4
0,72,90,0
0,36,127,8
0,42,73,0
0,54,94,0
0,65,127,0
0,62,119,4
0,74,89,0
0,54,51,16
0,65,127,0
0,65,119,20
0,77,89,0
0,36,127,24
0,40,127,0
0,42,127,0
0,54,94,0
0,56,122,0
0,67,127,0
0,75,117,0
0,67,119,0
0,79,89,0
0,54,51,32
0,65,120,0
0,77,90,0
0,36,127,28
0,46,104,0
0,54,94,0
0,65,127,0
0,67,119,16
0,79,89,0
0,41,103,20
0,54,51,0
0,69,127,0
0,65,116,4
0,77,86,0
0,29,127,12
0,36,127,0
0,42,127,0
0,54,94,0
0,56,119,0
0,60,127,0
0,65,127,0
0,69,111,0
0,75,117,0
0,54,51,36
0,42,76,4
0,54,94,0
0,69,127,0
0,33,127,12
0,54,51,0
0,60,108,0
0,64,123,0
0,67,113,0
0,36,127,32
0,40,123,0
0,42,127,0
0,54,94,0
0,56,115,0
0,69,127,0
0,75,117,0
0,54,51,28
0,38,120,0
0,42,68,0
0,54,94,0
0,60,120,0
0,62,127,0
0,65,127,0
0,72,127,0
0,69,118,0
0,81,88,0
0,40,120,44
0,54,51,0
0,36,127,28
0,42,127,0
0,54,94,0
0,56,119,0
0,75,117,0
0,54,51,20
0,29,127,28
0,42,68,0
0,54,94,0
0,60,127,0
0,54,51,20
0,36,127,56
0,38,106,0
0,40,126,0
0,42,127,0
0,54,94,0
0,56,125,0
0,60,126,0
0,75,117,0
0,36,120,4
0,54,51,0
0,62,100,0
0,33,127,8
0,42,51,0
0,54,94,0
0,65,126,0
0,42,100,44
0,54,51,0
0,34,127,44
0,36,127,0
0,42,127,0
0,54,94,0
0,56,119,0
0,57,106,0
0,60,127,0
0,65,127,0
0,69,100,0
0,75,117,0
0,54,51,40
0,42,68,28
0,54,94,0
0,33,127,12
0,54,51,0
0,55,113,0
0,60,82,0
0,64,108,0
0,67,85,0
0,36,127,0
0,40,103,0
0,42,127,0
0,54,94,0
0,56,111,0
0,75,117,0
0,54,51,32
0,31,127,52
0,42,76,0
0,53,91,0
0,54,94,0
0,60,98,0
0,62,126,0
0,65,120,0
0,40,108,56
0,54,51,0
0,36,127,48
0,42,127,0
0,54,94,0
0,56,119,0
0,62,117,0
0,65,117,0
0,69,117,0
0,72,117,0
0,75,115,0
0,54,51,44
0,62,113,0
0,65,117,0
0,69,117,0
0,72,113,0
0,65,119,8
0,77,89,0
