track,note,velocity,time
3,67,64,0
3,67,0,119
3,67,64,0
3,67,0,29
3,65,64,0
3,65,0,29
3,64,64,0
3,64,0,29
3,64,64,0
3,64,0,59
3,64,64,0
3,64,0,29
3,64,64,0
3,64,0,59
3,64,64,0
3,64,0,29
3,62,64,0
3,62,0,29
3,62,64,0
3,62,0,179
3,57,64,0
3,57,0,29
3,60,64,0
3,60,0,29
3,62,64,0
3,62,0,59
3,62,64,0
3,62,0,29
3,62,64,0
3,62,0,89
3,64,64,0
3,64,0,29
3,57,64,0
3,57,0,149
3,57,64,0
3,57,0,29
3,60,64,0
3,60,0,29
3,62,64,0
3,62,0,59
3,62,64,0
3,62,0,29
3,62,64,0
3,62,0,89
3,64,64,0
3,64,0,29
3,62,64,0
3,62,0,149
3,67,64,0
3,67,0,119
3,67,64,0
3,67,0,29
3,65,64,0
3,65,0,29
3,64,64,0
3,64,0,29
3,64,64,0
3,64,0,89
3,64,64,0
3,64,0,29
3,64,64,0
3,64,0,29
3,64,64,0
3,64,0,29
3,62,64,0
3,62,0,29
3,62,64,0
3,62,0,179
3,57,64,0
3,57,0,29
3,60,64,0
3,60,0,29
3,62,64,0
3,62,0,59
3,62,64,0
3,62,0,29
3,62,64,0
3,62,0,89
3,60,64,0
3,60,0,29
3,60,64,0
3,60,0,149
3,60,64,0
3,60,0,29
3,64,64,0
3,64,0,59
3,64,64,0
3,64,0,59
3,62,64,0
3,62,0,29
3,62,64,0
3,62,0,89
3,57,64,0
3,57,0,29
3,60,64,0
3,60,0,29
3,60,64,0
3,60,0,29
3,60,64,0
3,60,0,29
3,62,64,0
3,62,0,89
3,62,64,0
3,62,0,59
3,60,64,0
3,60,0,29
3,62,64,0
3,62,0,89
3,60,64,0
3,60,0,29
3,60,64,0
3,60,0,29
3,60,64,0
3,60,0,29
3,62,64,0
3,62,0,59
3,62,64,0
3,62,0,29
3,64,64,0
3,64,0,59
3,64,64,0
3,64,0,119
3,64,64,0
3,64,0,29
3,65,64,0
3,65,0,29
3,67,64,0
3,67,0,59
3,67,64,0
3,67,0,29
3,67,64,0
3,67,0,59
3,65,64,0
3,65,0,29
3,64,64,0
3,64,0,59
3,60,64,0
3,60,0,119
3,57,64,0
3,57,0,29
3,60,64,0
3,60,0,29
3,60,64,0
3,60,0,29
3,60,64,0
3,60,0,29
3,62,64,0
3,62,0,59
3,62,64,0
3,62,0,29
3,64,64,0
3,64,0,59
3,64,64,0
3,64,0,119
3,62,64,0
3,62,0,29
3,60,64,0
3,60,0,29
3,62,64,0
3,62,0,29
3,59,64,0
3,59,0,89
3,55,64,0
3,55,0,29
3,60,64,0
3,60,0,29
3,60,64,0
3,60,0,59
3,62,64,0
3,62,0,59
3,62,64,0
3,62,0,29
3,64,64,0
3,64,0,59
3,64,64,0
3,64,0,119
3,64,64,0
3,64,0,29
3,65,64,0
3,65,0,29
3,67,64,0
3,67,0,59
3,67,64,0
3,67,0,29
3,67,64,0
3,67,0,59
3,65,64,0
3,65,0,29
3,64,64,0
3,64,0,59
3,60,64,0
3,60,0,119
3,57,64,0
3,57,0,29
3,60,64,0
3,60,0,29
3,60,64,0
3,60,0,29
3,60,64,0
3,60,0,29
3,62,64,0
3,62,0,89
3,62,64,0
3,62,0,29
3,64,64,0
3,64,0,89
3,62,64,0
3,62,0,29
3,60,64,0
3,60,0,29
3,62,64,0
3,62,0,29
3,59,64,0
3,59,0,89
3,67,64,0
3,67,0,119
3,67,64,0
3,67,0,29
3,65,64,0
3,65,0,29
3,64,64,0
3,64,0,29
3,64,64,0
3,64,0,89
3,64,64,0
3,64,0,29
3,64,64,0
3,64,0,59
3,62,64,0
3,62,0,29
3,62,64,0
3,62,0,179
3,57,64,0
3,57,0,29
3,60,64,0
3,60,0,29
3,62,64,0
3,62,0,59
3,62,64,0
3,62,0,29
3,62,64,0
3,62,0,89
3,64,64,0
3,64,0,29
3,57,64,0
3,57,0,149
3,57,64,0
3,57,0,29
3,60,64,0
3,60,0,29
3,62,64,0
3,62,0,29
3,62,64,0
3,62,0,29
3,62,64,0
3,62,0,59
3,62,64,0
3,62,0,59
3,64,64,0
3,64,0,29
3,62,64,0
3,62,0,149
3,67,64,0
3,67,0,119
3,67,64,0
3,67,0,29
3,65,64,0
3,65,0,29
3,64,64,0
3,64,0,29
3,64,64,0
3,64,0,89
3,64,64,0
3,64,0,29
3,64,64,0
3,64,0,29
3,64,64,0
3,64,0,29
3,62,64,0
3,62,0,29
3,62,64,0
3,62,0,179
3,69,64,0
3,69,0,59
3,67,64,0
3,67,0,89
3,67,64,1
3,67,0,29
3,65,64,0
3,65,0,59
3,64,64,0
3,64,0,29
3,62,64,0
3,62,0,89
3,60,64,0
3,60,0,59
3,60,64,0
3,60,0,149
3,64,64,0
3,64,0,30
3,64,64,0
3,64,0,30
3,64,64,0
3,64,0,59
3,62,64,0
3,62,0,29
3,62,64,0
3,62,0,89
3,57,64,0
3,57,0,29
3,60,64,0
3,60,0,59
3,60,64,0
3,60,0,29
3,62,64,0
3,62,0,89
3,62,64,0
3,62,0,59
3,60,64,0
3,60,0,29
3,62,64,0
3,62,0,89
3,60,64,0
3,60,0,29
3,60,64,0
3,60,0,29
3,60,64,0
3,60,0,29
3,62,64,0
3,62,0,59
3,62,64,0
3,62,0,29
3,64,64,0
3,64,0,59
3,64,64,0
3,64,0,119
3,64,64,0
3,64,0,29
3,65,64,0
3,65,0,29
3,67,64,0
3,67,0,59
3,67,64,0
3,67,0,29
3,67,64,0
3,67,0,59
3,65,64,0
3,65,0,29
3,64,64,0
3,64,0,59
3,60,64,0
3,60,0,119
3,57,64,0
3,57,0,29
3,60,64,0
3,60,0,29
3,60,64,0
3,60,0,29
3,60,64,0
3,60,0,29
3,62,64,0
3,62,0,59
3,62,64,0
3,62,0,29
3,64,64,0
3,64,0,59
3,64,64,0
3,64,0,119
3,62,64,0
3,62,0,29
3,60,64,0
3,60,0,29
3,62,64,0
3,62,0,29
3,59,64,0
3,59,0,89
3,67,64,0
3,67,0,29
3,69,64,0
3,69,0,29
3,67,64,0
3,67,0,59
3,67,64,0
3,67,0,59
3,67,64,0
3,67,0,29
3,67,64,0
3,67,0,59
3,64,64,0
3,64,0,29
3,60,64,0
3,60,0,89
3,64,64,0
3,64,0,29
3,65,64,0
3,65,0,29
3,67,64,0
3,67,0,59
3,67,64,0
3,67,0,29
3,67,64,0
3,67,0,59
3,65,64,0
3,65,0,29
3,64,64,0
3,64,0,59
3,60,64,0
3,60,0,119
3,57,64,0
3,57,0,29
3,60,64,0
3,60,0,29
3,60,64,0
3,60,0,29
3,60,64,0
3,60,0,29
3,62,64,0
3,62,0,89
3,62,64,0
3,62,0,29
3,64,64,0
3,64,0,89
3,62,64,0
3,62,0,29
3,60,64,0
3,60,0,29
3,62,64,0
3,62,0,29
3,59,64,0
3,59,0,89
3,62,64,0
3,62,0,29
3,64,64,0
3,64,0,29
3,65,64,0
3,65,0,59
3,64,64,0
3,64,0,29
3,62,64,0
3,62,0,89
3,60,64,0
3,60,0,59
3,60,64,0
3,60,0,119
3,60,64,0
3,60,0,29
3,69,64,0
3,69,0,29
3,67,64,0
3,67,0,119
3,67,64,0
3,67,0,29
3,64,64,1
3,64,0,29
3,67,64,0
3,67,0,29
3,64,64,0
3,64,0,119
3,64,64,0
3,64,0,29
3,65,64,0
3,65,0,29
3,64,64,0
3,64,0,59
3,62,64,0
3,62,0,59
3,60,64,0
3,60,0,29
3,62,64,0
3,62,0,179
3,62,64,0
3,62,0,29
3,64,64,0
3,64,0,29
3,65,64,0
3,65,0,59
3,64,64,0
3,64,0,59
3,62,64,0
3,62,0,29
3,60,64,0
3,60,0,29
3,60,64,0
3,60,0,179
3,60,64,0
3,60,0,29
3,60,64,0
3,60,0,29
3,69,64,0
3,69,0,29
3,67,64,0
3,67,0,119
3,67,64,0
3,67,0,29
3,64,64,0
3,64,0,29
3,67,64,0
3,67,0,29
3,64,64,0
3,64,0,119
3,67,64,0
3,67,0,119
3,64,64,0
3,64,0,29
3,67,64,0
3,67,0,29
3,69,64,0
3,69,0,59
3,67,64,0
3,67,0,29
3,67,64,0
3,67,0,89
3,69,64,0
3,69,0,29
3,64,64,1
3,64,0,29
3,67,64,0
3,67,0,239
3,69,64,0
3,69,0,29
3,67,64,0
3,67,0,29
3,67,64,0
3,67,0,29
3,67,64,0
3,67,0,59
3,67,64,0
3,67,0,29
3,67,64,0
3,67,0,59
3,64,64,0
3,64,0,29
3,60,64,0
3,60,0,89
3,64,64,0
3,64,0,29
3,65,64,0
3,65,0,29
3,67,64,0
3,67,0,59
3,67,64,0
3,67,0,29
3,67,64,0
3,67,0,59
3,65,64,0
3,65,0,29
3,64,64,0
3,64,0,59
3,60,64,0
3,60,0,119
3,57,64,0
3,57,0,29
3,60,64,0
3,60,0,29
3,60,64,0
3,60,0,29
3,60,64,0
3,60,0,29
3,62,64,0
3,62,0,59
3,62,64,0
3,62,0,29
3,64,64,0
3,64,0,59
3,64,64,0
3,64,0,119
3,62,64,0
3,62,0,29
3,60,64,0
3,60,0,29
3,62,64,0
3,62,0,29
3,59,64,0
3,59,0,89
3,67,64,0
3,67,0,29
3,69,64,0
3,69,0,29
3,67,64,0
3,67,0,59
3,72,64,0
3,72,0,59
3,67,64,0
3,67,0,29
3,69,64,0
3,69,0,59
3,67,64,0
3,67,0,29
3,64,64,0
3,64,0,89
3,64,64,0
3,64,0,29
3,65,64,0
3,65,0,29
3,67,64,0
3,67,0,59
3,67,64,0
3,67,0,29
3,67,64,0
3,67,0,59
3,65,64,0
3,65,0,29
3,64,64,0
3,64,0,59
3,60,64,0
3,60,0,119
3,57,64,0
3,57,0,29
3,60,64,0
3,60,0,29
3,60,64,0
3,60,0,29
3,60,64,0
3,60,0,29
3,62,64,0
3,62,0,89
3,62,64,0
3,62,0,29
3,64,64,0
3,64,0,89
3,64,64,0
3,64,0,29
3,65,64,0
3,65,0,29
3,67,64,0
3,67,0,29
3,67,64,0
3,67,0,209
3,72,64,1
3,72,0,59
3,69,64,1
3,69,0,59
3,67,64,1
3,67,0,59
3,69,64,1
3,69,0,59
3,69,59,1
3,69,0,119
3,67,54,1
3,67,0,119
3,64,49,1
3,64,0,119
3,67,19,571
3,67,0,29
3,69,19,1
3,69,0,29
3,67,19,1
3,67,0,29
3,67,19,1
3,67,0,29
3,64,14,1
3,64,0,29
3,60,14,1
3,60,0,89
3,67,9,1
3,67,0,29
3,69,9,1
3,69,0,29
3,67,9,1
3,67,0,29
3,67,9,1
3,67,0,29
3,64,4,1
3,64,0,29
3,62,4,1
3,62,0,89
4,60,64,0
4,60,0,89
4,62,64,1
4,62,0,59
4,64,64,1
4,64,0,89
4,60,64,1
4,60,0,89
4,62,64,1
4,62,0,59
4,64,64,1
4,64,0,89
4,60,64,1
4,60,0,89
4,62,64,1
4,62,0,59
4,64,64,1
4,64,0,89
4,65,64,1
4,65,0,89
4,64,64,1
4,64,0,89
4,62,64,1
4,62,0,59
4,60,64,1
4,60,0,89
4,62,64,1
4,62,0,59
4,64,64,1
4,64,0,89
4,60,64,1
4,60,0,89
4,62,64,1
4,62,0,59
4,64,64,1
4,64,0,89
4,60,64,1
4,60,0,89
4,62,64,1
4,62,0,59
4,64,64,1
4,64,0,89
4,65,64,1
4,60,64,0
4,55,64,0
4,57,64,0
4,57,0,479
4,65,0,0
4,60,0,0
4,55,0,0
4,60,64,1
4,64,64,0
4,64,0,59
4,60,0,0
4,55,64,1
4,55,0,59
4,64,64,1
4,60,64,0
4,60,0,59
4,64,0,0
4,55,64,1
4,55,0,59
4,64,64,1
4,60,64,0
4,60,0,59
4,64,0,0
4,57,64,1
4,57,0,59
4,64,64,1
4,60,64,0
4,60,0,59
4,64,0,0
4,57,64,1
4,57,0,59
4,59,64,1
4,62,64,0
4,62,0,59
4,59,0,0
4,55,64,1
4,55,0,59
4,59,64,1
4,62,64,0
4,62,0,59
4,59,0,0
4,55,64,1
4,55,0,59
4,59,64,1
4,62,64,0
4,62,0,59
4,59,0,0
4,55,64,1
4,55,0,59
4,62,64,1
4,59,64,0
4,59,0,59
4,62,0,0
4,55,64,1
4,55,0,59
4,62,64,1
4,65,64,0
4,65,0,59
4,62,0,0
4,57,64,1
4,57,0,59
4,65,64,1
4,62,64,0
4,62,0,59
4,65,0,0
4,57,64,1
4,57,0,59
4,64,64,1
4,60,64,0
4,60,0,59
4,64,0,0
4,57,64,1
4,57,0,59
4,64,64,1
4,60,64,0
4,60,0,59
4,64,0,0
4,57,64,1
4,57,0,59
4,60,64,1
4,62,64,0
4,65,64,0
4,65,0,59
4,62,0,0
4,60,0,0
4,58,64,1
4,58,0,59
4,60,64,1
4,62,64,0
4,65,64,0
4,65,0,59
4,62,0,0
4,60,0,0
4,58,64,1
4,58,0,59
4,60,64,1
4,62,64,0
4,67,64,0
4,67,0,59
4,62,0,0
4,60,0,0
4,55,64,1
4,55,0,59
4,59,64,1
4,62,64,0
4,67,64,0
4,67,0,59
4,62,0,0
4,59,0,0
4,55,64,1
4,55,0,59
4,60,64,1
4,64,64,0
4,64,0,59
4,60,0,0
4,55,64,1
4,55,0,59
4,60,64,1
4,64,64,0
4,64,0,59
4,60,0,0
4,55,64,1
4,55,0,59
4,60,64,1
4,64,64,0
4,64,0,59
4,60,0,0
4,57,64,1
4,57,0,59
4,60,64,1
4,64,64,0
4,64,0,59
4,60,0,0
4,57,64,1
4,57,0,59
4,59,64,1
4,62,64,0
4,62,0,59
4,59,0,0
4,55,64,1
4,55,0,59
4,62,64,1
4,59,64,0
4,59,0,59
4,62,0,0
4,55,64,1
4,55,0,59
4,62,64,1
4,59,64,0
4,59,0,59
4,62,0,0
4,55,64,1
4,55,0,59
4,59,64,1
4,62,64,0
4,62,0,59
4,59,0,0
4,55,64,1
4,55,0,59
4,62,64,1
4,65,64,0
4,65,0,59
4,62,0,0
4,57,64,1
4,57,0,59
4,62,64,1
4,65,64,0
4,65,0,59
4,62,0,0
4,57,64,1
4,57,0,59
4,60,64,1
4,64,64,0
4,64,0,59
4,60,0,0
4,57,64,1
4,57,0,59
4,64,64,1
4,60,64,0
4,60,0,59
4,64,0,0
4,57,64,1
4,57,0,59
4,60,64,1
4,65,64,0
4,62,64,0
4,62,0,59
4,65,0,0
4,60,0,0
4,58,64,1
4,58,0,59
4,60,64,1
4,62,64,0
4,65,64,0
4,65,0,59
4,62,0,0
4,60,0,0
4,58,64,1
4,58,0,59
4,60,64,1
4,65,64,0
4,65,0,59
4,60,0,0
4,57,64,1
4,57,0,59
4,60,64,1
4,65,64,0
4,65,0,59
4,60,0,0
4,57,64,1
4,57,0,59
4,60,64,1
4,62,64,0
4,65,64,0
4,65,0,59
4,62,0,0
4,60,0,0
4,55,64,1
4,55,0,59
4,60,64,1
4,62,64,0
4,65,64,0
4,65,0,59
4,62,0,0
4,60,0,0
4,55,64,1
4,55,0,59
4,59,64,1
4,62,64,0
4,67,64,0
4,67,0,59
4,62,0,0
4,59,0,0
4,55,64,1
4,55,0,59
4,59,64,1
4,62,64,0
4,67,64,0
4,67,0,59
4,62,0,0
4,59,0,0
4,55,64,1
4,55,0,59
4,60,64,1
4,57,64,0
4,53,64,0
4,53,0,119
4,57,0,0
4,60,0,0
4,55,64,1
4,59,64,0
4,62,64,0
4,62,0,119
4,59,0,0
4,55,0,0
4,64,64,1
4,60,64,0
4,57,64,0
4,57,0,119
4,60,0,0
4,64,0,0
4,64,64,1
4,60,64,0
4,57,64,0
4,57,0,59
4,60,0,0
4,64,0,0
4,64,64,1
4,64,0,29
4,65,64,1
4,65,0,29
4,48,64,1
4,52,64,0
4,55,64,0
4,55,0,119
4,52,0,0
4,48,0,0
4,55,64,1
4,52,64,0
4,48,64,0
4,48,0,119
4,52,0,0
4,55,0,0
4,60,64,1
4,57,64,0
4,53,64,0
4,53,0,119
4,57,0,0
4,60,0,0
4,60,64,1
4,57,64,0
