track,note,velocity,time
1,36,87,1536
1,36,96,576
1,36,87,576
1,36,96,576
1,36,87,576
1,36,96,576
1,36,87,576
1,36,96,576
1,36,87,576
1,36,96,576
1,36,87,576
1,36,96,576
1,36,87,576
1,36,96,576
1,36,87,576
1,36,96,576
1,36,87,576
1,36,96,576
1,36,87,576
1,36,96,576
1,36,87,576
1,36,96,576
1,36,87,576
1,36,96,576
1,36,87,576
1,36,96,576
1,36,87,576
1,36,96,576
1,36,87,576
1,36,96,576
1,36,87,576
1,36,96,576
1,36,87,576
1,36,96,576
1,36,87,576
1,36,96,576
1,36,87,576
1,36,96,576
1,36,87,576
1,36,96,576
1,36,87,576
1,36,96,576
1,36,87,576
1,36,96,576
1,36,87,576
1,36,96,576
1,36,87,576
1,36,96,576
1,36,87,576
1,36,87,384
1,36,96,0
1,36,87,576
1,36,87,384
1,36,96,0
1,36,87,576
1,36,87,384
1,36,96,0
1,36,87,576
1,36,87,384
1,36,96,0
1,36,87,576
1,36,87,384
1,36,96,0
1,36,87,576
1,36,87,384
1,36,96,0
1,36,87,576
1,36,87,384
1,36,96,0
1,36,87,576
1,36,87,384
1,36,96,0
1,36,87,576
1,36,87,384
1,36,96,0
1,36,87,576
1,36,87,384
1,36,96,0
1,36,87,576
1,36,87,384
1,36,96,0
1,36,87,576
1,36,87,384
1,36,96,0
1,36,87,576
1,36,87,384
1,36,96,0
1,36,87,576
1,36,87,384
1,36,96,0
1,36,87,576
1,36,87,384
1,36,96,0
1,36,87,576
1,36,87,384
1,36,96,0
1,36,87,576
1,36,96,576
1,36,87,576
1,36,96,576
1,36,87,576
1,36,96,576
1,36,87,576
1,36,96,576
1,36,87,576
1,36,96,576
1,36,87,576
1,36,96,576
1,36,87,576
1,36,96,576
1,36,87,576
1,36,96,576
1,36,87,576
1,36,96,576
1,36,87,576
1,36,96,576
1,36,87,576
1,36,96,576
1,36,87,576
1,36,96,576
1,36,87,576
1,36,96,576
1,36,87,576
1,36,96,576
1,36,87,576
1,36,96,576
1,36,87,576
1,36,96,576
1,36,87,576
1,36,96,576
1,36,87,576
1,36,96,576
1,36,87,576
1,36,96,576
1,36,87,576
1,36,96,576
1,36,87,576
1,36,87,384
1,36,96,0
1,36,87,576
1,36,87,384
1,36,96,0
1,36,87,576
1,36,87,384
1,36,96,0
1,36,87,576
1,36,87,384
1,36,96,0
1,36,87,576
1,36,87,384
1,36,96,0
1,36,87,576
1,36,87,384
1,36,96,0
1,36,87,576
1,36,87,384
1,36,96,0
1,36,87,576
1,36,87,384
1,36,96,0
1,36,87,576
1,36,87,384
1,36,96,0
1,36,87,576
1,36,87,384
1,36,96,0
1,36,87,576
1,36,87,384
1,36,96,0
1,36,87,576
1,36,87,384
1,36,96,0
1,36,87,576
1,36,87,384
1,36,96,0
1,36,87,576
1,36,87,384
1,36,96,0
1,36,87,576
1,36,87,384
1,36,96,0
1,36,87,576
1,36,87,384
1,36,96,0
1,36,87,576
1,36,96,576
1,36,87,576
1,36,96,576
1,36,87,576
1,36,96,576
1,36,87,576
1,36,96,576
1,36,87,576
1,36,96,576
1,36,87,576
1,36,96,576
1,36,87,576
1,36,96,576
1,36,87,576
1,36,96,576
1,36,87,576
1,36,96,576
1,36,87,576
1,36,96,576
1,36,87,576
1,36,96,576
1,36,87,576
1,36,96,576
1,36,87,576
1,36,96,576
1,36,87,576
1,36,96,576
1,36,87,576
1,36,96,576
1,36,87,576
1,36,96,576
1,36,87,576
1,36,96,576
1,36,87,576
1,36,96,576
1,36,87,576
1,36,96,576
1,36,87,576
1,36,96,576
1,36,87,576
1,36,87,384
1,36,96,0
1,36,87,576
1,36,87,384
1,36,96,0
1,36,87,576
1,36,87,384
1,36,96,0
1,36,87,576
1,36,87,384
1,36,96,0
1,36,87,576
1,36,87,384
1,36,96,0
1,36,87,576
1,36,87,384
1,36,96,0
1,36,87,576
1,36,87,384
1,36,96,0
1,36,87,576
1,36,87,384
1,36,96,0
1,36,87,576
1,36,87,384
1,36,96,0
1,36,87,576
1,36,87,384
1,36,96,0
1,36,87,576
1,36,87,384
1,36,96,0
1,36,87,576
1,36,87,384
1,36,96,0
1,36,87,576
1,36,87,384
1,36,96,0
1,36,87,576
1,36,87,384
1,36,96,0
1,36,87,576
1,36,87,384
1,36,96,0
1,36,87,576
1,36,87,384
1,36,96,0
1,36,87,576
1,36,87,384
1,36,96,0
1,36,87,576
1,36,87,384
1,36,96,0
1,36,87,576
1,36,87,384
1,36,96,0
1,36,87,576
1,36,87,384
1,36,96,0
1,36,87,576
1,36,87,384
1,36,96,0
1,36,87,576
1,36,87,384
1,36,96,0
1,36,87,576
1,36,87,384
1,36,96,0
1,36,87,576
1,36,87,384
1,36,96,0
1,36,87,576
1,36,87,384
1,36,96,0
1,36,87,576
1,36,87,384
1,36,96,0
1,36,87,576
1,36,87,384
1,36,96,0
1,36,87,576
1,36,87,384
1,36,96,0
1,36,87,576
1,36,87,384
1,36,96,0
1,36,87,576
1,36,87,384
1,36,96,0
1,36,87,576
1,36,87,384
1,36,96,0
1,36,87,576
1,36,87,384
1,36,96,0
2,38,108,1920
2,38,113,576
2,38,108,576
2,38,113,576
2,38,108,576
2,38,113,576
2,38,108,576
2,38,113,576
2,38,108,576
2,38,113,576
2,38,108,576
2,38,113,576
2,38,108,576
2,38,113,576
2,38,108,576
2,38,113,576
2,38,108,576
2,38,113,576
2,38,108,576
2,38,113,576
2,38,108,576
2,38,113,576
2,38,108,576
2,38,113,576
2,38,108,576
2,38,113,576
2,38,108,576
2,38,113,576
2,38,108,576
2,38,113,576
2,38,108,576
2,38,113,576
2,38,108,576
2,38,113,576
2,38,108,576
2,38,113,576
2,38,108,576
2,38,113,576
2,38,108,576
2,38,113,576
2,38,108,576
2,38,113,576
2,38,108,576
2,38,113,576
2,38,108,576
2,38,113,576
2,38,108,576
2,38,113,576
2,38,108,576
2,38,113,576
2,38,108,576
2,38,113,576
2,38,108,576
2,38,113,576
2,38,108,576
2,38,113,576
2,38,108,576
2,38,113,576
2,38,108,576
2,38,113,576
2,38,108,576
2,38,113,576
2,38,108,576
2,38,113,576
2,38,108,576
2,38,113,576
2,38,108,576
2,38,113,576
2,38,108,576
2,38,113,576
2,38,108,576
2,38,113,576
2,38,108,576
2,38,113,576
2,38,108,576
2,38,113,576
2,38,108,576
2,38,113,576
2,38,108,576
2,38,113,576
2,38,108,576
2,38,113,576
2,38,108,576
2,38,113,576
2,38,108,576
2,38,113,576
2,38,108,576
2,38,113,576
2,38,108,576
2,38,113,576
2,38,108,576
2,38,113,576
2,38,108,576
2,38,113,576
2,38,108,576
2,38,113,576
2,38,108,576
2,38,113,576
2,38,108,576
2,38,113,576
2,38,108,576
2,38,113,576
2,38,108,576
2,38,113,576
2,38,108,576
2,38,113,576
2,38,108,576
2,38,113,576
2,38,108,576
2,38,113,576
2,38,108,576
2,38,113,576
2,38,108,576
2,38,113,576
2,38,108,576
2,38,113,576
2,38,108,576
2,38,113,576
2,38,108,576
2,38,113,576
2,38,108,576
2,38,113,576
2,38,108,576
2,38,113,576
2,38,108,576
2,38,113,576
2,38,108,576
2,38,113,576
2,38,108,576
2,38,113,576
2,38,108,576
2,38,113,576
2,38,108,576
2,38,113,576
2,38,108,576
2,38,113,576
2,38,108,576
2,38,113,576
2,38,108,576
2,38,113,576
2,38,108,576
2,38,113,576
2,38,108,576
2,38,113,576
2,38,108,576
2,38,113,576
2,38,108,576
2,38,113,576
2,38,108,576
2,38,113,576
2,38,108,576
2,38,113,576
2,38,108,576
2,38,113,576
2,38,108,576
2,38,113,576
2,38,108,576
2,38,113,576
2,38,108,576
2,38,113,576
2,38,108,576
2,38,113,576
2,38,108,576
2,38,113,576
2,38,108,576
2,38,113,576
2,38,108,576
2,38,113,576
2,38,108,576
2,38,113,576
2,38,108,576
2,38,113,576
2,38,108,576
2,38,113,576
2,38,108,576
2,38,113,576
2,38,108,576
2,38,113,576
2,38,108,576
2,38,113,576
2,38,108,576
2,38,113,576
2,38,108,576
2,38,113,576
2,38,108,576
2,38,113,576
2,38,108,576
2,38,113,576
2,38,108,576
2,38,113,576
2,38,108,576
2,38,113,576
2,38,108,576
2,38,113,576
2,38,108,576
2,38,113,576
2,38,108,576
2,38,113,576
2,38,108,576
2,38,113,576
2,38,108,576
2,38,113,576
2,38,108,576
2,38,113,576
2,38,108,576
2,38,113,576
2,38,108,576
2,38,113,576
2,38,108,576
2,38,113,576
2,38,108,576
2,38,113,576
2,38,108,576
2,38,113,576
2,38,108,576
2,38,113,576
2,38,108,576
2,38,113,576
2,38,108,576
2,38,113,576
2,38,108,576
2,38,113,576
2,38,108,576
2,38,113,576
2,38,108,576
2,38,113,576
2,38,108,576
2,38,113,576
2,38,108,576
2,38,113,576
2,38,108,576
2,38,113,576
2,38,108,576
2,38,113,576
2,38,108,576
2,38,113,576
2,38,108,576
2,38,113,576
2,38,108,576
2,38,113,576
2,38,108,576
2,38,113,576
2,38,108,576
2,38,113,576
2,38,108,576
2,38,113,576
2,38,108,576
2,38,113,576
2,38,108,576
2,38,113,576
2,38,108,576
2,38,113,576
2,38,108,576
2,38,113,576
2,38,108,576
2,38,113,576
3,47,110,6760
3,47,108,15
3,47,117,13
3,45,118,192
3,41,113,109
3,45,123,0
3,47,110,29962
3,47,108,15
3,47,117,13
3,45,118,192
3,41,113,109
3,45,123,0
3,47,110,54538
3,47,108,15
3,47,117,13
3,45,118,192
3,41,113,109
3,45,123,0
3,47,110,11530
3,47,108,15
3,47,117,13
3,45,118,192
3,41,113,109
3,45,123,0
3,47,110,11530
3,47,108,15
3,47,117,13
3,45,118,192
3,41,113,109
3,45,123,0
3,47,110,29962
3,47,108,15
3,47,117,13
3,45,118,192
3,41,113,109
3,45,123,0
3,47,110,11530
3,47,108,15
3,47,117,13
3,45,118,192
3,41,113,109
3,45,123,0
3,47,110,11530
3,47,108,15
3,47,117,13
3,45,118,192
3,41,113,109
3,45,123,0
4,49,115,7296
4,49,115,29184
4,49,115,53760
4,49,115,10752
4,49,115,10752
4,49,115,29184
4,49,115,10752
4,49,115,10752
5,35,127,1536
5,35,127,0
5,28,127,1152
5,28,127,0
5,35,127,1152
5,35,127,0
5,28,127,1152
5,28,127,0
5,35,127,1152
5,35,127,0
5,35,127,192
5,35,127,0
5,35,127,0
5,35,127,0
5,35,127,0
5,28,127,0
5,28,127,0
5,28,127,192
5,28,127,0
5,28,127,0
5,28,127,0
5,28,127,0
5,35,127,0
5,35,127,0
5,35,127,192
5,35,127,0
5,35,127,0
5,35,127,0
5,35,127,0
5,28,127,0
5,28,127,0
5,28,127,192
5,28,127,0
5,28,127,0
5,28,127,0
5,28,127,0
5,35,127,0
5,35,127,0
5,35,127,192
5,35,127,0
5,35,127,0
5,35,127,0
5,35,127,0
5,28,127,0
5,28,127,0
5,28,127,192
5,28,127,0
5,28,127,0
5,28,127,0
5,28,127,0
5,35,127,0
5,35,127,0
5,35,127,192
5,35,127,0
5,35,127,0
5,35,127,0
5,35,127,0
5,28,127,0
5,28,127,0
5,28,127,192
5,28,127,0
5,28,127,0
5,28,127,0
5,28,127,0
5,35,127,0
5,35,127,0
5,35,127,192
5,35,127,0
5,35,127,0
5,35,127,0
5,35,127,0
5,32,127,0
5,32,127,0
5,32,127,192
5,32,127,0
5,32,127,0
5,32,127,0
5,32,127,0
5,30,127,0
5,30,127,0
5,30,127,192
5,30,127,0
5,30,127,0
5,30,127,0
5,30,127,0
5,28,127,0
5,28,127,0
5,28,127,192
5,28,127,0
5,28,127,0
5,28,127,0
5,28,127,0
5,35,127,0
5,35,127,0
5,35,127,192
5,35,127,0
5,35,127,0
5,35,127,0
5,35,127,0
5,28,127,0
5,28,127,0
5,28,127,192
5,28,127,0
5,28,127,0
5,28,127,0
5,28,127,0
5,35,127,0
5,35,127,0
5,35,127,192
5,35,127,0
5,35,127,0
5,35,127,0
5,35,127,0
5,28,127,0
5,28,127,0
5,28,127,192
5,28,127,0
5,28,127,0
5,28,127,0
5,28,127,0
5,35,127,0
5,35,127,0
5,35,127,192
5,35,127,0
5,35,127,0
5,35,127,0
5,35,127,0
5,32,127,0
5,32,127,0
5,32,127,192
5,32,127,0
5,32,127,0
5,32,127,0
5,32,127,0
5,30,127,0
5,30,127,0
5,30,127,192
5,30,127,0
5,30,127,0
5,30,127,0
5,30,127,0
5,28,127,0
5,28,127,0
5,28,127,192
5,28,127,0
5,28,127,0
5,28,127,0
5,28,127,0
5,26,127,0
5,26,127,192
5,25,127,192
5,25,127,192
5,35,127,192
5,35,127,192
5,33,127,576
5,31,127,0
5,31,127,192
5,26,127,192
5,26,127,192
5,25,127,192
5,25,127,192
5,35,127,192
5,35,127,192
5,33,127,576
5,31,127,0
5,31,127,192
5,26,127,192
5,26,127,192
5,25,127,192
5,25,127,192
5,35,127,192
5,35,127,192
5,33,127,576
5,31,127,0
5,31,127,192
5,26,127,192
5,26,127,192
5,25,127,192
5,25,127,192
5,35,127,192
5,35,127,192
5,33,127,576
5,31,127,0
5,31,127,192
5,35,127,192
5,35,127,0
5,35,127,192
5,35,127,0
5,35,127,0
5,35,127,0
5,35,127,0
5,28,127,0
5,28,127,0
5,28,127,192
5,28,127,0
5,28,127,0
5,28,127,0
5,28,127,0
5,35,127,0
5,35,127,0
5,35,127,192
5,35,127,0
5,35,127,0
5,35,127,0
5,35,127,0
5,28,127,0
5,28,127,0
5,28,127,192
5,28,127,0
5,28,127,0
5,28,127,0
5,28,127,0
5,35,127,0
5,35,127,0
5,35,127,192
5,35,127,0
5,35,127,0
5,35,127,0
5,35,127,0
5,28,127,0
5,28,127,0
5,28,127,192
5,28,127,0
5,28,127,0
5,28,127,0
5,28,127,0
5,35,127,0
5,35,127,0
5,35,127,192
5,35,127,0
5,35,127,0
5,35,127,0
5,35,127,0
5,28,127,0
5,28,127,0
5,28,127,192
5,28,127,0
5,28,127,0
5,28,127,0
5,28,127,0
5,35,127,0
5,35,127,0
5,35,127,192
5,35,127,0
5,35,127,0
5,35,127,0
5,35,127,0
5,32,127,0
5,32,127,0
5,32,127,192
5,32,127,0
5,32,127,0
5,32,127,0
5,32,127,0
5,30,127,0
5,30,127,0
5,30,127,192
5,30,127,0
5,30,127,0
5,30,127,0
5,30,127,0
5,28,127,0
5,28,127,0
5,28,127,192
5,28,127,0
5,28,127,0
5,28,127,0
5,28,127,0
5,35,127,0
5,35,127,0
5,35,127,192
5,35,127,0
5,35,127,0
5,35,127,0
5,35,127,0
5,28,127,0
5,28,127,0
5,28,127,192
5,28,127,0
5,28,127,0
5,28,127,0
5,28,127,0
5,35,127,0
5,35,127,0
5,35,127,192
5,35,127,0
5,35,127,0
5,35,127,0
5,35,127,0
5,28,127,0
5,28,127,0
5,28,127,192
5,28,127,0
5,28,127,0
5,28,127,0
5,28,127,0
5,35,127,0
5,35,127,0
5,35,127,192
5,35,127,0
5,35,127,0
5,35,127,0
5,35,127,0
5,32,127,0
5,32,127,0
5,32,127,192
5,32,127,0
5,32,127,0
5,32,127,0
5,32,127,0
5,30,127,0
5,30,127,0
5,30,127,192
5,30,127,0
5,30,127,0
5,30,127,0
5,30,127,0
5,28,127,0
5,28,127,0
5,28,127,192
5,28,127,0
5,28,127,0
5,28,127,0
5,28,127,0
5,26,127,0
5,26,127,192
5,25,127,192
5,25,127,192
5,35,127,192
5,35,127,192
5,33,127,576
5,31,127,0
5,31,127,192
5,26,127,192
5,26,127,192
5,25,127,192
5,25,127,192
5,35,127,192
5,35,127,192
5,33,127,576
5,31,127,0
5,31,127,192
5,26,127,192
5,26,127,192
5,25,127,192
5,25,127,192
5,35,127,192
5,35,127,192
5,33,127,576
5,31,127,0
5,31,127,192
5,26,127,192
5,26,127,192
5,25,127,192
5,25,127,192
5,35,127,192
5,35,127,192
5,33,127,576
5,31,127,0
5,31,127,192
5,35,127,192
5,35,127,0
5,35,127,192
5,35,127,0
5,35,127,0
5,35,127,0
5,35,127,0
5,28,127,0
