track,note,velocity,time
1,35,70,832
1,35,0,377
1,35,92,43
1,35,0,59
1,44,89,1
1,44,0,402
1,44,85,18
1,44,0,43
1,40,89,17
1,40,0,402
1,40,85,18
1,40,0,43
1,42,92,17
1,47,59,300
1,42,0,2
1,54,92,58
1,47,0,1
1,47,64,59
1,54,0,14
1,47,0,36
1,35,82,10
1,35,0,377
1,35,92,43
1,35,0,59
1,44,82,1
1,44,0,377
1,44,92,43
1,44,0,59
1,40,82,1
1,40,0,377
1,40,92,43
1,40,0,59
1,40,92,1
1,47,59,300
1,40,0,2
1,52,92,58
1,47,0,1
1,47,64,59
1,52,0,14
1,47,0,36
1,35,82,10
1,35,0,377
1,35,92,43
1,35,0,59
1,44,89,1
1,44,0,402
1,44,85,18
1,44,0,43
1,42,85,17
1,42,0,403
1,42,67,17
1,42,0,39
1,42,67,21
1,32,64,420
1,42,0,5
1,32,0,22
1,44,82,33
1,44,0,377
1,44,92,43
1,44,0,59
1,41,82,1
1,41,0,377
1,41,92,43
1,41,0,59
1,37,82,1
1,37,0,377
1,37,92,43
1,37,0,59
1,37,92,1
1,44,59,300
1,37,0,2
1,49,92,58
1,44,0,1
1,44,64,59
1,49,0,14
1,44,0,36
1,44,82,10
1,44,0,377
1,44,92,43
1,44,0,59
1,41,82,1
1,41,0,377
1,41,92,43
1,41,0,59
1,37,89,1
1,37,0,402
1,37,85,18
1,37,0,43
1,37,82,17
1,37,0,377
1,37,92,43
1,37,0,59
1,41,79,1
1,41,0,470
1,41,92,10
1,41,0,475
1,34,85,5
1,34,0,161
1,34,89,19
1,34,0,57
1,34,79,3
1,34,0,240
1,41,92,0
1,48,59,300
1,41,0,2
1,53,92,58
1,48,0,1
1,48,64,59
1,53,0,14
1,48,0,36
1,34,85,10
1,34,0,161
1,34,89,19
1,34,0,57
1,34,79,3
1,34,0,240
1,41,82,0
1,41,0,377
1,41,92,43
1,41,0,59
1,33,79,1
1,33,0,240
1,33,79,0
1,33,0,240
1,38,79,0
1,38,0,240
1,37,85,0
1,37,0,161
1,37,89,19
1,37,0,57
1,36,89,3
1,36,0,402
1,36,85,18
1,36,0,43
1,36,82,17
1,36,0,377
1,36,92,43
1,36,0,59
1,41,89,1
1,41,0,402
1,41,85,18
1,41,0,43
1,38,82,17
1,38,0,377
1,38,92,43
1,38,0,59
1,34,82,1
1,34,0,377
1,34,92,43
1,34,0,59
1,43,82,1
1,43,0,377
1,43,92,43
1,43,0,59
1,36,82,1
1,36,0,377
1,36,92,43
1,36,0,59
1,33,92,1
1,40,59,300
1,33,0,2
1,45,92,58
1,40,0,1
1,40,64,59
1,45,0,14
1,40,0,36
1,41,89,10
1,41,0,402
1,41,85,18
1,41,0,43
1,41,82,17
1,41,0,377
1,41,92,43
1,41,0,59
1,36,89,1
1,36,0,402
1,36,85,18
1,36,0,43
1,33,92,17
1,40,59,300
1,33,0,2
1,45,92,58
1,40,0,1
1,40,64,59
1,45,0,14
1,40,0,36
1,41,89,10
1,41,0,402
1,41,85,18
1,41,0,43
1,41,82,17
1,41,0,377
1,41,92,43
1,41,0,59
1,42,89,1
1,42,0,405
1,42,79,15
1,42,0,27
1,42,82,33
1,42,0,405
1,42,61,15
1,42,0,42
1,35,85,18
1,35,0,161
1,35,89,19
1,35,0,57
1,35,85,3
1,35,0,161
1,35,89,19
1,35,0,57
1,42,82,3
1,42,0,377
1,42,92,43
1,42,0,59
1,35,79,1
1,35,0,240
1,35,79,0
1,35,0,240
1,42,82,0
1,42,0,377
1,42,92,43
1,42,0,59
1,34,85,1
1,34,0,161
1,34,89,19
1,34,0,57
1,34,79,3
1,34,0,240
1,39,79,0
1,39,0,240
1,38,89,0
1,38,0,402
1,38,85,18
1,38,0,43
1,37,82,17
1,37,0,377
1,37,92,43
1,37,0,59
1,37,82,1
1,37,0,377
1,37,92,43
1,37,0,59
1,39,85,1
1,39,0,161
1,39,89,19
1,39,0,57
1,39,79,3
1,39,0,240
1,44,89,0
1,44,0,402
1,44,85,18
1,44,0,43
1,34,89,17
1,34,0,402
1,34,85,18
1,34,0,43
1,37,89,17
1,37,0,405
1,37,79,15
1,37,0,27
1,37,82,33
1,37,0,405
1,37,61,15
1,37,0,42
1,42,89,18
1,42,0,402
1,42,85,18
1,42,0,43
1,35,82,17
1,35,0,377
1,35,92,43
1,35,0,59
1,42,82,1
1,42,0,377
1,42,92,43
1,42,0,59
1,42,92,1
1,42,0,600
2,47,35,827
2,66,53,0
2,63,53,0
2,59,57,0
2,63,0,179
2,61,74,1
2,61,0,265
2,59,0,0
2,66,0,5
2,47,0,6
2,44,45,24
2,63,63,0
2,59,63,0
2,56,68,0
2,59,0,179
2,58,74,1
2,58,0,265
2,56,0,0
2,63,0,5
2,44,0,6
2,64,68,24
2,40,66,0
2,56,63,0
2,59,74,0
2,56,0,164
2,59,0,3
2,64,0,1
2,59,74,12
2,64,74,0
2,54,83,0
2,59,0,270
2,54,0,3
2,64,0,2
2,40,0,13
2,54,45,12
2,71,63,0
2,68,63,0
2,64,68,0
2,68,0,179
2,66,74,1
2,66,0,265
2,64,0,0
2,71,0,5
2,54,0,6
2,66,66,24
2,61,68,0
2,59,66,0
2,47,68,0
2,61,0,163
2,63,57,17
2,63,0,277
2,59,0,4
2,66,0,4
2,47,0,5
2,68,68,10
2,44,66,0
2,59,63,0
2,63,74,0
2,59,0,164
2,63,0,3
2,68,0,1
2,63,74,12
2,68,74,0
2,58,83,0
2,63,0,270
2,58,0,3
2,68,0,2
2,44,0,13
2,52,45,12
2,71,63,0
2,68,63,0
2,64,68,0
2,68,0,179
2,66,74,1
2,66,0,265
2,64,0,0
2,71,0,5
2,52,0,6
2,64,68,24
2,40,66,0
2,55,63,0
2,59,74,0
2,55,0,164
2,59,0,3
2,64,0,1
2,59,74,12
2,64,74,0
2,54,83,0
2,59,0,270
2,54,0,3
2,64,0,2
2,40,0,13
2,47,45,12
2,66,63,0
2,63,63,0
2,59,68,0
2,63,0,179
2,61,74,1
2,61,0,265
2,59,0,0
2,66,0,5
2,47,0,6
2,63,66,24
2,58,68,0
2,56,66,0
2,44,68,0
2,58,0,163
2,59,57,17
2,59,0,277
2,56,0,4
2,63,0,4
2,44,0,5
2,54,49,10
2,56,7,0
2,56,0,18
2,68,60,162
2,61,60,0
2,63,63,0
2,56,60,240
2,56,0,219
2,56,66,21
2,63,0,23
2,68,0,3
2,61,0,2
2,68,66,32
2,61,68,0
2,63,68,0
2,56,0,41
2,56,47,19
2,61,0,20
2,63,0,0
2,68,0,3
2,61,55,37
2,68,57,0
2,63,63,0
2,63,0,63
2,61,0,0
2,68,0,7
2,54,0,18
2,56,0,0
2,68,68,32
2,44,66,0
2,60,63,0
2,63,74,0
2,60,0,164
2,63,0,3
2,68,0,1
2,63,74,12
2,68,74,0
2,58,83,0
2,63,0,270
2,58,0,3
2,68,0,2
2,44,0,13
2,72,66,12
2,67,68,0
2,65,66,0
2,53,68,0
2,67,0,163
2,68,57,17
2,68,0,277
2,65,0,4
2,72,0,4
2,53,0,5
2,68,66,10
2,63,68,0
2,61,66,0
2,49,68,0
2,63,0,163
2,65,57,17
2,65,0,277
2,61,0,4
2,68,0,4
2,49,0,5
2,68,66,10
2,63,68,0
2,61,66,0
2,49,68,0
2,63,0,163
2,64,57,17
2,64,0,277
2,61,0,4
2,68,0,4
2,49,0,5
2,68,68,10
2,44,66,0
2,60,63,0
2,63,74,0
2,60,0,164
2,63,0,3
2,68,0,1
2,63,74,12
2,68,74,0
2,58,83,0
2,63,0,270
2,58,0,3
2,68,0,2
2,44,0,13
2,65,68,12
2,41,66,0
2,56,63,0
2,60,74,0
2,56,0,164
2,60,0,3
2,65,0,1
2,60,74,12
2,65,74,0
2,55,83,0
2,60,0,270
2,55,0,3
2,65,0,2
2,41,0,13
2,68,66,12
2,63,68,0
2,61,66,0
2,49,68,0
2,63,0,163
2,65,57,17
2,65,0,277
2,61,0,4
2,68,0,4
2,49,0,5
2,49,45,10
2,68,63,0
2,64,63,0
2,61,68,0
2,64,0,179
2,63,74,1
2,63,0,265
2,61,0,0
2,68,0,5
2,49,0,6
2,53,54,24
2,67,57,180
2,65,57,0
2,72,60,0
2,67,0,17
2,72,0,3
2,65,0,0
2,65,63,40
2,72,63,0
2,67,60,0
2,67,0,160
2,69,60,20
2,60,79,240
2,69,0,33
2,65,0,0
2,67,76,87
2,65,68,60
2,67,0,21
2,60,0,9
2,60,76,30
2,65,0,13
2,72,0,6
2,53,0,37
2,60,0,0
2,46,55,4
2,69,68,0
2,65,68,0
2,62,68,0
2,72,68,0
2,46,0,136
2,46,60,44
2,62,0,23
2,72,0,0
2,69,0,0
2,65,0,0
2,46,0,20
2,67,47,17
2,65,47,0
2,61,47,0
2,70,47,0
2,70,0,157
2,67,0,0
2,65,0,0
2,61,0,0
2,67,47,23
2,65,47,0
2,61,47,0
2,70,47,0
2,70,0,40
2,67,0,0
2,65,0,0
2,61,0,0
2,65,68,20
2,41,66,0
2,57,63,0
2,60,74,0
2,57,0,164
2,60,0,3
2,65,0,1
2,60,74,12
2,65,74,0
2,55,83,0
2,60,0,270
2,55,0,3
2,65,0,2
2,41,0,13
2,69,57,12
2,65,57,0
2,62,57,0
2,72,57,0
2,72,0,240
2,69,0,0
2,65,0,0
2,62,0,0
2,67,47,0
2,65,47,0
2,61,47,0
2,70,47,0
2,70,0,157
2,67,0,0
2,65,0,0
2,61,0,0
2,67,47,23
2,65,47,0
2,61,47,0
2,70,47,0
2,70,0,40
2,67,0,0
2,65,0,0
2,61,0,0
2,72,66,20
2,67,68,0
2,65,66,0
2,53,68,0
2,67,0,163
2,69,57,17
2,69,0,277
2,65,0,4
2,72,0,4
2,53,0,5
2,67,57,10
2,64,57,0
2,62,57,0
2,71,57,0
2,71,0,240
2,67,0,0
2,64,0,0
2,62,0,0
2,45,55,0
2,67,68,0
2,64,68,0
2,61,68,0
2,69,68,0
2,45,0,136
2,45,60,44
2,61,0,23
2,69,0,0
2,67,0,0
2,64,0,0
2,45,0,20
2,65,47,17
2,62,47,0
2,57,47,0
2,57,0,157
2,62,0,0
2,65,0,0
2,65,47,23
2,62,47,0
2,57,47,0
2,57,0,40
2,62,0,0
2,65,0,0
2,49,55,20
2,65,68,0
2,61,68,0
2,56,68,0
2,49,0,136
2,49,60,44
2,65,0,23
2,56,0,0
2,61,0,0
2,49,0,20
2,65,68,17
2,36,66,0
2,57,63,0
2,60,74,0
2,57,0,164
2,60,0,3
2,65,0,1
2,60,74,12
2,65,74,0
2,55,83,0
2,60,0,270
2,55,0,3
2,65,0,2
2,36,0,13
2,70,68,12
2,48,66,0
2,62,63,0
2,65,74,0
2,62,0,164
2,65,0,3
2,70,0,1
2,65,74,12
2,70,74,0
2,60,83,0
2,65,0,270
2,60,0,3
2,70,0,2
2,48,0,13
2,53,45,12
2,72,63,0
2,69,63,0
2,65,68,0
2,69,0,179
2,67,74,1
2,67,0,265
2,65,0,0
2,72,0,5
2,53,0,6
2,69,66,24
2,64,68,0
2,62,66,0
2,50,68,0
2,64,0,163
2,65,57,17
2,65,0,277
2,62,0,4
2,69,0,4
2,50,0,5
2,65,66,10
2,60,68,0
2,58,66,0
2,46,68,0
2,60,0,163
2,62,57,17
2,62,0,277
2,58,0,4
2,65,0,4
2,46,0,5
2,65,68,10
2,43,66,0
2,57,63,0
2,60,74,0
2,57,0,164
2,60,0,3
2,65,0,1
2,60,74,12
2,65,74,0
2,55,83,0
2,60,0,270
2,55,0,3
2,65,0,2
2,43,0,13
2,67,66,12
2,62,68,0
2,60,66,0
2,48,68,0
2,62,0,163
2,64,57,17
2,64,0,277
2,60,0,4
2,67,0,4
2,48,0,5
2,64,66,10
2,59,68,0
2,57,66,0
2,45,68,0
2,59,0,163
2,60,57,17
2,60,0,277
2,57,0,4
2,64,0,4
2,45,0,5
2,65,68,10
2,41,66,0
2,57,63,0
2,60,74,0
2,57,0,164
2,60,0,3
2,65,0,1
2,60,74,12
2,65,74,0
2,55,83,0
2,60,0,270
2,55,0,3
2,65,0,2
2,41,0,13
2,72,66,12
2,67,68,0
2,65,66,0
2,53,68,0
2,67,0,163
2,68,57,17
2,68,0,277
2,65,0,4
2,72,0,4
2,53,0,5
2,48,45,10
2,67,63,0
2,64,63,0
2,60,68,0
2,64,0,179
2,62,74,1
2,62,0,265
2,60,0,0
2,67,0,5
2,48,0,6
2,45,45,24
2,64,63,0
2,60,63,0
2,57,68,0
2,60,0,179
2,59,74,1
2,59,0,265
2,57,0,0
2,64,0,5
2,45,0,6
2,72,66,24
2,67,68,0
2,65,66,0
2,53,68,0
2,67,0,163
2,69,57,17
2,69,0,277
2,65,0,4
2,72,0,4
2,53,0,5
2,72,66,10
2,67,68,0
2,65,66,0
2,53,68,0
2,67,0,163
2,68,57,17
2,68,0,277
2,65,0,4
2,72,0,4
2,53,0,5
2,42,54,10
2,56,57,180
2,54,57,0
2,61,60,0
2,56,0,17
2,61,0,3
2,54,0,0
2,54,63,40
2,61,63,0
2,56,60,0
2,56,0,160
2,58,60,20
2,49,79,240
2,58,0,33
2,54,0,0
2,56,76,87
2,54,68,60
2,56,0,21
2,49,0,9
2,49,76,30
2,54,0,13
2,61,0,6
2,42,0,37
2,49,0,0
2,70,57,4
2,66,57,0
2,63,57,0
2,73,57,0
2,73,0,240
2,70,0,0
2,66,0,0
2,63,0,0
2,47,55,0
2,62,68,0
2,59,68,0
2,56,68,0
2,66,68,0
2,47,0,136
2,47,60,44
2,56,0,23
2,66,0,0
2,62,0,0
2,59,0,0
2,47,0,20
2,61,66,17
2,56,68,0
2,54,66,0
2,42,68,0
2,56,0,163
2,58,57,17
2,58,0,277
2,54,0,4
2,61,0,4
2,42,0,5
2,47,55,10
2,63,68,0
2,61,68,0
2,58,68,0
2,66,68,0
2,47,0,136
2,47,60,44
2,58,0,23
2,66,0,0
2,63,0,0
2,61,0,0
2,47,0,20
2,47,55,17
2,68,68,0
2,66,68,0
2,62,68,0
2,71,68,0
2,47,0,136
2,47,60,44
2,62,0,23
2,71,0,0
2,68,0,0
2,66,0,0
2,47,0,20
2,61,66,17
2,56,68,0
2,54,66,0
2,42,68,0
2,56,0,163
2,58,57,17
2,58,0,277
2,54,0,4
2,61,0,4
2,42,0,5
2,46,55,10
2,68,68,0
2,65,68,0
2,63,68,0
2,72,68,0
2,46,0,136
2,46,60,44
2,63,0,23
2,72,0,0
2,68,0,0
2,65,0,0
2,46,0,20
2,68,57,17
2,65,57,0
2,62,57,0
2,70,57,0
2,70,0,240
2,68,0,0
2,65,0,0
2,62,0,0
2,63,49,60
2,58,49,0
2,54,49,0
2,54,0,100
2,58,0,0
2,63,0,0
2,63,49,20
2,58,49,0
2,54,49,0
2,54,0,36
2,58,0,0
2,63,0,0
2,69,66,24
2,64,68,0
2,62,66,0
2,50,68,0
2,64,0,163
2,66,57,17
2,66,0,277
2,62,0,4
2,69,0,4
2,50,0,5
2,61,66,10
2,56,68,0
2,54,66,0
2,37,68,0
2,56,0,163
2,58,57,17
2,58,0,277
2,54,0,4
2,61,0,4
2,37,0,5
2,63,66,10
2,58,68,0
2,56,66,0
2,37,68,0
2,58,0,163
2,59,57,17
2,59,0,277
2,56,0,4
2,63,0,4
2,37,0,5
2,51,55,10
2,65,68,0
2,61,68,0
2,58,68,0
2,68,68,0
2,51,0,136
2,51,60,44
2,58,0,23
2,68,0,0
2,65,0,0
2,61,0,0
2,51,0,20
2,63,47,17
2,61,47,0
2,58,47,0
2,67,47,0
2,67,0,157
2,63,0,0
2,61,0,0
2,58,0,0
2,63,47,23
2,61,47,0
2,58,47,0
2,67,47,0
2,67,0,40
2,63,0,0
2,61,0,0
2,58,0,0
2,68,68,20
2,44,66,0
2,59,63,0
2,63,74,0
2,59,0,164
2,63,0,3
2,68,0,1
2,63,74,12
2,68,74,0
2,58,83,0
2,63,0,270
2,58,0,3
2,68,0,2
2,44,0,13
