track,note,velocity,time
1,36,85,1536
1,36,85,4
1,36,85,4
1,36,85,4
1,36,85,4
1,36,85,4
1,36,85,4
1,36,85,4
1,36,85,4
1,36,85,4
1,36,85,4
1,36,85,4
1,36,85,4
1,36,85,4
1,36,85,4
1,36,85,4
1,36,85,4
1,36,85,4
1,36,85,4
1,36,85,4
1,36,85,4
1,36,85,4
1,33,85,4
1,31,85,4
1,31,85,4
1,31,85,4
1,31,85,4
1,31,85,4
1,31,85,4
1,31,85,4
1,31,85,4
1,33,85,4
1,36,85,4
1,36,85,4
1,36,85,4
1,36,85,4
1,36,85,4
1,36,85,4
1,36,85,4
1,36,85,4
1,36,85,4
1,36,85,4
1,36,85,4
1,36,85,4
1,36,85,4
1,36,85,4
1,36,85,4
1,36,85,4
1,36,85,4
1,36,85,4
1,36,85,4
1,36,85,4
1,36,85,4
1,36,85,4
1,36,85,4
1,36,85,4
1,31,85,4
1,31,85,4
1,31,85,4
1,31,85,4
1,31,85,4
1,31,85,4
1,31,85,4
1,33,85,4
1,28,85,4
1,28,85,4
1,28,85,4
1,28,85,4
1,28,85,4
1,28,85,4
1,28,85,4
1,28,85,4
1,29,85,4
1,29,85,4
1,29,85,4
1,29,85,4
1,29,85,4
1,29,85,4
1,29,85,4
1,29,85,4
1,31,85,4
1,31,85,4
1,31,85,4
1,31,85,4
1,31,85,4
1,31,85,4
1,31,85,4
1,31,85,4
1,31,85,4
1,31,85,4
1,31,85,4
1,31,85,4
1,31,85,4
1,33,85,4
1,33,85,4
1,31,85,4
1,33,85,4
1,33,85,4
1,33,85,4
1,33,85,4
1,33,85,4
1,33,85,4
1,33,85,4
1,33,85,4
1,29,85,4
1,29,85,4
1,29,85,4
1,29,85,4
1,29,85,4
1,33,85,4
1,33,85,4
1,36,85,4
1,36,85,4
1,36,85,4
1,36,85,4
1,36,85,4
1,36,85,4
1,36,85,4
1,33,85,4
1,31,85,4
1,31,85,4
1,31,85,4
1,31,85,4
1,31,85,4
1,31,85,4
1,33,85,4
1,33,85,4
1,36,65,4
1,33,85,4
1,33,85,4
1,33,85,4
1,33,85,4
1,33,85,4
1,33,85,4
1,31,85,4
1,31,85,4
1,29,85,4
1,29,85,4
1,29,85,4
1,29,85,4
1,29,85,4
1,29,85,4
1,29,85,4
1,31,85,4
1,31,85,4
1,31,85,4
1,31,85,4
1,31,85,4
1,31,85,4
1,31,85,4
1,31,85,4
1,31,85,4
1,24,85,4
1,24,85,4
1,24,85,4
1,24,85,4
1,24,85,4
1,24,85,4
1,24,85,4
1,24,85,4
1,28,85,4
1,28,85,4
1,28,85,4
1,28,85,4
1,28,85,4
1,28,85,4
1,31,85,4
1,31,85,4
1,31,85,4
1,31,85,4
1,31,85,4
1,31,85,4
1,31,85,4
1,31,85,4
1,31,85,4
1,31,85,4
1,29,75,4
1,31,75,68
1,36,85,2506
1,36,85,4
1,36,85,4
1,36,85,4
1,36,85,4
1,36,85,4
1,36,85,4
1,36,85,4
1,29,85,4
1,29,85,4
1,29,85,4
1,29,85,4
1,29,85,4
1,29,85,4
1,29,85,4
1,29,85,4
1,36,85,4
1,36,85,4
1,36,85,4
1,36,85,4
1,36,85,4
1,36,85,4
1,36,85,4
1,36,85,4
1,29,85,4
1,29,85,4
1,29,85,4
1,29,85,4
1,29,85,4
1,29,85,4
1,29,85,4
1,29,85,4
1,36,85,4
1,36,85,4
1,36,85,4
1,36,85,4
1,36,85,4
1,36,85,4
1,36,85,4
1,36,85,4
1,29,85,4
1,29,85,4
1,29,85,4
1,29,85,4
1,29,85,4
1,29,85,4
1,31,85,4
1,31,85,4
1,36,85,4
1,36,85,4
1,36,85,4
1,36,85,4
1,36,85,4
1,36,85,4
1,36,85,4
1,36,85,4
1,29,85,4
1,29,85,4
1,29,85,4
1,29,85,4
1,29,85,4
1,29,85,4
1,33,85,4
1,33,85,4
1,31,85,4
1,31,85,4
1,31,85,4
1,31,85,4
1,31,85,4
1,31,85,4
1,31,85,4
1,31,85,4
1,29,85,4
1,29,85,4
1,29,85,4
1,29,85,4
1,29,85,4
1,29,85,4
1,29,85,4
1,29,85,4
1,31,85,4
1,31,85,4
1,31,85,4
1,31,85,4
1,31,85,4
1,31,85,4
1,31,85,4
1,31,85,4
1,29,85,4
1,29,85,4
1,29,85,4
1,29,85,4
1,29,85,4
1,29,85,4
1,29,85,4
1,29,85,4
1,36,85,4
1,36,85,4
1,36,85,4
1,36,85,4
1,36,85,4
1,36,85,4
1,36,85,4
1,36,85,4
1,29,85,4
1,36,85,1156
1,36,85,4
1,36,85,4
1,36,85,4
1,36,85,4
1,36,85,4
1,36,85,4
1,36,85,4
1,36,85,4
1,36,85,4
1,36,85,4
1,36,85,4
1,36,85,4
1,36,85,4
1,36,85,4
1,36,85,4
1,36,85,4
1,36,85,4
1,36,85,4
1,36,85,4
1,36,85,4
1,36,85,4
1,33,85,4
1,31,85,4
1,31,85,4
1,31,85,4
1,31,85,4
1,31,85,4
1,31,85,4
1,31,85,4
1,31,85,4
1,33,85,4
1,36,85,4
1,36,85,4
1,36,85,4
1,36,85,4
1,36,85,4
1,36,85,4
1,36,85,4
1,36,85,4
1,36,85,4
1,36,85,4
1,36,85,4
1,36,85,4
1,36,85,4
1,36,85,4
1,36,85,4
1,36,85,4
1,36,85,4
1,36,85,4
1,36,85,4
1,36,85,4
1,36,85,4
1,36,85,4
1,36,85,4
1,36,85,4
1,31,85,4
1,31,85,4
1,31,85,4
1,31,85,4
1,31,85,4
1,31,85,4
1,31,85,4
1,33,85,4
1,28,85,4
1,28,85,4
1,28,85,4
1,28,85,4
1,28,85,4
1,28,85,4
1,28,85,4
1,28,85,4
1,29,85,4
1,29,85,4
1,29,85,4
1,29,85,4
1,29,85,4
1,29,85,4
1,29,85,4
1,29,85,4
1,31,85,4
1,31,85,4
1,31,85,4
1,31,85,4
1,31,85,4
1,31,85,4
1,31,85,4
1,31,85,4
1,31,85,4
1,31,85,4
1,31,85,4
1,31,85,4
1,31,85,4
1,33,85,4
1,33,85,4
1,36,65,4
1,33,85,4
1,33,85,4
1,33,85,4
1,33,85,4
1,33,85,4
1,33,85,4
1,31,85,4
1,31,85,4
1,29,85,4
1,29,85,4
1,29,85,4
1,29,85,4
1,29,85,4
1,29,85,4
1,29,85,4
1,31,85,4
1,31,85,4
1,31,85,4
1,31,85,4
1,31,85,4
1,31,85,4
1,31,85,4
1,31,85,4
1,31,85,4
1,24,85,4
1,24,85,4
1,24,85,4
1,24,85,4
1,24,85,4
1,24,85,4
1,24,85,4
1,24,85,4
1,28,85,4
1,28,85,4
1,28,85,4
1,28,85,4
1,28,85,4
1,28,85,4
1,31,85,4
1,31,85,4
1,31,85,4
1,31,85,4
1,31,85,4
1,31,85,4
1,31,85,4
1,31,85,4
1,31,85,4
1,31,85,4
1,29,75,4
1,31,75,68
1,36,85,2743
1,36,85,4
1,36,85,4
1,36,85,4
1,36,85,4
1,36,85,4
1,36,85,4
1,36,85,4
1,29,85,4
1,29,85,4
1,29,85,4
1,29,85,4
1,29,85,4
1,29,85,4
1,29,85,4
1,29,85,4
1,36,85,4
1,36,85,4
1,36,85,4
1,36,85,4
1,36,85,4
1,36,85,4
1,36,85,4
1,36,85,4
1,29,85,4
1,29,85,4
1,29,85,4
1,29,85,4
1,29,85,4
1,29,85,4
1,29,85,4
1,29,85,4
1,36,85,4
1,36,85,4
1,36,85,4
1,36,85,4
1,36,85,4
1,36,85,4
1,36,85,4
1,36,85,4
1,29,85,4
1,29,85,4
1,29,85,4
1,29,85,4
1,29,85,4
1,29,85,4
1,31,85,4
1,31,85,4
1,36,85,4
1,36,85,4
1,36,85,4
1,36,85,4
1,36,85,4
1,36,85,4
1,36,85,4
1,36,85,4
1,29,85,4
1,29,85,4
1,29,85,4
1,29,85,4
1,29,85,4
1,29,85,4
1,33,85,4
1,33,85,4
1,31,85,4
1,31,85,4
1,31,85,4
1,31,85,4
1,31,85,4
1,31,85,4
1,31,85,4
1,31,85,4
1,29,85,4
1,29,85,4
1,29,85,4
1,29,85,4
1,29,85,4
1,29,85,4
1,29,85,4
1,29,85,4
1,31,85,4
1,31,85,4
1,31,85,4
1,31,85,4
1,31,85,4
1,31,85,4
1,31,85,4
1,31,85,4
1,29,85,4
1,29,85,4
1,29,85,4
1,29,85,4
1,29,85,4
1,29,85,4
1,29,85,4
1,29,85,4
1,36,85,4
1,36,85,4
1,36,85,4
1,36,85,4
1,36,85,4
1,36,85,4
1,36,85,4
1,36,85,4
1,29,85,4
1,29,85,1156
1,29,85,4
1,29,85,4
1,29,85,4
1,29,85,4
1,29,85,4
1,29,85,4
1,29,85,4
1,31,85,4
1,31,85,4
1,31,85,4
1,31,85,4
1,31,85,4
1,31,85,4
1,31,85,4
1,31,85,4
1,33,85,4
1,33,85,4
1,33,85,4
1,33,85,4
1,33,85,4
1,33,85,4
1,33,85,4
1,33,85,4
1,36,85,4
1,36,85,4
1,36,85,4
1,36,85,4
1,36,85,4
1,36,85,4
1,36,85,4
1,36,85,4
1,31,85,4
1,31,85,4
1,31,85,4
1,31,85,4
1,31,85,4
1,31,85,4
1,31,85,4
1,31,85,4
1,36,85,4
1,36,85,4
1,36,85,4
1,36,85,4
1,36,85,4
1,36,85,4
1,36,85,4
1,36,85,4
1,31,85,4
1,31,85,4
1,31,85,4
1,31,85,4
1,31,85,4
1,31,85,4
1,31,85,4
1,31,85,4
1,33,85,4
1,33,85,4
1,33,85,4
1,33,85,4
1,33,85,4
1,33,85,4
1,33,85,4
1,33,85,4
1,29,85,4
1,29,85,4
1,29,85,4
1,29,85,4
1,29,85,4
1,29,85,4
1,29,85,4
1,29,85,4
1,26,85,4
1,26,85,4
1,26,85,4
1,26,85,4
1,26,85,4
1,26,85,4
1,26,85,4
1,26,85,4
1,29,85,4
1,29,85,4
1,29,85,4
1,29,85,4
1,29,85,4
1,29,85,4
1,29,85,4
1,29,85,4
1,31,85,4
1,31,85,4
1,31,85,4
1,31,85,4
1,31,85,4
1,31,85,4
1,31,85,4
1,31,85,4
1,29,75,4
1,31,75,68
1,38,85,3386
1,38,85,4
1,38,85,4
1,38,85,4
1,38,85,4
1,38,85,4
1,38,85,4
1,38,85,4
1,31,85,4
1,31,85,4
1,31,85,4
1,31,85,4
1,31,85,4
1,31,85,4
1,31,85,4
1,31,85,4
1,38,85,4
1,38,85,4
1,38,85,4
1,38,85,4
1,38,85,4
1,38,85,4
1,38,85,4
1,38,85,4
1,31,85,4
1,31,85,4
1,31,85,4
1,31,85,4
1,31,85,4
1,31,85,4
1,31,85,4
1,31,85,4
1,38,85,4
1,38,85,4
1,38,85,4
1,38,85,4
1,38,85,4
1,38,85,4
1,38,85,4
1,38,85,4
1,31,85,4
1,31,85,4
1,31,85,4
1,31,85,4
1,31,85,4
1,33,85,4
1,33,85,4
1,33,85,4
1,38,85,4
1,38,85,4
1,38,85,4
1,38,85,4
1,38,85,4
1,38,85,4
1,38,85,4
1,38,85,4
1,31,85,4
1,31,85,4
1,31,85,4
1,31,85,4
1,31,85,4
1,31,85,4
1,35,85,4
1,35,85,4
1,33,85,4
1,33,85,4
1,33,85,4
1,33,85,4
1,33,85,4
1,33,85,4
1,33,85,4
1,33,85,4
1,31,85,4
1,31,85,4
1,31,85,4
1,31,85,4
1,31,85,4
1,31,85,4
1,31,85,4
1,31,85,4
1,33,85,4
1,33,85,4
1,33,85,4
1,33,85,4
1,33,85,4
1,33,85,4
1,33,85,4
1,33,85,4
1,31,85,4
1,31,85,4
1,31,85,4
1,31,85,4
1,31,85,4
1,31,85,4
1,31,85,4
1,31,85,4
1,38,85,4
1,38,85,4
1,38,85,4
1,38,85,4
1,38,85,4
1,38,85,4
1,38,85,4
1,38,85,4
1,31,85,4
1,38,85,23
1,48,85,4
1,50,85,4
1,50,85,4
1,50,85,4
1,38,75,36
1,38,75,4
1,38,75,4
1,38,75,4
1,38,75,4
1,38,75,4
1,38,75,4
1,38,75,4
1,38,75,4
1,38,75,4
1,38,75,4
1,38,75,4
1,38,75,4
1,38,75,4
1,38,75,4
1,38,75,4
1,38,75,4
1,38,75,4
1,38,75,4
1,38,75,4
1,38,75,4
1,38,75,4
1,38,75,4
1,38,75,4
1,33,85,4
1,33,85,4
1,33,85,4
1,33,85,4
1,33,85,4
1,33,85,4
1,33,85,4
1,33,85,4
1,26,85,4
2,60,100,2976
2,55,100,0
2,64,100,0
2,59,100,4
2,55,100,0
2,62,100,0
2,64,100,4
2,60,100,0
2,55,100,0
2,59,100,4
2,55,100,0
2,62,100,0
2,55,100,4
2,52,100,0
2,59,100,0
2,57,100,4
2,60,100,0
2,53,100,0
2,59,100,4
2,62,100,0
2,55,100,0
2,60,100,4
2,52,100,0
2,57,100,0
2,53,100,4
2,57,100,0
2,60,100,0
2,60,100,4
2,52,100,0
2,55,100,0
2,59,100,4
2,55,100,0
2,62,100,0
2,60,100,4
2,52,100,0
2,57,100,0
2,57,100,4
2,53,100,0
2,60,100,0
2,55,100,4
2,59,100,0
2,62,100,0
2,64,100,4
2,55,100,0
2,60,100,0
2,55,100,4
2,59,100,0
2,52,100,0
2,55,100,4
2,59,100,0
2,62,100,0
2,57,100,4
2,53,100,0
2,60,100,0
2,62,100,4
2,55,100,0
2,59,100,0
2,64,100,3076
2,60,100,0
2,55,100,0
2,60,100,4
2,53,100,0
2,57,100,0
2,60,100,4
2,55,100,0
2,64,100,0
2,57,100,4
2,53,100,0
2,60,100,0
2,55,100,4
2,60,100,0
2,64,100,0
2,57,100,4
2,60,100,0
2,53,100,0
2,60,100,4
2,64,100,0
2,55,100,0
2,60,100,4
2,53,100,0
2,57,100,0
2,55,100,4
2,59,100,0
2,62,100,0
2,60,100,4
2,57,100,0
2,53,100,0
2,55,100,4
2,59,100,0
2,62,100,0
2,53,100,4
2,57,100,0
2,60,100,0
2,64,100,4
2,55,100,0
2,60,100,0
2,60,100,4
2,53,100,0
2,57,100,0
2,64,100,1156
2,60,100,0
2,55,100,0
2,59,100,4
2,55,100,0
2,62,100,0
2,60,100,4
2,64,100,0
2,55,100,0
2,59,100,4
2,55,100,0
2,62,100,0
2,60,100,4
2,57,100,0
2,64,100,0
2,60,100,4
2,57,100,0
2,53,100,0
2,59,100,4
2,62,100,0
2,55,100,0
2,57,100,4
2,52,100,0
2,60,100,0
2,60,100,4
2,53,100,0
2,57,100,0
2,62,100,4
2,59,100,0
2,55,100,0
2,60,100,4
2,64,100,0
2,55,100,0
2,59,100,4
2,52,100,0
2,55,100,0
2,62,100,4
2,59,100,0
2,55,100,0
2,60,100,4
2,53,100,0
2,57,100,0
2,59,100,4
2,55,100,0
2,62,100,0
2,64,100,3076
2,55,100,0
2,60,100,0
2,57,100,4
2,53,100,0
2,60,100,0
2,55,100,4
2,60,100,0
2,64,100,0
2,57,100,4
2,60,100,0
2,53,100,0
2,55,100,4
2,60,100,0
2,64,100,0
2,53,100,4
2,60,100,0
2,57,100,0
2,55,100,4
2,60,100,0
2,64,100,0
2,53,100,4
2,57,100,0
2,60,100,0
2,55,100,4
2,59,100,0
2,62,100,0
2,57,100,4
2,60,100,0
2,53,100,0
2,55,100,4
2,59,100,0
2,62,100,0
2,57,100,4
2,53,100,0
2,60,100,0
2,60,100,4
2,55,100,0
2,64,100,0
2,57,100,4
2,60,100,0
2,53,100,0
2,60,100,1156
2,53,100,0
2,57,100,0
2,55,100,4
2,62,100,0
2,59,100,0
2,64,100,4
2,57,100,0
2,60,100,0
2,60,100,4
2,64,100,0
2,55,100,0
2,55,100,4
2,62,100,0
2,59,100,0
2,60,100,4
2,55,100,0
2,64,100,0
2,55,100,4
2,62,100,0
2,59,100,0
2,60,100,4
2,64,100,0
2,55,100,0
2,53,100,4
2,57,100,0
2,60,100,0
2,57,100,4
2,62,100,0
2,53,100,0
2,57,100,4
2,60,100,0
2,53,100,0
2,59,100,4
2,62,100,0
2,55,100,0
2,53,100,4
2,60,100,0
2,57,100,0
