track,note,velocity,time
1,81,78,52
1,80,110,116
1,81,90,108
1,76,90,24
1,45,78,96
1,52,74,24
1,57,67,96
1,64,82,4
1,57,43,432
1,57,24,44
1,61,67,124
1,45,82,8
1,57,78,24
1,61,8,96
1,69,116,0
1,52,70,76
1,59,64,76
1,64,82,0
1,40,100,0
1,59,6,44
1,52,52,52
1,59,37,20
1,64,74,84
1,71,116,96
1,52,47,48
1,59,47,8
1,64,47,96
1,68,116,72
1,52,57,52
1,59,67,24
1,64,67,44
1,52,26,24
1,57,74,68
1,61,78,0
1,42,100,0
1,66,74,0
1,57,35,88
1,54,35,44
1,57,49,8
1,66,78,20
1,57,64,96
1,54,57,60
1,57,116,96
1,62,116,0
1,57,38,88
1,54,57,40
1,64,116,96
1,57,100,0
1,57,67,88
1,54,52,96
1,57,70,0
1,49,74,0
1,61,78,0
1,37,82,0
1,68,82,0
1,64,82,0
1,57,55,20
1,49,55,96
1,57,57,4
1,66,90,60
1,62,95,0
1,57,86,0
1,38,90,0
1,64,79,812
1,62,83,0
1,57,87,0
1,54,91,24
1,40,78,16
1,57,82,4
1,61,82,0
1,45,86,0
1,52,78,0
1,45,47,136
1,52,52,80
1,45,67,72
1,62,105,44
1,45,90,0
1,57,105,0
1,57,47,24
1,45,64,8
1,64,100,96
1,57,110,0
1,45,64,84
1,59,67,16
1,52,64,0
1,40,82,0
1,56,64,0
1,40,78,32
1,52,60,16
1,59,100,92
1,40,78,28
1,57,110,52
1,40,95,0
1,52,110,0
1,52,74,12
1,40,78,28
1,59,105,44
1,52,110,0
1,40,100,0
1,52,33,44
1,57,67,8
1,54,78,0
1,61,82,0
1,42,82,0
1,42,57,180
1,54,74,76
1,42,57,36
1,54,86,64
1,62,100,0
1,57,90,0
1,42,78,0
1,54,43,32
1,57,95,164
1,64,95,0
1,54,95,0
1,54,67,48
1,42,45,88
1,37,82,60
1,61,86,0
1,56,82,0
1,52,70,0
1,52,49,48
1,49,90,192
1,52,55,48
1,49,64,60
1,62,82,36
1,54,78,0
1,57,74,0
1,38,82,0
1,50,60,28
1,54,43,8
1,66,95,96
1,54,70,80
1,50,67,96
1,57,74,8
1,52,74,0
1,45,86,0
1,61,74,0
1,45,45,36
1,52,74,12
1,61,74,88
1,45,67,40
1,52,105,48
1,45,78,0
1,57,105,0
1,62,110,0
1,52,78,8
1,45,67,24
1,57,82,36
1,52,78,0
1,61,82,0
1,45,82,0
1,52,67,0
1,45,70,36
1,40,90,8
1,52,78,0
1,59,86,0
1,56,67,0
1,52,49,28
1,40,78,52
1,56,70,96
1,57,110,92
1,59,127,96
1,52,90,88
1,40,95,96
1,64,110,0
1,52,70,16
1,59,52,56
1,52,57,64
1,57,95,72
1,56,67,56
1,52,82,96
1,40,86,96
1,45,82,0
1,52,74,0
1,57,74,0
1,61,78,0
1,45,60,76
1,52,60,16
1,64,105,96
1,52,74,92
1,45,67,72
1,62,100,48
1,45,82,0
1,57,110,0
1,57,67,8
1,45,67,28
1,64,110,96
1,57,116,0
1,57,60,68
1,45,70,64
1,49,82,60
1,59,86,0
1,37,95,0
1,61,86,0
1,65,86,0
1,56,78,0
1,61,64,120
1,56,57,0
1,59,74,0
1,65,74,0
1,49,47,76
1,59,116,192
1,66,116,0
1,59,74,84
1,49,74,36
1,32,90,88
1,59,100,0
1,68,110,0
1,59,43,36
1,66,78,12
1,42,90,0
1,61,74,0
1,57,64,0
1,54,28,20
1,57,45,28
1,66,55,0
1,61,67,0
1,57,45,0
1,66,116,192
1,57,60,152
1,54,74,96
1,69,122,96
1,61,90,184
1,61,90,0
1,56,90,0
1,65,100,0
1,49,95,0
1,57,60,0
1,68,82,0
1,56,55,52
1,61,100,136
1,65,100,0
1,56,95,0
1,68,86,0
1,56,60,80
1,49,67,16
1,61,90,52
1,57,60,0
1,65,100,0
1,56,100,0
1,68,82,0
1,49,86,0
1,56,31,32
1,56,60,68
1,68,110,96
1,56,52,64
1,45,86,20
1,61,75,0
1,57,79,0
1,52,74,0
1,52,33,0
1,52,64,160
1,61,55,0
1,57,70,0
1,52,57,76
1,45,70,60
1,62,105,40
1,57,95,0
1,45,86,0
1,57,55,20
1,45,78,44
1,64,116,40
1,45,100,0
1,57,116,0
1,57,70,28
1,45,64,56
1,40,86,16
1,59,78,0
1,56,78,0
1,52,64,0
1,52,43,76
1,59,82,148
1,52,86,0
1,56,90,0
1,52,64,80
1,64,116,192
1,40,90,0
1,40,100,76
1,52,110,0
1,45,100,88
1,52,110,0
1,57,116,0
1,61,122,0
1,52,78,4
1,45,82,32
1,61,100,16
1,54,122,0
1,66,100,0
1,57,122,0
1,42,110,0
1,54,90,0
1,42,90,56
1,61,105,4
1,64,110,0
1,57,122,0
1,52,127,0
1,45,90,0
1,52,57,32
1,57,121,4
1,62,127,0
1,54,109,0
1,69,100,156
1,81,105,0
1,80,100,124
1,68,90,0
1,81,95,136
1,69,95,0
1,62,110,28
1,74,110,0
1,81,100,204
1,69,95,0
1,68,74,124
1,80,90,0
1,69,86,100
1,81,110,0
1,64,110,44
1,76,122,0
1,40,110,0
1,64,105,0
1,59,110,0
1,68,100,0
1,59,70,92
1,64,116,0
1,59,116,0
1,68,100,0
1,59,74,68
1,52,95,12
1,59,110,0
1,64,110,0
1,40,122,0
1,68,100,0
1,59,70,20
1,52,95,12
1,59,95,96
1,71,116,96
1,59,100,60
1,52,95,32
1,61,116,12
1,57,116,0
1,45,100,0
1,64,110,0
1,57,74,100
1,61,116,136
1,64,116,0
1,57,116,0
1,57,95,4
1,45,90,64
1,57,122,52
1,45,110,0
1,62,122,0
1,52,116,0
1,52,110,4
1,62,122,96
1,52,116,4
1,61,110,0
1,45,105,0
1,57,116,0
1,52,100,80
1,45,105,56
1,61,116,28
1,57,122,0
1,66,116,0
1,54,127,0
1,42,116,0
1,54,95,4
1,42,100,60
1,64,122,12
1,45,116,0
1,57,127,0
1,52,122,0
1,61,122,0
1,52,78,40
1,57,121,8
1,54,112,0
1,62,127,0
1,69,105,144
1,81,105,0
1,68,95,132
1,80,110,0
1,81,95,128
1,69,90,0
1,74,116,44
1,62,116,0
1,81,116,224
1,69,105,0
1,80,110,112
1,68,100,0
1,69,100,124
1,81,100,0
1,76,127,44
1,64,95,0
1,40,100,0
1,59,95,0
1,56,95,0
1,64,95,0
1,52,86,84
1,59,52,28
1,64,78,0
1,66,116,96
1,68,116,96
1,71,122,96
1,52,64,8
1,59,70,20
1,64,122,0
1,59,116,0
1,68,110,0
1,59,116,44
1,52,95,40
1,57,100,64
1,54,105,24
1,57,116,0
1,66,110,0
1,61,116,0
1,42,105,0
1,57,70,36
1,54,116,4
1,57,105,96
1,54,100,56
1,66,110,12
1,38,110,0
1,50,122,0
1,62,122,0
1,57,116,0
1,54,116,0
1,52,90,8
1,45,82,0
1,61,86,0
1,57,86,0
1,52,49,44
1,57,95,156
1,61,95,0
1,52,95,0
1,52,74,64
1,45,67,20
1,59,95,40
1,56,95,0
1,52,90,0
1,45,86,0
1,52,70,64
1,52,74,140
1,56,78,0
1,59,82,0
1,52,64,12
1,45,67,40
1,57,105,40
1,52,105,0
1,45,86,0
1,61,90,0
1,52,64,12
1,45,70,32
1,57,95,32
1,52,95,0
1,61,90,0
1,52,78,0
1,45,82,52
1,61,82,96
1,57,95,0
1,42,95,0
1,54,78,0
1,54,60,88
1,61,95,144
1,57,95,0
1,54,95,0
1,54,74,44
1,42,74,72
1,54,78,48
1,42,78,0
1,56,90,0
1,59,90,0
1,52,74,88
1,59,100,136
1,54,90,0
1,56,95,0
1,52,64,0
1,42,57,48
1,61,78,44
1,42,74,0
1,57,74,0
1,52,74,0
1,52,52,64
1,52,116,156
1,57,116,0
1,42,110,0
1,61,122,0
1,52,64,32
1,42,74,64
1,57,95,96
1,62,95,0
1,66,95,0
1,50,95,0
1,38,100,0
1,57,57,84
1,62,100,140
1,57,105,0
1,66,95,0
1,57,78,56
1,50,78,12
1,38,90,96
1,64,95,0
1,62,100,0
1,57,95,0
1,56,78,0
1,56,64,72
1,50,70,60
1,56,78,96
1,62,100,0
1,57,95,0
1,64,86,0
1,56,78,8
1,50,67,8
1,50,100,0
1,66,78,0
1,57,82,0
1,62,90,0
1,57,64,0
1,50,95,56
1,62,116,96
1,57,122,0
1,66,116,0
1,38,105,0
1,57,74,68
1,50,64,80
1,45,95,0
1,52,90,0
1,61,78,0
1,57,95,0
1,52,49,68
1,57,90,152
1,61,86,0
1,52,78,0
1,52,64,44
1,45,64,60
1,56,86,32
1,45,74,0
1,52,74,0
1,59,67,0
1,52,38,0
1,45,82,60
1,45,95,48
1,52,110,0
1,59,116,0
1,56,110,0
1,52,67,12
1,45,82,52
1,61,110,4
1,52,116,0
1,45,95,0
1,57,122,0
1,52,64,28
1,61,116,164
1,37,100,0
1,52,122,0
1,64,116,0
1,57,116,0
1,49,86,0
1,52,105,0
1,68,95,0
1,59,116,0
1,64,116,0
1,40,110,0
1,59,82,24
1,52,90,4
1,64,100,96
1,59,100,0
1,68,90,0
1,40,110,0
1,59,64,20
1,52,78,52
1,52,95,16
1,66,90,0
1,40,82,0
1,59,95,0
1,64,6,0
1,57,95,0
1,57,52,20
1,52,57,48
1,66,90,96
1,57,95,0
1,59,100,0
1,64,100,0
1,57,82,4
1,52,70,28
1,68,95,96
1,64,100,0
1,59,105,0
1,40,105,0
1,66,86,168
1,54,86,0
1,38,95,0
1,62,95,0
1,50,95,0
1,57,95,0
1,61,86,0
1,45,82,0
1,52,82,0
1,57,74,0
1,52,14,72
1,45,67,72
1,52,74,4
1,61,116,76
1,45,70,56
1,59,78,4
1,56,95,0
1,52,82,0
1,40,100,0
1,61,78,40
1,57,82,0
1,52,86,0
1,45,82,0
1,52,57,72
1,61,78,160
1,57,74,0
1,52,82,0
1,52,55,0
1,45,67,76
1,62,110,44
1,45,100,0
1,57,105,0
1,57,67,4
1,45,70,36
1,45,100,4
1,64,110,0
1,57,110,0
1,57,70,16
1,45,45,56
1,52,78,4
1,40,86,0
1,59,78,0
1,56,86,0
1,52,35,80
1,52,78,136
1,59,70,0
1,56,78,0
1,52,57,68
1,40,78,44
1,52,105,52
1,57,105,0
1,40,95,0
1,52,64,52
1,52,116,24
1,59,116,0
1,52,52,60
1,40,74,64
1,42,95,96
1,61,74,0
1,57,86,0
1,54,90,0
1,54,45,56
1,61,74,144
1,54,64,0
1,57,78,0
1,54,67,16
1,42,64,40
1,42,82,28
1,57,105,0
1,54,105,0
1,62,105,0
1,54,67,76
1,42,74,44
1,54,110,36
1,42,86,0
1,64,105,0
1,57,110,0
1,54,64,16
1,42,82,52
1,57,85,0
1,62,90,0
1,54,76,0
1,52,80,0
1,64,76,0
1,40,85,0
1,63,1,12
1,52,90,0
1,45,78,0
1,61,86,0
1,57,90,0
1,52,52,44
1,61,67,148
1,57,74,0
1,52,67,0
1,52,64,12
1,45,64,48
1,62,95,32
1,45,90,0
1,57,82,0
1,52,90,0
1,52,60,0
1,57,100,132
1,52,105,0
1,64,100,0
1,52,57,80
1,45,64,36
1,40,90,96
1,56,78,0
1,59,64,0
1,52,74,0
1,52,33,80
1,59,78,132
1,56,78,0
1,52,78,0
1,52,64,60
1,40,74,48
1,57,95,48
1,40,86,0
1,52,95,0
1,52,64,36
1,40,52,32
1,59,95,36
1,52,100,0
1,40,95,0
1,52,52,24
1,57,74,136
1,61,74,0
1,54,78,0
1,42,82,0
1,61,82,164
1,54,78,0
1,57,82,0
1,42,60,68
1,57,95,44
1,62,95,0
1,54,90,0
1,42,78,0
1,54,31,4
1,42,57,72
1,64,82,52
1,57,105,0
1,54,100,0
1,42,78,0
1,54,64,44
1,56,82,0
1,64,82,0
1,61,82,0
1,57,86,0
1,37,86,0
1,49,52,56
1,56,30,4
1,64,100,8
1,56,64,96
1,49,64,28
1,57,90,36
1,62,100,0
1,54,78,0
1,38,95,0
1,54,49,84
1,50,67,96
1,66,110,96
1,50,64,112
1,62,86,0
1,57,78,0
1,52,74,0
1,61,78,0
1,45,78,0
1,52,78,172
1,57,74,0
1,61,70,0
1,64,90,0
1,45,57,64
1,57,95,28
1,45,86,0
1,62,105,0
1,57,70,60
1,45,70,16
1,61,78,44
1,57,90,0
1,45,86,0
1,57,55,36
1,59,57,156
1,40,64,0
1,56,70,0
1,52,55,0
1,59,78,164
1,52,74,0
1,56,78,0
1,52,64,100
1,40,90,68
1,40,110,60
1,56,110,0
1,57,95,40
1,59,100,96
1,40,52,64
1,40,90,56
1,64,105,0
1,52,82,76
1,57,90,0
1,45,95,0
1,61,82,0
1,52,86,0
1,52,57,76
1,57,82,144
1,52,86,0
1,61,82,0
1,52,55,8
1,45,64,48
1,62,110,36
1,45,82,0
1,57,100,0
1,52,116,0
1,52,78,20
1,57,95,128
1,64,95,0
1,45,95,0
1,52,95,0
1,52,64,0
1,61,82,172
1,65,90,0
1,49,78,0
1,37,82,0
1,59,82,0
1,56,67,0
1,56,49,8
1,59,100,128
1,61,82,0
1,65,86,0
1,56,86,0
1,56,55,4
1,49,78,60
1,59,110,96
1,61,100,0
1,56,110,0
1,66,95,0
1,56,78,32
1,61,100,124
1,59,110,0
1,56,110,0
1,68,95,0
1,41,95,0
1,56,64,44
1,66,100,160
1,57,90,0
1,54,100,0
1,42,110,0
1,61,95,0
1,57,47,44
1,57,82,128
1,66,82,0
1,61,74,0
1,57,47,76
1,66,70,144
1,57,78,0
1,61,74,0
1,54,64,72
1,57,82,40
1,69,122,96
1,57,95,68
1,61,95,16
1,66,90,96
1,59,105,8
1,49,105,0
1,57,60,0
1,56,95,0
1,65,95,0
1,61,95,0
1,56,60,64
1,56,67,140
1,61,82,0
1,59,82,0
1,65,67,0
1,56,78,20
1,59,105,140
1,56,86,0
1,49,90,0
1,57,60,0
1,65,95,0
1,61,95,0
1,56,40,4
1,65,74,136
1,59,78,0
1,61,78,0
1,56,78,0
1,56,49,64
1,52,78,0
1,45,86,0
1,57,86,0
1,61,78,0
1,52,52,8
1,61,74,132
1,52,78,0
1,57,78,0
1,52,64,16
1,45,49,44
1,45,86,44
1,52,110,0
1,62,110,0
1,57,116,0
1,52,52,0
1,45,60,56
1,52,100,48
1,45,74,0
1,61,95,0
1,57,95,0
1,52,67,12
1,45,67,56
1,57,95,96
1,52,100,0
1,40,95,0
1,64,95,0
1,52,52,20
1,40,90,96
1,59,122,44
1,57,95,96
1,52,95,4
1,64,95,88
1,59,86,88
1,52,105,0
1,56,100,0
1,40,95,0
1,52,55,16
1,40,74,56
1,45,116,8
1,52,116,0
1,64,116,0
1,57,116,0
1,61,122,0
1,52,82,8
1,45,105,60
1,57,127,16
1,61,122,0
1,54,127,0
1,66,110,0
1,42,95,0
1,54,78,4
1,42,95,64
1,45,105,96
1,57,116,0
1,52,116,0
1,64,100,0
1,61,110,0
1,52,82,76
1,57,110,0
1,54,105,0
1,62,116,0
1,69,105,140
1,81,95,0
1,68,90,132
1,80,105,0
1,81,82,136
1,69,70,0
1,62,105,28
1,74,116,0
1,69,95,208
1,81,90,0
1,80,105,104
1,68,90,0
1,69,95,120
1,81,100,0
1,64,116,40
1,76,122,0
1,64,95,0
1,59,90,0
1,68,95,0
1,40,95,0
1,64,90,0
1,59,95,0
1,68,86,0
1,59,64,76
1,52,95,96
1,71,122,36
1,59,70,80
1,64,82,0
1,68,122,96
1,64,86,0
1,59,100,16
1,68,122,96
1,52,95,20
1,64,105,4
1,45,105,0
1,57,116,0
1,69,105,0
1,61,105,0
1,57,64,8
1,45,90,44
1,61,110,96
1,69,105,0
1,57,116,0
1,64,116,0
1,57,67,8
1,45,74,64
1,45,116,40
1,57,122,0
1,62,116,0
1,52,110,0
1,52,90,4
1,45,86,24
1,61,116,48
1,57,110,0
1,45,100,0
1,52,116,0
1,52,90,32
1,64,110,12
1,45,100,44
1,57,122,24
1,54,122,0
1,66,105,0
1,42,110,0
1,61,105,0
1,54,95,12
1,42,78,60
1,61,116,32
