track,note,velocity,time
0,48,107,960
0,55,101,0
0,60,124,0
0,48,57,0
0,55,51,0
0,60,74,0
0,60,41,0
0,72,45,0
0,36,111,8
0,62,127,16
0,62,83,0
0,64,127,16
0,64,85,0
0,36,109,60
0,31,107,44
0,52,99,12
0,52,49,0
0,45,111,4
0,60,127,0
0,45,61,0
0,60,80,0
0,33,109,12
0,62,127,12
0,62,85,0
0,64,127,16
0,64,85,0
0,50,99,16
0,50,49,0
0,60,124,4
0,60,74,0
0,43,105,4
0,43,55,0
0,31,110,12
0,62,122,16
0,62,72,0
0,64,127,20
0,64,83,0
0,48,105,24
0,48,55,0
0,41,105,4
0,41,55,0
0,65,127,4
0,65,83,0
0,29,110,12
0,64,124,32
0,64,74,0
0,62,127,20
0,62,87,0
0,55,103,4
0,55,53,0
0,48,105,4
0,48,55,0
0,60,127,4
0,60,83,0
0,60,117,12
0,36,113,8
0,62,127,24
0,62,80,0
0,60,57,96
0,64,127,20
0,64,83,0
0,36,110,56
0,31,108,20
0,52,113,12
0,52,63,0
0,60,127,4
0,60,83,0
0,45,107,4
0,45,57,0
0,33,110,4
0,67,117,4
0,62,127,20
0,62,83,0
0,67,57,16
0,64,127,20
0,64,85,0
0,65,110,8
0,60,127,4
0,31,109,0
0,60,83,0
0,50,101,4
0,50,51,0
0,43,105,4
0,43,55,0
0,64,106,220
0,62,127,12
0,62,87,0
0,65,50,20
0,28,110,20
0,64,127,4
0,64,83,0
0,60,112,4
0,64,46,8
0,48,107,20
0,29,112,0
0,48,57,0
0,41,120,4
0,65,126,0
0,41,70,0
0,65,76,0
0,57,104,0
0,60,52,4
0,57,44,0
0,48,99,48
0,55,98,0
0,60,113,0
0,64,101,0
0,48,49,0
0,55,48,0
0,60,63,0
0,64,51,0
0,36,111,4
0,67,111,0
0,55,99,4
0,55,49,0
0,60,113,4
0,64,115,0
0,60,63,0
0,64,65,0
0,67,103,0
0,45,90,12
0,33,109,0
0,45,40,0
0,55,101,4
0,55,51,0
0,57,103,4
0,60,101,0
0,57,53,0
0,60,51,0
0,64,115,4
0,64,65,0
0,65,87,0
0,64,99,0
0,64,107,0
0,55,92,100
0,55,42,0
0,57,93,4
0,57,43,0
0,60,111,4
0,64,117,0
0,60,61,0
0,64,67,0
0,65,79,0
0,64,95,0
0,64,99,0
0,43,99,76
0,43,49,0
0,55,117,4
0,59,115,0
0,55,67,0
0,59,65,0
0,62,117,4
0,62,67,0
0,31,110,12
0,62,83,0
0,62,91,0
0,55,96,140
0,55,46,0
0,59,113,4
0,59,63,0
0,62,105,4
0,62,55,0
0,31,108,20
0,31,108,32
0,55,105,4
0,55,55,0
0,59,117,4
0,59,67,0
0,62,113,4
0,62,63,0
0,59,115,144
0,59,65,0
0,55,101,4
0,55,51,0
0,62,115,4
0,62,65,0
0,57,124,0
0,57,74,0
0,57,103,0
0,33,109,16
0,60,91,0
0,60,99,4
0,36,110,0
0,60,49,0
0,50,113,20
0,50,63,0
0,62,120,4
0,62,70,0
0,57,111,0
0,65,124,0
0,38,110,0
0,57,61,0
0,65,74,0
0,62,111,0
0,62,103,0
0,62,107,0
0,57,117,96
0,57,67,0
0,62,120,4
0,65,122,0
0,62,70,0
0,65,72,0
0,64,103,0
0,57,99,0
0,45,99,8
0,45,49,0
0,57,107,8
0,57,57,0
0,60,113,4
0,64,117,0
0,60,63,0
0,64,67,0
0,33,110,8
0,64,117,140
0,64,67,0
0,57,109,4
0,60,113,0
0,57,59,0
0,60,63,0
0,57,95,0
0,60,91,0
0,62,107,0
0,62,57,0
0,62,107,0
0,53,99,4
0,34,108,0
0,53,49,0
0,46,95,4
0,58,113,0
0,46,45,0
0,58,63,0
0,60,117,4
0,60,67,0
0,62,99,0
0,62,107,0
0,53,101,112
0,53,51,0
0,60,115,4
0,62,101,0
0,60,65,0
0,62,51,0
0,58,105,4
0,58,55,0
0,34,110,16
0,64,103,0
0,62,107,0
0,31,109,8
0,43,103,16
0,43,53,0
0,60,115,4
0,62,113,0
0,60,65,0
0,62,63,0
0,55,111,4
0,55,61,0
0,55,99,44
0,55,49,0
0,62,107,4
0,62,57,0
0,60,117,4
0,60,67,0
0,67,127,8
0,67,80,0
0,48,99,32
0,55,98,0
0,60,113,0
0,64,101,0
0,48,49,0
0,55,48,0
0,60,63,0
0,64,51,0
0,60,67,0
0,36,111,8
0,67,111,0
0,55,99,4
0,55,49,0
0,60,113,4
0,64,115,0
0,60,63,0
0,64,65,0
0,36,110,48
0,31,106,16
0,67,95,0
0,45,90,8
0,33,108,0
0,45,40,0
0,55,101,4
0,55,51,0
0,57,103,4
0,60,101,0
0,57,53,0
0,60,51,0
0,64,115,4
0,64,65,0
0,65,91,0
0,64,71,0
0,64,103,0
0,55,92,108
0,55,42,0
0,57,93,4
0,57,43,0
0,60,111,4
0,64,117,0
0,60,61,0
0,64,67,0
0,65,79,0
0,64,91,0
0,64,95,0
0,43,99,80
0,43,49,0
0,55,117,4
0,59,115,0
0,55,67,0
0,59,65,0
0,62,117,4
0,62,67,0
0,31,107,8
0,62,60,8
0,62,87,0
0,62,95,0
0,55,96,140
0,55,46,0
0,59,113,4
0,59,63,0
0,62,105,4
0,62,55,0
0,31,106,28
0,31,109,44
0,55,105,4
0,55,55,0
0,59,117,4
0,59,67,0
0,62,113,4
0,62,63,0
0,59,115,44
0,59,65,0
0,55,101,4
0,55,51,0
0,62,115,4
0,62,65,0
0,31,110,4
0,33,107,28
0,57,103,0
0,36,110,8
0,57,124,4
0,57,74,0
0,64,65,8
0,60,83,0
0,60,99,12
0,60,49,0
0,50,113,0
0,50,63,0
0,62,111,0
0,62,120,4
0,62,70,0
0,57,111,4
0,65,124,0
0,57,61,0
0,65,74,0
0,38,108,0
0,65,63,0
0,62,95,0
0,62,111,0
0,57,117,100
0,57,67,0
0,62,120,4
0,65,122,0
0,62,70,0
0,65,72,0
0,60,87,0
0,60,87,0
0,45,99,16
0,45,49,0
0,57,107,4
0,57,57,0
0,60,113,4
0,64,117,0
0,60,63,0
0,64,67,0
0,33,109,4
0,64,63,12
0,64,117,8
0,64,67,0
0,57,109,4
0,60,113,0
0,57,59,0
0,60,63,0
0,64,115,0
0,33,107,0
0,62,63,0
0,46,95,0
0,58,99,0
0,60,120,0
0,62,111,0
0,65,111,0
0,46,45,0
0,58,49,0
0,60,70,0
0,62,61,0
0,65,61,0
0,64,115,0
0,62,120,0
0,34,108,0
0,62,70,0
0,62,87,0
0,62,91,0
0,58,103,104
0,58,53,0
0,60,113,4
0,65,115,0
0,60,63,0
0,65,65,0
0,62,113,4
0,62,63,0
0,33,108,16
0,45,101,8
0,57,109,0
0,45,51,0
0,57,59,0
0,60,120,4
0,65,117,0
0,60,70,0
0,65,67,0
0,57,113,92
0,57,63,0
0,65,120,4
0,65,70,0
0,60,124,4
0,60,74,0
0,57,87,0
0,38,108,12
0,60,103,0
0,62,111,0
0,74,70,0
0,43,99,4
0,31,109,0
0,43,49,0
0,55,113,4
0,62,122,0
0,55,63,0
0,62,72,0
0,60,122,4
0,60,72,0
0,62,107,0
0,62,103,0
0,55,115,116
0,55,65,0
0,60,120,4
0,62,122,0
0,60,70,0
0,62,72,0
0,64,91,0
0,62,47,0
0,60,103,12
0,62,107,36
0,55,105,112
0,55,55,0
0,43,101,4
0,59,120,0
0,43,51,0
0,59,70,0
0,62,117,4
0,62,67,0
0,43,114,0
0,64,79,0
0,62,31,24
0,60,83,0
0,62,87,32
0,60,115,0
0,41,122,4
0,53,124,0
0,45,50,0
0,48,54,0
0,41,93,0
0,48,93,0
0,35,124,0
0,53,74,0
0,57,104,0
0,60,127,4
0,41,54,0
0,65,67,0
0,57,122,4
0,77,72,0
0,29,115,8
0,60,107,0
0,60,111,0
0,62,119,0
0,43,122,20
0,55,127,4
0,43,96,0
0,50,96,0
0,59,127,4
0,62,127,0
0,35,124,0
0,49,104,0
0,31,115,8
0,47,67,4
0,50,60,4
0,67,63,0
0,43,65,4
0,79,72,4
0,62,103,0
0,64,119,0
0,45,90,8
0,52,90,0
0,45,109,4
0,57,127,0
0,48,63,0
0,35,124,0
0,53,74,0
0,57,104,0
0,60,127,0
0,64,115,0
0,45,58,0
0,52,56,0
0,64,127,4
0,69,67,0
0,81,78,4
0,33,115,4
0,53,74,144
0,40,124,120
0,53,74,0
0,54,124,0
0,57,120,12
0,60,126,0
0,64,122,4
0,45,50,24
0,52,50,0
0,53,74,0
0,64,103,0
0,33,115,4
0,57,127,8
0,64,103,4
0,65,103,0
0,59,127,8
0,35,124,0
0,35,111,4
0,47,73,0
0,54,73,0
0,48,117,4
0,48,43,0
0,55,127,0
0,67,111,0
0,43,52,0
0,52,43,0
0,35,124,0
0,53,74,0
0,60,127,4
0,64,127,0
0,36,114,4
0,48,78,12
0,55,78,0
0,79,72,4
0,67,75,4
0,67,107,0
0,53,74,8
0,67,111,0
0,64,127,96
0,55,127,4
0,40,124,0
0,53,74,0
0,54,124,0
0,60,127,4
0,65,99,0
0,64,107,0
0,53,74,8
0,28,114,4
0,45,50,12
0,41,109,0
0,60,120,0
0,60,111,0
0,41,54,0
0,41,87,0
0,48,87,0
0,53,122,4
0,35,124,0
0,53,74,0
0,57,113,4
0,29,113,4
0,65,70,8
0,77,70,4
0,53,74,172
0,53,117,180
0,40,124,0
0,53,74,0
0,54,124,0
0,57,117,4
0,60,122,0
0,53,74,188
0,60,79,0
0,41,117,36
0,41,50,0
0,53,127,0
0,60,124,0
0,29,114,0
0,60,107,0
0,45,47,0
0,35,124,0
0,53,74,0
0,57,104,0
0,57,122,4
0,48,45,0
0,41,87,0
0,48,87,0
0,65,70,20
0,77,75,0
0,60,107,0
0,60,95,0
0,53,74,4
0,62,115,0
0,43,117,4
0,55,127,4
0,59,127,4
0,62,127,0
0,31,111,4
0,43,87,0
0,50,87,0
0,40,124,0
0,53,74,0
0,47,63,12
0,43,63,4
0,50,56,4
0,67,70,0
0,79,81,4
0,60,83,0
0,64,119,0
0,53,74,8
0,64,111,0
0,45,101,12
0,57,122,4
0,45,90,0
0,52,90,0
0,60,127,4
0,64,127,0
0,35,124,0
0,53,74,0
0,33,110,4
0,45,54,12
0,48,52,4
0,52,52,0
0,69,65,4
0,81,75,4
0,53,74,28
0,45,112,4
0,57,124,20
0,60,127,0
0,64,127,4
0,40,124,0
0,53,74,0
0,54,124,0
0,62,111,0
0,60,95,0
0,53,74,8
0,61,107,0
0,62,103,12
0,43,101,40
0,47,67,0
0,55,126,4
0,31,115,0
0,50,63,0
0,35,124,0
0,49,104,0
0,53,74,0
0,59,124,4
0,62,122,0
0,43,63,0
0,79,75,0
0,67,70,4
0,43,87,8
0,50,87,0
0,59,107,0
0,53,74,100
0,55,127,152
0,59,127,4
0,62,127,0
0,40,124,4
0,53,74,0
0,54,124,0
0,67,127,176
0,53,74,4
0,35,124,68
0,38,114,4
0,55,124,36
0,35,124,0
0,53,74,0
0,59,120,4
0,62,120,4
0,43,115,0
0,67,80,152
0,53,74,12
0,62,127,12
0,40,124,0
0,53,74,0
0,54,124,0
0,55,127,4
0,59,127,0
0,43,111,4
0,47,124,68
0,45,124,0
0,53,74,0
0,59,79,0
0,40,124,0
0,60,111,0
0,41,122,4
0,53,124,0
0,29,115,0
0,41,63,0
0,41,90,0
0,48,90,0
0,35,124,0
0,53,74,0
0,57,104,0
0,60,127,4
0,45,65,0
0,48,63,0
0,57,122,4
0,65,72,0
0,77,75,4
0,60,107,0
0,60,107,0
0,62,115,0
0,31,110,20
0,43,122,8
0,55,127,4
0,59,127,4
0,62,127,0
0,35,124,0
0,49,104,0
0,43,90,8
0,50,90,0
0,43,67,4
0,47,67,4
0,67,72,4
0,79,75,0
0,50,65,4
0,77,21,4
0,62,103,0
0,64,119,44
0,45,109,8
0,57,127,0
0,33,113,0
0,35,124,0
0,53,74,0
0,57,104,0
0,60,127,0
0,64,115,0
0,64,127,4
0,45,96,4
0,52,96,0
0,69,70,4
0,81,75,4
0,48,56,4
0,52,56,0
0,45,58,4
0,53,74,156
0,40,124,56
0,53,74,0
0,54,124,0
0,57,120,12
0,60,126,0
0,64,122,4
0,45,67,20
0,52,67,0
0,53,74,4
0,64,107,0
0,33,113,8
0,57,127,4
0,64,103,4
0,47,69,4
0,54,69,0
0,65,103,0
0,59,127,8
0,35,124,0
0,35,111,4
0,48,82,20
0,55,82,0
0,48,117,4
0,55,127,0
0,67,107,0
0,35,124,0
0,53,74,0
0,60,127,4
0,64,127,0
0,36,114,4
0,48,47,12
0,43,52,4
0,52,50,0
0,79,70,4
0,67,75,4
0,67,103,0
0,53,74,8
0,67,115,0
0,64,127,72
0,55,127,4
0,40,124,0
0,53,74,0
0,54,124,0
0,60,127,4
0,65,99,0
0,64,103,0
0,53,74,4
0,36,108,8
0,40,107,20
0,41,109,0
0,60,120,0
0,60,111,0
0,53,122,4
0,48,52,0
0,35,124,0
0,53,74,0
0,57,113,4
0,41,113,4
0,41,93,4
0,48,93,0
0,45,54,4
0,41,56,4
0,69,67,4
0,81,75,0
0,53,74,168
0,53,117,180
0,40,124,0
0,53,74,0
0,54,124,0
0,57,117,4
0,60,122,0
0,53,74,188
0,60,75,0
0,41,117,0
0,60,103,0
0,53,127,4
0,60,124,0
0,45,54,0
0,35,124,0
0,53,74,0
0,57,104,0
0,57,122,4
0,41,56,0
0,48,56,0
0,77,75,4
0,65,75,4
0,41,87,0
0,48,87,0
0,29,115,4
0,60,91,0
0,60,95,0
0,42,114,4
0,53,74,0
0,62,107,0
0,43,117,16
0,55,127,4
0,59,127,4
0,62,127,0
0,40,124,4
0,53,74,0
0,31,114,4
0,43,82,4
0,50,82,0
0,47,67,8
0,67,72,0
0,50,63,4
0,79,75,0
0,43,65,4
0,60,95,60
0,64,111,0
0,53,74,8
0,64,115,0
0,45,101,44
0,57,122,4
0,60,127,4
0,64,127,0
0,35,124,0
0,53,74,0
0,33,114,8
0,45,85,0
0,52,85,0
0,48,65,4
0,52,65,4
0,45,63,4
0,69,67,0
0,81,75,4
0,53,74,0
0,57,124,12
0,60,127,0
0,64,127,4
0,40,124,0
0,53,74,0
0,54,124,0
0,62,103,0
0,60,103,0
0,38,109,8
0,53,74,0
0,62,111,0
0,43,101,36
0,43,103,0
0,55,95,0
0,59,99,0
0,62,120,0
0,67,120,0
0,35,124,0
0,49,104,0
0,43,116,4
0,43,63,0
0,47,67,0
0,50,54,0
0,67,72,4
0,79,72,4
0,43,80,4
0,50,80,0
0,59,103,0
0,42,114,256
0,51,124,0
0,51,124,0
0,53,74,24
0,51,124,16
0,53,74,28
0,48,105,8
0,55,98,0
0,60,113,0
0,62,96,0
0,36,113,0
0,60,117,0
0,48,62,0
0,55,62,0
0,51,124,0
0,72,56,0
0,60,50,32
0,62,111,12
0,60,57,88
0,42,114,0
0,64,120,8
0,64,70,0
0,51,124,84
0,45,103,60
0,45,53,0
0,52,90,0
0,52,40,0
0,60,117,4
0,60,67,0
0,53,74,0
0,33,111,8
0,67,117,0
0,62,113,8
0,62,63,0
0,42,114,112
0,67,57,8
0,64,122,16
0,64,72,0
0,51,124,100
0,43,115,8
0,50,99,0
0,43,65,0
0,50,49,0
0,60,122,4
0,60,72,0
0,65,110,0
0,53,74,0
0,31,110,12
0,64,106,0
0,62,113,8
0,62,63,0
0,65,50,20
0,42,114,0
0,64,120,20
0,64,70,0
0,60,112,4
0,51,124,4
0,28,110,8
0,64,46,32
0,51,124,0
0,60,99,8
0,60,49,0
0,57,99,4
0,57,49,0
0,57,104,0
0,53,74,0
0,48,95,4
0,48,45,0
0,41,105,4
0,41,55,0
0,29,109,4
0,60,52,4
0,57,44,0
0,42,114,0
0,47,124,612
0,48,124,0
0,45,124,92
0,47,124,0
0,48,99,48
0,55,98,0
0,60,113,0
0,64,101,0
0,48,49,0
0,55,48,0
0,60,63,0
0,64,51,0
0,35,124,0
0,42,114,0
0,49,104,0
0,36,111,4
0,55,58,0
