track,note,velocity,time
1,40,85,2
1,33,93,127
1,33,91,73
1,33,91,68
1,33,64,32
1,35,87,15
1,28,82,6
1,28,83,0
1,28,85,33
1,28,95,37
1,28,99,48
1,28,71,32
1,30,84,9
1,30,79,53
1,30,91,61
1,45,79,86
1,47,66,1
1,37,84,48
1,38,76,0
1,28,91,10
1,33,79,3
1,33,87,78
1,33,91,70
1,28,79,35
1,28,91,75
1,28,87,67
1,30,91,24
1,30,95,82
1,30,87,68
1,37,84,70
1,37,79,67
1,38,71,61
1,38,66,7
1,38,66,16
1,33,95,4
1,33,87,69
1,33,99,71
1,28,95,1
1,28,91,73
1,28,91,71
1,33,95,1
1,33,87,62
1,33,84,66
1,37,87,6
1,25,82,288
1,25,82,74
1,32,99,20
1,30,87,192
1,30,95,71
1,30,95,71
1,37,87,12
1,25,91,19
1,25,87,73
1,33,99,90
1,33,87,78
1,33,99,71
1,28,95,384
1,28,99,73
1,28,99,69
1,33,111,55
1,30,115,94
1,33,107,34
1,26,106,45
1,26,106,48
1,26,106,72
1,26,110,45
1,28,107,13
1,28,93,29
1,28,102,20
1,28,106,19
1,33,106,80
1,28,100,13
1,30,100,0
1,33,102,3
1,33,81,20
1,30,95,48
1,28,95,48
1,30,110,0
1,33,104,8
1,26,106,12
1,26,81,19
1,26,99,34
1,26,76,41
1,28,102,0
1,28,81,27
1,28,104,33
1,30,98,40
1,28,74,192
1,26,91,82
1,28,83,0
1,30,91,0
1,33,98,6
1,33,87,24
1,33,85,80
1,33,89,34
1,30,89,16
1,30,64,28
1,30,83,32
1,30,84,43
1,30,87,24
1,38,93,0
1,26,85,384
1,26,91,67
1,26,93,33
1,33,87,36
1,33,87,32
1,33,89,79
1,33,89,41
1,32,78,24
1,33,89,3
1,28,95,6
1,28,98,21
1,28,100,72
1,28,95,27
1,26,100,5
1,33,87,0
1,28,91,6
1,33,91,0
1,33,91,73
1,33,95,68
1,33,64,32
1,35,87,15
1,28,82,6
1,28,76,0
1,28,64,33
1,28,95,37
1,28,99,48
1,28,71,32
1,30,84,9
1,30,79,53
1,30,91,61
1,28,91,192
1,33,79,387
1,33,87,78
1,33,91,70
1,28,79,35
1,28,91,75
1,28,87,67
1,30,91,24
1,30,95,82
1,30,87,68
1,37,84,70
1,37,79,67
1,38,71,61
1,38,66,7
1,38,66,16
1,33,95,4
1,33,87,69
1,33,99,71
1,28,95,384
1,28,91,73
1,28,91,71
1,33,95,1
1,33,98,62
1,33,91,66
1,37,87,6
1,25,82,288
1,25,91,74
1,32,99,20
1,30,87,192
1,30,95,71
1,30,95,71
1,37,89,12
1,25,98,19
1,25,87,73
1,33,99,90
1,33,87,78
1,33,99,71
1,28,95,39
1,28,99,73
1,28,99,69
1,33,111,55
1,30,115,192
1,33,107,34
1,26,106,45
1,26,106,65
1,26,106,72
1,26,110,45
1,28,107,13
1,28,93,29
1,28,102,20
1,28,106,19
1,33,106,80
1,28,100,13
1,30,100,0
1,33,106,3
1,33,81,20
1,30,95,48
1,28,95,48
1,30,110,0
1,33,104,8
1,26,106,12
1,26,81,19
1,26,108,34
1,26,91,41
1,28,98,0
1,28,81,27
1,28,104,33
1,30,98,40
1,28,93,192
1,26,91,82
1,28,83,0
1,30,91,0
1,33,98,6
1,33,87,24
1,33,91,80
1,33,104,34
1,30,89,16
1,30,85,28
1,30,83,32
1,30,84,43
1,30,87,24
1,38,93,0
1,26,85,384
1,26,91,67
1,26,93,33
1,33,87,36
1,33,87,32
1,33,89,79
1,33,89,41
1,32,78,24
1,33,89,3
1,28,95,6
1,28,98,21
1,28,100,72
1,28,95,27
1,26,100,5
1,33,87,0
1,28,91,6
1,30,107,0
1,26,103,18
1,26,87,28
1,26,103,25
1,26,95,55
1,30,111,23
1,28,91,18
1,28,68,24
1,28,100,27
1,28,95,41
1,30,87,20
1,26,95,22
1,26,82,27
1,26,99,26
1,26,87,40
1,30,107,43
1,33,107,42
1,33,87,20
1,33,87,20
1,33,87,8
1,26,82,96
1,28,115,0
1,28,107,41
1,28,115,25
1,28,111,46
1,26,111,17
1,33,115,9
1,33,95,32
1,33,103,30
1,33,99,46
1,26,107,96
1,28,107,13
1,28,99,14
1,28,91,27
1,28,107,46
1,26,107,1
1,33,111,192
1,33,87,31
1,33,103,29
1,33,111,45
1,26,115,96
1,30,115,4
1,30,95,36
1,30,115,30
1,30,115,40
1,26,115,288
1,26,91,28
1,26,107,30
1,26,95,53
1,28,103,9
1,35,98,285
1,35,87,24
1,35,85,80
1,35,89,34
1,32,89,16
1,32,85,28
1,32,83,32
1,32,84,43
1,32,87,24
1,40,93,0
1,28,85,384
1,28,91,67
1,28,93,33
1,35,87,36
1,35,87,32
1,35,89,79
1,35,89,41
1,34,78,24
1,35,89,3
1,30,115,6
1,30,84,25
1,30,103,29
1,30,99,48
1,34,87,10
1,30,73,48
1,28,107,192
1,35,107,10
1,35,69,39
1,35,95,34
1,35,95,35
1,32,91,144
1,30,79,9
1,23,115,5
1,23,45,2
1,30,95,27
1,30,98,21
1,30,100,72
1,30,95,27
1,28,100,5
1,35,87,0
1,30,91,6
1,28,107,22
1,23,56,14
2,57,12,5
2,62,12,0
2,64,12,0
2,57,14,5
2,62,31,51
2,64,33,0
2,57,18,5
2,57,19,45
2,62,31,0
2,64,33,0
2,57,14,42
2,57,6,53
2,61,30,0
2,64,32,0
2,57,27,1
2,57,18,59
2,59,28,0
2,64,28,0
2,57,36,32
2,59,27,60
2,64,28,0
2,57,25,3
2,57,21,1
2,61,36,0
2,64,34,0
2,57,21,26
2,61,27,52
2,64,41,0
2,57,13,6
2,57,50,15
2,62,50,0
2,64,37,0
2,57,19,1
2,62,50,63
2,64,32,0
2,57,19,96
2,69,82,98
2,81,91,0
2,68,87,82
2,80,87,0
2,69,79,82
2,81,76,0
2,64,87,35
2,76,91,0
2,57,67,9
2,61,79,0
2,62,5,17
2,57,42,7
2,57,79,29
2,61,91,0
2,57,53,45
2,57,95,80
2,62,87,0
2,57,62,24
2,57,82,73
2,64,95,0
2,57,62,6
2,56,87,7
2,64,82,0
2,56,27,18
2,56,87,86
2,64,87,0
2,56,55,17
2,57,91,3
2,64,87,0
2,57,36,14
2,59,87,3
2,64,84,0
2,57,79,6
2,61,87,0
2,57,46,2
2,57,84,83
2,61,87,0
2,57,57,41
2,57,87,81
2,62,99,0
2,57,55,23
2,57,87,77
2,64,103,0
2,56,76,22
2,61,73,0
2,64,82,0
2,57,79,74
2,62,86,0
2,64,78,0
2,69,73,30
2,64,74,11
2,40,70,16
2,62,63,0
2,57,83,11
2,52,73,1
2,52,76,9
2,57,84,0
2,61,82,0
2,52,35,16
2,57,73,52
2,61,73,0
2,52,64,5
2,57,87,55
2,62,82,0
2,52,64,24
2,57,25,10
2,57,82,38
2,64,87,0
2,52,53,12
2,52,73,77
2,56,79,0
2,59,84,0
2,52,35,17
2,56,62,63
2,59,68,0
2,52,45,2
2,52,91,80
2,57,95,0
2,52,56,16
2,52,71,73
2,59,87,0
2,54,67,127
2,57,71,0
2,61,87,0
2,54,29,27
2,57,69,61
2,61,69,0
2,54,55,2
2,54,82,63
2,57,99,0
2,62,84,0
2,54,53,3
2,54,73,60
2,57,79,0
2,64,91,0
2,54,43,1
2,52,69,81
2,56,73,0
2,61,79,0
2,52,48,7
2,56,79,68
2,61,79,0
2,54,63,101
2,57,71,0
2,62,68,0
2,54,38,18
2,57,66,64
2,62,66,0
2,62,73,45
2,52,67,30
2,57,68,0
2,61,76,0
2,52,45,24
2,57,76,59
2,61,82,0
2,52,43,6
2,57,68,63
2,61,82,0
2,52,55,6
2,57,76,46
2,64,82,0
2,52,55,3
2,52,79,75
2,56,82,0
2,59,84,0
2,52,43,18
2,56,68,60
2,59,67,0
2,52,20,9
2,56,63,56
2,59,66,0
2,52,22,15
2,56,68,66
2,59,82,0
2,52,62,5
2,52,69,25
2,57,69,0
2,61,69,0
2,52,47,2
2,52,53,55
2,57,63,0
2,61,62,0
2,52,45,2
2,52,62,48
2,57,63,0
2,62,67,0
2,52,46,12
2,52,64,59
2,57,69,0
2,64,76,0
2,56,61,126
2,61,62,0
2,65,66,0
2,56,34,15
2,56,61,45
2,61,63,0
2,65,68,0
2,56,47,5
2,56,63,58
2,61,71,0
2,66,66,0
2,56,55,13
2,56,63,69
2,61,69,0
2,68,68,0
2,56,64,5
2,57,68,14
2,61,71,0
2,66,64,0
2,57,55,6
2,61,87,63
2,66,79,0
2,57,37,7
2,61,66,54
2,66,67,0
2,57,33,10
2,61,79,44
2,66,76,0
2,57,53,15
2,57,69,23
2,59,76,0
2,61,71,0
2,65,71,0
2,57,45,2
2,57,63,63
2,59,64,0
2,61,64,0
2,65,66,0
2,56,56,40
2,59,57,0
2,61,60,0
2,65,63,0
2,56,46,30
2,56,53,57
2,59,58,0
2,61,55,0
2,65,60,0
2,56,41,39
2,57,68,4
2,61,73,0
2,64,68,0
2,57,43,4
2,57,67,68
2,61,76,0
2,64,71,0
2,57,55,10
2,57,79,40
2,61,91,0
2,64,82,0
2,57,35,6
2,61,82,63
2,64,68,0
2,57,57,2
2,56,76,75
2,59,82,0
2,64,71,0
2,56,43,21
2,56,62,70
2,59,67,0
2,64,69,0
2,56,53,3
2,56,64,57
2,59,73,0
2,64,69,0
2,45,76,127
2,52,84,0
2,57,91,0
2,59,95,0
2,61,91,0
2,64,84,0
2,42,69,15
2,49,73,0
2,54,84,0
2,57,79,0
2,61,68,0
2,45,82,9
2,52,82,0
2,57,91,0
2,61,91,0
2,64,76,0
2,50,76,27
2,57,71,0
2,62,73,0
2,66,79,0
2,69,66,0
2,69,82,72
2,81,87,0
2,68,79,81
2,80,84,0
2,69,79,80
2,81,76,0
2,66,68,32
2,78,66,0
2,69,84,129
2,81,84,0
2,57,9,78
2,68,76,0
2,80,79,0
2,69,67,30
2,81,68,0
2,64,87,33
2,76,87,0
2,52,69,48
2,59,67,0
2,59,67,53
2,52,79,18
2,59,67,0
2,52,71,52
2,59,84,0
2,45,82,57
2,52,53,0
2,57,84,0
2,61,87,0
2,64,79,0
2,52,58,72
2,57,56,37
2,57,79,28
2,61,91,0
2,64,76,0
2,52,79,80
2,45,64,15
2,57,91,48
2,62,82,0
2,64,76,0
2,52,64,27
2,45,58,22
2,57,84,48
2,61,87,0
2,64,73,0
2,42,11,56
2,42,95,40
2,54,84,0
2,57,82,0
2,61,79,0
2,45,76,101
2,52,82,0
2,57,87,0
2,61,91,0
2,64,73,0
2,38,84,27
2,50,76,0
2,57,79,0
2,64,71,0
2,66,66,0
2,69,76,48
2,81,79,0
2,68,79,80
2,80,84,0
2,69,73,79
2,81,73,0
2,66,66,34
2,78,62,0
2,50,67,14
2,38,71,48
2,69,82,47
2,81,79,0
2,50,9,79
2,68,76,0
2,80,76,0
2,50,6,26
2,69,66,48
2,81,62,0
2,64,82,35
2,76,82,0
2,40,73,11
2,52,79,0
2,59,61,72
2,52,61,28
2,59,33,0
2,59,79,32
2,64,79,0
2,68,68,0
2,52,67,76
2,59,63,36
2,64,45,29
2,59,76,27
2,64,73,0
2,68,63,0
2,52,64,7
2,52,16,3
2,59,64,0
2,40,42,24
2,59,82,0
2,68,68,0
2,66,46,9
2,59,52,11
2,42,82,78
2,54,87,0
2,57,82,0
2,61,67,0
2,42,61,31
2,54,28,29
2,42,38,23
2,38,95,64
2,50,84,0
2,57,87,0
2,64,79,0
2,66,73,0
2,33,69,48
2,45,61,0
2,57,76,0
2,61,76,0
2,64,67,0
2,45,62,1
2,57,61,43
2,57,9,23
2,61,66,0
2,45,30,10
2,64,34,0
2,33,55,16
2,56,63,0
2,59,67,0
2,64,64,0
2,45,46,46
2,45,66,0
2,33,30,5
2,45,56,96
2,57,63,0
2,61,58,0
2,64,66,0
2,33,58,65
2,45,29,9
2,57,53,27
2,61,56,0
2,64,55,0
2,45,66,48
2,57,64,32
2,42,64,5
2,54,63,0
2,57,62,0
2,61,64,0
2,42,61,2
2,54,28,42
2,54,32,26
2,57,52,0
2,61,55,0
2,42,55,4
2,42,31,27
2,42,62,34
2,56,63,0
2,59,66,0
2,64,67,0
2,42,52,47
2,56,40,39
2,56,35,22
2,59,58,0
2,64,66,0
2,42,35,4
2,56,43,0
2,42,20,30
2,42,63,8
2,54,43,0
2,57,60,0
2,61,55,0
2,42,57,15
2,54,51,28
2,57,42,24
2,54,76,20
2,61,62,0
2,42,71,41
2,54,52,37
2,38,68,2
2,50,53,0
2,57,71,0
2,62,67,0
2,66,58,0
2,50,53,6
2,57,20,41
2,57,67,25
2,62,63,0
2,66,51,0
2,50,52,3
2,38,45,47
2,50,50,23
2,64,64,0
2,68,63,0
2,50,55,1
2,57,33,0
2,57,66,66
2,64,64,0
2,68,56,0
2,50,58,4
2,57,21,45
2,38,64,25
2,57,64,0
2,62,62,0
2,66,53,0
2,50,53,9
2,57,55,31
2,62,67,23
2,66,71,0
2,50,69,31
2,57,68,36
2,57,28,24
2,45,67,7
2,57,66,0
2,61,63,0
2,64,64,0
2,45,55,3
2,57,28,48
2,57,58,31
2,61,58,0
2,64,63,0
2,45,57,78
2,45,36,23
2,45,57,2
2,56,53,0
2,59,64,0
2,64,64,0
2,45,57,56
2,56,51,85
2,59,62,0
2,64,62,0
2,45,50,14
2,45,68,71
2,57,69,0
2,61,69,0
2,64,68,0
2,45,47,46
2,45,22,19
2,57,46,0
2,57,79,26
2,61,87,0
2,64,71,0
2,45,62,48
2,45,69,18
2,40,87,75
2,52,91,0
2,59,99,0
2,64,84,0
2,68,76,0
2,52,63,30
2,59,48,25
2,59,76,23
2,64,79,0
2,68,71,0
2,52,71,3
2,40,61,4
2,59,52,0
2,52,64,24
2,59,82,0
2,66,82,0
2,69,73,0
2,52,66,70
2,59,57,35
2,59,84,28
2,66,79,0
2,69,67,0
2,52,57,6
2,59,35,48
2,59,76,29
2,64,71,0
2,68,67,0
2,52,56,7
2,38,79,67
2,50,76,0
2,57,87,0
2,62,76,0
2,66,67,0
2,45,73,54
2,57,67,0
2,61,73,0
2,64,66,0
2,45,46,34
2,57,36,39
2,57,52,32
2,61,50,0
2,64,61,0
2,45,48,91
2,40,67,65
2,52,66,0
2,56,71,0
2,59,73,0
2,64,71,0
2,57,67,23
2,61,79,0
2,62,5,17
2,57,42,7
2,57,79,82
2,61,91,0
2,57,53,45
2,57,95,80
2,62,87,0
2,57,62,24
2,57,82,73
2,64,95,0
2,57,62,6
2,56,87,7
2,64,82,0
2,56,27,18
2,56,87,86
2,64,87,0
2,56,55,17
2,57,91,3
2,64,87,0
2,57,36,14
2,59,87,3
2,64,84,0
2,57,79,6
2,61,87,0
2,57,46,2
2,57,84,83
2,61,87,0
2,57,57,41
2,57,87,81
2,62,99,0
2,57,55,23
2,69,73,229
2,64,74,11
2,40,70,16
2,62,63,0
2,57,83,11
2,52,73,1
2,52,76,16
2,57,84,0
2,61,82,0
2,52,35,16
2,57,73,52
2,61,73,0
2,52,64,5
2,57,87,55
2,62,82,0
2,52,64,24
2,57,25,10
2,57,82,38
2,64,87,0
2,52,53,12
2,52,73,77
2,56,79,0
2,59,84,0
2,52,35,17
2,56,62,63
2,59,68,0
2,52,45,2
2,52,91,80
2,57,95,0
2,52,56,16
2,52,71,73
2,59,87,0
2,54,67,127
2,57,71,0
2,61,87,0
2,54,29,27
2,57,69,61
2,61,69,0
2,54,55,2
2,54,82,63
2,57,99,0
2,62,84,0
2,54,53,3
2,54,73,60
2,57,79,0
2,64,91,0
2,54,43,1
2,52,69,81
2,56,73,0
2,61,79,0
2,52,48,7
2,56,79,68
2,61,79,0
2,54,63,101
2,57,71,0
2,62,68,0
2,54,38,18
2,57,66,64
2,62,66,0
2,62,73,45
2,52,67,30
2,57,68,0
2,61,76,0
2,52,45,24
2,57,76,59
2,61,82,0
2,52,43,6
2,57,68,63
2,61,82,0
2,52,55,6
2,57,76,46
2,64,82,0
2,52,55,3
2,52,79,75
2,56,82,0
