track,note,velocity,time
0,54,113,92
0,66,104,0
0,52,88,12
0,59,99,3
0,40,107,2
0,47,114,0
0,52,102,3
0,56,107,0
0,59,106,0
0,64,92,2
0,59,103,3
0,28,102,5
0,36,86,0
0,42,103,0
0,49,85,0
0,36,0,7
0,42,0,0
0,49,0,0
0,56,94,200
0,68,80,0
0,54,0,15
0,66,0,0
0,42,75,18
0,42,0,7
0,59,0,138
0,64,0,4
0,59,0,6
0,52,0,17
0,56,0,0
0,40,0,17
0,47,0,13
0,59,0,0
0,54,97,8
0,66,83,0
0,59,91,7
0,56,0,2
0,68,0,0
0,59,94,3
0,64,88,0
0,40,87,5
0,47,88,0
0,52,85,3
0,56,81,0
0,59,82,0
0,28,0,2
0,28,94,8
0,40,108,0
0,42,100,0
0,54,85,0
0,40,0,7
0,42,0,0
0,54,0,0
0,59,0,37
0,52,0,3
0,59,0,2
0,64,0,8
0,52,0,5
0,56,0,0
0,40,0,20
0,47,0,0
0,59,0,0
0,52,101,105
0,64,88,0
0,54,0,18
0,66,0,0
0,56,103,15
0,49,97,2
0,61,88,3
0,56,98,2
0,61,99,0
0,49,108,3
0,52,106,0
0,56,103,0
0,28,0,2
0,37,84,8
0,36,77,0
0,42,76,0
0,36,0,7
0,42,0,0
0,42,96,233
0,42,0,7
0,49,0,77
0,61,0,98
0,49,0,0
0,52,0,0
0,56,0,0
0,37,0,10
0,49,95,25
0,56,0,13
0,56,90,7
0,61,88,0
0,56,0,2
0,37,78,1
0,36,73,0
0,42,73,0
0,49,80,0
0,52,87,0
0,36,0,7
0,42,0,0
0,61,0,35
0,56,0,147
0,49,0,13
0,61,0,7
0,37,0,3
0,52,0,0
0,56,98,3
0,61,98,7
0,56,94,3
0,49,90,12
0,52,87,0
0,37,86,3
0,40,107,0
0,42,95,0
0,54,88,0
0,56,101,0
0,61,87,0
0,40,0,7
0,42,0,0
0,54,0,0
0,49,0,62
0,56,0,8
0,61,0,7
0,56,0,1
0,61,0,87
0,49,0,20
0,56,0,0
0,52,0,20
0,37,0,0
0,37,75,28
0,36,76,0
0,42,68,0
0,36,0,7
0,42,0,0
0,52,0,150
0,64,0,0
0,54,115,38
0,66,103,0
0,37,0,20
0,45,91,5
0,52,106,2
0,57,93,5
0,45,113,0
0,52,109,0
0,52,100,3
0,57,108,0
0,61,107,0
0,33,95,10
0,36,80,0
0,42,96,0
0,36,0,7
0,42,0,0
0,56,87,188
0,68,76,0
0,54,0,22
0,66,0,0
0,42,70,23
0,42,0,7
0,52,0,135
0,57,0,2
0,52,0,6
0,52,0,19
0,45,0,10
0,57,0,3
0,61,0,0
0,54,98,18
0,66,79,0
0,52,87,2
0,52,93,8
0,57,86,0
0,56,0,15
0,68,0,0
0,45,89,2
0,52,90,0
0,57,82,3
0,61,75,0
0,33,0,2
0,33,89,8
0,40,105,0
0,42,98,0
0,54,90,0
0,40,0,7
0,42,0,0
0,54,0,0
0,52,0,22
0,52,0,8
0,45,0,8
0,57,0,0
0,57,0,117
0,61,0,0
0,52,94,13
0,64,83,0
0,66,0,5
0,54,0,12
0,33,0,0
0,52,0,2
0,45,0,15
0,49,99,6
0,42,92,2
0,54,88,5
0,49,96,3
0,49,105,2
0,61,92,0
0,42,106,3
0,54,101,0
0,57,97,0
0,30,96,10
0,36,79,0
0,42,76,0
0,36,0,7
0,42,0,0
0,42,94,233
0,42,0,7
0,42,0,72
0,54,0,83
0,49,0,20
0,61,0,0
0,42,0,0
0,57,0,0
0,30,0,10
0,42,98,20
0,49,0,15
0,49,0,8
0,57,86,2
0,61,84,0
0,30,88,3
0,36,70,0
0,42,80,0
0,42,83,0
0,49,75,0
0,54,84,0
0,36,0,7
0,42,0,0
0,54,0,32
0,61,0,160
0,42,0,3
0,49,0,0
0,49,97,10
0,30,0,0
0,54,0,0
0,52,89,3
0,49,96,2
0,54,94,0
0,57,0,5
0,42,87,15
0,49,80,0
0,30,89,3
0,40,106,0
0,42,100,0
0,54,88,0
0,54,84,0
0,57,90,0
0,61,87,0
0,40,0,7
0,42,0,0
0,54,0,0
0,42,0,57
0,49,0,8
0,49,0,7
0,54,0,0
0,30,0,7
0,49,0,11
0,42,0,20
0,30,79,2
0,42,66,0
0,61,0,7
0,42,0,0
0,54,0,8
0,57,0,6
0,52,0,79
0,64,0,0
0,30,0,15
0,54,116,9
0,66,100,0
0,52,89,4
0,64,86,3
0,59,104,0
0,40,109,2
0,47,116,0
0,52,0,0
0,52,100,3
0,56,108,0
0,59,108,0
0,64,93,2
0,59,102,3
0,28,95,5
0,36,86,0
0,42,102,0
0,49,87,0
0,36,0,7
0,42,0,0
0,49,0,0
0,61,83,194
0,56,95,2
0,68,80,0
0,64,0,8
0,54,0,7
0,66,0,0
0,42,78,18
0,42,0,7
0,59,0,138
0,64,0,4
0,59,0,6
0,52,0,17
0,56,0,0
0,40,0,17
0,47,0,13
0,59,0,0
0,61,0,0
0,54,97,8
0,66,83,0
0,52,83,0
0,59,92,7
0,56,0,2
0,68,0,0
0,59,91,3
0,64,91,0
0,40,86,5
0,47,91,0
0,52,84,3
0,56,77,0
0,59,84,0
0,28,0,2
0,28,91,8
0,40,107,0
0,42,102,0
0,54,87,0
0,40,0,7
0,42,0,0
0,54,0,0
0,59,0,37
0,52,0,3
0,59,0,2
0,64,0,8
0,52,0,5
0,56,0,0
0,40,0,20
0,47,0,0
0,59,0,0
0,52,101,105
0,64,88,0
0,61,86,15
0,54,0,3
0,66,0,0
0,56,96,15
0,49,94,2
0,61,89,3
0,56,97,2
0,61,102,0
0,52,0,0
0,49,112,3
0,52,105,0
0,56,103,0
0,28,0,2
0,37,88,8
0,36,81,0
0,42,79,0
0,36,0,7
0,42,0,0
0,59,86,198
0,61,0,12
0,42,102,23
0,42,0,7
0,49,0,77
0,61,0,98
0,49,0,0
0,52,0,0
0,56,0,0
0,59,0,8
0,37,0,2
0,56,83,10
0,49,91,15
0,56,0,13
0,56,92,7
0,61,86,0
0,56,0,2
0,37,77,1
0,36,78,0
0,42,77,0
0,49,80,0
0,52,87,0
0,36,0,7
0,42,0,0
0,61,0,35
0,56,0,147
0,49,0,13
0,61,0,7
0,37,0,3
0,52,0,0
0,56,99,3
0,61,99,7
0,56,95,3
0,49,87,12
0,52,88,0
0,37,81,3
0,40,104,0
0,42,96,0
0,54,87,0
0,56,98,0
0,61,91,0
0,40,0,7
0,42,0,0
0,54,0,0
0,49,0,62
0,56,0,8
0,61,0,7
0,56,0,1
0,61,0,87
0,49,0,20
0,56,0,0
0,56,0,17
0,52,0,3
0,37,0,0
0,37,79,28
0,56,87,0
0,36,78,0
0,42,66,0
0,36,0,7
0,42,0,0
0,52,0,150
0,64,0,0
0,54,115,38
0,66,100,0
0,56,0,15
0,37,0,5
0,45,86,5
0,52,100,2
0,54,78,3
0,57,98,2
0,45,113,0
0,52,108,0
0,52,107,3
0,57,105,0
0,61,109,0
0,33,98,10
0,36,83,0
0,42,95,0
0,36,0,7
0,42,0,0
0,56,85,188
0,68,72,0
0,54,0,0
0,56,86,12
0,54,0,10
0,66,0,0
0,42,76,23
0,42,0,7
0,52,0,135
0,57,0,2
0,52,0,6
0,52,0,19
0,45,0,10
0,57,0,3
0,61,0,0
0,54,98,18
0,66,82,0
0,64,86,2
0,52,89,0
0,52,93,8
0,57,92,0
0,56,0,15
0,68,0,0
0,45,91,2
0,52,91,0
0,57,88,3
0,61,74,0
0,33,0,2
0,33,92,8
0,40,109,0
0,42,102,0
0,54,86,0
0,56,0,2
0,40,0,5
0,42,0,0
0,54,0,0
0,52,0,22
0,52,0,8
0,45,0,8
0,57,0,0
0,57,0,117
0,61,0,0
0,64,0,5
0,52,97,8
0,64,85,0
0,66,0,5
0,54,0,12
0,33,0,0
0,52,0,2
0,64,83,6
0,45,0,9
0,49,100,6
0,42,94,2
0,54,90,5
0,49,101,3
0,49,103,2
0,61,87,0
0,42,112,3
0,54,102,0
0,57,102,0
0,30,96,10
0,36,80,0
0,42,76,0
0,36,0,7
0,42,0,0
0,52,87,203
0,64,0,5
0,46,108,25
0,46,0,7
0,42,0,72
0,54,0,83
0,49,0,20
0,61,0,0
0,42,0,0
0,57,0,0
0,30,0,10
0,52,0,15
0,42,98,5
0,56,83,3
0,49,0,12
0,49,0,8
0,57,92,2
0,61,94,0
0,30,82,3
0,40,60,0
0,43,80,0
0,42,83,0
0,49,76,0
0,54,91,0
0,40,0,7
0,43,0,0
0,54,0,32
0,61,0,160
0,42,0,3
0,49,0,0
0,49,99,10
0,30,0,0
0,54,0,0
0,52,90,3
0,49,97,2
0,54,96,0
0,57,0,5
0,42,87,15
0,49,78,0
0,30,89,3
0,40,94,0
0,43,85,0
0,54,84,0
0,54,87,0
0,57,93,0
0,61,91,0
0,40,0,7
0,43,0,0
0,54,0,0
0,56,0,18
0,54,78,35
0,42,0,4
0,54,0,3
0,49,0,5
0,49,0,7
0,54,0,0
0,54,69,41
0,54,0,7
0,54,73,53
0,54,0,7
0,30,0,8
0,54,0,17
0,57,0,0
0,61,0,0
0,49,0,5
0,42,0,2
0,64,84,1
0,30,80,20
0,40,106,0
0,43,107,0
0,54,67,0
0,42,77,0
0,49,70,0
0,54,78,0
0,57,82,0
0,61,84,0
0,52,0,2
0,40,0,5
0,43,0,0
0,54,0,0
0,54,63,53
0,54,0,7
0,54,56,53
0,54,0,7
0,54,47,53
0,54,0,7
0,30,0,5
0,49,0,10
0,61,0,0
0,42,0,10
0,54,0,0
0,68,110,0
0,57,0,5
0,49,117,5
0,56,120,0
0,61,113,0
0,37,102,10
0,36,85,0
0,42,105,0
0,49,77,0
0,36,0,7
0,42,0,0
0,49,0,0
0,52,0,48
0,64,0,0
0,68,0,97
0,42,76,88
0,69,103,3
0,42,0,0
0,56,0,175
0,61,0,8
0,37,0,22
0,56,112,18
0,59,106,0
0,69,0,4
0,35,78,6
0,40,103,0
0,42,99,0
0,40,0,7
0,42,0,0
0,35,0,145
0,59,0,23
0,56,0,10
0,49,0,7
0,64,104,35
0,52,104,3
0,56,108,0
0,59,115,0
0,28,88,0
0,71,108,0
0,36,83,0
0,42,78,0
0,36,0,7
0,42,0,0
0,42,95,233
0,42,0,7
0,71,0,5
0,56,0,155
0,52,0,5
0,64,0,7
0,59,0,3
0,28,0,10
0,64,95,2
0,64,104,17
0,56,100,3
0,59,101,0
0,28,81,10
0,36,75,0
0,42,71,0
0,36,0,7
0,42,0,0
0,56,0,195
0,59,0,0
0,28,0,10
0,52,95,15
0,59,93,5
0,64,0,0
0,56,89,5
0,28,83,3
0,40,106,0
0,42,101,0
0,40,0,7
0,42,0,0
0,64,0,192
0,59,0,5
0,28,0,8
0,56,0,7
0,73,103,0
0,64,0,0
0,64,97,7
0,56,88,3
0,59,99,0
0,28,77,10
0,36,74,0
0,42,73,0
0,36,0,7
0,42,0,0
0,56,0,175
0,59,0,10
0,52,0,7
0,64,0,10
0,28,0,6
0,52,118,15
0,57,111,0
0,61,118,0
0,64,110,0
0,33,96,10
0,36,80,0
0,42,96,0
0,36,0,7
0,42,0,0
0,42,73,233
0,42,0,7
0,73,0,80
0,61,0,95
0,64,0,8
0,57,0,7
0,33,0,15
0,71,100,1
0,57,114,5
0,61,111,0
0,33,93,10
0,40,109,0
0,42,96,0
0,40,0,7
0,42,0,0
0,33,0,45
0,71,0,28
0,52,0,92
0,61,0,3
0,57,0,10
0,64,105,42
0,71,104,2
0,52,105,0
0,56,108,0
0,59,117,0
0,28,93,10
0,36,83,0
0,42,73,0
0,36,0,7
0,42,0,0
0,42,94,233
0,42,0,7
0,56,0,160
0,52,0,5
0,64,0,7
0,59,0,3
0,28,0,10
0,71,0,10
0,64,100,25
0,52,100,3
0,56,96,0
0,59,104,0
0,28,85,10
0,36,65,0
0,42,81,0
0,36,0,7
0,42,0,0
0,52,0,185
0,64,0,7
0,56,0,3
0,59,0,0
0,28,0,10
0,52,97,15
0,59,96,5
0,64,94,0
0,56,89,5
0,28,88,3
0,40,102,0
0,42,97,0
0,40,0,7
0,42,0,0
0,28,0,188
0,59,0,9
0,52,0,5
0,64,0,5
0,56,0,5
0,64,97,8
0,52,99,3
0,56,87,0
0,59,96,0
0,71,95,1
0,28,83,3
0,42,71,0
0,42,0,7
0,71,0,70
0,56,0,105
0,59,0,10
0,28,0,0
0,52,0,10
0,64,0,7
0,75,108,0
0,56,121,10
0,59,112,0
0,63,115,0
0,68,115,0
0,32,97,10
0,36,83,0
0,42,101,0
0,36,0,7
0,42,0,0
0,75,0,108
0,42,74,125
0,76,101,1
0,42,0,2
0,63,0,175
0,68,0,8
0,59,0,12
0,32,0,10
0,76,0,3
0,56,0,7
0,56,111,8
0,59,125,0
0,63,123,0
0,68,112,0
0,32,95,10
0,40,105,0
0,42,102,0
0,40,0,7
0,42,0,0
0,59,0,168
0,56,0,10
0,63,0,7
0,68,0,0
0,32,0,0
0,75,97,3
0,68,107,5
0,56,104,7
0,59,111,0
0,63,114,0
0,32,94,13
0,36,78,0
0,42,75,0
0,36,0,7
0,42,0,0
0,42,99,233
0,42,0,7
0,75,0,15
0,59,0,142
0,56,0,5
0,68,0,3
0,63,0,7
0,71,93,1
0,32,0,7
0,68,100,8
0,56,104,10
0,59,94,0
0,63,101,0
0,32,78,10
0,36,75,0
0,42,71,0
0,36,0,7
0,42,0,0
0,68,0,185
0,56,0,0
0,59,0,10
0,63,0,0
0,32,0,10
0,68,115,13
0,56,114,2
0,63,112,5
0,59,101,5
0,32,85,3
0,40,107,0
0,42,101,0
0,40,0,7
0,42,0,0
0,71,0,8
0,68,0,87
0,56,0,0
0,63,0,2
0,59,0,5
0,32,0,103
0,73,102,2
0,32,82,18
0,36,77,0
0,42,70,0
0,36,0,7
0,42,0,0
0,32,0,208
0,52,122,15
0,57,117,0
0,61,121,0
0,64,109,0
0,33,102,10
0,36,85,0
0,42,100,0
0,36,0,7
0,42,0,0
0,42,70,233
0,42,0,7
0,73,0,175
0,61,0,0
0,64,0,8
0,57,0,7
0,52,0,5
0,52,110,25
0,57,106,0
0,61,106,0
0,33,0,5
0,33,95,8
0,40,108,0
0,42,93,0
0,71,99,1
0,40,0,2
0,42,0,0
0,52,0,72
0,57,0,0
0,61,0,0
0,71,0,46
0,33,0,67
0,54,108,38
0,59,108,0
0,63,114,0
0,66,110,0
0,35,97,0
0,36,84,0
0,42,70,0
0,71,99,2
0,36,0,5
0,42,0,0
0,42,101,233
0,46,106,0
0,42,0,7
0,46,0,0
0,59,0,160
0,54,0,5
0,63,0,10
0,66,0,0
0,35,0,10
0,59,100,38
0,63,103,0
0,66,106,0
0,71,0,9
0,35,97,1
0,36,65,0
0,42,80,0
0,36,0,7
0,42,0,0
0,59,0,195
0,63,0,0
0,35,0,10
0,54,99,15
0,63,96,5
0,59,85,5
0,35,94,3
0,40,106,0
0,42,104,0
0,40,0,7
0,42,0,0
0,66,0,195
0,63,0,2
0,71,94,2
0,35,0,2
0,59,0,7
0,59,90,11
0,63,100,0
0,66,91,0
0,35,91,10
0,36,70,0
0,42,66,0
0,36,0,7
0,42,0,0
0,71,0,65
0,59,0,30
0,63,0,0
0,66,0,0
0,54,0,27
0,35,0,83
0,72,108,0
0,52,120,10
0,57,116,0
0,60,119,0
0,33,99,10
0,36,81,0
0,42,106,0
0,36,0,7
0,42,0,0
0,72,0,160
0,42,79,73
0,42,0,7
0,72,103,0
0,60,0,130
0,33,0,30
0,57,0,10
0,57,98,8
0,60,114,0
0,33,84,10
0,40,104,0
0,42,100,0
0,40,0,7
0,42,0,0
0,72,0,15
0,33,0,30
0,60,0,123
0,57,0,10
0,52,0,7
0,52,109,35
0,57,115,0
0,60,113,0
0,64,105,0
0,76,105,2
0,33,83,10
0,36,80,0
0,42,75,0
0,36,0,7
0,42,0,0
0,42,96,233
0,42,0,7
0,76,0,23
0,57,0,134
0,52,0,5
0,60,0,10
0,33,0,13
0,52,102,38
0,57,96,0
0,60,101,0
