track,note,velocity,time
1,48,91,2668
1,55,94,20
1,60,84,20
1,67,87,32
1,72,94,28
1,76,94,64
1,60,28,60
1,67,37,136
1,60,39,36
1,67,44,40
1,60,53,28
1,67,68,8
1,72,87,8
1,72,81,0
1,60,53,4
1,48,78,8
1,55,74,8
1,62,68,20
1,67,65,4
1,71,74,4
1,62,53,8
1,67,46,40
1,62,39,64
1,67,45,40
1,62,69,8
1,67,69,36
1,67,102,12
1,67,102,4
1,48,43,24
1,55,51,20
1,60,73,4
1,65,78,16
1,69,74,8
1,60,53,40
1,65,46,36
1,60,39,64
1,65,45,52
1,60,69,8
1,65,92,216
1,65,85,8
1,48,64,8
1,55,94,24
1,62,80,0
1,67,73,96
1,62,68,104
1,67,77,40
1,62,97,96
1,55,65,32
1,60,71,28
1,62,71,16
1,67,88,48
1,36,91,24
1,48,84,40
1,55,87,28
1,60,94,32
1,64,106,64
1,55,44,880
1,48,75,380
1,55,68,8
1,60,87,8
1,48,53,4
1,60,81,0
1,36,74,112
1,55,65,28
1,59,74,4
1,50,39,412
1,55,45,108
1,50,69,8
1,55,69,36
1,55,102,12
1,55,102,4
1,36,43,0
1,48,73,4
1,53,45,1168
1,48,69,392
1,57,100,216
1,60,61,0
1,53,90,376
1,36,64,92
1,48,32,1160
1,55,53,28
1,67,90,164
1,74,102,0
1,67,85,8
1,62,100,12
1,64,78,180
1,62,84,24
1,60,95,28
1,62,105,4
1,36,91,4
1,67,78,4
1,48,84,36
1,64,55,148
1,48,49,8
1,60,51,0
1,64,50,16
1,48,39,388
1,60,44,52
1,64,44,0
1,48,53,28
1,55,68,188
1,60,87,4
1,48,53,4
1,60,81,0
1,36,74,112
1,55,65,4
1,59,74,4
1,55,46,8
1,59,46,0
1,50,39,372
1,55,45,8
1,59,45,0
1,50,69,8
1,55,69,36
1,55,102,12
1,55,102,4
1,36,43,4
1,53,46,784
1,48,39,384
1,53,45,52
1,48,69,40
1,41,90,208
1,69,105,16
1,65,82,188
1,60,66,184
1,57,85,200
1,43,61,132
1,64,98,16
1,55,39,364
1,60,77,0
1,64,81,384
1,43,77,4
1,59,83,16
1,62,98,4
1,55,43,368
1,41,60,24
1,40,46,192
1,50,91,4
1,57,68,16
1,52,44,36
1,67,34,0
1,53,49,4
1,62,38,12
1,48,61,0
1,55,55,16
1,50,74,20
1,57,66,20
1,52,44,32
1,67,34,4
1,53,45,4
1,62,37,12
1,45,23,1156
1,50,35,4
1,57,47,544
1,62,56,32
1,43,37,48
1,60,65,20
1,64,79,20
1,67,63,32
1,72,63,28
1,76,77,64
1,60,28,80
1,67,37,48
1,60,39,40
1,67,44,364
1,60,53,40
1,67,68,8
1,72,87,192
1,72,81,0
1,60,53,4
1,43,78,64
1,55,74,4
1,62,68,4
1,67,65,12
1,71,74,12
1,62,53,0
1,67,46,36
1,71,45,8
1,62,39,64
1,67,51,40
1,71,39,0
1,36,43,44
1,48,43,16
1,55,51,0
1,60,73,0
1,36,40,0
1,48,42,4
1,55,44,4
1,36,50,4
1,48,52,0
1,55,54,4
1,48,64,16
1,55,73,188
1,60,86,184
1,48,76,0
1,36,55,4
1,55,67,44
1,36,40,12
1,48,42,4
1,55,44,4
1,36,50,4
1,48,52,0
1,55,54,4
1,43,84,12
1,55,90,188
1,67,80,196
1,55,67,28
1,36,91,4
1,48,84,40
1,55,87,28
1,60,94,32
1,64,106,64
1,55,37,136
1,48,39,376
1,55,44,36
1,48,53,28
1,55,68,24
1,60,87,8
1,60,81,0
1,48,53,4
1,36,74,112
1,55,65,28
1,59,74,4
1,50,53,56
1,55,46,40
1,50,39,64
1,55,45,40
1,50,69,8
1,55,69,40
1,55,102,16
1,55,102,4
1,36,43,4
1,48,73,0
1,48,53,36
1,53,46,380
1,48,39,64
1,53,45,52
1,48,69,40
1,57,100,216
1,60,61,0
1,53,90,376
1,43,64,92
1,50,32,1156
1,55,53,24
1,67,90,168
1,74,102,0
1,67,85,8
1,62,100,8
1,64,78,180
1,62,84,24
1,60,95,24
1,62,105,8
1,36,91,4
1,67,78,0
1,48,84,40
1,64,55,144
1,48,49,12
1,60,51,0
1,64,50,16
1,48,39,388
1,60,44,52
1,64,44,0
1,48,53,28
1,55,68,192
1,60,87,8
1,60,81,24
1,48,53,4
1,36,74,112
1,55,65,24
1,59,74,4
1,50,53,56
1,55,46,8
1,59,46,0
1,50,39,64
1,55,45,40
1,59,45,0
1,50,69,8
1,55,69,40
1,55,102,16
1,55,102,4
1,36,43,4
1,48,73,0
1,48,53,36
1,53,46,384
1,48,39,64
1,53,45,52
1,48,69,40
1,45,90,208
1,69,105,16
1,65,82,184
1,60,66,188
1,57,85,196
1,43,61,136
1,64,98,16
1,55,39,360
1,60,77,0
1,64,81,384
1,43,77,8
1,59,83,16
1,62,98,4
1,55,43,364
1,41,60,28
1,40,46,192
1,53,120,52232
1,60,114,20
1,60,127,1544
1,67,127,16
1,69,93,40
1,67,95,64
1,65,125,56
1,60,127,32
1,67,127,4
1,53,114,116
1,60,127,0
1,67,127,4
1,69,114,4
1,65,90,88
1,72,91,8
1,74,121,24
1,65,87,8
1,72,95,20
1,76,116,8
1,65,95,4
1,72,88,4
1,74,119,16
1,62,120,216
1,67,111,24
1,67,127,224
1,60,127,4
1,53,127,4
1,60,122,380
1,53,127,8
1,67,120,12
1,52,115,24
1,60,120,4
1,67,110,0
1,65,105,6140
1,72,107,20
1,74,125,8
1,65,87,20
1,72,95,20
1,76,116,8
1,65,95,4
1,72,90,12
1,74,120,8
1,62,96,16
1,64,101,8
1,67,111,16
1,67,127,1544
1,60,127,4
1,53,127,4
1,60,122,144
1,53,127,8
1,67,120,8
1,52,120,4
1,60,120,4
1,67,120,0
1,67,89,14644
1,72,94,4
1,60,95,412
1,76,127,0
1,67,112,200
1,72,119,180
1,77,127,72
1,67,120,148
1,72,118,164
1,76,127,40
1,67,105,8
1,59,106,128
1,74,108,12
1,67,104,0
1,59,108,0
1,55,98,380
1,62,104,4
1,71,127,8
1,55,127,188
1,64,95,4
1,72,127,28
1,55,127,32
1,65,104,20
1,55,127,4
1,74,127,0
1,72,115,24
1,57,117,4
1,65,117,0
1,57,90,36
1,65,93,0
1,72,97,0
1,72,64,28
1,57,71,4
1,65,76,0
1,53,112,32
1,55,118,84
1,57,127,84
1,60,127,76
1,68,112,16
1,62,127,4
1,36,112,3444
1,48,105,36
1,55,108,32
1,60,115,28
1,64,127,68
1,55,58,140
1,48,60,376
1,55,65,36
1,48,74,28
1,55,89,24
1,60,108,8
1,60,102,4
1,48,74,4
1,36,95,112
1,55,86,24
1,59,95,4
1,50,74,56
1,55,67,36
1,50,67,68
1,55,63,40
1,59,66,16
1,62,69,32
1,36,64,4
1,48,94,4
1,48,74,36
1,53,67,380
1,48,60,64
1,38,76,48
1,36,92,120
1,55,92,40
1,36,52,712
2,41,58,35312
2,43,62,16
2,31,65,44
2,41,62,224
2,38,94,40
2,40,39,44
2,41,34,52
2,38,86,752
2,40,36,176
2,41,33,172
2,31,37,1020
2,31,37,248
2,36,91,4
2,24,110,0
2,43,86,8
2,36,89,28
2,36,79,20
2,36,74,16
2,36,97,24
2,36,83,12
2,36,84,20
2,29,94,84
2,29,79,28
2,29,90,24
2,29,92,36
2,31,64,4
2,31,73,16
2,41,72,44
2,38,85,4
2,31,96,28
2,36,100,4
2,36,67,20
2,36,87,20
2,36,100,28
2,36,93,20
2,36,91,20
2,43,68,76
2,43,74,24
2,36,83,28
2,29,99,16
2,29,79,40
2,29,87,12
2,31,99,8
2,36,100,0
2,31,78,56
2,31,89,12
2,31,85,68
2,31,97,4
2,31,100,16
2,40,107,4
2,26,68,4
2,33,60,4
2,38,92,24
2,26,96,4
2,26,97,292
2,36,80,744
2,38,105,104
2,26,77,36
2,26,86,208
2,33,50,4
2,26,60,4
2,33,70,28
2,38,79,48
2,26,97,48
2,26,97,292
2,36,84,0
2,38,98,108
2,26,74,32
2,26,76,8
2,26,77,12
2,33,91,8
2,38,87,12
2,36,96,16
2,36,90,76
2,36,79,260
2,36,99,16
2,31,85,44
2,31,75,112
2,31,91,256
2,36,87,20
2,36,67,48
2,36,99,264
2,36,103,56
2,36,98,68
2,36,95,268
2,36,111,52
2,34,114,156
2,34,94,140
2,34,116,240
2,36,118,72
2,39,123,28
2,39,114,32
2,39,121,232
2,39,118,164
2,43,107,32
2,34,116,52
2,34,116,260
2,34,110,212
2,36,107,60
2,41,115,4
2,29,127,72
2,29,127,36
2,29,127,244
2,39,104,12
2,36,103,4
2,36,99,36
2,36,113,280
2,36,112,28
2,43,106,0
2,31,111,244
2,31,109,72
2,31,111,240
2,31,102,24
2,31,108,228
2,35,116,36
2,36,100,40
2,37,112,40
2,38,110,52
2,26,110,44
2,26,113,60
2,26,111,252
2,26,117,196
2,26,114,72
2,29,127,28
2,31,127,108
2,43,77,168
2,29,123,320
2,29,109,80
2,29,112,244
2,27,102,176
2,29,105,272
2,29,115,220
2,30,121,40
2,36,123,24
2,24,111,232
2,31,104,316
2,36,112,232
2,31,111,160
2,36,110,36
2,36,107,248
2,36,106,244
2,38,119,24
2,40,118,24
2,43,122,16
2,29,127,260
2,29,124,264
2,29,127,228
2,24,124,364
2,29,127,80
2,29,113,272
2,39,112,268
2,36,118,40
2,33,112,44
2,36,116,152
2,36,118,40
2,36,116,292
2,43,110,208
2,48,113,64
2,36,108,36
2,34,120,208
2,43,118,4
2,36,127,72
2,26,118,212
2,33,88,32
2,38,127,48
2,26,100,64
2,26,113,272
2,26,108,96
2,31,127,4
2,36,97,24
2,31,120,240
2,31,111,20
2,31,111,448
2,31,110,48
2,31,121,56
2,36,125,32
2,26,104,20
2,26,126,48
2,26,126,252
2,26,123,0
2,26,113,56
2,31,127,76
2,36,92,36
2,31,127,196
2,31,127,40
2,31,127,456
2,31,127,16
2,41,125,0
2,38,115,4
2,31,127,172
2,35,113,164
2,36,105,4
2,36,111,4
2,36,114,108
2,36,101,44
2,31,114,16
2,31,117,20
2,31,111,180
2,31,117,232
2,31,99,76
2,43,115,24
2,38,97,4
2,31,114,20
2,30,61,4
2,29,51,4
2,29,104,20
2,29,104,36
2,29,104,240
2,39,91,36
2,36,104,32
2,29,104,36
2,29,104,40
2,48,89,20
2,43,98,352
2,43,49,40
2,41,79,36
2,41,80,188
2,40,49,40
2,38,93,48
2,36,98,424
3,77,106,4920
3,79,97,204
3,79,87,12
3,77,112,8
3,76,110,180
3,74,125,52
3,74,127,84
3,79,85,188
3,79,105,4
3,72,86,192
3,72,112,12
3,72,104,84
3,74,99,188
3,74,78,12
3,76,114,12
3,72,99,68
3,74,115,8
3,65,106,3096
3,67,97,204
3,67,87,12
3,65,112,36
3,64,110,12
3,62,125,52
3,62,127,84
3,67,85,188
3,67,105,4
3,60,86,192
3,53,59,4
3,57,70,0
3,60,96,8
3,53,40,24
3,57,53,0
3,60,52,8
3,53,30,12
3,57,48,0
3,60,43,8
3,55,73,756
3,62,80,24
3,55,59,28
3,62,57,16
3,55,38,36
3,62,48,16
3,76,75,1596
3,77,58,564
3,76,70,196
3,74,49,88
3,72,48,16
3,65,106,472
3,67,97,196
3,67,87,12
3,65,112,36
3,64,110,12
3,62,125,52
3,74,67,724
3,72,36,576
3,71,45,116
3,69,40,12
3,67,37,8
3,62,127,108
3,67,85,188
3,67,105,0
3,60,86,196
3,53,59,0
3,57,70,4
3,60,96,8
3,53,40,24
3,57,53,4
3,60,52,4
3,53,30,16
3,57,48,0
3,60,43,4
3,67,85,3564
3,74,95,16
3,76,80,188
3,77,82,68
3,69,65,320
3,65,64,360
3,74,80,20
3,67,59,344
3,76,73,4
3,69,59,8
3,77,81,20
3,81,43,392
3,72,49,4
3,79,61,16
3,76,35,368
3,65,44,320
3,69,44,16
3,74,48,28
3,65,47,4
3,69,47,16
3,74,56,8
3,67,65,12
3,76,77,28
3,74,64,172
3,72,62,4
3,77,82,60
3,69,65,320
3,65,64,364
3,74,80,16
3,67,59,344
3,76,73,4
3,69,59,8
3,77,81,20
3,81,43,392
3,72,49,4
3,79,61,16
3,76,35,368
3,65,44,316
3,69,44,16
3,74,48,28
3,65,33,4
3,69,34,16
3,74,41,8
3,65,42,96
3,69,40,16
3,74,48,4
3,77,106,2296
3,79,97,200
3,79,87,12
3,77,112,36
3,76,110,180
3,74,125,56
3,65,106,9284
3,67,97,200
3,67,87,12
3,65,112,36
3,64,110,12
3,62,125,56
3,62,127,80
3,67,85,188
3,67,105,0
3,60,86,196
3,53,59,4
3,57,70,0
3,60,96,8
3,53,40,28
3,57,53,0
3,60,52,8
3,53,30,12
3,57,48,0
3,60,43,8
3,55,73,752
3,62,80,28
3,55,59,24
3,62,57,20
3,55,38,36
3,62,48,16
3,65,106,3112
3,67,97,200
3,67,87,12
3,65,112,36
3,64,110,12
3,62,125,56
3,62,127,420
3,67,85,188
3,67,85,0
3,60,86,192
3,53,59,0
3,57,70,0
3,60,96,8
3,53,40,28
3,57,53,0
3,60,52,8
3,53,30,12
3,57,48,0
3,60,43,8
3,67,85,3560
3,74,95,16
3,76,80,188
3,77,103,72
3,69,86,316
3,65,85,64
3,74,101,16
3,67,80,12
3,76,94,20
3,69,80,8
3,77,102,20
3,81,64,392
3,72,70,8
3,79,82,12
3,76,56,368
3,65,74,316
3,74,73,44
3,65,57,20
3,74,56,12
3,65,68,16
3,74,77,24
3,67,86,8
3,76,104,28
3,72,95,368
3,77,103,44
3,69,86,316
3,65,85,16
3,74,101,16
3,67,80,92
3,76,94,8
3,69,80,8
3,77,102,24
3,81,64,388
3,72,70,4
3,79,82,16
3,76,56,368
3,65,65,316
3,74,69,44
3,65,54,8
3,74,62,24
3,65,63,92
3,74,69,24
3,77,127,2296
3,79,118,200
3,79,108,12
3,77,127,36
3,76,127,184
3,74,127,52
3,65,91,3144
3,72,89,4
3,67,96,184
3,65,108,68
3,72,97,0
3,64,110,60
3,72,96,0
3,60,63,80
3,67,72,0
3,60,63,80
3,67,72,0
3,74,115,26972
3,74,65,4
3,76,99,4
3,76,49,4
3,69,110,4
3,69,60,4
3,72,127,36
3,72,98,4
3,72,69,4
3,67,127,9080
3,74,127,20
3,72,127,8
3,76,127,20
3,74,127,24
3,79,127,16
3,67,127,8
3,69,127,20
3,72,127,8
3,72,127,92
3,67,127,4
3,72,127,196
3,67,127,4
3,72,127,196
3,67,127,4
3,65,127,24
3,60,127,360
3,52,119,6196
3,67,119,12
3,79,111,16
3,50,127,32
3,67,114,12
3,77,127,16
3,48,124,20
3,67,120,16
3,76,127,12
3,65,127,29948
3,67,118,200
3,67,108,16
3,65,127,32
3,64,127,12
3,62,127,56
3,64,81,80
3,62,72,4
3,53,80,0
3,57,91,0
3,60,117,8
3,53,76,28
3,57,85,0
3,60,93,8
3,53,70,20
3,57,69,16
3,62,64,16
3,62,92,192
3,64,86,432
3,67,63,512
3,72,58,540
4,76,99,4
4,74,66,12
4,76,95,16
4,72,99,1264
4,72,99,0
4,71,93,80
4,65,87,4
4,71,76,4
4,72,83,4
4,76,89,396
4,74,92,4
4,73,59,912
4,77,76,4
4,76,77,116
4,72,79,792
4,72,71,52
4,71,99,100
4,64,93,4
4,67,61,32
4,67,72,20
4,69,99,20
4,71,99,64
4,72,99,24
4,75,96,328
4,76,99,196
4,72,71,20
4,74,99,20
4,74,93,4
4,74,90,16
4,77,73,28
4,77,66,36
4,77,56,12
4,77,52,12
4,79,62,4
4,74,70,0
4,74,79,148
4,77,78,64
4,77,86,20
4,77,70,16
4,79,85,40
4,80,63,12
4,74,77,32
4,74,57,16
4,71,68,508
4,76,67,4
4,77,87,4
4,77,81,4
4,67,63,4
4,74,85,4
4,76,69,4
4,74,87,4
4,72,81,4
4,76,107,4
4,74,64,8
4,76,103,16
4,72,107,1264
4,72,107,4
4,71,101,76
4,67,109,4
4,65,95,56
4,71,84,56
4,72,91,4
4,76,106,268
4,76,109,4
4,74,104,4
4,76,116,4
4,76,114,4
4,77,121,4
4,76,105,4
4,76,109,4
