track,note,velocity,time
1,44,115,480
1,44,0,59
1,44,77,1
1,44,0,59
1,44,98,1
1,44,0,59
1,44,83,1
1,44,0,59
1,44,86,1
1,44,0,59
1,44,83,1
1,44,0,59
1,44,88,1
1,75,127,3
1,75,0,28
1,44,0,28
1,44,75,1
1,44,0,59
1,44,97,1
1,44,0,59
1,44,84,1
1,44,0,59
1,44,92,1
1,44,0,59
1,44,83,1
1,44,0,59
1,44,87,1
1,44,0,59
1,44,93,1
1,44,0,59
1,44,84,1
1,75,126,0
1,75,0,39
1,44,0,20
1,44,83,1
1,44,0,59
1,44,100,1
1,44,0,59
1,44,97,1
1,44,0,59
1,44,98,1
1,44,0,59
1,44,101,1
1,44,0,59
1,44,103,1
1,44,0,59
1,44,98,1
1,44,0,59
1,44,96,1
1,75,127,2
1,75,0,36
1,44,0,21
1,44,85,1
1,44,0,59
1,44,101,1
1,44,0,59
1,44,97,1
1,44,0,59
1,44,97,1
1,44,0,59
1,44,89,1
1,44,0,59
1,44,92,1
1,44,0,59
1,44,88,1
1,44,0,59
1,44,83,1
1,75,126,6
1,75,0,35
1,44,0,18
1,44,100,1
1,44,0,59
1,44,115,1
1,44,0,59
1,44,77,1
1,44,0,59
1,44,98,1
1,44,0,59
1,44,83,1
1,44,0,59
1,44,86,1
1,44,0,59
1,44,83,1
1,44,0,59
1,44,88,1
1,75,127,3
1,75,0,28
1,44,0,28
1,44,75,1
1,44,0,59
1,44,97,1
1,44,0,59
1,44,84,1
1,44,0,59
1,44,92,1
1,44,0,59
1,44,83,1
1,44,0,59
1,44,87,1
1,44,0,59
1,44,93,1
1,44,0,59
1,44,84,1
1,75,126,0
1,75,0,39
1,44,0,20
1,44,83,1
1,44,0,59
1,44,100,1
1,44,0,59
1,44,97,1
1,44,0,59
1,44,98,1
1,44,0,59
1,44,101,1
1,44,0,59
1,44,103,1
1,44,0,59
1,44,98,1
1,44,0,59
1,44,96,1
1,75,127,2
1,75,0,36
1,44,0,21
1,44,85,1
1,44,0,59
1,44,101,1
1,44,0,59
1,44,97,1
1,44,0,59
1,44,97,1
1,44,0,59
1,44,89,1
1,44,0,59
1,44,92,1
1,44,0,59
1,44,88,1
1,44,0,59
1,44,83,1
1,75,126,6
1,75,0,35
1,44,0,18
1,44,100,1
1,44,0,59
1,44,115,1
1,44,0,59
1,44,77,1
1,44,0,59
1,44,98,1
1,44,0,59
1,44,83,1
1,44,0,59
1,44,86,1
1,44,0,59
1,44,83,1
1,44,0,59
1,44,88,1
1,75,127,3
1,75,0,28
1,44,0,28
1,44,75,1
1,44,0,59
1,44,97,1
1,44,0,59
1,44,84,1
1,44,0,59
1,44,92,1
1,44,0,59
1,44,83,1
1,44,0,59
1,44,87,1
1,44,0,59
1,44,93,1
1,44,0,59
1,44,84,1
1,75,126,0
1,75,0,39
1,44,0,20
1,44,83,1
1,44,0,59
1,44,100,1
1,44,0,59
1,44,97,1
1,44,0,59
1,44,98,1
1,44,0,59
1,44,101,1
1,44,0,59
1,44,103,1
1,44,0,59
1,44,98,1
1,44,0,59
1,44,96,1
1,75,127,2
1,75,0,36
1,44,0,21
1,44,85,1
1,44,0,59
1,44,101,1
1,44,0,59
1,44,97,1
1,44,0,59
1,44,97,1
1,44,0,59
1,44,89,1
1,44,0,59
1,44,92,1
1,44,0,59
1,44,88,1
1,44,0,59
1,44,83,1
1,75,126,6
1,75,0,35
1,44,0,18
1,44,100,1
1,44,0,59
1,44,115,1
1,44,0,59
1,44,77,1
1,44,0,59
1,44,98,1
1,44,0,59
1,44,83,1
1,44,0,59
1,44,86,1
1,44,0,59
1,44,83,1
1,44,0,59
1,44,88,1
1,75,127,3
1,75,0,28
1,44,0,28
1,44,75,1
1,44,0,59
1,44,97,1
1,44,0,59
1,44,84,1
1,44,0,59
1,44,92,1
1,44,0,59
1,44,83,1
1,44,0,59
1,44,87,1
1,44,0,59
1,44,93,1
1,44,0,59
1,44,84,1
1,75,126,0
1,75,0,39
1,44,0,20
1,44,83,1
1,44,0,59
1,44,100,1
1,44,0,59
1,44,97,1
1,44,0,59
1,44,98,1
1,44,0,59
1,44,101,1
1,44,0,59
1,44,103,1
1,44,0,59
1,44,98,1
1,44,0,59
1,44,96,1
1,75,127,2
1,75,0,36
1,44,0,21
1,44,85,1
1,44,0,59
1,44,101,1
1,44,0,59
1,44,97,1
1,44,0,59
1,44,97,1
1,44,0,59
1,44,89,1
1,44,0,59
1,44,92,1
1,44,0,59
1,44,88,1
1,44,0,59
1,44,83,1
1,75,126,6
1,75,0,35
1,44,0,18
1,44,100,1
1,44,0,59
1,44,115,1
1,44,0,59
1,44,77,1
1,44,0,59
1,44,98,1
1,44,0,59
1,44,83,1
1,44,0,59
1,44,86,1
1,44,0,59
1,44,83,1
1,44,0,59
1,44,88,1
1,75,127,3
1,75,0,28
1,44,0,28
1,44,75,1
1,44,0,59
1,44,97,1
1,44,0,59
1,44,84,1
1,44,0,59
1,44,92,1
1,44,0,59
1,44,83,1
1,44,0,59
1,44,87,1
1,44,0,59
1,44,93,1
1,44,0,59
1,44,84,1
1,75,126,0
1,75,0,39
1,44,0,20
1,44,83,1
1,44,0,59
1,44,100,1
1,44,0,59
1,44,97,1
1,44,0,59
1,44,98,1
1,44,0,59
1,44,101,1
1,44,0,59
1,44,103,1
1,44,0,59
1,44,98,1
1,44,0,59
1,44,96,1
1,75,127,2
1,75,0,36
1,44,0,21
1,44,85,1
1,44,0,59
1,44,101,1
1,44,0,59
1,44,97,1
1,44,0,59
1,44,97,1
1,44,0,59
1,44,89,1
1,44,0,59
1,44,92,1
1,44,0,59
1,44,88,1
1,44,0,59
1,44,83,1
1,75,126,6
1,75,0,35
1,44,0,18
1,44,100,1
1,44,0,59
1,44,101,1
1,44,0,59
1,44,97,1
1,44,0,59
1,44,97,1
1,44,0,59
1,44,89,1
1,44,0,59
1,44,92,1
1,44,0,59
1,44,88,1
1,44,0,59
1,44,83,1
1,75,126,6
1,75,0,35
1,44,0,18
1,44,100,1
1,44,0,59
1,44,115,4801
1,44,0,59
1,44,77,1
1,44,0,59
1,44,98,1
1,44,0,59
1,44,83,1
1,44,0,59
1,44,86,1
1,44,0,59
1,44,83,1
1,44,0,59
1,44,88,1
1,75,127,3
1,75,0,28
1,44,0,28
1,44,75,1
1,44,0,59
1,44,97,1
1,44,0,59
1,44,84,1
1,44,0,59
1,44,92,1
1,44,0,59
1,44,83,1
1,44,0,59
1,44,87,1
1,44,0,59
1,44,93,1
1,44,0,59
1,44,84,1
1,75,126,0
1,75,0,39
1,44,0,20
1,44,83,1
1,44,0,59
1,44,100,1
1,44,0,59
1,44,97,1
1,44,0,59
1,44,98,1
1,44,0,59
1,44,101,1
1,44,0,59
1,44,103,1
1,44,0,59
1,44,98,1
1,44,0,59
1,44,96,1
1,75,127,2
1,75,0,36
1,44,0,21
1,44,85,1
1,44,0,59
1,44,101,1
1,44,0,59
1,44,97,1
1,44,0,59
1,44,97,1
1,44,0,59
1,44,89,1
1,44,0,59
1,44,92,1
1,44,0,59
1,44,88,1
1,44,0,59
1,44,83,1
1,75,126,6
1,75,0,35
1,44,0,18
1,44,100,1
1,44,0,59
2,60,96,3964
2,60,0,21
2,60,92,64
2,60,0,16
2,60,99,11
2,60,0,19
2,62,85,45
2,62,0,16
2,60,96,3648
2,60,0,21
2,60,92,64
2,60,0,16
2,60,99,11
2,60,0,19
2,62,85,45
2,62,0,16
2,60,96,1728
2,60,0,21
2,60,92,64
2,60,0,16
2,60,99,11
2,60,0,19
2,62,85,45
2,62,0,16
2,41,116,2856
2,66,120,2
2,43,120,0
2,43,0,36
2,66,0,9
2,41,0,5
3,56,105,314
3,56,0,38
3,50,97,71
3,50,0,13
3,50,101,11
3,50,0,24
3,48,122,1
3,48,0,40
3,35,109,10048
3,35,0,25
3,38,59,65
3,38,0,25
3,38,124,5
3,38,0,25
3,38,99,5
3,38,0,25
3,35,99,5
3,35,0,25
3,38,49,5
3,38,0,25
3,38,109,5
3,38,0,25
3,45,99,5
3,45,0,25
3,38,59,35
3,38,0,25
3,38,109,5
3,38,0,25
3,38,69,5
3,38,0,25
3,41,109,5
3,41,0,25
3,35,109,35
3,42,99,0
3,42,0,25
3,35,0,0
3,42,79,35
3,42,0,25
3,42,89,35
3,37,109,0
3,37,0,25
3,42,0,0
3,35,89,35
3,42,79,0
3,42,0,25
3,35,0,0
3,35,109,35
3,42,99,0
3,42,0,25
3,35,0,0
3,42,79,35
3,42,0,25
3,42,89,35
3,37,109,0
3,37,0,25
3,42,0,0
3,35,89,35
3,42,79,0
3,42,0,25
3,35,0,0
3,35,109,35
3,42,99,0
3,42,0,25
3,35,0,0
3,42,79,35
3,42,0,25
3,42,89,35
3,37,109,0
3,37,0,25
3,42,0,0
3,35,89,35
3,42,79,0
3,42,0,25
3,35,0,0
3,42,69,5
3,42,0,25
3,35,109,5
3,42,99,0
3,42,0,25
3,35,0,0
3,42,79,35
3,42,0,25
3,42,89,35
3,37,109,0
3,37,0,25
3,42,0,0
3,35,89,35
3,42,79,0
3,42,0,25
3,35,0,0
3,35,109,35
3,42,99,0
3,42,0,25
3,35,0,0
3,42,79,35
3,42,0,25
3,42,89,35
3,37,109,0
3,37,0,25
3,42,0,0
3,35,89,35
3,42,79,0
3,42,0,25
3,35,0,0
3,35,109,35
3,42,99,0
3,42,0,25
3,35,0,0
3,42,79,35
3,42,0,25
3,42,89,35
3,37,109,0
3,37,0,25
3,42,0,0
3,35,89,35
3,42,79,0
3,42,0,25
3,35,0,0
3,35,109,35
3,42,99,0
3,42,0,25
3,35,0,0
3,42,79,35
3,42,0,25
3,42,89,35
3,37,109,0
3,37,0,25
3,42,0,0
3,35,89,35
3,42,79,0
3,42,0,25
3,35,0,0
3,35,109,35
3,42,99,0
3,42,0,25
3,35,0,0
3,42,79,35
3,42,0,25
3,42,89,35
3,37,109,0
3,37,0,25
3,42,0,0
3,35,89,35
3,42,79,0
3,42,0,25
3,35,0,0
3,35,109,35
3,42,99,0
3,42,0,25
3,35,0,0
3,42,79,35
3,42,0,25
3,42,89,35
3,37,109,0
3,37,0,25
3,42,0,0
3,35,89,35
3,42,79,0
3,42,0,25
3,35,0,0
3,35,109,35
3,42,99,0
3,42,0,25
3,35,0,0
3,42,79,35
3,42,0,25
3,42,89,35
3,37,109,0
3,37,0,25
3,42,0,0
3,35,89,35
3,42,79,0
3,42,0,25
3,35,0,0
3,35,109,35
3,42,99,0
3,42,0,25
3,35,0,0
3,42,79,35
3,42,0,25
3,42,89,35
3,37,109,0
3,37,0,25
3,42,0,0
3,35,89,35
3,42,79,0
3,42,0,25
3,35,0,0
3,42,69,5
3,42,0,25
3,35,109,5
3,42,99,0
3,42,0,25
3,35,0,0
3,42,79,35
3,42,0,25
3,42,89,35
3,37,109,0
3,37,0,25
3,42,0,0
3,35,89,35
3,42,79,0
3,42,0,25
3,35,0,0
3,35,109,35
3,42,99,0
3,42,0,25
3,35,0,0
3,35,109,455
3,42,99,0
3,42,0,25
3,35,0,0
3,42,79,35
3,42,0,25
3,42,89,35
3,37,109,0
3,37,0,25
3,42,0,0
3,35,89,35
3,42,79,0
3,42,0,25
3,35,0,0
3,35,109,35
3,42,99,0
3,42,0,25
3,35,0,0
3,42,79,35
3,42,0,25
3,42,89,35
3,37,109,0
3,37,0,25
3,42,0,0
3,35,89,35
3,42,79,0
3,42,0,25
3,35,0,0
3,35,109,35
3,42,99,0
3,42,0,25
3,35,0,0
3,42,79,35
3,42,0,25
3,42,89,35
3,37,109,0
3,37,0,25
3,42,0,0
3,35,89,35
3,42,79,0
3,42,0,25
3,35,0,0
3,35,109,35
3,42,99,0
3,42,0,25
3,35,0,0
3,42,79,35
3,42,0,25
3,42,89,35
3,37,109,0
3,37,0,25
3,42,0,0
3,35,89,35
3,42,79,0
3,42,0,25
3,35,0,0
3,50,127,1832
3,50,0,45
3,43,127,45
3,43,0,14
3,43,127,12
3,43,0,35
3,43,127,22
3,43,0,30
3,35,109,4240
3,35,0,25
3,38,59,65
3,38,0,25
3,38,124,5
3,38,0,25
3,38,99,5
3,38,0,25
3,35,99,5
3,35,0,25
3,38,49,5
3,38,0,25
3,38,109,5
3,38,0,25
3,45,99,5
3,45,0,25
3,38,59,35
3,38,0,25
3,38,109,5
3,38,0,25
3,38,69,5
3,38,0,25
3,41,109,5
3,41,0,25
3,50,127,2792
3,50,0,45
3,43,127,45
3,43,0,14
3,43,127,12
3,43,0,35
3,43,127,22
3,43,0,30
4,35,127,17280
4,42,127,0
4,42,0,25
4,35,0,0
4,42,108,35
4,42,0,25
4,37,127,35
4,42,118,0
4,42,0,25
4,37,0,0
4,35,118,35
4,42,108,0
4,42,0,25
4,35,0,0
4,35,127,35
4,42,127,0
4,42,0,25
4,35,0,0
4,42,108,35
4,42,0,25
4,40,127,35
4,42,118,0
4,37,127,0
4,37,0,25
4,42,0,0
4,40,0,0
4,42,108,35
4,42,0,25
4,35,127,35
4,42,127,0
4,42,0,25
4,35,0,0
4,42,108,35
4,42,0,25
4,42,118,35
4,37,127,0
4,37,0,25
4,42,0,0
4,35,118,35
4,42,108,0
4,42,0,25
4,35,0,0
4,42,98,5
4,42,0,25
4,35,127,5
4,42,127,0
4,42,0,25
4,35,0,0
4,42,108,35
4,42,0,25
4,40,127,35
4,42,118,0
4,37,127,0
4,40,0,14
4,37,0,11
4,42,0,0
4,42,108,35
4,42,0,25
4,35,127,35
4,42,127,0
4,42,0,25
4,35,0,0
4,42,108,35
4,42,0,25
4,42,118,35
4,37,127,0
4,37,0,25
4,42,0,0
4,35,118,35
4,42,108,0
4,42,0,25
4,35,0,0
4,35,127,35
4,42,127,0
4,42,0,25
4,35,0,0
4,42,108,35
4,42,0,25
4,40,127,35
4,42,118,0
4,37,127,0
4,40,0,14
4,37,0,11
4,42,0,0
4,42,108,35
4,42,0,25
4,35,127,35
4,42,127,0
4,42,0,25
4,35,0,0
4,42,108,35
4,42,0,25
4,42,118,35
4,37,127,0
4,37,0,25
4,42,0,0
4,35,118,35
4,42,108,0
4,42,0,25
4,35,0,0
4,35,127,35
4,42,127,0
4,42,0,25
4,35,0,0
4,42,108,35
4,42,0,25
4,40,127,35
4,42,118,0
4,37,127,0
4,40,0,14
4,37,0,11
4,42,0,0
4,42,108,35
4,42,0,25
4,35,127,35
4,42,127,0
4,42,0,25
4,35,0,0
4,42,108,35
4,42,0,25
4,37,127,35
4,42,118,0
4,42,0,25
4,37,0,0
4,35,118,35
4,42,108,0
4,42,0,25
4,35,0,0
4,35,127,35
4,42,127,0
4,42,0,25
4,35,0,0
4,42,108,35
4,42,0,25
4,40,127,35
4,42,118,0
4,37,127,0
4,37,0,25
4,42,0,0
4,40,0,0
4,42,108,35
4,42,0,25
4,35,127,35
4,42,127,0
4,42,0,25
4,35,0,0
4,42,108,35
4,42,0,25
4,42,118,35
4,37,127,0
4,37,0,25
4,42,0,0
4,35,118,35
4,42,108,0
4,42,0,25
4,35,0,0
4,42,98,5
4,42,0,25
4,35,127,5
4,42,127,0
4,42,0,25
4,35,0,0
4,42,108,35
4,42,0,25
4,40,127,35
4,42,118,0
4,37,127,0
4,40,0,14
4,37,0,11
4,42,0,0
4,42,108,35
4,42,0,25
4,35,127,35
4,42,127,0
4,42,0,25
4,35,0,0
4,42,108,35
4,42,0,25
4,42,118,35
4,37,127,0
4,37,0,25
4,42,0,0
4,35,118,35
4,42,108,0
4,42,0,25
4,35,0,0
4,35,127,35
4,42,127,0
4,42,0,25
4,35,0,0
4,42,108,35
4,42,0,25
4,40,127,35
4,42,118,0
4,37,127,0
4,40,0,14
4,37,0,11
4,42,0,0
4,42,108,35
4,42,0,25
4,35,127,35
4,42,127,0
4,42,0,25
4,35,0,0
4,42,108,35
4,42,0,25
4,42,118,35
4,37,127,0
4,37,0,25
4,42,0,0
4,35,118,35
4,42,108,0
4,42,0,25
4,35,0,0
4,35,127,35
4,42,127,0
