track,note,velocity,time
4,33,105,44
4,33,0,160
4,33,108,32
4,33,0,268
4,40,103,20
4,40,0,156
4,42,102,36
4,42,0,266
4,42,91,22
4,42,0,268
4,40,100,20
4,40,0,180
4,38,108,12
4,38,0,284
4,38,100,4
4,38,0,270
4,37,100,18
4,37,0,84
4,38,101,12
4,38,0,78
4,40,96,18
4,40,0,260
4,40,95,28
4,40,0,284
4,28,102,4
4,28,0,92
4,40,110,4
4,40,0,92
4,28,104,4
4,28,0,90
4,33,111,6
4,33,0,160
4,33,104,32
4,33,0,268
4,40,102,20
4,40,0,156
4,42,98,36
4,42,0,266
4,42,90,22
4,42,0,268
4,40,102,20
4,40,0,180
4,38,105,12
4,38,0,284
4,38,99,4
4,38,0,270
4,37,100,18
4,37,0,84
4,38,102,12
4,38,0,78
4,40,101,18
4,40,0,260
4,40,95,28
4,40,0,284
4,28,106,4
4,28,0,92
4,40,111,4
4,40,0,92
4,28,101,4
4,28,0,90
4,33,109,6
4,33,0,160
4,33,110,32
4,33,0,268
4,40,100,20
4,40,0,156
4,42,97,36
4,42,0,266
4,42,90,22
4,42,0,268
4,40,104,20
4,40,0,180
4,38,105,12
4,38,0,276
4,38,104,12
4,38,0,270
4,37,97,18
4,37,0,84
4,38,104,12
4,38,0,78
4,40,100,18
4,40,0,260
4,40,98,28
4,40,0,284
4,28,109,4
4,28,0,92
4,40,110,4
4,40,0,92
4,28,102,4
4,28,0,90
4,33,104,6
4,33,0,160
4,33,105,32
4,33,0,268
4,40,101,20
4,40,0,156
4,42,103,36
4,42,0,266
4,42,91,22
4,42,0,268
4,40,107,20
4,40,0,180
4,38,104,12
4,38,0,284
4,38,100,4
4,38,0,270
4,37,97,18
4,37,0,84
4,38,105,12
4,38,0,78
4,40,97,18
4,40,0,260
4,40,92,28
4,40,0,284
4,28,104,4
4,28,0,92
4,40,108,4
4,40,0,92
4,28,101,4
4,28,0,90
4,33,105,6
4,33,0,160
4,33,109,32
4,33,0,268
4,40,100,20
4,40,0,156
4,42,101,36
4,42,0,266
4,42,96,22
4,42,0,268
4,40,105,20
4,40,0,180
4,38,108,12
4,38,0,276
4,38,99,12
4,38,0,270
4,37,103,18
4,37,0,84
4,38,103,12
4,38,0,78
4,40,102,18
4,40,0,260
4,40,96,28
4,40,0,284
4,28,109,4
4,28,0,92
4,40,106,4
4,40,0,92
4,28,100,4
4,28,0,90
4,26,107,6
4,26,0,191
4,38,104,1
4,38,0,268
4,26,107,20
4,26,0,126
4,26,115,66
4,26,0,380
4,38,107,4
4,38,0,164
4,26,106,28
4,26,0,188
4,25,109,4
4,25,0,287
4,37,112,1
4,37,0,284
4,25,106,4
4,25,0,95
4,37,108,1
4,37,0,176
4,49,91,16
4,49,0,86
4,49,95,10
4,49,0,86
4,49,97,10
4,49,0,86
4,49,93,10
4,49,0,86
4,49,97,10
4,49,0,86
4,37,88,10
4,37,0,92
4,25,103,4
4,25,0,188
4,30,107,4
4,30,0,191
4,42,105,1
4,42,0,178
4,30,105,14
4,30,0,68
4,28,105,28
4,28,0,182
4,26,111,10
4,26,0,287
4,38,101,1
4,38,0,140
4,38,83,52
4,38,0,95
4,26,109,1
4,26,0,92
4,38,109,4
4,38,0,92
4,26,111,4
4,26,0,82
4,28,110,14
4,28,0,172
4,28,104,20
4,28,0,90
4,28,113,6
4,28,0,82
4,28,77,14
4,28,0,84
4,28,107,12
4,28,0,86
4,28,75,10
4,28,0,84
4,28,106,12
4,28,0,86
4,28,105,10
4,28,0,70
4,28,100,26
4,28,0,74
4,28,107,22
4,28,0,66
4,28,107,30
4,28,0,76
4,28,100,20
4,28,0,76
4,25,102,20
4,25,0,86
4,28,108,10
4,28,0,78
4,25,103,18
4,25,0,92
4,30,105,4
4,30,0,146
4,30,109,46
4,30,0,200
4,30,109,88
4,30,0,92
4,28,110,4
4,28,0,90
4,26,98,6
4,26,0,46
4,26,113,50
4,26,0,148
4,26,112,44
4,26,0,274
4,38,107,14
4,38,0,92
4,26,109,4
4,26,0,92
4,38,107,4
4,38,0,82
4,28,104,14
4,28,0,172
4,28,100,20
4,28,0,90
4,28,111,6
4,28,0,82
4,28,74,14
4,28,0,84
4,28,100,12
4,28,0,86
4,28,74,10
4,28,0,84
4,28,102,12
4,28,0,86
4,28,107,10
4,28,0,90
4,28,69,6
4,28,0,78
4,28,110,18
4,28,0,44
4,28,109,52
4,28,0,74
4,35,104,22
4,35,0,82
4,40,102,14
4,40,0,92
4,35,105,4
4,35,0,78
4,28,104,18
4,28,0,92
4,25,110,4
4,25,0,191
4,37,111,1
4,37,0,270
4,25,107,18
4,25,0,90
4,37,106,6
4,37,0,92
4,25,107,4
4,25,0,92
4,30,104,4
4,30,0,256
4,30,107,128
4,30,0,92
4,32,104,4
4,32,0,88
4,35,101,8
4,35,0,86
4,36,99,10
4,36,0,92
4,37,105,4
4,37,0,170
4,25,93,22
4,25,0,188
4,37,101,4
4,37,0,92
4,25,101,4
4,25,0,90
4,37,100,6
4,37,0,174
4,30,99,18
4,30,0,280
4,42,101,8
4,42,0,92
4,30,106,4
4,30,0,34
4,30,101,62
4,30,0,92
4,42,92,4
4,42,0,92
4,30,95,4
4,30,0,92
4,35,106,4
4,35,0,86
4,35,109,10
4,35,0,72
4,35,107,24
4,35,0,74
4,35,103,22
4,35,0,58
4,35,103,38
4,35,0,72
4,35,102,24
4,35,0,64
4,35,104,32
4,35,0,66
4,35,99,30
4,35,0,62
4,35,107,34
4,35,0,72
4,35,108,24
4,35,0,64
4,35,110,32
4,35,0,64
4,35,102,32
4,35,0,66
4,35,111,30
4,35,0,76
4,35,96,20
4,35,0,66
4,35,104,30
4,35,0,66
4,35,105,30
4,35,0,78
4,40,105,18
4,40,0,72
4,40,84,24
4,40,0,58
4,40,95,38
4,40,0,70
4,40,89,26
4,40,0,68
4,40,103,28
4,40,0,92
4,35,108,4
4,35,0,80
4,28,102,16
4,28,0,154
4,28,104,38
4,28,0,191
4,40,72,1
4,40,0,60
4,40,98,36
4,40,0,92
4,28,103,4
4,28,0,84
4,40,93,12
4,40,0,80
4,28,108,16
4,28,0,180
4,33,109,12
4,33,0,160
4,33,108,32
4,33,0,268
4,40,101,20
4,40,0,156
4,42,99,36
4,42,0,266
4,42,90,22
4,42,0,268
4,40,106,20
4,40,0,180
4,38,102,12
4,38,0,279
4,38,104,9
4,38,0,270
4,37,97,18
4,37,0,84
4,38,100,12
4,38,0,78
4,40,98,18
4,40,0,260
4,40,94,28
4,40,0,284
4,28,109,4
4,28,0,92
4,40,107,4
4,40,0,92
4,28,102,4
4,28,0,90
4,33,110,6
4,33,0,160
4,33,109,32
4,33,0,268
4,40,100,20
4,40,0,156
4,42,97,36
4,42,0,266
4,42,92,22
4,42,0,268
4,40,102,20
4,40,0,180
4,38,108,12
4,38,0,284
4,38,102,4
4,38,0,270
4,37,101,18
4,37,0,84
4,38,101,12
4,38,0,78
4,40,98,18
4,40,0,260
4,40,98,28
4,40,0,284
4,28,102,4
4,28,0,92
4,40,111,4
4,40,0,92
4,28,103,4
4,28,0,90
4,33,108,6
4,33,0,160
4,33,106,32
4,33,0,268
4,40,98,20
4,40,0,156
4,42,100,36
4,42,0,266
4,42,97,22
4,42,0,268
4,40,103,20
4,40,0,180
4,38,106,12
4,38,0,276
4,38,104,12
4,38,0,270
4,37,100,18
4,37,0,84
4,38,102,12
4,38,0,78
4,40,99,18
4,40,0,260
4,40,99,28
4,40,0,284
4,28,105,4
4,28,0,92
4,40,104,4
4,40,0,92
4,28,104,4
4,28,0,90
4,33,111,6
4,33,0,160
4,33,105,32
4,33,0,268
4,40,101,20
4,40,0,156
4,42,102,36
4,42,0,266
4,42,91,22
4,42,0,268
4,40,107,20
4,40,0,180
4,38,107,12
4,38,0,284
4,38,101,4
4,38,0,270
4,37,102,18
4,37,0,84
4,38,101,12
4,38,0,78
4,40,100,18
4,40,0,260
4,40,92,28
4,40,0,284
4,28,102,4
4,28,0,92
4,40,105,4
4,40,0,92
4,28,99,4
4,28,0,90
4,26,109,6
4,26,0,191
4,38,100,1
4,38,0,268
4,26,109,20
4,26,0,126
4,26,111,66
4,26,0,380
4,38,109,4
4,38,0,164
4,26,108,28
4,26,0,188
4,25,111,4
4,25,0,287
4,37,108,1
4,37,0,284
4,25,106,4
4,25,0,95
4,37,109,1
4,37,0,176
4,49,89,16
4,49,0,85
4,49,97,11
4,49,0,85
4,49,86,11
4,49,0,85
4,49,97,11
4,49,0,85
4,49,94,11
4,49,0,85
4,37,93,11
4,37,0,92
4,25,109,4
4,25,0,188
4,30,104,4
4,30,0,191
4,42,101,1
4,42,0,178
4,30,104,14
4,30,0,68
4,28,104,28
4,28,0,182
4,26,113,10
4,26,0,287
4,38,100,1
4,38,0,140
4,38,76,52
4,38,0,95
4,26,104,1
4,26,0,92
4,38,106,4
4,38,0,92
4,26,106,4
4,26,0,82
4,28,107,14
4,28,0,172
4,28,103,20
4,28,0,90
4,28,114,6
4,28,0,82
4,28,79,14
4,28,0,84
4,28,102,12
4,28,0,86
4,28,68,10
4,28,0,166
4,28,107,26
4,28,0,70
4,28,104,26
4,28,0,74
4,28,103,22
4,28,0,66
4,28,102,30
4,28,0,76
4,28,107,20
4,28,0,76
4,25,104,20
4,25,0,86
4,28,106,10
4,28,0,78
4,25,106,18
4,25,0,92
4,30,107,4
4,30,0,146
4,30,109,46
4,30,0,200
4,30,114,88
4,30,0,92
4,28,106,4
4,28,0,90
4,26,100,6
4,26,0,46
4,26,113,50
4,26,0,148
4,26,106,44
4,26,0,274
4,38,105,14
4,38,0,92
4,26,108,4
4,26,0,92
4,38,108,4
4,38,0,82
4,28,108,14
4,28,0,172
4,28,101,20
4,28,0,90
4,28,112,6
4,28,0,82
4,28,106,14
4,28,0,84
4,28,101,12
4,28,0,86
4,28,103,10
4,28,0,84
4,28,102,12
4,28,0,86
4,28,111,10
4,28,0,90
4,28,101,6
4,28,0,78
4,28,107,18
4,28,0,84
4,28,102,12
4,28,0,86
4,35,104,10
4,35,0,82
4,40,99,14
4,40,0,92
4,35,106,4
4,35,0,78
4,28,108,18
4,28,0,92
4,25,106,4
4,25,0,191
4,37,106,1
4,37,0,270
4,25,106,18
4,25,0,90
4,37,108,6
4,37,0,92
4,25,102,4
4,25,0,92
4,30,109,4
4,30,0,256
4,30,106,128
4,30,0,92
4,32,100,4
4,32,0,88
4,35,102,8
4,35,0,86
4,36,103,10
4,36,0,92
4,37,105,4
4,37,0,170
4,25,98,22
4,25,0,188
4,37,101,4
4,37,0,92
4,25,101,4
4,25,0,90
4,37,103,6
4,37,0,174
4,30,101,18
4,30,0,280
4,42,102,8
4,42,0,92
4,30,108,4
4,30,0,34
4,30,99,62
4,30,0,92
4,42,96,4
4,42,0,92
4,30,97,4
4,30,0,92
4,35,106,4
4,35,0,85
4,35,103,11
4,35,0,85
4,35,109,11
4,35,0,85
4,35,100,11
4,35,0,85
4,35,106,11
4,35,0,85
4,35,101,11
4,35,0,85
4,35,110,11
4,35,0,85
4,35,100,11
4,35,0,85
4,35,111,11
4,35,0,85
4,35,105,11
4,35,0,85
4,35,109,11
4,35,0,85
4,35,100,11
4,35,0,85
4,35,104,11
4,35,0,85
4,35,100,11
4,35,0,85
4,35,109,11
4,35,0,85
4,35,100,11
4,35,0,78
4,40,101,18
4,40,0,72
4,40,80,24
4,40,0,58
4,40,95,38
4,40,0,70
4,40,90,26
4,40,0,68
4,40,105,28
4,40,0,92
4,35,105,4
4,35,0,80
4,28,101,16
4,28,0,154
4,28,105,38
4,28,0,191
4,40,71,1
4,40,0,60
4,40,97,36
4,40,0,92
4,28,106,4
4,28,0,84
4,40,94,12
4,40,0,80
4,28,100,16
4,28,0,180
4,33,111,12
4,33,0,160
4,33,106,32
4,33,0,268
4,40,104,20
4,40,0,156
4,42,97,36
4,42,0,266
4,42,96,22
4,42,0,268
4,40,102,20
4,40,0,180
4,38,108,12
4,38,0,276
4,38,98,12
4,38,0,270
4,37,100,18
4,37,0,84
4,38,100,12
4,38,0,78
4,40,99,18
4,40,0,260
4,40,96,28
4,40,0,284
4,28,103,4
4,28,0,92
4,40,108,4
4,40,0,92
4,28,100,4
4,28,0,90
4,33,109,6
4,33,0,160
4,33,110,32
4,33,0,268
4,40,99,20
4,40,0,156
4,42,100,36
4,42,0,266
4,42,94,22
4,42,0,268
4,40,103,20
4,40,0,180
4,38,102,12
4,38,0,284
4,38,103,4
4,38,0,270
4,37,102,18
4,37,0,84
4,38,102,12
4,38,0,78
4,40,99,18
4,40,0,260
4,40,99,28
4,40,0,284
4,28,108,4
4,28,0,92
4,40,107,4
4,40,0,92
4,28,101,4
4,28,0,90
4,33,110,6
4,33,0,160
4,33,104,32
4,33,0,268
4,40,105,20
4,40,0,156
4,42,100,36
4,42,0,266
4,42,93,22
4,42,0,268
4,40,100,20
4,40,0,180
4,38,108,12
4,38,0,284
4,38,103,4
4,38,0,270
4,37,98,18
4,37,0,84
4,38,102,12
4,38,0,78
4,40,99,18
4,40,0,260
4,40,94,28
4,40,0,284
4,28,107,4
4,28,0,92
4,40,105,4
4,40,0,92
4,28,101,4
4,28,0,90
4,26,109,6
4,26,0,191
4,38,107,1
4,38,0,268
4,26,107,20
4,26,0,126
4,26,111,66
4,26,0,380
4,38,105,4
4,38,0,164
4,26,109,28
4,26,0,188
4,25,110,4
4,25,0,92
4,25,108,4
4,25,0,162
4,25,106,30
4,25,0,160
4,25,108,32
4,25,0,90
4,29,108,6
4,29,0,86
4,32,104,10
4,32,0,88
4,37,92,8
4,37,0,92
4,25,105,4
4,25,0,154
4,25,109,38
4,25,0,106
4,25,105,86
4,25,0,86
4,32,101,10
4,32,0,84
4,37,101,12
4,37,0,90
4,32,90,6
4,32,0,84
4,25,106,12
4,25,0,174
4,25,103,18
4,25,0,124
4,25,107,68
4,25,0,92
4,29,105,4
4,29,0,84
4,32,101,12
4,32,0,92
4,37,99,4
4,37,0,76
4,49,104,20
4,49,0,86
4,49,93,10
4,49,0,86
4,49,106,10
4,49,0,86
4,49,66,10
4,49,0,86
4,49,106,10
4,49,0,86
4,37,106,10
4,37,0,92
4,25,93,4
4,25,0,92
4,37,100,4
4,37,0,92
4,30,102,4
4,30,0,191
4,42,104,1
4,42,0,178
4,30,107,14
4,30,0,68
4,28,105,28
4,28,0,182
4,26,110,10
4,26,0,287
4,38,107,1
4,38,0,140
4,38,77,52
4,38,0,95
4,26,107,1
4,26,0,92
4,38,107,4
4,38,0,92
4,26,105,4
4,26,0,82
4,28,109,14
4,28,0,172
4,28,104,20
4,28,0,86
4,28,109,10
4,28,0,86
4,28,112,10
4,28,0,86
4,28,106,10
4,28,0,86
4,28,114,10
4,28,0,86
4,28,107,10
4,28,0,86
4,28,111,10
4,28,0,86
4,28,100,10
4,28,0,86
4,28,105,10
4,28,0,86
4,28,108,10
4,28,0,86
4,28,102,10
4,28,0,76
4,25,102,20
4,25,0,86
4,28,113,10
4,28,0,78
4,25,106,18
4,25,0,92
4,30,108,4
4,30,0,146
4,30,105,46
4,30,0,200
4,30,110,88
4,30,0,92
4,28,108,4
4,28,0,90
4,26,104,6
4,26,0,46
4,26,108,50
4,26,0,148
4,26,110,44
4,26,0,274
4,38,105,14
4,38,0,92
4,26,111,4
4,26,0,92
4,38,111,4
4,38,0,82
4,28,106,14
4,28,0,172
4,28,101,20
4,28,0,86
4,28,115,10
4,28,0,86
4,28,101,10
4,28,0,86
4,28,103,10
4,28,0,86
4,28,109,10
4,28,0,86
4,28,101,10
4,28,0,86
4,28,113,10
4,28,0,86
4,28,69,10
4,28,0,78
4,28,107,18
4,28,0,44
4,28,104,52
4,28,0,74
4,35,109,22
4,35,0,82
4,40,100,14
4,40,0,92
4,35,106,4
4,35,0,78
4,28,108,18
4,28,0,92
4,25,106,4
4,25,0,191
4,37,108,1
4,37,0,270
4,25,107,18
4,25,0,90
4,37,109,6
4,37,0,92
