track,note,velocity,time
0,48,46,1524
0,55,54,0
0,36,40,12
0,48,84,0
0,51,82,0
0,76,108,372
0,44,105,0
0,77,84,12
0,76,84,12
0,72,80,12
0,55,86,12
0,59,74,0
0,74,108,0
0,76,82,12
0,74,104,12
0,44,105,0
0,72,88,12
0,31,58,8
0,71,88,0
0,36,46,8
0,48,72,0
0,53,80,0
0,57,76,0
0,51,82,0
0,72,86,372
0,44,105,0
0,74,84,12
0,72,82,12
0,69,86,12
0,60,68,0
0,55,80,12
0,59,80,0
0,71,104,0
0,69,72,12
0,62,72,0
0,71,86,12
0,44,105,0
0,74,84,12
0,31,62,12
0,67,92,0
0,51,71,0
0,55,48,0
0,64,60,0
0,36,58,12
0,48,86,0
0,55,52,0
0,51,82,0
0,60,52,180
0,76,88,12
0,64,80,0
0,44,105,0
0,77,86,12
0,76,86,12
0,60,52,0
0,72,80,12
0,62,52,0
0,55,84,12
0,59,78,0
0,74,104,0
0,62,56,0
0,55,46,12
0,76,78,12
0,74,100,12
0,67,60,0
0,44,105,0
0,72,100,12
0,31,62,12
0,71,80,0
0,55,31,0
0,57,56,0
0,60,36,0
0,36,46,8
0,48,78,0
0,53,84,0
0,57,82,0
0,60,52,0
0,51,82,0
0,57,44,12
0,72,92,12
0,65,58,0
0,44,105,0
0,74,80,12
0,72,84,12
0,57,46,0
0,69,84,12
0,59,44,0
0,55,35,0
0,55,78,12
0,59,78,0
0,71,92,0
0,62,62,0
0,55,36,12
0,69,74,12
0,71,80,4
0,67,56,0
0,44,105,0
0,74,80,12
0,31,56,12
0,67,86,0
0,55,36,0
0,51,71,0
0,67,50,0
0,36,46,12
0,48,76,0
0,52,78,0
0,55,82,0
0,64,62,0
0,51,82,0
0,55,37,12
0,76,84,12
0,60,48,0
0,44,105,0
0,77,88,12
0,76,88,12
0,55,42,0
0,74,84,12
0,48,82,12
0,76,88,0
0,67,48,0
0,74,82,12
0,72,82,12
0,55,31,0
0,60,66,12
0,44,105,0
0,31,52,12
0,52,62,0
0,64,66,0
0,62,54,0
0,36,44,12
0,48,74,0
0,55,84,0
0,59,84,0
0,62,66,0
0,55,48,12
0,74,82,12
0,59,50,0
0,44,105,0
0,55,50,12
0,72,80,12
0,55,78,12
0,59,74,0
0,71,88,0
0,67,68,0
0,69,86,12
0,67,78,12
0,55,33,0
0,59,80,12
0,59,46,0
0,44,105,0
0,43,58,12
0,55,74,0
0,62,40,0
0,60,52,0
0,36,50,12
0,48,74,0
0,53,72,0
0,57,82,0
0,69,88,0
0,60,58,0
0,57,54,12
0,65,56,12
0,44,105,0
0,71,92,12
0,57,44,0
0,48,72,12
0,72,92,0
0,60,62,0
0,57,48,12
0,76,80,12
0,62,54,0
0,44,105,0
0,74,66,12
0,72,80,12
0,57,54,0
0,62,62,0
0,36,50,12
0,48,78,0
0,55,86,0
0,59,74,0
0,74,100,0
0,62,66,0
0,55,37,12
0,59,52,12
0,44,105,0
0,55,78,12
0,59,62,0
0,55,50,0
0,67,56,0
0,55,84,12
0,59,76,0
0,67,68,0
0,55,42,12
0,76,88,12
0,59,44,0
0,44,105,0
0,31,62,12
0,55,48,0
0,77,88,12
0,64,64,0
0,36,44,12
0,48,72,0
0,52,76,0
0,55,78,0
0,76,86,0
0,64,60,0
0,51,82,0
0,74,82,12
0,72,74,12
0,55,48,0
0,60,54,12
0,44,105,0
0,55,74,12
0,55,46,0
0,72,62,0
0,48,78,12
0,67,68,0
0,55,29,12
0,74,88,12
0,64,62,0
0,44,105,0
0,55,48,8
0,72,82,12
0,62,42,0
0,71,54,0
0,36,44,12
0,48,76,0
0,55,84,0
0,59,74,0
0,71,74,0
0,62,64,0
0,69,96,12
0,67,76,12
0,55,50,0
0,59,46,12
0,44,105,0
0,55,42,12
0,67,52,0
0,59,33,0
0,55,74,12
0,59,76,0
0,67,66,0
0,55,44,12
0,67,84,12
0,62,52,0
0,44,105,0
0,67,76,12
0,55,54,0
0,67,78,12
0,65,31,0
0,57,30,0
0,41,64,12
0,53,82,0
0,57,76,0
0,69,70,0
0,57,54,0
0,53,52,12
0,71,86,12
0,60,66,0
0,44,105,0
0,53,64,12
0,53,48,0
0,29,66,12
0,53,80,0
0,57,80,0
0,72,92,0
0,65,76,0
0,53,38,12
0,53,80,12
0,57,80,0
0,77,92,0
0,57,54,0
0,44,105,0
0,60,58,12
0,55,38,0
0,64,52,0
0,31,60,12
0,55,86,0
0,60,82,0
0,76,76,0
0,64,68,0
0,72,84,12
0,55,37,0
0,60,54,12
0,44,105,0
0,74,84,12
0,64,58,0
0,62,68,0
0,43,56,12
0,55,82,0
0,59,78,0
0,74,89,0
0,62,68,0
0,60,64,0
0,55,50,12
0,59,58,0
0,43,38,12
0,59,64,0
0,44,105,0
0,38,56,8
0,76,92,0
0,62,64,0
0,60,58,0
0,57,54,0
0,38,62,12
0,50,86,0
0,77,88,0
0,65,68,0
0,51,82,0
0,57,52,12
0,50,82,12
0,53,82,0
0,57,78,0
0,77,86,0
0,62,62,0
0,44,105,0
0,65,56,12
0,77,86,12
0,38,62,12
0,77,88,0
0,69,58,0
0,81,82,12
0,57,46,0
0,55,60,0
0,64,66,0
0,36,60,12
0,48,82,0
0,79,68,0
0,67,56,0
0,44,105,0
0,76,82,12
0,64,54,0
0,62,54,0
0,57,44,0
0,65,52,0
0,38,62,8
0,50,72,0
0,53,82,0
0,57,70,0
0,74,74,0
0,65,68,0
0,57,44,12
0,62,50,12
0,44,105,0
0,50,74,12
0,65,60,0
0,50,78,12
0,62,44,0
0,53,40,12
0,67,66,0
0,64,68,0
0,60,60,0
0,74,88,12
0,57,56,0
0,44,105,0
0,76,82,8
0,60,52,0
0,69,40,0
0,65,60,0
0,38,58,12
0,50,80,0
0,53,78,0
0,57,76,0
0,77,88,0
0,62,66,0
0,53,42,12
0,77,92,12
0,57,58,0
0,44,105,0
0,60,50,12
0,77,82,4
0,38,52,12
0,77,86,0
0,62,68,0
0,81,80,12
0,53,42,0
0,64,58,0
0,67,64,0
0,36,50,8
0,48,78,0
0,79,70,0
0,64,64,0
0,44,105,0
0,76,86,12
0,55,42,0
0,62,52,0
0,65,40,0
0,38,56,8
0,50,76,0
0,53,78,0
0,57,78,0
0,74,74,0
0,65,76,0
0,57,44,12
0,62,39,12
0,44,105,0
0,50,80,12
0,65,62,0
0,64,66,0
0,50,82,12
0,62,66,0
0,74,82,12
0,57,42,0
0,62,56,0
0,76,88,12
0,53,52,0
0,44,105,0
0,38,58,12
0,77,78,0
0,57,56,0
0,67,54,0
0,36,50,8
0,48,78,0
0,52,74,0
0,55,82,0
0,76,78,0
0,64,66,0
0,51,82,0
0,74,76,12
0,72,82,12
0,55,46,0
0,60,54,12
0,44,105,0
0,36,62,12
0,48,74,0
0,64,60,0
0,79,35,0
0,36,46,12
0,48,76,0
0,67,66,0
0,55,40,12
0,77,78,12
0,64,58,0
0,44,105,0
0,79,84,12
0,77,74,12
0,55,46,0
0,76,80,12
0,43,58,12
0,55,84,0
0,59,78,0
0,74,84,0
0,62,68,0
0,55,39,12
0,59,56,12
0,44,105,0
0,43,34,12
0,55,74,0
0,62,32,0
0,43,58,12
0,55,86,0
0,67,66,0
0,67,72,12
0,55,46,0
0,31,66,12
0,43,84,0
0,76,68,0
0,62,64,0
0,44,105,0
0,76,78,12
0,74,74,12
0,55,42,0
0,72,74,12
0,72,56,0
0,36,56,12
0,48,76,0
0,52,76,0
0,55,78,0
0,72,86,0
0,64,64,0
0,51,105,0
0,55,44,12
0,60,46,12
0,48,74,12
0,48,78,12
0,36,46,12
0,48,68,0
0,52,76,0
0,55,78,0
0,60,58,0
0,55,50,0
0,48,72,12
0,48,80,12
0,28,17,256
0,29,19,0
0,31,21,4
0,33,23,4
0,35,25,0
0,36,27,0
0,38,29,0
0,40,31,0
0,41,33,0
0,40,105,0
0,43,34,0
0,40,90,0
0,45,36,0
0,47,38,0
0,48,40,0
0,50,42,4
0,52,44,16
0,53,46,12
0,55,48,0
0,57,50,16
0,59,52,12
0,60,54,12
0,62,56,0
0,64,58,16
0,65,60,0
0,67,62,0
0,69,64,0
0,71,66,12
0,72,68,0
0,74,70,0
0,76,72,16
0,77,74,12
0,79,76,4
0,81,78,0
0,67,60,0
0,60,46,0
0,36,60,4
0,48,72,0
0,52,78,0
0,55,78,0
0,64,64,0
0,79,64,0
0,84,88,0
0,88,97,0
0,35,105,0
0,49,85,0
0,55,42,164
0,42,56,0
0,76,78,12
0,60,50,0
0,40,105,0
0,42,86,0
0,77,76,12
0,76,84,12
0,55,54,0
0,35,67,0
0,42,56,0
0,74,78,12
0,48,82,12
0,76,76,0
0,67,72,0
0,35,97,0
0,42,105,0
0,74,70,12
0,72,76,12
0,55,50,0
0,42,56,0
0,64,66,12
0,91,85,0
0,40,105,0
0,42,75,0
0,43,56,12
0,52,84,0
0,55,42,0
0,42,56,0
0,62,52,0
0,55,36,0
0,48,64,8
0,48,78,0
0,55,82,0
0,59,78,0
0,62,72,0
0,86,94,0
0,35,105,0
0,42,105,0
0,55,48,12
0,42,52,0
0,74,84,12
0,59,56,0
0,40,105,0
0,42,82,0
0,55,50,12
0,35,63,0
0,42,60,0
0,72,72,12
0,48,52,12
0,55,80,0
0,59,72,0
0,71,78,0
0,67,66,0
0,35,75,0
0,42,105,0
0,69,82,12
0,67,82,12
0,55,48,0
0,42,60,0
0,59,76,12
0,62,66,0
0,83,90,0
0,40,105,0
0,42,71,0
0,43,62,8
0,55,82,0
0,55,56,0
0,84,90,0
0,42,60,0
0,57,56,0
0,65,72,0
0,36,60,8
0,48,78,0
0,53,82,0
0,57,76,0
0,69,82,0
0,60,58,0
0,77,85,0
0,81,85,0
0,35,105,0
0,42,105,0
0,53,52,12
0,42,63,0
0,57,54,12
0,40,105,0
0,42,82,0
0,71,78,12
0,53,42,0
0,35,67,0
0,42,60,0
0,36,56,12
0,48,84,0
0,72,76,0
0,65,72,0
0,35,86,0
0,42,105,0
0,53,40,12
0,42,52,0
0,76,78,12
0,57,64,0
0,40,105,0
0,42,75,0
0,74,66,12
0,36,44,12
0,72,74,0
0,53,50,0
0,42,56,0
0,62,64,0
0,55,44,0
0,36,56,12
0,48,74,0
0,55,84,0
0,59,80,0
0,74,78,0
0,59,58,0
0,79,56,0
0,35,105,0
0,42,105,0
0,55,52,12
0,42,60,0
0,62,66,12
0,40,105,0
0,42,78,0
0,36,44,12
0,55,78,0
0,59,74,0
0,55,52,0
0,35,75,0
0,42,67,0
0,59,54,0
0,67,66,0
0,36,56,12
0,55,76,0
0,59,72,0
0,67,76,0
0,83,82,0
0,35,86,0
0,42,105,0
0,55,56,12
0,79,78,0
0,86,78,0
0,42,60,0
0,76,96,12
0,62,56,0
0,74,90,0
0,83,78,0
0,40,105,0
0,42,75,0
0,31,58,12
0,55,48,0
0,42,48,0
0,77,76,12
0,55,46,0
0,64,46,0
0,36,56,12
0,48,66,0
0,52,84,0
0,55,86,0
0,76,86,0
0,64,64,0
0,76,90,0
0,35,105,0
0,49,85,0
0,74,82,12
0,72,74,12
0,55,56,0
0,42,56,0
0,60,68,12
0,40,105,0
0,42,86,0
0,55,72,12
0,55,54,0
0,35,67,0
0,42,56,0
0,48,78,12
0,67,84,0
0,35,97,0
0,42,105,0
0,55,46,0
0,79,52,0
0,42,56,0
0,67,66,0
0,74,96,12
0,64,68,0
0,84,76,0
0,40,105,0
0,42,75,0
0,55,52,12
0,88,94,0
0,42,56,0
0,72,82,12
0,62,56,0
0,36,62,12
0,48,74,0
0,55,82,0
0,59,76,0
0,71,82,0
0,62,68,0
0,86,70,0
0,35,105,0
0,42,105,0
0,69,96,12
0,67,74,12
0,55,54,0
0,42,52,0
0,59,60,12
0,40,105,0
0,42,82,0
0,36,48,12
0,55,54,0
0,35,63,0
0,42,60,0
0,36,54,12
0,55,72,0
0,59,76,0
0,67,68,0
0,83,72,0
0,91,48,0
0,35,75,0
0,42,105,0
0,55,52,12
0,42,60,0
0,67,64,0
0,67,86,4
0,62,68,0
0,40,105,0
0,42,71,0
0,67,74,12
0,55,50,0
0,42,60,0
0,67,72,12
0,60,68,0
0,29,68,8
0,53,80,0
0,57,84,0
0,69,92,0
0,60,66,0
0,81,66,0
0,89,78,0
0,35,105,0
0,42,105,0
0,53,52,8
0,42,63,0
0,55,64,0
0,71,96,12
0,57,60,0
0,40,105,0
0,42,82,0
0,53,66,12
0,53,40,0
0,35,67,0
0,42,60,0
0,57,68,0
0,41,72,12
0,53,82,0
0,57,76,0
0,72,86,0
0,65,68,0
0,35,86,0
0,42,105,0
0,53,42,12
0,42,52,0
0,59,68,0
0,29,72,12
0,53,84,0
0,57,74,0
0,77,96,0
0,60,62,0
0,40,105,0
0,42,75,0
0,53,48,12
0,42,56,0
0,55,62,0
0,60,60,0
0,31,64,8
0,55,86,0
0,60,84,0
0,76,82,0
0,64,64,0
0,79,60,0
0,88,82,0
0,35,105,0
0,42,105,0
0,72,88,12
0,55,64,0
0,42,60,0
0,64,68,0
0,60,64,12
0,40,105,0
0,42,78,0
0,43,54,4
0,74,80,0
0,62,64,0
0,35,75,0
0,42,67,0
0,62,62,0
0,43,80,12
0,55,84,0
0,59,78,0
0,74,86,0
0,62,64,0
0,86,72,0
0,35,86,0
0,42,105,0
0,55,50,12
0,42,60,0
0,59,68,80
0,31,64,0
0,59,58,0
0,40,105,0
0,42,75,0
0,76,86,12
0,67,66,0
0,42,48,0
0,57,58,0
0,65,72,0
0,38,64,0
0,50,84,0
0,77,96,0
0,65,64,0
0,77,58,0
0,81,66,0
0,35,105,0
0,49,85,0
0,57,44,12
0,42,56,0
0,50,84,12
0,53,80,0
0,57,78,0
0,77,88,0
0,62,64,0
0,40,105,0
0,42,86,0
0,57,54,12
0,35,67,0
0,42,56,0
0,77,80,12
0,38,62,12
0,77,96,0
0,65,62,0
0,35,97,0
0,42,105,0
0,81,86,12
0,69,54,0
0,42,56,0
0,64,62,0
0,60,58,0
0,55,60,0
0,36,56,4
0,48,84,0
0,79,74,0
0,67,72,0
0,76,70,0
0,79,56,0
0,40,105,0
0,42,75,0
0,76,78,12
0,64,52,0
0,42,56,0
0,62,46,0
0,65,54,0
0,57,46,0
0,38,68,8
0,50,78,0
0,53,82,0
0,57,80,0
0,74,80,0
0,65,64,0
0,74,56,0
0,77,66,0
0,35,105,0
0,42,105,0
0,57,42,12
0,42,52,0
0,62,64,12
0,40,105,0
0,42,82,0
0,38,58,12
0,50,86,0
0,57,44,0
0,35,63,0
0,42,60,0
0,38,60,12
0,50,82,0
0,62,54,0
0,35,75,0
0,42,105,0
0,53,58,12
0,42,60,0
0,74,80,12
0,57,62,0
0,76,66,0
0,79,45,0
0,40,105,0
0,42,71,0
0,76,86,12
0,62,58,0
0,42,60,0
0,69,80,0
0,38,64,12
0,50,70,0
0,53,84,0
0,57,78,0
0,77,88,0
0,65,60,0
0,77,54,0
0,81,62,0
0,35,105,0
0,42,105,0
0,57,46,12
0,42,63,0
0,77,88,12
0,62,66,0
0,40,105,0
0,42,82,0
0,57,54,12
0,35,67,0
0,42,60,0
0,77,78,12
0,38,56,12
0,77,86,0
0,65,66,0
0,35,86,0
0,42,105,0
0,81,86,12
0,69,72,0
0,42,52,0
0,60,58,0
0,67,68,0
0,64,58,0
0,36,58,12
0,48,82,0
0,79,66,0
0,67,66,0
0,76,72,0
0,79,50,0
0,40,105,0
0,42,75,0
0,72,76,0
0,76,88,8
0,64,62,0
0,42,56,0
0,65,66,0
0,69,54,0
0,38,64,8
0,50,84,0
0,53,80,0
0,57,82,0
0,74,80,0
0,65,58,0
0,74,54,0
0,77,66,0
0,35,105,0
0,42,105,0
0,57,46,12
0,42,60,0
0,62,60,12
0,40,105,0
0,42,78,0
0,50,74,12
0,57,36,0
0,35,75,0
0,42,67,0
0,38,66,12
0,50,86,0
0,69,30,0
0,35,86,0
0,42,105,0
0,74,92,12
0,57,46,0
0,42,60,0
