track,note,velocity,time
0,42,64,977
0,42,0,28
0,42,48,498
0,42,0,28
0,42,50,93
0,69,72,7
0,74,72,0
0,42,0,21
0,42,46,4
0,42,0,27
0,45,123,17
0,57,112,0
0,52,123,26
0,69,117,3
0,57,123,5
0,64,123,3
0,60,122,26
0,64,123,10
0,64,123,0
0,60,122,4
0,57,123,5
0,52,123,4
0,64,113,1
0,45,123,4
0,69,113,5
0,57,112,10
0,64,104,0
0,60,103,0
0,57,104,0
0,52,103,2
0,45,103,4
0,64,102,2
0,69,92,0
0,57,96,9
0,64,123,0
0,60,123,0
0,57,122,0
0,64,122,1
0,52,123,1
0,57,118,4
0,45,123,0
0,69,112,5
0,69,101,2
0,64,113,0
0,64,103,3
0,60,113,0
0,57,113,0
0,52,115,4
0,45,115,4
0,57,111,4
0,64,104,0
0,60,106,0
0,57,104,0
0,57,94,0
0,52,106,4
0,64,106,5
0,45,104,0
0,69,97,0
0,62,118,3
0,57,123,3
0,50,123,0
0,47,122,0
0,69,117,3
0,59,114,13
0,59,103,1
0,57,112,0
0,69,111,1
0,50,113,3
0,47,112,4
0,62,108,1
0,55,104,0
0,50,106,4
0,67,102,2
0,47,104,3
0,62,95,0
0,59,104,3
0,67,123,4
0,64,123,0
0,64,122,3
0,60,123,0
0,60,118,1
0,55,123,3
0,52,123,5
0,48,123,4
0,67,103,1
0,64,111,0
0,60,111,5
0,55,112,4
0,64,102,0
0,60,103,4
0,55,103,5
0,67,91,2
0,67,124,0
0,64,123,0
0,60,123,0
0,64,111,3
0,55,123,0
0,52,123,4
0,48,123,5
0,60,118,4
0,64,107,116
0,52,112,0
0,48,113,5
0,60,109,5
0,52,106,111
0,48,103,4
0,64,95,6
0,60,91,0
0,60,122,107
0,64,120,1
0,55,122,3
0,52,122,5
0,48,122,4
0,60,116,6
0,71,96,1
0,64,98,3
0,59,106,0
0,55,104,0
0,52,104,4
0,60,96,1
0,48,104,4
0,60,113,0
0,55,113,0
0,52,112,5
0,64,110,0
0,48,112,4
0,60,111,8
0,64,92,1
0,59,104,0
0,55,104,0
0,52,103,4
0,71,100,0
0,48,104,4
0,60,94,4
0,67,118,3
0,60,122,0
0,55,123,0
0,52,122,3
0,48,123,4
0,64,119,1
0,60,115,9
0,59,113,0
0,60,104,3
0,71,111,1
0,55,113,0
0,52,113,5
0,48,113,4
0,64,108,7
0,67,104,0
0,60,106,0
0,55,106,0
0,52,104,0
0,60,96,1
0,48,104,3
0,64,106,9
0,59,123,0
0,60,114,0
0,55,123,0
0,71,117,1
0,64,125,2
0,52,123,1
0,48,123,4
0,67,113,0
0,55,113,1
0,60,104,4
0,52,113,0
0,48,113,4
0,64,115,5
0,55,104,4
0,67,102,1
0,52,104,2
0,64,102,8
0,62,112,2
0,70,49,1
0,55,123,0
0,50,123,3
0,43,123,4
0,67,122,6
0,55,111,4
0,70,30,108
0,70,50,4
0,59,113,4
0,55,113,1
0,71,102,0
0,67,105,8
0,70,33,105
0,67,123,0
0,70,48,3
0,59,122,1
0,55,123,2
0,62,117,3
0,71,117,0
0,50,123,2
0,55,119,0
0,43,123,4
0,70,27,95
0,70,54,108
0,70,28,99
0,70,46,3
0,67,122,0
0,67,114,2
0,59,122,3
0,71,115,2
0,55,122,2
0,70,33,5
0,67,99,1
0,59,104,0
0,55,104,4
0,71,100,8
0,71,110,7
0,70,53,4
0,59,113,4
0,64,102,0
0,52,113,0
0,45,112,0
0,57,107,4
0,70,32,3
0,67,103,2
0,67,106,0
0,60,104,2
0,55,106,4
0,52,106,5
0,64,105,0
0,60,95,3
0,48,106,1
0,70,47,105
0,70,29,3
0,67,120,0
0,67,110,3
0,64,111,2
0,60,120,0
0,55,120,0
0,52,120,5
0,48,120,4
0,60,112,3
0,70,55,113
0,67,104,4
0,70,32,2
0,64,104,1
0,60,104,0
0,55,103,5
0,52,104,4
0,55,124,96
0,43,123,0
0,70,49,3
0,70,32,105
0,70,52,103
0,70,27,102
0,67,123,5
0,70,47,4
0,59,123,0
0,55,123,4
0,71,119,4
0,50,123,1
0,67,111,6
0,62,113,8
0,70,31,103
0,70,51,105
0,70,30,0
0,59,104,1
0,62,93,1
0,55,103,1
0,50,104,5
0,43,104,4
0,55,96,0
0,70,47,1
0,67,122,0
0,62,123,2
0,55,117,3
0,59,123,0
0,55,123,4
0,50,122,5
0,43,122,4
0,70,33,101
0,70,52,3
0,59,113,1
0,62,106,1
0,55,113,1
0,55,111,3
0,50,113,1
0,43,113,4
0,67,106,0
0,70,30,3
0,59,106,0
0,55,106,5
0,62,96,2
0,50,106,2
0,43,104,4
0,55,99,2
0,66,123,0
0,70,49,1
0,62,123,0
0,57,123,0
0,69,112,0
0,50,123,4
0,62,118,6
0,70,30,101
0,69,103,3
0,62,113,1
0,62,110,0
0,70,55,2
0,57,113,3
0,50,115,4
0,62,108,4
0,62,106,0
0,70,30,3
0,57,106,1
0,69,96,1
0,50,106,3
0,70,47,1
0,64,123,0
0,64,116,3
0,59,122,1
0,55,123,5
0,59,112,2
0,52,122,2
0,47,122,5
0,40,121,4
0,52,114,11
0,70,29,100
0,70,53,100
0,70,27,110
0,70,46,2
0,64,123,0
0,76,97,4
0,59,122,0
0,64,112,0
0,55,123,0
0,52,122,0
0,47,122,4
0,59,117,0
0,40,122,0
0,52,122,5
0,70,30,104
0,64,111,2
0,70,54,3
0,59,112,1
0,55,113,1
0,52,113,1
0,59,113,2
0,52,112,0
0,47,112,4
0,40,112,4
0,70,32,0
0,59,103,0
0,52,92,5
0,55,103,0
0,52,103,0
0,47,103,4
0,59,102,1
0,40,103,4
0,64,91,3
0,70,48,1
0,69,91,2
0,67,122,0
0,62,111,0
0,59,122,0
0,55,122,0
0,50,122,3
0,55,117,3
0,43,122,1
0,70,33,3
0,67,103,0
0,59,104,0
0,55,104,4
0,50,104,4
0,62,103,9
0,70,50,0
0,59,113,2
0,55,113,1
0,55,115,0
0,50,113,3
0,43,113,5
0,62,109,5
0,70,33,107
0,70,52,1
0,67,123,0
0,59,122,0
0,55,123,1
0,55,115,5
0,50,122,0
0,43,122,4
0,62,115,0
0,62,96,3
0,70,31,2
0,55,104,0
0,50,104,4
0,43,100,5
0,55,101,11
0,59,113,4
0,70,55,3
0,55,113,2
0,67,106,1
0,50,113,3
0,62,115,6
0,67,88,99
0,70,30,2
0,67,97,1
0,70,51,0
0,67,122,0
0,60,122,1
0,60,116,1
0,55,122,0
0,67,117,3
0,52,123,1
0,64,125,3
0,48,123,2
0,70,31,107
0,70,55,7
0,69,91,2
0,70,28,105
0,70,52,0
0,67,123,0
0,71,88,2
0,67,113,1
0,62,122,0
0,55,123,0
0,52,122,4
0,64,121,5
0,48,122,0
0,60,122,3
0,72,94,9
0,70,28,2
0,69,94,3
0,67,111,0
0,70,51,3
0,62,112,0
0,55,112,0
0,50,113,4
0,62,109,6
0,67,105,2
0,70,28,3
0,67,104,0
0,62,91,0
0,62,104,0
0,55,104,4
0,50,103,4
0,67,99,3
0,67,122,0
0,70,49,3
0,62,122,0
0,55,122,4
0,50,121,4
0,62,121,0
0,67,111,0
0,70,32,0
0,62,117,1
0,67,114,3
0,55,117,0
0,50,117,4
0,43,117,5
0,55,119,5
0,62,107,2
0,70,55,94
0,70,30,104
0,67,124,7
0,62,111,4
0,62,123,0
0,70,48,2
0,55,123,0
0,50,122,2
0,43,122,4
0,55,121,8
0,70,32,105
0,62,113,0
0,70,55,1
0,55,115,3
0,67,103,1
0,50,113,3
0,62,105,11
0,62,103,0
0,70,28,1
0,55,106,4
0,67,99,0
0,50,104,4
0,62,122,5
0,70,49,3
0,55,122,0
0,52,123,4
0,47,122,4
0,59,110,0
0,64,120,2
0,40,122,2
0,52,116,12
0,70,28,104
0,70,50,104
0,70,28,103
0,70,51,1
0,67,123,0
0,71,71,1
0,76,71,0
0,62,123,0
0,74,103,4
0,55,122,0
0,52,122,0
0,64,112,4
0,47,121,0
0,52,119,2
0,40,123,2
0,59,118,0
0,70,32,16
0,70,54,2
0,67,113,0
0,62,113,0
0,55,113,0
0,52,105,0
0,52,113,0
0,47,112,5
0,59,112,4
0,40,113,0
0,64,104,0
0,70,30,5
0,67,104,0
0,64,100,2
0,62,104,0
0,55,104,0
0,52,104,2
0,47,104,4
0,59,92,5
0,69,94,2
0,62,101,0
0,70,49,1
0,55,101,0
0,55,102,1
0,50,101,0
0,43,103,0
0,62,95,3
0,70,32,4
0,67,121,0
0,62,111,3
0,62,121,0
0,55,121,4
0,50,121,5
0,43,121,4
0,55,110,3
0,70,53,14
0,70,28,54
0,70,50,3
0,67,123,0
0,62,123,0
0,62,117,4
0,55,123,0
0,50,122,3
0,43,123,5
0,55,120,6
0,70,27,101
0,62,113,1
0,70,55,1
0,55,113,1
0,55,112,4
0,50,113,1
0,43,113,4
0,62,115,10
0,55,100,4
0,62,104,0
0,70,27,3
0,55,104,0
0,67,97,2
0,50,104,2
0,43,104,2
0,62,99,9
0,67,124,2
0,70,46,0
0,67,122,0
0,62,122,0
0,60,113,3
0,55,123,2
0,52,123,1
0,64,118,3
0,48,123,1
0,70,31,62
0,70,52,8
0,69,91,1
0,70,29,5
0,71,94,4
0,70,50,3
0,62,123,0
0,55,122,1
0,52,123,4
0,67,117,1
0,48,123,4
0,64,112,11
0,60,114,3
0,70,30,60
0,67,88,1
0,67,113,0
0,70,51,0
0,64,109,1
0,62,113,0
0,67,101,2
0,60,112,2
0,55,113,0
0,52,113,5
0,48,113,4
0,67,97,3
0,67,104,0
0,70,32,1
0,64,100,3
0,62,106,0
0,55,103,0
0,52,104,4
0,48,104,5
0,67,98,4
0,60,100,1
0,67,118,1
0,55,121,3
0,70,51,1
0,62,122,0
0,55,122,0
0,50,122,0
0,43,122,5
0,62,121,2
0,70,31,3
0,67,104,0
0,62,104,4
0,55,104,3
0,67,103,3
0,50,104,1
0,62,105,0
0,70,52,1
0,62,113,1
0,55,113,0
0,62,105,2
0,67,112,0
0,50,113,2
0,43,113,4
0,55,101,3
0,70,31,53
0,67,122,0
0,70,46,5
0,62,123,0
0,62,115,2
0,55,123,2
0,67,120,3
0,50,123,1
0,43,123,5
0,55,113,11
0,70,29,56
0,67,113,0
0,70,55,1
0,62,113,0
0,67,113,1
0,55,113,0
0,50,113,1
0,43,113,5
0,55,103,1
0,62,106,0
0,70,33,4
0,67,104,0
0,62,104,0
0,55,96,1
0,55,104,0
0,50,104,5
0,62,103,0
0,43,104,4
0,67,94,1
0,70,50,3
0,55,122,0
0,52,122,0
0,47,122,0
0,52,122,3
0,40,122,1
0,64,119,4
0,59,113,3
0,70,27,17
0,70,54,2
0,62,113,0
0,55,113,0
0,52,112,0
0,47,112,4
0,64,109,0
0,52,109,2
0,40,112,3
0,59,113,5
0,70,29,1
0,55,103,0
0,52,103,1
0,47,103,2
0,64,102,2
0,40,102,3
0,59,94,8
0,52,95,1
0,64,116,5
0,70,50,3
0,62,122,0
0,55,122,0
0,74,103,5
0,52,122,0
0,47,121,1
0,40,122,4
0,52,124,2
0,59,114,4
0,70,28,60
0,70,54,2
0,62,113,0
0,55,112,0
0,59,105,0
0,64,110,1
0,52,112,0
0,52,101,1
0,47,112,3
0,40,111,4
0,64,101,4
0,67,104,0
0,70,28,4
0,62,104,1
0,55,104,4
0,52,106,4
0,67,94,8
0,70,52,4
0,67,115,0
0,69,94,1
0,55,122,0
0,50,121,0
0,62,123,0
0,43,122,0
0,55,112,3
0,67,96,2
0,62,105,2
0,70,31,0
0,62,104,0
0,55,104,5
0,50,106,4
0,67,113,5
0,62,116,1
0,70,51,3
0,55,113,0
0,50,115,4
0,43,115,4
0,55,107,4
0,70,29,104
0,70,49,5
0,62,122,0
0,55,122,3
0,50,123,4
0,62,118,0
0,43,123,5
0,67,114,6
0,55,114,4
0,70,30,105
0,70,55,0
0,62,113,0
0,55,113,0
0,62,109,0
0,67,115,0
0,55,115,1
0,50,113,3
0,43,115,5
0,70,31,0
0,62,106,0
0,67,99,1
0,55,104,0
0,64,91,2
0,62,102,2
0,50,104,1
0,43,104,4
0,55,103,8
0,60,125,2
0,60,123,0
0,64,117,1
0,70,48,3
0,55,123,1
0,67,97,1
0,52,123,3
0,48,123,4
0,67,113,2
0,70,30,105
0,70,49,94
0,69,88,9
0,70,30,3
0,71,97,6
0,70,49,3
0,62,123,0
0,55,123,0
0,52,122,4
0,67,116,0
0,48,122,3
0,64,112,2
0,60,115,10
0,70,33,104
0,72,91,1
0,62,113,0
0,70,51,1
0,55,112,0
0,67,107,3
0,52,113,0
0,60,103,3
0,48,112,1
0,64,114,1
0,69,91,2
0,70,30,1
0,67,106,0
0,62,104,1
0,55,104,4
0,52,104,5
0,67,104,6
0,64,93,2
0,70,46,3
0,67,107,0
0,62,105,3
0,55,105,0
0,50,105,5
0,62,103,0
0,43,105,1
0,55,98,3
0,67,116,2
0,70,31,2
0,62,119,0
0,55,121,0
0,50,121,4
0,55,122,1
0,43,121,4
0,62,111,5
0,70,49,108
0,70,32,23
0,70,51,0
0,67,122,0
0,62,122,0
0,55,123,2
0,50,122,4
0,67,117,0
0,43,122,4
0,62,115,5
0,55,120,4
0,70,31,104
0,70,55,3
0,55,115,0
0,67,112,3
0,50,113,1
0,62,108,0
0,43,115,4
0,55,116,12
0,67,103,6
0,55,104,0
0,70,30,1
0,50,104,4
0,62,102,2
0,43,106,0
0,55,97,4
0,70,52,1
0,52,122,1
0,55,123,0
0,64,119,1
0,52,122,1
0,71,97,2
0,47,122,2
0,40,122,5
0,59,123,6
0,70,33,0
0,69,88,8
0,70,51,6
0,71,88,3
0,59,104,2
0,70,30,1
0,55,104,0
0,52,104,0
0,69,88,1
0,64,100,2
0,47,103,2
0,40,103,4
0,52,103,4
0,70,49,4
0,59,122,0
0,64,119,0
0,71,94,1
0,55,123,0
0,52,122,4
0,52,114,0
0,47,122,5
0,40,123,4
0,59,120,5
0,70,31,6
0,69,88,3
0,70,54,2
0,71,88,6
0,69,88,3
0,70,32,0
0,59,104,0
0,55,104,0
0,52,104,0
0,47,103,1
0,40,103,4
0,59,103,2
0,64,99,4
0,52,98,5
0,70,47,0
0,71,97,2
0,55,121,1
0,64,117,3
0,55,112,2
0,52,121,0
0,43,123,0
0,64,104,7
0,62,104,5
0,70,30,1
0,69,88,1
0,52,104,2
0,67,106,2
0,62,113,0
0,70,54,2
0,64,113,1
0,55,113,1
0,60,105,2
0,52,113,3
0,48,115,4
0,70,30,21
0,67,91,8
0,62,123,0
0,70,47,1
0,64,115,2
0,60,115,1
0,55,123,0
0,52,122,5
0,67,124,3
0,48,123,1
0,70,32,99
0,72,97,9
0,67,108,0
0,70,49,3
0,62,115,0
0,64,106,2
0,55,113,0
0,52,113,5
0,48,115,4
0,60,113,8
0,70,29,0
0,62,104,0
0,60,97,3
0,55,104,0
0,52,104,1
0,67,101,1
0,74,97,4
0,48,104,0
0,64,99,2
0,70,49,0
0,67,123,0
0,62,123,0
0,62,114,1
0,57,123,4
0,50,123,4
0,69,118,10
0,70,30,99
0,70,52,109
0,70,30,106
0,67,123,0
0,70,48,1
0,74,87,0
0,81,87,0
0,69,112,1
0,62,123,0
0,57,123,4
0,50,123,5
0,62,114,9
0,70,29,16
0,70,52,0
0,67,113,0
0,62,113,0
0,69,104,4
0,57,113,0
0,62,104,1
0,50,115,4
0,70,28,3
0,62,104,1
0,69,97,1
0,57,104,3
0,50,104,5
0,62,106,9
0,62,122,0
0,70,48,4
0,57,121,1
0,50,123,3
0,62,116,4
0,69,116,1
0,70,30,0
0,62,104,0
0,57,102,3
0,69,103,1
0,50,104,4
0,62,97,3
0,67,113,0
0,70,52,4
0,62,113,0
0,69,115,2
0,57,113,2
0,62,106,2
0,50,115,3
0,70,27,48
0,70,49,2
0,67,123,0
0,69,115,1
0,62,122,0
0,57,123,4
0,50,123,4
0,62,122,8
0,70,27,88
0,70,49,3
0,67,113,0
0,62,113,0
0,62,110,2
0,57,112,2
