track,note,velocity,time
1,66,125,0
1,66,0,96
1,73,125,0
1,73,0,96
1,76,125,0
1,76,0,96
1,66,125,0
1,66,0,96
1,73,125,0
1,73,0,96
1,76,125,0
1,76,0,96
1,73,125,0
1,73,0,96
1,66,125,0
1,66,0,96
1,69,125,0
1,69,0,96
1,73,125,0
1,73,0,96
1,76,125,0
1,76,0,96
1,71,125,0
1,71,0,96
1,75,125,0
1,75,0,96
1,76,125,0
1,76,0,96
1,75,125,0
1,75,0,96
1,71,125,0
1,71,0,96
1,66,125,0
1,66,0,96
1,73,125,0
1,73,0,96
1,76,125,0
1,76,0,96
1,66,125,0
1,66,0,96
1,73,125,0
1,73,0,96
1,76,125,0
1,76,0,96
1,73,125,0
1,73,0,96
1,66,125,0
1,66,0,96
1,69,125,0
1,69,0,96
1,73,125,0
1,73,0,96
1,76,125,0
1,76,0,96
1,71,125,0
1,71,0,96
1,75,125,0
1,75,0,96
1,76,125,0
1,76,0,96
1,75,125,0
1,75,0,96
1,71,125,0
1,71,0,96
1,66,125,0
1,66,0,96
1,73,125,0
1,73,0,96
1,76,125,0
1,76,0,96
1,66,125,0
1,66,0,96
1,73,125,0
1,73,0,96
1,76,125,0
1,76,0,96
1,73,125,0
1,73,0,96
1,66,125,0
1,66,0,96
1,69,125,0
1,69,0,96
1,73,125,0
1,73,0,96
1,76,125,0
1,76,0,96
1,71,125,0
1,71,0,96
1,75,125,0
1,75,0,96
1,76,125,0
1,76,0,96
1,75,125,0
1,75,0,96
1,71,125,0
1,71,0,96
1,66,125,0
1,66,0,96
1,73,125,0
1,73,0,96
1,76,125,0
1,76,0,96
1,66,125,0
1,66,0,96
1,73,125,0
1,73,0,96
1,76,125,0
1,76,0,96
1,73,125,0
1,73,0,96
1,66,125,0
1,66,0,96
1,69,125,0
1,69,0,96
1,73,125,0
1,73,0,96
1,76,125,0
1,76,0,96
1,71,125,0
1,71,0,96
1,75,125,0
1,75,0,96
1,76,125,0
1,76,0,96
1,75,125,0
1,75,0,96
1,71,125,0
1,71,0,96
1,66,125,6144
1,66,0,96
1,73,125,0
1,73,0,96
1,76,125,0
1,76,0,96
1,66,125,0
1,66,0,96
1,73,125,0
1,73,0,96
1,76,125,0
1,76,0,96
1,73,125,0
1,73,0,96
1,66,125,0
1,66,0,96
1,69,125,0
1,69,0,96
1,73,125,0
1,73,0,96
1,76,125,0
1,76,0,96
1,71,125,0
1,71,0,96
1,75,125,0
1,75,0,96
1,76,125,0
1,76,0,96
1,75,125,0
1,75,0,96
1,71,125,0
1,71,0,96
1,66,125,0
1,66,0,96
1,73,125,0
1,73,0,96
1,76,125,0
1,76,0,96
1,66,125,0
1,66,0,96
1,73,125,0
1,73,0,96
1,76,125,0
1,76,0,96
1,73,125,0
1,73,0,96
1,66,125,0
1,66,0,96
1,69,125,0
1,69,0,96
1,73,125,0
1,73,0,96
1,76,125,0
1,76,0,96
1,71,125,0
1,71,0,96
1,75,125,0
1,75,0,96
1,76,125,0
1,76,0,96
1,75,125,0
1,75,0,96
1,71,125,0
1,71,0,96
1,66,125,0
1,66,0,96
1,73,125,0
1,73,0,96
1,76,125,0
1,76,0,96
1,66,125,0
1,66,0,96
1,73,125,0
1,73,0,96
1,76,125,0
1,76,0,96
1,73,125,0
1,73,0,96
1,66,125,0
1,66,0,96
1,69,125,0
1,69,0,96
1,73,125,0
1,73,0,96
1,76,125,0
1,76,0,96
1,71,125,0
1,71,0,96
1,75,125,0
1,75,0,96
1,76,125,0
1,76,0,96
1,75,125,0
1,75,0,96
1,71,125,0
1,71,0,96
1,66,125,0
1,66,0,96
1,73,125,0
1,73,0,96
1,76,125,0
1,76,0,96
1,66,125,0
1,66,0,96
1,73,125,0
1,73,0,96
1,76,125,0
1,76,0,96
1,73,125,0
1,73,0,96
1,66,125,0
1,66,0,96
1,69,125,0
1,69,0,96
1,73,125,0
1,73,0,96
1,76,125,0
1,76,0,96
1,71,125,0
1,71,0,96
1,75,125,0
1,75,0,96
1,76,125,0
1,76,0,96
1,75,125,0
1,75,0,96
1,71,125,0
1,71,0,96
1,66,125,0
1,66,0,96
1,73,125,0
1,73,0,96
1,76,125,0
1,76,0,96
1,66,125,0
1,66,0,96
1,73,125,0
1,73,0,96
1,76,125,0
1,76,0,96
1,73,125,0
1,73,0,96
1,66,125,0
1,66,0,96
1,69,125,0
1,69,0,96
1,73,125,0
1,73,0,96
1,76,125,0
1,76,0,96
1,71,125,0
1,71,0,96
1,75,125,0
1,75,0,96
1,76,125,0
1,76,0,96
1,75,125,0
1,75,0,96
1,71,125,0
1,71,0,96
1,66,125,0
1,66,0,96
1,73,125,0
1,73,0,96
1,76,125,0
1,76,0,96
1,66,125,0
1,66,0,96
1,73,125,0
1,73,0,96
1,76,125,0
1,76,0,96
1,73,125,0
1,73,0,96
1,66,125,0
1,66,0,96
1,69,125,0
1,69,0,96
1,73,125,0
1,73,0,96
1,76,125,0
1,76,0,96
1,71,125,0
1,71,0,96
1,75,125,0
1,75,0,96
1,76,125,0
1,76,0,96
1,75,125,0
1,75,0,96
1,71,125,0
1,71,0,96
1,66,125,3072
1,66,0,96
1,66,125,0
1,66,0,96
1,68,125,0
1,68,0,96
1,69,125,0
1,69,0,192
1,69,125,0
1,69,0,96
1,73,125,0
1,73,0,96
1,76,125,0
1,76,0,192
1,76,125,0
1,76,0,96
1,73,125,0
1,73,0,96
1,71,125,0
1,71,0,288
1,71,125,0
1,71,0,96
1,64,125,0
1,64,0,96
1,66,125,0
1,66,0,96
1,66,125,0
1,66,0,96
1,68,125,0
1,68,0,96
1,69,125,0
1,69,0,192
1,69,125,0
1,69,0,96
1,73,125,0
1,73,0,96
1,76,125,0
1,76,0,192
1,76,125,0
1,76,0,96
1,69,125,0
1,69,0,96
1,71,125,0
1,71,0,336
1,64,125,0
1,64,0,144
1,66,125,0
1,66,0,96
1,66,125,0
1,66,0,96
1,68,125,0
1,68,0,96
1,69,125,0
1,69,0,192
1,69,125,0
1,69,0,96
1,73,125,0
1,73,0,96
1,76,125,0
1,76,0,192
1,76,125,0
1,76,0,96
1,73,125,0
1,73,0,96
1,71,125,0
1,71,0,288
1,71,125,0
1,71,0,96
1,64,125,0
1,64,0,96
1,66,125,0
1,66,0,96
1,66,125,0
1,66,0,96
1,68,125,0
1,68,0,96
1,69,125,0
1,69,0,384
1,64,125,0
1,64,0,604
1,66,125,3332
1,66,0,96
1,73,125,0
1,73,0,96
1,76,125,0
1,76,0,96
1,66,125,0
1,66,0,96
1,73,125,0
1,73,0,96
1,76,125,0
1,76,0,96
1,73,125,0
1,73,0,96
1,66,125,0
1,66,0,96
1,69,125,0
1,69,0,96
1,73,125,0
1,73,0,96
1,76,125,0
1,76,0,96
1,71,125,0
1,71,0,96
1,75,125,0
1,75,0,96
1,76,125,0
1,76,0,96
1,75,125,0
1,75,0,96
1,71,125,0
1,71,0,96
1,66,125,0
1,66,0,96
1,73,125,0
1,73,0,96
1,76,125,0
1,76,0,96
1,66,125,0
1,66,0,96
1,73,125,0
1,73,0,96
1,76,125,0
1,76,0,96
1,73,125,0
1,73,0,96
1,66,125,0
1,66,0,96
1,69,125,0
1,69,0,96
1,73,125,0
1,73,0,96
1,76,125,0
1,76,0,96
1,71,125,0
1,71,0,96
1,75,125,0
1,75,0,96
1,76,125,0
1,76,0,96
1,75,125,0
1,75,0,96
1,71,125,0
1,71,0,96
1,66,125,0
1,66,0,96
1,73,125,0
1,73,0,96
1,76,125,0
1,76,0,96
1,66,125,0
1,66,0,96
1,73,125,0
1,73,0,96
1,76,125,0
1,76,0,96
1,73,125,0
1,73,0,96
1,66,125,0
1,66,0,96
1,69,125,0
1,69,0,96
1,73,125,0
1,73,0,96
1,76,125,0
1,76,0,96
1,71,125,0
1,71,0,96
1,75,125,0
1,75,0,96
1,76,125,0
1,76,0,96
1,75,125,0
1,75,0,96
1,71,125,0
1,71,0,96
1,66,125,0
1,66,0,96
1,73,125,0
1,73,0,96
1,76,125,0
1,76,0,96
1,66,125,0
1,66,0,96
1,73,125,0
1,73,0,96
1,76,125,0
1,76,0,96
1,73,125,0
1,73,0,96
1,66,125,0
1,66,0,96
1,69,125,0
1,69,0,96
1,73,125,0
1,73,0,96
1,76,125,0
1,76,0,96
1,71,125,0
1,71,0,96
1,75,125,0
1,75,0,96
1,76,125,0
1,76,0,96
1,75,125,0
1,75,0,96
1,71,125,0
1,71,0,96
1,66,125,0
1,66,0,96
1,73,125,0
1,73,0,96
1,76,125,0
1,76,0,96
1,66,125,0
1,66,0,96
1,73,125,0
1,73,0,96
1,76,125,0
1,76,0,96
1,73,125,0
1,73,0,96
1,66,125,0
1,66,0,96
1,69,125,0
1,69,0,96
1,73,125,0
1,73,0,96
1,76,125,0
1,76,0,96
1,71,125,0
1,71,0,96
1,75,125,0
1,75,0,96
1,76,125,0
1,76,0,96
1,75,125,0
1,75,0,96
1,71,125,0
1,71,0,96
1,66,125,0
1,66,0,96
1,73,125,0
1,73,0,96
1,76,125,0
1,76,0,96
1,66,125,0
1,66,0,96
1,73,125,0
1,73,0,96
1,76,125,0
1,76,0,96
1,73,125,0
1,73,0,96
1,66,125,0
1,66,0,96
1,69,125,0
1,69,0,96
1,73,125,0
1,73,0,96
1,76,125,0
1,76,0,96
1,71,125,0
1,71,0,96
1,75,125,0
1,75,0,96
1,76,125,0
1,76,0,96
1,75,125,0
1,75,0,96
1,71,125,0
1,71,0,96
1,66,125,3072
1,66,0,96
1,66,125,0
1,66,0,96
1,68,125,0
1,68,0,96
1,69,125,0
1,69,0,192
1,69,125,0
1,69,0,96
1,73,125,0
1,73,0,96
1,76,125,0
1,76,0,192
1,76,125,0
1,76,0,96
1,73,125,0
1,73,0,96
1,71,125,0
1,71,0,288
1,71,125,0
1,71,0,96
1,64,125,0
1,64,0,96
1,66,125,0
1,66,0,96
1,66,125,0
1,66,0,96
1,68,125,0
1,68,0,96
1,69,125,0
1,69,0,192
1,69,125,0
1,69,0,96
1,73,125,0
1,73,0,96
1,76,125,0
1,76,0,192
1,76,125,0
1,76,0,96
1,69,125,0
1,69,0,96
1,71,125,0
1,71,0,336
1,64,125,0
1,64,0,144
1,66,125,0
1,66,0,96
1,66,125,0
1,66,0,96
1,68,125,0
1,68,0,96
1,69,125,0
1,69,0,192
1,69,125,0
1,69,0,96
1,73,125,0
1,73,0,96
1,76,125,0
1,76,0,192
1,76,125,0
1,76,0,96
1,73,125,0
1,73,0,96
1,71,125,0
1,71,0,288
1,71,125,0
1,71,0,96
1,64,125,0
1,64,0,96
1,66,125,0
1,66,0,96
1,66,125,0
1,66,0,96
1,68,125,0
1,68,0,96
1,69,125,0
1,69,0,384
1,64,125,0
1,64,0,604
1,66,125,15620
1,66,0,96
1,66,125,0
1,66,0,96
1,68,125,0
1,68,0,96
1,69,125,0
1,69,0,192
1,69,125,0
1,69,0,96
1,73,125,0
1,73,0,96
1,76,125,0
1,76,0,192
1,76,125,0
1,76,0,96
1,73,125,0
1,73,0,96
1,71,125,0
1,71,0,288
1,71,125,0
1,71,0,96
1,64,125,0
1,64,0,96
1,66,125,0
1,66,0,96
1,66,125,0
1,66,0,96
1,68,125,0
1,68,0,96
1,69,125,0
1,69,0,192
1,69,125,0
1,69,0,96
1,73,125,0
1,73,0,96
1,76,125,0
1,76,0,192
1,76,125,0
1,76,0,96
1,69,125,0
1,69,0,96
1,71,125,0
1,71,0,336
1,64,125,0
1,64,0,144
1,66,125,0
1,66,0,96
1,66,125,0
1,66,0,96
1,68,125,0
1,68,0,96
1,69,125,0
1,69,0,192
1,69,125,0
1,69,0,96
1,73,125,0
1,73,0,96
1,76,125,0
1,76,0,192
1,76,125,0
1,76,0,96
1,73,125,0
1,73,0,96
1,71,125,0
1,71,0,288
1,71,125,0
1,71,0,96
1,64,125,0
1,64,0,96
1,66,125,0
1,66,0,96
1,66,125,0
1,66,0,96
1,68,125,0
1,68,0,96
1,69,125,0
1,69,0,192
1,69,125,0
1,69,0,96
1,73,125,0
1,73,0,96
1,76,125,0
1,76,0,192
1,76,125,0
1,76,0,96
1,69,125,0
1,69,0,96
1,71,125,0
1,71,0,336
1,64,125,0
1,64,0,144
1,66,125,0
1,66,0,96
1,66,125,0
1,66,0,96
1,68,125,0
1,68,0,96
1,69,125,0
1,69,0,192
1,69,125,0
1,69,0,96
1,73,125,0
1,73,0,96
1,76,125,0
1,76,0,192
1,76,125,0
1,76,0,96
1,73,125,0
1,73,0,96
1,71,125,0
1,71,0,192
1,66,125,288
1,66,0,96
1,66,125,0
1,66,0,96
1,68,125,0
1,68,0,96
1,69,125,0
1,69,0,192
1,69,125,0
1,69,0,96
1,73,125,0
1,73,0,96
1,76,125,0
1,76,0,192
1,76,125,0
1,76,0,96
1,73,125,0
1,73,0,96
1,71,125,0
1,71,0,288
1,71,125,0
1,71,0,96
1,64,125,0
1,64,0,96
1,66,125,0
1,66,0,96
1,66,125,0
1,66,0,96
1,68,125,0
1,68,0,96
1,69,125,0
1,69,0,192
1,69,125,0
1,69,0,96
1,73,125,0
1,73,0,96
1,76,125,0
1,76,0,192
1,76,125,0
1,76,0,96
1,69,125,0
1,69,0,96
1,71,125,0
1,71,0,336
1,64,125,0
1,64,0,144
2,42,125,3072
2,42,0,361
2,42,125,215
2,42,0,96
2,44,125,0
2,44,0,96
2,45,125,0
2,45,0,288
2,47,125,0
2,47,0,271
2,45,125,17
2,45,0,96
2,44,125,0
2,44,0,96
2,42,125,0
2,42,0,361
2,42,125,215
2,42,0,96
2,44,125,0
2,44,0,96
2,45,125,0
2,45,0,288
2,40,125,0
2,40,0,288
2,45,125,0
2,45,0,96
2,40,125,0
2,40,0,96
2,42,125,0
2,42,0,48
2,42,125,0
2,42,0,48
2,42,125,0
2,42,0,48
2,42,125,0
2,42,0,48
2,42,125,0
2,42,0,48
2,42,125,0
2,42,0,48
2,42,125,0
2,42,0,48
2,42,125,0
2,42,0,48
2,42,125,0
2,42,0,48
2,42,125,0
2,42,0,48
2,42,125,0
2,42,0,48
2,42,125,0
2,42,0,48
2,42,125,0
2,42,0,48
2,42,125,0
2,42,0,48
2,44,125,0
2,44,0,48
2,44,125,0
2,44,0,48
2,45,125,0
2,45,0,48
2,45,125,0
2,45,0,48
2,45,125,0
2,45,0,48
2,45,125,0
2,45,0,48
2,45,125,0
2,45,0,48
2,45,125,0
2,45,0,48
2,47,125,0
2,47,0,48
2,47,125,0
2,47,0,48
2,47,125,0
2,47,0,48
2,47,125,0
2,47,0,48
2,47,125,0
2,47,0,48
2,47,125,0
2,47,0,48
2,45,125,0
2,45,0,48
2,45,125,0
2,45,0,48
2,44,125,0
2,44,0,48
2,44,125,0
2,44,0,48
2,42,125,0
2,42,0,48
2,42,125,0
2,42,0,48
2,42,125,0
2,42,0,48
2,42,125,0
2,42,0,48
2,42,125,0
2,42,0,48
2,42,125,0
2,42,0,48
2,42,125,0
2,42,0,48
2,42,125,0
2,42,0,48
2,42,125,0
2,42,0,48
2,42,125,0
2,42,0,48
2,42,125,0
2,42,0,48
2,42,125,0
2,42,0,48
2,42,125,0
2,42,0,48
2,42,125,0
2,42,0,48
2,42,125,0
2,42,0,48
2,44,125,0
2,44,0,48
2,44,125,0
2,44,0,48
2,45,125,0
2,45,0,48
2,45,125,0
2,45,0,48
2,45,125,0
2,45,0,48
2,45,125,0
2,45,0,48
2,45,125,0
2,45,0,48
2,45,125,0
2,45,0,48
2,40,125,0
2,40,0,48
2,40,125,0
2,40,0,48
2,40,125,0
2,40,0,48
2,40,125,0
2,40,0,48
2,40,125,0
2,40,0,48
2,40,125,0
2,40,0,48
2,45,125,0
2,45,0,48
2,45,125,0
2,45,0,48
2,40,125,0
2,40,0,48
2,42,125,0
2,42,0,48
2,42,125,0
2,42,0,48
2,42,125,0
2,42,0,48
2,42,125,0
2,42,0,48
2,42,125,0
2,42,0,48
2,42,125,0
2,42,0,48
2,42,125,0
2,42,0,48
