track,note,velocity,time
1,37,110,480
1,37,0,29
1,37,110,91
1,37,0,59
1,37,110,61
1,37,0,29
1,37,110,91
1,37,0,29
1,37,110,91
1,37,0,29
1,36,95,451
1,36,0,50
1,36,95,70
1,36,0,47
1,36,95,73
1,36,0,46
1,36,95,74
1,36,0,45
1,36,95,75
1,36,0,49
1,36,95,71
1,36,0,43
1,36,95,77
1,36,0,43
1,36,95,77
1,36,0,40
1,36,95,80
1,36,0,46
1,36,95,74
1,36,0,46
1,36,95,74
1,36,0,46
1,36,95,74
1,36,0,42
1,36,95,78
1,36,0,50
1,38,110,10
1,38,0,45
1,36,95,15
1,47,95,0
1,47,0,18
1,36,0,27
1,43,95,15
1,43,0,24
1,36,95,36
1,38,110,0
1,38,0,44
1,36,0,1
1,36,95,75
1,38,110,0
1,38,0,36
1,36,0,4
1,36,95,80
1,49,100,0
1,53,70,30
1,49,0,7
1,53,0,28
1,38,110,55
1,53,70,0
1,53,0,43
1,36,0,14
1,36,95,63
1,53,70,0
1,38,0,43
1,53,0,2
1,38,110,75
1,53,70,0
1,36,0,4
1,53,0,44
1,36,95,72
1,53,70,0
1,53,0,41
1,38,0,38
1,38,110,41
1,53,70,0
1,36,0,16
1,53,0,24
1,36,95,80
1,53,70,0
1,53,0,41
1,38,0,12
1,38,110,67
1,53,70,0
1,36,0,5
1,53,0,37
1,36,95,78
1,53,70,0
1,53,0,45
1,38,0,17
1,38,110,58
1,53,70,0
1,36,0,36
1,53,0,7
1,36,95,77
1,53,70,0
1,38,0,24
1,53,0,18
1,38,110,78
1,53,70,0
1,36,0,30
1,53,0,7
1,36,95,83
1,53,70,0
1,53,0,40
1,38,0,35
1,38,110,45
1,53,70,0
1,36,0,33
1,53,0,9
1,36,95,78
1,53,70,0
1,49,100,0
1,49,0,39
1,53,0,2
1,38,0,0
1,38,110,79
1,53,70,0
1,36,0,10
1,38,0,21
1,53,0,11
1,36,95,18
1,38,110,0
1,36,95,60
1,53,70,0
1,53,0,38
1,38,0,57
1,38,110,25
1,53,70,0
1,36,0,26
1,36,0,14
1,53,0,1
1,36,95,79
1,53,70,0
1,38,0,22
1,53,0,19
1,38,110,79
1,53,70,0
1,53,0,37
1,36,0,3
1,36,95,80
1,53,70,0
1,38,0,18
1,53,0,24
1,38,110,78
1,53,70,0
1,36,0,23
1,53,0,17
1,36,95,80
1,53,70,0
1,38,0,3
1,53,0,37
1,36,0,80
1,38,110,0
1,53,70,0
1,53,0,39
1,36,95,81
1,53,70,0
1,38,0,29
1,53,0,8
1,38,110,83
1,53,70,0
1,36,0,8
1,53,0,31
1,36,95,81
1,53,70,0
1,38,0,33
1,53,0,10
1,38,110,77
1,53,70,0
1,36,0,22
1,53,0,20
1,36,95,78
1,53,70,0
1,49,100,0
1,49,0,30
1,38,0,2
1,53,0,2
1,38,110,26
1,47,95,60
1,36,0,11
1,38,0,49
1,43,95,0
1,47,0,60
1,36,95,0
1,38,110,0
1,43,0,60
1,36,0,53
1,38,0,7
1,38,110,0
1,38,0,120
1,36,95,0
1,44,80,0
1,49,100,0
1,44,0,41
1,49,0,79
1,38,110,0
1,44,80,0
1,36,0,16
1,44,0,24
1,36,95,80
1,44,80,0
1,44,0,41
1,38,0,12
1,38,110,67
1,44,80,0
1,36,0,5
1,44,0,37
1,36,95,78
1,44,80,0
1,44,0,41
1,38,0,21
1,38,110,58
1,44,80,0
1,36,0,16
1,44,0,24
1,36,95,80
1,44,80,0
1,44,0,41
1,38,0,12
1,38,110,67
1,44,80,0
1,36,0,5
1,44,0,37
1,36,95,78
1,44,80,0
1,44,0,41
1,38,0,21
1,38,110,58
1,44,80,0
1,36,0,16
1,44,0,24
1,36,95,80
1,44,80,0
1,44,0,41
1,38,0,12
1,38,110,67
1,44,80,0
1,36,0,5
1,44,0,37
1,36,95,78
1,44,80,0
1,44,0,41
1,38,0,21
1,38,110,58
1,44,80,0
1,36,0,16
1,44,0,24
1,36,95,80
1,44,80,0
1,44,0,41
1,38,0,12
1,38,110,67
1,44,80,0
1,36,0,5
1,44,0,37
1,36,95,78
1,44,80,0
1,44,0,41
1,38,0,21
1,38,110,58
1,44,80,0
1,36,0,16
1,44,0,24
1,36,95,80
1,44,80,0
1,44,0,41
1,38,0,12
1,38,110,67
1,44,80,0
1,36,0,5
1,44,0,37
1,36,95,78
1,44,80,0
1,44,0,41
1,38,0,21
1,38,110,58
1,44,80,0
1,36,0,16
1,44,0,24
1,36,95,80
1,44,80,0
1,44,0,41
1,38,0,12
1,38,110,67
1,44,80,0
1,36,0,5
1,44,0,37
1,36,95,78
1,44,80,0
1,44,0,41
1,38,0,21
1,38,110,58
1,44,80,0
1,36,0,16
1,44,0,24
1,36,95,80
1,44,80,0
1,44,0,41
1,38,0,12
1,38,110,67
1,44,80,0
1,36,0,5
1,44,0,37
1,36,95,78
1,44,80,0
1,44,0,41
1,38,0,21
1,38,110,58
1,44,80,0
1,36,0,16
1,44,0,24
1,36,95,80
1,44,80,0
1,44,0,41
1,38,0,12
1,38,110,67
1,44,80,0
1,36,0,5
1,44,0,37
1,36,95,78
1,44,80,0
1,44,0,41
1,38,0,21
1,38,110,58
1,44,80,0
1,36,0,16
1,44,0,24
1,36,95,80
1,44,80,0
1,44,0,41
1,38,0,12
1,38,110,67
1,44,80,0
1,36,0,5
1,44,0,37
1,36,95,78
1,44,80,0
1,44,0,41
1,38,0,21
1,38,110,58
1,44,80,0
1,36,0,16
1,44,0,24
1,36,95,80
1,44,80,0
1,44,0,41
1,38,0,12
1,38,110,7
1,38,0,17
1,38,110,43
1,44,80,0
1,36,0,5
1,38,0,13
1,38,110,12
1,44,0,12
1,38,0,8
1,38,110,10
1,38,0,22
1,36,95,38
1,43,95,0
1,43,0,120
1,36,0,0
1,38,110,900
1,38,0,45
1,36,95,15
1,47,95,0
1,47,0,18
1,36,0,27
1,43,95,15
1,43,0,24
1,36,95,36
1,38,110,0
1,38,0,44
1,36,0,1
1,36,95,75
1,38,110,0
1,38,0,36
1,36,0,4
1,36,95,80
1,49,100,0
1,53,70,30
1,49,0,7
1,53,0,28
1,38,110,55
1,53,70,0
1,53,0,43
1,36,0,14
1,36,95,63
1,53,70,0
1,38,0,43
1,53,0,2
1,38,110,75
1,53,70,0
1,36,0,4
1,53,0,44
1,36,95,72
1,53,70,0
1,53,0,41
1,38,0,38
1,38,110,41
1,53,70,0
1,36,0,16
1,53,0,24
1,36,95,80
1,53,70,0
1,53,0,41
1,38,0,12
1,38,110,67
1,53,70,0
1,36,0,5
1,53,0,37
1,36,95,78
1,53,70,0
1,53,0,45
1,38,0,17
1,38,110,58
1,53,70,0
1,36,0,36
1,53,0,7
1,36,95,77
1,53,70,0
1,38,0,24
1,53,0,18
1,38,110,78
1,53,70,0
1,36,0,30
1,53,0,7
1,36,95,83
1,38,110,0
1,92,100,0
1,38,0,13
1,92,0,26
1,38,110,21
1,38,0,11
1,38,0,4
1,38,110,15
1,38,0,18
1,38,110,12
1,38,0,21
1,36,0,12
1,38,110,27
1,38,0,10
1,38,110,20
1,38,0,17
1,36,95,13
1,38,110,0
1,38,0,20
1,38,110,40
1,38,0,15
1,38,110,45
1,47,95,0
1,36,0,10
1,38,0,5
1,36,95,45
1,38,110,0
1,43,95,0
1,38,0,12
1,47,0,48
1,36,95,0
1,44,80,0
1,49,100,0
1,44,0,41
1,43,0,19
1,49,0,60
1,38,110,0
1,44,80,0
1,36,0,16
1,36,0,10
1,44,0,14
1,36,95,80
1,44,80,0
1,44,0,41
1,38,0,12
1,38,110,67
1,44,80,0
1,36,0,5
1,44,0,37
1,36,95,78
1,44,80,0
1,44,0,41
1,38,0,21
1,38,110,58
1,44,80,0
1,36,0,16
1,44,0,24
1,36,95,80
1,44,80,0
1,44,0,41
1,38,0,12
1,38,110,67
1,44,80,0
1,36,0,5
1,44,0,37
1,36,95,78
1,44,80,0
1,44,0,41
1,38,0,21
1,38,110,58
1,44,80,0
1,36,0,16
1,44,0,24
1,36,95,80
1,44,80,0
1,44,0,41
1,38,0,12
1,38,110,67
1,44,80,0
1,36,0,5
1,44,0,37
1,36,95,78
1,44,80,0
1,44,0,41
1,38,0,21
1,38,110,58
1,44,80,0
1,36,0,16
1,44,0,24
1,36,95,80
1,44,80,0
1,44,0,41
1,38,0,12
1,38,110,67
1,44,80,0
1,36,0,5
1,44,0,37
1,36,95,78
1,44,80,0
1,44,0,41
1,38,0,21
1,38,110,58
1,44,80,0
1,36,0,16
1,44,0,24
1,36,95,80
1,44,80,0
1,44,0,41
1,38,0,12
1,38,110,67
1,44,80,0
1,36,0,5
1,44,0,37
1,36,95,78
1,44,80,0
1,44,0,41
1,38,0,21
1,38,110,58
1,44,80,0
1,36,0,16
1,44,0,24
1,36,95,80
1,44,80,0
1,44,0,41
1,38,0,12
1,38,110,67
1,44,80,0
1,36,0,5
1,44,0,37
1,36,95,78
1,44,80,0
1,44,0,41
1,38,0,21
1,38,110,58
1,44,80,0
1,36,0,16
1,44,0,24
1,36,95,80
1,44,80,0
1,44,0,41
1,38,0,12
1,38,110,67
1,44,80,0
1,36,0,5
1,44,0,37
1,36,95,78
1,44,80,0
1,44,0,41
1,38,0,21
1,38,110,58
1,44,80,0
1,36,0,16
1,44,0,24
1,36,95,80
1,44,80,0
1,44,0,41
1,38,0,12
1,38,110,67
1,44,80,0
1,36,0,5
1,44,0,37
1,36,95,78
1,44,80,0
1,44,0,41
1,38,0,21
1,38,110,58
1,44,80,0
1,36,0,16
1,44,0,24
1,36,95,80
1,44,80,0
1,44,0,41
1,38,0,12
1,38,110,67
1,44,80,0
1,36,0,5
1,44,0,37
1,36,95,78
1,44,80,0
1,44,0,41
1,38,0,21
1,38,110,58
1,44,80,0
1,36,0,16
1,44,0,24
1,36,95,80
1,44,80,0
1,44,0,41
1,38,0,12
1,38,110,67
1,44,80,0
1,36,0,5
1,38,0,13
1,44,0,24
1,36,95,78
1,38,110,0
1,43,95,0
1,38,110,10
1,43,0,110
1,36,0,0
1,38,0,0
1,38,0,10
1,36,95,710
1,38,110,0
1,43,95,0
1,43,0,120
1,38,0,0
1,36,0,0
1,36,95,0
1,53,70,0
1,49,100,0
1,53,0,41
1,49,0,79
1,38,110,0
1,53,70,0
1,36,0,16
1,53,0,24
1,36,95,80
1,53,70,0
1,53,0,41
1,38,0,12
1,38,110,67
1,53,70,0
1,36,0,5
1,53,0,37
1,36,95,78
1,53,70,0
1,53,0,41
1,38,0,21
1,38,110,58
1,53,70,0
1,36,0,16
1,53,0,24
1,36,95,80
1,53,70,0
1,53,0,41
1,38,0,12
1,36,95,7
1,38,110,60
1,53,70,0
1,36,0,5
1,53,0,37
1,36,0,23
1,36,95,55
1,53,70,0
1,49,100,0
1,53,0,41
1,38,0,21
1,49,0,58
1,38,110,0
1,53,70,0
1,36,0,16
1,53,0,24
1,36,95,80
1,53,70,0
1,53,0,41
1,38,0,12
1,38,110,67
1,53,70,0
1,36,0,5
1,53,0,37
1,36,95,78
1,53,70,0
1,53,0,41
1,38,0,21
1,38,110,58
1,53,70,0
1,36,0,16
1,53,0,24
1,36,95,80
1,53,70,0
1,53,0,41
1,38,0,12
1,36,95,7
1,38,110,60
1,53,70,0
1,36,0,5
1,53,0,37
1,36,0,23
1,36,95,55
1,53,70,0
1,49,100,0
1,53,0,41
1,38,0,21
1,49,0,58
1,38,110,0
1,53,70,0
1,36,0,16
1,53,0,24
1,36,95,80
1,53,70,0
1,53,0,41
1,38,0,12
1,38,110,67
1,53,70,0
1,36,0,5
1,53,0,37
1,36,95,78
1,53,70,0
1,53,0,41
1,38,0,21
1,38,110,58
1,53,70,0
1,36,0,16
1,53,0,24
1,36,95,80
1,53,70,0
1,53,0,41
1,38,0,12
1,36,95,7
1,38,110,60
1,53,70,0
1,36,0,5
1,53,0,37
1,36,0,23
1,36,95,55
1,53,70,0
1,49,100,0
1,53,0,41
1,38,0,21
1,49,0,58
1,38,110,0
1,53,70,0
1,36,0,16
1,53,0,24
1,36,95,80
1,53,70,0
1,53,0,41
1,38,0,12
1,38,110,67
1,53,70,0
1,36,0,5
1,53,0,37
1,36,95,78
1,53,70,0
1,49,100,0
1,53,0,41
1,38,0,21
1,49,0,58
1,38,110,0
1,53,70,0
1,36,0,16
1,53,0,24
1,36,95,80
1,53,70,0
1,53,0,41
1,38,0,12
1,36,95,7
1,38,110,60
1,53,70,0
1,36,0,5
1,53,0,37
1,36,0,23
1,36,95,55
1,49,100,0
1,38,0,62
1,49,0,58
1,38,110,6
1,36,0,7
1,36,95,47
1,43,95,0
1,92,100,0
1,92,0,120
1,43,0,0
1,38,0,15
1,38,110,41
1,38,0,46
1,36,0,3
1,38,110,71
1,36,95,4
1,38,0,29
1,38,110,29
1,38,0,34
1,47,95,28
1,36,0,40
1,47,95,20
1,47,0,60
1,36,95,0
1,43,95,0
1,47,0,60
1,43,95,0
1,43,0,60
1,36,0,0
1,38,110,5
1,38,0,27
1,38,110,27
1,43,0,1
1,38,0,31
1,36,95,29
1,53,70,0
1,49,100,0
1,53,0,45
1,49,0,75
1,38,110,0
1,53,70,0
1,53,0,55
1,36,0,16
1,36,95,49
1,53,70,0
1,53,0,49
1,38,0,5
1,38,110,66
1,53,70,0
1,53,0,48
1,36,0,29
1,36,95,43
1,53,70,0
1,53,0,45
1,38,0,23
1,38,110,52
1,53,70,0
1,53,0,46
1,38,0,16
1,36,0,8
1,36,95,50
1,38,110,0
1,53,70,0
1,38,0,22
1,36,0,9
1,53,0,10
1,36,95,19
1,38,110,0
1,92,100,0
1,38,0,62
1,36,0,27
1,92,0,31
1,36,95,0
1,49,100,0
1,53,70,60
1,53,0,38
1,49,0,22
1,38,110,60
1,53,70,0
1,53,0,36
1,36,0,7
1,38,0,75
1,36,95,2
1,53,70,0
1,53,0,39
1,38,110,81
1,53,70,0
1,53,0,38
1,36,0,32
1,36,95,50
1,53,70,0
1,38,0,17
1,53,0,27
1,38,110,76
1,53,70,0
1,53,0,43
1,36,0,16
1,36,95,61
1,53,70,0
1,38,0,11
1,53,0,33
1,53,70,76
1,53,0,40
1,36,0,18
1,38,110,2
1,49,100,0
1,49,0,40
1,38,0,11
1,36,95,9
1,53,70,0
1,53,0,41
1,38,110,79
1,36,110,0
1,53,70,0
1,36,0,35
1,53,0,5
1,38,0,5
1,36,0,35
1,36,95,40
1,53,70,0
1,53,0,41
1,38,110,79
1,53,70,0
1,38,0,28
1,53,0,8
1,36,0,19
1,38,110,5
1,38,0,37
1,36,95,23
1,53,70,0
1,53,0,39
1,38,110,81
1,53,70,0
1,53,0,35
1,38,0,11
1,36,0,16
1,36,95,58
1,53,70,0
1,53,0,38
1,38,110,82
1,53,70,0
1,38,0,30
1,53,0,9
1,38,110,21
1,36,0,6
1,38,0,30
1,36,95,24
1,53,70,0
1,92,100,0
1,53,0,41
1,38,110,19
1,38,0,40
1,92,0,20
1,53,70,0
1,53,0,36
1,36,0,37
1,36,95,47
1,38,110,0
1,53,70,0
1,53,0,42
1,38,0,8
1,38,110,70
1,53,70,0
1,53,0,44
1,38,0,5
1,36,0,5
1,36,95,66
1,38,110,0
1,47,95,0
1,53,70,0
1,53,0,41
1,38,0,5
1,47,95,14
1,47,0,60
1,47,95,0
1,53,70,0
1,53,0,41
1,47,0,19
1,36,0,5
1,47,0,55
1,36,95,0
1,38,110,0
1,43,95,0
1,53,70,0
1,53,0,41
1,38,0,14
1,43,0,65
1,38,110,0
1,43,95,0
1,53,70,0
1,36,0,8
1,53,0,28
1,38,0,4
1,36,95,20
1,92,100,0
1,92,0,45
1,43,0,15
1,36,95,0
1,53,70,0
1,49,100,0
1,53,0,45
1,36,0,23
1,49,0,52
1,38,110,0
1,53,70,0
1,53,0,55
1,36,0,16
1,36,95,49
1,53,70,0
1,53,0,49
1,38,0,5
1,38,110,66
1,53,70,0
1,53,0,48
1,36,0,29
1,36,95,43
1,53,70,0
1,53,0,45
