track,note,velocity,time
1.0,44.0,70.0,166.0
1.0,37.0,95.0,52.0
1.0,52.0,81.0,850.0
1.0,45.0,103.0,24.0
1.0,57.0,84.0,284.0
1.0,50.0,91.0,18.0
1.0,52.0,98.0,176.0
1.0,45.0,106.0,34.0
1.0,44.0,99.0,58.0
1.0,37.0,84.0,4.0
1.0,38.0,53.0,4.0
1.0,52.0,98.0,286.0
1.0,45.0,101.0,28.0
1.0,57.0,92.0,28.0
1.0,50.0,81.0,4.0
1.0,52.0,35.0,30.0
1.0,52.0,94.0,162.0
1.0,45.0,97.0,34.0
1.0,44.0,92.0,54.0
1.0,37.0,90.0,14.0
1.0,44.0,81.0,100.0
1.0,37.0,84.0,2.0
1.0,44.0,74.0,240.0
1.0,52.0,91.0,122.0
1.0,45.0,92.0,38.0
1.0,44.0,78.0,20.0
1.0,37.0,76.0,40.0
1.0,44.0,65.0,70.0
1.0,37.0,68.0,52.0
1.0,44.0,55.0,266.0
1.0,59.0,77.0,14.0
1.0,37.0,29.0,30.0
1.0,44.0,40.0,268.0
1.0,37.0,40.0,50.0
1.0,44.0,45.0,296.0
1.0,53.0,63.0,184.0
1.0,37.0,29.0,10.0
1.0,44.0,38.0,394.0
1.0,37.0,47.0,26.0
1.0,44.0,44.0,266.0
1.0,37.0,32.0,2.0
1.0,44.0,42.0,342.0
1.0,60.0,67.0,20.0
1.0,37.0,48.0,12.0
1.0,44.0,49.0,136.0
1.0,37.0,29.0,256.0
1.0,44.0,45.0,360.0
1.0,62.0,53.0,50.0
1.0,37.0,37.0,8.0
1.0,44.0,43.0,204.0
1.0,59.0,44.0,222.0
1.0,53.0,45.0,4.0
1.0,37.0,28.0,8.0
1.0,64.0,81.0,8.0
1.0,64.0,63.0,112.0
1.0,44.0,44.0,56.0
1.0,64.0,37.0,36.0
1.0,37.0,42.0,38.0
1.0,44.0,35.0,324.0
1.0,62.0,38.0,0.0
1.0,59.0,48.0,158.0
1.0,37.0,42.0,8.0
1.0,53.0,57.0,4.0
1.0,64.0,90.0,152.0
1.0,64.0,65.0,80.0
1.0,44.0,58.0,120.0
1.0,64.0,64.0,88.0
1.0,37.0,46.0,20.0
1.0,62.0,67.0,296.0
1.0,44.0,47.0,10.0
1.0,64.0,70.0,226.0
1.0,37.0,32.0,4.0
1.0,65.0,40.0,204.0
1.0,44.0,35.0,24.0
1.0,68.0,55.0,10.0
1.0,64.0,72.0,32.0
1.0,37.0,35.0,14.0
1.0,44.0,38.0,322.0
1.0,59.0,4.0,76.0
1.0,53.0,3.0,6.0
1.0,53.0,35.0,154.0
1.0,59.0,25.0,20.0
1.0,37.0,24.0,6.0
1.0,44.0,43.0,60.0
1.0,64.0,83.0,72.0
1.0,37.0,52.0,4.0
1.0,44.0,55.0,272.0
1.0,59.0,55.0,38.0
1.0,53.0,46.0,0.0
1.0,37.0,37.0,8.0
1.0,65.0,56.0,282.0
1.0,44.0,39.0,14.0
1.0,68.0,67.0,4.0
1.0,71.0,57.0,22.0
1.0,68.0,84.0,32.0
1.0,65.0,87.0,18.0
1.0,37.0,34.0,12.0
1.0,64.0,83.0,2.0
1.0,44.0,61.0,116.0
1.0,63.0,71.0,28.0
1.0,60.0,81.0,16.0
1.0,59.0,60.0,30.0
1.0,60.0,68.0,38.0
1.0,63.0,75.0,56.0
1.0,37.0,47.0,24.0
1.0,59.0,41.0,24.0
1.0,64.0,86.0,4.0
1.0,53.0,53.0,8.0
1.0,65.0,66.0,194.0
1.0,68.0,68.0,14.0
1.0,44.0,33.0,34.0
1.0,71.0,52.0,26.0
1.0,68.0,60.0,2.0
1.0,65.0,70.0,2.0
1.0,37.0,30.0,14.0
1.0,64.0,69.0,18.0
1.0,44.0,34.0,206.0
1.0,63.0,34.0,10.0
1.0,60.0,45.0,12.0
1.0,59.0,35.0,48.0
1.0,60.0,25.0,26.0
1.0,63.0,46.0,8.0
1.0,37.0,28.0,14.0
1.0,64.0,66.0,4.0
1.0,53.0,36.0,8.0
1.0,59.0,29.0,4.0
1.0,44.0,29.0,244.0
1.0,37.0,34.0,82.0
1.0,44.0,39.0,336.0
1.0,37.0,42.0,344.0
1.0,44.0,38.0,426.0
1.0,37.0,35.0,72.0
1.0,44.0,36.0,372.0
1.0,63.0,60.0,76.0
1.0,64.0,55.0,62.0
1.0,63.0,69.0,4.0
1.0,60.0,75.0,10.0
1.0,59.0,58.0,36.0
1.0,56.0,85.0,68.0
1.0,37.0,37.0,78.0
1.0,53.0,80.0,74.0
1.0,52.0,71.0,184.0
1.0,52.0,49.0,104.0
1.0,44.0,43.0,90.0
1.0,37.0,38.0,88.0
1.0,52.0,60.0,6.0
1.0,51.0,50.0,88.0
1.0,44.0,28.0,28.0
1.0,53.0,57.0,90.0
1.0,51.0,69.0,14.0
1.0,37.0,35.0,10.0
1.0,50.0,70.0,0.0
1.0,50.0,51.0,114.0
1.0,44.0,44.0,102.0
1.0,50.0,36.0,6.0
1.0,37.0,39.0,14.0
1.0,49.0,41.0,308.0
1.0,44.0,27.0,2.0
1.0,49.0,36.0,206.0
1.0,53.0,33.0,6.0
1.0,37.0,23.0,20.0
1.0,44.0,34.0,500.0
1.0,37.0,34.0,76.0
1.0,44.0,32.0,182.0
1.0,37.0,25.0,102.0
1.0,44.0,28.0,420.0
1.0,37.0,35.0,44.0
1.0,44.0,47.0,126.0
1.0,76.0,97.0,358.0
1.0,55.0,89.0,22.0
1.0,74.0,91.0,2.0
1.0,58.0,99.0,8.0
1.0,72.0,97.0,24.0
1.0,60.0,76.0,16.0
1.0,70.0,106.0,14.0
1.0,62.0,81.0,4.0
1.0,67.0,103.0,24.0
1.0,64.0,115.0,10.0
1.0,44.0,60.0,352.0
1.0,37.0,53.0,62.0
1.0,44.0,47.0,358.0
1.0,37.0,34.0,374.0
1.0,44.0,36.0,102.0
1.0,37.0,31.0,16.0
1.0,44.0,33.0,272.0
1.0,53.0,50.0,394.0
1.0,37.0,26.0,4.0
1.0,50.0,51.0,4.0
1.0,49.0,46.0,4.0
1.0,49.0,57.0,60.0
1.0,44.0,37.0,20.0
1.0,37.0,48.0,82.0
1.0,44.0,33.0,118.0
1.0,37.0,32.0,326.0
1.0,44.0,32.0,332.0
1.0,37.0,32.0,116.0
1.0,44.0,28.0,40.0
1.0,55.0,21.0,378.0
1.0,58.0,54.0,42.0
1.0,76.0,61.0,14.0
1.0,60.0,24.0,44.0
1.0,74.0,38.0,12.0
1.0,62.0,27.0,30.0
1.0,67.0,42.0,30.0
1.0,70.0,67.0,4.0
1.0,72.0,20.0,0.0
1.0,64.0,55.0,34.0
1.0,76.0,71.0,40.0
1.0,64.0,36.0,12.0
1.0,76.0,54.0,154.0
1.0,64.0,19.0,28.0
1.0,44.0,34.0,4.0
1.0,64.0,49.0,84.0
1.0,76.0,55.0,0.0
1.0,37.0,28.0,16.0
1.0,65.0,46.0,120.0
1.0,77.0,58.0,0.0
1.0,44.0,37.0,18.0
1.0,76.0,84.0,92.0
1.0,64.0,63.0,4.0
1.0,53.0,50.0,108.0
1.0,56.0,38.0,62.0
1.0,58.0,55.0,38.0
1.0,74.0,79.0,16.0
1.0,60.0,45.0,32.0
1.0,72.0,54.0,30.0
1.0,70.0,46.0,52.0
1.0,68.0,66.0,18.0
1.0,65.0,71.0,6.0
1.0,62.0,66.0,34.0
1.0,74.0,74.0,104.0
1.0,62.0,59.0,6.0
1.0,62.0,55.0,140.0
1.0,74.0,43.0,2.0
1.0,44.0,36.0,22.0
1.0,74.0,44.0,80.0
1.0,62.0,39.0,0.0
1.0,37.0,35.0,26.0
1.0,64.0,26.0,218.0
1.0,76.0,56.0,2.0
1.0,44.0,37.0,42.0
1.0,74.0,45.0,114.0
1.0,62.0,34.0,2.0
1.0,51.0,52.0,154.0
1.0,54.0,35.0,16.0
1.0,72.0,75.0,4.0
1.0,70.0,49.0,12.0
1.0,56.0,48.0,2.0
1.0,68.0,53.0,38.0
1.0,58.0,56.0,10.0
1.0,66.0,59.0,14.0
1.0,63.0,64.0,0.0
1.0,60.0,71.0,8.0
1.0,44.0,46.0,410.0
1.0,37.0,43.0,100.0
1.0,44.0,38.0,336.0
1.0,37.0,33.0,378.0
1.0,50.0,37.0,208.0
1.0,71.0,23.0,18.0
1.0,53.0,31.0,26.0
1.0,69.0,43.0,10.0
1.0,55.0,19.0,8.0
1.0,57.0,41.0,28.0
1.0,65.0,47.0,18.0
1.0,62.0,47.0,10.0
1.0,59.0,36.0,34.0
1.0,51.0,36.0,218.0
1.0,72.0,64.0,6.0
1.0,54.0,28.0,24.0
1.0,70.0,47.0,32.0
1.0,56.0,40.0,26.0
1.0,68.0,29.0,16.0
1.0,58.0,43.0,2.0
1.0,66.0,53.0,20.0
1.0,63.0,45.0,14.0
1.0,60.0,51.0,46.0
1.0,44.0,42.0,318.0
1.0,37.0,49.0,98.0
1.0,44.0,40.0,326.0
1.0,37.0,42.0,368.0
1.0,50.0,39.0,422.0
1.0,71.0,23.0,12.0
1.0,53.0,31.0,34.0
1.0,69.0,40.0,22.0
1.0,55.0,20.0,60.0
1.0,57.0,46.0,24.0
1.0,65.0,50.0,34.0
1.0,62.0,44.0,20.0
1.0,59.0,55.0,32.0
1.0,37.0,36.0,348.0
1.0,53.0,83.0,244.0
1.0,44.0,56.0,56.0
1.0,37.0,65.0,52.0
1.0,52.0,72.0,20.0
1.0,44.0,44.0,6.0
1.0,53.0,81.0,42.0
1.0,55.0,86.0,48.0
1.0,37.0,41.0,70.0
1.0,53.0,66.0,44.0
1.0,59.0,70.0,10.0
1.0,53.0,55.0,50.0
1.0,44.0,54.0,116.0
1.0,37.0,62.0,82.0
1.0,52.0,79.0,60.0
1.0,44.0,57.0,14.0
1.0,53.0,85.0,18.0
1.0,55.0,85.0,34.0
1.0,58.0,87.0,132.0
1.0,63.0,76.0,2.0
1.0,59.0,71.0,2.0
1.0,37.0,52.0,6.0
1.0,55.0,81.0,82.0
1.0,53.0,74.0,68.0
1.0,44.0,58.0,6.0
1.0,60.0,78.0,22.0
1.0,64.0,91.0,6.0
1.0,37.0,69.0,6.0
1.0,65.0,90.0,14.0
1.0,61.0,81.0,2.0
1.0,44.0,59.0,88.0
1.0,66.0,90.0,52.0
1.0,62.0,87.0,0.0
1.0,37.0,51.0,160.0
1.0,63.0,79.0,66.0
1.0,59.0,69.0,4.0
1.0,58.0,86.0,4.0
1.0,55.0,79.0,60.0
1.0,53.0,69.0,0.0
1.0,44.0,50.0,96.0
1.0,64.0,67.0,68.0
1.0,60.0,54.0,8.0
1.0,37.0,38.0,6.0
1.0,65.0,63.0,36.0
1.0,61.0,55.0,18.0
1.0,44.0,40.0,18.0
1.0,66.0,66.0,24.0
1.0,62.0,50.0,2.0
1.0,37.0,29.0,132.0
1.0,55.0,50.0,40.0
1.0,67.0,56.0,10.0
1.0,60.0,51.0,0.0
1.0,64.0,52.0,8.0
1.0,79.0,32.0,124.0
1.0,76.0,32.0,8.0
1.0,72.0,32.0,0.0
1.0,67.0,32.0,0.0
1.0,78.0,64.0,156.0
1.0,66.0,54.0,6.0
1.0,75.0,22.0,22.0
1.0,71.0,23.0,2.0
1.0,44.0,21.0,16.0
1.0,51.0,56.0,106.0
1.0,63.0,52.0,10.0
1.0,56.0,47.0,10.0
1.0,37.0,35.0,4.0
1.0,60.0,35.0,10.0
1.0,54.0,59.0,264.0
1.0,66.0,70.0,4.0
1.0,59.0,56.0,0.0
1.0,44.0,50.0,8.0
1.0,63.0,52.0,8.0
1.0,37.0,42.0,46.0
1.0,57.0,77.0,10.0
1.0,69.0,73.0,12.0
1.0,66.0,66.0,4.0
1.0,62.0,59.0,10.0
1.0,74.0,79.0,110.0
1.0,69.0,73.0,2.0
1.0,81.0,85.0,0.0
1.0,78.0,59.0,4.0
1.0,68.0,96.0,132.0
1.0,80.0,90.0,0.0
1.0,73.0,62.0,16.0
1.0,77.0,68.0,2.0
1.0,44.0,54.0,24.0
1.0,37.0,40.0,90.0
1.0,62.0,82.0,4.0
1.0,53.0,92.0,0.0
1.0,65.0,90.0,2.0
1.0,58.0,81.0,10.0
1.0,68.0,84.0,218.0
1.0,56.0,93.0,4.0
1.0,65.0,87.0,4.0
1.0,44.0,44.0,0.0
1.0,61.0,37.0,66.0
1.0,59.0,90.0,178.0
1.0,71.0,92.0,0.0
1.0,68.0,88.0,2.0
1.0,64.0,95.0,6.0
1.0,37.0,60.0,10.0
1.0,44.0,62.0,250.0
1.0,37.0,66.0,36.0
1.0,44.0,56.0,52.0
1.0,37.0,62.0,22.0
1.0,73.0,92.0,316.0
1.0,61.0,83.0,2.0
1.0,66.0,66.0,12.0
1.0,70.0,76.0,6.0
1.0,44.0,65.0,8.0
1.0,63.0,90.0,74.0
1.0,75.0,90.0,2.0
1.0,37.0,76.0,10.0
1.0,68.0,75.0,2.0
1.0,71.0,70.0,6.0
1.0,73.0,93.0,62.0
1.0,61.0,91.0,2.0
1.0,70.0,85.0,8.0
1.0,66.0,69.0,8.0
1.0,44.0,75.0,30.0
1.0,71.0,88.0,62.0
1.0,59.0,83.0,0.0
1.0,68.0,82.0,4.0
1.0,64.0,84.0,8.0
1.0,58.0,101.0,56.0
1.0,70.0,102.0,0.0
1.0,63.0,74.0,12.0
1.0,67.0,81.0,0.0
1.0,37.0,50.0,6.0
1.0,60.0,93.0,122.0
1.0,72.0,94.0,2.0
1.0,69.0,83.0,12.0
1.0,65.0,82.0,4.0
1.0,44.0,48.0,8.0
1.0,62.0,81.0,52.0
1.0,67.0,83.0,4.0
1.0,74.0,88.0,2.0
1.0,71.0,70.0,2.0
1.0,37.0,64.0,6.0
1.0,65.0,70.0,78.0
1.0,72.0,90.0,4.0
1.0,60.0,69.0,4.0
1.0,69.0,79.0,6.0
1.0,44.0,62.0,30.0
1.0,64.0,68.0,34.0
1.0,58.0,65.0,2.0
1.0,70.0,70.0,0.0
1.0,67.0,77.0,4.0
1.0,62.0,59.0,20.0
1.0,57.0,84.0,2.0
1.0,69.0,79.0,10.0
1.0,66.0,69.0,6.0
1.0,37.0,38.0,6.0
1.0,71.0,52.0,148.0
1.0,59.0,54.0,2.0
1.0,64.0,64.0,6.0
1.0,67.0,55.0,6.0
1.0,44.0,51.0,2.0
1.0,72.0,58.0,120.0
1.0,60.0,55.0,0.0
1.0,68.0,58.0,10.0
1.0,37.0,40.0,8.0
1.0,65.0,45.0,4.0
1.0,64.0,46.0,108.0
1.0,71.0,35.0,0.0
1.0,59.0,27.0,2.0
1.0,67.0,38.0,8.0
1.0,44.0,35.0,86.0
1.0,62.0,44.0,86.0
1.0,57.0,51.0,4.0
1.0,69.0,52.0,6.0
1.0,66.0,37.0,0.0
1.0,68.0,47.0,230.0
1.0,56.0,41.0,6.0
1.0,37.0,31.0,18.0
1.0,61.0,44.0,6.0
1.0,65.0,30.0,0.0
1.0,44.0,31.0,270.0
1.0,37.0,43.0,20.0
1.0,44.0,47.0,292.0
1.0,44.0,78.0,326.0
1.0,37.0,108.0,34.0
1.0,52.0,103.0,644.0
1.0,45.0,119.0,24.0
1.0,57.0,106.0,276.0
1.0,50.0,105.0,0.0
1.0,52.0,103.0,170.0
1.0,45.0,107.0,40.0
1.0,44.0,99.0,60.0
1.0,37.0,107.0,10.0
1.0,52.0,104.0,620.0
1.0,45.0,114.0,28.0
1.0,57.0,103.0,6.0
1.0,50.0,104.0,24.0
1.0,50.0,106.0,172.0
1.0,42.0,94.0,36.0
1.0,41.0,107.0,60.0
1.0,34.0,119.0,52.0
1.0,53.0,99.0,242.0
1.0,78.0,109.0,138.0
1.0,66.0,111.0,2.0
1.0,70.0,112.0,2.0
1.0,65.0,108.0,2.0
1.0,74.0,108.0,2.0
1.0,58.0,103.0,8.0
1.0,62.0,86.0,4.0
1.0,41.0,105.0,282.0
1.0,34.0,113.0,296.0
1.0,79.0,109.0,58.0
1.0,67.0,95.0,10.0
1.0,41.0,94.0,176.0
1.0,34.0,108.0,72.0
1.0,84.0,115.0,78.0
1.0,72.0,111.0,4.0
1.0,41.0,88.0,54.0
1.0,81.0,115.0,58.0
1.0,69.0,110.0,2.0
1.0,53.0,85.0,102.0
1.0,58.0,94.0,26.0
1.0,78.0,108.0,4.0
1.0,62.0,85.0,4.0
1.0,66.0,105.0,2.0
1.0,70.0,105.0,4.0
1.0,74.0,105.0,2.0
1.0,65.0,106.0,6.0
1.0,79.0,106.0,6.0
1.0,67.0,98.0,2.0
1.0,41.0,103.0,124.0
1.0,34.0,108.0,38.0
1.0,84.0,115.0,74.0
1.0,72.0,113.0,4.0
1.0,41.0,98.0,44.0
1.0,81.0,114.0,48.0
1.0,69.0,111.0,2.0
1.0,53.0,75.0,112.0
1.0,58.0,76.0,34.0
1.0,61.0,56.0,22.0
1.0,78.0,103.0,6.0
1.0,64.0,76.0,8.0
1.0,66.0,86.0,2.0
1.0,73.0,77.0,6.0
1.0,70.0,84.0,2.0
1.0,41.0,42.0,302.0
1.0,34.0,68.0,28.0
1.0,41.0,63.0,310.0
1.0,34.0,65.0,338.0
1.0,79.0,69.0,20.0
1.0,67.0,55.0,30.0
1.0,41.0,54.0,14.0
1.0,34.0,69.0,114.0
1.0,84.0,88.0,186.0
1.0,72.0,69.0,10.0
1.0,41.0,54.0,48.0
1.0,81.0,92.0,76.0
1.0,69.0,52.0,10.0
1.0,66.0,59.0,228.0
1.0,78.0,70.0,2.0
1.0,70.0,61.0,14.0
1.0,73.0,57.0,2.0
1.0,58.0,33.0,2.0
1.0,61.0,37.0,2.0
1.0,64.0,44.0,2.0
1.0,53.0,27.0,14.0
1.0,79.0,59.0,52.0
1.0,67.0,27.0,26.0
1.0,41.0,31.0,36.0
1.0,34.0,38.0,86.0
1.0,84.0,52.0,144.0
1.0,72.0,47.0,2.0
1.0,41.0,31.0,56.0
1.0,81.0,58.0,66.0
1.0,50.0,48.0,346.0
1.0,42.0,47.0,64.0
1.0,41.0,38.0,22.0
1.0,34.0,61.0,6.0
1.0,50.0,56.0,280.0
1.0,41.0,35.0,24.0
1.0,42.0,49.0,4.0
1.0,34.0,51.0,0.0
1.0,58.0,79.0,108.0
1.0,49.0,63.0,14.0
1.0,50.0,59.0,40.0
1.0,42.0,50.0,28.0
1.0,50.0,72.0,110.0
1.0,41.0,60.0,38.0
1.0,42.0,64.0,14.0
1.0,34.0,67.0,8.0
1.0,50.0,66.0,136.0
1.0,41.0,60.0,34.0
1.0,42.0,52.0,4.0
1.0,34.0,80.0,12.0
1.0,58.0,83.0,140.0
1.0,49.0,57.0,38.0
1.0,50.0,50.0,32.0
1.0,42.0,47.0,34.0
1.0,48.0,65.0,90.0
1.0,57.0,68.0,18.0
1.0,49.0,53.0,2.0
1.0,41.0,67.0,26.0
1.0,57.0,68.0,0.0
1.0,49.0,53.0,4.0
1.0,47.0,51.0,94.0
1.0,56.0,65.0,30.0
1.0,48.0,59.0,14.0
1.0,40.0,63.0,52.0
1.0,46.0,72.0,2.0
1.0,55.0,65.0,0.0
1.0,47.0,47.0,10.0
1.0,39.0,59.0,14.0
1.0,54.0,59.0,10.0
1.0,46.0,54.0,10.0
1.0,45.0,54.0,12.0
1.0,38.0,47.0,40.0
1.0,50.0,54.0,30.0
1.0,42.0,47.0,30.0
1.0,41.0,43.0,26.0
1.0,34.0,67.0,16.0
1.0,61.0,55.0,568.0
1.0,52.0,42.0,20.0
1.0,55.0,39.0,4.0
1.0,57.0,37.0,6.0
1.0,50.0,53.0,304.0
1.0,42.0,59.0,36.0
1.0,41.0,34.0,54.0
1.0,34.0,68.0,22.0
1.0,64.0,61.0,444.0
1.0,60.0,32.0,22.0
1.0,58.0,46.0,8.0
1.0,55.0,21.0,30.0
1.0,66.0,46.0,424.0
1.0,60.0,36.0,14.0
1.0,67.0,35.0,40.0
1.0,58.0,65.0,0.0
1.0,68.0,58.0,28.0
1.0,62.0,37.0,8.0
1.0,65.0,39.0,6.0
1.0,56.0,22.0,6.0
1.0,41.0,20.0,82.0
1.0,68.0,59.0,64.0
1.0,34.0,42.0,14.0
1.0,62.0,29.0,6.0
1.0,41.0,42.0,212.0
1.0,76.0,73.0,2.0
1.0,68.0,41.0,12.0
1.0,66.0,55.0,294.0
1.0,60.0,46.0,8.0
1.0,67.0,56.0,16.0
1.0,59.0,34.0,6.0
1.0,58.0,65.0,26.0
1.0,68.0,63.0,34.0
1.0,65.0,44.0,2.0
1.0,62.0,48.0,6.0
1.0,56.0,16.0,40.0
1.0,41.0,35.0,50.0
1.0,68.0,54.0,124.0
1.0,62.0,28.0,16.0
1.0,34.0,39.0,4.0
1.0,76.0,70.0,284.0
1.0,68.0,37.0,16.0
1.0,41.0,28.0,12.0
1.0,75.0,61.0,364.0
1.0,56.0,30.0,8.0
1.0,67.0,32.0,16.0
1.0,65.0,30.0,6.0
1.0,59.0,32.0,0.0
1.0,87.0,70.0,170.0
1.0,79.0,63.0,2.0
1.0,78.0,54.0,156.0
1.0,86.0,72.0,0.0
1.0,66.0,42.0,18.0
1.0,74.0,67.0,238.0
1.0,66.0,32.0,12.0
1.0,62.0,30.0,8.0
1.0,73.0,48.0,24.0
1.0,65.0,30.0,4.0
1.0,61.0,31.0,6.0
1.0,68.0,52.0,214.0
1.0,60.0,42.0,38.0
1.0,61.0,43.0,14.0
1.0,59.0,28.0,86.0
1.0,53.0,24.0,20.0
1.0,60.0,37.0,106.0
1.0,68.0,73.0,24.0
1.0,59.0,50.0,0.0
1.0,61.0,60.0,2.0
1.0,53.0,61.0,34.0
1.0,76.0,85.0,210.0
1.0,68.0,75.0,22.0
1.0,69.0,68.0,10.0
1.0,60.0,34.0,54.0
1.0,66.0,51.0,2.0
1.0,67.0,61.0,46.0
1.0,75.0,72.0,36.0
1.0,68.0,67.0,2.0
1.0,59.0,42.0,28.0
1.0,65.0,59.0,0.0
1.0,68.0,51.0,52.0
1.0,75.0,58.0,4.0
1.0,65.0,57.0,86.0
1.0,74.0,78.0,24.0
1.0,67.0,59.0,6.0
1.0,58.0,38.0,8.0
1.0,64.0,54.0,12.0
1.0,64.0,66.0,98.0
1.0,73.0,78.0,4.0
1.0,66.0,55.0,10.0
1.0,63.0,50.0,0.0
1.0,57.0,41.0,0.0
1.0,63.0,65.0,90.0
1.0,65.0,72.0,12.0
1.0,72.0,84.0,8.0
1.0,56.0,50.0,2.0
1.0,62.0,50.0,32.0
1.0,60.0,59.0,160.0
1.0,68.0,78.0,40.0
1.0,53.0,50.0,6.0
1.0,61.0,62.0,4.0
1.0,59.0,54.0,2.0
1.0,57.0,27.0,306.0
1.0,58.0,61.0,10.0
1.0,65.0,73.0,16.0
1.0,56.0,51.0,12.0
1.0,50.0,44.0,12.0
1.0,60.0,18.0,648.0
1.0,53.0,25.0,6.0
1.0,68.0,40.0,6.0
1.0,59.0,22.0,32.0
1.0,61.0,15.0,18.0
1.0,65.0,60.0,594.0
1.0,61.0,43.0,0.0
1.0,57.0,39.0,10.0
1.0,44.0,29.0,2.0
1.0,55.0,52.0,150.0
1.0,54.0,46.0,42.0
1.0,58.0,51.0,12.0
1.0,64.0,57.0,4.0
1.0,60.0,44.0,4.0
1.0,56.0,52.0,14.0
1.0,65.0,51.0,294.0
1.0,61.0,55.0,18.0
1.0,57.0,49.0,12.0
1.0,55.0,43.0,0.0
1.0,55.0,48.0,124.0
1.0,55.0,50.0,84.0
1.0,58.0,44.0,160.0
1.0,54.0,33.0,14.0
1.0,64.0,44.0,4.0
1.0,60.0,28.0,4.0
1.0,56.0,39.0,46.0
1.0,65.0,55.0,266.0
1.0,61.0,41.0,2.0
1.0,44.0,41.0,4.0
1.0,57.0,44.0,8.0
1.0,55.0,42.0,154.0
1.0,54.0,27.0,108.0
1.0,58.0,43.0,8.0
1.0,64.0,36.0,10.0
1.0,60.0,24.0,24.0
1.0,56.0,25.0,168.0
1.0,43.0,34.0,272.0
1.0,46.0,52.0,192.0
1.0,44.0,36.0,350.0
1.0,67.0,34.0,30.0
1.0,53.0,25.0,4.0
1.0,59.0,28.0,0.0
1.0,37.0,29.0,2.0
1.0,44.0,31.0,276.0
1.0,37.0,34.0,54.0
1.0,44.0,35.0,238.0
1.0,37.0,32.0,326.0
1.0,44.0,38.0,318.0
1.0,37.0,48.0,50.0
1.0,44.0,46.0,288.0
1.0,37.0,46.0,238.0
1.0,44.0,59.0,276.0
1.0,37.0,56.0,84.0
1.0,60.0,59.0,6.0
1.0,44.0,48.0,78.0
1.0,37.0,26.0,344.0
1.0,44.0,41.0,364.0
1.0,37.0,31.0,100.0
1.0,62.0,63.0,0.0
1.0,44.0,46.0,78.0
1.0,59.0,56.0,288.0
1.0,37.0,39.0,4.0
1.0,53.0,57.0,6.0
1.0,67.0,84.0,116.0
1.0,64.0,73.0,2.0
1.0,64.0,39.0,88.0
1.0,67.0,85.0,12.0
1.0,44.0,47.0,86.0
1.0,37.0,39.0,86.0
1.0,67.0,57.0,6.0
1.0,64.0,49.0,16.0
1.0,65.0,59.0,168.0
1.0,44.0,28.0,2.0
1.0,62.0,46.0,0.0
1.0,59.0,60.0,168.0
1.0,37.0,47.0,2.0
1.0,53.0,60.0,4.0
1.0,67.0,96.0,28.0
1.0,64.0,77.0,4.0
1.0,64.0,61.0,80.0
1.0,67.0,89.0,10.0
1.0,44.0,48.0,90.0
1.0,64.0,51.0,70.0
1.0,67.0,98.0,4.0
1.0,37.0,58.0,12.0
1.0,62.0,67.0,104.0
1.0,65.0,90.0,4.0
1.0,44.0,50.0,10.0
1.0,67.0,82.0,136.0
1.0,37.0,35.0,4.0
1.0,64.0,48.0,8.0
1.0,68.0,56.0,236.0
1.0,65.0,46.0,8.0
1.0,44.0,28.0,34.0
1.0,71.0,38.0,34.0
1.0,67.0,29.0,6.0
1.0,65.0,50.0,6.0
1.0,68.0,61.0,6.0
1.0,67.0,60.0,32.0
1.0,37.0,36.0,0.0
1.0,64.0,59.0,16.0
1.0,44.0,42.0,152.0
1.0,37.0,29.0,226.0
1.0,59.0,36.0,10.0
1.0,53.0,25.0,0.0
1.0,44.0,42.0,96.0
1.0,67.0,59.0,66.0
1.0,37.0,39.0,4.0
1.0,64.0,51.0,10.0
1.0,44.0,52.0,318.0
1.0,59.0,44.0,28.0
1.0,37.0,31.0,10.0
1.0,53.0,25.0,4.0
1.0,68.0,72.0,236.0
1.0,65.0,46.0,12.0
1.0,44.0,34.0,68.0
1.0,67.0,49.0,8.0
1.0,71.0,34.0,0.0
1.0,68.0,82.0,30.0
1.0,73.0,75.0,24.0
1.0,71.0,42.0,2.0
1.0,67.0,54.0,4.0
1.0,68.0,72.0,16.0
1.0,65.0,83.0,10.0
1.0,67.0,77.0,50.0
1.0,64.0,86.0,4.0
1.0,37.0,30.0,10.0
1.0,44.0,44.0,54.0
1.0,65.0,70.0,58.0
1.0,64.0,69.0,20.0
1.0,61.0,79.0,8.0
1.0,60.0,76.0,14.0
1.0,59.0,69.0,30.0
1.0,56.0,83.0,68.0
1.0,37.0,39.0,52.0
1.0,53.0,86.0,34.0
1.0,52.0,63.0,26.0
1.0,52.0,53.0,112.0
1.0,44.0,51.0,70.0
1.0,52.0,45.0,72.0
1.0,37.0,43.0,20.0
1.0,51.0,49.0,254.0
1.0,44.0,31.0,10.0
1.0,51.0,52.0,84.0
1.0,37.0,32.0,18.0
1.0,50.0,57.0,0.0
1.0,50.0,61.0,144.0
1.0,44.0,43.0,74.0
1.0,37.0,37.0,50.0
1.0,50.0,51.0,10.0
1.0,44.0,36.0,224.0
1.0,49.0,42.0,8.0
1.0,49.0,49.0,126.0
1.0,53.0,43.0,2.0
1.0,37.0,31.0,20.0
1.0,44.0,32.0,494.0
1.0,37.0,35.0,72.0
1.0,44.0,33.0,66.0
1.0,37.0,11.0,104.0
1.0,44.0,32.0,400.0
1.0,37.0,32.0,106.0
1.0,44.0,23.0,46.0
1.0,76.0,99.0,2.0
1.0,55.0,70.0,0.0
1.0,58.0,78.0,32.0
1.0,74.0,88.0,0.0
1.0,72.0,91.0,32.0
1.0,60.0,54.0,12.0
1.0,62.0,71.0,2.0
1.0,70.0,91.0,14.0
1.0,67.0,97.0,2.0
1.0,64.0,114.0,6.0
1.0,44.0,43.0,516.0
1.0,37.0,46.0,64.0
1.0,44.0,46.0,378.0
1.0,37.0,31.0,366.0
1.0,44.0,33.0,348.0
1.0,37.0,27.0,104.0
1.0,44.0,41.0,10.0
1.0,50.0,41.0,490.0
1.0,53.0,55.0,12.0
1.0,37.0,30.0,12.0
1.0,49.0,56.0,80.0
1.0,49.0,37.0,76.0
1.0,44.0,36.0,8.0
1.0,37.0,36.0,16.0
1.0,44.0,35.0,328.0
1.0,37.0,28.0,48.0
1.0,44.0,34.0,406.0
1.0,37.0,36.0,118.0
1.0,44.0,32.0,280.0
1.0,69.0,28.0,520.0
1.0,90.0,40.0,20.0
1.0,72.0,9.0,46.0
1.0,74.0,34.0,10.0
1.0,76.0,47.0,30.0
1.0,81.0,50.0,38.0
1.0,84.0,45.0,22.0
1.0,78.0,45.0,0.0
1.0,78.0,38.0,152.0
1.0,90.0,33.0,14.0
1.0,90.0,43.0,258.0
1.0,78.0,31.0,8.0
1.0,78.0,47.0,210.0
1.0,90.0,40.0,8.0
1.0,60.0,23.0,14.0
1.0,91.0,54.0,162.0
1.0,79.0,40.0,2.0
1.0,90.0,63.0,238.0
1.0,78.0,45.0,12.0
1.0,70.0,39.0,318.0
1.0,88.0,63.0,10.0
1.0,67.0,28.0,2.0
1.0,86.0,47.0,16.0
1.0,72.0,23.0,12.0
1.0,74.0,34.0,2.0
1.0,84.0,36.0,50.0
1.0,82.0,65.0,6.0
1.0,79.0,61.0,2.0
1.0,76.0,59.0,20.0
1.0,88.0,61.0,206.0
1.0,76.0,54.0,4.0
1.0,88.0,48.0,186.0
1.0,76.0,36.0,0.0
1.0,88.0,36.0,254.0
1.0,76.0,27.0,8.0
1.0,60.0,33.0,4.0
1.0,78.0,25.0,324.0
1.0,90.0,32.0,26.0
1.0,88.0,25.0,548.0
1.0,76.0,21.0,18.0
1.0,75.0,73.0,262.0
1.0,73.0,87.0,36.0
1.0,68.0,90.0,32.0
1.0,65.0,92.0,32.0
1.0,63.0,101.0,28.0
1.0,53.0,100.0,0.0
1.0,56.0,90.0,4.0
1.0,61.0,93.0,4.0
1.0,44.0,81.0,552.0
1.0,37.0,79.0,32.0
1.0,44.0,68.0,58.0
1.0,37.0,59.0,64.0
1.0,44.0,44.0,460.0
1.0,37.0,51.0,26.0
1.0,44.0,44.0,52.0
1.0,37.0,23.0,46.0
1.0,44.0,31.0,550.0
1.0,37.0,23.0,596.0
1.0,44.0,23.0,604.0
1.0,25.0,15.0,1076.0
1.0,37.0,13.0,20.0
0.0,0.0,0.0,0.0
0.0,0.0,0.0,0.0
0.0,0.0,0.0,0.0
0.0,0.0,0.0,0.0
0.0,0.0,0.0,0.0
0.0,0.0,0.0,0.0
0.0,0.0,0.0,0.0
0.0,0.0,0.0,0.0
0.0,0.0,0.0,0.0
0.0,0.0,0.0,0.0
0.0,0.0,0.0,0.0
0.0,0.0,0.0,0.0
0.0,0.0,0.0,0.0
0.0,0.0,0.0,0.0
0.0,0.0,0.0,0.0
0.0,0.0,0.0,0.0
0.0,0.0,0.0,0.0
0.0,0.0,0.0,0.0
0.0,0.0,0.0,0.0
0.0,0.0,0.0,0.0
0.0,0.0,0.0,0.0
0.0,0.0,0.0,0.0
0.0,0.0,0.0,0.0
0.0,0.0,0.0,0.0
0.0,0.0,0.0,0.0
0.0,0.0,0.0,0.0
0.0,0.0,0.0,0.0
0.0,0.0,0.0,0.0
0.0,0.0,0.0,0.0
0.0,0.0,0.0,0.0
0.0,0.0,0.0,0.0
0.0,0.0,0.0,0.0
0.0,0.0,0.0,0.0
0.0,0.0,0.0,0.0
0.0,0.0,0.0,0.0
0.0,0.0,0.0,0.0
