track,note,velocity,time
1,50,75,4380
1,69,89,60
1,62,80,0
1,66,96,0
1,50,0,13
1,50,70,47
1,66,0,5
1,62,0,3
1,69,0,1
1,66,96,51
1,69,85,0
1,62,77,0
1,50,0,9
1,50,65,51
1,66,0,7
1,62,0,0
1,69,0,0
1,69,86,53
1,66,100,0
1,62,78,0
1,50,0,6
1,50,67,54
1,66,0,7
1,69,0,1
1,62,0,1
1,71,106,51
1,62,80,0
1,67,98,0
1,50,0,10
1,50,73,50
1,67,0,9
1,71,0,2
1,62,0,2
1,66,104,47
1,69,93,0
1,62,83,0
1,50,0,12
1,50,72,48
1,66,0,13
1,69,0,0
1,62,0,1
1,40,100,16
1,50,0,28
1,40,0,217
1,45,77,25
1,61,100,0
1,64,100,0
1,57,80,0
1,61,96,0
1,57,0,31
1,57,77,29
1,61,0,8
1,64,0,8
1,61,0,5
1,61,96,39
1,64,106,0
1,57,0,10
1,57,68,50
1,64,0,5
1,61,0,0
1,61,94,55
1,64,98,0
1,57,0,7
1,57,85,53
1,64,0,4
1,61,0,4
1,61,92,52
1,64,100,0
1,57,0,8
1,57,96,52
1,64,0,1
1,61,0,4
1,45,0,10
1,61,107,45
1,64,120,0
1,45,83,0
1,61,59,0
1,64,69,0
1,57,0,7
1,64,0,6
1,61,0,1
1,64,0,45
1,57,66,1
1,61,0,8
1,61,92,52
1,64,106,0
1,57,0,8
1,57,86,52
1,64,0,8
1,61,0,4
1,61,94,48
1,64,103,0
1,57,0,3
1,64,0,55
1,57,89,2
1,61,0,10
1,57,0,45
1,45,78,5
1,61,107,0
1,40,82,0
1,64,117,0
1,45,0,9
1,45,0,26
1,57,78,25
1,64,0,3
1,61,0,1
1,40,0,49
1,61,111,7
1,64,113,0
1,45,83,0
1,57,0,6
1,64,0,62
1,61,0,3
1,45,0,11
1,61,75,38
1,57,55,0
1,64,80,0
1,57,0,41
1,45,68,19
1,61,0,41
1,64,0,1
1,61,89,18
1,64,91,0
1,45,0,55
1,45,60,5
1,64,0,38
1,61,0,2
1,61,87,20
1,64,91,0
1,57,67,0
1,45,0,49
1,45,64,11
1,57,0,20
1,61,0,15
1,64,0,0
1,57,68,85
1,61,94,60
1,57,0,15
1,57,82,45
1,61,0,12
1,64,111,48
1,57,0,12
1,64,0,42
1,61,89,6
1,61,0,58
1,57,103,2
1,61,87,60
1,57,0,8
1,45,0,5
1,45,93,47
1,57,89,60
1,61,0,5
1,57,0,55
1,61,94,0
1,57,82,60
1,61,0,5
1,64,103,55
1,57,0,2
1,64,0,55
1,61,84,3
1,61,0,51
1,57,96,9
1,61,89,60
1,57,0,3
1,45,0,11
1,45,91,46
1,57,96,60
1,61,0,2
1,57,0,57
1,61,94,1
1,57,93,60
1,61,0,3
1,57,0,57
1,64,103,0
1,64,0,58
1,61,65,2
1,61,0,55
1,57,93,5
1,45,0,38
1,45,61,22
1,57,0,24
1,62,80,36
1,45,0,9
1,62,0,111
1,62,48,0
1,66,84,0
1,62,0,20
1,62,65,40
1,66,0,14
1,69,96,46
1,62,0,8
1,69,0,52
1,66,71,0
1,66,0,57
1,62,93,3
1,66,84,60
1,62,0,12
1,62,106,48
1,66,0,3
1,66,87,57
1,62,0,49
1,69,82,11
1,66,0,4
1,62,80,56
1,69,0,2
1,62,0,34
1,64,98,24
1,64,103,3
1,68,75,57
1,67,30,0
1,64,0,15
1,67,0,6
1,68,0,32
1,64,0,2
1,71,113,3
1,64,16,2
1,64,0,29
1,71,0,27
1,68,107,2
1,68,0,55
1,57,75,7
1,57,80,0
1,61,63,60
1,61,0,27
1,61,96,33
1,61,68,0
1,57,0,1
1,57,0,12
1,57,83,47
1,57,86,0
1,61,0,3
1,61,0,6
1,64,106,51
1,61,79,0
1,64,89,0
1,64,0,10
1,61,0,1
1,57,0,6
1,57,0,6
1,64,0,29
1,64,96,8
1,61,96,0
1,61,79,0
1,61,0,57
1,57,85,3
1,57,93,0
1,61,0,9
1,64,0,3
1,61,92,48
1,64,91,0
1,61,89,0
1,57,0,7
1,57,0,6
1,61,0,43
1,57,98,4
1,57,89,0
1,64,0,4
1,61,0,3
1,57,0,25
1,57,75,28
1,61,71,0
1,57,0,37
1,61,100,23
1,64,103,0
1,57,100,0
1,57,0,5
1,61,0,4
1,57,0,37
1,57,28,14
1,57,73,0
1,61,78,0
1,61,0,8
1,64,0,4
1,61,0,7
1,64,98,41
1,61,100,0
1,64,96,0
1,62,72,0
1,57,0,5
1,57,0,7
1,62,0,9
1,57,63,39
1,57,75,0
1,64,0,2
1,61,0,10
1,64,0,0
1,57,0,40
1,61,94,8
1,64,103,0
1,61,100,0
1,57,0,10
1,57,71,50
1,61,0,12
1,64,0,4
1,57,0,7
1,61,0,23
1,62,89,14
1,66,61,60
1,69,77,60
1,62,0,18
1,62,67,42
1,69,0,16
1,66,0,10
1,62,0,4
1,64,91,30
1,68,55,60
1,71,82,60
1,64,0,20
1,64,100,40
1,71,0,16
1,68,0,0
1,64,0,4
1,57,91,40
1,61,53,60
1,64,83,60
1,57,0,10
1,57,83,50
1,61,0,14
1,64,0,2
1,57,0,19
1,64,22,25
1,61,61,0
1,57,75,60
1,61,0,1
1,64,0,33
1,61,89,26
1,64,85,0
1,57,0,12
1,57,60,48
1,57,0,21
1,64,0,0
1,61,0,2
1,62,64,37
1,64,69,0
1,64,0,17
1,66,96,43
1,69,83,60
1,62,0,5
1,62,77,55
1,66,0,12
1,62,0,29
1,69,0,3
1,66,8,16
1,64,75,0
1,66,0,9
1,68,82,51
1,71,93,60
1,64,0,2
1,64,96,58
1,71,0,9
1,68,0,8
1,64,0,6
1,57,86,37
1,61,50,60
1,64,82,60
1,57,0,5
1,64,0,55
1,57,61,0
1,61,0,8
1,61,94,52
1,64,86,0
1,64,0,106
1,61,0,2
1,57,0,26
1,62,60,16485
1,66,65,58
1,62,0,13
1,62,75,52
1,66,0,15
1,62,0,6
1,64,78,40
1,68,66,53
1,71,91,62
1,64,0,5
1,71,0,52
1,64,80,3
1,68,0,7
1,64,0,11
1,57,83,43
1,57,0,120
1,61,75,7
1,57,62,57
1,61,0,7
1,64,96,54
1,57,0,5
1,64,0,45
1,61,56,4
1,57,75,59
1,61,0,5
1,61,76,53
1,57,0,6
1,61,0,14
1,62,71,41
1,66,71,63
1,69,58,62
1,62,0,9
1,69,0,51
1,62,68,3
1,62,0,33
1,66,0,11
1,64,86,18
1,68,63,56
1,64,0,54
1,71,83,3
1,64,80,64
1,71,0,2
1,68,0,4
1,64,0,15
1,57,89,39
1,61,82,114
1,57,0,3
1,57,71,60
1,61,0,9
1,64,100,53
1,57,0,5
1,61,66,53
1,64,0,3
1,61,0,55
1,57,75,0
1,57,0,133
1,62,71,947
1,66,68,60
1,69,72,62
1,62,0,6
1,62,73,56
1,69,0,3
1,62,0,25
1,66,0,0
1,64,80,30
1,68,66,54
1,71,82,57
1,64,0,10
1,64,91,59
1,71,0,8
1,68,0,4
1,64,0,11
1,57,91,36
1,61,46,64
1,64,67,61
1,57,0,4
1,64,0,50
1,57,80,63
1,61,0,35
1,61,89,78
1,45,91,6
1,45,0,0
1,57,0,3
1,62,66,110
1,61,0,3
1,66,70,58
1,69,53,64
1,62,0,1
1,69,0,51
1,62,70,9
1,62,0,34
1,66,0,13
1,64,85,17
1,68,58,52
1,71,78,62
1,64,0,1
1,71,0,44
1,64,80,23
1,68,0,11
1,64,0,7
1,43,75,37
1,43,0,0
1,45,75,0
1,45,0,0
1,57,75,12
1,61,66,111
1,57,0,11
1,57,73,48
1,61,0,6
1,57,0,49
1,64,91,8
1,64,0,237
1,45,106,981
1,57,60,59
1,61,71,56
1,57,0,2
1,57,75,55
1,61,0,8
1,64,85,52
1,57,0,4
1,61,59,52
1,64,0,6
1,57,72,51
1,61,0,5
1,57,0,69
1,45,0,24
1,57,77,4
1,64,34,5
1,45,123,11
1,69,98,0
1,73,84,6
1,45,0,574
1,57,0,22
1,64,0,17
1,69,0,5
1,73,0,3
2,54,76,0
2,54,0,47
2,54,87,76
2,54,0,41
2,54,87,79
2,54,0,32
2,54,94,94
2,54,0,24
2,54,125,441
2,54,0,76
2,54,125,404
2,54,0,76
2,54,125,404
2,54,0,76
2,54,125,404
2,54,0,76
2,54,125,404
2,54,0,76
2,54,125,404
2,54,0,76
2,54,125,404
2,54,0,76
2,54,125,404
2,54,0,76
2,54,125,404
2,54,0,76
2,54,125,404
2,54,0,76
2,54,125,404
2,54,0,76
2,54,125,404
2,54,0,76
2,44,122,50
2,44,0,0
2,36,111,0
2,36,0,0
2,44,119,120
2,44,0,59
2,36,85,1
2,36,0,59
2,44,122,1
2,36,120,0
2,36,0,59
2,44,0,0
2,46,122,61
2,38,100,0
2,38,0,119
2,46,0,0
2,44,115,1
2,36,100,0
2,44,122,0
2,36,111,0
2,36,0,59
2,44,0,0
2,44,0,0
2,36,0,60
2,44,119,1
2,44,0,59
2,36,85,1
2,36,0,59
2,44,122,1
2,36,120,0
2,36,0,59
2,44,0,0
2,46,122,61
2,38,100,0
2,38,0,119
2,46,0,0
2,44,115,1
2,36,100,0
2,44,122,0
2,36,111,0
2,36,0,59
2,44,0,0
2,44,0,0
2,36,0,60
2,44,119,1
2,44,0,59
2,36,85,1
2,36,0,59
2,44,122,1
2,36,120,0
2,36,0,59
2,44,0,0
2,46,122,61
2,38,100,0
2,38,0,119
2,46,0,0
2,44,115,1
2,36,100,0
2,44,122,0
2,36,111,0
2,36,0,59
2,44,0,0
2,44,0,0
2,36,0,60
2,44,119,1
2,44,0,59
2,36,85,1
2,36,0,59
2,44,122,1
2,36,120,0
2,36,0,59
2,44,0,0
2,46,122,61
2,38,100,0
2,38,0,119
2,46,0,0
2,44,115,1
2,36,100,0
2,44,122,0
2,36,111,0
2,36,0,59
2,44,0,0
2,44,0,0
2,36,0,60
2,44,119,1
2,44,0,59
2,36,85,1
2,36,0,59
2,44,122,1
2,36,120,0
2,36,0,59
2,44,0,0
2,46,122,61
2,38,100,0
2,38,0,119
2,46,0,0
2,44,115,1
2,36,100,0
2,44,122,0
2,36,111,0
2,36,0,59
2,44,0,0
2,44,0,0
2,36,0,60
2,44,119,1
2,44,0,59
2,36,85,1
2,36,0,59
2,44,122,1
2,36,120,0
2,36,0,59
2,44,0,0
2,46,122,61
2,38,100,0
2,38,0,119
2,46,0,0
2,44,115,1
2,36,100,0
2,44,122,0
2,36,111,0
2,36,0,59
2,44,0,0
2,44,0,0
2,36,0,60
2,44,119,1
2,44,0,59
2,36,85,1
2,36,0,59
2,44,122,1
2,36,120,0
2,36,0,59
2,44,0,0
2,46,122,61
2,38,100,0
2,38,0,119
2,46,0,0
2,44,115,1
2,36,100,0
2,44,122,0
2,36,111,0
2,36,0,59
2,44,0,0
2,44,0,0
2,36,0,60
2,44,119,1
2,44,0,59
2,36,85,1
2,36,0,59
2,44,122,1
2,36,120,0
2,36,0,59
2,44,0,0
2,46,122,61
2,38,100,0
2,38,0,119
2,46,0,0
2,44,115,1
2,36,100,0
2,44,122,0
2,36,111,0
2,36,0,59
2,44,0,0
2,44,0,0
2,36,0,60
2,44,119,1
2,44,0,59
2,36,85,1
2,36,0,59
2,44,122,1
2,36,120,0
2,36,0,59
2,44,0,0
2,46,122,61
2,38,100,0
2,38,0,119
2,46,0,0
2,44,115,1
2,36,100,0
2,44,122,0
2,36,111,0
2,36,0,59
2,44,0,0
2,44,0,0
2,36,0,60
2,44,119,1
2,44,0,59
2,36,85,1
2,36,0,59
2,44,122,1
2,36,120,0
2,36,0,59
2,44,0,0
2,46,122,61
2,38,100,0
2,38,0,119
2,46,0,0
2,44,115,1
2,36,100,0
2,44,122,0
2,36,111,0
2,36,0,59
2,44,0,0
2,44,0,0
2,36,0,60
2,44,119,1
2,44,0,59
2,36,85,1
2,36,0,59
2,44,122,1
2,36,120,0
2,36,0,59
2,44,0,0
2,46,122,61
2,38,100,0
2,38,0,119
2,46,0,0
2,44,115,1
2,36,100,0
2,44,122,0
2,36,111,0
2,36,0,59
2,44,0,0
2,44,0,0
2,36,0,60
2,44,119,1
2,44,0,59
2,36,85,1
2,36,0,59
2,44,122,1
2,36,120,0
2,36,0,59
2,44,0,0
2,46,122,61
2,38,100,0
2,38,0,119
2,46,0,0
2,44,115,1
2,36,100,0
2,44,122,0
2,36,111,0
2,36,0,59
2,44,0,0
2,44,0,0
2,36,0,60
2,44,119,1
2,44,0,59
2,36,85,1
2,36,0,59
2,44,122,1
2,36,120,0
2,36,0,59
2,44,0,0
2,46,122,61
2,38,100,0
2,38,0,119
2,46,0,0
2,44,115,1
2,36,100,0
2,44,122,0
2,36,111,0
2,36,0,59
2,44,0,0
2,44,0,0
2,36,0,60
2,44,119,1
2,44,0,59
2,36,85,1
2,36,0,59
2,44,122,1
2,36,120,0
2,36,0,59
2,44,0,0
2,46,122,61
2,38,100,0
2,38,0,119
2,46,0,0
2,44,115,1
2,36,100,0
2,44,122,0
2,36,111,0
2,36,0,59
2,44,0,0
2,44,0,0
2,36,0,60
2,44,119,1
2,44,0,59
2,36,85,1
2,36,0,59
2,44,122,1
2,36,120,0
2,36,0,59
2,44,0,0
2,46,122,61
2,38,100,0
2,38,0,119
2,46,0,0
2,44,115,1
2,36,100,0
2,44,122,0
2,36,111,0
2,36,0,59
2,44,0,0
2,44,0,0
2,36,0,60
2,44,119,1
2,44,0,59
2,36,85,1
2,36,0,59
2,44,122,1
2,36,120,0
2,36,0,59
2,44,0,0
2,46,122,61
2,38,100,0
2,38,0,119
2,46,0,0
2,44,115,1
2,36,100,0
2,44,122,0
2,36,111,0
2,36,0,59
2,44,0,0
2,44,0,0
2,36,0,60
2,44,119,1
2,44,0,59
2,36,85,1
2,36,0,59
2,44,122,1
2,36,120,0
2,36,0,59
2,44,0,0
2,46,122,61
2,38,100,0
2,38,0,119
2,46,0,0
2,44,115,1
2,36,100,0
2,44,122,0
2,36,111,0
2,36,0,59
2,44,0,0
2,44,0,0
2,36,0,60
2,44,119,1
2,44,0,59
2,36,85,1
2,36,0,59
2,44,122,1
2,36,120,0
2,36,0,59
2,44,0,0
2,46,122,61
2,38,100,0
2,38,0,119
2,46,0,0
2,44,115,1
2,36,100,0
2,44,122,0
2,36,111,0
2,36,0,59
2,44,0,0
2,44,0,0
2,36,0,60
2,44,119,1
2,44,0,59
2,36,85,1
2,36,0,59
2,44,122,1
2,36,120,0
2,36,0,59
2,44,0,0
2,46,122,61
2,38,100,0
2,38,0,119
2,46,0,0
2,44,115,1
2,36,100,0
2,44,122,0
2,36,111,0
2,36,0,59
2,44,0,0
2,44,0,0
2,36,0,60
2,44,119,1
2,44,0,59
2,36,85,1
2,36,0,59
2,44,122,1
2,36,120,0
2,36,0,59
2,44,0,0
2,46,122,61
2,38,100,0
2,38,0,119
2,46,0,0
2,44,115,1
2,36,100,0
2,44,122,0
2,36,111,0
2,36,0,59
2,44,0,0
2,44,0,0
2,36,0,60
2,44,119,1
2,44,0,59
2,36,85,1
2,36,0,59
2,44,122,1
2,36,120,0
2,36,0,59
2,44,0,0
2,46,122,61
2,38,100,0
2,38,0,119
2,46,0,0
2,44,115,1
2,36,100,0
2,44,122,0
2,36,111,0
2,36,0,59
2,44,0,0
2,44,0,0
2,36,0,60
2,44,119,1
2,44,0,59
2,36,85,1
2,36,0,59
2,44,122,1
2,36,120,0
2,36,0,59
2,44,0,0
2,46,122,61
2,38,100,0
2,38,0,119
2,46,0,0
2,44,115,1
2,36,100,0
2,44,122,0
2,36,111,0
2,36,0,59
2,44,0,0
2,44,0,0
2,36,0,60
2,44,119,1
2,44,0,59
2,36,85,1
2,36,0,59
2,44,122,1
2,36,120,0
2,36,0,59
2,44,0,0
2,46,122,61
2,38,100,0
2,38,0,119
2,46,0,0
2,44,115,1
2,36,100,0
2,44,122,0
2,36,111,0
2,36,0,59
2,44,0,0
2,44,0,0
2,36,0,60
2,44,119,1
2,44,0,59
2,36,85,1
2,36,0,59
