track,note,velocity,time
1,35,127,0
1,49,127,0
1,49,0,188
1,35,0,0
1,42,127,4
1,42,0,192
1,42,127,0
1,38,127,0
1,38,0,188
1,42,0,0
1,42,127,4
1,42,0,188
1,35,127,4
1,42,127,0
1,42,0,188
1,35,0,0
1,42,127,4
1,42,0,188
1,38,127,4
1,42,127,0
1,42,0,188
1,38,0,0
1,35,127,4
1,42,127,0
1,42,0,188
1,35,0,0
1,42,127,4
1,35,127,0
1,35,0,188
1,42,0,0
1,42,127,4
1,42,0,188
1,42,127,4
1,38,127,0
1,38,0,188
1,42,0,0
1,42,127,4
1,42,0,188
1,35,127,4
1,42,127,0
1,42,0,188
1,35,0,0
1,42,127,4
1,42,0,188
1,38,127,4
1,42,127,0
1,42,0,188
1,38,0,0
1,35,127,4
1,42,127,0
1,42,0,188
1,35,0,0
1,35,127,4
1,49,127,0
1,49,0,188
1,35,0,0
1,42,127,4
1,42,0,188
1,42,127,4
1,38,127,0
1,38,0,188
1,42,0,0
1,42,127,4
1,42,0,188
1,35,127,4
1,42,127,0
1,42,0,188
1,35,0,0
1,42,127,4
1,42,0,188
1,38,127,4
1,42,127,0
1,42,0,188
1,38,0,0
1,35,127,4
1,42,127,0
1,42,0,188
1,35,0,0
1,42,127,4
1,35,127,0
1,35,0,188
1,42,0,0
1,42,127,4
1,42,0,188
1,42,127,4
1,38,127,0
1,38,0,188
1,42,0,0
1,42,127,4
1,42,0,188
1,35,127,4
1,42,127,0
1,42,0,188
1,35,0,0
1,42,127,4
1,35,127,96
1,42,0,92
1,35,0,4
1,38,127,0
1,42,127,0
1,42,0,188
1,38,0,0
1,35,127,4
1,42,127,0
1,42,0,188
1,35,0,0
1,35,127,4
1,49,127,0
1,49,0,188
1,35,0,0
1,42,127,4
1,42,0,188
1,42,127,4
1,38,127,0
1,38,0,188
1,42,0,0
1,42,127,4
1,42,0,188
1,35,127,4
1,42,127,0
1,42,0,188
1,35,0,0
1,42,127,4
1,42,0,188
1,38,127,4
1,42,127,0
1,42,0,188
1,38,0,0
1,35,127,4
1,42,127,0
1,42,0,188
1,35,0,0
1,42,127,4
1,35,127,0
1,35,0,188
1,42,0,0
1,42,127,4
1,42,0,188
1,42,127,4
1,38,127,0
1,38,0,188
1,42,0,0
1,42,127,4
1,42,0,188
1,35,127,4
1,42,127,0
1,42,0,188
1,35,0,0
1,42,127,4
1,42,0,188
1,38,127,4
1,42,127,0
1,42,0,188
1,38,0,0
1,35,127,4
1,42,127,0
1,42,0,188
1,35,0,0
1,35,127,4
1,49,127,0
1,49,0,188
1,35,0,0
1,42,127,4
1,42,0,188
1,42,127,4
1,38,127,0
1,38,0,188
1,42,0,0
1,42,127,4
1,42,0,188
1,35,127,4
1,42,127,0
1,42,0,188
1,35,0,0
1,42,127,4
1,42,0,188
1,38,127,4
1,42,127,0
1,42,0,188
1,38,0,0
1,35,127,4
1,42,127,0
1,42,0,188
1,35,0,0
1,42,127,4
1,35,127,0
1,35,0,188
1,42,0,0
1,42,127,4
1,42,0,188
1,42,127,4
1,38,127,0
1,38,0,188
1,42,0,0
1,42,127,4
1,42,0,188
1,35,127,4
1,42,127,0
1,42,0,188
1,35,0,0
1,42,127,4
1,35,127,96
1,42,0,92
1,35,0,4
1,38,127,0
1,42,127,0
1,42,0,188
1,38,0,0
1,35,127,4
1,42,127,0
1,42,0,188
1,35,0,0
1,42,127,4
1,35,127,0
1,35,0,188
1,42,0,0
1,42,127,4
1,42,0,188
1,42,127,4
1,38,127,0
1,38,0,188
1,42,0,0
1,42,127,4
1,42,0,188
1,35,127,4
1,42,127,0
1,42,0,188
1,35,0,0
1,42,127,4
1,42,0,188
1,38,127,4
1,42,127,0
1,42,0,188
1,38,0,0
1,42,127,4
1,42,0,188
1,42,127,4
1,35,127,0
1,35,0,188
1,42,0,0
1,42,127,4
1,42,0,188
1,42,127,4
1,38,127,0
1,38,0,188
1,42,0,0
1,35,127,4
1,42,127,0
1,42,0,188
1,35,0,0
1,35,127,4
1,42,127,0
1,42,0,188
1,35,0,0
1,42,127,4
1,42,0,188
1,38,127,4
1,42,127,0
1,42,0,188
1,38,0,0
1,42,127,4
1,42,0,188
1,42,127,4
1,35,127,0
1,35,0,188
1,42,0,0
1,42,127,4
1,42,0,188
1,42,127,4
1,38,127,0
1,38,0,188
1,42,0,0
1,42,127,4
1,42,0,188
1,35,127,4
1,42,127,0
1,42,0,188
1,35,0,0
1,42,127,4
1,42,0,188
1,38,127,4
1,42,127,0
1,42,0,188
1,38,0,0
1,42,127,4
1,42,0,188
1,42,127,4
1,35,127,0
1,35,0,188
1,42,0,0
1,42,127,4
1,42,0,188
1,42,127,4
1,38,127,0
1,38,0,188
1,42,0,0
1,35,127,4
1,42,127,0
1,42,0,188
1,35,0,0
1,35,127,4
1,42,127,0
1,42,0,188
1,35,0,0
1,42,127,4
1,42,0,188
1,38,127,4
1,42,127,0
1,42,0,188
1,38,0,0
1,35,127,4
1,42,127,0
1,42,0,188
1,35,0,0
1,35,127,4
1,49,127,0
1,49,0,188
1,35,0,0
1,42,127,4
1,42,0,188
1,42,127,4
1,38,127,0
1,38,0,188
1,42,0,0
1,42,127,4
1,42,0,188
1,35,127,4
1,42,127,0
1,42,0,188
1,35,0,0
1,42,127,4
1,42,0,188
1,38,127,4
1,42,127,0
1,42,0,188
1,38,0,0
1,42,127,4
1,42,0,188
1,42,127,4
1,35,127,0
1,35,0,188
1,42,0,0
1,42,127,4
1,42,0,188
1,42,127,4
1,38,127,0
1,38,0,188
1,42,0,0
1,35,127,4
1,42,127,0
1,42,0,188
1,35,0,0
1,35,127,4
1,42,127,0
1,42,0,188
1,35,0,0
1,42,127,4
1,42,0,188
1,38,127,4
1,42,127,0
1,42,0,188
1,38,0,0
1,42,127,4
1,42,0,188
1,35,127,4
1,49,127,0
1,49,0,188
1,35,0,0
1,42,127,4
1,42,0,188
1,42,127,4
1,38,127,0
1,38,0,188
1,42,0,0
1,42,127,4
1,42,0,188
1,35,127,4
1,42,127,0
1,42,0,188
1,35,0,0
1,42,127,4
1,42,0,188
1,38,127,4
1,42,127,0
1,42,0,188
1,38,0,0
1,42,127,4
1,42,0,188
1,42,127,4
1,35,127,0
1,35,0,188
1,42,0,0
1,42,127,4
1,42,0,188
1,42,127,4
1,38,127,0
1,38,0,188
1,42,0,0
1,35,127,4
1,42,127,0
1,42,0,188
1,35,0,0
1,35,127,4
1,42,127,0
1,42,0,188
1,35,0,0
1,42,127,4
1,35,127,96
1,42,0,92
1,35,0,4
1,38,127,0
1,42,127,0
1,42,0,188
1,38,0,0
1,35,127,4
1,42,127,0
1,42,0,188
1,35,0,4
1,35,127,0
1,49,127,0
1,49,0,188
1,35,0,0
1,42,127,4
1,42,0,188
1,42,127,4
1,38,127,0
1,38,0,188
1,42,0,0
1,35,127,4
1,42,127,0
1,42,0,188
1,35,0,0
1,35,127,4
1,42,127,0
1,42,0,188
1,35,0,0
1,42,127,4
1,42,0,188
1,38,127,4
1,42,127,0
1,42,0,188
1,38,0,0
1,42,127,4
1,42,0,188
1,49,127,4
1,35,127,0
1,35,0,188
1,49,0,0
1,42,127,4
1,42,0,188
1,42,127,4
1,38,127,0
1,38,0,188
1,42,0,0
1,35,127,4
1,42,127,0
1,42,0,188
1,35,0,0
1,35,127,4
1,42,127,0
1,42,0,188
1,35,0,0
1,42,127,4
1,42,0,188
1,38,127,4
1,42,127,0
1,42,0,188
1,38,0,0
1,42,127,4
1,42,0,188
1,35,127,4
1,49,127,0
1,49,0,188
1,35,0,0
1,42,127,4
1,42,0,188
1,42,127,4
1,38,127,0
1,38,0,188
1,42,0,0
1,35,127,4
1,42,127,0
1,42,0,188
1,35,0,0
1,35,127,4
1,42,127,0
1,42,0,188
1,35,0,0
1,42,127,4
1,42,0,188
1,38,127,4
1,42,127,0
1,42,0,188
1,38,0,0
1,42,127,4
1,42,0,188
1,49,127,4
1,35,127,0
1,35,0,188
1,49,0,0
1,42,127,4
1,42,0,188
1,42,127,4
1,38,127,0
1,38,0,188
1,42,0,0
1,35,127,4
1,42,127,0
1,42,0,188
1,35,0,0
1,35,127,4
1,42,127,0
1,42,0,188
1,35,0,0
1,38,127,4
1,42,127,0
1,42,0,188
1,38,0,0
1,38,127,4
1,42,127,0
1,38,0,96
1,38,127,0
1,42,0,92
1,38,0,4
1,42,127,0
1,38,127,96
1,42,0,92
1,38,0,4
1,35,127,0
1,49,127,0
1,49,0,188
1,35,0,0
1,42,127,4
1,42,0,188
1,42,127,4
1,38,127,0
1,38,0,188
1,42,0,0
1,35,127,4
1,42,127,0
1,42,0,188
1,35,0,0
1,35,127,4
1,42,127,0
1,42,0,188
1,35,0,0
1,42,127,4
1,42,0,188
1,45,127,4
1,55,127,0
1,38,127,0
1,42,127,0
1,42,0,188
1,45,0,0
1,55,0,0
1,38,0,0
1,42,127,4
1,42,0,188
1,42,127,4
1,35,127,0
1,35,0,188
1,42,0,0
1,42,127,4
1,42,0,188
1,42,127,4
1,38,127,0
1,38,0,188
1,42,0,0
1,35,127,4
1,42,127,0
1,42,0,188
1,35,0,0
1,35,127,4
1,42,127,0
1,42,0,188
1,35,0,0
1,42,127,4
1,42,0,188
1,45,127,4
1,55,127,0
1,38,127,0
1,42,127,0
1,42,0,188
1,45,0,0
1,55,0,0
1,38,0,0
1,42,127,4
1,42,0,188
1,35,127,4
1,49,127,0
1,49,0,188
1,35,0,0
1,42,127,4
1,42,0,188
1,42,127,4
1,38,127,0
1,38,0,188
1,42,0,0
1,35,127,4
1,42,127,0
1,42,0,188
1,35,0,0
1,35,127,4
1,42,127,0
1,42,0,188
1,35,0,0
1,42,127,4
1,42,0,188
1,45,127,4
1,55,127,0
1,38,127,0
1,42,127,0
1,42,0,188
1,45,0,0
1,55,0,0
1,38,0,0
1,42,127,4
1,42,0,188
1,42,127,4
1,35,127,0
1,35,0,188
1,42,0,0
1,42,127,4
1,42,0,188
1,42,127,4
1,38,127,0
1,38,0,188
1,42,0,0
1,35,127,4
1,42,127,0
1,42,0,188
1,35,0,0
1,35,127,4
1,42,127,0
1,42,0,188
1,35,0,0
1,42,127,4
1,42,0,188
1,45,127,4
1,55,127,0
1,38,127,0
1,42,127,0
1,42,0,188
1,45,0,0
1,55,0,0
1,38,0,0
1,42,127,4
1,42,0,188
1,35,127,4
1,49,127,0
1,49,0,188
1,35,0,0
1,42,127,4
1,42,0,188
1,42,127,4
1,38,127,0
1,38,0,188
1,42,0,0
1,35,127,4
1,42,127,0
1,42,0,188
1,35,0,0
1,35,127,4
1,42,127,0
1,42,0,188
1,35,0,0
1,42,127,4
1,42,0,188
1,45,127,4
1,55,127,0
1,38,127,0
1,42,127,0
1,42,0,188
1,45,0,0
1,55,0,0
1,38,0,0
1,42,127,4
1,42,0,188
1,42,127,4
1,35,127,0
1,35,0,188
1,42,0,0
1,42,127,4
1,42,0,188
1,42,127,4
1,38,127,0
1,38,0,188
1,42,0,0
1,35,127,4
1,42,127,0
1,42,0,188
1,35,0,0
1,35,127,4
1,42,127,0
1,42,0,188
1,35,0,0
1,38,127,4
1,42,127,0
1,42,0,188
1,38,0,4
1,38,127,0
1,42,127,0
1,42,0,188
1,38,0,0
1,35,127,4
1,42,127,0
1,42,0,188
1,35,0,4
1,57,127,0
1,42,127,0
1,35,127,0
1,35,0,188
1,42,0,0
1,57,0,0
1,42,127,4
1,38,127,0
1,38,0,188
1,42,0,0
1,38,127,4
1,38,0,96
1,38,127,0
1,38,0,96
1,45,127,0
1,45,0,96
1,38,127,0
1,38,0,96
1,49,127,0
1,35,127,0
1,35,0,192
1,49,0,0
1,42,127,0
1,42,0,192
1,55,127,0
1,38,127,0
1,38,0,192
1,55,0,0
1,42,127,0
1,35,127,0
1,35,0,192
1,42,0,0
1,42,127,0
1,35,127,0
1,35,0,192
1,42,0,0
1,42,127,0
1,42,0,192
1,55,127,0
1,38,127,0
1,38,0,192
1,55,0,0
1,42,127,0
1,42,0,192
1,57,127,0
1,35,127,0
1,35,0,192
1,57,0,0
1,42,127,0
1,42,0,192
1,55,127,0
1,38,127,0
1,38,0,192
1,55,0,0
1,42,127,0
1,35,127,0
1,35,0,192
1,42,0,0
1,42,127,0
1,35,127,0
1,35,0,192
1,42,0,0
1,42,127,0
1,42,0,192
1,55,127,0
1,38,127,0
1,38,0,192
1,55,0,0
1,42,127,0
1,42,0,192
1,57,127,0
1,35,127,0
1,35,0,192
1,57,0,0
1,42,127,0
1,42,0,192
1,55,127,0
1,38,127,0
1,38,0,192
1,55,0,0
1,42,127,0
1,35,127,0
1,35,0,192
1,42,0,0
1,42,127,0
1,35,127,0
1,35,0,192
1,42,0,0
1,42,127,0
1,42,0,192
1,55,127,0
1,38,127,0
1,38,0,192
1,55,0,0
1,42,127,0
1,42,0,192
1,57,127,0
1,35,127,0
1,35,0,192
1,57,0,0
1,42,127,0
1,42,0,192
1,55,127,0
1,38,127,0
1,38,0,192
1,55,0,0
1,42,127,0
1,35,127,0
1,35,0,192
1,42,0,0
1,42,127,0
1,35,127,0
1,35,0,192
1,42,0,0
1,42,127,0
1,42,0,192
1,55,127,0
1,38,127,0
1,38,0,192
1,55,0,0
1,42,127,0
1,42,0,192
1,57,127,0
1,35,127,0
1,35,0,192
1,57,0,0
1,42,127,0
1,42,0,192
1,55,127,0
1,38,127,0
1,38,0,192
1,55,0,0
1,42,127,0
1,35,127,0
1,35,0,192
1,42,0,0
1,42,127,0
1,35,127,0
1,35,0,192
1,42,0,0
1,42,127,0
1,42,0,192
1,55,127,0
1,38,127,0
1,38,0,192
1,55,0,0
1,42,127,0
1,42,0,192
1,57,127,0
1,35,127,0
1,35,0,192
1,57,0,0
1,42,127,0
1,42,0,192
1,55,127,0
1,38,127,0
1,38,0,192
1,55,0,0
1,42,127,0
1,35,127,0
1,35,0,192
1,42,0,0
1,42,127,0
1,35,127,0
1,35,0,192
1,42,0,0
1,42,127,0
1,42,0,192
1,55,127,0
1,38,127,0
1,38,0,192
1,55,0,0
1,42,127,0
1,42,0,192
1,57,127,0
1,35,127,0
1,35,0,192
1,57,0,0
1,42,127,0
1,42,0,192
1,55,127,0
1,38,127,0
1,38,0,192
1,55,0,0
1,42,127,0
1,35,127,0
1,35,0,192
1,42,0,0
1,42,127,0
1,35,127,0
1,35,0,192
1,42,0,0
1,42,127,0
1,42,0,192
1,55,127,0
1,38,127,0
1,38,0,192
1,55,0,0
1,42,127,0
1,42,0,192
1,57,127,0
1,35,127,0
1,35,0,192
1,57,0,0
1,42,127,0
1,42,0,192
1,55,127,0
1,38,127,0
1,38,0,192
1,55,0,0
1,42,127,0
1,35,127,0
1,35,0,192
1,42,0,0
1,42,127,0
1,35,127,0
1,35,0,192
1,42,0,0
1,42,127,0
1,35,127,96
1,35,0,96
1,42,0,0
1,55,127,0
1,38,127,0
1,38,0,192
1,55,0,0
1,35,127,0
1,42,127,0
1,42,0,192
1,35,0,0
1,57,127,0
1,35,127,0
1,35,0,192
1,57,0,0
1,42,127,0
1,42,0,192
1,38,127,0
1,38,0,192
1,55,127,0
1,42,127,0
1,35,127,0
1,35,0,192
1,42,0,0
1,55,0,0
1,45,90,192
1,45,0,192
1,45,100,0
1,45,0,192
1,45,110,0
1,45,0,192
1,42,127,0
1,35,127,0
1,35,0,188
1,42,0,0
1,42,127,4
1,42,0,188
1,42,127,4
1,38,127,0
1,38,0,188
1,42,0,0
1,42,127,4
1,42,0,188
1,35,127,4
1,42,127,0
1,42,0,188
1,35,0,0
1,42,127,4
1,42,0,188
1,38,127,4
1,42,127,0
1,42,0,188
1,38,0,0
1,42,127,4
1,42,0,188
1,42,127,4
1,35,127,0
1,35,0,188
1,42,0,0
1,42,127,4
1,42,0,188
1,42,127,4
1,38,127,0
1,38,0,188
1,42,0,0
1,35,127,4
1,42,127,0
1,42,0,188
1,35,0,0
1,35,127,4
1,42,127,0
1,42,0,188
1,35,0,0
