track,note,velocity,time
0,74,99,84
0,62,98,0
0,57,98,0
0,74,103,0
0,62,98,0
0,57,102,0
0,74,97,0
0,62,102,0
0,57,101,0
0,74,97,0
0,62,100,0
0,57,95,0
0,38,122,95
0,38,120,0
0,74,100,0
0,62,94,0
0,57,97,0
0,40,95,0
0,50,95,0
0,74,103,0
0,47,65,0
0,62,94,0
0,43,61,0
0,57,100,0
0,38,116,69
0,38,119,0
0,45,96,0
0,74,101,0
0,61,84,0
0,64,88,0
0,69,84,0
0,71,125,0
0,47,68,0
0,62,94,0
0,40,90,0
0,57,94,0
0,40,95,0
0,50,91,0
0,74,95,0
0,59,79,0
0,64,85,0
0,68,79,0
0,69,127,0
0,47,64,0
0,62,102,0
0,43,64,0
0,57,94,0
0,38,100,0
0,35,114,0
0,42,89,0
0,49,86,0
0,57,102,0
0,66,99,0
0,62,96,0
0,62,98,0
0,57,81,0
0,62,85,0
0,66,86,0
0,69,96,0
0,42,67,0
0,38,102,0
0,62,99,0
0,38,95,0
0,38,121,0
0,42,90,0
0,57,85,0
0,71,101,0
0,38,97,0
0,35,68,0
0,42,66,0
0,69,101,0
0,38,98,0
0,35,115,0
0,42,92,0
0,62,101,0
0,69,95,0
0,62,98,0
0,42,64,0
0,38,102,0
0,57,88,0
0,62,80,0
0,66,79,0
0,38,101,0
0,38,114,0
0,42,89,0
0,71,102,0
0,59,88,0
0,62,88,0
0,67,83,0
0,57,83,0
0,62,87,0
0,66,85,0
0,42,67,0
0,38,101,0
0,69,102,0
0,38,98,0
0,35,115,0
0,42,94,0
0,62,97,0
0,69,97,0
0,42,68,0
0,38,101,0
0,62,102,0
0,38,101,0
0,38,119,0
0,42,92,0
0,71,96,0
0,38,96,0
0,35,67,0
0,42,69,0
0,69,95,0
0,38,98,0
0,35,116,0
0,42,96,0
0,49,90,0
0,59,98,0
0,67,99,0
0,62,103,0
0,62,95,0
0,59,79,0
0,62,88,0
0,67,88,0
0,69,96,0
0,42,69,0
0,38,97,0
0,62,102,0
0,38,100,0
0,38,114,0
0,42,89,0
0,57,91,0
0,66,96,0
0,62,103,0
0,69,97,0
0,71,103,0
0,57,85,0
0,62,83,0
0,66,84,0
0,38,97,0
0,46,91,0
0,69,98,0
0,40,100,0
0,35,123,0
0,42,91,0
0,64,95,0
0,59,101,0
0,68,98,0
0,64,95,0
0,59,84,0
0,64,81,0
0,68,79,0
0,68,96,0
0,42,63,0
0,40,96,0
0,64,100,0
0,40,102,0
0,38,118,0
0,42,93,0
0,49,87,0
0,69,103,0
0,40,102,0
0,35,62,0
0,42,72,0
0,68,94,0
0,40,95,0
0,35,120,0
0,42,90,0
0,64,99,0
0,68,102,0
0,64,97,0
0,42,67,0
0,40,97,0
0,59,87,0
0,64,85,0
0,68,87,0
0,40,100,0
0,38,114,0
0,42,93,0
0,69,98,0
0,61,79,0
0,64,88,0
0,69,80,0
0,59,80,0
0,64,82,0
0,68,84,0
0,42,72,0
0,40,95,0
0,68,95,0
0,40,99,0
0,35,119,0
0,42,93,0
0,64,97,0
0,68,98,0
0,64,102,0
0,42,71,0
0,40,102,0
0,40,97,0
0,38,122,0
0,42,89,0
0,69,101,0
0,40,103,0
0,35,65,0
0,42,70,0
0,68,102,0
0,40,96,0
0,35,115,0
0,42,88,0
0,49,83,0
0,64,101,0
0,61,87,0
0,64,87,0
0,69,88,0
0,71,124,0
0,68,99,0
0,42,65,0
0,40,101,0
0,64,98,0
0,40,100,0
0,38,114,0
0,42,93,0
0,57,87,0
0,69,99,0
0,59,83,0
0,64,87,0
0,68,81,0
0,69,127,0
0,33,98,12
0,35,96,0
0,46,92,0
0,68,98,0
0,66,121,0
0,38,94,0
0,35,116,0
0,42,92,0
0,66,94,0
0,69,96,0
0,62,95,0
0,62,103,0
0,57,85,0
0,62,87,0
0,66,86,0
0,69,95,0
0,42,64,0
0,38,95,0
0,62,99,0
0,38,100,0
0,38,120,0
0,42,89,0
0,49,83,0
0,71,96,0
0,38,94,0
0,35,62,0
0,42,63,0
0,69,94,0
0,38,103,0
0,35,119,0
0,42,93,0
0,62,100,0
0,69,97,0
0,57,79,0
0,62,86,0
0,66,85,0
0,42,72,0
0,38,97,0
0,62,96,0
0,66,120,0
0,38,96,0
0,38,117,0
0,42,89,0
0,71,99,0
0,59,81,0
0,62,88,0
0,67,84,0
0,69,125,0
0,69,121,12
0,69,127,0
0,42,69,0
0,38,94,0
0,69,95,0
0,57,84,0
0,62,79,0
0,66,88,0
0,38,101,0
0,35,123,0
0,42,89,0
0,62,102,0
0,71,125,0
0,69,100,0
0,69,122,0
0,42,70,0
0,38,100,0
0,62,101,0
0,38,96,0
0,38,123,0
0,42,90,0
0,71,94,0
0,38,101,0
0,35,68,0
0,42,68,0
0,69,103,0
0,38,103,0
0,35,118,0
0,42,95,0
0,49,84,0
0,62,95,0
0,59,82,0
0,62,82,0
0,67,86,0
0,69,96,0
0,42,70,0
0,38,102,0
0,62,101,0
0,38,100,0
0,38,122,0
0,42,96,0
0,57,86,0
0,71,99,0
0,57,85,0
0,62,81,0
0,66,82,0
0,38,102,0
0,46,91,0
0,69,102,0
0,40,94,0
0,35,120,0
0,42,88,0
0,68,96,0
0,64,99,0
0,71,100,0
0,64,102,0
0,59,87,0
0,64,81,0
0,68,83,0
0,68,95,0
0,42,70,0
0,40,98,0
0,64,94,0
0,40,95,0
0,38,121,0
0,42,96,0
0,49,88,0
0,69,96,0
0,40,103,0
0,35,63,0
0,42,63,0
0,68,99,0
0,40,96,0
0,35,123,0
0,42,90,0
0,64,103,0
0,68,98,0
0,59,85,0
0,64,87,0
0,68,87,0
0,42,72,0
0,40,94,0
0,64,103,0
0,40,99,0
0,38,118,0
0,42,96,0
0,69,103,0
0,61,86,0
0,64,86,0
0,69,81,0
0,71,102,0
0,59,79,0
0,64,81,0
0,68,85,0
0,42,72,0
0,40,102,0
0,73,100,0
0,68,97,0
0,40,98,0
0,35,116,0
0,42,96,0
0,76,97,0
0,71,102,0
0,68,94,0
0,64,101,0
0,64,96,0
0,68,101,0
0,42,67,0
0,40,102,0
0,64,100,0
0,40,94,0
0,38,114,0
0,42,92,0
0,57,86,0
0,69,96,0
0,38,89,12
0,38,98,0
0,46,97,0
0,40,96,0
0,68,99,0
0,40,102,0
0,35,118,0
0,42,90,0
0,64,103,0
0,38,94,0
0,68,97,0
0,64,94,0
0,37,98,0
0,38,118,0
0,64,102,0
0,69,96,0
0,76,99,7
0,38,90,0
0,74,92,3
0,72,87,0
0,71,83,4
0,69,79,1
0,67,75,3
0,65,70,1
0,38,89,6
0,35,102,0
0,64,65,3
0,62,60,3
0,60,54,6
0,59,48,9
0,45,56,0
0,35,117,0
0,42,94,0
0,49,91,0
0,33,95,0
0,45,54,0
0,42,68,0
0,33,102,0
0,52,83,0
0,57,83,0
0,61,122,0
0,33,95,0
0,38,115,0
0,42,92,0
0,45,56,0
0,59,127,0
0,35,67,0
0,42,72,0
0,33,98,0
0,52,87,0
0,57,88,0
0,33,103,12
0,35,118,0
0,42,91,0
0,45,55,0
0,57,119,0
0,57,87,0
0,45,57,0
0,52,81,0
0,42,65,0
0,33,98,0
0,33,95,12
0,38,121,0
0,42,88,0
0,57,85,0
0,54,124,0
0,52,80,18
0,57,88,0
0,42,70,0
0,33,96,0
0,33,102,12
0,35,123,0
0,42,97,0
0,45,61,0
0,57,123,0
0,57,79,12
0,52,84,18
0,57,80,0
0,42,68,0
0,33,95,0
0,57,119,0
0,33,96,12
0,38,123,0
0,42,94,0
0,52,82,0
0,57,82,0
0,45,57,12
0,60,119,64
0,35,64,0
0,42,66,0
0,33,99,0
0,45,56,0
0,33,95,0
0,35,119,0
0,42,97,0
0,54,79,0
0,57,87,0
0,62,80,0
0,61,127,0
0,57,127,0
0,42,71,0
0,33,95,0
0,33,100,0
0,38,116,0
0,42,96,0
0,54,81,0
0,57,83,0
0,62,85,0
0,42,71,8
0,46,96,112
0,33,100,0
0,33,103,12
0,35,123,0
0,42,92,0
0,45,56,0
0,45,58,12
0,52,85,104
0,57,82,0
0,42,63,0
0,33,102,0
0,61,127,0
0,33,95,0
0,38,120,0
0,42,88,0
0,45,59,0
0,59,121,0
0,35,66,64
0,42,67,0
0,33,96,0
0,52,87,0
0,57,82,0
0,33,97,12
0,35,122,0
0,42,88,0
0,45,56,0
0,57,122,0
0,57,81,12
0,45,57,18
0,52,79,0
0,46,95,0
0,33,101,0
0,57,119,0
0,33,98,0
0,38,121,0
0,42,95,0
0,57,82,0
0,57,127,0
0,52,87,18
0,57,79,0
0,42,64,0
0,33,98,0
0,33,99,12
0,35,120,0
0,42,90,0
0,45,55,0
0,57,127,0
0,57,79,0
0,52,84,18
0,57,79,0
0,42,64,0
0,33,99,0
0,57,125,0
0,33,100,0
0,38,118,0
0,42,91,0
0,52,84,0
0,57,88,0
0,54,120,0
0,42,63,12
0,45,57,0
0,57,119,0
0,35,70,0
0,42,65,0
0,33,94,0
0,45,63,0
0,35,116,8
0,42,96,0
0,33,96,0
0,54,84,0
0,57,87,0
0,62,82,0
0,42,70,0
0,33,96,0
0,52,125,0
0,28,96,0
0,38,122,0
0,42,96,0
0,54,81,0
0,57,87,0
0,62,81,0
0,54,121,0
0,42,63,0
0,30,98,0
0,32,99,12
0,46,92,0
0,33,94,12
0,35,121,0
0,42,93,0
0,45,58,0
0,45,59,12
0,52,88,104
0,57,81,0
0,42,65,0
0,33,96,0
0,61,127,0
0,33,96,0
0,38,119,0
0,42,89,0
0,45,60,0
0,59,121,0
0,57,120,64
0,35,66,0
0,42,66,0
0,33,103,0
0,52,87,0
0,57,87,0
0,33,101,12
0,35,119,0
0,42,96,0
0,45,63,0
0,57,126,0
0,57,84,12
0,45,57,0
0,52,79,0
0,42,71,0
0,33,100,0
0,54,125,0
0,33,102,0
0,38,114,0
0,42,96,0
0,57,86,0
0,57,127,0
0,52,79,0
0,57,88,0
0,42,71,0
0,33,95,0
0,54,127,0
0,33,103,0
0,35,119,0
0,42,95,0
0,45,58,0
0,57,122,0
0,57,83,12
0,52,79,18
0,57,82,0
0,42,65,0
0,33,99,0
0,57,124,0
0,33,99,12
0,38,117,0
0,42,88,0
0,52,84,0
0,57,83,0
0,42,66,0
0,45,61,0
0,45,61,104
0,35,66,0
0,42,68,0
0,33,97,0
0,60,122,0
0,33,98,0
0,35,116,0
0,42,91,0
0,54,86,0
0,57,81,0
0,62,81,0
0,61,127,0
0,54,127,0
0,42,70,0
0,33,100,0
0,33,97,0
0,38,120,0
0,42,96,0
0,54,87,0
0,57,82,0
0,62,86,0
0,42,71,8
0,30,96,0
0,54,119,0
0,28,99,12
0,42,65,0
0,54,121,0
0,33,103,0
0,35,122,0
0,42,93,0
0,45,61,0
0,61,125,0
0,45,61,8
0,61,123,64
0,42,68,0
0,33,101,0
0,52,88,0
0,57,88,0
0,33,95,0
0,38,119,0
0,42,97,0
0,69,95,0
0,45,62,0
0,61,125,0
0,61,119,64
0,35,66,0
0,42,71,0
0,33,95,0
0,52,88,0
0,57,84,0
0,33,95,12
0,35,115,0
0,42,88,0
0,45,54,0
0,57,80,12
0,45,61,18
0,52,81,0
0,42,72,0
0,33,103,0
0,54,125,0
0,33,101,0
0,38,114,0
0,42,94,0
0,57,80,0
0,57,119,0
0,52,80,0
0,57,81,0
0,42,63,0
0,33,101,0
0,54,121,0
0,33,99,0
0,35,117,0
0,42,88,0
0,45,61,0
0,61,121,0
0,57,86,8
0,52,81,0
0,57,88,0
0,42,63,0
0,28,101,0
0,59,126,0
0,30,103,0
0,38,119,0
0,42,92,0
0,52,86,0
0,57,79,0
0,57,121,0
0,45,60,18
0,33,98,12
0,42,69,0
0,45,61,0
0,57,120,0
0,33,97,12
0,35,117,0
0,54,82,0
0,57,86,0
0,62,86,0
0,49,62,8
0,35,96,0
0,38,89,0
0,54,119,0
0,33,101,0
0,38,122,0
0,57,86,0
0,54,86,0
0,57,80,0
0,62,80,0
0,57,119,0
0,38,94,0
0,54,121,0
0,47,65,0
0,59,120,0
0,42,97,0
0,49,84,0
0,38,100,0
0,62,98,0
0,66,101,0
0,69,94,0
0,62,103,0
0,57,80,0
0,62,84,0
0,66,87,0
0,69,103,0
0,35,64,0
0,42,67,0
0,38,98,0
0,62,101,0
0,38,101,0
0,38,114,0
0,42,89,0
0,57,85,0
0,71,96,0
0,57,126,0
0,35,68,0
0,42,66,0
0,38,99,0
0,69,98,0
0,38,96,0
0,35,117,0
0,42,93,0
0,62,99,0
0,54,127,0
0,69,95,0
0,57,86,0
0,62,81,0
0,66,82,0
0,42,68,0
0,38,96,0
0,62,100,0
0,38,95,0
0,38,115,0
0,42,88,0
0,71,96,0
0,59,80,0
0,62,81,0
0,67,82,0
0,57,87,0
0,62,83,0
0,66,83,0
0,42,71,0
0,38,95,0
0,69,94,0
0,38,102,0
0,35,122,0
0,42,95,0
0,62,94,0
0,69,103,0
0,42,64,0
0,38,99,0
0,62,96,0
0,38,94,0
0,38,118,0
0,42,95,0
0,71,97,0
0,38,95,0
0,35,70,0
0,42,63,0
0,69,103,0
0,59,80,0
0,62,83,0
0,67,82,0
0,35,117,0
0,42,93,0
0,49,84,0
0,38,103,0
0,62,103,0
0,67,102,0
0,59,100,0
0,62,98,0
0,69,98,0
0,42,64,0
0,38,96,0
0,62,99,0
0,42,102,0
0,38,117,0
0,42,93,0
0,57,83,0
0,62,99,0
0,69,97,0
0,66,99,0
0,71,100,0
0,57,82,0
0,62,84,0
0,66,81,0
0,45,102,12
0,47,103,0
0,46,92,0
0,69,101,0
0,40,101,0
0,35,119,0
0,42,90,0
0,59,100,0
0,64,97,0
0,68,103,0
0,64,94,0
0,59,83,0
0,64,88,0
0,68,84,0
0,61,119,0
0,68,100,0
0,42,68,0
0,40,94,0
0,64,96,0
0,40,94,0
0,38,119,0
0,42,88,0
0,49,89,0
0,69,96,0
0,57,124,0
0,35,67,0
0,42,63,0
0,40,103,0
0,68,97,0
0,40,101,0
0,35,118,0
0,42,96,0
0,64,100,0
0,59,126,0
0,68,99,0
0,64,103,0
0,42,65,0
0,40,96,0
0,59,80,0
0,64,82,0
0,68,82,0
0,61,127,0
0,38,122,0
0,42,88,0
0,40,101,0
0,69,101,0
0,61,88,0
0,64,86,0
0,69,85,0
0,59,83,0
0,64,80,0
0,68,82,0
0,42,67,0
0,40,94,0
0,68,102,0
0,40,99,0
0,35,116,0
0,42,93,0
0,64,97,0
0,68,95,0
0,64,97,0
0,42,70,0
0,40,100,0
0,40,103,0
0,38,118,0
0,42,92,0
0,69,103,0
0,40,99,0
0,35,68,0
0,42,68,0
0,68,103,0
0,40,97,0
0,35,121,0
0,42,97,0
0,49,84,0
0,64,99,0
0,61,85,0
0,64,85,0
0,69,82,0
0,64,124,0
0,68,98,0
0,42,65,0
0,40,98,0
0,64,96,0
0,61,127,0
0,38,114,0
0,42,92,0
0,57,86,0
0,40,102,0
0,69,103,0
0,59,83,0
0,64,87,0
0,68,85,0
0,33,97,12
0,59,125,0
0,35,100,0
0,46,93,0
0,68,98,0
0,38,97,0
0,35,116,0
0,42,93,0
0,62,100,0
0,69,97,0
0,66,94,0
0,62,100,0
0,57,84,0
0,62,82,0
0,66,81,0
0,59,126,0
0,69,95,0
0,42,69,0
0,38,100,0
0,62,102,0
0,38,95,0
0,38,118,0
0,42,97,0
0,49,82,0
0,71,94,0
0,61,126,12
0,35,66,0
0,42,65,0
0,38,98,0
0,69,102,0
0,59,121,9
0,38,95,0
0,35,119,0
0,42,89,0
0,62,94,0
0,57,119,0
0,69,102,0
0,62,94,0
0,42,67,0
0,38,103,0
0,57,88,0
0,62,82,0
0,66,80,0
0,38,101,0
0,38,115,0
0,42,96,0
0,71,102,0
0,59,82,0
0,62,80,0
0,67,80,0
0,57,79,0
0,62,86,0
0,66,87,0
0,42,63,0
0,38,95,0
0,69,95,0
0,38,98,0
0,35,122,0
0,42,89,0
0,62,102,0
