track,note,velocity,time
3,75,64,750
3,75,0,23
3,77,64,1
3,77,0,359
3,78,64,193
3,78,0,47
3,80,64,1
3,80,0,47
3,78,64,1
3,78,0,47
3,77,64,1
3,77,0,47
3,75,64,1
3,75,0,383
3,75,64,193
3,75,0,47
3,80,64,1
3,80,0,47
3,80,64,1
3,80,0,47
3,73,64,1
3,73,0,47
3,73,64,1
3,73,0,383
3,73,64,193
3,73,0,47
3,75,64,1
3,75,0,47
3,77,64,1
3,77,0,47
3,73,64,1
3,73,0,47
3,75,64,1
3,75,0,575
3,65,64,385
3,65,0,47
3,66,64,1
3,66,0,47
3,65,64,1
3,65,0,47
3,63,64,1
3,63,0,47
3,63,64,1
3,63,0,7
3,65,64,9
3,65,0,7
3,63,64,9
3,63,0,15
3,61,64,1
3,61,0,335
3,63,64,193
3,63,0,143
3,61,64,1
3,61,0,47
3,60,64,1
3,60,0,11
3,58,64,13
3,58,0,11
3,56,64,13
3,56,0,143
3,58,64,193
3,58,0,287
3,60,64,1
3,60,0,95
3,61,64,1
3,61,0,191
3,65,64,1
3,65,0,47
3,63,64,1
3,63,0,47
3,61,64,1
3,61,0,95
3,63,64,1
3,63,0,383
3,65,64,193
3,65,0,143
3,66,64,1
3,66,0,47
3,65,64,1
3,65,0,11
3,63,64,13
3,63,0,11
3,61,64,13
3,61,0,335
3,63,64,193
3,63,0,143
3,61,64,1
3,61,0,47
3,60,64,1
3,60,0,11
3,58,64,13
3,58,0,11
3,56,64,13
3,56,0,335
3,56,64,241
3,56,0,47
3,56,64,1
3,56,0,47
3,56,64,1
3,56,0,47
3,58,64,1
3,58,0,191
3,60,64,1
3,60,0,191
3,61,64,1
3,61,0,191
3,66,64,1
3,66,0,191
3,65,64,1
3,65,0,11
3,63,64,13
3,63,0,11
3,61,64,13
3,61,0,239
3,63,64,1
3,63,0,95
3,63,64,1
3,63,0,191
3,65,64,97
3,65,0,7
3,66,64,1
3,66,0,191
3,66,64,1
3,66,0,95
3,66,64,49
3,66,0,47
3,66,64,1
3,66,0,95
3,70,64,1
3,70,0,95
3,68,64,1
3,68,0,95
3,65,64,1
3,65,0,95
3,63,64,1
3,63,0,575
3,63,64,49
3,63,0,47
3,65,64,1
3,65,0,95
3,66,64,1
3,66,0,191
3,66,64,1
3,66,0,95
3,66,64,49
3,66,0,47
3,66,64,1
3,66,0,95
3,70,64,1
3,70,0,95
3,68,64,1
3,68,0,95
3,65,64,1
3,65,0,95
3,63,64,1
3,63,0,383
3,56,64,145
3,56,0,47
3,65,64,1
3,65,0,95
3,66,64,1
3,66,0,95
3,65,64,1
3,65,0,11
3,63,64,13
3,63,0,11
3,61,64,13
3,61,0,335
3,66,64,193
3,66,0,47
3,68,64,1
3,68,0,47
3,66,64,1
3,66,0,47
3,65,64,1
3,65,0,47
3,63,64,1
3,63,0,383
3,56,64,145
3,56,0,47
3,65,64,1
3,65,0,47
3,65,64,1
3,65,0,95
3,63,64,1
3,63,0,143
3,61,64,1
3,61,0,671
3,65,64,221
3,65,0,47
3,66,64,1
3,66,0,47
3,65,64,1
3,65,0,47
3,63,64,1
3,63,0,47
3,63,64,1
3,63,0,7
3,65,64,9
3,65,0,7
3,63,64,9
3,63,0,7
3,61,64,9
3,61,0,335
3,63,64,193
3,63,0,143
3,61,64,1
3,61,0,47
3,60,64,1
3,60,0,11
3,58,64,13
3,58,0,11
3,56,64,13
3,56,0,287
3,56,64,1
3,56,0,47
3,58,64,1
3,58,0,191
3,60,64,1
3,60,0,191
3,61,64,1
3,61,0,191
3,66,64,1
3,66,0,191
3,65,64,1
3,65,0,47
3,63,64,1
3,63,0,335
3,56,64,145
3,56,0,47
3,65,64,1
3,65,0,47
3,66,64,1
3,66,0,47
3,65,64,1
3,65,0,47
3,63,64,1
3,63,0,47
3,63,64,1
3,63,0,7
3,65,64,9
3,65,0,7
3,63,64,9
3,63,0,7
3,61,64,9
3,61,0,335
3,68,64,97
3,68,0,191
3,65,64,1
3,65,0,95
3,65,64,1
3,65,0,47
3,63,64,1
3,63,0,335
3,56,64,289
3,56,0,47
3,56,64,1
3,56,0,47
3,58,64,1
3,58,0,191
3,60,64,1
3,60,0,191
3,61,64,1
3,61,0,191
3,70,64,1
3,70,0,95
3,68,64,1
3,68,0,95
3,65,64,1
3,65,0,143
3,63,64,1
3,63,0,47
3,61,64,1
3,61,0,95
3,63,64,1
3,63,0,95
3,63,64,1
3,63,0,191
3,65,64,97
3,65,0,7
3,66,64,1
3,66,0,191
3,66,64,1
3,66,0,95
3,66,64,49
3,66,0,47
3,66,64,1
3,66,0,95
3,70,64,1
3,70,0,95
3,68,64,1
3,68,0,95
3,65,64,1
3,65,0,95
3,63,64,1
3,63,0,575
3,63,64,49
3,63,0,47
3,65,64,1
3,65,0,95
3,66,64,1
3,66,0,191
3,66,64,1
3,66,0,95
3,66,64,49
3,66,0,47
3,66,64,1
3,66,0,95
3,70,64,1
3,70,0,95
3,68,64,1
3,68,0,95
3,65,64,1
3,65,0,95
3,63,64,1
3,63,0,383
3,56,64,145
3,56,0,47
3,65,64,1
3,65,0,95
3,65,64,1
3,65,0,95
3,65,64,1
3,65,0,11
3,63,64,13
3,63,0,11
3,61,64,13
3,61,0,335
3,66,64,193
3,66,0,47
3,68,64,1
3,68,0,47
3,66,64,1
3,66,0,47
3,65,64,1
3,65,0,47
3,63,64,1
3,63,0,383
3,56,64,145
3,56,0,47
3,65,64,1
3,65,0,47
3,65,64,1
3,65,0,95
3,63,64,1
3,63,0,143
3,61,64,1
3,61,0,671
3,61,64,98
3,61,0,95
3,63,64,1
3,63,0,191
3,63,64,1
3,63,0,11
3,61,64,13
3,61,0,11
3,59,64,13
3,59,0,335
3,63,64,1
3,63,0,191
3,64,64,1
3,64,0,191
3,64,64,1
3,64,0,11
3,61,64,13
3,61,0,11
3,59,64,13
3,59,0,335
3,64,64,1
3,64,0,95
3,66,64,1
3,66,0,95
3,66,64,1
3,66,0,143
3,64,64,1
3,64,0,47
3,63,64,1
3,63,0,191
3,63,64,193
3,63,0,95
3,66,64,1
3,66,0,95
3,66,64,1
3,66,0,143
3,63,64,1
3,63,0,47
3,61,64,1
3,61,0,191
3,66,64,193
3,66,0,191
3,66,64,1
3,66,0,47
3,65,64,1
3,65,0,143
3,65,64,1
3,65,0,47
3,63,64,1
3,63,0,47
3,61,64,1
3,61,0,95
3,65,64,193
3,65,0,95
3,68,64,1
3,68,0,95
3,68,64,1
3,68,0,47
3,65,64,1
3,65,0,47
3,63,64,1
3,63,0,95
3,63,64,1
3,63,0,191
3,68,64,193
3,68,0,95
3,70,64,1
3,70,0,95
3,68,64,1
3,68,0,95
3,67,64,1
3,67,0,191
3,65,64,1
3,65,0,47
3,63,64,1
3,63,0,239
3,70,64,1
3,70,0,143
3,72,64,1
3,72,0,47
3,70,64,1
3,70,0,95
3,68,64,1
3,68,0,191
3,70,64,1
3,70,0,191
3,68,64,1
3,68,0,671
3,63,64,200
3,63,0,47
3,65,64,1
3,65,0,527
3,65,64,97
3,65,0,95
3,63,64,1
3,63,0,47
3,61,64,1
3,61,0,47
3,58,64,1
3,58,0,47
3,61,64,1
3,61,0,335
3,56,64,721
3,56,0,11
3,58,64,13
3,58,0,11
3,61,64,13
3,61,0,47
3,61,64,1
3,61,0,431
3,65,64,1
3,65,0,47
3,68,64,1
3,68,0,95
3,68,64,1
3,68,0,143
3,61,64,1
3,61,0,47
3,61,64,1
3,61,0,239
3,68,64,1
3,68,0,47
3,70,64,1
3,70,0,479
3,73,64,1
3,73,0,47
3,70,64,1
3,70,0,47
3,70,64,1
3,70,0,527
3,70,64,289
3,70,0,47
3,68,64,1
3,68,0,95
3,63,64,1
3,63,0,47
3,65,64,1
3,65,0,479
3,68,64,385
3,68,0,191
3,68,64,1
3,68,0,47
3,68,64,1
3,68,0,16
3,66,64,1
3,66,0,191
3,66,64,1
3,66,0,95
3,65,64,49
3,65,0,47
3,66,64,1
3,66,0,95
3,70,64,1
3,70,0,95
3,68,64,1
3,68,0,95
3,65,64,1
3,65,0,95
3,63,64,1
3,63,0,383
3,68,64,193
3,68,0,47
3,68,64,1
3,68,0,143
3,70,64,1
3,70,0,11
3,68,64,13
3,68,0,11
3,66,64,13
3,66,0,143
3,66,64,1
3,66,0,95
3,66,64,49
3,66,0,47
3,70,64,1
3,70,0,95
3,68,64,1
3,68,0,95
3,68,64,1
3,68,0,95
3,65,64,1
3,65,0,95
3,63,64,1
3,63,0,143
3,65,64,1
3,65,0,47
3,66,64,337
3,66,0,47
3,66,64,1
3,66,0,47
3,66,64,1
3,66,0,47
3,66,64,1
3,66,0,95
3,66,64,1
3,66,0,47
3,65,64,1
3,65,0,143
3,65,64,1
3,65,0,95
3,65,64,1
3,65,0,287
3,68,64,97
3,68,0,95
3,68,64,1
3,68,0,191
3,63,64,1
3,63,0,95
3,63,64,1
3,63,0,287
3,68,64,1
3,68,0,143
3,70,64,1
3,70,0,47
3,68,64,1
3,68,0,191
3,66,64,1
3,66,0,95
3,66,64,1
3,66,0,239
3,68,64,1
3,68,0,143
3,66,64,1
3,66,0,95
3,66,64,1
3,66,0,143
3,68,64,1
3,68,0,143
3,69,64,1
3,69,0,863
3,61,64,56
3,61,0,47
3,68,64,1
3,68,0,47
3,66,64,1
3,66,0,47
3,65,64,1
3,65,0,383
3,66,64,193
3,66,0,47
3,68,64,1
3,68,0,47
3,66,64,1
3,66,0,47
3,65,64,1
3,65,0,47
3,63,64,1
3,63,0,383
3,65,64,193
3,65,0,47
3,63,64,1
3,63,0,47
3,61,64,1
3,61,0,479
3,56,64,145
3,56,0,47
3,65,64,1
3,65,0,47
3,65,64,1
3,65,0,95
3,63,64,1
3,63,0,143
3,61,64,1
3,61,0,671
3,65,64,1
3,65,0,383
3,66,64,193
3,66,0,47
3,68,64,1
3,68,0,47
3,66,64,1
3,66,0,47
3,65,64,1
3,65,0,47
3,63,64,1
3,63,0,383
3,65,64,193
3,65,0,47
3,63,64,1
3,63,0,47
3,61,64,1
3,61,0,479
3,56,64,145
3,56,0,47
3,65,64,1
3,65,0,47
3,65,64,1
3,65,0,95
3,63,64,1
3,63,0,143
3,61,64,1
3,61,0,671
4,75,64,772
4,75,0,23
4,77,64,1
4,77,0,359
4,78,64,193
4,78,0,47
4,80,64,1
4,80,0,47
4,78,64,1
4,78,0,47
4,77,64,1
4,77,0,47
4,75,64,1
4,75,0,383
4,75,64,193
4,75,0,47
4,80,64,1
4,80,0,47
4,80,64,1
4,80,0,47
4,73,64,1
4,73,0,47
4,73,64,1
4,73,0,383
4,73,64,193
4,73,0,47
4,75,64,1
4,75,0,47
4,77,64,1
4,77,0,47
4,73,64,1
4,73,0,47
4,75,64,1
4,75,0,575
4,65,64,204
4,65,0,47
4,66,64,1
4,66,0,47
4,65,64,1
4,65,0,47
4,63,64,1
4,63,0,47
4,63,64,1
4,63,0,7
4,65,64,9
4,65,0,7
4,63,64,9
4,63,0,15
4,61,64,1
4,61,0,335
4,63,64,193
4,63,0,143
4,61,64,1
4,61,0,47
4,60,64,1
4,60,0,11
4,58,64,13
4,58,0,11
4,56,64,13
4,56,0,143
4,58,64,193
4,58,0,287
4,60,64,1
4,60,0,95
4,61,64,1
4,61,0,191
4,65,64,1
4,65,0,47
4,63,64,1
4,63,0,47
4,61,64,1
4,61,0,95
4,63,64,1
4,63,0,383
4,65,64,193
4,65,0,143
4,66,64,1
4,66,0,47
4,65,64,1
4,65,0,11
4,63,64,13
4,63,0,11
4,61,64,13
4,61,0,335
4,63,64,193
4,63,0,143
4,61,64,1
4,61,0,47
4,60,64,1
4,60,0,11
4,58,64,13
4,58,0,11
4,56,64,13
4,56,0,335
4,56,64,241
4,56,0,47
4,56,64,1
4,56,0,47
4,56,64,1
4,56,0,47
4,58,64,1
4,58,0,191
4,60,64,1
4,60,0,191
4,61,64,1
4,61,0,191
4,66,64,1
4,66,0,191
4,65,64,1
4,65,0,11
4,63,64,13
4,63,0,11
4,61,64,13
4,61,0,239
4,63,64,1
4,63,0,95
4,63,64,1
4,63,0,191
4,65,64,97
4,65,0,95
4,66,64,1
4,66,0,191
4,66,64,1
4,66,0,95
4,66,64,49
4,66,0,47
4,66,64,1
4,66,0,95
4,70,64,1
4,70,0,95
4,68,64,1
4,68,0,95
4,65,64,1
4,65,0,95
4,63,64,1
4,63,0,575
4,63,64,49
4,63,0,47
4,65,64,1
4,65,0,95
4,66,64,1
4,66,0,191
4,66,64,1
4,66,0,95
4,66,64,49
4,66,0,47
4,66,64,1
4,66,0,95
4,70,64,1
4,70,0,95
4,68,64,1
4,68,0,95
4,65,64,1
4,65,0,95
4,63,64,1
4,63,0,383
4,56,64,145
4,56,0,47
4,65,64,1
4,65,0,95
4,66,64,1
4,66,0,95
4,65,64,1
4,65,0,11
4,63,64,13
4,63,0,11
4,61,64,13
4,61,0,335
4,66,64,193
4,66,0,47
4,68,64,1
4,68,0,47
4,66,64,1
4,66,0,47
4,65,64,1
4,65,0,47
4,63,64,1
4,63,0,383
4,56,64,145
4,56,0,47
4,65,64,1
4,65,0,47
4,65,64,1
4,65,0,95
4,63,64,1
4,63,0,143
4,61,64,1
4,61,0,671
4,65,64,204
4,65,0,47
4,66,64,1
4,66,0,47
4,65,64,1
4,65,0,47
4,63,64,1
4,63,0,47
4,63,64,1
4,63,0,7
4,65,64,9
4,65,0,7
4,63,64,9
4,63,0,7
4,61,64,9
4,61,0,335
4,63,64,193
4,63,0,143
4,61,64,1
4,61,0,47
4,60,64,1
4,60,0,11
4,58,64,13
4,58,0,11
4,56,64,13
4,56,0,287
4,56,64,1
4,56,0,47
4,58,64,1
4,58,0,191
4,60,64,1
4,60,0,191
4,61,64,1
4,61,0,191
4,66,64,1
4,66,0,191
4,65,64,1
4,65,0,47
4,63,64,1
4,63,0,335
4,56,64,145
4,56,0,47
4,65,64,1
4,65,0,47
4,66,64,1
4,66,0,47
4,65,64,1
4,65,0,47
4,63,64,1
4,63,0,47
4,63,64,1
4,63,0,7
4,65,64,9
4,65,0,7
4,63,64,9
4,63,0,7
4,61,64,9
4,61,0,335
4,68,64,97
4,68,0,191
4,65,64,1
4,65,0,95
4,65,64,1
4,65,0,47
4,63,64,1
4,63,0,335
4,56,64,289
4,56,0,47
4,56,64,1
4,56,0,47
4,58,64,1
4,58,0,191
4,60,64,1
4,60,0,191
4,61,64,1
4,61,0,191
4,70,64,1
4,70,0,95
4,68,64,1
4,68,0,95
4,65,64,1
4,65,0,143
4,63,64,1
4,63,0,47
4,61,64,1
4,61,0,95
4,63,64,1
4,63,0,95
4,63,64,1
4,63,0,191
4,65,64,97
4,65,0,11
4,66,64,1
4,66,0,191
4,66,64,1
4,66,0,95
4,66,64,49
4,66,0,47
4,66,64,1
4,66,0,95
4,70,64,1
4,70,0,95
4,68,64,1
4,68,0,95
4,65,64,1
4,65,0,95
4,63,64,1
4,63,0,575
4,63,64,49
4,63,0,47
4,65,64,1
4,65,0,95
4,66,64,1
4,66,0,191
4,66,64,1
4,66,0,95
4,66,64,49
4,66,0,47
4,66,64,1
4,66,0,95
4,70,64,1
4,70,0,95
4,68,64,1
4,68,0,95
4,65,64,1
4,65,0,95
4,63,64,1
4,63,0,383
4,56,64,145
4,56,0,47
4,65,64,1
4,65,0,95
4,65,64,1
4,65,0,95
4,65,64,1
4,65,0,11
4,63,64,13
4,63,0,11
4,61,64,13
4,61,0,335
4,66,64,193
4,66,0,47
4,68,64,1
4,68,0,47
4,66,64,1
4,66,0,47
4,65,64,1
4,65,0,47
4,63,64,1
4,63,0,383
4,56,64,145
4,56,0,47
4,65,64,1
4,65,0,47
4,65,64,1
4,65,0,95
4,63,64,1
4,63,0,143
4,61,64,1
4,61,0,671
4,61,64,673
4,61,0,95
4,63,64,1
4,63,0,191
4,63,64,1
4,63,0,11
4,61,64,13
4,61,0,11
4,59,64,13
4,59,0,335
4,63,64,1
4,63,0,191
