track,note,velocity,time
0,42,95,0
0,49,100,0
0,35,100,0
0,35,0,60
0,49,0,30
0,42,0,0
0,46,110,0
0,40,106,0
0,40,0,5
0,35,87,0
0,35,0,5
0,46,0,0
0,46,100,0
0,35,103,0
0,35,0,4
0,46,0,19
0,46,113,0
0,40,112,0
0,40,0,15
0,46,0,5
0,46,112,0
0,35,105,0
0,35,0,9
0,46,0,4
0,46,112,0
0,40,105,0
0,40,0,15
0,35,92,0
0,35,0,5
0,46,0,0
0,35,103,0
0,46,108,0
0,35,0,44
0,46,0,4
0,46,113,0
0,40,106,0
0,40,0,10
0,46,0,5
0,55,81,0
0,50,86,0
0,59,78,0
0,43,91,0
0,50,103,0
0,55,97,0
0,59,92,0
0,43,96,0
0,31,107,0
0,43,99,0
0,55,72,0
0,46,113,0
0,49,100,0
0,35,104,0
0,35,0,44
0,50,0,0
0,43,0,0
0,59,0,0
0,43,0,0
0,59,0,0
0,55,0,0
0,43,0,0
0,55,0,0
0,50,0,0
0,31,0,0
0,55,0,0
0,55,89,0
0,50,95,0
0,59,85,0
0,43,80,0
0,43,99,0
0,50,105,0
0,59,99,0
0,55,100,0
0,31,107,0
0,55,92,0
0,43,103,0
0,43,0,15
0,43,0,0
0,46,0,0
0,50,0,0
0,55,0,0
0,50,0,0
0,49,0,0
0,59,0,0
0,31,0,0
0,59,0,0
0,43,0,0
0,55,0,0
0,55,0,0
0,46,112,0
0,40,100,0
0,40,0,60
0,35,101,0
0,35,0,60
0,46,0,0
0,35,103,0
0,46,114,0
0,35,0,9
0,46,0,9
0,46,107,0
0,40,109,0
0,40,0,5
0,46,0,5
0,48,97,0
0,52,79,0
0,55,85,0
0,60,84,0
0,52,92,0
0,55,98,0
0,48,99,0
0,36,107,0
0,36,112,0
0,48,100,0
0,60,106,0
0,46,116,0
0,35,108,0
0,49,69,0
0,35,0,19
0,48,0,0
0,52,0,0
0,48,0,0
0,36,0,0
0,55,0,0
0,48,0,0
0,60,0,0
0,52,0,0
0,55,0,0
0,36,0,0
0,60,0,0
0,48,80,0
0,60,76,0
0,52,95,0
0,55,78,0
0,36,107,0
0,55,90,0
0,48,104,0
0,52,96,0
0,36,112,0
0,48,99,0
0,60,109,0
0,60,0,5
0,55,0,0
0,46,0,0
0,55,0,0
0,48,0,0
0,60,0,0
0,49,0,0
0,52,0,0
0,36,0,0
0,48,0,0
0,36,0,0
0,48,0,0
0,52,0,0
0,46,110,0
0,40,100,0
0,40,0,20
0,35,85,0
0,35,0,50
0,46,0,0
0,35,103,0
0,46,108,0
0,35,0,4
0,46,0,24
0,46,112,0
0,40,106,0
0,40,0,45
0,46,0,60
0,50,98,0
0,55,96,0
0,59,90,0
0,43,103,0
0,50,100,0
0,59,92,0
0,55,99,0
0,43,103,0
0,31,111,0
0,67,101,0
0,79,99,0
0,55,105,0
0,43,103,0
0,35,112,0
0,46,114,0
0,35,0,4
0,43,0,0
0,50,0,0
0,59,0,0
0,55,0,0
0,55,0,0
0,50,0,0
0,43,0,0
0,59,0,0
0,55,0,0
0,31,0,0
0,43,0,0
0,43,99,0
0,55,94,0
0,50,100,0
0,59,95,0
0,43,104,0
0,50,105,0
0,59,99,0
0,55,106,0
0,31,106,0
0,43,103,0
0,55,104,0
0,55,0,15
0,55,0,0
0,50,0,0
0,59,0,0
0,43,0,0
0,46,0,0
0,59,0,0
0,43,0,0
0,31,0,0
0,55,0,0
0,50,0,0
0,43,0,0
0,46,110,0
0,40,104,0
0,40,0,5
0,35,94,0
0,35,0,10
0,46,0,0
0,46,90,0
0,35,99,0
0,46,106,0
0,35,0,39
0,46,0,9
0,46,0,0
0,46,112,0
0,40,106,0
0,40,0,10
0,46,0,10
0,48,86,0
0,52,86,0
0,55,86,0
0,60,86,0
0,55,99,0
0,52,94,0
0,48,100,0
0,36,97,0
0,36,114,0
0,48,100,0
0,60,100,0
0,35,105,0
0,46,114,0
0,35,0,60
0,36,0,0
0,55,0,0
0,48,0,0
0,52,0,0
0,36,0,0
0,52,97,0
0,48,100,0
0,55,106,0
0,36,105,0
0,36,114,0
0,36,0,60
0,52,0,0
0,46,0,0
0,36,0,0
0,48,0,0
0,55,0,0
0,40,106,0
0,46,114,0
0,40,0,60
0,45,90,9
0,43,72,9
0,45,0,13
0,41,91,8
0,46,0,11
0,46,99,0
0,46,100,0
0,43,0,3
0,35,109,16
0,41,0,6
0,46,0,9
0,35,0,0
0,46,0,0
0,43,29,0
0,46,96,0
0,49,116,0
0,40,114,0
0,40,0,25
0,43,0,0
0,60,0,10
0,48,0,0
0,49,0,0
0,52,0,0
0,60,0,0
0,48,0,0
0,46,0,0
0,55,0,0
0,43,82,0
0,50,89,0
0,59,83,0
0,55,88,0
0,59,99,0
0,55,97,0
0,50,99,0
0,55,80,0
0,43,79,0
0,31,112,0
0,74,90,0
0,55,71,0
0,71,58,0
0,55,90,0
0,43,87,0
0,46,90,0
0,46,116,0
0,49,100,0
0,35,110,0
0,35,0,4
0,43,0,0
0,43,0,0
0,31,0,0
0,50,0,0
0,59,0,0
0,50,0,0
0,55,0,0
0,55,0,0
0,55,0,0
0,55,0,0
0,59,0,0
0,50,102,0
0,59,89,0
0,55,91,0
0,43,92,0
0,43,94,0
0,62,73,0
0,31,107,0
0,55,85,0
0,43,92,0
0,43,0,30
0,55,0,0
0,31,0,0
0,50,0,0
0,46,0,0
0,43,0,0
0,49,0,0
0,46,0,0
0,55,0,0
0,59,0,0
0,59,72,0
0,46,86,0
0,40,99,0
0,46,106,0
0,40,0,60
0,59,0,0
0,43,0,0
0,62,0,0
0,59,102,0
0,50,108,0
0,55,103,0
0,55,84,0
0,31,92,0
0,35,96,0
0,35,0,60
0,50,0,0
0,46,0,0
0,59,0,0
0,46,0,0
0,31,0,0
0,55,0,0
0,55,0,0
0,43,103,0
0,62,98,0
0,31,112,0
0,46,97,0
0,35,107,0
0,46,108,0
0,35,0,34
0,50,75,0
0,31,97,0
0,31,0,15
0,46,0,0
0,31,0,0
0,43,0,0
0,50,0,0
0,46,0,0
0,50,107,0
0,59,99,0
0,55,105,0
0,59,83,0
0,31,108,0
0,40,110,0
0,46,111,0
0,40,0,10
0,55,0,0
0,62,0,0
0,71,0,0
0,50,0,0
0,59,0,0
0,74,0,0
0,31,0,0
0,59,0,0
0,43,101,0
0,55,96,0
0,31,107,0
0,31,0,10
0,55,0,0
0,43,0,0
0,46,0,0
0,55,0,0
0,43,0,0
0,48,91,0
0,52,78,0
0,55,84,0
0,60,83,0
0,60,100,0
0,52,96,0
0,55,100,0
0,36,93,0
0,48,95,0
0,36,97,0
0,72,97,0
0,60,90,0
0,76,79,0
0,48,85,0
0,60,84,0
0,46,85,0
0,46,116,0
0,49,100,0
0,35,109,0
0,35,0,60
0,48,0,0
0,60,0,0
0,36,0,0
0,52,0,0
0,52,0,0
0,48,0,0
0,60,0,0
0,36,0,0
0,55,0,0
0,60,76,0
0,48,81,0
0,52,89,0
0,55,66,0
0,36,84,0
0,62,96,0
0,36,112,0
0,36,0,25
0,62,0,0
0,55,0,0
0,46,0,0
0,60,0,0
0,46,0,0
0,60,0,0
0,49,0,0
0,52,0,0
0,55,0,0
0,48,0,0
0,52,97,0
0,59,86,0
0,60,83,0
0,48,81,0
0,48,0,0
0,46,71,0
0,46,0,0
0,40,101,0
0,46,113,0
0,40,0,15
0,59,0,0
0,60,0,0
0,36,0,0
0,52,0,0
0,52,104,0
0,55,103,0
0,60,101,0
0,55,91,0
0,36,101,0
0,35,94,0
0,35,0,30
0,60,0,0
0,52,0,0
0,46,0,0
0,36,0,0
0,55,0,0
0,36,94,0
0,62,98,0
0,36,112,0
0,35,105,0
0,46,114,0
0,35,0,60
0,36,0,0
0,55,0,0
0,52,94,0
0,36,97,0
0,36,0,60
0,62,0,0
0,52,0,0
0,36,0,0
0,46,0,0
0,52,107,0
0,55,103,0
0,60,104,0
0,59,91,0
0,36,112,0
0,46,113,0
0,40,108,0
0,40,0,60
0,59,0,0
0,52,0,0
0,60,0,0
0,55,0,0
0,36,0,0
0,72,0,0
0,76,0,0
0,36,84,0
0,55,98,0
0,36,97,0
0,36,0,60
0,55,0,0
0,46,0,0
0,48,0,0
0,60,0,0
0,36,0,0
0,50,88,0
0,55,81,0
0,59,80,0
0,43,96,0
0,50,110,0
0,55,109,0
0,43,100,0
0,59,107,0
0,43,97,0
0,31,109,0
0,71,86,0
0,74,91,0
0,55,81,0
0,43,87,0
0,55,70,0
0,57,67,0
0,57,0,0
0,35,106,0
0,46,113,0
0,49,78,0
0,35,0,60
0,55,0,0
0,43,0,0
0,55,0,0
0,50,0,0
0,31,0,0
0,50,0,0
0,43,0,0
0,43,0,0
0,59,0,0
0,55,78,0
0,50,91,0
0,43,99,0
0,59,90,0
0,43,95,0
0,62,98,0
0,31,109,0
0,55,91,0
0,55,0,10
0,31,0,0
0,62,0,0
0,55,0,0
0,46,0,0
0,59,0,0
0,59,0,0
0,49,0,0
0,43,0,0
0,55,0,0
0,50,0,0
0,50,93,0
0,59,89,0
0,43,94,0
0,43,0,0
0,46,82,0
0,40,106,0
0,46,113,0
0,40,0,5
0,59,0,0
0,43,0,0
0,50,0,0
0,50,111,0
0,55,109,0
0,59,104,0
0,55,94,0
0,31,107,0
0,35,99,0
0,35,0,5
0,46,0,0
0,46,0,0
0,31,0,0
0,50,0,0
0,55,0,0
0,43,101,0
0,62,100,0
0,31,112,0
0,46,100,0
0,35,106,0
0,46,111,0
0,35,0,60
0,59,0,0
0,55,0,0
0,31,0,0
0,50,100,0
0,55,46,0
0,59,71,0
0,31,74,0
0,31,0,40
0,46,0,0
0,46,0,0
0,43,0,0
0,62,0,0
0,59,0,0
0,50,0,0
0,55,0,0
0,59,106,0
0,50,108,0
0,55,107,0
0,59,95,0
0,31,114,0
0,46,82,0
0,40,107,0
0,46,114,0
0,49,80,0
0,40,0,25
0,59,0,0
0,59,0,0
0,43,0,0
0,55,0,0
0,74,0,0
0,50,0,0
0,31,0,0
0,71,0,0
0,43,99,0
0,55,100,0
0,31,74,0
0,31,0,10
0,46,0,0
0,55,0,0
0,49,0,0
0,43,0,0
0,46,0,0
0,55,0,0
0,48,96,0
0,52,79,0
0,55,83,0
0,60,82,0
0,36,100,0
0,52,95,0
0,55,98,0
0,60,94,0
0,48,99,0
0,36,103,0
0,72,90,0
0,76,75,0
0,60,86,0
0,60,95,0
0,46,88,0
0,35,104,0
0,35,0,60
0,52,0,0
0,60,0,0
0,36,0,0
0,36,0,0
0,55,0,0
0,52,0,0
0,48,0,0
0,60,0,0
0,60,0,0
0,55,0,0
0,60,76,0
0,48,99,0
0,52,86,0
0,55,67,0
0,52,84,0
0,62,98,0
0,36,107,0
0,48,88,0
0,48,0,0
0,60,92,0
0,48,95,0
0,48,0,60
0,60,0,0
0,62,0,0
0,52,0,0
0,46,0,0
0,48,0,0
0,60,0,0
0,52,0,0
0,55,0,0
0,36,0,0
0,36,99,0
0,59,85,0
0,46,96,0
0,40,105,0
0,40,0,60
0,46,0,0
0,36,0,0
0,59,0,0
0,52,111,0
0,55,101,0
0,60,105,0
0,55,97,0
0,36,112,0
0,35,96,0
0,35,0,60
0,55,0,0
0,52,0,0
0,36,0,0
0,36,99,0
0,62,99,0
0,36,103,0
0,46,96,0
0,35,105,0
0,35,0,60
0,55,0,0
0,60,0,0
0,46,0,0
0,36,0,0
0,52,99,0
0,36,101,0
0,46,96,0
0,40,96,0
0,40,0,5
0,36,0,0
0,36,0,0
0,62,0,0
0,52,0,0
0,46,0,0
0,52,100,0
0,60,99,0
0,55,100,0
0,59,91,0
0,36,99,0
0,46,96,0
0,40,96,0
0,40,0,40
0,72,0,0
0,59,0,0
0,60,0,0
0,52,0,0
0,55,0,0
0,46,0,0
0,48,0,0
0,36,0,0
0,36,98,0
0,55,97,0
0,36,97,0
0,35,102,0
0,35,0,5
0,60,0,0
0,36,0,0
0,36,0,0
0,76,0,0
0,67,0,0
0,55,0,0
0,50,88,0
0,43,80,0
0,59,76,0
0,50,109,0
0,55,105,0
0,59,100,0
0,43,97,0
0,31,112,0
0,74,82,0
0,67,96,0
0,74,99,0
0,71,97,0
0,55,90,0
0,43,89,0
0,35,107,0
0,49,102,0
0,47,53,0
0,47,0,19
0,59,0,0
0,35,0,0
0,43,0,0
0,74,0,0
0,50,0,0
0,55,0,0
0,50,0,0
0,43,0,0
0,43,0,0
0,74,0,0
0,59,0,0
0,71,0,0
0,67,0,0
0,31,0,0
0,79,0,0
0,55,0,0
0,55,79,0
0,55,88,0
0,43,88,0
0,50,95,0
0,59,85,0
0,43,105,0
0,31,110,0
0,74,96,0
0,71,94,0
0,67,104,0
0,43,87,0
0,55,91,0
0,55,0,10
0,59,0,0
0,55,0,0
0,31,0,0
0,55,0,0
0,43,0,0
0,49,0,0
0,50,0,0
0,67,0,0
0,74,0,0
0,43,0,0
0,43,0,0
0,71,0,0
0,46,111,0
0,40,103,0
0,40,0,35
0,31,112,0
0,35,92,0
0,35,0,40
0,31,0,0
0,46,0,0
0,31,101,0
0,46,114,0
0,35,100,0
0,35,0,19
0,31,0,0
0,31,103,0
0,31,0,60
0,46,0,0
0,31,108,0
0,46,116,0
0,40,104,0
0,40,0,60
0,31,0,0
0,31,109,0
0,31,0,60
0,46,0,0
0,48,84,0
0,52,80,0
0,55,84,0
0,60,85,0
0,36,94,0
0,52,86,0
0,60,93,0
0,55,91,0
0,36,107,0
0,67,101,0
0,72,101,0
0,60,93,0
0,48,85,0
0,35,107,0
0,46,118,0
0,49,78,0
0,49,0,0
0,48,0,60
0,35,0,0
0,36,0,0
0,52,0,0
0,52,0,0
0,55,0,0
0,55,0,0
0,60,0,0
0,67,0,0
0,60,0,0
0,72,0,0
0,36,0,0
0,60,0,0
0,48,0,0
0,48,79,0
0,55,80,0
0,52,90,0
0,60,71,0
0,55,83,0
0,52,96,0
0,36,95,0
0,60,92,0
0,36,109,0
0,76,94,0
0,72,94,0
0,67,107,0
0,76,94,0
0,60,82,0
0,48,91,0
0,48,0,60
0,46,0,0
0,72,0,0
0,60,0,0
0,55,0,0
0,48,0,0
0,36,0,0
0,55,0,0
0,52,0,0
0,52,0,0
0,67,0,0
0,76,0,0
0,60,0,0
0,36,0,0
0,76,0,0
0,60,0,0
0,46,78,0
0,40,105,0
0,46,113,0
0,40,0,60
0,36,110,0
0,35,94,0
0,35,0,60
0,46,0,0
0,46,0,0
0,36,0,0
0,36,107,0
0,46,108,0
0,35,105,0
0,35,0,60
0,36,0,0
0,36,103,0
0,36,0,60
0,46,0,0
0,36,100,0
0,46,116,0
0,40,108,0
0,49,62,0
0,40,0,60
0,36,0,0
0,36,99,0
0,36,0,60
0,46,0,0
0,49,0,0
0,55,89,0
0,50,88,0
0,59,83,0
0,43,94,0
0,50,97,0
0,55,94,0
0,59,85,0
0,43,99,0
0,31,111,0
0,67,99,0
0,71,97,0
0,74,99,0
0,55,92,0
0,43,85,0
0,35,110,0
0,46,116,0
0,35,0,60
0,67,0,0
0,74,0,0
0,50,0,0
0,55,0,0
0,50,0,0
0,43,0,0
0,59,0,0
0,43,0,0
0,59,0,0
0,55,0,0
0,71,0,0
0,31,0,0
0,55,0,0
0,43,0,0
0,43,79,0
0,55,73,0
0,59,89,0
0,50,86,0
0,43,101,0
0,50,103,0
0,55,96,0
0,59,97,0
0,31,105,0
0,74,95,0
0,71,100,0
0,67,103,0
0,55,85,0
0,43,91,0
0,43,0,60
0,71,0,0
0,50,0,0
0,43,0,0
0,43,0,0
0,55,0,0
0,55,0,0
0,59,0,0
0,46,0,0
0,67,0,0
0,74,0,0
0,59,0,0
0,50,0,0
0,55,0,0
0,31,0,0
0,40,99,0
0,46,114,0
0,40,0,60
0,31,107,0
0,35,95,0
0,35,0,60
0,31,0,0
0,46,0,0
0,31,99,0
0,35,104,0
0,46,114,0
0,35,0,60
0,31,0,0
0,31,101,0
0,31,0,60
0,46,0,0
