track,note,velocity,time
1,66,100,0
1,69,100,0
1,62,100,0
1,62,0,930
1,69,0,5
1,66,0,0
1,71,100,25
1,68,100,0
1,64,100,0
1,68,0,935
1,64,0,5
1,71,0,5
1,69,100,15
1,66,100,0
1,62,100,0
1,62,0,935
1,66,0,5
1,69,0,0
1,71,100,20
1,64,100,0
1,68,100,0
1,88,100,420
1,88,0,520
1,71,0,20
1,64,0,0
1,68,0,0
1,69,100,2880
1,69,0,955
1,66,100,5
1,69,100,0
1,62,100,0
1,62,0,930
1,69,0,5
1,66,0,0
1,71,100,25
1,68,100,0
1,64,100,0
1,68,0,935
1,64,0,5
1,71,0,5
1,69,100,15
1,66,100,0
1,62,100,0
1,62,0,935
1,66,0,5
1,69,0,0
1,71,100,20
1,64,100,0
1,68,100,0
1,88,100,420
1,88,0,520
1,71,0,20
1,64,0,0
1,68,0,0
1,66,100,0
1,62,100,0
1,69,100,0
1,69,0,460
1,62,0,0
1,66,0,5
1,71,100,15
1,68,100,0
1,64,100,0
1,68,0,445
1,64,0,5
1,71,0,0
1,66,100,30
1,69,100,0
1,61,100,0
1,61,0,445
1,62,100,5
1,62,0,225
1,66,0,10
1,61,100,35
1,64,100,0
1,64,0,210
1,61,0,20
1,66,100,10
1,62,100,0
1,69,0,460
1,62,0,10
1,66,0,10
1,71,100,0
1,68,100,0
1,64,100,0
1,64,0,435
1,71,0,5
1,68,0,5
1,66,100,35
1,73,100,0
1,69,100,0
1,69,0,450
1,73,0,5
1,66,0,0
1,62,100,25
1,66,100,0
1,69,100,0
1,62,0,205
1,66,0,5
1,61,100,30
1,64,100,0
1,69,0,225
1,64,0,10
1,61,0,0
1,66,100,5
1,62,100,0
1,69,100,0
1,69,0,460
1,62,0,0
1,66,0,0
1,71,100,20
1,68,100,0
1,64,100,0
1,64,0,450
1,71,0,5
1,68,0,10
1,73,100,15
1,66,100,0
1,69,100,0
1,66,0,420
1,64,100,0
1,73,100,0
1,69,100,0
1,69,0,5
1,73,0,0
1,69,0,495
1,73,0,10
1,64,0,5
1,66,100,25
1,69,100,0
1,62,100,0
1,62,0,450
1,69,0,0
1,66,0,0
1,71,100,30
1,68,100,0
1,64,100,0
1,68,0,455
1,64,0,5
1,71,0,5
1,66,100,15
1,62,100,0
1,69,100,0
1,69,0,945
1,62,0,0
1,66,0,5
1,71,100,10
1,68,100,0
1,64,100,0
1,74,100,780
1,74,0,100
1,64,0,75
1,68,0,0
1,71,0,5
1,69,100,2880
1,69,0,955
1,66,100,5
1,69,100,0
1,62,100,0
1,62,0,930
1,69,0,5
1,66,0,0
1,71,100,25
1,68,100,0
1,64,100,0
1,68,0,935
1,64,0,5
1,71,0,5
1,69,100,15
1,66,100,0
1,62,100,0
1,62,0,935
1,66,0,5
1,69,0,0
1,71,100,20
1,64,100,0
1,68,100,0
1,88,100,420
1,88,0,520
1,71,0,20
1,64,0,0
1,68,0,0
1,66,100,0
1,62,100,0
1,69,100,0
1,69,0,460
1,62,0,0
1,66,0,5
1,71,100,15
1,68,100,0
1,64,100,0
1,68,0,445
1,64,0,5
1,71,0,0
1,66,100,30
1,69,100,0
1,61,100,0
1,61,0,445
1,62,100,5
1,62,0,225
1,66,0,10
1,61,100,35
1,64,100,0
1,64,0,210
1,61,0,20
1,66,100,10
1,62,100,0
1,69,0,460
1,62,0,10
1,66,0,10
1,71,100,0
1,68,100,0
1,64,100,0
1,64,0,435
1,71,0,5
1,68,0,5
1,66,100,35
1,73,100,0
1,69,100,0
1,69,0,450
1,73,0,5
1,66,0,0
1,62,100,25
1,66,100,0
1,69,100,0
1,62,0,205
1,66,0,5
1,61,100,30
1,64,100,0
1,69,0,225
1,64,0,10
1,61,0,0
1,66,100,5
1,62,100,0
1,69,100,0
1,69,0,460
1,62,0,0
1,66,0,0
1,71,100,20
1,68,100,0
1,64,100,0
1,64,0,450
1,71,0,5
1,68,0,10
1,73,100,15
1,66,100,0
1,69,100,0
1,66,0,420
1,64,100,0
1,73,100,0
1,69,100,0
1,69,0,5
1,73,0,0
1,69,0,495
1,73,0,10
1,64,0,5
1,66,100,25
1,69,100,0
1,62,100,0
1,62,0,450
1,69,0,0
1,66,0,0
1,71,100,30
1,68,100,0
1,64,100,0
1,68,0,455
1,64,0,5
1,71,0,5
1,66,100,15
1,62,100,0
1,69,100,0
1,69,0,945
1,62,0,0
1,66,0,5
1,71,100,10
1,68,100,0
1,64,100,0
1,74,100,780
1,74,0,100
1,64,0,75
1,68,0,0
1,71,0,5
1,65,100,0
1,58,100,0
1,62,100,0
1,62,0,930
1,58,0,0
1,57,100,30
1,60,100,0
1,60,0,920
1,57,0,10
1,62,100,30
1,61,100,0
1,58,100,0
1,61,0,30
1,62,0,900
1,58,0,10
1,65,0,5
1,57,100,15
1,61,100,0
1,64,100,0
1,61,0,460
1,57,0,0
1,64,0,5
1,61,100,15
1,57,100,0
1,64,100,0
1,57,0,30
1,64,0,5
1,61,0,0
1,61,100,55
1,57,100,0
1,64,100,0
1,64,0,40
1,57,0,0
1,61,0,0
1,61,100,20
1,57,100,0
1,64,100,0
1,57,0,40
1,64,0,5
1,61,0,0
1,57,100,45
1,64,100,0
1,61,100,0
1,61,0,45
1,64,0,5
1,57,0,0
1,69,100,190
1,66,100,0
1,62,100,0
1,62,0,460
1,69,0,0
1,66,0,5
1,71,100,15
1,68,100,0
1,64,100,0
1,64,0,435
1,68,0,10
1,71,0,0
1,66,100,35
1,73,100,0
1,69,100,0
1,66,0,460
1,73,0,5
1,69,0,5
1,73,100,10
1,69,100,0
1,64,100,0
1,73,0,445
1,69,0,10
1,64,0,10
1,69,100,15
1,62,100,0
1,66,100,0
1,62,0,460
1,66,0,5
1,69,0,5
1,71,100,10
1,68,100,0
1,64,100,0
1,64,0,445
1,68,0,10
1,71,0,0
1,69,100,25
1,73,100,0
1,66,100,0
1,65,100,0
1,65,0,10
1,66,0,440
1,73,0,15
1,69,0,0
1,69,100,15
1,64,100,0
1,73,100,0
1,73,0,475
1,64,0,0
1,69,0,0
1,66,100,5
1,62,100,0
1,69,100,0
1,69,0,460
1,62,0,0
1,66,0,5
1,71,100,15
1,68,100,0
1,64,100,0
1,68,0,445
1,64,0,5
1,71,0,0
1,66,100,30
1,69,100,0
1,61,100,0
1,61,0,445
1,62,100,5
1,62,0,225
1,66,0,10
1,61,100,35
1,64,100,0
1,64,0,210
1,61,0,20
1,66,100,10
1,62,100,0
1,69,0,460
1,62,0,10
1,66,0,10
1,71,100,0
1,68,100,0
1,64,100,0
1,64,0,435
1,71,0,5
1,68,0,5
1,66,100,35
1,73,100,0
1,69,100,0
1,69,0,450
1,73,0,5
1,66,0,0
1,62,100,25
1,66,100,0
1,69,100,0
1,62,0,205
1,66,0,5
1,61,100,30
1,64,100,0
1,69,0,225
1,64,0,10
1,61,0,0
1,65,100,5
1,70,100,0
1,62,100,0
1,62,0,460
1,70,0,0
1,65,0,5
1,67,100,15
1,64,100,0
1,72,100,0
1,64,0,460
1,67,0,0
1,72,0,5
1,72,100,15
1,65,100,0
1,69,100,0
1,69,0,5
1,71,100,25
1,69,100,0
1,71,0,40
1,69,0,365
1,65,0,25
1,72,0,10
1,65,100,10
1,70,100,0
1,62,100,0
1,65,0,450
1,70,0,5
1,62,0,5
1,62,100,20
1,69,100,0
1,66,100,0
1,69,0,465
1,66,0,5
1,62,0,5
1,71,100,5
1,68,100,0
1,64,100,0
1,64,0,475
1,68,0,0
1,71,0,0
1,66,100,5
1,62,100,0
1,69,100,0
1,69,0,460
1,62,0,0
1,66,0,5
1,71,100,15
1,68,100,0
1,64,100,0
1,68,0,445
1,64,0,5
1,71,0,0
1,66,100,30
1,69,100,0
1,61,100,0
1,61,0,445
1,62,100,5
1,62,0,225
1,66,0,10
1,61,100,35
1,64,100,0
1,64,0,210
1,61,0,20
1,66,100,10
1,62,100,0
1,69,0,460
1,62,0,10
1,66,0,10
1,71,100,0
1,68,100,0
1,64,100,0
1,64,0,435
1,71,0,5
1,68,0,5
1,66,100,35
1,73,100,0
1,69,100,0
1,69,0,450
1,73,0,5
1,66,0,0
1,62,100,25
1,66,100,0
1,69,100,0
1,62,0,205
1,66,0,5
1,61,100,30
1,64,100,0
1,69,0,225
1,64,0,10
1,61,0,0
1,66,100,5
1,62,100,0
1,69,100,0
1,69,0,460
1,62,0,0
1,66,0,0
1,71,100,20
1,68,100,0
1,64,100,0
1,64,0,450
1,71,0,5
1,68,0,10
1,73,100,15
1,66,100,0
1,69,100,0
1,66,0,420
1,64,100,0
1,73,100,0
1,69,100,0
1,69,0,5
1,73,0,0
1,69,0,495
1,73,0,10
1,64,0,5
1,66,100,25
1,69,100,0
1,62,100,0
1,62,0,450
1,69,0,0
1,66,0,0
1,71,100,30
1,68,100,0
1,64,100,0
1,68,0,455
1,64,0,5
1,71,0,5
1,66,100,15
1,62,100,0
1,69,100,0
1,69,0,945
1,62,0,0
1,66,0,5
1,71,100,10
1,68,100,0
1,64,100,0
1,74,100,780
1,74,0,100
1,64,0,75
1,68,0,0
1,71,0,5
1,64,100,0
1,73,100,0
1,81,100,0
1,81,0,1705
1,73,0,0
1,64,0,0
2,54,65,0
2,57,65,0
2,50,65,0
2,50,0,880
2,57,0,5
2,54,0,0
2,59,65,75
2,56,65,0
2,52,65,0
2,56,0,825
2,59,0,5
2,52,0,5
2,50,65,125
2,57,65,0
2,54,65,0
2,50,0,915
2,54,0,5
2,57,0,5
2,52,65,35
2,59,65,0
2,56,65,0
2,56,0,945
2,59,0,0
2,52,0,0
2,52,65,15
2,45,65,0
2,45,0,35
2,52,0,15
2,45,65,30
2,45,0,30
2,54,65,10
2,45,65,0
2,45,0,30
2,54,0,35
2,45,65,15
2,45,0,30
2,52,65,10
2,45,65,0
2,45,0,35
2,52,0,20
2,45,65,25
2,45,0,30
2,45,65,10
2,54,65,0
2,45,0,20
2,54,0,50
2,45,65,10
2,45,0,30
2,52,65,10
2,45,65,0
2,45,0,25
2,52,0,25
2,45,65,30
2,45,0,30
2,54,65,10
2,45,65,0
2,45,0,25
2,54,0,40
2,45,65,15
2,45,0,30
2,52,65,10
2,45,65,0
2,45,0,25
2,52,0,25
2,45,65,30
2,45,0,30
2,54,65,10
2,45,65,0
2,45,0,20
2,54,0,40
2,45,65,20
2,45,0,25
2,52,65,15
2,45,65,0
2,45,0,20
2,52,0,40
2,45,65,20
2,45,0,30
2,54,65,10
2,45,65,0
2,45,0,30
2,54,0,35
2,45,65,15
2,45,0,35
2,45,65,5
2,52,65,0
2,45,0,30
2,52,0,35
2,45,65,15
2,45,0,30
2,54,65,10
2,45,65,0
2,45,0,35
2,54,0,30
2,45,65,15
2,45,0,30
2,45,65,10
2,52,65,0
2,45,0,25
2,52,0,30
2,45,65,25
2,45,0,30
2,54,65,10
2,45,65,0
2,45,0,20
2,54,0,25
2,45,65,35
2,45,0,35
2,45,65,5
2,52,65,0
2,45,0,25
2,52,0,30
2,45,65,25
2,45,0,30
2,54,65,10
2,45,65,0
2,45,0,15
2,54,0,50
2,45,65,15
2,45,0,30
2,52,65,10
2,45,65,0
2,45,0,20
2,52,0,30
2,45,65,30
2,45,0,30
2,54,65,10
2,45,65,0
2,45,0,25
2,54,0,40
2,45,65,15
2,45,0,30
2,52,65,10
2,45,65,0
2,45,0,20
2,52,0,45
2,45,65,15
2,45,0,30
2,54,65,10
2,45,65,0
2,45,0,25
2,54,0,45
2,45,65,10
2,45,0,30
2,52,65,10
2,45,65,0
2,45,0,15
2,52,0,55
2,45,65,10
2,45,0,30
2,54,65,10
2,45,65,0
2,45,0,20
2,54,0,50
2,45,65,10
2,45,0,30
2,52,65,10
2,45,65,0
2,45,0,25
2,52,0,45
2,45,65,10
2,54,65,40
2,45,0,25
2,54,0,55
2,45,65,0
2,52,65,40
2,45,0,20
2,52,0,30
2,45,65,30
2,54,65,40
2,45,0,30
2,54,0,30
2,45,65,20
2,45,0,30
2,52,65,10
2,45,65,0
2,45,0,20
2,52,0,50
2,45,65,10
2,54,65,40
2,45,0,35
2,54,0,40
2,45,65,5
2,45,0,35
2,52,65,5
2,45,65,0
2,45,0,15
2,52,0,60
2,45,65,5
2,54,65,40
2,45,0,30
2,54,0,35
2,45,65,15
2,51,65,40
2,52,65,0
2,45,0,20
2,51,0,15
2,52,0,35
2,45,65,10
2,54,65,40
2,45,0,25
2,54,0,40
2,45,65,15
2,45,0,25
2,54,65,15
2,57,65,0
2,50,65,0
2,50,0,880
2,57,0,5
2,54,0,0
2,59,65,75
2,56,65,0
2,52,65,0
2,56,0,825
2,59,0,5
2,52,0,5
2,50,65,125
2,57,65,0
2,54,65,0
2,50,0,915
2,54,0,5
2,57,0,5
2,52,65,35
2,59,65,0
2,56,65,0
2,56,0,945
2,59,0,0
2,52,0,0
2,57,65,15
2,50,65,0
2,50,0,40
2,57,0,20
2,50,65,20
2,50,0,35
2,59,65,5
2,50,65,0
2,50,0,15
2,59,0,45
2,50,65,20
2,50,0,30
2,57,65,10
2,50,65,0
2,50,0,40
2,57,0,20
2,50,65,20
2,50,0,40
2,59,65,0
2,50,65,0
2,50,0,15
2,59,0,50
2,50,65,15
2,50,0,25
2,59,65,15
2,52,65,0
2,52,0,50
2,59,0,15
2,52,65,15
2,61,65,40
2,52,0,20
2,61,0,35
2,52,65,25
2,52,0,30
2,52,65,10
2,59,65,0
2,52,0,25
2,59,0,35
2,52,65,20
2,52,0,30
2,61,65,10
2,52,65,0
2,52,0,20
2,61,0,50
2,52,65,10
2,52,0,25
2,61,65,15
2,57,65,0
2,54,65,0
2,57,0,365
2,54,0,15
2,61,0,5
2,54,65,95
2,50,65,0
2,57,65,0
2,57,0,160
2,54,0,0
2,50,0,10
2,49,65,70
2,57,65,0
2,52,65,0
2,52,0,165
2,57,0,5
2,49,0,0
2,57,65,70
2,50,65,0
2,50,0,45
2,57,0,20
2,50,65,15
2,50,0,35
2,50,65,5
2,59,65,0
2,50,0,15
2,59,0,45
2,50,65,20
2,50,0,30
2,57,65,10
2,50,65,0
2,50,0,20
2,57,0,35
2,50,65,25
2,50,0,35
2,50,65,5
2,59,65,0
2,50,0,20
2,50,65,60
2,59,0,15
2,50,0,5
2,59,65,20
2,52,65,0
2,52,0,40
2,59,0,25
2,52,65,15
2,61,65,40
2,52,0,30
2,61,0,35
2,52,65,15
2,52,0,25
2,59,65,15
2,52,65,0
2,52,0,20
2,59,0,40
2,52,65,20
2,61,65,40
2,52,0,40
2,61,0,30
2,54,65,50
2,61,65,0
2,57,65,0
2,57,0,370
2,61,0,15
2,54,0,0
2,57,65,95
2,50,65,0
2,54,65,0
2,57,0,155
2,54,0,10
2,50,0,5
2,49,65,70
2,57,65,0
2,52,65,0
2,52,0,225
2,57,0,0
2,49,0,5
2,54,65,10
2,57,65,0
2,50,65,0
2,50,0,445
2,57,0,0
2,54,0,5
2,52,65,30
2,59,65,0
2,56,65,0
2,59,0,390
2,52,0,0
2,56,0,5
2,61,65,85
2,54,65,0
2,57,65,0
2,54,0,405
2,57,0,5
2,61,0,0
2,52,65,30
2,61,65,0
2,57,65,0
2,57,0,445
2,61,0,5
2,52,0,20
2,50,65,50
2,57,65,0
2,54,65,0
2,57,0,440
2,50,0,0
2,54,0,10
2,52,65,30
2,59,65,0
2,56,65,0
2,56,0,405
2,59,0,10
2,52,0,10
2,57,65,55
2,50,65,0
2,54,65,0
2,50,0,915
2,54,0,5
2,57,0,0
2,52,65,40
2,59,65,0
2,56,65,0
2,59,0,450
2,56,0,5
2,52,0,0
2,52,65,25
2,56,65,0
2,59,65,0
2,64,65,0
2,64,0,190
2,59,0,285
2,56,0,5
2,52,0,0
2,52,65,0
2,45,65,0
2,45,0,35
2,52,0,15
2,45,65,30
2,45,0,30
2,54,65,10
2,45,65,0
2,45,0,30
2,54,0,35
2,45,65,15
2,45,0,30
2,52,65,10
2,45,65,0
2,45,0,35
2,52,0,20
2,45,65,25
2,45,0,30
