track,note,velocity,time
0,69,85,239
0,62,77,160
0,57,71,160
0,69,0,115
0,69,80,45
0,62,0,115
0,62,74,45
0,57,0,115
0,57,72,45
0,69,0,115
0,69,80,45
0,62,0,115
0,62,73,45
0,57,0,115
0,57,68,45
0,69,0,115
0,69,79,45
0,62,0,115
0,62,71,45
0,57,0,115
0,57,76,45
0,69,0,115
0,69,84,45
0,38,94,0
0,38,0,7
0,62,0,108
0,62,71,45
0,57,0,115
0,57,71,45
0,38,90,0
0,38,0,7
0,69,0,108
0,69,77,45
0,48,117,0
0,48,0,7
0,62,0,108
0,62,71,45
0,45,112,0
0,45,0,7
0,57,0,108
0,57,68,45
0,43,102,0
0,43,0,7
0,69,0,17
0,64,92,4
0,57,88,1
0,61,97,0
0,45,107,3
0,71,95,0
0,69,78,0
0,38,95,0
0,38,0,7
0,62,0,24
0,62,71,42
0,45,115,0
0,45,0,7
0,57,0,108
0,57,70,45
0,38,96,0
0,38,0,7
0,69,0,108
0,64,0,22
0,61,0,5
0,57,0,2
0,45,0,1
0,71,0,10
0,40,122,5
0,69,107,0
0,69,80,0
0,45,103,0
0,57,84,7
0,45,0,0
0,61,85,3
0,64,87,0
0,62,0,105
0,62,67,45
0,41,113,0
0,41,0,7
0,57,0,108
0,57,72,45
0,41,115,0
0,41,0,7
0,69,0,108
0,69,0,15
0,57,0,14
0,64,0,1
0,61,0,5
0,40,0,5
0,62,0,0
0,38,109,5
0,74,67,0
0,81,68,0
0,50,89,0
0,57,96,0
0,62,98,0
0,62,79,0
0,36,111,0
0,49,96,0
0,36,0,7
0,49,0,0
0,62,0,108
0,69,73,45
0,38,0,22
0,57,0,93
0,38,101,45
0,62,75,0
0,42,60,0
0,42,0,7
0,38,0,128
0,38,112,25
0,71,84,0
0,38,92,0
0,42,58,0
0,38,0,7
0,42,0,0
0,69,0,5
0,38,0,173
0,62,0,27
0,38,98,108
0,69,71,0
0,36,96,0
0,42,52,0
0,36,0,7
0,42,0,0
0,71,0,38
0,38,0,102
0,38,119,13
0,62,76,0
0,36,109,0
0,42,64,0
0,36,0,7
0,42,0,0
0,69,0,148
0,69,69,5
0,69,0,7
0,38,0,25
0,62,0,83
0,57,0,7
0,50,0,3
0,62,0,22
0,38,100,13
0,50,87,0
0,57,88,0
0,62,76,0
0,62,74,0
0,42,56,0
0,42,0,7
0,38,0,133
0,38,111,20
0,71,84,0
0,38,94,0
0,42,70,0
0,38,0,7
0,42,0,0
0,57,0,3
0,62,0,0
0,50,0,5
0,62,0,77
0,38,0,115
0,38,94,113
0,50,92,0
0,57,94,0
0,62,98,0
0,69,75,0
0,42,55,0
0,42,0,7
0,71,0,33
0,38,0,110
0,38,104,10
0,62,76,0
0,36,113,0
0,42,65,0
0,36,0,7
0,42,0,0
0,69,0,128
0,69,80,25
0,38,0,22
0,62,0,108
0,38,98,30
0,62,71,0
0,42,56,0
0,42,0,7
0,69,0,128
0,38,0,0
0,38,111,25
0,71,85,0
0,38,86,0
0,42,57,0
0,38,0,7
0,42,0,0
0,38,0,178
0,62,0,15
0,74,0,112
0,81,0,0
0,38,104,8
0,69,71,0
0,36,94,0
0,42,55,0
0,71,0,7
0,36,0,0
0,42,0,0
0,57,0,100
0,62,0,0
0,50,0,15
0,38,0,25
0,38,119,13
0,59,106,0
0,62,99,0
0,67,102,0
0,62,67,0
0,36,104,0
0,49,92,0
0,74,71,2
0,79,68,3
0,36,0,2
0,49,0,0
0,69,0,135
0,69,72,18
0,38,0,32
0,62,0,78
0,38,105,50
0,62,76,0
0,42,53,0
0,42,0,7
0,74,0,80
0,69,0,35
0,67,0,8
0,62,0,7
0,38,0,3
0,79,0,2
0,59,0,5
0,74,69,10
0,38,107,3
0,57,92,0
0,62,100,0
0,66,97,0
0,71,81,0
0,38,94,0
0,57,87,0
0,78,66,5
0,38,0,2
0,57,0,0
0,38,0,200
0,62,0,8
0,38,97,105
0,69,71,0
0,46,69,0
0,46,0,7
0,71,0,15
0,66,0,85
0,62,0,18
0,74,0,9
0,78,0,3
0,57,0,3
0,38,0,10
0,69,0,7
0,40,106,3
0,76,65,0
0,83,74,0
0,88,75,0
0,52,92,0
0,59,93,0
0,64,92,0
0,64,84,0
0,36,114,0
0,42,74,0
0,36,0,7
0,42,0,0
0,68,70,153
0,40,0,22
0,64,0,88
0,40,95,50
0,64,75,0
0,42,62,0
0,42,0,7
0,40,0,128
0,40,113,25
0,69,85,0
0,38,87,0
0,42,61,0
0,38,0,7
0,42,0,0
0,68,0,5
0,40,0,173
0,64,0,27
0,40,101,108
0,68,73,0
0,36,98,0
0,42,56,0
0,36,0,7
0,42,0,0
0,69,0,38
0,40,0,102
0,40,114,13
0,64,72,0
0,36,104,0
0,42,68,0
0,36,0,7
0,42,0,0
0,68,0,148
0,68,74,5
0,68,0,7
0,40,0,25
0,64,0,83
0,59,0,7
0,52,0,3
0,64,0,22
0,40,102,13
0,52,89,0
0,59,91,0
0,64,75,0
0,64,73,0
0,42,52,0
0,42,0,7
0,40,0,133
0,40,109,20
0,69,84,0
0,38,91,0
0,42,70,0
0,38,0,7
0,42,0,0
0,59,0,3
0,64,0,0
0,52,0,5
0,64,0,77
0,40,0,115
0,40,98,113
0,52,90,0
0,59,93,0
0,64,93,0
0,68,69,0
0,42,58,0
0,42,0,7
0,69,0,33
0,40,0,110
0,40,107,10
0,64,71,0
0,36,117,0
0,42,61,0
0,36,0,7
0,42,0,0
0,68,0,128
0,68,73,25
0,40,0,22
0,64,0,108
0,40,99,30
0,64,76,0
0,42,62,0
0,42,0,7
0,68,0,128
0,40,0,0
0,40,118,25
0,69,88,0
0,38,92,0
0,42,58,0
0,38,0,7
0,42,0,0
0,40,0,178
0,64,0,15
0,40,101,120
0,68,76,0
0,36,91,0
0,42,52,0
0,69,0,7
0,36,0,0
0,42,0,0
0,59,0,100
0,64,0,0
0,76,0,10
0,83,0,0
0,88,0,0
0,52,0,5
0,40,0,9
0,40,118,4
0,71,104,0
0,61,104,0
0,64,99,0
0,69,102,0
0,64,62,0
0,36,109,0
0,49,92,0
0,36,0,4
0,49,0,0
0,80,87,8
0,81,69,12
0,76,66,5
0,68,0,11
0,68,74,2
0,40,0,32
0,64,0,78
0,40,104,50
0,64,79,0
0,42,53,0
0,42,0,7
0,80,0,23
0,68,0,92
0,69,0,8
0,64,0,4
0,40,0,3
0,61,0,7
0,71,0,8
0,37,109,4
0,69,101,0
0,59,94,0
0,64,94,0
0,68,96,0
0,69,79,0
0,38,95,0
0,57,90,0
0,80,66,5
0,38,0,2
0,57,0,0
0,81,0,44
0,64,0,67
0,37,0,72
0,69,0,28
0,35,107,4
0,66,97,0
0,68,66,0
0,46,70,0
0,46,0,7
0,69,0,15
0,68,0,85
0,64,0,18
0,35,0,7
0,59,0,8
0,66,0,5
0,80,0,2
0,38,104,13
0,74,66,0
0,81,73,0
0,50,91,0
0,57,94,0
0,62,93,0
0,62,82,0
0,36,117,0
0,42,76,0
0,36,0,7
0,42,0,0
0,76,0,7
0,68,0,91
0,69,74,55
0,38,0,22
0,62,0,88
0,38,99,50
0,62,77,0
0,42,61,0
0,42,0,7
0,38,0,128
0,38,114,25
0,71,81,0
0,38,87,0
0,42,56,0
0,55,78,0
0,38,0,7
0,42,0,0
0,55,0,0
0,69,0,5
0,38,0,173
0,62,0,27
0,38,104,108
0,69,68,0
0,36,97,0
0,42,55,0
0,36,0,7
0,42,0,0
0,71,0,38
0,38,0,102
0,38,114,13
0,62,78,0
0,36,107,0
0,42,63,0
0,36,0,7
0,42,0,0
0,69,0,148
0,69,74,5
0,69,0,7
0,38,0,25
0,62,0,83
0,57,0,7
0,50,0,3
0,62,0,4
0,38,102,4
0,66,94,0
0,50,90,0
0,57,90,0
0,62,79,0
0,62,73,0
0,42,55,0
0,42,0,7
0,66,0,49
0,38,0,33
0,38,111,4
0,69,96,0
0,71,83,0
0,38,90,0
0,42,72,0
0,38,0,7
0,42,0,0
0,57,0,3
0,62,0,0
0,50,0,5
0,62,0,77
0,69,0,58
0,69,91,4
0,38,0,47
0,69,0,98
0,38,99,4
0,66,83,0
0,50,94,0
0,57,93,0
0,62,97,0
0,69,71,0
0,42,58,0
0,42,0,7
0,71,0,33
0,38,0,110
0,66,0,2
0,38,111,4
0,71,92,0
0,62,71,0
0,36,112,0
0,42,63,0
0,36,0,7
0,42,0,0
0,69,0,14
0,69,79,25
0,71,0,5
0,38,0,17
0,62,0,108
0,38,101,4
0,66,90,0
0,62,71,0
0,42,60,0
0,42,0,7
0,69,0,128
0,38,0,0
0,38,115,25
0,71,85,0
0,38,90,0
0,42,57,0
0,38,0,7
0,42,0,0
0,38,0,14
0,66,0,4
0,62,0,0
0,38,98,22
0,69,69,0
0,36,97,0
0,42,55,0
0,71,0,7
0,36,0,0
0,42,0,0
0,57,0,100
0,62,0,0
0,50,0,15
0,38,0,25
0,38,114,13
0,59,99,0
0,62,105,0
0,67,101,0
0,62,63,0
0,36,112,0
0,49,87,0
0,36,0,7
0,49,0,0
0,69,0,135
0,69,72,18
0,38,0,32
0,62,0,78
0,38,101,50
0,62,73,0
0,42,56,0
0,42,0,7
0,69,0,115
0,67,0,8
0,62,0,7
0,38,0,3
0,59,0,7
0,38,114,13
0,57,95,0
0,62,93,0
0,66,100,0
0,71,76,0
0,38,91,0
0,57,87,0
0,38,0,7
0,57,0,0
0,38,0,200
0,62,0,8
0,40,94,105
0,69,70,0
0,46,72,0
0,46,0,7
0,71,0,15
0,66,0,85
0,62,0,18
0,57,0,15
0,74,0,7
0,81,0,0
0,40,0,3
0,69,0,7
0,40,111,3
0,76,69,0
0,80,52,0
0,83,69,0
0,52,91,0
0,59,92,0
0,64,98,0
0,64,84,0
0,36,116,0
0,42,70,0
0,36,0,7
0,42,0,0
0,68,73,153
0,40,0,22
0,64,0,88
0,40,97,50
0,64,78,0
0,42,57,0
0,42,0,7
0,40,0,128
0,40,113,25
0,69,85,0
0,38,87,0
0,42,57,0
0,38,0,7
0,42,0,0
0,68,0,5
0,40,0,173
0,64,0,27
0,40,99,108
0,68,72,0
0,36,98,0
0,42,56,0
0,36,0,7
0,42,0,0
0,69,0,38
0,40,0,102
0,40,107,13
0,64,75,0
0,36,108,0
0,42,68,0
0,36,0,7
0,42,0,0
0,68,0,148
0,68,73,5
0,68,0,7
0,40,0,25
0,64,0,83
0,59,0,7
0,52,0,3
0,64,0,22
0,40,99,13
0,52,89,0
0,59,91,0
0,64,80,0
0,64,78,0
0,42,51,0
0,42,0,7
0,40,0,133
0,40,107,20
0,69,83,0
0,38,92,0
0,42,69,0
0,38,0,7
0,42,0,0
0,59,0,3
0,64,0,0
0,52,0,5
0,64,0,77
0,40,0,115
0,40,99,113
0,52,90,0
0,59,88,0
0,64,97,0
0,68,73,0
0,42,58,0
0,42,0,7
0,69,0,33
0,87,72,110
0,83,0,0
0,40,0,0
0,83,65,5
0,40,108,5
0,64,70,0
0,36,114,0
0,42,66,0
0,36,0,7
0,42,0,0
0,88,68,40
0,87,0,43
0,68,0,45
0,68,74,25
0,40,0,22
0,64,0,108
0,40,98,30
0,64,72,0
0,42,55,0
0,83,0,5
0,42,0,2
0,68,0,128
0,40,0,0
0,35,99,25
0,69,88,0
0,38,89,0
0,42,59,0
0,38,0,7
0,42,0,0
0,35,0,143
0,37,106,10
0,38,58,0
0,38,0,7
0,64,0,33
0,37,0,97
0,40,102,23
0,68,70,0
0,36,98,0
0,38,93,0
0,42,54,0
0,69,0,7
0,36,0,0
0,38,0,0
0,42,0,0
0,59,0,100
0,64,0,0
0,52,0,9
0,76,0,14
0,80,0,0
0,88,0,0
0,40,0,3
0,40,111,5
0,54,124,0
0,64,64,0
0,36,107,0
0,40,0,2
0,36,0,4
0,88,67,20
0,86,56,22
0,84,69,2
0,88,0,4
0,83,57,32
0,68,0,7
0,86,0,0
0,68,77,18
0,38,86,0
0,81,57,7
0,38,0,0
0,84,0,10
0,79,64,20
0,83,0,8
0,77,67,22
0,81,0,10
0,76,58,25
0,79,0,7
0,64,0,1
0,74,53,25
0,77,0,7
0,64,75,18
0,46,83,0
0,46,0,7
0,72,57,8
0,76,0,2
0,74,0,33
0,71,44,2
0,72,0,28
0,71,0,14
0,68,0,28
0,54,0,30
0,37,109,8
0,49,105,0
0,69,80,0
0,38,93,0
0,38,0,7
0,38,76,87
0,38,0,7
0,64,0,48
0,49,0,77
0,37,0,18
0,35,110,10
0,47,106,0
0,38,86,0
0,46,75,0
0,38,0,7
0,46,0,0
0,69,0,100
0,35,0,33
0,47,0,10
0,33,110,10
0,45,100,0
0,52,100,0
0,45,73,0
0,52,75,0
0,36,118,0
0,49,67,0
0,36,0,7
0,49,0,0
0,33,0,175
0,52,0,110
0,45,0,13
0,45,0,0
0,52,0,7
0,33,96,4
0,73,96,0
0,52,96,0
0,57,97,0
0,52,71,0
0,57,70,0
0,42,58,0
0,42,0,7
0,52,0,105
0,57,0,0
0,33,0,23
0,73,0,0
0,33,118,4
0,71,93,0
0,38,88,0
0,42,59,0
0,38,0,7
0,42,0,0
0,52,0,145
0,57,0,3
0,33,0,30
0,71,0,10
0,33,101,125
0,45,90,0
0,52,89,0
0,45,69,0
0,52,66,0
0,36,96,0
0,42,51,0
0,36,0,7
0,42,0,0
0,45,0,120
0,45,0,0
0,52,0,8
0,52,0,0
0,33,0,12
0,33,119,4
0,69,97,0
0,45,88,0
0,52,94,0
0,57,90,0
0,45,62,0
0,52,69,0
0,57,67,0
0,36,110,0
0,42,66,0
0,36,0,7
0,42,0,0
0,33,0,185
0,69,0,60
0,45,0,63
0,45,0,0
0,33,102,5
0,45,99,0
0,45,75,0
0,42,53,0
0,42,0,7
0,45,0,5
0,45,0,0
0,52,0,73
0,52,0,0
0,57,0,17
0,57,0,0
0,33,0,38
0,33,114,4
0,66,86,0
0,45,92,0
0,54,94,0
0,45,71,0
0,54,70,0
0,38,94,0
0,42,72,0
0,38,0,7
0,42,0,0
0,33,0,200
0,66,0,50
0,45,0,3
0,45,0,0
0,54,0,40
0,54,0,0
0,33,95,20
0,45,103,0
0,52,97,0
0,45,76,0
0,52,77,0
0,42,59,0
0,42,0,7
0,33,0,143
0,33,106,4
0,69,93,0
0,36,113,0
0,42,63,0
0,36,0,7
0,42,0,0
0,33,0,175
0,69,0,75
0,52,0,18
0,52,0,0
0,45,0,2
0,45,0,0
0,33,96,4
0,69,87,0
0,52,100,0
0,57,97,0
0,52,70,0
0,57,74,0
0,42,58,0
0,42,0,7
0,33,0,128
0,33,115,25
0,38,91,0
0,42,60,0
0,38,0,7
0,42,0,0
0,52,0,3
0,57,0,0
0,69,0,57
0,52,0,85
0,57,0,3
0,33,0,30
0,33,99,4
0,73,92,0
0,45,94,0
0,52,86,0
0,45,66,0
0,52,61,0
0,36,97,0
0,42,53,0
0,36,0,7
0,42,0,0
0,52,0,24
0,52,0,0
0,33,0,12
0,62,83,10
0,62,59,0
0,33,120,3
0,52,95,0
0,52,75,0
0,36,106,0
0,42,74,0
0,36,0,7
0,42,0,0
0,54,100,15
0,54,78,0
0,52,0,143
0,52,0,0
0,33,0,27
0,73,0,25
0,33,103,103
0,42,50,0
0,42,0,7
0,45,0,40
0,45,0,0
0,62,0,80
0,62,0,0
0,54,0,7
0,54,0,0
0,33,0,6
0,33,107,20
0,62,88,0
0,62,58,0
0,38,94,0
0,42,74,0
0,52,94,2
0,52,72,0
0,38,0,5
0,42,0,0
0,54,96,15
0,54,72,0
0,52,0,142
0,52,0,0
0,33,0,43
0,33,98,113
0,46,66,0
0,46,0,7
0,54,0,137
0,54,0,0
0,62,0,1
0,62,0,0
0,33,0,5
0,33,110,10
0,45,97,0
0,52,97,0
0,45,79,0
0,52,77,0
0,36,114,0
0,42,72,0
0,36,0,7
0,42,0,0
0,33,0,175
0,52,0,110
0,45,0,13
0,45,0,0
0,52,0,7
0,33,97,4
0,73,100,0
0,52,99,0
0,57,99,0
