track,note,velocity,time
1,26,110,1
1,38,122,24
1,38,106,15
1,38,88,507
1,34,116,38
1,34,116,16
1,46,126,406
1,34,116,18
1,31,122,39
1,31,106,22
1,31,110,501
1,33,116,24
1,33,110,27
1,33,106,121
1,33,110,116
1,45,116,9
1,33,110,10
1,38,110,19
1,38,110,21
1,50,122,431
1,38,106,28
1,34,126,28
1,34,116,20
1,46,126,311
1,34,126,149
1,31,110,18
1,31,106,17
1,34,126,402
1,31,116,16
1,33,110,27
1,33,100,25
1,33,116,318
1,37,126,18
1,33,106,11
1,38,110,56
1,38,116,18
1,38,106,518
1,33,116,17
1,33,106,25
1,33,110,120
1,33,122,331
1,38,116,13
1,38,106,20
1,38,110,305
1,38,116,137
1,31,110,2
1,31,110,19
1,31,110,103
1,31,106,133
1,34,126,9
1,31,106,20
1,36,106,22
1,36,100,22
1,36,110,515
1,34,126,26
1,34,126,21
1,34,126,113
1,34,126,312
1,33,116,19
1,33,106,32
1,33,106,212
1,33,100,29
1,45,110,19
1,33,116,8
1,38,106,28
1,38,96,20
1,38,106,519
1,33,116,22
1,33,122,19
1,33,116,82
1,33,110,327
1,38,122,14
1,38,116,21
1,38,110,109
1,38,106,318
1,40,110,0
1,31,106,17
1,31,110,22
1,31,110,505
1,36,106,14
1,36,110,28
1,36,116,497
1,34,116,12
1,34,126,127
1,33,122,384
1,33,106,17
1,33,116,99
1,33,126,234
1,29,122,12
1,33,122,50
1,34,126,52
1,38,110,72
1,29,116,3
1,31,106,11
1,33,126,27
1,33,106,35
1,37,126,12
1,37,98,65
1,38,116,2
1,50,122,15
1,48,110,33
1,45,106,23
1,41,96,8
1,38,122,29
1,29,122,25
1,29,116,61
1,33,116,14
1,33,100,66
1,34,126,9
1,38,116,52
1,29,100,8
1,31,110,16
1,31,56,11
1,33,126,0
1,33,100,49
1,37,126,6
1,38,126,162
1,38,122,15
1,36,110,510
1,34,126,27
1,33,126,509
1,31,110,15
1,31,110,18
1,31,110,127
1,43,122,143
1,31,74,22
1,32,126,23
1,33,122,14
1,33,116,14
1,33,116,337
1,37,126,13
1,33,122,15
1,38,116,17
1,38,106,21
1,38,122,501
1,33,122,12
1,33,116,24
1,33,116,122
1,45,116,225
1,33,110,21
1,38,116,15
1,38,110,16
1,38,110,291
1,26,100,5
1,31,116,20
1,31,110,14
1,34,126,326
1,31,110,7
1,34,116,12
1,36,110,26
1,36,106,29
1,36,92,516
1,34,126,49
1,35,80,0
1,34,126,14
1,34,126,126
1,34,126,318
1,33,116,27
1,33,106,29
1,33,100,118
1,45,116,12
1,33,116,10
1,37,126,9
1,33,110,9
1,38,122,35
1,38,106,24
1,38,110,331
1,33,106,13
1,29,110,24
1,33,116,15
1,33,116,21
1,33,116,499
1,38,116,20
1,38,110,22
1,26,116,310
1,30,126,96
1,26,100,5
1,31,116,13
1,31,122,12
1,34,126,398
1,31,110,9
1,36,122,9
1,36,116,12
1,36,106,487
1,34,126,14
1,34,126,16
1,34,126,118
1,34,126,320
1,33,116,28
1,31,92,28
1,33,100,0
1,33,116,124
1,45,116,7
1,37,106,8
1,33,106,18
1,29,122,38
1,29,110,77
1,33,122,11
1,33,106,68
1,34,126,1
1,38,122,125
1,29,100,4
1,31,110,7
1,33,116,22
1,33,88,35
1,37,126,3
1,37,106,55
1,38,110,13
1,45,116,26
1,40,106,96
1,41,110,48
1,38,110,0
1,31,100,147
1,33,116,0
1,29,116,57
1,29,100,18
1,33,122,2
1,33,100,51
1,34,126,5
1,29,122,33
1,31,110,16
1,33,126,23
1,33,110,57
1,37,126,12
1,37,116,63
1,38,122,19
1,38,122,18
1,36,116,499
1,34,126,26
1,34,98,12
1,31,62,409
1,33,126,73
1,31,110,11
1,31,116,10
1,31,80,507
1,32,98,0
1,33,122,60
1,33,110,9
1,33,110,129
1,37,126,14
1,37,126,26
1,38,116,227
1,38,106,21
1,38,122,501
1,33,122,12
1,33,116,24
1,33,116,122
1,45,116,225
1,33,110,21
1,38,116,15
1,38,110,16
1,38,110,291
1,26,100,5
1,31,116,20
1,31,110,14
1,34,126,326
1,31,110,7
1,34,116,12
1,36,110,26
1,36,106,29
1,36,92,516
1,34,126,49
1,35,80,0
1,34,126,14
1,34,126,126
1,34,126,318
1,33,116,27
1,33,106,29
1,33,100,118
1,45,116,12
1,33,116,10
1,37,126,9
1,33,110,9
1,38,122,35
1,38,106,24
1,38,110,331
1,33,106,13
1,29,110,24
1,33,116,15
1,33,116,21
1,33,116,499
1,38,116,20
1,38,110,22
1,26,116,310
1,30,126,96
1,26,100,5
1,31,116,13
1,31,122,12
1,34,126,398
1,31,110,9
1,36,122,9
1,36,116,12
1,36,106,487
1,34,126,14
1,34,126,16
1,34,126,118
1,34,126,320
1,33,116,28
1,31,92,28
1,33,100,0
1,33,116,124
1,45,116,7
1,37,106,8
1,33,106,18
1,29,122,38
1,29,110,77
1,33,122,11
1,33,106,68
1,34,126,1
1,38,122,125
1,29,100,4
1,31,110,7
1,33,116,22
1,33,88,35
1,37,126,3
1,37,106,55
1,38,110,13
1,45,116,26
1,40,106,96
1,41,110,48
1,38,110,0
1,31,100,147
1,33,116,0
1,29,116,57
1,29,100,18
1,33,122,2
1,33,100,51
1,34,126,5
1,29,122,33
1,31,110,16
1,33,126,23
1,33,110,57
1,37,126,12
1,37,116,63
1,38,110,19
1,38,110,18
1,38,78,392
1,36,74,18
1,34,126,35
1,34,116,40
1,34,116,514
1,33,116,23
1,33,110,33
1,33,68,508
1,38,116,12
1,38,92,30
1,38,96,123
1,26,126,21
1,31,126,89
1,31,106,23
1,31,116,488
1,38,116,7
1,38,116,30
1,33,116,513
1,31,122,11
1,31,116,24
1,41,122,306
1,35,116,82
1,36,100,12
1,36,110,24
1,36,110,323
1,31,80,13
1,36,80,5
1,29,122,2
1,29,122,19
1,29,100,511
1,27,126,20
1,27,126,14
1,27,126,477
1,26,116,24
1,26,110,25
1,30,106,84
1,33,122,86
1,30,116,106
1,31,100,0
1,31,110,39
1,31,116,29
1,31,116,486
1,38,110,4
1,38,84,24
1,38,100,510
1,31,116,17
1,31,122,23
1,31,122,316
1,35,116,9
1,31,116,7
1,36,122,5
1,36,106,20
1,48,116,288
1,36,106,20
1,35,50,35
1,29,116,77
1,29,110,13
1,29,116,495
1,27,126,17
1,27,116,16
1,27,126,496
1,26,116,12
1,26,50,7
1,26,106,89
1,30,126,2
1,26,100,9
1,30,126,10
1,33,92,35
1,34,126,19
1,38,122,67
1,39,126,33
1,27,126,37
1,26,110,25
1,30,126,35
1,31,110,40
1,43,110,39
1,37,106,96
1,38,78,10
1,34,98,3
1,31,96,4
1,34,126,9
1,38,110,21
1,37,14,75
1,39,98,0
1,31,96,4
1,27,126,9
1,26,110,35
1,30,126,16
1,31,116,32
1,34,116,9
1,34,126,54
1,38,110,12
1,39,116,54
1,31,106,13
1,27,106,8
1,26,110,22
1,30,126,15
1,31,116,92
1,31,80,14
1,31,68,141
1,31,116,48
1,31,70,153
1,31,110,58
1,31,88,20
1,31,74,151
1,31,116,57
1,31,110,19
1,31,62,149
1,31,110,43
1,31,74,24
1,31,62,145
1,31,110,53
1,31,84,27
1,31,66,145
1,31,110,42
1,31,84,25
1,31,66,138
1,31,110,53
1,31,100,15
1,43,78,148
1,31,96,96
2,38,122,1
2,46,98,2
2,43,110,4
2,45,106,768
2,50,110,18
2,46,126,384
2,43,116,480
2,45,110,766
2,50,106,24
2,46,106,23
2,43,110,768
2,45,116,743
2,65,116,0
2,57,106,0
2,63,126,0
2,62,116,0
2,58,32,0
2,55,110,0
2,61,98,0
2,64,88,0
2,53,110,0
2,62,84,0
2,65,126,0
2,57,110,0
2,63,90,384
2,58,106,0
2,62,88,0
2,61,106,0
2,55,116,0
2,64,80,0
2,57,92,553
2,62,116,0
2,60,126,0
2,69,126,0
2,62,106,0
2,70,90,0
2,69,116,0
2,61,126,0
2,62,116,0
2,65,122,0
2,60,122,624
2,65,122,0
2,63,126,312
2,70,106,0
2,65,106,0
2,62,116,0
2,61,126,0
2,69,126,0
2,64,100,384
2,62,122,0
2,61,126,1536
2,62,116,753
2,55,122,0
2,67,116,0
2,54,126,0
2,66,126,0
2,55,126,0
2,67,116,0
2,53,122,0
2,65,122,0
2,51,126,0
2,63,126,0
2,53,126,0
2,65,110,0
2,51,126,0
2,63,116,0
2,62,126,0
2,50,106,0
2,58,126,0
2,70,126,0
2,68,106,168
2,63,126,38
2,57,110,15
2,69,116,0
2,66,116,0
2,55,110,0
2,70,116,0
2,62,126,0
2,58,126,86
2,62,122,0
2,68,126,361
2,67,122,8
2,57,116,4
2,66,106,0
2,69,106,0
2,55,122,743
2,62,116,0
2,70,90,0
2,58,116,56
2,62,126,0
2,68,126,380
2,67,100,13
2,57,122,30
2,69,116,0
2,66,126,0
2,55,126,743
2,62,106,0
2,70,84,0
2,67,92,0
3,69,122,7696
3,69,116,38
3,69,100,41
3,69,126,30
3,69,106,31
3,69,110,34
3,69,116,43
3,69,106,41
3,68,106,0
3,67,88,9
3,67,100,45
3,67,126,54
3,66,84,556
3,66,98,31
3,66,126,29
3,67,116,14
3,69,106,31
3,70,116,27
3,64,88,745
3,64,110,43
3,64,116,22
3,65,116,17
3,67,110,35
3,68,126,43
3,67,106,576
3,66,84,0
3,65,52,0
3,65,100,3
3,68,126,13
3,67,122,127
3,66,98,0
3,69,106,581
3,68,52,0
3,69,100,24
3,69,122,24
3,69,122,29
3,69,116,30
3,69,110,39
3,69,110,37
3,68,98,0
3,67,74,20
3,67,80,42
3,67,126,33
3,67,116,19
3,66,18,356
3,66,66,41
3,66,98,37
3,66,126,31
3,67,116,11
3,69,106,19
3,69,116,38
3,70,106,31
3,70,116,102
3,64,48,503
3,64,96,36
3,64,110,27
3,64,122,33
3,65,116,12
3,67,110,24
3,68,116,43
3,67,110,30
3,66,72,0
3,65,62,0
3,65,78,77
3,68,116,26
3,66,44,0
3,67,116,125
3,65,126,393
3,69,110,11
3,68,126,0
3,67,110,0
3,67,116,88
3,65,122,96
3,60,96,11
3,62,106,0
3,65,100,275
3,64,110,0
3,64,106,25
3,63,90,2
3,64,106,18
3,63,106,7
3,64,110,29
3,67,116,17
3,65,92,35
3,62,116,17
3,65,126,594
3,65,84,49
3,67,116,67
3,69,100,0
3,68,116,0
3,67,122,87
3,65,122,11
3,65,106,302
3,64,116,0
3,63,106,0
3,64,100,29
3,63,66,2
3,64,96,14
3,63,126,3
3,64,96,39
3,67,110,12
3,65,100,32
3,62,122,50
3,69,110,2746
3,68,98,0
3,69,110,43
3,69,106,48
3,69,126,43
3,69,106,41
3,69,100,50
3,68,116,45
3,69,126,0
3,67,106,99
3,67,96,25
3,67,122,31
3,67,126,28
3,66,106,443
3,66,126,27
3,66,126,30
3,67,106,15
3,69,106,23
3,69,126,27
3,70,78,33
3,70,126,28
3,64,84,568
3,64,96,21
3,64,110,25
3,64,116,30
3,65,110,96
3,67,110,20
3,67,122,38
3,68,90,8
3,67,100,26
3,68,90,0
3,67,88,22
3,65,106,15
3,68,84,41
3,67,88,0
3,67,110,135
3,68,116,513
3,69,122,0
3,69,122,89
3,69,106,41
3,74,116,24
3,69,116,28
3,68,116,0
3,67,106,48
3,65,78,31
3,69,106,42
3,68,98,0
3,67,100,0
3,67,122,115
3,66,106,360
3,66,106,24
3,66,116,22
3,67,116,9
3,69,110,11
3,69,106,27
3,70,98,44
3,70,98,37
3,64,62,540
3,64,74,14
3,64,100,19
3,64,110,24
3,65,116,96
3,67,116,20
3,68,116,130
3,67,96,19
3,66,90,0
3,65,68,0
3,65,96,71
3,68,84,23
3,67,66,0
3,67,122,144
3,65,116,386
3,69,110,43
3,68,126,0
3,67,126,0
3,67,122,86
3,65,122,13
3,65,122,288
3,64,122,0
3,64,92,25
3,63,66,5
3,64,106,13
3,63,126,7
3,64,92,32
3,67,126,21
3,65,100,28
3,62,122,30
3,65,126,558
3,71,110,39
3,72,110,0
3,74,122,58
3,73,98,20
3,68,126,0
3,67,110,0
3,65,116,8
3,63,60,354
3,65,116,0
3,64,116,0
3,64,110,32
3,63,116,7
3,64,116,22
3,63,126,5
3,64,106,29
3,67,116,21
3,65,116,33
3,62,126,51
3,67,96,2951
3,69,110,0
3,68,106,0
3,69,100,27
3,69,122,29
3,68,52,34
3,69,126,0
3,69,106,40
3,74,122,28
3,69,110,43
3,68,116,0
3,67,106,0
3,67,100,39
3,65,74,53
3,69,116,71
3,67,116,0
3,68,126,0
3,67,126,105
3,66,84,388
3,66,84,51
3,66,126,39
3,67,116,10
3,69,100,16
3,69,122,25
3,70,90,46
3,70,126,35
3,64,46,549
3,64,110,59
3,64,116,45
3,64,126,47
3,65,110,7
3,67,116,39
3,69,66,142
3,67,116,0
3,68,126,0
3,69,70,94
3,68,126,0
3,67,116,175
3,65,88,18
3,68,66,46
3,67,110,0
3,67,126,134
3,65,122,39
3,67,106,330
3,68,106,0
3,69,70,10
3,69,116,56
3,69,116,31
3,74,126,23
3,67,106,41
3,68,116,0
3,65,100,16
3,69,116,163
3,67,110,0
3,68,116,0
3,67,126,109
3,66,126,326
3,66,126,112
3,62,100,62
3,69,116,49
3,68,116,0
3,67,116,99
3,64,66,551
3,64,96,37
3,64,106,18
3,64,106,57
3,65,116,19
3,67,116,44
3,67,38,29
3,67,100,63
3,68,126,0
3,67,116,35
3,65,100,21
3,67,106,43
3,68,98,23
3,67,116,51
3,65,126,140
3,67,126,46
3,68,126,0
3,69,122,0
3,67,122,83
3,65,122,96
3,60,74,8
3,65,110,464
3,63,60,0
3,64,116,0
3,64,116,35
3,63,78,96
3,64,110,20
3,63,126,14
3,64,116,39
3,67,116,17
3,65,110,52
3,62,126,50
3,57,122,288
3,65,126,554
3,65,74,41
3,68,84,50
3,69,110,0
3,72,110,77
3,72,68,23
3,74,116,0
3,70,60,55
3,68,126,0
3,67,122,0
3,65,126,153
3,62,92,280
3,65,122,70
3,64,126,55
3,63,98,96
3,64,116,56
3,63,106,96
3,64,122,56
3,67,110,4
3,65,122,58
3,62,122,48
3,73,126,2980
3,74,126,0
3,74,126,31
3,74,122,36
3,73,106,35
3,74,126,0
3,74,122,35
3,74,122,42
3,74,116,46
3,74,126,46
3,73,126,0
3,72,106,26
3,72,110,46
3,72,126,52
3,71,100,350
3,70,126,0
3,71,92,28
3,71,110,62
3,71,106,37
3,71,126,45
3,72,106,7
3,74,110,39
3,74,122,44
3,75,106,24
3,69,116,634
3,69,116,37
3,69,116,47
3,69,116,46
3,70,116,31
3,72,110,38
3,72,116,111
3,73,116,0
3,72,110,22
3,71,48,26
3,70,106,0
3,73,38,43
3,72,110,0
3,72,122,131
3,70,126,43
3,67,106,35
3,72,126,263
3,74,126,0
3,73,126,0
3,73,60,78
3,74,122,0
3,74,110,41
3,74,110,38
3,73,126,37
3,74,126,0
3,72,110,17
3,72,110,47
3,72,116,48
3,71,92,172
3,72,122,0
3,71,122,26
3,71,100,35
3,71,106,35
3,71,116,31
3,71,110,46
3,72,106,4
3,73,44,36
3,74,116,0
3,74,116,37
3,75,106,15
3,75,98,44
3,74,110,0
3,69,116,486
3,69,92,21
3,69,110,59
3,69,122,33
3,70,116,16
3,72,100,37
3,73,126,69
3,72,122,0
3,72,110,33
3,70,116,21
3,72,56,39
3,73,36,0
3,72,100,0
3,71,100,0
3,70,126,0
3,72,116,120
3,70,126,192
3,74,126,59
3,73,126,0
3,72,122,76
3,70,116,6
3,65,110,3
3,70,126,362
3,69,116,0
3,69,106,22
3,68,106,28
3,69,110,24
3,68,116,27
3,69,116,30
3,72,100,33
3,71,88,0
3,70,116,31
3,67,122,19
3,59,70,288
3,60,96,0
3,62,96,0
3,64,100,0
3,65,110,0
3,73,84,549
3,70,126,0
3,74,116,58
3,73,126,0
3,77,122,89
3,79,110,27
3,78,44,55
3,75,56,0
3,72,122,0
3,73,126,0
3,70,116,42
3,72,110,51
3,70,116,7
3,67,122,62
3,70,126,58
