track,note,velocity,time
1,76,11,0
1,77,33,134
1,79,39,144
1,81,37,140
1,76,31,132
1,77,44,126
1,79,51,132
1,81,40,136
1,64,44,88
1,76,38,32
1,65,31,62
1,77,51,12
1,67,37,48
1,79,48,36
1,69,34,34
1,81,36,36
1,64,41,32
1,76,29,40
1,65,28,42
1,77,35,14
1,67,21,64
1,79,41,64
1,69,32,48
1,81,31,48
1,70,44,54
1,64,41,12
1,76,41,10
1,65,25,72
1,77,34,8
1,67,40,28
1,79,45,24
1,69,38,40
1,81,38,22
1,64,37,54
1,76,30,26
1,65,8,74
1,77,34,50
1,67,27,60
1,79,44,60
1,69,38,28
1,81,28,26
1,72,67,38
1,64,57,18
1,76,34,16
1,65,44,2
1,77,48,26
1,67,47,38
1,79,47,32
1,69,39,38
1,81,30,30
1,64,61,10
1,76,32,42
1,65,38,34
1,77,40,24
1,67,38,44
1,79,41,24
1,69,34,30
1,81,31,8
1,70,68,40
1,64,47,16
1,76,36,2
1,65,20,58
1,77,39,0
1,67,37,24
1,79,53,10
1,69,33,58
1,81,36,26
1,64,51,48
1,76,29,30
1,65,17,48
1,77,28,10
1,67,24,54
1,79,29,12
1,69,29,26
1,81,19,0
1,73,46,24
1,64,44,34
1,76,28,8
1,65,31,44
1,77,34,8
1,67,32,56
1,79,37,20
1,69,29,32
1,81,30,24
1,64,46,36
1,76,27,34
1,65,30,42
1,77,15,38
1,67,32,30
1,79,38,12
1,69,30,44
1,81,15,0
1,74,28,32
1,62,59,10
1,76,25,44
1,72,51,32
1,77,29,38
1,70,46,18
1,79,39,42
1,69,46,24
1,81,30,48
1,72,58,30
1,74,37,38
1,70,44,26
1,76,32,40
1,69,41,28
1,77,34,30
1,67,51,40
1,79,31,46
1,74,28,56
1,62,67,8
1,76,39,52
1,72,59,32
1,77,47,32
1,70,56,36
1,79,54,42
1,69,50,30
1,81,49,34
1,72,52,46
1,74,48,26
1,70,44,36
1,76,46,30
1,69,33,42
1,77,44,20
1,67,49,48
1,79,54,30
1,69,47,36
1,62,64,6
1,76,45,20
1,72,67,32
1,77,55,32
1,70,58,32
1,74,54,42
1,67,59,34
1,76,45,38
1,69,50,24
1,72,45,34
1,65,51,24
1,74,50,36
1,67,43,38
1,70,43,16
1,64,57,40
1,72,49,24
1,69,29,56
1,62,54,2
1,76,53,2
1,72,55,64
1,77,55,24
1,70,47,54
1,74,57,20
1,67,48,52
1,76,41,22
1,69,49,38
1,72,40,40
1,65,49,28
1,74,49,28
1,69,31,50
1,76,36,4
1,74,51,56
1,77,40,4
1,73,52,54
1,77,39,6
1,81,54,56
1,76,39,28
1,73,48,30
1,77,56,40
1,81,57,50
1,76,44,18
1,73,56,34
1,77,59,90
1,79,64,34
1,76,49,18
1,73,52,42
1,77,52,44
1,79,65,26
1,76,56,40
1,70,73,6
1,73,54,16
1,77,56,86
1,82,59,44
1,76,43,30
1,73,36,56
1,77,53,20
1,82,46,58
1,76,34,26
1,73,36,52
1,77,39,32
1,82,43,32
1,76,32,38
1,73,36,42
1,77,41,28
1,82,41,34
1,76,38,32
1,73,37,8
1,77,36,34
1,81,47,2
1,76,33,40
1,73,35,32
1,77,31,46
1,81,43,18
1,76,35,40
1,73,40,36
1,77,34,86
1,79,47,6
1,76,32,42
1,73,30,34
1,77,32,36
1,79,31,42
1,76,25,34
1,73,39,10
1,66,34,6
1,70,38,2
1,75,41,2
1,82,54,72
1,77,28,60
1,73,13,58
1,75,41,44
1,82,17,54
1,77,41,8
1,70,56,20
1,63,61,2
1,66,47,2
1,71,39,0
1,78,62,30
1,73,44,20
1,70,37,50
1,71,59,16
1,78,42,40
1,73,49,34
1,73,31,36
1,66,50,0
1,70,42,4
1,75,53,0
1,82,69,46
1,77,45,30
1,73,46,56
1,75,49,26
1,82,32,48
1,77,42,8
1,70,44,30
1,66,39,6
1,63,52,2
1,71,40,28
1,78,62,22
1,73,38,20
1,70,44,46
1,71,51,34
1,78,53,32
1,73,43,70
1,66,37,2
1,59,24,4
1,63,56,2
1,68,41,114
1,75,50,82
1,70,28,40
1,66,23,28
1,68,42,6
1,75,45,26
1,70,44,42
1,66,46,24
1,68,40,40
1,75,41,28
1,70,41,20
1,66,36,36
1,68,38,28
1,75,53,24
1,70,31,36
1,63,84,20
1,66,40,14
1,68,40,20
1,75,50,42
1,70,44,26
1,66,37,34
1,68,35,38
1,75,49,0
1,70,38,50
1,61,76,12
1,63,52,18
1,66,38,0
1,68,44,10
1,75,47,48
1,70,39,4
1,66,38,42
1,68,31,34
1,75,38,6
1,70,28,42
1,59,52,2
1,66,34,12
1,63,37,4
1,68,41,4
1,75,42,50
1,70,30,24
1,66,31,22
1,68,37,20
1,75,35,20
1,70,30,28
1,66,39,24
1,68,28,26
1,75,38,20
1,70,23,32
1,66,32,14
1,68,30,26
1,75,46,8
1,70,31,34
1,63,57,12
1,66,41,2
1,68,36,68
1,75,44,42
1,70,36,20
1,66,29,48
1,68,27,56
1,75,41,16
1,70,26,26
1,61,60,64
1,63,28,12
1,66,31,2
1,68,32,6
1,75,48,32
1,70,28,14
1,66,36,32
1,68,32,18
1,75,31,20
1,70,24,44
1,60,59,22
1,63,36,6
1,66,19,4
1,68,35,98
1,75,43,88
1,70,31,0
1,66,38,26
1,68,26,10
1,75,48,6
1,70,30,40
1,61,48,0
1,63,42,2
1,66,38,4
1,68,29,6
1,77,50,20
1,70,27,18
1,66,45,10
1,58,29,14
1,68,26,6
1,77,53,106
1,70,37,14
1,60,53,22
1,63,40,8
1,66,34,4
1,68,38,104
1,75,57,28
1,70,36,36
1,66,52,22
1,68,37,22
1,75,54,4
1,70,29,50
1,61,58,6
1,66,38,12
1,63,49,2
1,68,30,12
1,77,54,24
1,70,22,36
1,58,53,40
1,66,25,14
1,68,40,24
1,77,58,32
1,70,39,70
1,78,86,206
1,54,38,44
1,60,23,26
1,66,25,4
1,62,29,2
1,68,50,8
1,60,32,32
1,66,33,18
1,62,41,30
1,68,38,36
1,50,44,20
1,74,79,4
1,60,29,8
1,66,43,4
1,62,43,22
1,68,44,32
1,60,41,56
1,66,26,30
1,62,49,32
1,68,41,32
1,76,66,10
1,52,54,8
1,60,28,4
1,66,35,46
1,62,21,18
1,68,28,8
1,60,37,30
1,66,24,32
1,62,48,0
1,68,38,40
1,60,49,40
1,66,39,12
1,62,53,50
1,68,45,16
1,76,72,66
1,52,55,8
1,60,46,0
1,66,45,38
1,62,37,28
1,68,42,60
1,78,78,82
1,54,47,10
1,60,35,0
1,66,27,52
1,62,24,36
1,68,38,30
1,78,70,70
1,60,23,34
1,66,27,22
1,62,38,6
1,68,28,24
1,74,68,20
1,60,41,2
1,50,42,2
1,66,30,32
1,62,30,54
1,68,39,14
1,60,26,38
1,74,60,16
1,66,21,96
1,62,44,2
1,68,28,6
1,76,55,26
1,60,31,8
1,52,30,4
1,66,38,102
1,62,28,62
1,68,34,8
1,60,36,40
1,66,32,8
1,62,40,44
1,68,35,10
1,60,41,60
1,66,26,10
1,62,36,18
1,68,31,22
1,60,30,54
1,66,22,12
1,62,28,2
1,68,28,8
1,76,57,24
1,52,29,14
1,60,23,0
1,66,28,14
1,62,23,6
1,68,36,12
1,60,23,56
1,66,22,4
1,62,38,40
1,68,36,0
1,48,39,16
1,72,46,8
1,60,17,0
1,66,25,16
1,62,19,26
1,68,34,50
1,60,31,30
1,66,17,58
1,62,41,66
1,68,21,60
1,74,54,26
1,58,22,4
1,50,38,2
1,65,29,100
1,60,15,46
1,67,39,0
1,58,33,36
1,65,29,26
1,60,40,26
1,67,43,10
1,58,35,40
1,65,22,24
1,60,33,24
1,67,35,14
1,50,27,4
1,74,79,0
1,58,18,10
1,65,24,120
1,60,40,16
1,67,38,22
1,76,72,72
1,52,54,2
1,60,27,0
1,66,32,118
1,62,33,28
1,68,45,16
1,76,58,62
1,60,26,30
1,66,25,46
1,62,42,34
1,68,40,38
1,48,39,0
1,72,57,6
1,60,27,4
1,66,19,32
1,62,35,46
1,68,23,8
1,72,52,26
1,60,16,18
1,62,42,88
1,66,18,2
1,68,35,34
1,74,61,6
1,50,40,2
1,58,24,4
1,65,30,126
1,60,37,22
1,67,36,22
1,58,31,34
1,65,34,12
1,60,34,44
1,67,35,8
1,58,24,36
1,65,13,42
1,60,31,72
1,67,24,18
1,58,22,8
1,65,26,28
1,60,24,34
1,67,30,26
1,62,54,66
1,50,60,0
1,64,39,32
1,60,56,22
1,65,39,20
1,58,36,32
1,67,38,30
1,57,39,20
1,69,32,44
1,60,59,26
1,62,72,14
1,58,33,28
1,64,38,32
1,57,29,48
1,65,42,52
1,55,43,76
1,67,44,22
1,62,66,12
1,50,67,14
1,64,53,72
1,60,55,50
1,65,41,14
1,58,38,32
1,67,44,16
1,57,46,18
1,69,23,52
1,60,53,10
1,62,64,2
1,58,31,32
1,64,31,30
1,57,19,6
1,65,28,8
1,55,26,34
1,67,34,2
1,60,57,4
1,55,46,46
1,62,38,102
1,48,20,42
1,63,51,40
1,43,42,52
1,65,39,62
1,36,25,42
1,67,51,48
1,43,42,84
1,62,51,6
1,48,40,74
1,63,48,14
1,57,45,8
1,65,28,28
1,53,68,54
1,67,36,30
1,60,73,90
1,55,50,12
1,62,63,90
1,48,33,36
1,63,57,42
1,43,36,60
1,65,44,2
1,36,38,66
1,67,39,62
1,43,39,64
1,62,44,60
1,48,34,76
1,63,31,8
1,57,12,76
1,65,28,70
1,53,48,38
1,67,31,50
1,62,56,62
1,60,31,174
1,63,58,54
1,60,26,116
1,82,67,44
1,65,42,22
1,82,75,24
1,60,32,2
1,67,51,6
1,82,68,52
1,60,36,90
1,82,66,74
1,62,42,18
1,60,37,34
1,82,90,6
1,63,58,10
1,82,92,26
1,60,51,92
1,82,88,36
1,65,49,54
1,82,76,10
1,60,52,30
1,82,75,52
1,67,45,12
1,60,18,82
1,82,73,30
1,62,39,16
1,60,23,2
1,81,70,2
1,63,44,22
1,60,33,42
1,79,84,24
1,65,34,30
1,60,35,34
1,67,53,40
1,60,48,98
1,62,61,110
1,60,47,110
1,63,70,80
1,60,34,50
1,82,86,96
1,65,45,6
1,60,48,16
1,81,87,40
1,67,46,8
1,79,96,68
1,60,33,24
1,79,79,2
1,62,43,18
1,60,44,118
1,63,44,12
1,60,35,20
1,77,59,142
1,65,33,4
1,76,50,22
1,60,29,2
1,67,40,10
1,74,59,0
1,58,28,74
1,73,49,22
1,67,34,42
1,58,21,44
1,70,41,36
1,67,31,50
1,58,37,26
1,67,38,56
1,58,35,22
1,67,44,60
1,58,37,16
1,67,57,46
1,58,40,38
1,67,39,28
1,58,41,14
1,77,75,36
1,65,44,22
1,58,27,110
1,76,53,46
1,65,38,48
1,74,62,24
1,58,15,4
1,73,71,0
1,64,61,6
1,58,51,104
1,70,68,30
1,64,52,40
1,58,42,38
1,77,91,0
1,65,78,28
1,58,52,10
1,76,83,24
1,65,65,6
1,74,91,2
1,58,50,68
1,73,71,4
1,76,62,58
1,61,55,0
1,64,39,42
1,78,69,2
1,66,76,8
1,85,95,16
1,60,63,8
1,82,68,40
1,58,61,26
1,60,66,30
1,58,57,82
1,60,45,6
1,58,50,8
1,60,64,26
1,58,61,18
1,60,54,36
1,58,52,24
1,60,56,32
1,58,53,26
1,60,57,14
1,58,39,32
1,60,52,38
1,61,47,14
1,64,57,14
1,58,51,12
1,73,68,10
1,66,40,6
1,60,51,42
1,58,39,22
1,70,38,32
1,60,45,48
1,58,41,24
1,60,38,22
1,58,37,18
1,60,32,36
1,58,41,30
1,60,43,38
1,58,48,24
1,60,50,38
1,58,40,34
1,60,17,2
1,58,32,88
1,60,52,64
1,58,26,2
1,60,44,74
1,46,56,74
1,58,25,0
1,60,42,74
1,45,73,12
1,46,69,62
1,58,27,0
1,60,36,8
1,42,85,0
1,58,23,2
1,46,69,82
1,60,43,2
1,45,83,44
1,58,33,28
1,46,75,40
1,60,51,28
1,48,78,50
1,58,29,14
1,60,47,74
1,58,34,0
1,60,41,82
1,58,28,0
1,60,46,76
1,49,72,18
1,58,30,64
1,50,84,4
1,60,57,6
1,58,37,62
1,60,63,64
1,51,81,0
1,58,41,2
1,52,105,6
1,61,73,22
1,58,47,60
1,61,79,48
1,58,61,64
1,61,88,76
1,70,62,0
1,73,68,72
1,58,56,38
1,61,67,6
1,58,54,64
1,61,64,80
1,58,34,60
1,60,50,76
1,58,19,94
1,46,53,2
1,60,49,0
1,45,59,2
1,46,66,60
1,58,30,8
1,60,42,6
1,42,75,74
1,58,27,2
1,60,44,78
1,46,72,4
1,45,81,50
1,58,35,16
1,46,85,42
1,60,49,12
1,48,74,32
1,58,48,8
1,60,63,20
1,58,39,80
1,60,39,76
1,58,23,4
1,60,35,98
1,49,68,20
1,58,35,42
1,51,86,30
1,60,49,10
1,58,39,46
1,60,44,10
1,53,98,0
1,58,31,8
1,54,86,26
1,61,59,74
1,58,32,66
1,61,62,68
1,58,39,70
1,61,68,22
1,70,59,50
1,73,57,74
1,70,46,0
1,73,47,8
1,70,46,64
1,73,43,18
1,70,78,60
1,73,52,10
1,70,50,12
1,73,54,98
1,68,75,56
1,82,73,8
1,73,51,6
1,82,77,8
1,70,40,16
1,73,55,24
1,82,72,34
1,82,70,0
1,66,72,2
1,73,53,50
1,82,84,0
1,70,56,6
1,73,59,18
1,82,79,32
1,70,48,16
1,65,71,14
1,82,72,8
1,73,53,32
1,82,88,28
1,70,43,38
1,82,75,16
1,73,52,34
1,82,67,54
1,64,63,16
1,70,33,16
1,73,33,138
1,81,71,40
1,70,33,16
1,73,35,60
1,70,31,46
1,79,76,2
1,73,34,54
1,70,28,46
1,73,39,26
1,70,16,8
1,65,35,8
1,73,30,42
1,70,31,52
1,73,38,32
1,82,82,50
1,70,31,54
1,73,40,48
1,81,86,28
1,70,37,42
1,79,99,6
1,73,48,28
1,70,39,50
1,79,76,6
1,73,49,30
1,70,44,0
1,73,50,8
1,77,68,38
1,67,41,6
1,70,41,6
1,76,56,50
1,67,27,34
1,74,65,10
1,70,47,10
1,73,58,84
1,64,35,14
1,67,37,40
1,70,50,34
1,64,57,4
1,67,60,36
1,61,62,10
1,65,56,110
1,61,53,20
1,65,59,8
1,58,64,28
1,61,72,18
1,58,54,8
1,61,70,88
1,77,87,18
1,68,53,10
1,51,40,6
1,59,54,0
1,62,63,6
1,76,73,32
1,59,42,12
1,74,88,44
1,62,55,10
1,73,73,46
1,67,49,6
1,58,37,8
1,63,58,38
1,58,37,40
1,70,68,6
1,63,66,10
1,77,94,28
1,59,71,2
1,68,62,0
1,51,54,2
1,62,58,10
1,76,79,40
1,59,66,22
1,74,89,40
1,62,65,4
1,73,90,86
1,67,78,4
1,58,58,6
1,63,85,96
1,70,82,4
1,58,50,0
1,63,65,34
1,77,105,42
1,68,89,2
1,59,100,6
1,62,93,0
1,76,91,50
1,62,90,40
1,64,40,2
1,74,95,2
1,65,90,24
1,54,100,82
1,73,98,2
1,61,107,4
1,70,90,0
1,66,86,4
1,63,102,2
1,63,87,50
1,63,90,62
1,63,98,44
1,63,87,70
1,63,84,56
1,73,87,64
1,70,83,4
1,58,85,0
1,61,97,2
1,65,81,86
1,63,87,38
1,63,86,42
1,63,95,52
1,63,87,56
1,63,90,56
1,63,81,54
1,73,84,48
1,70,82,2
1,61,95,0
1,55,105,4
1,63,84,20
1,63,91,44
1,63,76,54
1,63,90,42
1,63,86,40
1,63,81,48
1,63,92,38
1,63,90,44
1,63,90,42
1,63,73,30
1,63,89,42
1,63,90,56
1,63,95,44
1,63,86,56
1,63,97,42
1,73,90,46
1,70,85,0
1,61,103,6
1,54,99,0
1,66,83,8
1,63,91,2
1,63,86,44
1,63,92,60
1,63,75,50
1,63,90,46
1,63,96,40
1,73,88,24
1,70,81,2
1,61,105,6
1,58,86,2
1,65,81,0
1,63,94,22
1,63,87,46
1,63,101,44
1,63,81,48
1,63,88,52
1,63,95,44
1,73,88,8
1,55,92,2
