track,note,velocity,time
0,36,96,1075
0,36,96,0
0,48,109,5
0,48,109,0
0,36,0,222
0,36,0,0
0,48,0,5
0,48,0,0
0,45,90,3
0,45,90,0
0,57,107,2
0,57,107,0
0,40,72,367
0,40,0,10
0,45,0,7
0,45,0,0
0,57,0,5
0,57,0,0
0,40,112,8
0,40,0,10
0,40,94,20
0,43,84,3
0,43,84,0
0,55,99,5
0,55,99,0
0,40,0,2
0,50,99,3
0,50,0,10
0,40,121,7
0,40,0,10
0,47,65,93
0,47,0,10
0,40,107,7
0,40,0,10
0,43,0,75
0,43,0,0
0,55,0,5
0,55,0,0
0,45,89,3
0,45,89,0
0,57,107,5
0,57,107,0
0,43,99,5
0,43,0,10
0,35,105,110
0,43,80,0
0,35,0,10
0,43,0,0
0,45,0,85
0,45,0,0
0,57,0,5
0,57,0,0
0,36,117,12
0,35,127,0
0,42,54,0
0,49,63,0
0,40,91,2
0,40,91,0
0,52,96,3
0,52,107,2
0,79,77,0
0,52,107,0
0,35,0,3
0,42,0,0
0,49,0,0
0,42,40,80
0,42,0,10
0,36,0,57
0,60,81,43
0,36,115,2
0,55,85,8
0,35,115,0
0,42,56,0
0,35,0,10
0,42,0,0
0,60,0,80
0,60,101,25
0,42,43,5
0,42,0,10
0,36,0,69
0,36,120,33
0,60,82,3
0,35,74,5
0,42,51,0
0,35,0,10
0,42,0,0
0,40,120,7
0,40,0,10
0,60,0,70
0,42,44,23
0,42,0,10
0,60,0,37
0,36,0,7
0,36,111,58
0,60,74,0
0,60,85,5
0,35,127,3
0,42,58,0
0,35,0,10
0,42,0,0
0,60,0,29
0,55,0,68
0,60,102,8
0,42,44,5
0,42,0,10
0,36,0,82
0,36,110,20
0,35,71,8
0,42,57,0
0,35,0,10
0,42,0,0
0,42,46,110
0,42,0,10
0,36,0,54
0,36,112,32
0,55,84,8
0,35,69,0
0,42,55,0
0,35,0,10
0,42,0,0
0,42,46,110
0,42,0,10
0,36,0,64
0,36,113,38
0,60,100,8
0,35,89,0
0,42,57,0
0,35,0,10
0,42,0,0
0,40,121,7
0,40,0,10
0,55,0,38
0,42,39,55
0,42,0,10
0,40,53,7
0,40,0,10
0,36,0,27
0,36,112,58
0,55,71,8
0,35,65,0
0,42,57,0
0,35,0,10
0,42,0,0
0,60,0,20
0,42,41,80
0,42,0,10
0,52,0,15
0,60,0,5
0,36,0,37
0,36,118,45
0,53,94,3
0,35,127,5
0,42,53,0
0,35,0,10
0,42,0,0
0,60,0,59
0,42,45,51
0,42,0,10
0,36,0,62
0,55,0,10
0,60,78,28
0,36,110,2
0,35,109,8
0,42,54,0
0,55,85,2
0,35,0,8
0,42,0,0
0,60,0,25
0,60,105,77
0,42,46,8
0,42,0,10
0,36,0,72
0,36,116,30
0,60,85,8
0,35,80,0
0,42,56,0
0,35,0,10
0,42,0,0
0,40,121,7
0,40,0,10
0,42,42,93
0,42,0,10
0,60,0,14
0,60,0,28
0,40,0,32
0,40,0,0
0,36,0,0
0,52,0,5
0,52,0,0
0,36,116,23
0,60,83,0
0,36,95,3
0,36,95,0
0,48,107,5
0,35,127,0
0,42,56,0
0,48,107,0
0,60,89,2
0,35,0,8
0,42,0,0
0,60,0,34
0,60,98,32
0,42,46,8
0,42,0,10
0,36,0,49
0,36,0,41
0,36,0,0
0,48,0,5
0,48,0,0
0,36,116,7
0,45,87,0
0,45,87,0
0,57,104,2
0,57,104,0
0,35,79,3
0,42,57,0
0,35,0,10
0,42,0,0
0,42,45,80
0,42,0,10
0,36,0,47
0,36,115,55
0,55,76,8
0,35,61,0
0,42,53,0
0,35,0,10
0,42,0,0
0,42,46,110
0,42,0,10
0,45,0,54
0,45,0,0
0,57,0,5
0,57,0,0
0,36,0,3
0,36,115,40
0,43,88,3
0,43,88,0
0,55,104,5
0,60,97,0
0,35,79,0
0,42,57,0
0,55,104,0
0,55,0,10
0,35,0,0
0,42,0,0
0,40,118,7
0,40,0,10
0,42,42,80
0,42,0,10
0,40,35,7
0,40,0,10
0,36,0,25
0,43,0,53
0,43,0,0
0,55,0,5
0,55,0,0
0,36,120,2
0,45,88,0
0,45,88,0
0,57,100,5
0,57,100,0
0,55,70,3
0,35,61,0
0,46,51,0
0,35,0,10
0,46,0,0
0,60,0,7
0,60,0,90
0,53,0,7
0,36,0,70
0,45,0,27
0,45,0,0
0,57,0,5
0,57,0,0
0,36,119,3
0,55,0,0
0,52,90,5
0,40,96,3
0,35,127,0
0,42,55,0
0,40,96,0
0,52,108,5
0,52,108,0
0,35,0,5
0,42,0,0
0,60,0,72
0,42,39,8
0,42,0,10
0,55,0,7
0,36,0,55
0,60,85,30
0,36,114,2
0,35,70,8
0,42,57,0
0,55,88,2
0,35,0,8
0,42,0,0
0,60,0,20
0,60,105,80
0,42,45,10
0,42,0,10
0,40,0,60
0,40,0,0
0,52,0,5
0,52,0,0
0,36,0,7
0,36,114,30
0,38,91,5
0,38,91,0
0,60,83,3
0,35,78,0
0,42,56,0
0,50,99,2
0,50,99,0
0,35,0,8
0,42,0,0
0,40,122,7
0,60,0,5
0,40,0,5
0,42,42,93
0,42,0,10
0,60,0,27
0,36,0,44
0,38,0,20
0,38,0,0
0,50,0,5
0,50,0,0
0,36,114,3
0,36,90,0
0,36,90,0
0,60,84,0
0,48,103,5
0,60,82,0
0,48,103,0
0,35,127,3
0,42,56,0
0,35,0,10
0,42,0,0
0,60,0,29
0,60,99,68
0,42,42,13
0,42,0,10
0,36,0,19
0,36,119,53
0,35,80,8
0,42,53,0
0,35,0,10
0,42,0,0
0,42,43,0
0,42,0,10
0,36,0,17
0,36,118,32
0,55,81,8
0,35,65,0
0,42,54,0
0,35,0,10
0,42,0,0
0,42,41,0
0,52,0,2
0,42,0,8
0,36,0,32
0,36,117,32
0,60,103,8
0,35,80,0
0,42,55,0
0,55,0,5
0,35,0,5
0,42,0,0
0,40,123,7
0,40,0,10
0,79,0,2
0,42,41,0
0,81,79,2
0,42,0,8
0,40,53,7
0,40,0,10
0,60,0,15
0,36,0,0
0,31,120,2
0,55,74,8
0,35,69,0
0,42,52,0
0,35,0,10
0,42,0,0
0,60,0,7
0,55,0,67
0,42,41,13
0,42,0,10
0,36,0,27
0,36,0,0
0,48,0,5
0,48,0,0
0,31,0,35
0,60,0,12
0,31,118,23
0,50,96,8
0,35,127,0
0,42,55,0
0,35,0,10
0,42,0,0
0,55,0,40
0,42,40,70
0,42,0,10
0,31,0,62
0,59,81,38
0,31,112,2
0,35,109,8
0,42,55,0
0,55,87,2
0,35,0,8
0,42,0,0
0,59,0,32
0,59,105,68
0,42,43,10
0,42,0,10
0,31,0,72
0,59,0,15
0,31,120,15
0,59,85,5
0,35,76,3
0,42,57,0
0,35,0,10
0,42,0,0
0,40,125,7
0,40,0,10
0,55,0,10
0,42,44,83
0,42,0,10
0,31,0,74
0,31,110,28
0,59,80,3
0,31,94,2
0,31,94,0
0,35,127,3
0,42,59,0
0,43,109,2
0,43,109,0
0,35,0,8
0,42,0,0
0,59,0,42
0,59,102,58
0,35,89,10
0,42,42,0
0,35,0,10
0,42,0,0
0,31,0,49
0,31,0,45
0,31,0,0
0,43,0,5
0,43,0,0
0,31,118,3
0,45,92,0
0,45,92,0
0,57,101,2
0,57,101,0
0,35,71,3
0,42,57,0
0,35,0,10
0,42,0,0
0,42,45,40
0,42,0,10
0,40,124,7
0,40,0,10
0,31,0,30
0,31,118,55
0,55,83,8
0,35,70,0
0,42,58,0
0,35,0,10
0,42,0,0
0,40,63,7
0,40,0,10
0,42,40,93
0,42,0,10
0,45,0,54
0,45,0,0
0,57,0,5
0,57,0,0
0,31,0,3
0,59,0,30
0,43,88,8
0,43,88,0
0,31,117,2
0,55,100,3
0,55,100,0
0,55,0,0
0,59,96,5
0,35,86,0
0,42,54,0
0,35,0,10
0,42,0,0
0,40,123,7
0,40,0,10
0,42,43,93
0,42,0,10
0,40,49,7
0,40,0,10
0,31,0,25
0,43,0,50
0,43,0,0
0,55,0,5
0,55,0,0
0,45,92,3
0,45,92,0
0,31,122,2
0,57,101,3
0,57,101,0
0,55,78,5
0,35,69,0
0,42,55,0
0,45,97,0
0,59,0,10
0,35,0,0
0,42,0,0
0,45,0,0
0,50,0,90
0,81,0,4
0,42,46,0
0,42,0,10
0,31,0,67
0,45,0,23
0,45,0,0
0,59,0,4
0,57,0,1
0,57,0,0
0,36,115,7
0,35,127,0
0,42,52,0
0,49,68,0
0,76,91,2
0,40,91,3
0,40,91,0
0,35,0,5
0,42,0,0
0,49,0,0
0,52,101,2
0,52,101,0
0,55,0,23
0,42,41,80
0,42,0,10
0,36,0,57
0,36,115,45
0,35,109,8
0,42,56,0
0,35,0,10
0,42,0,0
0,42,40,110
0,42,0,10
0,36,0,69
0,36,115,33
0,35,79,8
0,42,58,0
0,35,0,10
0,42,0,0
0,40,123,7
0,40,0,10
0,42,42,93
0,42,0,8
0,36,0,44
0,36,111,58
0,69,108,8
0,35,127,0
0,42,52,0
0,35,0,8
0,42,0,0
0,69,0,67
0,72,119,43
0,42,40,0
0,42,0,10
0,36,0,82
0,36,111,20
0,35,71,8
0,42,58,0
0,35,0,8
0,42,0,0
0,72,0,55
0,69,106,22
0,42,40,33
0,42,0,8
0,69,0,17
0,36,0,37
0,72,113,23
0,36,114,25
0,35,65,3
0,42,51,0
0,48,110,0
0,35,0,10
0,42,0,0
0,42,41,40
0,42,0,8
0,72,0,12
0,36,0,22
0,69,109,13
0,36,114,25
0,35,83,8
0,42,57,0
0,35,0,8
0,42,0,0
0,40,124,7
0,40,0,10
0,69,0,22
0,74,118,38
0,42,45,33
0,42,0,8
0,40,46,7
0,40,0,10
0,36,0,27
0,74,0,5
0,69,112,28
0,36,113,25
0,35,64,8
0,42,53,0
0,35,0,8
0,42,0,0
0,69,0,34
0,72,115,76
0,42,39,0
0,42,0,10
0,36,0,57
0,84,81,33
0,36,119,12
0,35,127,8
0,42,53,0
0,35,0,10
0,42,0,0
0,42,39,110
0,42,0,10
0,36,0,62
0,36,111,40
0,35,106,8
0,42,53,0
0,35,0,10
0,42,0,0
0,72,0,55
0,76,0,7
0,42,42,48
0,42,0,10
0,36,0,72
0,36,113,30
0,35,71,8
0,42,52,0
0,35,0,10
0,42,0,0
0,40,125,7
0,40,0,10
0,42,41,93
0,40,0,10
0,40,0,0
0,42,0,0
0,52,0,62
0,52,0,0
0,36,0,12
0,36,115,28
0,53,100,2
0,53,100,0
0,35,127,3
0,42,55,0
0,35,0,10
0,42,0,0
0,42,41,80
0,42,0,10
0,36,0,19
0,36,116,32
0,35,77,8
0,42,51,0
0,35,0,10
0,42,0,0
0,42,44,40
0,42,0,10
0,36,0,47
0,36,114,55
0,35,64,8
0,42,55,0
0,35,0,10
0,42,0,0
0,42,43,110
0,42,0,10
0,36,0,62
0,36,113,40
0,35,74,8
0,42,53,0
0,35,0,10
0,42,0,0
0,40,122,7
0,40,0,10
0,42,39,93
0,42,0,10
0,40,34,7
0,40,0,10
0,36,0,25
0,36,115,60
0,35,67,8
0,46,45,0
0,35,0,10
0,46,0,0
0,36,0,187
0,36,116,35
0,35,127,8
0,42,51,0
0,35,0,10
0,42,0,0
0,64,61,15
0,42,46,95
0,42,0,10
0,36,0,62
0,36,116,40
0,35,66,8
0,42,58,0
0,35,0,10
0,42,0,0
0,42,45,110
0,42,0,10
0,36,0,72
0,36,113,30
0,35,80,8
0,42,55,0
0,35,0,8
0,42,0,0
0,40,120,7
0,40,0,10
0,67,120,93
0,42,43,0
0,42,0,8
0,36,0,74
0,67,0,3
0,36,112,25
0,67,110,8
0,35,127,0
0,42,51,0
0,35,0,8
0,42,0,0
0,67,0,42
0,76,114,68
0,42,40,0
0,42,0,10
0,36,0,49
0,53,0,50
0,53,0,0
0,36,119,3
0,60,79,8
0,35,79,0
0,42,58,0
0,35,0,8
0,42,0,0
0,48,0,37
0,76,0,53
0,42,40,20
0,42,0,10
0,74,113,30
0,36,0,17
0,60,0,53
0,36,113,2
0,55,56,8
0,35,62,0
0,42,56,0
0,35,0,8
0,42,0,0
0,74,0,35
0,72,107,35
0,42,45,40
0,42,0,8
0,36,0,62
0,72,0,15
0,36,113,25
0,72,113,8
0,35,76,0
0,42,56,0
0,35,0,8
0,42,0,0
0,40,122,7
0,40,0,10
0,72,0,75
0,72,111,18
0,42,41,0
0,42,0,8
0,40,47,7
0,40,0,10
0,64,0,23
0,36,0,37
0,72,0,10
0,36,119,15
0,69,108,8
0,35,70,0
0,42,58,0
0,35,0,8
0,42,0,0
0,69,0,77
0,72,117,33
0,42,45,0
0,42,0,10
0,55,0,50
0,36,0,17
0,31,119,35
0,35,127,8
0,42,51,0
0,35,0,8
0,42,0,0
0,72,0,87
0,42,40,23
0,42,0,10
0,67,92,10
0,31,0,52
0,31,115,40
0,35,116,8
0,42,56,0
0,35,0,10
0,42,0,0
0,42,43,110
0,42,0,10
0,67,0,57
0,31,0,15
0,31,120,30
0,35,74,8
0,42,52,0
0,35,0,10
0,42,0,0
0,40,124,7
0,40,0,10
0,42,41,93
0,42,0,10
0,31,0,74
0,31,115,28
0,35,127,8
0,42,54,0
0,35,0,10
0,42,0,0
0,55,75,110
0,35,95,0
0,42,45,0
0,35,0,10
0,42,0,0
0,31,0,49
0,31,118,53
0,67,91,3
0,35,76,0
0,42,56,0
0,72,102,7
0,35,0,3
0,42,0,0
0,42,39,0
0,42,0,10
0,40,116,7
0,40,0,10
0,31,0,17
0,84,0,2
0,69,79,3
0,31,118,27
0,57,71,0
0,35,61,0
0,42,54,0
0,35,0,10
0,42,0,0
0,40,59,7
0,55,0,10
0,40,0,0
0,42,42,0
0,42,0,10
0,31,0,62
0,31,119,40
0,35,80,8
0,42,57,0
0,35,0,10
0,42,0,0
0,40,118,7
0,40,0,10
0,42,39,93
0,42,0,10
0,40,45,7
0,40,0,10
0,31,0,25
0,33,115,60
0,35,62,8
0,46,50,0
0,35,0,10
0,46,0,0
0,33,0,187
0,28,118,35
0,35,127,8
0,42,51,0
0,35,0,10
0,42,0,0
0,57,0,10
0,42,46,100
0,42,0,10
0,28,0,62
0,28,108,40
0,35,109,8
0,42,58,0
0,35,0,10
0,42,0,0
0,55,72,110
0,42,44,0
0,42,0,10
0,55,0,50
0,28,0,22
0,28,117,30
0,55,73,8
0,35,80,0
0,42,57,0
0,35,0,10
0,42,0,0
0,40,122,7
0,40,0,10
0,42,46,93
0,42,0,10
0,55,0,72
0,28,0,2
0,28,115,28
0,60,96,8
0,35,127,0
0,42,53,0
0,35,0,10
0,42,0,0
0,42,44,110
0,42,0,8
0,28,0,49
0,28,112,53
0,35,78,8
0,42,56,0
0,35,0,8
0,42,0,0
0,67,109,30
0,67,0,60
0,42,43,20
0,42,0,10
0,76,119,30
0,28,0,17
0,28,120,55
0,35,61,8
0,42,56,0
0,35,0,8
0,42,0,0
0,76,0,105
0,42,41,5
0,74,116,8
0,42,0,0
0,28,0,62
0,74,0,5
0,28,114,35
0,35,84,8
0,42,57,0
0,35,0,8
0,42,0,0
0,74,119,5
0,40,124,2
0,40,0,10
0,42,39,93
0,42,0,10
0,74,0,2
0,40,45,5
0,40,0,10
0,72,112,23
0,28,0,2
0,28,120,60
0,35,66,8
0,42,58,0
0,72,0,3
0,35,0,5
0,42,0,0
0,72,118,55
0,42,42,55
0,42,0,10
0,60,0,52
0,28,0,15
0,29,119,35
0,35,127,8
0,42,53,0
0,35,0,10
0,42,0,0
0,67,0,30
0,42,45,80
0,42,0,8
0,29,0,62
0,72,0,35
0,29,115,5
0,35,116,8
0,42,51,0
0,35,0,10
0,42,0,0
0,69,117,5
0,55,76,105
0,42,41,0
0,42,0,8
0,69,0,20
0,55,0,30
0,29,0,22
0,29,117,30
0,72,117,8
0,55,76,0
0,35,76,0
0,42,53,0
0,35,0,10
0,42,0,0
0,40,124,7
0,40,0,10
0,42,44,93
0,42,0,8
0,72,0,65
0,55,0,7
0,29,0,2
