track,note,velocity,time
1,43,102,28512
1,45,74,24
1,33,108,192
1,45,88,52
1,35,102,60
1,47,84,384
1,35,96,116
1,47,88,156
1,35,92,12
1,33,96,28
1,45,96,0
1,33,96,192
1,45,88,184
1,38,96,84
1,26,96,28
1,38,96,24
1,26,88,4
1,31,92,4
1,43,92,576
1,31,108,32
1,43,92,192
1,33,114,40
1,35,102,44
1,47,84,384
1,35,96,116
1,47,88,156
1,35,92,12
1,33,96,28
1,45,96,0
1,33,96,192
1,45,88,184
1,38,96,84
1,26,96,28
1,38,96,24
1,26,88,4
1,31,92,4
1,43,92,576
1,31,108,32
1,43,92,192
1,33,114,40
1,35,102,44
1,47,84,384
1,35,96,116
1,47,88,156
1,35,92,12
1,33,96,28
1,26,96,320
1,38,62,384
1,38,88,100
1,26,84,368
1,38,80,172
1,26,80,180
1,26,102,100
1,38,50,384
1,38,96,164
1,26,102,8
1,38,102,48
1,26,84,192
1,33,96,16
1,33,96,84
1,33,84,52
1,33,70,24
1,33,74,80
1,33,114,52
1,33,66,48
1,33,88,20
1,33,70,52
1,33,108,32
1,33,80,40
1,33,84,20
1,33,84,52
1,33,108,16
1,33,84,60
1,26,102,60
1,26,114,156
1,26,102,136
1,26,102,144
1,26,108,152
1,26,108,144
1,31,96,60
1,32,92,12
1,33,102,36
1,33,102,196
1,33,102,164
1,33,102,140
1,33,102,160
1,33,108,160
1,33,108,104
1,29,66,28
1,26,102,64
1,26,114,156
1,26,102,136
1,26,102,144
1,26,108,152
1,26,108,144
1,31,96,60
1,32,92,12
1,33,102,36
1,33,102,196
1,33,102,164
1,33,102,140
1,33,102,160
1,33,108,160
1,33,108,104
1,29,66,28
1,35,102,64
1,47,84,384
1,35,96,116
1,47,88,156
1,35,92,12
1,33,96,28
1,45,96,0
1,33,96,192
1,45,88,184
1,38,96,84
1,26,96,28
1,38,96,24
1,26,88,4
1,31,92,4
1,43,92,576
1,31,108,32
1,43,92,192
1,33,114,40
1,35,102,44
1,47,84,384
1,35,96,116
1,47,88,156
1,35,92,12
1,33,96,28
1,45,96,0
1,33,96,192
1,45,88,184
1,38,96,84
1,26,96,28
1,38,96,24
1,26,88,4
1,31,92,4
1,43,92,576
1,31,108,32
1,43,92,192
1,33,114,40
1,35,102,44
1,47,84,384
1,35,96,116
1,47,88,156
1,35,92,12
1,33,96,28
1,26,96,320
1,38,62,384
1,38,88,100
1,26,84,368
1,38,80,172
1,26,80,180
1,26,102,100
1,38,50,384
1,38,96,164
1,26,102,8
1,38,102,48
1,26,84,192
1,33,96,16
1,33,96,84
1,33,84,52
1,33,70,24
1,33,74,80
1,33,114,52
1,33,66,48
1,33,88,20
1,33,70,52
1,33,108,32
1,33,80,40
1,33,84,20
1,33,84,52
1,33,108,16
1,33,84,60
1,26,96,60
1,38,62,384
1,38,88,100
1,26,84,368
1,38,80,172
1,26,80,180
1,26,102,100
1,38,50,384
1,38,96,164
1,26,102,8
1,38,102,48
1,26,84,192
1,33,96,16
1,33,96,84
1,33,84,52
1,33,70,24
1,33,74,80
1,33,114,52
1,33,66,48
1,33,88,20
1,33,70,52
1,33,108,32
1,33,80,40
1,33,84,20
1,33,84,52
1,33,108,16
1,33,84,60
1,29,108,60
1,29,102,60
1,29,108,12
1,29,88,60
1,29,102,40
1,29,108,76
1,29,114,48
1,29,108,72
1,34,108,4
1,34,88,60
1,34,108,60
1,34,92,72
1,34,96,20
1,34,102,60
1,34,108,48
1,34,102,84
1,36,102,36
1,36,92,84
1,36,102,92
1,36,102,52
1,36,96,32
1,36,114,2
1,38,108,568
1,34,102,76
1,34,102,60
1,34,114,56
1,29,108,64
1,29,102,60
1,29,108,12
1,29,88,60
1,29,102,40
1,29,108,76
1,29,114,48
1,29,108,72
1,34,108,4
1,34,88,60
1,34,108,60
1,34,92,72
1,34,96,20
1,34,102,60
1,34,108,48
1,34,102,84
1,36,108,36
1,36,108,60
1,36,114,24
1,36,108,64
1,36,108,20
1,36,114,36
1,36,114,32
1,36,114,52
1,48,102,4
1,48,96,64
1,48,80,72
1,36,96,192
1,48,92,92
1,36,96,148
1,48,92,124
1,38,88,56
1,26,92,192
1,33,102,8
1,38,88,100
1,26,92,192
1,33,102,8
1,26,102,100
1,26,114,156
1,26,102,136
1,26,102,144
1,26,108,152
1,26,108,144
1,31,96,60
1,32,92,12
1,33,102,36
1,33,102,196
1,33,102,164
1,33,102,140
1,33,102,160
1,33,108,160
1,33,108,104
1,29,66,28
1,26,102,64
1,26,114,156
1,26,102,136
1,26,102,144
1,26,108,152
1,26,108,144
1,31,96,60
1,32,92,12
1,33,102,36
1,33,102,196
1,33,102,164
1,33,102,140
1,33,102,160
1,33,108,160
1,33,108,104
1,29,66,28
1,35,102,64
1,47,84,384
1,35,96,116
1,47,88,156
1,35,92,12
1,33,96,28
1,45,96,0
1,33,96,192
1,45,88,184
1,38,96,84
1,26,96,28
1,38,96,24
1,26,88,4
1,31,92,4
1,43,92,576
1,31,108,32
1,43,92,192
1,33,114,40
1,35,102,44
1,47,84,384
1,35,96,116
1,47,88,156
1,35,92,12
1,33,96,28
1,45,96,0
1,33,96,192
1,45,88,184
1,38,96,84
1,26,96,28
1,38,96,24
1,26,88,4
1,31,92,4
1,43,92,576
1,31,108,32
1,43,92,192
1,33,114,40
1,35,102,44
1,47,84,384
1,35,96,116
1,47,88,156
1,35,92,12
1,33,96,28
1,26,96,320
1,38,62,384
1,38,88,100
1,26,84,368
1,38,80,172
1,26,80,180
1,26,102,100
1,38,50,384
1,38,96,164
1,26,102,8
1,38,102,48
1,26,84,192
1,33,96,16
1,33,96,84
1,33,84,52
1,33,70,24
1,33,74,80
1,33,114,52
1,33,66,48
1,33,88,20
1,33,70,52
1,33,108,32
1,33,80,40
1,33,84,20
1,33,84,52
1,33,108,16
1,33,84,60
1,26,96,60
1,38,62,384
1,38,88,100
1,26,84,368
1,38,80,172
1,26,80,180
1,26,102,100
1,38,50,384
1,38,96,164
1,26,102,8
1,38,102,48
1,26,84,192
1,33,96,16
1,33,96,84
1,33,84,52
1,33,70,24
1,33,74,80
1,33,114,52
1,33,66,48
1,33,88,20
1,33,70,52
1,33,108,32
1,33,80,40
1,33,84,20
1,33,84,52
1,33,108,16
1,33,84,60
1,26,96,60
1,38,62,384
1,38,88,100
1,26,84,368
1,38,80,172
1,26,80,180
1,26,102,100
1,38,50,384
1,38,96,164
1,26,102,8
1,38,102,48
1,26,84,192
1,33,96,16
1,33,96,84
1,33,84,52
1,33,70,24
1,33,74,80
1,33,114,52
1,33,66,48
1,33,88,20
1,33,70,52
1,33,108,32
1,33,80,40
1,33,84,20
1,33,84,52
1,33,108,16
1,33,84,60
1,26,96,60
1,38,62,384
1,38,88,100
1,26,84,368
1,38,80,172
1,26,80,180
1,26,102,100
1,38,50,384
1,38,96,164
1,26,102,8
1,38,102,48
1,26,84,192
1,33,96,16
1,33,96,84
1,33,84,52
1,33,70,24
1,33,74,80
1,33,114,52
1,33,66,48
1,33,88,20
1,33,70,52
1,33,108,32
1,33,80,40
1,33,84,20
1,33,84,52
1,33,108,16
1,33,84,60
1,26,96,60
1,38,62,384
1,38,88,100
1,26,84,368
1,38,80,172
1,26,80,180
1,26,102,100
1,38,50,384
1,38,96,164
1,26,102,8
1,38,102,48
1,26,84,192
1,33,96,16
1,33,96,84
1,33,84,52
1,33,70,24
1,33,74,80
1,33,114,52
1,33,66,48
1,33,88,20
1,33,70,52
1,33,108,32
1,33,80,40
1,33,84,20
1,33,84,52
1,33,108,16
1,33,84,60
1,26,96,60
1,38,62,384
1,38,88,100
1,26,84,368
1,38,80,172
1,26,80,180
1,26,102,100
1,38,50,384
1,38,96,164
1,26,102,8
1,38,102,48
1,26,84,192
1,33,96,16
1,33,96,84
1,33,84,52
1,33,70,24
1,33,74,80
1,33,114,52
1,33,66,48
1,33,88,20
1,33,70,52
1,33,108,32
1,33,80,40
1,33,84,20
1,33,84,52
1,33,108,16
1,33,84,60
1,26,108,60
2,50,120,1724
2,57,114,0
2,62,120,0
2,62,60,20
2,57,80,172
2,62,76,0
2,50,114,160
2,57,114,0
2,62,120,0
2,62,64,12
2,50,86,164
2,57,98,0
2,50,76,140
2,57,94,0
2,50,76,152
2,57,80,0
2,50,90,152
2,57,94,0
2,50,56,140
2,57,72,0
2,50,76,144
2,57,94,0
2,50,76,136
2,57,94,0
2,50,76,136
2,57,94,0
2,50,76,144
2,57,94,0
2,50,90,132
2,57,94,0
2,50,72,140
2,57,90,0
2,50,102,148
2,57,108,0
2,62,120,0
2,62,86,0
2,50,72,152
2,57,90,0
2,62,68,0
2,50,108,152
2,57,114,0
2,62,114,0
2,62,86,112
2,50,90,152
2,57,94,0
2,50,64,140
2,57,72,0
2,50,76,152
2,57,86,0
2,50,76,140
2,57,76,0
2,50,72,140
2,57,80,0
2,50,72,144
2,57,90,0
2,50,72,140
2,57,86,0
2,50,76,148
2,57,94,0
2,50,72,136
2,57,90,0
2,50,90,136
2,57,90,0
2,50,94,140
2,57,94,0
2,45,108,140
2,52,108,0
2,57,108,0
2,57,76,96
2,45,60,156
2,52,76,0
2,57,80,0
2,45,108,160
2,52,120,0
2,57,114,0
2,57,72,84
2,45,72,160
2,52,94,0
2,45,90,144
2,52,90,0
2,45,60,136
2,52,90,0
2,45,72,148
2,52,86,0
2,45,72,132
2,52,76,0
2,45,80,144
2,52,90,0
2,45,64,128
2,52,86,0
2,45,64,136
2,52,86,0
2,45,58,140
2,52,90,0
2,45,98,148
2,52,114,0
2,57,120,0
2,50,102,232
2,57,108,0
2,62,120,0
2,62,86,0
2,50,72,152
2,57,90,0
2,62,68,0
2,50,108,152
2,57,114,0
2,62,114,0
2,62,86,112
2,50,90,152
2,57,94,0
2,50,64,140
2,57,72,0
2,50,76,152
2,57,86,0
2,50,76,140
2,57,76,0
2,50,72,140
2,57,80,0
2,50,72,144
2,57,90,0
2,50,72,140
2,57,86,0
2,50,76,148
2,57,94,0
2,50,72,136
2,57,90,0
2,50,90,136
2,57,90,0
2,50,94,140
2,57,94,0
2,45,108,140
2,52,108,0
2,57,108,0
2,57,76,96
2,45,60,156
2,52,76,0
2,57,80,0
2,45,108,160
2,52,120,0
2,57,114,0
2,57,72,84
2,45,72,160
2,52,94,0
2,45,90,144
2,52,90,0
2,45,60,136
2,52,90,0
2,45,72,148
2,52,86,0
2,45,72,132
2,52,76,0
2,45,80,144
2,52,90,0
2,45,64,128
2,52,86,0
2,45,64,136
2,52,86,0
2,45,58,140
2,52,90,0
2,45,98,148
2,52,114,0
2,57,120,0
2,50,102,232
2,57,108,0
2,62,120,0
2,62,86,0
2,50,72,152
2,57,90,0
2,62,68,0
2,50,108,152
2,57,114,0
2,62,114,0
2,62,86,112
2,50,90,152
2,57,94,0
2,50,64,140
2,57,72,0
2,50,76,152
2,57,86,0
2,50,76,140
2,57,76,0
2,50,72,140
2,57,80,0
2,50,72,144
2,57,90,0
2,50,72,140
2,57,86,0
2,50,76,148
2,57,94,0
2,50,72,136
2,57,90,0
2,50,90,136
2,57,90,0
2,50,94,140
2,57,94,0
2,45,108,140
2,52,108,0
2,57,108,0
2,57,76,96
2,45,60,156
2,52,76,0
2,57,80,0
2,45,108,160
2,52,120,0
2,57,114,0
2,57,72,84
2,45,72,160
2,52,94,0
2,45,90,144
2,52,90,0
2,45,60,136
2,52,90,0
2,45,72,148
2,52,86,0
2,45,72,132
2,52,76,0
2,45,80,144
2,52,90,0
2,45,64,128
2,52,86,0
2,45,64,136
2,52,86,0
2,45,58,140
2,52,90,0
2,45,98,148
2,52,114,0
2,57,120,0
2,50,102,232
2,57,108,0
2,62,120,0
2,62,86,0
2,50,72,152
2,57,90,0
2,62,68,0
2,50,108,152
2,57,114,0
2,62,114,0
2,62,86,112
2,50,90,152
2,57,94,0
2,50,64,140
2,57,72,0
2,50,76,152
2,57,86,0
2,50,76,140
2,57,76,0
2,50,72,140
2,57,80,0
2,50,72,144
2,57,90,0
2,50,72,140
2,57,86,0
2,50,76,148
2,57,94,0
2,50,72,136
2,57,90,0
2,50,90,136
2,57,90,0
2,50,94,140
2,57,94,0
2,45,108,140
2,52,108,0
2,57,108,0
2,57,76,96
2,45,60,156
2,52,76,0
2,57,80,0
2,45,108,160
2,52,120,0
2,57,114,0
2,57,72,84
2,45,72,160
2,52,94,0
2,45,90,144
2,52,90,0
2,45,60,136
2,52,90,0
2,45,72,148
2,52,86,0
2,45,72,132
2,52,76,0
2,45,80,144
2,52,90,0
2,45,64,128
2,52,86,0
2,45,64,136
2,52,86,0
2,45,58,140
2,52,90,0
2,45,98,148
2,52,114,0
2,57,120,0
2,47,94,232
2,54,90,0
2,59,80,576
2,62,90,0
2,66,80,0
2,45,94,200
2,52,102,0
2,57,72,508
2,61,90,0
2,64,94,0
2,50,76,4
2,57,76,0
2,57,90,2
2,62,90,0
2,66,90,0
2,43,94,52
2,50,94,0
2,55,94,0
2,50,90,2
2,55,90,0
2,59,72,0
2,62,76,4
2,47,94,164
2,54,90,0
2,59,80,576
2,62,90,0
2,66,80,0
2,45,94,200
2,52,102,0
2,57,72,508
2,61,90,0
2,64,94,0
2,50,76,4
2,57,76,0
2,57,90,2
2,62,90,0
2,66,90,0
2,43,94,52
2,50,94,0
2,55,94,0
2,50,90,2
2,55,90,0
2,59,72,0
2,62,76,4
2,47,94,164
2,54,90,0
2,59,80,576
2,62,90,0
2,66,80,0
2,45,94,200
2,52,98,0
2,50,94,272
2,57,94,0
2,57,94,16
2,50,102,52
2,50,90,344
2,57,86,180
2,50,98,80
2,45,102,96
2,52,98,0
2,45,90,112
2,52,86,72
2,45,90,40
2,52,90,0
2,50,94,112
2,57,94,0
2,50,52,108
2,50,76,168
2,57,56,0
2,50,120,152
2,57,108,0
2,50,72,88
2,57,50,0
2,50,72,136
2,50,98,152
2,57,76,0
2,50,76,132
2,57,56,0
2,50,114,148
2,57,86,0
2,50,76,88
2,57,76,0
2,50,80,128
2,50,120,156
2,57,108,0
2,50,80,72
2,57,58,0
2,50,76,144
2,50,114,152
2,57,114,0
2,50,76,68
2,57,62,0
2,45,114,108
2,52,108,0
2,52,86,100
2,45,62,140
2,52,94,0
2,45,108,148
2,52,114,0
2,45,76,36
2,52,72,0
2,45,60,132
2,52,76,0
2,45,102,148
2,52,102,0
2,52,68,68
2,45,102,152
2,52,108,0
2,52,90,72
2,45,108,132
2,52,98,0
2,52,90,44
2,45,108,128
2,52,98,0
2,52,90,32
2,45,114,128
2,52,108,0
2,52,90,48
2,50,94,116
2,57,94,0
2,50,52,108
2,50,76,168
2,57,56,0
2,50,120,152
2,57,108,0
2,50,72,88
2,57,50,0
2,50,72,136
2,50,98,152
2,57,76,0
2,50,76,132
2,57,56,0
2,50,114,148
2,57,86,0
2,50,76,88
2,57,76,0
2,50,80,128
2,50,120,156
2,57,108,0
2,50,80,72
2,57,58,0
2,50,76,144
2,50,114,152
2,57,114,0
2,50,76,68
2,57,62,0
2,45,114,108
2,52,108,0
2,52,86,100
2,45,62,140
2,52,94,0
2,45,108,148
2,52,114,0
2,45,76,36
2,52,72,0
2,45,60,132
2,52,76,0
2,45,102,148
2,52,102,0
2,52,68,68
2,45,102,152
2,52,108,0
2,52,90,72
2,45,108,132
2,52,98,0
2,52,90,44
2,45,108,128
2,52,98,0
2,52,90,32
2,45,114,128
2,52,108,0
2,52,90,48
2,47,94,116
2,54,90,0
2,59,80,576
2,62,90,0
2,66,80,0
2,45,94,200
2,52,102,0
2,57,72,508
2,61,90,0
2,64,94,0
2,50,76,4
2,57,76,0
2,57,90,2
2,62,90,0
2,66,90,0
2,43,94,52
2,50,94,0
2,55,94,0
2,50,90,2
2,55,90,0
2,59,72,0
2,62,76,4
2,47,94,164
2,54,90,0
2,59,80,576
2,62,90,0
2,66,80,0
2,45,94,200
2,52,102,0
2,57,72,508
2,61,90,0
2,64,94,0
2,50,76,4
2,57,76,0
2,57,90,2
