track,note,velocity,time
1,67,75,72
1,67,92,42
1,72,95,28
1,60,113,22
1,70,86,756
1,63,68,0
1,66,61,10
1,67,79,210
1,74,89,2
1,71,60,4
1,70,80,208
1,77,81,2
1,73,71,2
1,71,57,206
1,74,61,4
1,67,38,14
1,66,52,188
1,63,38,12
1,70,45,4
1,67,79,140
1,67,89,34
1,72,110,10
1,60,111,32
1,63,76,798
1,70,82,4
1,66,72,4
1,67,89,216
1,74,87,2
1,71,70,2
1,77,85,206
1,70,76,4
1,73,72,0
1,71,59,210
1,74,57,0
1,67,55,4
1,70,89,194
1,66,69,2
1,63,51,8
1,67,69,124
1,67,69,32
1,72,110,4
1,60,108,26
1,68,86,510
1,61,76,4
1,65,75,6
1,67,88,346
1,67,87,48
1,72,104,10
1,60,96,52
1,58,85,498
1,65,79,8
1,61,59,0
1,67,59,360
1,67,50,20
1,72,78,6
1,60,63,38
1,68,100,704
1,61,97,4
1,65,98,4
1,65,93,134
1,58,88,2
1,62,73,6
1,62,80,212
1,55,79,2
1,59,38,14
1,58,85,192
1,51,64,4
1,54,62,4
1,52,78,202
1,48,71,4
1,55,70,4
1,47,60,222
1,51,68,4
1,44,62,0
1,43,34,214
1,43,34,38
1,48,80,12
1,36,74,60
1,24,109,1060
1,29,56,1900
1,61,63,24
1,62,59,0
1,50,27,16
1,57,44,6
1,48,2,92
1,36,76,16
1,38,65,210
1,41,73,202
1,43,67,10
1,45,72,58
1,43,62,24
1,41,74,74
1,38,58,222
1,29,63,68
1,61,69,130
1,50,51,10
1,48,74,4
1,62,55,4
1,57,53,4
1,56,34,18
1,36,74,138
1,38,59,162
1,41,71,208
1,43,55,18
1,45,69,2
1,48,80,4
1,50,94,68
1,53,79,204
1,55,63,212
1,41,39,14
1,60,56,156
1,62,63,0
1,57,22,6
1,53,75,54
1,50,71,52
1,36,63,4
1,24,47,8
1,62,67,26
1,60,58,0
1,53,82,48
1,55,98,82
1,29,83,4
1,41,83,2
1,62,64,170
1,60,54,12
1,57,44,4
1,53,89,38
1,50,95,76
1,24,84,8
1,36,73,2
1,62,60,8
1,60,57,6
1,57,78,12
1,56,115,90
1,59,102,2
1,62,108,0
1,60,107,2
1,67,84,208
1,67,97,46
1,72,109,34
1,60,119,46
1,71,20,50
1,55,100,210
1,58,113,16
1,60,96,32
1,62,108,38
1,55,106,50
1,55,95,42
1,60,99,54
1,48,110,16
1,43,104,40
1,48,97,80
1,36,92,88
1,29,87,110
1,61,79,252
1,62,78,0
1,50,65,4
1,48,94,0
1,57,82,2
1,56,37,26
1,36,83,64
1,38,74,214
1,41,94,206
1,43,83,4
1,45,78,36
1,43,69,22
1,41,88,46
1,38,79,220
1,29,81,18
1,61,68,16
1,62,76,8
1,50,50,4
1,57,61,6
1,48,78,4
1,36,88,80
1,38,79,158
1,41,81,212
1,43,77,26
1,45,91,18
1,48,79,50
1,50,97,86
1,53,84,200
1,55,92,204
1,38,66,14
1,26,68,0
1,57,77,40
1,60,101,72
1,69,88,8
1,65,84,4
1,62,97,62
1,64,110,82
1,43,86,0
1,31,77,4
1,62,94,200
1,71,74,8
1,65,84,2
1,67,85,2
1,45,87,154
1,33,83,0
1,60,79,0
1,67,73,0
1,64,76,8
1,59,74,62
1,57,90,24
1,35,60,10
1,47,64,0
1,66,68,182
1,63,65,0
1,59,61,12
1,32,88,178
1,44,81,4
1,56,81,42
1,63,68,10
1,60,58,6
1,55,79,34
1,54,90,8
1,50,84,12
1,38,85,2
1,57,78,188
1,62,69,4
1,60,66,4
1,44,89,176
1,32,90,2
1,56,86,176
1,63,76,6
1,60,67,8
1,55,102,0
1,54,93,30
1,50,81,8
1,38,79,2
1,54,86,48
1,62,66,52
1,57,77,2
1,60,66,6
1,56,70,54
1,32,67,106
1,44,63,0
1,56,70,200
1,63,50,16
1,60,47,8
1,55,40,36
1,54,58,24
1,38,51,20
1,50,51,4
1,57,50,178
1,62,37,10
1,60,23,10
1,32,76,160
1,44,69,2
1,56,73,192
1,63,66,10
1,60,55,6
1,55,74,52
1,54,72,44
1,50,70,10
1,38,61,2
1,54,65,52
1,60,70,52
1,62,57,4
1,57,66,0
1,56,75,54
1,55,78,90
1,54,68,64
1,56,79,66
1,55,80,74
1,54,66,78
1,53,73,66
1,55,74,66
1,54,76,64
1,53,83,76
1,52,84,66
1,54,89,58
1,53,87,58
1,52,95,72
1,51,89,82
1,53,91,70
1,52,98,26
1,48,98,104
1,83,97,312
1,66,76,0
1,78,85,0
1,71,72,4
1,63,62,8
1,57,63,12
1,59,45,6
1,48,99,72
1,83,97,188
1,78,85,2
1,66,53,6
1,71,70,2
1,57,60,8
1,59,34,24
1,63,43,6
1,48,71,38
1,86,74,52
1,81,57,8
1,69,39,0
1,74,41,10
1,58,37,6
1,60,35,4
1,65,30,24
1,84,64,226
1,72,38,20
1,67,30,2
1,79,43,2
1,64,26,28
1,46,76,22
1,44,66,74
1,42,59,70
1,29,63,84
1,61,69,264
1,62,74,6
1,50,45,0
1,48,87,4
1,57,60,0
1,36,70,16
1,38,78,4
1,41,72,214
1,43,66,6
1,45,74,20
1,43,62,2
1,41,67,82
1,38,72,220
1,29,62,56
1,61,62,40
1,62,78,2
1,57,57,2
1,50,24,10
1,48,39,14
1,36,77,52
1,38,83,220
1,41,88,204
1,43,83,16
1,45,75,24
1,48,76,84
1,50,73,80
1,53,68,214
1,67,68,204
1,39,58,10
1,27,53,0
1,55,42,184
1,61,44,10
1,65,69,66
1,44,66,64
1,32,55,6
1,62,52,8
1,54,42,150
1,60,52,26
1,65,73,66
1,67,84,72
1,39,76,2
1,27,64,8
1,55,60,188
1,61,52,0
1,65,72,10
1,44,63,66
1,62,67,8
1,32,50,0
1,54,47,164
1,60,65,6
1,70,92,46
1,67,88,74
1,41,68,4
1,29,67,6
1,63,58,154
1,57,54,18
1,65,79,20
1,46,95,16
1,62,69,2
1,34,76,10
1,56,57,162
1,60,66,10
1,65,90,50
1,67,103,62
1,45,95,6
1,33,86,6
1,61,72,198
1,55,71,0
1,65,97,4
1,62,100,12
1,50,96,4
1,38,89,6
1,54,76,10
1,60,78,12
1,70,101,70
1,72,88,304
1,72,95,48
1,77,101,26
1,65,119,52
1,67,116,132
1,61,103,2
1,58,107,4
1,68,104,304
1,62,95,4
1,59,92,0
1,60,105,36
1,60,101,40
1,65,106,64
1,53,117,8
1,41,106,52
1,48,123,32
1,36,111,44
1,41,120,54
1,29,119,2
1,70,50,1338
1,63,32,6
1,66,32,14
1,74,75,196
1,67,57,8
1,71,41,6
1,73,60,28
1,77,69,0
1,70,55,16
1,71,36,4
1,74,52,2
1,67,36,22
1,70,45,324
1,63,16,8
1,66,25,6
1,60,63,168
1,67,65,0
1,64,34,26
1,32,36,4
1,68,52,120
1,63,46,6
1,66,52,2
1,68,51,64
1,66,64,4
1,56,60,36
1,54,52,2
1,66,53,54
1,68,50,2
1,56,52,48
1,54,39,2
1,66,53,68
1,68,45,6
1,56,59,12
1,54,48,8
1,87,68,524
1,75,30,16
1,63,41,4
1,62,72,272
1,69,73,10
1,66,47,10
1,32,35,10
1,70,64,2
1,65,61,4
1,68,2,38
1,70,73,4
1,65,15,0
1,56,61,52
1,58,52,10
1,68,65,46
1,70,46,22
1,56,54,24
1,58,62,4
1,68,61,72
1,70,54,4
1,56,62,14
1,58,72,6
1,65,44,522
1,89,85,0
1,77,68,6
1,78,100,230
1,75,92,4
1,71,89,2
1,78,91,62
1,75,70,4
1,71,69,4
1,68,95,26
1,72,106,0
1,75,90,14
1,68,97,14
1,72,105,4
1,75,89,0
1,78,106,56
1,75,92,0
1,71,98,8
1,78,100,50
1,75,96,2
1,71,83,4
1,77,110,12
1,80,103,4
1,73,92,0
1,75,94,174
1,78,100,0
1,71,84,4
1,74,103,128
1,71,84,2
1,67,81,2
1,70,102,150
1,77,105,0
1,73,85,8
1,72,108,170
1,69,101,4
1,65,83,4
1,70,95,156
1,66,78,2
1,63,77,4
1,65,85,162
1,58,85,6
1,62,61,10
1,68,75,138
1,61,70,2
1,64,73,12
1,62,68,172
1,55,59,16
1,59,52,0
1,58,66,154
1,65,64,4
1,61,51,2
1,32,78,172
1,50,63,122
1,62,72,184
1,59,54,4
1,55,56,8
1,65,76,176
1,58,73,6
1,61,52,2
1,32,69,76
1,50,60,230
1,32,64,116
1,50,52,12
1,32,54,104
1,50,40,38
1,32,45,24
1,50,42,76
1,32,112,140
1,70,103,168
1,66,88,4
1,65,94,12
1,67,105,54
1,71,89,0
1,74,106,0
1,64,101,10
1,73,92,4
1,70,101,4
1,77,108,4
1,63,88,2
1,71,88,44
1,74,109,0
1,67,100,2
1,62,97,2
1,63,101,82
1,70,106,2
1,66,92,2
1,61,95,0
1,32,47,94
1,60,70,10
1,67,59,16
1,64,55,6
1,66,39,158
1,68,17,10
1,63,12,16
1,66,35,48
1,56,53,36
1,54,47,0
1,68,41,52
1,66,47,14
1,54,50,28
1,56,50,4
1,66,38,58
1,68,41,4
1,56,37,12
1,54,19,10
1,63,46,468
1,75,38,0
1,87,41,0
1,62,63,280
1,32,38,8
1,66,50,4
1,69,63,0
1,68,62,96
1,70,59,8
1,65,58,2
1,70,48,44
1,68,65,2
1,56,53,46
1,58,64,0
1,68,49,62
1,70,61,6
1,56,27,44
1,58,48,2
1,68,49,44
1,70,46,8
1,58,50,104
1,56,38,8
1,89,59,470
1,77,52,12
1,65,41,10
1,78,98,212
1,71,89,4
1,75,86,2
1,78,81,52
1,75,65,4
1,71,78,2
1,72,76,32
1,68,63,4
1,75,41,16
1,68,85,10
1,72,87,6
1,75,44,10
1,75,94,40
1,78,97,4
1,71,86,4
1,78,54,64
1,71,67,2
1,75,67,0
1,77,103,34
1,80,95,6
1,73,73,2
1,78,95,130
1,71,76,4
1,75,80,2
1,74,105,128
1,67,85,6
1,71,80,4
1,70,99,164
1,73,81,8
1,77,101,0
1,66,95,172
1,78,100,0
1,69,97,0
1,81,106,2
1,88,116,56
1,76,108,10
1,64,90,60
1,87,94,8
1,75,86,8
1,63,75,4
1,73,101,34
1,85,100,0
1,61,100,20
1,78,98,58
1,81,109,2
1,69,115,4
1,66,112,0
1,77,115,184
1,89,119,2
1,65,110,30
1,63,97,110
1,75,101,0
1,87,107,0
1,61,106,76
1,73,107,6
1,85,110,0
1,39,118,20
1,27,118,2
1,82,112,380
1,85,106,2
1,89,115,0
1,77,115,0
1,65,106,4
1,58,100,2
1,55,95,2
1,61,88,0
1,75,102,22
1,87,105,0
1,63,83,12
1,85,106,202
1,73,95,0
1,61,82,12
1,65,85,366
1,64,46,528
1,62,16,6
1,29,36,444
1,61,51,142
1,62,24,14
1,50,44,6
1,48,52,0
1,57,39,18
1,36,64,80
1,38,53,220
1,41,61,184
1,43,44,34
1,45,42,76
1,43,30,52
1,41,46,52
1,38,44,210
1,29,41,36
1,61,35,70
1,62,53,8
1,50,27,2
1,48,35,12
1,57,29,6
1,36,71,12
1,38,47,198
1,41,59,186
1,43,48,26
1,45,58,58
1,48,56,56
1,50,77,64
1,53,61,204
1,55,53,216
1,41,47,4
1,29,50,0
1,62,58,180
1,60,47,12
1,53,77,38
1,50,70,76
1,36,51,4
1,24,52,14
1,62,58,28
1,60,60,4
1,57,30,14
1,53,55,32
1,55,81,62
1,29,59,10
1,41,54,2
1,62,60,190
1,60,64,4
1,57,28,12
1,53,92,14
1,50,87,72
1,36,66,6
1,24,64,4
1,62,64,44
1,60,53,4
1,57,73,36
1,60,104,94
1,62,105,0
1,59,99,0
1,56,114,2
1,67,79,282
1,67,89,56
1,72,95,22
1,60,116,60
1,55,113,268
1,58,113,6
1,62,107,0
1,60,106,4
1,55,110,86
1,55,56,26
1,60,100,48
1,48,111,2
1,43,92,34
1,48,98,92
1,36,85,86
1,29,50,128
1,61,54,230
1,62,54,10
1,50,35,6
1,57,63,0
1,48,51,6
1,36,78,84
1,38,71,220
1,41,78,204
1,43,64,4
1,45,66,58
1,43,57,52
1,41,75,90
1,38,44,218
1,29,74,24
1,61,60,18
1,57,55,6
1,62,56,10
1,50,40,2
1,48,55,4
1,36,72,140
1,38,68,200
1,41,73,206
1,43,75,0
1,45,77,32
1,48,73,52
1,50,81,86
1,53,75,206
1,55,90,196
1,26,61,0
1,38,67,2
1,57,84,52
1,60,94,78
1,69,78,6
1,65,85,4
1,62,94,44
1,64,105,80
1,43,78,10
1,31,73,2
1,71,78,196
1,62,94,2
1,67,79,12
1,65,73,8
1,45,73,178
1,33,74,4
1,60,71,218
1,67,60,4
1,64,57,2
1,59,66,60
1,57,72,46
1,47,34,20
1,35,29,2
1,63,45,186
1,59,59,6
1,66,45,0
1,32,81,190
1,44,60,6
1,56,69,70
1,63,58,8
1,60,54,4
1,55,64,34
1,54,67,50
1,38,80,4
1,50,67,4
1,62,49,206
1,57,52,2
1,32,86,182
1,44,77,2
1,56,78,32
1,60,62,10
1,63,66,2
1,55,85,56
1,54,81,68
1,50,74,14
1,38,66,4
1,54,77,42
1,62,81,50
1,60,80,8
1,57,81,0
1,56,84,50
1,32,72,108
1,44,65,0
1,56,76,212
1,63,60,4
1,60,45,16
1,55,54,46
1,54,67,44
1,50,65,20
1,38,65,2
1,54,23,20
1,60,67,166
1,62,69,0
1,57,69,2
1,32,91,190
1,44,80,2
1,63,80,190
1,56,78,2
1,60,77,4
1,55,83,54
1,54,85,48
1,50,95,10
1,38,95,4
1,54,83,30
1,57,95,38
1,60,92,0
1,62,84,0
1,56,83,74
1,55,89,80
1,54,72,70
1,56,81,68
1,55,74,82
1,54,66,66
1,53,73,78
1,55,67,72
1,54,79,64
1,53,85,74
1,52,87,72
1,54,94,60
1,53,87,58
1,52,98,64
1,51,99,76
1,53,90,66
1,52,103,40
1,48,107,110
1,78,90,274
1,83,100,0
1,66,79,2
1,71,89,0
1,63,67,12
1,57,72,6
1,59,62,0
1,48,106,52
1,66,86,262
1,83,103,0
1,78,95,2
1,71,90,0
1,57,70,20
1,59,55,8
1,63,55,2
1,48,76,82
1,69,47,330
1,81,61,0
1,86,74,2
1,58,48,12
1,74,54,4
1,60,36,4
1,65,44,10
1,84,60,218
1,72,51,20
1,67,34,4
1,79,38,2
1,64,32,20
1,46,54,842
1,44,51,54
1,30,51,104
1,62,34,214
1,63,46,30
1,51,17,0
1,49,39,12
1,58,38,26
1,37,54,92
1,39,48,196
1,42,31,236
1,44,47,40
1,46,71,26
1,44,56,88
1,42,41,144
1,39,22,94
1,42,35,414
1,45,49,18
1,26,39,16
1,30,35,460
1,62,32,200
1,63,42,18
1,51,32,6
1,49,41,6
1,58,38,6
1,37,41,2
1,39,48,202
1,42,44,202
1,44,58,24
1,46,69,26
1,49,52,52
1,51,65,54
1,54,65,164
1,56,65,136
1,58,78,162
1,61,70,168
1,66,59,164
1,70,68,0
1,65,64,14
1,67,65,156
1,71,55,4
1,74,66,2
1,64,50,4
1,63,64,46
1,77,84,2
1,70,79,0
1,73,64,4
1,71,79,46
1,74,97,4
1,67,83,4
1,62,71,6
1,70,104,28
1,63,88,4
1,61,89,2
1,66,73,6
1,68,84,94
1,65,89,4
1,75,90,0
1,72,89,6
1,78,99,28
1,71,88,6
1,74,97,4
1,64,96,6
1,74,11,22
1,68,101,28
1,75,97,4
1,63,90,4
1,72,95,2
1,62,92,58
1,71,93,4
1,64,101,2
1,67,94,2
1,34,115,72
1,46,120,0
1,69,109,138
1,77,100,2
1,81,105,0
1,61,105,4
1,65,106,6
1,55,80,8
1,72,74,96
1,77,112,86
1,65,119,20
1,39,30,94
1,36,119,50
1,48,120,0
1,81,110,116
1,69,107,2
1,76,110,0
1,58,105,14
1,64,105,0
1,62,95,2
1,67,99,92
1,67,96,42
1,72,113,26
1,60,115,8
1,46,124,224
1,34,120,2
1,81,111,134
1,77,113,0
1,69,114,2
1,65,113,14
1,61,86,2
1,55,34,4
1,57,47,2
1,72,102,24
1,72,106,36
1,77,108,44
1,65,115,6
1,36,117,204
