track,note,velocity,time
1,36,95,4608
1,36,95,224
1,36,95,234
1,36,95,237
1,36,95,240
1,36,95,228
1,36,95,247
1,36,95,247
1,36,95,256
1,36,95,237
1,36,95,237
1,36,95,237
1,36,95,250
1,38,110,32
1,36,95,48
1,47,95,0
1,43,95,48
1,36,95,116
1,38,110,0
1,36,95,240
1,38,110,0
1,36,95,256
1,49,100,0
1,53,70,96
1,38,110,176
1,53,70,0
1,36,95,202
1,53,70,0
1,38,110,240
1,53,70,0
1,36,95,231
1,53,70,0
1,38,110,132
1,53,70,0
1,36,95,256
1,53,70,0
1,38,110,215
1,53,70,0
1,36,95,250
1,53,70,0
1,38,110,186
1,53,70,0
1,36,95,247
1,53,70,0
1,38,110,250
1,53,70,0
1,36,95,266
1,53,70,0
1,38,110,144
1,53,70,0
1,36,95,250
1,53,70,0
1,49,100,0
1,38,110,253
1,53,70,0
1,36,95,58
1,38,110,0
1,36,95,192
1,53,70,0
1,38,110,80
1,53,70,0
1,36,95,253
1,53,70,0
1,38,110,253
1,53,70,0
1,36,95,256
1,53,70,0
1,38,110,250
1,53,70,0
1,36,95,256
1,53,70,0
1,38,110,0
1,53,70,0
1,36,95,260
1,53,70,0
1,38,110,266
1,53,70,0
1,36,95,260
1,53,70,0
1,38,110,247
1,53,70,0
1,36,95,250
1,53,70,0
1,49,100,0
1,38,110,84
1,47,95,192
1,43,95,0
1,36,95,0
1,38,110,0
1,38,110,0
1,36,95,0
1,44,80,0
1,49,100,0
1,38,110,0
1,44,80,0
1,36,95,256
1,44,80,0
1,38,110,215
1,44,80,0
1,36,95,250
1,44,80,0
1,38,110,186
1,44,80,0
1,36,95,256
1,44,80,0
1,38,110,215
1,44,80,0
1,36,95,250
1,44,80,0
1,38,110,186
1,44,80,0
1,36,95,256
1,44,80,0
1,38,110,215
1,44,80,0
1,36,95,250
1,44,80,0
1,38,110,186
1,44,80,0
1,36,95,256
1,44,80,0
1,38,110,215
1,44,80,0
1,36,95,250
1,44,80,0
1,38,110,186
1,44,80,0
1,36,95,256
1,44,80,0
1,38,110,215
1,44,80,0
1,36,95,250
1,44,80,0
1,38,110,186
1,44,80,0
1,36,95,256
1,44,80,0
1,38,110,215
1,44,80,0
1,36,95,250
1,44,80,0
1,38,110,186
1,44,80,0
1,36,95,256
1,44,80,0
1,38,110,215
1,44,80,0
1,36,95,250
1,44,80,0
1,38,110,186
1,44,80,0
1,36,95,256
1,44,80,0
1,38,110,215
1,44,80,0
1,36,95,250
1,44,80,0
1,38,110,186
1,44,80,0
1,36,95,256
1,44,80,0
1,38,110,215
1,44,80,0
1,36,95,250
1,44,80,0
1,38,110,186
1,44,80,0
1,36,95,256
1,44,80,0
1,38,110,23
1,38,110,138
1,44,80,0
1,38,110,39
1,38,110,32
1,36,95,122
1,43,95,0
1,38,110,2880
1,36,95,48
1,47,95,0
1,43,95,48
1,36,95,116
1,38,110,0
1,36,95,240
1,38,110,0
1,36,95,256
1,49,100,0
1,53,70,96
1,38,110,176
1,53,70,0
1,36,95,202
1,53,70,0
1,38,110,240
1,53,70,0
1,36,95,231
1,53,70,0
1,38,110,132
1,53,70,0
1,36,95,256
1,53,70,0
1,38,110,215
1,53,70,0
1,36,95,250
1,53,70,0
1,38,110,186
1,53,70,0
1,36,95,247
1,53,70,0
1,38,110,250
1,53,70,0
1,36,95,266
1,38,110,0
1,92,100,0
1,38,110,68
1,38,110,48
1,38,110,39
1,38,110,87
1,38,110,64
1,36,95,42
1,38,110,0
1,38,110,128
1,38,110,144
1,47,95,0
1,36,95,144
1,38,110,0
1,43,95,0
1,36,95,0
1,44,80,0
1,49,100,0
1,38,110,0
1,44,80,0
1,36,95,256
1,44,80,0
1,38,110,215
1,44,80,0
1,36,95,250
1,44,80,0
1,38,110,186
1,44,80,0
1,36,95,256
1,44,80,0
1,38,110,215
1,44,80,0
1,36,95,250
1,44,80,0
1,38,110,186
1,44,80,0
1,36,95,256
1,44,80,0
1,38,110,215
1,44,80,0
1,36,95,250
1,44,80,0
1,38,110,186
1,44,80,0
1,36,95,256
1,44,80,0
1,38,110,215
1,44,80,0
1,36,95,250
1,44,80,0
1,38,110,186
1,44,80,0
1,36,95,256
1,44,80,0
1,38,110,215
1,44,80,0
1,36,95,250
1,44,80,0
1,38,110,186
1,44,80,0
1,36,95,256
1,44,80,0
1,38,110,215
1,44,80,0
1,36,95,250
1,44,80,0
1,38,110,186
1,44,80,0
1,36,95,256
1,44,80,0
1,38,110,215
1,44,80,0
1,36,95,250
1,44,80,0
1,38,110,186
1,44,80,0
1,36,95,256
1,44,80,0
1,38,110,215
1,44,80,0
1,36,95,250
1,44,80,0
1,38,110,186
1,44,80,0
1,36,95,256
1,44,80,0
1,38,110,215
1,44,80,0
1,36,95,250
1,44,80,0
1,38,110,186
1,44,80,0
1,36,95,256
1,44,80,0
1,38,110,215
1,44,80,0
1,36,95,250
1,38,110,0
1,43,95,0
1,38,110,32
1,36,95,2272
1,38,110,0
1,43,95,0
1,36,95,0
1,53,70,0
1,49,100,0
1,38,110,0
1,53,70,0
1,36,95,256
1,53,70,0
1,38,110,215
1,53,70,0
1,36,95,250
1,53,70,0
1,38,110,186
1,53,70,0
1,36,95,256
1,53,70,0
1,36,95,23
1,38,110,192
1,53,70,0
1,36,95,176
1,53,70,0
1,49,100,0
1,38,110,0
1,53,70,0
1,36,95,256
1,53,70,0
1,38,110,215
1,53,70,0
1,36,95,250
1,53,70,0
1,38,110,186
1,53,70,0
1,36,95,256
1,53,70,0
1,36,95,23
1,38,110,192
1,53,70,0
1,36,95,176
1,53,70,0
1,49,100,0
1,38,110,0
1,53,70,0
1,36,95,256
1,53,70,0
1,38,110,215
1,53,70,0
1,36,95,250
1,53,70,0
1,38,110,186
1,53,70,0
1,36,95,256
1,53,70,0
1,36,95,23
1,38,110,192
1,53,70,0
1,36,95,176
1,53,70,0
1,49,100,0
1,38,110,0
1,53,70,0
1,36,95,256
1,53,70,0
1,38,110,215
1,53,70,0
1,36,95,250
1,53,70,0
1,49,100,0
1,38,110,0
1,53,70,0
1,36,95,256
1,53,70,0
1,36,95,23
1,38,110,192
1,53,70,0
1,36,95,176
1,49,100,0
1,38,110,19
1,36,95,151
1,43,95,0
1,92,100,0
1,38,110,131
1,38,110,227
1,36,95,13
1,38,110,93
1,47,95,90
1,47,95,64
1,36,95,0
1,43,95,0
1,43,95,0
1,38,110,16
1,38,110,86
1,36,95,93
1,53,70,0
1,49,100,0
1,38,110,0
1,53,70,0
1,36,95,157
1,53,70,0
1,38,110,212
1,53,70,0
1,36,95,138
1,53,70,0
1,38,110,167
1,53,70,0
1,36,95,160
1,38,110,0
1,53,70,0
1,36,95,61
1,38,110,0
1,92,100,0
1,36,95,0
1,49,100,0
1,53,70,192
1,38,110,192
1,53,70,0
1,36,95,7
1,53,70,0
1,38,110,260
1,53,70,0
1,36,95,160
1,53,70,0
1,38,110,244
1,53,70,0
1,36,95,196
1,53,70,0
1,53,70,244
1,38,110,7
1,49,100,0
1,36,95,29
1,53,70,0
1,38,110,253
1,36,110,0
1,53,70,0
1,36,95,128
1,53,70,0
1,38,110,253
1,53,70,0
1,38,110,16
1,36,95,74
1,53,70,0
1,38,110,260
1,53,70,0
1,36,95,186
1,53,70,0
1,38,110,263
1,53,70,0
1,38,110,68
1,36,95,77
1,53,70,0
1,92,100,0
1,38,110,61
1,53,70,0
1,36,95,151
1,38,110,0
1,53,70,0
1,38,110,224
1,53,70,0
1,36,95,212
1,38,110,0
1,47,95,0
1,53,70,0
1,47,95,45
1,47,95,0
1,53,70,0
1,36,95,0
1,38,110,0
1,43,95,0
1,53,70,0
1,38,110,0
1,43,95,0
1,53,70,0
1,36,95,64
1,92,100,0
1,36,95,0
1,53,70,0
1,49,100,0
1,38,110,0
1,53,70,0
1,36,95,157
1,53,70,0
1,38,110,212
1,53,70,0
1,36,95,138
1,53,70,0
1,38,110,167
1,53,70,0
1,36,95,160
1,38,110,0
1,53,70,0
1,36,95,61
1,38,110,0
1,92,100,0
1,36,95,0
1,49,100,0
1,53,70,192
1,38,110,192
1,53,70,0
1,36,95,7
1,53,70,0
1,38,110,260
1,53,70,0
1,36,95,160
1,53,70,0
1,38,110,244
1,53,70,0
1,36,95,196
1,53,70,0
1,53,70,244
1,38,110,7
1,49,100,0
1,36,95,29
1,53,70,0
1,38,110,253
1,36,110,0
1,53,70,0
1,36,95,128
1,53,70,0
1,38,110,253
1,53,70,0
1,38,110,16
1,36,95,74
1,53,70,0
1,38,110,260
1,53,70,0
1,36,95,186
1,53,70,0
1,38,110,263
1,53,70,0
1,38,110,68
1,36,95,77
1,53,70,0
1,92,100,0
1,38,110,0
1,53,70,0
1,36,95,151
1,53,70,0
1,38,110,250
1,53,70,0
1,36,95,212
1,38,110,0
1,47,95,0
1,53,70,0
1,38,110,32
1,47,95,13
1,38,110,0
1,47,95,0
1,53,70,0
1,36,95,0
1,38,110,0
1,43,95,0
1,53,70,0
1,38,110,0
1,43,95,0
1,53,70,0
1,38,110,64
1,49,100,0
1,36,95,0
1,53,70,96
1,38,110,176
1,53,70,0
1,36,95,202
1,53,70,0
1,38,110,240
1,53,70,0
1,36,95,231
1,53,70,0
1,38,110,132
1,53,70,0
1,36,95,256
1,53,70,0
1,38,110,215
1,53,70,0
1,36,95,250
1,53,70,0
1,38,110,186
1,53,70,0
1,36,95,247
1,53,70,0
1,38,110,250
1,53,70,0
1,36,95,266
1,53,70,0
1,38,110,144
1,53,70,0
1,36,95,247
1,53,70,0
1,38,110,250
1,53,70,0
1,36,95,74
1,36,95,192
1,49,100,0
1,38,110,144
1,53,70,0
1,36,95,202
1,53,70,0
1,38,110,240
1,53,70,0
1,36,95,231
1,53,70,0
1,38,110,132
1,53,70,0
1,36,95,256
1,53,70,0
1,38,110,215
1,53,70,0
1,36,95,250
1,53,70,0
1,38,110,186
1,53,70,0
1,36,95,247
1,53,70,0
1,38,110,250
1,53,70,0
1,36,95,266
1,53,70,0
1,38,110,144
1,53,70,0
1,36,95,247
1,53,70,0
1,38,110,250
1,53,70,0
1,36,95,74
1,49,100,0
1,36,95,74
1,53,70,0
1,38,110,144
1,53,70,0
1,36,95,202
1,53,70,0
1,38,110,240
1,53,70,0
1,36,95,231
1,53,70,0
1,38,110,132
1,53,70,0
1,36,95,256
1,53,70,0
1,38,110,215
1,53,70,0
1,36,95,250
1,53,70,0
1,38,110,186
1,53,70,0
1,36,95,247
1,53,70,0
1,38,110,250
1,53,70,0
1,36,95,266
1,53,70,0
1,38,110,144
1,53,70,0
1,36,95,247
1,53,70,0
1,38,110,250
1,53,70,0
1,36,95,74
1,49,100,0
1,36,95,74
1,53,70,0
1,38,110,144
1,53,70,0
1,36,95,202
1,53,70,0
1,38,110,240
1,53,70,0
1,36,95,231
1,53,70,0
1,38,110,132
1,53,70,0
1,38,110,32
1,36,95,64
1,36,95,192
1,53,70,0
1,38,110,10
1,53,70,0
1,38,110,16
1,36,95,250
1,38,110,0
1,53,70,0
1,53,70,154
1,38,110,55
1,36,95,90
1,53,70,0
1,38,110,250
1,53,70,0
1,36,95,266
1,38,110,0
1,53,70,0
1,38,110,45
1,38,110,45
1,38,110,45
1,38,110,32
1,53,70,0
1,38,110,36
1,38,110,42
1,38,110,36
1,36,95,26
1,38,110,0
1,53,70,0
1,38,110,39
1,38,110,32
1,38,110,32
1,38,110,26
1,53,70,0
1,36,95,74
1,38,110,0
1,49,100,0
1,38,110,1261
1,47,95,68
1,43,95,4
1,38,110,74
1,38,110,237
1,36,95,71
1,38,110,1536
1,47,95,58
1,43,95,45
1,38,110,52
1,38,110,253
1,36,95,100
1,38,110,0
1,49,100,0
1,36,95,100
1,44,80,0
1,38,110,192
1,44,80,0
1,36,95,256
1,44,80,0
1,38,110,215
1,44,80,0
1,36,95,250
1,44,80,0
1,38,110,186
1,44,80,0
1,36,95,256
1,44,80,0
1,38,110,215
1,44,80,0
1,36,95,250
1,44,80,0
1,38,110,186
1,44,80,0
1,36,95,256
1,44,80,0
1,38,110,215
1,44,80,0
1,36,95,250
1,44,80,0
1,38,110,186
1,44,80,0
1,36,95,256
1,44,80,0
1,38,110,215
1,44,80,0
1,36,95,250
1,44,80,0
1,38,110,186
1,44,80,0
1,36,95,256
1,44,80,0
1,38,110,215
1,44,80,0
1,36,95,250
1,44,80,0
1,38,110,186
1,44,80,0
1,36,95,256
1,44,80,0
1,38,110,215
1,44,80,0
1,36,95,250
1,38,110,0
1,43,95,0
1,38,110,32
1,36,95,2080
1,36,95,192
1,38,110,0
1,43,95,0
1,36,95,0
1,44,80,0
1,49,100,0
1,38,110,148
1,44,80,0
1,36,95,256
1,44,80,0
1,38,110,215
1,44,80,0
1,36,95,250
1,44,80,0
1,38,110,186
1,44,80,0
1,36,95,256
1,44,80,0
1,38,110,215
1,44,80,0
1,36,95,250
1,38,110,0
1,43,95,0
1,38,110,32
1,36,95,1312
1,49,100,0
1,36,95,164
1,92,100,0
1,36,95,176
1,49,100,0
1,36,95,263
1,44,80,0
1,49,100,0
1,38,110,0
1,44,80,0
1,36,95,256
1,44,80,0
1,38,110,215
1,44,80,0
1,36,95,250
1,44,80,0
1,38,110,186
1,44,80,0
1,36,95,256
1,44,80,0
1,38,110,61
1,38,110,45
1,38,110,13
1,44,80,0
1,38,110,29
1,38,110,26
1,36,95,132
1,38,110,0
1,43,95,0
1,38,110,32
1,36,100,3424
1,36,100,48
1,38,110,48
1,38,110,32
1,36,95,650
1,49,100,0
1,36,95,231
1,92,100,0
1,36,95,192
1,49,100,0
1,36,95,250
1,92,100,0
1,36,95,237
1,49,100,0
1,36,95,212
1,92,100,0
1,36,95,256
1,49,100,0
1,36,95,247
1,49,100,0
1,92,100,0
1,36,95,279
1,49,100,0
1,36,95,263
1,92,100,0
1,36,95,279
1,49,100,0
1,36,95,250
1,92,100,0
1,36,95,266
1,49,100,0
1,36,95,263
1,92,100,0
1,36,95,263
1,49,100,0
1,36,95,253
1,92,100,0
1,36,95,253
1,49,100,0
1,38,110,858
1,38,110,106
1,38,110,960
1,38,110,55
1,38,110,70
1,36,100,39
1,49,100,0
2,52,100,0
2,50,100,58
2,47,100,106
2,43,100,36
2,45,100,13
2,40,100,192
2,40,100,48
2,40,100,199
2,40,100,250
2,40,100,244
2,40,100,240
2,40,100,42
2,43,100,45
2,40,100,23
2,45,100,32
2,43,100,10
2,40,100,32
2,40,100,77
2,40,100,266
2,40,100,189
2,40,100,199
2,40,100,180
2,40,100,80
2,43,100,32
2,40,100,10
2,43,100,52
2,45,100,384
2,43,100,189
2,40,100,77
2,40,100,282
2,40,100,276
2,40,100,224
2,40,100,170
2,40,100,71
2,43,100,7
2,40,100,7
2,45,100,32
2,43,100,23
2,40,100,42
2,40,100,68
2,40,100,247
2,40,100,196
2,40,100,138
2,40,100,167
2,40,100,96
2,43,100,26
2,40,100,10
2,43,100,39
2,45,100,384
2,43,100,176
2,40,100,109
2,40,100,93
2,40,100,103
2,40,100,84
2,40,100,100
2,40,100,96
2,40,100,84
2,40,100,103
2,40,100,90
2,40,100,100
2,43,100,55
2,40,100,71
2,45,100,61
2,43,100,26
2,40,100,13
2,40,100,42
2,40,100,112
2,40,100,77
2,40,100,103
2,40,100,87
2,40,100,109
2,40,100,90
2,40,100,74
2,40,100,64
2,52,100,58
2,50,100,42
2,47,100,10
2,43,100,16
2,45,100,16
2,45,100,23
2,45,100,29
2,45,100,77
2,45,100,90
2,45,100,61
2,45,100,100
2,45,100,80
2,45,100,90
2,45,100,77
2,45,100,87
2,45,100,77
2,45,100,109
2,45,100,96
2,45,100,103
2,45,100,74
2,45,100,116
2,45,100,109
2,40,100,119
2,40,100,87
2,40,100,103
2,40,100,90
2,40,100,109
2,40,100,100
2,40,100,100
2,40,100,90
2,40,100,103
2,52,100,192
2,50,100,29
2,47,100,4
2,43,100,23
2,45,100,384
2,47,100,42
2,47,100,52
2,47,100,96
