track,note,velocity,time
0,37,64,384
0,42,64,0
0,37,0,7
0,42,0,0
0,42,80,3
0,42,49,230
0,49,68,5
0,42,0,2
0,37,64,233
0,42,64,0
0,52,73,7
0,37,0,0
0,42,0,0
0,42,0,213
0,42,47,20
0,42,0,7
0,42,68,3
0,49,0,207
0,37,64,23
0,42,64,0
0,49,68,5
0,37,0,2
0,42,0,0
0,52,0,217
0,42,49,16
0,52,71,2
0,42,0,5
0,49,0,200
0,49,66,30
0,37,64,3
0,42,64,0
0,37,0,7
0,42,0,0
0,42,0,220
0,42,61,13
0,42,47,0
0,42,0,7
0,45,73,230
0,42,0,0
0,37,64,3
0,42,64,0
0,37,0,7
0,42,0,0
0,49,0,205
0,49,56,20
0,42,49,8
0,42,0,7
0,52,0,190
0,52,75,35
0,37,64,8
0,42,64,0
0,37,0,7
0,42,0,0
0,47,73,233
0,42,47,0
0,42,0,7
0,45,0,30
0,49,0,182
0,51,61,18
0,37,64,3
0,42,64,0
0,37,0,7
0,42,0,0
0,52,0,222
0,52,68,11
0,42,49,0
0,42,0,7
0,51,0,210
0,51,73,20
0,37,64,3
0,42,64,0
0,37,0,7
0,42,0,0
0,47,0,223
0,47,64,10
0,42,47,0
0,42,0,7
0,52,0,230
0,51,0,0
0,47,0,0
0,37,64,3
0,42,64,0
0,37,0,7
0,42,0,0
0,42,80,3
0,42,49,230
0,49,68,5
0,42,0,2
0,37,64,233
0,42,64,0
0,52,73,7
0,37,0,0
0,42,0,0
0,42,0,213
0,42,47,20
0,42,0,7
0,42,68,3
0,49,0,207
0,37,64,23
0,42,64,0
0,49,68,5
0,37,0,2
0,42,0,0
0,52,0,217
0,42,49,16
0,52,71,2
0,42,0,5
0,49,0,200
0,49,66,30
0,37,64,3
0,42,64,0
0,37,0,7
0,42,0,0
0,42,0,220
0,42,61,13
0,42,47,0
0,42,0,7
0,45,73,230
0,42,0,0
0,37,64,3
0,42,64,0
0,37,0,7
0,42,0,0
0,49,0,205
0,49,56,20
0,42,49,8
0,42,0,7
0,52,0,190
0,52,75,35
0,37,64,8
0,42,64,0
0,37,0,7
0,42,0,0
0,47,73,233
0,42,47,0
0,42,0,7
0,45,0,30
0,57,111,83
0,49,0,99
0,51,61,18
0,37,64,3
0,38,17,0
0,42,65,0
0,37,0,7
0,38,0,0
0,42,0,0
0,38,14,53
0,38,0,7
0,38,17,53
0,38,0,7
0,38,21,53
0,38,0,7
0,52,0,42
0,52,68,11
0,38,26,0
0,42,46,0
0,38,0,7
0,42,0,0
0,38,31,53
0,38,0,7
0,38,36,53
0,38,0,7
0,38,46,53
0,38,0,7
0,51,0,30
0,57,0,8
0,51,73,12
0,37,64,3
0,38,90,0
0,42,64,0
0,37,0,7
0,38,0,0
0,42,0,0
0,42,111,3
0,42,0,160
0,39,86,5
0,47,0,55
0,47,64,10
0,42,47,0
0,42,0,7
0,37,79,23
0,39,0,27
0,34,72,55
0,37,0,20
0,32,63,63
0,34,0,9
0,52,0,33
0,51,0,0
0,47,0,0
0,30,104,3
0,37,64,0
0,42,64,0
0,37,0,6
0,42,0,0
0,42,80,3
0,32,0,0
0,42,49,230
0,49,68,5
0,42,0,2
0,64,87,1
0,42,76,19
0,37,64,0
0,42,64,0
0,52,73,6
0,37,0,0
0,42,0,0
0,42,0,159
0,42,47,20
0,42,0,7
0,42,68,3
0,49,0,207
0,37,64,19
0,42,64,0
0,49,68,4
0,37,0,2
0,42,0,0
0,52,0,118
0,42,49,16
0,52,71,2
0,42,0,5
0,30,0,138
0,42,0,60
0,49,0,2
0,49,66,30
0,30,102,3
0,37,64,0
0,42,64,0
0,37,0,7
0,42,0,0
0,42,0,220
0,32,95,13
0,42,61,0
0,42,47,0
0,42,0,7
0,30,0,23
0,45,73,207
0,42,0,0
0,33,102,3
0,37,64,0
0,42,64,0
0,37,0,7
0,42,0,0
0,32,0,25
0,49,0,180
0,49,56,20
0,42,49,8
0,42,0,7
0,52,0,190
0,52,75,35
0,37,64,8
0,42,64,0
0,37,0,7
0,42,0,0
0,35,89,233
0,47,73,0
0,42,47,0
0,42,0,7
0,33,0,9
0,45,0,12
0,61,83,3
0,64,0,1
0,49,0,18
0,51,61,18
0,37,64,3
0,42,64,0
0,37,0,7
0,42,0,0
0,52,0,222
0,52,68,11
0,42,49,0
0,42,0,7
0,51,0,16
0,51,73,20
0,80,105,0
0,33,95,3
0,37,64,0
0,42,64,0
0,35,0,1
0,37,0,5
0,42,0,0
0,47,0,29
0,32,90,10
0,47,64,0
0,42,47,0
0,42,0,6
0,33,0,33
0,52,0,36
0,51,0,0
0,47,0,0
0,30,107,3
0,37,64,0
0,42,64,0
0,37,0,6
0,42,0,0
0,42,80,3
0,32,0,22
0,42,49,39
0,49,68,4
0,42,0,2
0,42,79,39
0,37,64,0
0,42,64,0
0,52,73,6
0,37,0,0
0,42,0,0
0,42,0,19
0,42,47,20
0,42,0,6
0,42,68,3
0,49,0,16
0,37,64,23
0,42,64,0
0,49,68,4
0,37,0,2
0,42,0,0
0,52,0,23
0,42,49,16
0,52,71,1
0,42,0,5
0,30,0,24
0,49,0,6
0,49,66,30
0,42,0,0
0,30,97,3
0,37,64,0
0,42,64,0
0,37,0,6
0,42,0,0
0,42,0,26
0,32,97,13
0,42,61,0
0,42,47,0
0,42,0,6
0,30,0,8
0,45,73,36
0,42,0,0
0,33,104,3
0,37,64,0
0,42,64,0
0,32,0,0
0,37,0,6
0,42,0,0
0,49,0,11
0,49,56,20
0,42,49,8
0,42,0,6
0,52,0,76
0,52,75,26
0,37,64,8
0,42,64,0
0,37,0,7
0,42,0,0
0,33,0,4
0,28,111,5
0,47,73,0
0,42,47,0
0,42,0,7
0,45,0,1
0,49,0,18
0,51,61,16
0,37,64,3
0,42,64,0
0,37,0,4
0,42,0,0
0,52,0,6
0,52,68,11
0,42,49,0
0,42,0,6
0,51,0,16
0,40,50,4
0,40,0,7
0,51,73,5
0,33,102,3
0,38,86,0
0,42,64,0
0,38,0,6
0,42,0,0
0,28,0,5
0,61,0,11
0,33,0,56
0,47,0,33
0,28,104,10
0,47,64,0
0,42,47,0
0,42,0,7
0,80,0,70
0,28,0,14
0,52,0,37
0,51,0,0
0,47,0,0
0,30,104,3
0,37,64,0
0,42,64,0
0,37,0,7
0,42,0,0
0,42,80,3
0,42,49,230
0,49,68,5
0,42,0,2
0,78,96,0
0,42,76,18
0,37,64,0
0,42,64,0
0,52,73,6
0,37,0,0
0,42,0,0
0,42,0,213
0,42,47,20
0,42,0,7
0,42,68,3
0,49,0,207
0,37,64,23
0,42,64,0
0,49,68,5
0,37,0,2
0,42,0,0
0,52,0,217
0,42,49,16
0,52,71,2
0,42,0,5
0,78,0,77
0,30,0,61
0,42,0,60
0,49,0,2
0,71,96,0
0,49,66,15
0,30,102,3
0,37,64,0
0,42,64,0
0,37,0,7
0,42,0,0
0,71,0,167
0,69,60,0
0,42,0,15
0,32,95,13
0,42,61,0
0,42,47,0
0,42,0,7
0,30,0,23
0,69,0,109
0,71,96,0
0,45,73,20
0,42,0,0
0,33,102,3
0,37,64,0
0,42,64,0
0,37,0,7
0,42,0,0
0,32,0,25
0,49,0,180
0,49,56,20
0,42,49,8
0,42,0,7
0,52,0,190
0,71,0,25
0,52,75,10
0,69,87,0
0,37,64,5
0,42,64,0
0,37,0,7
0,42,0,0
0,69,0,60
0,71,101,0
0,35,89,13
0,47,73,0
0,42,47,0
0,42,0,7
0,33,0,18
0,45,0,12
0,49,0,182
0,51,61,18
0,37,64,3
0,42,64,0
0,37,0,7
0,42,0,0
0,71,0,182
0,52,0,40
0,52,68,11
0,42,49,0
0,42,0,7
0,51,0,210
0,51,73,20
0,33,95,3
0,37,64,0
0,42,64,0
0,35,0,2
0,37,0,5
0,42,0,0
0,69,83,0
0,47,0,10
0,32,90,10
0,47,64,0
0,42,47,0
0,42,0,7
0,33,0,33
0,69,0,62
0,73,101,0
0,52,0,15
0,51,0,0
0,47,0,0
0,30,107,3
0,37,64,0
0,42,64,0
0,37,0,7
0,42,0,0
0,42,80,3
0,32,0,22
0,73,0,162
0,66,83,0
0,42,49,18
0,49,68,5
0,42,0,2
0,66,0,150
0,69,92,0
0,42,79,30
0,37,64,0
0,42,64,0
0,52,73,7
0,37,0,0
0,42,0,0
0,42,0,213
0,42,47,20
0,42,0,7
0,42,68,3
0,49,0,207
0,37,64,23
0,42,64,0
0,49,68,5
0,37,0,2
0,42,0,0
0,69,0,190
0,52,0,27
0,42,49,16
0,52,71,2
0,42,0,5
0,30,0,138
0,49,0,62
0,49,66,30
0,42,0,0
0,30,97,3
0,37,64,0
0,42,64,0
0,37,0,7
0,42,0,0
0,42,0,220
0,32,97,13
0,42,61,0
0,42,47,0
0,42,0,7
0,30,0,8
0,45,73,222
0,42,0,0
0,33,104,3
0,37,64,0
0,42,64,0
0,32,0,0
0,37,0,7
0,42,0,0
0,49,0,205
0,49,56,20
0,42,49,8
0,42,0,7
0,52,0,190
0,52,75,35
0,37,64,8
0,42,64,0
0,37,0,7
0,42,0,0
0,33,0,228
0,28,111,5
0,47,73,0
0,42,47,0
0,42,0,7
0,45,0,30
0,49,0,182
0,51,61,18
0,37,64,3
0,42,64,0
0,37,0,7
0,42,0,0
0,52,0,222
0,52,68,11
0,42,49,0
0,42,0,7
0,51,0,210
0,51,73,20
0,33,102,3
0,37,65,0
0,42,64,0
0,37,0,7
0,42,0,0
0,28,0,5
0,33,0,185
0,47,0,33
0,28,104,10
0,47,64,0
0,42,47,0
0,42,0,7
0,28,0,193
0,52,0,37
0,51,0,0
0,47,0,0
0,30,104,3
0,37,64,0
0,42,64,0
0,37,0,7
0,42,0,0
0,42,80,3
0,69,96,0
0,42,49,0
0,49,68,5
0,42,0,2
0,69,0,200
0,42,76,0
0,78,96,0
0,37,64,0
0,42,64,0
0,52,73,7
0,37,0,0
0,42,0,0
0,78,0,200
0,42,0,13
0,78,72,0
0,42,47,0
0,42,0,7
0,42,68,3
0,78,0,130
0,49,0,77
0,78,87,0
0,37,64,0
0,42,64,0
0,49,68,5
0,37,0,2
0,42,0,0
0,52,0,217
0,42,49,16
0,52,71,2
0,42,0,5
0,30,0,138
0,42,0,60
0,49,0,2
0,71,96,0
0,49,66,7
0,78,0,0
0,30,102,3
0,37,64,0
0,42,64,0
0,37,0,7
0,42,0,0
0,71,0,190
0,69,72,0
0,42,0,17
0,32,95,13
0,42,61,0
0,42,47,0
0,42,0,7
0,30,0,23
0,69,0,80
0,71,88,0
0,45,73,17
0,42,0,0
0,33,102,3
0,37,64,0
0,42,64,0
0,37,0,7
0,42,0,0
0,32,0,25
0,49,0,180
0,69,79,0
0,49,56,2
0,71,0,5
0,42,49,3
0,42,0,7
0,69,0,138
0,52,0,52
0,71,93,0
0,52,75,10
0,37,64,8
0,42,64,0
0,37,0,7
0,42,0,0
0,35,89,233
0,47,73,0
0,42,47,0
0,42,0,7
0,33,0,18
0,45,0,12
0,71,0,80
0,49,0,102
0,51,61,18
0,71,101,0
0,37,64,0
0,42,64,0
0,37,0,7
0,42,0,0
0,71,0,213
0,69,92,0
0,52,0,2
0,52,68,11
0,42,49,0
0,42,0,7
0,69,0,115
0,51,0,95
0,51,73,0
0,71,101,0
0,33,95,3
0,37,64,0
0,42,64,0
0,35,0,2
0,37,0,5
0,42,0,0
0,71,0,210
0,47,0,13
0,32,90,10
0,47,64,0
0,42,47,0
0,42,0,7
0,33,0,33
0,73,96,0
0,52,0,12
0,51,0,0
0,47,0,0
0,30,107,3
0,37,64,0
0,42,64,0
0,37,0,7
0,42,0,0
0,42,80,3
0,32,0,22
0,73,0,153
0,66,92,0
0,42,49,18
0,49,68,5
0,42,0,2
0,66,0,125
0,66,96,0
0,42,79,18
0,37,64,0
0,42,64,0
0,52,73,7
0,37,0,0
0,42,0,0
0,42,0,213
0,42,47,20
0,42,0,7
0,42,68,3
0,49,0,207
0,37,64,23
0,42,64,0
0,49,68,5
0,37,0,2
0,42,0,0
0,66,0,215
0,52,0,2
0,42,49,16
0,52,71,2
0,42,0,5
0,30,0,138
0,49,0,62
0,49,66,30
0,42,0,0
0,30,97,3
0,37,64,0
0,42,64,0
0,37,0,7
0,42,0,0
0,42,0,220
0,32,97,13
0,42,61,0
0,42,47,0
0,42,0,7
0,30,0,8
0,45,73,222
0,42,0,0
0,33,104,3
0,37,64,0
0,42,64,0
0,32,0,0
0,37,0,7
0,42,0,0
0,49,0,205
0,49,56,20
0,42,49,8
0,42,0,7
0,52,0,190
0,52,75,35
0,37,64,8
0,42,64,0
0,37,0,7
0,42,0,0
0,33,0,228
0,28,111,5
0,47,73,0
0,42,47,0
0,42,0,7
0,45,0,30
0,49,0,182
0,51,61,18
0,37,64,3
0,42,64,0
0,37,0,7
0,42,0,0
0,52,0,222
0,52,68,11
0,42,49,0
0,42,0,7
0,51,0,210
0,40,50,8
0,40,0,7
0,51,73,5
0,33,102,3
0,38,86,0
0,42,64,0
0,38,0,7
0,42,0,0
0,28,0,5
0,33,0,185
0,47,0,33
0,28,104,10
0,47,64,0
0,42,47,0
0,42,0,7
0,28,0,193
0,52,0,37
0,51,0,0
0,47,0,0
0,30,104,3
0,37,64,0
0,42,64,0
0,37,0,7
0,42,0,0
0,42,80,3
0,42,49,230
0,49,68,5
0,42,0,2
0,42,76,233
0,37,64,0
0,42,64,0
0,52,73,7
0,37,0,0
0,42,0,0
0,81,92,0
0,42,0,200
0,42,47,20
0,42,0,7
0,42,68,3
0,49,0,207
0,37,64,23
0,42,64,0
0,49,68,5
0,37,0,2
0,42,0,0
0,52,0,217
0,42,49,16
0,52,71,2
0,42,0,5
0,81,0,88
0,30,0,50
0,42,0,60
0,49,0,2
0,49,66,30
0,30,102,3
0,37,64,0
0,42,64,0
0,78,101,0
0,37,0,5
0,42,0,0
0,78,0,187
0,76,63,0
0,42,0,2
0,32,95,13
0,42,61,0
0,42,47,0
0,42,0,7
0,30,0,23
0,76,0,80
0,78,96,0
0,45,73,35
0,42,0,0
0,33,102,3
0,37,64,0
0,42,64,0
0,37,0,7
0,42,0,0
0,32,0,25
0,49,0,180
0,49,56,20
0,42,49,8
0,42,0,7
0,52,0,190
0,76,83,0
0,78,0,0
0,52,75,25
0,37,64,8
0,42,64,0
0,37,0,7
0,42,0,0
0,76,0,190
0,78,96,0
0,28,89,13
0,47,73,0
0,42,47,0
0,42,0,7
0,33,0,18
0,45,0,12
0,49,0,182
0,51,61,18
0,37,64,3
0,42,64,0
0,37,0,7
0,42,0,0
0,78,0,192
0,52,0,30
0,52,68,11
0,42,49,0
0,42,0,7
0,76,6,43
0,76,0,35
0,51,0,132
0,51,73,20
0,33,95,3
0,37,64,0
0,42,64,0
0,28,0,2
0,37,0,5
0,42,0,0
0,47,0,223
0,28,90,10
0,47,64,0
0,42,47,0
0,42,0,7
0,33,0,33
0,52,0,197
0,51,0,0
0,47,0,0
0,30,107,3
0,37,64,0
0,42,64,0
0,37,0,7
0,42,0,0
0,42,80,3
0,28,0,22
0,42,49,208
0,49,68,5
0,42,0,2
0,80,89,0
0,42,79,8
0,37,64,0
0,42,64,0
0,52,73,7
0,37,0,0
0,42,0,0
0,42,0,213
0,80,0,12
0,42,47,8
0,81,81,0
0,42,0,2
0,42,68,3
0,81,0,175
0,49,0,32
0,80,89,0
0,37,64,15
0,42,64,0
0,49,68,5
0,37,0,2
0,42,0,0
0,52,0,217
0,78,63,0
0,42,49,10
0,52,71,2
0,42,0,5
0,80,0,13
0,78,0,117
0,30,0,8
0,49,0,62
0,49,66,30
0,42,0,0
0,30,97,0
0,78,96,0
0,37,64,0
0,42,64,0
0,37,0,7
0,42,0,0
0,78,0,185
0,76,79,0
0,42,0,12
0,32,97,13
0,42,61,0
0,42,47,0
0,42,0,7
0,30,0,8
0,76,0,135
0,78,101,0
0,45,73,15
0,42,0,0
0,33,104,3
0,37,64,0
0,42,64,0
0,32,0,0
0,37,0,7
