track,note,velocity,time
0,35,127,0
0,49,127,0
0,32,127,0
0,56,104,0
0,59,104,0
0,63,104,0
0,56,85,0
0,63,85,0
0,68,85,0
0,42,127,4
0,32,127,0
0,42,127,0
0,38,127,0
0,32,127,0
0,42,127,4
0,32,127,0
0,35,127,4
0,42,127,0
0,32,127,0
0,42,127,4
0,32,127,0
0,38,127,4
0,42,127,0
0,32,127,0
0,35,127,4
0,42,127,0
0,32,127,0
0,42,127,4
0,35,127,0
0,32,127,0
0,35,0,188
0,42,0,0
0,32,0,0
0,42,127,4
0,32,127,0
0,42,0,188
0,32,0,0
0,42,127,4
0,38,127,0
0,32,127,0
0,38,0,188
0,42,0,0
0,32,0,0
0,42,127,4
0,32,127,0
0,42,0,188
0,32,0,0
0,35,127,4
0,42,127,0
0,32,127,0
0,42,0,188
0,35,0,0
0,32,0,0
0,42,127,4
0,32,127,0
0,42,0,188
0,32,0,0
0,38,127,4
0,42,127,0
0,32,127,0
0,42,0,188
0,38,0,0
0,32,0,0
0,35,127,4
0,42,127,0
0,32,127,0
0,35,127,4
0,49,127,0
0,30,127,0
0,58,104,0
0,61,104,0
0,54,104,0
0,42,127,4
0,30,127,0
0,42,127,4
0,38,127,0
0,30,127,0
0,42,127,4
0,30,127,0
0,66,85,0
0,61,85,0
0,61,0,92
0,66,0,0
0,63,85,4
0,68,85,0
0,42,0,92
0,30,0,0
0,68,0,0
0,63,0,0
0,35,127,4
0,42,127,0
0,30,127,0
0,61,85,0
0,66,85,0
0,42,0,188
0,35,0,0
0,30,0,0
0,42,127,4
0,30,127,0
0,80,104,0
0,42,0,188
0,30,0,0
0,38,127,4
0,42,127,0
0,30,127,0
0,42,0,188
0,38,0,0
0,30,0,0
0,35,127,4
0,42,127,0
0,30,127,0
0,42,0,188
0,35,0,0
0,30,0,0
0,80,0,0
0,42,127,4
0,35,127,0
0,30,127,0
0,78,104,0
0,35,0,188
0,42,0,0
0,30,0,0
0,42,127,4
0,30,127,0
0,42,0,188
0,30,0,0
0,42,127,4
0,38,127,0
0,30,127,0
0,38,0,188
0,42,0,0
0,30,0,0
0,42,127,4
0,30,127,0
0,42,0,188
0,30,0,0
0,35,127,4
0,42,127,0
0,30,127,0
0,42,0,188
0,35,0,0
0,30,0,0
0,42,127,4
0,30,127,0
0,35,127,16
0,38,127,0
0,42,127,0
0,30,127,0
0,35,127,4
0,42,127,0
0,30,127,0
0,42,0,188
0,35,0,0
0,30,0,0
0,78,0,0
0,54,0,0
0,61,0,0
0,58,0,0
0,66,0,0
0,61,0,0
0,35,127,4
0,49,127,0
0,32,127,0
0,56,104,0
0,59,104,0
0,63,104,0
0,68,102,0
0,71,102,0
0,75,102,0
0,56,67,0
0,59,67,0
0,63,67,0
0,49,0,188
0,35,0,0
0,32,0,0
0,63,0,0
0,59,0,0
0,56,0,0
0,42,127,4
0,32,127,0
0,63,67,0
0,59,67,0
0,56,67,0
0,42,0,188
0,32,0,0
0,56,0,0
0,59,0,0
0,63,0,0
0,42,127,4
0,38,127,0
0,32,127,0
0,63,67,0
0,59,67,0
0,56,67,0
0,38,0,188
0,42,0,0
0,32,0,0
0,56,0,0
0,59,0,0
0,63,0,0
0,42,127,4
0,32,127,0
0,75,0,0
0,71,0,0
0,68,0,0
0,68,102,0
0,71,102,0
0,76,102,0
0,56,85,0
0,59,85,0
0,64,85,0
0,42,0,188
0,32,0,0
0,35,127,4
0,42,127,0
0,32,127,0
0,42,0,188
0,35,0,0
0,32,0,0
0,76,0,0
0,71,0,0
0,68,0,0
0,64,0,0
0,59,0,0
0,56,0,0
0,42,127,4
0,32,127,0
0,68,102,0
0,71,102,0
0,75,102,0
0,56,85,0
0,59,85,0
0,63,85,0
0,42,0,188
0,32,0,0
0,38,127,4
0,42,127,0
0,32,127,0
0,42,0,188
0,38,0,0
0,32,0,0
0,35,127,4
0,42,127,0
0,32,127,0
0,42,0,188
0,35,0,0
0,32,0,0
0,42,127,4
0,35,127,0
0,32,127,0
0,35,0,188
0,42,0,0
0,32,0,0
0,42,127,4
0,32,127,0
0,42,0,188
0,32,0,0
0,75,0,0
0,71,0,0
0,68,0,0
0,63,0,0
0,59,0,0
0,56,0,0
0,42,127,4
0,38,127,0
0,32,127,0
0,68,102,0
0,71,102,0
0,76,102,0
0,56,85,0
0,59,85,0
0,64,85,0
0,38,0,188
0,42,0,0
0,32,0,0
0,76,0,0
0,71,0,0
0,68,0,0
0,64,0,0
0,59,0,0
0,56,0,0
0,42,127,4
0,32,127,0
0,76,102,0
0,68,102,0
0,71,102,0
0,64,85,0
0,56,85,0
0,59,85,0
0,42,0,188
0,32,0,0
0,35,127,4
0,42,127,0
0,32,127,0
0,42,0,188
0,35,0,0
0,32,0,0
0,71,0,0
0,68,0,0
0,76,0,0
0,59,0,0
0,56,0,0
0,64,0,0
0,42,127,4
0,32,127,0
0,68,102,0
0,71,102,0
0,75,102,0
0,56,85,0
0,59,85,0
0,63,85,0
0,42,0,188
0,32,0,0
0,38,127,4
0,42,127,0
0,32,127,0
0,42,0,188
0,38,0,0
0,32,0,0
0,35,127,4
0,42,127,0
0,32,127,0
0,42,0,188
0,35,0,0
0,32,0,0
0,63,0,0
0,59,0,0
0,56,0,0
0,75,0,0
0,71,0,0
0,68,0,0
0,63,0,0
0,59,0,0
0,56,0,0
0,35,127,4
0,49,127,0
0,30,127,0
0,58,104,0
0,61,104,0
0,54,104,0
0,66,102,0
0,70,102,0
0,73,102,0
0,58,67,0
0,61,67,0
0,54,67,0
0,49,0,188
0,35,0,0
0,30,0,0
0,54,0,0
0,61,0,0
0,58,0,0
0,42,127,4
0,30,127,0
0,58,67,0
0,61,67,0
0,54,67,0
0,42,0,188
0,30,0,0
0,54,0,0
0,61,0,0
0,58,0,0
0,42,127,4
0,38,127,0
0,30,127,0
0,58,67,0
0,61,67,0
0,54,67,0
0,38,0,188
0,42,0,0
0,30,0,0
0,54,0,0
0,61,0,0
0,58,0,0
0,42,127,4
0,30,127,0
0,73,0,0
0,70,0,0
0,66,0,0
0,75,102,0
0,70,102,0
0,66,102,0
0,63,85,0
0,58,85,0
0,54,85,0
0,42,0,188
0,30,0,0
0,35,127,4
0,42,127,0
0,30,127,0
0,42,0,188
0,35,0,0
0,30,0,0
0,66,0,0
0,70,0,0
0,75,0,0
0,54,0,0
0,58,0,0
0,63,0,0
0,42,127,4
0,30,127,0
0,66,102,0
0,70,102,0
0,73,102,0
0,54,85,0
0,58,85,0
0,61,85,0
0,42,0,188
0,30,0,0
0,38,127,4
0,42,127,0
0,30,127,0
0,42,0,188
0,38,0,0
0,30,0,0
0,35,127,4
0,42,127,0
0,30,127,0
0,42,0,188
0,35,0,0
0,30,0,0
0,42,127,4
0,35,127,0
0,30,127,0
0,35,0,188
0,42,0,0
0,30,0,0
0,42,127,4
0,30,127,0
0,42,0,188
0,30,0,0
0,73,0,0
0,70,0,0
0,66,0,0
0,61,0,0
0,58,0,0
0,54,0,0
0,42,127,4
0,38,127,0
0,30,127,0
0,75,102,0
0,70,102,0
0,66,102,0
0,63,85,0
0,58,85,0
0,54,85,0
0,38,0,188
0,42,0,0
0,30,0,0
0,66,0,0
0,70,0,0
0,75,0,0
0,54,0,0
0,58,0,0
0,63,0,0
0,42,127,4
0,30,127,0
0,70,102,0
0,75,102,0
0,66,102,0
0,58,85,0
0,63,85,0
0,54,85,0
0,42,0,188
0,30,0,0
0,35,127,4
0,42,127,0
0,30,127,0
0,42,0,188
0,35,0,0
0,30,0,0
0,66,0,0
0,75,0,0
0,70,0,0
0,54,0,0
0,63,0,0
0,58,0,0
0,42,127,4
0,30,127,0
0,66,102,0
0,70,102,0
0,73,102,0
0,54,85,0
0,58,85,0
0,61,85,0
0,35,127,96
0,42,0,92
0,30,0,0
0,35,0,4
0,38,127,0
0,42,127,0
0,30,127,0
0,42,0,188
0,38,0,0
0,30,0,0
0,35,127,4
0,42,127,0
0,30,127,0
0,63,127,0
0,42,0,188
0,35,0,0
0,30,0,0
0,54,0,0
0,61,0,0
0,58,0,0
0,73,0,0
0,70,0,0
0,66,0,0
0,61,0,0
0,58,0,0
0,54,0,0
0,42,127,4
0,35,127,0
0,32,127,0
0,35,0,188
0,42,0,0
0,32,0,0
0,63,0,0
0,42,127,4
0,32,127,0
0,42,0,188
0,32,0,0
0,42,127,4
0,38,127,0
0,32,127,0
0,38,0,188
0,42,0,0
0,32,0,0
0,42,127,4
0,32,127,0
0,42,0,188
0,32,0,0
0,35,127,4
0,42,127,0
0,32,127,0
0,42,0,188
0,35,0,0
0,32,0,0
0,42,127,4
0,32,127,0
0,64,127,0
0,42,0,188
0,32,0,0
0,64,0,0
0,38,127,4
0,42,127,0
0,32,127,0
0,64,127,0
0,42,0,188
0,38,0,0
0,32,0,0
0,64,0,0
0,42,127,4
0,32,127,0
0,64,127,0
0,42,0,188
0,32,0,0
0,64,0,0
0,42,127,4
0,35,127,0
0,32,127,0
0,63,127,0
0,42,127,4
0,32,127,0
0,42,127,4
0,38,127,0
0,32,127,0
0,35,127,4
0,42,127,0
0,32,127,0
0,42,0,188
0,35,0,0
0,32,0,0
0,35,127,4
0,42,127,0
0,32,127,0
0,42,0,188
0,35,0,0
0,32,0,0
0,42,127,4
0,32,127,0
0,56,127,0
0,38,127,4
0,42,127,0
0,32,127,0
0,63,127,0
0,42,0,188
0,38,0,0
0,32,0,0
0,63,0,0
0,42,127,4
0,32,127,0
0,63,127,0
0,42,0,188
0,32,0,0
0,63,0,0
0,42,127,4
0,35,127,0
0,30,127,0
0,61,127,0
0,35,0,188
0,42,0,0
0,30,0,0
0,61,0,0
0,42,127,4
0,30,127,0
0,63,127,0
0,42,127,4
0,38,127,0
0,30,127,0
0,38,0,188
0,42,0,0
0,30,0,0
0,42,127,4
0,30,127,0
0,42,0,188
0,30,0,0
0,63,0,0
0,35,127,4
0,42,127,0
0,30,127,0
0,42,0,188
0,35,0,0
0,30,0,0
0,42,127,4
0,30,127,0
0,42,0,188
0,30,0,0
0,38,127,4
0,42,127,0
0,30,127,0
0,61,127,0
0,42,0,188
0,38,0,0
0,30,0,0
0,61,0,0
0,42,127,4
0,30,127,0
0,61,127,0
0,42,127,4
0,35,127,0
0,30,127,0
0,35,0,188
0,42,0,0
0,30,0,0
0,61,0,0
0,42,127,4
0,30,127,0
0,63,127,0
0,42,0,188
0,30,0,0
0,42,127,4
0,38,127,0
0,30,127,0
0,35,127,4
0,42,127,0
0,30,127,0
0,42,0,188
0,35,0,0
0,30,0,0
0,35,127,4
0,42,127,0
0,30,127,0
0,42,0,188
0,35,0,0
0,30,0,0
0,42,127,4
0,30,127,0
0,64,127,0
0,42,0,188
0,30,0,0
0,64,0,0
0,38,127,4
0,42,127,0
0,30,127,0
0,63,127,0
0,42,0,188
0,38,0,0
0,30,0,0
0,63,0,0
0,35,127,4
0,42,127,0
0,30,127,0
0,63,127,0
0,42,0,188
0,35,0,0
0,30,0,0
0,35,127,4
0,49,127,0
0,32,127,0
0,68,77,0
0,63,77,0
0,59,77,0
0,63,104,8
0,59,104,0
0,56,104,0
0,56,77,0
0,44,77,0
0,51,77,0
0,49,0,180
0,35,0,0
0,32,0,0
0,42,127,4
0,32,127,0
0,42,0,188
0,32,0,0
0,63,0,0
0,42,127,4
0,38,127,0
0,32,127,0
0,38,0,188
0,42,0,0
0,32,0,0
0,42,127,4
0,32,127,0
0,42,0,188
0,32,0,0
0,35,127,4
0,42,127,0
0,32,127,0
0,42,0,188
0,35,0,0
0,32,0,0
0,42,127,4
0,32,127,0
0,56,127,0
0,42,0,188
0,32,0,0
0,56,0,0
0,38,127,4
0,42,127,0
0,32,127,0
0,64,127,0
0,42,0,188
0,38,0,0
0,32,0,0
0,64,0,0
0,42,127,4
0,32,127,0
0,64,127,0
0,42,0,188
0,32,0,0
0,64,0,0
0,42,127,4
0,35,127,0
0,32,127,0
0,59,0,0
0,68,0,0
0,63,0,0
0,63,127,0
0,56,0,8
0,44,0,0
0,51,0,0
0,35,0,180
0,42,0,0
0,32,0,0
0,42,127,4
0,32,127,0
0,42,0,188
0,32,0,0
0,63,0,0
0,42,127,4
0,38,127,0
0,32,127,0
0,38,0,188
0,42,0,0
0,32,0,0
0,35,127,4
0,42,127,0
0,32,127,0
0,42,0,188
0,35,0,0
0,32,0,0
0,35,127,4
0,42,127,0
0,32,127,0
0,42,0,188
0,35,0,0
0,32,0,0
0,42,127,4
0,32,127,0
0,42,0,188
0,32,0,0
0,38,127,4
0,42,127,0
0,32,127,0
0,63,127,0
0,42,0,188
0,38,0,0
0,32,0,0
0,63,0,0
0,42,127,4
0,32,127,0
0,63,127,0
0,42,0,188
0,32,0,0
0,63,0,0
0,35,127,4
0,49,127,0
0,30,127,0
0,58,104,0
0,54,104,0
0,66,77,0
0,61,77,0
0,58,77,0
0,54,77,0
0,49,77,0
0,61,127,0
0,56,0,8
0,63,0,0
0,59,0,0
0,61,104,0
0,42,77,0
0,49,0,180
0,35,0,0
0,30,0,0
0,61,0,0
0,42,127,4
0,30,127,0
0,63,127,0
0,42,0,188
0,30,0,0
0,42,127,4
0,38,127,0
0,30,127,0
0,38,0,188
0,42,0,0
0,30,0,0
0,63,0,0
0,42,127,4
0,30,127,0
0,42,0,188
0,30,0,0
0,35,127,4
0,42,127,0
0,30,127,0
0,42,0,188
0,35,0,0
0,30,0,0
0,42,127,4
0,30,127,0
0,42,0,188
0,30,0,0
0,38,127,4
0,42,127,0
0,30,127,0
0,63,127,0
0,63,0,92
0,59,127,4
0,42,0,92
0,38,0,0
0,30,0,0
0,59,0,0
0,42,127,4
0,30,127,0
0,61,127,0
0,42,0,188
0,30,0,0
0,42,127,4
0,35,127,0
0,30,127,0
0,49,0,0
0,54,0,0
0,58,0,0
0,66,0,0
0,61,0,0
0,42,0,8
0,35,0,180
0,42,0,0
0,30,0,0
0,61,0,0
0,42,127,4
0,30,127,0
0,63,127,0
0,63,0,92
0,61,127,4
0,42,0,92
0,30,0,0
0,61,0,0
0,42,127,4
0,38,127,0
0,30,127,0
0,63,127,0
0,38,0,188
0,42,0,0
0,30,0,0
0,35,127,4
0,42,127,0
0,30,127,0
0,42,0,188
0,35,0,0
0,30,0,0
0,63,0,0
0,35,127,4
0,42,127,0
0,34,127,0
0,46,85,0
0,42,0,188
0,35,0,0
0,34,0,0
0,42,127,4
0,34,127,0
0,56,127,0
0,35,127,96
0,42,0,92
0,34,0,0
0,46,0,0
0,56,0,0
0,35,0,4
0,38,127,0
0,42,127,0
0,35,127,0
0,47,85,0
0,63,127,0
0,63,0,128
0,64,127,0
0,42,0,60
0,38,0,0
0,35,0,0
0,35,127,4
0,42,127,0
0,35,127,0
0,64,0,64
0,64,127,0
0,42,0,124
0,35,0,0
0,47,0,0
0,35,0,4
0,35,127,0
0,49,127,0
0,28,127,0
0,58,0,0
0,54,0,0
0,76,102,0
0,71,102,0
0,68,102,0
0,64,102,0
0,59,102,0
0,52,102,0
0,64,85,0
0,59,85,0
0,56,85,0
0,52,85,0
0,47,85,0
0,40,85,0
0,61,0,8
0,49,0,180
0,35,0,0
0,28,0,0
0,76,0,0
0,64,0,0
0,42,127,4
0,28,127,0
0,76,102,0
0,64,85,0
0,42,0,188
0,28,0,0
0,76,0,0
0,64,0,0
0,42,127,4
0,38,127,0
0,28,127,0
0,76,102,0
0,64,85,0
0,64,0,0
0,38,0,188
0,42,0,0
0,28,0,0
0,76,0,0
0,64,0,0
0,35,127,4
0,42,127,0
0,28,127,0
0,78,102,0
0,66,85,0
0,42,0,188
0,35,0,0
0,28,0,0
0,35,127,4
0,42,127,0
0,28,127,0
0,42,0,188
0,35,0,0
0,28,0,0
0,78,0,0
0,66,0,0
0,42,127,4
0,28,127,0
0,76,102,0
0,64,85,0
0,42,0,188
0,28,0,0
0,38,127,4
0,42,127,0
0,28,127,0
0,42,0,188
0,38,0,0
0,28,0,0
0,42,127,4
0,28,127,0
