track,note,velocity,time
1,73,47,1584
1,71,23,1145
1,70,45,142
1,69,52,144
1,68,55,123
1,67,34,177
1,69,27,583
1,71,40,52
1,72,64,21
1,73,50,119
1,71,20,949
1,70,43,104
1,69,42,159
1,68,49,144
1,67,36,211
1,69,27,620
1,71,34,45
1,72,71,103
1,73,67,125
1,75,67,66
1,80,61,52
1,76,40,202
1,68,41,305
1,71,37,459
1,71,27,461
1,73,23,13
1,70,23,374
1,61,20,2
1,68,29,17
1,64,10,4
1,46,32,6
1,49,33,4
1,52,41,29
1,56,47,52
1,58,58,0
1,61,54,104
1,64,83,107
1,68,58,36
1,70,62,92
1,64,27,25
1,73,76,36
1,76,63,56
1,80,68,73
1,82,79,61
1,85,75,60
1,88,77,58
1,92,51,69
1,88,44,51
1,85,41,63
1,82,65,82
1,80,46,4
1,76,39,46
1,64,66,27
1,73,51,43
1,70,59,19
1,68,65,12
1,64,59,42
1,61,44,40
1,58,63,83
1,56,54,4
1,52,67,29
1,49,48,33
1,46,68,37
1,46,25,124
1,50,34,19
1,53,33,17
1,56,49,28
1,65,78,7
1,58,52,13
1,70,74,169
1,68,65,60
1,60,49,150
1,62,42,77
1,60,28,298
1,62,14,242
1,70,38,1599
1,46,46,29
1,61,23,1
1,68,28,6
1,64,31,0
1,49,37,3
1,52,38,17
1,56,44,50
1,58,69,18
1,61,68,74
1,64,92,124
1,68,61,32
1,70,65,97
1,64,27,10
1,73,76,53
1,76,83,45
1,80,76,78
1,82,90,52
1,85,79,48
1,88,77,52
1,92,71,52
1,88,50,19
1,85,62,19
1,82,64,94
1,80,47,0
1,76,46,44
1,73,63,25
1,64,74,88
1,70,54,16
1,68,53,12
1,64,62,26
1,61,52,57
1,58,56,92
1,56,49,0
1,52,48,0
1,49,50,19
1,46,54,48
1,46,50,57
1,50,36,52
1,53,35,29
1,56,48,19
1,65,78,2
1,58,49,8
1,70,78,132
1,68,75,159
1,60,49,158
1,62,48,365
1,64,45,380
1,56,21,449
1,46,26,22
1,58,31,1
1,65,29,8
1,53,23,11
1,50,29,4
1,70,44,49
1,68,42,338
1,60,27,220
1,62,23,392
1,64,32,426
1,65,18,1325
1,38,32,162
1,73,56,304
1,66,39,16
1,62,28,22
1,54,29,14
1,50,28,30
1,57,23,51
1,54,19,16
1,57,37,20
1,54,19,22
1,57,36,27
1,54,45,48
1,57,14,11
1,54,56,42
1,57,22,21
1,54,34,13
1,57,22,14
1,54,37,1
1,57,43,2
1,54,34,4
1,57,24,13
1,54,40,44
1,57,16,12
1,54,37,55
1,57,20,42
1,54,25,5
1,71,59,16
1,57,26,39
1,54,12,44
1,57,10,40
1,54,31,54
1,57,38,15
1,54,37,14
1,70,75,1
1,57,45,0
1,54,35,26
1,58,64,19
1,54,44,3
1,69,78,8
1,58,39,67
1,54,54,16
1,68,81,37
1,58,44,14
1,54,39,17
1,67,83,56
1,62,38,17
1,65,50,5
1,53,36,7
1,59,42,64
1,53,31,35
1,59,46,48
1,53,57,25
1,59,50,6
1,53,44,13
1,59,32,8
1,53,51,21
1,59,50,0
1,53,36,7
1,59,42,24
1,53,38,8
1,59,24,23
1,53,16,33
1,69,64,8
1,59,20,0
1,53,38,30
1,59,42,46
1,53,32,40
1,71,64,4
1,62,32,19
1,65,38,6
1,59,26,5
1,53,15,27
1,72,72,69
1,38,81,104
1,73,77,122
1,66,38,21
1,62,22,5
1,50,57,39
1,54,19,2
1,57,29,32
1,54,23,2
1,57,35,18
1,54,32,56
1,57,26,23
1,54,43,44
1,57,28,29
1,54,46,34
1,54,34,67
1,54,42,68
1,54,39,0
1,57,23,46
1,54,43,7
1,57,41,12
1,54,52,4
1,57,50,20
1,54,48,44
1,57,49,25
1,54,56,34
1,71,70,15
1,57,44,10
1,54,29,0
1,57,46,23
1,54,46,8
1,70,82,9
1,58,63,20
1,54,38,21
1,58,51,4
1,69,83,50
1,54,44,0
1,58,60,4
1,54,46,42
1,68,86,4
1,58,50,29
1,67,77,86
1,53,42,7
1,65,43,4
1,62,37,4
1,59,38,5
1,53,49,7
1,59,54,23
1,53,34,6
1,59,48,15
1,53,65,4
1,59,38,15
1,53,38,13
1,59,42,19
1,53,40,5
1,59,18,33
1,53,18,16
1,69,64,23
1,59,37,19
1,53,51,0
1,59,37,19
1,53,33,6
1,71,76,46
1,62,44,14
1,65,59,4
1,59,34,4
1,53,19,27
1,59,30,0
1,72,91,1
1,53,24,32
1,59,39,6
1,51,38,27
1,54,34,0
1,73,77,38
1,61,23,32
1,66,33,7
1,57,45,32
1,54,38,22
1,57,33,57
1,54,36,25
1,75,88,0
1,57,29,4
1,54,16,13
1,57,60,18
1,47,48,75
1,51,58,44
1,80,86,103
1,57,58,16
1,59,47,29
1,52,39,92
1,56,41,8
1,61,51,87
1,76,79,11
1,40,44,229
1,47,31,25
1,56,40,16
1,47,23,30
1,56,37,14
1,47,27,18
1,68,60,30
1,61,29,4
1,56,38,44
1,47,23,51
1,59,23,9
1,56,25,11
1,47,27,17
1,56,24,31
1,71,73,26
1,61,47,15
1,47,23,30
1,56,30,48
1,47,23,10
1,56,31,36
1,47,15,23
1,56,42,17
1,47,22,11
1,56,37,29
1,47,32,4
1,56,44,29
1,47,16,13
1,56,32,10
1,47,30,14
1,56,32,38
1,59,56,15
1,47,29,12
1,56,25,15
1,47,10,23
1,41,66,52
1,61,40,42
1,56,32,128
1,47,32,29
1,56,38,44
1,71,68,6
1,47,35,40
1,56,39,43
1,47,37,46
1,56,45,36
1,73,59,47
1,47,19,4
1,56,25,50
1,47,14,52
1,56,20,37
1,61,41,23
1,47,17,40
1,56,15,15
1,70,68,69
1,58,47,5
1,62,49,3
1,46,40,30
1,56,43,73
1,46,43,55
1,56,49,27
1,46,27,27
1,56,45,19
1,46,50,56
1,56,52,0
1,46,51,0
1,56,41,38
1,46,46,38
1,60,67,8
1,63,69,4
1,56,43,17
1,46,23,3
1,56,45,29
1,61,71,11
1,64,80,7
1,46,42,34
1,56,54,43
1,46,42,15
1,56,47,44
1,46,42,27
1,56,44,32
1,46,26,39
1,56,45,19
1,46,24,37
1,56,44,10
1,46,47,24
1,65,63,10
1,62,37,0
1,56,53,37
1,66,59,136
1,54,41,0
1,56,50,3
1,51,54,0
1,63,44,3
1,61,49,0
1,54,26,10
1,56,30,12
1,73,76,52
1,61,33,36
1,54,32,16
1,56,46,4
1,61,41,45
1,54,27,36
1,56,41,6
1,61,50,14
1,75,80,8
1,54,28,6
1,56,23,15
1,61,42,42
1,56,28,8
1,54,23,2
1,61,47,17
1,72,92,56
1,54,26,9
1,56,32,23
1,63,58,13
1,54,45,64
1,56,45,5
1,63,50,72
1,54,52,52
1,56,55,6
1,63,40,11
1,54,51,54
1,56,44,3
1,63,40,19
1,54,42,75
1,56,39,6
1,63,59,19
1,56,23,82
1,54,49,10
1,63,67,50
1,49,77,21
1,56,41,18
1,54,49,4
1,61,70,0
1,56,49,42
1,54,54,6
1,61,58,4
1,70,95,14
1,54,37,4
1,56,34,14
1,61,49,29
1,54,56,93
1,56,53,2
1,77,101,13
1,61,45,19
1,56,41,10
1,54,52,4
1,61,59,20
1,56,56,45
1,48,80,1
1,54,56,4
1,80,92,52
1,68,73,7
1,77,67,18
1,60,56,3
1,54,36,8
1,56,41,20
1,60,44,26
1,54,45,3
1,56,42,4
1,60,42,0
1,54,37,61
1,56,56,6
1,60,50,12
1,54,50,41
1,56,52,2
1,60,50,15
1,54,64,54
1,56,55,11
1,60,57,0
1,75,79,27
1,56,50,4
1,54,52,0
1,60,44,23
1,56,45,5
1,54,52,3
1,60,52,18
1,56,40,6
1,54,41,5
1,60,54,12
1,56,50,14
1,54,40,5
1,60,62,9
1,56,36,14
1,54,41,1
1,60,58,10
1,47,73,44
1,53,51,37
1,57,72,15
1,81,102,66
1,69,78,13
1,59,44,16
1,53,50,25
1,57,41,34
1,59,22,52
1,57,54,15
1,53,56,16
1,59,51,25
1,53,49,0
1,57,46,16
1,59,48,27
1,53,63,6
1,57,55,1
1,59,26,13
1,57,46,32
1,53,51,12
1,59,42,19
1,82,62,179
1,46,54,24
1,70,38,0
1,77,35,12
1,74,35,5
1,56,39,7
1,53,32,3
1,58,57,25
1,56,34,70
1,58,63,7
1,56,54,8
1,53,37,17
1,58,62,7
1,56,64,10
1,53,30,2
1,58,42,19
1,56,59,1
1,53,37,3
1,58,59,3
1,56,56,75
1,53,32,26
1,58,69,11
1,56,56,63
1,53,42,0
1,80,86,29
1,68,70,7
1,58,46,9
1,56,38,19
1,53,29,29
1,58,83,13
1,53,33,71
1,65,100,16
1,77,106,2
1,56,46,19
1,58,67,3
1,56,51,26
1,53,47,0
1,58,84,0
1,80,102,57
1,68,90,2
1,77,80,11
1,56,52,4
1,71,68,2
1,53,43,4
1,59,55,23
1,63,74,7
1,56,63,64
1,59,55,1
1,63,70,0
1,83,106,41
1,71,83,11
1,56,59,18
1,59,49,11
1,63,69,7
1,59,43,65
1,56,56,0
1,63,66,2
1,59,32,9
1,85,103,6
1,56,24,10
1,73,70,9
1,63,62,24
1,56,42,37
1,63,18,35
1,70,81,75
1,82,94,2
1,46,88,8
1,77,76,5
1,74,70,2
1,53,59,44
1,56,71,2
1,58,88,25
1,53,50,0
1,56,58,25
1,58,63,14
1,53,33,28
1,56,54,8
1,58,83,20
1,53,46,7
1,56,59,12
1,58,76,7
1,56,56,3
1,58,69,8
1,53,44,5
1,56,54,20
1,58,60,12
1,56,37,8
1,53,44,4
1,58,63,0
1,80,103,4
1,68,91,2
1,56,39,6
1,53,44,18
1,58,62,5
1,53,31,77
1,56,39,8
1,77,117,35
1,65,110,0
1,58,60,29
1,56,65,8
1,53,40,1
1,58,87,17
1,53,81,53
1,56,60,12
1,59,58,2
1,80,110,17
1,68,99,2
1,71,84,8
1,77,89,0
1,63,73,9
1,59,46,54
1,56,81,2
1,63,64,28
1,59,48,74
1,83,102,2
1,71,73,8
1,63,59,23
1,59,54,19
1,63,74,0
1,85,110,10
1,73,96,6
1,59,54,9
1,63,80,25
1,68,88,29
1,53,82,6
1,56,84,48
1,71,84,0
1,59,73,50
1,75,86,21
1,80,108,57
1,63,98,25
1,83,106,4
1,71,86,0
1,53,81,25
1,56,85,31
1,59,81,6
1,85,111,33
1,73,96,15
1,61,97,6
1,53,92,81
1,68,90,39
1,56,74,1
1,71,80,66
1,59,70,29
1,75,77,4
1,80,106,51
1,63,90,23
1,83,103,129
1,71,78,8
1,53,76,20
1,56,85,18
1,59,61,8
1,85,111,16
1,73,92,12
1,61,95,6
1,53,93,54
1,56,86,46
1,68,93,2
1,59,79,11
1,71,83,14
1,75,84,59
1,63,87,23
1,80,106,14
1,83,103,68
1,71,81,13
1,53,44,54
1,56,63,3
1,59,28,4
1,85,107,41
1,61,69,8
1,73,84,0
1,53,55,14
1,56,58,53
1,59,34,64
1,68,92,95
1,63,49,57
1,71,74,72
1,73,78,115
1,68,51,132
1,71,43,130
1,73,50,189
1,68,58,202
1,71,48,173
1,72,46,262
1,73,49,248
1,47,29,13
1,40,34,31
1,59,25,398
1,61,40,6
1,64,44,63
1,68,47,27
1,73,67,23
1,71,43,56
1,73,44,11
1,76,80,28
1,80,62,11
1,85,67,12
1,83,69,20
1,85,44,64
1,88,57,40
1,92,52,12
1,97,55,2
1,76,66,173
1,80,52,6
1,85,44,8
1,59,22,41
1,61,56,41
1,64,35,46
1,68,38,24
1,71,41,91
1,73,36,65
1,80,61,215
1,83,33,55
1,85,62,28
1,71,72,176
1,70,83,183
1,69,89,10
1,68,86,30
1,40,44,2
1,48,44,98
1,67,77,103
1,64,48,28
1,60,26,8
1,55,21,4
1,69,75,287
1,71,80,90
1,72,101,23
1,40,38,68
1,73,79,100
1,68,19,21
1,49,37,23
1,75,67,64
1,80,68,13
1,76,62,14
1,73,53,22
1,68,61,26
1,51,59,96
1,71,57,5
1,49,67,121
1,68,81,29
1,40,34,55
1,66,79,41
1,48,59,12
1,49,68,4
1,68,69,85
1,66,59,207
1,48,50,2
1,56,31,12
1,59,34,8
1,47,26,6
1,68,42,254
1,63,44,123
1,56,29,266
1,58,21,4
1,64,51,2
1,62,26,0
1,40,29,29
1,69,46,292
1,61,24,16
1,54,27,3
1,47,25,6
1,59,26,213
1,63,27,38
1,66,34,29
1,73,51,4
1,69,63,51
1,71,47,30
1,75,61,23
1,78,47,15
1,85,68,33
1,81,68,48
1,83,60,71
1,87,47,52
1,90,42,15
1,97,45,45
1,69,45,39
1,71,31,26
1,75,41,36
1,78,39,41
1,85,51,58
1,57,32,80
1,59,11,114
1,63,21,77
1,66,28,57
1,69,42,91
1,75,32,3
1,78,26,86
1,73,22,0
1,85,41,48
1,68,70,211
1,67,65,192
1,66,66,196
1,65,76,123
1,64,76,152
1,57,36,22
1,48,40,7
1,66,54,184
1,67,57,173
1,60,28,27
1,52,28,15
1,68,66,89
1,65,63,2
1,51,41,10
1,66,53,112
1,69,75,0
1,50,64,1
1,60,30,11
1,57,25,16
1,71,78,96
1,69,80,46
1,72,98,29
1,52,75,7
1,67,75,3
1,74,100,43
1,72,101,36
1,53,73,4
1,76,110,8
1,68,84,0
1,54,52,177
1,60,53,15
1,76,111,4
1,69,87,9
1,64,63,1
1,78,100,147
1,76,102,6
1,81,110,45
1,66,88,3
1,74,87,4
1,59,56,5
1,72,98,33
1,67,88,6
1,64,66,5
1,57,75,0
1,83,101,6
1,54,76,10
1,60,83,42
1,76,115,43
1,64,83,1
1,69,100,6
1,78,106,122
1,76,106,10
1,66,90,75
1,59,64,2
1,81,113,6
1,74,87,0
1,72,83,54
1,57,32,5
1,67,64,3
1,64,76,0
1,83,99,73
1,54,61,52
1,60,68,94
1,64,83,31
1,69,95,4
1,84,108,97
1,72,90,826
1,68,64,366
1,57,51,21
1,71,64,26
1,72,64,86
1,63,35,265
1,67,34,12
1,60,25,15
1,71,37,186
1,72,40,183
1,40,32,317
1,47,36,133
1,62,32,27
1,66,38,7
1,73,41,192
1,56,26,0
1,50,25,174
1,52,41,91
1,56,50,35
1,59,41,31
1,66,41,12
1,62,43,48
1,68,47,73
1,71,32,37
1,78,36,11
1,74,59,25
1,76,46,38
1,80,36,27
1,83,35,19
1,90,47,8
1,62,37,37
1,64,48,19
1,68,41,53
1,71,25,20
1,78,43,0
1,50,38,43
1,52,24,92
1,54,35,124
1,56,50,54
1,66,50,94
1,62,46,9
1,40,27,148
1,62,16,111
1,64,16,6
1,47,15,6
1,68,42,44
1,73,42,58
1,78,43,130
1,52,32,27
1,71,65,140
1,70,84,202
1,47,25,23
1,69,84,37
1,68,86,79
1,40,31,19
1,67,77,168
1,63,47,17
1,57,43,4
1,48,33,17
1,69,66,257
1,71,47,7
1,72,57,0
1,40,37,2
1,73,61,15
1,62,37,28
1,66,36,4
1,56,29,36
1,47,33,12
1,71,45,33
1,69,54,33
1,68,54,100
1,67,53,67
1,63,28,7
1,60,26,11
1,57,31,9
1,69,45,105
1,71,50,10
1,72,70,39
1,56,45,25
1,66,65,4
1,73,77,3
1,62,49,9
1,59,33,2
1,71,63,100
1,69,66,5
1,68,73,42
1,57,41,10
1,67,89,1
1,63,64,1
1,60,44,5
1,69,74,100
1,71,74,0
1,72,92,4
1,62,56,0
1,66,75,1
1,56,52,0
1,73,81,0
1,59,35,12
1,71,67,53
1,69,73,27
1,68,80,29
1,63,67,27
1,67,81,4
1,60,42,2
1,57,46,11
1,69,79,7
1,71,69,93
1,72,84,4
1,67,90,66
1,69,80,82
1,71,68,77
1,72,92,23
1,73,84,28
1,62,73,1
1,66,75,3
1,59,56,5
1,56,54,6
1,71,64,6
1,73,66,10
1,76,103,54
1,52,62,25
1,59,62,30
1,78,90,33
1,68,84,4
1,64,81,30
1,76,98,2
1,78,96,91
1,80,105,54
1,49,77,23
1,54,61,0
1,80,95,64
1,70,88,17
1,64,83,35
1,82,111,23
1,80,101,71
1,58,52,41
1,64,63,2
1,66,73,46
1,78,99,3
