track,note,velocity,time
1,71,75,15357
1,71,0,100
1,71,83,92
1,71,0,576
1,68,82,0
1,68,0,188
1,66,65,4
1,66,0,452
1,66,76,700
1,68,76,192
1,66,0,28
1,71,73,164
1,68,0,8
1,71,0,228
1,71,64,148
1,71,0,236
1,71,75,148
1,71,0,276
1,71,75,108
1,71,0,276
1,71,73,108
1,71,0,272
1,71,65,112
1,71,0,276
1,71,64,108
1,71,0,272
1,71,76,112
1,71,0,272
1,68,83,112
1,68,0,192
1,66,83,0
1,66,0,260
1,71,73,124
1,71,0,120
1,71,82,72
1,71,0,572
1,68,83,4
1,68,0,180
1,66,76,12
1,66,0,332
1,66,82,820
1,66,0,180
1,68,64,12
1,68,0,184
1,71,55,8
1,71,0,252
1,71,66,132
1,71,0,236
1,71,73,148
1,71,0,276
1,71,66,108
1,71,0,296
1,71,64,88
1,71,0,332
1,71,76,52
1,71,0,372
1,71,65,12
1,71,0,152
1,71,100,232
1,71,0,104
1,71,92,88
1,71,0,152
1,78,113,40
1,78,0,316
1,71,100,68
1,71,0,304
1,71,91,80
1,71,0,720
1,70,93,48
1,70,0,316
1,71,83,68
1,71,0,320
1,71,91,64
1,71,0,648
1,78,113,120
1,78,0,364
1,71,83,20
1,71,0,284
1,71,83,100
1,71,0,320
1,71,82,64
1,71,0,336
1,73,91,48
1,73,0,284
1,73,91,100
1,73,0,336
1,75,100,48
1,71,83,192
1,75,0,12
1,71,0,108
1,73,83,72
1,73,0,1848
1,81,76,72
1,81,0,176
1,81,82,16
1,81,0,348
1,74,76,36
1,74,0,140
1,74,90,52
1,74,0,468
1,74,75,108
1,76,75,192
1,74,0,24
1,76,0,308
1,78,82,52
1,78,0,1224
1,78,90,120
1,78,0,172
1,79,82,20
1,79,0,352
1,78,83,32
1,78,0,312
1,74,75,72
1,74,0,332
1,78,83,52
1,78,0,348
1,79,75,36
1,79,0,352
1,78,73,32
1,78,0,352
1,76,73,32
1,81,90,384
1,81,0,100
1,76,0,4
1,81,83,88
1,81,0,252
1,74,92,132
1,74,0,120
1,74,89,72
1,74,0,480
1,74,90,96
1,76,87,192
1,74,0,24
1,76,0,324
1,78,91,36
1,78,0,1028
1,78,92,124
1,78,0,276
1,79,96,108
1,79,0,384
1,78,82,0
1,78,0,384
1,74,73,0
1,74,0,384
1,71,82,0
1,71,0,384
1,74,76,0
1,74,0,384
1,76,75,0
1,76,0,384
1,78,92,0
1,76,91,96
1,78,0,24
1,74,76,72
1,76,0,44
1,74,0,464
1,71,75,6404
1,71,0,100
1,71,83,92
1,71,0,576
1,68,82,0
1,68,0,188
1,66,65,4
1,66,0,452
1,66,76,700
1,68,76,192
1,66,0,28
1,71,73,164
1,68,0,8
1,71,0,228
1,71,64,148
1,71,0,236
1,71,75,148
1,71,0,276
1,71,75,108
1,71,0,276
1,71,73,108
1,71,0,272
1,71,65,112
1,71,0,276
1,71,64,108
1,71,0,272
1,71,76,112
1,71,0,272
1,68,83,112
1,68,0,192
1,66,83,0
1,66,0,260
1,71,73,124
1,71,0,120
1,71,82,72
1,71,0,572
1,68,83,4
1,68,0,180
1,66,76,12
1,66,0,332
1,66,82,820
1,66,0,180
1,68,64,12
1,68,0,184
1,71,55,8
1,71,0,252
1,71,66,132
1,71,0,236
1,71,73,148
1,71,0,276
1,71,66,108
1,71,0,296
1,71,64,88
1,71,0,332
1,71,76,52
1,71,0,372
1,71,65,12
1,71,0,152
1,71,100,232
1,71,0,104
1,71,92,88
1,71,0,152
1,78,113,40
1,78,0,316
1,71,100,68
1,71,0,304
1,71,91,80
1,71,0,720
1,70,93,48
1,70,0,316
1,71,83,68
1,71,0,320
1,71,91,64
1,71,0,648
1,78,113,120
1,78,0,364
1,71,83,20
1,71,0,284
1,71,83,100
1,71,0,320
1,71,82,64
1,71,0,336
1,73,91,48
1,73,0,284
1,73,91,100
1,73,0,336
1,75,100,48
1,71,83,192
1,75,0,12
1,71,0,108
1,73,83,72
1,73,0,1848
1,81,76,72
1,81,0,120
1,81,82,72
1,81,0,348
1,74,76,36
1,74,0,140
1,74,90,52
1,74,0,468
1,74,75,108
1,76,75,192
1,74,0,24
1,76,0,308
1,78,82,52
1,78,0,1224
1,78,90,120
1,78,0,172
1,79,82,20
1,79,0,352
1,78,83,32
1,78,0,312
1,74,75,72
1,74,0,332
1,78,83,52
1,78,0,348
1,79,75,36
1,79,0,352
1,78,73,32
1,78,0,352
1,76,73,32
1,81,90,384
1,81,0,100
1,76,0,4
1,81,83,88
1,81,0,252
1,74,92,132
1,74,0,120
1,74,89,72
1,74,0,480
1,74,90,96
1,76,87,192
1,74,0,24
1,76,0,324
1,78,91,36
1,78,0,1028
1,78,92,124
1,78,0,276
1,79,96,108
1,79,0,384
1,78,82,0
1,78,0,384
1,74,73,0
1,74,0,384
1,71,82,0
1,71,0,384
1,74,76,0
1,74,0,384
1,76,75,0
1,76,0,384
1,78,92,0
1,76,91,96
1,78,0,24
1,74,76,72
1,76,0,44
1,74,0,80
1,81,76,68
1,81,0,120
1,81,82,72
1,81,0,348
1,74,76,36
1,74,0,140
1,74,90,52
1,74,0,468
1,74,75,108
1,76,75,192
1,74,0,24
1,76,0,308
1,78,82,52
1,78,0,1224
1,78,90,120
1,78,0,172
1,79,82,20
1,79,0,352
1,78,83,32
1,78,0,312
1,74,75,72
1,74,0,332
1,78,83,52
1,78,0,348
1,79,75,36
1,79,0,352
1,78,73,32
1,78,0,352
1,76,73,32
1,81,90,384
1,81,0,100
1,76,0,4
1,81,83,88
1,81,0,252
1,74,92,132
1,74,0,120
1,74,89,72
1,74,0,480
1,74,90,96
1,76,87,192
1,74,0,24
1,76,0,324
1,78,91,36
1,78,0,1028
1,78,92,124
1,78,0,276
1,79,96,108
1,79,0,384
1,78,82,0
1,78,0,384
1,74,73,0
1,74,0,384
1,71,82,0
1,71,0,384
1,74,76,0
1,74,0,384
1,76,75,0
1,76,0,384
1,78,92,0
1,76,91,96
1,78,0,24
1,74,76,72
1,76,0,44
1,74,0,464
1,81,90,30404
1,81,0,180
1,81,83,12
1,81,0,252
1,74,92,132
1,74,0,180
1,74,89,12
1,74,0,480
1,74,90,96
1,76,87,192
1,74,0,24
1,76,0,324
1,78,91,36
1,78,0,644
1,78,92,508
1,78,0,352
1,79,96,32
1,79,0,384
1,78,82,0
1,78,0,384
1,74,73,0
1,74,0,384
1,78,82,0
1,78,0,560
1,79,75,16
1,79,0,180
1,78,73,12
1,78,0,352
1,76,73,32
1,81,90,384
1,81,0,100
1,76,0,4
1,81,83,88
1,81,0,252
1,74,92,132
1,74,0,120
1,74,89,72
1,74,0,480
1,74,90,96
1,76,87,192
1,74,0,24
1,76,0,324
1,78,91,36
1,78,0,1028
1,78,92,124
1,78,0,276
1,79,96,108
1,79,0,384
1,78,82,0
1,78,0,384
1,74,73,0
1,74,0,384
1,71,82,0
1,71,0,384
1,74,76,0
1,74,0,384
1,76,75,0
1,76,0,384
1,78,92,0
1,76,91,96
1,78,0,24
1,74,76,72
1,76,0,44
1,74,0,80
1,81,76,68
1,81,0,120
1,81,82,72
1,81,0,348
1,74,76,36
1,74,0,140
1,74,90,52
1,74,0,468
1,74,75,108
1,76,75,192
1,74,0,24
1,76,0,308
1,78,82,52
1,78,0,1224
1,78,90,120
1,78,0,172
1,79,82,20
1,79,0,352
1,78,83,32
1,78,0,312
1,74,75,72
1,74,0,332
1,78,83,52
1,78,0,348
1,79,75,36
1,79,0,352
1,78,73,32
1,78,0,352
1,76,73,32
1,81,76,384
1,81,0,100
1,76,0,4
1,81,76,88
1,81,0,336
1,74,75,48
1,74,0,120
1,74,83,72
1,74,0,700
1,81,66,68
1,81,0,120
1,81,76,72
1,81,0,368
1,74,73,16
1,74,0,160
1,76,82,32
1,76,0,696
1,81,75,72
1,81,0,120
1,81,76,72
1,81,0,316
1,74,75,68
1,74,0,120
1,74,82,72
1,74,0,524
1,74,65,52
1,76,75,192
1,74,0,28
1,76,0,324
1,78,82,32
1,79,60,1152
1,78,0,12
1,79,0,2460
1,78,99,3864
1,78,0,180
1,78,90,12
1,78,0,292
1,78,91,92
1,78,0,296
1,78,88,88
1,78,0,316
1,78,90,68
1,76,85,384
1,78,0,44
1,76,0,216
1,78,79,124
1,78,0,700
1,78,100,68
1,78,0,308
1,78,100,76
1,78,0,296
1,78,91,88
1,78,0,296
1,78,90,88
1,78,0,296
1,78,90,88
1,78,0,312
1,79,88,72
1,79,0,312
1,79,91,72
1,79,0,620
1,81,100,148
1,81,0,120
1,81,108,72
1,81,0,368
1,74,99,16
1,74,0,120
1,74,91,72
1,74,0,700
1,81,89,68
1,81,0,108
1,81,91,84
1,81,0,372
1,74,90,12
1,76,111,192
1,74,0,24
1,76,0,676
1,81,91,68
1,81,0,96
1,81,91,96
1,81,0,372
1,74,88,12
1,74,0,144
1,74,91,48
1,74,0,508
1,74,88,68
1,76,94,192
1,74,0,8
1,78,90,376
1,76,0,4
1,78,0,1124
1,78,91,6360
1,78,0,156
1,78,80,36
1,78,0,308
1,78,82,76
1,78,0,296
1,78,90,88
1,78,0,296
1,78,80,88
1,78,0,312
1,76,80,72
1,76,0,292
1,78,80,92
1,78,0,660
1,78,79,108
1,78,0,308
1,78,91,76
1,78,0,296
1,78,83,88
1,78,0,316
1,78,80,68
1,78,0,312
1,78,72,72
1,78,0,328
1,79,72,56
1,79,0,256
1,79,80,128
1,79,0,604
1,81,90,164
1,81,0,180
1,81,83,12
1,81,0,372
1,74,92,12
1,74,0,180
1,74,89,12
1,74,0,560
1,74,90,16
1,76,87,192
1,74,0,24
1,76,0,324
1,78,73,36
1,77,60,912
1,76,35,24
1,74,75,60
1,77,0,4
1,72,90,20
1,76,0,24
1,74,0,20
1,71,91,0
1,69,83,24
1,72,0,24
1,67,82,20
1,71,0,4
1,78,0,8
1,65,73,32
1,69,0,4
1,64,83,20
1,67,0,4
1,62,83,20
1,65,0,4
1,60,83,40
1,64,0,4
1,62,0,44
1,59,76,0
1,57,65,20
1,60,0,4
1,55,66,20
1,59,0,4
1,57,0,24
1,55,0,20
2,62,82,2680
2,74,76,0
2,74,0,1516
2,62,0,20
2,64,73,0
2,76,66,0
2,76,0,1520
2,66,75,16
2,78,83,0
2,64,0,24
2,78,0,1512
2,67,65,0
2,79,75,0
2,66,0,20
2,69,66,748
2,81,73,0
2,79,0,72
2,67,0,0
2,69,0,688
2,62,82,8
2,74,76,0
2,81,83,0
2,81,0,16
2,81,0,1424
2,74,0,76
2,62,0,20
2,64,73,0
2,76,66,0
2,83,75,0
2,76,0,1520
2,66,75,16
2,78,83,0
2,85,76,0
2,83,0,16
2,64,0,8
2,85,0,1504
2,78,0,8
2,67,65,0
2,79,75,0
2,86,75,0
2,66,0,20
2,69,66,748
2,81,73,0
2,88,75,0
2,86,0,32
2,67,0,40
2,79,0,0
2,81,0,196
2,88,0,416
2,69,0,76
2,59,60,8
2,59,0,1536
2,54,65,0
2,54,0,1536
2,56,60,0
2,56,0,1536
2,52,49,0
2,54,52,768
2,52,0,52
2,59,60,716
2,54,0,48
2,59,0,1488
2,54,65,0
2,54,0,1536
2,56,60,0
2,56,0,1536
2,52,49,0
2,54,52,768
2,52,0,52
2,59,58,716
2,63,65,0
2,66,60,0
2,54,0,48
2,59,0,1488
2,63,0,0
2,66,0,0
2,58,72,0
2,61,66,0
2,66,60,0
2,66,0,1536
2,61,0,0
2,58,0,0
2,59,60,0
2,64,66,0
2,68,60,0
2,68,0,1536
2,64,0,0
2,59,0,0
2,58,72,0
2,61,66,0
2,66,60,0
2,66,0,3072
2,61,0,0
2,58,0,0
2,74,68,0
2,78,90,0
2,81,72,0
2,81,0,1536
2,78,0,0
2,74,0,0
2,73,90,0
2,76,72,0
2,81,72,0
2,81,0,1536
2,76,0,0
2,73,0,0
2,71,53,0
2,74,90,0
2,78,90,0
2,78,0,1536
2,74,0,0
2,71,0,0
2,71,91,0
2,74,83,0
2,79,91,0
2,79,0,768
2,74,0,0
2,71,0,0
2,73,100,0
2,76,99,0
2,81,99,0
2,81,0,768
2,76,0,0
2,73,0,0
2,74,68,0
2,78,90,0
2,81,72,0
2,81,0,1536
2,78,0,0
2,74,0,0
2,73,90,0
2,76,72,0
2,81,72,0
2,81,0,1536
2,76,0,0
2,73,0,0
2,71,53,0
2,74,90,0
2,78,90,0
2,78,0,1536
2,74,0,0
2,71,0,0
2,71,91,0
2,74,83,0
2,79,91,0
2,79,0,768
2,74,0,0
2,71,0,0
2,73,100,0
2,76,99,0
2,81,99,0
2,81,0,768
2,76,0,0
2,73,0,0
2,62,82,0
2,74,76,0
2,74,0,1516
2,62,0,20
2,64,73,0
2,76,66,0
2,76,0,1520
2,66,75,16
2,78,83,0
2,64,0,24
2,78,0,1512
2,67,65,0
2,79,75,0
2,66,0,20
2,69,66,748
2,81,73,0
2,79,0,72
2,67,0,0
2,75,73,680
2,69,0,8
2,59,60,8
2,81,0,16
2,73,76,1500
2,75,0,4
2,59,0,16
2,54,65,0
2,73,0,1512
2,71,76,20
2,54,0,4
2,56,60,0
2,56,0,1536
2,52,49,0
2,54,52,768
2,52,0,52
2,59,60,716
2,71,0,12
2,75,68,0
2,54,0,36
2,73,66,1476
2,59,0,12
2,54,65,0
2,75,0,8
2,71,65,1504
2,73,0,4
2,54,0,20
2,56,60,0
2,56,0,1536
2,52,49,0
2,54,52,768
2,52,0,52
2,54,0,204
2,71,0,336
2,59,58,176
2,63,65,0
2,66,60,0
2,66,0,1536
2,63,0,0
2,59,0,0
2,58,72,0
2,61,66,0
2,66,60,0
2,66,0,1536
2,61,0,0
2,58,0,0
2,59,60,0
2,64,66,0
2,68,60,0
2,68,0,1536
2,64,0,0
2,59,0,0
2,58,72,0
2,61,66,0
2,66,60,0
2,66,0,3072
2,61,0,0
2,58,0,0
2,74,68,0
2,78,90,0
2,81,72,0
2,81,0,1536
2,78,0,0
2,74,0,0
2,73,90,0
2,76,72,0
2,81,72,0
2,81,0,1536
2,76,0,0
2,73,0,0
2,71,53,0
2,74,90,0
2,78,90,0
2,78,0,1536
2,74,0,0
2,71,0,0
2,71,91,0
2,74,83,0
2,79,91,0
2,79,0,768
2,74,0,0
2,71,0,0
2,73,100,0
2,76,99,0
2,81,99,0
2,81,0,768
2,76,0,0
2,73,0,0
2,74,68,0
2,78,90,0
2,81,72,0
2,81,0,1536
2,78,0,0
2,74,0,0
2,73,90,0
2,76,72,0
2,81,72,0
2,81,0,1536
2,76,0,0
2,73,0,0
2,71,53,0
2,74,90,0
2,78,90,0
2,78,0,1536
2,74,0,0
2,71,0,0
2,71,91,0
2,74,83,0
2,79,91,0
2,79,0,768
2,74,0,0
2,71,0,0
2,73,100,0
2,76,99,0
2,81,99,0
2,81,0,768
2,76,0,0
2,73,0,0
2,74,68,0
2,78,90,0
2,81,72,0
2,86,100,0
2,86,0,1532
2,74,0,4
2,78,0,0
2,81,0,0
2,76,100,0
2,81,100,0
2,86,100,0
2,86,0,764
2,88,100,4
2,88,0,764
2,81,0,0
2,76,0,0
2,71,53,4
2,74,90,0
2,78,90,0
2,90,100,0
2,90,0,1532
2,71,0,4
2,74,0,0
2,78,0,0
2,74,83,0
2,79,91,0
2,83,80,0
2,83,0,764
2,79,0,4
2,74,0,0
2,76,87,0
2,81,83,0
2,85,83,0
2,85,0,764
2,81,0,4
2,76,0,0
2,74,68,0
2,78,90,0
2,81,72,0
2,86,100,0
2,86,0,1532
2,74,0,4
2,78,0,0
2,81,0,0
2,73,90,0
2,76,72,0
2,81,72,0
2,85,100,0
2,85,0,1532
2,73,0,4
2,76,0,0
2,81,0,0
2,71,53,0
2,74,90,0
2,78,90,0
2,86,100,0
2,86,0,1532
2,71,0,4
2,74,0,0
2,78,0,0
2,71,91,0
2,74,83,0
2,79,91,0
2,79,0,768
2,74,0,0
2,71,0,0
2,73,100,0
2,76,99,0
2,81,99,0
2,81,0,768
2,76,0,0
2,73,0,0
2,62,82,0
2,74,76,0
2,74,0,1516
2,62,0,20
2,64,73,0
2,76,66,0
2,76,0,1520
2,66,75,16
