track,note,velocity,time
1,43,87,480
1,37,64,180
1,43,0,20
1,37,0,26
1,36,85,20
1,36,0,158
1,36,85,20
1,36,0,56
1,43,87,0
1,37,64,180
1,43,0,20
1,37,0,26
1,36,85,20
1,36,0,158
1,36,85,20
1,36,0,56
1,53,98,0
1,53,0,156
1,47,98,24
1,47,0,61
1,48,80,0
1,40,78,179
1,48,0,4
1,40,0,57
1,41,76,0
1,41,0,172
1,35,89,7
1,35,0,62
1,36,87,0
1,34,66,0
1,34,0,7
1,36,0,160
1,41,85,11
1,41,0,39
1,41,85,21
1,48,82,180
1,41,0,11
1,48,0,16
1,48,93,33
1,41,80,180
1,48,0,6
1,41,0,18
1,41,87,36
1,48,70,180
1,41,0,7
1,48,0,15
1,48,85,38
1,36,82,120
1,48,0,11
1,36,0,57
1,36,85,52
1,36,0,179
1,43,91,1
1,52,80,240
1,43,0,2
1,52,0,236
1,43,89,2
1,48,89,120
1,43,0,3
1,43,63,57
1,48,0,11
1,43,0,48
1,36,80,1
1,36,0,36
1,36,87,24
1,43,85,180
1,36,0,13
1,31,74,227
1,43,0,12
1,31,0,50
1,36,82,0
1,36,0,180
1,43,95,0
1,43,0,34
1,43,82,24
1,31,87,120
1,43,0,6
1,31,0,57
1,41,89,57
1,48,85,180
1,41,0,13
1,48,0,14
1,48,100,33
1,41,95,180
1,48,0,16
1,41,0,19
1,41,89,25
1,41,0,180
1,48,89,0
1,48,0,33
1,48,91,27
1,41,87,180
1,48,0,3
1,41,0,32
1,41,85,25
1,48,82,180
1,41,0,11
1,48,0,16
1,48,93,33
1,41,80,180
1,48,0,6
1,41,0,18
1,41,87,36
1,48,70,180
1,41,0,7
1,48,0,15
1,48,85,38
1,36,82,120
1,48,0,11
1,36,0,57
1,43,87,52
1,43,0,131
1,43,82,49
1,43,0,55
1,50,82,5
1,50,0,175
1,43,89,5
1,43,0,37
1,36,87,23
1,43,82,180
1,36,0,12
1,43,0,18
1,43,93,30
1,43,0,170
1,44,82,10
1,44,0,24
1,43,87,36
1,37,64,180
1,43,0,20
1,37,0,26
1,36,87,14
1,36,0,165
1,36,87,15
1,36,0,60
1,43,98,0
1,50,89,120
1,43,0,2
1,38,80,58
1,50,0,4
1,38,0,40
1,36,87,16
1,42,64,180
1,36,0,20
1,42,0,26
1,41,87,14
1,48,85,180
1,41,0,13
1,36,74,227
1,48,0,12
1,36,0,50
1,41,82,0
1,41,0,180
1,48,95,0
1,48,0,34
1,48,82,24
1,36,87,120
1,48,0,6
1,36,0,57
1,41,85,57
1,41,0,179
1,48,91,1
1,57,80,240
1,48,0,2
1,57,0,236
1,48,89,2
1,53,89,120
1,48,0,3
1,48,63,57
1,53,0,11
1,48,0,48
1,41,80,1
1,41,0,36
1,36,87,24
1,43,85,180
1,36,0,13
1,31,74,227
1,43,0,12
1,31,0,50
1,36,82,0
1,36,0,180
1,43,95,0
1,43,0,34
1,43,82,24
1,31,87,120
1,43,0,6
1,31,0,57
1,36,89,57
1,43,85,180
1,36,0,13
1,43,0,14
1,43,100,33
1,36,95,180
1,43,0,16
1,36,0,19
1,36,89,25
1,36,0,180
1,43,89,0
1,43,0,33
1,43,91,27
1,36,87,180
1,43,0,3
1,36,0,32
1,41,89,25
1,48,85,180
1,41,0,13
1,48,0,14
1,48,100,33
1,41,95,180
1,48,0,16
1,41,0,19
1,41,89,25
1,41,0,180
1,48,89,0
1,48,0,33
1,48,91,27
1,41,87,180
1,48,0,3
1,41,0,32
1,41,85,25
1,48,82,180
1,41,0,11
1,48,0,16
1,48,93,33
1,41,80,180
1,48,0,6
1,41,0,18
1,41,87,36
1,48,70,180
1,41,0,7
1,48,0,15
1,48,85,38
1,36,82,120
1,48,0,11
1,36,0,57
1,43,87,52
1,43,0,131
1,43,82,49
1,43,0,55
1,50,82,5
1,50,0,175
1,43,89,5
1,43,0,37
1,36,87,23
1,36,0,131
1,36,82,49
1,36,0,55
1,43,82,5
1,43,0,175
1,36,89,5
1,36,0,37
1,43,98,23
1,50,89,120
1,43,0,2
1,38,80,58
1,50,0,4
1,38,0,40
1,36,98,16
1,43,89,120
1,36,0,2
1,31,80,58
1,43,0,4
1,31,0,40
1,43,85,22
1,43,0,158
1,43,85,20
1,43,0,56
1,36,87,0
1,42,64,180
1,36,0,20
1,42,0,26
1,41,85,14
1,41,0,153
1,47,100,27
1,47,0,60
1,48,87,0
1,48,0,173
1,52,89,7
1,52,0,40
1,53,91,20
1,53,0,176
1,47,80,4
1,47,0,59
1,48,82,1
1,36,82,120
1,48,0,4
1,36,0,61
1,41,87,55
1,48,82,180
1,41,0,14
1,48,0,14
1,48,87,32
1,48,0,173
1,33,76,7
1,33,0,14
1,34,87,46
1,34,0,131
1,34,82,49
1,34,0,55
1,41,82,5
1,41,0,175
1,34,89,5
1,34,0,37
1,39,85,23
1,39,0,153
1,45,100,27
1,45,0,60
1,46,87,0
1,46,0,173
1,50,89,7
1,50,0,40
1,51,91,20
1,51,0,176
1,45,80,4
1,45,0,59
1,46,82,1
1,34,82,120
1,46,0,4
1,34,0,61
1,44,85,55
1,51,98,180
1,44,0,29
1,51,0,18
1,51,82,13
1,44,87,180
1,51,0,20
1,44,0,28
1,34,87,12
1,34,0,131
1,34,82,49
1,34,0,55
1,41,82,5
1,41,0,175
1,34,89,5
1,34,0,37
1,48,98,23
1,48,0,156
1,42,98,24
1,42,0,61
1,43,80,0
1,35,78,179
1,43,0,4
1,35,0,57
1,36,76,0
1,36,0,172
1,30,89,7
1,30,0,62
1,31,87,0
1,29,66,0
1,29,0,7
1,31,0,160
1,36,85,11
1,36,0,39
1,34,87,21
1,34,0,131
1,34,82,49
1,34,0,55
1,41,82,5
1,41,0,175
1,34,89,5
1,34,0,37
1,36,87,23
1,43,82,180
1,36,0,14
1,43,0,14
1,43,87,32
1,43,0,173
1,40,76,7
1,40,0,14
1,41,89,46
1,48,85,180
1,41,0,13
1,48,0,14
1,48,100,33
1,41,95,180
1,48,0,16
1,41,0,19
1,41,89,25
1,41,0,180
1,48,89,0
1,48,0,33
1,48,91,27
1,41,87,180
1,48,0,3
1,41,0,32
1,48,98,25
1,48,0,156
1,42,98,24
1,42,0,61
1,43,80,0
1,35,78,179
1,43,0,4
1,35,0,57
1,36,76,0
1,36,0,172
1,30,89,7
1,30,0,62
1,31,87,0
1,29,66,0
1,29,0,7
1,31,0,160
1,36,85,11
1,36,0,39
1,41,85,21
1,41,0,179
1,48,91,1
1,57,80,240
1,48,0,2
1,57,0,236
1,48,89,2
1,53,89,120
1,48,0,3
1,48,63,57
1,53,0,11
1,48,0,48
1,41,80,1
1,41,0,36
1,41,85,24
1,48,82,180
1,41,0,11
1,48,0,16
1,48,93,33
1,41,80,180
1,48,0,6
1,41,0,18
1,41,87,36
1,48,70,180
1,41,0,7
1,48,0,15
1,48,85,38
1,36,82,120
1,48,0,11
1,36,0,57
1,36,89,52
1,43,85,180
1,36,0,13
1,43,0,14
1,43,100,33
1,36,95,180
1,43,0,16
1,36,0,19
1,36,89,25
1,36,0,180
1,43,89,0
1,43,0,33
1,43,91,27
1,36,87,180
1,43,0,3
1,36,0,32
1,36,87,25
1,43,85,180
1,36,0,13
1,31,74,227
1,43,0,12
1,31,0,50
1,36,82,0
1,36,0,180
1,43,95,0
1,43,0,34
1,43,82,24
1,31,87,120
1,43,0,6
1,31,0,57
1,41,85,57
1,48,82,180
1,41,0,11
1,48,0,16
1,48,93,33
1,41,80,180
1,48,0,6
1,41,0,18
1,41,87,36
1,48,70,180
1,41,0,7
1,48,0,15
1,48,85,38
1,36,82,120
1,48,0,11
1,36,0,57
1,41,85,52
1,48,82,180
1,41,0,11
1,48,0,16
1,48,93,33
1,41,80,180
1,48,0,6
1,41,0,18
1,41,87,36
1,48,70,180
1,41,0,7
1,48,0,15
1,48,85,38
1,36,82,120
1,48,0,11
1,36,0,57
1,43,87,52
1,43,0,131
1,43,82,49
1,43,0,55
1,50,82,5
1,50,0,175
1,43,89,5
1,43,0,37
1,36,85,23
1,43,98,180
1,36,0,29
1,43,0,18
1,43,82,13
1,36,87,180
1,43,0,20
1,36,0,28
1,43,87,12
1,43,0,140
1,36,113,40
1,36,0,180
1,43,89,0
1,31,80,60
1,43,0,4
1,31,0,40
1,43,85,22
1,43,0,158
1,43,85,20
1,43,0,56
1,36,87,0
1,42,64,180
1,36,0,20
1,42,0,26
1,41,85,14
1,41,0,179
1,48,91,1
1,57,80,240
1,48,0,2
1,57,0,236
1,48,89,2
1,53,89,120
1,48,0,3
1,48,63,57
1,53,0,11
1,48,0,48
1,41,80,1
1,41,0,36
1,43,85,30
1,43,0,158
1,43,85,20
1,43,0,56
1,36,85,6
1,36,0,158
1,36,85,20
1,36,0,56
1,43,85,6
1,43,0,158
1,43,85,20
1,43,0,56
1,36,87,0
1,42,64,180
1,36,0,20
1,42,0,26
1,41,85,14
1,41,0,153
1,47,100,27
1,47,0,60
1,48,87,0
1,48,0,173
1,52,89,7
1,52,0,40
1,53,91,20
1,53,0,176
1,47,80,4
1,47,0,59
1,48,82,1
1,36,82,120
1,48,0,4
1,36,0,61
1,43,87,55
1,43,0,165
1,43,87,15
1,43,0,60
1,36,85,6
1,36,0,158
1,36,85,20
1,36,0,56
1,43,87,0
1,37,64,180
1,43,0,20
1,37,0,26
1,36,98,14
1,43,89,120
1,36,0,2
1,31,80,58
1,43,0,4
1,31,0,40
1,41,87,16
1,41,0,131
1,41,82,49
1,41,0,55
1,48,82,5
1,48,0,175
1,41,89,5
1,41,0,37
1,41,87,23
1,48,82,180
1,41,0,12
1,48,0,18
1,48,93,30
1,48,0,170
1,42,82,10
1,42,0,24
1,41,80,36
1,41,0,163
1,48,78,17
1,48,0,22
1,48,102,38
1,48,0,114
1,36,85,6
1,36,0,120
1,41,89,0
1,41,0,473
2,35,100,480
2,37,90,0
2,49,50,0
2,70,80,0
2,70,0,25
2,35,0,0
2,37,0,0
2,49,0,0
2,42,70,35
2,69,50,0
2,69,0,25
2,42,0,0
2,42,70,35
2,70,80,0
2,70,0,25
2,42,0,0
2,42,80,5
2,42,0,25
2,35,70,5
2,42,70,0
2,37,90,0
2,69,50,0
2,69,0,25
2,35,0,0
2,42,0,0
2,37,0,0
2,35,100,35
2,42,90,0
2,70,80,0
2,70,0,25
2,42,0,0
2,35,0,0
2,46,72,35
2,69,50,0
2,69,0,25
2,46,0,0
2,42,70,35
2,37,90,0
2,70,80,0
2,70,0,25
2,37,0,0
2,42,0,0
2,35,70,35
2,42,70,0
2,69,50,0
2,69,0,25
2,42,0,0
2,35,0,0
2,35,100,35
2,42,90,0
2,70,80,0
2,70,0,25
2,42,0,0
2,35,0,0
2,42,70,35
2,69,50,0
2,69,0,25
2,42,0,0
2,42,70,35
2,37,90,0
2,70,80,0
2,70,0,25
2,37,0,0
2,42,0,0
2,35,70,35
2,42,70,0
2,69,50,0
2,69,0,25
2,42,0,0
2,35,0,0
2,35,100,35
2,42,90,0
2,70,80,0
2,70,0,25
2,42,0,0
2,35,0,0
2,42,70,35
2,37,90,0
2,69,50,0
2,69,0,25
2,37,0,0
2,42,0,0
2,42,70,35
2,70,80,0
2,70,0,25
2,42,0,0
2,35,70,35
2,42,70,0
2,69,50,0
2,69,0,25
2,42,0,0
2,35,0,0
2,35,100,35
2,42,90,0
2,37,90,0
2,70,80,0
2,70,0,25
2,35,0,0
2,42,0,0
2,37,0,0
2,42,70,35
2,69,50,0
2,69,0,25
2,42,0,0
2,42,70,35
2,70,80,0
2,70,0,25
2,42,0,0
2,35,70,35
2,42,70,0
2,37,90,0
2,69,50,0
2,69,0,25
2,35,0,0
2,42,0,0
2,37,0,0
2,35,100,35
2,42,90,0
2,70,80,0
2,70,0,25
2,42,0,0
2,35,0,0
2,42,70,35
2,69,50,0
2,69,0,25
2,42,0,0
2,42,70,35
2,37,90,0
2,70,80,0
2,70,0,25
2,37,0,0
2,42,0,0
2,35,70,35
2,42,70,0
2,69,50,0
2,69,0,25
2,42,0,0
2,35,0,0
2,35,100,35
2,38,100,0
2,70,80,0
2,70,0,25
2,38,0,0
2,35,0,0
2,38,40,35
2,69,50,0
2,69,0,25
2,38,0,0
2,38,40,35
2,70,80,0
2,70,0,25
2,38,0,0
2,35,70,35
2,38,100,0
2,69,50,0
2,69,0,25
2,38,0,0
2,35,0,0
2,35,100,35
2,38,40,0
2,70,80,0
2,70,0,25
2,38,0,0
2,35,0,0
2,38,40,35
2,69,50,0
2,69,0,25
2,38,0,0
2,38,100,35
2,70,80,0
2,70,0,25
2,38,0,0
2,35,70,35
2,38,115,0
2,69,50,0
2,69,0,25
2,38,0,0
2,35,0,0
2,35,100,35
2,37,90,0
2,49,50,0
2,70,80,0
2,70,0,25
2,35,0,0
2,37,0,0
2,49,0,0
2,42,70,35
2,69,50,0
2,69,0,25
2,42,0,0
2,42,70,35
2,70,80,0
2,70,0,25
2,42,0,0
2,42,80,5
2,42,0,25
2,35,70,5
2,42,70,0
2,37,90,0
2,69,50,0
2,69,0,25
2,35,0,0
2,42,0,0
2,37,0,0
2,35,100,35
2,42,90,0
2,70,80,0
2,70,0,25
2,42,0,0
2,35,0,0
2,46,72,35
2,69,50,0
2,69,0,25
2,46,0,0
2,42,70,35
2,37,90,0
2,70,80,0
2,70,0,25
2,37,0,0
2,42,0,0
2,35,70,35
2,42,70,0
2,69,50,0
2,69,0,25
2,42,0,0
2,35,0,0
2,35,100,35
2,42,90,0
2,70,80,0
2,70,0,25
2,42,0,0
2,35,0,0
2,42,70,35
2,69,50,0
2,69,0,25
2,42,0,0
2,42,70,35
2,37,90,0
2,70,80,0
2,70,0,25
2,37,0,0
2,42,0,0
2,35,70,35
2,42,70,0
2,69,50,0
2,69,0,25
2,42,0,0
2,35,0,0
2,35,100,35
2,42,90,0
2,70,80,0
2,70,0,25
2,42,0,0
2,35,0,0
2,42,70,35
2,37,90,0
2,69,50,0
2,69,0,25
2,37,0,0
2,42,0,0
2,42,70,35
2,70,80,0
2,70,0,25
2,42,0,0
2,35,70,35
2,42,70,0
2,69,50,0
2,69,0,25
2,42,0,0
2,35,0,0
2,35,100,35
2,42,90,0
2,37,90,0
2,70,80,0
2,70,0,25
2,35,0,0
2,42,0,0
2,37,0,0
2,42,70,35
2,69,50,0
2,69,0,25
2,42,0,0
2,42,70,35
2,70,80,0
2,70,0,25
2,42,0,0
2,42,80,5
2,42,0,25
2,35,70,5
2,42,70,0
2,37,90,0
2,69,50,0
2,69,0,25
2,35,0,0
2,42,0,0
2,37,0,0
2,35,100,35
2,42,90,0
2,70,80,0
2,70,0,25
2,42,0,0
2,35,0,0
2,46,72,35
2,69,50,0
2,69,0,25
2,46,0,0
2,42,70,35
2,37,90,0
2,70,80,0
2,70,0,25
2,37,0,0
2,42,0,0
2,35,70,35
2,42,70,0
2,69,50,0
2,69,0,25
2,42,0,0
2,35,0,0
2,35,100,35
2,42,90,0
2,70,80,0
2,70,0,25
2,42,0,0
2,35,0,0
2,42,70,35
2,69,50,0
2,69,0,25
2,42,0,0
2,42,70,35
2,37,90,0
2,70,80,0
2,70,0,25
2,37,0,0
2,42,0,0
2,35,70,35
2,42,70,0
2,48,50,0
2,69,50,0
2,69,0,25
2,35,0,0
2,42,0,0
2,48,0,0
2,35,100,35
2,42,90,0
2,70,80,0
2,70,0,25
2,42,0,0
2,35,0,0
2,42,70,35
2,37,90,0
2,69,50,0
2,69,0,25
2,37,0,0
2,42,0,0
2,42,70,35
2,70,80,0
2,70,0,25
2,42,0,0
2,35,70,35
2,42,70,0
2,69,50,0
2,69,0,25
2,42,0,0
2,35,0,0
2,35,100,35
2,42,90,0
2,37,90,0
2,70,80,0
2,70,0,25
2,35,0,0
2,42,0,0
2,37,0,0
2,42,70,35
2,69,50,0
2,69,0,25
2,42,0,0
2,42,70,35
2,70,80,0
2,70,0,25
2,42,0,0
2,35,70,35
2,42,70,0
2,37,90,0
2,69,50,0
