track,note,velocity,time
0,38,127,429
0,50,127,83
0,57,127,0
0,50,97,2
0,62,127,1
0,57,97,1
0,50,127,1
0,57,127,0
0,62,127,0
0,50,111,3
0,57,113,0
0,50,81,1
0,57,83,1
0,50,111,0
0,57,113,1
0,50,94,26
0,57,94,0
0,50,64,2
0,57,64,1
0,50,94,1
0,57,94,1
0,50,127,28
0,57,127,1
0,50,97,1
0,62,127,0
0,57,97,1
0,50,127,1
0,57,127,0
0,62,127,2
0,50,109,1
0,57,109,0
0,50,79,2
0,57,79,0
0,50,109,2
0,57,109,0
0,50,85,26
0,57,85,0
0,50,55,1
0,57,55,1
0,50,85,1
0,57,85,1
0,50,111,29
0,57,101,0
0,50,81,2
0,57,71,1
0,50,111,1
0,57,101,1
0,50,90,26
0,57,90,1
0,50,60,1
0,57,60,1
0,50,90,0
0,57,90,1
0,50,106,29
0,57,106,1
0,50,76,1
0,57,76,1
0,50,106,0
0,57,106,1
0,50,92,25
0,57,92,0
0,50,62,2
0,57,62,0
0,50,92,2
0,57,92,0
0,50,104,29
0,57,104,0
0,50,74,2
0,57,74,0
0,50,104,1
0,57,104,1
0,50,90,24
0,57,90,2
0,50,60,1
0,57,60,1
0,50,90,1
0,57,90,0
0,50,99,29
0,57,87,1
0,50,69,1
0,57,57,0
0,50,99,1
0,57,87,1
0,50,101,26
0,57,101,0
0,50,71,2
0,57,71,0
0,50,101,2
0,57,101,0
0,50,127,29
0,57,127,0
0,50,97,1
0,62,127,0
0,57,97,1
0,50,127,0
0,57,127,1
0,62,127,1
0,50,108,2
0,57,108,0
0,50,78,1
0,57,78,1
0,50,108,1
0,57,108,0
0,50,127,19
0,57,127,1
0,50,97,1
0,62,127,1
0,57,97,0
0,50,127,1
0,57,127,0
0,62,127,1
0,50,111,2
0,57,113,1
0,50,81,1
0,74,127,1
0,57,83,1
0,50,111,0
0,57,113,0
0,50,94,10
0,57,94,0
0,50,64,2
0,57,64,1
0,74,127,2
0,50,94,0
0,57,94,0
0,74,127,22
0,50,127,0
0,57,127,1
0,50,97,1
0,62,127,0
0,57,97,1
0,50,127,1
0,57,127,1
0,62,127,1
0,50,109,1
0,57,109,1
0,50,79,0
0,57,79,2
0,74,127,1
0,50,109,0
0,57,109,1
0,50,85,26
0,57,85,1
0,50,55,1
0,57,55,0
0,50,85,2
0,57,85,0
0,50,111,27
0,57,101,1
0,50,81,2
0,57,71,0
0,74,127,2
0,50,111,0
0,57,101,1
0,50,90,26
0,57,90,0
0,50,60,1
0,57,60,2
0,50,90,0
0,57,90,1
0,50,106,8
0,57,106,1
0,50,76,1
0,78,127,1
0,57,76,1
0,50,106,0
0,57,106,1
0,50,92,11
0,57,92,1
0,50,62,0
0,57,62,1
0,50,92,2
0,57,92,0
0,76,127,0
0,50,104,3
0,57,104,0
0,50,74,2
0,57,74,0
0,50,104,1
0,57,104,1
0,50,90,25
0,57,90,0
0,50,60,2
0,57,60,1
0,50,90,0
0,57,90,0
0,74,127,2
0,50,99,29
0,57,87,1
0,50,69,1
0,57,57,1
0,50,99,1
0,57,87,1
0,50,101,13
0,57,101,1
0,50,71,1
0,57,71,1
0,50,101,1
0,57,101,0
0,50,127,28
0,57,127,0
0,50,97,2
0,62,127,1
0,57,97,1
0,50,127,1
0,57,127,0
0,62,127,0
0,50,91,0
0,57,76,0
0,50,61,1
0,57,46,1
0,50,91,1
0,57,76,0
0,45,127,21
0,52,127,1
0,45,97,0
0,57,127,1
0,52,97,1
0,45,127,1
0,52,127,1
0,57,127,1
0,45,111,3
0,52,113,0
0,45,81,1
0,52,83,0
0,45,111,1
0,52,113,0
0,45,94,27
0,52,94,1
0,45,64,1
0,52,64,1
0,45,94,2
0,52,94,0
0,45,127,27
0,52,127,0
0,45,97,2
0,57,127,0
0,52,97,1
0,45,127,1
0,76,127,0
0,52,127,1
0,57,127,1
0,45,109,2
0,52,109,0
0,45,79,2
0,52,79,1
0,45,109,1
0,52,109,1
0,45,85,26
0,52,85,1
0,45,55,0
0,52,55,2
0,76,127,0
0,45,85,1
0,52,85,1
0,76,127,24
0,45,111,3
0,52,101,1
0,45,81,1
0,52,71,0
0,45,111,2
0,52,101,0
0,45,90,10
0,52,90,0
0,45,60,2
0,52,60,0
0,76,127,1
0,45,90,0
0,52,90,0
0,78,127,13
0,45,106,1
0,52,106,0
0,45,76,1
0,52,76,1
0,45,106,0
0,52,106,1
0,45,92,17
0,52,92,1
0,45,62,2
0,52,62,1
0,45,92,1
0,52,92,0
0,76,127,7
0,45,104,0
0,52,104,1
0,45,74,1
0,52,74,0
0,45,104,2
0,52,104,0
0,45,90,4
0,52,90,0
0,45,60,2
0,52,60,0
0,45,90,2
0,52,90,0
0,76,127,29
0,45,99,0
0,52,87,1
0,45,69,1
0,52,57,0
0,45,99,1
0,52,87,2
0,45,101,24
0,52,101,2
0,45,71,0
0,52,71,2
0,45,101,1
0,52,101,0
0,45,127,28
0,52,127,1
0,45,97,0
0,57,127,1
0,52,97,1
0,45,127,1
0,52,127,1
0,57,127,1
0,45,76,0
0,52,76,0
0,45,46,0
0,52,46,2
0,45,76,0
0,52,76,0
0,50,127,16
0,57,127,0
0,50,97,0
0,62,127,1
0,57,97,1
0,50,127,1
0,57,127,0
0,62,127,2
0,50,111,1
0,57,113,1
0,50,81,0
0,57,83,0
0,50,111,1
0,57,113,1
0,50,94,6
0,57,94,1
0,50,64,0
0,57,64,2
0,74,127,0
0,50,94,1
0,57,94,0
0,50,127,8
0,57,127,0
0,50,97,1
0,62,127,1
0,57,97,1
0,50,127,1
0,57,127,0
0,62,127,2
0,50,109,2
0,57,109,0
0,50,79,2
0,57,79,0
0,50,109,2
0,57,109,0
0,50,85,27
0,57,85,0
0,50,55,2
0,57,55,1
0,74,127,1
0,50,85,0
0,57,85,1
0,50,111,18
0,74,127,1
0,57,101,0
0,50,81,0
0,57,71,2
0,50,111,1
0,57,101,1
0,50,90,4
0,57,90,1
0,50,60,1
0,57,60,0
0,74,127,1
0,50,90,0
0,57,90,1
0,50,106,4
0,78,127,0
0,57,106,1
0,50,76,1
0,57,76,1
0,50,106,1
0,57,106,0
0,50,92,14
0,57,92,0
0,50,62,1
0,57,62,0
0,50,92,1
0,57,92,1
0,50,104,5
0,57,104,1
0,50,74,2
0,57,74,1
0,76,127,0
0,50,104,1
0,57,104,1
0,50,90,2
0,57,90,1
0,50,60,0
0,57,60,1
0,50,90,1
0,57,90,0
0,74,127,6
0,50,99,3
0,57,87,0
0,50,69,1
0,57,57,1
0,50,99,2
0,57,87,0
0,50,101,25
0,57,101,0
0,50,71,1
0,57,71,2
0,50,101,1
0,57,101,0
0,50,127,6
0,57,127,1
0,50,97,2
0,62,127,0
0,57,97,1
0,50,127,1
0,57,127,1
0,62,127,0
0,50,107,0
0,57,107,0
0,50,77,1
0,57,77,1
0,50,107,1
0,57,107,0
0,45,127,22
0,52,127,0
0,45,97,2
0,57,127,1
0,52,97,1
0,45,127,0
0,52,127,1
0,57,127,1
0,45,111,2
0,52,113,0
0,45,81,1
0,52,83,0
0,45,111,0
0,52,113,1
0,45,94,28
0,76,127,0
0,52,94,0
0,45,64,1
0,52,64,1
0,45,94,1
0,52,94,1
0,45,127,12
0,52,127,1
0,45,97,1
0,57,127,0
0,52,97,1
0,76,127,0
0,45,127,1
0,52,127,0
0,57,127,2
0,76,127,1
0,45,109,0
0,52,109,1
0,45,79,1
0,52,79,1
0,45,109,2
0,52,109,0
0,45,85,2
0,52,85,0
0,45,55,1
0,52,55,1
0,76,127,1
0,45,85,1
0,52,85,0
0,76,127,25
0,45,111,1
0,52,101,0
0,45,81,2
0,52,71,1
0,45,111,1
0,52,101,1
0,45,90,25
0,52,90,1
0,45,60,2
0,52,60,1
0,45,90,0
0,52,90,1
0,45,106,3
0,78,127,1
0,52,106,0
0,45,76,1
0,52,76,1
0,45,106,0
0,52,106,1
0,45,92,26
0,52,92,0
0,45,62,2
0,52,62,1
0,45,92,0
0,52,92,0
0,45,104,13
0,76,127,0
0,52,104,0
0,45,74,1
0,52,74,0
0,45,104,1
0,52,104,1
0,45,90,25
0,52,90,1
0,45,60,1
0,52,60,1
0,45,90,1
0,52,90,0
0,45,99,29
0,52,87,1
0,45,69,1
0,52,57,1
0,45,99,1
0,76,127,0
0,52,87,1
0,45,101,25
0,52,101,0
0,45,71,1
0,52,71,2
0,45,101,1
0,52,101,0
0,45,127,5
0,52,127,0
0,45,97,2
0,57,127,1
0,52,97,1
0,45,127,0
0,52,127,1
0,57,127,0
0,45,76,1
0,52,76,0
0,45,46,1
0,52,46,1
0,45,76,0
0,52,76,0
0,50,117,0
0,50,83,1
0,54,117,10
0,54,83,5
0,50,127,6
0,38,72,1
0,57,117,0
0,57,127,0
0,49,64,1
0,50,97,0
0,35,125,1
0,62,127,0
0,57,97,0
0,50,127,1
0,57,127,1
0,62,127,1
0,57,83,1
0,62,117,1
0,62,83,1
0,66,117,8
0,66,83,5
0,50,111,2
0,57,113,0
0,50,81,1
0,57,83,1
0,50,111,1
0,57,113,0
0,50,94,3
0,57,94,0
0,38,109,1
0,50,64,1
0,46,83,1
0,57,117,0
0,57,64,0
0,50,94,0
0,57,94,0
0,57,83,0
0,50,127,3
0,74,127,0
0,57,127,0
0,50,97,1
0,62,127,0
0,57,97,0
0,50,127,1
0,42,34,1
0,57,127,0
0,62,127,1
0,62,117,1
0,62,83,1
0,50,109,1
0,57,109,1
0,50,79,1
0,46,79,1
0,57,79,0
0,50,109,1
0,57,109,0
0,57,117,0
0,50,85,2
0,57,85,1
0,50,55,1
0,57,55,0
0,57,83,1
0,42,38,1
0,74,127,0
0,50,85,0
0,57,85,1
0,50,111,16
0,74,127,0
0,57,101,1
0,38,104,1
0,50,81,0
0,46,83,1
0,57,71,0
0,50,111,0
0,54,84,0
0,57,101,0
0,50,90,1
0,74,127,0
0,57,90,0
0,50,60,1
0,57,60,0
0,50,90,0
0,42,36,0
0,57,90,1
0,50,106,28
0,57,106,1
0,50,76,1
0,46,81,1
0,57,76,0
0,50,106,1
0,57,106,0
0,50,92,25
0,57,92,1
0,50,62,1
0,57,62,0
0,50,92,2
0,74,127,0
0,42,34,0
0,57,92,0
0,50,104,30
0,38,111,1
0,57,104,0
0,46,82,1
0,50,74,0
0,57,74,0
0,50,104,0
0,57,104,0
0,78,127,4
0,50,90,0
0,57,90,0
0,50,60,1
0,57,60,0
0,50,90,0
0,57,90,1
0,42,35,0
0,50,99,18
0,57,87,1
0,50,69,1
0,46,83,1
0,57,57,0
0,50,99,1
0,57,87,0
0,50,101,1
0,57,101,1
0,50,71,1
0,57,71,1
0,42,38,1
0,50,101,0
0,57,101,0
0,50,127,28
0,57,127,0
0,38,106,1
0,46,82,1
0,50,97,0
0,62,127,1
0,57,97,0
0,54,84,0
0,50,127,0
0,57,127,0
0,62,127,0
0,50,91,0
0,35,100,0
0,57,76,0
0,50,61,1
0,57,46,1
0,50,91,0
0,42,37,0
0,57,76,0
0,52,117,10
0,52,83,5
0,45,70,6
0,45,127,0
0,52,127,1
0,45,97,0
0,35,125,1
0,57,127,0
0,46,79,1
0,52,97,0
0,45,127,0
0,57,117,0
0,52,127,1
0,57,127,1
0,61,117,0
0,57,83,2
0,59,117,1
0,64,117,0
0,61,83,2
0,59,83,2
0,64,83,1
0,69,117,1
0,69,83,6
0,45,111,2
0,52,113,0
0,45,81,1
0,52,83,0
0,42,35,1
0,45,111,0
0,52,113,0
0,76,127,3
0,45,94,1
0,52,94,0
0,38,109,0
0,46,81,1
0,45,64,0
0,52,64,0
0,45,94,0
0,52,94,0
0,57,116,1
0,57,82,0
0,45,127,1
0,52,127,1
0,45,97,2
0,76,127,0
0,57,127,1
0,52,97,0
0,42,37,1
0,45,127,0
0,59,117,0
0,52,127,1
0,57,127,0
0,59,83,2
0,45,109,2
0,52,109,0
0,45,79,2
0,46,80,1
0,52,79,0
0,76,127,0
0,45,109,1
0,52,109,0
0,45,85,27
0,52,85,0
0,45,55,1
0,52,55,1
0,61,117,0
0,45,85,1
0,42,35,1
0,52,85,0
0,61,83,0
0,76,127,27
0,45,111,2
0,52,101,1
0,38,104,1
0,45,81,0
0,52,71,0
0,46,80,0
0,54,84,1
0,45,111,0
0,52,101,0
0,45,90,25
0,52,90,1
0,45,60,0
0,76,127,1
0,52,60,1
0,42,38,0
0,45,90,0
0,52,90,0
0,45,106,3
0,52,106,0
0,45,76,1
0,46,79,1
0,78,127,0
0,52,76,1
0,45,106,0
0,52,106,0
0,45,92,22
0,52,92,2
0,45,62,0
0,52,62,2
0,45,92,1
0,42,38,0
0,52,92,0
0,45,104,5
0,38,111,1
0,52,104,0
0,45,74,0
0,46,80,1
0,76,127,0
0,52,74,1
0,45,104,0
0,52,104,0
0,45,90,26
0,52,90,0
0,45,60,2
0,52,60,0
0,42,37,2
0,45,90,0
0,52,90,0
0,45,99,28
0,76,127,0
0,52,87,1
0,46,81,1
0,45,69,0
0,52,57,1
0,45,99,0
0,52,87,0
0,45,101,18
0,52,101,1
0,45,71,1
0,52,71,1
0,45,101,1
0,42,34,0
0,52,101,0
0,45,127,1
0,52,127,1
0,45,97,0
0,38,106,1
0,57,127,0
0,46,79,1
0,52,97,0
0,54,84,0
0,45,127,0
0,52,127,0
0,57,127,0
0,45,76,0
0,52,76,0
0,45,56,0
0,35,100,1
0,45,46,0
0,52,46,1
0,42,38,0
0,45,76,0
0,52,76,0
0,50,117,1
0,50,83,4
0,54,117,8
0,54,83,5
0,38,70,2
0,50,127,0
0,57,127,0
0,35,125,2
0,50,97,0
0,46,81,1
0,62,127,0
0,57,97,0
0,50,127,1
0,57,127,1
0,57,117,1
0,62,127,0
0,57,83,3
0,62,117,0
0,62,83,6
0,66,117,6
0,66,83,5
0,50,111,1
0,57,113,1
0,50,81,0
0,57,83,0
0,50,111,1
0,42,36,1
0,57,113,0
0,50,94,1
0,38,109,0
0,57,94,0
0,50,64,0
0,46,79,1
0,57,64,0
0,50,94,0
0,74,127,0
0,57,94,1
0,57,117,0
0,57,83,0
0,50,127,3
0,74,127,1
0,57,127,0
0,50,97,0
0,62,127,1
0,57,97,0
0,42,38,1
0,50,127,0
0,57,127,0
0,62,127,1
0,62,117,5
0,62,83,5
0,50,109,1
0,57,109,0
0,50,79,2
0,46,82,1
0,57,79,0
0,74,127,0
0,50,109,1
0,57,109,0
0,50,85,4
0,57,85,0
0,50,55,2
0,57,117,0
0,57,55,0
0,50,85,1
0,42,35,1
0,57,85,0
0,57,83,0
0,50,111,27
0,57,101,1
0,38,104,2
0,50,81,0
0,46,80,1
0,57,71,0
0,50,111,0
0,54,84,0
0,57,101,0
0,50,90,2
0,57,90,1
0,50,60,1
0,74,127,0
0,57,60,1
0,42,38,0
0,50,90,0
0,57,90,0
0,50,106,22
0,57,106,0
0,50,76,1
0,57,76,1
0,46,82,1
0,50,106,0
0,57,106,0
0,50,92,17
0,57,92,0
0,50,62,1
0,74,127,1
0,57,62,1
0,50,92,0
0,42,35,1
0,57,92,0
0,50,104,10
0,57,104,1
0,38,111,1
0,50,74,1
0,46,80,1
0,57,74,0
0,74,127,0
0,50,104,0
0,57,104,0
0,50,90,9
0,57,90,1
0,50,60,1
0,57,60,1
0,42,38,1
0,50,90,0
0,57,90,0
0,50,99,1
0,57,87,0
0,46,79,2
0,50,69,0
0,78,127,1
0,57,57,0
0,50,99,0
0,57,87,0
0,50,101,25
0,57,101,0
0,50,71,1
0,57,71,2
0,50,101,1
0,42,35,0
0,57,101,0
0,50,127,6
0,57,127,0
0,38,106,1
0,50,97,1
0,46,83,1
0,62,127,0
0,57,97,0
0,76,127,0
0,54,84,0
0,50,127,0
0,57,127,0
0,62,127,1
0,50,107,0
0,57,107,0
0,50,77,0
0,35,100,1
0,57,77,0
0,42,37,1
0,50,107,0
0,57,107,0
0,52,117,1
0,52,83,2
0,45,71,1
0,45,127,0
0,52,127,0
0,35,125,1
