track,note,velocity,time
0,75,119,1
0,75,0,8
0,42,127,140
0,42,0,23
0,42,127,73
0,42,0,23
0,42,127,73
0,42,0,23
0,75,114,62
0,38,127,11
0,75,0,9
0,38,0,14
0,75,124,0
0,57,127,3
0,50,127,0
0,50,97,2
0,62,127,1
0,57,97,1
0,57,127,1
0,62,127,0
0,50,127,0
0,75,0,13
0,50,0,8
0,57,0,1
0,57,0,17
0,50,0,0
0,62,0,1
0,57,113,3
0,50,111,0
0,50,0,1
0,57,0,0
0,50,81,1
0,57,83,1
0,62,0,1
0,50,111,0
0,57,113,1
0,50,0,3
0,57,0,1
0,50,0,4
0,57,0,1
0,50,0,7
0,57,0,1
0,57,94,26
0,50,94,0
0,50,64,2
0,57,64,1
0,50,94,1
0,57,94,1
0,50,0,2
0,57,0,0
0,50,0,5
0,57,0,1
0,50,0,6
0,57,0,1
0,50,127,28
0,57,127,1
0,62,127,1
0,50,97,0
0,57,97,1
0,50,127,1
0,57,127,0
0,62,127,2
0,50,0,22
0,57,0,1
0,57,0,7
0,50,0,4
0,57,0,0
0,62,0,1
0,50,0,4
0,62,0,2
0,50,109,1
0,57,109,0
0,57,79,2
0,50,79,0
0,57,109,2
0,50,109,0
0,57,0,4
0,50,0,0
0,57,0,5
0,50,0,0
0,50,0,8
0,57,0,1
0,57,85,26
0,50,85,0
0,50,55,1
0,57,55,1
0,50,85,1
0,57,85,1
0,50,0,3
0,57,0,1
0,50,0,3
0,57,0,1
0,50,0,6
0,57,0,1
0,50,111,29
0,57,101,0
0,50,81,2
0,57,71,1
0,50,111,1
0,57,101,1
0,57,0,3
0,50,0,0
0,50,0,4
0,57,0,1
0,50,0,8
0,57,0,1
0,50,90,26
0,57,90,1
0,50,60,1
0,57,60,1
0,50,0,1
0,50,90,0
0,57,90,1
0,50,0,4
0,57,0,0
0,57,0,4
0,50,0,3
0,57,0,3
0,50,106,29
0,57,106,1
0,50,76,1
0,57,76,1
0,50,106,0
0,57,106,1
0,50,0,4
0,57,0,3
0,50,0,2
0,57,0,2
0,50,0,5
0,57,0,3
0,57,92,25
0,50,92,0
0,50,62,2
0,57,62,0
0,57,92,2
0,50,92,0
0,50,0,1
0,57,0,1
0,50,0,3
0,57,0,2
0,50,0,7
0,57,0,1
0,57,104,29
0,50,104,0
0,57,74,2
0,50,74,0
0,50,104,1
0,57,104,1
0,50,0,6
0,57,0,0
0,50,0,4
0,57,0,1
0,50,0,6
0,57,0,2
0,50,90,24
0,57,90,2
0,50,60,1
0,57,60,1
0,50,90,1
0,57,0,1
0,50,0,0
0,57,90,0
0,50,0,4
0,57,0,1
0,50,0,7
0,57,0,2
0,50,99,29
0,57,87,1
0,50,69,1
0,57,57,0
0,50,99,1
0,57,87,1
0,50,0,5
0,57,0,1
0,50,0,4
0,57,0,1
0,57,0,7
0,50,0,0
0,50,101,26
0,57,101,0
0,50,71,2
0,57,71,0
0,50,101,2
0,57,101,0
0,50,0,1
0,57,0,3
0,50,0,2
0,57,0,2
0,50,0,6
0,57,0,2
0,50,127,29
0,57,127,0
0,50,97,1
0,62,127,0
0,57,97,1
0,50,127,0
0,57,127,1
0,62,127,1
0,57,0,21
0,50,0,1
0,50,0,14
0,50,0,4
0,50,108,2
0,57,0,1
0,57,108,0
0,62,0,1
0,50,78,1
0,57,78,1
0,50,108,1
0,57,0,1
0,57,108,0
0,62,0,1
0,50,0,18
0,50,0,2
0,57,0,0
0,57,0,1
0,50,0,1
0,57,0,1
0,50,127,19
0,57,127,1
0,50,97,1
0,62,127,1
0,57,97,0
0,57,127,1
0,50,127,0
0,62,127,1
0,50,0,20
0,57,0,1
0,50,0,18
0,57,0,0
0,62,0,1
0,50,111,2
0,57,113,1
0,50,0,1
0,57,0,0
0,50,81,1
0,57,83,2
0,62,0,1
0,57,113,0
0,50,111,0
0,50,0,2
0,57,0,1
0,50,0,5
0,57,0,1
0,50,0,7
0,57,0,1
0,50,94,26
0,57,94,0
0,50,64,2
0,57,64,1
0,57,94,2
0,50,94,0
0,50,0,2
0,57,0,1
0,50,0,3
0,57,0,1
0,50,0,7
0,57,0,0
0,50,127,29
0,57,127,1
0,62,127,1
0,50,97,0
0,57,97,1
0,50,127,1
0,57,127,1
0,62,127,1
0,50,0,20
0,57,0,1
0,57,0,9
0,50,0,3
0,57,0,2
0,62,0,1
0,50,0,3
0,62,0,2
0,50,109,1
0,57,109,1
0,50,79,0
0,57,79,2
0,50,109,1
0,57,109,1
0,57,0,3
0,50,0,0
0,50,0,4
0,57,0,2
0,50,0,6
0,57,0,2
0,78,109,20
0,50,85,6
0,57,85,1
0,57,55,1
0,50,55,0
0,50,85,2
0,57,85,0
0,50,0,3
0,57,0,2
0,50,0,2
0,57,0,1
0,78,0,5
0,50,0,1
0,57,0,2
0,80,119,0
0,50,111,5
0,57,101,1
0,57,71,2
0,50,81,0
0,50,111,2
0,57,101,1
0,50,0,3
0,57,0,1
0,50,0,3
0,57,0,1
0,80,0,4
0,50,0,3
0,57,0,2
0,78,109,0
0,50,90,6
0,57,90,0
0,50,60,1
0,57,60,2
0,50,0,1
0,50,90,0
0,57,90,1
0,50,0,3
0,57,0,0
0,57,0,3
0,50,0,5
0,78,0,1
0,57,0,3
0,80,119,22
0,50,106,6
0,57,106,1
0,50,76,1
0,57,76,2
0,50,106,0
0,57,106,1
0,50,0,3
0,57,0,2
0,50,0,3
0,57,0,2
0,80,0,2
0,50,0,3
0,57,0,3
0,50,92,25
0,57,92,1
0,50,62,0
0,57,62,1
0,50,92,2
0,57,92,0
0,57,0,1
0,50,0,0
0,50,0,5
0,57,0,1
0,50,0,7
0,57,0,1
0,78,119,0
0,57,104,6
0,50,104,0
0,57,74,2
0,50,74,0
0,50,104,1
0,57,104,1
0,50,0,6
0,57,0,1
0,50,0,3
0,57,0,0
0,78,0,3
0,50,0,5
0,57,0,1
0,57,90,25
0,50,90,0
0,50,60,2
0,57,60,1
0,50,90,1
0,50,0,1
0,57,90,0
0,57,0,1
0,50,0,4
0,57,0,0
0,50,0,8
0,57,0,1
0,80,124,23
0,50,99,6
0,57,87,1
0,50,69,1
0,57,57,1
0,50,99,1
0,57,87,1
0,50,0,5
0,57,0,1
0,50,0,3
0,57,0,1
0,80,0,2
0,57,0,5
0,50,0,0
0,50,101,26
0,57,101,1
0,50,71,1
0,57,71,1
0,50,101,1
0,57,101,0
0,50,0,1
0,57,0,3
0,50,0,2
0,57,0,1
0,50,0,7
0,57,0,2
0,78,124,22
0,50,127,6
0,57,127,0
0,50,97,2
0,62,127,1
0,57,97,1
0,50,127,1
0,57,127,0
0,62,127,0
0,78,0,12
0,50,0,7
0,57,0,3
0,50,0,14
0,50,0,5
0,57,0,2
0,50,91,0
0,57,76,0
0,62,0,1
0,50,61,1
0,57,46,1
0,50,91,1
0,62,0,1
0,57,0,0
0,57,76,0
0,57,0,15
0,50,0,2
0,50,0,2
0,50,0,2
0,57,0,0
0,57,0,1
0,45,127,21
0,52,127,1
0,45,97,0
0,57,127,1
0,52,97,1
0,45,127,1
0,52,127,1
0,57,127,1
0,52,0,18
0,45,0,1
0,45,0,19
0,52,0,0
0,57,0,1
0,45,111,3
0,52,0,1
0,45,0,0
0,52,113,0
0,45,81,1
0,57,0,1
0,52,83,0
0,45,111,1
0,52,113,0
0,45,0,4
0,52,0,0
0,45,0,5
0,52,0,0
0,45,0,7
0,52,0,1
0,45,94,27
0,52,94,1
0,45,64,1
0,52,64,1
0,45,94,2
0,52,94,0
0,45,0,1
0,52,0,1
0,45,0,4
0,52,0,1
0,45,0,8
0,52,0,1
0,78,114,0
0,52,127,6
0,45,127,0
0,57,127,2
0,45,97,0
0,52,97,1
0,45,127,1
0,52,127,1
0,57,127,1
0,78,0,11
0,52,0,8
0,45,0,3
0,52,0,8
0,45,0,4
0,52,0,1
0,57,0,1
0,45,0,2
0,57,0,2
0,52,109,2
0,45,109,0
0,45,79,2
0,52,79,1
0,45,109,1
0,52,109,1
0,45,0,3
0,52,0,0
0,45,0,5
0,52,0,1
0,45,0,7
0,52,0,1
0,80,109,20
0,45,85,6
0,45,55,1
0,52,85,0
0,52,55,2
0,45,85,1
0,52,85,1
0,45,0,2
0,52,0,1
0,45,0,4
0,52,0,1
0,80,0,4
0,45,0,2
0,52,0,0
0,78,109,23
0,45,111,6
0,52,101,1
0,45,81,1
0,52,71,0
0,45,111,2
0,52,101,0
0,52,0,4
0,45,0,0
0,45,0,5
0,52,0,0
0,78,0,4
0,45,0,4
0,52,0,1
0,80,124,20
0,52,90,6
0,45,90,0
0,45,60,2
0,52,60,0
0,45,0,2
0,45,90,0
0,52,90,0
0,45,0,4
0,52,0,0
0,52,0,3
0,45,0,5
0,80,0,1
0,52,0,3
0,78,119,22
0,45,106,7
0,52,106,0
0,45,76,1
0,52,76,1
0,45,106,0
0,52,106,1
0,45,0,4
0,52,0,3
0,45,0,1
0,52,0,3
0,78,0,2
0,45,0,4
0,52,0,2
0,45,92,24
0,52,92,1
0,45,62,2
0,52,62,1
0,45,92,1
0,52,0,1
0,45,0,0
0,52,92,0
0,52,0,5
0,45,0,0
0,45,0,8
0,52,0,1
0,80,124,23
0,45,104,6
0,52,104,1
0,52,74,1
0,45,74,0
0,52,104,2
0,45,104,0
0,45,0,6
0,52,0,1
0,45,0,2
0,52,0,2
0,80,0,2
0,45,0,5
0,52,0,1
0,45,90,25
0,52,90,0
0,45,60,2
0,52,60,0
0,52,90,2
0,45,90,0
0,52,0,1
0,45,0,0
0,45,0,5
0,52,0,1
0,45,0,6
0,52,0,2
0,78,119,0
0,45,99,6
0,52,87,1
0,45,69,1
0,52,57,0
0,45,99,1
0,52,87,2
0,52,0,5
0,45,0,0
0,45,0,3
0,52,0,2
0,78,0,2
0,45,0,5
0,52,0,1
0,45,101,24
0,52,101,2
0,45,71,0
0,52,71,2
0,45,101,1
0,45,0,1
0,52,101,0
0,52,0,2
0,45,0,3
0,52,0,2
0,45,0,6
0,52,0,2
0,45,127,28
0,45,97,1
0,52,127,0
0,57,127,1
0,52,97,1
0,45,127,1
0,52,127,1
0,57,127,1
0,45,0,22
0,52,0,1
0,45,0,18
0,52,0,1
0,52,76,0
0,45,76,0
0,57,0,1
0,45,46,0
0,52,46,2
0,52,0,2
0,45,0,0
0,52,76,0
0,45,76,0
0,57,0,1
0,45,0,15
0,52,0,0
0,45,0,3
0,52,0,1
0,45,0,7
0,52,0,1
0,50,127,16
0,50,97,0
0,57,127,0
0,62,127,1
0,57,97,1
0,57,127,1
0,50,127,0
0,62,127,2
0,57,0,22
0,50,0,0
0,50,0,17
0,57,0,0
0,62,0,1
0,50,111,1
0,57,113,1
0,50,0,1
0,57,0,1
0,50,81,0
0,62,0,1
0,57,83,0
0,50,111,1
0,57,113,1
0,50,0,2
0,57,0,1
0,50,0,5
0,57,0,1
0,50,0,7
0,57,0,0
0,50,94,27
0,57,94,1
0,50,64,0
0,57,64,2
0,50,94,1
0,57,94,0
0,50,0,3
0,57,0,1
0,50,0,3
0,57,0,1
0,50,0,7
0,57,0,1
0,78,119,0
0,57,127,6
0,50,127,0
0,50,97,1
0,62,127,1
0,57,97,1
0,50,127,1
0,57,127,0
0,62,127,2
0,78,0,11
0,50,0,8
0,57,0,4
0,57,0,7
0,50,0,4
0,57,0,1
0,62,0,1
0,50,0,3
0,62,0,1
0,57,109,2
0,50,109,0
0,57,79,2
0,50,79,0
0,50,109,2
0,57,109,0
0,50,0,4
0,57,0,1
0,50,0,3
0,57,0,1
0,50,0,7
0,57,0,1
0,80,119,0
0,57,85,6
0,50,85,0
0,50,55,2
0,57,55,1
0,50,85,1
0,57,85,1
0,50,0,2
0,57,0,1
0,50,0,2
0,57,0,1
0,80,0,6
0,50,0,2
0,57,0,1
0,78,114,22
0,50,111,6
0,57,101,1
0,50,81,0
0,57,71,2
0,50,111,1
0,57,101,1
0,50,0,2
0,57,0,1
0,50,0,5
0,57,0,1
0,78,0,3
0,50,0,3
0,57,0,1
0,80,119,0
0,50,90,6
0,57,90,1
0,57,60,1
0,50,60,0
0,50,0,2
0,50,90,0
0,57,90,1
0,50,0,4
0,57,0,0
0,57,0,3
0,50,0,4
0,80,0,1
0,57,0,3
0,78,119,0
0,50,106,6
0,57,106,1
0,50,76,1
0,57,76,1
0,57,106,1
0,50,106,0
0,50,0,4
0,57,0,3
0,50,0,2
0,57,0,1
0,78,0,3
0,50,0,4
0,57,0,2
0,50,92,26
0,57,92,0
0,57,62,1
0,50,62,0
0,50,92,1
0,57,92,1
0,50,0,1
0,57,0,1
0,50,0,4
0,57,0,0
0,50,0,8
0,57,0,1
0,80,124,23
0,50,104,5
0,57,104,1
0,50,74,2
0,57,74,1
0,50,104,1
0,57,104,1
0,57,0,5
0,50,0,0
0,50,0,4
0,57,0,2
0,80,0,1
0,57,0,5
0,50,0,0
0,50,90,26
0,57,90,1
0,50,60,0
0,57,60,2
0,50,90,1
0,50,0,1
0,57,90,0
0,57,0,1
0,50,0,4
0,57,0,1
0,50,0,7
0,57,0,0
0,78,119,24
0,57,87,6
0,50,99,0
0,50,69,1
0,57,57,1
0,50,99,2
0,57,87,0
0,50,0,6
0,57,0,1
0,50,0,3
0,57,0,0
0,78,0,3
0,50,0,4
0,57,0,2
0,57,101,25
0,50,101,0
0,50,71,1
0,57,71,2
0,50,101,1
0,50,0,1
0,57,101,0
0,57,0,3
0,50,0,2
0,57,0,2
0,50,0,6
0,57,0,1
0,50,127,28
0,57,127,1
0,62,127,2
0,50,97,0
0,57,97,1
0,50,127,1
0,62,127,1
0,57,127,0
0,50,0,15
0,57,0,2
0,50,0,18
0,50,0,6
0,57,0,2
0,50,107,0
0,62,0,1
0,57,107,0
0,50,77,1
0,57,77,1
0,57,0,1
0,57,107,0
0,50,107,0
0,62,0,2
0,50,0,12
0,57,0,2
0,50,0,2
0,57,0,3
0,50,0,0
0,57,0,1
0,52,127,22
0,45,127,0
0,45,97,2
0,57,127,1
0,52,97,1
0,45,127,0
0,52,127,1
0,57,127,1
0,45,0,20
0,52,0,3
0,52,0,15
0,45,0,0
0,57,0,2
0,45,111,2
0,52,113,0
0,52,0,1
0,45,0,0
0,52,83,1
0,45,81,0
0,57,0,1
0,45,111,0
0,52,113,1
0,45,0,4
0,52,0,1
0,45,0,3
0,52,0,1
0,52,0,8
0,45,0,0
0,78,114,0
0,52,94,7
0,45,94,0
0,45,64,1
0,52,64,1
0,45,94,1
0,52,94,1
0,45,0,2
0,52,0,1
0,45,0,3
0,52,0,1
0,78,0,5
0,45,0,2
0,52,0,1
0,80,114,0
0,45,127,6
0,52,127,1
0,45,97,1
0,57,127,0
0,52,97,1
0,52,127,1
0,45,127,0
0,57,127,2
0,80,0,11
0,45,0,9
0,52,0,0
0,52,0,10
0,45,0,4
0,52,0,0
0,57,0,2
0,78,109,0
0,45,0,3
0,57,0,2
0,45,109,1
0,52,109,1
0,45,79,1
0,52,79,1
0,45,109,2
0,52,109,0
0,52,0,3
0,45,0,0
0,45,0,5
0,52,0,1
0,78,0,3
0,45,0,3
0,52,0,2
0,80,114,20
0,45,85,6
0,52,85,0
0,45,55,1
0,52,55,1
0,45,85,2
0,52,85,0
0,45,0,3
0,52,0,1
0,45,0,3
0,52,0,1
0,80,0,5
0,52,0,2
0,45,0,0
0,78,119,23
0,45,111,6
0,52,101,0
0,45,81,2
0,52,71,1
0,45,111,1
0,52,101,1
0,45,0,3
0,52,0,1
0,45,0,4
0,52,0,1
0,78,0,3
0,45,0,4
0,52,0,1
0,45,90,25
0,52,90,1
0,45,60,2
0,52,60,1
0,45,0,1
0,45,90,0
0,52,90,1
0,45,0,3
0,52,0,0
0,52,0,5
0,45,0,3
0,52,0,3
0,80,124,0
0,45,106,6
0,52,106,1
0,45,76,1
0,45,106,2
0,52,76,0
0,52,106,1
0,45,0,3
0,52,0,3
0,45,0,2
0,52,0,2
0,80,0,2
0,45,0,4
0,52,0,1
