track,note,velocity,time
3,62,110,0
3,62,0,47
3,67,114,0
3,67,0,148
3,67,109,0
3,67,0,159
3,69,97,0
3,69,0,47
3,70,114,0
3,70,0,47
3,69,113,0
3,69,0,143
3,67,108,0
3,67,0,195
3,67,107,0
3,67,0,47
3,69,111,0
3,69,0,47
3,70,113,0
3,70,0,47
3,69,108,0
3,69,0,180
3,67,103,0
3,67,0,168
3,67,114,0
3,67,0,47
3,69,114,0
3,69,0,47
3,70,112,0
3,70,0,47
3,69,112,0
3,69,0,166
3,69,109,0
3,69,0,79
3,69,110,0
3,69,0,162
3,69,110,0
3,69,0,81
3,69,110,0
3,69,0,170
3,70,120,0
3,70,0,47
3,72,118,0
3,72,0,47
3,74,120,0
3,74,0,47
3,72,116,0
3,72,0,164
3,70,111,0
3,70,0,47
3,72,112,0
3,72,0,47
3,74,111,0
3,74,0,47
3,72,113,0
3,72,0,187
3,70,110,0
3,70,0,47
3,72,112,0
3,72,0,47
3,74,112,0
3,74,0,47
3,72,114,0
3,72,0,161
3,72,112,0
3,72,0,80
3,72,112,0
3,72,0,80
3,72,112,0
3,72,0,80
3,72,111,0
3,72,0,86
3,72,113,0
3,72,0,196
3,72,116,0
3,72,0,83
3,72,97,0
3,72,0,94
3,74,118,0
3,74,0,95
3,75,116,0
3,75,0,109
3,75,119,0
3,75,0,36
3,75,119,0
3,75,0,47
3,75,119,0
3,75,0,47
3,75,119,0
3,75,0,47
3,74,118,0
3,74,0,143
3,72,116,0
3,72,0,239
3,70,113,0
3,70,0,95
3,69,117,0
3,69,0,95
3,67,114,0
3,67,0,287
3,66,110,0
3,66,0,239
3,66,109,0
3,66,0,47
3,67,111,0
3,67,100,0
3,67,0,44
3,67,112,0
3,67,0,3
3,67,0,92
3,69,114,0
3,69,0,287
3,72,114,0
3,72,0,463
3,71,114,0
3,71,0,95
3,69,115,0
3,69,0,95
3,67,108,0
3,67,0,350
3,62,120,0
3,62,0,95
3,71,120,0
3,71,0,95
3,74,123,0
3,74,0,133
3,71,122,0
3,71,0,47
3,76,124,0
3,76,0,95
3,74,125,0
3,74,0,91
3,74,124,0
3,74,0,95
3,72,124,0
3,72,0,137
3,71,117,0
3,71,0,47
3,71,123,0
3,71,0,87
3,69,124,0
3,69,0,95
3,67,120,0
3,67,0,80
3,67,118,0
3,67,0,95
3,66,122,0
3,66,0,150
3,67,120,0
3,67,0,95
3,66,122,0
3,66,0,95
3,67,123,0
3,67,0,143
3,69,117,0
3,69,0,47
3,69,117,0
3,69,0,95
3,71,123,1
3,71,0,95
3,72,113,0
3,72,0,95
3,72,119,0
3,72,0,95
3,74,122,0
3,74,0,95
3,76,119,0
3,76,0,95
3,79,125,0
3,79,0,239
3,78,124,0
3,78,0,47
3,76,123,0
3,76,0,95
3,74,124,0
3,74,0,161
3,71,124,0
3,71,0,95
3,74,125,0
3,74,0,143
3,71,121,0
3,71,0,47
3,76,127,0
3,76,0,95
3,74,125,0
3,74,0,83
3,74,116,0
3,74,0,26
3,74,111,0
3,74,0,74
3,74,124,0
3,74,0,76
3,74,124,0
3,74,0,64
3,74,124,0
3,74,0,95
3,76,124,0
3,76,0,95
3,79,124,0
3,79,0,95
3,81,121,0
3,81,0,479
3,79,121,0
3,79,0,68
3,78,122,0
3,78,0,95
3,74,116,0
3,74,0,198
3,74,110,0
3,74,0,41
3,76,120,0
3,76,0,35
3,76,113,0
3,76,0,31
3,76,117,0
3,76,0,30
3,76,119,0
3,76,0,30
3,76,117,0
3,76,0,30
3,76,125,0
3,76,0,37
3,76,124,0
3,76,0,88
3,74,124,0
3,74,0,69
3,72,114,0
3,72,0,26
3,72,112,0
3,72,0,27
3,72,110,0
3,72,0,28
3,72,121,0
3,72,0,23
3,72,121,0
3,72,0,22
3,72,122,0
3,72,0,27
3,72,112,0
3,72,0,219
3,71,115,0
3,71,0,47
3,69,113,0
3,69,0,95
3,67,112,0
3,67,0,212
3,62,123,0
3,62,0,47
3,67,125,0
3,67,0,122
3,67,121,0
3,67,0,47
3,69,124,0
3,69,0,47
3,70,125,0
3,70,0,47
3,69,122,0
3,69,0,95
3,67,116,0
3,67,0,198
3,69,121,0
3,69,0,47
3,70,122,0
3,70,0,47
3,69,120,0
3,69,0,95
3,67,117,0
3,67,0,245
3,69,119,0
3,69,0,95
3,70,122,0
3,70,0,91
3,69,120,0
3,69,0,127
3,69,118,0
3,69,0,40
3,69,124,0
3,69,0,81
3,69,119,0
3,69,0,118
3,69,117,0
3,69,0,34
3,69,120,0
3,69,0,76
3,69,119,0
3,69,0,161
3,70,122,0
3,70,0,47
3,72,120,0
3,72,0,47
3,74,123,0
3,74,0,47
3,72,122,0
3,72,0,143
3,70,118,0
3,70,0,118
3,72,119,0
3,72,0,47
3,74,120,0
3,74,0,47
3,72,116,0
3,72,0,143
3,70,114,0
3,70,0,92
3,70,120,0
3,70,0,47
3,72,118,0
3,72,0,47
3,74,121,0
3,74,0,47
3,72,120,0
3,72,0,163
3,72,111,0
3,72,0,101
3,72,120,0
3,72,0,75
3,72,119,0
3,72,0,86
3,72,121,0
3,72,0,145
3,72,119,0
3,72,0,79
3,72,124,0
3,72,0,95
3,74,123,0
3,74,0,95
3,75,123,0
3,75,0,191
3,75,115,0
3,75,0,60
3,75,122,0
3,75,0,131
3,75,115,0
3,75,0,60
3,74,120,0
3,74,0,143
3,72,117,0
3,72,0,162
3,70,115,0
3,70,0,95
3,69,119,0
3,69,0,95
3,67,119,0
3,67,0,286
3,66,116,0
3,66,0,96
3,66,120,0
3,66,0,95
3,67,122,0
3,67,0,166
3,67,118,0
3,67,0,95
3,69,122,0
3,69,0,171
3,69,120,0
3,69,0,95
3,72,125,0
3,72,0,479
3,71,122,0
3,71,0,95
3,69,113,0
3,69,0,47
3,67,108,0
3,67,0,339
3,62,120,0
3,62,0,95
3,71,120,0
3,71,0,95
3,74,123,0
3,74,0,133
3,71,122,0
3,71,0,47
3,76,124,0
3,76,0,95
3,74,125,0
3,74,0,91
3,74,124,0
3,74,0,95
3,72,124,0
3,72,0,137
3,71,117,0
3,71,0,47
3,71,123,0
3,71,0,87
3,69,124,0
3,69,0,95
3,67,120,0
3,67,0,80
3,67,118,0
3,67,0,95
3,66,122,0
3,66,0,150
3,67,120,0
3,67,0,95
3,66,122,0
3,66,0,95
3,67,123,0
3,67,0,143
3,69,117,0
3,69,0,47
3,69,117,0
3,69,0,95
3,71,123,0
3,71,0,95
3,72,119,0
3,72,0,95
3,74,122,0
3,74,0,95
3,76,119,0
3,76,0,95
3,79,125,0
3,79,0,239
3,78,124,0
3,78,0,47
3,76,123,0
3,76,0,95
3,74,124,0
3,74,0,257
3,71,124,0
3,71,0,95
3,74,125,0
3,74,0,143
3,71,121,0
3,71,0,47
3,76,127,0
3,76,0,95
3,74,125,0
3,74,0,83
3,74,116,0
3,74,0,26
3,74,111,0
3,74,0,74
3,74,124,0
3,74,0,76
3,74,124,0
3,74,0,64
3,74,124,0
3,74,0,95
3,76,124,0
3,76,0,95
3,79,124,0
3,79,0,95
3,81,121,0
3,81,0,479
3,79,121,0
3,79,0,95
3,78,122,0
3,78,0,95
3,74,116,0
3,74,0,198
3,74,110,0
3,74,0,41
3,76,120,0
3,76,0,35
3,76,113,0
3,76,0,31
3,76,117,0
3,76,0,30
3,76,119,0
3,76,0,30
3,76,117,0
3,76,0,30
3,76,125,0
3,76,0,37
3,76,124,0
3,76,0,88
3,74,124,0
3,74,0,69
3,72,114,0
3,72,0,26
3,72,112,0
3,72,0,27
3,72,110,0
3,72,0,28
3,72,121,0
3,72,0,23
3,72,121,0
3,72,0,22
3,72,122,0
3,72,0,27
3,72,112,0
3,72,0,219
3,71,115,0
3,71,0,47
3,69,113,0
3,69,0,95
3,67,112,0
3,67,0,308
3,79,123,0
3,79,0,228
3,74,123,0
3,74,0,87
3,76,122,0
3,76,0,86
3,77,125,0
3,77,0,82
3,79,124,0
3,79,0,130
3,79,121,0
3,79,0,39
3,79,120,0
3,79,0,87
3,79,124,0
3,79,0,148
3,79,121,0
3,79,0,115
3,79,120,29
3,79,0,30
3,79,119,0
3,79,0,89
3,81,124,0
3,81,0,100
3,79,120,0
3,79,0,44
3,81,121,0
3,81,0,44
3,79,119,0
3,79,0,47
3,83,125,0
3,83,0,143
3,81,120,0
3,81,0,47
3,79,121,0
3,79,0,72
3,79,122,0
3,79,0,139
3,79,119,5
3,79,0,47
3,81,122,0
3,81,0,47
3,79,118,0
3,79,0,44
3,83,126,0
3,83,0,95
3,81,125,1
3,81,0,95
3,79,124,0
3,79,0,79
3,79,124,0
3,79,0,165
3,81,125,0
3,81,0,92
3,79,122,0
3,79,0,47
3,78,124,0
3,78,0,90
3,78,125,0
3,78,0,86
3,76,122,0
3,76,0,47
3,74,125,0
3,74,0,91
3,74,123,0
3,74,0,79
3,72,120,0
3,72,0,47
3,71,121,0
3,71,0,89
3,79,125,0
3,79,0,191
3,76,117,0
3,76,0,95
3,74,117,0
3,74,0,163
3,74,120,0
3,74,0,42
3,76,121,0
3,76,0,47
3,74,121,0
3,74,0,42
3,76,121,0
3,76,0,47
3,74,116,0
3,74,0,47
3,76,110,0
3,76,0,196
3,69,114,0
3,69,0,47
3,71,113,0
3,71,0,82
3,71,107,0
3,71,0,112
3,77,120,0
3,77,0,88
3,77,122,0
3,77,0,90
3,77,123,0
3,77,0,89
3,75,117,0
3,75,0,137
3,75,115,0
3,75,0,45
3,75,112,0
3,75,0,85
3,75,114,0
3,75,0,96
3,75,114,0
3,75,0,96
3,74,121,0
3,74,0,143
3,72,118,0
3,72,0,194
3,70,114,0
3,70,0,82
3,69,117,0
3,69,0,95
3,67,118,0
3,67,0,287
3,66,115,0
3,66,0,162
3,66,122,0
3,66,0,95
3,67,120,0
3,67,0,176
3,67,113,0
3,67,0,95
3,69,116,0
3,69,114,0
3,69,0,96
3,69,0,22
3,72,120,0
3,72,0,1103
3,71,111,0
3,71,0,47
3,69,105,0
3,69,0,95
3,67,105,0
3,67,0,246
3,62,114,0
3,71,120,0
3,62,0,17
3,71,0,78
3,74,123,0
3,74,0,133
3,71,122,0
3,71,0,47
3,76,124,0
3,76,0,95
3,74,125,0
3,74,0,91
3,74,124,0
3,74,0,95
3,72,124,0
3,72,0,137
3,71,117,0
3,71,0,47
3,71,123,0
3,71,0,87
3,69,124,0
3,69,0,95
3,67,120,0
3,67,0,80
3,67,118,0
3,67,0,95
3,66,122,0
3,66,0,150
3,67,114,0
3,67,0,96
3,66,122,0
3,66,0,95
3,67,123,0
3,67,0,143
3,69,117,0
3,69,0,47
3,69,117,0
3,69,0,95
3,71,123,0
3,71,0,95
3,72,119,0
3,72,0,95
3,74,122,0
3,74,0,95
3,76,119,0
3,76,0,95
3,79,125,0
3,79,0,239
3,78,124,0
3,78,0,47
3,76,123,0
3,76,0,95
3,74,124,0
3,74,0,161
3,71,124,0
3,71,0,95
3,74,125,0
3,74,0,143
3,71,121,0
3,71,0,47
3,76,127,0
3,76,0,95
3,74,125,0
3,74,0,83
3,74,116,0
3,74,0,26
3,74,111,0
3,74,0,74
3,74,124,0
3,74,0,76
3,74,124,0
3,74,0,64
3,74,124,0
3,74,0,95
3,76,124,0
3,76,0,95
3,79,124,0
3,79,0,95
3,81,121,0
3,81,0,479
3,79,121,0
3,79,0,68
3,78,122,0
3,78,0,95
3,74,116,0
3,74,0,198
3,74,110,0
3,74,0,41
3,76,120,0
3,76,0,35
3,76,113,0
3,76,0,31
3,76,117,0
3,76,0,30
3,76,119,0
3,76,0,30
3,76,117,0
3,76,0,30
3,76,125,0
3,76,0,37
3,76,124,0
3,76,0,88
3,74,124,0
3,74,0,69
3,72,114,0
3,72,0,26
3,72,112,0
3,72,0,27
3,72,110,0
3,72,0,28
3,72,121,0
3,72,0,23
3,72,121,0
3,72,0,22
3,72,122,0
3,72,0,27
3,72,112,0
3,72,0,219
3,71,115,0
3,71,0,47
3,69,113,0
3,69,0,95
3,67,112,0
3,67,0,212
3,74,110,0
3,74,0,41
3,76,120,0
3,76,0,35
3,76,113,0
3,76,0,31
3,76,117,0
3,76,0,30
3,76,119,0
3,76,0,30
3,76,117,0
3,76,0,30
3,76,125,0
3,76,0,37
3,76,124,0
3,76,0,88
3,74,124,0
3,74,0,69
3,72,114,0
3,72,0,26
3,72,112,0
3,72,0,27
3,72,110,0
3,72,0,28
3,72,121,0
3,72,0,23
3,72,121,0
3,72,0,22
3,72,122,0
3,72,0,27
3,72,112,0
3,72,0,219
3,71,115,0
3,71,0,47
3,69,113,0
3,69,0,95
3,67,112,0
3,67,0,212
3,74,110,0
3,74,0,41
3,76,120,0
3,76,0,35
3,76,113,0
3,76,0,31
3,76,117,0
3,76,0,30
3,76,119,0
3,76,0,30
3,76,117,0
3,76,0,30
3,76,125,0
3,76,0,37
3,76,124,0
3,76,0,88
3,74,124,0
3,74,0,69
3,72,114,0
3,72,0,26
3,72,112,0
3,72,0,27
3,72,110,0
3,72,0,28
3,72,121,0
3,72,0,23
3,72,121,0
3,72,0,22
3,72,122,0
3,72,0,27
3,72,112,0
3,72,0,507
3,71,115,0
3,71,0,47
3,69,113,0
3,69,0,95
3,67,112,0
3,67,0,212
4,27,110,3096
4,27,0,574
4,36,106,2
4,36,0,575
4,26,112,1
4,26,0,448
4,26,112,32
4,26,0,59
4,26,109,37
4,26,0,569
4,34,107,7
4,34,0,575
4,33,110,1
4,33,0,287
4,31,112,1
4,31,0,285
4,29,112,3
4,29,0,459
4,29,110,21
4,29,0,62
4,29,110,34
4,29,0,569
4,36,120,7
4,36,0,863
4,34,114,1
4,34,0,143
4,33,114,1
4,33,0,143
4,26,114,1
4,26,0,1058
4,31,117,94
4,31,0,256
4,26,118,32
4,26,0,253
4,31,116,35
4,31,0,214
4,31,114,26
4,31,0,42
4,26,114,6
4,26,0,268
4,31,125,20
4,31,0,209
4,31,124,31
4,31,0,40
4,26,124,8
4,26,0,198
4,26,112,42
4,26,0,45
4,31,123,3
4,31,0,239
4,30,112,1
4,30,0,39
4,31,123,9
4,31,0,95
4,35,123,1
4,35,0,95
4,31,126,1
4,31,0,95
4,26,122,1
4,26,0,287
4,33,123,1
4,33,0,280
4,26,121,8
4,26,0,233
4,33,120,7
4,33,0,33
4,26,122,15
4,26,0,95
4,30,122,1
4,30,0,94
4,33,125,2
4,33,0,95
4,26,120,1
4,26,0,268
4,33,120,20
4,33,0,268
4,26,116,20
4,26,0,236
4,26,116,4
4,26,0,32
4,33,122,16
4,33,0,88
4,26,119,8
4,26,0,94
4,30,121,2
4,30,0,95
4,31,123,1
4,31,0,287
4,26,124,1
4,26,0,285
4,31,125,3
4,31,0,239
4,26,125,1
4,26,0,21
4,31,124,27
4,31,0,93
4,35,123,3
4,35,0,95
4,38,126,1
4,38,0,94
4,31,124,2
4,31,0,277
4,30,124,11
4,30,0,287
4,28,118,1
4,28,0,221
4,26,119,19
4,26,0,26
4,35,113,22
4,35,0,87
4,28,118,9
4,28,0,95
4,31,121,1
4,31,0,95
4,33,123,1
4,33,0,239
4,33,121,1
4,33,0,1
4,26,117,47
4,26,0,191
4,30,119,1
4,30,0,90
4,33,120,6
4,33,0,218
4,33,125,22
4,33,0,29
4,26,118,19
4,26,0,181
4,30,120,11
4,30,0,41
4,31,121,7
4,31,0,47
4,33,122,1
4,33,0,268
4,26,108,20
4,26,0,287
4,33,118,1
4,33,0,238
4,33,120,2
4,33,0,30
4,26,108,18
4,26,0,126
4,26,115,18
4,26,0,28
4,30,116,20
4,30,0,92
4,31,117,4
4,31,0,255
4,26,116,33
4,26,0,216
4,26,114,24
4,26,0,47
4,31,117,1
4,31,0,287
4,26,114,1
4,26,0,275
4,31,110,13
4,31,0,574
4,36,106,2
4,36,0,575
4,26,112,1
4,26,0,448
4,26,112,32
4,26,0,59
4,26,109,37
4,26,0,569
4,34,107,7
4,34,0,575
4,33,110,1
4,33,0,287
4,31,112,1
4,31,0,285
