track,note,velocity,time
1,32,127,0
1,32,127,4
1,32,127,4
1,32,127,4
1,32,127,4
1,32,127,4
1,32,127,4
1,32,127,4
1,32,127,4
1,32,127,4
1,32,127,4
1,32,127,4
1,32,127,4
1,32,127,4
1,32,127,4
1,32,127,4
1,30,127,4
1,30,127,4
1,30,127,4
1,30,127,4
1,30,127,4
1,30,127,4
1,30,127,4
1,30,127,4
1,30,127,4
1,30,127,4
1,30,127,4
1,30,127,4
1,30,127,4
1,30,127,4
1,30,127,4
1,30,127,4
1,32,127,4
1,32,127,4
1,32,127,4
1,32,127,4
1,32,127,4
1,32,127,4
1,32,127,4
1,32,127,4
1,32,127,4
1,32,127,4
1,32,127,4
1,32,127,4
1,32,127,4
1,32,127,4
1,32,127,4
1,32,127,4
1,30,127,4
1,30,127,4
1,30,127,4
1,30,127,4
1,30,127,4
1,30,127,4
1,30,127,4
1,30,127,4
1,30,127,4
1,30,127,4
1,30,127,4
1,30,127,4
1,30,127,4
1,30,127,4
1,30,127,4
1,30,127,4
1,32,127,4
1,32,127,4
1,32,127,4
1,32,127,4
1,32,127,4
1,32,127,4
1,32,127,4
1,32,127,4
1,32,127,4
1,32,127,4
1,32,127,4
1,32,127,4
1,32,127,4
1,32,127,4
1,32,127,4
1,32,127,4
1,30,127,4
1,30,127,4
1,30,127,4
1,30,127,4
1,30,127,4
1,30,127,4
1,30,127,4
1,30,127,4
1,30,127,4
1,30,127,4
1,30,127,4
1,30,127,4
1,30,127,4
1,30,127,4
1,30,127,4
1,30,127,4
1,32,127,4
1,32,127,4
1,32,127,4
1,32,127,4
1,32,127,4
1,32,127,4
1,32,127,4
1,32,127,4
1,32,127,4
1,32,127,4
1,32,127,4
1,32,127,4
1,32,127,4
1,32,127,4
1,32,127,4
1,32,127,4
1,30,127,4
1,30,127,4
1,30,127,4
1,30,127,4
1,30,127,4
1,30,127,4
1,30,127,4
1,30,127,4
1,30,127,4
1,30,127,4
1,30,127,4
1,30,127,4
1,34,127,4
1,34,127,4
1,35,127,4
1,35,127,4
1,28,127,4
1,28,127,4
1,28,127,4
1,28,127,4
1,28,127,4
1,28,127,4
1,28,127,4
1,28,127,4
1,28,127,4
1,28,127,4
1,28,127,4
1,28,127,4
1,28,127,4
1,28,127,4
1,28,127,4
1,28,127,4
1,33,127,4
1,33,127,4
1,33,127,4
1,33,127,4
1,33,127,4
1,33,127,4
1,33,127,4
1,33,127,4
1,37,127,4
1,37,127,4
1,37,127,4
1,37,127,4
1,37,127,4
1,37,127,4
1,37,127,4
1,37,127,4
1,35,127,4
1,35,127,0
1,35,127,0
1,35,127,0
1,35,127,0
1,35,127,0
1,35,127,0
1,33,127,0
1,33,127,0
1,33,127,0
1,33,127,0
1,33,127,0
1,33,127,0
1,33,127,0
1,33,127,0
1,33,127,0
1,35,127,0
1,35,127,0
1,35,127,0
1,35,127,0
1,35,127,0
1,35,127,0
1,35,127,0
1,33,127,0
1,33,127,0
1,33,127,0
1,33,127,0
1,33,127,0
1,33,127,0
1,33,127,0
1,33,127,0
1,33,127,0
1,35,127,0
1,35,127,0
1,35,127,0
1,35,127,0
1,35,127,0
1,35,127,0
1,35,127,0
1,33,127,0
1,33,127,0
1,33,127,0
1,33,127,0
1,33,127,0
1,33,127,0
1,33,127,0
1,33,127,0
1,33,127,0
1,33,127,0
1,33,127,0
1,33,127,0
1,33,127,0
1,28,127,0
1,28,127,0
1,28,127,0
1,28,127,0
1,35,127,0
1,35,127,0
1,35,127,0
1,35,127,0
1,37,127,0
1,37,127,0
1,37,127,0
1,37,127,0
1,33,127,0
1,33,127,0
1,33,127,0
1,33,127,0
1,28,127,0
1,28,127,0
1,28,127,0
1,28,127,0
1,35,127,0
1,35,127,0
1,35,127,0
1,35,127,0
1,37,127,0
1,37,127,0
1,37,127,0
1,37,127,0
1,33,127,0
1,33,127,0
1,33,127,0
1,33,127,0
1,28,127,0
1,28,127,0
1,28,127,0
1,28,127,0
1,35,127,0
1,35,127,0
1,35,127,0
1,35,127,0
1,37,127,0
1,37,127,0
1,37,127,0
1,37,127,0
1,33,127,0
1,33,127,0
1,33,127,0
1,33,127,0
1,28,127,0
1,28,127,0
1,28,127,0
1,28,127,0
1,35,127,0
1,35,127,0
1,35,127,0
1,35,127,0
1,37,127,0
1,37,127,0
1,37,127,0
1,37,127,0
1,33,127,0
1,33,127,0
1,33,127,0
1,33,127,0
1,28,127,0
1,35,127,0
1,32,127,0
1,32,127,4
1,32,127,4
1,32,127,4
1,32,127,4
1,32,127,4
1,32,127,4
1,32,127,4
1,32,127,4
1,32,127,4
1,32,127,4
1,32,127,4
1,32,127,4
1,32,127,4
1,32,127,4
1,32,127,4
1,30,127,4
1,30,127,4
1,30,127,4
1,30,127,4
1,30,127,4
1,30,127,4
1,30,127,4
1,30,127,4
1,30,127,4
1,30,127,4
1,30,127,4
1,30,127,4
1,30,127,4
1,30,127,4
1,30,127,4
1,30,127,4
1,32,127,4
1,32,127,4
1,32,127,4
1,32,127,4
1,32,127,4
1,32,127,4
1,32,127,4
1,32,127,4
1,32,127,4
1,32,127,4
1,32,127,4
1,32,127,4
1,32,127,4
1,32,127,4
1,32,127,4
1,32,127,4
1,30,127,4
1,30,127,4
1,30,127,4
1,30,127,4
1,30,127,4
1,30,127,4
1,30,127,4
1,30,127,4
1,30,127,4
1,30,127,4
1,30,127,4
1,30,127,4
1,34,127,4
1,34,127,4
1,35,127,4
1,35,127,4
1,28,127,4
1,28,127,4
1,28,127,4
1,28,127,4
1,28,127,4
1,28,127,4
1,28,127,4
1,28,127,4
1,28,127,4
1,28,127,4
1,28,127,4
1,28,127,4
1,28,127,4
1,28,127,4
1,28,127,4
1,28,127,4
1,33,127,4
1,33,127,4
1,33,127,4
1,33,127,4
1,33,127,4
1,33,127,4
1,33,127,4
1,33,127,4
1,37,127,4
1,37,127,4
1,37,127,4
1,37,127,4
1,37,127,4
1,37,127,4
1,37,127,4
1,37,127,4
1,35,127,4
1,35,127,0
1,35,127,0
1,35,127,0
1,35,127,0
1,35,127,0
1,35,127,0
1,33,127,0
1,33,127,0
1,33,127,0
1,33,127,0
1,33,127,0
1,33,127,0
1,33,127,0
1,33,127,0
1,33,127,0
1,35,127,0
1,35,127,0
1,35,127,0
1,35,127,0
1,35,127,0
1,35,127,0
1,35,127,0
1,33,127,0
1,33,127,0
1,33,127,0
1,33,127,0
1,33,127,0
1,33,127,0
1,33,127,0
1,33,127,0
1,33,127,0
1,35,127,0
1,35,127,0
1,35,127,0
1,35,127,0
1,35,127,0
1,35,127,0
1,35,127,0
1,33,127,0
1,33,127,0
1,33,127,0
1,33,127,0
1,33,127,0
1,33,127,0
1,33,127,0
1,33,127,0
1,33,127,0
1,33,127,0
1,33,127,0
1,33,127,0
1,33,127,0
1,28,127,0
1,28,127,0
1,28,127,0
1,28,127,0
1,35,127,0
1,35,127,0
1,35,127,0
1,35,127,0
1,37,127,0
1,37,127,0
1,37,127,0
1,37,127,0
1,33,127,0
1,33,127,0
1,33,127,0
1,33,127,0
1,28,127,0
1,28,127,0
1,28,127,0
1,28,127,0
1,35,127,0
1,35,127,0
1,35,127,0
1,35,127,0
1,37,127,0
1,37,127,0
1,37,127,0
1,37,127,0
1,33,127,0
1,33,127,0
1,33,127,0
1,33,127,0
1,28,127,0
1,28,127,0
1,28,127,0
1,28,127,0
1,35,127,0
1,35,127,0
1,35,127,0
1,35,127,0
1,37,127,0
1,37,127,0
1,37,127,0
1,37,127,0
1,33,127,0
1,33,127,0
1,33,127,0
1,33,127,0
1,28,127,0
1,28,127,0
1,28,127,0
1,28,127,0
1,35,127,0
1,35,127,0
1,35,127,0
1,35,127,0
1,37,127,0
1,37,127,0
1,37,127,0
1,37,127,0
1,33,127,0
1,33,127,0
1,33,127,0
1,33,127,0
1,28,127,0
1,35,127,0
1,35,127,0
1,35,127,384
1,35,127,192
1,35,127,384
1,35,127,384
1,35,127,192
1,35,127,0
1,35,127,0
1,35,127,0
1,35,127,0
1,35,127,0
1,35,127,384
1,35,127,192
1,35,127,384
1,35,127,384
1,35,127,192
1,35,127,0
1,40,127,0
1,38,127,0
1,38,127,0
1,38,127,0
1,38,127,0
1,38,127,0
1,38,127,0
1,38,127,0
1,38,127,0
1,31,127,0
1,31,127,0
1,31,127,0
1,31,127,0
1,31,127,0
1,31,127,0
1,31,127,0
1,31,127,0
1,33,127,0
1,33,127,0
1,33,127,0
1,33,127,0
1,33,127,0
1,33,127,0
1,33,127,0
1,33,127,0
1,33,127,0
1,33,127,0
1,33,127,0
1,33,127,0
1,33,127,0
1,33,127,0
1,33,127,0
1,33,127,0
1,38,127,0
1,38,127,0
1,38,127,0
1,38,127,0
1,38,127,0
1,38,127,0
1,38,127,0
1,38,127,0
1,31,127,0
1,31,127,0
1,31,127,0
1,31,127,0
1,31,127,0
1,31,127,0
1,31,127,0
1,31,127,0
1,33,127,0
1,33,127,0
1,33,127,0
1,33,127,0
1,33,127,0
1,33,127,0
1,33,127,0
1,33,127,0
1,33,127,0
1,33,127,0
1,33,127,0
1,33,127,0
1,33,127,0
1,33,127,0
1,33,127,0
1,33,127,0
1,32,127,0
1,32,127,4
1,32,127,4
1,32,127,4
1,32,127,4
1,32,127,4
1,32,127,4
1,32,127,4
1,32,127,4
1,32,127,4
1,32,127,4
1,32,127,4
1,32,127,4
1,32,127,4
1,32,127,4
1,32,127,4
1,30,127,4
1,30,127,4
1,30,127,4
1,30,127,4
1,30,127,4
1,30,127,4
1,30,127,4
1,30,127,4
1,30,127,4
1,30,127,4
1,30,127,4
1,30,127,4
1,30,127,4
1,30,127,4
1,30,127,4
1,30,127,4
1,32,127,4
1,32,127,4
1,32,127,4
1,32,127,4
1,32,127,4
1,32,127,4
1,32,127,4
1,32,127,4
1,32,127,4
1,32,127,4
1,32,127,4
1,32,127,4
1,32,127,4
1,32,127,4
1,32,127,4
1,32,127,4
1,30,127,4
1,30,127,4
1,30,127,4
1,30,127,4
1,30,127,4
1,30,127,4
1,30,127,4
1,30,127,4
1,30,127,4
1,30,127,4
1,30,127,4
1,30,127,4
1,30,127,4
1,30,127,4
1,30,127,4
1,30,127,4
1,28,127,4
1,28,127,4
1,28,127,4
1,28,127,4
1,28,127,4
1,28,127,4
1,28,127,4
1,28,127,4
1,28,127,4
1,28,127,4
1,28,127,4
1,28,127,4
1,28,127,4
1,28,127,4
1,28,127,4
1,28,127,4
1,33,127,4
1,33,127,4
1,33,127,4
1,33,127,4
1,33,127,4
1,33,127,4
1,33,127,4
1,33,127,4
1,37,127,4
1,37,127,4
1,37,127,4
1,37,127,4
1,37,127,4
1,37,127,4
1,37,127,4
1,37,127,4
1,35,127,4
1,35,127,0
1,35,127,0
1,35,127,0
1,35,127,0
1,35,127,0
1,35,127,0
1,33,127,0
1,33,127,0
1,33,127,0
1,33,127,0
1,33,127,0
1,33,127,0
1,33,127,0
1,33,127,0
1,33,127,0
1,35,127,0
1,35,127,0
1,35,127,0
1,35,127,0
1,35,127,0
1,35,127,0
1,35,127,0
1,33,127,0
1,33,127,0
1,33,127,0
1,33,127,0
1,33,127,0
1,33,127,0
1,33,127,0
1,33,127,0
1,33,127,0
1,35,127,0
1,35,127,0
1,35,127,0
1,35,127,0
1,35,127,0
1,35,127,0
1,35,127,0
1,33,127,0
1,33,127,0
1,33,127,0
1,33,127,0
1,33,127,0
1,33,127,0
1,33,127,0
1,33,127,0
1,33,127,0
1,33,127,0
1,33,127,0
1,33,127,0
1,33,127,0
1,28,127,0
1,28,127,0
1,28,127,0
1,28,127,0
1,35,127,0
1,35,127,0
1,35,127,0
1,35,127,0
1,37,127,0
1,37,127,0
1,37,127,0
1,37,127,0
1,33,127,0
1,33,127,0
1,33,127,0
1,33,127,0
1,28,127,0
1,28,127,0
1,28,127,0
1,28,127,0
1,35,127,0
1,35,127,0
1,35,127,0
1,35,127,0
1,37,127,0
1,37,127,0
1,37,127,0
1,37,127,0
1,33,127,0
1,33,127,0
1,33,127,0
1,33,127,0
1,28,127,0
1,28,127,0
1,28,127,0
1,28,127,0
1,35,127,0
1,35,127,0
1,35,127,0
1,35,127,0
1,37,127,0
1,37,127,0
1,37,127,0
1,37,127,0
1,33,127,0
1,33,127,0
1,33,127,0
1,33,127,0
1,28,127,0
1,28,127,0
1,28,127,0
1,28,127,0
1,35,127,0
1,35,127,0
1,35,127,0
1,35,127,0
1,37,127,0
1,37,127,0
1,37,127,0
1,37,127,0
1,33,127,0
1,33,127,0
1,33,127,0
1,33,127,0
1,28,127,0
1,35,127,0
1,28,127,0
1,28,127,0
1,28,127,0
1,28,127,0
1,35,127,0
1,35,127,0
1,35,127,0
1,35,127,0
1,37,127,0
1,37,127,0
1,37,127,0
1,37,127,0
1,33,127,0
1,33,127,0
1,33,127,0
1,33,127,0
1,28,127,0
1,28,127,0
1,28,127,0
1,28,127,0
1,35,127,0
1,35,127,0
1,35,127,0
1,35,127,0
1,37,127,0
1,37,127,0
1,37,127,0
1,37,127,0
1,33,127,0
1,33,127,0
1,33,127,0
1,33,127,0
1,28,127,0
1,28,127,0
1,28,127,0
1,28,127,0
1,35,127,0
1,35,127,0
1,35,127,0
1,35,127,0
1,37,127,0
1,37,127,0
1,37,127,0
1,37,127,0
1,33,127,0
1,33,127,0
1,33,127,0
1,33,127,0
1,28,127,0
1,28,127,0
1,28,127,0
1,28,127,0
1,35,127,0
1,35,127,0
1,35,127,0
1,35,127,0
1,37,127,0
1,37,127,0
1,37,127,0
1,37,127,0
1,33,127,0
1,33,127,0
1,33,127,0
1,33,127,0
1,28,127,0
1,35,127,0
1,28,127,0
1,28,127,0
1,28,127,0
1,28,127,0
1,35,127,0
1,35,127,0
1,35,127,0
1,35,127,0
1,37,127,0
1,37,127,0
1,37,127,0
1,37,127,0
1,33,127,0
1,33,127,0
1,33,127,0
1,33,127,0
1,28,127,0
1,28,127,0
1,28,127,0
1,28,127,0
1,35,127,0
1,35,127,0
1,35,127,0
1,35,127,0
1,37,127,0
1,37,127,0
1,37,127,0
1,37,127,0
1,33,127,0
1,33,127,0
1,33,127,0
1,33,127,0
1,28,127,0
1,28,127,0
1,28,127,0
1,28,127,0
1,35,127,0
1,35,127,0
1,35,127,0
1,35,127,0
1,37,127,0
1,37,127,0
1,37,127,0
1,37,127,0
1,33,127,0
1,33,127,0
1,33,127,0
1,33,127,0
1,28,127,0
1,28,127,0
1,28,127,0
1,28,127,0
1,35,127,0
1,35,127,0
1,35,127,0
1,35,127,0
1,37,127,0
1,37,127,0
1,37,127,0
1,37,127,0
1,33,127,0
1,33,127,0
1,33,127,0
1,33,127,0
1,28,127,0
1,28,127,0
1,28,127,0
1,28,127,0
1,35,127,0
1,35,127,0
1,35,127,0
1,35,127,0
1,37,127,0
1,37,127,0
1,37,127,0
1,37,127,0
1,33,127,0
1,33,127,0
1,33,127,0
1,33,127,0
1,28,127,0
1,28,127,0
1,28,127,0
1,28,127,0
1,35,127,0
1,35,127,0
1,35,127,0
1,35,127,0
1,37,127,0
1,37,127,0
1,37,127,0
1,37,127,0
1,33,127,0
1,33,127,0
1,33,127,0
1,33,127,0
1,28,127,0
1,28,127,0
1,28,127,0
1,28,127,0
1,35,127,0
1,35,127,0
1,35,127,0
1,35,127,0
1,37,127,0
1,37,127,0
1,37,127,0
1,37,127,0
1,33,127,0
1,33,127,0
1,33,127,0
1,33,127,0
1,28,127,0
1,28,127,0
1,28,127,0
1,28,127,0
1,35,127,0
1,35,127,0
1,35,127,0
1,35,127,0
1,37,127,0
1,37,127,0
1,37,127,0
1,37,127,0
1,33,127,0
1,33,127,0
1,33,127,0
1,33,127,0
1,28,127,0
1,35,127,0
2,56,104,0
2,59,104,0
2,63,104,0
2,58,104,4
2,61,104,0
2,54,104,0
2,80,104,960
2,78,104,4
2,56,104,4
2,59,104,0
2,63,104,0
2,58,104,4
2,61,104,0
2,54,104,0
2,63,104,6156
2,59,104,0
