track,note,velocity,time
0,42,78,48
0,37,110,0
0,42,68,0
0,49,75,120
0,42,66,0
0,52,78,188
0,37,111,0
0,42,65,0
0,42,75,48
0,42,68,0
0,49,80,48
0,37,105,0
0,42,69,0
0,52,76,48
0,42,70,0
0,49,77,48
0,37,109,0
0,42,63,0
0,42,76,48
0,42,70,0
0,45,74,12
0,37,111,0
0,42,69,0
0,49,77,48
0,42,66,0
0,52,78,48
0,37,107,0
0,42,63,0
0,47,78,18
0,42,69,0
0,51,76,84
0,37,106,0
0,42,62,0
0,52,73,48
0,42,62,0
0,51,74,48
0,37,107,0
0,42,63,0
0,47,79,48
0,42,62,0
0,42,72,48
0,37,111,0
0,42,65,0
0,49,76,186
0,42,70,0
0,52,77,48
0,37,105,0
0,42,62,0
0,42,77,48
0,42,68,0
0,49,75,48
0,37,110,0
0,42,64,0
0,52,76,48
0,42,67,0
0,49,75,48
0,37,109,0
0,42,62,0
0,42,73,48
0,42,62,0
0,45,79,1
0,37,106,0
0,42,68,0
0,49,79,186
0,42,68,0
0,52,76,48
0,37,111,0
0,42,70,0
0,47,72,48
0,42,66,0
0,51,72,188
0,37,109,0
0,38,2,0
0,42,71,0
0,38,8,20
0,38,14,20
0,38,19,20
0,38,25,20
0,38,30,20
0,38,36,0
0,38,41,20
0,52,78,20
0,38,47,0
0,42,83,0
0,38,53,20
0,38,58,20
0,38,64,20
0,38,69,20
0,38,75,20
0,38,80,0
0,38,86,20
0,51,76,20
0,42,127,0
0,37,127,0
0,38,91,0
0,41,125,0
0,42,127,0
0,47,75,8
0,42,63,0
0,42,77,0
0,30,121,0
0,37,110,0
0,42,70,0
0,49,75,84
0,42,62,0
0,52,79,2
0,64,96,0
0,42,122,0
0,37,108,0
0,42,63,0
0,42,75,2
0,42,61,0
0,49,74,12
0,37,108,0
0,42,61,0
0,52,79,48
0,42,70,0
0,49,79,48
0,30,127,0
0,37,111,0
0,42,69,0
0,42,74,16
0,32,126,0
0,42,67,0
0,45,80,12
0,33,127,0
0,37,111,0
0,42,69,0
0,49,78,84
0,42,69,0
0,52,81,48
0,37,109,0
0,42,64,0
0,47,72,16
0,35,125,0
0,42,63,0
0,51,80,4
0,59,94,0
0,37,105,0
0,42,66,0
0,52,77,2
0,42,65,0
0,51,80,20
0,33,123,0
0,37,111,0
0,42,69,0
0,47,78,16
0,32,127,0
0,42,61,0
0,42,74,12
0,30,125,0
0,37,105,0
0,42,70,0
0,73,105,32
0,49,72,0
0,42,61,0
0,52,80,0
0,42,127,0
0,37,105,0
0,42,68,0
0,42,79,0
0,42,62,0
0,49,76,0
0,37,111,0
0,42,68,0
0,52,73,0
0,42,65,0
0,49,78,24
0,30,127,0
0,37,111,0
0,42,64,0
0,42,74,16
0,32,127,0
0,42,62,0
0,45,72,1
0,33,125,0
0,37,106,0
0,42,69,0
0,49,79,108
0,42,68,0
0,52,73,10
0,37,109,0
0,42,61,0
0,47,75,16
0,28,120,0
0,42,61,0
0,51,73,188
0,37,111,0
0,42,65,0
0,52,76,27
0,42,61,0
0,51,77,0
0,54,102,0
0,32,121,0
0,38,109,0
0,42,64,0
0,47,79,0
0,28,120,0
0,42,68,0
0,42,73,0
0,30,120,0
0,37,111,0
0,42,61,0
0,49,80,152
0,42,64,0
0,66,118,0
0,52,73,0
0,42,127,0
0,37,107,0
0,42,65,0
0,42,73,52
0,42,64,0
0,49,77,15
0,37,111,0
0,42,63,0
0,52,81,6
0,42,67,0
0,61,121,9
0,49,76,0
0,30,123,0
0,37,111,0
0,42,68,0
0,59,113,12
0,57,113,12
0,42,81,0
0,32,123,0
0,42,69,0
0,59,120,12
0,45,77,0
0,33,124,0
0,37,110,0
0,42,66,0
0,49,75,188
0,42,68,0
0,57,120,0
0,52,79,0
0,37,109,0
0,42,66,0
0,59,120,12
0,47,76,0
0,35,126,0
0,42,70,0
0,51,79,188
0,37,108,0
0,42,64,0
0,52,78,8
0,42,69,0
0,51,77,20
0,33,127,0
0,37,110,0
0,42,66,0
0,57,117,12
0,47,77,0
0,32,121,0
0,42,64,0
0,61,117,0
0,42,79,0
0,30,122,0
0,37,110,0
0,42,64,0
0,54,115,12
0,49,72,0
0,42,61,0
0,54,112,108
0,52,78,0
0,42,127,0
0,37,111,0
0,42,62,0
0,57,114,12
0,42,81,96
0,42,67,0
0,49,78,21
0,37,106,0
0,42,69,0
0,52,75,14
0,42,65,0
0,49,77,24
0,30,121,0
0,37,108,0
0,42,63,0
0,42,75,16
0,32,120,0
0,42,70,0
0,45,74,1
0,33,127,0
0,37,111,0
0,42,65,0
0,49,78,188
0,42,65,0
0,52,73,10
0,37,108,0
0,42,63,0
0,47,77,16
0,28,122,0
0,42,63,0
0,51,76,188
0,37,108,0
0,42,70,0
0,52,73,27
0,42,65,0
0,51,75,16
0,32,123,0
0,37,108,0
0,42,62,0
0,47,80,16
0,28,125,0
0,42,65,0
0,42,76,12
0,30,122,0
0,37,111,0
0,42,67,0
0,54,114,184
0,49,79,0
0,42,65,0
0,66,116,6
0,52,75,0
0,42,127,0
0,37,109,0
0,42,67,0
0,66,117,108
0,42,75,0
0,42,62,0
0,66,119,12
0,49,81,0
0,37,105,0
0,42,62,0
0,52,74,6
0,42,67,0
0,59,118,9
0,49,79,0
0,30,123,0
0,37,105,0
0,42,69,0
0,57,120,12
0,42,80,0
0,32,127,0
0,42,69,0
0,59,119,12
0,45,73,0
0,33,125,0
0,37,106,0
0,42,67,0
0,59,119,12
0,49,77,0
0,42,69,0
0,59,119,0
0,52,78,0
0,37,109,0
0,42,61,0
0,47,78,16
0,35,123,0
0,42,66,0
0,59,120,108
0,51,77,0
0,37,110,0
0,42,66,0
0,57,121,8
0,52,81,0
0,42,69,0
0,59,118,12
0,51,76,0
0,33,123,0
0,37,111,0
0,42,67,0
0,47,80,16
0,32,127,0
0,42,65,0
0,61,116,0
0,42,74,0
0,30,120,0
0,37,109,0
0,42,69,0
0,54,120,12
0,49,77,0
0,42,66,0
0,54,120,12
0,52,78,0
0,42,123,0
0,37,106,0
0,42,64,0
0,42,72,108
0,42,64,0
0,49,74,21
0,37,108,0
0,42,67,0
0,52,76,14
0,42,69,0
0,49,72,12
0,30,127,0
0,37,106,0
0,42,63,0
0,42,79,16
0,32,121,0
0,42,65,0
0,45,76,1
0,33,126,0
0,37,111,0
0,42,64,0
0,49,78,188
0,42,69,0
0,52,72,10
0,37,111,0
0,42,68,0
0,47,75,16
0,28,125,0
0,42,65,0
0,51,75,188
0,37,111,0
0,42,64,0
0,52,76,27
0,42,69,0
0,51,72,16
0,54,121,0
0,32,124,0
0,38,90,0
0,42,70,0
0,47,80,16
0,28,124,0
0,42,68,0
0,90,86,0
0,57,87,0
0,61,84,0
0,64,80,0
0,42,73,0
0,30,121,0
0,36,115,0
0,37,105,0
0,42,67,0
0,49,81,168
0,42,67,0
0,69,120,0
0,52,80,0
0,42,127,0
0,37,105,0
0,42,64,0
0,42,79,52
0,42,68,0
0,49,81,15
0,37,107,0
0,42,62,0
0,66,121,6
0,52,75,0
0,42,63,0
0,66,113,9
0,49,79,0
0,30,127,0
0,37,111,0
0,42,66,0
0,64,115,12
0,42,72,0
0,32,127,0
0,36,115,0
0,42,67,0
0,66,114,12
0,57,85,0
0,61,85,0
0,64,86,0
0,45,77,0
0,33,127,0
0,36,116,0
0,37,107,0
0,42,69,0
0,49,74,188
0,42,61,0
0,66,112,0
0,52,74,0
0,37,111,0
0,42,66,0
0,66,114,12
0,47,74,0
0,35,127,0
0,42,63,0
0,59,85,12
0,63,81,0
0,66,108,0
0,51,78,0
0,37,109,0
0,42,68,0
0,64,115,92
0,61,112,0
0,52,81,0
0,42,64,0
0,51,80,20
0,33,127,0
0,37,110,0
0,42,61,0
0,47,78,12
0,32,124,0
0,36,118,0
0,42,70,0
0,90,75,12
0,57,87,0
0,61,85,0
0,42,78,0
0,30,120,0
0,36,117,0
0,37,111,0
0,42,65,0
0,49,75,186
0,42,64,0
0,69,119,0
0,52,74,0
0,42,126,0
0,37,106,0
0,42,68,0
0,69,116,12
0,42,78,0
0,42,61,0
0,69,120,12
0,49,76,0
0,37,109,0
0,42,63,0
0,66,115,12
0,52,72,0
0,42,67,0
0,66,116,12
0,49,74,0
0,30,127,0
0,37,105,0
0,42,64,0
0,64,120,12
0,42,77,0
0,32,125,0
0,36,118,0
0,42,67,0
0,66,113,1
0,57,84,0
0,61,87,0
0,64,83,0
0,45,74,0
0,33,125,0
0,36,118,0
0,37,111,0
0,42,64,0
0,49,77,188
0,42,66,0
0,66,119,10
0,52,76,0
0,37,109,0
0,42,70,0
0,66,119,0
0,47,77,0
0,28,121,0
0,42,67,0
0,59,87,12
0,63,88,0
0,66,83,0
0,51,73,0
0,37,109,0
0,42,67,0
0,52,78,27
0,42,65,0
0,66,119,12
0,51,77,0
0,54,95,0
0,38,95,0
0,42,69,0
0,61,116,12
0,47,72,0
0,38,85,0
0,38,81,92
0,57,86,0
0,62,88,0
0,50,73,0
0,38,93,0
0,42,90,0
0,45,92,0
0,50,91,0
0,54,92,0
0,38,124,0
0,36,114,0
0,49,92,0
0,57,77,104
0,38,125,0
0,42,63,0
0,62,76,12
0,38,127,0
0,38,89,0
0,42,64,0
0,54,72,12
0,38,120,0
0,42,62,0
0,57,80,12
0,38,127,0
0,36,112,0
0,42,66,0
0,62,77,12
0,38,127,0
0,42,67,0
0,66,119,12
0,54,77,0
0,54,98,0
0,38,120,0
0,38,90,0
0,42,61,0
0,64,113,12
0,62,80,0
0,38,124,0
0,42,64,0
0,66,112,0
0,68,85,0
0,50,77,0
0,38,126,0
0,36,118,0
0,42,65,0
0,66,116,12
0,57,76,0
0,38,121,0
0,42,63,0
0,62,72,12
0,38,121,0
0,38,92,0
0,42,63,0
0,66,120,12
0,54,73,0
0,38,121,0
0,42,63,0
0,69,89,12
0,57,74,0
0,38,127,0
0,36,117,0
0,42,69,0
0,62,73,0
0,38,127,0
0,42,65,0
0,54,77,12
0,38,88,0
0,42,87,0
0,45,88,0
0,50,90,0
0,54,88,0
0,54,103,0
0,38,127,0
0,38,87,0
0,42,67,0
0,62,74,8
0,38,123,0
0,42,67,0
0,90,75,0
0,59,86,0
0,64,86,0
0,68,82,0
0,52,79,0
0,59,76,0
0,64,73,0
0,68,77,0
0,40,92,0
0,47,92,0
0,52,84,0
0,56,85,0
0,40,127,0
0,36,116,0
0,42,62,0
0,40,124,98
0,42,63,0
0,40,127,112
0,38,92,0
0,42,64,0
0,40,127,112
0,42,65,0
0,40,122,112
0,36,112,0
0,42,68,0
0,64,117,112
0,40,122,0
0,42,62,0
0,66,121,12
0,54,97,0
0,40,124,0
0,38,92,0
0,42,61,0
0,66,119,12
0,40,120,0
0,42,63,0
0,66,113,12
0,69,82,0
0,37,120,0
0,36,118,0
0,42,68,0
0,66,115,12
0,52,79,0
0,59,77,0
0,64,72,0
0,69,75,0
0,40,89,0
0,47,91,0
0,52,86,0
0,57,86,0
0,37,127,0
0,42,67,0
0,66,112,12
0,52,78,0
0,59,76,0
0,64,81,0
0,69,80,0
0,40,84,0
0,47,84,0
0,52,92,0
0,57,90,0
0,37,122,0
0,38,92,0
0,42,69,0
0,66,121,0
0,37,122,0
0,42,68,0
0,71,82,12
0,52,74,0
0,59,73,0
0,64,72,0
0,68,77,0
0,40,93,0
0,47,86,0
0,52,87,0
0,56,85,0
0,38,88,0
0,42,67,0
0,64,119,0
0,52,81,0
0,59,78,0
0,64,74,0
0,68,76,0
0,40,91,0
0,47,85,0
0,52,87,0
0,56,85,0
0,35,126,0
0,36,118,0
0,42,62,0
0,66,116,12
0,45,80,0
0,45,92,0
0,54,101,0
0,33,122,0
0,36,118,0
0,38,91,0
0,42,69,0
0,66,115,0
0,44,76,0
0,44,89,0
0,32,127,0
0,42,63,0
0,69,114,0
0,85,87,0
0,42,93,0
0,49,85,0
0,54,89,0
0,57,86,0
0,61,90,0
0,66,86,0
0,61,77,0
0,66,80,0
0,69,80,0
0,30,127,0
0,36,115,0
0,49,92,0
0,66,112,16
0,30,126,0
0,66,119,16
0,42,93,0
0,49,85,0
0,54,89,0
0,57,86,0
0,61,90,0
0,66,86,0
0,54,97,0
0,32,123,0
0,38,88,0
0,51,68,0
0,45,87,16
0,52,90,0
0,57,86,0
0,61,86,0
0,69,91,0
0,33,122,0
0,51,65,0
0,64,76,36
0,69,81,0
0,73,77,0
0,36,115,0
0,51,64,0
0,33,120,16
0,51,65,0
0,45,90,16
0,52,89,0
0,57,87,0
0,61,90,0
0,69,90,0
0,54,97,0
0,37,121,0
0,38,92,0
0,51,70,0
0,52,92,16
0,59,87,0
0,64,86,0
0,68,87,0
0,40,127,0
0,51,66,0
0,90,87,36
0,64,75,0
0,68,72,0
0,71,80,0
0,36,118,0
0,51,70,0
0,40,127,16
0,51,70,0
0,52,92,6
0,59,87,0
0,64,84,0
0,68,89,0
0,54,94,0
0,37,127,0
0,38,88,0
0,51,70,0
0,47,85,16
0,54,87,0
0,59,89,0
0,63,86,0
0,66,93,0
0,35,124,0
0,51,70,0
0,63,75,36
0,66,73,0
0,71,77,0
0,36,118,0
0,51,70,0
0,64,120,0
0,47,88,0
0,54,89,0
0,59,88,0
0,63,88,0
0,66,89,0
0,35,125,0
0,51,70,0
0,66,112,0
0,45,91,0
0,54,97,0
0,33,127,0
0,38,92,0
0,51,70,0
0,66,118,0
0,44,88,0
0,32,126,0
0,51,66,0
0,69,121,0
0,90,86,0
0,42,88,0
0,49,84,0
0,54,84,0
0,57,85,0
0,61,92,0
0,66,84,0
0,61,73,0
0,66,81,0
0,69,81,0
0,30,124,0
0,36,115,0
0,51,70,0
0,66,118,10
0,30,124,0
0,51,70,0
0,66,115,16
0,42,88,0
0,49,84,0
0,54,84,0
0,57,85,0
0,61,92,0
0,66,84,0
0,54,103,0
0,32,125,0
0,38,92,0
0,51,70,0
0,64,119,3
0,61,114,2
0,45,92,0
0,52,93,0
0,57,84,0
0,61,87,0
0,69,85,0
0,33,124,0
0,36,118,0
0,51,67,0
0,64,79,36
0,69,76,0
0,73,73,0
0,36,114,0
0,51,70,0
0,33,127,16
0,51,70,0
0,45,91,16
0,52,89,0
0,57,89,0
0,61,85,0
0,69,92,0
0,54,94,0
0,37,124,0
0,38,91,0
0,51,70,0
0,52,85,16
0,59,92,0
0,64,86,0
0,68,91,0
0,40,120,0
0,51,68,0
0,64,79,36
0,68,75,0
0,71,72,0
0,36,118,0
0,51,70,0
0,32,127,16
0,51,70,0
0,52,89,0
0,59,91,0
0,64,91,0
0,68,92,0
0,54,96,0
0,32,127,0
0,38,89,0
0,51,66,0
0,47,88,16
0,54,88,0
0,59,88,0
0,63,84,0
0,66,85,0
0,35,127,0
0,36,118,0
0,51,67,0
0,63,80,36
0,66,80,0
0,71,72,0
0,36,117,0
0,51,69,0
0,64,113,0
0,47,87,0
0,54,87,0
0,59,93,0
0,63,85,0
0,66,87,0
0,35,123,0
0,51,70,0
0,66,119,0
0,45,86,0
0,54,94,0
0,33,125,0
0,38,91,0
0,51,67,0
0,64,114,0
0,44,88,0
0,32,127,0
0,36,113,0
0,51,69,0
0,66,116,0
0,85,86,0
0,42,91,0
0,49,91,0
0,54,89,0
0,57,88,0
0,61,93,0
0,66,91,0
0,61,72,0
0,66,74,0
0,69,81,0
0,30,123,0
0,36,118,0
0,51,68,0
0,66,112,12
0,30,127,0
0,51,70,0
0,42,91,16
0,49,91,0
0,54,89,0
0,57,88,0
0,61,93,0
0,66,91,0
0,54,99,0
0,32,121,0
0,38,89,0
0,51,70,0
0,66,112,12
0,45,93,0
0,52,91,0
0,57,91,0
0,61,89,0
0,69,90,0
0,33,123,0
0,51,68,0
0,64,74,48
0,69,77,0
0,73,80,0
0,36,118,0
0,51,70,0
0,61,116,12
0,33,121,0
0,51,66,0
0,59,119,12
0,45,88,0
0,52,84,0
0,57,90,0
0,61,87,0
0,69,84,0
0,54,100,0
