track,note,velocity,time
1,38,127,3229
1,38,127,27
1,36,118,15740
1,49,116,0
1,38,123,380
1,42,66,0
1,42,64,188
1,42,65,188
1,42,73,188
1,38,123,188
1,42,67,0
1,42,69,188
1,42,70,188
1,42,69,188
1,38,122,188
1,42,73,0
1,42,64,188
1,42,66,188
1,42,67,188
1,38,120,188
1,42,66,0
1,36,122,188
1,42,71,0
1,36,118,188
1,42,64,0
1,42,69,188
1,38,120,188
1,42,71,0
1,42,70,188
1,42,73,188
1,42,71,188
1,38,116,188
1,42,70,0
1,42,68,188
1,42,71,188
1,42,69,188
1,38,123,188
1,42,71,0
1,42,65,188
1,42,72,188
1,42,70,188
1,38,121,188
1,42,73,0
1,36,120,188
1,42,73,0
1,36,117,188
1,42,70,0
1,42,70,188
1,38,114,188
1,42,68,0
1,42,71,188
1,42,70,188
1,42,68,188
1,38,117,188
1,42,65,0
1,42,72,188
1,42,73,188
1,42,73,188
1,38,121,188
1,42,69,0
1,42,73,188
1,42,72,188
1,42,72,188
1,38,118,188
1,42,72,0
1,36,121,188
1,42,67,0
1,36,116,188
1,42,68,0
1,42,68,188
1,38,116,188
1,42,70,0
1,42,65,188
1,42,70,188
1,42,67,188
1,38,121,188
1,42,65,0
1,42,66,188
1,42,66,188
1,42,73,188
1,38,120,188
1,42,70,0
1,42,66,188
1,38,116,188
1,42,70,0
1,42,71,92
1,50,123,92
1,42,65,60
1,42,73,60
1,47,123,60
1,42,71,92
1,43,115,92
1,36,116,188
1,49,123,0
1,38,121,380
1,51,82,0
1,51,78,188
1,51,83,188
1,51,81,188
1,38,120,188
1,51,78,0
1,36,119,188
1,51,76,0
1,36,116,188
1,51,74,0
1,51,79,188
1,38,122,188
1,51,77,0
1,51,76,188
1,36,118,188
1,51,79,0
1,51,81,188
1,38,117,188
1,51,78,0
1,36,114,188
1,51,83,0
1,36,123,188
1,51,75,0
1,51,83,188
1,38,118,188
1,51,81,0
1,51,74,188
1,51,75,188
1,51,83,188
1,38,119,188
1,51,79,0
1,36,115,188
1,51,75,0
1,36,114,188
1,51,80,0
1,51,75,188
1,38,118,188
1,51,75,0
1,51,76,188
1,36,122,188
1,51,83,0
1,51,74,188
1,38,123,188
1,51,83,0
1,36,114,188
1,51,78,0
1,36,115,188
1,51,78,0
1,51,75,188
1,38,123,188
1,51,80,0
1,51,80,188
1,51,75,188
1,51,79,188
1,38,120,188
1,51,75,0
1,36,120,188
1,51,81,0
1,36,115,188
1,51,76,0
1,51,79,188
1,38,123,188
1,51,81,0
1,51,74,188
1,36,119,188
1,51,76,0
1,51,79,188
1,38,123,188
1,51,82,0
1,36,119,188
1,51,81,0
1,36,114,188
1,51,78,0
1,51,79,188
1,38,120,188
1,51,82,0
1,51,76,188
1,51,81,188
1,51,79,188
1,38,119,188
1,51,74,0
1,36,122,188
1,51,74,0
1,36,116,188
1,51,76,0
1,51,77,188
1,38,120,188
1,51,77,0
1,51,80,188
1,36,121,188
1,51,83,0
1,51,76,188
1,38,117,188
1,51,79,0
1,51,81,188
1,36,116,188
1,51,83,0
1,51,79,188
1,38,119,188
1,51,78,0
1,51,79,188
1,51,81,188
1,51,77,188
1,38,119,188
1,51,81,0
1,36,117,188
1,51,78,0
1,36,123,188
1,49,117,0
1,36,117,1532
1,49,114,0
1,38,123,380
1,36,118,380
1,38,121,380
1,36,116,380
1,38,116,380
1,36,121,380
1,36,119,188
1,38,117,188
1,36,116,380
1,38,119,380
1,36,115,188
1,36,115,188
1,38,121,380
1,49,122,0
1,36,117,380
1,43,122,0
1,36,119,188
1,38,117,0
1,43,120,0
1,36,115,188
1,38,114,0
1,43,122,0
1,36,123,188
1,38,115,0
1,43,117,0
1,36,123,188
1,38,122,0
1,43,123,0
1,36,119,188
1,38,122,0
1,43,116,0
1,36,120,188
1,38,118,0
1,43,116,0
1,36,115,188
1,38,114,0
1,43,114,0
1,36,116,188
1,49,116,0
1,38,122,380
1,42,71,0
1,42,66,188
1,36,121,188
1,42,68,0
1,42,72,188
1,38,119,188
1,42,70,0
1,42,67,188
1,36,122,188
1,42,70,0
1,42,65,188
1,38,116,188
1,42,64,0
1,36,117,188
1,42,66,0
1,36,117,188
1,42,65,0
1,42,73,188
1,38,122,188
1,42,73,0
1,42,64,188
1,36,116,188
1,42,70,0
1,42,70,188
1,38,121,188
1,42,68,0
1,42,72,188
1,36,114,188
1,42,72,0
1,42,65,188
1,38,119,188
1,42,68,0
1,42,72,188
1,36,121,188
1,42,73,0
1,42,69,188
1,38,115,188
1,42,71,0
1,36,117,188
1,42,66,0
1,36,123,188
1,42,71,0
1,42,69,188
1,38,118,188
1,42,72,0
1,42,68,188
1,36,119,188
1,42,67,0
1,42,72,188
1,38,120,188
1,42,71,0
1,42,65,188
1,36,122,188
1,42,73,0
1,42,68,188
1,38,117,188
1,42,72,0
1,42,65,188
1,36,115,188
1,42,65,0
1,42,65,188
1,38,121,188
1,42,68,0
1,36,117,188
1,42,65,0
1,36,114,188
1,42,68,0
1,42,66,188
1,38,121,188
1,42,65,0
1,42,70,188
1,36,123,188
1,42,71,0
1,42,72,188
1,38,118,188
1,42,69,0
1,42,71,188
1,36,119,188
1,42,65,0
1,42,66,188
1,38,117,188
1,42,65,0
1,42,66,188
1,36,116,188
1,42,65,0
1,42,69,188
1,38,123,188
1,42,72,0
1,36,119,188
1,42,64,0
1,36,123,188
1,42,72,0
1,38,116,188
1,42,72,0
1,38,115,188
1,49,121,0
1,36,121,380
1,49,123,0
1,38,122,380
1,51,76,0
1,51,74,188
1,36,114,188
1,51,79,0
1,51,79,188
1,38,123,188
1,51,81,0
1,51,80,188
1,36,115,188
1,51,74,0
1,51,76,188
1,38,114,188
1,51,76,0
1,36,118,188
1,51,76,0
1,36,122,188
1,51,83,0
1,51,77,188
1,38,117,188
1,51,75,0
1,51,77,188
1,36,120,188
1,51,77,0
1,51,79,188
1,38,114,188
1,51,78,0
1,51,79,188
1,36,121,188
1,51,83,0
1,51,76,188
1,38,119,188
1,51,80,0
1,51,75,188
1,36,119,188
1,51,83,0
1,51,76,188
1,38,117,188
1,51,80,0
1,36,117,188
1,51,78,0
1,36,114,188
1,51,76,0
1,51,74,188
1,38,117,188
1,51,80,0
1,51,83,188
1,36,115,188
1,51,76,0
1,51,74,188
1,38,122,188
1,51,74,0
1,51,75,188
1,36,116,188
1,51,83,0
1,51,83,188
1,38,121,188
1,51,77,0
1,51,75,188
1,36,120,188
1,51,76,0
1,51,74,188
1,38,120,188
1,51,82,0
1,36,119,188
1,51,81,0
1,36,118,188
1,51,78,0
1,51,82,188
1,38,119,188
1,51,78,0
1,51,82,188
1,36,120,188
1,51,83,0
1,51,79,188
1,38,116,188
1,51,74,0
1,51,79,188
1,36,120,188
1,51,80,0
1,51,74,188
1,38,115,188
1,51,83,0
1,51,82,188
1,36,114,188
1,51,79,0
1,51,78,188
1,38,121,188
1,51,74,0
1,36,119,188
1,51,80,0
1,36,117,188
1,51,82,0
1,38,117,188
1,51,81,0
1,38,121,188
1,49,114,0
1,36,122,380
1,57,114,0
1,38,122,380
1,51,77,0
1,51,77,188
1,36,116,188
1,51,74,0
1,36,121,188
1,51,80,0
1,36,117,188
1,38,118,0
1,43,118,0
1,36,117,380
1,57,119,0
1,36,120,1532
1,49,121,0
1,38,115,380
1,42,64,0
1,42,68,188
1,36,123,188
1,42,69,0
1,42,72,188
1,38,121,188
1,42,65,0
1,42,67,188
1,36,116,188
1,42,67,0
1,42,69,188
1,38,114,188
1,42,68,0
1,42,67,188
1,36,122,188
1,42,64,0
1,36,122,188
1,42,70,0
1,38,122,188
1,42,73,0
1,42,73,188
1,36,123,188
1,42,67,0
1,42,71,188
1,38,123,188
1,42,64,0
1,42,69,188
1,36,114,188
1,42,68,0
1,42,67,188
1,38,123,188
1,42,69,0
1,42,67,188
1,36,115,188
1,42,72,0
1,42,69,188
1,38,115,188
1,42,64,0
1,42,68,188
1,36,118,188
1,42,68,0
1,36,123,188
1,42,68,0
1,38,118,188
1,42,68,0
1,42,67,188
1,36,118,188
1,49,115,0
1,38,114,380
1,42,67,0
1,42,69,188
1,36,119,188
1,42,68,0
1,42,68,188
1,38,115,188
1,42,64,0
1,42,70,188
1,36,118,188
1,42,67,0
1,42,64,188
1,38,115,188
1,42,69,0
1,42,67,188
1,36,115,188
1,42,67,0
1,36,118,188
1,42,64,0
1,38,121,188
1,42,73,0
1,42,68,188
1,36,121,188
1,42,70,0
1,42,67,188
1,38,120,188
1,42,71,0
1,42,69,188
1,36,121,188
1,42,73,0
1,38,119,188
1,42,71,0
1,42,65,92
1,38,118,92
1,42,68,0
1,42,69,92
1,36,121,92
1,42,68,0
1,42,69,60
1,42,65,60
1,36,117,60
1,51,83,0
1,38,114,284
1,36,118,92
1,38,118,0
1,50,116,188
1,36,118,188
1,38,121,0
1,50,116,92
1,47,123,92
1,45,118,92
1,36,117,92
1,43,116,0
1,43,123,188
1,36,119,188
1,49,118,0
1,38,119,380
1,51,74,0
1,51,78,188
1,36,121,188
1,51,74,0
1,51,74,188
1,38,120,188
1,51,81,0
1,51,77,188
1,36,117,188
1,51,80,0
1,51,83,188
1,38,122,188
1,51,79,0
1,51,76,188
1,36,123,188
1,51,75,0
1,36,114,188
1,51,81,0
1,38,119,188
1,51,76,0
1,51,78,188
1,36,123,188
1,51,74,0
1,51,79,188
1,38,123,188
1,51,76,0
1,51,77,188
1,36,114,188
1,51,79,0
1,51,77,188
1,38,122,188
1,51,76,0
1,51,78,188
1,36,120,188
1,49,116,0
1,38,117,188
1,57,120,0
1,36,117,188
1,36,121,188
1,36,123,188
1,38,119,0
1,42,66,0
1,42,64,188
1,36,119,188
1,38,123,0
1,49,123,0
1,36,118,380
1,49,114,0
1,51,74,0
1,38,119,380
1,51,78,0
1,51,78,188
1,36,115,188
1,51,76,0
1,51,80,188
1,38,118,188
1,51,74,0
1,51,78,188
1,36,117,188
1,51,83,0
1,51,76,188
1,38,123,188
1,51,77,0
1,51,82,188
1,36,117,188
1,51,78,0
1,36,116,188
1,51,77,0
1,38,120,188
1,51,76,0
1,51,78,188
1,36,118,188
1,49,120,0
1,38,118,380
1,51,75,0
1,51,77,188
1,36,123,188
1,51,74,0
1,51,76,188
1,38,117,188
1,51,81,0
1,51,78,188
1,36,119,188
1,57,121,0
1,51,76,188
1,38,115,188
1,51,77,0
1,51,77,188
1,36,116,188
1,41,119,0
1,43,116,0
1,51,82,0
1,36,121,188
1,41,114,0
1,43,121,0
1,36,116,188
1,41,123,0
1,43,120,0
1,36,123,380
1,43,123,0
1,49,123,0
1,36,120,3068
1,49,123,0
1,43,122,2492
1,47,115,0
1,43,116,188
1,47,115,0
1,36,118,380
1,49,114,0
1,36,115,3068
1,49,116,0
1,43,115,572
1,47,121,0
1,43,119,380
1,47,122,0
1,43,115,380
1,47,120,0
1,38,115,365
1,38,123,11
1,36,120,188
1,36,115,188
1,38,121,147
1,38,118,37
1,36,119,188
1,38,121,156
1,36,118,28
1,38,122,0
1,50,114,188
1,36,120,188
1,49,116,0
1,38,119,380
1,42,64,0
1,42,71,188
1,36,114,188
1,42,73,0
1,42,68,188
1,38,122,188
1,42,69,0
1,42,72,188
1,36,119,188
1,42,68,0
1,42,65,188
1,38,118,188
1,42,66,0
1,36,118,188
1,42,64,0
1,36,122,188
1,42,67,0
1,42,69,188
1,38,122,188
1,42,64,0
1,42,70,188
1,36,115,188
1,42,73,0
1,42,65,188
1,38,114,188
1,42,68,0
1,42,70,188
1,36,116,188
1,42,67,0
1,42,64,188
1,38,118,188
1,42,67,0
1,42,68,188
1,36,122,188
1,42,65,0
1,42,66,188
1,38,119,188
1,42,73,0
1,36,121,188
1,42,73,0
1,36,121,188
1,42,72,0
1,42,66,188
1,38,114,188
1,42,72,0
1,42,66,188
1,36,123,188
1,42,68,0
1,42,67,188
1,38,120,188
1,42,71,0
1,42,67,188
1,36,121,188
1,42,64,0
1,42,73,188
1,38,119,188
1,42,64,0
1,42,65,188
1,36,123,188
1,42,70,0
1,42,72,188
1,38,121,188
1,42,70,0
1,36,118,188
1,42,73,0
1,36,116,188
1,42,72,0
1,42,64,188
1,38,122,188
1,42,71,0
1,42,72,188
1,36,122,188
1,42,67,0
1,42,71,188
1,38,116,188
1,42,69,0
1,42,67,188
1,36,121,188
1,42,68,0
1,42,65,188
1,38,122,188
1,42,64,0
1,42,70,188
1,36,120,188
1,42,65,0
1,42,67,188
1,38,122,188
1,42,71,0
1,36,119,188
1,42,71,0
1,36,122,188
1,42,73,0
1,38,123,188
1,42,67,0
1,38,123,188
1,49,115,0
1,36,118,380
1,49,123,0
1,38,121,380
1,51,76,0
1,51,80,188
1,36,120,188
1,51,83,0
1,51,82,188
1,38,116,188
1,51,83,0
1,51,81,188
1,36,120,188
1,51,75,0
1,51,77,188
1,38,119,188
1,51,83,0
1,36,121,188
1,51,81,0
1,36,123,188
1,51,80,0
1,51,76,188
1,38,118,188
1,51,82,0
1,51,75,188
1,36,115,188
1,51,75,0
1,51,83,188
1,38,120,188
1,51,74,0
1,51,77,188
1,36,117,188
1,51,80,0
1,51,81,188
1,38,123,188
1,51,78,0
1,51,78,188
1,36,118,188
1,51,75,0
1,51,74,188
1,38,123,188
1,51,77,0
1,36,120,188
1,51,76,0
1,36,115,188
1,51,79,0
1,51,79,188
1,38,117,188
1,51,76,0
1,51,83,188
1,36,121,188
1,51,77,0
1,51,74,188
1,38,118,188
1,51,83,0
1,51,83,188
1,36,123,188
1,51,82,0
1,51,78,188
1,38,123,188
1,51,79,0
1,51,77,188
1,36,115,188
1,51,74,0
1,51,76,188
1,38,121,188
1,51,75,0
1,36,118,188
1,51,78,0
1,36,118,188
1,51,81,0
1,51,78,188
1,38,119,188
1,51,78,0
1,51,79,188
1,36,118,188
1,51,81,0
1,51,83,188
1,38,122,188
1,51,83,0
1,51,75,188
1,36,115,188
1,51,82,0
1,51,78,188
1,38,120,188
1,51,74,0
1,51,76,188
1,36,116,188
1,51,76,0
1,51,79,188
1,38,119,188
1,51,78,0
1,36,118,188
1,51,77,0
1,36,116,188
1,51,75,0
1,38,114,188
1,51,76,0
1,38,118,188
1,49,118,0
1,36,123,380
1,57,123,0
1,38,122,380
1,51,83,0
1,51,82,188
1,36,118,188
1,51,82,0
1,36,122,188
1,51,74,0
1,36,119,188
1,38,119,0
1,43,118,0
1,36,122,380
1,57,117,0
1,36,115,1532
1,49,121,0
1,38,123,380
1,42,68,0
1,42,71,188
1,36,122,188
1,42,67,0
1,42,73,188
1,38,118,188
1,42,73,0
1,42,73,188
1,36,116,188
1,42,64,0
1,42,70,188
1,38,116,188
1,42,64,0
1,42,73,188
1,36,114,188
1,42,70,0
1,36,119,188
1,42,73,0
1,38,122,188
1,42,64,0
1,42,64,188
1,36,117,188
1,42,64,0
1,42,73,188
1,38,122,188
1,42,67,0
1,42,73,188
1,36,120,188
1,42,67,0
1,42,70,188
1,38,123,188
1,42,73,0
1,42,73,188
1,36,114,188
1,42,72,0
1,42,67,188
1,38,114,188
1,42,65,0
1,42,64,188
1,36,122,188
1,42,69,0
1,36,114,188
1,42,70,0
1,38,116,188
1,42,65,0
1,42,69,188
1,36,121,188
1,49,117,0
1,38,117,380
1,42,68,0
1,42,66,188
1,36,117,188
1,42,66,0
1,42,65,188
1,38,120,188
1,42,64,0
1,42,65,188
1,36,119,188
1,42,69,0
1,42,71,188
1,38,123,188
1,42,65,0
1,42,69,188
1,36,115,188
1,42,72,0
1,36,118,188
1,42,67,0
1,38,120,188
1,42,69,0
1,42,69,188
1,36,117,188
1,42,72,0
1,42,68,188
1,38,121,188
1,42,67,0
1,42,64,188
1,36,116,188
1,42,67,0
1,38,115,188
1,42,69,0
1,42,71,92
1,38,123,92
1,42,65,0
1,42,73,92
1,36,115,92
1,42,71,0
1,42,67,60
1,42,64,60
1,36,121,60
1,43,120,0
1,42,67,188
1,38,114,92
1,42,67,0
1,36,121,92
