track,note,velocity,time
1,67,64,2280
1,67,0,119
1,67,64,1
1,67,0,29
1,65,64,1
1,65,0,29
1,64,64,1
1,64,0,29
1,64,64,1
1,64,0,59
1,64,64,1
1,64,0,29
1,64,64,1
1,64,0,59
1,64,64,1
1,64,0,29
1,62,64,1
1,62,0,29
1,62,64,1
1,62,0,179
1,57,64,181
1,57,0,29
1,60,64,1
1,60,0,29
1,62,64,1
1,62,0,59
1,62,64,1
1,62,0,29
1,62,64,1
1,62,0,89
1,64,64,1
1,64,0,29
1,57,64,1
1,57,0,149
1,57,64,61
1,57,0,29
1,60,64,1
1,60,0,29
1,62,64,1
1,62,0,59
1,62,64,1
1,62,0,29
1,62,64,1
1,62,0,89
1,64,64,1
1,64,0,29
1,62,64,1
1,62,0,149
1,67,64,241
1,67,0,119
1,67,64,1
1,67,0,29
1,65,64,1
1,65,0,29
1,64,64,1
1,64,0,29
1,64,64,1
1,64,0,89
1,64,64,1
1,64,0,29
1,64,64,1
1,64,0,29
1,64,64,1
1,64,0,29
1,62,64,1
1,62,0,29
1,62,64,1
1,62,0,179
1,57,64,181
1,57,0,29
1,60,64,1
1,60,0,29
1,62,64,1
1,62,0,59
1,62,64,1
1,62,0,29
1,62,64,1
1,62,0,89
1,60,64,1
1,60,0,29
1,60,64,1
1,60,0,149
1,60,64,31
1,60,0,29
1,64,64,1
1,64,0,59
1,64,64,1
1,64,0,59
1,62,64,1
1,62,0,29
1,62,64,1
1,62,0,89
1,57,64,211
1,57,0,29
1,60,64,1
1,60,0,29
1,60,64,1
1,60,0,29
1,60,64,1
1,60,0,29
1,62,64,1
1,62,0,89
1,62,64,1
1,62,0,59
1,60,64,1
1,60,0,29
1,62,64,1
1,62,0,89
1,60,64,181
1,60,0,29
1,60,64,1
1,60,0,29
1,60,64,1
1,60,0,29
1,62,64,1
1,62,0,59
1,62,64,1
1,62,0,29
1,64,64,1
1,64,0,59
1,64,64,1
1,64,0,119
1,64,64,61
1,64,0,29
1,65,64,1
1,65,0,29
1,67,64,1
1,67,0,59
1,67,64,1
1,67,0,29
1,67,64,1
1,67,0,59
1,65,64,1
1,65,0,29
1,64,64,1
1,64,0,59
1,60,64,1
1,60,0,119
1,57,64,91
1,57,0,29
1,60,64,1
1,60,0,29
1,60,64,1
1,60,0,29
1,60,64,1
1,60,0,29
1,62,64,1
1,62,0,59
1,62,64,1
1,62,0,29
1,64,64,1
1,64,0,59
1,64,64,1
1,64,0,119
1,62,64,61
1,62,0,29
1,60,64,1
1,60,0,29
1,62,64,1
1,62,0,29
1,59,64,1
1,59,0,89
1,55,64,331
1,55,0,29
1,60,64,1
1,60,0,29
1,60,64,1
1,60,0,59
1,62,64,1
1,62,0,59
1,62,64,1
1,62,0,29
1,64,64,1
1,64,0,59
1,64,64,1
1,64,0,119
1,64,64,61
1,64,0,29
1,65,64,1
1,65,0,29
1,67,64,1
1,67,0,59
1,67,64,1
1,67,0,29
1,67,64,1
1,67,0,59
1,65,64,1
1,65,0,29
1,64,64,1
1,64,0,59
1,60,64,1
1,60,0,119
1,57,64,91
1,57,0,29
1,60,64,1
1,60,0,29
1,60,64,1
1,60,0,29
1,60,64,1
1,60,0,29
1,62,64,1
1,62,0,89
1,62,64,1
1,62,0,29
1,64,64,1
1,64,0,89
1,62,64,121
1,62,0,29
1,60,64,1
1,60,0,29
1,62,64,1
1,62,0,29
1,59,64,1
1,59,0,89
1,67,64,1681
1,67,0,119
1,67,64,1
1,67,0,29
1,65,64,1
1,65,0,29
1,64,64,1
1,64,0,29
1,64,64,1
1,64,0,89
1,64,64,1
1,64,0,29
1,64,64,1
1,64,0,59
1,62,64,1
1,62,0,29
1,62,64,1
1,62,0,179
1,57,64,181
1,57,0,29
1,60,64,1
1,60,0,29
1,62,64,1
1,62,0,59
1,62,64,1
1,62,0,29
1,62,64,1
1,62,0,89
1,64,64,1
1,64,0,29
1,57,64,1
1,57,0,149
1,57,64,61
1,57,0,29
1,60,64,1
1,60,0,29
1,62,64,1
1,62,0,29
1,62,64,1
1,62,0,29
1,62,64,1
1,62,0,59
1,62,64,1
1,62,0,59
1,64,64,1
1,64,0,29
1,62,64,1
1,62,0,149
1,67,64,241
1,67,0,119
1,67,64,1
1,67,0,29
1,65,64,1
1,65,0,29
1,64,64,1
1,64,0,29
1,64,64,1
1,64,0,89
1,64,64,1
1,64,0,29
1,64,64,1
1,64,0,29
1,64,64,1
1,64,0,29
1,62,64,1
1,62,0,29
1,62,64,1
1,62,0,179
1,69,64,61
1,69,0,59
1,67,64,1
1,67,0,89
1,67,64,1
1,67,0,29
1,65,64,1
1,65,0,59
1,64,64,1
1,64,0,29
1,62,64,1
1,62,0,89
1,60,64,1
1,60,0,59
1,60,64,1
1,60,0,149
1,64,64,31
1,64,0,59
1,64,64,1
1,64,0,59
1,62,64,1
1,62,0,29
1,62,64,1
1,62,0,89
1,57,64,211
1,57,0,29
1,60,64,1
1,60,0,59
1,60,64,1
1,60,0,29
1,62,64,1
1,62,0,89
1,62,64,1
1,62,0,59
1,60,64,1
1,60,0,29
1,62,64,1
1,62,0,89
1,57,64,151
1,57,0,29
1,60,64,1
1,60,0,29
1,60,64,1
1,60,0,29
1,60,64,1
1,60,0,29
1,62,64,1
1,62,0,59
1,62,64,1
1,62,0,29
1,64,64,1
1,64,0,59
1,64,64,1
1,64,0,119
1,64,64,61
1,64,0,29
1,65,64,1
1,65,0,29
1,67,64,1
1,67,0,59
1,67,64,1
1,67,0,29
1,67,64,1
1,67,0,59
1,65,64,1
1,65,0,29
1,64,64,1
1,64,0,59
1,60,64,1
1,60,0,119
1,57,64,91
1,57,0,29
1,60,64,1
1,60,0,29
1,60,64,1
1,60,0,29
1,60,64,1
1,60,0,29
1,62,64,1
1,62,0,59
1,62,64,1
1,62,0,29
1,64,64,1
1,64,0,59
1,64,64,1
1,64,0,119
1,62,64,61
1,62,0,29
1,60,64,1
1,60,0,29
1,62,64,1
1,62,0,29
1,59,64,1
1,59,0,89
1,67,64,331
1,67,0,29
1,69,64,1
1,69,0,29
1,67,64,1
1,67,0,59
1,67,64,1
1,67,0,59
1,67,64,1
1,67,0,29
1,67,64,1
1,67,0,59
1,64,64,1
1,64,0,29
1,60,64,1
1,60,0,89
1,64,64,61
1,64,0,29
1,65,64,1
1,65,0,29
1,67,64,1
1,67,0,59
1,67,64,1
1,67,0,29
1,67,64,1
1,67,0,59
1,65,64,1
1,65,0,29
1,64,64,1
1,64,0,59
1,60,64,1
1,60,0,119
1,57,64,91
1,57,0,29
1,60,64,1
1,60,0,29
1,60,64,1
1,60,0,29
1,60,64,1
1,60,0,29
1,62,64,1
1,62,0,89
1,62,64,1
1,62,0,29
1,64,64,1
1,64,0,89
1,62,64,121
1,62,0,29
1,60,64,1
1,60,0,29
1,62,64,1
1,62,0,29
1,59,64,1
1,59,0,89
1,62,64,1021
1,62,0,29
1,64,64,1
1,64,0,29
1,65,64,1
1,65,0,59
1,64,64,1
1,64,0,29
1,62,64,1
1,62,0,89
1,60,64,1
1,60,0,59
1,60,64,1
1,60,0,119
1,60,64,91
1,60,0,29
1,69,64,1
1,69,0,29
1,67,64,1
1,67,0,119
1,67,64,1
1,67,0,29
1,64,64,1
1,64,0,29
1,67,64,1
1,67,0,29
1,64,64,1
1,64,0,119
1,64,64,91
1,64,0,29
1,65,64,1
1,65,0,29
1,64,64,1
1,64,0,59
1,62,64,1
1,62,0,59
1,60,64,1
1,60,0,29
1,62,64,1
1,62,0,179
1,62,64,541
1,62,0,29
1,64,64,1
1,64,0,29
1,65,64,1
1,65,0,59
1,64,64,1
1,64,0,59
1,62,64,1
1,62,0,29
1,60,64,1
1,60,0,29
1,60,64,1
1,60,0,179
1,60,64,61
1,60,0,29
1,60,64,1
1,60,0,29
1,69,64,1
1,69,0,29
1,67,64,1
1,67,0,119
1,67,64,1
1,67,0,29
1,64,64,1
1,64,0,29
1,67,64,1
1,67,0,29
1,64,64,1
1,64,0,119
1,67,64,181
1,67,0,119
1,64,64,1
1,64,0,29
1,67,64,1
1,67,0,29
1,69,64,1
1,69,0,59
1,67,64,1
1,67,0,29
1,67,64,1
1,67,0,89
1,69,64,1
1,69,0,29
1,64,64,1
1,64,0,29
1,67,64,1
1,67,0,239
1,67,64,1891
1,67,0,29
1,69,64,1
1,69,0,29
1,67,64,1
1,67,0,29
1,67,64,1
1,67,0,29
1,67,64,1
1,67,0,59
1,67,64,1
1,67,0,29
1,67,64,1
1,67,0,59
1,64,64,1
1,64,0,29
1,60,64,1
1,60,0,89
1,64,64,61
1,64,0,29
1,65,64,1
1,65,0,29
1,67,64,1
1,67,0,59
1,67,64,1
1,67,0,29
1,67,64,1
1,67,0,59
1,65,64,1
1,65,0,29
1,64,64,1
1,64,0,59
1,60,64,1
1,60,0,119
1,57,64,91
1,57,0,29
1,60,64,1
1,60,0,29
1,60,64,1
1,60,0,29
1,60,64,1
1,60,0,29
1,62,64,1
1,62,0,59
1,62,64,1
1,62,0,29
1,64,64,1
1,64,0,59
1,64,64,1
1,64,0,119
1,62,64,61
1,62,0,29
1,60,64,1
1,60,0,29
1,62,64,1
1,62,0,29
1,59,64,1
1,59,0,89
1,67,64,331
1,67,0,29
1,69,64,1
1,69,0,29
1,67,64,1
1,67,0,59
1,72,64,1
1,72,0,59
1,67,64,1
1,67,0,29
1,69,64,1
1,69,0,59
1,67,64,1
1,67,0,29
1,64,64,1
1,64,0,89
1,64,64,61
1,64,0,29
1,65,64,1
1,65,0,29
1,67,64,1
1,67,0,59
1,67,64,1
1,67,0,29
1,67,64,1
1,67,0,59
1,65,64,1
1,65,0,29
1,64,64,1
1,64,0,59
1,60,64,1
1,60,0,119
1,57,64,91
1,57,0,29
1,60,64,1
1,60,0,29
1,60,64,1
1,60,0,29
1,60,64,1
1,60,0,29
1,62,64,1
1,62,0,89
1,62,64,1
1,62,0,29
1,64,64,1
1,64,0,89
1,64,64,121
1,64,0,29
1,65,64,1
1,65,0,29
1,67,64,1
1,67,0,29
1,67,64,1
1,67,0,209
1,72,64,1
1,72,0,59
1,69,64,1
1,69,0,59
1,67,64,1
1,67,0,59
1,69,64,1
1,69,0,59
1,69,59,1
1,69,0,119
1,67,54,1
1,67,0,119
1,64,49,1
1,64,0,119
1,67,19,571
1,67,0,29
1,69,19,1
1,69,0,29
1,67,19,1
1,67,0,29
1,67,19,1
1,67,0,29
1,64,14,1
1,64,0,29
1,60,14,1
1,60,0,89
1,67,9,1
1,67,0,29
1,69,9,1
1,69,0,29
1,67,9,1
1,67,0,29
1,67,9,1
1,67,0,29
1,64,4,1
1,64,0,29
1,62,4,1
1,62,0,89
2,60,64,0
2,60,0,89
2,62,64,1
2,62,0,59
2,64,64,1
2,64,0,89
2,60,64,1
2,60,0,89
2,62,64,1
2,62,0,59
2,64,64,1
2,64,0,89
2,60,64,1
2,60,0,89
2,62,64,1
2,62,0,59
2,64,64,1
2,64,0,89
2,65,64,1
2,65,0,89
2,64,64,1
2,64,0,89
2,62,64,1
2,62,0,59
2,60,64,1
2,60,0,89
2,62,64,1
2,62,0,59
2,64,64,1
2,64,0,89
2,60,64,1
2,60,0,89
2,62,64,1
2,62,0,59
2,64,64,1
2,64,0,89
2,60,64,1
2,60,0,89
2,62,64,1
2,62,0,59
2,64,64,1
2,64,0,89
2,65,64,1
2,60,64,0
2,55,64,0
2,57,64,0
2,57,0,479
2,65,0,0
2,60,0,0
2,55,0,0
2,60,64,1
2,64,64,0
2,64,0,59
2,60,0,0
2,55,64,1
2,55,0,59
2,64,64,1
2,60,64,0
2,60,0,59
2,64,0,0
2,55,64,1
2,55,0,59
2,64,64,1
2,60,64,0
2,60,0,59
2,64,0,0
2,57,64,1
2,57,0,59
2,64,64,1
2,60,64,0
2,60,0,59
2,64,0,0
2,57,64,1
2,57,0,59
2,59,64,1
2,62,64,0
2,62,0,59
2,59,0,0
2,55,64,1
2,55,0,59
2,59,64,1
2,62,64,0
2,62,0,59
2,59,0,0
2,55,64,1
2,55,0,59
2,59,64,1
2,62,64,0
2,62,0,59
2,59,0,0
2,55,64,1
2,55,0,59
2,62,64,1
2,59,64,0
2,59,0,59
2,62,0,0
2,55,64,1
2,55,0,59
2,62,64,1
2,65,64,0
2,65,0,59
2,62,0,0
2,57,64,1
2,57,0,59
2,65,64,1
2,62,64,0
2,62,0,59
2,65,0,0
2,57,64,1
2,57,0,59
2,64,64,1
2,60,64,0
2,60,0,59
2,64,0,0
2,57,64,1
2,57,0,59
2,64,64,1
2,60,64,0
2,60,0,59
2,64,0,0
2,57,64,1
2,57,0,59
2,60,64,1
2,62,64,0
2,65,64,0
2,65,0,59
2,62,0,0
2,60,0,0
2,58,64,1
2,58,0,59
2,60,64,1
2,62,64,0
2,65,64,0
2,65,0,59
2,62,0,0
2,60,0,0
2,58,64,1
2,58,0,59
2,60,64,1
2,62,64,0
2,67,64,0
2,67,0,59
2,62,0,0
2,60,0,0
2,55,64,1
2,55,0,59
2,59,64,1
2,62,64,0
2,67,64,0
2,67,0,59
2,62,0,0
2,59,0,0
2,55,64,1
2,55,0,59
2,60,64,1
2,64,64,0
2,64,0,59
2,60,0,0
2,55,64,1
2,55,0,59
2,60,64,1
2,64,64,0
2,64,0,59
2,60,0,0
2,55,64,1
2,55,0,59
2,60,64,1
2,64,64,0
2,64,0,59
2,60,0,0
2,57,64,1
2,57,0,59
2,60,64,1
2,64,64,0
2,64,0,59
2,60,0,0
2,57,64,1
2,57,0,59
2,59,64,1
2,62,64,0
2,62,0,59
2,59,0,0
2,55,64,1
2,55,0,59
2,62,64,1
2,59,64,0
2,59,0,59
2,62,0,0
2,55,64,1
2,55,0,59
2,62,64,1
2,59,64,0
2,59,0,59
2,62,0,0
2,55,64,1
2,55,0,59
2,59,64,1
2,62,64,0
2,62,0,59
2,59,0,0
2,55,64,1
2,55,0,59
2,62,64,1
2,65,64,0
2,65,0,59
2,62,0,0
2,57,64,1
2,57,0,59
2,62,64,1
2,65,64,0
2,65,0,59
2,62,0,0
2,57,64,1
2,57,0,59
2,60,64,1
2,64,64,0
2,64,0,59
2,60,0,0
2,57,64,1
2,57,0,59
2,64,64,1
2,60,64,0
2,60,0,59
2,64,0,0
2,57,64,1
2,57,0,59
2,60,64,1
2,65,64,0
2,62,64,0
2,62,0,59
2,65,0,0
2,60,0,0
2,58,64,1
2,58,0,59
2,60,64,1
2,62,64,0
2,65,64,0
2,65,0,59
2,62,0,0
2,60,0,0
2,58,64,1
2,58,0,59
2,60,64,1
2,65,64,0
2,65,0,59
2,60,0,0
2,57,64,1
2,57,0,59
2,60,64,1
2,65,64,0
2,65,0,59
2,60,0,0
2,57,64,1
2,57,0,59
2,60,64,1
2,62,64,0
2,65,64,0
2,65,0,59
2,62,0,0
2,60,0,0
2,55,64,1
2,55,0,59
2,60,64,1
2,62,64,0
2,65,64,0
2,65,0,59
2,62,0,0
2,60,0,0
2,55,64,1
2,55,0,59
2,59,64,1
2,62,64,0
2,67,64,0
2,67,0,59
2,62,0,0
2,59,0,0
2,55,64,1
2,55,0,59
2,59,64,1
2,62,64,0
2,67,64,0
2,67,0,59
2,62,0,0
2,59,0,0
2,55,64,1
2,55,0,59
2,60,64,1
2,57,64,0
2,53,64,0
2,53,0,119
2,57,0,0
2,60,0,0
2,55,64,1
2,59,64,0
2,62,64,0
2,62,0,119
2,59,0,0
2,55,0,0
2,64,64,1
2,60,64,0
2,57,64,0
2,57,0,119
2,60,0,0
2,64,0,0
2,64,64,1
2,60,64,0
2,57,64,0
2,57,0,59
2,60,0,0
2,64,0,0
2,64,64,1
2,64,0,29
2,65,64,1
2,65,0,29
2,48,64,1
2,52,64,0
2,55,64,0
2,55,0,119
2,52,0,0
2,48,0,0
2,55,64,1
2,52,64,0
2,48,64,0
2,48,0,119
2,52,0,0
2,55,0,0
2,60,64,1
2,57,64,0
2,53,64,0
2,53,0,119
2,57,0,0
2,60,0,0
