track,note,velocity,time
1,44,115,1536
1,44,77,4
1,44,98,4
1,44,83,4
1,44,86,4
1,44,83,4
1,44,88,4
1,75,127,9
1,44,75,4
1,44,97,4
1,44,84,4
1,44,92,4
1,44,83,4
1,44,87,4
1,44,93,4
1,44,84,4
1,75,126,0
1,44,83,4
1,44,100,4
1,44,97,4
1,44,98,4
1,44,101,4
1,44,103,4
1,44,98,4
1,44,96,4
1,75,127,6
1,44,85,4
1,44,101,4
1,44,97,4
1,44,97,4
1,44,89,4
1,44,92,4
1,44,88,4
1,44,83,4
1,75,126,19
1,44,100,4
1,44,115,4
1,44,77,4
1,44,98,4
1,44,83,4
1,44,86,4
1,44,83,4
1,44,88,4
1,75,127,9
1,44,75,4
1,44,97,4
1,44,84,4
1,44,92,4
1,44,83,4
1,44,87,4
1,44,93,4
1,44,84,4
1,75,126,0
1,44,83,4
1,44,100,4
1,44,97,4
1,44,98,4
1,44,101,4
1,44,103,4
1,44,98,4
1,44,96,4
1,75,127,6
1,44,85,4
1,44,101,4
1,44,97,4
1,44,97,4
1,44,89,4
1,44,92,4
1,44,88,4
1,44,83,4
1,75,126,19
1,44,100,4
1,44,115,4
1,44,77,4
1,44,98,4
1,44,83,4
1,44,86,4
1,44,83,4
1,44,88,4
1,75,127,9
1,44,75,4
1,44,97,4
1,44,84,4
1,44,92,4
1,44,83,4
1,44,87,4
1,44,93,4
1,44,84,4
1,75,126,0
1,44,83,4
1,44,100,4
1,44,97,4
1,44,98,4
1,44,101,4
1,44,103,4
1,44,98,4
1,44,96,4
1,75,127,6
1,44,85,4
1,44,101,4
1,44,97,4
1,44,97,4
1,44,89,4
1,44,92,4
1,44,88,4
1,44,83,4
1,75,126,19
1,44,100,4
1,44,115,4
1,44,77,4
1,44,98,4
1,44,83,4
1,44,86,4
1,44,83,4
1,44,88,4
1,75,127,9
1,44,75,4
1,44,97,4
1,44,84,4
1,44,92,4
1,44,83,4
1,44,87,4
1,44,93,4
1,44,84,4
1,75,126,0
1,44,83,4
1,44,100,4
1,44,97,4
1,44,98,4
1,44,101,4
1,44,103,4
1,44,98,4
1,44,96,4
1,75,127,6
1,44,85,4
1,44,101,4
1,44,97,4
1,44,97,4
1,44,89,4
1,44,92,4
1,44,88,4
1,44,83,4
1,75,126,19
1,44,100,4
1,44,115,4
1,44,77,4
1,44,98,4
1,44,83,4
1,44,86,4
1,44,83,4
1,44,88,4
1,75,127,9
1,44,75,4
1,44,97,4
1,44,84,4
1,44,92,4
1,44,83,4
1,44,87,4
1,44,93,4
1,44,84,4
1,75,126,0
1,44,83,4
1,44,100,4
1,44,97,4
1,44,98,4
1,44,101,4
1,44,103,4
1,44,98,4
1,44,96,4
1,75,127,6
1,44,85,4
1,44,101,4
1,44,97,4
1,44,97,4
1,44,89,4
1,44,92,4
1,44,88,4
1,44,83,4
1,75,126,19
1,44,100,4
1,44,101,4
1,44,97,4
1,44,97,4
1,44,89,4
1,44,92,4
1,44,88,4
1,44,83,4
1,75,126,19
1,44,100,4
1,44,115,15364
1,44,77,4
1,44,98,4
1,44,83,4
1,44,86,4
1,44,83,4
1,44,88,4
1,75,127,9
1,44,75,4
1,44,97,4
1,44,84,4
1,44,92,4
1,44,83,4
1,44,87,4
1,44,93,4
1,44,84,4
1,75,126,0
1,44,83,4
1,44,100,4
1,44,97,4
1,44,98,4
1,44,101,4
1,44,103,4
1,44,98,4
1,44,96,4
1,75,127,6
1,44,85,4
1,44,101,4
1,44,97,4
1,44,97,4
1,44,89,4
1,44,92,4
1,44,88,4
1,44,83,4
1,75,126,19
1,44,100,4
2,60,96,12684
2,60,92,204
2,60,99,35
2,62,85,144
2,60,96,11673
2,60,92,204
2,60,99,35
2,62,85,144
2,60,96,5529
2,60,92,204
2,60,99,35
2,62,85,144
2,41,116,9139
2,66,120,6
2,43,120,0
3,35,109,33792
3,38,59,208
3,38,124,16
3,38,99,16
3,35,99,16
3,38,49,16
3,38,109,16
3,45,99,16
3,38,59,112
3,38,109,16
3,38,69,16
3,41,109,16
3,35,109,112
3,42,99,0
3,42,79,112
3,42,89,112
3,37,109,0
3,35,89,112
3,42,79,0
3,35,109,112
3,42,99,0
3,42,79,112
3,42,89,112
3,37,109,0
3,35,89,112
3,42,79,0
3,35,109,112
3,42,99,0
3,42,79,112
3,42,89,112
3,37,109,0
3,35,89,112
3,42,79,0
3,42,69,16
3,35,109,16
3,42,99,0
3,42,79,112
3,42,89,112
3,37,109,0
3,35,89,112
3,42,79,0
3,35,109,112
3,42,99,0
3,42,79,112
3,42,89,112
3,37,109,0
3,35,89,112
3,42,79,0
3,35,109,112
3,42,99,0
3,42,79,112
3,42,89,112
3,37,109,0
3,35,89,112
3,42,79,0
3,35,109,112
3,42,99,0
3,42,79,112
3,42,89,112
3,37,109,0
3,35,89,112
3,42,79,0
3,35,109,112
3,42,99,0
3,42,79,112
3,42,89,112
3,37,109,0
3,35,89,112
3,42,79,0
3,35,109,112
3,42,99,0
3,42,79,112
3,42,89,112
3,37,109,0
3,35,89,112
3,42,79,0
3,35,109,112
3,42,99,0
3,42,79,112
3,42,89,112
3,37,109,0
3,35,89,112
3,42,79,0
3,35,109,112
3,42,99,0
3,42,79,112
3,42,89,112
3,37,109,0
3,35,89,112
3,42,79,0
3,42,69,16
3,35,109,16
3,42,99,0
3,42,79,112
3,42,89,112
3,37,109,0
3,35,89,112
3,42,79,0
3,35,109,112
3,42,99,0
3,35,109,1456
3,42,99,0
3,42,79,112
3,42,89,112
3,37,109,0
3,35,89,112
3,42,79,0
3,35,109,112
3,42,99,0
3,42,79,112
3,42,89,112
3,37,109,0
3,35,89,112
3,42,79,0
3,35,109,112
3,42,99,0
3,42,79,112
3,42,89,112
3,37,109,0
3,35,89,112
3,42,79,0
3,35,109,112
3,42,99,0
3,42,79,112
3,42,89,112
3,37,109,0
3,35,89,112
3,42,79,0
3,50,127,5862
3,43,127,144
3,43,127,38
3,43,127,71
3,35,109,13568
3,38,59,208
3,38,124,16
3,38,99,16
3,35,99,16
3,38,49,16
3,38,109,16
3,45,99,16
3,38,59,112
3,38,109,16
3,38,69,16
3,41,109,16
3,50,127,8934
3,43,127,144
3,43,127,38
3,43,127,71
4,35,127,55296
4,42,127,0
4,42,108,112
4,37,127,112
4,42,118,0
4,35,118,112
4,42,108,0
4,35,127,112
4,42,127,0
4,42,108,112
4,40,127,112
4,42,118,0
4,37,127,0
4,42,108,112
4,35,127,112
4,42,127,0
4,42,108,112
4,42,118,112
4,37,127,0
4,35,118,112
4,42,108,0
4,42,98,16
4,35,127,16
4,42,127,0
4,42,108,112
4,40,127,112
4,42,118,0
4,37,127,0
4,42,108,112
4,35,127,112
4,42,127,0
4,42,108,112
4,42,118,112
4,37,127,0
4,35,118,112
4,42,108,0
4,35,127,112
4,42,127,0
4,42,108,112
4,40,127,112
4,42,118,0
4,37,127,0
4,42,108,112
4,35,127,112
4,42,127,0
4,42,108,112
4,42,118,112
4,37,127,0
4,35,118,112
4,42,108,0
4,35,127,112
4,42,127,0
4,42,108,112
4,40,127,112
4,42,118,0
4,37,127,0
4,42,108,112
4,35,127,112
4,42,127,0
4,42,108,112
4,37,127,112
4,42,118,0
4,35,118,112
4,42,108,0
4,35,127,112
4,42,127,0
4,42,108,112
4,40,127,112
4,42,118,0
4,37,127,0
4,42,108,112
4,35,127,112
4,42,127,0
4,42,108,112
4,42,118,112
4,37,127,0
4,35,118,112
4,42,108,0
4,42,98,16
4,35,127,16
4,42,127,0
4,42,108,112
4,40,127,112
4,42,118,0
4,37,127,0
4,42,108,112
4,35,127,112
4,42,127,0
4,42,108,112
4,42,118,112
4,37,127,0
4,35,118,112
4,42,108,0
4,35,127,112
4,42,127,0
4,42,108,112
4,40,127,112
4,42,118,0
4,37,127,0
4,42,108,112
4,35,127,112
4,42,127,0
4,42,108,112
4,42,118,112
4,37,127,0
4,35,118,112
4,42,108,0
4,35,127,112
4,42,127,0
4,42,108,112
4,40,127,112
4,42,118,0
4,37,127,0
4,42,108,112
4,35,127,112
4,42,127,0
4,42,108,112
4,42,118,112
4,37,127,0
4,35,118,112
4,42,108,0
4,35,127,112
4,42,127,0
4,42,108,112
4,40,127,112
4,42,118,0
4,37,127,0
4,42,108,112
4,35,127,1648
4,42,127,0
4,42,108,112
4,42,118,112
4,37,127,0
4,35,118,112
4,42,108,0
4,42,98,16
4,35,127,16
4,42,127,0
4,42,108,112
4,40,127,112
4,42,118,0
4,37,127,0
4,42,108,112
4,35,127,112
4,42,127,0
4,42,108,112
4,42,118,112
4,37,127,0
4,35,118,112
4,42,108,0
4,35,127,112
4,42,127,0
4,42,108,112
4,40,127,112
4,42,118,0
4,37,127,0
4,42,108,112
4,35,127,112
4,42,127,0
4,42,108,112
4,42,118,112
4,37,127,0
4,35,118,112
4,42,108,0
4,35,127,112
4,42,127,0
4,42,108,112
4,40,127,112
4,42,118,0
4,37,127,0
4,42,108,112
4,35,127,112
4,42,127,0
4,42,108,112
4,42,118,112
4,37,127,0
4,35,118,112
4,42,108,0
4,35,127,112
4,42,127,0
4,42,108,112
4,40,127,112
4,42,118,0
4,37,127,0
4,42,108,112
4,35,127,112
4,42,127,0
4,42,108,112
4,42,118,112
4,37,127,0
4,35,118,112
4,42,108,0
4,42,98,16
4,35,127,16
4,42,127,0
4,42,108,112
4,40,127,112
4,42,118,0
4,37,127,0
4,42,108,112
4,35,127,112
4,42,127,0
4,42,108,112
4,42,118,112
4,37,127,0
4,35,118,112
4,42,108,0
4,42,98,16
4,35,127,16
4,42,127,0
4,42,108,112
4,40,127,112
4,42,118,0
4,37,127,0
4,42,108,112
4,35,127,112
4,42,127,0
4,42,108,112
4,42,118,112
4,37,127,0
4,35,118,112
4,42,108,0
4,35,127,112
4,42,127,0
4,42,108,112
4,40,127,112
4,42,118,0
4,37,127,0
4,42,108,112
4,35,127,112
4,42,127,0
4,42,108,112
4,42,118,112
4,37,127,0
4,35,118,112
4,42,108,0
4,35,127,112
4,42,127,0
4,42,108,112
4,40,127,112
4,42,118,0
4,37,127,0
4,42,108,112
4,35,127,112
4,42,127,0
4,42,108,112
4,42,118,112
4,37,127,0
4,35,118,112
4,42,108,0
4,42,98,16
4,35,127,16
4,42,127,0
4,42,108,112
4,40,127,112
4,42,118,0
4,37,127,0
4,42,108,112
4,35,127,112
4,42,127,0
4,42,108,112
4,42,118,112
4,37,127,0
4,35,118,112
4,42,108,0
4,35,127,112
4,42,127,0
4,42,108,112
4,40,127,112
4,42,118,0
4,37,127,0
4,42,108,112
4,35,127,112
4,42,127,0
4,42,108,112
4,42,118,112
4,37,127,0
4,35,118,112
4,42,108,0
4,35,127,112
4,42,127,0
4,42,108,112
4,40,127,112
4,42,118,0
4,37,127,0
4,42,108,112
4,35,127,112
4,42,127,0
4,42,108,112
4,42,118,112
4,37,127,0
4,35,118,112
4,42,108,0
4,35,127,112
4,42,127,0
4,42,108,112
4,40,127,112
4,42,118,0
4,37,127,0
4,42,108,112
5,34,111,1536
5,43,104,80
5,43,106,42
5,39,111,0
5,41,111,64
5,41,99,32
5,34,119,45
5,34,93,45
5,43,104,109
5,43,106,42
5,39,106,0
5,39,101,1152
5,39,109,23
5,39,106,144
5,34,106,0
5,34,101,1152
5,34,109,23
5,43,111,138
5,43,99,32
5,36,106,45
5,36,101,1152
5,36,109,23
5,41,111,135
5,43,111,61
5,40,106,61
5,40,101,1152
5,40,109,23
5,36,111,135
5,36,119,61
5,36,93,45
5,43,106,99
5,40,119,0
5,40,93,45
5,36,106,90
5,36,101,1152
5,36,109,23
5,36,104,154
5,36,106,42
5,40,111,3
5,40,99,32
5,40,94,48
5,40,116,35
5,45,105,0
5,45,104,115
5,40,106,0
5,40,101,1152
5,40,109,23
5,45,105,135
5,45,105,96
5,40,108,96
5,28,105,1344
5,44,104,74
5,44,104,19
5,37,105,0
5,36,109,99
5,36,102,93
5,35,106,1545
5,35,119,0
5,35,93,45
5,40,111,90
5,37,111,61
5,45,104,80
5,45,106,42
5,42,105,0
5,42,105,96
5,35,111,99
5,35,99,32
5,44,106,45
5,44,101,1152
5,44,109,23
5,40,111,135
5,40,111,64
5,40,99,32
5,35,111,48
5,35,99,32
5,44,106,45
5,44,101,1152
5,44,109,23
5,40,111,138
5,40,99,32
5,40,106,45
5,40,101,1152
5,40,109,23
5,41,113,135
5,41,95,84
5,41,97,64
5,38,103,1152
5,36,118,32
5,34,104,141
5,34,109,3
5,34,102,93
5,41,108,0
5,29,105,1344
5,34,105,55
5,34,109,99
5,34,102,93
5,41,106,9
5,45,104,19
5,45,105,0
5,38,111,99
5,38,99,32
5,37,111,45
5,36,104,80
5,36,106,42
5,43,109,3
5,43,102,93
5,45,105,0
5,38,105,96
5,38,104,115
5,43,108,0
5,31,105,1344
5,33,111,55
5,36,113,61
5,41,106,1821
5,34,119,0
5,34,93,45
5,41,119,90
5,41,93,45
5,41,120,106
5,39,54,518
5,38,100,29
5,37,105,26
5,35,109,22
5,33,106,23
5,31,103,23
5,29,98,29
6,57,90,1536
6,62,78,0
6,53,76,0
6,58,64,0
6,53,101,208
6,58,90,0
6,65,78,0
6,57,76,0
6,62,64,0
6,57,101,208
6,55,89,0
6,65,68,0
6,62,75,0
6,58,56,0
6,58,79,100
6,55,76,0
6,60,74,0
6,58,84,0
6,63,81,0
6,55,74,135
6,58,87,61
6,53,76,32
6,62,74,0
6,58,84,0
6,65,81,0
6,53,74,4
6,58,87,68
6,62,76,192
6,58,89,0
6,67,68,0
6,65,75,0
6,62,56,0
6,62,79,100
6,55,90,0
6,62,78,0
6,51,76,0
6,58,64,0
6,51,101,208
6,51,76,32
6,58,74,0
6,54,84,0
6,60,81,0
6,51,74,4
6,54,87,68
6,58,90,32
6,65,78,0
6,53,76,0
6,62,64,0
6,53,101,215
6,58,90,0
6,65,78,0
6,55,76,0
6,62,64,0
6,55,101,208
6,58,90,0
6,63,78,0
6,55,76,0
6,60,64,0
6,55,101,208
6,58,90,0
6,63,78,0
6,55,76,0
6,60,64,0
6,55,101,208
6,59,89,0
6,71,68,0
6,67,75,0
6,62,56,0
6,62,79,100
6,55,89,0
6,64,68,0
6,62,75,0
6,59,56,0
6,59,79,100
6,59,90,0
6,64,78,0
6,55,76,0
6,60,64,0
6,55,101,208
6,55,89,32
6,67,68,0
6,63,75,0
6,60,56,0
6,60,79,106
6,62,90,0
6,71,78,0
6,59,76,0
6,67,64,0
6,59,101,208
6,55,89,0
6,64,68,0
6,62,75,0
6,59,56,0
6,59,79,100
6,59,89,0
6,67,68,0
6,64,75,0
6,60,56,0
6,60,79,100
6,55,89,0
6,67,68,0
6,63,75,0
6,60,56,0
6,60,79,100
6,64,88,32
6,59,88,0
6,56,88,0
6,64,83,32
6,61,98,0
6,56,77,0
6,57,75,576
6,64,83,0
6,60,98,0
6,54,77,0
6,57,75,384
6,56,89,0
6,68,68,0
6,64,75,0
6,59,56,0
6,59,79,100
6,64,91,32
6,57,64,0
6,56,83,0
6,61,59,0
6,56,89,84
6,61,76,192
6,54,92,0
6,60,88,0
6,56,76,0
6,64,74,0
6,59,84,0
6,68,81,0
6,56,74,135
6,59,87,61
6,64,76,192
6,61,92,0
6,68,88,0
6,72,83,0
6,68,98,0
6,60,77,0
6,63,75,384
6,68,83,0
6,64,98,0
6,56,77,0
6,61,75,384
6,67,83,0
6,64,98,0
6,55,77,0
6,60,75,384
6,56,89,1536
6,68,68,0
6,64,75,0
6,59,56,0
6,59,79,100
6,57,90,0
6,64,78,0
6,54,76,0
6,61,64,0
6,54,101,208
6,59,90,0
6,68,78,0
6,56,76,0
6,64,64,0
6,56,101,208
6,59,90,0
6,64,78,0
6,56,76,0
6,61,64,0
6,56,101,208
6,52,76,0
6,57,74,0
6,56,84,0
6,61,81,0
6,52,74,135
6,56,87,61
6,57,76,192
6,68,83,0
6,64,98,0
6,56,77,0
6,59,75,384
6,70,91,0
6,61,64,0
6,58,83,0
6,66,59,0
6,58,89,77
6,66,76,192
