track,note,velocity,time
0,62,12,1480
0,64,12,0
0,57,12,0
0,64,31,0
0,62,30,0
0,57,24,3
0,69,33,2
0,57,14,13
0,62,31,128
0,64,33,0
0,57,18,13
0,62,31,112
0,64,33,0
0,57,19,0
0,57,14,105
0,61,40,128
0,64,32,5
0,61,30,0
0,57,6,0
0,57,27,3
0,59,24,143
0,59,28,5
0,64,28,0
0,57,18,0
0,57,36,80
0,52,64,0
0,59,27,150
0,64,28,0
0,57,61,0
0,57,25,8
0,59,63,0
0,83,36,105
0,61,41,25
0,61,36,2
0,64,34,0
0,57,21,0
0,85,42,10
0,57,21,65
0,83,37,97
0,61,27,33
0,64,41,0
0,81,38,210
0,57,13,0
0,54,25,37
0,62,44,0
0,62,50,13
0,64,37,0
0,57,50,0
0,57,19,3
0,50,71,0
0,62,50,158
0,64,32,0
0,57,67,0
0,57,19,0
0,59,60,0
0,86,47,0
0,55,10,6
0,55,6,30
0,55,7,0
0,55,8,30
0,55,6,31
0,55,8,30
0,55,8,0
0,55,10,30
0,69,82,28
0,81,91,0
0,55,14,3
0,55,12,30
0,55,12,0
0,55,14,30
0,55,17,8
0,55,21,30
0,55,23,0
0,52,29,0
0,59,36,3
0,55,25,2
0,68,28,20
0,88,37,0
0,40,85,0
0,68,87,0
0,80,87,0
0,55,27,0
0,55,31,0
0,55,34,0
0,55,36,4
0,55,36,0
0,55,44,0
0,55,46,0
0,55,51,7
0,81,76,28
0,69,79,0
0,55,53,3
0,55,55,0
0,55,57,0
0,55,61,30
0,76,91,28
0,64,87,0
0,55,66,3
0,55,68,30
0,55,72,0
0,55,95,30
0,64,67,5
0,61,59,0
0,57,59,0
0,64,64,2
0,73,62,0
0,69,66,0
0,33,93,0
0,61,79,0
0,57,67,0
0,35,115,3
0,49,84,0
0,73,98,5
0,62,5,2
0,57,42,18
0,52,84,0
0,42,59,3
0,61,73,69
0,61,91,3
0,57,79,0
0,57,87,0
0,37,88,3
0,42,71,0
0,33,91,112
0,57,53,0
0,59,73,0
0,35,111,3
0,42,53,0
0,62,52,47
0,33,91,3
0,62,87,0
0,57,95,0
0,35,119,3
0,42,56,0
0,57,62,60
0,42,47,3
0,73,102,0
0,64,64,2
0,64,95,3
0,57,82,0
0,37,100,3
0,42,76,0
0,54,87,0
0,33,64,52
0,71,85,5
0,35,87,15
0,57,62,0
0,69,75,3
0,42,42,0
0,71,92,2
0,71,57,4
0,68,73,0
0,28,82,2
0,64,82,0
0,56,87,0
0,56,49,0
0,35,119,0
0,42,61,0
0,59,40,2
0,28,83,0
0,56,27,0
0,52,95,0
0,42,33,3
0,56,64,79
0,28,85,3
0,64,87,0
0,56,87,0
0,56,82,0
0,37,96,3
0,42,69,0
0,28,95,43
0,56,55,0
0,59,79,0
0,35,115,3
0,42,42,0
0,57,61,4
0,28,99,3
0,64,87,0
0,57,91,0
0,35,123,3
0,42,61,0
0,57,36,35
0,42,42,3
0,71,98,7
0,59,64,2
0,64,84,3
0,59,87,0
0,37,104,0
0,42,60,0
0,54,99,0
0,42,51,78
0,73,88,39
0,28,71,5
0,46,53,3
0,71,94,0
0,61,63,0
0,66,59,2
0,57,60,0
0,66,62,2
0,73,47,0
0,69,55,0
0,30,84,3
0,61,87,0
0,57,79,0
0,35,123,3
0,42,68,0
0,69,73,3
0,57,46,5
0,54,84,0
0,42,45,3
0,66,75,20
0,57,68,120
0,61,87,3
0,57,84,0
0,57,69,0
0,37,112,3
0,42,64,0
0,30,79,102
0,57,57,0
0,59,87,0
0,35,111,3
0,42,53,0
0,62,64,150
0,30,91,3
0,62,99,0
0,57,87,0
0,35,123,3
0,42,61,0
0,64,76,54
0,57,55,3
0,42,52,3
0,59,70,0
0,61,52,3
0,66,79,2
0,64,79,92
0,64,63,0
0,57,87,3
0,64,103,0
0,59,65,0
0,37,100,0
0,42,66,0
0,54,91,0
0,66,80,7
0,45,79,10
0,35,119,3
0,42,55,0
0,61,69,2
0,47,66,3
0,64,8,0
0,56,70,7
0,73,94,0
0,64,45,2
0,61,68,0
0,68,52,0
0,54,57,0
0,49,79,0
0,37,84,0
0,61,73,0
0,64,82,0
0,56,76,0
0,35,119,0
0,42,58,0
0,71,83,28
0,57,58,7
0,54,71,3
0,42,45,3
0,69,75,2
0,59,55,0
0,57,71,3
0,37,108,3
0,42,55,0
0,42,38,63
0,73,79,2
0,54,31,2
0,64,41,2
0,66,50,2
0,69,61,0
0,64,57,0
0,50,66,0
0,38,76,0
0,64,78,0
0,57,79,0
0,62,86,0
0,57,63,0
0,52,79,0
0,62,55,0
0,35,107,0
0,37,79,0
0,46,45,0
0,62,52,2
0,62,82,727
0,59,33,31
0,69,73,7
0,64,74,3
0,57,36,0
0,62,63,20
0,40,70,0
0,52,55,2
0,57,83,10
0,52,73,2
0,61,109,0
0,57,40,0
0,28,91,3
0,35,107,3
0,64,40,2
0,62,38,5
0,52,56,8
0,59,87,415
0,62,98,125
0,61,81,33
0,42,56,18
0,42,57,97
0,57,78,7
0,46,55,16
0,59,87,20
0,69,38,2
0,73,50,0
0,33,79,3
0,61,82,0
0,57,84,0
0,52,76,0
0,52,67,0
0,57,71,3
0,35,107,0
0,42,64,0
0,61,67,2
0,57,70,87
0,52,35,40
0,42,58,3
0,57,73,130
0,61,73,0
0,37,100,3
0,42,87,0
0,33,87,13
0,52,64,0
0,35,107,0
0,42,64,0
0,62,69,95
0,74,58,40
0,33,91,3
0,57,87,0
0,62,82,0
0,35,115,0
0,42,68,0
0,52,64,60
0,42,33,0
0,57,25,25
0,64,71,55
0,76,53,17
0,57,82,3
0,64,87,0
0,37,104,3
0,42,95,0
0,54,103,0
0,52,53,8
0,42,64,3
0,59,58,69
0,56,67,10
0,71,43,2
0,68,33,0
0,28,79,3
0,59,84,0
0,56,79,0
0,52,73,0
0,35,111,3
0,42,69,0
0,52,35,43
0,42,40,3
0,56,75,3
0,56,62,70
0,59,68,0
0,37,104,3
0,42,87,0
0,56,71,7
0,56,77,2
0,28,91,3
0,52,45,0
0,35,107,3
0,42,56,0
0,57,77,13
0,57,76,5
0,69,55,12
0,28,87,3
0,57,95,0
0,52,91,0
0,35,107,3
0,42,64,0
0,52,56,40
0,42,26,3
0,59,64,164
0,59,80,7
0,71,46,0
0,59,87,3
0,52,71,0
0,37,96,0
0,42,91,0
0,54,95,0
0,42,51,80
0,69,45,10
0,73,37,0
0,30,91,3
0,61,87,0
0,57,71,0
0,54,67,0
0,54,61,3
0,35,119,0
0,42,71,0
0,57,70,5
0,61,59,0
0,54,29,67
0,61,75,0
0,42,42,0
0,57,69,43
0,61,69,0
0,37,104,3
0,42,87,0
0,61,74,2
0,61,51,0
0,30,95,5
0,54,55,0
0,35,107,3
0,42,53,0
0,62,81,53
0,62,65,45
0,74,53,55
0,30,87,3
0,57,99,0
0,62,84,0
0,54,82,0
0,35,103,3
0,42,68,0
0,54,53,8
0,42,33,3
0,62,70,7
0,64,81,40
0,64,70,52
0,76,36,52
0,64,91,3
0,57,79,0
0,54,73,0
0,37,108,3
0,42,84,0
0,54,111,0
0,64,80,38
0,54,43,3
0,42,58,0
0,68,56,20
0,73,48,0
0,37,84,3
0,61,79,0
0,56,73,0
0,52,69,0
0,35,107,3
0,42,66,0
0,56,60,2
0,61,59,0
0,52,66,5
0,52,48,18
0,42,36,3
0,56,78,2
0,61,79,43
0,56,79,0
0,56,71,3
0,37,104,0
0,42,79,0
0,56,69,5
0,37,79,8
0,35,107,3
0,42,52,0
0,57,71,16
0,57,67,42
0,54,67,3
0,62,66,2
0,74,55,2
0,69,56,0
0,38,71,3
0,62,68,0
0,57,71,0
0,54,63,0
0,35,115,3
0,42,64,0
0,54,38,35
0,57,75,0
0,42,41,3
0,38,66,18
0,35,95,3
0,59,78,2
0,62,66,87
0,57,66,0
0,37,108,3
0,42,79,0
0,54,107,0
0,38,66,5
0,35,87,3
0,42,56,0
0,62,73,53
0,46,56,3
0,52,69,18
0,61,58,0
0,57,66,0
0,69,43,7
0,73,50,0
0,33,95,3
0,57,68,0
0,61,76,0
0,52,67,0
0,35,107,3
0,42,64,0
0,52,45,60
0,61,87,3
0,42,58,0
0,57,76,40
0,61,82,0
0,37,100,3
0,42,87,0
0,61,78,5
0,61,74,10
0,33,87,5
0,52,43,0
0,35,107,3
0,42,64,0
0,62,83,43
0,74,55,112
0,33,99,3
0,61,82,0
0,57,68,0
0,35,115,3
0,42,68,0
0,52,55,15
0,42,33,3
0,76,42,69
0,64,82,3
0,57,76,0
0,37,104,0
0,42,95,0
0,54,103,0
0,61,90,5
0,62,74,57
0,52,55,8
0,42,64,3
0,64,71,30
0,59,61,52
0,56,59,3
0,68,40,0
0,71,46,0
0,28,95,3
0,59,84,0
0,56,82,0
0,52,79,0
0,35,111,3
0,42,69,0
0,61,82,20
0,52,43,0
0,42,40,3
0,59,76,8
0,59,67,150
0,56,68,0
0,37,104,3
0,42,87,0
0,28,91,23
0,52,20,0
0,35,107,3
0,42,56,0
0,83,56,117
0,56,60,20
0,28,91,3
0,59,66,0
0,56,63,0
0,35,107,3
0,42,64,0
0,85,67,22
0,57,45,55
0,59,41,35
0,52,22,3
0,42,26,3
0,83,62,50
0,64,62,104
0,59,82,3
0,56,68,0
0,37,96,3
0,42,91,0
0,54,95,0
0,64,71,90
0,81,55,50
0,52,62,13
0,59,72,0
0,71,68,3
0,42,51,0
0,83,56,0
0,56,66,62
0,64,67,3
0,81,58,20
0,57,66,2
0,61,61,0
0,69,45,0
0,33,95,3
0,61,69,0
0,57,69,0
0,52,69,0
0,71,74,3
0,35,119,0
0,42,71,0
0,73,50,27
0,52,47,2
0,45,64,0
0,42,42,3
0,61,81,3
0,61,62,2
0,57,63,0
0,52,53,0
0,52,67,0
0,37,104,3
0,42,87,0
0,61,72,3
0,61,72,12
0,33,87,5
0,52,45,0
0,57,68,0
0,35,107,3
0,42,53,0
0,62,76,15
0,33,84,105
0,62,67,0
0,57,63,0
0,52,62,0
0,59,68,0
0,35,103,3
0,42,68,0
0,52,46,30
0,64,68,0
0,42,33,3
0,64,76,148
0,57,69,0
0,52,64,0
0,64,83,3
0,37,108,0
0,42,84,0
0,54,111,0
0,42,58,8
0,56,45,3
0,61,58,2
0,65,58,3
0,65,52,12
0,68,57,0
0,37,87,3
0,65,66,0
0,61,62,0
0,56,61,0
0,49,68,0
0,35,107,3
0,42,66,0
0,53,34,35
0,56,34,3
0,53,67,0
0,42,36,3
0,56,78,7
0,54,35,55
0,65,68,3
0,61,63,0
0,56,61,0
0,54,52,0
0,37,104,3
0,42,79,0
0,56,82,12
0,56,49,10
0,25,82,0
0,56,47,0
0,56,58,0
0,56,78,3
0,35,107,0
0,42,52,0
0,57,81,30
0,66,60,52
0,69,71,12
0,59,53,0
0,25,82,3
0,66,66,0
0,61,71,0
0,56,63,0
0,59,62,0
0,35,115,3
0,42,64,0
0,66,62,7
0,56,55,33
0,61,44,0
0,42,41,3
0,35,95,56
0,68,59,5
0,59,93,2
0,71,64,10
0,61,68,0
0,32,99,3
0,68,68,0
0,61,69,0
0,56,63,0
0,56,58,0
0,37,108,3
0,42,79,0
0,54,107,0
0,68,64,2
0,56,64,13
0,53,64,0
0,35,87,3
0,42,56,0
0,46,56,88
0,57,63,5
0,61,65,0
0,66,58,2
0,69,58,2
0,73,62,0
0,30,87,0
0,66,64,0
0,61,71,0
0,57,68,0
0,45,52,0
0,35,119,3
0,42,71,0
0,49,41,12
0,57,55,3
0,49,71,0
0,42,42,3
0,61,82,5
0,61,66,41
0,54,40,57
0,66,79,3
0,61,87,0
0,54,55,0
0,37,104,3
0,42,87,0
0,61,81,2
0,57,42,15
0,30,95,3
0,57,37,0
0,57,70,0
0,35,107,3
0,42,53,0
0,61,83,5
0,78,66,5
0,59,52,0
0,30,95,3
0,66,67,0
0,61,66,0
0,59,72,0
0,35,103,3
0,42,68,0
0,66,87,2
0,57,33,25
0,42,33,3
0,73,62,20
0,57,48,0
0,66,76,3
0,61,79,0
0,57,78,0
0,37,108,3
0,42,84,0
0,54,111,0
0,61,69,17
0,57,52,82
0,57,53,38
0,42,58,3
0,61,52,17
0,61,60,5
0,65,60,0
0,59,65,2
0,57,69,0
0,68,62,10
0,66,49,0
0,65,60,0
0,61,53,0
0,37,87,3
0,61,71,0
0,65,71,0
0,59,76,0
0,57,69,0
0,61,55,0
0,56,55,0
0,35,107,3
0,42,66,0
0,59,45,2
0,57,45,0
0,49,48,0
0,42,36,3
0,56,75,5
0,56,67,41
0,56,45,5
0,65,66,3
0,61,64,0
0,57,63,0
0,59,64,0
0,56,78,0
0,47,48,0
0,37,104,3
0,42,79,0
0,59,41,45
0,25,91,3
0,49,47,0
0,56,78,3
0,35,107,0
0,42,52,0
0,56,55,5
0,65,49,10
0,69,66,0
0,61,36,0
0,25,87,3
0,61,60,0
0,65,63,0
0,59,57,0
0,56,56,0
0,61,82,0
0,61,46,0
0,56,47,0
0,35,115,3
0,42,64,0
0,59,37,72
0,56,46,3
0,49,55,0
0,42,41,0
0,35,95,26
0,71,64,7
0,56,43,0
0,65,60,3
0,61,55,0
0,59,58,0
0,56,53,0
0,61,96,0
0,47,43,0
0,37,108,3
0,42,79,0
0,54,107,0
0,65,58,94
0,59,51,0
0,56,41,3
0,49,53,0
0,35,87,0
0,42,56,0
0,46,56,6
0,64,66,3
0,61,67,2
0,57,59,3
0,69,60,7
0,73,63,0
0,33,99,3
0,61,73,0
0,64,68,0
0,57,68,0
0,35,119,3
0,57,43,10
0,52,64,0
0,42,42,3
0,61,76,170
0,64,71,0
0,57,67,0
0,57,62,0
0,37,104,3
0,42,87,0
0,61,83,10
0,61,78,12
0,33,87,13
0,57,55,0
0,59,61,0
0,35,107,3
0,42,53,0
0,62,80,45
0,74,52,97
0,33,99,3
0,61,91,0
0,64,82,0
0,57,79,0
0,35,103,0
0,42,68,0
0,57,35,15
0,61,47,0
0,42,33,3
0,76,45,155
0,64,68,3
0,61,82,0
0,61,82,0
0,37,108,0
0,42,84,0
0,54,111,0
0,64,78,2
0,57,57,3
0,42,58,3
0,61,96,75
0,59,49,10
0,56,59,10
0,71,62,5
0,28,95,0
0,59,82,0
0,64,71,0
0,56,76,0
0,35,107,3
0,42,66,0
0,56,43,0
0,52,66,0
0,42,36,3
0,59,80,2
0,59,67,175
0,64,69,0
0,56,62,0
0,57,50,0
0,37,104,3
0,42,79,0
0,28,99,8
0,56,53,0
0,59,67,0
0,35,107,3
0,42,52,0
0,68,64,0
0,28,99,3
0,64,69,0
0,59,73,0
0,56,64,0
0,35,115,3
0,42,64,0
0,49,69,77
0,42,67,0
0,64,64,0
0,42,41,3
0,42,76,18
0,49,84,0
0,35,95,3
0,61,121,2
0,69,70,5
0,76,72,0
0,73,63,5
0,33,111,3
0,57,91,0
0,64,84,0
0,45,76,0
0,61,91,0
0,59,95,0
0,52,84,0
0,45,91,0
0,52,91,0
0,38,115,0
0,42,79,0
0,54,107,0
0,57,87,0
0,62,109,5
0,64,109,55
0,35,87,28
0,42,56,0
0,46,56,90
0,66,70,24
0,30,115,13
0,61,68,0
0,42,69,0
0,49,73,0
0,54,84,0
0,57,79,0
0,42,87,0
0,49,95,0
0,69,82,0
0,66,76,3
0,35,115,0
0,49,91,0
0,73,76,2
0,69,121,7
0,42,79,36
0,68,105,17
0,35,107,80
0,64,98,5
0,73,45,15
0,76,67,5
0,33,107,15
0,64,76,0
0,45,82,0
0,52,82,0
0,61,91,0
0,57,91,0
0,45,82,0
0,52,84,0
0,38,111,0
0,42,87,0
0,57,82,0
0,73,64,10
0,69,64,2
0,64,79,3
0,61,109,27
0,42,62,16
0,66,117,53
0,35,99,3
0,74,73,37
0,74,76,3
0,69,82,0
0,78,72,2
0,66,71,3
0,26,106,15
0,50,76,0
0,57,71,0
0,69,66,0
0,66,79,0
0,62,73,0
0,50,82,0
0,57,99,0
0,35,119,0
0,42,68,0
0,49,99,0
0,64,98,90
