track,note,velocity,time
1,67,116,30412
1,67,116,72
1,67,116,16
1,67,116,280
1,67,120,72
1,67,120,36
1,66,114,4
1,69,116,2
1,69,116,24
1,69,116,74
1,71,116,4
1,72,120,1226
1,71,109,52
1,67,116,2
1,71,120,4
1,71,127,60
1,66,120,10
1,75,109,900
1,78,120,4
1,78,114,30
1,78,120,36
1,78,120,40
1,75,112,2
1,75,116,66
1,71,116,2
1,69,109,264
1,72,116,4
1,72,116,18
1,72,114,28
1,72,120,40
1,69,109,4
1,69,114,68
1,66,104,6
1,66,107,2
1,69,116,4
1,72,114,4
1,71,123,4
1,66,109,242
1,69,123,2
1,66,109,2
1,67,116,4
1,64,107,14
1,62,100,4
1,64,116,2
1,67,120,1228
1,67,123,50
1,67,120,30
1,67,116,178
1,67,123,64
1,67,116,26
1,66,109,4
1,69,123,4
1,69,120,22
1,69,123,58
1,71,114,2
1,72,112,1214
1,71,104,2
1,67,120,6
1,71,109,22
1,71,123,30
1,66,116,8
1,75,114,922
1,78,120,2
1,78,116,32
1,78,123,62
1,75,116,4
1,75,116,72
1,71,112,4
1,69,109,280
1,72,123,4
1,72,116,26
1,72,120,64
1,69,114,4
1,69,116,50
1,66,112,6
1,72,123,250
1,69,109,14
1,71,123,4
1,72,120,74
1,69,112,2
1,71,123,4
1,72,123,68
1,69,116,4
1,71,120,4
1,71,127,116
1,72,123,62
1,69,107,2
1,71,123,2
1,72,123,52
1,69,107,2
1,71,123,2
1,76,120,2674
1,76,120,66
1,79,117,2
1,76,113,4
1,76,117,1872
1,76,113,52
1,79,113,2
1,76,120,4
1,76,117,1700
1,76,117,24
1,79,117,4
1,76,109,4
1,76,120,1606
1,76,117,26
1,79,113,4
1,76,109,4
1,76,120,92
1,76,113,30
1,79,113,4
1,76,117,4
1,78,120,340
1,76,117,2
1,71,120,4
1,78,120,334
1,76,113,8
1,76,117,772
1,74,113,4
1,69,113,4
1,69,113,362
1,73,117,4
1,76,113,2
1,74,117,4
1,74,117,1062
1,71,117,8
1,74,120,228
1,73,113,2
1,74,117,4
1,76,120,2
1,74,117,4
1,74,113,892
1,71,117,4
1,71,117,4
1,74,111,142
1,73,117,4
1,74,113,4
1,76,117,4
1,74,117,4
1,76,124,738
1,76,117,26
1,79,117,2
1,76,120,4
1,67,113,172
1,67,117,36
1,69,120,4
1,66,117,2
1,66,104,532
1,69,113,2
1,72,111,2
1,71,113,4
1,72,113,2
1,71,117,108
1,72,111,90
1,71,111,66
1,72,120,84
1,71,111,72
1,74,120,6
1,72,113,2
1,71,120,6
1,76,117,800
1,76,117,40
1,79,117,2
1,76,120,2
1,67,113,182
1,67,111,28
1,69,113,4
1,66,117,4
1,66,104,634
1,69,113,4
1,72,113,2
1,71,113,4
1,72,120,4
1,71,120,92
1,72,117,110
1,71,120,98
1,72,124,88
1,71,111,86
1,74,120,8
1,72,120,24
1,71,124,42
1,79,98,6014
1,79,98,242
1,79,98,226
1,79,98,232
1,79,98,220
1,79,98,114
1,79,98,1650
1,79,98,228
1,79,98,226
1,79,98,222
1,79,98,220
1,79,98,120
1,78,113,1466
1,79,119,2
1,79,98,188
1,79,98,222
1,79,98,226
1,79,98,214
1,78,113,112
1,79,119,2
1,79,98,178
1,79,98,210
1,79,98,214
1,79,98,208
1,78,113,108
1,79,119,4
1,79,98,168
1,79,98,214
1,79,98,222
1,79,98,220
1,78,113,106
1,79,119,2
1,79,98,172
1,79,98,204
1,79,98,210
1,79,98,216
1,78,122,126
1,79,122,2
1,77,122,348
1,79,119,8
1,79,122,284
1,79,108,54
1,79,116,16
1,79,116,8
1,77,108,4
1,75,106,2
1,74,113,4
1,75,116,8
1,77,122,46
1,74,119,102
1,75,116,40
1,77,119,28
1,74,119,78
1,75,113,46
1,77,116,52
1,77,119,192
1,77,99,48
1,77,119,36
1,77,110,4
1,75,108,2
1,74,106,4
1,75,113,4
1,75,116,6
1,75,119,56
1,72,116,68
1,74,116,60
1,75,119,28
1,72,116,104
1,74,116,58
1,75,119,48
1,75,116,162
1,75,90,66
1,75,119,40
1,75,113,4
1,74,108,4
1,72,106,4
1,74,113,2
1,74,116,4
1,74,116,44
1,77,113,17958
1,77,119,4
1,74,113,2
1,77,122,4
1,77,113,1790
1,76,119,32
1,77,116,2
1,76,106,4
1,74,113,4
1,76,108,4
1,74,113,4
1,72,110,2
1,72,101,52
1,76,119,4
1,72,106,4
1,76,122,4
1,76,116,1020
1,74,110,82
1,76,116,4
1,74,108,4
1,72,116,2
1,74,110,4
1,72,116,4
1,70,110,2
1,74,108,736
1,72,119,4
1,74,113,8
1,72,119,4
1,77,108,60
1,76,122,2
1,77,110,4
1,76,119,2
1,77,106,432
1,77,113,34
1,74,106,2
1,77,119,4
1,77,119,1708
1,76,119,64
1,77,113,4
1,76,101,4
1,74,113,4
1,76,113,4
1,76,108,40
1,72,113,4
1,72,108,28
1,76,119,4
1,72,110,4
1,76,119,2
1,76,119,1102
1,74,116,86
1,76,119,2
1,74,110,4
1,72,113,4
1,74,108,2
1,74,119,32
1,70,116,2
1,74,113,266
1,72,116,4
1,74,110,16
1,72,119,4
1,77,116,58
1,76,119,2
1,77,113,4
1,76,122,4
1,69,117,820
1,69,117,44
1,69,121,26
1,69,117,56
1,69,117,38
1,69,114,22
1,72,117,14
1,72,117,38
1,65,110,108
1,65,110,56
1,65,121,42
1,65,114,38
1,65,114,34
1,64,117,2
1,67,110,26
1,67,117,32
1,67,117,128
1,67,117,18
1,67,110,16
1,67,114,50
1,67,117,36
1,67,114,42
1,70,114,4
1,70,117,40
1,64,121,96
1,64,117,40
1,64,117,14
1,64,117,54
1,64,121,46
1,64,108,44
1,65,114,2
1,65,117,48
1,69,117,108
1,69,110,20
1,69,117,28
1,69,108,48
1,69,117,46
1,69,117,30
1,72,114,18
1,65,117,74
1,65,110,48
1,65,117,44
1,65,110,52
1,65,117,36
1,64,117,2
1,67,114,4
1,67,117,38
1,67,121,96
1,67,114,22
1,67,117,24
1,67,108,52
1,67,114,48
1,67,117,26
1,70,117,4
1,70,117,50
1,64,117,112
1,64,114,26
1,64,121,28
1,64,110,32
1,64,121,52
1,64,117,38
1,65,117,6
1,65,117,34
1,74,117,880
1,72,117,4
1,74,117,2
1,72,106,4
1,74,121,2
1,72,110,4
1,74,117,4
1,72,117,4
1,74,117,124
1,72,114,4
1,74,117,4
1,72,106,4
1,74,121,4
1,72,114,4
1,72,117,20
1,72,117,60
1,70,103,2
1,72,117,2
1,70,106,28
1,72,117,4
1,70,108,2
1,72,114,4
1,70,114,4
1,72,106,58
1,72,121,28
1,72,117,40
1,76,121,110
1,74,114,4
1,72,117,28
1,70,117,4
1,69,117,32
1,69,121,2
1,74,117,10
1,72,117,38
1,69,114,4
1,69,110,38
1,74,117,4
1,72,114,4
1,69,117,4
1,69,110,90
1,74,117,4
1,72,117,4
1,69,117,4
1,69,110,24
1,74,117,4
1,72,110,4
1,70,121,2
1,76,117,60
1,76,103,24
1,76,117,44
1,76,110,30
1,76,114,48
1,76,117,30
1,74,110,14
1,74,117,22
1,72,117,4
1,72,114,48
1,72,121,24
1,72,103,42
1,72,114,60
1,72,117,32
1,74,117,4
1,70,117,4
1,69,114,4
1,76,122,8632
1,76,117,92
1,79,122,4
1,76,117,4
1,67,119,162
1,67,113,114
1,69,122,4
1,66,119,2
1,66,107,450
1,69,113,2
1,72,110,6
1,71,116,4
1,72,113,4
1,71,116,100
1,72,116,98
1,71,122,76
1,72,119,82
1,71,113,88
1,74,119,18
1,72,116,4
1,71,119,2
1,76,119,882
1,76,119,98
1,79,116,4
1,76,116,2
1,67,116,144
1,67,113,74
1,69,119,4
1,66,106,20
1,66,101,442
1,69,113,2
1,72,113,4
1,71,113,4
1,72,113,4
1,71,119,108
1,72,116,90
1,71,122,78
1,72,119,80
1,71,119,82
1,74,119,32
1,72,119,4
1,71,122,2
1,76,119,762
1,76,122,90
1,79,119,4
1,76,122,4
1,67,113,146
1,67,116,110
1,69,119,4
1,66,119,4
1,66,104,450
1,69,113,4
1,72,116,2
1,71,110,2
1,72,108,4
1,71,113,102
1,72,106,112
1,71,119,66
1,72,113,88
1,71,110,82
1,74,119,32
1,72,113,4
1,71,122,4
1,76,122,882
1,76,122,98
1,79,119,2
1,76,122,4
1,67,116,200
1,67,116,116
1,69,119,12
1,66,119,4
1,66,108,502
1,69,113,4
1,72,113,4
1,71,122,4
1,72,116,2
1,71,119,130
1,72,113,72
1,71,119,112
1,72,116,108
1,71,122,104
1,71,115,124
1,79,121,4
1,75,118,4
1,76,123,4
2,40,104,29920
2,35,99,6
2,35,101,58
2,40,98,6
2,40,103,48
2,35,99,6
2,35,101,48
2,40,103,8
2,35,104,6
2,30,99,8
2,30,102,50
2,35,104,8
2,40,102,6
2,35,99,8
2,35,101,46
2,40,97,6
2,40,105,42
2,35,99,6
2,35,101,48
2,40,104,10
2,40,101,24
2,35,101,6
2,35,101,44
2,40,104,10
2,35,105,6
2,30,94,10
2,30,101,32
2,35,102,6
2,35,103,46
2,30,101,12
2,30,102,48
2,35,104,6
2,35,103,20
2,30,99,6
2,30,101,44
2,35,99,6
2,35,103,36
2,30,98,34
2,30,101,40
2,35,105,6
2,35,101,40
2,30,102,6
2,30,101,48
2,35,99,14
2,35,103,60
2,30,97,36
2,30,101,46
2,30,101,40
2,33,103,6
2,35,105,6
2,30,99,6
2,30,101,40
2,35,101,6
2,35,103,46
2,30,98,38
2,30,102,42
2,35,104,6
2,40,105,18
2,35,99,6
2,35,101,52
2,40,98,8
2,40,103,42
2,35,97,20
2,35,104,42
2,38,103,20
2,40,103,6
2,35,97,6
2,35,104,44
2,40,99,6
2,40,101,44
2,35,94,6
2,35,101,58
2,40,103,8
2,35,103,6
2,30,99,6
2,30,101,44
2,35,104,6
2,40,101,6
2,35,99,6
2,35,101,56
2,40,103,12
2,40,103,40
2,35,101,6
2,35,101,48
2,40,99,6
2,40,102,48
2,35,101,6
2,35,101,56
2,35,99,38
2,40,101,20
2,35,104,6
2,30,102,6
2,30,101,48
2,35,99,6
2,35,103,44
2,30,99,6
2,30,101,54
2,35,104,6
2,35,104,18
2,30,99,10
2,30,102,42
2,35,102,6
2,35,103,42
2,30,97,16
2,30,101,48
2,35,104,6
2,35,104,12
2,30,99,6
2,30,101,52
2,35,102,6
2,35,104,56
2,30,96,14
2,30,101,40
2,30,105,6
2,35,99,94
2,35,104,6
2,30,101,18
2,30,102,48
2,35,101,6
2,35,102,50
2,30,101,24
2,30,101,50
2,35,104,6
2,35,105,26
2,30,99,8
2,30,101,46
2,35,103,6
2,35,103,56
2,30,101,22
2,35,104,6
2,35,104,36
2,42,99,6
2,42,101,52
2,35,102,6
2,35,102,54
2,30,98,24
2,30,101,50
2,35,105,6
2,35,104,68
2,42,102,6
2,47,101,14
2,42,99,16
2,35,104,20
2,42,99,6
2,35,101,6
2,40,103,642
2,40,100,12
2,35,101,8
2,40,105,6
2,40,103,22
2,43,105,16
2,45,103,6
2,38,103,6
2,38,100,14
2,35,101,12
2,38,101,10
2,38,102,26
2,35,103,6
2,38,105,6
2,40,102,22
2,40,99,52
2,35,101,6
2,40,103,6
2,40,102,60
2,43,101,6
2,45,101,6
2,38,101,6
2,38,97,34
2,35,101,6
2,38,102,8
2,35,104,6
2,35,105,60
2,38,101,8
2,40,105,12
2,40,99,60
2,35,104,8
2,40,103,6
2,40,103,32
2,43,105,8
2,43,96,38
2,45,102,6
2,38,101,6
2,38,95,42
2,35,101,6
2,38,101,40
2,38,101,48
2,35,101,6
2,35,101,42
2,38,101,12
2,40,103,18
2,40,97,50
2,35,101,6
2,40,103,8
2,40,103,52
2,43,101,12
2,45,102,24
2,45,105,6
2,40,105,728
2,40,99,60
2,35,102,6
2,35,101,40
2,40,102,6
2,40,100,50
2,35,102,6
2,40,101,6
2,35,101,6
2,33,105,6
2,33,99,68
2,28,102,6
2,28,101,48
2,33,101,6
2,33,96,58
2,33,104,60
2,37,103,6
2,38,101,14
2,38,101,36
2,33,104,12
2,33,101,64
2,38,104,6
2,38,101,26
2,33,101,12
2,34,103,6
2,35,105,6
2,35,97,48
2,42,102,6
2,42,101,24
2,49,101,6
2,49,99,44
2,42,101,6
2,47,101,6
2,47,99,34
2,42,103,8
2,40,105,6
2,40,100,40
2,35,102,6
2,34,103,8
2,33,102,26
2,33,96,40
2,40,101,6
2,33,103,6
2,38,103,8
2,38,100,52
2,33,101,6
2,33,100,52
2,38,102,8
2,38,99,12
2,33,101,16
2,38,105,24
2,40,105,6
2,40,100,48
2,35,101,6
2,34,103,6
2,33,101,20
2,33,96,40
2,40,102,6
2,33,101,6
2,38,105,30
2,38,99,48
2,33,102,6
2,33,101,58
2,38,102,6
2,38,101,68
2,38,102,6
2,39,105,8
2,40,105,6
2,40,100,40
2,35,102,6
2,28,104,26
2,28,100,46
2,35,102,6
2,28,101,6
2,33,101,6
2,33,104,34
2,28,103,8
2,33,101,6
2,28,101,10
2,33,104,8
2,34,103,8
2,35,102,6
2,35,103,52
2,30,102,6
2,35,102,72
2,35,99,66
2,30,102,6
2,35,101,6
2,28,101,14
2,33,101,36
2,35,102,6
2,28,104,42
2,28,99,64
2,26,104,12
2,27,105,6
2,28,105,6
2,28,101,36
2,35,102,6
2,28,104,46
2,28,96,48
2,35,102,6
2,28,105,6
2,33,105,8
2,33,97,36
2,28,101,8
2,33,104,90
2,28,99,28
2,33,101,6
2,34,103,12
2,35,103,6
2,35,101,54
2,30,101,6
2,35,102,68
2,35,101,6
2,30,101,38
2,35,101,6
2,29,105,22
2,28,101,10
2,43,102,20634
2,43,99,64
2,38,101,8
2,38,99,68
2,31,104,6
2,38,103,52
2,43,101,6
2,38,101,8
2,43,99,6
2,43,102,6
2,43,100,76
2,38,101,6
2,38,100,64
2,31,104,6
2,31,100,74
2,38,101,6
2,43,101,6
2,38,99,6
2,41,102,6
2,41,99,62
2,36,102,6
2,36,100,42
2,41,102,6
2,41,100,66
2,36,101,6
2,41,101,6
2,36,100,6
2,41,103,6
2,41,100,66
2,36,101,6
2,36,99,64
2,34,102,6
2,34,101,56
2,41,104,6
2,46,100,6
2,41,103,6
2,34,100,6
2,39,103,6
2,39,97,52
2,34,104,6
2,34,100,46
2,39,102,6
2,39,99,60
2,34,102,6
2,39,103,6
2,34,100,6
2,39,103,6
2,39,99,60
2,34,101,6
2,34,100,66
2,39,102,6
2,39,101,58
2,34,102,6
2,39,101,6
2,41,100,6
2,43,103,6
2,43,99,64
2,38,104,6
2,38,101,68
2,31,104,6
2,31,99,58
2,38,101,6
2,43,102,6
2,38,99,6
2,41,103,6
2,41,100,52
2,36,102,8
2,36,101,48
2,29,102,6
2,36,100,68
2,41,101,6
2,36,99,6
2,29,101,6
2,36,99,6
2,34,103,6
2,34,100,68
2,34,102,6
2,34,99,60
2,41,104,6
2,41,101,64
2,34,101,6
2,41,103,6
2,34,96,6
2,39,105,6
2,39,97,56
2,34,102,6
2,34,101,60
2,39,104,6
2,39,101,64
2,34,102,8
2,39,105,6
2,41,101,6
2,43,105,6
2,43,99,64
2,38,102,6
2,38,101,68
2,31,104,6
2,38,101,28
2,43,101,6
2,38,97,6
2,31,105,6
2,43,97,6
2,41,101,6
2,41,100,6
2,36,102,6
2,36,100,64
2,41,102,6
2,41,99,68
2,36,102,6
2,41,103,6
2,36,99,6
2,34,105,6
2,34,101,46
2,41,102,12
2,41,99,76
2,34,104,30
2,34,101,46
2,41,101,6
2,34,102,6
2,41,101,6
2,39,103,6
2,39,99,64
2,34,104,6
2,34,99,52
2,39,101,6
2,34,99,6
2,27,102,6
2,34,101,6
2,34,100,16
2,39,101,10
2,34,100,6
2,39,105,6
2,39,99,56
2,34,102,6
2,34,99,64
2,39,102,6
2,34,97,6
2,27,103,6
2,34,103,6
2,34,99,24
2,39,102,10
2,34,99,6
2,39,103,6
2,39,101,86
2,34,104,6
2,34,101,64
2,27,105,10
2,31,105,1428
2,31,101,6
2,38,104,6
