track,note,velocity,time
0,36,99,1506
0,49,99,2
0,56,89,0
0,63,124,0
0,69,93,166
0,69,95,72
0,64,118,0
0,62,118,72
0,36,102,0
0,42,94,2
0,56,89,0
0,37,94,0
0,70,100,166
0,63,101,0
0,70,92,72
0,63,118,0
0,36,98,72
0,56,84,2
0,64,123,0
0,69,102,166
0,69,102,72
0,64,110,0
0,37,95,72
0,62,123,0
0,36,97,0
0,42,95,2
0,56,84,0
0,70,84,166
0,63,118,0
0,70,84,72
0,63,124,0
0,36,104,72
0,56,82,2
0,64,127,0
0,69,107,166
0,69,104,72
0,63,127,0
0,37,101,72
0,63,114,0
0,36,100,0
0,42,101,2
0,69,95,0
0,56,85,0
0,70,87,166
0,64,127,0
0,70,89,72
0,62,123,0
0,36,100,72
0,56,82,2
0,63,124,0
0,69,93,166
0,69,90,72
0,63,118,0
0,37,101,72
0,63,114,0
0,36,104,0
0,42,101,2
0,56,87,0
0,70,94,166
0,64,127,0
0,70,96,72
0,62,123,0
0,36,107,72
0,63,127,2
0,56,68,0
0,69,102,166
0,64,127,72
0,69,107,0
0,36,105,72
0,64,110,0
0,37,96,0
0,56,93,2
0,42,96,0
0,63,127,166
0,70,84,0
0,62,114,72
0,70,87,0
0,36,100,72
0,64,123,2
0,56,74,0
0,69,105,166
0,63,124,72
0,69,94,0
0,36,105,72
0,63,127,0
0,37,99,0
0,56,87,2
0,42,99,0
0,64,127,166
0,70,88,0
0,62,127,72
0,70,94,0
0,36,104,72
0,63,127,2
0,56,91,0
0,69,99,166
0,64,114,72
0,69,102,0
0,36,99,72
0,64,118,0
0,37,103,0
0,56,88,2
0,42,103,0
0,63,127,166
0,70,88,0
0,62,123,72
0,70,89,0
0,36,107,72
0,64,118,0
0,56,88,2
0,69,97,166
0,63,127,72
0,69,100,0
0,36,105,72
0,63,101,0
0,37,103,0
0,56,93,2
0,42,103,0
0,64,127,70
0,62,118,72
0,70,89,0
0,70,90,72
0,36,105,72
0,63,127,2
0,56,90,0
0,62,117,2
0,62,114,12
0,69,104,166
0,59,117,8
0,64,110,0
0,69,94,0
0,59,109,8
0,36,99,72
0,64,123,0
0,37,110,0
0,56,89,2
0,42,110,0
0,55,117,8
0,63,127,8
0,70,90,0
0,55,107,0
0,62,118,72
0,70,92,0
0,36,102,72
0,64,127,0
0,56,93,2
0,69,91,166
0,63,127,34
0,69,102,0
0,55,117,64
0,36,107,8
0,63,124,0
0,37,106,0
0,56,89,2
0,42,106,0
0,55,117,2
0,59,117,4
0,59,117,12
0,62,117,72
0,64,127,8
0,70,94,0
0,62,117,4
0,62,118,60
0,70,94,0
0,67,117,0
0,67,117,0
0,36,102,72
0,63,127,2
0,56,90,0
0,66,117,2
0,66,111,12
0,69,98,142
0,63,118,72
0,69,95,0
0,62,117,4
0,62,109,8
0,36,104,72
0,63,124,0
0,37,106,0
0,56,90,2
0,42,106,0
0,64,118,0
0,70,97,0
0,59,117,8
0,59,100,8
0,62,118,72
0,70,97,0
0,36,105,72
0,63,127,2
0,56,93,0
0,69,88,166
0,64,118,72
0,69,102,0
0,36,107,72
0,64,118,0
0,37,110,0
0,56,95,0
0,42,110,2
0,63,127,108
0,64,77,0
0,70,89,0
0,62,118,72
0,70,91,0
0,62,117,60
0,62,117,12
0,36,105,2
0,64,123,0
0,56,90,0
0,69,95,166
0,59,117,8
0,63,124,4
0,69,107,0
0,59,112,4
0,36,102,72
0,63,124,0
0,37,114,0
0,56,93,0
0,42,114,2
0,64,114,8
0,70,82,0
0,55,117,8
0,55,110,0
0,62,118,72
0,70,83,0
0,36,100,72
0,64,123,2
0,56,81,0
0,62,105,70
0,69,96,72
0,63,127,28
0,69,102,0
0,36,102,72
0,63,118,0
0,37,114,0
0,56,91,2
0,42,114,0
0,55,117,6
0,55,117,12
0,59,117,82
0,59,117,4
0,64,118,64
0,70,83,0
0,62,117,8
0,62,114,12
0,62,114,0
0,70,86,0
0,67,117,0
0,67,117,0
0,36,107,72
0,63,127,2
0,56,77,0
0,66,117,6
0,66,113,12
0,69,105,138
0,62,117,4
0,64,118,4
0,69,105,0
0,62,107,4
0,36,104,72
0,63,124,0
0,37,114,0
0,56,81,2
0,42,114,0
0,63,127,0
0,70,84,0
0,59,117,0
0,59,101,0
0,62,118,72
0,70,79,0
0,36,102,72
0,64,127,2
0,56,77,0
0,69,107,166
0,63,118,72
0,69,107,0
0,36,102,72
0,63,114,0
0,37,110,0
0,56,87,2
0,42,110,0
0,64,110,70
0,62,114,72
0,70,81,0
0,70,81,72
0,62,117,64
0,36,100,8
0,63,127,2
0,56,89,0
0,62,117,2
0,69,107,166
0,59,117,8
0,64,114,0
0,69,107,0
0,59,110,8
0,36,99,72
0,63,118,0
0,37,114,0
0,56,78,2
0,42,114,0
0,64,107,0
0,70,83,0
0,55,117,8
0,55,109,12
0,62,118,72
0,70,88,0
0,36,98,72
0,63,124,2
0,56,90,0
0,69,88,166
0,64,114,32
0,69,95,0
0,36,100,72
0,63,127,0
0,37,114,0
0,56,65,2
0,42,114,0
0,55,117,10
0,55,117,0
0,59,117,0
0,59,117,12
0,63,127,68
0,70,85,0
0,62,117,2
0,62,107,12
0,62,127,64
0,70,92,0
0,67,117,4
0,67,117,8
0,36,102,72
0,64,127,2
0,56,93,0
0,66,117,6
0,66,115,12
0,63,48,40
0,69,95,72
0,63,127,4
0,69,102,0
0,62,117,4
0,62,102,12
0,36,98,72
0,63,127,0
0,37,114,0
0,56,80,2
0,42,114,0
0,64,118,166
0,70,73,0
0,59,117,4
0,59,97,8
0,62,114,72
0,70,96,0
0,36,99,72
0,63,127,0
0,56,91,2
0,69,87,166
0,64,118,72
0,69,99,0
0,36,102,20
0,63,124,0
0,37,118,0
0,56,74,2
0,42,118,0
0,63,124,166
0,70,91,0
0,62,127,72
0,70,92,0
0,36,107,72
0,64,127,2
0,56,95,0
0,62,117,0
0,62,117,12
0,69,90,166
0,59,117,68
0,63,118,2
0,69,107,0
0,59,107,8
0,36,98,72
0,63,124,0
0,37,106,0
0,56,75,2
0,42,106,0
0,64,107,166
0,70,93,0
0,55,117,12
0,55,110,0
0,62,110,66
0,70,97,0
0,36,98,72
0,63,124,0
0,56,100,2
0,69,80,166
0,64,110,56
0,69,102,0
0,36,105,72
0,63,124,0
0,37,110,0
0,56,64,2
0,42,110,0
0,55,117,2
0,55,117,12
0,59,117,70
0,59,110,12
0,62,117,40
0,63,124,12
0,70,89,0
0,62,97,0
0,67,117,40
0,62,127,12
0,70,102,0
0,67,100,0
0,59,115,68
0,36,102,4
0,64,123,2
0,56,88,0
0,31,127,0
0,59,82,6
0,62,112,8
0,62,79,2
0,55,113,24
0,55,80,6
0,63,61,4
0,59,114,4
0,62,117,0
0,59,81,12
0,62,84,0
0,67,107,8
0,67,74,10
0,69,89,4
0,55,117,0
0,55,93,0
0,59,113,36
0,62,117,0
0,67,115,0
0,59,80,8
0,62,85,0
0,67,82,0
0,63,118,20
0,69,100,0
0,55,117,0
0,55,104,0
0,59,116,32
0,62,117,4
0,67,117,0
0,59,83,2
0,62,90,4
0,67,90,0
0,36,74,2
0,63,124,0
0,56,66,0
0,55,117,0
0,55,112,12
0,59,117,24
0,59,87,12
0,62,117,4
0,67,117,0
0,62,94,8
0,67,94,0
0,55,117,12
0,55,110,12
0,64,110,12
0,70,92,0
0,59,117,20
0,62,117,0
0,67,117,2
0,65,78,4
0,59,96,4
0,62,102,0
0,67,104,2
0,55,117,16
0,62,123,8
0,70,95,0
0,55,117,0
0,65,72,0
0,59,117,12
0,62,117,0
0,67,117,0
0,59,97,0
0,62,105,0
0,67,102,0
0,63,127,12
0,56,84,2
0,55,117,0
0,65,82,4
0,55,117,0
0,59,117,16
0,62,117,0
0,67,117,0
0,59,102,10
0,62,109,0
0,67,109,0
0,63,57,8
0,65,86,0
0,55,117,0
0,55,117,0
0,59,117,32
0,62,117,0
0,67,117,0
0,59,102,10
0,62,112,0
0,67,112,0
0,69,95,14
0,31,127,0
0,65,107,8
0,55,117,8
0,55,117,8
0,59,117,8
0,62,117,0
0,67,117,0
0,64,107,0
0,69,107,0
0,59,104,8
0,62,117,0
0,67,117,0
0,65,118,4
0,55,117,20
0,55,117,12
0,63,124,20
0,56,58,0
0,59,117,4
0,67,117,0
0,62,117,2
0,59,107,8
0,67,117,0
0,62,117,2
0,55,117,0
0,65,98,8
0,55,117,0
0,59,117,4
0,62,117,0
0,67,117,0
0,59,105,8
0,62,117,0
0,67,117,0
0,55,117,0
0,66,118,4
0,63,106,0
0,70,95,0
0,55,117,0
0,59,117,4
0,67,117,0
0,62,117,0
0,59,109,8
0,67,117,0
0,62,117,0
0,62,127,14
0,70,98,0
0,55,117,0
0,55,117,12
0,59,117,4
0,62,117,0
0,67,117,0
0,59,105,8
0,62,117,0
0,67,117,0
0,65,127,8
0,64,127,4
0,56,95,0
0,49,118,2
0,31,127,0
0,55,117,6
0,55,117,0
0,59,117,2
0,62,117,0
0,67,117,0
0,55,117,0
0,59,117,8
0,62,117,0
0,67,117,0
0,55,107,0
0,59,127,464
0,59,127,18
0,59,127,36
0,60,127,16
0,59,127,56
0,59,127,42
0,59,127,82
0,62,127,94
0,62,127,76
0,31,127,2
0,55,117,6
0,62,117,0
0,67,117,0
0,59,117,2
0,65,110,6
0,55,117,4
0,62,105,0
0,67,107,0
0,59,101,2
0,62,127,0
0,62,127,56
0,31,127,0
0,55,117,4
0,59,117,0
0,62,117,0
0,67,117,4
0,55,114,8
0,59,99,0
0,62,103,0
0,65,110,4
0,67,102,0
0,59,117,0
0,67,117,0
0,62,127,4
0,31,106,0
0,55,117,2
0,62,117,0
0,59,99,6
0,67,100,0
0,65,127,4
0,55,117,2
0,62,114,0
0,55,127,68
0,55,127,28
0,55,127,48
0,55,127,72
0,63,127,40
0,55,127,16
0,65,107,4
0,63,118,52
0,65,127,8
0,55,127,44
0,64,123,72
0,66,118,0
0,66,114,64
0,62,127,4
0,57,127,16
0,36,112,72
0,63,127,2
0,56,100,0
0,49,101,0
0,38,127,0
0,60,117,146
0,66,117,0
0,62,117,2
0,60,93,10
0,66,96,0
0,62,92,2
0,69,102,6
0,64,110,36
0,69,109,0
0,42,127,2
0,63,127,16
0,37,103,0
0,56,85,2
0,42,103,0
0,45,127,0
0,62,117,12
0,66,117,0
0,60,117,2
0,57,127,2
0,36,97,4
0,64,114,0
0,70,90,2
0,33,127,0
0,62,89,2
0,66,93,0
0,60,89,2
0,57,127,44
0,62,118,4
0,70,98,0
0,57,127,10
0,36,105,2
0,63,124,0
0,56,90,0
0,38,127,0
0,64,114,52
0,69,93,0
0,57,117,8
0,60,117,0
0,62,117,0
0,57,127,4
0,66,117,0
0,57,88,8
0,60,87,0
0,62,89,0
0,66,91,0
0,63,124,0
0,69,99,0
0,57,127,12
0,63,124,72
0,37,103,0
0,56,74,0
0,42,103,2
0,57,127,80
0,60,117,68
0,62,117,0
0,66,117,0
0,57,115,2
0,36,96,10
0,64,114,0
0,60,84,0
0,62,84,0
0,66,92,0
0,70,87,2
0,38,127,0
0,57,82,0
0,62,127,22
0,70,93,0
0,60,127,12
0,36,102,72
0,63,127,0
0,56,89,2
0,38,127,0
0,60,127,80
0,57,117,72
0,60,117,0
0,66,117,0
0,62,117,2
0,69,98,10
0,57,87,0
0,60,86,0
0,66,93,0
0,62,86,2
0,64,123,32
0,69,98,0
0,42,127,2
0,63,127,20
0,37,101,0
0,56,71,0
0,42,101,2
0,45,123,0
0,60,117,142
0,66,117,0
0,57,117,2
0,62,117,0
0,36,89,6
0,63,127,0
0,70,87,0
0,33,127,2
0,60,90,2
0,66,96,0
0,57,88,2
0,62,90,0
0,54,127,0
0,62,127,8
0,70,92,0
0,54,127,4
0,36,105,40
0,64,127,0
0,56,88,0
0,38,127,0
0,54,127,14
0,69,95,32
0,57,117,4
0,66,117,0
0,60,117,2
0,62,115,0
0,57,90,10
0,66,97,0
0,60,90,2
0,62,82,0
0,54,127,0
0,63,127,0
0,69,107,0
0,54,127,4
0,63,124,68
0,37,110,0
0,56,82,0
0,42,110,2
0,54,127,60
0,57,115,68
0,36,86,4
0,64,118,0
0,70,89,0
0,38,127,2
0,60,114,0
0,62,113,2
0,66,117,0
0,57,82,4
0,60,81,6
0,62,80,2
0,66,85,0
0,62,127,16
0,70,92,0
0,55,127,4
0,36,107,4
0,63,127,2
0,56,87,0
0,31,127,0
0,59,117,154
0,62,117,0
0,67,117,0
0,69,92,12
0,59,89,0
0,62,95,0
0,67,97,0
0,64,118,16
0,69,104,0
0,35,127,2
0,63,127,72
0,37,103,0
0,56,76,0
0,42,103,2
0,38,127,0
0,59,117,72
0,62,117,0
0,67,117,4
0,36,92,0
0,63,127,0
0,70,80,2
0,26,127,0
0,59,94,2
0,62,97,0
0,59,127,4
0,67,102,0
0,62,127,12
0,70,71,0
0,59,127,8
0,36,105,28
0,64,123,0
0,56,91,2
0,31,127,0
0,59,127,6
0,62,114,70
0,59,117,52
0,62,117,0
0,67,117,2
0,69,96,2
0,59,127,8
0,59,95,0
0,62,96,0
0,67,100,2
0,63,127,12
0,69,102,0
0,59,127,16
0,63,127,72
0,37,106,0
0,56,78,0
0,42,106,2
0,59,127,48
0,62,117,88
0,67,117,0
0,59,117,2
0,36,85,2
0,64,127,0
0,70,88,0
0,31,127,2
0,62,94,6
0,67,98,0
0,59,92,2
0,62,92,12
0,70,83,0
0,64,127,2
0,36,105,72
0,63,127,0
0,56,100,2
0,31,127,0
0,62,127,66
0,62,117,68
0,67,117,0
0,59,117,2
0,69,107,2
0,62,95,8
0,67,97,0
0,59,95,2
0,64,127,44
0,69,104,0
0,35,127,2
0,63,124,4
0,37,114,0
0,56,72,0
0,42,114,2
0,38,127,0
0,67,117,144
0,62,117,0
0,59,117,2
0,36,93,6
0,63,127,0
0,70,79,0
0,67,102,0
0,26,124,2
0,62,99,2
0,59,96,2
0,55,127,6
0,62,107,16
0,70,87,0
0,55,127,8
0,36,105,20
0,64,127,2
0,56,76,0
0,31,127,0
0,55,127,6
0,59,117,52
0,62,117,0
0,67,117,0
0,69,104,8
0,59,93,4
0,62,95,0
0,67,96,0
0,55,127,4
0,63,127,20
0,69,105,0
0,55,127,16
0,63,124,72
0,37,106,0
0,56,71,0
0,42,106,0
0,55,127,72
0,62,117,60
0,67,117,0
0,59,117,4
0,36,85,8
0,64,123,0
0,62,95,0
0,67,100,0
0,70,76,2
0,31,127,0
0,59,91,2
0,62,127,8
0,70,87,0
0,57,127,20
0,36,100,16
0,63,127,0
0,56,90,2
0,38,127,0
0,69,104,166
0,62,117,0
0,66,117,0
0,60,117,2
0,62,98,10
0,66,99,0
0,60,95,2
0,64,123,24
0,69,102,0
0,42,127,2
0,64,127,24
0,37,103,0
0,56,72,2
0,42,103,0
0,45,127,0
0,62,117,104
0,66,117,0
0,60,117,2
0,36,91,0
0,63,127,0
0,62,99,0
0,66,99,0
0,70,81,2
0,33,127,0
0,60,93,0
0,57,127,6
0,62,127,16
0,70,81,0
0,57,127,4
0,36,105,40
0,64,127,0
0,56,81,2
0,38,127,0
0,57,127,2
0,62,84,70
0,69,95,64
0,66,117,0
0,60,117,2
0,62,117,0
0,57,127,6
0,66,98,4
0,60,95,2
0,62,98,0
0,63,127,8
0,69,95,0
0,57,127,0
0,63,124,72
0,37,106,0
0,56,76,0
0,42,106,2
0,57,127,28
0,60,117,72
0,62,117,0
0,66,117,0
0,36,82,4
0,64,127,0
0,70,87,0
0,38,117,2
0,60,91,6
0,62,99,0
0,66,97,0
0,62,114,8
0,70,82,0
0,60,127,8
0,36,105,72
0,63,127,2
0,56,88,0
0,38,127,0
0,60,127,92
0,60,117,68
0,62,117,0
0,66,117,0
0,69,95,4
0,60,95,8
0,62,99,0
0,66,99,0
0,64,123,64
0,69,105,0
0,42,117,0
0,63,127,20
0,37,110,0
0,56,76,2
0,42,110,0
0,45,127,0
0,60,117,6
0,62,117,0
