track,note,velocity,time
1,59,127,20548
1,59,127,16
1,59,127,36
1,60,127,16
1,59,127,56
1,59,127,40
1,59,127,80
1,62,127,92
1,62,127,112
1,55,127,104
1,55,127,28
1,55,127,48
1,55,127,72
1,55,127,56
1,55,127,72
1,57,127,84
1,57,127,120
1,57,127,44
1,57,127,40
1,57,127,64
1,57,127,48
1,57,127,84
1,60,127,92
1,60,127,80
1,54,127,160
1,54,127,36
1,54,127,56
1,54,127,56
1,54,127,44
1,54,127,64
1,55,127,92
1,59,127,88
1,59,127,40
1,59,127,40
1,59,127,64
1,59,127,48
1,59,127,72
1,64,127,52
1,62,127,64
1,55,127,20
1,55,127,40
1,55,127,44
1,55,127,68
1,55,127,40
1,55,127,84
1,57,127,64
1,57,127,124
1,57,127,36
1,57,127,48
1,57,127,72
1,57,127,56
1,57,127,92
1,60,127,64
1,60,127,92
1,54,127,36
1,54,127,36
1,54,127,48
1,54,127,72
1,54,127,56
1,54,127,100
1,55,127,120
1,64,127,720
1,62,127,8
1,64,127,8
1,62,127,8
1,64,127,104
1,62,127,204
1,64,127,80
1,62,127,8
1,64,127,180
1,62,127,176
1,64,127,184
1,62,127,4
1,64,127,96
1,62,127,112
1,60,127,120
1,62,127,108
1,62,127,192
1,60,127,16
1,62,127,96
1,60,127,8
1,62,127,72
1,60,127,8
1,62,127,108
1,62,127,104
1,64,127,8
1,62,127,40
1,60,127,12
1,59,127,16
1,59,127,144
1,64,127,84
1,62,127,28
1,59,127,124
1,59,127,72
1,64,127,40
1,62,127,128
1,59,127,124
1,59,127,236
1,64,127,20
1,62,127,16
1,59,127,96
1,59,127,112
1,64,127,36
1,62,127,116
1,60,127,112
1,66,127,108
1,66,127,92
1,66,127,92
1,66,127,184
1,64,127,92
1,64,127,44
1,62,127,72
1,62,127,56
1,62,127,56
1,64,127,36
1,62,127,140
1,60,127,104
1,59,127,124
1,60,127,4
1,59,127,88
1,59,127,1904
1,59,127,40
1,59,127,28
1,59,127,60
1,59,127,48
1,59,127,84
1,62,127,84
1,62,127,104
1,55,127,228
1,55,127,36
1,55,127,36
1,55,127,72
1,55,127,48
1,55,127,60
1,57,127,72
1,57,127,144
1,57,127,64
1,57,127,56
1,57,127,64
1,57,127,56
1,57,127,84
1,60,127,84
1,60,127,92
1,54,127,132
1,54,127,68
1,54,127,72
1,54,127,80
1,54,127,92
1,55,127,24
1,59,127,112
1,59,127,48
1,59,127,28
1,59,127,52
1,59,127,48
1,59,127,56
1,64,127,28
1,62,127,28
1,55,127,8
1,55,127,36
1,55,127,36
1,55,127,64
1,55,127,36
1,55,127,76
1,57,127,48
1,57,127,132
1,57,127,152
1,57,127,76
1,57,127,56
1,57,127,92
1,60,127,84
1,60,127,100
1,54,127,16
1,54,127,148
1,54,127,100
1,54,127,44
1,54,127,80
1,55,127,84
1,64,127,572
1,62,127,64
1,64,127,40
1,62,127,8
1,64,127,24
1,62,127,64
1,64,127,88
1,62,127,8
1,64,127,84
1,62,127,56
1,64,127,36
1,62,127,16
1,64,127,24
1,62,127,104
1,60,127,100
1,62,127,60
1,62,127,92
1,62,127,64
1,60,127,28
1,62,127,44
1,60,127,72
1,62,127,108
1,60,127,16
1,62,127,100
1,62,127,88
1,64,127,56
1,62,127,20
1,62,127,56
1,60,127,0
1,59,127,124
1,59,127,64
1,64,127,84
1,62,127,80
1,59,127,36
1,63,127,92
1,59,127,120
1,64,127,112
1,62,127,28
1,59,127,84
1,59,127,220
1,64,127,84
1,62,127,8
1,59,127,100
1,59,127,60
1,64,127,64
1,62,127,24
1,60,127,28
1,66,127,80
1,66,127,64
1,66,127,64
1,66,127,56
1,66,127,44
1,64,127,100
1,64,127,84
1,62,127,60
1,62,127,76
1,62,127,72
1,62,127,64
1,64,127,100
1,62,127,36
1,60,127,24
1,60,127,120
1,59,127,0
1,57,127,8
1,59,127,92
1,64,127,2536
1,64,127,56
1,64,127,48
1,64,127,36
1,62,127,260
1,60,127,8
1,62,127,32
1,64,127,36
1,64,127,28
1,67,127,16
1,66,127,576
1,62,127,8
1,64,127,328
1,64,127,2272
1,64,127,48
1,64,127,36
1,64,127,56
1,64,127,36
1,64,127,36
1,62,127,20
1,60,127,36
1,59,127,4
1,62,127,288
1,59,127,240
1,61,127,16
1,62,127,136
1,66,127,2316
1,66,127,64
1,64,127,36
1,64,127,56
1,62,127,20
1,62,127,84
1,60,127,64
1,62,127,0
1,60,127,72
1,62,127,216
1,64,127,196
1,62,127,96
1,66,127,1080
1,66,127,36
1,67,127,44
1,69,127,32
1,67,127,36
1,66,127,192
1,69,127,36
1,67,127,16
1,64,127,1148
1,62,127,44
1,64,127,108
1,62,127,44
1,64,127,36
1,62,127,84
1,64,127,28
1,62,127,100
1,64,127,272
1,62,127,36
1,64,127,40
1,62,127,80
1,64,127,108
1,62,127,136
1,60,127,136
1,62,127,328
1,60,127,64
1,62,127,48
1,60,127,92
1,62,127,48
1,60,127,92
1,62,127,112
1,60,127,108
1,62,127,172
1,62,127,72
1,64,127,100
1,62,127,92
1,60,127,72
1,59,127,100
1,59,127,200
1,64,127,28
1,62,127,28
1,59,127,96
1,59,127,112
1,59,127,84
1,64,127,8
1,62,127,36
1,59,127,20
1,59,127,204
1,64,127,76
1,62,127,52
1,59,127,8
1,59,127,92
1,59,127,88
1,64,127,80
1,62,127,36
1,60,127,92
1,66,127,192
1,66,127,72
1,66,127,76
1,66,127,76
1,66,127,80
1,64,127,64
1,64,127,100
1,62,127,24
1,62,127,112
1,62,127,64
1,62,127,72
1,64,127,64
1,62,127,68
1,60,127,72
1,60,127,212
1,59,127,28
1,57,127,92
1,59,127,48
1,64,127,36116
1,62,127,8
1,64,127,184
1,62,127,220
1,64,127,92
1,62,127,8
1,64,127,88
1,62,127,8
1,64,127,208
1,62,127,8
1,64,127,4
1,62,127,172
1,64,127,112
1,62,127,28
1,60,127,104
1,62,127,116
1,60,127,28
1,62,127,40
1,60,127,76
1,62,127,100
1,60,127,84
1,62,127,80
1,60,127,8
1,62,127,104
1,60,127,20
1,64,127,44
1,64,127,64
1,62,127,64
1,60,127,108
1,59,127,92
1,59,127,184
1,64,127,84
1,62,127,16
1,59,127,8
1,59,127,100
1,64,127,48
1,62,127,104
1,59,127,132
1,59,127,224
1,64,127,4
1,62,127,20
1,59,127,28
1,59,127,120
1,64,127,28
1,62,127,100
1,60,127,104
1,66,127,80
1,66,127,72
1,66,127,80
1,66,127,92
1,64,127,120
1,64,127,92
1,62,127,44
1,62,127,112
1,62,127,104
1,64,127,64
1,62,127,80
1,60,127,72
1,59,127,164
1,59,127,0
1,59,127,236
1,64,127,28
1,62,127,8
1,59,127,92
1,59,127,120
1,59,127,92
1,64,127,76
1,62,127,8
1,59,127,112
1,59,127,160
1,64,127,0
1,62,127,28
1,59,127,92
1,59,127,128
1,64,127,100
1,62,127,120
1,60,127,132
1,66,127,408
1,66,127,108
1,66,127,120
1,66,127,112
1,64,127,108
1,64,127,104
1,62,127,64
1,62,127,80
1,62,127,92
1,64,127,84
1,62,127,112
1,60,127,120
1,59,127,164
1,60,127,8
1,59,127,12
2,31,127,18432
2,31,127,84
2,31,127,92
2,31,127,920
2,31,127,56
2,31,106,24
2,38,127,312
2,42,127,40
2,45,127,20
2,33,127,24
2,38,127,16
2,38,127,164
2,38,127,120
2,42,127,36
2,45,123,24
2,33,127,192
2,38,127,0
2,38,127,136
2,31,127,8
2,35,127,20
2,38,127,96
2,26,127,4
2,31,127,192
2,31,127,144
2,31,127,84
2,35,127,48
2,38,127,8
2,26,124,12
2,31,127,24
2,31,127,148
2,38,127,20
2,42,127,28
2,45,127,28
2,33,127,4
2,38,127,192
2,38,117,108
2,38,127,108
2,42,117,64
2,45,127,24
2,33,127,16
2,38,127,8
2,38,120,132
2,31,127,16
2,35,127,288
2,38,127,8
2,26,123,32
2,31,127,20
2,31,125,88
2,31,127,84
2,31,127,1184
2,31,123,52
2,38,127,572
2,42,127,24
2,45,127,20
2,33,127,24
2,38,127,192
2,38,125,180
2,38,127,132
2,42,127,24
2,45,127,40
2,33,127,4
2,38,127,24
2,38,125,156
2,31,127,8
2,35,127,40
2,38,127,32
2,26,127,4
2,31,127,20
2,31,127,136
2,31,127,100
2,35,127,32
2,38,127,0
2,26,127,48
2,31,127,20
2,31,127,140
2,38,127,0
2,42,127,40
2,45,127,36
2,33,127,20
2,38,127,192
2,38,119,164
2,38,127,124
2,42,127,40
2,45,127,32
2,33,127,8
2,38,127,0
2,38,116,140
2,31,127,80
2,31,127,2780
2,31,127,188
2,31,127,104
2,35,127,72
2,38,127,0
2,26,123,12
2,31,127,16
2,31,127,144
2,38,127,84
2,42,127,60
2,45,127,20
2,33,127,8
2,38,127,36
2,38,124,204
2,38,127,120
2,42,127,28
2,45,127,28
2,33,127,192
2,38,127,16
2,38,127,184
2,31,127,52
2,35,127,52
2,38,127,12
2,26,124,32
2,31,127,20
2,31,127,244
2,31,127,108
2,35,127,36
2,38,125,12
2,26,120,0
2,31,127,44
2,31,127,184
2,38,127,44
2,42,127,36
2,45,127,24
2,33,127,0
2,38,127,20
2,38,124,188
2,38,127,132
2,42,127,32
2,45,127,24
2,33,127,8
2,38,127,16
2,38,117,180
2,31,127,60
2,35,127,284
2,38,127,8
2,26,119,12
2,31,127,24
2,31,127,188
2,31,127,84
2,35,127,12
2,38,127,96
2,26,122,16
2,31,127,16
2,31,127,200
2,31,127,104
2,35,127,20
2,38,127,100
2,26,123,164
2,38,127,188
2,38,127,208
2,38,127,136
2,42,127,36
2,45,127,32
2,33,127,192
2,38,127,8
2,38,127,240
2,38,127,136
2,42,127,20
2,45,127,20
2,33,127,0
2,31,127,36
2,31,127,248
2,31,127,108
2,35,127,16
2,38,127,8
2,26,123,16
2,31,127,192
2,31,127,228
2,31,127,96
2,35,127,44
2,38,127,0
2,26,127,16
2,38,127,192
2,38,127,228
2,38,127,124
2,42,127,40
2,45,127,20
2,33,127,20
2,38,127,4
2,38,127,232
2,38,127,128
2,42,127,56
2,45,127,12
2,38,127,24
2,31,127,12
2,31,127,204
2,31,127,104
2,35,127,64
2,38,126,12
2,26,121,36
2,31,127,0
2,31,127,200
2,31,127,96
2,35,127,52
2,38,124,16
2,26,117,12
2,31,127,20
2,31,127,212
2,31,127,96
2,35,127,56
2,38,125,12
2,26,121,40
2,36,127,16
2,36,127,212
2,36,127,96
2,40,127,80
2,43,124,20
2,31,127,20
2,36,123,4
2,36,125,248
2,36,127,88
2,40,127,48
2,43,127,0
2,31,127,8
2,36,126,24
2,36,127,184
2,36,127,116
2,40,127,44
2,43,127,0
2,31,127,24
2,36,127,12
2,36,127,204
2,36,127,116
2,40,127,28
2,43,127,0
2,31,127,32
2,36,127,36
2,36,127,216
2,36,127,116
2,40,127,32
2,43,126,100
2,31,127,64
2,31,127,192
2,31,127,96
2,35,126,56
2,38,124,0
2,26,118,36
2,31,127,0
2,31,124,272
2,31,127,116
2,35,126,28
2,38,125,0
2,26,118,0
2,31,127,8
2,31,127,224
2,31,127,96
2,35,127,28
2,38,127,96
2,26,118,0
2,31,127,16
2,31,127,188
2,31,127,108
2,35,127,36
2,38,127,96
2,26,127,48
2,38,127,192
2,38,127,196
2,38,127,124
2,42,127,44
2,45,127,16
2,33,127,20
2,38,127,12
2,38,127,216
2,38,127,116
2,42,127,44
2,45,127,32
2,33,127,192
2,38,127,16
2,38,127,184
2,38,127,128
2,42,127,44
2,45,127,12
2,31,127,16
2,31,127,264
2,31,127,116
2,35,127,72
2,38,127,4
2,26,127,12
2,31,127,192
2,35,127,24
2,38,127,100
2,26,127,96
2,31,127,84
2,31,127,912
2,30,127,52
2,31,127,0
2,31,127,52
2,38,127,872
2,42,127,192
2,45,127,152
2,33,127,0
2,38,127,192
2,38,127,292
2,38,127,108
2,42,127,188
2,45,127,12
2,33,127,192
2,38,127,12
2,38,127,200
2,31,127,32
2,35,127,188
2,38,127,140
2,26,122,160
2,31,127,168
2,31,127,260
2,31,127,92
2,35,127,188
2,38,127,156
2,26,121,176
2,31,127,8
2,31,127,188
2,38,127,32
2,42,127,188
2,45,127,20
2,33,127,192
2,38,127,164
2,38,127,384
2,42,127,188
2,45,127,8
2,33,127,192
2,38,127,0
2,38,127,116
2,38,127,108
2,31,127,48
2,31,127,15108
2,31,127,8692
2,31,127,9876
2,31,127,128
2,31,127,1304
2,38,127,884
2,42,127,24
2,45,127,24
2,33,127,8
2,38,127,36
2,38,126,216
2,38,127,140
2,42,127,20
2,45,127,12
2,33,127,192
2,38,127,52
2,38,119,176
2,31,127,80
2,35,127,188
2,38,127,8
2,26,125,8
2,31,127,20
2,31,127,332
2,35,127,188
2,38,127,64
2,26,125,68
2,31,127,16
2,31,126,144
2,38,127,32
2,42,127,192
2,45,127,8
2,33,127,8
2,38,127,16
2,38,127,216
2,38,127,140
2,42,127,32
2,45,127,24
2,33,127,24
2,38,127,12
2,38,123,188
2,31,127,20
2,35,127,188
2,38,127,184
2,26,122,188
2,31,127,4
2,31,118,192
2,31,127,120
2,35,127,20
2,38,127,12
2,26,125,20
2,31,127,8
2,31,127,180
2,38,127,48
2,42,127,64
2,45,127,16
2,33,127,8
2,38,127,36
2,38,125,204
2,38,127,140
2,42,127,4
2,45,127,12
2,33,127,4
2,38,127,28
2,38,127,160
2,31,127,48
2,35,127,192
2,38,125,12
2,26,117,0
2,31,127,28
2,31,125,184
2,31,127,112
2,35,127,28
2,38,127,4
2,26,123,28
2,31,127,16
2,31,127,192
2,30,111,96
2,31,127,0
2,31,127,468
3,66,82,37064
3,72,77,0
3,62,75,4
3,62,63,36
3,72,68,0
3,66,75,4
3,66,78,168
3,72,76,0
3,62,72,4
3,62,62,324
3,66,72,0
3,72,69,0
3,72,59,32
3,62,61,4
3,66,75,0
3,62,67,188
3,66,75,0
3,72,73,0
3,66,76,304
3,72,70,0
3,62,65,4
3,62,57,36
3,72,55,0
3,66,72,24
3,62,72,208
3,66,78,0
3,72,75,4
3,66,76,296
3,72,74,0
3,62,69,4
3,62,60,36
3,72,59,0
3,66,75,20
3,66,76,188
3,62,68,16
3,72,75,0
3,67,72,320
3,71,64,0
3,62,61,20
3,62,61,36
3,67,75,4
3,71,63,0
3,62,73,212
3,67,82,0
3,71,75,0
3,62,67,328
3,67,79,0
3,71,71,0
3,67,65,44
3,71,64,0
3,62,58,4
3,62,63,200
3,67,75,0
3,71,70,0
3,67,75,316
3,71,71,0
3,62,67,4
3,62,59,32
3,71,66,0
3,67,74,4
3,67,75,200
3,71,70,0
3,62,66,4
3,67,73,332
3,71,72,0
3,62,58,20
3,62,54,36
3,67,68,0
3,71,63,0
3,62,61,216
3,67,73,0
3,71,69,0
3,66,74,308
3,72,71,0
3,62,63,20
3,62,51,36
3,66,69,0
3,72,53,0
3,66,73,176
3,72,68,0
3,62,59,4
3,66,75,308
3,72,68,0
3,62,60,20
3,66,70,32
3,72,57,0
3,62,55,4
3,66,77,204
3,72,73,0
3,62,64,24
3,66,77,320
3,72,70,0
3,62,63,4
3,62,56,44
3,66,70,0
3,72,63,0
3,66,74,208
3,71,66,0
3,62,61,4
3,66,69,320
3,69,68,0
3,62,61,4
3,62,46,24
3,66,64,0
3,69,68,4
3,66,70,236
3,69,71,0
3,62,63,4
3,62,64,3384
3,67,75,0
3,71,70,0
3,62,68,316
3,67,75,0
3,71,70,0
3,62,64,320
3,67,77,0
3,71,73,0
3,62,54,48
3,67,65,0
3,71,63,0
3,62,64,212
3,67,75,0
3,71,74,4
3,67,70,324
3,71,69,0
3,62,59,4
3,62,49,36
3,67,61,16
3,71,59,0
3,62,63,212
3,67,70,0
3,71,64,0
3,66,71,316
3,72,69,16
3,62,60,4
3,72,54,28
3,62,54,4
3,66,69,0
3,62,55,124
3,66,63,0
3,71,65,0
3,62,41,36
3,66,53,4
3,69,70,20
3,62,57,296
3,66,65,0
3,69,71,0
3,62,56,44
3,66,69,0
3,69,73,0
3,66,73,212
3,69,72,0
