track,note,velocity,time
0,1,1,0
0,1,1,0
0,39,127,768
0,39,127,32
0,39,127,52
0,39,127,44
0,39,127,152
0,39,127,60
0,61,104,124
0,57,104,0
0,54,104,4
0,36,127,4
0,42,103,4
0,49,124,0
0,54,117,0
0,61,104,0
0,57,98,0
0,66,101,0
0,42,105,32
0,54,89,0
0,66,74,4
0,61,91,0
0,42,127,36
0,61,124,4
0,54,127,0
0,57,117,0
0,64,119,0
0,54,94,0
0,61,92,0
0,57,78,0
0,66,88,0
0,42,106,12
0,66,103,0
0,54,100,4
0,57,93,0
0,61,102,0
0,36,127,32
0,42,100,0
0,54,125,4
0,63,124,12
0,61,116,4
0,57,115,0
0,42,112,8
0,61,90,0
0,57,78,4
0,66,85,0
0,54,81,0
0,42,127,36
0,54,97,0
0,61,101,0
0,57,91,4
0,66,103,0
0,42,108,40
0,36,127,28
0,42,100,0
0,54,86,4
0,61,93,0
0,57,81,0
0,66,91,0
0,42,107,28
0,54,89,0
0,61,89,4
0,57,76,0
0,66,75,0
0,61,122,4
0,54,127,0
0,57,116,0
0,64,117,4
0,42,124,8
0,54,87,0
0,61,101,0
0,57,83,4
0,66,95,0
0,42,109,40
0,54,94,0
0,54,118,4
0,61,114,0
0,57,91,0
0,61,104,0
0,66,106,0
0,57,106,4
0,63,114,0
0,36,127,12
0,42,97,0
0,42,98,28
0,61,97,0
0,66,98,4
0,54,103,0
0,57,84,0
0,42,127,40
0,66,100,0
0,61,101,4
0,57,94,0
0,54,103,0
0,42,102,28
0,36,127,40
0,42,97,4
0,54,104,0
0,66,100,0
0,61,102,0
0,57,94,0
0,42,100,24
0,54,93,0
0,66,94,0
0,61,93,4
0,57,84,0
0,54,127,36
0,61,127,0
0,57,124,0
0,64,126,4
0,42,127,0
0,66,93,0
0,61,89,4
0,57,78,0
0,54,85,0
0,42,108,12
0,54,94,0
0,57,89,0
0,61,100,4
0,66,102,0
0,36,127,40
0,42,101,0
0,54,123,4
0,63,122,16
0,61,120,0
0,57,114,0
0,42,104,4
0,54,87,0
0,61,98,0
0,66,96,4
0,57,88,0
0,42,124,40
0,54,108,0
0,66,98,0
0,57,91,4
0,61,101,0
0,42,108,12
0,36,127,40
0,42,95,4
0,54,100,0
0,61,97,0
0,66,95,0
0,57,89,0
0,42,111,36
0,54,88,0
0,66,89,0
0,54,123,4
0,61,88,0
0,57,77,0
0,61,120,12
0,64,118,0
0,57,118,0
0,42,127,4
0,54,89,0
0,66,97,4
0,61,97,0
0,57,88,0
0,42,111,40
0,54,97,0
0,57,95,0
0,61,106,4
0,66,103,0
0,61,122,4
0,57,110,0
0,63,117,0
0,54,124,4
0,36,127,8
0,42,104,0
0,42,114,36
0,61,92,0
0,66,88,0
0,54,84,4
0,57,78,0
0,42,127,24
0,54,97,0
0,61,100,0
0,66,95,4
0,57,88,0
0,42,109,12
0,57,82,0
0,54,97,4
0,61,97,0
0,66,98,0
0,36,127,40
0,42,99,0
0,54,103,4
0,61,108,0
0,57,96,0
0,66,104,0
0,42,108,32
0,61,98,0
0,66,100,4
0,57,83,0
0,54,100,0
0,61,119,20
0,54,127,0
0,57,116,0
0,64,117,4
0,42,122,4
0,54,89,0
0,61,102,4
0,66,101,0
0,57,83,0
0,42,105,8
0,54,108,0
0,66,104,4
0,61,104,0
0,57,94,0
0,36,127,40
0,42,97,0
0,54,105,4
0,61,104,0
0,63,104,0
0,57,102,4
0,42,105,36
0,54,89,0
0,61,87,0
0,66,89,0
0,57,73,0
0,42,118,32
0,54,94,0
0,61,98,4
0,66,96,0
0,57,83,0
0,42,104,12
0,36,127,40
0,42,93,0
0,54,121,4
0,61,102,0
0,66,97,0
0,57,92,0
0,42,107,36
0,54,90,0
0,61,85,0
0,57,64,4
0,66,83,0
0,54,103,4
0,61,103,0
0,64,102,0
0,57,101,4
0,42,127,12
0,61,89,0
0,66,92,0
0,54,89,0
0,57,78,0
0,42,106,16
0,54,110,0
0,61,103,0
0,66,103,4
0,57,93,0
0,61,98,8
0,54,107,0
0,63,101,0
0,57,93,4
0,36,127,0
0,42,100,0
0,42,115,36
0,54,91,0
0,61,89,0
0,66,87,4
0,57,73,0
0,42,127,36
0,54,102,0
0,61,96,0
0,66,98,4
0,57,85,0
0,42,114,8
0,36,127,44
0,42,104,4
0,54,108,0
0,66,100,0
0,61,102,0
0,57,88,0
0,42,106,32
0,54,94,0
0,61,90,4
0,66,91,0
0,57,77,0
0,42,127,32
0,54,90,0
0,66,96,4
0,61,93,0
0,57,77,0
0,42,115,24
0,54,101,0
0,66,100,4
0,61,98,0
0,57,84,0
0,36,127,32
0,42,100,0
0,42,108,28
0,61,81,0
0,57,71,0
0,54,87,4
0,54,127,8
0,42,127,28
0,61,94,0
0,57,85,0
0,66,97,4
0,54,101,0
0,42,109,8
0,36,127,40
0,42,93,0
0,54,127,4
0,54,113,0
0,61,101,0
0,66,98,0
0,57,95,0
0,42,110,12
0,42,124,36
0,54,92,0
0,61,93,0
0,66,89,4
0,57,77,0
0,54,127,4
0,54,127,32
0,42,106,4
0,54,103,0
0,61,100,4
0,57,92,0
0,66,103,0
0,36,127,40
0,42,95,0
0,42,109,24
0,61,96,0
0,54,127,4
0,57,84,0
0,66,94,0
0,54,100,0
0,42,127,36
0,54,96,0
0,61,100,4
0,66,98,0
0,57,85,0
0,42,112,4
0,36,127,40
0,42,108,0
0,61,98,4
0,56,106,0
0,65,105,0
0,59,100,0
0,53,102,0
0,53,100,0
0,53,127,4
0,56,104,0
0,61,104,0
0,59,104,0
0,42,107,20
0,56,81,0
0,59,84,0
0,65,81,4
0,61,95,0
0,53,87,0
0,42,118,24
0,56,81,0
0,59,93,4
0,61,90,0
0,65,85,0
0,53,100,0
0,42,109,16
0,61,101,0
0,59,104,0
0,65,105,4
0,56,102,0
0,53,99,0
0,56,127,24
0,36,127,32
0,42,98,0
0,42,103,0
0,53,80,0
0,59,80,0
0,56,77,0
0,61,69,0
0,61,104,16
0,57,104,0
0,54,104,4
0,57,127,8
0,42,122,0
0,61,103,4
0,54,110,0
0,57,107,0
0,66,104,0
0,42,110,8
0,36,127,40
0,42,96,4
0,61,103,0
0,54,110,0
0,66,98,0
0,57,99,0
0,59,127,12
0,42,100,24
0,61,93,0
0,57,75,4
0,66,87,0
0,54,91,0
0,42,127,36
0,61,102,0
0,66,93,4
0,57,83,0
0,54,89,0
0,61,127,8
0,42,106,24
0,54,106,0
0,61,108,4
0,66,101,0
0,57,94,0
0,36,127,40
0,42,91,0
0,42,106,24
0,54,95,0
0,61,101,0
0,66,100,4
0,57,81,0
0,42,122,24
0,54,101,0
0,61,103,0
0,66,102,4
0,57,94,0
0,42,105,12
0,36,127,28
0,42,104,0
0,54,104,4
0,61,101,0
0,57,95,0
0,66,104,0
0,42,106,28
0,54,90,0
0,61,94,4
0,57,79,0
0,66,93,0
0,42,124,36
0,61,89,0
0,54,87,0
0,66,94,4
0,57,74,0
0,42,109,40
0,54,101,0
0,61,104,0
0,57,94,4
0,66,104,0
0,36,127,40
0,42,96,0
0,42,114,36
0,66,95,0
0,61,93,4
0,57,83,0
0,54,82,0
0,42,127,32
0,54,102,0
0,66,103,4
0,61,106,0
0,57,98,0
0,42,106,8
0,36,127,28
0,42,94,0
0,54,104,4
0,57,93,0
0,66,97,0
0,61,98,0
0,62,127,16
0,42,105,12
0,57,70,0
0,66,81,0
0,61,93,4
0,54,98,0
0,42,122,12
0,54,102,0
0,57,84,4
0,61,96,0
0,66,100,0
0,61,127,24
0,42,110,8
0,54,106,0
0,57,95,0
0,66,108,4
0,61,104,0
0,36,127,40
0,42,105,0
0,57,127,4
0,42,112,24
0,61,97,0
0,57,84,0
0,54,95,4
0,66,97,0
0,42,122,20
0,54,106,0
0,61,127,4
0,66,103,0
0,61,103,0
0,57,95,0
0,42,111,0
0,61,104,32
0,36,127,4
0,42,104,4
0,53,112,0
0,56,101,0
0,59,97,0
0,61,97,0
0,59,104,4
0,56,104,0
0,59,127,4
0,53,104,0
0,42,107,0
0,42,122,44
0,53,95,0
0,61,86,4
0,59,88,0
0,56,81,0
0,56,127,8
0,42,114,0
0,56,106,4
0,59,105,0
0,53,107,0
0,61,100,0
0,36,127,44
0,42,97,0
0,42,112,36
0,53,97,0
0,56,94,0
0,61,95,4
0,59,92,0
0,42,124,24
0,53,107,0
0,56,103,0
0,61,100,4
0,59,99,0
0,42,112,4
0,62,104,28
0,36,127,12
0,42,105,0
0,53,109,4
0,56,103,0
0,59,100,0
0,62,96,0
0,42,110,28
0,42,127,40
0,53,94,0
0,59,88,0
0,56,85,4
0,62,86,0
0,42,111,44
0,53,105,0
0,56,106,4
0,59,107,0
0,62,104,0
0,36,127,40
0,42,104,0
0,42,110,28
0,59,92,0
0,56,89,4
0,62,93,0
0,53,92,0
0,42,124,32
0,53,104,0
0,59,104,4
0,56,102,0
0,62,92,0
0,42,110,0
0,61,104,24
0,36,127,16
0,42,102,4
0,53,107,0
0,56,102,0
0,59,92,0
0,61,92,0
0,68,127,12
0,42,107,20
0,68,127,12
0,42,124,40
0,53,97,0
0,59,89,0
0,61,87,4
0,56,82,0
0,42,111,40
0,56,102,0
0,59,96,0
0,68,127,4
0,61,98,0
0,53,104,0
0,36,127,0
0,42,99,0
0,65,127,12
0,42,106,24
0,56,103,0
0,59,97,0
0,61,98,4
0,53,100,0
0,49,95,0
0,42,124,32
0,56,93,0
0,59,89,4
0,53,100,0
0,61,95,0
0,49,104,0
0,65,127,4
0,42,106,4
0,36,127,48
0,61,127,4
0,42,103,0
0,49,102,0
0,53,107,0
0,56,98,0
0,59,95,0
0,61,96,0
0,42,106,4
0,42,124,40
0,53,88,0
0,49,88,4
0,59,85,0
0,61,89,0
0,56,85,0
0,42,107,20
0,53,109,0
0,49,103,4
0,56,103,0
0,59,98,0
0,61,98,0
0,36,127,4
0,42,98,0
0,42,111,36
0,61,83,0
0,53,92,0
0,49,89,4
0,56,86,0
0,59,88,0
0,42,124,36
0,53,107,0
0,49,102,0
0,61,96,4
0,56,104,0
0,59,95,0
0,42,110,0
0,36,127,48
0,42,102,0
0,49,96,4
0,53,104,0
0,61,88,0
0,56,101,0
0,59,94,0
0,42,111,28
0,61,77,0
0,49,90,4
0,53,86,0
0,59,87,0
0,56,85,0
0,42,127,24
0,56,83,0
0,61,87,0
0,59,88,4
0,53,95,0
0,49,94,0
0,61,127,4
0,42,110,24
0,49,100,0
0,53,100,4
0,56,104,0
0,61,97,0
0,59,100,0
0,36,127,32
0,42,96,0
0,61,127,28
0,42,109,0
0,49,84,4
0,53,83,0
0,61,92,0
0,59,88,0
0,56,79,0
0,42,120,24
0,61,94,0
0,49,106,4
0,53,112,0
0,59,99,0
0,56,103,0
0,42,108,0
0,59,127,4
0,36,127,36
0,42,100,0
0,61,127,4
0,53,107,0
0,49,104,0
0,56,104,0
0,61,94,0
0,59,96,0
0,42,109,0
0,42,127,28
0,53,79,0
0,61,76,0
0,59,77,4
0,56,74,0
0,49,88,0
0,42,107,36
0,53,107,0
0,49,101,0
0,61,94,4
0,56,98,0
0,59,98,0
0,62,127,8
0,36,127,4
0,42,99,0
0,42,109,32
0,61,87,0
0,53,88,0
0,49,88,4
0,59,83,0
0,56,81,0
0,59,127,20
0,42,127,12
0,53,109,0
0,49,103,4
0,56,97,0
0,61,91,0
0,59,96,0
0,42,108,0
0,61,127,44
0,36,127,4
0,42,102,4
0,53,104,0
0,49,97,0
0,61,87,0
0,56,88,0
0,59,92,0
0,42,106,28
0,49,94,0
0,56,81,0
0,53,93,4
0,61,84,0
0,59,84,0
0,42,124,20
0,61,79,0
0,59,77,4
0,56,69,0
0,53,94,0
0,49,92,0
0,42,108,36
0,56,92,0
0,61,92,0
0,59,98,4
0,49,96,0
0,53,102,0
0,36,127,28
0,42,96,0
0,42,107,36
0,61,83,0
0,59,85,0
0,56,83,4
0,53,95,0
0,49,91,0
0,42,122,32
0,59,91,0
0,56,92,0
0,53,104,4
0,49,101,0
0,61,95,0
0,42,106,0
0,36,127,40
0,42,102,0
0,49,102,4
0,53,107,0
0,61,91,0
0,59,96,0
0,65,97,0
0,56,91,0
0,42,108,0
0,42,124,40
0,49,94,0
0,53,93,0
0,59,83,4
0,61,85,0
0,56,86,0
0,65,84,0
0,42,108,28
0,56,95,0
0,38,127,4
0,65,97,0
0,49,97,0
0,53,102,0
0,61,94,0
0,59,95,0
0,59,127,4
0,36,127,40
0,42,99,0
0,38,127,0
0,42,99,24
0,59,90,0
0,61,87,4
0,56,91,0
0,65,88,0
0,53,100,0
0,49,95,0
0,57,127,24
0,42,124,4
0,56,92,0
0,38,124,4
0,65,97,0
0,61,91,0
0,59,95,0
0,53,104,0
0,49,101,0
0,42,106,4
0,38,127,0
0,61,104,28
0,54,104,0
0,57,104,0
0,36,127,4
0,42,106,4
0,56,112,0
0,54,117,0
0,61,97,0
0,57,100,0
0,66,100,0
0,42,127,0
0,49,124,4
0,54,124,0
0,54,127,16
0,42,100,4
0,42,124,40
0,61,89,0
0,57,81,0
0,54,85,4
0,66,91,0
0,42,109,28
0,37,127,0
0,56,90,4
0,54,111,0
0,54,104,0
0,61,101,0
0,66,101,0
0,57,94,0
0,36,127,40
0,42,95,0
0,56,90,0
0,38,127,4
0,42,105,32
0,66,93,0
0,54,101,0
0,57,88,4
0,61,94,0
0,42,124,20
0,40,127,0
0,54,118,4
0,54,106,0
0,61,104,0
0,57,96,0
0,66,102,0
0,42,106,12
0,36,127,28
0,42,99,4
0,56,100,0
0,54,108,0
0,61,97,0
0,57,95,0
0,66,97,0
0,45,127,0
0,54,117,4
0,42,104,16
0,66,62,0
0,61,85,4
0,54,96,0
0,42,118,36
0,61,95,0
0,57,84,4
0,54,98,0
0,66,92,0
0,65,120,8
0,42,104,32
0,44,127,0
0,56,89,4
0,38,107,0
0,54,120,0
0,57,95,0
0,61,104,0
0,54,104,0
0,66,104,0
0,65,127,4
0,65,120,32
0,36,127,4
0,42,98,0
0,56,93,0
0,38,127,4
0,65,127,0
0,42,107,8
0,61,85,0
0,54,93,0
0,54,101,4
0,57,81,0
0,66,86,0
0,65,127,16
0,42,122,8
0,40,127,0
0,54,122,4
0,57,87,0
0,66,95,0
0,61,100,0
0,54,102,0
0,65,127,4
0,42,105,8
0,36,127,40
0,42,97,0
0,56,104,4
0,54,108,0
0,61,97,0
0,57,90,0
0,66,97,0
0,42,127,0
0,54,121,4
0,42,107,0
0,66,123,32
0,42,120,8
0,66,81,0
0,61,81,0
0,54,87,4
0,57,70,0
0,66,127,16
0,42,108,8
0,37,127,0
0,56,92,4
0,54,118,0
0,54,108,0
0,57,94,0
0,61,103,0
0,66,104,0
0,66,127,24
0,36,127,12
0,42,103,0
0,56,97,0
0,38,127,4
0,66,127,12
0,42,103,0
0,54,93,0
0,57,73,4
0,61,85,0
0,66,74,0
0,66,127,24
0,42,118,4
0,57,90,0
0,40,127,0
0,54,107,4
0,61,100,0
0,66,96,0
0,54,110,0
0,42,105,36
0,54,127,8
0,36,127,16
0,42,101,0
0,56,106,4
0,61,96,0
0,66,96,0
0,54,108,0
0,57,87,0
0,42,127,0
0,54,115,0
0,42,107,28
0,66,76,0
0,61,86,4
0,57,66,0
0,54,93,0
0,54,127,8
0,42,122,36
0,66,96,0
0,61,92,4
0,57,76,0
0,54,103,0
0,42,105,36
0,37,127,0
0,56,102,4
0,38,110,0
0,54,106,0
0,54,108,0
0,61,103,0
0,66,102,0
0,57,95,0
0,36,127,32
0,42,104,0
0,56,102,0
0,54,127,4
0,38,124,0
0,42,109,8
0,54,101,0
0,61,92,0
0,66,93,4
0,57,78,0
0,42,120,16
0,40,127,0
0,54,116,4
0,61,102,0
0,66,97,0
0,54,113,0
0,57,91,0
0,54,127,8
0,42,109,0
0,54,118,0
0,36,127,28
0,42,104,4
0,53,105,0
0,61,106,0
0,49,113,0
0,56,113,0
0,59,105,0
0,42,127,0
0,56,127,4
