track,note,velocity,time
1.0,64.0,100.0,2008.0
1.0,64.0,0.0,60.0
1.0,69.0,100.0,0.0
1.0,69.0,0.0,60.0
1.0,69.0,100.0,0.0
1.0,69.0,0.0,60.0
1.0,73.0,100.0,0.0
1.0,73.0,0.0,60.0
1.0,73.0,100.0,0.0
1.0,73.0,0.0,120.0
1.0,69.0,100.0,0.0
1.0,69.0,0.0,120.0
1.0,64.0,100.0,0.0
1.0,64.0,0.0,360.0
1.0,64.0,100.0,120.0
1.0,64.0,0.0,60.0
1.0,69.0,100.0,0.0
1.0,69.0,0.0,60.0
1.0,69.0,100.0,0.0
1.0,69.0,0.0,60.0
1.0,73.0,100.0,0.0
1.0,73.0,0.0,60.0
1.0,73.0,100.0,0.0
1.0,73.0,0.0,120.0
1.0,69.0,100.0,0.0
1.0,69.0,0.0,120.0
1.0,62.0,100.0,0.0
1.0,62.0,0.0,360.0
1.0,64.0,100.0,120.0
1.0,64.0,0.0,60.0
1.0,69.0,100.0,0.0
1.0,69.0,0.0,60.0
1.0,69.0,100.0,0.0
1.0,69.0,0.0,60.0
1.0,73.0,100.0,0.0
1.0,73.0,0.0,60.0
1.0,73.0,100.0,0.0
1.0,73.0,0.0,60.0
1.0,69.0,100.0,0.0
1.0,69.0,0.0,60.0
1.0,76.0,100.0,0.0
1.0,76.0,0.0,120.0
1.0,73.0,100.0,0.0
1.0,73.0,0.0,60.0
1.0,69.0,100.0,0.0
1.0,69.0,0.0,60.0
1.0,76.0,100.0,0.0
1.0,76.0,0.0,120.0
1.0,73.0,100.0,0.0
1.0,73.0,0.0,60.0
1.0,69.0,100.0,0.0
1.0,69.0,0.0,60.0
1.0,76.0,100.0,0.0
1.0,76.0,0.0,240.0
1.0,57.0,100.0,120.0
1.0,57.0,0.0,720.0
1.0,62.0,100.0,2161.0
1.0,66.0,100.0,115.0
1.0,62.0,0.0,5.0
1.0,66.0,0.0,115.0
1.0,69.0,100.0,0.0
1.0,69.0,0.0,120.0
1.0,71.0,100.0,4.0
1.0,71.0,0.0,360.0
1.0,69.0,100.0,0.0
1.0,69.0,0.0,360.0
1.0,74.0,100.0,0.0
1.0,74.0,0.0,120.0
1.0,73.0,100.0,0.0
1.0,73.0,0.0,120.0
1.0,74.0,100.0,0.0
1.0,74.0,0.0,120.0
1.0,76.0,100.0,0.0
1.0,76.0,0.0,240.0
1.0,78.0,100.0,0.0
1.0,78.0,0.0,120.0
1.0,78.0,100.0,0.0
1.0,78.0,0.0,240.0
1.0,74.0,100.0,0.0
1.0,74.0,0.0,120.0
1.0,76.0,100.0,0.0
1.0,76.0,0.0,240.0
1.0,78.0,100.0,0.0
1.0,78.0,0.0,120.0
1.0,78.0,100.0,0.0
1.0,78.0,0.0,240.0
1.0,74.0,100.0,0.0
1.0,74.0,0.0,120.0
1.0,76.0,100.0,0.0
1.0,76.0,0.0,240.0
1.0,78.0,100.0,0.0
1.0,78.0,0.0,120.0
1.0,79.0,100.0,0.0
1.0,79.0,0.0,240.0
1.0,78.0,100.0,0.0
1.0,78.0,0.0,120.0
1.0,76.0,100.0,0.0
1.0,76.0,0.0,240.0
1.0,78.0,100.0,0.0
1.0,78.0,0.0,120.0
1.0,74.0,100.0,0.0
1.0,74.0,0.0,360.0
1.0,69.0,100.0,8160.0
1.0,69.0,0.0,120.0
1.0,71.0,100.0,0.0
1.0,71.0,0.0,240.0
1.0,73.0,100.0,0.0
1.0,73.0,0.0,60.0
1.0,71.0,100.0,0.0
1.0,71.0,0.0,60.0
1.0,69.0,100.0,0.0
1.0,69.0,0.0,240.0
1.0,57.0,100.0,0.0
1.0,57.0,0.0,120.0
1.0,59.0,100.0,0.0
1.0,59.0,0.0,240.0
1.0,61.0,100.0,0.0
1.0,61.0,0.0,60.0
1.0,62.0,100.0,0.0
1.0,62.0,0.0,60.0
1.0,61.0,100.0,0.0
1.0,61.0,0.0,60.0
1.0,59.0,100.0,0.0
1.0,59.0,0.0,60.0
1.0,57.0,100.0,0.0
1.0,57.0,0.0,360.0
1.0,64.0,100.0,360.0
1.0,64.0,0.0,60.0
1.0,69.0,100.0,0.0
1.0,69.0,0.0,60.0
1.0,69.0,100.0,0.0
1.0,69.0,0.0,60.0
1.0,73.0,100.0,0.0
1.0,73.0,0.0,60.0
1.0,73.0,100.0,0.0
1.0,73.0,0.0,120.0
1.0,69.0,100.0,0.0
1.0,69.0,0.0,120.0
1.0,64.0,100.0,0.0
1.0,64.0,0.0,360.0
1.0,64.0,100.0,120.0
1.0,64.0,0.0,60.0
1.0,69.0,100.0,0.0
1.0,69.0,0.0,60.0
1.0,69.0,100.0,0.0
1.0,69.0,0.0,60.0
1.0,73.0,100.0,0.0
1.0,73.0,0.0,60.0
1.0,73.0,100.0,0.0
1.0,73.0,0.0,120.0
1.0,69.0,100.0,0.0
1.0,69.0,0.0,120.0
1.0,62.0,100.0,0.0
1.0,62.0,0.0,360.0
1.0,64.0,100.0,120.0
1.0,64.0,0.0,60.0
1.0,69.0,100.0,0.0
1.0,69.0,0.0,60.0
1.0,69.0,100.0,0.0
1.0,69.0,0.0,60.0
1.0,73.0,100.0,0.0
1.0,73.0,0.0,60.0
1.0,73.0,100.0,0.0
1.0,73.0,0.0,120.0
1.0,69.0,100.0,0.0
1.0,69.0,0.0,120.0
1.0,76.0,100.0,0.0
1.0,76.0,0.0,120.0
1.0,73.0,100.0,0.0
1.0,73.0,0.0,60.0
1.0,69.0,100.0,0.0
1.0,69.0,0.0,60.0
1.0,76.0,100.0,0.0
1.0,76.0,0.0,120.0
1.0,73.0,100.0,0.0
1.0,73.0,0.0,60.0
1.0,69.0,100.0,0.0
1.0,69.0,0.0,60.0
1.0,76.0,100.0,0.0
1.0,76.0,0.0,360.0
1.0,57.0,100.0,120.0
1.0,57.0,0.0,480.0
2.0,40.0,100.0,191.0
2.0,40.0,100.0,0.0
2.0,40.0,0.0,15.0
2.0,40.0,0.0,0.0
2.0,40.0,100.0,0.0
2.0,40.0,100.0,0.0
2.0,40.0,0.0,15.0
2.0,40.0,0.0,0.0
2.0,40.0,100.0,0.0
2.0,40.0,100.0,0.0
2.0,40.0,0.0,15.0
2.0,40.0,0.0,0.0
2.0,40.0,100.0,0.0
2.0,40.0,0.0,60.0
2.0,40.0,100.0,0.0
2.0,40.0,0.0,60.0
2.0,40.0,100.0,0.0
2.0,40.0,0.0,30.0
2.0,40.0,100.0,0.0
2.0,40.0,0.0,30.0
2.0,40.0,100.0,0.0
2.0,40.0,0.0,30.0
2.0,40.0,100.0,0.0
2.0,40.0,0.0,30.0
2.0,40.0,100.0,0.0
2.0,40.0,0.0,120.0
2.0,40.0,100.0,555.0
2.0,40.0,100.0,0.0
2.0,40.0,0.0,15.0
2.0,40.0,0.0,0.0
2.0,40.0,100.0,0.0
2.0,40.0,100.0,0.0
2.0,40.0,0.0,15.0
2.0,40.0,0.0,0.0
2.0,40.0,100.0,0.0
2.0,40.0,100.0,0.0
2.0,40.0,0.0,15.0
2.0,40.0,0.0,0.0
2.0,40.0,100.0,0.0
2.0,40.0,0.0,60.0
2.0,40.0,100.0,0.0
2.0,40.0,0.0,60.0
2.0,40.0,100.0,0.0
2.0,40.0,0.0,30.0
2.0,40.0,100.0,0.0
2.0,40.0,0.0,30.0
2.0,40.0,100.0,0.0
2.0,40.0,0.0,30.0
2.0,40.0,100.0,0.0
2.0,40.0,0.0,30.0
2.0,40.0,100.0,0.0
2.0,40.0,0.0,120.0
2.0,40.0,100.0,10.0
2.0,40.0,0.0,2.0
2.0,40.0,100.0,0.0
2.0,40.0,0.0,2.0
2.0,40.0,100.0,0.0
2.0,40.0,0.0,2.0
2.0,40.0,100.0,0.0
2.0,40.0,0.0,12.0
2.0,29.0,100.0,0.0
2.0,55.0,100.0,0.0
2.0,57.0,100.0,0.0
2.0,59.0,100.0,0.0
2.0,40.0,100.0,0.0
2.0,29.0,0.0,60.0
2.0,40.0,0.0,60.0
2.0,55.0,0.0,120.0
2.0,57.0,0.0,0.0
2.0,59.0,0.0,0.0
2.0,29.0,100.0,928.0
2.0,57.0,100.0,0.0
2.0,55.0,100.0,0.0
2.0,59.0,100.0,0.0
2.0,59.0,0.0,120.0
2.0,29.0,0.0,0.0
2.0,57.0,0.0,0.0
2.0,55.0,0.0,0.0
2.0,55.0,100.0,600.0
2.0,59.0,100.0,0.0
2.0,57.0,100.0,0.0
2.0,29.0,100.0,0.0
2.0,29.0,0.0,120.0
2.0,55.0,0.0,0.0
2.0,59.0,0.0,0.0
2.0,57.0,0.0,0.0
3.0,29.0,100.0,266.0
3.0,5.0,100.0,0.0
3.0,5.0,0.0,60.0
3.0,29.0,0.0,0.0
3.0,5.0,100.0,0.0
3.0,29.0,100.0,0.0
3.0,29.0,0.0,60.0
3.0,5.0,0.0,0.0
3.0,5.0,100.0,0.0
3.0,29.0,100.0,0.0
3.0,29.0,0.0,30.0
3.0,5.0,0.0,0.0
3.0,5.0,100.0,0.0
3.0,29.0,100.0,0.0
3.0,29.0,0.0,30.0
3.0,5.0,0.0,0.0
3.0,5.0,100.0,0.0
3.0,29.0,100.0,0.0
3.0,29.0,0.0,30.0
3.0,5.0,0.0,0.0
3.0,5.0,100.0,0.0
3.0,29.0,100.0,0.0
3.0,29.0,0.0,30.0
3.0,5.0,0.0,0.0
3.0,5.0,100.0,0.0
3.0,29.0,100.0,0.0
3.0,29.0,0.0,120.0
3.0,5.0,0.0,0.0
3.0,5.0,100.0,600.0
3.0,29.0,100.0,0.0
3.0,29.0,0.0,60.0
3.0,5.0,0.0,0.0
3.0,5.0,100.0,0.0
3.0,29.0,100.0,0.0
3.0,29.0,0.0,60.0
3.0,5.0,0.0,0.0
3.0,5.0,100.0,0.0
3.0,29.0,100.0,0.0
3.0,29.0,0.0,30.0
3.0,5.0,0.0,0.0
3.0,5.0,100.0,0.0
3.0,29.0,100.0,0.0
3.0,29.0,0.0,30.0
3.0,5.0,0.0,0.0
3.0,5.0,100.0,0.0
3.0,29.0,100.0,0.0
3.0,29.0,0.0,30.0
3.0,5.0,0.0,0.0
3.0,5.0,100.0,0.0
3.0,29.0,100.0,0.0
3.0,29.0,0.0,30.0
3.0,5.0,0.0,0.0
3.0,5.0,100.0,0.0
3.0,29.0,100.0,0.0
3.0,29.0,0.0,120.0
3.0,5.0,0.0,0.0
3.0,33.0,100.0,6540.0
3.0,33.0,0.0,60.0
3.0,33.0,100.0,0.0
3.0,33.0,0.0,120.0
3.0,43.0,100.0,1920.0
3.0,43.0,0.0,15.0
3.0,43.0,100.0,0.0
3.0,43.0,0.0,15.0
3.0,43.0,100.0,0.0
3.0,43.0,0.0,15.0
3.0,43.0,100.0,0.0
3.0,43.0,0.0,15.0
3.0,43.0,100.0,0.0
3.0,43.0,0.0,15.0
3.0,43.0,100.0,0.0
3.0,43.0,0.0,15.0
3.0,43.0,100.0,0.0
3.0,43.0,0.0,15.0
3.0,43.0,100.0,0.0
3.0,43.0,0.0,15.0
3.0,33.0,100.0,0.0
3.0,43.0,100.0,0.0
3.0,43.0,0.0,120.0
3.0,33.0,0.0,0.0
3.0,43.0,100.0,480.0
3.0,43.0,0.0,15.0
3.0,43.0,100.0,0.0
3.0,43.0,0.0,15.0
3.0,43.0,100.0,0.0
3.0,43.0,0.0,15.0
3.0,43.0,100.0,0.0
3.0,43.0,0.0,15.0
3.0,43.0,100.0,0.0
3.0,43.0,0.0,15.0
3.0,43.0,100.0,0.0
3.0,43.0,0.0,15.0
3.0,43.0,100.0,0.0
3.0,43.0,0.0,15.0
3.0,43.0,100.0,0.0
3.0,43.0,0.0,15.0
3.0,33.0,100.0,0.0
3.0,43.0,100.0,0.0
3.0,43.0,0.0,120.0
3.0,33.0,0.0,0.0
3.0,40.0,100.0,240.0
3.0,40.0,0.0,120.0
3.0,33.0,100.0,240.0
3.0,33.0,0.0,120.0
3.0,40.0,100.0,5640.0
3.0,40.0,0.0,120.0
3.0,38.0,100.0,240.0
3.0,38.0,0.0,120.0
3.0,33.0,100.0,240.0
3.0,33.0,0.0,120.0
3.0,40.0,100.0,600.0
3.0,40.0,0.0,120.0
3.0,38.0,100.0,240.0
3.0,38.0,0.0,120.0
3.0,33.0,100.0,240.0
3.0,33.0,0.0,120.0
4.0,9.0,100.0,192.0
4.0,9.0,100.0,60.0
4.0,9.0,0.0,60.0
4.0,9.0,0.0,0.0
4.0,9.0,100.0,0.0
4.0,9.0,0.0,30.0
4.0,9.0,100.0,0.0
4.0,9.0,0.0,30.0
4.0,9.0,100.0,0.0
4.0,9.0,0.0,30.0
4.0,9.0,100.0,0.0
4.0,9.0,0.0,30.0
4.0,9.0,100.0,0.0
4.0,9.0,0.0,240.0
4.0,9.0,100.0,480.0
4.0,9.0,100.0,60.0
4.0,9.0,0.0,60.0
4.0,9.0,0.0,0.0
4.0,9.0,100.0,0.0
4.0,9.0,0.0,30.0
4.0,9.0,100.0,0.0
4.0,9.0,0.0,30.0
4.0,9.0,100.0,0.0
4.0,9.0,0.0,30.0
4.0,9.0,100.0,0.0
4.0,9.0,0.0,30.0
4.0,9.0,100.0,0.0
4.0,9.0,0.0,240.0
5.0,14.0,100.0,530.0
5.0,14.0,0.0,720.0
5.0,14.0,100.0,240.0
5.0,14.0,0.0,720.0
6.0,9.0,100.0,480.0
6.0,16.0,100.0,0.0
6.0,16.0,0.0,240.0
6.0,9.0,0.0,480.0
6.0,9.0,100.0,240.0
6.0,16.0,100.0,0.0
6.0,16.0,0.0,240.0
6.0,9.0,0.0,480.0
7.0,50.0,100.0,5934.0
7.0,38.0,100.0,0.0
7.0,62.0,100.0,0.0
7.0,62.0,0.0,120.0
7.0,66.0,100.0,0.0
7.0,66.0,0.0,120.0
7.0,69.0,100.0,0.0
7.0,69.0,0.0,120.0
7.0,38.0,0.0,0.0
7.0,50.0,0.0,0.0
7.0,55.0,100.0,0.0
7.0,43.0,100.0,0.0
7.0,62.0,100.0,0.0
7.0,67.0,100.0,0.0
7.0,71.0,100.0,0.0
7.0,71.0,0.0,360.0
7.0,62.0,0.0,0.0
7.0,55.0,0.0,0.0
7.0,43.0,0.0,0.0
7.0,67.0,0.0,0.0
7.0,50.0,100.0,0.0
7.0,38.0,100.0,0.0
7.0,69.0,100.0,0.0
7.0,66.0,100.0,0.0
7.0,62.0,100.0,0.0
7.0,62.0,0.0,360.0
7.0,69.0,0.0,0.0
7.0,50.0,0.0,0.0
7.0,38.0,0.0,0.0
7.0,66.0,0.0,0.0
7.0,66.0,100.0,0.0
7.0,71.0,100.0,0.0
7.0,74.0,100.0,0.0
7.0,47.0,100.0,0.0
7.0,35.0,100.0,0.0
7.0,74.0,0.0,120.0
7.0,73.0,100.0,0.0
7.0,73.0,0.0,120.0
7.0,74.0,100.0,0.0
7.0,74.0,0.0,120.0
7.0,47.0,0.0,0.0
7.0,66.0,0.0,0.0
7.0,71.0,0.0,0.0
7.0,35.0,0.0,0.0
7.0,45.0,100.0,0.0
7.0,33.0,100.0,0.0
7.0,73.0,100.0,0.0
7.0,69.0,100.0,0.0
7.0,76.0,100.0,0.0
7.0,76.0,0.0,240.0
7.0,73.0,0.0,0.0
7.0,69.0,0.0,0.0
7.0,73.0,100.0,0.0
7.0,73.0,0.0,120.0
7.0,33.0,0.0,0.0
7.0,45.0,0.0,0.0
7.0,50.0,100.0,0.0
7.0,38.0,100.0,0.0
7.0,69.0,100.0,0.0
7.0,66.0,100.0,0.0
7.0,62.0,100.0,0.0
7.0,62.0,0.0,360.0
7.0,69.0,0.0,0.0
7.0,50.0,0.0,0.0
7.0,38.0,0.0,0.0
7.0,66.0,0.0,0.0
7.0,50.0,100.0,0.0
7.0,38.0,100.0,0.0
7.0,62.0,100.0,0.0
7.0,62.0,0.0,120.0
7.0,66.0,100.0,0.0
7.0,66.0,0.0,120.0
7.0,69.0,100.0,0.0
7.0,69.0,0.0,120.0
7.0,38.0,0.0,0.0
7.0,50.0,0.0,0.0
7.0,52.0,100.0,0.0
7.0,67.0,100.0,0.0
7.0,55.0,100.0,0.0
7.0,43.0,100.0,0.0
7.0,71.0,100.0,0.0
7.0,71.0,0.0,360.0
7.0,55.0,0.0,0.0
7.0,52.0,0.0,0.0
7.0,67.0,0.0,0.0
7.0,43.0,0.0,0.0
7.0,73.0,100.0,0.0
7.0,66.0,100.0,0.0
7.0,69.0,100.0,0.0
7.0,54.0,100.0,0.0
7.0,42.0,100.0,0.0
7.0,42.0,0.0,360.0
7.0,69.0,0.0,0.0
7.0,73.0,0.0,0.0
7.0,66.0,0.0,0.0
7.0,54.0,0.0,0.0
7.0,66.0,100.0,0.0
7.0,71.0,100.0,0.0
7.0,74.0,100.0,0.0
7.0,47.0,100.0,0.0
7.0,35.0,100.0,0.0
7.0,74.0,0.0,120.0
7.0,73.0,100.0,0.0
7.0,73.0,0.0,120.0
7.0,74.0,100.0,0.0
7.0,74.0,0.0,120.0
7.0,47.0,0.0,0.0
7.0,66.0,0.0,0.0
7.0,71.0,0.0,0.0
7.0,35.0,0.0,0.0
7.0,73.0,100.0,0.0
7.0,69.0,100.0,0.0
7.0,76.0,100.0,0.0
7.0,45.0,100.0,0.0
7.0,33.0,100.0,0.0
7.0,76.0,0.0,240.0
7.0,73.0,0.0,0.0
7.0,69.0,0.0,0.0
7.0,78.0,100.0,0.0
7.0,78.0,0.0,120.0
7.0,45.0,0.0,0.0
7.0,33.0,0.0,0.0
7.0,38.0,100.0,0.0
7.0,50.0,100.0,0.0
7.0,69.0,100.0,0.0
7.0,74.0,100.0,0.0
7.0,78.0,100.0,0.0
7.0,78.0,0.0,240.0
7.0,69.0,0.0,0.0
7.0,74.0,0.0,0.0
7.0,74.0,100.0,0.0
7.0,74.0,0.0,120.0
7.0,50.0,0.0,0.0
7.0,38.0,0.0,0.0
7.0,45.0,100.0,0.0
7.0,33.0,100.0,0.0
7.0,69.0,100.0,0.0
7.0,73.0,100.0,0.0
7.0,76.0,100.0,0.0
7.0,76.0,0.0,240.0
7.0,69.0,0.0,0.0
7.0,73.0,0.0,0.0
7.0,78.0,100.0,0.0
7.0,78.0,0.0,120.0
7.0,33.0,0.0,0.0
7.0,45.0,0.0,0.0
7.0,50.0,100.0,0.0
7.0,38.0,100.0,0.0
7.0,69.0,100.0,0.0
7.0,74.0,100.0,0.0
7.0,78.0,100.0,0.0
7.0,78.0,0.0,240.0
7.0,69.0,0.0,0.0
7.0,74.0,0.0,0.0
7.0,74.0,100.0,0.0
7.0,74.0,0.0,120.0
7.0,38.0,0.0,0.0
7.0,50.0,0.0,0.0
7.0,45.0,100.0,0.0
7.0,33.0,100.0,0.0
7.0,69.0,100.0,0.0
7.0,73.0,100.0,0.0
7.0,76.0,100.0,0.0
7.0,76.0,0.0,240.0
7.0,69.0,0.0,0.0
7.0,73.0,0.0,0.0
7.0,78.0,100.0,0.0
7.0,78.0,0.0,120.0
7.0,33.0,0.0,0.0
7.0,45.0,0.0,0.0
7.0,52.0,100.0,0.0
7.0,40.0,100.0,0.0
7.0,71.0,100.0,0.0
7.0,76.0,100.0,0.0
7.0,79.0,100.0,0.0
7.0,79.0,0.0,240.0
7.0,71.0,0.0,0.0
7.0,76.0,0.0,0.0
7.0,78.0,100.0,0.0
7.0,78.0,0.0,120.0
7.0,40.0,0.0,0.0
7.0,52.0,0.0,0.0
7.0,33.0,100.0,0.0
7.0,45.0,100.0,0.0
7.0,69.0,100.0,0.0
7.0,73.0,100.0,0.0
7.0,76.0,100.0,0.0
7.0,76.0,0.0,240.0
7.0,69.0,0.0,0.0
7.0,73.0,0.0,0.0
7.0,69.0,100.0,0.0
7.0,69.0,0.0,120.0
7.0,45.0,0.0,0.0
7.0,33.0,0.0,0.0
7.0,55.0,100.0,0.0
7.0,43.0,100.0,0.0
7.0,62.0,100.0,0.0
7.0,67.0,100.0,0.0
7.0,71.0,100.0,0.0
7.0,71.0,0.0,240.0
7.0,62.0,0.0,0.0
7.0,67.0,0.0,0.0
7.0,73.0,100.0,0.0
7.0,73.0,0.0,60.0
7.0,71.0,100.0,0.0
7.0,71.0,0.0,60.0
7.0,69.0,100.0,0.0
7.0,69.0,0.0,240.0
7.0,69.0,100.0,0.0
7.0,69.0,0.0,120.0
7.0,43.0,0.0,0.0
7.0,55.0,0.0,0.0
7.0,71.0,100.0,0.0
7.0,38.0,100.0,0.0
7.0,50.0,100.0,0.0
7.0,71.0,0.0,240.0
7.0,73.0,100.0,0.0
7.0,73.0,0.0,60.0
7.0,74.0,100.0,0.0
7.0,74.0,0.0,60.0
7.0,73.0,100.0,0.0
7.0,73.0,0.0,60.0
7.0,71.0,100.0,0.0
7.0,71.0,0.0,60.0
7.0,69.0,100.0,0.0
7.0,69.0,0.0,240.0
7.0,50.0,0.0,0.0
7.0,38.0,0.0,0.0
7.0,64.0,100.0,0.0
7.0,64.0,0.0,120.0
7.0,67.0,100.0,0.0
7.0,67.0,0.0,120.0
7.0,71.0,100.0,0.0
7.0,71.0,0.0,120.0
7.0,28.0,100.0,0.0
7.0,59.0,100.0,0.0
7.0,52.0,100.0,0.0
7.0,40.0,100.0,0.0
7.0,67.0,100.0,0.0
7.0,64.0,100.0,0.0
7.0,76.0,100.0,0.0
7.0,76.0,0.0,360.0
7.0,67.0,0.0,0.0
7.0,59.0,0.0,0.0
7.0,52.0,0.0,0.0
7.0,28.0,0.0,0.0
7.0,64.0,0.0,0.0
7.0,40.0,0.0,0.0
7.0,26.0,100.0,0.0
7.0,57.0,100.0,0.0
7.0,50.0,100.0,0.0
7.0,38.0,100.0,0.0
7.0,74.0,100.0,0.0
7.0,69.0,100.0,0.0
7.0,66.0,100.0,0.0
7.0,62.0,100.0,0.0
7.0,62.0,0.0,360.0
7.0,26.0,0.0,0.0
7.0,74.0,0.0,0.0
7.0,57.0,0.0,0.0
7.0,50.0,0.0,0.0
7.0,38.0,0.0,0.0
7.0,69.0,0.0,0.0
7.0,66.0,0.0,0.0
7.0,57.0,100.0,0.0
7.0,73.0,100.0,0.0
7.0,69.0,100.0,0.0
7.0,64.0,100.0,0.0
7.0,61.0,100.0,0.0
7.0,45.0,100.0,0.0
7.0,33.0,100.0,0.0
7.0,33.0,0.0,360.0
7.0,61.0,0.0,0.0
7.0,73.0,0.0,0.0
7.0,69.0,0.0,0.0
7.0,57.0,0.0,0.0
7.0,45.0,0.0,0.0
7.0,64.0,0.0,0.0
7.0,64.0,100.0,0.0
7.0,64.0,0.0,120.0
7.0,67.0,100.0,0.0
7.0,67.0,0.0,120.0
7.0,71.0,100.0,0.0
7.0,71.0,0.0,120.0
7.0,79.0,100.0,0.0
7.0,28.0,100.0,0.0
7.0,59.0,100.0,0.0
7.0,52.0,100.0,0.0
7.0,40.0,100.0,0.0
7.0,71.0,100.0,0.0
7.0,67.0,100.0,0.0
7.0,64.0,100.0,0.0
7.0,76.0,100.0,0.0
7.0,76.0,0.0,360.0
7.0,52.0,0.0,0.0
7.0,79.0,0.0,0.0
7.0,40.0,0.0,0.0
7.0,28.0,0.0,0.0
7.0,59.0,0.0,0.0
7.0,67.0,0.0,0.0
7.0,71.0,0.0,0.0
7.0,64.0,0.0,0.0
7.0,78.0,100.0,0.0
7.0,26.0,100.0,0.0
7.0,57.0,100.0,0.0
7.0,50.0,100.0,0.0
7.0,38.0,100.0,0.0
7.0,74.0,100.0,0.0
7.0,69.0,100.0,0.0
7.0,66.0,100.0,0.0
7.0,62.0,100.0,0.0
7.0,62.0,0.0,360.0
7.0,50.0,0.0,0.0
7.0,78.0,0.0,0.0
7.0,38.0,0.0,0.0
7.0,26.0,0.0,0.0
7.0,57.0,0.0,0.0
7.0,69.0,0.0,0.0
7.0,74.0,0.0,0.0
7.0,66.0,0.0,0.0
7.0,76.0,100.0,0.0
7.0,57.0,100.0,0.0
7.0,73.0,100.0,0.0
7.0,69.0,100.0,0.0
7.0,64.0,100.0,0.0
7.0,61.0,100.0,0.0
7.0,45.0,100.0,0.0
7.0,33.0,100.0,0.0
7.0,69.0,100.0,240.0
7.0,57.0,100.0,0.0
7.0,57.0,0.0,120.0
7.0,73.0,0.0,0.0
7.0,69.0,0.0,0.0
7.0,76.0,0.0,0.0
7.0,64.0,0.0,0.0
7.0,57.0,0.0,0.0
7.0,33.0,0.0,0.0
7.0,45.0,0.0,0.0
7.0,61.0,0.0,0.0
7.0,69.0,0.0,0.0
7.0,50.0,100.0,0.0
7.0,57.0,100.0,0.0
7.0,31.0,100.0,0.0
7.0,43.0,100.0,0.0
7.0,62.0,100.0,0.0
7.0,69.0,100.0,0.0
7.0,69.0,0.0,360.0
7.0,57.0,0.0,0.0
7.0,31.0,0.0,0.0
7.0,50.0,0.0,0.0
7.0,62.0,0.0,0.0
7.0,43.0,0.0,0.0
7.0,50.0,100.0,0.0
7.0,31.0,100.0,0.0
7.0,43.0,100.0,0.0
7.0,55.0,100.0,0.0
7.0,62.0,100.0,0.0
7.0,74.0,100.0,0.0
7.0,71.0,100.0,0.0
7.0,67.0,100.0,0.0
7.0,67.0,0.0,360.0
7.0,50.0,0.0,0.0
7.0,62.0,0.0,0.0
7.0,31.0,0.0,0.0
7.0,43.0,0.0,0.0
7.0,55.0,0.0,0.0
7.0,74.0,0.0,0.0
7.0,71.0,0.0,0.0
7.0,64.0,100.0,0.0
7.0,64.0,0.0,120.0
7.0,67.0,100.0,0.0
7.0,67.0,0.0,120.0
7.0,71.0,100.0,0.0
7.0,71.0,0.0,120.0
7.0,28.0,100.0,0.0
7.0,59.0,100.0,0.0
7.0,52.0,100.0,0.0
7.0,40.0,100.0,0.0
7.0,71.0,100.0,0.0
7.0,67.0,100.0,0.0
7.0,64.0,100.0,0.0
7.0,76.0,100.0,0.0
7.0,76.0,0.0,360.0
7.0,28.0,0.0,0.0
7.0,71.0,0.0,0.0
7.0,59.0,0.0,0.0
7.0,52.0,0.0,0.0
7.0,40.0,0.0,0.0
7.0,67.0,0.0,0.0
7.0,64.0,0.0,0.0
7.0,26.0,100.0,0.0
7.0,57.0,100.0,0.0
7.0,50.0,100.0,0.0
7.0,38.0,100.0,0.0
7.0,74.0,100.0,0.0
7.0,69.0,100.0,0.0
7.0,66.0,100.0,0.0
7.0,62.0,100.0,0.0
7.0,62.0,0.0,360.0
7.0,26.0,0.0,0.0
7.0,74.0,0.0,0.0
7.0,57.0,0.0,0.0
7.0,50.0,0.0,0.0
7.0,38.0,0.0,0.0
7.0,69.0,0.0,0.0
7.0,66.0,0.0,0.0
7.0,57.0,100.0,0.0
7.0,73.0,100.0,0.0
7.0,69.0,100.0,0.0
7.0,64.0,100.0,0.0
7.0,61.0,100.0,0.0
7.0,45.0,100.0,0.0
7.0,33.0,100.0,0.0
7.0,33.0,0.0,360.0
7.0,61.0,0.0,0.0
7.0,73.0,0.0,0.0
7.0,69.0,0.0,0.0
7.0,57.0,0.0,0.0
7.0,45.0,0.0,0.0
7.0,64.0,0.0,0.0
7.0,64.0,100.0,0.0
7.0,64.0,0.0,120.0
7.0,67.0,100.0,0.0
7.0,67.0,0.0,120.0
7.0,71.0,100.0,0.0
7.0,71.0,0.0,120.0
7.0,28.0,100.0,0.0
7.0,59.0,100.0,0.0
7.0,52.0,100.0,0.0
7.0,40.0,100.0,0.0
7.0,71.0,100.0,0.0
7.0,67.0,100.0,0.0
7.0,64.0,100.0,0.0
7.0,76.0,100.0,0.0
7.0,76.0,0.0,360.0
7.0,28.0,0.0,0.0
7.0,71.0,0.0,0.0
7.0,59.0,0.0,0.0
7.0,52.0,0.0,0.0
7.0,40.0,0.0,0.0
7.0,67.0,0.0,0.0
7.0,64.0,0.0,0.0
7.0,26.0,100.0,0.0
7.0,57.0,100.0,0.0
7.0,50.0,100.0,0.0
7.0,38.0,100.0,0.0
7.0,74.0,100.0,0.0
7.0,69.0,100.0,0.0
7.0,66.0,100.0,0.0
7.0,62.0,100.0,0.0
7.0,62.0,0.0,360.0
7.0,26.0,0.0,0.0
7.0,74.0,0.0,0.0
7.0,57.0,0.0,0.0
7.0,50.0,0.0,0.0
7.0,38.0,0.0,0.0
7.0,69.0,0.0,0.0
7.0,66.0,0.0,0.0
7.0,57.0,100.0,0.0
7.0,73.0,100.0,0.0
7.0,69.0,100.0,0.0
7.0,64.0,100.0,0.0
7.0,61.0,100.0,0.0
7.0,45.0,100.0,0.0
7.0,33.0,100.0,0.0
7.0,69.0,100.0,240.0
7.0,57.0,100.0,0.0
7.0,57.0,0.0,120.0
7.0,64.0,0.0,0.0
7.0,57.0,0.0,0.0
7.0,61.0,0.0,0.0
7.0,73.0,0.0,0.0
7.0,69.0,0.0,0.0
7.0,33.0,0.0,0.0
7.0,45.0,0.0,0.0
7.0,69.0,0.0,0.0
7.0,50.0,100.0,0.0
7.0,57.0,100.0,0.0
7.0,31.0,100.0,0.0
7.0,43.0,100.0,0.0
7.0,62.0,100.0,0.0
7.0,69.0,100.0,0.0
7.0,69.0,0.0,360.0
7.0,57.0,0.0,0.0
7.0,31.0,0.0,0.0
7.0,50.0,0.0,0.0
7.0,62.0,0.0,0.0
7.0,43.0,0.0,0.0
7.0,50.0,100.0,0.0
7.0,31.0,100.0,0.0
7.0,43.0,100.0,0.0
7.0,55.0,100.0,0.0
7.0,62.0,100.0,0.0
7.0,74.0,100.0,0.0
7.0,71.0,100.0,0.0
7.0,67.0,100.0,0.0
7.0,67.0,0.0,360.0
7.0,50.0,0.0,0.0
7.0,62.0,0.0,0.0
7.0,31.0,0.0,0.0
7.0,43.0,0.0,0.0
7.0,55.0,0.0,0.0
7.0,74.0,0.0,0.0
7.0,71.0,0.0,0.0
7.0,55.0,100.0,0.0
7.0,43.0,100.0,0.0
7.0,43.0,0.0,720.0
7.0,55.0,0.0,0.0
7.0,38.0,100.0,0.0
7.0,50.0,100.0,0.0
7.0,50.0,0.0,720.0
7.0,38.0,0.0,0.0
8.0,62.0,100.0,7508.0
8.0,74.0,100.0,0.0
8.0,78.0,100.0,15.0
8.0,81.0,100.0,15.0
8.0,69.0,100.0,18.0
8.0,74.0,0.0,192.0
8.0,62.0,0.0,0.0
8.0,78.0,0.0,15.0
8.0,81.0,0.0,15.0
8.0,69.0,0.0,18.0
8.0,76.0,100.0,9072.0
8.0,64.0,100.0,0.0
8.0,64.0,0.0,240.0
8.0,76.0,0.0,0.0
8.0,74.0,100.0,120.0
8.0,62.0,100.0,0.0
8.0,62.0,0.0,240.0
8.0,74.0,0.0,0.0
8.0,73.0,100.0,120.0
8.0,69.0,100.0,0.0
8.0,57.0,100.0,0.0
8.0,57.0,0.0,240.0
8.0,69.0,0.0,0.0
8.0,73.0,0.0,0.0
8.0,76.0,100.0,480.0
8.0,64.0,100.0,0.0
8.0,64.0,0.0,240.0
8.0,76.0,0.0,0.0
8.0,74.0,100.0,120.0
8.0,62.0,100.0,0.0
8.0,62.0,0.0,240.0
8.0,74.0,0.0,0.0
8.0,73.0,100.0,120.0
8.0,69.0,100.0,0.0
8.0,57.0,100.0,0.0
8.0,57.0,0.0,240.0
8.0,69.0,0.0,0.0
8.0,73.0,0.0,0.0
0.0,0.0,0.0,0.0
0.0,0.0,0.0,0.0
0.0,0.0,0.0,0.0
0.0,0.0,0.0,0.0
0.0,0.0,0.0,0.0
0.0,0.0,0.0,0.0
0.0,0.0,0.0,0.0
0.0,0.0,0.0,0.0
0.0,0.0,0.0,0.0
0.0,0.0,0.0,0.0
0.0,0.0,0.0,0.0
0.0,0.0,0.0,0.0
0.0,0.0,0.0,0.0
0.0,0.0,0.0,0.0
0.0,0.0,0.0,0.0
0.0,0.0,0.0,0.0
0.0,0.0,0.0,0.0
0.0,0.0,0.0,0.0
0.0,0.0,0.0,0.0
0.0,0.0,0.0,0.0
0.0,0.0,0.0,0.0
0.0,0.0,0.0,0.0
0.0,0.0,0.0,0.0
0.0,0.0,0.0,0.0
0.0,0.0,0.0,0.0
0.0,0.0,0.0,0.0
