track,note,velocity,time
0,63,98,792
0,63,0,90
0,66,94,3
0,66,0,93
0,68,106,3
0,68,0,93
0,66,99,3
0,71,114,0
0,66,0,28
0,71,0,0
0,66,87,3
0,71,102,0
0,66,0,86
0,71,0,0
0,66,87,3
0,71,102,0
0,66,0,100
0,71,0,0
0,66,95,3
0,71,110,0
0,66,0,24
0,71,0,0
0,66,71,3
0,71,86,0
0,66,0,86
0,71,0,0
0,66,83,3
0,71,98,0
0,66,0,100
0,71,0,0
0,66,91,1
0,71,106,0
0,66,0,9
0,71,0,0
0,66,91,3
0,71,106,0
0,66,0,89
0,71,0,0
0,66,79,3
0,71,94,0
0,66,0,65
0,69,90,29
0,71,0,4
0,69,0,89
0,66,98,3
0,66,0,93
0,68,90,3
0,68,0,93
0,62,94,3
0,62,0,93
0,63,90,3
0,63,0,93
0,59,94,3
0,59,0,91
0,59,79,5
0,59,0,91
0,35,105,1
0,39,120,0
0,42,90,0
0,47,109,0
0,54,84,0
0,59,102,0
0,35,0,4
0,39,0,0
0,42,0,0
0,54,0,32
0,59,0,0
0,54,65,3
0,59,64,0
0,54,0,0
0,59,0,0
0,54,51,3
0,59,47,0
0,54,0,3
0,59,0,0
0,54,84,3
0,59,109,0
0,54,0,49
0,59,0,0
0,54,68,3
0,59,70,0
0,54,0,93
0,59,0,0
0,54,48,3
0,59,46,0
0,54,0,93
0,59,0,0
0,59,83,3
0,63,108,0
0,59,0,93
0,63,0,0
0,59,68,3
0,63,70,0
0,59,0,93
0,63,0,0
0,59,48,3
0,63,51,0
0,59,0,93
0,63,0,0
0,59,73,3
0,66,102,0
0,59,0,93
0,66,0,0
0,59,77,3
0,68,86,0
0,59,0,93
0,68,0,0
0,59,69,3
0,66,94,0
0,59,0,93
0,66,0,0
0,59,77,1
0,63,91,0
0,59,0,48
0,63,0,0
0,59,79,3
0,59,0,93
0,39,115,3
0,46,75,0
0,54,78,0
0,39,0,4
0,46,0,0
0,39,54,124
0,54,0,2
0,39,0,2
0,35,109,1
0,59,90,0
0,47,106,0
0,52,66,0
0,59,66,0
0,66,103,0
0,35,0,4
0,47,83,3
0,52,74,0
0,59,64,0
0,39,115,3
0,59,85,0
0,44,102,0
0,52,64,0
0,61,74,0
0,66,93,0
0,71,93,0
0,39,0,4
0,59,0,0
0,66,0,0
0,44,73,1
0,52,44,0
0,61,74,0
0,66,93,0
0,59,76,16
0,61,0,0
0,35,109,3
0,59,90,0
0,40,107,0
0,52,70,0
0,59,70,0
0,35,0,4
0,40,97,3
0,52,72,0
0,59,68,0
0,66,93,0
0,71,99,0
0,66,0,0
0,39,115,3
0,59,80,0
0,42,100,0
0,52,74,0
0,61,72,0
0,66,91,0
0,39,0,4
0,42,71,3
0,52,62,0
0,61,66,0
0,59,76,16
0,35,109,3
0,59,90,0
0,40,99,0
0,52,66,0
0,59,66,0
0,66,101,0
0,71,101,0
0,35,0,4
0,66,0,0
0,40,86,1
0,52,74,0
0,59,64,0
0,66,89,0
0,39,115,3
0,59,85,0
0,42,97,0
0,52,64,0
0,61,74,0
0,39,0,4
0,59,0,0
0,42,74,3
0,52,44,0
0,61,74,0
0,66,101,0
0,71,101,0
0,59,76,16
0,61,0,0
0,66,0,0
0,35,109,1
0,59,90,0
0,40,105,0
0,52,70,0
0,59,70,0
0,66,95,0
0,35,0,4
0,42,79,3
0,52,72,0
0,59,68,0
0,39,115,3
0,59,80,0
0,44,105,0
0,52,74,0
0,61,72,0
0,66,101,0
0,71,101,0
0,39,0,4
0,45,79,3
0,52,62,0
0,61,66,0
0,59,75,16
0,45,0,57
0,66,0,0
0,35,109,3
0,59,90,0
0,47,89,0
0,47,82,0
0,54,74,0
0,66,103,0
0,35,0,4
0,47,56,3
0,54,36,0
0,39,115,3
0,59,85,0
0,47,91,0
0,47,66,0
0,56,74,0
0,66,93,0
0,71,93,0
0,39,0,4
0,59,0,0
0,66,0,0
0,47,68,1
0,56,70,0
0,66,93,0
0,59,76,16
0,47,0,26
0,35,109,3
0,59,90,0
0,42,91,0
0,47,66,0
0,54,70,0
0,35,0,4
0,47,64,3
0,54,72,0
0,66,93,0
0,71,99,0
0,66,0,0
0,39,115,3
0,59,80,0
0,44,89,0
0,47,64,0
0,56,70,0
0,66,91,0
0,39,0,4
0,47,62,3
0,56,72,0
0,59,78,16
0,35,109,3
0,59,90,0
0,47,93,0
0,47,82,0
0,54,74,0
0,66,101,0
0,71,101,0
0,35,0,4
0,66,0,0
0,47,56,1
0,54,36,0
0,66,89,0
0,39,115,3
0,59,85,0
0,47,91,0
0,47,66,0
0,56,74,0
0,39,0,4
0,59,0,0
0,47,68,3
0,56,70,0
0,66,101,0
0,71,101,0
0,59,76,16
0,66,0,0
0,35,109,1
0,59,90,0
0,42,90,0
0,47,66,0
0,54,70,0
0,66,95,0
0,35,0,4
0,47,64,3
0,54,72,0
0,39,115,3
0,59,80,0
0,44,91,0
0,47,64,0
0,56,70,0
0,66,101,0
0,71,101,0
0,39,0,4
0,47,62,3
0,54,72,0
0,59,77,16
0,66,0,39
0,35,109,3
0,59,90,0
0,49,93,0
0,54,66,0
0,61,66,0
0,66,97,0
0,35,0,4
0,54,74,3
0,61,64,0
0,39,115,3
0,59,85,0
0,51,93,0
0,54,64,0
0,63,74,0
0,71,101,0
0,39,0,4
0,59,0,0
0,54,44,3
0,63,74,0
0,69,80,0
0,59,76,16
0,63,0,0
0,35,109,3
0,59,90,0
0,42,91,0
0,54,70,0
0,61,70,0
0,68,102,0
0,35,0,4
0,54,72,3
0,61,68,0
0,66,78,0
0,39,115,3
0,59,80,0
0,46,92,0
0,54,74,0
0,63,72,0
0,73,108,0
0,39,0,4
0,54,62,3
0,63,66,0
0,71,87,0
0,59,76,16
0,35,109,3
0,59,90,0
0,47,95,0
0,52,66,0
0,59,66,0
0,69,108,0
0,35,0,4
0,52,74,3
0,59,64,0
0,68,83,0
0,39,115,3
0,59,85,0
0,49,96,0
0,52,64,0
0,61,74,0
0,66,104,0
0,39,0,4
0,59,0,0
0,52,44,3
0,61,74,0
0,64,77,0
0,59,76,16
0,61,0,0
0,35,109,3
0,59,90,0
0,40,99,0
0,52,70,0
0,59,70,0
0,63,105,0
0,35,0,4
0,52,72,3
0,59,68,0
0,71,76,0
0,39,115,3
0,59,80,0
0,44,94,0
0,52,74,0
0,61,72,0
0,69,109,0
0,39,0,4
0,52,62,3
0,61,66,0
0,68,78,0
0,59,75,16
0,35,109,3
0,59,90,0
0,47,106,0
0,47,82,0
0,54,74,0
0,66,104,0
0,35,0,4
0,47,83,3
0,47,56,0
0,54,36,0
0,39,115,1
0,59,85,0
0,47,66,0
0,51,102,0
0,56,74,0
0,66,113,0
0,39,0,4
0,59,0,0
0,47,68,3
0,51,73,0
0,56,70,0
0,66,81,0
0,71,77,0
0,59,76,16
0,35,109,1
0,59,90,0
0,47,66,0
0,54,107,0
0,54,70,0
0,66,112,0
0,35,0,4
0,42,97,3
0,47,64,0
0,54,72,0
0,66,90,0
0,71,81,0
0,39,115,3
0,59,80,0
0,44,100,0
0,47,64,0
0,56,70,0
0,64,115,0
0,39,0,4
0,46,71,3
0,47,62,0
0,56,72,0
0,63,93,0
0,59,78,11
0,35,109,3
0,59,90,0
0,47,99,0
0,47,82,0
0,54,74,0
0,35,0,4
0,47,86,3
0,47,56,0
0,54,36,0
0,39,115,3
0,59,85,0
0,47,66,0
0,51,97,0
0,56,74,0
0,39,0,4
0,59,0,0
0,47,68,3
0,51,74,0
0,56,70,0
0,59,76,16
0,35,109,3
0,59,90,0
0,47,66,0
0,54,105,0
0,54,70,0
0,35,0,4
0,42,72,3
0,47,64,0
0,54,72,0
0,39,115,3
0,59,80,0
0,44,105,0
0,47,64,0
0,56,70,0
0,39,0,4
0,78,126,96
0,46,70,3
0,47,62,0
0,54,72,0
0,59,77,16
0,46,0,40
0,35,109,3
0,59,90,0
0,47,110,0
0,47,82,0
0,54,74,0
0,35,0,4
0,78,126,2
0,78,126,46
0,47,56,3
0,54,36,0
0,39,115,3
0,59,85,0
0,44,96,0
0,47,66,0
0,56,74,0
0,39,0,4
0,59,0,0
0,78,126,4
0,78,126,44
0,47,68,3
0,54,70,0
0,59,76,16
0,35,109,3
0,59,90,0
0,42,100,0
0,47,66,0
0,54,70,0
0,35,0,4
0,78,126,0
0,78,126,41
0,47,64,3
0,54,72,0
0,76,126,21
0,39,115,3
0,59,80,0
0,44,96,0
0,47,64,0
0,56,70,0
0,39,0,4
0,75,126,14
0,47,62,3
0,54,72,0
0,59,76,16
0,76,126,2
0,35,109,1
0,59,90,0
0,39,92,0
0,47,82,0
0,54,74,0
0,35,0,4
0,47,56,3
0,54,36,0
0,39,115,3
0,59,85,0
0,40,102,0
0,47,66,0
0,56,74,0
0,75,126,3
0,39,0,1
0,59,0,0
0,78,126,36
0,47,68,3
0,54,70,0
0,59,76,16
0,35,109,3
0,59,90,0
0,42,96,0
0,47,66,0
0,54,70,0
0,35,0,4
0,47,64,3
0,54,72,0
0,39,115,3
0,59,80,0
0,46,102,0
0,47,64,0
0,56,70,0
0,39,0,4
0,78,126,93
0,47,62,3
0,54,72,0
0,59,75,16
0,35,109,3
0,59,90,0
0,47,98,0
0,47,82,0
0,54,74,0
0,78,123,2
0,35,0,2
0,78,126,42
0,47,56,3
0,54,36,0
0,39,115,3
0,59,85,0
0,47,66,0
0,51,102,0
0,56,74,0
0,78,126,2
0,39,0,2
0,59,0,0
0,78,126,41
0,47,68,3
0,54,70,0
0,59,76,16
0,35,109,3
0,59,90,0
0,47,66,0
0,54,92,0
0,54,70,0
0,35,0,4
0,78,126,2
0,75,126,35
0,47,64,3
0,54,72,0
0,39,115,3
0,59,80,0
0,42,102,0
0,47,64,0
0,56,70,0
0,39,0,4
0,76,126,4
0,75,126,34
0,47,62,3
0,54,72,0
0,59,78,16
0,35,109,3
0,59,90,0
0,47,100,0
0,47,82,0
0,54,74,0
0,35,0,4
0,76,126,15
0,47,56,3
0,54,36,0
0,75,126,0
0,39,115,3
0,59,85,0
0,47,94,0
0,47,66,0
0,56,74,0
0,39,0,4
0,59,0,0
0,71,126,1
0,47,68,2
0,54,70,0
0,59,76,16
0,35,109,3
0,59,90,0
0,42,98,0
0,47,66,0
0,54,70,0
0,35,0,4
0,47,64,3
0,54,72,0
0,39,115,3
0,59,80,0
0,47,100,0
0,47,64,0
0,56,70,0
0,39,0,4
0,71,107,98
0,47,62,3
0,54,72,0
0,59,77,16
0,71,54,2
0,35,109,1
0,59,90,0
0,40,102,0
0,52,66,0
0,59,66,0
0,64,82,3
0,35,0,1
0,76,119,1
0,68,78,1
0,74,111,3
0,52,74,3
0,59,64,0
0,64,54,20
0,71,58,8
0,68,66,7
0,39,115,3
0,59,85,0
0,44,92,0
0,52,64,0
0,61,74,0
0,39,0,4
0,59,0,0
0,76,119,3
0,67,66,51
0,64,34,1
0,71,66,1
0,52,44,3
0,59,74,0
0,68,54,1
0,59,76,14
0,76,107,14
0,59,0,0
0,35,109,3
0,59,90,0
0,47,96,0
0,52,70,0
0,59,70,0
0,35,0,4
0,64,50,22
0,71,66,2
0,67,74,1
0,68,62,29
0,74,111,3
0,52,72,3
0,59,68,0
0,64,54,47
0,67,74,2
0,71,74,2
0,76,111,3
0,39,115,3
0,59,80,0
0,49,94,0
0,52,74,0
0,61,72,0
0,39,0,4
0,68,66,3
0,74,103,3
0,52,62,3
0,59,66,0
0,64,46,5
0,67,82,1
0,71,74,5
0,59,76,5
0,68,70,23
0,35,109,3
0,59,90,0
0,40,98,0
0,52,66,0
0,59,66,0
0,35,0,4
0,76,111,1
0,64,58,45
0,67,82,1
0,71,78,1
0,68,66,31
0,52,74,3
0,59,64,0
0,39,115,3
0,59,85,0
0,44,92,0
0,52,64,0
0,61,74,0
0,39,0,2
0,59,0,0
0,74,107,1
0,67,82,8
0,64,50,1
0,71,78,4
0,52,44,3
0,59,74,0
0,78,126,3
0,59,76,12
0,67,90,29
0,64,58,1
0,71,82,4
0,59,0,0
0,35,109,3
0,59,90,0
0,47,100,0
0,52,70,0
0,59,70,0
0,35,0,4
0,68,58,16
0,52,72,3
0,59,68,0
0,67,86,1
0,64,50,4
0,71,78,1
0,68,54,43
0,39,115,3
0,59,80,0
0,44,94,0
0,52,74,0
0,61,72,0
0,39,0,4
0,67,74,54
0,64,54,2
0,71,82,4
0,68,70,20
0,52,62,3
0,59,66,0
0,78,126,5
0,59,75,11
0,78,0,1
0,35,109,3
0,59,90,0
0,47,100,0
0,47,82,0
0,54,74,0
0,35,0,4
0,78,126,16
0,78,0,49
0,47,56,3
0,54,36,0
0,78,126,2
0,78,0,55
0,39,115,3
0,59,85,0
0,44,92,0
0,47,66,0
0,56,74,0
0,39,0,4
0,59,0,0
0,78,126,11
0,78,0,53
0,78,126,0
0,47,68,3
0,54,70,0
0,59,76,16
0,78,89,3
0,78,0,23
0,78,126,0
0,35,109,3
0,59,90,0
0,42,94,0
0,47,66,0
0,54,70,0
0,35,0,4
0,86,93,7
0,90,91,2
0,87,73,1
0,78,0,41
0,47,64,3
0,54,72,0
0,75,126,3
0,78,81,1
0,75,0,1
0,39,115,2
0,59,80,0
0,44,90,0
0,47,64,0
0,56,70,0
0,76,126,1
0,39,0,1
0,88,95,11
0,92,95,4
0,76,0,87
0,47,62,3
0,54,72,0
0,75,123,7
0,59,78,3
0,78,73,4
0,35,109,3
0,59,90,0
0,39,96,0
0,47,82,0
0,54,74,0
0,35,0,4
0,75,0,1
0,76,126,3
0,86,93,12
0,90,93,6
0,87,81,1
0,76,0,45
0,75,126,0
0,47,56,3
0,54,36,0
0,78,79,9
0,75,0,28
0,71,126,3
0,39,115,3
0,59,85,0
0,40,102,0
0,47,66,0
0,56,74,0
0,39,0,4
0,59,0,0
0,88,91,4
0,85,83,3
0,71,0,4
0,71,126,2
0,47,68,1
0,54,70,0
0,59,76,16
0,87,91,6
0,83,91,3
0,35,109,3
0,59,90,0
0,42,96,0
0,47,66,0
0,54,70,0
0,35,0,4
0,47,64,3
0,54,72,0
0,71,0,21
0,39,115,3
0,59,80,0
0,44,86,0
0,47,64,0
0,56,70,0
0,39,0,4
0,78,126,74
0,47,62,3
0,54,72,0
0,78,50,0
0,59,77,16
0,35,109,3
0,59,90,0
0,49,94,0
0,54,66,0
0,61,66,0
0,78,126,0
0,90,90,2
0,35,0,2
0,87,70,3
0,75,123,10
0,54,74,3
0,61,64,0
0,76,126,0
0,39,115,3
0,59,85,0
0,49,88,0
0,54,64,0
0,63,74,0
0,39,0,4
0,59,0,0
0,75,119,3
0,54,44,3
0,61,74,0
0,59,76,16
0,76,126,2
0,61,0,0
0,35,109,3
0,59,90,0
0,42,92,0
0,54,70,0
0,61,70,0
0,35,0,4
0,75,126,0
0,54,72,3
0,61,68,0
0,76,126,0
0,39,115,3
0,59,80,0
0,44,88,0
0,54,74,0
0,63,72,0
0,39,0,4
0,75,123,3
0,54,62,3
0,61,66,0
0,78,86,8
0,59,76,8
0,35,109,3
0,59,90,0
0,49,92,0
0,54,66,0
0,61,66,0
0,90,94,1
0,76,126,2
0,35,0,1
0,87,90,2
0,54,74,3
0,61,64,0
0,78,50,3
0,75,126,3
0,39,115,3
0,59,85,0
0,49,90,0
0,54,64,0
0,63,74,0
0,39,0,4
0,59,0,0
0,89,86,3
0,86,78,5
0,54,44,3
0,61,74,0
0,78,126,6
0,59,76,10
0,88,94,4
0,85,90,4
0,61,0,0
0,35,109,3
0,59,90,0
0,42,84,0
0,54,70,0
0,61,70,0
0,35,0,4
0,71,111,3
0,54,72,3
0,61,68,0
0,71,0,0
0,39,115,3
0,59,80,0
0,44,86,0
0,54,74,0
0,63,72,0
0,75,111,0
0,39,0,4
0,75,0,89
0,76,111,3
0,54,62,3
0,61,66,0
0,59,75,16
0,78,62,4
0,76,0,10
0,78,126,3
0,86,64,2
0,35,109,1
0,59,90,0
0,47,82,0
0,47,82,0
