track,note,velocity,time
2,36,64,9216
2,36,64,720
2,36,64,720
2,36,64,720
2,36,64,720
2,36,64,720
2,36,64,720
2,36,64,720
2,36,64,720
2,36,64,720
2,36,64,720
2,36,64,720
2,36,64,720
2,36,64,720
2,36,64,720
2,36,64,720
2,36,64,720
2,36,64,720
2,36,64,720
2,36,64,720
2,36,64,720
2,36,64,720
2,36,64,720
2,36,64,720
2,36,64,720
2,36,64,720
2,36,64,720
2,36,64,720
2,36,64,720
2,36,64,720
2,36,64,720
2,36,64,720
2,36,64,720
2,36,64,720
2,36,64,720
2,36,64,720
2,36,64,720
2,36,64,720
2,36,64,720
2,36,64,720
2,36,64,720
2,36,64,720
2,36,64,720
2,36,64,720
2,36,64,720
2,36,64,720
2,36,64,720
2,36,64,720
2,36,64,720
2,36,64,720
2,36,64,720
2,36,64,720
2,36,64,720
2,36,64,720
2,36,64,720
2,36,64,720
2,36,64,720
2,36,64,720
2,36,64,720
2,36,64,720
2,36,64,720
2,36,64,720
2,36,64,720
2,36,64,720
2,36,64,720
2,36,64,720
2,36,64,720
2,36,64,720
2,36,64,720
2,36,64,720
2,36,64,720
2,36,64,720
2,36,64,720
2,36,64,720
2,36,64,720
2,36,64,720
2,36,64,720
2,36,64,720
2,36,64,720
2,36,64,720
2,36,64,720
2,36,64,720
2,36,64,720
2,36,64,720
2,36,64,720
2,36,64,720
2,36,64,720
2,36,64,720
2,36,64,720
2,36,64,720
2,36,64,720
2,36,64,720
2,36,64,720
2,36,64,720
2,36,64,720
2,36,64,720
2,36,64,720
2,36,64,720
2,36,64,720
2,36,64,720
2,36,64,720
2,36,64,720
2,36,64,720
2,36,64,720
2,36,64,720
2,36,64,720
2,36,64,720
2,36,64,720
2,36,64,720
2,36,64,720
2,36,64,720
2,36,64,720
2,36,64,6864
2,36,64,720
2,36,64,720
2,36,64,720
2,36,64,720
2,36,64,720
2,36,64,720
2,36,64,720
2,36,64,720
2,36,64,720
2,36,64,720
2,36,64,720
2,36,64,720
2,36,64,720
2,36,64,720
2,36,64,720
2,36,64,6864
2,36,64,720
2,36,64,720
2,36,64,720
2,36,64,720
2,36,64,720
2,36,64,720
2,36,64,720
2,36,64,720
2,36,64,720
2,36,64,720
2,36,64,720
2,36,64,720
2,36,64,720
2,36,64,720
2,36,64,720
2,36,64,720
2,36,64,720
2,36,64,720
2,36,64,720
2,36,64,720
2,36,64,720
2,36,64,720
2,36,64,720
2,36,64,720
2,36,64,720
2,36,64,720
2,36,64,720
2,36,64,720
2,36,64,720
2,36,64,720
2,36,64,720
2,36,64,720
2,36,64,720
2,36,64,720
2,36,64,720
2,36,64,720
2,36,64,720
2,36,64,720
2,36,64,720
2,36,64,720
2,36,64,720
2,36,64,720
2,36,64,720
2,36,64,720
2,36,64,720
2,36,64,720
2,36,64,720
2,36,64,720
2,36,64,720
2,36,64,720
2,36,64,720
2,36,64,720
2,36,64,720
2,36,64,720
2,36,64,720
2,36,64,720
2,36,64,720
2,36,64,720
2,36,64,720
2,36,64,720
2,36,64,720
2,36,64,720
2,36,84,592
3,37,78,168576
4,38,68,6124
4,38,68,2640
4,38,78,740
4,38,78,720
4,38,78,720
4,38,78,720
4,38,78,720
4,38,78,720
4,38,78,720
4,38,78,720
4,38,78,720
4,38,78,720
4,38,78,720
4,38,78,720
4,38,78,720
4,38,78,720
4,38,78,720
4,38,78,720
4,38,78,720
4,38,78,720
4,38,78,720
4,38,78,720
4,38,78,720
4,38,78,720
4,38,78,720
4,38,78,720
4,38,78,720
4,38,78,720
4,38,78,720
4,38,78,720
4,38,78,720
4,38,78,720
4,38,78,720
4,38,78,720
4,38,78,720
4,38,78,720
4,38,78,720
4,38,78,720
4,38,78,720
4,38,78,720
4,38,78,720
4,38,78,720
4,38,78,720
4,38,78,720
4,38,78,720
4,38,78,720
4,38,78,720
4,38,78,720
4,38,78,720
4,38,78,720
4,38,78,720
4,38,78,720
4,38,78,720
4,38,78,720
4,38,78,720
4,38,78,720
4,38,78,720
4,38,78,720
4,38,78,720
4,38,78,720
4,38,78,720
4,38,78,720
4,38,78,720
4,38,78,720
4,38,78,720
4,38,78,720
4,38,78,720
4,38,78,720
4,38,78,720
4,38,78,720
4,38,78,720
4,38,78,720
4,38,78,720
4,38,78,720
4,38,78,720
4,38,78,720
4,38,78,720
4,38,78,720
4,38,78,720
4,38,78,720
4,38,78,720
4,38,78,720
4,38,78,720
4,38,78,720
4,38,78,720
4,38,78,720
4,38,78,720
4,38,78,720
4,38,78,720
4,38,78,720
4,38,78,720
4,38,78,720
4,38,78,720
4,38,78,720
4,38,78,720
4,38,78,720
4,38,78,720
4,38,78,720
4,38,78,720
4,38,78,720
4,38,78,720
4,38,78,720
4,38,78,720
4,38,78,720
4,38,78,720
4,38,78,720
4,38,78,720
4,38,78,720
4,38,78,720
4,38,78,720
4,38,78,720
4,38,78,720
4,38,78,720
4,38,78,720
4,38,68,326
4,38,68,1488
4,38,68,1488
4,38,68,720
4,38,20,602
4,38,37,0
4,38,78,1920
4,38,78,720
4,38,78,720
4,38,78,720
4,38,78,720
4,38,78,720
4,38,78,720
4,38,78,720
4,38,78,720
4,38,78,720
4,38,78,720
4,38,78,720
4,38,78,720
4,38,78,720
4,38,78,720
4,38,78,720
4,38,68,326
4,38,68,1488
4,38,68,1488
4,38,68,720
4,38,20,602
4,38,37,0
4,38,78,1920
4,38,78,720
4,38,78,720
4,38,78,720
4,38,78,720
4,38,78,720
4,38,78,720
4,38,78,720
4,38,78,720
4,38,78,720
4,38,78,720
4,38,78,720
4,38,78,720
4,38,78,720
4,38,78,720
4,38,78,720
4,38,78,720
4,38,78,720
4,38,78,720
4,38,78,720
4,38,78,720
4,38,78,720
4,38,78,720
4,38,78,720
4,38,78,720
4,38,78,720
4,38,78,720
4,38,78,720
4,38,78,720
4,38,78,720
4,38,78,720
4,38,78,720
4,38,78,720
4,38,78,720
4,38,78,720
4,38,78,720
4,38,78,720
4,38,78,720
4,38,78,720
4,38,78,720
4,38,78,720
4,38,78,720
4,38,78,720
4,38,78,720
4,38,78,720
4,38,78,720
4,38,78,720
4,38,78,720
4,38,78,720
4,38,78,720
4,38,78,720
4,38,78,720
4,38,78,720
4,38,78,720
4,38,78,720
4,38,78,720
4,38,78,720
4,38,78,720
4,38,78,720
4,38,78,720
4,38,46,208
4,38,78,464
4,38,48,208
4,38,78,464
4,38,48,208
5,40,98,6144
5,40,84,2640
5,40,98,86362
5,40,98,1488
5,40,98,1488
5,40,98,720
5,40,98,710
5,40,88,336
5,40,88,336
5,40,42,208
5,40,98,80
5,40,98,12634
5,40,98,1488
5,40,98,1488
5,40,98,720
5,40,98,710
5,40,88,336
5,40,88,336
5,40,42,208
5,40,98,80
5,40,78,48336
6,44,100,9602
6,44,100,728
6,44,100,728
6,44,100,728
6,44,100,728
6,44,100,728
6,44,100,728
6,44,100,728
6,44,100,728
6,44,100,728
6,44,100,728
6,44,100,728
6,44,100,728
6,44,100,728
6,44,100,728
6,44,100,728
6,44,100,728
6,44,100,728
6,44,100,728
6,44,100,728
6,44,100,728
6,44,100,728
6,44,100,728
6,44,100,728
6,44,100,728
6,44,100,728
6,44,100,728
6,44,100,728
6,44,100,728
6,44,100,728
6,44,100,728
6,44,100,728
6,44,100,728
6,44,100,728
6,44,100,728
6,44,100,728
6,44,100,728
6,44,100,728
6,44,100,728
6,44,100,728
6,44,100,728
6,44,100,728
6,44,100,728
6,44,100,728
6,44,100,728
6,44,100,728
6,44,100,728
6,44,100,728
6,44,100,728
6,44,100,728
6,44,100,728
6,44,100,728
6,44,100,728
6,44,100,728
6,44,100,728
6,44,100,728
6,44,100,728
6,44,100,728
6,44,100,728
6,44,100,728
6,44,100,728
6,44,100,728
6,44,100,728
6,44,100,728
6,44,100,728
6,44,100,728
6,44,100,728
6,44,100,728
6,44,100,728
6,44,100,728
6,44,100,728
6,44,100,728
6,44,100,728
6,44,100,728
6,44,100,728
6,44,100,728
6,44,100,728
6,44,100,728
6,44,100,728
6,44,100,728
6,44,100,728
6,44,100,728
6,44,100,728
6,44,100,728
6,44,100,728
6,44,100,728
6,44,100,728
6,44,100,728
6,44,100,728
6,44,100,728
6,44,100,728
6,44,100,728
6,44,100,728
6,44,100,728
6,44,100,728
6,44,100,728
6,44,100,728
6,44,100,728
6,44,100,728
6,44,100,728
6,44,100,728
6,44,100,728
6,44,100,728
6,44,100,728
6,44,100,728
6,44,100,728
6,44,100,728
6,44,100,728
6,44,100,728
6,44,100,728
6,44,100,728
6,44,100,728
6,44,100,6104
6,44,100,728
6,44,100,728
6,44,100,728
6,44,100,728
6,44,100,728
6,44,100,728
6,44,100,728
6,44,100,728
6,44,100,728
6,44,100,728
6,44,100,728
6,44,100,728
6,44,100,728
6,44,100,728
6,44,100,728
6,44,100,728
6,44,100,6104
6,44,100,728
6,44,100,728
6,44,100,728
6,44,100,728
6,44,100,728
6,44,100,728
6,44,100,728
6,44,100,728
6,44,100,728
6,44,100,728
6,44,100,728
6,44,100,728
6,44,100,728
6,44,100,728
6,44,100,728
6,44,100,728
6,44,100,728
6,44,100,728
6,44,100,728
6,44,100,728
6,44,100,728
6,44,100,728
6,44,100,728
6,44,100,728
6,44,100,728
6,44,100,728
6,44,100,728
6,44,100,728
6,44,100,728
6,44,100,728
6,44,100,728
6,44,100,728
6,44,100,728
6,44,100,728
6,44,100,728
6,44,100,728
6,44,100,728
6,44,100,728
6,44,100,728
6,44,100,728
6,44,100,728
6,44,100,728
6,44,100,728
6,44,100,728
6,44,100,728
6,44,100,728
6,44,100,728
6,44,100,728
6,44,100,728
6,44,100,728
6,44,100,728
6,44,100,728
6,44,100,728
6,44,100,728
6,44,100,728
6,44,100,728
6,44,100,728
6,44,100,728
6,44,100,728
6,44,100,728
6,44,100,728
6,44,100,728
6,44,100,728
6,44,100,1366
7,49,76,101376
7,49,76,18392
8,51,82,9088
8,51,96,88
8,51,96,344
8,51,61,216
8,51,96,88
8,51,97,344
8,51,61,216
8,51,96,88
8,51,96,344
8,51,64,216
8,51,96,88
8,51,61,216
8,51,97,88
8,51,64,216
8,51,96,88
8,51,96,344
8,51,61,216
8,51,96,88
8,51,97,344
8,51,61,216
8,51,96,88
8,51,96,344
8,51,64,216
8,51,96,88
8,51,61,216
8,51,97,88
8,51,64,216
8,51,96,88
8,51,96,344
8,51,61,216
8,51,96,88
8,51,97,344
8,51,61,216
8,51,96,88
8,51,96,344
8,51,64,216
8,51,96,88
8,51,61,216
8,51,97,88
8,51,64,216
8,51,96,88
8,51,96,344
8,51,61,216
8,51,96,88
8,51,97,344
8,51,61,216
8,51,96,88
8,51,96,344
8,51,64,216
8,51,96,88
8,51,61,216
8,51,97,88
8,51,64,216
8,51,96,88
8,51,96,344
8,51,61,216
8,51,96,88
8,51,97,344
8,51,61,216
8,51,96,88
8,51,96,344
8,51,64,216
8,51,96,88
8,51,61,216
8,51,97,88
8,51,64,216
8,51,96,88
8,51,96,344
8,51,61,216
8,51,96,88
8,51,97,344
8,51,61,216
8,51,96,88
8,51,96,344
8,51,64,216
8,51,96,88
8,51,61,216
8,51,97,88
8,51,64,216
8,51,96,88
8,51,96,344
8,51,61,216
8,51,96,88
8,51,97,344
8,51,61,216
8,51,96,88
8,51,96,344
8,51,64,216
8,51,96,88
8,51,61,216
8,51,97,88
8,51,64,216
8,51,96,88
8,51,96,344
8,51,61,216
8,51,96,88
8,51,97,344
8,51,61,216
8,51,96,88
8,51,96,344
8,51,64,216
8,51,96,88
8,51,61,216
8,51,97,88
8,51,64,216
8,51,96,88
8,51,96,344
8,51,61,216
8,51,96,88
8,51,97,344
8,51,61,216
8,51,96,88
8,51,96,344
8,51,64,216
8,51,96,88
8,51,61,216
8,51,97,88
8,51,64,216
8,51,96,88
8,51,96,344
8,51,61,216
8,51,96,88
8,51,97,344
8,51,61,216
8,51,96,88
8,51,96,344
8,51,64,216
8,51,96,88
8,51,61,216
8,51,97,88
8,51,64,216
8,51,96,88
8,51,96,344
8,51,61,216
8,51,96,88
8,51,97,344
8,51,61,216
8,51,96,88
8,51,96,344
8,51,64,216
8,51,96,88
8,51,61,216
8,51,97,88
8,51,64,216
8,51,96,88
8,51,96,344
8,51,61,216
8,51,96,88
8,51,97,344
8,51,61,216
8,51,96,88
8,51,96,344
8,51,64,216
8,51,96,88
8,51,61,216
8,51,97,88
8,51,64,216
8,51,96,88
8,51,96,344
8,51,61,216
8,51,96,88
8,51,97,344
8,51,61,216
8,51,96,88
8,51,96,344
8,51,64,216
8,51,96,88
8,51,61,216
8,51,97,88
8,51,64,216
8,51,96,88
8,51,96,344
8,51,61,216
8,51,96,88
8,51,97,344
8,51,61,216
8,51,96,88
8,51,96,344
8,51,64,216
8,51,96,88
8,51,61,216
8,51,97,88
8,51,64,216
8,51,96,88
8,51,96,344
8,51,61,216
8,51,96,88
8,51,97,344
8,51,61,216
8,51,96,88
8,51,96,344
8,51,64,216
8,51,96,88
8,51,61,216
8,51,97,88
8,51,64,216
8,51,96,88
8,51,96,344
8,51,61,216
8,51,96,88
8,51,97,344
8,51,61,216
8,51,96,88
8,51,96,344
8,51,64,216
8,51,96,88
8,51,61,216
8,51,97,88
8,51,64,216
8,51,96,88
8,51,96,344
8,51,61,216
8,51,96,88
8,51,97,344
8,51,61,216
8,51,96,88
8,51,96,344
8,51,64,216
8,51,96,88
8,51,61,216
8,51,97,88
8,51,64,216
8,51,96,88
8,51,96,344
8,51,61,216
8,51,96,88
8,51,97,344
8,51,61,216
8,51,96,88
8,51,96,344
8,51,64,216
8,51,96,88
8,51,61,216
8,51,97,88
8,51,64,216
8,51,96,88
8,51,96,344
8,51,61,216
8,51,96,88
8,51,97,344
8,51,61,216
8,51,96,88
8,51,96,344
8,51,64,216
8,51,96,88
8,51,61,216
8,51,97,88
8,51,64,216
8,51,96,88
8,51,96,344
8,51,61,216
8,51,96,88
8,51,97,344
8,51,61,216
8,51,96,88
8,51,96,344
8,51,64,216
8,51,96,88
8,51,61,216
8,51,97,88
8,51,64,216
8,51,96,88
8,51,96,344
8,51,61,216
8,51,96,88
8,51,97,344
8,51,61,216
8,51,96,88
8,51,96,344
8,51,64,216
8,51,96,88
8,51,61,216
8,51,97,88
8,51,64,216
8,51,96,88
8,51,96,344
8,51,61,216
8,51,96,88
8,51,97,344
8,51,61,216
8,51,96,88
8,51,96,344
8,51,64,216
8,51,96,88
8,51,61,216
8,51,97,88
8,51,64,216
8,51,96,88
8,51,96,344
8,51,61,216
8,51,96,88
8,51,97,344
8,51,61,216
8,51,96,88
8,51,96,344
8,51,64,216
8,51,96,88
8,51,61,216
8,51,97,88
8,51,64,216
8,51,96,88
8,51,96,344
8,51,61,216
8,51,96,88
8,51,97,344
8,51,61,216
8,51,96,88
8,51,96,344
8,51,64,216
8,51,96,88
8,51,61,216
8,51,97,88
8,51,64,216
8,51,96,88
8,51,96,344
8,51,61,216
8,51,96,88
8,51,97,344
8,51,61,216
8,51,96,88
8,51,96,344
8,51,64,216
8,51,96,88
8,51,61,216
8,51,97,88
8,51,64,216
8,51,96,88
8,51,96,344
8,51,61,216
8,51,96,88
8,51,97,344
8,51,61,216
8,51,96,88
8,51,96,344
8,51,64,216
8,51,96,88
8,51,61,216
8,51,97,88
8,51,64,216
8,51,96,88
8,51,96,344
8,51,61,216
8,51,96,88
8,51,97,344
8,51,61,216
8,51,96,88
8,51,96,344
8,51,64,216
8,51,96,88
8,51,61,216
8,51,97,88
8,51,64,216
8,51,96,88
8,51,96,344
8,51,61,216
8,51,96,88
8,51,97,344
8,51,61,216
8,51,96,88
8,51,96,344
8,51,64,216
8,51,96,88
8,51,61,216
8,51,97,88
8,51,64,216
8,51,96,6616
8,51,61,216
8,51,96,88
8,51,97,344
8,51,61,216
8,51,96,88
8,51,96,344
8,51,64,216
8,51,96,88
8,51,61,216
8,51,97,88
8,51,64,216
8,51,96,88
8,51,96,344
8,51,61,216
8,51,96,88
8,51,97,344
8,51,61,216
