track,note,velocity,time
1,40,113,1896
1,36,120,0
1,40,73,4414
1,40,75,382
1,36,69,0
1,40,79,190
1,40,86,190
1,40,117,190
1,48,106,190
1,40,113,0
1,45,120,190
1,40,106,0
1,45,115,190
1,40,109,0
1,49,93,190
1,36,124,0
1,46,70,190
1,46,104,190
1,40,120,0
1,46,70,190
1,46,70,190
1,36,122,0
1,46,70,190
1,46,86,190
1,40,127,0
1,46,70,190
1,46,74,190
1,36,127,0
1,46,70,190
1,46,93,190
1,40,127,0
1,46,70,190
1,46,74,190
1,36,127,0
1,46,70,190
1,46,86,190
1,40,127,0
1,46,70,190
1,46,70,190
1,36,127,0
1,46,70,190
1,46,71,190
1,40,127,0
1,46,70,190
1,46,70,190
1,36,127,0
1,46,70,190
1,46,76,190
1,40,126,0
1,46,70,190
1,46,81,190
1,36,127,0
1,46,70,190
1,46,81,190
1,40,127,0
1,46,70,190
1,46,74,190
1,36,120,0
1,46,70,190
1,36,75,0
1,46,94,190
1,40,127,0
1,46,70,190
1,36,79,0
1,46,81,190
1,36,126,0
1,46,70,190
1,46,85,190
1,40,127,0
1,46,70,190
1,46,76,190
1,36,127,0
1,46,70,190
1,46,85,190
1,40,127,0
1,46,70,190
1,46,77,190
1,36,127,0
1,46,70,190
1,46,75,190
1,40,127,0
1,46,70,190
1,46,72,190
1,36,120,0
1,46,70,190
1,46,82,190
1,40,126,0
1,46,70,190
1,36,80,0
1,46,76,190
1,36,127,0
1,46,70,190
1,46,76,190
1,40,127,0
1,46,70,190
1,46,71,190
1,36,124,0
1,46,70,190
1,46,86,190
1,40,127,0
1,46,70,190
1,46,70,190
1,36,124,0
1,46,70,190
1,46,82,190
1,40,127,0
1,46,70,190
1,46,77,190
1,36,110,0
1,46,70,190
1,36,76,0
1,46,103,190
1,40,127,0
1,46,70,190
1,36,71,0
1,46,99,190
1,36,127,0
1,46,70,190
1,46,96,190
1,40,127,0
1,46,70,190
1,46,85,190
1,36,127,0
1,46,70,190
1,46,86,190
1,40,127,0
1,46,70,190
1,46,75,190
1,36,127,0
1,46,70,190
1,46,82,190
1,40,127,0
1,46,70,190
1,46,74,190
1,36,127,0
1,46,70,190
1,46,88,190
1,40,126,0
1,46,70,190
1,36,68,0
1,46,86,190
1,36,126,0
1,46,70,190
1,46,96,190
1,40,127,0
1,46,70,190
1,46,81,190
1,36,120,0
1,46,70,190
1,46,80,190
1,40,124,0
1,46,70,190
1,46,74,190
1,36,110,0
1,46,104,190
1,40,120,0
1,36,90,190
1,49,103,190
1,40,117,0
1,36,82,190
1,45,88,190
1,41,113,190
1,36,127,0
1,41,95,190
1,49,93,190
1,36,124,0
1,46,70,190
1,46,104,190
1,40,120,0
1,46,70,190
1,46,70,190
1,36,122,0
1,46,70,190
1,46,86,190
1,40,127,0
1,46,70,190
1,46,74,190
1,36,127,0
1,46,70,190
1,46,93,190
1,40,127,0
1,46,70,190
1,46,74,190
1,36,127,0
1,46,70,190
1,46,86,190
1,40,127,0
1,46,70,190
1,46,70,190
1,36,127,0
1,46,70,190
1,46,71,190
1,40,127,0
1,46,70,190
1,46,70,190
1,36,127,0
1,46,70,190
1,46,76,190
1,40,126,0
1,46,70,190
1,46,81,190
1,36,127,0
1,46,70,190
1,46,81,190
1,40,127,0
1,46,70,190
1,46,74,190
1,36,120,0
1,46,70,190
1,36,75,0
1,46,94,190
1,40,127,0
1,46,70,190
1,36,79,0
1,46,81,190
1,36,126,0
1,46,70,190
1,46,85,190
1,40,127,0
1,46,70,190
1,46,76,190
1,36,127,0
1,46,70,190
1,46,85,190
1,40,127,0
1,46,70,190
1,46,77,190
1,36,127,0
1,46,70,190
1,46,75,190
1,40,127,0
1,46,70,190
1,46,72,190
1,36,120,0
1,46,70,190
1,46,82,190
1,40,126,0
1,46,70,190
1,36,80,0
1,46,76,190
1,36,127,0
1,46,70,190
1,46,76,190
1,40,127,0
1,46,70,190
1,46,71,190
1,36,124,0
1,46,70,190
1,46,86,190
1,40,127,0
1,46,70,190
1,46,70,190
1,36,124,0
1,46,70,190
1,46,82,190
1,40,127,0
1,46,70,190
1,46,77,190
1,36,110,0
1,46,70,190
1,36,76,0
1,46,103,190
1,40,127,0
1,46,70,190
1,36,71,0
1,46,99,190
1,36,127,0
1,46,70,190
1,46,96,190
1,40,127,0
1,46,70,190
1,46,85,190
1,36,127,0
1,46,70,190
1,46,86,190
1,40,127,0
1,46,70,190
1,46,75,190
1,36,127,0
1,46,70,190
1,46,82,190
1,40,127,0
1,46,70,190
1,46,74,190
1,36,127,0
1,46,70,190
1,46,88,190
1,40,126,0
1,46,70,190
1,36,68,0
1,46,86,190
1,36,126,0
1,46,70,190
1,46,96,190
1,40,127,0
1,46,70,190
1,46,81,190
1,36,120,0
1,46,70,190
1,46,80,190
1,40,124,0
1,46,70,190
1,49,89,190
1,36,100,0
1,48,89,190
1,36,90,0
1,48,93,190
1,36,102,0
1,45,102,190
1,36,108,0
1,45,110,190
1,36,112,0
1,41,124,190
1,36,115,0
1,41,117,190
1,36,113,0
1,36,112,190
1,49,93,190
1,36,124,0
1,46,70,190
1,46,104,190
1,40,120,0
1,46,70,190
1,46,70,190
1,36,122,0
1,46,70,190
1,46,86,190
1,40,127,0
1,46,70,190
1,46,74,190
1,36,127,0
1,46,70,190
1,46,93,190
1,40,127,0
1,46,70,190
1,46,74,190
1,36,127,0
1,46,70,190
1,46,86,190
1,40,127,0
1,46,70,190
1,46,70,190
1,36,127,0
1,46,70,190
1,46,71,190
1,40,127,0
1,46,70,190
1,46,70,190
1,36,127,0
1,46,70,190
1,46,76,190
1,40,126,0
1,46,70,190
1,46,81,190
1,36,127,0
1,46,70,190
1,46,81,190
1,40,127,0
1,46,70,190
1,46,74,190
1,36,120,0
1,46,70,190
1,36,75,0
1,46,94,190
1,40,127,0
1,46,70,190
1,36,79,0
1,46,81,190
1,36,126,0
1,46,70,190
1,46,85,190
1,40,127,0
1,46,70,190
1,46,76,190
1,36,127,0
1,46,70,190
1,46,85,190
1,40,127,0
1,46,70,190
1,46,77,190
1,36,127,0
1,46,70,190
1,46,75,190
1,40,127,0
1,46,70,190
1,46,72,190
1,36,120,0
1,46,70,190
1,46,82,190
1,40,126,0
1,46,70,190
1,36,80,0
1,46,76,190
1,36,127,0
1,46,70,190
1,46,76,190
1,40,127,0
1,46,70,190
1,46,71,190
1,36,124,0
1,46,70,190
1,46,86,190
1,40,127,0
1,46,70,190
1,46,70,190
1,36,124,0
1,46,70,190
1,46,82,190
1,40,127,0
1,46,70,190
1,46,77,190
1,36,110,0
1,46,70,190
1,36,76,0
1,46,103,190
1,40,127,0
1,46,70,190
1,36,71,0
1,46,99,190
1,36,127,0
1,46,70,190
1,46,96,190
1,40,127,0
1,46,70,190
1,46,85,190
1,36,127,0
1,46,70,190
1,46,86,190
1,40,127,0
1,46,70,190
1,46,75,190
1,36,127,0
1,46,70,190
1,46,82,190
1,40,127,0
1,46,70,190
1,46,74,190
1,36,127,0
1,46,70,190
1,46,88,190
1,40,126,0
1,46,70,190
1,36,68,0
1,46,86,190
1,36,126,0
1,46,70,190
1,46,96,190
1,40,127,0
1,46,70,190
1,46,81,190
1,36,120,0
1,46,70,190
1,46,80,190
1,40,124,0
1,46,70,190
1,46,74,190
1,36,110,0
1,46,104,190
1,40,120,0
1,36,90,190
1,49,103,190
1,40,117,0
1,36,82,190
1,45,88,190
1,41,113,190
1,36,127,0
1,41,95,190
1,49,93,190
1,36,124,0
1,46,70,190
1,46,104,190
1,40,120,0
1,46,70,190
1,46,70,190
1,36,122,0
1,46,70,190
1,46,86,190
1,40,127,0
1,46,70,190
1,46,74,190
1,36,127,0
1,46,70,190
1,46,93,190
1,40,127,0
1,46,70,190
1,46,74,190
1,36,127,0
1,46,70,190
1,46,86,190
1,40,127,0
1,46,70,190
1,46,70,190
1,36,127,0
1,46,70,190
1,46,71,190
1,40,127,0
1,46,70,190
1,46,70,190
1,36,127,0
1,46,70,190
1,46,76,190
1,40,126,0
1,46,70,190
1,46,81,190
1,36,127,0
1,46,70,190
1,46,81,190
1,40,127,0
1,46,70,190
1,46,74,190
1,36,120,0
1,46,70,190
1,36,75,0
1,46,94,190
1,40,127,0
1,46,70,190
1,36,79,0
1,46,81,190
1,36,126,0
1,46,70,190
1,46,85,190
1,40,127,0
1,46,70,190
1,46,76,190
1,36,127,0
1,46,70,190
1,46,85,190
1,40,127,0
1,46,70,190
1,46,77,190
1,36,127,0
1,46,70,190
1,46,75,190
1,40,127,0
1,46,70,190
1,46,72,190
1,36,120,0
1,46,70,190
1,46,82,190
1,40,126,0
1,46,70,190
1,36,80,0
1,46,76,190
1,36,127,0
1,46,70,190
1,46,76,190
1,40,127,0
1,46,70,190
1,46,71,190
1,36,124,0
1,46,70,190
1,46,86,190
1,40,127,0
1,46,70,190
1,46,70,190
1,36,124,0
1,46,70,190
1,46,82,190
1,40,127,0
1,46,70,190
1,46,77,190
1,36,110,0
1,46,70,190
1,36,76,0
1,46,103,190
1,40,127,0
1,46,70,190
1,36,71,0
1,46,99,190
1,36,127,0
1,46,70,190
1,46,96,190
1,40,127,0
1,46,70,190
1,46,85,190
1,36,127,0
1,46,70,190
1,46,86,190
1,40,127,0
1,46,70,190
1,46,75,190
1,36,127,0
1,46,70,190
1,46,82,190
1,40,127,0
1,46,70,190
1,46,74,190
1,36,127,0
1,46,70,190
1,46,88,190
1,40,126,0
1,46,70,190
1,36,68,0
1,46,86,190
1,36,126,0
1,46,70,190
1,46,96,190
1,40,127,0
1,46,70,190
1,46,81,190
1,36,120,0
1,46,70,190
1,46,80,190
1,40,124,0
1,46,70,190
1,49,89,190
1,36,100,0
1,48,89,190
1,36,90,0
1,48,93,190
1,36,102,0
1,45,102,190
1,36,108,0
1,45,110,190
1,36,112,0
1,41,124,190
1,36,115,0
1,41,117,190
1,36,113,0
1,36,112,190
1,40,113,190
1,36,120,0
1,40,73,4414
1,40,75,382
1,36,69,0
1,40,79,190
1,40,86,190
1,40,117,190
1,48,106,190
1,40,113,0
1,45,120,190
1,40,106,0
1,45,115,190
1,40,109,0
1,49,120,190
1,36,120,0
1,36,88,190
1,46,120,190
1,40,124,0
1,46,107,382
1,36,104,0
1,36,89,190
1,46,122,190
1,40,124,0
1,46,118,382
1,36,100,0
1,36,86,190
1,46,118,190
1,40,120,0
1,46,112,382
1,36,102,0
1,36,94,190
1,46,118,190
1,40,117,0
1,36,73,190
1,46,120,190
1,36,112,0
1,36,84,190
1,46,120,190
1,40,120,0
1,46,111,382
1,36,100,0
1,36,83,190
1,46,118,190
1,40,117,0
1,46,107,382
1,36,95,0
1,36,76,190
1,46,116,190
1,40,120,0
1,46,106,382
1,36,97,0
1,36,88,190
1,46,106,190
1,40,113,0
1,49,86,190
1,36,110,0
1,46,81,190
1,36,86,0
1,36,109,190
1,46,116,190
1,40,117,0
1,46,114,382
1,36,98,0
1,36,86,190
1,46,103,190
1,40,120,0
1,46,106,382
1,36,97,0
1,36,90,190
1,46,112,190
1,40,122,0
1,46,107,382
1,36,94,0
1,36,96,190
1,46,106,190
1,40,117,0
1,36,89,190
1,49,91,190
1,36,117,0
1,36,86,190
1,46,107,190
1,40,117,0
1,46,107,382
1,36,95,0
1,36,90,190
1,46,106,190
1,40,113,0
1,49,85,190
1,36,105,0
1,46,94,190
1,49,80,190
1,36,119,0
1,40,113,190
1,36,110,190
1,46,82,190
1,40,115,0
1,36,106,190
1,46,118,190
1,40,127,0
1,36,104,190
1,49,107,190
1,36,120,0
1,36,69,190
1,51,104,190
1,40,117,0
1,51,109,382
1,36,104,0
1,36,74,190
1,51,112,190
1,40,119,0
1,51,107,382
1,36,104,0
1,36,82,190
1,51,116,190
1,40,124,0
1,51,111,382
1,36,94,0
1,36,82,190
1,51,116,190
1,40,117,0
1,51,104,382
1,36,119,0
1,36,86,190
1,51,111,190
1,40,117,0
1,51,111,382
1,36,93,0
1,36,80,190
1,51,114,190
1,40,119,0
1,51,107,382
1,36,93,0
1,36,90,190
1,51,107,190
1,40,117,0
1,51,107,382
1,36,86,0
1,36,90,190
1,51,93,190
1,40,109,0
1,49,103,190
1,36,115,0
1,51,76,190
1,36,97,0
1,36,94,190
1,51,107,190
1,40,110,0
1,51,104,382
1,36,104,0
1,36,82,190
1,51,116,190
1,40,119,0
1,51,122,382
1,36,97,0
1,36,84,190
1,51,116,190
1,40,113,0
1,51,109,382
1,36,92,0
1,36,90,190
1,51,127,190
1,40,110,0
1,36,71,190
1,49,95,190
1,36,119,0
1,36,90,190
1,46,109,190
1,40,115,0
1,49,103,382
1,36,113,0
1,36,98,190
1,46,100,190
1,40,117,0
1,49,69,382
1,36,96,0
1,49,79,190
1,36,92,0
1,49,84,190
1,36,108,0
1,49,81,190
1,36,105,0
1,49,85,190
1,36,112,0
1,49,91,190
1,36,108,0
1,49,86,190
1,36,113,0
1,49,86,190
1,36,113,0
1,49,93,190
1,36,124,0
1,46,70,190
1,46,104,190
1,40,120,0
1,46,70,190
1,46,70,190
1,36,122,0
1,46,70,190
1,46,86,190
1,40,127,0
1,46,70,190
1,46,74,190
1,36,127,0
1,46,70,190
1,46,93,190
1,40,127,0
1,46,70,190
1,46,74,190
1,36,127,0
1,46,70,190
1,46,86,190
1,40,127,0
1,46,70,190
1,46,70,190
1,36,127,0
1,46,70,190
1,46,71,190
1,40,127,0
1,46,70,190
1,46,70,190
1,36,127,0
1,46,70,190
1,46,76,190
1,40,126,0
1,46,70,190
1,46,81,190
1,36,127,0
1,46,70,190
1,46,81,190
1,40,127,0
1,46,70,190
1,46,74,190
1,36,120,0
1,46,70,190
1,36,75,0
1,46,94,190
1,40,127,0
1,46,70,190
1,36,79,0
1,46,81,190
1,36,126,0
1,46,70,190
1,46,85,190
1,40,127,0
1,46,70,190
1,46,76,190
1,36,127,0
1,46,70,190
1,46,85,190
1,40,127,0
1,46,70,190
1,46,77,190
1,36,127,0
1,46,70,190
1,46,75,190
1,40,127,0
1,46,70,190
1,46,72,190
1,36,120,0
1,46,70,190
1,46,82,190
1,40,126,0
1,46,70,190
1,36,80,0
1,46,76,190
1,36,127,0
1,46,70,190
1,46,76,190
1,40,127,0
1,46,70,190
1,46,71,190
1,36,124,0
1,46,70,190
1,46,86,190
1,40,127,0
1,46,70,190
1,46,70,190
1,36,124,0
1,46,70,190
1,46,82,190
1,40,127,0
1,46,70,190
1,46,77,190
1,36,110,0
1,46,70,190
1,36,76,0
1,46,103,190
1,40,127,0
1,46,70,190
1,36,71,0
1,46,99,190
1,36,127,0
1,46,70,190
1,46,96,190
1,40,127,0
1,46,70,190
1,46,85,190
1,36,127,0
1,46,70,190
1,46,86,190
1,40,127,0
1,46,70,190
1,46,75,190
1,36,127,0
1,46,70,190
1,46,82,190
1,40,127,0
1,46,70,190
1,46,74,190
1,36,127,0
1,46,70,190
1,46,88,190
1,40,126,0
1,46,70,190
1,36,68,0
1,46,86,190
1,36,126,0
1,46,70,190
1,46,96,190
1,40,127,0
1,46,70,190
1,46,81,190
1,36,120,0
1,46,70,190
1,46,80,190
1,40,124,0
1,46,70,190
1,46,74,190
1,36,110,0
1,46,104,190
1,40,120,0
1,36,90,190
1,49,103,190
1,40,117,0
1,36,82,190
1,45,88,190
1,41,113,190
1,36,127,0
1,41,95,190
1,49,93,190
1,36,124,0
1,46,70,190
1,46,104,190
1,40,120,0
1,46,70,190
1,46,70,190
1,36,122,0
1,46,70,190
1,46,86,190
1,40,127,0
1,46,70,190
1,46,74,190
1,36,127,0
1,46,70,190
1,46,93,190
1,40,127,0
1,46,70,190
1,46,74,190
1,36,127,0
1,46,70,190
1,46,86,190
1,40,127,0
1,46,70,190
1,46,70,190
1,36,127,0
1,46,70,190
1,46,71,190
1,40,127,0
1,46,70,190
1,46,70,190
1,36,127,0
1,46,70,190
1,46,76,190
1,40,126,0
1,46,70,190
1,46,81,190
1,36,127,0
1,46,70,190
1,46,81,190
