track,note,velocity,time
1,34,127,1536
1,34,127,2840
1,39,112,2774
1,43,72,60
1,46,96,2
1,43,99,384
1,39,105,358
1,43,92,52
1,46,101,16
1,43,96,384
1,34,101,144
1,38,82,42
1,41,94,14
1,43,90,74
1,46,96,8
1,43,96,384
1,41,96,28
1,38,99,42
1,41,94,80
1,45,88,24
1,48,99,384
1,45,99,38
1,39,92,56
1,43,84,30
1,46,96,384
1,43,96,382
1,34,103,88
1,38,82,50
1,41,90,384
1,38,101,38
1,34,77,56
1,38,94,32
1,41,96,8
1,38,103,32
1,34,99,32
1,38,99,42
1,41,96,384
1,43,82,42
1,46,92,384
1,43,96,374
1,41,103,48
1,38,94,38
1,34,90,16
1,38,94,46
1,41,105,384
1,43,94,52
1,46,99,4
1,43,94,384
1,41,99,40
1,38,92,384
1,39,116,40
1,43,94,0
1,46,99,12
1,43,94,384
1,39,99,0
1,43,77,24
1,46,96,10
1,43,96,384
1,34,101,94
1,38,86,384
1,41,88,16
1,43,88,4
1,46,94,24
1,43,90,384
1,41,94,14
1,38,92,16
1,41,94,70
1,45,84,384
1,48,86,370
1,45,94,376
1,41,88,14
1,45,94,384
1,48,99,364
1,45,101,372
1,34,96,136
1,38,86,18
1,41,94,24
1,38,96,2
1,34,80,0
1,38,88,42
1,41,103,36
1,38,99,24
1,34,114,92
1,38,82,384
1,41,105,382
1,43,114,20
1,46,101,16
1,43,88,384
1,41,101,24
1,38,96,58
1,34,82,384
1,38,92,24
1,41,109,384
1,43,86,2
1,46,96,8
1,43,96,384
1,41,99,358
1,38,94,24
1,39,116,8
1,43,90,18
1,46,99,384
1,43,96,14
1,39,99,384
1,43,96,348
1,46,94,364
1,43,82,30
1,34,94,64
1,38,82,8
1,41,99,40
1,43,96,28
1,46,92,10
1,43,92,384
1,41,103,16
1,38,99,24
1,41,112,22
1,45,92,4
1,48,86,0
1,45,99,384
1,41,96,8
1,45,82,384
1,48,90,6
1,45,88,384
1,34,99,160
1,38,82,28
1,41,105,384
1,43,101,52
1,46,103,384
1,43,96,362
1,41,96,16
1,38,99,24
1,34,99,120
1,38,99,42
1,41,96,384
1,43,82,42
1,46,92,384
1,43,96,374
1,41,103,48
1,38,94,38
1,34,90,16
1,38,94,46
1,41,105,384
1,43,94,52
1,46,99,4
1,43,94,384
1,41,99,40
1,38,92,384
1,39,116,40
1,43,94,0
1,46,99,12
1,43,94,384
1,39,99,0
1,43,77,24
1,46,96,10
1,43,96,384
1,34,101,94
1,38,86,384
1,41,88,16
1,43,88,4
1,46,94,24
1,43,90,384
1,41,94,14
1,38,92,16
1,41,94,70
1,45,84,384
1,48,86,370
1,45,94,376
1,41,88,14
1,45,94,384
1,48,99,364
1,45,101,372
1,34,96,136
1,38,86,18
1,41,94,24
1,38,96,2
1,34,80,0
1,38,88,42
1,41,103,36
1,38,99,24
1,34,114,92
1,38,82,384
1,41,105,382
1,43,114,20
1,46,101,16
1,43,88,384
1,41,101,24
1,38,96,58
1,34,82,384
1,38,92,24
1,41,109,384
1,43,86,2
1,46,96,8
1,43,96,384
1,41,99,358
1,38,94,24
1,39,116,8
1,43,90,18
1,46,99,384
1,43,96,14
1,39,99,384
1,43,96,348
1,46,94,364
1,43,82,30
1,34,94,64
1,38,82,8
1,41,99,40
1,43,96,28
1,46,92,10
1,43,92,384
1,41,103,16
1,38,99,24
1,41,112,22
1,45,92,4
1,48,86,0
1,45,99,384
1,41,96,8
1,45,82,384
1,48,90,6
1,45,88,384
1,34,99,160
1,38,82,28
1,41,105,384
1,43,101,52
1,46,103,384
1,43,96,362
1,41,96,16
1,38,99,24
1,34,99,120
1,38,99,42
1,41,96,384
1,43,82,42
1,46,92,384
1,43,96,374
1,41,103,48
1,38,94,38
1,34,90,16
1,38,94,46
1,41,105,384
1,43,94,52
1,46,99,4
1,43,94,384
1,41,99,40
1,38,92,384
1,39,116,40
1,43,94,0
1,46,99,12
1,43,94,384
1,39,99,0
1,43,77,24
1,46,96,10
1,43,96,384
1,34,101,94
1,38,86,384
1,41,88,16
1,43,88,4
1,46,94,24
1,43,90,384
1,41,94,14
1,38,92,16
1,41,94,70
1,45,84,384
1,48,86,370
1,45,94,376
1,41,88,14
1,45,94,384
1,48,99,364
1,45,101,372
1,34,96,136
1,38,86,18
1,41,94,24
1,38,96,2
1,34,80,0
1,38,88,42
1,41,103,36
1,38,99,24
1,34,99,92
1,38,99,42
1,41,96,384
1,43,82,42
1,46,92,384
1,43,96,374
1,41,103,48
1,38,94,38
1,34,90,16
1,38,94,46
1,41,105,384
1,43,94,52
1,46,99,4
1,43,94,384
1,41,99,40
1,38,92,384
1,39,116,40
1,43,94,0
1,46,99,12
1,43,94,384
1,39,99,0
1,43,77,24
1,46,96,10
1,43,96,384
1,34,101,94
1,38,86,384
1,41,88,16
1,43,88,4
1,46,94,24
1,43,90,384
1,41,94,14
1,38,92,16
1,41,94,70
1,45,84,384
1,48,86,370
1,45,94,376
1,41,88,14
1,45,94,384
1,48,99,364
1,45,101,372
1,34,96,136
1,38,86,18
1,41,94,24
1,38,96,2
1,34,80,0
1,38,88,42
1,41,103,36
1,38,99,24
1,34,99,92
1,38,99,42
1,41,96,384
1,43,82,42
1,46,92,384
1,43,96,374
1,41,103,48
1,38,94,38
1,34,90,16
1,38,94,46
1,41,105,384
1,43,94,52
1,46,99,4
1,43,94,384
1,41,99,40
1,38,92,384
1,39,116,40
1,43,94,0
1,46,99,12
1,43,94,384
1,39,99,0
1,43,77,24
1,46,96,10
1,43,96,384
1,34,101,94
1,38,86,384
1,41,88,16
1,43,88,4
1,46,94,24
1,43,90,384
1,41,94,14
1,38,92,16
1,41,94,70
1,45,84,384
1,48,86,370
1,45,94,376
1,41,88,14
1,45,94,384
1,48,99,364
1,45,101,372
1,34,96,136
1,38,86,18
1,41,94,24
1,38,96,2
1,34,80,0
1,38,88,42
1,41,103,36
1,38,99,24
1,34,114,92
1,38,82,384
1,41,105,382
1,43,114,20
1,46,101,16
1,43,88,384
1,41,101,24
1,38,96,58
1,34,82,384
1,38,92,24
1,41,109,384
1,43,86,2
1,46,96,8
1,43,96,384
1,41,99,358
1,38,94,24
1,39,116,8
1,43,90,18
1,46,99,384
1,43,96,14
1,39,99,384
1,43,96,348
1,46,94,364
1,43,82,30
1,34,94,64
1,38,82,8
1,41,99,40
1,43,96,28
1,46,92,10
1,43,92,384
1,41,103,16
1,38,99,24
1,41,112,22
1,45,92,4
1,48,86,0
1,45,99,384
1,41,96,8
1,45,82,384
1,48,90,6
1,45,88,384
1,34,109,148
1,38,112,24
1,41,114,70
1,43,116,40
1,46,114,388
1,41,114,352
1,34,121,86
2,65,105,1536
2,58,100,0
2,62,100,0
2,53,91,0
2,46,100,0
2,65,102,2942
2,62,98,0
2,56,102,0
2,53,91,0
2,46,100,64
2,87,72,2910
2,67,85,0
2,94,87,0
2,58,87,0
2,51,100,0
2,70,100,0
2,63,100,0
2,87,72,32
2,94,87,0
2,87,80,78
2,94,100,0
2,87,100,78
2,70,93,0
2,94,105,0
2,68,100,0
2,65,100,0
2,87,89,8
2,94,102,0
2,87,105,8
2,51,82,0
2,94,105,0
2,58,72,0
2,94,102,54
2,70,82,0
2,87,107,0
2,67,72,0
2,63,78,0
2,94,102,82
2,87,98,0
2,87,107,80
2,51,93,0
2,94,110,0
2,58,76,0
2,94,110,50
2,70,102,0
2,87,110,0
2,65,102,0
2,68,107,0
2,87,107,80
2,94,107,0
2,94,105,0
2,51,98,0
2,87,107,0
2,58,87,0
2,87,113,24
2,70,98,0
2,94,110,0
2,67,95,0
2,63,85,0
2,87,105,48
2,94,102,0
2,87,105,78
2,51,85,0
2,94,102,0
2,58,70,0
2,87,110,40
2,67,102,0
2,94,102,0
2,61,98,0
2,70,102,0
2,94,53,28
2,87,107,0
2,87,105,72
2,70,110,0
2,67,107,0
2,61,102,0
2,87,110,74
2,86,105,72
2,84,102,68
2,51,91,0
2,58,76,0
2,86,116,40
2,70,102,0
2,61,93,0
2,67,91,0
2,84,110,48
2,86,105,70
2,46,87,0
2,53,57,0
2,82,91,14
2,62,80,0
2,80,82,0
2,56,61,0
2,86,89,0
2,65,93,0
2,80,105,68
2,86,107,0
2,53,63,80
2,80,119,48
2,60,87,0
2,86,116,0
2,65,91,0
2,58,85,0
2,63,102,0
2,86,116,16
2,46,72,0
2,80,107,0
2,53,72,0
2,62,80,16
2,65,91,0
2,56,87,0
2,80,105,24
2,86,102,0
2,80,89,82
2,46,68,0
2,86,102,0
2,53,70,0
2,80,105,8
2,65,105,0
2,86,110,0
2,63,107,0
2,60,95,0
2,53,76,114
2,80,105,64
2,46,72,0
2,86,119,0
2,62,87,66
2,65,91,0
2,58,87,0
2,80,91,120
2,86,102,0
2,80,87,82
2,46,89,0
2,86,100,0
2,53,87,0
2,80,105,32
2,65,110,0
2,86,110,0
2,63,107,0
2,60,102,0
2,80,82,34
2,62,102,0
2,86,107,0
2,58,102,0
2,65,102,0
2,80,113,40
2,79,122,60
2,80,113,56
2,53,89,0
2,46,89,0
2,82,116,20
2,62,102,0
2,65,105,0
2,58,98,0
2,81,119,48
2,84,122,30
2,81,107,16
2,73,82,0
2,72,82,0
2,69,95,0
2,63,100,0
2,84,110,68
2,81,107,8
2,53,89,0
2,60,85,0
2,84,122,54
2,72,102,0
2,69,100,0
2,63,98,0
2,81,107,28
2,87,122,72
2,53,48,0
2,60,57,0
2,81,110,8
2,69,87,0
2,72,95,0
2,63,87,0
2,84,110,66
2,81,116,32
2,53,85,0
2,60,76,0
2,89,113,50
2,69,89,0
2,63,93,0
2,72,100,0
2,89,122,8
2,51,87,0
2,58,82,0
2,61,82,24
2,67,82,0
2,70,98,0
2,87,110,40
2,89,100,0
2,87,95,56
2,51,74,0
2,89,100,0
2,58,70,0
2,89,122,42
2,67,98,0
2,87,122,0
2,61,95,0
2,70,102,0
2,87,102,22
2,89,105,0
2,87,107,64
2,67,105,0
2,89,102,0
2,70,113,0
2,61,105,0
2,89,102,44
2,87,105,0
2,89,100,72
2,87,102,0
2,87,105,88
2,51,87,0
2,89,110,0
2,58,85,0
2,89,122,44
2,67,100,0
2,87,119,0
2,61,98,0
2,70,107,0
2,89,105,80
2,87,105,0
2,87,107,78
2,46,95,0
2,89,107,0
2,53,85,0
2,58,72,16
2,62,82,0
2,56,63,0
2,65,98,0
2,94,113,34
2,89,102,10
2,46,68,60
2,53,64,0
2,82,93,20
2,60,95,40
2,65,91,0
2,58,82,0
2,63,102,0
2,94,105,6
2,89,105,12
2,53,76,28
2,46,70,8
2,82,105,16
2,62,93,0
2,65,98,0
2,56,89,0
2,94,110,34
2,89,95,2
2,46,76,110
2,53,74,0
2,82,105,0
2,65,87,10
2,63,102,0
2,60,91,0
2,94,107,18
2,89,107,6
2,46,68,10
2,53,80,0
2,82,102,22
2,65,89,8
2,62,93,0
2,58,85,0
2,94,107,18
2,89,107,120
2,46,61,2
2,53,72,0
2,82,105,12
2,94,110,10
2,65,102,0
2,63,107,0
2,60,102,0
2,89,105,12
2,82,113,116
2,62,100,2
2,65,105,0
2,58,98,0
2,89,107,32
2,97,98,104
2,96,105,4
2,53,85,16
2,46,85,0
2,94,82,14
2,92,72,30
2,90,102,10
2,89,105,14
2,65,98,4
2,60,100,0
2,63,98,0
2,87,113,2
2,85,105,12
2,84,102,12
2,82,110,10
2,80,100,0
2,78,105,16
2,77,102,20
2,75,107,18
2,73,105,0
2,72,110,6
2,70,100,12
2,68,105,10
2,66,95,8
2,65,66,20
2,65,80,54
2,58,87,0
2,74,82,0
2,77,100,0
2,70,98,0
2,77,91,76
2,72,87,0
2,75,102,0
2,65,74,12
2,58,85,0
2,77,87,28
2,74,87,0
2,70,80,0
2,58,68,256
2,65,64,0
2,77,98,30
2,75,105,0
2,72,98,0
2,65,80,8
2,58,85,0
2,77,91,38
2,74,89,0
2,70,82,0
2,65,72,4
2,58,82,0
2,77,85,30
2,75,93,0
2,72,87,0
2,58,70,8
2,65,82,0
2,77,74,32
2,74,70,0
2,70,72,0
2,58,85,6
2,65,72,0
2,77,85,38
2,75,98,0
2,72,85,0
2,58,98,16
2,65,87,0
2,74,35,56
2,77,43,0
2,68,47,0
2,58,82,16
2,65,74,0
2,74,91,40
2,77,98,0
2,68,95,0
2,58,66,56
2,65,58,0
2,68,68,50
2,74,78,0
2,77,85,0
2,58,70,256
2,65,74,0
2,68,98,66
2,74,100,0
2,77,100,0
2,65,72,0
2,58,74,0
2,68,85,44
2,77,82,0
2,74,78,0
2,74,89,70
2,68,87,0
2,77,91,0
2,58,80,40
2,65,82,0
2,74,95,50
2,77,100,0
2,68,93,0
2,77,100,122
2,74,100,0
2,68,95,0
2,58,85,128
2,65,78,0
2,74,70,46
2,68,91,0
2,77,85,0
2,65,74,28
2,58,80,0
2,74,89,26
2,68,91,0
2,77,98,0
2,51,68,64
2,58,60,0
2,67,64,56
2,61,78,0
2,70,85,0
2,58,66,6
2,65,64,62
2,70,82,0
2,68,85,0
2,51,68,8
2,58,70,0
2,67,82,56
2,61,85,0
2,70,93,0
2,58,66,256
2,61,93,62
2,67,91,0
2,70,98,0
2,51,80,20
2,58,70,0
2,61,76,44
2,70,82,0
2,67,70,0
2,51,70,2
2,58,72,0
2,70,102,74
2,67,105,0
2,61,98,0
2,70,107,198
2,67,102,0
2,61,100,0
2,58,85,384
2,51,87,0
2,70,102,38
2,61,89,0
2,67,95,0
2,46,55,506
2,53,51,0
2,65,95,46
2,58,85,0
2,62,98,0
2,53,52,8
2,62,70,142
2,58,74,0
2,65,89,0
2,53,70,2
2,62,85,48
2,58,85,0
2,65,95,0
2,46,68,82
2,53,68,0
2,70,110,290
2,64,102,0
2,65,119,14
2,70,100,50
2,65,105,0
2,70,107,64
2,65,110,0
2,64,107,64
2,70,70,40
2,63,105,0
2,62,119,66
2,70,102,0
2,70,29,82
2,72,105,408
2,69,105,0
2,65,100,0
2,53,76,70
2,60,70,0
2,69,100,330
2,72,102,0
2,65,98,0
2,53,82,0
2,60,68,0
2,72,89,28
2,69,85,0
2,65,80,0
2,53,70,256
2,60,68,0
2,65,58,44
2,72,105,182
2,69,107,0
2,65,100,0
2,53,82,26
2,60,82,0
2,63,82,328
2,65,72,0
2,69,91,0
2,72,95,0
2,60,74,2
2,53,89,0
2,69,89,34
2,72,102,0
2,65,93,0
2,62,58,174
2,58,68,0
2,65,82,0
2,46,68,32
2,53,70,0
2,65,85,38
2,63,85,0
2,60,85,0
2,46,52,18
2,53,51,0
2,65,42,84
2,62,63,0
2,58,70,0
2,46,72,8
2,53,78,0
2,65,93,40
2,63,95,0
2,60,82,0
2,53,70,14
2,46,72,0
2,65,45,48
2,56,48,0
2,62,51,0
2,65,102,202
2,62,110,0
2,56,102,0
2,46,89,56
2,53,93,0
2,62,55,58
2,65,64,0
2,56,58,0
2,53,85,60
2,46,87,0
2,62,107,56
2,65,105,0
2,56,98,0
2,62,107,184
2,56,95,0
2,65,107,0
2,53,98,44
2,46,98,0
2,56,68,60
2,65,82,0
2,62,82,0
2,53,107,62
2,46,105,0
2,46,87,316
2,53,89,0
2,62,100,40
2,56,87,0
2,65,100,0
2,53,59,72
2,62,80,92
2,56,78,0
2,65,89,0
2,62,87,76
2,56,91,0
2,65,98,0
2,46,87,16
2,53,80,0
2,62,95,182
2,56,91,0
2,65,102,0
2,46,53,384
2,53,55,0
2,62,82,66
2,56,76,0
2,65,93,0
2,53,57,0
2,62,60,66
2,65,78,0
2,56,61,0
2,46,93,256
2,53,85,0
2,62,89,38
2,56,82,0
2,65,95,0
2,65,105,84
2,56,95,0
2,62,105,0
2,46,72,12
2,53,80,0
2,46,60,176
2,53,60,0
2,62,87,64
2,56,85,0
2,65,98,0
2,53,38,156
2,62,56,98
2,56,56,0
2,65,64,0
2,46,59,0
2,53,70,0
2,65,87,44
2,63,95,0
2,60,89,0
2,56,87,104
2,58,87,0
2,62,98,0
2,65,100,0
