track,note,velocity,time
1,59,127,3448
1,59,127,100
1,59,127,104
1,59,127,76
1,61,127,48
1,59,127,56
1,59,127,1192
1,59,127,108
1,61,127,12
1,59,127,36
1,61,127,36
1,59,127,72
1,59,127,60
1,59,127,1152
1,59,127,104
1,61,127,48
1,59,127,16
1,61,127,44
1,61,127,100
1,59,127,28
1,59,127,1184
1,59,127,120
1,61,127,48
1,64,127,0
1,61,127,12
1,59,127,12
1,64,127,1092
1,64,127,256
1,64,127,72
1,61,127,28
1,57,127,48
1,64,127,832
1,64,127,136
1,64,127,120
1,66,127,16
1,64,127,184
1,64,127,152
1,59,127,20
1,59,127,1084
1,59,127,148
1,61,127,28
1,59,127,0
1,61,127,64
1,59,127,48
1,59,127,160
1,59,127,1096
1,59,127,120
1,56,127,32
1,54,127,36
1,52,127,24
1,59,127,644
1,59,127,84
1,59,127,172
1,61,127,48
1,59,127,172
1,59,127,156
1,59,127,1308
1,61,127,12
1,59,127,40
1,61,127,12
1,64,127,64
1,59,127,28
1,59,127,1276
1,61,127,116
1,59,127,72
1,61,127,44
1,59,127,44
1,59,127,72
1,59,127,836
1,59,127,72
1,61,127,16
1,59,127,16
1,61,127,36
1,59,127,32
1,59,127,84
1,64,127,1148
1,64,127,84
1,64,127,84
1,64,127,80
1,61,127,48
1,57,127,36
1,64,127,1092
1,64,127,68
1,66,127,44
1,64,127,12
1,66,127,32
1,64,127,32
1,59,127,32
1,59,127,1060
1,61,127,72
1,59,127,44
1,61,127,44
1,59,127,56
1,59,127,128
1,59,127,180
1,59,127,564
1,56,127,0
1,56,127,72
1,54,127,32
1,52,127,40
1,52,127,96
1,59,127,300
1,59,127,88
1,59,127,96
1,59,127,36
1,59,127,76
1,59,127,24
1,61,127,56
1,61,127,104
1,64,127,1144
1,64,127,124
1,66,127,16
1,64,127,36
1,66,127,32
1,59,127,96
1,59,127,124
1,59,127,1024
1,59,127,136
1,61,127,28
1,59,127,4
1,61,127,60
1,59,127,12
1,59,127,60
1,59,127,972
1,61,127,92
1,62,127,88
1,61,127,16
1,59,127,16
1,61,127,76
1,59,127,60
1,59,127,1140
1,59,127,96
1,64,127,20
1,64,127,180
1,61,127,28
1,64,127,28
1,61,127,1160
1,64,127,64
1,66,127,28
1,64,127,48
1,61,127,0
1,61,127,104
1,59,127,48
1,62,127,1116
1,61,127,20
1,59,127,36
1,61,127,52
1,59,127,20
1,61,127,88
1,59,127,28
1,62,127,1140
1,61,127,36
1,59,127,28
1,61,127,92
1,59,127,48
1,56,127,184
1,52,127,196
1,59,127,1172
1,59,127,88
1,59,127,76
1,61,127,48
1,59,127,56
1,59,127,148
1,59,127,1096
1,61,127,20
1,62,127,32
1,61,127,28
1,59,127,48
1,59,127,44
1,59,127,1064
1,61,127,64
1,59,127,124
1,61,127,56
1,59,127,44
1,59,127,116
1,59,127,924
1,59,127,64
1,61,127,48
1,64,127,28
1,61,127,12
1,59,127,184
1,61,127,64
1,59,127,24
1,64,127,1128
1,64,127,92
1,64,127,84
1,64,127,76
1,61,127,52
1,57,127,64
1,64,127,1240
1,66,127,32
1,64,127,52
1,66,127,12
1,59,127,36
1,59,127,60
1,59,127,1036
1,61,127,44
1,64,127,12
1,61,127,40
1,59,127,12
1,61,127,88
1,59,127,44
1,62,127,1156
1,61,127,64
1,59,127,32
1,61,127,32
1,59,127,44
1,59,127,232
1,59,127,104
1,59,127,25920
1,59,127,84
1,59,127,128
1,61,127,44
1,59,127,32
1,59,127,136
1,59,127,1028
1,59,127,56
1,61,127,44
1,59,127,28
1,61,127,48
1,59,127,36
1,59,127,124
1,59,127,1312
1,59,127,84
1,61,127,116
1,59,127,44
1,61,127,100
1,59,127,44
1,59,127,1164
1,59,127,60
1,61,127,12
1,59,127,28
1,62,127,152
1,61,127,12
1,59,127,40
1,59,127,1104
1,64,127,16
1,64,127,88
1,64,127,100
1,64,127,16
1,66,127,48
1,64,127,32
1,61,127,1108
1,64,127,12
1,66,127,12
1,64,127,28
1,66,127,88
1,64,127,64
1,59,127,24
1,59,127,1044
1,61,127,200
1,62,127,56
1,61,127,60
1,59,127,60
1,61,127,100
1,59,127,36
1,59,127,1016
1,61,127,12
1,59,127,56
1,56,127,72
1,54,127,76
1,52,127,48
1,52,127,28
1,59,127,992
1,61,127,96
1,59,127,96
1,61,127,32
1,59,127,28
1,59,127,152
1,59,127,732
1,61,127,32
1,64,127,12
1,61,127,192
1,59,127,0
1,61,127,180
1,59,127,12
1,59,127,1144
1,61,127,76
1,59,127,32
1,62,127,28
1,61,127,16
1,59,127,12
1,59,127,1084
1,61,127,0
1,62,127,32
1,61,127,48
1,59,127,12
1,61,127,44
1,59,127,0
1,64,127,940
1,64,127,124
1,61,127,48
1,64,127,48
1,66,127,16
1,61,127,160
1,64,127,32
1,64,127,52
1,61,127,972
1,64,127,200
1,66,127,152
1,68,127,0
1,66,127,32
1,64,127,44
1,66,127,0
1,64,127,28
1,59,127,1140
1,61,127,68
1,64,127,12
1,61,127,184
1,59,127,0
1,61,127,48
1,59,127,52
1,59,127,1136
1,59,127,168
1,56,127,164
1,55,127,20
1,56,127,0
1,54,127,12
1,52,127,28
2,35,127,3072
2,35,127,832
2,35,127,144
2,39,127,384
2,42,127,364
2,44,127,376
2,42,127,128
2,35,127,16
2,39,127,12
2,42,127,384
2,44,127,364
2,42,127,176
2,28,127,24
2,32,127,384
2,35,127,12
2,37,127,28
2,35,127,0
2,28,127,64
2,32,127,384
2,35,127,368
2,37,127,12
2,35,127,16
2,39,127,384
2,42,127,356
2,44,127,364
2,42,127,188
2,35,127,16
2,39,127,384
2,42,127,348
2,44,127,352
2,42,127,140
2,28,127,28
2,32,127,4
2,35,127,384
2,37,127,348
2,35,127,188
2,28,127,32
2,32,127,384
2,35,127,352
2,37,127,32
2,35,127,188
2,33,127,48
2,37,127,4
2,40,127,384
2,42,127,4
2,40,127,4
2,33,127,32
2,37,127,8
2,40,127,384
2,42,127,12
2,40,127,196
2,28,127,44
2,32,127,4
2,35,127,384
2,37,127,32
2,35,127,4
2,28,127,52
2,32,127,4
2,35,127,384
2,37,127,8
2,35,127,388
2,39,127,376
2,42,127,12
2,44,127,384
2,42,127,176
2,35,127,172
2,39,127,380
2,42,127,380
2,44,127,372
2,42,127,188
2,28,127,48
2,32,127,384
2,35,127,340
2,37,127,12
2,35,127,192
2,28,127,16
2,28,127,888
2,35,127,388
2,39,127,376
2,42,127,348
2,44,127,40
2,42,127,192
2,35,127,4
2,35,127,860
2,28,127,4
2,32,127,4
2,35,127,384
2,37,127,20
2,35,127,188
2,28,127,16
2,28,127,824
2,35,127,384
2,39,127,376
2,42,127,4
2,44,127,4
2,42,127,188
2,35,127,20
2,35,127,808
2,28,127,4
2,32,127,384
2,35,127,376
2,37,127,28
2,35,127,188
2,28,127,32
2,28,127,784
2,33,127,384
2,37,127,376
2,40,127,348
2,42,127,360
2,40,127,176
2,33,127,16
2,33,127,824
2,28,127,24
2,32,127,384
2,35,127,352
2,37,127,24
2,35,127,192
2,28,127,8
2,28,127,824
2,35,127,384
2,39,127,376
2,42,127,4
2,44,127,4
2,42,127,192
2,35,127,4
2,28,127,1148
2,32,127,384
2,35,127,364
2,37,127,40
2,35,127,188
2,28,127,4
2,40,127,384
2,37,127,360
2,35,127,340
2,33,127,28
2,37,127,380
2,40,127,352
2,42,127,4
2,40,127,192
2,33,127,4
2,37,127,384
2,40,127,368
2,42,127,352
2,40,127,184
2,28,127,36
2,32,127,384
2,35,127,372
2,37,127,12
2,35,127,192
2,28,127,36
2,32,127,384
2,35,127,352
2,37,127,348
2,35,127,384
2,39,127,16
2,42,127,384
2,44,127,348
2,42,127,184
2,35,127,8
2,39,127,384
2,42,127,344
2,44,127,4
2,42,127,188
2,28,127,28
2,32,127,4
2,35,127,4
2,37,127,12
2,35,127,196
2,28,127,160
2,40,127,12
2,37,127,388
2,35,127,360
2,33,127,40
2,37,127,384
2,40,127,336
2,42,127,364
2,40,127,184
2,33,127,32
2,37,127,384
2,40,127,348
2,42,127,0
2,40,127,192
2,28,127,16
2,32,127,380
2,35,127,368
2,37,127,36
2,35,127,196
2,28,127,36
2,32,127,4
2,35,127,384
2,37,127,28
2,35,127,16
2,39,127,384
2,42,127,16
2,44,127,4
2,42,127,188
2,35,127,4
2,39,127,384
2,42,127,4
2,44,127,384
2,42,127,164
2,28,127,44
2,32,127,384
2,35,127,372
2,37,127,8
2,35,127,196
2,40,127,140
2,37,127,28
2,35,127,16
2,32,127,16
2,35,127,384
2,39,127,332
2,42,127,4
2,44,127,8
2,42,127,192
2,35,127,164
2,39,127,368
2,42,127,12
2,39,127,384
2,35,127,140
2,28,127,172
2,32,127,372
2,35,127,8
2,37,127,12
2,35,127,196
2,28,127,48
2,32,127,384
2,35,127,372
2,37,127,16
2,35,127,384
2,39,127,376
2,42,127,4
2,44,127,24
2,42,127,192
2,35,127,4
2,39,127,28
2,42,127,388
2,39,127,376
2,35,127,0
2,28,127,196
2,32,127,376
2,35,127,364
2,37,127,16
2,35,127,192
2,40,127,36
2,28,127,28
2,30,127,388
2,32,127,20
2,33,127,64
2,37,127,384
2,40,127,344
2,42,127,4
2,40,127,192
2,33,127,4
2,37,127,20
2,40,127,384
2,42,127,344
2,40,127,188
2,28,127,0
2,32,127,8
2,35,127,388
2,37,127,24
2,35,127,192
2,28,127,32
2,30,127,384
2,32,127,364
2,33,127,324
2,35,127,4
2,39,127,384
2,42,127,324
2,44,127,4
2,42,127,196
2,35,127,136
2,33,127,32
2,32,127,384
2,30,127,368
2,28,127,352
2,28,127,0
2,32,127,372
2,35,127,368
2,37,127,16
2,35,127,188
2,40,127,20
2,28,127,384
2,30,127,372
2,32,127,356
2,35,127,32
2,39,127,384
2,42,127,376
2,44,127,12
2,42,127,192
2,35,127,148
2,39,127,372
2,42,127,4
2,44,127,384
2,42,127,172
2,28,127,48
2,32,127,384
2,35,127,316
2,37,127,12
2,35,127,188
2,40,127,4
2,37,127,32
2,35,127,384
2,32,127,28
2,35,127,384
2,39,127,324
2,42,127,28
2,44,127,92
2,42,127,196
2,35,127,128
2,39,127,368
2,42,127,356
2,44,127,360
2,42,127,180
2,28,127,48
2,32,127,380
2,35,127,356
2,37,127,4
2,35,127,188
2,40,127,32
2,28,127,384
2,30,127,368
2,32,127,372
2,33,127,40
2,37,127,384
2,40,127,344
2,42,127,316
2,40,127,188
2,33,127,16
2,37,127,384
2,40,127,352
2,42,127,336
2,40,127,180
2,28,127,32
2,32,127,384
2,35,127,368
2,37,127,28
2,35,127,192
2,28,127,48
2,30,127,380
2,32,127,336
2,33,127,368
2,35,127,28
2,39,127,380
2,42,127,316
2,44,127,348
2,42,127,184
2,35,127,132
2,33,127,4
2,32,127,4
2,30,127,384
2,28,127,12
2,32,127,384
2,35,127,336
2,37,127,4
2,35,127,188
2,28,127,192
2,28,127,852
2,35,127,8
2,39,127,384
2,42,127,4
2,44,127,384
2,42,127,188
2,35,127,160
2,35,127,788
2,28,127,388
2,32,127,368
2,35,127,376
2,37,127,360
2,35,127,176
2,28,127,4
2,28,127,828
2,35,127,384
2,39,127,364
2,42,127,348
2,44,127,380
2,42,127,188
2,35,127,160
2,35,127,704
2,28,127,8
2,32,127,384
2,35,127,376
2,37,127,12
2,35,127,196
2,28,127,48
2,28,127,824
2,33,127,8
2,37,127,384
2,40,127,316
2,42,127,356
2,40,127,176
2,33,127,20
2,33,127,768
2,28,127,384
2,32,127,356
2,35,127,328
2,37,127,32
2,35,127,0
2,28,127,8
2,28,127,812
2,35,127,384
2,39,127,376
2,42,127,28
2,44,127,384
2,42,127,188
2,35,127,16
2,28,127,1128
2,32,127,384
2,35,127,368
2,37,127,360
2,35,127,184
2,40,127,4
2,28,127,16
2,30,127,384
2,32,127,364
2,35,127,20
2,39,127,384
2,42,127,16
2,44,127,380
2,42,127,184
2,35,127,164
2,39,127,376
2,42,127,332
2,44,127,380
2,42,127,152
2,28,127,16
2,32,127,8
2,35,127,384
2,37,127,368
2,35,127,188
2,28,127,32
2,30,127,384
2,32,127,376
2,33,127,364
2,35,127,4
2,39,127,384
2,42,127,340
2,44,127,376
2,42,127,20
2,35,127,20
2,39,127,384
2,42,127,32
2,44,127,384
2,42,127,184
2,28,127,32
2,32,127,380
2,35,127,364
2,37,127,16
2,35,127,188
2,40,127,32
2,28,127,20
2,30,127,384
2,32,127,368
2,33,127,28
2,37,127,384
2,40,127,344
2,42,127,320
2,40,127,188
2,33,127,16
2,37,127,384
2,40,127,316
2,42,127,348
2,40,127,176
2,28,127,48
2,32,127,380
2,35,127,360
2,37,127,360
2,35,127,192
2,40,127,32
2,37,127,384
2,35,127,368
2,32,127,40
2,35,127,384
2,39,127,380
2,42,127,332
2,44,127,28
2,42,127,192
2,35,127,20
2,33,127,384
2,32,127,376
2,30,127,376
2,28,127,12
2,32,127,384
2,35,127,332
2,32,127,12
2,33,127,60
2,33,127,0
2,37,127,379
2,40,127,340
2,37,127,4
2,33,127,32
2,28,127,12
2,40,127,372
3,47,127,1536
3,47,120,60
3,45,127,40
3,45,122,68
3,44,127,32
3,44,119,100
3,42,127,72
3,42,127,52
3,35,127,52
3,47,124,868
3,47,115,64
3,51,118,36
3,51,109,44
3,54,122,16
3,54,110,44
3,56,127,12
3,54,116,24
3,47,127,4
3,47,116,84
3,51,125,20
3,51,120,88
3,54,127,44
3,54,120,68
3,56,127,20
3,54,125,192
3,40,127,36
3,40,118,100
3,44,127,4
3,44,122,76
3,47,127,60
3,47,124,88
3,49,117,60
3,47,127,44
3,40,123,76
3,40,122,104
3,44,127,48
3,44,118,68
3,47,127,32
3,47,121,88
3,49,116,64
3,47,111,192
3,47,122,100
3,47,120,104
3,51,125,36
3,51,120,72
3,54,124,44
3,54,120,64
3,56,127,64
3,54,115,40
3,47,127,48
3,47,123,100
3,51,127,20
3,51,122,72
3,54,119,44
3,54,115,48
3,56,120,20
3,54,120,4
3,40,127,60
3,40,115,104
3,44,125,64
3,44,120,56
3,47,124,4
3,47,123,88
3,49,117,60
3,47,127,28
3,40,127,76
3,40,126,100
3,44,127,80
3,44,119,56
3,47,126,48
3,47,124,88
3,49,115,48
3,47,127,32
3,45,127,76
3,45,126,104
3,49,127,76
3,49,115,76
3,52,124,60
3,52,122,72
3,54,120,52
3,52,126,36
3,45,127,64
3,45,116,92
3,49,122,60
3,52,117,384
3,52,123,52
3,54,120,48
3,52,127,36
3,40,127,64
3,40,121,100
3,44,127,64
3,44,122,76
3,47,124,60
3,47,123,84
3,49,115,60
3,47,127,48
3,40,127,68
3,40,121,120
3,44,127,76
3,44,120,72
3,47,123,48
3,47,123,88
3,49,114,64
3,47,127,36
3,47,127,80
3,47,121,104
3,51,127,64
3,51,125,84
3,54,120,56
3,54,118,80
3,56,127,32
3,54,109,40
3,47,127,16
3,47,121,120
3,51,125,60
3,51,118,76
3,54,117,48
3,54,101,48
3,56,124,20
3,54,124,20
3,40,127,76
3,40,122,88
3,44,127,76
3,44,122,72
3,47,127,56
3,47,126,68
3,49,115,60
3,47,127,4
3,52,124,32
3,47,127,1332
3,47,115,100
3,51,127,36
3,51,119,76
3,54,127,48
3,54,119,72
3,56,127,16
3,54,120,188
3,47,127,28
3,47,118,960
3,40,127,388
3,40,117,88
3,44,127,64
3,44,122,84
3,47,127,48
3,47,127,76
3,49,118,48
3,47,127,4
3,40,127,44
3,47,127,1284
3,47,123,104
3,51,127,80
3,51,119,88
3,54,127,32
3,54,122,64
3,56,127,48
3,54,119,12
3,47,127,40
3,47,127,948
3,40,127,384
3,40,122,104
3,44,127,88
3,44,120,52
3,47,127,12
3,47,127,92
3,49,115,60
3,47,127,28
3,40,127,76
3,40,127,920
3,45,127,56
3,45,127,72
3,49,127,76
3,49,119,64
3,52,127,196
3,52,126,68
3,54,119,48
3,52,127,192
3,52,116,56
3,45,127,0
3,40,117,1544
3,44,127,196
3,44,127,72
3,47,127,44
3,45,109,4
3,47,127,72
3,49,127,60
3,47,127,20
3,40,127,196
