track,note,velocity,time
1,33,94,4608
1,33,94,1310
1,37,94,18
1,40,94,26
1,42,94,6
1,33,94,6
1,33,94,1384
1,37,94,2
1,40,94,16
1,42,94,16
1,33,94,0
1,38,94,1410
1,42,94,384
1,45,94,24
1,47,94,28
1,38,94,16
1,33,94,1386
1,37,94,34
1,40,94,8
1,42,94,26
1,33,94,384
1,40,94,1410
1,44,94,0
1,47,94,14
1,49,94,8
1,38,94,384
1,33,94,1378
1,37,94,384
1,40,94,4
1,42,94,26
1,33,94,24
1,33,94,1368
1,37,94,384
1,40,94,352
1,42,94,16
1,33,94,16
1,33,94,1384
1,37,94,384
1,40,94,358
1,42,94,12
1,33,94,18
1,38,94,1388
1,42,94,2
1,45,94,18
1,47,94,40
1,38,94,10
1,33,94,1384
1,37,94,384
1,40,94,362
1,42,94,28
1,33,94,14
1,40,94,1420
1,44,94,384
1,47,94,8
1,49,94,30
1,38,94,6
1,33,94,1406
1,37,94,384
1,40,94,14
1,42,94,16
1,33,94,24
1,33,94,1416
1,37,94,384
1,40,94,18
1,42,94,28
1,33,94,32
1,37,94,16
1,40,94,8
1,42,94,8
1,33,94,0
1,37,94,22
1,40,94,384
1,42,94,14
1,33,94,34
1,35,94,50
1,36,94,12
1,37,94,32
1,38,94,384
1,42,94,24
1,45,94,24
1,47,94,24
1,48,94,12
1,47,94,16
1,45,94,16
1,42,94,24
1,45,94,24
1,42,94,16
1,40,94,18
1,42,94,40
1,33,94,0
1,37,94,40
1,38,94,0
1,39,94,24
1,40,94,18
1,44,94,48
1,47,94,80
1,49,94,24
1,38,94,14
1,42,94,40
1,43,94,384
1,44,94,32
1,45,94,0
1,37,94,16
1,38,94,16
1,39,94,32
1,40,94,384
1,30,94,32
1,31,94,18
1,32,94,34
1,33,94,24
1,37,94,18
1,40,94,14
1,42,94,14
1,43,94,6
1,42,94,24
1,40,94,4
1,37,94,24
1,33,94,26
1,37,94,18
1,40,94,2
1,42,94,34
1,43,94,384
1,35,94,26
1,36,94,24
1,37,94,32
1,38,94,384
1,42,94,24
1,45,94,30
1,47,94,16
1,48,94,14
1,47,94,34
1,45,94,8
1,42,94,20
1,45,94,0
1,40,94,44
1,42,94,14
1,40,94,32
1,45,94,384
1,37,94,24
1,38,94,36
1,39,94,34
1,40,94,32
1,44,94,30
1,47,94,16
1,49,94,16
1,38,94,6
1,36,94,52
1,35,94,34
1,34,94,28
1,33,94,14
1,37,94,2
1,38,94,64
1,39,94,34
1,40,94,24
1,30,94,2
1,31,94,12
1,32,94,32
1,33,94,60
1,37,94,32
1,40,94,8
1,42,94,16
1,33,94,14
1,37,94,16
1,40,94,384
1,42,94,16
1,33,94,4
1,42,94,12
1,40,94,18
1,37,94,16
1,33,94,36
1,35,94,12
1,36,94,24
1,37,94,26
1,38,94,32
1,42,94,16
1,45,94,16
1,47,94,16
1,48,94,384
1,47,94,16
1,45,94,8
1,42,94,32
1,33,94,18
1,37,94,10
1,40,94,384
1,42,94,16
1,43,94,12
1,37,94,16
1,38,94,0
1,39,94,20
1,40,94,0
1,44,94,48
1,47,94,2
1,49,94,36
1,38,94,14
1,42,94,30
1,43,94,0
1,44,94,32
1,45,94,28
1,43,94,24
1,42,94,10
1,41,94,14
1,40,94,0
1,33,94,1346
1,37,94,28
1,40,94,12
1,42,94,12
1,33,94,14
1,33,94,1394
1,37,94,8
1,40,94,16
1,42,94,8
1,33,94,384
1,38,94,1422
1,42,94,14
1,45,94,384
1,47,94,16
1,38,94,0
1,33,94,1394
1,37,94,2
1,40,94,0
1,42,94,20
1,33,94,8
1,40,94,1426
1,44,94,14
1,47,94,8
1,49,94,0
1,38,94,16
1,33,94,1406
1,37,94,384
1,40,94,20
1,42,94,0
1,33,94,24
1,33,94,1304
1,37,94,384
1,40,94,352
1,42,94,16
1,33,94,14
1,33,94,1384
1,37,94,384
1,40,94,358
1,42,94,8
1,33,94,16
1,38,94,1386
1,42,94,10
1,45,94,16
1,47,94,40
1,38,94,8
1,33,94,1378
1,37,94,384
1,40,94,354
1,42,94,28
1,33,94,16
1,40,94,1420
1,44,94,384
1,47,94,10
1,49,94,32
1,38,94,8
1,33,94,1408
1,37,94,384
1,40,94,14
1,42,94,16
1,33,94,24
1,33,94,1418
1,37,94,384
1,40,94,16
1,42,94,26
1,33,94,30
1,37,94,16
1,40,94,8
1,42,94,8
1,33,94,2
1,37,94,22
1,40,94,384
1,42,94,14
1,33,94,34
1,35,94,50
1,36,94,12
1,37,94,32
1,38,94,384
1,42,94,24
1,45,94,22
1,47,94,24
1,48,94,12
1,47,94,16
1,45,94,16
1,42,94,24
1,45,94,24
1,42,94,16
1,40,94,18
1,42,94,40
1,33,94,384
1,37,94,40
1,38,94,2
1,39,94,28
1,40,94,18
1,44,94,50
1,47,94,80
1,49,94,24
1,38,94,12
1,42,94,42
1,43,94,384
1,44,94,30
1,45,94,0
1,37,94,20
1,38,94,16
1,39,94,32
1,40,94,384
1,30,94,32
1,31,94,14
1,32,94,34
1,33,94,24
1,37,94,18
1,40,94,16
1,42,94,16
1,43,94,14
1,42,94,24
1,40,94,0
1,37,94,26
1,33,94,30
1,37,94,18
1,40,94,0
1,42,94,36
1,43,94,384
1,35,94,18
1,36,94,24
1,37,94,32
1,38,94,384
1,42,94,24
1,45,94,26
1,47,94,14
1,48,94,14
1,47,94,36
1,45,94,8
1,42,94,20
1,45,94,384
1,40,94,40
1,42,94,16
1,40,94,26
1,45,94,384
1,37,94,18
1,38,94,32
1,39,94,40
1,40,94,30
1,44,94,32
1,47,94,18
1,49,94,26
1,38,94,12
1,36,94,50
1,35,94,32
1,34,94,32
1,33,94,20
1,37,94,2
1,38,94,62
1,39,94,34
1,40,94,28
1,30,94,4
1,31,94,10
1,32,94,32
1,33,94,62
1,37,94,34
1,40,94,0
1,42,94,16
1,33,94,14
1,37,94,20
1,40,94,0
1,42,94,6
1,33,94,10
1,42,94,14
1,40,94,16
1,37,94,16
1,33,94,36
1,35,94,14
1,36,94,24
1,37,94,32
1,38,94,34
1,42,94,18
1,45,94,16
1,47,94,18
1,48,94,64
1,47,94,16
1,45,94,8
1,42,94,30
1,33,94,16
1,37,94,18
1,40,94,384
1,42,94,16
1,43,94,10
1,37,94,16
1,38,94,0
1,39,94,20
1,40,94,0
1,44,94,48
1,47,94,2
1,49,94,36
1,38,94,14
1,36,94,384
1,35,94,50
1,34,94,24
1,33,94,72
1,34,94,1814
1,33,94,86
1,33,94,356
2,57,82,4610
2,64,91,2
2,69,91,0
2,57,73,1718
2,64,82,2
2,69,73,0
2,67,73,10
2,67,109,128
2,64,100,2
2,57,91,0
2,69,91,2
2,69,65,40
2,67,73,4
2,64,73,52
2,57,91,24
2,62,109,116
2,69,91,4
2,66,100,2
2,64,109,108
2,69,100,4
2,57,100,4
2,61,100,2
2,64,100,1664
2,57,73,8
2,67,91,4
2,69,73,8
2,57,91,272
2,67,100,8
2,64,109,2
2,69,100,0
2,69,65,40
2,67,73,16
2,64,91,64
2,57,82,2
2,62,109,100
2,69,100,2
2,66,100,2
2,61,109,74
2,69,91,8
2,64,109,4
2,57,91,2
2,69,100,1816
2,66,100,14
2,62,82,0
2,74,69,4
2,62,57,22
2,67,109,8
2,71,100,6
2,74,100,2
2,62,41,16
2,71,109,80
2,67,100,12
2,74,91,0
2,62,91,2
2,62,100,74
2,69,100,6
2,74,91,0
2,66,100,2
2,57,82,1704
2,67,109,4
2,64,109,8
2,69,91,2
2,57,91,288
2,64,109,2
2,67,109,6
2,69,91,4
2,69,61,48
2,67,82,30
2,64,100,66
2,57,91,18
2,62,100,110
2,69,91,2
2,66,100,0
2,64,109,116
2,57,109,4
2,69,100,0
2,61,100,2
2,64,100,1700
2,71,109,4
2,74,109,4
2,76,100,2
2,76,100,260
2,69,109,6
2,73,109,2
2,64,100,0
2,76,100,254
2,71,100,2
2,68,100,0
2,64,109,2
2,62,100,78
2,69,100,10
2,66,91,0
2,74,82,2
2,69,91,1676
2,67,82,4
2,57,69,4
2,64,91,4
2,57,91,272
2,67,100,4
2,69,100,4
2,64,109,0
2,69,73,58
2,67,73,26
2,64,91,4
2,57,91,8
2,62,109,112
2,66,100,4
2,69,100,4
2,61,100,144
2,57,100,4
2,64,109,0
2,69,91,4
2,57,91,1672
2,61,100,4
2,64,100,4
2,69,100,4
2,57,82,280
2,62,100,12
2,66,91,4
2,69,91,0
2,57,100,258
2,64,118,8
2,67,100,6
2,69,91,2
2,69,45,80
2,67,82,20
2,64,91,8
2,57,91,4
2,61,109,116
2,64,109,4
2,69,100,2
2,57,82,1596
2,64,100,2
2,69,91,6
2,67,91,2
2,57,91,282
2,64,100,0
2,67,100,6
2,69,91,2
2,69,49,66
2,67,82,10
2,64,82,54
2,57,82,0
2,62,109,98
2,66,100,6
2,69,100,2
2,57,91,48
2,69,91,4
2,61,109,4
2,64,109,0
2,62,91,1646
2,72,109,10
2,69,109,2
2,74,91,0
2,62,109,298
2,74,100,2
2,69,118,4
2,72,109,0
2,74,69,40
2,72,73,48
2,69,100,38
2,62,73,18
2,71,100,104
2,74,100,2
2,67,118,8
2,74,100,94
2,69,109,2
2,62,109,4
2,66,100,2
2,64,91,1670
2,57,82,0
2,69,82,2
2,64,100,122
2,57,91,2
2,69,100,4
2,64,100,114
2,57,91,2
2,69,109,0
2,69,91,50
2,62,100,4
2,57,91,2
2,66,91,0
2,69,91,54
2,64,91,4
2,61,109,4
2,57,82,0
2,64,100,1688
2,71,100,4
2,76,100,4
2,68,109,4
2,73,100,294
2,64,91,6
2,69,100,2
2,76,100,0
2,76,91,48
2,64,82,8
2,71,100,0
2,68,100,0
2,71,109,88
2,64,100,2
2,76,91,2
2,68,109,0
2,69,109,98
2,62,100,14
2,74,100,2
2,66,109,0
2,64,109,1664
2,67,100,4
2,57,91,4
2,69,82,4
2,57,82,296
2,67,109,4
2,64,109,4
2,69,100,2
2,69,73,74
2,67,91,26
2,64,91,46
2,57,82,18
2,66,109,102
2,69,100,4
2,62,109,8
2,61,109,82
2,57,100,6
2,64,100,4
2,69,100,0
2,57,100,1410
2,61,100,4
2,69,91,0
2,64,100,2
2,62,100,64
2,66,100,2
2,57,91,0
2,69,91,2
2,61,65,106
2,69,65,6
2,57,53,4
2,64,53,0
2,62,109,106
2,69,100,0
2,57,91,2
2,66,91,0
2,67,82,96
2,63,82,10
2,57,73,4
2,69,82,0
2,64,82,8
2,62,100,90
2,57,91,12
2,69,100,4
2,66,91,2
2,61,82,96
2,69,73,2
2,64,82,0
2,57,73,6
2,62,91,64
2,57,82,12
2,66,100,2
2,69,82,2
2,64,100,280
2,57,100,4
2,61,100,8
2,69,100,0
2,69,57,58
2,64,69,48
2,61,100,46
2,57,82,30
2,69,91,88
2,62,109,2
2,66,100,2
2,69,82,80
2,57,73,18
2,61,73,0
2,64,82,18
2,62,100,106
2,57,91,6
2,69,82,2
2,66,82,0
2,64,109,110
2,69,91,0
2,67,100,2
2,57,91,0
2,62,109,114
2,66,91,12
2,57,82,0
2,69,91,2
2,61,91,102
2,64,82,14
2,57,82,2
2,69,69,2
2,57,82,60
2,66,100,8
2,62,100,0
2,69,82,6
2,62,100,264
2,72,100,4
2,74,91,0
2,69,109,2
2,62,91,202
2,69,100,2
2,72,100,0
2,74,82,0
2,62,69,60
2,67,100,4
2,74,100,6
2,71,91,0
2,69,100,128
2,62,91,2
2,66,91,8
2,74,100,0
2,67,109,126
2,74,91,10
2,62,100,2
2,71,100,0
2,74,91,130
2,62,82,0
2,69,100,2
2,72,91,0
2,74,91,118
2,62,100,2
2,67,109,2
2,71,100,0
2,69,82,106
2,62,82,10
2,66,73,4
2,74,69,0
2,62,91,52
2,74,82,4
2,67,82,0
2,71,91,6
2,61,91,226
2,64,91,4
2,57,91,0
2,69,91,2
2,66,91,68
2,57,82,6
2,62,100,2
2,69,82,0
2,69,82,106
2,67,91,0
2,57,73,2
2,64,91,2
2,62,91,94
2,57,73,2
2,66,100,2
2,69,91,2
2,69,91,114
2,64,100,0
2,67,100,4
2,57,73,2
2,62,100,96
2,57,82,16
2,69,91,6
2,66,82,0
2,64,82,50
2,57,73,6
2,69,82,0
2,61,82,0
2,57,91,232
2,64,91,2
2,69,100,2
2,61,109,4
2,74,100,252
2,64,73,0
2,71,109,8
2,76,82,8
2,74,73,32
2,71,91,52
2,64,82,8
2,69,100,88
2,76,100,4
2,73,109,0
2,71,100,118
2,68,109,0
2,64,100,2
2,76,100,2
2,69,109,416
2,62,109,10
2,72,82,2
2,74,100,0
2,74,73,48
2,72,73,18
2,69,82,68
2,62,82,10
2,74,100,96
2,67,109,22
2,71,100,0
2,62,100,114
2,66,91,8
2,69,100,0
2,74,100,4
2,61,100,542
2,57,100,4
2,64,100,6
2,69,91,0
2,57,82,100
2,66,91,2
2,69,91,0
2,62,100,0
2,57,73,50
2,61,73,10
2,69,73,14
2,64,82,2
2,62,109,112
2,66,91,6
2,57,73,0
2,69,100,2
2,61,65,106
2,69,65,4
2,64,69,4
2,57,57,0
2,66,100,112
2,57,100,0
2,62,109,6
2,69,100,0
2,61,69,106
2,57,69,10
2,64,65,6
2,69,65,2
2,61,73,78
2,64,73,2
2,57,65,4
2,69,57,12
2,57,82,48
2,62,100,8
2,69,69,8
2,66,100,10
2,69,91,112
2,63,100,4
2,67,100,0
2,57,82,6
2,64,100,42
2,69,91,96
2,57,91,0
2,62,91,2
2,66,82,4
2,61,73,78
2,57,73,4
2,69,73,0
2,64,82,2
2,57,82,58
2,66,91,4
2,62,100,4
2,69,82,0
2,57,91,246
2,69,91,4
2,64,109,4
2,67,100,4
2,69,41,4
2,67,73,32
2,64,82,4
2,57,73,28
2,62,109,100
2,69,91,8
2,66,91,12
2,64,91,128
2,61,82,0
2,57,82,6
2,69,73,2
2,57,91,94
2,66,91,2
2,62,109,0
2,69,91,0
2,57,73,60
2,67,91,0
2,64,91,8
2,69,73,0
2,57,69,46
2,64,73,6
2,67,73,10
2,69,65,2
2,57,82,48
2,62,100,14
2,69,91,8
2,66,91,0
2,61,73,118
2,57,82,2
2,64,82,0
2,69,82,2
2,57,82,42
2,62,100,6
2,66,91,2
2,69,82,0
2,64,100,272
2,57,100,4
2,67,100,6
2,69,91,2
2,69,69,16
2,67,73,16
2,64,82,2
2,57,73,18
2,69,100,102
2,66,100,2
2,62,100,0
2,61,91,92
2,69,73,10
2,57,82,2
2,64,82,0
2,62,100,80
2,69,100,6
2,57,91,2
2,66,100,0
2,69,100,114
2,62,82,0
2,72,100,2
2,62,91,18
2,74,82,1
2,69,91,50
2,72,82,8
2,74,82,2
2,74,69,22
2,67,100,2
2,71,100,14
2,62,82,76
2,69,91,4
2,74,73,12
2,66,91,2
2,62,82,68
2,74,91,4
2,71,91,8
2,67,100,0
2,62,82,240
2,72,100,4
2,74,100,4
2,69,100,2
2,62,91,258
2,72,100,4
2,74,91,0
2,69,100,0
2,67,100,52
2,74,91,4
2,71,82,0
2,66,91,68
2,74,82,4
2,69,91,2
2,62,82,4
2,74,91,68
2,62,91,0
2,71,100,2
2,67,109,4
2,57,100,144
2,69,91,0
2,67,91,8
2,63,91,4
2,64,91,64
2,69,91,68
2,57,82,2
2,62,100,0
2,66,100,4
2,69,73,76
2,61,73,4
2,57,61,4
2,64,82,0
2,57,82,50
2,62,100,4
2,69,91,4
2,66,91,6
2,64,109,288
2,67,91,6
2,69,100,0
2,57,91,0
2,69,69,4
2,67,73,32
2,64,82,60
2,57,82,18
2,69,100,114
2,62,100,2
2,66,100,2
2,61,91,84
2,69,82,10
2,64,82,2
2,57,82,0
2,62,100,74
2,57,91,2
2,66,91,0
2,69,91,4
2,71,100,160
2,64,91,10
2,74,91,0
2,76,100,0
2,71,73,38
2,74,82,10
2,64,73,2
2,76,73,4
2,76,100,50
2,69,100,8
2,64,82,0
2,73,91,2
2,68,100,56
2,76,100,2
2,64,100,4
2,71,100,10
2,62,100,624
2,74,100,6
2,72,109,2
2,69,109,2
2,74,69,46
2,72,69,46
2,69,91,48
