track,note,velocity,time
1,30,106,56408
1,37,100,42
1,35,94,46
1,32,95,76
1,30,103,60
1,37,104,40
1,35,107,40
1,32,104,126
1,30,105,24
1,37,108,20
1,35,103,62
1,37,103,40
1,39,126,14
1,27,110,10
1,29,119,14
1,30,114,122
1,42,91,58
1,39,99,2
1,37,93,44
1,30,106,166
1,37,100,42
1,35,94,46
1,32,95,76
1,30,103,60
1,37,104,40
1,35,107,40
1,32,104,126
1,30,105,24
1,37,108,20
1,35,103,62
1,37,103,40
1,39,126,14
1,27,110,10
1,29,119,14
1,30,114,122
1,42,91,58
1,39,99,2
1,37,93,44
1,30,106,166
1,37,100,42
1,35,94,46
1,32,95,76
1,30,103,60
1,37,104,40
1,35,107,40
1,32,104,126
1,30,105,24
1,37,108,20
1,35,103,62
1,37,103,40
1,39,126,14
1,27,110,10
1,29,119,14
1,30,114,122
1,42,91,58
1,39,99,2
1,37,93,44
1,30,104,166
1,34,97,26
1,35,94,20
1,37,100,70
1,35,101,42
1,37,102,120
1,41,107,18
1,42,94,22
1,30,103,50
1,34,98,2
1,35,91,56
1,37,103,30
1,35,103,116
1,35,89,106
1,35,100,102
1,37,101,20
1,41,107,2
1,42,98,18
1,30,101,44
1,34,100,2
1,35,101,64
1,37,102,36
1,35,102,84
1,37,102,2
1,41,109,42
1,42,96,36
1,39,101,78
1,39,114,80
1,29,108,18
1,30,108,90
1,34,99,20
1,37,97,2
1,42,111,2
1,34,103,2
1,35,111,130
1,39,101,26
1,42,99,22
1,35,94,18
1,34,98,2
1,42,100,2
1,37,93,12
1,34,96,8
1,32,106,2
1,35,92,2
1,39,106,16
1,32,91,30
1,30,107,92
1,42,103,2
1,37,91,16
1,30,102,2
1,29,111,48
1,35,105,24
1,34,111,28
1,38,119,22
1,39,119,12
1,37,108,46
1,36,112,24
1,30,100,24
1,32,105,2
1,36,112,2
1,32,113,58
1,32,102,80
1,34,105,4
1,35,109,2
1,39,118,2
1,35,94,32
1,37,115,2
1,32,105,22
1,35,98,2
1,37,112,2
1,38,115,64
1,33,105,2
1,38,112,6
1,36,102,4
1,33,108,26
1,31,119,138
1,35,109,10
1,36,105,30
1,38,123,68
1,36,121,74
1,31,108,24
1,33,105,8
1,36,119,24
1,28,115,2
1,33,102,2
1,31,123,62
1,35,109,20
1,36,103,28
1,38,125,4
1,33,114,24
1,36,121,70
1,31,111,2
1,33,104,18
1,36,123,36
1,33,112,44
1,31,119,48
1,35,112,42
1,36,108,26
1,38,127,12
1,33,112,16
1,36,127,66
1,31,109,20
1,33,104,12
1,36,119,14
1,38,121,2
1,40,127,32
1,35,107,74
1,28,112,22
1,30,115,2
1,30,115,58
1,31,127,84
1,43,119,2
1,40,115,26
1,38,114,40
1,43,121,220
1,40,114,2
1,38,110,34
1,35,110,58
1,36,115,2
1,38,127,36
1,31,114,156
1,35,103,30
1,36,95,70
1,38,112,56
1,35,104,6
1,36,110,136
1,31,101,28
1,33,99,2
1,36,110,48
1,38,111,62
1,42,103,58
1,43,105,26
1,31,105,70
1,35,105,2
1,36,100,22
1,38,115,56
1,35,103,32
1,36,109,94
1,36,100,112
1,36,109,108
1,38,115,20
1,42,107,88
1,43,110,16
1,31,109,26
1,35,104,50
1,36,105,2
1,38,119,40
1,35,104,10
1,36,112,118
1,31,103,44
1,33,100,2
1,36,114,32
1,36,104,64
1,38,115,2
1,40,127,66
1,35,102,64
1,28,109,36
1,30,111,2
1,30,101,34
1,31,121,112
1,38,104,82
1,40,108,2
1,43,111,50
1,40,116,48
1,38,115,70
1,31,114,10
1,35,103,30
1,36,95,70
1,38,112,56
1,35,104,6
1,36,110,136
1,31,101,28
1,33,99,2
1,36,110,48
1,38,111,62
1,42,103,58
1,43,105,26
1,31,105,70
1,35,105,2
1,36,100,22
1,38,115,56
1,35,103,32
1,36,109,94
1,36,100,112
1,36,109,108
1,38,115,20
1,42,107,88
1,43,110,16
1,31,109,26
1,35,104,50
1,36,105,2
1,38,119,40
1,35,104,10
1,36,112,118
1,31,103,44
1,33,100,2
1,36,114,32
1,36,104,64
1,38,115,2
1,40,127,66
1,35,102,64
1,28,109,36
1,30,111,2
1,30,101,34
1,31,121,112
1,38,104,82
1,40,108,2
1,43,111,50
1,40,116,48
1,38,115,70
1,29,119,10
1,31,97,36
1,29,103,44
1,28,109,30
1,31,108,94
1,33,107,12
1,35,103,14
1,38,100,28
1,26,101,2
1,28,104,48
1,29,119,64
1,31,105,58
1,29,109,42
1,28,109,38
1,31,110,84
1,43,101,20
1,38,110,90
1,40,95,2
1,43,100,14
1,40,112,64
1,38,107,20
1,31,95,2
1,29,116,58
1,31,102,30
1,29,105,2
1,28,109,30
1,31,111,118
1,26,107,120
1,28,97,2
1,31,104,8
1,33,108,50
1,34,105,146
1,33,99,2
1,31,98,2
1,28,105,14
1,29,119,4
1,28,112,100
1,28,109,80
1,31,108,78
1,43,101,30
1,40,108,2
1,38,100,2
1,38,110,170
1,35,107,102
1,36,98,56
1,38,112,2
1,29,119,160
1,31,97,36
1,29,103,44
1,28,109,30
1,31,108,94
1,33,107,12
1,35,103,14
1,38,100,28
1,26,101,2
1,28,104,48
1,29,119,64
1,31,105,58
1,29,109,42
1,28,109,38
1,31,110,84
1,43,101,20
1,38,110,90
1,40,95,2
1,43,100,14
1,40,112,64
1,38,107,20
1,31,95,2
1,29,116,58
1,31,102,30
1,29,105,2
1,28,109,30
1,31,111,118
1,26,107,120
1,28,97,2
1,31,104,8
1,33,108,50
1,34,105,146
1,33,99,2
1,31,98,2
1,28,105,14
1,29,119,4
1,28,112,100
1,28,109,80
1,31,108,78
1,43,101,30
1,40,108,2
1,38,100,2
1,38,110,170
1,35,107,102
1,36,98,56
1,38,112,2
1,31,127,160
2,63,93,154680
2,71,82,0
2,75,95,0
2,65,92,14
2,73,81,0
2,77,82,0
2,54,75,88
2,59,83,0
2,66,95,0
2,75,90,0
2,78,82,0
2,66,92,2
2,71,80,190
2,75,84,192
2,58,71,44
2,61,79,0
2,68,93,0
2,73,84,0
2,78,84,0
2,70,91,68
2,73,87,0
2,78,79,0
2,56,83,132
2,59,85,0
2,68,87,0
2,71,90,0
2,75,94,0
2,68,93,66
2,71,94,0
2,75,94,0
2,58,77,142
2,61,83,0
2,70,90,0
2,73,81,0
2,78,83,0
2,66,92,42
2,70,92,0
2,73,88,0
2,61,81,166
2,66,87,0
2,70,90,0
2,59,108,258
2,63,95,0
2,68,93,0
2,75,90,0
2,63,111,10
2,68,88,192
2,71,80,192
2,58,93,60
2,65,95,0
2,68,91,0
2,74,91,0
2,65,118,64
2,68,93,192
2,74,87,76
2,77,87,192
2,63,97,92
2,66,83,0
2,70,82,0
2,78,93,0
2,66,93,44
2,70,81,128
2,61,92,42
2,66,93,0
2,70,91,0
2,78,85,0
2,66,92,2
2,70,80,24
2,60,94,58
2,66,92,0
2,70,94,0
2,78,90,0
2,70,88,78
2,82,90,192
2,78,82,192
2,75,93,192
2,70,77,20
2,60,89,134
2,75,102,0
2,82,91,0
2,70,87,78
2,75,104,0
2,78,91,0
2,56,78,98
2,66,90,0
2,71,95,0
2,75,113,0
2,83,94,0
2,71,95,26
2,75,98,192
2,80,95,192
2,66,84,18
2,71,92,0
2,75,108,0
2,83,87,0
2,71,89,140
2,75,106,0
2,82,93,0
2,71,80,8
2,75,102,0
2,80,90,0
2,49,59,186
2,61,74,0
2,51,65,28
2,63,80,0
2,53,76,66
2,65,91,0
2,54,68,40
2,66,83,0
2,56,65,58
2,68,80,0
2,58,53,50
2,70,68,0
2,59,70,46
2,71,85,0
2,61,57,42
2,73,72,0
2,63,74,48
2,75,89,0
2,65,83,76
2,77,98,0
2,66,65,56
2,78,80,0
2,68,66,54
2,80,81,0
2,62,75,52
2,74,90,0
2,64,75,70
2,76,90,0
2,66,70,64
2,78,85,0
2,67,67,46
2,79,82,0
2,69,79,58
2,81,94,0
2,71,70,62
2,83,85,0
2,72,54,58
2,84,69,0
2,74,70,52
2,86,85,0
2,76,68,66
2,88,83,0
2,78,63,70
2,90,78,0
2,81,75,46
2,93,90,0
2,78,64,128
2,90,79,0
2,79,103,64
2,83,110,0
2,91,99,0
2,74,103,318
2,78,93,0
2,81,96,0
2,86,90,0
2,74,85,48
2,78,84,0
2,81,89,0
2,86,82,0
2,76,103,336
2,79,96,0
2,84,91,0
2,72,91,184
2,76,110,0
2,79,94,0
2,74,113,110
2,79,92,0
2,83,96,0
2,74,115,140
2,78,93,0
2,81,105,0
2,69,89,124
2,74,105,0
2,78,91,0
2,72,101,130
2,76,115,0
2,79,92,0
2,76,113,720
2,79,92,0
2,84,92,0
2,74,118,162
2,79,96,0
2,83,103,0
2,71,95,122
2,79,88,0
2,72,88,36
2,81,90,0
2,74,110,108
2,83,103,0
2,74,115,96
2,81,108,0
2,69,101,138
2,78,99,0
2,72,96,98
2,76,110,0
2,79,94,0
2,67,103,144
2,72,108,0
2,76,113,0
2,64,108,198
2,67,105,0
2,72,96,0
2,67,105,442
2,71,115,0
2,76,101,0
2,79,94,0
2,67,113,164
2,71,115,0
2,76,115,0
2,69,118,150
2,74,118,0
2,81,115,0
2,69,99,144
2,74,110,0
2,78,94,0
2,71,110,176
2,74,123,0
2,79,101,0
2,81,123,222
2,84,51,0
2,86,95,0
2,83,68,158
2,81,91,146
2,79,91,180
2,74,113,178
2,79,99,0
2,76,83,192
2,74,89,180
2,55,89,166
2,59,91,0
2,62,82,0
2,79,99,0
2,83,105,0
2,91,101,0
2,71,101,360
2,74,94,58
2,79,75,0
2,83,52,0
2,57,91,100
2,62,87,0
2,74,113,0
2,81,108,0
2,60,94,366
2,64,94,0
2,67,94,0
2,72,95,0
2,79,89,0
2,76,113,30
2,79,88,186
2,84,80,184
2,64,88,100
2,67,80,0
2,79,103,0
2,86,99,0
2,64,91,72
2,67,85,0
2,79,105,0
2,88,110,0
2,62,88,340
2,71,88,0
2,74,105,0
2,79,99,0
2,86,95,0
2,62,96,36
2,67,108,0
2,71,99,192
2,74,96,16
2,79,91,20
2,83,92,0
2,62,85,88
2,66,92,0
2,74,115,0
2,79,28,0
2,81,105,0
2,64,92,150
2,67,101,0
2,74,108,0
2,79,99,0
2,79,103,888
2,86,101,0
2,91,94,0
2,88,82,42
2,91,79,0
2,64,91,196
2,67,92,0
2,74,110,192
2,79,103,0
2,76,110,16
2,79,90,0
2,62,96,90
2,67,105,0
2,74,113,384
2,74,95,62
2,79,105,0
2,86,105,0
2,66,99,54
2,69,105,0
2,76,110,384
2,81,108,0
2,86,92,0
2,78,93,34
2,81,99,0
2,86,85,0
2,64,99,418
2,67,89,192
2,74,108,192
2,79,105,0
2,76,118,52
2,79,91,0
2,64,90,38
2,67,91,152
2,74,108,192
2,79,95,0
2,76,125,118
2,79,96,0
2,59,87,508
2,64,105,0
2,71,99,0
2,76,113,0
2,81,110,0
2,59,99,122
2,64,118,0
2,71,89,0
2,76,115,0
2,79,91,0
2,42,111,354
2,69,118,0
2,74,123,0
2,81,115,0
2,43,110,186
2,71,118,0
2,74,127,0
2,79,103,0
2,69,127,192
2,74,118,0
2,71,80,192
2,69,127,104
2,74,103,0
2,67,101,50
2,74,103,0
2,62,101,128
2,67,105,0
2,64,118,62
2,67,113,0
2,55,89,390
2,59,91,0
2,62,82,0
2,79,99,0
2,83,105,0
2,91,101,0
2,71,101,360
2,74,94,58
2,79,75,0
2,83,52,0
2,57,91,100
2,62,87,0
2,74,113,0
2,81,108,0
2,60,94,366
2,64,94,0
2,67,94,0
2,72,95,0
2,79,89,0
2,76,113,30
2,79,88,186
2,84,80,184
2,64,88,100
2,67,80,0
2,79,103,0
2,86,99,0
2,64,91,72
2,67,85,0
2,79,105,0
2,88,110,0
2,62,88,340
2,71,88,0
2,74,105,0
2,79,99,0
2,86,95,0
2,67,108,36
2,71,99,16
2,74,96,30
2,79,91,20
2,83,92,0
2,62,85,88
2,66,92,0
2,74,115,0
2,81,105,0
2,64,92,150
2,67,101,0
2,74,108,0
2,79,99,0
2,79,103,888
2,86,101,0
2,91,94,0
2,88,82,42
2,91,79,0
2,64,91,196
2,67,92,0
2,74,110,192
2,79,103,0
2,76,110,16
2,79,90,0
2,62,96,90
2,67,105,0
2,74,113,384
2,74,95,62
2,79,105,0
2,86,105,0
2,66,99,54
2,69,105,0
2,76,110,384
2,81,108,0
2,86,92,0
2,78,93,34
2,81,99,0
2,86,85,0
2,64,99,418
2,67,89,192
2,74,108,192
2,79,105,0
2,76,118,52
2,79,91,0
2,64,90,38
2,67,91,152
2,74,108,192
2,79,95,0
2,76,125,118
2,79,96,0
2,59,87,508
2,64,105,0
2,71,99,0
2,76,113,0
2,81,110,0
2,59,99,122
2,64,118,0
2,71,89,0
2,76,115,0
2,79,91,0
2,42,111,354
2,69,118,0
2,74,123,0
2,81,115,0
2,43,110,186
2,71,118,0
2,74,127,0
2,79,103,0
2,69,127,192
2,74,118,0
2,71,80,192
2,69,127,104
2,74,103,0
2,67,101,50
2,74,103,0
2,62,101,128
2,67,105,0
2,64,118,62
2,67,113,0
2,65,108,390
2,69,108,0
2,72,88,0
2,60,89,8
2,65,92,176
2,69,94,192
2,60,88,66
2,64,75,0
2,67,88,0
2,62,96,176
2,67,90,0
2,71,95,0
2,69,118,294
2,74,99,0
2,71,75,192
2,69,82,138
2,67,81,178
2,62,99,326
2,67,99,0
2,64,74,192
2,62,83,182
2,57,94,132
2,62,101,0
2,59,71,192
2,57,78,188
2,55,80,94
2,57,99,94
2,60,87,0
2,65,99,0
2,53,101,0
2,57,80,0
2,60,74,14
2,65,89,0
2,55,92,106
2,60,94,0
2,64,89,0
2,67,80,0
2,55,89,132
2,60,88,0
2,64,96,0
2,55,99,216
2,59,96,0
2,62,87,0
2,67,90,0
2,71,103,654
2,79,89,0
2,74,85,192
2,76,101,154
2,79,90,0
2,74,99,70
2,79,83,0
2,69,125,156
2,74,103,0
2,71,75,192
2,69,71,182
2,65,96,72
2,69,110,0
2,72,88,0
2,65,105,2
2,69,89,192
2,64,94,70
2,67,94,0
2,72,85,0
2,67,94,86
2,72,84,0
2,76,99,0
2,67,89,248
2,71,92,0
2,74,91,0
2,69,105,110
2,79,75,0
2,70,85,192
2,71,87,134
2,74,95,78
2,79,87,0
2,76,101,98
2,79,89,0
2,74,110,144
2,79,92,0
2,70,93,170
2,74,105,0
2,69,99,192
2,67,79,176
2,64,108,128
2,67,94,0
2,62,81,192
2,65,103,108
2,69,95,0
2,72,80,0
2,60,85,6
2,65,87,182
2,69,91,154
2,64,96,80
2,67,88,0
2,72,87,0
2,60,91,182
2,64,101,0
2,67,88,0
2,62,103,198
2,67,94,0
2,71,95,0
2,69,110,266
2,79,89,0
2,70,81,192
2,71,90,166
2,74,99,86
2,79,89,0
2,76,103,188
2,79,90,0
2,74,113,162
2,79,95,0
2,69,118,180
2,74,103,0
2,71,80,192
2,69,79,156
2,67,83,164
2,64,103,100
2,65,108,32
2,69,108,0
2,72,88,0
2,60,89,8
2,65,92,176
2,69,94,192
2,60,88,66
2,64,75,0
2,67,88,0
2,62,96,176
2,67,90,0
2,71,95,0
2,69,118,294
2,74,99,0
2,71,75,192
2,69,82,138
2,67,81,178
2,62,99,326
2,67,99,0
2,64,74,192
2,62,83,182
2,57,94,132
2,62,101,0
2,59,71,192
2,57,78,188
2,55,80,94
2,57,99,94
2,60,87,0
2,65,99,0
2,53,101,0
2,57,80,0
2,60,74,14
2,65,89,0
2,55,92,106
2,60,94,0
2,64,89,0
2,67,80,0
2,55,89,132
2,60,88,0
2,64,96,0
2,55,99,216
2,59,96,0
2,62,87,0
2,67,90,0
2,71,103,654
2,79,89,0
2,74,85,192
2,76,101,154
2,79,90,0
2,74,99,70
2,79,83,0
2,69,125,156
2,74,103,0
2,71,75,192
2,69,71,182
2,65,96,72
2,69,110,0
2,72,88,0
2,65,105,2
2,69,89,192
2,64,94,70
2,67,94,0
2,72,85,0
2,67,94,86
