track,note,velocity,time
2,71,86,2880
2,71,0,64
2,71,86,32
2,71,0,64
2,71,86,32
2,71,0,64
2,71,86,32
2,71,0,64
2,71,86,80
2,71,0,32
2,71,86,16
2,71,0,32
2,71,86,16
2,71,0,80
2,74,86,16
2,74,0,80
2,74,86,16
2,74,0,112
2,71,86,32
2,71,0,16
2,71,86,8
2,71,0,16
2,71,86,8
2,71,0,80
2,71,86,16
2,71,0,80
2,71,86,16
2,71,0,32
2,69,86,64
2,69,0,32
2,71,86,16
2,71,0,64
2,71,86,32
2,71,0,64
2,74,86,32
2,74,0,64
2,73,86,128
2,73,0,16
2,73,86,8
2,73,0,16
2,73,86,8
2,73,0,80
2,71,86,16
2,71,0,16
2,73,86,8
2,73,0,56
2,66,86,16
2,66,0,32
2,66,86,64
2,66,0,32
2,73,86,16
2,73,0,48
2,71,86,0
2,71,0,32
2,71,86,16
2,71,0,32
2,71,86,16
2,71,0,80
2,69,86,16
2,69,0,80
2,69,86,16
2,69,0,80
2,59,86,16
2,59,0,112
2,71,86,464
2,71,0,32
2,71,86,16
2,71,0,32
2,69,86,16
2,69,0,32
2,71,86,16
2,71,0,64
2,71,86,32
2,71,0,32
2,69,86,16
2,69,0,16
2,71,86,8
2,71,0,88
2,71,86,128
2,71,0,32
2,71,86,16
2,71,0,32
2,71,86,16
2,71,0,16
2,71,86,8
2,71,0,16
2,74,86,8
2,74,0,110
2,69,86,82
2,69,0,32
2,71,86,16
2,71,0,30
2,71,86,18
2,71,0,30
2,69,86,18
2,69,0,30
2,71,86,18
2,71,0,78
2,71,86,18
2,71,0,30
2,71,86,18
2,71,0,62
2,71,86,34
2,71,0,30
2,71,86,18
2,71,0,30
2,71,86,18
2,71,0,30
2,74,86,18
2,74,0,108
2,71,86,84
2,71,0,30
2,73,86,18
2,73,0,32
2,73,86,16
2,73,0,32
2,71,86,16
2,71,0,32
2,73,86,16
2,73,0,96
2,66,86,0
2,66,0,32
2,66,86,64
2,66,0,32
2,78,86,16
2,78,0,32
2,78,86,16
2,78,0,80
2,76,86,16
2,76,0,80
2,74,86,16
2,74,0,32
2,76,86,16
2,76,0,16
2,74,86,8
2,74,0,16
2,76,86,8
2,76,0,72
2,74,86,0
2,74,0,16
2,71,86,8
2,71,0,208
2,71,86,560
2,71,0,80
2,71,86,16
2,71,0,32
2,74,86,16
2,74,0,16
2,74,86,8
2,74,0,16
2,74,86,8
2,74,0,32
2,76,86,16
2,76,0,32
2,76,86,16
2,76,0,32
2,78,86,16
2,78,0,32
2,76,86,16
2,76,0,80
2,76,86,16
2,76,0,96
2,74,86,0
2,74,0,32
2,74,86,40
2,74,0,16
2,76,86,8
2,76,0,80
2,76,86,16
2,76,0,32
2,74,86,16
2,74,0,32
2,76,86,16
2,76,0,80
2,76,86,16
2,76,0,32
2,76,86,64
2,76,0,80
2,76,86,16
2,76,0,32
2,76,86,16
2,76,0,32
2,74,86,16
2,74,0,32
2,78,86,16
2,78,0,64
2,76,86,80
2,76,0,32
2,76,86,16
2,76,0,32
2,74,86,16
2,74,0,80
2,76,86,16
2,76,0,32
2,77,86,16
2,77,0,64
2,77,86,32
2,77,0,32
2,77,86,16
2,77,0,32
2,76,86,16
2,76,0,32
2,74,86,16
2,74,0,80
2,77,86,16
2,77,0,112
2,73,86,128
2,73,0,32
2,73,86,16
2,73,0,32
2,73,86,16
2,73,0,16
2,73,86,8
2,73,0,16
2,73,86,8
2,73,0,80
2,73,86,16
2,73,0,32
2,74,86,16
2,74,0,32
2,73,86,16
2,73,0,32
2,74,86,16
2,74,0,64
2,73,86,32
2,73,0,32
2,74,86,16
2,74,0,96
2,73,86,0
2,73,0,32
2,71,86,160
2,71,0,80
2,71,86,16
2,71,0,32
2,74,86,16
2,74,0,16
2,74,86,8
2,74,0,16
2,74,86,8
2,74,0,32
2,76,86,16
2,76,0,32
2,76,86,16
2,76,0,32
2,78,86,16
2,78,0,32
2,76,86,16
2,76,0,80
2,76,86,16
2,76,0,96
2,74,86,0
2,74,0,32
2,74,86,40
2,74,0,16
2,76,86,8
2,76,0,80
2,76,86,16
2,76,0,32
2,74,86,16
2,74,0,32
2,76,86,16
2,76,0,80
2,76,86,16
2,76,0,32
2,76,86,64
2,76,0,80
2,76,86,16
2,76,0,32
2,76,86,16
2,76,0,32
2,74,86,16
2,74,0,32
2,78,86,16
2,78,0,64
2,76,86,32
2,76,0,32
2,76,86,64
2,76,0,32
2,74,86,16
2,74,0,80
2,76,86,16
2,76,0,32
2,77,86,16
2,77,0,64
2,77,86,32
2,77,0,32
2,77,86,16
2,77,0,32
2,76,86,16
2,76,0,32
2,74,86,16
2,74,0,80
2,77,86,16
2,77,0,112
2,78,86,128
2,78,0,32
2,78,86,16
2,78,0,32
2,78,86,16
2,78,0,16
2,78,86,8
2,78,0,16
2,78,86,8
2,78,0,80
2,76,86,16
2,76,0,32
2,76,86,16
2,76,0,32
2,74,86,16
2,74,0,32
2,76,86,16
2,76,0,64
2,74,86,32
2,74,0,32
2,78,86,16
2,78,0,80
2,71,86,16
2,71,0,32
2,74,86,16
2,74,0,32
2,74,86,16
2,74,0,32
2,76,86,16
2,76,0,64
2,74,86,32
2,74,0,32
2,76,86,16
2,76,0,24
2,74,86,0
2,74,0,24
2,71,86,0
2,71,0,64
2,74,86,272
2,74,0,16
2,74,86,8
2,74,0,16
2,74,86,8
2,74,0,32
2,71,86,16
2,71,0,32
2,71,86,16
2,71,0,16
2,69,86,8
2,69,0,16
2,71,86,8
2,71,0,112
2,71,86,560
2,71,0,32
2,74,86,16
2,74,0,32
2,74,86,16
2,74,0,32
2,76,86,16
2,76,0,64
2,74,86,32
2,74,0,32
2,76,86,16
2,76,0,24
2,74,86,0
2,74,0,24
2,71,86,0
2,71,0,64
2,74,86,272
2,74,0,16
2,74,86,8
2,74,0,16
2,74,86,8
2,74,0,32
2,71,86,16
2,71,0,32
2,71,86,16
2,71,0,16
2,69,86,8
2,69,0,16
2,71,86,8
2,71,0,112
2,71,86,608
2,71,0,64
2,71,86,32
2,71,0,32
2,69,86,16
2,69,0,32
2,71,86,16
2,71,0,32
2,69,86,16
2,69,0,32
2,71,86,16
2,71,0,32
2,69,86,16
2,69,0,32
2,71,86,64
2,71,0,16
2,69,86,8
2,69,0,16
2,71,86,8
2,71,0,32
2,71,86,16
2,71,0,80
2,74,86,16
2,74,0,80
2,74,86,16
2,74,0,112
2,71,86,32
2,71,0,16
2,71,86,8
2,71,0,16
2,71,86,8
2,71,0,80
2,71,86,16
2,71,0,80
2,71,86,16
2,71,0,32
2,69,86,64
2,69,0,32
2,71,86,16
2,71,0,64
2,71,86,32
2,71,0,64
2,74,86,32
2,74,0,64
2,71,86,104
2,71,0,16
2,73,86,8
2,73,0,16
2,73,86,8
2,73,0,16
2,73,86,8
2,73,0,80
2,71,86,16
2,71,0,16
2,73,86,8
2,73,0,56
2,66,86,16
2,66,0,32
2,66,86,64
2,66,0,32
2,73,86,16
2,73,0,48
2,71,86,0
2,71,0,32
2,71,86,16
2,71,0,32
2,71,86,16
2,71,0,80
2,69,86,16
2,69,0,80
2,69,86,16
2,69,0,80
2,59,86,16
2,59,0,112
2,71,86,464
2,71,0,32
2,71,86,16
2,71,0,32
2,69,86,16
2,69,0,32
2,71,86,16
2,71,0,64
2,71,86,32
2,71,0,32
2,69,86,16
2,69,0,16
2,71,86,8
2,71,0,88
2,71,86,128
2,71,0,32
2,71,86,16
2,71,0,32
2,71,86,16
2,71,0,16
2,71,86,8
2,71,0,16
2,74,86,8
2,74,0,110
2,69,86,82
2,69,0,32
2,71,86,16
2,71,0,30
2,71,86,18
2,71,0,30
2,69,86,18
2,69,0,30
2,71,86,18
2,71,0,78
2,71,86,18
2,71,0,30
2,71,86,18
2,71,0,62
2,71,86,34
2,71,0,30
2,71,86,18
2,71,0,30
2,71,86,18
2,71,0,30
2,74,86,18
2,74,0,108
2,71,86,60
2,71,0,16
2,71,86,8
2,71,0,16
2,71,86,8
2,71,0,16
2,73,86,8
2,73,0,32
2,73,86,16
2,73,0,32
2,71,86,16
2,71,0,32
2,73,86,16
2,73,0,96
2,66,86,0
2,66,0,32
2,66,86,64
2,66,0,32
2,78,86,16
2,78,0,32
2,78,86,16
2,78,0,80
2,76,86,16
2,76,0,80
2,74,86,16
2,74,0,32
2,76,86,16
2,76,0,16
2,74,86,8
2,74,0,16
2,76,86,8
2,76,0,72
2,74,86,0
2,74,0,16
2,71,86,8
2,71,0,208
2,71,86,560
2,71,0,80
2,71,86,16
2,71,0,32
2,74,86,16
2,74,0,16
2,74,86,8
2,74,0,16
2,74,86,8
2,74,0,32
2,76,86,16
2,76,0,32
2,76,86,16
2,76,0,32
2,78,86,16
2,78,0,32
2,76,86,16
2,76,0,80
2,76,86,16
2,76,0,96
2,74,86,0
2,74,0,32
2,74,86,40
2,74,0,16
2,76,86,8
2,76,0,80
2,76,86,16
2,76,0,32
2,74,86,16
2,74,0,32
2,76,86,16
2,76,0,80
2,76,86,16
2,76,0,32
2,76,86,64
2,76,0,80
2,76,86,16
2,76,0,32
2,76,86,16
2,76,0,32
2,74,86,16
2,74,0,32
2,78,86,16
2,78,0,64
2,76,86,80
2,76,0,32
2,76,86,16
2,76,0,32
2,74,86,16
2,74,0,80
2,76,86,16
2,76,0,32
2,77,86,16
2,77,0,64
2,77,86,32
2,77,0,32
2,77,86,16
2,77,0,32
2,76,86,16
2,76,0,32
2,74,86,16
2,74,0,80
2,77,86,16
2,77,0,112
2,73,86,128
2,73,0,32
2,73,86,16
2,73,0,32
2,73,86,16
2,73,0,16
2,73,86,8
2,73,0,16
2,73,86,8
2,73,0,80
2,73,86,16
2,73,0,32
2,74,86,16
2,74,0,32
2,73,86,16
2,73,0,32
2,74,86,16
2,74,0,64
2,73,86,32
2,73,0,32
2,74,86,16
2,74,0,96
2,73,86,0
2,73,0,32
2,71,86,160
2,71,0,80
2,71,86,16
2,71,0,32
2,74,86,16
2,74,0,16
2,74,86,8
2,74,0,16
2,74,86,8
2,74,0,32
2,76,86,16
2,76,0,32
2,76,86,16
2,76,0,32
2,78,86,16
2,78,0,32
2,76,86,16
2,76,0,80
2,76,86,16
2,76,0,96
2,74,86,0
2,74,0,32
2,74,86,40
2,74,0,16
2,76,86,8
2,76,0,80
2,76,86,16
2,76,0,32
2,74,86,16
2,74,0,32
2,76,86,16
2,76,0,80
2,76,86,16
2,76,0,32
2,76,86,64
2,76,0,80
2,76,86,16
2,76,0,32
2,76,86,16
2,76,0,32
2,74,86,16
2,74,0,32
2,78,86,16
2,78,0,64
2,76,86,32
2,76,0,32
2,76,86,64
2,76,0,32
2,74,86,16
2,74,0,80
2,76,86,16
2,76,0,32
2,77,86,16
2,77,0,64
2,77,86,32
2,77,0,32
2,77,86,16
2,77,0,32
2,76,86,16
2,76,0,32
2,74,86,16
2,74,0,80
2,77,86,16
2,77,0,112
2,78,86,128
2,78,0,32
2,78,86,16
2,78,0,32
2,78,86,16
2,78,0,16
2,78,86,8
2,78,0,16
2,78,86,8
2,78,0,80
2,76,86,16
2,76,0,32
2,76,86,16
2,76,0,32
2,74,86,16
2,74,0,32
2,76,86,16
2,76,0,64
2,74,86,32
2,74,0,32
2,78,86,16
2,78,0,80
2,71,86,16
2,71,0,32
2,74,86,16
2,74,0,32
2,74,86,16
2,74,0,32
2,76,86,16
2,76,0,64
2,74,86,32
2,74,0,32
2,76,86,16
2,76,0,24
2,74,86,0
2,74,0,24
2,71,86,0
2,71,0,64
2,74,86,272
2,74,0,16
2,74,86,8
2,74,0,16
2,74,86,8
2,74,0,32
2,71,86,16
2,71,0,32
2,71,86,16
2,71,0,16
2,69,86,8
2,69,0,16
2,71,86,8
2,71,0,112
2,71,86,560
2,71,0,32
2,74,86,16
2,74,0,32
2,74,86,16
2,74,0,32
2,76,86,16
2,76,0,64
2,74,86,32
2,74,0,32
2,76,86,16
2,76,0,24
2,74,86,0
2,74,0,24
2,71,86,0
2,71,0,64
2,74,86,272
2,74,0,16
2,74,86,8
2,74,0,16
2,74,86,8
2,74,0,32
2,71,86,16
2,71,0,32
2,71,86,16
2,71,0,16
2,69,86,8
2,69,0,16
2,71,86,8
2,71,0,112
2,78,86,464
2,78,0,16
2,78,86,8
2,78,0,16
2,78,86,8
2,78,0,32
2,76,86,16
2,76,0,32
2,76,86,16
2,76,0,16
2,74,86,8
2,74,0,16
2,76,86,8
2,76,0,72
2,74,86,0
2,74,0,24
2,71,86,0
2,71,0,112
2,71,86,80
2,71,0,48
2,78,86,0
2,78,0,48
2,76,86,0
2,76,0,112
2,71,86,80
2,71,0,16
2,71,86,8
2,71,0,16
2,74,86,8
2,74,0,32
2,71,86,16
2,71,0,32
2,71,86,16
2,71,0,16
2,69,86,8
2,69,0,16
2,71,86,8
2,71,0,112
2,78,86,464
2,78,0,16
2,78,86,8
2,78,0,16
2,78,86,8
2,78,0,32
2,76,86,16
2,76,0,32
2,76,86,16
2,76,0,16
2,74,86,8
2,74,0,16
2,76,86,8
2,76,0,72
2,74,86,0
2,74,0,24
2,71,86,0
2,71,0,112
2,71,86,80
2,71,0,48
2,78,86,0
2,78,0,48
2,76,86,0
2,76,0,112
2,71,86,80
2,71,0,16
2,71,86,8
2,71,0,16
2,74,86,8
2,74,0,32
2,71,86,16
2,71,0,32
2,71,86,16
2,71,0,16
2,69,86,8
2,69,0,16
2,71,86,8
2,71,0,112
2,78,86,464
2,78,0,16
2,78,86,8
2,78,0,16
2,78,86,8
2,78,0,32
2,76,86,16
2,76,0,32
2,76,86,16
2,76,0,16
2,74,86,8
2,74,0,16
2,76,86,8
2,76,0,48
2,76,86,0
2,76,0,24
2,74,86,0
2,74,0,24
2,71,86,0
2,71,0,112
2,71,86,80
2,71,0,48
2,78,86,0
2,78,0,48
2,76,86,0
2,76,0,112
2,71,86,80
2,71,0,16
2,71,86,8
2,71,0,16
2,74,86,8
2,74,0,32
2,71,86,16
2,71,0,32
2,71,86,16
2,71,0,16
2,69,86,8
2,69,0,16
2,71,86,8
2,71,0,112
3,67,86,768
3,64,86,0
3,71,86,0
3,71,0,254
3,64,0,0
3,67,0,0
3,67,86,274
3,64,86,0
3,71,86,0
3,71,0,16
3,64,0,0
3,67,0,0
3,67,86,8
3,64,86,0
3,71,86,0
3,71,0,16
3,64,0,0
3,67,0,0
3,67,86,8
3,64,86,0
3,71,86,0
3,71,0,64
3,64,0,0
3,67,0,0
3,67,86,32
3,64,86,0
3,71,86,0
3,71,0,64
3,64,0,0
3,67,0,0
3,69,86,32
3,66,86,0
3,73,86,0
3,73,0,16
3,66,0,0
3,69,0,0
3,69,86,8
3,66,86,0
3,73,86,0
3,73,0,16
3,66,0,0
3,69,0,0
3,69,86,8
3,66,86,0
3,73,86,0
3,73,0,80
3,66,0,0
3,69,0,0
3,69,86,112
3,66,86,0
3,73,86,0
3,73,0,16
3,66,0,0
3,69,0,0
3,69,86,8
3,66,86,0
3,73,86,0
3,73,0,16
3,66,0,0
3,69,0,0
3,66,86,8
3,69,86,0
3,73,86,0
3,73,0,64
3,69,0,0
3,66,0,0
3,69,86,32
3,66,86,0
3,73,86,0
3,73,0,32
3,66,0,0
3,69,0,0
3,69,86,112
3,66,86,0
3,73,86,0
3,73,0,80
3,66,0,0
3,69,0,0
3,69,86,16
3,66,86,0
3,73,86,0
3,73,0,80
3,66,0,0
3,69,0,0
3,66,86,16
3,62,86,0
3,59,86,0
3,59,0,80
3,62,0,0
3,66,0,0
3,59,104,16
3,59,0,586
3,66,86,134
3,62,86,0
3,71,86,0
3,71,0,64
3,62,0,0
3,66,0,0
3,66,86,32
3,62,86,0
3,71,86,0
3,71,0,64
3,62,0,0
3,66,0,0
3,66,86,32
3,62,86,0
3,71,86,0
3,71,0,96
3,62,0,0
3,66,0,0
3,71,86,48
3,71,0,32
3,62,86,16
3,66,86,0
3,71,86,0
3,71,0,32
3,66,0,0
3,62,0,0
