track,note,velocity,time
1,82,99,28800
1,86,104,0
1,89,85,26
1,84,109,0
1,84,104,27
1,91,96,0
2,82,99,28800
2,86,104,0
2,89,85,26
2,84,109,0
2,84,104,27
2,91,96,0
2,82,82,47
2,86,96,0
2,89,107,46
2,84,114,0
2,86,96,69
2,91,109,0
2,89,99,29
2,94,88,0
2,84,112,31
2,87,112,0
2,80,112,0
2,88,112,0
2,87,112,34
2,79,112,0
2,82,112,0
2,82,112,50
2,86,112,0
2,77,112,0
2,76,112,51
2,84,112,0
2,79,112,0
2,84,112,94
2,87,112,0
2,80,112,0
2,87,112,58
2,79,112,0
2,82,112,0
2,86,112,48
2,82,112,0
2,77,112,0
2,82,99,15819
2,86,104,0
2,89,85,26
2,84,109,0
2,84,104,27
2,91,96,0
2,82,82,47
2,86,96,0
2,89,107,46
2,84,114,0
2,86,96,69
2,91,109,0
2,89,99,29
2,94,88,0
2,84,112,31
2,87,112,0
2,80,112,0
2,88,112,0
2,87,112,34
2,79,112,0
2,82,112,0
2,82,112,50
2,86,112,0
2,77,112,0
2,76,112,51
2,84,112,0
2,79,112,0
2,84,112,94
2,87,112,0
2,80,112,0
2,87,112,58
2,79,112,0
2,82,112,0
2,86,112,48
2,82,112,0
2,77,112,0
2,99,60,4299
2,98,39,720
2,94,62,240
2,89,47,240
2,91,45,720
2,94,58,474
2,96,75,480
2,96,124,15369
2,84,124,0
2,97,125,0
2,85,125,0
2,98,119,480
2,86,119,0
2,99,125,1
2,87,125,0
2,60,92,480
2,48,100,0
2,96,119,0
2,84,119,0
2,71,101,4364
2,74,109,0
2,79,104,0
2,74,114,42
2,71,90,0
2,79,104,0
2,74,109,41
2,71,90,0
2,79,104,0
2,74,109,42
2,71,101,0
2,79,104,0
2,74,109,42
2,71,97,0
2,79,104,0
2,71,104,38
2,74,114,0
2,79,104,0
2,71,113,40
2,74,119,0
2,79,114,0
2,75,112,8108
2,79,112,0
2,82,112,19
2,81,112,18
2,75,112,19
2,79,112,180
2,81,112,10
2,75,112,120
2,87,112,383
2,75,112,0
2,91,112,6
2,79,112,0
2,94,112,26
2,82,112,0
2,93,112,6
2,81,112,0
2,87,112,38
2,75,112,0
2,91,112,12
2,79,112,0
2,93,112,13
2,81,112,0
2,87,112,120
2,75,112,0
2,72,119,395
2,75,113,180
2,78,110,158
2,77,113,117
2,78,99,10
2,79,114,180
2,82,120,93
2,83,97,160
2,84,100,178
2,77,110,116
2,72,114,344
2,75,104,180
2,78,120,165
2,77,113,102
2,78,107,170
2,79,100,9
2,75,110,120
2,77,113,167
2,79,104,166
2,82,99,27831
2,86,104,0
2,89,85,26
2,84,109,0
2,84,104,27
2,91,96,0
2,82,82,47
2,86,96,0
2,89,107,46
2,84,114,0
2,86,96,69
2,91,109,0
2,89,99,29
2,94,88,0
2,84,112,31
2,87,112,0
2,80,112,0
2,88,112,0
2,87,112,34
2,79,112,0
2,82,112,0
2,82,112,50
2,86,112,0
2,77,112,0
2,76,112,51
2,84,112,0
2,79,112,0
2,84,112,94
2,87,112,0
2,80,112,0
2,87,112,58
2,79,112,0
2,82,112,0
2,82,112,48
2,86,112,0
2,77,112,0
2,76,112,51
2,84,112,0
2,79,112,0
2,84,112,94
2,87,112,0
2,80,112,0
2,88,112,0
2,87,112,34
2,79,112,0
2,82,112,0
2,82,112,50
2,86,112,0
2,77,112,0
2,76,112,51
2,84,112,0
2,79,112,0
2,84,112,94
2,87,112,0
2,80,112,0
2,87,112,58
2,79,112,0
2,82,112,0
2,86,112,48
2,82,112,0
2,77,112,0
2,60,96,3339
2,48,89,0
2,67,104,960
2,75,40,960
2,77,54,480
2,79,49,13
3,55,100,980
3,58,100,2
3,60,100,35
3,55,100,52
3,58,100,240
3,53,100,0
3,55,100,81
3,58,100,25
3,60,100,16
3,63,100,24
3,58,100,71
3,51,100,17
3,53,100,15
3,46,100,480
3,46,100,17152
3,53,100,0
3,53,100,51
3,46,100,0
3,53,100,73
3,46,100,0
3,53,100,77
3,46,100,0
3,53,100,74
3,46,100,0
3,53,100,81
3,46,100,0
3,53,100,86
3,46,100,0
3,46,100,85
3,53,100,0
3,60,100,27
3,53,100,0
3,53,100,39
3,60,100,0
3,60,100,75
3,53,100,0
3,53,100,82
3,60,100,0
3,55,100,85
3,48,100,0
3,48,100,2
3,55,100,0
3,55,100,62
3,48,100,0
3,55,100,71
3,48,100,0
3,53,100,9
3,46,100,0
3,46,100,27
3,53,100,0
3,53,100,58
3,46,100,0
3,53,100,72
3,46,100,0
3,53,100,61
3,46,100,0
3,53,100,68
3,46,100,0
3,53,100,74
3,46,100,0
3,53,100,78
3,46,100,0
3,60,100,32
3,53,100,0
3,60,100,46
3,53,100,0
3,60,100,76
3,53,100,0
3,60,100,85
3,53,100,0
3,60,100,87
3,53,100,0
3,60,100,86
3,53,100,0
3,60,100,84
3,53,100,0
3,60,100,83
3,53,100,0
3,62,100,41
3,55,100,0
3,55,100,41
3,62,100,0
3,62,100,80
3,55,100,0
3,62,100,77
3,55,100,0
3,65,100,15
3,55,100,0
3,60,100,0
3,56,100,115
3,63,100,0
3,58,100,46
3,51,100,0
3,46,100,88
3,53,100,0
3,55,100,33
3,48,100,0
3,63,100,138
3,56,100,0
3,51,100,69
3,58,100,0
3,46,100,86
3,53,100,0
3,53,100,50
3,46,100,0
3,46,100,15774
3,53,100,0
3,53,100,51
3,46,100,0
3,53,100,73
3,46,100,0
3,53,100,77
3,46,100,0
3,53,100,74
3,46,100,0
3,53,100,81
3,46,100,0
3,53,100,86
3,46,100,0
3,46,100,85
3,53,100,0
3,60,100,27
3,53,100,0
3,53,100,39
3,60,100,0
3,60,100,75
3,53,100,0
3,53,100,82
3,60,100,0
3,55,100,85
3,48,100,0
3,48,100,2
3,55,100,0
3,55,100,62
3,48,100,0
3,55,100,71
3,48,100,0
3,53,100,9
3,46,100,0
3,46,100,27
3,53,100,0
3,53,100,58
3,46,100,0
3,53,100,72
3,46,100,0
3,53,100,61
3,46,100,0
3,53,100,68
3,46,100,0
3,53,100,74
3,46,100,0
3,53,100,78
3,46,100,0
3,60,100,32
3,53,100,0
3,60,100,46
3,53,100,0
3,60,100,76
3,53,100,0
3,60,100,85
3,53,100,0
3,60,100,87
3,53,100,0
3,60,100,86
3,53,100,0
3,60,100,84
3,53,100,0
3,60,100,83
3,53,100,0
3,62,100,41
3,55,100,0
3,55,100,41
3,62,100,0
3,62,100,80
3,55,100,0
3,62,100,77
3,55,100,0
3,65,100,15
3,55,100,0
3,60,100,0
3,56,100,115
3,63,100,0
3,58,100,46
3,51,100,0
3,46,100,88
3,53,100,0
3,55,100,33
3,48,100,0
3,63,100,138
3,56,100,0
3,51,100,69
3,58,100,0
3,46,100,86
3,53,100,0
3,53,100,50
3,46,100,0
3,63,100,15774
3,67,100,0
3,58,100,0
3,63,100,144
3,58,100,0
3,67,100,0
3,63,100,902
3,58,100,0
3,67,100,0
3,67,100,132
3,63,100,0
3,58,100,0
3,50,100,13397
3,55,100,0
3,67,100,0
3,62,100,0
3,50,100,45
3,55,100,0
3,62,100,0
3,67,100,0
3,62,100,43
3,50,100,0
3,55,100,0
3,67,100,0
3,62,100,46
3,67,100,0
3,50,100,0
3,55,100,0
3,62,100,42
3,67,100,0
3,55,100,0
3,50,100,0
3,67,100,44
3,62,100,0
3,55,100,0
3,50,100,0
3,55,100,39
3,50,100,0
3,67,100,0
3,62,100,0
3,48,100,4267
3,51,100,180
3,54,100,160
3,53,100,84
3,48,100,467
3,51,100,148
3,53,100,167
3,48,100,92
3,48,100,376
3,51,100,180
3,54,100,164
3,53,100,114
3,48,100,468
3,51,100,106
3,53,100,158
3,48,100,95
3,51,100,382
3,55,100,0
3,58,100,19
3,57,100,18
3,51,100,19
3,55,100,180
3,57,100,10
3,51,100,120
3,51,100,383
3,55,100,6
3,58,100,26
3,57,100,6
3,51,100,38
3,55,100,12
3,57,100,13
3,51,100,120
3,48,100,395
3,51,100,180
3,54,100,158
3,53,100,117
3,54,100,10
3,55,100,180
3,58,100,93
3,59,100,160
3,60,100,178
3,53,100,116
3,48,100,344
3,51,100,180
3,54,100,165
3,53,100,102
3,54,100,170
3,55,100,9
3,51,100,120
3,53,100,167
3,55,100,166
3,46,100,112
3,58,93,0
3,53,99,0
3,67,107,8909
3,67,98,36
3,65,93,11
3,60,90,240
3,58,101,826
3,60,90,1
3,63,105,240
3,65,108,198
3,67,98,200
3,72,75,1020
3,60,82,0
3,67,93,0
3,72,80,133
3,67,93,0
3,60,80,0
3,72,82,178
3,67,90,0
3,60,80,0
3,67,102,123
3,72,86,0
3,60,90,0
3,58,76,1145
3,60,77,60
3,65,71,39
3,65,79,56
3,67,93,66
3,65,68,65
3,65,70,10
3,63,79,69
3,70,96,1157
3,69,96,60
3,67,102,72
3,65,82,257
3,67,49,60
3,69,90,80
3,70,74,70
3,72,102,1092
3,72,102,143
3,75,89,32
3,72,77,139
3,70,77,12
3,72,93,1299
3,74,98,4
3,75,82,48
3,77,70,29
3,79,82,59
3,77,105,534
3,77,90,13
3,77,99,26
3,75,105,25
3,72,90,32
3,46,100,82
3,53,100,0
3,53,100,51
3,46,100,0
3,53,100,73
3,46,100,0
3,53,100,77
3,46,100,0
3,53,100,74
3,46,100,0
3,53,100,81
3,46,100,0
3,53,100,86
3,46,100,0
3,46,100,85
3,53,100,0
3,60,100,27
3,53,100,0
3,53,100,39
3,60,100,0
3,60,100,75
3,53,100,0
3,53,100,82
3,60,100,0
3,55,100,85
3,48,100,0
3,48,100,2
3,55,100,0
3,55,100,62
3,48,100,0
3,55,100,71
3,48,100,0
3,53,100,9
3,46,100,0
3,46,100,27
3,53,100,0
3,53,100,58
3,46,100,0
3,53,100,72
3,46,100,0
3,53,100,61
3,46,100,0
3,53,100,68
3,46,100,0
3,53,100,74
3,46,100,0
3,53,100,78
3,46,100,0
3,60,100,32
3,53,100,0
3,60,100,46
3,53,100,0
3,60,100,76
3,53,100,0
3,60,100,85
3,53,100,0
3,60,100,87
3,53,100,0
3,60,100,86
3,53,100,0
3,60,100,84
3,53,100,0
3,60,100,83
3,53,100,0
3,62,100,41
3,55,100,0
3,55,100,41
3,62,100,0
3,62,100,80
3,55,100,0
3,62,100,77
3,55,100,0
3,65,100,15
3,55,100,0
3,60,100,0
3,56,100,115
3,63,100,0
3,58,100,46
3,51,100,0
3,46,100,88
3,53,100,0
3,55,100,33
3,48,100,0
3,63,100,138
3,56,100,0
3,51,100,69
3,58,100,0
3,46,100,86
3,53,100,0
3,55,100,33
3,48,100,0
3,56,100,138
3,63,100,0
3,58,100,46
3,51,100,0
3,46,100,88
3,53,100,0
3,55,100,33
3,48,100,0
3,63,100,138
3,56,100,0
3,51,100,69
3,58,100,0
3,46,100,86
3,53,100,0
3,53,100,50
3,46,100,0
3,48,98,3294
3,60,71,120
3,63,89,0
3,67,77,0
3,67,86,33
3,60,77,0
3,63,90,0
3,48,62,7
3,60,72,49
3,67,86,0
3,63,90,0
3,48,67,20
3,67,90,5
3,60,80,0
3,63,93,0
3,48,75,52
3,60,82,48
3,67,86,0
3,63,90,0
3,48,75,94
3,67,86,40
3,60,77,0
3,63,89,0
3,48,75,67
3,60,69,65
3,67,82,0
3,63,87,0
3,48,59,31
3,67,90,21
3,60,77,0
3,63,90,0
3,48,72,90
3,67,82,47
3,60,69,0
3,63,89,0
3,48,63,73
3,60,72,43
3,67,86,0
3,63,87,0
3,48,71,78
3,60,75,49
3,67,86,0
3,63,89,0
3,48,67,17
3,60,75,6
3,67,86,0
3,63,89,0
3,48,75,87
3,60,71,53
3,67,82,0
3,63,89,0
3,48,77,90
3,67,90,44
3,63,99,0
3,60,82,0
3,48,82,90
3,60,72,54
3,63,90,0
3,67,80,0
3,48,69,94
3,60,80,54
3,67,86,0
3,63,96,0
3,48,82,96
3,67,82,63
3,63,90,0
3,60,69,0
3,48,82,93
3,67,90,54
3,63,96,0
3,60,75,0
3,48,82,100
3,67,86,56
3,60,72,0
3,63,93,0
3,48,93,101
3,60,71,69
3,67,80,0
3,63,90,0
3,60,86,31
3,67,98,0
3,63,101,0
3,48,107,0
4,55,112,960
4,58,112,2
4,60,112,35
4,55,112,52
4,58,112,240
4,53,112,0
4,55,112,81
4,58,112,25
4,60,112,16
4,63,112,24
4,58,112,71
4,51,112,17
4,53,112,15
4,46,112,0
4,53,112,0
4,58,112,3
4,63,112,0
4,60,112,89
4,65,112,0
4,58,112,30
4,63,112,0
4,60,112,0
4,65,112,0
4,60,112,35
4,65,112,0
4,58,112,69
4,63,112,0
4,58,112,1
4,63,112,0
4,60,112,56
4,65,112,0
4,58,112,5
4,63,112,0
4,60,112,39
4,65,112,0
4,60,112,32
4,65,112,0
4,58,112,72
4,63,112,0
4,58,112,3
4,63,112,0
4,60,112,89
4,65,112,0
4,58,112,30
4,63,112,0
4,60,112,0
4,65,112,0
4,60,112,35
4,65,112,0
4,58,112,69
4,63,112,0
4,58,112,1
4,63,112,0
4,60,112,56
4,65,112,0
4,58,112,5
4,63,112,0
4,60,112,39
4,65,112,0
4,60,112,32
4,65,112,0
4,58,112,72
4,63,112,0
4,46,112,13
4,53,112,0
4,60,112,60
4,53,112,0
4,55,112,49
4,48,112,0
4,53,112,90
4,46,112,0
4,60,112,117
4,53,112,0
4,55,112,46
4,62,112,0
4,55,112,66
4,60,112,0
4,65,112,0
4,72,112,1
4,75,112,14
4,72,112,15
4,70,112,22
4,74,112,2
4,77,112,19
4,74,112,60
4,77,112,11
4,74,112,3
4,76,112,3
4,79,112,4
4,76,112,1
4,84,112,4
4,82,112,100
4,84,112,34
4,82,112,10
4,84,112,2
4,79,112,9184
4,75,112,0
4,72,112,180
4,77,112,76
4,82,112,0
4,75,112,3
4,72,112,0
4,79,112,908
4,75,112,0
4,72,112,180
4,77,112,76
4,82,112,0
4,72,112,3
4,75,112,0
4,70,112,908
4,75,112,0
4,77,112,9
4,75,112,60
4,70,112,30
4,77,112,0
4,70,112,22
4,77,112,0
4,75,112,66
4,70,112,0
4,63,112,980
4,58,112,0
4,65,112,9
4,63,112,60
4,65,112,59
4,58,112,0
4,65,112,22
4,58,112,0
4,58,112,66
4,63,112,0
4,46,112,80
4,53,112,0
4,60,112,60
4,53,112,0
4,55,112,49
4,48,112,0
4,53,112,90
4,46,112,0
4,60,112,117
4,53,112,0
4,55,112,46
4,62,112,0
4,55,112,66
4,60,112,0
4,65,112,0
4,72,112,1
4,75,112,14
4,72,112,15
4,70,112,22
4,74,112,2
4,77,112,19
4,74,112,60
4,77,112,11
4,74,112,3
4,76,112,3
4,79,112,4
4,76,112,1
4,84,112,4
4,82,112,100
4,84,112,34
4,82,112,10
4,84,112,2
4,75,112,8404
4,67,112,0
4,72,112,0
4,74,112,56
4,65,112,0
4,70,112,0
4,77,112,123
4,72,112,0
4,67,112,0
4,75,112,75
4,72,112,0
4,67,112,0
4,72,112,74
4,67,112,0
4,75,112,0
4,70,112,19
4,65,112,0
4,74,112,0
4,75,112,11
4,72,112,0
4,67,112,0
4,75,112,196
4,67,112,0
4,72,112,0
4,74,112,56
4,65,112,0
4,70,112,0
4,77,112,123
4,72,112,0
4,67,112,0
4,75,112,75
4,72,112,0
4,67,112,0
4,72,112,74
4,67,112,0
4,75,112,0
4,70,112,19
4,65,112,0
4,74,112,0
4,75,112,11
4,72,112,0
4,67,112,0
4,75,112,196
4,67,112,0
4,72,112,0
4,74,112,56
4,65,112,0
4,70,112,0
4,77,112,123
4,72,112,0
4,67,112,0
4,75,112,75
4,72,112,0
4,67,112,0
4,72,112,74
4,67,112,0
4,75,112,0
4,70,112,19
4,65,112,0
4,74,112,0
4,75,112,11
4,72,112,0
4,67,112,0
4,75,112,196
4,67,112,0
4,72,112,0
4,74,112,56
4,65,112,0
4,70,112,0
4,77,112,123
4,72,112,0
4,67,112,0
4,75,112,75
4,72,112,0
4,67,112,0
4,72,112,74
4,67,112,0
4,75,112,0
4,70,112,19
4,65,112,0
