track,note,velocity,time
2,71,79,7200
2,71,79,80
2,71,79,80
2,71,79,80
2,71,79,200
2,71,79,40
2,71,79,40
2,74,79,40
2,74,79,40
2,71,79,80
2,71,79,20
2,71,79,20
2,71,79,40
2,71,79,40
2,69,79,160
2,71,79,40
2,71,79,80
2,74,79,80
2,73,79,320
2,73,79,20
2,73,79,20
2,71,79,40
2,73,79,20
2,66,79,40
2,66,79,160
2,73,79,40
2,71,79,0
2,71,79,40
2,71,79,40
2,69,79,40
2,69,79,40
2,59,79,40
2,71,79,1160
2,71,79,40
2,69,79,40
2,71,79,40
2,71,79,80
2,69,79,40
2,71,79,20
2,71,79,320
2,71,79,40
2,71,79,40
2,71,79,20
2,74,79,20
2,69,79,205
2,71,79,40
2,71,79,45
2,69,79,45
2,71,79,45
2,71,79,45
2,71,79,45
2,71,79,85
2,71,79,45
2,71,79,45
2,74,79,45
2,71,79,210
2,73,79,45
2,73,79,40
2,71,79,40
2,73,79,40
2,66,79,0
2,66,79,160
2,78,79,40
2,78,79,40
2,76,79,40
2,74,79,40
2,76,79,40
2,74,79,20
2,76,79,20
2,74,79,0
2,71,79,20
2,71,79,1400
2,71,79,40
2,74,79,40
2,74,79,20
2,74,79,20
2,76,79,40
2,76,79,40
2,78,79,40
2,76,79,40
2,76,79,40
2,74,79,0
2,74,79,100
2,76,79,20
2,76,79,40
2,74,79,40
2,76,79,40
2,76,79,40
2,76,79,160
2,76,79,40
2,76,79,40
2,74,79,40
2,78,79,40
2,76,79,200
2,76,79,40
2,74,79,40
2,76,79,40
2,77,79,40
2,77,79,80
2,77,79,40
2,76,79,40
2,74,79,40
2,77,79,40
2,73,79,320
2,73,79,40
2,73,79,40
2,73,79,20
2,73,79,20
2,73,79,40
2,74,79,40
2,73,79,40
2,74,79,40
2,73,79,80
2,74,79,40
2,73,79,0
2,71,79,400
2,71,79,40
2,74,79,40
2,74,79,20
2,74,79,20
2,76,79,40
2,76,79,40
2,78,79,40
2,76,79,40
2,76,79,40
2,74,79,0
2,74,79,100
2,76,79,20
2,76,79,40
2,74,79,40
2,76,79,40
2,76,79,40
2,76,79,160
2,76,79,40
2,76,79,40
2,74,79,40
2,78,79,40
2,76,79,80
2,76,79,160
2,74,79,40
2,76,79,40
2,77,79,40
2,77,79,80
2,77,79,40
2,76,79,40
2,74,79,40
2,77,79,40
2,78,79,320
2,78,79,40
2,78,79,40
2,78,79,20
2,78,79,20
2,76,79,40
2,76,79,40
2,74,79,40
2,76,79,40
2,74,79,80
2,78,79,40
2,71,79,40
2,74,79,40
2,74,79,40
2,76,79,40
2,74,79,80
2,76,79,40
2,74,79,0
2,71,79,0
2,74,79,680
2,74,79,20
2,74,79,20
2,71,79,40
2,71,79,40
2,69,79,20
2,71,79,20
2,71,79,1400
2,74,79,40
2,74,79,40
2,76,79,40
2,74,79,80
2,76,79,40
2,74,79,0
2,71,79,0
2,74,79,680
2,74,79,20
2,74,79,20
2,71,79,40
2,71,79,40
2,69,79,20
2,71,79,20
2,71,79,1520
2,71,79,80
2,69,79,40
2,71,79,40
2,69,79,40
2,71,79,40
2,69,79,40
2,71,79,160
2,69,79,20
2,71,79,20
2,71,79,40
2,74,79,40
2,74,79,40
2,71,79,80
2,71,79,20
2,71,79,20
2,71,79,40
2,71,79,40
2,69,79,160
2,71,79,40
2,71,79,80
2,74,79,80
2,71,79,260
2,73,79,20
2,73,79,20
2,73,79,20
2,71,79,40
2,73,79,20
2,66,79,40
2,66,79,160
2,73,79,40
2,71,79,0
2,71,79,40
2,71,79,40
2,69,79,40
2,69,79,40
2,59,79,40
2,71,79,1160
2,71,79,40
2,69,79,40
2,71,79,40
2,71,79,80
2,69,79,40
2,71,79,20
2,71,79,320
2,71,79,40
2,71,79,40
2,71,79,20
2,74,79,20
2,69,79,205
2,71,79,40
2,71,79,45
2,69,79,45
2,71,79,45
2,71,79,45
2,71,79,45
2,71,79,85
2,71,79,45
2,71,79,45
2,74,79,45
2,71,79,150
2,71,79,20
2,71,79,20
2,73,79,20
2,73,79,40
2,71,79,40
2,73,79,40
2,66,79,0
2,66,79,160
2,78,79,40
2,78,79,40
2,76,79,40
2,74,79,40
2,76,79,40
2,74,79,20
2,76,79,20
2,74,79,0
2,71,79,20
2,71,79,1400
2,71,79,40
2,74,79,40
2,74,79,20
2,74,79,20
2,76,79,40
2,76,79,40
2,78,79,40
2,76,79,40
2,76,79,40
2,74,79,0
2,74,79,100
2,76,79,20
2,76,79,40
2,74,79,40
2,76,79,40
2,76,79,40
2,76,79,160
2,76,79,40
2,76,79,40
2,74,79,40
2,78,79,40
2,76,79,200
2,76,79,40
2,74,79,40
2,76,79,40
2,77,79,40
2,77,79,80
2,77,79,40
2,76,79,40
2,74,79,40
2,77,79,40
2,73,79,320
2,73,79,40
2,73,79,40
2,73,79,20
2,73,79,20
2,73,79,40
2,74,79,40
2,73,79,40
2,74,79,40
2,73,79,80
2,74,79,40
2,73,79,0
2,71,79,400
2,71,79,40
2,74,79,40
2,74,79,20
2,74,79,20
2,76,79,40
2,76,79,40
2,78,79,40
2,76,79,40
2,76,79,40
2,74,79,0
2,74,79,100
2,76,79,20
2,76,79,40
2,74,79,40
2,76,79,40
2,76,79,40
2,76,79,160
2,76,79,40
2,76,79,40
2,74,79,40
2,78,79,40
2,76,79,80
2,76,79,160
2,74,79,40
2,76,79,40
2,77,79,40
2,77,79,80
2,77,79,40
2,76,79,40
2,74,79,40
2,77,79,40
2,78,79,320
2,78,79,40
2,78,79,40
2,78,79,20
2,78,79,20
2,76,79,40
2,76,79,40
2,74,79,40
2,76,79,40
2,74,79,80
2,78,79,40
2,71,79,40
2,74,79,40
2,74,79,40
2,76,79,40
2,74,79,80
2,76,79,40
2,74,79,0
2,71,79,0
2,74,79,680
2,74,79,20
2,74,79,20
2,71,79,40
2,71,79,40
2,69,79,20
2,71,79,20
2,71,79,1400
2,74,79,40
2,74,79,40
2,76,79,40
2,74,79,80
2,76,79,40
2,74,79,0
2,71,79,0
2,74,79,680
2,74,79,20
2,74,79,20
2,71,79,40
2,71,79,40
2,69,79,20
2,71,79,20
2,78,79,1160
2,78,79,20
2,78,79,20
2,76,79,40
2,76,79,40
2,74,79,20
2,76,79,20
2,74,79,0
2,71,79,0
2,71,79,200
2,78,79,0
2,76,79,0
2,71,79,200
2,71,79,20
2,74,79,20
2,71,79,40
2,71,79,40
2,69,79,20
2,71,79,20
2,78,79,1160
2,78,79,20
2,78,79,20
2,76,79,40
2,76,79,40
2,74,79,20
2,76,79,20
2,74,79,0
2,71,79,0
2,71,79,200
2,78,79,0
2,76,79,0
2,71,79,200
2,71,79,20
2,74,79,20
2,71,79,40
2,71,79,40
2,69,79,20
2,71,79,20
2,78,79,1160
2,78,79,20
2,78,79,20
2,76,79,40
2,76,79,40
2,74,79,20
2,76,79,20
2,76,79,0
2,74,79,0
2,71,79,0
2,71,79,200
2,78,79,0
2,76,79,0
2,71,79,200
2,71,79,20
2,74,79,20
2,71,79,40
2,71,79,40
2,69,79,20
2,71,79,20
3,67,79,1920
3,64,79,0
3,71,79,0
3,67,79,685
3,64,79,0
3,71,79,0
3,67,79,20
3,64,79,0
3,71,79,0
3,67,79,20
3,64,79,0
3,71,79,0
3,67,79,80
3,64,79,0
3,71,79,0
3,69,79,80
3,66,79,0
3,73,79,0
3,69,79,20
3,66,79,0
3,73,79,0
3,69,79,20
3,66,79,0
3,73,79,0
3,69,79,280
3,66,79,0
3,73,79,0
3,69,79,20
3,66,79,0
3,73,79,0
3,66,79,20
3,69,79,0
3,73,79,0
3,69,79,80
3,66,79,0
3,73,79,0
3,69,79,280
3,66,79,0
3,73,79,0
3,69,79,40
3,66,79,0
3,73,79,0
3,66,79,40
3,62,79,0
3,59,79,0
3,59,95,40
3,66,79,335
3,62,79,0
3,71,79,0
3,66,79,80
3,62,79,0
3,71,79,0
3,66,79,80
3,62,79,0
3,71,79,0
3,71,79,120
3,62,79,40
3,66,79,0
3,71,79,0
3,62,79,40
3,66,79,0
3,71,79,0
3,66,79,40
3,71,79,0
3,74,79,0
3,66,79,40
3,71,79,0
3,74,79,0
3,64,79,80
3,67,79,0
3,71,79,0
3,71,79,20
3,64,79,20
3,67,79,0
3,71,79,0
3,64,79,40
3,67,79,0
3,71,79,0
3,64,79,40
3,67,79,0
3,71,79,0
3,69,79,40
3,64,79,40
3,67,79,0
3,71,79,0
3,64,79,80
3,67,79,0
3,71,79,0
3,67,79,80
3,64,79,0
3,71,79,0
3,69,79,165
3,66,79,0
3,73,79,0
3,73,79,20
3,69,79,20
3,66,79,0
3,73,79,0
3,71,79,40
3,69,79,20
3,66,79,0
3,73,79,0
3,66,79,40
3,66,79,40
3,69,79,40
3,66,79,0
3,73,79,0
3,71,79,40
3,71,79,40
3,66,79,40
3,61,79,0
3,71,79,0
3,66,79,40
3,61,79,0
3,69,79,0
3,66,79,40
3,62,79,0
3,59,79,0
3,69,79,0
3,59,79,40
3,66,79,765
3,64,79,0
3,71,79,0
3,66,79,40
3,64,79,0
3,71,79,0
3,69,79,40
3,66,79,40
3,62,79,0
3,71,79,0
3,66,79,80
3,62,79,0
3,71,79,0
3,69,79,40
3,66,79,20
3,62,79,0
3,71,79,0
3,66,79,165
3,62,79,0
3,71,79,0
3,71,79,45
3,71,79,45
3,71,79,25
3,71,79,25
3,66,79,0
3,74,79,0
3,69,79,135
3,67,79,45
3,64,79,0
3,71,79,0
3,71,79,45
3,69,79,45
3,67,79,45
3,64,79,0
3,71,79,0
3,71,79,45
3,67,79,40
3,64,79,0
3,71,79,0
3,67,79,80
3,64,79,0
3,71,79,0
3,71,79,40
3,71,79,40
3,71,79,40
3,67,79,0
3,64,79,0
3,74,79,0
3,71,79,120
3,69,79,40
3,66,79,0
3,73,79,0
3,73,79,40
3,71,79,40
3,69,79,40
3,66,79,0
3,73,79,0
3,66,79,40
3,66,79,40
3,73,79,40
3,69,79,0
3,66,79,0
3,78,79,0
3,73,79,40
3,69,79,0
3,66,79,0
3,78,79,0
3,73,79,40
3,69,79,0
3,66,79,0
3,76,79,0
3,74,79,40
3,76,79,40
3,74,79,20
3,71,79,20
3,66,79,0
3,76,79,0
3,74,79,20
3,66,79,20
3,62,79,0
3,71,79,0
3,66,79,445
3,62,79,0
3,71,79,0
3,71,79,40
3,71,79,40
3,66,79,0
3,74,79,0
3,74,79,20
3,74,79,20
3,76,79,40
3,76,79,40
3,74,79,40
3,71,79,0
3,66,79,0
3,78,79,0
3,76,79,40
3,71,79,40
3,66,79,0
3,76,79,0
3,74,79,40
3,74,79,20
3,73,79,20
3,69,79,0
3,76,79,0
3,76,79,40
3,74,79,40
3,73,79,40
3,69,79,0
3,76,79,0
3,73,79,40
3,69,79,0
3,76,79,0
3,73,79,40
3,69,79,0
3,76,79,0
3,76,79,40
3,73,79,40
3,69,79,0
3,76,79,0
3,74,79,40
3,73,79,40
3,69,79,0
3,78,79,0
3,76,79,120
3,71,79,40
3,67,79,0
3,76,79,0
3,74,79,40
3,76,79,40
3,71,79,40
3,67,79,0
3,77,79,0
3,71,79,80
3,67,79,0
3,77,79,0
3,77,79,40
3,73,79,40
3,69,79,0
3,76,79,0
3,74,79,40
3,71,79,40
3,67,79,0
3,77,79,0
3,66,79,165
3,73,79,0
3,73,79,45
3,73,79,45
3,73,79,20
3,66,79,20
3,73,79,0
3,73,79,45
3,74,79,45
3,73,79,45
3,66,79,45
3,74,79,0
3,73,79,90
3,66,79,45
3,74,79,0
3,66,79,45
3,73,79,0
3,66,79,200
3,62,79,0
3,71,79,0
3,71,79,40
3,71,79,40
3,66,79,0
3,74,79,0
3,74,79,20
3,74,79,20
3,76,79,40
3,76,79,40
3,74,79,40
3,71,79,0
3,66,79,0
3,78,79,0
3,76,79,40
3,73,79,40
3,66,79,0
3,76,79,0
3,74,79,40
3,74,79,20
3,73,79,20
3,69,79,0
3,76,79,0
3,76,79,40
3,74,79,40
3,73,79,40
3,69,79,0
3,76,79,0
3,73,79,40
3,69,79,0
3,76,79,0
3,73,79,80
3,69,79,0
3,76,79,0
3,76,79,40
3,73,79,40
3,69,79,0
3,76,79,0
3,74,79,40
3,73,79,40
3,69,79,0
3,78,79,0
3,76,79,120
3,71,79,40
3,67,79,0
3,76,79,0
3,74,79,40
3,76,79,40
3,71,79,40
3,67,79,0
3,77,79,0
3,71,79,80
3,67,79,0
3,77,79,0
3,77,79,40
3,71,79,40
3,67,79,0
3,76,79,0
3,74,79,40
3,71,79,40
3,67,79,0
3,77,79,0
3,73,79,165
3,66,79,0
3,78,79,0
3,78,79,40
3,78,79,40
3,78,79,20
3,73,79,20
3,66,79,0
3,78,79,0
3,76,79,40
3,76,79,40
3,74,79,40
3,73,79,40
3,66,79,0
3,76,79,0
3,74,79,80
3,73,79,40
3,66,79,0
3,78,79,0
3,71,79,40
3,74,79,40
3,74,79,40
3,71,79,40
3,67,79,0
3,76,79,0
3,74,79,80
3,76,79,40
3,74,79,20
3,71,79,20
3,59,79,120
3,55,79,0
3,64,79,0
3,74,79,120
3,74,79,20
3,67,79,20
3,64,79,0
3,74,79,0
3,71,79,40
3,71,79,40
3,69,79,20
3,66,79,20
3,62,79,0
3,71,79,0
3,71,79,40
3,74,79,40
3,74,79,40
3,71,79,40
3,67,79,0
3,76,79,0
3,74,79,80
3,76,79,40
3,74,79,20
3,71,79,20
3,59,79,120
3,55,79,0
3,64,79,0
3,74,79,120
3,74,79,20
3,67,79,20
3,64,79,0
3,74,79,0
3,71,79,40
3,71,79,40
3,69,79,20
3,66,79,20
3,62,79,0
3,71,79,0
3,71,79,245
3,66,79,80
3,62,79,0
3,71,79,0
3,66,79,80
3,62,79,0
3,71,79,0
3,66,79,80
3,62,79,0
3,71,79,0
3,71,79,120
3,62,79,40
3,66,79,0
3,71,79,0
3,62,79,40
3,66,79,0
3,71,79,0
3,66,79,40
3,71,79,0
3,74,79,0
3,66,79,40
3,71,79,0
3,74,79,0
3,64,79,80
3,67,79,0
3,71,79,0
3,71,79,20
3,64,79,20
3,67,79,0
3,71,79,0
3,64,79,40
3,67,79,0
3,71,79,0
3,64,79,40
3,67,79,0
3,71,79,0
3,69,79,40
3,64,79,40
3,67,79,0
3,71,79,0
3,64,79,80
3,67,79,0
3,71,79,0
3,67,79,80
3,64,79,0
3,71,79,0
3,69,79,165
3,66,79,0
3,73,79,0
3,73,79,20
3,69,79,20
3,66,79,0
3,73,79,0
3,71,79,40
3,69,79,20
3,66,79,0
3,73,79,0
3,66,79,40
3,66,79,40
3,69,79,40
3,66,79,0
3,73,79,0
3,71,79,40
3,71,79,40
3,66,79,40
3,61,79,0
3,71,79,0
3,66,79,40
3,61,79,0
3,69,79,0
3,66,79,40
3,62,79,0
3,59,79,0
3,69,79,0
3,59,79,40
3,66,79,765
3,64,79,0
3,71,79,0
3,66,79,40
3,64,79,0
3,71,79,0
3,69,79,40
3,66,79,40
3,62,79,0
3,71,79,0
3,66,79,80
3,62,79,0
3,71,79,0
3,69,79,40
3,66,79,20
3,62,79,0
3,71,79,0
3,66,79,165
3,62,79,0
3,71,79,0
3,71,79,45
3,71,79,45
3,71,79,25
3,71,79,25
3,66,79,0
3,74,79,0
3,69,79,135
3,67,79,45
3,64,79,0
3,71,79,0
3,71,79,45
3,69,79,45
3,67,79,45
3,64,79,0
3,71,79,0
3,71,79,45
3,67,79,40
3,64,79,0
3,71,79,0
3,67,79,80
3,64,79,0
3,71,79,0
3,71,79,40
3,71,79,40
3,71,79,40
3,67,79,0
3,64,79,0
3,74,79,0
3,71,79,120
3,69,79,40
3,66,79,0
3,73,79,0
3,73,79,40
3,71,79,40
3,69,79,40
3,66,79,0
3,73,79,0
3,66,79,40
3,66,79,40
3,73,79,40
3,69,79,0
3,66,79,0
3,78,79,0
3,73,79,40
3,69,79,0
3,66,79,0
3,78,79,0
3,73,79,40
3,69,79,0
3,66,79,0
3,76,79,0
3,74,79,40
3,76,79,40
