track,note,velocity,time
1,60,78,1682
1,60,0,118
1,63,72,0
1,63,0,121
1,67,82,1
1,75,80,238
1,67,0,1
1,75,0,116
1,75,74,2
1,72,85,121
1,75,0,1
1,72,0,236
1,72,78,1
1,72,0,32
1,74,77,0
1,72,70,31
1,74,0,2
1,72,0,56
1,70,74,0
1,70,0,57
1,68,69,6
1,67,80,57
1,68,0,3
1,67,0,120
1,63,71,0
1,62,86,118
1,63,0,2
1,62,0,236
1,67,95,1
1,63,75,241
1,67,0,2
1,63,0,118
1,60,72,0
1,60,0,119
1,60,79,2
1,63,69,117
1,60,0,4
1,63,0,115
1,67,76,3
1,75,83,239
1,67,0,4
1,75,0,113
1,75,66,2
1,75,0,122
1,72,70,1
1,72,0,238
1,72,75,2
1,74,67,29
1,72,0,4
1,72,69,27
1,74,0,1
1,72,0,58
1,70,69,0
1,70,0,57
1,68,72,2
1,68,0,59
1,67,74,3
1,67,0,119
1,63,63,1
1,62,84,117
1,63,0,2
1,67,81,239
1,62,0,2
1,67,0,237
1,60,77,2
1,60,0,477
1,60,79,1201
1,60,0,122
1,63,76,1
1,67,79,117
1,63,0,4
1,67,0,237
1,75,75,0
1,75,0,120
1,75,74,1
1,72,83,121
1,75,0,2
1,72,0,234
1,72,75,2
1,74,73,29
1,72,0,4
1,74,0,27
1,72,73,2
1,72,0,58
1,70,69,0
1,70,0,61
1,68,71,2
1,67,85,57
1,68,0,2
1,67,0,117
1,63,71,0
1,63,0,122
1,62,81,2
1,67,84,238
1,62,0,5
1,63,79,236
1,67,0,1
1,63,0,118
1,60,69,0
1,60,0,119
1,60,77,1
1,63,77,119
1,60,0,3
1,63,0,114
1,67,81,2
1,67,0,242
1,75,85,0
1,75,0,117
1,75,69,2
1,75,0,119
1,72,74,1
1,72,0,237
1,72,80,2
1,72,0,28
1,74,74,6
1,72,70,26
1,74,0,1
1,70,71,60
1,72,0,2
1,70,0,56
1,68,73,4
1,67,80,58
1,68,0,1
1,63,71,118
1,67,0,2
1,63,0,118
1,62,94,3
1,67,87,238
1,62,0,4
1,67,0,235
1,60,93,3
1,60,0,238
1,87,60,3
1,87,0,77
1,87,56,39
1,87,0,77
1,87,78,46
1,85,57,117
1,87,0,2
1,85,0,5
1,87,57,12
1,87,0,8
1,85,62,4
1,85,0,20
1,84,64,12
1,84,0,42
1,82,60,19
1,82,0,83
1,82,56,37
1,82,0,80
1,82,80,39
1,80,57,118
1,82,0,2
1,80,0,11
1,82,58,5
1,82,0,12
1,80,64,3
1,80,0,19
1,79,63,7
1,79,0,37
1,77,65,23
1,77,0,40
1,79,63,24
1,79,0,39
1,80,61,19
1,80,0,42
1,82,57,20
1,82,0,40
1,84,69,18
1,84,0,39
1,86,57,19
1,86,0,40
1,87,60,20
1,87,0,37
1,89,56,23
1,89,0,43
1,91,64,20
1,91,0,117
1,86,60,1
1,86,0,123
1,87,69,0
1,84,61,117
1,87,0,5
1,84,0,114
1,87,66,2
1,87,0,77
1,87,61,45
1,87,0,77
1,87,81,40
1,85,56,119
1,87,0,1
1,85,0,8
1,87,57,10
1,85,59,11
1,87,0,2
1,85,0,20
1,84,58,11
1,84,0,37
1,82,60,20
1,82,0,82
1,82,56,38
1,82,0,81
1,82,75,43
1,80,63,120
1,82,0,3
1,80,0,8
1,82,62,0
1,82,0,8
1,80,59,11
1,80,0,18
1,79,58,12
1,79,0,41
1,77,63,16
1,77,0,41
1,79,64,22
1,79,0,39
1,80,62,18
1,80,0,41
1,82,64,22
1,82,0,40
1,84,65,18
1,84,0,42
1,86,57,19
1,86,0,38
1,87,59,21
1,87,0,43
1,89,61,19
1,89,0,42
1,91,67,15
1,91,0,117
1,86,64,4
1,86,0,59
1,87,64,2
1,87,0,57
1,84,65,1
1,84,0,118
1,87,60,121
1,87,0,83
1,87,62,37
1,87,0,79
1,87,82,44
1,85,58,118
1,87,0,1
1,85,0,7
1,87,60,8
1,87,0,9
1,85,60,8
1,85,0,21
1,84,57,9
1,84,0,40
1,82,66,20
1,82,0,77
1,82,58,39
1,82,0,80
1,82,82,43
1,80,64,118
1,82,0,5
1,80,0,7
1,82,63,4
1,82,0,8
1,80,64,5
1,80,0,18
1,79,64,15
1,79,0,37
1,77,61,23
1,77,0,39
1,79,60,22
1,79,0,42
1,80,63,18
1,80,0,37
1,82,64,19
1,82,0,39
1,84,71,25
1,84,0,39
1,86,56,18
1,86,0,40
1,87,57,20
1,87,0,38
1,89,63,25
1,89,0,38
1,91,60,18
1,91,0,117
1,86,60,7
1,87,64,118
1,86,0,1
1,84,56,118
1,87,0,3
1,84,0,117
1,87,68,1
1,87,0,77
1,87,63,41
1,87,0,82
1,87,80,39
1,87,0,118
1,85,60,5
1,85,0,10
1,87,64,1
1,87,0,7
1,85,56,10
1,85,0,23
1,84,59,5
1,84,0,41
1,82,68,20
1,82,0,77
1,82,62,45
1,82,0,77
1,82,76,41
1,80,62,119
1,82,0,4
1,80,0,4
1,82,64,9
1,82,0,7
1,80,59,9
1,80,0,17
1,79,59,10
1,79,0,39
1,77,62,25
1,77,0,37
1,79,56,20
1,79,0,37
1,80,57,26
1,80,0,42
1,82,63,16
1,82,0,39
1,84,67,21
1,84,0,39
1,86,64,23
1,86,0,38
1,87,60,22
1,87,0,37
1,89,62,20
1,89,0,39
1,91,65,20
1,91,0,120
1,86,58,2
1,87,56,61
1,86,0,2
1,87,0,56
1,84,67,1
1,84,0,237
1,72,76,3
1,72,0,80
1,75,69,38
1,67,76,0
1,67,0,81
1,75,0,1
1,79,88,42
1,67,69,120
1,67,0,3
1,79,0,0
1,87,79,1
1,87,0,79
1,87,72,39
1,67,77,1
1,87,0,78
1,67,0,1
1,84,95,38
1,67,69,123
1,84,0,4
1,67,0,3
1,84,79,0
1,67,74,118
1,84,0,1
1,82,75,0
1,80,73,60
1,82,0,1
1,79,80,56
1,67,0,1
1,80,0,4
1,67,71,115
1,79,0,1
1,75,69,3
1,67,0,3
1,74,81,5
1,75,0,1
1,79,77,116
1,74,0,2
1,67,70,2
1,79,0,115
1,67,0,3
1,75,82,2
1,67,73,116
1,75,0,5
1,67,0,2
1,72,77,1
1,72,0,77
1,67,71,42
1,75,76,1
1,75,0,77
1,67,0,5
1,79,95,34
1,67,74,121
1,79,0,116
1,87,76,3
1,67,0,3
1,87,0,79
1,67,69,41
1,87,75,0
1,67,0,81
1,87,0,2
1,84,89,37
1,67,77,120
1,84,0,4
1,67,0,1
1,84,79,0
1,67,71,116
1,82,71,3
1,84,0,2
1,80,69,55
1,82,0,2
1,67,0,57
1,80,0,1
1,79,79,4
1,79,0,118
1,75,70,0
1,67,74,2
1,74,77,4
1,67,0,1
1,75,0,2
1,74,0,117
1,67,70,2
1,79,71,1
1,72,80,117
1,67,0,2
1,79,0,3
1,67,70,115
1,72,0,117
1,67,0,2
1,72,75,0
1,72,0,77
1,67,75,40
1,75,76,0
1,67,0,77
1,75,0,2
1,79,92,42
1,67,70,122
1,79,0,5
1,87,73,0
1,67,0,3
1,87,0,76
1,67,71,37
1,87,71,1
1,67,0,80
1,87,0,2
1,84,89,40
1,67,69,119
1,84,0,4
1,84,75,2
1,67,0,1
1,84,0,115
1,67,69,3
1,82,74,0
1,82,0,58
1,80,73,3
1,67,0,57
1,79,78,3
1,80,0,1
1,79,0,116
1,75,70,0
1,67,75,2
1,75,0,4
1,67,0,3
1,74,76,0
1,79,73,116
1,67,72,1
1,74,0,6
1,67,0,111
1,79,0,0
1,75,81,4
1,67,76,120
1,75,0,2
1,67,0,5
1,72,78,1
1,72,0,78
1,67,69,40
1,75,77,2
1,75,0,80
1,67,0,1
1,79,88,39
1,67,71,120
1,87,80,2
1,67,0,1
1,79,0,0
1,87,0,80
1,87,74,38
1,67,73,2
1,87,0,78
1,67,0,1
1,84,95,38
1,67,72,121
1,84,0,2
1,67,0,1
1,84,80,2
1,84,0,121
1,67,75,1
1,82,74,0
1,82,0,58
1,80,77,2
1,80,0,57
1,79,79,0
1,67,0,1
1,75,72,118
1,79,0,1
1,67,72,1
1,75,0,2
1,74,77,3
1,67,0,3
1,74,0,113
1,79,69,2
1,67,75,4
1,67,0,117
1,72,78,0
1,79,0,2
1,87,82,5
1,72,0,2
1,87,0,79
1,75,78,38
1,84,78,2
1,87,79,2
1,84,0,77
1,75,0,1
1,87,0,5
1,87,91,36
1,87,0,81
1,80,76,36
1,92,76,0
1,85,74,4
1,85,0,41
1,84,75,15
1,92,0,17
1,80,0,2
1,84,0,22
1,82,77,22
1,82,0,82
1,82,74,36
1,70,80,0
1,75,78,3
1,70,0,76
1,75,0,1
1,82,0,3
1,82,94,37
1,82,0,117
1,87,75,2
1,80,73,0
1,75,74,2
1,80,0,39
1,79,73,19
1,87,0,21
1,75,0,4
1,79,0,15
1,77,84,24
1,77,0,40
1,79,78,20
1,79,0,38
1,89,77,18
1,80,72,1
1,85,75,0
1,80,0,42
1,82,72,17
1,89,0,17
1,85,0,3
1,82,0,20
1,84,81,22
1,84,0,43
1,86,77,18
1,86,0,40
1,91,75,20
1,87,78,0
1,96,74,0
1,87,0,40
1,89,76,19
1,96,0,19
1,91,0,2
1,89,0,19
1,91,81,18
1,103,77,31
1,91,0,2
1,103,0,27
1,101,72,0
1,101,0,31
1,98,76,0
1,98,0,31
1,95,76,2
1,91,73,28
1,95,0,3
1,89,79,28
1,91,0,1
1,89,0,26
1,86,79,1
1,86,0,30
1,89,86,3
1,88,76,29
1,89,0,2
1,88,0,28
1,87,76,0
1,87,0,30
1,86,77,1
1,84,80,26
1,86,0,5
1,87,80,116
1,84,0,1
1,87,0,79
1,75,75,39
1,87,77,0
1,84,78,2
1,75,0,78
1,84,0,1
1,87,0,0
1,87,96,42
1,85,77,117
1,92,72,1
1,80,80,2
1,87,0,3
1,85,0,31
1,84,78,27
1,92,0,18
1,80,0,2
1,84,0,19
1,82,83,18
1,82,0,81
1,70,73,38
1,75,75,1
1,82,75,3
1,70,0,73
1,75,0,1
1,82,0,6
1,82,97,37
1,82,0,118
1,87,72,1
1,80,72,2
1,75,77,1
1,80,0,42
1,79,76,16
1,87,0,21
1,75,0,1
1,79,0,20
1,77,82,17
1,77,0,37
1,79,74,27
1,79,0,41
1,89,75,15
1,85,80,1
1,80,75,3
1,80,0,41
1,82,76,17
1,89,0,20
1,85,0,1
1,82,0,19
1,84,88,20
1,84,0,40
1,86,72,22
1,86,0,41
1,87,79,15
1,96,78,2
1,91,79,1
1,87,0,34
1,89,79,24
1,96,0,20
1,91,0,5
1,89,0,17
1,91,82,17
1,103,77,30
1,91,0,2
1,103,0,29
1,101,78,0
1,101,0,31
1,98,73,0
1,98,0,27
1,95,79,4
1,95,0,28
1,91,75,3
1,91,0,28
1,89,80,2
1,86,76,29
1,89,0,3
1,89,83,24
1,86,0,6
1,89,0,21
1,88,74,3
1,88,0,30
1,87,75,0
1,86,74,32
1,87,0,1
1,84,78,28
1,86,0,2
1,91,81,117
1,84,0,2
1,91,0,26
1,103,79,6
1,101,79,26
1,103,0,2
1,101,0,30
1,98,76,1
1,95,74,31
1,98,0,2
1,91,76,26
1,95,0,1
1,89,82,27
1,91,0,3
1,89,0,26
1,86,78,3
1,86,0,27
1,89,90,1
1,89,0,27
1,88,84,4
1,87,82,31
1,88,0,1
1,86,80,27
1,87,0,1
1,86,0,30
1,84,82,0
1,91,91,120
1,84,0,3
1,91,0,27
1,103,84,2
1,101,84,29
1,103,0,4
1,101,0,23
1,98,80,2
1,98,0,32
1,95,83,1
1,91,81,27
1,95,0,6
1,91,0,24
1,89,82,1
1,89,0,29
1,86,84,0
1,86,0,27
1,89,92,3
1,89,0,29
1,88,83,2
1,88,0,30
1,87,90,0
1,86,89,30
1,87,0,3
1,84,84,28
1,86,0,1
1,84,0,26
1,82,84,0
1,82,0,31
1,80,82,1
1,79,87,28
1,80,0,2
1,79,0,25
1,77,93,4
1,77,0,30
1,79,90,0
1,80,88,32
1,79,0,1
1,81,90,30
1,80,0,2
1,81,0,26
1,82,84,0
1,82,0,31
1,83,83,0
1,83,0,29
1,84,82,1
1,84,0,27
1,86,90,0
1,86,0,30
1,87,98,2
1,87,0,117
1,75,81,122
1,75,0,83
1,79,69,40
1,79,0,78
1,82,92,5
1,91,75,236
1,82,0,3
1,91,0,80
1,91,76,38
1,91,0,78
1,87,93,4
1,87,0,237
1,87,81,5
1,87,0,30
1,89,76,1
1,89,0,29
1,87,74,2
1,86,69,58
1,87,0,3
1,86,0,55
1,84,75,4
1,84,0,6
1,82,82,1
1,84,69,30
1,82,0,1
1,82,70,28
1,84,0,4
1,82,0,57
1,80,70,0
1,80,0,61
1,79,70,0
1,79,0,57
1,77,73,1
1,77,0,121
1,82,76,2
1,82,0,5
1,79,78,1
1,79,0,120
1,75,71,0
1,75,0,116
1,75,77,2
1,75,0,79
1,79,70,43
1,79,0,83
1,82,92,2
1,82,0,240
1,91,77,0
1,91,0,77
1,91,71,42
1,91,0,81
1,87,89,6
1,87,0,236
1,87,79,2
1,87,0,29
1,89,74,2
1,87,75,27
1,89,0,3
1,87,0,54
1,86,72,3
1,86,0,60
1,84,74,3
1,84,0,4
1,82,84,0
1,84,71,28
1,82,0,4
1,84,0,23
1,82,74,3
1,82,0,62
1,80,69,0
1,80,0,59
1,79,74,0
1,79,0,59
1,77,73,2
1,82,74,119
1,77,0,2
1,82,0,1
1,75,94,2
1,75,0,241
1,87,78,0
1,87,0,80
1,91,77,40
1,91,0,80
1,94,90,2
1,103,81,239
1,94,0,3
1,103,0,116
1,103,72,2
1,103,0,4
1,99,88,1
1,99,0,235
1,99,81,2
1,99,0,28
1,101,69,5
1,101,0,27
1,99,70,1
1,98,71,60
1,99,0,3
1,98,0,55
1,96,72,2
1,94,77,1
1,96,0,2
1,96,71,26
1,94,0,3
1,96,0,28
1,94,73,0
1,92,74,61
1,94,0,1
1,92,0,61
1,91,75,0
1,89,76,56
1,91,0,1
1,89,0,118
1,94,72,2
1,94,0,117
1,91,83,1
1,91,0,117
1,87,77,4
1,87,0,114
1,87,80,2
1,87,0,78
1,91,73,44
1,91,0,78
1,94,90,7
1,94,0,238
1,103,76,2
1,103,0,83
1,103,69,35
1,103,0,80
1,99,88,5
1,99,0,237
1,99,81,2
1,99,0,27
1,101,77,4
1,99,70,28
1,101,0,4
1,99,0,57
1,98,75,0
1,96,73,60
1,98,0,1
1,96,0,1
1,94,80,3
1,96,77,31
1,94,0,2
1,94,70,27
1,96,0,3
1,94,0,54
1,92,72,3
1,91,76,57
1,92,0,5
1,89,74,55
1,91,0,3
1,89,0,114
1,94,70,7
1,87,93,4
1,94,0,3
1,87,0,236
1,92,98,1
1,92,0,30
1,91,84,1
1,92,82,27
1,91,0,6
1,92,0,22
1,91,89,3
1,92,90,29
1,91,0,3
1,92,0,29
1,91,89,2
1,91,0,27
1,92,87,2
1,91,83,31
1,92,0,1
1,91,0,26
1,89,98,1
1,89,0,27
1,91,83,1
1,91,0,30
1,89,87,3
1,91,89,29
1,89,0,1
1,91,0,26
1,89,89,2
1,89,0,29
1,91,82,3
1,91,0,29
1,89,82,2
1,89,0,28
1,91,88,0
1,91,0,27
1,92,103,1
1,91,87,32
1,92,0,1
1,91,0,27
1,92,89,2
1,92,0,32
1,91,86,0
1,91,0,27
1,92,87,1
1,92,0,27
1,91,85,1
1,91,0,28
1,92,87,6
1,91,86,28
1,92,0,1
1,89,94,28
1,91,0,1
1,89,0,26
1,91,87,4
1,91,0,27
1,89,82,2
1,89,0,28
1,91,86,2
1,91,0,28
1,89,90,3
1,89,0,31
1,91,83,0
1,89,85,27
1,91,0,1
1,89,0,27
1,91,85,3
1,96,79,29
1,89,78,1
1,91,0,1
1,84,81,1
1,96,0,55
1,89,0,2
1,84,0,2
1,91,75,1
1,91,0,40
1,96,75,17
1,84,77,1
1,89,74,2
1,96,0,35
1,84,0,4
1,89,0,3
1,91,71,15
1,91,0,43
1,89,78,18
1,84,83,3
