track,note,velocity,time
1,94,108,0
1,94,0,14
1,92,96,1
1,94,97,17
1,92,0,1
1,92,101,14
1,94,0,1
1,94,102,11
1,92,0,4
1,92,97,10
1,94,0,3
1,92,0,13
1,94,100,0
1,94,0,15
1,92,101,3
1,93,100,13
1,92,0,1
1,93,0,26
1,94,97,2
1,94,0,25
1,98,97,5
1,98,0,14
1,96,98,4
1,96,0,11
1,94,102,2
1,94,0,26
1,103,105,4
1,103,0,29
1,98,104,0
1,98,0,29
1,101,96,4
1,99,99,12
1,101,0,3
1,99,0,12
1,94,97,3
1,94,0,27
1,91,104,2
1,91,0,26
1,87,98,5
1,87,0,28
1,89,102,2
1,89,0,29
1,90,99,1
1,90,0,24
1,91,110,6
1,91,0,14
1,89,101,1
1,89,0,13
1,91,101,1
1,89,100,15
1,91,0,2
1,91,97,11
1,89,0,4
1,89,102,12
1,91,0,2
1,89,0,13
1,91,102,0
1,91,0,15
1,89,99,1
1,90,101,15
1,89,0,3
1,91,103,25
1,90,0,2
1,91,0,22
1,94,100,9
1,94,0,10
1,92,98,1
1,92,0,14
1,91,100,5
1,91,0,29
1,99,105,1
1,95,97,28
1,99,0,2
1,95,0,22
1,98,100,8
1,98,0,24
1,96,103,6
1,96,0,25
1,91,103,1
1,91,0,30
1,87,100,2
1,87,0,24
1,83,101,6
1,83,0,24
1,79,103,6
1,79,0,25
1,99,106,5
1,99,0,56
1,98,102,4
1,98,0,26
1,96,98,4
1,96,0,28
1,96,101,3
1,94,105,59
1,96,0,1
1,93,109,27
1,94,0,1
1,93,0,24
1,94,117,9
1,94,0,30
1,103,112,0
1,98,107,26
1,103,0,2
1,98,0,28
1,99,112,3
1,99,0,27
1,96,113,0
1,96,0,28
1,93,112,4
1,93,0,27
1,90,104,5
1,90,0,26
1,87,111,2
1,87,0,29
1,84,112,2
1,86,103,13
1,84,0,5
1,86,0,7
1,84,103,6
1,82,109,30
1,84,0,1
1,82,0,27
1,81,104,0
1,80,101,29
1,81,0,1
1,82,100,14
1,80,0,1
1,82,0,16
1,80,102,0
1,79,96,29
1,80,0,1
1,79,0,28
1,77,98,1
1,77,0,24
1,75,106,7
1,75,0,30
1,79,102,1
1,82,104,28
1,79,0,2
1,82,0,28
1,87,99,2
1,87,0,26
1,91,100,0
1,91,0,24
1,92,96,10
1,92,0,24
1,93,104,2
1,93,0,25
1,96,99,6
1,96,0,30
1,94,105,1
1,94,0,15
1,92,97,0
1,92,0,14
1,94,99,3
1,92,97,15
1,94,0,2
1,92,0,11
1,94,100,1
1,94,0,12
1,92,97,1
1,92,0,13
1,94,104,3
1,94,0,13
1,92,102,2
1,92,0,17
1,93,108,0
1,94,103,26
1,93,0,1
1,94,0,27
1,98,97,5
1,98,0,15
1,96,98,0
1,94,100,14
1,96,0,1
1,94,0,25
1,103,109,2
1,103,0,27
1,98,104,7
1,98,0,24
1,101,98,4
1,101,0,13
1,99,104,0
1,99,0,10
1,94,98,9
1,94,0,27
1,91,106,1
1,91,0,26
1,87,104,6
1,87,0,24
1,89,98,6
1,89,0,26
1,90,101,2
1,90,0,28
1,91,104,0
1,89,100,17
1,91,0,5
1,89,0,9
1,91,104,0
1,91,0,12
1,89,104,4
1,89,0,17
1,91,96,0
1,91,0,13
1,89,96,0
1,89,0,14
1,91,103,1
1,89,99,14
1,91,0,1
1,89,0,15
1,90,100,1
1,90,0,28
1,91,96,0
1,91,0,29
1,94,98,3
1,92,97,12
1,94,0,1
1,92,0,11
1,91,101,6
1,91,0,29
1,99,110,1
1,99,0,26
1,95,99,4
1,95,0,29
1,98,97,1
1,98,0,25
1,96,104,6
1,96,0,27
1,91,105,3
1,91,0,24
1,87,99,4
1,87,0,27
1,84,98,3
1,84,0,27
1,79,97,4
1,79,0,28
1,99,105,0
1,99,0,14
1,101,98,3
1,101,0,12
1,99,100,3
1,98,96,29
1,99,0,3
1,98,0,21
1,96,97,5
1,96,0,28
1,96,104,2
1,96,0,14
1,98,106,0
1,98,0,14
1,96,105,3
1,96,0,27
1,94,102,5
1,93,104,26
1,94,0,2
1,93,0,25
1,94,111,6
1,94,0,24
1,103,106,6
1,103,0,28
1,98,107,2
1,98,0,30
1,99,107,0
1,96,113,29
1,99,0,1
1,93,104,27
1,96,0,1
1,93,0,24
1,90,111,5
1,90,0,29
1,87,103,4
1,87,0,29
1,84,119,2
1,86,110,11
1,84,0,5
1,86,0,10
1,84,104,2
1,82,107,31
1,84,0,2
1,82,0,25
1,81,100,2
1,81,0,28
1,80,104,0
1,80,0,12
1,82,100,4
1,82,0,15
1,80,99,1
1,80,0,28
1,79,102,1
1,79,0,30
1,77,101,0
1,77,0,29
1,75,108,1
1,75,0,120
1,82,102,0
1,74,102,2
1,70,101,1
1,82,0,116
1,70,0,2
1,63,106,0
1,67,110,1
1,74,0,1
1,63,0,54
1,67,0,5
1,70,99,0
1,70,0,58
1,75,101,3
1,68,108,116
1,74,105,0
1,75,0,3
1,74,0,52
1,68,0,5
1,77,98,1
1,70,98,1
1,77,0,55
1,70,0,4
1,74,104,3
1,82,102,0
1,79,105,117
1,86,104,2
1,82,0,1
1,74,0,3
1,86,0,8
1,84,102,0
1,84,0,12
1,79,0,4
1,82,103,0
1,79,101,59
1,82,0,1
1,79,0,29
1,74,103,4
1,74,0,55
1,70,103,1
1,67,96,0
1,75,96,3
1,67,0,51
1,75,0,4
1,70,0,1
1,77,107,1
1,74,108,0
1,68,110,2
1,74,0,54
1,77,0,1
1,82,104,3
1,68,0,2
1,82,0,16
1,82,100,4
1,82,0,17
1,82,103,4
1,82,0,16
1,82,107,2
1,82,0,26
1,94,102,7
1,94,0,25
1,82,100,4
1,82,0,59
1,63,110,1
1,67,107,0
1,63,0,54
1,67,0,4
1,70,101,3
1,70,0,55
1,75,106,3
1,65,107,119
1,75,0,2
1,70,107,0
1,74,111,1
1,65,0,51
1,74,0,5
1,70,0,0
1,70,96,2
1,77,96,1
1,74,96,1
1,74,0,54
1,77,0,0
1,70,0,0
1,77,101,2
1,74,105,0
1,82,104,2
1,74,0,119
1,82,0,1
1,77,0,0
1,91,109,1
1,87,112,1
1,91,0,6
1,87,0,1
1,92,97,2
1,91,101,8
1,87,101,1
1,92,0,4
1,87,0,4
1,86,98,2
1,89,100,0
1,91,0,2
1,86,0,56
1,89,0,1
1,87,101,1
1,84,97,1
1,87,0,25
1,86,102,4
1,84,0,1
1,82,107,1
1,86,0,52
1,84,99,4
1,81,101,1
1,82,0,2
1,84,0,56
1,81,0,2
1,84,106,2
1,80,104,1
1,80,0,7
1,86,101,3
1,84,0,2
1,80,97,5
1,86,0,1
1,84,96,0
1,82,99,8
1,80,0,2
1,84,0,1
1,79,97,1
1,80,97,56
1,77,102,1
1,82,0,2
1,79,0,4
1,80,0,21
1,77,0,0
1,75,100,4
1,79,107,2
1,79,0,54
1,75,0,4
1,77,99,1
1,70,103,0
1,77,0,56
1,70,0,2
1,63,109,0
1,67,111,3
1,63,0,54
1,70,96,4
1,67,0,2
1,70,0,55
1,75,103,3
1,75,0,120
1,68,108,0
1,74,109,0
1,68,0,56
1,74,0,2
1,70,100,0
1,77,96,4
1,70,0,50
1,74,101,8
1,77,0,2
1,82,100,0
1,74,0,115
1,79,112,1
1,86,110,3
1,82,0,3
1,86,0,10
1,84,98,0
1,84,0,13
1,79,0,0
1,82,99,3
1,82,0,57
1,79,102,2
1,79,0,25
1,74,105,6
1,74,0,57
1,70,100,3
1,75,99,0
1,67,99,1
1,75,0,57
1,70,0,0
1,67,0,3
1,74,106,1
1,68,108,0
1,77,111,0
1,74,0,55
1,82,104,3
1,77,0,1
1,68,0,0
1,82,0,17
1,82,99,2
1,82,0,19
1,82,102,1
1,82,0,17
1,82,107,5
1,82,0,24
1,94,98,3
1,94,0,28
1,82,99,4
1,82,0,59
1,67,105,0
1,63,104,2
1,63,0,56
1,67,0,1
1,70,98,0
1,70,0,59
1,75,105,3
1,75,0,118
1,68,115,1
1,76,108,2
1,68,0,54
1,76,0,2
1,75,107,0
1,80,109,0
1,71,109,1
1,71,0,54
1,80,0,3
1,75,0,0
1,80,112,2
1,83,115,0
1,75,111,3
1,83,0,114
1,80,0,1
1,72,114,3
1,84,113,1
1,75,0,4
1,72,0,21
1,84,0,3
1,85,111,0
1,73,107,1
1,85,0,57
1,86,105,2
1,74,112,0
1,73,0,1
1,74,0,27
1,86,0,0
1,79,112,4
1,91,114,2
1,91,0,56
1,79,0,1
1,89,109,0
1,77,106,1
1,89,0,56
1,77,0,2
1,87,116,0
1,75,117,1
1,75,0,117
1,87,0,0
1,99,123,2
1,91,125,1
1,87,122,1
1,94,124,2
1,87,0,116
1,99,0,0
1,94,0,1
1,91,0,2
1,94,120,0
1,92,98,14
1,94,0,6
1,92,0,6
1,94,120,3
1,94,0,12
1,92,116,4
1,94,116,15
1,92,0,2
1,92,116,14
1,94,0,1
1,94,122,13
1,92,0,4
1,94,0,8
1,92,117,1
1,92,0,13
1,93,122,5
1,93,0,26
1,94,122,1
1,94,0,30
1,98,119,1
1,98,0,13
1,96,115,0
1,96,0,10
1,94,115,6
1,94,0,24
1,103,122,9
1,103,0,27
1,98,120,3
1,101,121,26
1,98,0,1
1,101,0,14
1,99,116,0
1,99,0,13
1,94,118,6
1,91,124,27
1,94,0,3
1,91,0,26
1,87,116,2
1,87,0,30
1,89,114,2
1,90,113,29
1,89,0,1
1,90,0,24
1,91,127,3
1,89,98,15
1,91,0,7
1,89,0,5
1,91,116,6
1,91,0,12
1,89,112,2
1,89,0,15
1,91,116,1
1,89,119,15
1,91,0,1
1,91,119,11
1,89,0,3
1,91,0,10
1,89,120,3
1,89,0,12
1,90,124,5
1,91,122,26
1,90,0,1
1,91,0,24
1,94,118,8
1,94,0,14
1,92,114,2
1,91,116,12
1,92,0,2
1,91,0,22
1,99,124,8
1,99,0,27
1,95,113,2
1,95,0,24
1,98,116,7
1,98,0,25
1,96,120,6
1,96,0,24
1,91,123,3
1,91,0,26
1,87,117,7
1,87,0,29
1,84,119,0
1,84,0,24
1,79,116,5
1,79,0,25
1,99,121,3
1,99,0,12
1,101,115,3
1,101,0,13
1,99,123,2
1,99,0,27
1,98,121,5
1,98,0,28
1,96,121,1
1,96,0,28
1,96,127,5
1,98,125,12
1,96,0,6
1,98,0,6
1,96,122,6
1,94,123,26
1,96,0,5
1,94,0,25
1,93,123,1
1,93,0,24
1,94,122,7
1,94,0,24
1,103,124,8
1,103,0,24
1,98,127,2
1,98,0,24
1,99,122,9
1,99,0,26
1,96,122,1
1,96,0,26
1,93,124,7
1,93,0,24
1,90,121,5
1,90,0,26
1,87,124,2
1,87,0,25
1,84,117,5
1,84,0,18
1,86,119,0
1,86,0,12
1,84,124,2
1,84,0,28
1,82,118,2
1,82,0,30
1,81,117,0
1,81,0,27
1,80,117,3
1,82,117,13
1,80,0,2
1,82,0,15
1,80,125,1
1,79,118,30
1,80,0,1
1,79,0,25
1,77,122,3
1,77,0,29
1,75,122,0
1,75,0,29
1,79,117,0
1,79,0,27
1,82,119,4
1,82,0,24
1,87,116,5
1,87,0,24
1,91,123,7
1,91,0,28
1,92,119,2
1,92,0,29
1,93,119,0
1,93,0,30
1,96,117,1
1,96,0,28
1,94,122,1
1,92,101,15
1,94,0,2
1,92,0,10
1,94,122,3
1,92,120,16
1,94,0,1
1,92,0,14
1,94,116,0
1,92,119,15
1,94,0,2
1,92,0,12
1,94,118,4
1,92,117,13
1,94,0,4
1,93,118,9
1,92,0,2
1,93,0,22
1,94,116,7
1,94,0,28
1,98,118,5
1,98,0,10
1,96,115,1
1,96,0,14
1,94,116,4
1,94,0,30
1,103,127,1
1,103,0,26
1,98,114,2
1,98,0,30
1,101,117,2
1,101,0,10
1,99,115,5
1,99,0,11
1,94,119,2
1,94,0,27
1,91,119,3
1,91,0,27
1,87,122,2
1,87,0,26
1,89,122,4
1,89,0,25
1,90,119,4
1,90,0,27
1,91,123,6
1,91,0,12
1,89,116,1
1,89,0,12
1,91,122,3
1,89,122,17
1,91,0,1
1,89,0,12
1,91,118,1
1,91,0,13
1,89,114,3
1,91,121,13
1,89,0,5
1,91,0,10
1,89,114,1
1,90,126,15
1,89,0,3
1,90,0,21
1,91,122,7
1,91,0,25
1,94,116,3
1,94,0,11
1,92,119,3
1,92,0,13
1,91,119,5
1,91,0,29
1,99,124,1
1,99,0,27
1,95,115,2
1,95,0,29
1,98,116,1
1,98,0,24
1,96,114,7
1,96,0,26
1,91,123,4
1,91,0,24
1,87,116,4
1,87,0,24
1,84,116,5
1,84,0,27
1,79,114,3
1,79,0,28
1,99,123,2
1,99,0,15
1,101,116,0
1,101,0,14
1,99,116,5
1,99,0,27
1,98,119,1
1,98,0,28
1,96,119,4
1,96,0,25
1,96,124,4
1,98,119,15
1,96,0,1
1,98,0,14
1,96,114,1
1,96,0,28
1,94,119,1
1,94,0,27
1,93,118,4
1,94,127,26
1,93,0,2
1,94,0,22
1,103,118,8
1,103,0,29
1,98,115,2
1,98,0,25
1,99,118,3
1,99,0,30
1,96,117,0
1,96,0,25
1,93,114,5
1,93,0,28
1,90,120,2
1,90,0,29
1,87,111,2
1,87,0,29
1,84,123,0
1,86,114,14
1,84,0,2
1,86,0,14
1,84,118,3
1,82,118,27
1,84,0,1
1,82,0,26
1,81,115,2
1,81,0,25
1,80,123,5
1,80,0,15
1,82,119,3
1,80,112,12
1,82,0,1
1,80,0,24
1,79,114,8
1,79,0,24
1,77,118,4
1,77,0,27
1,75,125,4
1,74,120,119
1,70,122,0
1,75,0,2
1,82,117,1
1,74,0,116
1,79,107,1
1,70,0,3
1,82,0,1
1,79,0,8
1,67,101,2
1,75,99,2
1,67,0,41
1,75,0,2
1,82,104,1
1,82,0,11
1,70,99,7
1,70,0,40
1,87,102,5
1,87,0,10
1,75,102,3
1,86,104,103
1,75,0,5
1,86,0,6
1,80,99,4
1,74,104,3
1,80,0,39
1,74,0,3
1,89,103,1
1,89,0,15
1,77,103,1
1,77,0,43
1,94,102,4
1,82,99,11
1,94,0,4
1,82,0,98
1,96,106,3
1,91,112,2
1,96,0,4
1,98,99,4
1,91,0,2
1,98,0,2
1,91,101,10
1,96,96,0
1,96,0,4
1,91,0,4
1,94,98,1
1,91,101,58
1,94,0,2
1,91,0,26
1,86,104,1
1,86,0,60
1,99,103,4
1,99,0,11
1,87,96,4
1,87,0,42
1,101,109,1
1,101,0,14
1,89,101,2
1,89,0,41
1,82,96,2
1,82,0,17
1,82,104,2
1,82,0,17
1,82,96,5
1,82,0,15
1,82,100,5
1,82,0,27
1,94,104,2
1,94,0,27
1,82,101,6
1,79,104,57
1,82,0,3
1,79,0,10
1,67,98,2
1,75,96,2
1,67,0,39
1,75,0,5
1,82,101,2
1,82,0,9
1,70,101,5
1,70,0,39
1,87,103,5
1,87,0,9
1,75,96,7
1,75,0,104
1,86,112,0
1,74,97,13
1,86,0,1
1,82,99,1
1,74,0,38
1,82,0,7
1,89,102,0
1,89,0,10
1,77,99,5
1,77,0,40
1,94,108,5
1,94,0,12
1,82,96,1
1,82,0,103
1,103,108,3
1,99,108,1
1,99,0,4
1,103,0,0
1,105,99,6
1,105,0,4
1,103,98,7
1,99,97,1
1,103,0,5
1,99,0,2
1,101,99,0
1,98,97,1
1,98,0,57
1,101,0,1
1,96,96,0
1,99,101,3
1,96,0,24
1,99,0,6
1,94,108,0
1,98,103,0
1,93,102,57
1,94,0,1
1,98,0,1
1,96,100,0
1,93,0,55
1,96,0,2
1,96,106,4
1,92,112,0
1,92,0,5
1,98,102,2
1,96,0,1
1,98,0,8
1,92,97,2
1,96,103,3
1,96,0,5
1,94,97,1
1,92,0,1
1,91,101,2
1,94,0,53
1,92,96,4
1,91,0,2
1,89,101,2
1,92,0,20
1,89,0,7
1,87,102,1
1,91,104,1
1,87,0,59
1,82,100,0
1,91,0,1
1,89,97,0
1,82,0,54
1,89,0,4
1,79,108,1
1,79,0,10
