track,note,velocity,time
0,43,95,195
0,50,99,240
0,55,94,240
0,59,87,240
0,67,94,0
0,55,101,0
0,62,99,0
0,62,105,426
0,62,105,15
0,62,105,15
0,43,127,0
0,43,127,0
0,55,127,0
0,59,127,0
0,59,104,0
0,62,105,5
0,62,114,0
0,67,114,5
0,43,103,0
0,43,103,0
0,50,72,4
0,50,72,4
0,43,102,224
0,43,102,4
0,50,79,4
0,44,100,4
0,50,79,0
0,43,127,190
0,43,127,5
0,55,127,0
0,59,127,5
0,59,104,0
0,62,105,5
0,62,114,0
0,67,114,5
0,43,100,0
0,43,100,0
0,50,78,4
0,50,78,4
0,43,120,224
0,43,120,4
0,50,83,4
0,50,83,0
0,43,120,224
0,43,120,4
0,43,100,4
0,31,100,0
0,50,87,0
0,44,100,4
0,43,100,0
0,31,100,0
0,50,87,0
0,43,122,195
0,43,122,4
0,50,73,4
0,50,73,4
0,43,127,219
0,43,127,5
0,55,127,0
0,59,127,5
0,59,104,0
0,62,105,0
0,62,114,0
0,67,114,0
0,43,103,0
0,43,103,0
0,50,72,4
0,50,72,4
0,43,102,224
0,43,102,4
0,50,79,4
0,44,100,4
0,50,79,0
0,43,127,190
0,43,127,5
0,55,127,0
0,59,127,5
0,59,104,0
0,62,105,5
0,62,114,0
0,67,114,5
0,43,100,0
0,43,100,0
0,50,78,4
0,50,78,4
0,43,120,224
0,43,120,4
0,50,83,4
0,59,105,4
0,50,83,0
0,43,120,0
0,43,120,4
0,43,100,4
0,31,100,0
0,50,87,0
0,60,105,4
0,44,96,0
0,43,100,0
0,31,100,0
0,50,87,0
0,43,122,0
0,43,122,4
0,50,73,4
0,62,105,4
0,50,73,0
0,43,127,219
0,43,127,0
0,55,127,0
0,59,127,5
0,59,104,0
0,62,105,0
0,62,114,0
0,67,114,0
0,43,103,0
0,43,103,0
0,50,72,4
0,62,105,4
0,50,72,0
0,43,102,0
0,43,102,4
0,50,79,4
0,62,105,4
0,44,92,0
0,50,79,0
0,43,127,190
0,43,127,0
0,55,127,0
0,59,127,5
0,59,104,0
0,62,105,5
0,62,114,0
0,62,105,5
0,67,114,0
0,43,100,0
0,43,100,0
0,50,78,4
0,50,78,4
0,43,120,224
0,43,120,4
0,50,83,4
0,59,105,4
0,50,83,0
0,43,120,0
0,43,120,4
0,43,100,4
0,31,100,0
0,50,87,0
0,60,105,4
0,44,92,0
0,43,100,0
0,31,100,0
0,50,87,0
0,43,122,0
0,43,122,4
0,50,73,4
0,62,105,4
0,50,73,0
0,43,127,219
0,43,127,0
0,55,127,0
0,59,127,5
0,59,104,0
0,62,105,0
0,62,114,0
0,67,114,0
0,43,103,0
0,43,103,0
0,50,72,4
0,62,105,4
0,50,72,0
0,43,102,0
0,43,102,4
0,50,79,4
0,62,105,4
0,44,96,0
0,50,79,0
0,43,127,190
0,43,127,0
0,55,127,0
0,59,127,5
0,59,104,0
0,62,105,5
0,62,114,0
0,62,105,5
0,67,114,0
0,43,100,0
0,43,100,0
0,50,78,4
0,50,78,4
0,43,120,224
0,43,120,0
0,50,83,4
0,62,105,4
0,50,83,0
0,43,120,0
0,43,120,4
0,43,100,4
0,31,100,0
0,50,87,0
0,62,105,4
0,44,96,0
0,43,100,0
0,31,100,0
0,50,87,0
0,43,122,0
0,43,122,4
0,50,73,4
0,62,105,4
0,50,73,0
0,43,127,219
0,43,127,5
0,55,127,0
0,59,127,5
0,59,104,0
0,62,105,0
0,62,114,0
0,67,114,0
0,43,103,0
0,43,103,0
0,50,72,4
0,62,105,4
0,50,72,0
0,43,102,0
0,43,102,4
0,50,79,4
0,62,105,4
0,44,92,0
0,50,79,0
0,43,100,190
0,43,102,0
0,62,105,14
0,50,78,0
0,54,127,78
0,42,124,0
0,42,127,5
0,57,127,0
0,57,104,0
0,62,105,5
0,62,114,0
0,62,105,5
0,66,114,0
0,42,120,0
0,42,120,0
0,50,83,4
0,50,83,4
0,60,105,85
0,42,120,105
0,42,120,4
0,50,87,4
0,44,92,4
0,50,87,0
0,59,105,130
0,42,122,25
0,42,122,4
0,50,73,4
0,50,73,4
0,40,127,219
0,40,127,5
0,55,127,0
0,59,127,5
0,59,104,0
0,64,105,5
0,64,114,0
0,57,105,5
0,67,114,0
0,40,103,0
0,40,103,0
0,47,72,4
0,55,105,4
0,47,72,0
0,40,102,224
0,40,102,4
0,47,79,4
0,44,100,4
0,47,79,0
0,40,127,158
0,40,127,5
0,55,127,0
0,59,127,5
0,59,104,0
0,64,105,5
0,64,114,0
0,67,114,5
0,40,100,0
0,40,100,0
0,47,78,4
0,47,78,4
0,40,120,224
0,40,120,4
0,47,83,4
0,47,83,4
0,40,120,224
0,40,120,4
0,40,100,4
0,28,100,0
0,47,87,0
0,44,92,4
0,40,100,0
0,28,100,0
0,47,87,0
0,40,122,195
0,40,122,4
0,47,73,4
0,47,73,4
0,40,127,219
0,40,127,5
0,55,127,0
0,59,127,5
0,59,104,0
0,64,105,0
0,64,114,0
0,67,114,0
0,40,103,0
0,40,103,0
0,47,72,4
0,47,72,4
0,43,102,224
0,40,102,4
0,47,79,4
0,44,92,4
0,47,79,0
0,43,127,190
0,40,127,5
0,55,127,0
0,59,127,5
0,59,104,0
0,64,105,5
0,64,114,0
0,67,114,5
0,43,100,0
0,40,100,0
0,47,78,4
0,47,78,4
0,38,120,224
0,38,120,4
0,45,83,4
0,62,105,4
0,45,83,0
0,38,120,38
0,38,120,4
0,38,100,4
0,26,100,0
0,45,87,0
0,62,105,4
0,44,92,0
0,38,100,0
0,26,100,0
0,45,87,0
0,38,122,60
0,38,122,4
0,45,73,4
0,62,105,4
0,45,73,0
0,43,127,219
0,43,127,1
0,55,127,0
0,59,127,5
0,59,104,0
0,62,105,0
0,62,114,0
0,67,114,0
0,43,103,0
0,43,103,0
0,50,72,4
0,50,72,4
0,43,102,224
0,43,102,4
0,50,79,4
0,44,92,4
0,50,79,0
0,43,127,190
0,43,127,5
0,55,127,0
0,59,127,5
0,59,104,0
0,62,105,5
0,62,114,0
0,67,114,5
0,43,100,0
0,43,100,0
0,50,78,4
0,50,78,4
0,43,120,224
0,43,120,4
0,50,83,4
0,59,105,4
0,50,83,0
0,43,120,12
0,43,120,4
0,43,100,4
0,31,100,0
0,50,87,0
0,60,105,4
0,44,96,0
0,43,100,0
0,31,100,0
0,50,87,0
0,43,122,0
0,43,122,4
0,50,73,4
0,62,105,4
0,50,73,0
0,43,127,219
0,43,127,5
0,55,127,0
0,59,127,5
0,59,104,0
0,62,105,0
0,62,114,0
0,67,114,0
0,43,103,0
0,43,103,0
0,50,72,4
0,62,105,4
0,50,72,0
0,43,102,224
0,43,102,4
0,50,79,0
0,67,105,4
0,44,92,0
0,50,79,0
0,43,127,190
0,43,127,0
0,55,127,0
0,59,127,5
0,59,104,0
0,62,105,5
0,62,114,0
0,62,105,5
0,67,114,0
0,43,100,0
0,43,100,0
0,50,78,4
0,50,78,4
0,43,120,224
0,43,120,4
0,54,83,4
0,59,105,4
0,50,83,0
0,43,120,0
0,43,120,4
0,43,100,4
0,31,100,0
0,54,87,0
0,60,105,4
0,44,92,0
0,43,100,0
0,31,100,0
0,50,87,0
0,43,122,0
0,43,122,4
0,54,73,4
0,62,105,4
0,50,73,0
0,47,127,219
0,47,127,5
0,54,127,0
0,59,127,5
0,59,104,0
0,62,105,0
0,62,114,0
0,66,114,0
0,47,103,0
0,47,103,0
0,54,72,4
0,62,105,4
0,54,72,0
0,47,102,89
0,47,102,4
0,54,79,4
0,62,105,4
0,44,92,0
0,54,79,0
0,47,127,77
0,47,127,5
0,54,127,0
0,59,127,5
0,59,104,0
0,62,105,5
0,62,114,0
0,62,105,5
0,66,114,0
0,47,100,0
0,47,100,0
0,54,78,4
0,54,78,4
0,47,120,120
0,47,120,4
0,54,83,4
0,62,105,4
0,54,83,0
0,47,120,53
0,47,120,4
0,47,100,4
0,35,100,0
0,54,87,0
0,62,105,4
0,44,92,0
0,47,100,0
0,35,100,0
0,54,87,0
0,47,122,124
0,47,122,4
0,54,73,4
0,62,105,4
0,54,73,0
0,47,127,33
0,47,127,5
0,54,127,0
0,59,127,5
0,59,104,0
0,62,105,0
0,62,114,0
0,66,114,0
0,47,103,0
0,47,103,0
0,54,72,4
0,62,105,4
0,54,72,0
0,47,102,36
0,47,102,4
0,54,79,4
0,62,105,4
0,44,96,0
0,54,79,0
0,47,127,81
0,47,127,5
0,54,127,0
0,59,127,5
0,59,104,0
0,62,105,5
0,62,114,0
0,62,105,5
0,66,114,0
0,47,100,0
0,47,100,0
0,54,78,4
0,54,78,4
0,47,120,224
0,47,120,4
0,54,83,4
0,60,105,4
0,54,83,0
0,47,120,193
0,43,120,4
0,47,100,0
0,35,100,0
0,54,87,0
0,59,105,4
0,44,92,0
0,47,100,0
0,35,100,0
0,54,87,0
0,47,122,195
0,43,122,4
0,54,73,0
0,57,105,4
0,54,73,0
0,40,127,219
0,40,127,5
0,55,127,0
0,59,127,5
0,59,104,0
0,64,105,0
0,64,114,0
0,55,105,5
0,67,114,0
0,40,103,0
0,40,103,0
0,47,72,4
0,47,72,4
0,40,102,215
0,40,102,4
0,47,79,4
0,44,96,4
0,47,79,0
0,40,127,190
0,40,127,5
0,55,127,0
0,59,127,5
0,59,104,0
0,64,105,5
0,64,114,0
0,67,114,5
0,40,100,0
0,40,100,0
0,47,78,4
0,47,78,4
0,40,120,224
0,40,120,4
0,47,83,4
0,47,83,4
0,40,120,224
0,40,120,4
0,40,100,4
0,28,100,0
0,47,87,0
0,44,92,4
0,40,100,0
0,28,100,0
0,47,87,0
0,40,122,195
0,40,122,4
0,47,73,4
0,47,73,4
0,40,127,219
0,40,127,5
0,55,127,0
0,59,127,5
0,59,104,0
0,64,105,0
0,64,114,0
0,67,114,0
0,40,103,0
0,40,103,0
0,47,72,4
0,62,105,4
0,47,72,0
0,43,102,224
0,40,102,4
0,47,79,4
0,44,96,4
0,47,79,0
0,43,127,97
0,40,127,5
0,55,127,0
0,59,127,5
0,59,104,0
0,64,105,5
0,64,114,0
0,62,105,5
0,67,114,0
0,43,100,0
0,40,100,0
0,47,78,4
0,47,78,4
0,38,120,224
0,38,120,4
0,45,83,4
0,60,105,0
0,45,83,0
0,38,120,224
0,38,120,4
0,38,100,4
0,26,100,0
0,45,87,0
0,44,92,4
0,38,100,0
0,26,100,0
0,45,87,0
0,38,122,195
0,38,122,4
0,45,73,4
0,59,105,0
0,45,73,0
0,48,127,219
0,48,127,5
0,55,127,0
0,60,127,5
0,60,104,0
0,62,105,0
0,62,114,0
0,57,105,5
0,67,114,0
0,48,103,0
0,48,103,0
0,52,72,4
0,55,105,4
0,52,72,0
0,48,102,224
0,48,102,4
0,52,79,2
0,44,92,4
0,52,79,0
0,48,127,190
0,48,127,5
0,55,127,0
0,60,127,5
0,60,104,0
0,62,105,5
0,62,114,0
0,67,114,5
0,48,100,0
0,48,100,0
0,52,78,4
0,52,78,4
0,48,120,224
0,48,120,4
0,52,83,4
0,52,83,4
0,48,120,224
0,48,120,4
0,24,95,4
0,36,95,0
0,52,87,0
0,59,105,4
0,44,100,0
0,24,95,0
0,36,95,0
0,52,87,0
0,48,127,190
0,48,127,0
0,55,120,0
0,48,122,0
0,62,120,5
0,60,105,0
0,64,105,5
0,62,114,0
0,52,73,0
0,57,105,4
0,67,115,0
0,67,127,43
0,62,127,0
0,60,120,5
0,62,120,5
0,55,105,0
0,60,105,5
0,48,114,0
0,48,115,5
0,50,127,2
0,50,127,5
0,54,120,0
0,57,120,5
0,57,104,0
0,62,105,0
0,62,114,0
0,26,107,5
0,49,80,0
0,35,127,0
0,66,115,0
0,78,97,0
0,81,97,0
0,67,105,5
0,48,78,5
0,59,70,0
0,52,70,0
0,58,70,0
0,51,70,0
0,57,70,0
0,50,70,0
0,56,70,0
0,49,70,0
0,67,105,4
0,55,70,0
0,48,70,0
0,54,70,0
0,47,70,0
0,53,70,0
0,46,70,0
0,52,70,0
0,45,70,0
0,51,70,0
0,44,70,0
0,50,70,0
0,43,70,0
0,49,70,0
0,42,70,0
0,48,70,0
0,41,70,0
0,67,105,0
0,47,70,0
0,40,70,0
0,43,127,5
0,43,127,5
0,55,127,0
0,59,127,5
0,59,104,0
0,62,105,5
0,62,114,0
0,31,107,0
0,43,90,0
0,57,82,0
0,35,127,0
0,67,114,0
0,43,88,0
0,43,103,0
0,43,103,0
0,50,72,4
0,64,105,0
0,43,69,0
0,50,72,0
0,43,67,0
0,43,102,86
0,43,102,4
0,50,79,4
0,43,88,4
0,65,91,0
0,42,100,0
0,40,127,0
0,50,79,0
0,43,85,0
0,43,127,158
0,43,127,5
0,55,127,0
0,59,127,5
0,59,104,0
0,62,105,5
0,62,114,0
0,31,107,5
0,43,107,0
0,35,127,0
0,67,114,0
0,43,92,0
0,43,100,0
0,43,100,0
0,50,78,4
0,43,76,0
0,42,92,0
0,50,78,0
0,43,73,0
0,43,120,155
0,43,120,4
0,50,83,4
0,43,78,4
0,50,83,0
0,43,76,0
0,43,120,159
0,43,120,4
0,50,87,4
0,43,110,4
0,43,100,0
0,31,100,0
0,65,84,0
0,42,100,0
0,40,127,0
0,43,100,0
0,31,100,0
0,50,87,0
0,43,92,0
0,43,122,152
0,43,122,4
0,50,73,4
0,43,74,4
0,50,73,0
0,43,74,0
0,43,127,169
0,43,127,5
0,55,127,0
0,59,127,5
0,59,104,0
0,62,105,5
0,62,114,0
0,31,107,5
0,43,104,0
0,42,92,0
0,35,127,0
0,67,114,0
0,43,86,0
0,43,103,0
0,43,103,0
0,50,72,4
0,43,90,0
0,50,72,0
0,43,71,0
0,43,102,179
0,43,102,4
0,50,79,4
0,43,86,4
0,65,86,0
0,42,92,0
0,40,127,0
0,50,79,0
0,43,82,0
0,43,127,161
0,43,127,5
0,55,127,0
0,59,127,5
0,59,104,0
0,62,105,5
0,62,114,0
0,31,107,5
0,43,110,0
0,35,127,0
0,67,114,0
0,43,90,0
0,43,100,0
0,43,100,0
0,50,78,4
0,43,90,0
0,42,86,0
0,50,78,0
0,43,78,0
0,43,120,166
0,43,120,4
0,54,83,4
0,59,105,4
0,43,86,0
0,50,83,0
0,43,80,0
0,43,120,0
0,43,120,4
0,54,87,4
0,60,105,4
0,43,97,0
0,43,100,0
0,31,100,0
0,65,86,0
0,42,92,0
0,40,127,0
0,43,100,0
0,31,100,0
0,50,87,0
0,43,79,0
0,43,122,0
0,43,122,4
0,54,73,4
0,62,105,4
0,43,90,0
0,50,73,0
0,43,71,0
0,47,127,158
0,47,127,5
0,54,127,0
0,59,127,5
0,59,104,0
0,62,105,2
0,62,114,0
0,35,107,5
0,47,97,0
0,42,96,0
0,35,127,0
0,66,114,0
0,93,81,0
0,90,81,0
0,47,88,0
0,47,103,0
0,47,103,0
0,54,72,4
0,62,105,0
0,47,80,0
0,54,72,0
0,47,76,0
0,47,102,104
0,47,102,4
0,54,79,4
0,62,105,4
0,47,85,0
0,65,91,0
0,42,96,0
0,40,127,0
0,54,79,0
0,47,65,0
0,47,127,86
0,47,127,5
0,54,127,0
0,59,127,5
0,59,104,0
0,62,105,5
0,62,114,0
0,35,107,5
0,62,105,0
0,47,113,0
0,35,127,0
0,66,114,0
0,47,58,0
0,47,100,0
0,47,100,0
0,54,78,4
0,47,54,0
0,42,96,0
0,54,78,0
0,47,60,0
0,47,120,89
0,47,120,4
0,54,83,4
0,62,105,4
0,47,79,0
0,54,83,0
0,47,65,0
0,47,120,15
0,47,120,4
0,47,100,4
0,35,100,0
0,54,87,0
0,35,107,4
0,62,105,0
0,47,110,0
0,65,89,0
0,42,100,0
0,40,127,0
0,47,100,0
0,35,100,0
0,54,87,0
0,47,90,0
0,47,122,5
0,47,122,4
0,54,73,4
0,23,107,4
0,62,105,0
0,47,58,0
0,54,73,0
0,47,57,0
0,47,127,4
0,47,127,5
0,54,127,0
0,59,127,5
0,59,104,0
0,62,105,0
0,62,114,0
0,35,107,5
