track,note,velocity,time
5,28,110,9120
5,28,0,289
5,28,110,95
5,28,0,36
5,28,115,60
5,28,0,249
5,36,116,39
5,36,0,316
5,36,98,68
5,36,0,30
5,36,105,66
5,36,0,256
5,31,107,32
5,31,0,347
5,31,98,37
5,31,0,28
5,31,112,68
5,31,0,260
5,33,94,28
5,33,0,80
5,33,94,16
5,33,0,58
5,33,108,326
5,33,0,240
5,28,106,48
5,28,0,289
5,28,107,95
5,28,0,36
5,28,119,60
5,28,0,249
5,36,117,39
5,36,0,316
5,36,99,68
5,36,0,30
5,36,104,66
5,36,0,256
5,31,109,32
5,31,0,347
5,31,100,37
5,31,0,28
5,31,119,68
5,31,0,260
5,33,94,28
5,33,0,286
5,45,89,2
5,45,0,478
5,28,111,770
5,28,0,65
5,28,103,31
5,28,0,91
5,37,79,197
5,37,0,94
5,40,73,2
5,33,79,96
5,40,0,0
5,35,78,96
5,33,0,2
5,35,0,81
5,28,103,13
5,28,0,65
5,28,98,31
5,28,0,91
5,37,77,197
5,37,0,94
5,40,74,2
5,33,80,96
5,40,0,0
5,35,73,96
5,33,0,2
5,35,0,81
5,32,104,13
5,32,0,65
5,32,99,31
5,32,0,91
5,39,79,197
5,39,0,94
5,42,71,2
5,34,78,96
5,42,0,0
5,34,0,94
5,34,73,2
5,32,111,2
5,44,85,2
5,44,0,91
5,30,79,5
5,30,0,94
5,32,96,2
5,32,0,46
5,42,83,96
5,42,0,46
5,32,66,2
5,28,111,2
5,28,0,65
5,28,102,31
5,28,0,91
5,37,79,197
5,37,0,94
5,40,75,2
5,33,78,96
5,40,0,0
5,35,75,96
5,33,0,2
5,35,0,81
5,28,105,13
5,28,0,65
5,28,100,31
5,28,0,91
5,37,85,197
5,37,0,94
5,40,76,2
5,33,80,96
5,40,0,0
5,35,79,96
5,33,0,2
5,35,0,81
5,32,111,13
5,32,0,65
5,32,95,31
5,32,0,91
5,39,82,197
5,39,0,94
5,42,73,2
5,34,74,96
5,42,0,0
5,34,0,94
5,34,71,2
5,32,103,0
5,32,0,65
5,32,94,31
5,32,0,91
5,39,86,197
5,39,0,94
5,42,77,2
5,34,74,96
5,42,0,0
5,34,0,94
5,34,73,2
5,28,109,2
5,28,97,31
5,28,0,91
5,37,77,197
5,37,0,94
5,40,76,2
5,33,78,96
5,40,0,0
5,35,76,96
5,33,0,2
5,35,0,81
5,28,109,13
5,28,0,65
5,28,100,31
5,28,0,91
5,37,77,197
5,37,0,94
5,40,71,2
5,33,75,96
5,40,0,0
5,35,71,96
5,33,0,2
5,35,0,81
5,32,107,13
5,32,0,65
5,32,103,31
5,32,0,91
5,39,85,197
5,39,0,94
5,42,80,2
5,34,74,96
5,42,0,0
5,34,0,94
5,34,79,2
5,32,109,0
5,32,0,65
5,32,99,31
5,32,0,91
5,39,80,197
5,39,0,94
5,42,74,2
5,34,77,96
5,42,0,0
5,34,0,94
5,34,79,2
5,28,109,2
5,28,101,31
5,28,0,91
5,37,84,197
5,37,0,94
5,40,77,2
5,33,73,96
5,40,0,0
5,35,75,96
5,33,0,2
5,35,0,81
5,28,106,13
5,28,0,65
5,28,99,31
5,28,0,91
5,37,79,197
5,37,0,94
5,40,73,2
5,33,78,96
5,40,0,0
5,35,70,96
5,33,0,2
5,35,0,81
5,33,96,13
5,33,0,334
5,40,75,50
5,40,0,94
5,42,64,2
5,40,77,96
5,42,0,2
5,42,72,94
5,40,0,12
5,42,0,69
5,33,77,15
5,33,0,94
5,33,92,2
5,33,0,94
5,45,82,2
5,45,0,46
5,45,78,146
5,40,73,2
5,40,0,29
5,33,78,19
5,33,0,94
5,45,75,2
5,45,71,2
5,45,0,94
5,45,78,2
5,45,0,94
5,45,75,2
5,45,0,94
5,28,106,2
5,28,0,289
5,28,104,95
5,28,0,36
5,28,114,60
5,28,0,249
5,36,115,39
5,36,0,316
5,36,99,68
5,36,0,30
5,36,102,66
5,36,0,256
5,31,105,32
5,31,0,347
5,31,99,37
5,31,0,28
5,31,110,68
5,31,0,260
5,33,99,28
5,33,0,80
5,33,97,16
5,33,0,58
5,33,115,326
5,33,0,240
5,28,111,48
5,28,0,289
5,28,103,95
5,28,0,36
5,28,110,60
5,28,0,249
5,36,112,39
5,36,0,316
5,36,98,68
5,36,0,30
5,36,101,66
5,36,0,256
5,31,109,32
5,31,0,347
5,31,92,37
5,31,0,28
5,31,118,68
5,31,0,260
5,33,109,28
5,33,0,347
5,33,92,37
5,33,0,28
5,33,113,68
5,33,0,260
5,29,112,28
5,29,0,94
5,29,96,2
5,29,0,94
5,29,107,2
5,29,0,94
5,29,92,2
5,29,0,94
5,29,102,2
5,29,0,94
5,29,102,2
5,29,0,94
5,29,107,2
5,29,0,94
5,29,96,2
5,29,0,94
5,28,109,2
5,28,0,289
5,28,107,95
5,28,0,36
5,28,113,60
5,28,0,249
5,36,111,39
5,36,0,316
5,36,94,68
5,36,0,30
5,36,104,66
5,36,0,256
5,31,109,32
5,31,0,347
5,31,93,37
5,31,0,28
5,31,113,68
5,31,0,260
5,33,106,28
5,33,0,347
5,33,100,37
5,33,0,28
5,33,119,68
5,33,0,260
5,28,110,28
5,28,0,289
5,28,106,95
5,28,0,36
5,28,116,60
5,28,0,249
5,36,115,39
5,36,0,316
5,36,101,68
5,36,0,30
5,36,106,66
5,36,0,256
5,31,103,32
5,31,0,347
5,31,95,37
5,31,0,28
5,31,111,68
5,31,0,260
5,33,103,28
5,33,0,347
5,33,91,37
5,33,0,28
5,33,115,68
5,33,0,260
5,28,108,28
5,28,0,289
5,28,106,95
5,28,0,36
5,28,116,60
5,28,0,249
5,36,115,39
5,36,0,316
5,36,103,68
5,36,0,30
5,36,102,66
5,36,0,256
5,31,107,32
5,31,0,347
5,31,94,37
5,31,0,28
5,31,116,68
5,31,0,260
5,33,103,28
5,33,0,347
5,33,92,37
5,33,0,28
5,33,114,68
5,33,0,260
5,28,109,28
5,28,0,289
5,28,104,95
5,28,0,36
5,28,110,60
5,28,0,249
5,36,108,39
5,36,0,316
5,36,99,68
5,36,0,30
5,36,104,66
5,36,0,256
5,31,106,32
5,31,0,347
5,31,94,37
5,31,0,28
5,31,112,68
5,31,0,260
5,33,103,28
5,33,0,347
5,33,92,37
5,33,0,28
5,33,113,68
5,33,0,260
5,28,115,28
5,28,0,289
5,28,108,95
5,28,0,36
5,28,113,60
5,28,0,249
5,36,109,39
5,36,0,316
5,36,98,68
5,36,0,30
5,36,106,66
5,36,0,256
5,31,109,32
5,31,0,347
5,31,91,37
5,31,0,28
5,31,113,68
5,31,0,260
5,33,103,28
5,33,0,286
5,45,91,2
5,45,0,1246
5,28,110,770
5,28,0,65
5,28,100,31
5,28,0,91
5,37,80,197
5,37,0,94
5,40,76,2
5,33,80,96
5,40,0,0
5,35,77,96
5,33,0,2
5,35,0,81
5,28,105,13
5,28,0,65
5,28,102,31
5,28,0,91
5,37,85,197
5,37,0,94
5,40,76,2
5,33,74,96
5,40,0,0
5,35,72,96
5,33,0,2
5,35,0,81
5,32,105,13
5,32,0,65
5,32,100,31
5,32,0,91
5,39,79,197
5,39,0,94
5,42,80,2
5,34,73,96
5,42,0,0
5,34,0,94
5,34,79,2
5,32,104,0
5,32,0,65
5,32,99,31
5,32,0,91
5,39,81,197
5,39,0,94
5,42,80,2
5,34,81,96
5,42,0,0
5,34,0,94
5,34,75,2
5,28,105,2
5,28,100,31
5,28,0,91
5,37,77,197
5,37,0,94
5,40,74,2
5,33,82,96
5,40,0,0
5,35,73,96
5,33,0,2
5,35,0,81
5,28,110,13
5,28,0,65
5,28,98,31
5,28,0,91
5,37,78,197
5,37,0,94
5,40,73,2
5,33,78,96
5,40,0,0
5,35,73,96
5,33,0,2
5,35,0,81
5,32,107,13
5,32,0,65
5,32,100,31
5,32,0,91
5,39,83,197
5,39,0,94
5,42,75,2
5,34,78,96
5,42,0,0
5,34,0,94
5,34,76,2
5,32,107,0
5,32,0,65
5,32,96,31
5,32,0,91
5,39,85,197
5,39,0,94
5,42,76,2
5,34,75,96
5,42,0,0
5,34,0,94
5,34,71,2
5,28,104,2
5,28,99,31
5,28,0,91
5,37,82,197
5,37,0,94
5,40,79,2
5,33,81,96
5,40,0,0
5,35,78,96
5,33,0,2
5,35,0,81
5,28,107,13
5,28,0,65
5,28,99,31
5,28,0,91
5,37,84,197
5,37,0,94
5,40,77,2
5,33,78,96
5,40,0,0
5,35,78,96
5,33,0,2
5,35,0,81
5,32,104,13
5,32,0,65
5,32,96,31
5,32,0,91
5,39,86,197
5,39,0,94
5,42,72,2
5,34,82,96
5,42,0,0
5,34,0,94
5,34,77,2
5,32,104,0
5,32,0,65
5,32,94,31
5,32,0,91
5,39,82,197
5,39,0,94
5,42,76,2
5,34,76,96
5,42,0,0
5,34,0,94
5,34,78,2
5,28,98,3072
5,28,0,49
6,28,45,524
6,40,39,0
6,47,38,0
6,28,0,78
6,40,0,1
6,47,0,4
6,28,41,109
6,40,44,0
6,47,44,0
6,40,0,55
6,47,0,17
6,28,0,1
6,42,34,23
6,49,47,0
6,42,0,58
6,49,0,5
6,28,46,33
6,40,36,0
6,47,43,0
6,47,0,78
6,40,0,3
6,28,0,3
6,28,38,108
6,40,49,0
6,47,33,0
6,47,0,70
6,28,0,3
6,40,0,2
6,28,42,117
6,40,43,0
6,47,42,0
6,28,0,78
6,40,0,1
6,47,0,4
6,28,37,109
6,40,42,0
6,47,45,0
6,40,0,55
6,47,0,17
6,28,0,1
6,42,31,23
6,49,45,0
6,42,0,58
6,49,0,5
6,28,44,33
6,40,34,0
6,47,34,0
6,47,0,78
6,40,0,3
6,28,0,3
6,28,33,108
6,40,49,0
6,47,29,0
6,47,0,70
6,28,0,3
6,40,0,2
6,28,29,117
6,40,32,0
6,47,27,0
6,28,0,91
6,40,0,2
6,47,0,8
6,28,34,91
6,40,47,0
6,47,41,0
6,40,0,55
6,28,0,3
6,47,0,8
6,42,46,30
6,49,42,0
6,42,0,53
6,49,0,4
6,28,22,39
6,40,24,0
6,47,24,0
6,28,0,66
6,47,0,2
6,40,0,314
7,64,82,2061
7,64,0,55
7,66,52,1
7,66,0,29
7,66,57,14
7,66,0,34
7,68,68,1
7,68,0,19
7,68,73,16
7,68,0,64
7,69,63,3
7,69,0,33
7,69,62,20
7,69,0,36
7,71,53,5
7,71,0,20
7,71,74,20
7,71,0,54
7,73,54,4
7,73,0,27
7,73,72,16
7,73,0,39
7,75,75,6
7,75,0,16
7,75,64,20
7,76,73,67
7,75,0,9
7,76,0,14
7,76,70,29
7,76,0,42
7,73,58,6
7,76,77,48
7,73,0,2
7,75,65,94
7,76,0,5
7,75,0,364
7,64,71,301
7,66,50,60
7,64,0,1
7,66,0,29
7,66,54,9
7,66,0,38
7,68,74,1
7,68,0,25
7,68,65,14
7,68,0,46
7,69,56,21
7,69,0,40
7,69,56,15
7,69,0,27
7,71,57,5
7,71,0,31
7,71,70,13
7,71,0,48
7,73,63,4
7,73,0,72
7,75,64,11
7,75,0,15
7,75,55,17
7,76,60,75
7,75,0,5
7,76,0,21
7,76,72,16
7,76,0,39
7,73,60,8
7,73,0,131
7,76,69,11
7,76,0,89
7,75,52,12
7,75,0,107
7,80,71,245
7,80,0,66
7,78,66,20
7,78,0,55
7,78,70,17
7,76,67,33
7,78,0,3
7,76,0,19
7,76,80,16
7,76,0,52
7,71,69,7
7,71,0,58
7,68,76,19
7,68,0,19
7,68,68,12
7,68,0,16
7,68,70,15
7,68,0,46
7,69,66,1
7,69,0,41
7,69,67,17
7,69,0,32
7,71,79,8
7,71,0,26
7,71,73,13
7,71,0,52
7,73,63,1
7,73,0,54
7,73,66,12
7,73,0,33
7,75,65,4
7,75,0,20
7,75,55,18
7,76,65,53
7,75,0,10
7,76,0,17
7,76,76,17
7,76,0,42
7,73,74,5
7,73,0,90
7,76,76,15
7,76,0,111
7,75,66,5
7,75,0,188
7,80,70,79
7,80,0,24
7,80,67,24
7,80,0,29
7,80,70,19
7,80,0,38
7,80,70,10
7,78,54,48
7,80,0,13
7,78,0,36
7,78,53,12
7,76,65,37
7,78,0,4
7,76,0,17
7,76,66,21
7,76,0,54
7,73,49,7
7,73,0,39
7,71,71,1
7,71,0,67
7,68,61,75
7,68,0,24
7,68,67,16
7,68,0,43
7,69,68,1
7,69,0,30
7,69,70,15
7,71,68,50
7,69,0,2
7,71,0,31
7,71,58,15
7,73,69,38
7,71,0,5
7,73,0,22
7,73,65,18
7,73,0,56
7,75,62,5
7,75,0,42
7,76,75,5
7,78,61,41
7,76,0,2
7,78,0,36
7,79,69,8
7,79,0,82
7,73,64,14
7,73,0,142
7,73,46,312
7,73,0,29
7,79,78,15
7,79,0,59
7,78,53,6
7,78,0,35
7,78,48,15
7,78,0,39
7,76,71,4
7,76,0,21
7,76,76,20
7,76,0,61
7,72,65,10
7,72,0,287
7,71,59,1
7,71,0,382
7,88,78,410
7,88,0,125
7,83,84,67
7,83,0,134
7,76,80,58
7,76,0,92
7,79,74,4
7,79,0,56
7,76,77,40
7,76,0,92
7,79,75,4
7,79,0,39
7,83,74,57
7,83,0,167
7,79,79,25
7,79,0,90
7,76,70,102
7,76,0,95
7,79,69,1
7,79,0,43
7,76,69,53
7,76,0,95
7,79,69,1
7,79,0,55
7,83,82,41
7,83,0,177
7,74,70,15
7,74,0,137
7,83,72,55
7,81,77,96
7,83,0,3
7,81,0,51
7,81,79,42
7,79,63,96
7,81,0,2
7,79,0,86
7,81,79,8
7,81,0,77
7,81,75,19
7,81,0,57
7,81,81,135
7,81,0,43
7,79,75,5
7,79,0,34
7,81,71,14
7,81,0,40
7,79,70,8
7,79,0,40
7,81,72,8
7,81,0,72
7,81,75,24
7,81,0,76
7,81,76,20
7,81,0,66
7,88,75,30
7,88,0,139
7,83,82,53
7,83,0,145
7,76,90,47
7,76,0,79
7,79,82,17
7,79,0,35
7,76,72,61
7,76,0,84
7,79,73,12
7,79,0,42
7,83,81,54
7,83,0,184
7,79,74,8
7,79,0,120
7,76,74,72
7,76,0,79
7,79,72,17
7,79,0,31
7,76,67,65
7,79,69,96
7,76,0,5
7,79,0,37
7,83,67,54
7,83,0,187
7,74,62,5
7,74,0,142
7,74,74,50
7,74,0,67
7,76,76,29
7,76,0,79
7,79,75,17
7,79,0,61
7,83,73,35
7,83,0,282
7,79,74,6
7,81,74,192
7,79,0,7
7,81,0,56
7,81,74,129
7,81,0,50
7,81,38,142
7,81,0,43
7,76,66,53
7,76,0,31
7,81,80,65
7,81,0,86
7,76,63,10
7,76,0,27
7,81,76,69
7,81,0,91
7,76,74,5
7,76,0,28
7,81,81,68
7,81,0,88
7,80,89,8
7,80,0,77
7,64,72,883
7,64,0,48
7,69,71,48
7,69,0,70
7,64,69,26
7,64,0,28
7,69,79,20
7,69,0,70
7,64,65,74
7,64,0,39
7,64,66,9
7,64,0,41
7,69,83,7
7,69,0,31
7,64,64,17
7,64,0,24
7,68,78,24
7,68,0,68
7,64,78,1564
7,64,0,87
7,66,73,9
7,66,0,54
7,66,66,42
7,68,66,96
7,66,0,17
7,68,0,11
7,68,73,20
7,68,0,95
7,69,67,1
7,69,0,100
7,69,66,44
7,69,0,84
7,71,65,12
7,71,0,47
7,71,61,1
7,71,0,1
7,73,74,95
7,73,0,164
7,73,53,76
7,73,0,33
7,73,66,15
7,73,0,34
7,75,67,14
7,76,51,96
7,75,0,15
7,76,0,76
7,73,62,5
7,73,0,112
7,80,71,32
7,80,0,129
7,78,57,15
7,75,61,48
7,78,0,7
7,75,0,64
7,72,67,25
7,72,0,92
7,80,78,676
7,80,0,59
7,80,61,37
7,80,0,41
7,80,80,7
7,80,0,71
7,78,79,25
7,78,0,37
7,78,72,11
7,76,84,96
7,78,0,0
7,76,0,41
7,76,84,7
7,76,0,115
7,68,76,125
7,68,0,35
7,68,80,13
7,68,0,71
7,69,77,25
7,69,0,39
7,69,65,9
7,69,0,80
7,71,75,112
7,71,0,35
7,71,75,13
