track,note,velocity,time
0,70,62,120
0,71,53,0
0,61,50,0
0,61,0,75
0,61,50,45
0,61,0,75
0,61,50,45
0,61,0,75
0,61,47,45
0,61,0,10
0,62,75,8
0,62,0,18
0,61,53,8
0,61,0,4
0,61,44,33
0,61,0,75
0,61,32,45
0,61,0,55
0,61,51,3
0,61,0,14
0,74,77,0
0,77,85,7
0,71,67,2
0,62,87,10
0,62,0,38
0,61,44,165
0,61,0,10
0,61,41,8
0,61,0,3
0,61,44,15
0,61,0,10
0,61,50,2
0,61,0,4
0,70,62,0
0,71,53,0
0,61,50,0
0,61,0,75
0,61,50,0
0,61,0,75
0,61,50,0
0,61,0,75
0,61,47,0
0,61,0,10
0,62,75,0
0,62,0,3
0,61,53,8
0,61,0,19
0,61,44,18
0,61,0,75
0,61,32,45
0,61,0,55
0,61,51,3
0,61,0,14
0,74,77,15
0,77,85,7
0,71,67,2
0,62,87,10
0,62,0,38
0,40,79,165
0,61,44,0
0,28,79,0
0,28,0,10
0,40,0,0
0,61,0,0
0,61,41,8
0,61,0,3
0,61,44,15
0,61,0,10
0,61,50,2
0,61,0,4
0,71,53,33
0,70,62,0
0,61,50,0
0,35,114,0
0,42,89,0
0,42,0,75
0,35,0,0
0,61,0,0
0,61,50,45
0,61,0,75
0,61,50,45
0,46,89,0
0,35,87,0
0,35,0,75
0,61,0,0
0,46,0,0
0,61,47,45
0,61,0,10
0,40,79,8
0,42,89,0
0,28,79,0
0,62,75,0
0,62,0,3
0,42,0,0
0,40,0,0
0,28,0,0
0,42,89,8
0,61,53,0
0,61,0,4
0,42,0,0
0,61,44,18
0,35,114,15
0,61,0,60
0,35,0,15
0,42,89,30
0,42,0,55
0,74,77,0
0,77,85,7
0,71,67,2
0,42,89,18
0,35,114,0
0,62,95,0
0,62,0,38
0,42,0,0
0,35,0,0
0,28,79,165
0,42,89,0
0,40,79,0
0,40,0,10
0,28,0,0
0,42,0,0
0,61,33,8
0,61,0,3
0,61,44,15
0,42,89,0
0,35,114,0
0,35,0,10
0,61,0,0
0,42,0,0
0,61,50,2
0,61,0,4
0,70,62,33
0,71,53,0
0,61,50,0
0,42,89,0
0,35,114,0
0,35,0,75
0,42,0,0
0,61,0,0
0,61,50,45
0,61,0,75
0,46,89,45
0,61,50,0
0,35,87,0
0,35,0,75
0,46,0,0
0,61,0,0
0,61,47,45
0,61,0,10
0,62,75,8
0,40,79,0
0,42,89,0
0,28,79,0
0,28,0,18
0,40,0,0
0,62,0,0
0,42,0,0
0,42,89,8
0,61,53,0
0,61,0,4
0,42,0,0
0,61,44,33
0,35,114,15
0,61,0,60
0,35,0,15
0,42,89,30
0,42,0,55
0,35,100,3
0,35,0,29
0,74,77,0
0,77,85,7
0,71,67,2
0,48,103,10
0,62,95,0
0,42,89,0
0,35,114,0
0,48,0,9
0,42,0,29
0,62,0,0
0,35,0,0
0,34,97,45
0,28,79,120
0,40,79,0
0,42,89,0
0,42,0,10
0,28,0,0
0,40,0,0
0,61,33,7
0,61,0,2
0,61,44,15
0,42,89,0
0,35,114,0
0,35,0,10
0,61,0,0
0,42,0,0
0,61,50,2
0,61,0,4
0,28,108,15
0,71,53,0
0,70,62,0
0,61,50,0
0,42,89,0
0,35,114,0
0,35,0,75
0,42,0,0
0,61,0,0
0,61,50,45
0,61,0,75
0,28,0,3
0,40,86,42
0,46,89,0
0,61,50,0
0,35,87,0
0,35,0,75
0,61,0,0
0,46,0,0
0,40,0,21
0,28,100,24
0,61,47,0
0,61,0,10
0,28,0,16
0,38,88,23
0,28,79,0
0,42,89,0
0,62,75,0
0,40,79,0
0,40,0,3
0,42,0,0
0,28,0,0
0,62,0,0
0,40,85,15
0,38,0,4
0,40,0,28
0,28,100,8
0,61,53,0
0,42,89,0
0,42,0,19
0,61,0,0
0,28,0,9
0,40,91,18
0,61,44,0
0,35,114,15
0,61,0,60
0,35,0,15
0,42,89,30
0,40,0,40
0,42,0,15
0,33,103,3
0,33,0,5
0,35,88,10
0,42,89,0
0,62,95,0
0,35,114,0
0,35,0,23
0,42,0,15
0,62,0,0
0,35,0,0
0,35,86,45
0,35,0,75
0,42,89,45
0,28,79,0
0,40,79,0
0,40,0,75
0,28,0,0
0,42,0,0
0,34,91,45
0,61,33,0
0,34,0,41
0,61,0,34
0,33,97,45
0,61,44,0
0,35,114,0
0,42,89,0
0,33,0,53
0,61,0,22
0,35,0,0
0,42,0,0
0,31,97,45
0,61,50,0
0,31,0,46
0,61,0,29
0,28,108,45
0,70,62,0
0,71,53,0
0,61,50,0
0,42,89,0
0,35,114,0
0,35,0,75
0,42,0,0
0,61,0,0
0,61,50,45
0,61,0,75
0,28,0,3
0,40,86,42
0,61,50,0
0,35,87,0
0,46,89,0
0,46,0,75
0,61,0,0
0,35,0,0
0,40,0,21
0,28,100,24
0,61,47,0
0,61,0,10
0,28,0,16
0,38,88,8
0,62,75,0
0,28,79,0
0,42,89,0
0,40,79,0
0,40,0,3
0,28,0,0
0,62,0,0
0,42,0,0
0,40,79,15
0,38,0,4
0,42,89,8
0,61,53,0
0,40,0,12
0,42,0,4
0,61,0,0
0,40,84,18
0,61,44,0
0,35,114,15
0,61,0,60
0,35,0,15
0,42,89,30
0,40,0,40
0,42,0,15
0,33,103,18
0,33,0,5
0,35,88,27
0,62,95,0
0,42,89,0
0,35,114,0
0,35,0,23
0,62,0,15
0,42,0,0
0,35,0,0
0,35,86,45
0,35,0,75
0,28,79,45
0,40,79,0
0,42,89,0
0,42,0,75
0,40,0,0
0,28,0,0
0,34,91,45
0,61,33,0
0,34,0,65
0,61,0,10
0,31,97,45
0,61,44,0
0,42,89,0
0,35,114,0
0,35,0,75
0,61,0,0
0,42,0,0
0,31,0,13
0,61,50,32
0,61,0,75
0,28,108,45
0,71,53,0
0,70,62,0
0,61,50,0
0,35,114,0
0,42,89,0
0,42,0,75
0,35,0,0
0,61,0,0
0,61,50,0
0,61,0,75
0,28,0,3
0,40,86,42
0,35,87,0
0,61,50,0
0,46,89,0
0,46,0,75
0,35,0,0
0,61,0,0
0,40,0,21
0,28,100,24
0,61,47,0
0,61,0,10
0,28,0,22
0,38,88,8
0,62,75,0
0,40,79,0
0,42,89,0
0,28,79,0
0,28,0,18
0,40,0,0
0,62,0,0
0,42,0,0
0,40,85,15
0,38,0,19
0,40,0,11
0,28,100,8
0,61,53,0
0,42,89,0
0,42,0,4
0,61,0,0
0,28,0,9
0,40,91,24
0,61,44,0
0,35,114,15
0,61,0,60
0,35,0,15
0,42,89,30
0,40,0,40
0,42,0,15
0,33,103,3
0,33,0,22
0,35,88,10
0,35,114,0
0,42,89,0
0,62,95,0
0,35,0,23
0,35,0,15
0,42,0,0
0,62,0,0
0,35,86,45
0,35,0,75
0,42,89,45
0,40,79,0
0,28,79,0
0,28,0,75
0,40,0,0
0,42,0,0
0,34,91,45
0,61,33,0
0,34,0,41
0,61,0,34
0,33,97,45
0,35,114,0
0,61,44,0
0,42,89,0
0,33,0,53
0,35,0,22
0,61,0,0
0,42,0,0
0,31,97,45
0,61,50,0
0,31,0,46
0,61,0,29
0,28,108,45
0,28,79,0
0,35,114,0
0,42,89,0
0,40,79,0
0,40,0,75
0,35,0,0
0,42,0,0
0,28,0,0
0,28,0,45
0,28,108,120
0,28,79,0
0,42,89,0
0,40,79,0
0,35,87,0
0,35,0,75
0,42,0,0
0,28,0,0
0,40,0,0
0,28,0,45
0,28,108,120
0,42,89,0
0,28,79,0
0,35,114,0
0,40,79,0
0,40,0,75
0,35,0,0
0,42,0,0
0,28,0,0
0,28,0,31
0,28,106,14
0,42,89,15
0,28,79,0
0,40,79,0
0,35,114,0
0,35,0,75
0,28,0,0
0,40,0,0
0,42,0,0
0,28,0,30
0,28,85,120
0,42,89,15
0,28,79,0
0,40,79,0
0,35,114,0
0,35,0,75
0,28,0,0
0,40,0,0
0,42,0,0
0,40,79,8
0,28,79,0
0,55,110,0
0,55,0,3
0,28,0,0
0,40,0,0
0,28,108,153
0,66,82,0
0,71,53,0
0,70,62,0
0,35,114,0
0,61,45,0
0,42,89,0
0,42,0,75
0,35,0,0
0,61,0,0
0,66,0,32
0,67,82,13
0,61,45,0
0,61,0,75
0,28,0,3
0,67,0,23
0,40,86,19
0,61,45,0
0,35,87,0
0,46,89,0
0,46,0,75
0,61,0,0
0,35,0,0
0,40,0,21
0,28,100,24
0,66,82,0
0,61,42,0
0,61,0,10
0,28,0,16
0,38,88,8
0,42,89,0
0,40,79,0
0,62,70,0
0,28,79,0
0,66,0,3
0,28,0,3
0,40,0,0
0,42,0,0
0,62,0,0
0,40,85,15
0,64,82,0
0,38,0,4
0,40,0,11
0,64,0,3
0,28,100,5
0,61,48,0
0,42,89,0
0,42,0,4
0,61,0,0
0,28,0,21
0,40,91,18
0,67,82,0
0,61,39,0
0,35,114,15
0,61,0,60
0,35,0,15
0,42,89,30
0,67,0,28
0,40,0,12
0,42,0,15
0,33,103,18
0,67,82,0
0,33,0,5
0,67,0,10
0,35,88,27
0,62,90,0
0,35,114,0
0,42,89,0
0,35,0,23
0,62,0,15
0,35,0,0
0,42,0,0
0,35,86,45
0,35,0,75
0,42,89,45
0,28,79,0
0,40,79,0
0,40,0,75
0,28,0,0
0,42,0,0
0,34,91,45
0,61,28,0
0,34,0,41
0,61,0,34
0,33,97,45
0,59,82,0
0,61,39,0
0,42,89,0
0,35,114,0
0,33,0,53
0,59,0,0
0,42,0,22
0,61,0,0
0,35,0,0
0,31,97,45
0,59,82,0
0,61,45,0
0,31,0,46
0,61,0,29
0,59,0,17
0,28,108,28
0,67,82,0
0,70,62,0
0,71,53,0
0,61,45,0
0,42,89,0
0,35,114,0
0,67,0,71
0,42,0,4
0,61,0,0
0,35,0,0
0,67,82,45
0,61,45,0
0,61,0,75
0,28,0,3
0,40,86,42
0,35,87,0
0,46,89,0
0,61,45,0
0,67,0,40
0,46,0,35
0,35,0,0
0,61,0,0
0,40,0,21
0,28,100,24
0,66,82,0
0,61,42,0
0,61,0,10
0,28,0,22
0,66,0,10
0,38,88,8
0,28,79,0
0,62,70,0
0,40,79,0
0,42,89,0
0,42,0,18
0,62,0,0
0,28,0,0
0,40,0,0
0,40,79,15
0,64,82,0
0,38,0,19
0,64,0,13
0,42,89,8
0,61,48,0
0,40,0,28
0,42,0,4
0,61,0,0
0,40,84,33
0,64,82,0
0,61,39,0
0,35,114,15
0,61,0,60
0,35,0,15
0,42,89,30
0,64,0,10
0,40,0,30
0,42,0,15
0,33,103,3
0,64,82,0
0,64,0,10
0,33,0,12
0,35,88,10
0,42,89,0
0,62,90,0
0,35,114,0
0,35,0,23
0,42,0,15
0,62,0,0
0,35,0,0
0,35,86,45
0,35,0,75
0,28,79,45
0,40,79,0
0,42,89,0
0,42,0,75
0,40,0,0
0,28,0,0
0,34,91,45
0,61,28,0
0,34,0,65
0,61,0,10
0,31,97,45
0,42,89,0
0,35,114,0
0,61,39,0
0,61,0,75
0,35,0,0
0,42,0,0
0,31,0,13
0,59,82,32
0,61,45,0
0,61,0,75
0,59,0,12
0,28,108,33
0,66,82,0
0,71,53,0
0,70,62,0
0,42,89,0
0,61,45,0
0,35,114,0
0,35,0,75
0,42,0,0
0,61,0,0
0,66,0,35
0,67,82,10
0,61,45,0
0,61,0,75
0,28,0,3
0,40,86,42
0,46,89,0
0,61,45,0
0,35,87,0
0,67,0,1
0,61,0,74
0,46,0,0
0,35,0,0
0,40,0,21
0,28,100,24
0,66,82,0
0,61,42,0
0,61,0,10
0,28,0,16
0,38,88,23
0,42,89,0
0,28,79,0
0,40,79,0
0,62,70,0
0,66,0,3
0,62,0,3
0,28,0,0
0,42,0,0
0,40,0,0
0,40,85,15
0,67,82,0
0,38,0,4
0,40,0,28
0,28,100,8
0,67,0,0
0,61,48,0
0,42,89,0
0,42,0,19
0,61,0,0
0,28,0,9
0,40,91,18
0,66,82,0
0,61,39,0
0,35,114,15
0,61,0,60
0,35,0,15
0,42,89,30
0,66,0,2
0,40,0,40
0,42,0,15
0,33,103,3
0,67,82,0
0,33,0,5
0,35,88,10
0,42,89,0
0,62,90,0
0,35,114,0
0,67,0,2
0,35,0,23
0,42,0,15
0,62,0,0
0,35,0,0
0,35,86,45
0,66,82,0
0,35,0,75
0,42,89,45
0,28,79,0
0,40,79,0
0,66,0,8
0,42,0,67
0,28,0,0
0,40,0,0
0,34,91,45
0,67,82,0
0,61,28,0
0,34,0,41
0,61,0,34
0,33,97,45
0,67,0,0
0,42,89,0
0,35,114,0
0,61,39,0
0,33,0,53
0,42,0,22
0,35,0,0
0,61,0,0
0,31,97,45
0,66,82,0
0,61,45,0
0,31,0,46
0,61,0,29
0,28,108,45
0,71,53,0
0,70,62,0
0,35,114,0
0,61,45,0
0,42,89,0
0,66,0,58
0,61,0,17
0,35,0,0
0,42,0,0
0,64,82,45
0,61,45,0
0,61,0,75
0,28,0,3
0,40,86,42
0,61,45,0
0,46,89,0
0,35,87,0
0,64,0,2
0,46,0,73
0,61,0,0
0,35,0,0
0,40,0,21
0,28,100,24
0,61,42,0
0,61,0,10
0,28,0,16
0,38,88,8
0,42,89,0
0,28,79,0
0,40,79,0
0,62,70,0
0,62,0,3
0,28,0,0
0,42,0,0
0,40,0,0
0,40,79,15
0,38,0,4
0,42,89,8
0,61,48,0
0,40,0,12
0,42,0,4
0,61,0,0
0,40,84,18
0,62,82,0
0,61,39,0
0,35,114,15
0,62,0,51
0,61,0,9
0,35,0,15
0,62,82,30
0,42,89,0
0,40,0,40
0,42,0,15
0,62,0,6
0,33,103,18
0,62,82,0
0,33,0,5
0,62,0,4
0,35,88,23
0,62,90,0
0,42,89,0
0,35,114,0
0,35,0,23
0,62,0,15
0,42,0,0
0,35,0,0
0,35,86,45
0,62,82,0
0,35,0,75
0,62,0,37
0,28,79,8
0,40,79,0
0,42,89,0
0,42,0,75
0,40,0,0
0,28,0,0
0,34,91,45
0,62,82,0
0,61,28,0
0,34,0,65
0,61,0,10
0,62,0,35
0,31,97,10
0,42,89,0
0,35,114,0
0,61,39,0
0,61,0,75
0,35,0,0
0,42,0,0
0,31,0,13
0,62,82,32
0,61,45,0
0,61,0,75
0,28,108,45
0,71,53,0
0,70,62,0
0,35,114,0
0,42,89,0
0,61,45,0
0,62,0,33
0,42,0,42
0,35,0,0
0,61,0,0
0,64,82,45
0,61,45,0
0,61,0,75
0,28,0,3
0,64,0,17
0,40,86,25
0,35,87,0
0,46,89,0
0,61,45,0
0,61,0,75
0,35,0,0
0,46,0,0
0,40,0,21
0,28,100,24
0,61,42,0
0,61,0,10
0,28,0,22
0,38,88,8
0,62,70,0
0,40,79,0
0,42,89,0
0,28,79,0
0,28,0,18
0,40,0,0
0,62,0,0
0,42,0,0
0,40,85,15
0,38,0,19
0,40,0,11
0,28,100,8
0,42,89,0
0,61,48,0
0,61,0,4
0,42,0,0
0,28,0,9
0,40,91,24
0,62,82,0
0,61,39,0
0,35,114,15
0,62,0,52
0,61,0,8
0,35,0,15
0,62,82,30
0,42,89,0
0,40,0,40
0,42,0,15
0,62,0,2
0,33,103,3
0,62,82,0
0,33,0,22
0,35,88,10
0,35,114,0
0,62,90,0
0,42,89,0
0,62,0,2
0,35,0,23
0,35,0,15
0,62,0,0
0,42,0,0
0,35,86,45
0,62,82,0
0,35,0,75
0,62,0,32
0,28,79,13
0,40,79,0
0,42,89,0
0,42,0,75
0,40,0,0
0,28,0,0
0,34,91,45
0,62,82,0
0,61,28,0
0,34,0,41
0,61,0,34
0,62,0,25
0,33,97,20
0,35,114,0
0,61,39,0
0,42,89,0
0,33,0,53
0,35,0,22
0,61,0,0
0,42,0,0
0,31,97,45
0,62,82,0
0,61,45,0
0,31,0,46
0,61,0,29
0,62,0,28
0,28,108,17
0,71,53,0
0,70,62,0
0,35,114,0
0,61,45,0
0,42,89,0
0,42,0,75
0,35,0,0
0,61,0,0
0,62,82,45
0,61,45,0
0,61,0,75
