track,note,velocity,time
1,32,103,422
1,32,0,159
1,32,86,125
1,32,0,324
1,32,83,61
1,32,0,85
1,34,84,12
1,34,0,193
1,34,95,94
1,34,0,356
1,36,93,125
1,36,0,219
1,36,89,69
1,36,0,319
1,34,74,64
1,34,0,72
1,36,87,25
1,36,0,223
1,36,94,65
1,36,0,345
1,32,89,135
1,32,0,216
1,32,87,72
1,32,0,321
1,32,89,61
1,32,0,80
1,34,84,17
1,34,0,210
1,34,84,78
1,34,0,352
1,36,93,128
1,36,0,239
1,36,97,51
1,36,0,324
1,34,89,58
1,34,0,75
1,36,99,22
1,36,0,245
1,34,86,44
1,34,0,77
1,36,85,17
1,39,70,96
1,36,0,5
1,39,0,89
1,34,84,1
1,34,0,149
1,32,89,47
1,32,0,177
1,32,83,110
1,32,0,295
1,32,81,88
1,32,0,90
1,34,83,7
1,34,0,190
1,34,77,97
1,34,0,334
1,36,89,146
1,36,0,214
1,36,86,74
1,36,0,298
1,34,70,86
1,34,0,84
1,36,88,13
1,36,0,195
1,36,82,92
1,36,0,355
1,32,79,127
1,32,0,196
1,32,83,92
1,32,0,300
1,32,75,82
1,32,0,90
1,34,79,7
1,34,0,195
1,34,79,93
1,34,0,353
1,36,82,127
1,36,0,193
1,36,82,94
1,36,0,312
1,31,82,72
1,31,0,94
1,36,90,3
1,36,0,232
1,36,87,56
1,36,0,300
1,34,69,83
1,34,0,73
1,32,109,25
1,32,0,188
1,32,101,98
1,32,0,318
1,32,99,69
1,32,0,84
1,33,97,14
1,33,0,186
1,33,97,97
1,33,0,419
1,34,89,61
1,34,0,216
1,34,87,73
1,34,0,317
1,34,95,66
1,34,0,85
1,35,83,12
1,35,0,204
1,35,88,83
1,35,0,418
1,32,95,61
1,32,0,226
1,32,86,64
1,32,0,309
1,32,89,74
1,32,0,83
1,34,91,13
1,34,0,220
1,34,87,67
1,34,0,385
1,36,94,99
1,36,0,1370
1,32,95,165
1,32,0,179
1,32,87,108
1,32,0,306
1,32,84,79
1,32,0,86
1,34,83,11
1,34,0,184
1,34,93,104
1,34,0,354
1,36,86,124
1,36,0,206
1,36,82,81
1,36,0,308
1,34,81,76
1,34,0,79
1,36,89,17
1,36,0,192
1,36,78,96
1,36,0,291
1,43,78,0
1,43,0,90
1,36,77,4
1,36,0,86
1,32,89,12
1,32,0,166
1,32,84,120
1,32,0,285
1,32,84,98
1,32,0,88
1,34,80,11
1,34,0,171
1,34,83,115
1,34,0,386
1,36,87,96
1,36,0,184
1,36,85,101
1,36,0,322
1,34,69,62
1,34,0,74
1,36,77,22
1,36,0,202
1,36,86,89
1,36,0,236
1,36,83,52
1,36,0,81
1,31,80,15
1,31,0,78
1,32,87,18
1,32,0,189
1,32,91,97
1,32,0,313
1,32,75,71
1,32,0,89
1,33,92,9
1,33,0,196
1,33,92,89
1,33,0,430
1,34,86,51
1,34,0,224
1,34,84,66
1,34,0,307
1,34,74,75
1,34,0,83
1,35,82,13
1,35,0,203
1,35,86,85
1,35,0,411
1,32,86,70
1,32,0,204
1,32,81,85
1,32,0,306
1,32,89,75
1,32,0,87
1,34,84,10
1,34,0,189
1,34,79,97
1,34,0,341
1,31,82,45
1,31,0,86
1,36,92,11
1,36,0,220
1,36,86,65
1,36,0,290
1,48,75,1
1,48,0,79
1,43,78,14
1,43,0,83
1,36,83,15
1,36,0,239
1,36,87,50
1,36,0,57
1,36,87,40
1,36,0,332
1,29,94,51
1,29,0,182
1,29,94,103
1,29,0,317
1,29,93,68
1,29,0,99
1,31,92,0
1,31,0,207
1,31,93,78
1,31,0,276
1,36,100,15
1,36,0,118
1,36,94,7
1,36,0,200
1,36,97,83
1,36,0,194
1,31,88,190
1,31,0,91
1,34,93,5
1,34,0,199
1,34,84,86
1,34,0,160
1,34,83,132
1,34,0,87
1,36,93,8
1,36,0,77
1,29,89,23
1,29,0,188
1,29,94,97
1,29,0,234
1,29,87,150
1,29,0,85
1,31,92,13
1,31,0,134
1,31,96,151
1,31,0,173
1,31,86,211
1,31,0,84
1,32,84,13
1,32,0,176
1,32,97,111
1,32,0,183
1,34,87,298
1,34,0,172
1,34,93,116
1,34,0,170
1,34,89,120
1,34,0,92
1,36,83,2
1,36,0,65
1,29,90,33
1,29,0,161
1,29,82,125
1,29,0,207
1,29,79,177
1,29,0,86
1,31,83,10
1,31,0,137
1,31,86,150
1,31,0,111
1,31,80,82
1,31,0,73
1,38,88,22
1,38,0,85
1,31,72,11
1,31,0,83
1,36,87,13
1,36,0,198
1,36,86,90
1,36,0,207
1,36,82,178
1,36,0,89
1,34,77,7
1,34,0,175
1,34,76,112
1,34,0,170
1,32,97,310
1,32,0,200
1,32,84,91
1,32,0,239
1,32,77,143
1,32,0,93
1,34,75,3
1,34,0,181
1,34,84,107
1,34,0,253
1,24,102,227
1,48,46,386
1,48,0,33
1,46,35,13
1,46,0,44
1,55,57,6
1,24,0,98
1,55,0,7
1,36,69,2
1,36,0,18
1,36,80,30
1,36,0,19
1,36,112,30
1,36,0,10
1,34,99,3
1,34,0,198
1,34,91,88
1,41,100,99
1,34,0,2
1,41,0,175
1,34,87,13
1,34,0,174
1,36,89,16
1,36,0,208
1,36,87,80
1,36,0,314
1,36,85,70
1,36,0,92
1,38,87,6
1,38,0,215
1,26,94,74
1,26,0,427
1,26,82,50
1,38,93,290
1,26,0,3
1,38,0,282
1,36,89,2
1,36,0,154
1,34,87,40
1,34,0,194
1,34,76,92
1,41,86,96
1,34,0,2
1,41,0,78
1,34,50,15
1,34,0,35
1,34,68,61
1,35,75,97
1,34,0,4
1,36,85,93
1,35,0,3
1,36,0,185
1,36,86,98
1,36,0,294
1,36,82,90
1,36,0,88
1,38,93,9
1,38,0,265
1,26,89,22
1,26,0,351
1,26,81,34
1,26,0,86
1,51,49,16
1,51,0,135
1,52,54,11
1,52,0,99
1,46,49,3
1,46,0,3
1,45,52,4
1,45,0,88
1,41,49,7
1,41,0,78
1,34,86,23
1,34,0,176
1,34,89,112
1,34,0,304
1,34,84,78
1,35,89,99
1,34,0,3
1,35,0,181
1,35,85,100
1,35,0,429
1,36,93,51
1,36,0,217
1,36,90,72
1,36,0,313
1,36,92,71
1,37,101,97
1,36,0,9
1,37,0,267
1,45,89,12
1,45,0,269
1,43,86,18
1,43,0,168
1,34,79,27
1,34,0,185
1,34,80,101
1,34,0,298
1,34,81,85
1,34,0,97
1,36,92,0
1,36,0,211
1,36,92,77
1,36,0,279
1,33,88,11
1,36,85,94
1,33,0,1
1,36,0,86
1,38,89,11
1,38,0,280
1,26,89,5
1,26,0,317
1,45,66,22
1,45,0,40
1,48,70,6
1,48,0,38
1,45,75,9
1,45,0,38
1,50,73,11
1,50,0,129
1,50,82,21
1,50,0,180
1,48,75,13
1,48,0,11
1,45,70,5
1,45,0,116
1,31,97,61
1,31,0,194
1,31,93,90
1,38,99,98
1,31,0,4
1,38,0,182
1,31,89,8
1,31,0,151
1,33,96,39
1,33,0,183
1,33,97,103
1,40,100,98
1,33,0,7
1,40,0,172
1,33,92,13
1,33,0,165
1,26,108,29
1,26,0,221
1,26,97,65
1,26,0,283
1,38,97,7
1,38,0,177
1,36,88,12
1,36,0,211
1,36,90,77
1,36,0,274
1,34,74,17
1,34,0,17
1,31,86,2
1,31,0,203
1,31,82,83
1,38,93,97
1,31,0,13
1,38,0,172
1,43,75,9
1,43,0,184
1,33,75,8
1,33,0,173
1,33,66,112
1,33,0,96
1,40,75,0
1,45,74,193
1,40,0,12
1,34,70,182
1,45,0,28
1,34,0,173
1,34,81,85
1,34,0,279
1,34,70,105
1,34,0,94
1,36,88,2
1,36,0,230
1,53,58,8
1,53,0,20
1,53,64,37
1,53,0,95
1,52,69,1
1,52,0,130
1,31,90,5
1,31,0,204
1,31,80,81
1,38,88,97
1,31,0,8
1,31,88,185
1,38,0,1
1,31,0,178
1,33,86,12
1,33,0,201
1,33,89,86
1,33,0,260
1,43,80,27
1,43,0,8
1,38,82,2
1,38,0,201
1,26,80,86
1,26,0,275
1,38,90,14
1,38,0,173
1,36,92,19
1,36,0,207
1,36,82,82
1,36,0,446
1,34,79,36
1,34,0,202
1,34,84,84
1,34,0,334
1,34,65,49
1,34,0,95
1,36,82,4
1,36,0,194
1,36,77,90
1,36,0,253
1,36,87,38
1,36,0,13
1,31,79,3
1,31,0,209
1,31,81,68
1,31,0,170
1,34,69,24
1,34,0,73
1,38,82,21
1,38,0,75
1,34,56,19
1,34,0,65
1,43,82,34
1,43,0,233
1,38,66,11
1,38,0,109
1,34,70,37
1,34,0,751
1,36,63,13
1,36,0,779
1,43,61,87
1,43,0,10
1,43,72,38
1,43,0,17
1,52,62,35
1,52,0,169
1,50,67,9
1,50,0,8
1,31,85,1
1,31,0,181
1,31,80,104
1,38,87,96
1,31,0,6
1,38,0,178
1,31,80,7
1,31,0,165
1,33,89,29
1,33,0,194
1,33,82,94
1,33,0,479
1,38,88,4
1,38,0,264
1,26,83,22
1,38,82,290
1,26,0,3
1,38,0,178
1,36,75,11
1,36,0,206
1,36,74,79
1,36,0,275
1,33,75,13
1,33,0,6
1,31,90,3
1,31,0,191
1,31,76,96
1,31,0,93
1,38,90,3
1,38,0,183
1,31,77,9
1,31,0,154
1,33,93,38
1,33,0,191
1,33,72,96
1,40,83,97
1,33,0,1
1,40,0,88
1,45,67,6
1,45,0,50
1,45,82,47
1,45,0,174
1,34,87,18
1,34,0,192
1,34,79,95
1,34,0,237
1,34,87,51
1,34,0,43
1,34,73,53
1,34,0,81
1,36,87,15
1,36,0,215
1,36,82,73
1,36,0,271
1,33,87,16
1,31,88,3
1,33,0,11
1,31,0,181
1,31,82,95
1,31,0,90
1,38,93,5
1,31,82,193
1,38,0,4
1,31,0,153
1,33,86,35
1,33,0,198
1,33,88,89
1,33,0,426
1,26,89,54
1,26,0,220
1,26,94,69
1,26,0,286
1,38,93,6
1,38,0,176
1,36,88,15
1,36,0,205
1,36,83,79
1,33,85,292
1,36,0,4
1,33,0,7
1,31,99,3
1,31,0,738
1,33,102,28
1,33,0,194
1,34,91,6
1,34,0,5
1,36,88,26
1,53,46,131
1,36,0,15
1,53,0,12
1,53,68,26
1,53,0,49
1,50,67,8
1,50,0,15
1,31,85,7
1,31,0,133
1,31,80,102
1,38,87,82
1,31,0,6
1,38,0,112
1,31,80,7
1,31,0,130
1,33,89,4
1,33,0,194
1,33,82,21
1,33,0,49
1,38,88,4
1,38,0,28
1,26,83,22
1,38,82,17
1,26,0,3
1,38,0,39
1,36,75,11
1,36,0,43
1,36,74,79
1,36,0,12
1,33,75,13
1,33,0,6
1,31,90,3
1,31,0,112
1,31,76,35
1,31,0,59
1,38,90,3
1,38,0,14
1,31,77,9
1,31,0,61
1,33,93,38
1,33,0,31
1,33,72,20
1,40,83,31
1,33,0,1
1,40,0,13
1,45,67,6
1,45,0,50
1,45,82,39
1,45,0,50
1,34,87,11
1,34,0,70
1,34,79,10
1,34,0,16
2,56,109,412
2,60,109,0
2,63,109,0
2,67,109,0
2,72,58,0
2,56,0,765
2,60,0,0
2,63,0,0
2,58,109,3
2,62,109,0
2,65,109,0
2,58,0,765
2,62,0,0
2,65,0,0
2,67,0,0
2,60,109,3
2,62,109,0
2,63,109,0
2,67,109,0
2,60,0,1533
2,62,0,0
2,63,0,0
2,67,0,0
2,56,109,3
2,60,109,0
2,63,109,0
2,67,109,0
2,56,0,765
2,60,0,0
2,63,0,0
2,58,109,3
2,62,109,0
2,65,109,0
2,58,0,765
2,62,0,0
2,65,0,0
2,60,109,3
2,62,109,0
2,63,109,0
2,60,0,1533
2,62,0,0
2,63,0,0
2,67,0,0
2,72,0,0
2,56,93,3
2,60,93,0
2,63,93,0
2,67,93,0
2,56,0,765
2,60,0,0
2,63,0,0
2,58,93,3
2,62,93,0
2,65,93,0
2,70,93,0
2,67,0,381
2,67,93,3
2,58,0,381
2,62,0,0
2,65,0,0
2,70,0,0
2,60,93,3
2,63,93,0
2,74,93,0
2,74,0,765
2,62,93,3
2,60,0,765
2,62,0,0
2,63,0,0
2,67,0,0
2,56,93,3
2,60,93,0
2,63,93,0
2,67,93,0
2,56,0,765
2,60,0,0
2,63,0,0
2,58,93,3
2,62,93,0
2,65,93,0
2,70,93,0
2,58,0,765
2,65,0,0
2,60,93,3
2,63,93,0
2,74,93,0
2,70,0,765
2,74,0,0
2,72,93,3
2,70,93,384
2,60,0,381
2,62,0,0
2,63,0,0
2,67,0,0
2,70,0,0
2,72,0,0
2,56,99,3
2,60,99,0
2,63,99,0
2,56,0,765
2,63,0,0
2,57,99,3
2,65,99,0
2,57,0,765
2,60,0,0
2,62,99,3
2,70,99,0
2,65,0,765
2,70,0,0
2,67,99,3
2,71,99,0
2,62,0,765
2,67,0,0
2,71,0,0
2,63,99,3
2,68,99,0
2,72,99,0
2,63,0,189
2,72,0,0
2,68,0,576
2,65,99,3
2,70,99,0
2,74,99,0
2,65,0,765
2,70,0,0
2,74,0,0
2,63,99,3
2,67,99,0
2,72,99,0
2,74,99,0
2,63,0,1533
2,67,0,0
2,72,0,0
2,74,0,0
2,56,93,3
2,60,93,0
2,63,93,0
2,67,93,0
2,56,0,765
2,60,0,0
2,63,0,0
2,58,93,3
2,62,93,0
2,65,93,0
2,70,93,0
2,67,0,381
2,67,93,3
2,58,0,381
2,62,0,0
2,65,0,0
2,70,0,0
2,60,93,3
2,63,93,0
2,74,93,0
2,74,0,765
2,62,93,3
2,60,0,765
2,62,0,0
2,63,0,0
2,67,0,0
2,56,93,3
2,60,93,0
2,63,93,0
2,67,93,0
2,56,0,765
2,60,0,0
2,63,0,0
2,58,93,3
2,62,93,0
2,65,93,0
2,70,93,0
2,58,0,765
2,65,0,0
2,60,93,3
2,63,93,0
2,74,93,0
2,70,0,765
2,74,0,0
2,72,93,3
2,70,93,384
2,60,0,381
2,62,0,0
2,63,0,0
2,67,0,0
2,70,0,0
2,72,0,0
2,56,99,3
2,60,99,0
2,63,99,0
2,56,0,765
2,63,0,0
2,57,99,3
2,65,99,0
2,57,0,765
2,60,0,0
2,62,99,3
2,70,99,0
2,65,0,765
2,70,0,0
2,67,99,3
2,71,99,0
2,62,0,765
2,67,0,0
2,71,0,0
2,63,99,3
2,68,99,0
2,72,99,0
2,63,0,765
2,68,0,0
2,72,0,0
2,65,99,3
2,70,99,0
2,74,99,0
2,65,0,765
2,70,0,0
2,74,0,0
2,60,127,3
2,65,117,0
2,67,125,0
2,72,121,0
2,65,0,765
2,64,121,3
2,64,0,381
2,63,121,3
2,60,0,381
2,63,0,0
2,67,0,0
2,72,0,0
2,56,120,3
2,60,120,0
2,63,120,0
2,56,0,765
2,60,0,0
2,55,120,3
2,59,120,0
2,62,120,0
2,55,0,765
2,59,0,0
2,62,0,0
2,63,0,0
2,55,120,3
2,58,120,0
2,62,120,0
2,63,120,0
2,55,0,1533
2,58,0,0
2,62,0,0
2,63,0,0
2,56,120,3
2,60,120,0
2,63,120,0
2,56,0,765
2,60,0,0
2,55,120,3
2,59,120,0
2,62,120,0
2,55,0,765
2,59,0,0
2,62,0,0
2,56,120,3
2,60,120,0
2,56,0,765
2,63,0,0
2,58,120,3
2,62,120,0
2,65,120,0
2,58,0,765
2,60,0,0
2,62,0,0
2,65,0,0
2,56,120,3
2,60,120,0
2,63,120,0
2,56,0,765
2,60,0,0
2,55,120,3
2,59,120,0
2,60,120,0
2,62,120,0
2,60,0,189
2,55,0,576
2,59,0,0
2,62,0,0
2,63,0,0
2,55,120,3
2,58,120,0
2,62,120,0
2,63,120,0
2,55,0,765
2,58,0,0
2,62,0,0
2,63,0,0
2,58,120,3
2,60,120,0
2,62,120,0
2,65,120,0
2,58,0,765
2,60,0,0
2,62,0,0
2,65,0,0
2,56,120,3
2,60,120,0
2,63,120,0
2,56,0,765
2,60,0,0
2,63,0,0
2,58,120,3
2,60,120,0
2,62,120,0
2,65,120,0
2,58,0,765
2,60,0,0
2,62,0,0
2,65,0,0
