track,note,velocity,time
0,40,126,1728
0,60,107,384
0,63,119,0
0,65,111,0
0,68,117,0
0,32,123,0
0,35,126,0
0,46,123,0
0,42,81,192
0,62,97,8
0,65,105,0
0,67,67,0
0,70,109,0
0,82,127,0
0,70,113,0
0,82,111,0
0,34,123,24
0,35,123,0
0,46,125,0
0,54,42,4
0,58,115,48
0,60,99,0
0,63,97,0
0,68,101,0
0,68,90,0
0,56,93,0
0,68,103,0
0,42,62,0
0,54,15,0
0,60,90,32
0,63,105,0
0,67,99,0
0,67,77,0
0,55,70,0
0,67,85,0
0,54,36,0
0,54,10,36
0,58,115,72
0,60,103,0
0,63,85,0
0,68,111,0
0,68,103,0
0,56,103,0
0,68,117,0
0,40,123,0
0,42,127,0
0,54,48,0
0,54,7,32
0,58,103,72
0,60,90,0
0,63,92,0
0,67,89,0
0,34,82,0
0,67,69,0
0,55,70,0
0,67,83,0
0,35,103,0
0,54,36,0
0,54,18,28
0,58,113,72
0,60,105,0
0,63,85,0
0,68,109,0
0,34,99,0
0,68,87,0
0,56,101,0
0,68,107,0
0,35,117,0
0,42,123,0
0,54,42,0
0,54,18,0
0,58,93,72
0,60,87,0
0,63,95,0
0,67,89,0
0,67,62,0
0,55,65,0
0,67,75,0
0,54,26,0
0,54,26,40
0,58,115,72
0,60,107,0
0,63,83,0
0,68,111,0
0,68,90,0
0,56,97,0
0,68,109,0
0,40,123,0
0,42,125,0
0,54,42,0
0,54,10,36
0,58,92,72
0,60,83,0
0,63,99,0
0,67,78,0
0,67,66,0
0,55,66,0
0,67,78,0
0,54,34,0
0,58,97,24
0,60,97,0
0,63,92,0
0,68,111,0
0,34,107,0
0,68,77,0
0,56,90,0
0,68,107,0
0,40,123,0
0,54,21,0
0,35,111,0
0,42,113,0
0,54,42,0
0,58,115,60
0,60,101,0
0,63,109,0
0,67,101,0
0,67,78,0
0,55,72,0
0,67,86,0
0,54,15,0
0,54,36,4
0,54,10,108
0,40,125,72
0,42,127,0
0,54,48,0
0,54,7,120
0,34,80,72
0,35,83,0
0,54,36,0
0,54,18,28
0,34,95,72
0,35,107,0
0,42,125,0
0,54,42,0
0,54,18,4
0,54,26,72
0,54,26,120
0,32,99,72
0,40,123,0
0,42,125,0
0,54,42,0
0,54,10,120
0,54,34,72
0,34,93,40
0,40,126,0
0,46,125,0
0,54,21,0
0,35,117,72
0,42,92,0
0,54,42,0
0,58,115,60
0,60,101,0
0,63,99,0
0,68,101,0
0,68,86,0
0,56,95,0
0,68,109,0
0,54,15,0
0,58,93,8
0,60,95,0
0,63,111,0
0,67,93,0
0,67,64,0
0,55,65,0
0,67,85,0
0,54,36,0
0,54,10,36
0,58,107,72
0,60,99,0
0,63,89,0
0,68,109,0
0,68,92,0
0,56,103,0
0,68,113,0
0,40,119,0
0,42,117,0
0,54,48,0
0,54,7,36
0,58,101,72
0,60,90,0
0,63,103,0
0,67,90,0
0,34,89,0
0,67,71,0
0,55,73,0
0,67,95,0
0,35,111,0
0,54,36,0
0,54,18,24
0,58,111,72
0,60,99,0
0,63,85,0
0,68,107,0
0,34,92,0
0,68,93,0
0,56,101,0
0,68,107,0
0,35,115,0
0,42,119,0
0,54,42,0
0,54,18,28
0,58,103,48
0,60,87,0
0,63,101,0
0,67,86,0
0,67,65,0
0,55,62,0
0,67,90,0
0,54,26,0
0,54,26,44
0,58,115,72
0,60,105,0
0,63,90,0
0,68,105,0
0,68,99,0
0,56,107,0
0,68,115,0
0,40,121,0
0,42,125,0
0,54,42,0
0,61,103,20
0,64,103,0
0,69,103,0
0,69,77,0
0,57,75,0
0,69,86,0
0,54,10,0
0,54,34,4
0,62,101,116
0,65,111,0
0,70,119,0
0,34,97,0
0,70,103,0
0,58,105,0
0,70,117,0
0,40,123,0
0,54,21,0
0,35,111,20
0,42,121,0
0,54,42,0
0,54,15,36
0,54,36,72
0,54,10,120
0,40,126,72
0,42,123,0
0,54,48,0
0,54,7,120
0,34,85,72
0,35,111,0
0,54,36,0
0,54,18,16
0,34,90,72
0,35,115,0
0,42,123,0
0,54,42,0
0,54,18,8
0,79,115,72
0,54,26,0
0,54,26,16
0,72,113,72
0,73,117,0
0,32,93,0
0,40,125,0
0,42,127,0
0,54,42,0
0,70,86,20
0,54,10,0
0,54,34,4
0,34,89,12
0,40,123,0
0,46,113,0
0,54,21,0
0,35,117,72
0,42,111,0
0,54,42,0
0,58,109,52
0,60,103,0
0,63,92,0
0,68,103,0
0,68,86,0
0,56,93,0
0,68,105,0
0,80,115,0
0,54,15,0
0,58,77,24
0,60,82,0
0,63,97,0
0,67,99,0
0,67,71,0
0,55,66,0
0,67,76,0
0,79,72,0
0,54,36,0
0,54,10,32
0,58,107,72
0,60,95,0
0,63,89,0
0,68,107,0
0,68,90,0
0,56,101,0
0,68,105,0
0,80,109,0
0,40,125,0
0,42,125,0
0,54,48,0
0,54,7,28
0,58,107,72
0,60,90,0
0,63,101,0
0,67,95,0
0,34,89,0
0,67,77,0
0,55,77,0
0,67,78,0
0,79,76,0
0,35,109,0
0,54,36,0
0,54,18,12
0,58,113,72
0,60,101,0
0,63,82,0
0,68,105,0
0,34,101,0
0,68,93,0
0,56,103,0
0,68,109,0
0,80,109,0
0,35,111,0
0,42,119,0
0,54,42,0
0,54,18,28
0,58,99,24
0,60,85,0
0,63,93,0
0,67,89,0
0,67,66,0
0,55,72,0
0,67,75,0
0,79,74,0
0,54,26,0
0,54,26,36
0,58,113,72
0,60,105,0
0,63,76,0
0,68,107,0
0,68,99,0
0,56,97,0
0,68,107,0
0,80,109,0
0,40,121,0
0,42,123,0
0,54,42,0
0,54,10,20
0,58,105,72
0,60,86,0
0,63,107,0
0,67,83,0
0,67,71,0
0,55,67,0
0,67,77,0
0,79,73,0
0,54,34,0
0,58,95,32
0,60,92,0
0,63,85,0
0,68,103,0
0,34,101,0
0,68,80,0
0,56,89,0
0,68,113,0
0,80,95,0
0,40,125,0
0,54,21,0
0,35,105,0
0,42,119,0
0,54,42,0
0,58,109,52
0,60,101,0
0,63,105,0
0,67,99,0
0,67,74,0
0,55,73,0
0,67,83,0
0,79,81,0
0,54,15,0
0,54,36,0
0,54,10,92
0,40,123,72
0,42,123,0
0,54,48,0
0,54,7,120
0,34,92,72
0,35,107,0
0,54,36,0
0,54,18,16
0,34,92,72
0,35,113,0
0,42,121,0
0,54,42,0
0,58,105,120
0,54,18,0
0,55,83,44
0,54,26,0
0,55,67,68
0,54,26,0
0,58,93,24
0,40,125,0
0,42,123,0
0,54,42,0
0,58,81,44
0,54,10,0
0,55,81,4
0,54,34,0
0,34,99,32
0,58,101,0
0,40,121,0
0,46,111,0
0,54,21,0
0,35,109,32
0,42,97,0
0,54,42,0
0,58,111,76
0,60,89,0
0,63,101,0
0,68,105,0
0,44,103,0
0,68,81,0
0,80,113,0
0,56,101,0
0,68,107,0
0,80,105,0
0,54,15,0
0,58,95,28
0,60,87,0
0,67,93,0
0,43,86,0
0,67,68,0
0,79,73,0
0,55,66,0
0,67,75,0
0,79,74,0
0,54,36,0
0,54,10,32
0,58,103,72
0,60,99,0
0,63,85,0
0,68,109,0
0,44,115,0
0,68,99,0
0,80,111,0
0,56,105,0
0,68,93,0
0,80,109,0
0,40,123,0
0,42,123,0
0,54,48,0
0,54,7,12
0,58,101,72
0,60,90,0
0,63,101,0
0,67,90,0
0,43,78,0
0,67,67,0
0,79,82,0
0,55,74,0
0,67,73,0
0,79,81,0
0,35,109,0
0,54,36,0
0,54,18,28
0,58,107,72
0,60,99,0
0,63,97,0
0,68,107,0
0,44,113,0
0,68,97,0
0,80,113,0
0,56,103,0
0,68,107,0
0,80,111,0
0,40,125,0
0,42,121,0
0,54,42,0
0,40,115,20
0,54,18,0
0,54,26,72
0,58,119,120
0,60,101,0
0,63,103,0
0,68,107,0
0,44,121,0
0,68,103,0
0,80,119,0
0,56,105,0
0,68,113,0
0,80,113,0
0,35,119,0
0,46,123,0
0,54,26,0
0,42,86,4
0,54,42,0
0,61,105,100
0,64,97,0
0,69,97,0
0,45,105,0
0,69,87,0
0,81,97,0
0,57,87,0
0,69,86,0
0,81,90,0
0,35,117,0
0,46,115,0
0,54,10,0
0,42,101,0
0,54,34,0
0,62,95,96
0,65,113,0
0,70,119,0
0,46,125,0
0,70,117,0
0,82,121,0
0,58,109,0
0,70,125,0
0,82,123,0
0,35,123,0
0,46,111,0
0,54,21,0
0,54,30,72
0,42,42,156
0,42,32,48
0,42,32,48
0,42,37,48
0,42,58,48
0,42,64,48
0,42,64,48
0,40,121,24
0,42,80,24
0,42,90,48
0,42,90,48
0,46,69,48
0,35,83,24
0,35,115,72
0,42,42,0
0,34,99,384
0,43,127,0
0,68,91,4
0,46,83,20
0,58,92,0
0,60,90,0
0,63,95,0
0,68,90,0
0,34,117,0
0,35,123,0
0,42,87,0
0,54,42,0
0,57,85,0
0,68,83,48
0,54,15,0
0,67,61,28
0,42,70,0
0,54,36,0
0,62,106,0
0,54,10,40
0,68,84,72
0,37,117,0
0,42,101,0
0,54,48,0
0,54,7,24
0,34,90,72
0,67,73,0
0,35,89,0
0,42,73,0
0,54,36,0
0,64,104,0
0,54,18,16
0,34,95,8
0,68,84,0
0,35,107,0
0,42,90,0
0,54,42,0
0,54,18,48
0,67,62,52
0,42,66,0
0,54,26,0
0,62,106,0
0,68,75,36
0,54,26,0
0,37,117,0
0,42,105,0
0,54,42,0
0,67,70,20
0,54,10,0
0,60,61,0
0,42,71,4
0,54,34,0
0,63,108,0
0,34,99,12
0,68,76,0
0,54,21,0
0,46,77,24
0,56,90,0
0,60,86,0
0,62,87,0
0,65,86,0
0,35,123,0
0,42,103,0
0,54,42,0
0,67,72,64
0,56,70,0
0,54,15,0
0,65,68,44
0,55,67,0
0,42,67,0
0,54,36,0
0,62,85,0
0,54,10,36
0,56,97,72
0,37,117,0
0,42,99,0
0,54,48,0
0,54,7,12
0,34,99,40
0,55,82,0
0,35,89,0
0,42,80,0
0,54,36,0
0,64,82,0
0,54,18,4
0,34,85,44
0,56,103,0
0,35,107,0
0,42,87,0
0,54,42,0
0,54,18,32
0,55,76,56
0,42,73,0
0,54,26,0
0,62,94,0
0,54,26,28
0,56,99,72
0,37,117,0
0,42,97,0
0,54,42,0
0,58,93,12
0,54,10,0
0,60,56,0
0,42,78,4
0,54,34,0
0,61,100,0
0,46,72,8
0,58,87,0
0,60,89,0
0,63,92,0
0,68,90,0
0,32,83,0
0,68,90,0
0,54,21,0
0,34,95,4
0,35,123,0
0,42,86,0
0,54,42,0
0,68,76,96
0,54,15,0
0,67,66,32
0,42,76,0
0,54,36,0
0,62,104,0
0,54,10,36
0,68,91,72
0,37,117,0
0,42,83,0
0,54,48,0
0,54,7,32
0,34,97,72
0,67,70,0
0,35,89,0
0,42,76,0
0,54,36,0
0,64,104,0
0,54,18,16
0,34,93,8
0,68,83,0
0,35,107,0
0,42,93,0
0,54,42,0
0,54,18,24
0,67,66,20
0,42,82,0
0,54,26,0
0,62,108,0
0,68,78,4
0,54,26,0
0,37,117,8
0,42,87,0
0,54,42,0
0,69,73,88
0,54,10,0
0,60,45,0
0,42,82,72
0,54,34,0
0,63,102,0
0,46,75,16
0,56,71,0
0,60,81,0
0,62,71,0
0,65,75,0
0,34,103,0
0,70,79,0
0,54,21,0
0,35,123,8
0,42,86,0
0,54,42,0
0,56,89,4
0,54,15,0
0,55,75,72
0,42,68,0
0,54,36,0
0,62,102,0
0,54,10,36
0,56,101,8
0,37,117,0
0,42,90,0
0,54,48,0
0,54,7,0
0,34,89,28
0,55,74,0
0,35,89,0
0,42,72,0
0,54,36,0
0,64,77,0
0,54,18,12
0,73,115,28
0,74,97,40
0,34,95,0
0,56,101,0
0,35,107,0
0,42,89,0
0,54,42,0
0,54,18,12
0,75,87,40
0,55,89,0
0,42,80,0
0,54,26,0
0,62,108,0
0,76,77,24
0,54,26,0
0,73,85,16
0,74,90,0
0,56,101,0
0,37,117,0
0,42,97,0
0,54,42,0
0,70,95,16
0,58,109,0
0,54,10,0
0,60,61,0
0,68,96,20
0,42,73,0
0,54,34,0
0,63,114,0
0,46,77,4
0,58,64,0
0,60,71,0
0,63,80,0
0,32,86,0
0,68,93,0
0,46,90,0
0,54,21,0
0,34,93,40
0,35,123,0
0,42,87,0
0,54,42,0
0,68,72,100
0,54,15,0
0,67,70,32
0,42,70,0
0,54,36,0
0,62,106,0
0,54,10,36
0,68,88,72
0,37,117,0
0,42,101,0
0,54,48,0
0,54,7,36
0,34,85,72
0,67,72,0
0,35,89,0
0,42,73,0
0,54,36,0
0,64,104,0
0,54,18,8
0,34,93,20
0,68,84,0
0,35,107,0
0,42,90,0
0,54,42,0
0,54,18,64
0,67,66,64
0,42,66,0
0,54,26,0
0,62,106,0
0,68,86,40
0,54,26,0
0,37,117,0
0,42,105,0
0,54,42,0
0,67,74,40
0,54,10,0
0,60,61,0
0,42,71,24
0,54,34,0
0,61,108,0
0,63,108,0
0,46,67,12
0,56,70,0
0,60,69,0
0,62,62,0
0,65,64,0
0,34,95,0
0,68,83,0
0,54,21,0
0,35,123,40
0,42,103,0
0,54,42,0
0,67,66,0
0,56,109,0
0,54,15,0
0,65,62,72
0,55,71,0
0,42,67,0
0,54,36,0
0,62,85,0
0,54,10,40
0,56,105,72
0,37,117,0
0,42,99,0
0,54,48,0
0,54,7,8
0,34,89,36
0,55,83,0
0,35,89,0
0,42,80,0
0,54,36,0
0,64,82,0
0,54,18,12
0,34,87,28
0,56,103,0
0,35,107,0
0,42,87,0
0,54,42,0
0,54,18,20
0,55,82,8
0,42,73,0
0,54,26,0
0,62,94,0
0,54,26,28
0,56,90,0
0,37,117,0
0,42,97,0
0,54,42,0
0,58,97,28
0,54,10,0
0,60,56,0
0,42,78,72
0,54,34,0
0,61,100,0
0,64,84,0
0,46,72,4
0,58,76,0
0,60,76,0
0,63,83,0
0,68,89,0
0,32,87,0
0,68,88,0
0,54,21,0
0,34,92,8
0,35,123,0
0,42,86,0
0,54,42,0
0,68,76,108
0,54,15,0
0,67,66,36
0,42,76,0
0,54,36,0
0,62,104,0
0,54,10,40
0,68,91,72
0,37,117,0
0,42,83,0
0,54,48,0
0,54,7,24
0,34,90,72
0,67,68,0
0,35,89,0
0,42,76,0
0,54,36,0
0,64,104,0
0,54,18,20
0,34,93,20
0,68,87,0
0,35,107,0
0,42,93,0
0,54,42,0
0,54,18,8
0,67,68,0
0,42,82,0
0,54,26,0
0,62,108,0
0,68,83,12
0,54,26,0
0,37,117,36
0,42,87,0
0,54,42,0
0,69,74,80
0,54,10,0
0,60,45,0
0,42,82,72
0,54,34,0
0,63,102,0
0,46,71,16
0,56,70,0
0,60,80,0
0,62,71,0
0,65,57,0
0,34,99,0
0,70,93,0
0,54,21,0
0,35,123,16
0,42,86,0
0,54,42,0
0,56,97,20
0,54,15,0
0,55,75,72
0,42,68,0
0,54,36,0
0,62,102,0
0,54,10,12
0,56,99,0
0,37,117,0
0,42,90,0
0,54,48,0
0,54,7,24
0,34,95,72
0,55,70,0
0,35,89,0
0,42,72,0
0,54,36,0
0,64,77,0
0,54,18,28
0,34,76,12
0,61,84,0
0,35,107,0
0,42,89,0
0,54,42,0
0,54,18,16
0,29,101,28
0,58,90,0
0,42,80,0
0,54,26,0
0,62,108,0
0,54,26,52
0,56,99,0
0,37,117,0
0,42,97,0
0,54,42,0
0,55,81,12
0,54,10,0
0,60,61,0
0,42,73,12
0,54,34,0
0,63,114,0
0,46,92,12
0,60,72,0
0,63,93,0
0,68,101,0
0,72,85,0
0,32,107,0
0,75,85,0
0,46,90,0
0,54,21,0
0,34,105,24
0,35,123,0
0,42,87,0
0,49,86,0
0,54,42,0
0,54,15,88
0,75,92,36
0,42,70,0
0,54,36,0
0,62,106,0
0,54,10,28
0,75,84,72
0,37,117,0
0,42,101,0
0,54,48,0
0,34,99,40
0,54,7,0
0,32,80,72
0,75,87,0
0,35,89,0
