track,note,velocity,time
0,42,58,96
0,67,40,0
0,42,59,60
0,67,40,0
0,42,75,92
0,67,40,0
0,24,106,0
0,67,86,0
0,58,82,0
0,58,79,0
0,63,95,0
0,67,93,0
0,67,61,0
0,42,66,16
0,67,40,0
0,42,59,20
0,67,40,0
0,62,75,0
0,27,107,0
0,58,82,0
0,67,85,0
0,63,83,0
0,58,82,0
0,63,93,0
0,67,86,0
0,72,60,0
0,42,74,12
0,67,40,0
0,62,75,0
0,62,75,92
0,60,89,16
0,42,57,8
0,67,40,0
0,63,75,0
0,29,111,0
0,63,83,0
0,67,80,0
0,60,97,0
0,63,89,0
0,67,94,0
0,67,61,0
0,42,65,92
0,42,77,92
0,63,75,12
0,42,60,36
0,63,75,0
0,42,63,92
0,53,80,0
0,42,76,8
0,54,57,0
0,62,75,0
0,55,83,0
0,58,84,8
0,42,57,8
0,67,40,0
0,60,80,0
0,42,66,8
0,67,40,0
0,42,75,92
0,67,40,0
0,62,86,0
0,42,58,72
0,67,40,0
0,63,75,0
0,67,57,0
0,62,84,0
0,42,58,8
0,67,40,0
0,63,75,0
0,58,84,0
0,42,73,8
0,67,40,0
0,62,75,0
0,62,75,92
0,67,61,0
0,58,86,0
0,42,61,8
0,63,75,0
0,55,81,0
0,42,62,8
0,55,83,0
0,42,77,8
0,67,64,0
0,63,75,12
0,42,62,72
0,63,75,0
0,29,106,0
0,42,66,40
0,42,70,92
0,54,63,0
0,62,75,0
0,67,59,0
0,29,106,12
0,67,64,0
0,42,57,12
0,67,40,0
0,67,60,0
0,42,57,12
0,67,40,0
0,22,111,0
0,42,77,8
0,67,40,0
0,24,107,0
0,67,83,0
0,63,85,0
0,58,87,0
0,58,84,0
0,63,86,0
0,67,88,0
0,67,62,0
0,67,83,0
0,72,82,0
0,65,81,8
0,70,84,0
0,42,61,8
0,67,40,0
0,65,86,0
0,70,81,0
0,42,61,8
0,67,40,0
0,62,75,0
0,27,108,0
0,67,85,0
0,63,83,0
0,58,87,0
0,58,84,0
0,63,83,0
0,67,94,0
0,72,65,0
0,65,86,0
0,70,82,0
0,60,119,0
0,42,77,8
0,67,40,0
0,62,75,0
0,62,85,0
0,67,80,0
0,63,123,0
0,62,75,8
0,62,82,0
0,67,85,0
0,65,119,0
0,42,59,16
0,67,40,0
0,63,75,0
0,29,109,0
0,67,87,0
0,63,86,0
0,60,86,0
0,60,89,0
0,63,80,0
0,67,97,0
0,70,61,0
0,63,121,0
0,42,64,8
0,62,85,0
0,67,81,0
0,42,76,92
0,63,75,24
0,60,118,0
0,42,64,8
0,63,75,0
0,63,118,0
0,42,60,92
0,53,81,0
0,42,78,8
0,54,63,0
0,62,75,0
0,55,82,0
0,58,83,8
0,42,60,8
0,67,40,0
0,60,80,0
0,42,63,8
0,67,40,0
0,42,73,92
0,67,40,0
0,62,80,0
0,42,57,8
0,67,40,0
0,63,75,0
0,70,59,0
0,63,83,0
0,42,66,8
0,67,40,0
0,63,75,0
0,62,86,0
0,42,77,8
0,67,40,0
0,62,75,0
0,62,75,16
0,70,62,0
0,58,86,0
0,63,122,0
0,42,60,8
0,63,75,0
0,55,82,0
0,62,121,0
0,42,65,16
0,63,118,0
0,42,73,16
0,70,59,0
0,62,121,0
0,63,75,12
0,42,62,92
0,63,75,0
0,31,111,0
0,42,66,60
0,32,109,0
0,42,66,32
0,42,76,60
0,54,63,0
0,62,75,0
0,31,111,0
0,70,59,0
0,42,65,0
0,29,107,0
0,70,63,0
0,46,99,12
0,67,40,0
0,70,59,0
0,67,40,12
0,22,106,0
0,42,76,0
0,67,40,0
0,24,113,0
0,67,80,0
0,63,85,0
0,58,88,0
0,58,96,0
0,63,84,0
0,67,82,0
0,67,64,0
0,79,62,0
0,84,70,0
0,87,66,0
0,42,57,16
0,67,40,0
0,42,60,16
0,67,40,0
0,62,75,0
0,27,107,0
0,67,81,0
0,63,80,0
0,58,84,0
0,58,97,0
0,63,91,0
0,67,94,0
0,72,64,0
0,36,106,12
0,42,75,0
0,67,40,0
0,62,75,0
0,62,75,48
0,42,60,20
0,67,40,0
0,63,75,0
0,29,110,0
0,67,82,0
0,63,81,0
0,60,85,0
0,60,92,0
0,63,94,0
0,67,90,0
0,67,65,0
0,42,66,48
0,42,79,48
0,63,75,48
0,42,64,48
0,63,75,0
0,42,59,48
0,53,82,0
0,36,108,8
0,42,78,0
0,54,63,0
0,62,75,0
0,55,81,0
0,58,80,8
0,42,60,8
0,67,40,0
0,75,82,0
0,60,80,0
0,42,57,8
0,67,40,0
0,67,82,0
0,42,79,8
0,67,40,0
0,68,83,0
0,62,83,0
0,75,84,8
0,42,65,8
0,67,40,0
0,63,75,0
0,67,85,0
0,67,62,0
0,62,83,0
0,42,57,8
0,67,40,0
0,63,75,0
0,68,86,0
0,58,80,0
0,36,108,4
0,42,77,0
0,67,40,0
0,62,75,0
0,75,87,0
0,62,75,8
0,67,88,0
0,67,65,0
0,58,86,0
0,42,59,8
0,63,75,0
0,68,89,0
0,55,86,0
0,42,57,8
0,75,90,0
0,55,86,0
0,42,79,8
0,67,91,0
0,67,63,0
0,63,75,8
0,68,92,0
0,42,65,8
0,63,75,0
0,29,109,0
0,75,93,0
0,42,63,8
0,67,94,0
0,36,108,8
0,42,77,0
0,54,63,0
0,62,75,0
0,68,94,0
0,67,65,0
0,63,116,0
0,29,109,8
0,75,95,0
0,67,65,0
0,63,121,0
0,42,60,8
0,67,40,0
0,67,96,0
0,67,64,0
0,62,122,0
0,42,57,8
0,67,40,0
0,22,107,0
0,68,97,0
0,60,122,0
0,42,79,8
0,67,40,0
0,24,113,0
0,67,85,0
0,63,80,0
0,58,84,0
0,58,88,0
0,63,93,0
0,67,84,0
0,75,98,0
0,67,62,0
0,67,80,0
0,72,81,0
0,62,116,0
0,65,84,8
0,70,85,0
0,42,59,8
0,67,40,0
0,65,82,0
0,70,80,0
0,42,66,8
0,67,40,0
0,62,75,0
0,27,111,0
0,67,88,0
0,63,82,0
0,58,82,0
0,58,85,0
0,63,91,0
0,67,98,0
0,72,65,0
0,65,80,0
0,70,85,0
0,36,104,8
0,42,75,0
0,67,40,0
0,62,75,0
0,62,84,0
0,67,85,0
0,62,75,8
0,62,86,0
0,67,80,0
0,42,60,8
0,67,40,0
0,63,75,0
0,29,111,0
0,67,83,0
0,63,88,0
0,60,87,0
0,60,93,0
0,63,91,0
0,67,96,0
0,70,63,0
0,60,119,0
0,42,57,16
0,62,85,0
0,67,80,0
0,58,122,0
0,42,72,16
0,60,119,0
0,63,75,16
0,58,120,0
0,42,59,8
0,63,75,0
0,55,116,0
0,42,58,92
0,53,80,0
0,36,107,8
0,42,75,0
0,54,63,0
0,62,75,0
0,55,81,0
0,55,119,0
0,58,80,8
0,42,64,8
0,67,40,0
0,60,84,0
0,42,65,8
0,67,40,0
0,42,76,16
0,67,40,0
0,62,85,0
0,42,66,8
0,67,40,0
0,63,75,0
0,70,60,0
0,63,81,0
0,42,65,8
0,67,40,0
0,63,75,0
0,62,81,0
0,36,103,8
0,42,71,0
0,67,40,0
0,62,75,0
0,62,75,92
0,70,61,0
0,58,86,0
0,42,61,8
0,63,75,0
0,55,85,0
0,42,63,8
0,55,82,0
0,42,70,8
0,70,58,0
0,63,75,12
0,42,59,92
0,63,75,0
0,70,63,0
0,42,57,12
0,36,98,92
0,42,72,0
0,54,63,0
0,62,75,0
0,70,64,0
0,42,64,188
0,67,40,0
0,42,66,8
0,67,40,0
0,36,113,4
0,42,77,0
0,49,104,0
0,67,40,0
0,34,113,0
0,61,89,0
0,65,80,0
0,56,85,0
0,56,94,0
0,61,84,0
0,65,92,0
0,65,62,0
0,61,122,0
0,42,57,188
0,36,99,16
0,42,59,0
0,49,108,0
0,67,40,0
0,62,75,0
0,36,110,0
0,63,87,0
0,67,85,0
0,58,84,0
0,58,87,0
0,63,83,0
0,67,82,0
0,67,58,0
0,60,117,0
0,42,74,12
0,62,75,0
0,62,75,36
0,36,109,16
0,42,63,0
0,49,92,0
0,67,40,0
0,63,75,0
0,37,110,0
0,68,88,0
0,65,86,0
0,60,88,0
0,60,80,0
0,65,97,0
0,68,79,0
0,68,65,0
0,56,120,0
0,42,66,92
0,42,73,92
0,42,64,188
0,42,64,92
0,36,102,92
0,42,73,0
0,54,63,0
0,63,75,0
0,42,64,188
0,67,40,0
0,42,57,20
0,67,40,0
0,42,75,0
0,67,40,0
0,39,111,0
0,73,89,0
0,68,84,0
0,65,88,0
0,65,91,0
0,68,86,0
0,73,91,0
0,68,65,0
0,36,99,188
0,42,63,0
0,42,63,92
0,42,71,92
0,36,95,92
0,42,61,92
0,42,62,92
0,36,102,92
0,42,78,0
0,60,123,0
0,42,62,188
0,38,107,16
0,42,63,0
0,61,119,0
0,38,96,92
0,42,78,0
0,54,63,0
0,65,85,0
0,70,80,0
0,46,108,8
0,63,123,0
0,36,125,8
0,42,71,0
0,49,98,0
0,67,40,0
0,32,114,0
0,60,89,0
0,63,89,0
0,55,80,0
0,55,85,0
0,60,81,0
0,63,90,0
0,60,61,0
0,63,63,0
0,67,57,0
0,60,122,0
0,42,65,20
0,67,40,0
0,36,92,44
0,42,61,0
0,67,40,0
0,62,75,0
0,32,111,0
0,60,63,0
0,63,61,0
0,67,59,0
0,38,111,12
0,42,74,0
0,67,40,0
0,62,75,0
0,60,63,0
0,63,59,0
0,67,56,0
0,62,75,0
0,36,99,92
0,42,63,0
0,67,40,0
0,63,75,0
0,60,65,0
0,63,65,0
0,67,58,0
0,42,62,92
0,44,106,0
0,36,113,92
0,42,74,0
0,58,84,0
0,63,75,8
0,60,81,0
0,42,57,8
0,63,81,0
0,63,75,8
0,58,86,0
0,38,96,8
0,42,75,0
0,54,63,0
0,62,75,0
0,60,81,0
0,63,81,8
0,46,108,8
0,67,40,0
0,32,114,0
0,67,40,20
0,36,125,24
0,42,70,0
0,67,40,0
0,37,112,0
0,63,89,0
0,59,83,0
0,54,84,0
0,54,95,0
0,59,90,0
0,63,93,0
0,59,63,0
0,63,61,0
0,66,56,0
0,42,58,20
0,67,40,0
0,36,92,16
0,42,58,0
0,67,40,0
0,62,75,0
0,32,114,0
0,59,59,0
0,63,65,0
0,66,59,0
0,38,109,12
0,42,73,0
0,67,40,0
0,62,75,0
0,59,57,0
0,63,59,0
0,66,62,0
0,62,75,12
0,36,105,92
0,42,63,0
0,67,40,0
0,63,75,0
0,37,107,0
0,59,60,0
0,63,57,0
0,66,60,0
0,42,59,92
0,36,115,92
0,42,75,0
0,65,118,0
0,63,75,16
0,66,122,0
0,42,63,16
0,65,117,0
0,63,75,92
0,38,115,16
0,42,76,0
0,54,63,0
0,62,75,0
0,63,116,0
0,46,107,16
0,67,40,0
0,61,119,0
0,67,40,20
0,36,127,16
0,42,70,0
0,67,40,0
0,30,112,0
0,65,82,0
0,61,81,0
0,58,86,0
0,58,97,0
0,61,95,0
0,65,85,0
0,58,58,0
0,61,60,0
0,65,61,0
0,58,119,0
0,61,116,16
0,42,64,16
0,67,40,0
0,58,117,0
0,36,107,48
0,42,58,0
0,67,40,0
0,62,75,0
0,30,109,0
0,58,65,0
0,61,56,0
0,65,65,0
0,38,114,12
0,42,72,0
0,67,40,0
0,62,75,0
0,58,56,0
0,61,64,0
0,65,59,0
0,62,75,12
0,36,107,84
0,42,62,0
0,67,40,0
0,63,75,0
0,42,106,0
0,58,64,0
0,61,62,0
0,65,65,0
0,42,61,92
0,36,103,92
0,42,72,0
0,56,80,0
0,63,75,8
0,58,82,0
0,42,60,8
0,61,83,0
0,63,75,8
0,56,83,0
0,38,98,8
0,42,77,0
0,54,63,0
0,62,75,0
0,58,86,0
0,61,85,8
0,46,105,8
0,67,40,0
0,67,40,16
0,36,121,32
0,42,73,0
0,67,40,0
0,36,105,0
0,70,88,0
0,62,85,0
0,65,86,0
0,62,82,0
0,65,94,0
0,70,89,0
0,58,56,0
0,62,60,0
0,65,61,0
0,42,64,188
0,67,40,0
0,36,95,40
0,42,57,0
0,67,40,0
0,62,75,0
0,36,110,0
0,38,114,92
0,42,71,0
0,67,40,0
0,62,75,0
0,62,75,28
0,36,96,92
0,42,63,0
0,67,40,0
0,63,75,0
0,24,108,0
0,42,62,20
0,36,118,20
0,42,76,0
0,58,85,0
0,68,89,0
0,61,89,0
0,58,92,0
0,61,82,0
0,68,89,0
0,61,60,0
0,64,58,0
0,68,58,0
0,64,119,0
0,63,75,92
0,42,64,16
0,63,75,92
0,60,118,0
0,38,98,92
0,42,76,0
0,54,63,0
0,62,75,0
0,46,100,16
0,67,40,0
0,36,110,0
0,58,117,0
0,67,40,20
0,36,111,16
0,42,72,0
0,67,40,0
0,41,110,0
0,60,85,0
0,63,84,0
0,67,86,0
0,60,91,0
0,63,92,0
0,67,79,0
0,60,64,0
0,63,63,0
0,67,63,0
0,58,120,0
0,42,60,20
0,67,40,0
0,36,107,48
0,42,66,0
0,67,40,0
0,62,75,0
0,41,105,0
0,60,65,0
0,63,58,0
0,67,63,0
0,38,108,12
0,42,72,0
0,67,40,0
0,62,75,0
0,60,57,0
0,63,62,0
0,67,56,0
0,62,75,12
0,36,96,16
0,42,65,0
0,67,40,0
0,63,75,0
0,41,108,0
0,60,58,0
0,63,61,0
0,67,64,0
0,60,122,0
0,42,63,16
0,58,120,0
0,36,114,16
0,42,77,0
0,58,84,0
0,56,118,0
0,63,75,8
0,60,84,0
0,42,65,8
0,68,89,0
0,75,80,0
0,72,87,0
0,68,95,0
0,72,87,0
0,75,84,0
0,60,62,0
0,63,61,0
0,67,58,0
0,63,83,0
0,63,75,8
0,58,81,0
0,38,106,8
0,42,73,0
0,54,63,0
0,62,75,0
0,60,84,0
0,63,81,8
0,46,106,8
0,67,40,0
0,67,40,20
0,39,114,0
0,36,118,16
0,42,76,0
0,67,40,0
0,34,111,0
0,60,88,0
0,65,88,0
0,56,80,0
0,56,96,0
0,60,85,0
0,65,93,0
0,60,63,0
0,63,62,0
0,65,60,0
0,65,80,0
0,42,61,104
0,67,40,0
0,58,121,44
0,36,90,32
0,42,63,0
0,67,40,0
0,62,75,0
0,34,110,0
0,38,114,92
0,42,77,0
0,67,40,0
0,62,75,0
0,62,75,48
0,60,116,28
0,36,109,4
0,42,61,0
0,67,40,0
0,63,75,0
0,46,107,0
0,42,60,20
0,36,103,24
0,42,76,0
0,67,89,0
0,62,80,0
0,59,89,0
0,64,86,0
0,59,92,0
0,62,97,0
0,64,82,0
0,67,80,0
0,58,65,0
0,62,63,0
0,64,64,0
0,62,117,0
0,63,75,92
0,42,66,92
0,63,75,20
0,38,104,20
0,42,75,0
0,54,63,0
0,62,75,0
0,68,86,0
0,65,80,0
0,59,81,0
0,62,84,0
0,59,94,0
0,62,82,0
0,65,92,0
0,68,82,0
0,58,63,0
0,62,58,0
0,65,62,0
0,46,91,16
0,67,40,0
0,34,108,0
0,60,116,0
0,67,40,4
0,36,107,0
0,36,118,4
0,42,71,0
0,67,40,0
0,39,113,0
0,67,80,0
0,70,82,0
0,62,82,0
0,62,90,0
0,67,81,0
0,70,89,0
0,58,63,0
0,62,57,0
0,67,63,0
0,58,116,52
0,42,62,20
0,67,40,0
0,55,121,0
0,36,106,64
0,42,63,0
0,67,40,0
0,62,75,0
0,39,110,0
0,58,61,0
0,62,60,0
0,67,61,0
0,38,103,12
0,42,74,0
0,67,40,0
0,62,75,0
0,58,62,0
0,62,62,0
0,67,65,0
0,62,75,12
0,36,92,56
0,42,60,0
0,67,40,0
0,63,75,0
0,39,110,0
0,58,58,0
0,62,58,0
0,67,63,0
0,42,63,92
0,36,110,92
0,42,75,0
0,62,83,0
0,63,75,8
0,42,60,92
0,65,85,0
0,63,75,8
0,38,111,92
0,42,70,0
0,54,63,0
0,62,75,0
0,62,80,92
0,46,98,8
0,67,40,0
0,67,40,16
0,36,124,24
0,42,74,0
0,67,40,0
0,39,109,0
0,68,85,0
0,61,82,0
0,65,83,0
0,61,86,0
