track,note,velocity,time
1,46,87,20924
1,42,83,188
1,36,108,188
1,42,83,0
1,42,82,188
1,37,99,188
1,42,84,0
1,42,85,188
1,36,110,188
1,42,82,0
1,42,82,188
1,37,97,188
1,42,85,0
1,42,84,188
1,36,107,92
1,36,111,92
1,42,84,0
1,42,86,188
1,37,100,188
1,42,84,0
1,42,83,188
1,36,110,188
1,42,82,0
1,42,86,188
1,37,97,188
1,42,83,0
1,42,86,188
1,36,110,92
1,36,108,92
1,42,82,0
1,42,83,188
1,37,100,188
1,42,83,0
1,42,86,188
1,36,108,188
1,42,84,0
1,42,84,188
1,37,99,188
1,42,86,0
1,42,83,188
1,36,111,92
1,36,108,92
1,42,83,0
1,42,83,188
1,37,101,188
1,42,86,0
1,42,82,188
1,36,107,188
1,42,84,0
1,42,85,188
1,37,100,188
1,42,84,0
1,46,85,92
1,42,85,92
1,46,89,92
1,36,108,92
1,42,85,0
1,51,98,0
1,37,97,380
1,42,82,0
1,36,111,380
1,42,82,0
1,42,86,380
1,36,109,380
1,42,82,0
1,37,97,380
1,42,82,0
1,36,110,380
1,42,85,0
1,42,83,380
1,36,108,284
1,36,109,92
1,42,83,0
1,37,101,380
1,42,82,0
1,36,110,380
1,42,85,0
1,42,83,380
1,36,108,284
1,36,111,92
1,42,84,0
1,37,99,380
1,42,83,0
1,36,110,380
1,42,84,0
1,42,86,380
1,46,85,188
1,36,111,92
1,36,110,92
1,42,84,0
1,37,99,380
1,42,82,0
1,36,107,380
1,42,85,0
1,42,86,380
1,36,110,380
1,42,86,0
1,37,98,380
1,42,82,0
1,36,110,380
1,42,83,0
1,42,86,380
1,46,87,188
1,36,109,92
1,36,109,92
1,42,84,0
1,37,98,380
1,42,82,0
1,36,108,380
1,42,85,0
1,42,86,380
1,46,87,188
1,36,107,92
1,36,111,92
1,42,86,0
1,37,98,380
1,42,85,0
1,36,107,380
1,42,86,0
1,42,86,380
1,42,86,92
1,46,89,92
1,36,108,92
1,42,82,0
1,36,108,92
1,42,83,0
1,42,83,188
1,37,101,188
1,42,83,0
1,42,82,188
1,36,111,188
1,42,83,0
1,42,84,188
1,37,98,188
1,42,85,0
1,42,85,188
1,36,108,92
1,36,108,92
1,42,83,0
1,42,86,188
1,37,101,188
1,42,86,0
1,42,86,188
1,36,107,188
1,42,84,0
1,42,83,188
1,37,97,188
1,42,83,0
1,42,83,188
1,36,108,92
1,36,107,92
1,42,85,0
1,42,84,188
1,37,98,188
1,42,83,0
1,42,82,188
1,36,110,188
1,42,83,0
1,42,82,188
1,37,98,188
1,42,82,0
1,42,86,188
1,36,107,92
1,36,107,92
1,42,84,0
1,42,83,188
1,37,101,188
1,42,82,0
1,42,86,188
1,36,108,188
1,42,85,0
1,51,97,92
1,51,101,92
1,51,98,92
1,37,98,92
1,51,97,0
1,36,108,188
1,51,97,0
1,36,109,188
1,49,99,0
1,42,85,92
1,42,83,92
1,42,86,92
1,38,108,92
1,42,82,0
1,42,86,92
1,42,82,92
1,36,111,92
1,42,85,0
1,36,108,92
1,42,84,0
1,42,86,92
1,42,84,92
1,42,86,92
1,38,108,92
1,42,85,0
1,42,82,92
1,42,82,92
1,42,84,92
1,36,111,92
1,42,82,0
1,42,82,92
1,42,83,92
1,42,83,92
1,38,110,92
1,42,84,0
1,36,108,92
1,42,83,0
1,42,83,92
1,46,89,92
1,36,110,92
1,42,84,0
1,42,86,92
1,42,83,92
1,42,84,92
1,38,107,92
1,42,85,0
1,36,109,92
1,46,86,0
1,42,86,92
1,42,85,92
1,36,109,92
1,42,84,0
1,42,82,92
1,42,86,92
1,42,83,92
1,38,107,92
1,42,82,0
1,42,83,92
1,42,83,92
1,36,108,92
1,42,84,0
1,36,109,92
1,42,83,0
1,42,83,92
1,42,82,92
1,42,85,92
1,38,110,92
1,42,82,0
1,42,83,92
1,42,84,92
1,42,83,92
1,36,108,92
1,42,86,0
1,42,85,92
1,42,82,92
1,42,82,92
1,38,107,92
1,42,86,0
1,36,107,92
1,42,83,0
1,42,82,92
1,36,107,92
1,42,86,0
1,42,82,92
1,36,107,92
1,42,84,0
1,42,85,92
1,36,108,92
1,42,86,0
1,38,109,92
1,42,84,0
1,46,86,92
1,42,82,92
1,36,111,92
1,42,83,0
1,36,110,92
1,42,84,0
1,42,83,92
1,42,84,92
1,42,84,92
1,38,107,92
1,42,85,0
1,42,82,92
1,42,86,92
1,42,85,92
1,36,111,92
1,42,86,0
1,42,84,92
1,42,85,92
1,42,85,92
1,38,111,92
1,42,86,0
1,42,86,92
1,42,86,92
1,42,83,92
1,36,110,92
1,42,82,0
1,42,82,92
1,42,82,92
1,42,82,92
1,38,110,92
1,42,86,0
1,42,86,92
1,42,86,92
1,42,86,92
1,36,109,92
1,42,83,0
1,42,86,92
1,42,86,92
1,42,84,92
1,37,99,92
1,42,86,0
1,42,86,92
1,42,85,92
1,42,85,92
1,36,107,92
1,42,83,0
1,42,83,92
1,42,83,92
1,42,85,92
1,37,97,92
1,42,86,0
1,42,84,92
1,42,84,92
1,46,87,92
1,36,111,92
1,42,85,0
1,42,82,92
1,42,83,92
1,42,83,92
1,37,100,92
1,42,83,0
1,42,84,92
1,42,83,92
1,42,82,92
1,36,107,92
1,42,86,0
1,42,86,92
1,42,83,92
1,42,84,92
1,37,98,92
1,42,86,0
1,42,86,92
1,42,82,92
1,46,85,92
1,36,109,92
1,42,86,0
1,42,84,92
1,42,85,92
1,42,82,92
1,37,100,92
1,42,83,0
1,42,84,92
1,36,108,92
1,42,82,0
1,42,86,92
1,36,107,92
1,42,82,0
1,42,83,92
1,36,109,92
1,42,85,0
1,42,83,92
1,37,99,92
1,42,84,0
1,42,85,92
1,42,84,92
1,36,110,92
1,42,86,0
1,36,110,92
1,42,86,0
1,42,82,92
1,42,82,92
1,42,83,92
1,37,101,92
1,42,83,0
1,42,84,92
1,42,86,92
1,42,85,92
1,36,109,92
1,42,85,0
1,42,84,92
1,42,84,92
1,42,85,92
1,37,101,92
1,42,82,0
1,42,86,92
1,42,84,92
1,36,110,92
1,42,85,0
1,36,107,92
1,42,85,0
1,42,82,92
1,42,82,92
1,42,84,92
1,37,97,92
1,42,83,0
1,46,85,92
1,42,83,92
1,42,86,92
1,36,109,92
1,42,82,0
1,42,84,188
1,37,101,188
1,42,83,0
1,42,84,188
1,36,110,92
1,36,108,92
1,42,86,0
1,42,84,188
1,37,98,188
1,42,85,0
1,42,83,188
1,36,109,92
1,36,111,92
1,42,85,0
1,42,86,188
1,37,97,188
1,42,84,0
1,42,86,188
1,36,108,92
1,36,107,92
1,42,82,0
1,42,83,188
1,37,100,188
1,42,82,0
1,42,82,188
1,36,111,92
1,36,108,92
1,42,85,0
1,42,85,188
1,37,98,188
1,42,86,0
1,42,85,188
1,36,109,92
1,36,109,92
1,42,85,0
1,42,85,188
1,37,100,188
1,42,82,0
1,42,85,188
1,36,111,92
1,36,107,92
1,42,84,0
1,42,86,188
1,37,97,188
1,42,86,0
1,42,86,188
1,36,108,92
1,36,110,92
1,42,85,0
1,42,82,188
1,37,98,188
1,42,85,0
1,46,87,92
1,42,85,92
1,36,110,92
1,36,108,92
1,42,86,0
1,42,84,188
1,37,97,188
1,42,86,0
1,42,82,188
1,36,109,92
1,36,108,92
1,42,85,0
1,42,85,188
1,37,101,188
1,42,86,0
1,42,86,188
1,36,108,92
1,36,109,92
1,42,85,0
1,42,84,188
1,37,101,188
1,42,84,0
1,42,82,188
1,36,109,92
1,36,109,92
1,42,83,0
1,42,82,188
1,37,98,188
1,42,85,0
1,42,86,188
1,36,109,92
1,36,110,92
1,42,84,0
1,42,82,188
1,37,97,188
1,42,85,0
1,42,84,188
1,36,107,92
1,36,108,92
1,42,84,0
1,42,82,188
1,37,100,188
1,42,85,0
1,42,86,188
1,36,111,92
1,36,108,92
1,42,84,0
1,42,83,92
1,42,85,92
1,37,100,188
1,42,83,0
1,42,84,188
1,36,110,188
1,42,82,0
1,42,83,92
1,42,82,92
1,37,98,188
1,46,89,0
1,42,85,188
1,42,86,92
1,59,98,92
1,36,110,764
1,42,84,0
1,42,83,92
1,42,85,92
1,42,82,92
1,42,82,92
1,42,82,92
1,42,84,92
1,36,108,92
1,42,82,0
1,36,110,92
1,42,84,0
1,42,83,92
1,42,86,92
1,42,86,92
1,42,83,92
1,42,82,92
1,42,83,92
1,36,107,92
1,42,83,0
1,36,108,92
1,42,82,0
1,42,86,92
1,42,83,92
1,42,84,92
1,42,84,92
1,42,85,92
1,42,86,92
1,42,86,92
1,36,108,92
1,42,85,0
1,51,99,0
1,42,83,92
1,42,83,92
1,42,84,92
1,42,68,92
1,42,58,92
1,46,61,92
1,36,110,572
1,51,99,0
2,70,100,75648
2,70,97,764
2,70,98,764
3,29,106,9180
3,29,109,130
3,33,106,20
3,34,109,26
3,34,107,100
3,36,108,46
3,29,108,50
3,29,106,102
3,33,106,40
3,29,107,140
3,31,107,56
3,33,108,52
3,34,106,42
3,36,108,32
3,36,108,92
3,29,110,56
3,29,106,74
3,33,106,54
3,33,109,54
3,34,106,50
3,34,106,90
3,36,107,52
3,36,110,0
3,36,107,142
3,29,106,44
3,29,110,102
3,33,110,58
3,29,106,132
3,33,107,44
3,36,108,48
3,34,110,48
3,36,106,54
3,36,109,128
3,29,106,60
3,29,107,74
3,33,107,54
3,33,106,68
3,34,107,52
3,36,109,56
3,36,110,112
3,29,110,54
3,29,108,96
3,33,106,46
3,33,110,110
3,34,109,46
3,36,108,80
3,36,106,126
3,29,106,56
3,29,109,50
3,33,110,42
3,33,107,80
3,34,109,56
3,34,106,78
3,36,106,58
3,36,110,98
3,29,106,54
3,29,107,88
3,33,108,46
3,29,108,50
3,31,110,58
3,33,106,46
3,34,110,26
3,36,107,36
3,36,107,108
3,29,109,56
3,29,110,66
3,33,108,42
3,33,106,102
3,34,108,52
3,34,106,112
3,36,107,64
3,36,106,44
3,36,109,144
3,29,109,50
3,29,109,104
3,33,109,54
3,29,109,50
3,33,110,52
3,36,108,58
3,34,107,44
3,36,106,36
3,36,110,130
3,29,107,56
3,29,110,62
3,33,109,50
3,33,106,94
3,34,109,52
3,36,107,56
3,36,106,98
3,29,108,50
3,29,108,94
3,33,106,52
3,33,110,78
3,34,107,48
3,36,106,68
3,29,110,102
3,34,110,110
3,34,107,106
3,36,106,52
3,36,109,84
3,41,108,42
3,40,107,30
3,38,109,60
3,33,109,22
3,34,109,48
3,34,108,130
3,36,109,60
3,36,109,68
3,36,108,62
3,36,107,60
3,41,106,56
3,40,108,10
3,38,110,4
3,40,109,12
3,41,107,192
3,38,108,16
3,34,108,38
3,34,106,138
3,36,110,56
3,36,106,94
3,41,106,44
3,40,110,24
3,38,108,16
3,36,107,102
3,38,110,16
3,36,109,48
3,38,106,26
3,34,107,18
3,34,109,52
3,34,107,76
3,34,106,116
3,34,106,196
3,34,109,66
3,36,110,66
3,36,110,134
3,36,106,62
3,29,108,28
3,29,110,86
3,33,110,42
3,33,110,74
3,34,109,50
3,34,106,68
3,36,109,52
3,36,107,54
3,36,108,154
3,29,109,48
3,29,108,82
3,33,107,56
3,33,110,90
3,34,109,54
3,34,107,68
3,36,110,62
3,36,107,66
3,29,110,58
3,29,108,72
3,33,109,40
3,33,110,68
3,34,106,52
3,34,106,84
3,36,106,60
3,36,107,54
3,36,110,150
3,29,110,30
3,29,107,52
3,33,107,48
3,33,107,62
3,34,109,52
3,34,109,82
3,36,108,54
3,29,109,74
3,29,106,76
3,33,106,40
3,33,108,84
3,34,110,48
3,36,106,30
3,29,110,396
4,69,98,27592
4,65,97,0
4,60,101,0
4,69,97,96
4,64,100,0
4,60,98,0
4,70,98,96
4,65,97,0
4,62,100,0
4,67,99,96
4,64,100,0
4,60,100,0
4,69,101,96
4,65,99,0
4,60,100,0
4,69,98,96
4,64,99,0
4,60,99,0
4,70,99,96
4,65,100,0
4,62,99,0
4,70,97,0
4,65,99,0
4,62,100,0
4,60,98,96
4,67,98,0
4,64,100,0
4,69,101,96
4,65,100,0
4,60,99,0
4,69,97,96
4,64,101,0
4,60,100,0
4,70,100,96
4,65,100,0
4,62,100,0
4,67,100,96
4,60,100,0
4,64,101,0
4,69,101,96
4,65,99,0
4,60,100,0
4,69,99,96
4,65,100,0
4,60,101,0
4,64,98,96
4,60,100,0
4,69,99,0
4,65,100,96
4,62,100,0
4,70,98,0
4,67,99,96
4,60,100,0
4,64,101,0
4,69,98,96
4,65,100,0
4,60,98,0
4,64,100,96
4,60,101,0
4,70,99,96
4,62,99,0
4,65,98,0
4,67,97,96
4,60,99,0
4,64,98,0
4,69,101,96
4,65,99,0
4,60,97,0
4,64,98,96
4,60,98,0
4,69,100,0
4,65,101,96
4,70,97,0
4,62,101,0
4,67,101,96
4,64,97,0
4,60,101,0
4,65,98,96
4,69,99,0
4,60,101,0
4,70,98,96
4,65,97,0
4,62,99,0
4,67,99,96
4,64,99,0
4,72,98,0
4,70,100,96
4,67,101,0
4,64,100,0
4,72,101,96
4,69,100,0
4,65,99,0
4,67,100,96
4,72,101,0
4,64,98,0
4,65,101,0
4,74,100,0
4,69,99,0
4,74,97,96
4,70,97,0
4,65,101,0
4,67,100,96
4,72,99,0
4,64,98,0
4,72,98,96
4,69,97,0
4,65,97,0
4,72,101,96
4,67,100,0
4,64,100,0
4,74,98,96
4,69,101,0
4,65,100,0
4,67,99,96
4,64,98,0
4,72,98,0
4,72,99,96
4,69,100,0
4,65,99,0
4,74,100,96
4,70,99,0
4,65,98,0
4,74,100,96
4,70,101,0
4,65,97,0
4,72,97,96
4,67,101,0
4,64,99,0
4,72,97,96
4,69,100,0
4,65,97,0
4,67,98,96
4,64,101,0
4,72,100,0
4,74,97,96
4,65,98,0
4,69,97,0
4,72,97,96
4,67,100,0
4,64,101,0
4,74,99,0
4,69,100,0
4,65,99,0
4,76,101,576
4,74,98,0
4,64,97,96
4,72,100,0
4,67,97,0
4,74,100,0
4,69,97,0
4,65,98,0
4,74,99,0
4,70,100,0
4,65,99,0
4,65,101,0
4,70,98,0
4,74,97,0
4,64,98,96
4,67,101,0
4,72,101,0
4,62,101,96
4,70,100,0
4,67,98,0
4,65,101,96
4,69,97,0
4,60,101,0
4,64,97,0
4,69,99,0
4,60,99,0
4,70,99,96
4,65,98,0
4,62,97,0
4,67,97,96
4,64,98,0
4,60,97,0
4,69,97,96
4,65,101,0
4,60,101,0
4,69,98,96
4,64,99,0
4,60,97,0
4,65,100,96
4,70,100,0
4,62,98,0
4,72,97,96
4,67,101,0
4,64,99,0
4,70,101,96
4,67,98,0
4,62,97,0
4,60,101,192
4,69,97,0
4,65,97,0
4,64,99,96
4,60,98,0
4,69,99,0
4,70,99,96
4,65,99,0
4,62,97,0
4,67,101,96
4,60,99,0
4,64,101,0
4,69,100,96
4,65,97,0
4,60,99,0
4,69,98,96
4,64,99,0
4,60,97,0
4,65,100,96
4,62,97,0
4,70,97,0
4,60,98,96
4,67,100,0
4,64,99,0
4,65,100,96
4,69,101,0
4,60,101,0
4,69,100,0
4,64,101,0
4,60,98,0
4,70,101,96
4,65,97,0
4,62,101,0
4,72,100,96
4,64,99,0
4,67,97,0
4,72,97,96
4,69,97,0
4,65,97,0
4,77,99,384
4,79,97,0
4,81,98,0
4,72,100,0
4,72,100,0
4,77,101,22
4,79,97,10
4,81,100,22
5,65,99,1844
5,72,99,12
5,67,101,0
5,65,98,12
5,53,101,0
5,60,99,96
5,57,99,12
5,69,99,12
5,65,100,0
5,57,97,192
5,60,98,12
5,65,101,12
5,64,100,12
5,52,97,0
5,60,98,12
5,57,100,12
5,69,101,12
5,64,98,0
5,57,101,192
5,60,97,12
5,64,100,12
5,62,101,12
5,50,99,0
5,60,101,96
5,53,98,12
5,65,99,12
5,62,100,0
5,53,101,12
5,60,100,96
5,62,101,12
5,60,99,12
5,48,99,0
5,55,98,12
5,60,101,96
5,64,97,96
5,55,97,108
5,67,97,12
5,55,98,12
5,65,97,12
