track,note,velocity,time
1,21,119,384
1,21,119,96
1,25,119,96
1,28,119,96
1,31,119,96
1,31,119,96
1,26,119,96
1,26,119,96
1,21,119,96
1,21,119,96
1,25,119,96
1,28,119,96
1,31,119,96
1,31,119,96
1,26,119,96
1,26,119,96
1,21,119,96
1,21,119,96
1,25,119,96
1,28,119,96
1,31,119,96
1,31,119,96
1,26,119,96
1,26,119,96
1,21,119,96
1,21,119,96
1,25,119,96
1,28,119,96
1,31,119,96
1,31,119,96
1,26,119,96
1,26,119,96
1,21,119,96
1,21,119,96
1,25,119,96
1,28,119,96
1,31,119,96
1,31,119,96
1,26,119,96
1,26,119,96
1,21,119,96
1,21,119,96
1,25,119,96
1,28,119,96
1,31,119,96
1,31,119,96
1,26,119,96
1,26,119,96
1,21,119,96
1,21,119,96
1,25,119,96
1,28,119,96
1,31,119,96
1,31,119,96
1,26,119,96
1,26,119,96
1,21,119,96
1,21,119,96
1,25,119,96
1,28,119,96
1,31,119,96
1,31,119,96
1,26,119,96
1,26,119,96
1,21,119,96
1,21,119,96
1,25,119,96
1,28,119,96
1,31,119,96
1,31,119,96
1,26,119,96
1,26,119,96
1,21,119,96
1,21,119,96
1,25,119,96
1,28,119,96
1,31,119,96
1,31,119,96
1,26,119,96
1,26,119,96
1,21,119,96
1,21,119,96
1,25,119,96
1,28,119,96
1,31,119,96
1,31,119,96
1,26,119,96
1,26,119,96
1,21,119,96
1,21,119,96
1,25,119,96
1,28,119,96
1,31,119,96
1,31,119,96
1,26,119,96
1,26,119,96
1,21,119,96
1,21,119,96
1,25,119,96
1,28,119,96
1,24,119,96
1,24,119,96
1,19,119,96
1,19,119,96
1,26,119,96
1,26,119,96
1,30,119,96
1,33,119,96
1,24,119,96
1,24,119,96
1,23,119,96
1,23,119,96
1,26,119,96
1,26,119,96
1,30,119,96
1,33,119,96
1,24,119,96
1,24,119,96
1,23,119,96
1,23,119,96
1,26,119,96
1,26,119,96
1,30,119,96
1,33,119,96
1,24,119,96
1,24,119,96
1,23,119,96
1,23,119,96
1,21,119,96
1,21,119,96
1,25,119,96
1,28,119,96
1,31,119,96
1,31,119,96
1,26,119,96
1,26,119,96
1,21,119,96
1,21,119,96
1,25,119,96
1,28,119,96
1,31,119,96
1,31,119,96
1,26,119,96
1,26,119,96
1,16,119,96
1,28,119,0
1,16,119,0
1,28,119,0
1,24,119,0
1,36,119,0
1,29,119,0
1,36,119,0
1,24,119,0
1,36,119,0
1,26,119,0
1,14,119,0
1,21,119,576
1,21,119,96
1,25,119,96
1,28,119,96
1,31,119,96
1,31,119,96
1,26,119,96
1,26,119,96
1,21,119,96
1,21,119,96
1,25,119,96
1,28,119,96
1,31,119,96
1,31,119,96
1,26,119,96
1,26,119,96
1,21,119,96
1,21,119,96
1,25,119,96
1,28,119,96
1,31,119,96
1,31,119,96
1,26,119,96
1,26,119,96
1,21,119,96
1,21,119,96
1,25,119,96
1,28,119,96
1,31,119,96
1,31,119,96
1,26,119,96
1,26,119,96
1,21,119,96
1,21,119,96
1,25,119,96
1,28,119,96
1,31,119,96
1,31,119,96
1,26,119,96
1,26,119,96
1,21,119,96
1,21,119,96
1,25,119,96
1,28,119,96
1,31,119,96
1,31,119,96
1,26,119,96
1,26,119,96
1,21,119,96
1,21,119,96
1,25,119,96
1,28,119,96
1,31,119,96
1,31,119,96
1,26,119,96
1,26,119,96
1,21,119,96
1,21,119,96
1,25,119,96
1,28,119,96
1,31,119,96
1,31,119,96
1,26,119,96
1,26,119,96
1,21,119,96
1,21,119,96
1,25,119,96
1,28,119,96
1,24,119,96
1,24,119,96
1,19,119,96
1,19,119,96
1,26,119,96
1,26,119,96
1,30,119,96
1,33,119,96
1,24,119,96
1,24,119,96
1,23,119,96
1,23,119,96
1,26,119,96
1,26,119,96
1,30,119,96
1,33,119,96
1,24,119,96
1,24,119,96
1,23,119,96
1,23,119,96
1,26,119,96
1,26,119,96
1,30,119,96
1,33,119,96
1,24,119,96
1,24,119,96
1,23,119,96
1,23,119,96
1,21,119,96
1,21,119,96
1,25,119,96
1,28,119,96
1,31,119,96
1,31,119,96
1,26,119,96
1,26,119,96
1,21,119,96
1,21,119,96
1,25,119,96
1,28,119,96
1,31,119,96
1,31,119,96
1,26,119,96
1,26,119,96
1,16,119,96
1,28,119,0
1,16,119,0
1,28,119,0
1,24,119,0
1,36,119,0
1,29,119,0
1,36,119,0
1,24,119,0
1,36,119,0
1,26,119,0
1,14,119,0
1,21,119,576
1,21,119,96
1,25,119,96
1,28,119,96
1,31,119,96
1,31,119,96
1,26,119,96
1,26,119,96
1,21,119,96
1,21,119,96
1,25,119,96
1,28,119,96
1,31,119,96
1,31,119,96
1,26,119,96
1,26,119,96
1,21,119,96
1,21,119,96
1,25,119,96
1,28,119,96
1,31,119,96
1,31,119,96
1,26,119,96
1,26,119,96
1,21,119,96
1,21,119,96
1,25,119,96
1,28,119,96
1,31,119,96
1,31,119,96
1,26,119,96
1,26,119,96
1,21,119,96
1,21,119,96
1,25,119,96
1,28,119,96
1,31,119,96
1,31,119,96
1,26,119,96
1,26,119,96
1,21,119,96
1,21,119,96
1,25,119,96
1,28,119,96
1,31,119,96
1,31,119,96
1,26,119,96
1,26,119,96
1,21,119,96
1,21,119,96
1,25,119,96
1,28,119,96
1,31,119,96
1,31,119,96
1,26,119,96
1,26,119,96
1,21,119,96
1,21,119,96
1,25,119,96
1,28,119,96
1,31,119,96
1,31,119,96
1,26,119,96
1,26,119,96
1,21,119,96
1,21,119,96
1,25,119,96
1,28,119,96
1,31,119,96
1,31,119,96
1,26,119,96
1,26,119,96
1,21,119,96
1,21,119,96
1,25,119,96
1,28,119,96
1,31,119,96
1,31,119,96
1,26,119,96
1,26,119,96
1,21,119,96
1,21,119,96
1,25,119,96
1,28,119,96
1,31,119,96
1,31,119,96
1,26,119,96
1,26,119,96
1,21,119,96
1,21,119,96
1,25,119,96
1,28,119,96
1,31,119,96
1,31,119,96
1,26,119,96
1,26,119,96
1,21,119,96
1,21,119,96
1,25,119,96
1,28,119,96
1,31,119,96
1,31,119,96
1,26,119,96
1,26,119,96
1,21,119,96
1,21,119,96
1,25,119,96
1,28,119,96
1,31,119,96
1,31,119,96
1,26,119,96
1,26,119,96
1,21,119,96
1,21,119,96
1,25,119,96
1,28,119,96
1,31,119,96
1,31,119,96
1,26,119,96
1,26,119,96
1,21,119,96
1,21,119,96
1,25,119,96
1,28,119,96
1,31,119,96
1,31,119,96
1,26,119,96
1,26,119,96
1,21,119,96
1,21,119,96
1,25,119,96
1,28,119,96
1,31,119,96
1,31,119,96
1,26,119,96
1,26,119,96
1,21,119,96
1,21,119,96
1,25,119,96
1,28,119,96
1,31,119,96
1,31,119,96
1,26,119,96
1,26,119,96
1,21,119,96
1,21,119,96
1,25,119,96
1,28,119,96
1,31,119,96
1,31,119,96
1,26,119,96
1,26,119,96
1,21,119,96
1,21,119,96
1,25,119,96
1,28,119,96
1,31,119,96
1,31,119,96
1,26,119,96
1,26,119,96
1,21,119,96
1,21,119,96
1,25,119,96
1,28,119,96
1,31,119,96
1,31,119,96
1,26,119,96
1,26,119,96
1,21,119,96
1,21,119,96
1,25,119,96
1,28,119,96
1,31,119,96
1,31,119,96
1,26,119,96
1,26,119,96
1,21,119,96
1,21,119,96
1,25,119,96
1,28,119,96
1,31,119,96
1,31,119,96
1,26,119,96
1,26,119,96
1,21,119,96
1,21,119,96
1,25,119,96
1,28,119,96
1,31,119,96
1,31,119,96
1,26,119,96
1,26,119,96
1,21,119,96
1,21,119,96
1,25,119,96
1,28,119,96
1,31,119,96
1,31,119,96
1,26,119,96
1,26,119,96
1,21,119,96
1,21,119,96
1,25,119,96
1,28,119,96
1,31,119,96
1,31,119,96
1,26,119,96
1,26,119,96
1,21,119,96
1,21,119,96
1,25,119,96
1,28,119,96
1,31,119,96
1,31,119,96
1,26,119,96
1,26,119,96
1,21,119,96
1,21,119,96
1,25,119,96
1,28,119,96
1,31,119,96
1,31,119,96
1,26,119,96
1,26,119,96
1,21,119,96
1,21,119,96
1,25,119,96
1,28,119,96
1,31,119,96
1,31,119,96
1,26,119,96
1,26,119,96
1,21,119,96
1,21,119,96
1,25,119,96
1,28,119,96
1,31,119,96
1,31,119,96
1,26,119,96
1,26,119,96
1,21,119,96
1,21,119,96
1,25,119,96
1,28,119,96
1,31,119,96
1,31,119,96
1,26,119,96
1,26,119,96
1,21,119,96
1,21,119,96
1,25,119,96
1,28,119,96
1,31,119,96
1,31,119,96
1,26,119,96
1,26,119,96
1,21,119,96
1,21,119,96
1,25,119,96
1,28,119,96
1,31,119,96
1,31,119,96
1,26,119,96
1,26,119,96
1,21,119,96
1,21,119,96
1,25,119,96
1,28,119,96
1,31,119,96
1,31,119,96
1,26,119,96
1,26,119,96
1,21,119,96
1,21,119,96
1,25,119,96
1,28,119,96
1,31,119,96
1,31,119,96
1,26,119,96
1,26,119,96
1,21,119,96
1,21,119,96
1,25,119,96
1,28,119,96
1,31,119,96
1,31,119,96
1,26,119,96
1,26,119,96
1,21,119,96
1,21,119,96
1,25,119,96
1,28,119,96
1,31,119,96
1,31,119,96
1,26,119,96
1,26,119,96
1,21,119,96
1,21,119,96
1,25,119,96
1,28,119,96
1,31,119,96
1,31,119,96
1,26,119,96
1,26,119,96
1,21,119,96
1,21,119,96
1,25,119,96
1,28,119,96
1,31,119,96
1,31,119,96
1,26,119,96
1,26,119,96
1,21,119,96
1,21,119,96
1,25,119,96
1,28,119,96
1,31,119,96
1,31,119,96
1,26,119,96
1,26,119,96
1,21,119,96
1,21,119,96
1,25,119,96
1,28,119,96
1,31,119,96
1,31,119,96
1,26,119,96
1,26,119,96
1,21,119,96
1,21,119,96
1,25,119,96
1,28,119,96
1,31,119,96
1,31,119,96
1,26,119,96
1,26,119,96
1,21,119,96
1,21,119,96
1,25,119,96
1,28,119,96
1,31,119,96
1,31,119,96
1,26,119,96
1,26,119,96
1,21,119,96
1,21,119,96
1,25,119,96
1,28,119,96
1,31,119,96
1,31,119,96
1,26,119,96
1,26,119,96
1,21,119,96
1,21,119,96
1,25,119,96
1,28,119,96
1,24,119,96
1,24,119,96
1,19,119,96
1,19,119,96
1,26,119,96
1,26,119,96
1,30,119,96
1,33,119,96
1,24,119,96
1,24,119,96
1,23,119,96
1,23,119,96
1,26,119,96
1,26,119,96
1,30,119,96
1,33,119,96
1,24,119,96
1,24,119,96
1,23,119,96
1,23,119,96
1,26,119,96
1,26,119,96
1,30,119,96
1,33,119,96
1,24,119,96
1,24,119,96
1,23,119,96
1,23,119,96
1,21,119,96
1,21,119,96
1,25,119,96
1,28,119,96
1,31,119,96
1,31,119,96
1,26,119,96
1,26,119,96
1,21,119,96
1,21,119,96
1,25,119,96
1,28,119,96
1,31,119,96
1,31,119,96
1,26,119,96
1,26,119,96
1,16,119,96
1,28,119,0
1,16,119,0
1,28,119,0
1,24,119,0
1,36,119,0
1,29,119,0
1,36,119,0
1,24,119,0
1,36,119,0
1,26,119,0
1,14,119,0
1,21,119,576
1,21,119,96
1,25,119,96
1,28,119,96
1,31,119,96
1,31,119,96
1,26,119,96
1,26,119,96
1,21,119,96
1,21,119,96
1,25,119,96
1,28,119,96
1,31,119,96
1,31,119,96
1,26,119,96
1,26,119,96
1,21,119,96
1,21,119,96
1,25,119,96
1,28,119,96
1,31,119,96
1,31,119,96
1,26,119,96
1,26,119,96
1,21,119,96
1,21,119,96
1,25,119,96
1,28,119,96
1,31,119,96
1,31,119,96
1,26,119,96
1,26,119,96
1,21,119,96
1,21,119,96
1,25,119,96
1,28,119,96
1,31,119,96
1,31,119,96
1,26,119,96
1,26,119,96
1,21,119,96
1,21,119,96
1,25,119,96
1,28,119,96
1,31,119,96
1,31,119,96
1,26,119,96
1,26,119,96
1,21,119,96
1,21,119,96
1,25,119,96
1,28,119,96
1,31,119,96
1,31,119,96
1,26,119,96
1,26,119,96
1,21,119,96
1,21,119,96
1,25,119,96
1,28,119,96
1,31,119,96
1,31,119,96
1,26,119,96
1,26,119,96
1,21,119,96
1,21,119,96
1,25,119,96
1,28,119,96
1,31,119,96
1,31,119,96
1,26,119,96
1,26,119,96
1,21,119,96
1,21,119,96
1,25,119,96
1,28,119,96
1,31,119,96
1,31,119,96
1,26,119,96
1,26,119,96
1,21,119,96
1,21,119,96
1,25,119,96
1,28,119,96
1,31,119,96
1,31,119,96
1,26,119,96
1,26,119,96
1,21,119,96
1,21,119,96
1,25,119,96
1,28,119,96
1,31,119,96
1,31,119,96
1,26,119,96
1,26,119,96
1,21,119,96
1,21,119,96
1,25,119,96
1,28,119,96
1,31,119,96
1,31,119,96
1,26,119,96
1,26,119,96
1,21,119,96
1,21,119,96
1,25,119,96
1,28,119,96
1,31,119,96
1,31,119,96
1,26,119,96
1,26,119,96
1,21,119,96
1,21,119,96
1,25,119,96
1,28,119,96
1,31,119,96
1,31,119,96
1,26,119,96
1,26,119,96
1,21,119,96
1,21,119,96
1,25,119,96
1,28,119,96
1,31,119,96
1,31,119,96
1,26,119,96
1,26,119,96
1,21,119,96
1,21,119,96
1,25,119,96
1,28,119,96
1,31,119,96
1,31,119,96
1,26,119,96
1,26,119,96
1,21,119,96
1,21,119,96
1,25,119,96
1,28,119,96
1,31,119,96
1,31,119,96
1,26,119,96
1,26,119,96
1,21,119,96
1,21,119,96
1,25,119,96
1,28,119,96
1,31,119,96
1,31,119,96
1,26,119,96
1,26,119,96
1,21,119,96
1,21,119,96
1,25,119,96
1,28,119,96
1,31,119,96
1,31,119,96
1,26,119,96
1,26,119,96
1,21,119,96
1,21,119,96
1,25,119,96
1,28,119,96
1,31,119,96
1,31,119,96
1,26,119,96
1,26,119,96
1,21,119,96
1,21,119,96
1,25,119,96
1,28,119,96
1,31,119,96
1,31,119,96
1,26,119,96
1,26,119,96
1,21,119,96
1,21,119,96
1,25,119,96
1,28,119,96
1,31,119,96
1,31,119,96
1,26,119,96
1,26,119,96
1,21,119,96
1,21,119,96
1,25,119,96
1,28,119,96
1,31,119,96
1,31,119,96
1,26,119,96
1,26,119,96
1,21,119,96
1,21,119,96
1,25,119,96
1,28,119,96
1,31,119,96
1,31,119,96
1,26,119,96
1,26,119,96
1,21,119,96
1,21,119,96
1,25,119,96
1,28,119,96
1,31,119,96
1,31,119,96
1,26,119,96
1,26,119,96
1,21,119,96
1,21,119,96
1,25,119,96
1,28,119,96
1,31,119,96
1,31,119,96
1,26,119,96
1,26,119,96
1,21,119,96
1,21,119,96
1,25,119,96
1,28,119,96
1,31,119,96
1,31,119,96
1,26,119,96
2,69,114,7298
2,69,114,192
2,54,114,4128
2,57,114,0
2,54,114,0
2,57,114,0
2,57,114,384
2,54,114,384
2,54,114,96
2,57,114,0
2,57,114,192
2,57,114,95
2,61,114,0
2,61,114,1536
2,61,114,96
2,61,114,0
2,57,114,191
2,54,114,0
2,57,114,0
2,57,114,96
2,61,114,0
2,54,114,288
2,57,114,0
2,54,114,0
2,57,114,0
2,57,114,192
2,57,114,96
2,57,114,192
2,57,114,1248
2,57,114,96
2,57,114,0
2,57,114,95
2,62,114,191
2,59,114,672
2,59,114,96
2,62,114,0
2,62,114,96
2,62,114,96
2,66,114,0
2,66,114,1536
2,66,114,96
2,66,114,0
2,62,114,191
2,59,114,0
2,62,114,0
2,62,114,192
2,66,114,0
2,57,114,288
2,60,114,0
2,57,114,0
2,60,114,0
2,57,114,384
2,57,114,288
2,67,114,1536
2,67,114,96
2,67,114,0
2,64,114,191
2,64,114,192
2,67,114,95
2,67,114,96
2,67,114,480
2,67,114,96
2,67,114,0
2,64,114,191
2,64,114,96
2,67,114,0
2,64,114,672
2,64,114,96
2,64,114,192
2,64,114,0
2,65,114,96
2,65,114,288
2,65,114,0
2,64,114,96
2,62,114,0
2,60,114,0
2,62,114,0
2,62,114,96
2,55,114,576
2,57,114,96
2,57,114,96
2,60,114,96
2,55,114,0
2,57,114,0
2,48,114,96
