track,note,velocity,time
3,60,94,16416
3,67,94,16
3,65,94,292
3,65,94,0
3,60,94,384
3,60,94,96
3,63,94,88
3,60,94,0
3,60,94,0
3,60,94,96
3,60,94,188
3,60,94,0
3,67,94,4
3,65,94,188
3,65,94,0
3,58,94,296
3,58,94,0
3,60,94,80
3,60,94,8
3,60,94,84
3,60,94,384
3,60,94,8
3,63,94,300
3,60,94,172
3,53,94,396
3,53,94,84
3,53,94,4
3,53,94,92
3,53,94,0
3,55,94,96
3,67,94,100
3,65,94,8
3,63,94,88
3,65,94,0
3,67,94,96
3,67,94,768
3,63,94,0
3,65,94,176
3,63,94,156
3,60,94,180
3,60,94,180
3,67,94,0
3,65,94,0
3,63,94,12
3,65,94,80
3,67,94,20
3,63,94,560
3,60,94,4
3,60,94,184
3,67,94,12
3,65,94,300
3,63,94,80
3,65,94,0
3,63,94,0
3,60,94,188
3,60,94,20
3,63,94,80
3,60,94,4
3,60,94,372
3,58,94,96
3,58,94,0
3,60,94,100
3,60,94,4
3,63,94,0
3,58,94,76
3,58,94,8
3,58,94,88
3,60,94,8
3,60,94,380
3,67,94,100
3,65,94,188
3,65,94,8
3,63,94,288
3,63,94,184
3,60,94,4
3,63,94,192
3,60,94,12
3,60,94,0
3,64,94,0
3,67,94,12
3,67,94,184
3,69,94,12
3,64,94,8
3,62,94,192
3,62,94,276
3,69,94,4
3,67,94,0
3,64,94,4
3,67,94,0
3,64,94,92
3,62,94,0
3,60,94,292
3,60,94,4
3,62,94,0
3,60,94,296
3,55,94,8
3,69,94,0
3,67,94,0
3,64,94,96
3,64,94,4
3,62,94,4
3,60,94,172
3,57,94,8
3,60,94,88
3,60,94,16
3,62,94,8
3,55,94,364
3,55,94,96
3,65,94,80
3,67,94,0
3,60,94,4
3,62,94,392
3,62,94,0
3,60,94,192
3,60,94,8
3,63,94,184
3,58,94,0
3,60,94,188
3,60,94,372
3,65,94,492
3,63,94,84
3,65,94,4
3,63,94,0
3,60,94,84
3,60,94,76
3,67,94,16
3,65,94,300
3,63,94,80
3,65,94,0
3,67,94,12
3,60,94,84
3,60,94,184
3,63,94,364
3,60,94,172
3,60,94,4
3,65,94,0
3,65,94,0
3,65,94,192
3,63,94,0
3,60,94,12
3,60,94,188
3,63,94,752
3,60,94,176
3,60,94,184
3,55,94,96
3,67,94,0
3,65,94,284
3,65,94,4
3,63,94,288
3,60,94,180
3,60,94,0
3,60,94,192
3,60,94,180
3,67,94,116
3,67,94,172
3,70,94,0
3,63,94,284
3,60,94,12
3,63,94,0
3,60,94,112
3,60,94,72
3,64,94,8
3,67,94,4
3,67,94,180
3,69,94,16
3,64,94,0
3,62,94,0
3,62,94,16
3,69,94,4
3,67,94,192
3,64,94,12
3,67,94,196
3,64,94,76
3,62,94,0
3,60,94,0
3,60,94,96
3,62,94,4
3,60,94,0
3,69,94,16
3,67,94,288
3,64,94,12
3,67,94,8
3,69,94,88
3,60,94,388
3,60,94,80
3,60,94,16
3,64,94,176
3,60,94,4
3,60,94,192
3,55,94,96
3,55,94,92
3,65,94,12
3,67,94,8
3,60,94,0
3,62,94,288
3,62,94,0
3,58,94,188
3,63,94,0
3,65,94,0
3,67,94,4
3,68,94,8
3,67,94,360
3,65,94,0
3,65,94,8
3,67,94,356
3,67,94,388
3,67,94,192
3,65,94,184
3,63,94,20
3,58,94,928
3,63,94,192
3,65,94,4
3,63,94,372
3,58,94,184
3,58,94,0
3,60,94,1348
3,63,94,180
3,65,94,368
3,63,94,4
3,58,94,196
3,58,94,172
3,60,94,1344
3,63,94,204
3,65,94,176
3,63,94,8
3,65,94,176
3,67,94,208
3,65,94,560
3,63,94,12
3,67,94,88
3,65,94,164
3,65,94,4
3,63,94,0
3,65,94,12
3,63,94,944
3,60,94,0
3,60,94,84
3,65,94,288
3,65,94,192
3,65,94,180
3,63,94,96
3,60,94,20
3,60,94,176
3,67,94,476
3,65,94,108
3,65,94,4
3,67,94,200
3,60,94,4
3,60,94,0
3,79,80,756
3,78,80,8
3,77,80,4
3,75,80,0
3,72,80,12
3,60,80,8
3,60,80,684
3,58,80,8
3,55,80,60
3,54,80,0
3,53,80,88
3,51,80,84
3,53,80,8
3,53,80,188
3,51,80,288
3,48,80,8
3,48,80,92
3,48,80,96
3,51,80,8
3,53,80,120
3,55,80,16
3,58,80,84
3,60,80,4
3,63,80,0
3,67,80,4
3,67,80,64
3,65,80,0
3,63,80,0
3,60,80,0
3,58,80,108
3,60,80,144
3,63,80,120
3,67,80,0
3,67,80,4
3,72,80,4
3,72,80,92
3,70,80,68
3,67,80,0
3,67,80,16
3,72,80,8
3,72,80,0
3,67,80,4
3,65,80,0
3,63,80,0
3,60,80,88
3,65,80,16
3,63,80,84
3,60,80,80
3,58,80,80
3,63,80,8
3,60,80,76
3,58,80,0
3,55,80,8
3,60,80,4
3,58,80,96
3,55,80,80
3,53,80,68
3,53,80,20
3,54,80,176
3,55,80,0
3,58,80,4
3,60,80,140
3,63,80,124
3,67,80,0
3,67,80,16
3,63,80,112
3,65,80,80
3,67,80,76
3,63,80,0
3,67,80,180
3,72,80,0
3,67,80,0
3,72,80,0
3,67,80,0
3,72,80,0
3,67,80,100
3,72,80,8
3,67,80,160
3,72,80,0
3,67,80,4
3,72,80,0
3,67,80,108
3,72,80,0
3,72,80,164
3,67,80,8
3,67,80,0
3,72,80,0
3,67,80,104
3,72,80,0
3,65,80,4
3,72,80,0
3,69,80,100
3,72,80,0
3,67,80,0
3,72,80,0
3,65,80,0
3,72,80,0
3,65,80,0
3,65,80,188
3,67,80,8
3,72,80,0
3,67,80,96
3,72,80,0
3,67,80,4
3,72,80,8
3,67,80,0
3,72,80,0
3,67,80,12
3,72,80,4
3,67,80,0
3,72,80,0
3,67,80,72
3,72,80,0
3,67,80,16
3,72,80,0
3,67,80,132
3,72,80,16
3,67,80,8
3,72,80,4
3,67,80,96
3,72,80,0
3,72,80,8
3,67,80,0
3,65,80,88
3,69,80,4
3,63,80,0
3,67,80,0
3,67,80,0
3,70,80,16
3,65,80,12
3,63,80,124
3,60,80,4
3,58,80,88
3,55,80,12
3,58,80,4
3,60,80,88
3,64,67,12
3,67,67,8
3,67,67,0
3,69,67,196
3,64,67,748
3,67,67,4
3,67,67,0
3,64,67,108
3,67,67,180
3,64,67,8
3,69,67,0
3,67,67,96
3,64,67,0
3,60,67,12
3,60,67,0
3,62,67,12
3,64,67,4
3,69,67,8
3,67,67,4
3,64,67,4
3,64,67,196
3,57,67,4
3,60,67,256
3,60,67,8
3,60,67,88
3,62,67,0
3,64,67,0
3,67,67,568
3,67,67,0
3,69,67,4
3,67,67,296
3,64,67,192
3,64,67,172
3,64,67,188
3,64,67,12
3,67,67,288
3,67,67,188
3,69,67,12
3,72,67,104
3,60,67,664
3,60,67,96
3,60,67,188
3,64,67,80
3,57,67,192
3,60,67,8
3,60,67,372
3,67,67,4
3,67,67,0
3,69,67,92
3,72,67,16
3,60,67,752
3,60,67,200
3,64,67,80
3,57,67,12
3,60,67,96
3,64,67,4
3,55,67,96
3,65,67,92
3,69,47,0
3,65,67,16
3,69,47,0
3,64,67,176
3,67,47,8
3,64,67,176
3,67,47,0
3,62,67,176
3,65,47,0
3,64,67,176
3,67,47,0
3,55,67,112
3,65,67,88
3,69,47,0
3,65,67,8
3,69,47,0
3,64,67,0
3,67,47,0
3,64,67,156
3,67,47,0
3,62,67,12
3,65,47,0
3,67,47,180
3,64,67,4
3,65,67,288
3,69,47,0
3,65,67,4
3,69,47,0
3,64,67,8
3,67,47,0
3,64,67,4
3,67,47,0
3,62,67,4
3,65,47,0
3,67,47,4
3,64,67,0
3,62,67,48
4,60,94,18336
4,67,94,0
4,65,94,0
4,65,94,0
4,60,94,384
4,60,94,0
4,63,94,0
4,60,94,0
4,60,94,0
4,60,94,96
4,60,94,192
4,60,94,0
4,67,94,0
4,65,94,0
4,65,94,0
4,58,94,288
4,58,94,0
4,60,94,0
4,60,94,0
4,60,94,0
4,60,94,0
4,60,94,0
4,63,94,0
4,60,94,0
4,53,94,384
4,53,94,0
4,53,94,0
4,53,94,0
4,53,94,0
4,55,94,96
4,67,94,96
4,65,94,0
4,63,94,0
4,65,94,0
4,67,94,0
4,67,94,768
4,63,94,0
4,65,94,0
4,63,94,0
4,60,94,0
4,60,94,0
4,67,94,0
4,65,94,0
4,63,94,0
4,65,94,0
4,67,94,0
4,63,94,576
4,60,94,0
4,60,94,0
4,67,94,0
4,65,94,0
4,63,94,0
4,65,94,0
4,63,94,0
4,60,94,192
4,60,94,0
4,63,94,0
4,60,94,0
4,60,85,0
4,58,94,96
4,58,94,0
4,60,94,0
4,60,94,0
4,63,94,0
4,58,94,0
4,58,94,0
4,58,94,0
4,60,94,0
4,60,94,0
4,67,94,96
4,65,94,0
4,65,94,0
4,63,94,0
4,63,94,0
4,60,94,0
4,63,94,0
4,60,94,0
4,60,85,0
4,60,76,384
4,64,94,0
4,64,94,0
4,64,76,0
4,67,94,0
4,67,94,0
4,64,76,0
4,67,94,0
4,67,94,0
4,65,85,0
4,69,94,0
4,69,94,0
4,60,76,0
4,64,94,0
4,59,76,0
4,62,94,0
4,59,76,0
4,62,94,0
4,69,94,0
4,67,94,0
4,64,94,0
4,67,94,0
4,64,94,0
4,59,76,0
4,62,94,0
4,60,94,0
4,60,94,0
4,62,94,0
4,57,76,0
4,60,94,0
4,55,94,0
4,69,94,0
4,67,94,0
4,64,94,0
4,64,94,0
4,62,94,0
4,60,94,192
4,57,94,0
4,60,94,0
4,60,94,0
4,62,94,0
4,55,94,384
4,55,94,0
4,65,94,0
4,67,94,0
4,60,94,0
4,62,94,0
4,59,76,0
4,62,94,0
4,60,94,192
4,60,94,0
4,63,94,0
4,58,94,0
4,60,94,0
4,60,94,0
4,65,94,480
4,63,94,0
4,65,94,0
4,63,94,0
4,60,94,0
4,60,94,0
4,67,94,2880
4,65,94,0
4,63,94,0
4,65,94,0
4,67,94,0
4,60,94,96
4,60,94,0
4,63,94,0
4,60,94,0
4,60,94,0
4,65,94,0
4,65,94,0
4,65,94,0
4,63,94,0
4,60,94,0
4,60,94,0
4,63,94,0
4,60,94,0
4,60,94,0
4,55,94,0
4,67,94,0
4,65,94,0
4,65,94,0
4,63,94,0
4,60,94,0
4,60,94,0
4,60,94,0
4,60,94,0
4,67,94,96
4,67,94,0
4,70,94,0
4,63,94,0
4,60,94,0
4,63,94,0
4,60,94,0
4,60,94,0
4,60,80,288
4,64,94,0
4,64,80,0
4,67,94,0
4,64,80,0
4,67,94,0
4,65,80,0
4,69,94,0
4,64,94,0
4,62,94,0
4,59,80,0
4,62,94,0
4,69,94,0
4,67,94,0
4,64,94,0
4,67,94,0
4,64,94,0
4,62,94,0
4,60,94,0
4,60,94,0
4,62,94,0
4,57,80,0
4,60,94,0
4,69,94,0
4,67,94,0
4,64,94,0
4,67,94,0
4,69,94,0
4,60,94,384
4,60,94,0
4,60,94,0
4,64,94,192
4,60,94,0
4,55,94,576
4,55,94,0
4,62,80,0
4,65,94,0
4,64,80,0
4,67,94,0
4,60,94,0
4,62,94,0
4,59,80,0
4,62,94,0
4,58,94,192
4,63,94,0
4,65,94,0
4,67,94,0
4,68,94,0
4,67,94,0
4,65,94,0
4,65,94,0
4,67,94,384
4,67,94,0
4,67,94,0
4,65,94,0
4,63,94,0
4,58,94,960
4,63,94,0
4,65,94,0
4,63,94,0
4,58,94,0
4,58,94,0
4,60,94,1344
4,63,94,0
4,65,94,0
4,63,94,0
4,58,94,0
4,58,94,0
4,60,94,1344
4,63,94,0
4,65,94,0
4,63,94,0
4,65,94,0
4,63,94,192
4,67,94,0
4,65,94,0
4,63,94,0
4,67,94,0
4,65,94,192
4,65,94,0
4,63,94,0
4,65,94,0
4,63,94,0
4,60,94,0
4,60,94,0
4,65,94,288
4,65,94,0
4,65,94,0
4,63,94,0
4,60,94,0
4,60,94,0
4,67,94,480
4,65,94,0
4,65,94,0
4,67,94,0
4,60,94,1248
4,60,94,0
4,79,94,768
4,79,94,0
4,78,94,768
4,77,80,0
4,75,80,0
4,72,80,0
4,60,80,0
4,60,80,1152
4,58,80,0
4,55,80,0
4,54,80,0
4,53,80,0
4,51,80,0
4,53,80,0
4,53,80,0
4,51,80,0
4,48,80,0
4,48,80,96
4,48,80,0
4,51,80,0
4,53,80,0
4,55,80,0
4,58,80,0
4,60,80,0
4,63,80,0
4,67,80,0
4,67,80,96
4,65,80,0
4,63,80,0
4,60,80,0
4,58,80,96
4,60,80,0
4,63,80,0
4,67,80,0
4,67,80,0
4,72,80,0
4,72,80,0
4,70,80,0
4,67,80,0
4,67,80,0
4,72,80,0
4,72,80,0
4,67,80,0
4,65,80,0
4,63,80,0
4,60,80,0
4,65,80,0
4,63,80,0
4,60,80,0
4,58,80,0
4,63,80,0
4,60,80,0
4,58,80,0
4,55,80,0
4,60,80,0
4,58,80,0
4,55,80,0
4,53,80,0
4,53,80,0
4,54,80,0
4,55,80,0
4,58,80,0
4,60,80,0
4,63,80,0
4,67,80,0
4,67,80,0
4,63,80,96
4,65,80,0
4,67,80,0
4,63,80,0
4,67,80,0
4,72,80,0
4,67,80,0
4,72,80,0
4,67,80,0
4,72,80,0
4,67,80,0
4,72,80,0
4,67,80,0
4,72,80,0
4,67,80,0
4,72,80,0
4,67,80,0
4,72,80,0
4,72,80,0
4,67,80,0
4,67,80,0
4,72,80,0
4,67,80,0
4,72,80,0
4,65,80,0
4,72,80,0
4,69,80,0
4,72,80,0
4,67,80,0
4,72,80,0
4,65,80,0
4,72,80,0
4,65,80,0
4,65,80,0
4,67,80,0
4,72,80,0
4,67,80,0
4,72,80,0
4,67,80,0
4,72,80,0
4,67,80,0
4,72,80,0
4,67,80,0
4,72,80,0
4,67,80,0
4,72,80,0
4,67,80,0
4,72,80,0
4,67,80,0
4,72,80,0
4,67,80,0
4,72,80,0
4,67,80,0
4,72,80,0
4,67,80,0
4,72,80,0
4,72,80,0
4,67,80,0
4,65,80,0
4,69,80,0
4,63,80,0
4,67,80,0
4,67,80,0
4,70,80,0
4,65,80,0
4,63,80,0
4,60,80,0
4,58,80,0
4,55,80,0
4,58,80,0
4,60,94,0
4,60,80,96
4,64,94,192
4,67,94,0
4,67,94,0
4,69,94,0
4,64,85,768
4,67,85,192
4,69,85,128
4,64,94,96
4,67,94,0
4,64,94,0
4,69,94,0
4,67,94,0
4,64,94,0
4,64,94,0
4,60,94,0
4,60,94,0
4,62,94,0
4,64,94,0
4,69,94,0
4,67,94,0
4,64,94,0
4,64,94,0
4,57,94,0
4,60,94,288
4,60,94,0
4,60,94,0
4,62,94,0
4,64,94,0
4,67,94,576
4,67,94,0
4,69,94,0
4,67,94,0
4,64,94,0
4,64,94,192
4,64,94,0
4,64,94,0
4,64,94,0
4,67,94,288
4,67,94,0
4,69,94,0
4,72,94,0
4,60,94,672
4,60,94,96
4,60,94,0
4,64,94,0
4,57,94,0
4,60,94,0
4,60,94,0
4,67,94,0
4,67,94,0
4,69,94,0
4,72,94,0
4,60,94,768
4,60,94,0
4,64,94,0
4,57,94,0
4,60,94,0
4,64,94,0
4,55,94,96
4,65,94,96
4,69,67,0
4,65,94,0
4,69,67,0
4,64,94,0
4,67,67,0
4,64,94,0
4,67,67,0
4,62,94,0
4,65,67,0
4,64,94,0
4,67,67,0
4,55,94,96
4,65,94,96
4,69,67,0
4,65,94,0
4,69,67,0
4,64,94,0
4,67,67,0
4,64,94,0
4,67,67,0
4,62,94,0
4,65,67,0
4,64,94,0
4,67,67,0
4,65,94,288
4,69,67,0
4,65,94,0
4,69,67,0
4,64,94,0
4,67,67,0
4,64,94,0
4,67,67,0
4,62,94,0
4,65,67,0
4,64,94,0
4,67,67,0
4,62,94,0
5,77,67,1152
5,72,67,0
5,81,67,0
5,69,67,0
5,65,67,0
5,84,67,0
5,79,67,128
5,76,67,0
5,72,67,0
5,67,67,0
5,64,67,0
5,84,67,0
5,72,67,896
