track,note,velocity,time
1,57,47,965
1,61,47,1
1,64,47,1
1,64,0,103
1,61,0,0
1,57,0,0
1,57,47,15
1,61,47,1
1,64,47,1
1,57,0,102
1,64,0,1
1,61,0,0
1,55,47,15
1,59,47,1
1,62,47,0
1,55,0,103
1,62,0,1
1,59,0,0
1,50,47,15
1,54,47,1
1,57,47,1
1,57,0,103
1,54,0,0
1,50,0,0
1,57,47,15
1,61,47,1
1,64,47,1
1,57,0,102
1,64,0,1
1,61,0,0
1,57,47,15
1,61,47,1
1,64,47,0
1,57,0,103
1,64,0,1
1,61,0,0
1,55,47,14
1,59,47,0
1,62,47,1
1,59,0,104
1,55,0,0
1,62,0,1
1,50,47,14
1,54,47,1
1,57,47,1
1,50,0,103
1,57,0,1
1,54,0,0
1,57,47,15
1,61,47,0
1,64,47,1
1,61,0,103
1,57,0,0
1,64,0,1
1,57,47,14
1,61,47,1
1,64,47,1
1,61,0,103
1,57,0,0
1,64,0,1
1,55,47,14
1,59,47,1
1,62,47,1
1,55,0,103
1,62,0,1
1,59,0,0
1,50,47,14
1,54,47,1
1,57,47,1
1,54,0,103
1,50,0,0
1,57,0,1
1,57,47,14
1,61,47,1
1,64,47,1
1,61,0,103
1,57,0,0
1,64,0,1
1,57,47,14
1,61,47,1
1,64,47,1
1,64,0,103
1,61,0,0
1,57,0,0
1,55,47,15
1,59,47,1
1,62,47,1
1,59,0,103
1,55,0,0
1,62,0,1
1,50,47,14
1,54,47,0
1,57,47,1
1,50,0,103
1,54,0,1
1,57,0,1
1,57,47,14
1,61,47,0
1,64,47,2
1,64,0,103
1,61,0,0
1,57,0,0
1,57,47,15
1,61,47,1
1,64,47,1
1,64,0,103
1,61,0,0
1,57,0,0
1,55,47,15
1,59,47,0
1,62,47,1
1,55,0,103
1,62,0,1
1,59,0,0
1,50,47,15
1,54,47,1
1,57,47,0
1,57,0,104
1,54,0,0
1,50,0,0
1,57,47,15
1,61,47,1
1,64,47,1
1,64,0,103
1,61,0,0
1,57,0,0
1,57,47,15
1,61,47,0
1,64,47,1
1,64,0,104
1,61,0,0
1,57,0,0
1,55,47,15
1,59,47,0
1,62,47,1
1,62,0,104
1,59,0,0
1,55,0,0
1,50,47,14
1,54,47,1
1,57,47,1
1,57,0,104
1,54,0,0
1,50,0,0
1,57,47,15
1,61,47,1
1,64,47,0
1,64,0,104
1,61,0,0
1,57,0,0
1,57,47,15
1,61,47,0
1,64,47,1
1,64,0,104
1,61,0,0
1,57,0,0
1,55,47,15
1,59,47,0
1,62,47,1
1,62,0,104
1,59,0,0
1,55,0,0
1,50,47,15
1,54,47,0
1,57,47,1
1,50,0,103
1,57,0,1
1,54,0,0
1,57,47,15
1,61,47,0
1,64,47,1
1,64,0,104
1,61,0,0
1,57,0,0
1,57,47,15
1,61,47,0
1,64,47,1
1,57,0,103
1,64,0,1
1,61,0,0
1,55,47,15
1,59,47,0
1,62,47,0
1,55,0,104
1,62,0,1
1,59,0,0
1,50,47,14
1,54,47,1
1,57,47,1
1,57,0,104
1,54,0,0
1,50,0,0
1,57,47,14
1,61,47,1
1,64,47,1
1,57,0,103
1,64,0,1
1,61,0,0
1,57,47,15
1,61,47,0
1,64,47,1
1,61,0,103
1,57,0,0
1,64,0,1
1,52,47,14
1,55,47,0
1,61,47,2
1,55,0,103
1,52,0,0
1,61,0,1
1,59,47,14
1,62,47,1
1,67,47,1
1,59,0,103
1,67,0,1
1,62,0,0
1,54,47,15
1,57,47,0
1,62,47,1
1,57,0,103
1,54,0,0
1,62,0,1
1,54,47,14
1,57,47,0
1,62,47,2
1,54,0,102
1,62,0,1
1,57,0,0
1,52,47,15
1,55,47,1
1,61,47,1
1,61,0,103
1,55,0,0
1,52,0,0
1,59,47,15
1,62,47,1
1,67,47,1
1,62,0,103
1,59,0,0
1,67,0,1
1,54,47,14
1,57,47,1
1,62,47,0
1,54,0,103
1,62,0,1
1,57,0,0
1,54,47,15
1,57,47,1
1,62,47,1
1,62,0,103
1,57,0,0
1,54,0,0
1,52,47,15
1,55,47,1
1,61,47,0
1,55,0,104
1,52,0,0
1,61,0,1
1,59,47,14
1,62,47,0
1,67,47,1
1,67,0,104
1,62,0,0
1,59,0,0
1,54,47,15
1,57,47,0
1,62,47,1
1,62,0,104
1,57,0,0
1,54,0,0
1,54,47,14
1,57,47,1
1,62,47,1
1,62,0,104
1,57,0,0
1,54,0,0
1,52,47,15
1,55,47,0
1,61,47,1
1,61,0,104
1,55,0,0
1,52,0,0
1,59,47,15
1,62,47,1
1,67,47,0
1,67,0,104
1,62,0,0
1,59,0,0
1,57,47,14
1,61,47,2
1,64,47,0
1,64,0,104
1,61,0,0
1,57,0,0
1,57,47,15
1,61,47,0
1,64,47,1
1,64,0,104
1,61,0,0
1,57,0,0
1,55,47,15
1,59,47,0
1,62,47,0
1,62,0,105
1,59,0,0
1,55,0,0
1,50,47,15
1,54,47,0
1,57,47,1
1,50,0,103
1,57,0,1
1,54,0,0
1,57,47,15
1,61,47,1
1,64,47,0
1,64,0,104
1,61,0,0
1,57,0,0
1,57,47,15
1,61,47,0
1,64,47,0
1,64,0,105
1,61,0,0
1,57,0,0
1,55,47,15
1,59,47,0
1,62,47,1
1,55,0,103
1,62,0,1
1,59,0,0
1,50,47,15
1,54,47,0
1,57,47,1
1,50,0,103
1,57,0,1
1,54,0,0
1,52,47,14
1,56,47,1
1,59,47,1
1,59,0,104
1,56,0,0
1,52,0,0
1,52,47,15
1,56,47,0
1,59,47,1
1,52,0,103
1,59,0,1
1,56,0,0
1,52,47,15
1,57,47,0
1,61,47,1
1,64,47,0
1,57,0,103
1,52,0,0
1,61,0,1
1,64,0,0
1,52,47,14
1,57,47,0
1,61,47,1
1,64,47,1
1,57,0,103
1,52,0,0
1,61,0,1
1,64,0,0
1,52,47,14
1,56,47,0
1,59,47,2
1,52,0,103
1,59,0,1
1,56,0,0
1,52,47,15
1,56,47,0
1,59,47,1
1,56,0,103
1,52,0,0
1,59,0,1
1,52,47,14
1,57,47,1
1,61,47,1
1,64,47,0
1,57,0,103
1,52,0,0
1,61,0,1
1,64,0,0
1,52,47,14
1,57,47,1
1,61,47,1
1,64,47,0
1,52,0,103
1,57,0,1
1,61,0,0
1,64,0,0
1,49,47,14
1,52,47,1
1,55,47,1
1,52,0,103
1,49,0,0
1,55,0,1
1,49,47,14
1,52,47,0
1,55,47,1
1,55,0,104
1,52,0,0
1,49,0,0
1,57,47,15
1,61,47,1
1,64,47,1
1,64,0,103
1,61,0,0
1,57,0,0
1,57,47,14
1,61,47,1
1,64,47,1
1,61,0,104
1,57,0,0
1,64,0,1
1,49,47,14
1,52,47,1
1,55,47,0
1,55,0,104
1,52,0,0
1,49,0,0
1,49,47,15
1,52,47,1
1,55,47,1
1,55,0,103
1,52,0,0
1,49,0,0
1,50,47,15
1,54,47,0
1,57,47,1
1,50,0,103
1,57,0,1
1,54,0,0
1,50,47,15
1,54,47,0
1,57,47,1
1,57,0,104
1,54,0,0
1,50,0,0
1,50,47,15
1,54,47,1
1,57,47,0
1,57,0,104
1,54,0,0
1,50,0,0
1,50,47,15
1,54,47,0
1,57,47,1
1,57,0,104
1,54,0,0
1,50,0,0
1,50,47,15
1,54,47,0
1,57,47,1
1,57,0,104
1,54,0,0
1,50,0,0
1,50,47,14
1,54,47,1
1,57,47,1
1,57,0,104
1,54,0,0
1,50,0,0
1,57,47,15
1,61,47,1
1,64,47,0
1,57,0,103
1,64,0,1
1,61,0,0
1,57,47,15
1,61,47,0
1,64,47,0
1,64,0,105
1,61,0,0
1,57,0,0
1,55,47,14
1,59,47,0
1,62,47,2
1,62,0,104
1,59,0,0
1,55,0,0
1,50,47,15
1,54,47,0
1,57,47,1
1,50,0,103
1,57,0,1
1,54,0,0
1,57,47,15
1,61,47,0
1,64,47,1
1,61,0,103
1,57,0,0
1,64,0,1
1,57,47,14
1,61,47,0
1,64,47,2
1,64,0,104
1,61,0,0
1,57,0,0
1,55,47,15
1,59,47,0
1,62,47,1
1,55,0,103
1,62,0,1
1,59,0,0
1,50,47,15
1,54,47,0
1,57,47,0
1,54,0,104
1,50,0,0
1,57,0,1
1,57,47,15
1,61,47,0
1,64,47,0
1,57,0,104
1,64,0,1
1,61,0,0
1,57,47,14
1,61,47,1
1,64,47,1
1,57,0,103
1,64,0,1
1,61,0,0
1,55,47,15
1,59,47,0
1,62,47,0
1,59,0,104
1,55,0,0
1,62,0,1
1,50,47,14
1,54,47,1
1,57,47,1
1,50,0,102
1,57,0,1
1,54,0,0
1,57,47,15
1,61,47,0
1,64,47,2
1,61,0,103
1,57,0,0
1,64,0,1
1,57,47,15
1,61,47,0
1,64,47,0
1,61,0,104
1,57,0,0
1,64,0,1
1,55,47,14
1,59,47,1
1,62,47,1
1,62,0,103
1,59,0,0
1,55,0,0
1,50,47,15
1,54,47,1
1,57,47,1
1,57,0,103
1,54,0,0
1,50,0,0
1,57,47,14
1,61,47,2
1,64,47,0
1,61,0,104
1,57,0,0
1,64,0,1
1,57,47,14
1,61,47,1
1,64,47,0
1,64,0,104
1,61,0,0
1,57,0,0
1,55,47,15
1,59,47,1
1,62,47,0
1,62,0,104
1,59,0,0
1,55,0,0
1,50,47,15
1,54,47,0
1,57,47,1
1,50,0,103
1,54,0,1
1,57,0,1
1,57,47,14
1,61,47,1
1,64,47,0
1,64,0,104
1,61,0,0
1,57,0,0
1,57,47,15
1,61,47,1
1,64,47,0
1,64,0,104
1,61,0,0
1,57,0,0
1,55,47,15
1,59,47,0
1,62,47,1
1,55,0,103
1,62,0,1
1,59,0,0
1,50,47,15
1,54,47,0
1,57,47,1
1,57,0,104
1,54,0,0
1,50,0,0
1,57,47,15
1,61,47,1
1,64,47,0
1,64,0,104
1,61,0,0
1,57,0,0
1,57,47,15
1,61,47,0
1,64,47,1
1,57,0,103
1,64,0,1
1,61,0,0
1,55,47,15
1,59,47,0
1,62,47,0
1,62,0,105
1,59,0,0
1,55,0,0
1,50,47,14
1,54,47,0
1,57,47,2
1,57,0,104
1,54,0,0
1,50,0,0
1,57,47,15
1,61,47,1
1,64,47,0
1,57,0,103
1,64,0,1
1,61,0,0
1,57,47,15
1,61,47,0
1,64,47,1
1,64,0,104
1,61,0,0
1,57,0,0
1,55,47,14
1,59,47,0
1,62,47,2
1,55,0,103
1,62,0,1
1,59,0,0
1,50,47,15
1,54,47,0
1,57,47,1
1,50,0,103
1,57,0,1
1,54,0,0
1,57,47,15
1,61,47,0
1,64,47,1
1,61,0,103
1,57,0,0
1,64,0,1
1,57,47,14
1,61,47,1
1,64,47,1
1,57,0,103
1,64,0,1
1,61,0,0
1,52,47,15
1,55,47,0
1,61,47,1
1,52,0,103
1,61,0,1
1,55,0,0
1,59,47,15
1,62,47,0
1,67,47,0
1,62,0,104
1,59,0,0
1,67,0,1
1,54,47,14
1,57,47,1
1,62,47,0
1,62,0,104
1,57,0,0
1,54,0,0
1,54,47,15
1,57,47,1
1,62,47,1
1,54,0,103
1,62,0,1
1,57,0,0
1,52,47,14
1,55,47,1
1,61,47,0
1,55,0,104
1,52,0,0
1,61,0,1
1,59,47,14
1,62,47,1
1,67,47,1
1,67,0,103
1,62,0,0
1,59,0,0
1,54,47,15
1,57,47,1
1,62,47,1
1,54,0,103
1,62,0,1
1,57,0,0
1,54,47,13
1,57,47,2
1,62,47,0
1,57,0,104
1,54,0,0
1,62,0,1
1,52,47,14
1,55,47,1
1,61,47,0
1,61,0,104
1,55,0,0
1,52,0,0
1,59,47,15
1,62,47,1
1,67,47,0
1,67,0,104
1,62,0,0
1,59,0,0
1,54,47,14
1,57,47,2
1,62,47,1
1,57,0,103
1,54,0,0
1,62,0,1
1,54,47,14
1,57,47,0
1,62,47,1
1,62,0,104
1,57,0,0
1,54,0,0
1,52,47,15
1,55,47,1
1,61,47,0
1,61,0,104
1,55,0,0
1,52,0,0
1,59,47,15
1,62,47,0
1,67,47,1
1,59,0,103
1,67,0,1
1,62,0,0
1,57,47,14
1,61,47,2
1,64,47,0
1,64,0,104
1,61,0,0
1,57,0,0
1,57,47,15
1,61,47,1
1,64,47,0
1,64,0,104
1,61,0,0
1,57,0,0
1,55,47,15
1,59,47,0
1,62,47,1
1,62,0,104
1,59,0,0
1,55,0,0
1,50,47,15
1,54,47,0
1,57,47,1
1,57,0,104
1,54,0,0
1,50,0,0
1,57,47,14
1,61,47,1
1,64,47,1
1,57,0,103
1,64,0,1
1,61,0,0
1,57,47,15
1,61,47,0
1,64,47,1
1,57,0,103
1,64,0,1
1,61,0,0
1,55,47,15
1,59,47,0
1,62,47,1
1,62,0,104
1,59,0,0
1,55,0,0
1,50,47,15
1,54,47,0
1,57,47,0
1,57,0,105
1,54,0,0
1,50,0,0
1,52,47,15
1,56,47,1
1,59,47,0
1,52,0,103
1,59,0,1
1,56,0,0
1,52,47,15
1,56,47,0
1,59,47,0
1,56,0,104
1,52,0,0
1,59,0,1
1,52,47,14
1,57,47,1
1,61,47,1
1,64,47,0
1,64,0,104
1,52,0,0
1,57,0,0
1,61,0,0
1,52,47,15
1,57,47,0
1,61,47,1
1,64,47,0
1,52,0,103
1,57,0,1
1,61,0,0
1,64,0,0
1,52,47,15
1,56,47,0
1,59,47,1
1,56,0,103
1,52,0,0
1,59,0,1
1,52,47,14
1,56,47,1
1,59,47,1
1,52,0,103
1,59,0,1
1,56,0,0
1,52,47,14
1,57,47,1
1,61,47,1
1,64,47,0
1,57,0,103
1,52,0,0
1,61,0,1
1,64,0,0
1,52,47,14
1,57,47,0
1,61,47,1
1,64,47,1
1,57,0,103
1,52,0,0
1,61,0,1
1,64,0,0
1,49,47,14
1,52,47,1
1,55,47,0
1,55,0,104
1,52,0,0
1,49,0,0
1,49,47,15
1,52,47,1
1,55,47,0
1,52,0,104
1,49,0,0
1,55,0,1
1,57,47,14
1,61,47,1
1,64,47,0
1,57,0,103
1,61,0,1
1,64,0,1
1,57,47,14
1,61,47,1
1,64,47,1
1,64,0,103
1,61,0,0
1,57,0,0
1,49,47,15
1,52,47,1
1,55,47,1
1,55,0,103
1,52,0,0
1,49,0,0
1,49,47,15
1,52,47,0
1,55,47,1
1,49,0,103
1,55,0,1
1,52,0,0
1,50,47,15
1,54,47,1
1,57,47,0
1,57,0,104
1,54,0,0
1,50,0,0
1,50,47,14
1,54,47,1
1,57,47,1
1,57,0,104
1,54,0,0
1,50,0,0
1,50,47,15
1,54,47,1
1,57,47,0
1,57,0,104
1,54,0,0
1,50,0,0
1,50,47,15
1,54,47,0
1,57,47,1
1,57,0,104
1,54,0,0
1,50,0,0
1,50,47,15
1,54,47,0
1,57,47,1
1,57,0,104
1,54,0,0
1,50,0,0
1,50,47,15
1,54,47,0
1,57,47,1
1,57,0,104
1,54,0,0
1,50,0,0
1,57,47,15
1,61,47,0
1,64,47,1
1,64,0,104
1,61,0,0
1,57,0,0
1,57,47,15
1,61,47,0
1,64,47,1
1,64,0,104
1,61,0,0
1,57,0,0
1,55,47,15
1,59,47,0
1,62,47,1
1,55,0,103
1,62,0,1
1,59,0,0
1,50,47,15
1,54,47,0
1,57,47,1
1,57,0,104
1,54,0,0
1,50,0,0
1,57,47,15
1,61,47,0
1,64,47,1
1,57,0,103
1,64,0,1
1,61,0,0
1,57,47,15
1,61,47,0
1,64,47,0
1,61,0,104
1,57,0,0
1,64,0,1
1,55,47,14
1,59,47,0
1,62,47,2
1,62,0,104
1,59,0,0
1,55,0,0
1,50,47,14
1,54,47,1
1,57,47,1
1,50,0,103
1,57,0,1
1,54,0,0
1,57,47,15
1,61,47,0
1,64,47,1
1,61,0,103
1,57,0,0
1,64,0,1
1,57,47,14
1,61,47,1
1,64,47,1
1,61,0,103
1,57,0,0
1,64,0,1
1,55,47,14
1,59,47,1
1,62,47,1
1,55,0,103
1,62,0,1
1,59,0,0
1,50,47,15
1,54,47,0
1,57,47,1
1,54,0,103
1,50,0,0
1,57,0,1
