track,note,velocity,time
0,38,122,190
0,41,127,2
0,35,127,1
0,40,68,40
0,41,68,4
0,43,68,3
0,45,68,4
0,47,68,0
0,48,68,2
0,50,68,0
0,52,68,2
0,53,68,0
0,55,68,0
0,57,68,2
0,59,61,0
0,60,61,1
0,62,61,1
0,64,61,1
0,65,61,0
0,67,64,0
0,69,64,1
0,71,64,0
0,72,64,1
0,74,64,1
0,76,64,0
0,77,64,1
0,74,64,3
0,72,64,2
0,71,66,1
0,69,66,0
0,67,66,2
0,65,66,0
0,64,68,1
0,62,68,0
0,60,68,0
0,59,68,3
0,57,68,1
0,55,68,0
0,53,68,1
0,57,64,5
0,59,64,0
0,60,64,0
0,62,64,0
0,64,64,1
0,65,64,1
0,67,64,0
0,69,64,2
0,71,64,2
0,72,64,1
0,74,64,1
0,76,64,0
0,77,64,0
0,79,64,0
0,81,66,0
0,83,66,0
0,84,66,1
0,86,66,1
0,40,127,5
0,40,127,1
0,35,116,0
0,57,80,0
0,56,119,0
0,62,116,1
0,52,127,1
0,88,100,1
0,52,127,0
0,28,127,4
0,28,127,1
0,40,127,0
0,40,127,3
0,42,46,1
0,35,116,1
0,38,94,0
0,46,93,1
0,44,127,5
0,32,127,1
0,32,127,0
0,56,113,1
0,62,110,1
0,44,127,0
0,42,47,2
0,35,119,9
0,46,93,2
0,32,127,34
0,32,127,1
0,44,127,1
0,44,127,2
0,42,49,1
0,35,119,6
0,38,84,0
0,46,93,1
0,60,105,32
0,54,99,2
0,32,127,1
0,32,127,0
0,44,127,1
0,42,50,3
0,44,127,0
0,33,127,0
0,33,127,0
0,35,116,1
0,46,94,0
0,45,127,0
0,55,99,1
0,61,78,1
0,45,127,1
0,54,74,2
0,32,127,0
0,44,127,0
0,32,127,1
0,60,98,0
0,44,127,0
0,42,49,1
0,33,127,1
0,45,127,0
0,33,127,0
0,35,116,1
0,38,87,0
0,45,127,0
0,46,94,1
0,61,108,0
0,55,117,1
0,42,46,8
0,35,119,33
0,46,91,0
0,45,127,33
0,33,115,2
0,33,115,0
0,45,127,2
0,42,48,2
0,35,127,2
0,47,127,0
0,35,127,0
0,38,90,0
0,35,119,1
0,46,92,0
0,47,127,0
0,50,127,0
0,38,127,1
0,38,127,1
0,50,127,0
0,42,46,3
0,52,127,1
0,56,120,0
0,40,127,1
0,40,127,0
0,35,115,1
0,46,91,0
0,62,110,0
0,52,127,1
0,28,127,0
0,40,127,0
0,28,127,1
0,40,127,2
0,42,46,2
0,35,115,11
0,38,94,0
0,46,93,1
0,44,127,3
0,32,127,2
0,32,127,0
0,62,108,0
0,56,110,1
0,44,127,1
0,42,47,2
0,35,118,2
0,46,93,2
0,44,127,34
0,32,127,1
0,32,127,0
0,44,127,3
0,42,50,1
0,35,118,9
0,38,84,0
0,46,90,0
0,32,127,34
0,44,127,0
0,32,127,1
0,54,99,1
0,60,103,1
0,44,127,1
0,42,49,1
0,86,79,0
0,45,127,0
0,33,117,1
0,33,117,0
0,55,97,0
0,35,118,1
0,46,90,0
0,45,127,0
0,61,80,1
0,60,90,1
0,44,127,1
0,54,75,0
0,32,127,0
0,32,127,0
0,44,127,1
0,42,49,3
0,85,86,2
0,33,127,1
0,33,127,0
0,35,118,0
0,38,87,0
0,45,127,0
0,61,98,0
0,46,94,0
0,55,120,1
0,45,127,0
0,42,50,10
0,83,85,33
0,35,117,1
0,46,90,1
0,33,127,34
0,33,127,0
0,45,127,0
0,45,127,3
0,42,49,1
0,35,127,1
0,35,127,1
0,81,77,0
0,47,127,0
0,35,117,1
0,38,90,0
0,46,93,1
0,47,127,1
0,50,127,2
0,38,127,0
0,38,127,0
0,50,127,2
0,42,48,2
0,52,127,0
0,40,127,2
0,40,127,0
0,35,116,1
0,57,70,0
0,62,113,0
0,56,115,1
0,52,127,1
0,80,72,1
0,83,79,1
0,85,79,0
0,40,127,0
0,28,127,1
0,28,127,0
0,40,127,2
0,42,48,2
0,35,116,1
0,38,94,0
0,46,92,0
0,32,127,5
0,32,127,1
0,44,127,1
0,56,106,2
0,42,46,1
0,44,127,0
0,62,102,0
0,35,115,6
0,46,93,1
0,32,127,35
0,32,127,0
0,44,127,0
0,44,127,3
0,42,49,1
0,35,115,6
0,38,84,0
0,46,90,1
0,32,127,35
0,32,127,0
0,44,127,0
0,44,127,3
0,60,115,0
0,42,48,1
0,54,100,0
0,79,90,10
0,83,70,0
0,85,61,0
0,33,127,0
0,33,127,1
0,45,127,0
0,35,119,1
0,46,91,0
0,61,89,0
0,55,84,1
0,45,127,1
0,54,65,0
0,32,122,1
0,32,122,0
0,44,127,2
0,60,94,1
0,42,48,1
0,44,127,1
0,33,127,2
0,33,127,0
0,35,119,0
0,38,87,1
0,55,112,0
0,46,91,1
0,61,103,0
0,45,127,1
0,45,127,1
0,42,49,3
0,35,115,33
0,46,93,0
0,33,127,34
0,33,127,1
0,45,127,1
0,42,49,3
0,45,127,0
0,35,127,7
0,35,127,0
0,35,115,1
0,38,90,0
0,47,127,0
0,46,93,1
0,47,127,1
0,38,127,1
0,38,127,0
0,50,127,0
0,50,127,3
0,42,50,1
0,80,90,0
0,85,81,2
0,83,83,0
0,40,127,1
0,40,127,0
0,56,118,0
0,35,116,1
0,46,93,0
0,52,127,0
0,62,111,1
0,52,127,1
0,28,127,2
0,28,127,0
0,40,127,1
0,42,48,3
0,40,127,0
0,35,116,14
0,38,84,1
0,46,91,1
0,32,127,5
0,32,127,0
0,56,115,1
0,62,115,1
0,44,127,1
0,42,47,1
0,44,127,0
0,35,117,5
0,46,93,1
0,32,127,35
0,32,127,0
0,44,127,1
0,42,49,3
0,44,127,0
0,35,117,6
0,38,84,0
0,44,127,35
0,32,127,1
0,32,127,0
0,60,115,1
0,44,127,1
0,54,105,1
0,79,93,0
0,45,127,2
0,55,90,0
0,33,121,0
0,33,121,0
0,83,84,0
0,35,118,1
0,46,93,0
0,85,70,0
0,35,117,0
0,45,127,0
0,61,74,1
0,32,127,2
0,54,75,0
0,32,127,0
0,38,82,1
0,57,70,0
0,44,127,0
0,60,97,1
0,44,127,2
0,33,127,0
0,33,127,0
0,45,127,0
0,55,115,0
0,35,118,1
0,38,90,0
0,43,122,1
0,61,107,0
0,45,127,1
0,67,19,10
0,69,19,3
0,71,19,1
0,72,19,0
0,74,84,1
0,76,70,1
0,35,127,0
0,78,78,0
0,35,127,1
0,47,127,0
0,35,117,1
0,57,67,0
0,47,127,0
0,83,89,1
0,85,78,0
0,88,91,1
0,81,96,1
0,38,127,0
0,38,127,0
0,38,90,1
0,50,127,0
0,49,69,1
0,50,127,2
0,85,80,0
0,83,85,1
0,88,97,0
0,71,127,38
0,40,127,1
0,40,127,1
0,83,85,0
0,85,80,0
0,35,118,1
0,57,70,0
0,81,97,0
0,88,97,1
0,81,127,1
0,52,127,1
0,52,127,1
0,50,89,1
0,48,127,4
0,28,127,1
0,28,127,0
0,62,85,0
0,56,96,0
0,42,48,1
0,47,97,5
0,45,105,4
0,43,83,2
0,41,101,1
0,38,94,0
0,46,91,1
0,80,127,0
0,40,83,3
0,32,127,4
0,32,127,0
0,56,102,0
0,62,102,1
0,42,47,2
0,35,116,12
0,46,90,1
0,76,127,0
0,32,127,3
0,32,127,1
0,52,103,0
0,42,46,1
0,38,84,3
0,46,90,1
0,74,127,0
0,32,122,19
0,52,103,0
0,32,122,1
0,74,127,2
0,42,46,2
0,61,77,8
0,33,114,1
0,33,114,0
0,55,79,0
0,35,116,1
0,46,91,0
0,74,110,0
0,55,67,0
0,61,70,1
0,76,127,1
0,42,48,2
0,54,95,21
0,33,127,1
0,33,127,0
0,60,91,0
0,38,87,1
0,46,90,1
0,61,73,19
0,55,91,1
0,42,49,3
0,35,118,32
0,46,92,2
0,33,108,35
0,33,108,0
0,42,47,4
0,35,119,16
0,35,119,0
0,38,90,1
0,46,90,1
0,38,110,9
0,38,110,0
0,52,103,0
0,42,48,4
0,40,127,11
0,40,127,0
0,64,97,0
0,35,115,1
0,46,92,0
0,28,117,8
0,28,117,1
0,62,79,0
0,59,61,1
0,74,119,1
0,42,50,2
0,38,94,25
0,46,91,0
0,74,127,0
0,32,126,2
0,32,126,1
0,62,86,0
0,56,86,1
0,74,127,1
0,42,49,2
0,35,116,4
0,46,93,1
0,76,122,0
0,32,126,8
0,32,126,0
0,52,103,0
0,76,123,2
0,42,50,2
0,38,84,12
0,46,90,0
0,76,127,0
0,32,124,3
0,32,124,0
0,52,103,0
0,42,50,4
0,33,123,5
0,33,123,1
0,57,84,0
0,35,115,1
0,46,94,0
0,61,97,0
0,76,88,10
0,74,88,1
0,42,49,3
0,33,127,31
0,33,127,1
0,57,103,0
0,38,87,1
0,61,94,0
0,46,90,1
0,74,87,17
0,76,87,0
0,42,46,3
0,55,103,33
0,59,94,0
0,35,119,1
0,46,90,1
0,33,113,32
0,33,113,0
0,76,86,2
0,74,86,0
0,42,48,2
0,35,108,14
0,35,108,0
0,88,100,0
0,81,100,0
0,38,90,1
0,85,100,0
0,46,91,1
0,55,102,0
0,59,102,0
0,38,127,12
0,38,127,1
0,42,50,4
0,40,127,2
0,40,127,0
0,88,93,0
0,35,115,1
0,46,90,0
0,64,102,0
0,83,95,1
0,80,95,1
0,62,76,7
0,28,94,1
0,28,94,0
0,59,57,0
0,71,119,2
0,42,46,2
0,71,110,7
0,38,94,9
0,46,94,0
0,79,127,1
0,32,127,3
0,32,127,0
0,59,102,0
0,62,95,0
0,79,127,1
0,42,49,3
0,35,115,5
0,46,92,1
0,79,127,0
0,32,127,13
0,32,127,0
0,42,47,4
0,38,84,3
0,46,94,1
0,32,123,34
0,52,84,0
0,32,123,1
0,76,127,1
0,42,47,3
0,33,109,6
0,33,109,0
0,57,86,0
0,61,87,0
0,35,116,1
0,46,90,0
0,76,118,0
0,57,84,14
0,61,74,0
0,76,127,3
0,42,49,2
0,33,127,2
0,33,127,0
0,38,87,1
0,46,91,1
0,61,94,3
0,57,90,0
0,42,49,4
0,35,118,32
0,46,93,0
0,33,117,34
0,52,103,0
0,33,117,1
0,42,49,4
0,35,120,6
0,35,120,0
0,38,90,0
0,46,93,1
0,38,127,19
0,38,127,0
0,71,127,1
0,42,46,3
0,64,104,1
0,40,127,1
0,40,127,0
0,35,116,1
0,46,90,0
0,73,127,1
0,28,107,8
0,62,91,0
0,59,86,0
0,28,107,1
0,42,47,4
0,38,94,33
0,46,92,1
0,32,127,5
0,32,127,0
0,62,83,0
0,59,92,0
0,76,125,2
0,42,49,2
0,35,115,1
0,78,126,1
0,46,93,1
0,32,117,0
0,32,117,1
0,76,122,2
0,42,48,2
0,38,84,13
0,46,93,1
0,76,123,0
0,32,113,35
0,32,113,0
0,52,103,0
0,73,118,1
0,42,48,2
0,33,109,6
0,33,109,1
0,61,95,0
0,35,117,1
0,46,92,0
0,57,84,0
0,32,119,2
0,32,119,1
0,76,88,0
0,74,88,0
0,61,87,1
0,57,68,1
0,42,50,2
0,33,127,18
0,33,127,0
0,57,79,0
0,38,87,1
0,61,85,0
0,46,91,1
0,74,87,31
0,76,87,1
0,42,46,1
0,59,104,31
0,55,101,1
0,35,117,1
0,46,92,0
0,38,127,29
0,38,127,0
0,76,86,1
0,74,86,1
0,42,49,2
0,40,119,5
0,40,119,1
0,55,118,0
0,38,90,0
0,59,115,0
0,46,93,1
0,43,127,8
0,43,127,0
0,42,49,4
0,40,95,13
0,41,95,2
0,42,60,1
0,43,93,1
0,44,112,0
0,33,127,2
0,33,127,1
0,81,88,0
0,35,118,0
0,57,70,0
0,73,96,1
0,76,98,1
0,45,127,1
0,57,127,0
0,52,127,0
0,33,103,2
0,33,103,1
0,42,47,4
0,33,127,5
0,33,127,0
0,38,94,0
0,46,91,1
0,79,127,1
0,33,122,2
0,33,122,0
0,79,117,2
0,42,49,2
0,33,127,2
0,33,127,0
0,35,115,1
0,46,92,0
0,79,127,0
0,33,112,2
0,33,112,1
0,78,113,2
0,42,50,2
0,33,127,2
0,33,127,1
0,38,84,1
0,46,92,1
0,76,113,0
0,31,127,0
0,31,127,0
0,71,85,0
0,79,71,0
0,74,88,0
0,76,122,1
0,55,127,2
0,50,127,0
0,42,47,1
0,43,127,0
0,35,116,33
0,46,92,0
0,31,111,7
0,31,111,1
0,76,127,1
0,42,49,3
0,31,127,2
0,31,127,1
0,38,87,1
0,46,90,1
0,31,114,3
0,31,114,1
0,78,127,2
0,42,47,2
0,31,127,2
0,31,127,0
0,35,119,1
0,46,91,1
0,31,127,2
0,31,127,1
0,42,48,4
0,31,127,5
0,31,127,0
0,38,90,1
0,46,90,1
0,31,127,4
0,31,127,0
0,71,127,2
0,42,50,2
0,73,96,1
0,81,79,1
0,76,76,0
0,33,127,1
0,33,127,0
0,46,93,0
0,35,115,1
0,73,113,0
0,52,127,1
0,57,127,1
0,45,127,1
0,33,107,3
0,33,107,1
0,76,127,1
0,42,46,1
0,33,127,2
0,33,127,1
0,38,94,1
0,46,92,0
0,33,127,2
0,33,127,1
0,42,49,4
0,81,79,0
0,35,127,1
0,35,127,0
0,78,88,0
0,35,118,1
0,74,88,0
0,46,93,1
0,78,127,0
0,50,126,1
0,45,111,1
0,57,111,0
0,35,127,4
0,35,127,0
0,73,127,1
0,42,46,3
0,35,127,4
0,35,127,1
0,38,84,1
0,46,90,1
0,28,127,1
0,28,127,1
0,71,85,0
0,35,120,1
0,46,85,0
0,76,79,0
0,80,72,0
0,80,127,1
0,47,115,1
0,52,127,1
0,40,108,0
0,42,106,0
0,28,115,5
0,28,115,0
0,46,43,0
0,28,127,4
0,28,127,1
0,38,87,1
0,46,93,1
0,28,127,3
0,28,127,0
0,40,119,0
0,40,119,2
0,42,47,2
0,44,122,1
0,32,127,1
0,32,127,0
0,35,118,1
0,46,93,1
0,44,122,0
0,35,127,2
0,35,127,0
0,47,125,1
0,47,125,1
0,42,50,1
0,37,127,5
0,37,127,0
0,38,90,1
0,46,91,0
0,49,127,0
0,49,127,1
0,40,127,1
0,40,127,1
0,52,127,1
0,52,127,2
0,42,46,1
0,30,127,0
0,81,88,0
0,30,127,1
0,35,117,1
0,49,60,0
0,76,82,0
0,73,79,1
0,80,127,1
0,42,127,1
0,54,127,1
0,78,118,10
0,30,122,3
0,30,122,0
0,42,47,4
0,76,124,0
0,30,127,3
0,30,127,0
0,38,94,1
0,46,90,1
0,76,114,13
0,30,127,2
0,30,127,1
0,42,50,4
0,76,123,6
0,30,127,1
0,30,127,0
0,35,116,0
0,46,93,1
0,30,127,4
0,30,127,0
0,78,127,2
0,42,50,2
0,30,127,4
0,30,127,0
0,38,84,1
0,46,94,1
0,30,127,2
0,30,127,1
0,42,46,4
0,71,107,10
0,32,127,0
0,32,127,1
0,35,118,1
0,57,60,0
0,76,82,0
0,83,88,1
0,44,123,1
0,80,79,1
0,80,124,1
0,56,123,0
0,32,127,0
0,32,127,1
0,78,115,0
0,42,50,4
0,76,122,1
0,32,127,3
0,32,127,0
0,38,87,1
0,46,92,1
0,76,120,7
0,32,127,2
0,32,127,1
0,42,47,4
0,76,127,3
0,32,127,5
0,32,127,0
0,35,116,0
0,46,92,1
0,32,127,1
0,32,127,0
0,42,46,3
0,32,127,1
0,32,127,0
0,38,90,1
0,46,93,1
0,32,127,2
0,32,127,1
0,71,117,2
0,42,46,2
0,45,117,1
0,33,127,1
0,33,127,0
0,86,91,0
0,35,116,1
0,49,60,0
0,79,85,0
0,57,60,1
0,83,102,0
0,79,127,1
0,57,117,1
0,33,127,0
0,33,127,1
0,78,90,2
0,42,50,2
0,33,127,2
0,33,127,0
0,38,94,1
0,46,92,1
0,76,118,0
0,33,127,2
0,33,127,0
0,78,127,1
0,42,48,3
0,33,127,1
0,33,127,1
0,35,116,1
0,79,127,0
0,46,93,1
0,33,127,1
0,33,127,0
0,78,121,2
0,42,47,2
0,76,127,18
0,33,127,5
0,33,127,0
0,38,84,1
0,46,92,1
0,33,127,1
0,33,127,0
0,35,120,1
