track,note,velocity,time
1,36,83,2690
1,31,83,208
1,36,83,26
1,35,83,2
1,33,83,28
1,33,83,206
1,33,83,68
1,31,83,16
1,29,83,26
1,29,83,208
1,36,83,128
1,29,83,376
1,38,83,16
1,31,83,766
1,36,83,10
1,36,83,208
1,28,83,128
1,31,83,26
1,33,83,0
1,33,83,186
1,33,83,68
1,31,83,32
1,29,83,0
1,29,83,158
1,36,83,2
1,29,83,382
1,38,83,22
1,31,83,768
1,36,83,26
1,31,83,206
1,36,83,16
1,35,83,384
1,33,83,0
1,33,83,280
1,31,83,384
1,29,83,18
1,29,83,202
1,36,83,4
1,29,83,384
1,38,83,0
1,31,83,766
1,36,83,26
1,31,83,224
1,36,83,24
1,35,83,386
1,33,83,26
1,33,83,254
1,31,83,14
1,29,83,28
1,29,83,228
1,36,83,128
1,29,83,10
1,38,83,10
1,31,83,48
1,36,83,32
1,31,83,192
1,36,83,16
1,35,83,24
1,33,83,28
1,33,83,320
1,31,83,384
1,29,83,16
1,29,83,248
1,36,83,14
1,29,83,384
1,38,83,12
1,31,83,72
1,36,83,26
1,36,83,142
1,28,83,32
1,31,83,32
1,33,83,386
1,33,99,228
1,31,83,0
1,29,83,44
1,29,83,240
1,36,83,10
1,29,83,10
1,38,83,386
1,31,83,756
1,33,83,34
1,33,83,78
1,33,83,52
1,33,83,96
1,28,83,52
1,33,83,48
1,33,83,96
1,33,83,74
1,33,83,96
1,36,83,80
1,36,83,96
1,36,83,90
1,36,83,126
1,31,83,74
1,36,83,42
1,36,83,128
1,36,83,126
1,31,83,640
1,28,83,22
1,28,83,96
1,28,83,88
1,28,83,106
1,29,83,92
1,29,83,94
1,29,83,112
1,29,83,122
1,31,83,112
1,31,83,96
1,31,83,112
1,31,83,144
1,33,83,106
1,38,83,26
1,33,83,176
1,38,83,40
1,37,83,14
1,35,83,16
1,35,83,212
1,35,83,64
1,33,83,8
1,31,83,38
1,31,83,218
1,38,83,128
1,31,83,378
1,40,83,34
1,33,83,766
1,38,83,34
1,33,83,224
1,38,83,2
1,37,83,382
1,35,83,6
1,30,83,288
1,35,83,14
1,33,83,8
1,31,83,16
1,31,83,234
1,38,83,8
1,31,83,384
1,40,83,10
1,33,83,766
1,38,83,28
1,38,83,216
1,30,83,128
1,33,83,16
1,35,83,386
1,30,83,240
1,35,83,8
1,33,83,384
1,31,83,18
1,38,83,336
1,31,83,766
1,36,83,18
1,36,83,208
1,28,83,128
1,31,83,26
1,33,83,0
1,33,83,186
1,33,83,72
1,31,83,36
1,29,83,0
1,29,83,158
1,36,83,0
1,29,83,384
1,38,83,26
1,31,83,766
1,36,83,22
1,31,83,208
1,36,83,16
1,35,83,384
1,33,83,0
1,33,83,276
1,31,83,384
1,29,83,16
1,29,83,202
1,36,83,8
1,29,83,384
1,38,83,0
1,31,83,766
1,36,83,26
1,31,83,224
1,36,83,26
1,35,83,384
1,33,83,42
1,33,83,254
1,31,83,16
1,29,83,28
1,29,83,232
1,36,83,128
1,29,83,10
1,38,83,6
1,31,83,48
1,36,83,32
1,31,83,200
1,36,83,16
1,35,83,20
1,33,83,26
1,33,83,320
1,31,83,384
1,29,83,16
1,29,83,246
1,36,83,14
1,29,83,384
1,38,83,12
1,31,83,74
1,36,83,22
1,36,83,142
1,28,83,32
1,31,83,32
1,33,83,386
1,33,83,232
1,31,83,10
1,29,83,44
1,29,83,240
1,36,83,10
1,29,83,10
1,38,83,386
1,31,83,760
1,33,83,34
1,33,83,74
1,33,83,56
1,33,83,96
1,28,83,56
1,33,83,48
1,33,83,94
1,33,83,74
1,33,83,96
1,36,83,80
1,36,83,96
1,36,83,90
1,36,83,126
1,31,83,74
1,36,83,42
1,36,83,126
1,36,83,126
1,31,83,640
1,28,83,26
1,28,83,96
1,28,83,90
1,28,83,106
1,29,83,92
1,29,83,94
1,29,83,112
1,29,83,122
1,31,83,112
1,31,83,96
1,31,83,112
1,31,83,142
1,33,83,102
1,38,83,28
1,33,83,174
1,38,83,36
1,37,83,14
1,35,83,16
1,35,83,212
1,35,83,64
1,33,83,10
1,31,83,42
1,31,83,218
1,38,83,128
1,31,83,378
1,40,83,34
1,33,83,766
1,38,83,34
1,33,83,224
1,38,83,2
1,37,83,382
1,35,83,10
1,30,83,288
1,35,83,14
1,33,83,8
1,31,83,16
1,31,83,232
1,38,83,4
1,31,83,384
1,40,83,12
1,33,83,766
1,38,83,28
1,38,83,212
1,30,83,128
1,33,83,16
1,35,83,386
1,30,83,238
1,35,83,4
1,33,83,384
1,31,83,18
1,38,83,336
1,31,83,766
1,36,83,398
1,31,83,74
1,28,83,48
1,31,83,46
1,33,83,48
1,28,83,80
1,33,83,32
1,31,83,24
1,29,83,34
1,29,83,184
1,36,83,2
1,29,83,14
1,38,83,18
1,31,83,766
1,36,83,12
1,31,83,176
1,36,83,30
1,35,83,384
1,33,83,34
1,33,83,202
1,31,83,8
1,29,83,12
1,29,83,222
1,36,83,16
1,29,83,24
1,38,83,386
1,31,83,750
1,36,83,42
1,31,83,170
1,36,83,4
1,31,83,4
1,33,83,10
1,33,83,250
1,33,83,74
1,31,83,16
1,29,83,38
1,29,83,180
1,36,83,16
1,29,83,384
1,38,83,378
1,31,83,8
1,31,83,62
1,45,83,18
1,40,83,30
1,45,83,14
1,40,83,16
1,33,83,8
1,40,83,256
1,45,83,2
1,40,83,24
1,45,83,0
1,40,83,2
1,45,83,2
1,40,83,254
1,33,83,10
1,40,83,256
1,45,83,112
1,40,83,254
1,36,83,22
1,36,83,64
1,36,83,80
1,36,83,56
1,31,83,48
1,36,83,130
1,36,83,104
1,36,83,96
1,31,83,8
1,28,83,0
1,28,83,90
1,28,83,64
1,28,83,78
1,29,83,92
1,29,83,68
1,29,83,84
1,29,83,96
1,31,83,76
1,31,83,104
1,31,83,110
1,31,83,132
1,33,83,172
1,40,83,1022
1,45,83,2
1,38,83,42
1,33,83,224
1,38,83,2
1,37,83,382
1,35,83,6
1,30,83,290
1,35,83,14
1,33,83,8
1,31,83,16
1,31,83,234
1,38,83,4
1,31,83,384
1,40,83,12
1,33,83,766
1,38,83,28
1,33,83,224
1,38,83,2
1,37,83,382
1,35,83,10
1,30,83,288
1,35,83,14
1,33,83,4
1,31,83,16
1,31,83,234
1,38,83,8
1,31,83,384
1,40,83,12
1,33,83,766
1,38,83,26
1,33,83,224
1,38,83,2
1,37,83,382
1,35,83,10
1,30,83,288
1,35,83,14
1,33,83,4
1,31,83,18
1,31,83,234
1,38,83,8
1,31,83,384
1,40,83,12
1,33,83,766
1,38,83,28
1,33,83,224
1,38,83,2
1,37,83,382
1,35,83,6
1,30,83,288
1,35,83,6
1,33,83,8
1,31,83,16
1,31,83,234
1,38,83,8
1,31,83,384
1,40,83,10
1,33,83,766
1,38,83,28
1,33,83,224
1,38,83,2
1,37,83,382
1,35,83,6
1,30,83,288
1,35,83,14
1,33,83,8
1,31,83,16
1,31,83,234
1,38,83,4
1,31,83,384
1,40,83,12
1,33,83,766
1,38,83,28
1,33,83,224
1,38,83,2
1,37,83,382
1,35,83,10
1,30,83,288
1,35,83,14
1,33,83,4
1,31,83,16
1,31,83,232
1,38,83,8
1,31,83,384
1,40,83,12
1,33,83,766
1,26,99,26
2,82,91,132088
2,83,100,26
2,84,82,20
2,79,91,2
2,81,100,48
2,79,118,224
2,81,109,16
2,75,109,128
2,74,109,48
2,75,100,78
2,74,100,54
2,72,109,14
2,74,74,780
2,75,91,24
2,76,91,54
2,79,49,836
2,81,91,84
2,84,100,68
2,87,118,72
2,88,100,62
2,89,109,62
2,90,100,52
2,91,109,58
2,89,100,70
2,87,109,80
2,88,109,42
2,91,82,22
2,88,91,84
2,84,82,40
2,79,100,54
2,77,82,22
2,76,82,16
2,79,100,84
2,80,109,20
2,81,91,76
2,79,109,48
2,72,47,16
2,84,100,44
2,77,109,4
2,81,91,2
2,72,49,10
2,84,109,46
2,77,109,2
2,81,100,0
2,75,100,58
2,84,74,4
2,79,91,2
2,76,91,96
2,72,100,20
2,77,109,50
2,81,109,6
2,84,100,0
2,72,70,10
2,84,82,26
2,75,100,2
2,79,91,4
2,76,91,54
2,72,109,6
2,77,78,46
2,81,109,2
2,84,91,0
2,72,78,22
2,79,91,34
2,75,91,6
2,84,74,6
2,76,100,42
2,72,100,18
2,84,91,40
2,81,100,6
2,77,100,2
2,72,74,6
2,75,91,18
2,79,78,6
2,84,54,10
2,76,109,24
2,72,100,14
2,78,91,38
2,84,100,4
2,82,109,0
2,79,100,8
2,72,50,0
2,84,100,52
2,81,109,2
2,77,109,0
2,84,109,70
2,75,118,10
2,79,109,4
2,76,109,80
2,75,109,68
2,84,91,2
2,79,100,4
2,76,100,42
2,72,82,18
2,69,37,14
2,72,118,62
2,72,109,58
2,79,109,82
2,75,118,0
2,76,82,90
2,82,118,432
2,84,91,8
2,83,91,0
2,89,109,582
2,87,118,154
2,88,118,50
2,91,91,16
2,88,91,0
2,84,91,38
2,79,109,56
2,77,100,14
2,76,100,16
2,79,109,88
2,80,109,8
2,81,109,56
2,79,127,186
3,84,72,2688
3,79,81,0
3,76,72,0
3,81,81,1536
3,77,72,1530
3,74,99,1530
3,84,81,2
3,79,90,52
3,76,64,0
3,81,72,1530
3,77,81,1530
3,74,72,14
3,84,81,768
3,76,81,18
3,79,90,0
3,81,81,1530
3,77,81,1534
3,74,81,10
3,84,81,768
3,79,90,46
3,76,68,0
3,81,72,1530
3,77,90,1534
3,74,81,20
3,84,81,768
3,76,68,24
3,79,90,0
3,81,81,1530
3,77,99,1530
3,74,90,24
3,84,81,768
3,79,81,18
3,76,72,0
3,81,72,1536
3,77,81,4
3,74,90,1536
3,84,72,762
3,76,48,40
3,79,99,10
3,79,99,290
3,74,99,0
3,72,81,0
3,76,72,1536
3,74,90,36
3,81,90,0
3,77,99,0
3,79,90,58
3,83,99,0
3,76,99,0
3,78,81,370
3,81,90,0
3,86,90,0
3,83,72,1536
3,79,72,1530
3,76,90,10
3,83,72,0
3,79,90,0
3,79,90,56
3,86,81,0
3,83,81,0
3,81,72,90
3,78,81,0
3,83,81,1536
3,79,72,1530
3,76,99,1534
3,86,81,14
3,81,81,82
3,78,81,0
3,86,81,0
3,83,81,1536
3,79,99,8
3,81,72,18
3,74,72,0
3,77,90,0
3,84,72,768
3,79,90,40
3,76,81,0
3,81,81,1530
3,77,90,1530
3,74,90,1524
3,84,72,766
3,76,81,4
3,79,90,0
3,84,81,0
3,81,81,1536
3,77,81,1534
3,74,81,1530
3,84,81,750
3,76,68,46
3,79,90,0
3,81,72,1530
3,77,90,1534
3,74,81,20
3,84,81,768
3,76,68,24
3,79,90,0
3,81,81,1530
3,77,99,1530
3,74,90,24
3,84,81,768
3,79,81,18
3,76,72,0
3,81,72,1536
3,77,81,4
3,74,90,1536
3,84,72,762
3,76,48,40
3,79,99,10
3,79,99,290
3,74,99,0
3,72,81,0
3,76,72,1536
3,74,90,36
3,81,90,0
3,77,99,0
3,79,90,58
3,83,99,0
3,76,99,0
3,78,81,370
3,81,90,0
3,86,90,0
3,83,72,1536
3,79,72,1530
3,76,90,10
3,83,72,0
3,79,90,0
3,86,81,56
3,79,90,0
3,83,81,0
3,81,72,90
3,78,81,0
3,83,81,1536
3,79,72,1530
3,76,99,1534
3,86,81,14
3,81,81,82
3,78,81,0
3,86,81,0
3,83,81,1536
3,79,99,8
3,74,81,18
3,77,99,0
3,81,90,0
3,84,81,56
3,76,81,18
3,84,81,0
3,79,90,0
3,81,81,762
3,77,81,1534
3,74,81,1530
3,84,81,768
3,79,90,46
3,76,68,0
3,81,72,1530
3,77,90,1534
3,74,81,20
3,84,81,768
3,76,68,24
3,79,90,0
3,81,81,1530
3,77,99,1530
3,74,90,24
3,84,81,768
3,84,72,18
3,81,72,0
3,76,48,0
3,79,99,3072
3,79,99,290
3,74,99,0
3,72,81,0
3,76,72,1536
3,74,90,36
3,81,90,0
3,77,99,0
3,79,90,58
3,83,99,0
3,76,99,0
3,78,81,370
3,81,90,0
3,86,90,0
3,83,72,1536
3,79,72,1530
3,76,90,10
3,83,72,0
3,79,90,0
3,79,90,56
3,86,81,0
3,83,81,0
3,78,81,90
3,81,90,0
3,86,90,0
3,83,72,762
3,79,72,1530
3,76,90,10
3,83,72,0
3,79,90,0
3,79,90,56
3,86,81,0
3,83,81,0
3,81,90,90
3,78,81,0
3,86,90,0
3,83,72,762
3,79,72,1530
3,76,90,10
3,83,72,0
3,79,90,0
3,79,90,56
3,86,81,0
3,83,81,0
3,81,90,90
3,78,81,0
3,86,90,0
3,83,72,762
3,79,72,1530
3,76,90,10
3,83,72,0
3,79,90,0
3,79,90,56
3,86,81,0
3,83,81,0
3,78,81,90
3,81,90,0
3,86,90,0
3,83,72,762
3,79,72,1530
3,76,90,10
3,83,72,0
3,79,90,0
3,79,90,56
3,86,81,0
3,83,81,0
3,78,81,90
3,81,90,0
3,86,90,0
3,83,72,762
3,79,72,1530
3,76,72,14
3,83,72,0
3,79,90,0
3,86,81,8
3,74,72,110
3,81,81,0
3,78,81,0
4,64,95,3328
4,60,77,0
4,67,77,0
4,67,86,22
4,62,95,0
4,60,86,0
4,60,86,22
4,67,95,0
4,64,95,0
4,67,77,220
4,64,73,0
4,60,77,0
4,67,77,22
4,62,86,0
4,60,77,0
4,67,86,22
4,60,86,0
4,64,104,0
4,69,77,186
4,65,86,0
4,60,77,0
4,69,86,22
4,64,95,0
4,60,86,0
4,69,86,22
4,65,104,0
4,62,95,0
4,67,86,166
4,65,86,0
4,60,86,0
4,60,77,28
4,64,77,0
4,67,73,0
4,60,86,22
4,67,77,0
4,62,95,0
4,67,77,384
4,64,77,0
4,60,86,0
4,64,95,86
4,60,77,0
4,67,77,0
4,67,86,22
4,62,95,0
4,60,86,0
4,64,95,22
4,67,95,0
4,60,86,0
4,67,77,220
4,64,73,0
4,60,77,0
4,67,77,22
4,62,86,0
4,60,77,0
4,64,104,22
4,60,86,0
4,67,86,0
4,69,77,186
4,65,86,0
4,60,77,0
4,69,86,22
4,64,95,0
4,60,86,0
4,62,95,22
4,65,104,0
4,69,86,0
4,67,86,166
4,65,86,0
4,60,86,0
4,60,77,28
4,64,77,0
4,67,73,0
4,60,86,22
4,67,77,0
4,62,95,0
4,67,86,384
4,60,95,0
4,62,86,0
4,64,95,123
4,64,95,60
4,60,86,0
4,57,95,0
4,65,77,54
4,57,77,0
4,60,86,0
4,65,95,138
4,67,86,0
4,60,104,0
4,64,77,44
4,67,77,0
4,60,86,0
4,67,73,64
4,62,86,0
4,60,86,0
4,64,86,384
4,67,86,0
4,60,86,0
4,64,95,38
4,60,86,0
4,57,95,0
4,65,77,54
4,57,77,0
4,60,86,0
4,65,95,138
4,67,86,0
4,60,104,0
4,64,77,44
4,67,77,0
4,60,86,0
4,67,73,64
4,62,86,0
4,60,86,0
4,64,86,384
4,67,86,0
4,60,86,0
4,64,95,38
4,60,86,0
4,57,95,0
4,65,77,54
4,57,77,0
4,60,86,0
4,65,95,138
4,67,86,0
4,60,104,0
4,64,77,44
4,67,77,0
4,60,86,0
4,67,73,64
4,62,86,0
4,60,86,0
4,64,86,384
4,67,86,0
4,60,86,0
4,64,95,38
4,60,86,0
4,57,95,0
4,65,77,54
4,57,77,0
4,60,86,0
4,65,95,138
4,67,86,0
4,60,104,0
4,64,77,44
4,67,77,0
4,60,86,0
4,67,73,64
4,62,86,0
4,60,86,0
4,62,86,384
4,60,86,0
4,67,86,0
4,64,95,123
4,67,77,100
4,64,77,0
4,60,77,0
4,50,86,4
4,53,86,224
4,58,77,0
4,55,98,4
4,58,86,160
4,62,86,0
4,67,95,20
4,62,95,0
4,60,95,0
4,60,86,128
4,64,86,0
4,67,86,0
4,60,77,108
4,67,86,0
4,62,86,0
4,59,77,230
4,62,86,0
4,67,86,0
4,69,77,636
4,62,77,0
4,66,95,0
4,62,86,22
4,64,95,0
4,69,86,0
4,66,95,22
4,69,95,0
4,62,86,0
4,62,77,220
4,66,73,0
4,69,77,0
4,62,77,22
4,64,86,0
4,69,77,0
