track,note,velocity,time
1,31,98,896
1,31,114,96
1,31,110,48
1,33,114,48
1,35,122,32
1,36,66,50
1,36,98,80
1,36,90,32
1,33,98,2
1,33,106,64
1,33,106,110
1,29,114,34
1,28,106,82
1,26,114,34
1,31,114,38
1,36,86,34
1,36,102,178
1,33,90,50
1,33,106,112
1,38,110,34
1,40,114,66
1,41,114,70
1,43,118,102
1,36,94,18
1,43,106,54
1,36,102,18
1,36,110,112
1,35,102,48
1,33,102,178
1,33,106,128
1,31,114,34
1,41,106,102
1,41,106,112
1,40,106,50
1,38,106,66
1,38,110,96
1,40,94,32
1,41,94,32
1,43,86,22
1,31,110,114
1,33,94,16
1,35,106,128
1,36,102,18
1,36,110,112
1,35,102,50
1,33,102,178
1,33,106,128
1,31,114,34
1,41,106,102
1,41,106,112
1,40,106,50
1,38,106,66
1,38,122,16
1,40,122,18
1,41,118,18
1,43,118,18
1,40,110,32
1,40,106,208
1,33,82,34
1,33,94,114
1,38,114,2
1,38,90,98
1,43,106,22
1,43,110,82
1,42,114,34
1,41,106,32
1,40,110,50
1,40,94,144
1,33,78,38
1,33,90,96
1,38,110,2
1,38,110,64
1,40,110,32
1,41,86,48
1,43,98,34
1,38,106,18
1,31,110,48
1,33,106,0
1,35,106,16
1,36,110,34
1,36,114,96
1,33,106,32
1,33,98,112
1,41,110,50
1,40,110,98
1,38,106,66
1,43,98,2
1,31,94,32
1,36,94,18
1,36,110,82
1,33,106,34
1,33,98,112
1,38,106,50
1,38,82,48
1,38,110,80
1,38,122,66
1,40,114,16
1,41,118,18
1,40,94,16
1,41,114,48
1,43,102,22
1,45,82,50
1,48,102,50
1,36,114,20
1,36,94,80
1,33,106,34
1,33,78,96
1,34,122,34
1,36,94,48
1,38,102,16
1,41,106,18
1,29,110,32
1,26,114,82
1,28,114,34
1,29,114,54
1,31,114,22
1,36,118,24
1,43,106,22
1,36,102,18
1,36,110,112
1,35,102,48
1,33,102,178
1,33,106,128
1,31,114,32
1,41,106,102
1,41,106,112
1,40,106,50
1,38,106,66
1,38,110,96
1,40,94,32
1,41,94,32
1,43,86,22
1,31,110,114
1,33,94,16
1,35,106,130
1,36,102,22
1,36,110,112
1,35,102,50
1,33,102,176
1,33,106,128
1,31,114,34
1,41,106,102
1,41,106,112
1,40,106,50
1,38,106,66
1,38,122,16
1,40,122,16
1,41,118,18
1,43,118,18
1,40,110,34
1,40,106,208
1,33,82,34
1,33,94,114
1,38,114,2
1,38,90,96
1,43,106,18
1,43,110,82
1,42,114,34
1,41,106,34
1,40,110,50
1,40,94,146
1,33,78,36
1,33,90,96
1,38,110,6
1,38,110,64
1,40,110,32
1,41,86,48
1,43,98,34
1,38,106,22
1,31,110,48
1,33,106,0
1,35,106,16
1,36,110,34
1,36,114,96
1,33,106,34
1,33,98,112
1,41,110,50
1,40,110,98
1,38,106,64
1,43,98,6
1,31,94,34
1,36,94,18
1,36,110,80
1,33,106,34
1,33,98,112
1,38,106,50
1,38,82,50
1,38,110,82
1,38,122,66
1,40,114,18
1,41,118,18
1,40,94,16
1,41,114,50
1,43,102,22
1,45,82,50
1,48,102,50
1,36,114,18
1,36,94,80
1,33,106,32
1,33,78,96
1,34,122,34
1,36,94,48
1,38,102,16
1,41,106,18
1,29,110,32
1,26,114,82
1,28,114,34
1,29,114,50
1,31,114,22
1,36,118,24
1,41,118,278
1,41,114,98
1,41,122,86
1,43,118,118
1,43,118,86
1,45,106,82
1,45,114,64
1,45,102,64
1,40,106,18
1,40,102,64
1,40,110,146
1,41,110,22
1,41,106,80
1,41,102,80
1,29,106,0
1,29,106,64
1,29,114,48
1,31,110,16
1,33,114,2
1,33,110,32
1,33,98,64
1,40,114,2
1,40,106,48
1,40,98,80
1,41,110,34
1,41,98,80
1,29,114,0
1,29,118,32
1,29,118,34
1,31,114,18
1,45,114,34
1,45,114,64
1,45,102,48
1,40,106,134
1,40,110,64
1,40,102,48
1,41,110,18
1,41,110,48
1,41,102,80
1,38,114,34
1,26,122,70
1,28,118,34
1,29,118,34
1,31,114,32
1,31,114,130
1,31,118,124
1,31,122,18
1,33,110,2
1,35,110,18
1,36,110,38
1,36,114,96
1,33,106,32
1,33,98,112
1,41,110,50
1,40,110,98
1,38,106,66
1,43,98,2
1,31,94,32
1,36,94,18
1,36,110,80
1,33,106,32
1,33,98,112
1,38,106,50
1,38,82,50
1,38,110,80
1,38,122,64
1,40,114,16
1,41,118,18
1,40,94,18
1,41,114,50
1,43,102,22
1,45,82,50
1,48,102,50
1,36,114,22
1,36,94,82
1,33,106,34
1,33,78,96
1,34,122,34
1,36,94,48
1,38,102,16
1,41,106,18
1,29,110,32
1,26,114,82
1,28,114,34
1,29,114,50
1,31,114,22
1,36,118,22
1,36,114,16
1,33,106,34
1,33,98,114
1,41,110,50
1,40,110,98
1,38,106,66
1,43,98,6
1,31,94,32
1,36,110,18
1,36,114,96
1,33,106,34
1,33,98,112
1,41,110,50
1,40,110,98
1,38,106,66
1,43,98,2
1,31,94,32
1,36,110,16
1,36,114,98
1,33,106,32
1,33,98,114
1,41,110,50
1,40,110,98
1,38,106,66
1,43,98,6
1,31,94,34
1,36,110,18
1,36,114,98
1,33,106,32
1,33,98,112
1,41,110,50
1,40,110,102
1,38,106,66
1,43,98,6
1,31,94,34
1,36,110,22
1,36,114,96
1,33,106,32
1,33,98,112
1,41,110,50
1,40,110,98
1,38,106,64
1,43,98,2
1,31,94,32
1,36,110,22
1,36,114,96
1,33,106,32
1,33,98,112
1,41,110,50
1,40,110,98
1,38,106,66
1,43,98,2
1,31,94,32
1,36,110,18
1,36,114,96
1,33,106,34
1,33,98,114
1,41,110,50
1,40,110,98
1,38,106,64
1,43,98,6
1,31,94,32
1,36,110,22
1,36,114,96
1,33,106,32
1,33,98,112
1,41,110,50
1,40,110,98
1,38,106,66
1,43,98,6
1,31,94,32
1,36,110,18
1,24,126,0
2,91,114,1920
2,97,62,0
2,93,106,48
2,96,118,64
2,93,106,640
2,96,118,48
2,100,122,238
2,98,122,80
2,96,126,96
2,93,114,112
2,91,118,512
2,93,106,48
2,96,118,64
2,89,122,48
2,98,106,0
2,91,118,16
2,100,118,0
2,93,122,32
2,98,122,0
2,91,122,64
2,100,118,0
2,88,114,66
2,101,118,0
2,88,122,48
2,103,118,0
2,93,110,23954
2,96,110,64
2,98,118,32
2,96,118,48
2,93,110,48
2,96,110,64
2,96,118,128
2,96,114,784
2,100,110,0
2,98,102,32
2,101,110,0
2,100,118,32
2,103,110,0
2,93,110,2446
2,96,110,64
2,98,118,32
2,96,118,48
2,93,110,48
2,96,110,70
2,108,122,2
2,108,122,130
2,96,122,21536
2,93,110,2048
2,96,110,64
2,98,118,32
2,96,118,48
2,93,110,48
2,96,110,64
2,96,118,128
2,96,114,784
2,100,110,0
2,98,102,32
2,101,110,0
2,100,118,32
2,103,110,0
2,93,110,2448
2,96,110,64
2,98,118,32
2,96,118,48
2,93,110,48
2,96,110,66
2,96,122,1134
2,96,122,271
2,89,110,288
2,84,110,0
2,89,114,96
2,84,102,0
2,89,114,36
2,84,102,0
2,91,106,80
2,86,102,2
2,91,114,64
2,86,106,0
2,88,118,5584
2,91,102,64
2,93,110,32
2,91,118,32
2,88,110,48
2,93,106,16
2,91,110,0
2,84,102,32
2,98,114,178
2,100,118,48
2,101,110,80
2,91,118,144
2,91,94,32
2,93,110,14
2,98,106,48
2,98,86,16
2,96,110,16
2,93,114,48
2,96,122,48
2,93,110,2048
2,96,110,64
2,98,118,32
2,96,118,48
2,93,110,48
2,96,110,64
2,96,118,128
2,96,114,784
2,100,110,0
2,98,102,32
2,101,110,0
2,100,118,32
2,103,110,0
2,81,110,2448
2,84,110,64
2,86,118,32
2,84,118,48
2,81,110,48
2,84,110,66
2,96,122,0
2,96,122,134
2,88,122,416
2,89,106,48
2,91,110,64
2,84,114,364
2,86,114,50
2,88,114,66
2,91,110,1130
2,93,114,64
2,96,118,64
2,88,122,402
2,89,106,50
2,91,110,62
2,84,114,368
2,86,114,48
2,88,114,64
2,91,110,1134
2,93,114,64
2,96,118,64
2,88,122,398
2,89,106,48
2,91,110,64
2,84,114,368
2,86,114,48
2,88,114,64
2,91,110,1130
2,93,114,64
2,96,118,64
2,88,122,400
2,89,106,48
2,91,110,66
2,84,114,370
2,86,114,48
2,88,114,64
2,91,110,1134
2,93,114,66
2,96,118,66
2,93,110,2448
2,96,110,64
2,98,118,32
2,96,118,48
2,93,110,48
2,93,110,2496
2,96,110,64
2,98,118,32
2,96,118,48
2,93,110,48
2,93,110,2496
2,96,110,62
2,98,118,34
2,96,118,48
2,93,110,48
2,96,122,64
2,93,110,2048
2,96,110,64
2,98,118,32
2,96,118,48
2,93,110,48
2,84,122,64
3,67,114,1920
3,73,62,0
3,69,106,48
3,72,118,64
3,69,106,640
3,72,118,48
3,76,122,238
3,74,122,80
3,72,126,96
3,69,114,114
3,67,114,512
3,69,106,48
3,72,122,66
3,74,106,16
3,76,114,16
3,77,114,32
3,76,118,80
3,72,118,82
3,72,126,96
3,69,106,17808
3,57,102,0
3,69,114,66
3,57,110,0
3,60,114,32
3,72,102,0
3,62,114,16
3,74,106,2
3,64,106,32
3,76,106,0
3,62,114,16
3,74,122,0
3,76,110,48
3,64,114,0
3,65,102,32
3,77,114,0
3,76,118,64
3,72,110,0
3,67,118,2
3,69,106,0
3,69,110,144
3,72,110,0
3,67,106,0
3,76,102,0
3,69,110,2466
3,72,110,64
3,74,118,34
3,72,118,48
3,69,110,48
3,72,110,66
3,72,122,128
3,72,114,784
3,76,110,2
3,74,102,32
3,77,110,0
3,76,118,32
3,79,110,2
3,69,110,2446
3,72,110,64
3,74,118,32
3,72,118,48
3,69,110,50
3,72,110,70
3,84,122,0
3,84,122,140
3,69,106,17824
3,57,102,2
3,69,114,64
3,57,110,4
3,60,114,32
3,72,102,0
3,62,114,18
3,74,106,0
3,64,106,32
3,76,106,0
3,62,114,14
3,74,122,0
3,76,110,48
3,64,114,2
3,65,102,32
3,77,114,0
3,69,102,66
3,81,114,0
3,84,110,16
3,72,110,0
3,86,114,16
3,74,114,0
3,72,106,0
3,84,114,0
3,81,106,16
3,69,102,0
3,84,122,32
3,69,110,2000
3,72,110,64
3,74,118,32
3,72,118,50
3,69,110,48
3,72,110,64
3,72,122,128
3,72,114,784
3,76,110,0
3,74,102,32
3,77,110,0
3,76,118,34
3,79,110,0
3,69,110,2448
3,72,110,64
3,74,118,32
3,72,118,46
3,69,110,48
3,72,110,66
3,84,122,2
3,84,122,136
3,81,114,288
3,69,110,2
3,81,118,144
3,69,98,2
3,81,118,114
3,69,114,4
3,71,110,98
3,83,122,0
3,83,118,80
3,71,114,2
3,64,114,5584
3,67,114,32
3,69,114,32
3,67,114,32
3,64,110,48
3,69,114,32
3,67,98,16
3,60,110,0
3,65,118,82
3,67,118,64
3,69,114,48
3,67,110,128
3,67,86,32
3,69,110,14
3,74,114,46
3,74,98,16
3,72,106,64
3,69,114,48
3,84,122,48
3,69,110,2000
3,72,110,64
3,74,118,32
3,72,118,48
3,69,110,48
3,72,110,64
3,72,122,128
3,72,114,784
3,76,110,2
3,74,102,32
3,77,110,2
3,76,118,32
3,79,110,0
3,69,110,2448
3,72,110,64
3,74,118,32
3,72,118,48
3,69,110,48
3,72,110,66
3,84,122,0
3,84,122,136
3,76,118,416
3,72,102,0
3,74,102,64
3,77,114,0
3,76,110,32
3,79,110,0
3,72,114,386
3,69,110,0
3,74,110,62
3,71,114,2
3,72,106,48
3,76,118,0
3,79,114,1152
3,76,122,0
3,81,110,48
3,77,106,0
3,76,106,0
3,84,106,64
3,79,110,0
3,76,118,402
3,72,102,0
3,74,102,64
3,77,114,2
3,76,110,32
3,79,110,0
3,72,114,384
3,69,110,0
3,74,110,64
3,71,114,0
3,72,106,48
3,76,118,0
3,79,114,1152
3,76,122,0
3,81,110,48
3,77,106,0
3,76,106,0
3,84,106,64
3,79,110,0
3,76,118,398
3,72,102,0
3,74,102,64
3,77,114,0
3,76,110,32
3,79,110,0
3,72,114,384
3,69,110,0
3,74,110,64
3,71,114,0
3,72,106,48
3,76,118,0
3,79,114,1152
3,76,122,0
3,81,110,48
3,77,106,0
3,76,106,0
3,84,106,64
3,79,110,0
3,76,118,400
3,72,102,0
3,74,102,64
3,77,114,0
3,76,110,32
3,79,110,0
3,72,114,384
3,69,110,0
3,74,110,64
3,71,114,0
3,72,106,48
3,76,118,0
3,79,114,1152
3,76,122,0
3,81,110,48
3,77,106,0
3,76,106,0
3,84,106,64
3,79,110,2
3,69,110,2448
3,72,110,64
3,74,118,32
3,72,118,48
3,69,110,48
3,69,110,2496
3,72,110,64
3,74,118,32
3,72,118,48
3,69,110,48
3,69,110,2496
3,72,110,64
3,74,118,34
3,72,118,48
3,69,110,48
3,72,118,64
3,69,110,1984
3,72,110,64
3,74,118,32
3,72,118,48
3,69,110,48
3,84,122,64
4,79,38,896
4,74,34,0
4,79,70,112
4,84,110,0
4,81,86,64
4,79,102,16
4,81,94,112
4,77,110,0
4,79,98,64
4,76,106,0
4,77,106,48
4,74,90,0
4,77,98,48
4,79,86,0
4,72,122,32
4,74,118,80
4,76,118,48
4,77,114,82
4,79,118,80
4,84,110,542
4,88,102,2
4,79,94,0
4,86,106,80
4,81,102,0
4,89,106,2
4,84,106,48
4,88,90,2
4,91,102,0
4,88,110,32
4,84,106,0
4,91,102,2
4,89,102,32
4,86,106,0
4,81,110,0
4,84,110,64
4,79,110,0
4,88,110,2
4,86,46,0
4,88,110,32
4,84,114,0
4,81,110,2
4,77,118,0
4,86,90,4
4,91,78,80
4,89,110,0
4,88,110,0
4,86,78,2
4,84,66,0
4,83,98,2
4,86,58,0
4,81,106,0
4,79,94,0
4,77,90,0
4,76,110,0
4,74,110,0
4,72,106,16
4,71,102,0
4,69,106,0
4,67,102,0
4,65,98,16
4,64,102,0
4,62,94,16
4,60,74,0
4,76,106,32
4,77,98,32
4,76,82,16
4,74,90,16
4,79,78,48
4,76,106,48
4,77,98,32
4,76,82,16
4,74,114,16
4,76,122,16
4,77,106,16
4,79,114,16
4,76,114,32
4,79,94,0
4,76,110,32
4,72,98,0
4,77,90,80
4,74,90,0
4,79,94,48
4,76,106,0
4,72,90,34
4,76,106,0
4,77,98,64
4,74,98,0
4,79,106,64
4,74,90,0
4,74,90,0
4,79,102,1
4,72,114,0
4,76,118,0
4,72,94,32
4,77,106,0
4,76,98,32
4,72,98,0
4,74,94,16
4,74,86,48
4,71,114,0
4,76,106,32
4,72,110,0
4,72,106,32
4,77,110,0
4,79,90,16
4,79,102,288
4,74,106,0
4,72,114,16
4,72,114,0
4,76,118,0
4,76,118,0
4,77,110,48
4,77,110,0
4,74,114,0
4,74,114,0
4,77,98,32
4,77,98,0
4,72,110,0
4,72,110,0
4,74,102,64
4,74,102,0
4,69,90,0
4,69,90,0
4,72,102,48
4,72,102,0
4,76,106,0
4,76,106,0
4,74,90,48
4,74,90,0
4,77,94,1
4,77,94,0
4,72,94,16
4,72,94,0
4,72,110,112
4,72,110,0
4,67,106,0
4,67,106,0
4,76,106,32
4,77,98,32
4,76,82,16
4,74,90,16
4,79,78,48
4,76,106,50
4,77,98,32
4,76,82,16
4,74,114,16
4,76,122,16
4,77,106,16
4,79,114,16
4,76,114,32
4,79,94,0
4,76,110,32
4,72,98,0
4,77,90,80
4,74,90,0
4,79,94,48
4,76,106,0
4,72,90,34
4,76,106,0
4,77,98,66
4,74,98,0
4,79,106,64
4,74,90,0
4,74,90,384
4,79,102,0
4,72,114,0
4,76,118,0
4,72,94,32
4,77,106,0
4,76,98,32
4,72,98,0
4,74,94,16
4,74,86,50
4,71,114,0
4,76,106,32
4,72,110,0
4,72,106,32
4,77,110,0
4,79,90,16
4,79,102,288
4,74,106,2
4,72,114,16
4,76,118,0
4,77,110,46
4,74,114,0
4,77,98,32
4,72,110,0
4,74,102,64
4,69,90,0
4,72,102,48
4,76,106,0
4,74,90,48
4,77,94,0
4,72,94,16
