track,note,velocity,time
1,60,111,8208
1,67,111,0
1,65,111,0
1,65,111,0
1,60,111,192
1,60,111,0
1,63,111,0
1,60,111,0
1,60,111,0
1,60,111,0
1,60,111,96
1,60,111,0
1,67,111,0
1,65,111,0
1,65,111,0
1,58,111,144
1,58,111,0
1,60,111,0
1,60,111,0
1,60,111,0
1,60,111,0
1,60,111,0
1,63,111,0
1,60,111,0
1,53,111,192
1,53,111,0
1,53,111,0
1,53,111,0
1,53,111,0
1,55,111,48
1,67,111,48
1,65,111,0
1,63,111,0
1,65,111,0
1,67,111,0
1,67,111,384
1,63,111,0
1,65,111,0
1,63,111,0
1,60,111,0
1,60,111,0
1,67,111,0
1,65,111,0
1,63,111,0
1,65,111,0
1,67,111,0
1,63,111,288
1,60,111,0
1,60,111,0
1,67,111,0
1,65,111,0
1,63,111,0
1,65,111,0
1,63,111,0
1,60,111,96
1,60,111,0
1,63,111,0
1,60,111,0
1,60,111,0
1,58,111,48
1,58,111,0
1,60,111,0
1,60,111,0
1,63,111,0
1,58,111,48
1,58,111,0
1,58,111,0
1,60,111,0
1,60,111,0
1,67,111,48
1,65,111,0
1,65,111,0
1,63,111,0
1,63,111,0
1,60,111,0
1,63,111,0
1,60,111,0
1,60,111,0
1,64,111,0
1,67,111,0
1,67,111,0
1,69,111,0
1,64,111,0
1,62,111,0
1,62,111,0
1,69,111,0
1,67,111,0
1,64,111,0
1,67,111,0
1,64,111,0
1,62,111,0
1,60,111,0
1,60,111,0
1,62,111,0
1,60,111,0
1,55,111,48
1,69,111,0
1,67,111,0
1,64,111,0
1,64,111,0
1,62,111,0
1,60,111,96
1,57,111,0
1,60,111,0
1,60,111,0
1,62,111,0
1,55,111,192
1,55,111,0
1,65,111,0
1,67,111,0
1,60,111,0
1,62,111,0
1,62,111,0
1,60,111,96
1,60,111,0
1,63,111,0
1,58,111,0
1,60,111,0
1,60,111,0
1,65,111,240
1,63,111,0
1,65,111,0
1,63,111,0
1,60,111,0
1,60,111,0
1,67,111,0
1,65,111,0
1,63,111,0
1,65,111,0
1,67,111,0
1,60,111,48
1,60,111,0
1,63,111,0
1,60,111,0
1,60,111,0
1,65,111,0
1,65,111,0
1,65,111,0
1,63,111,0
1,60,111,0
1,60,111,0
1,63,111,0
1,60,111,0
1,60,111,0
1,55,111,48
1,67,111,0
1,65,111,0
1,65,111,0
1,63,111,0
1,60,111,0
1,60,111,0
1,60,111,0
1,60,111,0
1,67,111,48
1,67,111,0
1,70,111,0
1,63,111,0
1,60,111,0
1,63,111,0
1,60,111,0
1,60,111,0
1,64,111,0
1,67,111,0
1,67,111,0
1,69,111,0
1,64,111,0
1,62,111,0
1,62,111,0
1,69,111,0
1,67,111,0
1,64,111,0
1,67,111,0
1,64,111,0
1,62,111,0
1,60,111,0
1,60,111,0
1,62,111,0
1,60,111,0
1,69,111,0
1,67,111,0
1,64,111,0
1,67,111,0
1,69,111,0
1,60,111,192
1,60,111,0
1,60,111,0
1,64,111,96
1,60,111,0
1,60,111,0
1,55,111,48
1,55,111,0
1,65,111,0
1,67,111,0
1,60,111,0
1,62,111,0
1,62,111,0
1,58,111,96
1,63,111,0
1,65,111,0
1,67,111,0
1,68,111,0
1,67,111,0
1,65,111,0
1,65,111,0
1,67,111,192
1,67,111,0
1,67,111,0
1,65,111,0
1,63,111,0
1,58,111,480
1,63,111,0
1,65,111,0
1,63,111,0
1,58,111,0
1,58,111,0
1,60,111,672
1,63,111,0
1,65,111,0
1,63,111,0
1,58,111,0
1,58,111,0
1,60,111,672
1,63,111,0
1,65,111,0
1,63,111,0
1,65,111,0
1,67,111,96
1,65,111,0
1,63,111,0
1,67,111,0
1,65,111,96
1,65,111,0
1,63,111,0
1,65,111,0
1,63,111,0
1,60,111,0
1,60,111,0
1,65,111,144
1,65,111,0
1,65,111,0
1,63,111,0
1,60,111,0
1,60,111,0
1,67,111,240
1,65,111,0
1,65,111,0
1,67,111,0
1,60,111,0
1,60,111,0
1,79,95,384
1,78,95,240
1,77,95,0
1,75,95,0
1,72,95,0
1,60,95,240
1,60,95,336
1,58,95,0
1,55,95,0
1,54,95,0
1,53,95,0
1,51,95,0
1,53,95,0
1,53,95,0
1,51,95,0
1,48,95,0
1,48,95,48
1,48,95,0
1,51,95,0
1,53,95,0
1,55,95,0
1,58,95,0
1,60,95,0
1,63,95,0
1,67,95,0
1,67,95,48
1,65,95,0
1,63,95,0
1,60,95,0
1,58,95,48
1,60,95,0
1,63,95,0
1,67,95,0
1,67,95,0
1,72,95,0
1,72,95,0
1,70,95,0
1,67,95,0
1,67,95,0
1,72,95,0
1,72,95,0
1,67,95,0
1,65,95,0
1,63,95,0
1,60,95,0
1,65,95,0
1,63,95,0
1,60,95,0
1,58,95,0
1,63,95,0
1,60,95,0
1,58,95,0
1,55,95,0
1,60,95,0
1,58,95,0
1,55,95,0
1,53,95,0
1,53,95,0
1,54,95,0
1,55,95,0
1,58,95,0
1,60,95,0
1,63,95,0
1,67,95,0
1,67,95,0
1,63,95,48
1,65,95,0
1,67,95,0
1,63,95,0
1,67,95,0
1,72,95,0
1,67,95,0
1,72,95,0
1,67,95,0
1,72,95,0
1,67,95,0
1,72,95,0
1,67,95,0
1,72,95,0
1,67,95,0
1,72,95,0
1,67,95,0
1,72,95,0
1,72,95,0
1,67,95,0
1,67,95,0
1,72,95,0
1,67,95,0
1,72,95,0
1,65,95,0
1,72,95,0
1,69,95,0
1,72,95,0
1,67,95,0
1,72,95,0
1,65,95,0
1,72,95,0
1,65,95,0
1,65,95,0
1,67,95,0
1,72,95,0
1,67,95,0
1,72,95,0
1,67,95,0
1,72,95,0
1,67,95,0
1,72,95,0
1,67,95,0
1,72,95,0
1,67,95,0
1,72,95,0
1,67,95,0
1,72,95,0
1,67,95,0
1,72,95,0
1,67,95,0
1,72,95,0
1,67,95,0
1,72,95,0
1,67,95,0
1,72,95,0
1,72,95,0
1,67,95,0
1,65,95,0
1,69,95,0
1,63,95,0
1,67,95,0
1,67,95,0
1,70,95,0
1,65,95,0
1,63,95,0
1,60,95,0
1,58,95,0
1,55,95,0
1,58,95,0
1,60,95,0
1,64,111,0
1,67,111,0
1,67,111,0
1,69,111,0
1,64,111,384
1,67,111,0
1,67,111,0
1,64,111,48
1,67,111,0
1,64,111,0
1,69,111,0
1,67,111,0
1,64,111,0
1,60,111,0
1,60,111,0
1,62,111,0
1,64,111,0
1,69,111,0
1,67,111,0
1,64,111,0
1,64,111,0
1,57,111,0
1,60,111,144
1,60,111,0
1,60,111,0
1,62,111,0
1,64,111,0
1,67,111,288
1,67,111,0
1,69,111,0
1,67,111,0
1,64,111,0
1,64,111,96
1,64,111,0
1,64,111,0
1,67,111,144
1,67,111,0
1,69,111,0
1,72,111,0
1,60,111,336
1,60,111,48
1,60,111,0
1,64,111,0
1,57,111,0
1,60,111,0
1,60,111,0
1,67,111,0
1,67,111,0
1,69,111,0
1,72,111,0
1,60,111,384
1,60,111,0
1,64,111,0
1,57,111,0
1,60,111,0
1,64,111,0
1,55,111,48
1,65,111,48
1,69,79,0
1,65,111,0
1,69,79,0
1,64,111,0
1,67,79,0
1,64,111,0
1,67,79,0
1,62,111,0
1,65,79,0
1,67,79,0
1,64,111,0
1,55,111,48
1,65,111,48
1,69,79,0
1,65,111,0
1,69,79,0
1,64,111,0
1,67,79,0
1,64,111,0
1,67,79,0
1,62,111,0
1,65,79,0
1,67,79,0
1,64,111,0
1,65,111,144
1,69,79,0
1,65,111,0
1,69,79,0
1,64,111,0
1,67,79,0
1,64,111,0
1,67,79,0
1,62,111,0
1,65,79,0
1,67,79,0
1,64,111,0
1,62,111,0
2,77,79,384
2,72,79,0
2,81,79,0
2,69,79,0
2,65,79,0
2,84,79,0
2,79,79,64
2,76,79,0
2,72,79,0
2,67,79,0
2,64,79,0
2,84,79,0
2,72,79,448
2,67,79,0
2,64,79,0
2,60,79,0
2,76,79,0
2,72,79,64
2,69,79,0
2,65,79,0
2,60,79,0
2,77,79,0
2,77,79,448
2,72,79,0
2,69,79,0
2,65,79,0
2,81,79,0
2,79,79,64
2,76,79,0
2,72,79,0
2,67,79,0
2,64,79,0
2,84,79,0
2,72,79,448
2,67,79,0
2,64,79,0
2,60,79,0
2,76,79,0
2,72,79,64
2,69,79,0
2,65,79,0
2,60,79,0
2,77,79,0
2,77,79,448
2,72,79,0
2,69,79,0
2,65,79,0
2,81,79,0
2,79,79,64
2,76,79,0
2,72,79,0
2,67,79,0
2,64,79,0
2,84,79,0
2,72,79,448
2,67,79,0
2,64,79,0
2,60,79,0
2,76,79,0
2,72,79,64
2,69,79,0
2,65,79,0
2,60,79,0
2,77,79,0
2,70,79,640
2,67,79,0
2,63,79,0
2,75,79,0
2,70,79,224
2,67,79,0
2,63,79,0
2,75,79,0
2,72,79,320
2,65,79,0
2,69,79,0
2,77,79,0
2,69,79,704
2,65,79,0
2,72,79,0
2,77,79,0
2,70,79,32
2,67,79,0
2,63,79,0
2,75,79,0
2,70,79,224
2,67,79,0
2,63,79,0
2,75,79,0
2,72,79,320
2,65,79,0
2,69,79,0
2,77,79,0
2,72,79,416
2,69,79,0
2,65,79,0
2,77,79,0
2,77,79,128
2,65,79,0
2,72,79,0
2,69,79,0
2,70,79,6144
2,67,79,0
2,63,79,0
2,75,79,0
2,70,79,224
2,67,79,0
2,63,79,0
2,75,79,0
2,72,79,320
2,65,79,0
2,69,79,0
2,77,79,0
2,72,79,416
2,69,79,0
2,65,79,0
2,77,79,0
2,77,79,128
2,65,79,0
2,72,79,0
2,69,79,0
2,65,79,5952
2,69,79,0
2,72,79,0
2,77,79,0
2,81,79,0
2,84,79,0
2,79,79,64
2,76,79,0
2,72,79,0
2,67,79,0
2,64,79,0
2,84,79,0
2,72,79,448
2,67,79,0
2,64,79,0
2,60,79,0
2,76,79,0
2,72,79,64
2,69,79,0
2,65,79,0
2,60,79,0
2,77,79,0
2,77,79,448
2,72,79,0
2,69,79,0
2,65,79,0
2,81,79,0
2,79,79,64
2,76,79,0
2,72,79,0
2,67,79,0
2,64,79,0
2,84,79,0
2,72,79,448
2,67,79,0
2,64,79,0
2,60,79,0
2,76,79,0
2,72,79,64
2,69,79,0
2,65,79,0
2,60,79,0
2,77,79,0
2,77,79,448
2,72,79,0
2,69,79,0
2,65,79,0
2,81,79,0
2,79,79,64
2,76,79,0
2,72,79,0
2,67,79,0
2,64,79,0
2,84,79,0
2,72,79,448
2,67,79,0
2,64,79,0
2,60,79,0
2,76,79,0
2,72,79,64
2,69,79,0
2,65,79,0
2,60,79,0
2,77,79,0
2,82,79,640
2,77,79,0
2,74,79,0
2,70,79,0
2,86,79,0
2,84,79,0
2,65,79,0
2,69,79,0
2,72,79,0
2,77,79,0
2,81,79,0
2,79,79,0
2,67,79,0
2,79,79,0
2,67,79,0
2,91,79,0
2,70,79,672
2,67,79,0
2,63,79,0
2,75,79,0
2,70,79,224
2,67,79,0
2,63,79,0
2,75,79,0
2,72,79,320
2,65,79,0
2,69,79,0
2,77,79,0
2,69,79,704
2,65,79,0
2,72,79,0
2,77,79,0
2,70,79,32
2,67,79,0
2,63,79,0
2,75,79,0
2,70,79,224
2,67,79,0
2,63,79,0
2,75,79,0
2,72,79,320
2,65,79,0
2,69,79,0
2,77,79,0
2,72,79,416
2,69,79,0
2,65,79,0
2,77,79,0
2,77,79,128
2,65,79,0
2,72,79,0
2,69,79,0
2,63,79,0
2,67,79,0
2,70,79,0
2,75,79,0
2,65,79,5888
2,69,79,0
2,72,79,0
2,77,79,0
2,81,79,0
2,84,79,0
2,79,79,64
2,76,79,0
2,72,79,0
2,67,79,0
2,64,79,0
2,84,79,0
2,72,79,448
2,67,79,0
2,64,79,0
2,60,79,0
2,76,79,0
2,72,79,64
2,69,79,0
2,65,79,0
2,60,79,0
2,77,79,0
2,77,79,448
2,72,79,0
2,69,79,0
2,65,79,0
2,81,79,0
2,79,79,64
2,76,79,0
2,72,79,0
2,67,79,0
2,64,79,0
2,84,79,0
2,72,79,448
2,67,79,0
2,64,79,0
2,60,79,0
2,76,79,0
2,72,79,64
2,69,79,0
2,65,79,0
2,60,79,0
2,77,79,0
2,77,79,448
2,72,79,0
2,69,79,0
2,65,79,0
2,81,79,0
2,79,79,64
2,76,79,0
2,72,79,0
2,67,79,0
2,64,79,0
2,84,79,0
2,72,79,448
2,67,79,0
2,64,79,0
2,60,79,0
2,76,79,0
2,72,79,64
2,69,79,0
2,65,79,0
2,60,79,0
2,77,79,0
2,82,79,640
2,77,79,0
2,74,79,0
2,70,79,0
2,86,79,0
2,84,79,0
2,65,79,0
2,69,79,0
2,72,79,0
2,77,79,0
2,81,79,0
2,79,79,0
2,67,79,0
2,63,95,384
2,65,95,0
2,67,95,0
2,68,95,0
2,67,95,0
2,65,95,0
2,63,95,0
2,60,95,480
2,63,95,0
2,58,95,0
2,58,95,0
2,63,95,0
2,65,95,0
2,58,95,0
2,63,95,0
2,56,95,0
2,63,95,0
2,58,95,0
2,63,95,0
2,60,95,0
2,70,63,6144
2,67,63,0
2,63,63,0
2,75,63,0
2,70,63,224
2,67,63,0
2,63,63,0
2,75,63,0
2,72,63,320
2,65,63,0
2,69,63,0
2,77,63,0
2,70,63,800
2,67,63,0
2,63,63,0
2,75,63,0
2,70,63,224
2,67,63,0
2,63,63,0
2,75,63,0
2,72,63,320
2,65,63,0
2,69,63,0
2,77,63,0
2,70,63,800
2,67,63,0
2,63,63,0
2,75,63,0
2,70,63,224
2,67,63,0
2,63,63,0
2,75,63,0
2,72,63,320
2,65,63,0
2,69,63,0
2,77,63,0
2,65,63,704
2,69,63,0
2,72,63,0
2,77,63,0
2,70,63,32
2,67,63,0
2,63,63,0
2,75,63,0
2,70,63,224
2,67,63,0
2,63,63,0
2,75,63,0
2,72,63,320
2,65,63,0
2,69,63,0
2,77,63,0
2,70,63,800
2,67,63,0
2,63,63,0
2,75,63,0
2,70,63,224
2,67,63,0
2,63,63,0
2,75,63,0
2,72,63,320
2,65,63,0
2,69,63,0
2,77,63,0
2,70,63,800
2,67,63,0
2,63,63,0
2,75,63,0
2,70,63,224
2,67,63,0
2,63,63,0
2,75,63,0
2,72,63,320
2,65,63,0
2,69,63,0
2,77,63,0
2,70,63,800
2,67,63,0
2,63,63,0
2,75,63,0
2,70,63,224
2,67,63,0
2,63,63,0
2,75,63,0
2,72,63,320
2,65,63,0
2,69,63,0
2,77,63,0
2,65,63,704
2,69,63,0
2,72,63,0
2,77,63,0
2,70,63,32
2,67,63,0
2,63,63,0
2,75,63,0
2,70,63,224
2,67,63,0
2,63,63,0
2,75,63,0
2,72,63,320
2,65,63,0
2,69,63,0
2,77,63,0
2,65,79,608
2,69,79,0
2,72,79,0
2,77,79,0
2,81,79,0
2,84,79,0
2,79,79,64
2,76,79,0
2,72,79,0
2,67,79,0
2,64,79,0
2,84,79,0
2,64,79,448
2,67,79,0
2,72,79,0
2,76,79,0
2,79,79,0
2,84,79,0
2,65,79,64
2,69,79,0
2,72,79,0
2,77,79,0
2,81,79,0
2,84,79,0
2,65,79,448
2,69,79,0
2,72,79,0
2,77,79,0
2,81,79,0
2,79,79,64
2,76,79,0
2,72,79,0
2,67,79,0
2,64,79,0
2,84,79,0
2,64,79,448
2,67,79,0
2,72,79,0
2,76,79,0
2,79,79,0
2,84,79,0
2,65,79,64
2,69,79,0
2,72,79,0
2,77,79,0
2,81,79,0
2,84,79,0
2,65,79,448
2,69,79,0
2,72,79,0
2,77,79,0
2,81,79,0
2,79,79,64
2,76,79,0
2,72,79,0
2,67,79,0
2,64,79,0
2,84,79,0
2,64,79,448
2,67,79,0
2,72,79,0
2,76,79,0
2,79,79,0
2,84,79,0
2,65,79,64
2,69,79,0
2,72,79,0
2,77,79,0
2,81,79,0
2,84,79,0
2,65,79,448
2,69,79,0
2,72,79,0
2,77,79,0
2,81,79,0
2,79,79,64
2,76,79,0
2,72,79,0
2,67,79,0
