track,note,velocity,time
1,62,127,480
1,62,127,112
1,60,127,384
1,62,127,88
1,64,115,108
1,62,94,0
1,60,115,90
1,60,127,124
1,69,115,780
1,64,115,8
1,67,127,28
1,69,115,10
1,60,127,748
1,62,104,4
1,64,104,110
1,62,86,0
1,60,115,30
1,60,127,112
1,64,115,224
1,65,115,40
1,64,94,12
1,65,94,120
1,64,86,0
1,64,94,102
1,64,115,122
1,60,104,24
1,62,104,0
1,62,101,12
1,60,127,118
1,62,115,24
1,64,104,96
1,62,73,0
1,60,115,118
1,60,127,120
1,60,115,778
1,62,104,14
1,64,104,64
1,65,115,10
1,64,86,96
1,62,104,36
1,60,127,12
1,62,115,56
1,62,94,50
1,64,127,96
1,60,115,14
1,60,127,134
1,67,127,1570
1,65,115,8
1,69,104,0
1,64,104,20
1,67,86,0
1,64,115,42
1,67,104,0
1,62,115,72
1,65,115,0
1,60,104,20
1,64,104,0
1,60,127,36
1,64,94,0
1,60,127,222
1,62,115,4
1,64,86,76
1,65,115,96
1,64,104,76
1,62,104,20
1,60,127,10
1,62,115,36
1,64,86,94
1,62,104,0
1,60,115,22
1,60,127,122
1,55,115,272
1,57,104,18
1,59,127,16
1,60,127,86
1,64,127,102
1,65,104,90
1,67,115,96
1,67,127,138
1,65,127,84
1,69,115,0
1,64,104,0
1,67,86,0
1,64,127,38
1,67,86,0
1,62,127,66
1,65,127,0
1,60,115,36
1,64,104,0
1,60,127,40
1,64,104,0
1,60,127,196
1,62,127,6
1,64,115,70
1,65,119,8
1,64,104,96
1,62,104,74
1,60,127,24
1,62,104,52
1,62,94,50
1,64,115,96
1,60,115,36
1,60,127,50
1,62,127,480
1,62,127,112
1,60,127,14
1,62,127,90
1,64,94,122
1,62,94,0
1,60,127,20
1,60,127,116
1,69,127,742
1,64,115,16
1,67,127,32
1,69,104,20
1,67,104,96
1,64,115,6
1,62,115,322
1,62,127,100
1,62,127,104
1,50,127,114
1,62,127,52
1,62,127,96
1,60,127,6
1,64,127,114
1,65,115,30
1,64,127,24
1,65,127,104
1,64,86,24
1,64,127,48
1,67,115,100
1,64,94,94
1,62,127,0
1,60,127,54
1,62,127,20
1,62,127,120
1,62,127,108
1,62,127,116
1,64,104,110
1,62,94,0
1,60,127,92
1,60,127,116
1,62,115,12
1,60,127,6
1,57,115,12
1,64,127,510
1,67,115,88
1,64,104,122
1,62,115,0
1,62,127,46
1,60,127,14
1,62,127,170
1,62,115,48
1,64,127,8
1,60,127,12
1,60,127,44
1,69,127,1576
1,62,115,100
1,64,115,0
1,60,104,32
1,60,127,32
1,60,127,104
1,62,127,46
1,64,94,96
1,62,86,0
1,60,115,12
1,60,127,112
1,62,115,20
1,60,127,6
1,57,115,16
1,62,127,436
1,64,115,20
1,67,115,22
1,67,127,40
1,69,115,10
1,67,115,96
1,64,127,16
1,62,127,334
1,62,127,122
1,62,127,100
1,64,104,120
1,62,94,0
1,60,127,34
1,60,127,122
1,64,115,180
1,65,115,46
1,64,115,30
1,65,127,108
1,64,104,32
1,64,104,40
1,67,115,106
1,64,104,114
1,62,115,0
1,60,127,116
1,62,127,18
1,60,104,178
1,62,104,42
1,62,127,192
1,64,115,0
1,60,127,130
1,60,127,116
1,62,115,96
1,64,127,704
1,67,127,110
1,69,127,94
1,64,104,94
1,62,94,0
1,62,127,40
1,60,127,288
1,62,115,30
1,62,104,54
1,64,115,96
1,60,115,18
1,60,127,52
1,67,104,384
1,65,127,14
1,67,86,36
1,65,115,192
1,69,104,0
1,64,104,6
1,67,73,0
1,64,127,34
1,67,104,0
1,62,127,74
1,65,115,0
1,60,115,24
1,64,86,0
1,60,127,40
1,64,115,0
1,64,115,128
1,65,115,32
1,64,115,8
1,65,104,104
1,67,104,6
1,65,94,12
1,64,127,18
1,62,127,18
1,64,94,106
1,62,94,0
1,60,127,8
1,60,127,116
1,55,104,274
1,57,115,20
1,59,104,18
1,60,115,70
1,64,115,92
1,65,104,68
1,67,94,10
1,65,115,86
1,69,94,0
1,64,94,12
1,67,63,0
1,64,115,32
1,67,86,0
1,62,127,102
1,65,115,0
1,60,115,20
1,64,79,0
1,60,127,34
1,64,86,0
1,57,104,254
1,60,115,22
1,62,127,22
1,64,104,58
1,65,94,96
1,64,115,6
1,62,94,20
1,60,115,14
1,62,94,12
1,62,115,48
1,64,115,2
1,60,115,192
1,60,127,50
1,62,127,496
1,62,127,100
1,60,127,10
1,62,115,110
1,62,104,90
1,64,86,42
1,60,115,72
1,60,115,120
1,62,115,790
1,64,104,72
1,67,115,100
1,62,104,110
1,64,94,32
1,62,115,86
1,60,115,90
1,57,104,8
1,60,127,518
1,62,115,28
1,64,115,102
1,60,127,122
1,60,127,124
1,65,115,378
1,64,104,86
1,65,115,110
1,64,115,0
1,64,127,54
1,67,115,98
1,62,104,88
1,64,104,16
1,60,127,106
1,62,127,18
1,60,115,62
1,62,115,40
1,62,127,64
1,62,127,70
1,62,94,88
1,64,104,30
1,60,127,76
1,60,104,96
1,62,127,20
1,64,127,748
1,67,127,100
1,69,127,90
1,62,115,78
1,64,115,66
1,62,127,0
1,60,127,302
1,62,115,16
1,62,115,52
1,64,115,18
1,60,115,16
1,60,127,58
1,67,127,1488
1,69,104,72
1,65,127,2
1,64,104,4
1,67,73,6
1,67,104,42
1,64,127,6
1,65,127,84
1,62,127,10
1,60,104,0
1,64,104,10
1,64,115,40
1,60,115,6
1,57,86,166
1,60,115,28
1,62,115,22
1,64,115,84
1,65,115,2
1,64,115,94
1,62,127,12
1,60,115,6
1,62,104,0
1,62,94,54
1,64,104,94
1,60,115,8
1,60,127,58
1,55,115,278
1,57,115,10
1,59,104,14
1,60,115,80
1,64,115,92
1,64,86,92
1,65,86,2
1,65,79,20
1,67,51,0
1,69,104,66
1,65,104,16
1,67,73,12
1,64,104,0
1,67,86,40
1,64,115,22
1,65,115,64
1,62,127,12
1,64,86,10
1,60,104,2
1,64,104,38
1,60,115,14
1,60,127,268
1,62,127,24
1,64,104,74
1,65,104,0
1,64,115,92
1,62,115,12
1,60,104,2
1,62,86,14
1,62,104,52
1,64,104,6
1,60,115,6
1,60,127,56
1,67,127,1480
1,69,86,66
1,65,127,16
1,67,86,8
1,64,115,0
1,67,94,38
1,64,115,20
1,65,104,76
1,62,127,12
1,60,104,22
1,64,86,4
1,64,86,34
1,60,115,16
1,64,115,104
1,65,115,4
1,64,115,12
1,64,104,76
1,65,115,94
1,64,104,94
1,62,127,0
1,60,127,84
1,62,86,6
1,62,94,44
1,64,94,96
1,60,115,6
1,60,127,52
1,55,104,224
1,57,104,20
1,59,104,20
1,60,115,66
1,64,115,86
1,65,115,64
1,67,115,18
1,64,68,4
1,67,94,30
1,64,79,40
1,67,104,50
1,69,86,40
1,67,115,4
1,69,86,22
1,65,86,16
1,67,73,28
1,64,104,0
1,67,104,38
1,64,115,24
1,65,86,60
1,62,115,2
1,60,104,8
1,64,73,8
1,64,104,46
1,60,115,6
1,55,79,374
1,57,79,10
1,60,115,380
1,62,115,4
1,64,115,50
1,65,115,94
1,64,104,82
1,62,127,10
1,60,115,4
1,62,94,32
1,62,115,54
1,64,115,28
1,60,104,14
1,60,127,56
1,64,68,9216
1,62,115,0
1,64,94,84
1,60,127,26
1,62,115,34
1,62,115,38
1,60,115,28
1,69,127,986
1,67,104,20
1,64,115,22
1,67,115,118
1,67,127,52
1,64,115,192
1,67,127,26
1,69,104,114
1,67,104,0
1,64,115,42
1,69,115,226
1,67,94,0
1,67,115,18
1,64,94,108
1,62,104,0
1,62,115,4
1,60,115,22
1,57,115,4
1,60,115,96
1,72,127,114
1,71,94,0
1,71,94,0
1,72,104,10
1,71,104,12
1,69,104,38
1,69,94,106
1,69,115,92
1,67,104,0
1,67,104,40
1,69,104,26
1,72,115,28
1,64,127,334
1,65,104,2
1,67,104,4
1,67,127,126
1,64,79,1248
1,62,94,0
1,60,94,126
1,64,115,58
1,64,94,64
1,60,115,28
1,62,115,28
1,62,104,46
1,60,127,34
1,69,94,924
1,67,127,0
1,67,104,6
1,64,127,0
1,67,115,74
1,67,115,48
1,64,104,10
1,67,115,30
1,69,104,100
1,67,94,0
1,64,94,50
1,64,127,60
1,69,94,136
1,67,104,0
1,67,115,22
1,64,94,78
1,62,104,0
1,62,104,28
1,60,115,22
1,57,104,0
1,60,127,8
1,74,104,230
1,72,79,10
1,69,115,96
1,67,79,16
1,69,115,0
1,67,115,142
1,69,104,96
1,72,127,10
1,64,115,464
1,65,86,10
1,67,115,28
1,67,115,142
1,67,86,192
1,69,115,92
1,67,94,0
1,64,94,84
1,62,115,0
1,64,94,24
1,62,86,18
1,60,104,96
1,64,63,382
1,62,73,0
1,60,94,120
1,64,115,152
1,64,73,0
1,60,127,20
1,62,104,36
1,62,94,38
1,60,127,28
1,67,127,480
1,69,115,42
1,67,104,32
1,67,94,60
1,69,94,48
1,64,115,14
1,62,79,576
1,60,79,2
1,67,115,186
1,69,94,48
1,67,115,136
1,64,115,108
1,67,86,22
1,69,104,20
1,64,115,36
1,62,94,26
1,62,86,10
1,64,94,48
1,62,79,38
1,60,94,44
1,60,94,80
1,69,115,116
1,67,104,54
1,69,115,18
1,72,127,24
1,64,115,472
1,65,104,26
1,67,115,28
1,67,115,178
1,64,68,1248
1,62,86,0
1,60,104,110
1,64,115,130
1,64,86,74
1,60,115,22
1,62,104,36
1,62,94,44
1,60,115,36
1,64,115,4416
1,62,115,0
1,62,115,52
1,64,94,48
1,62,127,238
1,60,127,16
1,69,115,590
1,69,94,122
1,67,104,0
1,69,86,98
1,67,115,34
1,67,79,44
1,69,104,50
1,67,79,0
1,69,79,92
1,67,104,40
1,67,79,66
1,69,104,42
1,67,63,0
1,69,86,72
1,67,104,30
1,69,94,96
1,67,94,130
1,64,73,0
1,62,86,0
1,60,94,112
1,69,104,10
1,62,104,64
1,64,79,48
1,64,79,58
1,60,115,28
1,62,94,28
1,62,94,40
1,60,115,26
1,64,127,1066
1,65,115,96
1,67,115,0
1,69,55,96
1,69,115,22
1,69,59,72
1,69,115,168
1,67,79,4
1,64,127,150
1,65,104,22
1,64,104,8
1,65,86,96
1,67,79,38
1,69,79,0
1,69,34,32
1,67,86,12
1,64,73,74
1,62,115,0
1,62,104,14
1,60,86,20
1,64,73,3030
1,62,79,0
1,60,104,134
1,64,79,66
1,62,115,0
1,64,94,66
1,60,127,22
1,62,104,32
1,62,94,44
1,60,115,26
2,67,79,13632
2,69,86,116
2,64,94,10
2,67,73,22
2,69,51,6
2,64,59,2
2,64,73,4682
2,65,68,96
2,67,68,8
2,67,86,108
2,67,86,4386
2,69,86,92
2,64,79,20
2,67,51,192
2,69,73,40
2,64,79,0
2,64,94,4586
2,65,94,10
2,67,86,32
2,67,94,176
2,64,84,10628
2,65,84,96
2,67,84,28
2,67,86,122
2,67,115,10236
2,64,94,96
2,67,94,18
2,67,86,48
2,69,94,24
2,67,86,28
2,67,104,74
2,64,104,12866
2,64,94,78
2,60,127,44
2,62,104,38
2,62,115,36
2,60,127,34
3,88,79,1438
3,84,79,34
3,81,94,62
3,86,104,152
3,83,104,50
3,79,79,56
3,88,104,3278
3,84,94,50
3,81,94,44
3,86,104,266
3,83,86,50
3,79,73,30
3,88,79,1438
3,84,79,34
3,81,94,62
3,86,104,152
3,83,104,50
3,79,79,56
3,88,104,3278
3,84,94,50
3,81,94,44
3,86,104,266
3,83,86,50
3,79,73,30
3,88,79,1438
3,84,79,34
3,81,94,62
3,86,104,152
3,83,104,50
3,79,79,56
3,88,104,3278
3,88,79,12
3,84,79,22
3,84,94,4
3,81,94,40
3,81,94,14
3,86,104,256
3,83,104,50
3,79,79,56
3,88,104,1426
3,88,79,12
3,84,79,22
3,84,94,4
3,81,94,40
3,81,94,14
3,86,104,256
3,83,104,50
3,79,79,56
3,88,104,3278
3,84,94,50
3,81,94,44
3,86,104,266
3,83,86,50
3,79,73,30
4,67,86,0
4,76,86,0
4,72,104,0
4,69,104,0
4,77,94,182
4,71,94,0
4,68,79,0
4,74,86,0
4,71,76,132
4,67,71,0
4,76,86,0
4,72,79,0
4,76,86,46
4,67,79,0
4,69,86,0
4,72,86,0
4,65,86,372
4,69,94,0
4,74,86,0
4,70,94,0
4,69,104,222
4,65,94,0
4,74,94,0
4,70,104,0
4,76,73,216
4,67,79,0
4,69,94,0
4,72,94,0
4,77,104,180
4,68,68,0
4,71,94,0
4,74,94,0
4,76,79,176
4,71,94,0
4,72,86,0
4,67,86,0
4,76,79,42
4,67,79,0
4,69,94,0
4,72,94,0
4,74,79,360
4,69,104,0
4,65,86,0
4,70,94,0
4,69,115,196
4,65,94,0
4,74,79,0
4,70,115,0
4,65,94,204
4,74,94,0
4,69,94,0
4,72,86,228
4,74,86,0
4,77,94,0
4,68,73,0
4,71,86,174
4,76,73,0
4,67,86,0
4,72,104,0
4,76,86,42
4,69,94,0
4,67,79,0
4,72,86,0
4,74,79,344
4,69,104,0
4,65,86,0
4,70,104,0
4,74,86,232
4,70,104,0
4,69,115,0
4,65,94,0
4,65,86,222
4,74,94,0
4,69,104,0
4,72,86,238
4,74,86,0
4,68,86,0
4,77,104,0
4,71,127,168
4,69,94,192
4,71,94,4
4,72,115,64
4,74,115,288
4,67,86,0
4,76,86,0
4,72,104,0
4,69,104,0
4,77,94,182
4,71,94,0
4,68,79,0
4,74,86,0
4,71,76,132
4,67,71,0
4,76,86,0
4,72,79,0
4,76,86,46
4,67,79,0
4,69,86,0
4,72,86,0
4,65,86,372
4,69,94,0
4,74,86,0
4,70,94,0
4,69,104,222
4,65,94,0
4,74,94,0
4,70,104,0
4,76,73,216
4,67,79,0
4,69,94,0
4,72,94,0
4,77,104,180
4,68,68,0
4,71,94,0
4,74,94,0
4,76,79,176
4,71,94,0
4,72,86,0
4,67,86,0
4,76,79,42
4,67,79,0
4,69,94,0
4,72,94,0
4,74,79,360
4,69,104,0
4,65,86,0
4,70,94,0
4,69,115,196
4,65,94,0
4,74,79,0
4,70,115,0
4,65,94,204
4,74,94,0
4,69,94,0
4,72,86,228
4,74,86,0
4,77,94,0
4,68,73,0
4,71,86,174
4,76,73,0
4,67,86,0
4,72,104,0
4,76,86,42
4,69,94,0
4,67,79,0
4,72,86,0
4,74,79,344
4,69,104,0
4,65,86,0
4,70,104,0
4,74,86,232
4,70,104,0
4,69,115,0
4,65,94,0
4,65,86,222
4,74,94,0
4,69,104,0
4,72,86,238
4,74,86,0
4,68,86,0
4,77,104,0
4,71,127,168
4,69,94,192
4,71,94,4
4,72,115,64
4,74,115,288
4,69,94,0
4,65,86,0
4,76,86,0
4,72,94,0
4,65,79,86
4,74,94,0
4,69,86,0
4,72,86,0
4,74,79,52
4,64,104,0
4,71,94,0
4,67,86,0
4,72,79,40
4,67,79,0
4,69,94,0
4,64,86,0
4,74,86,78
4,65,79,0
4,69,94,0
4,77,94,78
4,68,79,0
4,72,86,0
4,67,79,106
4,76,86,0
4,69,94,0
4,72,104,0
4,76,79,2
4,65,86,0
4,69,79,0
4,72,94,0
4,74,79,58
4,65,79,0
4,69,79,0
4,72,73,0
4,71,104,60
4,74,94,0
4,64,86,0
4,67,104,0
4,69,94,80
4,64,94,0
4,72,86,0
4,67,86,0
4,65,86,94
4,74,94,0
4,69,104,0
4,72,94,140
4,68,94,0
4,77,104,0
4,71,104,150
4,69,79,192
4,71,94,92
4,72,94,24
4,74,104,4
4,67,86,0
4,76,86,0
4,72,104,0
4,69,104,0
4,77,94,182
4,71,94,0
4,68,79,0
4,74,86,0
4,71,76,132
4,67,71,0
4,76,86,0
4,72,79,0
4,76,86,46
4,67,79,0
4,69,86,0
4,72,86,0
4,65,86,372
4,69,94,0
4,74,86,0
4,70,94,0
4,69,104,222
4,65,94,0
4,74,94,0
4,70,104,0
4,76,73,216
4,67,79,0
4,69,94,0
4,72,94,0
4,77,104,180
4,68,68,0
4,71,94,0
4,74,94,0
4,76,79,176
4,71,94,0
4,72,86,0
4,67,86,0
4,76,79,42
4,67,79,0
