track,note,velocity,time
1,41,81,1672
1,41,0,46
1,41,94,74
1,41,0,104
1,45,82,16
1,45,0,110
1,48,102,10
1,48,0,110
1,41,96,10
1,41,0,32
1,41,102,88
1,41,0,106
1,45,90,14
1,48,99,120
1,45,0,8
1,29,50,52
1,31,47,0
1,31,0,38
1,29,0,0
1,48,0,0
1,33,74,22
1,33,0,62
1,21,60,0
1,21,0,48
1,33,82,10
1,33,0,110
1,36,90,10
1,36,0,122
1,40,102,0
1,40,0,118
1,33,72,0
1,33,0,56
1,33,70,64
1,33,0,110
1,38,72,10
1,38,0,56
1,38,70,64
1,38,0,110
1,38,96,130
1,38,0,120
1,41,85,0
1,41,0,114
1,33,85,6
1,33,0,112
1,38,76,8
1,38,0,38
1,38,85,82
1,38,0,114
1,41,88,6
1,41,0,120
1,45,105,0
1,45,0,108
1,38,92,12
1,38,0,56
1,38,94,64
1,38,0,82
1,38,96,38
1,38,0,62
1,38,105,58
1,38,0,98
1,33,72,22
1,33,0,56
1,33,70,64
1,33,0,110
1,34,72,10
1,34,0,56
1,34,70,64
1,34,0,110
1,34,90,10
1,34,0,142
1,34,72,38
1,34,0,30
1,38,81,30
1,38,0,102
1,41,102,18
1,41,0,128
1,34,74,0
1,34,0,40
1,34,82,72
1,34,0,116
1,38,90,4
1,38,0,120
1,41,96,0
1,22,76,60
1,41,0,32
1,22,0,16
1,33,74,12
1,33,0,62
1,21,60,0
1,21,0,48
1,33,82,10
1,33,0,110
1,36,90,10
1,36,0,122
1,40,102,0
1,40,0,118
1,33,81,0
1,33,0,46
1,33,94,74
1,33,0,104
1,38,96,136
1,38,0,120
1,38,92,0
1,38,0,56
1,38,94,64
1,38,0,82
1,38,96,38
1,38,0,62
1,38,105,58
1,38,0,98
1,38,92,22
1,38,0,52
1,38,96,68
1,38,0,116
1,42,90,4
1,42,0,112
1,45,108,8
1,45,0,120
1,38,82,0
1,38,0,46
1,26,60,14
1,26,0,42
1,38,56,18
1,38,0,122
1,42,82,0
1,45,101,118
1,42,0,2
1,45,0,118
1,33,90,120
1,33,0,112
1,34,92,8
1,34,0,56
1,34,94,64
1,34,0,82
1,34,96,158
1,34,0,120
1,38,85,0
1,38,0,114
1,29,85,6
1,29,0,112
1,34,76,8
1,34,0,38
1,34,85,82
1,34,0,114
1,38,88,6
1,38,0,120
1,41,105,0
1,41,0,108
1,33,90,132
1,33,0,112
1,36,82,8
1,36,0,124
1,40,108,0
1,40,0,104
1,33,96,132
1,33,0,120
1,38,72,0
1,38,0,56
1,38,70,64
1,38,0,110
1,38,92,10
1,38,0,56
1,38,94,64
1,38,0,82
1,38,96,38
1,38,0,62
1,38,105,58
1,38,0,98
1,38,92,22
1,38,0,52
1,38,96,68
1,38,0,116
1,41,90,4
1,41,0,112
1,45,108,8
1,45,0,120
1,38,96,120
1,38,0,120
1,41,85,0
1,41,0,114
1,33,85,6
1,33,0,112
1,36,96,128
1,36,0,120
1,34,72,0
1,34,0,56
1,34,70,64
1,34,0,110
1,34,96,130
1,34,0,108
1,38,88,12
1,38,0,120
1,41,102,0
1,41,0,114
1,34,68,6
1,34,0,30
1,34,88,90
1,34,0,122
1,38,99,0
1,38,0,94
1,29,81,24
1,29,0,120
1,33,68,0
1,33,0,48
1,33,88,72
1,33,0,114
1,36,81,6
1,36,0,98
1,45,92,22
1,45,0,108
1,33,82,12
1,33,0,46
1,21,60,14
1,21,0,42
1,33,56,18
1,33,0,120
1,38,72,0
1,38,0,56
1,38,70,64
1,38,0,110
1,38,82,10
1,38,0,48
1,38,82,72
1,38,0,110
1,41,85,10
1,41,0,100
1,45,82,20
1,45,0,120
1,38,85,0
1,38,0,60
1,38,70,60
1,41,92,120
1,38,0,6
1,41,0,106
1,45,72,8
1,45,0,52
1,33,58,8
1,33,0,38
1,38,72,22
1,38,0,56
1,38,70,64
1,38,0,110
1,41,88,10
1,41,0,116
1,45,88,4
1,45,0,120
1,36,90,120
1,36,0,112
1,34,96,128
1,34,0,120
1,34,74,0
1,34,0,62
1,22,60,0
1,22,0,48
1,34,82,10
1,34,0,110
1,38,90,10
1,38,0,122
1,41,102,0
1,41,0,124
1,34,81,0
1,34,0,52
1,34,82,62
1,34,0,116
1,38,90,4
1,38,0,120
1,41,108,0
1,41,0,120
1,33,72,0
1,33,0,56
1,33,70,64
1,33,0,110
1,36,88,10
1,36,0,116
1,40,88,4
1,40,0,120
1,33,68,0
1,33,0,48
1,33,88,72
1,33,0,114
1,38,72,6
1,38,0,56
1,38,70,64
1,38,0,110
1,38,90,130
1,38,0,112
1,41,82,8
1,41,0,124
1,45,108,0
1,45,0,104
1,38,88,12
1,38,0,46
1,38,90,74
1,38,0,110
1,41,92,10
1,41,0,120
1,45,108,0
1,45,0,86
1,38,72,34
1,38,0,56
1,38,70,64
1,38,0,110
1,41,88,10
1,41,0,116
1,45,88,4
1,45,0,120
1,36,90,120
1,36,0,112
1,34,81,8
1,34,0,46
1,34,94,74
1,34,0,104
1,34,82,16
1,34,0,46
1,22,60,14
1,22,0,42
1,34,56,18
1,34,0,122
1,38,82,0
1,41,101,118
1,38,0,2
1,34,88,118
1,41,0,20
1,34,0,12
1,34,88,88
1,34,0,128
1,38,90,0
1,38,0,122
1,41,101,0
1,41,0,110
1,33,81,0
1,33,0,46
1,33,94,74
1,33,0,104
1,36,82,16
1,36,0,110
1,40,102,10
1,40,0,110
1,33,92,10
1,33,0,56
1,33,94,64
1,33,0,82
1,38,96,158
1,38,0,120
1,38,81,0
1,38,0,46
1,38,94,74
1,38,0,104
1,42,82,16
1,42,0,110
1,45,102,10
1,45,0,110
1,38,96,10
1,38,0,32
1,38,102,88
1,38,0,106
1,42,90,14
1,45,99,120
1,42,0,8
1,26,50,52
1,28,47,0
1,28,0,38
1,26,0,0
1,45,0,0
1,38,96,142
1,38,0,120
1,38,81,0
1,38,0,46
1,38,94,74
1,38,0,104
1,36,72,16
1,36,0,56
1,36,70,64
1,36,0,110
1,34,92,10
1,34,0,56
1,34,94,64
1,34,0,82
1,34,82,38
1,34,0,46
1,22,60,14
1,22,0,42
1,34,56,18
1,34,0,122
1,41,82,0
1,45,101,118
1,41,0,2
1,45,0,118
1,34,81,0
1,34,0,46
1,34,94,74
1,34,0,104
1,36,82,16
1,36,0,48
1,36,82,72
1,36,0,110
1,36,90,10
1,36,0,142
1,36,72,38
1,36,0,30
1,40,81,30
1,40,0,102
1,43,102,18
1,43,0,120
1,33,90,0
1,33,0,142
1,33,72,38
1,33,0,30
1,38,72,30
1,38,0,56
1,38,70,64
1,38,0,110
1,38,96,130
1,38,0,108
1,41,88,12
1,41,0,120
1,45,102,0
1,45,0,114
1,38,68,6
1,38,0,30
1,38,88,90
1,38,0,122
1,41,99,0
1,41,0,94
1,33,81,24
1,33,0,120
1,38,72,0
1,38,0,56
1,38,70,64
1,38,0,110
1,41,88,10
1,41,0,116
1,45,88,4
1,45,0,120
1,36,92,0
1,36,0,56
1,36,94,64
1,36,0,82
1,34,72,38
1,34,0,56
1,34,70,64
1,34,0,110
1,34,72,10
1,34,0,56
1,34,70,64
1,34,0,110
1,38,88,10
1,38,0,116
1,41,88,4
1,41,0,120
1,34,96,120
1,34,0,108
1,36,68,12
1,36,0,48
1,36,88,72
1,36,0,114
1,36,90,126
1,36,0,112
1,40,82,8
1,40,0,124
1,43,108,0
1,43,0,104
1,33,72,12
1,33,0,56
1,33,70,64
1,33,0,110
1,38,72,10
1,38,0,56
1,38,70,64
1,38,0,110
1,38,81,10
1,38,0,46
1,38,94,74
1,38,0,104
1,41,82,16
1,41,0,110
1,45,102,10
1,45,0,110
1,38,96,10
1,38,0,32
1,38,102,88
1,38,0,106
1,41,90,14
1,45,99,120
1,41,0,8
1,26,50,52
1,28,47,0
1,28,0,38
1,26,0,0
1,45,0,0
1,38,92,22
1,38,0,56
1,38,94,64
1,38,0,82
1,38,96,38
1,38,0,62
1,38,105,58
1,38,0,98
1,36,90,142
1,36,0,112
1,34,72,8
1,34,0,56
1,34,70,64
1,34,0,110
1,34,74,10
1,34,0,62
1,22,60,0
1,22,0,48
1,34,82,10
1,34,0,110
1,38,90,10
1,38,0,122
1,41,102,0
1,41,0,118
1,34,72,0
1,34,0,56
1,34,70,64
1,34,0,110
1,36,68,10
1,36,0,48
1,36,88,72
1,36,0,114
1,36,96,126
1,36,0,108
1,40,88,12
1,40,0,120
1,43,102,0
1,43,0,114
1,33,90,6
1,33,0,142
1,33,72,38
1,33,0,30
1,38,74,30
1,38,0,62
1,26,60,0
1,26,0,48
1,38,82,10
1,38,0,110
1,38,72,10
1,38,0,56
1,38,70,64
1,38,0,110
1,41,88,10
1,41,0,116
1,45,88,4
1,38,82,120
1,45,0,8
1,38,0,32
1,38,82,80
1,38,0,118
1,41,82,2
1,41,0,120
1,45,85,0
1,45,0,120
1,38,92,0
1,38,0,56
1,38,94,64
1,38,0,82
1,38,96,38
1,38,0,62
1,38,105,58
1,38,0,98
1,36,92,22
1,36,0,56
1,36,94,64
1,36,0,82
1,34,90,158
1,34,0,112
1,34,90,8
1,34,0,142
1,34,72,38
1,34,0,30
1,38,81,30
1,38,0,102
1,41,102,18
1,41,0,120
1,34,68,0
1,34,0,48
1,34,88,72
1,34,0,114
1,36,96,126
1,36,0,120
1,36,96,120
1,36,0,108
1,40,88,12
1,40,0,120
1,43,102,0
1,43,0,114
1,33,82,6
1,33,0,46
1,21,60,14
1,21,0,42
1,33,56,18
1,33,0,120
1,38,82,0
1,38,0,46
1,26,60,14
1,26,0,42
1,38,56,18
1,38,0,120
1,38,72,0
1,38,0,56
1,38,70,64
1,38,0,110
1,42,88,10
1,42,0,116
1,45,88,4
1,38,82,120
1,45,0,8
1,38,0,32
1,38,82,80
1,38,0,118
1,42,82,2
1,42,0,120
1,45,85,0
1,45,0,120
1,38,68,0
1,38,0,48
1,38,88,72
1,38,0,114
1,42,81,6
1,42,0,98
1,50,92,22
1,50,0,108
1,33,90,132
1,33,0,112
1,34,74,8
1,34,0,62
1,22,60,0
1,22,0,48
1,34,82,10
1,34,0,110
1,34,92,10
1,34,0,56
1,34,94,64
1,34,0,82
1,34,96,38
1,34,0,62
1,34,105,58
1,34,0,98
1,34,92,22
1,34,0,52
1,34,96,68
1,34,0,116
1,38,90,4
1,38,0,112
1,41,108,8
1,41,0,120
1,33,72,0
1,33,0,56
1,33,70,64
1,33,0,110
1,36,88,10
1,36,0,116
1,40,88,4
1,40,0,120
1,33,68,0
1,33,0,48
1,33,88,72
1,33,0,114
1,38,82,6
1,38,0,46
1,26,60,14
1,26,0,42
1,38,56,18
1,38,0,120
1,38,96,120
1,38,0,120
1,41,85,0
1,41,0,114
1,33,85,6
1,33,0,112
1,38,76,8
1,38,0,38
1,38,85,82
1,38,0,114
1,41,88,6
1,41,0,120
1,45,82,0
1,45,0,108
1,38,86,132
1,38,0,108
1,41,88,12
1,41,0,120
1,45,82,0
1,45,0,114
1,36,72,6
1,36,0,56
1,36,70,64
1,36,0,110
1,34,88,130
1,34,0,120
1,34,88,120
1,34,0,120
1,38,88,0
1,38,0,114
1,29,85,6
1,29,0,112
1,34,76,8
1,34,0,38
1,34,85,82
1,34,0,114
1,38,88,6
1,38,0,120
1,41,92,0
1,41,0,108
1,33,82,12
1,33,0,48
1,33,82,72
1,33,0,110
1,36,85,10
1,36,0,100
1,40,82,20
1,40,0,120
1,33,74,0
1,33,0,62
1,21,60,0
1,21,0,48
1,33,82,10
1,33,0,110
1,38,72,10
1,38,0,56
1,38,70,64
1,38,0,110
1,38,96,130
1,38,0,108
1,41,88,12
1,41,0,120
1,45,102,0
1,45,0,114
1,38,68,6
1,38,0,30
1,38,88,90
1,38,0,122
1,41,99,0
1,41,0,94
1,33,81,24
1,33,0,120
1,38,90,120
1,38,0,112
1,41,82,8
1,41,0,124
1,45,108,0
1,45,0,104
1,36,92,12
1,36,0,56
1,36,94,64
1,36,0,82
1,34,90,158
1,34,0,112
1,34,82,8
1,34,0,46
1,22,60,14
1,22,0,42
1,34,56,18
1,34,0,122
1,38,82,0
1,41,101,118
1,38,0,2
1,34,88,118
1,41,0,20
1,34,0,12
1,34,88,88
1,34,0,128
1,38,90,0
1,38,0,122
1,41,101,0
1,41,0,110
1,33,96,120
1,33,0,120
1,36,85,0
1,36,0,114
1,28,85,6
1,28,0,112
1,33,72,8
1,33,0,56
1,33,70,64
1,33,0,110
1,38,90,10
1,38,0,142
1,38,72,38
1,38,0,30
1,38,90,30
1,38,0,142
1,38,72,38
1,38,0,30
1,41,81,30
1,41,0,102
1,45,102,18
1,45,0,128
1,38,74,0
1,38,0,40
1,38,82,72
1,38,0,116
1,41,90,4
1,41,0,120
1,45,96,0
1,26,76,60
1,45,0,32
1,26,0,16
1,38,96,132
1,38,0,120
1,41,85,0
1,41,0,114
1,33,85,6
1,33,0,112
1,36,74,8
1,36,0,62
1,24,60,0
1,24,0,48
1,36,82,10
1,36,0,110
1,34,90,130
1,34,0,112
1,34,82,8
1,34,0,46
1,22,60,14
1,22,0,42
1,34,56,18
1,34,0,122
1,38,82,0
1,41,101,118
1,38,0,2
1,34,88,118
1,41,0,20
1,34,0,12
1,34,88,88
1,34,0,128
1,38,90,0
1,38,0,122
1,41,101,0
1,41,0,110
1,33,90,120
1,33,0,112
1,36,82,8
1,36,0,124
1,40,108,0
1,40,0,104
1,33,82,12
1,33,0,48
1,33,82,72
1,33,0,110
1,38,90,130
1,38,0,112
1,38,72,8
1,38,0,56
1,38,70,64
1,38,0,110
1,42,88,10
1,42,0,116
1,45,88,4
1,38,82,120
1,45,0,8
1,38,0,32
1,38,82,80
1,38,0,118
1,42,82,2
1,42,0,120
1,45,85,0
1,45,0,120
1,38,82,0
1,38,0,46
1,26,60,14
1,26,0,42
1,38,56,18
1,38,0,120
1,38,82,0
1,38,0,48
1,38,82,72
1,38,0,110
1,36,81,10
1,36,0,46
1,36,94,74
1,36,0,104
1,34,81,16
1,34,0,46
1,34,94,74
1,34,0,104
1,34,92,16
1,34,0,56
1,34,94,64
1,34,0,82
1,34,96,38
1,34,0,62
1,34,105,58
1,34,0,98
1,34,82,22
1,34,0,46
1,22,60,14
1,22,0,42
1,34,56,18
1,34,0,120
1,36,82,0
1,36,0,46
1,24,60,14
1,24,0,42
1,36,56,18
1,36,0,120
1,36,90,120
1,36,0,112
1,40,82,8
1,40,0,124
1,43,108,0
1,43,0,104
1,33,74,12
1,33,0,62
1,21,60,0
1,21,0,48
1,33,82,10
1,33,0,110
1,38,82,10
1,38,0,46
1,26,60,14
1,26,0,42
1,38,56,18
1,38,0,120
1,38,68,0
1,38,0,48
1,38,88,72
1,38,0,114
1,41,81,6
1,41,0,98
1,50,92,22
1,50,0,108
1,38,68,12
1,38,0,52
1,38,82,68
1,38,0,112
1,41,82,8
1,41,0,116
1,33,81,4
1,33,0,106
1,38,81,14
1,38,0,46
1,38,94,74
1,38,0,104
1,41,82,16
1,41,0,110
1,45,102,10
1,45,0,110
1,36,72,10
1,36,0,56
1,36,70,64
1,36,0,110
1,34,74,10
1,34,0,62
1,22,60,0
1,22,0,48
1,34,82,10
1,34,0,110
1,34,82,10
1,34,0,48
1,34,82,72
1,34,0,110
1,38,85,10
1,38,0,100
1,41,82,20
1,41,0,120
1,34,68,0
1,34,0,48
1,34,88,72
1,34,0,114
1,36,96,126
1,36,0,120
1,36,90,120
1,36,0,112
1,40,82,8
1,40,0,124
1,43,108,0
1,43,0,104
1,33,72,12
1,33,0,56
1,33,70,64
1,33,0,110
1,38,90,10
1,38,0,142
1,38,72,38
1,38,0,30
1,38,96,150
1,38,0,108
1,41,88,12
1,41,0,120
1,45,102,0
1,45,0,114
1,38,68,6
1,38,0,30
1,38,88,90
1,38,0,122
1,41,99,0
1,41,0,94
1,33,81,24
1,33,0,120
1,38,82,0
1,38,0,46
1,26,60,14
1,26,0,42
1,38,56,18
1,38,0,122
1,41,82,0
1,45,101,118
