track,note,velocity,time
1,45,92,9216
1,43,80,0
1,41,100,16
1,43,97,24
1,45,107,64
1,33,103,8
1,35,96,8
1,37,79,16
1,38,100,0
1,31,82,8
1,33,95,0
1,35,83,0
1,36,104,0
1,29,96,0
1,34,87,32
1,28,106,56
1,40,104,0
1,28,95,8
1,33,111,8
1,35,91,0
1,36,107,0
1,35,82,0
1,38,98,8
1,38,80,48
1,31,109,48
1,33,104,8
1,35,80,0
1,36,103,0
1,36,105,48
1,29,108,72
1,29,88,48
1,34,105,32
1,40,110,64
1,28,107,8
1,30,99,200
1,32,68,0
1,33,85,8
1,40,105,688
1,45,102,0
1,40,102,48
1,45,98,8
1,43,94,16
1,41,109,0
1,43,103,0
1,41,108,8
1,40,94,0
1,45,107,16
1,43,94,0
1,41,112,8
1,43,99,8
1,41,113,8
1,40,101,8
1,45,110,8
1,45,102,0
1,43,105,0
1,43,90,32
1,41,107,16
1,41,99,32
1,43,102,16
1,41,111,8
1,40,104,0
1,45,112,0
1,45,94,8
1,43,92,56
1,43,100,8
1,41,113,64
1,43,98,32
1,45,112,8
1,33,110,16
1,35,98,16
1,37,93,0
1,38,109,0
1,50,89,0
1,31,102,8
1,31,113,8
1,31,95,72
1,33,112,8
1,35,108,8
1,36,106,0
1,48,89,0
1,29,106,8
1,29,115,16
1,29,103,64
1,29,105,48
1,34,109,0
1,34,106,64
1,28,104,0
1,40,98,8
1,28,101,8
1,33,89,0
1,35,104,0
1,36,115,8
1,35,110,0
1,38,104,8
1,50,94,8
1,31,108,0
1,31,109,8
1,31,102,56
1,33,109,0
1,35,105,0
1,36,100,0
1,48,95,0
1,36,90,8
1,41,113,16
1,36,110,8
1,29,109,8
1,29,106,8
1,34,101,56
1,46,88,8
1,40,115,8
1,28,112,0
1,30,100,56
1,32,81,0
1,33,92,8
1,40,95,192
1,45,93,0
1,40,93,920
1,33,91,8
1,31,91,0
1,29,90,8
1,31,97,0
1,29,99,8
1,28,114,16
1,33,95,8
1,31,90,0
1,29,115,8
1,31,90,0
1,29,80,8
1,40,127,16
1,33,89,0
1,33,90,24
1,31,89,0
1,43,106,16
1,31,99,272
1,29,80,8
1,29,79,16
1,29,92,48
1,31,103,8
1,43,99,24
1,29,91,8
1,28,91,8
1,33,86,8
1,45,107,48
1,31,110,104
1,31,92,80
1,29,114,16
1,31,108,32
1,31,111,48
1,33,99,8
1,33,100,8
1,35,92,16
1,37,100,0
1,38,107,0
1,50,99,0
1,31,105,8
1,31,110,16
1,31,113,64
1,33,111,0
1,35,102,8
1,36,109,0
1,48,106,0
1,29,101,8
1,29,114,8
1,29,109,56
1,29,102,48
1,34,111,8
1,34,103,0
1,28,111,8
1,40,110,16
1,28,107,8
1,33,111,0
1,35,106,0
1,36,124,8
1,35,106,0
1,38,107,0
1,50,100,8
1,31,104,0
1,31,115,0
1,31,105,56
1,33,109,8
1,35,103,0
1,36,111,8
1,48,101,8
1,36,112,8
1,41,101,16
1,36,99,8
1,29,116,0
1,29,104,0
1,34,99,56
1,46,109,8
1,40,108,56
1,28,104,48
1,30,109,48
1,32,95,0
1,33,117,104
1,31,111,0
1,31,105,8
1,29,110,72
1,29,108,0
1,31,105,64
1,29,104,8
1,33,109,0
2,57,77,1536
2,60,76,0
2,64,66,8
2,57,39,8
2,64,43,0
2,60,56,0
2,59,48,8
2,62,42,0
2,55,52,0
2,64,52,0
2,55,39,8
2,62,37,0
2,64,33,0
2,59,32,0
2,53,73,8
2,64,72,0
2,60,65,0
2,57,74,8
2,53,49,8
2,57,40,0
2,60,55,0
2,64,43,0
2,62,65,8
2,64,61,0
2,55,54,8
2,59,57,0
2,64,58,0
2,53,41,0
2,60,51,0
2,57,54,8
2,57,50,0
2,60,69,0
2,64,66,8
2,60,78,16
2,64,80,0
2,57,86,8
2,62,64,8
2,59,66,0
2,55,65,8
2,64,62,0
2,64,78,8
2,55,75,8
2,59,83,0
2,62,79,0
2,53,87,8
2,57,81,0
2,60,82,0
2,64,83,0
2,53,51,16
2,60,56,0
2,64,58,0
2,57,52,8
2,55,85,8
2,59,83,8
2,62,82,0
2,64,76,0
2,60,48,8
2,53,54,8
2,57,56,0
2,64,54,0
2,60,89,8
2,64,87,0
2,57,86,0
2,57,47,8
2,60,45,0
2,64,52,0
2,55,87,8
2,59,82,0
2,64,88,0
2,62,83,8
2,55,48,8
2,64,46,0
2,59,47,8
2,62,46,0
2,60,61,8
2,64,68,0
2,57,66,0
2,53,67,8
2,53,49,8
2,57,48,0
2,60,50,0
2,64,52,0
2,62,66,8
2,64,56,0
2,59,53,0
2,55,53,8
2,60,77,8
2,53,70,0
2,57,79,0
2,64,71,8
2,64,75,8
2,57,76,0
2,60,72,0
2,64,56,8
2,57,53,0
2,60,48,0
2,55,48,8
2,59,42,0
2,62,47,0
2,64,46,8
2,62,55,8
2,59,53,0
2,64,52,0
2,55,53,0
2,64,81,8
2,57,85,0
2,60,79,0
2,53,83,8
2,57,54,8
2,60,51,0
2,53,52,0
2,64,54,8
2,59,81,8
2,62,79,0
2,64,78,0
2,55,74,8
2,60,55,8
2,53,53,0
2,57,49,0
2,64,50,8
2,57,58,8
2,60,67,0
2,64,51,0
2,64,85,8
2,57,79,0
2,60,83,0
2,59,77,8
2,55,82,0
2,64,76,0
2,62,77,0
2,64,52,8
2,62,53,0
2,55,47,0
2,59,51,0
2,57,55,8
2,60,57,0
2,64,62,0
2,53,54,8
2,53,83,8
2,64,90,0
2,57,86,0
2,60,81,0
2,62,80,8
2,59,77,0
2,55,73,0
2,64,75,0
2,53,48,8
2,57,52,0
2,60,49,0
2,64,54,0
2,57,74,8
2,60,77,0
2,64,80,0
2,57,52,16
2,60,52,0
2,64,50,0
2,55,51,8
2,64,55,0
2,59,61,0
2,62,63,0
2,59,79,8
2,64,83,0
2,62,86,0
2,55,80,0
2,57,58,8
2,60,55,0
2,64,56,0
2,53,56,0
2,57,79,8
2,60,84,0
2,53,78,0
2,64,81,0
2,57,87,8
2,64,83,0
2,61,84,0
2,64,90,8
2,67,84,0
2,57,81,8
2,61,84,0
2,65,85,8
2,62,74,0
2,57,82,8
2,62,87,8
2,57,54,0
2,65,45,8
2,62,83,8
2,67,84,0
2,59,78,0
2,62,57,8
2,59,48,0
2,67,51,0
2,55,53,8
2,60,54,0
2,64,52,8
2,64,78,8
2,60,89,0
2,55,87,0
2,60,76,8
2,57,74,0
2,65,75,8
2,57,57,8
2,60,45,0
2,65,52,0
2,53,67,16
2,58,83,0
2,62,78,8
2,53,81,8
2,58,86,0
2,62,76,8
2,57,45,8
2,60,63,0
2,64,55,8
2,56,52,16
2,64,48,0
2,59,53,0
2,54,53,8
2,57,59,0
2,64,61,8
2,59,80,8
2,56,83,8
2,57,59,8
2,60,68,0
2,59,66,8
2,52,65,8
2,57,83,8
2,62,84,0
2,65,84,0
2,65,53,8
2,57,55,0
2,62,52,0
2,67,78,8
2,59,76,0
2,62,73,0
2,59,85,8
2,67,83,0
2,62,88,8
2,60,70,8
2,55,76,0
2,64,73,0
2,60,48,8
2,64,46,0
2,55,45,8
2,60,75,8
2,57,76,8
2,65,73,0
2,60,48,8
2,57,47,0
2,65,59,0
2,62,76,8
2,58,76,8
2,65,69,0
2,70,56,8
2,62,51,0
2,65,52,0
2,64,73,56
2,69,73,0
2,72,74,8
2,64,44,8
2,68,47,0
2,71,49,0
2,64,24,8
2,68,31,0
2,71,32,0
2,64,58,8
2,68,55,0
2,71,65,0
2,64,24,8
2,68,31,0
2,71,32,0
2,64,16,8
2,68,13,0
2,71,19,0
2,57,64,8
2,66,66,0
2,59,43,8
2,68,51,0
2,60,74,16
2,69,63,0
2,64,66,8
2,57,39,8
2,64,43,0
2,60,56,0
2,59,48,8
2,62,42,0
2,55,52,0
2,64,52,0
2,55,39,8
2,62,37,0
2,64,33,0
2,59,32,0
2,53,73,8
2,64,72,0
2,60,65,0
2,57,74,8
2,53,49,8
2,57,40,0
2,60,55,0
2,64,43,0
2,62,65,8
2,64,61,0
2,55,54,8
2,59,57,0
2,64,82,0
2,53,84,0
2,60,81,0
2,57,85,8
2,57,76,0
2,60,71,0
2,64,66,8
2,60,78,16
2,64,80,0
2,57,86,8
2,62,64,8
2,59,66,0
2,55,65,8
2,64,62,0
2,64,78,8
2,55,75,8
2,59,83,0
2,62,79,0
2,53,87,8
2,57,81,0
2,60,82,0
2,64,83,0
2,53,51,8
2,60,56,0
2,64,58,0
2,57,52,8
2,55,85,8
2,59,83,8
2,62,82,0
2,64,76,0
2,60,48,8
2,53,54,8
2,57,56,0
2,64,54,0
2,60,89,16
2,64,87,0
2,57,86,0
2,57,47,8
2,60,45,0
2,64,52,0
2,55,87,8
2,59,82,0
2,64,88,0
2,62,83,8
2,55,48,8
2,64,46,0
2,59,47,8
2,62,46,0
2,60,66,8
2,64,54,0
2,57,60,0
2,53,54,8
2,53,88,8
2,57,84,0
2,60,85,0
2,64,82,0
2,62,67,8
2,64,63,0
2,59,59,0
2,55,58,8
2,60,87,8
2,53,82,0
2,57,81,0
2,64,83,8
2,64,64,8
2,57,76,0
2,60,72,0
2,64,56,8
2,57,53,0
2,60,48,0
2,55,83,8
2,59,81,0
2,62,74,0
2,64,73,8
2,62,55,8
2,59,53,0
2,64,52,0
2,55,53,0
2,64,56,8
2,57,58,0
2,60,46,0
2,53,54,8
2,57,87,8
2,60,81,0
2,53,83,0
2,64,85,8
2,59,66,8
2,62,59,0
2,64,67,0
2,55,59,8
2,60,76,8
2,53,64,0
2,57,64,0
2,64,70,8
2,57,74,8
2,60,79,0
2,64,80,0
2,64,52,8
2,57,51,0
2,60,52,0
2,59,77,8
2,55,82,0
2,64,76,0
2,62,77,0
2,64,52,8
2,62,53,0
2,55,47,0
2,59,51,0
2,57,80,8
2,60,81,0
2,64,85,0
2,53,84,8
2,53,50,8
2,64,45,0
2,57,48,0
2,60,51,0
2,62,40,8
2,59,34,0
2,55,31,0
2,64,48,0
2,53,76,8
2,57,81,0
2,60,85,0
2,64,84,0
2,57,45,8
2,60,47,0
2,64,89,0
2,57,26,16
2,60,46,0
2,64,67,0
2,55,56,8
2,64,86,0
2,59,65,0
2,62,63,0
2,59,33,8
2,64,40,0
2,62,41,0
2,55,39,0
2,57,54,8
2,60,64,0
2,64,89,0
2,53,56,0
2,57,51,8
2,60,52,0
2,53,54,0
2,64,68,0
2,57,74,8
2,64,86,0
2,61,77,0
2,64,90,8
2,67,84,0
2,57,81,8
2,61,84,0
2,65,85,8
2,62,74,0
2,57,82,8
2,62,87,8
2,57,54,0
2,65,45,8
2,62,83,8
2,67,84,0
2,59,78,0
2,62,57,8
2,59,48,0
2,67,51,0
2,55,53,8
2,60,54,0
2,64,52,8
2,64,78,8
2,60,89,0
2,55,87,0
2,60,76,8
2,57,74,0
2,65,75,8
2,57,57,8
2,60,45,0
2,65,52,0
2,53,67,16
2,58,83,0
2,62,78,8
2,53,81,8
2,58,86,0
2,62,76,8
2,57,45,8
2,60,63,0
2,64,63,8
2,56,79,56
2,64,82,0
2,59,89,0
2,54,53,8
2,57,59,0
2,64,61,8
2,59,80,8
2,56,83,8
2,57,59,8
2,60,68,0
2,52,64,8
2,62,76,8
2,59,77,0
2,52,73,8
2,52,89,8
2,60,90,0
2,64,85,0
2,62,71,8
2,57,72,0
2,59,66,0
2,52,65,8
2,57,83,8
2,62,84,0
2,65,84,0
2,65,53,8
2,57,55,0
2,62,52,0
2,67,78,8
2,59,76,0
2,62,73,0
2,59,41,8
2,67,47,0
2,62,42,8
2,60,75,8
2,55,76,0
2,64,73,0
2,60,48,8
2,64,46,0
2,55,45,8
2,60,75,8
2,57,76,8
2,65,73,0
2,60,48,8
2,57,47,0
2,65,59,0
2,62,76,8
2,58,76,8
2,65,69,0
2,70,56,8
2,62,51,0
2,65,52,0
2,64,73,8
2,69,73,0
2,72,74,8
2,64,87,8
2,68,85,0
2,71,89,0
2,64,24,8
2,68,31,0
2,71,32,0
2,64,13,8
2,68,7,0
2,71,22,0
2,64,24,8
2,68,31,0
2,71,32,0
2,64,60,8
2,68,53,0
2,71,66,0
2,57,84,8
2,66,81,0
2,59,64,8
2,68,51,0
2,60,94,16
2,69,85,0
2,57,39,8
2,64,43,0
2,60,56,0
2,59,48,8
2,62,42,0
2,55,52,0
2,64,52,0
2,55,39,8
2,62,37,0
2,64,33,0
2,59,32,0
2,53,73,8
2,64,72,0
2,60,65,0
2,57,74,8
2,53,49,8
2,57,40,0
2,60,55,0
2,64,43,0
2,62,65,8
2,64,61,0
2,55,54,8
2,59,57,0
2,64,58,0
2,53,41,0
2,60,51,0
2,57,54,8
2,57,50,0
2,60,69,0
2,64,66,8
2,60,78,16
2,64,80,0
2,57,86,8
2,62,64,8
2,59,66,0
2,55,65,8
2,64,62,0
2,64,78,8
2,55,75,8
2,59,83,0
2,62,79,0
2,53,87,8
2,57,81,0
2,60,82,0
2,64,83,0
2,53,51,8
2,60,56,0
2,64,58,0
2,57,52,8
2,55,85,8
2,59,83,8
2,62,82,0
2,64,76,0
2,60,48,8
2,53,54,8
2,57,56,0
2,64,54,0
2,60,89,16
2,64,87,0
2,57,86,0
2,57,47,8
2,60,45,0
2,64,52,0
2,55,87,8
2,59,82,0
2,64,88,0
2,62,83,8
2,55,48,8
2,64,46,0
2,59,47,8
2,62,46,0
2,60,83,8
2,64,87,0
2,57,84,0
2,53,83,8
2,53,49,8
2,57,48,0
2,60,50,0
2,64,52,0
2,62,76,8
2,64,81,0
2,59,84,0
2,55,80,8
2,60,56,8
2,53,53,0
2,57,47,0
2,64,63,8
2,64,83,8
2,57,76,0
2,60,72,0
2,64,56,8
2,57,53,0
2,60,48,0
2,55,83,8
2,59,81,0
2,62,74,0
2,64,73,8
2,62,55,8
2,59,53,0
2,64,52,0
2,55,53,0
2,64,81,8
2,57,85,0
2,60,79,0
2,53,83,8
2,57,54,8
2,60,51,0
2,53,52,0
2,64,54,8
2,59,81,8
2,62,79,0
2,64,78,0
2,55,74,8
2,60,55,8
2,53,53,0
2,57,49,0
2,64,50,8
2,57,74,8
2,60,79,0
2,64,80,0
2,64,52,8
2,57,51,0
2,60,52,0
2,59,77,8
2,55,82,0
2,64,76,0
2,62,77,0
2,64,52,8
2,62,53,0
2,55,47,0
2,59,51,0
2,57,80,8
2,60,81,0
2,64,85,0
2,53,84,8
2,53,50,8
2,64,45,0
2,57,48,0
2,60,51,0
2,62,80,8
2,59,77,0
2,55,73,0
2,64,75,0
2,53,48,8
2,57,52,0
2,60,49,0
2,64,54,0
2,57,74,8
2,60,77,0
2,64,80,0
2,57,52,16
2,60,52,0
2,64,50,0
2,55,75,8
2,64,76,0
2,59,78,0
2,62,83,0
2,59,55,8
2,64,56,0
2,62,57,0
2,55,58,0
2,57,77,8
2,60,76,0
2,64,78,0
2,53,76,0
2,57,51,8
2,60,52,0
2,53,54,0
2,64,49,0
2,57,74,8
2,64,78,0
2,61,77,0
2,64,90,8
2,67,84,0
2,57,81,8
2,61,84,0
2,65,85,8
2,62,74,0
2,57,82,8
2,62,87,8
2,57,54,0
2,65,45,8
2,62,83,8
2,67,84,0
2,59,78,0
2,62,57,8
2,59,48,0
2,67,51,0
2,60,54,8
2,55,53,8
2,64,52,0
2,64,78,8
2,60,89,0
2,55,87,0
2,60,76,8
2,57,74,0
2,65,75,8
2,57,57,8
2,60,45,0
2,65,52,0
2,53,67,16
2,58,83,0
2,62,78,8
2,53,81,8
2,58,86,0
2,62,76,8
2,57,45,8
2,60,63,0
2,64,63,8
2,56,79,8
2,64,82,0
2,59,89,0
2,54,53,8
2,57,59,0
2,64,61,8
2,59,80,8
2,56,83,8
2,57,59,8
2,60,68,0
2,52,64,8
2,62,76,8
2,59,77,0
2,52,73,8
2,52,89,8
2,60,90,0
2,64,85,0
2,62,71,8
2,52,65,0
2,59,66,0
2,57,72,8
2,57,83,8
2,62,84,0
2,65,84,0
2,65,53,8
2,57,55,0
