track,note,velocity,time
1,70,72,0
1,82,82,2
1,68,77,0
1,80,82,16
1,82,68,128
1,70,60,6
1,77,81,10
1,65,65,4
1,82,74,138
1,70,72,8
1,68,81,176
1,80,86,6
1,65,71,0
1,77,80,2
1,75,63,110
1,63,58,4
1,59,89,16
1,71,103,4
1,56,61,246
1,68,63,0
1,65,63,0
1,53,92,4
1,63,76,32
1,51,72,4
1,59,100,10
1,47,92,2
1,56,56,294
1,44,62,2
1,53,90,80
1,41,70,16
1,51,74,58
1,39,72,0
1,35,106,4
1,47,98,0
1,50,104,116
1,34,102,2
1,55,100,2
1,46,99,4
1,39,61,1042
1,46,42,6
1,58,54,148
1,51,67,2
1,55,67,4
1,53,85,4
1,46,61,92
1,39,61,10
1,51,85,162
1,58,71,2
1,55,81,2
1,53,102,0
1,58,67,40
1,51,73,4
1,46,83,26
1,39,70,8
1,58,60,172
1,51,66,0
1,53,97,2
1,55,76,0
1,46,64,152
1,39,68,8
1,58,58,156
1,51,58,4
1,53,89,2
1,55,65,2
1,46,62,144
1,39,71,2
1,53,109,156
1,55,87,2
1,51,79,2
1,58,65,0
1,51,81,18
1,58,66,2
1,46,79,32
1,39,75,0
1,55,68,184
1,58,50,0
1,53,68,0
1,51,43,2
1,46,60,156
1,39,57,6
1,51,34,162
1,55,51,2
1,58,43,2
1,53,79,0
1,46,52,144
1,39,44,8
1,58,52,146
1,53,77,0
1,55,42,0
1,51,55,4
1,70,88,188
1,46,70,6
1,39,64,4
1,68,79,42
1,63,79,42
1,53,83,2
1,56,59,0
1,59,64,2
1,70,64,50
1,46,67,8
1,65,89,2
1,39,58,6
1,70,85,176
1,59,75,8
1,63,73,0
1,53,71,0
1,56,60,0
1,68,81,160
1,46,41,6
1,39,50,2
1,65,68,2
1,59,63,32
1,56,62,2
1,53,62,2
1,63,67,64
1,46,61,24
1,59,68,0
1,39,54,2
1,63,80,162
1,56,59,2
1,59,71,2
1,53,73,2
1,46,62,166
1,39,72,2
1,58,70,2
1,58,64,42
1,55,71,98
1,53,85,12
1,60,54,40
1,58,65,24
1,46,61,2
1,39,53,6
1,70,87,28
1,63,87,4
1,55,68,0
1,53,89,6
1,58,86,140
1,46,61,4
1,39,65,6
1,55,63,154
1,53,76,10
1,46,46,156
1,39,37,10
1,55,51,156
1,53,76,6
1,46,61,148
1,58,61,0
1,39,38,8
1,56,59,38
1,53,67,84
1,51,40,4
1,58,41,32
1,46,61,16
1,39,33,10
1,60,67,6
1,51,59,156
1,56,74,0
1,53,74,2
1,39,58,156
1,46,68,2
1,58,84,8
1,56,85,56
1,53,83,50
1,51,66,2
1,58,75,64
1,59,91,84
1,46,73,6
1,39,34,8
1,56,88,130
1,51,45,10
1,53,21,0
1,58,103,160
1,46,102,4
1,43,99,68
1,55,103,0
1,53,117,76
1,41,107,6
1,51,103,70
1,39,103,4
1,50,110,140
1,38,109,6
1,48,102,128
1,36,114,6
1,43,100,136
1,31,115,0
1,48,98,104
1,36,114,0
1,38,111,118
1,50,106,0
1,70,99,198
1,39,102,0
1,46,97,0
1,68,83,46
1,63,88,2
1,53,104,2
1,59,87,0
1,56,81,0
1,70,76,2
1,46,101,64
1,39,97,8
1,65,95,0
1,70,95,114
1,59,94,4
1,53,111,0
1,56,93,0
1,63,87,2
1,68,95,130
1,46,90,0
1,39,87,6
1,65,87,10
1,59,81,60
1,56,80,4
1,53,98,4
1,63,92,6
1,59,94,88
1,46,90,2
1,39,86,4
1,63,98,138
1,59,92,2
1,56,89,4
1,53,108,2
1,58,79,124
1,46,90,2
1,39,95,0
1,58,76,42
1,55,95,72
1,53,111,0
1,60,83,28
1,58,85,94
1,46,94,2
1,39,86,6
1,55,91,78
1,70,97,0
1,53,106,0
1,63,99,2
1,58,94,120
1,46,84,4
1,39,86,4
1,55,87,152
1,53,102,12
1,46,81,150
1,39,84,4
1,55,76,142
1,53,72,24
1,42,61,158
1,49,59,0
1,58,65,8
1,58,57,44
1,56,57,98
1,54,65,4
1,49,40,4
1,60,57,58
1,58,66,24
1,42,57,6
1,49,56,0
1,61,79,152
1,56,59,4
1,54,71,4
1,49,41,0
1,49,71,134
1,63,76,0
1,42,36,14
1,58,65,118
1,65,82,4
1,54,72,2
1,49,49,2
1,63,84,122
1,49,81,0
1,42,56,10
1,66,91,98
1,59,93,10
1,49,76,2
1,54,83,2
1,65,105,136
1,65,106,30
1,64,87,62
1,61,84,4
1,67,91,22
1,63,91,72
1,65,105,2
1,60,83,0
1,67,100,106
1,63,93,0
1,74,103,8
1,57,71,8
1,53,85,4
1,58,84,148
1,70,97,2
1,62,106,2
1,53,102,6
1,46,73,2
1,82,89,332
1,94,95,0
1,46,88,2
1,34,84,2
1,63,72,302
1,56,69,4
1,60,52,2
1,58,44,10
1,62,57,28
1,65,43,4
1,68,43,6
1,70,51,2
1,63,47,48
1,67,49,6
1,65,52,22
1,56,51,2
1,62,62,4
1,58,39,4
1,68,43,152
1,60,52,0
1,63,49,2
1,70,38,4
1,56,40,108
1,65,55,6
1,62,52,6
1,58,28,0
1,68,25,98
1,70,28,2
1,56,32,164
1,58,27,2
1,94,60,8
1,82,32,4
1,70,38,144
1,68,32,6
1,63,86,80
1,60,71,2
1,58,58,2
1,55,67,2
1,62,74,0
1,65,70,2
1,70,57,52
1,67,54,8
1,67,38,60
1,63,53,2
1,65,69,0
1,62,71,0
1,55,72,2
1,58,58,2
1,70,56,124
1,63,72,4
1,67,58,10
1,60,54,0
1,65,59,118
1,62,61,2
1,58,49,0
1,55,50,2
1,70,54,118
1,63,67,6
1,60,55,16
1,67,17,18
1,58,47,32
1,62,69,0
1,65,69,0
1,55,8,18
1,72,68,46
1,70,50,0
1,67,49,2
1,63,66,0
1,46,67,4
1,63,75,2
1,56,67,4
1,60,66,0
1,48,76,72
1,50,76,150
1,48,75,10
1,46,62,134
1,46,72,176
1,48,75,14
1,50,69,184
1,48,63,16
1,46,49,166
1,46,43,130
1,55,47,8
1,60,37,0
1,63,49,0
1,48,48,84
1,50,46,174
1,48,42,24
1,46,31,192
1,46,67,198
1,34,71,4
1,48,83,74
1,36,67,0
1,35,65,4
1,38,92,42
1,50,100,2
1,48,106,22
1,36,105,4
1,34,106,96
1,46,96,6
1,22,109,0
1,56,84,110
1,63,88,10
1,60,81,6
1,58,24,2
1,62,68,36
1,65,63,0
1,70,55,16
1,68,54,2
1,63,61,32
1,67,44,20
1,65,57,4
1,62,65,0
1,56,70,2
1,58,66,2
1,68,46,156
1,60,57,0
1,63,62,0
1,70,47,0
1,65,52,176
1,62,56,0
1,58,31,4
1,56,40,0
1,70,36,124
1,68,22,4
1,94,65,152
1,82,48,4
1,56,36,4
1,58,11,4
1,70,38,114
1,68,40,6
1,63,83,48
1,60,73,0
1,55,75,2
1,58,55,2
1,62,72,38
1,65,63,6
1,70,57,50
1,67,50,20
1,67,71,24
1,63,59,2
1,65,77,18
1,62,76,2
1,58,62,2
1,55,56,0
1,70,60,100
1,67,42,6
1,63,67,2
1,60,59,0
1,65,67,94
1,62,64,2
1,55,63,2
1,58,48,0
1,70,62,76
1,67,55,8
1,60,78,4
1,63,79,0
1,65,89,32
1,62,80,2
1,58,59,4
1,55,36,0
1,72,97,128
1,70,76,4
1,67,82,2
1,63,79,0
1,70,81,176
1,82,97,4
1,59,75,0
1,75,90,2
1,71,105,0
1,63,78,6
1,68,67,14
1,80,86,2
1,82,83,0
1,70,77,4
1,77,91,66
1,65,80,8
1,70,90,20
1,82,96,2
1,68,95,26
1,80,96,2
1,65,80,56
1,77,87,36
1,63,74,64
1,75,79,0
1,71,108,18
1,59,102,6
1,68,72,130
1,56,79,6
1,65,78,72
1,53,105,6
1,63,85,38
1,51,82,4
1,47,90,58
1,59,101,0
1,50,111,120
1,55,111,2
1,46,102,0
1,34,104,2
1,58,55,528
1,51,65,2
1,55,75,2
1,53,101,2
1,46,62,154
1,39,66,6
1,58,58,158
1,55,81,2
1,53,91,0
1,51,64,2
1,46,72,126
1,39,70,4
1,58,47,834
1,51,56,2
1,55,57,2
1,53,74,0
1,46,48,156
1,39,52,2
1,58,38,160
1,55,52,2
1,53,57,0
1,51,46,2
1,46,36,200
1,39,37,0
1,58,32,968
1,55,43,2
1,53,50,0
1,51,46,2
1,46,38,164
1,39,43,2
1,58,31,152
1,55,24,0
1,53,53,2
1,51,16,2
1,39,37,200
1,41,41,574
1,49,31,724
1,42,38,2
1,61,35,142
1,58,41,2
1,57,31,0
1,42,38,206
1,57,37,156
1,61,50,6
1,58,35,0
1,42,39,212
1,55,34,184
1,56,38,6
1,59,42,2
1,42,40,202
1,56,24,164
1,57,47,32
1,65,20,2
1,60,20,6
1,51,50,68
1,42,37,54
1,49,57,4
1,57,46,140
1,58,61,22
1,61,65,4
1,42,52,186
1,57,52,162
1,58,52,28
1,61,51,6
1,42,47,176
1,55,59,172
1,56,55,10
1,59,47,16
1,42,48,188
1,56,38,132
1,57,51,42
1,65,37,14
1,60,27,10
1,49,37,154
1,57,33,202
1,58,52,18
1,61,56,2
1,42,48,2
1,41,62,158
1,39,51,174
1,37,48,232
1,57,32,366
1,58,26,26
1,61,49,4
1,42,32,622
1,41,35,180
1,39,29,158
1,37,36,166
1,35,35,190
1,48,25,152
1,34,41,10
1,49,42,16
1,47,21,26
1,32,45,100
1,49,65,220
1,42,50,2
1,57,35,136
1,58,60,10
1,61,69,8
1,42,50,200
1,57,49,162
1,58,56,12
1,61,71,6
1,42,53,196
1,55,63,168
1,56,70,8
1,59,76,6
1,42,44,184
1,56,46,142
1,65,67,32
1,57,53,0
1,60,52,4
1,51,58,98
1,42,58,48
1,49,78,4
1,57,54,170
1,58,67,10
1,61,75,4
1,42,53,182
1,57,44,160
1,58,60,14
1,61,69,6
1,42,49,184
1,56,67,152
1,59,62,8
1,55,42,4
1,42,42,186
1,56,41,126
1,65,58,38
1,57,44,0
1,60,38,0
1,49,38,124
1,57,37,200
1,58,46,26
1,61,52,6
1,42,38,4
1,41,50,154
1,39,42,172
1,37,39,216
1,39,36,164
1,57,61,138
1,41,40,30
1,42,59,92
1,45,47,166
1,65,80,20
1,46,46,20
1,47,41,44
1,64,57,98
1,58,16,8
1,48,22,8
1,63,38,246
1,44,25,0
1,49,20,2
1,59,17,12
1,74,15,340
1,71,38,0
1,65,20,6
1,75,35,6
1,56,8,20
1,73,34,106
1,72,28,4
1,71,39,4
1,56,22,4
1,65,25,12
1,74,59,72
1,65,34,8
1,71,37,6
1,59,37,2
1,56,20,2
1,75,55,10
1,74,53,244
1,75,57,2
1,71,51,0
1,65,45,4
1,56,37,8
1,59,41,8
1,72,47,100
1,73,49,0
1,65,48,16
1,71,52,0
1,56,21,16
1,59,28,2
1,74,41,80
1,56,24,4
1,71,33,4
1,59,11,8
1,65,35,0
1,75,38,8
1,57,60,618
1,65,76,428
1,49,47,26
1,64,46,1176
1,63,42,32
1,42,27,4
1,58,31,4
1,70,35,316
1,74,47,4
1,66,24,12
1,61,31,8
1,75,40,4
1,58,16,0
1,70,48,80
1,72,38,12
1,73,54,4
1,66,45,2
1,58,23,2
1,61,39,8
1,74,67,84
1,70,47,8
1,66,54,2
1,58,29,6
1,61,42,2
1,75,58,6
1,70,52,256
1,74,63,2
1,66,47,4
1,75,62,2
1,58,40,2
1,61,51,0
1,72,46,98
1,66,49,8
1,70,46,0
1,73,57,4
1,61,44,6
1,58,37,0
1,70,55,96
1,74,46,10
1,66,42,4
1,75,61,10
1,61,41,10
1,58,20,8
1,69,84,632
1,57,56,8
1,77,100,0
1,65,77,2
1,68,83,188
1,80,95,0
1,78,88,166
1,66,68,12
1,75,87,72
1,70,66,0
1,49,78,10
1,78,84,56
1,68,67,80
1,65,57,4
1,56,32,12
1,59,54,0
1,77,84,76
1,73,81,0
1,66,69,0
1,63,69,10
1,65,79,52
1,61,78,0
1,68,73,132
1,63,70,8
1,54,50,8
1,59,47,6
1,71,79,54
1,61,62,6
1,53,74,6
1,70,62,0
1,61,75,24
1,51,38,14
1,59,65,2
1,59,22,12
1,58,46,86
1,49,45,0
1,42,44,154
1,49,32,400
1,57,54,262
1,49,37,120
1,65,58,60
1,43,40,10
1,49,35,280
1,58,24,64
1,64,38,244
1,49,19,10
1,49,2,24
1,63,33,18
1,49,17,8
1,59,18,2
1,44,26,4
1,74,29,344
1,66,28,4
1,71,36,10
1,75,36,0
1,56,32,6
1,59,19,14
1,73,44,96
1,72,38,4
1,65,50,6
1,71,29,6
1,59,24,2
1,56,36,6
1,74,50,90
1,63,55,12
1,71,31,4
1,75,43,18
1,56,28,2
1,59,24,0
1,54,60,654
1,57,61,110
1,53,73,16
1,51,53,170
1,65,68,60
1,48,25,854
1,64,37,96
1,63,30,8
1,58,19,20
1,42,21,2
1,49,11,10
1,66,30,330
1,74,35,0
1,70,24,0
1,58,26,8
1,75,38,6
1,61,29,2
1,70,39,112
1,72,34,6
1,58,44,0
1,65,46,4
1,73,32,0
1,61,40,8
1,74,54,100
1,58,42,22
1,70,30,2
1,63,50,4
1,61,41,10
1,75,29,14
1,73,81,688
1,61,62,20
1,69,71,8
1,81,98,2
1,83,113,24
1,71,96,6
1,82,92,18
1,70,70,10
1,77,95,224
1,70,66,2
1,47,73,16
1,80,85,88
1,63,59,86
1,68,68,2
1,54,41,16
1,56,42,0
1,59,42,14
1,78,79,76
1,75,83,56
1,66,71,10
1,65,88,16
1,63,76,174
1,70,81,0
1,73,76,40
1,61,72,10
1,71,92,90
1,59,64,38
1,65,87,6
1,58,67,116
1,66,68,72
1,56,79,44
1,54,83,244
1,46,84,0
1,63,75,4
1,59,66,2
1,49,79,106
1,47,73,0
1,37,80,102
1,39,68,368
1,41,72,28
1,39,56,32
1,37,45,64
1,70,26,244
1,68,31,38
1,70,30,240
1,70,26,540
1,68,23,36
1,70,39,262
1,46,66,352
1,61,50,4
1,54,53,2
1,59,53,10
1,49,69,152
1,46,50,56
1,37,55,2
1,39,58,108
1,41,47,34
1,39,44,2
1,53,61,8
1,37,43,10
1,70,25,452
1,68,28,54
1,70,28,322
1,70,27,610
1,68,24,58
1,70,21,464
1,70,36,728
1,68,30,58
1,70,35,210
1,65,31,86
1,70,25,288
1,68,34,252
1,65,22,16
1,63,34,184
1,59,39,58
1,63,46,198
1,58,55,192
1,39,52,6
1,46,28,0
1,58,36,30
1,53,56,114
1,55,37,8
1,60,42,42
1,46,42,30
1,58,45,2
1,39,54,2
1,63,68,26
1,70,61,10
1,55,64,6
1,53,42,4
1,58,52,126
1,39,48,6
1,46,19,8
1,55,44,156
1,53,57,4
1,46,50,150
1,39,57,0
1,55,66,158
1,53,63,8
1,58,72,126
1,46,54,10
1,39,55,6
1,56,70,40
1,51,47,94
1,53,50,12
1,58,47,32
1,60,75,86
1,39,64,10
1,46,54,0
1,51,70,152
1,56,70,2
1,53,62,0
1,58,84,162
1,46,75,2
1,39,68,8
1,56,78,42
1,53,85,42
1,51,69,10
1,58,66,38
1,59,84,92
1,46,45,2
1,39,40,10
1,56,80,122
1,51,63,4
1,53,85,2
1,58,100,160
1,46,99,2
1,43,100,66
1,55,104,8
1,53,115,44
1,41,101,6
1,51,103,60
1,39,104,8
1,50,111,144
1,38,111,4
1,48,111,116
1,36,118,6
1,43,106,126
1,31,118,2
1,48,99,94
1,36,110,6
1,38,111,106
1,50,109,2
1,70,100,188
1,46,100,4
1,39,103,0
1,68,86,12
1,56,97,30
1,53,113,8
1,63,93,6
1,59,96,2
1,70,83,32
1,46,102,52
1,39,103,2
1,65,96,0
1,70,98,108
1,56,99,2
1,53,117,2
1,60,34,0
1,59,99,0
1,63,90,0
1,68,100,10
1,46,97,2
1,39,95,4
1,65,94,42
1,59,81,40
1,56,90,2
1,53,103,0
1,63,93,34
1,46,99,42
1,39,102,2
1,59,98,0
1,59,101,116
1,63,102,2
1,56,100,0
1,53,117,2
1,46,92,68
1,39,94,2
1,58,90,10
1,58,62,14
1,55,98,94
