track,note,velocity,time
2,39,108,11790
2,44,103,10
2,43,106,10
2,42,108,10
2,42,107,10
2,41,101,10
2,41,101,10
2,46,108,10
2,44,103,10
2,39,102,10
2,39,105,10
2,37,108,10
2,37,108,10
2,44,103,10
2,43,108,10
2,42,100,10
2,42,107,10
2,41,102,10
2,41,107,10
2,46,101,10
2,44,100,10
2,39,105,10
2,39,100,10
2,37,106,10
2,37,109,10
2,36,109,10
2,36,108,10
2,34,104,10
2,32,108,10
2,32,109,10
2,39,103,1066
2,32,103,10
2,39,102,10
2,32,108,10
2,39,101,10
2,32,103,10
2,32,109,10
2,32,103,10
2,39,106,10
2,32,109,10
2,32,101,10
2,39,102,10
2,39,104,10
2,32,104,10
2,32,105,10
2,32,109,10
2,39,104,10
2,32,107,10
2,32,102,10
2,39,100,10
2,39,109,10
2,32,108,10
2,32,103,10
2,32,106,10
2,39,109,10
2,44,103,10
2,44,102,10
2,51,108,10
2,39,108,10
2,44,103,10
2,44,105,10
2,44,105,10
2,39,103,10
2,44,107,10
2,44,103,10
2,51,101,10
2,39,102,10
2,44,101,10
2,44,103,10
2,44,103,10
2,39,105,10
2,44,100,10
2,56,104,10
2,36,109,10
2,37,103,10
2,39,103,10
2,32,109,10
2,32,102,10
2,39,100,10
2,32,102,10
2,32,100,10
2,39,103,10
2,32,105,10
2,32,102,10
2,39,105,10
2,32,100,10
2,39,90,490
2,32,97,10
2,31,93,10
2,30,99,10
2,30,97,10
2,29,90,10
2,29,95,10
2,34,92,10
2,32,97,10
2,32,96,10
2,39,99,10
2,39,90,10
2,37,90,10
2,37,97,10
2,36,98,10
2,36,90,10
2,34,99,10
2,32,98,10
3,68,108,740
3,44,80,0
3,63,103,10
3,70,102,10
3,63,103,10
3,75,106,10
3,63,109,10
3,44,84,4
3,68,106,0
3,63,105,10
3,70,108,10
3,63,104,10
3,75,104,10
3,63,107,10
3,44,84,4
3,72,100,0
3,63,107,10
3,68,109,10
3,70,102,10
3,72,108,10
3,72,109,10
3,72,106,4
3,42,83,0
3,63,100,10
3,66,102,10
3,63,105,10
3,73,102,10
3,75,108,10
3,68,101,4
3,41,83,0
3,60,105,10
3,65,104,10
3,60,107,10
3,68,106,10
3,41,86,10
3,70,105,4
3,40,88,0
3,60,106,10
3,64,109,10
3,68,105,10
3,70,103,10
3,63,106,10
3,72,105,4
3,44,85,0
3,63,101,10
3,72,101,10
3,63,101,10
3,68,107,10
3,70,107,10
3,44,83,0
3,73,102,4
3,42,80,0
3,63,103,10
3,72,109,10
3,63,105,10
3,66,102,10
3,70,102,10
3,41,87,4
3,68,104,0
3,60,104,10
3,65,105,10
3,68,108,10
3,70,109,10
3,41,86,10
3,70,108,4
3,40,80,0
3,60,100,10
3,64,106,10
3,68,109,10
3,70,100,10
3,63,106,10
3,44,88,4
3,72,107,0
3,63,109,10
3,68,101,10
3,70,102,10
3,72,107,10
3,72,109,10
3,72,109,4
3,42,85,0
3,63,102,10
3,66,108,10
3,63,101,10
3,73,106,10
3,75,109,10
3,41,85,4
3,75,105,0
3,63,101,10
3,73,102,10
3,63,109,10
3,72,100,10
3,63,101,10
3,41,84,0
3,70,106,4
3,40,89,0
3,68,108,10
3,63,101,10
3,72,105,4
3,44,80,0
3,63,101,10
3,72,108,10
3,63,106,10
3,68,108,10
3,63,106,10
3,73,106,4
3,42,83,0
3,63,105,10
3,72,105,10
3,63,104,10
3,66,109,10
3,70,102,10
3,41,84,4
3,68,103,0
3,60,100,10
3,65,109,10
3,68,107,10
3,70,109,10
3,41,88,10
3,70,109,4
3,40,80,0
3,60,106,10
3,64,104,10
3,68,105,10
3,70,105,10
3,70,104,4
3,39,104,10
3,63,109,0
3,72,103,4
3,60,102,10
3,68,105,10
3,63,102,0
3,60,109,10
3,63,100,10
3,68,104,0
3,60,105,10
3,72,100,4
3,58,105,10
3,63,103,10
3,67,107,0
3,58,100,10
3,63,109,10
3,67,105,0
3,58,105,10
3,66,101,4
3,70,105,0
3,61,105,10
3,70,107,10
3,66,101,0
3,61,108,10
3,66,106,10
3,70,108,0
3,61,107,10
3,65,102,4
3,70,101,0
3,61,102,10
3,65,107,10
3,68,103,0
3,61,105,10
3,65,100,10
3,68,106,0
3,61,106,10
3,65,106,4
3,68,106,0
3,61,108,10
3,68,100,10
3,65,102,0
3,61,101,10
3,65,100,10
3,68,101,0
3,61,109,10
3,63,105,4
3,68,107,0
3,60,106,10
3,68,108,10
3,63,102,0
3,60,100,10
3,63,105,10
3,68,107,0
3,60,108,10
3,63,108,4
3,67,109,0
3,58,101,10
3,67,101,10
3,63,108,0
3,58,104,10
3,67,103,10
3,63,108,0
3,58,105,10
3,67,105,4
3,63,108,0
3,58,104,10
3,67,108,10
3,63,102,0
3,58,100,10
3,67,108,10
3,63,106,0
3,58,103,10
3,63,102,4
3,68,104,0
3,60,103,10
3,63,108,10
3,68,101,0
3,60,102,10
3,68,102,10
3,63,107,0
3,60,106,10
3,63,100,4
3,67,101,0
3,58,103,10
3,67,106,10
3,63,107,0
3,58,109,10
3,67,109,10
3,63,102,0
3,58,105,10
3,66,109,4
3,70,102,0
3,61,101,10
3,70,105,10
3,66,103,0
3,61,109,10
3,66,106,10
3,70,102,0
3,61,108,10
3,65,100,4
3,68,103,0
3,61,100,10
3,65,107,10
3,68,104,0
3,61,104,10
3,65,107,10
3,68,106,0
3,61,102,10
3,65,103,4
3,68,101,0
3,61,109,10
3,65,102,10
3,68,104,0
3,61,103,10
3,65,105,10
3,68,105,0
3,61,109,10
3,75,102,4
3,72,108,0
3,68,100,10
3,72,104,10
3,75,104,0
3,68,108,10
3,72,107,10
3,75,103,0
3,68,105,10
3,63,108,4
3,70,100,0
3,67,108,0
3,58,103,10
3,63,104,10
3,70,107,0
3,67,109,0
3,58,100,10
3,63,102,10
3,70,107,0
3,67,100,0
3,58,102,10
3,63,106,4
3,70,101,0
3,67,101,0
3,58,102,10
3,63,103,10
3,67,101,0
3,70,107,0
3,58,103,10
3,63,109,10
3,70,100,0
3,67,105,0
3,58,100,10
3,63,108,4
3,70,103,0
3,67,103,0
3,58,104,10
3,63,104,10
3,67,102,0
3,70,109,0
3,58,103,10
3,67,104,10
3,70,109,0
3,58,105,10
3,67,104,4
3,70,101,0
3,58,106,10
3,67,100,10
3,70,108,0
3,58,102,10
3,67,101,10
3,70,101,0
3,58,108,10
3,68,101,4
3,63,102,0
3,60,105,0
3,51,104,96
3,56,104,10
3,58,105,10
3,60,101,2
3,55,102,4
3,58,108,0
3,63,109,0
3,55,103,10
3,58,103,10
3,55,106,10
3,55,103,10
3,63,104,0
3,58,102,0
3,55,106,10
3,53,109,4
3,61,108,0
3,56,102,0
3,53,102,10
3,56,109,10
3,53,105,10
3,56,103,10
3,61,100,0
3,53,106,10
3,53,103,4
3,56,104,0
3,61,101,0
3,68,102,4
3,72,102,0
3,63,103,10
3,72,102,10
3,68,109,0
3,63,101,10
3,68,106,10
3,72,101,0
3,63,107,10
3,67,100,4
3,72,109,0
3,63,105,10
3,67,109,10
3,72,109,0
3,63,101,10
3,67,108,10
3,72,106,0
3,63,103,10
3,65,108,4
3,70,101,0
3,61,109,10
3,70,108,10
3,65,107,0
3,61,102,10
3,65,101,10
3,70,108,0
3,61,107,10
3,70,103,4
3,65,106,0
3,63,100,10
3,65,109,10
3,70,105,0
3,63,101,10
3,65,105,10
3,70,107,0
3,63,103,10
3,68,105,4
3,72,107,0
3,63,107,10
3,68,108,10
3,72,108,0
3,63,108,10
3,68,106,10
3,72,103,0
3,63,106,10
3,67,108,4
3,72,104,0
3,63,109,10
3,67,108,10
3,72,101,0
3,63,104,10
3,67,108,10
3,72,104,0
3,63,107,10
3,65,103,4
3,70,103,0
3,61,102,10
3,70,101,10
3,65,104,0
3,61,102,10
3,65,101,10
3,61,103,0
3,56,106,10
3,56,108,4
3,61,103,0
3,53,100,10
3,56,107,10
3,61,103,0
3,53,102,10
3,65,106,10
3,61,100,0
3,56,104,10
3,72,100,4
3,68,109,0
3,63,108,10
3,68,108,10
3,72,109,0
3,63,105,10
3,68,107,10
3,72,107,0
3,63,104,10
3,67,103,4
3,72,101,0
3,63,105,10
3,67,107,10
3,72,106,0
3,63,107,10
3,67,100,10
3,72,102,0
3,63,106,10
3,65,101,4
3,70,101,0
3,61,102,10
3,65,102,10
3,70,101,0
3,61,102,10
3,70,101,10
3,65,104,0
3,61,104,10
3,65,104,4
3,70,100,0
3,63,102,10
3,70,108,10
3,65,101,0
3,63,101,10
3,65,103,10
3,70,109,0
3,63,106,10
3,68,100,4
3,72,102,0
3,63,101,10
3,68,106,10
3,72,107,0
3,63,104,10
3,68,100,10
3,72,104,0
3,63,109,10
3,67,103,4
3,72,104,0
3,63,101,10
3,67,101,10
3,72,105,0
3,63,105,10
3,67,105,10
3,72,102,0
3,63,109,10
3,70,109,4
3,65,104,0
3,61,100,10
3,65,108,10
3,70,104,0
3,61,101,10
3,65,100,10
3,70,109,0
3,61,105,10
3,65,105,4
3,70,106,0
3,63,105,10
3,65,105,10
3,70,106,0
3,63,104,10
3,65,105,10
3,70,105,0
3,63,103,10
3,68,100,4
3,72,100,0
3,63,107,10
3,68,102,10
3,72,108,0
3,63,104,10
3,68,106,10
3,72,106,0
3,63,108,10
3,67,102,4
3,72,100,0
3,63,106,10
3,72,101,10
3,67,100,0
3,63,107,10
3,67,108,10
3,72,100,0
3,63,100,10
3,70,101,4
3,65,103,0
3,61,102,10
3,70,102,10
3,65,109,0
3,61,102,10
3,70,102,10
3,65,101,0
3,61,106,10
3,70,100,4
3,65,106,0
3,63,107,10
3,70,109,10
3,65,101,0
3,63,104,10
3,70,101,10
3,65,100,0
3,63,100,10
3,68,105,4
3,72,101,0
3,63,108,10
3,68,108,10
3,72,102,0
3,63,105,10
3,68,102,10
3,72,109,0
3,63,101,10
3,67,104,4
3,72,104,0
3,63,108,10
3,72,102,10
3,67,107,0
3,63,106,10
3,67,109,10
3,72,109,0
3,63,108,10
3,65,101,4
3,70,105,0
3,61,100,10
3,65,100,10
3,70,101,0
3,61,109,10
3,70,105,10
3,65,105,0
3,61,103,10
3,65,107,4
3,70,102,0
3,63,101,0
3,72,103,4
3,68,104,0
3,63,102,0
3,63,103,10
3,68,103,0
3,72,103,0
3,72,109,10
3,68,107,0
3,63,106,10
3,72,105,4
3,67,109,0
3,63,105,10
3,70,109,10
3,67,109,0
3,63,100,10
3,67,108,10
3,72,102,0
3,63,105,10
3,68,108,4
3,65,103,0
3,61,107,0
3,68,104,10
3,65,107,0
3,61,105,10
3,65,103,10
3,68,109,0
3,61,106,10
3,65,104,4
3,68,105,0
3,61,102,10
3,70,102,10
3,65,102,0
3,61,101,10
3,68,101,10
3,61,103,10
3,72,103,4
3,63,104,0
3,68,107,0
3,72,100,10
3,68,104,0
3,63,106,0
3,63,108,10
3,72,102,10
3,68,107,0
3,63,105,10
3,72,106,4
3,67,107,0
3,63,101,10
3,70,109,10
3,67,106,0
3,63,101,10
3,72,104,10
3,67,102,0
3,63,106,10
3,65,109,4
3,61,106,0
3,68,104,0
3,61,103,10
3,65,109,0
3,68,109,0
3,68,107,10
3,61,108,0
3,65,108,0
3,65,101,4
3,68,105,0
3,61,109,0
3,68,92,4
3,72,96,0
3,75,98,0
3,63,95,10
3,68,97,10
3,72,90,0
3,75,90,0
3,63,91,10
3,68,98,10
3,72,92,0
3,75,95,0
3,63,98,10
3,67,96,4
3,70,94,0
3,75,97,0
3,63,94,10
3,67,93,10
3,70,96,0
3,63,99,10
3,67,96,10
3,70,91,0
3,63,91,10
3,70,99,4
3,66,93,0
3,77,99,10
3,78,99,10
3,70,94,0
3,66,99,10
3,70,96,10
3,78,96,0
3,77,96,10
3,68,94,4
3,75,98,0
3,65,91,0
3,73,94,10
3,68,94,10
3,73,95,0
3,65,99,0
3,61,95,10
3,65,94,10
3,73,90,0
3,68,99,0
3,61,95,10
3,65,99,4
3,73,97,0
3,68,98,0
3,61,93,10
3,68,99,10
3,77,98,0
3,73,95,0
3,65,95,10
3,77,96,10
3,68,95,0
3,73,95,0
3,65,91,10
3,72,97,4
3,68,99,0
3,75,97,0
3,63,91,10
3,72,93,10
3,75,97,0
3,68,93,0
3,63,94,10
3,68,98,10
3,72,97,0
3,75,97,0
3,63,95,10
3,75,94,4
3,67,92,0
3,70,93,0
3,63,95,10
3,67,96,10
3,75,98,0
3,70,90,0
3,63,92,10
3,67,98,10
3,75,91,0
3,70,91,0
3,63,92,10
3,67,96,4
3,75,94,0
3,70,96,0
3,63,98,10
3,70,90,10
3,67,99,0
3,75,93,0
3,63,99,10
3,67,99,10
3,75,93,0
3,70,99,0
3,63,97,10
3,67,90,4
3,70,91,0
3,75,98,0
3,63,97,10
3,67,97,10
3,75,97,0
3,70,98,0
3,63,94,10
3,73,94,10
3,67,92,10
3,63,95,0
3,72,97,0
3,56,96,196
3,58,91,10
3,60,96,10
3,63,97,10
3,68,94,4
3,70,97,10
3,72,94,10
3,75,96,10
3,80,98,10
3,82,98,10
3,84,92,4
3,87,99,10
3,92,91,10
3,94,95,10
3,96,96,10
4,68,77,11674
4,60,51,96
4,63,71,10
4,60,57,96
4,68,76,10
4,60,56,96
4,67,75,10
4,58,52,96
4,63,79,10
4,58,54,96
4,67,72,10
4,58,58,96
4,66,73,10
4,56,58,96
4,63,72,10
4,56,53,96
4,66,74,10
4,56,56,96
4,65,74,10
4,56,55,96
4,61,72,10
4,56,59,96
4,65,77,10
4,56,56,96
4,65,77,10
4,58,53,96
4,61,77,10
4,58,54,96
4,65,75,10
4,58,58,96
4,68,72,10
4,56,51,96
4,63,71,10
4,56,55,96
4,68,78,10
4,56,53,96
4,67,76,10
4,58,53,96
4,63,76,10
4,58,54,96
4,67,79,10
4,58,51,96
4,67,79,10
4,58,55,96
4,61,75,10
4,58,53,96
4,67,78,10
4,58,50,96
4,68,92,10
4,60,57,96
4,63,92,10
4,60,59,96
4,68,90,10
4,60,50,96
4,67,97,10
4,58,52,96
4,63,88,10
4,58,50,96
4,67,96,10
4,58,59,96
4,58,77,106
4,66,74,10
4,66,71,10
4,65,76,4
4,65,74,106
4,61,74,0
4,65,76,10
4,61,76,0
4,65,78,10
4,61,73,0
4,65,76,10
4,61,78,0
4,63,71,10
4,60,78,0
4,68,71,106
4,63,70,10
4,67,77,10
4,70,73,10
4,63,74,10
4,67,76,10
4,70,73,10
4,63,79,10
4,67,76,10
4,70,79,10
4,63,76,10
4,67,74,10
4,70,78,10
4,63,73,106
4,68,79,0
4,60,70,0
4,77,81,1162
4,77,90,18442
4,75,75,12
4,77,71,2
4,75,78,10
4,72,71,10
4,70,60,10
4,66,67,1162
4,58,60,10
4,63,62,10
4,58,62,10
4,66,68,10
4,58,69,10
4,65,60,10
4,56,68,10
4,61,60,10
4,56,62,10
4,65,64,10
4,56,60,10
4,65,61,10
4,58,64,10
4,61,66,10
4,58,68,10
4,65,61,10
4,58,64,10
4,63,60,10
4,56,63,10
4,60,68,10
4,56,65,10
4,63,67,10
4,60,64,10
4,63,63,10
4,67,64,10
4,70,61,10
4,63,62,10
4,67,64,10
4,70,65,10
4,63,66,10
4,67,64,10
4,70,65,10
4,75,62,106
4,67,64,0
4,70,69,0
4,67,60,10
4,63,63,0
4,70,68,0
4,55,68,10
4,58,63,0
4,63,67,0
4,56,69,298
4,60,63,96
4,63,63,96
4,68,69,96
5,75,90,33552
5,70,96,10
5,73,93,10
5,65,97,10
5,75,99,10
5,75,92,10
5,75,94,6
5,75,95,6
5,73,91,6
5,73,98,6
5,72,95,6
5,72,91,6
5,70,91,6
5,70,74,6
5,65,74,0
5,61,79,0
6,87,67,1286
6,63,85,480
6,63,84,14
6,63,82,6
6,61,82,14
6,63,89,14
6,63,85,14
6,61,82,14
6,63,85,14
6,68,83,14
6,65,82,14
6,68,80,14
6,70,83,14
6,64,86,14
6,61,87,14
6,60,82,14
6,58,89,14
6,56,88,14
6,51,87,14
