track,note,velocity,time
1,79,64,50
1,79,0,2
1,77,64,21
1,77,0,2
1,77,64,21
1,77,0,2
1,79,64,22
1,79,0,1
1,79,64,113
1,79,0,2
1,77,64,44
1,77,0,25
1,79,64,113
1,79,0,1
1,79,64,22
1,79,0,2
1,79,64,21
1,79,0,1
1,77,64,22
1,77,0,3
1,77,64,112
1,77,0,2
1,79,64,44
1,79,0,25
1,79,64,114
1,79,0,1
1,77,64,21
1,77,0,2
1,77,64,21
1,77,0,2
1,79,64,23
1,79,0,1
1,79,64,112
1,79,0,2
1,77,64,44
1,77,0,23
1,79,64,115
1,79,0,2
1,79,64,21
1,79,0,2
1,79,64,21
1,79,0,2
1,77,64,22
1,77,0,1
1,77,64,114
1,77,0,1
1,79,64,44
1,79,0,26
1,63,64,113
1,68,64,23
1,63,0,0
1,70,64,23
1,68,0,0
1,75,64,24
1,70,0,0
1,75,0,273
1,72,64,2
1,72,0,68
1,70,64,1
1,70,0,205
1,75,64,186
1,75,0,44
1,75,64,117
1,73,64,23
1,75,0,0
1,75,64,23
1,73,0,0
1,80,64,23
1,75,0,0
1,87,64,23
1,80,0,0
1,72,64,23
1,87,0,0
1,70,64,70
1,72,0,0
1,72,64,68
1,70,0,0
1,73,64,23
1,72,0,0
1,73,0,113
1,72,64,325
1,72,0,45
1,73,64,1
1,75,64,45
1,73,0,0
1,72,64,114
1,75,0,0
1,72,0,23
1,73,64,2
1,72,64,45
1,73,0,0
1,70,64,46
1,72,0,0
1,70,0,183
1,73,64,232
1,73,0,45
1,72,64,1
1,72,0,45
1,73,64,1
1,73,0,45
1,72,64,1
1,72,0,91
1,73,64,2
1,73,0,44
1,72,64,1
1,72,0,45
1,68,64,1
1,68,0,182
1,68,64,187
1,68,64,45
1,68,0,0
1,68,64,45
1,68,0,0
1,68,0,92
1,68,64,47
1,68,0,45
1,70,64,3
1,68,64,90
1,70,0,0
1,68,0,45
1,66,64,1
1,66,0,22
1,66,64,1
1,66,0,115
1,73,64,277
1,72,64,45
1,73,0,0
1,72,0,46
1,73,64,1
1,72,64,45
1,73,0,0
1,72,0,46
1,73,64,2
1,72,64,5
1,73,0,0
1,70,64,5
1,72,0,0
1,68,64,6
1,70,0,0
1,68,0,29
1,73,64,46
1,72,64,6
1,73,0,0
1,70,64,5
1,72,0,0
1,68,64,6
1,70,0,0
1,68,0,29
1,73,64,46
1,72,64,6
1,73,0,0
1,70,64,5
1,72,0,0
1,68,64,6
1,70,0,0
1,68,0,29
1,72,64,230
1,72,0,45
1,73,64,1
1,73,0,45
1,75,64,1
1,75,0,45
1,77,64,1
1,77,0,45
1,75,64,1
1,75,64,184
1,75,0,0
1,73,64,46
1,75,0,0
1,73,0,46
1,73,64,1
1,73,0,45
1,72,64,1
1,72,0,45
1,70,64,1
1,70,0,90
1,73,64,140
1,73,0,45
1,73,64,1
1,77,64,45
1,73,0,0
1,77,0,92
1,77,64,1
1,77,64,45
1,77,0,0
1,75,64,47
1,77,0,0
1,75,0,45
1,72,64,1
1,72,0,91
1,77,64,70
1,77,0,12
1,75,64,11
1,75,0,23
1,73,64,23
1,73,0,23
1,72,64,92
1,72,0,46
1,70,64,23
1,70,0,23
1,73,64,93
1,73,0,11
1,72,64,12
1,72,0,34
1,70,64,11
1,70,0,34
1,73,64,82
1,73,0,11
1,72,64,12
1,72,0,34
1,70,64,12
1,70,0,34
1,73,64,81
1,73,0,11
1,72,64,11
1,72,0,35
1,70,64,11
1,70,0,35
1,73,64,242
1,73,0,11
1,73,64,12
1,73,0,57
1,70,64,12
1,70,0,34
1,72,64,12
1,72,0,11
1,75,64,12
1,75,0,35
1,75,64,11
1,75,0,113
1,73,64,48
1,73,0,11
1,72,64,12
1,72,0,58
1,70,64,11
1,70,0,35
1,72,64,81
1,72,0,57
1,70,64,11
1,70,0,35
1,73,64,80
1,73,0,12
1,72,64,11
1,72,0,35
1,70,64,11
1,70,0,35
1,73,64,80
1,73,0,12
1,72,64,11
1,72,0,35
1,70,64,12
1,70,0,34
1,73,64,57
1,73,0,12
1,72,64,12
1,72,0,34
1,70,64,11
1,70,0,35
1,73,64,265
1,73,0,11
1,73,64,11
1,73,0,35
1,73,64,11
1,73,0,58
1,72,64,12
1,68,64,23
1,72,0,0
1,68,0,34
1,70,64,12
1,70,0,57
1,68,64,12
1,68,0,115
1,75,64,0
1,77,64,90
1,75,0,0
1,73,64,47
1,77,0,0
1,73,0,45
1,73,64,2
1,75,64,92
1,73,0,0
1,75,0,44
1,75,64,163
1,73,64,45
1,75,0,0
1,70,64,47
1,73,0,0
1,68,64,23
1,70,0,0
1,68,0,44
1,73,64,94
1,73,0,91
1,77,64,2
1,77,0,90
1,75,64,2
1,77,64,68
1,75,0,0
1,77,0,69
1,73,64,184
1,73,0,12
1,75,64,11
1,75,0,114
1,75,64,94
1,75,0,90
1,77,64,3
1,73,64,45
1,77,0,0
1,73,0,44
1,73,64,2
1,75,64,93
1,73,0,0
1,75,0,43
1,75,64,163
1,75,0,45
1,73,64,1
1,70,64,46
1,73,0,0
1,68,64,23
1,70,0,0
1,68,0,45
1,73,64,94
1,73,0,90
1,77,64,2
1,75,64,45
1,77,0,0
1,75,0,45
1,75,64,2
1,71,64,34
1,75,0,0
1,72,64,12
1,71,0,0
1,70,64,34
1,72,0,0
1,68,64,12
1,70,0,0
1,68,0,90
1,72,64,140
1,70,64,23
1,72,0,0
1,68,64,23
1,70,0,0
1,68,0,91
1,70,64,1
1,70,0,45
1,70,64,1
1,70,0,114
1,72,64,138
1,72,0,45
1,73,64,1
1,75,64,45
1,73,0,0
1,72,64,115
1,75,0,0
1,72,0,23
1,73,64,1
1,72,64,45
1,73,0,0
1,72,0,46
1,70,64,1
1,70,0,182
1,73,64,233
1,73,0,44
1,72,64,1
1,72,0,45
1,73,64,1
1,72,64,45
1,73,0,0
1,72,0,92
1,73,64,2
1,73,0,44
1,72,64,1
1,72,0,45
1,68,64,2
1,68,0,182
1,68,64,186
1,68,64,45
1,68,0,0
1,68,0,46
1,68,64,1
1,68,0,91
1,68,64,46
1,68,0,46
1,70,64,1
1,68,64,91
1,70,0,0
1,66,64,46
1,68,0,0
1,66,0,22
1,66,64,1
1,66,0,115
1,73,64,277
1,72,64,45
1,73,0,0
1,72,0,46
1,73,64,1
1,72,64,45
1,73,0,0
1,72,0,46
1,73,64,2
1,72,64,5
1,73,0,0
1,70,64,6
1,72,0,0
1,68,64,5
1,70,0,0
1,68,0,29
1,73,64,46
1,72,64,6
1,73,0,0
1,70,64,6
1,72,0,0
1,68,64,6
1,70,0,0
1,68,0,28
1,73,64,46
1,72,64,6
1,73,0,0
1,70,64,6
1,72,0,0
1,68,64,5
1,70,0,0
1,68,0,29
1,72,64,231
1,72,0,45
1,73,64,1
1,73,0,45
1,75,64,1
1,75,0,45
1,77,64,1
1,77,0,45
1,75,64,2
1,75,64,182
1,75,0,0
1,73,64,46
1,75,0,0
1,73,0,46
1,73,64,1
1,73,0,45
1,72,64,1
1,72,0,45
1,70,64,1
1,70,0,91
1,73,64,139
1,73,0,45
1,73,64,1
1,77,64,46
1,73,0,0
1,77,0,91
1,77,64,1
1,77,0,45
1,77,64,2
1,75,64,45
1,77,0,0
1,75,0,45
1,72,64,1
1,72,0,92
1,77,64,69
1,77,0,12
1,75,64,11
1,75,0,23
1,73,64,23
1,73,0,23
1,72,64,92
1,72,0,47
1,70,64,22
1,70,0,23
1,73,64,93
1,73,0,11
1,72,64,12
1,72,0,34
1,70,64,12
1,70,0,34
1,73,64,81
1,73,0,11
1,72,64,12
1,72,0,34
1,70,64,12
1,70,0,34
1,73,64,81
1,73,0,11
1,72,64,12
1,72,0,34
1,70,64,12
1,70,0,34
1,73,64,242
1,73,0,11
1,73,64,12
1,73,0,57
1,70,64,12
1,70,0,34
1,72,64,12
1,68,64,23
1,72,0,0
1,68,0,35
1,70,64,12
1,70,0,56
1,68,64,12
1,68,0,115
1,75,64,0
1,75,0,90
1,77,64,1
1,73,64,47
1,77,0,0
1,73,0,45
1,73,64,3
1,75,64,90
1,73,0,0
1,75,0,44
1,75,64,164
1,75,0,44
1,73,64,1
1,70,64,47
1,73,0,0
1,68,64,23
1,70,0,0
1,68,0,44
1,73,64,94
1,73,0,91
1,77,64,1
1,77,0,90
1,75,64,2
1,77,64,69
1,75,0,0
1,77,0,68
1,73,64,185
1,73,0,11
1,75,64,12
1,75,0,113
1,75,64,94
1,75,0,91
1,77,64,2
1,73,64,45
1,77,0,0
1,73,0,44
1,73,64,3
1,75,64,91
1,73,0,0
1,75,0,45
1,75,64,163
1,75,0,44
1,73,64,1
1,70,64,47
1,73,0,0
1,68,64,23
1,70,0,0
1,68,0,44
1,73,64,94
1,73,0,90
1,77,64,2
1,75,64,46
1,77,0,0
1,75,0,44
1,75,64,3
1,77,64,68
1,75,0,0
1,77,0,115
1,80,64,415
1,80,0,135
1,72,64,0
1,73,64,69
1,72,0,0
1,75,64,69
1,73,0,0
1,75,0,45
1,77,64,1
1,75,64,68
1,77,0,0
1,75,0,69
1,73,64,1
1,72,64,46
1,73,0,0
1,73,64,68
1,72,0,0
1,70,64,69
1,73,0,0
1,70,0,231
1,72,64,553
1,73,64,68
1,72,0,0
1,75,64,69
1,73,0,0
1,77,64,46
1,75,0,0
1,77,0,69
1,75,64,2
1,73,64,67
1,75,0,0
1,72,64,46
1,73,0,0
1,73,64,69
1,72,0,0
1,75,64,69
1,73,0,0
1,75,0,46
1,70,64,1
1,70,0,184
1,72,64,552
1,73,64,68
1,72,0,0
1,75,64,69
1,73,0,0
1,75,0,46
1,77,64,1
1,77,0,68
1,75,64,1
1,73,64,70
1,75,0,0
1,80,64,44
1,73,0,0
1,77,64,69
1,80,0,0
1,77,64,69
1,77,0,0
1,77,0,46
1,70,64,2
1,70,0,183
1,72,64,553
1,72,0,68
1,73,64,1
1,75,64,68
1,73,0,0
1,75,0,46
1,77,64,1
1,75,64,68
1,77,0,0
1,75,0,69
1,80,64,1
1,77,64,137
1,80,0,0
1,77,0,22
1,75,64,1
1,80,64,23
1,75,0,0
1,80,0,46
1,80,64,0
1,80,0,68
1,80,64,1
1,68,64,68
1,80,0,0
1,80,64,47
1,68,0,0
1,80,0,68
1,80,64,1
1,80,0,68
1,75,64,48
1,75,0,11
1,77,64,12
1,77,0,11
1,80,64,58
1,80,0,11
1,82,64,12
1,82,0,11
1,80,64,103
1,80,0,12
1,78,64,11
1,78,0,11
1,80,64,12
1,80,0,12
1,82,64,11
1,82,0,12
1,80,64,11
1,80,0,12
1,82,64,11
1,82,0,12
1,80,64,12
1,80,0,68
1,80,64,2
1,68,64,67
1,80,0,0
1,80,64,47
1,68,0,0
1,80,64,68
1,80,0,0
1,80,0,69
1,80,64,185
1,80,0,11
1,80,64,12
1,80,0,11
1,80,64,104
1,77,64,6
1,80,0,0
1,75,64,6
1,77,0,0
1,72,64,5
1,75,0,0
1,68,64,7
1,72,0,0
1,65,64,4
1,68,0,0
1,61,64,6
1,65,0,0
1,58,64,6
1,61,0,0
1,55,64,6
1,58,0,0
1,51,64,5
1,55,0,0
1,48,64,7
1,51,0,0
1,44,64,5
1,48,0,0
1,43,64,6
1,44,0,0
1,39,64,5
1,43,0,0
1,36,64,6
1,39,0,0
1,34,64,6
1,36,0,0
1,72,64,8
1,34,0,0
1,72,0,33
1,72,64,12
1,72,0,12
1,75,64,11
1,75,0,34
1,72,64,12
1,72,0,34
1,70,64,12
1,70,0,35
1,68,64,11
1,68,0,11
1,68,64,12
1,68,0,34
1,68,64,12
1,68,0,80
1,75,64,58
1,75,0,136
1,77,64,2
1,77,0,34
1,75,64,12
1,75,0,11
1,77,64,12
1,77,0,34
1,75,64,12
1,75,0,68
1,72,64,1
1,72,0,35
1,72,64,12
1,72,0,11
1,75,64,12
1,75,0,34
1,72,64,11
1,72,0,35
1,70,64,11
1,70,0,35
1,68,64,11
1,68,0,35
1,68,64,11
1,68,0,103
1,75,64,59
1,75,0,136
1,77,64,2
1,77,0,35
1,77,64,11
1,77,0,12
1,75,64,12
1,75,0,112
1,60,64,2
1,60,0,34
1,60,64,12
1,60,0,11
1,63,64,12
1,63,0,36
1,63,64,11
1,63,0,34
1,65,64,11
1,65,0,34
1,65,64,12
1,65,0,12
1,63,64,11
1,63,0,34
1,60,64,12
1,60,0,81
1,65,64,57
1,65,0,90
1,65,64,48
1,65,0,35
1,63,64,11
1,63,0,11
1,65,64,12
1,65,0,35
1,68,64,11
1,68,0,67
1,82,64,4
1,80,64,66
1,82,0,0
1,68,64,69
1,80,0,0
1,68,0,36
1,82,64,12
1,80,64,67
1,82,0,0
1,73,64,70
1,80,0,0
1,75,64,139
1,73,0,0
1,77,64,92
1,75,0,0
1,78,64,93
1,77,0,0
1,78,0,90
1,80,64,2
1,78,64,91
1,80,0,0
1,77,64,6
1,78,0,0
1,75,64,6
1,77,0,0
1,73,64,5
1,75,0,0
1,72,64,6
1,73,0,0
1,70,64,6
1,72,0,0
1,68,64,5
1,70,0,0
1,66,64,6
1,68,0,0
1,65,64,6
1,66,0,0
1,63,64,5
1,65,0,0
1,61,64,6
1,63,0,0
1,60,64,6
1,61,0,0
1,58,64,6
1,60,0,0
1,56,64,5
1,58,0,0
1,56,0,110
1,80,64,46
1,80,0,44
1,80,64,4
1,80,0,27
1,78,64,2
1,78,0,29
1,78,64,1
1,78,0,29
1,77,64,2
1,77,0,44
1,77,64,2
1,77,0,44
1,77,64,2
1,77,0,90
1,75,64,280
1,77,64,90
1,75,0,0
1,77,0,44
1,73,64,2
1,73,0,44
1,73,64,4
1,75,64,91
1,73,0,0
1,75,0,44
1,75,64,163
1,75,0,44
1,73,64,1
1,70,64,47
1,73,0,0
1,68,64,23
1,70,0,0
1,68,0,44
1,73,64,94
1,77,64,91
1,73,0,0
1,77,0,91
1,75,64,3
1,77,64,68
1,75,0,0
1,77,0,68
1,73,64,185
1,73,0,12
1,75,64,11
1,75,0,114
1,75,64,94
1,75,0,90
1,77,64,2
1,73,64,46
1,77,0,0
1,73,0,44
1,73,64,3
1,75,64,91
1,73,0,0
1,75,0,44
1,75,64,163
1,75,0,45
1,73,64,1
1,70,64,46
1,73,0,0
1,68,64,23
1,70,0,0
1,68,0,44
1,73,64,95
1,73,0,90
1,77,64,2
1,75,64,46
1,77,0,0
1,75,0,44
1,75,64,3
1,77,64,68
1,75,0,0
1,77,0,114
1,78,64,553
1,78,0,34
1,77,64,12
1,77,0,12
1,75,64,11
1,75,0,34
1,75,64,12
1,75,0,35
1,75,64,11
1,75,0,103
1,75,64,57
1,75,0,35
1,78,64,13
1,78,0,34
1,75,64,11
1,75,0,12
1,75,64,12
1,75,0,34
1,75,64,11
1,75,0,35
1,75,64,11
1,75,0,104
1,77,64,11
1,77,0,35
1,77,64,11
1,77,0,35
1,75,64,12
1,72,64,22
1,75,0,0
1,70,64,24
1,72,0,0
1,68,64,23
1,70,0,0
1,68,0,23
1,68,64,276
1,68,0,2
1,73,64,44
1,73,0,1
1,73,64,22
1,73,0,2
1,68,64,21
1,68,0,2
1,73,64,44
1,73,0,2
1,68,64,43
1,68,0,3
1,73,64,44
1,73,0,1
1,73,64,22
1,73,0,1
1,68,64,22
1,68,0,1
1,73,64,45
1,73,0,1
1,78,64,0
1,78,0,34
1,77,64,11
1,77,0,12
1,75,64,12
1,75,0,34
1,75,64,11
1,75,0,35
1,75,64,12
1,75,0,103
1,75,64,57
1,75,0,35
1,78,64,12
1,78,0,34
1,75,64,12
1,75,0,11
1,75,64,12
1,75,0,34
1,75,64,12
1,75,0,35
1,75,64,11
1,75,0,103
1,77,64,12
1,77,0,34
1,77,64,12
1,77,0,34
1,75,64,12
1,72,64,23
1,75,0,0
1,70,64,23
1,72,0,0
1,68,64,23
1,70,0,0
1,68,0,23
1,68,64,276
1,68,0,2
1,73,64,44
1,73,0,2
1,73,64,21
1,73,0,1
1,68,64,22
1,68,0,2
