track,note,velocity,time
0,86,80,219
0,82,22,0
0,66,79,0
0,82,74,1
0,82,70,16
0,82,45,5
0,99,80,1
0,82,87,8
0,82,41,1
0,66,75,1
0,82,29,12
0,86,80,1
0,82,29,5
0,64,77,1
0,82,85,0
0,99,80,1
0,82,31,1
0,82,33,4
0,82,23,5
0,82,81,9
0,82,25,1
0,66,75,1
0,82,29,8
0,66,71,1
0,82,23,5
0,66,75,1
0,82,87,8
0,86,80,1
0,64,79,0
0,78,70,1
0,82,35,0
0,82,31,5
0,82,35,5
0,99,80,1
0,82,87,6
0,82,33,1
0,64,79,1
0,82,31,8
0,86,80,1
0,82,35,5
0,66,77,1
0,82,85,8
0,99,80,1
0,82,29,1
0,82,31,4
0,82,41,5
0,82,81,6
0,82,33,1
0,78,112,1
0,66,75,0
0,82,27,8
0,83,112,1
0,66,67,0
0,82,35,2
0,85,112,1
0,64,79,0
0,75,73,6
0,35,88,0
0,82,87,0
0,59,81,1
0,61,80,0
0,66,92,0
0,86,80,0
0,90,112,0
0,66,79,0
0,82,65,1
0,82,29,0
0,82,45,5
0,99,80,1
0,35,116,2
0,82,87,0
0,82,41,1
0,66,75,1
0,82,29,12
0,86,80,1
0,82,29,5
0,64,77,1
0,82,85,0
0,99,80,1
0,82,31,1
0,82,33,4
0,82,23,0
0,35,116,9
0,82,81,0
0,66,89,1
0,61,85,0
0,63,87,0
0,82,25,1
0,66,75,1
0,82,29,8
0,66,71,1
0,82,23,5
0,61,86,1
0,66,75,0
0,33,86,1
0,82,87,0
0,59,89,1
0,61,80,0
0,64,89,0
0,86,80,0
0,64,79,0
0,73,51,1
0,76,66,0
0,82,35,0
0,82,31,12
0,82,35,5
0,99,80,0
0,35,118,8
0,82,87,0
0,82,33,1
0,64,79,1
0,82,31,8
0,86,80,1
0,82,35,5
0,66,77,1
0,82,85,8
0,99,80,1
0,82,29,1
0,82,31,4
0,82,41,0
0,35,124,9
0,82,81,0
0,82,33,1
0,66,75,1
0,33,100,1
0,82,27,0
0,66,67,1
0,33,90,5
0,82,35,0
0,59,79,1
0,64,79,0
0,75,49,6
0,35,100,2
0,82,87,0
0,59,70,1
0,61,82,0
0,66,81,0
0,86,80,0
0,66,79,0
0,71,55,5
0,82,31,1
0,82,29,9
0,82,45,5
0,99,80,0
0,35,116,8
0,82,87,0
0,82,41,1
0,66,75,1
0,82,29,0
0,63,73,1
0,86,80,0
0,82,29,5
0,64,77,1
0,82,85,0
0,99,80,0
0,82,31,1
0,82,33,4
0,82,23,5
0,61,88,9
0,35,116,0
0,82,81,0
0,63,87,1
0,82,25,1
0,66,75,1
0,82,29,8
0,66,71,1
0,82,23,2
0,57,68,1
0,66,75,0
0,61,88,2
0,73,58,2
0,33,90,2
0,82,87,0
0,57,78,1
0,59,80,0
0,61,75,0
0,64,81,0
0,86,80,0
0,64,79,0
0,76,56,1
0,82,35,0
0,82,31,8
0,63,87,1
0,82,35,2
0,64,84,0
0,99,80,0
0,35,118,8
0,82,87,0
0,71,65,1
0,82,33,0
0,63,83,1
0,64,79,0
0,82,31,8
0,86,80,1
0,82,35,4
0,59,88,1
0,66,77,0
0,82,85,8
0,99,80,1
0,73,60,13
0,82,29,1
0,82,31,4
0,82,41,5
0,35,124,9
0,82,81,0
0,71,64,5
0,82,33,1
0,66,75,1
0,82,27,1
0,66,67,1
0,33,80,5
0,82,35,0
0,59,35,1
0,64,79,0
0,35,86,1
0,42,80,0
0,82,87,0
0,59,78,1
0,61,68,0
0,63,66,0
0,66,70,0
0,86,80,0
0,66,79,0
0,78,59,7
0,75,57,5
0,42,68,1
0,82,31,0
0,42,72,9
0,82,29,0
0,42,70,5
0,82,45,0
0,99,80,0
0,35,116,8
0,42,78,0
0,82,87,0
0,42,66,1
0,82,41,0
0,66,75,1
0,42,80,12
0,82,29,0
0,86,80,1
0,46,100,5
0,82,29,0
0,64,77,1
0,42,82,0
0,82,85,0
0,99,80,1
0,42,72,1
0,82,31,0
0,42,76,4
0,82,33,0
0,42,72,5
0,82,23,0
0,35,116,0
0,42,82,0
0,82,81,0
0,61,83,1
0,42,78,1
0,82,25,0
0,63,83,1
0,66,75,0
0,42,78,5
0,82,29,0
0,66,71,1
0,42,76,1
0,82,23,0
0,57,59,1
0,61,87,0
0,66,75,0
0,73,54,3
0,33,100,0
0,42,86,0
0,82,87,0
0,57,72,1
0,59,78,0
0,61,65,0
0,64,85,0
0,86,80,0
0,64,79,0
0,76,49,5
0,42,76,0
0,82,35,0
0,42,82,12
0,82,31,0
0,42,76,5
0,82,35,0
0,99,80,1
0,35,118,2
0,42,82,0
0,82,87,0
0,42,72,1
0,82,33,0
0,64,79,1
0,42,80,8
0,82,31,0
0,86,80,1
0,46,86,5
0,82,35,0
0,66,77,1
0,42,82,8
0,82,85,0
0,69,81,1
0,99,80,0
0,42,68,1
0,82,29,0
0,42,80,4
0,82,31,0
0,42,68,2
0,82,41,0
0,59,83,1
0,66,112,0
0,78,112,0
0,35,120,2
0,42,78,0
0,82,81,0
0,78,112,1
0,90,112,0
0,42,66,1
0,82,33,0
0,75,112,1
0,87,112,0
0,66,75,0
0,61,80,2
0,33,80,0
0,42,76,0
0,82,27,0
0,73,112,1
0,85,112,0
0,66,67,0
0,33,82,5
0,42,74,0
0,82,35,0
0,69,112,1
0,81,112,0
0,64,79,0
0,35,98,0
0,42,80,0
0,82,87,0
0,59,86,1
0,61,88,0
0,63,78,0
0,66,75,0
0,86,80,0
0,66,112,0
0,78,112,0
0,66,79,0
0,42,68,1
0,82,31,0
0,42,72,9
0,82,29,0
0,42,70,5
0,82,45,0
0,99,80,0
0,35,116,7
0,42,78,0
0,82,87,0
0,42,66,1
0,82,41,0
0,66,75,1
0,42,80,12
0,82,29,0
0,86,80,1
0,46,100,5
0,82,29,0
0,66,112,1
0,78,112,0
0,64,77,0
0,42,82,0
0,82,85,0
0,99,80,1
0,64,112,0
0,76,112,0
0,42,72,1
0,82,31,0
0,66,112,1
0,78,112,0
0,42,76,4
0,82,33,0
0,73,112,1
0,85,112,0
0,42,72,0
0,82,23,0
0,78,112,1
0,90,115,0
0,35,116,8
0,42,82,0
0,82,81,0
0,42,78,1
0,82,25,0
0,66,75,1
0,42,78,5
0,82,29,0
0,66,71,1
0,42,76,5
0,82,23,0
0,57,42,1
0,66,75,0
0,33,98,9
0,42,86,0
0,82,87,0
0,57,71,1
0,59,72,0
0,61,62,0
0,64,78,0
0,86,80,0
0,64,79,0
0,57,78,1
0,42,76,0
0,82,35,0
0,42,82,12
0,82,31,0
0,42,76,5
0,82,35,0
0,99,80,1
0,35,118,8
0,42,82,0
0,82,87,0
0,42,72,1
0,82,33,0
0,64,79,1
0,42,80,6
0,82,31,0
0,86,80,1
0,46,86,2
0,82,35,0
0,66,77,1
0,42,82,2
0,82,85,0
0,99,80,1
0,42,68,1
0,82,29,0
0,42,80,2
0,82,31,0
0,42,68,5
0,82,41,0
0,35,120,9
0,42,78,0
0,82,81,0
0,42,66,1
0,82,33,0
0,66,75,1
0,33,86,8
0,42,76,0
0,82,27,0
0,66,67,1
0,42,74,5
0,82,35,0
0,64,79,1
0,54,76,6
0,35,96,1
0,42,80,0
0,82,87,0
0,59,73,1
0,61,80,0
0,66,70,0
0,86,80,0
0,66,79,0
0,42,68,1
0,82,31,0
0,42,72,9
0,82,29,0
0,42,70,5
0,82,45,0
0,99,80,0
0,35,116,8
0,42,78,0
0,82,87,0
0,42,66,1
0,82,41,0
0,66,75,1
0,63,92,2
0,42,80,0
0,82,29,0
0,86,80,1
0,64,88,6
0,46,100,5
0,82,29,0
0,64,77,1
0,42,82,0
0,82,85,0
0,63,54,1
0,66,88,0
0,99,80,0
0,42,72,1
0,82,31,0
0,42,76,4
0,82,33,0
0,42,72,5
0,82,23,0
0,35,116,9
0,42,82,0
0,82,81,0
0,42,78,1
0,82,25,0
0,66,75,1
0,64,89,2
0,42,78,5
0,82,29,0
0,66,71,1
0,42,76,5
0,82,23,0
0,57,58,1
0,63,93,0
0,66,75,0
0,33,100,0
0,42,86,0
0,82,87,0
0,59,75,1
0,61,58,0
0,64,70,0
0,63,93,0
0,86,80,0
0,64,79,0
0,42,76,0
0,82,35,0
0,42,82,12
0,82,31,0
0,64,88,0
0,42,76,5
0,82,35,0
0,99,80,1
0,35,118,6
0,42,82,0
0,82,87,0
0,42,72,1
0,82,33,0
0,61,74,1
0,64,79,0
0,42,80,8
0,82,31,0
0,86,80,1
0,46,86,5
0,82,35,0
0,66,77,1
0,42,82,8
0,82,85,0
0,99,80,1
0,42,68,1
0,82,29,0
0,42,80,4
0,82,31,0
0,42,68,5
0,43,114,0
0,82,41,0
0,35,120,5
0,42,78,0
0,82,81,0
0,42,66,1
0,82,33,0
0,66,75,1
0,35,96,8
0,42,76,0
0,82,27,0
0,66,67,1
0,42,74,5
0,82,35,0
0,64,79,1
0,37,96,0
0,42,80,0
0,82,87,0
0,59,81,1
0,64,82,0
0,68,80,0
0,86,80,0
0,66,79,0
0,42,68,1
0,82,31,0
0,42,72,9
0,82,29,0
0,42,70,5
0,82,45,0
0,99,80,1
0,35,116,8
0,42,78,0
0,82,87,0
0,42,66,1
0,82,41,0
0,66,75,1
0,42,80,12
0,82,29,0
0,64,89,1
0,86,80,0
0,46,100,5
0,82,29,0
0,64,84,1
0,64,77,0
0,42,82,0
0,82,85,0
0,68,100,1
0,99,80,0
0,42,72,1
0,82,31,0
0,42,76,0
0,82,33,0
0,42,72,5
0,82,23,0
0,68,93,1
0,35,116,9
0,42,82,0
0,82,81,0
0,42,78,1
0,82,25,0
0,66,75,1
0,68,92,1
0,42,78,5
0,82,29,0
0,66,71,1
0,42,76,0
0,82,23,0
0,66,75,1
0,35,88,8
0,42,86,0
0,82,87,0
0,59,70,1
0,61,67,0
0,63,67,0
0,66,66,0
0,68,89,0
0,86,80,0
0,64,79,0
0,42,76,0
0,82,35,0
0,42,82,12
0,82,31,0
0,42,76,5
0,82,35,0
0,66,83,1
0,99,80,0
0,35,118,8
0,42,82,0
0,82,87,0
0,42,72,1
0,82,33,0
0,64,79,0
0,42,80,8
0,82,31,0
0,63,81,0
0,86,80,0
0,46,86,5
0,82,35,0
0,66,77,1
0,42,82,8
0,82,85,0
0,99,80,0
0,42,68,1
0,82,29,0
0,42,80,4
0,82,31,0
0,42,90,1
0,42,68,0
0,43,114,0
0,82,41,0
0,35,120,5
0,42,78,0
0,82,81,0
0,42,88,1
0,42,66,0
0,82,33,0
0,66,75,1
0,44,88,8
0,42,76,0
0,82,27,0
0,59,80,1
0,66,67,0
0,42,74,5
0,82,35,0
0,64,79,1
0,35,90,8
0,42,80,0
0,82,87,0
0,61,62,1
0,63,65,0
0,66,68,0
0,86,80,0
0,66,79,0
0,42,68,1
0,82,31,0
0,42,72,9
0,82,29,0
0,42,70,5
0,82,45,0
0,99,80,0
0,35,116,8
0,42,78,0
0,82,87,0
0,42,66,1
0,82,41,0
0,66,75,1
0,59,95,2
0,42,80,0
0,82,29,0
0,86,80,1
0,59,95,6
0,46,100,5
0,82,29,0
0,64,77,1
0,42,82,0
0,82,85,0
0,59,97,1
0,99,80,0
0,42,72,1
0,82,31,0
0,42,76,4
0,82,33,0
0,42,72,0
0,82,23,0
0,35,116,9
0,42,82,0
0,82,81,0
0,42,78,1
0,82,25,0
0,66,75,1
0,42,78,5
0,82,29,0
0,59,96,1
0,66,71,0
0,42,76,5
0,82,23,0
0,66,75,1
0,33,94,1
0,42,86,0
0,82,87,0
0,57,68,1
0,59,63,0
0,61,57,0
0,64,70,0
0,57,76,0
0,59,93,0
0,86,80,0
0,64,79,0
0,42,76,0
0,82,35,0
0,61,92,1
0,42,82,12
0,82,31,0
0,42,76,5
0,82,35,0
0,59,88,0
0,99,80,0
0,35,118,8
0,42,82,0
0,82,87,0
0,42,72,1
0,82,33,0
0,64,79,1
0,57,87,2
0,42,80,8
0,82,31,0
0,86,80,1
0,46,86,0
0,82,35,0
0,66,77,1
0,42,82,8
0,82,85,0
0,57,85,1
0,99,80,0
0,42,68,1
0,82,29,0
0,42,80,0
0,82,31,0
0,42,68,5
0,43,114,0
0,82,41,0
0,35,120,5
0,42,78,0
0,82,81,0
0,42,66,1
0,82,33,0
0,66,75,1
0,35,92,5
0,42,76,0
0,82,27,0
0,59,56,1
0,66,67,0
0,42,74,4
0,82,35,0
0,64,79,1
0,37,80,5
0,42,80,0
0,82,87,0
0,59,83,1
0,64,88,0
0,68,78,0
0,86,80,0
0,66,79,0
0,42,68,1
0,82,31,0
0,42,72,5
0,82,29,0
0,42,70,5
0,82,45,0
0,71,83,1
0,99,80,0
0,35,116,5
0,42,78,0
0,82,87,0
0,75,74,6
0,78,73,0
0,42,66,1
0,82,41,0
0,66,75,1
0,42,80,5
0,82,29,0
0,64,88,1
0,86,80,0
0,46,100,5
0,82,29,0
0,64,77,1
0,42,82,0
0,82,85,0
0,64,96,0
0,99,80,0
0,42,72,1
0,82,31,0
0,42,76,4
0,82,33,0
0,63,88,1
0,42,72,0
0,82,23,0
0,64,90,1
0,35,116,4
0,42,82,0
0,82,81,0
0,42,78,1
0,82,25,0
0,63,89,1
0,66,75,0
0,42,78,5
0,82,29,0
0,66,71,1
0,42,76,5
0,82,23,0
0,59,44,1
0,64,90,0
0,66,75,0
0,35,92,8
0,42,86,0
0,82,87,0
0,59,78,1
0,61,68,0
0,63,71,0
0,66,72,0
0,86,80,0
0,64,79,0
0,42,76,0
0,82,35,0
0,63,86,1
0,42,82,12
0,82,31,0
0,42,76,5
0,82,35,0
0,99,80,1
0,35,118,8
0,42,82,0
0,82,87,0
0,59,85,1
0,42,72,1
0,82,33,0
0,64,79,1
0,42,80,6
0,82,31,0
0,86,80,1
0,46,86,2
0,82,35,0
0,66,77,1
0,42,82,2
0,82,85,0
0,99,80,1
0,42,68,1
0,82,29,0
0,42,80,4
0,82,31,0
0,73,85,1
0,78,92,0
0,42,90,4
0,42,68,0
0,43,114,0
0,82,41,0
0,35,120,5
0,42,78,0
0,82,81,0
0,42,88,1
0,42,66,0
0,82,33,0
0,71,85,1
0,66,75,0
0,44,80,2
0,42,76,0
0,82,27,0
0,66,67,1
0,42,74,5
0,82,35,0
0,64,79,1
0,35,92,0
0,42,80,0
0,82,87,0
0,59,82,1
0,61,77,0
0,63,76,0
0,66,73,0
0,86,80,0
0,66,79,0
0,42,68,1
0,82,31,0
0,42,72,9
0,82,29,0
0,42,70,5
0,82,45,0
0,99,80,0
0,35,116,2
0,42,78,0
0,82,87,0
0,63,94,1
0,42,66,1
0,82,41,0
0,64,88,1
0,66,75,0
0,42,80,12
0,82,29,0
0,66,89,1
0,86,80,0
0,46,100,5
0,82,29,0
0,68,86,1
0,64,77,0
0,42,82,0
0,82,85,0
0,66,87,1
0,99,80,0
0,42,72,1
0,82,31,0
0,42,76,4
0,82,33,0
0,42,72,0
0,82,23,0
0,35,116,9
0,42,82,0
0,82,81,0
0,42,78,1
0,82,25,0
0,66,75,1
0,42,78,5
0,82,29,0
0,64,90,1
0,66,71,0
0,42,76,4
0,82,23,0
0,63,91,1
0,66,75,0
0,33,106,4
0,42,86,0
0,82,87,0
0,57,76,1
0,59,80,0
0,61,68,0
0,64,82,0
0,64,91,0
0,86,80,0
0,64,79,0
0,42,76,0
0,82,35,0
0,42,82,4
0,82,31,0
0,63,84,0
0,42,76,5
0,82,35,0
0,99,80,1
0,35,118,6
0,42,82,0
0,82,87,0
0,73,49,0
0,42,72,1
0,82,33,0
0,61,75,1
0,64,79,0
0,42,80,2
0,82,31,0
0,86,80,1
0,76,56,1
0,46,86,5
0,82,35,0
0,66,77,1
0,42,82,8
0,82,85,0
0,99,80,1
0,42,68,1
0,82,29,0
0,42,80,4
0,82,31,0
0,42,68,5
0,43,114,0
0,82,41,0
0,35,120,5
0,42,78,0
0,82,81,0
0,42,66,1
0,82,33,0
0,66,75,1
0,35,98,1
0,42,76,0
