track,note,velocity,time
0,56,111,77
0,60,110,0
0,63,111,0
0,87,77,1
0,87,104,0
0,87,65,7
0,42,71,1
0,56,111,0
0,60,114,0
0,63,112,0
0,80,88,0
0,80,59,1
0,79,72,0
0,79,59,7
0,55,112,1
0,58,113,0
0,63,114,0
0,87,95,0
0,87,62,7
0,42,71,1
0,55,111,0
0,58,112,0
0,63,112,0
0,80,88,0
0,80,58,1
0,77,72,0
0,77,53,7
0,53,111,1
0,56,112,0
0,60,113,0
0,87,95,0
0,87,61,7
0,42,71,1
0,53,112,0
0,56,113,0
0,60,115,0
0,80,88,0
0,80,58,1
0,75,72,0
0,75,65,7
0,51,114,1
0,56,110,0
0,60,114,0
0,87,87,0
0,87,62,7
0,42,71,1
0,51,114,0
0,55,116,0
0,60,116,0
0,82,65,0
0,82,59,1
0,75,75,0
0,75,49,7
0,56,109,1
0,61,111,0
0,65,111,0
0,92,80,0
0,85,80,0
0,73,65,0
0,77,64,0
0,80,65,0
0,85,40,7
0,80,40,0
0,42,71,1
0,56,109,0
0,61,114,0
0,65,114,0
0,58,114,1
0,61,114,0
0,65,115,0
0,42,71,1
0,58,111,0
0,61,119,0
0,65,127,0
0,58,120,0
0,63,115,0
0,63,124,36
0,68,124,0
0,70,122,0
0,56,111,0
0,60,109,0
0,63,114,0
0,87,63,1
0,60,104,0
0,63,104,0
0,63,124,1
0,68,125,0
0,70,124,0
0,42,71,1
0,56,111,0
0,60,114,0
0,63,115,0
0,63,123,1
0,68,124,0
0,70,123,0
0,56,109,0
0,60,114,0
0,63,115,0
0,63,122,1
0,68,123,0
0,70,122,0
0,42,71,1
0,56,111,0
0,60,115,0
0,63,122,0
0,63,121,1
0,68,121,0
0,70,121,0
0,56,111,1
0,60,110,0
0,63,111,0
0,44,76,0
0,42,71,1
0,56,111,0
0,60,114,0
0,63,112,0
0,72,94,0
0,44,79,1
0,75,91,0
0,55,112,1
0,58,113,0
0,63,114,0
0,43,84,0
0,42,71,0
0,55,111,0
0,58,112,0
0,63,112,0
0,75,95,0
0,43,84,1
0,72,97,1
0,53,111,0
0,56,112,0
0,60,113,0
0,41,84,0
0,42,71,1
0,53,112,0
0,56,113,0
0,60,115,0
0,41,61,1
0,51,114,0
0,56,110,0
0,60,114,0
0,39,84,0
0,71,63,88
0,72,99,0
0,42,71,0
0,51,114,0
0,55,116,0
0,60,116,0
0,39,81,0
0,70,92,1
0,68,92,2
0,70,92,6
0,68,94,4
0,56,109,0
0,61,111,0
0,65,111,0
0,49,81,0
0,70,82,5
0,42,71,1
0,56,109,0
0,61,114,0
0,65,114,0
0,49,84,1
0,58,114,0
0,61,114,0
0,65,115,0
0,51,84,0
0,42,71,1
0,58,111,0
0,61,119,0
0,65,127,0
0,68,77,3
0,68,82,2
0,70,84,4
0,56,111,1
0,60,109,0
0,63,114,0
0,44,84,0
0,70,84,2
0,70,82,1
0,72,82,3
0,42,71,1
0,56,111,0
0,60,114,0
0,63,115,0
0,56,109,1
0,60,114,0
0,63,115,0
0,42,71,1
0,56,111,1
0,60,115,0
0,63,122,0
0,56,111,1
0,44,76,0
0,60,110,0
0,63,111,0
0,42,71,1
0,56,111,0
0,60,114,0
0,63,112,0
0,72,94,1
0,44,79,1
0,75,91,1
0,55,112,1
0,43,84,0
0,58,113,0
0,63,114,0
0,42,71,0
0,55,111,0
0,58,112,0
0,63,112,0
0,75,95,0
0,43,84,1
0,72,85,1
0,53,111,0
0,41,84,0
0,56,112,0
0,60,113,0
0,42,71,1
0,53,112,0
0,56,113,0
0,60,115,0
0,41,83,1
0,51,114,0
0,56,110,0
0,39,84,0
0,60,114,0
0,73,95,0
0,42,71,0
0,39,81,0
0,51,114,0
0,55,116,0
0,60,116,0
0,73,93,1
0,72,93,5
0,70,87,3
0,56,109,0
0,49,81,0
0,61,111,0
0,65,111,0
0,68,92,1
0,70,83,5
0,42,71,0
0,56,109,0
0,61,114,0
0,65,114,0
0,49,84,1
0,58,114,1
0,51,84,0
0,61,114,0
0,65,115,0
0,42,71,1
0,58,111,0
0,61,119,0
0,65,127,0
0,65,80,5
0,68,80,3
0,68,80,5
0,56,111,0
0,44,84,0
0,60,109,0
0,63,114,0
0,42,71,1
0,56,111,0
0,60,114,0
0,63,115,0
0,56,109,1
0,60,114,0
0,63,115,0
0,42,71,0
0,36,65,0
0,56,111,0
0,60,115,0
0,63,122,0
0,39,120,0
0,27,86,1
0,36,75,1
0,44,105,0
0,56,111,0
0,60,110,0
0,63,111,0
0,32,86,0
0,42,71,1
0,56,111,0
0,60,114,0
0,63,112,0
0,71,93,17
0,72,77,0
0,36,55,0
0,44,103,0
0,32,84,1
0,75,99,5
0,72,95,2
0,36,75,0
0,43,105,0
0,55,112,0
0,58,113,0
0,63,114,0
0,31,86,0
0,75,95,4
0,42,71,1
0,55,111,0
0,58,112,0
0,63,112,0
0,72,93,25
0,36,55,0
0,43,103,0
0,31,84,1
0,75,97,3
0,72,93,3
0,36,75,0
0,41,105,0
0,53,111,0
0,56,112,0
0,60,113,0
0,29,86,0
0,75,90,1
0,72,95,1
0,70,97,1
0,42,71,1
0,53,112,0
0,56,113,0
0,60,115,0
0,68,95,2
0,70,93,5
0,72,83,2
0,36,55,1
0,36,75,0
0,51,103,0
0,51,114,0
0,56,110,0
0,60,114,0
0,39,84,0
0,42,71,0
0,51,114,0
0,48,105,0
0,55,116,0
0,60,116,0
0,36,86,0
0,36,55,41
0,65,104,0
0,70,104,0
0,73,115,0
0,36,75,0
0,46,105,0
0,53,117,0
0,56,114,0
0,58,114,0
0,61,114,0
0,34,86,0
0,71,100,2
0,73,93,1
0,73,99,4
0,42,71,1
0,53,117,0
0,56,117,0
0,58,117,0
0,61,117,0
0,36,55,0
0,75,95,1
0,73,100,2
0,36,75,1
0,53,117,0
0,56,117,0
0,58,117,0
0,61,117,0
0,70,77,2
0,70,56,5
0,73,56,0
0,80,56,1
0,63,104,0
0,68,104,0
0,72,115,0
0,82,56,0
0,42,71,0
0,44,105,0
0,51,109,0
0,56,117,0
0,60,122,0
0,32,86,0
0,89,32,0
0,92,32,0
0,94,48,0
0,97,56,0
0,101,56,0
0,70,97,0
0,104,56,0
0,106,56,0
0,72,99,0
0,61,108,0
0,66,108,0
0,70,108,0
0,97,56,0
0,30,86,0
0,104,56,0
0,36,75,0
0,42,105,0
0,54,115,0
0,58,120,0
0,71,103,1
0,61,120,0
0,106,52,0
0,109,48,0
0,97,44,0
0,70,93,1
0,104,48,0
0,106,36,0
0,109,32,0
0,73,91,0
0,97,28,0
0,42,71,1
0,54,119,0
0,58,126,0
0,61,126,0
0,104,24,0
0,106,20,0
0,109,16,0
0,75,91,0
0,97,12,0
0,73,87,1
0,36,55,0
0,36,75,0
0,54,120,0
0,58,125,0
0,61,125,0
0,79,48,1
0,70,93,0
0,80,48,0
0,82,48,0
0,85,48,0
0,87,48,0
0,90,32,0
0,92,48,0
0,94,56,1
0,42,71,0
0,36,65,0
0,39,105,0
0,51,120,0
0,55,120,0
0,58,127,0
0,61,125,0
0,27,86,0
0,106,56,0
0,109,54,0
0,111,52,0
0,99,52,0
0,106,52,0
0,109,50,0
0,111,48,1
0,99,32,0
0,36,75,0
0,44,105,0
0,56,111,0
0,60,110,0
0,63,111,0
0,32,86,0
0,106,46,0
0,109,44,0
0,111,42,0
0,99,32,0
0,106,40,0
0,109,38,0
0,111,36,0
0,99,32,0
0,42,71,1
0,56,111,0
0,60,114,0
0,63,112,0
0,106,34,0
0,109,32,0
0,71,77,6
0,111,30,0
0,72,93,0
0,99,32,0
0,36,55,0
0,44,105,0
0,32,86,0
0,75,103,3
0,72,97,4
0,75,94,2
0,36,75,0
0,43,105,0
0,55,112,0
0,58,113,0
0,63,114,0
0,31,86,0
0,42,71,0
0,55,111,1
0,58,112,0
0,63,112,0
0,36,55,0
0,43,105,0
0,31,86,1
0,72,95,5
0,75,103,2
0,36,75,0
0,41,105,0
0,53,111,0
0,56,112,0
0,60,113,0
0,29,86,0
0,75,92,0
0,72,95,1
0,70,97,5
0,42,71,1
0,53,112,0
0,56,113,0
0,60,115,0
0,68,95,2
0,70,93,5
0,72,83,4
0,36,55,3
0,36,75,0
0,51,105,0
0,51,114,0
0,56,110,0
0,60,114,0
0,39,86,0
0,42,71,0
0,51,114,0
0,48,105,0
0,55,116,0
0,60,116,0
0,36,86,0
0,69,70,39
0,70,93,0
0,72,94,2
0,65,104,0
0,70,104,0
0,73,115,0
0,36,75,0
0,46,105,0
0,53,117,0
0,56,114,0
0,58,114,0
0,34,86,0
0,61,114,0
0,71,103,0
0,72,93,1
0,73,91,6
0,65,104,4
0,70,104,0
0,73,104,0
0,42,71,1
0,53,117,0
0,56,117,0
0,58,117,0
0,61,117,0
0,75,91,1
0,73,87,2
0,36,55,0
0,65,98,5
0,70,98,0
0,73,98,0
0,36,75,0
0,53,117,0
0,56,117,0
0,58,117,0
0,61,117,0
0,70,93,1
0,106,47,0
0,104,47,0
0,101,47,0
0,97,47,0
0,94,39,0
0,89,39,0
0,94,39,0
0,63,100,0
0,68,100,0
0,72,104,0
0,97,43,0
0,42,71,0
0,36,65,0
0,44,105,0
0,51,109,0
0,56,117,0
0,60,122,0
0,32,86,0
0,101,45,0
0,104,45,0
0,106,47,0
0,109,47,1
0,106,51,0
0,104,51,0
0,101,51,0
0,70,93,2
0,61,104,0
0,66,108,0
0,70,108,0
0,97,51,0
0,36,75,0
0,42,106,0
0,54,117,0
0,58,117,0
0,61,117,0
0,30,87,0
0,109,51,0
0,71,94,2
0,106,49,0
0,104,47,0
0,101,45,0
0,109,43,0
0,70,84,1
0,106,41,0
0,104,39,0
0,73,95,3
0,61,100,0
0,66,100,0
0,70,100,0
0,101,37,0
0,42,71,1
0,54,117,0
0,58,118,0
0,61,119,0
0,109,35,0
0,106,33,0
0,104,31,0
0,70,93,2
0,101,29,0
0,109,27,0
0,72,77,0
0,106,25,0
0,73,89,0
0,104,23,0
0,61,95,0
0,66,95,0
0,70,95,0
0,101,21,0
0,54,117,1
0,58,117,0
0,61,119,0
0,109,19,0
0,90,40,0
0,106,17,0
0,92,40,0
0,104,15,0
0,94,44,0
0,97,46,0
0,99,48,0
0,102,48,0
0,104,56,0
0,106,56,0
0,42,71,1
0,54,117,0
0,58,118,0
0,61,120,0
0,104,56,0
0,102,56,0
0,99,56,0
0,97,56,0
0,94,56,0
0,92,56,0
0,94,56,0
0,97,56,1
0,99,56,0
0,102,56,0
0,104,56,0
0,109,56,0
0,45,72,1
0,48,59,0
0,54,115,0
0,58,120,0
0,61,120,0
0,54,88,0
0,58,88,0
0,61,88,0
0,106,64,0
0,104,64,0
0,102,64,0
0,41,72,7
0,47,59,0
0,99,64,0
0,97,60,0
0,94,60,0
0,106,60,0
0,104,60,0
0,102,60,0
0,99,56,0
0,97,56,0
0,94,54,0
0,42,71,1
0,54,119,0
0,58,126,0
0,61,126,0
0,106,54,0
0,104,52,0
0,102,52,0
0,99,52,0
0,97,50,0
0,94,50,0
0,45,72,7
0,48,58,0
0,106,52,0
0,104,48,0
0,102,48,0
0,41,72,7
0,47,58,0
0,99,46,0
0,97,44,0
0,94,42,0
0,54,120,1
0,58,125,0
0,61,125,0
0,106,40,0
0,104,36,0
0,102,34,0
0,99,32,0
0,42,71,0
0,47,72,0
0,51,120,0
0,39,105,0
0,55,120,0
0,58,127,0
0,61,125,0
0,27,86,0
0,55,79,0
0,58,79,0
0,63,79,0
0,50,62,0
0,47,72,8
0,50,58,0
0,45,72,7
0,48,60,0
0,45,72,9
0,48,59,0
0,43,72,8
0,47,62,0
0,41,72,9
0,48,62,0
0,36,75,0
0,57,72,0
0,56,111,0
0,60,110,0
0,63,111,0
0,32,91,0
0,56,61,0
0,60,63,0
0,68,87,0
0,72,87,0
0,42,55,35
0,63,76,1
0,42,71,1
0,38,94,0
0,56,111,0
0,60,114,0
0,63,112,0
0,72,94,1
0,68,87,0
0,72,87,0
0,36,55,0
0,42,55,0
0,75,91,1
0,44,78,0
0,63,77,0
0,36,75,0
0,42,71,0
0,55,112,0
0,58,113,0
0,63,114,0
0,43,89,1
0,55,61,0
0,67,88,0
0,70,87,0
0,42,55,10
0,63,75,1
0,42,71,0
0,38,94,0
0,55,111,0
0,58,112,0
0,63,112,0
0,67,87,0
0,70,85,0
0,75,95,0
0,36,55,4
0,42,55,0
0,43,74,1
0,63,75,0
0,72,97,1
0,36,75,1
0,42,71,0
0,53,111,0
0,56,112,0
0,60,113,0
0,41,87,1
0,53,61,0
0,65,87,0
0,68,86,0
0,42,55,0
0,60,77,1
0,38,94,1
0,42,71,0
0,53,112,0
0,56,113,0
0,60,115,0
0,65,87,1
0,68,87,0
0,36,55,12
0,42,55,0
0,41,88,1
0,60,77,0
0,36,75,1
0,42,71,0
0,51,114,0
0,56,110,0
0,60,114,0
0,39,91,1
0,51,61,0
0,63,87,0
0,68,87,0
0,42,55,40
0,60,77,1
0,71,63,0
0,72,99,0
0,38,94,0
0,42,71,0
0,51,114,0
0,55,116,0
0,60,116,0
0,36,89,1
0,63,86,0
0,68,85,0
0,70,92,1
0,68,92,3
0,42,55,0
0,60,79,1
0,70,92,6
0,68,94,2
0,36,75,0
0,42,71,0
0,56,109,0
0,61,111,0
0,65,111,0
0,49,61,1
0,37,88,0
0,61,87,0
0,65,87,0
0,42,55,5
0,56,78,1
0,70,91,0
0,38,94,0
0,42,71,0
0,56,109,0
0,61,114,0
0,65,114,0
0,61,85,1
0,65,87,0
0,36,55,10
0,42,55,0
0,37,89,1
0,56,77,0
0,36,75,1
0,42,71,0
0,58,114,0
0,61,114,0
0,65,115,0
0,39,89,1
0,51,61,0
0,61,87,0
0,65,87,0
0,42,55,40
0,56,77,1
0,38,94,1
0,42,71,0
0,58,111,0
0,61,119,0
0,65,127,0
0,27,92,1
0,61,87,0
0,65,88,0
0,68,77,5
0,42,55,4
0,56,76,1
0,68,82,3
0,70,84,1
0,36,75,1
0,42,71,0
0,56,111,0
0,60,109,0
0,63,114,0
0,56,61,1
0,32,89,0
0,63,87,0
0,68,87,0
0,70,84,4
0,70,82,1
0,42,55,12
0,56,77,1
0,72,82,1
0,68,118,4
0,38,94,1
0,42,71,0
0,56,111,0
0,60,114,0
0,63,115,0
0,63,87,1
0,68,88,0
0,36,55,8
0,42,55,0
0,32,87,1
0,56,76,0
0,67,113,1
0,36,75,1
0,42,71,0
0,55,109,0
0,58,109,0
0,63,109,0
0,32,85,1
0,55,61,0
0,63,87,0
0,67,87,0
0,42,55,8
0,32,85,1
0,58,76,0
0,63,108,1
0,36,65,0
0,42,71,0
0,38,94,0
0,55,109,0
0,58,109,0
0,63,109,0
0,27,84,1
0,51,61,0
0,63,87,0
0,67,87,0
0,42,55,6
0,27,86,1
0,58,77,0
0,60,103,1
0,36,75,0
0,42,71,0
0,56,111,0
0,60,110,0
0,63,111,0
0,56,61,1
0,32,89,0
0,68,87,0
0,72,87,0
0,42,55,34
0,63,77,1
0,38,94,1
0,42,71,0
0,56,111,0
0,60,114,0
0,63,112,0
0,72,94,1
0,68,87,0
0,72,87,0
0,42,55,6
0,36,55,0
0,75,91,1
0,44,78,0
0,63,76,0
0,36,75,1
0,42,71,0
0,55,112,0
0,58,113,0
0,63,114,0
0,43,78,1
0,55,61,0
0,67,88,0
0,70,86,0
0,63,77,16
0,42,55,0
0,38,94,0
0,42,71,0
0,55,111,0
0,58,112,0
0,63,112,0
0,67,88,0
0,70,87,0
0,75,95,0
0,42,55,4
0,43,78,1
0,63,76,0
0,72,85,1
0,36,75,1
0,42,71,0
0,53,111,0
0,56,112,0
0,60,113,0
0,53,61,1
0,41,87,0
0,65,87,0
0,68,84,0
0,42,55,21
0,60,75,1
0,38,94,1
0,42,71,0
0,53,112,0
0,56,113,0
0,60,115,0
0,65,87,1
0,68,86,0
0,36,55,11
0,42,55,0
0,41,89,1
0,60,77,1
0,36,75,1
0,42,71,0
