track,note,velocity,time
1,44,99,712
1,44,0,798
1,44,92,42
1,44,0,58
1,44,89,62
1,44,0,940
1,44,87,20
1,44,0,322
1,44,91,38
1,44,0,114
1,43,87,6
1,43,0,322
1,43,91,38
1,43,0,114
1,41,81,6
1,41,0,480
1,39,87,0
1,39,0,322
1,39,91,38
1,39,0,114
1,37,87,6
1,37,0,322
1,37,91,38
1,37,0,114
1,39,81,6
1,39,0,480
1,44,91,0
1,44,0,804
1,44,87,36
1,44,0,86
1,44,81,34
1,44,0,480
1,43,81,0
1,43,0,480
1,41,81,0
1,41,0,480
1,39,87,0
1,39,0,322
1,39,91,38
1,39,0,114
1,37,87,6
1,37,0,322
1,37,91,38
1,37,0,114
1,39,81,6
1,39,0,480
1,44,84,0
1,44,0,754
1,44,94,86
1,44,0,118
1,44,87,2
1,44,0,322
1,44,91,38
1,44,0,114
1,44,81,6
1,44,0,480
1,37,87,0
1,37,0,322
1,37,91,38
1,37,0,114
1,39,87,6
1,39,0,322
1,39,91,38
1,39,0,114
1,44,81,6
1,44,0,480
1,44,87,0
1,44,0,322
1,44,91,38
1,44,0,114
1,37,87,6
1,37,0,322
1,37,91,38
1,37,0,114
1,39,81,6
1,39,0,480
1,44,81,0
1,44,0,480
1,44,87,0
1,44,0,322
1,44,91,38
1,44,0,114
1,37,87,6
1,37,0,322
1,37,91,38
1,37,0,114
1,39,81,6
1,39,0,480
1,44,81,0
1,44,0,480
1,44,87,0
1,44,0,322
1,44,91,38
1,44,0,114
1,37,81,6
1,37,0,480
1,39,81,0
1,39,0,480
1,44,94,0
1,44,0,798
1,44,87,42
1,44,0,58
1,44,84,62
1,44,0,940
1,44,87,20
1,44,0,322
1,44,91,38
1,44,0,114
1,43,81,6
1,43,0,480
1,41,87,0
1,41,0,322
1,41,91,38
1,41,0,114
1,39,81,6
1,39,0,480
1,37,87,0
1,37,0,322
1,37,91,38
1,37,0,114
1,39,87,6
1,39,0,322
1,39,91,38
1,39,0,114
1,44,91,6
1,44,0,804
1,44,87,36
1,44,0,86
1,44,81,34
1,44,0,480
1,43,87,0
1,43,0,322
1,43,91,38
1,43,0,114
1,41,84,6
1,41,0,754
1,41,94,86
1,41,0,118
1,37,87,2
1,37,0,322
1,37,91,38
1,37,0,114
1,39,81,6
1,39,0,480
1,44,91,0
1,44,0,804
1,44,87,36
1,44,0,86
1,44,81,34
1,44,0,480
1,44,81,0
1,44,0,480
1,37,87,0
1,37,0,322
1,37,91,38
1,37,0,114
1,39,81,6
1,39,0,480
1,44,87,0
1,44,0,322
1,44,91,38
1,44,0,114
1,44,81,6
1,44,0,480
1,37,87,0
1,37,0,322
1,37,91,38
1,37,0,114
1,39,87,6
1,39,0,322
1,39,91,38
1,39,0,114
1,44,87,6
1,44,0,322
1,44,91,38
1,44,0,114
1,44,87,6
1,44,0,322
1,44,91,38
1,44,0,114
1,37,87,6
1,37,0,322
1,37,91,38
1,37,0,114
1,39,87,6
1,39,0,322
1,39,91,38
1,39,0,114
1,44,87,6
1,44,0,322
1,44,91,38
1,44,0,114
1,44,87,6
1,44,0,322
1,44,91,38
1,44,0,114
1,37,81,6
1,37,0,480
1,39,87,0
1,39,0,322
1,39,91,38
1,39,0,114
1,44,91,6
1,44,0,810
1,44,81,30
1,44,0,54
1,44,84,66
1,44,0,810
1,44,62,30
1,44,0,84
1,37,81,36
1,37,0,480
1,39,87,0
1,39,0,322
1,39,91,38
1,39,0,114
1,44,94,6
1,51,60,600
1,44,0,4
1,56,94,116
1,51,0,2
1,51,65,118
1,56,0,28
1,51,0,72
1,37,81,20
1,37,0,480
1,39,87,0
1,39,0,322
1,39,91,38
1,39,0,114
1,44,91,6
1,44,0,804
1,44,87,36
1,44,0,86
1,37,87,34
1,37,0,322
1,37,91,38
1,37,0,114
1,39,87,6
1,39,0,322
1,39,91,38
1,39,0,114
1,44,81,6
1,44,0,240
1,43,81,0
1,43,0,240
1,42,81,0
1,42,0,480
1,41,81,0
1,41,0,480
1,34,81,0
1,34,0,240
1,36,81,0
1,36,0,240
1,37,84,0
1,37,0,754
1,37,94,86
1,37,0,118
1,39,84,2
1,39,0,754
1,39,94,86
1,39,0,118
1,44,94,2
1,51,60,600
1,44,0,4
1,56,94,116
1,51,0,2
1,51,65,118
1,56,0,28
1,51,0,72
1,44,84,20
1,44,0,754
1,44,94,86
1,44,0,118
1,37,91,2
1,37,0,804
1,37,87,36
1,37,0,86
1,37,91,34
1,37,0,804
1,37,87,36
1,37,0,86
1,44,87,34
1,44,0,322
1,44,91,38
1,44,0,114
1,44,87,6
1,44,0,322
1,44,91,38
1,44,0,114
1,37,87,6
1,37,0,322
1,37,91,38
1,37,0,114
1,39,81,6
1,39,0,480
1,44,87,0
1,44,0,322
1,44,91,38
1,44,0,114
1,44,87,6
1,44,0,322
1,44,91,38
1,44,0,114
1,37,81,6
1,37,0,480
1,39,87,0
1,39,0,322
1,39,91,38
1,39,0,114
1,44,87,6
1,44,0,322
1,44,91,38
1,44,0,114
1,44,81,6
1,44,0,480
1,37,87,0
1,37,0,322
1,37,91,38
1,37,0,114
1,39,87,6
1,39,0,322
1,39,91,38
1,39,0,114
1,44,81,6
1,44,0,480
1,44,81,0
1,44,0,480
1,37,87,0
1,37,0,322
1,37,91,38
1,37,0,114
1,39,87,6
1,39,0,322
1,39,91,38
1,39,0,114
1,44,87,6
1,44,0,322
1,44,91,38
1,44,0,114
1,44,81,6
1,44,0,480
1,37,87,0
1,37,0,322
1,37,91,38
1,37,0,114
1,39,87,6
1,39,0,322
1,39,91,38
1,39,0,114
1,44,84,6
1,44,0,754
2,44,71,707
2,51,66,360
2,63,63,120
2,56,66,0
2,58,71,0
2,51,0,312
2,51,81,48
2,51,0,440
2,58,0,24
2,60,71,16
2,51,87,240
2,60,0,102
2,58,87,18
2,56,0,26
2,56,91,94
2,58,0,28
2,51,0,88
2,44,0,0
2,63,0,0
2,56,0,0
2,44,50,4
2,63,66,0
2,60,66,0
2,56,66,0
2,44,0,272
2,44,56,88
2,63,0,46
2,56,0,0
2,60,0,0
2,44,0,40
2,63,44,154
2,60,44,0
2,58,44,0
2,67,44,0
2,67,0,200
2,63,0,0
2,60,0,0
2,58,0,0
2,63,44,40
2,60,44,0
2,58,44,0
2,67,44,0
2,67,0,72
2,63,0,0
2,60,0,0
2,58,0,0
2,53,50,48
2,65,66,0
2,63,66,0
2,60,66,0
2,68,66,0
2,53,0,272
2,53,56,88
2,60,0,46
2,68,0,0
2,65,0,0
2,63,0,0
2,53,0,40
2,63,53,34
2,60,53,0
2,55,53,0
2,55,0,480
2,60,0,0
2,63,0,0
2,65,53,0
2,63,53,0
2,56,53,0
2,56,0,480
2,63,0,0
2,65,0,0
2,65,53,0
2,61,53,0
2,56,53,0
2,56,0,480
2,61,0,0
2,65,0,0
2,63,63,0
2,58,66,0
2,56,63,0
2,44,66,0
2,58,0,326
2,60,53,34
2,60,0,554
2,56,0,8
2,63,0,8
2,44,0,10
2,44,50,20
2,63,66,0
2,60,66,0
2,56,66,0
2,44,0,272
2,44,56,88
2,63,0,46
2,56,0,0
2,60,0,0
2,44,0,40
2,63,42,34
2,60,42,0
2,58,42,0
2,67,42,0
2,67,0,314
2,63,0,0
2,60,0,0
2,58,0,0
2,63,42,46
2,60,42,0
2,58,42,0
2,67,42,0
2,67,0,80
2,63,0,0
2,60,0,0
2,58,0,0
2,65,53,40
2,63,53,0
2,60,53,0
2,68,53,0
2,68,0,480
2,65,0,0
2,63,0,0
2,60,0,0
2,63,53,0
2,60,53,0
2,55,53,0
2,55,0,480
2,60,0,0
2,63,0,0
2,65,53,0
2,63,53,0
2,56,53,0
2,56,0,480
2,63,0,0
2,65,0,0
2,51,50,0
2,65,66,0
2,61,66,0
2,56,66,0
2,51,0,272
2,51,56,88
2,65,0,46
2,56,0,0
2,61,0,0
2,51,0,40
2,44,40,34
2,63,60,0
2,60,60,0
2,56,66,0
2,60,0,358
2,58,71,2
2,58,0,530
2,56,0,0
2,63,0,10
2,44,0,12
2,63,53,48
2,60,53,0
2,56,53,0
2,56,0,480
2,60,0,0
2,63,0,0
2,63,44,120
2,58,44,0
2,55,44,0
2,55,0,200
2,58,0,0
2,63,0,0
2,63,44,40
2,58,44,0
2,55,44,0
2,55,0,72
2,58,0,0
2,63,0,0
2,65,53,48
2,61,53,0
2,56,53,0
2,56,0,480
2,61,0,0
2,65,0,0
2,51,50,0
2,65,66,0
2,61,66,0
2,56,66,0
2,51,0,272
2,51,56,88
2,65,0,46
2,56,0,0
2,61,0,0
2,51,0,40
2,44,50,34
2,63,66,0
2,60,66,0
2,56,66,0
2,44,0,272
2,44,56,88
2,63,0,46
2,56,0,0
2,60,0,0
2,44,0,40
2,44,50,34
2,67,66,0
2,63,66,0
2,58,66,0
2,44,0,272
2,44,56,88
2,67,0,46
2,58,0,0
2,63,0,0
2,44,0,40
2,65,53,34
2,63,53,0
2,56,53,0
2,56,0,480
2,63,0,0
2,65,0,0
2,65,44,120
2,61,44,0
2,56,44,0
2,56,0,200
2,61,0,0
2,65,0,0
2,65,44,40
2,61,44,0
2,56,44,0
2,56,0,72
2,61,0,0
2,65,0,0
2,63,53,48
2,60,53,0
2,56,53,0
2,56,0,480
2,60,0,0
2,63,0,0
2,63,53,0
2,58,53,0
2,55,53,0
2,55,0,480
2,58,0,0
2,63,0,0
2,65,42,0
2,61,42,0
2,56,42,0
2,56,0,314
2,61,0,0
2,65,0,0
2,65,42,46
2,61,42,0
2,56,42,0
2,56,0,80
2,61,0,0
2,65,0,0
2,51,50,40
2,65,66,0
2,61,66,0
2,56,66,0
2,51,0,272
2,51,56,88
2,65,0,46
2,56,0,0
2,61,0,0
2,51,0,40
2,44,50,34
2,63,66,0
2,60,66,0
2,56,66,0
2,44,0,272
2,44,56,88
2,63,0,46
2,56,0,0
2,60,0,0
2,44,0,40
2,63,53,34
2,58,53,0
2,55,53,0
2,55,0,480
2,58,0,0
2,63,0,0
2,49,50,0
2,65,66,0
2,63,66,0
2,56,66,0
2,49,0,272
2,49,56,88
2,65,0,46
2,56,0,0
2,63,0,0
2,49,0,40
2,51,50,34
2,65,66,0
2,61,66,0
2,56,66,0
2,51,0,272
2,51,56,88
2,65,0,46
2,56,0,0
2,61,0,0
2,51,0,40
2,44,71,34
2,51,66,360
2,63,63,120
2,56,66,0
2,58,71,0
2,51,0,312
2,51,81,48
2,51,0,440
2,58,0,24
2,60,71,16
2,51,87,240
2,60,0,102
2,58,87,18
2,56,0,26
2,56,91,94
2,58,0,28
2,51,0,88
2,44,0,0
2,63,0,0
2,56,0,0
2,63,53,4
2,60,53,0
2,56,53,0
2,56,0,480
2,60,0,0
2,63,0,0
2,43,50,0
2,63,66,0
2,60,66,0
2,58,66,0
2,67,66,0
2,43,0,272
2,43,56,88
2,58,0,46
2,67,0,0
2,63,0,0
2,60,0,0
2,43,0,40
2,65,42,34
2,63,42,0
2,60,42,0
2,68,42,0
2,68,0,314
2,65,0,0
2,63,0,0
2,60,0,0
2,65,42,46
2,63,42,0
2,60,42,0
2,68,42,0
2,68,0,80
2,65,0,0
2,63,0,0
2,60,0,0
2,51,50,40
2,63,66,0
2,60,66,0
2,55,66,0
2,51,0,272
2,51,56,88
2,63,0,46
2,55,0,0
2,60,0,0
2,51,0,40
2,49,50,34
2,65,66,0
2,63,66,0
2,56,66,0
2,49,0,272
2,49,56,88
2,65,0,46
2,56,0,0
2,63,0,0
2,49,0,40
2,51,50,34
2,65,66,0
2,61,66,0
2,56,66,0
2,51,0,272
2,51,56,88
2,65,0,46
2,56,0,0
2,61,0,0
2,51,0,40
2,44,40,34
2,63,60,0
2,60,60,0
2,56,66,0
2,60,0,358
2,58,71,2
2,58,0,530
2,56,0,0
2,63,0,10
2,44,0,12
2,44,50,48
2,63,66,0
2,60,66,0
2,56,66,0
2,44,0,272
2,44,56,88
2,63,0,46
2,56,0,0
2,60,0,0
2,44,0,40
2,43,50,34
2,63,66,0
2,60,66,0
2,58,66,0
2,67,66,0
2,43,0,272
2,43,56,88
2,58,0,46
2,67,0,0
2,63,0,0
2,60,0,0
2,43,0,40
2,53,40,34
2,72,60,0
2,68,60,0
2,65,66,0
2,68,0,358
2,67,71,2
2,67,0,530
2,65,0,0
2,72,0,10
2,53,0,12
2,65,53,48
2,63,53,0
2,56,53,0
2,56,0,480
2,63,0,0
2,65,0,0
2,51,50,0
2,65,66,0
2,61,66,0
2,56,66,0
2,51,0,272
2,51,56,88
2,65,0,46
2,56,0,0
2,61,0,0
2,51,0,40
2,44,40,34
2,63,60,0
2,60,60,0
2,56,66,0
2,60,0,358
2,58,71,2
2,58,0,530
2,56,0,0
2,63,0,10
2,44,0,12
2,44,50,48
2,63,66,0
2,60,66,0
2,56,66,0
2,44,0,272
2,44,56,88
2,63,0,46
2,56,0,0
2,60,0,0
2,44,0,40
2,63,53,34
2,58,53,0
2,55,53,0
2,55,0,480
2,58,0,0
2,63,0,0
2,49,50,0
2,65,66,0
2,61,66,0
2,56,66,0
2,49,0,272
2,49,56,88
2,65,0,46
2,56,0,0
2,61,0,0
2,49,0,40
2,51,50,34
2,65,66,0
2,61,66,0
2,56,66,0
2,51,0,272
2,51,56,88
2,65,0,46
2,56,0,0
2,61,0,0
2,51,0,40
2,63,42,34
2,60,42,0
2,56,42,0
2,56,0,314
2,60,0,0
2,63,0,0
2,63,42,46
2,60,42,0
2,56,42,0
2,56,0,80
2,60,0,0
2,63,0,0
2,44,50,40
2,67,66,0
2,63,66,0
2,58,66,0
2,44,0,272
2,44,56,88
2,67,0,46
2,58,0,0
2,63,0,0
2,44,0,40
2,49,50,34
2,65,66,0
2,63,66,0
2,56,66,0
2,49,0,272
2,49,56,88
2,65,0,46
2,56,0,0
2,63,0,0
2,49,0,40
2,51,50,34
2,65,66,0
2,61,66,0
2,56,66,0
2,51,0,272
2,51,56,88
2,65,0,46
2,56,0,0
2,61,0,0
2,51,0,40
2,44,50,34
2,63,66,0
2,60,66,0
2,56,66,0
2,44,0,272
2,44,56,88
2,63,0,46
2,56,0,0
2,60,0,0
2,44,0,40
2,63,42,34
2,58,42,0
2,55,42,0
2,55,0,314
2,58,0,0
2,63,0,0
2,63,42,46
2,58,42,0
2,55,42,0
2,55,0,80
2,58,0,0
2,63,0,0
2,49,50,40
2,65,66,0
2,61,66,0
2,56,66,0
2,49,0,272
2,49,56,88
2,65,0,46
2,56,0,0
2,61,0,0
2,49,0,40
2,51,50,34
2,65,66,0
2,61,66,0
2,56,66,0
2,51,0,272
2,51,56,88
2,65,0,46
2,56,0,0
2,61,0,0
2,51,0,40
2,63,53,34
2,60,53,0
2,56,53,0
2,56,0,480
2,60,0,0
2,63,0,0
2,44,50,0
2,63,66,0
2,58,66,0
2,55,66,0
2,44,0,272
2,44,56,88
2,63,0,46
2,55,0,0
2,58,0,0
2,44,0,40
2,65,53,34
2,63,53,0
2,56,53,0
2,56,0,480
2,63,0,0
2,65,0,0
2,65,53,0
2,61,53,0
2,56,53,0
2,56,0,480
2,61,0,0
2,65,0,0
2,44,71,0
2,51,66,360
2,63,63,120
2,56,66,0
2,58,71,0
2,51,0,312
2,51,81,48
2,51,0,440
2,58,0,24
2,60,71,16
2,51,87,240
2,60,0,102
2,58,87,18
2,56,0,26
2,56,91,94
2,58,0,28
2,51,0,88
2,44,0,0
2,63,0,0
2,56,0,0
2,65,44,124
2,61,44,0
2,56,44,0
2,56,0,200
2,61,0,0
2,65,0,0
2,65,44,40
2,61,44,0
2,56,44,0
2,56,0,72
2,61,0,0
2,65,0,0
2,65,42,48
2,61,42,0
2,56,42,0
2,56,0,314
2,61,0,0
2,65,0,0
2,65,42,46
2,61,42,0
2,56,42,0
2,56,0,80
2,61,0,0
2,65,0,0
2,44,40,40
2,63,60,0
2,60,60,0
2,56,66,0
2,60,0,358
2,58,71,2
2,58,0,530
2,56,0,0
2,63,0,10
2,44,0,12
