track,note,velocity,time
3,37,117,6432
3,37,0,38
3,32,119,58
3,32,0,27
3,28,110,69
3,28,0,31
3,25,112,65
3,25,0,335
3,35,114,145
3,35,0,38
3,30,120,58
3,30,0,27
3,26,113,69
3,26,0,31
3,23,119,65
3,23,0,335
3,33,112,145
3,33,0,41
3,28,102,55
3,28,0,31
3,33,114,65
3,33,0,184
3,35,94,8
3,35,0,37
3,30,104,59
3,30,0,28
3,35,109,68
3,35,0,186
3,37,114,6
3,37,0,38
3,32,120,58
3,32,0,27
3,28,107,69
3,28,0,31
3,25,117,65
3,25,0,335
3,37,120,145
3,37,0,38
3,32,114,58
3,32,0,27
3,28,111,69
3,28,0,31
3,25,118,65
3,25,0,335
3,35,120,145
3,35,0,38
3,30,119,58
3,30,0,27
3,26,113,69
3,26,0,31
3,23,113,65
3,23,0,335
3,33,114,145
3,33,0,41
3,28,103,55
3,28,0,31
3,33,112,65
3,33,0,184
3,35,93,8
3,35,0,37
3,30,109,59
3,30,0,28
3,35,106,68
3,35,0,186
3,37,118,6
3,37,0,38
3,32,117,58
3,32,0,27
3,28,113,69
3,28,0,31
3,25,114,65
3,25,0,335
3,25,108,145
3,25,0,455
3,37,111,25
3,37,0,26
3,37,111,8
3,37,0,119
3,39,101,3
3,39,0,468
3,27,113,60
3,27,0,27
3,39,105,21
3,39,0,48
3,27,112,0
3,27,0,67
3,28,101,77
3,28,0,47
3,28,114,49
3,28,0,97
3,28,103,95
3,28,0,33
3,30,105,63
3,30,0,35
3,30,108,61
3,30,0,172
3,30,112,20
3,30,0,26
3,25,110,1
3,25,0,172
3,49,105,20
3,49,0,22
3,49,102,26
3,49,0,48
3,47,87,0
3,47,0,41
3,44,97,7
3,44,0,32
3,47,90,16
3,44,94,48
3,47,0,3
3,44,0,38
3,42,100,7
3,40,95,48
3,42,0,3
3,40,0,40
3,37,101,5
3,37,0,40
3,35,92,8
3,37,117,48
3,35,0,7
3,37,0,31
3,32,121,58
3,32,0,27
3,28,107,69
3,28,0,31
3,25,116,65
3,25,0,3
3,37,108,4
3,37,0,146
3,35,117,11
3,35,0,38
3,30,114,58
3,30,0,27
3,26,114,69
3,26,0,31
3,23,119,65
3,23,0,2
3,35,104,4
3,35,0,146
3,33,115,11
3,33,0,41
3,28,109,55
3,28,0,31
3,33,116,65
3,33,0,184
3,35,93,8
3,35,0,37
3,30,105,59
3,30,0,28
3,35,111,68
3,35,0,186
3,37,121,6
3,37,0,38
3,32,121,58
3,32,0,27
3,28,110,69
3,28,0,31
3,25,115,65
3,25,0,231
3,32,111,9
3,32,0,30
3,35,110,18
3,35,0,114
3,37,115,13
3,37,0,38
3,32,115,58
3,32,0,27
3,28,109,69
3,28,0,31
3,25,114,65
3,25,0,3
3,37,109,4
3,37,0,146
3,35,121,11
3,35,0,38
3,30,119,58
3,30,0,27
3,26,112,69
3,26,0,31
3,23,116,65
3,23,0,2
3,35,104,4
3,35,0,146
3,33,115,11
3,33,0,41
3,28,109,55
3,28,0,31
3,33,112,65
3,33,0,184
3,35,93,8
3,35,0,37
3,30,106,59
3,30,0,28
3,35,112,68
3,35,0,186
3,37,114,6
3,37,0,38
3,32,121,58
3,32,0,27
3,28,107,69
3,28,0,31
3,25,117,65
3,25,0,231
3,32,109,9
3,32,0,30
3,35,110,18
3,35,0,114
3,37,120,3085
3,37,0,38
3,32,119,58
3,32,0,27
3,28,111,69
3,28,0,31
3,25,116,65
3,25,0,335
3,35,114,145
3,35,0,38
3,30,115,58
3,30,0,27
3,26,115,69
3,26,0,31
3,23,118,65
3,23,0,335
3,33,115,145
3,33,0,41
3,28,106,55
3,28,0,31
3,33,117,65
3,33,0,184
3,35,99,8
3,35,0,37
3,30,106,59
3,30,0,28
3,35,106,68
3,35,0,186
3,37,121,6
3,37,0,38
3,32,119,58
3,32,0,27
3,28,114,69
3,28,0,31
3,25,115,65
3,25,0,335
3,37,116,145
3,37,0,38
3,32,118,58
3,32,0,27
3,28,114,69
3,28,0,31
3,25,115,65
3,25,0,335
3,35,114,145
3,35,0,38
3,30,116,58
3,30,0,27
3,26,108,69
3,26,0,31
3,23,118,65
3,23,0,335
3,33,109,145
3,33,0,41
3,28,103,55
3,28,0,31
3,33,113,65
3,33,0,184
3,35,97,8
3,35,0,37
3,30,105,59
3,30,0,28
3,35,107,68
3,35,0,186
3,37,114,6
3,37,0,38
3,32,119,58
3,32,0,27
3,28,112,69
3,28,0,31
3,25,118,65
3,25,0,335
3,25,105,145
3,25,0,455
3,37,111,25
3,37,0,26
3,37,107,8
3,37,0,119
3,39,104,3
3,39,0,468
3,27,116,60
3,27,0,27
3,39,103,21
3,39,0,48
3,27,106,0
3,27,0,67
3,28,106,77
3,28,0,47
3,28,113,49
3,28,0,97
3,28,105,95
3,28,0,33
3,30,99,63
3,30,0,35
3,30,111,61
3,30,0,172
3,30,112,20
3,30,0,26
3,25,109,1
3,25,0,6
3,49,108,9
3,49,0,90
3,47,83,6
3,44,96,144
3,47,0,1
3,44,0,85
3,47,99,7
3,44,101,48
3,47,0,3
3,44,0,40
3,42,101,5
3,42,0,40
3,40,91,8
3,37,114,48
3,40,0,7
3,37,0,31
3,32,120,58
3,32,0,27
3,28,114,69
3,28,0,31
3,25,113,65
3,25,0,3
3,37,104,4
3,37,0,146
3,35,121,11
3,35,0,38
3,30,114,58
3,30,0,27
3,26,108,69
3,26,0,31
3,23,119,65
3,23,0,2
3,35,110,4
3,35,0,146
3,33,111,11
3,33,0,41
3,28,102,55
3,28,0,31
3,33,118,65
3,33,0,184
3,35,97,8
3,35,0,37
3,30,108,59
3,30,0,28
3,35,105,68
3,35,0,186
3,37,114,6
3,37,0,38
3,32,116,58
3,32,0,27
3,28,109,69
3,28,0,31
3,25,115,65
3,25,0,231
3,32,111,9
3,32,0,30
3,35,103,18
3,35,0,114
3,37,115,13
3,37,0,38
3,32,115,58
3,32,0,27
3,28,107,69
3,28,0,31
3,25,114,65
3,25,0,3
3,37,109,4
3,37,0,146
3,35,120,11
3,35,0,38
3,30,117,58
3,30,0,27
3,26,112,69
3,26,0,31
3,23,115,65
3,23,0,2
3,35,106,4
3,35,0,146
3,33,114,11
3,33,0,41
3,28,106,55
3,28,0,31
3,33,112,65
3,33,0,184
3,35,92,8
3,35,0,37
3,30,110,59
3,30,0,28
3,35,107,68
3,35,0,186
3,37,115,6
3,37,0,38
3,32,114,58
3,32,0,27
3,28,112,69
3,28,0,31
3,25,117,65
3,25,0,231
3,32,106,9
3,32,0,30
3,35,110,18
3,35,0,114
3,37,106,13
3,37,0,96
3,32,109,0
3,32,0,83
3,35,107,445
3,35,0,45
3,37,109,3
3,37,0,87
3,35,105,9
3,35,0,94
3,42,106,2
3,42,0,109
3,35,102,467
3,33,107,96
3,35,0,3
3,33,0,90
3,40,112,3
3,40,0,97
3,33,117,95
3,33,0,84
3,35,104,12
3,35,0,90
3,30,105,6
3,30,0,89
3,35,104,103
3,35,0,89
3,37,105,7
3,37,0,83
3,32,104,13
3,32,0,116
3,25,118,76
3,25,0,46
3,25,121,50
3,25,0,98
3,35,96,190
3,35,0,91
3,37,110,5
3,37,0,96
3,32,107,0
3,32,0,83
3,35,111,445
3,35,0,45
3,37,107,3
3,37,0,87
3,35,103,9
3,35,0,94
3,42,109,2
3,42,0,109
3,35,102,467
3,33,111,96
3,35,0,3
3,33,0,90
3,40,110,3
3,40,0,97
3,33,117,95
3,33,0,84
3,35,110,12
3,35,0,90
3,30,108,6
3,30,0,89
3,35,101,103
3,35,0,89
3,37,104,7
3,37,0,83
3,32,109,13
3,32,0,116
3,25,120,76
3,25,0,46
3,25,114,50
3,32,90,10
3,25,0,2
3,37,103,54
3,32,0,1
3,37,0,25
3,25,108,10
3,25,0,455
3,37,107,25
3,37,0,26
3,37,110,8
3,37,0,119
3,39,102,3
3,27,105,288
3,39,0,180
3,27,0,10
3,39,106,2
3,39,0,27
3,39,119,21
3,39,0,79
3,40,97,17
3,40,0,84
3,40,106,3
3,40,0,47
3,28,112,49
3,28,0,97
3,40,99,2
3,40,0,33
3,30,106,6
3,30,0,32
3,30,110,61
3,30,0,85
3,42,107,11
3,42,0,13
3,25,111,1
3,25,0,419
3,25,111,13
3,25,0,46
3,25,109,50
3,25,0,42
3,37,108,6
3,37,0,4
3,38,116,4
3,38,0,38
3,33,118,58
3,33,0,27
3,29,113,69
3,29,0,31
3,26,117,65
3,26,0,3
3,38,109,4
3,38,0,146
3,36,115,11
3,36,0,38
3,31,115,58
3,31,0,27
3,27,109,69
3,27,0,31
3,24,113,65
3,24,0,2
3,36,104,4
3,36,0,146
3,34,115,11
3,34,0,41
3,29,104,55
3,29,0,31
3,34,119,65
3,34,0,184
3,36,96,8
3,36,0,37
3,31,106,59
3,31,0,28
3,36,111,68
3,36,0,186
3,38,116,6
3,38,0,38
3,33,121,58
3,33,0,27
3,29,109,69
3,29,0,31
3,26,118,65
3,26,0,231
3,33,107,9
3,33,0,30
3,36,109,18
3,36,0,114
3,38,114,13
3,38,0,38
3,33,119,58
3,33,0,27
3,29,112,69
3,29,0,31
3,26,113,65
3,26,0,3
3,38,104,4
3,38,0,146
3,36,115,11
3,36,0,38
3,31,121,58
3,31,0,27
3,27,112,69
3,27,0,31
3,24,119,65
3,24,0,2
3,36,108,4
3,36,0,146
3,34,115,11
3,34,0,41
3,29,105,55
3,29,0,31
3,34,119,65
3,34,0,184
3,36,99,8
3,36,0,37
3,31,104,59
3,31,0,28
3,36,105,68
3,36,0,186
3,38,119,6
3,38,0,38
3,33,116,58
3,33,0,27
3,29,112,69
3,29,0,31
3,26,116,65
3,26,0,231
3,33,108,9
3,33,0,30
3,36,109,18
3,36,0,114
3,38,121,13
3,38,0,38
3,33,117,58
3,33,0,27
3,29,108,69
3,29,0,31
3,26,117,65
3,26,0,3
3,38,110,4
3,38,0,146
3,36,114,11
3,36,0,38
3,31,120,58
3,31,0,27
3,27,113,69
3,27,0,31
3,24,119,65
3,24,0,2
3,36,110,4
3,36,0,146
3,34,109,11
3,34,0,41
3,29,105,55
3,29,0,31
3,34,112,65
3,34,0,184
3,36,99,8
3,36,0,37
3,31,105,59
3,31,0,28
3,36,108,68
3,36,0,186
3,38,121,6
3,38,0,38
3,33,120,58
3,33,0,27
3,29,108,69
3,29,0,31
3,26,113,65
3,26,0,231
3,33,105,9
3,33,0,30
3,36,108,18
3,36,0,114
3,26,115,13
3,26,0,765
3,24,118,3
3,24,0,765
3,34,108,3
3,34,0,369
3,36,101,15
3,36,0,369
3,26,115,15
3,26,0,748
4,61,48,42
4,64,49,0
4,61,0,763
4,64,0,1
4,59,44,4
4,63,43,0
4,59,0,752
4,63,0,0
4,57,48,16
4,61,49,0
4,57,0,376
4,61,0,0
4,59,48,8
4,63,48,0
4,59,0,376
4,63,0,0
4,61,42,8
4,64,42,0
4,68,46,0
4,64,0,760
4,68,0,0
4,61,0,1
4,61,54,7
4,64,54,0
4,61,0,763
4,64,0,1
4,63,56,4
4,66,54,0
4,63,0,752
4,66,0,0
4,61,60,16
4,64,57,0
4,61,0,376
4,64,0,0
4,59,55,8
4,63,60,0
4,59,0,376
4,63,0,0
4,64,66,8
4,68,64,0
4,73,70,0
4,64,0,574
4,68,0,0
4,73,0,0
4,61,64,15554
4,64,63,0
4,61,0,763
4,64,0,1
4,63,63,4
4,66,65,0
4,63,0,752
4,66,0,0
4,61,65,16
4,64,67,0
4,61,0,376
4,64,0,0
4,59,66,8
4,63,62,0
4,59,0,376
4,63,0,0
4,64,68,8
4,68,65,0
4,73,66,0
4,64,0,574
4,68,0,0
4,73,0,0
5,71,82,6476
5,71,0,62
5,73,84,34
5,73,0,75
5,76,92,117
5,76,0,25
5,73,86,71
5,73,0,26
5,76,95,22
5,76,0,45
5,76,91,51
5,76,0,22
5,73,90,26
5,73,0,221
5,71,92,19
5,71,0,15
5,71,86,33
5,71,0,22
5,71,97,26
5,71,0,44
5,71,90,52
5,71,0,15
5,71,91,33
5,71,0,22
5,71,82,26
5,71,0,12
5,71,99,36
5,71,0,71
5,71,86,24
5,71,0,46
5,73,86,6
5,73,0,42
5,73,98,59
5,73,0,65
5,71,93,23
5,71,0,41
5,71,93,55
5,71,0,27
5,71,91,21
5,71,0,19
5,71,90,32
5,71,0,19
5,71,92,32
5,71,0,19
5,71,88,28
5,71,0,62
5,71,92,35
5,71,0,34
5,71,99,56
5,71,0,56
5,71,89,42
5,71,0,20
5,73,90,28
5,73,0,39
5,73,91,8
5,73,0,74
5,73,94,24
5,73,0,36
5,76,91,56
5,76,0,58
5,75,99,6
5,75,0,52
5,73,97,29
5,75,90,48
5,73,0,3
5,76,89,55
5,75,0,1
5,75,88,133
5,76,0,2
5,73,95,46
5,75,0,2
5,73,0,12
5,71,96,28
5,71,0,36
5,73,86,14
5,73,0,81
5,76,92,150
5,76,0,25
5,73,90,71
5,73,0,26
5,76,86,70
5,76,0,16
5,76,96,32
5,76,0,46
5,73,97,50
5,73,0,41
5,76,94,7
5,76,0,137
5,71,93,7
5,71,0,73
5,71,95,23
5,71,0,44
5,71,89,4
5,71,0,15
5,71,94,33
5,71,0,82
5,71,80,14
5,71,0,38
5,71,93,58
5,71,0,43
5,71,88,5
5,71,0,43
5,73,90,5
5,73,0,43
5,75,92,5
5,75,0,65
5,73,93,79
5,73,0,41
5,75,97,7
5,75,0,41
5,76,92,7
5,76,0,53
5,73,89,43
5,73,0,18
5,73,97,30
5,73,0,18
5,73,94,30
5,73,0,61
5,76,93,35
5,76,0,34
5,80,93,62
5,80,0,55
5,78,86,43
5,78,0,34
5,78,89,61
5,78,0,42
5,76,96,5
5,76,0,1
5,80,87,3
5,80,0,131
5,78,89,0
5,76,94,149
5,78,0,8
5,76,0,51
5,71,93,0
5,71,0,84
5,73,90,12
5,73,0,81
5,78,89,495
5,78,0,39
5,76,91,9
5,76,0,45
5,78,96,3
5,80,90,96
5,78,0,2
5,80,0,117
5,76,88,457
5,76,0,18
5,76,95,30
5,76,0,129
5,78,90,15
5,78,0,109
5,76,93,227
5,76,0,30
5,78,95,18
5,78,0,7
5,78,95,1
5,78,0,3
5,80,92,117
5,80,0,72
5,80,95,216
5,80,0,33
5,78,91,63
5,78,0,33
5,76,84,15
5,76,0,39
5,78,89,9
5,78,0,17
5,73,86,7
5,73,0,24
5,73,94,24
5,73,0,254
5,80,96,178
5,80,0,134
5,73,95,10
5,73,0,139
5,76,90,5
5,76,0,141
5,78,98,3
5,78,0,111
5,80,79,3
5,78,98,18
5,80,0,16
5,78,0,2
5,75,93,1
5,75,0,82
5,75,94,15
5,75,0,131
5,75,91,9
5,75,0,111
5,76,97,8
5,76,0,122
5,75,102,8
5,75,0,53
5,73,88,4
5,73,0,57
5,76,95,44
5,76,0,334
5,75,95,50
5,75,0,347
5,76,90,37
5,76,0,10
5,73,98,2
5,73,0,400
5,80,84,1
5,80,0,27
5,80,87,36
5,80,0,156
5,80,98,36
5,80,0,134
5,73,94,10
5,73,0,139
5,76,91,5
5,76,0,141
5,78,95,3
5,83,97,5
5,78,0,1
5,83,0,160
5,87,95,3
5,87,0,82
5,83,88,15
5,83,0,131
5,78,93,13
5,78,0,136
5,78,94,8
5,78,0,83
5,78,96,13
5,78,0,130
5,76,96,14
5,76,0,88
5,76,95,8
5,76,0,334
5,75,91,50
5,75,0,347
5,76,94,37
5,76,0,10
5,73,95,2
5,73,0,400
5,71,87,3199
5,71,0,39
5,73,80,9
5,73,0,91
5,76,93,149
5,76,0,25
5,73,90,71
5,73,0,26
5,76,93,22
5,76,0,45
5,76,88,51
5,76,0,22
5,73,94,26
5,73,0,163
5,68,81,29
5,68,0,14
5,71,92,34
5,71,0,32
5,68,90,24
5,68,0,22
5,71,97,18
5,71,0,44
5,68,89,12
5,68,0,22
5,71,90,18
5,71,0,35
5,71,90,61
5,71,0,41
5,71,98,55
5,71,0,71
5,73,88,25
5,73,0,18
5,80,87,30
5,80,0,62
