track,note,velocity,time
15,29,90,7140
15,31,100,192
15,34,106,1298
15,36,93,192
15,36,95,397
15,31,103,29
15,29,90,181
15,31,100,192
15,34,106,1298
15,36,93,192
15,36,95,397
15,31,103,29
15,29,90,181
15,31,100,192
15,34,106,1298
15,36,93,192
15,36,95,397
15,31,103,29
15,29,90,181
15,31,100,192
15,34,106,1298
15,36,93,192
15,36,95,397
15,31,103,29
15,29,90,181
15,31,100,192
15,34,106,1298
15,36,93,192
15,36,95,397
15,31,103,29
15,29,90,181
15,31,100,192
15,34,106,1298
15,36,93,192
15,36,95,397
15,31,103,29
15,29,90,181
15,31,100,192
15,34,106,1298
15,36,93,192
15,36,95,397
15,31,103,29
15,29,90,181
15,31,100,192
15,34,106,1298
15,36,93,192
15,36,95,397
15,31,103,29
15,29,90,181
15,31,98,192
15,38,95,753
15,29,92,232
15,38,99,616
15,40,94,96
15,43,107,68
15,40,99,75
15,31,107,65
15,31,93,22
15,43,98,196
15,40,95,288
15,36,92,232
15,38,99,616
15,40,94,96
15,43,107,68
15,40,99,75
15,31,107,65
15,31,93,22
15,31,98,196
15,38,95,753
15,29,92,232
15,38,99,616
15,40,94,96
15,43,107,68
15,40,99,75
15,31,107,65
15,31,93,22
15,43,98,196
15,40,95,288
15,36,92,232
15,38,99,616
15,40,94,96
15,43,107,68
15,40,99,75
15,31,107,65
15,31,93,22
15,29,100,4
15,31,100,96
15,34,106,1298
15,36,93,192
15,36,95,397
15,31,103,29
15,29,90,181
15,31,100,192
15,34,106,1298
15,36,93,192
15,29,95,205
15,31,103,29
15,31,100,565
15,34,106,1298
15,36,93,560
15,29,90,397
15,31,100,192
15,34,106,1298
15,36,93,192
15,36,95,397
15,31,103,29
15,29,90,181
15,31,100,192
15,34,106,1298
15,36,93,192
15,36,95,397
15,31,103,29
15,29,90,181
15,31,100,192
15,34,106,1298
15,36,93,192
15,36,95,397
15,31,103,29
15,29,90,181
15,31,98,192
15,38,95,753
15,29,92,232
15,38,99,616
15,40,94,96
15,43,107,68
15,40,99,75
15,31,107,65
15,31,93,22
15,43,98,196
15,40,95,288
15,36,92,232
15,38,99,616
15,40,94,96
15,43,107,68
15,40,99,75
15,31,107,65
15,31,93,22
15,31,98,196
15,38,95,753
15,29,92,232
15,38,99,616
15,40,94,96
15,43,107,68
15,40,99,75
15,31,107,65
15,31,93,22
15,43,98,196
15,40,95,288
15,36,92,232
15,38,99,616
15,40,94,96
15,43,107,68
15,40,99,75
15,31,107,65
15,31,93,22
15,29,100,4
15,34,95,96
15,34,98,96
15,34,99,202
15,36,97,45
15,36,104,75
15,36,92,187
15,34,100,192
15,34,108,106
15,34,105,194
15,36,96,192
15,40,98,12
15,38,108,192
15,34,90,30
15,34,100,80
15,34,91,228
15,36,91,19
15,36,99,91
15,34,99,8
15,34,90,66
15,36,94,0
15,36,107,213
15,36,94,204
15,36,104,211
15,29,93,53
15,31,100,46
15,34,106,1298
15,36,93,192
15,36,95,397
15,31,103,29
15,29,90,181
15,31,100,192
15,34,106,1298
15,36,93,192
15,36,95,397
15,31,103,29
15,29,90,181
15,31,100,192
15,34,106,1298
15,36,93,192
15,36,95,397
15,31,103,29
15,29,90,181
15,31,100,192
15,34,106,1298
15,36,93,192
15,36,95,397
15,31,103,29
15,29,90,181
15,31,100,192
15,29,90,2642
15,31,100,192
15,29,90,2642
15,31,100,192
15,34,106,1298
15,36,93,192
15,36,95,397
15,31,103,29
15,29,90,181
15,31,100,192
15,34,106,1298
15,36,93,192
15,36,95,397
15,31,103,29
15,29,90,181
15,31,98,192
15,38,95,753
15,29,92,232
15,38,99,616
15,40,94,96
15,43,107,68
15,40,99,75
15,31,107,65
15,31,93,22
15,43,98,196
15,40,95,288
15,36,92,232
15,38,99,616
15,40,94,96
15,43,107,68
15,40,99,75
15,31,107,65
15,31,93,22
15,31,98,196
15,38,95,753
15,29,92,232
15,38,99,616
15,40,94,96
15,43,107,68
15,40,99,75
15,31,107,65
15,31,93,22
15,43,98,196
15,40,95,288
15,36,92,232
15,38,99,616
15,40,94,96
15,43,107,68
15,40,99,75
15,31,107,65
15,31,93,22
15,29,100,4
15,31,98,96
15,38,95,753
15,29,92,232
15,38,99,616
15,40,94,96
15,43,107,68
15,40,99,75
15,31,107,65
15,31,93,22
15,43,98,196
15,40,95,288
15,36,92,232
15,38,99,616
15,40,94,96
15,43,107,68
15,40,99,75
15,31,107,65
15,31,93,22
15,31,98,196
15,38,95,753
15,29,92,232
15,38,99,616
15,40,94,96
15,43,107,68
15,40,99,75
15,31,107,65
15,31,93,22
15,43,98,196
15,40,95,288
15,36,92,232
15,38,99,616
15,40,94,96
15,43,107,68
15,40,99,75
15,31,107,65
15,31,93,22
15,29,100,4
15,38,127,96
15,29,123,22
15,31,127,192
16,29,90,7084
16,31,100,192
16,34,106,1298
16,36,93,192
16,36,95,397
16,31,103,29
16,29,90,181
16,31,100,192
16,34,106,1298
16,36,93,192
16,36,95,397
16,31,103,29
16,29,90,181
16,31,100,192
16,34,106,1298
16,36,93,192
16,36,95,397
16,31,103,29
16,29,90,181
16,31,100,192
16,34,106,1298
16,36,93,192
16,36,95,397
16,31,103,29
16,29,90,181
16,31,100,192
16,34,106,1298
16,36,93,192
16,36,95,397
16,31,103,29
16,29,90,181
16,31,100,192
16,34,106,1298
16,36,93,192
16,36,95,397
16,31,103,29
16,29,90,181
16,31,100,192
16,34,106,1298
16,36,93,192
16,36,95,397
16,31,103,29
16,29,90,181
16,31,100,192
16,34,106,1298
16,36,93,192
16,36,95,397
16,31,103,29
16,29,90,181
16,55,109,192
16,50,106,0
16,72,106,0
16,43,100,0
16,62,104,0
16,67,108,0
16,43,103,0
16,50,102,0
16,55,109,0
16,62,109,0
16,71,105,0
16,67,109,0
16,43,97,0
16,50,92,0
16,55,109,0
16,62,102,0
16,72,91,0
16,67,104,0
16,50,96,0
16,62,98,0
16,67,92,0
16,55,92,0
16,71,106,0
16,43,103,0
16,62,92,0
16,67,104,0
16,72,105,0
16,50,93,0
16,55,100,0
16,43,104,0
16,71,94,0
16,62,109,0
16,50,91,0
16,67,103,0
16,55,94,0
16,43,91,0
16,62,92,0
16,43,109,0
16,67,91,0
16,72,100,0
16,50,107,0
16,55,92,0
16,62,90,0
16,43,90,0
16,71,93,0
16,67,100,0
16,50,97,0
16,55,96,0
16,41,108,0
16,31,100,12
16,34,106,1298
16,36,93,192
16,36,95,397
16,31,103,29
16,29,90,181
16,31,100,192
16,34,106,1298
16,36,93,192
16,29,103,205
16,31,95,192
16,31,100,605
16,34,106,1298
16,36,93,560
16,29,90,397
16,31,100,192
16,34,106,1298
16,36,93,192
16,36,95,397
16,31,103,29
16,29,90,181
16,31,100,192
16,34,106,1298
16,36,93,192
16,36,95,397
16,31,103,29
16,29,90,181
16,31,100,192
16,34,106,1298
16,36,93,192
16,36,95,397
16,31,103,29
16,29,90,181
16,55,109,192
16,50,106,0
16,72,106,0
16,43,100,0
16,62,104,0
16,67,108,0
16,43,103,0
16,50,102,0
16,55,109,0
16,62,109,0
16,71,105,0
16,67,109,0
16,43,97,0
16,50,92,0
16,55,109,0
16,62,102,0
16,72,91,0
16,67,104,0
16,50,96,0
16,62,98,0
16,67,92,0
16,55,92,0
16,71,106,0
16,43,103,0
16,62,92,0
16,67,104,0
16,72,105,0
16,50,93,0
16,55,100,0
16,43,104,0
16,71,94,0
16,62,109,0
16,50,91,0
16,67,103,0
16,55,94,0
16,43,91,0
16,62,92,0
16,43,109,0
16,67,91,0
16,72,100,0
16,50,107,0
16,55,92,0
16,62,90,0
16,43,90,0
16,71,93,0
16,67,100,0
16,50,97,0
16,55,96,0
16,62,94,192
16,53,104,0
16,50,109,0
16,58,109,0
16,46,97,0
16,48,95,0
16,52,95,0
16,55,100,0
16,64,110,0
16,60,98,0
16,62,93,0
16,53,101,0
16,50,94,0
16,58,103,0
16,46,91,0
16,48,100,0
16,52,100,0
16,55,107,0
16,64,93,0
16,60,101,0
16,62,104,0
16,53,106,0
16,50,108,0
16,58,106,0
16,46,90,0
16,48,95,0
16,52,97,0
16,55,95,0
16,64,92,0
16,60,91,0
16,62,101,0
16,53,95,0
16,50,105,0
16,58,107,0
16,46,106,0
16,48,102,0
16,52,99,0
16,60,99,0
16,64,105,0
16,55,98,0
16,48,91,198
16,52,95,0
16,55,91,0
16,60,101,0
16,64,101,0
16,48,92,203
16,52,92,0
16,55,107,0
16,64,108,0
16,60,100,0
16,64,97,200
16,60,95,0
16,55,95,0
16,52,100,0
16,48,106,0
16,29,110,60
16,31,100,96
16,34,106,1298
16,36,93,192
16,36,95,397
16,31,103,29
16,29,90,181
16,31,100,192
16,34,106,1298
16,36,93,192
16,36,95,397
16,31,103,29
16,29,90,181
16,31,100,192
16,34,106,1298
16,36,93,192
16,36,95,397
16,31,103,29
16,29,90,181
16,31,100,192
16,34,106,1298
16,36,93,192
16,36,95,397
16,31,103,29
16,29,90,181
16,31,100,192
16,29,90,2642
16,31,100,192
16,29,90,2642
16,31,100,192
16,34,106,1298
16,36,93,192
16,36,95,397
16,31,103,29
16,29,90,181
16,31,100,192
16,34,106,1298
16,36,93,192
16,36,95,397
16,31,103,29
16,29,90,181
16,55,109,192
16,50,106,0
16,72,106,0
16,43,100,0
16,62,104,0
16,67,108,0
16,43,103,0
16,50,102,0
16,55,109,0
16,62,109,0
16,71,105,0
16,67,109,0
16,43,97,0
16,50,92,0
16,55,109,0
16,62,102,0
16,72,91,0
16,67,104,0
16,50,96,0
16,62,98,0
16,67,92,0
16,55,92,0
16,71,106,0
16,43,103,0
16,62,92,0
16,67,104,0
16,72,105,0
16,50,93,0
16,55,100,0
16,43,104,0
16,71,94,0
16,62,109,0
16,50,91,0
16,67,103,0
16,55,94,0
16,43,91,0
16,62,92,0
16,43,109,0
16,67,91,0
16,72,100,0
16,50,107,0
16,55,92,0
16,62,90,0
16,43,90,0
16,71,93,0
16,67,100,0
16,50,97,0
16,55,96,0
16,55,109,192
16,50,106,0
16,72,106,0
16,43,100,0
16,62,104,0
16,67,108,0
16,43,103,0
16,50,102,0
16,55,109,0
16,62,109,0
16,71,105,0
16,67,109,0
16,43,97,0
16,50,92,0
16,55,109,0
16,62,102,0
16,72,91,0
16,67,104,0
16,50,96,0
16,62,98,0
16,67,92,0
16,55,92,0
16,71,106,0
16,43,103,0
16,62,92,0
16,67,104,0
16,72,105,0
16,50,93,0
16,55,100,0
16,43,104,0
16,71,94,0
16,62,109,0
16,50,91,0
16,67,103,0
16,55,94,0
16,43,91,0
16,62,92,0
16,43,109,0
16,67,91,0
16,72,100,0
16,50,107,0
16,55,92,0
16,62,90,0
16,43,90,0
16,71,93,0
16,67,100,0
16,50,97,0
16,55,96,0
16,38,127,192
16,29,123,22
16,31,127,192
17,65,97,3062
17,65,61,47
17,67,97,18
17,65,97,32
17,65,69,61
17,65,55,39
17,67,93,29
17,65,102,326
17,65,83,56
17,65,86,45
17,67,113,36
17,65,102,56
17,65,74,47
17,65,77,48
17,67,113,30
17,70,123,7
17,65,97,13192
17,67,106,192
17,70,93,190
17,70,99,245
17,69,96,43
17,67,95,192
17,69,102,186
17,65,96,184
17,67,102,736
17,70,98,192
17,69,110,15
17,67,103,192
17,69,94,177
17,67,92,380
17,64,100,173
17,62,90,5
17,67,103,802
17,70,110,192
17,70,103,113
17,70,96,288
17,69,95,88
17,67,110,192
17,69,94,189
17,65,94,378
17,65,100,188
17,70,107,192
17,69,94,177
17,67,105,32
17,69,96,192
17,67,94,22
17,65,103,192
17,67,99,190
17,67,98,960
17,67,102,82
17,69,96,32
17,71,104,192
17,69,107,176
17,67,96,10
17,67,100,836
17,67,108,83
17,69,96,39
17,67,100,192
17,71,98,187
17,71,107,83
17,69,91,1
17,67,109,29
17,67,94,353
17,67,98,115
17,69,93,4
17,71,104,192
17,69,90,181
17,67,92,14
17,67,103,1063
17,67,90,118
17,69,93,47
17,67,103,192
17,71,102,181
17,65,97,6329
17,67,106,192
17,70,93,190
17,70,99,245
17,69,96,43
17,67,95,192
17,69,102,186
17,65,96,184
17,67,102,736
17,70,98,192
17,69,110,15
17,67,103,192
17,69,94,177
17,67,92,380
17,64,100,173
17,62,90,5
17,67,103,802
17,70,110,192
17,70,103,113
17,70,96,288
17,69,95,88
17,67,110,192
17,69,94,189
17,65,94,378
17,65,100,188
17,70,107,192
17,69,94,177
17,67,105,32
17,69,96,192
17,67,94,22
17,65,103,192
17,67,99,190
17,67,98,960
17,67,102,82
17,69,96,32
17,71,104,192
17,69,107,176
17,67,96,10
17,67,100,836
17,67,108,83
17,69,96,39
17,67,100,192
17,71,98,187
17,71,107,83
17,69,91,1
17,67,109,29
17,67,94,353
17,67,98,115
17,69,93,4
17,71,104,192
17,69,90,181
17,67,92,14
17,67,103,1063
17,67,90,118
17,69,93,47
17,67,103,192
17,71,102,181
17,65,97,24761
17,67,106,192
17,70,93,190
17,70,99,245
17,69,96,43
17,67,95,192
17,69,102,186
17,65,96,184
17,67,102,736
17,70,98,192
17,69,110,15
17,67,103,192
17,69,94,177
17,67,92,380
17,64,100,173
17,62,90,5
17,67,103,802
17,70,110,192
17,70,103,113
17,70,96,288
17,69,95,88
17,67,110,192
17,69,94,189
17,65,94,378
17,65,100,188
17,70,107,192
17,69,94,177
17,67,105,32
17,69,96,192
17,67,94,22
17,65,103,192
17,67,99,190
17,67,98,960
17,67,102,82
17,69,96,32
17,71,104,192
17,69,107,176
17,67,96,10
17,67,100,836
17,67,108,83
17,69,96,39
17,67,100,192
17,71,98,187
17,71,107,83
17,69,91,1
17,67,109,29
17,67,94,353
17,67,98,115
17,69,93,4
17,71,104,192
17,69,90,181
17,67,92,14
17,67,103,1063
17,67,90,118
17,69,93,47
17,67,103,192
17,71,102,181
17,67,98,953
17,67,102,82
17,69,96,32
17,71,104,192
17,69,107,176
17,67,96,10
17,67,100,836
17,67,108,83
17,69,96,39
17,67,100,192
17,71,98,187
17,71,107,83
17,69,91,1
17,67,109,29
17,67,94,353
17,67,98,115
17,69,93,4
17,71,104,192
17,69,90,181
17,67,92,14
17,67,103,1063
17,67,90,118
17,69,93,47
17,67,103,192
17,71,102,181
18,62,99,32124
18,67,108,0
18,67,108,82
18,62,99,0
18,69,98,11
18,64,94,0
18,71,101,192
18,67,90,0
18,64,103,172
18,69,105,0
18,67,91,10
18,62,93,0
18,62,98,769
18,67,93,0
18,62,97,66
18,67,100,0
18,69,103,39
18,64,102,0
18,67,110,192
18,62,110,0
18,67,108,187
18,71,94,0
18,71,92,83
18,67,97,0
18,69,107,1
18,64,104,0
18,62,100,9
18,67,100,0
18,67,95,341
18,62,110,0
18,67,93,91
18,62,93,0
18,69,93,4
18,64,105,0
18,71,101,192
18,67,99,0
18,69,102,168
18,64,104,0
18,62,91,5
18,67,92,0
18,67,102,879
18,62,108,0
18,67,97,111
18,62,98,0
18,69,105,18
18,64,100,0
18,67,106,17
18,62,94,0
18,71,98,181
18,67,109,0
18,62,99,19385
18,67,108,0
18,67,108,82
18,62,99,0
18,69,98,11
18,64,94,0
18,71,101,192
18,67,90,0
18,64,103,172
18,69,105,0
18,67,91,10
18,62,93,0
18,62,98,769
18,67,93,0
18,62,97,66
18,67,100,0
18,69,103,39
18,64,102,0
18,67,110,192
18,62,110,0
18,67,108,187
18,71,94,0
18,71,92,83
18,67,97,0
18,69,107,1
18,64,104,0
18,62,100,9
18,67,100,0
18,67,95,341
18,62,110,0
18,67,93,91
18,62,93,0
18,69,93,4
18,64,105,0
18,71,101,192
18,67,99,0
18,69,102,168
18,64,104,0
18,62,91,5
18,67,92,0
18,67,102,879
18,62,108,0
18,67,97,111
18,62,98,0
18,69,105,18
18,64,100,0
18,67,106,17
18,62,94,0
18,71,98,181
18,67,109,0
18,62,99,37817
18,67,108,0
18,67,108,82
18,62,99,0
18,69,98,11
18,64,94,0
18,71,101,192
18,67,90,0
18,64,103,172
18,69,105,0
18,67,91,10
18,62,93,0
18,62,98,769
18,67,93,0
18,62,97,66
18,67,100,0
18,69,103,39
