track,note,velocity,time
0,54,105,35
0,42,108,77
0,66,103,6
0,58,91,3
0,54,106,34
0,44,99,44
0,66,27,1
0,59,90,11
0,54,104,24
0,66,99,36
0,45,105,2
0,60,90,2
0,54,114,15
0,66,103,1
0,61,107,2
0,46,124,1
0,48,90,95
0,61,119,3
0,66,98,0
0,49,79,1
0,64,99,0
0,69,92,1
0,52,91,9
0,68,84,5
0,59,88,2
0,63,117,2
0,54,101,209
0,61,106,1
0,45,92,1
0,66,101,0
0,55,93,1
0,49,94,4
0,53,88,2
0,57,101,1
0,64,96,0
0,52,127,18
0,58,95,1
0,42,95,1
0,52,94,0
0,54,95,0
0,66,94,0
0,54,93,14
0,30,126,16
0,42,127,2
0,54,126,0
0,64,105,68
0,54,125,1
0,54,123,121
0,30,127,18
0,66,104,2
0,42,126,1
0,66,105,12
0,54,106,113
0,54,127,148
0,64,105,20
0,54,118,2
0,66,104,6
0,66,105,20
0,54,92,9
0,30,127,3
0,54,127,0
0,42,126,1
0,54,125,19
0,66,104,1
0,54,122,120
0,30,126,12
0,42,127,1
0,66,104,13
0,68,105,20
0,54,106,2
0,54,127,7
0,54,119,2
0,54,105,1
0,54,70,37
0,42,94,19
0,49,95,2
0,54,95,0
0,52,127,1
0,54,92,3
0,64,105,11
0,30,126,80
0,42,126,0
0,54,127,0
0,54,124,70
0,66,104,13
0,54,123,0
0,30,127,8
0,42,127,0
0,66,104,7
0,54,107,102
0,54,126,4
0,54,119,14
0,64,105,1
0,66,105,17
0,66,104,20
0,54,92,10
0,54,126,11
0,30,126,1
0,42,126,1
0,54,125,7
0,69,104,119
0,54,123,2
0,42,127,61
0,30,126,3
0,68,105,2
0,69,104,7
0,68,105,20
0,53,106,1
0,53,126,147
0,53,119,10
0,57,94,1
0,54,104,1
0,52,94,0
0,60,95,1
0,54,95,1
0,53,71,16
0,66,105,1
0,57,94,16
0,50,94,1
0,68,104,1
0,50,127,1
0,52,95,1
0,56,94,0
0,59,95,0
0,52,92,7
0,66,105,1
0,28,127,9
0,40,126,2
0,52,126,1
0,64,104,6
0,42,125,0
0,52,125,2
0,52,122,7
0,28,127,73
0,40,126,0
0,52,107,14
0,52,127,3
0,42,124,28
0,52,118,2
0,57,104,104
0,52,93,1
0,52,126,13
0,40,126,1
0,28,127,2
0,52,124,10
0,59,105,2
0,42,127,1
0,52,123,3
0,57,105,13
0,28,127,1
0,40,126,0
0,59,104,20
0,57,104,12
0,52,107,1
0,52,126,1
0,59,95,16
0,50,94,1
0,52,95,0
0,56,94,0
0,42,125,1
0,54,105,1
0,52,118,0
0,52,71,137
0,66,105,13
0,61,94,11
0,52,95,1
0,58,95,0
0,52,126,2
0,54,93,17
0,42,127,150
0,54,126,0
0,30,127,1
0,42,124,7
0,54,124,2
0,54,123,1
0,30,126,5
0,71,94,0
0,42,126,4
0,73,94,4
0,76,95,14
0,78,95,64
0,54,106,4
0,54,127,9
0,42,125,2
0,54,119,0
0,54,92,4
0,30,127,135
0,54,127,0
0,42,126,1
0,42,124,11
0,54,124,2
0,54,122,2
0,30,127,14
0,42,127,1
0,37,101,5
0,54,107,1
0,35,51,2
0,37,100,8
0,35,74,2
0,35,105,11
0,42,101,1
0,54,127,8
0,35,115,9
0,49,101,4
0,38,85,4
0,54,118,1
0,62,100,1
0,44,105,1
0,40,127,2
0,61,97,3
0,60,96,2
0,59,94,0
0,58,93,2
0,57,93,3
0,56,90,3
0,55,88,3
0,54,87,0
0,53,85,0
0,54,70,4
0,52,82,1
0,51,82,0
0,50,81,3
0,49,78,2
0,48,75,12
0,47,73,3
0,46,70,2
0,45,69,9
0,44,66,4
0,43,62,14
0,42,61,2
0,41,59,3
0,40,54,11
0,39,50,3
0,38,49,1
0,37,45,11
0,36,38,3
0,35,34,10
0,34,30,1
0,33,24,3
0,32,18,3
0,31,11,3
0,28,111,4
0,40,110,0
0,52,126,0
0,35,126,0
0,49,85,2
0,42,61,0
0,42,66,7
0,42,93,19
0,54,93,2
0,30,127,7
0,54,127,0
0,42,126,3
0,35,95,0
0,42,91,0
0,54,124,56
0,64,105,2
0,42,126,1
0,40,126,1
0,35,94,107
0,54,122,0
0,40,83,1
0,42,84,0
0,28,83,1
0,42,60,18
0,41,94,1
0,35,126,0
0,66,104,1
0,30,126,0
0,42,115,0
0,29,95,1
0,42,127,1
0,42,95,8
0,42,126,4
0,66,104,2
0,35,127,2
0,42,68,137
0,42,107,60
0,39,110,1
0,54,107,1
0,27,110,1
0,54,126,13
0,42,88,2
0,40,127,16
0,42,125,1
0,66,105,1
0,54,119,2
0,42,85,140
0,42,118,19
0,64,104,1
0,35,95,140
0,42,91,0
0,28,111,19
0,42,61,0
0,40,111,1
0,66,105,0
0,42,126,0
0,35,126,1
0,42,76,8
0,42,115,7
0,54,93,1
0,64,105,1
0,35,94,7
0,42,101,0
0,42,127,1
0,54,126,1
0,30,126,1
0,40,127,18
0,42,124,0
0,66,104,2
0,54,125,0
0,28,82,116
0,42,90,0
0,54,122,0
0,42,61,0
0,40,82,1
0,35,95,3
0,29,95,18
0,64,105,2
0,42,115,0
0,41,95,1
0,42,126,0
0,30,127,1
0,35,127,0
0,42,93,8
0,66,104,6
0,42,124,1
0,35,126,1
0,42,82,138
0,39,110,20
0,68,104,0
0,54,106,0
0,46,101,1
0,27,110,1
0,54,127,13
0,40,126,16
0,54,119,0
0,42,125,1
0,54,70,1
0,42,84,1
0,42,117,59
0,35,94,35
0,42,89,2
0,35,127,56
0,42,60,1
0,40,111,1
0,52,127,0
0,42,124,0
0,28,110,1
0,42,91,6
0,42,116,19
0,54,92,3
0,54,127,6
0,30,126,1
0,54,105,1
0,42,126,1
0,42,76,0
0,35,94,1
0,40,127,13
0,64,105,2
0,42,125,0
0,54,125,1
0,28,83,24
0,40,83,2
0,42,93,0
0,54,122,0
0,35,95,1
0,41,94,19
0,30,127,0
0,66,104,1
0,42,61,0
0,29,95,1
0,42,126,0
0,35,127,0
0,42,122,0
0,42,100,10
0,66,104,6
0,42,127,1
0,35,126,1
0,42,99,134
0,39,110,18
0,54,106,0
0,27,110,2
0,42,116,1
0,54,127,12
0,42,98,2
0,40,126,18
0,42,127,0
0,54,118,2
0,64,105,138
0,42,90,1
0,42,115,58
0,66,105,20
0,35,95,79
0,42,91,0
0,40,111,18
0,28,111,2
0,66,104,0
0,35,126,0
0,42,60,1
0,42,124,1
0,42,67,6
0,54,93,37
0,42,92,3
0,42,90,6
0,54,127,2
0,30,127,2
0,42,127,0
0,35,94,0
0,42,127,18
0,54,124,0
0,69,104,2
0,40,126,2
0,35,95,46
0,28,82,2
0,42,85,0
0,54,123,0
0,40,82,1
0,42,114,18
0,30,126,1
0,68,105,1
0,35,127,1
0,29,95,1
0,41,95,0
0,42,127,0
0,42,60,0
0,42,94,10
0,46,74,5
0,69,104,1
0,35,126,0
0,42,69,127
0,39,110,20
0,68,105,0
0,46,101,0
0,27,110,1
0,53,106,0
0,53,126,12
0,66,105,19
0,40,127,0
0,53,119,0
0,42,125,2
0,42,84,138
0,53,71,0
0,68,104,20
0,42,118,1
0,35,94,141
0,42,91,0
0,38,111,56
0,40,61,0
0,26,110,2
0,50,126,0
0,35,127,0
0,42,84,2
0,42,67,9
0,52,92,18
0,66,105,2
0,42,93,0
0,28,126,6
0,40,127,0
0,52,126,0
0,35,95,1
0,42,90,1
0,64,104,20
0,42,127,0
0,40,127,2
0,52,125,0
0,28,83,120
0,42,84,0
0,52,123,0
0,40,83,1
0,35,94,3
0,40,127,56
0,35,126,0
0,42,114,0
0,28,126,2
0,27,94,2
0,39,95,0
0,40,61,0
0,42,95,2
0,35,127,4
0,42,127,2
0,42,68,116
0,25,110,18
0,37,110,0
0,52,106,1
0,42,106,2
0,42,89,13
0,52,126,1
0,40,126,21
0,42,125,1
0,52,119,2
0,42,84,139
0,42,118,60
0,42,91,137
0,35,94,3
0,42,126,57
0,40,60,1
0,26,111,1
0,35,127,0
0,38,111,2
0,42,77,8
0,52,92,37
0,57,104,1
0,42,115,0
0,52,127,6
0,35,95,2
0,28,126,1
0,40,127,0
0,42,100,1
0,40,126,18
0,52,125,0
0,59,105,2
0,42,125,0
0,35,94,117
0,52,122,2
0,26,82,1
0,38,82,0
0,42,90,0
0,28,127,18
0,42,114,0
0,57,105,2
0,27,95,1
0,39,95,0
0,40,126,0
0,35,127,1
0,40,60,0
0,42,93,9
0,35,126,5
0,42,125,0
0,59,104,1
0,42,82,46
0,26,110,19
0,38,110,0
0,52,107,0
0,57,104,1
0,46,101,1
0,52,126,78
0,42,124,70
0,40,127,1
0,52,118,1
0,42,85,79
0,52,71,2
0,42,117,18
0,66,105,2
0,35,94,143
0,42,88,0
0,42,124,57
0,40,111,1
0,42,61,0
0,28,110,1
0,52,126,0
0,35,127,0
0,42,91,5
0,42,116,19
0,54,93,0
0,42,127,8
0,35,95,0
0,30,126,1
0,54,126,0
0,42,77,1
0,54,124,59
0,40,127,1
0,42,125,0
0,35,94,117
0,54,123,1
0,28,83,1
0,40,83,2
0,42,92,0
0,42,123,56
0,42,127,1
0,42,61,0
0,29,94,1
0,30,127,0
0,35,126,0
0,41,95,2
0,42,100,10
0,42,126,4
0,35,127,2
0,42,99,116
0,39,110,60
0,42,117,1
0,54,107,0
0,27,110,2
0,42,98,1
0,54,126,0
0,42,126,17
0,40,126,2
0,54,118,1
0,42,91,137
0,42,115,61
0,35,95,140
0,42,90,2
0,28,111,56
0,76,67,1
0,42,124,1
0,42,60,0
0,40,111,1
0,35,126,1
0,76,67,0
0,80,76,7
0,80,76,9
0,85,95,12
0,85,95,7
0,79,77,4
0,79,77,4
0,75,92,9
0,75,92,0
0,79,71,3
0,42,67,5
0,79,71,2
0,84,80,9
0,84,80,0
0,78,80,2
0,78,80,0
0,74,59,12
0,42,92,5
0,74,59,11
0,78,69,3
0,78,69,0
0,83,64,8
0,83,64,1
0,77,72,12
0,77,72,1
0,73,85,9
0,73,85,0
0,77,59,10
0,42,126,4
0,35,94,0
0,30,127,2
0,42,91,1
0,77,59,4
0,82,86,4
0,82,86,2
0,76,74,8
0,76,74,9
0,72,39,12
0,40,126,4
0,42,127,2
0,72,39,12
0,76,64,4
0,76,64,3
0,81,75,9
0,81,75,9
0,75,75,7
0,75,75,0
0,71,68,9
0,71,68,7
0,75,73,12
0,40,82,10
0,35,95,0
0,42,84,0
0,75,73,3
0,28,82,0
0,80,88,2
0,80,88,7
0,74,66,13
0,74,66,0
0,70,81,7
0,30,126,8
0,42,126,0
0,35,126,1
0,42,60,1
0,42,115,1
0,29,95,1
0,41,95,0
0,70,81,6
0,74,69,3
0,74,69,11
0,79,76,3
0,79,76,2
0,73,76,9
0,73,76,1
0,69,67,11
0,69,67,2
0,73,87,6
0,35,95,9
0,42,94,0
0,73,87,2
0,78,80,9
0,78,80,1
0,72,76,13
0,72,76,2
0,68,67,1
0,35,127,5
0,40,127,0
0,46,74,1
0,68,67,7
0,72,76,4
0,72,76,1
0,77,95,12
0,77,95,0
0,71,77,6
0,71,77,4
0,67,92,10
0,67,92,9
0,71,71,9
0,42,68,8
0,71,71,2
0,76,80,11
0,76,80,0
0,70,80,9
0,70,80,7
0,66,59,10
0,27,110,5
0,41,119,0
0,39,110,0
0,46,101,1
0,66,59,2
0,70,69,0
0,70,69,1
0,75,64,8
0,75,64,1
0,69,72,10
0,69,72,3
0,65,85,7
0,65,85,0
0,69,59,2
0,69,59,8
0,74,86,3
0,74,86,1
0,68,74,4
0,68,74,1
0,69,93,16
0,58,105,1
0,40,126,0
0,44,124,1
0,69,93,6
0,68,94,2
0,67,93,0
0,68,94,2
0,66,93,3
0,67,93,3
0,65,90,1
0,66,93,2
0,64,91,1
0,65,90,3
0,63,90,6
0,64,91,3
0,62,88,2
0,63,90,7
0,61,87,2
0,43,95,4
0,62,88,0
0,60,87,4
0,61,87,7
0,59,84,2
0,60,87,0
0,58,82,2
0,59,84,3
0,57,83,4
0,58,82,2
0,56,81,1
0,57,83,0
0,55,78,1
0,41,114,2
0,59,104,2
0,44,119,0
0,56,81,0
0,54,78,3
0,55,78,0
0,53,77,0
0,54,78,3
0,52,74,4
0,53,77,2
0,51,73,0
0,52,74,0
0,50,71,1
0,51,73,3
0,49,68,2
0,50,71,0
0,48,65,10
0,49,68,4
0,47,62,6
0,48,65,1
0,46,60,6
0,47,62,1
0,45,57,1
0,46,60,5
0,44,55,1
0,45,57,1
0,35,94,10
0,43,50,0
0,44,55,4
0,42,46,7
0,43,50,1
0,41,41,11
0,42,46,2
0,40,37,2
0,41,41,4
0,40,37,3
0,42,91,6
0,64,78,0
0,68,88,1
0,70,89,0
0,28,111,1
0,40,110,0
0,61,104,0
0,52,127,0
0,35,127,0
0,49,84,0
0,54,61,0
0,73,86,0
0,42,61,0
0,54,40,6
0,42,67,1
0,54,104,0
0,54,51,1
0,54,92,0
0,61,119,1
0,42,93,1
0,66,91,0
0,42,127,6
0,66,76,0
0,54,126,0
0,30,126,1
0,54,62,0
0,61,115,0
0,42,90,1
0,35,94,1
0,54,48,2
0,54,125,0
0,42,126,1
0,66,105,1
0,66,123,0
0,40,127,2
0,42,85,6
0,35,94,1
0,28,83,1
0,40,83,0
0,54,55,0
0,54,122,0
0,54,108,1
0,35,127,1
0,42,115,0
0,61,122,0
0,66,93,0
0,64,69,0
0,29,94,1
0,64,98,0
0,41,95,1
0,54,45,0
0,42,60,0
0,30,126,1
0,42,127,0
0,42,94,5
0,54,60,0
0,54,48,1
0,42,89,0
0,66,115,1
0,58,104,1
0,44,88,0
0,61,103,0
0,35,127,1
0,42,126,0
0,54,55,37
0,42,69,2
0,39,110,30
0,27,110,1
0,42,106,0
0,54,45,0
0,54,114,0
0,54,107,0
0,54,127,11
0,42,89,1
0,54,50,1
0,42,125,6
0,54,38,0
0,54,118,1
0,59,105,1
0,66,103,0
0,40,127,1
0,61,117,0
0,54,51,14
0,42,84,1
0,61,105,8
0,42,119,1
0,54,44,1
0,54,106,0
0,35,94,11
0,42,90,2
0,54,45,1
0,28,111,7
0,42,98,0
0,40,111,1
0,64,87,0
0,42,61,0
0,54,61,2
0,66,80,0
0,35,126,1
0,42,126,0
0,61,101,0
0,58,116,0
0,61,105,0
0,54,40,6
0,54,103,0
0,42,77,1
0,61,98,20
0,54,93,0
0,61,108,1
0,66,100,0
0,66,83,1
0,42,115,1
0,58,127,0
0,54,51,1
0,64,97,0
0,42,127,8
0,42,100,0
0,54,62,0
0,61,117,0
0,54,126,0
0,35,95,1
0,66,96,0
0,30,126,1
0,40,126,6
0,66,98,0
0,70,112,0
0,54,48,1
0,54,124,0
0,64,101,0
0,42,124,2
0,61,125,1
0,54,55,11
0,42,91,1
0,42,61,0
0,40,82,1
0,35,95,0
0,28,82,1
0,54,95,0
0,54,123,0
0,29,95,6
0,42,126,0
0,70,78,0
0,64,68,0
0,61,122,1
0,54,45,1
0,41,95,1
0,30,127,0
0,35,126,0
0,42,115,0
0,64,68,0
0,68,83,0
0,66,100,0
0,66,90,1
0,73,83,0
0,58,117,0
0,61,124,0
0,42,92,8
0,54,60,1
0,35,126,4
0,42,124,1
0,70,113,0
0,54,117,1
0,54,48,1
0,64,91,0
0,66,104,0
0,73,117,1
0,42,83,11
0,54,55,3
0,46,100,5
0,61,113,0
0,27,110,1
0,66,82,1
0,54,107,1
0,39,110,1
0,54,45,0
0,70,90,8
0,73,96,1
0,78,77,1
0,54,50,1
0,54,126,0
0,75,89,0
0,54,38,4
0,42,124,1
0,61,96,0
0,58,104,1
0,64,98,0
0,70,117,0
0,40,127,1
0,54,118,0
0,54,112,1
0,66,107,0
0,59,97,6
0,64,87,0
0,54,71,0
0,42,85,2
0,54,51,0
0,54,44,18
0,71,88,1
0,73,92,0
0,59,105,1
0,42,117,0
0,68,107,0
0,76,78,2
0,54,45,9
0,35,95,3
0,42,88,1
0,54,112,0
0,52,126,5
0,42,125,1
0,40,111,1
