track,note,velocity,time
0,42,95,192
0,42,0,23
0,42,95,73
0,42,0,4
0,42,95,59
0,42,0,5
0,42,99,67
0,42,0,1
0,42,117,0
0,57,112,0
0,60,117,0
0,69,117,0
0,52,117,1
0,64,124,1
0,64,0,11
0,69,0,0
0,60,0,2
0,42,0,0
0,44,101,1
0,52,0,15
0,44,0,1
0,57,0,1
0,42,101,0
0,48,76,2
0,60,88,0
0,60,0,19
0,48,0,0
0,64,117,1
0,57,97,0
0,42,0,1
0,44,88,1
0,52,101,0
0,69,112,0
0,60,106,2
0,60,0,19
0,52,0,0
0,57,0,0
0,64,0,0
0,69,0,0
0,44,0,2
0,42,101,1
0,48,88,22
0,42,0,1
0,44,88,1
0,60,73,0
0,60,0,21
0,48,0,0
0,44,0,2
0,64,117,0
0,42,112,1
0,57,101,0
0,60,117,0
0,52,112,1
0,69,117,0
0,69,0,20
0,64,0,0
0,57,0,0
0,60,0,0
0,52,0,0
0,42,0,2
0,44,101,1
0,44,0,23
0,42,117,1
0,42,0,23
0,37,106,25
0,82,56,0
0,69,59,0
0,64,62,1
0,60,65,0
0,60,0,20
0,69,0,0
0,64,0,0
0,37,0,2
0,64,80,23
0,52,71,0
0,69,83,1
0,82,0,1
0,69,80,0
0,37,124,0
0,57,76,0
0,60,76,2
0,60,0,19
0,64,0,0
0,52,0,0
0,69,0,0
0,57,0,0
0,37,0,2
0,57,73,23
0,36,80,2
0,52,80,0
0,60,73,1
0,60,0,20
0,57,0,0
0,52,0,0
0,36,0,2
0,53,117,24
0,69,0,1
0,44,124,0
0,36,63,0
0,57,117,0
0,57,112,0
0,60,124,2
0,65,112,0
0,65,0,19
0,57,0,0
0,36,0,2
0,44,0,0
0,42,106,1
0,53,0,22
0,60,0,0
0,57,0,0
0,42,0,1
0,57,73,0
0,44,76,1
0,48,80,2
0,48,0,19
0,57,0,0
0,44,0,2
0,57,92,0
0,65,106,0
0,53,101,0
0,42,88,1
0,60,106,0
0,57,101,2
0,57,0,19
0,65,0,0
0,57,0,0
0,53,0,0
0,60,0,0
0,42,0,2
0,44,92,1
0,44,0,23
0,42,97,1
0,57,97,0
0,48,97,1
0,48,0,20
0,57,0,0
0,57,92,1
0,42,0,1
0,60,106,0
0,44,80,1
0,82,72,0
0,65,106,0
0,53,73,1
0,57,101,1
0,57,0,19
0,65,0,0
0,60,0,0
0,57,0,0
0,53,0,0
0,44,0,2
0,42,117,1
0,42,0,23
0,82,0,1
0,69,83,0
0,44,117,0
0,44,0,23
0,52,92,23
0,64,112,0
0,37,76,2
0,56,101,0
0,59,106,2
0,56,112,0
0,56,0,19
0,56,0,0
0,52,0,0
0,64,0,0
0,59,0,0
0,37,0,2
0,59,117,23
0,69,0,2
0,64,92,0
0,76,101,0
0,37,124,0
0,56,124,0
0,64,117,2
0,52,112,1
0,56,117,1
0,64,0,17
0,59,0,0
0,56,0,0
0,64,0,2
0,37,0,0
0,76,0,0
0,71,88,1
0,83,101,0
0,52,0,10
0,56,0,1
0,71,0,12
0,83,0,0
0,76,97,1
0,88,112,0
0,88,0,23
0,76,0,0
0,69,117,23
0,52,117,0
0,64,124,0
0,42,117,2
0,36,117,0
0,57,112,1
0,60,117,1
0,60,0,11
0,69,0,0
0,64,0,0
0,42,0,2
0,44,101,1
0,52,0,15
0,57,0,0
0,44,0,1
0,48,76,0
0,42,101,1
0,60,88,2
0,60,0,19
0,48,0,0
0,64,117,1
0,42,0,1
0,57,97,0
0,52,101,0
0,36,0,1
0,44,88,0
0,37,106,0
0,60,106,1
0,69,112,1
0,69,0,19
0,64,0,0
0,57,0,0
0,52,0,0
0,60,0,0
0,44,0,2
0,37,0,0
0,42,101,1
0,42,0,23
0,44,88,1
0,48,88,1
0,60,73,0
0,60,0,20
0,48,0,0
0,64,117,1
0,60,117,0
0,69,117,0
0,44,0,1
0,57,101,0
0,36,97,1
0,42,112,0
0,52,112,1
0,52,0,20
0,60,0,0
0,64,0,0
0,69,0,0
0,57,0,0
0,42,0,2
0,36,0,0
0,44,101,1
0,44,0,23
0,42,117,1
0,42,0,23
0,69,59,24
0,37,106,1
0,82,56,0
0,64,62,2
0,60,65,0
0,60,0,19
0,69,0,0
0,64,0,0
0,37,0,2
0,64,80,23
0,52,71,0
0,60,76,0
0,82,0,2
0,88,106,0
0,76,106,0
0,69,80,0
0,37,124,0
0,69,83,0
0,57,76,0
0,57,0,21
0,60,0,0
0,69,0,0
0,64,0,0
0,52,0,0
0,76,0,2
0,88,0,0
0,37,0,0
0,72,101,1
0,84,101,0
0,84,0,23
0,72,0,0
0,81,106,1
0,69,106,0
0,36,80,0
0,57,73,0
0,52,80,1
0,60,73,0
0,60,0,20
0,57,0,0
0,52,0,0
0,69,0,2
0,36,0,0
0,81,0,0
0,76,101,1
0,64,106,0
0,65,112,22
0,64,0,1
0,76,0,0
0,57,117,0
0,57,112,0
0,69,0,1
0,65,112,0
0,77,117,0
0,44,124,0
0,36,63,0
0,60,124,0
0,53,117,1
0,65,0,20
0,57,0,0
0,44,0,2
0,36,0,0
0,42,106,1
0,53,0,22
0,60,0,0
0,57,0,0
0,42,0,1
0,48,80,0
0,44,76,1
0,57,73,0
0,57,0,21
0,48,0,0
0,57,101,1
0,44,0,1
0,42,88,1
0,37,106,0
0,57,92,0
0,53,101,0
0,60,106,0
0,65,106,1
0,65,0,20
0,60,0,0
0,53,0,0
0,57,0,0
0,57,0,0
0,42,0,2
0,37,0,0
0,44,92,1
0,44,0,23
0,42,97,1
0,57,97,1
0,48,97,1
0,48,0,19
0,57,0,0
0,53,73,1
0,60,106,0
0,42,0,1
0,57,101,0
0,44,80,1
0,82,72,0
0,36,101,0
0,57,92,2
0,65,106,0
0,65,0,19
0,60,0,0
0,57,0,0
0,53,0,0
0,57,0,0
0,36,0,2
0,44,0,0
0,42,117,1
0,42,0,23
0,77,0,1
0,65,0,0
0,82,0,0
0,76,92,0
0,64,92,0
0,69,83,0
0,44,117,0
0,36,112,0
0,36,0,23
0,44,0,0
0,56,112,23
0,52,92,0
0,37,76,2
0,48,55,0
0,59,106,0
0,56,101,1
0,64,112,1
0,64,0,19
0,56,0,0
0,52,0,0
0,56,0,0
0,59,0,0
0,37,0,2
0,48,0,0
0,64,117,23
0,69,0,2
0,64,92,0
0,76,101,0
0,47,97,0
0,37,124,0
0,56,124,0
0,59,117,2
0,56,117,0
0,84,112,1
0,52,112,1
0,83,117,0
0,81,117,3
0,84,0,1
0,83,0,3
0,79,117,0
0,81,0,3
0,77,124,0
0,79,0,4
0,76,117,0
0,59,0,3
0,64,0,0
0,56,0,0
0,77,0,0
0,74,117,1
0,76,0,1
0,64,0,0
0,37,0,0
0,47,0,0
0,71,88,1
0,83,101,0
0,76,0,1
0,72,117,0
0,71,117,4
0,74,0,2
0,52,0,3
0,56,0,1
0,69,117,0
0,72,0,1
0,67,117,3
0,71,0,2
0,65,117,3
0,69,0,1
0,83,0,2
0,71,0,0
0,76,0,1
0,64,0,0
0,76,97,0
0,88,112,0
0,45,80,0
0,64,117,0
0,67,0,2
0,62,112,3
0,65,0,2
0,60,112,3
0,64,0,1
0,59,117,3
0,62,0,2
0,57,117,3
0,60,0,1
0,76,0,3
0,45,0,0
0,88,0,0
0,59,0,1
0,43,88,0
0,55,117,0
0,53,117,3
0,57,0,1
0,52,106,3
0,55,0,1
0,53,0,3
0,52,0,0
0,50,101,0
0,50,0,5
0,43,0,7
0,69,117,0
0,52,117,0
0,33,106,1
0,57,101,0
0,69,106,0
0,60,106,0
0,64,112,0
0,33,106,0
0,45,117,0
0,76,97,0
0,88,92,0
0,42,112,0
0,36,117,0
0,80,64,0
0,80,0,0
0,57,80,0
0,64,124,0
0,60,117,1
0,57,112,0
0,57,0,3
0,60,0,8
0,64,0,0
0,69,0,0
0,33,0,2
0,42,0,0
0,80,69,1
0,42,92,0
0,52,0,1
0,57,0,0
0,42,0,1
0,80,0,0
0,33,0,1
0,36,0,0
0,64,124,0
0,45,101,0
0,64,88,0
0,69,80,0
0,52,101,0
0,42,83,0
0,80,76,0
0,60,88,0
0,48,76,0
0,69,117,1
0,72,106,0
0,48,0,10
0,60,0,0
0,64,0,2
0,45,0,0
0,52,0,0
0,80,0,0
0,69,0,0
0,42,0,0
0,33,92,1
0,64,97,0
0,69,88,0
0,52,106,0
0,42,80,0
0,36,92,0
0,52,101,0
0,57,97,0
0,64,117,1
0,60,106,1
0,69,112,0
0,69,0,19
0,60,0,0
0,52,0,0
0,64,0,0
0,57,0,0
0,36,0,2
0,42,0,0
0,64,0,0
0,52,0,0
0,33,0,0
0,69,0,0
0,64,0,1
0,52,112,0
0,42,106,0
0,40,117,0
0,81,101,0
0,72,0,10
0,69,0,0
0,42,0,1
0,52,0,0
0,81,0,0
0,40,0,0
0,64,124,0
0,45,117,0
0,42,83,0
0,48,88,0
0,60,73,0
0,69,117,0
0,72,106,0
0,60,0,5
0,48,0,0
0,64,117,1
0,42,0,1
0,45,0,0
0,57,101,0
0,33,97,1
0,64,112,0
0,69,106,0
0,52,117,0
0,80,70,0
0,36,92,0
0,42,88,0
0,52,112,0
0,69,117,0
0,60,117,1
0,60,0,20
0,69,0,0
0,52,0,0
0,57,0,0
0,64,0,0
0,80,0,2
0,52,0,0
0,42,0,0
0,64,0,0
0,33,0,0
0,69,0,0
0,64,0,1
0,69,0,0
0,72,0,0
0,42,63,0
0,42,0,23
0,36,0,1
0,62,124,0
0,33,92,0
0,50,124,0
0,42,97,0
0,67,117,1
0,71,124,0
0,42,0,22
0,33,0,0
0,62,0,0
0,42,70,1
0,71,0,5
0,67,0,1
0,69,59,16
0,42,0,1
0,69,112,0
0,64,101,0
0,64,62,0
0,50,0,1
0,33,62,0
0,60,106,0
0,45,83,0
0,64,63,0
0,48,101,0
0,82,76,0
0,36,80,0
0,42,92,0
0,80,65,0
0,60,65,2
0,64,0,9
0,69,0,0
0,88,0,6
0,76,0,1
0,69,0,3
0,60,0,0
0,64,0,0
0,45,0,2
0,80,0,0
0,48,0,0
0,42,0,0
0,60,0,0
0,33,0,0
0,64,0,0
0,60,124,1
0,64,101,0
0,69,117,0
0,64,61,0
0,48,117,0
0,42,80,0
0,42,0,1
0,48,0,0
0,64,0,0
0,52,71,0
0,82,0,1
0,33,112,0
0,33,97,0
0,88,106,0
0,76,106,0
0,69,80,0
0,42,106,0
0,37,112,0
0,80,65,0
0,60,76,0
0,57,76,0
0,69,83,1
0,64,80,0
0,64,0,1
0,69,0,0
0,69,0,0
0,57,0,0
0,52,0,0
0,60,0,0
0,64,0,1
0,42,0,1
0,80,0,0
0,37,0,0
0,76,0,0
0,33,0,0
0,88,0,0
0,60,0,1
0,72,101,0
0,84,101,0
0,42,71,0
0,60,73,10
0,42,0,1
0,84,0,0
0,72,0,0
0,45,0,1
0,33,0,0
0,69,0,0
0,60,117,0
0,69,112,0
0,64,97,0
0,45,88,0
0,64,92,0
0,69,72,0
0,48,112,0
0,81,106,0
0,69,106,0
0,82,80,0
0,42,97,0
0,37,92,0
0,80,63,0
0,52,80,1
0,57,73,0
0,64,0,14
0,69,0,1
0,60,0,5
0,57,0,0
0,52,0,0
0,64,0,2
0,42,0,0
0,69,0,0
0,80,0,0
0,37,0,0
0,45,0,0
0,69,0,0
0,60,0,0
0,81,0,0
0,36,0,1
0,62,106,0
0,76,101,0
0,64,106,0
0,42,59,0
0,67,97,2
0,71,92,1
0,67,0,9
0,71,0,1
0,65,117,3
0,64,0,4
0,53,117,2
0,64,0,1
0,76,0,0
0,42,0,0
0,62,0,0
0,48,0,1
0,29,117,0
0,62,117,0
0,69,112,0
0,29,117,0
0,41,112,0
0,65,112,0
0,77,117,0
0,69,83,0
0,42,106,0
0,36,106,0
0,80,76,0
0,57,112,0
0,72,112,1
0,65,112,0
0,60,124,0
0,57,117,1
0,65,0,1
0,57,0,0
0,42,0,1
0,80,0,0
0,62,0,0
0,82,0,1
0,42,69,0
0,80,73,0
0,72,0,2
0,69,0,2
0,65,101,9
0,53,0,5
0,60,0,0
0,57,0,0
0,42,0,1
0,80,0,0
0,36,0,1
0,29,0,0
0,29,0,0
0,60,117,0
0,65,106,0
0,69,97,0
0,50,112,0
0,42,92,0
0,80,80,0
0,57,73,2
0,48,80,0
0,65,0,1
0,69,117,16
0,72,106,1
0,48,0,1
0,57,0,0
0,65,106,1
0,65,0,1
0,60,0,0
0,80,0,0
0,50,0,0
0,69,0,0
0,42,0,0
0,29,106,1
0,60,112,0
0,41,101,0
0,69,88,0
0,65,92,0
0,50,106,0
0,42,70,0
0,36,76,0
0,60,106,1
0,57,92,0
0,57,101,0
0,53,101,1
0,53,0,19
0,65,0,0
0,57,0,0
0,57,0,0
0,60,0,0
0,50,0,2
0,65,0,0
0,42,0,0
0,69,0,0
0,41,0,0
0,29,0,0
0,42,106,1
0,40,124,0
0,81,97,0
0,72,0,2
0,69,0,2
0,65,101,2
0,81,0,3
0,42,0,0
0,48,97,0
0,36,0,1
0,60,0,0
0,48,117,0
0,42,88,0
0,57,97,0
0,65,0,1
0,57,0,11
0,48,0,0
0,69,112,0
0,72,106,1
0,57,101,0
0,53,73,0
0,42,0,1
0,57,92,0
0,40,0,1
0,29,106,0
0,60,117,0
0,41,112,0
0,65,97,0
0,69,101,0
0,42,92,0
0,36,92,0
0,80,68,0
0,60,106,2
0,65,106,0
0,72,0,15
0,69,0,1
0,65,97,2
0,60,0,1
0,57,0,0
0,65,0,0
0,53,0,0
0,57,0,0
0,60,0,1
0,41,0,1
0,69,0,0
0,60,0,0
0,65,0,0
0,42,0,0
0,80,0,0
0,29,0,0
0,48,0,1
0,41,0,0
0,62,101,0
0,42,70,0
0,65,0,3
0,65,0,4
0,57,0,1
0,69,0,2
0,64,101,3
0,56,117,0
0,68,101,0
0,59,112,1
0,62,0,9
0,42,0,0
0,77,0,1
0,36,0,0
0,65,0,0
0,62,112,0
0,28,101,0
0,50,124,0
0,76,92,0
0,64,92,0
0,42,97,0
0,80,70,0
0,80,0,23
0,50,0,0
0,28,0,0
0,42,0,0
0,62,0,0
0,60,112,1
0,42,80,0
0,37,76,0
0,68,112,19
0,71,112,0
0,52,92,3
0,64,112,0
0,56,101,0
0,37,0,1
0,42,0,0
0,60,0,0
0,56,112,0
0,69,0,1
0,28,112,0
0,60,112,0
0,40,106,0
0,48,106,0
0,36,71,0
0,42,88,0
0,80,69,0
0,82,73,0
0,59,106,1
0,71,0,8
0,68,0,2
0,59,0,10
0,64,0,0
0,52,0,0
0,56,0,0
0,56,0,0
0,40,0,2
0,48,0,0
0,80,0,0
0,42,0,0
0,82,0,0
0,28,0,0
0,60,0,0
0,62,112,1
0,48,117,0
0,42,76,0
0,69,72,0
0,68,117,20
0,71,117,0
0,69,0,3
0,42,0,0
0,62,0,0
0,28,117,1
0,62,117,0
0,40,124,0
0,64,92,0
0,76,101,0
0,82,83,0
0,42,101,0
0,37,124,0
0,81,68,0
0,64,117,0
0,56,124,1
0,59,117,1
0,52,112,0
0,56,117,1
0,59,0,2
0,56,0,0
0,64,0,0
0,42,0,2
0,64,0,0
0,76,0,0
0,37,0,0
0,81,0,0
0,71,88,1
0,83,101,0
0,42,70,0
0,52,0,1
0,56,0,1
0,42,0,2
0,83,0,0
0,71,0,0
0,62,0,1
0,36,0,0
0,48,0,0
0,28,0,0
0,82,0,0
0,76,0,0
0,64,0,0
0,60,117,0
0,50,124,0
0,76,97,0
0,88,112,0
0,69,83,0
0,37,71,0
0,42,106,0
0,59,0,2
0,56,0,1
0,60,0,1
0,88,0,0
0,76,0,0
0,42,0,0
0,69,0,0
0,37,0,0
0,46,64,1
0,64,0,3
0,68,0,2
0,68,0,4
0,71,0,1
0,57,117,4
0,64,106,1
0,60,106,1
0,69,112,0
0,52,117,3
0,46,0,1
0,69,117,0
0,57,112,0
0,50,0,1
0,40,0,0
0,33,117,0
0,33,117,0
0,45,127,0
0,42,112,0
0,36,117,0
