track,note,velocity,time
0,67,102,292
0,67,0,21
0,67,71,19
0,67,0,28
0,67,95,29
0,67,0,24
0,66,58,19
0,66,0,26
0,64,83,9
0,64,0,5
0,64,66,24
0,64,0,22
0,62,64,39
0,62,0,22
0,64,74,25
0,64,0,23
0,64,62,27
0,64,0,22
0,64,74,28
0,64,0,38
0,62,35,10
0,62,0,29
0,64,83,22
0,40,113,156
0,40,0,27
0,64,0,76
0,35,105,0
0,40,90,1
0,28,109,4
0,35,0,81
0,40,107,17
0,40,0,30
0,28,0,9
0,35,98,11
0,47,60,0
0,35,96,4
0,35,0,37
0,47,0,2
0,52,91,5
0,35,0,2
0,40,102,4
0,35,95,54
0,35,0,35
0,40,106,16
0,40,0,35
0,52,0,5
0,40,0,1
0,33,104,2
0,45,91,0
0,35,101,7
0,35,0,42
0,45,0,2
0,33,0,6
0,40,0,45
0,35,101,7
0,35,0,36
0,40,107,16
0,36,91,43
0,40,0,6
0,48,99,2
0,36,0,27
0,48,0,10
0,40,111,1
0,52,99,9
0,35,99,2
0,40,0,4
0,35,88,12
0,35,0,6
0,52,0,3
0,47,83,3
0,35,0,30
0,47,0,8
0,39,96,2
0,40,106,0
0,51,81,8
0,40,0,35
0,51,0,50
0,40,101,5
0,35,91,1
0,39,0,8
0,28,91,3
0,35,0,51
0,40,99,43
0,40,0,36
0,28,0,4
0,47,79,2
0,40,0,2
0,35,81,6
0,35,91,3
0,35,0,11
0,47,0,13
0,35,0,1
0,52,91,3
0,40,104,8
0,35,93,3
0,35,0,63
0,40,106,35
0,40,0,37
0,52,0,4
0,40,0,3
0,45,96,3
0,35,99,1
0,33,102,7
0,35,0,32
0,33,0,17
0,45,0,7
0,35,106,36
0,35,0,36
0,40,106,19
0,40,0,41
0,48,88,0
0,36,84,5
0,36,0,37
0,48,0,1
0,52,93,10
0,40,105,5
0,35,99,0
0,52,0,38
0,40,0,3
0,35,0,3
0,47,74,2
0,35,84,8
0,47,0,18
0,35,0,13
0,51,77,10
0,40,110,4
0,39,91,3
0,59,70,50
0,64,81,0
0,40,0,4
0,64,0,14
0,59,0,1
0,51,0,2
0,40,88,17
0,39,0,3
0,64,96,7
0,59,67,3
0,28,99,1
0,35,96,1
0,59,0,8
0,64,0,16
0,64,95,20
0,35,0,19
0,64,0,4
0,64,96,20
0,40,104,6
0,28,0,16
0,64,0,20
0,62,74,6
0,40,0,1
0,47,70,0
0,35,88,3
0,35,88,2
0,40,0,1
0,62,0,2
0,35,0,6
0,47,0,10
0,35,0,1
0,64,96,4
0,52,90,2
0,35,86,2
0,40,104,1
0,64,0,12
0,64,91,28
0,35,0,11
0,64,0,29
0,62,83,9
0,40,106,1
0,62,0,3
0,52,0,5
0,40,0,3
0,40,0,6
0,45,88,2
0,64,95,1
0,33,93,3
0,35,93,2
0,64,0,18
0,45,0,16
0,35,0,4
0,64,93,4
0,33,0,1
0,64,0,24
0,64,95,27
0,35,93,3
0,35,0,33
0,40,107,21
0,48,70,34
0,40,0,2
0,36,91,1
0,48,0,33
0,36,0,0
0,40,109,21
0,52,67,0
0,35,99,6
0,64,0,29
0,40,0,3
0,52,0,3
0,35,88,10
0,35,0,1
0,47,54,3
0,35,0,29
0,47,0,2
0,62,77,9
0,64,98,3
0,39,95,3
0,51,60,1
0,40,106,2
0,62,0,6
0,64,0,37
0,62,60,0
0,40,0,13
0,51,0,16
0,62,0,17
0,39,0,2
0,40,77,2
0,64,102,4
0,28,101,6
0,35,93,1
0,35,0,45
0,64,0,15
0,40,105,42
0,28,0,19
0,40,0,14
0,47,62,12
0,35,95,5
0,35,86,2
0,40,0,5
0,35,0,24
0,47,0,7
0,52,77,10
0,35,0,3
0,40,101,5
0,35,84,45
0,35,0,35
0,40,105,17
0,40,0,30
0,40,0,7
0,52,0,11
0,33,101,4
0,45,79,2
0,35,93,41
0,33,0,6
0,45,0,2
0,35,0,40
0,40,110,54
0,40,0,38
0,35,88,15
0,48,83,3
0,36,95,3
0,48,0,29
0,36,0,5
0,35,0,1
0,52,74,10
0,40,109,3
0,52,0,36
0,40,0,5
0,35,75,4
0,47,71,2
0,35,90,9
0,47,0,15
0,35,0,1
0,35,0,13
0,51,68,11
0,40,105,3
0,39,95,6
0,64,91,43
0,40,0,13
0,64,0,11
0,51,0,11
0,40,70,12
0,39,0,3
0,64,93,0
0,35,95,2
0,28,102,11
0,64,0,18
0,64,95,21
0,35,0,16
0,64,0,4
0,64,93,27
0,40,102,7
0,62,75,22
0,64,0,1
0,28,0,17
0,47,63,3
0,62,0,2
0,40,0,4
0,40,0,5
0,64,96,0
0,35,91,5
0,35,93,1
0,47,0,30
0,52,84,8
0,35,0,4
0,35,0,1
0,40,98,9
0,64,0,9
0,64,101,32
0,35,88,4
0,35,0,34
0,40,106,19
0,64,0,24
0,52,0,6
0,40,0,8
0,45,79,8
0,64,83,3
0,33,101,2
0,40,0,2
0,64,0,16
0,45,0,24
0,64,93,5
0,33,0,6
0,35,93,4
0,64,0,16
0,64,86,23
0,35,0,4
0,64,0,20
0,64,90,26
0,40,102,9
0,64,0,34
0,40,0,4
0,62,69,1
0,36,86,3
0,48,79,8
0,35,84,7
0,36,0,21
0,48,0,0
0,62,0,3
0,40,110,12
0,64,93,2
0,52,73,0
0,35,0,1
0,40,0,34
0,52,0,1
0,35,86,14
0,47,58,2
0,35,79,6
0,35,0,21
0,47,0,2
0,35,0,10
0,39,93,8
0,51,71,0
0,40,107,8
0,64,0,10
0,40,0,40
0,64,95,2
0,51,0,13
0,39,0,6
0,64,0,4
0,28,101,18
0,40,96,5
0,64,96,2
0,35,102,4
0,64,0,22
0,64,93,21
0,40,0,5
0,64,0,17
0,35,0,4
0,64,95,25
0,40,104,8
0,28,0,11
0,64,0,18
0,35,79,1
0,40,0,8
0,62,74,2
0,47,60,10
0,35,86,6
0,35,0,23
0,40,99,9
0,47,0,3
0,35,0,2
0,52,83,8
0,62,0,30
0,52,0,14
0,35,96,58
0,40,104,0
0,40,0,19
0,35,0,7
0,33,110,5
0,40,0,3
0,45,99,14
0,45,0,34
0,33,0,1
0,62,95,120
0,64,99,2
0,62,0,19
0,64,0,23
0,62,90,51
0,64,104,4
0,35,90,2
0,40,102,0
0,62,0,9
0,35,0,9
0,40,0,3
0,64,0,26
0,40,110,3
0,62,69,0
0,35,74,3
0,35,0,13
0,40,0,9
0,62,0,12
0,64,104,15
0,40,106,1
0,35,96,2
0,35,0,17
0,40,0,4
0,40,104,24
0,35,70,4
0,35,0,10
0,40,0,9
0,64,0,7
0,28,104,14
0,40,106,5
0,64,91,1
0,59,84,1
0,35,109,2
0,59,0,48
0,35,0,32
0,40,107,18
0,64,0,7
0,64,95,27
0,59,67,2
0,28,0,1
0,40,0,1
0,35,95,4
0,47,63,3
0,40,0,2
0,59,0,8
0,64,0,3
0,35,0,27
0,47,0,3
0,40,104,5
0,66,78,0
0,59,79,3
0,52,84,1
0,35,101,7
0,35,0,47
0,59,0,49
0,40,107,3
0,66,0,9
0,40,0,17
0,33,104,8
0,40,0,1
0,52,0,4
0,45,88,3
0,67,109,4
0,35,93,2
0,33,0,33
0,35,0,6
0,45,0,2
0,35,95,56
0,67,0,12
0,35,0,1
0,67,105,15
0,40,104,3
0,36,95,18
0,40,0,11
0,48,88,4
0,36,0,25
0,67,0,8
0,48,0,2
0,40,102,2
0,52,84,8
0,72,96,4
0,35,96,2
0,40,0,20
0,52,0,9
0,35,83,6
0,47,63,4
0,72,0,1
0,71,77,3
0,35,0,4
0,47,0,17
0,35,0,5
0,71,0,1
0,39,99,12
0,51,73,2
0,40,106,4
0,71,96,4
0,40,0,23
0,39,0,7
0,51,0,7
0,28,104,12
0,40,71,6
0,35,99,7
0,71,0,11
0,35,0,3
0,71,99,0
0,40,99,44
0,28,0,8
0,40,0,25
0,71,0,7
0,47,70,0
0,35,88,1
0,40,0,11
0,35,93,2
0,69,99,0
0,47,0,9
0,69,0,1
0,35,0,7
0,52,74,7
0,35,0,4
0,40,106,0
0,69,99,8
0,35,84,25
0,35,0,9
0,69,0,11
0,67,99,4
0,40,105,3
0,40,0,25
0,67,0,1
0,52,0,10
0,45,96,5
0,33,104,4
0,67,104,6
0,40,0,3
0,45,0,24
0,33,0,8
0,35,95,21
0,35,0,51
0,67,0,37
0,66,79,4
0,40,101,3
0,66,0,26
0,40,0,15
0,36,93,1
0,66,81,8
0,35,93,8
0,48,90,3
0,36,0,14
0,48,0,10
0,40,110,9
0,35,0,1
0,52,84,6
0,40,0,29
0,52,0,5
0,35,96,6
0,35,83,1
0,66,0,1
0,47,73,0
0,64,93,1
0,35,0,20
0,47,0,2
0,35,0,7
0,39,96,13
0,51,73,2
0,40,107,5
0,40,0,21
0,51,0,33
0,39,0,2
0,28,104,11
0,40,81,0
0,35,99,1
0,64,0,2
0,35,0,40
0,66,79,0
0,40,107,52
0,28,0,7
0,66,0,2
0,40,0,11
0,47,60,15
0,40,0,4
0,35,88,1
0,66,79,3
0,35,88,10
0,47,0,7
0,66,0,1
0,35,0,4
0,52,74,4
0,40,91,3
0,67,102,5
0,35,0,1
0,35,84,36
0,67,0,16
0,35,0,9
0,67,106,10
0,40,104,3
0,40,0,17
0,67,0,19
0,33,96,5
0,52,0,1
0,40,0,1
0,45,95,5
0,69,104,8
0,45,0,33
0,33,0,6
0,35,88,2
0,69,0,4
0,69,93,26
0,35,0,2
0,40,104,36
0,69,0,31
0,40,0,7
0,36,88,1
0,71,81,3
0,48,66,0
0,72,91,3
0,35,95,3
0,71,0,6
0,36,0,10
0,48,0,15
0,52,83,7
0,40,111,1
0,35,0,3
0,40,0,37
0,52,0,9
0,47,67,2
0,35,86,2
0,35,83,1
0,35,0,15
0,47,0,1
0,35,0,0
0,72,0,9
0,51,73,5
0,39,97,1
0,71,101,0
0,40,107,4
0,40,0,45
0,51,0,29
0,39,0,6
0,40,79,5
0,71,0,3
0,28,99,2
0,35,98,5
0,71,79,39
0,35,0,12
0,71,0,7
0,40,0,18
0,71,86,1
0,40,104,4
0,28,0,27
0,47,63,1
0,40,0,1
0,71,0,7
0,35,83,1
0,69,91,5
0,35,83,3
0,69,0,24
0,47,0,1
0,52,67,4
0,35,0,1
0,35,0,2
0,40,98,6
0,69,98,4
0,35,88,44
0,69,0,17
0,35,0,4
0,67,96,15
0,40,106,2
0,67,0,14
0,40,0,5
0,52,0,5
0,40,0,1
0,33,93,0
0,45,90,8
0,67,104,3
0,33,0,43
0,35,95,7
0,45,0,6
0,67,0,24
0,35,0,12
0,66,93,7
0,40,104,1
0,66,0,14
0,40,0,18
0,36,88,14
0,48,84,1
0,66,82,3
0,35,93,2
0,36,0,26
0,48,0,2
0,35,0,11
0,52,71,3
0,40,102,3
0,52,0,33
0,40,0,5
0,47,62,10
0,35,79,1
0,35,99,4
0,47,0,2
0,35,0,2
0,35,0,9
0,66,0,7
0,51,68,2
0,64,93,4
0,40,110,2
0,39,89,1
0,40,0,15
0,51,0,28
0,64,0,11
0,39,0,10
0,40,81,2
0,66,68,1
0,59,93,1
0,35,99,5
0,28,104,1
0,59,0,41
0,35,0,6
0,40,104,48
0,28,0,10
0,40,0,6
0,40,0,5
0,35,79,9
0,60,64,0
0,47,50,0
0,35,90,3
0,47,0,38
0,35,0,1
0,35,0,5
0,52,58,5
0,40,99,1
0,60,0,12
0,35,88,30
0,35,0,34
0,64,86,21
0,40,102,2
0,66,0,10
0,52,0,23
0,40,0,4
0,40,0,2
0,45,84,1
0,64,0,8
0,33,96,1
0,67,99,3
0,35,95,50
0,33,0,3
0,45,0,2
0,35,0,37
0,40,99,54
0,71,60,5
0,40,0,32
0,71,0,2
0,76,102,12
0,36,84,1
0,48,88,3
0,35,95,4
0,36,0,25
0,48,0,3
0,76,0,3
0,35,0,9
0,52,88,1
0,40,107,5
0,40,0,38
0,52,0,3
0,67,0,2
0,76,73,3
0,35,83,3
0,35,86,1
0,47,79,2
0,35,0,27
0,47,0,4
0,35,0,1
0,51,95,13
0,39,93,5
0,64,93,0
0,40,106,1
0,40,0,41
0,51,0,31
0,39,0,20
0,40,79,0
0,64,0,2
0,35,98,4
0,66,88,2
0,28,101,4
0,35,0,37
0,40,102,62
0,40,0,26
0,28,0,0
0,40,0,11
0,47,71,12
0,35,84,2
0,35,96,1
0,35,0,38
0,47,0,1
0,35,0,2
0,52,93,5
0,40,90,6
0,76,0,6
0,35,93,45
0,64,93,1
0,66,0,10
0,35,0,18
0,40,110,24
0,40,0,34
0,45,96,3
0,52,0,1
0,40,0,2
0,33,96,3
0,64,0,1
0,72,98,2
0,45,0,46
0,33,0,7
0,35,101,3
0,35,0,41
0,71,60,51
0,40,102,8
0,40,0,29
0,71,0,12
0,78,79,1
0,36,90,5
0,35,95,8
0,48,102,0
0,36,0,27
0,48,0,2
0,72,0,10
0,35,0,2
0,52,98,0
0,40,106,2
0,78,0,23
0,40,0,15
0,52,0,2
0,47,83,9
0,76,83,1
0,35,79,2
0,35,96,7
0,35,0,21
0,47,0,1
0,35,0,3
0,51,93,15
0,39,96,1
0,40,110,4
0,72,102,2
0,40,0,32
0,72,0,16
0,51,0,12
0,39,0,3
0,40,104,12
0,28,99,1
0,35,98,4
0,72,102,0
0,35,0,43
0,71,93,37
0,40,106,1
0,72,0,8
0,28,0,13
0,71,0,1
0,40,0,4
0,40,0,8
0,35,84,4
0,47,71,6
0,71,99,2
0,35,96,3
0,35,0,31
0,35,0,3
0,47,0,6
0,76,0,1
0,40,90,1
0,52,95,4
0,71,0,7
0,69,98,17
0,35,91,4
0,35,0,27
0,40,106,23
0,69,0,6
0,52,0,21
0,45,88,1
0,40,0,5
0,40,0,0
0,69,96,9
0,33,88,4
0,45,0,18
0,35,96,5
0,33,0,18
0,69,0,6
0,35,0,15
0,67,104,1
0,40,101,36
0,67,0,2
0,40,0,13
0,48,73,3
0,71,93,13
0,36,84,1
0,35,95,8
0,48,0,20
0,52,86,11
0,36,0,4
0,35,0,0
0,71,0,5
0,40,106,1
0,64,96,2
0,64,0,28
0,52,0,1
0,40,0,5
0,47,71,2
0,35,70,7
0,35,86,1
0,64,95,2
0,47,0,21
0,35,0,6
0,35,0,2
0,51,84,9
0,39,96,11
0,40,106,0
0,40,0,40
0,51,0,30
0,39,0,11
0,40,67,12
0,28,101,2
0,35,99,6
0,55,99,0
0,55,0,20
0,64,0,9
0,35,0,16
0,55,95,1
0,55,0,22
0,55,99,29
0,40,106,2
0,28,0,15
0,55,0,13
0,40,0,2
0,40,0,14
0,47,70,0
0,54,100,6
0,35,83,1
0,54,0,20
0,35,0,6
0,47,0,3
0,54,106,24
0,28,93,3
0,54,0,22
0,28,0,23
0,52,107,2
0,52,0,21
0,52,117,29
0,28,101,2
0,35,79,6
0,35,0,28
0,52,0,4
0,28,0,7
0,40,106,52
0,28,104,2
0,76,107,6
0,35,104,2
0,76,0,50
0,71,96,8
0,35,0,2
0,40,101,11
0,28,0,13
0,40,0,18
0,35,88,3
0,40,0,10
0,47,71,3
0,35,84,2
0,71,0,29
0,35,0,3
0,35,0,1
0,40,102,9
0,47,0,3
0,72,104,1
0,52,93,4
0,35,91,52
0,35,0,31
0,72,0,5
0,71,86,6
0,40,105,5
0,71,0,34
0,40,0,2
0,40,0,0
0,52,0,7
0,33,96,1
0,45,99,2
0,72,95,5
0,35,93,52
0,45,0,7
0,33,0,26
0,35,0,8
0,40,102,59
0,40,0,35
0,72,0,6
0,71,86,6
0,36,84,3
0,35,96,4
0,48,104,0
0,71,0,29
0,36,0,4
0,35,0,3
0,48,0,1
0,40,106,5
0,72,99,4
0,52,96,1
0,40,0,39
0,72,0,5
0,35,79,1
0,52,0,5
0,35,88,0
0,74,77,1
0,47,81,6
0,72,88,13
0,35,0,2
0,74,0,5
0,35,0,4
0,47,0,10
0,39,89,2
0,71,88,0
0,40,107,4
0,72,0,1
0,51,93,4
0,40,0,34
0,39,0,42
0,51,0,8
0,71,0,1
