track,note,velocity,time
2,42,110,0
2,42,110,32
2,42,110,32
2,42,110,32
2,42,110,128
2,42,110,2
2,42,110,2
2,42,110,2
2,42,110,578
2,42,110,2
2,42,110,1634
2,42,110,98
2,42,110,2
2,42,110,2
2,42,110,2
2,42,110,98
2,42,110,2
2,42,110,2
2,42,110,2
2,42,110,578
2,42,110,2
2,42,110,1058
2,42,110,2
2,42,110,2
2,42,110,2
2,42,110,2
2,42,110,2
2,42,110,98
2,42,110,2
2,42,110,2
2,42,110,2
2,42,110,2
2,42,110,2
2,42,110,98
2,42,110,2
2,42,110,2
2,42,110,2
2,42,110,2
2,42,110,2
2,42,110,98
2,42,110,2
2,42,110,2
2,42,110,2
2,42,110,578
2,42,110,2
2,42,110,1634
2,42,110,98
2,42,110,2
2,42,110,2
2,42,110,2
2,42,110,98
2,42,110,2
2,42,110,2
2,42,110,2
2,42,110,578
2,42,110,2
2,42,110,1058
2,42,110,2
2,42,110,2
2,42,110,2
2,42,110,2
2,42,110,2
2,42,110,98
2,42,110,2
2,42,110,2
2,42,110,2
2,42,110,2
2,42,110,2
2,42,110,98
2,42,110,2
2,42,110,2
2,42,110,2
2,42,110,2
2,42,110,2
2,42,110,98
2,42,110,2
2,42,110,2
2,42,110,2
2,42,110,578
2,42,110,2
2,42,110,1634
2,42,110,98
2,42,110,2
2,42,110,2
2,42,110,2
2,42,110,98
2,42,110,2
2,42,110,2
2,42,110,2
2,42,110,578
2,42,110,2
2,42,110,2
2,42,110,2
2,42,110,914
2,42,110,2
2,42,110,2
2,42,110,2
2,42,110,2
2,42,110,2
2,42,110,98
2,42,110,2
2,42,110,2
2,42,110,2
2,42,110,2
2,42,110,2
2,42,110,98
2,42,110,2
2,42,110,2
2,42,110,2
2,42,110,2
2,42,110,2
2,42,110,98
2,42,110,2
2,42,110,2
2,42,110,2
2,42,110,578
2,42,110,2
2,42,110,1634
2,42,110,98
2,42,110,2
2,42,110,2
2,42,110,2
2,42,110,98
2,42,110,2
2,42,110,2
2,42,110,2
2,42,110,578
2,42,110,2
2,42,110,2
2,42,110,2
2,42,110,914
2,42,110,2
2,42,110,2
2,42,110,2
2,42,110,2
2,42,110,2
2,42,110,98
2,42,110,2
2,42,110,2
2,42,110,2
2,42,110,2
2,42,110,2
2,42,110,98
2,42,110,2
2,42,110,2
2,42,110,2
2,42,110,2
2,42,110,2
2,42,110,2
2,42,110,2
2,42,110,2
2,42,110,2
2,42,110,2
2,42,110,2
2,42,110,194
2,42,110,2
2,42,110,434
2,42,110,2
2,42,110,2
2,42,110,2
2,42,110,2
2,42,110,2
2,42,110,2
2,42,110,2
2,42,110,2
2,42,110,2
2,42,110,2
2,42,110,194
2,42,110,2
2,42,110,434
2,42,110,2
2,42,110,2
2,42,110,2
2,42,110,2
2,42,110,2402
2,42,110,2
2,42,110,2
2,42,110,2
2,42,110,2
2,42,110,2
2,42,110,98
2,42,110,2
2,42,110,2
2,42,110,2
2,42,110,2
2,42,110,2
2,42,110,98
2,42,110,2
2,42,110,2
2,42,110,2
2,42,110,578
2,42,110,2
2,42,110,1634
2,42,110,98
2,42,110,2
2,42,110,2
2,42,110,2
2,42,110,98
2,42,110,2
2,42,110,2
2,42,110,2
2,42,110,578
2,42,110,2
2,42,110,2
2,42,110,2
2,42,110,914
2,42,110,2
2,42,110,2
2,42,110,2
2,42,110,2
2,42,110,2
2,42,110,98
2,42,110,2
2,42,110,2
2,42,110,2
2,42,110,2
2,42,110,2
2,42,110,98
2,42,110,2
2,42,110,2
2,42,110,2
2,42,110,2
2,42,110,2
2,42,110,98
2,42,110,2
2,42,110,2
2,42,110,2
2,42,110,578
2,42,110,2
2,42,110,1634
2,42,110,98
2,42,110,2
2,42,110,2
2,42,110,2
2,42,110,98
2,42,110,2
2,42,110,2
2,42,110,2
2,42,110,578
2,42,110,2
2,42,110,2
2,42,110,2
2,42,110,914
2,42,110,2
2,42,110,2
2,42,110,2
2,42,110,2
2,42,110,2
2,42,110,98
2,42,110,2
2,42,110,2
2,42,110,2
2,42,110,2
2,42,110,2
2,42,110,98
2,42,110,2
2,42,110,2
2,42,110,2
2,42,110,2
2,42,110,2
2,42,110,98
2,42,110,2
2,42,110,2
2,42,110,2
2,42,110,578
2,42,110,2
2,42,110,1634
2,42,110,98
2,42,110,2
2,42,110,2
2,42,110,2
2,42,110,98
2,42,110,2
2,42,110,2
2,42,110,2
2,42,110,578
2,42,110,2
2,42,110,2
2,42,110,2
2,42,110,914
2,42,110,2
2,42,110,2
2,42,110,2
2,42,110,2
2,42,110,2
2,42,110,98
2,42,110,2
2,42,110,2
2,42,110,2
2,42,110,2
2,42,110,2
2,42,110,98
2,42,110,2
2,42,110,2
2,42,110,2
2,42,110,2
2,42,110,2
2,42,110,2
2,42,110,2
2,42,110,2
2,42,110,2
2,42,110,2
2,42,110,2
2,42,110,194
2,42,110,2
2,42,110,434
2,42,110,2
2,42,110,2
2,42,110,2
2,42,110,2
2,42,110,2
2,42,110,2
2,42,110,2
2,42,110,2
2,42,110,2
2,42,110,2
2,42,110,194
2,42,110,2
2,42,110,434
2,42,110,2
2,42,110,2
2,42,110,2
2,42,110,2
2,42,110,2402
2,42,110,2
2,42,110,2
2,42,110,2
2,42,110,2
2,42,110,2
2,42,110,98
2,42,110,2
2,42,110,2
2,42,110,2
2,42,110,2
2,42,110,2
2,42,110,2
2,42,110,2
2,42,110,2
2,42,110,2
2,42,110,2
2,42,110,2
2,42,110,194
2,42,110,2
2,42,110,434
2,42,110,2
2,42,110,2
2,42,110,2
2,42,110,2
2,42,110,2
2,42,110,2
2,42,110,2
2,42,110,2
2,42,110,2
2,42,110,2
2,42,110,194
2,42,110,2
2,42,110,434
2,42,110,2
2,42,110,2
2,42,110,2
2,42,110,2
2,42,110,2402
2,42,110,2
2,42,110,2
2,42,110,2
2,42,110,2
2,42,110,2
2,42,110,98
2,42,110,2
2,42,110,2
2,42,110,2
2,42,110,2
2,42,110,2
2,42,110,98
2,42,110,2
2,42,110,2
2,42,110,2
2,42,110,578
2,42,110,2
2,42,110,674
2,42,110,2
2,42,110,2
2,42,110,2
2,42,110,578
2,42,110,2
2,42,110,674
2,42,110,2
2,42,110,2
2,42,110,2
2,42,110,578
2,42,110,2
2,42,110,674
2,42,110,2
2,42,110,2
2,42,110,2
2,42,110,578
2,42,110,2
2,42,110,674
2,42,110,2
2,42,110,2
2,42,110,2
2,42,110,578
2,42,110,2
2,42,110,674
2,42,110,2
2,42,110,2
2,42,110,2
2,42,110,578
2,42,110,2
2,42,110,674
2,42,110,2
2,42,110,2
2,42,110,2
2,42,110,578
2,42,110,2
2,42,110,674
2,42,110,2
2,42,110,2
2,42,110,2
2,42,110,578
2,42,110,2
2,42,110,578
2,42,110,2
2,42,110,2
2,42,110,2
2,42,110,2
2,42,110,2
2,42,110,194
2,42,110,2
2,42,110,434
2,42,110,2
2,42,110,2
2,42,110,2
2,42,110,2
2,42,110,2
2,42,110,2
2,42,110,2
2,42,110,2
2,42,110,2
2,42,110,2
2,42,110,194
2,42,110,2
2,42,110,434
2,42,110,2
2,42,110,2
2,42,110,2
2,42,110,2
2,42,110,2402
2,42,110,2
2,42,110,2
2,42,110,2
2,42,110,2
2,42,110,2
2,42,110,98
2,42,110,2
2,42,110,2
2,42,110,2
2,42,110,2
2,42,110,2
2,42,110,2
2,42,110,2
2,42,110,2
2,42,110,2
2,42,110,2
2,42,110,2
2,42,110,194
2,42,110,2
2,42,110,434
2,42,110,2
2,42,110,2
2,42,110,2
2,42,110,2
2,42,110,2
2,42,110,2
2,42,110,2
2,42,110,2
2,42,110,2
2,42,110,2
2,42,110,194
2,42,110,2
2,42,110,434
2,42,110,2
2,42,110,2
2,42,110,2
2,42,110,2
2,42,110,2402
2,42,110,2
2,42,110,2
2,42,110,2
2,42,110,2
2,42,110,2
2,42,110,98
2,42,110,2
2,42,110,2
2,42,110,2
2,42,110,2
2,42,110,2
2,42,110,2
2,42,110,2
2,42,110,2
2,42,110,2
2,42,110,2
2,42,110,2
2,42,110,194
2,42,110,2
2,42,110,434
2,42,110,2
2,42,110,2
2,42,110,2
2,42,110,2
2,42,110,2
2,42,110,2
2,42,110,2
2,42,110,2
2,42,110,2
2,42,110,2
2,42,110,194
2,42,110,2
2,42,110,434
2,42,110,2
2,42,110,2
2,42,110,2
2,42,110,2
2,42,110,2402
2,42,110,2
2,42,110,2
2,42,110,2
2,42,110,2
2,42,110,2
2,42,110,98
2,42,110,2
2,42,110,2
2,42,110,2
2,42,110,2
2,42,110,2
3,37,110,10368
3,38,110,0
3,37,110,608
3,38,110,0
3,37,110,608
3,38,110,0
3,37,110,608
3,38,110,0
3,37,110,50
3,38,110,0
3,37,110,50
3,38,110,0
3,35,110,2
3,36,110,0
3,37,110,224
3,38,110,0
3,35,110,224
3,36,110,0
3,35,110,608
3,36,110,0
3,37,110,224
3,38,110,0
3,37,110,176
3,38,110,0
3,35,110,2
3,36,110,0
3,35,110,50
3,36,110,0
3,35,110,50
3,36,110,0
3,37,110,146
3,38,110,0
3,37,110,50
3,38,110,0
3,35,110,2
3,36,110,0
3,37,110,224
3,38,110,0
3,35,110,224
3,36,110,0
3,35,110,608
3,36,110,0
3,37,110,224
3,38,110,0
3,37,110,176
3,38,110,0
3,35,110,2
3,36,110,0
3,35,110,50
3,36,110,0
3,35,110,50
3,36,110,0
3,37,110,2
3,38,110,0
3,37,110,50
3,38,110,0
3,37,110,50
3,38,110,0
3,35,110,2
3,36,110,0
3,37,110,224
3,38,110,0
3,35,110,224
3,36,110,0
3,35,110,608
3,36,110,0
3,37,110,224
3,38,110,0
3,37,110,176
3,38,110,0
3,35,110,2
3,36,110,0
3,35,110,50
3,36,110,0
3,35,110,50
3,36,110,0
3,37,110,146
3,38,110,0
3,37,110,50
3,38,110,0
3,35,110,2
3,36,110,0
3,37,110,224
3,38,110,0
3,35,110,224
3,36,110,0
3,35,110,608
3,36,110,0
3,37,110,224
3,38,110,0
3,37,110,176
3,38,110,0
3,35,110,2
3,36,110,0
3,35,110,50
3,36,110,0
3,35,110,50
3,36,110,0
3,37,110,2
3,38,110,0
3,37,110,50
3,38,110,0
3,37,110,50
3,38,110,0
3,35,110,2
3,36,110,0
3,37,110,224
3,38,110,0
3,35,110,224
3,36,110,0
3,37,110,2
3,38,110,0
3,35,110,2
3,36,110,0
3,37,110,2
3,38,110,0
3,35,110,2
3,36,110,0
3,37,110,2
3,38,110,0
3,35,110,224
3,36,110,0
3,37,110,224
3,38,110,0
3,37,110,176
3,38,110,0
3,35,110,2
3,36,110,0
3,35,110,50
3,36,110,0
3,35,110,50
3,36,110,0
3,37,110,2
3,38,110,0
3,37,110,50
3,38,110,0
3,37,110,50
3,38,110,0
3,35,110,2
3,36,110,0
3,35,110,98
3,36,110,0
3,35,110,98
3,36,110,0
3,35,110,98
3,36,110,0
3,35,110,98
3,36,110,0
3,35,110,674
3,36,110,0
3,35,110,98
3,36,110,0
3,35,110,98
3,36,110,0
3,35,110,98
3,36,110,0
3,35,110,98
3,36,110,0
3,37,110,290
3,38,110,0
3,35,110,2
3,36,110,0
3,37,110,2
3,38,110,0
3,35,110,2
3,36,110,0
3,37,110,2
3,38,110,0
3,35,110,2
3,36,110,0
3,37,110,224
3,38,110,0
3,35,110,224
3,36,110,0
3,35,110,608
3,36,110,0
3,37,110,224
3,38,110,0
3,37,110,176
3,38,110,0
3,35,110,2
3,36,110,0
3,35,110,50
3,36,110,0
3,35,110,50
3,36,110,0
3,37,110,146
3,38,110,0
3,37,110,50
3,38,110,0
3,35,110,2
3,36,110,0
3,37,110,224
3,38,110,0
3,35,110,224
3,36,110,0
3,35,110,608
3,36,110,0
3,37,110,224
3,38,110,0
3,37,110,176
3,38,110,0
3,35,110,2
3,36,110,0
3,35,110,50
3,36,110,0
3,35,110,50
3,36,110,0
3,37,110,2
3,38,110,0
3,37,110,50
3,38,110,0
3,37,110,50
3,38,110,0
3,35,110,2
3,36,110,0
3,37,110,224
3,38,110,0
3,35,110,224
3,36,110,0
3,35,110,608
3,36,110,0
3,37,110,224
3,38,110,0
3,37,110,176
3,38,110,0
3,35,110,2
3,36,110,0
3,35,110,50
3,36,110,0
3,35,110,50
3,36,110,0
3,37,110,146
3,38,110,0
3,37,110,50
3,38,110,0
3,35,110,2
3,36,110,0
3,37,110,224
3,38,110,0
3,35,110,224
3,36,110,0
3,35,110,608
3,36,110,0
3,37,110,224
3,38,110,0
3,37,110,176
3,38,110,0
3,35,110,2
3,36,110,0
3,35,110,50
3,36,110,0
3,35,110,50
3,36,110,0
3,37,110,2
3,38,110,0
3,37,110,50
3,38,110,0
3,37,110,50
3,38,110,0
3,35,110,2
3,36,110,0
3,37,110,224
3,38,110,0
3,35,110,224
3,36,110,0
3,35,110,608
3,36,110,0
3,37,110,224
3,38,110,0
3,37,110,176
3,38,110,0
3,35,110,2
3,36,110,0
3,35,110,50
3,36,110,0
3,35,110,50
3,36,110,0
3,37,110,146
3,38,110,0
3,37,110,50
3,38,110,0
3,35,110,2
3,36,110,0
3,37,110,224
3,38,110,0
3,35,110,224
3,36,110,0
3,35,110,608
3,36,110,0
3,37,110,224
3,38,110,0
3,37,110,176
3,38,110,0
3,35,110,2
3,36,110,0
3,35,110,50
3,36,110,0
3,35,110,50
3,36,110,0
3,37,110,2
3,38,110,0
3,37,110,50
3,38,110,0
3,37,110,50
3,38,110,0
3,35,110,2
3,36,110,0
3,37,110,224
3,38,110,0
3,35,110,224
3,36,110,0
3,37,110,2
3,38,110,0
3,35,110,2
3,36,110,0
3,37,110,2
3,38,110,0
3,35,110,2
3,36,110,0
3,37,110,2
3,38,110,0
3,35,110,224
3,36,110,0
3,37,110,224
3,38,110,0
3,37,110,176
3,38,110,0
3,35,110,2
3,36,110,0
3,35,110,50
3,36,110,0
3,35,110,50
3,36,110,0
3,37,110,2
3,38,110,0
3,37,110,50
3,38,110,0
3,37,110,50
3,38,110,0
3,35,110,2
3,36,110,0
3,35,110,98
3,36,110,0
3,35,110,98
3,36,110,0
3,35,110,98
3,36,110,0
3,35,110,98
3,36,110,0
3,35,110,674
3,36,110,0
3,35,110,98
3,36,110,0
3,35,110,98
3,36,110,0
3,35,110,98
3,36,110,0
3,35,110,98
3,36,110,0
3,37,110,290
3,38,110,0
3,35,110,2
3,36,110,0
3,37,110,2
3,38,110,0
3,35,110,2
3,36,110,0
3,37,110,2
3,38,110,0
3,35,110,2
3,36,110,0
3,37,110,224
3,38,110,0
3,35,110,224
3,36,110,0
3,37,110,2
3,38,110,0
3,35,110,2
3,36,110,0
3,37,110,2
3,38,110,0
3,35,110,2
3,36,110,0
3,37,110,2
3,38,110,0
3,35,110,224
3,36,110,0
3,37,110,224
3,38,110,0
3,37,110,176
3,38,110,0
3,35,110,2
3,36,110,0
3,35,110,50
3,36,110,0
3,35,110,50
3,36,110,0
3,37,110,2
3,38,110,0
3,37,110,50
3,38,110,0
3,37,110,50
3,38,110,0
3,35,110,2
3,36,110,0
3,35,110,98
3,36,110,0
3,35,110,98
3,36,110,0
3,35,110,98
3,36,110,0
3,35,110,98
3,36,110,0
3,35,110,674
3,36,110,0
3,35,110,98
3,36,110,0
3,35,110,98
3,36,110,0
3,35,110,98
3,36,110,0
3,35,110,98
3,36,110,0
3,37,110,290
3,38,110,0
3,35,110,2
3,36,110,0
3,37,110,2
3,38,110,0
3,35,110,2
3,36,110,0
3,37,110,2
3,38,110,0
3,37,110,5762
3,38,110,0
3,35,110,2
3,36,110,0
3,37,110,2
3,38,110,0
3,35,110,2
3,36,110,0
3,37,110,2
3,38,110,0
3,35,110,2
3,36,110,0
3,37,110,224
3,38,110,0
3,35,110,224
3,36,110,0
3,37,110,224
3,38,110,0
3,35,110,224
3,36,110,0
3,37,110,224
3,38,110,0
3,35,110,224
3,36,110,0
3,37,110,224
3,38,110,0
3,35,110,224
3,36,110,0
3,37,110,224
3,38,110,0
3,35,110,224
