track,note,velocity,time
1,42,110,0
1,42,0,29
1,42,90,39
1,42,0,29
1,42,90,40
1,42,0,29
1,42,90,91
1,42,0,29
1,42,84,571
1,42,0,29
1,42,84,91
1,42,0,29
1,42,84,91
1,42,0,29
1,42,84,91
1,42,0,29
1,42,84,91
1,42,0,29
1,42,84,91
1,42,0,29
1,42,84,91
1,42,0,29
1,42,84,91
1,42,0,29
1,36,123,91
1,80,67,0
1,42,84,0
1,49,78,0
1,49,0,0
1,36,0,29
1,42,0,31
1,36,70,30
1,36,0,29
1,42,84,1
1,42,0,29
1,80,0,1
1,36,62,30
1,80,41,0
1,80,0,29
1,36,0,31
1,38,107,0
1,81,49,0
1,42,84,0
1,42,0,29
1,42,84,91
1,42,0,29
1,81,0,1
1,80,42,30
1,80,0,29
1,36,82,31
1,80,57,0
1,42,84,0
1,42,0,29
1,36,0,0
1,80,0,31
1,36,63,60
1,80,30,0
1,42,84,0
1,42,0,29
1,80,0,0
1,36,0,0
1,38,0,1
1,38,107,90
1,81,49,0
1,42,84,0
1,42,0,29
1,42,84,91
1,42,0,29
1,81,0,31
1,36,107,60
1,80,60,0
1,42,84,0
1,42,0,29
1,36,0,0
1,80,0,31
1,36,78,30
1,36,0,29
1,80,32,1
1,42,84,0
1,42,0,29
1,80,0,0
1,36,54,31
1,80,28,0
1,80,0,29
1,36,0,0
1,38,0,1
1,38,107,30
1,81,51,0
1,42,84,0
1,42,0,29
1,42,84,91
1,42,0,29
1,81,0,1
1,80,44,30
1,80,0,29
1,36,87,31
1,80,46,0
1,42,84,0
1,42,0,29
1,80,0,0
1,36,0,0
1,36,82,91
1,80,44,0
1,42,84,0
1,80,0,29
1,36,0,0
1,38,0,1
1,42,0,30
1,38,107,60
1,81,54,0
1,42,84,0
1,42,0,29
1,81,0,91
1,36,87,0
1,42,84,0
1,42,0,29
1,36,0,0
1,38,0,1
1,46,84,30
1,46,0,29
1,36,123,31
1,80,67,0
1,42,84,0
1,36,0,29
1,42,0,31
1,36,70,30
1,36,0,29
1,42,84,1
1,42,0,29
1,80,0,1
1,36,62,30
1,80,41,0
1,80,0,29
1,36,0,31
1,38,107,0
1,81,49,0
1,42,84,0
1,42,0,29
1,42,84,91
1,42,0,29
1,81,0,1
1,80,42,30
1,80,0,29
1,36,82,31
1,80,57,0
1,42,84,0
1,42,0,29
1,36,0,0
1,80,0,31
1,36,63,60
1,80,30,0
1,42,84,0
1,42,0,29
1,80,0,0
1,36,0,0
1,38,0,1
1,38,107,90
1,81,49,0
1,42,84,0
1,42,0,29
1,42,84,91
1,42,0,29
1,81,0,31
1,36,107,60
1,80,60,0
1,42,84,0
1,42,0,29
1,36,0,0
1,80,0,31
1,36,78,30
1,36,0,29
1,80,32,1
1,42,84,0
1,42,0,29
1,80,0,0
1,36,54,31
1,80,28,0
1,80,0,29
1,36,0,0
1,38,0,1
1,38,107,30
1,81,51,0
1,42,84,0
1,42,0,29
1,42,84,91
1,42,0,29
1,81,0,1
1,80,44,30
1,80,0,29
1,36,87,31
1,80,46,0
1,42,84,0
1,42,0,29
1,80,0,0
1,36,0,0
1,36,82,91
1,80,44,0
1,42,84,0
1,80,0,29
1,36,0,0
1,38,0,1
1,42,0,30
1,38,107,60
1,81,54,0
1,42,84,0
1,42,0,29
1,81,0,91
1,36,87,0
1,42,84,0
1,42,0,29
1,36,0,0
1,38,0,1
1,46,84,30
1,46,0,29
1,36,123,31
1,80,67,0
1,42,84,0
1,49,87,0
1,49,0,0
1,36,0,29
1,42,0,31
1,36,70,30
1,36,0,29
1,42,84,1
1,42,0,29
1,80,0,1
1,36,62,30
1,80,41,0
1,80,0,29
1,36,0,31
1,38,107,0
1,81,49,0
1,42,84,0
1,42,0,29
1,42,84,91
1,42,0,29
1,81,0,1
1,80,42,30
1,80,0,29
1,36,82,31
1,80,57,0
1,42,84,0
1,42,0,29
1,36,0,0
1,80,0,31
1,36,63,60
1,80,30,0
1,42,84,0
1,42,0,29
1,80,0,0
1,36,0,0
1,38,0,1
1,38,107,90
1,81,49,0
1,42,84,0
1,42,0,29
1,42,84,91
1,42,0,29
1,81,0,31
1,36,107,60
1,80,60,0
1,42,84,0
1,42,0,29
1,36,0,0
1,80,0,31
1,36,78,30
1,36,0,29
1,80,32,1
1,42,84,0
1,42,0,29
1,80,0,0
1,36,54,31
1,80,28,0
1,80,0,29
1,36,0,0
1,38,0,1
1,38,107,30
1,81,51,0
1,42,84,0
1,42,0,29
1,42,84,91
1,42,0,29
1,81,0,1
1,80,44,30
1,80,0,29
1,36,87,31
1,80,46,0
1,42,84,0
1,42,0,29
1,80,0,0
1,36,0,0
1,36,82,91
1,80,44,0
1,42,84,0
1,80,0,29
1,36,0,0
1,38,0,1
1,42,0,30
1,38,107,60
1,81,54,0
1,42,84,0
1,42,0,29
1,81,0,91
1,36,87,0
1,42,84,0
1,42,0,29
1,36,0,0
1,38,0,1
1,46,84,30
1,46,0,29
1,36,123,31
1,80,67,0
1,42,84,0
1,36,0,29
1,42,0,31
1,36,70,30
1,36,0,29
1,42,84,1
1,42,0,29
1,80,0,1
1,36,62,30
1,80,41,0
1,80,0,29
1,36,0,31
1,38,107,0
1,81,49,0
1,42,84,0
1,42,0,29
1,42,84,91
1,42,0,29
1,81,0,1
1,80,42,30
1,80,0,29
1,36,82,31
1,80,57,0
1,42,84,0
1,42,0,29
1,36,0,0
1,80,0,31
1,36,63,60
1,80,30,0
1,42,84,0
1,42,0,29
1,80,0,0
1,36,0,0
1,38,0,1
1,38,107,90
1,81,49,0
1,42,84,0
1,42,0,29
1,42,84,91
1,42,0,29
1,81,0,31
1,36,107,60
1,80,60,0
1,42,84,0
1,42,0,29
1,36,0,0
1,80,0,31
1,36,78,30
1,36,0,29
1,80,32,1
1,42,84,0
1,42,0,29
1,80,0,0
1,36,54,31
1,80,28,0
1,80,0,29
1,36,0,0
1,38,0,1
1,38,107,30
1,81,51,0
1,42,84,0
1,42,0,29
1,42,84,91
1,42,0,29
1,81,0,1
1,80,44,30
1,38,73,0
1,80,0,29
1,38,0,31
1,36,87,0
1,80,46,0
1,42,84,0
1,42,0,29
1,80,0,0
1,36,0,0
1,36,82,91
1,80,44,0
1,42,84,0
1,80,0,29
1,36,0,0
1,38,0,1
1,42,0,30
1,38,107,60
1,81,54,0
1,42,84,0
1,42,0,29
1,38,55,61
1,38,0,29
1,81,0,1
1,38,87,0
1,36,87,0
1,42,84,0
1,42,0,29
1,36,0,0
1,38,0,0
1,38,0,1
1,38,69,0
1,38,0,29
1,46,87,1
1,38,87,0
1,38,0,29
1,46,0,0
1,36,123,31
1,80,67,0
1,42,84,0
1,49,78,0
1,49,0,0
1,36,0,29
1,42,0,31
1,36,70,30
1,36,0,29
1,42,84,1
1,42,0,29
1,80,0,1
1,36,62,30
1,80,41,0
1,80,0,29
1,36,0,31
1,38,107,0
1,81,49,0
1,42,84,0
1,42,0,29
1,42,84,91
1,42,0,29
1,81,0,1
1,80,42,30
1,80,0,29
1,36,82,31
1,80,57,0
1,42,84,0
1,42,0,29
1,36,0,0
1,80,0,31
1,36,63,60
1,80,30,0
1,42,84,0
1,42,0,29
1,80,0,0
1,36,0,0
1,38,0,1
1,38,107,90
1,81,49,0
1,42,84,0
1,42,0,29
1,42,84,91
1,42,0,29
1,81,0,31
1,36,107,60
1,80,60,0
1,42,84,0
1,42,0,29
1,36,0,0
1,80,0,31
1,36,78,30
1,36,0,29
1,80,32,1
1,42,84,0
1,42,0,29
1,80,0,0
1,36,54,31
1,80,28,0
1,80,0,29
1,36,0,0
1,38,0,1
1,38,107,30
1,81,51,0
1,42,84,0
1,42,0,29
1,42,84,91
1,42,0,29
1,81,0,1
1,80,44,30
1,80,0,29
1,36,87,31
1,80,46,0
1,42,84,0
1,42,0,29
1,80,0,0
1,36,0,0
1,36,82,91
1,80,44,0
1,42,84,0
1,80,0,29
1,36,0,0
1,38,0,1
1,42,0,30
1,38,107,60
1,81,54,0
1,42,84,0
1,42,0,29
1,81,0,91
1,36,87,0
1,42,84,0
1,42,0,29
1,36,0,0
1,38,0,1
1,46,84,30
1,46,0,29
1,36,123,31
1,80,67,0
1,42,84,0
1,36,0,29
1,42,0,31
1,36,70,30
1,36,0,29
1,42,84,1
1,42,0,29
1,80,0,1
1,36,62,30
1,80,41,0
1,80,0,29
1,36,0,31
1,38,107,0
1,81,49,0
1,42,84,0
1,42,0,29
1,42,84,91
1,42,0,29
1,81,0,1
1,80,42,30
1,80,0,29
1,36,82,31
1,80,57,0
1,42,84,0
1,42,0,29
1,36,0,0
1,80,0,31
1,36,63,60
1,80,30,0
1,42,84,0
1,42,0,29
1,80,0,0
1,36,0,0
1,38,0,1
1,38,107,90
1,81,49,0
1,42,84,0
1,42,0,29
1,42,84,91
1,42,0,29
1,81,0,31
1,36,107,60
1,80,60,0
1,42,84,0
1,42,0,29
1,36,0,0
1,80,0,31
1,36,78,30
1,36,0,29
1,80,32,1
1,42,84,0
1,42,0,29
1,80,0,0
1,36,54,31
1,80,28,0
1,80,0,29
1,36,0,0
1,38,0,1
1,38,107,30
1,81,51,0
1,42,84,0
1,42,0,29
1,42,84,91
1,42,0,29
1,81,0,1
1,80,44,30
1,80,0,29
1,36,87,31
1,80,46,0
1,42,84,0
1,42,0,29
1,80,0,0
1,36,0,0
1,36,82,91
1,80,44,0
1,42,84,0
1,80,0,29
1,36,0,0
1,38,0,1
1,42,0,30
1,38,107,60
1,81,54,0
1,42,84,0
1,42,0,29
1,81,0,91
1,36,87,0
1,42,84,0
1,42,0,29
1,36,0,0
1,38,0,1
1,46,84,30
1,46,0,29
1,36,123,31
1,80,67,0
1,42,84,0
1,49,78,0
1,49,0,0
1,36,0,29
1,42,69,3
1,42,0,14
1,42,0,14
1,42,69,2
1,42,0,14
1,36,70,14
1,42,69,5
1,42,0,14
1,36,0,10
1,42,84,1
1,42,0,29
1,80,0,1
1,36,62,30
1,80,41,0
1,42,69,1
1,42,0,14
1,80,0,14
1,36,0,31
1,38,107,0
1,81,49,0
1,42,84,0
1,42,0,29
1,42,84,91
1,42,0,29
1,81,0,1
1,80,42,30
1,80,0,29
1,36,82,31
1,80,57,0
1,42,84,0
1,42,0,29
1,36,0,0
1,42,69,3
1,42,0,14
1,80,0,14
1,42,69,0
1,42,0,14
1,42,69,14
1,42,0,14
1,36,63,18
1,80,30,0
1,42,84,0
1,42,0,29
1,80,0,0
1,36,0,0
1,38,0,1
1,42,69,28
1,42,0,14
1,38,107,48
1,81,49,0
1,42,84,0
1,42,0,29
1,42,84,91
1,42,0,29
1,81,0,31
1,36,107,60
1,80,60,0
1,42,84,0
1,42,0,29
1,36,0,0
1,42,69,1
1,42,0,14
1,42,69,13
1,80,0,3
1,42,0,11
1,42,69,15
1,36,78,4
1,42,0,10
1,36,0,19
1,80,32,1
1,42,84,0
1,42,0,29
1,80,0,0
1,42,69,29
1,36,54,2
1,80,28,0
1,42,0,12
1,80,0,17
1,36,0,0
1,38,0,1
1,38,107,30
1,81,51,0
1,42,84,0
1,42,0,29
1,42,84,91
1,42,0,29
1,81,0,1
1,42,69,28
1,80,44,2
1,42,0,12
1,42,69,16
1,80,0,1
1,42,0,13
1,36,87,18
1,80,46,0
1,42,84,0
1,42,0,29
1,80,0,0
1,36,0,0
1,42,69,28
1,42,0,14
1,36,82,49
1,80,44,0
1,42,84,0
1,80,0,29
1,36,0,0
1,38,0,1
1,42,0,30
1,38,107,60
1,81,54,0
1,42,84,0
1,42,0,29
1,81,0,91
1,36,87,0
1,42,84,0
1,42,0,29
1,36,0,0
1,38,0,1
1,46,84,30
1,46,0,29
1,36,123,31
1,80,67,0
1,42,84,0
1,42,69,27
1,36,0,2
1,42,0,12
1,42,69,14
1,42,0,5
1,42,0,9
1,42,69,14
1,36,70,7
1,42,0,7
1,36,0,22
1,42,84,1
1,42,0,29
1,80,0,1
1,36,62,30
1,80,41,0
1,42,69,1
1,42,0,14
1,80,0,14
1,36,0,31
1,38,107,0
1,81,49,0
1,42,84,0
1,42,0,29
1,42,84,91
1,42,0,29
1,81,0,1
1,80,42,30
1,80,0,29
1,36,82,31
1,80,57,0
1,42,84,0
1,42,0,29
1,36,0,0
1,80,0,31
1,36,63,60
1,80,30,0
1,42,84,0
1,42,0,29
1,80,0,0
1,36,0,0
1,38,0,1
1,38,107,90
1,81,49,0
1,42,84,0
1,42,0,29
1,42,84,91
1,42,0,29
1,81,0,31
1,36,107,60
1,80,60,0
1,42,84,0
1,42,0,29
1,36,0,0
1,42,69,1
1,42,0,14
1,42,69,14
1,80,0,2
1,42,0,12
1,42,69,11
1,36,78,7
1,42,0,7
1,36,0,22
1,80,32,1
1,42,84,0
1,42,0,29
1,80,0,0
1,42,69,31
1,36,54,0
1,80,28,0
1,42,0,14
1,80,0,15
1,36,0,0
1,38,0,1
1,42,69,0
1,42,0,14
1,38,107,16
1,81,51,0
1,42,84,0
1,42,0,29
1,42,84,91
1,42,0,29
1,81,0,1
1,80,44,30
1,80,0,29
1,36,87,31
1,80,46,0
1,42,84,0
1,42,0,29
1,80,0,0
1,36,0,0
1,36,82,91
1,80,44,0
1,42,84,0
1,80,0,29
1,36,0,0
1,38,0,1
1,42,0,30
1,38,107,60
1,81,54,0
1,42,84,0
1,50,102,0
1,42,0,29
1,50,0,31
1,42,69,0
1,42,0,29
1,40,91,1
1,40,0,29
1,81,0,1
1,36,87,0
1,42,84,0
1,40,91,0
1,40,0,29
1,42,0,0
1,36,0,0
1,38,0,1
1,42,69,0
1,42,0,29
1,42,69,1
1,46,84,0
1,48,78,0
1,48,0,29
1,46,0,0
1,42,0,0
1,36,123,31
1,80,67,0
1,42,84,0
1,49,78,0
1,49,0,0
1,70,15,0
1,70,0,29
1,36,0,0
1,70,17,1
1,70,0,29
1,42,0,1
1,70,17,0
1,70,0,29
1,36,70,1
1,70,20,0
1,70,0,29
1,36,0,0
1,42,84,1
1,70,17,0
1,70,0,29
1,42,0,0
1,80,0,1
1,70,20,0
1,70,0,29
1,36,62,1
1,80,41,0
1,70,15,0
1,70,0,29
1,80,0,0
1,70,20,1
1,70,0,29
1,36,0,1
1,38,107,0
1,81,49,0
1,42,84,0
1,70,17,0
1,70,0,29
1,42,0,0
1,70,19,1
1,70,0,29
1,70,18,1
1,70,0,29
1,70,19,1
1,70,0,29
1,42,84,1
1,70,17,0
1,70,0,29
1,42,0,0
1,81,0,1
1,70,22,0
1,70,0,29
1,80,42,1
1,70,21,0
1,70,0,29
1,80,0,0
1,70,21,1
1,70,0,29
1,36,82,1
1,80,57,0
1,42,84,0
1,70,15,0
1,70,0,29
1,36,0,0
1,42,0,0
1,70,17,1
1,70,0,29
1,80,0,1
1,70,17,0
1,70,0,29
1,70,20,1
1,70,0,29
1,36,63,1
1,80,30,0
1,42,84,0
1,70,17,0
1,70,0,29
1,80,0,0
1,42,0,0
1,36,0,0
1,38,0,1
1,70,20,0
1,70,0,29
1,70,15,1
1,70,0,29
1,70,20,1
1,70,0,29
1,38,107,1
1,81,49,0
1,42,84,0
1,70,17,0
1,70,0,29
1,42,0,0
1,70,19,1
1,70,0,29
1,70,18,1
1,70,0,29
1,70,19,1
1,70,0,29
1,42,84,1
1,70,17,0
1,70,0,29
1,42,0,0
1,70,22,1
1,70,0,29
1,81,0,1
1,70,21,0
1,70,0,29
1,70,21,1
1,70,0,29
1,36,107,1
1,80,60,0
1,42,84,0
1,70,15,0
1,70,0,29
1,36,0,0
1,42,0,0
1,70,17,1
1,70,0,29
1,80,0,1
1,70,17,0
1,70,0,29
1,36,78,1
1,70,20,0
1,70,0,29
1,36,0,0
1,80,32,1
1,42,84,0
1,70,17,0
1,70,0,29
1,42,0,0
1,80,0,0
1,70,20,1
1,70,0,29
1,36,54,1
1,80,28,0
1,70,15,0
1,70,0,29
1,80,0,0
1,36,0,0
1,38,0,1
1,70,20,0
1,70,0,29
1,38,107,1
1,81,51,0
