track,note,velocity,time
1,34,111,822
1,34,111,2
1,29,111,2
1,29,111,2
1,29,111,2
1,31,92,2
1,33,111,2
1,34,111,2
1,38,92,2
1,41,102,2
1,29,111,2
1,31,101,2
1,33,111,2
1,34,111,2
1,29,102,2
1,34,111,2
1,34,109,2
1,33,102,2
1,31,102,2
1,29,111,2
1,33,100,2
1,36,111,2
1,33,111,2
1,34,99,2
1,36,98,2
1,29,111,2
1,33,100,2
1,36,111,2
1,29,111,2
1,31,99,2
1,33,98,2
1,34,111,2
1,38,100,2
1,41,111,2
1,38,111,2
1,39,99,2
1,41,98,2
1,34,111,2
1,29,100,2
1,34,111,2
1,34,111,2
1,36,99,2
1,38,98,2
1,39,111,2
1,34,100,2
1,39,111,2
1,39,111,2
1,38,99,2
1,36,98,2
1,34,111,2
1,34,100,2
1,29,111,2
1,29,111,2
1,31,99,2
1,33,98,2
1,34,111,2
1,38,101,2
1,41,96,2
1,34,104,2
1,34,111,578
1,29,102,2
1,34,111,2
1,34,109,2
1,33,102,2
1,31,102,2
1,29,111,2
1,33,100,2
1,36,111,2
1,33,111,2
1,34,99,2
1,36,98,2
1,29,111,2
1,33,100,2
1,36,111,2
1,29,111,2
1,31,99,2
1,33,98,2
1,34,111,2
1,38,100,2
1,41,111,2
1,38,111,2
1,39,99,2
1,41,98,2
1,34,111,2
1,29,100,2
1,34,111,2
1,34,111,2
1,36,99,2
1,38,98,2
1,39,111,2
1,34,100,2
1,39,111,2
1,39,111,2
1,38,99,2
1,36,98,2
1,34,111,2
1,34,100,2
1,29,111,2
1,29,111,2
1,31,99,2
1,33,98,2
1,34,111,2
1,38,101,2
1,41,96,2
1,34,104,2
1,34,111,578
1,29,102,2
1,34,111,2
1,34,109,2
1,33,102,2
1,31,102,2
1,29,111,2
1,33,100,2
1,36,111,2
1,33,111,2
1,34,99,2
1,36,98,2
1,29,111,2
1,33,100,2
1,36,111,2
1,29,111,2
1,31,99,2
1,33,98,2
1,34,111,2
1,38,100,2
1,41,111,2
1,38,111,2
1,39,99,2
1,41,98,2
1,34,111,2
1,29,100,2
1,34,111,2
1,34,111,2
1,36,99,2
1,38,98,2
1,39,111,2
1,34,100,2
1,39,111,2
1,39,111,2
1,38,99,2
1,36,98,2
1,34,111,2
1,34,100,2
1,29,111,2
1,29,111,2
1,31,99,2
1,33,98,2
1,34,111,2
1,38,101,2
1,41,96,2
1,34,104,2
1,34,111,578
1,29,102,2
1,34,111,2
1,34,109,2
1,33,102,2
1,31,102,2
1,29,111,2
1,33,100,2
1,36,111,2
1,33,111,2
1,34,99,2
1,36,98,2
1,29,111,2
1,33,100,2
1,36,111,2
1,29,111,2
1,31,99,2
1,33,98,2
1,34,111,2
1,38,100,2
1,41,111,2
1,38,111,2
1,39,99,2
1,41,98,2
1,34,111,2
1,29,100,2
1,34,111,2
1,34,111,2
1,36,99,2
1,38,98,2
1,39,111,2
1,34,100,2
1,39,111,2
1,39,111,2
1,38,99,2
1,36,98,2
1,34,111,2
1,34,100,2
1,29,111,2
1,29,111,2
1,31,99,2
1,33,98,2
1,34,111,2
1,38,101,2
1,41,96,2
1,39,111,2
1,39,111,2
1,38,99,2
1,36,98,2
1,34,111,2
1,34,100,2
1,29,111,2
1,29,101,2
1,34,111,2
1,38,101,2
1,41,111,2
1,29,111,2
1,34,111,2
2,72,120,4
2,72,90,2
2,69,90,2
2,74,82,2
2,72,73,2
2,74,124,2
2,70,117,2
2,65,126,2
2,74,109,2
2,75,120,2
2,77,119,2
2,77,116,2
2,75,117,2
2,75,116,146
2,74,116,2
2,72,112,2
2,70,113,2
2,69,105,2
2,70,107,2
2,72,108,2
2,65,111,2
2,63,107,2
2,62,117,2
2,74,121,10
2,74,114,2
2,70,119,2
2,75,120,2
2,74,121,2
2,73,68,2
2,72,72,2
2,70,91,2
2,70,119,2
2,70,112,2
2,69,119,2
2,67,122,2
2,65,113,2
2,67,79,2
2,68,73,2
2,69,100,2
2,72,121,10
2,72,114,2
2,69,119,2
2,74,120,2
2,72,121,2
2,71,68,2
2,70,72,2
2,69,91,2
2,69,119,2
2,69,112,2
2,67,119,2
2,69,122,2
2,70,108,2
2,74,83,2
2,70,113,2
2,74,121,10
2,74,114,2
2,70,119,2
2,75,120,2
2,74,121,2
2,73,68,2
2,72,72,2
2,70,91,2
2,74,119,2
2,74,112,2
2,75,119,2
2,77,122,2
2,75,104,2
2,75,121,10
2,75,114,2
2,77,119,2
2,79,120,2
2,74,121,2
2,73,68,2
2,72,72,2
2,70,91,2
2,67,121,10
2,67,114,2
2,65,119,2
2,63,120,2
2,62,108,2
2,62,124,2
2,58,117,2
2,53,126,2
2,62,109,2
2,63,120,2
2,65,119,2
2,65,116,2
2,63,117,2
2,63,116,146
2,62,116,2
2,60,112,2
2,58,113,2
2,57,105,2
2,58,107,2
2,60,108,2
2,53,111,2
2,51,107,2
2,50,117,2
2,74,121,10
2,74,114,2
2,70,119,2
2,75,120,2
2,74,121,2
2,73,68,2
2,72,72,2
2,70,91,2
2,70,119,2
2,70,112,2
2,69,119,2
2,67,122,2
2,65,113,2
2,67,79,2
2,68,73,2
2,69,100,2
2,72,121,10
2,72,114,2
2,69,119,2
2,74,120,2
2,72,121,2
2,71,68,2
2,70,72,2
2,69,91,2
2,69,119,2
2,69,112,2
2,67,119,2
2,69,122,2
2,70,108,2
2,74,121,10
2,74,114,2
2,70,119,2
2,75,120,2
2,74,121,2
2,73,68,2
2,72,72,2
2,70,91,2
2,74,119,2
2,74,112,2
2,75,119,2
2,77,122,2
2,75,104,2
2,75,121,10
2,75,114,2
2,77,119,2
2,79,120,2
2,74,121,2
2,73,68,2
2,72,72,2
2,70,91,2
2,72,121,10
2,72,114,2
2,70,119,2
2,69,120,2
2,74,108,2
2,75,121,10
2,75,114,2
2,77,119,2
2,79,120,2
2,74,121,2
2,73,68,2
2,72,72,2
2,70,91,2
2,67,121,10
2,67,114,2
2,65,119,2
2,63,120,26
2,62,108,26
3,77,123,2
3,77,108,2
3,74,111,2
3,79,123,2
3,77,92,2
3,62,123,8
3,62,115,2
3,60,98,2
3,58,94,2
3,57,79,2
3,58,71,2
3,59,85,2
3,60,74,2
3,75,123,2
3,75,119,2
3,72,119,2
3,77,111,2
3,75,102,2
3,65,118,2640
3,62,97,2
3,65,108,2
3,70,120,2
3,74,102,2
3,72,111,2
3,70,120,2
3,70,120,2
3,69,106,2
3,65,118,12
3,63,97,2
3,65,108,2
3,69,120,2
3,75,102,2
3,74,111,2
3,72,101,2
3,74,94,2
3,77,120,2
3,74,113,2
3,70,122,2
3,77,105,2
3,79,116,2
3,80,115,2
3,80,112,2
3,79,113,2
3,79,112,146
3,77,112,2
3,75,108,2
3,74,109,2
3,72,101,2
3,74,103,2
3,75,104,2
3,74,107,2
3,72,103,2
3,70,113,2
3,77,117,10
3,77,110,2
3,74,115,2
3,79,116,2
3,77,117,2
3,76,64,2
3,75,68,2
3,74,87,2
3,74,115,2
3,74,108,2
3,72,115,2
3,70,118,2
3,69,109,2
3,70,75,2
3,71,69,2
3,72,96,2
3,75,117,10
3,75,110,2
3,72,115,2
3,77,116,2
3,75,117,2
3,74,64,2
3,73,68,2
3,72,87,2
3,72,115,2
3,72,108,2
3,70,115,2
3,72,118,2
3,74,104,2
3,77,79,2
3,74,109,2
3,77,117,10
3,77,110,2
3,74,115,2
3,79,116,2
3,77,117,2
3,76,64,2
3,75,68,2
3,74,87,2
3,77,115,2
3,77,108,2
3,79,115,2
3,80,118,2
3,79,100,2
3,79,117,10
3,79,110,2
3,81,115,2
3,82,116,2
3,77,117,2
3,76,64,2
3,75,68,2
3,74,87,2
3,75,117,10
3,75,110,2
3,74,115,2
3,72,116,2
3,70,104,2
3,53,118,998
3,50,97,2
3,53,108,2
3,58,120,2
3,62,102,2
3,60,111,2
3,58,120,2
3,58,120,2
3,57,106,2
3,53,118,12
3,51,97,2
3,53,108,2
3,57,120,2
3,63,102,2
3,62,111,2
3,60,101,2
3,62,94,2
3,65,120,2
3,62,113,2
3,58,122,2
3,65,105,2
3,67,116,2
3,68,115,2
3,68,112,2
3,67,113,2
3,67,112,146
3,65,112,2
3,63,108,2
3,62,109,2
3,60,101,2
3,62,103,2
3,63,104,2
3,62,107,2
3,60,103,2
3,58,113,2
3,77,117,10
3,77,110,2
3,74,115,2
3,79,116,2
3,77,117,2
3,76,64,2
3,75,68,2
3,74,87,2
3,74,115,2
3,74,108,2
3,72,115,2
3,70,118,2
3,69,109,2
3,70,75,2
3,71,69,2
3,72,96,2
3,75,117,10
3,75,110,2
3,72,115,2
3,77,116,2
3,75,117,2
3,74,64,2
3,73,68,2
3,72,87,2
3,72,115,2
3,72,108,2
3,70,115,2
3,72,118,2
3,74,104,2
3,77,117,10
3,77,110,2
3,74,115,2
3,79,116,2
3,77,117,2
3,76,64,2
3,75,68,2
3,74,87,2
3,77,115,2
3,77,108,2
3,79,115,2
3,80,118,2
3,79,100,2
3,79,117,10
3,79,110,2
3,81,115,2
3,82,116,2
3,77,117,2
3,76,64,2
3,75,68,2
3,74,87,2
3,75,117,10
3,75,110,2
3,74,115,2
3,72,116,2
3,77,109,2
3,79,82,2
3,77,104,2
3,79,117,10
3,79,110,2
3,81,115,2
3,82,116,2
3,77,117,2
3,76,64,2
3,75,68,2
3,74,87,2
3,75,117,10
3,75,110,2
3,74,115,2
3,72,116,24
3,70,109,12
4,65,100,726
4,70,104,0
4,70,106,2
4,74,107,0
4,72,99,2
4,75,101,0
4,70,100,2
4,74,99,0
4,70,98,386
4,74,98,0
4,70,98,2
4,74,98,0
4,65,98,2
4,70,98,0
4,72,98,2
4,75,98,0
4,70,98,2
4,74,98,0
4,69,98,1538
4,72,98,0
4,69,98,2
4,72,98,0
4,65,98,2
4,69,98,0
4,70,98,2
4,74,98,0
4,69,98,2
4,72,98,0
4,65,98,2
4,72,98,0
4,65,98,2
4,72,98,0
4,63,98,2
4,70,98,0
4,63,98,2
4,69,98,0
4,62,98,2
4,70,98,0
4,72,98,2
4,75,98,0
4,70,98,2
4,74,98,0
4,69,96,3936
4,72,97,2
4,77,110,2
4,75,97,2
4,74,96,2
4,72,97,2
4,70,104,1730
4,72,96,2
4,74,98,2
4,70,104,2
4,70,104,2
4,74,98,2
4,77,114,2
4,75,99,2
4,74,98,2
4,70,104,2
4,75,97,2328
4,79,97,0
4,74,97,2
4,77,97,0
4,72,97,2
4,75,97,0
4,70,97,2
4,74,97,0
4,65,97,2486
4,70,97,0
4,70,97,2
4,74,97,0
4,75,97,2
4,79,97,0
4,74,97,2
4,77,97,0
4,70,97,1346
4,74,97,0
4,65,97,2
4,70,97,0
4,72,97,2
4,75,97,0
4,70,97,2
4,74,97,0
4,69,97,1346
4,72,97,0
4,65,97,2
4,69,97,0
4,70,97,2
4,74,97,0
4,69,97,2
4,72,97,0
4,69,97,1346
4,72,97,0
4,65,97,2
4,69,97,0
4,70,97,2
4,74,97,0
4,69,97,2
4,72,97,0
4,70,97,1346
4,74,97,0
4,65,97,2
4,70,97,0
4,72,97,2
4,75,97,0
4,70,97,2
4,74,97,0
4,70,97,1346
4,74,97,0
4,65,97,2
4,70,97,0
4,72,97,2
4,75,97,0
4,70,97,2
4,74,97,0
4,75,97,1346
4,79,97,0
4,77,97,2
4,81,97,0
4,79,97,2
4,82,97,0
4,75,97,2
4,79,97,0
4,65,97,1346
4,70,97,0
4,69,97,2
4,72,97,0
4,67,97,2
4,70,97,0
4,65,97,2
4,69,97,0
4,70,97,1154
4,74,97,0
4,70,97,2
4,74,97,0
4,65,97,2
4,70,97,0
4,72,97,2
4,75,97,0
4,70,97,2
4,74,97,0
4,65,97,2
4,70,97,0
4,69,96,3842
4,72,97,2
4,77,110,2
4,75,97,2
4,74,96,2
4,72,97,2
4,70,104,1730
4,72,96,2
4,74,98,2
4,70,104,2
4,70,104,2
4,74,98,2
4,77,114,2
4,75,99,2
4,74,98,2
4,70,104,2
4,75,97,2328
4,79,97,0
4,74,97,2
4,77,97,0
4,72,97,2
4,75,97,0
4,70,97,2
4,74,97,0
4,65,97,2486
4,70,97,0
4,70,97,2
4,74,97,0
4,75,97,2
4,79,97,0
4,74,97,2
4,77,97,0
4,70,97,1346
4,74,97,0
4,65,97,2
4,70,97,0
4,72,97,2
4,75,97,0
4,70,97,2
4,74,97,0
4,69,97,1346
4,72,97,0
4,65,97,2
4,69,97,0
4,70,97,2
4,74,97,0
4,69,97,2
4,72,97,0
4,69,97,1346
4,72,97,0
4,65,97,2
4,69,97,0
4,70,97,2
4,74,97,0
4,69,97,2
4,72,97,0
4,70,97,1346
4,74,97,0
4,65,97,2
4,70,97,0
4,72,97,2
4,75,97,0
4,70,97,2
4,74,97,0
4,70,97,1346
4,74,97,0
4,65,97,2
4,70,97,0
4,72,97,2
4,75,97,0
4,70,97,2
4,74,97,0
4,75,97,1346
4,79,97,0
4,77,97,2
4,81,97,0
4,79,97,2
4,82,97,0
4,75,97,2
4,79,97,0
4,65,97,1346
4,70,97,0
4,69,97,2
4,72,97,0
4,67,97,2
4,70,97,0
4,65,97,2
4,69,97,0
4,65,97,1346
4,70,97,0
4,70,97,2
4,74,97,0
4,74,97,2
4,77,97,0
4,75,97,2
4,79,97,0
4,65,97,1346
4,70,97,0
4,69,97,2
4,72,97,0
4,67,97,2
4,70,97,0
4,65,97,2
4,69,97,0
4,74,106,1154
4,74,106,2
4,70,106,2
4,75,106,2
4,74,106,2
4,70,106,2
4,82,106,2
5,77,87,706
5,82,91,0
5,82,93,2
5,86,94,0
5,84,86,2
5,87,88,0
5,82,87,2
5,86,86,0
5,82,85,386
5,86,85,0
5,82,85,2
5,86,85,0
5,77,85,2
5,82,85,0
5,84,85,2
5,87,85,0
5,82,85,2
5,86,85,0
5,81,85,1538
5,84,85,0
5,81,85,2
5,84,85,0
5,77,85,2
5,81,85,0
5,82,85,2
5,86,85,0
5,81,85,2
5,84,85,0
5,77,85,2
5,84,85,0
5,77,85,2
5,84,85,0
5,75,85,2
5,82,85,0
5,75,85,2
5,81,85,0
5,74,85,2
5,82,85,0
5,84,85,2
5,87,85,0
5,82,85,2
5,86,85,0
5,81,83,3842
5,84,84,2
5,89,84,2
5,87,84,2
5,86,83,2
5,84,84,2
5,82,91,1730
5,84,83,2
5,86,85,2
5,82,91,2
5,82,91,2
5,86,85,2
5,89,84,2
5,87,86,2
5,86,85,2
5,82,91,2
5,87,84,2328
5,91,84,0
5,86,84,2
5,89,84,0
5,84,84,2
5,87,84,0
5,82,84,2
5,86,84,0
5,77,84,2486
5,82,84,0
5,82,84,16
5,86,84,0
5,87,84,16
5,91,84,0
5,86,84,16
5,89,84,0
5,82,91,1360
5,86,91,0
5,77,91,2
5,82,91,0
5,84,91,2
5,87,91,0
5,82,91,2
5,86,91,0
5,81,91,1346
5,84,91,0
5,77,91,2
5,81,91,0
5,82,91,2
5,86,91,0
5,81,91,2
5,84,91,0
5,81,91,1346
5,84,91,0
5,77,91,2
5,81,91,0
5,82,91,2
5,86,91,0
5,81,91,2
5,84,91,0
5,82,91,1346
5,86,91,0
5,77,91,2
5,82,91,0
5,84,91,2
5,87,91,0
5,82,91,2
5,86,91,0
5,82,91,1346
5,86,91,0
5,77,91,2
5,82,91,0
5,84,91,2
5,87,91,0
5,82,91,2
5,86,91,0
5,87,91,1346
5,91,91,0
5,89,91,2
5,93,91,0
5,91,91,2
5,94,91,0
5,87,91,2
5,91,91,0
5,77,91,1346
5,82,91,0
5,81,91,2
5,84,91,0
5,79,91,2
5,82,91,0
5,77,91,2
5,81,91,0
5,82,91,1154
5,86,91,0
5,82,91,2
5,86,91,0
5,77,91,2
5,82,91,0
5,84,91,2
5,87,91,0
5,82,91,2
5,86,91,0
5,77,91,2
5,82,91,0
5,81,83,3842
5,84,84,2
5,89,84,2
5,87,84,2
5,86,83,2
5,84,84,2
5,82,91,1730
5,84,83,2
5,86,85,2
5,82,91,2
5,82,91,2
5,86,85,2
5,89,84,2
5,87,86,2
5,86,85,2
