track,note,velocity,time
3,50,59,1052
3,69,64,0
3,38,59,4
3,78,109,16
3,74,90,252
3,69,101,160
3,64,71,8
3,40,47,4
3,52,47,4
3,71,101,16
3,67,72,252
3,62,68,48
3,64,65,8
3,45,64,12
3,57,64,4
3,67,63,16
3,69,62,20
3,50,59,0
3,69,64,0
3,38,59,4
3,78,109,16
3,74,90,252
3,69,101,164
3,64,71,12
3,40,47,4
3,52,47,4
3,71,101,16
3,67,72,252
3,62,64,48
3,64,62,8
3,45,62,12
3,57,61,4
3,67,61,16
3,69,60,20
3,62,99,0
3,57,99,0
3,69,68,0
3,66,82,0
3,50,66,4
3,38,88,0
3,54,89,4
3,62,94,4
3,57,82,0
3,69,76,4
3,66,68,0
3,42,89,4
3,67,94,8
3,55,85,4
3,62,94,4
3,59,66,0
3,43,85,4
3,52,66,8
3,40,97,4
3,67,70,0
3,62,88,4
3,59,60,0
3,64,88,4
3,64,94,8
3,62,82,0
3,45,97,4
3,69,70,0
3,57,88,4
3,61,66,8
3,62,99,0
3,57,99,0
3,69,68,4
3,66,82,0
3,50,66,0
3,38,88,0
3,62,61,40
3,66,67,12
3,69,73,36
3,74,81,44
3,50,52,100
3,54,56,32
3,57,64,32
3,42,86,24
3,62,73,16
3,66,74,20
3,67,94,8
3,55,85,4
3,62,94,4
3,59,66,0
3,43,85,4
3,52,66,8
3,40,97,4
3,67,70,0
3,62,88,4
3,59,60,0
3,64,88,4
3,64,94,8
3,62,82,0
3,45,97,4
3,69,70,0
3,57,88,4
3,61,66,8
3,67,119,0
3,43,84,0
3,50,72,44
3,55,90,104
3,69,119,92
3,55,72,188
3,74,84,96
3,45,84,4
3,71,113,4
3,52,72,36
3,57,84,104
3,73,101,96
3,57,70,132
3,81,101,100
3,66,107,0
3,38,84,0
3,50,72,52
3,57,90,92
3,62,101,92
3,67,101,0
3,50,66,88
3,57,90,76
3,62,36,16
3,66,72,12
3,35,72,0
3,54,78,0
3,61,101,4
3,47,72,56
3,54,32,48
3,62,90,0
3,47,70,188
3,59,52,44
3,57,67,656
3,67,121,8
3,43,86,0
3,50,74,44
3,55,92,104
3,69,121,92
3,55,74,188
3,74,92,96
3,69,58,12
3,45,86,4
3,71,115,4
3,52,74,36
3,57,86,104
3,73,103,96
3,57,72,132
3,81,103,4
3,73,75,0
3,67,92,80
3,43,86,4
3,59,72,4
3,62,98,4
3,38,86,8
3,50,60,4
3,57,103,4
3,62,86,4
3,66,68,4
3,33,92,4
3,45,86,4
3,59,80,4
3,62,109,4
3,67,80,4
3,64,92,4
3,60,104,30716
3,48,72,4
3,64,92,0
3,55,98,0
3,60,115,64
3,55,109,0
3,64,104,4
3,48,78,88
3,55,92,4
3,62,98,4
3,43,92,4
3,50,36,4
3,59,86,4
3,62,104,24
3,59,92,4
3,55,92,0
3,50,109,12
3,57,109,24
3,62,121,4
3,66,86,4
3,50,80,16
3,66,92,20
3,57,121,4
3,62,121,4
3,50,80,68
3,45,92,8
3,57,109,8
3,62,115,4
3,64,98,4
3,62,115,32
3,64,115,4
3,57,109,4
3,45,98,104
3,64,98,40
3,33,98,4
3,61,76,8
3,57,98,0
3,69,98,8
3,45,109,4
3,57,104,48
3,61,86,64
3,64,70,4
3,57,121,60
3,64,121,4
3,61,98,0
3,69,115,4
3,38,86,0
3,66,86,0
3,50,80,0
3,57,98,4
3,62,104,4
3,71,70,4524
3,76,70,32
3,80,73,52
3,83,76,32
3,78,127,448
3,83,76,0
3,88,98,92
3,87,104,96
3,83,70,88
3,78,121,0
3,76,121,100
3,75,127,0
3,71,84,60
3,75,92,4552
3,71,104,0
3,66,90,0
3,75,62,16
3,71,82,0
3,78,76,4
3,66,92,8
3,76,116,52
3,68,88,4
3,73,92,4
3,69,117,268
3,71,80,104
3,76,112,96
3,71,100,96
3,68,98,3048
3,64,121,0
3,52,116,4
3,40,92,0
3,59,104,4
3,59,90,48
3,68,98,0
3,64,127,4
3,54,84,12
3,66,68,4
3,61,86,0
3,69,110,4
3,64,121,0
3,42,62,4
3,61,98,16
3,69,116,0
3,64,127,4
3,66,76,0
3,54,98,100
3,66,64,4
3,64,110,4
3,59,88,0
3,47,98,4
3,35,86,4
3,47,127,28
3,66,110,88
3,71,107,96
3,76,98,32
3,75,119,8
3,71,92,64
3,66,127,84
3,68,98,12
3,64,121,0
3,52,116,4
3,40,92,0
3,59,104,4
3,59,90,48
3,68,98,0
3,64,127,4
3,54,84,12
3,66,68,4
3,61,86,0
3,69,110,4
3,64,121,0
3,42,62,4
3,61,98,16
3,69,116,0
3,64,127,4
3,66,76,0
3,54,98,100
3,66,64,4
3,64,110,4
3,59,88,0
3,47,98,4
3,35,86,4
3,63,90,76
3,66,86,4
3,59,78,4
3,66,86,60
3,59,74,4
3,63,88,4
3,59,110,56
3,63,127,4
3,66,127,4
3,66,110,44
3,59,104,4
3,63,121,4
3,66,104,40
3,59,104,4
3,63,116,4
3,66,84,36
3,59,116,4
3,63,121,4
3,68,98,12
3,64,121,0
3,52,116,4
3,40,92,0
3,59,104,4
3,59,90,48
3,68,98,0
3,64,127,4
3,54,84,12
3,66,68,4
3,61,86,0
3,69,110,4
3,64,121,0
3,42,62,4
3,61,98,16
3,69,116,0
3,64,127,4
3,66,76,0
3,54,98,100
3,66,64,4
3,64,110,4
3,59,88,0
3,47,98,4
3,35,86,4
3,47,127,28
3,59,127,96
3,66,111,96
3,71,127,116
3,78,127,136
3,83,88,4
3,50,80,0
3,66,86,0
3,62,109,0
3,57,98,0
3,38,92,0
3,57,16,32
3,50,92,16
3,57,98,12
3,50,98,140
3,66,92,20
3,57,109,0
3,64,121,4
3,50,80,152
3,62,92,96
3,50,37,60
3,62,92,4
3,64,104,4
3,66,58,0
3,57,115,4
3,50,80,96
3,45,70,12
3,64,109,4
3,57,92,4
3,61,70,0
3,52,92,168
3,64,78,4
3,57,52,4
3,61,40,0
3,52,86,28
3,57,98,28
3,64,98,88
3,69,121,16
3,52,109,8
3,64,104,60
3,69,80,100
3,69,78,36
3,76,109,0
3,52,109,64
3,69,127,88
3,68,98,12
3,64,121,0
3,52,116,4
3,40,92,0
3,59,104,4
3,59,90,48
3,68,98,0
3,64,127,4
3,54,84,12
3,66,68,4
3,61,86,0
3,69,110,4
3,64,121,0
3,42,62,4
3,61,98,16
3,69,116,0
3,64,127,4
3,66,76,0
3,54,98,100
3,64,110,8
3,59,88,0
3,66,64,0
3,35,86,4
3,47,98,0
3,66,127,76
3,71,106,88
3,78,127,16
3,64,127,24
3,66,114,92
3,71,127,100
3,68,86,16
3,64,109,0
3,52,104,4
3,40,80,0
3,59,92,4
3,59,78,48
3,68,86,0
3,64,115,4
3,54,72,12
3,66,56,4
3,61,74,0
3,69,98,4
3,64,109,0
3,42,50,4
3,61,86,16
3,69,104,0
3,64,115,4
3,66,64,0
3,54,86,100
3,66,52,4
3,64,98,4
3,59,76,0
3,35,74,4
3,47,86,0
3,83,109,64
3,78,109,24
3,83,98,4
3,78,92,100
3,71,121,88
3,63,98,312
3,59,92,4
3,66,92,0
3,62,112,4
3,50,80,4
3,66,100,0
3,57,106,0
3,62,123,64
3,57,117,0
3,66,112,4
3,50,86,88
3,57,100,4
3,64,106,4
3,45,100,4
3,52,44,4
3,61,94,4
3,33,106,8
3,71,127,84
3,73,123,4
3,76,127,4
3,69,117,20
3,71,94,44
3,73,106,4
3,76,106,4
3,71,117,72
3,69,127,16
3,59,117,20
3,64,127,4
3,68,94,4
3,52,88,16
3,68,100,20
3,59,127,4
3,64,127,4
3,52,88,68
3,47,100,8
3,59,117,8
3,64,123,4
3,66,106,4
3,64,123,32
3,66,123,4
3,59,117,4
3,47,106,104
3,66,106,40
3,35,106,4
3,63,84,8
3,59,106,0
3,71,106,8
3,47,117,4
3,59,112,48
3,63,94,64
3,66,78,4
3,59,127,60
3,66,127,4
3,63,106,0
3,71,123,4
3,68,94,280
3,64,117,0
3,52,112,0
3,40,88,0
3,59,100,0
3,59,86,48
3,68,94,0
3,64,123,4
3,54,80,12
3,66,64,4
3,61,82,0
3,69,106,4
3,64,117,0
3,42,58,4
3,61,94,16
3,69,112,0
3,64,123,4
3,66,72,0
3,54,94,100
3,66,60,4
3,64,106,4
3,59,84,0
3,47,94,4
3,35,82,4
3,47,123,28
3,66,106,88
3,71,103,96
3,76,94,32
3,75,115,8
3,71,88,64
3,66,127,84
3,68,94,12
3,64,117,0
3,52,112,4
3,40,88,0
3,59,100,4
3,59,86,48
3,68,94,0
3,64,123,4
3,54,80,12
3,66,64,4
3,61,82,0
3,69,106,4
3,64,117,0
3,42,58,4
3,61,94,16
3,69,112,0
3,64,123,4
3,66,72,0
3,54,94,100
3,66,60,4
3,64,106,4
3,59,84,0
3,47,94,4
3,35,82,4
3,63,86,76
3,66,82,4
3,59,74,4
3,66,82,60
3,59,70,4
3,63,84,4
3,59,106,56
3,63,123,4
3,66,127,4
3,66,106,44
3,59,100,4
3,63,117,4
3,66,100,40
3,59,100,4
3,63,112,4
3,66,80,36
3,59,112,4
3,63,117,4
3,68,94,12
3,64,117,0
3,52,112,4
3,40,88,0
3,59,100,4
3,59,86,48
3,68,94,0
3,64,123,4
3,54,80,12
3,66,64,4
3,61,82,0
3,69,106,4
3,64,117,0
3,42,58,4
3,61,94,16
3,69,112,0
3,64,123,4
3,66,72,0
3,54,94,100
3,66,60,4
3,64,106,4
3,59,84,0
3,47,94,4
3,35,82,4
3,47,123,28
3,66,106,88
3,71,103,96
3,76,94,32
3,75,115,8
3,71,88,64
3,66,127,84
3,68,94,12
3,64,117,0
3,52,112,4
3,40,88,0
3,59,100,4
3,59,86,48
3,68,94,0
3,64,123,4
3,54,80,12
3,66,64,4
3,61,82,0
3,69,106,4
3,64,117,0
3,42,58,4
3,61,94,16
3,69,112,0
3,64,123,4
3,66,72,0
3,54,94,100
3,66,60,4
3,64,106,4
3,59,84,0
3,47,94,4
3,35,82,4
3,63,86,76
3,66,82,4
3,59,74,4
3,66,82,60
3,59,70,4
3,63,84,4
3,59,106,56
3,63,123,4
3,66,127,4
3,66,106,44
3,59,100,4
3,63,117,4
3,66,100,40
3,59,100,4
3,63,112,4
3,66,80,36
3,59,112,4
3,63,117,4
3,68,94,12
3,64,117,0
3,52,112,4
3,40,88,0
3,59,100,4
3,59,86,48
3,68,94,0
3,64,123,0
3,54,80,12
3,66,64,4
3,61,82,0
3,69,106,4
3,64,117,0
3,42,58,4
3,61,94,16
3,69,112,0
3,64,123,4
3,66,72,0
3,54,94,88
3,66,60,4
3,64,106,4
3,59,84,0
3,47,94,4
3,35,82,0
3,47,123,28
3,66,106,88
3,71,103,88
3,76,94,32
3,75,115,8
3,71,88,64
3,66,127,84
3,68,94,12
3,64,117,0
3,52,112,4
3,40,88,0
3,59,100,4
3,59,86,48
3,68,94,0
3,64,123,0
3,54,80,12
3,66,64,4
3,61,82,0
3,69,106,4
3,64,117,0
3,42,58,4
3,61,94,16
3,69,112,0
3,64,123,4
3,66,72,0
3,54,94,88
3,66,60,4
3,64,106,4
3,59,84,0
3,47,94,4
3,35,82,0
3,63,86,4
3,66,82,4
3,59,74,4
3,66,82,60
3,59,70,4
3,63,84,4
3,59,106,56
3,63,123,0
3,66,127,4
3,66,106,44
3,59,100,4
3,63,117,4
3,66,100,40
3,59,100,4
3,63,112,4
3,66,80,36
3,59,112,4
3,63,117,4
4,26,121,31064
4,26,81,44
4,30,124,40
4,30,84,44
4,31,118,40
4,31,75,680
4,28,107,44
4,28,89,0
4,33,124,40
4,33,101,36
4,33,92,144
4,33,113,68
4,35,104,16
4,35,98,100
4,35,75,152
4,35,104,52
4,35,72,72
4,37,104,32
4,37,78,44
4,38,98,36
4,26,127,680
4,35,107,4
4,35,84,80
4,35,98,260
4,31,121,16
4,33,84,44
4,33,109,28
4,33,95,60
4,30,69,200
4,30,104,48
4,30,84,52
4,31,98,40
4,33,115,48
4,33,115,80
4,33,76,144
4,33,115,56
4,33,89,48
4,33,104,56
4,33,74,92
4,33,109,72
4,33,72,136
4,33,115,76
4,33,70,44
4,33,115,64
4,26,121,8
4,26,127,12
4,26,92,40
4,28,118,16
4,28,94,68
4,28,88,124
4,28,118,72
4,33,110,8
4,33,112,24
4,33,75,140
4,33,113,52
4,33,95,52
4,33,107,52
4,26,127,44
4,26,113,12
4,26,92,40
4,28,118,16
4,28,94,68
4,28,88,124
4,28,118,72
4,33,110,8
4,33,112,24
4,33,75,140
4,33,113,52
4,33,95,52
4,33,104,52
4,38,107,44
4,26,127,12
4,26,92,40
4,28,118,16
4,28,94,68
4,28,88,124
4,28,118,72
4,33,110,8
4,33,112,24
4,33,75,140
4,33,113,52
4,33,95,52
4,33,118,52
4,24,127,44
4,24,124,68
4,24,98,68
4,24,127,52
4,31,124,28
4,31,118,88
4,31,76,104
4,31,124,64
4,26,127,32
4,26,98,88
4,26,127,52
4,26,90,56
4,26,127,40
4,26,94,72
4,33,127,32
4,33,82,36
4,33,118,64
4,33,72,32
4,33,127,48
4,33,78,32
4,33,127,60
4,33,92,572
4,33,127,56
4,33,74,24
4,33,127,60
4,33,78,12
4,33,127,40
4,26,121,24
4,26,127,12
4,26,92,40
4,28,118,16
4,28,94,68
4,28,88,124
4,28,118,72
4,33,110,8
4,33,112,24
4,33,75,140
4,33,113,52
4,33,95,52
4,33,107,52
4,26,127,44
4,26,113,12
4,26,92,40
4,28,118,16
4,28,94,68
4,28,88,124
4,28,118,72
4,33,110,8
4,33,60,48
4,35,118,48
4,28,121,0
4,28,81,52
4,32,124,40
4,32,84,44
4,33,118,40
4,33,75,680
4,30,107,44
4,30,89,0
4,35,124,40
4,35,101,36
4,35,92,144
4,35,113,68
4,37,104,16
4,25,127,0
4,25,95,52
4,25,124,52
4,25,92,72
4,27,115,32
4,27,95,40
4,28,121,32
4,40,95,684
4,25,127,4
4,25,104,36
4,25,127,68
4,37,104,0
4,35,84,0
4,33,121,48
4,33,115,24
4,33,69,168
4,33,110,24
4,33,104,144
4,33,121,48
4,33,84,44
4,35,121,72
4,35,115,24
4,35,69,168
4,35,110,24
4,35,104,144
4,35,121,48
4,35,101,48
4,32,81,0
4,32,104,48
4,44,75,672
4,32,84,64
4,33,98,64
4,33,95,24
4,33,78,24
4,35,115,72
4,35,98,0
4,35,115,40
4,35,76,144
4,35,115,56
4,35,89,48
4,35,104,56
4,35,74,92
4,35,109,72
4,35,72,136
4,35,115,76
4,35,70,44
4,35,115,64
4,28,121,8
4,28,127,12
4,28,92,40
4,30,118,16
4,30,94,68
4,30,88,124
4,30,118,72
4,35,110,8
4,35,112,24
4,35,75,140
4,35,113,52
4,35,95,52
4,35,107,52
4,28,127,44
4,28,113,12
4,28,92,40
4,30,118,16
4,30,94,68
4,30,88,124
4,30,118,72
4,35,110,8
4,35,112,24
4,35,75,140
4,35,113,52
4,35,95,52
4,35,104,52
4,40,107,44
4,28,127,12
4,28,92,40
4,30,118,16
4,30,94,68
4,30,88,124
4,30,118,72
4,35,110,8
4,35,112,24
4,35,75,140
4,35,113,52
4,35,95,52
4,35,118,52
4,26,127,44
4,26,124,68
4,26,98,68
4,26,127,52
4,33,124,28
4,33,118,88
4,33,76,104
4,33,124,64
4,28,121,36
4,28,127,12
4,28,92,40
4,30,118,16
4,30,94,68
4,30,88,124
4,30,118,72
4,35,110,8
4,35,112,284
4,35,75,140
4,35,113,52
4,35,95,52
4,35,107,52
4,28,127,36
4,28,113,12
4,28,92,40
4,30,118,16
4,30,94,68
4,30,88,124
4,30,118,72
4,35,110,8
4,35,112,284
4,35,75,140
4,35,113,52
4,35,95,52
4,35,104,52
4,26,127,36
4,26,124,68
4,26,98,68
4,26,127,52
4,33,124,28
4,33,118,88
4,33,76,104
4,33,124,64
4,28,127,32
4,28,98,88
4,28,127,52
4,28,90,56
4,28,127,40
4,28,94,72
4,35,127,32
4,35,82,36
4,35,118,64
4,35,72,32
4,35,127,48
4,35,78,32
4,35,127,60
