track,note,velocity,time
1,66,97,44
1,62,97,152
1,59,97,216
1,59,97,88
1,64,97,88
1,66,97,36
1,64,88,100
1,66,96,96
1,64,88,72
1,66,97,48
1,64,97,32
1,66,97,40
1,62,96,140
1,59,97,176
1,59,96,80
1,64,97,68
1,66,97,48
1,64,96,88
1,66,97,92
1,64,97,80
1,66,97,36
1,64,91,44
1,62,97,256
1,57,96,44
1,59,86,60
1,57,86,92
1,56,97,44
1,57,78,68
1,52,83,72
1,48,97,256
1,59,93,28
1,59,91,244
1,57,88,360
1,52,91,64
1,48,97,276
1,59,88,20
1,59,96,260
1,57,78,20
1,52,86,208
1,53,97,224
1,62,97,20
1,62,97,4
1,62,97,76
1,64,93,64
1,65,92,104
1,65,97,288
1,64,83,48
1,62,93,40
1,61,93,244
1,62,91,384
1,59,93,256
1,59,93,256
1,62,78,28
1,59,83,8
1,58,97,288
1,57,96,992
1,59,83,392
1,57,91,44
1,56,97,228
1,57,76,360
1,54,93,64
1,54,97,268
1,66,97,36
1,64,96,156
1,54,96,192
1,66,97,48
1,64,96,64
1,66,97,56
1,64,88,312
1,54,97,640
1,62,97,148
1,61,97,180
1,59,83,124
1,57,83,24
1,59,91,180
1,57,97,228
1,66,97,44
1,62,97,152
1,59,97,216
1,59,97,88
1,64,97,88
1,66,97,36
1,64,88,100
1,66,96,96
1,64,88,72
1,66,97,48
1,64,97,32
1,66,97,40
1,62,96,140
1,59,97,176
1,59,96,80
1,64,97,68
1,66,97,48
1,64,96,88
1,66,97,92
1,64,97,80
1,66,97,36
1,64,91,44
1,62,97,256
1,57,96,44
1,59,86,60
1,57,86,92
1,56,97,44
1,57,78,68
1,52,83,72
1,48,97,256
1,59,93,28
1,59,91,244
1,57,88,360
1,52,91,64
1,48,97,276
1,59,88,20
1,59,96,260
1,57,78,20
1,52,86,208
1,53,97,224
1,62,97,20
1,62,97,4
1,62,97,76
1,64,93,64
1,65,92,104
1,65,97,288
1,64,83,48
1,62,93,40
1,61,93,244
1,62,91,384
1,59,93,256
1,59,93,256
1,62,78,28
1,59,83,8
1,58,97,288
1,57,96,992
1,59,83,392
1,57,91,44
1,56,97,228
1,57,76,360
1,54,93,64
1,54,97,268
1,66,97,36
1,64,96,156
1,54,96,192
1,66,97,48
1,64,96,64
1,66,97,56
1,64,88,312
1,54,97,640
1,62,97,148
1,61,97,180
1,59,83,124
1,57,83,24
1,59,91,180
1,57,97,228
1,66,97,44
1,62,97,152
1,59,97,216
1,59,97,88
1,64,97,88
1,66,97,36
1,64,88,100
1,66,96,96
1,64,88,72
1,66,97,48
1,64,97,32
1,66,97,40
1,62,96,140
1,59,97,176
1,59,96,80
1,64,97,68
1,66,97,48
1,64,96,88
1,66,97,92
1,64,97,80
1,66,97,36
1,64,91,44
1,62,97,256
1,57,96,44
1,59,86,60
1,57,86,92
1,56,97,44
1,57,78,68
1,52,83,72
1,48,97,256
1,59,93,28
1,59,91,244
1,57,88,360
1,52,91,64
1,48,97,276
1,59,88,20
1,59,96,260
1,57,78,20
1,52,86,208
1,53,97,224
1,62,97,20
1,62,97,4
1,62,97,76
1,64,93,64
1,65,92,104
1,65,97,288
1,64,83,48
1,62,93,40
1,61,93,244
1,62,91,384
1,59,93,256
1,59,93,256
1,62,78,28
1,59,83,8
1,58,97,288
1,57,96,992
1,59,83,392
1,57,91,44
1,56,97,228
1,57,76,360
1,54,93,64
1,54,97,268
1,66,97,36
1,64,96,156
1,54,96,192
1,66,97,48
1,64,96,64
1,66,97,56
1,64,88,312
1,54,97,640
1,62,97,148
1,61,97,180
1,59,83,124
1,57,83,24
1,59,91,180
1,57,97,228
1,50,83,992
1,62,91,76
1,61,73,176
1,59,88,200
1,57,78,8
1,59,88,32
1,57,91,220
1,54,91,1144
1,62,86,76
1,61,81,188
1,59,83,168
1,57,73,16
1,59,83,56
1,59,91,32
1,57,71,8
2,44,77,4
2,44,73,228
2,44,77,244
2,44,77,400
2,44,73,232
2,44,77,152
2,35,107,440
2,36,107,0
2,42,66,0
2,42,52,348
2,42,54,72
2,35,107,312
2,42,54,0
2,38,95,4
2,42,48,312
2,42,37,40
2,35,107,308
2,36,107,0
2,42,54,0
2,42,45,296
2,42,48,108
2,35,107,308
2,42,52,0
2,38,104,4
2,42,54,308
2,42,62,72
2,35,107,304
2,36,107,0
2,42,54,0
2,42,52,300
2,42,52,96
2,35,107,304
2,42,58,0
2,38,95,12
2,42,62,296
2,42,62,104
2,35,107,308
2,36,107,0
2,42,62,0
2,42,58,316
2,42,58,56
2,35,107,316
2,42,54,0
2,38,107,16
2,42,54,316
2,42,54,64
2,35,107,312
2,36,107,0
2,42,66,0
2,42,52,348
2,42,54,172
2,35,107,312
2,42,54,0
2,38,107,28
2,42,48,312
2,42,37,16
2,36,107,308
2,35,107,0
2,42,54,0
2,42,45,296
2,42,48,260
2,35,107,308
2,42,52,0
2,38,95,8
2,42,54,308
2,42,62,100
2,36,107,304
2,35,107,0
2,42,54,0
2,42,52,300
2,42,52,256
2,38,95,288
2,35,107,16
2,42,58,0
2,42,62,296
2,42,62,296
2,36,107,96
2,35,107,0
2,42,62,0
2,42,58,316
2,42,58,296
2,35,107,316
2,42,54,0
2,38,98,4
2,42,54,316
2,42,54,228
2,36,107,300
2,35,107,0
2,42,66,0
2,42,52,348
2,42,54,260
2,38,107,292
2,35,107,20
2,42,54,0
2,42,48,312
2,42,37,264
2,35,107,308
2,36,107,0
2,42,54,0
2,42,45,296
2,42,48,228
2,35,107,308
2,42,52,0
2,38,107,24
2,42,54,308
2,42,62,232
2,36,107,140
2,35,107,0
2,42,54,0
2,42,52,300
2,42,52,264
2,35,107,304
2,42,58,0
2,38,104,36
2,42,62,296
2,42,62,300
2,35,107,272
2,36,107,0
2,42,62,0
2,42,58,316
2,42,58,244
2,35,107,316
2,42,54,0
2,38,107,16
2,42,54,316
2,42,54,296
2,35,107,312
2,36,107,0
2,42,66,0
2,42,52,340
2,42,54,224
2,38,107,304
2,35,107,8
2,42,54,0
2,42,48,312
2,42,37,232
2,35,107,92
2,36,107,0
2,42,54,0
2,42,45,296
2,42,48,224
2,35,107,308
2,42,52,0
2,38,95,4
2,42,54,308
2,42,62,196
2,35,107,268
2,36,107,0
2,42,54,0
2,42,52,300
2,42,52,88
2,38,98,300
2,35,107,4
2,42,58,0
2,42,62,296
2,42,62,108
2,36,107,192
2,35,107,0
2,42,62,0
2,42,58,316
2,42,58,184
2,35,107,316
2,38,95,0
2,42,54,0
2,42,54,316
2,42,54,20
2,35,107,312
2,36,107,0
2,42,66,0
2,42,52,348
2,42,54,136
2,38,98,304
2,35,107,8
2,42,54,0
2,42,48,312
2,42,37,108
2,35,107,72
2,36,107,0
2,42,54,0
2,42,45,296
2,42,48,124
2,35,107,308
2,42,52,0
2,38,98,4
2,42,54,308
2,42,62,112
2,35,107,72
2,36,107,0
2,42,54,0
2,42,52,300
2,38,84,152
2,42,52,48
2,38,81,16
2,38,81,100
2,38,92,92
2,35,107,20
2,42,58,0
2,38,95,8
2,45,76,292
2,42,62,4
2,43,76,116
2,48,81,16
2,42,62,24
2,45,82,88
2,35,107,56
2,36,107,0
2,42,62,40
2,42,58,316
2,42,58,112
2,35,107,276
2,38,95,4
2,42,54,36
2,42,54,316
2,42,54,80
2,35,107,272
2,36,107,0
2,42,66,40
2,42,52,348
2,42,54,148
2,35,107,272
2,38,104,4
2,42,54,36
2,42,48,312
2,42,37,112
2,35,107,268
2,36,107,0
2,42,54,40
2,42,45,296
2,42,48,136
2,35,107,268
2,38,95,12
2,42,52,28
2,42,54,308
2,42,62,144
2,35,107,264
2,36,107,0
2,42,54,40
2,42,52,300
2,42,52,96
2,35,107,264
2,38,107,16
2,42,58,24
2,42,62,296
2,42,62,104
2,35,107,268
2,36,107,0
2,42,62,40
2,42,58,316
2,42,58,212
2,35,107,276
2,38,107,28
2,42,54,12
2,42,54,316
2,42,54,56
2,36,107,272
2,35,107,0
2,42,66,40
2,42,52,348
2,42,54,300
2,35,107,272
2,38,95,8
2,42,54,32
2,42,48,312
2,42,37,140
2,36,107,268
2,35,107,0
2,42,54,40
2,42,45,296
2,42,48,296
2,38,95,252
2,35,107,16
2,42,52,40
2,42,54,308
2,42,62,308
2,36,107,96
2,35,107,0
2,42,54,40
2,42,52,300
2,42,52,292
2,35,107,264
2,38,98,4
2,42,58,36
2,42,62,296
2,42,62,268
2,36,107,268
2,35,107,0
2,42,62,40
2,42,58,316
2,42,58,300
2,38,107,256
2,35,107,20
2,42,54,40
2,42,54,316
2,42,54,304
2,35,107,272
2,36,107,0
2,42,66,40
2,42,52,348
2,42,54,268
2,35,107,272
2,38,107,24
2,42,54,16
2,42,48,312
2,42,37,272
2,36,107,140
2,35,107,0
2,42,54,40
2,42,45,296
2,42,48,304
2,35,107,268
2,38,104,36
2,42,52,4
2,42,54,308
2,42,62,308
2,35,107,264
2,36,107,0
2,42,54,40
2,42,52,300
2,42,52,284
2,35,107,264
2,38,107,16
2,42,58,24
2,42,62,296
2,42,62,304
2,35,107,268
2,36,107,0
2,42,62,40
2,42,58,316
2,42,58,264
2,38,107,268
2,35,107,8
2,42,54,40
2,42,54,316
2,42,54,272
2,35,107,92
2,36,107,0
2,42,66,40
2,42,52,348
2,42,54,264
2,35,107,272
2,38,95,4
2,42,54,36
2,42,48,312
2,42,37,236
2,35,107,268
2,36,107,0
2,42,54,40
2,42,45,296
2,42,48,128
2,38,98,264
2,35,107,4
2,42,52,40
2,42,54,308
2,42,62,148
2,36,107,192
2,35,107,0
2,42,54,40
2,42,52,300
2,42,52,224
2,35,107,264
2,38,95,0
2,42,58,40
2,42,62,296
2,42,62,60
2,35,107,268
2,36,107,0
2,42,62,40
2,42,58,316
2,42,58,176
2,38,98,268
2,35,107,8
2,42,54,40
2,42,54,316
2,42,54,148
2,35,107,72
2,36,107,0
2,42,66,40
2,42,52,348
2,42,54,164
2,35,107,272
2,38,98,4
2,42,54,36
2,42,48,312
2,42,37,152
2,35,107,72
2,36,107,0
2,42,54,40
2,42,45,296
2,38,84,124
2,38,81,64
2,42,48,24
2,38,81,80
2,38,92,92
2,35,107,20
2,38,95,8
2,42,52,32
2,45,76,264
2,42,54,44
2,43,76,80
2,48,81,16
2,42,62,64
2,45,82,44
2,35,107,96
2,36,107,0
2,42,54,0
2,42,52,300
2,42,52,112
2,35,107,264
2,38,95,4
2,42,58,36
2,42,62,296
2,42,62,80
2,35,107,268
2,36,107,0
2,42,62,40
2,42,58,316
2,42,58,148
2,35,107,276
2,38,104,4
2,42,54,36
2,42,54,316
2,42,54,112
2,35,107,272
2,36,107,0
2,42,66,40
2,42,52,348
2,42,54,136
2,35,107,272
2,38,95,12
2,42,54,28
2,42,48,312
2,42,37,144
2,35,107,268
2,36,107,0
2,42,54,40
2,42,45,296
2,42,48,96
2,35,107,268
2,38,107,16
2,42,52,24
2,42,54,308
2,42,62,104
2,35,107,264
2,36,107,0
2,42,54,40
2,42,52,300
2,42,52,212
2,35,107,264
2,38,107,28
2,42,58,12
2,42,62,296
2,42,62,56
2,36,107,268
2,35,107,0
2,42,62,40
2,42,58,316
2,42,58,300
2,35,107,276
2,38,95,8
2,42,54,32
2,42,54,316
2,42,54,140
2,36,107,272
2,35,107,0
2,42,66,40
2,42,52,348
2,42,54,296
2,38,95,256
2,35,107,16
2,42,54,40
2,42,48,312
2,42,37,316
2,36,107,96
2,35,107,0
2,42,54,40
2,42,45,296
2,42,48,304
2,35,107,268
2,38,98,4
2,42,52,36
2,42,54,308
2,42,62,268
2,36,107,264
2,35,107,0
2,42,54,40
2,42,52,300
2,42,52,292
2,38,107,244
2,35,107,20
2,42,58,40
2,42,62,296
2,42,62,304
2,35,107,268
2,36,107,0
2,42,62,40
2,42,58,316
2,42,58,268
2,35,107,276
2,38,107,24
2,42,54,16
2,42,54,316
2,42,54,272
2,36,107,140
2,35,107,0
2,42,66,40
2,42,52,348
2,42,54,304
2,35,107,272
2,38,104,36
2,42,54,4
2,42,48,312
2,42,37,316
2,35,107,268
2,36,107,0
2,42,54,40
2,42,45,296
2,42,48,284
2,35,107,268
2,38,107,16
2,42,52,24
2,42,54,308
2,42,62,308
2,35,107,264
2,36,107,0
2,42,54,40
2,42,52,300
2,42,52,264
2,38,107,256
2,35,107,8
2,42,58,40
2,42,62,296
2,42,62,272
2,35,107,92
2,36,107,0
2,42,62,40
2,42,58,316
2,42,58,264
2,35,107,276
2,38,95,4
2,42,54,36
2,42,54,316
2,42,54,236
2,35,107,268
2,36,107,0
2,42,66,40
2,42,52,348
2,42,54,128
2,38,98,268
2,35,107,4
2,42,54,40
2,42,48,312
2,42,37,148
2,36,107,192
2,35,107,0
2,42,54,40
2,42,45,296
2,42,48,224
2,35,107,268
2,38,95,0
2,42,52,40
2,42,54,308
2,42,62,60
2,35,107,264
2,36,107,0
2,42,54,40
2,42,52,300
2,42,52,176
2,38,98,256
2,35,107,8
2,42,58,40
2,42,62,296
2,42,62,148
2,35,107,112
2,36,107,0
2,42,66,0
2,42,52,348
2,42,54,72
2,35,107,312
2,42,54,0
2,38,95,4
2,42,48,312
2,42,37,40
2,35,107,308
2,36,107,0
2,42,54,0
2,42,45,296
2,42,48,108
2,35,107,308
2,42,52,0
2,38,104,4
2,42,54,308
2,42,62,72
2,35,107,304
2,36,107,0
2,42,54,0
2,42,52,300
2,42,52,96
2,35,107,304
2,42,58,0
2,38,95,12
2,42,62,296
2,42,62,104
2,35,107,308
2,36,107,0
2,42,62,0
2,42,58,316
2,42,58,56
2,35,107,316
2,42,54,0
2,38,107,16
2,42,54,316
2,42,54,64
2,35,107,312
2,36,107,0
2,42,66,0
2,42,52,348
2,42,54,172
2,35,107,312
2,42,54,0
2,42,48,312
3,38,107,2304
3,43,107,136
3,45,107,220
3,33,107,100
3,38,107,144
3,43,107,16
3,45,107,132
3,33,107,40
3,38,107,116
3,38,107,272
3,40,107,96
3,40,107,176
3,33,101,204
3,40,107,148
3,36,104,144
3,43,104,24
3,36,104,60
3,43,107,112
3,34,107,308
3,41,101,1056
3,34,107,52
3,41,104,124
3,34,107,1056
3,41,107,52
3,34,107,136
3,41,93,12
3,33,104,20
3,33,104,300
3,38,107,8
3,37,107,32
3,35,104,8
3,40,107,92
3,37,107,132
3,42,107,4
3,35,107,116
3,40,107,4
3,33,107,52
3,33,107,1152
3,38,107,108
3,43,107,136
3,45,107,124
3,33,107,100
3,38,107,144
3,43,107,112
3,45,107,132
3,33,107,40
3,38,107,116
3,38,107,176
3,40,107,192
3,40,107,176
3,33,101,204
3,40,107,148
3,36,104,48
3,43,104,120
3,36,104,60
3,43,107,112
3,34,107,212
3,41,101,76
3,34,107,52
3,41,104,28
3,34,107,80
3,41,107,52
3,34,107,40
3,41,93,12
3,33,104,116
3,33,104,204
3,38,107,104
3,37,107,32
3,35,104,8
3,40,107,92
3,37,107,36
3,42,107,100
3,35,107,20
3,40,107,100
3,33,107,52
3,33,107,1152
3,38,107,108
3,43,107,136
3,45,107,124
3,33,107,100
3,38,107,144
3,43,107,112
3,45,107,132
3,33,107,40
3,38,107,116
3,38,107,176
3,40,107,192
3,40,107,176
3,33,101,204
3,40,107,148
3,36,104,48
3,43,104,120
3,36,104,60
3,43,107,112
3,34,107,212
3,41,101,76
3,34,107,52
3,41,104,28
3,34,107,80
3,41,107,52
3,34,107,40
3,41,93,12
3,33,104,116
3,33,104,204
3,38,107,104
3,37,107,32
3,35,104,8
3,40,107,92
3,37,107,36
3,42,107,100
3,35,107,20
3,40,107,100
3,33,107,52
3,33,107,1152
3,35,107,108
3,40,107,100
3,33,107,52
3,33,107,1152
3,35,107,108
3,40,107,100
3,33,68,1316
4,64,107,44
4,76,107,8
4,71,103,8
4,76,107,164
4,71,107,8
4,78,87,68
4,71,43,32
4,76,107,12
4,64,101,12
4,74,101,12
4,64,107,92
4,71,98,0
4,76,107,4
4,74,104,24
4,69,92,4
4,64,107,44
