track,note,velocity,time
1,58,110,0
1,58,0,94
1,65,110,2
1,65,0,94
1,73,110,2
1,73,0,94
1,65,110,2
1,65,0,46
1,58,110,2
1,58,0,46
1,72,110,2
1,72,0,94
1,63,110,2
1,63,0,94
1,70,110,2
1,70,0,94
1,61,110,2
1,61,0,94
1,58,110,2
1,58,0,94
1,65,110,2
1,65,0,94
1,73,110,2
1,73,0,94
1,65,110,2
1,65,0,46
1,58,110,2
1,58,0,46
1,72,110,2
1,72,0,94
1,63,110,2
1,63,0,94
1,70,110,2
1,70,0,94
1,61,110,2
1,61,0,94
1,58,110,2
1,58,0,94
1,65,110,2
1,65,0,94
1,73,110,2
1,73,0,94
1,65,110,2
1,65,0,46
1,58,110,2
1,58,0,46
1,72,110,2
1,72,0,94
1,63,110,2
1,63,0,94
1,70,110,2
1,70,0,94
1,61,110,2
1,61,0,94
1,58,110,2
1,58,0,94
1,65,110,2
1,65,0,94
1,73,110,2
1,73,0,94
1,65,110,2
1,65,0,46
1,58,110,2
1,58,0,46
1,72,110,2
1,72,0,94
1,63,110,2
1,63,0,94
1,70,110,2
1,70,0,94
1,61,110,2
1,61,0,94
1,58,110,2
1,58,0,94
1,65,110,2
1,65,0,94
1,73,110,2
1,73,0,94
1,65,110,2
1,65,0,46
1,58,110,2
1,58,0,46
1,72,110,2
1,72,0,94
1,63,110,2
1,63,0,94
1,70,110,2
1,70,0,94
1,63,110,2
1,63,0,94
1,56,110,2
1,56,0,94
1,63,110,2
1,63,0,94
1,72,110,2
1,72,0,94
1,63,110,2
1,63,0,46
1,56,110,2
1,56,0,46
1,70,110,2
1,70,0,94
1,63,110,2
1,63,0,94
1,68,110,2
1,68,0,94
1,63,110,2
1,63,0,94
1,58,110,2
1,58,0,94
1,65,110,2
1,65,0,94
1,73,110,2
1,73,0,94
1,65,110,2
1,65,0,46
1,58,110,2
1,58,0,46
1,72,110,2
1,72,0,94
1,63,110,2
1,63,0,94
1,70,110,2
1,70,0,94
1,63,110,2
1,63,0,94
1,56,110,2
1,56,0,94
1,63,110,2
1,63,0,94
1,72,110,2
1,72,0,94
1,63,110,2
1,63,0,46
1,56,110,2
1,56,0,46
1,70,110,2
1,70,0,94
1,63,110,2
1,63,0,94
1,68,110,2
1,68,0,94
1,63,110,2
1,63,0,94
1,61,110,2
1,61,0,94
1,68,110,2
1,68,0,94
1,77,110,2
1,77,0,94
1,68,110,2
1,68,0,46
1,61,110,2
1,61,0,46
1,75,110,2
1,75,0,94
1,68,110,2
1,68,0,94
1,73,110,2
1,73,0,94
1,68,110,2
1,68,0,94
1,59,110,2
1,59,0,94
1,66,110,2
1,66,0,94
1,75,110,2
1,75,0,94
1,66,110,2
1,66,0,46
1,59,110,2
1,59,0,46
1,73,110,2
1,73,0,94
1,66,110,2
1,66,0,94
1,71,110,2
1,71,0,94
1,66,110,2
1,66,0,94
1,61,110,2
1,61,0,94
1,68,110,2
1,68,0,94
1,77,110,2
1,77,0,94
1,68,110,2
1,68,0,46
1,61,110,2
1,61,0,46
1,75,110,2
1,75,0,94
1,68,110,2
1,68,0,94
1,73,110,2
1,73,0,94
1,68,110,2
1,68,0,94
1,59,110,2
1,59,0,94
1,66,110,2
1,66,0,94
1,75,110,2
1,75,0,94
1,66,110,2
1,66,0,46
1,59,110,2
1,59,0,46
1,73,110,2
1,73,0,94
1,66,110,2
1,66,0,94
1,71,110,2
1,71,0,94
1,66,110,2
1,66,0,94
1,59,110,2
1,64,110,0
1,68,110,0
1,71,110,0
1,59,0,46
1,64,0,0
1,68,0,0
1,71,0,0
1,59,110,50
1,59,0,94
1,59,110,2
1,64,110,0
1,68,110,0
1,71,110,0
1,59,0,46
1,64,0,0
1,68,0,0
1,71,0,0
1,59,110,50
1,59,0,46
1,61,110,50
1,64,110,0
1,69,110,0
1,61,0,46
1,64,0,0
1,69,0,0
1,61,110,50
1,61,0,94
1,64,110,2
1,69,110,0
1,64,0,94
1,69,0,0
1,61,110,2
1,61,0,94
1,64,110,2
1,69,110,0
1,64,0,94
1,69,0,0
1,61,110,2
1,61,0,94
1,64,110,2
1,69,110,0
1,64,0,94
1,69,0,0
1,61,110,2
1,61,0,46
1,64,110,2
1,68,110,0
1,64,0,46
1,68,0,0
1,59,110,2
1,59,0,46
1,59,110,50
1,59,0,94
1,64,110,2
1,68,110,0
1,71,110,0
1,64,0,94
1,68,0,0
1,71,0,0
1,59,110,2
1,59,0,46
1,61,110,50
1,64,110,0
1,69,110,0
1,61,0,46
1,64,0,0
1,69,0,0
1,61,110,50
1,61,0,94
1,64,110,2
1,69,110,0
1,64,0,94
1,69,0,0
1,61,110,2
1,61,0,94
1,64,110,2
1,69,110,0
1,64,0,94
1,69,0,0
1,61,110,2
1,61,0,46
1,61,110,50
1,64,110,0
1,69,110,0
1,61,0,94
1,64,0,0
1,69,0,0
1,61,110,2
1,61,0,94
1,65,110,290
1,65,0,94
1,72,110,2
1,72,0,94
1,63,110,2
1,63,0,94
1,70,110,2
1,70,0,94
1,63,110,2
1,63,0,94
1,63,110,98
1,63,0,94
1,72,110,2
1,72,0,94
1,63,110,2
1,63,0,94
1,70,110,2
1,70,0,94
1,63,110,2
1,63,0,94
1,68,110,2
1,68,0,94
1,63,110,2
1,63,0,94
1,65,110,98
1,65,0,94
1,72,110,2
1,72,0,46
1,65,110,50
1,65,0,94
1,70,110,2
1,70,0,94
1,65,110,2
1,65,0,46
1,70,110,2
1,70,0,142
1,63,110,2
1,63,0,46
1,63,110,146
1,63,0,94
1,72,110,2
1,72,0,94
1,63,110,2
1,63,0,94
1,70,110,2
1,70,0,94
1,63,110,2
1,63,0,94
1,68,110,2
1,68,0,94
1,63,110,2
1,63,0,46
1,68,110,146
1,68,0,94
1,77,110,2
1,77,0,94
1,68,110,2
1,68,0,94
1,75,110,2
1,75,0,94
1,68,110,2
1,68,0,94
1,73,110,2
1,73,0,94
1,68,110,2
1,68,0,94
1,66,110,98
1,66,0,94
1,75,110,2
1,75,0,94
1,66,110,2
1,66,0,94
1,73,110,2
1,73,0,94
1,66,110,2
1,66,0,94
1,71,110,2
1,71,0,94
1,66,110,2
1,66,0,94
1,68,110,98
1,68,0,46
1,77,110,50
1,77,0,94
1,68,110,2
1,68,0,46
1,75,110,2
1,75,0,142
1,68,110,2
1,68,0,94
1,73,110,2
1,73,0,94
1,66,110,2
1,66,0,46
1,66,110,146
1,66,0,94
1,75,110,2
1,75,0,94
1,66,110,2
1,66,0,94
1,73,110,2
1,73,0,94
1,66,110,2
1,66,0,94
1,71,110,2
1,71,0,94
1,66,110,2
1,66,0,46
1,59,110,50
1,64,110,0
1,68,110,0
1,71,110,0
1,59,0,46
1,64,0,0
1,68,0,0
1,71,0,0
1,59,110,50
1,59,0,94
1,64,110,2
1,68,110,0
1,71,110,0
1,64,0,94
1,68,0,0
1,71,0,0
1,59,110,2
1,59,0,46
1,69,110,2
1,69,0,46
1,61,110,2
1,64,110,0
1,69,110,0
1,61,0,46
1,64,0,0
1,69,0,0
1,61,110,50
1,61,0,94
1,64,110,2
1,69,110,0
1,64,0,94
1,69,0,0
1,61,110,2
1,61,0,94
1,64,110,2
1,69,110,0
1,64,0,94
1,69,0,0
1,61,110,2
1,61,0,94
1,64,110,2
1,69,110,0
1,64,0,94
1,69,0,0
1,61,110,2
1,61,0,46
1,59,110,50
1,64,110,0
1,68,110,0
1,59,0,46
1,64,0,0
1,68,0,0
1,59,110,50
1,59,0,94
1,64,110,2
1,68,110,0
1,71,110,0
1,64,0,94
1,68,0,0
1,71,0,0
1,59,110,2
1,59,0,46
1,61,110,50
1,64,110,0
1,69,110,0
1,61,0,94
1,64,0,0
1,69,0,0
1,61,110,2
1,61,0,94
1,64,110,2
1,69,110,0
1,64,0,94
1,69,0,0
1,61,110,98
1,64,110,0
1,69,110,0
1,61,0,46
1,64,0,0
1,69,0,0
1,61,110,98
1,64,110,0
1,69,110,0
1,61,0,46
1,64,0,0
1,69,0,0
1,68,110,50
1,68,0,46
1,66,110,2
1,66,0,94
1,44,110,2
1,44,0,94
1,63,110,2
1,68,110,0
1,72,110,0
1,63,0,46
1,68,0,0
1,72,0,0
1,63,110,2
1,68,110,0
1,72,110,0
1,63,0,46
1,68,0,0
1,72,0,0
1,63,110,2
1,68,110,0
1,72,110,0
1,63,0,94
1,68,0,0
1,72,0,0
1,44,110,2
1,44,0,46
1,41,110,50
1,41,0,94
1,68,110,2
1,68,0,46
1,60,110,50
1,65,110,0
1,68,110,0
1,60,0,160
1,65,0,0
1,68,0,0
1,37,110,32
1,37,0,94
1,62,110,2
1,65,110,0
1,62,0,46
1,65,0,0
1,56,110,50
1,61,110,0
1,65,110,0
1,56,0,160
1,61,0,0
1,65,0,0
1,39,110,32
1,39,0,160
1,58,110,32
1,63,110,0
1,67,110,0
1,58,0,142
1,63,0,0
1,67,0,0
1,44,110,50
1,44,0,94
1,63,110,2
1,68,110,0
1,72,110,0
1,63,0,46
1,68,0,0
1,72,0,0
1,63,110,2
1,68,110,0
1,72,110,0
1,63,0,46
1,68,0,0
1,72,0,0
1,63,110,2
1,68,110,0
1,72,110,0
1,63,0,160
1,68,0,0
1,72,0,0
1,41,110,32
1,41,0,160
1,60,110,32
1,65,110,0
1,68,110,0
1,60,0,160
1,65,0,0
1,68,0,0
1,37,110,32
1,37,0,94
1,56,110,2
1,65,110,0
1,56,0,46
1,65,0,0
1,56,110,2
1,61,110,0
1,65,110,0
1,56,0,46
1,61,0,0
1,65,0,0
1,56,110,2
1,61,110,0
1,65,110,0
1,56,0,94
1,61,0,0
1,65,0,0
1,37,110,2
1,37,0,46
1,39,110,50
1,39,0,160
1,58,110,32
1,63,110,0
1,67,110,0
1,58,0,142
1,63,0,0
1,67,0,0
1,44,110,50
1,44,0,94
1,68,110,2
1,72,110,0
1,68,0,46
1,72,0,0
1,68,110,2
1,72,110,0
1,68,0,46
1,72,0,0
1,63,110,2
1,68,110,0
1,72,110,0
1,63,0,160
1,68,0,0
1,72,0,0
1,41,110,32
1,41,0,160
1,60,110,32
1,65,110,0
1,68,110,0
1,60,0,142
1,65,0,0
1,68,0,0
1,37,110,50
1,37,0,142
1,56,110,2
1,61,110,0
1,65,110,0
1,56,0,46
1,61,0,0
1,65,0,0
1,56,110,2
1,61,110,0
1,65,110,0
1,56,0,142
1,61,0,0
1,65,0,0
1,39,110,2
1,39,0,208
1,58,110,32
1,63,110,0
1,67,110,0
1,58,0,94
1,63,0,0
1,67,0,0
1,39,110,2
1,39,0,46
1,37,110,50
1,37,0,94
1,65,110,2
1,65,0,46
1,65,110,2
1,65,0,46
1,56,110,2
1,61,110,0
1,65,110,0
1,56,0,94
1,61,0,0
1,65,0,0
1,37,110,2
1,37,0,46
1,39,110,50
1,39,0,46
1,67,110,2
1,67,0,46
1,67,110,2
1,67,0,46
1,58,110,2
1,63,110,0
1,67,110,0
1,58,0,142
1,63,0,0
1,67,0,0
1,39,110,2
1,39,0,46
1,58,110,2
1,63,110,0
1,67,110,0
1,58,0,46
1,63,0,0
1,67,0,0
1,41,110,2
1,41,0,94
1,68,110,2
1,68,0,46
1,68,110,2
1,68,0,46
1,60,110,2
1,65,110,0
1,68,110,0
1,60,0,46
1,65,0,0
1,68,0,0
1,41,110,2
1,41,0,46
1,60,110,2
1,60,0,46
1,65,110,2
1,68,110,0
1,65,0,46
1,68,0,0
1,46,110,2
1,46,0,46
1,70,110,2
1,70,0,46
1,70,110,2
1,70,0,46
1,62,110,50
1,65,110,0
1,70,110,0
1,62,0,142
1,65,0,0
1,70,0,0
1,46,110,2
1,46,0,46
1,46,110,2
1,46,0,46
1,62,110,2
1,65,110,0
1,70,110,0
1,62,0,46
1,65,0,0
1,70,0,0
1,62,110,2
1,65,110,0
1,70,110,0
1,62,0,46
1,65,0,0
1,70,0,0
1,62,110,2
1,65,110,0
1,70,110,0
1,62,0,46
1,65,0,0
1,70,0,0
1,62,110,2
1,65,110,0
1,70,110,0
1,62,0,46
1,65,0,0
1,70,0,0
1,62,110,2
1,65,110,0
1,70,110,0
1,62,0,46
1,65,0,0
1,70,0,0
1,62,110,2
1,65,110,0
1,70,110,0
1,62,0,46
1,65,0,0
1,70,0,0
1,62,110,2
1,65,110,0
1,70,110,0
1,62,0,46
1,65,0,0
1,70,0,0
1,44,110,2
1,44,0,160
1,60,110,32
1,63,110,0
1,68,110,0
1,60,0,46
1,63,0,0
1,68,0,0
1,63,110,50
1,68,110,0
1,63,0,46
1,68,0,0
1,60,110,2
1,63,110,0
1,68,110,0
1,60,0,46
1,63,0,0
1,68,0,0
1,39,110,98
1,39,0,94
1,58,110,2
1,63,110,0
1,67,110,0
1,58,0,94
1,63,0,0
1,67,0,0
1,39,110,2
1,39,0,46
1,58,110,2
1,63,110,0
1,67,110,0
1,58,0,46
1,63,0,0
1,67,0,0
1,41,110,2
1,41,0,94
1,72,110,2
1,72,0,46
1,65,110,50
1,68,110,0
1,72,110,0
1,65,0,94
1,68,0,0
1,72,0,0
1,41,110,2
1,41,0,46
1,65,110,2
1,68,110,0
1,72,110,0
1,65,0,46
1,68,0,0
1,72,0,0
1,46,110,2
1,46,0,94
1,70,110,2
1,70,0,46
1,62,110,50
1,65,110,0
1,70,110,0
1,62,0,142
1,65,0,0
1,70,0,0
1,46,110,2
1,46,0,46
1,46,110,2
1,46,0,46
1,62,110,2
1,65,110,0
1,70,110,0
1,62,0,46
1,65,0,0
1,70,0,0
1,62,110,2
1,65,110,0
1,70,110,0
1,62,0,46
1,65,0,0
1,70,0,0
1,62,110,2
1,65,110,0
1,70,110,0
1,62,0,46
1,65,0,0
1,70,0,0
1,62,110,2
1,65,110,0
1,70,110,0
1,62,0,46
1,65,0,0
1,70,0,0
1,46,110,2
1,46,0,46
1,70,110,2
1,70,0,46
1,62,110,2
1,65,110,0
1,70,110,0
1,62,0,46
1,65,0,0
1,70,0,0
1,44,110,2
1,44,0,160
1,63,110,32
1,68,110,0
1,72,110,0
1,63,0,46
1,68,0,0
1,72,0,0
1,44,110,2
1,44,0,46
1,63,110,2
1,68,110,0
1,72,110,0
1,63,0,46
1,68,0,0
1,72,0,0
1,63,110,2
1,68,110,0
1,72,110,0
1,63,0,46
1,68,0,0
1,72,0,0
1,39,110,2
1,39,0,160
1,63,110,32
1,67,110,0
1,70,110,0
1,63,0,94
1,67,0,0
1,70,0,0
1,39,110,2
1,39,0,46
1,44,110,50
1,44,0,94
1,68,110,2
1,68,0,94
1,37,110,2
1,61,110,0
1,65,110,0
1,68,110,0
1,37,0,94
1,61,0,0
1,65,0,0
1,68,0,0
1,37,110,98
1,37,0,46
1,39,110,2
1,70,110,0
1,39,0,46
1,70,0,0
1,39,110,2
1,63,110,0
1,67,110,0
1,70,110,0
1,39,0,46
1,63,0,0
1,67,0,0
1,70,0,0
1,39,110,50
1,63,110,0
1,67,110,0
1,70,110,0
1,39,0,46
1,63,0,0
1,67,0,0
1,70,0,0
1,70,110,50
1,70,0,46
1,44,110,50
1,60,110,0
1,63,110,0
1,68,110,0
1,44,0,334
1,60,0,0
1,63,0,0
1,68,0,0
1,72,110,50
1,72,0,46
1,65,110,2
1,68,110,0
1,65,0,94
1,68,0,0
1,65,110,50
1,70,110,0
1,65,0,46
1,70,0,0
1,44,110,50
1,65,110,0
1,68,110,0
1,44,0,46
1,65,0,0
1,68,0,0
1,36,110,50
1,60,110,0
1,64,110,0
1,67,110,0
1,36,0,238
1,60,0,0
1,64,0,0
1,67,0,0
1,60,110,2
1,64,110,0
1,67,110,0
1,60,0,94
1,64,0,0
1,67,0,0
1,37,110,50
1,65,110,0
1,37,0,94
1,65,0,0
1,56,110,2
1,56,0,94
1,61,110,2
1,61,0,94
1,37,110,2
1,56,110,0
1,37,0,46
1,56,0,0
1,56,110,50
1,61,110,0
1,65,110,0
1,56,0,94
1,61,0,0
1,65,0,0
1,37,110,2
1,37,0,46
1,37,110,50
1,56,110,0
