track,note,velocity,time
5,58,64,0
5,65,64,48
5,65,0,40
5,73,64,8
5,73,0,40
5,65,64,8
5,58,0,20
5,58,64,4
5,65,0,16
5,72,64,8
5,72,0,40
5,63,64,8
5,63,0,40
5,70,64,8
5,70,0,40
5,61,64,8
5,58,0,19
5,61,0,21
5,58,64,8
5,65,64,48
5,65,0,40
5,73,64,8
5,73,0,40
5,65,64,8
5,58,0,20
5,58,64,4
5,65,0,16
5,72,64,8
5,72,0,40
5,63,64,8
5,63,0,40
5,70,64,8
5,70,0,40
5,61,64,8
5,58,0,19
5,61,0,21
5,58,64,8
5,65,64,48
5,65,0,40
5,73,64,8
5,73,0,40
5,65,64,8
5,58,0,20
5,58,64,4
5,65,0,16
5,72,64,8
5,72,0,40
5,63,64,8
5,63,0,40
5,70,64,8
5,70,0,40
5,61,64,8
5,58,0,19
5,61,0,21
5,58,64,8
5,65,64,48
5,65,0,40
5,73,64,8
5,73,0,40
5,65,64,8
5,58,0,20
5,58,64,4
5,65,0,16
5,72,64,8
5,72,0,40
5,63,64,8
5,63,0,40
5,70,64,8
5,70,0,40
5,61,64,8
5,58,0,19
5,61,0,21
5,58,64,8
5,65,64,48
5,65,0,40
5,73,64,8
5,73,0,40
5,65,64,8
5,58,0,20
5,58,64,4
5,65,0,16
5,72,64,8
5,72,0,40
5,63,64,8
5,63,0,40
5,70,64,8
5,70,0,40
5,63,64,8
5,58,0,19
5,63,0,21
5,56,64,8
5,63,64,48
5,63,0,40
5,72,64,8
5,72,0,40
5,63,64,8
5,56,0,20
5,56,64,4
5,63,0,16
5,70,64,8
5,70,0,40
5,63,64,8
5,63,0,40
5,68,64,8
5,68,0,40
5,63,64,8
5,56,0,19
5,63,0,21
5,58,64,8
5,65,64,48
5,65,0,40
5,73,64,8
5,73,0,40
5,65,64,8
5,58,0,20
5,58,64,4
5,65,0,16
5,72,64,8
5,72,0,40
5,63,64,8
5,63,0,40
5,70,64,8
5,70,0,40
5,63,64,8
5,58,0,19
5,63,0,21
5,56,64,8
5,63,64,48
5,63,0,40
5,72,64,8
5,72,0,40
5,63,64,8
5,56,0,20
5,56,64,4
5,63,0,16
5,70,64,8
5,70,0,40
5,63,64,8
5,63,0,40
5,68,64,8
5,68,0,40
5,63,64,8
5,56,0,19
5,63,0,21
5,61,64,8
5,68,64,48
5,68,0,40
5,77,64,8
5,77,0,40
5,68,64,8
5,61,0,20
5,61,64,4
5,68,0,16
5,75,64,8
5,75,0,40
5,68,64,8
5,68,0,40
5,73,64,8
5,73,0,40
5,68,64,8
5,61,0,19
5,68,0,21
5,59,64,8
5,66,64,48
5,66,0,40
5,75,64,8
5,75,0,40
5,66,64,8
5,59,0,20
5,59,64,4
5,66,0,16
5,73,64,8
5,73,0,40
5,66,64,8
5,66,0,40
5,71,64,8
5,71,0,40
5,66,64,8
5,59,0,19
5,66,0,21
5,61,64,8
5,68,64,48
5,68,0,40
5,77,64,8
5,77,0,40
5,68,64,8
5,61,0,20
5,61,64,4
5,68,0,16
5,75,64,8
5,75,0,40
5,68,64,8
5,68,0,40
5,73,64,8
5,73,0,40
5,68,64,8
5,61,0,19
5,68,0,21
5,59,64,8
5,66,64,48
5,66,0,40
5,75,64,8
5,75,0,40
5,66,64,8
5,59,0,20
5,59,64,4
5,66,0,16
5,73,64,8
5,73,0,40
5,66,64,8
5,66,0,40
5,71,64,8
5,71,0,40
5,66,64,8
5,59,0,19
5,66,0,21
5,71,92,0
5,68,88,0
5,64,96,0
5,59,82,0
5,59,0,22
5,59,78,15
5,68,0,6
5,64,0,1
5,71,0,9
5,59,0,28
5,59,58,4
5,71,92,0
5,68,82,1
5,64,96,0
5,59,0,17
5,71,0,17
5,59,74,0
5,64,0,1
5,68,0,2
5,59,0,10
5,69,78,28
5,61,70,2
5,64,96,0
5,61,0,34
5,61,62,13
5,64,0,7
5,69,0,21
5,69,82,14
5,64,92,1
5,61,0,35
5,61,78,16
5,64,0,7
5,69,0,8
5,69,96,32
5,64,92,1
5,61,0,29
5,61,70,13
5,69,0,5
5,64,0,4
5,69,96,35
5,64,96,1
5,61,0,22
5,61,74,9
5,64,0,8
5,69,0,13
5,61,0,10
5,64,96,16
5,68,92,0
5,59,88,1
5,59,0,26
5,59,70,17
5,68,0,8
5,64,0,2
5,68,88,42
5,64,96,0
5,71,96,0
5,59,0,15
5,59,64,21
5,71,0,1
5,68,0,3
5,64,0,14
5,59,0,1
5,69,64,25
5,64,74,1
5,61,88,1
5,61,0,20
5,61,66,14
5,64,0,8
5,69,0,23
5,69,22,11
5,64,96,2
5,61,0,28
5,61,66,23
5,64,0,8
5,69,0,1
5,69,82,36
5,64,92,0
5,61,0,36
5,64,0,22
5,61,58,0
5,69,0,1
5,61,0,18
5,69,88,22
5,61,88,0
5,64,96,1
5,61,0,43
5,61,52,6
5,64,0,27
5,61,0,8
5,69,0,9
5,65,48,144
5,65,0,42
5,72,62,4
5,63,52,51
5,72,0,5
5,70,62,39
5,63,0,2
5,70,0,47
5,63,54,7
5,63,0,38
5,63,58,60
5,63,0,40
5,72,70,5
5,72,0,45
5,63,42,2
5,70,62,46
5,63,0,3
5,70,0,38
5,63,58,9
5,68,60,46
5,63,0,4
5,63,40,45
5,68,0,11
5,63,0,29
5,65,62,47
5,65,0,50
5,72,52,4
5,72,0,37
5,65,52,12
5,70,60,45
5,65,0,5
5,70,0,39
5,65,56,0
5,65,0,39
5,70,46,6
5,70,0,51
5,63,54,1
5,63,0,38
5,63,62,61
5,72,74,49
5,63,0,1
5,63,50,46
5,72,0,45
5,70,58,4
5,63,0,12
5,63,54,33
5,70,0,13
5,63,0,50
5,68,34,0
5,63,60,36
5,68,0,15
5,63,0,20
5,68,54,75
5,68,0,32
5,77,64,2
5,68,54,48
5,75,60,48
5,68,0,13
5,77,0,0
5,68,46,34
5,75,0,33
5,73,56,18
5,68,0,10
5,68,50,39
5,73,0,6
5,68,0,38
5,66,44,48
5,75,56,49
5,66,0,5
5,66,58,42
5,75,0,15
5,73,54,38
5,66,0,1
5,66,36,49
5,73,0,2
5,66,0,47
5,71,58,0
5,66,58,46
5,71,0,5
5,66,0,34
5,68,48,56
5,68,0,34
5,77,62,8
5,68,48,45
5,77,0,20
5,75,60,25
5,68,0,8
5,68,42,44
5,75,0,30
5,68,0,18
5,73,56,2
5,66,52,46
5,73,0,1
5,66,0,42
5,66,46,60
5,66,0,42
5,75,54,0
5,66,50,52
5,75,0,2
5,66,0,46
5,73,56,2
5,73,0,49
5,66,54,1
5,66,0,45
5,71,58,3
5,66,58,44
5,71,0,6
5,66,0,24
5,64,88,0
5,71,78,0
5,68,82,0
5,59,70,0
5,59,0,21
5,59,56,18
5,68,0,5
5,64,0,0
5,71,0,11
5,64,96,32
5,71,88,1
5,68,82,0
5,59,0,19
5,59,62,24
5,71,0,5
5,68,0,1
5,64,0,4
5,59,0,9
5,69,54,7
5,69,0,10
5,69,88,11
5,64,92,1
5,61,88,0
5,61,0,30
5,61,66,12
5,64,0,4
5,69,0,15
5,69,82,29
5,64,92,1
5,61,0,27
5,61,70,20
5,64,0,6
5,69,0,25
5,69,88,17
5,64,96,1
5,61,0,24
5,61,64,23
5,64,0,8
5,69,0,8
5,69,82,31
5,64,88,1
5,61,0,23
5,61,74,22
5,64,0,3
5,61,0,32
5,69,0,3
5,64,92,5
5,68,82,1
5,59,78,1
5,59,0,36
5,59,64,19
5,68,0,8
5,64,0,3
5,71,74,33
5,68,78,2
5,64,88,0
5,59,0,25
5,59,64,24
5,68,0,9
5,71,0,2
5,64,0,2
5,59,0,13
5,69,78,19
5,64,82,2
5,61,82,2
5,61,0,44
5,61,54,5
5,64,0,5
5,69,0,10
5,69,74,31
5,64,82,1
5,61,0,26
5,64,0,26
5,69,0,5
5,64,82,35
5,61,66,0
5,69,74,0
5,69,88,5
5,61,62,0
5,64,82,0
5,61,0,17
5,69,0,27
5,64,0,3
5,64,0,1
5,69,0,15
5,61,62,7
5,69,82,0
5,64,80,0
5,61,0,4
5,68,82,44
5,69,0,3
5,64,0,7
5,61,0,5
5,66,82,7
5,68,0,6
5,66,0,32
5,44,82,12
5,72,82,44
5,68,74,1
5,63,62,0
5,63,0,6
5,72,0,0
5,68,0,2
5,63,78,12
5,68,74,1
5,72,82,0
5,72,0,7
5,63,0,0
5,68,0,1
5,72,108,15
5,63,96,0
5,68,96,0
5,44,0,18
5,44,66,39
5,44,0,12
5,41,74,33
5,68,0,4
5,63,0,0
5,72,0,3
5,68,66,1
5,68,0,5
5,68,92,5
5,65,96,1
5,60,92,0
5,41,0,12
5,65,0,73
5,68,0,2
5,60,0,4
5,37,92,2
5,65,58,54
5,62,62,3
5,62,0,6
5,65,0,3
5,56,82,35
5,61,88,0
5,65,92,0
5,37,0,35
5,56,0,52
5,39,92,3
5,61,0,2
5,65,0,0
5,67,88,91
5,58,74,1
5,63,88,0
5,39,0,8
5,58,0,79
5,63,0,2
5,67,0,2
5,44,96,1
5,68,74,46
5,72,62,2
5,63,58,0
5,72,0,4
5,63,0,1
5,68,0,0
5,63,62,16
5,68,66,0
5,72,62,1
5,72,0,3
5,68,0,1
5,63,0,0
5,63,88,17
5,68,88,1
5,72,96,0
5,44,0,20
5,41,88,83
5,68,0,1
5,63,0,1
5,72,0,2
5,60,70,99
5,68,62,1
5,65,82,0
5,41,0,13
5,68,0,74
5,65,0,1
5,60,0,3
5,37,92,0
5,65,70,45
5,56,56,1
5,56,0,8
5,65,0,2
5,65,62,7
5,61,74,1
5,56,46,2
5,61,0,3
5,56,0,1
5,65,0,3
5,56,70,14
5,65,88,1
5,61,74,1
5,37,0,31
5,37,64,20
5,37,0,8
5,56,0,23
5,61,0,7
5,39,88,5
5,65,0,5
5,63,88,99
5,58,74,0
5,67,88,0
5,39,0,10
5,58,0,76
5,63,0,3
5,67,0,1
5,44,88,6
5,68,60,46
5,72,60,1
5,72,0,5
5,68,0,0
5,72,74,13
5,68,62,1
5,68,0,5
5,72,0,0
5,63,88,18
5,68,92,1
5,72,102,0
5,44,0,21
5,41,70,73
5,63,0,4
5,72,0,0
5,68,0,0
5,68,88,96
5,60,82,2
5,65,92,0
5,41,0,5
5,65,0,75
5,60,0,2
5,68,0,0
5,37,88,12
5,61,74,72
5,56,66,0
5,65,78,1
5,65,0,5
5,61,0,1
5,56,0,1
5,56,78,9
5,61,88,1
5,65,88,0
5,37,0,24
5,39,96,70
5,56,0,3
5,61,0,2
5,65,0,2
5,58,74,100
5,67,96,1
5,63,88,0
5,39,0,5
5,39,88,36
5,39,0,13
5,58,0,28
5,37,88,9
5,67,0,2
5,63,0,3
5,65,70,46
5,65,0,10
5,65,54,11
5,65,0,6
5,56,74,21
5,65,88,1
5,61,78,1
5,37,0,35
5,37,66,13
5,37,0,10
5,56,0,27
5,39,92,3
5,61,0,4
5,65,0,2
5,67,74,36
5,67,0,14
5,67,62,6
5,67,0,10
5,58,82,21
5,63,82,0
5,67,92,1
5,39,0,33
5,39,74,19
5,39,0,7
5,58,0,4
5,67,0,1
5,63,0,3
5,58,62,7
5,67,78,1
5,63,64,1
5,58,0,21
5,63,0,1
5,67,0,2
5,41,82,0
5,68,74,46
5,68,0,9
5,68,74,11
5,68,0,7
5,60,88,20
5,68,88,0
5,65,92,1
5,41,0,17
5,41,70,29
5,65,0,2
5,60,0,1
5,68,0,2
5,41,0,8
5,60,66,11
5,68,74,2
5,65,82,0
5,60,0,17
5,65,0,6
5,68,0,0
5,46,92,0
5,70,66,47
5,70,0,11
5,70,74,12
5,70,0,7
5,62,88,21
5,65,92,1
5,70,96,0
5,46,0,48
5,46,74,34
5,65,0,20
5,62,0,1
5,70,0,1
5,46,102,1
5,46,0,4
5,70,88,11
5,65,88,0
5,62,70,0
5,65,0,6
5,70,0,0
5,62,0,1
5,65,96,17
5,70,88,1
5,62,66,1
5,62,0,5
5,70,0,0
5,65,0,0
5,70,96,15
5,65,96,1
5,62,82,0
5,62,0,10
5,65,0,0
5,70,0,0
5,70,96,15
5,65,96,0
5,62,88,1
5,65,0,8
5,70,0,0
5,62,0,1
5,65,92,16
5,70,88,0
5,62,74,0
5,62,0,6
5,70,0,0
5,65,0,0
5,62,88,17
5,70,92,0
5,65,96,0
5,65,0,9
5,70,0,0
5,62,0,1
5,70,82,9
5,65,74,0
5,62,62,2
5,62,0,13
5,65,0,0
5,70,0,1
5,44,102,10
5,46,0,11
5,63,102,90
5,60,96,0
5,68,102,0
5,44,0,16
5,60,0,21
5,63,0,1
5,68,0,0
5,63,92,16
5,68,78,1
5,68,0,4
5,63,0,0
5,63,102,18
5,68,96,1
5,60,88,0
5,60,0,24
5,63,0,5
5,68,0,9
5,39,82,28
5,58,82,50
5,63,92,1
5,67,92,0
5,39,0,5
5,39,66,41
5,58,0,6
5,63,0,3
5,67,0,2
5,39,0,4
5,58,74,12
5,63,88,0
5,67,82,2
5,58,0,16
5,41,96,3
5,63,0,2
5,67,0,2
5,72,64,52
5,72,0,5
5,68,108,43
5,72,108,0
5,65,108,0
5,41,0,17
5,41,82,24
5,65,0,4
5,72,0,3
5,68,0,1
5,41,0,5
5,65,82,14
5,72,96,0
5,68,74,0
5,65,0,22
5,46,88,1
5,68,0,2
5,72,0,1
5,70,66,42
5,70,0,7
5,70,96,48
5,65,108,0
5,62,92,1
5,46,0,15
5,46,78,45
5,46,0,6
5,46,96,21
5,65,0,5
5,62,0,2
5,70,0,0
5,70,88,17
5,65,78,1
5,62,62,0
5,65,0,5
5,62,0,1
5,70,0,0
5,70,88,16
5,65,88,0
5,62,70,1
5,65,0,5
5,70,0,1
5,62,0,1
5,70,88,16
5,65,92,0
5,62,62,1
5,65,0,6
5,62,0,1
5,70,0,0
5,70,92,15
5,65,92,1
5,62,78,1
5,46,0,14
5,46,70,26
5,65,0,1
5,62,0,1
5,70,0,2
5,70,54,8
5,46,0,2
5,70,0,1
5,70,92,17
5,65,96,0
5,62,78,1
5,65,0,18
5,62,0,1
5,44,102,0
5,70,0,7
5,72,96,93
5,68,88,0
5,63,92,0
5,44,0,8
5,44,62,29
5,63,0,5
5,72,0,1
5,68,0,4
5,44,0,6
5,68,82,10
5,63,62,1
5,72,66,1
5,72,0,5
5,63,0,2
5,68,0,0
5,63,70,11
5,68,88,1
5,72,88,1
5,39,82,12
5,63,0,10
5,68,0,4
5,72,0,1
5,63,82,84
5,70,92,1
5,67,92,1
5,39,0,17
5,39,78,30
5,39,0,14
5,67,0,25
5,70,0,0
5,63,0,3
5,44,54,8
5,68,88,47
5,44,0,6
5,68,0,30
5,37,82,8
5,68,82,2
5,61,74,0
5,65,82,1
5,37,0,59
5,37,92,36
5,61,0,1
5,68,0,2
5,65,0,3
5,37,0,4
5,70,78,20
5,39,96,0
5,70,0,10
5,39,0,7
5,39,88,4
5,70,92,1
5,67,74,5
5,63,54,1
5,63,0,6
5,39,0,18
5,67,0,5
5,70,0,0
5,70,88,12
5,63,78,2
5,39,108,0
5,67,96,0
5,39,0,17
5,67,0,20
5,70,0,3
5,63,0,1
5,70,60,8
5,70,0,7
5,44,88,37
5,63,92,0
5,68,92,0
5,60,92,0
5,68,0,116
5,63,0,2
5,60,0,1
5,72,82,37
5,65,66,2
5,68,92,1
5,65,0,28
5,72,0,14
5,68,0,1
5,65,78,3
5,70,96,2
5,65,0,24
5,44,0,3
5,44,82,6
5,65,88,2
5,68,92,2
5,70,0,6
5,44,0,13
5,65,0,7
5,68,0,7
5,36,92,14
5,67,96,2
5,64,96,0
5,60,96,0
5,67,0,6
5,64,0,2
5,60,0,2
5,67,62,5
5,64,78,2
5,60,62,0
5,60,0,41
5,64,0,1
5,67,0,5
5,36,0,8
5,65,102,13
5,37,92,3
5,56,62,25
5,61,88,45
5,56,0,4
5,37,0,6
5,37,62,9
5,56,54,1
5,61,0,7
5,56,0,13
5,65,0,11
5,65,92,13
5,56,64,1
5,61,74,0
5,37,0,33
5,37,66,6
