track,note,velocity,time
1,64,125,32920
1,64,125,5
1,64,125,5
1,64,125,5
1,64,125,5
1,64,125,5
1,65,125,5
1,64,125,5
1,65,125,5
1,64,125,5
1,64,125,5
1,62,125,5
1,62,125,5
1,64,125,5
1,67,125,1445
1,65,125,5
1,65,125,5
1,65,125,5
1,67,125,5
1,65,125,5
1,65,125,5
1,65,125,5
1,64,125,5
1,64,125,5
1,64,125,5
1,62,125,5
1,64,125,5
1,69,125,1925
1,69,125,5
1,69,125,5
1,69,125,5
1,69,125,5
1,71,125,5
1,69,125,5
1,69,125,5
1,67,125,5
1,67,125,5
1,64,125,5
1,67,125,5
1,69,125,1925
1,69,125,5
1,69,125,5
1,69,125,5
1,69,125,5
1,69,125,5
1,69,125,5
1,69,125,5
1,71,125,5
1,72,125,5
1,72,125,5
1,71,125,5
1,71,125,5
1,69,125,5
1,71,125,5
1,69,125,725
1,69,125,5
1,67,125,5
1,69,125,5
1,69,125,5
1,69,125,1205
1,69,125,5
1,69,125,5
1,69,125,5
1,69,125,5
1,69,125,5
1,69,125,5
1,67,125,5
1,67,125,5
1,67,125,5
1,67,125,5
1,67,125,5
1,64,125,5
1,67,125,5
1,69,125,5
1,67,125,965
1,67,125,5
1,65,125,5
1,65,125,5
1,65,125,5
1,65,125,5
1,65,125,5
1,67,125,5
1,65,125,5
1,65,125,5
1,65,125,5
1,65,125,5
1,65,125,5
1,64,125,5
1,64,125,5
1,64,125,5
1,64,125,5
1,62,125,5
1,60,125,5
1,62,125,5
1,64,125,5
1,72,125,725
1,72,125,5
1,71,125,5
1,69,125,5
1,69,125,5
1,69,125,1205
1,69,125,5
1,69,125,5
1,69,125,5
1,69,125,5
1,69,125,5
1,69,125,5
1,67,125,5
1,67,125,5
1,67,125,5
1,67,125,5
1,67,125,5
1,64,125,5
1,67,125,5
1,69,125,5
1,67,125,965
1,67,125,5
1,65,125,5
1,65,125,5
1,65,125,5
1,65,125,5
1,65,125,5
1,67,125,5
1,65,125,5
1,65,125,5
1,65,125,5
1,65,125,5
1,65,125,5
1,64,125,5
1,64,125,5
1,64,125,5
1,64,125,5
1,62,125,5
1,60,125,5
1,62,125,233
1,64,125,11
1,62,125,485
1,60,125,5
1,59,125,5
1,60,125,5
1,59,125,5
1,57,125,5
1,64,125,14885
1,64,125,5
1,64,125,5
1,64,125,5
1,64,125,5
1,64,125,5
1,65,125,5
1,64,125,5
1,65,125,5
1,64,125,5
1,64,125,5
1,62,125,5
1,62,125,5
1,64,125,5
1,67,125,1445
1,65,125,5
1,65,125,5
1,65,125,5
1,67,125,5
1,65,125,5
1,65,125,5
1,65,125,5
1,64,125,5
1,64,125,5
1,64,125,5
1,62,125,5
1,64,125,5
1,69,125,1925
1,69,125,5
1,69,125,5
1,69,125,5
1,69,125,5
1,71,125,5
1,69,125,5
1,69,125,5
1,67,125,5
1,67,125,5
1,64,125,5
1,67,125,5
1,69,125,1678
1,69,125,7
1,69,125,5
1,69,125,5
1,69,125,5
1,69,125,5
1,69,125,5
1,69,125,5
1,69,125,5
1,71,125,5
1,72,125,5
1,72,125,5
1,71,125,5
1,71,125,5
1,69,125,5
1,71,125,5
1,69,125,725
1,69,125,5
1,67,125,5
1,69,125,5
1,69,125,5
1,69,125,1205
1,69,125,5
1,69,125,5
1,69,125,5
1,69,125,5
1,69,125,5
1,69,125,5
1,67,125,5
1,67,125,5
1,67,125,5
1,67,125,5
1,67,125,5
1,64,125,5
1,67,125,5
1,69,125,5
1,67,125,965
1,67,125,5
1,65,125,5
1,65,125,5
1,65,125,5
1,65,125,5
1,65,125,5
1,67,125,5
1,65,125,5
1,65,125,5
1,65,125,5
1,65,125,5
1,65,125,5
1,64,125,5
1,64,125,5
1,64,125,5
1,64,125,5
1,62,125,5
1,60,125,5
1,62,125,233
1,64,125,11
1,72,125,2645
1,72,125,5
1,71,125,5
1,72,125,5
1,72,125,5
1,71,125,5
1,72,125,5
1,71,125,5
1,69,125,5
1,72,125,245
1,72,125,5
1,72,125,5
1,72,125,5
1,71,125,5
1,69,125,5
1,69,125,5
1,67,125,5
1,67,125,5
1,67,125,5
1,67,125,5
1,67,125,5
1,64,125,5
1,67,125,5
1,69,125,5
1,67,125,32405
1,69,125,5
1,67,125,5
1,69,125,5
1,67,125,5
1,69,125,5
1,67,125,5
1,69,125,5
1,67,125,5
1,69,125,5
1,72,125,5
1,67,125,245
1,69,125,5
1,67,125,5
1,69,125,5
1,69,125,5
1,76,125,5
1,74,125,5
1,74,125,5
1,72,125,5
1,69,125,5
1,69,125,244
1,69,125,5
1,72,125,5
1,72,125,5
1,72,125,5
1,71,125,5
1,71,125,5
1,71,125,5
1,71,125,5
1,72,125,5
1,69,125,5
1,69,125,5
1,67,125,5
1,64,125,5
1,67,125,2165
1,69,125,5
1,67,125,5
1,69,125,5
1,67,125,5
1,69,125,5
1,67,125,5
1,69,125,5
1,67,125,5
1,69,125,5
1,72,125,5
1,67,125,245
1,69,125,5
1,67,125,5
1,69,125,5
1,69,125,5
1,76,125,5
1,74,125,5
1,74,125,5
1,72,125,5
1,69,125,5
1,69,125,253
1,69,125,5
1,72,125,5
1,72,125,5
1,72,125,5
1,71,125,5
1,71,125,5
1,71,125,5
1,71,125,5
1,72,125,5
1,71,125,5
1,69,125,5
1,72,125,11765
1,72,125,5
1,71,125,5
1,69,125,5
1,69,125,5
1,69,125,1205
1,69,125,5
1,69,125,5
1,69,125,5
1,69,125,5
1,69,125,5
1,69,125,5
1,67,125,5
1,67,125,5
1,67,125,5
1,67,125,5
1,67,125,5
1,64,125,5
1,67,125,5
1,69,125,5
1,67,125,965
1,67,125,5
1,65,125,5
1,65,125,5
1,65,125,5
1,65,125,5
1,65,125,5
1,67,125,5
1,65,125,5
1,65,125,5
1,65,125,5
1,65,125,5
1,65,125,5
1,64,125,5
1,64,125,5
1,64,125,5
1,64,125,5
1,62,125,5
1,60,125,5
1,62,125,5
1,64,125,5
1,72,125,725
1,72,125,5
1,71,125,5
1,69,125,5
1,69,125,5
1,69,125,1205
1,69,125,5
1,69,125,5
1,69,125,5
1,69,125,5
1,69,125,5
1,69,125,5
1,67,125,5
1,67,125,5
1,67,125,5
1,67,125,5
1,67,125,5
1,64,125,5
1,67,125,5
1,69,125,5
1,67,125,965
1,67,125,5
1,65,125,5
1,65,125,5
1,65,125,5
1,65,125,5
1,65,125,5
1,67,125,5
1,65,125,5
1,65,125,5
1,65,125,5
1,65,125,5
1,65,125,5
1,64,125,5
1,64,125,5
1,64,125,5
1,64,125,5
1,62,125,5
1,60,125,5
1,62,125,5
1,64,125,5
1,72,125,725
1,72,125,5
1,71,125,5
1,69,125,5
1,69,125,5
1,69,125,1205
1,69,125,5
1,69,125,5
1,69,125,5
1,69,125,5
1,69,125,5
1,69,125,5
1,67,125,5
1,67,125,5
1,67,125,5
1,67,125,5
1,67,125,5
1,64,125,5
1,67,125,5
1,69,125,5
1,67,125,965
1,67,125,5
1,65,125,5
1,65,125,5
1,65,125,5
1,65,125,5
1,65,125,5
1,67,125,5
1,65,125,5
1,65,125,5
1,65,125,5
1,65,125,5
1,65,125,5
1,64,125,5
1,64,125,5
1,64,125,5
1,64,125,5
1,62,125,5
1,60,125,5
1,62,125,5
1,64,125,5
1,72,125,725
1,72,125,5
1,71,125,5
1,69,125,5
1,69,125,5
1,69,125,1205
1,69,125,5
1,69,125,5
1,69,125,5
1,69,125,5
1,69,125,5
1,69,125,5
1,67,125,5
1,67,125,5
1,67,125,5
1,67,125,5
1,67,125,5
1,64,125,5
1,67,125,5
1,69,125,5
1,67,125,965
1,67,125,5
1,65,125,5
1,65,125,5
1,65,125,5
1,65,125,5
1,65,125,5
1,67,125,5
1,65,125,5
1,65,125,5
1,65,125,5
1,65,125,5
1,65,125,5
1,64,125,5
1,64,125,5
1,64,125,5
1,64,125,5
1,62,125,5
1,60,125,5
1,62,125,5
1,64,125,5
1,72,125,725
1,72,125,5
1,71,125,5
1,69,125,5
1,69,125,5
1,69,125,1205
1,69,125,5
1,69,125,5
1,69,125,5
1,69,125,5
1,69,125,5
1,69,125,5
1,67,125,5
1,67,125,5
1,67,125,5
1,67,125,5
1,67,125,5
1,64,125,5
1,67,125,5
1,69,125,5
1,76,125,485
1,74,125,5
1,72,125,5
1,69,125,5
1,69,125,485
1,67,125,5
1,69,125,5
1,76,125,5
1,77,125,5
1,76,125,5
1,74,125,5
1,74,125,5
1,72,125,5
1,71,125,5
1,72,125,5
1,71,125,5
1,69,125,5
1,69,125,965
1,67,125,5
1,69,125,5
1,76,125,5
1,77,125,5
1,76,125,5
1,74,125,5
1,74,125,5
1,72,125,5
1,71,125,5
1,72,125,5
1,71,125,5
1,69,125,5
1,69,125,965
1,67,125,5
1,69,125,5
1,76,125,5
1,77,125,5
1,76,125,5
1,74,125,5
1,74,125,5
1,72,125,5
1,71,125,5
1,72,125,5
1,71,124,5
1,69,122,5
1,69,102,965
1,67,99,5
1,69,97,5
1,76,94,5
1,77,83,5
1,76,81,5
1,74,79,5
1,74,71,5
1,72,68,5
1,71,66,5
1,72,63,5
1,71,61,5
1,69,59,5
1,69,40,965
1,67,37,5
1,69,34,5
1,76,32,5
1,77,20,5
1,76,18,5
1,74,16,5
1,74,8,5
1,72,6,5
1,71,3,5
2,72,125,1720
2,69,125,0
2,72,125,5
2,69,125,0
2,72,125,5
2,69,125,0
2,72,125,5
2,69,125,0
2,72,125,5
2,69,125,0
2,71,125,5
2,67,125,0
2,72,125,5
2,69,125,0
2,72,125,5
2,69,125,0
2,71,125,5
2,67,125,0
2,72,125,5
2,69,125,0
2,74,125,5
2,71,125,0
2,71,125,5
2,72,125,5
2,69,125,0
2,72,125,5
2,69,125,0
2,71,125,5
2,67,125,0
2,72,125,5
2,69,125,0
2,72,125,5
2,69,125,0
2,71,125,5
2,67,125,0
2,72,125,5
2,69,125,0
2,72,125,5
2,69,125,0
2,71,125,5
2,67,125,0
2,72,125,5
2,69,125,0
2,74,125,5
2,71,125,0
2,71,125,5
2,72,125,5
2,69,125,0
2,72,125,5
2,69,125,0
2,71,125,5
2,67,125,0
2,72,125,5
2,69,125,0
2,72,125,5
2,69,125,0
2,71,125,5
2,67,125,0
2,72,125,5
2,69,125,0
2,72,125,5
2,69,125,0
2,71,125,5
2,67,125,0
2,72,125,5
2,69,125,0
2,74,125,5
2,71,125,0
2,71,125,5
2,76,125,5
2,72,125,0
2,76,125,5
2,72,125,0
2,74,125,5
2,71,125,0
2,76,125,5
2,72,125,0
2,76,125,5
2,72,125,0
2,74,125,5
2,71,125,0
2,77,125,5
2,74,125,0
2,76,125,5
2,72,125,0
2,74,125,5
2,71,125,0
2,72,125,5
2,69,125,0
2,71,125,5
2,68,125,0
2,72,125,5
2,69,125,0
2,72,125,5
2,69,125,0
2,72,125,5
2,69,125,0
2,72,125,5
2,69,125,0
2,72,125,5
2,69,125,0
2,71,125,5
2,67,125,0
2,72,125,5
2,69,125,0
2,72,125,5
2,69,125,0
2,71,125,5
2,67,125,0
2,72,125,5
2,69,125,0
2,74,125,5
2,71,125,0
2,71,125,5
2,72,125,5
2,69,125,0
2,72,125,5
2,69,125,0
2,71,125,5
2,67,125,0
2,72,125,5
2,69,125,0
2,72,125,5
2,69,125,0
2,71,125,5
2,67,125,0
2,72,125,5
2,69,125,0
2,72,125,5
2,69,125,0
2,71,125,5
2,67,125,0
2,72,125,5
2,69,125,0
2,74,125,5
2,71,125,0
2,71,125,5
2,72,125,5
2,69,125,0
2,72,125,5
2,69,125,0
2,71,125,5
2,67,125,0
2,72,125,5
2,69,125,0
2,72,125,5
2,69,125,0
2,71,125,5
2,67,125,0
2,72,125,5
2,69,125,0
2,72,125,5
2,69,125,0
2,71,125,5
2,67,125,0
2,72,125,5
2,69,125,0
2,74,125,5
2,71,125,0
2,71,125,5
2,76,125,5
2,72,125,0
2,76,125,5
2,72,125,0
2,74,125,5
2,71,125,0
2,76,125,5
2,72,125,0
2,76,125,5
2,72,125,0
2,74,125,5
2,71,125,0
2,77,125,5
2,74,125,0
2,76,125,5
2,72,125,0
2,74,125,5
2,71,125,0
2,72,125,5
2,69,125,0
2,71,125,5
2,68,125,0
2,64,125,485
2,60,125,0
2,64,125,5
2,60,125,0
2,64,125,5
2,60,125,0
2,64,125,5
2,60,125,0
2,64,125,5
2,60,125,0
2,64,125,5
2,60,125,0
2,65,125,5
2,60,125,0
2,64,125,5
2,60,125,0
2,65,125,5
2,59,125,0
2,64,125,5
2,64,125,5
2,62,125,5
2,62,125,5
2,64,125,5
2,59,125,0
2,67,125,965
2,60,125,0
2,57,125,0
2,65,125,5
2,60,125,0
2,57,125,0
2,65,125,5
2,60,125,0
2,57,125,0
2,65,125,5
2,60,125,0
2,57,125,0
2,67,125,5
2,60,125,0
2,57,125,0
2,65,125,5
2,60,125,0
2,57,125,0
2,65,125,5
2,60,125,0
2,57,125,0
2,65,125,5
2,60,125,0
2,57,125,0
2,64,125,5
2,59,125,0
2,56,125,0
2,64,125,5
2,59,125,0
2,56,125,0
2,64,125,5
2,59,125,0
2,56,125,0
2,62,125,5
2,57,125,0
2,64,125,5
2,59,125,0
2,56,125,0
2,69,125,1445
2,64,125,0
2,60,125,0
2,69,125,5
2,64,125,0
2,60,125,0
2,69,125,5
2,64,125,0
2,60,125,0
2,69,125,5
2,64,125,0
2,60,125,0
2,69,125,5
2,64,125,0
2,60,125,0
2,71,125,5
2,64,125,0
2,60,125,0
2,69,125,5
2,60,125,0
2,60,125,5
2,69,125,0
2,67,125,5
2,59,125,0
2,67,125,5
2,59,125,0
2,64,125,5
2,67,125,5
2,59,125,0
2,69,125,1445
2,65,125,0
2,62,125,0
2,69,125,5
2,65,125,0
2,62,125,0
2,69,125,5
2,65,125,0
2,62,125,0
2,69,125,5
2,65,125,0
2,62,125,0
2,69,125,5
2,65,125,0
2,62,125,0
2,69,125,5
2,65,125,0
2,62,125,0
2,69,125,5
2,65,125,0
2,62,125,0
2,69,125,5
2,65,125,0
2,62,125,0
2,71,125,5
2,72,125,5
2,72,125,5
2,68,125,0
2,64,125,0
2,71,125,5
2,68,125,0
2,64,125,0
2,71,125,5
2,68,125,0
2,64,125,0
2,69,125,5
2,71,125,5
2,64,125,0
2,68,125,0
2,69,125,245
2,69,125,5
2,69,125,5
2,64,125,0
2,60,125,0
2,69,125,5
2,64,125,0
2,60,125,0
2,67,125,245
2,62,125,0
2,59,125,0
2,60,125,5
2,64,125,0
2,69,125,0
2,69,125,5
2,64,125,0
2,60,125,0
2,69,125,5
2,64,125,0
2,60,125,0
2,69,125,5
2,64,125,0
2,60,125,0
2,69,125,5
2,64,125,0
2,60,125,0
2,69,125,5
2,64,125,0
2,60,125,0
2,69,125,5
2,64,125,0
2,60,125,0
2,69,125,5
2,64,125,0
2,60,125,0
2,67,125,5
2,59,125,0
2,67,125,5
2,59,125,0
2,67,125,5
2,59,125,0
2,67,125,5
2,59,125,0
2,67,125,5
2,59,125,0
2,64,125,5
2,59,125,5
2,67,125,0
2,69,125,5
2,59,125,0
2,67,125,965
2,67,125,5
2,57,125,0
2,65,125,5
2,57,125,0
2,65,125,5
2,57,125,0
2,65,125,5
2,57,125,0
2,65,125,5
2,57,125,0
2,65,125,5
2,57,125,0
2,67,125,5
2,57,125,0
2,65,125,5
2,57,125,0
2,65,125,5
2,57,125,0
2,57,125,5
2,65,125,0
2,65,125,15
2,57,125,0
2,65,125,5
2,57,125,0
2,55,125,5
2,60,125,0
2,64,125,0
2,64,125,5
2,60,125,0
2,55,125,0
2,64,125,5
2,60,125,0
2,55,125,0
2,64,125,5
2,60,125,0
2,55,125,0
2,62,125,5
2,60,125,5
2,62,125,5
2,64,125,5
2,59,125,0
2,72,125,725
2,72,125,5
2,71,125,5
2,69,125,5
2,64,125,0
2,60,125,0
2,69,125,5
2,64,125,0
2,60,125,0
2,67,125,245
2,62,125,0
2,59,125,0
2,60,125,5
2,64,125,0
2,69,125,0
2,69,125,5
