track,note,velocity,time
0,44,113,1336
0,35,114,0
0,41,108,0
0,42,89,32
0,44,97,44
0,41,111,0
0,42,89,92
0,44,97,44
0,40,127,0
0,41,118,0
0,42,89,88
0,44,97,44
0,41,127,0
0,42,89,92
0,44,105,44
0,35,112,0
0,41,125,0
0,42,89,88
0,44,97,44
0,41,118,0
0,42,89,92
0,44,97,44
0,40,127,0
0,41,126,0
0,42,89,88
0,44,97,44
0,45,120,0
0,42,89,92
0,44,113,44
0,35,112,0
0,45,125,0
0,42,89,88
0,44,97,44
0,45,118,0
0,42,89,92
0,44,97,44
0,40,123,0
0,45,116,0
0,42,89,88
0,44,97,44
0,45,122,0
0,42,89,92
0,44,105,44
0,35,116,0
0,45,122,0
0,42,89,88
0,44,97,44
0,45,121,0
0,42,89,92
0,44,97,44
0,40,123,0
0,45,116,0
0,42,89,88
0,44,97,44
0,45,113,0
0,48,87,48
0,42,89,40
0,47,98,0
0,44,113,44
0,35,110,0
0,45,92,0
0,45,126,0
0,42,89,88
0,44,97,44
0,45,115,0
0,42,89,92
0,44,97,44
0,40,127,0
0,45,126,0
0,42,89,88
0,44,97,44
0,45,126,0
0,42,89,92
0,44,105,44
0,35,111,0
0,45,118,0
0,42,89,88
0,44,97,44
0,45,110,0
0,42,89,92
0,44,97,44
0,40,127,0
0,45,110,0
0,42,89,88
0,44,97,44
0,45,114,0
0,42,89,92
0,44,113,44
0,35,122,0
0,45,116,0
0,42,89,32
0,44,97,44
0,45,114,0
0,42,89,92
0,44,97,44
0,40,127,0
0,45,112,0
0,42,89,88
0,44,97,44
0,45,115,0
0,42,89,92
0,44,105,44
0,35,110,0
0,45,116,0
0,42,89,88
0,44,97,44
0,45,127,0
0,42,89,92
0,44,97,44
0,40,127,0
0,45,126,0
0,42,89,88
0,44,97,44
0,45,114,0
0,48,97,48
0,42,89,40
0,47,89,0
0,44,113,44
0,35,114,0
0,45,93,0
0,45,124,0
0,69,126,0
0,72,119,0
0,45,107,0
0,64,90,0
0,57,107,0
0,60,95,0
0,45,109,0
0,42,89,88
0,44,97,12
0,45,127,0
0,57,99,0
0,42,89,92
0,44,97,12
0,40,127,0
0,45,116,0
0,69,124,0
0,72,117,0
0,45,91,0
0,42,89,20
0,44,97,12
0,45,115,0
0,57,91,0
0,42,89,12
0,67,119,0
0,71,114,0
0,44,105,12
0,35,124,0
0,45,115,0
0,69,126,0
0,72,122,0
0,45,93,0
0,42,89,88
0,44,97,12
0,45,113,0
0,69,127,0
0,72,114,0
0,57,98,0
0,42,89,92
0,44,97,12
0,40,122,0
0,45,118,0
0,45,98,0
0,42,89,88
0,44,97,12
0,45,110,0
0,67,127,0
0,71,110,0
0,57,90,0
0,42,89,92
0,44,113,12
0,35,115,0
0,45,108,0
0,69,114,0
0,72,117,0
0,45,91,0
0,42,89,88
0,44,97,12
0,45,120,0
0,57,96,0
0,42,89,92
0,44,97,12
0,40,127,0
0,45,109,0
0,69,122,0
0,72,112,0
0,45,95,0
0,42,89,88
0,44,97,12
0,45,109,0
0,57,92,0
0,42,89,12
0,67,115,0
0,71,114,0
0,44,105,12
0,35,124,0
0,45,119,0
0,69,126,0
0,72,110,0
0,45,100,0
0,42,89,88
0,44,97,12
0,45,116,0
0,71,115,0
0,74,121,0
0,57,94,0
0,42,89,92
0,44,97,12
0,40,127,0
0,45,121,0
0,45,104,0
0,42,89,88
0,44,97,12
0,45,112,0
0,71,115,0
0,57,105,0
0,48,93,48
0,42,89,40
0,47,87,0
0,44,113,12
0,35,122,0
0,45,91,0
0,43,126,0
0,69,122,0
0,72,116,0
0,43,100,0
0,43,96,0
0,55,102,0
0,42,89,88
0,44,97,12
0,43,122,0
0,55,100,0
0,42,89,92
0,44,97,12
0,40,123,0
0,43,120,0
0,69,121,0
0,72,124,0
0,43,107,0
0,42,89,88
0,44,97,12
0,43,111,0
0,55,91,0
0,42,89,12
0,67,127,0
0,71,111,0
0,44,105,12
0,35,108,0
0,43,110,0
0,69,123,0
0,72,115,0
0,43,109,0
0,42,89,88
0,44,97,12
0,43,121,0
0,69,127,0
0,72,112,0
0,55,94,0
0,42,89,92
0,44,97,12
0,40,122,0
0,43,126,0
0,43,107,0
0,42,89,88
0,44,97,12
0,43,115,0
0,67,120,0
0,71,126,0
0,55,107,0
0,42,89,92
0,44,113,12
0,35,110,0
0,43,110,0
0,69,127,0
0,72,120,0
0,43,99,0
0,42,89,88
0,44,97,12
0,43,111,0
0,55,102,0
0,42,89,92
0,44,97,12
0,40,120,0
0,43,126,0
0,69,113,0
0,72,120,0
0,43,102,0
0,42,89,88
0,44,97,12
0,43,115,0
0,55,98,0
0,42,89,12
0,67,122,0
0,71,119,0
0,44,105,12
0,35,112,0
0,43,114,0
0,69,110,0
0,72,116,0
0,43,109,0
0,42,89,88
0,44,97,12
0,43,120,0
0,71,111,0
0,74,121,0
0,55,91,0
0,42,89,92
0,44,97,12
0,40,127,0
0,43,124,0
0,43,109,0
0,42,89,88
0,44,97,12
0,43,108,0
0,71,118,0
0,55,91,0
0,48,83,48
0,42,89,40
0,47,96,0
0,44,113,12
0,35,117,0
0,45,102,0
0,41,109,0
0,69,115,0
0,72,117,0
0,41,90,0
0,41,107,0
0,57,97,0
0,42,89,88
0,44,97,12
0,41,110,0
0,53,94,0
0,42,89,92
0,44,97,12
0,40,127,0
0,41,123,0
0,69,116,0
0,72,127,0
0,41,94,0
0,42,89,88
0,44,97,12
0,41,126,0
0,53,92,0
0,42,89,12
0,67,113,0
0,71,112,0
0,44,105,12
0,35,123,0
0,41,115,0
0,69,115,0
0,72,123,0
0,41,107,0
0,42,89,88
0,44,97,12
0,41,122,0
0,69,113,0
0,72,113,0
0,53,95,0
0,42,89,92
0,44,97,12
0,40,122,0
0,41,124,0
0,41,105,0
0,42,89,88
0,44,97,12
0,41,127,0
0,67,123,0
0,71,122,0
0,53,97,0
0,42,89,92
0,44,113,12
0,35,116,0
0,41,126,0
0,69,117,0
0,72,127,0
0,41,90,0
0,42,89,88
0,44,97,12
0,41,113,0
0,53,102,0
0,42,89,92
0,44,97,12
0,40,127,0
0,41,116,0
0,69,118,0
0,72,115,0
0,41,106,0
0,42,89,88
0,44,97,12
0,41,125,0
0,53,93,0
0,42,89,12
0,67,120,0
0,71,113,0
0,44,105,12
0,35,108,0
0,41,121,0
0,69,112,0
0,72,118,0
0,41,93,0
0,42,89,88
0,44,97,12
0,41,125,0
0,71,114,0
0,74,114,0
0,53,103,0
0,42,89,92
0,44,97,12
0,40,120,0
0,41,113,0
0,41,91,0
0,42,89,88
0,44,97,12
0,41,122,0
0,69,110,0
0,72,127,0
0,53,101,0
0,48,97,48
0,42,89,40
0,47,100,0
0,44,113,12
0,35,121,0
0,45,95,0
0,40,124,0
0,72,122,0
0,76,117,0
0,40,94,0
0,40,102,0
0,42,89,88
0,44,97,12
0,40,116,0
0,52,92,0
0,50,99,0
0,42,89,92
0,44,97,12
0,40,120,0
0,40,108,0
0,72,123,0
0,76,118,0
0,40,109,0
0,42,89,88
0,44,97,12
0,40,126,0
0,52,97,0
0,42,89,12
0,71,110,0
0,74,114,0
0,44,105,12
0,35,111,0
0,40,116,0
0,72,113,0
0,76,126,0
0,40,90,0
0,42,89,88
0,44,97,12
0,40,121,0
0,72,122,0
0,76,113,0
0,52,100,0
0,42,89,92
0,44,97,12
0,40,127,0
0,40,117,0
0,40,102,0
0,42,89,88
0,44,97,12
0,40,124,0
0,71,123,0
0,74,125,0
0,52,90,0
0,42,89,92
0,44,113,12
0,35,112,0
0,47,94,0
0,40,117,0
0,74,117,0
0,77,126,0
0,40,104,0
0,59,105,0
0,56,99,0
0,42,89,88
0,47,83,0
0,44,97,12
0,47,91,0
0,40,108,0
0,52,103,0
0,42,89,88
0,47,102,0
0,44,97,12
0,40,125,0
0,45,99,0
0,40,109,0
0,72,113,0
0,76,117,0
0,40,107,0
0,42,89,88
0,45,99,0
0,44,97,12
0,45,97,0
0,40,122,0
0,71,121,0
0,74,127,0
0,52,92,0
0,42,89,88
0,45,89,0
0,44,105,12
0,35,122,0
0,43,101,0
0,40,111,0
0,40,97,0
0,42,89,88
0,43,84,0
0,44,97,12
0,43,86,0
0,40,112,0
0,69,110,0
0,72,112,0
0,52,107,0
0,42,89,88
0,43,93,0
0,44,97,12
0,40,127,0
0,41,102,0
0,40,120,0
0,68,116,0
0,71,127,0
0,40,94,0
0,42,89,88
0,41,84,0
0,44,97,12
0,41,87,0
0,40,125,0
0,52,104,0
0,42,89,88
0,41,91,0
0,44,113,12
0,35,121,0
0,45,120,0
0,69,126,0
0,72,120,0
0,45,99,0
0,45,102,0
0,69,102,0
0,60,91,0
0,64,93,0
0,42,89,88
0,44,97,12
0,45,120,0
0,57,104,0
0,42,89,92
0,44,97,12
0,40,122,0
0,45,110,0
0,69,119,0
0,72,115,0
0,45,107,0
0,55,104,0
0,60,117,0
0,64,102,0
0,42,89,88
0,44,97,12
0,45,114,0
0,57,107,0
0,42,89,12
0,67,122,0
0,71,120,0
0,44,105,12
0,35,117,0
0,45,113,0
0,69,127,0
0,72,123,0
0,45,103,0
0,60,98,0
0,64,100,0
0,69,115,0
0,42,89,88
0,44,97,12
0,45,115,0
0,69,127,0
0,72,127,0
0,57,99,0
0,42,89,92
0,44,97,12
0,40,127,0
0,45,125,0
0,45,96,0
0,64,112,0
0,69,99,0
0,72,107,0
0,42,89,88
0,44,97,12
0,45,116,0
0,67,127,0
0,71,110,0
0,57,97,0
0,42,89,92
0,76,104,8
0,44,113,4
0,35,108,0
0,45,117,0
0,69,126,0
0,72,126,0
0,45,90,0
0,69,105,0
0,72,112,0
0,42,89,88
0,44,97,12
0,45,114,0
0,57,100,0
0,42,89,92
0,44,97,12
0,40,127,0
0,45,109,0
0,69,113,0
0,72,115,0
0,45,104,0
0,42,89,88
0,44,97,12
0,45,125,0
0,57,98,0
0,42,89,12
0,67,117,0
0,71,127,0
0,44,105,12
0,35,114,0
0,45,113,0
0,69,114,0
0,72,121,0
0,45,94,0
0,42,89,88
0,44,97,12
0,45,117,0
0,71,125,0
0,74,118,0
0,57,109,0
0,42,89,92
0,44,97,12
0,40,127,0
0,45,114,0
0,45,103,0
0,42,89,88
0,44,97,12
0,45,126,0
0,71,116,0
0,57,107,0
0,48,92,48
0,42,89,40
0,47,98,0
0,44,113,12
0,35,121,0
0,45,100,0
0,43,117,0
0,69,126,0
0,72,127,0
0,43,94,0
0,45,104,0
0,43,95,0
0,67,105,0
0,42,89,88
0,44,97,12
0,43,116,0
0,55,108,0
0,42,89,92
0,44,97,12
0,40,121,0
0,43,122,0
0,69,122,0
0,72,120,0
0,43,96,0
0,55,102,0
0,60,114,0
0,64,105,0
0,42,89,88
0,44,97,12
0,43,127,0
0,55,93,0
0,42,89,12
0,67,118,0
0,71,121,0
0,44,105,12
0,35,111,0
0,43,122,0
0,69,110,0
0,72,123,0
0,43,101,0
0,60,110,0
0,64,108,0
0,67,113,0
0,42,89,88
0,44,97,12
0,43,119,0
0,69,110,0
0,72,118,0
0,55,91,0
0,42,89,92
0,44,97,12
0,40,127,0
0,43,124,0
0,43,106,0
0,64,104,0
0,67,98,0
0,72,102,0
0,42,89,88
0,44,97,12
0,43,108,0
0,67,121,0
0,71,115,0
0,55,98,0
0,42,89,92
0,72,108,8
0,44,113,4
0,35,110,0
0,43,116,0
0,69,117,0
0,72,111,0
0,43,101,0
0,67,98,0
0,76,114,0
0,42,89,88
0,44,97,12
0,43,124,0
0,55,104,0
0,42,89,92
0,44,97,12
0,40,127,0
0,43,114,0
0,69,124,0
0,72,115,0
0,43,99,0
0,42,89,88
0,44,97,12
0,43,110,0
0,55,90,0
0,42,89,12
0,67,121,0
0,71,117,0
0,44,105,12
0,35,126,0
0,43,112,0
0,69,121,0
0,72,125,0
0,43,105,0
0,42,89,88
0,44,97,12
0,43,112,0
0,71,125,0
0,74,124,0
0,55,95,0
0,42,89,92
0,44,97,12
0,40,127,0
0,43,116,0
0,43,105,0
0,42,89,88
0,44,97,12
0,43,109,0
0,71,120,0
0,55,92,0
0,48,99,48
0,42,89,40
0,47,94,0
0,44,113,12
0,35,114,0
0,45,86,0
0,41,113,0
0,69,122,0
0,72,118,0
0,41,92,0
0,41,101,0
0,57,103,0
0,42,89,88
0,44,97,12
0,41,116,0
0,53,109,0
0,42,89,92
0,44,97,12
0,40,127,0
0,41,109,0
0,69,118,0
0,72,126,0
0,41,100,0
0,57,115,0
0,60,98,0
0,65,103,0
0,42,89,88
0,44,97,12
0,41,115,0
0,53,93,0
0,42,89,12
0,67,120,0
0,71,126,0
0,44,105,12
0,35,110,0
0,41,114,0
0,69,127,0
0,72,123,0
0,41,102,0
0,60,104,0
0,65,110,0
0,69,114,0
0,42,89,88
0,44,97,12
0,41,121,0
0,69,110,0
0,72,120,0
0,53,92,0
0,42,89,92
0,44,97,12
0,40,125,0
0,41,124,0
0,41,106,0
0,65,117,0
0,69,111,0
0,72,108,0
0,42,89,88
0,44,97,12
0,41,121,0
0,67,126,0
0,71,118,0
0,53,100,0
0,42,89,92
0,44,113,12
0,35,127,0
0,41,118,0
0,69,127,0
0,72,116,0
0,41,107,0
0,69,115,0
0,72,105,0
0,76,109,0
0,42,89,88
0,44,97,12
0,41,124,0
0,53,99,0
0,42,89,92
0,44,97,12
0,40,127,0
0,41,119,0
0,69,123,0
0,72,127,0
0,41,99,0
0,42,89,88
0,44,97,12
0,41,124,0
0,53,96,0
0,42,89,12
0,67,113,0
0,71,113,0
0,44,105,12
0,35,114,0
0,41,125,0
0,69,117,0
0,72,120,0
0,41,98,0
0,42,89,88
0,44,97,12
0,41,122,0
0,71,126,0
0,74,110,0
0,53,94,0
0,42,89,92
0,44,97,12
0,40,121,0
0,41,125,0
0,41,95,0
0,42,89,88
0,44,97,12
0,41,111,0
0,69,125,0
0,72,127,0
0,53,104,0
0,48,99,48
0,42,89,40
0,47,100,0
0,44,113,12
0,35,113,0
0,45,100,0
0,40,121,0
0,72,121,0
0,76,118,0
0,40,94,0
0,40,93,0
0,42,89,88
0,44,97,12
0,40,123,0
0,52,101,0
0,42,89,92
0,44,97,12
0,40,127,0
0,40,113,0
0,72,111,0
0,76,127,0
0,40,91,0
0,69,107,0
0,72,114,0
0,76,109,0
0,42,89,88
0,44,97,12
0,40,127,0
0,52,91,0
0,42,89,12
0,71,116,0
0,74,124,0
0,44,105,12
0,35,117,0
0,40,116,0
0,72,114,0
0,76,126,0
0,40,92,0
0,42,89,88
0,44,97,12
0,40,125,0
0,72,121,0
0,76,111,0
0,52,99,0
0,42,89,92
0,44,97,12
0,40,125,0
0,40,110,0
0,40,104,0
0,42,89,88
0,44,97,12
0,40,110,0
0,71,111,0
0,74,111,0
0,52,103,0
0,42,89,92
0,44,113,12
0,35,112,0
0,47,93,0
0,40,123,0
0,74,127,0
0,77,127,0
0,40,90,0
0,59,90,0
0,56,104,0
0,42,89,88
0,47,84,0
0,44,97,12
0,47,91,0
0,40,118,0
0,52,101,0
0,42,89,88
0,47,90,0
0,44,97,12
0,40,127,0
0,45,101,0
0,40,112,0
0,72,123,0
0,76,127,0
0,40,97,0
0,68,109,0
0,71,117,0
0,76,116,0
0,42,89,88
0,45,89,0
0,44,97,12
0,45,94,0
0,40,113,0
0,71,123,0
0,74,119,0
0,52,98,0
0,42,89,88
0,45,92,0
0,44,105,12
0,35,123,0
0,43,94,0
0,40,125,0
0,40,107,0
0,42,89,88
0,43,88,0
0,44,97,12
0,43,84,0
0,40,109,0
0,69,122,0
0,72,126,0
0,52,98,0
0,100,121,24
0,98,118,40
0,42,89,16
0,43,83,0
0,96,116,8
0,95,113,4
0,44,97,12
0,93,111,0
0,40,120,0
0,41,90,0
0,40,113,0
0,68,126,0
0,71,127,0
0,40,109,0
0,91,108,32
0,89,106,32
0,42,89,8
0,41,94,0
0,88,104,16
0,86,101,12
0,44,97,12
0,41,100,0
0,40,125,0
