track,note,velocity,time
1,36,100,1536
1,36,100,60
1,36,100,92
1,31,100,92
1,31,100,76
1,31,100,60
1,31,100,92
1,29,100,92
1,29,100,76
1,29,100,60
1,29,100,92
1,29,100,92
1,33,100,92
1,31,100,76
1,31,100,28
1,33,100,28
1,31,100,48
1,36,100,48
1,36,100,60
1,36,100,92
1,29,100,92
1,29,100,76
1,29,100,60
1,29,100,92
1,29,100,92
1,36,100,76
1,31,100,60
1,31,100,92
1,29,100,92
1,29,100,28
1,31,100,28
1,29,100,76
1,29,100,28
1,31,100,28
1,31,100,92
1,36,100,96
1,36,100,60
1,36,100,92
1,31,100,92
1,31,100,76
1,31,100,60
1,31,100,92
1,29,100,92
1,29,100,76
1,29,100,60
1,29,100,92
1,29,100,92
1,33,100,92
1,31,100,76
1,31,100,28
1,33,100,28
1,31,100,48
1,36,100,48
1,36,100,60
1,36,100,92
1,29,100,92
1,29,100,76
1,29,100,60
1,29,100,92
1,29,100,92
1,36,100,76
1,36,100,60
1,36,100,92
1,29,100,92
1,29,100,28
1,31,100,28
1,31,100,60
1,36,100,92
1,35,100,96
1,33,100,76
1,33,100,60
1,33,100,92
1,33,100,92
1,31,100,76
1,31,100,60
1,31,100,92
1,31,100,92
1,29,100,76
1,29,100,60
1,29,100,92
1,29,100,92
1,29,100,76
1,29,100,60
1,24,100,92
1,24,100,92
1,33,100,76
1,33,100,60
1,33,100,92
1,33,100,92
1,31,100,76
1,31,100,60
1,31,100,92
1,31,100,92
1,29,100,76
1,29,100,60
1,29,100,92
1,29,100,92
1,29,100,76
1,29,100,60
1,24,100,92
1,24,100,92
1,33,100,76
1,33,100,60
1,33,100,92
1,33,100,92
1,31,100,76
1,31,100,60
1,31,100,92
1,31,100,92
1,29,100,76
1,29,100,60
1,29,100,92
1,29,100,92
1,29,100,76
1,29,100,60
1,24,100,92
1,24,100,92
1,36,100,76
1,36,100,60
1,36,100,92
1,36,100,92
1,34,100,76
1,34,100,60
1,34,100,92
1,34,100,92
1,33,100,76
1,33,100,60
1,33,100,92
1,29,100,92
1,29,100,28
1,33,100,28
1,29,100,76
1,29,100,28
1,33,100,28
1,29,100,92
1,31,100,92
1,31,100,60
1,31,100,92
1,31,100,92
1,31,100,76
1,31,100,60
1,31,100,92
1,31,100,92
1,29,100,76
1,29,100,60
1,29,100,92
1,29,100,92
1,29,100,76
1,29,100,60
1,29,100,92
1,29,100,92
1,28,100,76
1,28,100,60
1,28,100,92
1,31,100,92
1,31,100,76
1,31,100,60
1,31,100,92
1,29,100,92
1,29,100,76
1,29,100,60
1,29,100,92
1,33,100,92
1,33,100,76
1,33,100,60
1,31,100,92
1,31,100,92
1,31,100,28
1,28,100,28
1,28,100,60
1,28,100,92
1,31,100,92
1,31,100,76
1,31,100,60
1,31,100,92
1,29,100,92
1,29,100,76
1,29,100,60
1,29,100,92
1,29,100,92
1,31,100,76
1,29,100,60
1,29,100,28
1,31,100,28
1,29,100,92
1,31,100,28
1,36,100,28
1,36,100,60
1,36,100,92
1,34,100,92
1,34,100,76
1,34,100,60
1,34,100,92
1,33,100,92
1,33,100,80
1,33,100,60
1,33,100,92
1,31,100,92
1,31,100,76
1,31,100,60
1,33,100,96
1,33,100,96
1,38,100,76
1,38,100,60
1,38,100,92
1,33,100,92
1,33,100,76
1,33,100,60
1,33,100,92
1,33,100,92
1,31,100,76
1,31,100,60
1,31,100,92
1,35,100,92
1,35,100,76
1,33,100,60
1,33,100,92
1,33,100,92
1,37,100,28
1,38,100,28
1,38,100,60
1,38,100,92
1,31,100,92
1,31,100,76
1,31,100,60
1,31,100,92
1,31,100,92
1,33,100,76
1,33,100,60
1,33,100,92
1,33,100,92
1,33,100,76
1,33,100,60
1,33,100,92
1,33,100,92
1,37,100,28
1,38,100,28
1,38,100,60
1,38,100,92
1,33,100,92
1,33,100,76
1,33,100,60
1,33,100,92
1,33,100,92
1,31,100,76
1,31,100,60
1,31,100,92
1,35,100,92
1,35,100,76
1,33,100,60
1,33,100,92
1,33,100,92
1,37,100,28
1,38,100,28
1,38,100,60
1,38,100,92
1,31,100,92
1,31,100,76
1,31,100,60
1,31,100,92
1,31,100,92
1,38,100,76
1,33,100,60
1,33,100,28
1,38,100,28
1,31,100,92
1,31,100,76
1,31,100,60
1,31,100,92
1,31,100,96
1,33,100,92
1,33,100,60
1,33,100,92
1,33,100,92
1,31,100,76
1,31,100,60
1,31,100,92
1,31,100,92
1,29,100,76
1,29,100,60
1,29,100,92
1,29,100,92
1,29,100,76
1,29,100,60
1,24,100,92
1,24,100,92
1,33,100,76
1,33,100,60
1,33,100,92
1,33,100,92
1,31,100,76
1,31,100,60
1,31,100,92
1,31,100,92
1,29,100,76
1,29,100,60
1,29,100,92
1,29,100,92
1,29,100,76
1,29,100,60
1,24,100,92
1,24,100,92
1,33,100,76
1,33,100,60
1,33,100,92
1,33,100,92
1,31,100,76
1,31,100,60
1,31,100,92
1,31,100,92
1,29,100,76
1,29,100,60
1,29,100,92
1,29,100,92
1,29,100,76
1,29,100,60
1,24,100,92
1,24,100,92
1,36,100,76
1,36,100,60
1,36,100,92
1,36,100,92
1,34,100,76
1,34,100,60
1,34,100,92
1,34,100,92
1,33,100,76
1,33,100,60
1,33,100,92
1,29,100,92
1,29,100,28
1,33,100,28
1,29,100,76
1,29,100,28
1,33,100,28
1,29,100,92
1,31,100,92
1,31,100,60
1,31,100,92
1,31,100,92
1,31,100,76
1,31,100,60
1,31,100,92
1,31,100,92
1,29,100,76
1,29,100,60
1,29,100,92
1,29,100,92
1,29,100,76
1,29,100,60
1,29,100,92
1,29,100,92
1,28,100,76
1,28,100,60
1,28,100,92
1,31,100,92
1,31,100,76
1,31,100,60
1,31,100,92
1,29,100,92
1,29,100,76
1,29,100,60
1,29,100,92
1,33,100,92
1,33,100,76
1,33,100,60
1,31,100,92
1,31,100,92
1,31,100,28
1,28,100,28
1,28,100,60
1,28,100,92
1,31,100,92
1,31,100,76
1,31,100,60
1,31,100,92
1,29,100,92
1,29,100,76
1,29,100,60
1,29,100,92
1,29,100,92
1,31,100,76
1,29,100,60
1,29,100,28
1,31,100,28
1,29,100,92
1,31,100,28
1,36,100,28
1,36,100,60
1,36,100,92
1,34,100,92
1,34,100,76
1,34,100,60
1,34,100,92
1,33,100,92
1,33,100,80
1,33,100,60
1,33,100,92
1,31,100,92
1,31,100,76
1,31,100,60
1,33,100,96
1,33,100,96
1,38,100,76
1,38,100,60
1,38,100,92
1,33,100,92
1,33,100,76
1,33,100,60
1,33,100,92
1,33,100,92
1,31,100,76
1,31,100,60
1,31,100,92
1,35,100,92
1,35,100,76
1,33,100,60
1,33,100,92
1,33,100,92
1,37,100,28
1,38,100,28
1,38,100,60
1,38,100,92
1,31,100,92
1,31,100,76
1,31,100,60
1,31,100,92
1,31,100,92
1,33,100,76
1,33,100,60
1,33,100,92
1,33,100,92
1,33,100,76
1,33,100,60
1,33,100,92
1,33,100,92
1,37,100,28
1,38,100,28
1,38,100,60
1,38,100,92
1,33,100,92
1,33,100,76
1,33,100,60
1,33,100,92
1,33,100,92
1,31,100,76
1,31,100,60
1,31,100,92
1,35,100,92
1,35,100,76
1,33,100,60
1,33,100,92
1,33,100,92
1,37,100,28
1,38,100,28
1,38,100,60
1,38,100,92
1,31,100,92
1,31,100,76
1,31,100,60
1,31,100,92
1,31,100,92
1,38,100,76
1,33,100,60
1,33,100,28
1,38,100,28
1,31,100,92
1,31,100,76
1,31,100,60
1,31,100,92
1,31,100,96
1,38,100,92
1,38,100,60
1,38,100,92
1,33,100,92
1,33,100,76
1,33,100,60
1,33,100,92
1,33,100,92
1,31,100,76
1,31,100,60
1,31,100,92
1,35,100,92
1,35,100,76
1,33,100,60
1,33,100,92
1,33,100,92
1,37,100,28
1,38,100,28
1,38,100,60
1,38,100,92
1,31,100,92
1,31,100,76
1,31,100,60
1,31,100,92
1,31,100,92
1,33,100,76
1,33,100,60
1,33,100,92
1,33,100,92
1,33,100,76
1,33,100,60
1,33,100,92
1,33,100,92
1,37,100,28
1,38,100,28
1,38,100,60
1,38,100,92
1,33,100,92
1,33,100,76
1,33,100,60
1,33,100,92
1,33,100,92
1,31,100,76
1,31,100,60
1,31,100,92
1,35,100,92
1,35,100,76
1,33,100,60
1,33,100,92
1,33,100,92
1,37,100,28
1,38,100,28
1,38,100,60
1,38,100,92
1,31,100,92
1,31,100,76
1,31,100,60
1,31,100,92
1,31,100,92
1,38,100,76
1,33,100,60
1,33,100,28
1,38,100,28
1,31,100,92
1,31,100,76
1,31,100,60
1,31,100,92
1,31,100,96
1,33,100,92
1,33,100,60
1,33,100,92
1,33,100,92
1,31,100,76
1,31,100,60
1,31,100,92
1,31,100,92
1,29,100,76
1,29,100,60
1,29,100,92
1,29,100,92
1,29,100,76
1,29,100,60
1,24,100,92
1,24,100,92
1,33,100,76
1,33,100,60
1,33,100,92
1,33,100,92
1,31,100,76
1,31,100,60
1,31,100,96
1,31,100,92
1,29,100,76
1,29,100,60
1,29,100,96
1,29,100,92
1,29,100,76
1,29,100,60
1,24,100,96
1,24,100,92
1,33,100,76
1,33,100,60
1,33,100,92
1,33,100,92
1,31,100,76
1,31,100,60
1,31,100,92
1,31,100,92
1,29,100,76
1,29,100,60
1,29,100,92
1,29,100,92
1,29,100,76
1,29,100,60
1,24,100,92
1,24,100,92
1,36,100,76
1,36,100,60
1,36,100,92
1,36,100,92
1,34,100,76
1,34,100,60
1,34,100,96
1,34,100,92
1,33,100,76
1,33,100,60
1,33,100,92
1,29,100,92
1,29,100,28
1,33,100,28
1,29,100,76
1,29,100,28
1,33,100,28
1,29,100,92
1,31,100,92
1,31,100,60
1,31,100,92
1,31,100,92
1,31,100,76
1,31,100,60
1,31,100,92
1,31,100,92
1,29,100,76
1,29,100,60
1,29,100,92
1,29,100,92
1,29,100,76
1,29,100,60
1,29,100,92
1,29,100,92
1,28,100,76
1,28,100,60
1,28,100,92
1,31,100,92
1,31,100,76
1,31,100,60
1,31,100,92
1,29,100,92
1,29,100,76
1,29,100,60
1,29,100,92
1,33,100,92
1,33,100,76
1,33,100,60
1,31,100,92
1,31,100,92
1,31,100,28
1,28,100,28
1,28,100,60
1,28,100,92
1,31,100,92
1,31,100,76
1,31,100,60
1,31,100,92
1,29,100,92
1,29,100,76
1,29,100,60
1,29,100,92
1,29,100,92
1,31,100,76
1,29,100,60
1,29,100,28
1,31,100,28
1,29,100,92
1,31,100,28
1,36,100,32
1,36,100,60
1,36,100,92
1,34,100,92
1,34,100,76
1,34,100,60
1,34,100,92
1,33,100,92
1,33,100,80
1,33,100,60
1,33,100,92
1,31,100,92
1,31,100,76
1,31,100,60
1,33,100,96
1,33,100,96
1,38,100,76
1,38,100,60
1,38,100,92
1,33,100,92
1,33,100,76
1,33,100,60
1,33,100,92
1,33,100,92
1,31,100,76
1,31,100,60
1,31,100,92
1,35,100,92
1,35,100,76
1,33,100,60
1,33,100,92
1,33,100,92
1,37,100,28
1,38,100,28
1,38,100,60
1,38,100,92
1,31,100,92
1,31,100,76
1,31,100,60
1,31,100,92
1,31,100,92
1,33,100,76
1,33,100,60
1,33,100,92
1,33,100,92
1,33,100,76
1,33,100,60
1,33,100,92
1,33,100,92
1,37,100,28
1,38,100,28
1,38,100,60
1,38,100,92
1,33,100,92
1,33,100,76
1,33,100,60
1,33,100,92
1,33,100,88
1,31,100,76
1,31,100,60
1,31,100,92
1,35,100,92
1,35,100,76
1,33,100,60
1,33,100,92
1,33,100,88
1,37,100,28
1,38,100,28
1,38,100,60
1,38,100,92
1,31,100,92
1,31,100,76
1,31,100,60
1,31,100,92
1,31,100,92
1,38,100,76
1,33,100,60
1,33,100,28
1,38,100,28
1,31,100,92
1,31,100,76
1,31,100,60
1,31,100,92
1,31,100,96
1,38,100,92
1,38,100,60
1,38,100,92
1,33,100,92
1,33,100,76
1,33,100,60
1,33,100,88
1,33,100,92
1,31,100,76
1,31,100,60
1,31,100,92
1,35,100,92
1,35,100,76
1,33,100,60
1,33,100,92
1,33,100,92
1,37,100,28
1,38,100,28
1,38,100,60
1,38,100,92
1,31,100,92
1,31,100,76
1,31,100,60
1,31,100,92
1,31,100,92
1,33,100,76
1,33,100,60
1,33,100,92
1,33,100,92
1,33,100,76
1,33,100,60
1,33,100,92
1,33,100,92
1,37,100,28
1,38,100,28
1,38,100,60
1,38,100,92
1,33,100,88
1,33,100,76
1,33,100,60
1,33,100,92
1,33,100,92
1,31,100,76
1,31,100,60
1,31,100,92
1,35,100,92
1,35,100,76
1,33,100,60
1,33,100,92
1,33,100,92
1,37,100,28
1,38,100,28
1,38,100,60
1,38,100,92
1,31,100,92
1,31,100,76
1,31,100,60
1,31,100,92
1,31,100,92
1,38,100,76
1,33,100,60
1,33,100,28
1,38,100,28
1,31,100,96
1,31,100,76
1,31,100,60
1,31,100,92
1,31,100,96
1,38,100,92
1,38,100,60
1,38,100,92
1,33,100,92
1,33,100,76
1,33,100,60
1,33,100,92
1,33,100,92
1,31,100,76
1,31,100,60
1,31,100,92
1,35,100,92
1,35,100,76
1,33,100,60
1,33,100,92
1,33,100,92
1,37,100,28
1,38,100,28
1,38,100,60
1,38,100,92
1,31,100,92
1,31,100,76
1,31,100,60
1,31,100,92
1,31,100,92
1,33,100,76
1,33,100,60
1,33,100,92
1,33,100,92
1,33,100,76
1,33,100,60
1,33,100,92
1,33,100,92
1,37,100,28
1,38,100,28
1,38,100,60
1,38,100,92
1,33,100,92
1,33,100,76
1,33,100,60
1,33,100,92
1,33,100,88
1,31,100,76
1,31,100,60
1,31,100,92
1,35,100,92
1,35,100,76
1,33,100,60
1,33,100,92
1,33,100,92
1,37,100,28
1,38,100,28
1,38,100,60
1,38,100,92
1,31,100,92
1,31,100,76
1,31,100,60
1,31,100,92
1,31,100,92
1,38,100,76
1,33,100,60
1,33,100,28
1,38,100,28
1,31,100,88
1,31,100,76
1,31,100,60
1,31,100,88
1,33,100,28
1,38,100,76
2,79,80,1156
2,84,80,0
2,86,80,0
2,88,80,0
2,89,80,0
2,60,66,0
2,64,66,0
2,67,66,0
2,91,80,4
2,59,66,4
2,62,66,0
2,67,66,0
2,89,80,0
2,88,80,0
2,84,80,0
2,60,66,0
2,65,66,4
2,69,66,0
2,79,80,0
2,59,66,0
2,62,66,0
2,67,66,0
2,81,80,0
2,84,80,0
2,60,66,4
2,64,66,0
2,67,66,0
2,79,80,0
2,88,80,0
2,60,66,4
2,65,66,0
2,69,66,0
2,89,80,0
2,60,66,0
2,64,66,4
2,67,66,0
2,84,80,0
2,86,80,0
2,88,80,0
2,60,66,0
2,62,66,0
2,67,66,0
2,86,80,0
2,79,80,192
2,84,80,0
2,86,80,0
2,88,80,0
2,89,80,0
2,60,66,4
2,64,66,0
2,67,66,0
2,91,80,0
2,59,66,4
2,62,66,0
2,67,66,0
2,89,80,0
2,88,80,0
2,84,80,0
2,60,66,4
2,65,66,0
2,69,66,0
2,79,80,0
2,59,66,0
2,62,66,0
2,67,66,0
2,81,80,0
2,84,80,0
2,60,66,4
2,64,66,0
2,67,66,0
2,79,80,0
2,88,80,0
2,60,66,0
2,65,66,4
2,69,66,0
2,89,80,0
2,60,66,0
2,64,66,4
2,67,66,0
2,84,80,0
2,86,80,0
2,88,80,0
2,60,66,0
2,62,66,0
2,67,66,0
2,86,80,0
2,84,80,0
2,83,80,0
2,64,66,0
2,69,66,0
2,72,66,0
2,81,80,0
2,62,66,4
2,67,66,0
2,71,66,0
2,60,66,4
2,65,66,0
2,69,66,0
2,64,66,0
2,69,66,4
2,72,66,0
2,81,80,0
2,62,66,4
2,67,66,0
2,71,66,0
2,86,80,572
2,60,66,4
2,64,66,0
2,69,66,0
2,88,80,0
2,81,80,0
2,79,80,0
2,81,80,0
2,64,66,4
2,69,66,0
2,72,66,0
2,62,66,4
2,67,66,0
2,71,66,0
2,60,66,0
2,65,66,4
2,69,66,0
2,60,66,0
