track,note,velocity,time
1,50,64,0
1,45,64,4
1,50,64,4
1,49,64,4
1,50,64,4
1,45,64,4
1,50,64,4
1,49,64,4
1,50,64,4
1,52,64,4
1,54,64,4
1,55,64,4
1,54,64,4
1,52,64,4
1,50,64,4
1,49,64,4
1,50,64,4
1,45,64,4
1,50,64,4
1,49,64,4
1,50,64,4
1,45,64,4
1,50,64,4
1,49,64,4
1,50,64,4
1,52,64,4
1,54,64,4
1,52,64,4
1,55,64,4
1,54,64,4
1,57,64,4
1,52,64,4
1,50,64,4
1,45,64,4
1,50,64,4
1,49,64,4
1,50,64,4
1,45,64,4
1,50,64,4
1,49,64,4
1,50,64,4
1,52,64,4
1,54,64,4
1,55,64,4
1,54,64,4
1,52,64,4
1,50,64,4
1,49,64,4
1,50,64,4
1,45,64,4
1,50,64,4
1,49,64,4
1,50,64,4
1,45,64,4
1,50,64,4
1,49,64,4
1,50,64,4
1,52,64,4
1,54,64,4
1,52,64,4
1,55,64,4
1,54,64,4
1,57,64,4
1,52,64,4
1,62,80,4
1,57,80,4
1,62,80,4
1,61,80,4
1,62,80,4
1,57,80,4
1,62,80,4
1,61,80,4
1,62,80,4
1,64,80,4
1,66,80,4
1,67,80,4
1,66,80,4
1,64,80,4
1,62,80,4
1,61,80,4
1,62,80,4
1,57,80,4
1,62,80,4
1,61,80,4
1,62,80,4
1,57,80,4
1,62,80,4
1,61,80,4
1,62,80,4
1,64,80,4
1,66,80,4
1,64,80,4
1,67,80,4
1,66,80,4
1,69,80,4
1,64,80,4
1,62,80,4
1,57,80,4
1,62,80,4
1,61,80,4
1,62,80,4
1,57,80,4
1,62,80,4
1,61,80,4
1,62,80,4
1,64,80,4
1,66,80,4
1,67,80,4
1,66,80,4
1,64,80,4
1,62,80,4
1,61,80,4
1,62,80,4
1,57,80,4
1,62,80,4
1,61,80,4
1,62,80,4
1,57,80,4
1,62,80,4
1,61,80,4
1,62,80,4
1,64,80,4
1,66,80,4
1,64,80,4
1,67,80,4
1,66,80,4
1,69,80,4
1,64,80,4
1,62,80,4
1,57,80,4
1,62,80,4
1,61,80,4
1,62,80,4
1,57,80,4
1,62,80,4
1,61,80,4
1,62,80,4
1,64,80,4
1,66,80,4
1,67,80,4
1,66,80,4
1,64,80,4
1,62,80,4
1,61,80,4
1,62,80,4
1,57,80,4
1,62,80,4
1,61,80,4
1,62,80,4
1,57,80,4
1,62,80,4
1,61,80,4
1,62,80,4
1,64,80,4
1,66,80,4
1,64,80,4
1,67,80,4
1,66,80,4
1,69,80,4
1,64,80,4
1,62,80,4
1,57,80,4
1,62,80,4
1,61,80,4
1,62,80,4
1,57,80,4
1,62,80,4
1,61,80,4
1,62,80,4
1,64,80,4
1,66,80,4
1,67,80,4
1,66,80,4
1,64,80,4
1,62,80,4
1,61,80,4
1,62,80,4
1,57,80,4
1,62,80,4
1,61,80,4
1,62,80,4
1,57,80,4
1,62,80,4
1,61,80,4
1,62,80,4
1,64,80,4
1,66,80,4
1,64,80,4
1,67,80,4
1,66,80,4
1,69,80,4
1,64,80,4
1,62,80,4
1,57,80,4
1,62,80,4
1,61,80,4
1,62,80,4
1,57,80,4
1,62,80,4
1,61,80,4
1,62,80,4
1,64,80,4
1,66,80,4
1,67,80,4
1,66,80,4
1,64,80,4
1,62,80,4
1,61,80,4
1,62,80,4
1,57,80,4
1,62,80,4
1,61,80,4
1,62,80,4
1,57,80,4
1,62,80,4
1,61,80,4
1,62,80,4
1,64,80,4
1,66,80,4
1,64,80,4
1,67,80,4
1,66,80,4
1,69,80,4
1,64,80,4
1,62,80,4
1,57,80,4
1,62,80,4
1,61,80,4
1,62,80,4
1,57,80,4
1,62,80,4
1,61,80,4
1,62,80,4
1,64,80,4
1,66,80,4
1,67,80,4
1,66,80,4
1,64,80,4
1,62,80,4
1,61,80,4
1,62,80,4
1,57,80,4
1,62,80,4
1,61,80,4
1,62,80,4
1,57,80,4
1,62,80,4
1,61,80,4
1,62,80,4
1,64,80,4
1,66,80,4
1,64,80,4
1,67,80,4
1,66,80,4
1,69,80,4
1,64,80,4
1,62,80,4
1,57,80,4
1,62,80,4
1,61,80,4
1,62,80,4
1,57,80,4
1,62,80,4
1,61,80,4
1,62,80,4
1,64,80,4
1,66,80,4
1,67,80,4
1,66,80,4
1,64,80,4
1,62,80,4
1,61,80,4
1,62,80,4
1,57,80,4
1,62,80,4
1,61,80,4
1,62,80,4
1,57,80,4
1,62,80,4
1,61,80,4
1,62,80,4
1,64,80,4
1,66,80,4
1,64,80,4
1,67,80,4
1,66,80,4
1,69,80,4
1,64,80,4
1,62,80,4
1,57,80,4
1,62,80,4
1,61,80,4
1,62,80,4
1,57,80,4
1,62,80,4
1,61,80,4
1,62,80,4
1,64,80,4
1,66,80,4
1,67,80,4
1,66,80,4
1,64,80,4
1,62,80,4
1,61,80,4
1,62,80,4
1,57,80,4
1,62,80,4
1,61,80,4
1,62,80,4
1,57,80,4
1,62,80,4
1,61,80,4
1,62,80,4
1,64,80,4
1,66,80,4
1,64,80,4
1,67,80,4
1,66,80,4
1,69,80,4
1,64,80,4
1,67,92,4
1,62,92,0
1,59,88,0
1,69,96,67
1,64,92,0
1,61,88,0
1,66,92,1
1,69,92,0
1,74,92,0
1,78,96,46
1,76,74,5
1,74,78,45
1,73,92,31
1,67,96,37
1,62,96,0
1,59,88,1
1,69,92,34
1,61,82,1
1,64,92,0
1,74,88,10
1,66,88,0
1,69,92,0
1,78,82,75
1,76,82,23
1,74,78,7
1,71,74,48
1,69,66,66
1,66,60,5
1,73,62,0
1,66,82,30
1,69,92,1
1,73,96,0
1,69,88,42
1,66,70,0
1,73,88,0
1,69,96,51
1,66,92,1
1,73,96,0
1,71,96,59
1,66,96,0
1,62,92,0
1,66,88,40
1,71,96,1
1,62,88,0
1,71,92,57
1,66,96,0
1,62,96,0
1,71,96,66
1,62,92,0
1,66,92,0
1,67,96,68
1,59,96,1
1,62,96,1
1,67,96,47
1,62,96,0
1,59,92,0
1,69,96,59
1,73,96,1
1,64,82,0
1,73,96,62
1,69,102,0
1,64,88,1
1,73,92,73
1,69,88,0
1,71,78,25
1,74,88,1
1,73,78,24
1,76,82,1
1,73,78,23
1,69,70,1
1,59,92,36
1,62,82,0
1,67,74,0
1,62,92,41
1,67,92,0
1,59,88,1
1,69,88,55
1,61,78,0
1,64,96,1
1,69,92,22
1,61,78,1
1,64,96,0
1,73,78,71
1,69,88,0
1,71,78,21
1,74,66,1
1,73,88,24
1,76,88,1
1,69,70,25
1,73,78,0
1,69,84,30
1,71,84,23
1,73,84,16
1,74,84,14
1,74,84,30
1,76,84,4
1,78,84,4
1,79,84,27
1,81,84,20
1,83,84,14
1,85,84,43
1,62,80,0
1,57,80,4
1,62,80,4
1,61,80,4
1,62,80,4
1,57,80,4
1,62,80,4
1,61,80,4
1,62,80,4
1,64,80,4
1,66,80,4
1,67,80,4
1,66,80,4
1,64,80,4
1,62,80,4
1,61,80,4
1,62,80,4
1,57,80,4
1,62,80,4
1,61,80,4
1,62,80,4
1,57,80,4
1,62,80,4
1,61,80,4
1,62,80,4
1,64,80,4
1,66,80,4
1,64,80,4
1,67,80,4
1,66,80,4
1,69,80,4
1,64,80,4
1,62,80,4
1,57,80,4
1,62,80,4
1,61,80,4
1,62,80,4
1,57,80,4
1,62,80,4
1,61,80,4
1,62,80,4
1,64,80,4
1,66,80,4
1,67,80,4
1,66,80,4
1,64,80,4
1,62,80,4
1,61,80,4
1,62,80,4
1,57,80,4
1,62,80,4
1,61,80,4
1,62,80,4
1,57,80,4
1,62,80,4
1,61,80,4
1,62,80,4
1,64,80,4
1,66,80,4
1,64,80,4
1,67,80,4
1,66,80,4
1,69,80,4
1,64,80,4
1,62,80,4
1,57,80,4
1,62,80,4
1,61,80,4
1,62,80,4
1,57,80,4
1,62,80,4
1,61,80,4
1,62,80,4
1,64,80,4
1,66,80,4
1,67,80,4
1,66,80,4
1,64,80,4
1,62,80,4
1,61,80,4
1,62,80,4
1,57,80,4
1,62,80,4
1,61,80,4
1,62,80,4
1,57,80,4
1,62,80,4
1,61,80,4
1,62,80,4
1,64,80,4
1,66,80,4
1,64,80,4
1,67,80,4
1,66,80,4
1,69,80,4
1,64,80,4
1,62,80,4
1,57,80,4
1,62,80,4
1,61,80,4
1,62,80,4
1,57,80,4
1,62,80,4
1,61,80,4
1,62,80,4
1,64,80,4
1,66,80,4
1,67,80,4
1,66,80,4
1,64,80,4
1,62,80,4
1,61,80,4
1,62,80,4
1,57,80,4
1,62,80,4
1,61,80,4
1,62,80,4
1,57,80,4
1,62,80,4
1,61,80,4
1,62,80,4
1,64,80,4
1,66,80,4
1,64,80,4
1,67,80,4
1,66,80,4
1,69,80,4
1,64,80,4
1,43,84,4
1,67,84,0
1,59,84,0
1,62,84,0
1,45,84,15
1,69,84,0
1,61,84,0
1,64,84,0
1,74,84,15
1,38,84,0
1,69,84,0
1,66,84,0
1,78,84,15
1,76,84,8
1,74,84,8
1,73,84,8
1,43,84,8
1,59,84,0
1,67,84,0
1,62,84,0
1,45,84,15
1,61,84,0
1,64,84,0
1,69,84,0
1,38,84,15
1,74,84,0
1,66,84,0
1,69,84,0
1,78,84,15
1,76,84,8
1,74,84,8
1,71,84,8
1,42,102,8
1,73,78,0
1,66,102,7
1,69,102,0
1,73,92,1
1,66,78,24
1,69,92,1
1,73,88,1
1,42,108,20
1,66,108,91
1,69,102,0
1,73,92,1
1,42,62,23
1,69,96,16
1,66,88,0
1,73,96,1
1,47,114,1
1,71,102,35
1,62,102,0
1,66,102,0
1,47,96,0
1,47,108,4
1,47,92,14
1,71,96,54
1,66,96,0
1,62,108,1
1,47,88,33
1,40,96,0
1,59,102,73
1,67,96,1
1,64,102,0
1,40,70,17
1,40,92,12
1,67,92,13
1,64,88,0
1,59,88,0
1,43,108,2
1,59,78,97
1,67,88,0
1,62,88,3
1,43,70,22
1,45,82,26
1,69,96,97
1,61,88,0
1,64,96,1
1,45,88,1
1,74,84,20
1,66,84,0
1,69,84,0
1,61,84,15
1,69,84,0
1,64,84,0
1,62,84,15
1,67,84,0
1,59,84,0
1,69,84,15
1,61,84,0
1,64,84,0
1,66,84,15
1,74,84,0
1,69,84,0
1,61,84,15
1,64,84,0
1,69,84,0
1,71,84,15
1,62,84,0
1,66,84,0
1,62,84,15
1,67,84,0
1,59,84,0
1,66,84,15
1,74,84,0
1,69,84,0
1,69,84,15
1,73,84,0
1,64,84,0
1,71,84,15
1,67,84,0
1,62,84,0
1,69,84,15
1,64,84,0
1,74,84,0
1,69,84,8
1,64,84,0
1,74,84,0
1,74,84,8
1,64,84,0
1,69,84,0
1,69,84,8
1,73,84,0
1,64,84,0
1,74,84,8
1,66,84,0
1,69,84,0
1,61,84,15
1,69,84,0
1,64,84,0
1,62,84,15
1,67,84,0
1,59,84,0
1,69,84,15
1,61,84,0
1,64,84,0
1,66,84,15
1,74,84,0
1,69,84,0
1,61,84,15
1,64,84,0
1,69,84,0
1,71,84,15
1,62,84,0
1,66,84,0
1,62,84,15
1,67,84,0
1,59,84,0
1,66,84,15
1,74,84,0
1,69,84,0
1,69,84,15
1,73,84,0
1,64,84,0
1,76,84,15
1,71,84,0
1,68,84,0
1,76,84,15
1,68,84,0
1,71,84,0
1,69,84,15
1,74,84,0
1,64,84,0
1,74,84,8
1,69,84,0
1,64,84,0
1,74,84,8
1,69,84,0
1,64,84,0
1,64,84,8
1,69,84,0
1,73,84,0
1,66,84,8
1,74,84,0
1,69,84,0
1,73,84,15
1,69,84,0
1,66,84,0
1,66,84,15
1,69,84,0
1,73,84,0
1,74,84,15
1,69,84,0
1,66,84,0
1,71,84,15
1,74,84,0
1,79,84,0
1,74,84,15
1,69,84,0
1,78,84,0
1,74,84,15
1,78,84,0
1,69,84,0
1,67,84,15
1,76,84,0
1,71,84,0
1,66,84,15
1,69,84,0
1,74,84,0
1,66,84,15
1,74,84,0
1,69,84,0
1,69,84,15
1,64,84,0
1,73,84,0
1,73,84,15
1,64,84,0
1,69,84,0
1,59,84,15
1,67,84,0
1,64,84,0
1,59,84,15
1,64,84,0
1,67,84,0
1,69,84,15
1,64,84,0
1,74,84,0
1,73,84,15
1,69,84,0
1,64,84,0
1,74,84,15
1,66,84,0
1,69,84,0
1,69,84,15
1,66,84,0
1,73,84,0
1,73,84,15
1,69,84,0
1,66,84,0
1,66,84,15
1,74,84,0
1,69,84,0
1,74,84,15
1,79,84,0
1,71,84,0
1,69,84,15
1,74,84,0
1,78,84,0
1,69,84,15
1,74,84,0
1,78,84,0
1,67,84,15
1,76,84,0
1,71,84,0
1,66,84,15
1,74,84,0
1,69,84,0
1,74,84,15
1,66,84,0
1,69,84,0
1,64,84,15
1,69,84,0
1,73,84,0
1,69,84,15
1,73,84,0
1,64,84,0
1,59,84,15
1,64,84,0
1,67,84,0
1,67,84,15
1,59,84,0
1,64,84,0
1,74,84,15
1,69,84,0
1,64,84,0
1,73,84,15
1,69,84,0
1,64,84,0
1,62,80,15
1,57,80,4
1,62,80,4
1,61,80,4
1,62,80,4
1,57,80,4
1,62,80,4
1,61,80,4
1,62,80,4
1,64,80,4
1,66,80,4
1,67,80,4
1,66,80,4
1,64,80,4
1,62,80,4
1,61,80,4
1,62,80,4
1,57,80,4
1,62,80,4
1,61,80,4
1,62,80,4
1,57,80,4
1,62,80,4
1,61,80,4
1,62,80,4
1,64,80,4
1,66,80,4
1,64,80,4
1,67,80,4
1,66,80,4
1,69,80,4
1,64,80,4
1,62,80,4
1,57,80,4
1,62,80,4
1,61,80,4
1,62,80,4
1,57,80,4
1,62,80,4
1,61,80,4
1,62,80,4
1,64,80,4
1,66,80,4
1,67,80,4
1,66,80,4
1,64,80,4
1,62,80,4
1,61,80,4
1,62,80,4
1,57,80,4
1,62,80,4
1,61,80,4
1,62,80,4
1,57,80,4
1,62,80,4
1,61,80,4
1,62,80,4
1,64,80,4
1,66,80,4
1,64,80,4
1,67,80,4
1,66,80,4
1,69,80,4
1,64,80,4
1,62,80,4
1,57,80,4
1,62,80,4
1,61,80,4
1,62,80,4
1,57,80,4
1,62,80,4
1,61,80,4
1,62,80,4
1,64,80,4
1,66,80,4
1,67,80,4
1,66,80,4
1,64,80,4
1,62,80,4
1,61,80,4
1,62,80,4
1,57,80,4
1,62,80,4
1,61,80,4
1,62,80,4
1,57,80,4
1,62,80,4
1,61,80,4
1,62,80,4
1,64,80,4
1,66,80,4
1,67,80,4
1,66,80,4
1,67,80,4
1,69,80,4
1,71,80,4
1,69,80,4
1,61,80,0
1,66,80,0
1,61,80,29
1,66,80,0
1,69,80,0
1,61,80,15
1,66,80,0
1,69,80,0
1,61,80,8
1,66,80,0
1,69,80,0
1,62,80,8
1,67,80,0
1,71,80,0
1,62,80,29
1,71,80,0
1,67,80,0
1,62,80,15
1,71,80,0
1,67,80,0
1,78,80,15
1,78,80,8
1,76,80,4
1,74,80,4
1,78,80,4
1,74,80,8
1,78,80,8
1,74,80,8
1,78,80,8
1,76,80,8
1,69,80,8
1,73,80,4
1,76,80,4
1,69,80,8
1,74,80,8
1,67,80,8
1,71,80,4
1,74,80,4
1,67,80,8
1,71,80,4
1,74,80,4
1,71,80,4
1,67,80,4
1,74,80,8
1,71,80,4
1,67,80,4
1,61,80,8
1,66,80,0
1,69,80,0
1,61,80,29
1,66,80,0
1,69,80,0
1,61,80,15
1,66,80,0
1,69,80,0
1,61,80,8
1,66,80,0
1,69,80,0
1,67,80,8
1,71,80,0
1,62,80,0
1,67,80,29
1,62,80,0
1,71,80,0
1,67,80,15
1,62,80,0
1,71,80,0
1,78,80,15
1,76,80,8
1,74,80,4
1,74,80,4
1,78,80,8
1,74,80,8
1,78,80,8
1,74,80,8
1,78,80,8
1,68,80,8
1,59,80,0
1,64,80,0
1,68,80,15
1,59,80,0
1,64,80,0
1,69,80,15
1,73,80,0
1,64,80,0
1,73,80,15
1,64,80,0
