track,note,velocity,time
1,64,127,6920
1,62,127,0
1,60,127,20
1,60,124,124
1,60,127,252
1,62,119,188
1,64,124,8
1,65,127,8
1,67,127,28
1,67,119,92
1,69,127,152
1,67,124,12
1,65,115,176
1,64,106,176
1,65,120,32
1,65,106,104
1,65,127,104
1,64,122,196
1,62,117,180
1,60,116,64
1,64,127,68
1,65,105,960
1,64,105,8
1,62,111,0
1,64,124,152
1,64,117,180
1,62,96,180
1,60,114,204
1,60,99,112
1,60,127,220
1,62,125,208
1,64,127,180
1,65,127,164
1,67,127,12
1,67,112,124
1,67,100,88
1,69,127,184
1,67,127,192
1,65,122,8
1,64,117,12
1,65,124,24
1,65,117,80
1,65,127,112
1,64,114,12
1,62,114,184
1,60,111,60
1,64,127,104
1,65,118,0
1,64,115,0
1,62,97,8
1,64,127,356
1,64,127,192
1,62,101,188
1,60,125,0
1,60,119,124
1,60,127,312
1,62,122,204
1,64,124,152
1,65,125,160
1,67,127,12
1,67,124,124
1,67,103,112
1,69,127,192
1,67,122,180
1,65,119,20
1,64,112,200
1,65,127,56
1,65,112,68
1,65,99,132
1,65,127,124
1,64,117,192
1,62,124,196
1,60,116,64
1,64,127,116
1,65,127,68
1,64,120,12
1,62,127,32
1,67,125,88
1,67,125,72
1,69,124,184
1,69,120,108
1,69,127,108
1,67,124,64
1,67,125,116
1,67,114,108
1,67,116,112
1,67,124,104
1,67,112,80
1,67,127,100
1,65,125,32
1,64,118,12
1,64,110,160
1,62,106,20
1,67,118,512
1,67,125,56
1,67,122,48
1,69,122,88
1,69,116,108
1,69,127,132
1,67,115,92
1,67,118,124
1,67,104,100
1,67,110,124
1,67,127,108
1,67,105,108
1,67,127,160
1,65,115,8
1,64,118,20
1,64,127,232
1,62,127,12
1,64,127,1048
1,62,124,380
1,60,120,112
1,60,124,152
1,60,127,268
1,62,122,192
1,64,127,40
1,65,125,8
1,67,127,48
1,67,125,120
1,69,127,120
1,67,119,192
1,65,127,12
1,64,117,188
1,65,122,52
1,65,124,132
1,65,127,136
1,64,117,12
1,62,113,180
1,60,113,16
1,64,127,92
1,65,113,112
1,64,109,12
1,62,116,12
1,64,127,120
1,64,124,204
1,62,96,192
1,60,127,188
1,60,114,156
1,60,127,364
1,62,120,12
1,64,127,72
1,65,127,12
1,67,122,24
1,67,117,132
1,69,127,316
1,67,127,188
1,65,122,4
1,64,122,12
1,65,127,44
1,65,118,152
1,65,127,176
1,64,112,24
1,62,113,192
1,60,112,84
1,64,127,108
1,65,104,140
1,64,122,196
1,62,120,20
1,67,118,12776
1,67,122,84
1,67,116,48
1,69,122,92
1,69,105,112
1,69,127,120
1,67,107,100
1,67,122,112
1,67,105,104
1,67,117,104
1,67,127,116
1,67,101,92
1,67,127,124
1,65,112,100
1,64,125,124
1,64,119,148
1,62,105,112
1,67,108,1120
1,67,127,100
1,67,120,48
1,69,120,88
1,69,98,88
1,69,127,112
1,67,112,88
1,67,127,132
1,67,118,84
1,67,120,100
1,67,127,104
1,67,112,120
1,67,127,132
1,65,119,120
1,64,124,108
1,64,119,160
1,62,96,104
1,64,127,1272
1,62,127,372
1,60,115,24
1,60,127,144
1,60,127,292
1,62,119,20
1,64,127,60
1,65,127,32
1,67,127,64
1,67,120,124
1,69,127,224
1,67,124,188
1,65,122,172
1,64,116,184
1,65,125,44
1,65,115,112
1,65,127,124
1,64,118,184
1,62,118,8
1,60,116,68
1,64,127,116
1,65,127,100
1,64,118,12
1,62,113,20
1,67,127,1784
1,67,127,60
1,69,127,52
1,67,112,8
1,71,127,632
1,69,127,40
1,67,124,0
1,69,127,196
1,71,110,12
1,67,109,196
1,65,127,2680
1,64,120,56
1,62,122,60
1,60,127,84
1,62,127,128
1,64,127,112
1,62,120,96
1,67,127,152
1,67,127,92
1,69,127,88
1,67,127,8
1,71,127,3000
1,67,124,388
1,64,119,8
1,62,120,188
1,60,115,8
1,62,119,20
1,60,127,1520
1,62,116,28
1,64,127,72
1,64,127,104
1,65,127,184
1,64,127,104
1,62,125,92
2,31,127,31492
2,31,127,12
2,36,127,16
2,31,127,272
2,36,127,244
2,36,127,148
2,31,127,4
2,36,127,36
2,28,127,72
2,35,127,256
2,28,127,176
2,28,127,160
2,35,127,12
2,28,127,20
2,29,127,60
2,36,127,212
2,29,127,148
2,29,127,148
2,36,127,24
2,29,127,96
2,36,127,104
2,31,127,184
2,31,127,268
2,31,127,144
2,31,127,44
2,29,127,136
2,40,127,1152
2,38,127,0
2,45,127,1344
2,43,127,16
2,43,127,160
2,40,127,8
2,31,127,100
2,31,127,124
2,29,127,16
2,29,127,144
2,28,127,8
2,28,127,168
2,38,127,16
2,28,127,20
2,29,127,20
2,40,127,0
2,38,127,8
2,45,127,4
2,43,127,192
2,43,127,124
2,40,127,4
2,31,127,116
2,31,127,108
2,29,127,192
2,29,127,84
2,28,127,192
2,28,127,104
2,38,127,196
2,36,127,140
2,31,127,284
2,36,127,156
2,36,127,176
2,31,127,4
2,36,127,68
2,28,127,116
2,35,127,280
2,28,127,128
2,28,127,168
2,35,127,16
2,28,127,40
2,29,127,76
2,36,127,228
2,29,127,160
2,29,127,108
2,36,127,16
2,29,127,12
2,36,127,36
2,31,127,224
2,31,127,168
2,31,127,188
2,38,127,20
2,31,127,92
2,36,127,20
2,31,127,264
2,36,127,268
2,36,127,152
2,31,127,16
2,36,127,76
2,28,127,96
2,35,127,228
2,28,127,152
2,28,127,120
2,35,127,16
2,28,127,48
2,29,127,96
2,36,127,224
2,29,127,168
2,29,127,140
2,36,127,4
2,29,127,96
2,36,127,76
2,31,127,192
2,31,127,200
2,31,127,176
2,38,127,24
2,31,127,24
2,36,127,40
2,31,127,292
2,36,127,316
2,36,127,196
2,31,127,16
2,36,127,116
2,28,127,84
2,35,127,316
2,28,127,204
2,28,127,148
2,35,127,4
2,28,127,116
2,29,127,108
2,36,127,248
2,29,127,260
2,29,127,100
2,36,127,16
2,29,127,100
2,36,127,152
2,31,127,272
2,31,127,184
2,31,127,140
2,31,127,112
2,29,127,192
2,40,127,32
2,38,127,12
2,45,127,4
2,43,127,24
2,43,127,200
2,40,127,24
2,31,127,28
2,31,127,104
2,29,127,16
2,29,127,152
2,28,127,24
2,28,127,164
2,38,127,32
2,29,127,68
2,40,127,72
2,38,127,12
2,45,127,88
2,43,127,8
2,43,127,188
2,40,127,4
2,31,127,132
2,31,127,116
2,29,127,16
2,29,127,116
2,28,127,16
2,28,127,108
2,38,127,4
2,36,127,40
2,31,127,332
2,36,127,288
2,36,127,172
2,31,127,4
2,36,127,68
2,28,127,108
2,35,127,300
2,28,127,148
2,28,127,148
2,35,127,4
2,28,127,64
2,29,127,108
2,36,127,252
2,29,127,256
2,29,127,124
2,36,127,24
2,29,127,88
2,36,127,144
2,31,127,272
2,31,127,160
2,31,127,176
2,38,127,196
2,31,127,140
2,36,127,384
2,31,127,280
2,36,127,308
2,36,127,144
2,31,127,8
2,36,127,136
2,28,127,88
2,35,127,252
2,28,127,316
2,28,127,164
2,35,127,16
2,28,127,124
2,29,127,116
2,36,127,260
2,29,127,272
2,29,127,120
2,36,127,4
2,29,127,140
2,36,127,108
2,31,127,224
2,31,127,268
2,31,127,144
2,38,127,24
2,31,127,196
2,36,127,44
2,31,127,280
2,36,127,188
2,36,127,144
2,31,127,192
2,36,127,48
2,28,127,80
2,35,127,232
2,28,127,332
2,28,127,136
2,35,127,20
2,28,127,56
2,29,127,24
2,36,127,236
2,29,127,284
2,29,127,148
2,36,127,8
2,29,127,96
2,36,127,132
2,31,127,236
2,31,127,168
2,28,127,120
2,38,127,148
2,31,127,140
2,36,127,12
3,64,84,7656
3,60,84,0
3,55,84,0
3,64,84,68
3,67,84,12
3,59,84,0
3,60,84,8
3,65,84,0
3,69,84,0
3,67,84,8
3,64,84,16
3,62,84,20
3,59,84,0
3,60,84,8
3,55,84,0
3,64,84,4
3,64,84,64
3,67,84,12
3,59,84,0
3,69,84,28
3,60,84,16
3,65,84,0
3,67,84,8
3,64,84,0
3,62,84,16
3,59,84,0
3,60,84,44
3,64,84,0
3,55,84,20
3,64,84,40
3,67,84,0
3,59,84,0
3,69,84,8
3,65,84,0
3,60,84,20
3,67,84,16
3,64,84,16
3,62,84,0
3,59,84,16
3,65,84,76
3,57,84,16
3,60,84,0
3,59,84,20
3,62,84,0
3,67,84,0
3,64,84,112
3,57,84,28
3,60,84,12
3,67,84,104
3,59,84,0
3,62,84,0
3,55,84,400
3,65,84,344
3,64,84,16
3,62,84,684
3,69,84,28
3,60,84,0
3,65,84,0
3,67,84,48
3,62,84,12
3,59,84,0
3,64,84,8
3,60,84,56
3,57,84,12
3,67,84,0
3,62,84,4
3,59,84,0
3,55,84,20
3,65,84,8
3,64,84,12
3,62,84,736
3,64,84,60
3,60,84,0
3,55,84,0
3,64,84,76
3,67,84,0
3,59,84,0
3,65,84,32
3,60,84,0
3,69,84,0
3,67,84,28
3,64,84,0
3,62,84,8
3,59,84,0
3,64,84,80
3,60,84,16
3,55,84,0
3,59,84,64
3,67,84,0
3,64,84,4
3,69,84,44
3,60,84,16
3,65,84,0
3,67,84,20
3,64,84,0
3,62,84,84
3,59,84,16
3,64,84,32
3,60,84,0
3,55,84,0
3,67,84,84
3,59,84,0
3,64,84,0
3,69,84,28
3,60,84,0
3,65,84,20
3,67,84,28
3,64,84,0
3,62,84,92
3,59,84,0
3,69,84,28
3,65,84,0
3,60,84,4
3,67,84,12
3,62,84,12
3,59,84,0
3,64,84,0
3,57,84,84
3,60,84,0
3,62,84,8
3,55,84,0
3,59,84,4
3,67,84,0
3,65,84,8
3,64,84,28
3,62,84,752
3,69,84,20
3,60,84,0
3,65,84,0
3,67,84,20
3,62,84,0
3,59,84,0
3,64,84,1512
3,57,84,100
3,60,84,12
3,62,84,8
3,59,84,0
3,67,84,4
3,55,84,0
3,65,84,8
3,64,84,28
3,62,84,668
3,64,84,40
3,60,84,12
3,55,84,0
3,67,84,84
3,59,84,0
3,64,84,4
3,65,84,16
3,60,84,0
3,69,84,4
3,67,84,4
3,64,84,16
3,59,84,100
3,62,84,0
3,60,84,96
3,64,84,0
3,55,84,4
3,64,84,44
3,67,84,0
3,59,84,4
3,60,84,40
3,69,84,0
3,65,84,0
3,64,84,16
3,67,84,0
3,62,84,8
3,59,84,12
3,60,84,88
3,64,84,0
3,59,84,96
3,69,84,20
3,60,84,0
3,65,84,4
3,67,84,4
3,64,84,4
3,62,84,112
3,59,84,12
3,64,84,88
3,60,84,12
3,55,84,0
4,55,127,0
4,64,127,4
4,64,127,108
4,62,117,8
4,60,125,84
4,60,127,124
4,62,127,68
4,64,125,120
4,65,124,12
4,67,127,8
4,69,127,0
4,67,127,28
4,65,127,124
4,64,114,168
4,65,120,0
4,65,125,64
4,67,115,28
4,65,119,0
4,64,108,212
4,62,114,116
4,64,103,56
4,62,96,52
4,60,93,4
4,59,96,92
4,55,125,25336
4,64,124,4
4,62,115,0
4,60,115,176
4,60,117,24
4,60,127,128
4,62,127,72
4,64,127,124
4,65,118,104
4,67,120,4
4,69,127,84
4,67,127,80
4,65,127,12
4,64,114,100
4,65,111,20
4,67,120,4
4,65,124,120
4,64,115,0
4,62,113,180
4,64,115,20
4,62,100,20
4,55,115,100
4,64,127,96
4,64,127,4
4,62,122,28
4,60,127,0
4,60,115,48
4,60,122,32
4,62,124,20
4,64,124,92
4,65,116,8
4,67,105,8
4,69,120,60
4,67,127,8
4,65,115,8
4,64,101,100
4,65,108,96
4,67,120,4
4,65,118,8
4,64,113,200
4,62,118,8
4,64,127,4
4,64,127,0
4,62,124,36
4,60,127,136
5,55,80,19848
5,60,97,64
5,64,94,52
5,67,94,96
5,72,89,12
5,76,92,36
5,55,92,88
5,59,102,64
5,64,95,68
5,67,99,60
5,71,111,24
5,76,104,40
5,57,83,12
5,60,104,72
5,65,97,64
5,69,95,20
5,72,88,64
5,77,94,32
5,55,78,192
5,60,115,88
5,64,89,48
5,71,88,8
5,74,94,68
5,79,102,20
5,55,90,280
5,60,115,80
5,64,102,48
5,67,107,76
5,72,99,68
5,76,92,36
5,55,95,132
5,59,102,68
5,64,90,68
5,67,104,148
5,71,107,64
5,76,99,36
5,57,85,72
5,60,97,52
5,65,111,72
5,69,94,40
5,72,99,8
5,77,107,20
5,55,74,44
5,60,111,104
5,64,95,36
5,71,88,40
5,74,104,84
5,79,102,12
5,69,90,272
5,72,104,56
5,77,115,0
5,71,90,176
5,74,104,0
5,79,107,4
5,76,88,176
5,71,95,0
5,67,120,0
5,69,79,200
5,64,102,20
5,72,102,0
5,76,97,4
5,55,127,24
5,55,115,136
5,53,127,24
5,53,104,124
5,52,120,36
5,52,107,124
5,50,127,44
5,69,115,344
5,65,125,20
5,72,85,0
5,77,89,4
5,67,111,152
5,71,87,0
5,74,102,24
5,64,83,228
5,67,102,92
5,76,87,0
5,71,99,0
5,64,97,188
5,69,89,0
5,72,99,0
5,76,92,4
5,55,127,12
5,53,120,24
5,52,115,24
5,50,107,776
5,50,65,12
5,64,102,328
5,60,102,0
5,55,115,0
5,67,90,40
5,72,102,76
5,76,89,40
5,55,89,176
5,59,92,76
5,64,97,48
5,67,90,124
5,71,102,76
5,76,104,20
5,57,84,64
5,60,92,44
5,65,107,80
5,69,97,1416
5,72,99,68
5,77,99,12
5,55,85,152
5,60,111,88
5,64,97,36
5,55,92,132
5,59,82,56
5,62,107,68
5,55,84,284
5,60,120,60
5,64,87,60
5,67,99,112
5,72,99,60
5,76,87,24
5,55,88,192
5,59,95,28
5,64,107,76
5,67,94,36
5,71,99,64
5,76,104,32
5,57,78,160
5,60,95,28
5,65,111,96
5,69,102,1408
5,72,85,36
5,77,102,16
5,55,76,108
5,60,107,64
5,64,102,52
5,71,90,8
5,74,82,24
5,79,92,40
5,55,95,180
5,60,99,40
5,64,97,64
5,67,90,72
5,72,89,24
5,76,94,20
5,55,82,236
5,59,88,32
5,64,107,96
5,67,102,44
5,71,104,40
5,76,99,36
5,57,78,120
5,60,94,16
5,65,111,76
5,69,97,112
5,72,97,12
5,77,111,20
5,55,84,64
5,60,102,100
5,64,95,16
5,71,92,12
5,74,92,56
5,79,95,0
5,65,94,252
5,69,102,0
5,72,99,4
5,77,97,0
5,71,77,56
5,67,81,16
5,74,95,0
5,79,99,4
5,71,81,256
5,67,104,0
5,76,102,24
5,69,95,260
5,72,97,20
5,64,102,0
5,55,127,400
5,53,120,24
5,52,111,768
5,50,104,12
5,50,72,12
5,69,99,276
5,65,97,24
5,72,92,0
5,77,102,0
5,67,104,188
5,71,83,0
5,79,95,4
5,74,88,0
5,67,92,268
5,71,80,0
5,64,78,24
5,76,85,0
5,69,89,372
5,64,86,0
5,72,92,4
5,55,127,472
5,53,125,16
5,52,120,32
5,50,115,116
5,50,70,16
5,60,95,356
5,67,120,0
5,64,102,0
5,67,97,228
5,72,92,12
5,76,94,16
5,55,85,56
5,59,94,40
5,64,97,72
5,67,86,8
5,71,88,76
5,76,92,48
5,57,78,104
5,60,115,52
5,65,111,84
5,69,111,1372
5,72,95,68
5,77,102,48
5,55,84,164
5,60,107,84
5,64,104,48
5,71,70,32
5,74,102,76
5,79,102,20
5,55,82,76
5,60,107,76
5,64,99,60
5,67,86,180
5,76,95,88
5,72,104,0
5,55,85,148
5,59,99,40
5,64,111,84
5,67,99,108
5,71,95,12
5,76,95,20
5,57,88,160
5,60,89,44
5,65,107,72
5,69,120,192
5,72,89,12
5,77,97,16
5,55,84,88
5,60,111,64
5,64,90,40
5,71,90,12
5,74,99,68
5,79,99,20
5,55,85,88
5,60,102,52
5,64,95,72
5,67,95,16
5,72,97,64
5,76,92,0
5,55,82,116
5,59,99,56
5,64,97,72
5,67,107,156
5,71,89,12
5,76,92,24
5,57,86,92
5,60,89,32
5,65,111,72
5,69,104,108
5,72,88,24
5,77,102,24
5,55,85,208
5,60,102,44
5,64,99,44
5,67,88,104
5,71,102,80
5,74,111,20
5,67,125,92
5,76,125,4
