track,note,velocity,time
0,48,101,700
0,64,89,8
0,48,112,8
0,64,89,8
0,55,92,172
0,67,83,4
0,55,103,8
0,67,83,8
0,60,83,0
0,72,77,12
0,60,94,8
0,72,77,4
0,55,69,172
0,67,87,4
0,55,80,8
0,67,87,0
0,64,87,0
0,74,78,0
0,64,98,0
0,74,78,4
0,55,87,172
0,67,85,4
0,55,98,8
0,67,85,8
0,60,80,24
0,72,73,0
0,60,91,4
0,72,73,4
0,55,89,168
0,67,92,8
0,55,100,8
0,67,92,8
0,48,101,92
0,64,91,0
0,48,112,8
0,64,91,0
0,55,87,160
0,67,87,8
0,55,98,8
0,67,87,8
0,60,82,8
0,72,78,0
0,60,93,8
0,72,78,4
0,55,83,4
0,67,84,8
0,55,94,8
0,67,84,4
0,64,84,0
0,74,86,0
0,64,95,0
0,74,86,4
0,55,92,168
0,67,85,8
0,55,103,12
0,67,85,4
0,60,82,8
0,72,82,0
0,60,93,12
0,72,82,0
0,55,94,12
0,67,93,4
0,55,105,12
0,67,93,4
0,48,105,0
0,64,92,0
0,48,116,8
0,64,92,4
0,55,88,164
0,67,90,8
0,55,99,8
0,67,90,8
0,60,76,0
0,72,78,0
0,60,87,8
0,72,78,4
0,55,85,172
0,67,89,4
0,55,96,8
0,67,89,4
0,64,85,0
0,74,82,0
0,64,96,0
0,74,82,4
0,55,90,172
0,67,82,4
0,55,101,4
0,67,82,12
0,60,82,24
0,72,79,0
0,60,93,4
0,72,79,4
0,55,92,0
0,67,92,4
0,55,103,4
0,67,92,8
0,48,100,92
0,64,96,0
0,48,111,8
0,64,96,0
0,55,88,168
0,67,90,4
0,55,99,8
0,67,90,8
0,60,76,16
0,72,78,0
0,60,87,8
0,72,78,0
0,55,87,12
0,67,78,0
0,55,98,12
0,67,78,8
0,64,89,0
0,74,81,0
0,76,127,8
0,64,100,0
0,74,81,0
0,55,86,168
0,67,82,8
0,55,97,8
0,67,82,8
0,60,82,4
0,72,78,0
0,76,127,8
0,60,93,0
0,72,78,0
0,55,96,0
0,67,89,4
0,74,104,4
0,55,107,0
0,67,89,8
0,60,77,20
0,55,77,0
0,64,77,0
0,35,97,4
0,52,116,4
0,72,118,4
0,55,117,0
0,60,116,4
0,64,116,8
0,52,104,80
0,55,104,8
0,52,123,8
0,60,104,0
0,38,102,4
0,55,123,4
0,64,104,0
0,60,123,4
0,64,123,12
0,52,107,44
0,55,107,8
0,60,107,8
0,72,118,8
0,64,107,0
0,35,97,140
0,52,105,164
0,55,105,8
0,60,105,4
0,64,105,12
0,52,107,16
0,55,107,12
0,52,125,4
0,60,107,0
0,38,102,4
0,55,125,4
0,64,107,0
0,60,125,8
0,64,125,8
0,52,96,76
0,55,96,8
0,60,96,8
0,64,96,8
0,52,109,76
0,55,109,8
0,60,109,8
0,35,97,4
0,64,109,4
0,52,112,308
0,55,112,8
0,52,127,8
0,60,112,0
0,38,102,4
0,55,127,4
0,64,112,0
0,60,127,8
0,64,127,8
0,52,105,12
0,55,105,8
0,60,105,8
0,35,58,4
0,64,105,4
0,72,121,128
0,35,97,4
0,52,109,16
0,55,109,8
0,52,49,8
0,60,109,0
0,74,104,4
0,55,49,4
0,64,109,0
0,60,49,8
0,64,49,4
0,76,107,4
0,52,125,4
0,38,102,4
0,55,125,4
0,60,125,8
0,64,125,12
0,52,105,8
0,55,105,8
0,77,98,8
0,60,105,0
0,64,105,4
0,52,107,16
0,55,107,4
0,64,77,4
0,55,77,0
0,59,77,0
0,59,107,4
0,35,97,4
0,79,107,4
0,64,107,0
0,52,111,292
0,55,111,8
0,52,118,8
0,59,111,0
0,38,102,0
0,55,118,4
0,64,111,0
0,59,118,4
0,64,118,4
0,52,109,20
0,55,109,12
0,59,109,4
0,79,127,4
0,64,109,4
0,35,97,132
0,52,109,80
0,55,109,8
0,59,109,8
0,64,109,8
0,52,118,16
0,38,102,4
0,55,118,4
0,59,118,8
0,64,118,4
0,52,94,8
0,55,94,8
0,59,94,8
0,64,94,8
0,52,112,16
0,55,112,8
0,59,112,8
0,35,97,4
0,64,112,4
0,52,111,256
0,55,111,12
0,52,123,4
0,59,111,0
0,38,102,0
0,55,123,4
0,64,111,0
0,59,123,4
0,64,123,12
0,52,109,16
0,55,109,12
0,59,109,4
0,35,58,4
0,64,109,4
0,52,100,108
0,55,100,12
0,59,100,8
0,81,121,4
0,35,97,0
0,64,100,4
0,52,67,0
0,55,67,8
0,52,104,8
0,59,67,0
0,79,114,4
0,55,104,4
0,64,67,0
0,59,104,4
0,64,104,12
0,52,125,116
0,55,125,8
0,52,121,4
0,59,125,0
0,77,114,4
0,38,102,0
0,55,121,4
0,64,125,0
0,59,121,8
0,64,121,12
0,52,81,8
0,55,81,8
0,76,114,8
0,59,81,0
0,64,81,8
0,53,118,52
0,57,118,12
0,60,77,0
0,57,77,0
0,65,77,0
0,60,118,0
0,77,112,4
0,35,97,0
0,65,118,0
0,53,105,296
0,57,105,8
0,53,116,8
0,60,105,0
0,38,102,4
0,57,116,4
0,65,105,0
0,60,116,4
0,65,116,4
0,53,123,16
0,57,123,12
0,60,123,4
0,77,127,8
0,65,123,4
0,35,97,132
0,53,125,128
0,57,125,8
0,60,125,8
0,65,125,12
0,53,62,68
0,57,62,0
0,53,118,8
0,60,62,0
0,38,102,4
0,57,118,4
0,65,62,0
0,60,118,4
0,65,118,8
0,53,102,8
0,57,102,8
0,60,102,8
0,65,102,12
0,53,111,4
0,57,111,8
0,60,111,4
0,35,97,4
0,65,111,4
0,53,121,16
0,57,121,12
0,53,118,4
0,60,121,0
0,38,102,4
0,57,118,4
0,65,121,0
0,60,118,8
0,65,118,8
0,53,116,44
0,57,116,8
0,60,116,8
0,35,58,4
0,65,116,4
0,79,127,8
0,35,97,4
0,53,116,12
0,57,116,8
0,53,78,8
0,60,116,0
0,77,104,4
0,57,78,4
0,65,116,0
0,60,78,8
0,65,78,0
0,76,111,16
0,53,123,0
0,38,102,4
0,57,123,8
0,60,123,4
0,65,123,8
0,53,112,0
0,57,112,8
0,74,104,4
0,60,112,4
0,65,112,8
0,52,112,4
0,55,112,4
0,60,77,4
0,64,77,0
0,55,77,4
0,60,112,4
0,76,107,4
0,64,112,4
0,35,97,0
0,52,107,300
0,55,107,8
0,52,121,8
0,60,107,0
0,38,102,0
0,55,121,4
0,64,107,0
0,60,121,4
0,64,121,8
0,52,114,28
0,55,114,12
0,60,114,4
0,64,114,8
0,35,97,16
0,52,121,80
0,55,121,8
0,77,127,4
0,60,121,4
0,64,121,8
0,76,107,36
0,52,123,4
0,38,102,4
0,55,123,8
0,60,123,4
0,64,123,8
0,52,107,96
0,55,107,8
0,60,107,8
0,64,107,12
0,50,127,20
0,55,127,12
0,55,69,4
0,59,77,0
0,62,77,0
0,74,118,0
0,59,127,0
0,67,127,4
0,35,97,0
0,50,114,20
0,55,114,8
0,50,118,8
0,59,114,0
0,38,102,0
0,55,118,4
0,67,114,0
0,59,118,4
0,67,118,4
0,50,112,16
0,55,112,0
0,59,112,8
0,35,58,4
0,67,112,4
0,35,97,136
0,76,127,4
0,50,116,60
0,55,116,8
0,50,63,8
0,59,116,0
0,55,63,8
0,67,116,0
0,59,63,8
0,67,63,8
0,50,118,112
0,38,102,4
0,55,118,4
0,76,118,4
0,59,118,4
0,67,118,8
0,50,102,8
0,55,102,12
0,59,102,4
0,74,100,4
0,67,102,4
0,67,96,16
0,72,97,60
0,52,116,4
0,55,116,0
0,60,77,4
0,64,77,0
0,60,116,4
0,35,97,4
0,72,112,4
0,64,116,0
0,76,102,28
0,52,111,24
0,55,111,8
0,52,116,4
0,60,111,0
0,38,102,4
0,55,116,4
0,64,111,0
0,60,116,4
0,64,116,12
0,52,109,8
0,55,109,12
0,60,109,4
0,72,116,4
0,64,109,4
0,35,97,112
0,52,114,140
0,55,114,12
0,60,114,4
0,64,114,8
0,52,118,44
0,38,102,4
0,55,118,8
0,60,118,0
0,64,118,8
0,52,104,32
0,55,104,12
0,60,104,4
0,64,104,8
0,52,112,28
0,55,112,8
0,60,112,8
0,35,97,4
0,64,112,4
0,52,123,16
0,55,123,8
0,52,114,8
0,60,123,0
0,38,102,4
0,55,114,8
0,64,123,0
0,60,114,4
0,64,114,8
0,52,109,24
0,55,109,8
0,60,109,8
0,35,58,4
0,64,109,8
0,52,102,108
0,72,123,8
0,55,102,0
0,60,102,8
0,35,97,4
0,64,102,8
0,74,111,24
0,52,125,8
0,55,125,4
0,76,107,4
0,52,118,4
0,60,125,0
0,38,102,4
0,55,118,8
0,64,125,0
0,60,118,4
0,64,118,8
0,52,93,28
0,55,93,8
0,77,111,8
0,60,93,0
0,64,93,8
0,67,99,36
0,71,94,44
0,52,118,8
0,55,118,8
0,59,77,4
0,59,118,4
0,35,97,4
0,79,114,4
0,64,118,0
0,76,107,20
0,52,118,304
0,55,118,0
0,52,116,8
0,59,118,0
0,38,102,4
0,55,116,8
0,64,118,0
0,59,116,4
0,64,116,8
0,52,116,32
0,55,116,8
0,59,116,8
0,64,116,8
0,79,127,4
0,35,97,72
0,52,125,160
0,55,125,8
0,59,125,8
0,64,125,8
0,52,118,116
0,38,102,4
0,55,118,4
0,59,118,8
0,64,118,0
0,52,112,44
0,55,112,12
0,59,112,4
0,64,112,8
0,52,116,40
0,55,116,8
0,59,116,8
0,35,97,4
0,64,116,4
0,52,63,116
0,55,63,8
0,59,63,8
0,64,63,8
0,52,123,4
0,55,123,8
0,52,116,8
0,59,123,0
0,38,102,4
0,55,116,4
0,64,123,0
0,59,116,8
0,64,116,12
0,52,121,32
0,55,121,8
0,59,121,8
0,35,58,4
0,64,121,8
0,81,127,124
0,35,97,4
0,52,127,0
0,55,127,12
0,52,82,4
0,59,127,0
0,79,111,4
0,55,82,4
0,64,127,0
0,59,82,8
0,64,82,12
0,52,74,112
0,55,74,8
0,52,114,8
0,59,74,0
0,38,102,0
0,77,111,4
0,55,114,0
0,64,74,0
0,59,114,4
0,64,114,12
0,52,116,8
0,55,116,12
0,76,91,4
0,59,116,0
0,64,116,8
0,69,102,4
0,72,91,12
0,53,118,16
0,57,118,8
0,60,77,4
0,57,77,0
0,65,77,0
0,60,118,4
0,77,125,4
0,65,118,0
0,35,97,0
0,77,102,16
0,53,114,304
0,57,114,12
0,53,123,4
0,60,114,0
0,38,102,0
0,57,123,4
0,65,114,0
0,60,123,4
0,65,123,4
0,53,112,16
0,57,112,12
0,60,112,4
0,77,127,8
0,65,112,0
0,53,107,128
0,57,107,8
0,60,107,4
0,35,97,8
0,65,107,8
0,53,123,4
0,57,123,8
0,53,114,8
0,60,123,0
0,38,102,4
0,57,114,4
0,65,123,0
0,60,114,0
0,65,114,12
0,53,123,0
0,57,123,12
0,60,123,4
0,65,123,8
0,35,97,144
0,53,118,76
0,57,118,8
0,60,118,8
0,65,118,8
0,53,123,16
0,38,102,4
0,57,123,4
0,60,123,8
0,65,123,8
0,53,102,76
0,57,102,8
0,60,102,8
0,35,58,4
0,65,102,4
0,53,114,48
0,57,114,8
0,60,114,8
0,35,97,4
0,79,116,4
0,65,114,0
0,77,107,8
0,53,127,176
0,57,127,0
0,53,121,8
0,60,127,0
0,76,107,0
0,38,102,0
0,57,121,4
0,65,127,0
0,60,121,4
0,65,121,8
0,53,93,20
0,57,93,8
0,74,101,8
0,60,93,0
0,65,93,12
0,67,98,20
0,72,98,16
0,52,118,8
0,55,118,8
0,60,77,4
0,64,77,0
0,55,77,0
0,60,118,0
0,35,97,4
0,64,118,4
0,76,102,0
0,76,118,4
0,52,112,304
0,55,112,12
0,52,123,0
0,60,112,0
0,38,102,4
0,55,123,4
0,64,112,0
0,60,123,4
0,64,123,8
0,52,118,40
0,55,118,8
0,60,118,8
0,64,118,12
0,35,97,64
0,52,123,56
0,77,116,12
0,55,123,0
0,52,87,4
0,60,123,0
0,55,87,8
0,64,123,0
0,60,87,8
0,64,87,8
0,76,125,80
0,52,121,0
0,38,102,4
0,55,121,4
0,60,121,8
0,64,121,12
0,52,100,96
0,55,100,4
0,60,100,8
0,64,100,8
0,67,99,4
0,71,98,0
0,50,118,8
0,55,118,8
0,55,77,4
0,59,77,0
0,62,77,4
0,74,121,0
0,59,118,0
0,35,112,4
0,67,118,4
0,74,102,0
0,35,44,132
0,50,112,24
0,55,112,4
0,50,114,8
0,59,112,0
0,35,80,4
0,55,114,8
0,67,112,0
0,59,114,4
0,67,114,12
0,50,121,20
0,55,121,0
0,59,121,8
0,35,103,4
0,31,96,4
0,67,121,0
0,35,112,80
0,38,112,4
0,76,127,0
0,50,123,0
0,55,123,12
0,59,123,0
0,35,105,4
0,67,123,4
0,50,60,4
0,38,90,4
0,55,60,4
0,50,127,8
0,59,60,0
0,38,117,4
0,55,127,4
0,67,60,0
0,76,123,4
0,59,127,0
0,67,127,4
0,50,107,16
0,55,107,4
0,59,107,8
0,74,96,4
0,67,107,4
0,52,123,16
0,55,123,8
0,55,102,4
0,60,102,0
0,64,102,0
0,60,123,4
0,49,67,4
0,35,112,4
0,36,105,4
0,64,123,0
0,72,123,4
0,42,35,136
0,52,116,44
0,55,116,12
0,52,125,4
0,60,116,0
0,38,102,4
0,42,85,0
0,55,125,4
0,64,116,0
0,60,125,4
0,64,125,12
0,52,118,16
0,55,118,8
0,60,118,8
0,72,123,8
0,64,118,0
0,42,37,8
0,35,112,16
0,42,67,0
0,31,101,4
0,52,116,168
0,55,116,8
0,60,116,8
0,64,116,12
0,42,34,8
0,52,65,52
0,55,65,8
0,52,125,8
0,60,65,0
0,38,102,4
0,42,69,0
0,55,125,4
0,64,65,0
0,60,125,4
0,64,125,4
0,52,107,8
0,55,107,8
0,60,107,8
0,64,107,12
0,42,33,4
0,52,109,0
0,55,109,4
0,60,109,4
0,35,112,8
0,36,109,4
0,64,109,4
0,42,73,0
0,52,61,108
0,55,61,12
0,60,61,4
0,64,61,0
0,42,34,4
0,52,125,20
0,55,125,8
0,52,123,8
0,60,125,0
0,38,102,4
0,42,72,0
0,55,123,4
0,64,125,0
0,60,123,4
0,64,123,12
0,52,107,56
0,55,107,8
0,60,107,8
0,35,73,4
0,36,100,4
0,64,107,0
0,42,38,4
0,72,127,128
0,35,112,4
0,42,74,0
0,31,104,4
0,52,123,16
0,55,123,12
0,52,97,4
0,60,123,0
0,74,111,4
0,55,97,4
0,64,123,0
0,60,97,8
0,42,32,4
0,64,97,4
0,52,67,0
0,55,67,8
0,52,121,8
0,60,67,0
0,76,107,4
0,38,102,0
0,42,69,0
0,36,102,4
0,55,121,0
0,64,67,0
0,60,121,4
0,64,121,4
0,52,123,36
0,55,123,12
0,77,102,4
0,60,123,0
0,64,123,8
0,42,35,4
0,52,121,12
0,55,121,4
0,55,102,8
0,59,102,0
0,64,102,4
0,59,121,0
0,35,112,4
0,40,104,8
0,64,121,0
0,79,127,4
0,42,73,0
0,42,34,140
0,52,125,156
0,55,125,8
0,52,121,8
0,59,125,0
0,38,102,4
0,42,72,4
0,55,121,4
0,64,125,0
0,59,121,4
0,64,121,8
0,52,111,32
0,55,111,8
0,59,111,8
0,64,111,4
0,79,127,4
0,42,38,8
0,35,112,132
0,42,74,0
0,35,112,4
0,52,116,116
0,55,116,8
0,59,116,4
0,64,116,12
0,42,32,12
0,52,118,16
0,55,118,8
0,52,127,8
0,59,118,0
0,38,102,4
0,42,69,0
0,55,127,4
0,64,118,0
0,59,127,4
0,64,127,8
0,52,100,36
0,55,100,12
0,59,100,4
0,64,100,8
0,42,35,4
0,52,127,8
0,55,127,0
0,59,127,4
0,35,112,4
0,40,102,4
0,64,127,0
0,42,73,0
0,52,57,116
0,55,57,8
0,59,57,8
0,64,57,4
0,42,34,0
0,52,114,8
0,55,114,8
0,52,121,8
0,59,114,0
0,38,102,4
0,42,72,0
0,55,121,4
0,64,114,0
0,59,121,4
0,64,121,12
0,52,121,48
0,55,121,8
0,59,121,8
0,35,73,4
0,40,100,4
0,64,121,0
0,42,38,8
