track,note,velocity,time
0,64,89,382
0,48,101,0
0,48,112,2
0,64,89,4
0,67,83,42
0,55,92,1
0,55,103,1
0,67,83,4
0,60,83,41
0,72,77,2
0,60,94,2
0,72,77,3
0,67,87,4
0,55,69,1
0,55,80,1
0,67,87,4
0,74,78,0
0,64,87,0
0,64,98,0
0,74,78,1
0,67,85,3
0,55,87,1
0,55,98,1
0,67,85,1
0,72,73,2
0,60,80,0
0,60,91,1
0,72,73,0
0,67,92,5
0,55,89,0
0,55,100,0
0,67,92,4
0,64,91,24
0,48,101,1
0,48,112,1
0,64,91,4
0,67,87,4
0,55,87,0
0,55,98,0
0,67,87,4
0,72,78,0
0,60,82,0
0,60,93,1
0,72,78,5
0,67,84,2
0,55,83,0
0,55,94,2
0,67,84,3
0,74,86,0
0,64,84,0
0,64,95,0
0,74,86,0
0,67,85,0
0,55,92,0
0,55,103,1
0,67,85,3
0,72,82,0
0,60,82,0
0,60,93,3
0,72,82,0
0,67,93,2
0,55,94,0
0,55,105,3
0,67,93,3
0,64,92,0
0,48,105,0
0,48,116,2
0,64,92,4
0,67,90,3
0,55,88,0
0,55,99,1
0,67,90,4
0,72,78,2
0,60,76,0
0,60,87,2
0,72,78,4
0,67,89,2
0,55,85,1
0,55,96,1
0,67,89,4
0,74,82,0
0,64,85,0
0,64,96,0
0,74,82,0
0,67,82,0
0,55,101,1
0,55,90,0
0,67,82,4
0,72,79,6
0,60,82,1
0,60,93,0
0,72,79,1
0,67,92,1
0,55,92,1
0,55,103,1
0,67,92,4
0,64,96,7
0,48,100,0
0,48,111,2
0,64,96,1
0,67,90,5
0,55,88,1
0,55,99,0
0,67,90,4
0,72,78,6
0,60,76,1
0,60,87,1
0,72,78,4
0,67,78,2
0,55,87,1
0,55,98,2
0,67,78,4
0,74,81,0
0,64,89,0
0,76,127,0
0,64,100,0
0,74,81,0
0,67,82,4
0,55,86,0
0,55,97,2
0,67,82,4
0,72,78,1
0,60,82,0
0,74,127,1
0,60,93,1
0,72,78,0
0,67,89,0
0,55,96,1
0,55,107,0
0,67,89,4
0,55,77,1
0,60,77,0
0,64,77,0
0,72,127,4
0,35,97,1
0,52,116,0
0,55,117,1
0,60,116,1
0,64,116,2
0,52,104,22
0,52,123,2
0,55,104,0
0,55,123,2
0,60,104,0
0,38,102,1
0,60,123,1
0,64,104,0
0,64,123,2
0,52,107,10
0,72,127,1
0,55,107,1
0,60,107,2
0,64,107,2
0,35,97,2
0,52,105,42
0,55,105,2
0,60,105,1
0,64,105,3
0,52,107,6
0,52,125,3
0,55,107,1
0,55,125,0
0,60,107,0
0,38,102,1
0,60,125,0
0,64,107,0
0,64,125,2
0,52,96,19
0,55,96,3
0,60,96,0
0,64,96,3
0,52,109,21
0,55,109,3
0,60,109,1
0,35,97,0
0,64,109,1
0,52,112,76
0,52,127,4
0,55,112,0
0,55,127,1
0,60,112,0
0,38,102,0
0,60,127,1
0,64,112,0
0,64,127,2
0,52,105,3
0,55,105,2
0,60,105,2
0,35,58,0
0,64,105,1
0,72,127,30
0,35,97,2
0,52,109,1
0,52,49,2
0,55,109,0
0,74,127,1
0,55,49,1
0,60,109,0
0,60,49,2
0,64,109,0
0,64,49,1
0,76,127,3
0,52,125,0
0,55,125,1
0,38,102,0
0,60,125,1
0,64,125,3
0,52,105,27
0,77,127,2
0,55,105,0
0,60,105,1
0,64,105,1
0,59,77,3
0,55,77,0
0,64,77,1
0,52,107,0
0,55,107,1
0,79,127,2
0,59,107,1
0,35,97,0
0,64,107,1
0,52,111,73
0,52,118,2
0,55,111,0
0,55,118,2
0,59,111,0
0,38,102,1
0,59,118,1
0,64,111,0
0,64,118,0
0,52,109,4
0,79,127,2
0,55,109,1
0,59,109,0
0,64,109,3
0,35,97,6
0,52,109,22
0,55,109,3
0,59,109,1
0,64,109,2
0,52,118,5
0,55,118,1
0,38,102,0
0,59,118,2
0,64,118,0
0,52,94,4
0,55,94,1
0,59,94,3
0,64,94,2
0,52,112,4
0,55,112,2
0,59,112,2
0,35,97,0
0,64,112,0
0,52,111,65
0,52,123,2
0,55,111,1
0,55,123,0
0,59,111,0
0,38,102,1
0,59,123,1
0,64,111,0
0,64,123,2
0,52,109,4
0,55,109,3
0,59,109,1
0,35,58,0
0,64,109,1
0,52,100,28
0,55,100,2
0,81,127,1
0,59,100,1
0,35,97,0
0,64,100,2
0,52,67,1
0,52,104,2
0,55,67,0
0,79,127,1
0,55,104,1
0,59,67,0
0,59,104,2
0,64,67,0
0,64,104,1
0,52,125,0
0,52,121,3
0,55,125,0
0,77,127,1
0,55,121,0
0,59,125,0
0,38,102,0
0,59,121,1
0,64,125,0
0,64,121,3
0,52,81,4
0,76,127,2
0,55,81,0
0,59,81,1
0,64,81,4
0,65,77,16
0,57,77,0
0,60,77,1
0,53,118,0
0,77,127,2
0,57,118,0
0,60,118,1
0,35,97,0
0,65,118,1
0,53,105,74
0,53,116,2
0,57,105,0
0,57,116,2
0,60,105,0
0,38,102,1
0,60,116,1
0,65,105,0
0,65,116,1
0,53,123,4
0,77,127,3
0,57,123,0
0,60,123,1
0,65,123,3
0,35,97,7
0,53,125,34
0,57,125,2
0,60,125,2
0,65,125,4
0,53,62,19
0,53,118,3
0,57,62,0
0,57,118,1
0,60,62,0
0,38,102,1
0,60,118,1
0,65,62,0
0,65,118,1
0,53,102,4
0,57,102,2
0,60,102,2
0,65,102,3
0,53,111,0
0,57,111,2
0,60,111,1
0,35,97,1
0,65,111,0
0,53,121,6
0,53,118,2
0,57,121,1
0,57,118,1
0,60,121,0
0,38,102,1
0,60,118,1
0,65,121,0
0,65,118,1
0,53,116,11
0,57,116,3
0,60,116,1
0,35,58,0
0,65,116,1
0,79,127,3
0,35,97,1
0,53,116,10
0,53,78,2
0,57,116,0
0,77,127,1
0,57,78,1
0,60,116,0
0,60,78,2
0,65,116,0
0,65,78,0
0,76,127,5
0,53,123,0
0,38,102,2
0,57,123,1
0,60,123,1
0,65,123,1
0,53,112,2
0,74,127,2
0,57,112,0
0,60,112,2
0,65,112,3
0,64,77,2
0,60,77,0
0,55,77,1
0,52,112,0
0,55,112,1
0,76,127,1
0,35,97,1
0,60,112,1
0,64,112,1
0,52,107,36
0,52,121,2
0,55,107,0
0,55,121,1
0,60,107,0
0,38,102,0
0,60,121,0
0,64,107,0
0,64,121,1
0,52,114,9
0,55,114,3
0,60,114,1
0,64,114,3
0,35,97,5
0,52,121,21
0,77,127,1
0,55,121,0
0,60,121,2
0,64,121,2
0,76,127,1
0,52,123,0
0,38,102,2
0,55,123,0
0,60,123,0
0,64,123,0
0,52,107,2
0,74,127,2
0,55,107,0
0,60,107,2
0,64,107,2
0,62,77,9
0,59,77,0
0,55,69,1
0,50,127,1
0,55,127,2
0,59,127,0
0,35,97,0
0,67,127,0
0,50,114,3
0,50,118,2
0,55,114,0
0,55,118,1
0,59,114,0
0,38,102,1
0,59,118,0
0,67,114,0
0,67,118,1
0,50,112,4
0,55,112,3
0,59,112,1
0,35,58,0
0,67,112,1
0,76,127,7
0,35,97,0
0,50,116,17
0,50,63,2
0,55,116,0
0,55,63,2
0,59,116,0
0,59,63,2
0,67,116,0
0,67,63,2
0,50,118,19
0,74,127,2
0,55,118,0
0,38,102,1
0,59,118,0
0,67,118,1
0,50,102,27
0,55,102,1
0,59,102,1
0,67,102,1
0,67,96,1
0,72,97,16
0,64,77,5
0,60,77,0
0,55,77,0
0,52,116,0
0,72,127,1
0,55,116,1
0,60,116,2
0,35,97,0
0,64,116,0
0,76,102,9
0,52,111,2
0,52,116,3
0,55,111,0
0,55,116,0
0,60,111,0
0,38,102,1
0,60,116,0
0,64,111,0
0,64,116,3
0,52,109,2
0,72,127,3
0,55,109,0
0,60,109,0
0,64,109,2
0,35,97,15
0,52,114,37
0,55,114,3
0,60,114,1
0,64,114,2
0,52,118,11
0,38,102,2
0,55,118,1
0,60,118,0
0,64,118,0
0,52,104,9
0,55,104,3
0,60,104,1
0,64,104,2
0,52,112,7
0,55,112,3
0,60,112,1
0,35,97,0
0,64,112,0
0,52,123,6
0,52,114,2
0,55,123,0
0,60,123,2
0,38,102,0
0,55,114,1
0,60,114,1
0,64,123,0
0,64,114,1
0,52,109,6
0,55,109,2
0,60,109,2
0,35,58,0
0,64,109,1
0,52,102,27
0,72,127,1
0,55,102,2
0,60,102,1
0,35,97,0
0,64,102,1
0,74,127,7
0,52,125,0
0,76,127,3
0,52,118,0
0,55,125,0
0,60,125,2
0,38,102,0
0,55,118,1
0,60,118,0
0,64,125,1
0,64,118,1
0,52,93,9
0,77,127,2
0,55,93,0
0,60,93,2
0,64,93,2
0,67,99,9
0,71,94,1
0,59,77,3
0,55,77,0
0,64,77,1
0,52,118,0
0,55,118,2
0,79,127,1
0,59,118,1
0,35,97,0
0,64,118,0
0,76,107,5
0,52,118,1
0,52,116,2
0,55,118,0
0,59,118,1
0,38,102,1
0,55,116,1
0,59,116,2
0,64,118,0
0,64,116,0
0,52,116,3
0,55,116,2
0,79,127,1
0,59,116,0
0,64,116,3
0,35,97,1
0,52,125,42
0,55,125,2
0,59,125,2
0,64,125,2
0,52,118,30
0,55,118,1
0,38,102,0
0,59,118,1
0,64,118,3
0,52,112,13
0,55,112,4
0,59,112,0
0,64,112,2
0,52,116,9
0,55,116,2
0,59,116,2
0,35,97,0
0,64,116,1
0,52,63,29
0,55,63,3
0,59,63,1
0,64,63,2
0,52,123,3
0,52,116,2
0,55,123,0
0,55,116,2
0,59,123,0
0,38,102,1
0,59,116,0
0,64,123,0
0,64,116,2
0,52,121,1
0,81,127,1
0,55,121,0
0,59,121,2
0,35,58,0
0,64,121,1
0,35,97,7
0,52,127,9
0,52,82,3
0,79,127,1
0,55,127,0
0,55,82,0
0,59,127,0
0,59,82,2
0,64,127,0
0,64,82,3
0,52,74,27
0,52,114,4
0,55,74,0
0,77,127,0
0,55,114,0
0,59,74,0
0,38,102,1
0,59,114,0
0,64,74,0
0,64,114,1
0,52,116,5
0,76,127,3
0,55,116,1
0,59,116,0
0,64,116,2
0,69,102,6
0,72,91,6
0,57,77,4
0,60,77,0
0,65,77,0
0,53,118,0
0,57,118,0
0,77,127,0
0,35,97,2
0,60,118,1
0,65,118,1
0,77,102,3
0,53,114,3
0,53,123,1
0,57,114,1
0,57,123,1
0,60,114,0
0,38,102,1
0,60,123,1
0,65,114,0
0,65,123,0
0,53,112,4
0,77,127,3
0,57,112,0
0,60,112,1
0,65,112,1
0,53,107,13
0,57,107,2
0,60,107,1
0,35,97,1
0,65,107,1
0,53,123,3
0,53,114,3
0,57,123,0
0,57,114,1
0,60,123,0
0,38,102,0
0,60,114,1
0,65,123,0
0,65,114,2
0,53,123,2
0,57,123,2
0,60,123,2
0,65,123,3
0,35,97,35
0,53,118,21
0,57,118,2
0,60,118,2
0,65,118,2
0,53,123,5
0,57,123,1
0,38,102,0
0,60,123,1
0,65,123,2
0,53,102,2
0,79,127,3
0,57,102,0
0,60,102,0
0,35,58,0
0,65,102,1
0,53,114,8
0,57,114,2
0,60,114,2
0,35,97,0
0,65,114,0
0,77,127,3
0,53,127,46
0,53,121,2
0,57,127,0
0,76,127,0
0,57,121,1
0,60,127,0
0,38,102,1
0,60,121,2
0,65,127,0
0,65,121,0
0,53,93,5
0,74,127,4
0,57,93,0
0,60,93,0
0,65,93,6
0,67,98,2
0,72,98,2
0,55,77,4
0,64,77,0
0,60,77,1
0,52,118,1
0,55,118,1
0,76,127,0
0,60,118,0
0,35,97,1
0,76,102,1
0,64,118,0
0,52,112,56
0,52,123,2
0,55,112,1
0,55,123,1
0,60,112,0
0,38,102,1
0,60,123,1
0,64,112,0
0,64,123,0
0,52,118,10
0,55,118,2
0,60,118,2
0,64,118,3
0,35,97,23
0,52,123,5
0,77,127,3
0,52,87,0
0,55,123,1
0,55,87,0
0,60,123,0
0,60,87,2
0,64,123,0
0,64,87,2
0,76,127,6
0,52,121,0
0,55,121,1
0,38,102,0
0,60,121,1
0,64,121,3
0,52,100,0
0,74,127,1
0,55,100,1
0,60,100,2
0,64,100,2
0,67,99,6
0,71,98,19
0,59,77,1
0,55,77,0
0,62,77,1
0,50,118,0
0,55,118,2
0,59,118,2
0,35,112,0
0,67,118,1
0,74,102,0
0,35,44,32
0,50,112,0
0,50,114,2
0,55,112,0
0,59,112,1
0,35,80,0
0,55,114,1
0,59,114,1
0,67,112,0
0,67,114,2
0,50,121,5
0,55,121,1
0,31,96,1
0,59,121,1
0,35,103,0
0,67,121,0
0,38,112,8
0,76,127,0
0,35,112,0
0,50,123,1
0,55,123,3
0,59,123,1
0,35,105,0
0,67,123,1
0,50,60,3
0,38,90,0
0,50,127,1
0,55,60,0
0,74,127,1
0,59,60,1
0,38,117,0
0,55,127,1
0,59,127,0
0,67,60,0
0,67,127,0
0,50,107,4
0,55,107,1
0,59,107,1
0,67,107,3
0,60,102,3
0,55,102,0
0,64,102,1
0,52,123,0
0,72,127,1
0,55,123,0
0,36,105,0
0,35,112,1
0,60,123,1
0,49,67,0
0,64,123,0
0,42,35,33
0,52,116,13
0,52,125,2
0,55,116,1
0,55,125,1
0,60,116,0
0,38,102,1
0,42,85,0
0,60,125,0
0,64,116,0
0,64,125,2
0,52,118,4
0,55,118,3
0,72,127,1
0,60,118,0
0,42,37,1
0,64,118,0
0,31,101,4
0,35,112,1
0,42,67,0
0,52,116,42
0,55,116,2
0,60,116,1
0,42,34,2
0,64,116,1
0,52,65,15
0,52,125,2
0,55,65,0
0,55,125,2
0,60,65,0
0,38,102,1
0,42,69,0
0,60,125,1
0,64,65,0
0,64,125,0
0,52,107,3
0,55,107,3
0,60,107,1
0,42,33,2
0,64,107,1
0,52,109,0
0,55,109,2
0,36,109,1
0,60,109,0
0,35,112,1
0,42,73,0
0,64,109,0
0,52,61,25
0,55,61,5
0,60,61,1
0,64,61,0
0,42,34,0
0,52,125,7
0,52,123,2
0,55,125,0
0,55,123,2
0,60,125,0
0,38,102,1
0,42,72,0
0,60,123,1
0,64,125,0
0,64,123,2
0,52,107,13
0,55,107,2
0,36,100,1
0,60,107,1
0,35,73,0
0,42,38,1
0,64,107,0
0,72,127,31
0,31,104,1
0,35,112,0
0,42,74,0
0,52,123,6
0,52,97,2
0,74,127,1
0,55,123,0
0,55,97,1
0,60,123,0
0,42,32,1
0,60,97,1
0,64,123,0
0,64,97,1
0,52,67,3
0,52,121,2
0,55,67,0
0,36,102,1
0,76,127,0
0,60,67,1
0,38,102,0
0,42,69,1
0,55,121,0
0,60,121,1
0,64,67,0
0,64,121,0
0,52,123,0
0,77,127,2
0,55,123,1
0,60,123,1
0,42,35,2
0,64,123,0
0,59,102,2
0,55,102,0
0,64,102,0
0,52,121,0
0,55,121,1
0,40,104,1
0,79,127,1
0,59,121,0
0,35,112,1
0,42,73,1
0,64,121,0
0,42,34,10
0,52,125,41
0,52,121,2
0,55,125,0
0,59,125,2
0,38,102,0
0,42,72,0
0,55,121,1
0,59,121,0
0,64,125,0
0,64,121,1
0,52,111,8
0,55,111,3
0,79,127,1
0,59,111,0
0,64,111,1
0,42,38,0
0,35,112,31
0,35,112,1
0,42,74,0
0,52,116,31
0,55,116,2
0,59,116,1
0,42,32,2
0,64,116,0
0,52,118,6
0,52,127,2
0,55,118,0
0,55,127,2
0,59,118,0
0,38,102,1
0,42,69,0
0,59,127,0
0,64,118,0
0,64,127,1
0,52,100,11
0,55,100,3
0,59,100,1
0,42,35,1
0,64,100,0
0,52,127,4
0,40,102,2
0,55,127,0
0,59,127,1
0,35,112,0
0,42,73,1
0,64,127,0
0,52,57,28
0,55,57,2
0,59,57,2
0,64,57,2
0,42,34,0
0,52,114,2
0,52,121,2
0,55,114,0
0,55,121,2
0,59,114,0
0,38,102,1
0,42,72,0
0,59,121,0
0,64,114,0
0,64,121,2
0,52,121,2
0,55,121,2
0,40,100,1
0,81,127,0
0,59,121,1
0,35,73,0
0,42,38,0
