track,note,velocity,time
1,61,94,2672
1,58,92,0
1,66,90,0
1,54,98,0
1,42,101,0
1,49,107,0
1,52,105,152
1,45,92,0
1,61,107,0
1,57,92,0
1,64,99,0
1,69,103,0
1,47,82,112
1,54,110,0
1,66,92,0
1,63,98,0
1,71,101,0
1,59,88,0
1,42,107,84
1,54,98,0
1,66,98,0
1,61,110,0
1,58,104,0
1,49,107,0
1,66,79,96
1,54,98,0
1,58,88,0
1,61,90,0
1,49,116,0
1,42,94,0
1,61,101,116
1,57,88,0
1,64,99,0
1,69,92,0
1,52,97,0
1,45,97,0
1,47,87,80
1,54,107,0
1,59,81,0
1,66,90,0
1,63,92,0
1,71,85,0
1,42,101,112
1,49,110,0
1,66,92,0
1,58,92,0
1,61,94,0
1,54,94,0
1,61,98,420
1,66,82,0
1,58,90,0
1,58,60,8
1,61,60,0
1,66,86,32
1,58,86,0
1,61,86,0
1,61,90,1008
1,66,78,0
1,58,82,0
1,58,60,52
1,61,60,0
1,66,79,20
1,58,86,0
1,61,78,0
1,61,94,1016
1,66,86,0
1,58,79,0
1,58,58,8
1,61,58,0
1,66,74,24
1,61,94,0
1,58,86,0
1,61,94,968
1,66,88,0
1,58,74,0
1,58,59,36
1,61,59,0
1,66,79,4
1,58,74,0
1,61,74,0
1,61,94,976
1,66,90,0
1,58,84,0
1,58,58,28
1,61,58,0
1,66,82,24
1,58,88,0
1,61,92,0
1,66,94,1000
1,61,98,0
1,58,82,0
1,61,58,16
1,58,58,0
1,66,92,20
1,61,86,0
1,58,79,0
1,66,92,976
1,61,98,0
1,58,84,0
1,61,56,28
1,58,56,0
1,66,90,48
1,58,98,0
1,61,98,0
1,61,101,976
1,66,92,0
1,58,86,0
1,61,58,8
1,58,58,0
1,66,92,40
1,58,94,0
1,61,98,0
1,69,88,980
1,64,88,0
1,61,104,0
1,64,54,16
1,61,54,0
1,61,98,28
1,69,70,0
1,64,88,0
1,66,92,1036
1,63,101,0
1,71,87,0
1,66,58,28
1,63,58,0
1,63,96,48
1,71,80,0
1,66,88,0
1,69,88,1024
1,64,88,0
1,61,104,0
1,64,59,16
1,61,59,0
1,61,98,28
1,69,70,0
1,64,88,0
1,66,92,1036
1,63,101,0
1,71,87,0
1,66,59,28
1,63,59,0
1,63,96,48
1,71,80,0
1,66,88,0
1,69,88,1024
1,64,88,0
1,61,104,0
1,64,57,16
1,61,57,0
1,61,98,28
1,69,70,0
1,64,88,0
1,66,92,1036
1,63,101,0
1,71,87,0
1,66,56,28
1,63,56,0
1,63,96,48
1,71,80,0
1,66,88,0
1,61,98,7168
1,66,82,0
1,58,90,0
1,58,58,8
1,61,58,0
1,66,86,32
1,58,86,0
1,61,86,0
1,61,90,1008
1,66,78,0
1,58,82,0
1,58,58,48
1,61,58,0
1,66,79,24
1,58,86,0
1,61,78,0
1,61,94,1016
1,66,86,0
1,58,79,0
1,58,57,4
1,61,57,0
1,66,74,28
1,61,94,0
1,58,86,0
1,61,94,968
1,66,88,0
1,58,74,0
1,61,57,28
1,58,57,4
1,66,79,12
1,58,74,0
1,61,74,0
1,61,94,976
1,66,90,0
1,58,84,0
1,58,57,28
1,61,57,0
1,66,82,24
1,58,88,0
1,61,92,0
1,66,94,1000
1,61,98,0
1,58,82,0
1,58,57,20
1,61,57,0
1,66,92,16
1,61,86,0
1,58,79,0
1,66,92,976
1,61,98,0
1,58,84,0
1,58,57,32
1,61,57,0
1,66,90,44
1,58,98,0
1,61,98,0
1,61,101,976
1,66,92,0
1,58,86,0
1,58,56,12
1,61,56,0
1,66,92,36
1,58,94,0
1,61,98,0
1,69,88,980
1,64,88,0
1,61,104,0
1,61,58,20
1,64,58,0
1,61,98,24
1,69,70,0
1,64,88,0
1,66,92,1036
1,63,101,0
1,71,87,0
1,63,56,32
1,66,56,0
1,63,96,44
1,71,80,0
1,66,88,0
1,69,88,1024
1,64,88,0
1,61,104,0
1,61,59,20
1,64,59,0
1,61,98,24
1,69,70,0
1,64,88,0
1,66,92,1036
1,63,101,0
1,71,87,0
1,63,58,32
1,66,58,0
1,63,96,44
1,71,80,0
1,66,88,0
1,69,88,1024
1,64,88,0
1,61,104,0
1,61,59,20
1,64,59,0
1,61,98,24
1,69,70,0
1,64,88,0
1,66,92,1036
1,63,101,0
1,71,87,0
1,63,56,32
1,66,56,0
1,63,96,44
1,71,80,0
1,66,88,0
1,61,101,7168
1,58,92,0
1,66,82,0
1,58,56,36
1,61,56,0
1,66,76,44
1,58,79,0
1,61,94,0
1,61,110,1060
1,69,87,0
1,64,91,0
1,61,60,16
1,64,60,0
1,61,92,32
1,69,80,0
1,64,89,0
1,63,96,976
1,66,101,0
1,71,83,0
1,63,58,28
1,66,58,0
1,71,84,44
1,63,92,0
1,66,90,0
1,61,101,1016
1,58,92,0
1,66,82,0
1,58,58,36
1,61,58,0
1,66,76,44
1,58,79,0
1,61,94,0
1,61,101,1060
1,58,92,0
1,66,82,0
1,58,56,36
1,61,56,0
1,66,76,44
1,58,79,0
1,61,94,0
1,61,110,1060
1,69,87,0
1,64,91,0
1,61,58,16
1,64,58,0
1,61,92,32
1,69,80,0
1,64,89,0
1,63,96,976
1,66,101,0
1,71,83,0
1,63,56,28
1,66,56,0
1,71,84,44
1,63,92,0
1,66,90,0
1,61,101,1016
1,58,92,0
1,66,82,0
1,58,55,36
1,61,55,0
1,66,76,44
1,58,79,0
1,61,94,0
1,61,101,1060
1,58,92,0
1,66,82,0
1,58,61,36
1,61,61,0
1,66,76,44
1,58,79,0
1,61,94,0
1,61,110,1060
1,69,87,0
1,64,91,0
1,61,57,16
1,64,57,0
1,61,92,32
1,69,80,0
1,64,89,0
1,63,96,976
1,66,101,0
1,71,83,0
1,63,54,28
1,66,54,0
1,71,84,44
1,63,92,0
1,66,90,0
1,61,101,1016
1,58,92,0
1,66,82,0
1,61,59,36
1,58,59,0
1,66,76,44
1,58,79,0
1,61,94,0
1,61,101,1060
1,58,92,0
1,66,82,0
1,58,58,36
1,61,58,0
1,66,76,44
1,58,79,0
1,61,94,0
1,61,110,1060
1,69,87,0
1,64,91,0
1,61,57,16
1,64,57,0
1,61,92,32
1,69,80,0
1,64,89,0
1,63,96,976
1,66,101,0
1,71,83,0
1,63,58,28
1,66,58,0
1,71,84,44
1,63,92,0
1,66,90,0
1,61,101,1016
1,58,92,0
1,66,82,0
1,58,58,36
1,61,58,0
1,66,76,44
1,58,79,0
1,61,94,0
1,66,82,1060
1,61,98,0
1,58,90,0
1,58,58,4
1,61,58,0
1,66,86,36
1,58,86,0
1,61,86,0
1,61,90,1008
1,66,78,0
1,58,82,0
1,58,58,48
1,61,58,0
1,66,79,24
1,58,86,0
1,61,78,0
1,61,94,1016
1,66,86,0
1,58,79,0
1,58,56,4
1,61,56,4
1,66,74,24
1,61,94,0
1,58,86,0
1,61,94,968
1,66,88,0
1,58,74,0
1,58,58,32
1,61,58,0
1,66,79,8
1,58,74,0
1,61,74,0
1,61,98,976
1,66,82,0
1,58,90,0
1,58,57,4
1,61,57,0
1,66,86,36
1,58,86,0
1,61,86,0
1,61,90,1008
1,66,78,0
1,58,82,0
1,58,53,48
1,61,53,0
1,66,79,24
1,58,86,0
1,61,78,0
1,61,94,1016
1,66,86,0
1,58,79,0
1,58,56,4
1,61,56,0
1,66,74,28
1,61,94,0
1,58,86,0
1,61,94,968
1,66,88,0
1,58,74,0
1,58,56,32
1,61,56,0
1,66,79,8
1,58,74,0
1,61,74,0
1,61,98,976
1,66,82,0
1,58,90,0
1,58,58,4
1,61,58,0
1,66,86,36
1,58,86,0
1,61,86,0
1,61,90,1008
1,66,78,0
1,58,82,0
1,58,56,48
1,61,56,0
1,66,79,24
1,58,86,0
1,61,78,0
1,61,94,1016
1,66,86,0
1,58,79,0
1,58,58,4
1,61,58,0
1,66,74,28
1,61,94,0
1,58,86,0
1,61,94,968
1,66,88,0
1,58,74,0
1,58,59,32
1,61,59,0
1,66,79,8
1,58,74,0
1,61,74,0
1,69,88,976
1,64,88,0
1,61,104,0
1,61,59,20
1,64,59,0
1,61,98,24
1,69,70,0
1,64,88,0
1,66,92,1036
1,63,101,0
1,71,87,0
1,63,54,32
1,66,54,0
1,63,96,44
1,71,80,0
1,66,88,0
1,69,88,1024
1,64,88,0
1,61,104,0
1,61,58,20
1,64,58,0
1,61,98,24
1,69,70,0
1,64,88,0
1,66,92,1036
1,63,101,0
1,71,87,0
1,63,76,32
1,66,90,0
1,63,96,44
1,71,80,0
1,66,88,0
1,69,88,1024
1,64,88,0
1,61,104,0
1,61,58,20
1,64,58,0
1,61,98,24
1,69,70,0
1,64,88,0
1,66,92,1036
1,63,101,0
1,71,87,0
1,63,58,32
1,66,58,0
1,63,96,44
1,71,80,0
1,66,88,0
1,69,88,7168
1,64,88,0
1,61,104,0
1,61,58,20
1,64,58,0
1,61,98,24
1,69,70,0
1,64,88,0
1,66,92,1036
1,63,101,0
1,71,87,0
1,63,56,32
1,66,56,0
1,63,96,44
1,71,80,0
1,66,88,0
1,69,88,1024
1,64,88,0
1,61,104,0
1,61,59,20
1,64,59,0
1,61,98,24
1,69,70,0
1,64,88,0
1,66,92,32
1,63,101,0
1,71,87,0
1,63,55,32
1,66,55,0
1,63,96,44
1,71,80,0
1,66,88,0
1,69,88,20
1,64,88,0
1,61,104,0
1,61,58,20
1,64,58,0
1,61,98,24
1,69,70,0
1,64,88,0
1,66,92,40
1,63,101,0
1,71,87,0
1,63,59,32
1,66,59,0
1,63,96,44
1,71,80,0
1,66,88,0
1,61,88,392
1,58,104,0
1,66,88,0
1,58,58,20
1,61,58,0
1,66,70,24
1,61,88,0
1,58,98,0
1,78,98,460
1,73,116,0
1,70,119,0
2,30,127,2648
2,30,91,116
2,30,127,144
2,30,105,112
2,30,127,120
2,30,117,116
2,30,121,120
2,33,117,128
2,33,118,112
2,33,110,100
2,33,117,120
2,33,107,112
2,33,122,112
2,33,113,116
2,33,118,116
2,35,114,120
2,35,120,116
2,35,109,112
2,35,113,112
2,35,110,100
2,35,116,108
2,35,110,100
2,35,117,112
2,30,115,104
2,30,121,112
2,30,123,116
2,30,115,136
2,30,127,112
2,30,105,148
2,25,117,96
2,28,113,56
2,30,107,92
2,30,127,96
2,30,104,116
2,30,127,120
2,30,105,112
2,30,127,128
2,30,127,120
2,28,118,132
2,33,120,136
2,33,116,112
2,33,115,100
2,33,111,108
2,33,117,100
2,33,120,116
2,28,113,100
2,33,113,108
2,35,111,100
2,35,106,104
2,35,108,96
2,35,103,116
2,35,103,108
2,35,122,124
2,33,117,96
2,28,125,112
2,30,108,96
2,30,119,76
2,30,112,108
2,30,117,128
2,30,105,116
2,30,127,128
2,30,108,120
2,30,121,124
2,28,116,124
2,30,127,96
2,30,119,52
2,30,127,172
2,30,127,148
2,25,114,12
2,28,127,36
2,30,127,60
2,30,127,28
2,30,127,156
2,30,127,148
2,25,127,36
2,28,127,40
2,30,127,44
2,30,127,60
2,30,127,180
2,30,127,164
2,25,127,28
2,28,127,52
2,30,127,48
2,30,127,40
2,30,127,176
2,30,127,148
2,25,125,44
2,28,125,44
2,30,127,32
2,30,125,44
2,30,127,168
2,30,127,168
2,25,121,44
2,28,125,32
2,30,127,36
2,30,127,52
2,30,127,164
2,30,127,168
2,25,125,60
2,28,125,76
2,30,127,64
2,30,127,44
2,30,127,204
2,30,127,160
2,25,117,52
2,28,127,68
2,30,127,64
2,30,127,64
2,30,127,184
2,30,127,168
2,30,127,108
2,28,127,48
2,33,127,8
2,33,113,48
2,33,127,160
2,28,127,44
2,28,118,84
2,33,127,44
2,28,125,44
2,35,127,76
2,35,114,68
2,35,118,160
2,35,124,84
2,30,121,60
2,30,123,108
2,28,124,60
2,33,127,80
2,33,110,48
2,33,127,160
2,28,125,32
2,28,120,84
2,33,127,36
2,28,121,36
2,35,121,92
2,35,109,52
2,35,120,192
2,35,118,92
2,30,119,76
2,30,121,100
2,28,118,56
2,33,127,64
2,33,115,64
2,33,127,160
2,28,122,32
2,28,113,104
2,33,127,52
2,28,122,44
2,35,122,96
2,35,110,64
2,35,116,172
2,35,127,124
2,33,125,44
2,28,125,76
2,29,127,32
2,30,125,60
2,30,117,60
2,30,127,184
2,30,127,160
2,30,117,192
2,30,125,180
2,30,119,172
2,30,125,180
2,30,127,180
2,30,127,192
2,30,127,192
2,30,127,176
2,30,125,172
2,30,127,168
2,30,127,168
2,30,127,176
2,28,127,196
2,30,127,24
2,30,119,56
2,30,127,176
2,30,127,152
2,25,114,12
2,28,127,36
2,30,127,56
2,30,127,28
2,30,127,160
2,30,127,156
2,25,127,32
2,28,127,40
2,30,127,44
2,30,127,60
2,30,127,184
2,30,127,160
2,25,127,36
2,28,127,48
2,30,127,52
2,30,127,40
2,30,127,176
2,30,127,148
2,25,125,44
2,28,125,44
2,30,127,36
2,30,125,44
2,30,127,168
2,30,127,168
2,25,121,44
2,28,125,36
2,30,127,40
2,30,127,48
2,30,127,164
2,30,127,168
2,25,125,60
2,28,125,76
2,30,127,64
2,30,127,40
2,30,127,200
2,30,127,160
2,25,117,52
2,28,127,64
2,30,127,60
2,30,127,60
2,30,127,184
2,30,127,168
2,30,127,108
2,28,127,48
2,33,127,8
2,33,113,52
2,33,127,156
2,28,127,44
2,28,118,92
2,33,127,44
2,28,125,40
2,35,127,80
2,35,114,72
2,35,118,156
2,35,124,84
2,30,121,64
2,30,123,112
2,28,124,64
2,33,127,76
2,33,110,44
2,33,127,160
2,28,125,24
2,28,120,84
2,33,127,32
2,28,121,40
2,35,121,96
2,35,109,52
2,35,120,192
2,35,118,96
2,30,119,80
2,30,121,104
2,28,118,64
2,33,127,64
2,33,115,68
2,33,127,156
2,28,122,24
2,28,113,104
2,33,127,52
2,28,122,48
2,35,122,96
2,35,110,64
2,35,116,172
2,35,127,120
2,33,125,44
2,28,125,80
2,29,127,32
2,30,127,60
2,30,127,104
2,30,125,84
2,30,121,104
2,30,127,100
2,30,119,100
2,30,127,92
2,30,127,112
2,30,127,92
2,30,127,100
2,30,125,88
2,30,127,112
2,30,123,88
2,30,127,116
2,30,123,96
2,30,127,120
2,30,127,96
2,30,127,104
2,30,123,96
2,30,127,108
2,30,119,76
2,30,127,104
2,30,117,76
2,30,125,120
2,30,125,96
2,30,127,96
2,30,119,80
2,42,127,108
2,40,127,52
2,35,117,56
2,36,127,12
2,37,127,64
2,30,127,20
2,30,127,60
2,25,127,32
2,30,127,64
2,30,127,108
2,30,127,84
2,28,127,60
2,33,127,36
2,33,127,52
2,28,122,28
2,33,127,24
2,33,127,124
2,28,121,32
2,33,127,64
2,35,121,28
2,35,127,68
2,35,110,92
2,30,125,24
2,35,127,68
2,33,127,48
2,28,125,52
2,29,127,64
2,30,127,32
2,30,127,44
2,25,127,20
2,30,127,56
2,30,127,112
2,25,125,40
2,28,127,60
2,30,127,52
2,30,127,64
2,25,125,32
2,30,127,60
2,30,127,132
2,30,127,64
2,28,121,8
2,33,127,188
2,33,113,52
2,28,127,28
2,33,127,36
2,33,115,100
2,28,121,32
2,33,127,48
2,35,121,32
2,35,118,56
2,35,117,84
2,30,127,48
2,35,127,88
2,33,127,44
2,28,125,52
2,29,127,64
2,30,127,28
2,30,127,52
2,25,123,48
2,30,127,32
2,30,127,128
2,30,112,80
2,25,127,24
2,30,127,84
2,30,127,64
2,25,127,28
2,30,127,44
2,30,127,132
2,30,127,108
2,28,122,24
2,33,124,40
2,33,127,80
2,28,127,28
2,33,127,16
2,33,118,96
2,28,127,16
2,33,127,40
2,35,118,28
2,35,127,76
2,30,127,48
2,35,127,56
2,33,125,68
2,28,127,44
2,29,127,80
2,30,127,60
2,30,127,44
2,25,125,64
2,30,127,36
2,30,127,100
2,25,127,32
2,28,127,24
2,30,127,56
2,30,115,76
2,25,127,60
2,30,127,36
2,30,127,128
2,30,127,92
2,28,120,36
2,33,125,32
2,33,124,44
2,28,114,36
2,33,127,16
2,33,127,112
2,28,127,24
2,33,127,84
2,35,125,56
2,35,127,68
2,30,100,64
2,35,127,8
