track,note,velocity,time
1,43,106,1536
1,43,91,86
1,43,112,150
1,43,115,142
1,43,99,108
1,45,104,112
1,45,106,112
1,45,112,134
1,40,109,192
1,45,93,32
1,40,106,192
1,43,95,40
1,43,87,144
1,43,106,144
1,43,112,136
1,43,90,94
1,45,99,112
1,45,90,78
1,45,112,136
1,43,97,152
1,43,102,132
1,43,102,134
1,43,93,118
1,43,97,82
1,45,99,112
1,45,97,102
1,45,104,126
1,40,106,192
1,45,95,30
1,40,109,192
1,43,95,22
1,43,91,128
1,43,97,120
1,43,109,104
1,43,90,80
1,45,95,86
1,45,91,94
1,45,99,114
1,43,104,188
1,43,80,90
1,43,90,132
1,43,99,132
1,45,85,102
1,45,88,120
1,45,97,126
1,43,95,124
1,43,87,144
1,43,95,138
1,43,102,126
1,40,95,192
1,43,95,22
1,45,88,64
1,45,87,98
1,45,95,134
1,43,93,150
1,43,95,138
1,43,95,136
1,43,97,128
1,43,87,100
1,45,91,100
1,45,90,124
1,45,109,128
1,40,99,384
1,45,88,28
1,43,90,72
1,43,95,152
1,43,97,138
1,43,106,128
1,43,97,108
1,45,99,114
1,45,88,120
1,45,109,144
1,45,109,122
1,45,115,140
1,43,97,110
1,43,93,168
1,43,104,136
1,43,112,130
1,43,97,92
1,45,99,114
1,45,95,122
1,45,106,128
1,40,112,192
1,45,90,20
1,40,104,192
1,43,93,28
1,43,95,168
1,43,95,136
1,43,104,144
1,43,88,104
1,45,97,112
1,45,97,104
1,45,109,132
1,45,115,126
1,45,99,72
1,43,106,112
1,43,95,120
1,43,99,130
1,43,109,128
1,43,88,108
1,45,93,88
1,45,102,120
1,45,104,136
1,40,118,192
1,45,95,30
1,40,106,192
1,43,95,4
1,43,99,146
1,43,95,122
1,43,106,118
1,43,97,74
1,45,106,112
1,45,91,106
1,45,106,118
1,45,106,116
1,45,109,88
1,31,104,72
1,31,104,132
1,31,115,120
1,31,112,124
1,31,102,72
1,33,109,108
1,33,97,118
1,33,102,128
1,33,95,108
1,31,102,104
1,31,106,110
1,31,99,126
1,31,104,120
1,33,99,176
1,33,90,106
1,33,99,118
1,33,99,128
1,31,106,104
1,31,90,102
1,31,109,132
1,31,112,136
1,33,106,114
1,33,102,120
1,33,109,132
1,33,97,132
1,31,104,104
1,31,106,120
1,31,112,132
1,31,112,132
1,31,106,102
1,33,112,102
1,33,102,116
1,33,112,128
1,33,115,136
1,33,112,112
1,43,104,92
1,43,80,90
1,43,90,132
1,43,99,132
1,45,85,102
1,45,88,120
1,45,97,126
1,43,95,124
1,43,87,144
1,43,95,138
1,43,102,126
1,40,95,192
1,43,95,22
1,45,88,64
1,45,87,98
1,45,95,134
1,43,93,150
1,43,95,138
1,43,95,136
1,43,97,128
1,43,87,100
1,45,91,100
1,45,90,124
1,45,109,128
1,40,99,384
1,45,88,28
1,43,90,72
1,43,95,152
1,43,97,138
1,43,106,128
1,43,97,108
1,45,99,114
1,45,88,120
1,45,109,144
1,45,109,122
1,45,115,140
1,43,97,110
1,43,93,168
1,43,104,136
1,43,112,130
1,43,97,92
1,45,99,114
1,45,95,122
1,45,106,128
1,40,112,192
1,45,90,20
1,40,104,192
1,43,93,28
1,43,95,168
1,43,95,136
1,43,104,144
1,43,88,104
1,45,97,112
1,45,97,104
1,45,109,132
1,45,115,126
1,45,99,72
1,43,106,112
1,43,95,120
1,43,99,130
1,43,109,128
1,43,88,108
1,45,93,88
1,45,102,120
1,45,104,136
1,40,118,192
1,45,95,30
1,40,106,192
1,43,95,4
1,43,99,146
1,43,95,122
1,43,106,118
1,43,97,74
1,45,106,112
1,45,91,106
1,45,106,118
1,45,106,116
1,45,109,88
1,31,104,72
1,31,104,132
1,31,115,120
1,31,112,124
1,31,102,72
1,33,109,108
1,33,97,118
1,33,102,128
1,33,95,108
1,31,102,104
1,31,106,110
1,31,99,126
1,31,104,120
1,33,99,176
1,33,90,106
1,33,99,118
1,33,99,128
1,31,106,104
1,31,90,102
1,31,109,132
1,31,112,136
1,33,106,114
1,33,102,120
1,33,109,132
1,33,97,132
1,31,104,104
1,31,106,120
1,31,112,132
1,31,112,132
1,31,106,102
1,33,112,102
1,33,102,116
1,33,112,128
1,33,115,136
1,33,112,112
1,31,104,92
1,31,104,132
1,31,115,120
1,31,112,124
1,31,102,72
1,33,109,108
1,33,97,118
1,33,102,128
1,33,95,108
1,31,102,104
1,31,106,110
1,31,99,126
1,31,104,120
1,33,99,176
1,33,90,106
1,33,99,118
1,33,99,128
1,31,106,104
1,31,90,102
1,31,109,132
1,31,112,136
1,33,106,114
1,33,102,120
1,33,109,132
1,33,97,132
1,31,104,104
1,31,106,120
1,31,112,132
1,31,112,132
1,31,106,102
1,33,112,102
1,33,102,116
1,33,112,128
1,33,115,136
1,33,112,112
1,28,109,92
1,28,112,160
1,40,68,132
1,40,104,98
1,28,109,192
1,40,102,24
1,33,115,4
1,33,115,166
1,33,118,130
1,33,122,136
1,28,106,152
1,28,112,116
1,40,106,192
1,28,112,186
1,40,106,10
1,33,118,8
1,33,112,164
1,33,115,126
1,33,118,134
1,28,112,232
1,28,112,136
1,40,104,10
1,28,115,192
1,40,106,130
1,33,115,38
1,33,115,118
1,33,118,192
1,33,122,122
1,33,115,104
1,33,106,116
1,33,115,98
1,33,104,110
1,33,112,114
1,33,106,62
1,38,109,94
1,33,115,12
1,38,118,10
1,33,109,192
1,38,112,20
1,33,115,6
1,31,104,52
1,31,104,132
1,31,115,120
1,31,112,124
1,31,102,72
1,33,109,108
1,33,97,118
1,33,102,128
1,33,95,108
1,31,102,104
1,31,106,110
1,31,99,126
1,31,104,120
1,33,99,176
1,33,90,106
1,33,99,118
1,33,99,128
1,31,106,104
1,31,90,102
1,31,109,132
1,31,112,136
1,33,106,114
1,33,102,120
1,33,109,132
1,33,97,132
1,31,104,104
1,31,106,120
1,31,112,132
1,31,112,132
1,31,106,102
1,33,112,102
1,33,102,116
1,33,112,128
1,33,115,136
1,33,112,112
1,31,104,92
1,31,104,132
1,31,115,120
1,31,112,124
1,31,102,72
1,33,109,108
1,33,97,118
1,33,102,128
1,33,95,108
1,31,102,104
1,31,106,110
1,31,99,126
1,31,104,120
1,33,99,176
1,33,90,106
1,33,99,118
1,33,99,128
1,31,106,104
1,31,90,102
1,31,109,132
1,31,112,136
1,33,106,114
1,33,102,120
1,33,109,132
1,33,97,132
1,31,104,104
1,31,106,120
1,31,112,132
1,31,112,132
1,31,106,102
1,33,112,102
1,33,102,116
1,33,112,128
1,33,115,136
1,33,112,112
1,31,104,92
1,31,104,132
1,31,115,120
1,31,112,124
1,31,102,72
1,33,109,108
1,33,97,118
1,33,102,128
1,33,95,108
1,31,102,104
1,31,106,110
1,31,99,126
1,31,104,120
1,33,99,176
1,33,90,106
1,33,99,118
1,33,99,128
1,31,106,104
1,31,90,102
1,31,109,132
1,31,112,136
1,33,106,114
1,33,102,120
1,33,109,132
1,33,97,132
1,31,104,104
1,31,106,120
1,31,112,132
1,31,112,132
1,31,106,102
1,33,112,102
1,33,102,116
1,33,112,128
1,33,115,136
1,33,112,112
1,31,124,92
2,55,88,1536
2,43,85,0
2,50,95,0
2,66,109,0
2,59,102,0
2,62,109,0
2,59,79,136
2,62,90,0
2,66,89,0
2,62,104,148
2,66,105,0
2,59,91,0
2,66,97,8
2,62,90,0
2,59,67,0
2,67,90,60
2,64,93,0
2,60,87,0
2,57,71,0
2,52,79,0
2,45,71,0
2,57,102,200
2,60,87,62
2,64,97,0
2,67,90,0
2,57,88,144
2,64,104,64
2,60,88,0
2,67,95,0
2,62,93,38
2,59,85,0
2,66,97,0
2,43,84,0
2,55,72,0
2,50,80,0
2,66,73,148
2,62,78,0
2,59,63,0
2,66,101,8
2,62,102,0
2,59,91,0
2,55,91,8
2,66,89,120
2,62,88,0
2,59,65,0
2,60,78,34
2,64,85,0
2,67,79,0
2,52,78,0
2,57,76,0
2,45,78,0
2,67,84,128
2,60,75,0
2,64,84,0
2,60,90,126
2,67,91,0
2,64,99,0
2,57,84,116
2,52,79,0
2,64,102,124
2,60,91,0
2,67,95,0
2,66,97,54
2,62,97,0
2,59,90,0
2,43,72,0
2,55,71,0
2,50,81,0
2,62,80,152
2,66,80,0
2,59,68,0
2,66,97,140
2,62,104,0
2,59,90,0
2,59,93,114
2,62,106,0
2,66,101,0
2,43,80,70
2,55,73,0
2,50,78,0
2,66,84,4
2,59,64,0
2,62,85,0
2,60,84,24
2,64,91,0
2,45,84,0
2,67,84,0
2,52,85,0
2,57,80,0
2,67,70,108
2,60,63,0
2,64,72,0
2,60,83,126
2,64,91,0
2,67,87,0
2,45,78,136
2,52,83,0
2,57,79,0
2,64,99,0
2,60,90,0
2,67,91,0
2,66,94,74
2,62,93,0
2,59,84,0
2,43,79,0
2,50,74,0
2,55,69,0
2,62,81,110
2,59,74,0
2,66,80,0
2,66,105,24
2,62,104,0
2,59,85,0
2,43,87,32
2,55,83,0
2,50,90,0
2,66,97,80
2,62,95,0
2,59,79,0
2,60,85,88
2,45,71,0
2,64,87,0
2,52,78,0
2,57,79,0
2,67,77,0
2,67,85,102
2,64,93,0
2,60,85,0
2,60,93,124
2,64,106,0
2,67,93,0
2,45,81,136
2,57,80,0
2,52,88,0
2,64,106,2
2,60,95,0
2,67,95,0
2,43,97,112
2,50,88,192
2,55,93,192
2,66,105,192
2,62,104,0
2,59,91,0
2,45,90,40
2,52,99,192
2,57,99,192
2,60,97,192
2,64,112,0
2,67,99,0
2,43,93,100
2,50,90,192
2,55,95,192
2,62,97,192
2,69,102,0
2,66,109,0
2,45,91,48
2,52,95,192
2,57,95,192
2,64,109,192
2,60,99,0
2,67,97,0
2,43,97,160
2,50,88,192
2,55,93,192
2,66,105,192
2,62,104,0
2,59,91,0
2,45,90,40
2,52,99,192
2,57,99,192
2,60,97,192
2,64,112,0
2,67,99,0
2,43,93,100
2,50,90,192
2,55,95,192
2,62,97,192
2,69,102,0
2,66,109,0
2,45,91,48
2,52,95,192
2,57,95,192
2,64,109,192
2,60,99,0
2,67,97,0
2,43,97,160
2,50,88,192
2,55,93,192
2,66,105,192
2,62,104,0
2,59,91,0
2,45,90,40
2,52,99,192
2,57,99,192
2,60,97,192
2,64,112,0
2,67,99,0
2,43,93,100
2,50,90,192
2,55,95,192
2,62,97,192
2,69,102,0
2,66,109,0
2,45,91,48
2,52,95,192
2,57,95,192
2,64,109,192
2,60,99,0
2,67,97,0
2,43,97,160
2,50,88,192
2,55,93,192
2,66,105,192
2,62,104,0
2,59,91,0
2,45,90,40
2,52,99,192
2,57,99,192
2,60,97,192
2,64,112,0
2,67,99,0
2,43,93,100
2,50,90,192
2,55,95,192
2,62,97,192
2,69,102,0
2,66,109,0
2,45,91,48
2,52,95,192
2,57,95,192
2,64,109,192
2,60,99,0
2,67,97,0
2,43,97,160
2,50,88,192
2,55,93,192
2,66,105,192
2,62,104,0
2,59,91,0
2,45,90,40
2,52,99,192
2,57,99,192
2,60,97,192
2,64,112,0
2,67,99,0
2,43,93,100
2,50,90,192
2,55,95,192
2,62,97,192
2,69,102,0
2,66,109,0
2,45,91,48
2,52,95,192
2,57,95,192
2,64,109,192
2,60,99,0
2,67,97,0
2,43,97,160
2,50,88,192
2,55,93,192
2,66,105,192
2,62,104,0
2,59,91,0
2,45,90,40
2,52,99,192
2,57,99,192
2,60,97,192
2,64,112,0
2,67,99,0
2,43,93,100
2,50,90,192
2,55,95,192
2,62,97,192
2,69,102,0
2,66,109,0
2,45,91,48
2,52,95,192
2,57,95,192
2,64,109,192
2,60,99,0
2,67,97,0
2,43,97,160
2,50,88,192
2,55,93,192
2,66,105,192
2,62,104,0
2,59,91,0
2,45,90,40
2,52,99,192
2,57,99,192
2,60,97,192
2,64,112,0
2,67,99,0
2,43,93,100
2,50,90,192
2,55,95,192
2,62,97,192
2,69,102,0
2,66,109,0
2,45,91,48
2,52,95,192
2,57,95,192
2,64,109,192
2,60,99,0
2,67,97,0
2,43,97,160
2,50,88,192
2,55,93,192
2,66,105,192
2,62,104,0
2,59,91,0
2,45,90,40
2,52,99,192
2,57,99,192
2,60,97,192
2,64,112,0
2,67,99,0
2,43,93,100
2,50,90,192
2,55,95,192
2,62,97,192
2,69,102,0
2,66,109,0
2,45,91,48
2,52,95,192
2,57,95,192
2,64,109,192
2,60,99,0
2,67,97,0
2,43,97,160
2,50,88,192
2,55,93,192
2,66,105,192
2,62,104,0
2,59,91,0
2,45,90,40
2,52,99,192
2,57,99,192
2,60,97,192
2,64,112,0
2,67,99,0
2,43,93,100
2,50,90,192
2,55,95,192
2,62,97,192
2,69,102,0
2,66,109,0
2,45,91,48
2,52,95,192
2,57,95,192
2,64,109,192
2,60,99,0
2,67,97,0
2,43,97,160
2,50,88,192
2,55,93,192
2,66,105,192
2,62,104,0
2,59,91,0
2,45,90,40
2,52,99,192
2,57,99,192
2,60,97,192
2,64,112,0
2,67,99,0
2,43,93,100
2,50,90,192
2,55,95,192
2,62,97,192
2,69,102,0
2,66,109,0
2,45,91,48
2,52,95,192
2,57,95,192
2,64,109,192
2,60,99,0
2,67,97,0
2,43,97,160
2,50,88,192
2,55,93,192
2,66,105,192
2,62,104,0
2,59,91,0
2,45,90,40
2,52,99,192
2,57,99,192
2,60,97,192
2,64,112,0
2,67,99,0
2,43,93,100
2,50,90,192
2,55,95,192
2,62,97,192
2,69,102,0
2,66,109,0
2,45,91,48
2,52,95,192
2,57,95,192
2,64,109,192
2,60,99,0
2,67,97,0
2,43,97,160
2,50,88,192
2,55,93,192
2,66,105,192
2,62,104,0
2,59,91,0
2,45,90,40
2,52,99,192
2,57,99,192
2,60,97,192
2,64,112,0
2,67,99,0
2,43,93,100
2,50,90,192
2,55,95,192
2,62,97,192
2,69,102,0
2,66,109,0
2,45,91,48
2,52,95,192
2,57,95,192
2,64,109,192
2,60,99,0
2,67,97,0
2,43,97,160
2,50,88,192
2,55,93,192
2,66,105,192
2,62,104,0
2,59,91,0
2,45,90,40
2,52,99,192
2,57,99,192
2,60,97,192
2,64,112,0
2,67,99,0
2,43,93,100
2,50,90,192
2,55,95,192
2,62,97,192
2,69,102,0
2,66,109,0
2,45,91,48
2,52,95,192
2,57,95,192
2,64,109,192
2,60,99,0
2,67,97,0
2,43,97,160
2,50,88,192
2,55,93,192
2,66,105,192
2,62,104,0
2,59,91,0
2,45,90,40
2,52,99,192
2,57,99,192
2,60,97,192
2,64,112,0
2,67,99,0
2,43,93,100
2,50,90,192
2,55,95,192
2,62,97,192
2,69,102,0
2,66,109,0
2,45,91,48
2,52,95,192
2,57,95,192
2,64,109,192
2,60,99,0
2,67,97,0
2,71,106,160
2,62,104,0
2,67,115,0
2,52,106,0
2,59,104,0
2,55,97,384
2,59,43,0
2,62,79,94
2,71,81,0
2,67,88,0
2,71,97,128
2,67,106,0
2,62,93,0
2,62,104,140
2,67,112,0
2,71,104,0
2,52,77,154
2,45,87,4
2,49,51,0
2,55,87,38
2,64,87,0
2,61,86,0
2,55,93,106
2,64,95,0
2,61,97,0
2,52,85,58
2,61,105,64
2,55,102,0
2,64,99,0
2,52,97,192
2,55,87,106
2,61,94,0
2,64,90,0
2,55,88,102
2,61,94,0
2,64,95,0
2,52,95,28
2,62,91,0
2,55,90,0
2,67,99,0
2,59,88,0
2,71,91,0
2,67,106,140
2,62,95,0
2,71,99,0
2,59,115,160
2,55,118,0
2,52,112,0
2,67,99,150
2,71,90,0
2,62,87,0
2,67,109,138
2,71,97,0
2,62,93,0
2,67,106,114
2,62,91,0
2,71,97,0
2,52,93,108
2,55,88,16
2,64,93,0
2,61,97,0
2,45,97,0
2,64,95,106
2,61,97,0
2,55,88,0
2,59,97,30
2,62,99,0
2,64,87,0
2,55,93,102
2,57,93,0
2,61,97,0
2,64,93,0
2,45,93,96
2,55,97,74
2,61,97,0
2,64,90,0
2,52,99,192
2,61,64,0
2,64,75,0
2,71,97,136
2,62,99,0
2,52,115,0
