track,note,velocity,time
0,64,102,1
0,76,102,0
0,71,80,8
0,59,58,1
0,64,69,6
0,76,91,3
0,62,67,178
0,74,89,1
0,60,68,3
0,72,90,0
0,59,62,193
0,71,84,2
0,60,64,179
0,72,86,0
0,76,100,280
0,50,102,1
0,57,102,0
0,66,102,0
0,78,102,0
0,35,96,5
0,38,91,0
0,50,85,0
0,51,51,0
0,54,85,0
0,57,85,0
0,62,85,0
0,78,98,2
0,35,0,2
0,74,90,1
0,50,0,13
0,57,0,0
0,66,0,0
0,78,0,0
0,52,102,1
0,59,102,0
0,67,102,0
0,76,102,0
0,35,96,6
0,40,90,0
0,51,53,0
0,52,84,0
0,55,93,0
0,64,44,0
0,35,0,4
0,76,85,1
0,51,47,77
0,63,20,0
0,51,37,9
0,52,45,0
0,63,50,0
0,55,51,20
0,40,74,1
0,51,52,0
0,55,93,0
0,59,93,0
0,62,40,0
0,64,93,0
0,40,0,4
0,35,78,20
0,40,79,0
0,51,44,0
0,55,97,0
0,59,97,0
0,62,66,0
0,64,97,0
0,35,0,4
0,35,96,32
0,40,90,0
0,51,53,0
0,64,49,0
0,35,0,4
0,51,45,92
0,64,35,0
0,52,0,29
0,59,0,0
0,67,0,0
0,76,0,0
0,50,102,12
0,57,102,0
0,62,109,0
0,74,114,0
0,38,83,6
0,40,74,0
0,50,95,0
0,51,58,0
0,54,95,0
0,57,95,0
0,62,95,0
0,62,40,0
0,40,0,4
0,51,51,63
0,62,66,0
0,62,55,44
0,50,0,2
0,57,0,0
0,62,0,0
0,74,0,0
0,52,102,6
0,59,102,0
0,64,102,0
0,76,102,0
0,35,84,6
0,40,81,0
0,40,70,0
0,51,60,0
0,52,91,0
0,55,91,0
0,59,91,0
0,63,46,0
0,64,91,0
0,35,0,4
0,40,0,0
0,52,0,122
0,59,0,0
0,64,0,0
0,76,0,0
0,64,105,66
0,64,101,14
0,67,98,17
0,67,98,18
0,71,107,18
0,46,44,15
0,71,96,0
0,46,0,4
0,52,56,0
0,61,56,0
0,69,56,0
0,33,92,6
0,35,98,0
0,42,54,0
0,51,55,0
0,61,75,0
0,64,46,0
0,69,99,0
0,35,0,4
0,42,50,92
0,63,22,0
0,42,32,44
0,52,57,0
0,63,52,0
0,57,63,20
0,40,76,1
0,42,60,0
0,57,95,0
0,61,95,0
0,62,42,0
0,64,95,0
0,40,0,4
0,33,83,20
0,35,80,0
0,42,50,0
0,57,99,0
0,61,99,0
0,62,68,0
0,64,99,0
0,35,0,4
0,60,56,1
0,35,98,1
0,40,91,0
0,42,54,0
0,60,75,0
0,64,51,0
0,35,0,4
0,69,0,16
0,42,50,76
0,64,28,0
0,52,57,44
0,57,63,24
0,40,86,1
0,40,76,0
0,42,60,0
0,57,95,0
0,60,95,0
0,62,42,0
0,64,95,0
0,67,95,0
0,40,0,4
0,46,46,1
0,57,99,0
0,60,99,0
0,62,69,0
0,64,99,0
0,66,98,0
0,59,56,1
0,67,56,0
0,28,92,1
0,35,98,0
0,42,54,0
0,59,75,0
0,64,46,0
0,67,98,0
0,35,0,4
0,42,50,3
0,63,22,0
0,64,100,0
0,42,32,44
0,52,57,0
0,63,52,0
0,55,63,20
0,40,76,1
0,42,60,0
0,55,95,0
0,59,95,0
0,62,42,0
0,64,95,0
0,40,0,4
0,28,83,20
0,35,80,0
0,42,50,0
0,55,99,0
0,59,99,0
0,62,68,0
0,64,99,0
0,35,0,4
0,35,91,13
0,35,98,0
0,42,54,0
0,64,51,0
0,35,0,4
0,42,50,92
0,64,28,0
0,52,57,44
0,55,63,24
0,35,86,1
0,40,76,0
0,42,60,0
0,55,95,0
0,59,95,0
0,62,42,0
0,64,95,0
0,40,0,4
0,42,50,20
0,55,99,0
0,59,99,0
0,62,69,0
0,64,99,0
0,52,56,1
0,60,56,0
0,69,56,0
0,33,92,6
0,35,98,0
0,42,54,0
0,60,75,0
0,64,53,0
0,64,46,0
0,72,98,0
0,35,0,4
0,42,50,92
0,63,22,0
0,42,32,44
0,52,57,0
0,63,52,0
0,57,63,20
0,40,76,1
0,42,60,0
0,57,95,0
0,60,95,0
0,62,42,0
0,64,95,0
0,72,94,0
0,40,0,4
0,33,83,18
0,35,80,0
0,42,50,0
0,57,99,0
0,60,99,0
0,62,68,0
0,64,99,0
0,69,101,0
0,35,0,4
0,54,56,1
0,62,56,0
0,35,98,1
0,38,91,0
0,42,54,0
0,62,75,0
0,64,51,0
0,66,65,0
0,74,101,0
0,35,0,4
0,42,50,11
0,64,28,0
0,74,94,0
0,50,57,44
0,57,63,24
0,28,86,1
0,40,76,0
0,42,60,0
0,57,95,0
0,62,95,0
0,62,42,0
0,66,95,0
0,40,0,4
0,30,86,14
0,42,50,0
0,57,99,0
0,62,99,0
0,62,69,0
0,66,99,0
0,69,96,0
0,55,56,1
0,62,56,0
0,71,56,0
0,31,92,6
0,35,98,0
0,42,54,0
0,59,53,0
0,64,46,0
0,67,75,0
0,71,98,0
0,35,0,4
0,42,50,92
0,63,22,0
0,42,32,44
0,55,57,0
0,63,52,0
0,59,63,20
0,40,76,1
0,42,60,0
0,59,95,0
0,62,95,0
0,62,42,0
0,67,95,0
0,40,0,4
0,31,83,20
0,35,80,0
0,42,50,0
0,59,99,0
0,62,99,0
0,62,68,0
0,67,99,0
0,71,89,0
0,71,97,0
0,35,0,4
0,56,56,1
0,64,56,0
0,35,98,1
0,40,91,0
0,42,54,0
0,64,57,0
0,64,51,0
0,68,75,0
0,72,87,0
0,76,95,0
0,35,0,4
0,42,50,2
0,64,28,0
0,71,88,0
0,74,96,0
0,52,57,44
0,59,63,24
0,40,86,1
0,40,76,0
0,42,60,0
0,59,95,0
0,62,42,0
0,64,95,0
0,68,95,0
0,69,88,0
0,72,96,0
0,40,0,4
0,42,50,7
0,59,99,0
0,62,69,0
0,64,99,0
0,68,87,0
0,68,99,0
0,71,95,0
0,57,56,1
0,72,56,0
0,33,92,1
0,35,98,0
0,42,54,0
0,64,57,0
0,64,46,0
0,69,75,0
0,69,84,0
0,72,92,0
0,35,0,4
0,42,50,92
0,63,22,0
0,42,32,44
0,57,57,0
0,63,52,0
0,60,63,20
0,40,76,1
0,42,60,0
0,60,95,0
0,62,42,0
0,64,95,0
0,69,95,0
0,40,0,4
0,33,83,20
0,35,80,0
0,42,50,0
0,60,99,0
0,62,68,0
0,64,99,0
0,69,99,0
0,35,0,4
0,54,56,1
0,62,56,0
0,69,56,0
0,64,0,5
0,35,98,1
0,38,91,0
0,42,54,0
0,64,51,0
0,66,57,0
0,35,0,4
0,42,50,92
0,64,28,0
0,57,57,44
0,62,63,24
0,38,86,1
0,40,76,0
0,42,60,0
0,62,95,0
0,62,42,0
0,66,91,0
0,66,95,0
0,69,91,0
0,69,95,0
0,74,99,0
0,40,0,4
0,42,50,3
0,62,99,0
0,62,69,0
0,66,86,0
0,66,99,0
0,69,94,0
0,69,99,0
0,63,56,1
0,71,56,0
0,66,0,5
0,69,0,0
0,35,92,1
0,35,98,0
0,42,54,0
0,63,57,0
0,63,87,0
0,64,46,0
0,66,87,0
0,71,75,0
0,71,95,0
0,35,0,4
0,42,50,92
0,63,22,0
0,42,32,44
0,59,57,0
0,63,52,0
0,63,63,20
0,40,76,1
0,42,60,0
0,62,42,0
0,63,91,0
0,63,95,0
0,66,91,0
0,66,95,0
0,71,99,0
0,71,95,0
0,40,0,4
0,35,83,1
0,35,80,0
0,42,50,0
0,62,68,0
0,63,91,0
0,63,99,0
0,66,91,0
0,66,99,0
0,69,99,0
0,71,99,0
0,35,0,4
0,55,56,1
0,64,56,0
0,63,0,3
0,35,98,1
0,40,91,0
0,42,54,0
0,64,57,0
0,64,90,0
0,64,51,0
0,67,90,0
0,71,98,0
0,35,0,4
0,42,50,1
0,64,28,0
0,66,91,0
0,67,99,0
0,59,57,44
0,64,63,24
0,40,86,1
0,40,76,0
0,42,60,0
0,62,42,0
0,64,91,0
0,64,99,0
0,64,95,0
0,67,95,0
0,71,95,0
0,40,0,4
0,42,50,20
0,62,69,0
0,64,99,0
0,67,99,0
0,71,99,0
0,57,56,1
0,60,56,0
0,69,56,0
0,64,0,5
0,71,0,0
0,33,92,1
0,35,98,0
0,42,54,0
0,64,46,0
0,69,57,0
0,72,75,0
0,35,0,4
0,42,50,85
0,63,22,0
0,42,32,44
0,57,57,0
0,63,52,0
0,60,63,20
0,40,76,1
0,42,60,0
0,60,95,0
0,62,42,0
0,64,95,0
0,69,95,0
0,40,0,4
0,33,83,20
0,35,80,0
0,42,50,0
0,60,99,0
0,62,68,0
0,64,99,0
0,69,99,0
0,35,0,4
0,54,56,1
0,62,56,0
0,69,0,5
0,72,0,0
0,35,98,1
0,38,91,0
0,42,54,0
0,64,51,0
0,66,57,0
0,69,75,0
0,69,93,0
0,69,101,0
0,35,0,4
0,42,50,29
0,64,28,0
0,69,86,0
0,69,94,0
0,50,57,44
0,57,63,24
0,67,64,1
0,38,86,1
0,40,76,0
0,42,60,0
0,57,95,0
0,62,95,0
0,62,42,0
0,66,95,0
0,67,90,0
0,67,98,0
0,40,0,4
0,67,0,13
0,66,64,1
0,46,46,1
0,57,99,0
0,62,99,0
0,62,69,0
0,66,89,0
0,66,97,0
0,66,99,0
0,66,0,0
0,52,56,1
0,55,56,0
0,59,56,0
0,64,64,0
0,66,0,5
0,69,0,0
0,35,98,1
0,40,92,0
0,42,62,0
0,51,55,0
0,52,95,0
0,55,95,0
0,59,95,0
0,64,57,0
0,64,91,0
0,64,99,0
0,64,95,0
0,64,50,0
0,35,0,4
0,64,72,12
0,64,0,5
0,64,75,1
0,64,97,0
0,64,75,10
0,64,94,0
0,67,74,1
0,67,75,6
0,67,95,0
0,67,75,11
0,67,95,0
0,71,76,1
0,71,75,6
0,71,92,0
0,46,46,11
0,71,75,0
0,71,92,0
0,52,78,1
0,61,78,0
0,69,78,0
0,35,100,6
0,42,56,0
0,45,94,0
0,51,57,0
0,61,77,0
0,64,48,0
0,69,101,0
0,35,0,4
0,42,52,92
0,63,24,0
0,42,34,44
0,52,59,0
0,63,54,0
0,57,65,20
0,40,78,1
0,42,62,0
0,57,97,0
0,61,97,0
0,62,44,0
0,64,97,0
0,40,0,4
0,35,82,20
0,42,52,0
0,45,85,0
0,57,101,0
0,61,101,0
0,62,70,0
0,64,101,0
0,35,0,4
0,60,78,1
0,35,100,1
0,40,93,0
0,42,56,0
0,60,77,0
0,64,53,0
0,35,0,4
0,69,0,16
0,42,52,76
0,64,30,0
0,52,59,44
0,57,65,24
0,40,88,1
0,40,78,0
0,42,62,0
0,57,97,0
0,60,97,0
0,62,44,0
0,64,97,0
0,67,97,0
0,40,0,4
0,46,48,1
0,57,101,0
0,60,101,0
0,62,71,0
0,64,101,0
0,66,100,0
0,59,78,1
0,67,78,0
0,28,94,1
0,35,100,0
0,42,56,0
0,59,77,0
0,64,48,0
0,67,100,0
0,35,0,4
0,64,78,1
0,42,52,3
0,63,24,0
0,64,102,0
0,42,34,44
0,52,59,0
0,63,54,0
0,55,65,20
0,40,78,1
0,42,62,0
0,55,97,0
0,59,97,0
0,62,44,0
0,64,97,0
0,40,0,4
0,28,85,20
0,35,82,0
0,42,52,0
0,55,101,0
0,59,101,0
0,62,70,0
0,64,101,0
0,35,0,4
0,67,78,1
0,31,93,6
0,35,100,0
0,42,56,0
0,64,53,0
0,35,0,4
0,31,93,14
0,42,52,0
0,64,30,0
0,52,59,44
0,55,65,24
0,67,0,7
0,71,80,1
0,35,93,1
0,40,78,0
0,42,62,0
0,55,97,0
0,59,97,0
0,62,44,0
0,64,97,0
0,40,0,4
0,35,93,14
0,42,52,0
0,55,101,0
0,59,101,0
0,62,71,0
0,64,87,0
0,64,101,0
0,71,0,0
0,57,78,1
0,64,78,0
0,72,78,0
0,33,94,6
0,35,100,0
0,42,56,0
0,60,77,0
0,64,55,0
0,64,48,0
0,72,100,0
0,35,0,4
0,42,52,92
0,63,24,0
0,42,34,44
0,52,59,0
0,63,54,0
0,57,65,20
0,40,78,1
0,42,62,0
0,57,97,0
0,60,97,0
0,62,44,0
0,64,97,0
0,72,96,0
0,40,0,4
0,33,85,18
0,35,82,0
0,42,52,0
0,57,101,0
0,60,101,0
0,62,70,0
0,64,101,0
0,69,103,0
0,35,0,4
0,66,78,1
0,74,78,0
0,35,100,1
0,38,94,0
0,42,56,0
0,62,77,0
0,64,53,0
0,66,67,0
0,74,103,0
0,35,0,4
0,42,52,92
0,64,30,0
0,50,59,44
0,57,65,24
0,40,78,1
0,42,62,0
0,57,97,0
0,62,97,0
0,62,44,0
0,66,97,0
0,40,0,4
0,38,85,11
0,42,52,0
0,57,101,0
0,62,101,0
0,62,71,0
0,66,101,0
0,69,98,0
0,59,78,1
0,67,78,0
0,74,78,0
0,31,94,6
0,35,100,0
0,42,56,0
0,59,55,0
0,64,48,0
0,67,77,0
0,71,100,0
0,35,0,4
0,42,52,92
0,63,24,0
0,42,34,44
0,55,59,0
0,63,54,0
0,59,65,20
0,40,78,1
0,42,62,0
0,59,97,0
0,62,97,0
0,62,44,0
0,67,97,0
0,40,0,4
0,31,85,20
0,35,82,0
0,42,52,0
0,59,101,0
0,62,101,0
0,62,70,0
0,67,101,0
0,71,91,0
0,71,99,0
0,74,80,0
0,35,0,4
0,56,78,1
0,64,78,0
0,76,78,0
0,35,100,1
0,40,93,0
0,42,56,0
0,64,59,0
0,64,53,0
0,68,77,0
0,72,89,0
0,76,80,0
0,76,97,0
0,35,0,4
0,74,78,1
0,42,52,2
0,64,30,0
0,71,90,0
0,74,77,0
0,74,98,0
0,52,59,44
0,59,65,24
0,72,78,1
0,40,88,1
0,40,78,0
0,42,62,0
0,59,97,0
0,62,44,0
0,64,97,0
0,68,97,0
0,69,90,0
0,72,74,0
0,72,98,0
0,40,0,4
0,71,78,1
0,42,52,6
0,59,101,0
0,62,71,0
0,64,101,0
0,68,89,0
0,68,101,0
0,71,77,0
0,71,97,0
0,57,78,1
0,72,78,0
0,33,94,1
0,35,100,0
0,42,56,0
0,64,59,0
0,64,48,0
0,69,77,0
0,69,86,0
0,72,72,0
0,72,94,0
0,35,0,4
0,42,52,92
0,63,24,0
0,42,34,44
0,57,59,0
0,63,54,0
0,60,65,20
0,40,78,1
0,42,62,0
0,60,97,0
0,62,44,0
0,64,97,0
0,69,97,0
0,40,0,4
0,33,85,20
0,35,82,0
0,42,52,0
0,60,101,0
0,62,70,0
0,64,101,0
0,69,101,0
0,35,0,4
0,54,78,1
0,66,78,0
0,74,98,0
0,64,0,5
0,35,100,1
0,38,93,0
0,42,56,0
0,64,53,0
0,66,59,0
0,35,0,4
0,72,98,1
0,42,52,6
0,64,30,0
0,57,59,44
0,62,65,24
0,71,98,1
0,38,88,1
0,40,78,0
0,42,62,0
0,62,97,0
0,62,44,0
0,66,93,0
0,66,97,0
0,69,93,0
0,69,97,0
0,74,101,0
0,40,0,4
0,69,98,1
0,42,52,3
0,62,101,0
0,62,71,0
0,66,88,0
0,66,101,0
0,69,101,0
0,72,96,0
0,63,78,1
0,71,90,0
0,66,0,5
0,69,0,0
0,35,94,1
0,35,100,0
0,42,56,0
0,63,59,0
0,63,89,0
0,64,48,0
0,66,89,0
0,71,77,0
0,71,101,0
0,35,0,4
0,42,52,92
0,63,24,0
0,42,34,44
0,59,59,0
0,63,54,0
0,63,65,20
0,40,78,1
0,42,62,0
0,62,44,0
0,63,93,0
0,63,97,0
0,66,93,0
0,66,97,0
0,71,97,0
0,40,0,4
0,35,85,1
0,35,82,0
0,42,52,0
0,62,70,0
0,63,93,0
0,63,101,0
0,66,93,0
0,66,101,0
0,69,93,0
0,71,101,0
0,35,0,4
0,55,78,1
0,64,78,0
0,63,0,3
0,35,100,1
0,40,93,0
0,42,56,0
0,64,59,0
0,64,92,0
0,64,53,0
0,67,92,0
0,71,100,0
0,35,0,4
0,42,52,1
0,64,30,0
0,66,93,0
0,67,101,0
0,59,59,44
0,64,65,24
