track,note,velocity,time
1,71,127,23428
1,67,127,12
1,69,127,36
1,64,127,8
1,71,127,4320
1,69,127,0
1,67,127,32
1,69,127,100
1,69,127,72
1,67,127,24
1,64,127,0
1,62,127,0
1,59,127,8
1,55,127,80
1,52,114,8
1,71,127,3596
1,67,127,0
1,69,127,12
1,64,127,4
1,74,127,16
1,71,127,40
1,69,127,12
1,67,127,0
1,64,127,20
1,69,127,20
1,69,127,72
1,67,127,4
1,64,127,0
1,62,127,3636
1,64,127,32
1,67,127,0
1,74,127,8
1,64,127,12
1,67,127,0
1,67,122,0
1,71,127,3900
1,74,127,12
1,76,127,40
1,74,127,68
1,71,127,24
1,69,127,24
1,67,127,4
1,69,127,0
1,69,127,116
1,67,127,16
1,64,127,8
1,62,127,40
1,64,127,16
1,64,125,92
1,62,127,180
1,59,127,8
1,57,127,96
1,55,127,16
1,57,127,8
1,55,127,96
1,52,118,16
1,71,127,3256
1,79,127,16
1,79,127,76
1,78,127,32
1,76,127,4
1,74,127,8
1,71,127,8
1,69,127,28
1,67,127,76
1,66,127,8
1,62,122,168
1,79,127,4
1,78,127,0
1,76,127,4
1,74,127,4
1,71,127,32
1,69,127,4
1,67,127,4
1,69,127,176
1,67,127,24
1,64,126,4
1,62,127,28
1,64,116,104
1,69,127,176
1,71,127,16
1,69,127,72
1,71,127,16
1,69,127,40
1,67,127,4
1,69,127,36
1,69,127,120
1,64,127,0
1,67,127,72
1,64,127,4
1,69,127,0
1,64,127,12
1,64,127,312
1,66,127,20
1,67,127,8
1,69,127,12
1,71,127,4
1,74,127,8
1,71,127,0
1,74,127,8
1,71,127,4
1,69,127,8
1,71,127,88
1,67,127,388
1,69,127,0
1,71,127,36
1,74,127,0
1,71,127,4
1,69,127,20
1,67,127,16
1,69,116,12
1,66,127,8
1,64,127,96
1,62,127,60
1,64,127,36
1,66,127,12
1,67,127,16
1,69,127,0
1,70,127,100
1,71,127,36
1,71,127,88
1,69,127,112
1,70,127,4
1,71,127,16
1,74,127,104
1,76,127,120
1,78,127,100
1,79,127,8
1,78,127,4
1,76,127,8
1,74,127,12
1,71,127,104
1,69,127,0
1,67,127,84
1,66,127,120
1,64,127,20
1,66,127,20
1,67,127,16
1,69,127,8
1,71,127,8
1,74,127,28
1,76,127,0
1,74,127,20
1,76,127,20
1,74,127,96
1,71,127,12
1,69,127,8
1,78,127,412
1,74,127,16
1,74,123,112
1,78,127,32
1,74,127,16
1,71,127,12
1,69,127,8
1,71,127,40
1,71,127,68
1,74,127,60
1,76,127,24
1,79,127,12
1,78,127,12
1,76,127,40
1,74,127,36
1,76,127,28
1,74,127,20
1,72,127,0
1,71,127,28
1,72,127,24
1,71,127,8
1,69,127,52
1,67,127,0
1,66,127,116
1,62,127,144
1,64,127,28
1,66,127,8
1,65,115,32
1,67,127,36
1,69,127,96
1,71,127,84
1,69,127,84
1,70,127,4
1,71,127,68
1,74,127,12
1,71,127,96
1,74,127,12
1,71,127,0
1,75,127,88
1,76,127,16
1,74,127,64
1,71,127,4
1,72,127,12
1,74,127,28
1,71,127,12
1,69,127,4
1,69,127,376
1,71,127,12
1,74,127,40
1,76,127,40
1,78,127,64
1,79,127,84
1,78,127,0
1,76,127,20
1,74,127,12
1,76,127,4
1,74,127,44
1,71,127,0
1,74,127,12
1,71,127,48
1,69,127,40
1,67,127,20
1,69,127,20
1,67,127,24
1,64,127,0
1,62,127,0
1,64,127,16
1,64,127,108
1,66,127,20
1,64,127,8
1,66,127,4
1,67,127,24
1,69,127,4
1,71,127,16
1,67,127,16
1,69,127,232
1,71,127,120
1,74,127,520
1,71,116,44
1,74,127,44
1,74,127,44
1,74,127,44
1,74,127,20
1,71,127,60
1,74,127,12
1,71,127,36
1,74,122,0
1,69,127,0
1,67,127,36
1,66,127,20
1,66,115,16
1,62,127,16
1,64,127,68
1,67,127,0
1,64,127,8
1,62,127,68
1,64,127,12
1,66,127,12
1,67,127,16
1,69,127,44
1,71,127,8
1,69,127,44
1,71,127,8
1,67,127,20
1,69,127,4
1,71,115,40
1,71,127,36
1,74,127,56
1,71,127,104
1,74,127,24
1,64,127,8
1,66,127,60
1,66,127,52
1,67,127,36
1,67,127,24
1,69,127,24
1,69,127,24
1,71,127,8
1,71,127,24
1,74,127,68
1,74,127,16
1,71,127,16
1,71,127,60
1,74,127,0
1,71,127,4
1,76,127,8
1,76,127,48
1,76,127,12
1,76,127,24
1,76,127,24
1,76,127,0
1,76,127,40
1,76,127,44
1,76,127,48
1,74,127,76
1,71,127,12
1,69,127,12
1,67,127,32
1,64,127,0
1,71,127,3356
1,67,127,4
1,69,127,68
1,64,127,8
1,71,127,16
1,69,127,40
1,67,127,12
1,64,127,4
1,67,127,12
1,69,127,48
1,64,127,20
1,62,127,8
1,59,127,0
1,57,127,84
1,59,107,12
1,55,127,8
1,52,127,92
1,71,127,3528
1,67,127,0
1,69,127,4
1,64,127,4
1,52,127,3956
1,54,127,84
1,55,127,8
1,57,127,352
1,59,127,84
1,62,127,112
1,64,127,340
1,66,127,40
1,67,127,8
1,69,127,20
1,71,127,12
1,74,127,12
1,71,127,20
1,62,127,2976
1,64,127,8
1,74,127,40
1,64,127,24
1,67,127,8
1,71,127,4144
1,71,127,16
1,71,127,16
1,69,127,8
1,67,127,20
1,64,127,4
1,67,127,68
1,69,127,0
1,64,126,8
1,62,127,8
1,59,127,0
1,57,127,16
1,55,127,0
1,52,127,116
1,71,127,1880
1,67,127,8
1,69,127,56
1,64,117,16
2,26,107,4028
2,27,90,240
2,26,86,4
2,28,86,84
2,28,86,264
2,28,99,248
2,31,94,8
2,28,88,4
2,26,88,192
2,28,88,100
2,28,88,244
2,30,98,192
2,31,102,0
2,33,88,40
2,26,86,80
2,28,87,164
2,28,94,252
2,28,90,252
2,31,89,192
2,28,86,0
2,26,83,16
2,28,85,192
2,28,85,272
2,28,89,264
2,30,87,4
2,28,88,12
2,26,85,4
2,28,86,4
2,28,90,244
2,28,102,276
2,31,90,4
2,28,97,4
2,26,87,16
2,28,89,108
2,28,94,244
2,30,100,196
2,31,97,192
2,33,85,0
2,26,87,132
2,28,86,8
2,28,90,264
2,28,97,272
2,30,88,192
2,28,90,8
2,26,85,16
2,28,88,12
2,26,89,244
2,28,90,240
2,26,87,4
2,28,88,28
2,26,97,4
2,28,92,8
2,28,92,260
2,28,92,264
2,30,92,192
2,31,99,16
2,26,85,72
2,28,85,16
2,28,88,272
2,30,96,324
2,31,102,56
2,33,97,28
2,26,97,0
2,28,89,88
2,28,87,264
2,30,87,264
2,31,87,192
2,30,90,188
2,26,84,172
2,28,86,100
2,28,92,256
2,28,92,280
2,31,99,120
2,28,86,4
2,26,89,0
2,28,89,112
2,28,95,244
2,30,100,248
2,31,104,8
2,33,87,0
2,26,94,132
2,28,92,104
2,28,97,256
2,28,102,252
2,31,99,120
2,28,94,96
2,26,90,116
2,28,89,96
2,28,94,244
2,28,94,252
2,30,88,140
2,28,92,12
2,26,86,12
2,28,88,20
2,26,97,264
2,28,95,260
2,26,90,192
2,28,85,40
2,26,102,16
2,28,94,16
2,28,97,240
2,28,97,252
2,31,99,112
2,28,87,0
2,26,87,8
2,28,90,112
2,30,94,212
2,31,99,16
2,33,84,88
2,26,99,8
2,28,87,116
2,28,88,248
2,28,90,244
2,31,86,192
2,28,86,4
2,26,86,0
2,28,86,4
2,28,90,248
2,30,100,212
2,31,97,4
2,33,83,4
2,26,88,0
2,28,85,8
2,28,88,248
2,28,90,260
2,31,102,124
2,28,92,0
2,26,86,16
2,28,88,192
2,28,99,252
2,28,97,228
2,31,97,0
2,28,86,12
2,26,94,136
2,28,89,12
2,26,94,284
2,28,92,268
2,30,92,192
2,28,81,8
2,26,85,4
2,28,88,24
2,26,85,256
2,28,90,284
2,26,87,192
2,28,84,12
2,26,99,40
2,28,90,8
2,28,89,268
2,30,98,268
2,31,92,12
2,33,83,4
2,26,92,0
2,28,90,24
2,30,103,244
2,31,90,12
2,28,97,188
2,23,102,28
2,26,94,192
2,28,87,368
2,28,92,264
2,28,92,252
2,31,95,120
2,28,92,180
2,26,88,4
2,28,89,116
2,28,94,244
2,28,99,252
2,31,95,192
2,28,82,188
2,26,92,4
2,28,88,96
2,28,89,244
2,28,89,256
2,31,88,0
2,28,85,192
2,26,84,4
2,28,84,120
2,30,93,244
2,31,90,196
2,30,94,192
2,28,92,20
2,26,92,12
2,28,89,0
2,28,89,256
2,28,92,240
2,31,95,124
2,28,88,0
2,26,88,8
2,28,89,192
2,30,93,232
2,31,99,216
2,33,81,192
2,31,85,20
2,26,89,20
2,28,85,100
2,28,92,240
2,30,92,248
2,31,90,4
2,30,90,132
2,26,82,24
2,28,87,68
2,28,88,252
2,31,92,108
2,28,97,4
2,23,92,192
2,26,97,32
2,28,89,92
2,28,90,232
2,28,88,252
2,31,97,0
2,28,88,84
2,26,82,24
2,28,85,8
2,28,86,236
2,30,96,248
2,31,97,8
2,33,87,4
2,26,97,128
2,28,89,4
2,28,92,248
2,28,86,256
2,31,97,192
2,28,92,4
2,26,84,8
2,28,92,20
2,30,93,232
2,31,92,260
2,30,98,192
2,28,94,28
2,26,88,16
2,28,90,8
2,28,89,240
2,30,84,228
2,28,87,4
2,26,85,24
2,26,85,84
2,28,89,16
2,30,94,236
2,28,92,248
2,26,85,4
2,28,87,32
2,26,99,20
2,28,92,12
2,28,92,232
2,30,100,264
2,31,89,192
2,30,94,8
2,26,89,16
2,28,90,4
2,30,96,236
2,31,90,4
2,30,93,112
2,23,115,152
2,26,99,4
2,28,95,68
2,28,104,240
2,28,97,240
2,31,104,84
2,28,104,84
2,26,90,20
2,28,89,0
2,28,99,236
2,30,94,200
2,31,97,192
2,33,87,4
2,26,97,0
2,33,53,0
2,28,92,16
2,28,95,244
2,28,99,228
2,31,97,192
2,28,94,72
2,26,92,120
2,28,88,184
2,30,93,208
2,31,90,384
2,33,89,92
2,31,90,120
2,26,89,4
2,28,87,100
2,28,94,244
2,28,92,240
2,30,87,128
2,28,86,12
2,26,87,16
2,28,87,32
2,30,94,252
2,28,90,264
2,26,95,24
2,28,83,16
2,26,99,120
2,28,89,80
2,28,95,232
2,30,93,264
2,31,88,0
2,30,96,4
2,26,86,20
2,28,97,24
2,30,98,236
2,31,89,0
2,30,103,188
2,23,99,160
2,28,83,188
2,26,94,180
2,28,78,40
2,28,86,216
2,28,88,224
2,31,92,20
2,28,85,4
2,26,82,8
2,28,82,188
2,30,88,252
2,31,89,208
2,33,79,192
2,31,82,4
2,26,84,20
2,28,85,188
2,28,87,248
2,30,87,248
2,31,83,8
2,30,90,12
2,26,82,32
2,28,89,8
2,28,89,260
2,28,92,256
2,31,95,4
2,28,90,24
2,26,86,12
2,28,89,188
2,30,93,248
2,28,94,248
2,26,86,4
2,28,85,16
2,26,95,92
2,28,86,16
2,26,95,264
2,28,97,268
2,26,85,4
2,28,86,20
2,26,99,24
2,28,94,4
2,28,95,252
2,30,100,256
2,31,89,24
2,30,100,12
2,23,88,24
2,26,94,188
2,28,94,184
2,31,90,132
2,30,98,108
2,23,92,4
2,26,90,192
2,26,104,52
2,28,88,32
2,28,88,208
2,28,90,220
2,31,90,192
2,28,88,112
2,26,85,8
2,28,80,192
2,28,90,252
2,30,94,236
2,31,104,0
2,33,90,40
2,26,95,108
2,28,83,0
2,28,90,252
2,28,87,264
2,31,97,192
2,28,88,12
2,26,90,0
2,28,88,4
2,28,87,260
2,30,94,224
2,31,94,192
2,33,89,52
2,26,89,124
2,28,89,120
2,28,90,244
2,28,87,240
2,30,86,192
2,28,88,8
2,26,88,16
2,28,87,16
2,26,90,256
2,28,89,240
2,26,92,192
2,28,89,0
2,26,97,12
2,28,90,16
2,28,90,260
2,30,96,244
2,31,94,4
2,33,87,8
2,23,87,12
2,26,94,108
2,28,92,240
2,31,95,128
2,30,103,80
2,23,90,160
2,26,97,100
2,26,102,80
2,28,92,44
2,28,90,228
2,28,90,228
2,31,99,4
2,28,90,192
2,26,87,192
2,28,87,20
2,28,90,248
2,30,98,168
2,31,97,4
2,33,87,20
2,26,82,0
2,28,85,40
2,28,88,236
2,30,103,204
2,31,92,16
2,33,86,28
2,26,90,8
2,28,81,12
2,28,89,240
2,30,94,232
2,31,85,4
2,30,98,192
2,26,94,20
2,28,89,16
2,26,90,244
2,28,99,224
2,30,94,196
2,28,89,20
2,26,87,16
2,28,84,20
2,26,92,244
2,28,90,256
2,26,85,8
2,28,84,24
2,26,95,12
2,28,90,4
2,28,92,244
2,30,98,232
2,31,94,192
2,33,83,12
2,26,90,196
2,28,89,4
2,30,93,240
2,31,89,0
2,23,88,192
2,26,97,184
2,27,92,184
2,28,90,8
2,28,94,236
2,28,85,260
2,31,89,0
2,28,89,192
2,26,90,4
2,28,81,4
2,28,87,252
2,30,96,252
2,31,94,4
2,33,86,16
2,26,90,0
2,28,92,8
2,28,94,212
2,30,98,192
2,31,94,20
2,33,86,24
2,26,95,16
2,28,88,12
2,28,90,244
2,30,98,204
2,31,95,20
2,33,83,16
2,26,95,8
2,28,84,16
2,28,88,244
2,26,94,232
2,28,83,192
2,31,90,8
2,26,104,12
2,28,85,8
2,30,100,196
2,28,89,236
2,23,104,276
2,26,107,20
2,28,87,116
2,28,95,228
2,30,96,188
2,31,89,192
2,30,94,16
2,26,86,20
2,26,97,0
2,28,82,32
2,28,86,224
2,28,85,224
2,31,87,8
2,28,87,4
2,26,87,12
2,28,85,188
2,30,94,212
2,31,87,8
2,33,86,188
2,31,90,128
2,30,100,160
2,26,87,12
2,28,87,0
2,28,89,248
2,28,87,212
2,31,87,0
2,28,82,4
2,26,85,4
2,28,84,0
2,28,88,232
2,26,95,232
2,28,88,192
2,31,88,180
2,26,90,8
2,28,87,188
2,30,100,236
2,31,92,0
2,30,91,128
2,28,97,4
2,26,90,12
2,26,90,108
2,28,87,24
2,26,94,236
2,28,102,260
2,30,90,124
2,28,97,8
2,26,92,24
2,28,89,12
2,26,94,240
2,23,97,236
2,26,92,4
2,23,89,8
2,26,94,20
2,28,88,0
2,28,95,264
2,30,93,244
2,31,88,8
2,30,94,4
2,26,88,12
2,28,90,196
2,30,98,188
2,31,86,192
2,30,94,188
2,28,89,16
2,26,85,16
2,26,89,100
2,28,87,28
2,28,90,228
2,26,95,232
2,28,97,152
2,31,94,136
2,26,92,4
2,28,95,32
2,28,97,224
2,26,97,200
2,28,99,4
2,31,89,8
2,28,115,4
3,71,127,20360
3,67,127,4
3,69,127,44
3,64,127,8
3,71,127,3544
3,67,127,28
3,69,127,84
3,64,107,8
3,66,127,8
3,67,127,8
3,66,127,28
3,64,124,16
3,71,127,2232
3,67,127,8
3,69,127,56
3,64,127,8
3,71,127,3828
3,67,127,0
3,69,127,64
3,64,111,20
3,66,127,24
3,67,127,16
3,66,127,52
3,64,121,20
3,62,107,2028
3,64,117,36
3,67,127,4
3,74,121,40
3,64,127,36
3,67,127,0
3,62,102,3508
3,64,110,32
3,67,114,4
3,74,121,24
3,64,127,28
3,67,92,0
3,69,111,16
3,71,127,36
3,71,127,3292
3,79,127,8
3,79,127,84
3,78,127,80
3,71,126,8
3,71,126,3524
3,79,127,8
3,79,127,80
3,78,127,68
3,78,127,104
3,76,127,8
3,76,127,120
3,74,126,308
3,76,126,8
3,71,127,38480
3,67,127,4
3,69,127,108
3,64,121,16
3,71,126,3776
3,67,127,0
3,69,124,252
3,64,103,12
3,66,114,16
3,67,127,620
3,66,127,40
3,64,111,8
3,71,126,2064
3,67,127,0
3,69,127,80
3,64,116,20
3,71,126,3832
3,67,121,84
3,69,127,104
3,64,107,4
3,66,110,0
3,67,127,504
3,66,127,36
3,64,121,12
3,62,100,2000
3,64,114,32
3,67,126,32
3,74,119,28
3,64,119,36
3,67,119,300
3,62,94,3724
3,64,101,32
3,67,126,24
3,74,126,24
3,64,114,24
3,67,96,108
3,69,106,12
3,71,117,64
3,71,126,3464
3,67,117,60
3,69,127,84
3,64,127,20
3,68,101,252
3,71,101,84
