track,note,velocity,time
1,35,110,3312
1,35,0,480
1,35,110,240
1,35,0,240
1,40,110,0
1,40,0,480
1,35,110,240
1,35,0,240
1,35,110,0
1,35,0,480
1,35,110,240
1,35,0,240
1,40,110,0
1,40,0,480
1,35,110,240
1,35,0,240
1,35,110,0
1,35,0,480
1,35,110,240
1,35,0,240
1,40,110,0
1,40,0,480
1,35,110,240
1,35,0,240
1,35,110,0
1,35,0,480
1,35,110,240
1,35,0,240
1,40,110,0
1,40,0,480
1,35,110,240
1,35,0,240
1,35,110,0
1,35,0,480
1,35,110,240
1,35,0,240
1,40,110,0
1,40,0,480
1,35,110,240
1,35,0,240
1,35,110,0
1,35,0,480
1,35,110,240
1,35,0,240
1,40,110,0
1,40,0,480
1,35,110,240
1,35,0,240
1,35,110,0
1,35,0,480
1,35,110,240
1,35,0,240
1,40,110,0
1,40,0,480
1,35,110,240
1,35,0,240
1,35,110,0
1,35,0,480
1,35,110,240
1,35,0,240
1,40,110,0
1,40,0,480
1,35,110,240
1,35,0,240
1,35,110,0
1,35,0,480
1,35,110,240
1,35,0,240
1,40,110,0
1,40,0,480
1,35,110,240
1,35,0,240
1,35,110,0
1,35,0,480
1,35,110,240
1,35,0,240
1,40,110,0
1,40,0,480
1,35,110,240
1,35,0,240
1,35,110,0
1,35,0,480
1,35,110,240
1,35,0,240
1,40,110,0
1,40,0,480
1,35,110,240
1,35,0,240
1,35,110,0
1,35,0,480
1,35,110,240
1,35,0,240
1,40,110,0
1,40,0,480
1,35,110,240
1,35,0,240
1,35,110,0
1,35,0,480
1,35,110,240
1,35,0,240
1,40,110,0
1,40,0,480
1,35,110,240
1,35,0,240
1,35,110,0
1,35,0,480
1,35,110,240
1,35,0,240
1,40,110,0
1,40,0,480
1,35,110,240
1,35,0,240
1,35,110,0
1,35,0,480
1,35,110,240
1,35,0,240
1,40,110,0
1,40,0,480
1,35,110,240
1,35,0,240
1,35,110,0
1,35,0,480
1,35,110,240
1,35,0,240
1,40,110,0
1,40,0,480
1,35,110,240
1,35,0,240
1,35,110,0
1,35,0,480
1,35,110,240
1,35,0,240
1,40,110,0
1,40,0,480
1,35,110,240
1,35,0,240
1,35,110,0
1,35,0,480
1,35,110,240
1,35,0,240
1,40,110,0
1,40,0,480
1,35,110,240
1,35,0,240
1,35,110,0
1,35,0,480
1,35,110,240
1,35,0,240
1,40,110,0
1,40,0,480
1,35,110,240
1,35,0,240
1,35,110,0
1,35,0,480
1,35,110,240
1,35,0,240
1,40,110,0
1,40,0,480
1,35,110,240
1,35,0,240
1,35,110,0
1,35,0,480
1,35,110,240
1,35,0,240
1,40,110,0
1,40,0,480
1,35,110,240
1,35,0,240
1,35,110,0
1,35,0,480
1,35,110,240
1,35,0,240
1,40,110,0
1,40,0,480
1,35,110,240
1,35,0,240
1,35,110,0
1,35,0,480
1,35,110,240
1,35,0,240
1,40,110,0
1,40,0,480
1,35,110,240
1,35,0,240
1,35,110,0
1,35,0,480
1,35,110,240
1,35,0,240
1,40,110,0
1,40,0,480
1,35,110,240
1,35,0,240
1,35,110,0
1,35,0,1920
1,35,110,0
1,35,0,480
1,35,110,240
1,35,0,240
1,40,110,0
1,40,0,480
1,35,110,240
1,35,0,240
1,35,110,0
1,35,0,480
1,35,110,240
1,35,0,240
1,40,110,0
1,40,0,480
1,35,110,0
1,35,0,240
1,35,110,0
1,35,0,240
1,35,110,0
1,35,0,480
1,35,110,240
1,35,0,240
1,40,110,0
1,40,0,480
1,35,110,240
1,35,0,240
1,35,110,0
1,35,0,480
1,35,110,240
1,35,0,240
1,40,110,0
1,40,0,480
1,35,110,240
1,35,0,240
1,35,110,0
1,35,0,480
1,35,110,240
1,35,0,240
1,40,110,0
1,40,0,480
1,35,110,240
1,35,0,240
1,35,110,0
1,35,0,480
1,35,110,240
1,35,0,240
1,40,110,0
1,40,0,480
1,35,110,240
1,35,0,240
1,35,110,0
1,35,0,480
1,35,110,240
1,35,0,240
1,40,110,0
1,40,0,480
1,35,110,240
1,35,0,240
1,35,110,0
1,35,0,480
1,35,110,240
1,35,0,240
1,40,110,0
1,40,0,480
1,35,110,240
1,35,0,240
1,35,110,0
1,35,0,480
1,35,110,240
1,35,0,240
1,40,110,0
1,40,0,480
1,35,110,240
1,35,0,240
1,35,110,0
1,35,0,480
1,35,110,240
1,35,0,240
1,40,110,0
1,40,0,480
1,35,110,240
1,35,0,240
1,35,110,0
1,35,0,480
1,35,110,240
1,35,0,240
1,40,110,0
1,40,0,480
1,35,110,240
1,35,0,240
1,35,110,0
1,35,0,480
1,35,110,240
1,35,0,240
1,40,110,0
1,40,0,480
1,35,110,240
1,35,0,240
1,35,110,0
1,35,0,480
1,35,110,240
1,35,0,240
1,40,110,0
1,40,0,480
1,35,110,240
1,35,0,240
1,35,110,0
1,35,0,480
1,35,110,240
1,35,0,240
1,40,110,0
1,40,0,480
1,35,110,240
1,35,0,240
1,35,110,0
1,35,0,480
1,35,110,240
1,35,0,240
1,40,110,0
1,40,0,480
1,35,110,240
1,35,0,240
1,35,110,0
1,35,0,480
1,35,110,240
1,35,0,240
1,40,110,0
1,40,0,480
1,35,110,240
1,35,0,240
1,35,110,0
1,35,0,480
1,35,110,240
1,35,0,240
1,40,110,0
1,40,0,480
1,35,110,240
1,35,0,240
1,35,110,0
1,35,0,480
1,35,110,240
1,35,0,240
1,40,110,0
1,40,0,480
1,35,110,240
1,35,0,240
1,35,110,0
1,35,0,480
1,35,110,240
1,35,0,240
1,40,110,0
1,40,0,480
1,35,110,240
1,35,0,240
1,35,110,0
1,35,0,480
1,35,110,240
1,35,0,240
1,40,110,0
1,40,0,480
1,35,110,240
1,35,0,240
1,35,110,0
1,35,0,480
1,35,110,240
1,35,0,240
1,40,110,0
1,40,0,480
1,35,110,240
1,35,0,240
1,35,110,0
1,35,0,480
1,35,110,240
1,35,0,240
1,40,110,0
1,40,0,480
1,35,110,240
1,35,0,240
1,35,110,0
1,35,0,480
1,35,110,240
1,35,0,240
1,40,110,0
1,40,0,480
1,35,110,240
1,35,0,240
1,35,110,0
1,35,0,480
1,35,110,240
1,35,0,240
1,40,110,0
1,40,0,480
1,35,110,240
1,35,0,240
1,35,110,0
1,35,0,480
1,35,110,240
1,35,0,240
1,40,110,0
1,40,0,480
1,35,110,240
1,35,0,240
1,35,110,0
1,35,0,480
1,35,110,240
1,35,0,240
1,40,110,0
1,40,0,480
1,35,110,240
1,35,0,240
1,35,110,0
1,35,0,480
1,35,110,240
1,35,0,240
1,40,110,0
1,40,0,480
1,35,110,240
1,35,0,240
1,35,110,0
1,35,0,480
1,35,110,240
1,35,0,240
1,40,110,0
1,40,0,480
1,35,110,240
1,35,0,240
1,35,110,0
1,35,0,480
1,35,110,240
1,35,0,240
1,40,110,0
1,40,0,480
1,35,110,240
1,35,0,240
1,35,110,0
1,35,0,480
1,35,110,240
1,35,0,240
1,40,110,0
1,40,0,480
1,35,110,240
1,35,0,240
1,35,110,0
1,35,0,480
1,35,110,240
1,35,0,240
1,40,110,0
1,40,0,480
1,35,110,240
1,35,0,240
1,35,110,0
1,35,0,1920
1,35,110,0
1,35,0,480
1,35,110,240
1,35,0,240
1,40,110,0
1,40,0,480
1,35,110,240
1,35,0,240
1,35,110,0
1,35,0,480
1,35,110,240
1,35,0,240
1,40,110,0
1,40,0,480
1,35,110,0
1,35,0,240
1,35,110,0
1,35,0,240
1,35,110,0
1,35,0,480
1,35,110,240
1,35,0,240
1,40,110,0
1,40,0,480
1,35,110,240
1,35,0,240
1,35,110,0
1,35,0,480
1,35,110,240
1,35,0,240
1,40,110,0
1,40,0,480
1,35,110,240
1,35,0,240
1,35,110,0
1,35,0,480
1,35,110,240
1,35,0,240
1,40,110,0
1,40,0,480
1,35,110,240
1,35,0,240
1,35,110,0
1,35,0,480
1,35,110,240
1,35,0,240
1,40,110,0
1,40,0,480
1,35,110,240
1,35,0,240
1,35,110,0
1,35,0,480
1,35,110,240
1,35,0,240
1,40,110,0
1,40,0,480
1,35,110,240
1,35,0,240
1,35,110,0
1,35,0,480
1,35,110,240
1,35,0,240
1,40,110,0
1,40,0,480
1,35,110,240
1,35,0,240
1,35,110,0
1,35,0,480
1,35,110,240
1,35,0,240
1,40,110,0
1,40,0,480
1,35,110,240
1,35,0,240
1,35,110,0
1,35,0,480
1,35,110,240
1,35,0,240
1,40,110,0
1,40,0,480
1,35,110,240
1,35,0,240
1,35,110,0
1,35,0,480
1,35,110,240
1,35,0,240
1,40,110,0
1,40,0,480
1,35,110,240
1,35,0,240
1,35,110,0
1,35,0,480
1,35,110,240
1,35,0,240
1,40,110,0
1,40,0,480
1,35,110,240
1,35,0,240
1,35,110,0
1,35,0,480
1,35,110,240
1,35,0,240
1,40,110,0
1,40,0,480
1,35,110,240
1,35,0,240
1,35,110,0
1,35,0,480
1,35,110,240
1,35,0,240
1,40,110,0
1,40,0,480
1,35,110,240
1,35,0,240
1,35,110,0
1,35,0,480
1,35,110,240
1,35,0,240
1,40,110,0
1,40,0,480
1,35,110,240
1,35,0,240
1,35,110,0
1,35,0,480
1,35,110,240
1,35,0,240
1,40,110,0
1,40,0,480
1,35,110,240
1,35,0,240
1,35,110,0
1,35,0,480
1,35,110,240
1,35,0,240
1,40,110,0
1,40,0,480
1,35,110,240
1,35,0,240
1,35,110,0
1,35,0,480
1,35,110,240
1,35,0,240
1,40,110,0
1,40,0,480
1,35,110,240
1,35,0,240
1,35,110,0
1,35,0,480
1,35,110,240
1,35,0,240
1,40,110,0
1,40,0,480
1,35,110,240
1,35,0,240
1,35,110,0
1,35,0,480
1,35,110,240
1,35,0,240
1,40,110,0
1,40,0,480
1,35,110,240
1,35,0,240
1,35,110,0
1,35,0,480
1,35,110,240
1,35,0,240
1,40,110,0
1,40,0,480
1,35,110,240
1,35,0,240
1,35,110,0
1,35,0,480
1,35,110,240
1,35,0,240
1,40,110,0
1,40,0,480
1,35,110,240
1,35,0,240
1,35,110,0
1,35,0,480
1,35,110,240
1,35,0,240
1,40,110,0
1,40,0,480
1,35,110,240
1,35,0,240
1,35,110,0
1,35,0,480
1,35,110,240
1,35,0,240
1,40,110,0
1,40,0,480
1,35,110,240
1,59,110,0
1,59,0,240
1,35,0,0
2,42,110,1392
2,57,110,0
2,57,0,454
2,42,0,0
2,42,110,0
2,42,0,480
2,42,110,0
2,42,0,480
2,42,110,0
2,42,0,480
2,42,110,0
2,57,110,0
2,57,0,480
2,42,0,0
2,42,110,0
2,42,0,240
2,46,110,0
2,46,0,240
2,42,110,0
2,42,0,480
2,42,110,0
2,42,0,480
2,42,110,0
2,42,0,480
2,42,110,0
2,42,0,480
2,42,110,0
2,42,0,480
2,42,110,0
2,42,0,480
2,42,110,0
2,42,0,480
2,42,110,0
2,42,0,240
2,46,110,0
2,46,0,240
2,42,110,0
2,42,0,480
2,42,110,0
2,42,0,480
2,42,110,0
2,42,0,480
2,42,110,0
2,42,0,240
2,46,110,0
2,46,0,240
2,42,110,0
2,42,0,480
2,42,110,0
2,42,0,240
2,46,110,0
2,46,0,240
2,42,110,0
2,42,0,480
2,42,110,0
2,42,0,480
2,42,110,0
2,42,0,480
2,42,110,0
2,42,0,480
2,42,110,0
2,42,0,480
2,42,110,0
2,42,0,480
2,42,110,0
2,42,0,480
2,42,110,0
2,42,0,240
2,46,110,0
2,46,0,240
2,42,110,0
2,57,110,0
2,57,0,480
2,42,0,0
2,42,110,0
2,42,0,480
2,42,110,0
2,42,0,480
2,42,110,0
2,42,0,480
2,42,110,0
2,42,0,480
2,42,110,0
2,42,0,240
2,46,110,0
2,46,0,240
2,42,110,0
2,42,0,480
2,42,110,0
2,42,0,240
2,46,110,0
2,46,0,240
2,42,110,0
2,57,110,0
2,57,0,480
2,42,0,0
2,42,110,0
2,42,0,240
2,46,110,0
2,46,0,240
2,42,110,0
2,42,0,480
2,42,110,0
2,42,0,240
2,42,110,0
2,42,0,240
2,42,110,0
2,42,0,480
2,42,110,0
2,42,0,240
2,46,110,0
2,46,0,240
2,42,110,0
2,42,0,480
2,42,110,0
2,42,0,240
2,42,110,0
2,42,0,240
2,42,110,0
2,42,0,480
2,42,110,0
2,42,0,480
2,42,110,0
2,42,0,480
2,42,110,0
2,42,0,480
2,42,110,0
2,42,0,480
2,42,110,0
2,42,0,480
2,42,110,0
2,42,0,240
2,42,110,0
2,42,0,120
2,42,110,0
2,42,0,120
2,42,110,0
2,42,0,240
2,42,110,0
2,46,110,0
2,46,0,240
2,42,0,0
2,42,110,0
2,42,0,480
2,42,110,0
2,42,0,240
2,46,110,0
2,46,0,240
2,42,110,0
2,42,0,480
2,42,110,0
2,42,0,240
2,46,110,0
2,46,0,240
2,42,110,0
2,42,0,480
2,42,110,0
2,42,0,480
2,42,110,0
2,42,0,480
2,42,110,0
2,42,0,480
2,42,110,0
2,42,0,480
2,42,110,0
2,42,0,480
2,42,110,0
2,42,0,480
2,42,110,0
2,42,0,480
2,42,110,0
2,42,0,480
2,42,110,0
2,42,0,240
2,46,110,0
2,46,0,240
2,42,110,0
2,42,0,480
2,42,110,0
2,42,0,240
2,46,110,0
2,46,0,240
2,42,110,0
2,57,110,0
2,57,0,480
2,42,0,0
2,42,110,0
2,42,0,240
2,46,110,0
2,46,0,240
2,42,110,0
2,42,0,480
2,42,110,0
2,42,0,240
2,46,110,0
2,46,0,240
2,42,110,0
2,42,0,480
2,42,110,0
2,42,0,240
2,46,110,0
2,46,0,240
2,42,110,0
2,42,0,480
2,42,110,0
2,42,0,240
2,46,110,0
2,46,0,240
2,42,110,0
2,42,0,480
2,42,110,0
2,42,0,240
2,46,110,0
2,46,0,240
2,42,110,0
2,42,0,480
2,42,110,0
2,42,0,240
2,46,110,0
2,46,0,240
2,42,110,0
2,42,0,480
2,42,110,0
2,42,0,240
2,46,110,0
2,46,0,240
2,42,110,0
2,42,0,480
2,42,110,0
2,42,0,240
2,46,110,0
2,46,0,240
2,42,110,0
2,42,0,480
2,42,110,0
2,42,0,240
2,46,110,0
2,46,0,240
2,42,110,0
2,42,0,480
2,42,110,0
2,42,0,240
2,46,110,0
2,46,0,240
2,42,110,0
2,42,0,480
2,42,110,0
2,42,0,240
2,46,110,0
2,46,0,240
2,42,110,0
2,42,0,480
2,42,110,0
2,42,0,240
2,46,110,0
2,46,0,240
2,42,110,0
2,42,0,480
2,42,110,0
2,42,0,240
2,46,110,0
2,46,0,240
2,42,110,0
2,42,0,480
2,42,110,0
2,42,0,240
2,46,110,0
2,46,0,240
2,42,110,0
2,42,0,480
2,42,110,0
2,42,0,240
2,46,110,0
2,46,0,240
2,42,110,0
2,42,0,480
2,42,110,0
2,42,0,240
2,46,110,0
2,46,0,240
2,42,110,0
2,57,110,0
2,57,0,480
2,42,0,0
2,42,110,0
2,42,0,480
2,42,110,0
2,42,0,480
2,42,110,0
2,42,0,240
2,42,110,0
2,42,0,120
2,42,110,0
2,42,0,120
2,42,110,0
2,57,110,0
2,57,0,480
2,42,0,0
2,42,110,0
2,42,0,240
2,46,110,0
2,46,0,240
2,42,110,0
2,42,0,480
2,42,110,0
2,42,0,240
2,46,110,0
2,46,0,240
2,42,110,0
2,57,110,0
2,57,0,480
2,42,0,0
2,42,110,0
2,42,0,240
2,46,110,0
2,46,0,240
2,42,110,0
2,42,0,480
2,42,110,0
2,42,0,240
2,46,110,0
2,46,0,240
2,42,110,0
2,42,0,480
2,42,110,0
2,42,0,240
2,46,110,0
2,46,0,240
2,42,110,0
2,42,0,480
2,42,110,0
2,42,0,240
2,46,110,0
2,46,0,240
2,42,110,0
2,42,0,480
2,42,110,0
2,42,0,240
2,46,110,0
2,46,0,240
2,42,110,0
2,42,0,480
2,42,110,0
2,42,0,240
2,46,110,0
2,46,0,240
2,42,110,0
2,42,0,480
2,42,110,0
2,42,0,240
2,46,110,0
2,46,0,240
2,42,110,0
2,42,0,480
2,42,110,0
2,42,0,240
2,46,110,0
2,46,0,240
