track,note,velocity,time
0,66,107,672
0,66,111,8
0,68,107,81
0,68,107,3
0,40,127,3
0,66,0,0
0,40,0,4
0,66,0,14
0,40,123,30
0,40,0,4
0,69,119,32
0,69,119,6
0,68,0,3
0,57,78,3
0,35,127,1
0,42,103,0
0,54,99,0
0,61,99,0
0,42,95,2
0,49,99,0
0,49,99,0
0,57,0,1
0,68,0,0
0,35,0,1
0,57,79,89
0,52,63,5
0,61,107,87
0,61,115,1
0,61,107,4
0,40,123,3
0,57,103,0
0,40,0,4
0,54,0,21
0,42,0,23
0,42,0,3
0,49,0,5
0,37,99,25
0,42,103,7
0,49,103,0
0,54,79,4
0,42,91,2
0,35,123,1
0,42,0,3
0,35,0,1
0,61,0,15
0,49,0,2
0,61,0,0
0,61,0,43
0,61,0,15
0,37,0,9
0,38,103,0
0,61,115,2
0,45,87,2
0,50,91,0
0,52,0,0
0,42,0,2
0,35,127,1
0,42,103,0
0,50,95,1
0,54,107,1
0,61,115,0
0,50,103,1
0,35,0,1
0,42,0,0
0,49,0,0
0,57,0,8
0,54,0,12
0,62,119,59
0,69,0,0
0,62,107,9
0,54,0,1
0,57,0,0
0,50,0,1
0,54,91,0
0,42,87,2
0,61,0,0
0,61,0,2
0,42,0,2
0,69,0,9
0,57,99,72
0,64,119,1
0,38,0,2
0,62,0,2
0,57,99,3
0,50,0,1
0,54,111,1
0,64,119,0
0,40,119,1
0,42,103,0
0,50,111,0
0,57,111,0
0,40,0,4
0,42,0,0
0,62,0,8
0,45,0,51
0,38,91,12
0,50,0,2
0,57,95,12
0,45,91,4
0,50,67,0
0,50,87,1
0,42,55,2
0,42,0,4
0,52,64,47
0,50,0,7
0,38,0,21
0,45,0,0
0,33,115,7
0,57,0,2
0,50,0,3
0,45,95,1
0,52,103,0
0,50,0,2
0,35,127,2
0,42,67,0
0,45,107,0
0,52,0,1
0,49,107,1
0,35,0,2
0,42,0,0
0,57,0,4
0,54,0,11
0,54,0,26
0,42,71,51
0,49,91,0
0,52,79,0
0,42,0,4
0,52,83,91
0,42,103,1
0,40,123,1
0,57,107,1
0,42,0,2
0,40,0,1
0,33,0,51
0,45,0,25
0,33,71,4
0,52,0,8
0,52,0,1
0,45,87,1
0,57,99,0
0,35,127,1
0,42,83,0
0,52,87,0
0,33,0,1
0,52,27,1
0,35,0,2
0,42,0,0
0,28,119,84
0,56,103,0
0,49,0,7
0,52,0,0
0,52,0,0
0,57,0,0
0,57,0,0
0,57,0,0
0,35,127,1
0,42,103,0
0,47,99,0
0,49,0,0
0,57,0,0
0,45,0,1
0,59,87,0
0,62,101,0
0,56,107,1
0,35,0,2
0,42,0,0
0,45,0,12
0,56,99,32
0,52,35,1
0,59,67,0
0,52,0,7
0,47,0,1
0,52,0,1
0,47,103,6
0,52,79,0
0,62,0,3
0,56,0,0
0,42,63,1
0,59,0,0
0,56,75,1
0,64,89,0
0,59,99,1
0,59,75,1
0,42,0,1
0,64,0,75
0,64,0,1
0,59,0,8
0,56,0,6
0,56,0,1
0,56,0,0
0,59,0,0
0,59,0,0
0,59,103,0
0,64,0,0
0,42,103,2
0,66,115,0
0,40,119,1
0,66,99,1
0,42,0,2
0,40,0,1
0,47,0,54
0,52,0,2
0,28,0,8
0,68,107,19
0,52,87,2
0,47,99,1
0,68,107,1
0,42,99,3
0,56,35,0
0,66,0,1
0,66,0,0
0,28,111,1
0,59,115,0
0,64,93,0
0,42,0,2
0,28,0,53
0,69,115,27
0,47,0,5
0,49,115,0
0,54,107,1
0,30,115,1
0,69,119,0
0,42,103,3
0,49,107,0
0,68,0,0
0,52,0,1
0,68,0,0
0,59,0,1
0,64,0,0
0,35,127,1
0,42,107,0
0,61,120,0
0,35,0,4
0,42,0,0
0,59,0,0
0,56,0,3
0,52,67,80
0,57,87,4
0,61,79,1
0,42,51,3
0,42,0,4
0,61,0,65
0,61,115,18
0,40,123,9
0,61,119,0
0,42,103,1
0,57,103,0
0,61,111,1
0,40,0,2
0,54,0,0
0,42,0,1
0,42,0,74
0,49,0,1
0,30,0,2
0,54,95,9
0,49,87,1
0,42,91,1
0,37,115,3
0,42,79,0
0,35,123,1
0,42,0,3
0,35,0,1
0,61,0,0
0,49,0,11
0,61,0,4
0,61,0,32
0,61,0,22
0,42,0,7
0,52,0,0
0,57,0,2
0,57,0,4
0,50,95,3
0,49,0,3
0,37,0,1
0,50,99,0
0,45,95,1
0,35,127,1
0,38,123,0
0,42,111,0
0,61,119,2
0,61,115,1
0,35,0,1
0,42,0,0
0,54,0,1
0,57,99,0
0,50,111,2
0,50,0,66
0,57,0,7
0,62,95,3
0,54,87,1
0,61,0,7
0,57,119,3
0,62,111,0
0,50,107,1
0,42,63,1
0,61,0,3
0,42,0,1
0,69,0,23
0,69,0,2
0,57,107,57
0,64,115,0
0,54,0,3
0,64,119,6
0,40,115,1
0,62,0,0
0,42,107,2
0,40,0,2
0,42,0,2
0,62,0,8
0,38,0,31
0,50,0,33
0,50,0,6
0,54,75,1
0,45,0,2
0,50,0,0
0,57,0,0
0,64,106,2
0,38,115,3
0,45,99,3
0,50,91,0
0,42,43,1
0,57,99,0
0,57,83,1
0,50,95,1
0,54,107,0
0,42,0,1
0,54,0,11
0,64,0,0
0,57,0,21
0,50,0,4
0,45,0,3
0,45,87,2
0,50,0,2
0,64,111,0
0,38,0,2
0,54,0,0
0,45,87,2
0,52,91,0
0,49,115,1
0,35,127,1
0,42,99,0
0,33,119,1
0,57,91,0
0,35,0,3
0,42,0,0
0,64,0,72
0,57,0,12
0,49,95,2
0,62,106,0
0,52,99,1
0,42,55,6
0,42,0,4
0,45,0,6
0,62,0,68
0,52,51,7
0,61,104,0
0,40,119,11
0,42,107,0
0,57,115,2
0,40,0,2
0,42,0,0
0,61,0,32
0,33,0,3
0,45,0,3
0,49,0,2
0,52,0,0
0,61,115,3
0,52,0,1
0,57,99,4
0,35,127,5
0,42,122,0
0,45,83,1
0,52,75,0
0,33,111,2
0,35,0,1
0,42,0,0
0,52,75,5
0,40,119,14
0,40,0,4
0,57,0,18
0,52,0,3
0,57,0,13
0,28,115,1
0,52,0,0
0,56,99,0
0,57,0,1
0,45,0,2
0,56,87,0
0,33,0,1
0,57,107,0
0,52,107,1
0,59,63,0
0,49,0,2
0,52,0,0
0,57,91,0
0,35,127,1
0,42,104,0
0,57,0,0
0,52,87,1
0,47,107,1
0,52,71,0
0,35,0,2
0,42,0,0
0,52,0,35
0,28,0,3
0,57,0,0
0,57,0,1
0,59,107,1
0,52,71,1
0,56,87,2
0,59,79,0
0,61,0,22
0,52,0,4
0,47,0,1
0,52,0,1
0,59,0,3
0,59,117,6
0,56,0,1
0,59,0,4
0,52,107,1
0,59,111,0
0,56,83,1
0,59,83,1
0,28,119,1
0,64,99,0
0,42,113,3
0,47,79,0
0,52,83,0
0,42,0,4
0,56,0,52
0,52,0,18
0,64,0,4
0,28,0,3
0,59,0,0
0,64,0,2
0,40,119,3
0,59,103,6
0,52,115,1
0,66,115,0
0,42,111,3
0,56,0,0
0,59,0,0
0,40,119,1
0,52,0,0
0,42,0,3
0,64,95,0
0,66,111,0
0,40,0,1
0,56,0,9
0,59,0,9
0,64,0,5
0,59,0,14
0,64,0,26
0,52,0,7
0,40,0,1
0,59,121,4
0,52,0,1
0,28,115,1
0,47,0,2
0,68,111,6
0,68,111,1
0,52,79,3
0,64,99,0
0,66,0,1
0,42,107,1
0,47,107,1
0,52,91,1
0,42,0,2
0,66,0,2
0,52,0,4
0,64,0,18
0,28,0,3
0,42,115,2
0,49,119,0
0,52,0,1
0,30,115,1
0,61,107,0
0,30,0,1
0,47,0,0
0,30,119,1
0,30,0,1
0,49,107,1
0,69,123,0
0,69,119,2
0,35,127,3
0,54,99,0
0,57,78,0
0,68,0,2
0,35,0,2
0,57,0,0
0,68,0,6
0,59,0,27
0,54,107,56
0,57,79,0
0,42,91,3
0,42,0,4
0,61,115,16
0,61,107,6
0,42,103,2
0,69,0,0
0,40,123,1
0,61,111,0
0,42,0,3
0,57,111,0
0,40,0,1
0,54,0,12
0,49,0,3
0,42,0,3
0,49,0,11
0,42,103,13
0,49,115,0
0,37,115,3
0,54,79,1
0,42,91,1
0,35,123,1
0,42,0,3
0,49,91,0
0,35,0,1
0,61,0,1
0,61,0,14
0,49,0,5
0,42,0,6
0,61,0,4
0,61,0,3
0,57,0,1
0,59,0,0
0,54,0,5
0,61,107,0
0,50,103,1
0,43,107,3
0,45,111,0
0,61,119,2
0,38,115,1
0,37,0,1
0,49,0,0
0,69,0,0
0,54,75,2
0,57,111,0
0,35,127,1
0,42,103,0
0,50,95,1
0,50,103,1
0,35,0,2
0,42,0,0
0,43,0,5
0,57,0,2
0,54,0,12
0,50,0,52
0,57,0,2
0,54,0,2
0,62,119,5
0,61,0,3
0,54,91,6
0,57,111,1
0,62,119,0
0,42,87,1
0,54,103,0
0,50,99,1
0,42,0,3
0,61,0,3
0,57,99,86
0,50,0,1
0,64,115,1
0,40,119,1
0,42,103,0
0,64,115,1
0,40,0,3
0,42,0,0
0,62,0,4
0,62,0,8
0,38,0,24
0,45,0,16
0,50,0,7
0,50,0,4
0,54,0,2
0,57,0,3
0,37,119,13
0,45,115,0
0,50,87,1
0,54,107,1
0,50,103,1
0,57,115,1
0,50,67,4
0,57,91,0
0,42,55,3
0,42,0,4
0,52,64,47
0,50,0,7
0,54,0,7
0,57,95,16
0,50,0,1
0,50,0,1
0,52,91,6
0,33,127,1
0,37,0,3
0,35,127,3
0,42,67,0
0,45,107,0
0,49,111,0
0,52,0,1
0,52,107,2
0,35,0,1
0,42,0,0
0,57,0,4
0,54,0,11
0,42,71,77
0,49,91,0
0,42,0,4
0,57,0,36
0,57,119,51
0,52,83,4
0,42,103,1
0,40,123,1
0,42,0,3
0,40,0,1
0,33,0,27
0,45,0,21
0,49,0,8
0,52,0,6
0,52,0,9
0,52,79,4
0,45,111,1
0,59,103,8
0,33,127,4
0,49,91,1
0,57,0,1
0,57,99,0
0,59,95,0
0,35,127,1
0,42,83,0
0,35,0,4
0,42,0,0
0,57,0,3
0,52,67,3
0,49,0,21
0,52,0,30
0,57,0,8
0,52,0,5
0,45,0,4
0,33,0,6
0,52,3,4
0,28,123,2
0,52,91,0
0,57,111,0
0,47,115,1
0,52,0,4
0,57,0,0
0,35,127,1
0,42,103,0
0,49,0,0
0,45,0,1
0,35,0,3
0,42,0,0
0,57,0,29
0,28,0,4
0,59,103,1
0,52,35,11
0,56,32,0
0,59,67,0
0,52,0,17
0,47,0,1
0,52,0,3
0,52,0,1
0,59,0,1
0,52,99,11
0,59,107,0
0,47,103,1
0,52,103,0
0,28,123,5
0,56,0,6
0,42,63,1
0,59,0,0
0,56,75,1
0,59,75,2
0,42,0,1
0,64,0,35
0,64,0,13
0,28,0,13
0,52,0,3
0,59,0,10
0,59,0,10
0,52,115,2
0,59,119,0
0,66,115,0
0,56,0,4
0,59,103,1
0,66,115,1
0,42,103,1
0,40,119,1
0,42,0,3
0,40,0,1
0,59,0,18
0,47,0,44
0,52,0,0
0,28,123,10
0,68,111,5
0,47,99,4
0,52,79,0
0,66,0,0
0,59,0,1
0,66,0,3
0,68,115,2
0,42,99,3
0,56,35,0
0,42,0,4
0,47,0,60
0,52,0,8
0,59,0,3
0,49,111,6
0,42,107,4
0,49,111,2
0,57,107,2
0,54,107,1
0,69,119,3
0,30,119,2
0,69,115,0
0,35,127,2
0,42,107,0
0,35,0,4
0,42,0,0
0,59,0,0
0,68,0,0
0,56,0,3
0,68,0,0
0,28,0,1
0,49,0,38
0,49,111,31
0,52,0,5
0,57,87,9
0,42,51,4
0,42,0,4
0,52,79,20
0,49,0,7
0,57,0,9
0,61,115,47
0,61,115,7
0,69,0,1
0,40,123,1
0,42,103,1
0,30,0,2
0,40,0,1
0,54,0,0
0,57,99,0
0,42,0,1
0,61,115,2
0,49,87,2
0,69,0,0
0,49,0,55
0,49,0,3
0,42,0,4
0,50,67,19
0,42,87,1
0,54,95,0
0,49,111,1
0,49,103,0
0,37,123,2
0,42,79,2
0,35,123,1
0,42,0,3
0,35,0,1
0,61,0,0
0,52,0,27
0,50,0,4
0,49,0,23
0,61,0,13
0,61,0,5
0,42,0,10
0,57,0,0
0,49,0,2
0,50,95,1
0,57,0,0
0,45,111,1
0,57,115,0
0,61,107,0
0,50,107,1
0,37,0,3
0,50,99,0
0,35,127,1
0,38,123,0
0,42,111,0
0,61,111,3
0,35,0,1
0,42,0,0
0,54,0,1
0,49,115,4
0,54,87,75
0,57,0,1
0,62,119,1
0,49,0,1
0,62,119,5
0,61,0,3
0,42,63,1
0,42,0,4
0,61,0,4
0,57,107,78
0,54,0,3
0,64,119,3
0,40,115,4
0,64,115,1
0,42,107,1
0,40,0,2
0,42,0,2
0,62,0,0
0,62,0,12
0,38,0,35
0,50,0,10
0,45,0,7
0,50,0,4
0,50,0,10
0,54,75,1
0,38,119,5
0,57,99,0
0,50,95,2
0,42,43,4
0,50,83,0
0,45,107,1
0,42,0,3
0,50,0,53
0,45,0,21
0,57,0,0
0,45,87,10
0,54,0,4
0,38,0,1
0,50,0,2
0,35,127,1
0,42,99,0
0,33,123,1
0,52,107,2
0,35,0,1
0,42,0,0
0,45,115,0
0,49,111,1
0,64,0,78
0,52,91,3
0,57,0,0
0,49,95,4
0,57,118,1
0,42,55,5
0,42,0,4
0,49,0,3
0,45,0,4
0,57,0,2
0,52,51,73
0,57,107,6
0,57,115,0
0,64,123,0
0,40,119,4
0,42,107,0
0,40,0,4
0,42,0,0
0,33,0,18
0,45,0,47
0,52,0,6
0,57,99,16
0,52,87,1
0,45,107,1
0,35,127,3
0,42,113,0
0,33,119,1
0,35,0,3
0,42,0,0
0,40,119,45
0,40,0,4
0,52,0,26
0,45,0,3
0,57,0,7
0,59,99,0
0,57,0,2
0,57,0,0
0,64,0,0
0,33,0,1
0,40,123,1
0,59,103,0
0,64,111,0
0,52,95,1
0,49,0,1
0,52,0,0
0,57,91,0
0,35,127,1
0,47,115,0
0,40,119,1
0,52,87,0
0,59,87,0
0,35,0,3
0,40,0,1
0,52,0,34
0,57,0,4
0,52,71,2
0,56,87,2
0,59,79,0
0,47,0,21
0,52,0,2
0,56,0,15
0,59,0,4
0,45,115,2
0,47,115,0
0,56,83,0
0,52,87,1
0,59,83,0
0,45,0,3
0,52,0,69
0,40,0,5
0,52,79,12
0,40,115,11
0,56,0,0
0,59,0,0
0,52,0,1
0,45,119,25
0,45,0,4
0,59,0,12
0,59,39,22
0,41,115,9
0,61,120,2
0,41,0,1
0,64,0,0
0,61,0,15
0,40,0,48
0,42,83,13
0,54,99,2
0,59,0,0
0,61,107,0
0,57,91,1
0,57,78,4
0,61,124,1
0,47,0,1
0,52,0,0
0,59,0,0
0,35,127,2
0,57,66,0
0,57,86,0
0,57,0,0
0,52,0,1
0,35,0,3
0,59,0,0
0,64,0,2
0,54,0,11
0,61,0,13
0,61,112,15
0,42,91,1
0,42,0,4
0,57,0,13
0,61,0,7
0,61,0,16
0,42,0,0
0,61,116,7
0,57,0,2
0,57,0,0
0,54,69,2
0,54,89,0
0,61,103,0
0,57,99,1
0,42,103,2
0,40,123,1
0,42,0,3
0,40,0,1
0,61,0,3
0,37,111,3
0,60,124,5
0,57,68,1
0,57,88,0
0,42,91,1
0,50,43,0
0,50,63,0
0,35,123,1
0,42,0,3
0,35,0,1
0,54,0,0
0,54,0,0
0,57,0,52
0,61,0,29
0,62,111,4
0,54,107,1
0,57,99,0
0,38,103,3
0,37,0,1
0,35,127,1
0,42,103,0
0,35,0,4
0,42,0,0
0,57,0,65
0,57,0,0
0,60,0,2
0,54,72,2
0,54,92,0
0,42,87,1
0,42,0,4
0,50,0,1
0,50,0,0
0,54,0,44
0,62,0,11
0,57,0,5
0,38,0,17
0,54,107,4
0,57,87,0
0,62,87,0
0,40,119,3
0,42,103,0
0,57,52,0
0,57,72,0
0,40,0,4
