track,note,velocity,time
1,28,125,27254
1,64,85,0
1,28,125,196
1,64,85,0
1,28,125,196
1,64,85,0
1,28,125,196
1,64,85,0
1,35,125,196
1,71,85,0
1,35,125,196
1,71,85,0
1,35,125,196
1,71,85,0
1,35,125,196
1,71,85,0
1,30,125,196
1,66,85,0
1,30,125,196
1,66,85,0
1,30,125,196
1,66,85,0
1,30,125,196
1,66,85,0
1,35,125,196
1,71,85,0
1,35,125,196
1,71,85,0
1,35,125,196
1,71,85,0
1,35,125,196
1,71,85,0
1,28,125,196
1,64,85,0
1,28,125,196
1,64,85,0
1,28,125,196
1,64,85,0
1,28,125,196
1,64,85,0
1,35,125,196
1,71,85,0
1,35,125,196
1,71,85,0
1,35,125,196
1,71,85,0
1,35,125,196
1,71,85,0
1,33,125,196
1,69,85,0
1,33,125,196
1,69,85,0
1,33,125,196
1,69,85,0
1,33,125,196
1,69,85,0
1,35,125,196
1,71,85,0
1,35,125,196
1,71,85,0
1,35,125,196
1,71,85,0
1,35,125,196
1,71,85,0
1,28,125,196
1,64,85,0
1,28,125,196
1,64,85,0
1,28,125,196
1,64,85,0
1,28,125,196
1,64,85,0
1,28,125,196
1,64,85,0
1,28,125,196
1,64,85,0
1,28,125,196
1,64,85,0
1,28,125,196
1,64,85,0
1,28,125,196
1,64,85,0
1,28,125,196
1,64,85,0
1,28,125,196
1,64,85,0
1,28,125,196
1,64,85,0
1,28,125,196
1,64,85,0
1,28,125,196
1,64,85,0
1,28,125,196
1,64,85,0
1,28,125,196
1,64,85,0
1,28,125,196
1,64,85,0
1,28,125,196
1,64,85,0
1,28,125,196
1,64,85,0
1,28,125,196
1,64,85,0
1,28,125,196
1,64,85,0
1,28,125,196
1,64,85,0
1,28,125,196
1,64,85,0
1,28,125,196
1,64,85,0
1,28,125,196
1,64,85,0
1,28,125,196
1,64,85,0
1,28,125,196
1,64,85,0
1,28,125,196
1,64,85,0
1,28,125,196
1,64,85,0
1,28,125,196
1,64,85,0
1,28,125,196
1,64,85,0
1,28,125,196
1,64,85,0
1,28,125,1732
1,64,85,0
1,28,125,196
1,64,85,0
1,28,125,196
1,64,85,0
1,28,125,196
1,64,85,0
1,35,125,196
1,71,85,0
1,35,125,196
1,71,85,0
1,35,125,196
1,71,85,0
1,35,125,196
1,71,85,0
1,30,125,196
1,66,85,0
1,30,125,196
1,66,85,0
1,30,125,196
1,66,85,0
1,30,125,196
1,66,85,0
1,35,125,196
1,71,85,0
1,35,125,196
1,71,85,0
1,35,125,196
1,71,85,0
1,35,125,196
1,71,85,0
1,28,125,196
1,64,85,0
1,28,125,196
1,64,85,0
1,28,125,196
1,64,85,0
1,28,125,196
1,64,85,0
1,35,125,196
1,71,85,0
1,35,125,196
1,71,85,0
1,35,125,196
1,71,85,0
1,35,125,196
1,71,85,0
1,33,125,196
1,69,85,0
1,33,125,196
1,69,85,0
1,33,125,196
1,69,85,0
1,33,125,196
1,69,85,0
1,35,125,196
1,71,85,0
1,35,125,196
1,71,85,0
1,35,125,196
1,71,85,0
1,35,125,196
1,71,85,0
1,28,125,196
1,64,85,0
1,28,125,196
1,64,85,0
1,28,125,196
1,64,85,0
1,28,125,196
1,64,85,0
1,35,125,196
1,71,85,0
1,35,125,196
1,71,85,0
1,35,125,196
1,71,85,0
1,35,125,196
1,71,85,0
1,30,125,196
1,66,85,0
1,30,125,196
1,66,85,0
1,30,125,196
1,66,85,0
1,30,125,196
1,66,85,0
1,35,125,196
1,71,85,0
1,35,125,196
1,71,85,0
1,35,125,196
1,71,85,0
1,35,125,196
1,71,85,0
1,28,125,196
1,64,85,0
1,28,125,196
1,64,85,0
1,28,125,196
1,64,85,0
1,28,125,196
1,64,85,0
1,35,125,196
1,71,85,0
1,35,125,196
1,71,85,0
1,35,125,196
1,71,85,0
1,35,125,196
1,71,85,0
1,33,125,196
1,69,85,0
1,33,125,196
1,69,85,0
1,33,125,196
1,69,85,0
1,33,125,196
1,69,85,0
1,35,125,196
1,71,85,0
1,35,125,196
1,71,85,0
1,35,125,196
1,71,85,0
1,35,125,196
1,71,85,0
1,28,125,196
1,64,85,0
1,28,125,196
1,64,85,0
1,28,125,196
1,64,85,0
1,28,125,196
1,64,85,0
1,35,125,196
1,71,85,0
1,35,125,196
1,71,85,0
1,35,125,196
1,71,85,0
1,35,125,196
1,71,85,0
1,30,125,196
1,66,85,0
1,30,125,196
1,66,85,0
1,30,125,196
1,66,85,0
1,30,125,196
1,66,85,0
1,35,125,196
1,71,85,0
1,35,125,196
1,71,85,0
1,35,125,196
1,71,85,0
1,35,125,196
1,71,85,0
1,28,125,196
1,64,85,0
1,28,125,196
1,64,85,0
1,28,125,196
1,64,85,0
1,28,125,196
1,64,85,0
1,35,125,196
1,71,85,0
1,35,125,196
1,71,85,0
1,35,125,196
1,71,85,0
1,35,125,196
1,71,85,0
1,33,125,196
1,69,85,0
1,33,125,196
1,69,85,0
1,33,125,196
1,69,85,0
1,33,125,196
1,69,85,0
1,35,125,196
1,71,85,0
1,35,125,196
1,71,85,0
1,35,125,196
1,71,85,0
1,35,125,196
1,71,85,0
1,28,125,196
1,64,85,0
1,28,125,196
1,64,85,0
1,28,125,196
1,64,85,0
1,28,125,196
1,64,85,0
1,28,125,196
1,64,85,0
1,28,125,196
1,64,85,0
1,28,125,196
1,64,85,0
1,28,125,196
1,64,85,0
1,28,125,196
1,64,85,0
1,28,125,196
1,64,85,0
1,28,125,196
1,64,85,0
1,28,125,196
1,64,85,0
1,28,125,196
1,64,85,0
1,28,125,196
1,64,85,0
1,28,125,196
1,64,85,0
1,28,125,196
1,64,85,0
1,28,125,196
1,64,85,0
1,28,125,196
1,64,85,0
1,28,125,196
1,64,85,0
1,28,125,196
1,64,85,0
1,28,125,196
1,64,85,0
1,28,125,196
1,64,85,0
1,28,125,196
1,64,85,0
1,28,125,196
1,64,85,0
1,28,125,196
1,64,85,0
1,28,125,196
1,64,85,0
1,28,125,196
1,64,85,0
1,28,125,196
1,64,85,0
1,28,125,196
1,64,85,0
1,28,125,196
1,64,85,0
1,28,125,196
1,64,85,0
1,28,125,196
1,64,85,0
1,28,125,1732
1,64,85,0
1,28,125,196
1,64,85,0
1,28,125,196
1,64,85,0
1,28,125,196
1,64,85,0
1,35,125,196
1,71,85,0
1,35,125,196
1,71,85,0
1,35,125,196
1,71,85,0
1,35,125,196
1,71,85,0
1,30,125,196
1,66,85,0
1,30,125,196
1,66,85,0
1,30,125,196
1,66,85,0
1,30,125,196
1,66,85,0
1,35,125,196
1,71,85,0
1,35,125,196
1,71,85,0
1,35,125,196
1,71,85,0
1,35,125,196
1,71,85,0
1,28,125,196
1,64,85,0
1,28,125,196
1,64,85,0
1,28,125,196
1,64,85,0
1,28,125,196
1,64,85,0
1,35,125,196
1,71,85,0
1,35,125,196
1,71,85,0
1,35,125,196
1,71,85,0
1,35,125,196
1,71,85,0
1,33,125,196
1,69,85,0
1,33,125,196
1,69,85,0
1,33,125,196
1,69,85,0
1,33,125,196
1,69,85,0
1,35,125,196
1,71,85,0
1,35,125,196
1,71,85,0
1,35,125,196
1,71,85,0
1,35,125,196
1,71,85,0
1,28,125,196
1,64,85,0
1,28,125,196
1,64,85,0
1,28,125,196
1,64,85,0
1,28,125,196
1,64,85,0
1,35,125,196
1,71,85,0
1,35,125,196
1,71,85,0
1,35,125,196
1,71,85,0
1,35,125,196
1,71,85,0
1,30,125,196
1,66,85,0
1,30,125,196
1,66,85,0
1,30,125,196
1,66,85,0
1,30,125,196
1,66,85,0
1,35,125,196
1,71,85,0
1,35,125,196
1,71,85,0
1,35,125,196
1,71,85,0
1,35,125,196
1,71,85,0
1,28,125,196
1,64,85,0
1,28,125,196
1,64,85,0
1,28,125,196
1,64,85,0
1,28,125,196
1,64,85,0
1,35,125,196
1,71,85,0
1,35,125,196
1,71,85,0
1,35,125,196
1,71,85,0
1,35,125,196
1,71,85,0
1,33,125,196
1,69,85,0
1,33,125,196
1,69,85,0
1,33,125,196
1,69,85,0
1,33,125,196
1,69,85,0
1,35,125,196
1,71,85,0
1,35,125,196
1,71,85,0
1,35,125,196
1,71,85,0
1,35,125,196
1,71,85,0
1,28,125,196
1,64,85,0
1,28,125,196
1,64,85,0
1,28,125,196
1,64,85,0
1,28,125,196
1,64,85,0
1,35,125,196
1,71,85,0
1,35,125,196
1,71,85,0
1,35,125,196
1,71,85,0
1,35,125,196
1,71,85,0
1,30,125,196
1,66,85,0
1,30,125,196
1,66,85,0
1,30,125,196
1,66,85,0
1,30,125,196
1,66,85,0
1,35,125,196
1,71,85,0
1,35,125,196
1,71,85,0
1,35,125,196
1,71,85,0
1,35,125,196
1,71,85,0
1,28,125,196
1,64,85,0
1,28,125,196
1,64,85,0
1,28,125,196
1,64,85,0
1,28,125,196
1,64,85,0
1,35,125,196
1,71,85,0
1,35,125,196
1,71,85,0
1,35,125,196
1,71,85,0
1,35,125,196
1,71,85,0
1,33,125,196
1,69,85,0
1,33,125,196
1,69,85,0
1,33,125,196
1,69,85,0
1,33,125,196
1,69,85,0
1,35,125,196
1,71,85,0
1,35,125,196
1,71,85,0
1,35,125,196
1,71,85,0
1,35,125,196
1,71,85,0
1,28,125,196
1,64,85,0
1,28,125,196
1,64,85,0
1,28,125,196
1,64,85,0
1,28,125,196
1,64,85,0
1,35,125,196
1,71,85,0
1,35,125,196
1,71,85,0
1,35,125,196
1,71,85,0
1,35,125,196
1,71,85,0
1,30,125,196
1,66,85,0
1,30,125,196
1,66,85,0
1,30,125,196
1,66,85,0
1,30,125,196
1,66,85,0
1,35,125,196
1,71,85,0
1,35,125,196
1,71,85,0
1,35,125,196
1,71,85,0
1,35,125,196
1,71,85,0
1,28,125,196
1,64,85,0
1,28,125,196
1,64,85,0
1,28,125,196
1,64,85,0
1,28,125,196
1,64,85,0
1,35,125,196
1,71,85,0
1,35,125,196
1,71,85,0
1,35,125,196
1,71,85,0
1,35,125,196
1,71,85,0
1,33,125,196
1,69,85,0
1,33,125,196
1,69,85,0
1,33,125,196
1,69,85,0
1,33,125,196
1,69,85,0
1,35,125,196
1,71,85,0
1,35,125,196
1,71,85,0
1,35,125,196
1,71,85,0
1,35,125,196
1,71,85,0
1,28,125,24772
1,64,85,0
1,28,125,196
1,64,85,0
1,28,125,196
1,64,85,0
1,28,125,196
1,64,85,0
1,35,125,196
1,71,85,0
1,35,125,196
1,71,85,0
1,35,125,196
1,71,85,0
1,35,125,196
1,71,85,0
1,30,125,196
1,66,85,0
1,30,125,196
1,66,85,0
1,30,125,196
1,66,85,0
1,30,125,196
1,66,85,0
1,35,125,196
1,71,85,0
1,35,125,196
1,71,85,0
1,35,125,196
1,71,85,0
1,35,125,196
1,71,85,0
1,28,125,196
1,64,85,0
1,28,125,196
1,64,85,0
1,28,125,196
1,64,85,0
1,28,125,196
1,64,85,0
1,35,125,196
1,71,85,0
1,35,125,196
1,71,85,0
1,35,125,196
1,71,85,0
1,35,125,196
1,71,85,0
1,33,125,196
1,69,85,0
1,33,125,196
1,69,85,0
1,33,125,196
1,69,85,0
1,33,125,196
1,69,85,0
1,35,125,196
1,71,85,0
1,35,125,196
1,71,85,0
1,35,125,196
1,71,85,0
1,35,125,196
1,71,85,0
1,28,125,196
1,64,85,0
1,28,125,196
1,64,85,0
1,28,125,196
1,64,85,0
1,28,125,196
1,64,85,0
1,35,125,196
1,71,85,0
1,35,125,196
1,71,85,0
1,35,125,196
1,71,85,0
1,35,125,196
1,71,85,0
1,30,125,196
1,66,85,0
1,30,125,196
1,66,85,0
1,30,125,196
1,66,85,0
1,30,125,196
1,66,85,0
1,35,125,196
1,71,85,0
1,35,125,196
1,71,85,0
1,35,125,196
1,71,85,0
1,35,125,196
1,71,85,0
1,28,125,196
1,64,85,0
1,28,125,196
1,64,85,0
1,28,125,196
1,64,85,0
1,28,125,196
1,64,85,0
1,35,125,196
1,71,85,0
1,35,125,196
1,71,85,0
1,35,125,196
1,71,85,0
1,35,125,196
1,71,85,0
1,33,125,196
1,69,85,0
1,33,125,196
1,69,85,0
1,33,125,196
1,69,85,0
1,33,125,196
1,69,85,0
1,35,125,196
1,71,85,0
1,35,125,196
1,71,85,0
1,35,125,196
1,71,85,0
1,35,125,196
1,71,85,0
1,28,125,196
1,64,85,0
1,28,125,196
1,64,85,0
1,28,125,196
1,64,85,0
1,28,125,196
1,64,85,0
1,35,125,196
1,71,85,0
1,35,125,196
1,71,85,0
1,35,125,196
1,71,85,0
1,35,125,196
1,71,85,0
1,30,125,196
1,66,85,0
1,30,125,196
1,66,85,0
1,30,125,196
1,66,85,0
1,30,125,196
1,66,85,0
1,35,125,196
1,71,85,0
1,35,125,196
1,71,85,0
1,35,125,196
1,71,85,0
1,35,125,196
1,71,85,0
1,28,125,196
1,64,85,0
1,28,125,196
1,64,85,0
1,28,125,196
1,64,85,0
1,28,125,196
1,64,85,0
1,35,125,196
1,71,85,0
1,35,125,196
1,71,85,0
1,35,125,196
1,71,85,0
1,35,125,196
1,71,85,0
1,33,125,196
1,69,85,0
1,33,125,196
1,69,85,0
1,33,125,196
1,69,85,0
1,33,125,196
1,69,85,0
1,35,125,196
1,71,85,0
1,35,125,196
1,71,85,0
1,35,125,196
1,71,85,0
1,35,125,196
1,71,85,0
2,52,64,1702
2,68,65,8
2,59,63,4
2,64,63,0
2,47,63,6
2,63,63,0
2,66,63,4
2,42,64,6
2,61,62,18
2,69,64,0
2,47,63,24
2,63,64,0
2,59,65,4
2,52,64,6
2,64,63,16
2,68,63,4
2,47,63,14
2,66,65,14
2,63,62,6
2,45,62,14
2,57,63,6
2,61,64,0
2,64,63,0
2,47,65,22
2,63,65,16
2,59,63,2
2,66,63,2
2,52,64,2
2,68,65,8
2,64,63,4
2,47,63,6
2,63,63,0
2,66,63,4
2,42,64,6
2,61,62,18
2,69,64,0
2,47,63,24
2,63,64,0
2,59,65,4
2,52,64,6
2,64,63,16
2,68,63,4
2,47,63,14
2,66,65,14
2,63,62,6
2,45,62,14
2,57,63,6
2,61,64,0
2,64,63,0
2,47,65,22
2,63,65,16
2,59,63,2
2,66,63,2
2,52,64,2
2,68,65,8
2,64,63,4
2,47,56,6
2,63,56,0
2,66,56,4
2,42,57,6
2,61,55,18
2,69,57,0
2,47,56,24
2,63,57,0
2,59,58,4
2,52,57,6
2,64,56,16
2,68,56,4
2,47,56,14
2,66,58,14
2,63,55,6
2,45,55,14
2,57,56,6
2,61,57,0
2,64,56,0
2,47,58,22
2,63,58,16
2,59,56,2
2,66,56,2
2,52,57,13826
2,68,58,8
2,59,56,4
2,64,56,0
2,47,56,6
2,63,56,0
2,66,56,4
2,42,57,6
2,61,55,18
2,69,57,0
2,47,56,24
2,63,57,0
2,59,58,4
2,52,57,6
2,64,56,16
2,68,56,4
2,47,56,14
2,66,58,14
2,63,55,6
2,45,55,14
2,57,56,6
2,61,57,0
2,64,56,0
2,47,58,22
2,63,58,16
2,59,56,2
2,66,56,2
2,52,57,2
2,68,58,8
2,64,56,4
2,47,56,6
2,63,56,0
2,66,56,4
2,42,57,6
2,61,55,18
2,69,57,0
2,47,56,24
2,63,57,0
2,59,58,4
2,52,57,6
2,64,56,16
2,68,56,4
2,47,56,14
2,66,58,14
2,63,55,6
2,45,55,14
2,57,56,6
2,61,57,0
2,64,56,0
2,47,58,22
2,63,58,16
2,59,56,2
2,66,56,2
2,52,57,2
2,68,58,8
2,64,56,4
2,47,56,6
2,63,56,0
2,66,56,4
2,42,57,6
2,61,55,18
2,69,57,0
2,47,56,24
2,63,57,0
2,59,58,4
2,52,57,6
2,64,56,16
2,68,56,4
2,47,56,14
2,66,58,14
2,63,55,6
2,45,55,14
2,57,56,6
2,61,57,0
2,64,56,0
2,47,58,22
2,63,58,16
2,59,56,2
2,66,56,2
2,52,57,13826
2,68,58,8
2,59,56,4
2,64,56,0
2,47,56,6
2,63,56,0
2,66,56,4
2,42,57,6
2,61,55,18
2,69,57,0
