track,note,velocity,time
0,41,88,330
0,64,92,18
0,57,45,109
0,60,45,0
0,64,45,0
0,64,0,9
0,62,89,10
0,41,0,3
0,69,102,2
0,81,99,0
0,93,122,0
0,69,0,94
0,81,0,0
0,93,0,0
0,71,102,2
0,83,99,0
0,95,122,0
0,71,0,57
0,83,0,0
0,95,0,0
0,69,102,2
0,81,99,0
0,93,122,0
0,62,0,23
0,69,0,71
0,81,0,0
0,93,0,0
0,72,102,2
0,84,99,0
0,96,122,0
0,72,0,94
0,84,0,0
0,96,0,0
0,69,102,2
0,81,99,0
0,93,122,0
0,69,0,94
0,81,0,0
0,93,0,0
0,71,102,2
0,83,99,0
0,95,122,0
0,71,0,35
0,83,0,0
0,95,0,0
0,69,102,2
0,81,99,0
0,93,122,0
0,69,0,94
0,81,0,0
0,93,0,0
0,72,102,2
0,84,99,0
0,96,122,0
0,57,0,70
0,60,0,0
0,64,0,0
0,57,45,2
0,60,45,0
0,65,45,0
0,72,0,22
0,84,0,0
0,96,0,0
0,69,102,2
0,81,99,0
0,93,122,0
0,69,0,94
0,81,0,0
0,93,0,0
0,71,102,2
0,83,99,0
0,95,122,0
0,71,0,94
0,83,0,0
0,95,0,0
0,69,102,2
0,81,99,0
0,93,122,0
0,69,0,94
0,81,0,0
0,93,0,0
0,72,102,2
0,84,99,0
0,96,122,0
0,57,0,70
0,60,0,0
0,65,0,0
0,55,45,2
0,59,45,0
0,62,45,0
0,72,0,22
0,84,0,0
0,96,0,0
0,69,102,2
0,81,99,0
0,93,122,0
0,69,0,94
0,81,0,0
0,93,0,0
0,71,102,2
0,83,99,0
0,95,122,0
0,71,0,94
0,83,0,0
0,95,0,0
0,69,102,2
0,81,99,0
0,93,122,0
0,69,0,94
0,81,0,0
0,93,0,0
0,72,102,2
0,84,99,0
0,96,122,0
0,55,0,70
0,59,0,0
0,62,0,0
0,57,45,2
0,60,45,0
0,64,45,0
0,72,0,22
0,84,0,0
0,96,0,0
0,69,102,2
0,81,99,0
0,93,122,0
0,69,0,94
0,81,0,0
0,93,0,0
0,71,102,2
0,83,99,0
0,95,122,0
0,71,0,94
0,83,0,0
0,95,0,0
0,69,102,2
0,81,99,0
0,93,122,0
0,69,0,94
0,81,0,0
0,93,0,0
0,72,102,2
0,84,99,0
0,96,122,0
0,72,0,94
0,84,0,0
0,96,0,0
0,69,102,2
0,81,99,0
0,93,122,0
0,69,0,94
0,81,0,0
0,93,0,0
0,71,102,2
0,83,99,0
0,95,122,0
0,71,0,94
0,83,0,0
0,95,0,0
0,69,102,2
0,81,99,0
0,93,122,0
0,69,0,94
0,81,0,0
0,93,0,0
0,72,102,2
0,84,99,0
0,96,122,0
0,57,0,70
0,60,0,0
0,64,0,0
0,57,45,2
0,60,45,0
0,65,45,0
0,72,0,22
0,84,0,0
0,96,0,0
0,69,102,2
0,81,99,0
0,93,122,0
0,69,0,94
0,81,0,0
0,93,0,0
0,71,102,2
0,83,99,0
0,95,122,0
0,71,0,94
0,83,0,0
0,95,0,0
0,69,102,2
0,81,99,0
0,93,122,0
0,69,0,94
0,81,0,0
0,93,0,0
0,72,102,2
0,84,99,0
0,96,122,0
0,57,0,70
0,60,0,0
0,65,0,0
0,55,45,2
0,59,45,0
0,62,45,0
0,72,0,22
0,84,0,0
0,96,0,0
0,69,102,2
0,81,99,0
0,93,122,0
0,69,0,94
0,81,0,0
0,93,0,0
0,71,102,2
0,83,99,0
0,95,122,0
0,71,0,94
0,83,0,0
0,95,0,0
0,69,102,2
0,81,99,0
0,93,122,0
0,69,0,94
0,81,0,0
0,93,0,0
0,72,102,2
0,84,99,0
0,96,122,0
0,55,0,70
0,59,0,0
0,62,0,0
0,57,45,2
0,60,45,0
0,64,45,0
0,72,0,22
0,84,0,0
0,96,0,0
0,69,102,2
0,81,99,0
0,93,122,0
0,69,0,94
0,81,0,0
0,93,0,0
0,71,102,2
0,83,99,0
0,95,122,0
0,71,0,94
0,83,0,0
0,95,0,0
0,69,102,2
0,81,99,0
0,93,122,0
0,69,0,94
0,81,0,0
0,93,0,0
0,72,102,2
0,84,99,0
0,96,122,0
0,72,0,94
0,84,0,0
0,96,0,0
0,69,102,2
0,81,99,0
0,93,122,0
0,69,0,94
0,81,0,0
0,93,0,0
0,71,102,2
0,83,99,0
0,95,122,0
0,71,0,94
0,83,0,0
0,95,0,0
0,69,102,2
0,81,99,0
0,93,122,0
0,69,0,94
0,81,0,0
0,93,0,0
0,72,102,2
0,84,99,0
0,96,122,0
0,57,0,70
0,60,0,0
0,64,0,0
0,57,45,2
0,60,45,0
0,65,45,0
0,72,0,22
0,84,0,0
0,96,0,0
0,69,102,2
0,81,99,0
0,93,122,0
0,69,0,94
0,81,0,0
0,93,0,0
0,71,102,2
0,83,99,0
0,95,122,0
0,71,0,94
0,83,0,0
0,95,0,0
0,69,102,2
0,81,99,0
0,93,122,0
0,69,0,94
0,81,0,0
0,93,0,0
0,72,102,2
0,84,99,0
0,96,122,0
0,57,0,70
0,60,0,0
0,65,0,0
0,55,45,2
0,59,45,0
0,62,45,0
0,72,0,22
0,84,0,0
0,96,0,0
0,69,102,2
0,81,99,0
0,93,122,0
0,69,0,94
0,81,0,0
0,93,0,0
0,71,102,2
0,83,99,0
0,95,122,0
0,71,0,94
0,83,0,0
0,95,0,0
0,69,102,2
0,81,99,0
0,93,122,0
0,69,0,94
0,81,0,0
0,93,0,0
0,72,102,2
0,84,99,0
0,96,122,0
0,55,0,70
0,59,0,0
0,62,0,0
0,57,45,2
0,60,45,0
0,64,45,0
0,72,0,22
0,84,0,0
0,96,0,0
0,52,49,2
0,69,102,0
0,81,99,0
0,93,122,0
0,52,0,4
0,69,0,90
0,81,0,0
0,93,0,0
0,71,102,2
0,83,99,0
0,95,122,0
0,71,0,94
0,83,0,0
0,95,0,0
0,69,102,2
0,81,99,0
0,93,122,0
0,69,0,94
0,81,0,0
0,93,0,0
0,72,102,2
0,84,99,0
0,96,122,0
0,72,0,94
0,84,0,0
0,96,0,0
0,69,102,2
0,81,99,0
0,93,122,0
0,69,0,94
0,81,0,0
0,93,0,0
0,71,102,2
0,83,99,0
0,95,122,0
0,62,95,82
0,71,0,12
0,83,0,0
0,95,0,0
0,69,102,2
0,81,99,0
0,93,122,0
0,62,0,70
0,64,95,15
0,69,0,9
0,81,0,0
0,93,0,0
0,72,102,2
0,84,99,0
0,96,122,0
0,64,0,61
0,57,0,9
0,60,0,0
0,64,0,0
0,57,45,2
0,60,45,0
0,65,45,0
0,62,90,12
0,72,0,10
0,84,0,0
0,96,0,0
0,69,102,2
0,81,99,0
0,93,122,0
0,67,93,9
0,69,0,3
0,81,0,0
0,93,0,0
0,71,102,2
0,83,99,0
0,95,122,0
0,62,0,66
0,71,0,12
0,83,0,0
0,95,0,0
0,69,102,2
0,81,99,0
0,93,122,0
0,69,0,94
0,81,0,0
0,93,0,0
0,72,102,2
0,84,99,0
0,96,122,0
0,57,0,70
0,60,0,0
0,65,0,0
0,55,45,2
0,59,45,0
0,62,45,0
0,72,0,22
0,84,0,0
0,96,0,0
0,69,102,2
0,81,99,0
0,93,122,0
0,69,0,91
0,81,0,0
0,93,0,0
0,71,102,2
0,83,99,0
0,95,122,0
0,71,0,94
0,83,0,0
0,95,0,0
0,69,102,2
0,81,99,0
0,93,122,0
0,69,0,94
0,81,0,0
0,93,0,0
0,72,102,2
0,84,99,0
0,96,122,0
0,55,0,70
0,59,0,0
0,62,0,0
0,57,45,2
0,60,45,0
0,64,45,0
0,72,0,22
0,84,0,0
0,96,0,0
0,27,110,2
0,33,127,0
0,36,110,0
0,42,49,0
0,54,52,0
0,57,68,0
0,69,102,0
0,81,99,0
0,93,122,0
0,27,0,4
0,36,0,0
0,42,0,0
0,54,0,0
0,57,0,0
0,67,0,10
0,42,67,34
0,54,52,0
0,42,0,4
0,54,0,0
0,33,0,42
0,69,0,0
0,81,0,0
0,93,0,0
0,28,67,2
0,45,127,0
0,46,60,0
0,54,87,0
0,71,102,0
0,83,99,0
0,95,122,0
0,28,0,4
0,46,0,0
0,54,0,0
0,54,52,44
0,54,0,4
0,45,0,42
0,71,0,0
0,83,0,0
0,95,0,0
0,27,110,2
0,33,127,0
0,36,110,0
0,42,49,0
0,54,52,0
0,69,102,0
0,81,99,0
0,93,122,0
0,27,0,4
0,36,0,0
0,42,0,0
0,54,0,0
0,42,67,44
0,54,52,0
0,42,0,4
0,54,0,0
0,33,0,42
0,69,0,0
0,81,0,0
0,93,0,0
0,28,67,2
0,45,127,0
0,46,60,0
0,54,87,0
0,72,102,0
0,84,99,0
0,96,122,0
0,28,0,4
0,46,0,0
0,54,0,0
0,54,52,44
0,54,0,4
0,45,0,42
0,72,0,0
0,84,0,0
0,96,0,0
0,27,110,2
0,33,127,0
0,36,110,0
0,42,49,0
0,54,52,0
0,69,102,0
0,81,99,0
0,93,122,0
0,27,0,4
0,36,0,0
0,42,0,0
0,54,0,0
0,42,67,44
0,54,52,0
0,42,0,4
0,54,0,0
0,33,0,42
0,69,0,0
0,81,0,0
0,93,0,0
0,28,67,2
0,45,127,0
0,46,60,0
0,54,87,0
0,71,102,0
0,83,99,0
0,95,122,0
0,28,0,4
0,46,0,0
0,54,0,0
0,54,52,44
0,54,0,4
0,45,0,42
0,71,0,0
0,83,0,0
0,95,0,0
0,27,110,2
0,33,127,0
0,36,110,0
0,42,49,0
0,54,52,0
0,69,102,0
0,81,99,0
0,93,122,0
0,27,0,4
0,36,0,0
0,42,0,0
0,54,0,0
0,42,67,44
0,54,52,0
0,42,0,4
0,54,0,0
0,33,0,42
0,69,0,0
0,81,0,0
0,93,0,0
0,28,67,2
0,45,127,0
0,46,60,0
0,54,87,0
0,72,102,0
0,84,99,0
0,96,122,0
0,28,0,4
0,46,0,0
0,54,0,0
0,54,52,44
0,54,0,4
0,57,0,18
0,60,0,0
0,64,0,0
0,57,45,2
0,60,45,0
0,65,45,0
0,45,0,22
0,72,0,0
0,84,0,0
0,96,0,0
0,27,110,2
0,29,127,0
0,36,110,0
0,42,49,0
0,54,52,0
0,69,102,0
0,81,99,0
0,93,122,0
0,27,0,4
0,36,0,0
0,42,0,0
0,54,0,0
0,42,67,44
0,54,52,0
0,42,0,4
0,54,0,0
0,29,0,42
0,69,0,0
0,81,0,0
0,93,0,0
0,28,67,2
0,41,127,0
0,46,60,0
0,54,87,0
0,71,102,0
0,83,99,0
0,95,122,0
0,28,0,4
0,46,0,0
0,54,0,0
0,54,52,44
0,54,0,4
0,41,0,42
0,71,0,0
0,83,0,0
0,95,0,0
0,27,110,2
0,29,127,0
0,36,110,0
0,42,49,0
0,54,52,0
0,69,102,0
0,81,99,0
0,93,122,0
0,27,0,4
0,36,0,0
0,42,0,0
0,54,0,0
0,42,67,44
0,54,52,0
0,42,0,4
0,54,0,0
0,29,0,42
0,69,0,0
0,81,0,0
0,93,0,0
0,28,67,2
0,41,127,0
0,46,60,0
0,54,87,0
0,72,102,0
0,84,99,0
0,96,122,0
0,28,0,4
0,46,0,0
0,54,0,0
0,54,52,44
0,54,0,4
0,57,0,18
0,60,0,0
0,65,0,0
0,55,45,2
0,59,45,0
0,62,45,0
0,41,0,22
0,72,0,0
0,84,0,0
0,96,0,0
0,27,110,2
0,31,127,0
0,36,110,0
0,42,49,0
0,54,52,0
0,69,102,0
0,81,99,0
0,93,122,0
0,27,0,4
0,36,0,0
0,42,0,0
0,54,0,0
0,42,67,44
0,54,52,0
0,42,0,4
0,54,0,0
0,31,0,42
0,69,0,0
0,81,0,0
0,93,0,0
0,28,67,2
0,43,127,0
0,46,60,0
0,54,87,0
0,71,102,0
0,83,99,0
0,95,122,0
0,28,0,4
0,46,0,0
0,54,0,0
0,54,52,44
0,54,0,4
0,43,0,42
0,71,0,0
0,83,0,0
0,95,0,0
0,27,110,2
0,31,127,0
0,36,110,0
0,42,49,0
0,54,52,0
0,69,102,0
0,81,99,0
0,93,122,0
0,27,0,4
0,36,0,0
0,42,0,0
0,54,0,0
0,42,67,44
0,54,52,0
0,42,0,4
0,54,0,0
0,31,0,42
0,69,0,0
0,81,0,0
0,93,0,0
0,27,110,2
0,28,67,0
0,36,110,0
0,43,127,0
0,46,60,0
0,54,87,0
0,72,102,0
0,84,99,0
0,96,122,0
0,27,0,4
0,28,0,0
0,36,0,0
0,46,0,0
0,54,0,0
0,54,52,44
0,54,0,4
0,55,0,18
0,59,0,0
0,62,0,0
0,57,45,2
0,60,45,0
0,64,45,0
0,43,0,22
0,72,0,0
0,84,0,0
0,96,0,0
0,27,110,2
0,33,127,0
0,36,110,0
0,42,49,0
0,54,52,0
0,69,102,0
0,81,99,0
0,93,122,0
0,27,0,4
0,36,0,0
0,42,0,0
0,54,0,0
0,42,67,44
0,54,52,0
0,42,0,4
0,54,0,0
0,33,0,42
0,69,0,0
0,81,0,0
0,93,0,0
0,28,67,2
0,45,127,0
0,46,60,0
0,54,87,0
0,71,102,0
0,83,99,0
0,95,122,0
0,28,0,4
0,46,0,0
0,54,0,0
0,54,52,44
0,54,0,4
0,45,0,42
0,71,0,0
0,83,0,0
0,95,0,0
0,27,110,2
0,33,127,0
0,36,110,0
0,42,49,0
0,54,52,0
0,69,102,0
0,81,99,0
0,93,122,0
0,27,0,4
0,36,0,0
0,42,0,0
0,54,0,0
0,42,67,44
0,54,52,0
0,42,0,4
0,54,0,0
0,33,0,42
0,69,0,0
0,81,0,0
0,93,0,0
0,28,67,2
0,45,127,0
0,46,60,0
0,54,87,0
0,72,102,0
0,84,99,0
0,96,122,0
0,28,0,4
0,46,0,0
0,54,0,0
0,54,52,44
0,54,0,4
0,45,0,42
0,72,0,0
0,84,0,0
0,96,0,0
0,27,110,2
0,33,127,0
0,36,110,0
0,42,49,0
0,54,52,0
0,69,102,0
0,81,99,0
0,93,122,0
0,27,0,4
0,36,0,0
0,42,0,0
0,54,0,0
0,42,67,44
0,54,52,0
0,42,0,4
0,54,0,0
0,33,0,42
0,69,0,0
0,81,0,0
0,93,0,0
0,28,67,2
0,45,127,0
0,46,60,0
0,54,87,0
0,71,102,0
0,83,99,0
0,95,122,0
0,28,0,4
0,46,0,0
0,54,0,0
0,54,52,44
0,54,0,4
0,45,0,42
0,71,0,0
0,83,0,0
0,95,0,0
0,27,110,2
0,33,127,0
0,36,110,0
0,42,49,0
0,54,52,0
0,69,102,0
0,81,99,0
0,93,122,0
0,27,0,4
0,36,0,0
0,42,0,0
0,54,0,0
0,42,67,44
0,54,52,0
0,42,0,4
0,54,0,0
0,33,0,42
0,69,0,0
0,81,0,0
0,93,0,0
0,28,67,2
0,45,127,0
0,46,60,0
0,54,87,0
0,72,102,0
0,84,99,0
0,96,122,0
0,28,0,4
0,46,0,0
0,54,0,0
0,54,52,44
0,54,0,4
0,57,0,18
0,60,0,0
0,64,0,0
0,57,45,2
0,60,45,0
0,65,45,0
0,45,0,22
0,72,0,0
0,84,0,0
0,96,0,0
0,27,110,2
0,29,127,0
0,36,110,0
0,42,49,0
0,54,52,0
0,69,102,0
0,93,122,0
0,27,0,4
0,36,0,0
0,42,0,0
0,54,0,0
0,57,68,1
0,57,0,4
0,42,67,39
0,54,52,0
0,42,0,4
0,54,0,0
0,29,0,42
0,69,0,0
0,93,0,0
0,28,67,2
0,41,127,0
0,46,60,0
0,54,87,0
0,71,102,0
0,95,122,0
0,28,0,4
0,46,0,0
0,54,0,0
0,54,52,44
0,54,0,4
0,41,0,42
0,71,0,0
0,95,0,0
0,27,110,2
0,29,127,0
0,36,110,0
0,40,60,0
0,42,49,0
0,54,52,0
0,69,102,0
0,93,122,0
0,57,65,2
0,27,0,2
0,36,0,0
0,40,0,0
0,42,0,0
0,54,0,0
0,57,0,2
0,40,61,42
0,42,67,0
0,54,52,0
0,40,0,4
0,42,0,0
0,54,0,0
0,29,0,42
0,69,0,0
0,93,0,0
0,28,67,2
0,40,62,0
0,41,127,0
0,46,60,0
0,54,87,0
