track,note,velocity,time
1,36,117,3072
1,36,117,68
1,31,117,20
1,31,117,64
1,36,117,16
1,36,117,76
1,31,117,16
1,31,117,68
1,36,117,20
1,36,117,64
1,31,117,4
1,31,117,52
1,36,117,944
1,36,117,60
1,31,117,12
1,36,117,1104
1,36,117,64
1,31,117,892
1,31,117,56
1,36,117,24
1,36,117,68
1,41,117,8
1,41,117,28
1,36,117,40
1,36,117,64
1,31,117,12
1,31,117,60
1,36,117,16
1,36,117,80
1,31,117,8
1,31,117,88
1,36,117,32
1,36,117,44
1,31,117,936
1,31,117,52
1,36,117,0
1,36,117,52
1,41,117,956
1,41,117,44
1,36,117,4
1,36,117,80
1,31,117,908
1,31,117,84
1,36,117,20
1,36,117,64
1,31,117,916
1,31,117,40
1,36,117,128
1,36,117,64
1,31,117,892
1,31,117,56
1,36,117,24
1,36,117,68
1,41,117,8
1,41,117,28
1,36,117,40
1,36,117,64
1,31,117,12
1,31,117,60
1,36,117,16
1,36,117,80
1,31,117,8
1,31,117,88
1,36,117,32
1,36,117,44
1,31,117,936
1,31,117,52
1,36,117,0
1,36,117,52
1,41,117,956
1,41,117,44
1,36,117,4
1,36,117,80
1,31,117,908
1,31,117,84
1,36,117,20
1,36,117,64
1,31,117,916
1,31,117,40
1,41,117,128
1,41,117,60
1,36,117,36
1,41,117,40
1,41,117,52
1,36,117,736
1,39,117,48
1,39,117,84
1,36,117,12
1,42,117,32
1,39,117,36
1,42,117,548
1,36,117,16
1,35,117,744
1,36,117,12
1,38,117,0
1,36,117,384
1,35,117,0
1,36,117,20
1,31,117,8
1,33,117,372
1,35,117,352
1,36,117,360
1,35,117,4
1,33,117,360
1,31,117,352
1,33,117,340
1,38,117,4
1,40,117,8
1,41,117,364
1,40,117,340
1,43,117,0
1,36,117,1468
1,36,117,64
1,31,117,892
1,31,117,56
1,36,117,24
1,36,117,68
1,41,117,8
1,41,117,28
1,36,117,40
1,36,117,64
1,31,117,12
1,31,117,60
1,36,117,16
1,36,117,80
1,31,117,8
1,31,117,88
1,36,117,32
1,36,117,44
1,31,117,936
1,31,117,52
1,36,117,0
1,36,117,52
1,41,117,956
1,41,117,44
1,36,117,4
1,36,117,80
1,31,117,908
1,31,117,84
1,36,117,20
1,36,117,64
1,31,117,916
1,31,117,40
1,36,117,128
1,36,117,64
1,31,117,892
1,31,117,56
1,36,117,24
1,36,117,68
1,41,117,8
1,41,117,28
1,36,117,40
1,36,117,64
1,31,117,12
1,31,117,60
1,36,117,16
1,36,117,80
1,31,117,8
1,31,117,88
1,36,117,32
1,36,117,44
1,31,117,936
1,31,117,52
1,36,117,0
1,36,117,52
1,41,117,956
1,41,117,44
1,36,117,4
1,36,117,80
1,31,117,908
1,31,117,84
1,36,117,20
1,36,117,64
1,31,117,916
1,31,117,40
1,41,117,128
1,41,117,60
1,36,117,36
1,41,117,40
1,41,117,52
1,36,117,736
1,39,117,48
1,39,117,84
1,36,117,12
1,42,117,32
1,39,117,36
1,42,117,548
1,36,117,16
1,35,117,744
1,36,117,12
1,38,117,0
1,36,117,384
1,35,117,0
1,36,117,20
1,31,117,8
1,33,117,372
1,35,117,352
1,36,117,360
1,35,117,4
1,33,117,360
1,31,117,352
1,33,117,340
1,38,117,4
1,40,117,8
1,41,117,364
1,40,117,340
1,43,117,0
1,36,117,1468
1,36,117,64
1,31,117,892
1,31,117,56
1,36,117,24
1,36,117,68
1,41,117,8
1,41,117,28
1,36,117,40
1,36,117,64
1,31,117,12
1,31,117,60
1,36,117,16
1,36,117,80
1,31,117,8
1,31,117,88
1,36,117,32
1,36,117,44
1,31,117,936
1,31,117,52
1,36,117,0
1,36,117,52
1,41,117,956
1,41,117,44
1,36,117,4
1,36,117,80
1,31,117,908
1,36,117,1020
1,36,117,68
1,31,117,20
1,31,117,64
1,36,117,16
1,36,117,76
1,31,117,16
1,31,117,68
1,36,117,20
1,36,117,64
1,31,117,4
1,31,117,52
1,36,117,944
1,36,117,2
1,36,117,572
1,31,117,20
1,31,117,64
1,36,117,16
2,76,64,3072
2,79,64,0
2,72,64,596
2,74,64,36
2,77,64,4
2,72,64,16
2,74,64,12
2,72,64,32
2,76,64,4
2,79,64,608
2,74,64,12
2,77,64,20
2,72,64,16
2,74,64,4
2,76,64,20
2,72,64,12
2,79,64,620
2,74,64,4
2,77,64,24
2,72,64,12
2,74,64,576
2,76,64,36
2,72,64,20
2,79,64,580
2,74,64,28
2,71,64,8
2,79,64,20
2,72,64,1328
2,76,64,0
2,72,64,16
2,76,64,112
2,71,64,16
2,76,64,88
2,72,64,20
2,77,64,80
2,72,64,8
2,72,64,104
2,76,64,12
2,71,64,28
2,74,64,24
2,72,64,88
2,76,64,16
2,71,64,88
2,76,64,8
2,76,64,72
2,72,64,12
2,71,64,96
2,76,64,12
2,76,64,112
2,72,64,8
2,77,64,88
2,72,64,4
2,72,64,76
2,76,64,4
2,71,64,24
2,74,64,12
2,72,64,88
2,76,64,12
2,76,64,108
2,71,64,4
2,72,64,232
2,76,64,0
2,71,64,60
2,76,64,20
2,76,64,88
2,72,64,8
2,72,64,116
2,77,64,20
2,72,64,40
2,76,64,24
2,71,64,4
2,74,64,0
2,72,64,76
2,76,64,16
2,71,64,60
2,76,64,16
2,76,64,72
2,72,64,12
2,76,64,44
2,71,64,8
2,76,64,68
2,72,64,20
2,72,64,92
2,77,64,16
2,72,64,20
2,76,64,40
2,71,64,28
2,74,64,12
2,72,64,104
2,76,64,24
2,70,64,100
2,74,64,16
2,77,64,116
2,81,64,0
2,75,64,12
2,78,64,0
2,76,64,32
2,72,64,4
2,71,64,40
2,74,64,8
2,72,64,24
2,76,64,16
2,72,64,64
2,77,64,12
2,76,64,52
2,71,64,48
2,74,64,16
2,72,64,48
2,76,64,4
2,71,64,88
2,74,64,0
2,79,64,0
2,72,64,116
2,69,64,4
2,77,64,0
2,71,64,104
2,74,64,4
2,79,64,0
2,72,64,1340
2,76,64,0
2,72,64,16
2,76,64,112
2,71,64,16
2,76,64,88
2,72,64,20
2,77,64,80
2,72,64,8
2,72,64,104
2,76,64,12
2,71,64,28
2,74,64,24
2,72,64,88
2,76,64,16
2,71,64,88
2,76,64,8
2,76,64,72
2,72,64,12
2,71,64,96
2,76,64,12
2,76,64,112
2,72,64,8
2,77,64,88
2,72,64,4
2,72,64,76
2,76,64,4
2,71,64,24
2,74,64,12
2,72,64,88
2,76,64,12
2,76,64,108
2,71,64,4
2,72,64,232
2,76,64,0
2,71,64,60
2,76,64,20
2,76,64,88
2,72,64,8
2,72,64,116
2,77,64,20
2,72,64,40
2,76,64,24
2,71,64,4
2,74,64,0
2,72,64,76
2,76,64,16
2,71,64,60
2,76,64,16
2,76,64,72
2,72,64,12
2,76,64,44
2,71,64,8
2,76,64,68
2,72,64,20
2,72,64,92
2,77,64,16
2,72,64,20
2,76,64,40
2,71,64,28
2,74,64,12
2,72,64,104
2,76,64,24
2,70,64,100
2,74,64,16
2,77,64,116
2,81,64,0
2,75,64,12
2,78,64,0
2,76,64,32
2,72,64,4
2,71,64,40
2,74,64,8
2,72,64,24
2,76,64,16
2,72,64,64
2,77,64,12
2,76,64,52
2,71,64,48
2,74,64,16
2,72,64,48
2,76,64,4
2,71,64,88
2,74,64,0
2,79,64,0
2,72,64,116
2,69,64,4
2,77,64,0
2,71,64,104
2,74,64,4
2,79,64,0
2,72,64,1340
2,76,64,0
2,71,64,60
2,76,64,20
2,76,64,88
2,72,64,8
2,72,64,116
2,77,64,20
2,72,64,40
2,76,64,24
2,71,64,4
2,74,64,0
2,72,64,76
2,76,64,16
2,71,64,60
2,76,64,16
2,76,64,72
2,72,64,12
2,76,64,44
2,71,64,8
2,76,64,68
2,72,64,20
2,72,64,92
2,77,64,16
2,72,64,20
2,76,64,40
2,71,64,28
2,74,64,12
2,76,64,1164
2,79,64,0
2,72,64,596
2,74,64,36
2,77,64,4
2,72,64,16
2,74,64,12
2,72,64,32
2,76,64,4
2,79,64,608
2,74,64,12
2,77,64,20
2,72,64,16
2,74,64,4
2,76,64,20
2,72,64,12
2,79,64,620
2,74,64,4
2,77,64,24
2,72,64,12
2,74,64,576
2,76,64,24
2,79,64,0
2,72,64,596
2,74,64,36
2,77,64,4
2,72,64,16
2,74,64,12
2,60,64,32
2,76,64,0
2,79,64,0
3,76,73,38772
3,76,73,104
3,77,73,8
3,79,73,380
3,88,73,24
3,86,73,788
3,84,73,344
3,79,73,8
3,84,73,20
3,83,73,432
3,81,73,372
3,79,73,376
3,76,73,568
3,77,73,12
3,76,73,0
3,74,73,380
3,79,73,364
3,76,73,408
3,76,73,92
3,77,73,384
3,79,73,372
3,88,73,28
3,88,73,64
3,86,73,4
3,84,73,12
3,79,73,4
3,81,73,12
3,84,73,8
3,83,73,380
3,81,73,380
3,79,73,380
3,76,73,556
3,77,73,20
3,76,73,392
3,74,73,24
3,72,73,364
3,76,73,15536
3,76,73,104
3,77,73,8
3,79,73,380
3,88,73,24
3,86,73,788
3,84,73,344
3,79,73,8
3,84,73,20
3,83,73,432
3,81,73,372
3,79,73,376
3,76,73,568
3,77,73,12
3,76,73,0
3,74,73,380
3,79,73,364
3,76,73,408
3,76,73,92
3,77,73,384
3,79,73,372
3,88,73,28
3,88,73,64
3,86,73,4
3,84,73,12
3,79,73,4
3,81,73,12
3,84,73,8
3,83,73,380
3,81,73,380
3,79,73,380
3,76,73,556
3,77,73,20
3,76,73,392
3,74,73,24
3,72,73,364
3,79,73,41276
3,88,73,24
3,86,73,788
3,84,73,344
3,79,73,8
3,84,73,20
3,83,73,432
3,81,73,372
3,79,73,376
3,76,73,568
3,77,73,12
3,76,73,0
3,74,73,380
3,79,73,364
3,76,73,408
3,76,73,92
3,77,73,384
3,79,73,372
3,88,73,28
3,88,73,64
3,86,73,4
3,84,73,12
3,79,73,4
3,81,73,12
3,84,73,8
3,83,73,380
3,81,73,380
3,79,73,380
3,76,73,556
4,72,84,64512
4,74,84,592
4,76,84,4
4,74,84,36
4,72,84,12
4,74,84,4
4,76,84,8
4,74,84,20
4,76,84,28
4,74,84,4
4,76,84,384
4,77,84,372
4,76,84,356
4,74,84,356
4,72,84,332
4,72,84,4
4,71,84,4
4,67,84,12
4,71,84,8
4,74,84,372
4,79,84,360
4,74,84,60
4,74,84,1360
4,72,84,50424
4,74,84,592
4,76,84,4
4,74,84,36
4,72,84,12
4,74,84,4
4,76,84,8
4,74,84,20
4,76,84,28
4,74,84,4
4,76,84,384
4,77,84,372
4,76,84,356
4,74,84,356
4,72,84,332
4,72,84,4
4,71,84,4
4,67,84,12
4,71,84,8
4,74,84,372
4,79,84,360
4,74,84,60
4,74,84,1360
4,84,64,22776
4,79,64,1120
4,81,64,52
4,84,64,52
4,81,64,1152
4,79,64,4
4,84,64,44
4,79,64,4
4,81,64,24
4,84,64,36
4,81,64,1128
4,79,64,0
4,76,64,52
5,48,64,63140
5,50,64,12
5,52,64,20
5,53,64,16
5,55,64,20
5,57,64,24
5,59,64,16
5,60,64,32
5,62,64,36
5,65,64,28
5,67,64,84
5,69,64,16
5,71,64,48
5,72,64,28
5,74,64,12
5,76,64,8
5,77,64,4
5,79,64,8
5,81,64,4
5,83,64,4
5,84,64,4
5,86,64,4
5,88,64,4
5,89,64,4
5,91,64,4
5,93,64,4
5,48,64,62724
5,50,64,12
5,52,64,20
5,53,64,16
5,55,64,20
5,57,64,24
5,59,64,16
5,60,64,32
5,62,64,36
5,65,64,28
5,67,64,84
5,69,64,16
5,71,64,48
5,72,64,28
5,74,64,12
5,76,64,8
5,77,64,4
5,79,64,8
5,81,64,4
5,83,64,4
5,84,64,4
5,86,64,4
5,88,64,4
5,89,64,4
5,91,64,4
5,93,64,4
6,76,64,103288
6,76,64,60
6,77,64,8
6,79,64,0
6,88,64,16
6,88,64,68
6,86,64,400
6,84,64,376
6,79,64,548
6,84,64,1320
6,83,64,396
6,81,64,372
6,79,64,360
6,76,64,556
6,77,64,12
6,76,64,408
6,74,64,368
6,79,64,4
6,76,64,4
6,76,64,72
6,77,64,388
6,79,64,376
6,88,64,4
6,88,64,56
6,86,64,380
6,84,64,20
6,79,64,588
6,84,64,1312
6,83,64,408
6,81,64,348
6,79,64,364
6,76,64,588
6,77,64,1268
6,76,64,400
6,74,64,364
6,72,64,348
7,63,114,14142
7,64,99,2
7,64,114,66
7,65,114,36
7,66,114,32
7,67,93,24
7,75,114,694
7,76,114,20
7,76,93,54
7,74,114,36
7,72,114,44
7,67,114,22
7,72,93,334
7,71,114,48
7,69,114,38
7,67,114,14
7,64,114,26
7,65,107,34
7,64,114,44
7,62,99,24
7,67,114,384
7,64,114,794
7,64,93,76
7,65,114,24
7,66,114,6
7,67,114,28
7,75,114,568
7,76,114,2
7,76,114,60
7,74,114,30
7,72,114,44
7,67,114,12
7,72,114,284
7,71,114,40
7,69,114,28
7,67,114,12
7,64,114,20
7,65,114,42
7,64,114,20
7,62,107,14
7,60,87,18
7,63,114,654
7,64,99,32
7,64,99,54
7,65,114,28
7,66,89,10
7,67,93,4
7,75,99,324
7,76,114,26
7,76,87,44
7,74,114,20
7,72,114,32
7,67,114,16
7,72,107,0
7,67,87,10
7,69,107,26
7,72,87,388
7,71,114,364
7,69,99,350
7,67,107,4
7,64,114,6
7,65,114,50
7,64,114,26
7,62,114,386
7,67,114,386
7,64,114,394
7,64,84,66
7,65,114,24
7,66,114,8
7,67,114,2
7,75,78,376
7,76,114,64
7,76,90,48
7,74,114,10
7,72,114,16
7,67,114,8
7,72,107,6
7,71,114,416
7,69,93,18
7,67,114,4
7,64,93,2
7,65,114,12
7,64,114,396
7,62,87,350
7,60,114,370
7,72,114,1164
7,69,87,8
7,73,107,92
7,74,114,10
7,69,107,796
7,72,114,12
7,69,93,8
7,73,114,146
7,74,114,22
7,69,107,768
7,72,114,30
7,69,99,12
7,73,114,236
7,74,99,28
7,69,90,6
7,72,114,20
7,69,84,18
7,73,114,226
7,74,99,28
7,72,77,6
7,75,99,862
7,76,114,0
7,76,84,44
7,74,99,26
7,76,107,30
7,77,99,36
7,76,107,44
7,74,84,10
7,72,99,26
7,71,107,14
7,67,114,10
7,71,90,386
7,74,93,330
7,78,114,358
7,79,93,14
7,63,114,364
7,64,107,34
7,64,114,76
7,65,114,30
7,66,94,336
7,67,114,0
7,75,114,1756
7,76,114,30
7,76,87,46
7,74,114,18
7,72,114,414
7,67,114,6
7,72,87,560
7,67,87,216
7,69,107,14
7,72,114,362
7,71,114,376
7,69,114,356
7,67,114,344
7,64,114,0
7,65,107,10
7,64,107,392
7,62,84,2
7,66,114,350
7,67,114,8
7,64,114,326
7,64,81,62
7,65,114,26
7,66,89,4
7,67,90,26
7,75,94,1900
7,76,114,22
7,76,87,44
7,74,114,14
7,72,107,410
7,67,114,0
7,72,79,540
7,67,93,226
7,69,99,14
7,72,114,388
7,71,114,374
7,69,114,344
7,67,114,364
7,64,114,2
7,65,114,1310
7,64,114,396
7,62,99,360
7,60,114,384
7,63,99,1844
7,64,99,26
7,64,90,32
7,65,114,290
7,66,61,278
7,67,87,2
7,75,99,258
7,76,114,28
7,76,90,48
7,74,114,18
7,72,99,10
7,72,93,452
7,71,107,18
7,69,93,20
7,67,93,4
7,64,114,0
7,65,84,1324
7,64,93,372
7,62,84,0
7,66,94,350
7,67,107,22
7,64,114,352
7,64,90,2
7,65,81,2
7,67,81,348
7,76,114,632
7,76,87,46
7,74,114,12
7,72,99,438
7,67,114,6
7,72,93,522
7,67,84,240
7,68,114,126
7,69,90,0
7,72,93,362
7,71,90,398
7,69,107,370
7,67,99,6
7,64,99,582
7,65,81,1304
7,64,93,398
7,62,114,362
7,60,87,4
7,72,114,480
7,69,99,4
7,73,114,120
7,74,114,24
7,69,87,16
7,72,114,16
7,69,84,16
7,73,89,172
7,74,93,0
7,72,84,4
7,69,90,8
7,72,114,14
7,69,90,8
7,73,114,178
7,74,99,2
7,72,76,2
7,69,74,8
7,72,107,14
7,69,90,12
7,73,94,188
7,74,81,0
