track,note,velocity,time
1,74,101,2795
1,81,98,175
1,82,112,2
1,81,107,26
1,74,107,401
1,81,101,235
1,82,114,19
1,81,101,684
1,74,103,264
1,81,103,21
1,82,112,64
1,81,109,343
1,74,105,4
1,81,101,34
1,82,109,592
1,81,103,358
1,74,105,322
1,81,93,402
1,82,109,704
1,81,105,336
1,74,103,326
1,81,101,316
1,82,107,745
1,81,101,357
1,74,105,369
1,81,96,400
1,82,109,753
1,81,101,288
1,74,107,343
1,81,98,336
1,82,109,730
1,81,101,2
1,74,98,76
1,81,101,28
1,82,109,275
1,81,105,37
1,74,107,285
1,81,101,317
1,82,109,506
1,81,101,540
1,74,109,241
1,81,101,381
1,82,107,544
1,81,101,490
1,74,109,320
1,81,103,9
1,82,109,709
1,81,103,8
1,74,103,382
1,81,98,337
1,82,107,488
1,81,98,13
1,74,103,313
1,81,101,84
1,82,105,704
1,81,98,591
1,74,107,161
1,81,101,317
1,82,112,732
1,81,103,29
1,74,96,353
1,81,101,5
1,82,107,695
1,81,98,574
1,74,107,294
1,81,103,103
1,82,107,515
1,81,105,491
1,74,105,323
1,81,101,79
1,82,109,35
1,81,101,259
1,74,105,288
1,81,101,291
1,82,105,464
1,81,101,18
1,74,105,307
1,81,98,430
1,82,114,542
1,81,103,392
1,74,96,87
1,81,101,308
1,82,105,533
1,81,101,332
1,74,105,368
1,81,98,220
1,82,109,537
1,81,107,162
1,74,103,329
1,81,101,274
1,82,112,10
1,81,103,17
1,74,109,51
1,81,98,202
1,82,112,215
1,81,98,80
1,74,105,106
1,81,98,307
1,82,107,293
1,81,101,56
1,74,107,8
1,81,98,305
1,82,94,488
1,81,101,291
1,74,109,5
1,81,98,198
1,82,101,19
1,81,101,650
1,74,105,306
1,81,96,279
1,82,107,24
1,81,101,164
1,74,103,248
1,81,98,203
1,82,103,103
1,81,96,266
1,74,103,281
1,81,98,158
1,82,105,35
1,81,101,0
1,74,105,13
1,81,98,54
1,82,112,340
1,81,96,222
1,74,103,23
1,81,98,130
1,82,107,13
1,81,96,242
1,74,105,294
1,81,98,275
1,82,98,235
1,81,91,242
1,74,103,334
1,81,98,270
1,82,103,156
1,81,98,567
1,74,103,143
1,81,98,200
1,82,105,360
1,81,103,280
1,74,107,344
1,81,101,320
1,82,101,59
1,81,103,71
1,74,103,320
1,81,98,8
1,82,107,418
1,81,98,202
1,74,103,13
1,81,94,217
1,82,107,17
1,81,101,54
1,74,109,313
1,81,98,273
1,82,101,2
1,81,94,197
1,74,96,37
1,81,96,192
1,82,94,731
1,81,96,631
1,74,101,3
1,81,96,25
1,82,98,648
1,81,98,0
1,74,103,238
1,81,96,291
1,82,101,332
1,81,96,11
1,74,103,404
1,81,96,254
1,82,103,632
1,81,93,653
1,74,103,9
1,81,98,2
1,82,96,399
1,81,93,188
1,74,103,323
1,81,93,347
1,82,96,268
1,81,94,71
1,74,103,327
1,81,96,38
1,82,101,642
1,81,94,648
1,74,98,360
1,81,98,271
1,82,112,379
1,81,98,620
1,74,103,291
1,81,98,67
1,82,101,614
1,81,98,642
1,74,103,41
1,81,94,220
1,82,101,719
1,81,98,9
1,74,98,271
1,81,98,209
1,82,105,450
1,81,94,135
1,74,101,288
1,81,91,214
1,82,96,4
1,81,93,650
1,74,98,317
1,81,91,280
1,82,101,431
1,81,98,53
1,74,96,17
1,81,93,297
1,82,101,38
1,81,98,621
1,74,98,288
1,74,105,774
1,81,98,111
1,82,103,212
1,81,101,60
1,74,105,38
1,81,96,312
1,82,101,670
1,81,98,636
1,74,103,320
1,81,96,155
1,82,103,227
1,81,96,577
1,74,103,122
1,81,96,301
1,82,105,7
1,81,96,412
1,74,98,25
1,81,98,208
1,82,105,34
1,81,96,438
1,74,103,266
1,81,101,175
1,82,101,304
1,81,105,631
1,74,105,41
1,81,101,224
1,82,105,686
1,81,87,668
1,74,103,239
1,81,96,292
1,82,105,224
1,81,96,386
1,74,105,301
1,81,98,9
1,82,105,3
1,81,98,506
1,74,94,47
1,81,94,5
1,82,107,261
1,81,101,405
1,74,103,242
1,81,94,137
1,82,105,216
1,81,98,639
1,74,105,205
1,81,93,98
1,82,107,422
1,81,98,600
1,74,101,193
1,81,98,131
1,82,107,6
1,81,96,325
1,74,107,35
1,81,96,171
1,82,105,671
1,81,96,711
1,74,101,48
1,81,96,106
1,82,98,650
1,81,98,203
1,74,101,111
1,81,98,120
1,82,109,66
1,81,98,79
1,74,112,292
2,66,73,2631
2,69,76,1
2,62,65,7
2,58,53,2066
2,62,67,4
2,67,70,11
2,66,67,1116
2,62,51,0
2,69,65,3
2,69,70,691
2,66,81,1
2,62,60,0
2,58,61,3338
2,62,72,13
2,67,65,8
2,62,54,824
2,69,72,2
2,66,73,0
2,67,63,1454
2,60,63,3
2,63,77,1
2,62,72,1361
2,59,65,8
2,67,64,5
2,62,55,1029
2,66,72,1
2,69,65,0
2,66,103,490
2,69,103,6
2,62,93,0
2,66,114,15
2,62,101,1
2,69,112,0
2,58,81,1225
2,62,87,2
2,67,84,1
2,69,89,644
2,66,91,0
2,62,82,7
2,66,105,356
2,69,103,1
2,62,96,6
2,58,73,1005
2,62,85,1
2,67,79,1
2,66,85,622
2,69,87,5
2,62,81,4
2,63,98,686
2,67,91,0
2,60,93,5
2,67,84,655
2,62,93,4
2,59,87,2
2,66,89,685
2,69,85,1
2,62,79,7
2,66,109,3845
2,62,107,1
2,74,105,0
2,69,109,0
2,50,101,4
2,38,103,3
2,58,103,3127
2,62,101,5
2,55,103,1
2,67,91,0
2,43,94,3
2,69,105,589
2,66,98,1
2,62,96,5
2,38,84,5
2,50,91,2
2,69,98,186
2,66,96,1
2,74,94,5
2,62,101,1
2,50,89,10
2,38,96,0
2,43,98,2906
2,58,114,0
2,67,94,0
2,62,101,0
2,55,93,0
2,66,112,661
2,69,107,3
2,62,96,1
2,38,89,10
2,50,91,2
2,63,116,512
2,67,112,1
2,60,112,0
2,48,98,12
2,36,98,0
2,62,109,599
2,59,109,1
2,67,103,0
2,55,98,10
2,43,96,1
2,62,101,368
2,66,107,0
2,57,91,5
2,38,96,8
2,50,77,0
2,54,105,1973
2,50,94,5
2,57,96,0
2,38,103,11
2,57,81,278
2,50,70,1
2,54,76,3
2,38,77,9
2,57,89,144
2,38,85,1
2,50,84,0
2,54,84,2
2,38,68,262
2,57,82,2
2,50,76,2
2,54,43,12
2,57,82,156
2,50,76,5
2,54,70,1
2,38,79,5
2,57,81,182
2,54,85,1
2,38,70,5
2,50,77,0
2,57,81,223
2,54,79,1
2,50,73,5
2,38,61,10
2,38,62,200
2,57,84,1
2,54,84,2
2,50,73,3
2,57,68,268
2,50,72,1
2,38,75,9
2,54,32,2
3,66,69,8768
3,66,77,96
3,67,68,379
3,69,72,339
3,66,73,341
3,62,68,742
3,66,70,736
3,67,72,732
3,69,76,293
3,70,77,313
3,67,73,678
3,62,65,312
3,70,82,722
3,70,79,121
3,69,84,205
3,67,62,351
3,66,75,352
3,62,65,379
3,66,72,2758
3,62,68,1171
3,62,67,73
3,66,73,186
3,67,68,317
3,69,76,323
3,66,64,342
3,62,70,730
3,66,76,738
3,67,70,689
3,69,68,352
3,70,82,295
3,67,75,681
3,62,69,322
3,70,79,328
3,70,79,92
3,69,82,428
3,67,61,977
3,66,59,155
3,62,73,2631
3,72,82,348
3,72,81,92
3,71,69,343
3,69,75,324
3,71,75,310
3,71,81,96
3,69,60,333
3,67,62,294
3,69,81,364
3,66,79,647
3,66,82,74
3,67,72,349
3,69,82,307
3,73,85,280
3,74,85,869
3,69,75,650
3,81,73,2159
3,66,112,4
3,69,89,8
3,81,72,97
3,66,112,1
3,69,82,13
3,66,98,79
3,69,82,31
3,81,72,6
3,67,91,345
3,70,82,47
3,82,81,25
3,69,91,348
3,72,87,8
3,84,67,10
3,69,84,355
3,66,112,3
3,81,68,8
3,66,82,660
3,78,75,16
3,62,94,9
3,81,77,696
3,66,109,4
3,69,87,4
3,70,96,661
3,82,84,26
3,67,93,3
3,84,73,303
3,72,89,19
3,69,93,4
3,70,109,305
3,74,98,16
3,86,72,10
3,67,94,608
3,70,96,0
3,82,76,17
3,70,107,719
3,74,101,8
3,86,70,1
3,69,109,307
3,84,75,11
3,72,101,8
3,70,91,1189
3,82,76,1
3,67,91,4
3,69,98,98
3,81,64,17
3,66,101,26
3,66,81,2
3,69,75,19
3,81,84,10
3,66,112,153
3,69,93,4
3,81,69,7
3,69,89,101
3,66,103,1
3,81,73,7
3,69,91,56
3,81,59,13
3,66,109,27
3,70,89,357
3,67,87,16
3,82,79,6
3,69,98,263
3,72,84,35
3,84,70,26
3,66,105,303
3,69,98,9
3,81,67,9
3,62,98,705
3,66,93,2
3,78,81,20
3,81,70,697
3,66,112,2
3,69,96,23
3,82,75,675
3,67,96,3
3,70,85,1
3,69,89,290
3,84,67,16
3,72,79,15
3,70,109,298
3,74,94,4
3,86,73,7
3,67,93,639
3,70,91,0
3,82,77,12
3,74,94,700
3,86,76,28
3,70,114,12
3,84,81,303
3,69,109,11
3,72,94,6
3,82,82,1234
3,70,107,31
3,67,82,5
3,81,63,131
3,69,94,1
3,66,112,8
3,69,70,19
3,62,94,1075
3,72,98,372
3,72,94,143
3,71,91,359
3,69,101,312
3,71,96,378
3,71,94,85
3,69,94,373
3,67,77,311
3,69,105,363
3,66,79,702
3,66,85,66
3,67,77,377
3,69,89,310
3,73,105,325
3,74,105,274
3,69,109,662
3,69,54,24
3,81,103,3618
3,69,114,15
3,66,127,33
3,66,96,1052
3,78,105,6
3,62,114,4
3,66,75,33
3,78,96,6
3,62,107,36
3,66,122,178
3,69,101,21
3,81,101,15
3,82,94,207
3,67,112,9
3,70,94,3
3,84,79,6
3,69,114,4
3,67,101,10
3,72,93,20
3,66,127,297
3,81,89,14
3,69,103,6
3,66,85,645
3,78,103,23
3,62,116,7
3,81,93,656
3,66,124,23
3,69,105,9
3,82,101,636
3,70,105,26
3,67,107,29
3,84,82,311
3,69,109,9
3,72,91,12
3,86,93,301
3,70,119,13
3,74,98,10
3,82,107,638
3,67,114,17
3,70,94,13
3,70,119,666
3,74,103,10
3,86,96,4
3,69,119,637
3,72,103,26
3,84,103,16
3,67,103,302
3,70,112,6
3,82,109,0
3,69,98,175
3,81,98,5
3,66,124,9
3,78,109,680
3,62,105,8
3,66,101,8
3,69,103,114
3,81,107,11
3,66,122,3
3,69,94,11
3,81,94,32
3,66,116,38
3,70,93,332
3,82,101,19
3,67,96,16
3,84,85,316
3,72,84,2
3,69,107,2
3,81,96,1
3,66,122,16
3,69,96,11
3,62,105,709
3,78,103,12
3,66,87,17
3,81,96,682
3,66,122,12
3,69,93,1
3,82,101,680
3,70,103,11
3,67,103,7
3,84,82,267
3,72,84,27
3,69,107,6
3,70,122,305
3,86,94,1
3,74,105,17
3,69,105,559
3,84,85,29
3,72,79,5
3,67,81,6
3,82,107,33
3,70,94,4
3,70,109,102
3,62,109,2
3,82,107,1
3,74,101,1
3,86,98,6
3,70,122,8
3,72,109,323
3,69,119,7
3,84,112,1
3,67,101,837
3,82,109,14
3,70,105,27
3,66,119,40
3,81,103,19
3,69,103,8
3,62,105,285
3,81,62,13
3,72,116,76
3,72,98,30
3,72,105,42
3,71,114,40
3,69,107,13
3,71,116,128
3,71,112,75
3,69,114,181
3,67,103,336
3,69,112,344
3,66,119,725
3,66,116,85
3,67,101,334
3,69,98,311
3,73,119,15
3,74,109,451
3,69,112,93
3,66,76,5260
3,62,70,1135
3,66,72,324
3,67,69,307
3,69,75,283
3,66,79,337
3,62,67,773
3,66,77,1110
3,67,73,296
3,69,81,324
3,70,85,308
3,67,72,742
3,62,63,708
3,70,93,172
3,70,89,32
3,69,87,409
3,66,84,704
4,62,105,4166
4,69,91,383
4,74,98,306
4,69,91,322
4,70,107,329
4,74,98,351
4,69,94,332
4,74,105,339
4,62,85,321
4,69,91,369
4,74,98,324
4,69,87,333
4,70,105,342
4,74,93,302
4,69,96,308
4,74,105,336
4,62,29,286
4,69,48,368
4,74,54,236
4,69,33,359
4,70,51,342
4,74,58,377
4,69,31,338
4,74,55,356
4,62,27,297
4,69,40,330
4,74,48,128
4,69,42,282
4,70,43,358
4,74,36,315
4,69,43,303
4,74,37,349
4,62,27,280
4,69,40,291
4,74,62,160
4,69,47,255
4,70,50,321
4,74,45,298
4,69,53,292
4,74,41,336
4,62,37,314
4,69,36,233
4,74,41,220
4,69,53,306
4,70,41,343
4,74,57,329
4,69,52,336
4,74,58,339
4,62,37,338
4,69,47,343
4,74,64,184
4,69,55,280
4,70,56,336
4,74,65,307
4,69,48,341
4,74,70,345
4,62,44,330
4,69,56,343
4,74,65,193
4,69,55,296
4,70,48,319
4,74,58,330
4,69,43,309
4,74,59,354
4,62,45,309
4,69,51,325
4,74,55,207
4,69,49,290
4,70,39,342
4,74,64,307
4,69,54,318
4,74,63,367
4,62,31,291
4,69,42,336
4,74,61,188
4,69,52,300
4,70,47,318
4,74,55,299
4,69,48,316
4,74,68,332
4,72,55,1538
4,71,63,368
4,69,68,335
4,71,77,362
4,66,70,3063
4,67,70,374
4,69,69,287
4,73,79,78
5,57,107,386
5,50,103,0
5,38,52,678
5,50,33,7
5,74,55,15
6,69,63,473
6,74,93,25
6,78,87,11
6,70,75,1679
6,74,85,20
6,79,73,4
6,69,50,634
6,74,85,15
6,78,82,10
6,70,64,1750
6,74,84,13
6,79,69,8
6,69,59,684
6,74,84,2
6,78,72,3
6,79,82,888
6,72,70,5
6,75,93,0
6,74,75,301
6,79,72,0
6,71,53,0
6,69,62,427
6,74,82,3
6,78,82,7
6,38,75,4701
6,50,68,1
6,69,76,9
6,66,75,1
6,62,70,0
6,74,67,1
7,57,72,3270
7,45,63,8
7,62,114,2703
7,64,107,10
7,62,105,14
7,38,101,1
7,50,98,5
7,74,114,16
7,45,109,0
7,57,85,5
7,44,103,133
7,56,98,7
7,57,93,2
7,45,103,3
7,68,101,489
7,54,109,24
7,80,107,5
7,42,107,2
7,53,72,89
7,41,85,1
7,68,101,30
7,42,114,32
7,80,101,8
7,54,112,2
7,69,105,136
7,81,93,2
7,50,85,2
7,38,82,12
7,49,85,144
7,37,105,9
7,50,96,137
7,38,105,6
7,62,96,130
7,74,103,1
7,82,116,307
7,33,96,2
7,70,114,5
7,45,96,9
7,32,94,145
7,44,98,0
7,45,94,103
7,33,105,4
7,69,96,96
7,81,94,6
7,62,85,337
7,74,91,10
7,70,114,346
7,82,109,19
7,69,103,278
7,81,94,11
7,71,109,282
7,80,103,33
7,68,105,2
7,72,98,281
7,69,94,1
7,81,93,12
7,71,105,343
7,68,98,8
7,80,94,9
7,69,81,298
7,81,82,0
7,72,105,1
7,73,107,322
7,70,94,4
7,82,96,6
7,62,87,18
7,74,98,0
7,73,119,338
7,85,94,8
7,38,89,318
7,50,62,16
7,41,81,271
7,53,63,20
7,75,119,46
7,74,98,26
7,62,89,9
7,38,89,81
7,50,58,11
7,85,103,170
7,73,114,10
7,55,54,35
7,43,87,6
7,38,64,127
7,50,33,2
7,86,96,42
7,74,109,19
7,76,122,14
7,46,58,0
7,58,63,9
7,57,49,24
7,45,85,14
7,63,76,7
7,62,84,6
7,74,96,1
7,51,98,9
7,62,72,11
7,88,107,24
7,50,81,7
7,76,105,2
7,60,72,206
7,48,82,61
7,62,87,7
7,74,96,6
7,58,48,8
7,46,96,6
7,78,109,139
7,45,94,6
7,57,67,6
7,66,107,1
7,90,94,3
7,90,101,2
7,78,103,1
7,45,64,21
7,69,105,13
7,57,91,8
7,58,112,281
7,70,119,7
7,67,98,402
7,55,75,0
7,81,101,778
7,69,98,9
7,82,103,1450
7,70,96,2
7,69,91,637
7,81,101,11
7,69,105,5230
7,57,94,5
7,58,105,352
7,70,112,6
7,67,98,0
7,55,85,5
7,81,96,659
7,69,96,2
7,82,98,1473
7,70,107,9
7,81,89,735
7,69,94,5
7,62,107,1253
7,50,101,10
7,66,107,4397
7,54,114,4
7,67,85,306
7,55,94,7
7,57,85,21
7,69,94,21
