track,note,velocity,time
3,50,98,11
3,66,82,2
3,62,88,0
3,62,0,18
3,66,0,3
3,66,73,26
3,62,75,2
3,62,0,17
3,66,0,0
3,66,78,29
3,62,81,1
3,62,0,17
3,66,0,4
3,64,84,24
3,67,81,0
3,64,0,18
3,67,0,3
3,64,74,28
3,67,73,1
3,64,0,17
3,67,0,1
3,64,74,27
3,67,74,1
3,64,0,18
3,67,0,1
3,67,84,30
3,64,77,0
3,64,0,17
3,67,0,1
3,64,57,29
3,67,74,1
3,50,0,3
3,67,0,19
3,64,0,0
3,62,79,6
3,66,77,0
3,55,88,1
3,62,0,17
3,66,0,2
3,66,77,27
3,62,73,0
3,62,0,17
3,66,0,2
3,66,73,27
3,62,73,1
3,62,0,16
3,66,0,4
3,43,79,25
3,64,96,0
3,67,95,1
3,64,0,17
3,67,0,2
3,64,71,26
3,67,90,3
3,64,0,14
3,67,0,1
3,64,70,31
3,67,79,1
3,64,0,14
3,67,0,1
3,55,0,12
3,64,79,18
3,67,84,1
3,64,0,14
3,67,0,3
3,43,0,6
3,64,67,21
3,67,41,6
3,67,0,5
3,66,56,2
3,62,60,3
3,64,0,6
3,62,0,6
3,66,0,1
3,66,77,3
3,62,74,1
3,38,73,1
3,50,84,1
3,62,0,12
3,66,0,3
3,66,68,22
3,62,67,2
3,62,0,20
3,66,0,2
3,66,73,25
3,62,74,1
3,62,0,16
3,66,0,4
3,67,93,25
3,64,84,0
3,64,0,22
3,67,0,3
3,64,62,25
3,67,79,1
3,64,0,16
3,67,0,3
3,64,75,29
3,67,79,0
3,64,0,17
3,67,0,3
3,64,74,26
3,67,81,1
3,64,0,18
3,67,0,1
3,38,0,24
3,64,69,5
3,67,77,1
3,50,0,4
3,64,0,20
3,67,0,2
3,55,77,4
3,66,78,2
3,62,79,1
3,43,73,12
3,62,0,5
3,66,0,2
3,66,73,28
3,62,70,1
3,62,0,15
3,66,0,2
3,66,58,27
3,62,74,2
3,62,0,19
3,66,0,4
3,64,74,24
3,67,79,0
3,64,0,22
3,67,0,3
3,67,60,24
3,64,60,0
3,64,0,19
3,67,0,3
3,64,51,27
3,67,66,1
3,64,0,16
3,67,0,2
3,55,0,11
3,55,38,17
3,64,70,0
3,67,84,2
3,64,0,20
3,67,0,2
3,55,0,2
3,43,0,8
3,67,71,15
3,64,70,1
3,67,0,26
3,64,0,2
3,66,77,1
3,62,74,0
3,38,63,1
3,50,64,1
3,62,0,15
3,66,0,0
3,66,66,24
3,62,67,2
3,62,0,16
3,66,0,2
3,66,56,28
3,62,60,1
3,62,0,15
3,66,0,4
3,64,70,25
3,67,77,1
3,64,0,18
3,67,0,1
3,64,48,28
3,67,67,1
3,64,0,16
3,67,0,1
3,64,57,31
3,67,69,1
3,64,0,17
3,67,0,2
3,64,66,28
3,67,70,1
3,67,0,18
3,64,0,0
3,50,0,11
3,50,62,14
3,66,69,2
3,62,67,1
3,38,0,14
3,62,0,1
3,66,0,2
3,50,0,0
3,66,73,28
3,50,79,1
3,38,73,0
3,62,73,1
3,62,0,18
3,66,0,2
3,66,49,30
3,62,67,0
3,62,0,18
3,66,0,3
3,66,62,28
3,62,66,1
3,62,0,16
3,66,0,5
3,64,74,27
3,67,71,0
3,64,0,17
3,67,0,1
3,64,74,28
3,67,83,3
3,67,0,15
3,64,0,0
3,64,71,31
3,67,79,2
3,64,0,14
3,67,0,2
3,50,0,18
3,66,56,18
3,62,58,0
3,62,0,15
3,66,0,2
3,38,0,13
3,66,75,14
3,62,83,2
3,50,88,2
3,66,0,10
3,62,0,2
3,50,0,3
3,57,79,2
3,61,77,1
3,57,0,13
3,61,0,5
3,45,57,24
3,61,75,3
3,57,73,2
3,57,0,16
3,61,0,4
3,61,69,27
3,57,71,2
3,57,0,12
3,61,0,5
3,62,75,26
3,57,79,1
3,57,0,15
3,62,0,5
3,57,64,31
3,62,73,1
3,57,0,13
3,62,0,3
3,62,73,30
3,57,67,1
3,57,0,14
3,62,0,3
3,62,79,30
3,57,71,0
3,57,0,14
3,62,0,2
3,62,58,30
3,57,73,4
3,45,0,3
3,57,0,11
3,62,0,1
3,61,77,30
3,45,93,1
3,57,74,0
3,57,0,16
3,61,0,1
3,61,75,31
3,57,74,1
3,57,0,14
3,61,0,1
3,61,75,32
3,57,79,1
3,57,0,14
3,61,0,2
3,62,84,30
3,57,71,0
3,57,0,17
3,45,0,1
3,62,0,4
3,62,83,24
3,57,60,1
3,57,0,12
3,62,0,5
3,61,89,28
3,57,79,0
3,57,0,14
3,61,0,3
3,45,96,30
3,61,95,0
3,57,83,1
3,57,0,15
3,61,0,3
3,45,0,3
3,61,91,26
3,57,83,0
3,57,0,11
3,61,0,4
3,38,79,4
3,62,74,0
3,50,79,1
3,66,89,0
3,66,0,12
3,62,0,1
3,66,69,30
3,62,55,2
3,62,0,15
3,66,0,4
3,66,73,31
3,62,67,1
3,62,0,14
3,66,0,3
3,67,81,29
3,64,75,1
3,64,0,14
3,67,0,5
3,64,60,31
3,67,73,0
3,64,0,15
3,67,0,4
3,64,73,29
3,67,75,0
3,64,0,14
3,67,0,2
3,67,88,31
3,64,79,0
3,64,0,14
3,67,0,4
3,67,75,30
3,64,73,1
3,50,0,5
3,38,0,6
3,64,0,5
3,67,0,2
3,66,79,28
3,38,75,1
3,62,84,1
3,50,84,1
3,62,0,13
3,66,0,3
3,66,71,28
3,62,70,3
3,62,0,13
3,66,0,2
3,66,73,31
3,62,74,2
3,62,0,14
3,66,0,3
3,64,84,2
3,67,84,1
3,64,0,12
3,67,0,4
3,64,79,26
3,67,74,1
3,64,0,13
3,67,0,3
3,64,66,31
3,67,70,1
3,64,0,15
3,67,0,2
3,66,69,28
3,62,67,2
3,62,0,15
3,66,0,3
3,50,0,11
3,66,73,21
3,62,73,2
3,38,0,6
3,66,0,7
3,62,0,1
3,61,91,6
3,57,84,1
3,45,93,4
3,57,0,11
3,61,0,2
3,61,89,27
3,57,74,1
3,57,0,14
3,61,0,1
3,61,81,32
3,57,74,1
3,57,0,13
3,61,0,3
3,62,71,4
3,59,71,1
3,59,0,11
3,62,0,5
3,59,67,28
3,62,71,0
3,59,0,14
3,62,0,4
3,57,71,29
3,62,75,1
3,57,0,14
3,62,0,4
3,62,83,29
3,57,67,1
3,57,0,12
3,62,0,3
3,62,75,32
3,57,64,1
3,45,0,5
3,57,0,9
3,62,0,5
3,61,89,1
3,57,74,0
3,45,98,0
3,57,0,13
3,61,0,3
3,61,77,28
3,57,70,2
3,57,0,14
3,61,0,0
3,61,79,31
3,57,66,3
3,57,0,13
3,61,0,3
3,62,79,29
3,57,55,2
3,57,0,14
3,62,0,4
3,62,67,28
3,57,55,3
3,57,0,13
3,62,0,6
3,61,81,27
3,57,74,1
3,57,0,14
3,61,0,1
3,61,84,34
3,57,75,2
3,57,0,13
3,61,0,3
3,45,0,23
3,61,78,8
3,57,74,0
3,57,0,11
3,61,0,4
3,38,71,9
3,50,63,1
3,62,50,2
3,62,0,14
3,66,75,25
3,62,67,1
3,62,0,17
3,66,0,2
3,66,79,35
3,62,70,2
3,62,0,14
3,66,0,4
3,67,95,29
3,64,79,1
3,64,0,12
3,67,0,4
3,64,71,29
3,67,73,1
3,64,0,14
3,67,0,3
3,67,74,33
3,64,74,0
3,64,0,14
3,67,0,4
3,67,83,28
3,64,84,0
3,50,0,5
3,64,0,11
3,67,0,3
3,66,79,29
3,62,71,1
3,50,67,3
3,38,0,3
3,62,0,6
3,66,0,3
3,50,0,3
3,66,78,8
3,50,75,1
3,62,70,0
3,38,73,0
3,62,0,10
3,66,0,2
3,66,73,28
3,62,64,2
3,62,0,13
3,66,0,2
3,66,77,30
3,62,70,2
3,62,0,15
3,66,0,2
3,67,91,2
3,64,75,1
3,64,0,9
3,67,0,3
3,64,84,30
3,67,79,0
3,64,0,15
3,67,0,1
3,67,71,31
3,64,66,1
3,64,0,17
3,67,0,2
3,50,0,8
3,66,73,22
3,62,75,1
3,62,0,14
3,66,0,2
3,66,73,29
3,62,64,0
3,50,75,1
3,38,0,1
3,66,0,8
3,62,0,2
3,50,0,2
3,61,89,4
3,57,79,0
3,45,96,2
3,57,0,12
3,61,0,2
3,61,78,32
3,57,66,0
3,57,0,13
3,61,0,3
3,61,78,32
3,57,79,3
3,61,0,13
3,57,0,1
3,62,74,31
3,59,66,2
3,59,0,5
3,62,0,3
3,62,74,29
3,59,70,0
3,59,0,14
3,62,0,3
3,62,84,28
3,57,71,1
3,57,0,13
3,62,0,3
3,62,84,32
3,57,73,1
3,57,0,12
3,62,0,5
3,62,70,29
3,57,54,1
3,59,67,0
3,57,0,13
3,45,0,0
3,59,0,2
3,62,0,3
3,57,66,2
3,61,81,0
3,59,66,0
3,45,95,1
3,57,0,10
3,59,0,3
3,61,0,2
3,61,63,32
3,59,75,2
3,57,60,1
3,57,0,9
3,59,0,2
3,61,0,2
3,61,68,29
3,59,58,3
3,57,69,2
3,57,0,12
3,45,0,3
3,59,0,0
3,61,0,1
3,59,70,26
3,62,83,1
3,45,98,2
3,57,73,0
3,57,0,12
3,59,0,3
3,62,0,3
3,62,73,25
3,59,63,0
3,57,27,5
3,57,0,6
3,59,0,6
3,62,0,1
3,61,93,30
3,57,79,1
3,57,0,15
3,61,0,2
3,61,96,32
3,57,81,1
3,45,0,14
3,57,0,1
3,61,0,2
3,61,93,30
3,57,79,1
3,57,0,11
3,61,0,4
3,66,95,8
3,62,73,0
3,38,73,0
3,50,66,2
3,62,0,11
3,66,0,3
3,66,85,29
3,62,67,1
3,62,0,14
3,66,0,3
3,66,77,31
3,62,70,0
3,62,0,15
3,66,0,2
3,62,66,28
3,67,104,1
3,62,0,15
3,67,0,3
3,67,96,32
3,62,56,1
3,62,0,12
3,67,0,4
3,67,93,30
3,62,64,1
3,62,0,12
3,67,0,4
3,50,0,6
3,67,88,25
3,64,73,1
3,62,50,1
3,62,0,9
3,64,0,3
3,67,0,3
3,67,91,29
3,64,75,0
3,62,54,2
3,62,0,9
3,38,0,3
3,64,0,1
3,67,0,4
3,66,75,30
3,62,67,2
3,38,67,0
3,50,66,2
3,62,0,15
3,66,0,2
3,66,78,27
3,62,64,2
3,62,0,10
3,66,0,4
3,66,81,31
3,62,63,1
3,62,0,14
3,66,0,3
3,67,81,34
3,64,66,1
3,62,51,1
3,62,0,11
3,64,0,1
3,67,0,3
3,64,57,33
3,67,67,1
3,62,51,2
3,62,0,9
3,64,0,3
3,67,0,2
3,64,71,30
3,67,81,0
3,62,52,2
3,62,0,9
3,64,0,2
3,67,0,2
3,50,0,16
3,64,71,16
3,67,79,1
3,62,55,1
3,62,0,9
3,64,0,3
3,67,0,2
3,38,0,30
3,64,79,1
3,50,88,1
3,67,88,1
3,62,63,1
3,67,0,5
3,62,0,3
3,64,0,1
3,50,0,2
3,61,93,8
3,57,88,1
3,45,79,1
3,57,0,12
3,61,0,0
3,61,81,33
3,57,71,1
3,57,0,13
3,61,0,3
3,61,84,30
3,57,71,3
3,57,0,12
3,61,0,3
3,59,63,31
3,62,71,0
3,57,56,1
3,57,0,11
3,59,0,2
3,62,0,2
3,62,75,31
3,59,64,1
3,57,57,2
3,57,0,9
3,59,0,2
3,62,0,3
3,62,64,30
3,59,56,2
3,57,60,1
3,57,0,12
3,59,0,2
3,62,0,2
3,59,63,33
3,62,70,1
3,57,66,2
3,57,0,10
3,59,0,2
3,62,0,1
3,62,70,31
3,59,67,1
3,57,70,2
3,45,0,8
3,57,0,4
3,59,0,3
3,62,0,1
3,45,96,28
3,61,92,0
3,57,81,1
3,57,0,17
3,61,0,2
3,61,93,9
3,57,83,1
3,57,0,14
3,61,0,2
3,61,95,29
3,57,75,2
3,57,0,13
3,61,0,3
3,45,0,6
3,62,84,26
3,57,75,0
3,57,0,17
3,62,0,7
3,62,83,21
3,57,63,1
3,57,0,13
3,62,0,7
3,62,91,30
3,57,79,0
3,45,96,1
3,57,0,12
3,62,0,5
3,45,0,24
3,62,81,4
3,57,81,0
3,57,0,12
3,62,0,6
3,45,88,29
3,45,0,14
3,38,79,3
3,66,78,0
3,62,75,1
3,50,86,1
3,62,0,14
3,66,0,1
3,66,65,29
3,62,57,3
3,62,0,10
3,66,0,4
3,66,69,34
3,62,66,2
3,62,0,13
3,66,0,4
3,67,71,27
3,64,40,3
3,62,28,2
3,62,0,9
3,64,0,1
3,67,0,4
3,67,63,33
3,64,58,0
3,62,44,1
3,62,0,10
3,64,0,2
3,67,0,5
3,64,66,28
3,67,79,1
3,62,51,3
3,50,0,5
3,62,0,3
3,64,0,3
3,67,0,2
3,67,96,30
3,64,91,0
3,50,99,1
3,62,60,1
3,62,0,9
3,64,0,4
3,38,0,1
3,67,0,2
3,50,0,3
3,64,53,25
3,67,84,1
3,38,73,1
3,50,67,1
3,62,62,1
3,62,0,8
3,64,0,3
3,50,0,2
3,67,0,0
3,38,0,3
3,66,68,4
3,38,73,1
3,64,66,0
3,62,52,1
3,50,62,1
3,62,0,12
3,64,0,1
3,66,0,2
3,66,63,28
3,62,51,2
3,64,75,1
3,62,0,9
3,64,0,4
3,66,0,1
3,66,68,31
3,64,79,3
3,62,51,0
3,62,0,9
3,64,0,3
3,66,0,4
3,50,0,12
3,64,81,19
3,67,99,0
3,62,56,1
3,50,6,8
3,62,0,3
3,64,0,1
3,67,0,4
3,67,75,29
3,64,60,0
3,62,44,3
3,62,0,8
3,64,0,3
3,50,0,2
3,67,0,1
3,64,73,30
3,67,81,1
3,62,63,2
3,62,0,9
3,64,0,3
3,67,0,1
3,64,74,34
3,67,83,1
3,62,60,1
3,50,96,2
3,62,0,8
3,64,0,1
3,67,0,1
3,38,0,3
3,50,0,12
3,67,84,21
3,64,77,2
3,62,63,1
3,62,0,8
3,67,0,0
3,64,0,1
3,61,81,6
3,57,73,1
3,45,88,1
3,57,0,12
3,61,0,1
3,61,92,28
3,57,70,3
3,57,0,11
3,61,0,3
3,62,84,31
3,57,51,2
3,57,0,12
3,62,0,3
3,61,68,31
3,57,48,3
3,57,0,9
3,61,0,2
3,45,0,24
3,61,66,11
3,57,69,2
3,45,77,1
3,57,0,14
3,61,0,4
3,61,65,28
3,57,73,1
3,57,0,15
3,61,0,1
3,59,79,34
3,57,73,2
3,57,0,9
3,59,0,6
3,45,0,2
3,59,71,28
3,57,74,2
3,57,0,13
3,59,0,3
3,59,69,30
3,61,73,0
3,57,63,1
3,45,90,1
3,57,0,12
3,59,0,1
3,61,0,4
3,61,89,27
3,57,70,2
3,57,0,10
3,61,0,7
3,61,69,30
3,59,66,2
3,57,54,0
3,57,0,8
3,59,0,4
3,61,0,4
3,45,0,13
3,62,91,16
3,59,79,0
3,57,70,1
3,45,93,2
3,57,0,9
3,59,0,2
3,62,0,3
3,62,84,28
3,59,77,1
3,57,66,2
3,57,0,8
3,59,0,3
3,62,0,3
3,61,95,30
3,57,79,1
3,59,71,2
3,57,0,11
3,59,0,1
3,61,0,2
3,61,104,32
3,59,99,0
3,57,81,1
3,45,0,11
3,57,0,1
3,59,0,2
3,61,0,2
3,59,96,29
3,61,93,0
3,57,83,1
3,57,0,10
3,59,0,2
3,61,0,2
3,66,96,6
3,62,73,0
3,38,74,1
3,50,56,2
3,62,0,12
3,66,0,0
3,66,81,28
3,62,64,2
3,62,0,12
3,66,0,3
3,66,82,32
3,62,60,2
3,62,0,14
3,66,0,3
3,64,79,33
3,67,84,1
3,62,60,0
3,62,0,14
3,64,0,0
3,67,0,3
3,64,88,27
3,67,88,3
3,62,52,1
3,62,0,8
3,64,0,4
3,67,0,1
3,64,57,30
3,67,71,1
3,62,50,2
3,62,0,10
3,64,0,3
3,67,0,2
3,64,83,32
3,67,98,0
3,62,64,1
3,62,0,13
3,64,0,1
3,67,0,2
3,64,60,31
3,67,81,1
3,62,60,2
3,50,0,1
3,38,0,4
3,62,0,7
3,64,0,4
3,67,0,1
3,66,82,5
3,38,75,0
3,62,75,1
3,50,88,2
