track,note,velocity,time
0,42,89,378
0,42,0,13
0,42,77,10
0,42,0,14
0,42,78,10
0,42,0,11
0,42,79,14
0,42,0,23
0,40,86,28
0,42,77,23
0,40,0,2
0,42,0,12
0,42,89,10
0,42,0,22
0,43,83,97
0,43,0,16
0,43,74,10
0,43,0,15
0,43,70,10
0,43,0,11
0,43,74,13
0,43,0,10
0,43,93,15
0,42,82,24
0,43,0,3
0,42,0,10
0,42,82,11
0,42,0,13
0,42,81,13
0,42,0,20
0,40,90,31
0,42,77,22
0,40,0,1
0,42,0,13
0,42,89,12
0,42,0,23
0,42,81,89
0,42,0,25
0,43,79,2
0,43,0,12
0,43,75,12
0,43,0,12
0,43,70,13
0,43,0,8
0,43,95,19
0,43,0,21
0,42,73,4
0,66,96,4
0,42,0,8
0,42,66,12
0,66,0,8
0,42,0,3
0,66,97,13
0,42,63,1
0,42,0,17
0,66,0,26
0,64,93,5
0,40,79,2
0,40,0,19
0,42,57,2
0,64,0,2
0,42,0,14
0,42,93,10
0,64,101,0
0,42,0,22
0,64,0,22
0,61,96,6
0,61,0,20
0,61,95,27
0,43,79,20
0,43,0,12
0,61,0,5
0,43,79,7
0,59,99,6
0,43,0,6
0,43,79,12
0,43,0,10
0,59,0,1
0,43,73,13
0,58,96,3
0,43,0,6
0,43,88,17
0,58,0,7
0,43,0,15
0,42,82,1
0,58,97,1
0,42,0,13
0,42,66,12
0,58,0,11
0,42,0,0
0,42,78,14
0,59,95,3
0,42,0,14
0,59,0,1
0,58,93,9
0,40,88,21
0,58,0,12
0,40,0,9
0,42,77,1
0,61,95,3
0,42,0,10
0,61,0,6
0,42,82,7
0,61,99,5
0,42,0,15
0,43,71,92
0,43,0,15
0,43,75,11
0,43,0,10
0,43,71,15
0,61,0,3
0,43,0,8
0,43,77,16
0,43,0,9
0,36,96,6
0,30,78,7
0,43,93,2
0,30,0,12
0,43,0,6
0,42,79,1
0,30,93,1
0,66,100,4
0,30,0,7
0,42,0,2
0,30,104,8
0,66,0,1
0,42,79,2
0,30,0,8
0,42,0,4
0,36,0,9
0,30,111,0
0,66,96,1
0,42,81,2
0,40,102,17
0,30,0,10
0,42,0,2
0,66,0,2
0,28,111,14
0,40,96,1
0,64,105,1
0,40,0,7
0,40,0,4
0,28,0,2
0,30,102,5
0,42,82,2
0,36,70,1
0,64,0,1
0,30,0,9
0,42,0,2
0,36,0,2
0,30,112,7
0,42,85,1
0,64,104,0
0,36,91,26
0,30,0,3
0,42,0,3
0,64,0,4
0,61,103,14
0,61,0,26
0,36,0,2
0,61,104,22
0,31,104,16
0,43,90,1
0,40,104,3
0,61,0,11
0,31,0,0
0,43,0,1
0,31,99,10
0,43,79,1
0,59,101,3
0,40,0,8
0,31,0,1
0,43,0,0
0,43,79,10
0,31,102,0
0,36,79,3
0,59,0,6
0,31,0,3
0,43,0,1
0,36,0,7
0,31,105,3
0,43,88,2
0,58,106,0
0,31,0,10
0,43,0,0
0,31,110,12
0,43,96,2
0,36,83,3
0,58,0,3
0,31,0,14
0,59,93,2
0,43,0,1
0,30,97,0
0,42,82,1
0,30,0,13
0,42,0,0
0,42,85,11
0,30,112,0
0,36,0,3
0,59,0,4
0,42,0,5
0,30,0,1
0,58,84,8
0,42,85,4
0,30,114,1
0,42,0,18
0,30,0,5
0,40,106,1
0,58,0,9
0,28,111,13
0,40,91,4
0,40,0,5
0,59,84,8
0,28,0,2
0,40,0,4
0,30,103,2
0,36,75,1
0,42,81,2
0,59,0,10
0,30,0,0
0,42,0,2
0,36,0,3
0,61,93,4
0,42,91,3
0,30,117,0
0,61,0,19
0,42,0,3
0,36,81,1
0,30,0,1
0,58,99,20
0,36,0,24
0,31,110,47
0,43,79,4
0,40,104,3
0,31,0,7
0,43,0,1
0,31,101,11
0,43,79,1
0,31,0,11
0,40,0,1
0,43,0,1
0,31,104,9
0,43,79,4
0,36,71,3
0,31,0,4
0,43,0,3
0,58,0,6
0,31,102,3
0,43,81,4
0,36,0,1
0,31,0,6
0,43,0,1
0,31,111,13
0,43,91,3
0,36,86,4
0,31,0,13
0,43,0,7
0,30,110,0
0,42,82,2
0,66,105,1
0,30,0,9
0,42,0,2
0,30,114,9
0,42,85,2
0,66,0,2
0,36,0,6
0,30,0,2
0,42,0,2
0,30,120,11
0,66,96,1
0,42,81,2
0,30,0,18
0,42,0,0
0,40,98,1
0,66,0,14
0,28,110,13
0,40,77,2
0,64,99,0
0,40,0,9
0,28,0,7
0,40,0,3
0,36,70,2
0,30,110,0
0,42,79,2
0,64,0,6
0,42,0,5
0,30,0,1
0,36,0,4
0,42,85,6
0,30,117,0
0,64,98,3
0,42,0,15
0,36,79,5
0,30,0,6
0,64,0,5
0,61,100,16
0,36,0,15
0,61,0,11
0,61,97,24
0,31,110,12
0,43,83,4
0,40,106,3
0,31,0,6
0,43,0,3
0,61,0,3
0,31,109,6
0,43,79,2
0,59,99,8
0,40,0,2
0,31,0,1
0,43,0,1
0,31,106,10
0,43,88,3
0,36,79,4
0,31,0,5
0,59,0,1
0,43,0,2
0,31,109,9
0,36,0,1
0,43,73,2
0,59,95,4
0,31,0,5
0,43,0,1
0,59,0,8
0,31,110,3
0,43,84,3
0,36,83,3
0,58,100,1
0,31,0,11
0,43,0,7
0,42,79,1
0,30,111,0
0,58,0,8
0,30,0,4
0,42,0,2
0,30,113,10
0,42,79,2
0,59,98,0
0,36,0,1
0,30,0,8
0,42,0,2
0,59,0,5
0,30,114,8
0,42,91,1
0,58,103,3
0,30,0,15
0,42,0,0
0,40,106,11
0,28,112,19
0,58,0,3
0,40,79,0
0,40,0,7
0,28,0,3
0,40,0,7
0,59,96,0
0,30,110,3
0,42,88,4
0,36,77,3
0,30,0,6
0,59,0,1
0,42,0,4
0,36,0,5
0,30,120,1
0,42,89,2
0,61,96,0
0,30,0,21
0,42,0,2
0,61,0,1
0,36,84,1
0,63,100,18
0,36,0,25
0,43,81,49
0,31,109,4
0,40,105,2
0,43,0,7
0,31,0,3
0,43,79,9
0,31,105,2
0,40,0,8
0,43,0,0
0,31,0,3
0,43,74,11
0,31,105,2
0,36,79,2
0,43,0,6
0,31,0,2
0,36,0,11
0,43,63,2
0,63,0,2
0,31,96,0
0,43,0,3
0,31,0,9
0,31,110,11
0,43,83,2
0,36,84,1
0,31,0,15
0,30,100,5
0,43,0,1
0,42,62,2
0,66,100,0
0,30,0,9
0,42,0,2
0,30,113,11
0,36,0,3
0,42,63,0
0,66,0,4
0,42,0,4
0,30,0,1
0,66,100,11
0,30,116,3
0,42,81,1
0,42,0,22
0,30,0,1
0,40,105,2
0,66,0,6
0,64,107,12
0,28,111,3
0,40,64,2
0,40,0,7
0,40,0,4
0,28,0,1
0,30,110,9
0,64,0,2
0,42,60,0
0,36,69,2
0,30,0,9
0,42,0,1
0,64,102,8
0,36,0,2
0,30,117,0
0,42,75,3
0,30,0,21
0,64,0,3
0,42,0,0
0,36,83,1
0,61,103,18
0,36,0,24
0,61,0,3
0,61,97,23
0,31,110,24
0,43,79,1
0,61,0,2
0,40,104,0
0,43,0,8
0,31,0,1
0,59,96,9
0,43,73,2
0,31,104,0
0,40,0,7
0,43,0,5
0,31,0,1
0,43,75,11
0,31,104,0
0,59,0,1
0,36,70,2
0,43,0,7
0,31,0,2
0,59,91,9
0,36,0,1
0,31,104,1
0,43,70,2
0,43,0,7
0,31,0,1
0,59,0,4
0,31,111,9
0,58,95,3
0,36,79,2
0,43,83,0
0,31,0,15
0,43,0,0
0,42,77,8
0,30,110,0
0,58,0,8
0,36,0,3
0,42,0,0
0,30,0,2
0,42,82,10
0,30,110,0
0,59,102,0
0,42,0,11
0,30,0,2
0,59,0,4
0,30,112,7
0,42,78,2
0,58,100,1
0,30,0,17
0,40,98,3
0,42,0,6
0,28,113,20
0,40,79,3
0,40,0,2
0,58,0,1
0,28,0,8
0,40,0,2
0,36,63,6
0,30,110,0
0,59,99,0
0,42,77,3
0,30,0,9
0,42,0,2
0,59,0,5
0,36,0,2
0,30,120,3
0,42,84,3
0,61,99,0
0,30,0,14
0,61,0,2
0,36,75,5
0,58,106,3
0,58,0,13
0,42,0,1
0,58,111,9
0,36,0,28
0,43,91,38
0,31,111,0
0,40,104,8
0,43,0,1
0,31,0,4
0,40,0,8
0,43,79,1
0,31,104,1
0,43,0,9
0,40,74,1
0,31,0,3
0,40,0,7
0,43,70,5
0,31,106,1
0,58,0,1
0,40,79,6
0,43,0,1
0,31,0,5
0,40,0,2
0,43,81,9
0,31,98,1
0,40,71,4
0,43,0,7
0,31,0,0
0,40,0,5
0,42,106,10
0,30,93,0
0,31,110,0
0,36,84,5
0,30,99,18
0,31,0,1
0,70,110,1
0,58,93,0
0,73,71,0
0,30,0,11
0,30,110,12
0,73,0,5
0,58,0,2
0,70,0,1
0,36,0,3
0,30,0,1
0,70,106,11
0,58,93,0
0,73,73,1
0,30,120,2
0,40,83,26
0,30,0,3
0,73,0,1
0,70,0,9
0,71,70,6
0,58,0,1
0,68,108,1
0,28,117,1
0,56,96,0
0,40,0,6
0,28,0,9
0,30,112,9
0,36,66,2
0,68,0,1
0,56,0,0
0,71,0,1
0,30,0,9
0,36,0,7
0,68,110,2
0,56,99,0
0,71,75,1
0,30,120,2
0,68,0,26
0,71,0,0
0,36,73,1
0,56,0,1
0,54,103,15
0,66,106,0
0,70,69,2
0,30,0,12
0,36,0,20
0,70,0,2
0,54,0,4
0,66,0,1
0,68,77,6
0,63,93,2
0,51,97,0
0,68,0,11
0,63,0,4
0,51,0,1
0,70,81,6
0,54,103,1
0,66,97,1
0,42,0,1
0,30,0,1
0,31,98,1
0,43,111,0
0,31,117,2
0,40,102,5
0,70,0,2
0,66,0,3
0,31,0,1
0,54,0,1
0,71,79,5
0,68,108,1
0,56,91,1
0,31,112,4
0,40,0,6
0,31,0,5
0,31,110,16
0,36,64,3
0,31,0,8
0,36,0,11
0,31,115,2
0,71,0,10
0,31,0,0
0,31,0,6
0,43,0,2
0,42,97,1
0,30,93,0
0,31,118,4
0,36,84,3
0,68,0,2
0,56,0,3
0,31,0,9
0,73,81,8
0,30,114,3
0,70,110,1
0,58,95,1
0,30,0,8
0,36,0,9
0,30,120,2
0,73,0,7
0,70,0,3
0,58,0,0
0,30,0,3
0,30,120,11
0,73,89,3
0,70,113,1
0,58,93,1
0,30,0,14
0,40,106,7
0,73,0,10
0,70,0,3
0,58,0,4
0,40,0,6
0,28,115,1
0,68,108,2
0,56,99,0
0,71,67,0
0,28,0,13
0,30,111,7
0,36,79,3
0,71,0,2
0,56,0,1
0,68,0,2
0,30,0,5
0,36,0,10
0,30,120,1
0,71,83,3
0,68,108,1
0,56,102,1
0,36,81,23
0,56,0,6
0,68,0,1
0,71,0,1
0,54,96,13
0,66,99,0
0,70,85,1
0,36,0,10
0,30,0,16
0,70,0,9
0,54,0,2
0,66,0,2
0,68,85,9
0,63,96,1
0,51,93,0
0,68,0,14
0,63,0,0
0,51,0,0
0,42,0,5
0,31,101,3
0,43,106,0
0,70,85,0
0,40,96,1
0,54,100,0
0,66,100,2
0,30,0,1
0,31,112,2
0,70,0,7
0,66,0,5
0,31,0,0
0,54,0,3
0,71,66,2
0,40,0,2
0,56,100,1
0,31,110,1
0,68,107,0
0,31,0,12
0,36,67,10
0,31,110,0
0,31,0,12
0,36,0,7
0,31,111,4
0,31,0,12
0,71,0,9
0,42,93,2
0,30,96,0
0,31,113,0
0,43,0,2
0,31,0,1
0,68,0,0
0,36,86,0
0,56,0,2
0,31,0,14
0,30,110,6
0,58,81,1
0,70,106,2
0,58,93,1
0,73,82,0
0,36,0,5
0,30,0,4
0,30,120,11
0,58,0,6
0,73,0,1
0,58,0,1
0,70,0,2
0,30,0,2
0,58,95,10
0,30,120,3
0,70,110,3
0,58,93,1
0,73,81,0
0,40,109,22
0,30,0,7
0,58,0,2
0,73,0,3
0,70,0,1
0,58,0,1
0,56,97,7
0,40,0,1
0,71,71,2
0,28,113,1
0,68,107,2
0,56,102,1
0,28,0,13
0,36,63,5
0,30,110,0
0,71,0,5
0,56,0,1
0,56,0,2
0,68,0,0
0,30,0,6
0,36,0,4
0,30,121,8
0,56,93,1
0,71,73,1
0,68,108,3
0,56,100,1
0,36,84,15
0,56,0,11
0,71,0,1
0,68,0,0
0,56,0,2
0,54,99,14
0,70,73,1
0,66,100,1
0,54,103,0
0,36,0,1
0,54,0,21
0,70,0,3
0,66,0,0
0,54,0,6
0,54,93,15
0,66,106,1
0,54,104,0
0,70,71,1
0,30,0,4
0,42,0,7
0,43,105,1
0,31,96,1
0,30,0,2
0,31,110,3
0,40,102,1
0,54,0,7
0,70,0,2
0,54,0,1
0,66,0,0
0,31,0,2
0,31,107,8
0,40,0,3
0,54,99,2
0,54,100,1
0,66,96,0
0,70,66,4
0,31,0,3
0,54,0,3
0,66,0,1
0,54,0,2
0,70,0,1
0,31,106,3
0,54,96,5
0,36,62,1
0,66,100,0
0,54,93,0
0,70,51,4
0,31,0,2
0,54,0,4
0,66,0,0
0,70,0,1
0,54,0,1
0,31,104,4
0,54,95,4
0,36,0,1
0,66,95,1
0,54,92,0
0,70,53,2
0,31,0,4
0,54,0,1
0,66,0,3
0,70,0,4
0,54,0,1
0,42,95,4
0,30,95,0
0,31,111,0
0,52,99,3
0,52,104,0
0,43,0,1
0,31,0,1
0,64,107,0
0,36,84,1
0,71,51,0
0,31,0,11
0,52,0,0
0,52,0,0
0,64,0,2
0,30,97,3
0,71,0,3
0,52,107,2
0,70,63,1
0,52,96,2
0,64,116,1
0,50,83,1
0,30,0,3
0,50,0,0
0,36,0,2
0,70,0,3
0,52,0,7
0,30,113,1
0,64,0,5
0,52,0,1
0,30,0,6
0,49,95,9
0,70,34,1
0,30,117,3
0,49,106,1
0,61,117,2
0,70,0,17
0,40,104,9
0,30,0,3
0,28,115,17
0,40,0,5
0,28,0,11
0,30,110,7
0,36,73,4
0,62,112,3
0,30,0,7
0,36,0,10
0,30,118,1
0,49,0,17
0,36,88,9
0,61,100,19
0,62,0,4
0,59,93,13
0,61,0,2
0,36,0,1
0,58,95,14
0,59,0,5
0,30,0,11
0,43,102,22
0,31,93,1
0,31,107,1
0,42,0,2
0,30,0,1
0,40,106,4
0,31,0,6
0,31,109,9
0,40,0,3
0,61,0,5
0,49,0,1
0,59,105,2
0,31,0,2
0,58,0,1
0,31,109,12
0,40,91,5
0,58,100,1
0,59,0,6
0,31,0,0
0,31,107,12
0,40,0,1
0,36,73,3
0,31,0,8
0,36,0,3
0,30,93,9
0,42,97,0
0,31,0,1
0,31,111,2
0,43,0,2
0,36,88,1
0,31,0,15
0,30,100,7
0,70,113,0
0,58,99,1
0,73,85,3
0,70,92,0
0,30,0,8
0,30,110,11
0,58,0,5
0,70,0,2
0,73,0,0
0,70,0,2
0,36,0,3
0,30,0,0
0,73,82,10
0,70,100,1
0,30,113,1
0,70,114,0
0,58,103,1
0,58,0,4
0,40,102,19
0,73,0,7
0,30,0,2
0,58,0,0
0,70,0,1
0,70,0,2
0,68,100,9
0,71,67,1
0,68,110,1
0,28,113,2
0,56,102,0
0,40,0,4
0,28,0,12
0,56,0,6
0,30,111,1
0,71,0,1
0,36,77,0
0,68,0,1
0,68,0,0
0,30,0,13
0,36,0,5
0,68,110,0
0,71,71,1
0,56,100,1
0,68,104,1
0,30,118,3
0,56,0,21
0,36,79,0
0,71,0,1
0,68,0,1
0,68,0,3
0,66,108,14
0,70,79,0
0,66,93,0
0,54,103,2
0,36,0,11
0,70,0,20
0,54,0,0
0,66,0,5
0,66,0,1
0,68,77,6
0,51,104,2
0,63,110,1
0,30,0,3
0,68,0,8
0,63,0,2
0,51,0,3
0,70,71,5
0,31,110,1
0,66,100,0
0,43,102,2
0,54,100,0
0,66,81,1
0,31,91,1
0,42,0,3
0,30,0,1
0,40,102,0
0,31,0,5
0,70,0,1
0,66,0,1
0,54,0,4
0,66,0,3
0,68,106,2
