track,note,velocity,time
0,50,66,143
0,69,74,1
0,57,40,93
0,62,44,100
0,57,0,1
0,69,0,49
0,66,63,43
0,62,0,16
0,57,48,88
0,57,0,24
0,69,91,16
0,66,0,15
0,57,35,36
0,50,0,34
0,57,0,5
0,69,0,9
0,62,57,1
0,50,67,46
0,67,79,1
0,62,0,1
0,57,27,96
0,57,0,87
0,62,52,6
0,67,0,8
0,62,0,93
0,64,79,0
0,57,41,95
0,57,0,38
0,64,0,3
0,67,77,7
0,57,41,51
0,50,0,26
0,67,0,21
0,62,41,0
0,57,0,4
0,66,73,39
0,50,60,1
0,62,0,3
0,57,54,75
0,57,0,74
0,62,62,25
0,66,0,14
0,62,0,23
0,62,66,57
0,62,0,37
0,59,70,68
0,59,0,69
0,60,79,19
0,60,0,18
0,50,0,16
0,52,71,63
0,60,79,0
0,60,0,66
0,57,44,39
0,57,0,58
0,60,63,29
0,67,101,95
0,60,0,6
0,67,0,66
0,57,48,26
0,57,0,62
0,52,0,8
0,60,67,21
0,57,55,49
0,60,0,4
0,66,48,0
0,66,41,0
0,38,73,1
0,69,84,0
0,57,0,3
0,69,53,2
0,50,79,1
0,57,54,85
0,69,0,71
0,57,0,10
0,62,52,20
0,66,0,3
0,62,0,41
0,69,0,24
0,66,0,6
0,62,50,8
0,66,71,7
0,62,69,3
0,62,0,44
0,66,50,13
0,57,57,4
0,62,0,22
0,57,0,8
0,69,88,17
0,66,0,23
0,66,0,8
0,66,32,13
0,57,57,4
0,69,70,2
0,50,0,15
0,69,0,14
0,38,0,4
0,62,41,10
0,69,0,8
0,66,0,4
0,57,0,16
0,38,71,1
0,64,79,3
0,67,75,0
0,67,44,0
0,62,0,1
0,50,67,0
0,64,60,0
0,57,40,18
0,64,0,15
0,57,0,20
0,67,0,7
0,64,0,5
0,67,0,9
0,57,52,39
0,57,0,86
0,64,69,1
0,60,48,1
0,64,79,4
0,60,67,1
0,60,0,50
0,60,0,9
0,57,40,18
0,64,0,13
0,57,0,19
0,64,0,1
0,67,81,19
0,64,36,3
0,64,63,0
0,67,69,2
0,64,0,2
0,57,58,4
0,38,0,3
0,67,0,19
0,50,0,5
0,67,0,6
0,57,0,11
0,60,58,8
0,64,0,2
0,66,49,34
0,62,58,2
0,50,62,1
0,62,73,1
0,66,77,1
0,38,64,0
0,60,0,4
0,57,55,5
0,57,0,17
0,62,0,1
0,62,0,51
0,57,53,17
0,57,0,56
0,66,0,24
0,62,69,12
0,59,66,1
0,62,75,3
0,59,64,1
0,66,0,5
0,59,0,19
0,57,41,50
0,50,0,23
0,57,0,13
0,59,0,15
0,62,0,21
0,38,0,14
0,62,0,11
0,59,48,8
0,59,0,33
0,33,84,55
0,64,86,2
0,62,75,0
0,62,48,1
0,45,81,1
0,64,62,0
0,62,0,28
0,57,39,30
0,64,0,39
0,62,46,10
0,57,0,93
0,64,79,1
0,62,0,11
0,64,0,39
0,57,57,56
0,57,0,33
0,33,0,23
0,45,0,3
0,62,0,2
0,62,44,20
0,62,0,36
0,64,0,27
0,69,110,4
0,38,33,1
0,66,40,1
0,38,73,0
0,62,37,3
0,69,63,2
0,50,48,0
0,64,67,1
0,38,60,1
0,50,0,6
0,62,0,63
0,38,0,56
0,66,93,4
0,50,41,2
0,69,0,10
0,64,0,8
0,69,0,57
0,62,30,18
0,50,0,25
0,66,0,8
0,62,0,43
0,69,105,6
0,69,40,1
0,38,0,6
0,66,0,2
0,38,0,5
0,69,0,35
0,38,69,33
0,38,46,5
0,62,26,1
0,67,58,0
0,50,30,2
0,67,99,0
0,64,58,1
0,69,0,9
0,50,0,10
0,62,0,32
0,64,0,157
0,38,0,1
0,50,52,31
0,64,105,6
0,67,0,3
0,50,0,14
0,62,28,42
0,67,0,1
0,67,101,82
0,38,0,2
0,62,0,1
0,64,0,4
0,69,48,3
0,69,0,73
0,38,67,12
0,62,37,10
0,66,45,0
0,38,60,3
0,66,95,0
0,64,64,4
0,67,0,7
0,62,0,7
0,50,44,2
0,66,0,4
0,62,93,0
0,64,0,9
0,50,0,8
0,66,0,46
0,62,41,1
0,38,0,13
0,62,0,31
0,38,0,44
0,66,81,0
0,50,55,3
0,62,0,5
0,50,0,18
0,60,58,28
0,33,84,0
0,64,110,1
0,64,74,2
0,66,0,1
0,45,66,2
0,64,0,72
0,57,46,1
0,60,0,46
0,57,0,27
0,60,71,114
0,45,0,19
0,59,70,27
0,60,0,13
0,57,74,25
0,59,0,6
0,64,0,42
0,33,0,8
0,57,0,36
0,55,67,10
0,55,0,20
0,66,60,2
0,38,73,4
0,62,83,1
0,38,62,1
0,69,107,0
0,50,44,1
0,62,0,1
0,50,0,4
0,66,0,41
0,66,88,166
0,50,32,7
0,69,0,2
0,50,0,33
0,62,55,17
0,69,99,53
0,66,0,4
0,62,0,29
0,69,86,5
0,38,0,14
0,38,0,4
0,69,0,3
0,33,83,10
0,38,58,4
0,67,63,1
0,62,53,1
0,67,104,1
0,64,77,1
0,69,0,1
0,62,0,21
0,64,0,6
0,67,0,15
0,50,46,5
0,64,99,0
0,67,0,7
0,50,0,40
0,62,66,6
0,62,0,57
0,67,104,2
0,64,0,7
0,38,0,19
0,69,58,14
0,69,0,34
0,33,0,1
0,38,75,56
0,66,55,3
0,66,82,0
0,62,57,2
0,38,64,2
0,67,0,6
0,62,0,21
0,50,44,6
0,62,88,4
0,66,0,3
0,50,0,3
0,69,84,39
0,66,0,13
0,69,0,24
0,38,0,26
0,66,93,0
0,62,0,10
0,38,0,21
0,50,55,0
0,50,0,16
0,64,101,68
0,45,70,9
0,64,75,1
0,60,53,0
0,66,0,1
0,33,79,0
0,60,0,14
0,60,86,16
0,64,0,2
0,57,40,23
0,57,0,75
0,64,0,2
0,60,70,8
0,45,0,46
0,60,0,31
0,64,83,12
0,33,0,12
0,64,0,4
0,60,0,48
0,69,110,11
0,62,55,3
0,50,62,0
0,38,73,2
0,66,24,7
0,62,55,5
0,38,64,1
0,64,69,1
0,69,54,4
0,62,0,72
0,45,40,5
0,50,33,96
0,64,0,21
0,69,0,38
0,71,96,24
0,69,0,7
0,50,0,4
0,62,52,2
0,66,0,22
0,62,0,35
0,67,104,24
0,69,73,3
0,71,0,4
0,45,0,2
0,69,0,12
0,38,0,11
0,67,0,54
0,38,0,1
0,69,109,1
0,50,52,1
0,50,0,12
0,71,52,54
0,69,0,5
0,50,0,8
0,66,44,4
0,35,91,5
0,47,60,1
0,69,110,2
0,63,54,2
0,59,56,1
0,47,40,0
0,62,0,3
0,54,37,19
0,63,0,31
0,59,27,19
0,66,0,82
0,71,0,10
0,63,56,4
0,63,0,36
0,54,0,3
0,66,78,12
0,59,0,3
0,69,0,25
0,47,0,63
0,63,66,6
0,66,0,9
0,63,0,10
0,35,0,42
0,47,0,10
0,64,66,5
0,28,81,3
0,64,99,0
0,59,69,1
0,52,48,0
0,40,79,1
0,64,86,2
0,59,0,2
0,59,0,6
0,47,51,20
0,52,27,63
0,67,79,90
0,67,106,0
0,52,0,1
0,64,0,1
0,64,0,7
0,28,0,56
0,47,0,54
0,67,0,10
0,67,0,14
0,52,40,2
0,40,0,4
0,62,99,0
0,52,0,12
0,62,0,42
0,52,0,39
0,34,91,0
0,46,56,1
0,62,99,1
0,62,53,0
0,34,78,2
0,58,50,0
0,62,70,1
0,64,0,11
0,58,0,1
0,46,58,60
0,64,95,56
0,62,0,4
0,62,0,5
0,46,0,17
0,34,0,11
0,34,0,0
0,58,63,3
0,66,95,1
0,64,0,7
0,58,0,11
0,46,0,67
0,45,58,0
0,33,70,2
0,61,95,2
0,64,105,0
0,62,0,1
0,66,0,0
0,64,64,0
0,33,73,1
0,57,74,2
0,57,0,17
0,61,0,93
0,33,0,20
0,33,0,25
0,45,41,8
0,45,0,18
0,64,0,7
0,66,68,1
0,45,0,2
0,38,64,0
0,69,110,0
0,62,70,1
0,38,73,0
0,66,66,2
0,50,57,3
0,64,0,3
0,45,39,56
0,62,0,57
0,50,28,40
0,50,0,83
0,69,86,1
0,71,104,3
0,66,0,9
0,69,0,0
0,69,0,38
0,67,105,84
0,71,0,3
0,45,0,4
0,38,0,2
0,38,0,12
0,67,0,15
0,69,104,2
0,69,0,39
0,51,53,15
0,54,68,5
0,50,0,3
0,35,70,2
0,35,83,1
0,69,109,0
0,59,71,2
0,59,56,1
0,66,0,3
0,47,39,2
0,51,0,12
0,47,38,50
0,54,0,45
0,59,0,6
0,51,51,51
0,51,0,12
0,60,83,42
0,47,0,49
0,60,0,72
0,69,0,24
0,35,0,34
0,47,52,6
0,64,105,6
0,47,0,8
0,64,0,27
0,59,48,10
0,35,0,6
0,47,0,8
0,64,58,0
0,40,77,4
0,28,91,0
0,52,35,0
0,64,62,3
0,67,70,2
0,64,101,5
0,59,0,5
0,59,0,25
0,52,51,21
0,67,0,59
0,64,0,23
0,66,89,1
0,64,0,3
0,59,51,7
0,66,0,10
0,67,74,4
0,59,0,5
0,67,106,1
0,52,0,4
0,67,0,42
0,52,0,7
0,40,0,5
0,67,0,4
0,62,88,4
0,52,31,5
0,52,0,15
0,28,0,11
0,34,91,10
0,66,95,0
0,62,0,1
0,46,78,0
0,66,71,3
0,58,73,1
0,46,56,4
0,64,0,11
0,58,0,15
0,66,0,45
0,64,111,2
0,66,0,1
0,34,0,8
0,53,27,11
0,53,0,54
0,58,50,21
0,58,0,19
0,46,0,1
0,33,86,3
0,61,58,7
0,64,71,3
0,57,52,1
0,45,63,1
0,59,71,0
0,57,0,16
0,59,0,16
0,61,0,13
0,33,0,1
0,64,0,5
0,64,0,23
0,52,39,9
0,46,0,30
0,57,106,22
0,45,0,15
0,57,41,12
0,52,0,12
0,57,0,1
0,62,48,49
0,66,35,20
0,97,44,0
0,87,42,0
0,99,51,0
0,51,53,0
0,50,56,0
0,97,0,1
0,87,0,0
0,99,0,0
0,51,0,0
0,62,48,0
0,69,41,1
0,38,75,1
0,38,56,0
0,57,0,1
0,69,111,0
0,66,48,2
0,69,66,4
0,38,60,0
0,64,74,1
0,62,0,2
0,97,90,23
0,97,0,1
0,99,57,21
0,44,51,0
0,99,0,1
0,44,0,0
0,45,41,9
0,38,0,14
0,64,0,39
0,97,79,1
0,97,0,1
0,50,39,25
0,98,48,6
0,97,46,0
0,99,44,0
0,44,61,0
0,98,0,1
0,97,0,0
0,99,0,0
0,44,0,0
0,69,0,41
0,97,46,22
0,51,40,0
0,97,0,1
0,51,0,0
0,69,0,2
0,66,93,1
0,66,0,4
0,62,57,4
0,50,0,1
0,99,42,2
0,97,52,0
0,87,36,0
0,51,61,0
0,99,0,1
0,97,0,0
0,87,0,0
0,51,0,0
0,97,86,27
0,97,0,1
0,38,54,22
0,99,50,9
0,97,78,0
0,44,64,0
0,99,0,1
0,97,0,0
0,44,0,0
0,62,0,17
0,38,0,3
0,69,86,5
0,62,0,4
0,66,0,3
0,50,0,1
0,38,0,1
0,69,0,1
0,69,109,0
0,66,0,11
0,38,71,34
0,99,44,13
0,98,40,0
0,97,64,0
0,44,57,0
0,99,0,1
0,98,0,0
0,97,0,0
0,44,0,0
0,38,0,17
0,38,0,2
0,45,0,2
0,69,0,11
0,97,85,31
0,97,0,1
0,66,46,6
0,62,66,2
0,67,73,0
0,50,58,1
0,38,64,0
0,38,91,1
0,67,104,6
0,99,42,7
0,97,48,0
0,51,60,0
0,87,38,0
0,99,0,1
0,97,0,0
0,51,0,0
0,87,0,0
0,62,60,0
0,67,74,3
0,69,0,1
0,38,64,0
0,62,0,23
0,97,48,30
0,97,0,1
0,44,66,11
0,97,57,0
0,99,42,0
0,44,0,1
0,97,0,0
0,99,0,0
0,45,40,11
0,38,0,27
0,97,90,25
0,98,48,0
0,97,0,1
0,98,0,0
0,44,66,31
0,97,44,0
0,99,45,0
0,44,0,1
0,97,0,0
0,99,0,0
0,50,35,14
0,51,48,49
0,98,44,0
0,99,46,0
0,97,40,0
0,51,0,1
0,98,0,0
0,99,0,0
0,97,0,0
0,67,0,11
0,50,0,0
0,51,61,1
0,99,47,0
0,87,37,0
0,97,48,0
0,67,0,1
0,51,0,0
0,99,0,0
0,87,0,0
0,97,0,0
0,64,104,0
0,62,64,4
0,97,44,3
0,97,90,0
0,97,0,1
0,97,0,0
0,38,74,25
0,99,46,6
0,97,54,0
0,44,60,0
0,99,0,1
0,97,0,0
0,44,0,0
0,50,38,11
0,38,0,4
0,62,0,4
0,66,0,3
0,50,0,0
0,38,0,4
0,67,0,11
0,67,105,12
0,64,0,2
0,50,0,3
0,97,90,6
0,97,0,1
0,62,0,1
0,67,79,1
0,38,74,23
0,99,60,6
0,97,68,0
0,44,73,0
0,98,51,0
0,99,0,1
0,97,0,0
0,44,0,0
0,98,0,0
0,50,57,8
0,38,0,11
0,45,0,5
0,50,0,18
0,38,0,5
0,67,0,14
0,51,56,2
0,97,57,0
0,87,41,0
0,51,0,1
0,97,0,0
0,87,0,0
0,62,44,1
0,66,51,18
0,50,53,4
0,38,54,1
0,62,60,1
0,66,77,3
0,97,44,0
0,87,42,0
0,99,51,0
0,51,53,0
0,97,0,1
0,87,0,0
0,99,0,0
0,51,0,0
0,26,83,0
0,38,74,1
0,66,93,2
0,67,0,1
0,62,0,7
0,97,90,33
0,97,0,1
0,99,57,4
0,44,51,0
0,99,0,1
0,44,0,0
0,45,50,8
0,97,79,47
0,97,0,1
0,98,48,31
0,97,46,0
0,99,44,0
0,44,61,0
0,98,0,1
0,97,0,0
0,99,0,0
0,44,0,0
0,50,48,5
0,97,46,58
0,51,40,0
0,97,0,1
0,51,0,0
0,66,0,7
0,99,42,18
0,97,52,0
0,87,36,0
0,51,61,0
0,99,0,1
0,97,0,0
0,87,0,0
0,51,0,0
0,66,0,1
0,50,0,2
0,62,99,0
0,62,69,3
0,26,0,42
0,97,86,9
0,97,0,1
0,66,96,25
0,62,0,2
0,38,79,1
0,99,50,3
0,97,78,0
0,44,64,0
0,99,0,1
0,97,0,0
0,44,0,0
0,66,0,1
0,38,0,0
0,62,0,6
0,66,68,1
0,50,0,1
0,62,0,4
0,66,0,20
0,38,0,19
0,66,0,23
0,45,0,9
0,64,110,1
0,99,44,7
0,98,40,0
0,97,64,0
0,44,57,0
0,99,0,1
0,98,0,0
0,97,0,0
0,44,0,0
0,50,40,3
0,50,0,11
0,64,0,15
0,38,0,12
0,97,85,10
0,97,0,1
0,60,50,11
0,57,51,1
0,64,63,2
0,60,55,2
0,45,86,0
0,64,107,7
0,33,88,4
0,45,86,2
0,99,42,1
0,97,48,0
0,51,60,0
0,87,38,0
0,64,75,0
0,99,0,1
0,97,0,0
0,51,0,0
0,87,0,0
0,60,0,2
0,97,48,31
0,97,0,1
0,64,0,5
0,66,96,1
0,44,66,6
0,97,57,0
0,99,42,0
0,44,0,1
0,97,0,0
0,99,0,0
0,52,73,1
0,97,90,37
0,98,48,0
0,97,0,1
0,98,0,0
0,66,0,13
0,64,107,10
0,57,56,7
0,44,66,1
0,97,44,0
0,99,45,0
0,44,0,1
0,97,0,0
0,99,0,0
0,64,0,18
0,64,0,11
0,51,48,14
0,98,44,0
0,99,46,0
0,97,40,0
0,51,0,1
0,98,0,0
0,99,0,0
0,97,0,0
0,57,0,5
0,64,113,14
0,60,70,10
0,51,61,1
0,99,47,0
0,87,37,0
0,97,48,0
0,51,0,1
0,99,0,0
0,87,0,0
0,97,0,0
0,33,0,4
0,64,0,57
0,57,0,1
0,97,44,1
0,97,90,0
0,97,0,1
0,97,0,0
0,60,0,3
0,60,0,1
0,64,0,0
0,45,0,8
0,66,100,5
0,33,83,5
0,64,99,6
0,99,46,3
0,97,54,0
0,44,60,0
0,99,0,1
0,97,0,0
0,44,0,0
0,33,0,18
0,97,90,11
0,97,0,1
0,66,0,2
0,64,112,13
0,52,0,6
0,33,79,2
0,99,60,8
0,97,68,0
0,44,73,0
0,98,51,0
0,99,0,1
0,97,0,0
0,44,0,0
0,98,0,0
0,57,56,1
0,45,0,7
