track,note,velocity,time
0,45,93,240
0,50,99,46
0,66,92,54
0,50,0,43
0,66,0,4
0,48,99,4
0,67,105,4
0,62,91,86
0,67,0,4
0,62,0,45
0,60,93,5
0,45,0,7
0,48,0,4
0,60,0,40
0,59,88,3
0,43,79,6
0,50,86,36
0,62,88,1
0,59,0,5
0,50,0,58
0,50,73,38
0,62,0,16
0,64,106,39
0,50,0,45
0,64,0,8
0,62,104,50
0,43,0,25
0,50,83,30
0,50,0,19
0,45,91,7
0,50,95,36
0,62,0,10
0,66,95,44
0,50,0,41
0,66,0,5
0,48,96,1
0,67,101,3
0,62,91,75
0,67,0,4
0,62,0,46
0,60,81,5
0,45,0,14
0,48,0,10
0,60,0,27
0,59,83,2
0,43,79,2
0,64,86,27
0,59,0,6
0,50,57,48
0,64,0,25
0,62,58,30
0,62,0,20
0,64,101,34
0,50,0,1
0,64,0,42
0,62,93,60
0,50,79,53
0,43,0,6
0,50,0,13
0,45,91,6
0,66,93,30
0,50,98,3
0,62,0,12
0,66,0,32
0,62,93,0
0,62,71,9
0,62,0,28
0,62,0,4
0,64,104,12
0,66,73,7
0,50,0,4
0,64,0,80
0,62,88,13
0,66,0,6
0,50,75,53
0,45,0,35
0,50,0,6
0,59,84,63
0,43,79,1
0,62,0,17
0,55,69,31
0,62,86,0
0,59,0,8
0,62,0,37
0,64,99,4
0,59,96,6
0,43,0,23
0,59,0,5
0,55,0,12
0,64,0,2
0,62,95,5
0,57,75,6
0,57,0,24
0,45,98,6
0,61,93,0
0,57,58,33
0,62,0,44
0,57,0,0
0,59,96,2
0,59,79,6
0,61,0,4
0,45,0,15
0,59,0,26
0,59,0,1
0,57,98,2
0,57,90,9
0,38,74,6
0,57,0,12
0,50,79,22
0,54,78,52
0,54,0,35
0,57,101,17
0,50,0,25
0,57,0,37
0,54,93,102
0,57,0,11
0,54,0,8
0,38,0,30
0,50,62,2
0,50,0,9
0,43,90,0
0,59,88,1
0,55,71,29
0,59,0,18
0,59,88,39
0,43,0,47
0,55,0,13
0,59,0,3
0,61,91,42
0,45,93,0
0,57,70,24
0,61,0,45
0,59,79,10
0,57,0,3
0,59,0,11
0,45,0,1
0,57,84,32
0,57,0,27
0,66,82,4
0,38,73,1
0,54,79,2
0,50,79,3
0,50,0,1
0,66,0,13
0,66,95,12
0,50,71,6
0,54,0,18
0,66,0,7
0,66,82,5
0,54,82,8
0,66,0,10
0,67,104,10
0,54,0,3
0,57,79,5
0,67,0,12
0,67,91,7
0,67,0,11
0,67,102,13
0,50,0,2
0,67,0,44
0,62,83,6
0,62,0,21
0,50,56,18
0,62,91,5
0,38,0,13
0,57,0,3
0,50,0,8
0,62,0,10
0,60,84,9
0,60,0,23
0,60,93,21
0,43,81,2
0,55,75,2
0,59,77,0
0,55,0,10
0,60,0,1
0,59,91,9
0,55,63,14
0,59,0,7
0,59,0,16
0,59,88,2
0,59,0,27
0,62,93,4
0,59,86,13
0,59,70,35
0,55,0,2
0,62,0,6
0,43,0,1
0,59,0,11
0,45,93,2
0,61,88,0
0,57,79,1
0,57,0,4
0,57,71,26
0,59,0,44
0,64,93,9
0,61,0,2
0,57,0,14
0,64,0,20
0,45,0,4
0,59,83,7
0,59,0,44
0,61,97,4
0,47,81,5
0,62,84,2
0,59,79,0
0,59,0,4
0,61,0,21
0,62,101,1
0,59,66,8
0,62,0,13
0,62,56,44
0,62,0,39
0,64,101,1
0,62,0,4
0,66,75,5
0,59,0,29
0,62,84,59
0,64,0,5
0,61,93,52
0,62,0,3
0,59,75,10
0,61,0,22
0,66,0,5
0,59,0,1
0,47,0,4
0,61,89,10
0,45,96,6
0,61,85,0
0,57,79,1
0,57,0,16
0,57,63,31
0,62,95,5
0,61,0,5
0,61,0,38
0,59,67,5
0,64,95,51
0,62,0,3
0,57,0,25
0,64,0,68
0,57,79,3
0,57,0,40
0,57,88,14
0,57,84,10
0,59,0,6
0,45,0,6
0,57,0,0
0,57,0,30
0,66,85,0
0,66,0,45
0,66,92,7
0,38,77,2
0,54,82,0
0,50,84,1
0,50,0,7
0,66,0,13
0,66,81,16
0,50,83,3
0,54,0,10
0,66,0,33
0,54,73,6
0,67,90,0
0,54,0,39
0,57,101,14
0,50,0,11
0,67,0,60
0,62,81,35
0,62,0,26
0,62,101,23
0,50,101,2
0,57,0,9
0,38,0,8
0,62,0,16
0,50,0,7
0,60,93,5
0,60,0,18
0,60,93,13
0,60,0,22
0,43,91,3
0,55,83,1
0,59,91,0
0,59,96,9
0,55,0,2
0,55,74,27
0,59,0,2
0,60,91,5
0,59,0,9
0,60,0,19
0,59,71,21
0,62,91,4
0,62,0,42
0,62,74,5
0,43,0,1
0,59,0,0
0,62,52,7
0,55,0,1
0,62,0,7
0,62,0,17
0,64,99,10
0,61,88,4
0,45,98,3
0,57,79,0
0,57,0,1
0,64,0,17
0,57,73,9
0,62,83,0
0,61,0,57
0,62,0,1
0,64,90,2
0,57,91,0
0,57,0,12
0,57,0,16
0,64,0,2
0,45,0,4
0,57,75,11
0,57,0,53
0,38,77,6
0,54,66,4
0,57,79,1
0,66,96,32
0,50,67,3
0,54,0,2
0,66,0,23
0,57,0,12
0,66,82,11
0,54,73,4
0,66,0,21
0,67,110,8
0,67,0,19
0,54,0,4
0,57,99,3
0,67,106,11
0,50,0,16
0,67,0,66
0,62,96,6
0,62,0,25
0,62,95,27
0,57,0,9
0,50,96,0
0,38,0,10
0,50,0,13
0,62,0,7
0,60,96,15
0,60,0,31
0,59,88,1
0,43,75,8
0,59,75,0
0,55,70,1
0,55,0,5
0,59,0,32
0,55,74,0
0,62,95,1
0,62,99,53
0,59,0,1
0,55,0,3
0,62,0,29
0,43,0,14
0,62,0,1
0,64,96,1
0,55,63,1
0,55,0,23
0,62,90,3
0,61,89,4
0,57,84,0
0,45,98,1
0,64,0,3
0,57,0,13
0,57,58,22
0,61,0,18
0,62,0,18
0,57,84,3
0,57,0,12
0,61,93,8
0,57,88,0
0,57,0,4
0,45,0,12
0,61,0,6
0,57,0,2
0,38,74,5
0,54,77,3
0,57,90,1
0,50,83,1
0,50,0,1
0,50,77,32
0,66,96,0
0,54,0,5
0,66,0,17
0,57,0,7
0,66,81,6
0,66,0,17
0,54,66,1
0,66,82,11
0,66,0,19
0,54,0,15
0,67,99,4
0,57,91,3
0,67,0,18
0,67,102,20
0,50,0,3
0,67,0,41
0,62,81,9
0,62,0,22
0,62,88,28
0,50,84,12
0,38,0,11
0,57,0,3
0,50,0,12
0,62,0,2
0,60,96,18
0,60,0,43
0,43,83,5
0,59,90,1
0,55,69,0
0,59,91,0
0,55,0,16
0,59,0,24
0,62,99,7
0,55,74,2
0,59,0,13
0,62,0,11
0,62,99,25
0,59,84,6
0,62,0,40
0,64,93,5
0,43,0,4
0,62,86,2
0,59,0,2
0,55,0,5
0,64,0,3
0,62,0,7
0,64,99,7
0,61,89,7
0,57,88,1
0,45,91,0
0,57,0,3
0,64,0,15
0,62,95,14
0,57,53,1
0,62,0,32
0,62,104,23
0,57,0,2
0,64,88,0
0,61,0,2
0,64,0,34
0,61,93,10
0,62,0,1
0,45,0,5
0,57,74,0
0,57,0,18
0,47,84,9
0,59,79,1
0,62,93,1
0,59,0,8
0,59,62,27
0,62,99,5
0,61,0,4
0,62,0,6
0,62,41,46
0,62,0,24
0,64,98,15
0,62,0,4
0,59,0,4
0,62,74,1
0,62,73,96
0,64,0,8
0,61,91,49
0,59,73,6
0,62,0,1
0,62,0,3
0,47,0,8
0,59,0,8
0,61,0,7
0,61,82,23
0,45,93,1
0,61,65,3
0,64,96,1
0,57,79,0
0,59,81,1
0,57,0,9
0,61,97,34
0,61,0,45
0,64,104,6
0,64,0,49
0,61,91,2
0,57,99,46
0,61,0,1
0,61,0,3
0,59,0,2
0,61,0,1
0,62,96,0
0,64,0,2
0,45,0,3
0,57,0,1
0,62,0,39
0,61,96,1
0,54,77,10
0,57,81,0
0,50,84,1
0,38,77,0
0,36,91,3
0,50,0,11
0,66,100,33
0,50,98,4
0,57,0,9
0,54,0,5
0,61,0,14
0,36,0,12
0,50,0,2
0,66,0,2
0,62,101,3
0,52,84,3
0,40,109,1
0,38,0,11
0,52,0,27
0,40,0,7
0,62,0,1
0,54,89,4
0,57,99,1
0,64,104,0
0,52,102,1
0,36,91,0
0,52,0,23
0,36,0,40
0,57,0,8
0,64,0,4
0,62,95,24
0,50,84,2
0,36,91,3
0,54,0,7
0,50,0,34
0,36,0,7
0,57,99,2
0,52,102,0
0,40,105,0
0,52,0,16
0,57,0,11
0,40,0,18
0,50,88,3
0,36,84,2
0,50,0,13
0,36,0,11
0,62,0,7
0,62,91,5
0,43,79,0
0,59,81,1
0,36,99,1
0,57,41,4
0,57,0,4
0,62,93,30
0,55,74,6
0,62,0,5
0,36,0,25
0,62,0,5
0,59,0,6
0,64,93,2
0,40,110,7
0,57,79,1
0,57,0,30
0,64,0,11
0,40,0,1
0,62,99,4
0,43,0,1
0,55,0,1
0,62,86,1
0,36,88,1
0,62,0,17
0,61,78,9
0,45,90,0
0,57,77,2
0,36,0,11
0,57,0,1
0,36,84,34
0,57,62,1
0,57,0,35
0,36,0,2
0,61,0,6
0,59,98,0
0,62,0,1
0,40,106,5
0,59,83,2
0,45,0,15
0,59,0,23
0,59,0,5
0,57,98,0
0,57,95,8
0,57,0,17
0,40,0,9
0,38,77,19
0,36,96,6
0,50,91,45
0,40,104,51
0,50,0,1
0,57,95,0
0,36,0,1
0,57,0,39
0,40,0,6
0,36,93,2
0,54,85,1
0,36,0,64
0,36,83,6
0,57,96,1
0,54,0,8
0,57,0,12
0,57,0,2
0,36,0,28
0,50,84,0
0,40,111,1
0,38,0,3
0,50,0,17
0,59,79,24
0,40,0,2
0,36,84,2
0,36,0,23
0,43,83,6
0,36,84,2
0,55,71,34
0,59,0,13
0,36,0,37
0,59,91,0
0,40,109,0
0,55,0,7
0,59,0,36
0,40,0,4
0,55,70,1
0,36,91,2
0,43,0,1
0,55,0,16
0,61,93,8
0,45,91,0
0,36,0,13
0,57,69,31
0,36,88,1
0,57,0,41
0,36,0,3
0,61,0,3
0,40,104,4
0,59,91,1
0,45,0,7
0,59,0,13
0,40,0,23
0,36,84,7
0,57,79,16
0,36,0,7
0,57,0,12
0,66,89,9
0,36,95,2
0,54,73,3
0,38,73,1
0,57,91,1
0,66,0,8
0,66,82,1
0,66,0,16
0,66,81,8
0,50,79,5
0,54,0,7
0,66,0,2
0,57,0,8
0,66,88,3
0,66,0,15
0,36,0,11
0,66,96,0
0,40,104,3
0,54,79,1
0,54,0,21
0,66,0,14
0,40,0,5
0,50,0,3
0,67,105,2
0,54,91,3
0,57,98,0
0,36,86,0
0,67,0,11
0,67,95,11
0,67,0,15
0,67,105,14
0,36,0,2
0,36,91,47
0,54,0,38
0,67,0,1
0,57,0,4
0,50,106,0
0,36,0,1
0,62,95,1
0,40,104,5
0,38,0,17
0,62,0,4
0,60,84,0
0,50,0,12
0,40,0,13
0,60,0,3
0,36,84,1
0,59,95,1
0,36,0,2
0,43,81,6
0,55,73,0
0,59,88,1
0,55,0,4
0,36,93,0
0,59,0,11
0,55,71,6
0,55,74,9
0,55,0,5
0,59,0,6
0,55,91,7
0,59,81,34
0,36,0,6
0,40,99,7
0,55,0,28
0,59,0,7
0,62,83,1
0,43,0,2
0,40,0,5
0,36,90,2
0,62,0,8
0,61,81,5
0,45,98,0
0,57,79,2
0,57,0,1
0,36,0,1
0,57,67,28
0,36,84,2
0,55,0,27
0,36,0,16
0,57,0,4
0,61,0,2
0,64,99,1
0,40,106,0
0,64,0,22
0,40,0,19
0,45,0,2
0,62,99,1
0,57,73,3
0,36,79,1
0,57,0,20
0,36,0,2
0,62,0,4
0,61,91,5
0,47,79,4
0,59,74,0
0,62,93,1
0,36,93,0
0,59,0,6
0,61,0,30
0,59,63,0
0,62,96,2
0,62,0,8
0,59,0,21
0,36,0,14
0,59,67,8
0,40,104,5
0,59,0,19
0,40,0,21
0,62,0,1
0,62,99,0
0,64,96,2
0,36,93,4
0,36,0,50
0,62,98,47
0,36,88,0
0,64,0,5
0,62,0,18
0,36,0,19
0,59,90,0
0,62,0,6
0,61,89,1
0,40,109,1
0,59,0,20
0,47,0,1
0,61,0,6
0,40,0,12
0,62,86,0
0,61,91,5
0,36,88,0
0,62,0,6
0,36,0,17
0,45,91,5
0,61,63,0
0,64,74,0
0,59,73,3
0,36,91,0
0,57,63,1
0,57,0,2
0,61,0,1
0,59,0,6
0,57,83,23
0,62,96,1
0,61,0,5
0,64,0,18
0,36,0,12
0,59,70,12
0,57,0,3
0,40,101,4
0,59,0,23
0,62,0,14
0,40,0,0
0,64,99,2
0,64,96,5
0,36,88,1
0,36,0,42
0,64,0,34
0,64,0,5
0,57,98,5
0,36,86,10
0,57,90,1
0,45,0,1
0,57,0,17
0,57,0,14
0,36,0,6
0,57,83,4
0,40,104,6
0,45,99,1
0,57,0,15
0,45,0,6
0,57,81,10
0,57,79,16
0,40,0,3
0,57,0,7
0,57,0,11
0,66,82,17
0,36,90,6
0,38,90,5
0,57,91,2
0,54,89,1
0,50,88,1
0,66,0,6
0,50,0,10
0,66,79,2
0,57,0,19
0,66,0,2
0,50,91,4
0,54,0,7
0,66,78,4
0,36,0,19
0,66,0,6
0,40,105,8
0,52,79,6
0,67,105,2
0,67,0,21
0,52,0,7
0,50,0,4
0,40,0,3
0,67,99,5
0,36,84,4
0,57,83,6
0,36,0,53
0,67,0,17
0,62,91,23
0,57,0,45
0,40,111,6
0,62,0,3
0,50,96,2
0,38,0,5
0,50,0,16
0,40,0,21
0,60,91,2
0,36,84,3
0,36,0,23
0,60,0,3
0,43,75,8
0,55,60,2
0,62,66,0
0,59,74,0
0,57,74,1
0,59,98,1
0,36,91,1
0,55,0,7
0,57,0,6
0,59,0,14
0,55,84,7
0,55,66,6
0,55,0,9
0,62,0,7
0,55,86,4
0,36,0,4
0,55,0,11
0,55,90,11
0,59,0,3
0,40,106,2
0,57,74,1
0,40,0,41
0,55,0,4
0,57,0,1
0,62,81,1
0,36,84,1
0,43,0,1
0,62,0,15
0,55,0,20
0,36,0,9
0,61,78,3
0,59,77,1
0,45,96,0
0,57,62,3
0,57,0,9
0,59,0,11
0,57,67,13
0,36,88,8
0,55,91,2
0,55,0,23
0,61,0,18
0,36,0,1
0,55,70,0
0,57,0,1
0,59,90,3
0,40,102,1
0,55,0,9
0,45,0,5
0,55,57,10
0,55,0,9
0,59,0,7
0,61,82,7
0,55,70,0
0,59,20,3
0,40,0,1
0,59,0,3
0,61,0,3
0,55,0,31
0,36,93,2
0,57,88,1
0,38,79,1
0,50,88,1
0,50,0,4
0,50,86,20
0,36,0,19
0,66,73,2
0,66,0,9
0,57,0,2
0,66,84,10
0,40,104,4
0,52,73,6
0,66,0,27
0,52,0,3
0,40,0,4
0,67,102,7
0,36,90,4
0,57,93,4
0,50,0,5
0,36,0,38
0,67,0,48
0,62,93,0
0,36,98,5
0,62,0,34
0,60,95,9
0,36,0,4
0,57,0,3
0,40,104,0
0,50,101,1
0,38,0,10
0,50,0,14
0,60,0,13
0,59,90,8
0,40,0,3
0,59,0,2
0,55,84,1
0,43,75,2
0,62,79,3
0,36,88,0
0,59,79,1
0,55,66,3
0,55,0,7
0,55,66,31
0,62,0,12
0,36,0,5
0,59,0,5
0,57,79,32
0,40,105,4
0,55,0,2
0,43,0,17
0,40,0,20
0,62,79,5
0,57,0,1
0,36,91,1
0,62,0,12
0,36,0,25
0,55,0,1
0,61,79,8
0,45,96,0
0,57,70,1
0,57,0,3
0,57,54,28
0,36,90,3
0,57,70,23
0,59,66,0
0,59,0,7
0,57,0,1
0,36,0,12
0,61,0,2
0,57,0,6
0,40,104,0
0,59,60,1
0,57,73,2
0,45,0,12
0,57,0,10
0,59,0,10
0,40,0,9
0,61,78,1
0,57,75,7
0,61,0,3
0,57,0,6
0,57,88,12
0,57,0,16
