track,note,velocity,time
1,30,106,14385
1,30,0,164
1,30,95,15
1,30,0,54
1,30,95,5
1,30,0,113
1,35,106,10
1,35,0,164
1,34,95,14
1,34,0,56
1,35,103,5
1,35,0,221
1,35,110,20
1,35,0,44
1,35,110,14
1,35,0,49
1,30,106,10
1,30,0,166
1,30,95,15
1,30,0,54
1,30,95,5
1,30,0,112
1,32,106,10
1,32,0,165
1,30,95,14
1,30,0,55
1,32,103,5
1,32,0,221
1,32,110,20
1,32,0,45
1,32,110,15
1,32,0,55
1,30,106,5
1,30,0,164
1,30,95,15
1,30,0,54
1,30,95,5
1,30,0,113
1,35,106,10
1,35,0,164
1,34,95,14
1,34,0,56
1,35,103,5
1,35,0,221
1,35,110,20
1,35,0,44
1,35,110,14
1,35,0,49
1,30,106,10
1,30,0,166
1,30,95,15
1,30,0,54
1,30,95,5
1,30,0,112
1,32,106,10
1,32,0,165
1,30,95,14
1,30,0,55
1,32,103,5
1,32,0,221
1,32,110,20
1,32,0,45
1,32,110,15
1,32,0,55
1,30,106,5
1,30,0,164
1,30,95,15
1,30,0,54
1,30,95,5
1,30,0,113
1,35,106,10
1,35,0,164
1,34,95,14
1,34,0,56
1,35,103,5
1,35,0,221
1,35,110,20
1,35,0,44
1,35,110,14
1,35,0,49
1,30,106,10
1,30,0,166
1,30,95,15
1,30,0,54
1,30,95,5
1,30,0,112
1,32,106,10
1,32,0,165
1,30,95,14
1,30,0,55
1,32,103,5
1,32,0,221
1,32,110,20
1,32,0,45
1,32,110,15
1,32,0,55
1,33,104,4
1,32,104,121
1,33,0,9
1,30,104,110
1,32,0,6
1,30,0,111
1,28,104,4
1,39,102,359
1,28,0,10
1,30,104,8
1,39,0,1
1,30,0,176
1,30,104,2
1,30,0,45
1,30,104,15
1,30,0,92
1,30,104,29
1,46,104,179
1,30,0,4
1,42,104,32
1,46,0,12
1,37,95,47
1,42,0,4
1,35,95,56
1,37,0,11
1,34,101,110
1,35,0,11
1,34,0,154
1,34,103,14
1,34,0,160
1,35,101,21
1,35,0,208
1,35,102,31
1,35,0,156
1,35,99,24
1,35,0,166
1,34,102,14
1,34,0,165
1,34,99,16
1,34,0,165
1,32,100,15
1,32,0,227
1,32,102,13
1,32,0,220
1,30,98,19
1,32,103,61
1,30,0,3
1,34,101,57
1,32,0,7
1,34,0,158
1,34,100,14
1,34,0,173
1,35,99,7
1,35,0,198
1,35,98,43
1,37,101,240
1,35,0,22
1,37,0,30
1,35,102,8
1,34,98,59
1,35,0,25
1,34,0,141
1,34,99,15
1,34,0,168
1,32,102,12
1,35,102,180
1,32,0,6
1,37,100,53
1,35,0,2
1,39,82,58
1,37,0,7
1,39,0,4
1,37,102,3
1,37,0,8
1,35,98,5
1,34,100,59
1,35,0,20
1,34,0,145
1,34,98,15
1,34,0,176
1,35,98,5
1,35,0,213
1,35,99,26
1,35,0,159
1,35,101,22
1,35,0,157
1,34,98,22
1,34,0,165
1,34,98,16
1,34,0,162
1,32,98,18
1,32,0,208
1,32,98,31
1,32,0,239
1,30,101,1
1,32,101,61
1,30,0,9
1,34,99,51
1,32,0,9
1,34,0,156
1,34,102,15
1,35,101,180
1,34,0,1
1,35,0,209
1,35,100,29
1,37,101,241
1,35,0,13
1,35,103,46
1,37,0,15
1,34,98,45
1,35,0,19
1,34,0,147
1,34,98,14
1,34,0,170
1,32,102,11
1,32,0,220
1,32,99,20
1,44,94,190
1,32,0,43
1,44,0,126
1,44,94,20
1,44,0,170
1,47,99,2
1,47,0,198
1,47,98,43
1,49,101,240
1,47,0,22
1,49,0,30
1,47,102,8
1,46,98,59
1,47,0,25
1,46,0,141
1,46,99,15
1,46,0,168
1,44,102,12
1,44,0,204
1,44,102,35
1,44,0,156
1,44,99,24
1,44,0,166
1,30,106,15
1,30,0,164
1,30,95,15
1,30,0,54
1,30,95,5
1,30,0,113
1,35,106,10
1,35,0,164
1,34,95,14
1,34,0,56
1,35,103,5
1,35,0,221
1,35,110,20
1,35,0,44
1,35,110,14
1,35,0,49
1,30,106,10
1,30,0,166
1,30,95,15
1,30,0,54
1,30,95,5
1,30,0,112
1,32,106,10
1,32,0,165
1,30,95,14
1,30,0,55
1,32,103,5
1,32,0,221
1,32,110,20
1,32,0,45
1,32,110,15
1,32,0,55
1,30,106,5
1,30,0,164
1,30,95,15
1,30,0,54
1,30,95,5
1,30,0,113
1,35,106,10
1,35,0,164
1,34,95,14
1,34,0,56
1,35,103,5
1,35,0,221
1,35,110,20
1,35,0,44
1,35,110,14
1,35,0,49
1,30,106,10
1,30,0,166
1,30,95,15
1,30,0,54
1,30,95,5
1,30,0,112
1,32,106,10
1,32,0,165
1,30,95,14
1,30,0,55
1,32,103,5
1,32,0,221
1,32,110,20
1,32,0,45
1,32,110,15
1,32,0,55
1,30,106,5
1,30,0,164
1,30,95,15
1,30,0,54
1,30,95,5
1,30,0,113
1,35,106,10
1,35,0,164
1,34,95,14
1,34,0,56
1,35,103,5
1,35,0,221
1,35,110,20
1,35,0,44
1,35,110,14
1,35,0,49
1,30,106,10
1,30,0,166
1,30,95,15
1,30,0,54
1,30,95,5
1,30,0,112
1,32,106,10
1,32,0,165
1,30,95,14
1,30,0,55
1,32,103,5
1,32,0,221
1,32,110,20
1,32,0,45
1,32,110,15
1,32,0,55
1,33,104,4
1,32,104,121
1,33,0,9
1,30,104,110
1,32,0,6
1,30,0,111
1,28,104,4
1,39,102,359
1,28,0,10
1,30,104,10
1,39,0,1
1,30,0,176
1,30,104,2
1,30,0,45
1,30,104,15
1,30,0,102
1,30,106,19
1,37,100,60
1,30,0,11
1,42,106,49
1,37,0,31
1,42,0,65
1,42,106,24
1,37,100,60
1,42,0,17
1,30,106,43
1,37,0,19
1,30,0,97
1,37,106,2
1,37,0,2
1,38,106,1
1,38,0,352
1,38,106,8
1,38,0,230
1,38,106,10
1,38,0,1
1,42,106,13
1,42,0,352
1,42,106,8
1,42,0,230
1,42,106,10
1,42,0,343
1,40,106,17
1,40,0,352
1,40,106,8
1,40,0,239
1,42,99,1
1,45,108,90
1,42,0,9
1,45,0,169
1,42,106,2
1,42,0,352
1,42,106,8
1,42,0,234
1,42,106,6
1,42,0,234
1,35,78,6
1,37,87,60
1,35,0,10
1,40,106,50
1,37,0,1
1,40,0,351
1,40,106,8
1,40,0,235
1,40,106,5
1,40,0,338
1,42,106,22
1,42,0,352
1,42,106,8
1,42,0,230
1,42,96,10
1,42,0,54
1,42,110,38
1,42,0,160
1,40,106,20
1,40,0,352
1,40,106,8
1,40,0,228
1,40,106,12
1,40,0,228
1,42,94,12
1,44,70,58
1,42,0,19
1,47,112,43
1,44,0,9
1,47,0,165
1,46,107,6
1,42,102,180
1,46,0,5
1,35,97,235
1,42,0,0
1,35,0,356
1,46,92,4
1,46,0,349
1,47,92,10
1,46,92,600
1,47,0,41
1,46,0,313
1,44,92,7
1,44,0,569
1,46,92,31
1,46,0,349
1,47,92,10
1,46,92,600
1,47,0,41
1,46,0,313
1,44,92,7
1,44,0,569
1,46,92,31
1,46,0,349
1,47,92,10
1,46,92,600
1,47,0,41
1,46,0,313
1,44,92,7
1,44,0,569
1,46,92,31
1,46,0,349
1,47,92,10
1,46,92,600
1,47,0,41
1,46,0,313
1,44,92,7
1,44,0,1068
1,46,92,12
1,46,0,349
1,47,92,10
1,46,92,600
1,47,0,41
1,46,0,313
1,44,92,7
1,44,0,569
1,46,92,31
1,46,0,349
1,47,92,10
1,46,92,600
1,47,0,41
1,46,0,313
1,44,92,7
1,44,0,569
1,30,106,31
1,30,0,164
1,30,95,15
1,30,0,54
1,30,95,5
1,30,0,113
1,35,106,10
1,35,0,164
1,34,95,14
1,34,0,56
1,35,103,5
1,35,0,221
1,35,110,20
1,35,0,44
1,35,110,14
1,35,0,49
1,30,106,10
1,30,0,166
1,30,95,15
1,30,0,54
1,30,95,5
1,30,0,112
1,32,106,10
1,32,0,165
1,30,95,14
1,30,0,55
1,32,103,5
1,32,0,221
1,32,110,20
1,32,0,45
1,32,110,15
1,32,0,55
1,30,106,5
1,30,0,164
1,30,95,15
1,30,0,54
1,30,95,5
1,30,0,113
1,35,106,10
1,35,0,164
1,34,95,14
1,34,0,56
1,35,103,5
1,35,0,221
1,35,110,20
1,35,0,44
1,35,110,14
1,35,0,49
1,30,106,10
1,30,0,166
1,30,95,15
1,30,0,54
1,30,95,5
1,30,0,112
1,32,106,10
1,32,0,165
1,30,95,14
1,30,0,55
1,32,103,5
1,32,0,221
1,32,110,20
1,32,0,45
1,32,110,15
1,32,0,55
1,30,106,5
1,30,0,164
1,30,95,15
1,30,0,54
1,30,95,5
1,30,0,113
1,35,106,10
1,35,0,164
1,34,95,14
1,34,0,56
1,35,103,5
1,35,0,221
1,35,110,20
1,35,0,44
1,35,110,14
1,35,0,49
1,30,106,10
1,30,0,166
1,30,95,15
1,30,0,54
1,30,95,5
1,30,0,112
1,32,106,10
1,32,0,165
1,30,95,14
1,30,0,55
1,32,103,5
1,32,0,221
1,32,110,20
1,32,0,45
1,32,110,15
1,32,0,55
1,33,104,4
1,32,104,121
1,33,0,9
1,30,104,110
1,32,0,6
1,30,0,111
1,28,104,4
1,39,102,359
1,28,0,10
1,30,104,8
1,39,0,1
1,30,0,176
1,30,104,2
1,30,0,45
1,30,104,15
1,30,0,102
1,30,106,19
1,37,100,60
1,30,0,11
1,42,106,49
1,37,0,31
1,42,0,65
1,30,106,24
1,37,100,60
1,30,0,17
1,42,106,43
1,37,0,19
1,42,0,97
1,49,106,2
1,49,0,2
1,50,106,1
1,50,0,708
1,54,80,6
1,54,0,140
1,54,72,22
1,54,0,8
1,47,73,95
1,49,54,60
1,47,0,40
1,52,80,19
1,49,0,13
1,52,0,524
1,54,85,63
1,54,0,21
1,54,80,3
1,54,0,56
1,54,78,8
1,54,0,312
1,54,80,1
1,54,0,6
1,52,68,15
1,52,0,109
1,54,80,58
1,54,0,279
1,54,70,28
1,54,0,489
1,47,66,28
1,49,36,60
1,47,0,25
1,49,0,49
1,47,66,45
1,49,36,61
1,47,0,31
1,49,0,85
1,52,69,3
1,52,0,1028
1,52,65,397
1,47,54,1
1,52,0,2
1,28,36,15
1,47,0,22
1,28,0,537
2,52,116,912
2,56,100,5
2,59,70,4
2,63,74,5
2,71,74,4
2,56,0,32
2,59,0,7
2,63,0,1
2,56,62,33
2,59,42,3
2,63,44,4
2,52,0,4
2,71,0,18
2,56,0,9
2,59,0,5
2,63,0,1
2,71,97,16
2,56,76,5
2,59,92,1
2,63,87,0
2,71,0,143
2,56,0,1
2,63,0,1
2,59,0,3
2,59,96,29
2,56,87,1
2,63,87,1
2,52,63,2
2,63,0,143
2,56,0,0
2,59,0,1
2,52,0,2
2,63,78,87
2,52,95,3
2,56,81,1
2,71,89,1
2,59,99,1
2,63,0,61
2,56,0,5
2,59,0,4
2,56,50,45
2,63,48,4
2,59,64,1
2,52,0,22
2,71,0,6
2,56,0,10
2,63,0,3
2,59,0,5
2,59,92,9
2,63,87,1
2,56,76,0
2,71,97,5
2,63,0,140
2,56,0,1
2,59,0,0
2,71,0,7
2,73,81,24
2,63,81,0
2,54,110,1
2,58,99,2
2,59,71,4
2,73,0,24
2,63,0,1
2,54,0,1
2,58,0,3
2,59,0,6
2,59,92,27
2,63,87,1
2,58,76,3
2,73,97,1
2,63,0,140
2,59,0,3
2,58,0,1
2,73,0,5
2,63,87,27
2,58,87,3
2,54,63,0
2,59,96,0
2,63,0,142
2,58,0,4
2,54,0,0
2,59,0,2
2,59,54,28
2,73,61,1
2,58,49,2
2,63,52,1
2,73,0,41
2,59,0,3
2,58,0,0
2,63,0,0
2,73,85,12
2,54,90,2
2,59,95,0
2,58,77,1
2,63,75,1
2,54,0,143
2,58,0,1
2,73,0,1
2,63,0,0
2,59,0,1
2,58,76,28
2,63,87,0
2,73,97,2
2,59,92,5
2,63,0,138
2,58,0,0
2,73,0,2
2,59,0,4
2,71,81,25
2,63,81,1
2,56,109,4
2,52,119,1
2,59,77,1
2,63,0,41
2,56,0,5
2,59,0,4
2,56,60,27
2,59,40,2
2,63,41,1
2,71,0,17
2,52,0,7
2,56,0,11
2,63,0,2
2,59,0,2
2,63,87,18
2,59,92,1
2,56,76,0
2,71,97,0
2,63,0,144
2,56,0,1
2,59,0,3
2,71,0,1
2,63,87,26
2,59,96,3
2,56,87,3
2,52,63,1
2,63,0,137
2,59,0,7
2,56,0,0
2,52,0,1
2,59,99,91
2,52,95,0
2,71,89,1
2,56,81,1
2,63,78,1
2,56,0,47
2,59,0,1
2,63,0,0
2,56,50,8
2,59,64,3
2,63,48,2
2,56,0,38
2,63,0,4
2,59,0,2
2,63,48,13
2,56,50,2
2,59,64,1
2,52,0,21
2,71,0,5
2,63,0,13
2,56,0,3
2,59,0,4
2,59,92,7
2,63,87,2
2,56,76,2
2,71,97,2
2,63,0,33
2,71,0,8
2,71,102,29
2,52,85,0
2,54,52,120
2,71,0,41
2,52,0,10
2,70,107,9
2,52,85,0
2,54,0,27
2,70,0,132
2,52,0,8
2,52,78,13
2,66,96,0
2,59,0,234
2,59,69,6
2,49,55,240
2,66,0,91
2,59,0,13
2,56,0,1
2,52,0,2
2,54,86,11
2,49,0,1
2,61,86,0
2,66,86,0
2,46,86,3
2,66,0,252
2,46,0,7
2,54,0,1
2,61,0,3
2,47,86,92
2,63,86,1
2,61,86,1
2,54,86,1
2,66,86,0
2,66,0,489
2,63,0,0
2,61,0,3
2,47,0,2
2,54,0,6
2,61,86,98
2,54,86,1
2,46,86,2
2,66,86,2
2,46,0,246
2,54,0,11
2,66,0,4
2,61,0,4
2,63,86,88
2,44,86,0
2,59,86,3
2,54,86,2
2,51,86,1
2,44,0,477
2,51,0,6
2,59,0,5
2,63,0,5
2,54,0,5
2,61,86,97
2,54,86,0
2,66,86,2
2,46,86,2
2,66,0,253
2,46,0,6
2,54,0,1
2,61,0,2
2,66,86,94
2,63,86,0
2,61,86,4
2,47,86,1
2,54,86,0
2,66,0,483
2,63,0,4
2,61,0,5
2,47,0,5
2,54,0,4
2,61,86,94
2,54,86,1
2,46,86,1
2,66,86,178
2,46,0,106
2,54,0,12
2,61,0,8
2,54,86,55
2,44,86,3
2,51,86,1
2,59,86,0
2,44,0,482
2,51,0,1
2,66,0,7
2,59,0,1
2,54,0,4
2,66,86,99
2,61,86,0
2,46,86,3
2,54,86,1
2,61,0,171
2,66,0,2
2,61,76,4
2,66,76,2
2,46,0,73
2,66,0,1
2,61,0,4
2,54,0,1
2,47,86,98
2,49,46,1
2,66,86,1
2,61,86,5
2,54,86,0
2,66,0,483
2,49,0,2
2,47,0,6
2,61,0,2
2,54,0,8
2,61,86,94
2,46,86,2
2,54,86,2
2,66,86,1
2,46,0,258
2,54,0,16
2,66,0,1
2,61,0,4
2,59,86,74
2,51,86,1
2,44,86,4
2,54,86,1
2,63,86,1
2,51,0,477
2,44,0,4
2,59,0,3
2,54,0,14
2,63,0,2
2,61,86,96
2,46,86,2
2,54,86,0
2,54,66,175
2,46,0,1
2,54,0,1
2,46,66,2
2,66,86,1
2,61,0,84
2,46,0,3
2,54,0,1
2,54,86,87
2,47,86,0
2,61,86,5
2,63,46,1
2,63,0,491
2,47,0,0
2,61,0,1
2,54,0,2
2,66,0,1
2,54,86,102
2,61,86,1
2,46,86,1
2,66,86,182
2,46,0,102
2,54,0,11
2,61,0,11
2,59,86,49
2,54,86,3
2,51,86,4
2,44,86,0
2,44,0,564
2,51,0,0
2,59,0,1
2,54,0,11
2,66,0,0
2,61,86,20
2,46,86,2
2,54,86,0
2,54,66,175
2,46,0,1
2,54,0,1
2,46,66,2
2,66,86,1
2,61,0,84
2,46,0,3
2,54,0,1
2,47,86,87
2,54,79,0
2,61,86,5
2,63,46,1
2,54,0,239
2,47,0,0
2,47,66,1
2,54,60,0
2,66,0,102
2,66,86,8
2,47,0,117
2,54,0,0
2,47,66,7
2,54,60,0
2,66,0,84
