track,note,velocity,time
0,64,101,408
0,40,74,0
0,52,101,2
0,64,0,30
0,66,93,21
0,66,0,17
0,52,93,7
0,66,96,0
0,40,104,0
0,66,0,19
0,68,93,4
0,68,0,16
0,68,85,22
0,68,0,13
0,52,0,1
0,68,96,12
0,68,0,23
0,68,89,28
0,68,0,17
0,69,104,10
0,52,95,3
0,69,0,20
0,64,95,20
0,69,98,0
0,52,0,6
0,64,0,16
0,69,0,11
0,40,0,14
0,52,0,4
0,64,74,2
0,64,0,14
0,64,66,5
0,52,95,2
0,69,104,0
0,40,56,11
0,52,73,2
0,64,0,4
0,52,0,8
0,69,0,6
0,64,91,16
0,40,0,9
0,52,0,0
0,40,0,8
0,52,90,6
0,64,0,3
0,52,0,19
0,40,93,1
0,40,110,1
0,52,101,0
0,64,104,1
0,68,102,1
0,64,0,23
0,52,75,25
0,68,0,2
0,40,0,8
0,52,0,1
0,64,79,19
0,64,0,25
0,52,0,43
0,69,101,1
0,64,104,0
0,64,0,36
0,52,79,40
0,69,0,33
0,64,73,15
0,64,0,14
0,68,102,4
0,52,0,2
0,64,96,2
0,69,110,1
0,68,0,9
0,68,96,11
0,64,0,1
0,68,0,25
0,66,95,0
0,40,0,3
0,52,88,0
0,66,0,22
0,64,104,0
0,69,0,3
0,64,77,2
0,52,0,7
0,64,0,6
0,64,0,4
0,68,114,3
0,68,105,3
0,40,106,0
0,64,104,1
0,64,0,21
0,52,83,27
0,68,0,19
0,64,95,9
0,64,0,25
0,52,0,38
0,64,101,0
0,69,104,0
0,64,0,27
0,52,90,74
0,69,0,24
0,68,0,1
0,64,96,1
0,64,0,19
0,68,102,6
0,64,84,1
0,52,0,7
0,68,0,4
0,68,91,11
0,64,0,8
0,69,101,13
0,66,95,5
0,40,0,2
0,68,0,2
0,64,96,18
0,66,0,1
0,69,0,4
0,64,0,9
0,40,99,7
0,68,91,1
0,64,96,0
0,61,112,2
0,64,0,20
0,61,0,2
0,59,104,3
0,52,66,21
0,68,0,6
0,64,79,21
0,64,0,21
0,52,0,43
0,64,95,2
0,69,104,2
0,64,0,29
0,59,0,30
0,59,81,55
0,59,0,20
0,52,88,1
0,64,99,5
0,69,0,5
0,64,0,2
0,64,77,8
0,64,102,3
0,52,0,8
0,64,0,3
0,69,96,2
0,64,0,1
0,64,93,3
0,40,0,6
0,64,0,5
0,64,96,11
0,64,0,11
0,69,0,7
0,64,95,3
0,68,92,0
0,40,104,0
0,66,106,3
0,64,0,21
0,66,0,1
0,52,75,9
0,68,105,3
0,68,0,4
0,68,0,4
0,68,107,9
0,64,79,2
0,68,0,14
0,64,0,0
0,68,93,17
0,68,0,3
0,52,0,11
0,69,98,1
0,64,96,1
0,69,109,2
0,64,0,32
0,69,0,5
0,64,105,8
0,52,83,27
0,64,0,13
0,69,0,6
0,64,99,22
0,64,0,9
0,64,96,11
0,64,110,2
0,52,0,1
0,64,0,14
0,64,0,12
0,69,101,8
0,64,104,0
0,40,0,9
0,64,0,4
0,69,0,9
0,62,107,0
0,40,88,2
0,68,85,3
0,64,74,2
0,64,0,8
0,62,0,10
0,62,106,10
0,52,88,1
0,68,0,4
0,62,0,8
0,64,88,3
0,64,0,21
0,62,102,2
0,62,0,17
0,64,106,2
0,64,0,14
0,64,95,8
0,52,0,2
0,69,102,0
0,64,112,0
0,64,0,12
0,69,0,1
0,64,0,2
0,40,0,33
0,52,90,1
0,69,109,5
0,68,100,22
0,69,0,8
0,64,86,12
0,66,79,3
0,68,0,6
0,64,0,8
0,52,0,5
0,66,0,5
0,64,102,1
0,40,112,16
0,40,84,0
0,36,104,1
0,28,95,1
0,68,120,0
0,64,0,1
0,64,101,1
0,40,106,0
0,68,102,0
0,36,0,13
0,36,91,8
0,64,0,2
0,36,0,20
0,52,88,3
0,68,0,15
0,36,83,2
0,64,93,8
0,36,0,11
0,40,0,6
0,38,117,0
0,64,0,3
0,40,0,10
0,28,0,0
0,38,0,20
0,40,101,12
0,36,110,1
0,40,112,0
0,28,111,0
0,64,112,1
0,69,115,1
0,52,0,4
0,64,0,34
0,36,0,23
0,68,0,33
0,36,96,0
0,40,0,10
0,36,0,16
0,68,107,2
0,68,0,9
0,52,101,10
0,40,117,2
0,68,99,0
0,38,121,1
0,69,0,8
0,68,0,0
0,68,93,13
0,68,0,10
0,38,0,11
0,64,95,2
0,40,0,3
0,36,91,0
0,66,85,0
0,68,39,0
0,68,0,4
0,52,0,7
0,40,0,0
0,28,0,5
0,64,0,1
0,40,0,2
0,66,0,2
0,36,0,3
0,64,107,1
0,64,0,13
0,40,115,4
0,40,96,0
0,28,96,2
0,40,105,1
0,68,111,0
0,64,110,1
0,61,113,1
0,36,112,1
0,61,0,4
0,64,0,4
0,36,0,4
0,59,110,0
0,36,104,8
0,52,93,20
0,36,0,6
0,68,0,18
0,36,84,3
0,64,95,0
0,36,0,15
0,64,0,1
0,40,0,5
0,38,122,2
0,28,0,19
0,40,0,5
0,38,0,13
0,64,102,4
0,69,110,1
0,52,0,1
0,40,116,3
0,40,93,1
0,28,93,0
0,36,102,2
0,64,0,27
0,59,0,15
0,36,0,25
0,40,0,18
0,36,102,6
0,52,81,4
0,59,98,17
0,36,0,7
0,69,0,1
0,59,0,11
0,38,112,4
0,64,96,0
0,40,116,0
0,64,107,0
0,64,0,12
0,64,0,10
0,64,105,1
0,40,0,8
0,64,0,1
0,38,0,2
0,52,0,9
0,64,96,2
0,36,96,1
0,69,99,1
0,40,0,1
0,64,79,0
0,64,0,6
0,28,0,2
0,64,0,1
0,40,0,3
0,36,0,6
0,64,99,1
0,69,0,8
0,64,0,3
0,40,70,2
0,40,117,0
0,28,56,0
0,36,91,4
0,40,110,0
0,64,99,1
0,66,110,0
0,68,102,1
0,36,0,12
0,64,0,2
0,36,96,4
0,66,0,3
0,36,0,3
0,52,93,1
0,68,117,0
0,68,0,21
0,64,96,3
0,40,0,2
0,68,0,2
0,36,88,5
0,64,0,3
0,68,113,4
0,36,0,2
0,38,117,8
0,40,0,6
0,28,0,0
0,68,0,2
0,64,99,20
0,40,67,0
0,38,0,1
0,28,74,0
0,69,112,1
0,52,0,1
0,68,96,0
0,40,117,6
0,36,99,3
0,68,0,1
0,69,106,9
0,64,0,13
0,69,0,23
0,36,0,3
0,64,111,6
0,40,0,5
0,36,88,3
0,52,91,3
0,64,0,3
0,64,104,1
0,36,0,6
0,64,0,6
0,69,0,3
0,64,112,10
0,38,113,1
0,40,111,3
0,64,91,3
0,64,0,21
0,64,0,3
0,40,0,3
0,38,0,1
0,40,0,3
0,28,0,2
0,52,0,1
0,64,112,6
0,36,83,2
0,69,102,0
0,40,0,1
0,36,0,19
0,64,0,9
0,69,0,10
0,40,69,1
0,28,91,1
0,40,116,2
0,62,116,0
0,40,109,1
0,64,96,1
0,36,105,1
0,68,100,0
0,36,0,6
0,64,0,6
0,36,99,2
0,62,0,1
0,52,91,21
0,62,113,0
0,36,0,2
0,68,0,18
0,62,0,6
0,40,0,1
0,36,88,1
0,64,96,0
0,40,0,15
0,28,0,1
0,36,0,0
0,64,0,3
0,62,111,2
0,38,122,4
0,62,0,15
0,52,0,19
0,38,0,3
0,64,105,0
0,69,107,0
0,40,79,4
0,28,93,0
0,64,121,2
0,40,115,1
0,36,99,3
0,64,0,19
0,36,0,32
0,64,0,19
0,52,95,15
0,36,104,4
0,40,0,2
0,36,0,24
0,64,107,6
0,69,0,7
0,64,0,8
0,40,106,1
0,38,112,2
0,64,88,0
0,68,116,1
0,40,0,4
0,28,0,2
0,64,0,1
0,40,0,1
0,68,0,2
0,38,0,3
0,68,120,17
0,36,104,1
0,69,109,1
0,52,0,6
0,40,0,2
0,36,0,11
0,69,0,6
0,68,0,5
0,40,115,1
0,28,117,0
0,40,86,0
0,59,96,0
0,56,79,0
0,52,91,0
0,28,93,1
0,40,106,1
0,69,117,0
0,36,104,1
0,68,106,0
0,64,106,1
0,36,0,5
0,64,0,11
0,36,106,2
0,40,0,17
0,36,0,4
0,52,96,2
0,28,0,1
0,68,0,10
0,69,0,5
0,68,114,6
0,36,95,4
0,64,99,0
0,28,0,8
0,40,0,4
0,52,0,0
0,52,0,2
0,68,0,0
0,36,0,3
0,40,111,0
0,28,113,0
0,56,0,2
0,64,0,0
0,59,0,2
0,66,113,1
0,38,121,4
0,40,0,11
0,28,0,4
0,66,0,1
0,64,106,6
0,40,0,7
0,38,0,7
0,64,0,4
0,31,121,1
0,66,121,0
0,43,91,1
0,31,96,0
0,59,110,1
0,67,110,0
0,62,110,0
0,62,83,1
0,59,83,0
0,55,81,0
0,36,104,1
0,57,91,0
0,31,0,28
0,43,106,2
0,36,0,5
0,43,0,5
0,59,0,0
0,67,0,4
0,66,0,12
0,31,110,3
0,36,111,2
0,55,99,3
0,64,122,1
0,62,0,6
0,31,0,11
0,36,0,10
0,31,112,3
0,59,96,1
0,38,111,1
0,55,0,2
0,43,99,3
0,57,0,4
0,55,0,1
0,62,0,2
0,59,0,0
0,31,0,4
0,31,0,3
0,59,0,1
0,43,0,10
0,38,0,7
0,67,96,7
0,36,98,1
0,59,79,1
0,62,83,1
0,31,110,0
0,43,0,3
0,62,0,3
0,67,0,1
0,59,0,5
0,31,0,3
0,36,0,3
0,31,111,8
0,31,0,1
0,61,96,4
0,45,86,1
0,33,93,0
0,61,78,1
0,64,96,0
0,57,88,0
0,59,96,1
0,36,110,1
0,61,93,0
0,57,102,0
0,45,101,1
0,59,106,0
0,64,99,0
0,33,117,2
0,45,0,1
0,57,0,4
0,36,0,3
0,33,0,7
0,59,0,1
0,36,99,2
0,64,0,3
0,64,0,4
0,57,0,1
0,59,0,1
0,61,0,1
0,57,96,8
0,61,0,1
0,36,0,2
0,33,0,7
0,57,0,8
0,45,0,6
0,36,84,2
0,59,106,0
0,61,0,1
0,62,99,0
0,59,0,12
0,33,111,2
0,36,0,2
0,38,121,5
0,61,96,0
0,62,0,4
0,33,0,7
0,38,0,23
0,59,110,0
0,52,111,1
0,56,102,0
0,40,105,1
0,61,0,1
0,36,96,0
0,40,93,0
0,28,99,0
0,59,93,0
0,56,84,0
0,52,93,0
0,28,121,1
0,59,111,0
0,52,0,5
0,28,0,10
0,64,0,19
0,36,0,1
0,59,0,1
0,40,0,3
0,52,102,14
0,28,115,0
0,56,0,2
0,36,106,11
0,56,96,9
0,28,0,2
0,64,111,17
0,56,0,5
0,36,0,2
0,64,0,8
0,68,120,6
0,38,110,1
0,28,117,0
0,52,0,2
0,56,89,1
0,59,106,0
0,40,102,1
0,52,0,15
0,28,0,3
0,28,0,3
0,68,0,5
0,56,0,1
0,38,0,1
0,56,0,1
0,59,0,2
0,59,0,2
0,40,0,5
0,28,113,3
0,36,96,1
0,52,99,1
0,68,121,0
0,40,0,10
0,28,0,4
0,36,0,4
0,52,0,4
0,68,0,7
0,28,121,4
0,40,90,0
0,59,104,1
0,52,104,1
0,56,96,0
0,28,102,0
0,59,0,1
0,68,121,0
0,36,86,2
0,40,104,0
0,56,104,0
0,59,109,0
0,36,0,5
0,36,96,9
0,56,0,5
0,59,0,4
0,28,0,10
0,52,0,1
0,36,0,1
0,52,90,4
0,40,0,3
0,28,0,0
0,68,0,0
0,56,0,2
0,59,0,2
0,69,110,14
0,36,81,1
0,56,92,0
0,52,0,8
0,69,0,5
0,56,0,1
0,36,0,2
0,28,112,0
0,40,0,3
0,71,111,4
0,38,122,2
0,28,0,16
0,69,104,4
0,71,0,3
0,69,0,12
0,38,0,3
0,62,107,2
0,57,106,0
0,55,107,0
0,59,106,0
0,31,115,1
0,69,113,2
0,36,102,1
0,43,79,0
0,31,96,0
0,62,91,0
0,59,91,0
0,55,88,1
0,57,93,0
0,55,0,11
0,31,0,10
0,43,101,1
0,43,0,12
0,36,0,1
0,57,0,3
0,62,0,10
0,69,0,0
0,36,104,17
0,31,111,1
0,55,99,1
0,71,121,4
0,59,0,2
0,31,0,23
0,36,0,1
0,57,111,16
0,55,0,2
0,38,111,1
0,55,0,4
0,57,0,5
0,62,0,3
0,59,0,0
0,57,0,2
0,31,0,1
0,71,0,8
0,38,0,7
0,31,106,3
0,36,91,6
0,55,98,0
0,71,121,0
0,43,0,2
0,31,0,12
0,36,0,5
0,55,0,2
0,61,110,0
0,33,115,3
0,33,91,2
0,45,88,0
0,61,91,1
0,57,83,0
0,64,95,0
0,59,88,1
0,45,99,2
0,61,97,0
0,59,106,0
0,57,99,1
0,64,102,0
0,36,96,1
0,57,0,2
0,36,0,4
0,33,0,5
0,59,0,3
0,45,0,3
0,36,95,2
0,64,0,1
0,64,0,1
0,61,0,4
0,57,0,0
0,59,0,0
0,33,0,2
0,61,0,1
0,57,93,8
0,36,0,2
0,33,106,0
0,33,0,11
0,57,0,5
0,45,0,5
0,61,0,1
0,33,110,0
0,59,101,3
0,62,107,0
0,36,79,9
0,59,0,1
0,33,0,10
0,61,118,2
0,36,0,3
0,62,0,4
0,38,116,4
0,28,117,26
0,61,0,4
0,38,0,1
0,56,96,2
0,59,96,0
0,52,102,0
0,59,117,0
0,40,104,1
0,40,75,0
0,28,93,1
0,56,82,0
0,52,99,1
0,59,91,0
0,36,90,1
0,52,0,8
0,36,0,26
0,59,0,5
0,71,0,7
0,28,0,2
0,52,93,1
0,56,0,3
0,56,96,16
0,36,104,3
0,64,104,20
0,56,0,3
0,36,0,5
0,64,0,8
0,28,117,6
0,68,114,0
0,52,0,1
0,56,92,3
0,59,104,0
0,38,113,3
0,40,0,19
0,68,0,8
0,38,0,3
0,28,0,1
0,52,0,4
0,59,0,1
0,28,0,7
0,68,120,1
0,59,0,1
0,52,86,0
0,56,0,1
0,40,0,2
0,36,91,0
0,56,0,5
0,52,0,9
0,36,0,5
0,68,0,11
0,28,117,9
0,40,71,4
0,28,93,0
0,56,71,0
0,69,116,0
0,52,101,1
0,59,93,0
0,59,104,1
0,56,93,0
0,40,104,1
0,36,84,2
0,36,0,6
0,36,75,14
0,28,0,8
0,52,0,2
0,56,0,0
0,59,0,2
0,28,0,2
0,56,0,2
0,59,0,0
0,40,0,2
0,36,0,4
0,52,93,1
0,59,0,6
0,69,0,6
0,68,110,7
0,36,79,5
0,56,97,1
0,68,0,11
0,52,0,1
0,40,0,2
0,36,0,1
0,66,106,3
0,28,96,2
0,56,0,2
0,38,122,4
0,66,0,10
0,28,0,6
0,64,104,1
0,64,0,16
0,38,0,3
0,55,99,4
0,43,106,0
0,62,99,1
0,57,104,0
0,59,101,0
0,31,96,0
0,43,79,0
0,66,114,0
0,59,84,1
0,55,79,0
0,62,79,0
0,31,112,1
0,57,96,0
0,36,101,2
0,55,0,12
0,57,0,13
0,31,0,6
0,36,0,21
0,66,0,12
0,62,0,10
0,31,110,0
0,55,84,2
0,36,99,3
0,64,116,0
0,59,0,18
0,36,0,15
0,31,0,4
0,55,0,5
0,31,0,2
0,55,0,2
0,57,0,1
0,38,110,0
0,57,106,1
0,59,0,2
0,62,0,1
0,43,0,2
0,57,0,15
0,38,0,13
0,43,0,10
0,31,101,1
0,36,93,2
0,55,93,0
0,55,0,20
0,36,0,5
0,31,0,3
0,61,120,3
0,33,112,1
0,45,88,1
0,33,90,0
0,61,84,1
0,64,96,0
0,57,81,0
0,59,93,1
0,61,96,3
0,64,104,0
0,57,101,0
0,59,106,0
0,45,105,1
0,36,96,3
0,57,0,3
0,36,0,4
0,45,0,5
0,64,0,1
0,59,0,1
0,33,0,3
0,61,0,0
0,57,0,1
0,59,0,0
0,64,0,0
0,36,99,1
0,33,0,3
0,61,0,0
0,36,0,16
0,57,93,0
0,33,96,4
0,45,0,9
0,57,0,1
0,33,0,4
0,59,104,5
0,62,111,1
0,61,0,1
0,36,88,3
0,33,107,1
0,59,0,4
0,36,0,10
0,61,120,7
0,38,121,2
0,62,0,3
0,33,0,8
0,38,0,23
0,28,116,3
0,40,83,1
0,61,0,1
0,56,84,0
0,52,96,1
0,28,95,0
0,59,84,0
0,59,121,0
