track,note,velocity,time
0,61,85,384
0,57,83,1
0,45,88,1
0,45,0,139
0,57,0,6
0,61,0,4
0,54,96,0
0,54,0,37
0,61,77,7
0,45,90,2
0,57,79,0
0,54,96,205
0,57,0,4
0,45,0,1
0,61,0,4
0,54,0,50
0,61,82,73
0,57,90,2
0,38,77,1
0,50,88,1
0,54,100,65
0,50,0,3
0,38,0,2
0,57,0,2
0,61,0,1
0,54,0,2
0,61,82,15
0,38,79,3
0,57,88,1
0,50,86,0
0,54,99,182
0,38,0,18
0,57,0,7
0,50,0,0
0,61,0,11
0,54,0,38
0,61,89,9
0,57,84,3
0,45,96,1
0,54,100,118
0,57,0,10
0,45,0,2
0,61,0,2
0,54,0,34
0,61,78,14
0,45,95,2
0,57,79,2
0,54,97,149
0,45,0,1
0,57,0,1
0,61,0,14
0,54,0,1
0,61,85,6
0,38,74,2
0,57,81,0
0,50,67,2
0,50,0,113
0,54,100,2
0,38,0,2
0,57,0,0
0,61,0,4
0,54,0,2
0,61,75,3
0,59,101,1
0,38,71,2
0,50,62,0
0,57,83,0
0,59,0,19
0,59,110,29
0,59,0,58
0,61,110,15
0,61,0,40
0,38,0,11
0,50,0,11
0,61,97,10
0,54,100,3
0,57,0,4
0,61,0,22
0,61,0,14
0,54,0,23
0,61,104,13
0,61,78,12
0,57,83,2
0,45,83,0
0,57,0,109
0,45,0,0
0,54,102,0
0,61,0,6
0,54,0,12
0,61,77,9
0,45,84,1
0,57,83,2
0,61,0,114
0,59,109,3
0,45,0,38
0,54,103,5
0,61,108,17
0,59,0,8
0,57,0,3
0,61,0,10
0,54,0,21
0,62,106,28
0,61,0,1
0,61,78,12
0,57,81,2
0,50,71,0
0,38,71,1
0,62,0,21
0,62,110,31
0,50,0,2
0,38,0,7
0,57,0,2
0,61,0,4
0,54,96,9
0,54,0,5
0,38,71,14
0,61,78,2
0,57,75,2
0,50,53,1
0,62,0,14
0,64,112,1
0,61,103,104
0,64,0,7
0,38,0,14
0,50,0,1
0,54,91,3
0,57,0,19
0,54,0,29
0,59,109,24
0,61,0,1
0,61,0,14
0,40,79,14
0,52,64,0
0,59,91,0
0,52,0,74
0,40,0,7
0,59,0,2
0,54,89,0
0,54,0,2
0,40,90,11
0,59,96,1
0,52,66,1
0,54,92,168
0,59,0,26
0,52,0,0
0,40,0,5
0,59,0,12
0,54,0,14
0,59,79,6
0,56,71,1
0,40,79,2
0,52,60,1
0,56,0,107
0,52,0,0
0,40,0,7
0,59,0,1
0,54,95,12
0,54,0,1
0,59,81,14
0,56,73,1
0,40,91,3
0,52,71,0
0,59,99,4
0,59,0,24
0,59,111,36
0,59,0,65
0,61,110,6
0,56,0,33
0,61,0,4
0,40,0,14
0,52,0,2
0,61,111,17
0,54,93,3
0,61,0,39
0,54,0,0
0,61,106,26
0,59,0,60
0,61,79,9
0,57,79,1
0,45,96,0
0,45,0,84
0,57,0,1
0,61,0,9
0,54,99,9
0,54,0,25
0,61,79,10
0,45,95,2
0,57,77,0
0,61,0,52
0,59,110,35
0,59,0,61
0,61,108,0
0,54,96,1
0,45,0,14
0,57,0,2
0,61,0,10
0,54,0,18
0,61,0,21
0,62,104,5
0,61,73,16
0,57,83,2
0,50,70,2
0,38,71,1
0,62,0,17
0,62,111,31
0,50,0,34
0,38,0,3
0,57,0,2
0,61,0,4
0,54,96,7
0,54,0,36
0,62,0,5
0,61,75,3
0,57,74,2
0,38,69,1
0,50,70,0
0,64,111,4
0,64,0,68
0,61,110,21
0,61,0,22
0,61,107,16
0,54,99,11
0,38,0,9
0,50,0,4
0,57,0,7
0,54,0,29
0,61,0,10
0,40,83,3
0,52,64,2
0,59,83,0
0,61,0,14
0,59,109,1
0,54,95,111
0,52,0,19
0,40,0,3
0,59,0,7
0,54,0,8
0,52,60,41
0,40,74,1
0,59,93,1
0,52,0,121
0,52,50,40
0,54,88,9
0,59,0,13
0,40,0,9
0,52,0,5
0,54,0,11
0,59,83,79
0,56,69,0
0,40,81,3
0,52,56,0
0,52,0,11
0,54,95,108
0,59,0,5
0,56,0,2
0,40,0,1
0,59,0,8
0,54,0,27
0,59,99,18
0,56,81,1
0,59,93,0
0,40,91,0
0,52,67,1
0,59,0,7
0,59,107,37
0,52,0,21
0,61,104,50
0,59,0,3
0,61,0,34
0,56,0,27
0,61,105,7
0,59,0,4
0,52,75,13
0,54,93,1
0,40,0,17
0,52,0,4
0,61,0,3
0,54,0,18
0,61,106,16
0,57,91,78
0,61,92,1
0,42,89,2
0,54,51,47
0,61,0,3
0,42,0,0
0,57,0,2
0,54,96,5
0,54,0,3
0,54,0,28
0,61,81,27
0,57,84,1
0,54,73,0
0,42,71,1
0,54,0,63
0,61,0,40
0,59,107,11
0,54,92,46
0,54,71,1
0,59,0,4
0,61,106,7
0,61,0,5
0,54,0,2
0,57,0,2
0,42,0,12
0,54,0,7
0,61,0,27
0,62,106,12
0,54,82,4
0,50,79,2
0,57,95,0
0,38,71,1
0,50,0,9
0,62,0,13
0,62,109,38
0,54,91,16
0,50,66,3
0,57,0,2
0,38,0,0
0,54,0,5
0,50,0,10
0,54,0,10
0,62,0,9
0,64,110,9
0,50,74,7
0,54,81,1
0,57,96,1
0,38,73,1
0,50,0,16
0,54,0,1
0,57,0,6
0,50,71,160
0,54,96,2
0,50,0,13
0,38,0,1
0,54,0,24
0,64,0,26
0,59,110,6
0,47,60,5
0,62,90,3
0,35,79,1
0,59,83,0
0,47,0,4
0,47,56,123
0,54,93,0
0,59,0,3
0,35,0,2
0,62,0,17
0,47,0,1
0,54,0,10
0,47,63,7
0,35,77,2
0,62,86,1
0,59,83,1
0,62,0,50
0,59,0,19
0,47,0,39
0,59,0,21
0,54,97,8
0,61,102,11
0,47,74,2
0,35,0,17
0,54,0,6
0,47,0,7
0,61,0,64
0,40,96,2
0,52,75,1
0,59,104,0
0,52,0,6
0,59,0,73
0,54,93,47
0,52,73,2
0,40,0,15
0,52,0,6
0,54,0,7
0,59,96,5
0,56,77,3
0,40,83,1
0,59,79,2
0,59,0,20
0,59,111,39
0,59,0,60
0,56,0,10
0,61,108,3
0,59,0,12
0,61,0,26
0,54,95,30
0,52,84,6
0,61,110,0
0,40,0,8
0,52,0,13
0,54,0,10
0,61,0,9
0,61,114,31
0,54,60,6
0,57,93,1
0,61,92,1
0,42,78,1
0,54,0,6
0,54,58,33
0,54,95,8
0,42,0,4
0,57,0,6
0,61,0,2
0,54,0,5
0,54,0,16
0,54,55,4
0,61,82,0
0,57,83,0
0,42,69,1
0,54,0,2
0,61,0,50
0,59,107,11
0,54,82,34
0,54,91,0
0,59,0,8
0,54,0,10
0,61,112,0
0,61,0,4
0,57,0,5
0,42,0,1
0,54,0,8
0,61,0,35
0,62,102,10
0,50,73,10
0,54,85,1
0,57,96,1
0,38,73,0
0,50,0,3
0,62,0,33
0,62,111,26
0,38,0,6
0,50,81,11
0,54,93,2
0,57,0,9
0,54,0,2
0,50,0,9
0,54,0,13
0,38,74,6
0,54,81,4
0,57,93,0
0,62,0,5
0,64,110,1
0,54,0,43
0,57,0,5
0,64,0,57
0,61,107,6
0,54,96,24
0,50,96,7
0,38,0,18
0,54,0,7
0,50,0,1
0,61,0,18
0,61,120,37
0,61,88,6
0,57,88,2
0,45,88,2
0,57,0,7
0,57,70,30
0,45,0,3
0,54,96,1
0,57,0,1
0,61,0,2
0,54,0,9
0,61,88,9
0,45,95,1
0,57,90,4
0,57,0,27
0,59,95,186
0,57,71,0
0,54,96,1
0,61,0,10
0,57,0,6
0,45,0,9
0,54,0,8
0,61,0,33
0,59,112,5
0,40,98,50
0,52,79,113
0,54,96,3
0,40,0,14
0,52,0,7
0,59,0,8
0,59,0,1
0,54,0,6
0,59,90,25
0,40,104,2
0,59,99,5
0,59,0,37
0,59,110,35
0,59,0,65
0,61,108,7
0,61,0,37
0,54,93,24
0,52,93,10
0,61,107,1
0,40,0,4
0,52,0,18
0,54,0,5
0,61,0,8
0,59,0,3
0,61,110,32
0,35,90,3
0,61,85,9
0,45,84,1
0,57,81,1
0,59,79,0
0,59,0,2
0,57,0,20
0,57,71,89
0,54,91,0
0,45,0,3
0,35,0,10
0,57,0,3
0,61,0,2
0,54,0,43
0,61,91,2
0,45,93,0
0,35,91,0
0,57,91,3
0,57,0,13
0,61,0,62
0,59,111,2
0,57,81,25
0,59,0,7
0,54,93,6
0,45,0,1
0,57,0,0
0,61,110,0
0,35,0,21
0,61,0,5
0,54,0,26
0,61,0,13
0,62,110,5
0,61,78,4
0,38,73,1
0,50,52,0
0,35,104,1
0,57,88,1
0,50,0,17
0,62,0,30
0,62,110,25
0,57,0,40
0,50,67,5
0,54,88,14
0,38,0,3
0,61,0,6
0,50,0,2
0,35,0,5
0,54,0,20
0,61,82,7
0,38,79,0
0,57,93,1
0,62,0,9
0,64,106,3
0,35,99,3
0,61,0,64
0,57,0,9
0,64,0,51
0,61,107,3
0,50,99,13
0,54,82,5
0,38,0,10
0,50,0,11
0,35,0,4
0,54,0,20
0,61,0,28
0,59,109,4
0,56,71,10
0,40,93,1
0,59,86,0
0,52,79,2
0,35,96,2
0,52,0,12
0,56,0,25
0,59,0,12
0,52,53,73
0,54,78,3
0,40,0,6
0,52,0,7
0,35,0,1
0,54,0,32
0,56,77,19
0,40,91,1
0,59,96,0
0,35,96,3
0,56,0,89
0,59,0,5
0,59,0,49
0,54,84,60
0,57,101,9
0,52,81,2
0,40,0,18
0,35,0,6
0,52,0,5
0,54,0,8
0,57,0,23
0,56,102,2
0,35,93,0
0,40,86,2
0,52,50,118
0,54,85,1
0,40,0,7
0,56,0,3
0,52,0,2
0,35,0,5
0,54,0,24
0,59,106,20
0,40,93,2
0,56,85,1
0,52,96,4
0,35,91,2
0,59,0,24
0,52,0,19
0,59,111,16
0,56,0,3
0,59,0,15
0,61,108,7
0,61,0,18
0,61,105,31
0,54,95,6
0,52,75,2
0,40,0,4
0,35,0,6
0,52,0,11
0,61,0,9
0,54,0,27
0,61,110,4
0,35,84,61
0,61,91,3
0,45,88,1
0,57,91,1
0,57,0,9
0,54,79,88
0,57,54,8
0,45,0,6
0,35,0,2
0,61,0,4
0,57,0,1
0,54,0,3
0,35,99,33
0,45,95,1
0,61,89,3
0,57,90,0
0,57,0,23
0,61,0,76
0,59,106,4
0,59,0,22
0,57,74,2
0,54,81,2
0,61,107,4
0,57,0,7
0,45,0,4
0,35,0,3
0,61,0,2
0,54,0,17
0,61,0,11
0,62,107,9
0,35,91,61
0,61,88,2
0,50,63,1
0,57,93,1
0,38,74,0
0,50,0,1
0,62,0,9
0,62,96,38
0,57,0,2
0,54,79,52
0,50,74,4
0,38,0,9
0,35,0,5
0,61,0,5
0,50,0,1
0,54,0,28
0,62,0,5
0,61,88,1
0,50,77,0
0,57,91,1
0,38,71,0
0,64,109,1
0,35,91,1
0,50,0,6
0,64,0,91
0,61,104,10
0,54,79,45
0,50,98,7
0,61,0,4
0,57,0,3
0,38,0,3
0,35,0,8
0,61,0,1
0,50,0,4
0,54,0,24
0,61,108,9
0,61,0,13
0,56,77,1
0,35,95,1
0,59,86,1
0,59,110,0
0,40,95,2
0,52,66,104
0,40,0,14
0,54,69,0
0,52,0,6
0,59,0,1
0,35,0,5
0,56,0,4
0,54,0,26
0,40,96,19
0,56,69,2
0,59,96,2
0,35,101,0
0,56,0,10
0,59,0,3
0,52,77,80
0,57,98,1
0,54,85,5
0,40,0,6
0,35,0,12
0,52,0,2
0,57,0,36
0,54,0,7
0,35,96,35
0,40,84,3
0,56,91,0
0,52,71,3
0,52,0,34
0,59,0,79
0,52,84,2
0,54,96,0
0,40,0,6
0,35,0,5
0,56,0,8
0,52,0,5
0,54,0,12
0,59,111,1
0,56,89,3
0,52,70,1
0,40,79,2
0,35,98,3
0,52,0,3
0,59,0,9
0,59,111,34
0,59,0,56
0,61,113,2
0,61,0,12
0,54,93,24
0,61,110,3
0,52,88,1
0,35,0,5
0,56,0,5
0,40,0,3
0,52,0,8
0,61,0,20
0,54,0,17
0,61,111,10
0,42,93,36
0,35,104,11
0,61,81,4
0,57,84,1
0,54,79,1
0,42,82,0
0,54,0,14
0,54,79,91
0,54,63,3
0,35,0,9
0,57,0,0
0,61,0,2
0,42,0,4
0,54,0,5
0,54,0,8
0,35,109,1
0,57,91,2
0,61,91,1
0,42,78,1
0,61,0,57
0,59,110,8
0,40,91,16
0,59,0,3
0,54,82,8
0,61,110,0
0,35,0,1
0,42,0,3
0,54,93,1
0,61,0,12
0,54,0,2
0,57,0,4
0,42,0,7
0,61,0,18
0,54,0,7
0,62,111,12
0,38,86,64
0,40,0,4
0,35,101,9
0,38,69,3
0,54,78,1
0,50,41,1
0,57,88,3
0,50,0,14
0,62,0,9
0,62,112,34
0,54,91,41
0,35,0,2
0,50,63,2
0,38,0,4
0,57,0,7
0,54,0,9
0,50,0,2
0,54,0,12
0,62,0,17
0,38,81,3
0,64,111,0
0,54,88,3
0,57,96,0
0,35,99,3
0,54,0,20
0,57,0,7
0,64,0,88
0,61,106,3
0,50,101,20
0,35,0,1
0,54,96,10
0,50,0,6
0,38,0,5
0,61,0,20
0,54,0,14
0,61,116,18
0,35,106,48
0,35,98,1
0,38,0,1
0,47,63,2
0,62,96,3
0,59,96,1
0,35,84,0
0,47,0,17
0,47,71,104
0,54,85,1
0,35,0,10
0,35,0,1
0,59,0,5
0,47,0,5
0,62,0,1
0,54,0,8
0,61,0,31
0,47,60,2
0,35,98,0
0,62,111,0
0,62,93,1
0,35,79,1
0,59,88,0
0,47,0,2
0,59,0,5
0,62,0,1
0,61,112,109
0,62,0,7
0,54,93,10
0,47,79,1
0,61,100,0
0,35,0,2
0,35,0,12
0,47,0,17
0,54,0,20
0,38,79,10
0,61,0,1
0,59,112,4
0,35,0,13
0,61,0,3
0,40,104,44
0,35,96,4
0,38,0,3
0,52,88,0
0,40,98,0
0,59,101,3
0,52,0,6
0,59,0,20
0,52,83,97
0,54,91,3
0,35,0,1
0,40,0,12
0,52,0,6
0,59,0,1
0,54,0,18
0,40,81,5
0,59,111,0
0,56,79,1
0,35,90,2
0,59,79,1
0,59,0,17
0,59,112,35
0,59,0,60
0,61,108,10
0,61,0,35
0,56,0,14
0,59,0,11
0,35,0,2
0,54,91,1
0,52,84,2
0,61,112,7
0,40,0,8
0,52,0,2
0,54,0,19
0,61,0,13
0,61,111,23
0,42,95,48
0,40,0,11
0,35,91,1
0,61,82,1
0,57,83,0
0,42,69,1
0,54,66,0
0,54,0,13
0,54,75,15
0,35,0,1
0,54,60,1
0,42,0,15
0,61,0,2
0,57,0,3
0,54,0,3
0,54,0,9
0,35,98,38
0,61,81,1
0,57,81,1
0,54,69,2
0,42,56,1
0,54,0,23
0,61,0,46
0,59,110,21
0,35,0,2
0,57,0,10
0,61,0,1
0,40,107,35
0,59,0,9
0,54,85,0
0,42,0,5
0,54,91,3
0,61,111,0
0,54,0,9
0,42,0,3
0,54,0,16
0,61,0,21
0,62,110,12
0,38,91,1
0,40,0,8
0,54,81,3
0,35,90,0
0,57,83,2
0,38,74,1
0,62,0,36
0,62,112,27
0,35,0,32
0,50,63,5
0,54,92,4
0,38,0,5
0,57,0,4
0,54,0,4
0,50,0,0
0,54,0,25
0,62,0,8
0,38,75,2
0,57,86,1
0,54,85,0
0,35,86,1
0,64,111,2
0,54,0,63
0,57,0,11
0,64,0,3
0,61,110,11
0,50,83,34
0,54,97,4
0,38,0,6
0,35,0,7
0,50,0,3
0,54,0,24
0,61,0,13
0,61,114,26
0,33,101,29
0,38,0,4
0,35,93,5
0,61,84,2
0,57,83,2
0,45,90,1
0,57,0,17
0,54,93,18
0,57,40,6
0,35,0,2
0,45,0,7
0,57,0,0
0,61,0,7
0,54,0,12
0,61,82,32
0,35,86,2
0,45,64,1
0,57,75,0
0,57,0,26
0,61,0,67
0,59,79,15
0,54,99,62
0,35,0,6
0,57,60,0
0,57,0,14
0,45,0,16
