track,note,velocity,time
1,36,96,1520
1,48,99,0
1,48,96,254
1,36,84,4
1,44,93,138
1,32,96,0
1,44,89,258
1,32,93,0
1,48,96,106
1,36,90,0
1,48,101,258
1,36,83,2
1,44,89,116
1,32,96,2
1,44,78,246
1,32,88,2
1,48,96,114
1,36,93,2
1,48,93,244
1,36,83,2
1,44,95,142
1,32,99,2
1,32,91,246
1,44,79,0
1,43,69,96
1,31,69,6
1,47,4,798
1,48,105,160
1,36,104,0
1,48,99,250
1,36,88,2
1,44,92,20
1,32,93,2
1,32,91,244
1,44,79,2
1,48,99,104
1,36,109,0
1,36,95,248
1,48,99,0
1,44,100,110
1,32,100,2
1,44,85,226
1,32,89,2
1,48,104,94
1,36,104,2
1,36,84,252
1,48,91,2
1,44,93,130
1,32,103,2
1,44,93,252
1,32,93,4
1,43,71,106
1,31,75,2
1,47,51,786
1,36,104,20
1,48,106,0
1,48,95,110
1,36,95,0
1,44,93,14
1,32,93,0
1,44,91,100
1,32,95,0
1,48,101,26
1,36,96,0
1,48,96,144
1,36,90,2
1,44,91,30
1,32,95,0
1,44,91,118
1,32,93,2
1,48,96,28
1,36,91,0
1,36,90,134
1,48,96,0
1,44,91,2
1,32,95,2
1,44,79,2
1,32,81,0
1,43,79,6
1,31,81,2
1,43,75,120
1,43,62,396
1,47,62,0
1,43,67,114
1,47,79,154
1,43,79,102
1,52,48,60
1,40,102,14
1,55,74,8
1,52,75,2
1,52,79,118
1,59,64,4
1,52,79,206
1,36,79,134
1,52,79,8
1,55,75,2
1,48,70,20
1,52,67,26
1,48,70,18
1,40,73,10
1,55,51,4
1,59,67,0
1,52,60,154
1,52,83,328
1,36,79,146
1,52,83,2
1,55,79,0
1,48,62,16
1,52,73,54
1,48,83,104
1,55,38,52
1,43,79,4
1,55,40,4
1,59,70,2
1,55,79,14
1,38,74,148
1,57,79,0
1,50,60,132
1,54,63,48
1,57,54,280
1,50,79,6
1,61,62,2
1,33,81,4
1,57,73,2
1,45,52,92
1,57,70,14
1,61,68,86
1,45,56,4
1,33,63,122
1,45,56,200
1,64,95,0
1,45,93,46
1,52,58,52
1,40,91,20
1,59,79,6
1,55,77,2
1,52,73,22
1,52,79,326
1,36,84,12
1,52,74,2
1,55,74,2
1,48,64,16
1,52,71,16
1,48,90,176
1,40,104,10
1,55,81,4
1,59,84,0
1,52,69,10
1,55,63,4
1,59,71,184
1,52,83,4
1,55,75,0
1,36,84,0
1,48,73,10
1,52,77,90
1,55,74,182
1,43,86,6
1,59,79,0
1,55,79,0
1,55,50,108
1,62,58,16
1,59,67,104
1,55,55,44
1,54,77,156
1,38,73,0
1,57,81,0
1,50,79,4
1,54,73,22
1,57,74,80
1,50,73,62
1,33,83,16
1,61,56,2
1,57,73,4
1,64,75,0
1,45,66,60
1,57,55,34
1,61,63,2
1,57,71,10
1,45,44,26
1,57,40,68
1,61,62,6
1,45,64,18
1,57,56,2
1,64,63,4
1,45,54,12
1,57,52,12
1,61,58,148
1,57,70,6
1,45,83,32
1,57,73,50
1,36,95,18
1,48,99,0
1,48,99,92
1,36,95,4
1,48,101,150
1,36,75,48
1,48,96,66
1,44,91,26
1,32,107,0
1,44,89,112
1,32,96,4
1,44,82,124
1,32,92,64
1,44,78,88
1,48,102,28
1,36,106,2
1,36,98,142
1,48,101,202
1,36,84,42
1,48,91,94
1,32,96,30
1,44,68,2
1,44,85,46
1,44,81,48
1,32,92,2
1,32,82,30
1,44,91,6
1,32,85,96
1,36,109,46
1,48,99,0
1,36,101,152
1,48,99,196
1,36,84,48
1,48,84,2
1,32,104,30
1,44,65,12
1,32,96,50
1,32,91,108
1,44,92,102
1,44,82,32
1,32,81,2
1,31,88,28
1,43,73,0
1,43,91,248
1,43,77,184
1,47,79,0
1,31,86,4
1,43,75,142
1,47,62,68
1,50,86,14
1,43,79,14
1,48,99,18
1,36,96,2
1,48,104,140
1,36,96,0
1,48,101,46
1,36,83,18
1,48,91,92
1,44,91,32
1,32,99,2
1,44,91,110
1,32,91,2
1,44,77,124
1,32,93,6
1,44,78,72
1,36,106,32
1,48,109,0
1,48,84,134
1,36,83,4
1,48,93,120
1,36,75,40
1,48,86,88
1,32,103,28
1,44,84,4
1,32,96,138
1,44,81,2
1,44,68,126
1,44,68,56
1,32,78,2
1,44,57,58
1,48,104,36
1,36,104,0
1,48,96,132
1,36,90,2
1,48,99,118
1,48,77,52
1,36,83,4
1,48,88,60
1,44,85,40
1,32,106,0
1,44,82,114
1,32,93,4
1,44,73,120
1,32,82,8
1,44,79,96
1,43,83,26
1,31,86,2
1,43,81,710
1,47,73,84
1,50,90,8
1,43,75,194
1,47,79,24
1,43,81,54
1,52,66,38
1,28,104,20
1,52,79,0
1,55,86,2
1,59,84,0
1,40,88,54
1,52,84,56
1,55,63,82
1,52,69,2
1,40,84,8
1,48,54,62
1,52,60,18
1,36,79,2
1,55,67,4
1,48,95,32
1,52,79,44
1,55,75,52
1,40,79,10
1,52,30,6
1,55,51,2
1,52,73,78
1,55,81,78
1,59,62,56
1,52,79,30
1,52,69,64
1,36,83,6
1,52,69,0
1,55,69,10
1,48,73,10
1,52,79,28
1,55,79,248
1,48,83,32
1,43,84,14
1,59,79,4
1,55,75,2
1,55,66,100
1,59,79,68
1,55,79,6
1,54,68,12
1,38,74,0
1,57,84,6
1,50,74,156
1,54,73,74
1,57,73,66
1,50,88,72
1,57,54,66
1,33,84,22
1,61,55,10
1,57,67,4
1,64,79,2
1,45,66,86
1,57,60,66
1,59,70,26
1,61,77,100
1,45,60,86
1,57,58,14
1,45,79,14
1,64,83,0
1,45,62,148
1,57,79,10
1,61,93,20
1,45,79,46
1,52,84,58
1,40,99,30
1,55,75,4
1,59,79,2
1,40,79,36
1,40,93,28
1,52,71,200
1,55,74,42
1,36,83,16
1,55,74,0
1,52,79,2
1,48,74,136
1,52,70,74
1,55,69,240
1,48,71,2
1,55,69,20
1,59,70,2
1,52,64,0
1,40,46,2
1,52,83,6
1,55,77,50
1,59,70,142
1,52,81,24
1,52,56,62
1,36,79,10
1,52,71,4
1,55,79,2
1,48,74,10
1,52,75,78
1,55,81,16
1,48,79,58
1,55,69,44
1,43,70,22
1,59,67,2
1,55,74,8
1,55,70,112
1,59,73,90
1,59,70,78
1,55,73,14
1,54,91,58
1,38,75,18
1,50,66,154
1,54,79,82
1,57,74,38
1,50,84,72
1,57,58,56
1,33,74,14
1,61,63,6
1,57,70,4
1,45,62,98
1,57,63,54
1,61,69,92
1,45,62,100
1,57,48,40
1,61,71,14
1,33,79,6
1,45,63,142
1,64,77,84
1,61,58,84
1,45,83,110
1,57,63,32
1,48,102,26
1,36,99,0
1,48,84,134
1,36,83,2
1,44,93,14
1,32,99,2
1,44,78,140
1,32,88,2
1,48,93,28
1,36,86,0
1,48,99,150
1,36,86,2
1,44,91,20
1,32,95,2
1,44,77,142
1,32,92,0
1,36,86,24
1,48,102,2
1,48,96,142
1,36,86,4
1,44,96,32
1,32,96,2
1,44,73,148
1,32,85,2
1,44,71,182
1,44,53,40
1,32,58,4
1,43,79,16
1,31,66,4
1,43,70,114
1,47,56,180
1,50,54,258
1,43,67,50
1,48,96,24
1,36,93,2
1,48,101,120
1,36,88,6
1,48,90,114
1,36,88,24
1,48,93,100
1,32,104,30
1,44,96,2
1,44,75,116
1,32,91,2
1,44,66,136
1,32,82,10
1,44,77,100
1,48,99,18
1,36,104,2
1,48,86,130
1,36,88,0
1,48,74,162
1,36,66,38
1,48,79,94
1,32,97,24
1,44,96,2
1,44,81,110
1,32,92,2
1,44,73,150
1,32,73,44
1,44,57,2
1,48,104,24
1,36,101,0
1,36,88,132
1,48,60,4
1,48,88,162
1,36,74,32
1,48,63,8
1,32,91,34
1,44,73,6
1,32,92,134
1,44,69,194
1,44,81,62
1,44,78,48
1,31,91,0
1,43,54,522
1,47,73,190
1,47,88,112
1,47,70,50
1,43,90,70
1,52,70,40
1,40,102,14
1,55,71,6
1,52,62,0
1,59,83,2
1,52,83,28
1,55,83,68
1,59,83,52
1,52,88,52
1,52,57,66
1,52,74,14
1,55,79,2
1,36,84,0
1,48,95,26
1,52,77,78
1,55,73,98
1,48,83,12
1,40,44,24
1,59,32,2
1,41,39,4
1,55,26,0
1,52,84,148
1,55,75,80
1,59,79,164
1,52,88,24
1,52,66,56
1,52,24,0
1,36,79,6
1,55,74,2
1,48,73,8
1,52,83,58
1,48,93,12
1,52,39,44
1,40,88,8
1,55,74,0
1,52,57,2
1,59,66,96
1,55,74,78
1,43,81,0
1,59,71,134
1,55,75,26
1,54,66,52
1,38,75,6
1,50,79,142
1,57,83,82
1,54,85,64
1,50,90,54
1,57,60,44
1,33,84,20
1,61,68,2
1,57,75,4
1,45,67,58
1,33,60,6
1,45,66,64
1,33,77,2
1,61,37,4
1,45,83,2
1,33,79,4
1,57,74,6
1,45,79,62
1,57,70,0
1,59,81,28
1,45,63,0
1,61,75,4
1,33,17,14
1,64,93,20
1,45,84,12
1,61,73,78
1,59,71,18
1,64,96,8
1,45,88,0
1,61,68,66
1,59,74,78
1,45,88,56
1,52,74,44
1,40,98,18
1,59,79,4
1,55,79,0
1,52,79,158
1,55,77,30
1,59,62,8
1,52,79,30
1,52,67,52
1,36,81,0
1,55,74,0
1,52,79,2
1,48,79,14
1,52,91,18
1,55,74,16
1,48,81,54
1,52,66,40
1,40,81,12
1,59,79,4
1,55,73,0
1,52,58,4
1,52,71,8
1,55,79,66
1,59,77,86
1,52,79,32
1,52,66,46
1,52,62,18
1,36,79,0
1,55,73,2
1,48,66,18
1,52,79,86
1,55,66,6
1,48,81,104
1,55,55,22
1,59,70,6
1,43,88,2
1,55,74,4
1,55,60,114
1,59,74,80
1,59,74,56
1,55,55,20
1,54,89,56
1,38,74,16
1,50,73,148
1,54,82,78
1,57,79,54
1,50,73,66
1,57,64,34
1,45,98,6
1,61,69,2
1,57,73,6
1,57,70,54
1,57,64,34
1,57,70,52
1,45,62,60
1,57,66,102
1,59,66,10
1,57,60,88
1,61,71,60
1,45,84,6
1,57,57,122
1,59,63,26
1,61,62,70
1,57,70,104
1,48,98,20
1,36,93,0
1,48,93,122
1,36,88,4
1,44,97,14
1,32,97,0
1,44,71,14
1,32,82,10
1,36,93,28
1,48,95,2
1,48,84,6
1,36,79,6
1,44,82,160
2,32,96,2276
2,36,69,5318
2,32,85,796
2,36,91,750
2,32,88,732
2,36,88,766
2,32,82,760
2,31,88,748
2,36,66,1528
2,32,82,10
2,36,79,2
2,32,85,784
2,36,84,752
2,32,81,742
2,31,75,764
2,40,90,1536
2,28,91,2
2,24,83,764
2,36,84,2
2,28,75,134
2,40,67,6
2,47,70,2
2,43,77,0
2,40,35,74
2,36,52,6
2,43,63,2
2,43,48,272
2,47,57,2
2,50,75,0
2,31,31,8
2,38,39,2
2,50,53,2
2,54,47,2
2,57,51,0
2,26,44,4
2,45,37,194
2,33,53,6
2,61,44,2
2,57,33,0
2,64,50,2
2,59,53,0
2,40,70,392
2,64,58,2
2,67,73,2
2,71,52,0
2,28,74,2
2,60,51,114
2,36,44,2
2,67,50,0
2,64,69,2
2,24,55,4
2,40,69,146
2,71,56,2
2,64,53,2
2,67,71,2
2,28,66,4
2,36,54,80
2,60,56,8
2,64,62,0
2,24,58,2
2,67,60,2
2,59,41,62
2,43,57,2
2,31,54,2
2,67,67,0
2,62,67,4
2,69,71,120
2,62,53,2
2,38,55,2
2,66,65,2
2,26,63,2
2,45,41,166
2,33,53,6
2,69,27,2
2,73,50,2
2,71,54,2
2,76,54,0
2,72,106,38
2,72,106,228
2,68,106,330
2,68,106,230
2,72,112,406
2,72,112,250
2,68,114,444
2,68,114,250
2,72,112,446
2,72,112,262
2,68,120,458
2,68,112,256
2,67,105,462
2,67,93,98
2,67,48,118
2,79,53,372
2,84,91,144
2,72,74,4
2,84,84,242
2,72,86,0
2,80,92,460
2,68,92,0
2,80,71,246
2,68,56,0
2,84,104,216
2,72,88,2
2,84,75,272
2,72,38,2
2,80,93,236
2,68,91,2
2,68,71,236
2,80,63,4
2,84,99,252
2,72,88,0
2,84,91,238
2,72,35,6
2,80,85,320
2,68,89,2
2,80,63,252
2,68,71,0
2,80,12,30
2,68,12,12
2,67,41,186
2,79,50,6
2,71,48,276
2,74,54,2
2,52,55,6
2,64,60,6
2,71,73,0
2,40,62,14
2,67,88,30
2,52,62,38
2,64,84,2
2,48,58,16
2,67,84,2
2,48,55,42
2,66,6,30
2,48,60,44
2,64,53,24
2,40,50,16
2,67,46,2
2,59,36,2
2,52,66,30
2,64,69,84
2,52,64,272
2,62,66,50
2,60,66,10
2,36,62,6
2,48,52,8
2,59,39,10
2,67,55,2
2,55,27,2
2,62,55,0
2,43,70,2
2,62,32,24
2,50,50,72
2,62,41,2
2,66,50,0
2,38,55,4
2,69,66,4
2,45,63,8
2,64,67,4
2,57,54,94
2,59,81,44
2,61,77,18
2,57,50,156
2,69,58,6
2,76,54,0
2,52,64,184
2,40,67,2
2,64,64,138
2,71,48,104
2,36,53,10
2,67,37,4
2,60,34,0
2,64,57,2
2,52,41,4
2,64,19,2
2,40,66,4
2,59,41,2
2,67,57,0
2,36,50,108
2,48,41,2
2,60,17,0
2,55,62,124
2,59,71,98
2,67,81,70
2,66,45,14
2,62,57,0
2,50,39,2
2,38,48,6
2,45,83,20
2,57,55,88
2,59,67,74
2,61,77,6
2,64,79,198
2,57,38,6
2,69,31,212
2,81,55,2
2,68,89,6688
2,68,85,254
2,60,93,468
2,60,79,244
2,56,50,340
2,60,56,758
2,56,41,756
2,55,50,722
2,43,88,750
2,31,88,402
2,52,57,164
2,40,70,4
2,59,39,2
2,64,63,2
2,67,46,0
2,60,62,86
2,48,60,0
2,36,62,2
2,59,46,12
2,52,37,4
2,40,58,0
2,60,53,156
2,36,55,2
2,48,39,2
2,59,69,4
2,62,62,2
2,43,64,0
2,55,40,6
2,62,28,44
2,66,78,6
2,38,55,8
2,50,41,0
2,57,60,18
2,69,33,74
2,81,66,186
2,59,39,234
2,52,39,2
2,40,51,0
2,64,66,2
2,67,39,0
2,60,60,124
2,36,40,4
2,48,13,14
2,59,60,20
2,52,36,8
2,40,53,2
2,60,40,160
2,36,44,2
2,48,40,0
2,59,52,24
2,62,32,0
2,55,34,12
2,43,57,2
2,69,40,188
2,50,40,4
2,62,31,0
2,66,41,0
2,38,53,4
2,45,62,6
2,57,38,34
2,69,50,76
2,81,55,104
3,53,112,1248
3,55,116,20
3,53,115,452
3,55,115,6
3,56,116,22
3,58,112,476
3,55,116,24
3,53,115,448
3,55,116,32
3,56,114,34
3,56,113,72
3,58,106,114
3,58,110,54
3,58,104,42
3,56,106,30
3,55,109,16
3,53,109,318
3,55,111,28
3,56,113,36
3,56,108,108
3,56,108,116
3,58,100,18
3,56,99,14
3,55,111,40
3,55,111,60
3,55,113,58
3,53,111,6
3,55,110,10
3,56,100,10
3,55,116,62
3,53,111,10
3,55,117,16
3,53,112,428
3,55,112,16
3,56,114,36
3,56,110,186
3,56,110,48
3,58,110,32
3,56,107,22
3,55,111,24
3,55,111,184
3,53,110,28
3,55,107,42
3,56,111,38
3,56,105,100
3,56,107,114
3,58,104,40
3,60,106,40
3,60,96,60
3,56,106,18
3,55,111,20
3,53,110,304
3,55,110,32
3,56,110,42
3,56,106,84
3,56,110,116
3,58,106,40
3,56,100,20
3,55,113,38
3,55,115,40
3,62,55,16
3,55,113,74
3,53,107,6
3,56,110,4
3,55,112,0
3,65,111,120
3,67,116,16
3,65,106,282
3,67,110,16
3,68,111,28
3,68,112,272
3,70,108,22
3,67,104,52
3,63,85,10
3,68,77,312
3,68,106,76
3,68,99,48
3,68,103,188
3,68,103,58
3,70,108,50
3,70,100,70
3,68,100,20
3,67,102,6
3,65,106,328
3,67,106,20
3,68,108,40
3,68,114,282
3,70,110,38
3,67,110,20
3,67,109,48
3,67,109,50
3,65,98,14
3,67,99,16
3,67,110,40
3,67,112,54
