track,note,velocity,time
0,36,112,1340
0,64,91,0
0,55,108,0
0,60,107,0
0,60,108,0
0,60,90,0
0,39,96,324
0,64,84,0
0,67,90,140
0,60,74,0
0,67,90,0
0,72,86,268
0,72,77,0
0,79,73,0
0,39,94,12
0,67,85,20
0,36,126,12
0,57,103,0
0,65,91,0
0,60,90,0
0,62,109,0
0,60,78,0
0,39,93,384
0,64,90,0
0,67,82,140
0,60,90,0
0,67,77,0
0,72,84,268
0,72,81,0
0,79,88,0
0,39,95,12
0,31,112,0
0,67,78,20
0,36,115,12
0,55,90,0
0,64,93,0
0,60,102,0
0,60,89,0
0,39,88,384
0,64,88,0
0,67,83,140
0,60,85,0
0,67,85,0
0,72,83,268
0,72,72,0
0,79,87,0
0,39,87,12
0,67,90,20
0,36,116,12
0,62,91,0
0,55,102,0
0,57,100,0
0,60,100,0
0,60,84,0
0,39,85,384
0,64,88,0
0,67,85,140
0,60,82,0
0,67,91,0
0,72,88,268
0,72,82,0
0,79,81,0
0,39,88,12
0,31,126,0
0,67,79,20
0,36,122,12
0,36,111,0
0,55,98,0
0,64,97,0
0,60,97,0
0,60,88,0
0,39,94,276
0,64,88,0
0,36,125,126
0,67,88,10
0,60,72,0
0,67,79,0
0,72,83,268
0,72,85,0
0,79,86,0
0,39,90,12
0,67,82,20
0,36,107,12
0,36,110,0
0,65,104,0
0,57,107,0
0,60,91,0
0,62,92,0
0,60,81,0
0,39,81,380
0,64,80,0
0,36,125,126
0,67,91,10
0,60,81,0
0,67,90,0
0,72,88,268
0,72,90,0
0,79,82,0
0,39,94,12
0,31,107,0
0,67,77,20
0,36,117,12
0,36,119,0
0,64,109,0
0,55,94,0
0,60,108,0
0,60,89,0
0,39,94,380
0,64,76,0
0,36,125,126
0,67,86,10
0,60,79,0
0,67,82,0
0,72,83,268
0,72,86,0
0,79,88,0
0,39,89,12
0,64,86,20
0,36,108,12
0,43,115,0
0,62,103,0
0,55,96,0
0,59,108,0
0,62,96,0
0,62,77,0
0,60,90,0
0,52,122,256
0,52,111,20
0,53,119,20
0,36,117,20
0,36,114,0
0,55,107,0
0,64,108,0
0,60,93,0
0,60,85,0
0,55,121,0
0,37,123,380
0,39,86,0
0,64,84,0
0,36,123,6
0,36,118,10
0,67,79,0
0,60,79,0
0,67,79,0
0,72,85,268
0,72,87,0
0,79,73,0
0,37,107,12
0,39,86,0
0,67,91,0
0,36,117,12
0,31,123,0
0,59,92,0
0,62,100,0
0,64,106,0
0,55,94,0
0,64,82,0
0,59,79,0
0,37,118,20
0,39,99,0
0,62,84,0
0,64,124,0
0,36,110,6
0,43,126,10
0,64,80,0
0,59,82,0
0,67,76,0
0,64,108,12
0,37,114,242
0,67,72,10
0,37,117,12
0,39,81,0
0,31,110,0
0,62,118,0
0,64,91,0
0,36,116,12
0,36,118,0
0,64,109,0
0,55,95,0
0,60,97,0
0,64,72,0
0,60,72,0
0,60,118,0
0,37,116,268
0,39,91,0
0,62,86,0
0,36,124,6
0,36,108,10
0,64,87,0
0,60,88,0
0,67,75,0
0,55,117,0
0,60,80,268
0,72,89,0
0,79,75,0
0,37,122,12
0,39,92,0
0,57,78,0
0,36,109,12
0,29,107,0
0,60,94,0
0,53,108,0
0,57,97,0
0,53,90,0
0,57,81,0
0,37,125,148
0,39,98,0
0,53,89,0
0,60,120,0
0,36,115,6
0,29,107,10
0,53,90,0
0,57,91,0
0,65,87,0
0,59,108,12
0,37,125,242
0,65,90,10
0,37,119,12
0,39,94,0
0,33,117,0
0,57,120,0
0,72,82,0
0,36,114,12
0,36,122,0
0,55,91,0
0,64,97,0
0,60,103,0
0,67,87,0
0,60,79,0
0,55,126,0
0,37,115,268
0,39,87,0
0,64,91,0
0,36,119,6
0,36,118,10
0,67,82,0
0,60,89,0
0,67,86,0
0,52,108,0
0,64,72,268
0,72,74,0
0,79,79,0
0,37,125,12
0,39,82,0
0,60,73,0
0,36,117,12
0,31,113,0
0,62,103,0
0,59,94,0
0,55,97,0
0,55,83,0
0,59,78,0
0,37,113,268
0,39,91,0
0,55,73,0
0,53,118,0
0,36,108,6
0,43,120,10
0,55,86,0
0,59,73,0
0,67,85,0
0,53,109,0
0,52,115,12
0,37,109,6
0,67,84,10
0,50,125,0
0,37,117,12
0,39,92,0
0,31,123,0
0,55,83,0
0,36,116,12
0,36,120,0
0,60,107,0
0,55,97,0
0,64,97,0
0,60,87,0
0,60,73,0
0,55,124,0
0,37,124,268
0,39,84,0
0,67,72,0
0,36,113,6
0,36,115,10
0,60,79,0
0,60,85,0
0,67,80,0
0,67,82,268
0,72,77,0
0,79,75,0
0,37,116,12
0,39,80,0
0,60,88,0
0,36,123,12
0,31,109,0
0,62,98,0
0,59,104,0
0,64,109,0
0,55,104,0
0,55,89,0
0,64,78,0
0,37,108,148
0,39,87,0
0,59,84,0
0,52,107,0
0,36,112,6
0,43,116,10
0,60,72,0
0,64,83,0
0,67,73,0
0,62,85,12
0,52,116,0
0,37,124,126
0,65,86,10
0,37,125,12
0,39,85,0
0,31,116,0
0,53,90,0
0,59,92,0
0,62,105,0
0,67,84,0
0,62,78,0
0,53,117,0
0,62,82,20
0,36,120,12
0,36,121,0
0,64,92,0
0,55,94,0
0,60,104,0
0,60,80,0
0,55,109,0
0,37,124,380
0,39,84,0
0,64,81,0
0,36,109,6
0,36,108,10
0,67,74,0
0,60,75,0
0,67,87,0
0,72,83,268
0,72,72,0
0,79,79,0
0,37,119,12
0,39,99,0
0,67,90,0
0,36,107,12
0,31,109,0
0,55,93,0
0,62,94,0
0,64,104,0
0,59,99,0
0,64,85,0
0,59,74,0
0,37,112,148
0,39,92,0
0,62,77,0
0,64,107,0
0,36,124,6
0,43,114,10
0,64,76,0
0,59,72,0
0,67,72,0
0,64,110,12
0,37,118,242
0,67,90,10
0,37,125,12
0,39,83,0
0,31,109,0
0,62,121,0
0,64,89,0
0,36,123,12
0,36,111,0
0,64,102,0
0,55,102,0
0,60,93,0
0,64,81,0
0,60,74,0
0,60,126,0
0,37,126,268
0,39,81,0
0,62,85,0
0,36,124,6
0,36,124,10
0,64,77,0
0,60,76,0
0,67,73,0
0,55,119,0
0,60,76,268
0,72,82,0
0,79,74,0
0,37,119,12
0,39,89,0
0,57,84,0
0,36,121,12
0,29,114,0
0,53,97,0
0,60,104,0
0,57,104,0
0,53,83,0
0,57,91,0
0,37,126,140
0,39,88,0
0,53,77,0
0,60,108,0
0,36,118,6
0,29,120,10
0,53,84,0
0,57,74,0
0,65,84,0
0,60,121,0
0,59,112,12
0,37,109,242
0,65,81,10
0,37,117,12
0,39,96,0
0,33,117,0
0,72,72,0
0,57,112,0
0,36,110,20
0,36,107,0
0,55,96,0
0,64,100,0
0,60,96,0
0,67,89,0
0,60,89,0
0,55,116,0
0,37,126,268
0,39,90,0
0,64,83,0
0,36,122,6
0,36,116,10
0,67,88,0
0,60,85,0
0,67,90,0
0,52,114,0
0,64,85,268
0,72,81,0
0,79,86,0
0,37,111,12
0,39,96,0
0,60,83,0
0,36,109,12
0,31,118,0
0,62,98,0
0,55,108,0
0,59,93,0
0,55,89,0
0,59,73,0
0,37,122,148
0,39,98,0
0,55,86,0
0,53,118,0
0,36,115,6
0,43,109,10
0,55,90,0
0,59,88,0
0,67,85,0
0,53,125,0
0,52,110,12
0,37,110,242
0,67,91,10
0,37,113,12
0,39,99,0
0,31,122,0
0,50,115,0
0,55,72,0
0,36,122,12
0,36,123,0
0,64,93,0
0,55,96,0
0,60,102,0
0,60,86,0
0,60,91,0
0,48,110,0
0,37,126,268
0,39,94,0
0,67,82,0
0,36,121,6
0,36,109,10
0,60,73,0
0,60,84,0
0,67,80,0
0,67,83,268
0,37,111,12
0,39,83,0
0,60,76,0
0,36,114,12
0,31,122,0
0,62,99,0
0,64,108,0
0,55,90,0
0,59,107,0
0,55,80,0
0,64,82,0
0,37,114,148
0,39,95,0
0,64,95,0
0,59,83,0
0,52,126,0
0,36,124,6
0,43,113,10
0,60,86,0
0,64,89,0
0,67,87,0
0,64,107,12
0,62,78,0
0,52,112,0
0,37,117,6
0,33,120,10
0,65,86,0
0,37,109,12
0,39,80,0
0,31,117,0
0,65,105,0
0,67,83,0
0,53,114,0
0,62,76,0
0,36,121,12
0,36,108,0
0,55,108,0
0,64,103,0
0,60,105,0
0,67,98,0
0,60,74,0
0,55,115,0
0,37,109,380
0,39,99,0
0,54,83,0
0,64,90,0
0,64,101,0
0,36,120,126
0,36,111,10
0,67,91,0
0,60,76,0
0,67,89,0
0,64,96,12
0,72,75,256
0,72,80,0
0,79,84,0
0,37,114,12
0,39,98,0
0,54,91,0
0,65,92,0
0,67,87,0
0,36,115,12
0,43,123,0
0,59,105,0
0,62,100,0
0,64,107,0
0,55,95,0
0,64,83,0
0,59,75,0
0,67,96,0
0,37,118,268
0,39,89,0
0,54,96,0
0,76,96,0
0,62,88,0
0,64,112,0
0,36,113,6
0,43,110,10
0,64,91,0
0,59,73,0
0,67,72,0
0,76,101,12
0,64,112,0
0,37,116,242
0,67,74,10
0,37,110,12
0,39,80,0
0,54,81,0
0,31,116,0
0,74,109,0
0,62,113,0
0,33,123,0
0,64,79,0
0,36,120,12
0,36,107,0
0,64,98,0
0,55,90,0
0,60,96,0
0,72,90,0
0,64,87,0
0,60,78,0
0,60,112,0
0,37,123,268
0,39,93,0
0,54,99,0
0,62,72,0
0,36,107,6
0,36,123,10
0,67,101,0
0,64,74,0
0,60,88,0
0,67,78,0
0,55,111,0
0,60,80,268
0,72,74,0
0,79,79,0
0,37,115,12
0,39,86,0
0,54,82,0
0,28,125,0
0,72,100,0
0,57,72,0
0,67,108,0
0,36,115,12
0,29,109,0
0,60,107,0
0,53,90,0
0,57,96,0
0,53,87,0
0,57,85,0
0,69,105,0
0,37,124,148
0,39,86,0
0,54,90,0
0,72,96,0
0,53,74,0
0,60,114,0
0,36,113,6
0,29,110,10
0,53,91,0
0,57,74,0
0,65,74,0
0,71,106,12
0,59,107,0
0,37,121,6
0,31,119,10
0,69,99,0
0,65,77,0
0,57,121,0
0,37,121,12
0,39,98,0
0,54,87,0
0,33,115,0
0,72,86,0
0,36,117,12
0,36,122,0
0,55,98,0
0,64,106,0
0,60,106,0
0,67,108,0
0,67,87,0
0,60,84,0
0,55,120,0
0,37,114,268
0,39,88,0
0,54,98,0
0,64,84,0
0,36,126,6
0,36,108,10
0,64,108,0
0,67,83,0
0,60,85,0
0,67,91,0
0,52,114,0
0,64,85,268
0,72,79,0
0,79,84,0
0,37,110,12
0,39,80,0
0,54,90,0
0,69,95,0
0,60,89,0
0,36,118,12
0,31,119,0
0,62,93,0
0,59,107,0
0,55,90,0
0,55,87,0
0,59,79,0
0,67,93,0
0,37,120,148
0,39,94,0
0,54,81,0
0,65,106,0
0,55,87,0
0,53,117,0
0,36,110,6
0,43,114,10
0,65,95,0
0,55,89,0
0,59,80,0
0,67,90,0
0,53,109,0
0,64,107,12
0,52,113,0
0,37,123,6
0,62,90,10
0,67,82,0
0,50,108,0
0,37,120,12
0,39,88,0
0,54,93,0
0,31,117,0
0,55,77,0
0,36,123,12
0,36,107,0
0,60,107,0
0,55,98,0
0,64,92,0
0,67,107,0
0,60,75,0
0,60,73,0
0,55,118,0
0,37,109,268
0,39,93,0
0,54,97,0
0,67,89,0
0,36,120,6
0,36,115,10
0,60,83,0
0,60,72,0
0,67,89,0
0,36,111,20
0,67,84,0
0,72,73,0
0,79,87,0
0,37,118,12
0,39,84,0
0,54,83,0
0,29,117,0
0,60,91,0
0,36,120,12
0,31,115,0
0,62,104,0
0,59,97,0
0,64,106,0
0,55,109,0
0,55,76,0
0,64,88,0
0,37,119,148
0,39,86,0
0,54,85,0
0,64,104,0
0,59,76,0
0,52,111,0
0,36,119,6
0,43,108,10
0,60,73,0
0,64,73,0
0,67,75,0
0,64,98,12
0,62,84,0
0,52,110,0
0,37,118,126
0,65,85,10
0,37,118,12
0,39,80,0
0,54,87,0
0,31,119,0
0,53,105,0
0,59,106,0
0,62,90,0
0,65,105,0
0,67,75,0
0,62,79,0
0,53,121,0
0,33,115,20
0,62,72,0
0,36,121,12
0,36,116,0
0,64,95,0
0,55,107,0
0,60,91,0
0,67,103,0
0,60,75,0
0,55,126,0
0,37,118,380
0,39,82,0
0,54,97,0
0,64,74,0
0,64,98,0
0,36,112,126
0,36,111,10
0,67,82,0
0,60,86,0
0,67,73,0
0,64,109,12
0,72,81,256
0,72,79,0
0,79,72,0
0,37,125,12
0,39,96,0
0,54,96,0
0,65,96,0
0,67,91,0
0,36,118,12
0,31,119,0
0,55,103,0
0,62,109,0
0,64,96,0
0,59,106,0
0,64,78,0
0,59,91,0
0,67,94,0
0,37,108,148
0,39,98,0
0,54,99,0
0,76,107,0
0,62,74,0
0,64,122,0
0,36,118,6
0,43,108,10
0,64,75,0
0,59,83,0
0,67,81,0
0,76,102,12
0,64,114,0
0,37,107,242
0,67,79,10
0,37,107,12
0,39,96,0
0,54,95,0
0,31,114,0
0,74,93,0
0,62,113,0
0,33,120,0
0,64,91,0
0,36,120,12
0,36,126,0
0,64,92,0
0,55,100,0
0,60,101,0
0,72,104,0
0,64,89,0
0,60,79,0
0,60,110,0
0,37,122,268
0,39,88,0
0,54,98,0
0,62,91,0
0,36,109,6
0,36,109,10
0,67,104,0
0,64,86,0
0,60,73,0
0,67,80,0
0,55,109,0
0,60,84,268
0,72,83,0
0,79,81,0
0,37,123,12
0,39,99,0
0,54,96,0
0,28,123,0
0,72,92,0
0,57,77,0
0,67,99,0
0,36,110,12
0,29,123,0
0,53,92,0
0,60,91,0
0,57,94,0
0,53,72,0
0,57,83,0
0,69,101,0
0,37,115,140
0,39,96,0
0,54,91,0
0,72,107,0
0,53,81,0
0,60,112,0
0,36,117,6
0,29,109,10
0,72,99,0
0,53,91,0
0,57,74,0
0,65,85,0
0,60,110,0
0,71,108,12
0,59,110,0
0,37,108,6
0,31,113,10
0,65,75,0
0,37,115,12
0,39,98,0
0,54,93,0
0,33,113,0
0,69,91,0
0,72,75,0
0,57,112,0
0,36,116,20
0,36,123,0
0,55,106,0
0,64,102,0
0,60,98,0
0,67,91,0
0,67,77,0
0,60,87,0
0,55,121,0
0,37,116,268
0,39,91,0
0,54,83,0
0,64,81,0
0,36,121,6
0,36,108,10
0,64,105,0
0,67,86,0
0,60,80,0
0,67,87,0
0,52,119,0
0,64,81,268
0,72,83,0
0,79,78,0
0,37,110,12
0,39,89,0
0,54,93,0
0,69,103,0
0,60,78,0
0,36,125,12
0,31,118,0
0,62,95,0
0,55,108,0
0,59,96,0
0,55,91,0
0,59,75,0
0,67,93,0
0,37,118,148
0,39,91,0
0,54,88,0
0,65,97,0
0,55,87,0
0,53,126,0
0,36,114,6
0,43,113,10
0,65,102,0
0,55,85,0
0,59,91,0
0,67,74,0
0,53,109,0
0,64,103,12
0,52,119,0
0,37,114,242
0,67,78,10
0,37,116,12
0,39,97,0
0,54,94,0
0,31,120,0
0,62,107,0
0,50,117,0
0,55,89,0
0,36,111,12
0,36,117,0
0,64,103,0
0,55,101,0
0,60,95,0
0,60,92,0
0,60,85,0
0,48,117,0
0,37,120,380
0,39,87,0
0,54,93,0
0,64,79,0
0,36,115,6
0,36,122,10
0,67,78,0
0,60,72,0
0,67,76,0
0,72,76,268
0,37,114,12
0,39,90,0
0,54,91,0
0,36,111,0
0,64,81,0
0,36,117,8
0,36,117,0
0,65,100,0
0,62,97,0
0,58,94,0
0,55,98,0
0,62,92,0
0,62,88,0
0,65,121,0
0,67,109,0
0,70,115,0
0,74,107,0
0,60,77,12
0,37,112,24
0,39,83,0
0,54,91,0
0,65,86,0
0,36,125,2
0,36,119,10
0,67,86,0
0,60,90,0
0,67,74,0
0,50,111,18
0,37,126,0
0,72,79,8
0,72,88,0
0,79,77,0
0,37,117,12
0,47,122,0
0,39,83,0
0,54,80,0
0,47,126,20
0,43,108,6
0,60,107,10
0,36,113,20
