track,note,velocity,time
0,44,127,0
0,44,127,0
0,56,100,0
0,63,100,0
0,36,127,0
0,36,0,60
0,54,64,40
0,54,0,15
0,44,0,5
0,44,0,0
0,54,64,0
0,40,64,0
0,61,100,7
0,54,0,8
0,40,0,15
0,54,64,10
0,54,0,15
0,44,127,5
0,44,127,0
0,54,64,0
0,60,100,13
0,54,0,2
0,61,0,3
0,36,127,12
0,36,0,15
0,44,0,15
0,44,0,0
0,36,127,0
0,36,0,30
0,44,127,30
0,44,127,0
0,36,127,0
0,36,0,30
0,54,64,10
0,54,0,15
0,36,96,5
0,54,64,0
0,40,64,0
0,61,127,2
0,54,0,13
0,40,0,1
0,36,0,0
0,63,127,1
0,54,64,0
0,60,0,1
0,61,0,1
0,54,0,1
0,68,127,2
0,36,127,0
0,54,64,0
0,63,0,2
0,54,0,3
0,44,0,2
0,44,0,0
0,36,0,2
0,68,0,1
0,44,127,1
0,44,127,0
0,63,127,0
0,44,0,17
0,44,0,0
0,63,0,0
0,56,0,0
0,42,127,0
0,42,127,0
0,54,100,0
0,61,100,0
0,36,127,0
0,68,127,1
0,63,0,13
0,36,0,46
0,54,64,40
0,54,0,15
0,54,64,5
0,40,64,0
0,59,100,5
0,54,0,10
0,40,0,15
0,42,0,0
0,42,0,0
0,54,64,10
0,54,0,15
0,42,127,5
0,42,127,0
0,54,64,0
0,68,0,1
0,58,100,1
0,59,0,12
0,54,0,1
0,36,127,15
0,36,0,15
0,36,127,15
0,36,0,30
0,42,0,30
0,42,0,0
0,36,127,0
0,56,100,8
0,58,0,14
0,36,0,8
0,42,127,10
0,42,127,0
0,54,64,0
0,54,0,15
0,42,0,5
0,42,0,0
0,54,127,0
0,54,127,0
0,36,96,0
0,54,64,0
0,40,64,0
0,54,0,15
0,40,0,15
0,54,0,0
0,54,0,0
0,36,0,0
0,42,127,10
0,42,127,0
0,54,64,0
0,54,0,15
0,42,0,5
0,42,0,0
0,42,127,0
0,42,127,0
0,36,127,0
0,54,64,0
0,54,0,15
0,36,0,15
0,56,0,15
0,42,0,15
0,61,0,0
0,54,0,0
0,42,0,0
0,44,127,0
0,44,127,0
0,56,100,0
0,63,100,0
0,36,127,0
0,68,127,1
0,68,0,36
0,63,127,3
0,36,0,20
0,63,0,15
0,54,64,25
0,61,100,9
0,54,0,6
0,54,64,5
0,40,64,0
0,61,127,8
0,54,0,7
0,44,0,15
0,44,0,0
0,40,0,0
0,61,0,5
0,54,64,5
0,59,127,4
0,54,0,11
0,44,127,5
0,44,127,0
0,54,64,0
0,54,0,15
0,59,0,0
0,36,127,15
0,36,0,15
0,63,100,15
0,36,127,0
0,54,127,2
0,61,0,1
0,36,0,1
0,56,127,0
0,54,0,1
0,59,127,0
0,36,127,2
0,56,0,7
0,44,0,13
0,44,0,0
0,59,0,7
0,36,0,3
0,44,127,10
0,44,127,0
0,54,64,0
0,54,0,15
0,61,127,2
0,44,0,3
0,44,0,0
0,56,127,0
0,56,127,0
0,36,96,0
0,54,64,0
0,40,64,0
0,54,0,15
0,56,0,5
0,56,0,0
0,40,0,10
0,36,0,0
0,56,127,10
0,56,127,0
0,54,64,0
0,63,127,4
0,61,0,5
0,54,0,6
0,56,0,5
0,56,0,0
0,44,127,0
0,44,127,0
0,36,127,0
0,54,64,0
0,66,127,6
0,63,0,5
0,54,0,4
0,44,0,5
0,44,0,0
0,63,0,8
0,36,0,2
0,66,0,2
0,61,127,18
0,63,0,10
0,56,0,0
0,42,127,0
0,42,127,0
0,61,100,0
0,54,100,0
0,36,127,0
0,36,0,60
0,61,0,2
0,59,127,0
0,54,64,38
0,59,0,6
0,54,0,9
0,59,127,3
0,54,64,2
0,40,64,0
0,54,0,15
0,59,0,12
0,42,0,3
0,42,0,0
0,40,0,0
0,56,127,4
0,54,64,6
0,54,0,15
0,42,127,5
0,42,127,0
0,54,64,0
0,54,100,3
0,56,0,10
0,54,0,2
0,36,127,15
0,36,0,15
0,54,127,12
0,36,127,3
0,36,0,30
0,56,127,5
0,54,0,9
0,36,127,16
0,56,100,7
0,42,0,8
0,42,0,0
0,54,0,8
0,36,0,7
0,54,64,10
0,54,0,15
0,42,127,5
0,42,127,0
0,36,96,0
0,54,64,0
0,40,64,0
0,54,0,15
0,40,0,15
0,36,0,0
0,56,0,5
0,54,64,5
0,54,0,15
0,36,127,5
0,54,64,0
0,59,127,3
0,54,0,12
0,36,0,15
0,42,0,0
0,42,0,0
0,59,0,13
0,56,127,0
0,61,0,17
0,54,0,0
0,44,127,0
0,44,127,0
0,56,100,0
0,63,100,0
0,36,127,0
0,56,0,22
0,56,0,4
0,36,0,34
0,68,127,0
0,68,0,20
0,68,127,16
0,54,64,4
0,54,0,15
0,54,64,5
0,40,64,0
0,68,0,2
0,65,127,6
0,54,0,7
0,44,0,15
0,44,0,0
0,40,0,0
0,54,64,10
0,54,0,15
0,44,127,0
0,44,127,0
0,54,64,0
0,63,127,5
0,54,0,7
0,65,0,9
0,36,127,4
0,36,0,2
0,36,127,2
0,36,0,2
0,36,127,0
0,63,0,4
0,44,0,4
0,44,0,0
0,36,0,9
0,44,127,10
0,44,127,0
0,54,64,0
0,54,0,15
0,44,0,5
0,44,0,0
0,56,127,0
0,56,127,0
0,36,96,0
0,54,64,0
0,40,64,0
0,54,0,15
0,56,0,5
0,56,0,0
0,36,0,10
0,40,0,0
0,56,127,10
0,56,127,0
0,54,64,0
0,68,127,5
0,54,0,10
0,58,100,4
0,56,0,1
0,56,0,0
0,44,127,0
0,44,127,0
0,36,127,0
0,54,64,0
0,68,0,12
0,54,0,3
0,36,0,15
0,58,0,7
0,60,100,5
0,44,0,18
0,56,0,0
0,63,0,0
0,44,0,0
0,42,127,0
0,42,127,0
0,54,100,0
0,61,100,0
0,36,127,0
0,61,127,4
0,60,0,5
0,61,0,18
0,36,0,33
0,61,127,1
0,61,0,18
0,61,127,19
0,54,64,2
0,61,0,14
0,54,0,1
0,54,64,5
0,40,64,0
0,61,127,3
0,54,0,12
0,42,0,5
0,42,0,0
0,40,0,10
0,61,0,1
0,54,64,9
0,54,0,15
0,42,127,5
0,42,127,0
0,54,64,0
0,61,127,4
0,54,0,11
0,61,0,14
0,36,127,1
0,36,0,15
0,61,127,15
0,36,127,0
0,61,0,25
0,36,0,5
0,60,127,7
0,60,0,21
0,42,0,2
0,42,0,0
0,36,127,0
0,58,127,4
0,58,0,21
0,36,0,5
0,49,127,10
0,49,127,0
0,54,64,0
0,56,127,1
0,54,0,14
0,49,0,5
0,49,0,0
0,54,127,0
0,54,127,0
0,36,96,0
0,54,64,0
0,40,64,0
0,56,0,11
0,54,0,4
0,54,0,5
0,54,0,0
0,40,0,10
0,36,0,0
0,49,127,10
0,49,127,0
0,54,64,0
0,54,0,15
0,49,0,5
0,49,0,0
0,42,127,0
0,42,127,0
0,36,127,0
0,54,64,0
0,54,0,15
0,36,0,15
0,56,100,1
0,58,127,24
0,56,0,3
0,42,0,2
0,42,0,0
0,61,0,0
0,54,0,0
0,44,127,0
0,44,127,0
0,63,100,0
0,56,100,0
0,36,127,0
0,58,0,20
0,60,127,20
0,60,0,14
0,36,0,6
0,60,127,4
0,60,0,19
0,54,64,17
0,54,0,15
0,54,64,5
0,40,64,0
0,44,0,12
0,44,0,0
0,54,0,3
0,40,0,15
0,54,64,10
0,54,0,15
0,44,127,5
0,44,127,0
0,54,64,0
0,68,127,6
0,54,0,9
0,36,127,15
0,63,127,10
0,36,0,5
0,68,0,0
0,36,127,15
0,63,0,2
0,36,0,28
0,36,127,30
0,36,0,30
0,44,0,10
0,44,0,0
0,51,127,0
0,51,127,0
0,54,64,0
0,54,0,15
0,56,127,5
0,56,127,0
0,36,96,0
0,54,64,0
0,40,64,0
0,51,0,10
0,51,0,0
0,54,0,5
0,56,0,5
0,56,0,0
0,36,0,10
0,40,0,0
0,56,127,10
0,56,127,0
0,54,64,0
0,54,0,15
0,36,127,5
0,54,64,0
0,56,80,2
0,56,0,8
0,56,0,0
0,54,0,5
0,36,0,15
0,56,0,22
0,63,0,8
0,56,0,0
0,42,127,0
0,42,127,0
0,54,100,0
0,61,100,0
0,36,127,0
0,36,0,60
0,54,64,40
0,54,0,15
0,54,64,5
0,40,64,0
0,54,0,15
0,42,0,15
0,42,0,0
0,40,0,0
0,54,64,10
0,54,0,15
0,42,127,5
0,42,127,0
0,54,64,0
0,58,100,6
0,54,0,9
0,36,127,15
0,58,0,9
0,36,0,6
0,36,127,15
0,36,0,30
0,36,127,30
0,36,0,30
0,54,64,10
0,42,0,5
0,42,0,0
0,54,0,10
0,54,127,5
0,54,127,0
0,36,96,0
0,54,64,0
0,40,64,0
0,56,80,5
0,54,0,10
0,54,0,15
0,36,0,0
0,54,0,0
0,40,0,0
0,49,127,10
0,49,127,0
0,54,64,0
0,54,0,15
0,49,0,5
0,49,0,0
0,42,127,0
0,42,127,0
0,36,127,0
0,54,64,0
0,56,0,1
0,59,100,8
0,54,0,6
0,36,0,15
0,61,100,7
0,59,0,15
0,42,0,8
0,42,0,0
0,61,0,0
0,54,0,0
0,44,127,0
0,44,127,0
0,63,100,0
0,56,100,0
0,36,127,0
0,61,0,50
0,36,0,10
0,54,64,40
0,65,100,4
0,54,0,11
0,54,64,5
0,40,64,0
0,54,0,15
0,44,0,15
0,44,0,0
0,40,0,0
0,54,64,10
0,63,100,9
0,54,0,6
0,44,127,5
0,44,127,0
0,54,64,0
0,65,0,2
0,54,0,13
0,36,127,15
0,36,0,15
0,68,127,9
0,36,127,6
0,63,0,9
0,44,0,21
0,44,0,0
0,36,0,0
0,44,127,30
0,44,127,0
0,36,127,0
0,36,0,30
0,54,64,10
0,68,0,11
0,54,0,4
0,36,96,5
0,54,64,0
0,40,64,0
0,54,0,15
0,36,0,15
0,40,0,0
0,54,64,10
0,58,100,12
0,54,0,3
0,36,127,5
0,54,64,0
0,54,0,15
0,44,0,0
0,44,0,0
0,58,0,12
0,60,100,1
0,36,0,2
0,44,127,10
0,44,127,0
0,61,127,16
0,44,0,4
0,44,0,0
0,56,0,0
0,63,0,0
0,42,127,0
0,42,127,0
0,61,100,0
0,54,100,0
0,36,127,0
0,60,0,7
0,61,0,16
0,61,127,29
0,36,0,8
0,61,0,12
0,61,127,16
0,54,64,12
0,61,0,5
0,61,127,7
0,54,0,3
0,42,0,5
0,42,0,0
0,54,64,0
0,40,64,0
0,54,0,15
0,61,0,12
0,40,0,3
0,54,64,10
0,61,127,12
0,54,0,3
0,42,127,5
0,42,127,0
0,54,64,0
0,54,0,15
0,61,0,9
0,36,127,6
0,36,0,15
0,61,127,6
0,36,127,9
0,60,127,27
0,36,0,3
0,61,0,7
0,58,127,11
0,60,0,4
0,36,127,8
0,42,0,15
0,42,0,0
0,36,0,15
0,49,127,10
0,49,127,0
0,54,64,0
0,56,127,4
0,58,0,8
0,54,0,3
0,49,0,5
0,49,0,0
0,54,127,0
0,54,127,0
0,36,96,0
0,54,64,0
0,40,64,0
0,54,0,15
0,40,0,15
0,54,0,0
0,54,0,0
0,36,0,0
0,54,127,10
0,54,127,0
0,54,64,0
0,58,127,8
0,56,0,5
0,54,0,2
0,54,0,5
0,54,0,0
0,42,127,0
0,42,127,0
0,36,127,0
0,54,64,0
0,54,0,15
0,58,0,12
0,60,127,1
0,36,0,2
0,60,0,22
0,60,127,6
0,42,0,2
0,42,0,0
0,54,0,0
0,61,0,0
0,44,127,0
0,44,127,0
0,56,100,0
0,63,100,0
0,36,127,0
0,61,127,32
0,60,0,6
0,36,0,22
0,60,127,5
0,61,0,9
0,54,64,26
0,54,0,15
0,54,64,5
0,40,64,0
0,54,0,15
0,44,0,0
0,44,0,0
0,40,0,15
0,54,64,10
0,54,0,15
0,44,127,5
0,44,127,0
0,54,64,0
0,63,127,4
0,54,0,11
0,60,0,7
0,36,127,8
0,36,0,15
0,36,127,15
0,36,0,30
0,36,127,30
0,36,0,30
0,44,0,0
0,44,0,0
0,51,127,10
0,51,127,0
0,54,64,0
0,54,0,15
0,51,0,5
0,51,0,0
0,56,127,0
0,56,127,0
0,36,96,0
0,54,64,0
0,40,64,0
0,61,100,3
0,54,0,12
0,40,0,15
0,56,0,0
0,56,0,0
0,36,0,0
0,63,100,2
0,56,127,8
0,56,127,0
0,54,64,0
0,54,0,15
0,68,100,4
0,56,0,1
0,56,0,0
0,61,0,0
0,44,127,0
0,44,127,0
0,36,127,0
0,54,64,0
0,54,0,15
0,36,0,15
0,68,0,5
0,63,0,6
0,63,0,3
0,68,127,11
0,63,127,1
0,44,0,4
0,56,0,0
0,63,0,0
0,44,0,0
0,42,127,0
0,42,127,0
0,61,100,0
0,54,100,0
0,36,127,0
0,36,0,60
0,54,64,40
0,54,0,15
0,54,64,5
0,40,64,0
0,54,0,15
0,40,0,15
0,42,0,0
0,42,0,0
0,54,100,8
0,54,64,2
0,54,0,15
0,42,127,5
0,42,127,0
0,54,64,0
0,54,0,15
0,36,127,15
0,36,0,15
0,36,127,15
0,36,0,30
0,42,0,0
0,42,0,0
0,56,100,3
0,54,0,10
0,42,127,17
0,42,127,0
0,36,127,0
0,36,0,30
0,54,64,10
0,54,0,15
0,36,96,5
0,54,64,0
0,40,64,0
0,68,0,8
0,63,0,3
0,54,0,4
0,36,0,15
0,40,0,0
0,54,64,10
0,56,0,11
0,54,0,4
0,36,127,5
0,54,64,0
0,54,0,15
0,36,0,15
0,42,0,17
0,42,0,0
0,54,0,13
0,61,0,0
0,49,127,0
0,49,127,0
0,56,100,0
0,61,100,0
0,36,127,0
0,56,100,4
0,54,100,1
0,61,100,35
0,36,0,20
0,56,0,16
0,54,64,24
0,56,100,1
0,65,127,1
0,54,0,13
0,54,64,5
0,40,64,0
0,63,100,9
0,68,100,1
0,54,0,5
0,40,0,15
0,54,64,10
0,49,0,5
0,49,0,0
0,66,127,3
0,54,0,7
0,65,0,5
0,49,127,0
0,49,127,0
0,54,64,0
0,54,0,15
0,49,0,15
0,49,0,0
0,36,127,0
0,36,0,15
0,49,127,15
0,49,127,0
0,36,127,0
0,36,0,30
0,65,127,22
0,36,127,8
0,66,0,13
0,36,0,17
0,54,64,10
0,63,100,9
0,54,0,6
0,65,0,3
0,36,96,2
0,54,64,0
0,40,64,0
0,54,0,15
0,63,0,11
0,36,0,4
0,49,0,0
0,49,0,0
0,40,0,0
0,54,64,10
0,63,127,12
0,54,0,3
0,49,127,5
0,49,127,0
0,36,127,0
0,54,64,0
0,54,0,15
0,36,0,15
0,50,127,10
0,50,127,0
0,63,0,18
0,50,0,2
0,49,0,0
0,68,0,0
0,61,0,0
0,49,0,0
0,50,0,0
0,56,0,0
0,51,127,0
0,51,127,0
0,63,100,0
0,58,100,0
0,36,127,0
0,54,0,2
0,61,0,0
0,56,0,1
0,36,0,57
0,54,64,40
0,54,0,15
0,54,64,5
0,40,64,0
0,63,0,5
0,54,0,10
0,40,0,15
0,54,64,10
0,54,0,15
0,63,100,4
0,63,100,0
0,51,0,1
0,51,0,0
0,39,127,0
0,39,127,0
0,54,64,0
0,54,0,15
0,63,0,2
0,63,0,1
0,63,100,10
0,36,127,2
0,63,100,2
0,63,0,11
0,36,0,2
0,63,0,2
0,63,100,6
0,63,100,7
0,36,127,0
0,63,0,16
0,63,0,10
0,60,100,0
0,36,0,4
0,60,100,6
0,51,127,24
0,51,127,0
0,36,127,0
0,60,0,14
0,39,0,1
0,39,0,0
0,60,0,2
0,58,100,5
0,58,100,7
0,36,0,1
0,54,64,10
0,54,0,15
0,36,96,5
0,54,64,0
0,40,64,0
0,54,0,15
0,58,0,0
0,60,100,5
0,58,0,8
0,60,100,0
0,40,0,2
0,36,0,0
0,54,64,10
0,54,0,15
0,36,127,5
0,54,64,0
0,54,0,15
0,60,0,7
0,56,100,6
0,36,0,2
0,56,100,0
0,60,0,5
0,51,0,5
0,51,0,0
0,58,0,20
0,63,0,0
0,49,127,0
0,49,127,0
0,56,100,0
0,61,100,0
