track,note,velocity,time
0,47,86,0
0,66,87,0
0,54,79,0
0,59,86,0
0,47,84,0
0,69,79,93
0,76,76,0
0,69,58,1
0,76,56,0
0,45,80,17
0,57,80,0
0,64,80,0
0,52,80,0
0,45,80,0
0,76,77,144
0,69,79,0
0,76,57,2
0,69,59,0
0,66,86,20
0,59,86,0
0,54,86,0
0,47,86,1
0,47,87,1
0,76,74,96
0,69,77,0
0,76,54,2
0,69,57,0
0,45,89,14
0,45,78,3
0,64,78,1
0,57,78,0
0,52,78,0
0,69,80,145
0,76,79,0
0,69,60,2
0,76,58,0
0,54,92,20
0,66,90,1
0,59,90,0
0,47,90,0
0,47,90,1
0,76,76,94
0,69,76,0
0,76,56,2
0,69,56,0
0,45,82,10
0,52,79,1
0,45,79,1
0,57,79,0
0,64,79,0
0,76,77,144
0,69,82,0
0,76,57,2
0,69,61,0
0,66,87,18
0,54,87,0
0,59,87,0
0,47,87,0
0,47,89,1
0,76,77,97
0,69,76,0
0,76,57,2
0,69,56,0
0,52,76,10
0,45,92,1
0,64,76,0
0,57,76,0
0,45,76,0
0,69,79,144
0,76,79,0
0,69,58,2
0,76,59,0
0,47,88,20
0,66,87,0
0,54,82,0
0,59,87,1
0,47,74,0
0,76,79,96
0,69,79,0
0,76,59,2
0,69,58,0
0,45,91,15
0,57,76,0
0,64,76,0
0,52,76,0
0,45,76,0
0,69,79,144
0,76,77,0
0,69,58,2
0,76,57,0
0,54,80,21
0,59,87,0
0,66,88,0
0,47,85,1
0,47,71,1
0,76,79,96
0,69,76,0
0,76,58,2
0,69,56,0
0,45,92,9
0,64,79,0
0,57,79,0
0,52,79,0
0,45,79,0
0,76,75,144
0,69,70,0
0,76,55,2
0,69,51,0
0,54,90,23
0,66,90,0
0,47,95,1
0,59,90,0
0,47,90,1
0,76,73,96
0,69,79,0
0,76,54,2
0,69,59,0
0,45,91,8
0,64,77,0
0,52,77,0
0,57,77,0
0,45,77,0
0,76,63,144
0,69,76,0
0,76,45,2
0,69,56,0
0,59,86,18
0,66,86,0
0,54,86,0
0,47,89,1
0,47,86,0
0,76,75,97
0,69,76,0
0,76,55,2
0,69,56,0
0,45,95,8
0,57,76,0
0,64,76,0
0,52,76,0
0,45,76,0
0,76,77,143
0,69,74,0
0,69,106,0
0,76,57,0
0,69,54,0
0,71,98,0
0,73,93,0
0,47,88,1
0,66,87,0
0,54,82,0
0,59,87,1
0,47,74,0
0,74,87,0
0,76,88,0
0,76,79,2
0,69,79,0
0,76,59,2
0,69,58,0
0,59,75,14
0,45,91,1
0,57,75,0
0,64,75,0
0,52,75,0
0,45,75,0
0,76,88,0
0,69,96,0
0,71,87,0
0,69,79,2
0,76,77,0
0,69,58,2
0,76,57,0
0,74,102,0
0,54,80,21
0,59,87,0
0,66,88,0
0,47,85,1
0,47,71,1
0,78,110,0
0,76,79,1
0,69,76,0
0,76,58,2
0,69,56,0
0,76,92,0
0,59,74,1
0,45,92,1
0,64,74,0
0,57,74,0
0,52,74,0
0,45,74,0
0,76,75,144
0,69,70,0
0,76,55,2
0,69,51,0
0,54,90,23
0,66,90,0
0,47,95,1
0,59,90,0
0,47,90,1
0,76,73,37
0,69,79,0
0,76,54,2
0,69,59,0
0,59,79,7
0,45,91,1
0,64,79,0
0,52,79,0
0,57,79,0
0,45,79,0
0,76,63,144
0,69,76,0
0,76,45,2
0,69,56,0
0,59,86,18
0,66,86,0
0,54,86,0
0,47,89,1
0,47,86,0
0,76,75,97
0,69,76,0
0,76,55,2
0,69,56,0
0,59,77,7
0,45,95,1
0,57,77,0
0,64,77,0
0,52,77,0
0,45,77,0
0,69,103,0
0,76,77,1
0,69,74,0
0,76,57,2
0,69,54,0
0,71,96,0
0,73,86,0
0,43,100,1
0,50,88,1
0,43,88,0
0,59,88,0
0,66,88,0
0,76,102,0
0,76,79,50
0,69,79,0
0,76,59,2
0,69,58,0
0,45,97,9
0,76,98,0
0,52,75,0
0,45,75,0
0,64,75,0
0,57,75,0
0,69,88,0
0,71,89,1
0,69,79,2
0,76,77,0
0,69,58,2
0,76,57,0
0,74,100,0
0,43,99,16
0,59,89,0
0,66,89,0
0,50,89,0
0,43,89,0
0,78,109,0
0,76,79,2
0,69,76,0
0,76,58,2
0,69,56,0
0,76,92,0
0,45,102,1
0,45,79,0
0,52,79,1
0,57,79,0
0,64,79,0
0,76,75,143
0,69,70,0
0,76,55,2
0,69,51,0
0,42,83,1
0,37,83,1
0,54,91,0
0,42,91,0
0,49,91,0
0,59,91,1
0,66,91,0
0,76,73,96
0,69,79,0
0,76,54,2
0,69,59,0
0,42,75,9
0,37,81,2
0,54,80,0
0,49,80,0
0,42,80,0
0,59,80,0
0,64,80,0
0,76,63,144
0,69,76,0
0,76,45,2
0,69,56,0
0,47,80,8
0,66,92,0
0,43,92,0
0,43,80,1
0,50,92,0
0,55,92,0
0,59,92,0
0,76,75,97
0,69,76,0
0,76,55,2
0,69,56,0
0,47,80,11
0,43,80,1
0,55,79,0
0,64,79,0
0,43,79,0
0,59,79,0
0,50,79,0
0,69,106,0
0,76,77,1
0,69,74,0
0,76,57,2
0,69,54,0
0,71,100,0
0,73,105,0
0,47,88,1
0,66,98,0
0,54,98,0
0,59,98,1
0,47,98,0
0,76,103,0
0,76,79,48
0,69,79,0
0,76,59,2
0,69,58,0
0,76,114,0
0,59,87,1
0,45,91,1
0,57,87,0
0,64,87,0
0,52,87,0
0,45,87,0
0,69,91,0
0,71,88,0
0,69,79,2
0,76,77,0
0,69,58,2
0,76,57,0
0,74,96,0
0,54,97,21
0,59,97,0
0,66,97,0
0,47,85,1
0,47,97,1
0,78,109,0
0,76,79,2
0,69,76,0
0,76,58,2
0,69,56,0
0,59,85,8
0,45,92,1
0,64,85,0
0,57,85,0
0,52,85,0
0,45,85,0
0,76,103,0
0,76,75,97
0,69,70,0
0,76,55,2
0,69,51,0
0,54,100,23
0,66,100,0
0,47,95,1
0,59,100,0
0,47,100,1
0,76,73,46
0,69,79,0
0,76,54,2
0,69,59,0
0,59,83,7
0,45,91,1
0,64,83,0
0,52,83,0
0,57,83,0
0,45,83,0
0,76,63,144
0,69,76,0
0,76,45,2
0,69,56,0
0,59,98,18
0,66,98,0
0,54,98,0
0,47,89,1
0,47,98,0
0,76,75,97
0,69,76,0
0,76,55,2
0,69,56,0
0,59,83,7
0,45,95,1
0,57,83,0
0,64,83,0
0,52,83,0
0,45,83,0
0,76,77,143
0,69,74,0
0,69,106,0
0,76,57,1
0,69,54,0
0,71,106,0
0,73,99,0
0,43,100,0
0,50,93,1
0,43,93,0
0,59,93,0
0,66,93,0
0,76,105,0
0,76,79,46
0,69,79,0
0,76,59,2
0,69,58,0
0,45,97,9
0,76,112,0
0,52,85,0
0,45,85,0
0,64,85,0
0,57,85,0
0,69,95,0
0,71,98,0
0,69,79,2
0,76,77,0
0,69,58,1
0,76,57,0
0,74,96,0
0,43,99,16
0,59,91,0
0,66,91,0
0,50,91,0
0,43,91,0
0,78,99,0
0,76,79,50
0,69,76,0
0,76,58,2
0,69,56,0
0,76,106,0
0,45,102,2
0,45,85,0
0,52,85,1
0,57,85,0
0,64,85,0
0,76,75,143
0,69,70,0
0,76,55,2
0,69,51,0
0,42,83,5
0,37,83,1
0,54,92,0
0,42,92,0
0,49,92,0
0,59,92,1
0,66,92,0
0,76,73,96
0,69,79,0
0,76,54,2
0,69,59,0
0,42,75,9
0,37,81,2
0,54,83,0
0,49,83,0
0,42,83,0
0,59,83,0
0,64,83,0
0,76,63,144
0,69,76,0
0,76,45,2
0,69,56,0
0,47,80,8
0,66,93,0
0,43,93,0
0,43,80,1
0,50,93,0
0,55,93,0
0,59,93,0
0,76,75,97
0,69,76,0
0,76,55,2
0,69,56,0
0,47,80,11
0,43,80,1
0,55,84,0
0,64,84,0
0,43,84,0
0,59,84,0
0,50,84,0
0,69,110,0
0,71,100,0
0,45,85,0
0,45,100,0
0,57,100,0
0,62,100,0
0,38,100,0
0,73,99,0
0,38,110,0
0,74,70,0
0,69,70,0
0,74,51,2
0,69,51,0
0,74,89,0
0,73,101,0
0,69,71,1
0,74,71,0
0,69,52,2
0,74,52,0
0,74,91,0
0,47,83,1
0,40,107,1
0,40,90,0
0,61,90,0
0,57,90,0
0,47,90,0
0,69,70,39
0,74,70,0
0,69,51,2
0,74,51,0
0,69,92,0
0,71,98,0
0,69,72,0
0,74,72,0
0,69,53,2
0,74,53,0
0,73,90,0
0,69,72,0
0,74,72,0
0,42,109,1
0,49,78,0
0,42,99,0
0,62,99,0
0,57,99,0
0,49,99,0
0,74,95,0
0,69,53,0
0,74,53,0
0,73,105,0
0,74,70,0
0,69,73,0
0,74,51,2
0,69,54,0
0,43,104,1
0,50,83,0
0,55,90,0
0,57,90,0
0,50,90,0
0,59,90,0
0,43,90,0
0,71,99,0
0,69,68,1
0,74,70,0
0,69,49,2
0,74,51,0
0,69,70,20
0,69,103,0
0,74,70,0
0,69,51,1
0,74,51,1
0,71,95,0
0,38,104,0
0,69,73,0
0,73,93,0
0,45,82,0
0,62,99,0
0,57,99,0
0,38,99,0
0,74,73,0
0,45,99,1
0,69,54,0
0,74,54,1
0,74,89,0
0,73,97,0
0,69,74,1
0,74,74,0
0,69,54,2
0,74,54,0
0,74,98,0
0,40,107,1
0,47,82,0
0,40,92,0
0,47,92,0
0,61,92,0
0,57,92,0
0,74,74,40
0,69,74,0
0,74,54,2
0,69,54,0
0,69,96,0
0,71,94,0
0,74,73,2
0,69,70,0
0,74,54,2
0,69,51,0
0,73,92,0
0,49,83,0
0,69,71,1
0,74,71,0
0,74,102,0
0,42,111,1
0,62,97,0
0,57,97,0
0,42,97,0
0,49,97,0
0,69,52,0
0,74,52,0
0,73,97,0
0,74,70,0
0,69,70,0
0,74,51,2
0,69,51,0
0,50,83,12
0,50,85,0
0,57,85,0
0,55,85,0
0,59,85,0
0,43,85,0
0,43,114,1
0,71,102,0
0,69,70,1
0,74,69,0
0,69,51,2
0,74,50,0
0,69,102,0
0,69,70,2
0,74,70,0
0,69,51,2
0,74,51,0
0,71,100,0
0,38,97,1
0,57,100,0
0,73,97,0
0,45,85,0
0,62,100,0
0,45,100,1
0,38,100,0
0,74,70,0
0,69,70,0
0,74,51,2
0,69,51,0
0,74,89,0
0,73,86,0
0,69,71,2
0,74,71,0
0,69,52,2
0,74,52,0
0,74,88,0
0,40,107,0
0,47,80,1
0,40,89,1
0,47,89,0
0,61,89,0
0,57,89,0
0,69,70,39
0,74,70,0
0,69,51,2
0,74,51,0
0,69,98,0
0,71,94,0
0,69,72,2
0,74,72,0
0,69,53,2
0,74,53,0
0,73,93,0
0,49,84,0
0,57,96,1
0,49,96,0
0,42,96,0
0,62,96,0
0,74,99,0
0,69,72,0
0,74,72,0
0,42,111,1
0,69,53,1
0,74,53,0
0,73,97,0
0,74,70,0
0,69,73,0
0,74,51,2
0,69,54,0
0,43,104,3
0,50,89,0
0,57,89,0
0,59,89,0
0,43,89,0
0,55,89,0
0,50,82,4
0,71,103,0
0,69,68,0
0,74,70,0
0,69,49,2
0,74,51,0
0,69,70,18
0,69,105,0
0,74,70,0
0,69,51,1
0,74,51,1
0,71,102,0
0,69,73,10
0,73,92,0
0,45,78,0
0,62,99,0
0,57,99,0
0,74,73,0
0,38,106,1
0,45,99,0
0,38,99,0
0,69,54,0
0,74,54,1
0,74,83,0
0,73,97,0
0,69,74,2
0,74,74,0
0,69,54,2
0,74,54,0
0,74,94,0
0,47,80,1
0,40,104,1
0,40,91,0
0,61,91,0
0,57,91,0
0,47,91,0
0,74,74,40
0,69,74,0
0,74,54,2
0,69,54,0
0,69,103,0
0,71,95,0
0,74,73,2
0,69,70,0
0,74,54,2
0,69,51,0
0,73,90,0
0,49,99,1
0,57,99,0
0,69,71,0
0,74,71,0
0,74,98,0
0,49,70,0
0,42,103,0
0,42,99,0
0,62,99,0
0,69,52,1
0,74,52,0
0,73,99,0
0,43,107,1
0,50,77,2
0,59,88,0
0,57,88,0
0,50,88,0
0,43,88,0
0,55,88,0
0,71,88,0
0,69,70,1
0,74,69,0
0,69,51,2
0,74,50,0
0,69,114,0
0,69,88,2
0,69,62,0
0,71,118,0
0,40,123,0
0,71,79,0
0,71,53,0
0,73,87,0
0,42,112,1
0,35,122,0
0,69,77,0
0,69,51,0
0,73,82,0
0,73,56,0
0,74,100,0
0,69,53,0
0,74,68,0
0,69,27,0
0,74,42,0
0,36,89,1
0,42,32,0
0,35,95,0
0,40,123,1
0,69,81,0
0,69,55,0
0,42,107,0
0,35,118,0
0,76,78,0
0,76,52,0
0,76,96,0
0,35,100,15
0,69,45,0
0,69,19,0
0,36,96,1
0,42,49,0
0,35,120,18
0,69,67,0
0,69,41,0
0,42,115,1
0,76,116,0
0,76,85,0
0,76,59,0
0,33,106,13
0,69,50,0
0,69,24,0
0,36,94,1
0,42,38,0
0,69,100,0
0,71,105,0
0,40,123,0
0,69,76,0
0,71,79,0
0,69,50,0
0,71,53,0
0,42,112,0
0,74,114,0
0,69,56,0
0,69,30,0
0,36,91,1
0,42,32,0
0,74,76,0
0,74,50,0
0,35,127,0
0,69,62,0
0,69,36,0
0,42,103,1
0,71,76,0
0,71,50,0
0,35,120,18
0,74,79,0
0,74,53,0
0,36,89,1
0,42,44,0
0,69,41,0
0,69,15,0
0,40,123,7
0,69,77,0
0,69,51,0
0,42,115,0
0,78,115,0
0,76,77,0
0,76,51,0
0,35,100,19
0,69,48,0
0,69,22,0
0,36,96,1
0,42,57,0
0,76,106,0
0,35,112,17
0,76,83,0
0,76,57,0
0,46,103,1
0,69,55,0
0,69,29,0
0,33,110,11
0,36,94,1
0,69,61,0
0,69,35,0
0,40,123,24
0,33,116,0
0,46,106,0
0,69,74,0
0,76,93,0
0,69,48,0
0,76,67,0
0,36,91,11
0,71,75,0
0,71,49,0
0,69,71,0
0,69,45,0
0,64,72,0
0,57,66,0
0,61,103,0
0,42,78,0
0,69,55,0
0,69,29,0
0,35,126,0
0,73,82,0
0,73,56,0
0,74,68,0
0,74,42,0
0,64,109,0
0,57,69,0
0,36,89,0
0,42,42,0
0,35,96,0
0,69,56,0
0,69,30,0
0,40,123,14
0,35,124,0
0,42,103,0
0,69,97,0
0,76,78,0
0,69,71,0
0,76,52,0
0,35,97,0
0,64,70,0
0,57,62,0
0,61,103,0
0,36,96,0
0,42,49,0
0,69,55,0
0,69,29,0
0,35,116,13
0,42,97,1
0,69,71,0
0,69,45,0
0,76,85,0
0,76,59,0
0,69,72,0
0,69,46,0
0,57,72,0
0,64,71,0
0,59,99,0
0,36,94,0
0,42,52,0
0,33,124,0
0,40,120,15
0,71,79,0
0,71,53,0
0,42,109,0
0,69,77,0
0,69,51,0
0,69,71,0
0,69,45,0
0,64,63,0
0,57,93,0
0,36,91,0
0,42,89,0
0,74,76,0
0,74,50,0
0,35,127,0
0,69,74,0
0,69,48,0
0,42,87,1
0,71,76,0
0,71,50,0
0,74,79,24
0,74,53,0
0,36,89,1
0,42,37,0
0,69,61,0
0,69,35,0
0,40,123,15
0,69,78,0
0,69,52,0
0,42,106,0
0,76,77,0
0,76,51,0
0,35,118,33
0,36,96,1
0,42,77,0
0,48,66,3
0,48,95,15
0,48,123,15
0,69,59,0
0,76,83,0
0,69,33,0
0,76,57,0
0,35,120,1
0,36,94,7
0,33,116,0
0,40,123,14
0,69,101,0
0,69,75,0
0,55,103,0
0,33,120,0
0,69,112,0
0,76,93,0
0,76,67,0
0,71,110,0
0,36,91,0
0,71,75,0
0,71,49,0
0,73,99,0
0,69,77,1
0,69,51,0
0,42,123,1
0,31,127,0
0,73,82,0
0,73,56,0
0,76,108,0
0,31,103,0
0,69,53,0
0,74,68,0
0,69,27,0
0,74,42,0
0,36,89,1
0,42,54,0
0,40,123,14
0,31,126,0
0,69,81,0
0,69,55,0
0,76,78,0
0,76,52,0
0,42,115,1
0,31,120,10
0,69,45,0
0,69,19,0
