track,note,velocity,time
1,33,82,1692
1,33,73,132
1,33,82,98
1,33,78,166
1,33,73,116
1,33,78,92
1,33,82,198
1,33,78,104
1,33,82,78
1,30,80,96
1,30,68,96
1,30,76,100
1,28,83,178
1,28,78,98
1,28,80,88
1,28,83,120
1,28,78,98
1,28,80,88
1,33,82,120
1,30,78,36
1,28,71,12
1,33,83,28
1,30,80,54
1,28,66,38
1,33,82,44
1,30,80,74
1,28,73,44
1,33,80,30
1,28,83,12
1,30,76,2
1,28,12,96
1,40,81,6
1,28,77,2
1,40,84,68
1,28,60,2
1,40,77,60
1,28,67,2
1,40,95,2
1,28,77,2
1,40,81,28
1,28,70,2
1,40,77,44
1,28,102,2
1,40,91,2
1,35,95,2
1,37,70,2
1,26,91,2
1,38,91,2
1,26,91,42
1,38,98,44
1,26,88,2
1,38,98,32
1,37,91,2
1,35,91,12
1,33,77,2
1,33,112,108
1,28,77,12
1,30,91,6
1,33,84,2
1,33,105,112
1,30,77,2
1,33,81,2
1,28,88,20
1,40,81,6
1,28,77,2
1,40,84,68
1,28,60,2
1,40,77,60
1,28,67,2
1,40,95,2
1,26,91,2
1,38,91,2
1,26,91,42
1,38,98,44
1,26,88,2
1,38,98,32
1,37,91,2
1,35,91,12
1,33,77,2
1,33,112,108
1,28,77,12
1,30,91,6
1,33,84,2
1,33,105,112
1,30,77,2
1,33,81,2
1,33,77,20
1,33,112,108
1,28,77,12
1,30,91,6
1,33,84,2
1,33,105,112
1,30,77,2
1,33,81,2
1,28,88,20
1,40,81,6
1,28,77,2
1,40,84,68
1,28,60,2
1,40,77,60
1,35,67,2
1,37,84,2
1,28,77,2
1,40,81,28
1,28,70,2
1,40,77,44
1,28,102,2
1,40,91,2
1,35,95,2
1,37,70,2
1,26,91,2
1,38,91,2
1,26,91,42
1,38,98,44
1,26,88,2
1,38,98,32
1,37,91,2
1,35,91,12
1,33,77,2
1,33,112,108
1,28,77,12
1,30,91,6
1,33,84,2
1,33,105,112
1,30,77,2
1,33,81,2
1,35,79,20
1,35,91,102
1,30,77,8
1,32,84,8
1,35,79,8
1,35,91,102
1,30,77,2
1,32,84,10
1,35,79,6
1,35,91,102
1,30,77,8
1,32,84,8
1,35,79,8
1,35,91,102
1,38,91,2
1,39,91,12
1,40,74,2
1,52,63,22
1,40,56,26
1,52,70,28
1,40,63,8
1,52,74,6
1,35,83,4
1,40,88,8
1,28,81,8
1,33,75,774
1,33,80,136
1,28,75,14
1,30,73,14
1,33,83,14
1,33,80,142
1,28,75,14
1,30,75,14
1,33,76,14
1,33,76,124
1,28,73,14
1,30,66,16
1,33,68,14
1,33,78,110
1,28,71,14
1,30,66,14
1,33,78,54
1,33,82,110
1,28,73,14
1,30,71,14
1,33,78,14
1,33,82,126
1,28,69,14
1,30,59,14
1,33,75,14
1,33,80,114
1,28,73,14
1,30,66,22
1,33,73,14
1,33,62,124
1,28,75,14
1,30,69,14
1,33,75,34
1,33,78,108
1,28,73,14
1,30,68,14
1,33,78,14
1,33,80,98
1,28,69,14
1,30,66,18
1,30,83,14
1,42,82,118
1,37,64,22
1,40,75,10
1,42,80,10
1,42,80,102
1,37,65,14
1,40,70,14
1,40,76,14
1,40,78,120
1,35,69,12
1,38,59,10
1,40,73,10
1,40,76,106
1,35,69,52
1,38,64,192
1,40,73,14
1,40,78,96
1,35,69,6
1,38,59,14
1,40,68,12
1,40,76,124
1,35,69,30
1,38,59,14
1,35,75,16
1,35,80,136
1,30,75,14
1,33,73,14
1,35,83,14
1,35,80,142
1,30,75,14
1,33,75,14
1,38,76,14
1,38,76,124
1,33,73,14
1,35,66,16
1,38,68,14
1,38,78,110
1,33,71,14
1,35,66,14
1,33,78,54
1,33,82,110
1,28,73,14
1,30,71,14
1,33,78,14
1,33,82,126
1,28,69,14
1,30,59,14
1,42,75,14
1,42,80,114
1,37,73,14
1,40,66,22
1,42,73,14
1,42,62,124
1,37,75,14
1,40,69,14
1,38,75,34
1,38,78,108
1,33,73,14
1,35,68,14
1,38,78,14
1,38,80,98
1,33,69,14
1,35,66,18
1,40,83,14
1,40,82,118
1,35,64,22
1,38,75,10
1,40,80,10
1,40,80,102
1,37,65,14
1,35,70,14
1,40,76,14
1,33,75,120
1,33,80,136
1,30,75,14
1,28,73,14
1,33,83,14
1,33,80,142
1,30,75,14
1,28,75,14
1,42,76,14
1,42,76,124
1,37,73,14
1,40,66,16
1,42,68,14
1,38,78,110
1,35,71,14
1,38,66,14
1,40,78,54
1,40,82,110
1,35,73,14
1,38,71,14
1,40,78,14
1,40,82,126
1,38,69,14
1,35,59,14
1,40,75,14
1,40,80,114
1,35,73,14
1,38,66,22
1,40,73,14
1,40,62,124
1,35,75,14
1,38,69,14
1,33,75,34
1,33,78,108
1,28,73,14
1,30,68,14
1,33,78,14
1,33,80,98
1,28,69,14
1,30,66,18
1,33,83,14
1,33,82,118
1,28,64,22
1,30,75,10
1,33,80,10
1,33,80,102
1,38,65,14
1,33,70,14
1,28,12,14
1,40,81,6
1,28,77,2
1,40,84,68
1,28,60,2
1,40,77,60
1,28,67,2
1,40,95,2
1,28,77,2
1,40,81,28
1,28,70,2
1,40,77,44
1,28,102,2
1,40,91,2
1,35,95,2
1,37,70,2
1,26,91,2
1,38,91,2
1,26,91,42
1,38,98,44
1,26,88,2
1,38,98,32
1,37,91,2
1,35,91,12
1,33,77,2
1,33,112,108
1,28,77,12
1,30,91,6
1,33,84,2
1,33,105,112
1,30,77,2
1,33,81,2
1,28,88,20
1,40,81,6
1,28,77,2
1,40,84,68
1,28,60,2
1,40,77,60
1,28,67,2
1,40,95,2
1,26,91,2
1,38,91,2
1,26,91,42
1,38,98,44
1,26,88,2
1,38,98,32
1,37,91,2
1,35,91,12
1,33,77,2
1,33,112,108
1,28,77,12
1,30,91,6
1,33,84,2
1,33,105,112
1,30,77,2
1,33,81,2
1,33,77,20
1,33,112,108
1,28,77,12
1,30,91,6
1,33,84,2
1,33,105,112
1,30,77,2
1,33,81,2
1,28,88,20
1,40,81,6
1,28,77,2
1,40,84,68
1,28,60,2
1,40,77,60
1,35,67,2
1,37,84,2
1,28,77,2
1,40,81,28
1,28,70,2
1,40,77,44
1,28,102,2
1,40,91,2
1,35,95,2
1,37,70,2
1,26,91,2
1,38,91,2
1,26,91,42
1,38,98,44
1,26,88,2
1,38,98,32
1,37,91,2
1,35,91,12
1,33,77,2
1,33,112,108
1,28,77,12
1,30,91,6
1,33,84,2
1,33,105,112
1,30,77,2
1,33,81,2
1,35,79,20
1,35,91,102
1,30,77,8
1,32,84,8
1,35,79,8
1,35,91,102
1,30,77,2
1,32,84,10
1,35,79,6
1,35,91,102
1,30,77,8
1,32,84,8
1,35,79,8
1,35,91,102
1,38,91,2
1,39,91,12
1,40,74,2
1,52,63,22
1,40,56,26
1,52,70,28
1,40,63,8
1,52,74,6
1,35,83,4
1,40,88,8
1,28,81,8
1,33,75,774
1,33,80,136
1,28,75,14
1,30,73,14
1,33,83,14
1,33,80,142
1,28,75,14
1,30,75,14
1,33,76,14
1,33,76,124
1,28,73,14
1,30,66,16
1,33,68,14
1,33,78,110
1,28,71,14
1,30,66,14
1,33,78,54
1,33,82,110
1,28,73,14
1,30,71,14
1,33,78,14
1,33,82,126
1,28,69,14
1,30,59,14
1,33,75,14
1,33,80,114
1,28,73,14
1,30,66,22
1,33,73,14
1,33,62,124
1,28,75,14
1,30,69,14
1,33,75,34
1,33,78,108
1,28,73,14
1,30,68,14
1,33,78,14
1,33,80,98
1,28,69,14
1,30,66,18
1,30,83,14
1,42,82,118
1,37,64,22
1,40,75,10
1,42,80,10
1,42,80,102
1,37,65,14
1,40,70,14
1,40,76,14
1,40,78,120
1,35,69,12
1,38,59,10
1,40,73,10
1,40,76,106
1,35,69,52
1,38,64,192
1,40,73,14
1,40,78,96
1,35,69,6
1,38,59,14
1,40,68,12
1,40,76,124
1,35,69,30
1,38,59,14
1,35,75,16
1,35,80,136
1,30,75,14
1,33,73,14
1,35,83,14
1,35,80,142
1,30,75,14
1,33,75,14
1,38,76,14
1,38,76,124
1,33,73,14
1,35,66,16
1,38,68,14
1,38,78,110
1,33,71,14
1,35,66,14
1,33,78,54
1,33,82,110
1,28,73,14
1,30,71,14
1,33,78,14
1,33,82,126
1,28,69,14
1,30,59,14
1,42,75,14
1,42,80,114
1,37,73,14
1,40,66,22
1,42,73,14
1,42,62,124
1,37,75,14
1,40,69,14
1,38,75,34
1,38,78,108
1,33,73,14
1,35,68,14
1,38,78,14
1,38,80,98
1,33,69,14
1,35,66,18
1,40,83,14
1,40,82,118
1,35,64,22
1,38,75,10
1,40,80,10
1,40,80,102
1,37,65,14
1,35,70,14
1,40,76,14
1,33,75,120
1,33,80,136
1,30,75,14
1,28,73,14
1,33,83,14
1,33,80,142
1,30,75,14
1,28,75,14
1,33,75,14
1,33,80,136
1,30,75,14
1,28,73,14
1,33,83,14
1,45,80,142
1,32,75,14
1,44,75,14
1,42,76,14
1,42,76,124
1,37,73,14
1,40,66,16
1,42,68,14
1,42,78,110
1,37,71,14
1,40,66,14
1,42,76,54
1,42,76,124
1,37,73,14
1,40,66,16
1,42,68,14
1,42,78,110
1,37,71,14
1,40,66,14
1,38,78,54
1,38,82,110
1,33,73,14
1,35,71,14
1,38,78,14
1,38,82,126
1,33,69,14
1,35,59,14
1,38,78,14
1,38,82,110
1,33,73,14
1,35,71,14
1,38,78,14
1,38,82,126
1,33,69,14
1,37,59,14
1,35,75,14
1,35,78,108
1,30,73,14
1,33,68,14
1,35,78,14
1,35,80,98
1,33,69,14
1,35,66,18
1,38,76,14
1,38,78,120
1,33,69,12
1,35,59,10
1,38,73,10
1,38,76,106
1,33,69,52
1,35,64,2
1,40,76,14
1,40,78,120
1,35,69,12
1,38,59,10
1,40,73,10
1,40,76,106
1,35,69,52
1,38,64,2
1,40,73,14
1,40,78,96
1,35,69,6
1,40,59,14
1,38,68,12
1,33,76,124
1,40,69,30
1,35,59,14
1,33,75,16
1,33,80,136
1,28,75,14
1,30,73,14
1,33,83,14
1,33,80,142
1,28,75,14
1,30,75,14
1,33,76,14
1,33,76,124
1,28,73,14
1,30,66,16
1,33,68,14
1,33,78,110
1,28,71,14
1,30,66,14
1,33,78,54
1,33,82,110
1,28,73,14
1,30,71,14
1,33,78,14
1,33,82,126
1,28,69,14
1,30,59,14
1,33,75,14
1,33,80,114
1,28,73,14
1,30,66,22
1,33,73,14
1,33,62,124
1,28,75,14
1,30,69,14
1,33,75,34
1,33,78,108
1,28,73,14
1,30,68,14
1,33,78,14
1,33,80,98
1,28,69,14
1,30,66,18
1,30,83,14
1,42,82,118
1,37,64,22
1,40,75,10
1,42,80,10
1,42,80,102
1,37,65,14
1,40,70,14
1,40,76,14
1,40,78,120
1,35,69,12
1,38,59,10
1,40,73,10
1,40,76,106
1,35,69,52
1,38,64,192
1,40,73,14
1,40,78,96
1,35,69,6
1,38,59,14
1,40,68,12
1,40,76,124
1,35,69,30
1,38,59,14
1,35,75,16
1,35,80,136
1,30,75,14
1,33,73,14
1,35,83,14
1,35,80,142
1,30,75,14
1,33,75,14
1,38,76,14
1,38,76,124
1,33,73,14
1,35,66,16
1,38,68,14
1,38,78,110
1,33,71,14
1,35,66,14
1,33,78,54
1,33,82,110
1,28,73,14
1,30,71,14
1,33,78,14
1,33,82,126
1,28,69,14
1,30,59,14
1,42,75,14
1,42,80,114
1,37,73,14
1,40,66,22
1,42,73,14
1,42,62,124
1,37,75,14
1,40,69,14
1,38,75,34
1,38,78,108
1,33,73,14
1,35,68,14
1,38,78,14
1,38,80,98
1,33,69,14
1,35,66,18
1,40,83,14
1,40,82,118
1,35,64,22
1,38,75,10
1,40,80,10
1,40,80,102
1,37,65,14
1,35,70,14
1,40,83,14
1,40,82,118
1,35,64,22
1,38,75,10
1,40,80,10
1,40,80,102
1,37,65,14
1,33,75,206
1,33,80,136
1,30,75,14
1,28,73,14
1,33,83,14
1,33,80,142
1,30,75,14
1,28,75,14
1,38,76,14
1,38,76,124
1,33,73,14
1,35,66,16
1,40,68,14
1,40,78,110
1,35,71,14
1,38,66,14
1,33,75,54
1,33,80,136
1,28,75,14
1,30,73,14
1,33,83,14
1,33,80,142
1,28,75,14
1,30,75,14
1,33,76,14
1,33,76,124
1,28,73,14
1,30,66,16
1,33,68,14
1,33,78,110
1,28,71,14
1,30,66,14
1,33,78,54
1,33,82,110
1,28,73,14
1,30,71,14
1,33,78,14
1,33,82,126
1,28,69,14
1,30,59,14
1,33,75,14
1,33,80,114
1,28,73,14
1,30,66,22
1,33,73,14
1,33,62,124
1,28,75,14
1,30,69,14
1,33,75,34
1,33,78,108
1,28,73,14
1,30,68,14
1,33,78,14
1,33,80,98
1,28,69,14
1,30,66,18
1,30,83,14
1,42,82,118
1,37,64,22
1,40,75,10
1,42,80,10
1,42,80,102
1,37,65,14
1,40,70,14
1,40,76,14
1,40,78,120
1,35,69,12
1,38,59,10
1,40,73,10
1,40,76,106
1,35,69,52
1,38,64,192
1,40,73,14
1,40,78,96
1,35,69,6
1,38,59,14
1,40,68,12
1,40,76,124
1,35,69,30
1,38,59,14
1,35,75,16
1,35,80,136
1,30,75,14
1,33,73,14
1,35,83,14
1,35,80,142
1,30,75,14
1,33,75,14
1,38,76,14
1,38,76,124
1,33,73,14
1,35,66,16
1,38,68,14
1,38,78,110
1,33,71,14
1,35,66,14
1,33,78,54
1,33,82,110
1,28,73,14
1,30,71,14
1,33,78,14
1,33,82,126
1,28,69,14
1,30,59,14
1,42,75,14
1,42,80,114
1,37,73,14
1,40,66,22
1,42,73,14
1,42,62,124
1,37,75,14
1,40,69,14
1,38,75,34
1,38,78,108
1,33,73,14
1,35,68,14
1,38,78,14
1,38,80,98
1,33,69,14
1,35,66,18
1,40,83,14
1,40,82,118
1,35,64,22
1,38,75,10
1,40,80,10
1,40,80,102
1,37,65,14
1,35,70,14
1,40,83,14
1,40,82,118
1,35,64,22
1,38,75,10
1,40,80,10
1,40,80,102
1,37,65,14
1,33,75,206
1,33,80,136
1,30,75,14
1,28,73,14
1,33,83,14
1,33,80,142
1,30,75,14
1,28,75,14
1,38,76,14
1,38,76,124
1,33,73,14
1,35,66,16
1,40,68,14
1,40,78,110
1,35,71,14
1,38,66,14
1,33,75,54
2,61,58,924
2,69,74,0
2,62,53,32
2,71,69,0
2,64,58,42
2,73,74,0
2,64,58,54
2,73,74,0
2,64,57,128
2,73,73,0
2,64,55,90
2,73,71,0
2,64,57,94
2,73,73,0
2,64,58,132
2,73,74,0
2,61,53,192
2,69,69,0
2,66,51,104
2,74,67,0
2,66,53,106
2,74,69,0
2,64,58,192
2,73,74,0
2,66,55,132
2,74,71,0
2,64,51,42
2,71,67,0
2,64,57,142
2,73,73,0
2,61,59,10
2,69,75,0
2,73,71,11788
2,74,71,44
2,76,71,384
2,81,71,50
2,80,71,22
2,73,71,3830
2,74,71,44
2,76,71,384
2,81,71,50
2,71,71,22
2,76,71,2710
2,74,71,44
2,73,71,384
2,71,71,50
2,76,66,23062
2,76,57,156
2,74,57,52
2,73,67,192
2,66,56,1854
2,74,71,0
2,64,57,48
2,71,67,0
2,64,57,1056
2,73,70,0
2,61,50,192
2,69,63,0
2,73,71,12780
2,74,71,44
2,76,71,384
2,81,71,50
2,80,71,22
2,73,71,3830
2,74,71,44
2,76,71,384
2,81,71,50
2,71,71,22
2,76,71,2710
2,74,71,44
2,73,71,384
2,71,71,50
2,76,66,23062
2,76,57,156
2,74,57,52
2,73,67,2
2,81,71,1854
2,80,71,2
2,78,71,2
2,74,71,4226
2,73,71,384
2,71,71,20
2,69,71,10
2,71,71,26
2,85,64,5670
2,69,71,4226
2,71,71,72
2,73,71,36
2,76,71,12
2,73,71,384
2,71,71,4850
2,73,71,54
2,74,65,24
2,73,61,2690
2,71,61,2
2,69,61,2
2,78,61,1346
2,76,61,2
2,74,61,194
2,76,66,1730
2,76,57,156
2,74,57,52
2,73,67,192
