track,note,velocity,time
1,68,127,13842
1,68,124,44
1,68,127,72
1,68,127,104
1,68,127,80
1,68,127,88
1,66,123,10
1,65,123,8
1,68,127,12
1,70,127,80
1,70,127,48
1,70,125,120
1,70,127,116
1,68,120,12
1,66,127,24
1,68,123,44
1,73,127,544
1,73,117,56
1,73,116,80
1,73,106,98
1,73,127,80
1,73,127,48
1,73,125,56
1,73,115,60
1,73,123,96
1,72,109,24
1,73,127,104
1,75,127,204
1,68,127,1522
1,68,126,52
1,68,127,80
1,68,127,104
1,68,125,92
1,68,125,68
1,68,127,92
1,66,102,8
1,65,117,24
1,68,123,24
1,70,127,124
1,70,125,56
1,70,123,92
1,70,127,108
1,70,125,92
1,70,105,88
1,70,127,134
1,68,118,12
1,66,125,36
1,70,125,60
1,70,127,214
1,70,127,112
1,70,127,128
1,70,127,128
1,70,127,136
1,72,127,60
1,73,127,48
1,73,127,126
1,72,127,84
1,73,127,94
1,75,127,108
1,68,127,356
1,73,127,416
1,75,127,12
1,77,127,24
1,77,127,140
1,76,127,12
1,77,127,360
1,78,127,112
1,77,127,56
1,75,127,12
1,73,127,12
1,73,127,328
1,73,127,68
1,73,127,84
1,73,127,104
1,73,127,128
1,72,124,32
1,70,117,18
1,68,127,286
1,68,127,68
1,68,127,94
1,72,127,84
1,72,127,104
1,72,120,148
1,75,127,116
1,75,127,136
1,78,127,104
1,78,114,80
1,78,127,116
1,78,127,152
1,77,127,168
1,77,127,128
1,77,127,458
1,77,127,124
1,76,127,192
1,77,127,370
1,78,127,116
1,77,127,36
1,75,126,12
1,73,123,24
1,78,127,450
1,78,127,68
1,78,127,108
1,78,127,92
1,80,127,72
1,78,127,56
1,77,127,36
1,75,127,24
1,78,127,508
1,78,127,68
1,78,127,68
1,78,127,124
1,78,127,138
1,77,127,48
1,75,127,80
1,73,127,124
1,72,127,170
1,72,127,144
1,72,127,128
1,73,127,60
1,75,127,92
1,75,127,128
1,73,127,112
1,72,121,36
1,73,124,80
1,68,127,2092
1,68,124,44
1,68,127,72
1,68,127,104
1,68,127,80
1,68,127,88
1,66,123,8
1,65,123,8
1,68,127,12
1,70,127,80
1,70,127,48
1,70,125,120
1,70,127,116
1,68,120,12
1,66,127,24
1,68,123,44
1,73,127,544
1,73,117,56
1,73,116,80
1,73,106,96
1,73,127,80
1,73,127,48
1,73,125,56
1,73,115,62
1,73,123,96
1,72,109,24
1,73,127,104
1,75,127,204
1,68,127,1522
1,68,126,52
1,68,127,80
1,68,127,104
1,68,125,92
1,68,125,68
1,68,127,92
1,66,102,8
1,65,117,24
1,68,123,24
1,70,127,124
1,70,125,56
1,70,123,92
1,70,127,108
1,70,125,92
1,70,105,88
1,70,127,132
1,68,118,12
1,66,125,36
1,70,125,60
1,70,127,214
1,70,127,112
1,70,127,130
1,70,127,128
1,70,127,136
1,72,127,60
1,73,127,48
1,73,127,124
1,72,127,84
1,73,127,94
1,75,127,106
1,68,127,356
1,73,127,416
1,75,127,12
1,77,127,24
1,77,127,140
1,76,127,12
1,77,127,360
1,78,127,112
1,77,127,56
1,75,127,12
1,73,127,12
1,73,127,328
1,73,127,68
1,73,127,84
1,73,127,104
1,73,127,128
1,72,124,32
1,70,117,16
1,68,127,286
1,68,127,68
1,68,127,92
1,72,127,84
1,72,127,104
1,72,120,148
1,75,127,116
1,75,127,136
1,78,127,76
1,78,114,80
1,78,127,116
1,78,127,152
1,77,127,168
1,77,127,128
1,77,127,458
1,77,127,124
1,76,127,192
1,77,127,370
1,78,127,116
1,77,127,36
1,73,123,388
1,78,127,450
1,78,127,68
1,78,127,92
1,80,127,72
1,78,127,56
1,77,127,38
1,75,127,24
1,78,127,508
1,78,127,68
1,78,127,66
1,78,127,124
1,78,127,138
1,77,127,48
1,75,127,80
1,73,127,124
1,72,127,170
1,72,127,144
1,72,127,128
1,73,127,60
1,75,127,92
1,75,127,128
1,73,127,112
1,72,121,36
1,73,124,80
1,73,127,2092
1,73,127,44
1,73,127,108
1,73,127,108
1,73,127,76
1,73,127,92
1,73,127,80
1,73,127,60
1,73,127,80
1,65,120,44
1,68,120,56
1,70,127,1596
1,70,127,56
1,70,126,72
1,70,127,116
1,70,127,92
1,70,119,72
1,72,127,16
1,73,127,72
1,73,127,92
1,72,127,116
1,73,127,44
1,75,127,104
1,68,127,440
1,73,127,88
1,75,127,104
1,77,127,212
1,77,127,140
1,76,127,12
1,77,127,360
1,78,127,112
1,77,127,56
1,75,127,12
1,73,127,12
1,73,127,328
1,73,127,68
1,73,127,84
1,73,127,104
1,73,127,128
1,72,124,32
1,70,117,16
1,68,127,286
1,68,127,68
1,68,127,92
1,72,127,84
1,72,127,104
1,72,120,148
1,75,127,116
1,75,127,136
1,78,127,104
1,78,114,80
1,78,127,116
1,78,127,152
1,77,127,168
1,77,127,130
1,77,127,458
1,77,127,124
1,76,127,192
1,77,127,370
1,78,127,116
1,77,127,36
1,75,126,12
1,73,123,24
1,78,127,450
1,78,127,68
1,78,127,108
1,78,127,92
1,80,127,72
1,78,127,56
1,77,127,36
1,75,127,24
1,78,127,508
1,78,127,68
1,78,127,68
1,78,127,122
1,78,127,138
1,77,127,48
1,75,127,82
1,73,127,124
1,72,127,170
1,72,127,144
1,72,127,128
1,73,127,60
1,75,127,92
1,75,127,128
1,73,127,110
1,72,121,36
1,73,124,80
1,68,127,926
1,73,127,68
1,75,127,56
1,77,127,168
1,77,127,140
1,76,127,12
1,77,127,360
1,78,127,112
1,77,127,56
1,75,127,10
1,73,127,12
1,73,127,328
1,73,127,68
1,73,127,84
1,73,127,106
1,73,127,128
1,72,124,32
1,70,117,16
1,68,127,286
1,68,127,68
1,68,127,92
1,72,127,82
1,72,127,106
1,72,120,148
1,75,127,116
1,75,127,136
1,78,127,104
1,78,114,80
1,78,127,116
1,78,127,154
1,77,127,168
1,77,127,132
1,77,127,460
1,77,127,124
1,76,127,192
1,77,127,370
1,78,127,116
1,77,127,36
1,75,126,12
1,73,123,24
1,78,127,450
1,78,127,68
1,78,127,108
1,78,127,92
1,80,127,72
1,78,127,56
1,77,127,38
1,75,127,24
1,78,127,508
1,78,127,68
1,78,127,70
1,78,127,124
1,78,127,138
1,77,127,50
1,75,127,80
1,73,127,124
1,72,127,170
1,72,127,146
1,72,127,128
1,73,127,60
1,75,127,92
1,75,127,128
1,73,127,112
1,72,121,36
1,73,124,80
2,37,127,10758
2,37,127,88
2,32,127,42
2,37,127,50
2,37,127,222
2,32,127,54
2,34,127,40
2,37,127,10
2,37,127,70
2,32,127,62
2,37,127,42
2,37,127,222
2,46,127,192
2,44,127,178
2,37,127,18
2,37,127,100
2,32,127,42
2,37,127,8
2,37,127,204
2,32,127,34
2,34,127,32
2,37,127,2
2,37,127,82
2,32,127,38
2,37,127,52
2,37,127,200
2,32,127,34
2,37,127,190
2,42,127,6
2,42,127,74
2,37,127,192
2,42,127,28
2,42,127,214
2,37,127,192
2,39,127,8
2,37,127,18
2,37,127,80
2,32,127,34
2,37,127,56
2,37,127,212
2,32,127,26
2,34,127,14
2,37,127,2
2,37,127,76
2,32,127,18
2,37,127,28
2,32,127,220
2,37,127,14
2,36,127,28
2,34,127,94
2,34,127,88
2,29,127,22
2,34,127,40
2,34,127,212
2,29,127,14
2,34,127,32
2,32,127,12
2,32,127,88
2,27,127,22
2,32,127,0
2,32,127,210
2,27,127,42
2,29,127,190
2,32,127,10
2,32,127,90
2,27,127,42
2,32,127,190
2,32,127,242
2,34,127,14
2,32,127,8
2,37,127,22
2,37,127,70
2,32,127,50
2,37,127,28
2,37,127,182
2,32,127,16
2,34,127,2
2,37,127,192
2,37,127,76
2,32,127,30
2,37,127,192
2,37,127,220
2,39,127,194
2,37,127,14
2,42,127,42
2,42,127,72
2,37,127,44
2,42,127,42
2,42,127,204
2,37,127,14
2,39,127,22
2,42,127,18
2,42,127,80
2,37,127,42
2,42,127,54
2,37,127,220
2,42,127,14
2,41,127,42
2,39,127,18
2,39,127,100
2,34,127,42
2,39,127,52
2,39,127,200
2,34,127,22
2,36,127,190
2,39,127,190
2,39,127,112
2,34,127,34
2,39,127,60
2,39,127,240
2,36,127,22
2,34,127,12
2,32,127,76
2,32,127,94
2,27,127,30
2,32,127,40
2,32,127,214
2,27,127,26
2,29,127,40
2,32,127,194
2,32,127,112
2,32,127,136
2,32,127,126
2,32,127,264
2,41,127,54
2,39,127,190
2,37,127,68
2,37,127,64
2,32,127,34
2,37,127,38
2,37,127,196
2,32,127,56
2,34,127,58
2,37,127,60
2,37,127,60
2,32,127,82
2,37,127,38
2,37,127,186
2,32,127,38
2,37,127,186
2,42,127,30
2,42,127,90
2,37,127,56
2,42,127,68
2,42,127,222
2,37,127,34
2,39,127,64
2,42,127,64
2,42,127,90
2,37,127,56
2,42,127,42
2,42,127,252
2,37,127,38
2,39,127,24
2,44,127,44
2,44,127,90
2,39,127,42
2,44,127,18
2,44,127,246
2,39,127,8
2,41,127,22
2,44,127,24
2,44,127,68
2,39,127,34
2,44,127,66
2,44,127,212
2,39,127,194
2,41,127,14
2,42,127,20
2,42,127,80
2,37,127,34
2,42,127,66
2,42,127,200
2,41,127,36
2,39,127,14
2,37,127,42
2,37,127,80
2,32,127,114
2,37,127,30
2,37,127,244
2,32,127,86
2,34,127,24
2,37,127,4
2,37,127,86
2,32,127,74
2,37,127,72
2,37,127,224
2,32,127,88
2,34,127,46
2,37,127,12
2,37,127,94
2,32,127,94
2,37,127,58
2,37,127,232
2,32,127,36
2,37,127,188
2,42,127,6
2,42,127,80
2,37,127,42
2,42,127,42
2,42,127,214
2,37,127,58
2,42,127,34
2,44,127,20
2,44,127,100
2,39,127,44
2,44,127,34
2,44,127,246
2,39,127,6
2,41,127,30
2,39,127,192
2,39,127,80
2,34,127,64
2,39,127,58
2,39,127,228
2,34,127,76
2,37,127,54
2,39,127,24
2,39,127,84
2,34,127,64
2,39,127,62
2,39,127,232
2,36,127,16
2,34,127,8
2,32,127,20
2,32,127,90
2,27,127,50
2,32,127,32
2,32,127,220
2,27,127,44
2,30,127,6
2,32,127,26
2,32,127,70
2,27,127,58
2,32,127,16
2,32,127,254
2,34,127,14
2,32,127,38
2,37,127,30
2,37,127,74
2,32,127,30
2,37,127,52
2,37,127,226
2,30,127,76
2,32,127,22
2,37,127,24
2,37,127,80
2,32,127,42
2,37,127,74
2,37,127,266
2,32,127,22
2,34,127,54
2,37,127,114
2,37,127,100
2,32,127,42
2,37,127,10
2,37,127,202
2,32,127,34
2,34,127,32
2,37,127,2
2,37,127,82
2,32,127,38
2,37,127,52
2,37,127,200
2,32,127,34
2,37,127,190
2,42,127,6
2,42,127,74
2,37,127,192
2,42,127,28
2,42,127,214
2,37,127,192
2,39,127,8
2,37,127,18
2,37,127,82
2,32,127,34
2,37,127,52
2,37,127,212
2,32,127,26
2,34,127,12
2,37,127,2
2,37,127,76
2,32,127,18
2,37,127,30
2,32,127,220
2,37,127,14
2,36,127,30
2,34,127,94
2,34,127,88
2,29,127,22
2,34,127,42
2,34,127,212
2,29,127,14
2,34,127,34
2,32,127,10
2,32,127,88
2,27,127,22
2,32,127,2
2,32,127,208
2,27,127,42
2,29,127,192
2,32,127,10
2,32,127,90
2,27,127,42
2,32,127,190
2,32,127,242
2,34,127,14
2,32,127,8
2,37,127,22
2,37,127,70
2,32,127,50
2,37,127,28
2,37,127,182
2,32,127,14
2,34,127,0
2,37,127,194
2,37,127,78
2,32,127,30
2,37,127,192
2,37,127,220
2,39,127,194
2,37,127,12
2,42,127,42
2,42,127,72
2,37,127,42
2,42,127,42
2,42,127,204
2,37,127,14
2,39,127,22
2,42,127,18
2,42,127,80
2,37,127,42
2,42,127,52
2,37,127,220
2,42,127,14
2,41,127,42
2,39,127,18
2,39,127,102
2,34,127,42
2,39,127,52
2,39,127,200
2,34,127,24
2,36,127,190
2,39,127,190
2,39,127,112
2,34,127,34
2,39,127,60
2,39,127,240
2,36,127,22
2,34,127,12
2,32,127,74
2,32,127,94
2,27,127,30
2,32,127,42
2,32,127,214
2,27,127,26
2,29,127,40
2,32,127,194
2,32,127,114
2,32,127,136
2,32,127,124
2,32,127,264
2,41,127,54
2,39,127,190
2,37,127,68
2,37,127,66
2,32,127,34
2,37,127,38
2,37,127,196
2,32,127,56
2,34,127,58
2,37,127,60
2,37,127,60
2,32,127,82
2,37,127,38
2,37,127,184
2,32,127,36
2,37,127,190
2,42,127,30
2,42,127,90
2,37,127,56
2,42,127,70
2,42,127,220
2,37,127,34
2,39,127,64
2,42,127,64
2,42,127,90
2,37,127,56
2,42,127,42
2,42,127,252
2,37,127,38
2,39,127,24
2,44,127,46
2,44,127,88
2,39,127,42
2,44,127,18
2,44,127,246
2,39,127,6
2,41,127,20
2,44,127,24
2,44,127,70
2,39,127,34
2,44,127,66
2,44,127,214
2,39,127,192
2,41,127,14
2,42,127,20
2,42,127,80
2,37,127,34
2,42,127,66
2,42,127,200
2,41,127,34
2,39,127,14
2,37,127,42
2,37,127,80
2,32,127,114
2,37,127,30
2,37,127,246
2,32,127,86
2,34,127,26
2,37,127,6
2,37,127,86
2,32,127,74
2,37,127,74
2,37,127,226
2,32,127,88
2,34,127,44
2,37,127,12
2,37,127,94
2,32,127,94
2,37,127,58
2,37,127,234
2,32,127,36
2,37,127,188
2,42,127,6
2,42,127,82
2,37,127,42
2,42,127,40
2,42,127,216
2,37,127,58
2,42,127,32
2,44,127,20
2,44,127,102
2,39,127,44
2,44,127,34
2,44,127,246
2,39,127,6
2,41,127,30
2,39,127,192
2,39,127,80
2,34,127,64
2,39,127,58
2,39,127,228
2,34,127,76
2,37,127,52
2,39,127,24
2,39,127,84
2,34,127,64
2,39,127,62
2,39,127,228
2,36,127,16
2,34,127,10
2,32,127,20
2,32,127,88
2,27,127,50
2,32,127,32
2,32,127,222
2,27,127,44
2,30,127,6
2,32,127,26
2,32,127,70
2,27,127,60
2,32,127,16
2,32,127,256
2,34,127,14
2,32,127,38
2,37,127,30
2,37,127,74
2,32,127,30
2,37,127,52
2,37,127,226
2,30,127,76
2,32,127,20
2,37,127,24
2,37,127,82
2,32,127,42
2,37,127,74
2,37,127,266
2,32,127,22
2,34,127,54
2,34,127,114
2,34,127,64
2,29,127,22
2,34,127,42
2,34,127,180
2,29,127,24
2,32,127,192
2,34,127,18
2,34,127,60
2,29,127,24
2,34,127,10
2,34,127,240
2,29,127,22
2,34,127,190
2,41,127,18
2,41,127,60
2,36,127,10
2,41,127,22
2,41,127,246
2,36,127,26
2,39,127,52
2,41,127,10
2,41,127,94
2,36,127,54
2,41,127,72
2,41,127,232
2,36,127,14
2,41,127,190
2,42,127,10
2,42,127,102
2,37,127,22
2,42,127,50
2,42,127,214
2,37,127,22
2,39,127,192
2,42,127,14
2,42,127,104
2,37,127,54
2,42,127,62
2,42,127,202
2,42,127,226
2,44,127,14
2,44,127,84
2,39,127,42
2,44,127,42
2,44,127,232
2,39,127,194
2,41,127,22
2,32,127,42
2,32,127,114
2,32,127,162
2,32,127,104
2,32,127,100
2,32,127,156
2,37,127,96
2,37,127,66
2,32,127,34
2,37,127,36
2,37,127,196
2,32,127,56
2,34,127,56
2,37,127,60
2,37,127,62
2,32,127,82
2,37,127,38
2,37,127,184
2,32,127,38
2,37,127,186
2,42,127,30
2,42,127,90
2,37,127,56
2,42,127,70
2,42,127,222
2,37,127,34
2,39,127,64
2,42,127,64
2,42,127,88
2,37,127,56
2,42,127,42
2,42,127,252
2,37,127,38
2,39,127,24
2,44,127,44
2,44,127,88
2,39,127,44
2,44,127,18
2,44,127,246
2,39,127,6
2,41,127,22
2,44,127,24
2,44,127,70
2,39,127,34
2,44,127,66
2,44,127,212
2,39,127,194
2,41,127,12
2,42,127,20
2,42,127,82
2,37,127,34
2,42,127,64
2,42,127,202
2,41,127,36
2,39,127,12
2,37,127,42
2,37,127,82
2,32,127,114
2,37,127,28
2,37,127,244
2,32,127,86
2,34,127,24
2,37,127,4
