track,note,velocity,time
1,67,102,1404
1,75,102,0
1,70,102,12
1,79,102,16
1,70,102,140
1,79,102,0
1,67,102,316
1,75,102,0
1,70,102,4
1,79,102,8
1,79,102,148
1,70,102,8
1,67,102,252
1,75,102,0
1,70,102,2
1,79,102,8
1,70,102,172
1,79,102,0
1,75,102,284
1,67,102,16
1,70,102,128
1,79,102,8
1,70,102,156
1,79,102,0
1,75,102,284
1,67,102,16
1,70,102,128
1,79,102,12
1,70,102,124
1,79,102,0
1,75,102,292
1,67,102,8
1,70,102,12
1,79,102,0
1,70,102,124
1,79,102,0
1,75,102,236
1,67,102,12
1,70,102,148
1,79,102,16
1,70,102,108
1,79,102,0
1,67,92,428
1,63,92,4
1,65,92,268
1,68,92,0
1,67,92,236
1,70,92,0
1,67,92,28
1,70,92,0
1,70,92,28
1,67,92,8
1,65,92,168
1,68,92,0
1,68,92,44
1,65,92,12
1,70,92,268
1,67,92,2
1,68,92,236
1,72,92,12
1,68,92,28
1,72,92,0
1,68,92,28
1,72,92,0
1,67,92,144
1,70,92,0
1,70,92,40
1,67,92,8
1,72,92,256
1,68,92,4
1,70,92,12
1,74,92,0
1,72,92,12
1,70,92,30
1,74,92,0
1,68,92,622
1,65,92,16
1,68,92,20
1,65,92,8
1,68,92,44
1,72,92,0
1,70,92,12
1,67,92,16
1,67,92,28
1,70,92,0
1,68,92,44
1,65,92,16
1,65,92,46
1,68,92,0
1,67,92,16
1,63,92,8
1,63,92,28
1,67,92,0
1,63,92,636
1,67,92,0
1,65,92,288
1,68,92,0
1,67,92,236
1,70,92,12
1,67,92,30
1,70,92,0
1,67,92,28
1,70,92,0
1,65,92,184
1,68,92,2
1,65,92,44
1,68,92,0
1,67,92,256
1,70,92,0
1,68,92,6
1,72,92,16
1,68,92,40
1,72,92,0
1,68,92,28
1,72,92,0
1,67,92,176
1,70,92,0
1,67,92,44
1,70,92,0
1,72,92,260
1,68,92,12
1,70,92,12
1,74,92,16
1,70,92,30
1,74,92,0
1,68,92,622
1,65,92,16
1,65,92,34
1,68,92,0
1,68,92,46
1,72,92,0
1,70,92,4
1,62,92,8
1,62,92,44
1,70,92,0
1,68,92,352
1,63,92,36
1,67,92,4
1,63,102,436
1,67,102,0
1,65,102,40
1,68,102,12
1,63,102,4
1,67,102,0
1,67,102,28
1,70,102,16
1,68,102,60
1,72,102,0
1,68,102,44
1,72,102,0
1,67,102,44
1,70,102,4
1,65,102,56
1,68,102,0
1,63,102,76
1,67,102,0
1,63,92,398
1,67,92,0
1,72,92,72
1,75,92,0
1,68,92,12
1,72,92,0
1,72,92,14
1,75,92,8
1,72,92,44
1,75,92,0
1,74,92,224
1,77,92,174
1,75,92,220
1,72,92,268
1,70,92,60
1,63,92,412
1,67,92,192
1,70,92,44
1,69,92,200
1,72,92,138
1,70,92,220
1,67,92,324
1,67,92,46
1,63,92,398
1,67,92,204
1,63,92,248
1,69,92,0
1,72,92,2
1,72,92,44
1,67,92,400
1,69,92,172
1,70,92,0
1,68,92,28
1,70,92,0
1,65,92,16
1,63,92,124
1,67,92,0
1,65,92,272
1,68,92,0
1,67,92,236
1,70,92,4
1,67,92,28
1,70,92,0
1,67,92,28
1,70,92,0
1,68,92,168
1,65,92,8
1,65,92,44
1,68,92,0
1,67,92,256
1,70,92,0
1,68,92,12
1,72,92,16
1,68,92,44
1,72,92,0
1,68,92,28
1,72,92,0
1,67,92,160
1,70,92,0
1,67,92,44
1,70,92,0
1,68,92,272
1,72,92,0
1,70,92,12
1,74,92,0
1,70,92,28
1,71,92,0
1,74,92,0
1,68,92,540
1,65,92,16
1,68,92,28
1,65,92,4
1,68,92,16
1,72,92,8
1,70,92,12
1,67,92,16
1,67,92,28
1,70,92,0
1,68,92,28
1,65,92,16
1,65,92,44
1,68,92,0
1,63,92,28
1,67,92,4
1,63,92,28
1,67,92,0
1,63,92,44
1,67,92,6
1,65,92,282
1,68,92,0
1,67,92,252
1,70,92,0
1,67,92,28
1,70,92,0
1,67,92,44
1,70,92,0
1,65,92,176
1,68,92,0
1,65,92,44
1,68,92,0
1,67,92,272
1,70,92,0
1,68,92,12
1,72,92,12
1,68,92,30
1,72,92,0
1,68,92,28
1,72,92,0
1,67,92,160
1,70,92,0
1,67,92,28
1,70,92,0
1,68,92,256
1,72,92,0
1,70,92,28
1,74,92,0
1,74,92,28
1,70,92,2
1,65,92,622
1,68,92,0
1,65,92,28
1,68,92,0
1,68,92,44
1,72,92,2
1,62,92,20
1,70,92,0
1,62,92,44
1,69,92,0
1,70,92,0
1,68,92,300
1,62,92,8
1,63,92,28
1,67,92,8
1,63,102,392
1,67,102,0
1,63,102,28
1,65,102,0
1,68,102,0
1,67,102,12
1,68,102,16
1,70,102,0
1,68,102,64
1,68,92,0
1,72,102,11
1,68,102,60
1,72,102,0
1,67,102,44
1,70,102,0
1,68,102,60
1,65,102,4
1,67,92,32
1,63,102,60
1,67,102,0
1,75,92,366
1,70,92,4
1,67,92,2
1,74,92,28
1,75,92,0
1,73,92,332
1,72,92,100
1,68,92,4
1,63,92,412
1,68,92,188
1,72,92,0
1,72,92,64
1,75,92,0
1,74,92,240
1,77,92,140
1,75,92,272
1,72,92,92
1,67,92,44
1,70,92,0
1,72,92,204
1,68,92,4
1,70,92,156
1,67,92,12
1,68,92,0
1,68,92,28
1,65,92,4
1,70,92,28
1,67,92,16
1,67,92,60
1,70,92,0
1,69,92,28
1,65,92,16
1,68,92,32
1,63,92,60
1,67,92,0
1,62,92,28
1,65,92,16
1,69,92,12
1,70,92,0
1,74,92,0
1,70,92,28
1,74,92,0
1,75,92,276
1,67,92,8
1,67,92,44
1,75,92,0
1,67,92,44
1,75,92,0
1,74,92,28
1,75,92,0
1,72,92,236
1,69,92,54
1,62,92,6
1,70,92,0
1,68,102,168
1,72,102,0
1,62,92,4
1,72,92,0
1,70,102,28
1,70,92,0
1,67,102,15
1,69,92,16
1,66,102,12
1,69,102,0
1,70,102,20
1,65,92,30
1,68,92,0
1,65,102,14
1,68,102,0
1,63,92,754
1,67,92,0
1,65,92,256
1,68,92,0
1,67,92,236
1,70,92,0
1,67,92,44
1,70,92,0
1,67,92,44
1,70,92,0
1,65,92,12
1,67,92,0
1,68,92,0
1,68,92,60
1,65,92,4
1,67,92,252
1,70,92,0
1,68,92,12
1,72,92,0
1,68,92,44
1,72,92,0
1,68,92,28
1,72,92,0
1,67,92,160
1,70,92,0
1,70,92,44
1,67,92,8
1,68,92,28
1,72,92,0
1,70,92,28
1,74,92,0
1,74,92,36
1,70,92,8
1,65,92,608
1,68,92,0
1,65,92,28
1,68,92,0
1,68,92,36
1,72,92,0
1,67,92,20
1,70,92,0
1,70,92,36
1,67,92,8
1,68,92,28
1,65,92,16
1,65,92,44
1,68,92,0
1,63,92,28
1,67,92,0
1,63,92,12
1,67,92,16
1,63,92,386
1,67,92,0
1,65,92,256
1,68,92,0
1,67,92,252
1,70,92,0
1,67,92,28
1,70,92,0
1,67,92,44
1,70,92,0
1,65,92,160
1,68,92,0
1,65,92,44
1,68,92,0
1,67,92,272
1,70,92,0
1,68,92,20
1,72,92,4
1,68,92,44
1,72,92,0
1,72,92,28
1,68,92,8
1,67,92,12
1,68,92,0
1,70,92,0
1,67,92,68
1,70,92,0
1,68,92,256
1,72,92,0
1,70,92,28
1,74,92,0
1,70,92,44
1,74,92,0
1,68,92,592
1,65,92,16
1,68,92,28
1,65,92,4
1,65,92,56
1,68,92,4
1,68,92,44
1,72,92,0
1,62,92,28
1,70,92,0
1,62,92,28
1,70,92,0
1,68,92,368
1,63,92,44
1,67,92,4
1,63,102,444
1,67,102,0
1,65,102,36
1,68,102,0
1,70,102,20
1,67,102,8
1,68,102,68
1,72,102,0
1,68,92,16
1,68,102,68
1,72,102,0
1,67,102,54
1,70,102,0
1,68,102,64
1,65,102,8
1,67,92,44
1,63,102,48
1,67,102,0
1,63,92,444
1,67,92,4
1,72,92,76
1,75,92,0
1,68,92,12
1,72,92,0
1,72,92,12
1,75,92,0
1,68,92,288
1,72,92,44
1,75,92,0
1,74,92,20
1,77,92,30
1,74,92,236
1,75,92,0
1,72,92,12
1,67,92,92
1,70,92,0
1,63,92,2
1,67,92,202
1,70,92,36
1,69,92,208
1,72,92,156
1,70,92,196
1,67,92,340
1,67,92,46
1,63,92,8
1,67,92,196
1,72,92,172
1,63,92,4
1,67,92,12
1,72,92,52
1,67,92,408
1,70,92,172
1,65,92,16
1,67,92,0
1,70,92,0
1,63,92,96
1,67,92,8
1,68,92,20
1,65,92,84
1,68,92,8
1,67,92,236
1,70,92,0
1,67,92,28
1,70,92,0
1,70,92,36
1,67,92,8
1,65,92,160
1,68,92,0
1,65,92,44
1,68,92,0
1,67,92,12
1,70,92,0
1,68,92,24
1,72,92,0
1,68,92,30
1,72,92,0
1,68,92,28
1,72,92,0
1,70,92,24
1,67,92,4
1,67,92,28
1,70,92,0
1,72,92,24
1,68,92,4
1,69,92,28
1,70,92,0
1,74,92,0
1,70,92,30
1,74,92,0
1,65,92,624
1,68,92,0
1,65,92,28
1,68,92,0
1,68,92,28
1,72,92,0
1,67,92,12
1,70,92,0
1,67,92,28
1,70,92,0
1,68,92,44
1,65,92,16
1,68,92,56
1,65,92,4
1,63,92,44
1,67,92,0
1,63,92,28
1,67,92,0
1,67,92,450
1,63,92,2
1,65,92,264
1,68,92,0
1,65,92,28
1,67,92,0
1,70,92,0
1,68,92,2
1,67,92,44
1,70,92,0
1,67,92,44
1,70,92,0
1,65,92,176
1,68,92,0
1,65,92,36
1,68,92,0
1,67,92,28
1,70,92,0
1,68,92,28
1,72,92,16
1,68,92,44
1,72,92,0
1,68,92,28
1,72,92,0
1,69,92,4
1,67,92,28
1,70,92,0
1,67,92,56
1,70,92,0
1,72,92,36
1,68,92,8
1,69,92,44
1,74,92,8
1,70,92,8
1,70,92,44
1,74,92,0
1,68,92,12
1,65,92,12
1,65,92,32
1,68,92,0
1,65,92,44
1,68,92,0
1,68,92,44
1,72,92,0
1,62,92,46
1,70,92,0
1,62,92,44
1,70,92,0
1,62,92,60
1,67,92,8
1,63,92,12
1,63,92,28
1,65,92,28
1,67,92,44
1,68,92,28
1,70,92,28
1,72,92,44
1,74,92,60
1,74,92,36
1,70,92,10
1,75,92,0
1,67,92,12
2,31,100,4630
2,39,100,16
2,39,100,144
2,39,100,64
2,39,100,112
2,39,100,96
2,39,100,80
2,51,100,80
2,39,100,64
2,39,100,124
2,39,100,80
2,39,100,144
2,34,100,1124
2,34,100,80
2,46,100,72
2,34,100,50
2,34,100,76
2,46,100,76
2,34,100,48
2,34,100,76
2,46,100,80
2,34,100,50
2,34,100,76
2,46,100,76
2,34,100,48
2,34,100,76
2,46,100,80
2,34,100,48
2,34,100,80
2,46,100,76
2,34,100,48
2,34,100,80
2,46,100,80
2,34,100,44
2,34,100,76
2,46,100,72
2,39,100,52
2,39,100,144
2,39,100,60
2,39,100,112
2,39,100,94
2,39,100,76
2,51,100,82
2,39,100,64
2,39,100,124
2,39,100,80
2,39,100,144
2,39,100,78
2,39,100,112
2,39,100,80
2,39,100,76
2,51,100,80
2,39,100,64
2,39,100,124
2,34,100,92
2,34,100,80
2,46,100,72
2,34,100,48
2,34,100,76
2,46,100,76
2,34,100,48
2,34,100,76
2,46,100,80
2,34,100,48
2,34,100,76
2,46,100,76
2,34,100,48
2,34,100,80
2,46,100,80
2,34,100,48
2,34,100,80
2,46,100,76
2,34,100,48
2,34,100,80
2,46,100,72
2,34,100,48
2,34,100,76
2,46,100,72
2,39,100,52
2,39,100,136
2,39,100,64
2,39,100,112
2,39,100,92
2,39,100,80
2,51,100,80
2,39,100,64
2,39,100,124
2,39,100,80
2,39,100,144
2,34,100,1124
2,34,100,76
2,46,100,72
2,34,100,48
2,34,100,76
2,46,100,76
2,34,100,48
2,34,100,76
2,46,100,80
2,34,100,50
2,34,100,76
2,46,100,76
2,34,100,48
2,34,100,80
2,46,100,80
2,34,100,48
2,34,100,76
2,46,100,76
2,34,100,48
2,34,100,80
2,46,100,80
2,34,100,44
2,34,100,72
2,46,100,72
2,39,100,52
2,39,100,140
2,39,100,64
2,39,100,112
2,39,100,94
2,39,100,76
2,51,100,82
2,39,100,70
2,39,100,120
2,39,100,80
2,39,100,140
2,39,100,80
2,39,100,112
2,39,100,76
2,39,100,76
2,51,100,80
2,39,100,64
2,39,100,124
2,34,100,94
2,34,100,80
2,46,100,72
2,34,100,48
2,34,100,76
2,46,100,76
2,34,100,48
2,34,100,76
2,46,100,80
2,34,100,48
2,34,100,80
2,46,100,72
2,34,100,48
2,34,100,76
2,46,100,80
2,34,100,48
2,34,100,80
2,46,100,76
2,34,100,48
2,34,100,80
2,46,100,80
2,34,100,44
2,34,100,72
2,46,100,72
2,39,100,54
2,39,100,144
2,39,100,60
2,39,100,112
2,39,100,96
2,32,100,112
2,44,100,76
2,32,100,64
2,32,100,120
2,31,100,84
2,39,100,140
2,39,100,80
2,39,100,112
2,39,100,84
2,39,100,72
2,51,100,80
2,39,100,48
2,39,100,84
2,51,100,72
2,32,100,52
2,32,100,136
2,32,100,64
2,32,100,108
2,32,100,96
2,32,100,76
2,44,100,80
2,32,100,64
2,32,100,124
2,32,100,80
2,32,100,140
2,32,100,80
2,32,100,108
2,32,100,80
2,32,100,80
2,44,100,76
2,32,100,64
2,32,100,124
2,39,100,96
2,39,100,136
2,39,100,64
2,37,100,112
2,37,100,96
2,37,100,80
2,49,100,76
2,37,100,64
2,37,100,120
2,39,100,84
2,36,100,0
2,36,100,144
2,36,100,76
2,36,100,112
2,36,100,118
2,36,100,110
2,48,100,84
2,36,100,48
2,36,100,80
2,48,100,76
2,41,100,48
2,41,100,140
2,41,100,64
2,41,100,108
2,41,100,98
2,41,100,76
2,53,100,80
2,41,100,64
2,41,100,124
2,41,100,80
2,41,100,80
2,53,100,76
2,41,100,48
2,41,100,80
2,53,100,76
2,41,100,48
2,41,100,80
2,53,100,76
2,41,100,48
2,41,100,76
2,53,100,68
2,34,100,52
2,34,100,76
2,46,100,78
2,34,100,48
2,34,100,76
2,46,100,80
2,34,100,44
2,34,100,76
2,46,100,76
2,34,100,48
2,34,100,80
2,46,100,76
2,34,100,44
2,34,100,140
2,34,100,1124
2,34,100,76
2,46,100,72
2,34,100,48
2,34,100,76
2,46,100,76
2,34,100,48
2,34,100,76
2,46,100,82
2,34,100,48
2,34,100,76
2,46,100,78
2,34,100,48
2,34,100,76
2,46,100,80
2,34,100,48
2,34,100,80
2,46,100,76
2,34,100,48
2,34,100,80
2,46,100,76
2,34,100,48
2,34,100,76
2,46,100,70
2,39,100,54
2,39,100,144
2,39,100,64
2,39,100,112
2,39,100,92
2,39,100,80
2,51,100,72
2,39,100,64
2,39,100,124
2,39,100,80
2,39,100,140
2,39,100,80
2,39,100,112
2,39,100,76
2,39,100,76
2,51,100,80
2,39,100,64
2,39,100,126
2,34,100,100
2,34,100,76
2,46,100,72
2,34,100,48
2,34,100,76
2,46,100,78
2,34,100,50
2,34,100,78
2,46,100,80
2,34,100,52
2,34,100,80
2,46,100,76
2,34,100,48
2,34,100,76
2,46,100,80
2,34,100,48
2,34,100,76
2,46,100,76
2,34,100,48
2,34,100,80
2,46,100,76
2,34,100,48
2,34,100,76
2,46,100,76
2,39,100,52
2,39,100,140
2,39,100,64
2,39,100,112
2,39,100,92
2,39,100,76
2,51,100,80
2,39,100,62
2,39,100,120
2,39,100,80
2,39,100,144
2,34,100,1120
2,34,100,72
2,46,100,72
2,34,100,48
2,34,100,76
2,46,100,76
2,34,100,48
2,34,100,76
2,46,100,80
2,34,100,48
2,34,100,80
2,46,100,76
2,34,100,44
2,34,100,80
2,46,100,76
2,34,100,48
2,34,100,76
2,46,100,76
2,34,100,44
2,34,100,80
2,46,100,76
2,34,100,48
2,34,100,72
2,46,100,76
2,39,100,54
2,39,100,140
2,39,100,64
2,39,100,114
2,39,100,92
2,39,100,80
