track,note,velocity,time
1,39,103,9216
1,36,115,206
1,44,107,208
1,41,115,36
1,46,107,32
1,39,107,32
1,36,111,14
1,44,107,98
1,41,111,8
1,46,115,0
1,49,107,80
1,42,107,144
1,47,115,118
1,42,111,22
1,37,107,102
1,42,111,2
1,47,115,144
1,42,107,36
1,41,111,196
1,41,87,78
1,46,107,46
1,34,99,32
1,39,103,48
1,36,115,208
1,44,107,210
1,41,115,36
1,46,107,32
1,39,107,34
1,36,111,18
1,44,107,100
1,41,111,6
1,46,115,0
1,49,107,84
1,42,107,146
1,47,115,114
1,42,111,20
1,37,107,94
1,42,111,4
1,47,115,146
1,42,107,34
1,41,111,192
1,41,87,78
1,46,107,48
1,46,99,34
1,46,107,46
1,39,107,16
1,44,111,242
1,46,111,1394
1,39,103,264
1,44,111,304
1,46,107,1076
1,34,103,142
1,39,107,2
1,51,91,0
1,44,115,326
1,39,103,178
1,37,107,4
1,44,111,16
1,43,115,210
1,47,111,80
1,48,111,36
1,36,115,178
1,41,103,180
1,45,95,112
1,46,111,4
1,34,111,18
1,39,103,84
1,36,115,208
1,44,107,214
1,41,115,34
1,46,107,34
1,39,107,32
1,36,111,4
1,44,107,102
1,41,111,2
1,46,115,6
1,49,107,86
1,42,107,146
1,47,115,120
1,42,111,16
1,37,107,96
1,42,111,2
1,47,115,144
1,42,107,36
1,41,111,196
1,41,87,80
1,46,107,50
1,46,99,36
1,39,103,48
1,36,115,212
1,44,107,210
1,41,115,34
1,46,107,34
1,39,107,34
1,36,111,0
1,44,107,96
1,41,111,0
1,46,115,0
1,49,107,86
1,42,107,142
1,47,115,120
1,42,111,24
1,37,107,106
1,42,111,8
1,47,115,152
1,42,107,34
1,41,111,192
1,41,87,88
1,46,107,54
1,46,99,32
1,46,107,48
1,39,107,22
1,44,111,248
1,46,111,1392
1,39,103,262
1,44,111,306
1,46,107,1078
1,34,103,142
1,39,107,2
1,51,91,2
1,44,115,322
1,39,103,176
1,37,107,0
1,44,111,26
1,43,115,212
1,47,111,84
1,48,111,34
1,36,115,178
1,41,103,178
1,45,95,112
1,46,111,4
1,34,111,16
1,39,103,84
1,36,115,208
1,44,107,210
1,41,115,34
1,46,107,36
1,39,107,34
1,36,111,20
1,44,107,98
1,41,111,0
1,46,115,8
1,39,103,80
1,36,115,210
1,44,107,212
1,41,115,34
1,46,107,32
1,39,103,36
1,36,115,208
1,44,107,212
1,41,115,32
1,46,107,36
1,39,107,32
1,36,111,16
1,44,107,100
1,41,111,6
1,46,115,8
1,39,107,84
2,77,79,382
2,75,39,0
2,74,79,624
2,72,43,0
2,80,47,20
2,72,43,382
2,75,27,2
2,79,35,0
2,77,27,4
2,75,23,0
2,74,11,2
2,77,79,534
2,75,39,0
2,74,79,626
2,72,43,2
2,80,47,22
2,72,43,378
2,75,27,6
2,79,35,2
2,77,27,4
2,77,79,726
2,75,39,6
2,74,79,628
2,72,43,0
2,80,47,20
2,72,43,384
2,75,27,8
2,79,35,0
2,77,27,0
2,77,79,722
2,75,39,4
2,74,79,626
2,72,43,0
2,80,47,18
2,72,43,382
2,75,27,4
2,79,35,0
2,77,31,0
2,76,47,0
2,78,43,4
2,73,47,0
2,75,43,6
2,73,31,6
2,71,31,0
2,70,43,2
2,68,47,2
2,70,55,2
2,71,51,4
2,76,47,6
2,78,43,2
2,73,47,2
2,75,43,6
2,73,27,6
2,71,27,0
2,68,35,4
2,70,51,0
2,71,51,0
2,73,43,0
2,75,31,4
2,74,15,0
2,77,79,756
2,75,39,0
2,74,79,628
2,72,43,4
2,80,47,16
2,72,43,384
2,75,27,4
2,79,35,4
2,77,27,0
2,77,79,724
2,75,39,6
2,74,79,630
2,72,43,2
2,80,47,20
2,72,43,382
2,75,27,4
2,79,35,0
2,77,31,0
2,76,47,6
2,78,43,4
2,73,47,0
2,75,43,2
2,73,31,6
2,71,31,0
2,70,43,6
2,68,47,0
2,70,55,0
2,71,51,0
2,76,47,0
2,78,43,2
2,73,47,2
2,75,43,2
2,73,27,2
2,71,27,0
2,68,35,0
2,70,51,0
2,71,51,0
2,73,43,2
2,75,31,0
2,74,15,0
2,73,31,386
2,75,31,2
2,79,31,0
2,77,35,0
2,75,23,0
2,77,7,0
2,79,3,2
2,80,27,0
2,82,11,2
2,84,39,0
2,85,55,0
2,84,31,0
2,82,31,2
2,80,15,0
2,79,15,0
2,77,11,0
2,75,11,2
2,73,15,0
2,72,3,4
2,70,11,2
2,68,3,4
2,67,3,4
2,73,31,98
2,75,31,8
2,79,31,2
2,77,35,18
2,75,23,0
2,77,7,2
2,79,3,2
2,80,27,20
2,82,11,0
2,84,39,0
2,85,55,4
2,84,31,4
2,82,31,2
2,80,15,4
2,79,15,2
2,77,11,2
2,75,11,12
2,73,15,2
2,72,3,0
2,70,11,0
2,68,3,0
2,67,3,0
2,68,35,86
2,67,31,4
2,67,31,6
2,65,31,6
2,65,31,70
2,64,31,6
2,63,31,6
2,62,23,4
2,77,79,772
2,75,39,0
2,74,79,626
2,72,43,2
2,80,47,22
2,72,43,384
2,79,35,0
2,75,27,0
2,77,27,4
2,77,79,728
2,75,39,4
2,74,79,626
2,72,43,0
2,80,47,22
2,72,43,378
2,79,35,0
2,75,27,0
2,77,31,4
2,76,47,6
2,78,43,2
2,73,47,2
2,75,43,6
2,73,31,0
2,71,31,0
2,70,43,6
2,68,47,2
2,70,55,4
2,71,51,2
2,76,47,6
2,78,43,0
2,73,47,0
2,75,43,0
2,73,27,6
2,71,27,0
2,68,35,6
2,70,51,0
2,71,51,2
2,73,43,0
2,75,31,6
2,74,15,4
2,77,79,580
2,75,39,8
2,74,79,628
2,72,43,0
2,80,47,18
2,72,43,382
2,79,35,0
2,75,27,0
2,77,27,0
2,77,79,722
2,75,39,8
2,74,79,626
2,72,43,0
2,72,23,400
2,75,31,8
2,77,31,0
2,79,35,8
2,82,35,0
2,83,43,8
2,82,35,0
2,83,43,0
2,82,39,0
2,82,27,8
2,80,43,0
2,82,27,8
2,80,35,2
2,83,31,42
2,82,27,4
2,83,23,10
2,82,27,6
2,82,27,8
2,80,27,2
2,82,23,0
2,80,23,0
2,80,27,32
2,78,15,2
2,80,23,8
2,78,15,18
2,78,19,22
2,77,11,0
2,78,15,0
2,77,3,0
2,73,31,82
2,75,31,8
2,79,31,2
2,77,35,0
2,75,23,2
2,77,7,4
2,79,3,2
2,80,27,16
2,82,11,2
2,84,39,2
2,85,55,6
2,84,31,2
2,82,31,0
2,80,15,2
2,79,15,4
2,77,11,0
2,75,11,0
2,73,15,2
2,72,3,0
2,70,11,4
2,68,3,14
2,67,3,2
2,73,31,98
2,75,31,6
2,79,31,2
2,77,35,4
2,75,23,0
2,77,7,2
2,79,3,2
2,80,27,2
2,82,11,0
2,84,39,2
2,85,55,2
2,84,31,0
2,82,31,2
2,80,15,2
2,79,15,0
2,77,11,2
2,75,11,18
2,73,15,0
2,72,3,4
2,70,11,0
2,68,3,2
2,67,3,2
2,68,35,86
2,67,31,0
2,67,31,2
2,65,31,0
2,65,31,66
2,64,31,0
2,63,31,2
2,62,23,4
2,77,79,770
2,75,39,2
2,74,79,624
2,72,43,2
2,80,47,16
2,72,43,384
2,79,35,0
2,75,27,0
2,77,27,8
2,77,79,722
2,75,39,8
2,74,79,630
2,72,43,0
2,80,47,18
2,72,43,386
2,79,35,0
2,75,27,0
2,77,27,6
2,77,79,728
2,75,39,0
2,74,79,632
2,72,43,4
2,80,47,16
2,72,43,388
2,75,27,8
2,79,35,0
2,77,27,0
2,77,79,724
2,75,39,0
2,74,79,626
2,72,43,4
2,80,47,18
2,72,43,382
2,79,35,0
2,75,27,0
2,77,27,2
2,77,79,720
2,75,39,6
2,74,79,628
2,72,43,4
2,80,47,18
2,72,43,380
2,75,27,6
2,79,35,0
2,77,27,4
2,77,39,342
2,75,15,2
3,63,91,0
3,58,55,16
3,63,87,64
3,67,71,48
3,60,95,20
3,60,55,82
3,63,87,48
3,67,71,46
3,56,91,710
3,63,47,300
3,68,79,48
3,72,75,48
3,58,91,2
3,62,67,352
3,65,71,48
3,70,55,48
3,63,91,2
3,58,55,32
3,63,87,48
3,67,71,48
3,60,95,16
3,60,55,82
3,63,87,46
3,67,71,50
3,56,91,708
3,63,47,304
3,68,79,46
3,72,75,48
3,58,91,4
3,62,67,350
3,65,71,50
3,70,55,48
3,63,87,2
3,60,83,4
3,62,67,398
3,60,75,2896
3,63,87,2
3,60,87,0
3,62,63,256
3,64,75,320
3,66,63,0
3,61,71,36
3,63,67,4
3,61,91,4
3,59,83,0
3,58,87,4
3,56,95,0
3,58,79,0
3,59,67,2
3,64,79,6
3,66,79,4
3,61,67,2
3,63,67,6
3,61,87,6
3,59,63,0
3,56,75,2
3,58,55,0
3,59,71,16
3,61,71,0
3,63,63,4
3,57,79,2
3,57,63,642
3,62,55,288
3,56,63,0
3,56,35,624
3,63,87,2882
3,60,83,0
3,62,67,402
3,60,75,2898
3,63,87,2
3,60,87,0
3,62,63,258
3,64,75,324
3,66,63,0
3,61,71,30
3,63,67,0
3,61,91,6
3,59,83,0
3,58,87,6
3,56,95,0
3,58,79,0
3,59,67,0
3,64,79,0
3,66,79,0
3,61,67,2
3,63,67,0
3,61,87,0
3,59,63,0
3,56,75,0
3,58,55,0
3,59,71,12
3,61,71,0
3,63,63,0
3,57,79,0
3,57,63,642
3,62,55,288
3,56,63,4
3,56,35,624
3,58,55,580
3,65,67,2
3,68,75,0
3,67,71,0
3,58,55,0
3,67,35,2
3,63,43,0
3,56,55,0
3,77,43,764
3,79,39,2
3,80,63,0
3,82,51,18
3,84,79,0
3,85,95,0
3,84,67,0
3,82,67,0
3,80,51,14
3,79,51,4
3,77,47,0
3,75,47,0
3,73,51,0
3,72,39,4
3,70,47,0
3,68,31,14
3,67,31,4
3,65,67,466
3,58,55,0
3,68,75,0
3,65,75,2
3,58,55,6
3,67,71,0
3,65,71,6
3,63,67,2
3,67,35,0
3,63,43,0
3,56,55,0
3,77,43,774
3,79,39,4
3,80,63,0
3,82,51,0
3,84,79,0
3,85,95,6
3,84,67,2
3,82,67,0
3,80,51,4
3,79,51,2
3,77,47,0
3,75,47,0
3,73,51,2
3,72,39,0
3,70,47,4
3,68,31,18
3,67,31,0
3,68,43,4
3,67,35,4
3,67,15,504
3,75,59,4
3,63,43,0
3,77,51,0
3,65,51,0
3,67,47,2
3,79,67,2
3,68,55,2
3,80,79,0
3,82,83,0
3,70,63,0
3,84,79,0
3,72,47,0
3,75,71,0
3,87,75,4
3,80,71,4
3,92,67,0
3,87,83,0
3,75,63,0
3,73,51,0
3,85,79,2
3,72,43,0
3,84,63,2
3,62,51,4
3,71,63,0
3,83,55,0
3,83,43,0
3,67,67,2
3,71,71,0
3,60,47,4
3,70,51,2
3,82,39,0
3,91,43,0
3,79,39,0
3,82,63,0
3,70,35,0
3,60,47,4
3,69,39,0
3,81,39,0
3,77,27,2
3,89,23,0
3,81,51,0
3,69,55,0
3,58,47,4
3,68,27,0
3,80,23,2
3,67,63,770
3,65,47,0
3,63,63,0
3,67,63,772
3,65,47,0
3,63,63,0
3,63,87,710
3,60,83,0
3,62,67,404
3,63,63,598
3,65,47,2
3,67,63,0
3,67,63,766
3,65,47,0
3,63,63,0
3,60,75,706
3,63,87,0
3,60,87,2
3,62,63,256
3,64,75,326
3,66,63,0
3,61,71,36
3,63,67,4
3,61,91,0
3,59,83,0
3,58,87,4
3,56,95,0
3,58,79,4
3,59,67,4
3,64,79,8
3,66,79,0
3,61,67,0
3,63,67,0
3,61,87,6
3,59,63,0
3,56,75,6
3,58,55,0
3,59,71,36
3,61,71,0
3,63,63,4
3,57,79,4
3,57,63,640
3,62,55,296
3,56,63,4
3,56,35,626
3,67,63,580
3,65,47,0
3,63,63,0
3,65,47,768
3,63,63,0
3,67,63,8
3,63,87,702
3,60,83,0
3,62,67,402
3,65,47,594
3,63,63,0
3,67,63,8
3,67,63,762
3,65,47,0
3,63,63,0
3,72,23,688
3,60,55,0
3,63,75,10
3,75,39,0
3,77,43,0
3,65,87,0
3,67,79,6
3,79,39,2
3,82,47,0
3,70,71,0
3,71,75,6
3,76,55,2
3,80,55,0
3,83,63,0
3,82,47,0
3,80,51,0
3,76,51,0
3,70,75,0
3,78,67,0
3,76,59,0
3,71,79,0
3,83,55,16
3,70,67,0
3,76,51,10
3,78,51,0
3,82,43,2
3,70,79,10
3,75,71,0
3,78,63,2
3,82,55,0
3,78,51,0
3,75,63,0
3,68,71,0
3,80,31,22
3,70,87,6
3,75,63,0
3,78,63,0
3,82,47,10
3,68,75,6
3,75,51,0
3,78,31,0
3,80,27,0
3,71,87,6
3,76,59,0
3,80,43,2
3,83,47,6
3,70,63,4
3,76,63,2
3,82,51,10
3,80,51,0
3,71,87,10
3,76,63,2
3,78,59,0
3,83,55,2
3,70,59,2
3,76,59,0
3,78,63,2
3,82,51,0
3,70,67,8
3,75,55,0
3,78,55,2
3,82,39,0
3,68,55,0
3,75,47,0
3,78,31,0
3,80,51,8
3,82,47,0
3,78,43,0
3,75,55,0
3,70,87,0
3,80,35,0
3,78,43,0
3,75,43,0
3,68,47,0
3,80,35,0
3,72,67,0
3,68,67,0
3,66,51,2
3,78,39,0
3,68,51,6
3,72,59,2
3,80,31,0
3,78,31,0
3,66,51,0
3,66,15,6
3,71,59,0
3,78,35,0
3,77,3,0
3,65,39,0
3,78,3,0
3,70,51,0
3,66,51,0
3,65,23,4
3,68,63,2
3,77,3,0
3,65,67,386
3,58,55,0
3,68,75,0
3,58,55,6
3,67,71,0
3,56,55,6
3,63,43,0
3,67,35,0
3,77,43,764
3,79,39,0
3,80,63,2
3,82,51,0
3,84,79,4
3,85,95,6
3,84,67,0
3,82,67,0
3,80,51,0
3,79,51,2
3,77,47,0
3,75,47,0
3,73,51,0
3,72,39,0
3,70,47,2
3,68,31,14
3,67,31,0
3,65,67,462
3,58,55,0
3,68,75,0
3,65,75,0
3,58,55,0
3,67,71,4
3,65,71,0
3,63,67,2
3,56,55,6
3,63,43,0
3,67,35,2
3,77,43,760
3,79,39,2
3,80,63,0
3,82,51,0
3,84,79,2
3,85,95,0
3,84,67,0
3,82,67,2
3,80,51,2
3,79,51,0
3,77,47,2
3,75,47,0
3,73,51,0
3,72,39,2
3,70,47,0
3,68,31,14
3,67,31,0
3,68,43,6
3,67,35,0
3,67,15,498
3,75,59,4
3,63,43,0
3,65,51,6
3,77,51,0
3,67,47,2
3,79,67,0
3,80,79,0
3,68,55,0
3,70,63,2
3,82,83,2
3,72,47,4
3,84,79,0
3,87,75,0
3,75,71,0
3,92,67,0
3,80,71,0
3,87,83,0
3,75,63,0
3,85,79,0
3,73,51,0
3,84,63,2
3,72,43,0
3,83,55,0
3,71,63,0
3,62,51,0
3,83,43,0
3,67,67,0
3,71,71,0
3,60,47,6
3,70,51,2
3,82,39,0
3,91,43,0
3,79,39,0
3,70,35,0
3,82,63,2
3,81,39,0
3,69,39,0
3,60,47,0
3,77,27,0
3,89,23,2
3,81,51,0
3,69,55,0
3,58,47,8
3,68,27,0
3,80,23,2
3,67,63,766
3,65,47,0
3,63,63,0
3,67,63,770
3,65,47,0
3,63,63,0
3,63,87,706
3,60,83,0
3,62,67,400
3,67,63,592
3,65,47,0
3,63,63,0
3,63,63,770
3,65,47,0
3,67,63,2
3,60,75,708
3,63,87,0
3,60,87,0
3,62,63,256
3,63,63,714
3,65,47,0
3,67,63,2
3,63,63,774
3,65,47,0
3,67,63,0
3,63,87,710
3,60,83,2
3,62,67,398
3,67,63,594
3,65,47,0
3,63,63,0
3,67,63,770
3,65,47,0
3,63,63,0
3,63,87,694
3,60,83,0
3,62,67,398
3,67,63,592
3,65,47,0
3,63,63,0
3,67,63,766
3,65,47,0
3,63,63,0
3,60,75,708
3,63,87,2
3,60,87,0
3,62,63,258
3,67,51,702
3,65,35,0
3,63,51,0
3,67,51,0
3,63,43,0
3,58,43,0
4,77,55,0
