track,note,velocity,time
0,46,85,695
0,46,0,4
0,55,127,54
0,62,127,18
0,50,64,15
0,55,64,0
0,59,64,0
0,55,84,1
0,55,105,0
0,67,127,3
0,31,92,1
0,67,61,0
0,36,114,0
0,42,100,0
0,57,64,0
0,36,0,4
0,42,0,0
0,57,0,0
0,71,127,19
0,31,0,25
0,67,0,7
0,55,0,35
0,55,0,0
0,57,84,2
0,57,105,0
0,71,0,0
0,55,0,2
0,62,0,0
0,67,0,0
0,31,92,2
0,42,55,0
0,55,127,0
0,62,91,0
0,67,91,0
0,69,61,0
0,69,57,0
0,71,79,0
0,62,127,2
0,42,0,2
0,67,127,0
0,69,0,0
0,71,127,3
0,62,0,15
0,67,0,0
0,71,0,0
0,69,0,21
0,69,31,5
0,69,0,4
0,71,0,31
0,67,0,5
0,57,0,2
0,57,0,0
0,59,84,2
0,59,105,0
0,62,0,0
0,54,91,1
0,31,0,2
0,35,92,1
0,36,114,0
0,40,114,0
0,42,99,0
0,55,0,0
0,71,61,0
0,54,0,1
0,36,0,3
0,40,0,0
0,42,0,0
0,71,0,44
0,59,0,42
0,59,0,0
0,55,127,2
0,62,84,0
0,62,105,0
0,35,0,3
0,38,92,1
0,42,55,0
0,62,86,0
0,62,127,0
0,67,96,0
0,69,57,0
0,71,86,0
0,74,61,0
0,42,0,4
0,67,127,0
0,69,0,0
0,71,127,3
0,62,0,15
0,67,0,0
0,71,0,0
0,74,0,19
0,69,31,7
0,69,0,4
0,62,0,38
0,62,0,0
0,71,0,2
0,38,0,3
0,31,92,1
0,36,114,0
0,42,99,0
0,55,84,0
0,67,0,0
0,36,0,4
0,42,0,0
0,62,0,0
0,55,0,5
0,31,0,39
0,55,127,45
0,55,0,1
0,31,92,2
0,42,55,0
0,57,84,0
0,62,96,0
0,67,96,0
0,69,56,0
0,71,86,0
0,62,127,1
0,42,0,3
0,69,0,0
0,67,127,1
0,71,127,3
0,62,0,14
0,67,0,0
0,71,0,0
0,69,31,26
0,69,0,4
0,71,0,34
0,67,0,1
0,62,0,3
0,55,0,2
0,54,91,1
0,57,0,1
0,31,0,1
0,36,92,1
0,36,114,0
0,40,114,0
0,42,99,0
0,55,127,0
0,59,84,0
0,62,60,0
0,62,127,0
0,67,65,0
0,71,63,0
0,54,0,1
0,67,127,1
0,71,127,0
0,36,0,2
0,40,0,0
0,42,0,0
0,62,0,18
0,67,0,0
0,71,0,0
0,62,0,59
0,55,0,5
0,55,118,1
0,67,0,1
0,62,118,4
0,59,0,2
0,71,0,0
0,36,0,1
0,67,118,0
0,38,92,1
0,42,55,0
0,62,86,0
0,62,84,0
0,67,91,0
0,69,56,0
0,71,79,0
0,55,0,2
0,42,0,2
0,69,0,0
0,71,118,0
0,62,0,18
0,67,0,0
0,71,0,0
0,69,30,26
0,69,0,4
0,71,0,35
0,67,0,3
0,79,84,2
0,79,94,0
0,62,0,2
0,38,0,1
0,62,0,0
0,31,92,1
0,36,114,0
0,42,98,0
0,91,61,0
0,36,0,4
0,42,0,0
0,31,0,44
0,91,0,1
0,55,114,37
0,79,0,4
0,79,0,0
0,62,127,1
0,81,84,1
0,81,94,0
0,31,92,4
0,42,56,0
0,62,86,0
0,67,91,0
0,67,126,0
0,69,56,0
0,71,76,0
0,93,61,0
0,71,125,1
0,42,0,3
0,69,0,0
0,62,0,18
0,67,0,0
0,71,0,0
0,93,0,19
0,69,31,7
0,69,0,4
0,81,0,38
0,81,0,0
0,71,0,1
0,83,84,1
0,83,94,0
0,54,91,1
0,55,0,1
0,67,0,0
0,31,0,1
0,36,92,1
0,36,114,0
0,40,114,0
0,42,98,0
0,62,0,0
0,95,61,0
0,54,0,1
0,36,0,3
0,40,0,0
0,42,0,0
0,95,0,44
0,55,127,42
0,83,0,0
0,83,0,0
0,86,84,2
0,86,94,0
0,36,0,3
0,62,127,0
0,38,92,1
0,42,55,0
0,62,86,0
0,67,91,0
0,69,56,0
0,71,73,0
0,98,70,0
0,42,0,4
0,67,127,0
0,69,0,0
0,71,127,4
0,62,0,14
0,67,0,0
0,71,0,0
0,98,0,22
0,69,31,4
0,69,0,4
0,86,0,38
0,86,0,0
0,38,0,5
0,31,92,1
0,36,114,0
0,42,98,0
0,79,84,0
0,71,0,1
0,36,0,3
0,42,0,0
0,67,0,1
0,62,0,5
0,55,0,6
0,31,0,32
0,55,127,43
0,79,0,3
0,31,92,2
0,42,54,0
0,62,86,0
0,67,82,0
0,69,56,0
0,71,73,0
0,81,84,0
0,42,0,4
0,62,127,0
0,69,0,0
0,67,127,4
0,71,127,3
0,62,0,11
0,67,0,0
0,71,0,0
0,69,31,26
0,69,0,4
0,54,96,41
0,81,0,1
0,31,0,1
0,55,0,0
0,71,0,0
0,33,92,1
0,36,114,0
0,40,114,0
0,42,97,0
0,55,127,0
0,62,58,0
0,67,60,0
0,71,58,0
0,83,84,0
0,54,0,1
0,62,0,1
0,67,0,0
0,36,0,2
0,40,0,0
0,42,0,0
0,62,127,1
0,55,0,1
0,67,127,4
0,71,127,4
0,62,0,8
0,67,0,0
0,71,0,0
0,83,0,72
0,33,0,1
0,35,92,1
0,46,89,0
0,62,82,0
0,67,82,0
0,69,56,0
0,71,73,0
0,86,84,0
0,46,0,4
0,69,0,0
0,71,0,3
0,67,0,4
0,62,0,5
0,62,0,6
0,67,0,0
0,71,0,0
0,69,30,26
0,69,0,4
0,59,0,3
0,55,0,5
0,50,0,3
0,50,64,28
0,54,64,0
0,57,64,0
0,74,84,1
0,74,94,0
0,86,0,2
0,35,0,1
0,26,92,1
0,36,114,0
0,42,100,0
0,57,127,0
0,86,61,0
0,62,127,2
0,36,0,2
0,42,0,0
0,66,127,0
0,69,127,3
0,26,0,41
0,86,0,0
0,69,0,35
0,66,0,5
0,74,0,2
0,74,0,0
0,62,0,2
0,76,84,0
0,76,94,0
0,57,0,3
0,26,92,1
0,42,55,0
0,57,127,0
0,62,73,0
0,66,81,0
0,69,82,0
0,69,57,0
0,88,61,0
0,57,0,1
0,62,127,1
0,42,0,2
0,66,127,0
0,69,0,0
0,69,127,3
0,62,0,15
0,66,0,0
0,69,0,0
0,88,0,14
0,69,31,12
0,69,0,4
0,69,0,31
0,66,0,5
0,76,0,2
0,76,0,0
0,62,0,2
0,78,84,0
0,78,94,0
0,54,91,1
0,26,0,2
0,30,92,1
0,36,114,0
0,40,114,0
0,42,99,0
0,90,61,0
0,54,0,1
0,36,0,3
0,40,0,0
0,42,0,0
0,90,0,36
0,78,0,50
0,78,0,0
0,57,127,2
0,81,84,0
0,81,94,0
0,30,0,3
0,33,92,1
0,42,55,0
0,62,73,0
0,62,127,0
0,66,97,0
0,69,76,0
0,69,57,0
0,93,70,0
0,42,0,4
0,66,127,0
0,69,0,0
0,69,127,3
0,62,0,15
0,66,0,0
0,69,0,0
0,93,0,23
0,69,31,3
0,69,0,4
0,81,0,38
0,81,0,0
0,69,0,2
0,33,0,3
0,26,92,1
0,36,114,0
0,42,99,0
0,66,0,0
0,74,84,0
0,36,0,4
0,42,0,0
0,62,0,0
0,57,0,5
0,26,0,39
0,57,127,45
0,74,0,1
0,26,92,2
0,42,55,0
0,62,76,0
0,66,88,0
0,69,70,0
0,69,56,0
0,76,84,0
0,62,127,1
0,42,0,3
0,69,0,0
0,66,127,1
0,69,127,3
0,62,0,14
0,66,0,0
0,69,0,0
0,69,31,26
0,69,0,4
0,69,0,34
0,66,0,1
0,62,0,3
0,57,0,2
0,54,91,1
0,76,0,1
0,26,0,1
0,30,92,1
0,36,114,0
0,40,114,0
0,42,99,0
0,62,52,0
0,66,58,0
0,66,127,0
0,69,60,0
0,69,127,0
0,78,84,0
0,54,0,1
0,57,127,1
0,62,127,0
0,36,0,2
0,40,0,0
0,42,0,0
0,62,0,18
0,66,0,0
0,69,0,0
0,66,0,59
0,57,0,5
0,57,118,1
0,62,0,1
0,62,118,4
0,57,0,2
0,78,0,0
0,30,0,1
0,66,118,0
0,33,92,1
0,42,55,0
0,62,73,0
0,66,97,0
0,69,68,0
0,69,56,0
0,81,84,0
0,69,0,2
0,42,0,2
0,69,118,0
0,69,0,0
0,62,0,18
0,66,0,0
0,69,0,0
0,54,0,11
0,50,0,4
0,69,30,11
0,57,0,1
0,69,0,3
0,69,0,35
0,66,0,3
0,48,64,1
0,52,64,0
0,55,64,0
0,72,84,1
0,72,94,0
0,81,0,2
0,33,0,1
0,62,0,0
0,24,92,1
0,36,114,0
0,42,98,0
0,55,114,0
0,84,61,0
0,36,0,4
0,42,0,0
0,60,127,0
0,64,126,5
0,67,125,2
0,84,0,36
0,24,0,1
0,55,0,37
0,55,114,1
0,60,0,4
0,72,0,0
0,72,0,0
0,60,127,1
0,74,84,1
0,74,94,0
0,64,0,3
0,24,92,1
0,42,56,0
0,60,82,0
0,64,82,0
0,64,126,0
0,67,82,0
0,67,0,0
0,69,56,0
0,86,61,0
0,67,125,1
0,42,0,3
0,69,0,0
0,67,0,1
0,55,0,3
0,64,0,0
0,60,0,1
0,60,0,13
0,64,0,0
0,67,0,0
0,86,0,21
0,69,31,5
0,69,0,4
0,74,0,38
0,74,0,0
0,76,84,2
0,76,94,0
0,54,91,1
0,24,0,2
0,28,92,1
0,36,114,0
0,40,114,0
0,42,98,0
0,88,61,0
0,54,0,1
0,36,0,3
0,40,0,0
0,42,0,0
0,88,0,38
0,55,127,48
0,76,0,0
0,76,0,0
0,79,84,2
0,79,94,0
0,28,0,3
0,60,127,0
0,31,92,1
0,42,55,0
0,60,79,0
0,64,82,0
0,67,82,0
0,69,56,0
0,91,70,0
0,42,0,4
0,64,127,0
0,69,0,0
0,67,127,4
0,60,0,14
0,64,0,0
0,67,0,0
0,91,0,18
0,69,31,8
0,69,0,4
0,79,0,38
0,79,0,0
0,60,64,1
0,76,84,1
0,31,0,3
0,24,92,1
0,36,114,0
0,42,98,0
0,76,84,0
0,88,61,0
0,67,0,1
0,36,0,3
0,42,0,0
0,64,0,1
0,60,0,5
0,55,0,6
0,88,0,29
0,24,0,3
0,76,0,27
0,55,0,15
0,55,64,1
0,55,127,0
0,60,0,1
0,79,84,0
0,76,0,2
0,24,92,2
0,42,54,0
0,60,86,0
0,64,86,0
0,67,91,0
0,69,56,0
0,79,84,0
0,91,61,0
0,42,0,4
0,60,127,0
0,69,0,0
0,64,127,4
0,67,127,3
0,60,0,11
0,64,0,0
0,67,0,0
0,91,0,14
0,69,31,12
0,69,0,4
0,79,0,32
0,52,0,6
0,52,64,1
0,55,0,0
0,81,84,1
0,54,96,1
0,79,0,1
0,24,0,1
0,55,0,0
0,67,0,0
0,33,92,1
0,36,114,0
0,40,114,0
0,42,97,0
0,55,127,0
0,57,64,0
0,60,56,0
0,64,49,0
0,67,56,0
0,81,84,0
0,93,62,0
0,54,0,1
0,60,0,1
0,64,0,0
0,36,0,2
0,40,0,0
0,42,0,0
0,57,0,0
0,60,127,1
0,55,0,1
0,64,127,4
0,67,127,4
0,60,0,8
0,64,0,0
0,67,0,0
0,93,0,23
0,81,0,33
0,81,0,16
0,52,0,1
0,46,89,1
0,60,79,0
0,64,82,0
0,67,82,0
0,69,56,0
0,46,0,4
0,69,0,0
0,67,0,3
0,64,0,4
0,60,0,5
0,60,0,6
0,64,0,0
0,67,0,0
0,48,0,10
0,33,0,16
0,69,30,0
0,69,0,4
0,55,127,6
0,62,127,18
0,50,59,15
0,55,64,0
0,59,64,0
0,79,84,1
0,67,127,3
0,31,92,1
0,36,114,0
0,42,100,0
0,49,64,0
0,79,84,0
0,91,61,0
0,36,0,4
0,42,0,0
0,49,0,0
0,71,127,19
0,91,0,22
0,31,0,3
0,71,0,44
0,55,0,2
0,62,0,0
0,67,0,0
0,31,92,2
0,42,55,0
0,55,127,0
0,59,123,0
0,69,57,0
0,62,127,2
0,42,0,2
0,67,127,0
0,69,0,0
0,71,127,3
0,69,31,41
0,69,0,4
0,71,0,31
0,67,0,5
0,62,0,4
0,54,91,1
0,31,0,2
0,36,114,1
0,38,92,0
0,40,114,0
0,42,99,0
0,55,0,0
0,57,86,0
0,54,0,1
0,36,0,3
0,40,0,0
0,42,0,0
0,59,0,0
0,55,127,88
0,38,0,3
0,40,92,1
0,42,55,0
0,55,91,0
0,62,127,0
0,69,57,0
0,42,0,4
0,67,127,0
0,69,0,0
0,57,0,3
0,71,127,0
0,69,31,41
0,69,0,4
0,55,0,33
0,71,0,7
0,79,0,2
0,40,0,1
0,31,92,1
0,36,114,0
0,42,99,0
0,62,91,0
0,67,0,0
0,79,0,1
0,36,0,3
0,42,0,0
0,62,0,0
0,55,0,5
0,50,0,38
0,31,0,1
0,50,57,43
0,55,127,2
0,31,92,3
0,42,55,0
0,55,96,0
0,69,56,0
0,62,127,1
0,42,0,3
0,69,0,0
0,67,127,1
0,71,127,3
0,69,31,40
0,69,0,4
0,71,0,34
0,67,0,1
0,55,0,2
0,62,0,1
0,48,57,1
0,55,0,1
0,54,91,1
0,31,0,2
0,36,114,1
0,38,92,0
0,40,114,0
0,42,99,0
0,45,63,0
0,55,127,0
0,57,82,0
0,62,127,0
0,50,0,1
0,54,0,0
0,67,127,1
0,71,127,0
0,36,0,2
0,40,0,0
0,42,0,0
0,62,0,77
0,55,0,5
0,55,118,1
0,67,0,1
0,62,118,4
0,71,0,2
0,38,0,1
0,67,118,0
0,40,92,1
0,42,55,0
0,55,79,0
0,69,56,0
0,55,0,2
0,57,0,1
0,42,0,1
0,69,0,0
0,71,118,0
0,69,30,44
0,69,0,4
0,71,0,35
0,55,0,2
0,59,0,0
0,67,0,1
0,47,54,1
0,55,54,0
0,59,54,0
0,55,0,1
0,62,0,2
0,40,0,1
0,45,0,0
0,62,0,0
0,31,92,1
0,36,114,0
0,42,98,0
0,43,65,0
0,62,86,0
0,36,0,4
0,42,0,0
0,48,0,1
0,31,0,43
0,55,114,38
0,62,127,5
0,31,92,5
0,42,56,0
0,59,101,0
0,67,126,0
0,69,56,0
0,71,125,1
0,42,0,3
0,69,0,0
0,62,0,10
0,69,31,34
0,69,0,4
0,71,0,39
0,54,91,2
0,55,0,1
0,67,0,0
0,31,0,1
0,36,114,1
0,38,92,0
0,40,114,0
0,42,98,0
0,57,96,0
0,62,0,0
0,54,0,1
0,36,0,3
0,40,0,0
0,42,0,0
0,59,0,1
0,55,127,85
0,38,0,5
0,62,127,0
0,40,92,1
0,42,55,0
0,55,91,0
0,69,56,0
0,57,0,1
0,42,0,3
0,67,127,0
0,69,0,0
0,71,127,4
0,69,31,40
0,69,0,4
0,43,0,19
0,40,0,24
0,55,0,0
0,35,92,1
0,36,114,0
0,42,98,0
0,62,96,0
0,71,0,1
0,36,0,3
0,42,0,0
0,67,0,1
0,62,0,5
0,55,0,6
0,55,127,75
0,35,0,4
0,33,92,1
0,42,54,0
0,55,86,0
0,69,56,0
0,42,0,4
0,62,127,0
0,69,0,0
0,67,127,4
0,71,127,3
0,69,31,37
0,69,0,4
0,55,0,38
0,54,96,3
0,33,0,2
0,55,0,0
0,71,0,0
0,31,92,1
0,36,114,0
0,40,114,0
0,42,97,0
0,45,65,0
0,55,127,0
0,57,86,0
0,54,0,1
0,62,0,1
0,67,0,0
0,36,0,2
0,40,0,0
0,42,0,0
0,62,127,1
0,55,0,1
0,67,127,4
0,71,127,4
0,57,0,77
0,31,0,4
0,33,92,1
0,40,114,0
0,46,89,0
0,55,76,0
0,69,56,0
0,40,0,4
0,46,0,0
0,69,0,0
0,71,0,3
0,67,0,4
0,62,0,5
0,47,0,21
0,69,30,11
0,69,0,4
0,55,0,3
0,59,0,2
0,55,127,1
0,62,0,9
0,62,127,9
0,55,0,6
0,45,0,8
0,33,0,5
0,67,127,0
0,31,92,1
0,36,114,0
0,42,100,0
0,43,58,0
0,55,54,0
0,55,123,0
0,59,54,0
0,62,79,0
0,62,54,0
0,71,108,0
0,62,114,3
0,36,0,1
0,42,0,0
0,67,114,3
0,71,125,4
0,71,127,12
0,31,0,33
