track,note,velocity,time
1,36,92,68
1,36,101,40
1,31,106,1410
1,31,101,106
1,31,94,64
1,31,101,42
1,26,101,82
1,28,92,12
1,26,94,22
1,31,101,38
1,31,96,98
1,31,101,112
1,31,101,26
1,31,96,96
1,33,101,16
1,31,94,32
1,36,99,6
1,36,96,88
1,36,101,124
1,36,83,12
1,31,106,32
1,33,101,92
1,31,96,34
1,36,101,10
1,36,101,72
1,36,92,90
1,36,101,38
1,36,96,30
1,31,92,10
1,33,104,14
1,31,109,192
1,31,109,94
1,31,94,86
1,31,87,40
1,26,104,60
1,28,106,4
1,26,101,18
1,31,101,192
1,31,101,86
1,31,96,68
1,31,101,28
1,31,96,76
1,33,96,2
1,31,96,30
1,36,106,192
1,36,104,70
1,36,87,94
1,36,106,18
1,31,101,14
1,33,96,192
1,31,92,32
1,36,101,192
1,36,101,84
1,36,96,70
1,36,96,36
1,36,106,38
1,36,106,48
1,31,101,28
1,31,101,124
1,31,101,110
1,26,106,54
1,31,101,24
1,31,101,94
1,31,101,98
1,28,96,24
1,26,95,192
1,31,101,12
1,31,92,90
1,31,92,120
1,31,96,78
1,31,101,10
1,30,101,38
1,29,101,44
1,31,96,384
1,33,108,28
1,36,101,18
1,36,101,98
1,36,96,84
1,31,87,384
1,36,96,6
1,36,83,96
1,36,96,100
1,31,92,4
1,33,97,192
1,31,101,32
1,31,101,124
1,31,101,110
1,26,106,54
1,31,101,24
1,31,101,94
1,31,101,98
1,28,96,24
1,26,95,192
1,31,101,12
1,31,92,90
1,31,92,120
1,31,96,78
1,31,101,10
1,30,101,38
1,29,101,44
1,31,96,384
1,33,108,28
1,36,101,18
1,36,101,98
1,36,96,84
1,31,87,384
1,36,96,6
1,36,83,96
1,36,96,100
1,31,92,4
1,33,97,192
1,41,101,32
1,41,101,158
1,41,79,100
1,36,96,24
1,41,96,2
1,41,83,138
1,41,92,88
1,40,92,112
1,38,87,192
1,36,96,186
1,36,87,148
1,36,92,86
1,31,101,12
1,36,101,44
1,36,87,128
1,36,96,118
1,31,101,46
1,33,92,20
1,31,96,4
1,31,106,120
1,31,106,92
1,38,92,46
1,31,92,2
1,31,106,128
1,31,106,92
1,33,101,78
1,35,83,26
1,36,106,48
1,36,96,124
1,36,96,118
1,31,101,28
1,36,101,36
1,31,106,1310
1,31,101,106
1,31,94,64
1,31,101,42
1,26,101,82
1,28,92,12
1,26,94,22
1,31,101,38
1,31,96,98
1,31,101,112
1,31,101,26
1,31,96,96
1,33,101,16
1,31,94,32
1,36,99,6
1,36,96,88
1,36,101,124
1,36,83,12
1,31,106,32
1,33,101,92
1,31,96,34
1,36,101,10
1,36,101,72
1,36,92,90
1,36,101,38
1,36,96,30
1,31,92,10
1,33,104,14
1,31,109,192
1,31,109,94
1,31,94,86
1,31,87,40
1,26,104,60
1,28,106,4
1,26,101,18
1,31,101,192
1,31,101,86
1,31,96,68
1,31,101,28
1,31,96,76
1,33,96,2
1,31,96,30
1,36,106,192
1,36,104,70
1,36,87,94
1,36,106,18
1,31,101,14
1,33,96,192
1,31,92,32
1,36,101,192
1,36,101,84
1,36,96,70
1,36,96,36
1,36,106,38
1,36,106,48
1,41,106,28
1,41,104,70
1,41,87,94
1,41,106,18
1,36,101,14
1,38,96,192
1,36,92,32
1,41,101,192
1,41,101,84
1,41,96,70
1,41,96,36
1,41,106,38
1,41,106,48
1,36,106,28
1,36,104,70
1,36,87,94
1,36,106,18
1,31,101,14
1,33,96,192
1,31,92,32
1,36,101,192
1,36,101,84
1,36,96,70
1,36,96,36
1,36,106,38
1,36,106,48
1,31,109,28
1,31,109,94
1,31,94,86
1,31,87,40
1,26,104,60
1,28,106,4
1,26,101,18
1,31,101,192
1,31,101,86
1,31,96,68
1,31,101,28
1,31,96,76
1,33,96,2
1,31,96,30
1,36,106,192
1,36,104,70
1,36,87,94
1,36,106,18
1,31,101,14
1,33,96,192
1,31,92,32
1,36,101,192
1,36,101,84
1,36,96,70
1,38,86,36
1,36,106,20
1,35,99,0
1,33,106,0
1,31,101,0
1,31,101,124
1,31,101,110
1,26,106,54
1,31,101,24
1,31,101,94
1,31,101,98
1,28,96,24
1,26,95,192
1,31,101,12
1,31,92,90
1,31,92,120
1,31,96,78
1,31,101,10
1,30,101,38
1,29,101,44
1,31,96,384
1,33,108,28
1,36,101,18
1,36,101,98
1,36,96,84
1,31,87,384
1,36,96,6
1,36,83,96
1,36,96,100
1,31,92,4
1,33,97,192
1,41,101,32
1,41,101,158
1,41,79,100
1,36,96,24
1,41,96,2
1,41,83,138
1,41,92,88
1,40,92,112
1,38,87,192
1,36,96,186
1,36,87,148
1,36,92,86
1,31,101,12
1,36,101,44
1,36,87,128
1,36,96,118
1,31,101,46
1,33,92,20
1,31,96,4
1,31,106,120
1,31,106,92
1,38,92,46
1,31,92,2
1,31,106,128
1,31,106,92
1,33,101,78
1,35,83,26
1,36,106,48
1,36,96,124
1,36,96,118
1,31,101,28
1,36,101,36
1,31,106,1310
1,31,101,106
1,31,94,64
1,31,101,42
1,26,101,82
1,28,92,12
1,26,94,22
1,31,101,38
1,31,96,98
1,31,101,112
1,31,101,26
1,31,96,96
1,33,101,16
1,31,94,32
1,36,99,6
1,36,96,88
1,36,101,124
1,36,83,12
1,31,106,32
1,33,101,92
1,31,96,34
1,36,101,10
1,36,101,72
1,36,92,90
1,36,101,38
1,36,96,30
1,31,92,10
1,33,104,14
1,31,109,192
1,31,109,94
1,31,94,86
1,31,87,40
1,26,104,60
1,28,106,4
1,26,101,18
1,31,101,192
1,31,101,86
1,31,96,68
1,31,101,28
1,31,96,76
1,33,96,2
1,31,96,30
1,36,106,192
1,36,104,70
1,36,87,94
1,36,106,18
1,31,101,14
1,33,96,192
1,31,92,32
1,36,101,192
1,36,101,84
1,36,96,70
1,36,96,36
1,36,106,38
1,36,106,48
1,41,106,28
1,41,104,70
1,41,87,94
1,41,106,18
1,36,101,14
1,38,96,192
1,36,92,32
1,41,101,192
1,41,101,84
1,41,96,70
1,41,96,36
1,41,106,38
1,41,106,48
1,36,106,28
1,36,104,70
1,36,87,94
1,36,106,18
1,31,101,14
1,33,96,192
1,31,92,32
1,36,101,192
1,36,101,84
1,36,96,70
1,36,96,36
1,36,106,38
1,36,106,48
1,31,109,28
1,31,109,94
1,31,94,86
1,31,87,40
1,26,104,60
1,28,106,4
1,26,101,18
1,31,101,192
1,31,101,86
1,31,96,68
1,31,101,28
1,31,96,76
1,33,96,2
1,31,96,30
1,36,106,192
1,36,104,70
1,36,87,94
1,36,106,18
1,31,101,14
1,33,96,192
1,31,92,32
1,36,101,192
1,36,101,84
1,36,96,70
1,38,86,36
1,36,106,20
1,38,99,0
1,40,106,0
1,41,101,0
1,41,101,158
1,41,79,100
1,36,96,24
1,41,96,2
1,41,83,138
1,41,92,88
1,40,92,112
1,38,87,192
1,36,96,186
1,36,87,148
1,36,92,86
1,31,101,12
1,36,101,44
1,36,87,128
1,36,96,118
1,31,101,46
1,33,92,20
1,31,96,4
1,31,106,120
1,31,106,92
1,38,92,46
1,31,92,2
1,31,106,128
1,31,106,92
1,33,101,78
1,35,83,26
1,36,106,48
1,36,96,124
1,36,96,118
1,31,101,28
1,36,101,36
1,31,106,1310
1,31,101,106
1,31,94,64
1,31,101,42
1,26,101,82
1,28,92,12
1,26,94,22
1,31,101,38
1,31,96,98
1,31,101,112
1,31,101,26
1,31,96,96
1,33,101,16
1,31,94,32
1,36,99,6
1,36,96,88
1,36,101,124
1,36,83,12
1,31,106,32
1,33,101,92
1,31,96,34
1,36,101,10
1,36,101,72
1,36,92,90
1,36,101,38
1,36,96,30
1,31,92,10
1,33,104,14
1,31,109,192
1,31,109,94
1,31,94,86
1,31,87,40
1,26,104,60
1,28,106,4
1,26,101,18
1,31,101,192
1,31,101,86
1,31,96,68
1,31,101,28
1,31,96,76
1,33,96,2
1,31,96,30
1,36,106,192
1,36,104,70
1,36,87,94
1,36,106,18
1,31,101,14
1,33,96,192
1,31,92,32
1,36,101,192
1,36,101,84
1,36,96,70
1,36,96,36
1,36,106,38
1,36,106,48
1,41,106,28
1,41,104,70
1,41,87,94
1,41,106,18
1,36,101,14
1,38,96,192
1,36,92,32
1,41,101,192
1,41,101,84
1,41,96,70
1,41,96,36
1,41,106,38
1,41,106,48
1,36,106,28
1,36,104,70
1,36,87,94
1,36,106,18
1,31,101,14
1,33,96,192
1,31,92,32
1,36,101,192
1,36,101,84
1,36,96,70
1,36,96,36
1,36,106,38
1,36,106,48
1,31,109,28
1,31,109,94
1,31,94,86
1,31,87,40
1,26,104,60
1,28,106,4
1,26,101,18
1,31,101,192
1,31,101,86
1,31,96,68
1,31,101,28
1,31,96,76
1,33,96,2
1,31,96,30
1,36,106,192
1,36,104,70
1,36,87,94
1,36,106,18
1,31,101,14
1,33,96,192
1,31,92,32
1,36,101,192
1,36,101,84
1,36,96,70
1,38,86,36
1,36,106,20
1,35,99,0
1,33,106,0
1,31,109,0
1,31,109,94
1,31,94,86
1,31,87,40
1,26,104,60
1,28,106,4
1,26,101,18
1,31,101,192
1,31,101,86
1,31,96,68
1,31,101,28
1,31,96,76
1,33,96,2
1,31,96,30
1,36,106,192
1,36,104,70
1,36,87,94
1,36,106,18
1,31,101,14
1,33,96,192
1,36,112,32
2,48,111,64
2,55,102,0
2,60,106,0
2,64,111,0
2,67,92,370
2,66,67,186
2,67,87,188
2,69,87,150
2,55,87,250
2,62,83,0
2,59,92,2
2,62,92,38
2,55,82,2
2,59,82,0
2,59,87,300
2,62,92,0
2,55,75,2
2,55,79,320
2,59,83,0
2,62,96,0
2,65,87,156
2,64,71,190
2,65,87,104
2,67,87,196
2,64,75,224
2,55,83,20
2,60,83,12
2,55,83,42
2,64,83,0
2,60,92,2
2,55,83,354
2,64,101,2
2,60,101,2
2,64,92,314
2,55,71,2
2,60,87,0
2,55,87,126
2,60,101,0
2,64,101,0
2,55,57,10
2,60,83,2
2,64,60,2
2,64,83,300
2,55,79,2
2,60,87,0
2,55,79,318
2,59,87,0
2,62,87,0
2,55,71,76
2,59,83,0
2,62,92,0
2,59,79,44
2,62,79,0
2,55,79,2
2,59,71,288
2,62,83,0
2,55,60,2
2,55,71,316
2,59,83,0
2,62,83,0
2,62,83,90
2,55,71,2
2,59,79,0
2,65,92,50
2,64,60,8
2,65,87,104
2,67,87,28
2,55,79,240
2,60,83,2
2,64,75,0
2,55,83,42
2,60,83,2
2,64,83,0
2,55,75,6
2,60,79,2
2,64,57,2
2,55,54,308
2,60,83,0
2,64,63,2
2,55,87,302
2,64,67,2
2,60,83,2
2,55,79,96
2,60,79,0
2,64,67,2
2,55,25,2
2,60,54,2
2,64,71,2
2,55,83,310
2,60,87,2
2,64,67,0
2,55,106,438
2,55,96,140
2,55,106,84
2,50,83,30
2,53,101,96
2,55,106,92
2,55,101,104
2,55,111,112
2,60,106,0
2,55,87,14
2,59,101,0
2,55,101,102
2,55,92,106
2,55,106,128
2,50,83,24
2,53,54,6
2,55,87,42
2,50,86,96
2,52,91,80
2,55,94,96
2,53,96,0
2,50,101,0
2,55,96,120
2,55,96,82
2,55,101,116
2,50,87,52
2,52,83,16
2,55,101,18
2,55,96,100
2,55,106,114
2,60,106,0
2,55,79,26
2,59,92,0
2,55,106,88
2,55,106,128
2,55,101,130
2,55,87,98
2,55,92,16
2,53,101,20
2,53,65,14
2,53,101,4
2,53,106,78
2,53,101,102
2,48,106,72
2,48,111,90
2,48,111,128
2,43,92,10
2,45,87,46
2,48,92,38
2,48,64,4
2,48,106,0
2,48,111,98
2,55,96,78
2,48,106,114
2,48,101,106
2,48,101,142
2,48,96,58
2,48,106,20
2,48,96,58
2,48,106,2
2,48,106,184
2,48,101,74
2,48,101,34
2,55,106,38
2,55,96,140
2,55,106,84
2,50,83,30
2,53,101,96
2,55,106,92
2,55,101,104
2,55,111,112
2,60,106,0
2,55,87,14
2,59,101,0
2,55,101,102
2,55,92,106
2,55,106,128
2,50,83,24
2,53,54,6
2,55,87,42
2,50,86,96
2,52,91,80
2,55,94,96
2,53,96,0
2,50,101,0
2,55,96,120
2,55,96,82
2,55,101,116
2,50,87,52
2,52,83,16
2,55,101,18
2,55,96,100
2,55,106,114
2,60,106,0
2,55,79,26
2,59,92,0
2,55,106,88
2,55,106,128
2,55,101,130
2,55,87,98
2,55,92,16
2,53,101,20
2,53,65,14
2,53,101,4
2,53,106,78
2,53,101,102
2,48,106,72
2,48,111,90
2,48,111,128
2,43,92,10
2,45,87,46
2,48,92,38
2,48,64,4
2,48,106,0
2,48,111,98
2,55,96,78
2,48,106,114
2,48,101,106
2,48,101,142
2,48,96,58
2,48,106,20
2,48,96,58
2,48,106,2
2,48,106,184
2,48,101,74
2,48,101,34
2,53,117,38
2,53,106,130
2,53,117,92
2,53,101,50
2,53,106,60
2,53,117,44
2,53,127,48
2,60,101,0
2,53,96,0
2,53,111,20
2,53,95,44
2,60,95,0
2,53,82,0
2,53,96,20
2,60,87,0
2,53,117,0
2,53,106,130
2,53,117,92
2,53,101,50
2,53,106,60
2,53,117,44
2,53,127,48
2,60,101,0
2,53,96,0
2,53,111,20
2,53,95,44
2,60,95,0
2,53,82,0
2,53,96,20
2,60,87,0
2,52,117,0
2,52,106,130
2,52,117,92
2,52,101,50
2,52,106,60
2,52,117,44
2,52,127,48
2,60,101,0
2,52,96,0
2,52,111,20
2,52,95,44
2,60,95,0
2,52,82,0
2,52,96,20
2,60,87,0
2,52,117,0
2,52,106,130
2,52,117,92
2,52,101,50
2,52,106,60
2,52,117,44
2,52,127,48
2,60,101,0
2,52,96,0
2,52,111,20
2,52,95,44
2,60,95,0
2,52,82,0
2,52,96,20
2,60,87,0
2,50,117,0
2,50,106,130
2,50,117,92
2,50,101,50
2,50,106,60
2,50,117,44
2,50,127,48
2,50,96,84
2,50,111,20
2,50,95,44
2,50,82,0
2,50,96,20
2,50,117,0
2,50,106,130
2,50,117,92
2,50,101,50
2,50,106,60
2,50,117,44
2,50,127,48
2,50,96,84
2,50,111,20
2,50,95,44
2,50,82,0
2,50,96,20
2,48,117,0
2,48,106,130
2,48,117,92
2,48,101,50
2,48,106,60
2,48,117,44
2,48,127,48
2,55,101,0
2,48,96,0
2,48,111,20
2,48,95,44
2,55,95,0
2,48,82,0
2,48,96,20
2,55,87,0
2,48,117,0
2,62,92,1852
2,55,82,2
2,59,82,0
2,59,87,300
2,62,92,0
2,55,75,2
2,55,79,320
2,59,83,0
2,62,96,0
2,65,87,156
2,64,71,190
2,65,87,104
2,67,87,196
2,64,75,224
2,55,83,20
2,60,83,12
2,55,83,42
2,64,83,0
2,60,92,2
2,55,83,354
2,64,101,2
2,60,101,2
2,64,92,314
2,55,71,2
2,60,87,0
2,55,87,126
2,60,101,0
2,64,101,0
2,55,57,10
2,60,83,2
2,64,60,2
2,64,83,300
2,55,79,2
2,60,87,0
2,55,79,318
2,59,87,0
2,62,87,0
2,55,71,76
2,59,83,0
2,62,92,0
2,59,79,44
2,62,79,0
2,55,79,2
2,59,71,288
2,62,83,0
2,55,60,2
2,55,71,316
2,59,83,0
2,62,83,0
2,62,83,90
2,55,71,2
2,59,79,0
2,65,92,50
2,64,60,8
2,65,87,104
2,67,87,28
2,55,79,240
2,60,83,2
2,64,75,0
2,55,83,42
2,60,83,2
2,64,83,0
2,55,75,6
2,60,79,2
2,64,57,2
2,55,54,308
2,60,83,0
2,64,63,2
2,55,87,302
2,64,67,2
2,60,83,2
2,55,79,96
2,60,79,0
2,64,67,2
2,55,25,2
2,60,54,2
2,64,71,2
2,55,83,310
2,60,87,2
2,64,67,0
2,53,101,438
2,60,82,0
2,53,91,112
2,60,82,0
2,53,55,44
2,60,52,0
2,53,49,98
2,60,37,0
2,53,91,142
2,60,82,0
2,53,96,226
2,60,91,0
2,53,49,136
2,60,45,0
2,53,91,130
2,60,82,0
2,53,66,70
2,60,66,0
2,53,52,74
2,60,52,0
2,53,78,124
