track,note,velocity,time
0,42,110,165
0,42,0,24
0,42,110,72
0,42,0,24
0,42,126,72
0,42,0,24
0,42,126,72
0,42,0,24
0,57,95,96
0,57,0,21
0,59,95,3
0,59,0,24
0,66,95,0
0,62,95,0
0,74,95,0
0,69,95,0
0,69,0,48
0,66,0,0
0,62,0,0
0,74,0,0
0,57,95,0
0,57,0,24
0,59,95,0
0,59,0,24
0,62,94,0
0,71,94,0
0,74,94,0
0,67,94,0
0,67,0,48
0,62,0,0
0,71,0,0
0,74,0,0
0,57,94,0
0,57,0,22
0,59,94,2
0,71,94,24
0,62,94,0
0,67,94,0
0,74,94,0
0,59,0,1
0,67,0,47
0,71,0,0
0,62,0,0
0,74,0,0
0,57,94,0
0,59,93,24
0,57,0,1
0,59,0,24
0,66,127,23
0,59,127,0
0,40,127,0
0,55,127,0
0,62,127,0
0,40,118,0
0,78,100,0
0,90,113,0
0,66,90,0
0,62,90,0
0,55,90,0
0,57,90,0
0,36,127,0
0,51,110,0
0,40,0,21
0,90,0,3
0,51,0,0
0,36,0,0
0,89,109,0
0,89,0,24
0,40,109,0
0,88,97,0
0,36,127,0
0,42,77,0
0,42,0,24
0,36,0,0
0,88,0,0
0,87,113,0
0,78,0,21
0,87,0,3
0,71,124,0
0,86,118,0
0,42,123,0
0,42,0,24
0,86,0,0
0,87,100,0
0,40,0,22
0,87,0,2
0,47,75,0
0,69,95,0
0,62,112,0
0,66,100,0
0,59,112,0
0,88,109,0
0,42,66,0
0,59,0,2
0,66,0,0
0,62,0,0
0,69,0,2
0,47,0,10
0,42,0,3
0,88,0,0
0,52,89,0
0,89,97,0
0,36,127,0
0,52,0,15
0,36,0,9
0,89,0,0
0,59,112,0
0,66,116,0
0,62,124,0
0,69,95,0
0,90,113,0
0,42,93,0
0,55,0,20
0,42,0,4
0,90,0,0
0,52,89,0
0,89,118,0
0,36,107,0
0,36,0,24
0,89,0,0
0,88,109,0
0,42,77,0
0,36,127,0
0,66,0,3
0,59,0,1
0,62,0,4
0,52,0,14
0,36,0,2
0,42,0,0
0,88,0,0
0,47,75,0
0,87,120,0
0,71,0,13
0,69,0,2
0,59,0,2
0,47,0,2
0,62,0,1
0,66,0,0
0,87,0,4
0,55,127,0
0,59,127,0
0,62,120,0
0,66,127,0
0,52,89,0
0,55,95,0
0,66,100,0
0,59,80,0
0,62,95,0
0,78,116,0
0,86,118,0
0,42,127,0
0,66,0,12
0,59,0,0
0,55,0,1
0,62,0,1
0,86,0,10
0,42,0,0
0,87,113,0
0,87,0,24
0,64,127,0
0,47,89,0
0,76,112,0
0,88,109,0
0,42,81,0
0,52,0,1
0,78,0,3
0,40,0,13
0,42,0,7
0,88,0,0
0,89,97,0
0,36,91,0
0,59,0,7
0,62,0,2
0,66,0,0
0,76,0,3
0,55,0,3
0,47,0,2
0,89,0,7
0,64,0,0
0,36,0,0
0,59,127,0
0,66,127,0
0,62,127,0
0,40,127,0
0,55,127,0
0,40,118,0
0,69,95,0
0,59,95,0
0,62,112,0
0,66,100,0
0,78,116,0
0,90,100,0
0,36,127,0
0,42,127,0
0,40,0,12
0,42,0,1
0,36,0,0
0,90,0,0
0,89,109,0
0,89,0,24
0,40,118,0
0,88,89,0
0,36,127,0
0,42,87,0
0,42,0,10
0,36,0,0
0,88,0,0
0,87,113,0
0,69,0,5
0,66,0,1
0,59,0,1
0,62,0,1
0,87,0,16
0,55,112,0
0,62,112,0
0,66,100,0
0,59,95,0
0,71,95,0
0,86,109,0
0,42,127,0
0,78,0,2
0,42,0,22
0,86,0,0
0,87,113,0
0,87,0,24
0,47,81,0
0,88,118,0
0,42,73,0
0,40,0,2
0,47,0,19
0,42,0,3
0,88,0,0
0,52,89,0
0,89,109,0
0,36,127,0
0,66,0,16
0,52,0,2
0,55,0,3
0,36,0,3
0,89,0,0
0,62,0,0
0,66,0,0
0,71,112,0
0,67,95,0
0,62,95,0
0,90,113,0
0,42,127,0
0,71,0,12
0,74,112,0
0,59,0,1
0,42,0,11
0,90,0,0
0,52,89,0
0,71,112,0
0,89,109,0
0,36,91,0
0,67,0,6
0,62,0,5
0,74,0,4
0,52,0,6
0,71,0,2
0,36,0,1
0,62,0,0
0,89,0,0
0,67,80,0
0,62,59,0
0,88,109,0
0,42,127,0
0,36,119,0
0,62,0,10
0,67,0,3
0,88,0,11
0,36,0,0
0,42,0,0
0,47,81,0
0,62,80,0
0,87,120,0
0,59,0,8
0,71,0,0
0,62,0,3
0,47,0,3
0,55,0,2
0,87,0,8
0,59,127,0
0,62,127,0
0,55,127,0
0,52,97,0
0,62,26,0
0,69,112,0
0,78,100,0
0,86,109,0
0,48,127,0
0,62,0,4
0,48,0,7
0,86,0,0
0,67,124,0
0,87,113,0
0,38,94,0
0,69,0,4
0,38,0,20
0,67,0,0
0,78,0,0
0,87,0,0
0,47,97,0
0,62,112,0
0,76,112,0
0,88,109,0
0,38,127,0
0,52,0,1
0,62,0,15
0,40,0,6
0,38,0,2
0,88,0,0
0,89,97,0
0,36,107,0
0,47,0,9
0,76,0,12
0,59,0,3
0,36,0,0
0,89,0,0
0,55,0,0
0,62,0,0
0,55,127,0
0,62,127,0
0,66,127,0
0,59,127,0
0,40,127,0
0,40,124,0
0,52,98,0
0,78,116,0
0,90,113,0
0,51,126,0
0,36,127,0
0,57,0,14
0,66,0,0
0,55,0,0
0,62,0,0
0,78,0,7
0,51,0,3
0,90,0,0
0,36,0,0
0,40,0,10
0,40,112,14
0,66,98,0
0,55,98,0
0,62,98,0
0,42,35,0
0,36,57,0
0,66,0,10
0,62,0,1
0,55,0,1
0,42,0,12
0,36,0,0
0,66,100,24
0,37,126,0
0,42,126,0
0,40,0,11
0,66,0,7
0,37,0,6
0,42,0,0
0,45,95,0
0,66,98,0
0,62,98,0
0,55,98,0
0,64,90,0
0,64,0,8
0,45,0,3
0,47,124,13
0,66,109,0
0,42,64,0
0,47,0,1
0,66,0,0
0,62,0,0
0,55,0,1
0,42,0,5
0,52,112,0
0,36,122,0
0,36,0,1
0,62,98,0
0,66,98,0
0,55,98,0
0,42,110,0
0,52,0,1
0,42,0,2
0,52,112,0
0,36,69,0
0,66,0,1
0,36,0,4
0,62,94,0
0,42,93,0
0,36,105,0
0,52,0,5
0,36,0,5
0,42,0,0
0,40,124,0
0,55,0,7
0,59,0,1
0,66,0,1
0,62,0,1
0,40,0,1
0,66,127,2
0,55,127,0
0,62,127,0
0,59,127,0
0,42,100,0
0,42,126,0
0,37,126,0
0,37,0,5
0,42,0,0
0,62,0,2
0,42,0,1
0,52,0,0
0,43,112,5
0,52,98,0
0,59,94,0
0,46,110,0
0,59,0,12
0,66,0,7
0,62,0,1
0,46,0,1
0,64,105,0
0,55,0,1
0,40,0,2
0,43,0,1
0,52,0,4
0,59,0,1
0,62,0,0
0,55,0,0
0,66,0,0
0,45,127,0
0,59,127,0
0,55,127,0
0,62,127,0
0,64,127,0
0,45,95,0
0,45,98,0
0,36,105,0
0,42,126,0
0,42,0,24
0,36,0,0
0,45,0,6
0,45,112,3
0,55,98,0
0,62,98,0
0,59,98,0
0,64,98,0
0,36,122,0
0,42,93,0
0,62,0,4
0,59,0,4
0,64,0,1
0,55,0,1
0,36,0,3
0,42,0,0
0,42,126,2
0,37,126,0
0,45,0,2
0,37,0,3
0,42,0,0
0,45,80,0
0,62,98,0
0,59,98,0
0,55,98,0
0,64,98,0
0,59,0,1
0,64,0,1
0,55,0,1
0,45,0,1
0,62,0,0
0,40,112,4
0,42,93,0
0,64,0,5
0,40,0,3
0,42,0,1
0,33,112,0
0,67,111,0
0,36,105,0
0,67,0,12
0,36,0,1
0,62,98,0
0,55,98,0
0,64,98,0
0,59,98,0
0,42,110,0
0,33,0,7
0,55,0,11
0,42,0,6
0,33,112,0
0,66,105,0
0,36,78,0
0,59,0,8
0,64,0,2
0,62,0,0
0,66,0,13
0,36,0,1
0,69,127,0
0,57,120,0
0,42,126,0
0,36,127,0
0,33,0,10
0,36,0,3
0,42,0,0
0,33,95,0
0,62,96,0
0,62,0,5
0,55,0,0
0,33,0,1
0,35,124,5
0,57,98,0
0,64,104,0
0,42,126,0
0,37,127,0
0,69,0,1
0,59,0,1
0,57,0,1
0,62,0,0
0,64,0,0
0,57,0,1
0,42,0,0
0,37,0,0
0,69,127,0
0,57,127,0
0,59,98,0
0,35,0,1
0,45,0,1
0,59,0,2
0,64,0,1
0,38,112,3
0,62,98,0
0,59,95,0
0,46,81,0
0,36,105,0
0,45,0,6
0,59,0,9
0,46,0,9
0,36,0,0
0,69,0,0
0,57,0,0
0,45,120,0
0,64,98,0
0,62,0,2
0,38,0,10
0,64,0,9
0,45,0,3
0,66,127,0
0,55,127,0
0,40,127,0
0,62,127,0
0,59,127,0
0,40,112,0
0,52,98,0
0,36,127,0
0,42,93,0
0,42,0,24
0,36,0,0
0,40,0,6
0,40,112,18
0,66,98,0
0,59,98,0
0,62,98,0
0,36,127,0
0,42,64,0
0,66,0,7
0,59,0,1
0,62,0,4
0,36,0,12
0,42,0,0
0,66,114,24
0,42,126,0
0,37,126,0
0,40,0,10
0,66,0,7
0,42,0,7
0,37,0,0
0,45,80,0
0,66,98,0
0,59,98,0
0,62,98,0
0,64,87,0
0,64,0,6
0,59,0,4
0,66,0,2
0,45,0,1
0,62,0,0
0,47,80,11
0,66,111,0
0,42,110,0
0,47,0,4
0,42,0,2
0,52,95,0
0,36,122,0
0,36,0,4
0,52,0,0
0,57,98,0
0,59,98,0
0,62,98,0
0,66,98,0
0,42,110,0
0,42,0,8
0,52,112,0
0,36,78,0
0,66,0,1
0,36,0,11
0,62,95,0
0,36,127,0
0,42,126,0
0,52,0,7
0,66,0,4
0,59,0,1
0,36,0,0
0,42,0,0
0,40,112,0
0,62,0,1
0,55,0,1
0,40,0,5
0,55,127,1
0,62,127,0
0,66,127,0
0,59,127,0
0,42,124,0
0,42,126,0
0,37,126,0
0,37,0,15
0,42,0,0
0,40,0,3
0,52,0,1
0,42,0,1
0,62,0,3
0,40,127,6
0,43,116,0
0,52,98,0
0,59,91,0
0,36,105,0
0,46,93,0
0,66,0,14
0,59,0,1
0,36,0,2
0,46,0,0
0,64,103,0
0,57,0,3
0,66,0,2
0,52,0,1
0,59,0,0
0,55,0,1
0,43,0,0
0,59,0,0
0,62,0,1
0,62,0,1
0,40,0,5
0,55,127,0
0,45,127,0
0,59,127,0
0,64,127,0
0,62,127,0
0,45,112,0
0,45,98,0
0,42,110,0
0,36,122,0
0,36,0,24
0,42,0,0
0,45,0,3
0,45,95,2
0,55,98,0
0,64,98,0
0,62,98,0
0,59,98,0
0,36,122,0
0,42,93,0
0,59,0,1
0,64,0,2
0,62,0,0
0,55,0,1
0,36,0,2
0,42,0,0
0,37,126,0
0,42,126,0
0,45,0,3
0,42,0,2
0,37,0,0
0,33,68,0
0,62,98,0
0,59,98,0
0,64,98,0
0,55,98,0
0,62,0,4
0,64,0,1
0,59,0,0
0,55,0,0
0,33,0,4
0,40,95,3
0,42,110,0
0,40,0,4
0,42,0,4
0,33,124,0
0,36,122,0
0,45,0,9
0,36,0,10
0,45,127,0
0,64,98,0
0,59,98,0
0,62,98,0
0,55,98,0
0,48,127,0
0,36,122,0
0,55,0,3
0,59,0,7
0,62,0,0
0,64,0,2
0,64,0,0
0,48,0,12
0,36,0,0
0,57,127,0
0,57,0,11
0,33,0,2
0,69,114,11
0,57,127,0
0,33,112,0
0,45,127,0
0,45,0,24
0,57,0,3
0,69,0,1
0,33,0,4
0,57,120,3
0,35,112,0
0,66,112,0
0,36,127,0
0,38,122,0
0,57,0,4
0,38,0,12
0,36,0,0
0,69,127,0
0,57,127,0
0,38,105,0
0,35,0,13
0,45,0,5
0,66,0,4
0,55,0,2
0,38,0,0
0,45,120,0
0,33,112,0
0,57,98,0
0,67,100,0
0,38,122,0
0,45,0,5
0,57,0,13
0,45,0,1
0,38,0,5
0,59,0,0
0,59,98,0
0,67,0,4
0,69,0,1
0,57,0,2
0,59,0,3
0,64,0,14
0,62,0,0
0,33,0,0
0,66,127,0
0,69,127,0
0,50,127,0
0,61,127,0
0,38,125,0
0,54,95,0
0,61,95,0
0,57,95,0
0,64,95,0
0,69,118,0
0,93,125,0
0,49,127,0
0,63,103,0
0,36,127,0
0,93,0,1
0,81,96,2
0,38,0,1
0,36,0,2
0,49,0,0
0,63,0,0
0,83,95,3
0,81,0,2
0,85,95,1
0,83,0,1
0,69,0,2
0,86,95,0
0,85,0,1
0,88,94,0
0,86,0,1
0,61,0,1
0,38,118,1
0,61,95,0
0,69,104,0
0,42,87,0
0,63,103,0
0,36,119,0
0,90,94,1
0,88,0,1
0,64,0,4
0,57,0,0
0,54,0,2
0,61,0,7
0,42,0,0
0,63,0,0
0,36,0,0
0,57,95,0
0,64,95,0
0,61,95,0
0,54,95,0
0,69,0,1
0,66,0,1
0,61,0,0
0,69,0,1
0,69,127,2
0,61,127,0
0,66,127,0
0,69,109,0
0,62,127,0
0,42,127,0
0,38,127,0
0,38,0,3
0,90,0,5
0,62,0,3
0,64,0,0
0,61,0,0
0,54,0,0
0,42,0,0
0,57,0,0
0,38,0,0
0,45,89,0
0,54,95,0
0,61,95,0
0,64,95,0
0,57,95,0
0,88,88,1
0,45,0,3
0,69,0,1
0,88,0,1
0,61,0,3
0,57,0,0
0,54,0,0
0,64,0,0
0,47,70,0
0,54,95,0
0,57,95,0
0,61,95,0
0,64,95,0
0,69,96,0
0,42,93,0
0,90,87,0
0,61,0,5
0,66,0,1
0,69,0,0
0,69,0,1
0,47,0,0
0,90,0,6
0,57,0,6
0,61,0,0
0,54,0,0
0,64,0,0
0,42,0,0
0,61,122,0
0,69,127,0
0,66,122,0
0,50,125,0
0,64,95,0
0,54,95,0
0,61,95,0
0,57,95,0
0,69,115,0
0,36,119,0
0,63,111,0
0,81,85,0
0,81,0,5
0,50,0,1
0,36,0,1
0,63,0,0
0,42,110,0
0,69,0,4
0,61,0,1
0,57,0,4
0,61,0,0
0,64,0,0
0,42,0,0
0,54,0,0
0,61,122,0
0,50,118,0
0,61,95,0
0,64,95,0
0,54,95,0
0,57,95,0
0,69,118,0
0,36,99,0
0,63,127,0
0,81,84,2
0,63,0,1
0,57,0,0
0,64,0,0
0,54,0,0
0,36,0,0
0,61,0,0
0,54,95,0
0,61,95,0
0,57,95,0
0,64,95,0
0,42,123,0
0,36,127,0
0,61,0,2
0,57,0,3
0,81,0,1
0,54,0,0
0,36,0,2
0,42,0,0
0,57,95,0
0,54,95,0
0,61,95,0
0,78,84,1
0,66,0,3
0,69,0,1
0,69,0,1
0,61,0,2
0,64,0,0
0,78,0,1
0,54,0,7
0,61,0,0
0,57,0,0
0,69,127,0
0,61,127,0
0,66,127,0
0,64,95,0
0,61,95,0
0,54,95,0
0,57,95,0
0,69,116,0
0,81,109,0
0,38,127,0
0,42,127,0
0,62,127,0
0,81,84,1
0,81,0,3
0,62,0,4
0,38,0,0
0,42,0,0
0,69,0,2
0,69,0,1
0,81,0,3
0,83,85,3
0,71,91,3
0,47,97,0
0,71,115,0
0,83,109,0
0,42,110,0
0,64,127,0
0,61,0,2
0,50,0,2
0,83,0,2
0,66,0,0
0,83,0,3
0,71,0,4
0,47,0,7
0,42,0,4
0,64,0,0
0,45,89,0
0,71,0,1
0,50,0,6
0,45,0,2
0,57,0,4
0,61,0,0
0,64,0,0
0,54,0,0
0,72,127,0
0,50,127,0
0,38,125,0
0,64,95,0
0,60,95,0
0,57,95,0
0,55,95,0
0,72,111,0
0,84,125,0
0,36,127,0
0,63,120,0
0,42,127,0
0,84,0,3
0,63,0,10
0,36,0,0
0,38,0,0
0,42,0,0
0,60,0,6
0,55,0,2
0,57,0,4
0,72,0,9
0,64,120,2
0,38,125,0
0,55,95,0
0,60,95,0
0,57,95,0
0,71,107,0
0,36,127,0
0,63,127,0
0,42,110,0
0,64,0,2
0,63,0,1
0,71,0,0
0,57,0,0
