track,note,velocity,time
1,49,112,0
1,47,127,0
1,49,127,0
1,47,127,0
1,49,127,0
1,47,127,0
1,47,127,0
1,47,127,0
1,49,127,1920
1,47,127,0
1,49,127,0
1,47,127,0
1,49,127,0
1,47,127,0
1,47,127,0
1,47,127,0
1,49,127,1920
1,47,127,0
1,49,127,0
1,47,127,0
1,49,127,0
1,47,127,0
1,47,127,0
1,47,127,0
1,49,127,1920
1,47,127,0
1,49,127,0
1,47,127,0
1,49,127,0
1,47,127,0
1,47,127,0
1,47,127,0
1,49,127,1920
1,47,127,0
1,49,127,0
1,47,127,0
1,49,127,0
1,47,127,0
1,47,127,0
1,47,127,0
1,49,127,1920
1,47,127,0
1,49,127,0
1,47,127,0
1,49,127,0
1,47,127,0
1,47,127,0
1,47,127,0
2,29,112,1920
2,29,112,0
2,29,112,0
2,29,112,0
2,29,112,0
2,29,112,0
2,29,112,0
2,29,112,1920
2,29,112,0
2,29,112,0
2,29,112,0
2,29,112,0
2,29,112,0
2,29,112,0
2,37,112,0
2,35,112,0
2,37,112,0
2,35,112,0
2,37,112,0
2,35,112,0
2,35,112,0
2,35,112,0
2,29,112,0
2,29,112,0
2,29,112,0
2,29,112,0
2,29,112,0
2,29,112,0
2,29,112,0
2,37,112,0
2,35,112,0
2,37,112,0
2,35,112,0
2,37,112,0
2,35,112,0
2,35,112,0
2,35,112,0
2,29,112,0
2,29,112,0
2,29,112,0
2,29,112,0
2,29,112,0
2,29,112,0
2,29,112,0
2,37,112,0
2,35,112,0
2,37,112,0
2,35,112,0
2,37,112,0
2,35,112,0
2,35,112,0
2,35,112,0
2,29,112,0
2,29,112,0
2,29,112,0
2,29,112,0
2,29,112,0
2,29,112,0
2,29,112,0
2,29,112,0
2,37,112,0
2,35,112,0
2,37,112,0
2,35,112,0
2,37,112,0
2,35,112,0
2,35,112,0
2,35,112,0
2,29,112,0
2,29,112,0
2,29,112,0
2,29,112,0
2,29,112,0
2,29,112,0
2,29,112,0
2,29,112,0
2,44,112,0
2,44,112,0
2,44,112,0
2,44,112,0
2,44,112,0
2,44,112,0
2,44,112,0
2,44,112,0
2,44,112,0
2,44,112,0
2,44,112,0
2,44,112,0
2,44,112,0
2,44,112,0
2,44,112,0
2,44,112,0
2,44,112,0
2,44,112,0
2,44,112,0
2,44,112,0
2,44,112,0
2,44,112,0
2,44,112,0
2,44,112,0
2,44,112,0
2,44,112,0
2,44,112,0
2,44,112,0
2,44,112,0
2,44,112,0
2,44,112,0
2,44,112,0
2,37,112,0
2,35,112,0
2,37,112,0
2,35,112,0
2,37,112,0
2,35,112,0
2,35,112,0
2,35,112,0
2,29,112,0
2,29,112,0
2,29,112,0
2,29,112,0
2,29,112,0
2,29,112,0
2,29,112,0
2,37,112,0
2,35,112,0
2,37,112,0
2,35,112,0
2,37,112,0
2,35,112,0
2,35,112,0
2,35,112,0
2,29,112,0
2,29,112,0
2,29,112,0
2,29,112,0
2,29,112,0
2,29,112,0
2,29,112,0
2,44,112,0
2,44,112,0
2,44,112,0
2,44,112,0
2,44,112,0
2,44,112,0
2,44,112,0
2,44,112,0
2,44,112,0
2,44,112,0
2,44,112,0
2,44,112,0
2,44,112,0
2,44,112,0
2,44,112,0
2,44,112,0
2,44,112,0
2,44,112,0
2,44,112,0
2,44,112,0
2,44,112,0
2,44,112,0
2,44,112,0
2,44,112,0
2,44,112,0
2,44,112,0
2,44,112,0
2,44,112,0
2,44,112,0
2,44,112,0
2,44,112,0
2,44,112,0
2,37,112,0
2,35,112,0
2,37,112,0
2,35,112,0
2,37,112,0
2,35,112,0
2,35,112,0
2,35,112,0
2,29,112,0
2,29,112,0
2,29,112,0
2,29,112,0
2,29,112,0
2,29,112,0
2,29,112,0
2,37,112,0
2,35,112,0
2,37,112,0
2,35,112,0
2,37,112,0
2,35,112,0
2,35,112,0
2,35,112,0
2,29,112,0
2,29,112,0
2,29,112,0
2,29,112,0
2,29,112,0
2,29,112,0
2,29,112,0
2,32,112,0
2,32,112,0
2,32,112,0
2,32,112,0
2,32,112,0
2,32,112,0
2,32,112,0
2,32,112,0
2,32,112,0
2,32,112,0
2,32,112,0
2,32,112,0
2,32,112,0
2,32,112,0
2,32,112,0
2,32,112,0
2,35,112,0
2,35,112,0
2,35,112,0
2,35,112,0
2,35,112,0
2,35,112,0
2,35,112,0
2,35,112,0
2,35,112,0
2,35,112,0
2,35,112,0
2,35,112,0
2,35,112,0
2,35,112,0
2,35,112,0
2,35,112,0
2,30,112,0
2,30,112,0
2,30,112,0
2,30,112,0
2,30,112,0
2,30,112,0
2,30,112,0
2,30,112,0
2,30,112,0
2,30,112,0
2,30,112,0
2,30,112,0
2,30,112,0
2,30,112,0
2,30,112,0
2,30,112,0
2,37,112,0
2,37,112,0
2,37,112,0
2,37,112,0
2,37,112,0
2,37,112,0
2,37,112,0
2,37,112,0
2,35,112,0
2,35,112,0
2,35,112,0
2,35,112,0
2,34,112,0
2,34,112,0
2,34,112,0
2,34,112,0
2,32,112,0
2,32,112,0
2,32,112,0
2,32,112,0
2,32,112,0
2,32,112,0
2,32,112,0
2,32,112,0
2,32,112,0
2,32,112,0
2,32,112,0
2,32,112,0
2,32,112,0
2,32,112,0
2,32,112,0
2,32,112,0
2,35,112,0
2,35,112,0
2,35,112,0
2,35,112,0
2,35,112,0
2,35,112,0
2,35,112,0
2,35,112,0
2,35,112,0
2,35,112,0
2,35,112,0
2,35,112,0
2,35,112,0
2,35,112,0
2,35,112,0
2,35,112,0
2,30,112,0
2,30,112,0
2,30,112,0
2,30,112,0
2,30,112,0
2,30,112,0
2,30,112,0
2,30,112,0
2,30,112,0
2,30,112,0
2,30,112,0
2,30,112,0
2,30,112,0
2,30,112,0
2,30,112,0
2,30,112,0
2,37,112,0
2,37,112,0
2,37,112,0
2,37,112,0
2,37,112,0
2,37,112,0
2,37,112,0
2,37,112,0
2,35,112,0
2,35,112,0
2,35,112,0
2,35,112,0
2,34,112,0
2,34,112,0
2,34,112,0
2,34,112,0
2,32,112,7680
2,32,112,0
2,32,112,0
2,32,112,0
2,32,112,0
2,32,112,0
2,32,112,0
2,32,112,0
2,32,112,0
2,32,112,0
2,32,112,0
2,32,112,0
2,32,112,0
2,32,112,0
2,32,112,0
2,32,112,0
2,32,112,0
2,32,112,0
2,32,112,0
2,32,112,0
2,32,112,0
2,32,112,0
2,32,112,0
2,32,112,0
2,32,112,0
2,32,112,0
2,32,112,0
2,32,112,0
2,32,112,0
2,32,112,0
2,32,112,0
2,32,112,0
2,37,112,0
2,35,112,0
2,37,112,0
2,35,112,0
2,37,112,0
2,35,112,0
2,35,112,0
2,35,112,0
2,29,112,0
2,29,112,0
2,29,112,0
2,29,112,0
2,29,112,0
2,29,112,0
2,29,112,0
2,37,112,0
2,35,112,0
2,37,112,0
2,35,112,0
2,37,112,0
2,35,112,0
2,35,112,0
2,35,112,0
2,29,112,0
2,29,112,0
2,29,112,0
2,29,112,0
2,29,112,0
2,29,112,0
2,29,112,0
2,44,112,0
2,44,112,0
2,44,112,0
2,44,112,0
2,44,112,0
2,44,112,0
2,44,112,0
2,44,112,0
2,44,112,0
2,44,112,0
2,44,112,0
2,44,112,0
2,44,112,0
2,44,112,0
2,44,112,0
2,44,112,0
2,44,112,0
2,44,112,0
2,44,112,0
2,44,112,0
2,44,112,0
2,44,112,0
2,44,112,0
2,44,112,0
2,44,112,0
2,44,112,0
2,44,112,0
2,44,112,0
2,44,112,0
2,44,112,0
2,44,112,0
2,44,112,0
2,37,112,0
2,35,112,0
2,37,112,0
2,35,112,0
2,37,112,0
2,35,112,0
2,35,112,0
2,35,112,0
2,29,112,0
2,29,112,0
2,29,112,0
2,29,112,0
2,29,112,0
2,29,112,0
2,29,112,0
2,37,112,0
2,35,112,0
2,37,112,0
2,35,112,0
2,37,112,0
2,35,112,0
2,35,112,0
2,35,112,0
2,29,112,0
2,29,112,0
2,29,112,0
2,29,112,0
2,29,112,0
2,29,112,0
2,29,112,0
2,32,112,0
2,32,112,0
2,32,112,0
2,32,112,0
2,32,112,0
2,32,112,0
2,32,112,0
2,32,112,0
2,32,112,0
2,32,112,0
2,32,112,0
2,32,112,0
2,32,112,0
2,32,112,0
2,32,112,0
2,32,112,0
2,35,112,0
2,35,112,0
2,35,112,0
2,35,112,0
2,35,112,0
2,35,112,0
2,35,112,0
2,35,112,0
2,35,112,0
2,35,112,0
2,35,112,0
2,35,112,0
2,35,112,0
2,35,112,0
2,35,112,0
2,35,112,0
2,30,112,0
2,30,112,0
2,30,112,0
2,30,112,0
2,30,112,0
2,30,112,0
2,30,112,0
2,30,112,0
2,30,112,0
2,30,112,0
2,30,112,0
2,30,112,0
2,30,112,0
2,30,112,0
2,30,112,0
2,30,112,0
2,37,112,0
2,37,112,0
2,37,112,0
2,37,112,0
2,37,112,0
2,37,112,0
2,37,112,0
2,37,112,0
2,35,112,0
2,35,112,0
2,35,112,0
2,35,112,0
2,34,112,0
2,34,112,0
2,34,112,0
2,34,112,0
2,32,112,0
2,32,112,0
2,32,112,0
2,32,112,0
2,32,112,0
2,32,112,0
2,32,112,0
2,32,112,0
2,32,112,0
2,32,112,0
2,32,112,0
2,32,112,0
2,32,112,0
2,32,112,0
2,32,112,0
2,32,112,0
2,35,112,0
2,35,112,0
2,35,112,0
2,35,112,0
2,35,112,0
2,35,112,0
2,35,112,0
2,35,112,0
2,35,112,0
2,35,112,0
2,35,112,0
2,35,112,0
2,35,112,0
2,35,112,0
2,35,112,0
2,35,112,0
2,30,112,0
2,30,112,0
2,30,112,0
2,30,112,0
2,30,112,0
2,30,112,0
2,30,112,0
2,30,112,0
2,30,112,0
2,30,112,0
2,30,112,0
2,30,112,0
2,30,112,0
2,30,112,0
2,30,112,0
2,30,112,0
2,37,112,0
2,37,112,0
2,37,112,0
2,37,112,0
2,37,112,0
2,37,112,0
2,37,112,0
2,37,112,0
2,35,112,0
2,35,112,0
2,35,112,0
2,35,112,0
2,34,112,0
2,34,112,0
2,34,112,0
2,34,112,0
2,37,112,0
2,35,112,0
2,37,112,0
2,35,112,0
2,37,112,0
2,35,112,0
2,37,112,0
2,35,112,0
2,37,112,0
2,35,112,0
2,37,112,0
2,35,112,0
2,37,112,0
2,35,112,0
2,37,112,0
2,35,112,0
2,37,112,0
2,35,112,0
2,37,112,0
2,35,112,0
2,37,112,0
2,35,112,0
2,37,112,0
2,35,112,0
2,37,112,0
2,35,112,0
2,37,112,0
2,35,112,0
2,37,112,0
2,35,112,0
2,37,112,0
2,35,112,0
2,37,112,0
2,35,112,0
2,37,112,0
2,35,112,0
2,37,112,0
2,35,112,0
2,37,112,0
2,35,112,0
2,37,112,0
2,35,112,0
2,37,112,0
2,35,112,0
2,37,112,0
2,35,112,0
2,37,112,0
2,35,112,0
2,37,112,0
2,35,112,0
2,37,112,0
2,35,112,0
2,37,112,0
2,35,112,0
2,37,112,0
2,35,112,0
2,37,112,0
2,35,112,0
2,37,112,0
2,35,112,0
2,37,112,0
2,35,112,0
2,37,112,0
2,35,112,0
2,37,112,0
2,35,112,0
2,37,112,0
2,35,112,0
2,37,112,0
2,35,112,0
2,37,112,0
2,35,112,0
2,37,112,0
2,35,112,0
2,37,112,0
2,35,112,0
2,37,112,0
2,35,112,0
2,37,112,0
2,35,112,0
2,37,112,0
2,35,112,0
2,37,112,0
2,35,112,0
2,37,112,0
2,35,112,0
2,37,112,0
2,35,112,0
2,37,112,0
2,35,112,0
2,37,112,0
2,35,112,0
2,37,112,0
2,35,112,0
2,37,112,0
2,35,112,0
2,37,112,0
2,35,112,0
2,37,112,0
2,35,112,0
2,37,112,0
2,35,112,0
2,37,112,0
2,35,112,0
2,37,112,0
2,35,112,0
2,37,112,0
2,35,112,0
2,37,112,0
2,35,112,0
2,37,112,0
2,35,112,0
2,37,112,0
2,35,112,0
2,37,112,0
2,35,112,0
2,37,112,0
2,35,112,0
2,37,112,0
2,35,112,0
2,29,112,0
2,29,112,0
2,29,112,0
2,29,112,0
2,29,112,0
2,29,112,0
2,29,112,0
2,32,112,15360
2,32,112,0
2,32,112,0
2,32,112,0
2,32,112,0
2,32,112,0
2,32,112,0
2,32,112,0
2,32,112,0
2,32,112,0
2,32,112,0
2,32,112,0
2,32,112,0
2,32,112,0
2,32,112,0
2,32,112,0
2,32,112,0
2,32,112,0
2,32,112,0
2,32,112,0
2,32,112,0
2,32,112,0
2,32,112,0
2,32,112,0
2,32,112,0
2,32,112,0
2,32,112,0
2,32,112,0
2,32,112,0
2,32,112,0
2,32,112,0
2,32,112,0
2,32,112,0
2,32,112,0
2,32,112,0
2,32,112,0
2,32,112,0
2,32,112,0
2,32,112,0
2,32,112,0
2,32,112,0
2,32,112,0
2,32,112,0
2,32,112,0
2,32,112,0
2,32,112,0
2,32,112,0
2,32,112,0
2,32,112,0
2,32,112,0
2,32,112,0
2,32,112,0
2,32,112,0
2,32,112,0
2,32,112,0
2,32,112,0
2,32,112,0
2,32,112,0
2,32,112,0
2,32,112,0
2,32,112,0
2,32,112,0
2,32,112,0
2,32,112,0
2,32,112,12
3,53,112,0
3,41,112,0
3,48,112,0
3,53,112,0
3,48,112,0
3,41,112,0
3,41,112,0
3,48,112,0
3,53,112,0
3,41,112,0
3,53,112,0
3,48,112,0
3,53,112,0
3,48,112,0
3,41,112,0
3,41,112,0
3,48,112,0
3,53,112,0
3,53,112,0
3,48,112,0
3,41,112,0
3,53,112,1920
3,41,112,0
3,48,112,0
3,53,112,0
3,48,112,0
3,41,112,0
3,41,112,0
3,48,112,0
3,53,112,0
3,41,112,0
3,53,112,0
3,48,112,0
3,53,112,0
3,48,112,0
3,41,112,0
3,41,112,0
3,48,112,0
3,53,112,0
3,53,112,0
3,48,112,0
3,41,112,0
3,53,112,1920
3,41,112,0
3,48,112,0
3,53,112,0
3,48,112,0
3,41,112,0
3,41,112,0
3,48,112,0
3,53,112,0
3,41,112,0
3,53,112,0
3,48,112,0
3,53,112,0
3,48,112,0
3,41,112,0
3,41,112,0
3,48,112,0
3,53,112,0
3,53,112,0
3,48,112,0
3,41,112,0
3,53,112,1920
3,41,112,0
3,48,112,0
3,53,112,0
3,48,112,0
3,41,112,0
3,41,112,0
3,48,112,0
3,53,112,0
3,41,112,0
3,53,112,0
3,48,112,0
3,53,112,0
3,48,112,0
3,41,112,0
3,41,112,0
3,48,112,0
3,53,112,0
3,53,112,0
3,48,112,0
3,41,112,0
3,53,112,1920
3,41,112,0
3,48,112,0
3,53,112,0
3,48,112,0
3,41,112,0
3,41,112,0
3,48,112,0
3,53,112,0
3,41,112,0
3,53,112,0
3,48,112,0
3,53,112,0
3,48,112,0
3,41,112,0
3,41,112,0
3,48,112,0
3,53,112,0
3,53,112,0
3,48,112,0
3,41,112,0
3,53,112,1920
3,41,112,0
3,48,112,0
3,53,112,0
3,48,112,0
3,41,112,0
3,41,112,0
3,48,112,0
3,53,112,0
3,41,112,0
3,53,112,0
3,48,112,0
3,53,112,0
3,48,112,0
3,41,112,0
3,41,112,0
3,48,112,0
3,53,112,0
3,53,112,0
3,48,112,0
3,41,112,0
3,56,112,0
3,44,112,0
3,51,112,0
3,56,112,0
3,51,112,0
3,44,112,0
3,56,112,0
3,44,112,0
3,51,112,0
3,56,112,0
3,51,112,0
3,44,112,0
3,56,112,0
3,51,112,0
3,44,112,0
3,56,112,0
3,51,112,0
3,44,112,0
3,56,112,0
3,51,112,0
3,44,112,0
3,56,112,0
3,51,112,0
3,44,112,0
3,51,112,0
3,44,112,0
3,56,112,0
3,56,112,0
3,51,112,0
3,44,112,0
3,56,112,0
3,44,112,0
3,51,112,0
3,56,112,0
3,51,112,0
3,44,112,0
3,56,112,0
3,51,112,0
3,44,112,0
3,56,112,0
3,51,112,0
3,44,112,0
3,56,112,0
3,51,112,0
3,44,112,0
3,56,112,0
3,51,112,0
3,44,112,0
3,51,112,0
3,44,112,0
3,56,112,0
3,56,112,0
3,51,112,0
3,44,112,0
