track,note,velocity,time
1,28,112,0
1,28,112,0
1,28,112,0
1,31,112,0
1,31,112,0
1,31,112,0
1,35,112,0
1,35,112,0
1,29,112,0
1,29,112,0
1,29,112,0
1,33,112,0
1,33,112,0
1,33,112,0
1,36,112,0
1,36,112,0
1,35,112,0
1,35,112,0
1,35,112,0
1,31,112,0
1,31,112,0
1,31,112,0
1,35,112,0
1,35,112,0
1,33,112,0
1,33,112,0
1,33,112,0
1,29,112,0
1,29,112,0
1,29,112,0
1,29,112,0
1,29,112,0
1,28,112,0
1,28,112,0
1,28,112,0
1,31,112,0
1,31,112,0
1,31,112,0
1,35,112,0
1,35,112,0
1,29,112,0
1,29,112,0
1,29,112,0
1,33,112,0
1,33,112,0
1,33,112,0
1,36,112,0
1,36,112,0
1,35,112,0
1,35,112,0
1,35,112,0
1,31,112,0
1,31,112,0
1,31,112,0
1,35,112,0
1,35,112,0
1,33,112,0
1,33,112,0
1,33,112,0
1,29,112,0
1,29,112,0
1,29,112,0
1,29,112,0
1,29,112,0
1,28,112,0
1,28,112,0
1,28,112,0
1,31,112,0
1,31,112,0
1,31,112,0
1,35,112,0
1,35,112,0
1,29,112,0
1,29,112,0
1,29,112,0
1,33,112,0
1,33,112,0
1,33,112,0
1,36,112,0
1,36,112,0
1,35,112,0
1,35,112,0
1,35,112,0
1,31,112,0
1,31,112,0
1,31,112,0
1,35,112,0
1,35,112,0
1,33,112,0
1,33,112,0
1,33,112,0
1,29,112,0
1,29,112,0
1,29,112,0
1,29,112,0
1,29,112,0
1,28,112,0
1,28,112,0
1,28,112,0
1,31,112,0
1,31,112,0
1,31,112,0
1,35,112,0
1,35,112,0
1,29,112,0
1,29,112,0
1,29,112,0
1,33,112,0
1,33,112,0
1,33,112,0
1,36,112,0
1,36,112,0
1,35,112,0
1,35,112,0
1,35,112,0
1,31,112,0
1,31,112,0
1,31,112,0
1,35,112,0
1,35,112,0
1,33,112,0
1,33,112,0
1,33,112,0
1,29,112,0
1,29,112,0
1,29,112,0
1,29,112,0
1,29,112,0
1,28,112,0
1,28,112,0
1,28,112,0
1,31,112,0
1,31,112,0
1,31,112,0
1,35,112,0
1,35,112,0
1,29,112,0
1,29,112,0
1,29,112,0
1,33,112,0
1,33,112,0
1,33,112,0
1,36,112,0
1,36,112,0
1,35,112,0
1,35,112,0
1,35,112,0
1,31,112,0
1,31,112,0
1,31,112,0
1,35,112,0
1,35,112,0
1,33,112,0
1,33,112,0
1,33,112,0
1,29,112,0
1,29,112,0
1,29,112,0
1,29,112,0
1,29,112,0
1,28,112,0
1,28,112,0
1,28,112,0
1,31,112,0
1,31,112,0
1,31,112,0
1,35,112,0
1,35,112,0
1,29,112,0
1,29,112,0
1,29,112,0
1,33,112,0
1,33,112,0
1,33,112,0
1,36,112,0
1,36,112,0
1,35,112,0
1,35,112,0
1,35,112,0
1,31,112,0
1,31,112,0
1,31,112,0
1,35,112,0
1,35,112,0
1,33,112,0
1,33,112,0
1,33,112,0
1,29,112,0
1,29,112,0
1,29,112,0
1,29,112,0
1,29,112,0
1,28,112,0
1,31,112,240
1,35,112,240
1,28,112,0
1,31,112,240
1,35,112,240
1,28,112,0
1,31,112,240
1,35,112,240
1,28,112,0
1,31,112,240
1,35,112,240
1,28,112,0
1,31,112,240
1,35,112,240
1,28,112,0
1,31,112,240
1,35,112,240
1,28,112,0
1,31,112,240
1,35,112,240
1,28,112,0
1,31,112,240
1,35,112,240
1,29,112,0
1,36,112,0
1,36,112,0
1,36,112,0
1,36,112,0
1,36,112,0
1,36,112,0
1,36,112,0
1,36,112,0
1,36,112,0
1,36,112,0
1,28,112,0
1,31,112,240
1,35,112,240
1,28,112,0
1,31,112,240
1,35,112,240
1,29,112,0
1,36,112,0
1,36,112,0
1,36,112,0
1,36,112,0
1,36,112,0
1,36,112,0
1,36,112,0
1,36,112,0
1,36,112,0
1,36,112,0
1,28,112,0
1,28,112,0
1,31,112,240
1,35,112,240
1,28,112,0
1,31,112,240
1,35,112,240
1,28,112,0
1,31,112,240
1,35,112,240
1,28,112,0
1,31,112,240
1,35,112,240
1,28,112,0
1,28,112,0
1,28,112,0
1,31,112,0
1,31,112,0
1,31,112,0
1,35,112,0
1,35,112,0
1,29,112,0
1,29,112,0
1,29,112,0
1,33,112,0
1,33,112,0
1,33,112,0
1,36,112,0
1,36,112,0
1,35,112,0
1,35,112,0
1,35,112,0
1,31,112,0
1,31,112,0
1,31,112,0
1,35,112,0
1,35,112,0
1,33,112,0
1,33,112,0
1,33,112,0
1,29,112,0
1,29,112,0
1,29,112,0
1,29,112,0
1,29,112,0
1,28,112,0
1,28,112,0
1,28,112,0
1,31,112,0
1,31,112,0
1,31,112,0
1,35,112,0
1,35,112,0
1,29,112,0
1,29,112,0
1,29,112,0
1,33,112,0
1,33,112,0
1,33,112,0
1,36,112,0
1,36,112,0
1,35,112,0
1,35,112,0
1,35,112,0
1,31,112,0
1,31,112,0
1,31,112,0
1,35,112,0
1,35,112,0
1,33,112,0
1,33,112,0
1,33,112,0
1,29,112,0
1,29,112,0
1,29,112,0
1,29,112,0
1,29,112,0
1,28,112,0
1,31,112,240
1,35,112,240
1,28,112,0
1,31,112,240
1,35,112,240
1,28,112,0
1,31,112,240
1,35,112,240
1,28,112,0
1,31,112,240
1,35,112,240
1,28,112,0
1,31,112,240
1,35,112,240
1,28,112,0
1,31,112,240
1,35,112,240
1,28,112,0
1,31,112,240
1,35,112,240
1,28,112,0
1,31,112,240
1,35,112,240
1,29,112,0
1,36,112,0
1,36,112,0
1,36,112,0
1,36,112,0
1,36,112,0
1,36,112,0
1,36,112,0
1,36,112,0
1,36,112,0
1,36,112,0
1,28,112,0
1,31,112,240
1,35,112,240
1,28,112,0
1,31,112,240
1,35,112,240
1,29,112,0
1,36,112,0
1,36,112,0
1,36,112,0
1,36,112,0
1,36,112,0
1,36,112,0
1,36,112,0
1,36,112,0
1,36,112,0
1,36,112,0
1,28,112,0
1,28,112,0
1,31,112,240
1,35,112,240
1,28,112,0
1,31,112,240
1,35,112,240
1,28,112,0
1,31,112,240
1,35,112,240
1,28,112,0
1,31,112,240
1,35,112,240
1,28,112,0
1,28,112,0
1,28,112,0
1,31,112,0
1,31,112,0
1,31,112,0
1,35,112,0
1,35,112,0
1,29,112,0
1,29,112,0
1,29,112,0
1,33,112,0
1,33,112,0
1,33,112,0
1,36,112,0
1,36,112,0
1,35,112,0
1,35,112,0
1,35,112,0
1,31,112,0
1,31,112,0
1,31,112,0
1,35,112,0
1,35,112,0
1,33,112,0
1,33,112,0
1,33,112,0
1,29,112,0
1,29,112,0
1,29,112,0
1,29,112,0
1,29,112,0
1,28,112,0
1,28,112,0
1,28,112,0
1,31,112,0
1,31,112,0
1,31,112,0
1,35,112,0
1,35,112,0
1,29,112,0
1,29,112,0
1,29,112,0
1,33,112,0
1,33,112,0
1,33,112,0
1,36,112,0
1,36,112,0
1,35,112,0
1,35,112,0
1,35,112,0
1,31,112,0
1,31,112,0
1,31,112,0
1,35,112,0
1,35,112,0
1,33,112,0
1,33,112,0
1,33,112,0
1,29,112,0
1,29,112,0
1,29,112,0
1,29,112,0
1,29,112,0
1,28,112,0
1,28,112,0
1,28,112,0
1,31,112,0
1,31,112,0
1,31,112,0
1,35,112,0
1,35,112,0
1,29,112,0
1,29,112,0
1,29,112,0
1,33,112,0
1,33,112,0
1,33,112,0
1,36,112,0
1,36,112,0
1,35,112,0
1,35,112,0
1,35,112,0
1,31,112,0
1,31,112,0
1,31,112,0
1,35,112,0
1,35,112,0
1,33,112,0
1,33,112,0
1,33,112,0
1,29,112,0
1,29,112,0
1,29,112,0
1,29,112,0
1,29,112,0
1,28,112,0
1,28,112,0
1,28,112,0
1,31,112,0
1,31,112,0
1,31,112,0
1,35,112,0
1,35,112,0
1,29,112,0
1,29,112,0
1,29,112,0
1,33,112,0
1,33,112,0
1,33,112,0
1,36,112,0
1,36,112,0
1,35,112,0
1,35,112,0
1,35,112,0
1,31,112,0
1,31,112,0
1,31,112,0
1,35,112,0
1,35,112,0
1,33,112,0
1,33,112,0
1,33,112,0
1,29,112,0
1,29,112,0
1,29,112,0
1,29,112,0
1,29,112,0
1,28,112,0
1,28,112,1440
1,28,112,1440
1,28,112,1440
1,28,112,1440
1,36,112,0
1,36,112,0
1,36,112,0
1,36,112,0
1,28,112,12
1,36,112,708
1,36,112,0
1,36,112,0
1,36,112,0
1,28,112,12
1,36,112,708
1,36,112,0
1,36,112,0
1,36,112,0
1,28,112,25
1,36,112,695
1,36,112,0
1,36,112,0
1,36,112,0
1,28,112,0
1,28,112,0
1,28,112,0
1,31,112,0
1,31,112,0
1,31,112,0
1,35,112,0
1,35,112,0
1,29,112,0
1,29,112,0
1,29,112,0
1,33,112,0
1,33,112,0
1,33,112,0
1,36,112,0
1,36,112,0
1,35,112,0
1,35,112,0
1,35,112,0
1,31,112,0
1,31,112,0
1,31,112,0
1,35,112,0
1,35,112,0
1,33,112,0
1,33,112,0
1,33,112,0
1,29,112,0
1,29,112,0
1,29,112,0
1,29,112,0
1,29,112,0
1,28,112,0
1,28,112,0
1,28,112,0
1,31,112,0
1,31,112,0
1,31,112,0
1,35,112,0
1,35,112,0
1,29,112,0
1,29,112,0
1,29,112,0
1,33,112,0
1,33,112,0
1,33,112,0
1,36,112,0
1,36,112,0
1,35,112,0
1,35,112,0
1,35,112,0
1,31,112,0
1,31,112,0
1,31,112,0
1,35,112,0
1,35,112,0
1,33,112,0
1,33,112,0
1,33,112,0
1,29,112,0
1,29,112,0
1,29,112,0
1,29,112,0
1,29,112,0
1,28,112,0
1,28,112,0
1,28,112,0
1,31,112,0
1,31,112,0
1,31,112,0
1,35,112,0
1,35,112,0
1,29,112,0
1,29,112,0
1,29,112,0
1,33,112,0
1,33,112,0
1,33,112,0
1,36,112,0
1,36,112,0
1,35,112,0
1,35,112,0
1,35,112,0
1,31,112,0
1,31,112,0
1,31,112,0
1,35,112,0
1,35,112,0
1,33,112,0
1,33,112,0
1,33,112,0
1,29,112,0
1,29,112,0
1,29,112,0
1,29,112,0
1,29,112,0
1,28,112,0
1,28,112,0
1,28,112,0
1,31,112,0
1,31,112,0
1,31,112,0
1,35,112,0
1,35,112,0
1,29,112,0
1,29,112,0
1,29,112,0
1,33,112,0
1,33,112,0
1,33,112,0
1,36,112,0
1,36,112,0
1,35,112,0
1,35,112,0
1,35,112,0
1,31,112,0
1,31,112,0
1,31,112,0
1,35,112,0
1,35,112,0
1,33,112,0
1,33,112,0
1,33,112,0
1,29,112,0
1,29,112,0
1,29,112,0
1,29,112,0
1,29,112,0
1,28,112,0
1,28,112,0
1,28,112,0
1,31,112,0
1,31,112,0
1,31,112,0
1,35,112,0
1,35,112,0
1,29,112,0
1,29,112,0
1,29,112,0
1,33,112,0
1,33,112,0
1,33,112,0
1,36,112,0
1,36,112,0
1,35,112,0
1,35,112,0
1,35,112,0
1,31,112,0
1,31,112,0
1,31,112,0
1,35,112,0
1,35,112,0
1,33,112,0
1,33,112,0
1,33,112,0
1,29,112,0
1,29,112,0
1,29,112,0
1,29,112,0
1,29,112,0
1,28,112,0
1,28,112,0
1,28,112,0
1,31,112,0
1,31,112,0
1,31,112,0
1,35,112,0
1,35,112,0
1,29,112,0
1,29,112,0
1,29,112,0
1,33,112,0
1,33,112,0
1,33,112,0
1,36,112,0
1,36,112,0
1,35,112,0
1,35,112,0
1,35,112,0
1,31,112,0
1,31,112,0
1,31,112,0
1,35,112,0
1,35,112,0
1,33,112,0
1,33,112,0
1,33,112,0
1,29,112,0
1,29,112,0
1,29,112,0
1,29,112,0
1,29,112,0
1,28,112,0
1,28,112,0
1,28,112,0
1,31,112,0
1,31,112,0
1,31,112,0
1,35,112,0
1,35,112,0
1,29,112,0
1,29,112,0
1,29,112,0
1,33,112,0
1,33,112,0
1,33,112,0
1,36,112,0
1,36,112,0
1,35,112,0
1,35,112,0
1,35,112,0
1,31,112,0
1,31,112,0
1,31,112,0
1,35,112,0
1,35,112,0
1,33,112,0
1,33,112,0
1,33,112,0
1,29,112,0
1,29,112,0
1,29,112,0
1,29,112,0
1,29,112,0
1,28,112,0
1,28,112,0
1,28,112,0
1,31,112,0
1,31,112,0
1,31,112,0
1,35,112,0
1,35,112,0
1,29,112,0
1,29,112,0
1,29,112,0
1,33,112,0
1,33,112,0
1,33,112,0
1,36,112,0
1,36,112,0
1,35,112,0
1,35,112,0
1,35,112,0
1,31,112,0
1,31,112,0
1,31,112,0
1,35,112,0
1,35,112,0
1,33,112,0
1,33,112,0
1,33,112,0
1,29,112,0
1,29,112,0
1,29,112,0
1,29,112,0
1,29,112,0
1,28,112,0
1,28,112,0
1,28,112,0
1,31,112,0
1,31,112,0
1,31,112,0
1,35,112,0
1,35,112,0
1,29,112,0
1,29,112,0
1,29,112,0
1,33,112,0
1,33,112,0
1,33,112,0
1,36,112,0
1,36,112,0
1,35,112,0
1,35,112,0
1,35,112,0
1,31,112,0
1,31,112,0
1,31,112,0
1,35,112,0
1,35,112,0
1,33,112,0
1,33,112,0
1,33,112,0
1,29,112,0
1,29,112,0
1,29,112,0
1,29,112,0
1,29,112,0
1,28,112,0
1,28,112,0
1,28,112,0
1,31,112,0
1,31,112,0
1,31,112,0
1,35,112,0
1,35,112,0
1,29,112,0
1,29,112,0
1,29,112,0
1,33,112,0
1,33,112,0
1,33,112,0
1,36,112,0
1,36,112,0
1,35,112,0
1,35,112,0
1,35,112,0
1,31,112,0
1,31,112,0
1,31,112,0
1,35,112,0
1,35,112,0
1,33,112,0
1,33,112,0
1,33,112,0
1,29,112,0
1,29,112,0
1,29,112,0
1,29,112,0
1,29,112,0
1,28,112,0
1,28,112,0
1,28,112,0
1,31,112,0
1,31,112,0
1,31,112,0
1,35,112,0
1,35,112,0
1,29,112,0
1,29,112,0
1,29,112,0
1,33,112,0
1,33,112,0
1,33,112,0
1,36,112,0
1,36,112,0
1,35,112,0
1,35,112,0
1,35,112,0
1,31,112,0
1,31,112,0
1,31,112,0
1,35,112,0
1,35,112,0
1,33,112,0
1,33,112,0
1,33,112,0
1,29,112,0
1,29,112,0
1,29,112,0
1,29,112,0
1,29,112,0
1,28,112,0
1,28,112,0
1,28,112,0
1,31,112,0
1,31,112,0
1,31,112,0
1,35,112,0
1,35,112,0
1,29,112,0
1,29,112,0
1,29,112,0
1,33,112,0
1,33,112,0
1,33,112,0
1,36,112,0
1,36,112,0
1,35,112,0
1,35,112,0
1,35,112,0
1,31,112,0
1,31,112,0
1,31,112,0
1,35,112,0
1,35,112,0
1,33,112,0
1,33,112,0
1,33,112,0
1,29,112,0
1,29,112,0
1,29,112,0
1,29,112,0
1,29,112,0
1,28,112,12
2,40,112,0
2,40,112,0
2,40,112,0
2,43,112,0
2,43,112,0
2,43,112,0
2,47,112,0
2,47,112,0
2,41,112,0
2,41,112,0
2,41,112,0
2,45,112,0
2,45,112,0
2,45,112,0
2,48,112,0
2,48,112,0
2,47,112,0
2,47,112,0
2,47,112,0
2,43,112,0
2,43,112,0
2,43,112,0
2,47,112,0
2,47,112,0
2,45,112,0
2,45,112,0
2,45,112,0
2,41,112,0
2,41,112,0
2,41,112,0
2,41,112,0
2,41,112,0
2,40,112,0
2,40,112,0
2,40,112,0
2,43,112,0
2,43,112,0
2,43,112,0
2,47,112,0
2,47,112,0
2,41,112,0
2,41,112,0
2,41,112,0
2,45,112,0
2,45,112,0
2,45,112,0
2,48,112,0
2,48,112,0
2,47,112,0
2,47,112,0
2,47,112,0
2,43,112,0
2,43,112,0
2,43,112,0
2,47,112,0
2,47,112,0
2,45,112,0
2,45,112,0
2,45,112,0
2,41,112,0
2,41,112,0
2,41,112,0
2,41,112,0
2,41,112,0
2,40,112,0
2,40,112,0
2,40,112,0
2,43,112,0
2,43,112,0
2,43,112,0
2,47,112,0
2,47,112,0
2,41,112,0
2,41,112,0
2,41,112,0
2,45,112,0
2,45,112,0
