track,note,velocity,time
1,79,127,2357
1,79,127,53
1,79,127,65
1,79,127,48
1,79,127,80
1,79,127,49
1,81,127,148
1,81,127,45
1,81,127,69
1,81,127,36
1,81,127,39
1,79,127,16
1,76,127,145
1,77,127,182
1,79,127,0
1,79,127,41
1,79,127,67
1,79,127,74
1,84,127,158
1,84,127,68
1,83,127,233
1,79,127,153
1,77,127,144
1,74,127,253
1,76,127,213
1,77,127,181
1,77,127,49
1,77,127,31
1,77,127,44
1,86,127,269
1,84,127,272
1,81,127,76
1,84,127,12
1,83,127,207
1,86,127,12
1,84,127,175
1,81,127,160
1,84,127,180
1,83,127,196
1,79,127,7
1,83,127,191
1,81,127,208
1,77,127,267
1,76,127,211
1,76,127,245
1,77,127,211
1,79,127,187
1,79,127,62
1,79,127,88
1,81,127,234
1,81,127,43
1,81,127,66
1,81,127,56
1,79,127,236
1,84,127,886
1,86,127,171
1,88,127,193
1,88,127,40
1,88,127,44
1,88,127,60
1,86,127,264
1,84,127,214
1,81,127,4
1,84,127,1016
1,84,127,57
1,84,127,61
1,84,127,39
1,84,127,96
1,84,127,107
1,82,127,243
1,80,127,33
1,79,127,51
1,81,127,1043
1,79,127,285
1,81,127,11
1,79,127,240
1,84,127,694
1,79,127,279
1,81,127,223
1,79,127,216
1,84,127,92
1,86,127,206
1,88,127,2
1,88,127,49
1,88,127,81
1,88,127,75
1,86,127,273
1,84,127,15
1,86,127,4
1,81,127,9
1,84,127,1
1,84,127,79
1,84,127,96
1,79,127,10
1,84,127,333
1,84,127,18
1,83,127,29
1,79,127,14
1,81,127,289
1,83,127,88
1,84,127,9
1,79,127,316
1,79,127,48
1,83,127,7
1,83,127,62
1,81,127,17
1,81,127,72
1,79,127,32
1,79,127,46
1,79,127,100
1,81,127,88
1,83,127,2
1,84,127,53
1,84,127,103246
1,84,127,107
1,84,127,45
1,84,127,66
1,84,127,80
1,84,127,10
1,84,127,82
1,84,127,62
1,82,127,352
1,80,127,43
1,79,127,82
1,81,127,2026
1,81,127,39
1,81,127,186
1,79,127,531
1,81,127,1341
1,79,127,689
1,81,127,375
1,79,127,305
1,84,127,65
1,86,127,420
1,88,127,370
1,88,127,109
1,88,127,96
1,88,127,96
1,88,127,37
1,86,127,585
1,84,127,344
1,86,127,347
1,81,127,309
1,84,127,1719
1,84,127,95
1,84,127,128
1,79,127,48
1,84,127,701
1,84,127,48
1,83,127,22
1,79,127,345
1,79,127,146
1,81,127,50
1,83,127,143
1,84,127,34
1,81,127,1903
1,81,127,133
1,81,127,160
1,80,127,1969
1,80,127,141
1,78,127,57
1,73,127,1734
1,76,127,42
1,78,127,375
1,78,127,1067
1,78,127,142
1,76,127,29
1,76,127,49
1,71,127,384
1,83,127,823
1,83,127,135
1,83,127,82
1,83,127,1779
1,81,127,32
1,80,127,68
1,83,127,1247
1,83,127,178
1,83,127,133
1,83,127,133
1,83,127,182
1,84,127,18
1,84,127,159
1,84,127,141
1,85,127,214
1,81,127,789
1,81,127,98
1,81,127,168
1,80,127,1962
1,80,127,116
1,78,127,51
1,81,127,1913
1,83,127,594
1,85,127,383
1,85,127,158
1,85,127,131
1,85,127,285
1,86,127,43
1,88,127,178
1,86,127,340
1,81,127,991
1,86,127,236
1,86,127,98
1,86,127,1282
1,85,127,48
1,83,127,17
1,85,127,16
1,81,127,48
1,76,127,642
1,81,127,508
1,78,127,48
1,85,127,1485
1,85,127,204
1,85,127,122
1,81,127,46
1,81,127,532
1,81,127,187
1,81,127,113
1,80,127,1968
1,80,127,165
1,78,127,78
1,73,127,1853
1,76,127,585
1,78,127,35
1,78,127,207
1,78,127,209
1,76,127,363
1,76,127,64
1,71,127,32
1,83,127,185
1,83,127,139
1,83,127,97
1,83,127,1618
1,83,127,67
1,81,127,368
1,80,127,313
1,83,127,390
1,83,127,142
1,83,127,141
1,83,127,164
1,83,127,198
1,84,127,0
1,84,127,71
1,84,127,80
1,84,127,75
1,85,127,358
1,81,127,26
1,81,127,221
1,81,127,192
1,80,127,1961
1,80,127,277
1,78,127,145
1,99,127,306
1,105,127,25
1,100,127,0
1,95,127,1196
1,100,127,32
1,81,127,97
1,95,127,64
1,100,127,55
1,97,127,126
1,93,127,77
1,83,127,111
1,85,127,7
1,85,127,108
1,85,127,118
1,85,127,100
1,86,127,22
1,88,127,174
1,86,127,290
1,86,127,0
1,90,127,92
1,93,127,218
1,98,127,131
1,98,127,90
1,81,127,704
1,86,127,202
1,86,127,127
1,86,127,289
1,85,127,6
1,83,127,16
1,85,127,23
1,81,127,64
1,93,127,1266
1,76,127,465
1,81,127,212
1,78,127,251
1,85,127,481
1,85,127,128
1,85,127,109
1,81,127,0
1,78,127,1429
1,81,127,288
1,85,127,171
1,85,127,224
1,88,127,16
2,79,118,45696
2,79,118,192
2,79,127,134
2,79,127,99
2,79,127,50
2,81,127,12
2,81,127,158
2,81,127,144
2,81,127,88
2,81,127,51
2,79,127,23
2,76,127,425
2,77,127,390
2,79,127,4
2,79,127,191
2,79,127,205
2,79,127,130
2,84,127,25
2,84,127,224
2,83,127,381
2,79,127,31
2,77,127,1
2,74,127,312
2,76,127,612
2,77,127,28
2,77,127,197
2,77,127,126
2,77,127,135
2,86,127,417
2,84,127,339
2,81,127,360
2,84,127,156
2,83,127,1
2,86,127,1664
2,84,127,366
2,81,127,6
2,84,127,383
2,83,127,370
2,79,127,685
2,83,127,408
2,81,127,19
2,77,127,558
2,76,127,4
2,76,127,310
2,77,127,318
2,79,127,61
2,79,127,107
2,79,127,121
2,79,127,73
2,81,127,30
2,81,127,50
2,81,127,61
2,81,127,96
2,81,127,54
2,79,127,33
2,84,127,14
2,86,127,6
2,88,127,361
2,88,127,85
2,88,127,112
2,88,127,79
2,86,127,604
2,84,127,441
2,81,127,405
2,84,127,2276
2,84,127,98
2,84,127,113
2,84,127,96
2,84,127,76
2,84,127,70
2,82,127,11
2,80,127,46
2,79,127,48
2,81,127,2073
2,81,127,158
2,79,127,481
2,84,127,1384
2,83,127,63
2,79,127,51
2,81,127,431
2,79,127,503
2,84,127,1511
2,86,127,574
2,88,127,204
2,88,127,67
2,88,127,271
2,88,127,141
2,86,127,516
2,84,127,497
2,86,127,386
2,81,127,7
2,84,127,1700
2,84,127,89
2,84,127,110
2,79,127,24
2,84,127,560
2,83,127,21
2,79,127,14
2,79,127,144
2,81,127,222
2,83,127,128
2,84,127,353
3,36,84,1540
3,31,84,404
3,36,84,196
3,31,84,252
3,43,84,77
3,43,84,75
3,38,84,278
3,43,84,183
3,38,84,278
3,31,84,28
3,31,84,394
3,33,84,34
3,35,84,253
3,36,84,196
3,36,84,79
3,31,84,274
3,36,84,175
3,43,84,279
3,36,84,22
3,31,84,417
3,36,84,197
3,31,84,230
3,36,84,77
3,36,84,87
3,31,84,261
3,36,84,196
3,31,84,263
3,36,84,12
3,31,84,451
3,36,84,200
3,31,84,261
3,43,84,30
3,43,84,93
3,38,84,273
3,43,84,0
3,38,84,242
3,31,84,25
3,38,84,395
3,43,84,191
3,38,84,238
3,31,84,88
3,31,84,95
3,38,84,268
3,43,84,1
3,38,84,249
3,43,84,2
3,43,84,488
3,38,84,197
3,31,84,248
3,36,84,86
3,36,84,92
3,40,84,281
3,45,84,190
3,43,84,373
3,36,84,21
3,31,84,369
3,36,84,202
3,31,84,276
3,36,84,8
3,36,84,84
3,31,84,262
3,36,84,198
3,31,84,267
3,36,84,38
3,36,84,462
3,38,84,196
3,40,84,246
3,41,84,250
3,36,84,441
3,36,84,353
3,41,84,27
3,41,84,91
3,36,84,280
3,41,84,205
3,41,84,279
3,36,84,34
3,31,84,444
3,36,84,191
3,31,84,230
3,43,84,88
3,43,84,117
3,38,84,276
3,31,84,192
3,35,84,216
3,36,84,17
3,40,84,366
3,43,84,201
3,36,84,202
3,36,84,22
3,36,84,446
3,38,84,0
3,40,84,252
3,41,84,43
3,41,84,78
3,36,84,276
3,41,84,1
3,36,84,212
3,36,84,215
3,31,84,402
3,31,84,39
3,31,84,223
3,36,84,94
3,36,84,0
3,31,84,469
3,36,84,181
3,31,84,283
3,43,84,53
3,43,84,95
3,38,84,274
3,43,84,187
3,38,84,179
3,36,84,280
3,36,80,5803
3,40,80,96
3,43,80,146
3,45,80,163
3,48,80,129
3,45,80,64
3,43,80,208
3,40,80,114
3,36,80,181
3,40,80,130
3,43,80,191
3,45,80,236
3,48,80,197
3,45,80,192
3,43,80,211
3,40,80,228
3,36,80,237
3,40,80,181
3,43,80,229
3,45,80,210
3,48,80,224
3,45,80,67
3,43,80,229
3,40,80,183
3,31,80,241
3,35,80,110
3,38,80,120
3,40,80,221
3,43,80,195
3,40,80,81
3,38,80,177
3,35,80,82
3,31,80,139
3,35,80,103
3,38,80,190
3,40,80,209
3,43,80,223
3,40,80,165
3,38,80,213
3,35,80,222
3,31,80,209
3,35,80,225
3,38,80,211
3,40,80,226
3,43,80,234
3,40,80,237
3,38,80,228
3,35,80,181
3,31,80,207
3,35,80,127
3,38,80,207
3,40,80,238
3,43,80,187
3,31,80,162
3,33,80,144
3,35,80,180
3,36,80,208
3,40,80,206
3,43,80,208
3,45,80,174
3,48,80,161
3,45,80,60
3,43,80,189
3,40,80,151
3,36,80,178
3,40,80,128
3,43,80,209
3,45,80,190
3,48,80,194
3,45,80,93
3,43,80,211
3,40,80,160
3,36,80,192
3,40,80,112
3,43,80,215
3,45,80,199
3,48,80,211
3,45,80,87
3,43,80,213
3,40,80,164
3,36,80,241
3,40,80,231
3,43,80,213
3,45,80,205
3,48,80,189
3,36,80,132
3,38,80,380
3,40,80,363
3,41,80,43
3,45,80,191
3,48,80,181
3,50,80,190
3,51,80,70
3,50,80,124
3,48,80,75
3,45,80,150
3,41,80,218
3,45,80,178
3,48,80,190
3,50,80,194
3,51,80,173
3,50,80,199
3,48,80,160
3,44,80,177
3,36,80,229
3,40,80,159
3,43,80,112
3,45,80,226
3,48,80,63
3,45,80,83
3,43,80,240
3,40,80,133
3,31,80,233
3,35,80,124
3,38,80,115
3,40,80,164
3,43,80,46
3,31,80,188
3,33,80,110
3,35,80,141
3,36,80,142
3,40,80,242
3,43,80,217
3,45,80,194
3,48,80,213
3,45,80,94
3,43,80,213
3,40,80,192
3,36,80,0
3,36,80,0
3,40,80,109
3,43,80,47
3,45,80,78
3,48,80,1
3,36,80,107
3,38,80,64
3,40,80,81
3,41,80,112
3,45,80,141
3,48,80,133
3,50,80,100
3,51,80,126
3,50,80,138
3,48,80,149
3,45,80,119
3,36,80,229
3,40,80,126
3,41,80,109
3,42,80,138
3,43,80,175
3,31,80,160
3,33,80,79
3,35,80,153
3,36,80,135
3,40,80,156
3,43,80,163
3,45,80,145
3,48,80,130
3,45,80,71
3,43,80,203
3,40,80,113
3,36,80,149
3,40,80,145
3,43,80,194
3,45,80,148
3,48,80,131
3,45,80,82
3,43,80,189
3,40,80,116
3,36,80,236
3,40,80,128
3,43,80,152
3,45,80,216
3,48,80,223
3,45,80,210
3,43,80,221
3,40,80,240
3,36,80,235
3,40,80,209
3,43,80,230
3,45,80,210
3,48,80,208
3,45,80,111
3,43,80,219
3,40,80,174
3,31,80,228
3,35,80,165
3,38,80,161
3,40,80,170
3,43,80,193
3,40,80,160
3,38,80,241
3,35,80,236
3,31,80,221
3,35,80,216
3,38,80,237
3,40,80,242
3,43,80,215
3,40,80,159
3,38,80,171
3,35,80,206
3,31,80,194
3,35,80,193
3,38,80,204
3,40,80,177
3,43,80,190
3,40,80,210
3,38,80,197
3,35,80,206
3,31,80,211
3,35,80,146
3,38,80,226
3,40,80,203
3,41,80,140
3,31,80,193
3,33,80,128
3,36,80,574
3,40,80,230
3,43,80,215
3,45,80,210
3,46,80,178
3,45,80,205
3,43,80,132
3,40,80,190
3,36,80,241
3,40,80,130
3,43,80,202
3,45,80,218
3,48,80,237
3,45,80,174
3,43,80,239
3,40,80,223
3,36,80,256
3,40,80,145
3,43,80,231
3,45,80,211
3,48,80,178
3,45,80,190
3,43,80,223
3,40,80,217
3,36,80,222
3,40,80,229
3,43,80,207
3,45,80,196
3,48,80,172
3,36,80,215
3,38,80,107
3,40,80,164
3,41,80,170
3,45,80,194
3,48,80,201
3,50,80,197
3,51,80,221
3,50,80,196
3,48,80,178
3,45,80,199
3,41,80,204
3,45,80,135
3,48,80,205
3,50,80,175
3,51,80,222
3,50,80,195
3,48,80,206
3,44,80,216
3,36,80,241
3,40,80,124
3,43,80,221
3,45,80,205
3,48,80,201
3,45,80,99
3,43,80,203
3,40,80,224
3,31,80,252
3,35,80,146
3,38,80,223
3,40,80,219
3,43,80,195
3,41,80,163
3,40,80,192
3,38,80,209
3,36,80,237
3,40,80,163
3,43,80,209
3,45,80,193
3,48,80,224
3,45,80,146
3,43,80,222
3,40,80,196
3,36,80,226
3,40,80,149
3,43,80,174
3,45,80,197
3,48,80,137
3,36,80,99
3,38,80,101
3,40,80,99
3,41,80,158
3,45,80,216
3,48,80,185
3,50,80,219
3,51,80,222
3,50,80,193
3,48,80,173
3,44,80,165
3,36,80,0
3,36,80,0
3,40,80,181
3,41,80,139
3,42,80,162
3,43,80,103
3,31,80,141
3,33,80,127
3,35,80,136
3,36,80,147
3,37,80,149
3,38,80,106
3,39,80,118
3,40,80,200
3,33,80,1174
3,37,80,99
3,40,80,94
3,42,80,168
3,45,80,142
3,42,80,81
3,40,80,160
3,37,80,183
3,33,80,241
3,37,80,174
3,40,80,152
3,42,80,209
3,45,80,100
3,42,80,250
3,40,80,159
3,37,80,225
3,33,80,163
3,37,80,146
3,40,80,202
3,42,80,178
3,45,80,95
3,42,80,158
3,40,80,117
3,37,80,174
3,40,80,132
3,44,80,195
3,47,80,143
3,49,80,170
3,50,80,121
3,49,80,78
3,47,80,140
3,44,80,227
3,40,80,180
3,44,80,126
3,47,80,115
3,49,80,144
3,50,80,217
3,49,80,240
3,47,80,144
3,44,80,173
3,40,80,209
3,44,80,128
3,47,80,199
3,49,80,179
3,50,80,135
3,49,80,206
3,47,80,87
3,44,80,179
3,40,80,244
3,44,80,137
3,47,80,115
3,49,80,200
3,50,80,49
3,40,80,190
3,42,80,176
3,44,80,210
3,45,80,222
3,42,80,161
3,40,80,149
3,37,80,147
3,33,80,101
3,37,80,161
3,40,80,129
3,42,80,99
3,33,80,114
3,37,80,116
3,40,80,30
3,42,80,144
3,45,80,27
3,42,80,165
3,40,80,77
3,37,80,168
3,33,80,216
3,37,80,139
3,40,80,97
3,42,80,116
3,45,80,49
3,42,80,200
3,40,80,79
3,37,80,189
3,33,80,170
3,37,80,159
3,40,80,126
3,42,80,178
3,43,80,79
3,42,80,141
3,40,80,80
3,37,80,182
3,38,80,185
3,42,80,180
3,45,80,159
3,47,80,140
3,50,80,146
3,47,80,188
3,45,80,65
3,42,80,177
3,38,80,104
3,42,80,95
3,45,80,97
3,47,80,181
3,50,80,176
3,47,80,240
3,45,80,106
3,42,80,207
3,33,80,256
3,37,80,191
3,40,80,119
3,42,80,224
3,45,80,171
3,42,80,109
3,40,80,79
3,37,80,178
3,35,80,207
3,38,80,87
3,42,80,180
3,38,80,157
3,40,80,130
3,40,80,0
3,42,80,221
3,43,80,114
3,44,80,156
3,45,80,152
3,42,80,92
3,40,80,143
3,37,80,221
3,33,80,165
3,37,80,126
3,42,80,179
3,40,80,101
3,33,80,64
3,37,80,80
3,40,80,146
3,42,80,177
3,45,80,195
3,42,80,107
3,40,80,173
3,37,80,240
3,33,80,212
3,37,80,133
3,40,80,174
3,42,80,193
3,45,80,193
3,42,80,91
3,40,80,135
3,37,80,211
3,33,80,211
3,37,80,123
3,40,80,94
3,42,80,152
3,45,80,98
3,42,80,145
3,40,80,53
3,37,80,144
3,40,80,145
3,44,80,222
3,47,80,188
3,49,80,178
3,50,80,140
3,49,80,108
3,47,80,160
3,44,80,242
3,40,80,213
3,44,80,211
3,47,80,189
3,49,80,190
3,50,80,180
3,49,80,231
3,47,80,206
3,44,80,189
3,40,80,209
3,44,80,193
3,47,80,208
3,49,80,161
