track,note,velocity,time
1,63,92,7552
1,72,82,128
1,72,80,100
1,72,77,48
1,72,87,64
1,72,61,48
1,63,72,76
1,70,92,128
1,70,81,80
1,70,81,56
1,70,79,60
1,70,81,40
1,68,79,104
1,68,70,32
1,68,81,60
1,67,80,4
1,70,94,128
1,67,73,40
1,65,82,24
1,63,95,384
1,73,95,360
1,73,92,100
1,73,72,60
1,73,78,64
1,73,98,56
1,70,92,188
1,68,69,16
1,73,98,4
1,68,101,128
1,67,87,96
1,70,95,776
1,67,87,512
1,65,79,52
1,63,77,128
1,75,98,300
1,75,89,68
1,75,116,48
1,75,86,56
1,63,81,392
1,73,92,128
1,73,89,72
1,73,92,44
1,73,72,116
1,73,98,56
1,65,95,828
1,69,82,128
1,72,93,116
1,75,95,100
1,72,87,12
1,75,95,128
1,73,92,20
1,70,98,288
1,72,91,28
1,73,92,0
1,73,79,56
1,73,95,60
1,73,86,124
1,72,87,100
1,70,69,52
1,72,93,24
1,72,84,56
1,72,93,72
1,72,93,64
1,72,91,48
1,75,92,520
1,73,97,16
1,72,81,128
1,67,86,108
1,70,102,128
1,68,98,16
1,63,92,560
1,72,97,0
1,72,93,176
1,72,76,80
1,73,96,16
1,75,96,28
1,70,91,116
1,70,84,52
1,70,95,24
1,75,74,128
1,70,98,120
1,68,98,296
1,68,83,76
1,68,87,84
1,70,96,52
1,67,87,512
1,65,72,24
1,63,86,384
1,73,95,208
1,73,92,100
1,73,72,60
1,73,78,64
1,73,98,56
1,70,92,188
1,68,69,16
1,73,98,4
1,68,101,128
1,67,87,96
1,70,95,776
1,67,87,512
1,65,79,52
1,63,77,128
1,75,86,300
1,75,92,68
1,75,70,24
1,75,64,44
1,78,116,16
1,65,93,368
1,77,93,0
1,77,80,52
1,77,91,48
1,77,91,40
1,77,95,48
1,65,95,944
1,69,86,0
1,72,80,128
1,75,122,100
1,72,87,212
1,75,86,108
1,73,92,248
1,70,89,276
1,72,93,8
1,73,98,8
1,73,127,80
1,73,86,80
1,73,98,144
1,72,93,60
1,70,116,128
1,72,93,56
1,72,84,84
1,72,97,68
1,72,89,40
1,72,100,52
1,75,106,888
1,73,89,88
1,72,97,128
1,67,89,384
1,70,98,128
1,68,92,8
1,63,98,332
1,75,89,492
1,74,102,1920
1,73,89,20
1,72,108,24
1,72,114,68
1,72,95,68
1,72,122,592
1,69,100,8
1,65,108,4
1,68,122,488
1,65,86,384
1,68,111,8
1,72,105,4
1,68,111,392
1,65,86,4
1,68,98,24
1,72,93,384
1,68,116,372
1,65,84,4
1,68,95,128
1,65,86,348
1,68,122,400
1,65,84,384
1,68,95,24
1,65,95,384
1,75,127,112
1,74,127,88
1,73,102,112
1,72,111,84
1,72,114,128
1,72,127,60
1,72,111,432
1,72,114,24
1,72,102,8
1,72,114,180
1,72,89,8
1,72,105,20
1,72,114,416
1,72,102,152
1,72,111,80
1,72,108,44
1,72,108,96
1,72,108,372
1,72,97,68
1,72,102,56
1,77,105,128
1,77,93,96
1,72,105,72
1,68,98,180
1,68,92,48
1,70,92,60
1,68,127,48
1,67,105,0
1,80,102,640
1,80,106,64
1,77,118,12
1,68,116,172
1,80,102,472
1,80,92,20
1,77,97,32
1,80,107,112
1,80,99,88
1,80,106,1704
1,77,102,704
1,72,111,16
1,68,98,128
1,79,122,852
1,77,69,128
1,79,95,100
1,77,89,108
1,79,111,84
1,79,122,384
1,77,97,320
1,79,95,20
1,77,102,128
1,79,97,80
1,77,84,124
1,79,126,8
1,72,122,536
1,65,126,640
1,68,106,144
1,70,95,128
1,72,102,88
1,75,116,12
1,72,111,392
1,71,100,72
1,70,98,4
1,75,89,520
1,74,102,1920
1,73,89,20
1,72,108,24
1,72,114,68
1,72,95,68
1,72,122,592
1,69,100,16
1,65,108,4
1,68,122,488
1,65,86,384
1,68,111,8
1,72,105,4
1,68,111,392
1,65,86,4
1,68,98,24
1,72,93,384
1,68,116,372
1,65,84,4
1,68,95,128
1,65,86,348
1,68,122,400
1,65,84,384
1,68,95,24
1,75,102,34136
1,75,66,48
1,75,74,60
1,75,106,64
1,75,67,56
1,75,81,72
1,75,106,64
1,75,86,72
1,75,81,72
1,75,103,68
1,75,84,64
1,75,74,80
1,75,104,88
1,75,81,76
1,75,86,76
1,75,122,84
1,75,77,64
1,75,86,76
1,75,101,80
1,75,84,76
1,75,81,80
1,75,111,80
1,75,92,308
1,75,79,20
1,75,67,28
1,75,92,88
1,75,98,52
1,75,81,28
1,75,127,80
1,74,97,384
1,73,122,336
1,72,105,8
1,72,105,64
1,72,122,72
1,72,127,568
1,69,111,384
1,65,111,56
1,68,122,432
1,65,86,384
1,68,111,8
1,72,105,4
1,68,111,392
1,65,86,4
1,68,98,24
1,72,93,384
1,68,116,372
1,65,84,4
1,68,95,128
1,65,86,348
1,68,122,400
1,65,84,384
1,68,95,24
1,65,95,384
1,75,92,112
1,75,79,20
1,75,67,28
1,75,92,88
1,75,98,52
1,75,81,28
1,75,127,80
1,74,97,384
1,73,122,336
1,72,105,8
1,72,105,64
1,72,122,72
1,72,111,536
1,72,114,24
1,72,102,8
1,72,114,180
1,72,89,8
1,72,105,20
1,72,114,416
1,72,102,152
1,72,111,80
1,72,108,44
1,72,108,96
1,72,108,372
1,72,97,68
1,72,102,56
1,77,105,128
1,77,93,96
1,72,105,72
1,68,98,180
1,68,92,48
1,70,92,60
1,68,127,48
1,67,105,0
1,80,102,640
1,80,106,64
1,77,118,12
1,68,116,172
1,80,102,472
1,80,92,20
1,77,97,32
1,80,107,112
1,80,99,88
1,80,106,1704
1,77,102,704
1,72,111,16
1,68,98,128
1,79,122,852
1,77,69,128
1,79,95,100
1,77,89,108
1,79,111,84
1,79,122,384
1,77,97,320
1,79,95,20
1,77,102,128
1,79,97,80
1,77,84,124
1,79,126,8
1,80,98,364
1,77,89,0
1,80,101,64
1,80,111,416
1,80,106,600
1,80,106,460
1,80,109,52
1,80,102,352
1,80,111,496
1,80,111,460
1,72,114,492
1,81,111,372
1,79,100,256
1,77,102,44
1,72,118,236
1,81,108,96
1,79,111,256
1,77,93,16
1,80,116,724
1,80,98,124
1,80,92,104
1,80,116,792
1,80,102,108
1,80,111,132
1,80,106,556
1,80,102,112
1,77,111,84
1,80,116,812
1,80,102,96
1,77,111,96
1,80,102,660
1,77,97,144
1,80,111,872
1,77,105,16
1,80,111,788
1,77,103,124
1,80,115,8
1,79,122,1032
1,77,89,128
1,79,122,0
1,77,108,8
1,77,108,692
1,80,111,76
1,80,102,20
1,80,102,624
1,80,106,0
1,77,105,188
1,80,116,88
1,80,102,1540
1,77,89,128
1,80,102,116
1,79,127,652
1,79,100,60
1,77,105,44
1,79,111,836
1,79,114,48
1,79,108,44
1,77,105,32
1,80,127,444
1,77,108,52
1,72,93,8
1,80,106,852
1,77,76,0
1,80,116,44
1,84,127,840
1,80,108,52
1,75,93,8
1,79,106,852
1,77,97,0
1,79,116,44
1,80,106,776
1,77,102,88
1,80,105,52
1,75,95,572
1,72,114,128
1,72,114,116
1,72,126,132
1,68,109,260
2,44,108,1540
2,48,108,18
2,51,108,10
2,48,108,26
2,51,108,58
2,46,108,132
2,46,108,58
2,51,108,38
2,51,108,102
2,44,108,10
2,48,108,58
2,51,108,54
2,48,108,94
2,51,108,50
2,46,108,10
2,46,108,62
2,51,108,26
2,51,108,90
2,44,108,106
2,48,108,380
2,51,108,374
2,48,108,30
2,51,108,256
2,44,108,114
2,48,108,2
2,51,108,384
2,48,108,22
2,51,108,2
2,44,108,132
2,44,108,94
2,47,108,58
2,47,108,78
2,46,108,106
2,46,108,110
2,51,108,50
2,46,108,94
2,39,108,98
2,39,108,78
2,46,108,82
2,46,108,82
2,51,108,78
2,51,108,82
2,46,108,82
2,46,108,78
2,51,108,82
2,49,108,78
2,48,108,78
2,46,108,82
2,44,108,82
2,41,108,78
2,39,108,82
2,36,108,78
2,32,108,78
2,36,108,78
2,39,108,78
2,41,108,78
2,42,108,82
2,49,108,78
2,46,108,78
2,42,108,78
2,41,108,82
2,41,108,146
2,48,108,144
2,41,108,318
2,46,108,102
2,41,108,78
2,37,108,74
2,36,108,78
2,34,108,82
2,34,94,110
2,40,103,94
2,40,99,58
2,39,108,98
2,41,108,82
2,34,108,78
2,34,108,78
2,39,108,82
2,39,108,74
2,44,108,82
2,41,108,78
2,39,108,78
2,36,108,78
2,44,108,82
2,48,108,384
2,51,108,370
2,48,108,30
2,51,108,256
2,44,108,110
2,48,108,2
2,51,108,384
2,48,108,18
2,51,108,2
2,44,108,128
2,44,108,90
2,47,108,50
2,47,108,78
2,46,108,106
2,46,108,98
2,51,108,58
2,46,108,94
2,39,108,102
2,39,108,78
2,46,108,82
2,46,108,82
2,51,108,82
2,51,108,82
2,46,108,78
2,46,108,78
2,51,108,82
2,49,108,78
2,48,108,78
2,46,108,82
2,44,108,78
2,41,108,78
2,39,108,78
2,36,108,78
2,32,108,82
2,36,108,78
2,39,108,74
2,41,108,78
2,42,108,82
2,49,108,78
2,46,108,78
2,42,108,82
2,41,108,78
2,41,108,146
2,48,108,144
2,41,108,318
2,46,108,106
2,41,108,78
2,37,108,78
2,36,108,78
2,34,108,82
2,34,94,106
2,40,103,94
2,40,99,58
2,39,108,98
2,41,108,298
2,34,108,512
2,32,109,2874
2,36,86,34
2,39,100,10
2,36,90,78
2,39,109,256
2,44,104,66
2,43,97,62
2,42,109,78
2,41,104,74
2,29,108,98
2,33,108,6
2,36,108,384
2,39,108,350
2,41,108,362
2,43,108,350
2,44,108,378
2,48,108,350
2,46,108,6
2,48,108,380
2,49,108,354
2,50,108,10
2,51,108,388
2,49,108,366
2,48,108,366
2,46,108,354
2,44,108,82
2,41,108,380
2,39,108,346
2,36,108,350
2,32,108,370
2,36,108,370
2,39,108,374
2,36,108,18
2,32,108,26
2,36,108,384
2,39,108,382
2,36,108,26
2,39,108,252
2,44,108,22
2,43,108,384
2,42,108,366
2,41,108,350
2,29,108,370
2,33,108,2
2,36,108,384
2,39,108,350
2,41,108,366
2,43,108,354
2,44,108,378
2,48,108,358
2,34,108,374
2,34,108,106
2,29,108,50
2,28,108,110
2,29,108,0
2,34,108,50
2,34,108,142
2,41,108,46
2,41,108,98
2,39,108,66
2,39,108,118
2,34,108,106
2,34,108,106
2,39,108,46
2,37,108,110
2,36,108,134
2,34,108,110
2,32,108,154
2,36,108,380
2,39,108,366
2,36,108,350
2,32,108,366
2,36,108,2
2,39,108,384
2,36,108,14
2,37,108,388
2,41,108,6
2,44,108,388
2,41,108,366
2,37,108,358
2,41,108,378
2,44,108,358
2,41,108,354
2,29,108,382
2,33,108,370
2,36,108,366
2,39,108,2
2,41,108,384
2,39,108,370
2,36,108,330
2,33,108,366
2,34,108,66
2,32,108,2798
2,36,108,30
2,39,108,384
2,36,108,378
2,44,108,382
2,43,108,354
2,42,108,362
2,41,108,354
2,29,108,370
2,33,108,2
2,36,108,380
2,39,108,350
2,41,108,362
2,43,108,350
2,44,108,382
2,48,108,354
2,46,108,378
2,48,108,342
2,49,108,354
2,50,108,14
2,51,108,388
2,49,108,362
2,48,108,366
2,46,108,358
2,44,108,82
2,41,108,384
2,39,108,350
2,36,108,354
2,32,108,370
2,36,108,370
2,39,108,378
2,36,108,14
2,32,108,30
2,36,108,74
2,39,108,102
2,36,108,62
2,32,108,10
2,32,108,162
2,31,108,102
2,30,108,106
2,29,108,86
2,29,108,118
2,36,108,78
2,36,108,94
2,41,108,54
2,41,108,110
2,36,108,66
2,36,108,106
2,34,108,186
2,34,108,118
2,41,108,38
2,41,108,78
2,39,108,66
2,39,108,106
2,34,108,74
2,34,108,126
2,32,108,94
2,36,108,42
2,39,108,50
2,41,108,86
2,44,108,98
2,41,108,98
2,39,108,82
2,36,108,122
2,32,108,142
2,36,108,74
2,39,108,98
2,36,108,62
2,32,108,10
2,32,108,166
2,31,108,102
2,30,108,110
2,29,108,82
2,29,108,118
2,36,108,78
2,36,108,94
2,41,108,54
2,41,108,110
2,36,108,66
2,36,108,102
2,34,124,186
2,34,119,158
2,41,104,122
2,41,107,142
2,46,109,62
2,46,104,98
2,46,100,54
2,41,107,128
2,46,109,42
2,39,109,54
2,39,104,114
2,46,119,70
2,46,109,102
2,49,109,82
2,49,104,122
2,49,109,46
2,48,101,38
2,46,114,384
2,32,108,42
2,36,108,50
2,39,108,78
2,36,108,50
2,32,108,380
2,32,108,150
2,31,108,46
2,30,108,146
2,29,108,106
2,33,108,62
2,36,108,86
2,33,108,130
2,29,108,114
2,33,108,122
2,36,108,110
2,33,108,106
2,34,108,66
2,36,108,380
2,37,108,358
2,38,108,366
2,39,108,370
2,41,108,358
2,43,108,366
2,44,108,354
2,32,108,378
2,32,108,2794
2,36,108,30
2,39,108,384
2,36,108,382
2,44,108,382
2,43,108,354
2,42,108,362
2,41,108,350
2,29,108,366
2,33,108,2
2,36,108,380
2,39,108,350
2,41,108,366
2,43,108,358
2,44,108,382
2,48,108,358
2,46,108,378
2,48,108,342
2,49,108,354
2,50,108,18
2,51,108,384
2,49,108,362
2,48,108,370
2,46,108,354
2,44,108,82
2,41,108,380
2,39,108,346
2,36,108,354
2,32,108,370
2,36,108,370
2,39,108,374
2,36,108,18
2,32,108,26
2,36,108,380
2,39,108,378
2,36,108,22
2,39,108,252
2,44,108,18
2,43,108,380
2,42,108,366
2,41,108,354
2,29,108,366
2,33,108,2
2,36,108,384
2,39,108,350
2,41,108,366
2,43,108,354
2,44,108,382
2,48,108,354
2,34,108,374
2,34,108,106
2,29,108,54
2,28,108,106
2,29,108,0
2,34,108,50
2,34,108,142
2,41,108,54
2,41,108,106
2,39,108,54
2,39,108,118
2,34,108,106
2,34,108,106
2,39,108,46
2,37,108,106
2,36,108,126
2,34,108,106
2,32,108,150
2,36,108,384
2,39,108,370
2,36,108,346
2,32,108,362
2,36,108,6
2,39,108,384
2,36,108,14
2,37,108,384
2,41,108,10
2,44,108,384
2,41,108,362
2,37,108,358
2,41,108,378
2,44,108,358
2,41,108,358
2,29,108,382
2,33,108,366
2,36,108,366
2,39,108,2
2,41,108,384
2,39,108,354
2,36,108,322
2,33,108,382
2,34,109,66
2,36,104,70
2,37,109,58
2,38,108,74
2,39,109,38
2,41,108,22
2,43,107,58
2,46,109,50
2,32,100,70
2,36,88,78
2,39,89,78
2,36,85,82
2,32,85,82
2,32,89,78
2,31,90,78
2,30,89,78
2,29,90,78
2,33,85,78
2,36,88,78
2,39,85,78
2,41,90,82
2,43,90,78
2,44,81,78
2,48,99,74
2,46,85,82
2,48,88,82
2,49,89,74
2,50,85,78
2,51,89,82
2,49,85,74
2,48,96,78
2,46,77,82
2,44,94,78
2,44,94,78
2,43,89,78
2,43,94,78
2,41,103,82
2,41,99,82
2,36,99,74
2,36,99,82
2,34,94,82
2,36,88,70
2,37,89,78
2,38,90,82
2,39,94,74
2,39,89,78
2,41,93,82
2,43,85,78
2,44,89,82
2,44,94,74
2,43,90,78
2,43,88,78
2,41,93,82
2,39,89,82
2,36,90,78
2,32,89,74
2,34,100,82
2,36,90,82
2,37,85,78
2,38,81,82
2,39,85,82
2,37,89,74
2,36,88,78
2,34,85,82
2,44,85,78
2,44,85,82
2,43,93,82
2,43,90,78
2,41,99,82
2,41,103,78
2,48,99,78
2,47,96,78
2,34,100,82
2,36,90,82
2,37,85,78
2,38,81,82
2,39,85,82
2,37,89,74
2,36,88,78
2,34,85,82
2,44,85,78
2,44,85,82
2,43,93,82
2,43,90,78
2,41,99,82
2,41,103,78
2,48,99,78
2,47,96,78
2,46,94,82
2,48,99,78
2,49,85,82
2,50,83,78
2,51,94,78
2,49,89,82
2,48,85,78
2,46,89,78
2,32,107,82
2,32,89,230
2,34,74,6
2,36,79,6
2,39,100,132
2,36,93,134
2,32,100,2
2,34,85,126
2,36,96,2
2,31,96,254
2,32,89,10
2,32,110,1544
3,80,96,44544
3,78,104,1536
3,77,99,0
4,60,86,19968
4,63,81,16
4,65,79,16
4,66,89,384
