track,note,velocity,time
1,64,1,6846
1,67,1,2
1,67,1,30
1,67,1,48
1,67,1,56
1,67,1,26
1,67,1,56
1,64,1,4
1,67,1,2
1,60,1,84
1,57,1,90
1,64,1,508
1,67,1,48
1,67,1,44
1,67,1,0
1,67,1,38
1,67,1,52
1,67,1,26
1,64,1,48
1,60,1,80
1,62,1,84
1,64,1,576
1,64,1,36
1,64,1,24
1,64,1,40
1,64,1,38
1,62,1,22
1,62,1,18
1,60,1,116
1,57,1,0
1,60,1,48
1,57,1,92
1,60,1,38
1,62,1,52
1,62,1,22
1,60,1,26
1,62,1,10
1,57,1,6
1,57,1,12
1,60,1,52
1,57,1,90
1,64,1,270
1,64,1,22
1,64,1,24
1,62,1,48
1,60,1,32
1,62,1,76
1,57,1,86
1,64,1,460
1,67,1,64
1,64,1,2
1,64,1,0
1,64,1,276
1,64,1,26
1,64,1,28
1,62,1,48
1,60,1,36
1,62,1,82
1,57,1,84
1,64,1,3608
1,67,1,2
1,67,1,46
1,64,1,82
1,64,1,46
1,62,1,98
1,57,1,46
1,62,1,48
1,60,1,98
1,64,1,584
1,67,1,16
1,67,1,18
1,67,1,52
1,64,1,16
1,67,1,18
1,67,1,24
1,67,1,32
1,64,1,28
1,57,1,0
1,62,1,54
1,60,1,4
1,64,1,460
1,64,1,38
1,64,1,24
1,64,1,56
1,64,1,34
1,62,1,24
1,62,1,0
1,60,1,102
1,60,1,34
1,60,1,24
1,57,1,26
1,60,1,10
1,62,1,20
1,60,1,48
1,60,1,50
1,57,1,60
1,60,1,4
1,60,1,0
1,57,1,0
1,64,1,276
1,64,1,26
1,64,1,28
1,62,1,48
1,60,1,40
1,62,1,16
1,57,1,8
1,64,1,446
1,67,1,66
1,64,1,20
1,64,1,122
1,64,1,24
1,64,1,30
1,62,1,48
1,60,1,34
1,62,1,8
1,57,1,98
1,62,1,274
1,62,1,24
1,62,1,34
1,60,1,48
1,62,1,36
1,60,1,34
1,64,1,56
1,64,1,60
1,64,1,26
1,64,1,62
1,64,1,28
1,64,1,62
1,64,1,62
1,62,1,4
1,60,1,24
1,60,1,60
1,60,1,28
1,60,1,54
1,60,1,28
1,60,1,82
1,60,1,58
1,62,1,10
1,64,1,36
1,64,1,44
1,64,1,28
1,64,1,68
1,64,1,32
1,64,1,54
1,64,1,62
1,62,1,10
1,60,1,20
1,60,1,60
1,60,1,14
1,60,1,58
1,60,1,20
1,60,1,58
1,60,1,60
1,62,1,6
1,64,1,6168
1,67,1,2
1,67,1,46
1,64,1,32
1,67,1,6
1,67,1,20
1,64,1,16
1,60,1,48
1,55,1,0
1,57,1,50
1,64,1,542
1,67,1,94
1,67,1,16
1,67,1,50
1,67,1,68
1,64,1,96
1,60,1,56
1,55,1,8
1,57,1,48
1,57,1,482
1,64,1,48
1,64,1,26
1,64,1,20
1,64,1,40
1,64,1,34
1,62,1,22
1,62,1,26
1,62,1,20
1,60,1,96
1,60,1,18
1,60,1,46
1,60,1,34
1,62,1,46
1,62,1,30
1,62,1,56
1,60,1,22
1,62,1,0
1,62,1,60
1,57,1,0
1,64,1,264
1,64,1,24
1,64,1,30
1,62,1,50
1,60,1,42
1,62,1,0
1,57,1,2
1,60,1,404
1,62,1,46
1,64,1,50
1,64,1,70
1,64,1,140
1,64,1,24
1,64,1,32
1,62,1,48
1,60,1,44
1,62,1,8
1,57,1,96
1,64,1,3560
1,67,1,12
1,67,1,16
1,67,1,50
1,67,1,48
1,67,1,56
1,67,1,52
1,64,1,6
1,60,1,96
1,57,1,92
1,64,1,574
1,67,1,10
1,67,1,14
1,67,1,40
1,67,1,40
1,67,1,52
1,67,1,44
1,64,1,4
1,60,1,96
1,57,1,92
1,62,1,474
1,64,1,94
1,64,1,12
1,64,1,68
1,62,1,48
1,62,1,26
1,62,1,96
1,60,1,46
1,60,1,18
1,60,1,34
1,60,1,14
1,62,1,36
1,62,1,26
1,62,1,40
1,60,1,8
1,62,1,50
1,64,1,42
1,57,1,96
1,60,1,24
1,64,1,232
1,64,1,24
1,64,1,26
1,62,1,50
1,60,1,30
1,62,1,82
1,57,1,90
1,62,1,392
1,64,1,48
1,67,1,28
1,64,1,6
1,64,1,120
1,64,1,24
1,64,1,32
1,62,1,48
1,60,1,30
1,62,1,20
1,57,1,96
1,57,1,218
1,55,1,96
1,62,1,3144
1,64,1,96
1,64,1,20
1,67,1,4
1,64,1,108
1,60,1,46
1,55,1,36
1,57,1,44
1,62,1,598
1,64,1,10
1,64,1,20
1,64,1,58
1,64,1,54
1,60,1,84
1,55,1,8
1,57,1,4
1,62,1,530
1,64,1,48
1,64,1,66
1,64,1,34
1,64,1,56
1,62,1,14
1,62,1,18
1,60,1,88
1,60,1,74
1,60,1,30
1,60,1,16
1,62,1,62
1,62,1,36
1,62,1,38
1,60,1,16
1,62,1,8
1,64,1,38
1,57,1,96
1,64,1,218
1,64,1,24
1,64,1,28
1,62,1,50
1,60,1,34
1,62,1,84
1,57,1,0
1,62,1,362
1,64,1,50
1,67,1,46
1,62,1,2
1,64,1,50
1,64,1,250
1,64,1,22
1,64,1,24
1,62,1,48
1,60,1,38
1,62,1,80
1,57,1,88
1,60,1,140
1,60,1,38
1,60,1,26
1,60,1,22
1,60,1,26
1,60,1,54
1,64,1,132
1,64,1,58
1,64,1,30
1,64,1,72
1,64,1,26
1,64,1,66
1,64,1,62
1,62,1,8
1,60,1,24
1,60,1,58
1,60,1,30
1,60,1,66
1,60,1,30
1,60,1,62
1,60,1,66
1,62,1,48
1,64,1,36
1,64,1,30
1,64,1,22
1,64,1,62
1,64,1,26
1,64,1,56
1,64,1,54
1,62,1,12
1,60,1,34
1,60,1,38
1,60,1,24
1,60,1,52
1,60,1,22
1,60,1,54
1,60,1,50
1,62,1,4
2,82,53,3772
2,69,65,0
2,82,25,45
2,69,41,0
2,82,27,46
2,69,14,0
2,82,37,45
2,69,47,0
2,70,39,0
2,70,45,41
2,82,50,2
2,69,66,0
2,44,75,2
2,69,39,43
2,82,11,0
2,82,29,45
2,69,18,0
2,70,49,44
2,69,39,0
2,82,37,0
2,69,45,45
2,82,49,0
2,70,45,45
2,69,37,0
2,82,31,0
2,82,21,46
2,69,14,0
2,82,35,47
2,69,51,0
2,70,37,1
2,70,37,42
2,82,51,1
2,69,63,0
2,44,53,1
2,69,37,42
2,82,31,0
2,82,33,45
2,69,21,0
2,82,39,48
2,69,45,0
2,82,52,45
2,69,63,0
2,69,37,46
2,82,37,0
2,82,35,45
2,69,8,0
2,82,37,47
2,69,45,0
2,70,29,13
2,82,46,33
2,69,61,0
2,44,51,1
2,70,43,5
2,82,39,38
2,69,37,0
2,82,35,45
2,69,6,0
2,82,29,47
2,69,37,0
2,70,45,3
2,69,55,41
2,82,43,0
2,82,35,47
2,69,43,0
2,70,49,5
2,82,33,39
2,69,14,0
2,82,31,45
2,69,41,0
2,70,45,0
2,44,45,44
2,82,43,0
2,69,59,0
2,70,51,0
2,82,31,45
2,69,33,0
2,69,21,46
2,82,35,0
2,69,47,46
2,82,35,0
2,82,41,46
2,69,59,0
2,82,23,46
2,69,43,0
2,82,39,46
2,69,1,0
2,82,31,46
2,69,47,0
2,70,45,14
2,44,53,29
2,82,33,1
2,69,63,0
2,70,39,10
2,82,25,34
2,69,41,0
2,82,33,46
2,69,12,0
2,82,29,46
2,69,47,0
2,70,43,0
2,82,35,45
2,69,59,0
2,82,35,46
2,69,45,0
2,70,45,4
2,82,35,40
2,69,24,0
2,82,35,46
2,69,41,0
2,70,43,0
2,44,51,36
2,82,43,6
2,69,55,0
2,70,43,0
2,82,35,46
2,69,41,0
2,82,41,46
2,69,29,0
2,82,37,46
2,69,33,0
2,69,53,34
2,82,46,10
2,82,31,46
2,69,45,0
2,82,35,46
2,69,25,0
2,82,19,45
2,69,47,0
2,70,43,0
2,44,51,45
2,82,43,0
2,69,55,0
2,70,53,2
2,82,33,42
2,69,47,0
2,82,33,46
2,69,39,0
2,82,37,45
2,69,47,0
2,70,33,0
2,82,39,45
2,69,61,0
2,82,37,45
2,69,45,0
2,70,45,3
2,82,43,40
2,69,47,0
2,70,45,45
2,82,33,0
2,69,45,0
2,70,51,41
2,44,59,2
2,82,43,0
2,69,57,0
2,82,37,46
2,69,41,0
2,82,46,46
2,69,37,0
2,69,39,46
2,82,37,0
2,82,46,45
2,69,55,0
2,35,93,0
2,82,33,45
2,69,47,0
2,82,37,46
2,69,20,0
2,82,31,46
2,69,47,0
2,70,37,2
2,44,51,39
2,82,41,3
2,69,47,0
2,70,41,0
2,82,33,45
2,69,27,0
2,82,37,46
2,69,27,0
2,82,29,46
2,69,45,0
2,70,43,0
2,82,43,44
2,69,55,0
2,82,33,46
2,69,49,0
2,70,45,2
2,82,43,43
2,69,41,0
2,82,31,46
2,69,41,0
2,70,29,4
2,44,59,35
2,70,45,2
2,82,41,1
2,69,55,0
2,82,31,46
2,69,41,0
2,82,39,46
2,69,41,0
2,82,27,46
2,69,39,0
2,35,80,46
2,82,45,0
2,69,51,0
2,69,41,46
2,82,33,0
2,82,39,46
2,69,47,0
2,82,33,46
2,69,35,0
2,70,31,2
2,44,59,37
2,82,43,4
2,69,49,0
2,70,45,2
2,82,35,43
2,69,41,0
2,82,43,46
2,69,41,0
2,70,35,40
2,82,29,5
2,69,47,0
2,82,46,46
2,69,25,0
2,82,27,46
2,69,41,0
2,70,35,0
2,82,43,44
2,69,45,0
2,82,35,46
2,69,49,0
2,70,43,2
2,44,57,39
2,70,51,1
2,82,45,0
2,69,51,0
2,82,35,46
2,69,51,0
2,82,48,46
2,69,55,0
2,82,46,46
2,69,53,0
2,35,84,46
2,82,53,0
2,69,65,0
2,82,25,45
2,69,41,0
2,82,27,46
2,69,14,0
2,82,37,45
2,69,47,0
2,70,39,0
2,70,45,41
2,82,50,2
2,69,66,0
2,44,75,2
2,69,39,43
2,82,11,0
2,82,29,45
2,69,18,0
2,70,49,44
2,69,39,0
2,82,37,0
2,69,45,45
2,82,49,0
2,70,45,45
2,69,37,0
2,82,31,0
2,82,21,46
2,69,14,0
2,82,35,47
2,69,51,0
2,70,37,1
2,70,37,42
2,82,51,1
2,69,63,0
2,44,53,1
2,69,37,42
2,82,31,0
2,82,33,45
2,69,21,0
2,82,39,48
2,69,45,0
2,82,52,45
2,69,63,0
2,35,84,0
2,69,37,45
2,82,37,0
2,82,35,45
2,69,8,0
2,82,37,47
2,69,45,0
2,70,29,13
2,82,46,33
2,69,61,0
2,44,51,1
2,70,43,5
2,82,39,38
2,69,37,0
2,82,35,45
2,69,6,0
2,82,29,47
2,69,37,0
2,70,45,3
2,69,55,41
2,82,43,0
2,82,35,47
2,69,43,0
2,70,49,5
2,82,33,39
2,69,14,0
2,82,31,45
2,69,41,0
2,70,45,0
2,44,45,44
2,82,43,0
2,69,59,0
2,70,51,0
2,82,31,45
2,69,33,0
2,69,21,46
2,82,35,0
2,69,47,46
2,82,35,0
2,82,41,46
2,69,59,0
2,35,82,0
2,82,23,45
2,69,43,0
2,82,39,46
2,69,1,0
2,82,31,46
2,69,47,0
2,70,45,14
2,44,53,29
2,82,33,1
2,69,63,0
2,70,39,10
2,82,25,34
2,69,41,0
2,82,33,46
2,69,12,0
2,82,29,46
2,69,47,0
2,70,43,0
2,82,35,45
2,69,59,0
2,35,84,0
2,82,35,45
2,69,45,0
2,70,45,4
2,82,35,40
2,69,24,0
2,82,35,46
2,69,41,0
2,70,43,0
2,44,51,36
2,82,43,6
2,69,55,0
2,70,43,0
2,82,35,46
2,69,41,0
2,82,41,46
2,69,29,0
2,82,37,46
2,69,33,0
2,69,53,34
2,82,46,10
2,35,68,0
2,82,31,46
2,69,45,0
2,82,35,46
2,69,25,0
2,82,19,45
2,69,47,0
2,70,43,0
2,44,51,45
2,82,43,0
2,69,55,0
2,70,53,2
2,82,33,42
2,69,47,0
2,82,33,46
2,69,39,0
2,82,37,45
2,69,47,0
2,70,33,0
2,82,39,45
2,35,76,0
2,69,61,0
2,82,37,45
2,69,45,0
2,70,45,3
2,82,43,40
2,69,47,0
2,70,45,45
2,82,33,0
2,69,45,0
2,70,51,41
2,44,59,2
2,82,43,0
2,69,57,0
2,82,37,46
2,69,41,0
2,82,46,46
2,69,37,0
2,69,39,46
2,35,72,0
2,82,37,0
2,82,46,45
2,69,55,0
2,35,78,0
2,82,33,46
2,69,47,0
2,82,37,46
2,69,20,0
2,82,31,46
2,69,47,0
2,70,37,2
2,44,51,39
2,82,41,3
2,69,47,0
2,70,41,0
2,82,33,45
2,69,27,0
2,82,37,46
2,69,27,0
2,82,29,46
2,69,45,0
2,70,43,0
2,82,43,44
2,69,55,0
2,82,33,46
2,69,49,0
2,70,45,2
2,82,43,43
2,69,41,0
2,82,31,46
2,69,41,0
2,70,29,4
2,44,59,35
2,70,45,2
2,82,41,1
2,69,55,0
2,82,31,46
2,69,41,0
2,82,39,46
2,69,41,0
2,82,27,46
2,69,39,0
2,35,68,0
2,82,45,46
2,69,51,0
2,35,78,0
2,69,41,46
2,82,33,0
2,82,39,46
2,69,47,0
2,82,33,46
2,69,35,0
2,70,31,2
2,44,59,37
2,82,43,4
2,69,49,0
2,70,45,2
2,82,35,43
2,69,41,0
2,82,43,46
2,69,41,0
2,70,35,40
2,82,29,5
2,69,47,0
2,82,46,46
2,69,25,0
2,82,27,46
2,69,41,0
2,70,35,0
2,82,43,44
2,69,45,0
2,82,35,46
2,69,49,0
2,70,43,2
2,44,57,39
2,70,51,1
2,82,45,0
2,69,51,0
2,82,35,46
2,69,51,0
2,82,48,46
2,69,55,0
2,82,46,46
2,69,53,0
2,35,60,0
2,35,72,45
2,82,53,0
2,69,65,0
2,82,25,45
2,69,41,0
2,82,27,46
2,69,14,0
2,82,37,45
2,69,47,0
2,70,39,0
2,70,45,41
2,82,50,2
2,69,66,0
2,44,75,2
2,69,39,43
2,82,11,0
2,82,29,45
2,69,18,0
2,70,49,44
2,69,39,0
2,82,37,0
2,69,45,45
2,82,49,0
2,70,45,45
2,69,37,0
2,82,31,0
2,82,21,46
2,69,14,0
2,82,35,47
2,69,51,0
2,70,37,1
2,70,37,42
2,82,51,1
2,69,63,0
2,44,53,1
2,69,37,42
2,82,31,0
2,82,33,45
2,69,21,0
2,82,39,48
2,69,45,0
2,35,78,0
2,82,52,45
2,69,63,0
2,35,66,0
2,69,37,46
2,82,37,0
2,82,35,45
2,69,8,0
2,82,37,47
2,69,45,0
2,70,29,13
2,82,46,33
2,69,61,0
2,44,51,1
2,70,43,5
2,82,39,38
2,69,37,0
2,82,35,45
2,69,6,0
2,82,29,47
2,69,37,0
2,70,45,3
2,69,55,41
2,82,43,0
2,82,35,47
2,69,43,0
2,70,49,5
2,82,33,39
2,69,14,0
2,82,31,45
2,69,41,0
2,70,45,0
2,44,45,44
2,82,43,0
2,69,59,0
2,70,51,0
2,82,31,45
2,69,33,0
2,69,21,46
2,82,35,0
2,69,47,46
2,82,35,0
2,35,74,0
2,82,41,45
2,69,59,0
2,35,78,0
2,82,23,45
2,69,43,0
2,82,39,46
2,69,1,0
2,82,31,46
2,69,47,0
2,70,45,14
2,44,53,29
2,82,33,1
2,69,63,0
2,70,39,10
2,82,25,34
2,69,41,0
2,82,33,46
2,69,12,0
2,82,29,46
2,69,47,0
2,70,43,0
2,82,35,45
2,69,59,0
2,82,35,46
2,69,45,0
2,70,45,4
2,82,35,40
2,69,24,0
2,82,35,46
2,69,41,0
2,70,43,0
2,44,51,36
2,82,43,6
2,69,55,0
2,70,43,0
2,82,35,46
2,69,41,0
2,82,41,46
2,69,29,0
2,82,37,46
2,69,33,0
2,35,76,0
2,69,53,33
2,82,46,10
2,35,76,0
2,82,31,45
2,69,45,0
2,82,35,46
2,69,25,0
2,82,19,45
2,69,47,0
2,70,43,0
2,44,51,45
2,82,43,0
2,69,55,0
2,70,53,2
2,82,33,42
2,69,47,0
2,82,33,46
2,69,39,0
2,82,37,45
2,69,47,0
