track,note,velocity,time
1,64,119,4259
1,64,0,26
1,67,115,3
1,67,0,41
1,67,110,20
1,67,0,30
1,67,115,30
1,67,0,25
1,67,113,35
1,67,0,13
1,67,113,17
1,67,0,53
1,67,115,36
1,67,0,27
1,64,118,3
1,67,90,1
1,67,0,6
1,60,114,53
1,64,0,3
1,57,115,57
1,60,0,9
1,57,0,152
1,64,119,319
1,67,116,30
1,64,0,2
1,67,0,29
1,67,115,29
1,67,0,30
1,67,111,0
1,67,0,37
1,67,112,24
1,67,0,28
1,67,115,32
1,67,0,73
1,67,115,17
1,64,114,30
1,67,0,9
1,60,115,51
1,64,0,6
1,62,108,54
1,60,0,4
1,62,0,116
1,64,115,360
1,64,0,36
1,64,110,23
1,64,0,15
1,64,108,16
1,64,0,33
1,64,111,26
1,64,0,65
1,64,113,25
1,64,0,46
1,62,110,14
1,62,0,18
1,62,112,12
1,62,0,77
1,60,115,73
1,60,0,59
1,57,108,1
1,60,112,30
1,57,0,3
1,57,115,57
1,60,0,6
1,60,117,25
1,57,0,13
1,60,0,14
1,62,117,33
1,62,0,16
1,62,114,14
1,62,0,42
1,60,115,17
1,60,0,23
1,62,116,7
1,62,0,27
1,57,115,4
1,57,0,22
1,57,114,8
1,57,0,31
1,60,118,33
1,57,115,56
1,60,0,12
1,57,0,58
1,64,118,169
1,64,0,16
1,64,116,15
1,64,0,14
1,64,110,15
1,62,115,30
1,64,0,10
1,60,117,20
1,62,0,12
1,62,118,48
1,60,0,6
1,57,115,54
1,62,0,4
1,57,0,68
1,64,118,288
1,64,0,22
1,67,114,40
1,67,0,58
1,64,113,1
1,64,0,30
1,64,117,0
1,64,0,36
1,64,114,173
1,64,0,15
1,64,114,16
1,64,0,13
1,64,117,17
1,62,114,30
1,64,0,7
1,60,117,23
1,62,0,9
1,62,118,51
1,60,0,6
1,57,115,53
1,62,0,2
1,57,0,84
1,64,118,2255
1,64,0,29
1,67,112,1
1,67,0,30
1,67,115,29
1,67,0,98
1,64,117,52
1,64,0,31
1,64,118,29
1,64,0,30
1,62,118,61
1,57,116,29
1,62,0,3
1,57,0,27
1,62,115,30
1,60,116,61
1,62,0,7
1,60,0,48
1,64,118,365
1,64,0,49
1,67,111,10
1,67,0,18
1,67,115,12
1,67,0,28
1,67,115,33
1,67,0,80
1,64,118,10
1,64,0,18
1,67,118,12
1,67,0,15
1,67,110,15
1,67,0,8
1,67,106,21
1,67,0,11
1,64,117,19
1,64,0,31
1,57,115,0
1,57,0,55
1,62,118,34
1,62,0,58
1,60,114,2
1,60,0,133
1,64,115,288
1,64,0,35
1,64,109,24
1,64,0,16
1,64,111,15
1,64,0,25
1,64,117,35
1,64,0,69
1,64,118,21
1,64,0,45
1,62,110,15
1,62,0,30
1,62,115,0
1,62,0,85
1,60,116,64
1,60,0,38
1,60,111,22
1,60,0,15
1,60,115,15
1,60,0,43
1,57,106,17
1,57,0,23
1,60,117,7
1,60,0,48
1,62,117,13
1,60,117,30
1,62,0,3
1,60,0,25
1,60,118,31
1,60,0,53
1,57,110,38
1,57,0,27
1,60,118,3
1,60,0,29
1,60,114,0
1,60,0,60
1,57,115,1
1,57,0,67
1,64,118,173
1,64,0,14
1,64,115,16
1,64,0,12
1,64,116,18
1,62,117,30
1,64,0,5
1,60,118,25
1,62,0,6
1,60,0,44
1,62,118,10
1,62,0,55
1,57,115,5
1,57,0,80
1,64,119,279
1,64,0,19
1,67,117,42
1,67,0,108
1,64,117,12
1,64,0,103
1,64,117,77
1,64,0,15
1,64,114,15
1,64,0,11
1,64,115,19
1,62,117,30
1,64,0,9
1,60,115,21
1,62,0,8
1,60,0,46
1,62,117,5
1,57,113,61
1,62,0,2
1,57,0,66
1,62,118,171
1,62,0,15
1,62,113,15
1,62,0,8
1,62,117,22
1,60,114,30
1,62,0,8
1,62,115,22
1,60,0,8
1,60,113,22
1,62,0,5
1,60,0,20
1,64,115,36
1,64,0,21
1,64,117,38
1,64,0,13
1,64,117,17
1,64,0,51
1,64,115,39
1,64,0,12
1,64,117,18
1,64,0,50
1,64,117,40
1,64,0,20
1,64,115,40
1,64,0,28
1,62,118,3
1,62,0,45
1,60,116,15
1,60,0,52
1,60,117,38
1,60,0,12
1,60,113,18
1,60,0,55
1,60,112,35
1,60,0,13
1,60,115,17
1,60,0,39
1,60,118,51
1,60,0,23
1,60,114,37
1,60,0,23
1,62,118,7
1,62,0,44
1,64,117,22
1,64,0,56
1,64,118,28
1,64,0,13
1,64,118,17
1,64,0,47
1,64,115,43
1,64,0,10
1,64,115,20
1,64,0,55
1,64,117,34
1,64,0,20
1,64,118,40
1,64,0,24
1,62,118,7
1,62,0,46
1,60,117,13
1,60,0,52
1,60,113,38
1,60,0,20
1,60,112,10
1,60,0,55
1,60,113,36
1,60,0,17
1,60,114,13
1,60,0,52
1,60,117,37
1,60,0,23
1,60,112,38
1,60,0,25
1,62,117,4
1,62,0,46
1,64,118,3855
1,64,0,27
1,67,115,2
1,67,0,30
1,67,115,30
1,67,0,130
1,64,117,20
1,64,0,25
1,67,117,5
1,67,0,18
1,67,115,13
1,67,0,50
1,64,117,10
1,60,115,30
1,64,0,5
1,60,0,23
1,55,113,1
1,57,107,31
1,55,0,10
1,57,0,161
1,64,117,339
1,67,115,59
1,64,0,1
1,67,0,20
1,67,115,10
1,67,0,28
1,67,117,32
1,67,0,48
1,67,115,42
1,64,114,60
1,67,0,6
1,64,0,17
1,60,117,36
1,60,0,55
1,55,106,5
1,57,116,30
1,55,0,8
1,57,0,142
1,57,115,301
1,57,0,30
1,64,115,30
1,64,0,43
1,64,112,17
1,64,0,18
1,64,115,12
1,64,0,35
1,64,115,25
1,64,0,37
1,64,117,22
1,64,0,16
1,62,116,14
1,62,0,43
1,62,114,17
1,62,0,17
1,62,116,13
1,62,0,90
1,60,115,61
1,60,0,19
1,60,112,11
1,60,0,31
1,60,115,29
1,60,0,37
1,60,115,22
1,60,0,30
1,62,115,30
1,62,0,41
1,62,114,20
1,62,0,24
1,62,115,36
1,62,0,46
1,60,115,14
1,60,0,30
1,62,118,0
1,62,0,21
1,62,118,38
1,62,0,61
1,57,115,0
1,57,0,75
1,64,115,165
1,64,0,15
1,64,114,15
1,64,0,10
1,64,115,19
1,62,115,31
1,64,0,4
1,60,115,26
1,62,0,8
1,60,0,52
1,62,115,0
1,62,0,58
1,57,110,1
1,57,0,78
1,60,113,253
1,62,116,29
1,60,0,7
1,62,0,21
1,64,115,32
1,64,0,76
1,64,115,44
1,64,0,91
1,64,118,89
1,64,0,15
1,64,115,16
1,64,0,10
1,64,113,20
1,62,114,30
1,64,0,3
1,60,115,27
1,62,0,13
1,60,0,40
1,62,118,6
1,57,116,60
1,62,0,3
1,57,0,113
1,64,118,2225
1,64,0,21
1,67,115,8
1,67,0,21
1,67,115,10
1,67,0,28
1,67,116,32
1,67,0,30
1,67,115,30
1,67,0,25
1,67,115,35
1,67,0,27
1,67,115,33
1,67,0,56
1,64,115,4
1,60,110,60
1,64,0,2
1,57,112,58
1,60,0,5
1,57,0,116
1,64,118,359
1,64,0,22
1,67,115,7
1,67,0,22
1,67,117,9
1,67,0,34
1,67,115,25
1,67,0,35
1,67,115,26
1,67,0,27
1,67,115,33
1,67,0,31
1,67,115,28
1,67,0,57
1,64,115,3
1,60,113,60
1,64,0,1
1,57,112,59
1,60,0,7
1,57,0,178
1,62,115,296
1,64,115,59
1,62,0,9
1,64,0,12
1,64,115,9
1,64,0,106
1,64,115,44
1,62,117,30
1,64,0,7
1,62,0,36
1,62,115,17
1,62,0,60
1,62,115,61
1,60,115,29
1,62,0,1
1,60,0,17
1,60,115,12
1,60,0,38
1,60,113,22
1,60,0,51
1,60,111,10
1,60,0,36
1,62,118,24
1,62,0,44
1,62,117,16
1,62,0,35
1,62,117,25
1,62,0,53
1,60,115,6
1,62,117,31
1,60,0,4
1,62,0,28
1,64,116,27
1,57,117,60
1,64,0,16
1,60,116,15
1,57,0,7
1,60,0,58
1,64,117,145
1,64,0,15
1,64,113,15
1,64,0,12
1,64,115,17
1,62,117,31
1,64,0,10
1,60,116,20
1,62,0,9
1,62,115,51
1,60,0,3
1,57,112,57
1,62,0,3
1,57,0,82
1,62,119,245
1,62,0,30
1,64,118,0
1,64,0,43
1,67,117,17
1,67,0,85
1,64,115,4
1,64,0,135
1,64,118,75
1,64,0,14
1,64,114,16
1,64,0,9
1,64,116,21
1,62,115,30
1,64,0,11
1,60,117,19
1,62,0,8
1,60,0,39
1,62,112,13
1,57,114,60
1,62,0,5
1,57,0,98
1,57,117,137
1,57,0,60
1,55,114,0
1,55,0,76
1,62,119,1965
1,64,115,60
1,62,0,11
1,64,0,7
1,64,117,12
1,64,0,88
1,67,115,2
1,67,0,113
1,64,115,67
1,60,109,29
1,64,0,7
1,55,115,23
1,60,0,3
1,57,110,28
1,55,0,14
1,57,0,122
1,62,118,374
1,62,0,53
1,64,113,6
1,64,0,16
1,64,115,14
1,64,0,53
1,64,114,37
1,64,0,25
1,64,115,35
1,64,0,67
1,60,119,53
1,60,0,55
1,55,111,5
1,55,0,28
1,57,118,3
1,57,0,178
1,62,118,332
1,64,116,30
1,62,0,7
1,64,0,10
1,64,118,42
1,64,0,69
1,64,115,21
1,64,0,24
1,64,118,36
1,64,0,50
1,62,117,10
1,62,0,18
1,62,115,12
1,62,0,94
1,60,117,56
1,60,0,45
1,60,115,46
1,60,0,41
1,60,112,19
1,60,0,20
1,60,113,10
1,60,0,20
1,62,115,39
1,62,0,38
1,62,112,23
1,62,0,36
1,62,114,24
1,62,0,20
1,60,115,10
1,60,0,25
1,62,113,5
1,62,0,36
1,64,115,24
1,57,115,60
1,64,0,1
1,57,0,103
1,64,119,136
1,64,0,15
1,64,115,15
1,64,0,11
1,64,112,18
1,62,116,31
1,64,0,9
1,60,118,21
1,62,0,8
1,62,117,52
1,60,0,10
1,62,0,50
1,57,112,0
1,57,0,103
1,62,117,226
1,64,118,31
1,62,0,14
1,64,0,17
1,67,114,29
1,67,0,56
1,62,108,3
1,64,115,31
1,62,0,16
1,64,0,37
1,64,117,156
1,64,0,16
1,64,116,14
1,64,0,14
1,64,113,16
1,62,113,30
1,64,0,5
1,60,117,25
1,62,0,9
1,62,115,51
1,60,0,5
1,57,112,55
1,62,0,3
1,60,118,88
1,60,0,26
1,57,0,10
1,60,114,24
1,60,0,14
1,60,115,16
1,60,0,16
1,60,113,14
1,60,0,13
1,60,114,17
1,60,0,26
1,60,116,34
1,60,0,38
1,64,115,82
1,64,0,54
1,64,113,36
1,64,0,11
1,64,113,19
1,64,0,45
1,64,115,45
1,64,0,13
1,64,111,17
1,64,0,48
1,64,117,42
1,64,0,20
1,64,117,39
1,64,0,26
1,62,117,5
1,62,0,45
1,60,116,15
1,60,0,54
1,60,118,36
1,60,0,11
1,60,116,19
1,60,0,48
1,60,116,42
1,60,0,11
1,60,113,19
1,60,0,51
1,60,118,39
1,60,0,18
1,60,117,42
1,62,113,30
1,60,0,3
1,62,0,38
1,64,115,23
1,64,0,66
1,64,113,19
1,64,0,15
1,64,113,15
1,64,0,51
1,64,117,39
1,64,0,14
1,64,113,17
1,64,0,55
1,64,115,35
1,64,0,25
1,64,116,34
1,64,0,23
1,62,117,8
1,62,0,37
1,60,117,22
1,60,0,65
1,60,115,25
1,60,0,15
1,60,113,15
1,60,0,56
1,60,115,34
1,60,0,16
1,60,113,15
1,60,0,55
1,60,117,34
1,60,0,28
1,60,114,32
1,60,0,28
1,62,117,3
1,62,0,40
2,82,53,2338
2,69,65,0
2,69,0,1
2,82,0,0
2,82,25,28
2,69,41,0
2,69,0,1
2,82,0,0
2,82,27,29
2,82,0,1
2,69,14,0
2,69,0,1
2,82,37,28
2,69,47,0
2,69,0,1
2,82,0,0
2,70,39,0
2,70,0,1
2,70,45,25
2,70,0,1
2,82,50,2
2,69,66,0
2,69,0,1
2,82,0,0
2,44,75,1
2,44,0,1
2,69,39,27
2,69,0,1
2,82,11,0
2,82,0,1
2,82,29,28
2,69,18,0
2,69,0,1
2,82,0,0
2,70,49,28
2,70,0,1
2,69,39,0
2,69,0,1
2,82,37,0
2,82,0,1
2,69,45,28
2,69,0,1
2,82,49,0
2,82,0,1
2,70,45,27
2,70,0,1
2,69,37,0
2,69,0,1
2,82,31,0
2,82,0,1
2,82,21,29
2,69,14,0
2,69,0,1
2,82,0,0
2,82,35,29
2,69,51,0
2,69,0,1
2,82,0,0
2,70,37,0
2,70,0,1
2,70,37,26
2,70,0,1
2,82,51,1
2,69,63,0
2,69,0,1
2,82,0,0
2,44,53,0
2,44,0,1
2,69,37,27
2,69,0,1
2,82,31,0
2,82,0,1
2,82,33,28
2,69,21,0
2,69,0,1
2,82,0,0
2,82,39,30
2,69,45,0
2,69,0,1
2,82,0,0
2,82,52,28
2,69,63,0
2,69,0,1
2,82,0,0
2,69,37,29
2,69,0,1
2,82,37,0
2,82,0,1
2,82,35,28
2,82,0,1
2,69,8,0
2,69,0,1
2,82,37,29
2,69,45,0
2,69,0,1
2,82,0,0
2,70,29,7
2,70,0,1
2,82,46,21
2,69,61,0
2,69,0,1
2,82,0,0
2,44,51,0
2,44,0,1
2,70,43,3
2,70,0,1
2,82,39,24
2,69,37,0
2,69,0,1
2,82,0,0
2,82,35,28
2,82,0,1
2,69,6,0
2,69,0,1
2,82,29,29
2,69,37,0
2,69,0,1
2,82,0,0
2,70,45,1
2,70,0,1
2,69,55,26
2,69,0,1
2,82,43,0
2,82,0,1
2,82,35,29
2,69,43,0
2,69,0,1
2,82,0,0
2,70,49,2
2,70,0,1
2,82,33,25
2,82,0,1
2,69,14,0
2,69,0,1
2,82,31,28
2,82,0,1
2,69,41,0
2,70,45,0
2,70,0,1
2,69,0,0
2,44,45,27
2,44,0,1
2,82,43,0
2,69,59,0
2,69,0,1
2,82,0,0
2,70,51,0
2,70,0,1
2,82,31,28
2,69,33,0
2,69,0,1
2,82,0,0
2,69,21,28
2,69,0,1
2,82,35,0
2,82,0,1
2,69,47,28
2,69,0,1
2,82,35,0
2,82,0,1
2,82,41,29
2,69,59,0
2,69,0,1
2,82,0,0
2,82,23,29
2,69,43,0
2,69,0,1
2,82,0,0
2,82,39,29
2,69,1,0
2,69,0,1
2,82,0,0
2,82,31,29
2,69,47,0
2,69,0,1
2,82,0,0
2,70,45,8
2,70,0,1
2,44,53,18
2,44,0,1
2,82,33,1
2,69,63,0
2,69,0,1
2,82,0,0
2,70,39,6
2,70,0,1
2,82,25,22
2,69,41,0
2,69,0,1
2,82,0,0
2,82,33,29
2,69,12,0
2,69,0,1
2,82,0,0
2,82,29,29
2,69,47,0
2,69,0,1
2,82,0,0
2,70,43,0
2,70,0,1
2,82,35,28
2,69,59,0
2,69,0,1
2,82,0,0
2,82,35,29
2,69,45,0
2,69,0,1
2,82,0,0
2,70,45,3
2,70,0,1
2,82,35,25
2,69,24,0
2,69,0,1
2,82,0,0
2,82,35,29
2,69,41,0
2,69,0,1
2,82,0,0
2,70,43,0
2,70,0,1
2,44,51,23
2,44,0,1
2,82,43,4
2,69,55,0
2,70,43,0
2,70,0,1
2,69,0,0
2,82,0,0
2,82,35,29
2,69,41,0
2,69,0,1
2,82,0,0
2,82,41,29
2,69,29,0
2,69,0,1
2,82,0,0
2,82,37,29
2,69,33,0
2,69,0,1
2,82,0,0
2,69,53,21
2,69,0,1
2,82,46,7
2,82,0,1
2,82,31,29
2,69,45,0
2,69,0,1
2,82,0,0
2,82,35,29
2,82,0,1
2,69,25,0
2,69,0,1
2,82,19,28
2,69,47,0
2,69,0,1
2,82,0,0
2,70,43,0
2,70,0,1
2,44,51,27
2,44,0,1
2,82,43,0
2,69,55,0
2,69,0,1
2,82,0,0
2,70,53,1
2,70,0,1
2,82,33,27
2,69,47,0
2,69,0,1
2,82,0,0
2,82,33,29
2,82,0,1
2,69,39,0
2,69,0,1
2,82,37,28
2,82,0,1
2,69,47,0
2,70,33,0
