track,note,velocity,time
1,68,35,48
1,66,43,0
1,64,23,0
1,68,31,290
1,66,71,0
1,64,31,382
1,68,31,270
1,66,67,0
1,64,39,2
1,68,31,274
1,66,55,0
1,64,11,382
1,68,63,256
1,69,31,2
1,66,23,0
1,69,31,288
1,68,55,0
1,66,35,16
1,69,31,288
1,68,55,0
1,66,39,2
1,68,63,272
1,69,31,2
1,66,39,0
1,68,35,226
1,66,43,0
1,64,23,0
1,66,71,288
1,68,31,2
1,64,31,382
1,68,31,274
1,66,67,0
1,64,39,0
1,66,55,272
1,68,31,2
1,64,11,382
1,69,31,258
1,68,63,0
1,66,23,0
1,68,55,288
1,69,31,2
1,66,35,16
1,69,31,290
1,68,55,0
1,66,39,0
1,68,63,272
1,69,31,2
1,66,39,2
1,68,35,226
1,66,43,0
1,64,23,0
1,66,71,288
1,68,31,2
1,64,31,382
1,68,31,274
1,66,67,0
1,64,39,2
1,66,55,272
1,68,31,2
1,64,11,382
1,69,31,258
1,68,63,0
1,66,23,2
1,68,55,288
1,69,31,2
1,66,35,16
1,69,31,290
1,68,55,0
1,66,39,2
1,68,63,272
1,69,31,2
1,66,39,2
1,68,35,226
1,66,43,0
1,64,23,382
1,68,31,290
1,66,71,0
1,64,31,382
1,68,31,272
1,66,67,0
1,64,39,2
1,68,31,274
1,66,55,0
1,64,11,384
1,69,31,258
1,68,63,0
1,66,23,384
1,69,31,290
1,68,55,0
1,66,35,16
1,69,31,290
1,68,55,0
1,66,39,0
1,68,63,276
1,69,31,2
1,66,39,0
1,68,35,224
1,66,43,0
1,64,23,384
1,68,31,290
1,66,71,0
1,64,31,384
1,68,31,272
1,66,67,0
1,64,39,2
1,68,31,274
1,66,55,0
1,64,11,382
1,69,31,256
1,68,63,0
1,66,23,2
1,69,31,290
1,68,55,0
1,66,35,16
1,69,31,288
1,68,55,0
1,66,39,2
1,69,31,274
1,68,63,0
1,66,39,2
1,71,127,16
1,68,127,0
1,64,127,0
1,61,99,96
1,66,7,50
1,61,123,0
1,69,103,14
1,71,127,0
1,66,91,0
1,63,99,0
1,71,127,98
1,68,127,0
1,64,123,0
1,73,127,66
1,68,123,0
1,66,127,48
1,69,127,16
1,73,103,2
1,75,87,64
1,71,123,0
1,66,127,0
1,76,55,304
1,64,50,0
1,73,51,34
1,69,55,1536
1,71,27,18
1,64,127,4
1,68,127,2
1,71,127,4
1,61,99,96
1,69,103,48
1,66,7,0
1,61,123,0
1,71,127,0
1,66,91,0
1,63,99,0
1,71,127,82
1,68,127,0
1,64,123,0
1,73,127,82
1,68,123,0
1,73,103,48
1,69,127,0
1,66,127,0
1,75,87,46
1,71,123,0
1,66,127,0
1,76,55,298
1,64,50,0
1,73,51,34
1,69,55,1536
1,71,27,18
1,68,67,4
1,66,63,0
1,64,47,0
1,66,67,224
1,68,59,2
1,64,47,0
1,68,63,208
1,69,63,16
1,66,39,0
1,68,31,240
1,69,51,16
1,66,23,16
1,66,47,288
1,68,47,2
1,64,47,0
1,68,55,224
1,66,39,0
1,64,55,0
1,69,55,210
1,68,59,0
1,66,31,16
1,68,55,224
1,69,51,16
1,66,39,16
1,64,63,272
2,64,18,18762
2,59,17,128
2,68,19,5714
2,61,19,46
2,66,19,240
2,69,19,18
2,63,19,0
2,59,19,0
2,52,83,84
2,56,123,554
2,59,95,174
2,64,95,2
2,68,71,398
2,66,127,736
2,64,103,0
2,66,75,1774
2,64,59,32
2,63,55,50
2,59,103,386
2,64,127,750
2,68,127,0
2,73,127,370
2,71,127,2
2,69,127,2
2,71,127,1918
2,59,107,176
2,61,107,64
2,63,107,2
2,64,59,16
2,66,115,64
2,68,115,48
2,69,83,2
2,71,107,62
2,73,107,48
2,75,87,48
2,76,99,16
2,78,127,18
2,83,127,34
2,71,115,0
2,73,103,1102
2,85,127,0
2,87,123,144
2,75,99,0
2,76,95,160
2,88,95,0
2,87,127,0
2,75,127,0
2,73,115,318
2,85,127,0
2,83,127,370
2,71,103,0
2,69,95,0
2,81,103,0
2,92,127,0
2,80,127,0
2,78,127,384
2,90,127,2
2,88,127,162
2,76,95,0
2,78,107,1150
2,90,123,0
2,76,83,142
2,88,87,0
2,92,127,18
2,80,123,0
2,78,115,352
2,90,127,16
2,88,103,320
2,76,83,0
2,87,127,400
2,75,103,0
2,73,91,352
2,85,127,16
2,71,83,1506
2,83,91,2
2,76,31,380
2,75,51,0
2,73,67,384
2,75,55,356
2,76,67,2
2,73,55,18
2,69,63,112
2,73,79,288
2,76,83,322
2,78,83,48
2,80,43,16
2,78,31,0
2,76,127,2
2,64,95,0
2,63,127,14
2,75,127,20
2,73,127,240
2,61,127,0
2,75,127,0
2,63,127,0
2,64,83,0
2,76,103,0
2,61,123,14
2,73,115,2
2,69,103,192
2,57,87,0
2,73,127,2
2,61,127,0
2,64,127,240
2,76,127,2
2,66,127,0
2,78,127,0
2,68,127,16
2,80,127,2
2,69,79,350
2,81,95,0
2,80,127,368
2,68,123,16
2,66,107,352
2,78,127,0
2,64,83,336
2,76,103,0
2,75,127,2
2,63,127,0
2,73,123,256
2,61,127,16
2,63,123,240
2,75,123,2
2,64,99,0
2,76,103,0
2,73,127,0
2,61,127,0
2,69,107,194
2,57,107,0
2,73,127,0
2,61,127,0
2,76,127,258
2,64,127,0
2,78,127,370
2,66,107,0
2,68,127,16
2,80,127,2
2,81,91,0
2,69,99,0
2,80,127,0
2,68,127,0
2,59,95,0
2,61,99,48
2,63,115,2
2,64,83,16
2,66,127,48
2,68,107,32
2,69,79,16
2,78,127,34
2,66,127,0
2,71,91,0
2,73,87,30
2,75,83,16
2,76,83,2
2,78,127,16
2,83,127,122
2,71,115,0
2,73,103,1082
2,85,127,0
2,75,99,158
2,87,123,4
2,76,95,158
2,88,95,0
2,87,127,0
2,75,127,0
2,73,115,314
2,85,127,2
2,71,103,368
2,83,127,4
2,69,95,0
2,81,103,0
2,92,127,20
2,80,127,0
2,90,127,366
2,78,127,0
2,88,127,160
2,76,95,0
2,78,107,2
2,90,123,16
2,76,83,144
2,88,87,0
2,92,127,18
2,80,123,0
2,78,115,352
2,90,127,16
2,88,103,322
2,76,83,0
2,87,127,400
2,75,103,0
2,73,91,354
2,85,127,14
2,71,83,1502
2,83,91,2
2,76,31,368
2,75,51,0
2,73,67,384
2,75,55,352
2,76,67,2
2,73,55,18
2,69,63,112
2,73,79,288
2,76,83,320
2,78,83,48
2,80,43,20
2,78,31,2
2,68,27,16
2,69,7,1454
2,68,3,66
2,69,35,110
2,64,31,48
2,56,31,14
2,52,27,0
2,40,75,0
3,66,71,18480
3,68,67,2
3,71,71,2
3,64,51,0
3,71,83,158
3,68,67,0
3,66,63,0
3,64,59,18
3,71,75,48
3,68,79,0
3,66,67,0
3,64,39,18
3,66,67,16
3,68,71,2
3,71,79,0
3,64,67,0
3,73,63,30
3,69,87,0
3,68,67,0
3,66,55,2
3,73,59,18
3,69,67,0
3,68,31,0
3,66,39,16
3,68,63,32
3,69,63,0
3,73,59,0
3,66,31,48
3,73,71,48
3,69,71,0
3,68,59,0
3,66,47,16
3,66,63,48
3,68,63,2
3,71,87,2
3,64,43,2
3,66,51,48
3,68,59,0
3,71,79,0
3,64,19,4
3,71,75,64
3,68,47,0
3,66,55,0
3,64,35,30
3,66,91,32
3,68,75,0
3,71,83,4
3,64,63,2
3,68,75,34
3,69,83,4
3,73,63,2
3,66,67,48
3,68,79,320
3,69,91,2
3,73,67,0
3,66,67,50
3,73,63,48
3,69,83,0
3,68,75,0
3,66,63,2
3,73,63,14
3,69,63,0
3,68,47,0
3,68,63,64
3,66,67,84
3,64,71,2
3,68,75,2
3,71,67,2
3,71,19,128
3,68,55,0
3,64,47,0
3,71,23,128
3,68,47,0
3,64,47,0
3,64,87,134
3,68,91,2
3,71,71,2
3,68,67,110
3,64,43,0
3,64,75,128
3,68,63,2
3,71,63,2
3,64,71,128
3,68,91,4
3,71,83,2
3,64,67,128
3,68,63,2
3,71,71,2
3,64,67,36
3,68,83,2
3,73,67,2
3,73,43,110
3,68,39,0
3,64,23,0
3,73,39,128
3,68,47,0
3,64,39,0
3,73,83,142
3,68,79,0
3,64,95,0
3,68,55,130
3,64,63,0
3,73,51,4
3,73,43,130
3,68,55,0
3,64,55,0
3,73,59,132
3,68,63,0
3,64,71,0
3,73,55,128
3,68,55,0
3,64,63,0
3,73,43,16
3,69,87,0
3,66,43,0
3,66,59,80
3,69,55,2
3,73,47,2
3,73,47,114
3,69,67,0
3,66,47,0
3,73,67,112
3,69,91,0
3,66,75,0
3,73,39,114
3,69,63,0
3,66,31,0
3,73,67,110
3,69,87,0
3,66,59,0
3,73,47,114
3,69,83,0
3,66,35,0
3,66,55,114
3,73,43,2
3,63,43,140
3,66,83,2
3,71,95,2
3,71,79,110
3,66,63,0
3,63,23,0
3,71,63,130
3,66,63,0
3,63,43,0
3,71,95,146
3,66,83,0
3,63,75,0
3,71,83,126
3,66,63,0
3,63,43,0
3,71,51,130
3,66,75,0
3,63,43,0
3,71,91,128
3,66,83,0
3,63,75,0
3,71,83,128
3,66,79,0
3,63,71,0
3,64,91,62
3,68,79,4
3,71,87,0
3,71,71,128
3,68,63,0
3,64,63,0
3,71,71,144
3,68,59,0
3,64,71,0
3,68,91,48
3,64,91,0
3,71,91,2
3,68,71,130
3,64,71,0
3,71,67,2
3,71,59,130
3,68,63,0
3,64,59,0
3,71,79,144
3,68,91,0
3,64,83,0
3,71,71,130
3,68,63,0
3,64,71,0
3,73,87,48
3,68,71,0
3,64,75,0
3,73,43,130
3,68,39,0
3,64,51,0
3,73,51,144
3,68,55,0
3,64,43,0
3,73,83,48
3,68,79,0
3,64,87,0
3,73,43,128
3,68,47,0
3,64,59,0
3,68,55,130
3,64,67,0
3,73,39,2
3,73,79,144
3,68,91,0
3,64,91,0
3,73,63,128
3,68,55,0
3,64,67,0
3,73,43,34
3,69,83,0
3,66,83,0
3,73,39,98
3,69,75,0
3,66,43,0
3,73,59,114
3,69,71,0
3,66,63,0
3,73,75,0
3,69,91,0
3,66,91,0
3,73,55,114
3,69,75,0
3,66,43,0
3,73,47,114
3,69,67,0
3,66,43,0
3,73,39,146
3,69,75,0
3,66,43,0
3,73,47,112
3,69,23,0
3,66,71,0
3,63,63,4
3,66,67,2
3,71,87,2
3,71,75,112
3,66,51,0
3,63,23,0
3,71,59,130
3,66,59,0
3,63,47,0
3,71,91,128
3,66,79,0
3,63,67,0
3,63,35,150
3,71,63,2
3,66,55,0
3,71,67,136
3,66,55,0
3,63,27,0
3,63,39,134
3,71,75,10
3,66,63,0
3,63,43,118
3,66,51,2
3,71,79,4
3,71,67,18
3,68,75,0
3,64,71,0
3,68,55,132
3,64,47,0
3,71,19,2
3,71,23,128
3,68,47,0
3,64,47,0
3,68,91,148
3,64,87,0
3,71,71,2
3,68,67,118
3,64,43,0
3,71,63,128
3,68,63,0
3,64,75,0
3,71,83,138
3,68,91,0
3,64,71,0
3,71,71,122
3,68,63,0
3,64,67,0
3,64,67,34
3,68,83,2
3,73,67,0
3,64,23,116
3,68,39,2
3,73,43,2
3,73,39,134
3,68,47,0
3,64,39,0
3,64,95,148
3,68,79,4
3,73,83,2
3,73,51,124
3,68,55,0
3,64,63,0
3,68,55,130
3,64,55,0
3,73,43,4
3,73,59,132
3,68,63,0
3,64,71,0
3,68,55,124
3,64,63,0
3,73,55,4
3,66,43,24
3,69,87,2
3,73,43,4
3,73,47,84
3,69,55,0
3,66,59,0
3,73,47,116
3,69,67,0
3,66,47,0
3,73,67,114
3,69,91,0
3,66,75,0
3,73,39,116
3,69,63,0
3,66,31,0
3,73,67,112
3,69,87,0
3,66,59,0
3,66,35,120
3,73,47,2
3,69,83,0
3,73,43,116
3,66,55,0
3,71,95,148
3,66,83,0
3,63,43,0
3,71,79,112
3,66,63,0
3,63,23,0
3,63,43,126
3,66,63,2
3,71,63,2
3,71,95,142
3,66,83,0
3,63,75,0
3,71,83,130
3,66,63,0
3,63,43,0
3,71,51,130
3,66,75,0
3,63,43,0
3,71,91,132
3,66,83,0
3,63,75,0
3,71,83,128
3,66,79,0
3,63,71,0
3,71,87,68
3,68,79,0
3,64,91,0
3,71,71,118
3,68,63,0
3,64,63,0
3,71,71,144
3,68,59,0
3,64,71,0
3,71,91,48
3,68,91,0
3,64,91,0
3,71,67,126
3,68,71,0
3,64,71,0
3,71,59,130
3,68,63,0
3,64,59,0
3,68,91,146
3,64,83,0
3,71,79,14
3,71,71,126
3,68,63,0
3,64,71,0
3,73,87,50
3,68,71,0
3,64,75,0
3,73,43,128
3,68,39,0
3,64,51,0
3,73,51,146
3,68,55,0
3,64,43,0
3,73,83,48
3,68,79,0
3,64,87,0
3,73,43,128
3,68,47,0
3,64,59,0
3,73,39,130
3,68,55,0
3,64,67,0
3,73,79,146
3,68,91,0
3,64,91,0
3,73,63,114
3,68,55,0
3,64,67,0
3,66,83,30
3,73,43,2
3,69,83,0
3,73,39,96
3,69,75,0
3,66,43,0
3,73,59,112
3,69,71,0
3,66,63,0
3,73,75,0
3,69,91,0
3,66,91,0
3,73,55,112
3,69,75,0
3,66,43,0
3,73,47,112
3,69,67,0
3,66,43,0
3,73,39,144
3,69,75,0
3,66,43,0
3,73,47,114
3,69,23,0
3,66,71,0
3,71,87,146
3,66,67,0
3,63,63,0
3,71,75,112
3,66,51,0
3,63,23,0
3,71,59,130
3,66,59,0
3,63,47,0
3,71,91,130
3,66,79,0
3,63,67,0
3,71,63,144
3,66,55,0
3,63,35,0
3,71,67,128
3,66,55,0
3,63,27,0
3,71,75,130
3,66,63,0
3,63,39,0
3,71,79,110
3,66,51,0
3,63,43,0
3,52,127,270
3,57,127,110
3,61,127,142
3,66,127,130
3,69,127,142
3,73,127,128
3,64,71,2
3,68,75,2
3,71,67,2
3,71,19,130
3,68,55,0
3,64,47,0
3,71,23,130
3,68,47,0
3,64,47,0
3,71,71,144
3,68,91,0
3,64,87,0
3,68,67,114
3,64,43,0
3,71,63,128
3,68,63,0
3,64,75,0
3,71,83,130
3,68,91,0
3,64,71,0
3,71,71,130
3,68,63,0
3,64,67,0
3,73,67,34
3,68,83,0
3,64,67,0
3,73,43,110
3,68,39,0
3,64,23,0
3,73,39,130
3,68,47,0
3,64,39,0
3,68,79,144
3,64,95,0
3,73,83,2
3,73,51,128
3,68,55,0
3,64,63,0
3,73,43,128
3,68,55,0
3,64,55,0
3,73,59,130
3,68,63,0
3,64,71,0
3,73,55,126
3,68,55,0
3,64,63,0
3,73,43,16
3,69,87,0
3,66,43,0
3,73,47,80
3,69,55,0
3,66,59,0
3,73,47,114
3,69,67,0
3,66,47,0
3,73,67,114
3,69,91,0
3,66,75,0
3,73,39,112
3,69,63,0
3,66,31,0
3,73,67,112
3,69,87,0
3,66,59,0
3,73,47,114
3,69,83,0
3,66,35,0
3,73,43,114
3,66,55,0
3,63,43,146
3,71,95,0
3,66,83,0
3,71,79,110
3,66,63,0
3,63,23,0
3,71,63,132
3,66,63,0
3,63,43,0
3,71,95,146
3,66,83,0
3,63,75,0
3,71,83,128
3,66,63,0
3,63,43,0
3,71,51,128
3,66,75,0
3,63,43,0
3,71,91,128
3,66,83,0
3,63,75,0
3,71,83,128
3,66,79,0
3,63,71,0
3,71,87,64
3,68,79,0
3,64,91,0
3,71,71,130
3,68,63,0
3,64,63,0
3,71,71,144
3,68,59,0
3,64,71,0
3,71,91,34
3,68,91,0
3,64,91,0
3,71,67,128
3,68,71,0
3,64,71,0
3,71,59,128
3,68,63,0
3,64,59,0
3,71,79,144
3,68,91,0
3,64,83,0
3,71,71,126
3,68,63,0
3,64,71,0
3,73,87,48
3,68,71,0
3,64,75,0
3,68,39,136
3,64,51,0
3,73,43,4
3,73,51,144
3,68,55,0
3,64,43,0
3,73,83,52
3,68,79,0
3,64,87,0
3,73,43,124
3,68,47,0
3,64,59,0
3,64,67,134
3,68,55,2
3,73,39,2
3,68,91,148
3,64,91,0
3,73,79,2
