track,note,velocity,time
0,28,67,668
0,28,81,0
0,40,67,0
0,40,80,0
0,52,61,1180
0,52,59,0
0,52,43,54
0,56,63,2
0,56,66,0
0,56,44,54
0,59,63,30
0,59,67,0
0,59,43,26
0,52,63,38
0,52,66,0
0,64,63,16
0,56,65,40
0,56,72,0
0,68,44,50
0,59,65,18
0,59,72,0
0,64,67,0
0,64,80,0
0,71,65,0
0,56,65,0
0,56,75,0
0,68,58,4
0,59,66,10
0,59,78,0
0,59,60,14
0,64,67,4
0,64,80,0
0,64,62,2
0,68,68,0
0,68,87,0
0,68,58,6
0,59,66,10
0,59,78,0
0,71,63,4
0,64,67,58
0,64,80,0
0,76,54,2
0,68,68,44
0,68,87,0
0,68,68,4
0,71,69,4
0,71,90,0
0,71,68,4
0,64,67,12
0,64,83,0
0,76,61,4
0,68,66,20
0,68,78,0
0,80,71,2
0,71,68,6
0,71,85,0
0,71,66,0
0,76,70,4
0,76,92,0
0,68,70,4
0,68,95,0
0,76,64,4
0,71,69,46
0,71,90,0
0,80,70,4
0,76,69,2
0,76,90,0
0,83,77,2
0,80,72,32
0,80,100,0
0,76,70,4
0,76,69,6
0,76,90,0
0,80,71,12
0,80,70,30
0,80,93,0
0,83,75,42
0,83,72,2
0,83,101,0
0,87,73,2
0,87,104,0
0,70,59,14
0,70,50,0
0,87,71,4
0,85,67,190
0,85,81,0
0,87,67,130
0,87,81,0
0,83,64,10
0,83,70,0
0,54,59,10
0,54,49,0
0,61,56,100
0,61,39,0
0,54,53,26
0,54,26,0
0,73,60,34
0,73,55,0
0,69,61,6
0,69,19,0
0,59,57,6
0,59,41,0
0,66,54,8
0,66,31,0
0,71,61,22
0,75,60,0
0,75,34,0
0,80,66,230
0,80,77,0
0,59,56,6
0,59,39,0
0,66,57,6
0,66,43,0
0,78,65,0
0,78,74,0
0,69,57,18
0,69,41,0
0,75,57,6
0,75,41,0
0,52,69,26
0,56,70,42
0,59,68,60
0,64,76,52
0,68,70,48
0,71,76,50
0,59,63,32
0,64,63,0
0,68,63,0
0,76,64,0
0,52,61,6
0,76,77,22
0,55,64,18
0,58,69,2
0,76,83,34
0,64,70,6
0,67,74,2
0,76,83,28
0,73,77,22
0,58,68,18
0,64,68,0
0,67,68,0
0,76,84,0
0,76,81,18
0,76,79,52
0,73,57,8
0,73,72,238
0,42,69,38
0,45,70,42
0,71,81,32
0,49,68,6
0,54,76,52
0,57,70,48
0,61,76,12
0,57,63,0
0,61,63,0
0,69,63,0
0,69,64,0
0,35,61,0
0,47,64,2
0,51,69,68
0,54,70,6
0,57,74,14
0,63,77,50
0,71,83,0
0,57,68,18
0,63,68,0
0,68,68,0
0,68,84,0
0,40,69,26
0,71,84,2
0,44,70,28
0,47,68,52
0,71,86,6
0,52,76,46
0,56,70,48
0,73,67,6
0,59,76,32
0,64,64,32
0,71,77,10
0,56,68,6
0,59,68,0
0,59,109,0
0,64,68,0
0,68,88,6
0,71,116,40
0,59,91,8
0,60,94,12
0,61,101,74
0,47,52,20
0,62,117,0
0,66,60,0
0,69,46,0
0,59,53,6
0,61,83,102
0,73,86,8
0,60,62,18
0,72,72,20
0,59,59,12
0,62,37,18
0,71,69,4
0,64,30,2
0,68,36,0
0,72,58,302
0,71,84,192
0,73,93,18
0,64,86,8
0,45,81,58
0,76,83,38
0,49,75,24
0,52,72,6
0,73,90,26
0,57,75,52
0,57,79,0
0,61,59,42
0,61,63,0
0,73,84,2
0,64,73,8
0,64,77,0
0,69,73,0
0,69,77,0
0,64,77,52
0,61,81,46
0,52,69,46
0,49,72,8
0,45,72,36
0,49,76,60
0,53,76,62
0,56,71,74
0,56,75,0
0,61,68,66
0,61,72,0
0,65,68,74
0,65,79,0
0,71,79,20
0,68,69,22
0,68,73,0
0,73,88,6
0,73,71,54
0,73,81,0
0,73,88,40
0,71,84,16
0,73,88,32
0,73,69,2
0,42,69,10
0,45,70,10
0,73,68,0
0,49,68,30
0,54,72,42
0,54,76,0
0,73,74,14
0,57,66,34
0,57,70,0
0,61,72,50
0,61,76,0
0,69,74,2
0,69,78,0
0,69,69,14
0,66,50,50
0,66,54,0
0,54,40,6
0,54,44,0
0,61,78,6
0,61,82,0
0,62,72,6
0,62,76,0
0,63,79,47
0,63,83,0
0,71,86,46
0,71,90,0
0,59,83,62
0,59,87,0
0,66,82,26
0,66,86,0
0,55,67,24
0,55,71,0
0,67,78,0
0,67,82,0
0,73,84,136
0,73,88,0
0,59,61,154
0,59,65,0
0,68,60,234
0,68,64,0
0,68,76,40
0,52,63,6
0,56,79,0
0,56,63,0
0,59,79,0
0,64,79,0
0,64,63,0
0,71,63,0
0,71,83,0
0,71,63,18
0,71,79,14
0,40,69,4
0,52,70,42
0,56,68,60
0,73,84,6
0,59,76,42
0,64,70,16
0,71,74,20
0,68,76,30
0,71,64,8
0,71,76,36
0,52,61,6
0,56,64,6
0,59,69,2
0,73,83,4
0,64,70,6
0,68,74,14
0,71,77,6
0,76,84,52
0,57,67,16
0,61,67,0
0,66,67,0
0,42,62,6
0,42,69,0
0,57,62,0
0,66,62,0
0,71,62,0
0,68,81,2
0,54,70,22
0,71,84,12
0,57,68,4
0,61,76,38
0,66,70,48
0,69,76,50
0,73,79,6
0,71,64,4
0,54,61,6
0,57,64,6
0,71,72,8
0,61,69,4
0,71,77,40
0,66,70,6
0,69,74,6
0,73,77,2
0,73,69,6
0,78,84,10
0,73,59,6
0,69,49,6
0,66,63,4
0,68,104,64
0,61,49,8
0,75,71,6
0,57,49,62
0,71,77,44
0,54,49,52
0,66,108,6
0,71,70,6
0,80,84,0
0,52,58,6
0,52,73,6
0,56,73,0
0,59,77,0
0,59,73,0
0,59,115,0
0,64,77,0
0,64,73,0
0,56,53,30
0,52,51,6
0,64,54,0
0,80,86,30
0,68,56,42
0,52,32,6
0,71,57,8
0,80,81,12
0,59,61,4
0,64,56,10
0,80,91,36
0,68,60,6
0,71,65,6
0,52,83,6
0,56,83,0
0,60,79,0
0,60,83,0
0,60,104,0
0,64,79,0
0,64,83,0
0,76,65,0
0,68,79,32
0,64,67,10
0,80,88,18
0,56,60,28
0,52,68,10
0,60,60,6
0,64,60,50
0,68,79,24
0,80,91,6
0,73,79,8
0,52,79,6
0,56,79,0
0,61,71,0
0,61,79,0
0,61,73,0
0,64,71,0
0,68,79,0
0,80,57,0
0,68,72,22
0,52,68,6
0,80,93,12
0,61,77,6
0,68,75,54
0,73,75,10
0,78,84,6
0,68,75,32
0,64,72,6
0,61,65,54
0,80,90,6
0,56,77,8
0,68,75,82
0,52,79,0
0,57,59,6
0,57,55,0
0,60,59,0
0,60,55,0
0,60,83,0
0,64,59,0
0,64,55,0
0,69,55,0
0,76,59,0
0,81,84,6
0,57,74,42
0,60,60,6
0,64,63,106
0,69,70,112
0,52,61,6
0,72,74,40
0,76,68,14
0,54,61,6
0,80,83,2
0,78,77,6
0,49,48,6
0,49,84,0
0,56,48,0
0,61,57,0
0,64,57,0
0,64,48,0
0,68,57,0
0,68,48,0
0,56,56,4
0,56,70,2
0,76,79,10
0,61,75,48
0,64,88,68
0,68,97,24
0,68,81,12
0,76,95,6
0,76,109,0
0,68,82,46
0,49,75,6
0,56,71,6
0,61,76,6
0,68,61,6
0,69,67,60
0,75,88,14
0,75,81,0
0,69,58,6
0,49,56,18
0,64,61,16
0,61,55,4
0,56,55,28
0,64,57,12
0,73,85,8
0,42,59,6
0,42,85,0
0,57,65,0
0,61,65,0
0,61,59,0
0,64,59,0
0,66,65,0
0,69,59,0
0,69,64,6
0,75,80,6
0,49,74,48
0,76,78,6
0,54,92,2
0,57,76,78
0,61,93,68
0,69,76,12
0,66,95,26
0,68,76,6
0,69,95,18
0,66,77,6
0,69,77,2
0,68,65,4
0,61,70,20
0,68,80,6
0,57,56,2
0,61,78,72
0,69,78,10
0,66,63,44
0,69,97,66
0,71,83,6
0,47,72,2
0,47,80,0
0,63,88,0
0,66,72,0
0,71,72,0
0,66,61,0
0,54,80,14
0,59,60,12
0,63,60,0
0,66,60,0
0,71,80,0
0,63,80,2
0,59,80,18
0,63,90,8
0,66,90,0
0,71,90,4
0,47,90,4
0,35,87,6
0,35,78,0
0,47,101,0
0,59,107,0
0,66,107,0
0,71,107,0
0,71,103,0
0,83,93,0
0,63,106,2
0,66,105,0
0,59,94,0
0,63,106,34
0,66,106,0
0,35,82,2
0,37,89,0
0,49,106,0
0,59,110,0
0,61,107,0
0,66,107,0
0,71,107,0
0,83,93,0
0,71,110,2
0,63,90,0
0,66,90,0
0,49,90,2
0,71,90,0
0,35,86,18
0,39,89,0
0,51,101,0
0,63,107,0
0,66,107,0
0,66,90,0
0,71,107,0
0,83,93,0
0,63,90,4
0,63,121,2
0,71,90,0
0,59,108,0
0,66,109,0
0,51,90,2
0,71,113,0
0,35,99,0
0,40,83,0
0,42,49,0
0,49,49,0
0,52,82,0
0,54,25,0
0,56,74,0
0,59,82,0
0,68,101,0
0,68,82,0
0,71,101,0
0,83,94,0
0,83,74,0
0,59,82,2
0,64,92,4
0,54,17,70
0,42,33,2
0,54,23,0
0,59,58,0
0,68,96,0
0,71,96,0
0,83,89,0
0,56,66,0
0,52,55,10
0,54,17,78
0,38,80,0
0,42,59,0
0,52,66,0
0,54,35,0
0,56,80,0
0,68,104,0
0,71,104,0
0,83,97,0
0,59,84,2
0,64,103,10
0,54,17,62
0,35,79,2
0,40,65,0
0,42,33,0
0,54,23,0
0,59,62,0
0,68,97,0
0,71,97,0
0,83,90,0
0,56,70,0
0,52,59,10
0,54,17,60
0,35,99,0
0,42,90,0
0,42,49,0
0,54,82,0
0,54,25,0
0,57,82,0
0,57,75,0
0,66,97,0
0,66,82,0
0,69,97,0
0,81,90,0
0,61,78,2
0,66,93,10
0,54,17,70
0,42,33,2
0,54,23,0
0,61,58,0
0,66,99,0
0,68,99,0
0,80,92,0
0,57,66,0
0,54,56,10
0,54,17,78
0,38,80,0
0,42,59,0
0,54,71,0
0,54,35,0
0,57,79,0
0,61,84,2
0,66,103,8
0,54,17,70
0,42,65,2
0,42,33,0
0,54,23,0
0,61,94,0
0,61,62,0
0,66,94,0
0,73,87,0
0,57,70,0
0,54,59,10
0,54,17,60
0,35,73,6
0,35,99,0
0,42,49,0
0,54,74,0
0,54,25,0
0,59,82,0
0,63,82,0
0,64,90,0
0,66,90,0
0,66,82,0
0,76,83,0
0,59,82,2
0,63,92,10
0,54,17,70
0,42,33,2
0,54,23,0
0,59,58,0
0,54,66,0
0,47,55,10
0,54,17,78
0,38,80,0
0,42,59,0
0,47,66,0
0,54,80,0
0,54,35,0
0,63,104,0
0,66,104,0
0,75,97,0
0,59,84,2
0,63,102,14
0,54,17,56
0,35,79,2
0,39,65,0
0,42,33,0
0,54,23,0
0,59,62,0
0,54,70,0
0,47,59,10
0,54,17,60
0,35,99,0
0,40,73,0
0,42,49,0
0,52,82,0
0,54,25,0
0,56,74,0
0,59,82,0
0,66,104,0
0,68,82,0
0,69,104,0
0,78,97,0
0,59,82,2
0,64,92,16
0,54,17,70
0,42,33,2
0,54,23,0
0,59,58,0
0,64,104,0
0,68,104,0
0,76,97,0
0,56,66,0
0,52,55,10
0,54,17,78
0,38,80,0
0,42,59,0
0,52,66,0
0,54,35,0
0,56,80,0
0,71,96,2
0,59,84,2
0,64,103,10
0,54,17,6
0,80,96,0
0,78,96,4
0,35,65,2
0,46,43,0
0,54,23,0
0,59,62,0
0,56,70,0
0,52,59,10
0,76,96,6
0,54,17,2
0,35,99,0
0,37,79,0
0,42,49,0
0,49,82,0
0,54,25,0
0,56,82,0
0,61,74,0
0,64,82,0
0,68,87,0
0,64,82,2
0,75,98,2
0,68,92,14
0,54,17,70
0,42,33,2
0,54,23,0
0,63,106,0
0,64,58,0
0,68,106,0
0,75,99,0
0,61,66,0
0,56,55,10
0,54,17,78
0,38,80,0
0,42,59,0
0,54,35,0
0,56,66,0
0,61,80,0
0,64,84,2
0,68,103,10
0,54,17,28
0,35,79,2
0,37,65,0
0,42,33,0
0,54,23,0
0,61,103,0
0,64,62,0
0,68,103,0
0,73,96,0
0,61,70,0
0,56,59,10
0,54,17,60
0,35,80,0
0,35,99,0
0,42,49,0
0,47,82,0
0,54,25,0
0,56,82,0
0,59,75,0
0,63,104,0
0,63,82,0
0,68,104,0
0,75,97,0
0,63,78,2
0,68,93,10
0,54,17,70
0,42,33,2
0,54,23,0
0,63,58,0
0,59,66,0
0,56,56,10
0,54,17,78
0,38,80,0
0,42,59,0
0,54,35,0
0,56,71,0
0,59,79,0
0,63,84,2
0,68,103,10
0,54,17,10
0,35,65,2
0,42,33,0
0,54,23,0
0,63,62,0
0,64,99,0
0,68,99,0
0,76,92,0
0,59,70,0
0,56,59,10
0,54,17,60
0,34,82,6
0,35,99,0
0,42,49,0
0,46,82,0
0,54,82,0
0,54,25,0
0,58,74,0
0,61,104,0
0,61,82,0
0,66,86,0
0,68,104,0
0,80,97,0
0,61,82,2
0,66,92,10
0,54,17,70
0,42,33,2
0,54,23,0
0,61,58,0
0,58,66,0
0,54,55,10
0,54,17,78
0,37,77,0
0,38,80,0
0,42,59,0
0,54,66,0
0,54,35,0
0,58,80,0
0,66,108,0
0,70,108,0
0,78,101,0
0,61,84,2
0,66,103,10
0,54,17,70
0,42,33,2
0,54,23,0
0,61,62,0
0,58,70,0
0,54,59,10
0,54,17,78
0,35,83,0
0,35,99,0
0,42,49,0
0,47,82,0
0,54,25,0
0,59,82,0
0,59,74,0
0,63,82,0
0,64,96,0
0,71,96,0
0,76,89,0
0,63,82,2
0,66,92,10
0,54,17,70
0,38,71,2
0,42,33,0
0,54,23,0
0,63,97,0
0,63,58,0
0,71,97,0
0,75,90,0
0,59,66,0
0,47,55,10
0,54,17,78
0,38,80,0
0,42,59,0
0,44,85,0
0,47,66,0
0,54,35,0
0,59,80,0
0,63,84,0
0,66,102,0
0,38,55,6
0,54,17,0
0,35,91,2
0,42,80,0
0,46,43,0
0,54,23,0
0,63,62,0
0,59,70,0
0,47,59,10
0,54,17,4
0,35,99,0
0,40,83,0
0,42,49,0
0,52,82,0
0,54,25,0
0,56,74,0
0,59,82,0
0,64,82,0
0,68,99,0
0,68,86,0
0,71,99,0
0,83,92,0
0,59,82,2
0,64,92,16
0,54,17,70
0,42,33,2
0,54,23,0
0,59,58,0
0,68,96,0
0,71,96,0
0,83,89,0
0,56,66,0
0,52,55,10
0,54,17,78
0,38,80,0
0,42,59,0
0,52,66,0
0,54,35,0
0,56,80,0
0,68,97,0
0,71,97,0
0,83,90,0
0,59,84,2
0,64,103,10
0,54,17,62
0,35,79,2
0,40,65,0
0,42,33,0
0,54,23,0
0,59,62,0
0,68,96,0
0,71,96,0
0,83,89,0
0,56,70,0
0,52,59,10
0,54,17,6
0,66,99,0
0,69,99,0
0,81,92,0
0,35,99,0
0,42,85,0
0,42,49,0
0,54,82,0
0,54,25,0
0,57,75,0
0,61,82,0
0,66,82,0
0,69,86,0
0,61,78,2
0,66,93,10
0,54,17,70
0,42,33,2
0,54,23,0
0,61,58,0
0,66,99,0
0,68,99,0
0,80,92,0
0,57,66,0
0,54,56,10
0,54,17,78
0,38,80,0
0,42,59,0
0,54,71,0
0,54,35,0
0,57,79,0
0,61,84,2
0,66,103,8
0,54,17,70
0,42,65,2
0,42,33,0
0,54,23,0
0,61,103,0
0,61,62,0
0,66,103,0
0,73,96,0
0,57,70,0
0,54,59,10
0,42,61,24
0,54,17,0
0,35,99,6
0,42,49,0
0,44,73,0
0,54,25,0
0,56,82,0
0,60,74,0
0,63,82,0
0,64,101,0
0,68,101,0
0,68,86,0
0,72,86,0
0,76,94,0
0,63,82,2
0,68,92,10
0,54,17,70
0,42,33,2
0,54,23,0
0,63,58,0
0,60,66,0
0,56,55,10
0,54,17,78
0,38,80,0
0,42,59,0
0,54,35,0
0,56,66,0
0,60,80,0
0,63,99,0
0,66,99,0
0,75,92,0
0,63,84,2
