track,note,velocity,time
1,65,105,33120
1,65,0,236
1,67,105,4
1,67,0,236
1,70,105,4
1,70,0,236
1,72,105,4
1,72,0,236
1,74,105,4
1,74,0,236
1,77,105,4
1,77,0,236
1,79,105,4
1,79,0,476
1,79,105,4
1,79,0,476
1,77,105,4
1,77,0,236
1,75,105,4
1,75,0,236
1,79,105,4
1,79,0,476
1,79,105,4
1,79,0,476
1,77,105,4
1,77,0,476
1,77,105,4
1,77,0,1436
1,79,105,4
1,79,0,236
1,77,105,4
1,77,0,236
1,75,105,4
1,75,0,236
1,74,105,4
1,74,0,236
1,72,105,4
1,72,0,236
1,70,105,4
1,70,0,236
1,72,105,4
1,72,0,476
1,72,105,4
1,72,0,476
1,70,105,4
1,70,0,236
1,67,105,4
1,67,0,236
1,72,105,4
1,72,0,476
1,72,105,4
1,72,0,476
1,70,105,4
1,70,0,476
1,70,105,4
1,70,0,116
1,69,105,4
1,69,0,116
1,67,105,4
1,67,105,0
1,67,0,956
1,67,0,0
1,65,105,244
1,65,0,236
1,67,105,4
1,67,0,236
1,70,105,4
1,70,0,236
1,72,105,4
1,72,0,236
1,74,105,4
1,74,0,236
1,77,105,4
1,77,0,236
1,79,105,4
1,79,0,476
1,79,105,4
1,79,0,476
1,77,105,4
1,77,0,236
1,75,105,4
1,75,0,236
1,79,105,4
1,79,0,476
1,79,105,4
1,79,0,476
1,77,105,4
1,77,0,476
1,77,105,4
1,77,0,1436
1,79,105,4
1,79,0,236
1,77,105,4
1,77,0,236
1,75,105,4
1,75,0,236
1,74,105,4
1,74,0,236
1,72,105,4
1,72,0,236
1,70,105,4
1,70,0,236
1,72,105,4
1,72,0,476
1,72,105,4
1,72,0,476
1,70,105,4
1,70,0,236
1,67,105,4
1,67,0,236
1,72,105,4
1,72,0,476
1,72,105,4
1,72,0,476
1,67,105,4
1,67,0,236
1,70,105,4
1,70,0,236
1,72,105,4
1,72,0,476
1,72,105,4
1,72,0,476
1,67,105,4
1,67,0,236
1,70,105,4
1,70,0,236
1,72,105,4
1,72,0,476
1,74,105,4
1,74,0,476
1,74,105,4
1,74,0,476
1,74,105,4
1,74,0,116
1,72,105,4
1,72,0,116
1,70,105,4
1,70,0,956
1,65,105,27604
1,65,0,236
1,67,105,4
1,67,0,236
1,70,105,4
1,70,0,236
1,72,105,4
1,72,0,236
1,74,105,4
1,74,0,236
1,77,105,4
1,77,0,236
1,79,105,4
1,79,0,476
1,79,105,4
1,79,0,476
1,77,105,4
1,77,0,236
1,75,105,4
1,75,0,236
1,79,105,4
1,79,0,476
1,79,105,4
1,79,0,476
1,77,105,4
1,77,0,476
1,77,105,4
1,77,0,1436
1,79,105,4
1,79,0,236
1,77,105,4
1,77,0,236
1,75,105,4
1,75,0,236
1,74,105,4
1,74,0,236
1,72,105,4
1,72,0,236
1,70,105,4
1,70,0,236
1,72,105,4
1,72,0,476
1,72,105,4
1,72,0,476
1,70,105,4
1,70,0,236
1,67,105,4
1,67,0,236
1,72,105,4
1,72,0,476
1,72,105,4
1,72,0,476
1,70,105,4
1,70,0,476
1,70,105,4
1,70,0,116
1,69,105,4
1,69,0,116
1,67,105,4
1,67,105,0
1,67,0,956
1,67,0,0
1,65,105,244
1,65,0,236
1,67,105,4
1,67,0,236
1,70,105,4
1,70,0,236
1,72,105,4
1,72,0,236
1,74,105,4
1,74,0,236
1,77,105,4
1,77,0,236
1,79,105,4
1,79,0,476
1,79,105,4
1,79,0,476
1,77,105,4
1,77,0,236
1,75,105,4
1,75,0,236
1,79,105,4
1,79,0,476
1,79,105,4
1,79,0,476
1,77,105,4
1,77,0,476
1,77,105,4
1,77,0,1436
1,79,105,4
1,79,0,236
1,77,105,4
1,77,0,236
1,75,105,4
1,75,0,236
1,74,105,4
1,74,0,236
1,72,105,4
1,72,0,236
1,70,105,4
1,70,0,236
1,72,105,4
1,72,0,476
1,72,105,4
1,72,0,476
1,70,105,4
1,70,0,236
1,67,105,4
1,67,0,236
1,72,105,4
1,72,0,476
1,72,105,4
1,72,0,476
1,67,105,4
1,67,0,236
1,70,105,4
1,70,0,236
1,72,105,4
1,72,0,476
1,72,105,4
1,72,0,476
1,67,105,4
1,67,0,236
1,70,105,4
1,70,0,236
1,72,105,4
1,72,0,476
1,74,105,4
1,74,0,476
1,74,105,4
1,74,0,476
1,74,105,4
1,74,0,116
1,72,105,4
1,72,0,116
1,65,105,40084
1,65,0,236
1,67,105,4
1,67,0,236
1,70,105,4
1,70,0,236
1,72,105,4
1,72,0,236
1,74,105,4
1,74,0,236
1,77,105,4
1,77,0,236
1,79,105,4
1,79,0,476
1,79,105,4
1,79,0,476
1,77,105,4
1,77,0,236
1,75,105,4
1,75,0,236
1,79,105,4
1,79,0,476
1,79,105,4
1,79,0,476
1,77,105,4
1,77,0,476
1,77,105,4
1,77,0,1436
1,79,105,4
1,79,0,236
1,77,105,4
1,77,0,236
1,75,105,4
1,75,0,236
1,74,105,4
1,74,0,236
1,72,105,4
1,72,0,236
1,70,105,4
1,70,0,236
1,72,105,4
1,72,0,476
1,72,105,4
1,72,0,476
1,70,105,4
1,70,0,236
1,67,105,4
1,67,0,236
1,72,105,4
1,72,0,476
1,72,105,4
1,72,0,476
1,70,105,4
1,70,0,476
1,70,105,4
1,70,0,116
1,69,105,4
1,69,0,116
1,67,105,4
1,67,105,0
1,67,0,956
1,67,0,0
1,65,105,244
1,65,0,236
1,67,105,4
1,67,0,236
1,70,105,4
1,70,0,236
1,72,105,4
1,72,0,236
1,74,105,4
1,74,0,236
1,77,105,4
1,77,0,236
1,79,105,4
1,79,0,476
1,79,105,4
1,79,0,476
1,77,105,4
1,77,0,236
1,75,105,4
1,75,0,236
1,79,105,4
1,79,0,476
1,79,105,4
1,79,0,476
1,77,105,4
1,77,0,476
1,77,105,4
1,77,0,16
1,79,105,4
1,79,0,236
1,77,105,4
1,77,0,236
1,75,105,4
1,75,0,236
1,74,105,4
1,74,0,236
1,72,105,4
1,72,0,236
1,70,105,4
1,70,0,236
1,72,105,4
1,72,0,476
1,72,105,4
1,72,0,476
1,70,105,4
1,70,0,236
1,67,105,4
1,67,0,236
1,72,105,4
1,72,0,476
1,72,105,4
1,72,0,476
1,67,105,4
1,67,0,236
1,70,105,4
1,70,0,236
1,72,105,4
1,72,0,476
1,72,105,4
1,72,0,476
1,67,105,4
1,67,0,236
1,70,105,4
1,70,0,236
1,72,105,4
1,72,0,476
1,74,105,4
1,74,0,476
1,74,105,4
1,74,0,476
1,74,105,4
1,74,0,116
1,72,105,4
1,72,0,116
1,63,105,29
1,67,105,0
1,67,0,236
1,63,0,0
1,67,105,4
1,63,105,0
1,63,0,116
1,67,0,0
1,67,105,4
1,63,105,0
1,63,0,116
1,67,0,0
1,70,105,4
1,67,105,0
1,67,0,236
1,70,0,0
1,70,105,4
1,67,105,0
1,67,0,116
1,70,0,0
1,70,105,4
1,67,105,0
1,67,0,116
1,70,0,0
1,65,105,4
1,69,105,0
1,69,0,236
1,65,0,0
1,63,105,4
1,67,105,0
1,67,0,236
1,63,0,0
1,70,105,4
1,67,105,0
1,67,0,116
1,70,0,0
1,70,105,4
1,67,105,0
1,67,0,116
1,70,0,0
1,70,105,4
1,67,105,0
1,67,0,236
1,70,0,0
1,70,105,4
1,67,105,0
1,67,0,116
1,70,0,0
1,70,105,4
1,67,105,0
1,67,0,116
1,70,0,0
1,69,105,4
1,65,105,0
1,65,0,236
1,69,0,0
1,63,105,4
1,67,105,0
1,67,0,101
1,63,0,0
1,69,105,4
1,65,105,0
1,65,0,236
1,69,0,0
1,69,105,4
1,65,105,0
1,65,0,116
1,69,0,0
1,69,105,4
1,65,105,0
1,65,0,116
1,69,0,0
1,67,105,4
1,63,105,0
1,63,0,236
1,67,0,0
1,65,105,4
1,62,105,0
1,79,105,695
1,62,0,21
1,65,0,0
1,79,0,215
1,77,105,4
1,77,0,236
1,75,105,4
1,75,0,236
1,74,105,4
1,74,0,236
1,72,105,4
1,72,0,236
1,70,105,4
1,70,0,236
1,72,105,4
1,72,0,476
1,72,105,4
1,72,0,476
1,70,105,4
1,70,0,236
1,67,105,4
1,67,0,236
1,72,105,4
1,72,0,476
1,72,105,4
1,72,0,476
1,70,105,4
1,70,0,476
1,70,105,4
1,70,0,116
1,69,105,4
1,69,0,116
1,65,105,1204
1,65,0,236
1,67,105,4
1,67,0,236
1,70,105,4
1,70,0,236
1,72,105,4
1,72,0,236
1,74,105,4
1,74,0,236
1,77,105,4
1,77,0,236
1,79,105,4
1,79,0,476
1,79,105,4
1,79,0,476
1,77,105,4
1,77,0,236
1,75,105,4
1,75,0,236
1,79,105,4
1,79,0,476
1,79,105,4
1,79,0,476
1,77,105,4
1,77,0,476
1,77,105,4
1,77,0,1436
1,79,105,4
1,79,0,236
1,77,105,4
1,77,0,236
1,75,105,4
1,75,0,236
1,74,105,4
1,74,0,236
1,72,105,4
1,72,0,236
1,70,105,4
1,70,0,236
1,72,105,4
1,72,0,476
1,72,105,4
1,72,0,476
1,70,105,4
1,70,0,236
1,67,105,4
1,67,0,236
1,72,105,4
1,72,0,476
1,72,105,4
1,72,0,476
1,67,105,4
1,67,0,236
1,70,105,4
1,70,0,236
1,72,105,4
1,72,0,476
1,72,105,4
1,72,0,476
1,67,105,4
1,67,0,236
1,70,105,4
1,70,0,236
1,72,105,4
1,72,0,476
1,74,105,4
1,74,0,476
1,72,105,4
1,72,0,116
1,74,105,4
1,74,0,360
1,74,105,0
1,74,0,116
1,72,105,4
1,72,105,0
1,72,0,116
1,72,0,0
1,67,105,4
1,63,105,0
1,63,0,236
1,67,0,0
1,67,105,4
1,63,105,0
1,63,0,116
1,67,0,0
1,67,105,4
1,63,105,0
1,63,0,116
1,67,0,0
1,70,105,4
1,67,105,0
1,67,0,236
1,70,0,0
1,70,105,4
1,67,105,0
1,67,0,116
1,70,0,0
1,70,105,4
1,67,105,0
1,67,0,116
1,70,0,0
1,69,105,4
1,65,105,0
1,65,0,236
1,69,0,0
1,63,105,4
1,67,105,0
1,67,0,236
1,63,0,0
1,70,105,4
1,67,105,0
1,67,0,116
1,70,0,0
1,70,105,4
1,67,105,0
1,67,0,116
1,70,0,0
1,70,105,4
1,67,105,0
1,67,0,176
1,70,0,0
1,70,105,4
1,67,105,0
1,67,0,36
1,70,0,0
1,70,105,4
1,67,105,0
1,67,0,31
1,70,0,0
1,69,105,4
1,65,105,0
1,65,0,236
1,69,0,0
1,67,105,4
1,63,105,0
1,63,0,176
1,67,0,0
1,69,105,4
1,65,105,0
1,65,0,176
1,69,0,0
1,69,105,4
1,65,105,0
1,65,0,51
1,69,0,0
1,69,105,4
1,65,105,0
1,65,0,36
1,69,0,0
1,67,105,4
1,63,105,0
1,63,0,136
1,67,0,0
1,65,105,4
1,62,105,0
1,62,0,136
1,65,0,0
1,79,105,4
1,79,0,156
1,77,105,4
1,77,0,236
1,75,105,4
1,75,0,16
1,74,105,4
1,74,0,191
1,72,105,4
1,72,0,156
1,70,105,4
1,70,0,76
1,72,105,4
1,72,0,36
1,72,105,4
1,72,0,216
1,70,105,4
1,70,0,36
1,67,105,4
1,67,0,56
1,72,105,4
1,72,0,156
1,72,105,4
1,72,0,116
1,70,105,4
1,70,0,136
1,70,105,4
1,70,0,71
1,69,105,4
1,69,0,71
2,67,105,0
2,58,105,0
2,67,0,476
2,67,105,4
2,67,0,476
2,67,105,4
2,67,0,476
2,58,0,0
2,67,105,4
2,58,105,0
2,67,0,116
2,65,105,4
2,65,0,356
2,65,105,4
2,65,0,476
2,65,105,4
2,65,0,476
2,58,0,0
2,65,105,4
2,58,105,0
2,65,0,116
2,63,105,4
2,63,0,356
2,63,105,4
2,63,0,476
2,63,105,4
2,63,0,476
2,58,0,0
2,63,105,4
2,58,105,0
2,63,0,116
2,62,105,4
2,62,0,356
2,61,105,4
2,61,0,236
2,62,105,4
2,62,0,236
2,61,105,4
2,61,0,236
2,62,105,4
2,62,0,236
2,58,0,0
2,58,105,4
2,67,105,480
2,67,0,476
2,58,0,0
2,69,105,4
2,63,105,0
2,63,0,476
2,69,0,0
2,72,105,4
2,65,105,0
2,72,0,716
2,70,105,4
2,70,0,236
2,65,0,0
2,70,105,4
2,70,0,236
2,62,105,4
2,62,0,236
2,63,105,4
2,58,105,0
2,63,0,236
2,65,105,4
2,65,0,116
2,67,105,4
2,67,0,596
2,58,0,0
2,69,105,4
2,60,105,0
2,60,0,1916
2,69,0,0
2,70,105,4
2,62,105,0
2,62,0,716
2,63,105,4
2,63,0,236
2,63,105,4
2,63,0,476
2,62,105,4
2,62,0,716
2,63,105,4
2,63,0,236
2,63,105,4
2,63,0,476
2,70,0,4
2,58,105,25920
2,62,105,0
2,65,105,0
2,65,105,0
2,62,105,0
2,58,105,0
2,65,0,236
2,58,0,0
2,62,0,0
2,67,105,4
2,67,0,236
2,58,0,0
2,62,0,0
2,65,0,0
2,70,105,4
2,65,105,0
2,62,105,0
2,70,0,236
2,72,105,4
2,72,0,236
2,62,0,0
2,65,0,0
2,74,105,4
2,70,105,0
2,65,105,0
2,74,0,236
2,77,105,4
2,77,0,236
2,65,0,0
2,70,0,0
2,79,105,4
2,70,105,0
2,67,105,0
2,79,0,476
2,79,105,4
2,79,0,476
2,77,105,4
2,77,0,236
2,75,105,4
2,75,0,236
2,67,0,0
2,70,0,0
2,79,105,4
2,67,105,0
2,70,105,0
2,79,0,476
2,79,105,4
2,79,0,476
2,77,105,4
2,77,0,476
2,70,0,0
2,67,0,0
2,77,105,4
2,74,105,0
2,70,105,0
2,70,0,1436
2,74,0,0
2,77,0,0
2,79,105,4
2,74,105,0
2,70,105,0
2,79,0,236
2,77,105,4
2,77,0,236
2,70,0,0
2,74,0,0
2,75,105,4
2,70,105,0
2,65,105,0
2,75,0,236
2,74,105,4
2,74,0,236
2,65,0,0
2,70,0,0
2,72,105,4
2,65,105,0
2,62,105,0
2,72,0,236
2,70,105,4
2,70,0,236
2,62,0,0
2,65,0,0
2,72,105,4
2,69,105,0
2,60,105,0
2,72,0,476
2,72,105,4
2,72,0,476
2,60,0,0
2,69,0,0
2,70,105,4
2,60,105,0
2,70,0,236
2,67,105,4
2,67,0,236
2,60,0,0
2,72,105,4
2,63,105,0
2,72,0,476
2,72,105,4
2,72,0,476
2,70,105,4
2,70,0,476
2,63,0,0
2,70,105,4
2,70,0,116
2,69,105,4
2,69,0,116
2,67,105,4
2,58,105,0
2,58,0,956
2,67,0,0
2,58,105,244
2,62,105,0
2,65,105,0
2,65,105,0
2,62,105,0
2,58,105,0
2,65,0,236
2,58,0,0
2,62,0,0
2,67,105,4
2,67,0,236
2,58,0,0
2,62,0,0
2,65,0,0
2,70,105,4
2,67,105,0
2,62,105,0
2,70,0,236
2,72,105,4
2,72,0,236
2,62,0,0
2,67,0,0
2,74,105,4
2,70,105,0
2,65,105,0
2,74,0,236
2,77,105,4
2,77,0,236
2,65,0,0
2,70,0,0
2,79,105,4
2,70,105,0
2,67,105,0
2,79,0,476
2,79,105,4
2,79,0,476
2,77,105,4
2,77,0,236
2,75,105,4
2,75,0,236
2,67,0,0
2,70,0,0
2,79,105,4
2,70,105,0
2,67,105,0
2,79,0,476
2,79,105,4
2,79,0,476
2,77,105,4
2,77,0,476
2,67,0,0
2,70,0,0
2,77,105,4
2,74,105,0
2,70,105,0
2,70,0,1436
2,74,0,0
2,77,0,0
2,79,105,4
2,74,105,0
2,70,105,0
2,79,0,236
2,77,105,4
2,77,0,236
2,70,0,0
2,74,0,0
2,75,105,4
2,70,105,0
2,65,105,0
2,75,0,236
2,74,105,4
2,74,0,236
2,65,0,0
2,70,0,0
2,72,105,4
2,65,105,0
2,62,105,0
2,72,0,236
2,70,105,4
2,70,0,236
2,62,0,0
2,65,0,0
2,72,105,4
2,69,105,0
2,60,105,0
2,72,0,476
2,72,105,4
2,72,0,476
2,60,0,0
2,69,0,0
2,70,105,4
2,60,105,0
2,70,0,236
2,67,105,4
