track,note,velocity,time
3,59,95,22
3,59,0,12
3,59,73,8
3,59,0,18
3,66,91,6
3,66,0,10
3,66,79,10
3,66,0,22
3,59,79,3
3,59,0,14
3,59,74,9
3,59,0,20
3,66,76,5
3,66,0,16
3,66,81,6
3,66,0,22
3,59,81,2
3,59,0,14
3,59,73,9
3,59,0,18
3,66,91,6
3,66,0,14
3,66,79,10
3,66,0,11
3,59,79,3
3,59,0,14
3,59,74,9
3,59,0,20
3,66,76,5
3,66,0,18
3,66,81,6
3,66,0,22
3,59,81,2
3,59,0,14
3,59,76,10
3,59,0,21
3,66,90,3
3,66,0,13
3,66,87,10
3,66,0,20
3,59,61,5
3,59,0,15
3,59,79,8
3,59,0,18
3,66,83,0
3,66,0,16
3,66,85,1
3,66,0,22
3,59,87,0
3,59,0,16
3,59,74,8
3,59,0,20
3,66,87,0
3,66,0,15
3,66,86,8
3,66,0,24
3,59,85,1
3,59,0,13
3,59,69,11
3,59,0,20
3,66,98,0
3,66,0,18
3,66,87,6
3,66,0,20
3,59,77,4
3,59,0,14
3,59,81,10
3,59,0,22
3,66,93,2
3,66,0,17
3,66,90,7
3,66,0,21
3,59,81,3
3,59,0,15
3,59,74,9
3,59,0,18
3,66,93,6
3,66,0,13
3,66,87,10
3,66,0,15
3,59,72,0
3,59,0,16
3,59,74,9
3,59,0,20
3,66,88,3
3,66,0,16
3,66,74,6
3,66,0,21
3,59,79,3
3,59,0,17
3,59,75,8
3,59,0,18
3,66,96,0
3,66,0,16
3,66,93,8
3,66,0,17
3,59,81,6
3,59,0,16
3,59,81,8
3,59,0,17
3,66,87,7
3,66,0,15
3,66,73,8
3,66,0,20
3,59,77,4
3,59,0,14
3,59,75,6
3,59,0,17
3,66,97,7
3,66,0,15
3,66,93,0
3,66,0,17
3,59,83,6
3,59,0,13
3,59,72,9
3,59,0,20
3,66,100,4
3,66,0,15
3,66,95,7
3,66,0,20
3,59,70,5
3,59,0,16
3,59,74,8
3,59,0,20
3,66,100,0
3,66,0,13
3,66,77,11
3,66,0,20
3,59,85,5
3,59,0,14
3,59,81,9
3,59,0,20
3,66,90,4
3,66,0,16
3,66,76,8
3,66,0,20
3,59,81,4
3,59,0,15
3,59,74,9
3,59,0,19
3,66,95,4
3,66,0,19
3,66,86,1
3,66,0,20
3,59,86,0
3,59,0,16
3,59,76,8
3,59,0,17
3,66,79,7
3,66,0,16
3,66,95,7
3,66,0,20
3,59,75,4
3,59,0,18
3,59,71,6
3,66,81,24
3,59,0,1
3,66,0,17
3,66,95,5
3,66,0,20
3,58,95,3
3,58,0,1
3,58,70,7
3,58,0,20
3,66,98,4
3,66,0,15
3,66,95,9
3,66,0,18
3,58,85,5
3,58,0,18
3,58,74,7
3,58,0,20
3,66,100,2
3,66,0,18
3,66,85,3
3,66,0,1
3,58,91,1
3,58,0,17
3,58,76,7
3,58,0,22
3,66,96,1
3,66,0,16
3,66,83,9
3,66,0,19
3,58,85,3
3,58,0,19
3,58,74,6
3,58,0,22
3,66,100,0
3,66,0,20
3,66,93,4
3,66,0,18
3,58,83,5
3,58,0,19
3,58,79,6
3,58,0,20
3,66,100,0
3,66,0,15
3,66,79,9
3,66,0,19
3,58,75,4
3,58,0,16
3,58,85,7
3,58,0,20
3,66,90,0
3,66,0,18
3,66,85,1
3,66,0,19
3,58,79,4
3,58,0,14
3,58,75,9
3,58,0,20
3,66,95,4
3,66,0,15
3,66,77,9
3,66,0,20
3,58,58,3
3,58,0,16
3,58,83,8
3,58,0,20
3,66,90,4
3,66,0,18
3,66,79,5
3,66,0,22
3,58,81,2
3,58,0,16
3,58,77,7
3,58,0,24
3,66,95,0
3,66,0,20
3,66,83,4
3,66,0,20
3,58,77,4
3,58,0,18
3,58,74,6
3,58,0,21
3,66,97,1
3,66,0,16
3,66,71,1
3,66,0,20
3,58,87,1
3,58,0,16
3,58,73,8
3,58,0,23
3,66,87,0
3,66,0,19
3,66,87,5
3,66,0,24
3,58,90,0
3,58,0,17
3,58,74,7
3,66,94,25
3,58,0,2
3,66,0,16
3,66,86,6
3,66,0,21
3,58,90,2
3,58,0,18
3,58,67,7
3,58,0,21
3,66,100,0
3,66,0,15
3,66,76,9
3,66,0,20
3,58,67,3
3,58,0,19
3,58,73,5
3,58,0,20
3,66,100,1
3,66,0,19
3,66,93,1
3,66,0,18
3,59,85,6
3,59,0,19
3,59,74,5
3,59,0,20
3,66,100,3
3,66,0,22
3,66,78,2
3,66,0,20
3,59,85,3
3,59,0,16
3,59,86,8
3,59,0,23
3,66,97,1
3,66,0,13
3,66,75,9
3,66,0,20
3,59,86,3
3,59,0,1
3,59,77,5
3,59,0,20
3,66,98,4
3,66,0,16
3,66,81,8
3,66,0,18
3,59,81,5
3,59,0,20
3,59,74,5
3,59,0,16
3,59,81,72
3,59,0,22
3,66,93,2
3,66,0,17
3,66,90,7
3,66,0,21
3,59,81,3
3,59,0,15
3,59,74,9
3,59,0,18
3,66,93,6
3,66,0,13
3,66,87,10
3,66,0,15
3,59,72,0
3,59,0,16
3,59,74,9
3,59,0,20
3,66,88,3
3,66,0,16
3,66,74,6
3,66,0,21
3,59,79,3
3,59,0,17
3,59,75,8
3,59,0,18
3,66,96,0
3,66,0,16
3,66,93,8
3,66,0,17
3,59,81,6
3,59,0,16
3,59,81,8
3,59,0,17
3,66,87,7
3,66,0,15
3,66,73,8
3,66,0,20
3,59,77,4
3,59,0,14
3,59,75,6
3,59,0,17
3,66,97,7
3,66,0,15
3,66,93,0
3,66,0,17
3,59,83,6
3,59,0,13
3,59,72,9
3,59,0,20
3,66,100,4
3,66,0,15
3,66,95,7
3,66,0,20
3,59,70,5
3,59,0,16
3,59,74,8
3,59,0,20
3,66,100,0
3,66,0,13
3,66,77,11
3,66,0,20
3,59,85,5
3,59,0,14
3,59,81,9
3,59,0,20
3,66,90,4
3,66,0,16
3,66,76,8
3,66,0,20
3,59,81,4
3,59,0,15
3,59,74,9
3,59,0,19
3,66,95,4
3,66,0,19
3,66,86,1
3,66,0,20
3,59,86,0
3,59,0,16
3,59,76,8
3,59,0,17
3,66,79,7
3,66,0,16
3,66,95,7
3,66,0,20
3,59,75,4
3,59,0,18
3,59,71,6
3,66,81,24
3,59,0,1
3,66,0,17
3,66,95,5
3,66,0,20
3,58,95,3
3,58,0,1
3,58,70,7
3,58,0,20
3,66,98,4
3,66,0,15
3,66,95,9
3,66,0,18
3,58,85,5
3,58,0,18
3,58,74,7
3,58,0,20
3,66,100,2
3,66,0,18
3,66,85,3
3,66,0,1
3,58,91,1
3,58,0,17
3,58,76,7
3,58,0,22
3,66,96,1
3,66,0,16
3,66,83,9
3,66,0,19
3,58,85,3
3,58,0,19
3,58,74,6
3,58,0,22
3,66,100,0
3,66,0,20
3,66,93,4
3,66,0,18
3,58,83,5
3,58,0,19
3,58,79,6
3,58,0,20
3,66,100,0
3,66,0,15
3,66,79,9
3,66,0,19
3,58,75,4
3,58,0,16
3,58,85,7
3,58,0,20
3,66,90,0
3,66,0,18
3,66,85,1
3,66,0,19
3,58,79,4
3,58,0,14
3,58,75,9
3,58,0,20
3,66,95,4
3,66,0,15
3,66,77,9
3,66,0,20
3,58,58,3
3,58,0,16
3,58,83,8
3,58,0,20
3,66,90,4
3,66,0,18
3,66,79,5
3,66,0,22
3,58,81,2
3,58,0,16
3,58,77,7
3,58,0,24
3,66,95,0
3,66,0,20
3,66,83,4
3,66,0,20
3,58,77,4
3,58,0,18
3,58,74,6
3,58,0,21
3,66,97,1
3,66,0,16
3,66,71,1
3,66,0,20
3,58,87,1
3,58,0,16
3,58,73,8
3,58,0,23
3,66,87,0
3,66,0,19
3,66,87,5
3,66,0,24
3,58,90,0
3,58,0,17
3,58,74,7
3,66,94,25
3,58,0,2
3,66,0,16
3,66,86,6
3,66,0,21
3,58,90,2
3,58,0,18
3,58,67,7
3,58,0,21
3,66,100,0
3,66,0,15
3,66,76,9
3,66,0,20
3,58,67,3
3,58,0,19
3,58,73,5
3,58,0,20
3,66,100,1
3,66,0,19
3,66,93,1
3,66,0,18
3,59,85,6
3,59,0,19
3,59,74,5
3,59,0,20
3,66,100,3
3,66,0,22
3,66,78,2
3,66,0,20
3,59,85,3
3,59,0,16
3,59,86,8
3,59,0,23
3,66,97,1
3,66,0,13
3,66,75,9
3,66,0,20
3,59,86,3
3,59,0,1
3,59,77,5
3,59,0,20
3,66,98,4
3,66,0,16
3,66,81,8
3,66,0,18
3,59,81,5
3,59,0,20
3,59,74,5
3,59,0,16
4,35,90,3878
4,35,0,8
4,35,92,16
4,35,0,11
4,35,115,12
4,35,0,44
4,47,102,5
4,47,0,38
4,47,102,10
4,47,0,40
4,35,87,8
4,35,0,14
4,35,87,10
4,35,0,10
4,35,104,14
4,35,0,42
4,47,107,6
4,47,0,27
4,47,104,21
4,47,0,33
4,35,81,14
4,35,0,14
4,35,92,11
4,35,0,11
4,35,96,13
4,35,0,36
4,47,104,12
4,47,0,28
4,47,107,20
4,47,0,38
4,35,86,9
4,35,0,12
4,35,91,13
4,35,0,10
4,35,92,14
4,35,0,40
4,47,104,8
4,47,0,27
4,47,107,21
4,47,0,32
4,35,92,15
4,35,0,11
4,35,91,14
4,35,0,9
4,35,103,15
4,35,0,40
4,47,104,8
4,47,0,28
4,47,103,20
4,47,0,37
4,35,84,10
4,35,0,12
4,35,93,14
4,35,0,10
4,35,102,13
4,35,0,42
4,47,104,6
4,47,0,28
4,47,110,20
4,47,0,36
4,30,86,10
4,30,0,14
4,30,76,12
4,30,0,10
4,30,110,14
4,30,0,40
4,42,96,8
4,42,0,26
4,42,100,22
4,42,0,43
4,30,91,4
4,30,0,16
4,30,92,9
4,30,0,12
4,30,100,13
4,30,0,32
4,42,106,15
4,42,0,31
4,42,110,17
4,42,0,37
4,30,104,10
4,30,0,15
4,30,98,10
4,30,0,12
4,30,93,12
4,30,0,36
4,42,84,12
4,42,0,26
4,42,93,21
4,42,0,41
4,30,82,6
4,30,0,17
4,30,89,9
4,30,0,11
4,30,110,14
4,30,0,40
4,42,98,7
4,42,0,30
4,42,110,18
4,42,0,40
4,30,127,7
4,30,0,12
4,30,80,13
4,30,0,12
4,30,112,13
4,30,0,43
4,42,85,4
4,42,0,27
4,42,102,21
4,42,0,40
4,30,92,7
4,30,0,14
4,30,94,12
4,30,0,12
4,30,103,12
4,30,0,40
4,42,82,7
4,42,0,28
4,42,98,20
4,42,0,38
4,30,117,9
4,30,0,12
4,30,104,13
4,30,0,11
4,30,117,14
4,30,0,41
4,42,100,6
4,42,0,28
4,42,112,20
4,42,0,36
4,35,110,12
4,35,0,12
4,35,115,13
4,35,0,11
4,35,112,13
4,35,0,40
4,47,100,7
4,47,0,31
4,47,103,17
4,47,0,40
4,35,100,8
4,35,0,12
4,35,103,12
4,35,0,12
4,35,88,12
4,35,0,45
4,47,104,3
4,47,0,27
4,47,103,21
4,47,0,35
4,37,92,12
4,37,0,12
4,37,100,14
4,37,0,15
4,37,107,9
4,37,0,44
4,49,96,3
4,49,0,27
4,49,85,21
4,49,0,44
4,37,117,3
4,37,0,12
4,37,102,13
4,37,0,12
4,37,103,12
4,49,98,48
4,37,0,1
4,49,0,35
4,49,94,12
4,49,0,38
4,30,107,9
4,30,0,12
4,30,107,13
4,30,0,12
4,30,100,12
4,30,0,42
4,42,103,5
4,42,0,30
4,42,104,19
4,42,0,39
4,30,125,8
4,30,0,13
4,30,102,12
4,30,0,12
4,30,91,12
4,42,104,47
4,30,0,2
4,42,0,29
4,42,103,17
4,42,0,40
4,37,60,8
4,37,0,12
4,37,91,13
4,37,0,11
4,37,100,13
4,37,0,44
4,49,91,3
4,49,0,29
4,49,89,20
4,49,0,40
4,37,115,7
4,37,0,16
4,37,96,9
4,37,0,12
4,37,87,12
4,37,0,42
4,49,104,6
4,49,0,30
4,49,103,18
4,49,0,43
4,30,127,4
4,30,0,13
4,30,104,13
4,30,0,12
4,30,94,12
4,30,0,36
4,42,98,10
4,42,0,29
4,42,117,20
4,42,0,40
4,30,117,7
4,30,0,12
4,30,112,13
4,30,0,12
4,30,103,12
4,30,0,40
4,42,104,7
4,42,0,31
4,42,110,18
4,42,0,37
4,30,110,15
4,37,79,44
4,30,0,11
4,37,0,13
4,37,85,23
4,49,79,48
4,37,0,8
4,37,83,40
4,49,0,2
4,37,0,16
4,37,89,31
4,37,0,43
4,49,80,4
4,49,0,20
4,49,82,29
4,37,86,47
4,49,0,3
4,37,0,17
4,37,87,28
4,37,0,20
4,37,80,28
4,37,0,46
4,49,77,2
4,49,0,48
4,37,86,0
4,37,0,17
4,37,88,32
4,37,0,46
4,49,84,1
4,49,0,18
4,49,81,30
4,37,90,48
4,49,0,1
4,35,91,47
4,37,0,8
4,35,0,10
4,35,96,30
4,47,103,49
4,35,0,2
4,47,0,46
4,35,91,0
4,35,0,15
4,35,98,33
4,35,0,43
4,47,87,4
4,47,0,20
4,47,91,28
4,47,0,48
4,35,100,0
4,35,0,17
4,35,92,31
4,35,0,15
4,35,90,33
4,47,84,48
4,35,0,6
4,35,89,42
4,47,0,3
4,35,0,11
4,35,93,35
4,35,0,46
4,47,82,1
4,47,0,20
4,47,102,29
4,47,0,47
4,35,92,0
4,35,0,41
4,37,82,8
4,37,0,21
4,37,81,26
4,37,0,47
4,49,76,1
4,37,84,48
4,49,0,4
4,37,0,12
4,37,85,33
4,37,0,40
4,49,80,7
4,49,0,16
4,49,88,32
4,37,82,47
4,49,0,1
4,37,0,19
4,37,85,29
4,37,0,17
4,37,89,31
4,37,0,47
4,49,77,1
4,49,0,47
4,37,84,1
4,37,0,17
4,37,82,31
4,37,0,47
4,49,82,0
4,49,0,17
4,49,93,32
4,37,92,48
4,49,0,2
4,35,90,47
4,37,0,2
4,35,0,17
4,35,89,28
4,47,89,48
4,35,0,6
4,35,85,42
4,47,0,1
4,35,0,14
4,35,91,33
4,47,91,48
4,35,0,7
4,47,0,11
4,47,89,30
4,47,0,48
4,35,91,0
4,35,0,16
4,35,91,33
4,35,0,14
4,35,91,33
4,47,82,48
4,35,0,6
4,35,91,42
4,47,0,2
4,35,0,12
4,35,85,34
4,35,0,35
4,47,78,13
4,47,0,14
4,47,91,35
4,47,0,40
4,35,91,8
4,35,0,40
4,32,90,8
4,32,0,21
4,32,98,27
4,44,84,48
4,32,0,2
4,32,96,46
4,44,0,1
4,32,0,19
4,32,98,28
4,32,0,22
4,32,91,25
4,32,0,47
4,44,92,1
4,44,0,36
4,44,84,13
4,44,0,40
4,28,87,8
4,28,0,25
4,28,89,23
4,40,92,48
4,28,0,2
4,28,89,45
4,40,0,2
4,28,0,16
4,28,90,30
4,28,0,22
4,28,96,26
4,40,91,48
4,28,0,3
4,40,0,33
4,40,98,13
4,40,0,45
4,32,89,3
4,32,0,21
4,32,80,26
4,32,0,40
4,44,91,8
4,32,91,48
4,44,0,5
4,32,0,32
4,28,89,11
4,28,0,15
4,28,100,10
4,28,0,20
4,40,88,3
4,30,104,48
4,40,0,3
4,30,0,10
4,30,96,12
4,30,0,21
4,42,85,3
4,32,104,47
4,42,0,2
4,32,0,17
4,32,91,29
4,44,90,48
4,32,0,4
4,32,92,45
4,44,0,3
4,32,0,13
4,32,93,32
4,32,0,15
4,32,103,32
4,32,0,47
4,44,87,2
4,44,0,32
4,44,91,16
4,44,0,43
4,28,85,5
4,28,0,20
4,28,89,27
4,40,94,48
4,28,0,6
4,28,84,42
4,40,0,3
4,28,0,12
4,28,89,33
4,28,0,15
4,28,90,33
4,28,0,34
4,40,98,14
4,40,0,43
4,37,91,4
4,37,0,12
4,37,90,14
4,37,0,10
4,37,112,14
4,37,0,41
4,49,84,6
4,49,0,36
4,49,90,13
4,49,0,45
4,37,89,2
4,37,0,15
4,37,84,10
4,37,0,12
4,37,93,12
4,37,0,42
4,49,96,6
4,49,0,36
4,49,89,12
4,49,0,41
4,30,91,6
4,30,0,15
4,30,77,11
4,30,0,10
