track,note,velocity,time
0,42,75,426
0,42,0,3
0,42,75,45
0,42,0,3
0,42,75,45
0,42,0,3
0,42,75,45
0,42,0,3
0,28,62,47
0,40,58,2
0,52,52,37
0,28,0,6
0,40,0,1
0,52,0,10
0,56,48,7
0,56,0,15
0,59,56,1
0,59,0,15
0,64,68,1
0,56,72,8
0,64,0,1
0,59,37,7
0,64,58,8
0,56,0,1
0,59,0,1
0,68,52,6
0,64,0,4
0,71,66,4
0,68,0,4
0,59,66,4
0,71,0,1
0,68,62,7
0,64,34,8
0,68,0,4
0,71,56,4
0,64,0,2
0,76,64,6
0,71,0,1
0,76,0,7
0,64,66,0
0,64,0,8
0,71,39,0
0,76,58,8
0,71,0,3
0,59,0,0
0,80,54,5
0,76,0,3
0,83,76,5
0,80,0,3
0,83,0,4
0,76,66,0
0,87,56,0
0,70,66,0
0,66,54,1
0,85,60,21
0,87,0,13
0,87,60,11
0,85,0,1
0,76,0,12
0,70,0,1
0,66,0,2
0,87,0,4
0,66,66,0
0,83,66,0
0,73,54,23
0,73,0,41
0,76,64,7
0,76,0,46
0,73,50,2
0,66,0,1
0,73,0,5
0,63,54,0
0,69,58,0
0,59,56,0
0,80,62,8
0,80,0,19
0,71,50,17
0,75,56,8
0,80,58,4
0,69,0,5
0,59,0,6
0,83,64,1
0,63,0,3
0,83,0,34
0,80,0,5
0,75,0,3
0,71,0,5
0,52,56,10
0,56,54,4
0,59,58,8
0,64,34,0
0,68,52,4
0,71,56,4
0,76,66,0
0,64,95,0
0,59,0,1
0,64,0,10
0,56,0,0
0,52,0,10
0,64,0,11
0,76,0,2
0,64,99,0
0,71,0,8
0,68,0,10
0,64,0,10
0,64,91,0
0,55,66,12
0,58,54,8
0,64,0,4
0,61,62,4
0,64,22,8
0,67,66,4
0,64,95,0
0,70,52,0
0,73,64,8
0,76,76,8
0,63,77,0
0,64,0,29
0,61,0,0
0,76,0,9
0,58,0,1
0,55,0,8
0,73,0,4
0,67,0,6
0,63,0,28
0,61,63,0
0,70,0,1
0,54,64,15
0,57,56,8
0,61,0,5
0,61,52,7
0,64,64,4
0,69,64,4
0,59,81,0
0,73,66,5
0,51,62,21
0,57,52,12
0,59,48,1
0,47,56,0
0,63,54,12
0,68,60,12
0,59,83,0
0,71,64,0
0,59,0,12
0,59,83,0
0,59,0,12
0,57,0,7
0,51,0,4
0,59,99,0
0,59,0,21
0,61,107,0
0,47,0,1
0,63,0,11
0,68,0,0
0,61,0,8
0,71,0,0
0,59,0,2
0,59,65,0
0,59,0,17
0,59,81,0
0,40,62,0
0,56,71,32
0,59,0,3
0,56,20,77
0,59,58,27
0,71,88,64
0,59,0,7
0,56,0,14
0,40,0,18
0,56,42,9
0,59,76,16
0,56,0,7
0,71,0,5
0,59,0,15
0,60,66,21
0,61,68,32
0,60,0,8
0,56,0,11
0,47,56,0
0,57,62,0
0,62,68,0
0,61,0,4
0,73,92,5
0,47,0,31
0,62,0,8
0,73,0,7
0,57,0,4
0,72,68,14
0,72,0,57
0,64,54,2
0,52,38,0
0,71,64,0
0,56,46,0
0,62,46,0
0,72,39,9
0,62,0,33
0,52,0,8
0,56,0,1
0,64,0,15
0,60,75,0
0,45,60,0
0,52,60,0
0,72,0,3
0,57,52,10
0,60,0,7
0,61,44,0
0,61,99,0
0,64,66,3
0,69,62,2
0,73,60,4
0,61,0,19
0,64,79,0
0,64,0,26
0,60,51,0
0,52,0,22
0,45,0,0
0,57,0,6
0,61,69,0
0,60,0,2
0,69,0,4
0,73,0,7
0,64,0,14
0,61,0,21
0,61,0,150
0,49,37,66
0,53,54,6
0,56,64,4
0,59,54,2
0,61,40,6
0,65,66,0
0,68,62,7
0,71,64,7
0,61,79,0
0,61,0,18
0,59,0,3
0,56,0,10
0,53,0,9
0,61,99,0
0,49,0,5
0,71,0,10
0,61,0,1
0,61,0,2
0,61,99,0
0,61,0,17
0,61,103,0
0,61,0,47
0,62,67,0
0,62,0,30
0,61,87,0
0,61,0,20
0,61,87,0
0,57,71,0
0,42,56,0
0,49,56,48
0,57,58,48
0,61,35,0
0,61,0,27
0,73,80,21
0,57,0,4
0,42,0,3
0,73,0,15
0,49,0,17
0,69,72,0
0,69,0,10
0,57,62,38
0,57,0,11
0,61,64,37
0,61,0,13
0,62,66,35
0,62,0,11
0,47,52,0
0,63,66,0
0,63,0,27
0,71,68,21
0,71,0,21
0,57,40,27
0,59,58,0
0,59,0,30
0,47,0,17
0,57,0,1
0,66,60,0
0,66,0,16
0,67,68,0
0,73,58,20
0,73,0,13
0,59,35,0
0,57,46,0
0,57,0,35
0,56,75,0
0,68,54,0
0,68,0,28
0,59,81,0
0,71,66,0
0,40,54,0
0,59,56,0
0,59,0,3
0,40,0,19
0,56,56,2
0,47,58,0
0,71,0,14
0,59,58,3
0,64,68,11
0,68,58,7
0,71,62,11
0,59,0,6
0,61,83,0
0,56,0,0
0,47,0,23
0,61,0,24
0,58,81,0
0,71,0,32
0,59,0,5
0,68,0,0
0,64,0,9
0,58,0,1
0,59,83,0
0,61,77,0
0,59,0,6
0,61,0,45
0,58,75,0
0,51,60,24
0,54,62,12
0,57,56,2
0,59,79,0
0,42,66,0
0,63,62,9
0,66,64,6
0,71,68,14
0,66,0,5
0,61,77,0
0,59,0,8
0,58,79,0
0,61,0,1
0,59,71,0
0,68,84,0
0,61,62,0
0,68,0,41
0,61,0,50
0,66,64,5
0,57,64,0
0,59,0,13
0,66,0,19
0,59,83,0
0,52,72,32
0,59,0,13
0,56,76,2
0,68,107,0
0,44,62,0
0,57,0,0
0,59,56,0
0,59,64,8
0,64,80,11
0,68,68,4
0,71,84,12
0,68,0,30
0,68,99,0
0,56,0,4
0,52,0,2
0,59,0,8
0,68,0,11
0,44,0,7
0,68,99,0
0,71,0,9
0,68,0,11
0,64,0,2
0,68,0,3
0,56,76,5
0,44,60,13
0,68,103,0
0,60,66,0
0,60,66,1
0,59,0,4
0,64,68,9
0,68,76,7
0,68,0,1
0,72,88,12
0,68,103,0
0,56,0,42
0,68,0,4
0,44,0,34
0,68,99,0
0,68,0,22
0,60,0,2
0,72,0,1
0,64,0,5
0,68,0,2
0,52,72,10
0,68,103,0
0,61,64,0
0,45,64,1
0,57,80,12
0,61,62,14
0,64,68,11
0,69,66,10
0,73,72,12
0,68,0,21
0,66,95,0
0,52,0,30
0,57,0,4
0,68,99,0
0,66,0,9
0,45,0,3
0,73,0,9
0,61,0,1
0,69,0,1
0,64,0,2
0,54,66,12
0,69,91,0
0,45,66,0
0,52,64,0
0,57,64,4
0,60,56,4
0,64,66,10
0,66,66,9
0,69,62,11
0,72,72,11
0,68,95,0
0,52,0,0
0,54,66,0
0,57,0,8
0,54,0,4
0,60,0,17
0,72,0,2
0,64,0,1
0,69,0,0
0,66,0,0
0,45,0,8
0,66,83,0
0,64,87,0
0,44,58,0
0,54,0,0
0,56,64,0
0,49,60,8
0,56,62,5
0,56,83,0
0,64,0,6
0,61,52,2
0,56,0,7
0,64,54,9
0,56,79,0
0,44,0,5
0,68,54,3
0,56,0,6
0,56,79,0
0,68,0,8
0,68,84,40
0,76,80,1
0,69,72,15
0,49,52,2
0,75,76,0
0,56,0,0
0,64,64,0
0,64,0,21
0,57,62,11
0,61,44,16
0,75,0,1
0,64,52,15
0,69,0,2
0,69,56,14
0,73,56,8
0,76,48,16
0,61,71,0
0,63,81,0
0,42,58,1
0,54,60,1
0,49,54,0
0,57,54,0
0,64,99,0
0,61,80,0
0,57,62,0
0,64,68,8
0,69,64,8
0,57,81,0
0,64,0,2
0,61,0,4
0,57,0,4
0,57,0,3
0,57,87,0
0,40,68,8
0,57,0,4
0,49,58,4
0,54,62,0
0,57,52,8
0,57,99,0
0,61,70,0
0,57,0,0
0,56,54,0
0,64,64,8
0,69,68,8
0,57,0,40
0,56,99,0
0,69,0,12
0,54,0,10
0,64,0,1
0,61,0,7
0,57,0,7
0,49,0,3
0,40,0,9
0,57,79,0
0,59,83,0
0,51,80,0
0,39,80,0
0,71,80,0
0,59,80,0
0,66,80,0
0,63,80,0
0,56,0,0
0,54,56,0
0,71,112,0
0,35,88,0
0,35,86,0
0,47,86,0
0,63,86,0
0,71,86,0
0,59,86,0
0,71,107,0
0,37,88,0
0,49,90,0
0,37,90,0
0,71,90,0
0,64,90,0
0,59,90,0
0,71,99,0
0,39,88,0
0,39,90,0
0,51,90,0
0,71,90,0
0,59,90,0
0,66,90,0
0,71,99,0
0,40,76,0
0,40,32,0
0,64,64,0
0,59,64,0
0,56,60,0
0,52,52,0
0,56,96,0
0,64,106,0
0,83,66,0
0,68,60,0
0,71,64,0
0,59,60,0
0,49,75,0
0,42,75,0
0,35,75,0
0,52,58,0
0,35,0,3
0,42,0,0
0,49,0,0
0,52,0,9
0,71,0,6
0,56,68,6
0,59,0,7
0,71,0,1
0,68,0,0
0,56,0,4
0,71,95,0
0,68,64,0
0,59,58,0
0,71,64,0
0,42,32,0
0,59,58,0
0,42,0,3
0,59,0,9
0,59,0,6
0,71,0,1
0,64,0,0
0,56,0,1
0,68,0,4
0,64,64,0
0,71,0,3
0,64,0,2
0,56,0,1
0,59,0,1
0,64,0,5
0,71,87,0
0,64,72,0
0,59,68,0
0,56,66,0
0,56,114,0
0,64,98,0
0,68,48,0
0,59,54,0
0,71,66,0
0,42,58,0
0,40,75,0
0,35,49,0
0,64,66,0
0,35,0,3
0,40,0,0
0,42,0,0
0,40,0,2
0,52,0,4
0,68,0,3
0,64,0,0
0,59,0,5
0,71,0,3
0,59,54,4
0,71,0,1
0,59,0,11
0,40,0,2
0,56,0,7
0,59,0,2
0,56,0,0
0,70,91,0
0,40,66,0
0,52,52,0
0,52,76,0
0,70,40,0
0,58,54,0
0,67,64,0
0,42,27,0
0,56,62,0
0,64,0,1
0,64,0,2
0,42,0,0
0,70,0,8
0,56,0,1
0,58,0,1
0,67,0,3
0,70,0,3
0,69,83,0
0,69,46,0
0,57,56,0
0,66,66,0
0,52,28,0
0,42,80,1
0,61,56,0
0,57,48,0
0,64,68,0
0,66,60,0
0,42,36,0
0,57,96,0
0,64,102,0
0,42,75,0
0,35,75,0
0,52,64,0
0,35,0,3
0,42,0,0
0,52,0,9
0,69,0,5
0,57,0,7
0,57,66,0
0,69,0,6
0,57,0,6
0,66,0,7
0,68,95,0
0,68,44,0
0,56,56,0
0,64,76,0
0,42,30,0
0,61,54,0
0,42,0,3
0,61,0,9
0,64,0,3
0,57,0,6
0,56,0,1
0,68,0,2
0,64,52,0
0,64,0,2
0,68,0,4
0,57,0,6
0,64,0,0
0,61,0,3
0,66,0,1
0,64,0,2
0,42,0,3
0,42,0,2
0,64,66,1
0,66,66,0
0,61,62,0
0,57,56,0
0,57,98,0
0,64,94,0
0,42,56,0
0,40,75,0
0,35,46,0
0,64,64,0
0,35,0,3
0,40,0,0
0,42,0,0
0,64,0,9
0,52,0,11
0,61,54,1
0,61,0,12
0,61,73,0
0,42,62,0
0,54,44,0
0,52,84,0
0,61,62,0
0,57,58,0
0,42,30,0
0,57,56,0
0,42,0,3
0,57,0,2
0,57,0,3
0,61,0,3
0,57,0,1
0,61,0,4
0,64,0,3
0,57,0,2
0,52,48,2
0,54,0,10
0,52,0,0
0,52,0,2
0,64,0,1
0,42,0,6
0,66,0,0
0,64,81,0
0,35,68,0
0,66,56,0
0,47,46,0
0,64,58,0
0,57,56,0
0,59,56,0
0,57,96,0
0,63,86,0
0,61,46,0
0,64,58,0
0,57,54,0
0,42,75,0
0,35,75,0
0,54,56,0
0,35,0,3
0,42,0,0
0,54,0,9
0,57,66,12
0,42,27,12
0,63,58,0
0,42,0,3
0,64,0,2
0,63,0,7
0,66,0,1
0,64,0,2
0,57,0,1
0,64,0,1
0,61,0,1
0,59,0,2
0,57,0,2
0,63,0,1
0,66,34,1
0,47,0,7
0,35,0,5
0,66,0,0
0,63,81,0
0,59,58,0
0,66,60,0
0,63,56,0
0,57,98,0
0,63,98,0
0,63,58,0
0,59,64,0
0,57,54,0
0,42,54,0
0,40,75,0
0,35,44,0
0,66,66,0
0,35,0,3
0,40,0,0
0,42,0,0
0,57,0,3
0,66,0,6
0,63,60,12
0,63,0,12
0,63,0,6
0,59,0,0
0,35,68,6
0,54,80,0
0,42,29,0
0,57,58,0
0,63,0,1
0,42,0,2
0,57,0,2
0,63,0,5
0,57,0,0
0,59,0,0
0,57,0,2
0,66,0,1
0,54,54,11
0,54,0,5
0,66,91,0
0,40,68,0
0,52,18,0
0,64,80,0
0,56,94,0
0,64,102,0
0,66,66,0
0,57,54,0
0,42,75,0
0,35,75,0
0,52,56,0
0,35,0,3
0,42,0,0
0,52,0,9
0,52,0,2
0,56,68,3
0,64,0,4
0,57,0,3
0,56,0,5
0,66,0,9
0,64,77,0
0,59,48,0
0,56,52,0
0,52,52,0
0,56,54,0
0,64,68,0
0,42,30,0
0,59,56,0
0,42,0,3
0,83,0,9
0,59,0,0
0,64,0,4
0,56,0,6
0,64,58,2
0,64,0,12
0,83,97,12
0,64,58,0
0,56,102,0
0,64,94,0
0,83,88,0
0,83,75,0
0,42,52,0
0,40,75,0
0,35,49,0
0,64,72,0
0,35,0,3
0,40,0,0
0,42,0,0
0,83,0,6
0,64,0,3
0,64,0,8
0,83,0,1
0,59,0,3
0,80,76,0
0,80,92,0
0,80,75,0
0,59,50,0
0,83,0,6
0,56,0,3
0,80,0,0
0,52,0,1
0,59,0,2
0,80,0,8
0,80,0,3
0,56,0,0
0,78,62,1
0,52,86,0
0,78,80,0
0,78,75,0
0,46,46,0
0,56,64,0
0,56,0,1
0,46,0,2
0,64,0,6
0,78,0,0
0,64,0,3
0,56,0,0
0,64,0,1
0,78,0,4
0,40,0,1
0,76,66,6
0,76,56,0
0,76,75,0
0,78,0,1
0,76,0,8
0,52,0,6
0,37,80,1
0,56,26,0
0,52,44,0
0,59,39,0
0,49,31,0
0,75,58,0
0,61,84,0
0,64,106,0
0,75,72,0
0,75,75,0
0,42,75,0
0,35,75,0
0,52,60,0
0,35,0,3
0,42,0,0
0,75,0,6
0,52,0,3
0,56,64,12
0,63,65,0
0,56,56,0
0,52,56,0
0,63,64,0
0,42,25,0
0,61,56,0
0,42,0,3
0,61,0,9
0,64,0,7
0,61,0,0
0,64,66,5
0,64,0,12
0,52,0,2
0,63,0,2
0,68,58,8
0,64,60,0
0,63,44,0
0,56,58,0
0,61,110,0
0,64,98,0
0,42,51,0
0,40,75,0
0,35,47,0
0,64,66,0
0,35,0,3
0,40,0,0
0,42,0,0
0,64,0,9
0,75,0,2
0,52,0,0
0,56,0,1
0,37,0,1
0,63,0,0
0,56,0,8
0,56,56,0
0,61,56,0
0,63,0,10
0,61,0,2
0,56,0,0
0,68,0,8
0,61,75,0
0,37,66,0
0,56,62,0
0,52,78,0
0,52,36,0
0,61,42,0
0,42,32,0
0,42,0,3
0,61,0,2
0,64,0,2
0,52,0,1
0,64,0,4
0,49,0,0
0,61,0,2
0,61,0,7
0,52,68,3
0,52,0,12
0,63,77,0
0,35,68,0
0,68,60,0
0,64,68,0
0,47,58,0
0,61,62,0
0,61,96,0
0,64,96,0
0,64,66,0
0,52,52,0
0,56,39,0
0,63,66,0
0,42,75,0
0,35,75,0
0,52,56,0
0,35,0,3
0,42,0,0
0,52,0,9
0,56,68,12
0,56,0,12
0,42,29,4
0,61,52,0
0,42,0,3
0,61,0,9
0,64,0,5
0,61,0,1
0,68,0,0
0,64,0,1
0,61,0,2
0,64,62,3
0,56,0,10
0,64,0,2
0,63,0,10
0,56,0,1
0,64,84,1
0,61,88,0
0,68,84,0
0,61,110,0
0,64,98,0
0,42,51,0
0,40,75,0
0,35,51,0
0,64,64,0
0,52,0,2
0,63,0,1
0,35,0,0
0,40,0,0
0,42,0,0
0,47,0,7
0,64,0,2
0,35,0,5
0,61,62,7
0,64,0,10
0,68,0,2
0,61,0,0
0,61,0,4
0,61,67,0
0,35,60,0
0,61,0,0
