track,note,velocity,time
0,61,100,1200
0,63,100,223
0,61,0,13
0,63,0,223
0,64,100,15
0,64,0,236
0,56,85,244
0,32,85,6
0,56,85,4
0,56,85,4
0,56,85,7
0,37,85,202
0,40,100,4
0,56,0,9
0,32,0,6
0,61,85,3
0,56,0,1
0,61,85,0
0,61,85,0
0,61,85,0
0,56,0,4
0,56,0,7
0,36,100,3
0,42,100,7
0,40,0,20
0,36,0,33
0,42,0,7
0,61,0,154
0,61,0,1
0,61,0,0
0,61,0,0
0,42,100,4
0,61,85,0
0,61,85,2
0,61,85,3
0,61,85,2
0,42,0,53
0,37,0,153
0,39,85,5
0,63,85,17
0,61,0,1
0,63,85,1
0,61,0,1
0,61,0,3
0,61,0,2
0,63,85,4
0,36,100,1
0,63,85,5
0,42,100,9
0,36,0,46
0,42,0,14
0,39,0,132
0,63,0,17
0,64,85,1
0,63,0,1
0,64,85,5
0,40,85,4
0,63,0,1
0,64,85,0
0,42,100,0
0,64,85,3
0,63,0,3
0,42,0,54
0,40,100,159
0,42,100,13
0,36,100,3
0,40,0,44
0,42,0,13
0,36,0,3
0,64,0,170
0,64,0,6
0,40,0,4
0,64,0,1
0,56,85,0
0,56,85,1
0,64,0,2
0,56,85,6
0,42,100,2
0,56,85,6
0,32,85,2
0,42,0,52
0,61,85,148
0,61,85,3
0,42,100,5
0,61,85,8
0,56,0,1
0,56,0,1
0,36,100,1
0,37,85,5
0,56,0,2
0,56,0,8
0,61,85,2
0,32,0,0
0,61,100,9
0,42,0,23
0,36,0,11
0,61,0,157
0,61,0,3
0,61,85,9
0,61,0,4
0,61,100,14
0,42,100,1
0,61,85,1
0,61,0,4
0,61,0,9
0,61,85,2
0,61,85,1
0,42,0,43
0,61,0,157
0,36,100,6
0,42,100,4
0,39,85,1
0,37,0,5
0,63,85,1
0,40,100,0
0,61,0,1
0,61,0,2
0,63,85,4
0,63,100,2
0,63,85,9
0,61,0,0
0,61,0,1
0,63,85,5
0,36,0,25
0,42,0,4
0,40,0,7
0,64,85,160
0,39,0,10
0,63,0,6
0,64,85,3
0,64,85,2
0,64,85,0
0,42,100,0
0,63,0,2
0,64,100,1
0,63,0,1
0,63,0,9
0,40,85,6
0,63,0,0
0,42,0,41
0,42,100,166
0,36,100,22
0,42,0,38
0,36,0,22
0,64,0,147
0,42,100,10
0,66,100,0
0,64,0,9
0,64,0,2
0,64,0,0
0,66,85,0
0,66,85,2
0,64,0,1
0,66,85,1
0,40,0,15
0,66,85,6
0,42,0,24
0,66,0,176
0,64,100,9
0,66,0,2
0,66,0,2
0,36,100,1
0,66,0,1
0,64,85,1
0,42,100,1
0,64,85,2
0,40,100,1
0,64,85,3
0,66,0,13
0,64,85,4
0,36,0,34
0,42,0,3
0,40,0,3
0,46,100,185
0,46,0,60
0,64,0,160
0,64,0,7
0,64,85,1
0,64,0,2
0,42,100,1
0,36,100,2
0,64,0,1
0,64,85,0
0,64,100,2
0,64,85,3
0,64,0,12
0,64,85,3
0,42,0,37
0,36,0,2
0,64,0,171
0,63,100,1
0,42,100,2
0,64,0,3
0,64,0,2
0,63,85,1
0,30,85,1
0,63,85,0
0,64,0,1
0,64,0,15
0,63,85,6
0,63,85,1
0,42,0,30
0,59,85,171
0,35,85,3
0,63,0,0
0,40,100,5
0,63,0,3
0,30,0,1
0,63,0,0
0,42,100,2
0,59,85,2
0,59,85,1
0,59,85,1
0,63,0,16
0,36,100,0
0,63,0,1
0,40,0,33
0,42,0,6
0,36,0,20
0,42,100,168
0,42,0,60
0,61,85,151
0,59,0,3
0,35,0,3
0,59,0,13
0,59,0,1
0,59,0,1
0,37,85,1
0,61,85,1
0,42,100,1
0,61,85,13
0,61,85,5
0,36,100,1
0,42,0,41
0,36,0,19
0,61,0,133
0,42,100,4
0,63,85,17
0,37,0,1
0,61,0,1
0,63,85,5
0,63,85,3
0,39,85,1
0,63,85,5
0,61,0,0
0,61,0,5
0,42,0,22
0,40,100,202
0,36,100,11
0,42,100,13
0,40,0,36
0,36,0,11
0,42,0,13
0,54,85,134
0,54,85,6
0,63,0,7
0,30,85,3
0,63,0,4
0,54,85,1
0,54,85,2
0,63,0,0
0,39,0,1
0,63,0,5
0,42,100,11
0,42,0,60
0,54,0,136
0,59,85,4
0,54,0,2
0,30,0,10
0,54,0,5
0,54,0,2
0,59,85,4
0,35,85,0
0,59,85,0
0,42,100,8
0,36,100,3
0,59,85,5
0,42,0,52
0,36,0,3
0,42,100,180
0,42,0,60
0,59,0,142
0,61,85,6
0,40,100,1
0,42,100,13
0,59,0,3
0,35,0,0
0,59,0,0
0,61,85,3
0,61,85,0
0,36,100,1
0,61,85,2
0,37,85,6
0,59,0,4
0,40,0,28
0,42,0,13
0,36,0,7
0,61,0,155
0,42,100,16
0,61,0,4
0,61,0,0
0,63,85,2
0,61,0,1
0,63,85,1
0,63,85,3
0,39,85,0
0,37,0,2
0,63,85,19
0,42,0,28
0,42,100,186
0,36,100,2
0,42,0,58
0,36,0,2
0,63,0,174
0,63,0,2
0,63,0,3
0,39,0,0
0,42,100,6
0,61,100,12
0,63,0,3
0,42,0,45
0,42,100,158
0,40,100,23
0,36,100,7
0,61,0,0
0,63,100,7
0,42,0,23
0,40,0,23
0,36,0,7
0,46,100,147
0,64,100,30
0,63,0,6
0,46,0,24
0,36,100,200
0,64,0,6
0,42,100,3
0,36,0,51
0,42,0,9
0,56,85,156
0,42,100,1
0,56,85,2
0,56,85,11
0,56,85,6
0,32,85,8
0,42,0,33
0,56,0,175
0,56,0,3
0,42,100,0
0,36,100,0
0,40,100,1
0,56,0,10
0,61,85,3
0,61,85,2
0,61,85,0
0,56,0,1
0,32,0,8
0,37,85,3
0,61,85,5
0,36,0,27
0,42,0,0
0,40,0,1
0,42,100,187
0,61,0,2
0,61,0,2
0,61,0,0
0,61,85,5
0,61,85,3
0,61,85,4
0,61,0,5
0,61,85,3
0,42,0,36
0,63,85,172
0,61,0,13
0,61,0,3
0,63,85,0
0,39,85,0
0,63,85,1
0,42,100,1
0,61,0,2
0,37,0,4
0,61,0,4
0,63,85,7
0,36,100,3
0,42,0,40
0,36,0,20
0,63,0,138
0,40,85,3
0,64,85,11
0,63,0,2
0,39,0,0
0,63,0,1
0,64,85,4
0,42,100,0
0,64,85,7
0,63,0,7
0,64,85,3
0,42,0,43
0,36,100,164
0,40,100,7
0,42,100,21
0,36,0,32
0,40,0,7
0,42,0,21
0,56,85,146
0,40,0,0
0,56,85,2
0,64,0,9
0,32,85,1
0,64,0,6
0,56,85,4
0,56,85,0
0,42,100,0
0,64,0,3
0,64,0,10
0,42,0,47
0,56,0,154
0,56,0,2
0,61,100,7
0,32,0,3
0,56,0,10
0,56,0,0
0,61,85,1
0,36,100,1
0,37,85,1
0,61,85,1
0,61,85,0
0,42,100,0
0,61,85,20
0,36,0,38
0,42,0,2
0,61,0,159
0,61,85,1
0,61,85,10
0,61,0,3
0,61,0,3
0,61,0,0
0,42,100,0
0,61,100,4
0,61,85,2
0,61,85,1
0,61,0,13
0,42,0,40
0,61,0,160
0,42,100,3
0,61,0,7
0,63,100,6
0,37,0,3
0,61,0,1
0,63,85,1
0,61,0,1
0,61,0,1
0,63,85,1
0,63,85,0
0,63,85,1
0,36,100,0
0,39,85,8
0,40,100,8
0,42,0,22
0,36,0,22
0,40,0,16
0,40,85,140
0,42,100,0
0,64,85,8
0,63,0,3
0,63,0,5
0,63,0,3
0,63,0,0
0,63,0,1
0,64,100,4
0,39,0,4
0,64,85,1
0,64,85,13
0,64,85,1
0,42,0,17
0,36,100,194
0,42,100,9
0,36,0,51
0,42,0,9
0,40,0,153
0,64,0,8
0,66,100,2
0,66,85,10
0,66,85,4
0,64,0,0
0,42,100,4
0,66,85,0
0,64,0,1
0,64,0,13
0,64,0,1
0,66,85,3
0,42,0,42
0,64,85,157
0,66,0,1
0,66,0,10
0,66,0,4
0,36,100,0
0,42,100,2
0,64,85,1
0,66,0,1
0,64,85,3
0,64,100,0
0,40,100,5
0,64,85,9
0,66,0,1
0,36,0,38
0,42,0,2
0,40,0,10
0,46,100,168
0,46,0,60
0,64,0,161
0,42,100,12
0,64,0,6
0,64,0,4
0,64,0,0
0,64,100,1
0,64,85,1
0,64,85,2
0,64,85,8
0,64,0,2
0,36,100,8
0,64,85,1
0,42,0,27
0,36,0,32
0,63,85,141
0,64,0,14
0,64,0,1
0,64,0,2
0,63,85,4
0,63,100,1
0,42,100,1
0,64,0,2
0,30,85,2
0,63,85,8
0,64,0,1
0,63,85,8
0,42,0,39
0,63,0,153
0,40,100,16
0,42,100,4
0,63,0,1
0,63,0,1
0,59,85,1
0,30,0,4
0,59,85,3
0,59,85,5
0,63,0,0
0,36,100,1
0,35,85,6
0,63,0,2
0,59,85,0
0,40,0,32
0,42,0,4
0,36,0,16
0,42,100,160
0,42,0,60
0,61,85,165
0,59,0,18
0,36,100,1
0,61,85,3
0,42,100,0
0,59,0,3
0,37,85,0
0,59,0,5
0,35,0,7
0,59,0,2
0,61,85,6
0,61,85,2
0,36,0,32
0,42,0,3
0,61,0,154
0,42,100,8
0,63,85,13
0,61,0,1
0,39,85,1
0,37,0,2
0,63,85,3
0,63,85,0
0,63,85,3
0,61,0,14
0,61,0,2
0,42,0,21
0,42,100,193
0,40,100,2
0,36,100,2
0,42,0,56
0,40,0,2
0,36,0,2
0,42,100,166
0,54,85,4
0,30,85,1
0,54,85,1
0,63,0,0
0,39,0,2
0,63,0,5
0,63,0,0
0,63,0,3
0,54,85,2
0,54,85,6
0,42,0,36
0,36,100,176
0,59,85,2
0,54,0,2
0,30,0,1
0,54,0,1
0,35,85,5
0,54,0,7
0,42,100,3
0,54,0,3
0,59,85,12
0,59,85,2
0,59,85,1
0,36,0,21
0,42,0,21
0,42,100,190
0,42,0,60
0,59,0,147
0,35,0,9
0,36,100,2
0,37,85,1
0,61,85,5
0,61,85,4
0,42,100,2
0,61,85,0
0,40,100,6
0,61,85,4
0,59,0,1
0,59,0,2
0,59,0,1
0,36,0,34
0,42,0,12
0,40,0,6
0,37,0,159
0,61,0,5
0,42,100,3
0,61,0,1
0,61,0,2
0,63,85,3
0,63,85,1
0,63,85,2
0,61,0,4
0,63,85,3
0,39,85,0
0,42,0,44
0,36,100,163
0,42,100,24
0,36,0,36
0,42,0,24
0,63,0,175
0,63,0,1
0,63,0,2
0,42,100,0
0,63,0,7
0,39,0,0
0,61,100,6
0,42,0,47
0,42,100,164
0,36,100,6
0,63,100,16
0,61,0,3
0,40,100,12
0,42,0,23
0,36,0,6
0,40,0,31
0,46,100,152
0,63,0,9
0,64,100,0
0,46,0,51
0,64,0,185
0,42,85,2
0,42,100,0
0,36,100,0
0,36,0,60
0,42,0,0
0,42,100,160
0,42,85,1
0,42,0,13
0,42,0,46
0,42,0,177
0,42,100,6
0,73,85,10
0,70,85,5
0,40,100,1
0,42,85,13
0,36,100,12
0,42,0,19
0,40,0,16
0,36,0,25
0,42,85,137
0,42,100,19
0,42,0,8
0,42,0,52
0,42,0,157
0,71,85,8
0,73,0,4
0,70,0,5
0,75,85,1
0,36,100,5
0,42,85,9
0,42,100,11
0,36,0,40
0,42,0,20
0,71,0,141
0,75,0,10
0,73,85,8
0,42,100,1
0,42,0,5
0,76,85,6
0,42,85,7
0,42,0,42
0,36,100,159
0,42,85,9
0,40,100,1
0,42,100,11
0,42,0,14
0,36,0,25
0,40,0,10
0,42,0,11
0,42,0,164
0,42,85,5
0,42,100,2
0,42,0,60
0,42,0,174
0,42,100,8
0,73,0,2
0,36,100,3
0,73,85,1
0,42,85,1
0,70,85,2
0,76,0,5
0,42,0,46
0,36,0,5
0,42,0,178
0,42,100,4
0,42,85,10
0,42,0,50
0,73,0,175
0,70,0,3
0,42,85,1
0,75,85,1
0,36,100,1
0,42,100,3
0,42,0,2
0,71,85,1
0,40,100,8
0,36,0,46
0,42,0,3
0,40,0,11
0,42,0,160
0,75,0,1
0,42,100,3
0,76,85,1
0,71,0,3
0,42,85,6
0,73,85,1
0,42,0,49
0,42,85,181
0,42,100,0
0,42,0,5
0,36,100,0
0,42,0,55
0,36,0,5
0,42,85,153
0,76,0,18
0,42,0,0
0,78,85,7
0,73,0,3
0,75,85,2
0,42,100,14
0,42,0,60
0,42,0,132
0,75,85,17
0,78,0,8
0,78,85,1
0,42,85,0
0,40,100,0
0,36,100,0
0,75,0,4
0,42,100,8
0,36,0,48
0,40,0,0
0,42,0,12
0,46,100,162
0,42,0,2
0,42,85,8
0,46,0,50
0,36,100,169
0,42,100,3
0,75,0,1
0,78,0,9
0,42,0,4
0,42,85,20
0,36,0,23
0,42,0,3
0,42,100,181
0,42,85,17
0,42,0,12
0,42,0,31
0,36,100,170
0,73,85,2
0,70,85,21
0,42,0,0
0,42,100,0
0,42,85,14
0,40,100,0
0,36,0,23
0,42,0,23
0,40,0,14
0,42,85,162
0,42,100,0
0,42,0,14
0,42,0,46
0,73,0,159
0,75,85,16
0,42,0,1
0,70,0,4
0,71,85,2
0,42,85,2
0,36,100,2
0,42,100,12
0,36,0,48
0,42,0,12
0,73,85,149
0,75,0,4
0,42,85,2
0,71,0,5
0,42,100,0
0,42,0,2
0,76,85,23
0,42,0,35
0,42,0,171
0,36,100,11
0,40,100,4
0,42,100,1
0,42,85,7
0,36,0,48
0,40,0,4
0,42,0,1
0,42,0,183
0,42,100,4
0,42,85,3
0,42,0,57
0,73,0,151
0,42,85,13
0,36,100,5
0,71,85,3
0,75,85,5
0,42,0,2
0,76,0,8
0,42,100,5
0,36,0,37
0,42,0,23
0,42,0,148
0,42,85,6
0,42,100,6
0,42,0,60
0,42,0,170
0,42,85,7
0,42,100,3
0,36,100,0
0,40,100,5
0,36,0,55
0,42,0,0
0,40,0,5
0,42,100,166
0,42,0,2
0,42,85,7
0,42,0,51
0,70,85,178
0,42,85,4
0,42,100,1
0,71,0,2
0,73,85,0
0,42,0,0
0,75,0,5
0,36,100,2
0,42,0,51
0,36,0,9
0,40,100,153
0,42,0,13
0,42,85,12
0,36,100,2
0,42,100,0
0,40,0,33
0,42,0,27
0,36,0,0
0,42,0,174
0,42,100,0
0,36,100,11
0,42,85,10
0,40,100,0
0,42,0,39
0,36,0,11
0,40,0,10
0,40,100,149
0,42,85,2
0,36,100,6
0,46,100,11
0,42,0,8
0,40,0,33
0,36,0,8
0,46,0,11
0,66,85,154
0,66,85,1
0,35,85,0
0,70,0,4
0,42,0,0
0,63,85,4
0,73,85,0
0,42,100,0
0,73,0,1
0,63,85,0
0,66,85,1
0,63,85,0
0,73,85,1
0,66,85,1
0,36,100,2
0,73,85,2
0,73,85,0
0,63,85,6
0,73,85,5
0,42,0,40
0,36,0,6
0,42,100,162
0,42,0,60
0,66,0,177
0,66,0,1
0,35,0,0
0,71,85,7
0,63,0,1
0,73,0,2
0,63,0,1
0,66,0,1
0,63,0,0
0,73,0,1
0,63,85,1
0,66,0,0
0,71,85,4
0,73,0,0
0,73,0,1
0,35,85,2
0,71,85,1
0,63,85,0
0,66,85,1
0,36,100,0
0,66,85,0
0,71,85,1
0,63,0,1
0,66,85,0
0,63,85,1
0,66,85,2
0,40,100,0
0,71,85,0
0,73,0,1
0,42,100,1
0,63,85,14
0,36,0,38
0,40,0,5
0,42,0,3
0,42,100,172
0,42,0,60
0,71,0,160
0,63,0,7
0,71,0,4
0,35,0,3
0,71,0,1
0,63,0,0
0,66,0,1
0,66,0,0
0,71,0,1
0,66,0,1
0,63,0,1
0,42,100,1
0,36,100,0
0,66,0,1
0,71,0,1
0,35,85,1
0,63,0,15
0,36,0,42
0,42,0,0
0,42,100,156
0,70,85,22
0,70,85,1
0,70,85,0
0,70,85,0
0,70,85,0
0,42,0,36
0,63,85,189
0,66,85,1
0,66,85,1
0,70,0,7
0,63,85,1
0,70,0,0
0,70,0,1
0,70,0,0
0,70,0,0
0,66,85,1
0,71,85,1
0,35,0,1
0,71,85,1
0,35,85,0
