track,note,velocity,time
0,28,101,229
0,40,116,1
0,40,116,4
0,40,92,0
0,40,0,18
0,40,0,5
0,40,0,1
0,28,0,1
0,28,95,15
0,40,119,2
0,40,89,5
0,40,119,0
0,40,0,17
0,40,0,5
0,40,0,4
0,28,0,1
0,28,101,16
0,40,116,0
0,40,89,3
0,40,116,2
0,40,0,18
0,40,0,5
0,40,0,2
0,28,0,1
0,28,105,17
0,40,119,0
0,40,89,3
0,40,119,2
0,40,0,17
0,40,0,5
0,28,0,1
0,40,0,3
0,40,122,16
0,28,108,1
0,40,89,3
0,40,122,1
0,40,0,16
0,40,0,5
0,28,0,3
0,40,0,1
0,40,124,19
0,28,108,0
0,40,89,4
0,40,124,1
0,40,0,15
0,40,0,5
0,28,0,1
0,40,0,1
0,40,122,20
0,28,108,1
0,40,89,3
0,40,122,1
0,40,0,18
0,40,0,5
0,40,0,0
0,28,0,20
0,38,114,0
0,26,105,1
0,38,81,3
0,38,114,1
0,38,0,16
0,39,107,2
0,26,0,1
0,27,105,1
0,38,0,1
0,38,0,1
0,39,107,1
0,39,79,0
0,39,0,12
0,39,0,5
0,39,0,0
0,27,0,1
0,28,108,1
0,40,119,0
0,40,89,5
0,40,119,0
0,40,0,20
0,28,0,3
0,40,0,2
0,40,0,2
0,40,116,16
0,28,119,0
0,40,116,5
0,40,86,0
0,40,0,20
0,40,0,5
0,40,0,0
0,28,0,1
0,28,98,17
0,40,119,0
0,40,119,5
0,40,81,0
0,40,0,18
0,40,0,5
0,28,0,2
0,40,0,1
0,40,119,17
0,28,105,1
0,40,119,4
0,40,92,0
0,40,0,20
0,40,0,5
0,28,0,1
0,40,0,1
0,40,119,16
0,28,101,1
0,40,89,4
0,40,119,0
0,40,0,18
0,40,0,5
0,28,0,3
0,40,0,1
0,40,119,16
0,28,105,2
0,40,119,3
0,40,89,0
0,40,0,19
0,28,0,4
0,40,0,1
0,40,0,0
0,40,119,19
0,28,108,1
0,40,94,4
0,40,119,0
0,40,0,19
0,40,0,5
0,40,0,0
0,28,0,16
0,26,101,3
0,38,114,0
0,38,114,5
0,38,84,0
0,38,0,18
0,26,0,0
0,27,98,1
0,39,103,0
0,38,0,4
0,38,0,1
0,39,103,0
0,39,79,0
0,39,0,11
0,39,0,5
0,27,0,1
0,28,108,1
0,39,0,1
0,40,119,0
0,40,119,5
0,40,86,0
0,40,0,22
0,28,0,2
0,40,0,3
0,40,0,1
0,28,114,15
0,40,116,0
0,40,116,5
0,40,86,0
0,40,0,20
0,40,0,5
0,28,0,1
0,40,0,0
0,40,119,17
0,28,108,0
0,40,119,5
0,40,86,0
0,40,0,18
0,40,0,5
0,28,0,3
0,40,0,1
0,40,116,16
0,28,105,2
0,40,116,3
0,40,89,0
0,40,0,20
0,40,0,5
0,28,0,1
0,40,0,0
0,40,119,17
0,28,108,2
0,40,89,3
0,40,119,0
0,40,0,20
0,28,0,3
0,40,0,2
0,40,0,0
0,40,116,18
0,28,105,2
0,40,89,3
0,40,116,0
0,40,0,19
0,28,0,3
0,40,0,2
0,40,0,1
0,40,122,18
0,28,108,2
0,40,122,3
0,40,89,0
0,40,0,21
0,40,0,5
0,40,0,2
0,28,0,7
0,38,111,9
0,26,105,1
0,38,79,3
0,38,111,1
0,26,0,17
0,38,0,0
0,27,92,1
0,39,106,0
0,38,0,2
0,38,0,2
0,39,106,1
0,39,76,0
0,39,0,12
0,39,0,5
0,27,0,1
0,39,0,1
0,28,108,0
0,40,119,0
0,40,86,5
0,40,119,0
0,40,0,22
0,28,0,0
0,40,0,4
0,40,0,1
0,28,114,16
0,40,116,2
0,40,86,3
0,40,116,2
0,40,0,18
0,28,0,3
0,40,0,1
0,40,0,1
0,28,108,18
0,40,119,2
0,40,92,3
0,40,119,2
0,40,0,18
0,40,0,5
0,40,0,1
0,28,0,8
0,26,114,10
0,38,119,1
0,38,86,3
0,38,119,2
0,38,0,21
0,26,0,4
0,38,0,1
0,38,0,2
0,40,116,13
0,28,108,0
0,40,86,5
0,40,116,0
0,40,0,19
0,40,0,5
0,40,0,1
0,28,0,17
0,38,116,1
0,26,114,0
0,40,107,1
0,40,0,1
0,38,116,3
0,38,86,0
0,38,0,20
0,38,0,5
0,38,0,2
0,26,0,14
0,28,114,2
0,40,116,0
0,40,118,1
0,35,112,0
0,35,0,1
0,40,0,0
0,40,89,3
0,40,116,0
0,40,0,19
0,40,0,5
0,40,0,3
0,38,114,16
0,28,0,1
0,40,118,0
0,40,0,1
0,26,105,0
0,38,114,3
0,38,81,0
0,38,0,17
0,26,0,3
0,40,122,0
0,39,109,0
0,40,0,1
0,27,105,0
0,38,0,1
0,38,0,1
0,39,79,1
0,39,109,1
0,39,0,12
0,39,0,4
0,39,0,1
0,27,0,2
0,42,63,0
0,35,122,0
0,35,0,1
0,42,0,0
0,40,119,0
0,28,105,0
0,40,89,3
0,40,119,2
0,40,0,17
0,42,46,0
0,42,0,1
0,40,0,4
0,40,0,3
0,28,0,1
0,42,46,15
0,42,0,1
0,28,105,1
0,40,119,0
0,40,86,3
0,40,119,2
0,40,0,17
0,42,56,0
0,42,0,1
0,40,0,4
0,40,0,2
0,28,0,2
0,40,118,16
0,35,122,0
0,35,0,1
0,40,0,0
0,28,101,0
0,42,72,0
0,40,116,0
0,42,0,1
0,40,89,2
0,40,116,2
0,40,0,18
0,42,42,1
0,42,0,1
0,40,0,3
0,28,0,1
0,40,0,1
0,40,119,18
0,28,108,0
0,42,48,0
0,42,0,1
0,40,89,3
0,40,119,1
0,40,0,17
0,42,50,2
0,42,0,1
0,40,0,2
0,40,0,2
0,28,0,0
0,35,118,18
0,35,0,1
0,42,59,0
0,28,98,0
0,40,122,0
0,42,0,1
0,40,86,3
0,40,122,1
0,40,0,18
0,42,56,1
0,42,0,1
0,40,0,3
0,40,0,1
0,28,0,1
0,40,116,16
0,42,48,2
0,28,105,0
0,42,0,1
0,40,116,2
0,40,89,0
0,40,0,18
0,42,56,3
0,42,0,1
0,40,0,1
0,28,0,1
0,40,0,0
0,40,119,19
0,35,112,1
0,40,122,0
0,40,0,1
0,35,0,0
0,42,59,0
0,28,108,0
0,42,0,1
0,40,119,2
0,40,86,0
0,40,0,21
0,42,48,0
0,42,0,1
0,40,0,4
0,40,0,0
0,28,0,6
0,26,108,11
0,46,78,0
0,38,114,0
0,46,0,1
0,38,114,4
0,38,84,0
0,38,0,15
0,26,0,3
0,27,98,1
0,39,109,0
0,38,0,1
0,39,77,4
0,39,109,0
0,38,0,2
0,39,0,12
0,39,0,3
0,39,0,2
0,40,116,0
0,27,0,1
0,35,118,0
0,35,0,1
0,42,63,0
0,28,108,0
0,42,0,1
0,40,116,2
0,40,86,0
0,42,50,21
0,42,0,1
0,40,0,0
0,28,0,4
0,40,0,1
0,40,0,0
0,42,56,16
0,40,111,0
0,42,0,1
0,28,108,1
0,40,86,3
0,40,111,0
0,40,0,20
0,42,50,1
0,42,0,1
0,40,0,3
0,40,0,1
0,28,0,3
0,40,116,14
0,40,118,1
0,35,112,0
0,35,0,1
0,40,0,0
0,28,105,0
0,42,59,0
0,42,0,1
0,40,79,2
0,40,116,0
0,40,0,19
0,42,48,2
0,42,0,1
0,40,0,2
0,40,0,2
0,28,0,0
0,40,116,17
0,42,56,0
0,42,0,1
0,28,108,1
0,40,116,3
0,40,86,0
0,40,0,18
0,42,46,1
0,42,0,1
0,40,0,3
0,28,0,3
0,40,0,2
0,40,116,15
0,42,63,0
0,42,0,1
0,35,112,0
0,35,0,1
0,28,105,0
0,40,116,3
0,40,92,1
0,40,0,18
0,42,46,2
0,42,0,1
0,40,0,2
0,28,0,2
0,40,0,0
0,42,50,17
0,40,119,0
0,42,0,1
0,28,101,0
0,40,119,4
0,40,89,1
0,40,0,18
0,42,48,1
0,42,0,1
0,28,0,2
0,40,0,1
0,40,0,1
0,28,114,18
0,40,119,0
0,42,59,0
0,42,0,1
0,35,118,0
0,40,118,0
0,40,0,1
0,35,0,0
0,40,86,3
0,40,119,0
0,40,0,18
0,42,50,2
0,42,0,1
0,40,0,2
0,40,0,3
0,28,0,16
0,42,50,1
0,26,98,0
0,38,111,0
0,42,0,1
0,38,81,4
0,38,111,0
0,38,0,17
0,26,0,1
0,27,98,1
0,39,109,0
0,42,50,2
0,42,0,1
0,38,0,0
0,38,0,2
0,39,109,0
0,39,79,0
0,39,0,11
0,39,0,5
0,27,0,3
0,39,0,0
0,40,119,0
0,35,118,1
0,28,108,0
0,35,0,1
0,42,59,0
0,42,0,1
0,40,119,2
0,40,89,0
0,40,0,20
0,42,50,1
0,42,0,1
0,40,0,3
0,40,0,0
0,28,0,8
0,40,111,10
0,42,50,0
0,42,0,1
0,28,105,1
0,40,86,3
0,40,111,0
0,40,0,20
0,42,63,0
0,42,0,1
0,40,0,3
0,28,0,1
0,40,0,0
0,40,116,18
0,40,122,1
0,35,112,0
0,35,0,1
0,40,0,0
0,42,59,0
0,28,108,0
0,42,0,1
0,40,116,2
0,40,86,0
0,40,0,19
0,42,48,2
0,42,0,1
0,40,0,2
0,40,0,0
0,28,0,1
0,40,114,18
0,42,56,0
0,42,0,1
0,28,101,1
0,40,114,3
0,40,89,0
0,40,0,19
0,42,59,1
0,42,0,1
0,40,0,3
0,40,0,1
0,28,0,1
0,40,114,17
0,35,107,1
0,35,0,1
0,28,101,0
0,42,72,0
0,42,0,1
0,40,86,2
0,40,114,0
0,40,0,19
0,42,50,2
0,42,0,1
0,40,0,2
0,40,0,1
0,28,0,0
0,40,116,18
0,42,56,0
0,42,0,1
0,28,101,1
0,40,89,3
0,40,116,0
0,40,0,17
0,42,56,3
0,42,0,1
0,40,0,1
0,28,0,0
0,40,0,1
0,40,116,20
0,40,125,1
0,35,112,0
0,35,0,1
0,40,0,0
0,42,59,0
0,28,108,0
0,42,0,1
0,40,89,2
0,40,116,0
0,40,0,21
0,42,42,0
0,42,0,1
0,40,0,4
0,40,0,0
0,38,107,17
0,28,0,1
0,45,69,0
0,45,0,1
0,26,105,0
0,38,79,3
0,38,107,0
0,38,0,16
0,39,106,3
0,26,0,1
0,45,73,0
0,45,0,1
0,38,0,0
0,27,98,0
0,38,0,1
0,39,79,2
0,39,106,0
0,39,0,9
0,39,0,5
0,39,0,4
0,40,114,1
0,27,0,1
0,45,98,0
0,42,63,0
0,35,107,0
0,35,0,1
0,42,0,0
0,45,0,0
0,28,108,0
0,40,114,3
0,40,86,0
0,40,0,17
0,42,50,4
0,42,0,1
0,40,0,0
0,28,0,1
0,40,0,2
0,40,111,18
0,42,56,2
0,28,114,0
0,42,0,1
0,40,111,2
0,40,86,0
0,40,0,17
0,42,50,4
0,42,0,1
0,40,0,0
0,40,0,2
0,28,0,1
0,40,116,18
0,35,118,1
0,40,122,0
0,40,0,1
0,35,0,0
0,42,59,0
0,28,108,0
0,42,0,1
0,40,116,2
0,40,89,0
0,40,0,19
0,42,36,2
0,42,0,1
0,40,0,2
0,40,0,2
0,28,0,12
0,42,56,5
0,38,114,0
0,42,0,1
0,26,108,1
0,38,114,3
0,38,81,0
0,38,0,19
0,42,50,0
0,42,0,1
0,38,0,4
0,38,0,5
0,26,0,4
0,40,116,10
0,28,108,0
0,35,112,1
0,35,0,1
0,49,89,0
0,49,0,1
0,40,116,2
0,40,86,0
0,40,0,18
0,40,0,5
0,40,0,4
0,40,107,12
0,40,0,1
0,28,0,2
0,38,116,1
0,26,108,0
0,40,121,2
0,40,0,1
0,38,116,2
0,38,84,0
0,38,0,18
0,38,0,5
0,26,0,2
0,38,0,2
0,40,106,11
0,40,0,1
0,40,116,4
0,35,107,1
0,28,114,0
0,35,0,1
0,40,122,0
0,40,0,1
0,40,116,2
0,40,86,0
0,40,0,17
0,40,0,5
0,40,0,1
0,28,0,19
0,40,121,0
0,40,0,1
0,38,109,0
0,26,108,0
0,38,79,5
0,38,109,0
0,38,0,15
0,38,0,4
0,39,107,0
0,26,0,1
0,38,0,0
0,27,101,1
0,39,77,3
0,39,107,0
0,39,0,8
0,39,0,5
0,39,0,1
0,40,116,5
0,27,0,1
0,49,80,0
0,35,112,0
0,35,0,1
0,49,0,0
0,28,108,0
0,40,116,3
0,40,92,0
0,40,0,20
0,40,0,5
0,28,0,2
0,40,0,1
0,40,112,16
0,28,108,1
0,40,84,3
0,40,112,1
0,40,0,19
0,40,0,5
0,40,0,1
0,28,0,0
0,47,85,15
0,40,82,0
0,40,109,2
0,40,118,0
0,35,112,0
0,59,104,0
0,52,104,0
0,59,95,0
0,56,109,0
0,35,0,1
0,40,0,0
0,42,72,0
0,28,108,0
0,42,0,1
0,64,96,0
0,68,93,1
0,40,81,1
0,40,109,1
0,40,0,18
0,47,0,2
0,40,0,0
0,42,42,0
0,42,0,1
0,40,0,2
0,40,0,2
0,28,0,2
0,52,0,3
0,56,0,1
0,59,0,2
0,68,0,5
0,59,0,1
0,49,95,1
0,40,68,0
0,61,91,1
0,40,107,1
0,57,91,1
0,52,91,0
0,61,92,0
0,64,0,1
0,42,48,0
0,28,105,0
0,42,0,1
0,64,93,0
0,69,92,1
0,40,107,1
0,40,79,0
0,40,0,19
0,49,0,2
0,42,50,0
0,42,0,1
0,40,0,1
0,40,0,1
0,40,0,0
0,52,0,3
0,28,0,1
0,61,0,2
0,57,0,2
0,69,0,0
0,61,0,5
0,47,95,5
0,40,73,0
0,64,0,1
0,40,109,0
0,59,71,1
0,56,98,0
0,64,95,0
0,52,95,0
0,59,104,0
0,35,112,0
0,35,0,1
0,42,59,0
0,28,114,0
0,42,0,1
0,68,95,0
0,40,109,2
0,40,76,0
0,40,0,17
0,40,0,2
0,42,56,2
0,42,0,1
0,40,0,2
0,47,0,0
0,40,0,0
0,56,0,2
0,52,0,1
0,28,0,2
0,59,0,2
0,47,73,10
0,40,85,1
0,59,0,1
0,56,80,0
0,59,92,1
0,59,85,0
0,52,88,0
0,40,106,0
0,64,0,1
0,42,48,0
0,28,101,0
0,42,0,1
0,68,0,1
0,64,87,0
0,40,73,1
0,40,106,1
0,40,0,16
0,59,0,1
0,40,0,1
0,42,56,2
0,42,0,1
0,40,0,0
0,28,0,1
0,40,0,1
0,47,0,1
0,56,0,0
0,52,0,0
0,64,0,5
0,59,0,3
0,47,76,9
0,40,76,0
0,40,103,1
0,52,98,1
0,35,107,0
0,56,88,0
0,40,122,0
0,59,88,0
0,40,0,1
0,35,0,0
0,42,59,0
0,28,108,0
0,42,0,1
0,40,72,2
0,40,103,0
0,40,0,18
0,40,0,0
0,47,0,2
0,59,0,1
0,42,48,0
0,42,0,1
0,52,0,0
0,56,0,1
0,40,0,0
0,40,0,0
0,38,93,20
0,46,78,0
0,52,85,0
0,59,95,0
0,46,0,1
0,28,0,0
0,47,88,0
0,40,85,0
0,56,104,0
0,26,105,1
0,59,96,1
0,64,95,0
0,38,63,2
0,38,93,0
0,68,89,0
0,40,0,13
0,38,0,1
0,38,0,5
0,39,89,0
0,26,0,1
0,47,0,1
0,27,101,0
0,38,0,1
0,56,0,0
0,39,60,2
0,39,89,0
0,52,0,2
0,59,0,0
0,39,0,5
0,39,0,5
0,39,0,2
0,59,91,4
0,47,71,0
0,56,82,1
0,40,96,0
0,52,88,0
0,27,0,1
0,40,78,0
0,35,102,0
0,35,0,1
0,42,63,0
0,28,108,0
0,42,0,1
0,40,96,2
0,40,65,0
0,52,0,14
0,56,0,3
0,59,0,1
0,47,0,1
0,42,50,2
0,42,0,1
0,40,0,0
0,40,0,1
0,28,0,1
0,40,0,2
0,40,0,2
0,64,0,11
0,59,0,2
0,68,0,0
0,52,104,1
0,61,109,0
0,40,66,0
0,57,114,0
0,49,104,0
0,42,56,1
0,40,89,0
0,42,0,1
0,28,108,0
0,61,77,1
0,40,89,3
0,40,62,0
0,64,88,0
0,69,84,1
0,49,0,15
0,40,0,5
0,40,0,0
0,42,50,0
0,42,0,1
0,28,0,2
0,40,0,1
0,52,0,1
0,40,0,0
0,57,0,0
