track,note,velocity,time
1,35,111,5758
1,28,95,0
1,40,99,1326
1,35,95,1518
1,28,91,2
1,40,75,1696
1,42,95,0
1,40,91,160
1,37,83,0
1,35,95,0
1,37,103,384
1,33,107,50
1,33,95,64
1,32,95,190
1,30,91,32
1,35,91,1536
1,35,83,80
1,33,115,50
1,33,91,112
1,35,95,196
1,28,99,16
1,30,99,770
1,32,95,718
1,35,95,16
1,33,111,774
1,33,87,66
1,35,95,0
1,32,91,0
1,28,99,18
1,30,95,576
1,32,95,0
1,33,99,382
1,33,83,78
1,33,107,100
1,32,99,1534
1,37,103,0
1,33,111,0
1,32,103,766
1,30,107,752
1,28,107,48
1,38,115,194
1,37,95,718
1,35,95,752
1,33,119,4
1,33,83,146
1,35,95,112
1,28,99,36
1,30,103,764
1,32,103,736
1,35,91,736
1,34,83,32
1,33,115,8
1,33,87,80
1,35,99,114
1,33,75,1342
1,32,107,34
1,32,71,66
1,30,79,4
1,28,111,2
1,30,111,578
1,32,103,32
1,33,123,16
1,33,63,110
1,33,103,168
1,45,71,52
1,45,75,352
1,33,95,192
1,32,99,48
1,32,91,100
1,35,83,190
1,37,99,16
1,32,99,962
1,25,95,18
1,32,95,190
1,33,123,178
1,32,103,18
1,30,107,0
1,28,103,18
1,26,107,20
1,38,111,6
1,38,99,98
1,37,87,192
1,35,115,178
1,42,95,18
1,44,91,30
1,42,95,20
1,30,115,2
1,28,111,36
1,28,99,86
1,30,99,0
1,32,119,196
1,44,107,50
1,32,91,190
1,33,99,18
1,45,107,386
1,33,115,6
1,33,115,84
1,35,115,772
1,47,115,16
1,42,99,2
1,40,95,22
1,28,107,20
1,28,111,80
1,30,107,0
1,32,119,194
1,44,95,0
1,32,103,34
1,33,95,2
1,40,75,580
1,45,115,2
1,40,75,0
1,33,95,2
1,32,107,56
1,44,99,568
1,36,115,182
1,37,115,736
1,49,103,36
1,44,99,190
1,37,103,162
1,37,99,96
1,25,107,576
1,37,107,50
1,32,99,48
1,44,107,576
1,44,95,98
1,32,107,18
1,33,103,390
1,45,103,2
1,33,103,2
1,32,91,0
1,30,115,198
1,42,87,46
1,30,115,2
1,28,111,36
1,40,115,1146
1,26,119,34
1,38,119,18
1,26,115,18
1,35,103,50
1,35,99,32
1,44,99,96
1,42,83,0
1,42,107,162
1,40,99,38
1,35,95,16
1,28,115,16
1,30,99,768
1,32,119,164
1,44,115,32
1,32,111,386
1,33,99,18
1,45,115,0
1,40,91,38
1,33,87,2
1,35,107,196
1,35,103,96
1,23,107,16
1,28,107,2
1,28,103,66
1,30,103,192
1,32,115,158
1,44,111,18
1,32,95,18
1,35,87,2
1,33,115,2
1,40,75,14
1,45,119,2
1,33,91,2
1,32,103,52
1,39,99,18
1,36,111,0
1,37,111,34
1,44,99,960
1,49,103,48
1,37,95,210
1,37,103,112
1,44,87,14
1,37,103,208
1,32,107,16
1,40,87,384
1,44,111,16
1,32,111,14
1,33,127,384
1,32,115,2484
1,30,107,34
1,42,95,20
1,30,95,188
1,35,107,388
1,28,103,80
1,28,83,126
1,35,83,196
1,40,87,2
1,33,111,18
1,35,107,1566
1,28,107,36
1,35,87,2078
1,37,83,2
1,40,95,2
1,40,87,62
1,28,111,18
1,40,83,14
1,42,91,16
1,40,91,158
1,37,83,2
1,35,95,0
1,37,91,34
1,28,103,352
1,47,63,1714
1,52,47,178
1,57,51,158
1,56,39,176
1,57,47,178
1,57,47,46
1,59,39,4
1,59,47,34
1,28,99,12
1,57,63,32
1,59,47,0
1,57,63,238
1,56,43,0
1,54,47,300
1,52,35,320
1,51,31,370
1,47,35,498
1,28,40,68
2,56,75,0
2,59,39,192
2,64,43,190
2,59,35,174
2,52,71,16
2,56,31,192
2,59,39,194
2,54,71,16
2,57,23,384
2,59,39,30
2,64,47,0
2,59,39,194
2,57,55,192
2,59,39,178
2,64,47,2
2,56,55,112
2,64,51,144
2,59,39,192
2,57,63,144
2,64,39,96
2,56,51,112
2,64,35,112
2,54,59,126
2,57,43,384
2,59,35,192
2,64,51,0
2,59,39,192
2,57,51,192
2,59,35,178
2,64,43,0
2,56,71,102
2,59,47,188
2,64,43,130
2,59,35,176
2,52,71,32
2,56,31,190
2,59,35,192
2,54,67,16
2,57,35,382
2,59,35,14
2,64,47,0
2,59,47,192
2,57,55,0
2,59,39,192
2,64,47,158
2,56,55,128
2,64,51,144
2,59,35,192
2,57,71,128
2,64,35,110
2,56,43,30
2,64,35,112
2,54,59,130
2,57,51,384
2,59,47,192
2,64,55,16
2,57,59,366
2,59,39,176
2,64,59,194
2,52,67,34
2,57,39,176
2,61,51,192
2,59,75,112
2,52,15,338
2,57,31,196
2,59,15,144
2,52,51,98
2,56,35,144
2,59,39,194
2,64,67,0
2,56,27,114
2,59,39,192
2,54,51,0
2,57,39,176
2,59,47,194
2,64,67,0
2,59,15,374
2,57,7,16
2,64,27,2
2,69,23,114
2,71,23,2
2,63,51,0
2,69,43,112
2,71,35,0
2,61,51,16
2,69,47,128
2,71,43,2
2,59,51,16
2,71,11,64
2,69,43,0
2,59,75,32
2,57,43,0
2,59,67,192
2,52,15,162
2,57,47,192
2,59,27,0
2,63,39,0
2,57,23,0
2,54,23,126
2,59,19,194
2,63,47,162
2,54,3,336
2,59,7,192
2,54,3,174
2,64,63,34
2,63,35,50
2,59,47,144
2,64,51,2
2,63,31,82
2,59,23,162
2,64,67,32
2,63,23,82
2,59,23,2
2,64,67,98
2,63,39,128
2,59,27,2
2,64,31,6
2,52,7,188
2,57,47,190
2,59,75,194
2,52,11,128
2,57,43,192
2,59,39,116
2,63,43,0
2,54,3,192
2,59,15,192
2,66,63,112
2,54,7,114
2,59,23,194
2,63,51,66
2,54,23,114
2,66,47,64
2,56,11,160
2,59,19,192
2,64,63,34
2,56,27,318
2,63,31,0
2,64,43,64
2,56,39,192
2,57,71,384
2,64,55,322
2,59,51,66
2,64,39,114
2,57,47,112
2,52,15,192
2,57,23,146
2,59,67,0
2,52,3,144
2,57,39,194
2,59,39,158
2,57,11,6
2,63,51,2
2,54,7,190
2,59,31,194
2,63,63,128
2,54,31,174
2,59,11,194
2,54,11,144
2,66,59,176
2,59,19,368
2,64,63,4
2,56,23,270
2,63,51,16
2,56,19,144
2,64,47,16
2,56,27,128
2,61,55,2
2,52,35,36
2,56,43,192
2,61,51,188
2,52,19,114
2,61,63,18
2,52,7,160
2,57,15,192
2,64,55,16
2,52,23,338
2,57,39,0
2,52,19,196
2,61,67,132
2,54,11,174
2,57,31,196
2,64,67,94
2,54,31,128
2,57,47,192
2,61,59,68
2,54,27,128
2,57,31,32
2,62,71,20
2,54,15,160
2,57,27,192
2,62,79,128
2,54,15,128
2,57,39,192
2,54,31,162
2,64,59,18
2,54,35,144
2,57,39,194
2,64,51,148
2,63,55,188
2,54,43,98
2,57,51,190
2,59,59,0
2,59,75,70
2,52,23,188
2,57,59,192
2,61,75,176
2,52,35,128
2,57,59,192
2,59,71,16
2,52,35,164
2,63,51,16
2,54,15,174
2,59,35,2
2,66,63,188
2,54,43,146
2,59,51,190
2,63,71,116
2,59,43,160
2,52,63,4
2,64,59,172
2,63,55,210
2,59,51,160
2,54,67,112
2,64,43,128
2,63,51,190
2,59,51,162
2,56,67,112
2,64,51,150
2,63,51,192
2,59,47,178
2,59,59,64
2,64,63,194
2,63,59,160
2,59,47,162
2,61,59,180
2,52,31,178
2,57,51,190
2,59,71,110
2,52,3,146
2,57,59,176
2,61,67,148
2,52,35,142
2,63,51,34
2,54,27,172
2,59,47,194
2,61,71,156
2,54,23,150
2,59,47,186
2,63,67,2
2,54,43,140
2,59,67,146
2,54,43,112
2,56,39,192
2,59,51,176
2,54,35,130
2,56,39,190
2,59,51,164
2,52,39,162
2,56,63,98
2,52,39,0
2,64,75,4
2,64,31,64
2,57,75,2
2,54,59,18
2,56,63,34
2,64,55,0
2,59,71,14
2,61,59,0
2,52,39,196
2,57,47,188
2,59,67,68
2,52,31,130
2,57,67,196
2,61,71,146
2,52,43,144
2,63,55,4
2,54,35,188
2,59,43,0
2,66,59,2
2,54,35,142
2,59,39,192
2,63,63,96
2,54,35,142
2,63,71,50
2,54,15,174
2,56,39,212
2,59,35,126
2,54,23,130
2,56,39,190
2,59,63,166
2,54,31,128
2,56,51,0
2,52,23,190
2,61,39,194
2,52,43,128
2,56,51,194
2,64,51,114
2,61,55,158
2,56,47,178
2,59,55,18
2,52,23,98
2,57,63,14
2,61,59,194
2,52,35,114
2,57,63,194
2,59,59,82
2,52,39,130
2,61,67,208
2,52,19,146
2,57,35,192
2,64,63,0
2,52,35,146
2,57,51,192
2,61,55,114
2,52,43,144
2,62,75,100
2,54,27,174
2,57,43,194
2,62,87,144
2,54,39,150
2,57,71,188
2,54,55,2
2,62,39,188
2,64,63,34
2,54,47,160
2,59,47,192
2,54,47,48
2,63,51,2
2,54,39,148
2,59,55,192
2,66,67,134
2,59,83,68
2,52,3,48
2,56,23,192
2,64,71,18
2,52,23,192
2,56,47,178
2,59,59,64
2,52,15,146
2,56,7,80
2,59,55,2
2,52,27,130
2,56,51,0
2,54,67,178
2,56,35,158
2,59,71,114
2,52,35,176
2,56,35,176
2,61,75,0
2,52,23,156
2,56,31,194
2,61,75,146
2,52,27,336
2,56,35,196
2,64,47,142
2,52,51,30
2,57,23,190
2,61,71,64
2,52,11,148
2,57,35,192
2,64,71,20
2,52,3,190
2,57,27,192
2,59,67,18
2,52,11,176
2,56,31,192
2,64,51,178
2,52,19,160
2,52,71,164
2,54,55,34
2,56,55,32
2,59,43,382
2,64,47,190
2,56,11,164
2,66,51,36
2,56,43,146
2,59,35,192
2,64,35,146
2,64,55,68
2,57,35,364
2,61,59,0
2,52,27,192
2,57,59,192
2,61,59,134
2,52,3,50
2,57,27,16
2,61,75,22
2,51,27,158
2,56,39,16
2,61,59,176
2,60,79,160
2,51,43,114
2,63,59,208
2,56,35,176
2,61,71,64
2,56,35,338
2,64,67,16
2,52,23,190
2,56,43,194
2,61,63,80
2,52,31,132
2,56,39,48
2,61,71,16
2,52,23,160
2,56,43,194
2,59,71,114
2,52,23,162
2,56,35,0
2,59,27,16
2,66,59,16
2,56,39,176
2,59,15,208
2,64,71,82
2,56,3,162
2,59,31,176
2,61,59,6
2,52,7,172
2,57,31,192
2,59,67,112
2,52,35,176
2,57,47,192
2,61,59,148
2,52,19,0
2,61,51,52
2,52,11,160
2,57,35,0
2,64,79,48
2,52,11,164
2,57,27,188
2,61,43,48
2,52,15,134
2,61,67,4
2,52,11,146
2,57,39,2
2,64,75,18
2,52,19,190
2,52,15,82
2,57,55,192
2,61,39,100
2,57,19,66
2,62,79,20
2,54,11,160
2,57,27,196
2,62,87,2
2,54,23,146
2,57,59,174
2,66,71,0
2,54,43,142
2,57,3,14
2,64,47,34
2,54,11,128
2,59,51,2
2,64,71,168
2,63,67,30
2,59,43,0
2,66,71,16
2,54,31,170
2,64,71,144
2,56,31,160
2,59,39,0
2,66,79,194
2,64,35,128
2,59,51,126
2,56,27,192
2,59,19,34
2,64,67,18
2,56,31,174
2,59,39,210
2,66,75,2
2,64,47,148
2,59,31,134
2,56,23,188
2,61,59,48
2,52,39,174
2,57,43,174
2,61,67,162
2,59,67,144
2,52,31,178
2,57,51,192
2,59,63,162
2,59,51,22
2,52,23,186
2,57,63,194
2,59,79,176
2,52,23,160
2,57,71,206
2,59,75,174
2,52,27,2
2,56,63,2
2,54,39,202
2,56,51,146
2,59,75,66
2,52,3,176
2,56,51,2
2,64,67,18
2,52,27,160
2,56,39,18
2,59,43,18
2,52,31,48
2,56,63,16
2,54,63,194
2,56,55,164
2,59,71,188
2,52,19,144
2,61,67,18
2,52,31,162
2,59,63,174
2,61,67,180
2,52,27,142
2,57,59,194
2,61,67,178
2,52,19,148
2,61,59,18
2,51,31,172
2,56,47,2
2,61,55,192
2,60,71,48
2,51,35,98
2,63,51,128
2,54,55,192
2,61,59,20
2,52,27,144
2,56,35,194
2,64,67,50
2,52,11,162
2,56,39,192
2,61,71,98
2,52,51,144
2,59,75,18
2,52,23,156
2,56,35,210
2,64,71,2
2,52,19,172
2,56,43,210
2,61,51,32
2,52,35,2
2,59,75,34
2,52,23,370
2,54,71,194
2,52,47,352
2,54,47,172
2,59,11,16
2,71,75,14
2,69,79,0
2,68,71,16
2,64,67,548
2,66,51,14
2,64,71,16
2,52,43,788
2,57,27,16
2,52,15,194
2,64,63,16
2,57,31,386
2,61,59,110
2,52,19,158
2,57,27,192
2,64,71,2
2,52,19,384
2,57,51,188
2,61,75,0
2,52,63,50
2,56,31,190
2,64,43,192
2,56,15,2
2,52,51,190
2,56,31,174
2,64,43,96
2,56,23,178
2,54,59,16
2,57,31,174
2,64,51,148
2,57,43,176
2,56,47,2
2,59,31,190
2,64,27,134
2,52,47,32
2,57,67,80
2,61,59,48
2,64,47,46
2,52,31,2
2,54,19,64
2,59,23,78
2,56,103,336
2,59,47,190
2,64,55,2
2,59,47,192
2,52,91,34
2,56,51,190
2,59,51,176
2,54,91,2
2,57,47,398
2,59,43,62
2,64,79,0
2,59,67,194
2,57,51,204
2,59,47,176
2,64,63,16
2,56,87,124
2,64,59,112
2,59,63,178
2,57,87,142
2,64,67,140
2,56,71,112
2,64,59,112
2,54,87,144
2,57,55,384
2,59,47,2
2,64,71,18
2,59,63,194
2,57,67,190
2,59,59,174
2,64,71,0
2,56,91,130
2,59,55,190
2,64,71,148
2,59,59,174
2,52,87,34
2,56,51,174
2,59,55,194
2,54,95,16
2,57,43,384
2,59,47,194
2,64,71,144
2,59,55,178
2,57,47,176
2,59,67,176
2,64,67,2
2,56,87,128
2,64,63,114
2,59,59,174
2,57,91,78
2,64,63,128
2,56,67,100
2,64,63,112
2,54,87,130
2,57,71,402
2,59,63,220
2,64,71,174
2,59,63,272
2,57,63,354
2,59,59,496
2,64,43,82
2,52,74,16
2,56,80,34
2,59,74,50
2,64,68,62
3,68,31,11488
3,69,43,302
3,71,55,210
3,73,63,222
3,69,31,788
3,75,59,158
3,76,55,224
3,78,55,98
3,80,47,2
3,76,31,186
3,69,27,866
3,71,31,34
3,71,15,0
3,73,11,20
3,64,11,0
3,69,11,0
3,62,55,19948
3,57,35,0
3,66,35,0
3,64,39,112
3,54,27,0
3,59,35,0
3,63,35,732
3,57,35,18
3,61,43,2
3,64,27,0
3,63,39,98
3,66,39,0
3,59,36,16
3,56,35,1490
3,64,23,18
3,61,27,1520
3,57,35,2
3,59,31,34
3,63,31,0
3,66,23,0
3,56,31,1472
3,64,27,626
3,68,35,720
3,61,35,544
3,69,47,2
3,71,39,0
3,68,43,14
3,69,63,176
3,73,23,0
3,76,23,0
3,78,31,4
3,71,31,2
3,75,43,0
3,76,47,2282
3,75,43,0
3,61,45,16
3,68,23,0
3,64,20,0
3,57,43,1438
3,69,55,3038
3,66,43,18
3,62,47,54
3,64,35,16
3,54,23,32
3,59,63,2
3,63,43,734
3,56,47,126
3,64,47,0
3,59,55,0
3,66,51,1440
3,64,43,720
3,61,43,752
3,57,43,1522
3,68,23,94
3,59,47,34
3,71,39,1442
3,61,35,96
3,69,51,736
3,63,51,116
3,68,59,0
3,73,47,0
3,72,55,0
3,73,47,80
3,64,47,16
3,71,47,2
3,69,39,766
3,66,47,674
3,71,43,2
3,64,34,734
3,61,26,0
3,69,47,2
3,57,34,0
3,66,39,3086
3,62,63,16
3,59,35,112
3,54,43,16
3,64,59,0
3,63,55,670
3,59,51,64
3,56,47,0
3,64,39,2
3,66,51,1516
3,64,36,4
3,57,23,174
3,61,43,0
3,59,31,162
3,68,23,18
3,71,47,0
3,61,23,112
3,69,47,0
3,68,35,128
3,63,39,0
3,73,27,14
3,72,47,766
3,64,39,114
3,73,39,0
3,71,43,0
3,69,27,16
3,71,36,684
3,66,39,0
3,64,31,0
3,61,35,768
3,54,39,2
3,64,47,2
3,59,55,14
3,63,43,2
3,56,15,128
3,64,15,0
3,59,27,0
3,66,43,1454
3,68,35,704
3,57,16,16
3,61,35,0
