track,note,velocity,time
0,65,116,2920
0,65,113,56
0,65,109,46
0,68,118,92
0,73,117,216
0,37,94,192
0,37,89,120
0,37,91,58
0,37,92,46
0,72,106,124
0,37,92,0
0,72,102,38
0,37,93,0
0,70,114,2
0,37,92,0
0,68,116,114
0,37,89,0
0,37,89,42
0,37,92,26
0,65,116,122
0,37,89,0
0,37,91,48
0,37,94,32
0,37,89,120
0,37,91,58
0,37,92,46
0,65,108,124
0,37,92,0
0,65,111,48
0,37,93,0
0,65,114,38
0,37,92,0
0,68,115,102
0,37,89,0
0,37,89,42
0,37,92,36
0,68,114,122
0,37,89,0
0,37,91,48
0,37,94,32
0,37,89,96
0,37,91,58
0,37,92,46
0,65,111,124
0,37,92,0
0,65,111,48
0,37,93,0
0,65,109,38
0,37,92,0
0,68,115,94
0,37,89,0
0,37,89,42
0,37,92,36
0,68,112,122
0,37,89,0
0,37,91,48
0,32,94,32
0,32,89,120
0,32,91,58
0,32,92,46
0,66,109,124
0,32,92,0
0,66,105,42
0,32,93,0
0,66,99,38
0,32,92,0
0,68,116,66
0,32,89,0
0,68,116,2
0,32,89,0
0,32,92,20
0,72,107,122
0,32,89,0
0,32,91,48
0,32,94,32
0,72,111,108
0,32,89,0
0,32,91,20
0,72,106,46
0,32,92,0
0,66,114,106
0,32,92,0
0,66,112,48
0,32,93,0
0,32,92,38
0,68,116,112
0,32,89,0
0,32,89,42
0,32,92,36
0,68,117,122
0,32,89,0
0,32,91,48
0,32,94,32
0,32,89,120
0,32,91,58
0,32,92,46
0,66,109,124
0,32,92,0
0,66,106,46
0,32,93,0
0,32,92,38
0,68,113,106
0,32,89,0
0,32,89,42
0,32,92,36
0,72,113,122
0,32,89,0
0,32,91,48
0,32,94,2
0,72,110,120
0,32,89,0
0,32,91,8
0,72,108,46
0,32,92,0
0,68,108,120
0,32,92,0
0,68,114,48
0,32,93,0
0,66,114,30
0,61,59,0
0,37,94,0
0,61,51,12
0,65,114,52
0,73,103,0
0,37,89,0
0,73,51,2
0,37,91,0
0,61,59,46
0,37,92,0
0,61,51,28
0,65,116,52
0,73,103,0
0,37,92,0
0,73,51,48
0,37,93,0
0,61,61,32
0,37,94,0
0,61,61,24
0,73,94,52
0,37,89,0
0,73,94,48
0,37,91,0
0,61,51,46
0,37,92,0
0,61,51,28
0,73,81,52
0,37,92,0
0,73,81,48
0,37,93,0
0,61,46,38
0,37,94,0
0,61,46,24
0,73,76,52
0,37,89,0
0,73,76,48
0,37,91,0
0,61,41,46
0,37,92,0
0,61,41,28
0,68,115,52
0,73,66,0
0,37,92,0
0,68,119,34
0,73,66,0
0,37,93,0
0,65,109,26
0,61,61,0
0,37,94,0
0,61,61,24
0,68,121,52
0,73,94,0
0,37,89,0
0,73,94,2
0,37,91,0
0,61,51,46
0,37,92,0
0,61,51,28
0,49,121,52
0,73,117,0
0,73,81,0
0,37,92,0
0,73,81,38
0,37,93,0
0,36,97,38
0,42,51,0
0,54,93,0
0,61,46,0
0,37,105,0
0,42,51,46
0,61,46,0
0,42,51,6
0,73,76,0
0,42,51,48
0,54,93,0
0,73,76,0
0,32,101,0
0,36,99,52
0,38,105,0
0,42,51,0
0,61,41,0
0,42,51,42
0,61,41,0
0,42,51,48
0,54,93,0
0,72,107,0
0,73,66,0
0,34,90,0
0,42,51,36
0,72,113,0
0,73,66,0
0,36,95,10
0,42,51,0
0,54,93,0
0,70,105,0
0,61,61,0
0,37,77,0
0,42,51,2
0,54,113,0
0,61,61,0
0,42,51,0
0,68,113,0
0,73,94,0
0,42,51,48
0,54,93,0
0,73,94,0
0,32,101,0
0,36,101,52
0,38,99,0
0,42,51,0
0,61,51,0
0,42,51,42
0,61,51,0
0,42,51,24
0,54,93,0
0,65,116,0
0,73,81,0
0,34,89,0
0,42,51,0
0,73,81,0
0,36,97,32
0,42,51,0
0,54,93,0
0,61,46,0
0,37,86,0
0,42,51,42
0,61,46,0
0,42,51,8
0,73,76,0
0,42,51,34
0,54,93,0
0,73,76,0
0,32,99,0
0,36,99,52
0,38,92,0
0,42,51,0
0,61,41,0
0,42,51,40
0,61,41,0
0,42,51,24
0,54,93,0
0,65,109,0
0,73,66,0
0,34,75,0
0,42,51,28
0,54,105,0
0,65,114,0
0,73,66,0
0,36,107,36
0,42,51,0
0,54,93,0
0,65,102,0
0,61,61,0
0,37,89,0
0,42,51,20
0,61,61,0
0,42,51,6
0,68,114,0
0,73,94,0
0,42,51,48
0,54,93,0
0,73,94,0
0,32,92,0
0,36,103,52
0,38,93,0
0,42,51,0
0,61,51,0
0,42,51,42
0,61,51,0
0,42,51,16
0,54,93,0
0,68,114,0
0,73,81,0
0,34,92,0
0,42,51,36
0,73,81,0
0,36,99,24
0,42,51,0
0,54,93,0
0,61,46,0
0,37,78,0
0,42,51,2
0,54,95,0
0,61,46,0
0,42,51,52
0,73,76,0
0,42,51,48
0,54,93,0
0,73,76,0
0,32,93,0
0,36,97,40
0,38,103,0
0,42,51,0
0,61,41,0
0,42,51,8
0,61,41,0
0,42,51,4
0,54,93,0
0,65,113,0
0,73,66,0
0,34,90,0
0,42,51,28
0,54,115,0
0,65,115,0
0,73,66,0
0,36,99,42
0,42,51,0
0,54,93,0
0,65,106,0
0,61,61,0
0,37,89,0
0,42,51,2
0,54,113,0
0,61,61,0
0,42,51,6
0,68,116,0
0,73,94,0
0,42,51,48
0,54,93,0
0,73,94,0
0,32,85,0
0,36,107,52
0,38,93,0
0,42,51,0
0,61,51,0
0,42,51,42
0,61,51,0
0,42,51,4
0,54,93,0
0,68,118,0
0,73,81,0
0,34,87,0
0,42,51,26
0,73,81,0
0,36,107,50
0,42,51,0
0,54,93,0
0,56,46,0
0,32,85,0
0,42,51,48
0,56,46,0
0,42,51,28
0,68,76,0
0,42,51,34
0,54,93,0
0,68,76,0
0,27,95,0
0,36,101,52
0,38,103,0
0,42,51,0
0,56,41,0
0,42,51,8
0,56,41,0
0,42,51,20
0,54,93,0
0,66,103,0
0,68,66,0
0,29,81,0
0,42,51,28
0,54,105,0
0,66,111,0
0,68,66,0
0,36,107,40
0,42,51,0
0,54,93,0
0,56,61,0
0,32,92,0
0,42,51,18
0,56,61,0
0,42,51,6
0,68,113,0
0,68,94,0
0,42,51,24
0,54,93,0
0,68,94,0
0,27,105,0
0,36,103,52
0,38,93,0
0,42,51,0
0,56,51,0
0,42,51,42
0,56,51,0
0,42,51,16
0,54,93,0
0,72,110,0
0,68,81,0
0,29,89,0
0,42,51,36
0,68,81,0
0,36,99,52
0,42,51,0
0,54,93,0
0,56,46,0
0,32,87,0
0,42,51,2
0,54,95,0
0,56,46,0
0,42,51,52
0,72,107,0
0,68,76,0
0,42,51,18
0,54,93,0
0,68,76,0
0,27,99,0
0,36,97,50
0,38,103,0
0,42,51,0
0,72,109,0
0,56,41,0
0,42,51,8
0,56,41,0
0,42,51,6
0,54,93,0
0,66,96,0
0,68,66,0
0,29,73,0
0,42,51,28
0,54,115,0
0,66,108,0
0,68,66,0
0,36,107,32
0,42,51,0
0,54,93,0
0,66,108,0
0,56,61,0
0,32,83,0
0,42,51,16
0,56,61,0
0,42,51,6
0,68,113,0
0,68,94,0
0,42,51,48
0,54,93,0
0,68,94,0
0,27,82,0
0,36,103,52
0,38,93,0
0,42,51,0
0,56,51,0
0,42,51,42
0,56,51,0
0,42,51,16
0,54,93,0
0,68,113,0
0,68,81,0
0,29,76,0
0,42,51,36
0,68,81,0
0,36,99,10
0,42,51,0
0,54,93,0
0,56,46,0
0,32,86,0
0,42,51,48
0,56,46,0
0,42,51,52
0,68,76,0
0,42,51,6
0,54,93,0
0,68,76,0
0,27,93,0
0,36,97,52
0,38,103,0
0,42,51,0
0,56,41,0
0,42,51,8
0,56,41,0
0,42,51,38
0,54,93,0
0,66,98,0
0,68,66,0
0,29,81,0
0,42,51,28
0,66,105,0
0,68,66,0
0,36,107,46
0,42,51,0
0,54,93,0
0,66,103,0
0,56,61,0
0,32,86,0
0,42,51,2
0,54,113,0
0,56,61,0
0,42,51,6
0,68,113,0
0,68,94,0
0,42,51,48
0,54,93,0
0,68,94,0
0,36,103,48
0,38,93,0
0,42,51,0
0,56,51,0
0,27,74,0
0,42,51,42
0,56,51,0
0,42,51,16
0,54,93,0
0,72,108,0
0,68,81,0
0,29,73,0
0,42,51,36
0,68,81,0
0,36,99,2
0,42,51,0
0,54,93,0
0,56,46,0
0,32,71,0
0,42,51,48
0,56,46,0
0,42,51,52
0,72,109,0
0,68,76,0
0,42,51,32
0,54,93,0
0,68,76,0
0,27,87,0
0,36,97,50
0,38,103,0
0,42,51,0
0,72,109,0
0,56,41,0
0,42,51,8
0,56,41,0
0,42,51,38
0,54,93,0
0,68,99,0
0,68,66,0
0,29,71,0
0,42,51,10
0,54,105,0
0,68,99,0
0,68,66,0
0,36,107,2
0,42,51,0
0,54,93,0
0,66,110,0
0,61,61,0
0,37,105,0
0,42,51,18
0,61,61,0
0,42,51,6
0,65,118,0
0,73,94,0
0,42,51,48
0,54,93,0
0,73,94,0
0,32,93,0
0,36,103,52
0,38,93,0
0,42,51,0
0,61,51,0
0,42,51,42
0,61,51,0
0,42,51,16
0,54,93,0
0,65,120,0
0,73,81,0
0,34,89,0
0,42,51,36
0,73,81,0
0,36,99,50
0,42,51,0
0,54,93,0
0,61,46,0
0,37,78,0
0,42,51,2
0,54,95,0
0,61,46,0
0,42,51,52
0,73,76,0
0,42,51,6
0,54,93,0
0,73,76,0
0,32,86,0
0,36,97,52
0,38,103,0
0,42,51,0
0,61,41,0
0,42,51,8
0,61,41,0
0,42,51,38
0,54,93,0
0,65,121,0
0,73,66,0
0,34,93,0
0,42,51,28
0,54,115,0
0,65,115,0
0,73,66,0
0,36,107,42
0,42,51,0
0,54,93,0
0,66,111,0
0,39,103,0
0,87,109,0
0,75,90,0
0,42,51,2
0,54,113,0
0,42,51,6
0,68,112,0
0,42,51,14
0,54,93,0
0,39,77,0
0,75,86,0
0,36,103,62
0,38,93,0
0,42,51,0
0,34,82,0
0,42,51,42
0,42,51,16
0,54,93,0
0,68,119,0
0,36,70,0
0,75,94,0
0,42,51,0
0,36,99,56
0,42,51,0
0,54,93,0
0,39,81,0
0,42,51,62
0,42,51,26
0,75,82,0
0,42,51,52
0,54,93,0
0,39,76,0
0,36,97,50
0,38,103,0
0,42,51,0
0,34,85,0
0,75,86,0
0,42,51,8
0,75,82,0
0,42,51,38
0,54,93,0
0,36,76,0
0,42,51,14
0,54,105,0
0,36,107,40
0,42,51,0
0,54,93,0
0,32,78,0
0,80,123,0
0,68,96,0
0,42,51,48
0,42,51,6
0,42,51,52
0,54,93,0
0,32,77,0
0,68,96,0
0,36,103,56
0,38,93,0
0,42,51,0
0,27,72,0
0,42,51,42
0,42,51,16
0,54,93,0
0,29,77,0
0,68,94,0
0,42,51,36
0,36,99,36
0,42,51,0
0,54,93,0
0,32,82,0
0,42,51,2
0,54,95,0
0,42,51,26
0,68,88,0
0,42,51,34
0,54,93,0
0,32,81,0
0,36,97,52
0,38,103,0
0,42,51,0
0,27,92,0
0,68,96,0
0,42,51,8
0,68,82,0
0,42,51,38
0,54,93,0
0,65,121,0
0,29,78,0
0,42,51,28
0,54,115,0
0,66,111,0
0,36,107,40
0,42,51,0
0,54,93,0
0,66,123,0
0,39,90,0
0,87,121,0
0,75,106,0
0,42,51,2
0,54,113,0
0,42,51,6
0,68,117,0
0,42,51,52
0,54,93,0
0,39,77,0
0,75,94,0
0,36,103,0
0,38,93,0
0,42,51,0
0,34,76,0
0,42,51,42
0,42,51,16
0,54,93,0
0,68,117,0
0,36,80,0
0,75,102,0
0,42,51,14
0,36,99,48
0,42,51,0
0,54,93,0
0,39,89,0
0,42,51,62
0,42,51,14
0,75,96,0
0,42,51,52
0,54,93,0
0,39,80,0
0,36,97,50
0,38,103,0
0,42,51,0
0,34,80,0
0,75,86,0
0,42,51,8
0,75,86,0
0,42,51,38
0,54,93,0
0,36,76,0
0,42,51,14
0,54,105,0
0,36,107,10
0,42,51,0
0,54,93,0
0,32,95,0
0,80,127,0
0,68,94,0
0,42,51,34
0,42,51,6
0,42,51,52
0,54,93,0
0,32,90,0
0,68,94,0
0,36,103,42
0,38,93,0
0,42,51,0
0,27,82,0
0,42,51,42
0,42,51,16
0,54,93,0
0,29,73,0
0,68,92,0
0,42,51,36
0,36,99,50
0,42,51,0
0,54,93,0
0,32,92,0
0,42,51,2
0,54,95,0
0,42,51,50
0,65,122,0
0,68,96,0
0,42,51,34
0,54,93,0
0,32,80,0
0,36,97,32
0,38,103,0
0,42,51,0
0,63,115,0
0,27,80,0
0,68,98,0
0,42,51,8
0,42,51,38
0,54,93,0
0,61,117,0
0,29,74,0
0,42,51,18
0,54,115,0
0,36,107,56
0,42,51,0
0,54,93,0
0,70,111,0
0,39,71,0
0,70,80,0
0,75,88,0
0,63,102,0
0,66,102,20
0,42,51,2
0,54,113,0
0,42,51,6
0,75,106,0
0,42,51,52
0,54,93,0
0,75,102,0
0,34,85,0
0,70,86,0
0,75,88,0
0,36,103,32
0,38,93,0
0,42,51,0
0,42,51,42
0,75,102,0
0,42,51,16
0,54,93,0
0,77,113,0
0,37,71,0
0,70,92,0
0,75,90,0
0,42,51,28
0,36,99,56
0,42,51,0
0,54,93,0
0,39,62,0
0,54,78,0
0,58,82,0
0,63,83,0
0,42,51,8
0,42,51,46
0,75,114,0
0,42,51,52
0,54,93,0
0,34,81,0
0,54,82,0
0,58,77,0
0,63,86,0
0,36,97,22
0,38,103,0
0,42,51,0
0,42,51,8
0,42,51,38
0,54,93,0
0,37,66,0
0,42,51,28
0,54,105,0
0,36,107,40
0,42,51,0
0,54,93,0
0,70,111,0
0,39,55,0
0,70,88,0
0,75,92,0
0,42,51,34
0,42,51,6
0,75,109,0
0,42,51,52
0,54,93,0
0,75,110,0
0,34,80,0
0,70,92,0
0,75,92,0
0,36,103,36
0,38,93,0
0,42,51,0
0,42,51,42
0,75,105,0
0,42,51,16
0,54,93,0
0,77,112,0
0,37,67,0
0,70,90,0
0,75,90,0
0,42,51,36
0,36,99,50
0,42,51,0
0,54,93,0
0,39,71,0
0,54,82,0
0,58,83,0
0,63,90,0
0,42,51,2
0,54,95,0
0,42,51,38
0,75,113,0
0,42,51,34
0,54,93,0
0,34,89,0
0,54,76,0
0,58,71,0
0,63,87,0
0,36,97,24
0,38,103,0
0,42,51,0
0,42,51,8
0,42,51,22
0,54,93,0
0,37,76,0
0,56,110,6
0,42,51,22
0,54,115,0
0,61,97,14
0,65,107,46
0,36,107,10
0,42,51,0
0,54,93,0
0,68,109,0
0,37,72,0
0,68,92,0
0,73,88,0
0,42,51,2
0,54,113,0
0,42,51,6
0,73,107,0
0,42,51,20
0,54,93,0
0,73,109,0
0,32,73,0
0,68,92,0
0,73,92,0
0,36,103,24
0,38,93,0
0,42,51,0
0,42,51,42
0,73,103,0
0,42,51,2
0,54,93,0
0,75,117,0
0,34,77,0
0,68,92,0
0,73,92,0
0,42,51,36
0,36,99,56
0,42,51,0
0,54,93,0
0,37,70,0
0,53,49,0
0,56,74,0
0,61,77,0
0,42,51,40
0,42,51,54
0,73,99,0
0,42,51,10
0,54,93,0
0,32,74,0
0,53,67,0
0,56,89,0
0,61,89,0
0,36,97,34
0,38,103,0
0,42,51,0
0,42,51,8
0,42,51,24
0,54,93,0
0,34,77,0
0,42,51,28
0,54,105,0
0,36,107,40
0,42,51,0
0,54,93,0
0,37,71,0
0,68,92,0
0,73,88,0
0,42,51,24
0,42,51,6
0,42,51,52
0,54,93,0
0,32,77,0
0,68,92,0
0,73,92,0
0,36,103,40
0,38,93,0
0,42,51,0
0,42,51,42
0,42,51,8
0,54,93,0
0,34,64,0
0,68,92,0
0,73,92,0
0,42,51,36
0,36,99,50
0,42,51,0
0,54,93,0
0,37,73,0
0,53,49,0
0,56,92,0
0,61,78,0
0,42,51,2
0,54,95,0
0,42,51,2
