track,note,velocity,time
2,50,85,3165
2,43,82,0
2,59,109,2
2,55,104,0
2,62,104,0
2,43,0,25
2,50,0,0
2,55,0,10
2,59,0,1
2,62,0,2
2,43,68,7
2,52,95,0
2,64,91,1
2,55,91,2
2,60,91,0
2,52,0,25
2,43,0,2
2,55,0,4
2,64,0,3
2,60,0,2
2,50,95,10
2,43,73,0
2,55,95,2
2,59,98,0
2,62,104,0
2,43,0,21
2,50,0,7
2,59,0,2
2,55,0,1
2,62,0,4
2,50,73,10
2,43,85,1
2,59,80,1
2,55,88,1
2,62,85,0
2,43,0,21
2,62,0,1
2,50,0,7
2,59,0,0
2,55,0,0
2,50,76,17
2,43,76,0
2,62,88,2
2,59,88,0
2,55,98,0
2,43,0,22
2,50,0,2
2,62,0,1
2,55,0,1
2,59,0,1
2,62,95,20
2,55,85,0
2,59,104,1
2,50,88,0
2,43,85,0
2,43,0,17
2,50,0,8
2,59,0,1
2,55,0,4
2,62,0,0
2,62,91,16
2,50,71,0
2,59,82,1
2,55,88,0
2,43,78,1
2,55,0,18
2,59,0,3
2,62,0,1
2,50,0,1
2,43,0,3
2,55,104,20
2,64,109,0
2,60,114,0
2,43,66,0
2,52,104,0
2,52,0,22
2,43,0,5
2,55,0,5
2,64,0,0
2,60,0,0
2,43,80,16
2,50,91,0
2,62,95,1
2,59,98,0
2,55,85,0
2,43,0,22
2,50,0,1
2,59,0,2
2,62,0,2
2,55,0,0
2,55,82,20
2,60,98,0
2,64,104,0
2,52,98,0
2,43,82,0
2,52,0,25
2,43,0,1
2,55,0,8
2,64,0,1
2,60,0,1
2,43,67,12
2,50,88,0
2,59,98,2
2,55,85,0
2,62,98,0
2,43,0,21
2,50,0,1
2,55,0,3
2,59,0,1
2,62,0,1
2,50,71,18
2,55,80,1
2,62,88,0
2,43,80,0
2,59,91,2
2,43,0,17
2,62,0,4
2,59,0,2
2,50,0,0
2,55,0,2
2,55,74,21
2,62,82,0
2,59,85,0
2,50,71,0
2,43,76,0
2,43,0,22
2,59,0,1
2,55,0,1
2,62,0,1
2,50,0,2
2,55,73,21
2,62,73,0
2,59,82,0
2,50,66,0
2,43,67,0
2,43,0,19
2,50,0,9
2,59,0,1
2,55,0,1
2,62,0,1
2,50,71,17
2,55,80,2
2,59,82,0
2,62,78,0
2,43,76,0
2,43,0,20
2,50,0,3
2,59,0,1
2,55,0,1
2,62,0,0
2,62,74,21
2,55,76,0
2,59,82,0
2,50,67,0
2,43,80,0
2,43,0,20
2,50,0,5
2,55,0,1
2,62,0,1
2,59,0,1
2,55,91,20
2,59,98,0
2,50,82,0
2,43,91,0
2,62,104,1
2,43,0,23
2,50,0,3
2,55,0,0
2,59,0,1
2,62,0,0
2,43,78,20
2,52,98,0
2,55,98,2
2,64,98,0
2,60,98,0
2,52,0,23
2,43,0,2
2,55,0,4
2,64,0,1
2,60,0,5
2,50,88,11
2,43,78,0
2,55,85,2
2,62,95,0
2,59,104,0
2,43,0,18
2,50,0,2
2,59,0,3
2,55,0,5
2,62,0,0
2,50,59,17
2,43,85,0
2,55,76,2
2,62,88,1
2,59,80,0
2,59,0,19
2,55,0,0
2,62,0,1
2,43,0,0
2,50,0,2
2,50,78,23
2,43,68,0
2,59,98,3
2,62,85,0
2,55,91,0
2,55,0,21
2,43,0,1
2,50,0,1
2,62,0,0
2,59,0,2
2,62,88,21
2,55,95,0
2,59,98,0
2,50,62,0
2,43,66,0
2,43,0,24
2,50,0,3
2,59,0,3
2,55,0,0
2,62,0,1
2,59,91,17
2,62,85,0
2,55,82,0
2,50,66,0
2,43,67,0
2,55,0,22
2,59,0,5
2,43,0,0
2,62,0,0
2,50,0,2
2,55,98,19
2,60,98,0
2,64,104,0
2,43,78,0
2,52,98,0
2,52,0,24
2,43,0,2
2,55,0,5
2,64,0,2
2,60,0,0
2,50,91,15
2,55,80,1
2,59,91,1
2,62,98,0
2,43,85,0
2,43,0,23
2,50,0,1
2,55,0,0
2,59,0,1
2,62,0,2
2,60,95,19
2,55,88,0
2,64,98,0
2,52,98,0
2,43,76,0
2,52,0,26
2,43,0,3
2,64,0,6
2,55,0,1
2,60,0,0
2,59,95,12
2,43,64,0
2,50,95,0
2,62,95,1
2,55,88,0
2,43,0,21
2,50,0,4
2,59,0,3
2,62,0,0
2,55,0,0
2,62,88,19
2,50,66,0
2,43,71,0
2,59,80,1
2,55,88,0
2,62,0,21
2,59,0,1
2,55,0,0
2,43,0,2
2,50,0,1
2,55,76,22
2,43,73,0
2,50,74,0
2,59,88,2
2,62,85,0
2,62,0,22
2,59,0,2
2,50,0,1
2,43,0,0
2,55,0,1
2,62,73,20
2,55,80,0
2,50,66,0
2,59,82,2
2,43,70,0
2,43,0,22
2,55,0,0
2,62,0,1
2,59,0,2
2,50,0,2
2,59,82,22
2,62,82,0
2,55,82,0
2,50,74,0
2,43,80,1
2,43,0,20
2,50,0,3
2,59,0,1
2,62,0,0
2,55,0,0
2,62,73,21
2,59,78,0
2,55,80,0
2,50,63,2
2,43,74,0
2,55,0,19
2,62,0,2
2,59,0,0
2,43,0,1
2,50,0,2
2,55,78,22
2,62,85,0
2,59,85,0
2,50,67,0
2,43,80,2
2,59,0,20
2,55,0,1
2,43,0,2
2,62,0,0
2,50,0,3
2,62,73,20
2,55,80,0
2,59,88,0
2,52,109,0
2,43,98,1
2,55,0,23
2,59,0,2
2,52,0,2
2,43,0,1
2,62,0,0
2,62,71,19
2,55,82,0
2,59,91,0
2,43,68,0
2,50,91,2
2,43,0,21
2,55,0,1
2,59,0,1
2,62,0,1
2,50,0,0
2,55,80,22
2,62,78,0
2,59,82,0
2,43,91,0
2,50,80,2
2,50,0,22
2,59,0,1
2,55,0,1
2,62,0,0
2,43,0,3
2,55,82,19
2,62,80,0
2,59,91,0
2,43,80,2
2,50,91,0
2,50,0,17
2,43,0,3
2,59,0,4
2,55,0,0
2,62,0,3
2,62,82,19
2,55,85,0
2,59,95,0
2,43,91,0
2,50,80,0
2,50,0,24
2,55,0,1
2,43,0,0
2,59,0,6
2,62,0,4
2,43,82,13
2,50,74,0
2,55,98,2
2,62,98,0
2,59,104,0
2,50,0,20
2,43,0,3
2,62,0,2
2,59,0,2
2,55,0,3
2,62,88,16
2,55,95,0
2,59,95,0
2,43,80,0
2,50,71,0
2,43,0,21
2,50,0,1
2,62,0,1
2,59,0,3
2,55,0,0
2,55,88,22
2,59,88,0
2,62,91,0
2,43,76,1
2,50,91,1
2,43,0,18
2,62,0,1
2,59,0,1
2,50,0,1
2,55,0,4
2,55,80,21
2,62,95,0
2,59,98,0
2,50,73,0
2,43,82,0
2,43,0,18
2,50,0,2
2,59,0,1
2,62,0,4
2,55,0,0
2,52,104,23
2,59,109,0
2,40,95,0
2,55,95,1
2,55,0,12
2,59,0,8
2,40,0,3
2,52,0,6
2,64,124,18
2,59,124,0
2,55,124,0
2,40,91,0
2,52,88,0
2,55,0,21
2,40,0,4
2,52,0,1
2,59,0,0
2,64,0,4
2,64,114,19
2,55,109,0
2,59,120,0
2,52,91,0
2,40,98,0
2,59,0,23
2,40,0,1
2,52,0,1
2,55,0,0
2,64,0,1
2,64,109,21
2,55,98,0
2,59,109,0
2,52,88,1
2,40,88,0
2,52,0,22
2,59,0,2
2,40,0,2
2,55,0,0
2,64,0,2
2,62,95,19
2,55,80,0
2,59,88,2
2,43,88,0
2,50,85,0
2,50,0,20
2,43,0,0
2,62,0,3
2,55,0,0
2,59,0,1
2,62,85,22
2,55,80,0
2,50,76,0
2,43,88,0
2,59,88,1
2,43,0,18
2,50,0,3
2,55,0,1
2,59,0,2
2,62,0,2
2,62,91,21
2,59,109,0
2,55,88,0
2,43,85,0
2,50,78,0
2,50,0,20
2,55,0,0
2,43,0,0
2,59,0,0
2,62,0,3
2,50,78,24
2,62,80,1
2,59,114,0
2,55,85,0
2,43,82,0
2,55,0,13
2,59,0,5
2,50,0,6
2,62,0,3
2,43,0,2
2,67,114,19
2,60,98,0
2,64,104,0
2,36,104,1
2,60,0,23
2,64,0,3
2,67,0,2
2,36,0,19
2,67,91,0
2,60,88,0
2,64,82,0
2,48,104,0
2,60,0,22
2,67,0,1
2,64,0,0
2,48,0,25
2,36,98,0
2,60,98,1
2,67,109,0
2,64,91,0
2,64,0,21
2,67,0,0
2,60,0,0
2,60,91,26
2,67,91,0
2,64,91,0
2,48,95,0
2,36,0,2
2,60,0,22
2,64,0,1
2,67,0,1
2,48,0,20
2,59,109,2
2,67,114,0
2,62,109,0
2,35,109,2
2,59,0,22
2,62,0,1
2,67,0,2
2,67,91,21
2,59,104,0
2,62,98,0
2,47,85,0
2,35,0,3
2,59,0,20
2,67,0,4
2,62,0,0
2,67,95,21
2,62,98,0
2,59,109,0
2,35,109,0
2,47,0,1
2,67,0,21
2,59,0,2
2,62,0,2
2,62,91,22
2,67,91,0
2,59,95,0
2,47,85,0
2,35,0,4
2,59,0,18
2,62,0,2
2,67,0,0
2,47,0,22
2,67,98,2
2,60,95,0
2,57,104,0
2,64,98,0
2,33,109,0
2,57,0,24
2,60,0,0
2,64,0,2
2,67,0,1
2,67,88,21
2,57,85,0
2,60,82,0
2,64,85,0
2,45,88,0
2,33,0,2
2,57,0,20
2,60,0,1
2,67,0,1
2,64,0,1
2,33,104,23
2,57,98,2
2,67,95,0
2,60,91,0
2,64,82,0
2,45,0,4
2,60,0,14
2,67,0,1
2,57,0,1
2,64,0,2
2,64,78,24
2,57,88,0
2,67,88,0
2,60,88,0
2,45,85,0
2,33,0,3
2,57,0,16
2,60,0,1
2,67,0,7
2,64,0,1
2,45,0,13
2,67,95,7
2,59,98,0
2,62,104,0
2,31,104,0
2,59,0,24
2,67,0,1
2,62,0,0
2,43,78,22
2,67,91,1
2,62,98,0
2,59,95,0
2,31,0,3
2,59,0,18
2,62,0,4
2,67,0,2
2,31,95,21
2,67,91,1
2,59,104,1
2,62,104,0
2,43,0,4
2,59,0,17
2,62,0,1
2,67,0,0
2,31,0,22
2,67,85,2
2,59,95,0
2,62,88,0
2,43,88,0
2,59,0,18
2,62,0,3
2,67,0,4
2,43,0,5
2,57,104,18
2,66,104,0
2,62,104,0
2,38,109,0
2,57,0,25
2,62,0,2
2,66,0,1
2,38,0,20
2,66,88,0
2,62,85,0
2,57,85,0
2,50,98,0
2,57,0,19
2,66,0,4
2,62,0,1
2,66,91,24
2,62,85,0
2,57,91,0
2,38,104,0
2,50,0,1
2,57,0,14
2,66,0,9
2,62,0,0
2,67,114,24
2,62,104,0
2,59,114,0
2,50,88,0
2,38,0,3
2,59,0,18
2,62,0,12
2,67,0,3
2,62,80,12
2,57,95,0
2,66,88,0
2,38,104,0
2,50,0,2
2,57,0,21
2,66,0,4
2,62,0,3
2,66,82,18
2,62,85,0
2,57,91,0
2,50,91,0
2,38,0,4
2,57,0,15
2,66,0,5
2,62,0,2
2,66,88,22
2,62,91,0
2,57,95,0
2,38,98,0
2,50,0,1
2,57,0,17
2,66,0,6
2,62,0,1
2,66,88,23
2,57,98,0
2,62,88,0
2,50,95,0
2,38,0,4
2,57,0,16
2,66,0,7
2,62,0,0
2,66,91,21
2,57,85,0
2,62,82,0
2,38,104,0
2,50,0,5
2,57,0,14
2,62,0,5
2,66,0,2
2,59,114,22
2,67,114,0
2,62,104,0
2,50,95,0
2,38,0,3
2,59,0,22
2,62,0,5
2,67,0,3
2,62,74,15
2,66,95,0
2,57,104,0
2,38,95,0
2,50,0,1
2,57,0,20
2,66,0,8
2,62,0,1
2,62,91,18
2,67,109,0
2,59,124,0
2,50,95,0
2,38,0,3
2,59,0,25
2,62,0,10
2,67,0,5
2,66,88,5
2,62,91,1
2,38,95,0
2,57,98,1
2,50,0,4
2,57,0,17
2,66,0,2
2,62,0,0
2,66,82,23
2,57,95,0
2,50,91,0
2,38,0,1
2,62,78,0
2,57,0,21
2,66,0,2
2,62,0,0
2,66,91,24
2,38,98,0
2,62,82,1
2,57,95,0
2,50,0,2
2,57,0,17
2,66,0,2
2,62,0,3
2,57,78,23
2,62,80,0
2,66,91,0
2,50,98,0
2,38,0,2
2,66,0,19
2,62,0,2
2,57,0,2
2,50,0,12
2,62,82,11
2,59,98,0
2,55,88,2
2,50,74,0
2,43,95,0
2,55,0,19
2,43,0,2
2,59,0,0
2,62,0,1
2,50,0,1
2,62,95,23
2,55,88,0
2,59,91,0
2,43,78,2
2,50,88,0
2,59,0,16
2,55,0,0
2,43,0,3
2,62,0,3
2,50,0,1
2,62,98,23
2,55,91,0
2,59,98,0
2,50,76,2
2,43,88,0
2,55,0,17
2,43,0,3
2,59,0,0
2,50,0,2
2,62,0,2
2,64,114,22
2,60,109,0
2,55,109,0
2,52,98,0
2,43,91,0
2,52,0,25
2,55,0,6
2,43,0,0
2,60,0,4
2,64,0,1
2,62,82,12
2,59,88,0
2,55,88,0
2,43,70,1
2,50,88,1
2,59,0,15
2,55,0,1
2,62,0,2
2,43,0,4
2,50,0,1
2,55,76,23
2,62,85,0
2,59,91,0
2,43,76,0
2,50,73,0
2,59,0,22
2,43,0,1
2,62,0,0
2,55,0,1
2,50,0,0
2,62,91,24
2,55,85,0
2,59,95,1
2,50,78,1
2,43,85,0
2,59,0,19
2,55,0,1
2,43,0,1
2,50,0,2
2,62,0,0
2,62,85,23
2,55,85,0
2,59,98,0
2,50,71,2
2,43,80,0
2,55,0,20
2,59,0,1
2,62,0,1
2,43,0,2
2,50,0,0
2,62,88,22
2,59,98,0
2,55,91,0
2,50,88,2
2,43,91,0
2,55,0,18
2,59,0,1
2,43,0,3
2,62,0,0
2,50,0,1
2,55,104,23
2,64,114,0
2,60,109,0
2,43,98,2
2,52,88,0
2,52,0,20
2,43,0,7
2,55,0,2
2,60,0,1
2,64,0,0
2,62,85,16
2,59,88,0
2,55,76,0
2,50,82,1
2,43,74,0
2,55,0,13
2,59,0,2
2,62,0,5
2,43,0,2
2,50,0,2
2,64,114,23
2,60,109,0
2,55,109,0
2,52,104,0
2,43,95,0
2,52,0,26
2,43,0,4
2,55,0,3
2,60,0,4
2,64,0,1
2,55,85,10
2,62,85,0
2,59,95,0
2,43,66,0
2,50,91,1
2,59,0,20
2,55,0,0
2,62,0,2
2,50,0,4
2,43,0,2
2,62,78,19
2,55,76,0
2,50,73,1
2,59,91,1
2,43,74,0
2,59,0,21
2,55,0,1
2,43,0,1
2,50,0,1
2,62,0,0
2,62,88,23
2,55,95,1
2,59,104,0
2,50,80,0
2,43,88,0
2,43,0,21
2,59,0,0
2,50,0,1
2,55,0,1
2,62,0,0
2,62,76,23
2,55,91,0
2,59,95,0
2,43,68,0
2,50,71,0
2,43,0,21
2,55,0,0
2,50,0,1
2,59,0,2
2,62,0,1
2,59,82,25
2,62,82,0
2,55,82,0
2,50,74,0
2,43,80,1
2,43,0,20
2,50,0,3
2,59,0,1
2,62,0,0
2,55,0,0
2,62,73,21
2,59,78,0
2,55,80,0
2,50,63,2
2,43,74,0
2,55,0,19
2,62,0,2
2,59,0,0
2,43,0,1
2,50,0,2
2,55,78,22
2,62,85,0
2,59,85,0
2,50,67,0
2,43,80,2
2,59,0,20
2,55,0,1
2,43,0,2
2,62,0,0
2,50,0,3
2,62,73,20
2,55,80,0
2,59,88,0
2,52,109,0
2,43,98,1
2,55,0,23
2,59,0,2
2,52,0,2
2,43,0,1
2,62,0,0
2,62,71,19
2,55,82,0
2,59,91,0
2,43,68,0
2,50,91,2
2,43,0,21
2,55,0,1
2,59,0,1
2,62,0,1
2,50,0,0
2,55,80,22
2,62,78,0
2,59,82,0
2,43,91,0
2,50,80,2
2,50,0,22
2,59,0,1
2,55,0,1
2,62,0,0
2,43,0,3
2,55,82,19
2,62,80,0
2,59,91,0
2,43,80,2
2,50,91,0
2,50,0,17
2,43,0,3
2,59,0,4
2,55,0,0
2,62,0,3
2,62,82,19
2,55,85,0
2,59,95,0
2,43,91,0
2,50,80,0
2,50,0,24
2,55,0,1
2,43,0,0
