track,note,velocity,time
1,59,95,12648
1,59,73,32
1,66,91,24
1,66,79,40
1,59,79,12
1,59,74,36
1,66,76,20
1,66,81,24
1,59,81,8
1,59,73,36
1,66,91,24
1,66,79,40
1,59,79,12
1,59,74,36
1,66,76,20
1,66,81,24
1,59,81,8
1,59,76,40
1,66,90,12
1,66,87,40
1,59,61,20
1,59,79,32
1,66,83,28
1,66,85,32
1,59,87,8
1,59,74,32
1,66,87,16
1,66,86,32
1,59,85,4
1,59,69,44
1,66,98,16
1,66,87,24
1,59,77,16
1,59,81,40
1,66,93,8
1,66,90,28
1,59,81,12
1,59,74,36
1,66,93,24
1,66,87,40
1,59,72,32
1,59,74,36
1,66,88,12
1,66,74,24
1,59,79,12
1,59,75,32
1,66,96,24
1,66,93,32
1,59,81,24
1,59,81,32
1,66,87,28
1,66,73,32
1,59,77,16
1,59,75,32
1,66,97,28
1,66,93,36
1,59,83,24
1,59,72,36
1,66,100,16
1,66,95,28
1,59,70,20
1,59,74,32
1,66,100,12
1,66,77,44
1,59,85,20
1,59,81,36
1,66,90,16
1,66,76,32
1,59,81,16
1,59,74,36
1,66,95,16
1,66,86,20
1,59,86,16
1,59,76,32
1,66,79,28
1,66,95,28
1,59,75,16
1,59,71,24
1,66,81,96
1,66,95,20
1,58,95,12
1,58,70,28
1,66,98,16
1,66,95,36
1,58,85,20
1,58,74,28
1,66,100,16
1,66,85,24
1,58,91,4
1,58,76,28
1,66,96,8
1,66,83,36
1,58,85,12
1,58,74,24
1,66,100,8
1,66,93,16
1,58,83,20
1,58,79,24
1,66,100,16
1,66,79,36
1,58,75,16
1,58,85,28
1,66,90,16
1,66,85,28
1,58,79,16
1,58,75,36
1,66,95,16
1,66,77,36
1,58,58,12
1,58,83,32
1,66,90,16
1,66,79,20
1,58,81,8
1,58,77,32
1,66,95,0
1,66,83,16
1,58,77,16
1,58,74,24
1,66,97,12
1,66,71,32
1,58,87,16
1,58,73,32
1,66,87,0
1,66,87,20
1,58,90,0
1,58,74,28
1,66,94,100
1,66,86,24
1,58,90,8
1,58,67,28
1,66,100,12
1,66,76,36
1,58,67,12
1,58,73,20
1,66,100,12
1,66,93,20
1,59,85,24
1,59,74,20
1,66,100,12
1,66,78,8
1,59,85,12
1,59,86,32
1,66,97,4
1,66,75,36
1,59,86,12
1,59,77,20
1,66,98,16
1,66,81,32
1,59,81,20
1,59,74,20
1,59,81,45632
1,66,93,8
1,66,90,28
1,59,81,12
1,59,74,36
1,66,93,24
1,66,87,40
1,59,72,32
1,59,74,36
1,66,88,12
1,66,74,24
1,59,79,12
1,59,75,32
1,66,96,24
1,66,93,32
1,59,81,24
1,59,81,32
1,66,87,28
1,66,73,32
1,59,77,16
1,59,75,32
1,66,97,28
1,66,93,36
1,59,83,24
1,59,72,36
1,66,100,16
1,66,95,28
1,59,70,20
1,59,74,32
1,66,100,12
1,66,77,44
1,59,85,20
1,59,81,36
1,66,90,16
1,66,76,32
1,59,81,16
1,59,74,36
1,66,95,16
1,66,86,20
1,59,86,16
1,59,76,32
1,66,79,28
1,66,95,28
1,59,75,16
1,59,71,24
1,66,81,96
1,66,95,20
1,58,95,12
1,58,70,28
1,66,98,16
1,66,95,36
1,58,85,20
1,58,74,28
1,66,100,16
1,66,85,24
1,58,91,4
1,58,76,28
1,66,96,8
1,66,83,36
1,58,85,12
1,58,74,24
1,66,100,8
1,66,93,16
1,58,83,20
1,58,79,24
1,66,100,16
1,66,79,36
1,58,75,16
1,58,85,28
1,66,90,16
1,66,85,28
1,58,79,16
1,58,75,36
1,66,95,16
1,66,77,36
1,58,58,12
1,58,83,32
1,66,90,16
1,66,79,20
1,58,81,8
1,58,77,32
1,66,95,0
1,66,83,16
1,58,77,16
1,58,74,24
1,66,97,12
1,66,71,32
1,58,87,16
1,58,73,32
1,66,87,0
1,66,87,20
1,58,90,0
1,58,74,28
1,66,94,100
1,66,86,24
1,58,90,8
1,58,67,28
1,66,100,12
1,66,76,36
1,58,67,12
1,58,73,20
1,66,100,12
1,66,93,20
1,59,85,24
1,59,74,20
1,66,100,12
1,66,78,8
1,59,85,12
1,59,86,32
1,66,97,4
1,66,75,36
1,59,86,12
1,59,77,20
1,66,98,16
1,66,81,32
1,59,81,20
1,59,74,20
2,35,90,15512
2,35,92,64
2,35,115,48
2,47,102,20
2,47,102,40
2,35,87,32
2,35,87,40
2,35,104,56
2,47,107,24
2,47,104,84
2,35,81,56
2,35,92,44
2,35,96,52
2,47,104,48
2,47,107,80
2,35,86,36
2,35,91,52
2,35,92,56
2,47,104,32
2,47,107,84
2,35,92,60
2,35,91,56
2,35,103,60
2,47,104,32
2,47,103,80
2,35,84,40
2,35,93,56
2,35,102,52
2,47,104,24
2,47,110,80
2,30,86,40
2,30,76,48
2,30,110,56
2,42,96,32
2,42,100,88
2,30,91,16
2,30,92,36
2,30,100,52
2,42,106,60
2,42,110,68
2,30,104,40
2,30,98,40
2,30,93,48
2,42,84,48
2,42,93,84
2,30,82,24
2,30,89,36
2,30,110,56
2,42,98,28
2,42,110,72
2,30,127,28
2,30,80,52
2,30,112,52
2,42,85,16
2,42,102,84
2,30,92,28
2,30,94,48
2,30,103,48
2,42,82,28
2,42,98,80
2,30,117,36
2,30,104,52
2,30,117,56
2,42,100,24
2,42,112,80
2,35,110,48
2,35,115,52
2,35,112,52
2,47,100,28
2,47,103,68
2,35,100,32
2,35,103,48
2,35,88,48
2,47,104,12
2,47,103,84
2,37,92,48
2,37,100,56
2,37,107,36
2,49,96,12
2,49,85,84
2,37,117,12
2,37,102,52
2,37,103,48
2,49,98,192
2,49,94,48
2,30,107,36
2,30,107,52
2,30,100,48
2,42,103,20
2,42,104,76
2,30,125,32
2,30,102,48
2,30,91,48
2,42,104,188
2,42,103,68
2,37,60,32
2,37,91,52
2,37,100,52
2,49,91,12
2,49,89,80
2,37,115,28
2,37,96,36
2,37,87,48
2,49,104,24
2,49,103,72
2,30,127,16
2,30,104,52
2,30,94,48
2,42,98,40
2,42,117,80
2,30,117,28
2,30,112,52
2,30,103,48
2,42,104,28
2,42,110,72
2,30,110,60
2,37,79,176
2,37,85,92
2,49,79,192
2,37,83,160
2,37,89,124
2,49,80,16
2,49,82,116
2,37,86,188
2,37,87,112
2,37,80,112
2,49,77,8
2,37,86,0
2,37,88,128
2,49,84,4
2,49,81,120
2,37,90,192
2,35,91,188
2,35,96,120
2,47,103,196
2,35,91,0
2,35,98,132
2,47,87,16
2,47,91,112
2,35,100,0
2,35,92,124
2,35,90,132
2,47,84,192
2,35,89,168
2,35,93,140
2,47,82,4
2,47,102,116
2,35,92,0
2,37,82,32
2,37,81,104
2,49,76,4
2,37,84,192
2,37,85,132
2,49,80,28
2,49,88,128
2,37,82,188
2,37,85,116
2,37,89,124
2,49,77,4
2,37,84,4
2,37,82,124
2,49,82,0
2,49,93,128
2,37,92,192
2,35,90,188
2,35,89,112
2,47,89,192
2,35,85,168
2,35,91,132
2,47,91,192
2,47,89,120
2,35,91,0
2,35,91,132
2,35,91,132
2,47,82,192
2,35,91,168
2,35,85,136
2,47,78,52
2,47,91,140
2,35,91,32
2,32,90,32
2,32,98,108
2,44,84,192
2,32,96,184
2,32,98,112
2,32,91,100
2,44,92,4
2,44,84,52
2,28,87,32
2,28,89,92
2,40,92,192
2,28,89,180
2,28,90,120
2,28,96,104
2,40,91,192
2,40,98,52
2,32,89,12
2,32,80,104
2,44,91,32
2,32,91,192
2,28,89,44
2,28,100,40
2,40,88,12
2,30,104,192
2,30,96,48
2,42,85,12
2,32,104,188
2,32,91,116
2,44,90,192
2,32,92,180
2,32,93,128
2,32,103,128
2,44,87,8
2,44,91,64
2,28,85,20
2,28,89,108
2,40,94,192
2,28,84,168
2,28,89,132
2,28,90,132
2,40,98,56
2,37,91,16
2,37,90,56
2,37,112,56
2,49,84,24
2,49,90,52
2,37,89,8
2,37,84,40
2,37,93,48
2,49,96,24
2,49,89,48
2,30,91,24
2,30,77,44
2,30,93,52
2,42,90,188
2,42,86,52
2,30,93,4
2,30,79,48
2,30,103,56
2,42,87,0
2,42,100,64
2,37,86,4
2,37,96,48
2,37,91,48
2,49,87,192
2,49,84,76
2,37,107,16
2,37,107,52
2,37,98,36
2,49,90,188
2,49,86,56
2,30,112,32
2,30,78,52
2,30,127,48
2,30,127,176
2,35,98,88
2,35,88,64
2,35,107,40
2,47,104,200
2,47,102,48
2,35,87,4
2,35,92,68
2,35,104,44
2,47,100,0
2,47,103,72
2,35,77,32
2,35,91,64
2,35,107,48
2,47,94,4
2,47,104,88
2,35,98,0
2,35,93,68
2,35,100,56
2,47,90,16
2,47,98,72
2,35,82,8
2,35,93,60
2,35,98,40
2,47,94,24
2,47,98,68
2,35,83,20
2,35,96,72
2,35,98,52
2,47,85,180
2,47,93,80
2,30,84,4
2,30,84,48
2,30,85,32
2,42,89,180
2,42,85,68
2,30,94,184
2,30,84,64
2,30,87,48
2,42,91,180
2,42,91,56
2,30,61,12
2,30,88,64
2,30,85,48
2,42,85,172
2,42,84,84
2,30,84,176
2,30,84,60
2,30,96,68
2,42,86,0
2,42,88,72
2,30,107,180
2,30,80,64
2,30,91,44
2,42,84,8
2,42,89,64
2,30,100,172
2,30,88,72
2,30,87,60
2,42,88,12
2,42,91,72
2,30,86,4
2,30,80,88
2,42,92,244
2,42,89,56
2,35,87,48
2,35,87,72
2,35,104,56
2,47,104,24
2,47,104,68
2,35,81,4
2,35,93,68
2,35,91,80
2,47,107,176
2,47,103,76
2,35,91,20
2,35,81,80
2,35,115,56
2,47,102,4
2,47,104,96
2,35,93,8
2,35,100,68
2,35,102,60
2,47,110,172
2,47,104,104
2,35,117,44
2,35,120,64
2,35,107,48
2,47,102,4
2,47,102,40
2,35,87,32
2,35,87,40
2,35,104,56
2,47,107,24
2,47,104,84
2,35,81,56
2,35,92,44
2,35,96,52
2,47,104,48
2,47,107,80
2,35,86,36
2,35,91,52
2,35,92,56
2,47,104,32
2,47,107,84
2,35,92,60
2,35,91,56
2,35,103,60
2,47,104,32
2,47,103,80
2,35,84,40
2,35,93,56
2,35,102,52
2,47,104,24
2,47,110,80
2,30,86,40
2,30,76,48
2,30,110,56
2,42,96,32
2,42,100,88
2,30,91,16
2,30,92,36
2,30,100,52
2,42,106,60
2,42,110,68
2,30,104,40
2,30,98,40
2,30,93,48
2,42,84,48
2,42,93,84
2,30,82,24
2,30,89,36
2,30,110,56
2,42,98,28
2,42,110,72
2,30,127,28
2,30,80,52
2,30,112,52
2,42,85,16
2,42,102,84
2,30,92,28
2,30,94,48
2,30,103,48
2,42,82,28
2,42,98,80
2,30,117,36
2,30,104,52
2,30,117,56
2,42,100,24
2,42,112,80
2,35,110,48
2,35,115,52
2,35,112,52
2,47,100,28
2,47,103,68
2,35,100,32
2,35,103,48
2,35,88,48
2,47,104,12
2,47,103,84
2,37,92,48
2,37,100,56
2,37,107,36
2,49,96,12
2,49,85,84
2,37,117,12
2,37,102,52
2,37,103,48
2,49,98,192
2,49,94,48
2,30,107,36
2,30,107,52
2,30,100,48
2,42,103,20
2,42,104,76
2,30,125,32
2,30,102,48
2,30,91,48
2,42,104,188
2,42,103,68
2,37,60,32
2,37,91,52
2,37,100,52
2,49,91,12
2,49,89,80
2,37,115,28
2,37,96,36
2,37,87,48
2,49,104,24
2,49,103,72
2,30,127,16
2,30,104,52
2,30,94,48
2,42,98,40
2,42,117,80
2,30,117,28
2,30,112,52
2,30,103,48
2,42,104,28
2,42,110,72
2,30,110,60
2,37,79,176
2,37,85,92
2,49,79,192
2,37,83,160
2,37,89,124
2,49,80,16
2,49,82,116
2,37,86,188
2,37,87,112
2,37,80,112
2,49,77,8
2,37,86,0
2,37,88,128
2,49,84,4
2,49,81,120
2,37,90,192
2,35,91,188
2,35,96,120
2,47,103,196
2,35,91,0
2,35,98,132
2,47,87,16
2,47,91,112
2,35,100,0
2,35,92,124
2,35,90,132
2,47,84,192
2,35,89,168
2,35,93,140
2,47,82,4
2,47,102,116
2,35,92,0
2,37,82,32
2,37,81,104
2,49,76,4
2,37,84,192
2,37,85,132
2,49,80,28
2,49,88,128
2,37,82,188
2,37,85,116
2,37,89,124
2,49,77,4
2,37,84,4
2,37,82,124
2,49,82,0
2,49,93,128
2,37,92,192
2,35,90,188
2,35,89,112
2,47,89,192
2,35,85,168
2,35,91,132
2,47,91,192
2,47,89,120
2,35,91,0
2,35,91,132
2,35,91,132
2,47,82,192
2,35,91,168
2,35,85,136
2,47,78,52
2,47,91,140
2,35,91,32
2,32,90,32
2,32,98,108
2,44,84,192
2,32,96,184
2,32,98,112
2,32,91,100
2,44,92,4
2,44,84,52
2,28,87,32
2,28,89,92
2,40,92,192
2,28,89,180
2,28,90,120
2,28,96,104
2,40,91,192
2,40,98,52
2,32,89,12
2,32,80,104
2,44,91,32
2,32,91,192
2,28,89,44
2,28,100,40
2,40,88,12
2,30,104,192
2,30,96,48
2,42,85,12
2,32,104,188
2,32,91,116
2,44,90,192
2,32,92,180
2,32,93,128
2,32,103,128
2,44,87,8
2,44,91,64
2,28,85,20
2,28,89,108
2,40,94,192
2,28,84,168
2,28,89,132
2,28,90,132
2,40,98,56
2,37,91,16
2,37,90,56
2,37,112,56
2,49,84,24
2,49,90,52
2,37,89,8
2,37,84,40
2,37,93,48
2,49,96,24
2,49,89,48
2,30,91,24
2,30,77,44
2,30,93,52
2,42,90,188
2,42,86,52
2,30,93,4
2,30,79,48
2,30,103,56
2,42,87,0
2,42,100,64
2,37,86,4
2,37,96,48
2,37,91,48
2,49,87,192
2,49,84,76
2,37,107,16
2,37,107,52
2,37,98,36
2,49,90,188
2,49,86,56
2,30,112,32
2,30,78,52
2,30,127,48
2,30,127,176
2,35,98,88
2,35,88,64
2,35,107,40
2,47,104,200
2,47,102,48
2,35,87,4
2,35,92,68
2,35,104,44
2,47,100,0
2,47,103,72
2,35,77,32
2,35,91,64
2,35,107,48
2,47,94,4
2,47,104,88
2,35,98,0
2,35,93,68
2,35,100,56
2,47,90,16
2,47,98,72
2,35,82,8
2,35,93,60
2,35,98,40
2,47,94,24
2,47,98,68
2,35,83,20
2,35,96,72
2,35,98,52
2,47,85,180
2,47,93,80
2,30,84,4
2,30,84,48
2,30,85,32
2,42,89,180
2,42,85,68
2,30,94,184
2,30,84,64
2,30,87,48
2,42,91,180
2,42,91,56
2,30,61,12
2,30,88,64
2,30,85,48
2,42,85,172
2,42,84,84
2,30,84,176
2,30,84,60
2,30,96,68
2,42,86,0
2,42,88,72
2,30,107,180
2,30,80,64
2,30,91,44
2,42,84,8
2,42,89,64
2,30,100,172
2,30,88,72
2,30,87,60
2,42,88,12
2,42,91,72
2,30,86,4
2,30,80,88
2,42,92,244
2,42,89,56
2,35,87,48
2,35,87,72
2,35,104,56
2,47,104,24
2,47,104,68
2,35,81,4
2,35,93,68
2,35,91,80
2,47,107,176
2,47,103,76
2,35,91,20
2,35,81,80
2,35,115,56
2,47,102,4
2,47,104,96
2,35,93,8
2,35,100,68
2,35,102,60
2,47,110,172
2,47,104,104
2,35,107,240
2,47,104,200
2,47,102,48
2,35,87,4
2,35,92,68
2,35,104,44
2,47,100,0
2,47,103,72
2,35,77,32
2,35,91,64
2,35,107,48
2,47,94,4
2,47,104,88
2,35,98,0
2,35,93,68
2,35,100,56
2,47,90,16
2,47,98,72
2,35,82,8
2,35,93,60
2,35,98,40
2,47,94,24
2,47,98,68
2,35,83,20
2,35,96,72
2,35,98,52
2,47,85,180
2,47,93,80
2,30,84,4
2,30,84,48
2,30,85,32
2,42,89,180
2,42,85,68
2,30,94,184
2,30,84,64
2,30,87,48
2,42,91,180
2,42,91,56
2,30,61,12
2,30,88,64
2,30,85,48
2,42,85,172
2,42,84,84
2,30,84,176
2,30,84,60
2,30,96,68
2,42,86,0
2,42,88,72
2,30,107,180
2,30,80,64
2,30,91,44
2,42,84,8
2,42,89,64
2,30,100,172
2,30,88,72
