track,note,velocity,time
0,95,87,1920
0,93,87,8
0,95,76,2
0,93,73,4
0,91,77,12
0,91,78,4
0,89,70,14
0,89,52,4
0,88,69,0
0,88,75,4
0,86,74,2
0,86,80,0
0,84,77,14
0,84,85,0
0,83,82,0
0,83,44,6
0,81,81,0
0,81,46,4
0,79,75,0
0,79,47,4
0,77,72,0
0,77,46,2
0,76,69,6
0,76,61,2
0,74,41,2
0,72,70,6
0,74,44,0
0,71,67,6
0,72,43,2
0,69,72,2
0,71,42,4
0,67,69,0
0,69,39,0
0,65,62,0
0,67,37,2
0,64,67,0
0,65,35,4
0,64,36,8
0,62,34,2
0,60,33,12
0,62,49,0
0,59,54,2
0,60,55,0
0,57,56,4
0,59,55,2
0,36,115,6
0,42,98,0
0,69,54,0
0,33,110,0
0,73,75,0
0,64,75,0
0,69,75,0
0,73,101,0
0,61,83,34
0,64,83,0
0,69,81,0
0,64,61,0
0,69,65,0
0,44,97,10
0,69,48,0
0,69,51,32
0,33,108,0
0,64,70,0
0,69,66,0
0,38,111,34
0,42,102,0
0,69,61,0
0,33,110,0
0,61,76,0
0,64,81,0
0,69,83,0
0,64,69,0
0,69,73,0
0,44,104,38
0,69,49,0
0,33,113,0
0,64,67,0
0,69,69,0
0,69,48,42
0,61,82,0
0,64,83,0
0,69,83,0
0,64,70,0
0,69,61,0
0,36,111,0
0,42,100,0
0,69,57,0
0,64,67,48
0,69,54,0
0,44,102,44
0,69,51,0
0,40,111,0
0,61,75,0
0,64,79,0
0,69,79,0
0,64,69,0
0,69,73,0
0,69,51,24
0,38,108,2
0,42,100,0
0,69,58,0
0,45,111,0
0,71,76,0
0,64,70,0
0,69,67,0
0,71,94,0
0,64,66,36
0,69,68,0
0,44,101,30
0,69,48,0
0,64,73,0
0,69,61,0
0,69,51,32
0,64,65,0
0,69,68,0
0,36,108,2
0,42,98,0
0,69,58,0
0,33,110,0
0,74,71,0
0,66,69,0
0,69,67,0
0,74,97,0
0,62,78,32
0,66,79,0
0,69,83,0
0,66,59,0
0,69,68,0
0,44,100,14
0,69,51,0
0,69,49,46
0,33,105,0
0,66,68,0
0,69,66,0
0,38,110,30
0,42,97,0
0,69,57,0
0,33,108,0
0,62,74,0
0,66,79,0
0,69,79,0
0,66,68,0
0,69,73,0
0,44,106,14
0,69,51,0
0,33,108,0
0,66,67,0
0,69,61,0
0,69,49,34
0,62,77,0
0,66,81,0
0,69,81,0
0,66,68,0
0,69,72,0
0,36,113,8
0,42,100,0
0,69,54,0
0,38,110,24
0,66,60,0
0,69,61,0
0,44,104,32
0,69,54,0
0,28,111,0
0,62,79,0
0,66,77,0
0,69,78,0
0,66,67,0
0,69,69,0
0,69,54,6
0,38,113,2
0,42,100,0
0,69,60,0
0,30,105,0
0,73,76,0
0,66,62,0
0,69,64,0
0,73,103,0
0,71,73,0
0,66,69,0
0,69,69,0
0,71,99,0
0,44,106,38
0,69,49,0
0,33,107,0
0,66,66,0
0,69,60,0
0,69,54,26
0,69,70,0
0,66,68,0
0,69,67,0
0,69,95,0
0,36,113,2
0,42,100,0
0,69,57,0
0,33,110,0
0,71,73,0
0,64,69,0
0,69,68,0
0,71,99,0
0,61,82,24
0,64,83,0
0,69,82,0
0,64,67,0
0,69,72,0
0,44,102,10
0,69,51,0
0,69,54,46
0,33,108,0
0,64,68,0
0,69,65,0
0,38,110,2
0,42,98,0
0,69,52,0
0,33,110,0
0,61,82,0
0,64,84,0
0,69,82,0
0,73,71,0
0,64,69,0
0,69,70,0
0,73,87,0
0,44,104,50
0,69,48,0
0,33,113,0
0,64,69,0
0,69,65,0
0,69,55,34
0,61,82,0
0,64,85,0
0,69,83,0
0,64,68,0
0,69,73,0
0,36,113,4
0,42,100,0
0,69,55,0
0,64,65,14
0,69,60,0
0,44,104,30
0,69,45,0
0,40,111,0
0,61,78,0
0,64,81,0
0,69,79,0
0,64,73,0
0,69,70,0
0,69,55,8
0,85,103,0
0,88,103,0
0,93,97,0
0,38,108,52
0,42,98,0
0,69,55,0
0,45,111,0
0,85,103,0
0,88,102,0
0,93,96,0
0,64,73,0
0,69,61,0
0,64,66,6
0,69,66,0
0,44,102,40
0,69,48,0
0,64,70,0
0,69,56,0
0,69,51,2
0,83,97,0
0,88,96,0
0,92,103,0
0,64,64,0
0,69,67,0
0,36,113,30
0,42,98,0
0,69,54,0
0,33,110,0
0,83,94,0
0,88,98,0
0,92,101,0
0,66,69,0
0,69,65,0
0,62,77,20
0,66,81,0
0,69,82,0
0,66,67,0
0,69,72,0
0,44,102,2
0,69,46,0
0,69,51,28
0,33,105,0
0,81,89,0
0,86,97,0
0,90,102,0
0,66,64,0
0,69,61,0
0,38,111,14
0,42,97,0
0,69,54,0
0,33,108,0
0,81,83,0
0,86,94,0
0,90,101,0
0,62,77,0
0,66,82,0
0,69,82,0
0,66,69,0
0,69,72,0
0,44,104,40
0,69,49,0
0,33,108,0
0,66,54,0
0,69,62,0
0,69,55,40
0,62,76,0
0,66,82,0
0,69,81,0
0,66,69,0
0,69,68,0
0,36,115,10
0,42,97,0
0,69,55,0
0,38,111,26
0,66,59,0
0,69,57,0
0,44,106,12
0,69,48,0
0,28,111,0
0,62,79,0
0,66,83,0
0,69,83,0
0,66,69,0
0,69,72,0
0,69,54,10
0,38,111,24
0,42,97,0
0,69,57,0
0,30,105,0
0,66,66,0
0,69,58,0
0,66,72,0
0,69,67,0
0,36,106,10
0,46,106,0
0,69,49,0
0,33,107,0
0,66,70,0
0,69,54,0
0,69,51,22
0,66,70,0
0,69,64,0
0,36,113,34
0,42,100,0
0,69,55,0
0,33,110,0
0,73,74,0
0,64,72,0
0,69,58,0
0,73,102,0
0,61,83,18
0,64,84,0
0,69,83,0
0,64,69,0
0,69,65,0
0,44,102,10
0,69,46,0
0,69,54,50
0,33,108,0
0,64,69,0
0,69,61,0
0,38,113,30
0,42,98,0
0,69,55,0
0,33,110,0
0,61,82,0
0,64,83,0
0,69,81,0
0,64,69,0
0,69,66,0
0,44,103,54
0,69,48,0
0,33,113,0
0,64,68,0
0,69,65,0
0,69,55,34
0,61,83,0
0,64,84,0
0,69,83,0
0,64,69,0
0,69,69,0
0,36,111,4
0,42,98,0
0,69,51,0
0,64,62,32
0,69,64,0
0,44,106,38
0,69,46,0
0,40,111,0
0,61,83,0
0,64,85,0
0,69,83,0
0,64,69,0
0,69,68,0
0,69,52,14
0,38,110,6
0,42,100,0
0,69,54,0
0,45,111,0
0,71,71,0
0,64,72,0
0,69,62,0
0,71,100,0
0,64,66,4
0,69,65,0
0,44,103,28
0,69,48,0
0,64,68,0
0,69,59,0
0,69,57,34
0,64,64,0
0,69,56,0
0,36,115,2
0,42,97,0
0,69,57,0
0,33,110,0
0,74,77,0
0,66,67,0
0,69,64,0
0,74,99,0
0,62,81,26
0,66,83,0
0,69,83,0
0,66,66,0
0,69,67,0
0,44,106,10
0,69,48,0
0,69,52,50
0,33,105,0
0,66,64,0
0,69,62,0
0,38,110,30
0,42,97,0
0,69,54,0
0,33,108,0
0,62,79,0
0,66,83,0
0,69,82,0
0,66,70,0
0,69,68,0
0,44,104,48
0,69,49,0
0,33,108,0
0,66,67,0
0,69,64,0
0,69,54,34
0,62,78,0
0,66,84,0
0,69,79,0
0,66,72,0
0,69,64,0
0,36,113,6
0,42,98,0
0,69,54,0
0,66,66,36
0,69,59,0
0,44,104,40
0,69,46,0
0,28,111,0
0,62,79,0
0,66,83,0
0,69,84,0
0,66,70,0
0,69,69,0
0,69,52,10
0,38,108,2
0,42,100,0
0,69,58,0
0,30,105,0
0,73,79,0
0,66,62,0
0,69,62,0
0,73,106,0
0,71,74,0
0,66,67,0
0,69,67,0
0,71,97,0
0,44,106,30
0,69,44,0
0,33,107,0
0,66,64,0
0,69,58,0
0,69,58,8
0,69,71,0
0,66,69,0
0,69,64,0
0,69,93,0
0,36,113,2
0,42,95,0
0,69,58,0
0,33,111,0
0,71,73,0
0,64,69,0
0,69,58,0
0,71,95,0
0,68,81,26
0,71,85,0
0,76,80,0
0,68,83,0
0,71,89,0
0,76,85,0
0,64,66,0
0,69,62,0
0,44,103,0
0,69,49,0
0,69,52,40
0,33,105,0
0,64,68,0
0,69,60,0
0,38,110,22
0,42,97,0
0,69,52,0
0,33,107,0
0,68,79,0
0,71,84,0
0,76,82,0
0,68,83,0
0,71,89,0
0,76,86,0
0,73,73,0
0,64,68,0
0,69,67,0
0,73,99,0
0,44,106,18
0,69,44,0
0,33,110,0
0,64,68,0
0,69,61,0
0,69,54,38
0,69,82,0
0,73,83,0
0,76,82,0
0,69,86,0
0,73,86,0
0,76,85,0
0,64,72,0
0,69,69,0
0,36,113,0
0,42,93,0
0,69,54,0
0,64,64,4
0,69,55,0
0,44,103,36
0,69,48,0
0,33,106,0
0,64,69,0
0,69,69,0
0,69,54,12
0,38,110,2
0,42,95,0
0,69,55,0
0,32,106,0
0,68,82,0
0,71,85,0
0,76,80,0
0,68,83,0
0,71,84,0
0,76,81,0
0,71,73,0
0,64,70,0
0,68,68,0
0,71,115,0
0,64,66,4
0,68,69,0
0,44,105,38
0,69,46,0
0,64,66,0
0,68,50,0
0,69,52,36
0,64,65,0
0,68,64,0
0,36,113,2
0,42,95,0
0,69,54,0
0,30,107,0
0,66,101,0
0,69,104,0
0,74,98,0
0,66,81,0
0,69,89,0
0,74,87,0
0,73,75,0
0,66,68,0
0,69,68,0
0,73,106,0
0,71,78,2
0,66,68,0
0,69,69,0
0,71,110,0
0,44,95,2
0,69,42,0
0,69,73,0
0,69,109,0
0,69,48,48
0,30,107,0
0,66,86,0
0,69,90,0
0,74,87,0
0,66,69,0
0,69,55,0
0,38,111,22
0,42,95,0
0,69,54,0
0,30,107,0
0,66,70,0
0,69,72,0
0,44,106,90
0,69,44,0
0,28,110,0
0,64,101,0
0,69,98,0
0,73,100,0
0,69,87,0
0,73,87,0
0,76,87,0
0,64,70,0
0,69,54,0
0,69,52,34
0,64,67,0
0,69,74,0
0,36,115,2
0,42,98,0
0,69,54,0
0,38,113,12
0,64,69,0
0,69,56,0
0,44,101,10
0,69,48,0
0,28,109,0
0,64,72,0
0,69,69,0
0,69,49,2
0,38,113,36
0,42,100,0
0,69,58,0
0,33,108,0
0,69,81,0
0,73,80,0
0,76,75,0
0,64,66,0
0,69,61,0
0,64,67,18
0,69,67,0
0,36,104,32
0,46,108,0
0,69,45,0
0,64,67,0
0,69,48,0
0,69,54,8
0,64,67,0
0,69,68,0
0,36,113,12
0,42,100,0
0,69,55,0
0,28,115,0
0,59,106,0
0,64,97,0
0,68,94,0
0,71,90,0
0,73,126,0
0,69,111,0
0,68,81,0
0,80,91,0
0,44,102,88
0,69,46,0
0,69,54,46
0,28,107,0
0,59,99,0
0,64,95,0
0,68,91,0
0,71,87,0
0,38,113,32
0,42,98,0
0,69,55,0
0,28,111,0
0,71,123,0
0,68,106,0
0,44,103,36
0,69,48,0
0,28,113,0
0,59,103,0
0,64,97,0
0,68,93,0
0,71,94,0
0,71,124,0
0,68,105,0
0,69,55,46
0,36,111,50
0,42,98,0
0,69,51,0
0,44,106,58
0,69,46,0
0,40,111,0
0,59,101,0
0,64,93,0
0,68,91,0
0,71,91,0
0,69,52,24
0,38,110,46
0,42,100,0
0,69,54,0
0,40,113,0
0,59,103,0
0,64,99,0
0,68,96,0
0,71,95,0
0,35,110,4
0,44,103,4
0,69,48,0
0,69,89,0
0,81,83,0
0,69,57,10
0,37,90,0
0,36,115,4
0,42,97,0
0,69,57,0
0,37,110,0
0,61,97,0
0,65,95,0
0,68,93,0
0,71,90,0
0,73,123,0
0,69,111,0
0,68,88,0
0,80,89,0
0,44,106,52
0,69,48,0
0,69,52,50
0,37,106,0
0,61,95,0
0,65,93,0
0,68,91,0
0,71,81,0
0,38,110,26
0,42,97,0
0,69,54,0
0,37,103,0
0,71,124,0
0,68,107,0
0,44,104,34
0,69,49,0
0,37,109,0
0,61,94,0
0,65,94,0
0,68,90,0
0,71,88,0
0,71,123,0
0,68,108,0
0,69,54,46
0,36,113,52
0,42,98,0
0,69,54,0
0,37,109,0
0,44,104,6
0,69,46,0
0,39,108,0
0,61,95,0
0,65,79,0
0,68,89,0
0,71,88,0
0,73,122,0
0,69,107,0
0,69,89,0
0,81,86,0
0,69,52,28
0,38,108,2
0,42,100,0
0,69,58,0
0,41,109,0
0,61,97,0
0,65,97,0
0,68,95,0
0,71,94,0
0,71,86,0
0,83,83,0
0,44,106,2
0,69,44,0
0,37,106,0
0,73,91,0
0,85,84,0
0,69,58,18
0,41,93,0
0,36,113,6
0,42,95,0
0,69,58,0
0,42,108,0
0,61,97,0
0,66,91,0
0,69,91,0
0,73,95,0
0,69,126,0
0,69,110,0
0,69,105,0
0,69,102,0
0,81,103,0
0,44,103,78
0,69,49,0
0,69,52,2
0,42,105,0
0,61,96,0
0,66,90,0
0,69,95,0
0,73,83,0
0,71,122,0
0,71,106,0
0,71,99,0
0,71,101,0
0,83,98,0
0,38,110,40
0,42,97,0
0,69,52,0
0,42,106,0
0,44,106,2
0,69,44,0
0,42,109,0
0,61,101,0
0,66,91,0
0,69,95,0
0,73,91,0
0,68,120,0
0,68,105,0
0,68,97,0
0,68,98,0
0,80,102,0
0,69,54,42
0,36,113,2
0,42,93,0
0,69,54,0
0,69,119,0
0,69,106,0
0,69,105,0
0,69,103,0
0,81,99,0
0,44,103,100
0,69,48,0
0,42,108,0
0,61,94,0
0,66,85,0
0,69,91,0
0,73,89,0
0,69,54,2
0,71,120,0
0,71,103,0
0,71,101,0
0,71,100,0
0,83,98,0
0,38,110,52
0,42,95,0
0,69,55,0
0,61,98,0
0,66,93,0
0,69,90,0
0,73,94,0
0,44,105,2
0,69,46,0
0,40,105,0
0,68,115,0
0,68,97,0
0,68,95,0
0,68,100,0
0,80,101,0
0,69,52,22
0,36,113,2
0,42,95,0
0,69,54,0
0,39,110,0
0,59,104,0
0,63,97,0
0,66,94,0
0,71,89,0
0,69,114,0
0,69,98,0
0,69,106,0
0,69,100,0
0,81,100,0
0,68,119,2
0,68,97,0
0,44,95,2
0,69,42,0
0,66,118,0
0,66,93,0
0,69,48,2
0,39,107,0
0,59,99,0
0,63,97,0
0,66,96,0
0,71,95,0
0,71,103,0
0,71,101,0
0,83,98,0
0,38,111,32
0,42,95,0
0,69,54,0
0,39,107,0
0,44,106,2
0,69,44,0
0,39,109,0
0,59,103,0
0,63,95,0
0,66,94,0
0,71,97,0
0,73,106,0
0,73,99,0
0,85,100,0
0,69,52,24
0,36,115,2
0,42,98,0
0,69,54,0
0,73,126,0
0,75,107,0
0,75,101,0
0,87,98,0
0,38,113,2
0,44,101,36
0,69,48,0
0,39,108,0
0,59,96,0
0,63,93,0
0,66,89,0
0,71,96,0
0,69,49,2
0,76,106,0
0,76,97,0
0,88,99,0
0,38,113,2
0,42,100,0
0,69,58,0
0,59,99,0
0,63,96,0
0,66,95,0
0,71,98,0
0,71,120,0
0,36,104,2
0,46,108,0
0,69,45,0
0,69,116,0
0,78,108,0
0,78,101,0
0,90,99,0
0,69,54,38
0,36,113,2
0,42,95,0
0,69,58,0
0,38,110,0
0,57,97,0
0,62,93,0
0,66,90,0
0,69,91,0
0,68,126,0
0,62,108,0
0,76,108,0
0,76,86,0
0,88,83,0
0,44,103,78
0,69,49,0
0,69,52,30
0,38,107,0
0,57,95,0
0,62,93,0
0,66,93,0
0,69,89,0
0,38,110,32
0,42,97,0
0,69,52,0
0,38,101,0
0,69,120,0
0,62,107,0
0,44,106,32
0,69,44,0
0,38,109,0
0,57,94,0
0,62,94,0
0,66,89,0
0,69,91,0
0,69,123,0
0,62,109,0
0,69,54,24
0,36,113,24
0,42,93,0
0,69,54,0
0,44,103,36
0,69,48,0
0,38,110,0
0,57,90,0
0,62,89,0
0,66,91,0
0,69,95,0
0,69,54,22
0,38,110,14
0,42,95,0
0,69,55,0
0,57,91,0
0,62,94,0
0,66,93,0
