track,note,velocity,time
0,31,101,0
0,43,116,0
0,43,92,4
0,43,116,0
0,31,95,15
0,43,119,2
0,43,89,5
0,43,119,0
0,31,101,16
0,43,116,0
0,43,89,3
0,43,116,2
0,31,105,17
0,43,119,0
0,43,89,3
0,43,119,2
0,43,122,16
0,31,108,1
0,43,89,3
0,43,122,1
0,31,108,19
0,43,124,0
0,43,89,4
0,43,124,1
0,43,122,20
0,31,108,1
0,43,89,3
0,43,122,1
0,41,114,0
0,29,105,1
0,41,81,3
0,41,114,1
0,42,107,2
0,30,105,1
0,42,79,1
0,42,107,0
0,31,108,1
0,43,119,0
0,43,89,5
0,43,119,0
0,31,119,16
0,43,116,0
0,43,86,5
0,43,116,0
0,31,98,17
0,43,119,0
0,43,81,5
0,43,119,0
0,43,119,17
0,31,105,1
0,43,92,4
0,43,119,0
0,43,119,16
0,31,101,1
0,43,89,4
0,43,119,0
0,43,119,16
0,31,105,2
0,43,89,3
0,43,119,0
0,43,119,19
0,31,108,1
0,43,94,4
0,43,119,0
0,29,101,3
0,41,114,0
0,41,84,5
0,41,114,0
0,30,98,1
0,42,103,0
0,42,79,0
0,42,103,0
0,31,108,1
0,43,119,0
0,43,86,5
0,43,119,0
0,31,114,15
0,43,116,0
0,43,86,5
0,43,116,0
0,31,108,17
0,43,119,0
0,43,86,5
0,43,119,0
0,43,116,16
0,31,105,2
0,43,89,3
0,43,116,0
0,43,119,17
0,31,108,2
0,43,89,3
0,43,119,0
0,43,116,18
0,31,105,2
0,43,89,3
0,43,116,0
0,43,122,18
0,31,108,2
0,43,89,3
0,43,122,0
0,41,111,9
0,29,105,1
0,41,79,3
0,41,111,1
0,30,92,1
0,42,106,0
0,42,76,1
0,42,106,0
0,31,108,1
0,43,119,0
0,43,86,5
0,43,119,0
0,31,114,16
0,43,116,2
0,43,86,3
0,43,116,2
0,31,108,18
0,43,119,2
0,43,92,3
0,43,119,2
0,29,114,10
0,41,119,1
0,41,86,3
0,41,119,2
0,31,108,13
0,43,116,0
0,43,86,5
0,43,116,0
0,29,114,1
0,41,116,0
0,40,107,1
0,41,86,3
0,41,116,0
0,31,114,2
0,43,116,0
0,35,112,1
0,40,118,0
0,43,89,3
0,43,116,0
0,41,114,16
0,40,118,1
0,29,105,0
0,41,81,3
0,41,114,0
0,40,122,3
0,42,109,0
0,30,105,0
0,42,79,1
0,42,109,1
0,35,122,2
0,42,63,0
0,31,105,0
0,43,119,0
0,43,89,3
0,43,119,2
0,42,46,17
0,42,46,15
0,31,105,1
0,43,119,0
0,43,86,3
0,43,119,2
0,42,56,17
0,35,122,16
0,40,118,0
0,42,72,0
0,31,101,0
0,43,116,0
0,43,89,2
0,43,116,2
0,42,42,1
0,42,48,18
0,31,108,0
0,43,119,0
0,43,89,3
0,43,119,1
0,42,50,2
0,35,118,18
0,42,59,0
0,31,98,0
0,43,122,0
0,43,86,3
0,43,122,1
0,42,56,1
0,43,116,16
0,42,48,2
0,31,105,0
0,43,89,2
0,43,116,0
0,42,56,3
0,43,119,19
0,35,112,1
0,40,122,0
0,42,59,0
0,31,108,0
0,43,86,2
0,43,119,0
0,42,48,21
0,46,78,11
0,29,108,0
0,41,114,0
0,41,84,4
0,41,114,0
0,30,98,1
0,42,109,0
0,42,77,4
0,42,109,0
0,43,116,2
0,35,118,1
0,42,63,0
0,31,108,0
0,43,86,2
0,43,116,0
0,42,50,21
0,42,56,16
0,43,111,0
0,31,108,1
0,43,86,3
0,43,111,0
0,42,50,1
0,43,116,14
0,35,112,1
0,40,118,0
0,42,59,0
0,31,105,0
0,43,79,2
0,43,116,0
0,42,48,2
0,42,56,17
0,43,116,0
0,31,108,1
0,43,86,3
0,43,116,0
0,42,46,1
0,42,63,15
0,43,116,0
0,35,112,0
0,31,105,0
0,43,116,3
0,43,92,1
0,42,46,2
0,42,50,17
0,43,119,0
0,31,101,0
0,43,119,4
0,43,89,1
0,42,48,1
0,42,59,18
0,31,114,0
0,43,119,0
0,35,118,0
0,40,118,0
0,43,86,3
0,43,119,0
0,42,50,2
0,42,50,1
0,29,98,0
0,41,111,0
0,41,81,4
0,41,111,0
0,30,98,1
0,42,109,0
0,42,50,2
0,42,79,0
0,42,109,0
0,43,119,0
0,35,118,1
0,31,108,0
0,42,59,0
0,43,89,2
0,43,119,0
0,42,50,1
0,42,50,10
0,43,111,0
0,31,105,1
0,43,86,3
0,43,111,0
0,42,63,20
0,43,116,18
0,35,112,1
0,40,122,0
0,42,59,0
0,31,108,0
0,43,86,2
0,43,116,0
0,42,48,2
0,42,56,18
0,43,114,0
0,31,101,1
0,43,89,3
0,43,114,0
0,42,59,1
0,43,114,17
0,35,107,1
0,42,72,0
0,31,101,0
0,43,86,2
0,43,114,0
0,42,50,2
0,42,56,18
0,43,116,0
0,31,101,1
0,43,89,3
0,43,116,0
0,42,56,3
0,43,116,20
0,35,112,1
0,40,125,0
0,42,59,0
0,31,108,0
0,43,89,2
0,43,116,0
0,42,42,21
0,41,107,17
0,45,69,1
0,29,105,0
0,41,79,3
0,41,107,0
0,42,106,3
0,45,73,1
0,30,98,0
0,42,79,2
0,42,106,0
0,43,114,1
0,35,107,1
0,45,98,0
0,42,63,0
0,31,108,0
0,43,86,3
0,43,114,0
0,42,50,4
0,43,111,18
0,42,56,2
0,31,114,0
0,43,86,2
0,43,111,0
0,42,50,4
0,43,116,18
0,35,118,1
0,40,122,0
0,42,59,0
0,31,108,0
0,43,89,2
0,43,116,0
0,42,36,2
0,42,56,5
0,41,114,0
0,29,108,1
0,41,81,3
0,41,114,0
0,42,50,19
0,31,108,10
0,43,116,0
0,35,112,1
0,49,89,0
0,43,86,2
0,43,116,0
0,40,107,12
0,29,108,1
0,41,116,0
0,40,121,2
0,41,84,2
0,41,116,0
0,40,106,11
0,43,116,4
0,35,107,1
0,31,114,0
0,40,122,0
0,43,86,2
0,43,116,0
0,40,121,19
0,29,108,0
0,41,109,0
0,41,79,5
0,41,109,0
0,42,107,0
0,30,101,1
0,42,77,3
0,42,107,0
0,43,116,5
0,35,112,1
0,49,80,0
0,31,108,0
0,43,92,3
0,43,116,0
0,43,112,16
0,31,108,1
0,43,84,3
0,43,112,1
0,50,85,15
0,43,82,0
0,35,112,2
0,40,118,0
0,59,109,0
0,55,104,0
0,62,104,0
0,62,95,0
0,43,109,0
0,42,72,0
0,31,108,0
0,67,96,0
0,71,93,1
0,43,81,1
0,43,109,1
0,42,42,2
0,43,68,1
0,52,95,0
0,64,91,1
0,43,107,1
0,55,91,1
0,60,91,0
0,64,92,0
0,42,48,1
0,31,105,0
0,67,93,0
0,72,92,1
0,43,79,1
0,43,107,0
0,42,50,2
0,50,95,5
0,43,73,0
0,43,109,0
0,35,112,1
0,55,95,0
0,59,98,0
0,62,104,0
0,62,71,0
0,67,95,0
0,42,59,0
0,31,114,0
0,71,95,0
0,43,76,2
0,43,109,0
0,42,56,2
0,50,73,10
0,43,85,1
0,59,80,1
0,55,88,1
0,62,85,0
0,62,92,0
0,43,106,0
0,42,48,1
0,31,101,0
0,67,87,0
0,43,73,1
0,43,106,1
0,42,56,2
0,50,76,9
0,43,76,0
0,43,103,1
0,35,107,1
0,40,122,0
0,62,88,0
0,59,88,0
0,55,98,0
0,42,59,0
0,31,108,0
0,43,72,2
0,43,103,0
0,42,48,1
0,46,78,20
0,62,95,0
0,55,85,0
0,41,93,0
0,59,104,0
0,50,88,0
0,43,85,0
0,29,105,1
0,62,96,1
0,67,95,0
0,41,63,2
0,71,89,0
0,41,93,0
0,42,89,5
0,30,101,1
0,42,60,2
0,42,89,0
0,62,91,4
0,50,71,0
0,59,82,1
0,55,88,0
0,43,96,0
0,35,102,1
0,43,78,0
0,42,63,0
0,31,108,0
0,43,65,2
0,43,96,0
0,42,50,2
0,55,104,1
0,64,109,0
0,60,114,0
0,43,66,0
0,52,104,0
0,42,56,1
0,43,89,0
0,31,108,0
0,64,77,1
0,43,62,3
0,67,88,0
0,43,89,0
0,72,84,1
0,42,50,5
0,43,80,3
0,50,91,0
0,62,95,1
0,59,98,0
0,55,85,0
0,43,90,0
0,35,107,1
0,40,122,0
0,62,81,0
0,42,59,0
0,31,108,0
0,67,93,0
0,71,90,1
0,43,60,1
0,43,90,0
0,42,48,1
0,55,82,1
0,60,98,0
0,64,104,0
0,52,98,0
0,43,82,0
0,42,56,1
0,43,87,0
0,31,101,0
0,64,90,0
0,67,95,3
0,43,59,1
0,72,89,0
0,43,87,0
0,42,46,1
0,43,67,2
0,50,88,0
0,42,63,1
0,43,85,0
0,35,102,0
0,31,101,0
0,59,98,0
0,55,85,0
0,62,98,0
0,43,56,3
0,43,85,0
0,42,46,3
0,50,71,14
0,55,80,1
0,62,88,0
0,43,80,0
0,42,50,1
0,59,91,0
0,31,101,1
0,43,81,0
0,43,54,3
0,43,81,2
0,42,48,1
0,55,74,15
0,62,82,0
0,59,85,0
0,50,71,0
0,43,76,0
0,42,59,1
0,35,107,0
0,40,122,0
0,31,114,0
0,43,81,0
0,62,95,1
0,71,55,1
0,67,95,0
0,43,52,1
0,43,81,2
0,42,50,1
0,55,73,12
0,62,73,0
0,59,82,0
0,50,66,0
0,43,67,0
0,42,50,1
0,41,74,0
0,29,105,1
0,41,43,3
0,41,74,0
0,30,101,1
0,42,70,0
0,42,50,2
0,42,40,1
0,42,70,0
0,50,71,0
0,31,105,1
0,43,74,0
0,35,107,1
0,55,80,0
0,59,82,0
0,62,78,0
0,43,76,0
0,42,59,0
0,43,45,2
0,43,74,0
0,42,50,1
0,62,74,15
0,55,76,0
0,59,82,0
0,50,67,0
0,43,80,0
0,42,50,1
0,43,70,0
0,31,105,0
0,43,35,4
0,43,70,0
0,42,63,1
0,55,91,15
0,59,98,0
0,50,82,0
0,43,91,0
0,62,104,1
0,35,102,1
0,40,122,0
0,42,59,0
0,31,108,0
0,43,68,0
0,62,95,1
0,67,95,0
0,43,38,1
0,71,92,0
0,43,68,2
0,42,48,2
0,43,78,2
0,52,98,0
0,42,56,1
0,43,65,0
0,55,98,0
0,64,98,0
0,60,98,0
0,64,89,1
0,67,95,2
0,43,36,1
0,72,85,0
0,43,65,0
0,42,59,1
0,50,88,3
0,43,78,0
0,43,63,0
0,35,102,1
0,55,85,0
0,62,95,0
0,59,104,0
0,62,83,0
0,42,72,0
0,31,98,0
0,67,93,0
0,71,85,1
0,43,33,1
0,43,63,0
0,42,50,2
0,50,59,14
0,43,85,0
0,42,56,2
0,55,76,0
0,43,60,0
0,31,98,0
0,62,88,0
0,59,80,0
0,62,93,0
0,67,85,1
0,43,30,1
0,43,60,0
0,42,56,2
0,50,78,15
0,43,68,0
0,43,59,2
0,35,102,1
0,40,122,0
0,59,98,0
0,62,85,0
0,55,91,0
0,42,59,0
0,31,108,0
0,43,28,2
0,43,59,0
0,42,42,2
0,62,88,0
0,55,95,0
0,59,98,0
0,50,62,0
0,43,66,0
0,42,48,1
0,29,98,0
0,41,54,0
0,67,95,2
0,62,95,1
0,71,93,0
0,41,24,1
0,41,54,0
0,42,56,1
0,30,92,0
0,42,51,0
0,42,22,1
0,42,51,0
0,59,91,3
0,62,85,0
0,55,82,0
0,50,66,0
0,43,67,0
0,43,52,1
0,35,102,1
0,42,63,0
0,31,105,0
0,43,22,3
0,43,52,0
0,42,50,4
0,55,98,1
0,60,98,0
0,64,104,0
0,43,78,0
0,52,98,0
0,31,105,1
0,43,49,0
0,64,91,1
0,67,91,0
0,42,56,1
0,72,93,1
0,43,19,1
0,43,49,0
0,42,50,1
0,50,91,7
0,55,80,1
0,43,47,0
0,35,107,1
0,40,122,0
0,59,91,0
0,62,98,0
0,43,85,0
0,62,85,0
0,42,59,0
0,31,119,0
0,67,90,0
0,43,18,2
0,71,93,0
0,43,47,0
0,42,36,1
0,60,95,3
0,55,88,0
0,64,98,0
0,52,98,0
0,43,76,0
0,42,56,1
0,64,85,0
0,41,44,0
0,29,108,1
0,67,96,1
0,72,91,1
0,41,14,1
0,41,44,1
0,42,50,1
0,59,95,5
0,43,64,0
0,50,95,0
0,49,86,1
0,31,114,0
0,62,95,0
0,55,88,0
0,43,42,0
0,35,112,0
0,43,12,3
0,43,42,0
0,62,88,7
0,50,66,0
0,43,71,0
0,59,80,1
0,55,88,0
0,40,112,1
0,29,119,0
0,41,39,0
0,41,9,3
0,41,39,2
0,55,76,10
0,43,73,0
0,50,74,0
0,57,102,1
0,43,36,0
0,35,107,0
0,40,125,0
0,59,88,0
0,62,85,0
0,31,108,0
0,43,6,3
0,43,36,0
0,62,73,12
0,55,80,0
0,50,66,0
0,41,34,1
0,40,89,1
0,59,82,0
0,43,70,0
0,29,105,1
0,41,3,2
0,41,34,0
0,42,32,0
0,40,93,1
0,30,105,1
0,42,2,1
0,42,32,0
0,43,30,2
0,59,94,0
0,35,107,0
0,42,63,0
0,31,119,0
0,59,82,0
0,62,82,0
0,55,82,0
0,50,74,0
0,43,83,0
0,43,80,1
0,50,83,0
0,59,78,2
0,43,1,0
0,43,30,0
0,42,46,1
0,42,46,2
0,62,73,0
0,59,78,0
0,55,80,0
0,31,108,1
0,50,63,0
0,43,74,0
0,43,73,0
0,50,55,0
0,62,91,0
0,62,75,0
0,42,56,1
0,43,82,5
0,31,114,1
0,55,78,0
0,62,85,0
0,59,85,0
0,50,67,0
0,50,85,0
0,35,107,1
0,40,122,0
0,42,72,0
0,43,80,0
0,42,42,1
0,43,87,6
0,62,94,0
0,62,73,0
0,55,80,0
0,59,88,0
0,52,109,0
0,52,83,0
0,43,98,1
0,42,48,1
0,62,78,1
0,42,50,2
0,43,80,3
0,50,84,0
0,62,71,1
0,55,82,0
0,59,91,0
0,43,68,0
0,35,112,1
0,42,59,0
0,31,119,0
0,50,91,0
0,42,56,1
0,55,80,3
0,62,78,0
0,59,82,0
0,43,91,0
0,43,65,1
0,42,48,1
0,31,114,0
0,50,80,0
0,50,59,0
0,42,56,1
0,55,82,4
0,62,80,0
0,59,91,0
0,43,71,0
0,35,112,1
0,40,122,0
0,31,119,0
0,42,59,0
0,43,80,0
0,50,91,0
0,50,52,0
0,42,48,4
0,46,78,1
0,62,82,0
0,55,85,0
0,59,95,0
0,43,91,0
0,50,80,0
0,43,76,0
0,50,66,0
0,30,105,0
0,59,94,0
0,43,82,1
0,50,74,0
0,43,84,0
0,35,112,1
0,31,124,0
0,50,84,0
0,42,63,0
0,55,98,0
0,62,98,0
0,59,104,0
0,59,78,1
0,42,50,1
0,42,56,2
0,31,114,0
0,62,88,0
0,55,95,0
0,59,95,0
0,43,80,0
0,50,71,0
0,43,81,0
0,50,75,0
0,62,94,0
0,62,78,0
0,42,50,3
0,31,124,21
0,55,88,0
0,59,88,0
0,62,91,0
0,35,112,1
0,40,118,0
0,43,76,0
0,42,59,0
0,50,91,0
0,42,48,3
0,42,56,1
0,33,119,0
0,55,80,0
0,62,95,0
0,59,98,0
0,50,73,0
0,43,82,0
0,52,82,0
0,59,70,1
0,64,92,0
0,64,76,0
0,42,46,3
0,42,63,23
0,52,104,0
0,59,109,0
0,40,95,0
0,35,107,0
0,55,95,0
0,28,114,0
0,42,46,2
0,42,50,9
0,64,124,0
0,59,124,0
0,55,124,0
0,40,91,0
0,52,88,0
0,28,108,1
0,52,102,0
0,59,102,1
0,64,102,0
0,42,48,4
0,42,59,18
0,35,112,0
0,40,118,0
0,64,114,0
0,55,109,0
0,59,120,0
0,52,91,0
0,40,98,0
0,28,114,0
0,52,111,0
0,59,111,0
0,64,111,1
0,42,50,1
0,42,50,1
0,64,109,0
0,55,98,0
0,59,109,0
0,52,88,0
0,40,88,0
0,52,116,0
0,59,116,0
0,30,114,1
0,64,116,1
0,42,50,1
0,62,95,4
0,55,80,0
0,35,112,0
0,42,59,0
0,31,114,0
0,59,88,0
0,43,88,0
0,50,85,0
0,43,79,1
0,50,75,0
0,59,94,0
0,59,78,4
0,42,50,1
0,42,50,1
0,62,85,0
0,55,80,0
