track,note,velocity,time
0,64,120,391
0,60,114,0
0,64,0,37
0,60,0,0
0,67,127,3
0,64,127,0
0,67,0,39
0,64,0,0
0,64,104,1
0,60,110,0
0,64,0,40
0,67,114,0
0,60,0,0
0,64,127,0
0,67,0,38
0,64,0,0
0,69,125,2
0,65,127,0
0,69,0,39
0,65,0,0
0,65,114,1
0,60,110,0
0,65,0,39
0,69,110,0
0,60,0,0
0,65,120,0
0,36,127,1
0,36,0,1
0,69,0,36
0,65,0,0
0,70,127,3
0,66,127,0
0,40,127,0
0,40,0,1
0,66,113,38
0,66,0,0
0,70,0,1
0,60,100,0
0,66,0,38
0,70,127,1
0,60,0,0
0,66,127,0
0,40,106,1
0,40,0,1
0,66,0,35
0,70,0,1
0,83,127,3
0,79,127,0
0,74,127,0
0,31,127,0
0,67,122,0
0,71,127,0
0,67,124,0
0,43,96,0
0,36,127,0
0,42,119,0
0,42,0,1
0,36,0,0
0,74,0,13
0,79,0,2
0,83,0,4
0,83,124,20
0,74,114,0
0,79,126,0
0,79,0,17
0,74,0,0
0,83,0,1
0,79,120,22
0,83,117,0
0,74,106,0
0,42,61,0
0,42,0,1
0,74,0,15
0,83,0,0
0,79,0,0
0,79,127,24
0,74,112,0
0,83,126,0
0,40,127,0
0,42,116,0
0,42,0,1
0,40,0,0
0,83,0,14
0,74,0,2
0,79,0,0
0,43,0,3
0,74,107,20
0,79,120,0
0,83,118,0
0,83,0,12
0,79,0,3
0,74,0,0
0,31,0,8
0,46,96,16
0,42,60,0
0,83,127,1
0,79,127,0
0,74,115,0
0,35,125,0
0,42,0,0
0,36,108,0
0,36,0,1
0,74,0,15
0,79,0,1
0,83,0,1
0,46,0,17
0,47,91,4
0,79,127,1
0,74,117,0
0,83,127,0
0,36,127,0
0,42,119,0
0,42,0,1
0,36,0,0
0,83,0,12
0,74,0,3
0,79,0,1
0,74,106,23
0,79,124,0
0,83,124,0
0,83,0,13
0,79,0,2
0,74,0,1
0,42,78,23
0,74,101,1
0,79,126,0
0,83,124,0
0,42,0,0
0,83,0,14
0,79,0,1
0,74,0,0
0,47,0,12
0,35,0,11
0,50,88,1
0,42,104,0
0,83,127,1
0,74,127,0
0,79,127,0
0,38,120,0
0,42,0,0
0,40,127,0
0,40,0,1
0,79,0,16
0,74,0,0
0,83,0,0
0,74,100,23
0,79,122,0
0,83,118,0
0,67,0,0
0,83,0,13
0,79,0,1
0,74,0,2
0,50,0,9
0,71,0,13
0,67,0,0
0,66,91,0
0,66,101,0
0,70,123,1
0,42,56,0
0,79,127,1
0,74,111,0
0,83,127,0
0,42,0,0
0,38,0,11
0,83,0,4
0,74,0,0
0,79,0,0
0,70,0,22
0,66,0,1
0,71,97,1
0,67,124,0
0,66,0,0
0,67,108,0
0,42,110,0
0,79,127,1
0,74,120,0
0,83,127,0
0,31,127,0
0,43,96,0
0,42,0,0
0,36,127,0
0,36,0,1
0,83,0,13
0,74,0,1
0,79,0,1
0,74,112,24
0,79,127,0
0,83,126,0
0,83,0,14
0,79,0,1
0,74,0,1
0,71,0,21
0,64,83,1
0,67,108,0
0,42,57,1
0,79,126,1
0,74,100,0
0,83,118,0
0,67,0,0
0,42,0,0
0,83,0,14
0,74,0,1
0,79,0,0
0,67,0,21
0,65,112,2
0,64,0,1
0,69,114,0
0,67,0,0
0,83,127,1
0,79,127,0
0,74,122,0
0,65,110,0
0,40,127,0
0,42,113,0
0,42,0,1
0,40,0,0
0,43,0,7
0,74,0,8
0,79,0,2
0,83,0,0
0,79,127,22
0,83,122,0
0,74,100,0
0,31,0,13
0,74,0,2
0,83,0,1
0,79,0,0
0,65,0,19
0,62,102,3
0,65,108,0
0,69,0,1
0,42,59,0
0,83,127,1
0,79,127,0
0,74,110,0
0,35,127,0
0,46,96,0
0,42,0,0
0,36,112,0
0,36,0,1
0,74,0,13
0,79,0,0
0,83,0,1
0,46,0,19
0,65,0,2
0,62,0,2
0,65,0,0
0,64,100,1
0,67,117,0
0,47,86,0
0,83,127,1
0,79,127,0
0,74,120,0
0,64,117,0
0,42,110,0
0,36,117,0
0,36,0,1
0,42,0,0
0,74,0,15
0,79,0,0
0,83,0,2
0,74,104,22
0,79,124,0
0,83,126,0
0,83,0,15
0,79,0,1
0,74,0,0
0,67,0,17
0,60,92,5
0,64,110,0
0,64,0,1
0,42,58,0
0,83,124,1
0,74,105,0
0,79,124,0
0,42,0,0
0,79,0,14
0,74,0,0
0,83,0,1
0,47,0,10
0,35,0,9
0,64,0,3
0,60,0,2
0,65,114,0
0,62,118,0
0,64,0,0
0,83,127,1
0,79,127,0
0,74,112,0
0,38,106,0
0,62,106,0
0,50,77,0
0,40,127,0
0,42,116,0
0,42,0,1
0,40,0,0
0,74,0,15
0,79,0,0
0,83,0,1
0,79,127,23
0,83,127,0
0,74,110,0
0,74,0,15
0,83,0,1
0,79,0,0
0,50,0,12
0,62,0,9
0,62,112,2
0,59,95,0
0,42,61,0
0,74,107,1
0,79,122,0
0,83,124,0
0,62,0,0
0,42,0,0
0,65,0,2
0,83,0,12
0,79,0,0
0,74,0,1
0,38,0,6
0,59,0,15
0,62,0,1
0,60,103,2
0,79,127,1
0,76,127,0
0,72,122,0
0,36,127,0
0,60,111,0
0,55,81,0
0,48,96,0
0,36,127,0
0,42,116,0
0,42,0,1
0,36,0,0
0,72,0,15
0,76,0,2
0,79,0,1
0,79,117,21
0,76,124,0
0,72,106,0
0,72,0,16
0,76,0,1
0,79,0,0
0,76,127,23
0,79,127,0
0,72,111,0
0,42,62,0
0,42,0,1
0,72,0,13
0,79,0,1
0,76,0,0
0,48,0,16
0,76,127,9
0,79,127,0
0,72,108,0
0,40,127,0
0,42,107,0
0,42,0,1
0,40,0,0
0,72,0,14
0,79,0,0
0,76,0,1
0,79,127,24
0,72,100,0
0,76,127,0
0,36,0,12
0,76,0,3
0,72,0,0
0,79,0,1
0,42,54,23
0,79,127,1
0,72,100,0
0,76,126,0
0,40,127,0
0,51,96,0
0,42,0,0
0,36,88,0
0,36,0,1
0,76,0,13
0,72,0,0
0,79,0,4
0,51,0,14
0,60,0,1
0,57,122,6
0,69,127,0
0,52,79,0
0,81,127,1
0,76,127,0
0,72,127,0
0,55,0,0
0,64,127,0
0,36,127,0
0,42,113,0
0,42,0,1
0,36,0,0
0,60,0,1
0,72,0,13
0,76,0,2
0,81,0,4
0,76,127,19
0,81,115,0
0,72,100,0
0,72,0,17
0,81,0,0
0,76,0,2
0,42,48,20
0,81,127,1
0,76,127,0
0,72,101,0
0,42,0,0
0,72,0,15
0,76,0,2
0,81,0,7
0,40,0,8
0,69,0,6
0,64,0,0
0,52,0,0
0,57,0,1
0,68,127,0
0,56,110,0
0,80,127,1
0,75,127,0
0,72,106,0
0,43,108,0
0,63,127,0
0,55,63,0
0,40,127,0
0,42,119,0
0,42,0,1
0,40,0,0
0,72,0,12
0,75,0,5
0,80,0,1
0,55,0,7
0,80,127,14
0,72,93,0
0,75,127,0
0,75,0,17
0,72,0,1
0,80,0,2
0,56,0,17
0,68,0,0
0,63,0,0
0,55,98,2
0,67,125,0
0,62,127,0
0,42,68,0
0,80,127,1
0,75,124,0
0,72,85,0
0,42,0,0
0,72,0,10
0,75,0,6
0,80,0,0
0,43,0,0
0,83,127,24
0,74,127,0
0,79,127,0
0,43,127,0
0,79,127,0
0,43,96,0
0,42,104,0
0,36,65,0
0,36,0,1
0,42,0,0
0,79,0,9
0,79,0,3
0,74,0,1
0,83,0,0
0,74,95,26
0,83,127,0
0,79,124,0
0,79,0,10
0,83,0,1
0,74,0,6
0,42,78,22
0,83,127,1
0,79,127,0
0,74,115,0
0,42,0,0
0,40,62,0
0,36,64,0
0,36,0,1
0,40,0,0
0,43,0,2
0,74,0,14
0,79,0,1
0,83,0,1
0,43,0,6
0,83,124,15
0,79,127,0
0,74,108,0
0,41,125,0
0,77,127,0
0,41,96,0
0,40,97,0
0,36,95,0
0,42,113,0
0,42,0,1
0,36,0,0
0,40,0,0
0,77,0,9
0,74,0,5
0,79,0,2
0,83,0,0
0,83,127,23
0,79,127,0
0,74,118,0
0,45,40,0
0,40,110,0
0,40,0,1
0,45,0,0
0,74,0,13
0,79,0,3
0,83,0,1
0,42,67,21
0,83,127,1
0,79,127,0
0,74,115,0
0,42,0,0
0,45,63,0
0,40,114,0
0,36,68,0
0,36,0,1
0,40,0,0
0,45,0,0
0,41,0,5
0,74,0,9
0,79,0,2
0,83,0,0
0,41,0,10
0,79,127,13
0,83,127,0
0,74,122,0
0,40,125,0
0,76,127,0
0,40,96,0
0,45,97,0
0,36,112,0
0,42,110,0
0,42,0,1
0,36,0,0
0,45,0,0
0,76,0,10
0,74,0,5
0,83,0,0
0,79,0,1
0,45,95,3
0,45,0,1
0,79,127,19
0,74,110,0
0,83,120,0
0,45,85,0
0,40,94,0
0,40,0,1
0,45,0,0
0,83,0,14
0,74,0,2
0,79,0,0
0,45,89,3
0,45,0,1
0,79,124,19
0,74,105,0
0,83,126,0
0,40,104,0
0,36,110,0
0,42,70,0
0,42,0,1
0,36,0,0
0,40,0,0
0,40,0,6
0,83,0,8
0,74,0,1
0,79,0,2
0,40,0,12
0,83,127,10
0,79,127,0
0,74,117,0
0,38,127,0
0,74,127,0
0,38,96,0
0,40,108,0
0,36,127,0
0,42,104,0
0,42,0,1
0,36,0,0
0,40,0,0
0,74,0,10
0,74,0,6
0,79,0,1
0,83,0,1
0,79,127,21
0,74,110,0
0,83,126,0
0,40,88,0
0,40,0,1
0,83,0,14
0,74,0,1
0,79,0,1
0,38,0,11
0,62,0,11
0,42,66,0
0,83,127,1
0,74,120,0
0,79,127,0
0,42,0,0
0,45,40,0
0,40,127,0
0,36,112,0
0,67,0,1
0,55,0,0
0,36,0,0
0,40,0,0
0,45,0,0
0,79,0,14
0,74,0,0
0,38,0,1
0,83,0,1
0,76,127,23
0,72,127,0
0,67,127,0
0,36,122,0
0,72,100,0
0,64,110,0
0,60,102,0
0,55,95,0
0,67,92,0
0,48,71,0
0,36,127,0
0,42,116,0
0,42,0,1
0,36,0,0
0,57,106,0
0,57,0,1
0,55,106,0
0,72,0,2
0,76,0,4
0,76,117,23
0,72,115,0
0,67,95,0
0,55,0,6
0,67,0,9
0,60,0,0
0,72,0,3
0,76,0,0
0,67,0,5
0,64,0,1
0,55,80,15
0,60,80,0
0,76,120,1
0,72,117,0
0,67,97,0
0,64,59,1
0,42,62,0
0,42,0,1
0,64,0,7
0,67,0,5
0,72,0,2
0,76,0,0
0,60,0,4
0,55,0,0
0,48,0,7
0,76,127,13
0,72,127,0
0,67,115,0
0,60,100,0
0,64,106,0
0,67,98,0
0,55,87,0
0,40,127,1
0,42,107,0
0,42,0,1
0,40,0,0
0,67,0,12
0,72,0,2
0,76,0,1
0,55,0,17
0,36,0,1
0,72,122,5
0,67,93,0
0,76,124,0
0,76,0,13
0,67,0,1
0,72,0,2
0,60,0,1
0,67,0,18
0,55,70,4
0,60,67,0
0,76,127,1
0,72,127,0
0,67,105,0
0,48,37,0
0,42,54,0
0,36,94,1
0,42,0,0
0,36,80,0
0,36,0,1
0,67,0,14
0,72,0,1
0,64,0,3
0,76,0,1
0,60,0,2
0,55,0,5
0,36,0,7
0,74,97,2
0,48,0,0
0,67,110,3
0,71,127,0
0,74,127,0
0,55,83,0
0,62,97,0
0,59,102,0
0,67,102,0
0,31,110,1
0,43,57,0
0,36,120,0
0,42,113,0
0,42,0,1
0,36,0,0
0,57,118,0
0,74,0,2
0,74,0,4
0,71,0,0
0,55,0,0
0,67,0,1
0,55,0,11
0,74,122,13
0,71,124,0
0,67,93,0
0,67,0,10
0,71,0,0
0,74,0,7
0,55,65,21
0,74,124,1
0,67,100,0
0,71,122,0
0,42,48,1
0,42,0,1
0,67,0,3
0,59,0,1
0,62,0,4
0,71,0,5
0,67,0,0
0,74,0,1
0,55,0,11
0,31,0,11
0,74,127,2
0,67,110,0
0,71,127,0
0,62,108,1
0,59,106,0
0,67,106,0
0,57,0,1
0,40,127,0
0,42,119,0
0,42,0,1
0,40,0,0
0,59,109,0
0,71,0,9
0,67,0,1
0,74,0,1
0,43,0,4
0,74,118,19
0,67,93,0
0,71,122,0
0,71,0,15
0,67,0,0
0,74,0,1
0,55,64,23
0,74,118,1
0,71,117,0
0,67,92,0
0,43,34,1
0,42,68,0
0,31,92,1
0,42,0,0
0,67,0,10
0,59,0,1
0,59,0,1
0,67,0,1
0,71,0,1
0,74,0,2
0,62,0,3
0,43,0,9
0,55,0,1
0,72,90,7
0,60,94,2
0,67,76,0
0,76,127,1
0,72,127,0
0,67,108,0
0,64,94,0
0,55,59,0
0,48,77,0
0,31,0,1
0,36,114,0
0,42,104,0
0,36,120,0
0,36,0,1
0,42,0,0
0,60,114,0
0,67,0,4
0,55,0,0
0,72,0,6
0,76,0,1
0,72,122,20
0,67,100,0
0,76,126,0
0,76,0,14
0,67,0,1
0,72,0,2
0,72,117,22
0,76,117,0
0,67,92,0
0,55,73,0
0,42,78,1
0,67,0,1
0,42,0,0
0,67,0,12
0,60,0,0
0,64,0,1
0,76,0,2
0,72,0,0
0,55,0,8
0,48,0,14
0,60,110,1
0,64,110,0
0,67,95,0
0,76,127,1
0,72,127,0
0,67,117,0
0,40,127,1
0,42,113,0
0,42,0,1
0,40,0,0
0,59,110,0
0,60,0,5
0,67,0,3
0,72,0,1
0,76,0,2
0,76,122,22
0,72,122,0
0,67,98,0
0,36,0,0
0,67,0,13
0,72,0,2
0,76,0,4
0,55,70,20
0,48,42,0
0,76,114,1
0,72,120,0
0,67,100,0
0,60,0,0
0,42,67,0
0,36,108,1
0,42,0,0
0,36,90,0
0,36,0,1
0,67,0,12
0,67,0,1
0,72,0,1
0,76,0,2
0,55,0,12
0,64,0,1
0,72,127,9
0,77,127,0
0,67,122,0
0,36,0,0
0,43,67,0
0,31,110,1
0,60,110,0
0,65,94,0
0,57,91,0
0,36,127,0
0,42,110,0
0,42,0,1
0,36,0,0
0,77,92,1
0,48,0,0
0,62,115,0
0,59,0,7
0,67,0,1
0,72,0,3
0,77,0,0
0,77,0,6
0,77,120,17
0,72,127,0
0,67,107,0
0,67,0,13
0,72,0,3
0,77,0,0
0,31,0,20
0,43,0,3
0,77,115,1
0,72,117,0
0,67,93,0
0,36,92,1
0,42,70,0
0,42,0,1
0,57,0,8
0,67,0,4
0,72,0,1
0,65,0,2
0,60,0,2
0,77,0,4
0,36,0,14
0,76,127,3
0,72,127,0
0,67,117,0
0,31,117,0
0,60,108,0
0,64,110,0
0,60,108,0
0,55,98,0
0,48,59,0
0,40,127,0
0,42,104,0
0,76,83,1
0,42,0,0
0,40,0,0
0,62,0,5
0,76,0,7
0,67,0,1
0,72,0,4
0,76,0,2
0,76,127,19
0,72,124,0
0,67,98,0
0,67,0,15
0,72,0,2
0,76,0,1
0,48,0,21
0,72,120,1
0,76,126,0
0,67,96,0
0,42,66,0
0,42,0,1
0,31,0,7
0,55,0,3
0,67,0,4
0,76,0,2
0,72,0,0
0,60,0,0
0,64,0,2
0,60,0,18
0,81,127,4
0,76,127,0
0,73,127,0
0,33,127,0
0,81,102,0
0,57,84,0
0,64,106,0
0,69,104,0
0,61,97,0
0,45,88,0
0,36,117,0
0,42,116,0
0,42,0,1
0,36,0,0
0,57,108,0
0,81,0,2
0,73,0,1
0,76,0,2
0,81,0,4
0,81,112,23
0,73,127,0
0,76,126,0
0,73,0,15
0,76,0,1
0,57,0,1
0,61,0,2
0,81,0,3
0,45,0,8
0,69,0,2
0,81,124,8
0,76,127,0
0,73,127,0
0,57,85,0
0,61,82,1
0,42,62,0
0,42,0,1
0,73,0,13
0,76,0,1
0,64,0,2
0,81,0,1
0,61,0,1
0,57,0,1
0,81,127,19
0,76,127,0
0,73,127,0
0,64,108,1
0,69,98,0
0,61,104,0
0,57,88,0
0,40,127,0
0,42,107,0
0,42,0,1
0,40,0,0
0,73,0,13
0,76,0,1
