track,note,velocity,time
1,34,91,4188
1,31,76,32
1,29,73,8
1,34,83,20
1,31,72,192
1,29,71,4
1,34,80,16
1,31,73,192
1,29,68,4
1,34,78,20
1,31,72,192
1,29,69,8
1,34,82,12
1,31,73,192
1,29,70,12
1,34,77,8
1,31,61,192
1,29,71,8
1,34,83,16
1,31,67,192
1,29,68,4
1,34,84,0
1,31,72,192
1,29,69,16
1,31,83,4
1,29,68,4
1,26,80,12
1,31,78,96
1,29,66,16
1,26,79,12
1,31,78,96
1,29,66,0
1,26,81,16
1,31,81,4
1,29,67,4
1,26,82,8
1,31,82,0
1,29,75,4
1,26,79,12
1,31,85,96
1,29,66,12
1,26,82,12
1,31,83,96
1,29,60,176
1,26,65,4
1,29,93,12
1,31,63,192
1,36,81,88
1,34,91,8
1,31,76,32
1,29,73,8
1,34,83,20
1,31,72,192
1,29,71,4
1,34,80,16
1,31,73,192
1,29,68,4
1,34,78,20
1,31,72,192
1,29,69,8
1,34,82,12
1,31,73,192
1,29,70,12
1,34,77,8
1,31,61,192
1,29,71,8
1,34,83,16
1,31,67,192
1,29,68,4
1,34,84,0
1,31,72,192
1,29,69,16
1,31,83,4
1,29,68,4
1,26,80,12
1,31,78,96
1,29,66,16
1,26,79,12
1,31,78,96
1,29,66,0
1,26,81,16
1,31,81,4
1,29,67,4
1,26,82,8
1,31,82,0
1,29,75,4
1,26,79,12
1,31,85,96
1,29,66,12
1,26,82,12
1,31,83,96
1,34,60,176
1,31,93,0
1,29,63,192
1,34,78,0
1,34,102,220
1,31,95,216
1,31,103,128
1,31,108,300
1,29,99,68
1,29,99,104
1,34,87,208
1,34,88,124
1,34,102,312
1,29,91,192
1,34,93,144
1,34,95,212
1,39,86,216
1,39,95,120
1,39,99,308
1,36,78,192
1,34,68,12
1,34,95,56
1,34,88,228
1,29,97,216
1,29,97,144
1,29,75,240
1,29,101,72
1,31,88,192
1,29,99,44
1,34,94,20
1,34,88,208
1,31,85,216
1,31,94,148
1,29,81,224
1,31,99,56
1,29,62,4
1,31,88,48
1,29,91,44
1,29,96,232
1,29,87,220
1,34,83,128
1,31,77,120
1,29,91,24
1,34,96,44
1,31,52,28
1,29,80,20
1,34,100,68
1,34,100,220
1,29,101,216
1,29,105,136
1,29,95,144
1,29,51,68
1,29,101,60
1,29,94,84
1,29,102,72
1,27,99,64
1,27,97,192
1,27,100,216
1,27,91,308
1,27,84,44
1,27,90,128
1,27,86,48
1,39,92,16
1,39,62,116
1,39,72,60
1,39,95,56
1,39,63,208
1,39,96,56
1,39,55,116
1,39,76,52
1,39,109,56
1,39,62,112
1,39,62,60
1,27,78,52
1,39,61,216
1,34,72,92
1,27,72,32
1,39,59,16
1,34,63,92
1,27,74,16
1,36,63,204
1,34,63,80
1,27,76,16
1,36,65,100
1,34,66,88
1,27,79,36
1,39,64,8
1,34,56,88
1,27,70,36
1,39,59,20
1,34,55,72
1,27,71,28
1,36,73,196
1,34,55,76
1,27,64,48
1,36,68,8
1,34,66,92
1,34,78,56
1,34,74,48
1,34,74,40
1,34,74,48
1,34,74,80
1,34,62,60
1,31,76,40
1,34,45,36
1,34,74,40
1,31,66,52
1,34,52,16
1,34,58,48
1,29,76,48
1,33,72,160
1,36,61,44
1,29,75,48
1,33,63,16
1,36,44,48
1,34,81,56
1,31,64,40
1,29,69,0
1,34,79,32
1,31,69,40
1,29,68,76
1,27,78,20
1,39,61,208
1,34,72,92
1,27,72,32
1,39,59,16
1,34,63,92
1,27,74,16
1,36,63,204
1,34,63,80
1,27,76,24
1,36,65,132
1,34,66,88
1,27,80,36
1,39,62,16
1,34,43,84
1,27,79,32
1,39,58,16
1,34,63,80
1,27,77,36
1,36,67,12
1,34,62,84
1,27,75,40
1,36,63,16
1,34,62,84
1,41,72,32
1,36,68,0
1,29,86,44
1,29,71,32
1,29,96,172
1,29,104,136
1,29,98,340
1,29,76,96
1,29,103,212
1,41,76,104
1,41,80,148
1,41,70,60
1,41,80,44
1,41,73,36
1,41,90,48
1,41,53,48
1,34,91,48
1,34,93,232
1,29,92,212
1,29,91,144
1,29,75,152
1,29,95,72
1,29,105,56
1,29,91,88
1,30,91,48
1,31,84,48
1,31,89,220
1,39,92,216
1,39,77,124
1,39,70,140
1,39,91,68
1,39,93,48
1,36,91,120
1,34,92,48
1,34,84,48
1,34,89,220
1,39,92,216
1,39,77,124
1,39,70,140
1,39,91,68
1,39,91,48
1,39,91,48
1,36,91,48
1,34,92,48
1,34,91,48
1,34,93,232
1,29,92,212
1,29,91,144
1,41,75,152
1,36,95,72
1,29,105,56
1,41,91,88
1,36,91,48
1,34,91,48
1,34,93,232
1,29,93,212
1,29,91,116
1,29,75,152
1,29,95,72
1,29,105,56
1,29,91,88
1,30,91,48
1,31,84,48
1,31,89,220
1,39,92,216
1,39,77,124
1,39,70,140
1,36,91,68
1,34,93,48
1,39,91,120
1,36,92,48
1,34,100,48
1,34,97,196
1,43,81,200
1,41,61,4
1,29,100,68
1,29,95,116
1,29,88,48
1,29,99,72
1,29,93,104
1,29,96,20
1,39,102,36
1,39,102,232
1,39,96,228
1,39,99,144
1,39,80,104
1,39,59,48
1,39,98,32
1,39,92,144
1,39,65,52
1,39,102,24
1,39,102,232
1,39,96,228
1,39,99,144
1,39,80,104
1,39,59,48
1,39,98,32
1,39,92,144
1,39,65,52
1,34,78,24
1,34,102,220
1,31,95,216
1,31,103,128
1,31,108,300
1,29,99,68
1,29,99,104
1,34,87,208
1,34,88,124
1,34,102,312
1,29,91,192
1,34,93,144
1,34,95,212
1,39,86,216
1,39,95,120
1,39,99,308
1,36,78,192
1,34,68,12
1,34,95,56
1,34,88,228
1,29,97,216
1,29,97,144
1,29,75,240
1,29,101,72
1,31,88,192
1,29,99,44
1,34,94,20
1,34,88,208
1,31,85,216
1,31,94,148
1,29,81,224
1,31,99,56
1,29,62,4
1,31,88,48
1,29,91,44
1,29,96,232
1,29,87,220
1,34,83,128
1,31,77,120
1,29,91,24
1,34,96,44
1,31,52,28
1,29,80,20
1,34,100,68
1,34,100,220
1,29,101,216
1,29,105,136
1,29,95,144
1,29,51,68
1,29,101,60
1,29,94,84
1,29,102,72
1,27,99,64
1,27,97,192
1,27,100,216
1,27,91,308
1,27,84,44
1,27,90,128
1,27,86,48
1,39,92,16
1,39,62,116
1,39,72,60
1,39,95,56
1,39,63,208
1,39,96,56
1,39,55,116
1,39,76,52
1,39,109,56
1,39,62,112
1,39,62,60
1,27,78,52
1,39,61,216
1,34,72,92
1,27,72,32
1,39,59,16
1,34,63,92
1,27,74,16
1,36,63,204
1,34,63,80
1,27,76,24
1,36,65,132
1,34,66,88
1,27,79,36
1,39,64,8
1,34,56,88
1,27,70,36
1,39,59,20
1,34,55,72
1,27,71,28
1,36,73,196
1,34,55,76
1,27,64,48
1,36,68,8
1,34,66,92
1,34,78,56
1,34,74,48
1,34,74,40
1,34,74,48
1,34,74,80
1,34,62,60
1,31,76,40
1,34,45,36
1,34,74,40
1,31,66,52
1,34,52,16
1,34,58,48
1,29,76,32
1,33,72,176
1,36,61,44
1,29,75,48
1,33,63,16
1,36,44,48
1,34,81,56
1,31,64,40
1,29,69,0
1,34,79,32
1,31,69,40
1,29,68,76
1,27,78,20
1,39,61,192
1,34,72,92
1,27,72,32
1,39,59,16
1,34,63,92
1,27,74,16
1,36,63,204
1,34,63,80
1,27,76,24
1,36,65,132
1,34,66,88
1,27,80,36
1,39,62,16
1,34,43,84
1,27,79,32
1,39,58,16
1,34,63,80
1,27,77,36
1,36,67,12
1,34,62,84
1,27,75,40
1,36,63,16
1,34,62,84
1,41,100,32
1,41,72,0
1,29,86,156
1,36,68,20
1,29,71,32
1,29,96,172
1,29,104,136
1,29,98,340
1,29,76,96
1,29,103,212
1,41,76,104
1,41,80,148
1,41,70,60
1,41,80,44
1,41,73,36
1,41,90,48
1,41,53,48
1,34,91,48
1,34,93,232
1,29,92,212
1,29,91,144
1,29,75,152
1,29,95,72
1,29,105,56
1,29,91,88
1,30,91,48
1,31,84,48
1,31,89,220
1,39,92,216
1,39,77,124
1,39,70,140
1,39,91,68
1,39,93,48
1,36,91,120
1,34,92,48
1,34,84,48
1,34,89,220
1,39,92,216
1,39,77,124
1,39,70,140
1,39,91,68
1,39,91,48
1,39,91,48
1,36,91,48
1,34,92,48
1,34,91,48
1,34,93,232
1,29,92,212
1,29,91,144
1,41,75,152
1,36,95,72
1,29,105,56
1,41,91,88
1,36,91,48
1,34,91,48
1,34,93,232
1,29,93,212
1,29,91,116
1,29,75,152
1,29,95,72
1,29,105,56
1,29,91,88
1,30,91,48
1,31,84,48
1,31,89,220
1,39,92,216
1,39,77,124
1,39,70,140
1,36,91,68
1,34,93,48
1,39,91,120
1,36,92,48
1,34,100,48
1,34,97,196
1,43,81,200
1,41,61,4
1,29,100,68
1,29,95,116
1,29,88,48
1,29,99,72
1,29,93,104
1,29,96,20
1,39,102,36
1,39,102,232
1,39,96,228
1,39,99,144
1,39,80,104
1,39,59,48
1,39,98,32
1,39,92,144
1,39,65,52
1,39,102,24
1,39,102,232
1,39,96,228
1,39,99,144
1,39,80,104
1,39,59,48
1,39,98,32
1,39,92,144
1,39,65,52
1,27,78,24
1,39,61,208
1,34,72,92
1,27,72,32
1,39,59,16
1,34,63,92
1,27,74,16
1,36,63,204
1,34,63,80
1,27,76,24
1,36,65,132
1,34,66,88
1,27,79,36
1,39,64,8
1,34,56,88
1,27,70,36
1,39,59,20
1,34,55,72
1,27,71,28
1,36,73,196
1,34,55,76
1,27,64,48
1,36,68,8
1,34,66,92
1,34,78,56
1,34,74,48
1,34,74,40
1,34,74,48
1,34,74,80
1,34,62,60
1,31,76,40
1,34,45,36
1,34,74,40
1,31,66,52
1,34,52,16
1,34,58,48
1,29,76,48
1,33,72,160
1,36,61,44
1,29,75,48
1,33,63,16
1,36,44,48
1,34,81,56
1,31,64,40
1,29,69,0
1,34,79,32
1,31,69,40
1,29,68,76
1,27,78,20
1,39,61,208
1,34,72,92
1,27,72,32
1,39,59,16
1,34,63,92
1,27,74,16
1,36,63,204
1,34,63,80
1,27,76,24
1,36,65,132
1,34,66,88
1,27,80,36
1,39,62,16
1,34,43,84
1,27,79,32
1,39,58,16
1,34,63,80
1,27,77,36
1,36,67,12
1,34,62,84
1,27,75,40
1,36,63,16
1,34,62,84
1,41,100,32
1,41,72,0
1,29,86,156
1,36,68,20
1,29,71,32
1,29,96,172
1,29,104,136
1,29,98,340
1,29,76,96
1,29,103,212
1,41,76,104
1,41,80,148
1,41,70,60
1,41,80,44
1,41,73,36
1,41,90,48
1,41,53,48
1,34,78,48
1,34,102,220
1,31,95,216
1,31,103,128
1,31,108,300
1,29,99,68
1,29,99,104
1,34,87,208
1,34,88,124
1,34,102,312
1,29,91,192
1,34,93,144
1,34,95,212
1,39,86,216
1,39,95,120
1,39,99,308
1,36,78,192
1,34,68,12
1,34,95,56
1,34,88,228
1,29,97,216
1,29,97,144
1,29,75,240
1,29,101,72
1,31,88,192
1,29,99,44
1,34,94,20
1,34,88,208
1,31,85,216
1,31,94,148
1,29,81,224
1,31,99,56
1,29,62,4
1,31,88,48
1,29,91,44
1,29,96,232
1,29,87,220
1,34,83,128
1,31,77,120
1,29,91,24
1,34,96,44
1,31,52,28
1,29,80,20
1,34,100,68
1,34,100,220
1,29,101,216
1,29,105,136
1,29,95,144
1,29,51,68
1,29,101,60
1,29,94,84
1,29,102,72
1,27,99,64
1,27,97,192
1,27,100,216
1,27,91,308
1,27,84,44
1,27,90,128
1,27,86,48
1,39,92,16
1,39,62,116
1,39,72,60
1,39,95,56
1,39,63,208
1,39,96,56
1,39,55,116
1,39,76,52
1,39,109,56
1,39,62,112
1,39,62,60
1,27,78,52
1,39,61,216
1,34,72,92
1,27,72,32
1,39,59,16
1,34,63,92
1,27,74,16
1,36,63,204
1,34,63,80
1,27,76,24
1,36,65,132
1,34,66,88
1,27,79,36
1,39,64,8
1,34,56,88
1,27,70,36
1,39,59,20
1,34,55,72
1,27,71,28
1,36,73,196
1,34,55,76
1,27,64,48
1,36,68,8
1,34,66,92
1,34,78,56
1,34,74,48
1,34,74,40
1,34,74,48
1,34,74,80
1,34,62,60
1,31,76,40
1,34,45,36
1,34,74,40
1,31,66,52
1,34,52,16
1,34,58,48
1,29,76,48
1,33,72,160
1,36,61,44
1,29,75,48
1,33,63,16
1,36,44,48
1,34,81,56
1,31,64,40
1,29,69,0
1,34,79,32
1,31,69,40
1,29,68,76
1,27,78,20
1,39,61,208
1,34,72,92
1,27,72,32
1,39,59,16
1,34,63,92
1,27,74,16
1,36,63,204
1,34,63,80
1,27,76,24
1,36,65,132
1,34,66,88
1,27,80,36
1,39,62,16
1,34,43,84
1,27,79,32
1,39,58,16
1,34,63,80
1,27,77,36
1,36,67,12
1,34,62,84
1,27,75,40
1,36,63,16
1,34,62,84
1,41,100,32
1,41,72,0
1,29,86,156
1,36,68,20
1,29,71,32
1,29,96,172
1,29,104,136
1,29,98,340
1,29,76,96
1,29,103,212
1,41,76,104
1,41,80,148
1,41,70,60
1,41,80,44
1,41,73,36
1,41,90,48
1,41,53,48
1,34,91,48
1,34,93,232
1,29,92,212
1,29,91,144
1,29,75,152
1,29,95,72
1,29,105,56
1,29,91,88
1,30,91,48
1,31,84,48
1,31,89,220
1,39,92,216
1,39,77,124
1,39,70,140
1,39,91,68
1,39,93,48
1,36,91,120
1,34,92,48
1,34,84,48
1,34,89,220
1,39,92,216
1,39,77,124
1,39,70,140
1,39,91,68
1,39,91,48
1,39,91,48
1,36,91,48
1,34,92,48
1,34,91,48
1,34,93,232
1,29,92,212
1,29,91,144
1,41,75,152
1,36,95,72
1,29,105,56
1,41,91,88
1,36,91,48
1,34,91,48
1,34,93,232
1,29,93,212
1,29,91,116
1,29,75,152
1,29,95,72
1,29,105,56
1,29,91,88
1,30,91,48
1,31,84,48
1,31,89,220
1,39,92,216
1,39,77,124
1,39,70,140
1,36,91,68
1,34,93,48
1,39,91,120
1,36,92,48
1,34,100,48
1,34,97,196
1,43,81,200
1,41,61,4
1,29,100,68
1,29,95,116
1,29,88,48
1,29,99,72
1,29,93,104
1,29,96,20
1,39,102,36
1,39,102,232
1,39,96,228
1,39,99,144
1,39,80,104
1,39,59,48
1,39,98,32
1,39,92,144
1,39,65,52
1,39,102,24
1,39,102,232
1,39,96,228
1,39,99,144
1,39,80,104
1,39,59,48
1,39,98,32
1,39,92,144
1,39,65,52
1,34,91,24
1,34,93,232
1,29,92,212
1,29,91,144
1,29,75,152
1,29,95,72
1,29,105,56
1,29,91,88
1,30,91,48
1,31,84,48
1,31,89,220
1,39,92,216
1,39,77,124
1,39,70,140
1,39,91,68
1,39,93,48
1,36,91,120
1,34,92,48
1,34,84,48
1,34,89,220
1,39,92,216
1,39,77,124
1,39,70,140
1,39,91,68
1,39,91,48
1,39,91,48
1,36,91,48
1,34,92,48
1,34,91,48
1,34,93,232
1,29,92,212
1,29,91,144
1,41,75,152
1,36,95,72
1,29,105,56
1,41,91,88
1,36,91,48
1,34,91,48
1,34,93,232
1,29,93,212
1,29,91,116
1,29,75,152
1,29,95,72
1,29,105,56
1,29,91,88
1,30,91,48
1,31,84,48
1,31,89,220
1,39,92,216
1,39,77,124
1,39,70,140
1,36,91,68
1,34,93,48
1,39,91,120
1,36,92,48
1,34,100,48
1,34,97,196
1,43,81,200
1,41,61,4
1,29,100,68
1,29,95,116
1,29,88,48
1,29,99,72
1,29,93,104
1,29,96,20
1,39,102,36
1,39,102,232
1,39,96,228
1,39,99,144
1,39,80,104
1,39,59,48
1,39,98,32
1,39,92,144
1,39,65,52
1,41,102,24
1,41,102,232
1,41,96,228
1,41,99,144
1,41,80,104
1,41,59,48
1,41,98,32
1,41,92,144
1,41,65,52
1,34,102,24
1,34,102,232
1,34,96,228
1,34,99,144
1,34,80,104
1,34,59,48
1,34,98,32
1,34,92,144
1,34,65,52
