track,note,velocity,time
0,42,75,0
0,42,75,93
0,42,75,93
0,42,75,93
0,67,80,93
0,72,80,0
0,67,66,0
0,64,64,0
0,67,97,29
0,76,76,0
0,67,68,0
0,72,72,0
0,65,102,27
0,62,58,0
0,65,54,0
0,67,54,0
0,65,97,28
0,67,72,0
0,62,56,0
0,72,72,0
0,64,84,17
0,64,58,0
0,60,62,0
0,67,56,0
0,62,68,29
0,67,38,0
0,60,54,0
0,62,66,0
0,64,92,31
0,60,39,0
0,64,66,0
0,67,56,0
0,65,92,31
0,67,58,0
0,65,76,0
0,60,64,0
0,64,92,31
0,64,66,0
0,67,64,0
0,60,64,0
0,62,80,3
0,62,64,0
0,62,72,28
0,67,54,0
0,60,58,0
0,62,66,0
0,65,88,39
0,60,56,0
0,65,62,0
0,67,66,0
0,65,80,31
0,65,56,0
0,67,64,0
0,60,60,0
0,64,56,48
0,64,88,19
0,60,64,0
0,67,68,0
0,64,68,0
0,64,88,36
0,60,66,0
0,64,72,0
0,69,80,0
0,62,68,3
0,67,58,0
0,62,84,16
0,62,76,0
0,59,80,0
0,69,80,0
0,67,56,2
0,65,92,56
0,69,76,0
0,65,72,0
0,62,66,0
0,65,88,17
0,71,72,0
0,65,80,0
0,62,72,0
0,64,92,14
0,62,64,0
0,69,68,0
0,72,66,0
0,65,66,0
0,64,97,17
0,62,36,0
0,69,64,0
0,65,58,0
0,72,64,0
0,62,80,4
0,60,36,0
0,74,62,0
0,62,88,14
0,67,66,0
0,74,84,0
0,59,66,0
0,62,64,0
0,71,60,1
0,62,97,23
0,67,34,0
0,65,42,0
0,62,54,0
0,71,58,0
0,62,92,27
0,67,66,0
0,62,64,0
0,65,62,0
0,71,64,0
0,60,64,1
0,67,64,0
0,60,58,0
0,64,60,0
0,62,84,21
0,67,64,0
0,71,62,0
0,64,88,18
0,65,48,0
0,67,58,0
0,64,33,0
0,71,76,0
0,62,92,23
0,65,66,0
0,67,68,0
0,62,64,0
0,71,60,0
0,60,68,5
0,72,68,0
0,60,52,0
0,64,58,0
0,60,76,13
0,67,64,0
0,60,66,0
0,72,84,0
0,64,62,0
0,46,42,48
0,36,76,33
0,67,92,0
0,60,97,0
0,64,116,0
0,60,127,0
0,55,104,0
0,60,92,0
0,55,92,0
0,48,76,0
0,60,64,0
0,67,66,0
0,64,62,0
0,72,80,0
0,42,75,0
0,35,75,0
0,79,76,0
0,72,72,6
0,55,92,0
0,42,30,0
0,84,68,0
0,33,66,3
0,76,72,0
0,60,112,0
0,55,108,0
0,64,108,0
0,42,54,0
0,40,75,0
0,35,54,0
0,88,72,0
0,79,76,11
0,42,30,0
0,91,72,0
0,31,66,1
0,74,97,0
0,55,108,0
0,64,112,0
0,60,124,0
0,42,75,0
0,35,75,0
0,86,92,0
0,42,22,14
0,36,56,3
0,74,88,0
0,55,106,0
0,60,127,0
0,64,127,0
0,42,51,0
0,40,75,0
0,35,56,0
0,86,92,0
0,31,46,3
0,72,76,0
0,55,104,0
0,42,29,0
0,84,58,0
0,36,64,3
0,67,84,0
0,55,112,0
0,60,124,0
0,64,124,0
0,42,75,0
0,35,75,0
0,79,72,0
0,36,64,2
0,72,66,0
0,55,102,0
0,42,30,0
0,84,88,0
0,33,76,0
0,76,72,0
0,55,116,0
0,60,124,0
0,64,112,0
0,42,56,0
0,40,75,0
0,35,56,0
0,88,68,0
0,79,60,9
0,42,25,0
0,91,76,0
0,31,56,3
0,74,88,0
0,60,120,0
0,64,124,0
0,55,106,0
0,42,75,0
0,35,75,0
0,86,97,0
0,31,64,14
0,42,32,0
0,33,72,2
0,74,84,0
0,64,124,0
0,60,127,0
0,42,51,0
0,40,75,0
0,35,58,0
0,86,84,0
0,31,56,3
0,72,80,0
0,55,106,0
0,45,76,0
0,46,40,0
0,84,92,0
0,52,66,1
0,33,64,2
0,64,68,0
0,57,104,0
0,60,116,0
0,64,124,0
0,57,97,0
0,42,75,0
0,35,75,0
0,76,88,0
0,33,60,9
0,69,72,0
0,57,120,0
0,42,27,0
0,81,84,0
0,36,66,3
0,72,72,0
0,60,108,0
0,57,106,0
0,64,127,0
0,42,52,0
0,40,75,0
0,35,58,0
0,84,72,0
0,76,92,20
0,42,30,0
0,88,92,0
0,40,68,3
0,71,80,0
0,57,102,0
0,60,96,0
0,64,104,0
0,42,75,0
0,35,75,0
0,83,92,0
0,42,25,20
0,36,54,3
0,71,92,0
0,57,102,0
0,60,127,0
0,64,124,0
0,42,64,0
0,40,75,0
0,35,61,0
0,83,92,0
0,40,54,5
0,69,66,0
0,57,102,0
0,42,27,0
0,81,80,0
0,33,56,3
0,64,68,0
0,60,106,0
0,57,102,0
0,64,112,0
0,42,75,0
0,35,75,0
0,76,84,0
0,33,60,3
0,69,68,0
0,57,108,0
0,42,27,0
0,81,88,0
0,36,62,3
0,72,72,0
0,57,120,0
0,60,127,0
0,64,124,0
0,42,51,0
0,40,75,0
0,35,52,0
0,84,88,0
0,76,88,24
0,42,23,0
0,88,76,0
0,33,50,2
0,71,80,0
0,57,108,0
0,60,116,0
0,64,124,0
0,42,75,0
0,35,75,0
0,83,97,0
0,35,58,2
0,42,30,0
0,36,58,3
0,71,92,0
0,57,106,0
0,60,127,0
0,64,124,0
0,42,47,0
0,40,75,0
0,35,58,0
0,83,80,0
0,69,68,1
0,57,106,0
0,50,68,0
0,46,40,0
0,81,64,0
0,57,72,2
0,38,60,3
0,69,64,0
0,62,108,0
0,57,112,0
0,65,120,0
0,62,97,0
0,42,75,0
0,35,75,0
0,81,88,0
0,38,62,3
0,74,64,0
0,57,104,0
0,42,30,0
0,86,84,0
0,41,64,0
0,77,72,0
0,57,108,0
0,62,127,0
0,65,108,0
0,42,54,0
0,40,75,0
0,35,54,0
0,89,84,0
0,81,84,27
0,42,30,0
0,93,84,0
0,45,66,3
0,76,80,0
0,57,106,0
0,62,127,0
0,65,120,0
0,42,75,0
0,35,75,0
0,88,92,0
0,42,22,24
0,41,68,3
0,76,88,0
0,57,82,0
0,62,106,0
0,65,112,0
0,42,51,0
0,40,75,0
0,35,56,0
0,88,92,0
0,45,56,3
0,74,60,0
0,57,104,0
0,42,29,0
0,86,88,0
0,38,56,3
0,69,84,0
0,57,94,0
0,62,108,0
0,65,112,0
0,42,75,0
0,35,75,0
0,81,88,0
0,38,56,3
0,74,52,0
0,57,112,0
0,42,30,0
0,86,80,0
0,41,68,3
0,77,72,0
0,57,112,0
0,62,112,0
0,65,127,0
0,42,56,0
0,40,75,0
0,35,56,0
0,89,84,0
0,81,62,6
0,42,25,0
0,93,72,0
0,38,56,1
0,76,80,0
0,62,124,0
0,57,104,0
0,65,120,0
0,42,75,0
0,35,75,0
0,88,76,0
0,40,56,1
0,42,32,0
0,41,62,2
0,76,76,0
0,62,127,0
0,65,124,0
0,57,104,0
0,42,51,0
0,40,75,0
0,35,58,0
0,88,68,0
0,74,58,2
0,57,100,0
0,43,62,0
0,46,40,0
0,86,84,0
0,50,72,4
0,43,56,3
0,62,80,0
0,55,98,0
0,59,104,0
0,65,108,0
0,53,80,0
0,42,75,0
0,35,75,0
0,74,84,0
0,43,56,3
0,67,58,0
0,55,116,0
0,42,27,0
0,79,62,0
0,40,66,3
0,71,64,0
0,55,108,0
0,59,112,0
0,65,124,0
0,42,52,0
0,40,75,0
0,35,58,0
0,83,66,0
0,74,88,4
0,42,30,0
0,84,33,0
0,86,54,0
0,38,64,3
0,69,84,0
0,55,108,0
0,59,106,0
0,65,120,0
0,42,75,0
0,35,75,0
0,81,80,0
0,42,25,22
0,40,58,3
0,69,80,0
0,59,112,0
0,65,127,0
0,55,100,0
0,42,64,0
0,40,75,0
0,35,61,0
0,81,76,0
0,38,54,1
0,67,76,0
0,55,100,0
0,42,27,0
0,79,88,0
0,43,62,4
0,62,66,0
0,59,104,0
0,65,98,0
0,42,75,0
0,35,75,0
0,74,84,0
0,43,64,3
0,67,80,0
0,55,104,0
0,42,27,0
0,79,72,0
0,40,68,3
0,71,64,0
0,59,120,0
0,65,112,0
0,55,106,0
0,42,51,0
0,40,75,0
0,35,52,0
0,83,72,0
0,74,88,19
0,42,23,0
0,86,72,0
0,38,64,3
0,69,80,0
0,59,124,0
0,65,104,0
0,55,108,0
0,42,75,0
0,35,75,0
0,81,84,0
0,38,62,21
0,40,61,0
0,42,30,0
0,40,64,2
0,69,88,0
0,59,116,0
0,65,120,0
0,55,112,0
0,42,47,0
0,40,75,0
0,35,58,0
0,81,72,0
0,38,58,2
0,67,72,0
0,55,102,0
0,46,40,0
0,79,84,0
0,36,40,2
0,67,66,0
0,72,72,0
0,64,68,0
0,55,92,0
0,60,104,0
0,64,106,0
0,42,75,0
0,35,75,0
0,36,38,22
0,60,68,0
0,55,82,0
0,42,30,0
0,33,68,3
0,62,92,0
0,60,106,0
0,55,104,0
0,64,106,0
0,42,54,0
0,40,75,0
0,35,54,0
0,64,80,0
0,42,30,0
0,31,64,24
0,62,84,0
0,42,75,0
0,35,75,0
0,60,88,17
0,42,22,0
0,33,62,4
0,62,68,0
0,60,70,0
0,62,80,0
0,42,51,0
0,40,75,0
0,35,56,0
0,31,58,1
0,64,68,0
0,55,92,0
0,42,29,0
0,40,54,3
0,67,88,0
0,52,96,0
0,59,100,0
0,55,102,0
0,62,100,0
0,42,75,0
0,35,75,0
0,40,58,25
0,62,46,0
0,67,54,0
0,71,62,0
0,42,30,0
0,40,72,3
0,62,68,0
0,71,88,0
0,67,80,0
0,59,120,0
0,55,106,0
0,52,104,0
0,62,112,0
0,42,56,0
0,40,75,0
0,35,56,0
0,72,76,5
0,52,65,0
0,42,25,0
0,40,54,3
0,62,68,0
0,71,76,0
0,67,66,0
0,59,96,0
0,62,98,0
0,55,94,0
0,42,75,0
0,35,75,0
0,40,52,3
0,72,72,0
0,67,72,0
0,52,106,0
0,42,32,0
0,40,66,3
0,67,56,0
0,71,72,0
0,62,62,0
0,67,64,0
0,52,96,0
0,59,127,0
0,55,116,0
0,62,106,0
0,42,51,0
0,40,75,0
0,35,58,0
0,67,76,5
0,42,25,0
0,38,56,3
0,65,60,0
0,69,66,0
0,60,62,0
0,57,96,0
0,53,92,0
0,60,94,0
0,42,75,0
0,35,75,0
0,38,56,3
0,65,88,0
0,42,27,0
0,41,64,3
0,65,88,0
0,53,96,0
0,57,106,0
0,60,104,0
0,42,52,0
0,40,75,0
0,35,58,0
0,42,30,45
0,45,52,3
0,65,84,0
0,53,94,0
0,57,112,0
0,60,106,0
0,42,75,0
0,35,75,0
0,45,44,25
0,53,98,0
0,42,25,0
0,41,64,3
0,67,68,0
0,60,124,0
0,53,104,0
0,57,120,0
0,42,64,0
0,40,75,0
0,35,61,0
0,42,27,45
0,43,58,3
0,71,80,0
0,67,80,0
0,64,68,0
0,64,84,0
0,59,102,0
0,53,96,0
0,55,98,0
0,42,75,0
0,35,75,0
0,43,54,24
0,42,27,0
0,40,60,2
0,59,106,0
0,55,104,0
0,53,98,0
0,42,51,0
0,40,75,0
0,35,52,0
0,62,66,9
0,62,88,0
0,42,23,0
0,38,54,3
0,67,68,0
0,62,66,0
0,71,72,0
0,62,76,0
0,59,108,0
0,53,94,0
0,55,104,0
0,42,75,0
0,35,75,0
0,53,102,2
0,42,30,0
0,43,62,3
0,53,104,0
0,55,116,0
0,59,127,0
0,42,47,0
0,40,75,0
0,35,58,0
0,46,40,24
0,36,48,3
0,64,66,0
0,67,62,0
0,72,72,0
0,55,88,0
0,60,104,0
0,55,106,0
0,64,108,0
0,42,75,0
0,35,75,0
0,36,56,24
0,60,68,0
0,42,30,0
0,33,52,3
0,62,80,0
0,55,102,0
0,60,112,0
0,64,106,0
0,42,54,0
0,40,75,0
0,35,54,0
0,64,76,21
0,42,30,0
0,31,66,3
0,62,92,0
0,55,98,0
0,60,127,0
0,64,106,0
0,42,75,0
0,35,75,0
0,60,64,19
0,55,100,0
0,42,22,0
0,33,54,1
0,62,80,0
0,55,98,0
0,60,108,0
0,64,112,0
0,42,51,0
0,40,75,0
0,35,56,0
0,31,50,7
0,64,72,0
0,42,29,0
0,28,62,3
0,67,84,0
0,55,100,0
0,59,96,0
0,62,106,0
0,42,75,0
0,35,75,0
0,28,64,19
0,71,54,0
0,67,54,0
0,62,52,0
0,42,30,0
0,28,56,3
0,71,80,0
0,67,84,0
0,62,68,0
0,55,104,0
0,59,108,0
0,62,112,0
0,42,56,0
0,40,75,0
0,35,56,0
0,72,80,2
0,42,25,0
0,28,68,3
0,62,64,0
0,67,68,0
0,71,84,0
0,55,104,0
0,59,120,0
0,62,120,0
0,42,75,0
0,35,75,0
0,28,56,4
0,72,72,0
0,67,80,0
0,55,96,0
0,42,32,0
0,28,66,3
0,67,66,0
0,62,64,0
0,71,72,0
0,67,72,0
0,62,120,0
0,59,120,0
0,55,104,0
0,42,51,0
0,40,75,0
0,35,58,0
0,67,58,31
0,42,25,0
0,38,62,3
0,60,52,0
0,69,72,0
0,65,68,0
0,55,104,0
0,60,112,0
0,57,112,0
0,42,75,0
0,35,75,0
0,38,31,13
0,65,72,0
0,42,27,0
0,40,66,3
0,65,80,0
0,53,92,0
0,57,108,0
0,60,106,0
0,42,52,0
0,40,75,0
0,35,58,0
0,42,30,3
0,41,64,3
0,65,84,0
0,53,76,0
0,60,108,0
0,57,124,0
0,42,75,0
0,35,75,0
0,41,62,18
0,53,94,0
0,67,64,0
0,64,56,0
0,72,62,0
0,42,25,0
0,45,52,3
0,67,80,0
0,53,100,0
0,57,106,0
0,60,112,0
0,67,62,0
0,64,68,0
0,72,62,0
0,42,64,0
0,40,75,0
0,35,61,0
0,67,64,33
0,64,66,0
0,72,68,0
0,42,27,0
0,43,60,3
0,67,80,0
0,71,76,0
0,64,76,0
0,64,88,0
0,55,104,0
0,59,112,0
0,53,96,0
0,67,40,0
0,72,80,0
0,64,66,0
0,42,75,0
0,35,75,0
0,43,52,8
0,67,32,0
0,62,46,0
0,71,64,0
0,42,27,0
0,40,66,3
0,53,96,0
0,55,120,0
0,59,108,0
0,67,68,0
0,62,68,0
0,71,68,0
0,42,51,0
0,40,75,0
0,35,52,0
0,62,56,5
0,53,84,0
0,42,23,0
0,38,58,3
0,67,66,0
0,71,72,0
0,62,68,0
0,62,88,0
0,55,112,0
0,53,98,0
0,59,106,0
0,67,68,0
0,62,64,0
0,71,68,0
0,42,75,0
0,35,75,0
0,42,30,45
0,40,64,3
0,53,96,0
0,55,108,0
0,59,108,0
0,67,56,0
0,62,60,0
0,71,58,0
0,42,47,0
0,40,75,0
0,35,58,0
0,38,52,3
0,53,92,0
0,40,61,0
0,40,42,8
0,41,64,3
0,72,64,0
0,81,84,0
0,77,84,0
0,53,98,0
0,60,127,0
0,57,124,0
0,62,60,0
0,67,58,0
0,71,68,0
0,42,75,0
0,35,75,0
0,53,102,3
0,42,30,0
0,57,68,3
0,60,124,0
0,53,96,0
0,57,120,0
0,42,54,0
0,40,75,0
0,35,54,0
0,41,50,22
0,60,68,0
0,65,52,0
0,69,58,0
0,60,50,0
0,42,30,0
0,41,72,3
0,77,72,0
0,81,76,0
0,72,68,0
0,84,76,0
0,60,84,0
0,60,112,0
0,53,92,0
0,57,108,0
0,65,46,0
0,60,56,0
0,69,64,0
0,42,75,0
0,35,75,0
0,42,22,12
0,57,76,3
0,53,104,0
0,60,127,0
0,57,127,0
0,42,51,0
0,40,75,0
0,35,56,0
0,55,88,4
0,53,100,0
0,46,40,0
0,40,64,3
0,72,84,0
0,76,88,0
0,79,66,0
0,55,88,0
0,52,96,0
0,55,98,0
0,60,98,0
0,67,56,0
0,64,46,0
0,72,66,0
0,42,75,0
0,35,75,0
0,60,80,7
0,52,106,0
0,67,62,0
0,64,62,0
0,72,68,0
0,42,30,0
0,60,88,3
0,52,112,0
0,55,120,0
0,60,116,0
0,67,44,0
0,64,64,0
0,72,72,0
0,42,56,0
0,40,75,0
0,35,56,0
0,40,58,6
0,79,58,0
0,76,66,0
