track,note,velocity,time
3,62,110,15168
3,62,0,240
3,64,110,0
3,64,0,240
3,66,110,0
3,66,0,1200
3,57,110,480
3,57,0,240
3,59,110,0
3,59,0,1200
3,62,110,480
3,62,0,240
3,64,110,0
3,64,0,240
3,66,110,0
3,66,0,240
3,65,110,0
3,65,0,240
3,66,110,0
3,66,0,240
3,65,110,0
3,65,0,240
3,66,110,0
3,66,0,240
3,57,110,0
3,57,0,480
3,59,110,0
3,59,0,1200
3,62,110,240
3,62,0,240
3,64,110,0
3,64,0,240
3,66,110,0
3,66,0,1200
3,57,110,480
3,57,0,240
3,59,110,0
3,59,0,960
3,62,110,720
3,62,0,240
3,64,110,0
3,64,0,240
3,66,110,0
3,66,0,240
3,65,110,0
3,65,0,240
3,66,110,0
3,66,0,240
3,65,110,0
3,65,0,240
3,66,110,0
3,66,0,240
3,57,110,0
3,57,0,480
3,59,110,0
3,59,0,1200
3,62,110,240
3,66,110,0
3,66,0,240
3,62,0,0
3,67,110,0
3,64,110,0
3,64,0,240
3,67,0,0
3,69,110,0
3,66,110,0
3,66,0,1200
3,69,0,0
3,69,110,480
3,66,110,0
3,66,0,240
3,69,0,0
3,69,110,0
3,64,110,0
3,64,0,480
3,69,0,0
3,69,110,0
3,64,110,0
3,64,0,240
3,69,0,0
3,67,110,0
3,64,110,0
3,64,0,240
3,67,0,0
3,67,110,0
3,64,110,0
3,64,0,240
3,67,0,0
3,66,110,0
3,62,110,0
3,62,0,240
3,66,0,0
3,64,110,0
3,61,110,0
3,61,0,480
3,64,0,0
3,67,110,0
3,64,110,0
3,64,0,1920
3,67,0,0
3,69,110,0
3,69,0,120
3,67,110,0
3,67,0,120
3,64,110,0
3,59,110,0
3,59,0,960
3,64,0,0
3,67,110,240
3,64,110,0
3,64,0,240
3,67,0,0
3,69,110,0
3,66,110,0
3,66,0,240
3,69,0,0
3,71,110,0
3,67,110,0
3,67,0,1200
3,71,0,0
3,71,110,240
3,67,110,0
3,67,0,240
3,71,0,0
3,71,110,0
3,67,110,0
3,67,0,240
3,71,0,0
3,71,110,0
3,67,110,0
3,67,0,480
3,71,0,0
3,69,110,0
3,66,110,0
3,66,0,240
3,69,0,0
3,67,110,0
3,64,110,0
3,64,0,240
3,67,0,0
3,64,110,0
3,67,110,0
3,67,0,240
3,64,0,0
3,62,110,0
3,66,110,0
3,66,0,240
3,62,0,0
3,62,110,0
3,66,110,0
3,62,0,640
3,66,0,80
3,66,110,0
3,62,110,0
3,62,0,720
3,66,0,0
3,64,110,0
3,61,110,0
3,61,0,960
3,64,0,0
3,66,110,0
3,66,0,120
3,64,110,0
3,64,0,120
3,62,110,0
3,59,110,0
3,59,0,960
3,62,0,0
3,66,110,1440
3,66,0,240
3,66,110,0
3,66,0,240
3,66,110,0
3,66,0,240
3,67,110,0
3,67,0,240
3,69,110,0
3,69,0,240
3,62,110,0
3,62,0,1200
3,66,110,960
3,62,110,0
3,62,0,720
3,66,0,0
3,64,110,0
3,61,110,0
3,61,0,960
3,64,0,0
3,66,110,0
3,66,0,120
3,64,110,0
3,64,0,120
3,62,110,0
3,59,110,0
3,59,0,960
3,62,0,0
3,66,110,1440
3,66,0,240
3,66,110,0
3,66,0,240
3,66,110,0
3,66,0,240
3,67,110,0
3,67,0,240
3,69,110,0
3,69,0,240
3,62,110,0
3,62,0,1200
3,62,110,4080
3,62,0,240
3,64,110,0
3,64,0,240
3,66,110,0
3,66,0,752
3,57,110,928
3,57,0,240
3,59,110,0
3,59,0,1200
3,62,110,480
3,62,0,240
3,64,110,0
3,64,0,240
3,66,110,0
3,66,0,240
3,65,110,0
3,65,0,240
3,66,110,0
3,66,0,240
3,65,110,0
3,65,0,240
3,66,110,0
3,66,0,240
3,57,110,0
3,57,0,480
3,59,110,0
3,59,0,1200
3,62,110,240
3,62,0,240
3,64,110,0
3,64,0,240
3,66,110,0
3,66,0,1200
3,57,110,480
3,57,0,240
3,59,110,0
3,59,0,960
3,62,110,720
3,62,0,240
3,64,110,0
3,64,0,240
3,66,110,0
3,66,0,240
3,69,110,0
3,69,0,240
3,69,110,0
3,69,0,240
3,66,110,0
3,66,0,240
3,69,110,0
3,69,0,240
3,71,110,240
3,71,0,240
3,74,110,0
3,74,0,480
3,71,110,0
3,71,0,480
3,69,110,0
3,69,0,480
3,62,110,0
3,66,110,0
3,66,0,240
3,62,0,0
3,67,110,0
3,64,110,0
3,64,0,240
3,67,0,0
3,69,110,0
3,66,110,0
3,66,0,1200
3,69,0,0
3,69,110,480
3,66,110,0
3,66,0,240
3,69,0,0
3,69,110,0
3,64,110,0
3,64,0,480
3,69,0,0
3,69,110,0
3,64,110,0
3,64,0,240
3,69,0,0
3,67,110,0
3,64,110,0
3,64,0,240
3,67,0,0
3,67,110,0
3,64,110,0
3,64,0,240
3,67,0,0
3,66,110,0
3,62,110,0
3,62,0,240
3,66,0,0
3,64,110,0
3,61,110,0
3,61,0,480
3,64,0,0
3,67,110,0
3,64,110,0
3,64,0,1920
3,67,0,0
3,69,110,0
3,69,0,120
3,67,110,0
3,67,0,120
3,64,110,0
3,59,110,0
3,59,0,960
3,64,0,0
3,67,110,240
3,64,110,0
3,64,0,240
3,67,0,0
3,69,110,0
3,66,110,0
3,66,0,240
3,69,0,0
3,71,110,0
3,67,110,0
3,67,0,1200
3,71,0,0
3,71,110,240
3,67,110,0
3,67,0,240
3,71,0,0
3,71,110,0
3,67,110,0
3,67,0,240
3,71,0,0
3,71,110,0
3,67,110,0
3,67,0,480
3,71,0,0
3,69,110,0
3,66,110,0
3,66,0,240
3,69,0,0
3,67,110,0
3,64,110,0
3,64,0,240
3,67,0,0
3,64,110,0
3,67,110,0
3,67,0,240
3,64,0,0
3,62,110,0
3,66,110,0
3,66,0,240
3,62,0,0
3,62,110,0
3,66,110,0
3,62,0,640
3,66,0,80
3,66,110,0
3,62,110,0
3,62,0,720
3,66,0,0
3,64,110,0
3,61,110,0
3,61,0,960
3,64,0,0
3,66,110,0
3,66,0,120
3,64,110,0
3,64,0,120
3,62,110,0
3,59,110,0
3,59,0,960
3,62,0,0
3,66,110,1440
3,66,0,240
3,66,110,0
3,66,0,240
3,66,110,0
3,66,0,240
3,67,110,0
3,67,0,240
3,69,110,0
3,69,0,240
3,62,110,0
3,62,0,1200
3,66,110,960
3,62,110,0
3,62,0,720
3,66,0,0
3,64,110,0
3,61,110,0
3,61,0,960
3,64,0,0
3,66,110,0
3,66,0,120
3,64,110,0
3,64,0,120
3,62,110,0
3,59,110,0
3,59,0,960
3,62,0,0
3,66,110,1440
3,66,0,240
3,66,110,0
3,66,0,240
3,66,110,0
3,66,0,240
3,67,110,0
3,67,0,240
3,69,110,0
3,69,0,240
3,62,110,0
3,62,0,1200
3,62,110,960
3,66,110,0
3,66,0,720
3,62,0,0
3,64,110,0
3,61,110,0
3,61,0,960
3,64,0,0
3,66,110,0
3,66,0,120
3,64,110,0
3,64,0,120
3,62,110,0
3,59,110,0
3,59,0,960
3,62,0,0
3,66,110,1440
3,66,0,240
3,66,110,0
3,66,0,240
3,61,110,0
3,64,110,0
3,66,110,0
3,66,0,240
3,67,110,0
3,67,0,240
3,69,110,0
3,69,0,240
3,62,110,0
3,64,0,240
3,61,0,0
3,59,110,0
3,59,0,960
3,62,0,0
3,66,110,960
3,62,110,0
3,62,0,720
3,66,0,0
3,64,110,0
3,61,110,0
3,61,0,960
3,64,0,0
3,66,110,0
3,66,0,120
3,64,110,0
3,64,0,120
3,59,110,0
3,62,110,0
3,62,0,960
3,59,0,0
3,66,110,1440
3,66,0,240
3,66,110,0
3,66,0,240
3,64,110,0
3,61,110,0
3,66,110,0
3,66,0,240
3,67,110,0
3,67,0,240
3,69,110,0
3,69,0,240
3,62,110,0
3,61,0,240
3,64,0,0
3,59,110,0
3,59,0,960
3,62,0,0
3,66,110,960
3,62,110,0
3,62,0,480
3,66,0,0
3,67,110,3120
3,67,0,240
3,69,110,0
3,69,0,1920
3,72,110,480
3,72,0,240
3,72,110,0
3,72,0,240
3,71,110,0
3,71,0,240
3,69,110,0
3,69,0,240
3,67,110,0
3,67,0,240
3,67,110,0
3,67,0,720
3,69,110,0
3,69,0,2880
3,67,110,240
3,67,0,240
3,69,110,0
3,69,0,1920
3,72,110,480
3,72,0,240
3,72,110,0
3,72,0,240
3,71,110,0
3,71,0,240
3,69,110,0
3,69,0,240
3,67,110,0
3,67,0,240
3,67,110,0
3,67,0,720
3,69,110,0
3,69,0,2880
3,66,110,480
3,62,110,0
3,62,0,720
3,66,0,0
3,64,110,0
3,61,110,0
3,61,0,960
3,64,0,0
3,66,110,0
3,66,0,120
3,64,110,0
3,64,0,120
3,62,110,0
3,59,110,0
3,59,0,960
3,62,0,0
3,66,110,1440
3,66,0,240
3,66,110,0
3,66,0,240
3,64,110,0
3,61,110,0
3,66,110,0
3,66,0,240
3,62,110,480
3,61,0,240
3,64,0,0
3,59,110,0
3,59,0,960
3,62,0,0
3,66,110,960
3,62,110,0
3,62,0,720
3,66,0,0
3,64,110,0
3,61,110,0
3,61,0,960
3,64,0,0
3,66,110,0
3,66,0,120
3,64,110,0
3,64,0,120
3,62,110,0
3,59,110,0
3,59,0,960
3,62,0,0
3,66,110,1440
3,66,0,240
3,66,110,0
3,66,0,240
3,64,110,0
3,61,110,0
3,66,110,0
3,66,0,240
3,62,110,480
3,61,0,240
3,64,0,0
3,59,110,0
3,59,0,960
3,62,0,0
3,66,110,960
3,62,110,0
3,62,0,720
3,66,0,0
3,64,110,0
3,61,110,0
3,61,0,960
3,64,0,0
3,66,110,0
3,66,0,120
3,64,110,0
3,64,0,120
3,62,110,0
3,59,110,0
3,59,0,960
3,62,0,0
3,66,110,1440
3,66,0,240
3,66,110,0
3,66,0,240
3,66,110,0
3,61,110,0
3,66,0,240
3,67,110,0
3,67,0,240
3,69,110,0
3,69,0,240
3,74,110,0
3,62,110,0
3,74,0,240
3,61,0,0
3,59,110,0
3,74,110,0
3,59,0,960
3,62,0,0
3,66,110,960
3,62,110,0
3,62,0,720
3,66,0,0
3,64,110,0
3,61,110,0
3,61,0,960
3,64,0,0
3,66,110,0
3,66,0,120
3,64,110,0
3,64,0,120
3,62,110,0
3,59,110,0
3,59,0,960
3,62,0,0
3,74,0,960
3,66,110,480
3,66,0,240
3,66,110,0
3,66,0,240
3,64,110,0
3,61,110,0
3,66,110,0
3,66,0,240
3,67,110,0
3,67,0,240
3,69,110,0
3,69,0,240
3,74,110,0
3,62,110,0
3,74,0,240
3,64,0,0
3,61,0,0
3,59,110,0
3,74,110,0
3,59,0,960
3,62,0,0
3,66,110,0
3,62,110,0
3,62,0,106
3,66,0,0
3,64,110,0
3,61,110,0
3,61,0,145
3,64,0,0
3,66,110,0
3,66,0,111
3,64,110,0
3,64,0,77
3,62,110,0
3,59,110,0
3,59,0,116
3,62,0,0
3,74,0,128
3,62,110,1
3,66,110,0
3,66,0,20
3,66,110,0
3,66,0,106
3,66,110,0
3,66,0,39
3,62,0,0
3,64,110,0
3,61,110,0
3,66,110,0
3,66,0,126
3,67,110,0
3,67,0,58
3,69,110,0
3,69,0,145
3,74,110,0
3,62,110,0
3,74,0,78
3,64,0,0
3,61,0,0
3,59,110,0
3,74,110,0
3,59,0,116
3,62,0,0
3,66,110,1
3,62,110,0
3,62,0,107
3,66,0,0
3,64,110,0
3,61,110,0
3,61,0,145
3,64,0,0
3,66,110,0
3,66,0,112
3,64,110,0
3,64,0,78
3,62,110,0
3,59,110,0
3,59,0,116
3,62,0,0
3,74,0,1
3,62,110,0
3,66,110,0
3,66,0,20
3,66,110,0
3,66,0,107
3,66,110,0
3,66,0,40
3,62,0,0
3,64,110,0
3,61,110,0
3,66,110,0
3,66,0,126
3,67,110,0
3,67,0,59
3,69,110,0
3,69,0,145
3,74,110,0
3,62,110,0
3,74,0,78
3,64,0,0
3,61,0,0
3,59,110,0
3,74,110,0
3,59,0,117
3,62,0,0
3,74,0,116
4,43,115,7920
4,43,0,240
4,45,115,0
4,45,0,240
4,50,115,0
4,50,0,727
4,50,115,713
4,50,0,240
4,45,115,240
4,45,0,240
4,43,115,0
4,43,0,713
4,43,115,487
4,43,0,240
4,45,115,0
4,45,0,240
4,50,115,0
4,50,0,727
4,50,115,713
4,50,0,240
4,45,115,240
4,45,0,240
4,43,115,0
4,43,0,648
4,43,115,552
4,43,0,240
4,45,115,0
4,45,0,240
4,50,115,0
4,50,0,727
4,50,115,713
4,50,0,240
4,45,115,240
4,45,0,240
4,43,115,0
4,43,0,687
4,43,115,513
4,43,0,240
4,45,115,0
4,45,0,240
4,50,115,0
4,50,0,739
4,45,115,461
4,45,0,240
4,45,115,0
4,45,0,480
4,43,115,0
4,43,0,959
4,43,115,481
4,43,0,240
4,45,115,0
4,45,0,240
4,50,115,0
4,50,0,727
4,50,115,713
4,50,0,240
4,45,115,240
4,45,0,240
4,43,115,0
4,43,0,700
4,43,115,500
4,43,0,240
4,45,115,0
4,45,0,240
4,50,115,0
4,50,0,739
4,45,115,461
4,45,0,240
4,45,115,0
4,45,0,480
4,43,115,0
4,43,0,480
4,43,115,0
4,43,0,240
4,43,115,0
4,43,0,240
4,43,115,0
4,43,0,240
4,43,115,0
4,43,0,240
4,43,115,0
4,43,0,240
4,43,115,0
4,43,0,240
4,43,115,0
4,43,0,240
4,38,115,0
4,38,0,480
4,54,115,0
4,50,115,0
4,50,0,240
4,54,0,0
4,38,115,0
4,38,0,240
4,38,115,0
4,38,0,480
4,54,115,0
4,50,115,0
4,50,0,480
4,54,0,0
4,45,115,0
4,45,0,480
4,52,115,0
4,49,115,0
4,49,0,240
4,52,0,0
4,45,115,0
4,45,0,240
4,45,115,0
4,45,0,240
4,45,115,0
4,45,0,720
4,36,115,0
4,36,0,720
4,43,115,0
4,43,0,240
4,36,115,0
4,36,0,480
4,36,115,0
4,36,0,480
4,40,115,0
4,40,0,480
4,55,115,0
4,52,115,0
4,52,0,240
4,55,0,0
4,40,115,0
4,40,0,240
4,40,115,0
4,40,0,480
4,55,115,0
4,52,115,0
4,52,0,480
4,55,0,0
4,43,115,0
4,43,0,480
4,55,115,0
4,55,0,240
4,43,115,0
4,43,0,240
4,43,115,0
4,43,0,240
4,43,115,0
4,43,0,720
4,43,115,0
4,43,0,480
4,55,115,0
4,55,0,240
4,43,115,0
4,43,0,240
4,43,115,0
4,43,0,240
4,43,115,0
4,43,0,480
4,43,115,0
4,43,0,240
4,50,115,0
4,50,0,720
4,45,115,0
4,45,0,240
4,45,115,0
4,45,0,240
4,45,115,0
4,45,0,720
4,43,115,0
4,43,0,480
4,43,115,0
4,43,0,480
4,53,115,0
4,53,0,240
4,57,115,0
4,57,0,240
4,48,115,0
4,48,0,240
4,52,115,0
4,52,0,240
4,50,115,0
4,50,0,480
4,57,115,0
4,54,115,0
4,54,0,480
4,57,0,0
4,45,115,0
4,45,0,480
4,57,115,0
4,54,115,0
4,54,0,480
4,57,0,0
4,43,115,0
4,43,0,480
4,59,115,0
4,55,115,0
4,55,0,480
4,59,0,0
4,53,115,0
4,53,0,240
4,57,115,0
4,57,0,240
4,48,115,0
4,48,0,240
4,52,115,0
4,52,0,240
4,50,115,0
4,50,0,720
4,50,115,0
4,50,0,480
4,45,115,0
4,45,0,240
4,45,115,0
4,45,0,480
4,43,115,0
4,43,0,480
4,43,115,0
4,43,0,480
4,53,115,0
4,53,0,240
4,57,115,0
4,57,0,240
4,48,115,0
4,48,0,240
4,52,115,0
4,52,0,240
4,50,115,0
4,50,0,480
4,57,115,0
4,54,115,0
4,54,0,480
4,57,0,0
4,45,115,0
4,45,0,480
4,57,115,0
4,54,115,0
4,54,0,480
4,57,0,0
4,43,115,0
4,43,0,480
4,59,115,0
4,55,115,0
4,55,0,480
4,59,0,0
4,53,115,0
4,53,0,240
4,57,115,0
4,57,0,240
4,48,115,0
4,48,0,240
4,52,115,0
4,52,0,240
4,50,85,25
4,50,0,428
4,43,115,2667
4,43,0,240
4,45,115,0
4,45,0,240
