track,note,velocity,time
3,54,100,31136
3,54,0,476
3,57,100,4
3,57,0,716
3,59,100,4
3,59,0,716
3,62,100,4
3,62,0,716
3,59,100,4
3,59,0,716
3,57,100,4
3,57,0,476
3,62,100,4
3,62,0,476
3,59,100,4
3,59,0,716
3,57,100,4
3,57,0,716
3,54,100,4
3,54,0,716
3,57,100,4
3,57,0,716
3,59,100,4
3,59,0,476
3,54,100,4
3,54,0,476
3,57,100,4
3,57,0,716
3,59,100,4
3,59,0,716
3,62,100,4
3,62,0,716
3,59,100,4
3,59,0,716
3,57,100,4
3,57,0,956
3,59,100,4
3,59,0,1436
3,57,100,2404
3,57,0,716
3,59,100,4
3,59,0,716
3,62,100,4
3,62,0,716
3,59,100,4
3,59,0,716
3,57,100,4
3,57,0,476
3,62,100,4
3,62,0,476
3,59,100,4
3,59,0,960
3,57,100,0
3,57,0,480
3,54,100,0
3,54,0,716
3,57,100,4
3,57,0,476
3,59,100,4
3,59,0,236
3,62,100,4
3,62,0,120
3,59,100,0
3,59,0,360
3,54,100,0
3,54,0,476
3,57,100,4
3,57,0,716
3,59,100,4
3,59,0,716
3,62,100,4
3,62,0,716
3,59,100,4
3,59,0,716
3,57,100,4
3,57,0,956
3,59,100,4
3,59,0,1436
3,62,100,1924
3,62,0,476
3,62,100,4
3,62,0,716
3,61,100,4
3,61,0,716
3,59,100,4
3,59,0,716
3,59,100,4
3,59,0,716
3,61,100,4
3,61,0,476
3,62,100,4
3,62,0,716
3,62,100,4
3,62,0,716
3,64,100,4
3,64,0,476
3,66,100,4
3,66,0,716
3,66,100,4
3,66,0,716
3,66,100,484
3,66,0,716
3,66,100,4
3,66,0,716
3,64,100,4
3,64,0,476
3,62,100,4
3,62,0,716
3,62,100,4
3,62,0,716
3,64,100,4
3,64,0,476
3,66,100,4
3,66,0,716
3,66,100,4
3,66,0,716
3,68,100,4
3,68,0,476
3,69,100,4
3,69,0,716
3,69,100,4
3,69,0,716
3,71,100,4
3,71,0,476
3,73,100,4
3,73,0,236
3,73,100,4
3,73,0,236
3,73,100,4
3,73,0,236
3,73,100,4
3,73,0,236
3,73,100,4
3,73,0,236
3,73,100,4
3,73,0,236
3,73,100,4
3,73,0,716
3,71,100,4
3,71,0,716
3,69,100,4
3,69,0,476
3,66,100,4
3,66,0,476
3,73,100,4
3,73,0,236
3,73,100,4
3,73,0,236
3,73,100,4
3,73,0,236
3,73,100,4
3,73,0,236
3,73,100,4
3,73,0,236
3,73,100,4
3,73,0,236
3,73,100,4
3,73,0,716
3,69,100,4
3,69,0,236
3,71,100,4
3,71,0,476
3,69,100,4
3,69,0,476
3,73,100,484
3,73,0,236
3,73,100,4
3,73,0,236
3,73,100,4
3,73,0,236
3,73,100,4
3,73,0,236
3,73,100,4
3,73,0,236
3,73,100,4
3,73,0,236
3,73,100,4
3,73,0,716
3,71,100,4
3,71,0,716
3,69,100,4
3,69,0,476
3,66,100,4
3,66,0,476
3,64,100,4
3,64,0,236
3,66,100,4
3,66,0,1680
3,73,100,1440
3,73,0,716
3,73,100,4
3,73,0,236
3,73,100,4
3,73,0,236
3,73,100,4
3,73,0,236
3,73,100,4
3,73,0,236
3,73,100,4
3,73,0,236
3,73,100,4
3,73,0,716
3,71,100,4
3,71,0,716
3,69,100,4
3,69,0,476
3,66,100,4
3,66,0,476
3,73,100,4
3,73,0,236
3,73,100,4
3,73,0,236
3,73,100,4
3,73,0,236
3,73,100,4
3,73,0,236
3,73,100,4
3,73,0,236
3,73,100,4
3,73,0,236
3,73,100,4
3,73,0,716
3,71,100,4
3,71,0,716
3,69,100,4
3,69,0,476
3,73,100,484
3,73,0,236
3,73,100,4
3,73,0,236
3,73,100,4
3,73,0,236
3,73,100,4
3,73,0,236
3,73,100,4
3,73,0,236
3,73,100,4
3,73,0,236
3,73,100,4
3,73,0,716
3,71,100,4
3,71,0,716
3,69,100,4
3,69,0,476
3,54,100,19684
3,54,0,476
3,57,100,4
3,57,0,716
3,59,100,4
3,59,0,716
3,62,100,4
3,62,0,716
3,59,100,4
3,59,0,716
3,57,100,4
3,57,0,476
3,62,100,4
3,62,0,476
3,59,100,4
3,59,0,716
3,57,100,4
3,57,0,716
3,54,100,4
3,54,0,716
3,57,100,4
3,57,0,716
3,59,100,4
3,59,0,476
3,54,100,4
3,54,0,476
3,57,100,4
3,57,0,716
3,59,100,4
3,59,0,716
3,62,100,4
3,62,0,716
3,59,100,4
3,59,0,716
3,57,100,4
3,57,0,956
3,59,100,4
3,59,0,1436
3,57,100,2404
3,57,0,716
3,59,100,4
3,59,0,716
3,62,100,4
3,62,0,716
3,59,100,4
3,59,0,716
3,62,100,4
3,62,0,476
3,65,100,4
3,65,0,476
3,64,100,4
3,64,0,476
3,62,100,4
3,62,0,236
3,59,100,4
3,59,0,720
3,54,100,0
3,54,0,716
3,57,100,4
3,57,0,476
3,57,100,4
3,57,0,236
3,59,100,4
3,59,0,476
3,54,100,4
3,54,0,476
3,57,100,4
3,57,0,716
3,59,100,4
3,59,0,716
3,62,100,4
3,62,0,716
3,59,100,4
3,59,0,716
3,57,100,4
3,57,0,956
3,59,100,4
3,59,0,1436
3,62,100,1924
3,62,0,476
3,62,100,4
3,62,0,716
3,61,100,4
3,61,0,716
3,59,100,4
3,59,0,716
3,59,100,4
3,59,0,716
3,61,100,4
3,61,0,476
3,62,100,4
3,62,0,716
3,62,100,4
3,62,0,716
3,64,100,4
3,64,0,476
3,66,100,4
3,66,0,716
3,66,100,4
3,66,0,716
3,66,100,484
3,66,0,716
3,66,100,4
3,66,0,716
3,64,100,4
3,64,0,476
3,62,100,4
3,62,0,716
3,62,100,4
3,62,0,716
3,64,100,4
3,64,0,476
3,66,100,4
3,66,0,716
3,66,100,4
3,66,0,716
3,68,100,4
3,68,0,476
3,69,100,4
3,69,0,716
3,69,100,4
3,69,0,716
3,71,100,4
3,71,0,476
3,73,100,4
3,73,0,236
3,73,100,4
3,73,0,236
3,73,100,4
3,73,0,236
3,73,100,4
3,73,0,236
3,73,100,4
3,73,0,236
3,73,100,4
3,73,0,236
3,73,100,4
3,73,0,716
3,71,100,4
3,71,0,716
3,69,100,4
3,69,0,476
3,66,100,4
3,66,0,476
3,73,100,4
3,73,0,236
3,73,100,4
3,73,0,236
3,73,100,4
3,73,0,236
3,73,100,4
3,73,0,236
3,73,100,4
3,73,0,236
3,73,100,4
3,73,0,236
3,73,100,4
3,73,0,716
3,69,100,4
3,69,0,236
3,71,100,4
3,71,0,476
3,69,100,4
3,69,0,476
3,73,100,484
3,73,0,236
3,73,100,4
3,73,0,236
3,73,100,4
3,73,0,236
3,73,100,4
3,73,0,236
3,73,100,4
3,73,0,236
3,73,100,4
3,73,0,236
3,73,100,4
3,73,0,716
3,71,100,4
3,71,0,716
3,69,100,4
3,69,0,476
3,66,100,4
3,66,0,476
3,64,100,4
3,64,0,236
3,66,100,4
3,66,0,1680
3,73,100,1440
3,73,0,716
3,73,100,4
3,73,0,236
3,73,100,4
3,73,0,236
3,73,100,4
3,73,0,236
3,73,100,4
3,73,0,236
3,73,100,4
3,73,0,236
3,73,100,4
3,73,0,716
3,71,100,4
3,71,0,716
3,69,100,4
3,69,0,476
3,66,100,4
3,66,0,476
3,73,100,4
3,73,0,236
3,73,100,4
3,73,0,236
3,73,100,4
3,73,0,236
3,73,100,4
3,73,0,236
3,73,100,4
3,73,0,236
3,73,100,4
3,73,0,236
3,73,100,4
3,73,0,716
3,71,100,4
3,71,0,716
3,69,100,4
3,69,0,476
3,73,100,484
3,73,0,236
3,73,100,4
3,73,0,236
3,73,100,4
3,73,0,236
3,73,100,4
3,73,0,236
3,73,100,4
3,73,0,236
3,73,100,4
3,73,0,236
3,73,100,4
3,73,0,716
3,71,100,4
3,71,0,716
3,69,100,4
3,69,0,476
3,62,100,8164
3,62,0,476
3,62,100,4
3,62,0,716
3,61,100,4
3,61,0,716
3,59,100,4
3,59,0,716
3,59,100,4
3,59,0,716
3,61,100,4
3,61,0,476
3,62,100,4
3,62,0,716
3,62,100,4
3,62,0,716
3,64,100,4
3,64,0,476
3,66,100,4
3,66,0,716
3,66,100,4
3,66,0,716
3,66,100,484
3,66,0,716
3,66,100,4
3,66,0,716
3,64,100,4
3,64,0,476
3,62,100,4
3,62,0,716
3,62,100,4
3,62,0,716
3,64,100,4
3,64,0,476
3,66,100,4
3,66,0,716
3,66,100,4
3,66,0,716
3,68,100,4
3,68,0,476
3,69,100,4
3,69,0,716
3,69,100,4
3,69,0,716
3,71,100,4
3,71,0,476
3,73,100,4
3,73,0,236
3,73,100,4
3,73,0,236
3,73,100,4
3,73,0,236
3,73,100,4
3,73,0,236
3,73,100,4
3,73,0,236
3,73,100,4
3,73,0,236
3,72,100,4
3,72,0,716
3,71,100,4
3,71,0,716
3,69,100,4
3,69,0,476
3,66,100,4
3,66,0,476
3,73,100,4
3,73,0,236
3,73,100,4
3,73,0,236
3,73,100,4
3,73,0,236
3,73,100,4
3,73,0,236
3,73,100,4
3,73,0,236
3,73,100,4
3,73,0,236
3,72,100,4
3,72,0,716
3,69,100,4
3,69,0,236
3,71,100,4
3,71,0,476
3,69,100,4
3,69,0,476
3,73,100,484
3,73,0,236
3,73,100,4
3,73,0,236
3,73,100,4
3,73,0,236
3,73,100,4
3,73,0,236
3,73,100,4
3,73,0,236
3,73,100,4
3,73,0,236
3,72,100,4
3,72,0,716
3,71,100,4
3,71,0,716
3,69,100,4
3,69,0,476
3,66,100,4
3,66,0,476
3,64,100,4
3,64,0,236
3,66,100,4
3,66,0,1680
3,73,100,1440
3,73,0,716
3,73,100,4
3,73,0,236
3,73,100,4
3,73,0,236
3,73,100,4
3,73,0,236
3,73,100,4
3,73,0,236
3,73,100,4
3,73,0,236
3,72,100,4
3,72,0,716
3,71,100,4
3,71,0,716
3,69,100,4
3,69,0,476
3,66,100,4
3,66,0,476
3,73,100,4
3,73,0,236
3,73,100,4
3,73,0,236
3,73,100,4
3,73,0,236
3,73,100,4
3,73,0,236
3,73,100,4
3,73,0,236
3,73,100,4
3,73,0,236
3,72,100,4
3,72,0,716
3,71,100,4
3,71,0,716
3,69,100,4
3,69,0,476
3,73,100,484
3,73,0,236
3,73,100,4
3,73,0,236
3,73,100,4
3,73,0,236
3,73,100,4
3,73,0,236
3,73,100,4
3,73,0,236
3,73,100,4
3,73,0,236
3,72,100,4
3,72,0,716
3,71,100,4
3,71,0,716
3,69,100,4
3,69,0,476
3,73,100,3844
3,73,0,716
3,73,100,4
3,73,0,236
3,73,100,4
3,73,0,236
3,73,100,4
3,73,0,236
3,73,100,4
3,73,0,236
3,73,100,4
3,73,0,236
3,72,100,4
3,72,0,716
3,71,100,4
3,71,0,716
3,69,100,4
3,69,0,476
3,66,100,4
3,66,0,476
3,73,100,4
3,73,0,236
3,73,100,4
3,73,0,236
3,73,100,4
3,73,0,236
3,73,100,4
3,73,0,236
3,73,100,4
3,73,0,236
3,73,100,4
3,73,0,236
3,72,100,4
3,72,0,716
3,69,100,4
3,69,0,236
3,71,100,4
3,71,0,476
3,69,100,4
3,69,0,476
3,73,100,484
3,73,0,236
3,73,100,4
3,73,0,236
3,73,100,4
3,73,0,236
3,73,100,4
3,73,0,236
3,73,100,4
3,73,0,236
3,73,100,4
3,73,0,236
3,72,100,4
3,72,0,716
3,71,100,4
3,71,0,716
3,69,100,4
3,69,0,2876
4,83,109,4028
4,74,92,0
4,71,97,0
4,62,96,0
4,62,0,240
4,71,0,0
4,74,0,0
4,76,102,0
4,73,93,0
4,64,95,0
4,64,0,480
4,73,0,0
4,76,0,0
4,76,91,0
4,73,95,0
4,64,94,0
4,64,0,720
4,73,0,0
4,76,0,0
4,74,97,0
4,71,99,0
4,62,94,0
4,62,0,240
4,71,0,0
4,74,0,0
4,76,94,0
4,73,93,0
4,64,90,0
4,64,0,480
4,73,0,0
4,76,0,0
4,76,95,0
4,73,93,0
4,64,95,0
4,83,0,1200
4,83,95,0
4,83,0,120
4,81,98,0
4,81,0,120
4,78,95,0
4,78,0,120
4,76,101,0
4,76,0,120
4,76,0,0
4,73,0,0
4,64,0,0
4,73,93,0
4,64,95,0
4,76,95,0
4,71,95,0
4,76,0,240
4,73,0,0
4,64,0,0
4,74,95,80
4,66,99,0
4,78,97,0
4,78,0,480
4,66,0,0
4,74,0,0
4,74,97,0
4,78,93,0
4,66,94,0
4,66,0,600
4,78,0,0
4,74,0,0
4,73,90,40
4,64,94,0
4,76,93,0
4,76,0,240
4,71,0,0
4,73,0,0
4,64,0,0
4,78,95,80
4,74,94,0
4,66,98,0
4,66,0,480
4,74,0,0
4,78,0,0
4,78,90,0
4,74,96,0
4,66,88,0
4,86,101,1600
4,83,89,0
4,66,0,80
4,78,0,0
4,74,0,0
4,86,0,280
4,83,0,0
4,83,95,0
4,78,101,0
4,78,0,120
4,83,0,0
4,78,95,0
4,74,96,0
4,74,0,360
4,78,0,0
4,83,93,0
4,78,95,0
4,78,0,120
4,83,0,0
4,78,99,0
4,74,100,0
4,74,0,360
4,78,0,0
4,74,99,0
4,71,94,0
4,71,0,120
4,74,0,0
4,78,95,0
4,74,99,0
4,74,0,360
4,78,0,0
4,74,96,0
4,71,95,0
4,71,0,120
4,74,0,0
4,71,94,0
4,66,95,0
4,66,0,360
4,71,0,0
4,74,94,0
4,71,95,0
4,71,0,120
4,74,0,0
4,71,95,0
4,66,95,0
4,66,0,360
4,71,0,0
4,66,95,0
4,62,93,0
4,62,0,120
4,66,0,0
4,71,95,0
4,66,90,0
4,66,0,360
4,71,0,0
4,66,98,0
4,62,94,0
4,62,0,120
4,66,0,0
4,62,100,0
4,59,95,0
4,59,0,240
4,62,0,0
4,86,96,240
4,83,95,0
4,83,0,360
4,86,0,0
4,83,94,0
4,79,96,0
4,79,0,120
4,83,0,0
4,79,89,0
4,74,96,0
4,74,0,360
4,79,0,0
4,83,96,0
4,79,89,0
4,79,0,120
4,83,0,0
4,79,93,0
4,74,96,0
4,74,0,360
4,79,0,0
4,74,98,0
4,71,93,0
4,71,0,120
4,74,0,0
4,79,95,0
4,74,88,0
4,74,0,360
4,79,0,0
4,74,92,0
4,71,93,0
4,71,0,120
4,74,0,0
4,71,95,0
4,67,95,0
4,67,0,360
4,71,0,0
4,74,95,0
4,71,93,0
4,71,0,120
4,74,0,0
4,71,94,0
4,67,93,0
4,67,0,360
4,71,0,0
4,67,95,0
4,62,95,0
4,62,0,120
4,67,0,0
4,71,99,0
4,67,98,0
4,67,0,360
4,71,0,0
4,67,95,0
4,62,100,0
4,62,0,120
4,67,0,0
4,62,100,0
4,59,93,0
4,59,0,240
4,62,0,0
4,74,98,240
4,71,101,0
4,62,101,0
4,83,90,0
4,62,0,240
4,74,0,0
4,71,0,0
4,76,95,0
4,73,98,0
4,64,93,0
4,64,0,480
4,73,0,0
4,76,0,0
4,76,95,0
4,73,95,0
4,64,98,0
4,64,0,720
4,73,0,0
4,76,0,0
4,74,101,0
4,71,95,0
4,62,95,0
4,62,0,240
4,71,0,0
4,74,0,0
4,76,95,0
4,73,100,0
4,64,94,0
4,64,0,480
4,73,0,0
4,76,0,0
4,76,97,0
4,73,96,0
4,64,94,0
4,83,0,1200
4,83,97,0
4,83,0,120
4,81,96,0
4,81,0,120
4,78,95,0
4,78,0,120
4,76,97,0
4,76,0,120
4,76,0,0
4,73,0,0
4,64,0,0
4,64,95,0
4,73,96,0
4,76,88,0
4,71,95,0
4,76,0,240
4,64,0,0
4,73,0,0
4,78,95,80
4,74,96,0
4,66,96,0
4,66,0,480
4,74,0,0
4,78,0,0
4,74,97,0
4,78,94,0
4,66,96,0
4,66,0,600
4,78,0,0
4,74,0,0
4,73,98,40
4,64,96,0
4,76,92,0
4,76,0,240
4,71,0,0
4,73,0,0
4,64,0,0
4,78,100,80
4,74,95,0
4,66,97,0
4,74,0,324
4,66,0,13
4,78,0,39
4,78,95,24
4,74,94,0
4,66,95,0
4,66,0,1680
4,74,0,0
4,78,0,0
