track,note,velocity,time
0,72,105,960
0,72,105,0
0,72,0,476
0,72,0,0
0,71,105,4
0,71,105,0
0,71,0,476
0,71,0,0
0,69,105,4
0,52,85,0
0,45,85,0
0,64,88,0
0,60,88,0
0,69,105,0
0,76,105,4
0,76,105,0
0,76,0,236
0,76,0,0
0,76,105,4
0,76,105,0
0,76,0,476
0,76,0,0
0,76,105,4
0,76,105,0
0,76,0,236
0,76,0,0
0,76,105,4
0,76,105,0
0,76,0,1436
0,76,0,0
0,78,105,244
0,78,105,0
0,78,0,236
0,78,0,0
0,76,105,4
0,76,105,0
0,76,0,476
0,45,0,0
0,52,0,0
0,76,0,0
0,74,105,4
0,50,85,0
0,43,85,0
0,60,0,0
0,64,0,0
0,62,88,0
0,59,88,0
0,74,105,0
0,74,0,476
0,74,0,0
0,79,105,4
0,79,105,0
0,79,0,236
0,79,0,0
0,79,105,4
0,79,105,0
0,79,0,476
0,79,0,0
0,79,105,4
0,79,105,0
0,79,0,236
0,79,0,0
0,79,105,4
0,79,105,0
0,79,0,956
0,79,0,0
0,79,105,4
0,79,105,0
0,79,0,236
0,79,0,0
0,79,105,4
0,79,105,0
0,79,0,236
0,79,0,0
0,81,105,4
0,81,105,0
0,81,0,236
0,81,0,0
0,83,105,4
0,83,105,0
0,83,0,476
0,83,0,0
0,76,105,4
0,76,105,0
0,43,0,236
0,50,0,0
0,59,0,0
0,55,85,4
0,48,85,0
0,62,0,0
0,84,85,0
0,64,88,0
0,60,88,0
0,76,0,476
0,76,0,0
0,76,105,4
0,76,105,0
0,76,0,236
0,76,0,0
0,76,105,4
0,76,105,0
0,76,0,236
0,76,0,0
0,78,105,4
0,78,105,0
0,78,0,236
0,78,0,0
0,79,105,4
0,79,105,0
0,79,0,476
0,79,0,0
0,72,105,4
0,72,105,0
0,48,0,236
0,55,0,0
0,52,85,4
0,45,85,0
0,60,0,0
0,64,0,0
0,84,0,0
0,81,85,0
0,60,88,0
0,72,0,476
0,72,0,0
0,81,105,4
0,81,105,0
0,81,0,236
0,81,0,0
0,81,105,4
0,81,105,0
0,81,0,236
0,81,0,0
0,83,105,4
0,83,105,0
0,83,0,236
0,83,0,0
0,84,105,4
0,84,105,0
0,84,0,476
0,84,0,0
0,78,105,4
0,78,105,0
0,45,0,236
0,52,0,0
0,57,85,4
0,50,85,0
0,60,0,0
0,81,0,0
0,74,85,0
0,66,88,0
0,60,88,0
0,78,0,1436
0,78,0,0
0,66,105,484
0,66,105,0
0,66,0,236
0,66,0,0
0,66,105,4
0,66,105,0
0,66,0,236
0,50,0,0
0,57,0,0
0,66,0,0
0,66,105,4
0,66,105,0
0,60,0,233
0,66,0,0
0,66,0,3
0,66,0,0
0,66,105,4
0,66,105,0
0,74,0,6
0,66,0,230
0,66,0,0
0,67,105,4
0,67,105,0
0,67,0,236
0,67,0,0
0,69,105,4
0,69,105,0
0,69,0,476
0,69,0,0
0,67,105,4
0,67,85,0
0,59,85,0
0,67,105,0
0,43,85,240
0,62,70,0
0,59,70,0
0,55,70,0
0,43,85,0
0,50,85,0
0,55,85,0
0,44,100,0
0,36,100,0
0,55,90,0
0,59,90,0
0,62,90,0
0,36,0,60
0,44,0,0
0,43,0,408
0,55,0,4
0,50,0,0
0,43,75,8
0,50,75,0
0,55,75,0
0,44,100,0
0,44,0,60
0,55,0,168
0,59,0,0
0,55,0,0
0,62,0,4
0,50,0,0
0,43,0,0
0,43,0,4
0,43,85,4
0,55,85,0
0,59,85,0
0,62,85,0
0,43,75,0
0,50,75,0
0,55,75,0
0,67,95,0
0,62,95,0
0,55,95,0
0,36,100,0
0,36,0,60
0,55,0,120
0,62,0,0
0,67,0,0
0,67,0,56
0,43,0,0
0,67,0,0
0,59,0,0
0,67,0,0
0,43,85,4
0,59,85,0
0,44,100,0
0,36,100,0
0,36,0,60
0,44,0,0
0,62,0,164
0,59,0,8
0,55,0,0
0,66,105,8
0,66,85,0
0,55,70,0
0,59,70,0
0,62,70,0
0,66,105,0
0,50,0,228
0,43,0,0
0,55,0,4
0,66,0,4
0,43,0,0
0,66,0,0
0,66,0,0
0,67,105,4
0,67,85,0
0,43,75,0
0,50,75,0
0,55,75,0
0,55,95,0
0,62,95,0
0,67,95,0
0,44,100,0
0,41,78,0
0,38,78,0
0,67,105,0
0,38,0,60
0,41,0,0
0,44,0,0
0,67,0,120
0,62,0,0
0,55,0,0
0,55,0,48
0,62,0,4
0,59,0,0
0,67,0,4
0,67,0,0
0,67,0,0
0,69,105,4
0,69,85,0
0,55,70,0
0,59,70,0
0,62,70,0
0,69,105,0
0,55,0,224
0,50,0,0
0,43,0,0
0,55,0,0
0,62,0,4
0,59,0,0
0,55,0,0
0,62,0,0
0,59,0,0
0,59,0,8
0,43,85,4
0,59,85,0
0,55,70,0
0,59,70,0
0,62,70,0
0,43,85,0
0,50,85,0
0,55,85,0
0,44,100,0
0,36,100,0
0,59,90,0
0,62,90,0
0,67,90,0
0,36,0,60
0,44,0,0
0,69,0,176
0,69,0,0
0,69,0,0
0,67,105,4
0,67,85,0
0,67,105,0
0,55,0,232
0,50,0,0
0,43,0,0
0,43,75,8
0,50,75,0
0,55,75,0
0,44,100,0
0,44,0,60
0,62,0,164
0,55,0,0
0,50,0,0
0,59,0,4
0,43,0,0
0,55,0,4
0,67,0,4
0,43,0,0
0,67,0,0
0,67,0,0
0,66,105,4
0,43,85,0
0,66,85,0
0,55,85,0
0,59,85,0
0,62,85,0
0,43,75,0
0,50,75,0
0,55,75,0
0,55,95,0
0,62,95,0
0,67,95,0
0,36,100,0
0,66,105,0
0,36,0,60
0,67,0,120
0,62,0,0
0,55,0,0
0,43,0,56
0,59,0,0
0,43,85,4
0,59,85,0
0,44,100,0
0,36,100,0
0,36,0,60
0,44,0,0
0,62,0,168
0,55,0,0
0,59,0,4
0,55,70,8
0,59,70,0
0,62,70,0
0,41,78,0
0,38,78,0
0,38,0,60
0,41,0,0
0,55,0,172
0,50,0,0
0,43,0,0
0,66,0,4
0,43,0,0
0,66,0,0
0,66,0,0
0,67,105,4
0,67,85,0
0,43,75,0
0,50,75,0
0,55,75,0
0,55,95,0
0,62,95,0
0,67,95,0
0,41,78,0
0,38,78,0
0,67,105,0
0,38,0,60
0,41,0,0
0,67,0,120
0,62,0,0
0,55,0,0
0,41,78,60
0,38,78,0
0,38,0,60
0,41,0,0
0,55,0,164
0,55,0,4
0,50,0,0
0,43,0,0
0,67,0,0
0,62,0,0
0,62,0,4
0,59,0,0
0,59,0,0
0,67,0,4
0,59,0,0
0,67,0,0
0,67,0,0
0,64,105,4
0,48,85,0
0,60,85,0
0,52,70,0
0,55,70,0
0,60,70,0
0,48,85,0
0,55,85,0
0,60,85,0
0,36,100,0
0,44,100,0
0,60,90,0
0,64,90,0
0,67,90,0
0,64,105,0
0,44,0,60
0,36,0,0
0,55,0,408
0,60,0,4
0,48,0,0
0,64,0,8
0,48,75,0
0,55,75,0
0,60,75,0
0,44,100,0
0,64,0,0
0,44,0,60
0,52,0,164
0,60,0,4
0,48,0,0
0,60,0,4
0,55,0,0
0,55,0,0
0,48,0,4
0,72,105,4
0,48,85,0
0,72,85,0
0,52,85,0
0,55,85,0
0,60,85,0
0,48,75,0
0,55,75,0
0,60,75,0
0,60,95,0
0,67,95,0
0,72,95,0
0,36,100,0
0,72,105,0
0,36,0,60
0,72,0,120
0,67,0,0
0,60,0,0
0,72,0,56
0,48,0,0
0,72,0,0
0,60,0,0
0,72,0,0
0,72,105,4
0,48,85,0
0,72,85,0
0,64,85,0
0,44,100,0
0,36,100,0
0,72,105,0
0,36,0,60
0,44,0,0
0,52,0,168
0,60,0,4
0,55,0,0
0,52,70,8
0,55,70,0
0,60,70,0
0,48,0,224
0,60,0,8
0,55,0,0
0,72,0,4
0,48,0,0
0,72,0,0
0,72,0,0
0,71,105,4
0,71,85,0
0,48,75,0
0,55,75,0
0,60,75,0
0,60,95,0
0,67,95,0
0,72,95,0
0,44,100,0
0,41,78,0
0,38,78,0
0,71,105,0
0,38,0,60
0,41,0,0
0,44,0,0
0,72,0,120
0,67,0,0
0,60,0,0
0,55,0,44
0,52,0,4
0,60,0,4
0,71,0,4
0,71,0,0
0,71,0,0
0,71,105,4
0,71,85,0
0,52,70,0
0,55,70,0
0,60,70,0
0,71,105,0
0,60,0,224
0,52,0,0
0,67,0,0
0,60,0,0
0,60,0,4
0,55,0,0
0,48,0,0
0,55,0,4
0,64,0,0
0,64,0,4
0,50,85,4
0,66,85,0
0,54,70,0
0,57,70,0
0,62,70,0
0,50,85,0
0,57,85,0
0,62,85,0
0,44,100,0
0,36,100,0
0,57,90,0
0,62,90,0
0,66,90,0
0,36,0,60
0,44,0,0
0,71,0,176
0,71,0,0
0,71,0,0
0,69,105,4
0,69,85,0
0,69,105,0
0,57,0,228
0,50,0,0
0,62,0,4
0,50,75,8
0,57,75,0
0,62,75,0
0,44,100,0
0,44,0,60
0,57,0,164
0,50,0,0
0,62,0,4
0,62,0,0
0,54,0,4
0,57,0,0
0,69,0,4
0,50,0,0
0,69,0,0
0,69,0,0
0,67,105,4
0,50,85,0
0,67,85,0
0,54,85,0
0,57,85,0
0,62,85,0
0,50,75,0
0,57,75,0
0,62,75,0
0,62,95,0
0,69,95,0
0,74,95,0
0,36,100,0
0,67,105,0
0,36,0,60
0,74,0,120
0,69,0,0
0,62,0,0
0,50,0,56
0,67,0,0
0,66,0,0
0,50,85,4
0,67,85,0
0,66,85,0
0,44,100,0
0,36,100,0
0,36,0,60
0,44,0,0
0,57,0,172
0,62,0,0
0,54,0,0
0,67,0,4
0,67,0,4
0,69,105,0
0,69,85,0
0,54,70,0
0,57,70,0
0,62,70,0
0,41,78,0
0,38,78,0
0,67,0,0
0,69,105,0
0,38,0,60
0,41,0,0
0,50,0,164
0,62,0,8
0,57,0,0
0,50,0,4
0,50,75,4
0,57,75,0
0,62,75,0
0,62,95,0
0,69,95,0
0,74,95,0
0,41,78,0
0,38,78,0
0,38,0,60
0,41,0,0
0,74,0,120
0,69,0,0
0,62,0,0
0,62,0,44
0,54,0,4
0,57,0,4
0,69,0,4
0,69,0,0
0,69,0,0
0,54,70,4
0,57,70,0
0,62,70,0
0,41,78,0
0,38,78,0
0,38,0,60
0,41,0,0
0,57,0,164
0,66,0,0
0,62,0,4
0,50,0,0
0,62,0,0
0,57,0,4
0,54,0,0
0,62,0,0
0,57,0,0
0,66,0,4
0,67,105,4
0,43,85,0
0,67,85,0
0,59,85,0
0,55,70,0
0,59,70,0
0,62,70,0
0,43,85,0
0,50,85,0
0,55,85,0
0,36,100,0
0,44,100,0
0,59,90,0
0,62,90,0
0,67,90,0
0,67,105,0
0,44,0,60
0,36,0,0
0,50,0,404
0,55,0,4
0,43,0,0
0,43,75,12
0,50,75,0
0,55,75,0
0,44,100,0
0,44,0,60
0,62,0,164
0,55,0,0
0,43,0,0
0,55,0,4
0,50,0,0
0,59,0,4
0,43,0,4
0,43,85,4
0,55,85,0
0,59,85,0
0,62,85,0
0,43,75,0
0,50,75,0
0,55,75,0
0,55,95,0
0,62,95,0
0,67,95,0
0,36,100,0
0,36,0,60
0,67,0,120
0,62,0,0
0,55,0,0
0,67,0,56
0,43,0,0
0,67,0,0
0,59,0,0
0,67,0,0
0,43,85,4
0,59,85,0
0,44,100,0
0,36,100,0
0,36,0,60
0,44,0,0
0,62,0,168
0,59,0,4
0,55,0,0
0,66,105,8
0,66,85,0
0,55,70,0
0,59,70,0
0,62,70,0
0,66,105,0
0,55,0,224
0,50,0,0
0,43,0,0
0,66,0,12
0,43,0,0
0,66,0,0
0,66,0,0
0,67,105,4
0,67,85,0
0,43,75,0
0,50,75,0
0,55,75,0
0,55,95,0
0,62,95,0
0,67,95,0
0,44,100,0
0,41,78,0
0,38,78,0
0,67,105,0
0,38,0,60
0,41,0,0
0,44,0,0
0,67,0,120
0,62,0,0
0,55,0,0
0,67,0,56
0,67,0,0
0,67,0,0
0,69,105,4
0,69,85,0
0,69,105,0
0,62,0,224
0,50,0,0
0,43,0,0
0,59,0,0
0,59,0,4
0,55,0,0
0,67,0,0
0,55,0,4
0,62,0,0
0,59,0,4
0,43,85,4
0,59,85,0
0,55,70,0
0,59,70,0
0,62,70,0
0,43,85,0
0,50,85,0
0,55,85,0
0,44,100,0
0,36,100,0
0,59,90,0
0,62,90,0
0,67,90,0
0,36,0,60
0,44,0,0
0,69,0,176
0,69,0,0
0,69,0,0
0,67,105,4
0,67,85,0
0,67,105,0
0,55,0,224
0,43,0,0
0,50,0,4
0,43,75,12
0,50,75,0
0,55,75,0
0,44,100,0
0,44,0,60
0,62,0,164
0,59,0,4
0,59,0,4
0,62,0,0
0,55,0,0
0,67,0,0
0,67,0,4
0,43,0,0
0,67,0,0
0,67,0,0
0,66,105,4
0,43,85,0
0,66,85,0
0,55,85,0
0,59,85,0
0,62,85,0
0,67,95,0
0,62,95,0
0,55,95,0
0,36,100,0
0,55,80,0
0,59,80,0
0,62,80,0
0,66,105,0
0,36,0,60
0,55,0,120
0,62,0,0
0,67,0,0
0,43,0,56
0,66,0,0
0,59,0,0
0,43,85,4
0,66,85,0
0,59,85,0
0,44,100,0
0,36,100,0
0,36,0,60
0,44,0,0
0,59,0,164
0,62,0,0
0,55,0,4
0,66,0,8
0,66,0,4
0,67,105,0
0,67,85,0
0,55,70,0
0,59,70,0
0,62,70,0
0,41,78,0
0,38,78,0
0,66,0,0
0,67,105,0
0,38,0,60
0,41,0,0
0,43,0,176
0,55,95,4
0,62,95,0
0,67,95,0
0,41,78,0
0,38,78,0
0,38,0,60
0,41,0,0
0,67,0,120
0,62,0,0
0,55,0,0
0,62,0,52
0,55,0,0
0,59,0,0
0,67,0,4
0,67,0,0
0,67,0,0
0,64,105,4
0,64,85,0
0,55,70,0
0,59,70,0
0,62,70,0
0,41,78,0
0,38,78,0
0,64,105,0
0,38,0,60
0,41,0,0
0,55,0,164
0,50,0,0
0,43,0,0
0,59,0,0
0,55,0,0
0,55,0,4
0,62,0,4
0,59,0,0
0,62,0,0
0,59,0,4
0,48,85,4
0,60,85,0
0,52,70,0
0,55,70,0
0,60,70,0
0,48,85,0
0,55,85,0
0,60,85,0
0,36,100,0
0,44,100,0
0,55,90,0
0,60,90,0
0,64,90,0
0,44,0,60
0,36,0,0
0,55,0,404
0,60,0,4
0,48,0,4
0,64,0,4
0,64,0,0
0,64,0,0
0,48,75,4
0,55,75,0
0,60,75,0
0,44,100,0
0,44,0,60
0,60,0,164
0,64,0,0
0,55,0,4
0,55,0,0
0,48,0,0
0,55,0,0
0,60,0,4
0,52,0,0
0,60,0,0
0,48,0,4
0,72,105,4
0,48,85,0
0,72,85,0
0,52,85,0
0,55,85,0
0,60,85,0
0,48,75,0
0,55,75,0
0,60,75,0
0,60,95,0
0,67,95,0
0,72,95,0
0,36,100,0
0,60,80,0
0,64,80,0
0,67,80,0
0,72,105,0
0,36,0,60
0,72,0,120
0,67,0,0
0,60,0,0
0,72,0,56
0,48,0,0
0,72,0,0
0,60,0,0
0,72,0,0
0,72,105,4
0,48,85,0
0,72,85,0
0,64,85,0
0,44,100,0
0,36,100,0
0,72,105,0
0,36,0,60
0,44,0,0
0,60,0,164
0,55,0,4
0,52,0,4
0,52,70,8
0,55,70,0
0,60,70,0
0,55,0,224
0,48,0,0
0,60,0,8
0,72,0,4
0,48,0,0
0,72,0,0
0,72,0,0
0,71,105,4
0,71,85,0
0,48,75,0
0,55,75,0
0,60,75,0
0,60,95,0
0,67,95,0
0,72,95,0
0,44,100,0
0,41,78,0
0,38,78,0
0,71,105,0
0,38,0,60
0,41,0,0
0,44,0,0
0,72,0,120
0,67,0,0
0,60,0,0
0,55,0,44
0,60,0,8
0,52,0,0
0,71,0,4
0,71,0,0
0,71,0,0
0,71,105,4
0,71,85,0
0,52,70,0
0,55,70,0
0,60,70,0
0,71,105,0
0,60,0,224
0,55,0,0
0,64,0,0
