track,note,velocity,time
1,50,85,13796
1,43,82,0
1,59,109,8
1,55,104,0
1,62,104,0
1,43,68,28
1,52,95,0
1,64,91,4
1,55,91,8
1,60,91,0
1,50,95,40
1,43,73,0
1,55,95,8
1,59,98,0
1,62,104,0
1,50,73,40
1,43,85,4
1,59,80,4
1,55,88,4
1,62,85,0
1,50,76,68
1,43,76,0
1,62,88,8
1,59,88,0
1,55,98,0
1,62,95,80
1,55,85,0
1,59,104,4
1,50,88,0
1,43,85,0
1,62,91,64
1,50,71,0
1,59,82,4
1,55,88,0
1,43,78,4
1,55,104,80
1,64,109,0
1,60,114,0
1,43,66,0
1,52,104,0
1,43,80,64
1,50,91,0
1,62,95,4
1,59,98,0
1,55,85,0
1,55,82,80
1,60,98,0
1,64,104,0
1,52,98,0
1,43,82,0
1,43,67,48
1,50,88,0
1,59,98,8
1,55,85,0
1,62,98,0
1,50,71,72
1,55,80,4
1,62,88,0
1,43,80,0
1,59,91,8
1,55,74,84
1,62,82,0
1,59,85,0
1,50,71,0
1,43,76,0
1,55,73,84
1,62,73,0
1,59,82,0
1,50,66,0
1,43,67,0
1,50,71,68
1,55,80,8
1,59,82,0
1,62,78,0
1,43,76,0
1,62,74,84
1,55,76,0
1,59,82,0
1,50,67,0
1,43,80,0
1,55,91,80
1,59,98,0
1,50,82,0
1,43,91,0
1,62,104,4
1,43,78,80
1,52,98,0
1,55,98,8
1,64,98,0
1,60,98,0
1,50,88,44
1,43,78,0
1,55,85,8
1,62,95,0
1,59,104,0
1,50,59,68
1,43,85,0
1,55,76,8
1,62,88,4
1,59,80,0
1,50,78,92
1,43,68,0
1,59,98,12
1,62,85,0
1,55,91,0
1,62,88,84
1,55,95,0
1,59,98,0
1,50,62,0
1,43,66,0
1,59,91,68
1,62,85,0
1,55,82,0
1,50,66,0
1,43,67,0
1,55,98,76
1,60,98,0
1,64,104,0
1,43,78,0
1,52,98,0
1,50,91,60
1,55,80,4
1,59,91,4
1,62,98,0
1,43,85,0
1,60,95,76
1,55,88,0
1,64,98,0
1,52,98,0
1,43,76,0
1,59,95,48
1,43,64,0
1,50,95,0
1,62,95,4
1,55,88,0
1,62,88,76
1,50,66,0
1,43,71,0
1,59,80,4
1,55,88,0
1,55,76,88
1,43,73,0
1,50,74,0
1,59,88,8
1,62,85,0
1,62,73,80
1,55,80,0
1,50,66,0
1,59,82,8
1,43,70,0
1,59,82,88
1,62,82,0
1,55,82,0
1,50,74,0
1,43,80,4
1,62,73,84
1,59,78,0
1,55,80,0
1,50,63,8
1,43,74,0
1,55,78,88
1,62,85,0
1,59,85,0
1,50,67,0
1,43,80,8
1,62,73,80
1,55,80,0
1,59,88,0
1,52,109,0
1,43,98,4
1,62,71,76
1,55,82,0
1,59,91,0
1,43,68,0
1,50,91,8
1,55,80,88
1,62,78,0
1,59,82,0
1,43,91,0
1,50,80,8
1,55,82,76
1,62,80,0
1,59,91,0
1,43,80,8
1,50,91,0
1,62,82,76
1,55,85,0
1,59,95,0
1,43,91,0
1,50,80,0
1,43,82,52
1,50,74,0
1,55,98,8
1,62,98,0
1,59,104,0
1,62,88,64
1,55,95,0
1,59,95,0
1,43,80,0
1,50,71,0
1,55,88,88
1,59,88,0
1,62,91,0
1,43,76,4
1,50,91,4
1,55,80,84
1,62,95,0
1,59,98,0
1,50,73,0
1,43,82,0
1,52,104,92
1,59,109,0
1,40,95,0
1,55,95,4
1,64,124,72
1,59,124,0
1,55,124,0
1,40,91,0
1,52,88,0
1,64,114,76
1,55,109,0
1,59,120,0
1,52,91,0
1,40,98,0
1,64,109,84
1,55,98,0
1,59,109,0
1,52,88,4
1,40,88,0
1,62,95,76
1,55,80,0
1,59,88,8
1,43,88,0
1,50,85,0
1,62,85,88
1,55,80,0
1,50,76,0
1,43,88,0
1,59,88,4
1,62,91,84
1,59,109,0
1,55,88,0
1,43,85,0
1,50,78,0
1,50,78,96
1,62,80,4
1,59,114,0
1,55,85,0
1,43,82,0
1,67,114,76
1,60,98,0
1,64,104,0
1,36,104,4
1,67,91,0
1,60,88,0
1,64,82,0
1,48,104,0
1,36,98,0
1,60,98,4
1,67,109,0
1,64,91,0
1,60,91,104
1,67,91,0
1,64,91,0
1,48,95,0
1,59,109,8
1,67,114,0
1,62,109,0
1,35,109,8
1,67,91,84
1,59,104,0
1,62,98,0
1,47,85,0
1,67,95,84
1,62,98,0
1,59,109,0
1,35,109,0
1,62,91,88
1,67,91,0
1,59,95,0
1,47,85,0
1,67,98,8
1,60,95,0
1,57,104,0
1,64,98,0
1,33,109,0
1,67,88,84
1,57,85,0
1,60,82,0
1,64,85,0
1,45,88,0
1,33,104,92
1,57,98,8
1,67,95,0
1,60,91,0
1,64,82,0
1,64,78,96
1,57,88,0
1,67,88,0
1,60,88,0
1,45,85,0
1,67,95,28
1,59,98,0
1,62,104,0
1,31,104,0
1,43,78,88
1,67,91,4
1,62,98,0
1,59,95,0
1,31,95,84
1,67,91,4
1,59,104,4
1,62,104,0
1,67,85,8
1,59,95,0
1,62,88,0
1,43,88,0
1,57,104,72
1,66,104,0
1,62,104,0
1,38,109,0
1,66,88,0
1,62,85,0
1,57,85,0
1,50,98,0
1,66,91,96
1,62,85,0
1,57,91,0
1,38,104,0
1,67,114,96
1,62,104,0
1,59,114,0
1,50,88,0
1,62,80,48
1,57,95,0
1,66,88,0
1,38,104,0
1,66,82,72
1,62,85,0
1,57,91,0
1,50,91,0
1,66,88,88
1,62,91,0
1,57,95,0
1,38,98,0
1,66,88,92
1,57,98,0
1,62,88,0
1,50,95,0
1,66,91,84
1,57,85,0
1,62,82,0
1,38,104,0
1,59,114,88
1,67,114,0
1,62,104,0
1,50,95,0
1,62,74,60
1,66,95,0
1,57,104,0
1,38,95,0
1,62,91,72
1,67,109,0
1,59,124,0
1,50,95,0
1,66,88,20
1,62,91,4
1,38,95,0
1,57,98,4
1,66,82,92
1,57,95,0
1,50,91,0
1,62,78,0
1,66,91,96
1,38,98,0
1,62,82,4
1,57,95,0
1,57,78,92
1,62,80,0
1,66,91,0
1,50,98,0
1,62,82,44
1,59,98,0
1,55,88,8
1,50,74,0
1,43,95,0
1,62,95,92
1,55,88,0
1,59,91,0
1,43,78,8
1,50,88,0
1,62,98,92
1,55,91,0
1,59,98,0
1,50,76,8
1,43,88,0
1,64,114,88
1,60,109,0
1,55,109,0
1,52,98,0
1,43,91,0
1,62,82,48
1,59,88,0
1,55,88,0
1,43,70,4
1,50,88,4
1,55,76,92
1,62,85,0
1,59,91,0
1,43,76,0
1,50,73,0
1,62,91,96
1,55,85,0
1,59,95,4
1,50,78,4
1,43,85,0
1,62,85,92
1,55,85,0
1,59,98,0
1,50,71,8
1,43,80,0
1,62,88,88
1,59,98,0
1,55,91,0
1,50,88,8
1,43,91,0
1,55,104,92
1,64,114,0
1,60,109,0
1,43,98,8
1,52,88,0
1,62,85,64
1,59,88,0
1,55,76,0
1,50,82,4
1,43,74,0
1,64,114,92
1,60,109,0
1,55,109,0
1,52,104,0
1,43,95,0
1,55,85,40
1,62,85,0
1,59,95,0
1,43,66,0
1,50,91,4
1,62,78,76
1,55,76,0
1,50,73,4
1,59,91,4
1,43,74,0
1,62,88,92
1,55,95,4
1,59,104,0
1,50,80,0
1,43,88,0
1,62,76,92
1,55,91,0
1,59,95,0
1,43,68,0
1,50,71,0
1,59,82,100
1,62,82,0
1,55,82,0
1,50,74,0
1,43,80,4
1,62,73,84
1,59,78,0
1,55,80,0
1,50,63,8
1,43,74,0
1,55,78,88
1,62,85,0
1,59,85,0
1,50,67,0
1,43,80,8
1,62,73,80
1,55,80,0
1,59,88,0
1,52,109,0
1,43,98,4
1,62,71,76
1,55,82,0
1,59,91,0
1,43,68,0
1,50,91,8
1,55,80,88
1,62,78,0
1,59,82,0
1,43,91,0
1,50,80,8
1,55,82,76
1,62,80,0
1,59,91,0
1,43,80,8
1,50,91,0
1,62,82,76
1,55,85,0
1,59,95,0
1,43,91,0
1,50,80,0
1,43,82,52
1,50,74,0
1,55,98,8
1,62,98,0
1,59,104,0
1,62,88,64
1,55,95,0
1,59,95,0
1,43,80,0
1,50,71,0
1,55,88,88
1,59,88,0
1,62,91,0
1,43,76,4
1,50,91,4
1,55,80,84
1,62,95,0
1,59,98,0
1,50,73,0
1,43,82,0
1,52,104,92
1,59,109,0
1,40,95,0
1,55,95,4
1,64,124,72
1,59,124,0
1,55,124,0
1,40,91,0
1,52,88,0
1,64,114,76
1,55,109,0
1,59,120,0
1,52,91,0
1,40,98,0
1,64,109,84
1,55,98,0
1,59,109,0
1,52,88,4
1,40,88,0
1,62,95,76
1,55,80,0
1,59,88,8
1,43,88,0
1,50,85,0
1,62,85,88
1,55,80,0
1,50,76,0
1,43,88,0
1,59,88,4
1,62,91,84
1,59,109,0
1,55,88,0
1,43,85,0
1,50,78,0
1,50,78,96
1,62,80,4
1,59,114,0
1,55,85,0
1,43,82,0
1,67,114,76
1,60,98,0
1,64,104,0
1,36,109,4
1,67,91,76
1,60,88,0
1,64,82,0
1,48,104,0
1,36,104,100
1,60,98,4
1,67,109,0
1,64,91,0
1,60,91,8
1,67,91,0
1,64,91,0
1,48,98,0
1,59,109,88
1,67,114,0
1,62,109,0
1,35,109,8
1,67,91,84
1,59,104,0
1,62,98,0
1,47,82,4
1,67,95,84
1,62,98,0
1,59,109,0
1,35,98,8
1,62,91,16
1,67,91,0
1,59,95,0
1,47,91,0
1,67,98,12
1,60,95,0
1,57,104,0
1,64,98,0
1,33,109,0
1,67,88,84
1,57,85,0
1,60,82,0
1,64,85,0
1,45,88,0
1,33,104,96
1,57,98,4
1,67,95,0
1,60,91,0
1,64,82,0
1,64,78,28
1,57,88,0
1,67,88,0
1,60,88,0
1,45,85,0
1,67,95,20
1,59,98,0
1,62,104,0
1,31,104,0
1,67,91,92
1,62,98,0
1,59,95,0
1,43,88,0
1,31,95,84
1,67,91,4
1,59,104,0
1,62,104,0
1,67,85,4
1,59,95,0
1,62,88,0
1,43,88,0
1,57,104,76
1,66,104,0
1,62,104,0
1,38,104,0
1,66,88,80
1,62,85,0
1,57,85,0
1,50,98,0
1,66,91,96
1,62,85,0
1,57,91,0
1,38,98,0
1,67,114,0
1,62,104,0
1,59,114,0
1,50,95,0
1,62,80,48
1,57,95,0
1,66,88,0
1,38,98,0
1,66,82,72
1,62,85,0
1,57,91,0
1,50,88,0
1,66,88,88
1,62,91,0
1,57,95,0
1,38,95,0
1,66,88,92
1,57,98,0
1,62,88,0
1,50,82,0
1,66,91,84
1,57,85,0
1,62,82,0
1,38,95,0
1,59,114,0
1,67,114,0
1,62,104,0
1,50,91,0
1,62,74,60
1,66,95,0
1,57,104,0
1,38,95,0
1,62,91,72
1,67,109,0
1,59,124,0
1,50,88,0
1,66,88,20
1,38,95,0
1,62,91,4
1,57,98,4
1,66,82,8
1,57,95,0
1,50,88,0
1,62,78,4
1,66,91,0
1,38,95,0
1,62,82,4
1,57,95,0
1,57,78,4
1,62,80,0
1,66,91,0
1,50,98,0
1,62,82,28
1,59,98,0
1,55,88,8
1,50,74,0
1,43,95,0
1,62,95,92
1,55,88,0
1,59,91,0
1,43,78,8
1,50,88,0
1,62,98,92
1,55,91,0
1,59,98,0
1,50,76,8
1,43,88,0
1,64,114,88
1,60,109,0
1,55,109,0
1,52,98,0
1,43,91,0
1,62,82,48
1,59,88,0
1,55,88,0
1,43,70,4
1,50,88,4
1,55,76,92
1,62,85,0
1,59,91,0
1,43,76,0
1,50,73,0
1,62,91,96
1,55,85,0
1,59,95,4
1,50,78,4
1,43,85,0
1,62,85,92
1,55,85,0
1,59,98,0
1,50,71,8
1,43,80,0
1,55,120,92
1,31,104,0
1,67,114,16
1,43,95,8
1,57,124,16
1,33,109,0
1,69,114,4
1,45,95,0
1,34,104,0
1,58,114,12
1,46,95,180
1,70,104,0
1,35,98,8
1,59,124,8
1,47,98,4
1,71,124,4
1,60,98,16
1,64,109,0
1,67,114,0
1,36,104,0
1,48,104,0
1,60,95,8
1,64,98,0
1,67,114,0
1,36,104,12
1,60,95,8
1,69,120,0
1,65,124,0
1,67,82,4
1,60,67,0
1,48,91,0
1,64,74,4
1,36,104,100
1,72,124,4
1,67,114,0
1,64,114,0
1,72,98,52
1,67,91,0
1,48,95,0
1,64,109,8
1,69,120,96
1,60,109,0
1,36,104,0
1,65,120,0
1,60,91,64
1,48,95,0
1,67,98,0
1,64,95,4
1,36,98,4
1,67,78,4
1,60,74,0
1,64,82,0
1,60,98,104
1,64,109,0
1,67,109,0
1,48,88,0
1,69,109,76
1,60,109,0
1,65,114,0
1,36,98,0
1,67,82,44
1,48,95,0
1,64,78,0
1,60,71,0
1,72,124,116
1,64,120,0
1,67,124,0
1,36,98,0
1,67,85,0
1,72,98,0
1,48,88,0
1,64,91,4
1,69,120,0
1,65,124,0
1,60,120,0
1,36,98,0
1,60,82,0
1,67,91,0
1,64,85,0
1,48,91,0
1,36,98,0
1,64,64,8
1,67,62,0
1,64,109,120
1,60,104,0
1,67,120,0
1,48,95,0
1,69,114,64
1,36,98,0
1,60,98,0
1,65,120,0
1,48,98,64
1,60,73,8
1,67,82,0
1,64,85,0
1,72,124,116
1,64,120,0
1,67,124,0
1,36,104,0
1,48,95,4
1,69,124,0
1,60,114,0
1,65,120,0
1,36,109,0
1,48,98,0
1,70,109,260
1,58,114,0
1,43,88,12
1,33,114,32
1,45,91,12
1,57,120,12
1,69,124,0
1,34,109,32
1,46,91,96
1,55,114,4
1,67,114,0
1,35,104,16
1,71,124,80
1,59,124,0
1,47,88,0
1,60,98,20
1,64,109,0
1,67,114,0
1,36,104,0
1,48,104,0
1,60,95,8
1,64,98,0
1,67,114,0
1,36,104,12
1,60,95,8
1,69,120,0
1,65,124,0
1,67,82,4
1,60,67,0
1,48,91,0
1,64,74,4
1,36,104,100
1,72,124,4
1,67,114,0
1,64,114,0
1,72,98,52
1,67,91,0
1,48,95,0
1,64,109,8
1,69,120,96
1,60,109,0
1,36,104,0
1,65,120,0
1,60,91,64
1,48,95,0
1,67,98,0
1,64,95,4
1,36,98,4
1,67,78,4
1,60,74,0
1,64,82,0
1,60,98,104
1,64,109,0
1,67,109,0
1,48,88,0
1,69,109,76
1,60,109,0
1,65,114,0
1,36,98,0
1,67,82,44
1,48,95,0
1,64,78,0
1,60,71,0
1,72,124,116
1,64,120,0
1,67,124,0
1,36,98,0
1,67,85,0
1,72,98,0
1,48,88,0
1,64,91,4
1,69,120,0
1,65,124,0
1,60,120,0
1,36,98,0
1,60,82,0
1,67,91,0
1,64,85,0
1,48,91,0
1,36,98,0
1,64,64,8
1,67,62,0
1,64,109,120
1,60,104,0
1,67,120,0
1,48,95,0
1,69,114,64
1,36,98,0
1,60,98,0
1,65,120,0
1,48,98,64
1,60,73,8
1,67,82,0
1,64,85,0
1,72,124,116
1,64,120,0
1,67,124,0
1,36,104,0
1,48,95,4
1,69,124,0
1,60,114,0
1,65,120,0
1,36,109,0
1,48,98,0
1,70,124,252
1,58,124,0
1,43,85,20
1,33,109,20
1,69,124,12
1,45,95,0
1,57,124,4
1,34,95,32
1,46,91,64
1,58,114,8
1,70,109,4
1,35,109,4
1,71,120,84
1,59,124,0
1,47,98,0
1,79,104,4
1,71,98,0
1,74,98,0
1,31,95,0
1,43,95,12
1,79,91,8
1,71,78,0
1,74,91,0
1,79,95,8
1,31,95,0
1,74,91,8
1,71,82,0
1,74,88,8
1,71,82,0
1,77,98,0
1,43,95,0
1,77,80,12
1,74,80,0
1,71,85,0
1,31,91,0
1,43,88,84
1,71,88,0
1,77,85,0
1,74,82,0
1,71,74,88
1,74,80,0
1,77,85,0
1,31,95,0
1,43,88,0
1,71,80,4
1,77,80,0
1,74,82,0
1,76,98,92
1,72,95,0
1,31,98,0
1,67,95,4
1,43,82,76
1,76,80,0
1,67,80,0
1,72,82,0
1,31,91,76
1,76,91,4
1,67,82,0
1,72,82,0
