track,note,velocity,time
1,59,95,15810
1,59,73,40
1,66,91,30
1,66,79,50
1,59,79,15
1,59,74,45
1,66,76,25
1,66,81,30
1,59,81,10
1,59,73,45
1,66,91,30
1,66,79,50
1,59,79,15
1,59,74,45
1,66,76,25
1,66,81,30
1,59,81,10
1,59,76,50
1,66,90,15
1,66,87,50
1,59,61,25
1,59,79,40
1,66,83,35
1,66,85,40
1,59,87,10
1,59,74,40
1,66,87,20
1,66,86,40
1,59,85,5
1,59,69,55
1,66,98,20
1,66,87,30
1,59,77,20
1,59,81,50
1,66,93,10
1,66,90,35
1,59,81,15
1,59,74,45
1,66,93,30
1,66,87,50
1,59,72,40
1,59,74,45
1,66,88,15
1,66,74,30
1,59,79,15
1,59,75,40
1,66,96,30
1,66,93,40
1,59,81,30
1,59,81,40
1,66,87,35
1,66,73,40
1,59,77,20
1,59,75,40
1,66,97,35
1,66,93,45
1,59,83,30
1,59,72,45
1,66,100,20
1,66,95,35
1,59,70,25
1,59,74,40
1,66,100,15
1,66,77,55
1,59,85,25
1,59,81,45
1,66,90,20
1,66,76,40
1,59,81,20
1,59,74,45
1,66,95,20
1,66,86,25
1,59,86,20
1,59,76,40
1,66,79,35
1,66,95,35
1,59,75,20
1,59,71,30
1,66,81,120
1,66,95,25
1,58,95,15
1,58,70,35
1,66,98,20
1,66,95,45
1,58,85,25
1,58,74,35
1,66,100,20
1,66,85,30
1,58,91,5
1,58,76,35
1,66,96,10
1,66,83,45
1,58,85,15
1,58,74,30
1,66,100,10
1,66,93,20
1,58,83,25
1,58,79,30
1,66,100,20
1,66,79,45
1,58,75,20
1,58,85,35
1,66,90,20
1,66,85,35
1,58,79,20
1,58,75,45
1,66,95,20
1,66,77,45
1,58,58,15
1,58,83,40
1,66,90,20
1,66,79,25
1,58,81,10
1,58,77,40
1,66,95,0
1,66,83,20
1,58,77,20
1,58,74,30
1,66,97,15
1,66,71,40
1,58,87,20
1,58,73,40
1,66,87,0
1,66,87,25
1,58,90,0
1,58,74,35
1,66,94,125
1,66,86,30
1,58,90,10
1,58,67,35
1,66,100,15
1,66,76,45
1,58,67,15
1,58,73,25
1,66,100,15
1,66,93,25
1,59,85,30
1,59,74,25
1,66,100,15
1,66,78,10
1,59,85,15
1,59,86,40
1,66,97,5
1,66,75,45
1,59,86,15
1,59,77,25
1,66,98,20
1,66,81,40
1,59,81,25
1,59,74,25
1,59,81,57040
1,66,93,10
1,66,90,35
1,59,81,15
1,59,74,45
1,66,93,30
1,66,87,50
1,59,72,40
1,59,74,45
1,66,88,15
1,66,74,30
1,59,79,15
1,59,75,40
1,66,96,30
1,66,93,40
1,59,81,30
1,59,81,40
1,66,87,35
1,66,73,40
1,59,77,20
1,59,75,40
1,66,97,35
1,66,93,45
1,59,83,30
1,59,72,45
1,66,100,20
1,66,95,35
1,59,70,25
1,59,74,40
1,66,100,15
1,66,77,55
1,59,85,25
1,59,81,45
1,66,90,20
1,66,76,40
1,59,81,20
1,59,74,45
1,66,95,20
1,66,86,25
1,59,86,20
1,59,76,40
1,66,79,35
1,66,95,35
1,59,75,20
1,59,71,30
1,66,81,120
1,66,95,25
1,58,95,15
1,58,70,35
1,66,98,20
1,66,95,45
1,58,85,25
1,58,74,35
1,66,100,20
1,66,85,30
1,58,91,5
1,58,76,35
1,66,96,10
1,66,83,45
1,58,85,15
1,58,74,30
1,66,100,10
1,66,93,20
1,58,83,25
1,58,79,30
1,66,100,20
1,66,79,45
1,58,75,20
1,58,85,35
1,66,90,20
1,66,85,35
1,58,79,20
1,58,75,45
1,66,95,20
1,66,77,45
1,58,58,15
1,58,83,40
1,66,90,20
1,66,79,25
1,58,81,10
1,58,77,40
1,66,95,0
1,66,83,20
1,58,77,20
1,58,74,30
1,66,97,15
1,66,71,40
1,58,87,20
1,58,73,40
1,66,87,0
1,66,87,25
1,58,90,0
1,58,74,35
1,66,94,125
1,66,86,30
1,58,90,10
1,58,67,35
1,66,100,15
1,66,76,45
1,58,67,15
1,58,73,25
1,66,100,15
1,66,93,25
1,59,85,30
1,59,74,25
1,66,100,15
1,66,78,10
1,59,85,15
1,59,86,40
1,66,97,5
1,66,75,45
1,59,86,15
1,59,77,25
1,66,98,20
1,66,81,40
1,59,81,25
1,59,74,25
2,35,90,19390
2,35,92,80
2,35,115,60
2,47,102,25
2,47,102,50
2,35,87,40
2,35,87,50
2,35,104,70
2,47,107,30
2,47,104,105
2,35,81,70
2,35,92,55
2,35,96,65
2,47,104,60
2,47,107,100
2,35,86,45
2,35,91,65
2,35,92,70
2,47,104,40
2,47,107,105
2,35,92,75
2,35,91,70
2,35,103,75
2,47,104,40
2,47,103,100
2,35,84,50
2,35,93,70
2,35,102,65
2,47,104,30
2,47,110,100
2,30,86,50
2,30,76,60
2,30,110,70
2,42,96,40
2,42,100,110
2,30,91,20
2,30,92,45
2,30,100,65
2,42,106,75
2,42,110,85
2,30,104,50
2,30,98,50
2,30,93,60
2,42,84,60
2,42,93,105
2,30,82,30
2,30,89,45
2,30,110,70
2,42,98,35
2,42,110,90
2,30,127,35
2,30,80,65
2,30,112,65
2,42,85,20
2,42,102,105
2,30,92,35
2,30,94,60
2,30,103,60
2,42,82,35
2,42,98,100
2,30,117,45
2,30,104,65
2,30,117,70
2,42,100,30
2,42,112,100
2,35,110,60
2,35,115,65
2,35,112,65
2,47,100,35
2,47,103,85
2,35,100,40
2,35,103,60
2,35,88,60
2,47,104,15
2,47,103,105
2,37,92,60
2,37,100,70
2,37,107,45
2,49,96,15
2,49,85,105
2,37,117,15
2,37,102,65
2,37,103,60
2,49,98,240
2,49,94,60
2,30,107,45
2,30,107,65
2,30,100,60
2,42,103,25
2,42,104,95
2,30,125,40
2,30,102,60
2,30,91,60
2,42,104,235
2,42,103,85
2,37,60,40
2,37,91,65
2,37,100,65
2,49,91,15
2,49,89,100
2,37,115,35
2,37,96,45
2,37,87,60
2,49,104,30
2,49,103,90
2,30,127,20
2,30,104,65
2,30,94,60
2,42,98,50
2,42,117,100
2,30,117,35
2,30,112,65
2,30,103,60
2,42,104,35
2,42,110,90
2,30,110,75
2,37,79,220
2,37,85,115
2,49,79,240
2,37,83,200
2,37,89,155
2,49,80,20
2,49,82,145
2,37,86,235
2,37,87,140
2,37,80,140
2,49,77,10
2,37,86,0
2,37,88,160
2,49,84,5
2,49,81,150
2,37,90,240
2,35,91,235
2,35,96,150
2,47,103,245
2,35,91,0
2,35,98,165
2,47,87,20
2,47,91,140
2,35,100,0
2,35,92,155
2,35,90,165
2,47,84,240
2,35,89,210
2,35,93,175
2,47,82,5
2,47,102,145
2,35,92,0
2,37,82,40
2,37,81,130
2,49,76,5
2,37,84,240
2,37,85,165
2,49,80,35
2,49,88,160
2,37,82,235
2,37,85,145
2,37,89,155
2,49,77,5
2,37,84,5
2,37,82,155
2,49,82,0
2,49,93,160
2,37,92,240
2,35,90,235
2,35,89,140
2,47,89,240
2,35,85,210
2,35,91,165
2,47,91,240
2,47,89,150
2,35,91,0
2,35,91,165
2,35,91,165
2,47,82,240
2,35,91,210
2,35,85,170
2,47,78,65
2,47,91,175
2,35,91,40
2,32,90,40
2,32,98,135
2,44,84,240
2,32,96,230
2,32,98,140
2,32,91,125
2,44,92,5
2,44,84,65
2,28,87,40
2,28,89,115
2,40,92,240
2,28,89,225
2,28,90,150
2,28,96,130
2,40,91,240
2,40,98,65
2,32,89,15
2,32,80,130
2,44,91,40
2,32,91,240
2,28,89,55
2,28,100,50
2,40,88,15
2,30,104,240
2,30,96,60
2,42,85,15
2,32,104,235
2,32,91,145
2,44,90,240
2,32,92,225
2,32,93,160
2,32,103,160
2,44,87,10
2,44,91,80
2,28,85,25
2,28,89,135
2,40,94,240
2,28,84,210
2,28,89,165
2,28,90,165
2,40,98,70
2,37,91,20
2,37,90,70
2,37,112,70
2,49,84,30
2,49,90,65
2,37,89,10
2,37,84,50
2,37,93,60
2,49,96,30
2,49,89,60
2,30,91,30
2,30,77,55
2,30,93,65
2,42,90,235
2,42,86,65
2,30,93,5
2,30,79,60
2,30,103,70
2,42,87,0
2,42,100,80
2,37,86,5
2,37,96,60
2,37,91,60
2,49,87,240
2,49,84,95
2,37,107,20
2,37,107,65
2,37,98,45
2,49,90,235
2,49,86,70
2,30,112,40
2,30,78,65
2,30,127,60
2,30,127,220
2,35,98,110
2,35,88,80
2,35,107,50
2,47,104,250
2,47,102,60
2,35,87,5
2,35,92,85
2,35,104,55
2,47,100,0
2,47,103,90
2,35,77,40
2,35,91,80
2,35,107,60
2,47,94,5
2,47,104,110
2,35,98,0
2,35,93,85
2,35,100,70
2,47,90,20
2,47,98,90
2,35,82,10
2,35,93,75
2,35,98,50
2,47,94,30
2,47,98,85
2,35,83,25
2,35,96,90
2,35,98,65
2,47,85,225
2,47,93,100
2,30,84,5
2,30,84,60
2,30,85,40
2,42,89,225
2,42,85,85
2,30,94,230
2,30,84,80
2,30,87,60
2,42,91,225
2,42,91,70
2,30,61,15
2,30,88,80
2,30,85,60
2,42,85,215
2,42,84,105
2,30,84,220
2,30,84,75
2,30,96,85
2,42,86,0
2,42,88,90
2,30,107,225
2,30,80,80
2,30,91,55
2,42,84,10
2,42,89,80
2,30,100,215
2,30,88,90
2,30,87,75
2,42,88,15
2,42,91,90
2,30,86,5
2,30,80,110
2,42,92,305
2,42,89,70
2,35,87,60
2,35,87,90
2,35,104,70
2,47,104,30
2,47,104,85
2,35,81,5
2,35,93,85
2,35,91,100
2,47,107,220
2,47,103,95
2,35,91,25
2,35,81,100
2,35,115,70
2,47,102,5
2,47,104,120
2,35,93,10
2,35,100,85
2,35,102,75
2,47,110,215
2,47,104,130
2,35,117,55
2,35,120,80
2,35,107,60
2,47,102,5
2,47,102,50
2,35,87,40
2,35,87,50
2,35,104,70
2,47,107,30
2,47,104,105
2,35,81,70
2,35,92,55
2,35,96,65
2,47,104,60
2,47,107,100
2,35,86,45
2,35,91,65
2,35,92,70
2,47,104,40
2,47,107,105
2,35,92,75
2,35,91,70
2,35,103,75
2,47,104,40
2,47,103,100
2,35,84,50
2,35,93,70
2,35,102,65
2,47,104,30
2,47,110,100
2,30,86,50
2,30,76,60
2,30,110,70
2,42,96,40
2,42,100,110
2,30,91,20
2,30,92,45
2,30,100,65
2,42,106,75
2,42,110,85
2,30,104,50
2,30,98,50
2,30,93,60
2,42,84,60
2,42,93,105
2,30,82,30
2,30,89,45
2,30,110,70
2,42,98,35
2,42,110,90
2,30,127,35
2,30,80,65
2,30,112,65
2,42,85,20
2,42,102,105
2,30,92,35
2,30,94,60
2,30,103,60
2,42,82,35
2,42,98,100
2,30,117,45
2,30,104,65
2,30,117,70
2,42,100,30
2,42,112,100
2,35,110,60
2,35,115,65
2,35,112,65
2,47,100,35
2,47,103,85
2,35,100,40
2,35,103,60
2,35,88,60
2,47,104,15
2,47,103,105
2,37,92,60
2,37,100,70
2,37,107,45
2,49,96,15
2,49,85,105
2,37,117,15
2,37,102,65
2,37,103,60
2,49,98,240
2,49,94,60
2,30,107,45
2,30,107,65
2,30,100,60
2,42,103,25
2,42,104,95
2,30,125,40
2,30,102,60
2,30,91,60
2,42,104,235
2,42,103,85
2,37,60,40
2,37,91,65
2,37,100,65
2,49,91,15
2,49,89,100
2,37,115,35
2,37,96,45
2,37,87,60
2,49,104,30
2,49,103,90
2,30,127,20
2,30,104,65
2,30,94,60
2,42,98,50
2,42,117,100
2,30,117,35
2,30,112,65
2,30,103,60
2,42,104,35
2,42,110,90
2,30,110,75
2,37,79,220
2,37,85,115
2,49,79,240
2,37,83,200
2,37,89,155
2,49,80,20
2,49,82,145
2,37,86,235
2,37,87,140
2,37,80,140
2,49,77,10
2,37,86,0
2,37,88,160
2,49,84,5
2,49,81,150
2,37,90,240
2,35,91,235
2,35,96,150
2,47,103,245
2,35,91,0
2,35,98,165
2,47,87,20
2,47,91,140
2,35,100,0
2,35,92,155
2,35,90,165
2,47,84,240
2,35,89,210
2,35,93,175
2,47,82,5
2,47,102,145
2,35,92,0
2,37,82,40
2,37,81,130
2,49,76,5
2,37,84,240
2,37,85,165
2,49,80,35
2,49,88,160
2,37,82,235
2,37,85,145
2,37,89,155
2,49,77,5
2,37,84,5
2,37,82,155
2,49,82,0
2,49,93,160
2,37,92,240
2,35,90,235
2,35,89,140
2,47,89,240
2,35,85,210
2,35,91,165
2,47,91,240
2,47,89,150
2,35,91,0
2,35,91,165
2,35,91,165
2,47,82,240
2,35,91,210
2,35,85,170
2,47,78,65
2,47,91,175
2,35,91,40
2,32,90,40
2,32,98,135
2,44,84,240
2,32,96,230
2,32,98,140
2,32,91,125
2,44,92,5
2,44,84,65
2,28,87,40
2,28,89,115
2,40,92,240
2,28,89,225
2,28,90,150
2,28,96,130
2,40,91,240
2,40,98,65
2,32,89,15
2,32,80,130
2,44,91,40
2,32,91,240
2,28,89,55
2,28,100,50
2,40,88,15
2,30,104,240
2,30,96,60
2,42,85,15
2,32,104,235
2,32,91,145
2,44,90,240
2,32,92,225
2,32,93,160
2,32,103,160
2,44,87,10
2,44,91,80
2,28,85,25
2,28,89,135
2,40,94,240
2,28,84,210
2,28,89,165
2,28,90,165
2,40,98,70
2,37,91,20
2,37,90,70
2,37,112,70
2,49,84,30
2,49,90,65
2,37,89,10
2,37,84,50
2,37,93,60
2,49,96,30
2,49,89,60
2,30,91,30
2,30,77,55
2,30,93,65
2,42,90,235
2,42,86,65
2,30,93,5
2,30,79,60
2,30,103,70
2,42,87,0
2,42,100,80
2,37,86,5
2,37,96,60
2,37,91,60
2,49,87,240
2,49,84,95
2,37,107,20
2,37,107,65
2,37,98,45
2,49,90,235
2,49,86,70
2,30,112,40
2,30,78,65
2,30,127,60
2,30,127,220
2,35,98,110
2,35,88,80
2,35,107,50
2,47,104,250
2,47,102,60
2,35,87,5
2,35,92,85
2,35,104,55
2,47,100,0
2,47,103,90
2,35,77,40
2,35,91,80
2,35,107,60
2,47,94,5
2,47,104,110
2,35,98,0
2,35,93,85
2,35,100,70
2,47,90,20
2,47,98,90
2,35,82,10
2,35,93,75
2,35,98,50
2,47,94,30
2,47,98,85
2,35,83,25
2,35,96,90
2,35,98,65
2,47,85,225
2,47,93,100
2,30,84,5
2,30,84,60
2,30,85,40
2,42,89,225
2,42,85,85
2,30,94,230
2,30,84,80
2,30,87,60
2,42,91,225
2,42,91,70
2,30,61,15
2,30,88,80
2,30,85,60
2,42,85,215
2,42,84,105
2,30,84,220
2,30,84,75
2,30,96,85
2,42,86,0
2,42,88,90
2,30,107,225
2,30,80,80
2,30,91,55
2,42,84,10
2,42,89,80
2,30,100,215
2,30,88,90
2,30,87,75
2,42,88,15
2,42,91,90
2,30,86,5
2,30,80,110
2,42,92,305
2,42,89,70
2,35,87,60
2,35,87,90
2,35,104,70
2,47,104,30
2,47,104,85
2,35,81,5
2,35,93,85
2,35,91,100
2,47,107,220
2,47,103,95
2,35,91,25
2,35,81,100
2,35,115,70
2,47,102,5
2,47,104,120
2,35,93,10
2,35,100,85
2,35,102,75
2,47,110,215
2,47,104,130
2,35,107,300
2,47,104,250
2,47,102,60
2,35,87,5
2,35,92,85
2,35,104,55
2,47,100,0
2,47,103,90
2,35,77,40
2,35,91,80
2,35,107,60
2,47,94,5
2,47,104,110
2,35,98,0
2,35,93,85
2,35,100,70
2,47,90,20
2,47,98,90
2,35,82,10
2,35,93,75
2,35,98,50
2,47,94,30
2,47,98,85
2,35,83,25
2,35,96,90
2,35,98,65
2,47,85,225
2,47,93,100
2,30,84,5
2,30,84,60
2,30,85,40
2,42,89,225
2,42,85,85
2,30,94,230
2,30,84,80
2,30,87,60
2,42,91,225
2,42,91,70
2,30,61,15
2,30,88,80
2,30,85,60
2,42,85,215
2,42,84,105
2,30,84,220
2,30,84,75
2,30,96,85
2,42,86,0
2,42,88,90
2,30,107,225
2,30,80,80
2,30,91,55
2,42,84,10
2,42,89,80
2,30,100,215
2,30,88,90
