track,note,velocity,time
3,72,105,960
3,72,0,476
3,71,105,4
3,71,0,476
3,69,105,4
3,69,0,476
3,76,105,4
3,76,0,236
3,76,105,4
3,76,0,476
3,76,105,4
3,76,0,236
3,76,105,4
3,76,0,1436
3,78,105,244
3,78,0,236
3,76,105,4
3,76,0,476
3,74,105,4
3,74,0,476
3,79,105,4
3,79,0,236
3,79,105,4
3,79,0,476
3,79,105,4
3,79,0,236
3,79,105,4
3,79,0,956
3,79,105,4
3,79,0,236
3,79,105,4
3,79,0,236
3,81,105,4
3,81,0,236
3,83,105,4
3,83,0,476
3,76,105,4
3,76,0,716
3,76,105,4
3,76,0,236
3,76,105,4
3,76,0,236
3,78,105,4
3,78,0,236
3,79,105,4
3,79,0,476
3,72,105,4
3,72,0,716
3,81,105,4
3,81,0,236
3,81,105,4
3,81,0,236
3,83,105,4
3,83,0,236
3,84,105,4
3,84,0,476
3,78,105,4
3,78,0,1676
3,66,105,484
3,66,0,236
3,66,105,4
3,66,0,236
3,66,105,4
3,66,0,236
3,66,105,4
3,66,0,236
3,67,105,4
3,67,0,236
3,69,105,4
3,69,0,476
3,67,105,4
3,67,0,1196
3,66,105,244
3,66,0,236
3,67,105,4
3,67,0,236
3,69,105,4
3,69,0,476
3,67,105,4
3,67,0,476
3,66,105,4
3,66,0,716
3,67,105,4
3,67,0,476
3,64,105,4
3,64,0,480
3,72,105,240
3,72,0,236
3,72,105,4
3,72,0,476
3,71,105,4
3,71,0,236
3,71,105,4
3,71,0,476
3,69,105,4
3,69,0,476
3,67,105,4
3,67,0,480
3,69,105,0
3,69,0,476
3,67,105,244
3,67,0,956
3,66,105,244
3,66,0,236
3,67,105,4
3,67,0,236
3,69,105,4
3,69,0,476
3,67,105,4
3,67,0,476
3,66,105,4
3,66,0,480
3,67,105,0
3,67,0,476
3,64,105,4
3,64,0,716
3,72,105,244
3,72,0,236
3,72,105,4
3,72,0,476
3,71,105,4
3,71,0,236
3,71,105,4
3,71,0,476
3,69,105,4
3,69,0,476
3,71,105,4
3,71,0,476
3,72,105,4
3,72,0,236
3,72,105,244
3,72,0,236
3,76,105,4
3,72,58,0
3,67,58,0
3,76,0,236
3,76,105,4
3,76,0,236
3,76,105,4
3,76,0,236
3,67,0,0
3,72,0,0
3,74,105,4
3,71,58,0
3,67,58,0
3,67,0,476
3,71,0,0
3,74,0,0
3,74,105,4
3,74,0,236
3,74,105,244
3,74,0,236
3,72,105,4
3,67,58,0
3,64,58,0
3,72,0,236
3,72,105,4
3,72,0,236
3,72,105,4
3,72,0,236
3,64,0,0
3,67,0,0
3,71,105,4
3,67,58,0
3,62,58,0
3,71,105,240
3,67,58,0
3,67,0,476
3,62,0,0
3,71,0,0
3,67,0,0
3,71,0,0
3,71,105,244
3,71,0,236
3,74,105,4
3,67,58,0
3,64,58,0
3,74,0,236
3,74,105,4
3,74,0,236
3,74,105,4
3,74,0,236
3,64,0,0
3,67,0,0
3,72,105,4
3,67,58,0
3,64,58,0
3,72,0,476
3,72,105,4
3,72,0,236
3,64,0,0
3,67,0,0
3,72,105,244
3,72,0,236
3,71,105,4
3,67,58,0
3,63,58,0
3,71,0,236
3,71,105,4
3,71,0,236
3,71,105,4
3,71,0,236
3,63,0,0
3,67,0,0
3,69,105,4
3,67,58,0
3,63,58,0
3,69,0,476
3,71,105,4
3,71,0,236
3,63,0,0
3,67,0,0
3,69,105,4
3,69,0,476
3,67,105,4
3,67,0,956
3,66,105,244
3,66,0,236
3,67,105,4
3,67,0,236
3,69,105,4
3,69,0,476
3,67,105,4
3,67,0,476
3,66,105,4
3,66,0,476
3,67,105,4
3,67,0,476
3,64,105,4
3,64,0,480
3,72,105,480
3,72,0,236
3,72,105,4
3,72,0,476
3,71,105,4
3,71,0,236
3,71,105,4
3,71,0,476
3,69,105,4
3,69,0,476
3,67,105,4
3,67,0,476
3,66,105,4
3,66,0,476
3,67,105,244
3,67,0,840
3,66,105,360
3,66,0,236
3,67,105,4
3,67,0,236
3,69,105,4
3,69,0,476
3,67,105,4
3,67,0,476
3,66,105,4
3,66,0,716
3,67,105,4
3,67,0,476
3,64,105,4
3,64,0,480
3,72,105,240
3,72,0,236
3,72,105,4
3,72,0,476
3,71,105,4
3,71,0,236
3,71,105,4
3,71,0,476
3,69,105,4
3,69,0,476
3,67,105,4
3,67,0,480
3,69,105,0
3,69,0,476
3,67,105,244
3,67,0,956
3,66,105,244
3,66,0,236
3,67,105,4
3,67,0,236
3,69,105,4
3,69,0,476
3,67,105,4
3,67,0,476
3,66,105,4
3,66,0,236
3,66,105,4
3,66,0,236
3,67,105,4
3,67,0,476
3,64,105,4
3,64,0,716
3,72,105,244
3,72,0,236
3,72,105,4
3,72,0,476
3,71,105,4
3,71,0,236
3,71,105,4
3,71,0,476
3,69,105,4
3,69,0,476
3,71,105,4
3,71,0,476
3,72,105,4
3,72,0,236
3,72,105,244
3,72,0,236
3,76,105,4
3,72,58,0
3,67,58,0
3,76,0,236
3,76,105,4
3,76,0,236
3,76,105,4
3,76,0,236
3,67,0,0
3,72,0,0
3,74,105,4
3,71,58,0
3,67,58,0
3,67,0,476
3,71,0,0
3,74,0,0
3,74,105,4
3,74,0,236
3,74,105,244
3,74,0,236
3,72,105,4
3,67,58,0
3,64,58,0
3,72,0,236
3,72,105,4
3,72,0,236
3,72,105,4
3,72,0,236
3,64,0,0
3,67,0,0
3,71,105,4
3,67,58,0
3,62,58,0
3,71,105,240
3,67,58,0
3,67,0,476
3,62,0,0
3,71,0,0
3,67,0,0
3,71,0,0
3,71,105,244
3,71,0,236
3,74,105,4
3,67,58,0
3,64,58,0
3,74,0,236
3,74,105,4
3,74,0,236
3,74,105,4
3,74,0,236
3,64,0,0
3,67,0,0
3,72,105,4
3,67,58,0
3,64,58,0
3,72,0,476
3,72,105,4
3,72,0,236
3,64,0,0
3,67,0,0
3,72,105,244
3,72,0,236
3,71,105,4
3,67,58,0
3,63,58,0
3,71,0,236
3,71,105,4
3,71,0,236
3,71,105,4
3,71,0,236
3,63,0,0
3,67,0,0
3,69,105,4
3,67,58,0
3,63,58,0
3,69,0,476
3,71,105,4
3,71,0,236
3,63,0,0
3,67,0,0
3,69,105,4
3,69,0,476
3,67,105,4
3,67,0,956
3,66,105,244
3,66,0,236
3,67,105,4
3,67,0,236
3,69,105,4
3,69,0,476
3,67,105,4
3,67,0,476
3,66,105,4
3,66,0,476
3,67,105,4
3,67,0,476
3,64,105,4
3,64,0,480
3,72,105,480
3,72,0,236
3,72,105,4
3,72,0,476
3,71,105,4
3,71,0,236
3,71,105,4
3,71,0,476
3,69,105,4
3,69,0,476
3,67,105,4
3,67,0,476
3,66,105,4
3,66,0,476
3,69,105,4
3,69,0,956
3,71,105,4
3,71,0,116
3,69,105,4
3,69,0,116
3,67,105,4
3,67,0,956
3,72,105,964
3,72,0,476
3,71,105,4
3,71,105,0
3,71,0,476
3,71,0,0
3,69,105,4
3,69,0,476
3,76,105,4
3,76,0,236
3,76,105,4
3,76,0,476
3,76,105,4
3,76,0,236
3,76,105,4
3,76,0,1436
3,78,105,244
3,78,0,236
3,76,105,4
3,76,0,476
3,74,105,4
3,74,0,476
3,79,105,4
3,79,0,236
3,79,105,4
3,79,0,476
3,79,105,4
3,79,0,236
3,79,105,4
3,79,0,956
3,79,105,4
3,79,0,236
3,79,105,4
3,79,0,236
3,81,105,4
3,81,0,236
3,83,105,4
3,83,0,476
3,76,105,4
3,76,0,716
3,76,105,4
3,76,0,236
3,76,105,4
3,76,0,236
3,78,105,4
3,78,0,236
3,79,105,4
3,79,0,476
3,72,105,4
3,72,0,716
3,81,105,4
3,81,0,236
3,81,105,4
3,81,0,236
3,83,105,4
3,83,0,236
3,84,105,4
3,84,0,476
3,78,105,4
3,78,0,1676
3,66,105,484
3,66,0,236
3,66,105,4
3,66,0,236
3,66,105,4
3,66,0,236
3,66,105,4
3,66,0,236
3,67,105,4
3,67,0,236
3,69,105,4
3,69,0,476
3,67,105,4
3,67,0,1196
3,66,105,244
3,66,0,236
3,67,105,4
3,67,0,236
3,69,105,4
3,69,0,476
3,67,105,4
3,67,0,476
3,66,105,4
3,66,0,476
3,67,105,4
3,67,0,476
3,64,105,4
3,64,0,480
3,72,105,480
3,72,0,236
3,72,105,4
3,72,0,476
3,71,105,4
3,71,0,236
3,71,105,4
3,71,0,476
3,69,105,4
3,69,0,476
3,67,105,4
3,67,0,476
3,69,105,4
3,69,0,476
3,67,105,244
3,67,0,956
3,66,105,244
3,66,0,236
3,67,105,4
3,67,0,236
3,69,105,4
3,69,0,476
3,67,105,4
3,67,0,476
3,66,105,4
3,66,0,476
3,67,105,4
3,67,0,476
3,64,105,4
3,64,0,716
3,72,105,244
3,72,0,236
3,72,105,4
3,72,0,476
3,71,105,4
3,71,0,236
3,71,105,4
3,71,0,476
3,69,105,4
3,69,0,476
3,71,105,4
3,71,0,476
3,72,105,4
3,72,0,236
3,72,105,244
3,72,0,236
3,76,105,4
3,72,58,0
3,67,58,0
3,76,0,236
3,76,105,4
3,76,0,236
3,76,105,4
3,76,0,236
3,67,0,0
3,72,0,0
3,74,105,4
3,71,58,0
3,67,58,0
3,67,0,476
3,71,0,0
3,74,0,0
3,74,105,4
3,74,0,236
3,74,105,244
3,74,0,236
3,72,105,4
3,67,58,0
3,64,58,0
3,72,0,236
3,72,105,4
3,72,0,236
3,72,105,4
3,72,0,236
3,64,0,0
3,67,0,0
3,71,105,4
3,67,58,0
3,62,58,0
3,71,105,240
3,71,0,476
3,71,0,0
3,67,0,0
3,62,0,0
3,71,105,244
3,71,0,236
3,74,105,4
3,67,58,0
3,64,58,0
3,74,0,236
3,74,105,4
3,74,0,236
3,74,105,4
3,74,0,236
3,64,0,0
3,67,0,0
3,72,105,4
3,67,58,0
3,64,58,0
3,72,0,476
3,72,105,4
3,72,0,236
3,64,0,0
3,67,0,0
3,72,105,244
3,72,0,236
3,71,105,4
3,67,58,0
3,63,58,0
3,71,0,236
3,71,105,4
3,71,0,236
3,71,105,4
3,71,0,236
3,63,0,0
3,67,0,0
3,69,105,4
3,67,58,0
3,63,58,0
3,67,0,236
3,67,58,4
3,69,0,236
3,71,105,4
3,71,0,236
3,67,0,0
3,63,0,0
3,69,105,4
3,69,0,476
3,67,105,4
3,67,0,956
3,66,105,244
3,66,0,236
3,67,105,4
3,67,0,236
3,69,105,4
3,69,0,476
3,67,105,4
3,67,0,476
3,66,105,4
3,66,0,476
3,67,105,4
3,67,0,476
3,64,105,4
3,64,0,716
3,72,105,244
3,72,0,236
3,72,105,4
3,72,0,480
3,71,105,0
3,71,0,480
3,71,105,0
3,71,0,240
3,69,105,0
3,69,0,476
3,67,105,4
3,67,0,476
3,66,105,4
3,66,0,476
3,69,105,4
3,69,0,956
3,71,105,4
3,71,0,116
3,69,105,4
3,69,0,116
3,67,105,4
3,67,0,956
3,68,105,1924
3,68,0,956
3,67,105,244
3,67,0,236
3,68,105,4
3,68,0,236
3,70,105,4
3,70,0,476
3,68,105,4
3,68,0,476
3,67,105,4
3,67,0,476
3,68,105,4
3,68,0,476
3,65,105,4
3,65,0,716
3,73,105,244
3,73,0,236
3,73,105,4
3,73,0,476
3,72,105,4
3,72,0,236
3,72,105,4
3,72,0,476
3,70,105,4
3,70,0,476
3,68,105,4
3,68,0,476
3,70,105,4
3,70,0,476
3,68,105,244
3,68,0,956
3,67,105,244
3,67,0,236
3,68,105,4
3,68,0,236
3,70,105,4
3,70,0,476
3,68,105,4
3,68,0,476
3,67,105,4
3,67,0,476
3,68,105,4
3,68,0,476
3,65,105,4
3,65,0,716
3,73,105,244
3,73,0,236
3,73,105,4
3,73,0,476
3,72,105,4
3,72,0,236
3,72,105,4
3,72,0,476
3,70,105,4
3,70,0,476
3,72,105,4
3,72,0,476
3,73,105,4
3,73,0,236
3,73,105,244
3,73,0,236
3,77,105,4
3,73,58,0
3,68,58,0
3,77,0,236
3,77,105,4
3,77,0,236
3,77,105,4
3,77,0,236
3,68,0,0
3,73,0,0
3,75,105,4
3,72,58,0
3,68,58,0
3,75,105,240
3,75,0,236
3,75,105,4
3,75,0,236
3,75,0,0
3,68,0,0
3,72,0,0
3,75,105,244
3,75,0,236
3,73,105,4
3,68,58,0
3,65,58,0
3,73,0,236
3,73,105,4
3,73,0,236
3,73,105,4
3,73,0,236
3,65,0,0
3,68,0,0
3,72,105,4
3,68,58,0
3,63,58,0
3,63,0,716
3,68,0,0
3,72,0,0
3,72,105,244
3,72,0,236
3,75,105,4
3,68,58,0
3,65,58,0
3,75,0,236
3,75,105,4
3,75,0,236
3,75,105,4
3,75,0,236
3,65,0,0
3,68,0,0
3,73,105,4
3,68,58,0
3,65,58,0
3,73,0,476
3,73,105,4
3,73,0,236
3,65,0,0
3,68,0,0
3,73,105,244
3,73,0,236
3,72,105,4
3,68,58,0
3,64,58,0
3,72,0,236
3,72,105,4
3,72,0,236
3,72,105,4
3,72,0,236
3,64,0,0
3,68,0,0
3,70,105,4
3,68,58,0
3,64,58,0
3,68,58,240
3,68,0,4
3,70,0,232
3,72,105,4
3,72,0,240
3,64,0,0
3,68,0,0
3,70,105,0
3,70,0,480
3,68,105,0
3,68,0,956
3,67,105,244
3,67,0,236
3,68,105,4
3,68,0,236
3,70,105,4
3,70,0,476
3,68,105,4
3,68,0,476
3,67,105,4
3,67,0,476
3,68,105,4
3,68,0,476
3,65,105,4
3,65,0,716
3,73,105,244
3,73,0,236
3,73,105,4
3,73,0,476
3,72,105,4
3,72,0,236
3,72,105,4
3,72,0,476
3,70,105,4
3,70,0,476
3,68,105,4
3,68,0,720
3,67,105,0
3,67,0,480
3,70,105,0
3,70,0,720
3,72,105,0
3,72,0,116
3,70,105,4
3,70,0,116
3,68,105,4
3,68,0,956
3,69,105,1924
3,69,0,956
3,68,105,244
3,68,0,236
3,69,105,4
3,69,0,236
3,71,105,4
3,71,0,476
3,69,105,4
3,69,0,476
3,68,105,4
3,68,0,476
3,69,105,4
3,69,0,476
3,66,105,4
3,66,0,716
3,74,105,244
3,74,0,236
3,74,105,4
3,74,0,236
3,73,105,4
3,73,0,136
3,73,105,4
3,73,0,476
3,71,105,4
3,71,0,56
3,69,105,4
3,69,0,476
3,71,105,4
3,71,0,720
3,69,105,0
3,69,0,956
3,68,105,244
3,68,0,236
3,69,105,4
3,69,0,236
3,71,105,4
3,71,0,720
3,69,105,0
3,69,0,480
3,68,105,0
3,68,0,240
3,69,105,0
3,69,0,720
3,66,105,0
3,66,0,720
3,74,105,0
3,74,0,236
3,74,105,4
3,74,0,476
3,73,105,4
3,73,0,236
3,73,105,4
3,73,0,476
3,71,105,4
3,71,0,476
3,69,105,4
3,69,0,476
3,71,105,4
3,71,0,476
3,69,105,244
3,69,0,536
3,68,105,244
3,68,0,236
3,69,105,4
3,69,0,56
3,71,105,4
3,71,0,476
3,69,105,4
3,69,0,476
3,68,105,4
3,68,0,476
3,69,105,4
3,69,0,476
3,66,105,4
3,66,0,716
3,74,105,80
3,74,0,136
3,74,105,4
3,74,0,36
3,73,105,4
3,73,0,376
3,73,105,4
3,73,0,316
3,71,105,4
3,71,0,156
3,69,105,4
3,69,0,216
3,71,105,4
3,71,0,440
3,69,105,0
3,69,0,456
3,68,105,160
3,68,0,236
3,69,105,4
3,69,0,116
3,71,105,4
3,71,0,380
3,69,105,0
3,69,0,40
3,68,105,0
3,68,0,180
3,69,105,0
3,69,0,156
3,66,105,4
3,66,0,516
3,74,105,4
3,74,0,236
3,74,105,4
3,74,0,416
3,73,105,4
3,73,0,56
3,73,105,4
3,73,0,476
3,71,105,4
3,71,0,436
3,69,105,4
3,69,0,316
3,71,105,0
3,71,0,216
4,52,85,1920
4,45,85,0
4,45,0,3836
4,52,0,0
4,50,85,4
4,43,85,0
4,43,0,3836
4,50,0,0
4,55,85,4
4,48,85,0
4,48,0,1916
4,55,0,0
4,52,85,4
4,45,85,0
4,45,0,1916
4,52,0,0
