track,note,velocity,time
1,46,100,1680
1,44,100,128
1,36,100,0
1,44,100,128
1,36,100,100
1,44,100,8
1,40,100,0
1,44,100,128
1,36,100,100
1,40,100,0
1,40,100,40
1,44,100,8
1,40,100,0
1,36,100,100
1,40,100,0
1,44,100,8
1,36,100,100
1,44,100,8
1,40,100,0
1,44,100,128
1,40,100,100
1,40,100,40
1,44,100,40
1,36,100,0
1,44,100,128
1,36,100,100
1,44,100,8
1,40,100,0
1,44,100,128
1,36,100,100
1,40,100,0
1,40,100,40
1,44,100,8
1,40,100,0
1,36,100,100
1,40,100,0
1,44,100,8
1,36,100,100
1,44,100,8
1,40,100,0
1,44,100,128
1,40,100,100
1,40,100,40
1,44,100,40
1,36,100,0
1,44,100,128
1,36,100,100
1,44,100,8
1,40,100,0
1,44,100,128
1,36,100,100
1,40,100,0
1,40,100,40
1,44,100,8
1,40,100,0
1,36,100,100
1,40,100,0
1,44,100,8
1,36,100,100
1,44,100,8
1,40,100,0
1,44,100,128
1,40,100,100
1,40,100,40
1,44,100,40
1,36,100,0
1,44,100,128
1,36,100,100
1,44,100,8
1,40,100,0
1,44,100,128
1,36,100,100
1,40,100,0
1,40,100,40
1,44,100,8
1,40,100,0
1,36,100,100
1,40,100,0
1,44,100,8
1,36,100,100
1,44,100,8
1,40,100,0
1,44,100,128
1,40,100,100
1,40,100,40
1,44,100,40
1,36,100,0
1,49,100,0
1,44,100,128
1,44,100,420
1,44,100,424
1,46,100,192
1,44,100,180
1,36,100,0
1,49,100,0
1,44,100,128
1,36,100,84
1,44,100,8
1,40,100,0
1,44,100,128
1,36,100,100
1,40,100,0
1,40,100,40
1,44,100,8
1,40,100,0
1,36,100,100
1,40,100,0
1,44,100,8
1,36,100,100
1,44,100,8
1,40,100,0
1,44,100,128
1,40,100,100
1,40,100,40
1,44,100,40
1,36,100,0
1,44,100,128
1,36,100,100
1,44,100,8
1,40,100,0
1,44,100,128
1,36,100,100
1,40,100,0
1,40,100,40
1,44,100,8
1,40,100,0
1,36,100,100
1,40,100,0
1,44,100,8
1,36,100,100
1,44,100,8
1,40,100,0
1,44,100,128
1,40,100,100
1,40,100,40
1,44,100,40
1,36,100,0
1,44,100,128
1,36,100,100
1,44,100,8
1,40,100,0
1,44,100,128
1,36,100,100
1,40,100,0
1,40,100,40
1,44,100,8
1,40,100,0
1,36,100,100
1,40,100,0
1,44,100,8
1,36,100,100
1,44,100,8
1,40,100,0
1,44,100,128
1,40,100,100
1,40,100,40
1,44,100,40
1,36,100,0
1,44,100,128
1,36,100,100
1,44,100,8
1,40,100,0
1,44,100,128
1,36,100,100
1,40,100,0
1,40,100,40
1,44,100,8
1,40,100,0
1,36,100,100
1,40,100,0
1,44,100,8
1,36,100,100
1,44,100,8
1,40,100,0
1,44,100,128
1,40,100,100
1,40,100,40
1,44,100,40
1,36,100,0
1,44,100,128
1,36,100,100
1,44,100,8
1,40,100,0
1,44,100,128
1,36,100,100
1,40,100,0
1,40,100,40
1,44,100,8
1,40,100,0
1,36,100,100
1,40,100,0
1,44,100,8
1,36,100,100
1,44,100,8
1,40,100,0
1,44,100,128
1,40,100,100
1,40,100,40
1,44,100,40
1,36,100,0
1,44,100,128
1,36,100,100
1,44,100,8
1,40,100,0
1,44,100,128
1,36,100,100
1,40,100,0
1,40,100,40
1,44,100,8
1,40,100,0
1,36,100,100
1,40,100,0
1,44,100,8
1,36,100,100
1,44,100,8
1,40,100,0
1,44,100,128
1,40,100,100
1,40,100,40
1,44,100,40
1,36,100,0
1,44,100,128
1,36,100,100
1,44,100,8
1,40,100,0
1,44,100,128
1,36,100,100
1,40,100,0
1,40,100,40
1,44,100,8
1,40,100,0
1,36,100,100
1,40,100,0
1,44,100,8
1,36,100,100
1,44,100,8
1,40,100,0
1,44,100,128
1,40,100,100
1,40,100,40
1,44,100,40
1,36,100,0
1,44,100,128
1,36,100,100
1,44,100,8
1,40,100,0
1,44,100,128
1,36,100,100
1,40,100,0
1,40,100,40
1,44,100,8
1,40,100,0
1,36,100,100
1,40,100,0
1,44,100,8
1,36,100,100
1,44,100,8
1,40,100,0
1,46,100,124
1,43,100,8
1,41,100,20
1,44,100,24
1,36,100,0
1,49,100,0
1,44,100,128
1,36,100,8
1,44,100,8
1,40,100,0
1,44,100,128
1,36,100,100
1,40,100,0
1,40,100,40
1,44,100,8
1,40,100,0
1,36,100,100
1,40,100,0
1,44,100,8
1,36,100,100
1,44,100,8
1,40,100,0
1,44,100,128
1,40,100,100
1,40,100,40
1,44,100,40
1,36,100,0
1,44,100,128
1,36,100,100
1,44,100,8
1,40,100,0
1,44,100,128
1,36,100,100
1,40,100,0
1,40,100,40
1,44,100,8
1,40,100,0
1,36,100,100
1,40,100,0
1,44,100,8
1,36,100,100
1,44,100,8
1,40,100,0
1,44,100,128
1,40,100,100
1,40,100,40
1,44,100,40
1,36,100,0
1,44,100,128
1,36,100,100
1,44,100,8
1,40,100,0
1,44,100,128
1,36,100,100
1,40,100,0
1,40,100,40
1,44,100,8
1,40,100,0
1,36,100,100
1,40,100,0
1,44,100,8
1,36,100,100
1,44,100,8
1,40,100,0
1,46,100,124
1,40,100,28
1,40,100,40
1,44,100,40
1,36,100,0
1,44,100,128
1,36,100,100
1,44,100,8
1,40,100,0
1,44,100,128
1,36,100,100
1,40,100,0
1,40,100,40
1,44,100,8
1,40,100,0
1,36,100,100
1,40,100,0
1,44,100,8
1,36,100,100
1,46,100,4
1,40,100,4
1,48,100,8
1,45,100,20
1,41,100,28
1,44,100,24
1,36,100,0
1,49,100,0
1,44,100,128
1,36,100,80
1,44,100,8
1,40,100,0
1,44,100,128
1,36,100,100
1,40,100,0
1,40,100,40
1,44,100,8
1,40,100,0
1,36,100,100
1,40,100,0
1,44,100,8
1,36,100,100
1,44,100,8
1,40,100,0
1,44,100,128
1,40,100,100
1,40,100,40
1,44,100,40
1,36,100,0
1,44,100,128
1,36,100,100
1,44,100,8
1,40,100,0
1,44,100,128
1,36,100,100
1,40,100,0
1,40,100,40
1,44,100,8
1,40,100,0
1,36,100,100
1,40,100,0
1,44,100,8
1,36,100,100
1,44,100,8
1,40,100,0
1,46,100,128
1,40,100,120
1,40,100,40
1,44,100,40
1,36,100,0
1,44,100,128
1,36,100,100
1,44,100,8
1,40,100,0
1,44,100,128
1,36,100,100
1,40,100,0
1,40,100,40
1,44,100,8
1,40,100,0
1,36,100,100
1,40,100,0
1,44,100,8
1,36,100,100
1,44,100,8
1,40,100,0
1,44,100,128
1,40,100,100
1,40,100,40
1,44,100,40
1,36,100,0
1,44,100,128
1,36,100,100
1,44,100,8
1,40,100,0
1,44,100,128
1,36,100,100
1,40,100,0
1,40,100,40
1,44,100,8
1,40,100,0
1,36,100,100
1,40,100,0
1,44,100,8
1,36,100,100
1,44,100,8
1,40,100,0
1,44,100,128
1,40,100,100
1,40,100,40
1,44,100,40
1,36,100,0
1,49,100,0
1,44,100,128
1,44,100,248
1,44,100,260
1,43,100,4
1,41,100,24
1,44,100,20
1,36,100,0
1,49,100,0
1,44,100,128
1,36,100,84
1,44,100,8
1,40,100,0
1,44,100,128
1,36,100,100
1,40,100,0
1,40,100,40
1,44,100,8
1,40,100,0
1,36,100,100
1,40,100,0
1,44,100,8
1,36,100,100
1,44,100,8
1,40,100,0
1,44,100,128
1,40,100,100
1,40,100,40
1,44,100,40
1,36,100,0
1,44,100,128
1,36,100,100
1,44,100,8
1,40,100,0
1,44,100,128
1,36,100,100
1,40,100,0
1,40,100,40
1,44,100,8
1,40,100,0
1,36,100,100
1,40,100,0
1,44,100,8
1,36,100,100
1,44,100,8
1,40,100,0
1,44,100,128
1,40,100,100
1,40,100,40
1,44,100,40
1,36,100,0
1,44,100,128
1,36,100,100
1,44,100,8
1,40,100,0
1,44,100,128
1,36,100,100
1,40,100,0
1,40,100,40
1,44,100,8
1,40,100,0
1,36,100,100
1,40,100,0
1,44,100,8
1,36,100,100
1,44,100,8
1,40,100,0
1,44,100,128
1,40,100,100
1,40,100,40
1,44,100,40
1,36,100,0
1,44,100,128
1,36,100,100
1,44,100,8
1,40,100,0
1,44,100,128
1,36,100,100
1,40,100,0
1,40,100,40
1,44,100,8
1,40,100,0
1,36,100,100
1,40,100,0
1,44,100,8
1,36,100,100
1,44,100,8
1,40,100,0
1,44,100,128
1,40,100,100
1,40,100,40
1,44,100,40
1,36,100,0
1,49,100,0
1,44,100,128
1,36,100,8
1,44,100,8
1,40,100,0
1,44,100,128
1,36,100,100
1,40,100,0
1,40,100,40
1,44,100,8
1,40,100,0
1,36,100,100
1,40,100,0
1,44,100,8
1,36,100,100
1,44,100,8
1,40,100,0
1,44,100,128
1,40,100,100
1,40,100,40
1,44,100,40
1,36,100,0
1,44,100,128
1,36,100,100
1,44,100,8
1,40,100,0
1,44,100,128
1,36,100,100
1,40,100,0
1,40,100,40
1,44,100,8
1,40,100,0
1,36,100,100
1,40,100,0
1,44,100,8
1,36,100,100
1,44,100,8
1,40,100,0
1,44,100,128
1,40,100,100
1,40,100,40
1,44,100,40
1,36,100,0
1,44,100,128
1,36,100,100
1,44,100,8
1,40,100,0
1,44,100,128
1,36,100,100
1,40,100,0
1,40,100,40
1,44,100,8
1,40,100,0
1,36,100,100
1,40,100,0
1,44,100,8
1,36,100,100
1,44,100,8
1,40,100,0
1,46,100,124
1,40,100,28
1,40,100,40
1,44,100,40
1,36,100,0
1,44,100,128
1,36,100,100
1,44,100,8
1,40,100,0
1,44,100,128
1,36,100,100
1,40,100,0
1,40,100,40
1,44,100,8
1,40,100,0
1,36,100,100
1,40,100,0
1,44,100,8
1,36,100,100
1,46,100,4
1,40,100,4
1,48,100,8
1,45,100,20
1,41,100,28
1,44,100,24
1,36,100,0
1,49,100,0
1,44,100,128
1,36,100,80
1,44,100,8
1,40,100,0
1,44,100,128
1,36,100,100
1,40,100,0
1,40,100,40
1,44,100,8
1,40,100,0
1,36,100,100
1,40,100,0
1,44,100,8
1,36,100,100
1,44,100,8
1,40,100,0
1,44,100,128
1,40,100,100
1,40,100,40
1,44,100,40
1,36,100,0
1,44,100,128
1,36,100,100
1,44,100,8
1,40,100,0
1,44,100,128
1,36,100,100
1,40,100,0
1,40,100,40
1,44,100,8
1,40,100,0
1,36,100,100
1,40,100,0
1,44,100,8
1,36,100,100
1,44,100,8
1,40,100,0
1,46,100,128
1,40,100,120
1,40,100,40
1,44,100,40
1,36,100,0
1,44,100,128
1,36,100,100
1,44,100,8
1,40,100,0
1,44,100,128
1,36,100,100
1,40,100,0
1,40,100,40
1,44,100,8
1,40,100,0
1,36,100,100
1,40,100,0
1,44,100,8
1,36,100,100
1,44,100,8
1,40,100,0
1,44,100,128
1,40,100,100
1,40,100,40
1,44,100,40
1,36,100,0
1,44,100,128
1,36,100,100
1,44,100,8
1,40,100,0
1,44,100,128
1,36,100,100
1,40,100,0
1,40,100,40
1,44,100,8
1,40,100,0
1,36,100,100
1,40,100,0
1,44,100,8
1,36,100,100
1,44,100,8
1,40,100,0
1,44,100,128
1,40,100,100
1,44,100,100
1,36,100,0
1,49,100,0
1,44,100,128
1,44,100,248
1,44,100,260
1,44,100,256
1,44,100,436
1,38,100,452
1,43,100,0
1,38,100,128
1,47,100,4
1,43,100,4
1,41,100,8
1,40,100,0
1,44,100,4
1,36,100,0
1,49,100,0
1,44,100,128
1,36,100,8
1,44,100,8
1,40,100,0
1,44,100,128
1,36,100,100
1,40,100,0
1,40,100,40
1,44,100,8
1,40,100,0
1,36,100,100
1,40,100,0
1,44,100,8
1,36,100,100
1,44,100,8
1,40,100,0
1,44,100,128
1,40,100,100
1,40,100,40
1,44,100,40
1,36,100,0
1,44,100,128
1,36,100,100
1,44,100,8
1,40,100,0
1,44,100,128
1,36,100,100
1,40,100,0
1,40,100,40
1,44,100,8
1,40,100,0
1,36,100,100
1,40,100,0
1,44,100,8
1,36,100,100
1,44,100,8
1,40,100,0
1,44,100,128
1,40,100,100
1,40,100,40
1,44,100,40
1,36,100,0
1,44,100,128
1,36,100,100
1,44,100,8
1,40,100,0
1,44,100,128
1,36,100,100
1,40,100,0
1,40,100,40
1,44,100,8
1,40,100,0
1,36,100,100
1,40,100,0
1,44,100,8
1,36,100,100
1,44,100,8
1,40,100,0
1,46,100,124
1,40,100,28
1,40,100,40
1,44,100,40
1,36,100,0
1,44,100,128
1,36,100,100
1,44,100,8
1,40,100,0
1,44,100,128
1,36,100,100
1,40,100,0
1,40,100,40
1,44,100,8
1,40,100,0
1,36,100,100
1,40,100,0
1,44,100,8
1,36,100,100
1,46,100,4
1,40,100,4
1,48,100,8
1,45,100,20
1,41,100,28
1,44,100,24
1,36,100,0
1,49,100,0
1,44,100,128
1,36,100,80
1,44,100,8
1,40,100,0
1,44,100,128
1,36,100,100
1,40,100,0
1,40,100,40
1,44,100,8
1,40,100,0
1,36,100,100
1,40,100,0
1,44,100,8
1,36,100,100
1,44,100,8
1,40,100,0
1,46,100,124
1,40,100,8
1,44,100,100
1,36,100,0
1,44,100,128
1,36,100,100
1,44,100,8
1,40,100,0
1,44,100,128
1,36,100,100
1,40,100,0
1,40,100,40
1,44,100,8
1,40,100,0
1,36,100,100
1,40,100,0
1,44,100,8
1,36,100,100
1,44,100,8
1,40,100,0
1,46,100,128
1,40,100,120
1,40,100,40
1,44,100,40
1,36,100,0
1,44,100,128
1,36,100,100
1,44,100,8
1,40,100,0
1,44,100,128
1,36,100,100
1,40,100,0
1,40,100,40
1,44,100,8
1,40,100,0
1,36,100,100
1,40,100,0
1,44,100,8
1,36,100,100
1,44,100,8
1,40,100,0
1,44,100,128
1,40,100,100
1,40,100,40
1,44,100,40
1,36,100,0
1,44,100,128
1,36,100,100
1,44,100,8
1,40,100,0
1,44,100,128
1,36,100,100
1,40,100,0
1,40,100,40
1,44,100,8
1,40,100,0
1,36,100,100
1,40,100,0
1,44,100,8
1,36,100,100
1,44,100,8
1,40,100,0
1,44,100,128
1,40,100,100
1,40,100,40
1,44,100,40
1,36,100,0
1,44,100,128
1,36,100,100
1,44,100,8
1,40,100,0
1,44,100,128
1,36,100,100
1,40,100,0
1,40,100,40
1,44,100,8
1,40,100,0
1,36,100,100
1,40,100,0
1,44,100,8
1,36,100,100
1,44,100,8
1,40,100,0
1,44,100,128
1,40,100,100
1,40,100,40
1,49,114,44
1,51,66,1913
1,51,66,16
1,51,66,32
1,51,66,44
1,51,66,39
1,51,66,32
1,51,66,35
1,51,50,39
1,51,50,42
1,51,44,48
1,51,44,60
2,52,100,1920
2,56,100,0
2,59,100,0
2,64,100,0
2,40,100,240
2,64,100,156
2,59,100,0
2,52,100,0
2,56,100,0
2,40,100,156
2,47,100,156
2,59,100,0
2,63,100,0
2,66,100,0
2,54,100,0
2,35,100,156
2,66,100,156
2,63,100,0
2,47,100,0
2,59,100,0
2,54,100,0
2,35,100,156
2,49,100,156
2,56,100,0
2,52,100,0
2,61,100,0
2,37,100,156
2,49,100,156
2,52,100,0
2,56,100,0
2,61,100,0
2,37,100,156
2,59,100,156
2,63,100,0
2,56,100,0
2,44,100,0
2,44,100,156
2,59,100,156
2,63,100,0
2,44,100,0
2,56,100,0
2,44,100,156
2,61,100,156
2,69,100,0
2,57,100,0
2,64,100,0
2,45,100,156
2,64,100,156
2,69,100,0
2,61,100,0
2,57,100,0
2,45,100,156
2,64,100,156
2,52,100,0
2,56,100,0
2,59,100,0
2,40,100,156
2,64,100,156
2,56,100,0
2,52,100,0
2,59,100,0
2,40,100,156
2,61,100,156
2,54,100,0
2,58,100,0
2,66,100,0
2,42,100,156
2,58,100,156
2,54,100,0
2,61,100,0
2,66,100,0
2,42,100,156
2,47,100,156
2,59,100,0
2,63,100,0
2,66,100,0
2,54,100,0
2,35,100,156
2,35,100,0
2,66,100,156
2,63,100,0
2,47,100,0
2,59,100,0
2,54,100,0
2,35,100,156
2,35,100,0
2,64,100,156
2,61,100,0
2,57,100,0
2,52,100,0
