track,note,velocity,time
1,36,64,4096
1,36,104,434
1,36,104,480
1,36,104,72
1,36,104,620
1,36,104,532
1,36,104,68
1,36,104,686
1,36,104,558
1,36,104,80
1,36,104,700
1,36,104,564
1,36,104,74
1,36,104,702
1,36,104,480
1,36,104,72
1,36,104,620
1,36,104,532
1,36,104,68
1,36,104,686
1,36,104,558
1,36,104,80
1,36,104,700
1,36,104,564
1,36,104,74
1,36,104,702
1,36,104,480
1,36,104,72
1,36,104,620
1,36,104,532
1,36,104,68
1,36,104,686
1,36,104,558
1,36,104,80
1,36,104,700
1,36,104,564
1,36,104,74
1,36,104,702
1,36,104,480
1,36,104,72
1,36,104,620
1,36,104,532
1,36,104,68
1,36,104,686
1,36,104,558
1,36,104,80
1,36,104,700
1,36,104,564
1,36,104,74
1,36,104,702
1,36,104,480
1,36,104,72
1,36,104,620
1,36,104,532
1,36,104,68
1,36,104,686
1,36,104,558
1,36,104,80
1,36,104,700
1,36,104,564
1,36,104,74
1,36,104,702
1,36,104,480
1,36,104,72
1,36,104,620
1,36,104,532
1,36,104,68
1,36,104,686
1,36,104,558
1,36,104,80
1,36,104,700
1,36,104,564
1,36,104,74
1,36,104,702
1,36,104,480
1,36,104,72
1,36,104,620
1,36,104,532
1,36,104,68
1,36,104,686
1,36,104,558
1,36,104,80
1,36,104,700
1,36,104,564
1,36,104,74
1,36,104,702
1,36,104,480
1,36,104,72
1,36,104,620
1,36,104,532
1,36,104,68
1,36,104,686
1,36,104,558
1,36,104,80
1,36,104,700
1,36,104,564
1,36,104,74
1,36,104,702
1,36,104,480
1,36,104,72
1,36,104,620
1,36,104,532
1,36,104,68
1,36,104,686
1,36,104,558
1,36,104,80
1,36,104,700
1,36,104,1460
1,36,104,480
1,36,104,72
1,36,104,620
1,36,104,532
1,36,104,68
1,36,104,686
1,36,104,558
1,36,104,80
1,36,104,700
1,36,104,564
1,36,104,74
1,36,104,702
1,36,104,480
1,36,104,72
1,36,104,620
1,36,104,532
1,36,104,68
1,36,104,686
1,36,104,558
1,36,104,80
1,36,104,700
1,36,104,564
1,36,104,74
1,36,104,702
1,36,104,480
1,36,104,72
1,36,104,620
1,36,104,532
1,36,104,68
1,36,104,686
1,36,104,558
1,36,104,80
1,36,104,700
1,36,104,564
1,36,104,74
1,36,104,702
1,36,104,480
1,36,104,72
1,36,104,620
1,36,104,532
1,36,104,68
1,36,104,686
1,36,104,558
1,36,104,80
1,36,104,700
1,36,104,564
1,36,104,74
1,36,104,702
1,36,104,480
1,36,104,72
1,36,104,620
1,36,104,532
1,36,104,68
1,36,104,686
1,36,104,558
1,36,104,80
1,36,104,700
1,36,104,564
1,36,104,74
1,36,104,702
1,36,104,480
1,36,104,72
1,36,104,620
1,36,104,532
1,36,104,68
1,36,104,686
1,36,104,558
1,36,104,80
1,36,104,700
1,36,104,564
1,36,104,74
1,36,104,702
1,36,104,480
1,36,104,72
1,36,104,620
1,36,104,532
1,36,104,68
1,36,104,686
1,36,104,558
1,36,104,80
1,36,104,700
1,36,104,564
1,36,104,74
1,36,104,702
1,36,104,480
1,36,104,72
1,36,104,620
1,36,104,532
1,36,104,68
1,36,104,686
1,36,104,558
1,36,104,80
1,36,104,700
1,36,104,564
1,36,104,74
1,36,104,702
1,36,104,480
1,36,104,72
1,36,104,620
1,36,104,532
1,36,104,68
1,36,104,686
1,36,104,558
1,36,104,80
1,36,104,700
1,36,104,564
1,36,104,74
1,36,104,702
1,36,104,480
1,36,104,72
1,36,104,620
1,36,104,532
1,36,104,68
1,36,104,686
1,36,104,558
1,36,104,80
1,36,104,700
1,36,104,564
1,36,104,74
1,36,104,702
1,36,104,480
1,36,104,72
1,36,104,620
1,36,104,532
1,36,104,68
1,36,104,686
1,36,104,558
1,36,104,80
1,36,104,700
1,36,104,1460
1,36,104,480
1,36,104,72
1,36,104,620
1,36,104,532
1,36,104,68
1,36,104,686
1,36,104,558
1,36,104,80
1,36,104,700
1,36,104,564
1,36,104,74
1,36,104,702
1,36,104,480
1,36,104,72
1,36,104,620
1,36,104,532
1,36,104,68
1,36,104,686
1,36,104,558
1,36,104,80
1,36,104,700
1,36,104,692
2,38,110,2688
2,38,110,208
2,38,110,464
2,38,110,720
2,38,110,720
2,38,110,720
2,38,110,720
2,38,110,720
2,38,110,336
2,38,110,80
2,38,110,80
2,38,110,848
2,38,110,720
2,38,110,720
2,38,110,720
2,38,110,720
2,38,110,720
2,38,110,720
2,38,110,720
2,38,110,720
2,38,110,720
2,38,110,720
2,38,110,720
2,38,110,720
2,38,110,720
2,38,110,720
2,38,110,336
2,38,110,80
2,38,110,80
2,38,110,848
2,38,110,720
2,38,110,720
2,38,110,720
2,38,110,720
2,38,110,720
2,38,110,720
2,38,110,720
2,38,110,720
2,38,110,720
2,38,110,720
2,38,110,720
2,38,110,720
2,38,110,720
2,38,110,720
2,38,110,720
2,38,110,720
2,38,110,720
2,38,110,720
2,38,110,720
2,38,110,720
2,38,110,720
2,38,110,720
2,38,110,720
2,38,110,720
2,38,110,720
2,38,110,720
2,38,110,720
2,38,110,720
2,38,62,336
2,38,64,80
2,38,66,80
2,38,68,80
2,38,70,80
2,38,72,80
2,38,74,80
2,38,76,80
2,38,78,80
2,38,80,80
2,38,82,80
2,38,84,80
2,38,86,80
2,38,88,80
2,38,90,80
2,38,92,80
2,38,94,80
2,38,96,80
2,38,98,80
2,38,100,80
2,38,102,80
2,38,104,80
2,38,106,80
2,38,108,80
2,38,110,464
2,38,110,720
2,38,110,720
2,38,110,720
2,38,110,720
2,38,110,720
2,38,110,720
2,38,110,720
2,38,110,720
2,38,110,720
2,38,110,720
2,38,110,720
2,38,110,336
2,38,110,336
2,38,110,336
2,38,110,336
2,38,110,336
2,38,110,720
2,38,110,80
2,38,110,80
2,38,110,848
2,38,110,720
2,38,110,720
2,38,110,720
2,38,110,720
2,38,110,720
2,38,110,336
2,38,110,80
2,38,110,80
2,38,110,848
2,38,110,720
2,38,110,720
2,38,110,720
2,38,110,720
2,38,110,720
2,38,110,720
2,38,110,720
2,38,110,720
2,38,110,720
2,38,110,720
2,38,110,720
2,38,110,720
2,38,110,720
2,38,110,720
2,38,110,336
2,38,110,80
2,38,110,80
2,38,110,848
2,38,110,720
2,38,110,720
2,38,110,720
2,38,110,720
2,38,110,720
2,38,110,720
2,38,110,720
2,38,110,720
2,38,110,720
2,38,110,720
2,38,110,720
2,38,110,720
2,38,110,720
2,38,110,720
2,38,86,336
2,38,88,80
2,38,90,80
2,38,92,80
2,38,94,80
2,38,96,80
2,38,98,80
2,38,100,80
2,38,102,80
2,38,104,80
2,38,106,80
2,38,108,80
2,38,110,464
2,38,110,720
2,38,110,720
2,38,110,720
2,38,110,720
2,38,110,720
2,38,110,720
2,38,110,720
2,38,110,720
2,38,110,720
2,38,110,720
2,38,110,720
2,38,110,720
2,38,110,720
2,38,110,720
2,38,110,720
2,38,110,720
2,38,110,720
2,38,110,720
2,38,110,720
2,38,110,720
2,38,110,720
2,38,110,720
2,38,110,720
2,38,110,720
2,38,110,720
2,38,110,720
2,38,110,720
2,38,110,720
2,38,110,720
2,38,110,336
2,38,110,80
2,38,110,80
2,38,110,848
2,38,110,720
2,38,110,720
2,38,110,720
2,38,110,720
2,38,110,720
2,38,110,720
2,38,110,720
2,38,110,720
2,38,110,720
2,38,110,720
2,38,110,720
2,38,110,720
2,38,110,336
2,38,110,336
2,38,110,336
2,38,110,336
2,38,110,336
2,38,110,720
2,38,110,80
2,38,110,80
2,38,110,848
2,38,110,720
2,38,110,720
2,38,110,720
2,38,110,720
2,38,110,720
2,38,110,720
2,38,110,336
2,38,110,80
2,38,110,80
2,38,110,848
2,38,110,720
2,38,110,720
2,38,110,720
2,38,110,720
2,38,110,720
2,38,110,720
3,42,114,4608
3,42,114,214
3,42,114,92
3,42,114,228
3,42,114,100
3,42,114,216
3,42,114,92
3,42,114,216
3,42,114,92
3,42,114,216
3,42,114,88
3,42,114,218
3,42,114,84
3,42,114,214
3,42,114,92
3,42,114,216
3,42,114,96
3,42,114,222
3,42,114,92
3,42,114,226
3,42,114,86
3,42,114,222
3,42,114,92
3,42,114,220
3,42,114,84
3,42,114,222
3,42,114,88
3,42,114,208
3,42,114,80
3,42,114,210
3,42,114,86
3,42,114,210
3,42,114,86
3,42,114,214
3,42,114,92
3,42,114,228
3,42,114,100
3,42,114,216
3,42,114,92
3,42,114,216
3,42,114,92
3,42,114,216
3,42,114,88
3,42,114,218
3,42,114,84
3,42,114,214
3,42,114,92
3,42,114,216
3,42,114,96
3,42,114,222
3,42,114,92
3,42,114,226
3,42,114,86
3,42,114,222
3,42,114,92
3,42,114,220
3,42,114,84
3,42,114,222
3,42,114,88
3,42,114,208
3,42,114,80
3,42,114,210
3,42,114,86
3,42,114,210
3,42,114,86
3,42,114,214
3,42,114,92
3,42,114,228
3,42,114,100
3,42,114,216
3,42,114,92
3,42,114,216
3,42,114,92
3,42,114,216
3,42,114,88
3,42,114,218
3,42,114,84
3,42,114,214
3,42,114,92
3,42,114,216
3,42,114,96
3,42,114,222
3,42,114,92
3,42,114,226
3,42,114,86
3,42,114,222
3,42,114,92
3,42,114,220
3,42,114,84
3,42,114,222
3,42,114,88
3,42,114,208
3,42,114,80
3,42,114,210
3,42,114,86
3,42,114,210
3,42,114,86
3,42,114,214
3,42,114,92
3,42,114,228
3,42,114,100
3,42,114,216
3,42,114,92
3,42,114,216
3,42,114,92
3,42,114,216
3,42,114,88
3,42,114,218
3,42,114,84
3,42,114,214
3,42,114,92
3,42,114,216
3,42,114,96
3,42,114,222
3,42,114,92
3,42,114,226
3,42,114,86
3,42,114,222
3,42,114,92
3,42,114,220
3,42,114,84
3,42,114,222
3,42,114,88
3,42,114,208
3,42,114,80
3,42,114,210
3,42,114,86
3,42,114,210
3,42,114,86
3,42,114,214
3,42,114,92
3,42,114,228
3,42,114,100
3,42,114,216
3,42,114,92
3,42,114,216
3,42,114,92
3,42,114,216
3,42,114,88
3,42,114,218
3,42,114,84
3,42,114,214
3,42,114,92
3,42,114,216
3,42,114,96
3,42,114,222
3,42,114,92
3,42,114,226
3,42,114,86
3,42,114,222
3,42,114,92
3,42,114,220
3,42,114,84
3,42,114,222
3,42,114,88
3,42,114,208
3,42,114,80
3,42,114,210
3,42,114,86
3,42,114,210
3,42,114,86
3,42,114,214
3,42,114,92
3,42,114,228
3,42,114,100
3,42,114,216
3,42,114,92
3,42,114,216
3,42,114,92
3,42,114,216
3,42,114,88
3,42,114,218
3,42,114,84
3,42,114,214
3,42,114,92
3,42,114,216
3,42,114,96
3,42,114,222
3,42,114,92
3,42,114,226
3,42,114,86
3,42,114,222
3,42,114,92
3,42,114,220
3,42,114,84
3,42,114,222
3,42,114,88
3,42,114,208
3,42,114,80
3,42,114,210
3,42,114,86
3,42,114,210
3,42,114,86
3,42,114,214
3,42,114,92
3,42,114,228
3,42,114,100
3,42,114,216
3,42,114,92
3,42,114,216
3,42,114,92
3,42,114,216
3,42,114,88
3,42,114,218
3,42,114,84
3,42,114,214
3,42,114,92
3,42,114,216
3,42,114,96
3,42,114,222
3,42,114,92
3,42,114,226
3,42,114,86
3,42,114,222
3,42,114,92
3,42,114,220
3,42,114,84
3,42,114,222
3,42,114,88
3,42,114,208
3,42,114,80
3,42,114,210
3,42,114,86
3,42,114,210
3,42,114,86
3,42,114,214
3,42,114,92
3,42,114,228
3,42,114,100
3,42,114,216
3,42,114,92
3,42,114,216
3,42,114,92
3,42,114,216
3,42,114,88
3,42,114,218
3,42,114,84
3,42,114,214
3,42,114,92
3,42,114,216
3,42,114,96
3,42,114,222
3,42,114,92
3,42,114,226
3,42,114,86
3,42,114,222
3,42,114,92
3,42,114,220
3,42,114,84
3,42,114,222
3,42,114,88
3,42,114,208
3,42,114,80
3,42,114,210
3,42,114,86
3,42,114,210
3,42,114,86
3,42,114,214
3,42,114,92
3,42,114,228
3,42,114,100
3,42,114,216
3,42,114,92
3,42,114,216
3,42,114,92
3,42,114,216
3,42,114,88
3,42,114,218
3,42,114,84
3,42,114,214
3,42,114,92
3,42,114,216
3,42,114,96
3,42,114,222
3,42,114,92
3,42,114,226
3,42,114,86
3,42,114,222
3,42,114,92
3,42,114,220
3,42,114,84
3,42,114,1502
3,42,114,214
3,42,114,92
3,42,114,228
3,42,114,100
3,42,114,216
3,42,114,92
3,42,114,216
3,42,114,92
3,42,114,216
3,42,114,88
3,42,114,218
3,42,114,84
3,42,114,214
3,42,114,92
3,42,114,216
3,42,114,96
3,42,114,222
3,42,114,92
3,42,114,226
3,42,114,86
3,42,114,222
3,42,114,92
3,42,114,220
3,42,114,84
3,42,114,222
3,42,114,88
3,42,114,208
3,42,114,80
3,42,114,210
3,42,114,86
3,42,114,210
3,42,114,86
3,42,114,214
3,42,114,92
3,42,114,228
3,42,114,100
3,42,114,216
3,42,114,92
3,42,114,216
3,42,114,92
3,42,114,216
3,42,114,88
3,42,114,218
3,42,114,84
3,42,114,214
3,42,114,92
3,42,114,216
3,42,114,96
3,42,114,222
3,42,114,92
3,42,114,226
3,42,114,86
3,42,114,222
3,42,114,92
3,42,114,220
3,42,114,84
3,42,114,222
3,42,114,88
3,42,114,208
3,42,114,80
3,42,114,210
3,42,114,86
3,42,114,210
3,42,114,86
3,42,114,214
3,42,114,92
3,42,114,228
3,42,114,100
3,42,114,216
3,42,114,92
3,42,114,216
3,42,114,92
3,42,114,216
3,42,114,88
3,42,114,218
3,42,114,84
3,42,114,214
3,42,114,92
3,42,114,216
3,42,114,96
3,42,114,222
3,42,114,92
3,42,114,226
3,42,114,86
3,42,114,222
3,42,114,92
3,42,114,220
3,42,114,84
3,42,114,222
3,42,114,88
3,42,114,208
3,42,114,80
3,42,114,210
3,42,114,86
3,42,114,210
3,42,114,86
3,42,114,214
3,42,114,92
3,42,114,228
3,42,114,100
3,42,114,216
3,42,114,92
3,42,114,216
3,42,114,92
3,42,114,216
3,42,114,88
3,42,114,218
3,42,114,84
3,42,114,214
3,42,114,92
3,42,114,216
3,42,114,96
3,42,114,222
3,42,114,92
3,42,114,226
3,42,114,86
3,42,114,222
3,42,114,92
3,42,114,220
3,42,114,84
3,42,114,222
3,42,114,88
3,42,114,208
3,42,114,80
3,42,114,210
3,42,114,86
3,42,114,210
3,42,114,86
3,42,114,214
3,42,114,92
3,42,114,228
3,42,114,100
3,42,114,216
3,42,114,92
3,42,114,216
3,42,114,92
3,42,114,216
3,42,114,88
3,42,114,218
3,42,114,84
3,42,114,214
3,42,114,92
3,42,114,216
3,42,114,96
3,42,114,222
3,42,114,92
3,42,114,226
3,42,114,86
3,42,114,222
3,42,114,92
3,42,114,220
3,42,114,84
3,42,114,222
3,42,114,88
3,42,114,208
3,42,114,80
3,42,114,210
3,42,114,86
3,42,114,210
3,42,114,86
3,42,114,214
3,42,114,92
3,42,114,228
3,42,114,100
3,42,114,216
3,42,114,92
3,42,114,216
3,42,114,92
3,42,114,216
3,42,114,88
3,42,114,218
3,42,114,84
3,42,114,214
3,42,114,92
3,42,114,216
3,42,114,96
3,42,114,222
3,42,114,92
3,42,114,226
3,42,114,86
3,42,114,222
3,42,114,92
3,42,114,220
3,42,114,84
3,42,114,222
3,42,114,88
3,42,114,208
3,42,114,80
3,42,114,210
3,42,114,86
3,42,114,210
3,42,114,86
3,42,114,214
3,42,114,92
3,42,114,228
3,42,114,100
3,42,114,216
3,42,114,92
3,42,114,216
3,42,114,92
3,42,114,216
3,42,114,88
3,42,114,218
3,42,114,84
3,42,114,214
3,42,114,92
3,42,114,216
3,42,114,96
3,42,114,222
3,42,114,92
3,42,114,226
3,42,114,86
3,42,114,222
3,42,114,92
3,42,114,220
3,42,114,84
3,42,114,222
3,42,114,88
3,42,114,208
3,42,114,80
3,42,114,210
3,42,114,86
3,42,114,210
3,42,114,86
3,42,114,214
3,42,114,92
3,42,114,228
3,42,114,100
3,42,114,216
3,42,114,92
3,42,114,216
