track,note,velocity,time
1,47,100,3072
1,47,100,32
1,47,100,32
1,47,100,64
1,47,100,32
1,47,100,32
1,47,100,64
1,47,100,32
1,47,100,32
1,47,100,32
1,47,100,32
1,47,100,96
1,47,100,32
1,47,100,64
1,47,100,32
1,47,100,32
1,47,100,64
1,47,100,32
1,47,100,32
1,47,100,64
1,47,100,32
1,47,100,32
1,47,100,32
1,47,100,32
1,47,100,32
1,47,100,32
1,47,100,64
1,47,100,32
1,47,100,32
1,47,100,64
1,47,100,32
1,47,100,32
1,47,100,64
1,47,100,32
1,47,100,32
1,47,100,32
1,47,100,32
1,47,100,32
1,47,100,32
1,42,100,64
1,42,100,32
1,42,100,32
1,42,100,64
1,42,100,32
1,42,100,32
1,42,100,64
1,42,100,32
1,42,100,32
1,42,100,32
1,42,100,32
1,42,100,32
1,42,100,32
1,42,100,64
1,42,100,32
1,42,100,32
1,42,100,64
1,42,100,32
1,42,100,32
1,42,100,64
1,42,100,32
1,42,100,32
1,42,100,32
1,42,100,32
1,42,100,32
1,42,100,32
1,42,100,64
1,42,100,32
1,42,100,32
1,42,100,64
1,42,100,32
1,42,100,32
1,42,100,64
1,42,100,32
1,42,100,32
1,42,100,32
1,42,100,32
1,42,100,32
1,42,100,32
1,42,100,64
1,42,100,32
1,42,100,32
1,42,100,64
1,42,100,32
1,42,100,32
1,47,100,64
1,47,100,32
1,47,100,32
1,47,100,64
1,47,100,32
1,47,100,32
1,47,100,64
1,47,100,0
1,47,100,32
1,47,100,32
1,47,100,0
1,47,100,32
1,47,100,32
1,47,100,32
1,47,100,32
1,47,100,64
1,47,100,32
1,47,100,32
1,47,100,64
1,47,100,32
1,47,100,32
1,47,100,64
1,47,100,32
1,47,100,32
1,47,100,32
1,47,100,32
1,47,100,32
1,47,100,32
1,47,100,64
1,47,100,32
1,47,100,32
1,47,100,64
1,47,100,32
1,47,100,32
1,47,100,64
1,47,100,32
1,47,100,32
1,47,100,32
1,47,100,32
1,47,100,32
1,47,100,32
1,47,100,64
1,47,100,32
1,47,100,32
1,47,100,64
1,47,100,32
1,47,100,32
1,47,100,64
1,47,100,32
1,47,100,32
1,47,100,32
1,47,100,32
1,47,100,32
1,47,100,32
1,47,100,64
1,47,100,32
1,47,100,32
1,47,100,64
1,47,100,32
1,47,100,32
1,47,100,64
1,47,100,32
1,47,100,32
1,47,100,32
1,47,100,32
1,47,100,32
1,47,100,32
1,42,100,64
1,42,100,32
1,42,100,32
1,42,100,64
1,42,100,32
1,42,100,32
1,42,100,64
1,42,100,32
1,42,100,32
1,42,100,32
1,42,100,32
1,42,100,32
1,42,100,32
1,42,100,64
1,42,100,32
1,42,100,32
1,42,100,64
1,42,100,32
1,42,100,32
1,42,100,64
1,42,100,32
1,42,100,32
1,42,100,32
1,42,100,32
1,42,100,32
1,42,100,32
1,42,100,64
1,42,100,32
1,42,100,32
1,42,100,64
1,42,100,32
1,42,100,32
1,42,100,64
1,42,100,32
1,42,100,32
1,42,100,32
1,42,100,32
1,42,100,32
1,42,100,32
1,42,100,64
1,42,100,32
1,42,100,32
1,42,100,64
1,42,100,32
1,42,100,32
1,47,100,64
1,47,100,32
1,47,100,32
1,47,100,64
1,47,100,32
1,47,100,32
1,47,100,64
1,47,100,32
1,47,100,32
1,47,100,32
1,47,100,32
1,47,100,32
1,47,100,32
1,49,100,64
1,49,100,192
1,49,100,64
1,42,100,256
1,42,100,192
1,42,100,64
1,49,100,256
1,49,100,192
1,49,100,64
1,42,100,256
1,42,100,192
1,42,100,64
1,49,100,256
1,49,100,128
1,49,100,128
1,49,100,128
1,49,100,128
1,49,100,128
1,49,100,128
1,49,100,128
1,47,100,128
1,47,100,128
1,47,100,128
1,47,100,128
1,47,100,128
1,47,100,128
1,47,100,128
1,47,100,128
1,49,100,128
1,49,100,128
1,49,100,128
1,49,100,128
1,49,100,128
1,49,100,128
1,49,100,128
1,49,100,128
1,47,100,128
1,47,100,128
1,47,100,128
1,47,100,128
1,47,100,128
1,47,100,128
1,47,100,128
1,47,100,128
1,44,100,128
1,44,100,128
1,44,100,128
1,44,100,128
1,40,100,128
1,40,100,128
1,40,100,128
1,40,100,128
1,44,100,128
1,44,100,128
1,40,100,128
1,42,100,128
1,44,100,128
1,44,100,128
1,44,100,128
1,44,100,128
1,40,100,128
1,40,100,128
1,40,100,128
1,40,100,128
1,49,100,128
1,49,100,128
1,49,100,128
1,49,100,128
1,42,100,128
1,42,100,128
1,42,100,128
1,42,100,128
1,49,100,128
1,49,100,128
1,49,100,128
1,49,100,128
1,47,100,1664
1,47,100,32
1,47,100,32
1,47,100,64
1,47,100,32
1,47,100,32
1,47,100,64
1,47,100,32
1,47,100,32
1,47,100,32
1,47,100,32
1,47,100,32
1,47,100,32
1,47,100,64
1,47,100,32
1,47,100,32
1,47,100,64
1,47,100,32
1,47,100,32
1,47,100,64
1,47,100,32
1,47,100,32
1,47,100,32
1,47,100,32
1,47,100,32
1,47,100,32
1,47,100,64
1,47,100,32
1,47,100,32
1,47,100,64
1,47,100,32
1,47,100,32
1,47,100,64
1,47,100,32
1,47,100,32
1,47,100,32
1,47,100,32
1,47,100,32
1,47,100,32
1,42,100,64
1,42,100,32
1,42,100,32
1,42,100,64
1,42,100,32
1,42,100,32
1,42,100,64
1,42,100,32
1,42,100,32
1,42,100,32
1,42,100,32
1,42,100,32
1,42,100,32
1,42,100,64
1,42,100,32
1,42,100,32
1,42,100,64
1,42,100,32
1,42,100,32
1,42,100,64
1,42,100,32
1,42,100,32
1,42,100,0
1,42,100,32
1,42,100,32
1,42,100,32
1,42,100,32
1,42,100,64
1,42,100,32
1,42,100,32
1,42,100,64
1,42,100,32
1,42,100,32
1,42,100,64
1,42,100,32
1,42,100,32
1,42,100,32
1,42,100,32
1,42,100,32
1,42,100,32
1,42,100,64
1,42,100,32
1,42,100,32
1,42,100,64
1,42,100,32
1,42,100,32
1,47,100,64
1,47,100,32
1,47,100,32
1,47,100,64
1,47,100,32
1,47,100,32
1,47,100,64
1,47,100,0
1,47,100,32
1,47,100,32
1,47,100,32
1,47,100,32
1,47,100,32
1,47,100,32
1,47,100,64
1,47,100,32
1,47,100,32
1,47,100,64
1,47,100,32
1,47,100,32
1,47,100,64
1,47,100,32
1,47,100,32
1,47,100,32
1,47,100,32
1,47,100,32
1,47,100,32
1,47,100,64
1,47,100,32
1,47,100,32
1,47,100,64
1,47,100,32
1,47,100,32
1,47,100,64
1,47,100,32
1,47,100,32
1,47,100,0
1,47,100,32
1,47,100,32
1,47,100,32
1,47,100,32
1,47,100,64
1,47,100,32
1,47,100,32
1,47,100,64
1,47,100,32
1,47,100,32
1,47,100,64
1,47,100,32
1,47,100,32
1,47,100,32
1,47,100,32
1,47,100,32
1,47,100,32
1,47,100,64
1,47,100,32
1,47,100,32
1,47,100,64
1,47,100,32
1,47,100,32
1,47,100,64
1,47,100,32
1,47,100,32
1,47,100,32
1,47,100,32
1,47,100,32
1,47,100,32
1,42,100,64
1,42,100,32
1,42,100,32
1,42,100,64
1,42,100,32
1,42,100,32
1,42,100,64
1,42,100,32
1,42,100,32
1,42,100,32
1,42,100,32
1,42,100,32
1,42,100,32
1,42,100,64
1,42,100,32
1,42,100,32
1,42,100,64
1,42,100,32
1,42,100,32
1,42,100,64
1,42,100,32
1,42,100,32
1,42,100,32
1,42,100,32
1,42,100,32
1,42,100,32
1,42,100,64
1,42,100,32
1,42,100,32
1,42,100,64
1,42,100,32
1,42,100,32
1,42,100,64
1,42,100,32
1,42,100,32
1,42,100,32
1,42,100,32
1,42,100,32
1,42,100,32
1,42,100,64
1,42,100,32
1,42,100,32
1,42,100,64
1,42,100,32
1,42,100,32
1,47,100,64
1,47,100,32
1,47,100,32
1,47,100,64
1,47,100,32
1,47,100,32
1,47,100,64
1,47,100,32
1,47,100,32
1,47,100,32
1,47,100,32
1,47,100,32
1,47,100,32
1,49,100,64
1,49,100,192
1,49,100,64
1,42,100,256
1,42,100,192
1,42,100,64
1,49,100,256
1,49,100,192
1,49,100,64
1,42,100,256
1,42,100,192
1,42,100,64
1,49,100,256
1,49,100,128
1,49,100,128
1,49,100,128
1,49,100,128
1,49,100,128
1,49,100,128
1,49,100,128
1,47,100,128
1,47,100,128
1,47,100,128
1,47,100,128
1,47,100,128
1,47,100,128
1,47,100,128
1,47,100,128
1,49,100,128
1,49,100,128
1,49,100,128
1,49,100,128
1,49,100,128
1,49,100,128
1,49,100,128
1,49,100,128
1,47,100,128
1,47,100,128
1,47,100,128
1,47,100,128
1,47,100,128
1,47,100,128
1,47,100,128
1,47,100,128
1,44,100,128
1,44,100,128
1,44,100,128
1,44,100,128
1,40,100,128
1,40,100,128
1,40,100,128
1,40,100,128
1,44,100,128
1,44,100,128
1,40,100,128
1,42,100,128
1,44,100,128
1,44,100,128
1,44,100,128
1,44,100,128
1,40,100,128
1,40,100,128
1,40,100,128
1,40,100,128
1,49,100,128
1,49,100,128
1,49,100,128
1,49,100,128
1,42,100,128
1,42,100,128
1,42,100,128
1,42,100,128
1,49,100,128
1,49,100,128
1,49,100,128
1,49,100,128
1,47,100,1664
1,47,100,32
1,47,100,32
1,47,100,64
1,47,100,32
1,47,100,32
1,47,100,64
1,47,100,32
1,47,100,32
1,47,100,32
1,47,100,32
1,47,100,96
1,47,100,32
1,47,100,64
1,47,100,32
1,47,100,32
1,47,100,64
1,47,100,32
1,47,100,32
1,47,100,64
1,47,100,32
1,47,100,32
1,47,100,32
1,47,100,32
1,47,100,32
1,47,100,32
1,47,100,64
1,47,100,32
1,47,100,32
1,47,100,64
1,47,100,32
1,47,100,32
1,47,100,64
1,47,100,32
1,47,100,32
1,47,100,32
1,47,100,32
1,47,100,32
1,47,100,32
1,42,100,64
1,42,100,32
1,42,100,32
1,42,100,64
1,42,100,32
1,42,100,32
1,42,100,64
1,42,100,32
1,42,100,32
1,42,100,32
1,42,100,32
1,42,100,32
1,42,100,32
1,42,100,64
1,42,100,32
1,42,100,32
1,42,100,64
1,42,100,32
1,42,100,32
1,42,100,64
1,42,100,32
1,42,100,32
1,42,100,32
1,42,100,32
1,42,100,32
1,42,100,32
1,42,100,64
1,42,100,32
1,42,100,32
1,42,100,64
1,42,100,32
1,42,100,32
1,42,100,64
1,42,100,32
1,42,100,32
1,42,100,32
1,42,100,32
1,42,100,32
1,42,100,32
1,42,100,64
1,42,100,32
1,42,100,32
1,42,100,64
1,42,100,32
1,42,100,32
1,47,100,64
1,47,100,32
1,47,100,32
1,47,100,64
1,47,100,32
1,47,100,32
1,47,100,64
1,47,100,0
1,47,100,32
1,47,100,32
1,47,100,0
1,47,100,32
1,47,100,32
1,47,100,32
1,47,100,32
1,47,100,64
1,47,100,32
1,47,100,32
1,47,100,64
1,47,100,32
1,47,100,32
1,47,100,64
1,47,100,32
1,47,100,32
1,47,100,32
1,47,100,32
1,47,100,32
1,47,100,32
1,47,100,64
1,47,100,32
1,47,100,32
1,47,100,64
1,47,100,32
1,47,100,32
1,47,100,64
1,47,100,32
1,47,100,32
1,47,100,32
1,47,100,32
1,47,100,32
1,47,100,32
1,47,100,64
1,47,100,32
1,47,100,32
1,47,100,64
1,47,100,32
1,47,100,32
1,47,100,64
1,47,100,32
1,47,100,32
1,47,100,32
1,47,100,32
1,47,100,32
1,47,100,32
1,47,100,64
1,47,100,32
1,47,100,32
1,47,100,64
1,47,100,32
1,47,100,32
1,47,100,64
1,47,100,32
1,47,100,32
1,47,100,32
1,47,100,32
1,47,100,32
1,47,100,32
1,42,100,64
1,42,100,32
1,42,100,32
1,42,100,64
1,42,100,32
1,42,100,32
1,42,100,64
1,42,100,32
1,42,100,32
1,42,100,32
1,42,100,32
1,42,100,32
1,42,100,32
1,42,100,64
1,42,100,32
1,42,100,32
1,42,100,64
1,42,100,32
1,42,100,32
1,42,100,64
1,42,100,32
1,42,100,32
1,42,100,32
1,42,100,32
1,42,100,32
1,42,100,32
1,42,100,64
1,42,100,32
1,42,100,32
1,42,100,64
1,42,100,32
1,42,100,32
1,42,100,64
1,42,100,32
1,42,100,32
1,42,100,32
1,42,100,32
1,42,100,32
1,42,100,32
1,42,100,64
1,42,100,32
1,42,100,32
1,42,100,64
1,42,100,32
1,42,100,32
1,47,100,64
1,47,100,32
1,47,100,32
1,47,100,64
1,47,100,32
1,47,100,32
1,47,100,64
1,47,100,32
1,47,100,32
1,47,100,32
1,47,100,32
1,47,100,32
1,47,100,32
1,47,80,1600
1,47,80,32
1,47,80,32
1,47,79,64
1,47,78,32
1,47,78,32
1,47,77,64
1,47,76,32
1,47,76,32
1,47,75,32
1,47,75,32
1,47,75,32
1,47,74,32
1,47,73,64
1,47,73,32
1,47,72,32
1,47,71,64
1,47,71,32
1,47,70,32
1,47,70,64
1,47,69,32
1,47,69,32
1,47,68,32
1,47,68,32
1,47,67,32
1,47,67,32
1,47,66,64
1,47,65,32
1,47,65,32
1,47,64,64
1,47,64,32
1,47,63,32
1,47,62,64
1,47,62,32
1,47,61,32
1,47,61,32
1,47,60,32
1,47,60,32
1,47,60,32
1,42,59,64
1,42,58,32
1,42,58,32
1,42,57,64
1,42,56,32
1,42,56,32
1,42,55,64
1,42,55,32
1,42,54,32
1,42,54,32
1,42,53,32
1,42,53,32
1,42,52,32
1,42,51,64
1,42,51,32
1,42,50,32
1,42,50,64
1,42,49,32
1,42,49,32
1,42,48,64
1,42,47,32
1,42,47,32
1,42,47,0
1,42,46,32
1,42,46,32
1,42,45,32
1,42,45,32
1,42,44,64
1,42,44,32
1,42,43,32
1,42,42,64
1,42,42,32
1,42,41,32
1,42,40,64
1,42,40,32
1,42,40,32
1,42,39,32
1,42,39,32
1,42,38,32
1,42,38,32
1,42,37,64
1,42,36,32
1,42,36,32
1,42,35,64
1,42,35,32
1,42,34,32
1,47,33,64
1,47,33,32
1,47,32,32
1,47,31,64
1,47,31,32
1,47,30,32
2,59,100,2112
2,61,100,32
2,63,100,32
2,66,100,64
2,71,100,128
2,70,100,320
2,70,100,32
2,68,100,32
2,66,100,64
2,63,100,128
2,59,100,320
2,61,100,32
2,63,100,32
2,66,100,64
2,66,100,128
2,59,100,320
2,61,100,32
2,63,100,96
2,66,100,64
2,66,100,128
2,61,100,320
2,63,100,32
2,64,100,32
2,66,100,64
2,70,100,256
2,70,100,64
2,70,100,64
2,61,100,64
2,63,100,32
2,64,100,32
2,66,100,64
2,66,100,128
2,61,100,320
2,63,100,32
2,64,100,32
2,66,100,64
2,70,100,256
2,70,100,64
2,70,100,64
2,61,100,64
2,63,100,32
2,64,100,32
2,63,100,64
2,63,100,128
2,59,100,1152
2,61,100,32
2,63,100,32
2,66,100,64
2,71,100,128
2,70,100,320
2,70,100,32
2,68,100,32
2,66,100,64
2,68,100,128
2,63,100,64
2,66,100,64
2,59,100,64
2,61,100,32
2,63,100,32
2,66,100,64
2,66,100,128
2,59,100,320
2,61,100,32
2,63,100,32
2,66,100,64
2,66,100,128
2,61,100,320
2,63,100,32
2,64,100,32
2,66,100,64
2,70,100,256
2,70,100,64
2,70,100,64
2,61,100,64
2,63,100,32
2,64,100,32
2,66,100,64
2,66,100,128
2,61,100,320
2,63,100,32
2,64,100,32
2,66,100,64
2,70,100,256
2,70,100,64
2,70,100,64
2,61,100,64
2,63,100,32
2,64,100,32
2,63,100,64
2,63,100,128
2,61,100,384
2,63,100,32
2,64,100,32
2,66,100,64
2,66,100,128
2,61,100,1536
2,63,100,32
2,64,100,32
2,66,100,64
2,66,100,128
2,61,100,21504
2,63,100,32
2,64,100,32
2,66,100,64
2,66,100,128
2,61,100,1536
2,63,100,32
2,64,100,32
2,66,100,64
2,66,100,128
2,59,100,768
2,61,100,32
2,63,100,32
2,66,100,64
2,71,100,128
2,70,100,320
2,70,100,32
2,68,100,32
2,66,100,64
2,63,100,128
2,59,100,320
2,61,100,32
2,63,100,32
2,66,100,64
2,66,100,128
2,59,100,320
2,61,100,32
2,63,100,96
2,66,100,64
