track,note,velocity,time
0,42,75,234
0,42,0,3
0,42,75,93
0,42,0,3
0,42,75,93
0,42,0,3
0,42,75,93
0,42,0,3
0,81,66,0
0,57,46,0
0,45,50,0
0,64,84,0
0,85,62,0
0,61,42,0
0,64,0,12
0,61,60,0
0,61,0,12
0,64,80,0
0,64,0,12
0,61,82,0
0,61,0,12
0,64,82,0
0,64,0,12
0,61,84,0
0,61,0,12
0,64,82,0
0,64,0,12
0,61,84,0
0,61,0,12
0,64,84,0
0,64,0,12
0,61,84,0
0,61,0,12
0,64,86,0
0,64,0,12
0,61,82,0
0,61,0,12
0,64,82,0
0,64,0,12
0,61,84,0
0,61,0,12
0,64,84,0
0,64,0,12
0,61,74,0
0,61,0,12
0,64,76,0
0,64,0,12
0,61,82,0
0,61,0,12
0,64,76,0
0,64,0,12
0,61,82,0
0,61,0,12
0,64,84,0
0,64,0,12
0,61,80,0
0,61,0,12
0,64,84,0
0,85,0,4
0,64,0,8
0,61,88,0
0,81,0,9
0,61,0,3
0,78,64,0
0,83,64,0
0,64,78,0
0,64,0,12
0,61,92,0
0,61,0,12
0,83,0,0
0,78,0,0
0,81,64,0
0,85,66,0
0,64,84,0
0,64,0,12
0,61,88,0
0,61,0,12
0,85,0,0
0,81,0,0
0,83,42,0
0,78,62,0
0,64,78,0
0,64,0,12
0,61,80,0
0,61,0,12
0,78,0,0
0,83,0,0
0,81,66,0
0,76,46,0
0,64,78,0
0,64,0,12
0,61,84,0
0,61,0,12
0,76,0,0
0,81,0,0
0,73,72,0
0,64,82,0
0,78,56,0
0,64,0,12
0,61,82,0
0,61,0,12
0,64,78,0
0,64,0,12
0,61,86,0
0,61,0,12
0,64,80,0
0,64,0,12
0,61,82,0
0,61,0,12
0,64,78,0
0,64,0,12
0,61,80,0
0,61,0,12
0,64,74,0
0,64,0,12
0,61,82,0
0,61,0,12
0,64,80,0
0,64,0,12
0,61,84,0
0,61,0,12
0,64,80,0
0,64,0,12
0,61,84,0
0,73,0,10
0,61,0,2
0,64,78,0
0,64,0,12
0,61,84,0
0,78,0,1
0,61,0,11
0,76,68,0
0,73,54,0
0,64,78,0
0,64,0,12
0,61,84,0
0,61,0,12
0,64,76,0
0,64,0,12
0,61,82,0
0,61,0,12
0,64,76,0
0,64,0,12
0,61,82,0
0,76,0,11
0,61,0,1
0,64,78,0
0,64,0,12
0,61,84,0
0,73,0,11
0,61,0,1
0,76,62,0
0,64,82,0
0,81,62,0
0,64,0,12
0,61,84,0
0,61,0,12
0,64,78,0
0,64,0,12
0,61,82,0
0,61,0,12
0,64,76,0
0,64,0,12
0,61,84,0
0,61,0,12
0,64,80,0
0,64,0,12
0,61,86,0
0,76,0,11
0,81,0,0
0,61,0,1
0,64,80,0
0,78,62,0
0,73,42,0
0,64,0,12
0,61,84,0
0,61,0,12
0,64,70,0
0,64,0,12
0,61,86,0
0,61,0,12
0,64,78,0
0,64,0,12
0,61,82,0
0,61,0,12
0,64,76,0
0,64,0,12
0,61,82,0
0,61,0,12
0,64,76,0
0,64,0,12
0,61,80,0
0,61,0,12
0,64,76,0
0,64,0,12
0,61,82,0
0,61,0,12
0,64,82,0
0,64,0,12
0,61,80,0
0,61,0,12
0,64,82,0
0,73,0,6
0,78,0,5
0,64,0,1
0,61,84,0
0,61,0,12
0,64,88,0
0,78,64,0
0,73,50,0
0,64,0,12
0,61,82,0
0,61,0,12
0,64,82,0
0,64,0,12
0,61,82,0
0,61,0,12
0,64,76,0
0,64,0,12
0,61,76,0
0,61,0,12
0,78,0,0
0,64,78,0
0,64,0,12
0,61,80,0
0,73,0,2
0,61,0,10
0,64,82,0
0,78,64,0
0,81,58,0
0,64,0,12
0,61,82,0
0,61,0,12
0,64,76,0
0,64,0,12
0,61,84,0
0,61,0,12
0,64,84,0
0,81,0,9
0,64,0,3
0,61,84,0
0,61,0,12
0,64,86,0
0,64,0,12
0,61,86,0
0,78,0,10
0,61,0,2
0,85,54,0
0,64,88,0
0,81,66,0
0,64,0,12
0,61,84,0
0,61,0,12
0,64,78,0
0,64,0,12
0,61,78,0
0,61,0,12
0,64,80,0
0,64,0,12
0,61,84,0
0,61,0,12
0,64,78,0
0,64,0,12
0,61,84,0
0,61,0,12
0,64,82,0
0,64,0,12
0,61,80,0
0,61,0,12
0,64,82,0
0,64,0,12
0,61,76,0
0,61,0,12
0,64,76,0
0,64,0,12
0,61,82,0
0,61,0,12
0,64,86,0
0,64,0,12
0,61,84,0
0,61,0,12
0,64,80,0
0,64,0,12
0,61,84,0
0,61,0,12
0,64,78,0
0,64,0,12
0,61,82,0
0,61,0,12
0,64,84,0
0,64,0,12
0,61,82,0
0,85,0,1
0,81,0,1
0,61,0,10
0,64,82,0
0,64,0,12
0,61,82,0
0,61,0,12
0,90,64,0
0,86,64,0
0,64,78,0
0,64,0,12
0,61,78,0
0,61,0,12
0,86,0,0
0,90,0,0
0,64,80,0
0,92,66,0
0,88,66,0
0,64,0,12
0,61,84,0
0,61,0,12
0,88,0,0
0,92,0,0
0,64,82,0
0,86,52,0
0,90,56,0
0,64,0,12
0,61,82,0
0,61,0,12
0,90,0,0
0,86,0,0
0,64,80,0
0,85,52,0
0,88,56,0
0,64,0,12
0,61,84,0
0,85,0,11
0,88,0,1
0,61,0,0
0,81,52,0
0,85,58,0
0,64,74,0
0,64,0,12
0,61,84,0
0,61,0,12
0,64,82,0
0,64,0,12
0,61,84,0
0,61,0,12
0,64,78,0
0,64,0,12
0,61,84,0
0,61,0,12
0,64,84,0
0,64,0,12
0,61,82,0
0,61,0,12
0,64,80,0
0,64,0,12
0,61,84,0
0,61,0,12
0,64,80,0
0,64,0,12
0,61,82,0
0,61,0,12
0,64,82,0
0,64,0,12
0,61,86,0
0,61,0,12
0,64,80,0
0,64,0,12
0,61,82,0
0,61,0,12
0,64,80,0
0,64,0,12
0,61,84,0
0,61,0,12
0,64,80,0
0,64,0,12
0,61,84,0
0,61,0,12
0,64,82,0
0,64,0,12
0,61,84,0
0,61,0,12
0,64,82,0
0,64,0,12
0,61,80,0
0,61,0,12
0,64,82,0
0,64,0,12
0,61,86,0
0,61,0,12
0,64,76,0
0,64,0,12
0,61,84,0
0,61,0,12
0,64,76,0
0,85,0,1
0,64,0,11
0,61,72,0
0,81,0,1
0,61,0,11
0,64,80,0
0,64,0,12
0,50,86,0
0,57,0,3
0,61,0,2
0,57,80,1
0,45,0,2
0,62,91,4
0,62,96,0
0,38,81,0
0,62,66,0
0,50,58,0
0,57,79,0
0,66,87,0
0,54,48,0
0,78,64,0
0,74,60,0
0,66,92,0
0,57,0,152
0,66,0,1
0,62,0,1
0,38,0,3
0,78,0,16
0,74,0,3
0,50,0,1
0,66,0,5
0,57,0,1
0,54,0,0
0,62,0,5
0,62,0,0
0,38,72,4
0,38,81,0
0,62,76,0
0,50,88,0
0,66,83,0
0,62,95,0
0,66,86,0
0,62,88,0
0,54,62,0
0,57,87,0
0,57,76,0
0,74,56,0
0,78,76,0
0,50,0,2
0,57,0,55
0,62,0,3
0,66,0,7
0,38,0,4
0,54,0,2
0,38,0,21
0,78,0,0
0,62,0,0
0,74,0,1
0,62,0,1
0,50,0,0
0,57,0,0
0,66,0,0
0,40,91,0
0,68,87,0
0,40,86,0
0,40,62,0
0,64,58,0
0,64,95,0
0,57,48,0
0,68,82,0
0,59,83,0
0,76,62,0
0,64,88,0
0,80,56,0
0,59,82,0
0,59,0,19
0,40,0,5
0,40,0,1
0,68,0,7
0,64,0,0
0,40,0,15
0,76,0,0
0,64,0,0
0,80,0,0
0,59,0,1
0,64,0,0
0,68,0,0
0,62,87,0
0,81,66,0
0,69,86,0
0,42,80,0
0,62,92,0
0,42,103,0
0,57,82,0
0,66,48,0
0,69,99,0
0,78,56,0
0,66,103,0
0,42,86,0
0,42,0,48
0,62,0,96
0,57,0,0
0,69,0,0
0,69,0,3
0,66,0,1
0,42,0,3
0,62,0,3
0,42,0,7
0,57,0,3
0,66,0,1
0,81,0,27
0,78,0,0
0,69,99,0
0,57,64,0
0,80,62,0
0,42,64,0
0,76,68,0
0,62,104,0
0,42,91,0
0,62,83,0
0,66,68,0
0,66,107,0
0,57,88,0
0,42,82,0
0,76,0,52
0,62,0,4
0,80,0,9
0,69,0,0
0,42,0,1
0,66,0,3
0,66,0,16
0,42,0,11
0,57,0,0
0,62,0,0
0,59,88,0
0,44,79,0
0,44,80,0
0,68,83,0
0,64,48,0
0,64,86,0
0,76,64,0
0,59,60,0
0,44,54,0
0,64,81,0
0,59,73,0
0,73,64,0
0,57,0,3
0,42,0,5
0,59,0,16
0,64,0,0
0,68,0,7
0,44,0,7
0,64,0,8
0,59,0,0
0,73,0,0
0,44,0,1
0,44,0,1
0,59,0,0
0,69,46,0
0,45,91,0
0,45,64,0
0,64,74,0
0,64,79,0
0,61,46,0
0,61,84,0
0,61,91,0
0,57,83,0
0,73,50,0
0,45,88,0
0,76,0,8
0,38,11,4
0,38,0,3
0,38,23,9
0,38,0,3
0,38,18,9
0,38,0,3
0,69,0,9
0,38,75,0
0,38,0,3
0,76,62,45
0,38,13,12
0,38,0,3
0,38,20,9
0,38,0,3
0,38,22,9
0,38,0,3
0,38,75,9
0,38,0,3
0,45,0,45
0,64,0,0
0,61,0,0
0,61,70,0
0,61,0,12
0,64,76,0
0,64,0,12
0,61,72,0
0,61,0,12
0,64,76,0
0,64,0,12
0,61,72,0
0,38,66,0
0,38,0,3
0,61,0,9
0,64,64,0
0,64,0,12
0,61,84,0
0,61,0,12
0,64,76,0
0,73,0,7
0,64,0,5
0,61,82,0
0,38,40,0
0,38,0,3
0,61,0,9
0,64,74,0
0,64,0,12
0,61,82,0
0,76,0,10
0,61,0,2
0,64,76,0
0,64,0,12
0,78,62,0
0,38,75,0
0,74,64,0
0,61,82,0
0,38,0,3
0,61,0,9
0,64,66,0
0,64,0,12
0,78,0,0
0,74,0,0
0,80,58,0
0,76,62,0
0,61,76,0
0,61,0,12
0,64,74,0
0,64,0,12
0,76,0,0
0,80,0,0
0,61,76,0
0,78,38,0
0,74,50,0
0,61,0,12
0,38,13,0
0,64,76,0
0,38,0,3
0,78,0,9
0,64,0,0
0,74,0,0
0,38,11,0
0,61,76,0
0,76,64,0
0,73,31,0
0,38,0,3
0,61,0,9
0,64,82,0
0,38,20,0
0,38,0,3
0,73,0,6
0,76,0,3
0,64,0,0
0,73,54,0
0,38,75,0
0,69,72,0
0,61,72,0
0,38,0,3
0,61,0,9
0,64,78,0
0,64,0,11
0,64,0,1
0,57,44,0
0,61,78,0
0,61,0,12
0,64,78,0
0,64,0,12
0,61,82,0
0,61,0,9
0,64,78,3
0,64,0,12
0,38,15,0
0,61,82,0
0,38,0,3
0,61,0,9
0,38,13,0
0,38,0,3
0,38,75,9
0,64,76,0
0,38,0,3
0,64,0,9
0,61,82,0
0,61,0,12
0,64,70,0
0,64,0,12
0,61,74,0
0,61,0,12
0,64,72,0
0,64,0,12
0,61,86,0
0,38,23,0
0,38,0,3
0,61,0,9
0,64,74,0
0,38,18,0
0,38,0,3
0,64,0,9
0,61,84,0
0,38,20,0
0,38,0,3
0,61,0,9
0,38,75,0
0,64,80,0
0,38,0,3
0,64,0,9
0,61,84,0
0,61,0,12
0,64,66,0
0,64,0,12
0,61,76,0
0,61,0,12
0,64,78,0
0,38,75,0
0,38,0,3
0,64,0,9
0,61,76,0
0,61,0,12
0,64,76,0
0,64,0,12
0,61,76,0
0,73,0,4
0,69,0,0
0,61,0,8
0,71,66,0
0,64,76,0
0,38,75,0
0,66,64,0
0,38,0,3
0,64,0,9
0,61,80,0
0,61,0,12
0,71,0,0
0,66,0,0
0,69,60,0
0,38,44,0
0,64,76,0
0,73,56,0
0,38,0,3
0,64,0,9
0,61,74,0
0,61,0,12
0,69,0,0
0,73,0,0
0,71,30,0
0,64,76,0
0,38,75,0
0,38,0,3
0,64,0,9
0,61,78,0
0,61,0,12
0,71,0,0
0,69,54,0
0,64,42,0
0,64,82,0
0,64,0,12
0,61,82,0
0,61,0,12
0,64,0,0
0,69,0,0
0,61,56,0
0,64,78,0
0,66,58,0
0,38,75,0
0,38,0,3
0,64,0,9
0,61,76,0
0,61,0,12
0,64,60,0
0,64,0,12
0,61,66,0
0,61,0,12
0,64,76,0
0,38,30,0
0,38,0,3
0,64,0,9
0,61,70,0
0,61,0,12
0,64,82,0
0,64,0,12
0,61,82,0
0,61,0,12
0,64,70,0
0,38,61,0
0,38,0,3
0,64,0,9
0,61,80,0
0,61,0,12
0,64,76,0
0,64,0,12
0,61,82,0
0,61,0,12
0,64,82,0
0,38,28,0
0,38,0,3
0,64,0,9
0,61,74,0
0,61,0,12
0,64,82,0
0,64,0,12
0,61,78,0
0,61,0,12
0,38,75,0
0,64,82,0
0,38,0,3
0,64,0,9
0,61,84,0
0,61,0,12
0,64,80,0
0,64,0,12
0,61,84,0
0,61,0,12
0,64,80,0
0,64,0,12
0,61,80,0
0,61,0,12
0,38,20,0
0,64,82,0
0,61,0,1
0,38,0,2
0,57,0,4
0,64,0,5
0,61,80,0
0,38,22,0
0,38,0,3
0,66,0,1
0,61,0,7
0,61,0,1
0,64,0,0
0,61,56,0
0,38,75,0
0,64,66,0
0,64,78,0
0,45,0,2
0,38,0,1
0,64,0,9
0,61,74,0
0,61,0,12
0,64,74,0
0,64,0,12
0,61,70,0
0,61,0,3
0,61,0,9
0,64,78,0
0,69,64,0
0,64,0,12
0,61,84,0
0,61,0,12
0,64,84,0
0,64,0,12
0,61,84,0
0,69,0,11
0,61,0,1
0,61,34,0
0,38,75,0
0,66,54,0
0,64,82,0
0,38,0,3
0,64,0,3
0,64,0,6
0,61,84,0
0,61,0,12
0,64,80,0
0,64,0,12
0,61,80,0
0,61,0,12
0,38,43,0
0,64,82,0
0,38,0,3
0,64,0,9
0,61,70,0
0,61,0,12
0,64,80,0
0,64,0,12
0,61,82,0
0,61,0,12
0,64,78,0
0,38,75,0
0,38,0,3
0,64,0,9
0,61,72,0
0,61,0,12
0,64,82,0
0,64,0,12
0,61,76,0
0,61,0,12
0,64,84,0
0,61,88,0
0,61,0,12
0,64,0,0
0,38,11,0
0,61,76,0
0,38,0,3
0,61,0,9
0,38,10,0
0,61,73,0
0,64,84,0
0,38,0,3
0,64,0,9
0,61,0,0
0,38,17,0
0,61,76,0
0,38,0,3
0,61,0,9
0,38,75,0
0,61,73,0
0,61,82,0
0,38,0,3
0,61,0,9
0,64,76,0
0,64,0,12
0,38,37,0
0,61,74,0
0,38,0,3
0,61,0,9
0,64,80,0
0,64,0,12
0,61,68,0
0,38,56,0
0,38,0,3
0,61,0,5
0,61,0,4
0,64,86,0
0,64,0,12
0,62,71,0
0,61,80,0
0,61,0,12
0,64,86,0
0,62,0,1
0,64,0,11
0,62,87,0
0,38,75,0
0,61,74,0
0,38,0,3
0,61,0,9
0,64,84,0
0,64,0,12
0,61,76,0
0,61,0,12
0,64,82,0
0,64,0,12
0,61,76,0
0,62,0,8
0,61,0,4
0,64,78,0
0,64,0,12
0,61,74,0
0,38,11,0
0,64,79,0
0,45,58,0
0,38,0,3
0,52,64,5
0,64,0,3
0,61,0,1
0,38,13,0
0,64,86,0
0,38,0,3
0,57,64,1
0,66,0,6
0,61,0,0
0,64,0,2
0,33,56,0
0,61,56,0
0,38,75,0
0,64,91,0
0,61,80,0
0,76,90,0
0,38,0,3
0,61,0,9
0,76,0,0
0,64,82,0
0,33,0,2
0,64,0,10
0,61,80,0
0,64,0,6
0,61,0,6
0,64,82,0
0,64,0,12
0,61,74,0
0,73,66,0
0,40,62,0
0,64,81,0
0,73,0,12
0,61,0,0
0,64,80,0
0,40,0,7
0,64,0,5
0,61,70,0
0,38,10,0
0,38,0,3
0,61,0,9
0,64,82,0
0,38,11,0
0,38,0,3
0,64,0,9
0,61,76,0
0,76,78,0
0,45,44,0
0,38,75,0
0,38,0,3
0,61,0,9
0,76,0,0
0,64,82,0
