track,note,velocity,time
0,69,71,0
0,65,95,0
0,69,68,0
0,65,92,0
0,69,75,32
0,65,93,0
0,69,72,0
0,65,90,0
0,67,74,48
0,64,72,0
0,67,71,0
0,64,69,0
0,67,87,28
0,64,87,0
0,67,84,0
0,64,84,0
0,65,90,2
0,65,87,0
0,62,74,1
0,62,71,0
0,62,87,44
0,65,67,0
0,62,84,0
0,65,64,0
0,62,74,32
0,65,74,0
0,62,71,0
0,65,71,0
0,64,70,6
0,64,67,0
0,60,64,1
0,60,61,0
0,64,77,23
0,64,74,0
0,60,69,1
0,60,66,0
0,62,95,48
0,58,69,0
0,62,92,0
0,58,66,0
0,58,85,43
0,62,69,0
0,58,82,0
0,62,66,0
0,58,81,30
0,62,76,0
0,58,78,0
0,62,73,0
0,60,71,47
0,60,68,0
0,57,71,0
0,57,68,0
0,60,77,26
0,60,74,0
0,57,79,1
0,57,76,0
0,55,63,48
0,58,69,0
0,55,60,0
0,58,66,0
0,58,67,26
0,55,60,0
0,58,64,0
0,55,57,0
0,53,74,3
0,50,61,0
0,57,79,0
0,38,64,0
0,53,71,0
0,50,58,0
0,57,76,0
0,38,61,0
0,57,79,1
0,38,62,0
0,57,69,0
0,38,74,36
0,50,72,0
0,38,71,0
0,50,69,0
0,65,84,2
0,38,70,0
0,65,74,1
0,57,61,7
0,57,76,3
0,38,69,2
0,58,54,0
0,50,67,0
0,38,66,0
0,58,51,0
0,50,64,0
0,58,76,2
0,58,65,0
0,38,65,1
0,65,79,41
0,65,68,2
0,38,68,35
0,38,65,0
0,58,79,0
0,58,61,0
0,50,67,1
0,50,64,0
0,38,72,0
0,57,62,3
0,57,47,2
0,57,44,0
0,57,83,0
0,38,67,4
0,38,64,0
0,50,65,1
0,65,98,0
0,50,62,0
0,65,95,0
0,69,79,1
0,69,76,0
0,38,70,1
0,65,85,19
0,69,75,0
0,65,82,0
0,69,72,0
0,38,63,1
0,50,64,0
0,38,60,0
0,50,61,0
0,67,64,1
0,67,61,0
0,38,76,0
0,64,74,0
0,64,71,0
0,67,83,21
0,64,85,0
0,67,80,0
0,64,82,0
0,38,63,2
0,65,90,0
0,50,64,0
0,38,60,0
0,65,87,0
0,50,61,0
0,38,79,0
0,62,75,1
0,62,72,0
0,38,68,35
0,38,65,0
0,50,69,1
0,50,66,0
0,38,76,0
0,38,72,2
0,62,98,0
0,50,67,0
0,65,76,0
0,38,69,0
0,62,95,0
0,50,64,0
0,65,73,0
0,38,73,0
0,62,75,3
0,65,69,0
0,62,72,0
0,65,66,0
0,38,69,0
0,50,66,0
0,64,70,0
0,38,66,0
0,50,63,0
0,64,67,0
0,38,72,0
0,60,67,1
0,60,64,0
0,64,75,28
0,60,63,0
0,64,72,0
0,60,60,0
0,62,84,2
0,38,84,0
0,50,84,0
0,62,81,0
0,38,81,0
0,50,81,0
0,38,65,0
0,58,84,1
0,58,81,0
0,38,74,41
0,38,71,0
0,38,74,0
0,50,71,1
0,50,68,0
0,38,69,38
0,38,72,1
0,58,87,0
0,50,67,0
0,62,75,0
0,38,69,0
0,58,84,0
0,50,64,0
0,62,72,0
0,62,71,29
0,58,74,0
0,62,68,0
0,58,71,0
0,60,71,8
0,38,67,0
0,57,73,0
0,60,68,0
0,38,64,0
0,57,70,0
0,38,70,0
0,50,67,1
0,50,64,0
0,60,74,28
0,60,71,0
0,57,74,1
0,57,71,0
0,38,69,32
0,58,73,1
0,58,70,0
0,38,68,1
0,38,65,0
0,55,65,1
0,55,62,0
0,50,65,1
0,50,62,0
0,55,61,24
0,55,58,0
0,58,64,0
0,58,61,0
0,50,54,1
0,50,51,0
0,38,62,1
0,38,59,0
0,38,74,1
0,57,79,1
0,53,75,0
0,57,76,0
0,53,72,0
0,57,79,0
0,57,70,0
0,50,64,35
0,38,65,0
0,62,65,0
0,50,61,0
0,38,62,0
0,62,62,0
0,38,61,0
0,65,69,0
0,65,86,1
0,57,61,4
0,53,53,1
0,57,64,0
0,53,50,0
0,57,61,0
0,57,78,0
0,58,69,37
0,58,66,0
0,58,61,0
0,50,58,1
0,38,60,0
0,50,55,0
0,38,57,0
0,58,80,0
0,38,67,0
0,65,63,14
0,65,86,1
0,38,68,42
0,50,61,0
0,38,65,0
0,50,58,0
0,58,64,0
0,58,77,1
0,38,65,2
0,57,66,1
0,57,63,0
0,57,75,2
0,57,59,2
0,50,70,41
0,38,74,1
0,50,79,0
0,57,66,37
0,69,67,1
0,57,70,0
0,69,60,0
0,65,76,0
0,70,64,29
0,62,79,0
0,70,62,0
0,62,58,1
0,65,83,0
0,69,59,8
0,57,58,0
0,69,62,0
0,57,68,1
0,65,85,0
0,77,77,1
0,77,71,0
0,50,59,1
0,50,73,1
0,65,86,0
0,69,60,31
0,69,64,1
0,57,63,0
0,57,64,1
0,64,79,1
0,70,64,20
0,70,61,0
0,62,61,0
0,62,77,1
0,64,83,0
0,57,59,7
0,69,59,0
0,69,65,1
0,57,65,0
0,64,84,0
0,37,77,2
0,49,62,0
0,49,76,1
0,76,69,0
0,76,75,1
0,69,61,0
0,69,58,0
0,67,83,0
0,57,63,0
0,57,57,0
0,61,68,30
0,70,65,0
0,61,59,0
0,70,60,0
0,67,83,0
0,69,60,28
0,69,62,0
0,67,79,0
0,57,58,0
0,57,62,2
0,67,86,0
0,79,64,0
0,49,66,0
0,79,75,0
0,49,64,0
0,64,84,0
0,69,63,0
0,69,60,0
0,57,61,1
0,57,66,0
0,61,56,1
0,70,67,0
0,64,85,0
0,61,61,0
0,70,63,1
0,65,78,0
0,69,65,0
0,57,60,0
0,69,59,0
0,57,62,0
0,64,69,0
0,65,59,18
0,38,82,1
0,77,74,0
0,50,63,0
0,65,60,0
0,62,76,1
0,50,58,0
0,77,70,1
0,69,61,38
0,57,66,0
0,57,63,1
0,69,60,0
0,62,74,1
0,64,59,0
0,76,66,1
0,76,70,0
0,62,59,0
0,64,68,1
0,69,63,1
0,57,58,0
0,69,60,0
0,57,63,1
0,57,62,20
0,65,62,1
0,50,61,0
0,50,70,1
0,65,60,0
0,57,59,2
0,57,61,32
0,57,62,0
0,62,60,44
0,62,76,1
0,57,63,22
0,57,62,2
0,50,64,5
0,50,71,1
0,38,79,3
0,69,63,18
0,57,66,0
0,69,64,0
0,57,53,1
0,65,79,0
0,70,67,29
0,62,57,0
0,62,75,1
0,70,60,0
0,65,79,0
0,57,58,0
0,69,61,1
0,69,58,0
0,57,62,1
0,65,79,0
0,77,70,26
0,50,67,1
0,77,64,0
0,50,64,0
0,65,87,0
0,69,58,23
0,69,56,1
0,57,57,0
0,64,78,0
0,57,62,0
0,70,69,21
0,62,57,0
0,62,70,1
0,64,79,0
0,70,66,1
0,69,63,1
0,57,64,1
0,57,60,0
0,69,60,0
0,64,87,0
0,37,75,12
0,76,76,0
0,76,66,0
0,49,59,0
0,49,67,0
0,69,60,4
0,69,63,1
0,67,81,0
0,57,68,0
0,57,65,1
0,70,65,26
0,70,57,0
0,61,57,0
0,61,64,1
0,67,78,0
0,69,63,26
0,69,60,0
0,57,65,0
0,67,84,0
0,57,63,0
0,79,62,0
0,79,76,1
0,49,64,0
0,67,83,0
0,49,69,0
0,64,83,0
0,69,61,0
0,57,63,1
0,57,65,0
0,69,60,0
0,61,54,2
0,70,61,1
0,70,69,0
0,61,61,1
0,64,80,0
0,69,64,35
0,69,55,0
0,65,83,0
0,57,63,0
0,57,57,0
0,64,78,0
0,65,67,20
0,69,51,1
0,57,65,0
0,38,91,1
0,77,64,0
0,50,86,0
0,77,65,0
0,50,65,0
0,62,80,0
0,69,61,35
0,69,59,0
0,57,59,1
0,57,61,0
0,67,60,5
0,76,75,1
0,62,76,0
0,76,67,0
0,62,58,0
0,55,64,1
0,64,64,0
0,69,56,16
0,57,58,0
0,69,60,1
0,57,70,0
0,53,65,1
0,62,65,0
0,50,60,1
0,50,74,1
0,74,66,0
0,74,58,0
0,65,60,1
0,69,61,1
0,69,68,1
0,57,67,0
0,57,62,0
0,52,61,0
0,62,57,2
0,65,59,0
0,60,64,0
0,62,73,1
0,65,60,0
0,64,58,1
0,67,62,16
0,57,61,0
0,67,58,0
0,41,73,10
0,65,59,0
0,57,58,1
0,53,58,1
0,53,68,0
0,48,60,25
0,69,86,0
0,69,85,0
0,53,63,1
0,65,70,0
0,57,63,3
0,69,88,0
0,60,64,0
0,48,59,0
0,69,88,0
0,41,60,0
0,69,61,1
0,60,79,0
0,48,66,18
0,60,64,0
0,60,68,2
0,70,65,0
0,69,79,0
0,53,59,0
0,48,61,7
0,69,74,0
0,69,92,0
0,55,62,0
0,36,70,3
0,67,74,1
0,60,62,0
0,67,82,0
0,48,62,0
0,62,76,20
0,67,90,0
0,64,90,4
0,48,59,20
0,55,64,46
0,60,69,35
0,62,77,6
0,43,59,9
0,50,59,2
0,67,82,0
0,67,81,0
0,58,70,0
0,62,74,0
0,67,79,0
0,55,52,1
0,67,90,0
0,62,79,1
0,57,74,0
0,57,61,0
0,50,62,43
0,65,79,0
0,62,74,0
0,58,63,0
0,58,60,0
0,65,83,0
0,50,50,0
0,64,76,24
0,64,67,0
0,38,65,0
0,62,81,2
0,57,61,0
0,53,54,13
0,57,52,3
0,50,59,30
0,53,58,2
0,62,76,4
0,53,53,47
0,57,63,1
0,50,58,2
0,53,60,2
0,50,57,7
0,62,61,0
0,69,74,13
0,65,84,0
0,57,59,0
0,69,64,0
0,65,81,0
0,70,65,0
0,70,63,0
0,62,47,2
0,57,59,0
0,69,63,1
0,69,62,2
0,65,85,0
0,77,74,0
0,50,67,0
0,77,73,0
0,65,84,0
0,69,50,37
0,57,56,0
0,69,55,1
0,64,80,1
0,62,59,6
0,70,65,1
0,70,61,0
0,64,80,0
0,69,63,12
0,57,59,1
0,69,62,2
0,64,90,0
0,61,58,0
0,49,70,4
0,76,81,0
0,76,76,1
0,69,61,7
0,67,80,0
0,69,60,0
0,57,66,0
0,70,67,1
0,61,59,0
0,67,82,0
0,70,62,0
0,67,78,0
0,69,62,0
0,57,62,0
0,69,62,0
0,79,75,5
0,67,87,0
0,49,67,0
0,79,67,0
0,64,76,0
0,69,59,0
0,57,67,0
0,69,55,0
0,70,65,1
0,61,56,0
0,64,81,0
0,70,51,0
0,65,75,0
0,69,60,0
0,57,59,0
0,69,60,0
0,64,74,5
0,62,74,0
0,74,67,3
0,62,75,1
0,50,72,0
0,77,65,1
0,77,64,0
0,62,81,3
0,69,63,0
0,65,58,0
0,57,65,24
0,74,63,0
0,69,63,0
0,74,68,0
0,77,64,3
0,76,61,0
0,64,61,0
0,49,66,2
0,64,75,0
0,79,64,0
0,69,60,0
0,73,65,0
0,73,58,0
0,76,65,0
0,57,60,1
0,76,60,0
0,79,65,0
0,65,63,0
0,77,64,0
0,50,85,1
0,65,73,0
0,81,66,0
0,74,66,0
0,69,59,0
0,62,65,24
0,77,65,0
0,74,67,0
0,77,65,0
0,81,65,0
0,67,63,0
0,52,74,4
0,67,76,1
0,79,64,0
0,82,65,0
0,72,58,0
0,76,65,0
0,60,63,1
0,79,65,0
0,79,56,0
0,82,64,0
0,82,56,0
0,53,74,15
0,69,77,0
0,84,64,0
0,81,61,0
0,69,61,0
0,77,64,3
0,72,57,0
0,81,64,0
0,65,67,1
0,77,64,0
0,84,64,0
0,81,65,0
0,55,58,24
0,86,64,0
0,70,62,0
0,70,70,0
0,82,59,0
0,77,64,0
0,72,59,0
0,77,64,0
0,62,64,1
0,82,64,0
0,82,59,0
0,86,64,0
0,69,69,0
0,81,66,0
0,53,74,1
0,69,76,1
0,84,64,0
0,72,58,0
0,77,64,0
0,77,64,0
0,81,64,0
0,60,58,1
0,81,62,0
0,84,64,0
0,67,60,0
0,52,63,4
0,79,65,0
0,67,76,2
0,82,64,0
0,72,60,1
0,76,63,0
0,60,63,23
0,76,63,0
0,79,61,0
0,79,60,0
0,82,60,0
0,77,62,0
0,57,81,0
0,65,67,1
0,36,110,1
0,57,63,0
0,65,65,0
0,57,65,0
0,60,68,0
0,60,72,0
0,41,91,1
0,81,59,0
0,42,37,4
0,65,60,0
0,69,85,1
0,72,85,0
0,65,85,0
0,57,58,0
0,60,62,0
0,69,99,0
0,57,86,1
0,60,76,0
0,65,59,1
0,42,41,0
0,72,85,1
0,69,85,0
0,65,85,0
0,69,86,0
0,40,105,0
0,65,95,0
0,57,86,0
0,60,93,0
0,41,84,5
0,42,44,0
0,69,97,0
0,69,84,0
0,72,84,0
0,65,84,0
0,57,66,1
0,36,88,1
0,65,69,0
0,57,72,0
0,60,74,0
0,65,67,0
0,60,74,0
0,67,68,0
0,69,103,0
0,69,82,0
0,72,82,0
0,65,82,0
0,60,59,0
0,64,68,0
0,64,65,1
0,55,70,0
0,36,109,1
0,42,38,0
0,36,91,0
0,67,63,4
0,67,88,1
0,67,82,0
0,64,82,0
0,64,75,0
0,42,26,1
0,60,67,0
0,55,79,0
0,60,79,0
0,64,79,0
0,64,81,1
0,72,81,0
0,67,81,0
0,67,88,0
0,42,51,0
0,40,102,0
0,67,69,0
0,64,79,0
0,60,83,0
0,42,38,0
0,36,98,0
0,62,80,0
0,67,80,0
0,70,80,0
0,67,67,0
0,60,74,0
0,55,76,0
0,67,93,0
0,64,67,1
0,64,79,0
0,60,81,0
0,36,109,5
0,67,62,0
0,42,43,0
0,62,81,0
0,58,60,0
0,55,59,0
0,58,62,0
0,43,80,0
0,62,74,0
0,67,89,0
0,42,40,0
0,58,60,0
0,67,68,0
0,62,77,0
0,67,77,1
0,70,77,0
0,62,77,0
0,55,70,2
0,58,74,0
0,62,83,0
0,67,91,0
0,40,100,0
0,42,56,0
0,67,77,1
0,70,77,0
0,62,77,0
0,67,75,1
0,58,74,1
0,62,100,0
0,31,72,0
0,67,71,1
0,62,81,0
0,58,67,0
0,67,84,0
0,36,86,0
0,42,39,0
0,62,85,0
0,58,59,0
0,62,78,1
0,67,78,0
0,70,78,0
0,55,65,0
0,33,82,0
0,67,99,0
0,36,108,0
0,53,59,0
0,62,78,1
0,67,78,0
0,70,78,0
0,62,83,0
0,42,48,1
0,62,85,0
0,58,72,0
0,34,98,0
0,58,61,0
0,65,71,0
0,65,90,8
0,42,41,0
0,62,72,0
0,58,49,0
0,65,73,0
0,53,86,0
0,60,78,0
0,65,78,0
0,58,85,0
0,62,85,0
0,65,102,0
0,42,65,0
0,40,102,0
0,58,72,0
0,65,86,0
0,62,87,0
0,70,78,1
0,60,78,0
0,65,78,0
0,34,74,5
0,58,58,0
0,65,79,0
0,53,68,0
0,62,81,0
0,58,72,0
0,42,38,0
0,62,81,0
0,69,108,0
0,72,78,0
0,65,78,0
0,69,78,0
0,57,73,9
0,65,59,0
0,57,85,0
0,60,66,0
0,36,110,1
0,42,48,0
0,41,74,0
0,60,74,0
0,60,85,0
0,57,85,0
0,69,101,0
0,57,58,0
0,65,60,0
0,41,95,0
0,69,78,1
0,72,78,0
0,65,78,0
0,42,31,0
0,60,64,0
0,65,90,21
0,65,81,1
0,57,74,0
0,60,76,0
0,65,85,0
0,67,90,0
0,40,105,0
0,67,77,0
0,70,77,0
0,62,85,0
0,42,63,1
0,65,62,0
0,60,64,0
0,60,67,0
0,65,99,1
0,36,99,0
0,42,40,0
0,57,66,0
0,60,70,0
0,69,77,0
0,65,77,0
0,60,85,0
0,36,89,2
0,58,67,6
0,65,58,0
0,62,68,0
0,58,70,0
0,62,85,0
0,62,81,1
0,58,79,0
0,42,38,1
0,36,109,0
0,41,75,0
0,42,36,10
0,65,41,0
0,69,77,0
0,58,60,0
0,62,61,0
0,69,77,0
0,41,94,2
0,40,105,21
0,65,75,0
0,58,85,0
0,62,74,0
0,62,81,0
0,42,71,1
0,62,83,0
0,65,67,12
0,57,79,0
0,42,46,1
0,58,72,0
0,62,76,0
0,60,87,0
0,57,72,0
0,60,75,0
0,36,93,1
0,65,67,10
0,60,72,1
0,42,61,1
0,57,66,0
0,36,110,0
0,41,80,0
0,65,68,7
