track,note,velocity,time
0,96,127,283
0,40,90,4
0,69,36,0
0,95,80,2
0,93,114,4
0,91,110,2
0,89,83,0
0,69,41,4
0,88,89,0
0,86,99,6
0,84,92,5
0,69,59,5
0,83,91,1
0,81,83,5
0,79,78,6
0,77,82,6
0,69,49,1
0,76,85,4
0,74,77,5
0,72,77,5
0,73,113,2
0,73,113,0
0,36,112,0
0,42,54,0
0,69,38,0
0,33,114,0
0,57,67,0
0,52,59,0
0,57,70,0
0,61,68,0
0,52,73,0
0,73,100,1
0,69,74,19
0,61,62,0
0,64,73,0
0,42,25,1
0,69,41,0
0,69,73,2
0,61,64,0
0,57,63,0
0,61,60,0
0,69,62,0
0,61,55,0
0,46,45,1
0,69,48,0
0,54,44,0
0,64,74,0
0,57,58,1
0,61,62,0
0,69,49,21
0,57,62,0
0,36,88,1
0,54,28,0
0,33,100,0
0,52,53,0
0,69,41,2
0,40,107,1
0,42,48,0
0,33,103,0
0,61,68,0
0,69,73,0
0,61,59,0
0,69,67,0
0,64,75,0
0,57,60,0
0,61,55,0
0,69,47,2
0,52,60,0
0,57,54,1
0,54,56,1
0,36,90,1
0,46,42,0
0,69,62,0
0,33,97,0
0,61,62,0
0,69,74,0
0,61,63,0
0,57,69,0
0,64,81,1
0,57,51,3
0,69,48,1
0,54,32,0
0,69,49,0
0,69,80,1
0,61,69,0
0,64,72,0
0,36,102,4
0,69,36,0
0,52,59,0
0,42,54,1
0,57,61,0
0,57,62,2
0,61,60,0
0,69,48,2
0,61,58,0
0,69,72,0
0,64,76,1
0,57,58,1
0,61,61,1
0,54,53,1
0,40,89,0
0,64,61,0
0,46,41,1
0,69,62,0
0,42,70,3
0,69,52,1
0,54,47,0
0,57,67,1
0,52,63,0
0,71,101,0
0,71,101,0
0,45,87,0
0,57,62,0
0,61,62,0
0,40,107,1
0,42,53,0
0,69,34,0
0,64,69,0
0,71,79,0
0,69,68,1
0,61,58,0
0,69,43,1
0,46,49,4
0,69,63,0
0,54,78,0
0,57,53,0
0,69,59,12
0,54,31,1
0,36,111,3
0,69,36,0
0,57,64,0
0,54,58,0
0,74,95,0
0,42,75,0
0,33,100,0
0,54,69,0
0,62,69,0
0,74,124,0
0,74,124,0
0,66,77,1
0,62,72,1
0,69,62,0
0,42,41,1
0,69,44,0
0,69,67,0
0,66,70,0
0,57,68,0
0,62,69,0
0,62,70,1
0,69,64,0
0,66,81,1
0,57,59,0
0,46,45,1
0,69,71,0
0,54,70,0
0,69,44,2
0,57,60,0
0,54,54,0
0,36,101,1
0,33,86,0
0,54,33,1
0,66,71,2
0,57,62,0
0,40,104,1
0,66,74,0
0,69,74,0
0,62,66,0
0,69,62,0
0,62,58,0
0,42,43,1
0,69,40,0
0,33,91,0
0,57,63,2
0,54,47,0
0,69,42,1
0,46,43,7
0,66,71,0
0,62,76,0
0,57,63,0
0,36,102,1
0,69,66,0
0,54,70,0
0,33,93,0
0,62,63,0
0,69,63,0
0,66,53,6
0,69,45,1
0,54,45,0
0,69,59,0
0,62,63,0
0,69,75,1
0,66,81,0
0,36,88,1
0,42,57,0
0,54,54,0
0,69,36,1
0,57,61,0
0,69,63,2
0,66,68,1
0,62,67,0
0,57,60,0
0,40,107,1
0,69,41,0
0,33,78,0
0,62,74,0
0,54,68,1
0,28,73,0
0,62,60,0
0,57,60,0
0,69,71,1
0,69,52,3
0,29,84,0
0,54,40,1
0,57,58,1
0,54,61,0
0,73,127,0
0,73,127,0
0,40,102,0
0,66,74,0
0,69,68,0
0,73,98,0
0,42,56,1
0,30,93,0
0,62,67,0
0,57,64,0
0,62,76,0
0,69,44,0
0,71,110,0
0,71,110,0
0,54,61,0
0,71,83,1
0,46,47,3
0,69,69,0
0,54,68,0
0,33,84,0
0,69,63,1
0,66,72,0
0,62,64,0
0,57,61,0
0,62,65,0
0,69,49,8
0,69,94,0
0,69,94,0
0,54,33,0
0,62,65,0
0,57,61,0
0,69,65,0
0,33,97,0
0,71,120,0
0,71,120,0
0,36,112,0
0,42,73,0
0,69,35,0
0,57,59,0
0,52,58,0
0,57,72,0
0,61,72,0
0,64,72,0
0,71,98,1
0,42,41,1
0,69,43,0
0,61,64,0
0,69,73,0
0,69,65,0
0,64,76,0
0,61,58,0
0,61,59,0
0,57,55,0
0,54,68,1
0,46,40,1
0,69,74,0
0,57,59,0
0,64,81,1
0,36,98,22
0,69,39,0
0,54,34,0
0,33,91,0
0,57,63,0
0,52,61,0
0,73,118,0
0,73,118,0
0,73,83,0
0,40,104,1
0,42,59,0
0,69,81,0
0,61,73,0
0,33,96,1
0,69,74,0
0,64,74,0
0,61,60,0
0,57,66,0
0,61,66,0
0,69,42,1
0,57,63,1
0,52,53,1
0,69,36,1
0,36,104,1
0,46,49,0
0,54,78,0
0,57,63,0
0,61,63,0
0,33,95,1
0,64,74,0
0,69,73,0
0,61,59,0
0,69,74,1
0,61,70,6
0,57,57,0
0,61,49,0
0,69,42,1
0,54,29,0
0,69,79,0
0,64,70,0
0,42,43,23
0,36,110,1
0,69,44,0
0,57,59,0
0,52,11,3
0,61,76,6
0,69,76,0
0,57,63,0
0,64,76,1
0,61,61,0
0,69,41,1
0,61,59,8
0,57,63,0
0,46,55,1
0,54,63,0
0,40,82,0
0,69,63,0
0,64,76,0
0,69,66,1
0,69,39,2
0,54,35,1
0,42,70,0
0,85,87,0
0,88,87,0
0,93,87,0
0,57,62,0
0,52,58,0
0,69,65,2
0,57,63,0
0,61,60,0
0,40,111,1
0,42,54,0
0,69,46,0
0,45,87,0
0,85,96,0
0,88,96,0
0,93,96,0
0,64,77,0
0,61,60,0
0,69,42,1
0,52,56,0
0,54,63,11
0,57,67,0
0,46,48,1
0,69,65,0
0,61,60,0
0,61,63,0
0,64,70,1
0,69,74,0
0,69,38,3
0,54,37,1
0,88,94,0
0,57,59,0
0,83,94,1
0,92,94,0
0,61,65,0
0,42,57,1
0,69,45,0
0,36,110,1
0,33,105,0
0,54,65,0
0,62,65,0
0,92,93,1
0,83,93,0
0,88,93,0
0,57,63,0
0,54,61,0
0,42,41,1
0,69,40,1
0,66,63,0
0,62,63,1
0,69,61,0
0,62,83,0
0,57,64,0
0,54,68,2
0,46,45,1
0,69,67,0
0,62,60,0
0,66,71,0
0,57,61,1
0,36,102,5
0,69,39,0
0,54,33,0
0,33,85,0
0,57,61,0
0,90,91,1
0,81,91,0
0,86,91,0
0,54,57,0
0,33,85,5
0,40,98,1
0,42,56,0
0,69,51,0
0,81,98,0
0,90,98,0
0,86,98,0
0,69,66,0
0,62,63,0
0,66,83,0
0,62,77,0
0,57,63,0
0,57,72,1
0,69,48,1
0,66,75,5
0,69,66,0
0,62,76,0
0,54,68,1
0,33,96,0
0,36,98,1
0,46,52,0
0,69,62,0
0,57,63,0
0,62,76,0
0,69,63,7
0,62,64,0
0,66,75,0
0,69,47,1
0,54,37,0
0,57,64,0
0,62,61,1
0,36,98,1
0,42,65,0
0,69,48,0
0,57,59,0
0,54,38,2
0,33,74,1
0,69,73,0
0,62,70,0
0,66,81,0
0,40,104,1
0,69,48,0
0,62,75,0
0,57,67,0
0,28,70,1
0,62,63,0
0,69,64,1
0,54,68,0
0,69,63,0
0,66,81,0
0,57,59,0
0,54,59,0
0,69,45,1
0,54,38,0
0,29,74,0
0,57,64,0
0,69,71,3
0,66,77,0
0,62,69,0
0,40,107,1
0,42,67,0
0,69,55,0
0,30,79,0
0,57,67,0
0,62,71,0
0,69,40,2
0,54,60,0
0,54,63,1
0,66,77,0
0,69,75,0
0,57,65,0
0,62,77,0
0,46,47,1
0,69,65,0
0,28,76,0
0,62,76,0
0,57,58,8
0,69,42,1
0,54,33,0
0,30,75,0
0,73,116,4
0,73,116,0
0,33,86,0
0,52,61,0
0,36,111,1
0,42,61,0
0,69,37,0
0,57,67,0
0,52,76,0
0,61,76,0
0,73,90,0
0,57,67,1
0,61,61,1
0,42,40,1
0,69,40,0
0,69,73,0
0,64,77,0
0,69,72,0
0,61,59,0
0,64,79,1
0,61,66,0
0,57,66,2
0,54,65,1
0,69,59,0
0,61,48,0
0,61,61,0
0,46,45,1
0,69,64,0
0,64,75,0
0,54,40,12
0,52,60,0
0,36,102,1
0,69,39,0
0,33,82,0
0,57,65,0
0,69,82,3
0,61,67,0
0,40,102,1
0,42,56,0
0,69,53,0
0,33,97,0
0,64,85,0
0,64,79,0
0,69,75,0
0,61,60,0
0,57,75,0
0,61,69,0
0,52,57,0
0,69,40,1
0,57,59,0
0,61,60,6
0,36,101,1
0,46,43,0
0,69,63,0
0,54,68,0
0,33,108,0
0,69,74,0
0,64,79,0
0,57,68,0
0,61,62,0
0,69,39,8
0,54,41,0
0,61,54,0
0,64,76,0
0,57,62,0
0,61,56,0
0,69,80,1
0,61,72,0
0,64,89,0
0,36,107,4
0,42,65,0
0,69,39,0
0,57,58,0
0,52,58,1
0,69,75,3
0,61,59,0
0,64,81,0
0,57,74,0
0,61,65,0
0,69,46,1
0,40,89,2
0,69,69,0
0,57,61,0
0,61,60,0
0,46,42,1
0,69,64,0
0,54,57,0
0,64,71,0
0,54,33,2
0,42,73,0
0,69,44,1
0,57,59,0
0,52,58,0
0,61,60,0
0,64,75,0
0,69,75,0
0,57,65,0
0,61,61,0
0,71,118,0
0,71,118,0
0,40,110,0
0,42,54,0
0,69,46,0
0,45,84,0
0,71,85,0
0,69,38,1
0,52,58,0
0,54,56,8
0,64,68,0
0,69,77,0
0,61,65,0
0,57,72,0
0,61,65,0
0,46,47,1
0,69,65,0
0,54,46,12
0,57,65,0
0,69,37,1
0,61,61,0
0,36,111,1
0,42,48,0
0,33,108,0
0,57,61,0
0,74,95,0
0,74,118,0
0,74,118,0
0,69,39,0
0,54,58,0
0,57,76,0
0,62,76,0
0,54,76,0
0,42,52,1
0,66,67,0
0,69,39,1
0,69,80,0
0,62,83,0
0,69,60,0
0,62,69,0
0,62,76,0
0,57,65,0
0,66,75,1
0,46,40,2
0,69,67,0
0,54,57,0
0,62,66,0
0,66,67,0
0,69,62,0
0,57,65,1
0,62,69,0
0,69,42,1
0,54,37,0
0,33,85,0
0,54,60,0
0,36,90,1
0,57,61,0
0,40,94,2
0,33,85,0
0,69,75,0
0,62,83,0
0,66,74,0
0,69,74,0
0,42,75,1
0,69,49,0
0,62,74,0
0,66,77,0
0,62,75,0
0,57,64,0
0,69,47,1
0,57,63,0
0,54,58,1
0,36,110,5
0,54,70,0
0,33,100,0
0,69,66,0
0,62,69,0
0,66,72,0
0,57,62,0
0,46,41,1
0,69,69,0
0,62,75,0
0,54,38,2
0,69,64,0
0,62,68,0
0,62,62,0
0,69,49,1
0,66,76,0
0,57,63,0
0,69,85,1
0,62,93,0
0,66,78,0
0,36,110,1
0,42,66,0
0,69,50,0
0,57,59,0
0,54,60,0
0,33,80,2
0,69,71,0
0,62,70,0
0,66,77,0
0,62,74,0
0,57,71,0
0,69,46,2
0,28,75,0
0,54,65,1
0,62,68,0
0,66,73,0
0,69,65,0
0,57,64,0
0,62,75,0
0,46,45,1
0,69,71,0
0,57,60,0
0,54,44,1
0,29,76,0
0,69,40,1
0,54,52,0
0,62,70,3
0,66,76,0
0,30,91,1
0,69,71,0
0,73,108,0
0,73,108,0
0,40,104,0
0,42,55,0
0,69,52,0
0,57,71,0
0,62,71,0
0,73,81,0
0,71,97,0
0,71,97,0
0,54,65,0
0,69,43,1
0,71,75,0
0,54,63,8
0,69,74,0
0,62,77,0
0,66,67,0
0,57,63,0
0,46,56,1
0,69,64,0
0,28,71,0
0,62,64,0
0,57,60,0
0,69,98,0
0,69,98,0
0,69,43,0
0,54,42,0
0,30,86,0
0,62,67,0
0,69,77,2
0,36,112,2
0,42,41,0
0,33,97,0
0,57,79,0
0,56,49,0
0,64,70,0
0,59,70,0
0,56,70,0
0,71,97,0
0,71,97,0
0,69,47,0
0,71,87,0
0,68,69,5
0,59,79,0
0,59,81,0
0,59,71,0
0,64,64,0
0,42,40,1
0,64,89,0
0,68,58,0
0,64,71,0
0,69,45,1
0,54,70,3
0,59,61,0
0,64,64,0
0,46,50,1
0,69,66,0
0,64,85,0
0,59,53,0
0,33,87,1
0,73,106,0
0,73,106,0
0,36,102,0
0,69,43,0
0,54,47,0
0,56,58,0
0,57,64,1
0,73,71,0
0,68,73,7
0,64,89,0
0,59,79,0
0,40,101,1
0,33,95,0
0,59,72,0
0,64,70,0
0,42,67,1
0,69,50,0
0,68,65,0
0,64,79,0
0,59,71,0
0,56,56,0
0,57,68,1
0,69,46,1
0,59,75,1
0,64,73,0
0,36,107,1
0,46,47,0
0,54,65,0
0,64,79,0
0,59,60,0
0,68,62,0
0,69,62,1
0,33,100,0
0,57,70,0
0,61,70,0
0,57,72,1
0,61,75,0
0,69,47,1
0,54,39,0
0,69,75,0
0,69,74,0
0,61,81,1
0,42,63,5
0,36,112,1
0,69,47,0
0,69,43,12
0,33,105,0
0,46,52,1
0,54,57,0
0,69,71,1
0,33,91,0
0,57,67,0
0,57,53,0
0,61,52,0
0,64,62,0
0,69,39,12
0,54,42,0
0,42,63,1
0,71,107,0
0,71,107,0
0,68,76,0
0,68,73,0
0,64,85,0
0,59,79,0
0,40,104,1
0,69,52,0
0,32,100,0
0,64,92,0
0,56,74,0
0,64,79,0
0,56,71,0
0,59,71,0
0,71,90,0
0,59,75,1
0,69,45,8
0,54,39,4
0,46,52,1
0,69,67,0
0,57,65,0
0,54,41,3
0,69,41,1
0,36,111,0
0,42,57,0
0,30,110,0
0,69,92,0
0,69,92,0
0,69,52,0
0,62,89,0
0,66,73,0
0,66,87,0
0,54,61,0
0,62,74,0
0,57,70,0
0,54,73,0
0,62,73,0
0,57,73,0
0,69,76,0
0,62,79,1
0,57,65,0
0,42,40,11
0,69,43,1
0,54,78,23
0,46,49,1
0,69,69,0
0,30,110,1
0,36,104,1
0,69,49,0
0,54,41,0
0,54,59,5
0,30,95,2
0,40,98,1
0,42,66,0
0,69,50,0
0,69,43,15
0,54,70,21
0,64,73,0
0,52,62,0
0,61,72,0
0,57,70,0
0,36,104,1
0,46,45,0
0,69,63,0
0,28,89,0
0,61,74,0
0,61,72,0
0,52,72,0
0,64,91,1
0,61,78,0
0,69,43,1
0,54,37,0
0,36,107,2
0,42,59,0
0,69,49,0
0,28,87,4
0,40,104,1
0,69,41,0
0,54,70,8
0,28,96,0
0,69,67,1
0,69,44,24
0,54,41,0
0,40,107,23
0,42,67,1
0,69,59,0
0,35,103,0
0,69,47,5
0,54,65,3
0,40,86,0
0,46,45,1
0,69,68,0
0,69,41,3
0,54,49,0
0,64,66,4
0,56,71,1
0,73,106,0
0,68,73,0
0,73,106,0
0,36,107,0
0,42,59,0
0,69,38,0
0,28,124,0
0,64,75,0
0,56,75,0
0,59,75,0
0,56,79,0
0,59,85,0
0,68,76,0
0,80,76,0
0,64,69,0
0,59,81,0
0,56,71,0
0,69,41,22
0,42,41,2
0,69,48,22
0,54,44,0
0,46,30,2
0,69,49,3
0,36,107,1
0,54,28,0
0,28,85,0
0,56,73,0
0,64,82,0
0,59,93,0
0,56,64,0
0,59,69,2
0,64,71,0
0,56,48,1
0,71,107,0
0,40,98,0
0,69,41,0
0,28,96,0
0,71,107,0
0,68,74,0
0,59,87,0
0,64,72,0
0,42,44,1
0,69,47,9
0,36,101,0
0,54,56,0
0,56,73,0
0,64,76,0
0,71,107,0
0,68,72,0
0,71,107,0
0,46,44,0
0,69,62,0
0,28,108,0
0,59,86,0
0,56,68,0
0,64,74,0
0,56,68,0
0,59,87,0
0,69,48,24
0,54,32,0
0,36,110,10
0,69,36,0
0,42,41,1
0,69,48,4
0,59,75,1
0,64,74,0
0,56,60,0
0,76,75,1
0,64,75,0
0,54,53,1
0,40,93,0
0,64,56,0
0,59,95,0
0,59,95,0
0,56,71,0
0,46,43,1
0,69,62,0
0,78,67,0
0,66,67,0
0,35,73,2
0,69,52,1
0,54,47,0
0,80,70,0
0,68,70,0
