track,note,velocity,time
3,50,85,3449
3,43,82,0
3,59,109,2
3,55,104,0
3,62,104,0
3,43,0,25
3,50,0,0
3,55,0,10
3,59,0,1
3,62,0,2
3,43,68,7
3,52,95,0
3,64,91,1
3,55,91,2
3,60,91,0
3,52,0,25
3,43,0,2
3,55,0,4
3,64,0,3
3,60,0,2
3,50,95,10
3,43,73,0
3,55,95,2
3,59,98,0
3,62,104,0
3,43,0,21
3,50,0,7
3,59,0,2
3,55,0,1
3,62,0,4
3,50,73,10
3,43,85,1
3,59,80,1
3,55,88,1
3,62,85,0
3,43,0,21
3,62,0,1
3,50,0,7
3,59,0,0
3,55,0,0
3,50,76,17
3,43,76,0
3,62,88,2
3,59,88,0
3,55,98,0
3,43,0,22
3,50,0,2
3,62,0,1
3,55,0,1
3,59,0,1
3,62,95,20
3,55,85,0
3,59,104,1
3,50,88,0
3,43,85,0
3,43,0,17
3,50,0,8
3,59,0,1
3,55,0,4
3,62,0,0
3,62,91,16
3,50,71,0
3,59,82,1
3,55,88,0
3,43,78,1
3,55,0,18
3,59,0,3
3,62,0,1
3,50,0,1
3,43,0,3
3,55,104,20
3,64,109,0
3,60,114,0
3,43,66,0
3,52,104,0
3,52,0,22
3,43,0,5
3,55,0,5
3,64,0,0
3,60,0,0
3,43,80,16
3,50,91,0
3,62,95,1
3,59,98,0
3,55,85,0
3,43,0,22
3,50,0,1
3,59,0,2
3,62,0,2
3,55,0,0
3,55,82,20
3,60,98,0
3,64,104,0
3,52,98,0
3,43,82,0
3,52,0,25
3,43,0,1
3,55,0,8
3,64,0,1
3,60,0,1
3,43,67,12
3,50,88,0
3,59,98,2
3,55,85,0
3,62,98,0
3,43,0,21
3,50,0,1
3,55,0,3
3,59,0,1
3,62,0,1
3,50,71,18
3,55,80,1
3,62,88,0
3,43,80,0
3,59,91,2
3,43,0,17
3,62,0,4
3,59,0,2
3,50,0,0
3,55,0,2
3,55,74,21
3,62,82,0
3,59,85,0
3,50,71,0
3,43,76,0
3,43,0,22
3,59,0,1
3,55,0,1
3,62,0,1
3,50,0,2
3,55,73,21
3,62,73,0
3,59,82,0
3,50,66,0
3,43,67,0
3,43,0,19
3,50,0,9
3,59,0,1
3,55,0,1
3,62,0,1
3,50,71,17
3,55,80,2
3,59,82,0
3,62,78,0
3,43,76,0
3,43,0,20
3,50,0,3
3,59,0,1
3,55,0,1
3,62,0,0
3,62,74,21
3,55,76,0
3,59,82,0
3,50,67,0
3,43,80,0
3,43,0,20
3,50,0,5
3,55,0,1
3,62,0,1
3,59,0,1
3,55,91,20
3,59,98,0
3,50,82,0
3,43,91,0
3,62,104,1
3,43,0,23
3,50,0,3
3,55,0,0
3,59,0,1
3,62,0,0
3,43,78,20
3,52,98,0
3,55,98,2
3,64,98,0
3,60,98,0
3,52,0,23
3,43,0,2
3,55,0,4
3,64,0,1
3,60,0,5
3,50,88,11
3,43,78,0
3,55,85,2
3,62,95,0
3,59,104,0
3,43,0,18
3,50,0,2
3,59,0,3
3,55,0,5
3,62,0,0
3,50,59,17
3,43,85,0
3,55,76,2
3,62,88,1
3,59,80,0
3,59,0,19
3,55,0,0
3,62,0,1
3,43,0,0
3,50,0,2
3,50,78,23
3,43,68,0
3,59,98,3
3,62,85,0
3,55,91,0
3,55,0,21
3,43,0,1
3,50,0,1
3,62,0,0
3,59,0,2
3,62,88,21
3,55,95,0
3,59,98,0
3,50,62,0
3,43,66,0
3,43,0,22
3,50,0,3
3,59,0,3
3,55,0,0
3,62,0,1
3,59,91,17
3,62,85,0
3,55,82,0
3,50,66,0
3,43,67,0
3,55,0,22
3,59,0,5
3,43,0,0
3,62,0,0
3,50,0,2
3,55,98,19
3,60,98,0
3,64,104,0
3,43,78,0
3,52,98,0
3,52,0,24
3,43,0,2
3,55,0,5
3,64,0,2
3,60,0,0
3,50,91,15
3,55,80,1
3,59,91,1
3,62,98,0
3,43,85,0
3,43,0,23
3,50,0,1
3,55,0,0
3,59,0,1
3,62,0,2
3,60,95,19
3,55,88,0
3,64,98,0
3,52,98,0
3,43,76,0
3,52,0,26
3,43,0,3
3,64,0,6
3,55,0,1
3,60,0,0
3,59,95,12
3,43,64,0
3,50,95,0
3,62,95,1
3,55,88,0
3,43,0,21
3,50,0,4
3,59,0,3
3,62,0,0
3,55,0,0
3,62,88,19
3,50,66,0
3,43,71,0
3,59,80,1
3,55,88,0
3,62,0,21
3,59,0,1
3,55,0,0
3,43,0,2
3,50,0,1
3,55,76,22
3,43,73,0
3,50,74,0
3,59,88,2
3,62,85,0
3,62,0,22
3,59,0,2
3,50,0,1
3,43,0,0
3,55,0,1
3,62,73,20
3,55,80,0
3,50,66,0
3,59,82,2
3,43,70,0
3,43,0,22
3,55,0,0
3,62,0,1
3,59,0,2
3,50,0,2
3,59,82,1
3,62,82,0
3,55,82,0
3,50,74,0
3,43,80,1
3,43,0,20
3,50,0,3
3,59,0,1
3,62,0,0
3,55,0,0
3,62,73,21
3,59,78,0
3,55,80,0
3,50,63,2
3,43,74,0
3,55,0,17
3,62,0,2
3,59,0,0
3,43,0,1
3,50,0,2
3,55,78,22
3,62,85,0
3,59,85,0
3,50,67,0
3,43,80,2
3,59,0,20
3,55,0,1
3,43,0,2
3,62,0,0
3,50,0,3
3,62,73,0
3,55,80,0
3,59,88,0
3,52,109,0
3,43,98,1
3,55,0,23
3,59,0,2
3,52,0,2
3,43,0,1
3,62,0,0
3,62,71,19
3,55,82,0
3,59,91,0
3,43,68,0
3,50,91,2
3,43,0,21
3,55,0,1
3,59,0,1
3,62,0,1
3,50,0,0
3,55,80,22
3,62,78,0
3,59,82,0
3,43,91,0
3,50,80,2
3,50,0,22
3,59,0,1
3,55,0,1
3,62,0,0
3,43,0,3
3,55,82,19
3,62,80,0
3,59,91,0
3,43,80,2
3,50,91,0
3,50,0,17
3,43,0,3
3,59,0,4
3,55,0,0
3,62,0,3
3,62,82,19
3,55,85,0
3,59,95,0
3,43,91,0
3,50,80,0
3,50,0,24
3,55,0,1
3,43,0,0
3,59,0,6
3,62,0,4
3,43,82,1
3,50,74,0
3,55,98,2
3,62,98,0
3,59,104,0
3,50,0,20
3,43,0,3
3,62,0,2
3,59,0,2
3,55,0,3
3,62,88,16
3,55,95,0
3,59,95,0
3,43,80,0
3,50,71,0
3,43,0,15
3,50,0,1
3,62,0,1
3,59,0,3
3,55,0,0
3,55,88,22
3,59,88,0
3,62,91,0
3,43,76,1
3,50,91,1
3,43,0,18
3,62,0,1
3,59,0,1
3,50,0,1
3,55,0,4
3,55,80,21
3,62,95,0
3,59,98,0
3,50,73,0
3,43,82,0
3,43,0,11
3,50,0,2
3,59,0,1
3,62,0,4
3,55,0,0
3,52,104,23
3,59,109,0
3,40,95,0
3,55,95,1
3,55,0,12
3,59,0,8
3,40,0,3
3,52,0,6
3,64,124,9
3,59,124,0
3,55,124,0
3,40,91,0
3,52,88,0
3,55,0,21
3,40,0,4
3,52,0,1
3,59,0,0
3,64,0,4
3,64,114,19
3,55,109,0
3,59,120,0
3,52,91,0
3,40,98,0
3,59,0,23
3,40,0,1
3,52,0,1
3,55,0,0
3,64,0,1
3,64,109,21
3,55,98,0
3,59,109,0
3,52,88,1
3,40,88,0
3,52,0,22
3,59,0,2
3,40,0,2
3,55,0,0
3,64,0,2
3,62,95,19
3,55,80,0
3,59,88,2
3,43,88,0
3,50,85,0
3,50,0,17
3,43,0,0
3,62,0,3
3,55,0,0
3,59,0,1
3,62,85,22
3,55,80,0
3,50,76,0
3,43,88,0
3,59,88,1
3,43,0,13
3,50,0,3
3,55,0,1
3,59,0,2
3,62,0,2
3,62,91,21
3,59,109,0
3,55,88,0
3,43,85,0
3,50,78,0
3,50,0,20
3,55,0,0
3,43,0,0
3,59,0,0
3,62,0,3
3,50,78,24
3,62,80,1
3,59,114,0
3,55,85,0
3,43,82,0
3,55,0,4
3,59,0,5
3,50,0,6
3,62,0,3
3,43,0,2
3,67,114,19
3,60,98,0
3,64,104,0
3,36,104,1
3,60,0,23
3,64,0,3
3,67,0,2
3,36,0,19
3,67,91,0
3,60,88,0
3,64,82,0
3,48,104,0
3,60,0,22
3,67,0,1
3,64,0,0
3,48,0,25
3,36,98,0
3,60,98,1
3,67,109,0
3,64,91,0
3,64,0,18
3,67,0,0
3,60,0,0
3,60,91,0
3,67,91,0
3,64,91,0
3,48,95,0
3,36,0,2
3,60,0,22
3,64,0,1
3,67,0,1
3,48,0,20
3,59,109,2
3,67,114,0
3,62,109,0
3,35,109,0
3,59,0,22
3,62,0,1
3,67,0,2
3,67,91,21
3,59,104,0
3,62,98,0
3,47,85,0
3,35,0,3
3,59,0,20
3,67,0,4
3,62,0,0
3,67,95,2
3,62,98,0
3,59,109,0
3,35,109,0
3,47,0,1
3,67,0,21
3,59,0,2
3,62,0,2
3,62,91,3
3,67,91,0
3,59,95,0
3,47,85,0
3,35,0,4
3,59,0,18
3,62,0,2
3,67,0,0
3,47,0,1
3,67,98,2
3,60,95,0
3,57,104,0
3,64,98,0
3,33,109,0
3,57,0,24
3,60,0,0
3,64,0,2
3,67,0,1
3,67,88,21
3,57,85,0
3,60,82,0
3,64,85,0
3,45,88,0
3,33,0,2
3,57,0,20
3,60,0,1
3,67,0,1
3,64,0,1
3,33,104,0
3,57,98,2
3,67,95,0
3,60,91,0
3,64,82,0
3,45,0,4
3,60,0,14
3,67,0,1
3,57,0,1
3,64,0,2
3,64,78,3
3,57,88,0
3,67,88,0
3,60,88,0
3,45,85,0
3,33,0,3
3,57,0,16
3,60,0,1
3,67,0,7
3,64,0,1
3,45,0,13
3,67,95,3
3,59,98,0
3,62,104,0
3,31,104,0
3,59,0,24
3,67,0,1
3,62,0,0
3,43,78,22
3,67,91,1
3,62,98,0
3,59,95,0
3,31,0,3
3,59,0,16
3,62,0,4
3,67,0,2
3,31,95,21
3,67,91,1
3,59,104,1
3,62,104,0
3,43,0,4
3,59,0,17
3,62,0,1
3,67,0,0
3,31,0,22
3,67,85,1
3,59,95,0
3,62,88,0
3,43,88,0
3,59,0,18
3,62,0,3
3,67,0,4
3,43,0,5
3,57,104,18
3,66,104,0
3,62,104,0
3,38,109,0
3,57,0,25
3,62,0,2
3,66,0,1
3,38,0,20
3,66,88,0
3,62,85,0
3,57,85,0
3,50,98,0
3,57,0,19
3,66,0,4
3,62,0,1
3,66,91,24
3,62,85,0
3,57,91,0
3,38,104,0
3,50,0,1
3,57,0,14
3,66,0,9
3,62,0,0
3,67,114,24
3,62,104,0
3,59,114,0
3,50,88,0
3,38,0,3
3,59,0,18
3,62,0,12
3,67,0,3
3,62,80,12
3,57,95,0
3,66,88,0
3,38,104,0
3,50,0,2
3,57,0,21
3,66,0,4
3,62,0,3
3,66,82,18
3,62,85,0
3,57,91,0
3,50,91,0
3,38,0,4
3,57,0,15
3,66,0,5
3,62,0,2
3,66,88,22
3,62,91,0
3,57,95,0
3,38,98,0
3,50,0,1
3,57,0,17
3,66,0,6
3,62,0,1
3,66,88,23
3,57,98,0
3,62,88,0
3,50,95,0
3,38,0,4
3,57,0,16
3,66,0,7
3,62,0,0
3,66,91,21
3,57,85,0
3,62,82,0
3,38,104,0
3,50,0,5
3,57,0,14
3,62,0,5
3,66,0,2
3,59,114,0
3,67,114,0
3,62,104,0
3,50,95,0
3,38,0,3
3,59,0,22
3,62,0,5
3,67,0,3
3,62,74,6
3,66,95,0
3,57,104,0
3,38,95,0
3,50,0,1
3,57,0,20
3,66,0,8
3,62,0,1
3,62,91,9
3,67,109,0
3,59,124,0
3,50,95,0
3,38,0,3
3,59,0,25
3,62,0,10
3,67,0,5
3,66,88,4
3,62,91,1
3,38,95,0
3,57,98,1
3,50,0,4
3,57,0,17
3,66,0,2
3,62,0,0
3,66,82,2
3,57,95,0
3,50,91,0
3,38,0,1
3,62,78,0
3,57,0,21
3,66,0,2
3,62,0,0
3,66,91,4
3,38,98,0
3,62,82,1
3,57,95,0
3,50,0,2
3,57,0,17
3,66,0,2
3,62,0,3
3,57,78,2
3,62,80,0
3,66,91,0
3,50,98,0
3,38,0,2
3,66,0,19
3,62,0,2
3,57,0,2
3,50,0,12
3,62,82,11
3,59,98,0
3,55,88,2
3,50,74,0
3,43,95,0
3,55,0,19
3,43,0,2
3,59,0,0
3,62,0,1
3,50,0,1
3,62,95,23
3,55,88,0
3,59,91,0
3,43,78,2
3,50,88,0
3,59,0,16
3,55,0,0
3,43,0,3
3,62,0,3
3,50,0,1
3,62,98,23
3,55,91,0
3,59,98,0
3,50,76,2
3,43,88,0
3,55,0,17
3,43,0,3
3,59,0,0
3,50,0,2
3,62,0,2
3,64,114,22
3,60,109,0
3,55,109,0
3,52,98,0
3,43,91,0
3,52,0,25
3,55,0,6
3,43,0,0
3,60,0,4
3,64,0,1
3,62,82,12
3,59,88,0
3,55,88,0
3,43,70,1
3,50,88,1
3,59,0,15
3,55,0,1
3,62,0,2
3,43,0,4
3,50,0,1
3,55,76,23
3,62,85,0
3,59,91,0
3,43,76,0
3,50,73,0
3,59,0,22
3,43,0,1
3,62,0,0
3,55,0,1
3,50,0,0
3,62,91,24
3,55,85,0
3,59,95,1
3,50,78,1
3,43,85,0
3,59,0,19
3,55,0,1
3,43,0,1
3,50,0,2
3,62,0,0
3,62,85,23
3,55,85,0
3,59,98,0
3,50,71,0
3,43,80,0
3,55,0,20
3,59,0,1
3,62,0,1
3,43,0,2
3,50,0,0
3,62,88,22
3,59,98,0
3,55,91,0
3,50,88,2
3,43,91,0
3,55,0,18
3,59,0,1
3,43,0,3
3,62,0,0
3,50,0,1
3,55,104,23
3,64,114,0
3,60,109,0
3,43,98,2
3,52,88,0
3,52,0,20
3,43,0,7
3,55,0,2
3,60,0,1
3,64,0,0
3,62,85,16
3,59,88,0
3,55,76,0
3,50,82,1
3,43,74,0
3,55,0,13
3,59,0,2
3,62,0,5
3,43,0,2
3,50,0,2
3,64,114,23
3,60,109,0
3,55,109,0
3,52,104,0
3,43,95,0
3,52,0,26
3,43,0,4
3,55,0,3
3,60,0,4
3,64,0,1
3,55,85,10
3,62,85,0
3,59,95,0
3,43,66,0
3,50,91,1
3,59,0,20
3,55,0,0
3,62,0,2
3,50,0,4
3,43,0,2
3,62,78,19
3,55,76,0
3,50,73,1
3,59,91,1
3,43,74,0
3,59,0,21
3,55,0,1
3,43,0,1
3,50,0,1
3,62,0,0
3,62,88,23
3,55,95,1
3,59,104,0
3,50,80,0
3,43,88,0
3,43,0,21
3,59,0,0
3,50,0,1
3,55,0,1
3,62,0,0
3,62,76,23
3,55,91,0
3,59,95,0
3,43,68,0
3,50,71,0
3,43,0,21
3,55,0,0
3,50,0,1
3,59,0,2
3,62,0,1
3,59,82,0
3,62,82,0
3,55,82,0
3,50,74,0
3,43,80,1
3,43,0,20
3,50,0,3
3,59,0,1
3,62,0,0
3,55,0,0
3,62,73,21
3,59,78,0
3,55,80,0
3,50,63,2
3,43,74,0
3,55,0,18
3,62,0,2
3,59,0,0
3,43,0,1
3,50,0,2
3,55,78,22
3,62,85,0
3,59,85,0
3,50,67,0
3,43,80,2
3,59,0,20
3,55,0,1
3,43,0,2
3,62,0,0
3,50,0,3
3,62,73,20
3,55,80,0
3,59,88,0
3,52,109,0
3,43,98,1
3,55,0,22
3,59,0,2
3,52,0,2
3,43,0,1
3,62,0,0
3,62,71,19
3,55,82,0
3,59,91,0
3,43,68,0
3,50,91,2
3,43,0,21
3,55,0,1
3,59,0,1
3,62,0,1
3,50,0,0
3,55,80,22
3,62,78,0
3,59,82,0
3,43,91,0
3,50,80,2
3,50,0,22
3,59,0,1
3,55,0,1
3,62,0,0
3,43,0,3
3,55,82,19
3,62,80,0
3,59,91,0
3,43,80,2
3,50,91,0
3,50,0,17
3,43,0,3
3,59,0,4
3,55,0,0
3,62,0,3
3,62,82,19
3,55,85,0
3,59,95,0
3,43,91,0
3,50,80,0
3,50,0,24
3,55,0,1
3,43,0,0
