track,note,velocity,time
1,67,95,1140
1,62,98,0
1,59,98,0
1,43,95,0
1,67,95,28
1,59,104,0
1,64,91,0
1,40,104,0
1,59,109,28
1,67,98,0
1,64,98,0
1,40,109,0
1,66,95,20
1,62,109,4
1,59,120,0
1,47,95,4
1,62,104,28
1,59,114,0
1,67,104,0
1,43,98,4
1,61,91,20
1,69,109,4
1,64,109,0
1,45,114,0
1,64,63,68
1,61,67,8
1,69,58,12
1,69,74,124
1,61,71,4
1,64,73,0
1,61,73,100
1,69,78,4
1,64,78,4
1,69,85,112
1,61,80,0
1,64,78,4
1,61,78,96
1,69,85,8
1,64,88,4
1,69,85,108
1,61,88,4
1,64,95,4
1,61,80,88
1,69,82,0
1,64,91,12
1,61,82,88
1,69,98,4
1,64,95,0
1,64,95,84
1,61,104,0
1,69,109,0
1,62,98,12616
1,54,91,0
1,59,104,0
1,47,95,0
1,62,82,48
1,59,98,4
1,54,91,0
1,59,91,76
1,62,95,0
1,54,104,4
1,62,98,252
1,54,91,0
1,59,104,0
1,59,76,76
1,54,82,0
1,62,88,0
1,62,91,96
1,54,88,0
1,59,98,0
1,61,95,88
1,54,104,0
1,59,98,0
1,59,109,204
1,54,95,0
1,61,95,0
1,54,71,28
1,62,88,0
1,59,109,76
1,54,104,0
1,62,104,0
1,54,80,36
1,61,88,0
1,59,85,4
1,54,104,60
1,62,104,0
1,59,109,0
1,62,98,16
1,52,88,0
1,57,104,0
1,45,104,0
1,57,80,64
1,62,80,0
1,52,91,0
1,62,95,96
1,57,109,0
1,52,88,0
1,57,109,92
1,61,104,0
1,52,104,0
1,59,104,112
1,52,95,0
1,57,104,0
1,61,95,84
1,52,104,0
1,57,114,0
1,52,95,12
1,59,104,0
1,45,95,0
1,57,114,0
1,57,85,44
1,59,76,4
1,52,85,0
1,52,104,96
1,59,109,0
1,57,114,0
1,61,104,68
1,52,109,4
1,57,114,0
1,52,95,144
1,59,98,4
1,57,104,0
1,61,104,96
1,57,109,0
1,52,109,0
1,50,91,40
1,55,91,0
1,59,98,0
1,43,91,0
1,55,78,52
1,50,80,4
1,59,104,0
1,55,91,100
1,59,104,0
1,50,95,4
1,59,109,120
1,50,95,4
1,55,98,4
1,43,91,4
1,61,88,12
1,61,109,112
1,50,98,0
1,55,109,4
1,59,124,64
1,55,98,4
1,50,104,0
1,43,82,4
1,59,114,280
1,50,104,4
1,55,104,0
1,43,95,4
1,61,91,176
1,55,109,76
1,59,124,0
1,62,124,0
1,43,98,4
1,54,104,4
1,59,114,4
1,47,104,0
1,61,82,20
1,59,109,104
1,61,91,4
1,54,95,0
1,54,91,220
1,59,109,4
1,61,91,172
1,61,88,96
1,54,91,4
1,59,120,0
1,59,109,264
1,54,95,4
1,47,98,4
1,55,91,632
1,62,98,4
1,59,109,0
1,43,95,4
1,62,88,48
1,59,95,0
1,43,71,0
1,55,104,4
1,61,82,4
1,64,95,0
1,57,104,0
1,45,104,0
1,57,95,40
1,64,78,0
1,45,98,4
1,61,88,4
1,64,71,52
1,57,91,4
1,61,80,0
1,64,73,60
1,61,78,0
1,57,98,0
1,61,73,52
1,64,74,0
1,57,91,4
1,57,82,56
1,61,74,0
1,64,91,0
1,61,73,52
1,64,74,0
1,57,95,0
1,64,80,56
1,57,98,0
1,61,73,0
1,64,71,60
1,61,71,0
1,57,88,0
1,57,91,64
1,61,73,0
1,64,78,0
1,64,74,60
1,61,71,0
1,57,91,0
1,57,91,68
1,61,71,0
1,64,76,0
1,61,66,60
1,64,67,0
1,57,80,0
1,57,88,68
1,61,74,0
1,64,76,0
1,45,80,8
1,61,64,60
1,57,85,0
1,64,76,0
1,57,78,80
1,64,76,0
1,61,73,0
1,62,98,72
1,66,104,0
1,57,109,0
1,66,68,44
1,57,88,0
1,62,98,0
1,50,95,0
1,66,73,72
1,62,71,0
1,57,85,0
1,62,78,52
1,57,95,0
1,66,91,0
1,57,82,72
1,62,70,0
1,66,74,0
1,62,91,236
1,55,95,0
1,59,98,0
1,43,95,0
1,62,85,56
1,55,85,4
1,59,88,0
1,43,104,0
1,61,88,32
1,45,104,0
1,57,88,0
1,64,88,0
1,64,82,52
1,57,88,0
1,61,91,0
1,45,109,4
1,64,70,68
1,57,82,0
1,61,67,0
1,57,85,56
1,64,76,0
1,61,73,0
1,57,80,60
1,64,76,0
1,61,71,0
1,57,88,60
1,61,71,4
1,64,85,4
1,64,80,64
1,57,78,12
1,61,78,72
1,64,74,4
1,57,82,4
1,64,71,60
1,57,76,0
1,61,74,4
1,57,88,64
1,64,73,0
1,61,80,0
1,57,70,72
1,64,73,0
1,61,71,0
1,64,71,68
1,57,88,0
1,61,80,0
1,64,65,64
1,61,71,0
1,57,82,0
1,57,84,76
1,64,85,0
1,61,78,0
1,64,69,76
1,57,76,0
1,61,79,0
1,64,79,72
1,57,79,0
1,61,71,0
1,57,104,76
1,62,104,0
1,66,104,0
1,50,95,52
1,62,78,0
1,57,98,0
1,66,88,0
1,57,76,64
1,66,80,0
1,62,74,0
1,66,82,64
1,62,73,0
1,57,98,0
1,57,80,76
1,62,76,0
1,66,88,0
1,43,95,76
1,59,98,0
1,55,91,0
1,62,91,0
1,55,73,84
1,62,68,0
1,59,85,0
1,62,70,64
1,55,88,0
1,59,88,0
1,62,66,80
1,55,88,0
1,59,95,0
1,64,88,40
1,45,104,0
1,57,95,0
1,61,88,0
1,57,80,68
1,64,74,4
1,61,74,0
1,64,67,68
1,57,78,0
1,61,78,0
1,64,67,68
1,57,73,0
1,61,74,0
1,64,71,64
1,57,88,0
1,61,82,0
1,64,74,72
1,57,80,0
1,61,80,0
1,57,91,68
1,64,78,0
1,61,88,0
1,64,64,80
1,57,78,0
1,61,71,0
1,50,98,88
1,57,104,0
1,62,98,0
1,66,95,0
1,57,82,76
1,62,76,0
1,66,71,0
1,57,85,68
1,62,73,0
1,66,82,0
1,57,78,84
1,62,73,0
1,66,82,0
1,66,91,56
1,57,104,0
1,61,91,0
1,42,95,0
1,57,82,52
1,66,78,0
1,61,74,0
1,66,82,64
1,61,73,4
1,57,95,0
1,66,82,64
1,61,80,0
1,57,91,4
1,43,95,72
1,62,91,8
1,55,91,0
1,59,104,0
1,62,74,72
1,59,71,0
1,55,73,0
1,62,71,80
1,59,76,0
1,55,85,0
1,55,85,80
1,62,70,0
1,59,74,4
1,61,82,12
1,57,91,0
1,45,95,0
1,64,82,0
1,57,49,44
1,61,73,0
1,64,82,4
1,57,88,84
1,61,78,0
1,64,88,0
1,64,80,80
1,57,80,0
1,61,80,0
1,50,95,68
1,57,98,0
1,62,98,0
1,66,95,0
1,57,85,60
1,62,71,0
1,66,82,0
1,57,85,68
1,62,73,0
1,66,82,0
1,57,80,84
1,66,78,0
1,62,76,0
1,43,98,64
1,62,85,4
1,55,82,0
1,59,91,0
1,62,70,84
1,55,73,4
1,59,68,0
1,55,82,80
1,62,82,0
1,59,85,0
1,62,74,88
1,55,78,0
1,59,73,0
1,57,95,8
1,61,91,0
1,64,82,0
1,45,98,0
1,57,80,56
1,64,85,0
1,61,78,0
1,64,78,68
1,57,85,0
1,61,80,0
1,64,73,68
1,57,82,0
1,61,74,0
1,57,80,72
1,64,73,0
1,61,80,4
1,64,64,76
1,57,80,0
1,61,74,0
1,57,82,68
1,61,80,0
1,64,70,0
1,64,76,108
1,57,85,0
1,61,82,0
1,50,98,96
1,57,109,0
1,66,91,4
1,62,104,0
1,55,104,84
1,59,104,0
1,66,104,4
1,62,98,0
1,43,98,0
1,55,82,44
1,62,104,76
1,59,114,0
1,55,109,0
1,55,65,76
1,45,104,64
1,64,104,0
1,57,104,0
1,61,95,0
1,57,88,72
1,57,95,52
1,61,95,0
1,64,82,4
1,57,104,88
1,66,91,0
1,62,98,0
1,50,95,0
1,62,85,64
1,57,82,0
1,66,78,0
1,62,78,64
1,66,78,0
1,57,88,0
1,66,74,68
1,57,88,4
1,62,73,0
1,47,98,24
1,66,80,0
1,62,88,0
1,59,104,4
1,59,91,48
1,62,82,0
1,66,88,0
1,59,82,60
1,66,74,0
1,62,76,0
1,66,73,68
1,59,88,0
1,62,73,0
1,66,80,20
1,61,91,0
1,57,95,0
1,42,95,8
1,61,73,68
1,57,88,0
1,66,80,0
1,61,68,72
1,57,88,4
1,66,80,0
1,66,78,72
1,57,85,0
1,61,74,0
1,66,74,64
1,57,91,4
1,61,74,0
1,57,82,52
1,61,91,0
1,66,82,0
1,61,74,56
1,66,91,0
1,57,98,0
1,61,78,68
1,57,85,0
1,66,88,0
1,43,95,28
1,62,85,4
1,59,104,0
1,55,88,0
1,62,88,64
1,55,85,0
1,59,85,0
1,62,80,72
1,55,85,0
1,59,85,0
1,62,76,64
1,55,91,0
1,59,85,0
1,62,73,72
1,55,88,0
1,59,76,0
1,62,78,64
1,55,80,0
1,59,76,0
1,62,68,68
1,55,78,0
1,59,78,0
1,62,80,64
1,55,80,4
1,59,76,0
1,45,104,0
1,64,95,4
1,61,91,0
1,57,95,0
1,61,64,60
1,64,70,0
1,57,95,0
1,64,76,72
1,57,91,4
1,61,88,0
1,57,85,68
1,61,78,0
1,64,80,0
1,61,74,72
1,64,85,0
1,57,98,0
1,57,85,80
1,61,78,0
1,64,74,0
1,64,71,72
1,57,88,0
1,61,74,0
1,61,73,68
1,64,80,0
1,57,88,0
1,50,98,0
1,57,98,4
1,66,91,0
1,62,95,0
1,62,85,60
1,66,71,0
1,57,82,0
1,62,74,68
1,57,88,0
1,66,82,0
1,57,85,68
1,62,71,0
1,66,80,0
1,62,68,52
1,59,98,0
1,66,88,0
1,47,95,4
1,59,80,68
1,62,73,0
1,66,82,0
1,62,80,60
1,59,85,0
1,66,82,0
1,62,68,68
1,59,76,0
1,66,80,0
1,57,95,12
1,66,82,0
1,61,88,0
1,42,95,0
1,57,78,64
1,66,88,0
1,61,74,0
1,57,78,72
1,66,82,0
1,61,74,0
1,66,80,68
1,57,85,0
1,61,82,4
1,57,80,72
1,66,82,0
1,61,74,0
1,57,78,64
1,61,71,0
1,66,78,0
1,61,74,60
1,66,78,0
1,57,85,0
1,61,82,56
1,66,82,0
1,57,95,0
1,62,91,60
1,55,88,0
1,59,91,0
1,43,95,4
1,62,78,72
1,55,82,0
1,59,78,0
1,55,80,80
1,62,67,0
1,59,91,0
1,62,67,80
1,55,80,0
1,59,80,0
1,62,70,72
1,55,85,0
1,59,95,0
1,55,88,84
1,62,82,0
1,59,104,0
1,62,70,84
1,55,85,0
1,59,104,4
1,62,70,64
1,55,85,0
1,59,91,0
1,61,88,36
1,57,91,0
1,64,85,0
1,45,98,0
1,64,80,72
1,57,88,0
1,61,82,0
1,64,67,84
1,57,88,0
1,61,88,0
1,64,66,68
1,57,82,0
1,61,80,4
1,57,80,60
1,64,68,0
1,61,82,4
1,64,67,72
1,57,91,4
1,61,78,0
1,57,80,72
1,64,70,0
1,61,78,0
1,64,80,72
1,57,109,0
1,61,104,0
1,62,98,12372
1,54,91,0
1,59,104,0
1,47,95,0
1,62,82,48
1,59,98,4
1,54,91,0
1,59,91,76
1,62,95,0
1,54,104,4
1,62,98,252
1,54,91,0
1,59,104,0
1,59,76,76
1,54,82,0
1,62,88,0
1,62,91,96
1,54,88,0
1,59,98,0
1,61,95,88
1,54,104,0
1,59,98,0
1,59,109,204
1,54,95,0
1,61,95,0
1,54,71,28
1,62,88,0
1,59,109,76
1,54,104,0
1,62,104,0
1,54,80,36
1,61,88,0
1,59,85,4
1,54,104,60
1,62,104,0
1,59,109,0
1,62,98,16
1,52,88,0
1,57,104,0
1,45,104,0
1,57,80,64
1,62,80,0
1,52,91,0
1,62,95,96
1,57,109,0
1,52,88,0
1,57,109,92
1,61,104,0
1,52,104,0
1,59,104,112
1,52,95,0
1,57,104,0
1,61,95,84
1,52,104,0
1,57,114,0
1,52,95,12
1,59,104,0
1,45,95,0
1,57,114,0
1,57,85,44
1,59,76,4
1,52,85,0
1,52,104,96
1,59,109,0
1,57,114,0
1,61,104,68
1,52,109,4
1,57,114,0
1,52,95,144
1,59,98,4
1,57,104,0
1,61,104,96
1,57,109,0
1,52,109,0
1,50,91,40
1,55,91,0
1,59,98,0
1,43,91,0
1,55,78,52
1,50,80,4
1,59,104,0
1,55,91,100
1,59,104,0
1,50,95,4
1,59,109,120
1,50,95,4
1,55,98,4
1,43,91,4
1,61,88,12
1,61,109,112
1,50,98,0
1,55,109,4
1,59,124,64
1,55,98,4
1,50,104,0
1,43,82,4
1,59,114,280
1,50,104,4
1,55,104,0
1,43,95,4
1,61,91,176
1,55,109,76
1,59,124,0
1,62,124,0
1,43,98,4
1,54,104,4
1,59,114,4
1,47,104,0
1,61,82,20
1,59,109,104
1,61,91,4
1,54,95,0
1,54,91,220
1,59,109,4
1,61,91,172
1,61,88,96
1,54,91,4
1,59,120,0
1,59,109,264
1,54,95,4
1,47,98,4
1,55,91,632
1,62,98,4
1,59,109,0
1,43,95,4
1,62,88,48
1,59,95,0
1,43,71,0
1,55,104,4
1,61,82,4
1,64,95,0
1,57,104,0
1,45,104,0
1,57,95,40
1,64,78,0
1,45,98,4
1,61,88,4
1,64,71,52
1,57,91,4
1,61,80,0
1,64,73,60
1,61,78,0
1,57,98,0
1,61,73,52
1,64,74,0
1,57,91,4
1,57,82,56
1,61,74,0
1,64,91,0
1,61,73,52
1,64,74,0
1,57,95,0
1,64,80,56
1,57,98,0
1,61,73,0
1,64,71,60
1,61,71,0
1,57,88,0
1,57,91,64
1,61,73,0
1,64,78,0
1,64,74,60
1,61,71,0
1,57,91,0
1,57,91,68
1,61,71,0
1,64,76,0
1,61,66,60
1,64,67,0
1,57,80,0
1,57,88,68
1,61,74,0
1,64,76,0
1,45,80,8
1,61,64,60
1,57,85,0
1,64,76,0
1,57,78,80
1,64,76,0
1,61,73,0
1,62,98,72
1,66,104,0
1,57,109,0
1,66,68,44
1,57,88,0
1,62,98,0
1,50,95,0
1,66,73,72
1,62,71,0
1,57,85,0
1,62,78,52
1,57,95,0
1,66,91,0
1,57,82,72
1,62,70,0
1,66,74,0
1,62,91,236
1,55,95,0
1,59,98,0
1,43,95,0
1,62,85,56
1,55,85,4
1,59,88,0
1,43,104,0
1,61,88,32
1,45,104,0
1,57,88,0
1,64,88,0
1,64,82,52
1,57,88,0
1,61,91,0
1,45,109,4
1,64,70,68
1,57,82,0
1,61,67,0
1,57,85,56
1,64,76,0
1,61,73,0
1,57,80,60
1,64,76,0
1,61,71,0
1,57,88,60
1,61,71,4
1,64,85,4
1,57,78,64
1,61,71,0
1,64,80,0
1,64,74,72
1,57,82,0
1,61,78,4
1,64,71,68
1,57,76,0
1,61,74,4
1,57,88,64
1,64,73,0
1,61,80,0
1,57,70,72
1,64,73,0
1,61,71,0
1,64,71,68
1,57,88,0
1,61,80,0
1,64,65,64
1,61,71,0
1,57,82,0
1,57,80,76
1,64,82,0
1,61,78,0
1,64,65,76
1,57,78,0
1,61,78,0
1,64,74,72
1,57,80,0
1,61,71,0
1,57,104,76
1,62,104,0
1,66,104,0
1,50,95,52
1,62,78,0
1,57,98,0
1,66,88,0
1,57,76,64
1,66,80,0
1,62,74,0
1,66,82,64
1,62,73,0
1,57,98,0
1,57,80,76
1,62,76,0
1,66,88,0
1,43,95,76
1,59,98,0
1,55,91,0
1,62,91,0
1,55,73,84
1,62,68,0
1,59,85,0
1,62,70,64
1,55,88,0
1,59,88,0
1,62,66,80
1,55,88,0
1,59,95,0
1,64,88,40
1,45,104,0
1,57,95,0
1,61,88,0
1,57,80,68
1,64,74,4
1,61,74,0
1,64,67,68
1,57,78,0
1,61,78,0
1,64,67,68
1,57,73,0
1,61,74,0
1,64,71,64
1,57,88,0
1,61,82,0
1,64,74,72
1,57,80,0
1,61,80,0
1,57,91,68
1,64,78,0
1,61,88,0
1,64,64,80
1,57,78,0
1,61,71,0
1,50,98,88
1,57,104,0
1,62,98,0
1,66,95,0
1,57,82,76
1,62,76,0
1,66,71,0
