track,note,velocity,time
3,64,73,0
3,64,0,12
3,64,99,0
3,64,0,47
3,65,71,0
3,65,0,15
3,65,79,0
3,65,0,38
3,64,67,0
3,64,0,12
3,64,75,0
3,64,0,47
3,65,61,0
3,65,0,14
3,65,77,0
3,65,0,42
3,64,65,0
3,64,0,12
3,64,75,0
3,64,0,47
3,65,69,0
3,65,0,16
3,65,79,0
3,65,0,45
3,64,59,0
3,64,0,14
3,64,77,0
3,64,0,47
3,69,67,0
3,69,0,10
3,69,79,0
3,69,0,46
3,68,69,0
3,68,0,1
3,74,77,0
3,74,0,20
3,74,87,0
3,74,0,44
3,74,91,0
3,74,0,46
3,72,79,0
3,72,0,2
3,64,81,0
3,64,0,12
3,64,79,0
3,64,0,47
3,65,65,0
3,65,0,14
3,65,95,0
3,65,0,43
3,64,71,0
3,64,0,12
3,64,91,0
3,64,0,47
3,65,77,0
3,65,0,18
3,65,81,0
3,65,0,45
3,64,77,0
3,64,0,15
3,64,83,0
3,64,0,47
3,65,77,0
3,65,0,16
3,65,95,0
3,65,0,44
3,64,81,0
3,64,0,15
3,64,79,0
3,64,0,48
3,69,83,0
3,69,0,15
3,69,91,0
3,69,0,1
3,68,87,0
3,68,0,1
3,77,95,0
3,77,0,18
3,77,103,0
3,77,0,44
3,77,103,0
3,77,0,41
3,76,71,0
3,76,0,3
3,74,87,0
3,74,0,19
3,74,87,0
3,74,0,33
3,72,103,0
3,72,0,2
3,72,103,0
3,72,0,43
3,71,81,0
3,71,0,16
3,71,91,0
3,71,0,46
3,72,87,0
3,72,0,24
3,71,81,0
3,71,0,24
3,69,81,0
3,69,0,1
3,74,87,0
3,74,0,16
3,74,103,0
3,74,0,76
3,72,99,0
3,72,0,17
3,72,107,0
3,72,0,61
3,72,103,0
3,72,0,41
3,71,87,0
3,71,0,17
3,71,99,0
3,71,0,51
3,72,87,0
3,72,0,24
3,71,107,0
3,71,0,22
3,69,91,0
3,69,0,17
3,69,77,0
3,69,0,14
3,69,103,0
3,69,0,38
3,71,91,0
3,71,0,16
3,71,99,0
3,71,0,39
3,69,95,0
3,69,0,14
3,69,99,0
3,71,79,0
3,69,0,1
3,71,0,10
3,71,95,0
3,71,0,70
3,69,79,0
3,69,0,14
3,69,91,0
3,69,0,47
3,71,79,0
3,71,0,11
3,71,91,0
3,71,0,68
3,69,79,0
3,69,0,14
3,69,99,0
3,69,0,47
3,72,83,0
3,72,0,20
3,72,87,0
3,72,0,43
3,71,73,0
3,71,0,2
3,69,99,0
3,69,0,41
3,71,81,0
3,71,0,16
3,72,95,0
3,72,0,44
3,69,91,0
3,69,0,15
3,71,87,0
3,71,0,47
3,72,87,0
3,72,0,24
3,71,95,0
3,71,0,2
3,69,77,0
3,69,0,15
3,71,99,0
3,71,0,4
3,72,83,0
3,72,0,22
3,71,99,0
3,71,0,3
3,69,67,0
3,69,0,19
3,72,95,0
3,72,0,21
3,72,99,0
3,72,0,57
3,69,99,0
3,69,0,5
3,69,103,0
3,69,0,44
3,71,77,0
3,71,0,17
3,72,99,0
3,72,0,38
3,69,83,0
3,69,0,17
3,71,95,0
3,71,0,47
3,72,87,0
3,72,0,19
3,71,99,0
3,71,0,2
3,69,67,0
3,69,0,13
3,71,99,0
3,71,0,1
3,72,103,0
3,72,0,21
3,71,99,0
3,71,0,2
3,69,69,0
3,69,0,13
3,72,91,0
3,72,0,17
3,72,103,0
3,72,0,5
3,69,87,0
3,69,0,4
3,69,77,0
3,69,0,48
3,77,107,0
3,77,0,8
3,79,79,0
3,79,0,23
3,77,91,0
3,77,0,24
3,74,91,0
3,74,0,48
3,76,91,0
3,76,0,5
3,77,103,0
3,77,0,32
3,76,83,0
3,76,0,15
3,77,99,0
3,77,0,41
3,76,65,0
3,76,0,15
3,69,77,0
3,69,0,45
3,74,79,0
3,74,0,3
3,72,112,0
3,72,0,65
3,71,99,0
3,71,0,60
3,69,83,0
3,69,0,38
3,71,79,0
3,71,0,19
3,72,95,0
3,72,0,41
3,69,77,0
3,69,0,19
3,71,103,0
3,71,0,47
3,72,75,0
3,72,0,41
3,71,103,0
3,71,0,43
3,69,75,0
3,69,0,36
3,72,83,0
3,72,0,17
3,72,95,0
3,72,0,78
3,69,91,0
3,69,0,57
3,72,87,0
3,72,0,23
3,69,79,0
3,69,0,17
3,72,95,0
3,72,0,15
3,72,107,0
3,72,0,89
3,69,79,0
3,69,0,120
3,64,83,0
3,64,0,12
3,64,83,0
3,64,0,48
3,65,65,0
3,65,0,13
3,65,81,0
3,65,0,40
3,64,77,0
3,64,0,14
3,64,83,0
3,64,0,47
3,65,75,0
3,65,0,17
3,65,91,0
3,65,0,43
3,64,83,0
3,64,0,14
3,64,91,0
3,64,0,48
3,65,79,0
3,65,0,17
3,65,95,0
3,65,0,44
3,64,83,0
3,64,0,17
3,64,81,0
3,64,0,47
3,69,81,0
3,69,0,18
3,69,81,0
3,69,0,47
3,68,99,0
3,68,0,37
3,74,91,0
3,74,0,19
3,74,95,0
3,74,0,65
3,74,95,0
3,74,0,47
3,72,81,0
3,72,0,82
3,64,79,0
3,64,0,13
3,64,79,0
3,64,0,45
3,65,73,0
3,65,0,15
3,65,79,0
3,65,0,43
3,64,79,0
3,64,0,14
3,64,79,0
3,64,0,45
3,65,77,0
3,65,0,16
3,65,91,0
3,65,0,43
3,64,69,0
3,64,0,15
3,64,87,0
3,64,0,47
3,65,73,0
3,65,0,16
3,65,87,0
3,65,0,46
3,64,83,0
3,64,0,19
3,64,77,0
3,64,0,48
3,69,77,0
3,69,0,21
3,69,83,0
3,69,0,45
3,68,95,0
3,68,0,48
3,77,91,0
3,77,0,14
3,77,99,0
3,77,0,60
3,77,103,0
3,77,0,44
3,76,81,0
3,76,0,65
3,69,100,0
3,69,0,48
3,74,81,0
3,74,0,16
3,74,99,0
3,74,0,72
3,72,99,0
3,72,0,3
3,72,87,0
3,72,0,30
3,71,91,0
3,71,0,16
3,71,103,0
3,71,0,67
3,72,91,0
3,72,0,24
3,71,95,0
3,71,0,22
3,69,81,0
3,69,0,5
3,74,83,0
3,74,0,17
3,74,95,0
3,74,0,66
3,72,103,0
3,72,0,17
3,72,95,0
3,72,0,63
3,72,99,0
3,72,0,44
3,71,91,0
3,71,0,15
3,71,95,0
3,71,0,58
3,72,95,0
3,72,0,22
3,71,103,2
3,71,0,20
3,69,79,0
3,69,0,1
3,69,79,0
3,69,0,16
3,69,87,0
3,69,0,39
3,71,81,0
3,71,0,17
3,71,95,0
3,71,0,43
3,69,81,0
3,69,0,18
3,69,91,0
3,69,0,38
3,71,79,0
3,71,0,10
3,71,95,0
3,71,0,70
3,69,79,0
3,69,0,20
3,69,91,0
3,69,0,42
3,71,81,0
3,71,0,11
3,71,99,0
3,71,0,67
3,69,79,0
3,69,0,18
3,69,87,0
3,69,0,43
3,72,79,0
3,72,0,12
3,72,99,0
3,72,0,47
3,71,81,0
3,71,0,5
3,69,99,0
3,69,0,28
3,71,81,0
3,71,0,20
3,72,83,0
3,72,0,24
3,69,87,0
3,69,0,21
3,71,95,0
3,71,0,41
3,72,91,0
3,72,0,29
3,71,99,0
3,71,0,30
3,69,81,0
3,69,0,20
3,71,83,0
3,71,0,43
3,72,95,0
3,72,0,37
3,71,103,0
3,71,0,45
3,69,79,0
3,69,0,43
3,72,95,0
3,72,0,20
3,72,99,0
3,72,0,83
3,69,91,0
3,69,0,47
3,69,103,0
3,69,0,42
3,71,77,0
3,71,0,18
3,72,95,0
3,72,0,47
3,69,79,0
3,69,0,15
3,71,99,0
3,71,0,44
3,72,99,0
3,72,0,45
3,71,95,0
3,71,0,42
3,69,83,0
3,69,0,17
3,71,107,0
3,71,0,44
3,72,95,0
3,72,0,23
3,71,95,0
3,71,0,38
3,69,79,0
3,69,0,17
3,72,99,0
3,72,0,20
3,72,99,0
3,72,0,74
3,69,79,0
3,69,0,1
3,69,99,0
3,69,0,48
3,77,99,0
3,77,0,4
3,79,77,0
3,79,0,23
3,77,83,0
3,77,0,24
3,74,91,0
3,74,0,47
3,76,83,0
3,76,0,3
3,77,107,0
3,77,0,36
3,76,81,0
3,76,0,16
3,77,103,0
3,77,0,42
3,76,83,0
3,76,0,18
3,69,95,0
3,69,0,47
3,74,95,0
3,74,0,4
3,72,107,0
3,72,0,56
3,71,95,0
3,71,0,53
3,69,91,0
3,69,0,44
3,71,87,0
3,71,0,18
3,72,107,0
3,72,0,39
3,69,79,0
3,69,0,17
3,71,99,0
3,71,0,47
3,72,83,0
3,72,0,39
3,71,99,0
3,71,0,47
3,69,79,0
3,69,0,30
3,72,91,0
3,72,0,17
3,72,95,0
3,72,0,93
3,69,95,0
3,69,0,54
3,70,103,0
3,70,0,42
3,72,83,0
3,72,0,18
3,73,95,0
3,73,0,36
3,70,81,0
3,70,0,24
3,72,83,0
3,72,0,43
3,73,99,0
3,73,0,26
3,72,95,0
3,72,0,42
3,70,67,0
3,70,0,16
3,72,99,0
3,72,0,46
3,73,91,0
3,73,0,35
3,72,99,0
3,72,0,42
3,70,79,0
3,70,0,33
3,73,95,0
3,73,0,20
3,73,99,0
3,73,0,89
3,70,95,0
3,70,0,2
3,70,95,0
3,70,0,46
3,72,87,0
3,72,0,18
3,73,99,0
3,73,0,39
3,70,79,0
3,70,0,20
3,72,87,0
3,72,0,47
3,73,91,0
3,73,0,25
3,72,95,0
3,72,0,3
3,70,67,0
3,70,0,15
3,72,95,0
3,72,0,5
3,73,83,0
3,73,0,29
3,72,95,0
3,72,0,4
3,70,61,0
3,70,0,25
3,73,99,0
3,73,0,18
3,73,99,0
3,73,0,59
3,70,91,0
3,70,0,2
3,70,95,0
3,70,0,47
3,78,95,0
3,78,0,30
3,80,91,0
3,80,0,24
3,78,91,0
3,78,0,22
3,75,73,0
3,75,0,47
3,77,95,0
3,77,0,4
3,78,95,0
3,78,0,42
3,77,81,0
3,77,0,19
3,78,95,0
3,78,0,42
3,77,87,0
3,77,0,18
3,70,87,0
3,70,0,47
3,75,77,0
3,75,0,7
3,73,99,0
3,73,0,67
3,72,83,0
3,72,0,58
3,70,95,0
3,70,0,47
3,72,83,0
3,72,0,18
3,73,99,0
3,73,0,40
3,70,75,0
3,70,0,21
3,72,81,0
3,72,0,41
3,73,83,0
3,73,0,34
3,72,95,0
3,72,0,47
3,70,69,0
3,70,0,38
3,73,103,0
3,73,0,19
3,73,99,0
3,73,0,55
3,70,91,0
3,70,0,1
3,72,87,0
3,72,0,43
3,70,59,0
3,70,0,31
3,73,103,0
3,73,0,17
3,73,107,0
3,73,0,16
3,70,79,0
3,70,0,14
4,33,56,1815
4,33,0,48
4,45,58,0
4,45,0,18
4,33,56,30
4,33,0,48
4,45,54,0
4,45,0,16
4,33,60,32
4,33,0,48
4,45,54,0
4,45,0,23
4,33,62,25
4,33,0,48
4,45,58,0
4,45,0,26
4,33,60,22
4,33,0,48
4,45,54,0
4,45,0,14
4,33,60,34
4,33,0,48
4,45,50,0
4,45,0,11
4,33,62,37
4,33,0,48
4,45,54,0
4,45,0,17
4,33,58,31
4,33,0,48
4,45,60,0
4,45,0,16
4,33,60,32
4,33,0,48
4,45,62,0
4,45,0,16
4,33,56,32
4,33,0,48
4,45,62,0
4,45,0,15
4,33,58,33
4,33,0,48
4,45,56,0
4,45,0,13
4,33,54,35
4,33,0,48
4,45,64,0
4,45,0,13
4,32,66,35
4,32,0,48
4,44,62,0
4,44,0,17
4,32,54,31
4,32,0,48
4,44,64,0
4,44,0,14
4,32,64,34
4,32,0,48
4,44,64,0
4,44,0,16
4,32,62,32
4,32,0,48
4,44,62,0
4,44,0,16
4,28,60,32
4,28,0,16
4,28,54,32
4,28,0,18
4,38,76,30
4,38,0,1
4,28,56,1
4,28,0,24
4,38,66,24
4,38,0,47
4,40,72,49
4,40,0,45
4,28,48,3
4,28,0,26
4,33,62,22
4,33,0,48
4,45,69,0
4,45,0,14
4,33,62,34
4,33,0,48
4,45,68,0
4,45,0,19
4,33,62,29
4,33,0,48
4,45,66,0
4,45,0,16
4,33,54,32
4,33,0,48
4,45,56,0
4,45,0,18
4,33,58,30
4,33,0,48
4,45,62,0
4,45,0,20
4,33,54,28
4,33,0,48
4,45,64,0
4,45,0,18
4,33,56,30
4,33,0,48
4,45,56,0
4,45,0,16
4,33,56,32
4,33,0,48
4,45,64,0
4,45,0,18
4,32,66,30
4,32,0,48
4,44,60,0
4,44,0,16
4,32,66,32
4,32,0,48
4,44,60,0
4,44,0,17
4,32,64,31
4,32,0,48
4,44,48,0
4,44,0,17
4,32,68,31
4,32,0,48
4,44,66,0
4,44,0,17
4,28,62,31
4,28,0,17
4,28,56,31
4,28,0,23
4,38,64,25
4,38,0,3
4,28,62,3
4,28,0,28
4,38,66,20
4,38,0,35
4,40,64,61
4,40,0,37
4,28,52,11
4,28,0,38
4,33,60,10
4,33,0,48
4,45,66,0
4,45,0,12
4,33,52,36
4,33,0,48
4,45,36,0
4,45,0,12
4,33,56,36
4,33,0,48
4,45,62,0
4,45,0,23
4,33,46,25
4,33,0,48
4,45,64,0
4,45,0,25
4,33,56,0
4,33,0,23
4,45,60,0
4,45,0,14
4,33,60,34
4,33,0,48
4,45,66,0
4,45,0,14
4,33,60,1
4,33,0,25
4,45,62,0
4,45,0,18
4,33,58,30
4,33,0,48
4,45,56,0
4,45,0,17
4,33,60,3
4,33,0,20
4,45,62,0
4,45,0,19
4,33,52,29
4,33,0,48
4,45,64,0
4,45,0,21
4,33,62,3
4,33,0,20
4,45,62,0
4,45,0,19
4,31,62,9
4,31,0,22
4,43,62,0
4,43,0,17
4,29,52,31
4,29,0,48
4,41,64,0
4,41,0,13
4,29,66,35
4,29,0,48
4,41,64,0
4,41,0,15
4,29,54,3
4,29,0,17
4,41,62,0
4,41,0,16
4,29,56,32
4,29,0,48
4,41,62,0
4,41,0,16
4,29,66,2
4,29,0,16
4,41,66,0
4,41,0,18
4,29,68,30
4,29,0,48
4,41,66,0
4,41,0,15
4,29,66,2
4,29,0,20
4,41,64,0
4,41,0,19
4,28,54,1
4,28,0,24
4,40,66,8
4,40,0,18
4,38,72,30
4,38,0,48
4,50,62,0
4,50,0,15
4,38,56,33
4,38,0,48
4,50,56,0
4,50,0,15
4,38,60,33
4,38,0,48
4,50,64,0
4,50,0,15
4,38,62,33
4,38,0,48
4,50,64,0
4,50,0,17
4,39,66,31
4,39,0,48
4,51,62,0
4,51,0,20
4,39,68,28
4,39,0,48
4,51,56,0
4,51,0,15
4,39,66,33
4,39,0,48
4,51,52,0
4,51,0,17
4,39,64,31
4,39,0,48
4,51,54,0
4,51,0,21
4,40,66,747
4,40,0,48
4,41,66,0
4,41,0,16
4,38,76,32
4,38,0,48
4,40,62,0
4,40,0,14
4,36,64,34
4,36,0,48
4,38,64,0
4,38,0,14
4,35,66,34
4,35,0,48
4,36,60,0
4,36,0,40
4,33,58,56
4,33,0,46
4,35,46,2
4,35,0,20
4,36,52,28
4,36,0,44
4,33,54,4
4,33,0,16
4,35,64,32
4,35,0,42
4,36,42,6
4,36,0,43
4,35,72,197
4,35,0,47
4,33,50,1
4,33,0,15
4,35,68,33
4,35,0,46
4,36,46,2
4,36,0,40
4,35,60,200
4,35,0,47
4,33,56,1
4,33,0,44
4,36,42,4
4,36,0,15
4,36,62,33
4,36,0,41
4,33,68,55
4,33,0,4
4,33,64,320
4,33,0,42
4,35,38,6
4,35,0,18
4,36,58,30
4,36,0,47
4,33,56,1
4,33,0,20
4,35,58,28
4,35,0,47
4,36,44,1
4,36,0,35
4,35,66,205
4,35,0,46
4,33,56,2
4,33,0,20
4,35,60,28
4,35,0,47
4,36,58,1
4,36,0,34
4,35,66,206
4,35,0,47
4,33,58,1
4,33,0,29
4,36,50,19
4,36,0,23
4,36,58,25
4,36,0,43
4,33,64,53
4,33,0,2
4,33,68,184
4,33,0,40
4,36,46,8
4,36,0,37
4,33,40,11
4,33,0,16
4,38,68,32
4,38,0,40
