track,note,velocity,time
0,42,75,920
0,42,75,172
0,42,75,372
0,42,75,372
0,43,80,372
0,50,108,0
0,55,108,0
0,59,100,0
0,62,96,0
0,55,118,0
0,59,127,0
0,62,122,0
0,79,88,0
0,83,104,0
0,86,100,0
0,40,88,12
0,47,96,0
0,55,86,0
0,59,104,0
0,64,96,0
0,55,110,0
0,59,114,0
0,64,118,0
0,79,86,0
0,83,104,0
0,88,92,0
0,40,92,80
0,47,84,0
0,52,86,0
0,55,92,0
0,59,88,0
0,55,118,0
0,59,127,0
0,76,104,0
0,79,86,0
0,83,108,0
0,35,86,12
0,47,88,0
0,54,100,0
0,57,84,0
0,62,104,0
0,54,127,0
0,59,114,0
0,62,122,0
0,78,108,0
0,81,96,0
0,86,100,0
0,43,78,108
0,43,96,0
0,55,100,0
0,59,92,0
0,62,88,0
0,55,118,0
0,59,127,0
0,62,118,0
0,42,75,0
0,35,75,0
0,79,84,0
0,83,100,0
0,86,92,0
0,42,32,180
0,42,61,180
0,40,75,0
0,45,78,12
0,45,96,0
0,57,104,0
0,61,88,0
0,64,104,0
0,57,102,0
0,61,127,0
0,64,127,0
0,42,30,0
0,81,86,0
0,85,112,0
0,88,88,0
0,42,75,180
0,35,75,0
0,42,35,180
0,42,56,180
0,40,75,0
0,33,42,36
0,45,51,0
0,52,64,0
0,46,44,0
0,33,66,60
0,45,72,0
0,52,74,0
0,57,70,0
0,42,75,0
0,35,75,0
0,33,72,28
0,45,66,0
0,52,62,0
0,57,60,0
0,42,37,0
0,33,76,104
0,45,78,0
0,52,74,0
0,57,74,0
0,42,59,0
0,40,75,0
0,33,72,32
0,45,86,0
0,52,80,0
0,57,76,0
0,42,35,0
0,33,82,80
0,45,96,0
0,52,82,0
0,57,82,0
0,42,75,0
0,35,75,0
0,33,68,76
0,45,88,0
0,52,84,0
0,57,84,0
0,42,40,0
0,33,70,8
0,42,61,0
0,40,75,0
0,43,68,0
0,46,44,0
0,45,70,4
0,38,82,16
0,54,78,0
0,57,88,0
0,62,96,0
0,62,97,0
0,57,114,0
0,62,110,0
0,66,127,0
0,66,57,0
0,69,75,0
0,74,75,0
0,42,75,0
0,35,75,0
0,66,67,116
0,69,71,0
0,74,61,0
0,42,29,0
0,66,63,124
0,69,79,0
0,74,69,0
0,42,52,0
0,40,75,0
0,40,76,32
0,55,84,0
0,59,82,0
0,64,88,0
0,64,97,0
0,59,118,0
0,64,118,0
0,67,118,0
0,67,83,0
0,71,91,0
0,74,87,0
0,46,36,0
0,67,59,116
0,71,71,0
0,74,75,0
0,42,75,0
0,35,75,0
0,67,79,116
0,71,83,0
0,74,79,0
0,42,34,0
0,67,81,128
0,71,81,0
0,74,71,0
0,42,56,0
0,40,75,0
0,67,79,132
0,71,83,0
0,74,77,0
0,46,40,0
0,47,74,8
0,50,88,0
0,55,84,0
0,59,86,0
0,59,88,0
0,59,106,0
0,64,127,0
0,67,122,0
0,67,83,0
0,71,91,0
0,74,91,0
0,42,75,0
0,35,75,0
0,50,64,12
0,67,79,0
0,71,77,0
0,74,75,0
0,42,39,0
0,52,86,52
0,67,73,0
0,71,69,0
0,74,65,0
0,42,56,0
0,40,75,0
0,47,78,8
0,50,80,0
0,54,86,0
0,59,82,0
0,62,78,0
0,62,88,0
0,57,110,0
0,62,110,0
0,66,106,0
0,66,71,0
0,69,79,0
0,71,75,0
0,74,65,0
0,46,40,0
0,66,52,80
0,69,77,0
0,71,69,0
0,74,63,0
0,42,75,0
0,35,75,0
0,66,55,104
0,69,71,0
0,71,63,0
0,74,63,0
0,42,40,0
0,66,63,112
0,69,81,0
0,71,73,0
0,74,69,0
0,42,56,0
0,40,75,0
0,33,52,112
0,66,59,0
0,69,79,0
0,71,71,0
0,74,63,0
0,46,37,0
0,34,72,0
0,35,78,12
0,50,84,0
0,54,82,0
0,59,88,0
0,62,72,0
0,62,107,0
0,57,110,0
0,62,118,0
0,66,127,0
0,66,71,0
0,69,77,0
0,71,73,0
0,74,71,0
0,42,75,0
0,35,75,0
0,66,59,108
0,69,77,0
0,71,65,0
0,74,59,0
0,42,40,0
0,66,65,120
0,69,81,0
0,71,71,0
0,74,67,0
0,42,51,0
0,40,75,0
0,40,76,56
0,52,88,0
0,57,86,0
0,61,74,0
0,64,82,0
0,64,88,0
0,57,98,0
0,61,122,0
0,64,122,0
0,66,87,0
0,69,91,0
0,73,83,0
0,76,103,0
0,46,40,0
0,66,59,124
0,69,79,0
0,73,57,0
0,76,69,0
0,42,75,0
0,35,75,0
0,42,62,8
0,66,71,0
0,69,81,0
0,73,59,0
0,76,73,0
0,42,42,0
0,66,73,124
0,69,83,0
0,73,71,0
0,76,77,0
0,42,59,0
0,40,75,0
0,66,69,120
0,69,79,0
0,73,63,0
0,76,73,0
0,46,51,0
0,66,79,132
0,69,95,0
0,73,77,0
0,76,95,0
0,42,75,0
0,35,75,0
0,66,75,124
0,69,79,0
0,73,65,0
0,76,73,0
0,42,46,0
0,44,52,16
0,66,79,0
0,69,95,0
0,73,81,0
0,76,99,0
0,42,75,0
0,40,75,0
0,42,64,0
0,66,67,0
0,69,81,0
0,73,52,0
0,76,77,0
0,42,32,0
0,40,76,0
0,66,91,0
0,69,99,0
0,73,87,0
0,76,95,0
0,42,75,0
0,35,75,0
0,42,64,0
0,66,63,0
0,69,79,0
0,73,69,0
0,76,79,0
0,42,35,0
0,42,70,124
0,66,77,0
0,69,83,0
0,73,71,0
0,76,91,0
0,42,52,0
0,40,75,0
0,66,61,60
0,69,79,0
0,73,71,0
0,76,77,0
0,46,32,0
0,38,72,104
0,54,88,0
0,57,86,0
0,62,92,0
0,62,102,0
0,57,96,0
0,62,127,0
0,66,122,0
0,66,73,0
0,69,87,0
0,74,77,0
0,42,75,0
0,35,75,0
0,66,53,100
0,69,75,0
0,74,67,0
0,42,29,0
0,66,46,116
0,69,79,0
0,74,65,0
0,42,52,0
0,40,75,0
0,40,78,4
0,52,86,0
0,55,80,0
0,59,86,0
0,64,88,0
0,64,88,0
0,59,106,0
0,64,122,0
0,67,127,0
0,67,83,0
0,71,83,0
0,74,73,0
0,76,87,0
0,46,45,0
0,67,61,108
0,71,63,0
0,74,53,0
0,76,51,0
0,42,75,0
0,35,75,0
0,67,73,112
0,71,63,0
0,74,61,0
0,76,75,0
0,42,34,0
0,67,73,104
0,71,71,0
0,74,69,0
0,76,79,0
0,42,56,0
0,40,75,0
0,67,71,0
0,71,63,0
0,74,67,0
0,76,91,0
0,46,40,0
0,50,68,32
0,50,84,0
0,52,96,0
0,55,92,0
0,59,100,0
0,59,97,0
0,59,102,0
0,62,127,0
0,67,122,0
0,67,83,0
0,71,103,0
0,74,99,0
0,42,75,0
0,35,75,0
0,52,74,4
0,67,63,0
0,71,51,0
0,74,71,0
0,42,39,0
0,67,73,16
0,71,67,0
0,74,65,0
0,42,56,0
0,40,75,0
0,45,70,4
0,50,80,0
0,54,84,0
0,59,84,0
0,62,84,0
0,62,88,0
0,57,106,0
0,62,106,0
0,66,122,0
0,66,79,0
0,69,81,0
0,71,75,0
0,74,73,0
0,46,40,0
0,47,74,0
0,66,54,0
0,69,75,0
0,71,65,0
0,74,63,0
0,42,75,0
0,35,75,0
0,50,68,48
0,66,53,0
0,69,69,0
0,71,61,0
0,74,63,0
0,42,40,0
0,47,66,100
0,66,51,0
0,69,71,0
0,71,67,0
0,74,65,0
0,42,56,0
0,40,75,0
0,66,59,0
0,69,79,0
0,71,61,0
0,74,61,0
0,46,37,0
0,35,74,4
0,54,86,0
0,57,86,0
0,59,84,0
0,62,64,0
0,62,97,0
0,57,110,0
0,62,118,0
0,66,127,0
0,66,69,0
0,69,81,0
0,71,59,0
0,74,67,0
0,42,75,0
0,35,75,0
0,66,54,108
0,69,77,0
0,71,63,0
0,74,67,0
0,42,40,0
0,66,67,108
0,69,81,0
0,71,75,0
0,74,73,0
0,42,51,0
0,40,75,0
0,42,74,24
0,52,88,0
0,57,92,0
0,61,66,0
0,64,82,0
0,64,80,0
0,57,96,0
0,61,127,0
0,64,127,0
0,66,79,0
0,69,81,0
0,73,71,0
0,76,95,0
0,42,34,0
0,40,74,0
0,66,47,0
0,69,69,0
0,73,65,0
0,76,57,0
0,42,75,0
0,35,75,0
0,42,70,0
0,66,50,0
0,69,71,0
0,73,71,0
0,76,61,0
0,42,42,0
0,66,67,120
0,69,73,0
0,73,65,0
0,76,73,0
0,42,59,0
0,40,75,0
0,66,26,124
0,69,59,0
0,73,61,0
0,76,47,0
0,42,47,0
0,66,71,140
0,69,81,0
0,73,67,0
0,76,87,0
0,42,75,0
0,35,75,0
0,66,52,20
0,69,61,0
0,73,50,0
0,76,67,0
0,42,46,0
0,44,54,136
0,66,73,0
0,69,75,0
0,73,61,0
0,76,75,0
0,42,75,0
0,40,75,0
0,42,66,4
0,66,77,0
0,69,81,0
0,73,63,0
0,76,81,0
0,42,32,0
0,40,76,12
0,66,53,0
0,69,71,0
0,73,65,0
0,76,71,0
0,42,75,0
0,35,75,0
0,42,64,12
0,66,61,0
0,69,65,0
0,73,57,0
0,76,77,0
0,46,42,0
0,42,72,4
0,66,63,0
0,69,71,0
0,73,50,0
0,76,69,0
0,42,58,0
0,40,75,0
0,66,102,132
0,66,102,0
0,66,75,0
0,69,81,0
0,73,67,0
0,76,83,0
0,42,46,0
0,71,100,0
0,47,74,28
0,74,108,0
0,35,62,4
0,59,76,0
0,62,74,0
0,66,58,0
0,54,112,0
0,59,108,0
0,54,114,0
0,59,102,0
0,62,110,0
0,49,55,0
0,42,75,0
0,35,75,0
0,78,112,0
0,59,62,28
0,62,68,0
0,66,74,0
0,66,62,0
0,66,80,0
0,42,32,0
0,35,62,96
0,59,84,0
0,62,86,0
0,66,86,0
0,66,102,0
0,54,114,0
0,59,110,0
0,62,118,0
0,66,102,0
0,42,61,0
0,40,75,0
0,59,74,8
0,64,84,0
0,64,84,0
0,64,68,0
0,42,30,0
0,47,74,96
0,59,76,0
0,62,64,0
0,64,80,0
0,64,92,0
0,54,92,0
0,59,96,0
0,62,94,0
0,64,102,0
0,42,75,0
0,35,75,0
0,59,51,4
0,62,72,0
0,62,88,0
0,54,90,0
0,62,84,0
0,42,35,0
0,59,57,96
0,62,64,0
0,62,76,0
0,54,110,0
0,59,114,0
0,62,118,0
0,62,102,0
0,42,56,0
0,40,75,0
0,47,52,4
0,61,51,0
0,61,56,0
0,54,92,0
0,61,97,0
0,46,44,0
0,47,78,16
0,35,66,8
0,54,76,0
0,59,74,0
0,62,80,0
0,42,75,0
0,35,75,0
0,42,37,0
0,59,118,144
0,62,122,0
0,42,59,0
0,40,75,0
0,35,62,180
0,54,94,0
0,42,35,0
0,35,62,92
0,62,107,0
0,59,106,0
0,62,110,0
0,62,102,0
0,42,75,0
0,35,75,0
0,64,80,8
0,54,90,0
0,64,80,0
0,42,40,0
0,35,54,20
0,66,84,0
0,54,127,0
0,59,110,0
0,62,118,0
0,66,88,0
0,42,61,0
0,40,75,0
0,35,58,4
0,64,97,0
0,66,97,0
0,46,44,0
0,33,66,20
0,64,80,0
0,69,86,0
0,74,76,0
0,45,92,0
0,52,96,0
0,57,104,0
0,57,102,0
0,62,106,0
0,64,88,0
0,42,75,0
0,35,75,0
0,76,64,0
0,81,74,0
0,86,60,0
0,64,88,12
0,69,96,0
0,74,78,0
0,52,82,0
0,42,32,0
0,76,84,0
0,81,84,0
0,86,76,0
0,33,68,120
0,64,96,0
0,69,92,0
0,74,78,0
0,57,102,0
0,62,114,0
0,42,61,0
0,40,75,0
0,64,82,8
0,69,86,0
0,73,84,0
0,45,53,0
0,52,96,0
0,57,104,0
0,52,106,0
0,57,110,0
0,61,118,0
0,42,30,0
0,76,80,0
0,81,76,0
0,85,92,0
0,45,60,40
0,42,75,0
0,35,75,0
0,47,51,8
0,64,76,40
0,71,86,0
0,52,82,0
0,42,35,0
0,83,78,0
0,45,68,52
0,64,88,0
0,69,96,0
0,73,108,0
0,57,80,0
0,42,56,0
0,40,75,0
0,76,88,0
0,81,86,0
0,85,104,0
0,33,29,28
0,52,74,0
0,46,44,0
0,33,62,80
0,64,78,0
0,69,88,0
0,74,84,0
0,52,106,0
0,57,114,0
0,62,118,0
0,42,75,0
0,35,75,0
0,76,84,0
0,81,88,0
0,86,82,0
0,69,88,68
0,64,92,0
0,74,86,0
0,42,37,0
0,76,86,0
0,81,88,0
0,86,84,0
0,42,59,16
0,40,75,0
0,33,62,56
0,64,80,0
0,69,86,0
0,73,86,0
0,45,88,0
0,52,100,0
0,57,88,0
0,52,106,0
0,57,114,0
0,61,127,0
0,42,35,0
0,76,84,0
0,81,78,0
0,85,86,0
0,45,76,40
0,42,90,0
0,35,75,0
0,52,68,136
0,42,40,0
0,45,66,80
0,52,90,0
0,57,94,0
0,61,118,0
0,42,61,0
0,40,75,0
0,47,78,4
0,42,86,24
0,52,86,0
0,46,44,0
0,43,66,4
0,55,74,0
0,55,102,0
0,43,88,0
0,50,100,0
0,55,108,0
0,50,96,0
0,55,118,0
0,59,114,0
0,55,97,0
0,49,55,0
0,42,75,0
0,35,75,0
0,55,74,16
0,64,82,0
0,64,84,0
0,64,92,0
0,42,32,0
0,55,88,60
0,64,92,0
0,64,102,0
0,55,114,0
0,59,110,0
0,64,97,0
0,42,61,0
0,40,75,0
0,43,60,20
0,55,72,0
0,62,74,0
0,62,88,0
0,50,80,0
0,62,97,0
0,42,30,0
0,43,72,112
0,55,76,0
0,62,80,0
0,62,97,0
0,62,97,0
0,42,75,0
0,35,75,0
0,55,68,8
0,61,66,0
0,61,76,0
0,50,94,0
0,61,88,0
0,42,35,0
0,55,66,96
0,61,72,0
0,61,92,0
0,55,90,0
0,61,97,0
0,42,56,0
0,40,75,0
0,43,64,16
0,55,68,0
0,59,70,0
0,59,72,0
0,50,82,0
0,59,92,0
0,46,44,0
0,31,76,4
0,50,106,0
0,55,118,0
0,59,114,0
0,42,75,0
0,35,75,0
0,43,64,120
0,42,37,0
0,43,60,80
0,55,106,0
0,59,106,0
0,42,59,0
0,40,75,0
0,43,46,136
0,50,78,0
0,42,35,0
0,43,62,100
0,55,86,0
0,59,78,0
0,59,92,0
0,59,92,0
0,42,90,0
0,35,75,0
0,61,74,24
0,61,92,0
0,50,98,0
0,55,122,0
0,59,122,0
0,61,88,0
0,42,40,0
0,43,58,24
0,55,74,0
0,59,45,0
0,62,82,0
0,62,97,0
0,62,84,0
0,42,61,0
0,40,75,0
0,45,54,4
0,61,86,0
0,61,107,0
0,50,86,0
0,61,88,0
0,46,44,0
0,35,60,16
0,54,70,0
0,59,80,0
0,47,92,0
0,54,104,0
0,59,86,0
0,50,80,0
0,54,88,0
0,59,96,0
0,42,75,0
0,35,75,0
0,42,32,180
0,66,64,52
0,50,90,0
0,54,94,0
0,59,98,0
0,42,61,0
0,40,75,0
0,35,72,104
0,42,30,0
0,35,64,112
0,42,75,0
0,35,75,0
0,50,84,32
0,42,35,0
0,54,96,180
0,42,56,0
0,40,75,0
0,62,88,100
0,50,52,0
0,62,64,0
0,42,45,0
0,61,92,0
0,61,76,0
0,35,94,4
0,59,58,0
0,62,92,0
0,59,97,0
0,47,92,0
0,54,117,0
0,59,112,0
0,50,98,0
0,54,98,0
0,59,106,0
0,59,88,0
0,42,75,0
0,35,75,0
0,66,102,152
0,66,92,0
0,40,75,0
0,78,62,0
0,90,74,0
0,66,92,64
0,66,92,0
0,78,86,0
0,90,84,0
0,66,102,60
0,66,102,0
0,42,75,0
0,78,92,0
0,90,100,0
0,43,72,28
0,43,74,0
0,50,80,0
0,55,84,0
0,43,108,0
0,50,108,0
0,55,96,0
0,45,42,0
0,40,45,0
0,43,82,88
0,43,92,0
0,50,84,0
0,55,100,0
0,62,107,0
0,43,100,0
0,50,108,0
0,55,108,0
0,62,84,0
0,45,55,0
0,40,61,0
0,74,70,0
0,79,44,0
0,86,84,0
0,45,66,4
0,45,72,0
0,52,48,0
