track,note,velocity,time
3,65,105,1920
3,65,0,476
3,66,105,4
3,66,0,476
3,65,105,844
3,65,0,480
3,65,105,0
3,65,0,116
3,66,105,4
3,66,0,476
3,68,105,4
3,68,0,476
3,66,105,4
3,66,0,476
3,65,105,4
3,65,0,476
3,66,105,4
3,66,0,476
3,65,105,724
3,65,0,596
3,65,105,4
3,65,0,116
3,66,105,4
3,66,0,476
3,68,105,4
3,68,0,476
3,66,105,4
3,66,0,476
3,65,105,4
3,65,0,476
3,66,105,4
3,66,0,476
3,65,105,724
3,65,0,596
3,65,105,4
3,65,0,116
3,66,105,4
3,66,0,476
3,68,105,4
3,68,0,476
3,66,105,4
3,66,0,476
3,71,105,4
3,71,0,476
3,64,105,4
3,64,0,476
3,64,105,244
3,64,0,236
3,64,105,4
3,64,0,236
3,63,105,4
3,63,0,720
3,61,105,0
3,61,0,236
3,61,105,4
3,61,0,236
3,63,105,4
3,63,0,236
3,63,105,4
3,63,0,236
3,64,105,4
3,64,0,476
3,65,105,4
3,65,0,476
3,66,105,4
3,66,0,476
3,65,105,724
3,65,0,596
3,65,105,4
3,65,0,116
3,66,105,4
3,66,0,476
3,68,105,4
3,68,0,476
3,66,105,4
3,66,0,476
3,65,105,4
3,65,0,476
3,66,105,4
3,66,0,476
3,65,105,724
3,65,0,596
3,65,105,4
3,65,0,116
3,66,105,4
3,66,0,476
3,68,105,4
3,68,0,476
3,66,105,4
3,66,0,476
3,71,105,4
3,71,0,476
3,64,105,4
3,64,0,476
3,64,105,484
3,64,0,236
3,63,105,4
3,63,0,716
3,61,105,4
3,61,0,476
3,59,105,4
3,59,0,236
3,59,105,4
3,59,0,236
3,61,105,4
3,61,0,236
3,63,105,4
3,63,0,716
3,61,105,4
3,61,0,476
3,59,105,4
3,59,0,236
3,59,105,4
3,59,0,236
3,61,105,4
3,61,0,236
3,59,105,4
3,59,0,244
3,63,105,6236
3,63,0,156
3,64,105,4
3,64,0,156
3,63,105,4
3,63,0,156
3,64,105,4
3,64,0,156
3,63,105,4
3,63,0,156
3,66,105,2
3,66,0,914
3,61,105,1480
3,61,0,236
3,61,105,4
3,61,0,476
3,63,105,4
3,63,0,236
3,61,105,4
3,61,0,2
3,64,105,4
3,64,0,958
3,64,105,1440
3,64,0,156
3,66,105,4
3,66,0,156
3,64,105,4
3,64,0,156
3,66,105,4
3,66,0,156
3,64,105,4
3,64,0,156
3,68,105,0
3,68,0,716
3,68,105,3364
3,68,0,476
3,68,105,4
3,68,0,476
3,68,105,4
3,68,0,236
3,66,105,4
3,66,0,236
3,68,105,4
3,68,0,236
3,64,105,4
3,64,0,236
3,66,105,4
3,66,0,236
3,66,105,4
3,66,0,476
3,63,105,4
3,63,0,4
3,68,105,220
3,68,0,476
3,68,105,4
3,68,0,476
3,68,105,4
3,68,0,236
3,66,105,4
3,66,0,236
3,68,105,4
3,68,0,236
3,64,105,4
3,64,0,236
3,66,105,4
3,66,0,236
3,66,105,4
3,66,0,476
3,63,105,4
3,63,0,128
3,68,105,1136
3,68,0,476
3,68,105,4
3,68,0,476
3,68,105,4
3,68,0,236
3,66,105,4
3,66,0,236
3,68,105,4
3,68,0,236
3,64,105,4
3,64,0,236
3,66,105,4
3,66,0,476
3,66,105,4
3,66,0,236
3,66,105,4
3,66,0,8
3,64,105,164
3,64,0,236
3,64,105,4
3,64,0,236
3,64,105,4
3,64,0,476
3,63,105,4
3,63,0,236
3,63,105,4
3,63,0,236
3,63,105,4
3,63,0,476
3,61,105,4
3,61,0,116
3,61,105,4
3,61,0,116
3,61,105,4
3,61,0,6
3,66,105,2
3,66,0,718
3,65,105,4
3,65,0,476
3,66,105,4
3,66,0,476
3,65,105,724
3,65,0,596
3,65,105,4
3,65,0,116
3,66,105,4
3,66,0,476
3,68,105,4
3,68,0,476
3,66,105,4
3,66,0,476
3,65,105,4
3,65,0,476
3,66,105,4
3,66,0,476
3,65,105,724
3,65,0,596
3,65,105,4
3,65,0,116
3,66,105,4
3,66,0,476
3,68,105,4
3,68,0,476
3,66,105,4
3,66,0,476
3,65,105,4
3,65,0,476
3,66,105,4
3,66,0,476
3,65,105,724
3,65,0,596
3,65,105,4
3,65,0,116
3,66,105,4
3,66,0,476
3,68,105,4
3,68,0,476
3,66,105,4
3,66,0,476
3,71,105,4
3,71,0,476
3,64,105,4
3,64,0,476
3,64,105,244
3,64,0,236
3,64,105,4
3,64,0,236
3,63,105,4
3,63,0,720
3,61,105,0
3,61,0,236
3,61,105,4
3,61,0,236
3,63,105,4
3,63,0,236
3,63,105,4
3,63,0,236
3,64,105,4
3,64,0,240
3,65,105,240
3,65,0,476
3,66,105,4
3,66,0,476
3,65,105,724
3,65,0,596
3,65,105,4
3,65,0,116
3,66,105,4
3,66,0,476
3,68,105,4
3,68,0,476
3,66,105,4
3,66,0,476
3,65,105,4
3,65,0,476
3,66,105,4
3,66,0,476
3,65,105,724
3,65,0,596
3,65,105,4
3,65,0,116
3,66,105,4
3,66,0,476
3,68,105,4
3,68,0,476
3,66,105,4
3,66,0,476
3,71,105,4
3,71,0,476
3,64,105,4
3,64,0,476
3,64,105,484
3,64,0,236
3,63,105,4
3,63,0,716
3,61,105,4
3,61,0,476
3,59,105,4
3,59,0,236
3,59,105,4
3,59,0,236
3,61,105,4
3,61,0,236
3,63,105,4
3,63,0,716
3,61,105,4
3,61,0,476
3,59,105,4
3,59,0,236
3,59,105,4
3,59,0,236
3,61,105,4
3,61,0,236
3,59,105,4
3,59,105,0
3,59,105,240
3,59,0,4
3,59,0,472
3,59,0,0
3,63,105,5764
3,63,0,156
3,64,105,4
3,64,0,156
3,63,105,4
3,63,0,156
3,64,105,4
3,64,0,156
3,63,105,4
3,63,0,156
3,66,105,0
3,66,0,716
3,61,105,1924
3,61,0,236
3,61,105,4
3,61,0,240
3,61,105,0
3,61,0,240
3,63,105,0
3,63,0,236
3,61,105,4
3,61,0,236
3,64,105,4
3,64,0,484
3,63,105,0
3,63,0,476
3,61,105,4
3,61,0,8
3,64,105,524
3,64,0,156
3,66,105,4
3,66,0,156
3,64,105,4
3,64,0,156
3,66,105,4
3,66,0,156
3,64,105,4
3,64,0,156
3,68,105,4
3,68,0,8
3,68,105,3188
3,68,0,476
3,68,105,4
3,68,0,476
3,68,105,4
3,68,0,236
3,66,105,4
3,66,0,236
3,68,105,4
3,68,0,236
3,64,105,4
3,64,0,236
3,66,105,4
3,66,0,236
3,66,105,4
3,66,0,476
3,63,105,4
3,63,0,84
3,68,105,156
3,68,0,476
3,68,105,4
3,68,0,476
3,68,105,4
3,68,0,236
3,66,105,4
3,66,0,236
3,68,105,4
3,68,0,236
3,64,105,4
3,64,0,236
3,66,105,4
3,66,0,236
3,66,105,4
3,66,0,476
3,63,105,4
3,63,0,8
3,68,105,1136
3,68,0,476
3,68,105,4
3,68,0,476
3,68,105,4
3,68,0,236
3,66,105,4
3,66,0,236
3,68,105,4
3,68,0,236
3,64,105,4
3,64,0,236
3,66,105,4
3,66,0,476
3,66,105,4
3,66,0,236
3,66,105,4
3,66,0,16
3,64,105,252
3,64,0,236
3,64,105,4
3,64,0,236
3,64,105,4
3,64,0,476
3,63,105,4
3,63,0,236
3,63,105,4
3,63,0,236
3,63,105,4
3,63,0,476
3,61,105,4
3,61,0,116
3,61,105,4
3,61,0,116
3,61,105,4
3,61,0,4
3,66,105,0
3,66,0,804
3,65,105,4
3,65,0,476
3,66,105,4
3,66,0,476
3,65,105,724
3,65,0,596
3,65,105,4
3,65,0,116
3,66,105,4
3,66,0,476
3,68,105,4
3,68,0,476
3,66,105,4
3,66,0,476
3,65,105,4
3,65,0,476
3,66,105,4
3,66,0,476
3,65,105,724
3,65,0,596
3,65,105,4
3,65,0,116
3,66,105,4
3,66,0,476
3,68,105,4
3,68,0,476
3,66,105,4
3,66,0,476
3,65,105,4
3,65,0,476
3,66,105,4
3,66,0,476
3,65,105,724
3,65,0,596
3,65,105,4
3,65,0,116
3,66,105,4
3,66,0,476
3,68,105,4
3,68,0,476
3,66,105,4
3,66,0,476
3,71,105,4
3,71,0,476
3,64,105,4
3,64,0,476
3,64,105,244
3,64,0,236
3,64,105,4
3,64,0,236
3,63,105,4
3,63,0,716
3,61,105,4
3,61,0,236
3,61,105,4
3,61,0,236
3,63,105,4
3,63,0,236
3,63,105,4
3,63,0,236
3,64,105,4
3,64,0,476
3,65,105,4
3,65,0,476
3,66,105,4
3,66,0,476
3,65,105,724
3,65,0,596
3,65,105,4
3,65,0,116
3,66,105,4
3,66,0,476
3,68,105,4
3,68,0,476
3,66,105,4
3,66,0,476
3,65,105,4
3,65,0,476
3,66,105,4
3,66,0,476
3,65,105,724
3,65,0,596
3,65,105,4
3,65,0,116
3,66,105,4
3,66,0,476
3,68,105,4
3,68,0,476
3,66,105,4
3,66,0,476
3,71,105,4
3,71,0,476
3,64,105,4
3,64,0,476
3,64,105,484
3,64,0,236
3,63,105,4
3,63,0,716
3,61,105,4
3,61,0,476
3,59,105,4
3,59,0,236
3,59,105,4
3,59,0,236
3,61,105,4
3,61,0,236
3,63,105,4
3,63,0,716
3,61,105,4
3,61,0,476
3,63,105,4
3,63,0,236
3,63,105,4
3,63,0,236
3,64,105,4
3,64,0,476
3,65,105,4
3,65,0,476
3,66,105,4
3,66,0,476
3,65,105,724
3,65,0,596
3,65,105,4
3,65,0,116
3,66,105,4
3,66,0,476
3,68,105,4
3,68,0,476
3,66,105,4
3,66,0,476
3,65,105,4
3,65,0,476
3,66,105,4
3,66,0,476
3,65,105,724
3,65,0,596
3,65,105,4
3,65,0,116
3,66,105,4
3,66,0,476
3,68,105,4
3,68,0,476
3,66,105,4
3,66,0,476
3,71,105,4
3,71,0,476
3,64,105,4
3,64,0,476
3,64,105,400
3,64,0,236
3,63,105,4
3,63,0,716
3,61,105,4
3,61,0,476
3,59,105,4
3,59,0,236
3,59,105,4
3,59,0,236
3,61,105,4
3,61,0,236
3,63,105,4
3,63,0,716
3,61,105,4
3,61,0,476
3,63,105,4
3,63,0,236
3,63,105,4
3,63,0,236
3,64,105,4
3,64,0,476
3,65,105,4
3,65,0,476
3,66,105,4
3,66,0,476
3,65,105,512
3,65,0,216
3,65,105,4
3,65,0,96
3,66,105,4
3,66,0,68
3,68,105,4
3,68,0,16
3,66,105,4
3,66,0,36
3,65,105,4
3,65,0,148
3,66,105,4
3,66,0,216
3,65,105,52
3,65,0,176
3,65,105,4
3,65,0,116
3,66,105,4
3,66,0,476
3,68,105,4
3,68,0,476
3,66,105,4
3,66,0,156
3,71,105,4
3,71,0,428
3,64,105,4
3,64,0,136
3,64,105,484
3,64,0,236
3,63,105,4
3,63,0,616
3,61,105,4
3,61,0,316
3,59,105,4
3,59,0,236
3,59,105,4
3,59,0,236
3,61,105,4
3,61,0,236
3,63,105,4
3,63,0,36
3,61,105,4
3,61,0,476
3,63,105,4
3,63,0,72
3,63,105,4
3,63,0,236
3,64,105,4
3,64,0,244
3,65,105,4
3,65,0,476
3,66,105,4
3,66,0,356
3,65,105,0
3,65,0,596
3,65,105,4
3,65,0,116
3,66,105,4
3,66,0,476
3,68,105,4
3,68,0,208
3,66,105,4
3,66,0,476
3,65,105,4
3,65,0,176
3,66,105,4
3,66,0,396
3,65,105,724
3,65,0,596
3,65,105,4
3,65,0,116
3,66,105,4
3,66,0,476
3,68,105,4
3,68,0,48
3,66,105,4
3,66,0,476
4,47,85,17280
4,47,0,716
4,47,85,4
4,47,0,236
4,47,85,4
4,47,0,716
4,47,85,4
4,47,0,476
4,47,85,4
4,47,0,476
4,47,85,4
4,47,0,236
4,47,85,4
4,47,0,476
4,47,85,4
4,47,0,476
4,46,85,4
4,46,0,716
4,46,85,4
4,46,0,236
4,46,85,4
4,46,0,716
4,46,85,4
4,46,0,476
4,46,85,4
4,46,0,476
4,46,85,4
4,46,0,236
4,46,85,4
4,46,0,476
4,46,85,4
4,46,0,476
4,40,85,4
4,40,0,716
4,40,85,4
4,40,0,236
4,40,85,4
4,40,0,236
4,44,85,4
4,44,0,236
4,47,85,4
4,47,0,236
4,49,85,4
4,49,0,476
4,49,85,4
4,49,0,476
4,49,85,4
4,49,0,476
4,49,85,4
4,49,0,236
4,40,85,4
4,40,0,236
4,42,85,4
4,42,0,476
4,42,85,4
4,42,0,476
4,42,85,4
4,42,0,476
4,42,85,4
4,42,0,236
4,42,85,4
4,42,0,236
4,47,85,4
4,47,0,1676
4,47,85,244
4,47,0,1676
4,47,85,244
4,47,0,1676
4,47,85,244
4,47,0,244
4,42,85,1916
4,42,0,476
4,42,85,4
4,42,0,476
4,42,85,4
4,42,0,476
4,42,85,4
4,42,0,476
4,42,85,4
4,42,0,476
4,42,85,4
4,42,0,476
4,42,85,4
4,42,0,476
4,42,85,4
4,42,0,476
4,49,85,4
4,49,0,476
4,49,85,4
4,49,0,476
4,49,85,4
4,49,0,476
4,49,85,4
4,49,0,476
4,49,85,4
4,49,0,476
4,49,85,4
4,49,0,476
4,49,85,4
4,49,0,476
4,49,85,4
4,49,0,476
4,49,85,4
4,49,0,476
4,49,85,4
4,49,0,476
4,49,85,4
4,49,0,476
4,49,85,4
4,49,0,476
4,44,85,4
4,44,0,476
4,44,85,4
4,44,0,476
4,44,85,4
4,44,0,476
4,44,85,4
4,44,0,476
4,52,85,4
4,52,0,476
4,52,85,4
4,52,0,476
4,52,85,4
4,52,0,476
4,52,85,4
4,52,0,476
4,51,85,4
4,51,0,476
4,51,85,4
4,51,0,476
4,49,85,4
4,49,0,236
4,56,85,4
4,56,0,716
4,52,85,4
4,52,0,476
4,52,85,4
4,52,0,476
4,52,85,4
4,52,0,476
4,52,85,4
4,52,0,476
4,51,85,4
4,51,0,476
4,51,85,4
4,51,0,476
4,49,85,4
4,49,0,356
4,44,85,4
4,44,0,116
4,47,85,4
4,47,0,356
4,44,85,4
4,44,0,116
4,47,85,4
4,47,0,476
4,49,85,4
4,49,0,476
4,52,85,4
4,52,0,476
4,52,85,4
4,52,0,476
4,52,85,4
4,52,0,476
4,52,85,4
4,52,0,476
4,51,85,4
4,51,0,476
4,51,85,4
4,51,0,476
4,51,85,4
4,51,0,476
4,51,85,4
4,51,0,476
4,49,85,4
4,49,0,956
4,47,85,4
4,47,0,956
4,45,85,4
4,45,0,1916
4,47,85,1924
4,47,0,716
4,47,85,4
4,47,0,236
4,47,85,4
4,47,0,716
4,47,85,4
4,47,0,476
4,47,85,4
4,47,0,476
4,47,85,4
4,47,0,236
4,47,85,4
4,47,0,476
4,47,85,4
4,47,0,476
4,46,85,4
4,46,0,716
4,46,85,4
4,46,0,236
4,46,85,4
4,46,0,716
4,46,85,4
4,46,0,476
4,46,85,4
4,46,0,476
4,46,85,4
4,46,0,236
4,46,85,4
4,46,0,476
4,46,85,4
4,46,0,476
4,45,85,4
4,45,0,716
4,45,85,4
4,45,0,236
4,45,85,4
4,45,0,716
4,45,85,4
4,45,0,476
4,45,85,4
4,45,0,476
4,45,85,4
4,45,0,236
4,45,85,4
4,45,0,476
4,45,85,4
4,45,0,476
4,52,85,4
4,52,0,716
4,52,85,4
4,52,0,236
4,52,85,4
4,52,0,476
4,40,85,4
4,40,0,476
4,42,85,4
4,42,0,356
4,42,85,4
4,42,0,116
4,42,85,4
4,42,0,476
4,42,85,4
4,42,0,476
4,42,85,4
4,42,0,476
4,47,85,4
4,47,0,716
4,47,85,4
4,47,0,236
4,47,85,4
4,47,0,716
4,47,85,4
4,47,0,476
4,47,85,4
4,47,0,476
4,47,85,4
4,47,0,236
4,47,85,4
4,47,0,476
4,47,85,4
4,47,0,476
4,46,85,4
4,46,0,716
4,46,85,4
4,46,0,236
4,46,85,4
4,46,0,716
4,46,85,4
4,46,0,476
4,46,85,4
4,46,0,476
4,46,85,4
4,46,0,236
4,46,85,4
4,46,0,476
4,46,85,4
4,46,0,476
4,40,85,4
4,40,0,716
4,40,85,4
4,40,0,236
4,40,85,4
4,40,0,236
4,44,85,4
4,44,0,236
