track,note,velocity,time
1,35,101,7296
1,35,104,222
1,35,104,190
1,35,104,220
1,35,104,226
1,35,104,242
1,35,104,250
1,35,104,212
1,35,101,176
1,35,104,222
1,35,104,190
1,35,104,220
1,35,104,226
1,35,104,242
1,35,104,250
1,35,104,212
1,35,101,176
1,35,104,222
1,35,104,190
1,35,104,220
1,35,104,226
1,35,104,242
1,35,104,250
1,35,104,212
1,35,101,176
1,35,104,222
1,35,104,190
1,35,104,220
1,35,104,226
1,35,104,242
1,35,104,250
1,35,104,212
1,35,101,176
1,35,104,222
1,35,104,190
1,35,104,220
1,35,104,226
1,35,104,242
1,35,104,250
1,35,104,212
1,35,101,176
1,35,104,222
1,35,104,190
1,35,104,220
1,35,104,226
1,35,104,242
1,35,104,250
1,35,104,212
1,35,101,176
1,35,104,222
1,35,104,190
1,35,104,220
1,35,104,226
1,35,104,242
1,35,104,250
1,35,104,212
1,35,101,176
1,35,104,222
1,35,104,190
1,35,104,220
1,35,104,226
1,35,104,242
1,35,104,250
1,35,104,212
1,35,104,176
1,35,110,3968
1,35,101,6
1,35,104,222
1,35,104,190
1,35,104,220
1,35,104,226
1,35,104,242
1,35,104,250
1,35,104,212
1,35,101,176
1,35,104,222
1,35,104,190
1,35,104,220
1,35,104,226
1,35,104,242
1,35,104,250
1,35,104,212
1,35,101,176
1,35,104,222
1,35,104,190
1,35,104,220
1,35,104,226
1,35,104,242
1,35,104,250
1,35,104,212
1,35,101,176
1,35,104,222
1,35,104,190
1,35,104,220
1,35,104,226
1,35,104,242
1,35,104,250
1,35,104,212
1,35,101,176
1,35,104,222
1,35,104,190
1,35,104,220
1,35,104,226
1,35,104,242
1,35,104,250
1,35,104,212
1,35,101,176
1,35,104,222
1,35,104,190
1,35,104,220
1,35,104,226
1,35,104,242
1,35,104,250
1,35,104,212
1,35,101,176
1,35,104,222
1,35,104,190
1,35,104,220
1,35,104,226
1,35,104,242
1,35,104,250
1,35,104,212
1,35,101,4784
1,35,104,222
1,35,104,190
1,35,104,220
1,35,104,226
1,35,104,242
1,35,104,250
1,35,104,212
1,35,101,176
1,35,104,222
1,35,104,190
1,35,104,220
1,35,104,226
1,35,104,242
1,35,104,250
1,35,104,212
1,35,101,176
1,35,104,222
1,35,104,190
1,35,104,220
1,35,104,226
1,35,104,242
1,35,104,250
1,35,104,212
1,35,101,176
1,35,104,222
1,35,104,190
1,35,104,220
1,35,104,226
1,35,104,242
1,35,104,250
1,35,104,212
1,35,101,176
1,35,104,222
1,35,104,190
1,35,104,220
1,35,104,226
1,35,104,242
1,35,104,250
1,35,104,212
1,35,101,176
1,35,104,222
1,35,104,190
1,35,104,220
1,35,104,226
1,35,104,242
1,35,104,250
1,35,104,212
1,35,101,176
1,35,104,222
1,35,104,190
1,35,104,220
1,35,104,226
1,35,104,242
1,35,104,250
1,35,104,212
1,35,101,176
1,35,104,222
1,35,104,190
1,35,104,220
1,35,104,226
1,35,104,242
1,35,104,250
1,35,104,212
1,35,104,176
1,35,110,3968
1,35,101,6
1,35,104,222
1,35,104,190
1,35,104,220
1,35,104,226
1,35,104,242
1,35,104,250
1,35,104,212
1,35,101,176
1,35,104,222
1,35,104,190
1,35,104,220
1,35,104,226
1,35,104,242
1,35,104,250
1,35,104,212
1,35,101,176
1,35,104,222
1,35,104,190
1,35,104,220
1,35,104,226
1,35,104,242
1,35,104,250
1,35,104,212
1,35,101,176
1,35,104,222
1,35,104,190
1,35,104,220
1,35,104,226
1,35,104,242
1,35,104,250
1,35,104,212
1,35,101,176
1,35,104,222
1,35,104,190
1,35,104,220
1,35,104,226
1,35,104,242
1,35,104,250
1,35,104,212
1,35,101,176
1,35,104,222
1,35,104,190
1,35,104,220
1,35,104,226
1,35,104,242
1,35,104,250
1,35,104,212
1,35,101,176
1,35,104,222
1,35,104,190
1,35,104,220
1,35,104,226
1,35,104,242
1,35,104,250
1,35,104,212
1,35,110,2864
1,35,101,6
1,35,104,222
1,35,104,190
1,35,104,220
1,35,104,226
1,35,104,242
1,35,104,250
1,35,104,212
1,35,101,176
1,35,104,222
1,35,104,190
1,35,104,220
1,35,104,226
1,35,104,242
1,35,104,250
1,35,104,212
1,35,101,176
1,35,104,222
1,35,104,190
1,35,104,220
1,35,104,226
1,35,104,242
1,35,104,250
1,35,104,212
1,35,101,176
1,35,104,222
1,35,104,190
1,35,104,220
1,35,104,226
1,35,104,242
1,35,104,250
1,35,104,212
1,35,101,176
1,35,104,222
1,35,104,190
1,35,104,220
1,35,104,226
1,35,104,242
1,35,104,250
1,35,104,212
1,35,101,176
1,35,104,222
1,35,104,190
1,35,104,220
1,35,104,226
1,35,104,242
1,35,104,250
1,35,104,212
1,35,101,176
1,35,104,222
1,35,104,190
1,35,104,220
1,35,104,226
1,35,104,242
1,35,104,250
1,35,104,212
1,35,110,4784
2,38,104,11132
2,38,101,462
2,38,101,388
2,38,104,372
2,38,101,390
2,38,101,380
2,38,101,364
2,38,104,400
2,38,104,528
2,38,101,462
2,38,101,388
2,38,104,372
2,38,101,390
2,38,101,380
2,38,101,364
2,38,104,400
2,38,104,528
2,38,101,462
2,38,101,388
2,38,104,372
2,38,101,390
2,38,101,380
2,38,101,364
2,38,104,400
2,38,104,528
2,38,101,462
2,38,101,388
2,38,104,372
2,38,104,6
2,38,110,3974
2,38,104,396
2,38,101,462
2,38,101,388
2,38,104,372
2,38,104,390
2,38,101,462
2,38,101,388
2,38,104,372
2,38,104,390
2,38,101,462
2,38,101,388
2,38,104,372
2,38,104,390
2,38,101,462
2,38,101,388
2,38,104,372
2,38,104,390
2,38,101,462
2,38,101,388
2,38,104,372
2,38,104,390
2,38,101,462
2,38,101,388
2,38,104,372
2,38,104,390
2,38,101,462
2,38,101,388
2,38,104,372
2,38,104,8070
2,38,101,462
2,38,101,388
2,38,104,372
2,38,101,390
2,38,101,380
2,38,101,364
2,38,104,400
2,38,104,528
2,38,101,462
2,38,101,388
2,38,104,372
2,38,101,390
2,38,101,380
2,38,101,364
2,38,104,400
2,38,104,528
2,38,101,462
2,38,101,388
2,38,104,372
2,38,101,390
2,38,101,380
2,38,101,364
2,38,104,400
2,38,104,528
2,38,101,462
2,38,101,388
2,38,104,372
2,38,104,6
2,38,110,3974
2,38,104,396
2,38,101,462
2,38,101,388
2,38,104,372
2,38,104,390
2,38,101,462
2,38,101,388
2,38,104,372
2,38,104,390
2,38,101,462
2,38,101,388
2,38,104,372
2,38,104,390
2,38,101,462
2,38,101,388
2,38,104,372
2,38,104,390
2,38,101,462
2,38,101,388
2,38,104,372
2,38,104,390
2,38,101,462
2,38,101,388
2,38,104,372
2,38,104,390
2,38,101,462
2,38,101,388
2,38,104,372
2,38,110,2694
2,38,104,396
2,38,101,462
2,38,101,388
2,38,104,372
2,38,104,390
2,38,101,462
2,38,101,388
2,38,104,372
2,38,104,390
2,38,101,462
2,38,101,388
2,38,104,372
2,38,104,390
2,38,101,462
2,38,101,388
2,38,104,372
2,38,104,390
2,38,101,462
2,38,101,388
2,38,104,372
2,38,104,390
2,38,101,462
2,38,101,388
2,38,104,372
2,38,104,390
2,38,101,462
2,38,101,388
2,38,104,372
2,38,110,4614
3,42,83,10748
3,42,70,80
3,42,86,128
3,42,87,100
3,42,86,142
3,42,60,96
3,42,89,142
3,42,64,84
3,42,86,118
3,42,71,102
3,42,92,114
3,42,77,76
3,42,89,98
3,42,68,78
3,42,95,98
3,42,62,68
3,42,89,90
3,42,64,74
3,42,95,100
3,42,64,58
3,42,89,98
3,42,66,86
3,42,89,94
3,42,86,78
3,42,89,88
3,42,77,76
3,42,89,96
3,42,80,68
3,42,89,92
3,42,86,70
3,42,92,96
3,42,89,76
3,42,83,74
3,42,70,80
3,42,86,128
3,42,87,100
3,42,86,142
3,42,60,96
3,42,89,142
3,42,64,84
3,42,86,118
3,42,71,102
3,42,92,114
3,42,77,76
3,42,89,98
3,42,68,78
3,42,95,98
3,42,62,68
3,42,89,90
3,42,64,74
3,42,95,100
3,42,64,58
3,42,89,98
3,42,66,86
3,42,89,94
3,42,86,78
3,42,89,88
3,42,77,76
3,42,89,96
3,42,80,68
3,42,89,92
3,42,86,70
3,42,92,96
3,42,89,76
3,42,83,74
3,42,70,80
3,42,86,128
3,42,87,100
3,42,86,142
3,42,60,96
3,42,89,142
3,42,64,84
3,42,86,118
3,42,71,102
3,42,92,114
3,42,77,76
3,42,89,98
3,42,68,78
3,42,95,98
3,42,62,68
3,42,89,90
3,42,64,74
3,42,95,100
3,42,64,58
3,42,89,98
3,42,66,86
3,42,89,94
3,42,86,78
3,42,89,88
3,42,77,76
3,42,89,96
3,42,80,68
3,42,89,92
3,42,86,70
3,42,92,96
3,42,89,76
3,42,83,74
3,42,70,80
3,42,86,128
3,42,87,100
3,42,86,142
3,42,60,96
3,42,89,142
3,42,64,84
3,42,86,118
3,42,71,102
3,42,92,114
3,42,77,76
3,42,89,98
3,42,68,78
3,42,95,98
3,42,62,68
3,42,92,90
3,44,95,3952
3,42,83,76
3,42,70,80
3,42,86,128
3,42,87,100
3,42,86,142
3,42,60,96
3,42,89,142
3,42,64,84
3,42,86,118
3,42,71,102
3,42,92,114
3,42,77,76
3,42,89,98
3,42,68,78
3,42,95,98
3,42,62,68
3,42,83,90
3,42,70,80
3,42,86,128
3,42,87,100
3,42,86,142
3,42,60,96
3,42,89,142
3,42,64,84
3,42,86,118
3,42,71,102
3,42,92,114
3,42,77,76
3,42,89,98
3,42,68,78
3,42,95,98
3,42,62,68
3,42,83,90
3,42,70,80
3,42,86,128
3,42,87,100
3,42,86,142
3,42,60,96
3,42,89,142
3,42,64,84
3,42,86,118
3,42,71,102
3,42,92,114
3,42,77,76
3,42,89,98
3,42,68,78
3,42,95,98
3,42,62,68
3,42,83,90
3,42,70,80
3,42,86,128
3,42,87,100
3,42,86,142
3,42,60,96
3,42,89,142
3,42,64,84
3,42,86,118
3,42,71,102
3,42,92,114
3,42,77,76
3,42,89,98
3,42,68,78
3,42,95,98
3,42,62,68
3,42,89,90
3,42,86,394
3,44,98,100
3,42,92,546
3,42,89,406
3,44,98,100
3,42,89,528
3,42,86,394
3,44,98,100
3,42,92,546
3,42,89,406
3,44,98,100
3,42,83,528
3,42,70,80
3,42,86,128
3,42,87,100
3,42,86,142
3,42,60,96
3,42,89,142
3,42,64,84
3,42,86,118
3,42,71,102
3,42,92,114
3,42,77,76
3,42,89,98
3,42,68,78
3,42,95,98
3,42,62,68
3,42,83,7770
3,42,70,80
3,42,86,128
3,42,87,100
3,42,86,142
3,42,60,96
3,42,89,142
3,42,64,84
3,42,86,118
3,42,71,102
3,42,92,114
3,42,77,76
3,42,89,98
3,42,68,78
3,42,95,98
3,42,62,68
3,42,89,90
3,42,64,74
3,42,95,100
3,42,64,58
3,42,89,98
3,42,66,86
3,42,89,94
3,42,86,78
3,42,89,88
3,42,77,76
3,42,89,96
3,42,80,68
3,42,89,92
3,42,86,70
3,42,92,96
3,42,89,76
3,42,83,74
3,42,70,80
3,42,86,128
3,42,87,100
3,42,86,142
3,42,60,96
3,42,89,142
3,42,64,84
3,42,86,118
3,42,71,102
3,42,92,114
3,42,77,76
3,42,89,98
3,42,68,78
3,42,95,98
3,42,62,68
3,42,89,90
3,42,64,74
3,42,95,100
3,42,64,58
3,42,89,98
3,42,66,86
3,42,89,94
3,42,86,78
3,42,89,88
3,42,77,76
3,42,89,96
3,42,80,68
3,42,89,92
3,42,86,70
3,42,92,96
3,42,89,76
3,42,83,74
3,42,70,80
3,42,86,128
3,42,87,100
3,42,86,142
3,42,60,96
3,42,89,142
3,42,64,84
3,42,86,118
3,42,71,102
3,42,92,114
3,42,77,76
3,42,89,98
3,42,68,78
3,42,95,98
3,42,62,68
3,42,89,90
3,42,64,74
3,42,95,100
3,42,64,58
3,42,89,98
3,42,66,86
3,42,89,94
3,42,86,78
3,42,89,88
3,42,77,76
3,42,89,96
3,42,80,68
3,42,89,92
3,42,86,70
3,42,92,96
3,42,89,76
3,42,83,74
3,42,70,80
3,42,86,128
3,42,87,100
3,42,86,142
3,42,60,96
3,42,89,142
3,42,64,84
3,42,86,118
3,42,71,102
3,42,92,114
3,42,77,76
3,42,89,98
3,42,68,78
3,42,95,98
3,42,62,68
3,42,92,90
3,44,95,3952
3,42,83,76
3,42,70,80
3,42,86,128
3,42,87,100
3,42,86,142
3,42,60,96
3,42,89,142
3,42,64,84
3,42,86,118
3,42,71,102
3,42,92,114
3,42,77,76
3,42,89,98
3,42,68,78
3,42,95,98
3,42,62,68
3,42,83,90
3,42,70,80
3,42,86,128
3,42,87,100
3,42,86,142
3,42,60,96
3,42,89,142
3,42,64,84
3,42,86,118
3,42,71,102
3,42,92,114
3,42,77,76
3,42,89,98
3,42,68,78
3,42,95,98
3,42,62,68
3,42,83,90
3,42,70,80
3,42,86,128
3,42,87,100
3,42,86,142
3,42,60,96
3,42,89,142
3,42,64,84
3,42,86,118
3,42,71,102
3,42,92,114
3,42,77,76
3,42,89,98
3,42,68,78
3,42,95,98
3,42,62,68
3,42,83,90
3,42,70,80
3,42,86,128
3,42,87,100
3,42,86,142
3,42,60,96
3,42,89,142
3,42,64,84
3,42,86,118
3,42,71,102
3,42,92,114
3,42,77,76
3,42,89,98
3,42,68,78
3,42,95,98
3,42,62,68
3,42,89,90
3,42,86,394
3,44,98,100
3,42,92,546
3,42,89,406
3,44,98,100
3,42,89,528
3,42,86,394
3,44,98,100
3,42,92,546
3,42,89,406
3,44,98,100
3,42,83,528
3,42,70,80
3,42,86,128
3,42,87,100
3,42,86,142
3,42,60,96
3,42,89,142
3,42,64,84
3,42,86,118
3,42,71,102
3,42,92,114
3,42,77,76
3,42,89,98
3,42,68,78
3,42,95,98
3,42,62,68
3,44,95,2782
3,42,83,76
3,42,70,80
3,42,86,128
3,42,87,100
3,42,86,142
3,42,60,96
3,42,89,142
3,42,64,84
3,42,86,118
3,42,71,102
3,42,92,114
3,42,77,76
3,42,89,98
3,42,68,78
3,42,95,98
3,42,62,68
3,42,83,90
3,42,70,80
3,42,86,128
3,42,87,100
3,42,86,142
3,42,60,96
3,42,89,142
3,42,64,84
3,42,86,118
3,42,71,102
3,42,92,114
3,42,77,76
3,42,89,98
3,42,68,78
3,42,95,98
3,42,62,68
3,42,83,90
3,42,70,80
3,42,86,128
3,42,87,100
3,42,86,142
3,42,60,96
3,42,89,142
3,42,64,84
3,42,86,118
3,42,71,102
3,42,92,114
3,42,77,76
3,42,89,98
3,42,68,78
3,42,95,98
3,42,62,68
3,42,83,90
3,42,70,80
3,42,86,128
3,42,87,100
3,42,86,142
3,42,60,96
3,42,89,142
3,42,64,84
3,42,86,118
3,42,71,102
3,42,92,114
3,42,77,76
3,42,89,98
3,42,68,78
3,42,95,98
3,42,62,68
3,42,89,90
3,42,86,394
3,44,98,100
3,42,92,546
3,42,89,406
3,44,98,100
3,42,89,528
3,42,86,394
3,44,98,100
3,42,92,546
3,42,89,406
3,44,98,100
3,42,83,528
3,42,70,80
3,42,86,128
3,42,87,100
3,42,86,142
3,42,60,96
3,42,89,142
3,42,64,84
3,42,86,118
3,42,71,102
3,42,92,114
3,42,77,76
3,42,89,98
3,42,68,78
3,42,95,98
3,42,62,68
4,50,127,36480
4,50,107,17686
4,43,107,188
4,50,127,36644
4,43,127,22
4,50,107,17362
4,43,107,188
4,50,127,5924
4,50,107,17686
4,43,107,188
4,43,110,7844
5,54,80,36862
5,54,83,36
5,54,77,52
5,54,86,22
5,54,86,46
5,54,86,20
5,54,86,26
5,54,83,20
5,54,80,42
5,54,89,20
5,54,83,34
5,54,90,24
5,54,83,46
5,54,89,20
5,54,92,26
5,54,97,26
5,54,80,34
5,54,83,36
5,54,77,52
5,54,86,22
5,54,86,46
5,54,86,20
5,54,86,26
5,54,83,20
5,54,80,42
5,54,89,20
5,54,83,34
5,54,90,24
5,54,83,46
5,54,89,20
5,54,92,26
5,54,97,26
5,54,80,34
5,54,83,36
5,54,77,52
5,54,86,22
