track,note,velocity,time
0,65,83,944
0,57,86,0
0,60,104,0
0,29,113,0
0,53,127,0
0,65,101,0
0,60,117,0
0,41,91,0
0,57,101,0
0,53,79,0
0,77,127,0
0,77,77,0
0,69,91,0
0,72,108,0
0,36,122,0
0,42,104,0
0,72,77,96
0,69,71,0
0,77,75,0
0,42,83,0
0,60,101,64
0,57,86,0
0,65,83,0
0,33,79,0
0,77,71,0
0,69,86,0
0,72,108,0
0,38,127,0
0,42,110,0
0,36,91,32
0,77,70,0
0,69,73,0
0,72,79,0
0,42,91,0
0,60,108,120
0,65,79,0
0,57,94,0
0,29,101,0
0,77,77,0
0,72,101,0
0,69,83,0
0,36,117,0
0,42,110,0
0,77,73,16
0,72,94,0
0,69,70,0
0,42,87,0
0,60,113,32
0,65,79,0
0,57,97,0
0,33,108,0
0,77,73,0
0,69,91,0
0,72,108,0
0,38,122,0
0,42,110,0
0,36,91,12
0,77,77,0
0,69,88,0
0,72,108,0
0,42,87,0
0,60,113,48
0,65,86,0
0,57,91,0
0,29,113,0
0,77,79,0
0,69,101,0
0,72,117,0
0,36,113,0
0,42,110,0
0,77,75,0
0,69,83,0
0,72,104,0
0,42,91,0
0,65,91,64
0,60,113,0
0,57,94,0
0,33,113,0
0,69,88,0
0,72,108,0
0,38,117,0
0,42,104,0
0,36,101,116
0,77,79,0
0,69,88,0
0,72,108,0
0,42,91,0
0,53,62,24
0,60,117,96
0,65,81,0
0,57,97,0
0,29,117,0
0,53,127,0
0,77,127,0
0,77,75,0
0,69,91,0
0,72,113,0
0,36,117,0
0,42,110,0
0,55,127,8
0,57,94,0
0,79,127,0
0,77,77,0
0,69,91,0
0,72,108,0
0,42,95,0
0,65,94,120
0,60,122,0
0,57,104,0
0,33,108,0
0,53,127,0
0,77,127,0
0,69,88,0
0,72,108,0
0,38,122,0
0,42,110,0
0,36,104,8
0,69,88,0
0,77,70,0
0,72,108,0
0,42,100,0
0,65,117,16
0,62,94,0
0,58,76,0
0,66,50,0
0,34,100,0
0,46,110,0
0,46,83,0
0,65,86,0
0,58,68,0
0,62,108,0
0,70,110,0
0,65,94,0
0,74,86,0
0,70,100,0
0,36,117,0
0,42,110,0
0,74,88,8
0,65,75,0
0,70,83,0
0,42,95,0
0,58,91,8
0,65,113,0
0,62,122,0
0,38,113,0
0,74,88,0
0,65,88,0
0,70,91,0
0,38,127,0
0,42,110,0
0,41,104,112
0,74,86,0
0,65,83,0
0,70,91,0
0,42,104,0
0,62,122,128
0,58,87,0
0,65,117,0
0,34,100,0
0,74,86,0
0,65,86,0
0,70,95,0
0,36,113,0
0,42,110,0
0,74,86,116
0,65,83,0
0,70,91,0
0,42,104,0
0,62,127,124
0,58,91,0
0,65,117,0
0,38,104,0
0,74,79,0
0,65,86,0
0,70,95,0
0,38,122,0
0,42,110,0
0,41,104,104
0,74,83,0
0,65,86,0
0,70,91,0
0,42,100,0
0,62,122,8
0,58,87,0
0,65,113,0
0,34,110,0
0,46,127,0
0,70,127,0
0,74,83,0
0,65,91,0
0,70,100,0
0,38,122,0
0,42,104,0
0,46,110,100
0,70,110,0
0,74,88,0
0,65,83,0
0,70,95,0
0,38,77,0
0,42,95,0
0,62,127,4
0,65,113,0
0,58,91,0
0,38,97,0
0,46,127,0
0,70,127,0
0,74,86,0
0,65,88,0
0,70,95,0
0,42,104,0
0,38,91,0
0,41,117,8
0,46,127,0
0,70,127,0
0,74,86,0
0,70,95,0
0,65,88,0
0,42,100,0
0,38,83,0
0,62,122,20
0,65,113,0
0,58,91,0
0,38,117,0
0,46,127,0
0,70,127,0
0,74,104,0
0,70,110,0
0,65,108,0
0,42,110,0
0,38,113,0
0,48,113,36
0,60,127,96
0,64,113,0
0,55,113,0
0,36,127,0
0,48,127,0
0,55,108,0
0,60,122,0
0,64,117,0
0,72,127,0
0,76,94,0
0,72,127,0
0,67,117,0
0,42,127,0
0,38,127,0
0,65,104,156
0,69,94,0
0,60,94,0
0,29,122,0
0,65,101,0
0,69,91,0
0,60,86,0
0,77,108,0
0,72,113,0
0,69,101,0
0,36,122,0
0,42,104,0
0,77,75,24
0,69,73,0
0,72,91,0
0,42,83,0
0,65,104,16
0,60,91,0
0,69,91,0
0,33,108,0
0,77,75,0
0,69,91,0
0,72,108,0
0,77,127,0
0,38,127,0
0,42,110,0
0,36,117,48
0,77,62,0
0,69,79,0
0,72,86,0
0,77,122,0
0,42,91,0
0,65,113,8
0,69,97,0
0,60,91,0
0,29,108,0
0,77,70,0
0,69,83,0
0,72,83,0
0,76,127,0
0,36,117,0
0,42,110,0
0,77,64,0
0,69,71,0
0,72,75,0
0,77,127,0
0,42,87,0
0,65,108,4
0,60,88,0
0,69,83,0
0,33,104,0
0,77,71,0
0,69,88,0
0,38,122,0
0,42,110,0
0,36,108,104
0,77,73,0
0,69,77,0
0,72,81,0
0,81,127,0
0,42,87,0
0,65,113,16
0,60,88,0
0,69,88,0
0,29,117,0
0,77,70,0
0,69,86,0
0,72,101,0
0,36,113,0
0,42,110,0
0,77,70,96
0,69,75,0
0,72,79,0
0,77,127,0
0,42,91,0
0,65,117,8
0,60,83,0
0,69,77,0
0,33,88,0
0,77,73,0
0,69,83,0
0,72,94,0
0,38,117,0
0,42,104,0
0,36,94,112
0,77,73,0
0,69,79,0
0,72,88,0
0,76,127,0
0,42,91,0
0,69,97,116
0,65,113,0
0,60,88,0
0,29,113,0
0,77,73,0
0,69,86,0
0,72,91,0
0,36,117,0
0,42,110,0
0,77,67,4
0,69,77,0
0,72,77,0
0,77,122,0
0,42,95,0
0,65,117,8
0,69,88,0
0,60,94,0
0,33,88,0
0,77,70,0
0,69,86,0
0,72,97,0
0,38,122,0
0,42,110,0
0,36,113,24
0,69,83,0
0,77,68,0
0,72,101,0
0,72,108,0
0,42,100,0
0,65,101,36
0,70,100,8
0,62,94,0
0,65,113,0
0,34,104,0
0,62,73,0
0,70,80,0
0,74,91,0
0,70,100,0
0,65,88,0
0,74,117,0
0,36,117,0
0,42,110,0
0,74,79,28
0,65,70,0
0,70,68,0
0,42,95,0
0,62,91,4
0,70,95,0
0,65,127,0
0,38,108,0
0,74,86,0
0,65,79,0
0,70,87,0
0,77,122,0
0,38,127,0
0,42,110,0
0,41,108,12
0,74,77,0
0,65,73,0
0,70,83,0
0,77,122,0
0,42,104,0
0,62,94,16
0,65,122,0
0,70,100,0
0,34,100,0
0,74,83,0
0,65,81,0
0,70,91,0
0,76,122,0
0,36,113,0
0,42,110,0
0,74,77,8
0,65,73,0
0,70,80,0
0,77,122,0
0,42,104,0
0,70,87,36
0,62,88,0
0,65,113,0
0,38,91,0
0,74,79,0
0,65,81,0
0,70,91,0
0,38,122,0
0,42,110,0
0,41,113,12
0,74,83,0
0,65,77,0
0,70,87,0
0,42,100,0
0,34,91,20
0,74,79,0
0,65,79,0
0,70,87,0
0,36,122,0
0,42,104,0
0,70,100,108
0,65,122,0
0,62,97,0
0,74,70,0
0,65,73,0
0,70,83,0
0,42,83,0
0,38,104,16
0,74,81,0
0,65,77,0
0,70,95,0
0,38,127,0
0,42,110,0
0,70,100,116
0,62,97,0
0,65,127,0
0,41,104,0
0,74,77,0
0,65,71,0
0,70,87,0
0,42,91,0
0,34,100,36
0,74,79,0
0,65,79,0
0,70,91,0
0,36,117,0
0,42,110,0
0,70,95,100
0,62,94,0
0,65,127,0
0,74,68,0
0,65,70,0
0,70,83,0
0,42,87,0
0,38,108,8
0,74,75,0
0,65,81,0
0,70,87,0
0,38,122,0
0,42,110,0
0,65,108,96
0,62,88,0
0,70,87,0
0,41,117,0
0,74,75,0
0,70,87,0
0,65,56,0
0,42,87,0
0,65,94,48
0,60,88,0
0,69,94,0
0,29,108,0
0,65,101,0
0,69,97,0
0,60,77,0
0,77,108,0
0,72,113,0
0,69,101,0
0,36,113,0
0,42,110,0
0,77,75,8
0,69,73,0
0,72,91,0
0,42,91,0
0,65,108,132
0,60,88,0
0,69,91,0
0,33,91,0
0,77,75,0
0,69,91,0
0,72,108,0
0,77,127,0
0,38,117,0
0,42,104,0
0,36,108,8
0,77,62,0
0,69,79,0
0,72,86,0
0,77,127,0
0,42,91,0
0,65,113,28
0,69,88,0
0,60,91,0
0,29,117,0
0,77,70,0
0,69,83,0
0,72,83,0
0,76,127,0
0,36,117,0
0,42,110,0
0,77,64,0
0,69,71,0
0,72,75,0
0,77,127,0
0,42,95,0
0,65,113,12
0,60,86,0
0,69,88,0
0,33,104,0
0,77,71,0
0,69,88,0
0,38,122,0
0,42,110,0
0,36,113,12
0,77,73,0
0,69,77,0
0,72,81,0
0,81,127,0
0,42,100,0
0,65,113,12
0,69,68,0
0,60,86,0
0,29,104,0
0,77,75,0
0,69,81,0
0,72,88,0
0,36,117,0
0,42,110,0
0,77,70,0
0,69,75,0
0,72,79,0
0,77,127,0
0,42,95,0
0,65,113,20
0,69,83,0
0,60,88,0
0,33,101,0
0,77,73,0
0,69,83,0
0,72,97,0
0,38,127,0
0,42,110,0
0,36,97,8
0,77,73,0
0,69,75,0
0,72,91,0
0,76,127,0
0,42,104,0
0,65,108,28
0,69,81,0
0,60,88,0
0,29,108,0
0,77,67,0
0,69,83,0
0,72,101,0
0,36,113,0
0,42,110,0
0,77,71,16
0,69,81,0
0,72,97,0
0,77,117,0
0,42,104,0
0,65,108,24
0,69,91,0
0,60,86,0
0,33,104,0
0,77,73,0
0,69,83,0
0,72,101,0
0,38,122,0
0,42,110,0
0,36,113,4
0,69,75,0
0,72,122,0
0,42,100,0
0,70,100,36
0,65,108,0
0,62,91,0
0,34,95,0
0,62,83,0
0,70,100,0
0,70,87,0
0,74,66,0
0,65,68,0
0,74,127,0
0,36,122,0
0,42,104,0
0,74,88,56
0,65,75,0
0,70,73,0
0,42,83,0
0,70,100,116
0,62,91,0
0,65,122,0
0,38,91,0
0,74,86,0
0,65,77,0
0,70,73,0
0,77,127,0
0,38,127,0
0,42,110,0
0,41,104,24
0,74,81,0
0,65,71,0
0,70,76,0
0,77,117,0
0,42,91,0
0,70,95,28
0,62,91,0
0,65,113,0
0,34,91,0
0,74,86,0
0,65,79,0
0,70,83,0
0,76,122,0
0,36,117,0
0,42,110,0
0,74,79,4
0,65,71,0
0,70,80,0
0,77,127,0
0,42,87,0
0,70,95,16
0,62,86,0
0,65,108,0
0,38,94,0
0,74,83,0
0,65,79,0
0,70,83,0
0,38,122,0
0,42,110,0
0,41,108,44
0,74,79,0
0,65,77,0
0,70,83,0
0,42,87,0
0,34,91,48
0,74,81,0
0,65,77,0
0,70,83,0
0,36,113,0
0,42,110,0
0,70,100,120
0,65,122,0
0,62,97,0
0,74,81,0
0,65,77,0
0,70,83,0
0,42,91,0
0,38,94,76
0,74,83,0
0,65,75,0
0,70,83,0
0,38,117,0
0,42,104,0
0,70,100,120
0,62,97,0
0,65,127,0
0,41,108,0
0,74,81,0
0,65,71,0
0,70,76,0
0,42,91,0
0,34,100,28
0,74,79,0
0,65,75,0
0,70,80,0
0,36,117,0
0,42,110,0
0,70,95,124
0,62,94,0
0,65,127,0
0,74,79,0
0,65,73,0
0,70,76,0
0,42,95,0
0,38,104,12
0,74,81,0
0,65,73,0
0,70,68,0
0,38,122,0
0,42,110,0
0,65,108,112
0,62,88,0
0,70,87,0
0,41,104,0
0,74,79,0
0,70,73,0
0,65,70,0
0,72,122,0
0,42,100,0
0,69,91,24
0,65,97,0
0,60,83,0
0,60,88,12
0,65,101,0
0,69,94,0
0,29,117,0
0,77,113,0
0,81,97,0
0,72,97,0
0,77,71,0
0,72,83,0
0,69,75,0
0,84,122,0
0,74,127,0
0,36,117,0
0,42,110,0
0,77,73,8
0,72,88,0
0,69,75,0
0,84,122,0
0,42,95,0
0,65,101,4
0,60,83,0
0,69,97,0
0,33,104,0
0,77,79,0
0,72,88,0
0,69,79,0
0,84,127,0
0,38,127,0
0,42,110,0
0,36,117,8
0,77,79,0
0,72,88,0
0,69,79,0
0,81,127,0
0,42,104,0
0,29,117,28
0,77,77,0
0,72,91,0
0,69,81,0
0,36,113,0
0,42,110,0
0,77,75,108
0,72,94,0
0,69,79,0
0,81,127,0
0,42,104,0
0,69,94,12
0,65,101,0
0,60,81,0
0,62,79,0
0,33,94,0
0,77,75,0
0,72,91,0
0,69,81,0
0,77,94,0
0,38,122,0
0,42,110,0
0,36,86,16
0,77,77,0
0,69,81,0
0,72,94,0
0,74,113,0
0,42,100,0
0,62,94,12
0,69,94,0
0,65,113,0
0,38,117,0
0,65,88,0
0,62,104,0
0,74,122,0
0,77,86,0
0,74,113,0
0,69,88,0
0,74,127,0
0,36,122,0
0,42,104,0
0,77,81,32
0,69,83,0
0,74,94,0
0,42,83,0
0,62,91,116
0,65,108,0
0,69,88,0
0,77,83,0
0,69,88,0
0,74,104,0
0,38,127,0
0,42,110,0
0,33,117,32
0,77,77,0
0,69,81,0
0,74,94,0
0,42,91,0
0,69,91,24
0,62,97,0
0,65,117,0
0,38,113,0
0,77,77,0
0,69,81,0
0,74,94,0
0,36,117,0
0,42,110,0
0,36,113,0
0,77,59,0
0,69,73,0
0,74,86,0
0,42,87,0
0,69,88,4
0,62,91,0
0,65,108,0
0,38,122,0
0,77,75,0
0,69,79,0
0,74,101,0
0,38,122,0
0,42,110,0
0,77,75,20
0,69,79,0
0,74,101,0
0,72,101,0
0,42,87,0
0,60,91,16
0,65,108,0
0,69,91,0
0,29,117,0
0,65,91,0
0,69,97,0
0,60,104,0
0,72,113,0
0,77,83,0
0,69,79,0
0,72,113,0
0,84,122,0
0,74,127,0
0,36,113,0
0,42,110,0
0,77,75,16
0,69,75,0
0,72,86,0
0,84,117,0
0,42,91,0
0,65,113,4
0,69,88,0
0,60,91,0
0,33,104,0
0,77,73,0
0,69,81,0
0,72,101,0
0,84,127,0
0,38,117,0
0,42,104,0
0,36,117,44
0,77,73,0
0,69,75,0
0,72,86,0
0,81,127,0
0,42,91,0
0,65,113,28
0,69,94,0
0,60,91,0
0,29,117,0
0,77,73,0
0,69,81,0
0,72,91,0
0,36,117,0
0,42,110,0
0,77,75,48
0,69,79,0
0,72,91,0
0,81,122,0
0,42,95,0
0,65,117,4
0,60,94,0
0,69,88,0
0,33,94,0
0,77,71,0
0,69,86,0
0,72,104,0
0,77,117,0
0,38,122,0
0,42,110,0
0,36,86,8
0,77,75,0
0,72,97,0
0,69,79,0
0,74,117,0
0,42,100,0
0,62,91,16
0,65,113,0
0,69,88,0
0,38,117,0
0,69,104,0
0,62,97,0
0,74,104,0
0,77,86,0
0,69,81,0
0,74,104,0
0,74,127,0
0,36,117,0
0,42,110,0
0,69,77,20
0,77,71,0
0,74,101,0
0,42,95,0
0,69,91,76
0,65,117,0
0,62,91,0
0,77,81,0
0,69,83,0
0,74,108,0
0,38,127,0
0,42,110,0
0,33,117,40
0,77,79,0
0,74,97,0
0,69,79,0
0,42,104,0
0,62,88,24
0,69,86,0
0,65,113,0
0,38,113,0
0,77,77,0
0,69,83,0
0,74,108,0
0,36,113,0
0,42,110,0
0,36,113,0
0,77,77,0
0,69,81,0
0,74,104,0
0,42,104,0
0,65,117,4
0,62,91,0
0,69,88,0
0,38,122,0
0,77,77,0
0,69,81,0
0,74,101,0
0,38,122,0
0,42,110,0
0,69,83,20
0,77,77,0
0,74,101,0
0,72,117,0
0,42,100,0
0,65,94,20
0,60,91,44
0,69,91,0
0,65,113,0
0,29,117,0
0,69,97,0
0,60,101,0
0,72,122,0
0,77,81,0
0,69,83,0
0,72,104,0
0,84,127,0
0,74,127,0
0,36,122,0
0,42,104,0
0,77,77,28
0,69,79,0
0,72,91,0
0,84,122,0
0,42,83,0
0,69,94,4
0,65,117,0
0,60,97,0
0,33,104,0
0,77,73,0
0,69,81,0
0,72,97,0
0,84,122,0
0,38,127,0
0,42,110,0
0,36,117,52
0,69,77,0
0,72,91,0
0,81,127,0
0,42,91,0
0,69,91,28
0,60,91,0
0,65,104,0
0,29,117,0
