track,note,velocity,time
1,66,48,0
1,74,46,0
1,69,50,0
1,73,59,235
1,74,0,6
1,66,0,223
1,73,0,14
1,76,33,2
1,71,54,0
1,67,58,4
1,69,0,2
1,74,38,235
1,76,0,2
1,74,0,235
1,76,55,4
1,67,0,458
1,76,0,10
1,73,51,4
1,64,57,0
1,71,0,2
1,69,56,0
1,64,0,224
1,73,0,15
1,66,58,4
1,74,52,0
1,74,0,237
1,73,52,2
1,66,0,228
1,69,0,6
1,73,0,9
1,76,47,2
1,67,55,2
1,71,53,0
1,74,55,228
1,76,0,6
1,71,0,209
1,67,0,22
1,71,41,4
1,74,0,10
1,67,47,0
1,64,59,7
1,71,0,445
1,67,0,14
1,67,39,6
1,74,58,4
1,69,58,2
1,67,0,460
1,64,0,6
1,69,0,0
1,64,44,4
1,69,57,4
1,74,52,1396
1,74,0,2
1,69,0,521
1,62,50,1
1,67,58,2
1,71,51,0
1,64,0,1
1,74,0,0
1,62,0,459
1,67,0,498
1,71,0,9
1,62,48,2877
1,71,46,2
1,67,58,1
1,67,0,455
1,66,53,13
1,62,0,469
1,66,0,10
1,67,60,9
1,64,56,2
1,64,0,454
1,67,0,19
1,73,45,4
1,66,56,4
1,71,0,121
1,70,50,0
1,73,0,93
1,70,0,2
1,74,54,19
1,71,55,2
1,66,0,221
1,67,51,19
1,67,0,456
1,66,52,28
1,66,0,456
1,67,49,6
1,67,0,462
1,71,0,17
1,64,55,11
1,69,52,4
1,74,57,652
1,74,0,9
1,64,0,272
1,74,0,17
1,69,0,7
1,74,57,2
1,69,54,0
1,66,53,3
1,73,59,227
1,74,0,10
1,66,0,215
1,73,0,21
1,76,45,0
1,67,53,4
1,71,39,0
1,69,0,9
1,74,51,171
1,76,0,8
1,64,51,286
1,74,0,6
1,67,0,170
1,73,54,6
1,71,0,6
1,69,33,2
1,64,0,201
1,66,52,25
1,74,56,2
1,73,0,2
1,66,0,102
1,73,50,12
1,74,0,3
1,64,54,4
1,64,0,94
1,73,0,23
1,66,54,4
1,74,49,0
1,66,0,104
1,67,49,15
1,67,0,110
1,66,54,17
1,74,0,288
1,73,60,0
1,66,0,225
1,76,47,23
1,69,0,2
1,73,0,1
1,67,50,2
1,71,57,2
1,74,61,175
1,76,0,6
1,74,0,294
1,64,58,0
1,67,0,186
1,73,46,4
1,69,54,5
1,71,0,6
1,64,0,186
1,66,53,31
1,74,58,2
1,73,0,6
1,66,0,98
1,73,49,5
1,74,0,6
1,64,57,2
1,64,0,94
1,74,54,14
1,73,0,3
1,66,57,0
1,62,54,310
1,74,0,2
1,72,52,466
1,66,0,225
1,72,0,15
1,71,59,2
1,67,59,4
1,69,0,6
1,62,0,217
1,67,0,1
1,66,53,18
1,70,55,0
1,61,54,4
1,71,0,2
1,61,0,167
1,71,54,5
1,62,47,8
1,70,0,10
1,66,0,274
1,67,53,16
1,62,0,201
1,67,0,8
1,69,55,29
1,64,58,0
1,71,0,2
1,74,53,0
1,73,58,172
1,74,0,8
1,64,0,88
1,73,0,23
1,74,44,2
1,67,54,2
1,67,0,117
1,66,59,18
1,73,52,278
1,74,0,8
1,66,0,217
1,69,0,11
1,76,53,12
1,67,53,0
1,71,54,2
1,73,0,2
1,74,58,188
1,76,0,7
1,76,54,225
1,74,0,4
1,67,0,219
1,76,0,7
1,69,46,12
1,64,58,2
1,73,51,4
1,71,0,4
1,64,0,215
1,73,0,15
1,66,53,2
1,74,45,2
1,66,0,98
1,73,58,5
1,74,0,6
1,64,54,6
1,64,0,104
1,74,35,13
1,73,0,2
1,66,54,2
1,66,48,58
1,74,46,0
1,69,50,0
1,73,59,235
1,66,0,6
1,69,0,0
1,74,0,0
1,74,0,2
1,66,0,221
1,73,0,14
1,76,33,2
1,71,54,0
1,67,58,4
1,69,0,2
1,74,38,235
1,76,0,2
1,74,0,235
1,76,55,4
1,67,0,458
1,76,0,10
1,73,51,4
1,64,57,0
1,71,0,2
1,69,56,0
1,64,0,224
1,73,0,15
1,66,58,4
1,74,52,0
1,74,0,237
1,73,52,2
1,66,0,228
1,69,0,6
1,73,0,9
1,76,47,2
1,67,55,2
1,71,53,0
1,74,55,228
1,76,0,6
1,71,0,209
1,67,0,22
1,71,41,4
1,74,0,10
1,67,47,0
1,64,59,7
1,71,0,445
1,67,0,14
1,67,39,6
1,74,58,4
1,69,58,2
1,67,0,460
1,64,0,6
1,69,0,0
1,64,44,4
1,69,57,4
1,74,0,1398
1,69,0,521
1,64,0,4
1,62,48,3843
1,71,46,2
1,67,58,1
1,67,0,455
1,66,53,13
1,62,0,469
1,66,0,10
1,67,60,9
1,64,56,2
1,64,0,454
1,67,0,19
1,73,45,4
1,66,56,4
1,71,0,121
1,70,50,0
1,73,0,93
1,70,0,2
1,74,54,19
1,71,55,2
1,66,0,221
1,67,51,19
1,67,0,456
1,66,52,28
1,66,0,456
1,67,49,6
1,67,0,462
1,71,0,17
1,64,55,11
1,69,52,4
1,74,57,652
1,74,0,9
1,64,0,272
1,74,0,17
1,69,0,7
1,74,57,2
1,69,54,0
1,66,53,0
1,74,0,239
1,73,59,1
1,66,0,209
1,73,0,30
1,69,0,0
1,76,45,1
1,67,53,0
1,71,39,0
1,76,0,179
1,74,51,1
1,64,51,294
1,74,0,6
1,67,0,170
1,73,54,6
1,71,0,6
1,69,33,2
1,64,0,201
1,66,52,25
1,74,56,2
1,73,0,2
1,66,0,102
1,73,50,12
1,74,0,3
1,64,54,4
1,64,0,94
1,73,0,23
1,66,54,4
1,74,49,0
1,66,0,104
1,67,49,15
1,67,0,110
1,66,54,17
1,74,0,288
1,73,60,0
1,66,0,225
1,76,47,23
1,69,0,2
1,73,0,1
1,67,50,2
1,71,57,2
1,74,61,175
1,76,0,6
1,74,0,294
1,64,58,0
1,67,0,186
1,73,46,4
1,69,54,5
1,71,0,6
1,64,0,186
1,66,53,31
1,74,58,2
1,73,0,6
1,66,0,98
1,73,49,5
1,74,0,6
1,64,57,2
1,64,0,94
1,74,54,14
1,73,0,3
1,66,57,0
1,62,54,310
1,74,0,2
1,72,52,466
1,66,0,225
1,72,0,15
1,71,59,2
1,67,59,4
1,69,0,6
1,62,0,217
1,67,0,1
1,66,53,18
1,70,55,0
1,61,54,4
1,71,0,2
1,61,0,167
1,71,54,5
1,62,47,8
1,70,0,10
1,66,0,274
1,67,53,16
1,62,0,201
1,67,0,8
1,69,55,29
1,64,58,0
1,71,0,2
1,74,53,0
1,73,58,172
1,74,0,8
1,64,0,88
1,73,0,23
1,74,44,2
1,67,54,2
1,67,0,117
1,66,59,18
1,73,52,278
1,74,0,8
1,66,0,217
1,69,0,11
1,76,53,12
1,67,53,0
1,71,54,2
1,73,0,2
1,74,58,188
1,76,0,7
1,76,54,225
1,74,0,4
1,67,0,219
1,76,0,7
1,69,46,12
1,64,58,2
1,73,51,4
1,71,0,4
1,64,0,215
1,73,0,15
1,66,53,2
1,74,45,2
1,66,0,98
1,73,58,5
1,74,0,6
1,64,54,6
1,64,0,104
1,74,35,13
1,73,0,2
1,66,54,2
1,66,48,58
1,74,46,0
1,69,50,0
1,73,59,235
1,66,0,6
1,69,0,0
1,74,0,0
1,74,0,2
1,66,0,221
1,73,0,14
1,76,33,2
1,71,54,0
1,67,58,4
1,69,0,2
1,74,38,235
1,76,0,2
1,74,0,235
1,76,55,4
1,67,0,458
1,76,0,10
1,73,51,4
1,64,57,0
1,71,0,2
1,69,56,0
1,64,0,224
1,73,0,15
1,66,58,4
1,74,52,0
1,74,0,237
1,73,52,2
1,66,0,228
1,69,0,6
1,73,0,9
1,76,47,2
1,67,55,2
1,71,53,0
1,74,55,228
1,76,0,6
1,71,0,209
1,67,0,22
1,71,41,4
1,74,0,10
1,67,47,0
1,64,59,7
1,71,0,445
1,67,0,14
1,67,39,6
1,74,58,4
1,69,58,2
1,67,0,460
1,64,0,6
1,69,0,0
1,74,57,12
1,69,54,0
1,66,53,0
1,74,0,239
1,73,59,1
1,66,0,209
1,73,0,30
1,69,0,0
1,76,45,1
1,67,53,0
1,71,39,0
1,76,0,179
1,74,51,1
1,64,51,294
1,74,0,6
1,67,0,170
1,73,54,6
1,71,0,6
1,69,33,2
1,64,0,201
1,66,52,25
1,74,56,2
1,73,0,2
1,74,0,20
1,66,0,82
1,73,50,12
1,74,0,3
1,64,54,4
1,64,0,94
1,73,0,23
1,66,54,4
1,74,49,0
1,66,0,104
1,67,49,15
1,67,0,110
1,66,54,17
1,73,52,286
1,74,0,2
1,66,0,225
1,76,53,21
1,67,53,0
1,71,54,2
1,69,0,2
1,73,0,0
1,74,58,188
1,76,0,7
1,76,54,225
1,74,0,4
1,67,0,219
1,76,0,7
1,69,46,12
1,64,58,2
1,73,51,4
1,71,0,4
1,64,0,215
1,73,0,15
1,66,53,2
1,74,45,2
1,66,0,98
1,73,58,5
1,74,0,6
1,64,54,6
1,64,0,104
1,74,35,13
1,73,0,2
1,66,54,2
1,66,48,58
1,74,46,0
1,69,50,0
1,73,59,235
1,66,0,6
1,69,0,0
1,74,0,0
1,74,0,2
1,66,0,221
1,73,0,14
1,76,33,2
1,71,54,0
1,67,58,4
1,69,0,2
1,74,38,235
1,76,0,2
1,74,0,235
1,76,55,4
1,67,0,458
1,76,0,10
1,73,51,4
1,64,57,0
1,71,0,2
1,69,56,0
1,64,0,224
1,73,0,15
1,66,58,4
1,74,52,0
1,74,0,237
1,73,52,2
1,66,0,228
1,69,0,6
1,73,0,9
1,76,47,2
1,67,55,2
1,71,53,0
1,74,55,228
1,76,0,6
1,71,0,209
1,67,0,22
1,71,41,4
1,74,0,10
1,67,47,0
1,64,59,7
1,71,0,445
1,67,0,14
1,67,39,6
1,74,58,4
1,69,58,2
1,74,0,369
1,67,0,91
1,64,0,6
1,69,0,0
2,62,58,61
2,57,53,0
2,57,0,17
2,62,0,0
2,62,59,10
2,57,58,1
2,62,0,20
2,57,0,1
2,62,58,73
2,57,54,0
2,62,0,14
2,57,0,1
2,62,59,10
2,57,55,0
2,57,0,17
2,62,0,0
2,61,54,71
2,57,53,0
2,57,0,16
2,61,0,0
2,61,56,12
2,57,49,0
2,61,0,18
2,57,0,3
2,61,57,74
2,57,53,2
2,61,0,14
2,57,0,1
2,61,58,13
2,57,47,0
2,61,0,15
2,57,0,3
2,59,48,70
2,64,51,0
2,64,0,14
2,59,0,0
2,59,53,15
2,64,51,0
2,64,0,17
2,59,0,2
2,64,58,75
2,59,54,2
2,59,0,14
2,64,0,0
2,59,53,14
2,64,59,0
2,64,0,15
2,59,0,3
2,62,57,73
2,59,52,1
2,59,0,15
2,62,0,0
2,62,58,16
2,59,50,0
2,59,0,18
2,62,0,0
2,59,51,71
2,62,53,0
2,62,0,14
2,59,0,2
2,62,55,12
2,59,50,2
2,59,0,18
2,62,0,0
2,59,51,67
2,64,58,0
2,59,0,16
2,64,0,1
2,64,52,14
2,59,53,0
2,64,0,17
2,59,0,1
2,64,56,74
2,59,49,0
2,59,0,16
2,64,0,0
2,59,54,14
2,64,58,0
2,64,0,17
2,59,0,1
2,59,51,78
2,64,58,0
2,64,0,16
2,59,0,0
2,64,60,11
2,59,58,1
2,64,0,16
2,59,0,1
2,64,56,69
2,59,54,0
2,59,0,15
2,64,0,2
2,59,54,11
2,64,59,1
2,64,0,17
2,59,0,1
2,64,53,72
2,62,54,0
2,62,0,14
2,64,0,1
2,64,58,16
2,62,54,1
2,62,0,17
2,64,0,1
2,64,57,72
2,61,53,1
2,61,0,14
2,64,0,1
2,61,55,12
2,64,54,1
2,61,0,17
2,64,0,1
2,57,53,67
2,62,57,2
2,57,0,15
2,62,0,2
2,62,58,9
2,57,50,0
2,57,0,17
2,62,0,2
2,62,58,78
2,57,54,1
2,57,0,14
2,62,0,0
2,62,59,10
2,57,49,2
2,57,0,18
2,62,0,0
2,61,59,77
2,57,54,1
2,57,0,16
2,61,0,0
2,61,58,11
2,57,52,0
2,57,0,19
2,61,0,0
2,61,58,73
2,57,52,2
2,57,0,15
2,61,0,0
2,61,58,13
2,57,52,0
2,57,0,18
2,61,0,4
2,59,53,66
2,64,59,1
2,64,0,14
2,59,0,2
2,59,52,12
2,64,56,0
2,64,0,17
2,59,0,3
2,59,52,73
2,64,59,2
2,64,0,13
2,59,0,3
2,64,58,11
2,59,56,0
2,64,0,15
2,59,0,2
2,59,51,74
2,62,51,0
2,62,0,15
2,59,0,0
2,59,58,14
2,62,54,0
2,59,0,19
2,62,0,1
2,62,57,67
2,59,52,2
2,59,0,12
2,62,0,0
2,59,54,14
2,62,55,2
2,59,0,14
2,62,0,2
2,59,54,66
2,64,58,2
2,64,0,14
2,59,0,2
2,59,55,12
2,64,58,1
2,64,0,17
2,59,0,0
2,59,55,81
2,64,58,1
2,64,0,14
2,59,0,2
2,64,59,10
2,59,54,0
2,64,0,15
2,59,0,1
2,59,57,77
2,64,57,0
2,64,0,16
2,59,0,0
2,59,56,12
2,64,59,0
2,64,0,17
2,59,0,2
2,59,53,67
2,64,57,3
2,64,0,14
2,59,0,0
2,59,55,14
2,64,58,0
2,64,0,15
2,59,0,1
2,57,54,79
2,62,58,0
2,62,0,17
2,57,0,0
2,62,54,11
2,57,50,0
2,57,0,17
2,62,0,1
2,57,52,73
2,62,52,1
2,62,0,16
2,57,0,0
2,62,50,14
2,57,50,1
2,62,0,17
2,57,0,1
2,62,54,74
2,57,51,0
2,57,0,14
2,62,0,0
2,62,52,14
2,57,53,2
2,57,0,17
2,62,0,0
2,62,54,74
2,57,51,0
2,57,0,14
2,62,0,1
2,57,53,11
2,62,53,0
2,62,0,17
2,57,0,2
2,57,51,75
2,62,50,2
2,62,0,16
2,57,0,0
2,62,57,21
2,57,57,2
2,57,0,17
2,62,0,0
2,62,52,65
2,57,51,2
2,57,0,14
2,62,0,0
2,62,54,12
2,57,53,2
2,57,0,18
2,62,0,0
2,62,57,70
2,57,50,0
2,57,0,14
2,62,0,0
2,57,50,15
2,62,53,2
2,62,0,17
2,57,0,1
2,62,58,73
2,57,53,0
2,62,0,12
2,57,0,2
2,62,57,15
2,57,53,0
2,57,0,17
2,62,0,0
2,62,59,70
2,57,53,1
2,62,0,12
2,57,0,1
2,57,53,17
2,62,58,1
2,62,0,16
2,57,0,1
2,62,58,71
2,57,52,0
2,62,0,13
2,57,0,1
2,57,51,16
2,62,56,1
2,62,0,16
2,57,0,0
2,62,52,67
2,57,53,1
2,62,0,16
2,57,0,1
2,57,52,13
2,62,51,0
2,62,0,15
2,57,0,0
2,57,51,74
2,62,58,2
2,62,0,15
2,57,0,0
2,57,50,13
2,62,50,0
2,62,0,16
2,57,0,0
2,57,54,79
2,62,59,0
2,62,0,14
2,57,0,1
2,57,53,16
2,62,56,0
2,62,0,16
2,57,0,2
2,57,53,71
2,62,59,0
2,62,0,13
2,57,0,1
2,57,52,16
2,62,56,1
2,62,0,15
2,57,0,2
2,62,59,77
2,57,53,0
2,62,0,14
2,57,0,1
2,57,54,14
2,62,57,2
2,62,0,15
2,57,0,0
2,57,54,74
2,62,60,0
2,62,0,13
2,57,0,1
2,57,55,14
2,62,59,2
2,62,0,14
2,57,0,1
2,57,53,78
2,62,59,2
2,62,0,12
2,57,0,0
2,57,55,17
2,62,59,2
2,62,0,14
2,57,0,1
2,57,54,73
2,62,61,1
2,62,0,14
2,57,0,0
2,57,53,14
2,62,58,2
2,62,0,14
2,57,0,1
2,57,57,64
2,61,60,0
2,57,0,14
2,61,0,2
2,57,56,17
2,61,61,1
2,61,0,18
2,57,0,0
2,57,54,70
2,61,58,0
2,61,0,16
2,57,0,0
2,57,58,15
2,61,60,1
2,61,0,20
2,57,0,0
2,59,60,64
2,62,61,0
2,62,0,15
2,59,0,0
2,59,59,15
2,62,59,2
2,62,0,16
2,59,0,0
2,62,62,72
2,59,59,0
2,59,0,14
2,62,0,0
2,62,56,16
2,59,53,2
2,59,0,18
2,62,0,0
2,62,60,69
2,59,59,1
2,59,0,14
2,62,0,0
