track,note,velocity,time
3,64,100,325
3,64,0,1
3,66,100,1094
3,66,0,1
3,74,100,959
3,74,0,1
3,73,113,782
3,74,115,30
3,73,0,2
3,76,120,28
3,74,0,2
3,78,111,55
3,76,0,6
3,78,0,56
3,76,114,0
3,74,115,30
3,76,0,1
3,74,0,29
3,73,116,0
3,73,0,60
3,76,118,3
3,76,0,241
3,73,120,414
3,73,0,30
3,74,111,0
3,74,0,30
3,76,112,2
3,78,116,120
3,76,0,2
3,76,114,118
3,78,0,2
3,76,0,59
3,74,112,0
3,73,114,59
3,74,0,1
3,71,117,59
3,73,0,3
3,80,113,776
3,71,0,6
3,78,110,175
3,80,0,1
3,80,114,30
3,78,0,2
3,81,120,25
3,80,0,6
3,78,119,176
3,81,0,1
3,76,119,59
3,78,0,3
3,71,110,178
3,76,0,4
3,73,114,28
3,71,0,1
3,74,112,26
3,73,0,3
3,74,0,117
3,74,118,0
3,74,0,121
3,74,114,0
3,73,114,59
3,74,0,2
3,73,0,58
3,71,110,0
3,73,112,60
3,71,0,3
3,73,0,178
3,73,116,297
3,74,110,30
3,73,0,2
3,74,0,29
3,76,112,2
3,78,115,62
3,76,0,1
3,78,0,59
3,76,120,0
3,74,119,25
3,76,0,7
3,73,110,24
3,74,0,2
3,73,0,59
3,76,116,1
3,76,0,241
3,73,111,418
3,74,110,30
3,73,0,2
3,76,118,27
3,74,0,1
3,76,0,120
3,78,114,0
3,80,112,120
3,78,0,2
3,80,0,58
3,78,115,0
3,76,112,30
3,78,0,1
3,80,114,27
3,76,0,3
3,80,0,59
3,76,114,0
3,76,0,360
3,80,118,418
3,80,0,181
3,78,111,1
3,80,115,29
3,78,0,1
3,81,115,30
3,80,0,1
3,78,113,177
3,81,0,3
3,76,118,58
3,78,0,2
3,76,0,181
3,71,117,1
3,73,117,27
3,71,0,6
3,74,114,22
3,73,0,5
3,74,0,115
3,74,113,0
3,74,0,122
3,74,114,0
3,73,118,60
3,74,0,2
3,71,117,59
3,73,0,2
3,69,113,57
3,71,0,2
3,69,0,243
3,73,118,238
3,74,115,26
3,73,0,6
3,74,0,25
3,76,115,0
3,78,110,58
3,76,0,2
3,78,0,58
3,76,112,5
3,74,113,28
3,76,0,4
3,74,0,28
3,73,119,0
3,76,114,56
3,73,0,7
3,76,0,235
3,73,119,422
3,74,113,25
3,73,0,8
3,76,120,22
3,74,0,2
3,76,0,120
3,78,112,0
3,76,112,121
3,78,0,1
3,74,112,58
3,76,0,1
3,73,120,59
3,74,0,2
3,71,116,56
3,73,0,2
3,71,0,779
3,80,118,0
3,78,117,181
3,80,0,2
3,78,0,28
3,80,115,0
3,80,0,30
3,81,116,0
3,78,120,180
3,81,0,1
3,76,116,59
3,78,0,2
3,71,110,176
3,76,0,2
3,73,117,28
3,71,0,1
3,73,0,30
3,74,116,0
3,74,0,121
3,74,115,0
3,74,0,120
3,74,110,0
3,73,119,60
3,74,0,2
3,73,0,58
3,71,120,0
3,73,113,59
3,71,0,6
3,73,0,175
3,73,114,298
3,73,0,31
3,74,110,2
3,76,118,28
3,74,0,3
3,78,111,57
3,76,0,1
3,76,112,58
3,78,0,2
3,74,115,29
3,76,0,1
3,73,115,29
3,74,0,1
3,73,0,59
3,76,120,1
3,76,0,240
3,73,110,421
3,74,119,28
3,73,0,3
3,76,114,28
3,74,0,2
3,78,116,119
3,76,0,1
3,80,115,116
3,78,0,3
3,80,0,57
3,78,113,0
3,78,0,30
3,76,115,3
3,80,112,29
3,76,0,2
3,76,116,58
3,80,0,3
3,76,0,359
3,80,111,417
3,78,116,179
3,80,0,4
3,78,0,26
3,80,114,2
3,81,113,28
3,80,0,2
3,78,112,180
3,81,0,3
3,78,0,57
3,76,116,1
3,71,113,177
3,76,0,4
3,71,0,26
3,73,111,5
3,74,119,26
3,73,0,5
3,74,0,116
3,74,120,1
3,74,0,117
3,74,114,1
3,73,118,59
3,74,0,2
3,73,0,59
3,71,112,1
3,69,112,58
3,71,0,3
3,69,0,240
3,78,115,240
3,80,111,27
3,78,0,3
3,81,119,28
3,80,0,1
3,81,0,60
3,83,111,0
3,81,112,60
3,83,0,2
3,81,0,29
3,80,118,0
3,78,119,29
3,80,0,2
3,80,112,28
3,78,0,2
3,81,120,27
3,80,0,2
3,81,0,481
3,78,113,178
3,80,110,28
3,78,0,2
3,80,0,30
3,81,110,3
3,83,118,57
3,81,0,5
3,81,117,56
3,83,0,4
3,80,118,28
3,81,0,1
3,78,118,26
3,80,0,3
3,81,115,55
3,78,0,5
3,81,0,55
3,78,115,2
3,80,119,28
3,78,0,3
3,81,115,27
3,80,0,1
3,81,0,59
3,76,118,0
3,76,0,61
3,74,119,4
3,73,110,57
3,74,0,5
3,73,0,297
3,73,113,121
3,74,118,55
3,73,0,8
3,76,111,22
3,74,0,2
3,76,0,90
3,78,120,3
3,80,120,58
3,78,0,4
3,81,120,56
3,80,0,1
3,80,110,29
3,81,0,1
3,78,119,208
3,80,0,2
3,80,114,28
3,78,0,1
3,81,117,27
3,80,0,3
3,81,0,179
3,78,117,0
3,76,120,61
3,78,0,1
3,71,119,179
3,76,0,3
3,73,116,26
3,71,0,4
3,73,0,26
3,74,118,0
3,74,0,121
3,74,118,0
3,74,0,116
3,74,116,1
3,73,119,61
3,74,0,1
3,71,112,58
3,73,0,2
3,71,0,58
3,73,116,5
3,73,0,361
3,78,114,115
3,80,116,31
3,78,0,2
3,81,115,27
3,80,0,4
3,81,0,57
3,83,111,0
3,81,119,60
3,83,0,1
3,80,111,29
3,81,0,5
3,78,115,24
3,80,0,4
3,80,118,25
3,78,0,2
3,80,0,30
3,81,115,1
3,81,0,482
3,78,114,178
3,80,119,30
3,78,0,3
3,81,114,24
3,80,0,5
3,81,0,55
3,83,118,0
3,81,112,60
3,83,0,1
3,81,0,30
3,80,118,2
3,78,116,30
3,80,0,3
3,81,119,55
3,78,0,3
3,83,112,59
3,81,0,1
3,83,0,59
3,85,116,0
3,83,113,59
3,85,0,2
3,81,119,29
3,83,0,1
3,85,110,27
3,81,0,3
3,81,116,57
3,85,0,1
3,81,0,362
3,73,110,61
3,74,114,57
3,73,0,3
3,74,0,28
3,76,115,2
3,78,120,90
3,76,0,3
3,80,112,55
3,78,0,2
3,80,0,58
3,81,115,2
3,80,119,58
3,81,0,2
3,78,114,175
3,80,0,4
3,78,0,27
3,80,120,4
3,81,110,27
3,80,0,5
3,81,0,175
3,78,111,3
3,78,0,60
3,76,110,0
3,71,120,178
3,76,0,3
3,73,119,25
3,71,0,5
3,74,111,25
3,73,0,3
3,74,0,118
3,74,118,0
3,74,0,121
3,74,117,0
3,73,120,57
3,74,0,5
3,71,110,58
3,73,0,2
3,69,112,58
3,71,0,1
3,69,0,180
3,83,113,358
3,83,0,180
3,81,119,1
3,80,110,60
3,81,0,1
3,78,118,179
3,80,0,1
3,80,120,27
3,78,0,3
3,80,0,28
3,81,112,0
3,78,111,180
3,81,0,2
3,78,0,60
3,76,110,1
3,71,118,177
3,76,0,3
3,73,114,26
3,71,0,2
3,74,110,27
3,73,0,1
3,74,0,121
3,74,120,3
3,74,0,118
3,74,111,0
3,73,113,58
3,74,0,4
3,73,0,57
3,71,120,3
3,69,112,60
3,71,0,2
3,69,0,298
3,73,111,175
3,73,0,31
3,74,119,4
3,76,110,27
3,74,0,3
3,78,116,57
3,76,0,3
3,78,0,58
3,76,115,2
3,74,112,27
3,76,0,4
3,73,116,25
3,74,0,6
3,73,0,25
3,73,119,28
3,76,114,1
3,73,0,7
3,76,0,235
3,73,119,422
3,74,113,25
3,73,0,8
3,76,120,22
3,74,0,2
3,76,0,120
3,78,112,0
3,76,112,121
3,78,0,1
3,74,112,58
3,76,0,1
3,73,120,59
3,74,0,2
3,71,116,56
3,73,0,2
3,71,0,779
3,80,118,0
3,78,117,181
3,80,0,2
3,78,0,28
3,80,115,0
3,80,0,30
3,81,116,0
3,78,120,180
3,81,0,1
3,76,116,59
3,78,0,2
3,71,110,176
3,76,0,2
3,73,117,28
3,71,0,1
3,73,0,30
3,74,116,0
3,74,0,121
3,74,115,0
3,74,0,120
3,74,110,0
3,73,119,60
3,74,0,2
3,73,0,58
3,71,120,0
3,73,113,59
3,71,0,6
3,73,0,175
3,73,114,298
3,73,0,31
3,74,110,2
3,76,118,28
3,74,0,3
3,78,111,57
3,76,0,1
3,76,112,58
3,78,0,2
3,74,115,29
3,76,0,1
3,73,115,29
3,74,0,1
3,73,0,59
3,76,120,1
3,76,0,240
3,73,110,421
3,74,119,28
3,73,0,3
3,76,114,28
3,74,0,2
3,78,116,119
3,76,0,1
3,80,115,116
3,78,0,3
3,80,0,57
3,78,113,0
3,78,0,30
3,76,115,3
3,80,112,29
3,76,0,2
3,76,116,58
3,80,0,3
3,76,0,359
3,80,111,417
3,78,116,179
3,80,0,4
3,78,0,26
3,80,114,2
3,81,113,28
3,80,0,2
3,78,112,180
3,81,0,3
3,78,0,57
3,76,116,1
3,71,113,177
3,76,0,4
3,71,0,26
3,73,111,5
3,74,119,26
3,73,0,5
3,74,0,116
3,74,120,1
3,74,0,117
3,74,114,1
3,73,118,59
3,74,0,2
3,73,0,59
3,71,112,1
3,69,112,58
3,71,0,3
3,69,0,240
3,78,115,240
3,80,111,27
3,78,0,3
3,81,119,28
3,80,0,1
3,81,0,60
3,83,111,0
3,81,112,60
3,83,0,2
3,81,0,29
3,80,118,0
3,78,119,29
3,80,0,2
3,80,112,28
3,78,0,2
3,80,0,25
3,80,112,1
3,81,120,1
3,80,0,2
3,81,0,481
3,78,113,178
3,80,110,28
3,78,0,2
3,80,0,30
3,81,110,3
3,83,118,57
3,81,0,5
3,81,117,56
3,83,0,4
3,80,118,28
3,81,0,1
3,78,118,26
3,80,0,3
3,81,115,55
3,78,0,5
3,81,0,55
3,78,115,2
3,80,119,28
3,78,0,3
3,81,115,27
3,80,0,1
3,81,0,59
3,76,118,0
3,76,0,61
3,74,119,4
3,73,110,57
3,74,0,5
3,73,0,297
3,73,113,121
3,74,118,55
3,73,0,8
3,76,111,22
3,74,0,2
3,76,0,90
3,78,120,3
3,80,120,58
3,78,0,4
3,81,120,56
3,80,0,1
3,80,110,29
3,81,0,1
3,78,119,208
3,80,0,2
3,80,114,28
3,78,0,1
3,81,117,27
3,80,0,3
3,81,0,179
3,78,117,0
3,76,120,61
3,78,0,1
3,71,119,179
3,76,0,3
3,73,116,26
3,71,0,4
3,73,0,26
3,74,118,0
3,74,0,121
3,74,118,0
3,74,0,116
3,74,116,1
3,73,119,61
3,74,0,1
3,71,112,58
3,73,0,2
3,71,0,58
3,73,116,5
3,73,0,361
3,78,114,115
3,80,116,31
3,78,0,2
3,81,115,27
3,80,0,4
3,81,0,57
3,83,111,0
3,81,119,60
3,83,0,1
3,80,111,29
3,81,0,5
3,78,115,24
3,80,0,4
3,80,118,25
3,78,0,2
3,80,0,30
3,81,115,1
3,81,0,482
3,78,114,178
3,80,119,30
3,78,0,3
3,81,114,24
3,80,0,5
3,81,0,55
3,83,118,0
3,81,112,60
3,83,0,1
3,81,0,30
3,80,118,2
3,78,116,30
3,80,0,3
3,81,119,55
3,78,0,3
3,83,112,59
3,81,0,1
3,83,0,59
3,85,116,0
3,83,113,59
3,85,0,2
3,81,119,29
3,83,0,1
3,85,110,27
3,81,0,3
3,81,116,57
3,85,0,1
3,81,0,362
3,73,110,61
3,74,114,57
3,73,0,3
3,74,0,28
3,76,115,2
3,78,120,90
3,76,0,3
3,80,112,55
3,78,0,2
3,80,0,58
3,81,115,2
3,80,119,58
3,81,0,2
3,78,114,175
3,80,0,4
3,78,0,27
3,80,120,4
3,81,110,27
3,80,0,5
3,81,0,175
3,78,111,3
3,78,0,60
3,76,110,0
3,71,120,178
3,76,0,3
3,73,119,25
3,71,0,5
3,74,111,25
3,73,0,3
3,74,0,118
3,74,118,0
3,74,0,121
3,74,117,0
3,73,120,57
3,74,0,5
3,71,110,58
3,73,0,2
3,69,112,58
3,71,0,1
3,69,0,180
3,83,113,358
3,83,0,180
3,81,119,1
3,80,110,60
3,81,0,1
3,78,118,179
3,80,0,1
3,80,120,27
3,78,0,3
3,80,0,28
3,81,112,0
3,78,111,180
3,81,0,2
3,78,0,60
3,76,110,1
3,71,118,177
3,76,0,3
3,73,114,26
3,71,0,2
3,74,110,27
3,73,0,1
3,74,0,121
3,74,120,3
3,74,0,115
3,74,118,0
3,74,0,3
3,74,117,0
3,73,120,57
3,74,0,5
3,71,110,58
3,73,0,2
3,69,112,58
3,71,0,1
3,69,0,180
3,83,113,358
3,83,0,180
3,81,119,1
3,80,110,60
3,81,0,1
3,78,118,179
3,80,0,1
3,80,120,27
3,78,0,3
3,80,0,28
3,81,112,0
3,78,111,180
3,81,0,2
3,78,0,60
3,76,110,1
3,71,118,177
3,76,0,3
3,73,114,26
3,71,0,2
3,74,110,27
3,73,0,1
3,74,0,121
3,74,120,3
3,74,0,115
3,74,118,0
3,74,0,3
3,74,117,0
3,73,120,57
3,74,0,5
3,71,110,58
3,73,0,2
3,69,112,58
3,71,0,1
3,69,0,180
4,33,100,7300
4,33,0,323
4,40,96,37
4,40,0,107
4,45,94,13
4,45,0,323
4,35,99,37
4,35,0,53
4,36,98,7
4,36,0,53
4,37,98,7
4,37,0,161
4,32,100,19
4,32,0,53
4,37,98,7
4,37,0,161
4,32,100,19
4,32,0,53
4,37,98,7
4,37,0,431
4,40,96,49
4,40,0,215
4,38,97,25
4,38,0,215
4,40,96,25
4,40,0,431
4,33,100,49
4,33,0,431
4,33,100,49
4,33,0,431
4,33,100,49
4,33,0,323
4,40,96,37
4,40,0,107
4,45,94,13
4,45,0,323
4,35,99,37
4,35,0,53
4,36,98,7
4,36,0,53
4,37,98,7
4,37,0,161
4,32,100,19
4,32,0,53
4,37,98,7
4,37,0,161
4,32,100,19
4,32,0,53
4,37,98,7
4,37,0,431
4,40,96,49
4,40,0,215
4,38,97,25
4,38,0,215
4,40,96,25
4,40,0,431
4,33,100,49
4,33,0,431
4,33,100,49
4,33,0,431
4,33,100,49
4,33,0,323
4,40,96,37
4,40,0,107
4,45,94,13
4,45,0,323
4,35,99,37
4,35,0,53
4,36,98,7
4,36,0,53
4,37,98,7
4,37,0,161
4,32,100,19
4,32,0,53
4,37,98,7
4,37,0,161
4,32,100,19
4,32,0,53
4,37,98,7
4,37,0,431
4,40,96,49
4,40,0,215
4,38,97,25
4,38,0,215
4,40,96,25
4,40,0,431
4,33,100,49
4,33,0,431
4,33,100,49
4,33,0,431
4,38,97,49
4,38,0,101
4,33,100,19
4,33,0,101
4,38,97,19
4,38,0,101
4,33,100,19
4,33,0,101
4,38,97,19
4,38,0,101
4,33,100,19
4,33,0,101
4,38,97,19
4,38,0,101
4,33,100,19
4,33,0,101
4,38,97,19
4,38,0,50
4,33,100,10
4,33,0,50
4,33,100,10
4,33,0,101
4,40,96,19
4,40,0,101
4,33,100,19
4,33,0,101
4,40,96,19
4,40,0,101
4,33,100,19
4,33,0,101
4,40,96,19
4,40,0,101
4,33,100,19
4,33,0,101
4,40,96,19
4,40,0,50
4,38,97,10
4,38,0,50
4,40,96,10
4,40,0,101
4,35,99,19
4,35,0,101
4,38,97,19
4,38,0,101
4,33,100,19
4,33,0,101
4,40,96,19
4,40,0,101
4,35,99,19
4,35,0,101
4,40,96,19
4,40,0,101
4,35,99,19
4,35,0,101
4,33,100,19
4,33,0,101
4,40,96,19
4,40,0,101
4,33,100,19
4,33,0,101
4,40,96,19
4,40,0,101
4,33,100,19
4,33,0,101
4,40,96,19
4,40,0,101
4,33,100,19
4,33,0,101
4,40,96,19
4,40,0,50
4,39,97,10
4,39,0,50
4,38,97,10
4,38,0,101
4,33,100,19
4,33,0,101
4,38,97,19
4,38,0,101
4,33,100,19
4,33,0,101
4,38,97,19
4,38,0,101
4,33,100,19
4,33,0,101
4,38,97,19
4,38,0,101
4,33,100,19
4,33,0,101
4,38,97,19
4,38,0,50
