track,note,velocity,time
1,52,114,52
1,52,123,14
1,53,106,96
1,53,121,57
1,52,120,96
1,52,121,45
1,53,114,96
1,53,125,52
1,52,127,96
1,52,123,44
1,53,121,96
1,53,127,51
1,52,120,96
1,52,121,43
1,57,118,3
1,57,121,53
1,56,125,96
1,62,112,360
1,62,120,59
1,62,123,39
1,60,112,96
1,52,109,581
1,52,125,60
1,53,110,96
1,53,127,51
1,52,112,96
1,52,125,47
1,53,121,96
1,53,121,48
1,52,125,96
1,52,123,44
1,53,110,96
1,53,125,48
1,52,118,96
1,52,120,49
1,57,125,6
1,57,127,49
1,56,127,6
1,65,118,371
1,65,118,54
1,64,121,41
1,62,125,707
1,62,127,57
1,60,127,33
1,59,121,38
1,59,123,61
1,57,123,22
1,62,118,102
1,62,127,58
1,60,121,20
1,60,127,62
1,59,120,26
1,59,127,61
1,57,127,29
1,57,101,53
1,57,127,64
1,59,118,7
1,59,123,18
1,57,123,142
1,57,116,44
1,59,123,8
1,59,120,50
1,57,125,100
1,57,127,52
1,59,110,96
1,59,125,55
1,57,110,99
1,57,125,53
1,60,127,11
1,60,127,54
1,59,127,11
1,45,127,1565
1,57,127,0
1,69,121,0
1,47,120,96
1,59,123,0
1,71,120,0
1,48,116,9
1,60,125,0
1,72,127,0
1,45,114,5
1,57,110,0
1,69,127,0
1,47,127,4
1,59,127,0
1,71,127,0
1,48,125,3
1,60,125,0
1,72,125,0
1,47,121,187
1,59,118,0
1,71,125,0
1,45,120,96
1,57,120,0
1,69,121,0
1,47,120,81
1,59,125,0
1,71,121,0
1,48,121,3
1,60,127,0
1,72,127,0
1,47,108,195
1,59,127,0
1,71,120,0
1,45,109,3
1,57,123,0
1,69,118,0
1,48,116,0
1,60,127,0
1,72,127,0
1,48,121,52
1,60,127,0
1,72,123,0
1,45,127,27
1,57,127,0
1,69,127,0
1,45,127,218
1,57,127,0
1,69,121,0
1,47,120,96
1,59,123,0
1,71,120,0
1,48,116,9
1,60,125,0
1,72,127,0
1,45,114,5
1,57,110,0
1,69,127,0
1,47,127,4
1,59,127,0
1,71,127,0
1,48,125,3
1,60,125,0
1,72,125,0
1,47,121,187
1,59,118,0
1,71,125,0
1,45,120,96
1,57,120,0
1,69,121,0
1,47,120,81
1,59,125,0
1,71,121,0
1,48,121,3
1,60,127,0
1,72,127,0
1,47,108,195
1,59,127,0
1,71,120,0
1,45,109,3
1,57,123,0
1,69,118,0
1,48,116,0
1,60,127,0
1,72,127,0
1,48,121,52
1,60,127,0
1,72,123,0
1,45,127,27
1,57,127,0
1,69,127,0
1,57,114,672
1,65,125,87
1,65,118,0
1,62,120,96
1,64,114,11
1,65,123,171
1,64,121,96
1,65,123,66
1,64,116,90
1,65,112,1
1,64,110,96
1,57,100,57
1,62,125,14
1,60,127,10
1,59,127,15
1,48,114,1710
1,60,114,0
1,72,121,0
1,45,106,0
1,57,106,0
1,69,121,0
1,48,121,86
1,60,120,0
1,72,116,0
1,48,116,50
1,60,114,0
1,72,118,0
1,45,104,81
1,57,106,0
1,69,120,0
1,52,123,347
1,53,106,96
1,53,121,57
1,52,120,96
1,52,121,45
1,53,114,96
1,53,125,52
1,52,127,96
1,52,123,44
1,53,121,96
1,53,127,51
1,52,120,96
1,52,121,43
1,57,118,3
1,57,121,53
1,56,125,96
1,62,112,360
1,62,120,59
1,62,123,39
1,60,112,96
1,52,109,581
1,52,125,60
1,53,110,96
1,53,127,51
1,52,112,96
1,52,125,47
1,53,121,96
1,53,121,48
1,52,125,96
1,52,123,44
1,53,110,96
1,53,125,48
1,52,118,96
1,52,120,49
1,57,125,6
1,57,127,49
1,56,127,6
1,65,118,371
1,65,118,54
1,64,121,41
1,62,125,707
1,62,127,57
1,60,127,33
1,59,121,38
1,59,123,61
1,57,123,22
1,62,118,102
1,62,127,58
1,60,121,20
1,60,127,62
1,59,120,26
1,59,127,61
1,57,127,29
1,57,101,53
1,57,127,64
1,59,118,7
1,59,123,18
1,57,123,142
1,57,116,44
1,59,123,8
1,59,120,50
1,57,125,100
1,57,127,52
1,59,110,96
1,59,125,55
1,57,110,99
1,57,125,53
1,60,127,11
1,60,127,54
1,59,127,11
1,45,127,1565
1,57,127,0
1,69,121,0
1,47,120,96
1,59,123,0
1,71,120,0
1,48,116,9
1,60,125,0
1,72,127,0
1,45,114,5
1,57,110,0
1,69,127,0
1,47,127,4
1,59,127,0
1,71,127,0
1,48,125,3
1,60,125,0
1,72,125,0
1,47,121,187
1,59,118,0
1,71,125,0
1,45,120,96
1,57,120,0
1,69,121,0
1,47,120,81
1,59,125,0
1,71,121,0
1,48,121,3
1,60,127,0
1,72,127,0
1,47,108,195
1,59,127,0
1,71,120,0
1,45,109,3
1,57,123,0
1,69,118,0
1,48,116,0
1,60,127,0
1,72,127,0
1,48,121,52
1,60,127,0
1,72,123,0
1,45,127,27
1,57,127,0
1,69,127,0
1,45,127,218
1,57,127,0
1,69,121,0
1,47,120,96
1,59,123,0
1,71,120,0
1,48,116,9
1,60,125,0
1,72,127,0
1,45,114,5
1,57,110,0
1,69,127,0
1,47,127,4
1,59,127,0
1,71,127,0
1,48,125,3
1,60,125,0
1,72,125,0
1,47,121,187
1,59,118,0
1,71,125,0
1,45,120,96
1,57,120,0
1,69,121,0
1,47,120,81
1,59,125,0
1,71,121,0
1,48,121,3
1,60,127,0
1,72,127,0
1,47,108,195
1,59,127,0
1,71,120,0
1,45,109,3
1,57,123,0
1,69,118,0
1,48,116,0
1,60,127,0
1,72,127,0
1,48,121,52
1,60,127,0
1,72,123,0
1,45,127,27
1,57,127,0
1,69,127,0
1,57,114,672
1,65,125,87
1,65,118,0
1,62,120,96
1,64,114,11
1,65,123,171
1,64,121,96
1,65,123,66
1,64,116,90
1,65,112,1
1,64,110,96
1,57,100,57
1,62,125,14
1,60,127,10
1,59,127,15
1,48,114,1710
1,60,114,0
1,72,121,0
1,45,106,0
1,57,106,0
1,69,121,0
1,48,121,86
1,60,120,0
1,72,116,0
1,48,116,50
1,60,114,0
1,72,118,0
1,45,104,81
1,57,106,0
1,69,120,0
1,46,127,347
1,58,127,0
1,70,121,0
1,48,120,96
1,60,123,0
1,72,120,0
1,49,116,9
1,61,125,0
1,73,127,0
1,46,114,5
1,58,110,0
1,70,127,0
1,48,127,4
1,60,127,0
1,72,127,0
1,49,125,3
1,61,125,0
1,73,125,0
1,48,121,187
1,60,118,0
1,72,125,0
1,46,120,96
1,58,120,0
1,70,121,0
1,48,120,81
1,60,125,0
1,72,121,0
1,49,121,3
1,61,127,0
1,73,127,0
1,48,108,195
1,60,127,0
1,72,120,0
1,46,109,3
1,58,123,0
1,70,118,0
1,49,116,0
1,61,127,0
1,73,127,0
1,49,121,52
1,61,127,0
1,73,123,0
1,46,127,27
1,58,127,0
1,70,127,0
1,46,127,218
1,58,127,0
1,70,121,0
1,48,120,96
1,60,123,0
1,72,120,0
1,49,116,9
1,61,125,0
1,73,127,0
1,46,114,5
1,58,110,0
1,70,127,0
1,48,127,4
1,60,127,0
1,72,127,0
1,49,125,3
1,61,125,0
1,73,125,0
1,48,121,187
1,60,118,0
1,72,125,0
1,46,120,96
1,58,120,0
1,70,121,0
1,48,120,81
1,60,125,0
1,72,121,0
1,49,121,3
1,61,127,0
1,73,127,0
1,48,108,195
1,60,127,0
1,72,120,0
1,46,109,3
1,58,123,0
1,70,118,0
1,49,116,0
1,61,127,0
1,73,127,0
1,49,121,52
1,61,127,0
1,73,123,0
1,46,127,27
1,58,127,0
1,70,127,0
1,58,114,672
1,66,125,87
1,66,118,0
1,63,120,96
1,65,114,11
1,66,123,171
1,65,121,96
1,66,123,66
1,65,116,90
1,66,112,1
1,65,110,96
1,58,100,57
1,63,125,14
1,61,127,10
1,60,127,15
1,49,114,1710
1,61,114,0
1,73,121,0
1,46,106,0
1,58,106,0
1,70,121,0
1,49,121,86
1,61,120,0
1,73,116,0
1,49,116,50
1,61,114,0
1,73,118,0
1,46,104,81
1,58,106,0
1,70,120,0
2,52,114,52
2,52,123,14
2,53,106,96
2,53,121,57
2,52,120,96
2,52,121,45
2,53,114,96
2,53,125,52
2,52,127,96
2,52,123,44
2,53,121,96
2,53,127,51
2,52,120,96
2,52,121,43
2,57,118,3
2,57,121,53
2,56,125,96
2,62,112,360
2,62,120,59
2,62,123,39
2,60,112,96
2,52,109,581
2,52,125,60
2,53,110,96
2,53,127,51
2,52,112,96
2,52,125,47
2,53,121,96
2,53,121,48
2,52,125,96
2,52,123,44
2,53,110,96
2,53,125,48
2,52,118,96
2,52,120,49
2,57,125,6
2,57,127,49
2,56,127,6
2,65,118,371
2,65,118,54
2,64,121,41
2,62,125,707
2,62,127,57
2,60,127,33
2,59,121,38
2,59,123,61
2,57,123,22
2,62,118,102
2,62,127,58
2,60,121,20
2,60,127,62
2,59,120,26
2,59,127,61
2,57,127,29
2,57,101,53
2,57,127,64
2,59,118,7
2,59,123,18
2,57,123,142
2,57,116,44
2,59,123,8
2,59,120,50
2,57,125,100
2,57,127,52
2,59,110,96
2,59,125,55
2,57,110,99
2,57,125,53
2,60,127,11
2,60,127,54
2,59,127,11
2,45,127,1565
2,57,127,0
2,69,121,0
2,47,120,96
2,59,123,0
2,71,120,0
2,48,116,9
2,60,125,0
2,72,127,0
2,45,114,5
2,57,110,0
2,69,127,0
2,47,127,4
2,59,127,0
2,71,127,0
2,48,125,3
2,60,125,0
2,72,125,0
2,47,121,187
2,59,118,0
2,71,125,0
2,45,120,96
2,57,120,0
2,69,121,0
2,47,120,81
2,59,125,0
2,71,121,0
2,48,121,3
2,60,127,0
2,72,127,0
2,47,108,195
2,59,127,0
2,71,120,0
2,45,109,3
2,57,123,0
2,69,118,0
2,48,116,0
2,60,127,0
2,72,127,0
2,48,121,52
2,60,127,0
2,72,123,0
2,45,127,27
2,57,127,0
2,69,127,0
2,45,127,218
2,57,127,0
2,69,121,0
2,47,120,96
2,59,123,0
2,71,120,0
2,48,116,9
2,60,125,0
2,72,127,0
2,45,114,5
2,57,110,0
2,69,127,0
2,47,127,4
2,59,127,0
2,71,127,0
2,48,125,3
2,60,125,0
2,72,125,0
2,47,121,187
2,59,118,0
2,71,125,0
2,45,120,96
2,57,120,0
2,69,121,0
2,47,120,81
2,59,125,0
2,71,121,0
2,48,121,3
2,60,127,0
2,72,127,0
2,47,108,195
2,59,127,0
2,71,120,0
2,45,109,3
2,57,123,0
2,69,118,0
2,48,116,0
2,60,127,0
2,72,127,0
2,48,121,52
2,60,127,0
2,72,123,0
2,45,127,27
2,57,127,0
2,69,127,0
2,57,114,672
2,65,125,87
2,65,118,0
2,62,120,96
2,64,114,11
2,65,123,171
2,64,121,96
2,65,123,66
2,64,116,90
2,65,112,1
2,64,110,96
2,57,100,57
2,62,125,14
2,60,127,10
2,59,127,15
2,48,114,1710
2,60,114,0
2,72,121,0
2,45,106,0
2,57,106,0
2,69,121,0
2,48,121,86
2,60,120,0
2,72,116,0
2,48,116,50
2,60,114,0
2,72,118,0
2,45,104,81
2,57,106,0
2,69,120,0
2,52,123,347
2,53,106,96
2,53,121,57
2,52,120,96
2,52,121,45
2,53,114,96
2,53,125,52
2,52,127,96
2,52,123,44
2,53,121,96
2,53,127,51
2,52,120,96
2,52,121,43
2,57,118,3
2,57,121,53
2,56,125,96
2,62,112,360
2,62,120,59
2,62,123,39
2,60,112,96
2,52,109,581
2,52,125,60
2,53,110,96
2,53,127,51
2,52,112,96
2,52,125,47
2,53,121,96
2,53,121,48
2,52,125,96
2,52,123,44
2,53,110,96
2,53,125,48
2,52,118,96
2,52,120,49
2,57,125,6
2,57,127,49
2,56,127,6
2,65,118,371
2,65,118,54
2,64,121,41
2,62,125,707
2,62,127,57
2,60,127,33
2,59,121,38
2,59,123,61
2,57,123,22
2,62,118,102
2,62,127,58
2,60,121,20
2,60,127,62
2,59,120,26
2,59,127,61
2,57,127,29
2,57,101,53
2,57,127,64
2,59,118,7
2,59,123,18
2,57,123,142
2,57,116,44
2,59,123,8
2,59,120,50
2,57,125,100
2,57,127,52
2,59,110,96
2,59,125,55
2,57,110,99
2,57,125,53
2,60,127,11
2,60,127,54
2,59,127,11
2,45,127,1565
2,57,127,0
2,69,121,0
2,47,120,96
2,59,123,0
2,71,120,0
2,48,116,9
2,60,125,0
2,72,127,0
2,45,114,5
2,57,110,0
2,69,127,0
2,47,127,4
2,59,127,0
2,71,127,0
2,48,125,3
2,60,125,0
2,72,125,0
2,47,121,187
2,59,118,0
2,71,125,0
2,45,120,96
2,57,120,0
2,69,121,0
2,47,120,81
2,59,125,0
2,71,121,0
2,48,121,3
2,60,127,0
2,72,127,0
2,47,108,195
2,59,127,0
2,71,120,0
2,45,109,3
2,57,123,0
2,69,118,0
2,48,116,0
2,60,127,0
2,72,127,0
2,48,121,52
2,60,127,0
2,72,123,0
2,45,127,27
2,57,127,0
2,69,127,0
2,45,127,218
2,57,127,0
2,69,121,0
2,47,120,96
2,59,123,0
2,71,120,0
2,48,116,9
2,60,125,0
2,72,127,0
2,45,114,5
2,57,110,0
2,69,127,0
2,47,127,4
2,59,127,0
2,71,127,0
2,48,125,3
2,60,125,0
2,72,125,0
2,47,121,187
2,59,118,0
2,71,125,0
2,45,120,96
2,57,120,0
2,69,121,0
2,47,120,81
2,59,125,0
2,71,121,0
2,48,121,3
2,60,127,0
2,72,127,0
2,47,108,195
2,59,127,0
2,71,120,0
2,45,109,3
2,57,123,0
2,69,118,0
2,48,116,0
2,60,127,0
2,72,127,0
2,48,121,52
2,60,127,0
2,72,123,0
2,45,127,27
2,57,127,0
2,69,127,0
2,57,114,672
2,65,125,87
2,65,118,0
2,62,120,96
2,64,114,11
2,65,123,171
2,64,121,96
2,65,123,66
2,64,116,90
2,65,112,1
2,64,110,96
2,57,100,57
2,62,125,14
2,60,127,10
2,59,127,15
2,48,114,1710
2,60,114,0
2,72,121,0
2,45,106,0
2,57,106,0
2,69,121,0
2,48,121,86
2,60,120,0
2,72,116,0
2,48,116,50
2,60,114,0
2,72,118,0
2,45,104,81
2,57,106,0
2,69,120,0
2,46,127,347
2,58,127,0
2,70,121,0
2,48,120,96
2,60,123,0
2,72,120,0
2,49,116,9
2,61,125,0
2,73,127,0
2,46,114,5
2,58,110,0
2,70,127,0
2,48,127,4
2,60,127,0
2,72,127,0
2,49,125,3
2,61,125,0
2,73,125,0
2,48,121,187
2,60,118,0
2,72,125,0
2,46,120,96
2,58,120,0
2,70,121,0
2,48,120,81
2,60,125,0
2,72,121,0
2,49,121,3
2,61,127,0
2,73,127,0
2,48,108,195
2,60,127,0
2,72,120,0
2,46,109,3
2,58,123,0
2,70,118,0
2,49,116,0
2,61,127,0
2,73,127,0
2,49,121,52
2,61,127,0
2,73,123,0
2,46,127,27
2,58,127,0
2,70,127,0
2,46,127,218
2,58,127,0
2,70,121,0
2,48,120,96
2,60,123,0
2,72,120,0
2,49,116,9
2,61,125,0
2,73,127,0
2,46,114,5
2,58,110,0
2,70,127,0
2,48,127,4
2,60,127,0
2,72,127,0
2,49,125,3
2,61,125,0
2,73,125,0
2,48,121,187
2,60,118,0
2,72,125,0
2,46,120,96
2,58,120,0
2,70,121,0
2,48,120,81
2,60,125,0
2,72,121,0
2,49,121,3
2,61,127,0
2,73,127,0
2,48,108,195
2,60,127,0
2,72,120,0
2,46,109,3
2,58,123,0
2,70,118,0
2,49,116,0
2,61,127,0
2,73,127,0
2,49,121,52
2,61,127,0
2,73,123,0
2,46,127,27
2,58,127,0
2,70,127,0
2,58,114,672
2,66,125,87
2,66,118,0
2,63,120,96
2,65,114,11
2,66,123,171
2,65,121,96
2,66,123,66
2,65,116,90
2,66,112,1
2,65,110,96
2,58,100,57
2,63,125,14
2,61,127,10
2,60,127,15
2,49,114,1710
2,61,114,0
2,73,121,0
2,46,106,0
2,58,106,0
2,70,121,0
2,49,121,86
2,61,120,0
2,73,116,0
2,49,116,50
2,61,114,0
2,73,118,0
2,46,104,81
