track,note,velocity,time
3,43,100,960
3,43,0,356
3,52,85,4
3,52,0,116
3,50,85,4
3,50,0,356
3,52,85,4
3,52,0,116
3,43,100,4
3,43,0,356
3,52,85,4
3,52,0,116
3,50,85,4
3,50,0,356
3,52,85,4
3,52,0,116
3,43,100,4
3,43,0,356
3,52,85,4
3,52,0,116
3,50,85,4
3,50,0,356
3,52,85,4
3,52,0,116
3,43,100,4
3,43,0,356
3,52,85,4
3,52,0,116
3,50,85,4
3,50,0,356
3,52,85,4
3,52,0,116
3,43,100,4
3,43,0,356
3,52,85,4
3,52,0,116
3,50,85,4
3,50,0,356
3,52,85,4
3,52,0,116
3,43,100,4
3,43,0,356
3,52,85,4
3,52,0,116
3,50,85,4
3,50,0,356
3,52,85,4
3,52,0,116
3,43,100,4
3,43,0,356
3,52,85,4
3,52,0,116
3,50,85,4
3,50,0,356
3,52,85,4
3,52,0,116
3,43,100,4
3,43,0,356
3,52,85,4
3,52,0,116
3,50,85,4
3,50,0,356
3,52,85,4
3,52,0,116
3,43,100,4
3,43,0,716
3,52,85,4
3,50,85,200
3,52,0,36
3,50,0,920
3,38,100,44
3,38,0,716
3,47,85,4
3,47,0,236
3,45,85,4
3,45,0,476
3,47,85,4
3,47,0,476
3,43,100,4
3,43,0,716
3,52,85,4
3,52,0,236
3,50,85,4
3,50,0,956
3,38,100,4
3,38,0,716
3,47,85,4
3,47,0,236
3,45,85,4
3,45,0,476
3,47,85,4
3,47,0,476
3,36,100,4
3,36,0,716
3,45,85,4
3,45,0,236
3,43,85,4
3,43,0,956
3,38,100,4
3,38,0,716
3,47,85,4
3,47,0,236
3,45,85,4
3,45,0,956
3,43,100,4
3,52,85,680
3,43,0,36
3,52,0,200
3,50,85,4
3,50,0,476
3,52,85,44
3,52,0,476
3,38,100,4
3,38,0,716
3,38,85,4
3,38,0,236
3,38,85,4
3,38,0,716
3,38,85,4
3,38,0,236
3,43,100,4
3,43,0,716
3,52,85,4
3,52,0,236
3,50,85,4
3,50,0,956
3,38,100,4
3,38,0,716
3,47,85,4
3,47,0,236
3,45,85,4
3,45,0,476
3,47,85,4
3,47,0,476
3,43,100,4
3,43,0,716
3,52,85,4
3,52,0,236
3,50,85,4
3,50,0,956
3,38,100,4
3,38,0,716
3,47,85,4
3,47,0,236
3,45,85,4
3,45,0,476
3,47,85,4
3,47,0,476
3,36,100,4
3,36,0,716
3,45,85,44
3,43,85,200
3,45,0,36
3,43,0,884
3,38,100,40
3,38,0,716
3,47,85,4
3,47,0,236
3,45,85,4
3,45,0,956
3,43,100,4
3,43,0,716
3,52,85,4
3,52,0,236
3,50,85,4
3,50,0,476
3,52,85,4
3,52,0,476
3,53,85,4
3,43,100,0
3,53,0,716
3,52,85,4
3,52,0,236
3,50,85,4
3,50,0,476
3,52,85,4
3,52,0,476
3,43,0,0
3,36,100,4
3,36,0,716
3,45,85,4
3,45,0,236
3,43,85,4
3,43,0,476
3,45,85,4
3,45,0,476
3,36,100,4
3,36,0,716
3,45,85,4
3,45,0,236
3,43,85,4
3,43,0,476
3,45,85,4
3,45,0,476
3,43,100,4
3,43,0,716
3,43,85,4
3,43,0,236
3,43,85,4
3,43,0,716
3,43,85,4
3,43,0,236
3,43,100,4
3,43,0,716
3,43,85,4
3,43,0,236
3,43,85,4
3,43,0,716
3,43,85,4
3,43,0,236
3,38,100,4
3,38,0,716
3,47,85,4
3,47,0,236
3,45,85,4
3,45,0,476
3,47,85,4
3,47,0,476
3,38,100,4
3,38,0,716
3,47,85,4
3,47,0,236
3,45,85,4
3,45,0,476
3,47,85,4
3,47,0,476
3,43,100,4
3,43,0,716
3,52,85,4
3,52,0,236
3,50,85,4
3,50,0,476
3,52,85,4
3,52,0,476
3,43,100,4
3,43,0,476
3,45,85,4
3,45,0,476
3,46,85,4
3,46,0,476
3,47,85,4
3,47,0,476
3,48,100,4
3,48,0,716
3,48,85,4
3,48,0,236
3,48,85,4
3,48,0,716
3,48,85,4
3,48,0,236
3,48,100,4
3,48,0,716
3,48,85,4
3,48,0,236
3,48,85,4
3,48,0,716
3,48,85,4
3,48,0,236
3,45,100,4
3,45,0,716
3,45,85,4
3,45,0,236
3,45,85,4
3,45,0,716
3,45,85,4
3,45,0,236
3,45,100,4
3,45,0,716
3,45,85,4
3,45,0,236
3,45,85,4
3,45,0,716
3,45,85,4
3,45,0,236
3,47,100,4
3,47,0,716
3,47,85,4
3,47,0,236
3,47,85,4
3,47,0,716
3,47,85,4
3,47,0,236
3,48,100,4
3,48,0,716
3,48,85,4
3,48,0,236
3,48,85,4
3,48,0,716
3,48,85,4
3,48,0,236
3,49,100,4
3,49,0,716
3,49,85,4
3,49,0,236
3,49,85,4
3,49,0,716
3,49,85,4
3,49,0,236
3,50,100,4
3,50,0,716
3,50,85,4
3,50,0,236
3,50,85,4
3,50,0,956
3,36,100,4
3,36,0,716
3,45,85,4
3,45,0,236
3,43,85,4
3,43,0,956
3,36,100,4
3,36,0,716
3,45,85,4
3,45,0,236
3,43,85,4
3,43,0,956
3,43,100,4
3,43,0,716
3,52,85,4
3,52,0,236
3,50,85,4
3,50,0,956
3,43,100,4
3,43,0,716
3,52,85,4
3,52,0,236
3,50,85,4
3,50,0,956
3,38,100,4
3,38,0,716
3,47,85,4
3,47,0,236
3,45,85,4
3,45,0,956
3,38,100,4
3,38,0,716
3,47,85,4
3,47,0,236
3,45,85,4
3,45,0,476
3,47,85,4
3,47,0,476
3,43,100,4
3,43,0,716
3,52,85,4
3,52,0,236
3,50,85,4
3,50,0,476
3,52,85,4
3,52,0,476
3,38,100,4
3,38,0,716
3,38,85,4
3,38,0,236
3,38,85,4
3,38,0,716
3,38,85,4
3,38,0,236
3,43,100,4
3,43,0,716
3,52,85,4
3,52,0,236
3,50,85,4
3,50,0,956
3,38,100,4
3,38,0,716
3,47,85,4
3,47,0,236
3,45,85,4
3,45,0,476
3,47,85,4
3,47,0,476
3,43,100,4
3,43,0,716
3,52,85,4
3,52,0,236
3,50,85,4
3,50,0,956
3,38,100,4
3,38,0,716
3,47,85,4
3,47,0,236
3,45,85,4
3,45,0,476
3,47,85,4
3,47,0,476
3,36,100,4
3,36,0,716
3,45,85,4
3,45,0,236
3,43,85,4
3,43,0,956
3,38,100,4
3,38,0,716
3,47,85,4
3,47,0,236
3,45,85,4
3,45,0,956
3,43,100,4
3,43,0,716
3,52,85,4
3,52,0,236
3,50,85,4
3,50,0,476
3,52,85,4
3,52,0,476
3,43,100,4
3,43,0,716
3,52,85,4
3,52,0,236
3,50,85,4
3,50,0,476
3,52,85,4
3,52,0,476
3,45,100,4
3,45,0,716
3,54,85,4
3,54,0,236
3,52,85,4
3,52,0,476
3,54,85,4
3,54,0,476
3,45,100,4
3,45,0,716
3,54,85,4
3,54,0,236
3,52,85,4
3,52,0,476
3,54,85,4
3,54,0,476
3,45,100,4
3,45,0,716
3,54,85,4
3,54,0,236
3,52,85,4
3,52,0,956
3,40,100,4
3,40,0,716
3,49,85,4
3,49,0,236
3,47,85,4
3,47,0,476
3,49,85,4
3,49,0,476
3,45,100,4
3,45,0,716
3,54,85,4
3,54,0,236
3,52,85,4
3,52,0,956
3,40,100,4
3,40,0,716
3,49,85,4
3,49,0,236
3,47,85,4
3,47,0,476
3,49,85,4
3,49,0,476
3,38,100,4
3,38,0,716
3,47,85,4
3,47,0,236
3,45,85,4
3,45,0,956
3,40,100,4
3,40,0,716
3,49,85,4
3,49,0,236
3,47,85,4
3,47,0,956
3,45,100,4
3,45,0,716
3,54,85,4
3,54,0,236
3,52,85,4
3,52,0,476
3,54,85,4
3,54,0,476
3,55,85,4
3,45,100,0
3,55,0,716
3,54,85,4
3,54,0,236
3,52,85,4
3,52,0,476
3,54,85,4
3,54,0,476
3,45,0,0
3,38,100,4
3,38,0,716
3,47,85,4
3,47,0,236
3,45,85,4
3,45,0,476
3,47,85,4
3,47,0,476
3,38,100,4
3,38,0,716
3,47,85,4
3,47,0,236
3,45,85,4
3,45,0,476
3,47,85,4
3,47,0,476
3,45,100,4
3,45,0,716
3,45,85,4
3,45,0,236
3,45,85,4
3,45,0,716
3,45,85,4
3,45,0,236
3,45,100,4
3,45,0,716
3,45,85,4
3,45,0,236
3,45,85,4
3,45,0,716
3,45,85,4
3,45,0,236
3,40,100,4
3,40,0,716
3,49,85,4
3,49,0,236
3,47,85,4
3,47,0,476
3,49,85,4
3,49,0,476
3,40,100,4
3,40,0,716
3,49,85,4
3,49,0,236
3,47,85,4
3,47,0,476
3,49,85,4
3,49,0,476
3,45,100,4
3,45,0,716
3,54,85,4
3,54,0,236
3,52,85,4
3,52,0,476
3,54,85,4
3,54,0,476
3,45,100,4
3,45,0,476
3,47,85,4
3,47,0,476
3,48,85,4
3,48,0,476
3,49,85,4
3,49,0,476
3,50,100,4
3,50,0,716
3,50,85,4
3,50,0,236
3,50,85,4
3,50,0,716
3,50,85,4
3,50,0,236
3,50,100,4
3,50,0,716
3,50,85,4
3,50,0,236
3,50,85,4
3,50,0,716
3,50,85,4
3,50,0,236
3,47,100,4
3,47,0,716
3,47,85,4
3,47,0,236
3,47,85,4
3,47,0,716
3,47,85,4
3,47,0,236
3,47,100,4
3,47,0,716
3,47,85,4
3,47,0,236
3,47,85,4
3,47,0,716
3,47,85,4
3,47,0,236
3,49,100,4
3,49,0,716
3,49,85,4
3,49,0,236
3,49,85,4
3,49,0,716
3,49,85,4
3,49,0,236
3,50,100,4
3,50,0,716
3,50,85,4
3,50,0,236
3,50,85,4
3,50,0,716
3,50,85,4
3,50,0,236
3,51,100,4
3,51,0,716
3,51,85,4
3,51,0,236
3,51,85,4
3,51,0,716
3,51,85,4
3,51,0,236
3,52,100,4
3,52,0,716
3,52,85,4
3,52,0,236
3,52,85,4
3,52,0,956
3,38,100,4
3,38,0,716
3,47,85,4
3,47,0,236
3,45,85,4
3,45,0,956
3,38,100,4
3,38,0,716
3,47,85,4
3,47,0,236
3,45,85,4
3,45,0,956
3,45,100,4
3,45,0,716
3,54,85,4
3,54,0,236
3,52,85,4
3,52,0,956
3,45,100,4
3,45,0,716
3,54,85,4
3,54,0,236
3,52,85,4
3,52,0,956
3,40,100,4
3,40,0,716
3,49,85,4
3,49,0,236
3,47,85,4
3,47,0,956
3,40,100,4
3,40,0,716
3,49,85,4
3,49,0,236
3,47,85,4
3,47,0,476
3,49,85,4
3,49,0,476
3,45,100,4
3,45,0,716
3,54,85,4
3,54,0,236
3,52,85,4
3,52,0,476
3,54,85,4
3,54,0,476
3,45,100,4
3,45,0,716
3,54,85,4
3,54,0,236
3,52,85,4
3,52,0,956
3,38,100,4
3,38,0,716
3,47,85,4
3,47,0,236
3,45,85,4
3,45,0,956
3,38,100,4
3,38,0,716
3,47,85,4
3,47,0,236
3,45,85,4
3,45,0,956
3,45,100,4
3,45,0,716
3,54,85,4
3,54,0,236
3,52,85,4
3,52,0,756
3,45,100,4
3,45,0,716
3,54,85,4
3,54,0,236
3,52,85,4
3,52,0,956
3,40,100,4
3,40,0,716
3,49,85,4
3,49,0,236
3,47,85,4
3,47,0,956
3,40,100,4
3,40,0,716
3,49,85,4
3,49,0,236
3,47,85,4
3,47,0,476
3,49,85,4
3,49,0,476
3,45,100,4
3,45,0,716
3,54,85,4
3,54,0,36
3,52,85,4
3,52,0,476
3,54,85,4
3,54,0,116
3,45,100,4
3,45,0,76
3,54,85,0
3,54,0,12
3,52,85,4
3,52,0,56
3,38,100,4
3,38,0,104
3,47,85,4
3,47,0,96
3,45,85,4
3,45,0,116
3,38,100,4
3,38,0,496
3,47,85,4
3,47,0,164
3,45,85,4
3,45,0,44
3,45,100,4
3,45,0,56
3,54,85,4
3,54,0,236
3,52,85,4
3,52,0,356
3,45,100,4
3,45,0,336
3,54,85,4
3,54,0,216
3,52,85,4
3,52,0,404
4,71,110,8104
4,71,0,240
4,71,110,108
4,71,0,132
4,71,110,40
4,71,0,236
4,74,110,44
4,74,0,360
4,74,110,40
4,74,0,476
4,71,110,4
4,71,0,236
4,69,110,32
4,69,0,144
4,69,110,28
4,69,0,236
4,69,110,4
4,69,0,236
4,74,110,44
4,74,0,716
4,71,110,484
4,71,0,236
4,71,110,56
4,71,0,172
4,71,110,16
4,71,0,236
4,74,110,44
4,74,0,360
4,74,110,80
4,74,0,476
4,71,110,4
4,71,0,236
4,69,110,72
4,69,0,160
4,69,110,12
4,69,0,224
4,69,110,16
4,69,0,236
4,74,110,4
4,74,0,716
4,67,110,484
4,67,0,236
4,67,110,60
4,67,0,144
4,67,110,40
4,67,0,236
4,72,110,56
4,72,0,360
4,72,110,68
4,72,0,476
4,67,110,4
4,67,0,236
4,66,110,16
4,66,0,172
4,66,110,56
4,66,0,236
4,66,110,4
4,66,0,236
4,71,110,44
4,71,0,384
4,71,110,56
4,71,0,236
4,69,110,4
4,69,0,476
4,67,110,4
4,67,0,476
4,71,110,3364
4,71,0,236
4,71,110,60
4,71,0,160
4,71,110,24
4,71,0,236
4,74,110,72
4,74,0,384
4,74,110,28
4,74,0,476
4,71,110,4
4,71,0,236
4,69,110,4
4,69,0,144
4,69,110,96
4,69,0,236
4,69,110,4
4,69,0,236
4,74,110,4
4,74,0,716
4,71,110,484
4,71,0,236
4,71,110,72
4,71,0,144
4,71,110,28
4,71,0,236
4,74,110,68
4,74,0,384
4,74,110,32
4,74,0,476
4,71,110,4
4,71,0,236
4,69,110,56
4,69,0,160
4,69,110,28
4,69,0,236
4,69,110,4
4,69,0,236
4,74,110,4
4,74,0,716
4,67,110,484
4,67,0,236
4,67,110,60
4,67,0,144
4,67,110,40
4,67,0,236
4,72,110,84
4,72,0,372
4,72,110,28
4,72,0,476
4,67,110,4
4,67,0,236
4,66,110,4
4,66,0,132
4,66,110,108
4,66,0,236
4,66,110,4
4,66,0,236
4,71,110,96
4,71,0,344
4,71,110,44
4,71,0,236
4,69,110,4
4,69,0,476
4,67,110,4
4,67,0,476
4,76,110,3364
4,76,0,236
4,76,110,60
4,76,0,144
4,76,110,40
4,76,0,236
4,79,110,96
4,79,0,360
4,79,110,28
4,79,0,476
4,76,110,536
4,76,0,144
4,76,110,44
4,76,0,236
4,79,110,44
4,79,0,716
4,74,110,444
4,74,0,236
4,74,110,60
4,74,0,144
4,74,110,40
4,74,0,236
4,78,110,96
4,78,0,360
4,78,110,28
4,78,0,476
4,78,110,4
4,78,0,236
4,74,110,28
4,74,0,144
4,74,110,96
4,74,0,212
4,74,110,4
4,74,0,236
4,78,110,4
4,78,0,716
4,76,110,4
4,76,0,236
4,72,110,44
4,72,0,716
4,69,110,924
4,69,0,236
4,71,110,44
4,72,110,200
4,71,0,36
4,72,0,108
4,74,110,112
4,74,0,172
4,76,110,0
4,76,0,236
4,79,110,56
4,79,0,236
4,78,110,4
4,78,0,476
4,74,110,4
4,74,0,236
4,71,110,4
4,71,0,716
4,76,110,3844
4,76,0,156
4,76,110,44
4,76,0,104
4,76,110,16
4,76,0,156
4,79,110,4
4,79,0,156
4,79,110,4
4,79,0,132
4,79,110,28
4,79,0,156
4,76,110,484
4,76,0,156
4,76,110,4
4,76,0,104
4,76,110,56
4,76,0,156
4,76,110,4
4,76,0,316
4,79,110,4
4,79,0,636
4,76,110,964
4,76,0,156
4,76,110,40
4,76,0,120
4,76,110,4
4,76,0,156
4,79,110,4
4,79,0,156
4,79,110,4
4,79,0,104
4,79,110,56
4,79,0,156
4,76,110,364
4,76,0,120
4,76,110,32
4,76,0,168
4,76,110,76
4,76,0,112
4,76,110,24
4,76,0,240
4,79,110,52
4,79,0,636
4,79,110,340
4,79,0,236
4,78,110,32
4,78,0,384
4,79,110,68
4,79,0,476
4,79,110,724
4,79,0,236
4,78,110,4
4,78,0,476
4,79,110,4
4,79,0,476
4,79,110,724
4,79,0,236
4,78,110,4
4,78,0,476
4,79,110,4
4,79,0,476
4,83,110,964
4,83,0,476
4,83,110,4
4,83,0,476
4,83,110,4
4,83,0,476
