track,note,velocity,time
3,62,97,0
3,64,97,0
3,62,0,1
3,64,0,214
3,59,88,0
3,59,0,140
3,62,88,0
3,62,0,215
3,62,107,0
3,62,0,144
3,64,88,0
3,64,0,527
3,62,102,0
3,62,0,143
3,64,88,0
3,64,0,232
3,59,97,0
3,59,0,143
3,62,88,0
3,62,0,216
3,62,97,0
3,62,0,138
3,64,80,0
3,64,0,525
3,66,102,0
3,66,0,78
3,66,62,0
3,66,0,19
3,66,102,0
3,66,0,48
3,64,84,0
3,64,0,16
3,64,92,0
3,64,0,47
3,62,88,0
3,62,0,16
3,62,76,0
3,62,0,47
3,61,56,0
3,61,0,49
3,62,107,0
3,62,0,46
3,64,80,0
3,64,0,43
3,66,84,0
3,66,0,28
3,64,97,0
3,64,0,1
3,55,102,0
3,55,0,44
3,64,84,0
3,64,0,23
3,64,102,0
3,64,0,43
3,62,88,0
3,62,0,18
3,62,97,0
3,62,0,45
3,61,76,0
3,61,0,24
3,61,92,0
3,61,0,42
3,59,72,0
3,59,0,46
3,59,92,0
3,59,0,40
3,61,92,0
3,61,0,42
3,62,97,0
3,62,0,48
3,61,107,0
3,61,0,372
3,62,88,12
3,62,0,24
3,61,92,0
3,61,0,23
3,59,97,0
3,59,0,29
3,66,102,0
3,66,0,32
3,66,92,0
3,66,0,29
3,66,102,0
3,66,0,39
3,62,107,0
3,62,0,32
3,64,107,0
3,64,0,32
3,64,102,0
3,64,0,288
3,64,97,0
3,64,0,22
3,64,76,0
3,64,0,26
3,64,97,0
3,64,0,27
3,64,66,0
3,64,0,21
3,64,92,0
3,64,0,47
3,69,88,0
3,69,0,48
3,69,107,0
3,69,0,108
3,66,102,0
3,66,0,32
3,66,88,0
3,66,0,21
3,66,107,0
3,66,0,56
3,62,102,0
3,62,0,41
3,64,84,0
3,64,0,32
3,64,97,0
3,64,0,108
3,64,92,0
3,64,0,30
3,64,84,0
3,64,0,24
3,64,102,0
3,64,0,29
3,64,84,0
3,64,0,19
3,64,92,0
3,64,0,44
3,66,92,0
3,66,0,44
3,67,84,0
3,67,0,43
3,69,102,0
3,69,0,236
3,71,97,0
3,71,0,142
3,64,102,0
3,64,0,191
3,69,102,0
3,69,0,21
3,69,84,0
3,69,0,26
3,69,97,0
3,69,0,24
3,69,84,0
3,69,0,25
3,69,92,0
3,69,0,24
3,69,84,0
3,69,0,29
3,69,97,0
3,69,0,64
3,67,102,0
3,67,0,64
3,66,92,0
3,66,0,64
3,64,92,0
3,64,0,64
3,66,92,0
3,66,0,64
3,67,88,0
3,67,0,32
3,69,97,0
3,69,0,170
3,71,97,0
3,71,0,136
3,64,80,8
3,64,0,30
3,64,102,0
3,64,0,255
3,62,102,0
3,62,0,40
3,64,88,0
3,64,0,41
3,66,102,0
3,66,0,47
3,67,68,0
3,67,0,44
3,66,92,0
3,66,0,21
3,66,97,0
3,66,0,95
3,64,72,0
3,64,0,42
3,62,64,0
3,62,0,39
3,64,92,0
3,64,0,95
3,66,88,0
3,66,0,47
3,64,84,0
3,64,0,43
3,62,66,5
3,62,0,33
3,62,88,0
3,62,0,206
3,62,97,0
3,62,0,140
3,64,97,0
3,64,0,233
3,59,92,0
3,59,0,143
3,62,88,0
3,62,0,221
3,62,102,0
3,62,0,141
3,64,88,0
3,64,0,598
3,62,102,0
3,62,0,143
3,64,88,0
3,64,0,216
3,59,88,0
3,59,0,136
3,62,88,0
3,62,0,219
3,62,102,0
3,62,0,142
3,64,92,0
3,64,0,518
3,59,97,0
3,59,0,47
3,66,92,0
3,66,0,26
3,66,97,0
3,66,0,46
3,64,80,0
3,64,0,20
3,64,72,0
3,64,0,47
3,62,92,0
3,62,0,19
3,62,97,0
3,62,0,47
3,61,62,0
3,61,0,51
3,62,102,0
3,62,0,45
3,64,66,0
3,64,0,42
3,66,72,0
3,66,0,22
3,66,92,0
3,66,0,47
3,64,66,0
3,64,0,286
3,55,88,0
3,55,0,47
3,64,84,0
3,64,0,19
3,64,92,0
3,64,0,45
3,62,92,0
3,62,0,17
3,62,88,0
3,62,0,46
3,61,88,0
3,61,0,19
3,61,88,0
3,61,0,47
3,59,64,0
3,59,0,210
3,59,97,0
3,59,0,46
3,61,54,0
3,61,0,47
3,62,88,0
3,62,0,45
3,61,97,0
3,61,0,383
3,62,76,1
3,62,0,23
3,61,80,1
3,61,0,23
3,59,92,0
3,59,0,34
3,66,97,0
3,66,0,29
3,66,84,0
3,66,0,27
3,66,97,0
3,66,0,43
3,62,97,0
3,62,0,44
3,64,76,0
3,64,0,25
3,64,102,0
3,64,0,342
3,64,92,0
3,64,0,28
3,64,64,0
3,64,0,20
3,64,88,0
3,64,0,29
3,64,80,0
3,64,0,25
3,64,92,0
3,64,0,47
3,69,92,0
3,69,0,56
3,69,97,0
3,69,0,137
3,66,92,0
3,66,0,36
3,66,84,0
3,66,0,17
3,66,102,0
3,66,0,35
3,62,102,0
3,62,0,41
3,64,72,0
3,64,0,28
3,64,102,0
3,64,0,360
3,64,92,0
3,64,0,29
3,64,76,0
3,64,0,23
3,64,92,0
3,64,0,23
3,64,76,0
3,64,0,20
3,64,92,0
3,64,0,39
3,66,84,0
3,66,0,39
3,67,88,0
3,67,0,39
3,69,102,0
3,69,0,236
3,71,102,0
3,71,0,140
3,64,64,4
3,64,0,28
3,64,97,0
3,64,0,386
3,69,97,0
3,69,0,27
3,69,84,0
3,69,0,23
3,69,97,0
3,69,0,23
3,69,76,0
3,69,0,23
3,69,92,0
3,69,0,23
3,69,84,0
3,69,0,24
3,69,97,0
3,69,0,63
3,67,102,0
3,66,88,0
3,67,0,6
3,66,0,46
3,64,92,0
3,66,92,0
3,64,0,10
3,67,84,0
3,66,0,5
3,67,0,48
3,69,84,0
3,69,0,181
3,71,97,0
3,71,0,139
3,64,72,5
3,64,0,26
3,64,92,0
3,64,0,254
3,62,97,0
3,62,0,40
3,64,92,0
3,64,0,44
3,66,102,0
3,66,0,47
3,67,76,0
3,67,0,42
3,66,88,0
3,66,0,24
3,66,92,0
3,66,0,95
3,64,80,0
3,64,0,42
3,62,80,0
3,62,0,43
3,64,97,0
3,64,0,95
3,66,76,0
3,66,0,47
3,64,84,0
3,64,0,42
3,62,88,6
3,62,0,33
3,62,76,0
3,62,0,362
3,66,107,0
3,66,0,27
3,66,84,0
3,66,0,21
3,66,107,0
3,66,0,37
3,62,102,0
3,62,0,42
3,64,92,0
3,64,0,20
3,64,112,0
3,64,0,351
3,64,92,0
3,64,0,24
3,64,62,0
3,64,0,21
3,64,92,0
3,64,0,28
3,64,68,0
3,64,0,20
3,64,92,0
3,64,0,47
3,69,88,0
3,69,0,52
3,69,97,0
3,69,0,126
3,66,92,0
3,66,0,22
3,66,92,0
3,66,0,19
3,66,97,0
3,66,0,41
3,62,97,0
3,62,0,42
3,64,88,0
3,64,0,20
3,64,102,0
3,64,0,356
3,64,88,0
3,64,0,24
3,64,92,0
3,64,0,28
3,64,92,0
3,64,0,27
3,64,80,0
3,64,0,27
3,64,88,0
3,64,0,38
3,66,88,0
3,66,0,35
3,67,88,0
3,67,0,29
3,69,97,0
3,69,0,206
3,71,102,0
3,71,0,135
3,64,76,9
3,64,0,24
3,64,84,0
3,64,0,388
3,69,88,0
3,69,0,23
3,69,62,0
3,69,0,17
3,69,92,0
3,69,0,22
3,69,48,0
3,69,0,19
3,69,92,0
3,69,0,24
3,69,68,0
3,69,0,30
3,69,84,0
3,69,0,52
3,67,97,0
3,67,0,51
3,66,92,0
3,66,0,38
3,64,88,0
3,64,0,44
3,66,97,0
3,66,0,41
3,67,84,0
3,67,0,41
3,69,92,0
3,69,0,156
3,71,97,0
3,71,0,138
3,64,80,6
3,64,0,23
3,64,88,0
3,64,0,253
3,62,97,0
3,62,0,43
3,64,84,0
3,64,0,36
3,66,102,0
3,66,0,48
3,67,68,0
3,67,0,46
3,66,92,0
3,66,0,23
3,66,88,0
3,66,0,95
3,64,80,0
3,64,0,41
3,62,76,0
3,62,0,35
3,64,92,0
3,64,0,94
3,66,92,0
3,66,0,45
3,64,84,0
3,64,0,40
3,62,84,8
3,62,0,25
3,62,88,0
3,62,0,384
4,66,102,5193
4,66,0,76
4,66,80,20
4,66,0,13
4,66,102,35
4,66,0,46
4,64,68,2
4,64,0,24
4,64,102,24
4,64,0,46
4,62,84,2
4,62,0,15
4,62,102,33
4,62,0,47
4,61,97,1
4,61,0,46
4,62,102,194
4,62,0,41
4,64,80,7
4,64,0,39
4,66,88,9
4,66,0,17
4,66,97,31
4,66,0,43
4,64,88,5
4,64,0,100
4,55,97,668
4,64,92,48
4,55,0,1
4,64,0,20
4,64,97,27
4,64,0,37
4,62,97,11
4,62,0,16
4,62,97,32
4,62,0,46
4,61,88,2
4,61,0,20
4,61,97,28
4,61,0,44
4,59,92,4
4,59,0,69
4,59,92,171
4,59,0,42
4,61,88,6
4,61,0,39
4,62,84,9
4,62,0,47
4,61,88,1
4,61,0,365
4,62,64,19
4,62,0,23
4,61,76,1
4,61,0,22
4,59,88,2
4,59,0,44
4,66,92,52
4,66,0,25
4,66,92,23
4,66,0,28
4,66,102,20
4,66,0,41
4,62,84,55
4,62,0,47
4,64,84,1
4,64,0,47
4,69,92,1
4,69,0,126
4,69,88,258
4,69,0,27
4,69,88,21
4,69,0,23
4,69,88,25
4,69,0,21
4,69,80,27
4,69,0,19
4,69,88,29
4,69,0,46
4,74,102,2
4,74,0,54
4,74,97,42
4,74,0,110
4,69,92,34
4,69,0,21
4,69,62,27
4,69,0,19
4,69,88,29
4,69,0,65
4,69,64,31
4,69,0,17
4,69,76,31
4,69,0,27
4,69,84,21
4,69,0,129
4,69,92,255
4,69,0,22
4,69,76,26
4,69,0,24
4,69,84,24
4,69,0,22
4,69,80,26
4,69,0,21
4,69,80,27
4,64,66,0
4,64,0,30
4,66,80,18
4,66,0,25
4,69,0,13
4,69,23,10
4,67,64,0
4,69,0,7
4,67,0,25
4,69,80,16
4,74,88,0
4,69,0,48
4,67,88,0
4,67,0,51
4,66,84,21
4,74,0,103
4,66,0,3
4,67,76,14
4,74,72,0
4,67,0,47
4,71,64,1
4,66,68,0
4,71,0,39
4,66,0,52
4,61,54,5
4,69,44,0
4,74,0,15
4,61,0,2
4,69,0,12
4,61,64,19
4,69,84,0
4,61,0,283
4,69,0,59
4,74,102,138
4,74,0,28
4,74,92,20
4,74,0,28
4,74,97,20
4,74,0,36
4,74,97,36
4,74,0,40
4,74,92,8
4,74,0,41
4,74,102,31
4,69,80,64
4,74,0,5
4,69,0,57
4,71,72,2
4,71,0,44
4,61,76,20
4,71,72,0
4,61,0,58
4,71,0,4
4,69,76,2
4,62,80,0
4,62,0,55
4,69,0,9
4,64,72,0
4,67,72,0
4,64,0,50
4,67,0,1
4,69,76,13
4,67,102,48
4,67,0,123
4,69,0,9
4,67,88,12
4,71,76,0
4,66,92,48
4,67,0,7
4,66,0,88
4,64,72,1
4,64,0,38
4,62,76,10
4,69,80,0
4,71,0,8
4,62,0,37
4,61,68,3
4,61,0,202
4,69,0,28
4,66,92,10
4,66,0,47
4,67,64,1
4,67,0,40
4,69,88,8
4,69,0,47
4,71,92,1
4,71,0,42
4,69,76,6
4,69,0,26
4,69,92,22
4,69,0,95
4,67,80,1
4,67,0,47
4,66,84,1
4,66,0,40
4,67,68,8
4,67,0,95
4,69,84,1
4,69,0,47
4,67,84,1
4,67,0,44
4,66,76,4
4,66,0,33
4,66,88,15
4,66,0,161
4,59,97,5983
4,59,0,47
4,66,97,1
4,66,0,24
4,66,97,24
4,66,0,42
4,64,76,6
4,64,0,18
4,64,97,30
4,64,0,46
4,62,80,2
4,62,0,19
4,62,84,29
4,62,0,45
4,61,84,3
4,61,0,42
4,62,97,198
4,62,0,47
4,64,72,1
4,64,0,41
4,66,68,7
4,66,0,21
4,66,92,27
4,66,0,46
4,64,76,2
4,64,0,95
4,55,92,673
4,55,0,47
4,64,88,1
4,64,0,25
4,64,92,23
4,64,0,45
4,62,97,3
4,62,0,16
4,62,84,32
4,62,0,46
4,61,92,2
4,61,0,17
4,61,88,31
4,61,0,43
4,59,76,5
4,59,0,48
4,59,92,192
4,59,0,46
4,61,88,2
4,61,0,47
4,62,68,1
4,62,0,47
4,61,88,1
4,61,0,353
4,62,68,31
4,62,0,23
4,61,84,1
4,61,0,22
4,59,84,2
4,59,0,52
4,66,92,44
4,66,0,26
4,66,62,22
4,66,0,23
4,66,102,25
4,66,0,47
4,62,88,49
4,64,76,48
4,62,0,3
4,69,84,45
4,69,0,119
4,64,0,4
4,69,92,261
4,69,0,26
4,69,66,22
4,69,0,22
4,69,88,26
4,69,0,22
4,69,80,26
4,69,0,19
4,69,80,29
4,69,0,47
4,74,88,1
4,74,0,53
4,74,97,43
4,74,0,134
4,69,58,10
4,69,0,24
4,69,80,24
4,69,0,22
4,69,92,26
4,69,0,51
4,69,76,45
4,69,0,31
4,69,62,17
4,69,0,30
4,69,80,18
4,69,0,90
4,69,88,294
4,69,0,23
4,69,76,25
4,69,0,23
4,69,80,25
4,69,0,24
4,69,68,24
4,69,0,20
4,64,72,28
4,69,80,0
4,64,0,25
4,69,0,13
4,66,76,10
4,69,64,0
4,69,0,25
4,66,0,1
4,69,68,22
4,67,66,0
4,67,0,37
4,69,0,0
4,74,80,11
4,67,42,48
4,67,0,47
4,66,68,1
4,66,0,128
4,74,0,10
4,67,80,6
4,74,64,0
4,67,0,45
4,66,84,3
4,66,0,81
4,74,0,11
4,69,76,52
4,62,66,0
4,62,0,47
4,61,66,1
4,61,0,246
4,69,0,1
4,74,107,233
4,74,0,30
4,74,97,18
4,74,0,29
4,74,84,19
4,74,0,28
4,74,92,20
4,74,0,27
4,74,88,21
4,74,0,26
4,74,97,22
4,74,0,64
4,69,80,0
4,69,0,63
4,71,84,1
4,71,0,36
4,61,66,28
4,71,72,0
4,61,0,55
4,71,0,6
4,62,64,3
4,69,76,0
4,62,0,55
4,69,0,5
4,64,64,4
4,67,68,0
4,67,0,46
4,64,0,0
4,69,84,18
4,67,84,48
4,67,0,140
4,67,80,4
4,71,68,0
4,69,0,8
4,67,0,40
4,66,84,0
4,66,0,82
4,64,46,14
4,71,0,41
4,64,0,6
4,69,64,1
4,62,66,0
4,62,0,44
4,61,68,4
4,61,0,192
4,69,0,5
4,66,88,43
4,66,0,47
4,67,64,1
4,67,0,45
4,69,84,3
4,69,0,45
4,71,92,3
4,71,0,47
4,69,62,1
4,69,0,22
4,69,92,26
4,69,0,95
4,67,68,1
4,67,0,46
4,66,68,2
4,66,0,40
4,67,80,8
4,67,0,95
4,69,84,1
4,69,0,46
4,67,84,2
4,67,0,45
4,66,68,3
4,66,0,30
4,66,84,18
4,66,0,176
4,67,88,4336
4,67,0,44
4,69,68,4
4,69,0,26
4,69,66,22
4,69,0,300
4,69,88,84
4,69,0,27
4,69,76,21
4,69,0,21
4,69,84,27
4,69,0,19
4,69,84,29
4,69,0,19
4,69,84,29
4,74,92,48
4,69,0,1
4,74,0,52
4,74,88,43
4,74,0,106
4,69,92,38
4,69,0,19
4,69,64,29
4,69,0,15
4,69,92,33
4,69,0,51
4,69,80,45
4,69,0,26
4,69,64,22
4,69,0,18
4,69,80,30
4,69,0,228
4,69,88,156
4,69,0,24
4,69,62,24
4,69,0,21
4,69,84,27
4,69,0,23
4,69,66,25
4,69,0,20
4,64,60,28
4,69,80,0
4,64,0,25
4,69,0,1
4,66,68,22
4,69,66,0
4,69,0,27
4,66,0,0
4,67,62,21
4,69,68,0
4,67,0,44
4,69,0,1
4,74,97,3
4,67,76,48
4,67,0,46
4,66,72,2
4,66,0,134
4,74,0,5
4,74,60,5
4,67,76,0
4,67,0,47
4,66,66,1
4,74,0,89
4,66,0,2
4,69,66,5
4,69,0,24
4,69,84,24
4,62,68,0
4,62,0,47
4,61,60,1
4,61,0,327
4,69,0,3
4,74,102,102
4,74,0,26
4,74,92,22
4,74,0,24
4,74,92,24
4,74,0,25
