track,note,velocity,time
0,64,104,229
0,69,108,0
0,72,104,0
0,76,108,0
0,88,88,0
0,76,0,12
0,64,0,0
0,69,0,0
0,72,0,0
0,88,0,12
0,64,96,24
0,69,100,0
0,72,84,0
0,76,78,0
0,88,72,0
0,76,0,12
0,64,0,0
0,69,0,0
0,72,0,0
0,88,0,12
0,64,84,24
0,69,88,0
0,72,78,0
0,76,92,0
0,88,84,0
0,76,0,12
0,64,0,0
0,69,0,0
0,72,0,0
0,88,0,12
0,64,100,24
0,69,100,0
0,72,82,0
0,76,88,0
0,88,88,0
0,76,0,12
0,64,0,0
0,69,0,0
0,72,0,0
0,88,0,12
0,64,96,24
0,69,100,0
0,72,88,0
0,76,104,0
0,88,88,0
0,76,0,12
0,64,0,0
0,69,0,0
0,72,0,0
0,88,0,12
0,64,88,24
0,69,92,0
0,72,78,0
0,76,104,0
0,88,88,0
0,88,0,24
0,76,0,19
0,64,0,0
0,69,0,0
0,72,0,0
0,64,108,5
0,76,66,0
0,64,0,24
0,69,108,0
0,76,0,0
0,81,62,0
0,69,0,24
0,72,96,0
0,81,0,0
0,84,62,0
0,72,0,24
0,76,104,0
0,84,0,0
0,88,80,0
0,76,0,24
0,65,104,0
0,69,86,0
0,72,84,0
0,75,65,0
0,88,0,0
0,87,68,0
0,75,0,12
0,65,0,0
0,69,0,0
0,72,0,0
0,87,0,12
0,65,59,24
0,69,88,0
0,72,80,0
0,75,82,0
0,87,88,0
0,75,0,12
0,65,0,0
0,69,0,0
0,72,0,0
0,87,0,12
0,65,96,24
0,69,100,0
0,72,84,0
0,75,82,0
0,87,88,0
0,75,0,12
0,65,0,0
0,69,0,0
0,72,0,0
0,87,0,12
0,65,92,24
0,69,100,0
0,72,80,0
0,75,82,0
0,87,76,0
0,75,0,12
0,65,0,0
0,69,0,0
0,72,0,0
0,87,0,12
0,65,100,24
0,69,108,0
0,72,84,0
0,75,80,0
0,87,64,0
0,75,0,12
0,65,0,0
0,69,0,0
0,72,0,0
0,87,0,12
0,65,78,24
0,69,100,0
0,72,78,0
0,75,74,0
0,87,80,0
0,87,0,24
0,75,0,19
0,65,0,0
0,69,0,0
0,72,0,0
0,65,104,5
0,77,64,0
0,65,0,24
0,69,82,0
0,77,0,0
0,81,64,0
0,69,0,24
0,72,74,0
0,81,0,0
0,84,62,0
0,72,0,24
0,75,92,0
0,84,0,0
0,87,76,0
0,75,0,24
0,50,86,0
0,65,92,0
0,69,92,0
0,74,88,0
0,87,0,0
0,86,88,0
0,86,0,24
0,69,0,64
0,74,0,4
0,72,104,4
0,84,84,0
0,65,0,22
0,84,0,2
0,72,0,17
0,69,72,7
0,81,62,0
0,69,0,12
0,81,0,12
0,50,0,18
0,52,74,6
0,62,82,0
0,68,104,0
0,72,104,0
0,84,84,0
0,72,0,15
0,68,0,0
0,62,0,3
0,84,0,6
0,52,0,16
0,52,58,8
0,62,86,0
0,68,112,0
0,72,112,0
0,84,84,0
0,84,0,24
0,72,0,48
0,68,0,0
0,62,0,0
0,52,0,16
0,60,112,8
0,64,96,0
0,69,100,0
0,81,80,0
0,81,0,24
0,69,0,44
0,64,0,1
0,60,0,6
0,45,96,65
0,52,100,12
0,57,82,12
0,45,0,6
0,52,0,2
0,48,88,4
0,57,0,3
0,52,86,9
0,48,0,4
0,57,76,8
0,52,0,3
0,57,0,6
0,60,100,3
0,64,88,12
0,69,112,12
0,93,92,0
0,60,0,2
0,64,0,4
0,69,0,6
0,93,0,0
0,33,56,136
0,57,74,0
0,81,55,0
0,35,61,0
0,35,0,3
0,57,0,21
0,59,72,0
0,81,0,0
0,83,53,0
0,33,0,24
0,45,58,0
0,59,0,0
0,60,66,0
0,83,0,0
0,84,52,0
0,45,0,18
0,60,0,6
0,64,96,0
0,84,0,0
0,88,51,0
0,33,56,24
0,64,0,0
0,57,84,0
0,88,0,0
0,81,50,0
0,35,61,0
0,35,0,3
0,57,0,21
0,59,88,0
0,81,0,0
0,83,48,0
0,33,0,24
0,45,54,0
0,59,0,0
0,60,82,0
0,83,0,0
0,84,47,0
0,45,0,16
0,60,0,8
0,64,112,0
0,84,0,0
0,88,46,0
0,33,60,24
0,64,0,0
0,57,108,0
0,88,0,0
0,81,44,0
0,35,62,0
0,35,0,3
0,57,0,21
0,59,104,0
0,81,0,0
0,83,43,0
0,33,0,24
0,45,54,0
0,59,0,0
0,60,100,0
0,83,0,0
0,84,42,0
0,45,0,23
0,60,0,1
0,64,108,0
0,84,0,0
0,88,40,0
0,33,62,24
0,64,0,0
0,57,100,0
0,88,0,0
0,81,39,0
0,35,63,0
0,35,0,3
0,57,0,21
0,59,112,0
0,81,0,0
0,83,38,0
0,33,0,24
0,45,58,0
0,59,0,0
0,60,104,0
0,83,0,0
0,84,37,0
0,60,0,24
0,64,117,0
0,84,0,0
0,88,35,0
0,45,0,2
0,33,60,22
0,64,0,0
0,57,100,0
0,88,0,0
0,81,34,0
0,35,63,0
0,35,0,3
0,57,0,21
0,59,100,0
0,81,0,0
0,83,33,0
0,33,0,24
0,45,54,0
0,59,0,0
0,60,86,0
0,83,0,0
0,84,31,0
0,45,0,14
0,60,0,10
0,64,92,0
0,84,0,0
0,88,30,0
0,33,60,24
0,64,0,0
0,57,84,0
0,88,0,0
0,81,29,0
0,35,64,0
0,35,0,3
0,57,0,21
0,59,74,0
0,81,0,0
0,83,27,0
0,33,0,24
0,45,50,0
0,59,0,0
0,60,70,0
0,83,0,0
0,84,26,0
0,45,0,11
0,60,0,13
0,64,86,0
0,84,0,0
0,88,25,0
0,33,62,24
0,64,0,0
0,57,74,0
0,88,0,0
0,81,24,0
0,35,65,0
0,35,0,3
0,57,0,21
0,59,74,0
0,81,0,0
0,83,22,0
0,33,0,24
0,45,54,0
0,59,0,0
0,60,60,0
0,83,0,0
0,84,21,0
0,45,0,17
0,60,0,7
0,64,72,0
0,84,0,0
0,88,20,0
0,33,58,24
0,64,0,0
0,57,56,0
0,88,0,0
0,81,18,0
0,35,65,0
0,35,0,3
0,57,0,21
0,59,64,0
0,81,0,0
0,83,17,0
0,64,73,0
0,33,0,0
0,45,60,0
0,57,60,0
0,60,78,0
0,64,72,0
0,59,0,0
0,60,66,0
0,83,0,0
0,84,16,0
0,60,0,11
0,64,0,1
0,64,0,2
0,57,0,0
0,45,0,2
0,60,0,8
0,64,78,0
0,84,0,0
0,88,14,0
0,64,99,0
0,33,60,0
0,57,76,0
0,60,82,0
0,64,78,0
0,64,0,0
0,88,0,0
0,81,13,0
0,35,66,0
0,35,0,3
0,60,0,20
0,81,0,1
0,83,12,0
0,57,0,1
0,64,0,3
0,64,0,19
0,65,71,0
0,33,0,0
0,45,62,0
0,57,76,0
0,60,66,0
0,65,86,0
0,83,0,0
0,84,11,0
0,60,0,9
0,65,0,6
0,57,0,0
0,45,0,1
0,65,0,1
0,84,0,7
0,65,79,0
0,33,56,0
0,57,84,0
0,60,84,0
0,65,86,0
0,35,63,0
0,35,0,3
0,57,0,24
0,60,0,2
0,65,0,1
0,65,0,8
0,64,67,0
0,33,0,0
0,45,62,0
0,57,58,0
0,60,66,0
0,64,78,0
0,60,0,8
0,57,0,2
0,64,0,2
0,64,0,0
0,45,0,3
0,64,75,0
0,33,58,0
0,57,74,0
0,60,78,0
0,64,78,0
0,35,66,0
0,35,0,3
0,57,0,24
0,64,0,1
0,60,0,1
0,64,0,18
0,65,61,0
0,33,0,0
0,45,56,0
0,57,62,0
0,60,76,0
0,65,96,0
0,60,0,11
0,45,0,2
0,57,0,0
0,65,0,1
0,65,0,0
0,65,77,0
0,33,54,0
0,57,86,0
0,60,88,0
0,65,86,0
0,35,69,0
0,35,0,3
0,57,0,28
0,65,0,1
0,60,0,8
0,65,0,2
0,64,65,0
0,33,0,0
0,45,64,0
0,57,78,0
0,64,84,0
0,64,0,12
0,45,0,1
0,57,0,2
0,64,0,4
0,64,75,0
0,32,66,0
0,56,88,0
0,59,92,0
0,64,86,0
0,35,71,0
0,35,0,3
0,56,0,21
0,59,0,8
0,64,0,5
0,64,0,10
0,65,69,0
0,32,0,0
0,44,62,0
0,56,59,0
0,59,82,0
0,65,86,0
0,59,0,13
0,56,0,0
0,65,0,3
0,44,0,1
0,65,0,1
0,65,79,0
0,32,54,0
0,56,84,0
0,59,88,0
0,65,82,0
0,35,74,0
0,35,0,3
0,56,0,20
0,65,0,6
0,65,0,16
0,64,59,0
0,32,0,0
0,44,64,0
0,56,70,0
0,64,88,0
0,64,0,14
0,44,0,0
0,56,0,0
0,59,0,0
0,64,0,10
0,64,77,0
0,32,64,0
0,56,84,0
0,64,88,0
0,35,77,0
0,35,0,3
0,56,0,15
0,64,0,6
0,64,0,23
0,69,67,0
0,32,0,0
0,44,64,0
0,59,64,0
0,64,84,0
0,69,96,0
0,69,0,10
0,59,0,3
0,44,0,3
0,64,0,4
0,69,0,1
0,69,79,0
0,32,62,0
0,59,100,0
0,64,84,0
0,69,100,0
0,35,80,0
0,35,0,3
0,59,0,24
0,69,0,11
0,64,0,2
0,69,0,6
0,68,69,2
0,32,0,0
0,44,62,0
0,59,80,0
0,64,68,0
0,68,76,0
0,44,0,16
0,28,60,2
0,40,101,0
0,52,85,0
0,35,82,0
0,35,0,3
0,28,0,0
0,68,0,1
0,28,54,22
0,40,0,12
0,52,0,1
0,28,0,5
0,59,0,5
0,38,76,25
0,40,89,0
0,52,101,0
0,40,85,0
0,68,0,3
0,64,0,0
0,40,0,0
0,38,0,1
0,28,56,1
0,64,86,0
0,64,0,13
0,28,0,11
0,74,77,0
0,38,66,0
0,64,88,0
0,68,88,0
0,71,92,0
0,74,84,0
0,65,84,0
0,71,40,0
0,74,37,0
0,35,85,0
0,35,0,3
0,71,0,8
0,64,0,0
0,68,0,1
0,71,0,2
0,65,0,3
0,74,0,3
0,74,0,2
0,74,0,1
0,52,0,2
0,40,0,8
0,38,0,14
0,74,87,0
0,40,81,0
0,52,77,0
0,64,104,0
0,68,108,0
0,71,112,0
0,74,92,0
0,65,88,0
0,71,52,0
0,74,42,0
0,74,0,44
0,40,72,4
0,40,85,0
0,40,0,3
0,65,0,8
0,74,0,5
0,71,0,1
0,64,0,13
0,68,0,1
0,74,0,5
0,71,0,3
0,40,0,6
0,40,0,0
0,52,0,2
0,74,91,0
0,28,48,0
0,45,84,0
0,64,84,0
0,69,96,0
0,72,100,0
0,65,80,0
0,72,40,0
0,69,46,0
0,46,55,0
0,46,0,3
0,28,0,23
0,74,0,20
0,65,0,1
0,72,79,1
0,33,62,0
0,64,64,0
0,57,80,0
0,81,34,0
0,35,85,0
0,42,65,0
0,42,0,3
0,35,0,0
0,57,0,21
0,59,88,0
0,81,0,0
0,83,33,0
0,33,0,1
0,45,69,0
0,59,0,0
0,60,88,0
0,83,0,0
0,84,31,0
0,45,0,2
0,60,0,3
0,64,108,0
0,84,0,0
0,88,30,0
0,33,62,0
0,64,0,0
0,57,108,0
0,88,0,0
0,81,29,0
0,40,85,0
0,40,0,3
0,72,0,2
0,64,0,0
0,57,0,11
0,59,117,0
0,81,0,0
0,83,27,0
0,33,0,24
0,45,68,0
0,59,0,0
0,60,100,0
0,83,0,0
0,84,26,0
0,45,0,19
0,60,0,5
0,64,108,0
0,84,0,0
0,88,25,0
0,69,0,23
0,33,62,1
0,64,0,0
0,57,96,0
0,88,0,0
0,81,24,0
0,35,85,0
0,72,0,2
0,35,0,1
0,57,0,21
0,59,104,0
0,81,0,0
0,83,22,0
0,33,0,24
0,45,66,0
0,59,0,0
0,60,86,0
0,83,0,0
0,84,21,0
0,35,68,0
0,35,0,3
0,45,0,13
0,72,0,0
0,69,0,2
0,64,0,6
0,60,0,0
0,64,96,0
0,84,0,0
0,88,20,0
0,45,0,6
0,33,54,18
0,64,0,0
0,57,78,0
0,88,0,0
0,81,18,0
0,40,85,0
0,40,0,3
0,57,0,21
0,59,78,0
0,81,0,0
0,83,17,0
0,64,81,0
0,33,0,0
0,45,56,0
0,57,92,0
0,60,84,0
0,64,84,0
0,59,0,0
0,60,72,0
0,83,0,0
0,84,16,0
0,60,0,11
0,64,0,1
0,57,0,3
0,45,0,3
0,64,0,1
0,60,0,5
0,64,78,0
0,84,0,0
0,88,14,0
0,64,79,0
0,33,58,0
0,57,86,0
0,60,84,0
0,64,92,0
0,64,0,0
0,57,64,0
0,88,0,0
0,81,13,0
0,35,66,0
0,35,0,3
0,81,0,21
0,57,0,3
0,64,0,2
0,60,0,0
0,64,0,18
0,65,65,0
0,33,0,0
0,45,62,0
0,57,74,0
0,60,78,0
0,65,96,0
0,60,0,12
0,65,0,2
0,57,0,0
0,65,0,2
0,45,0,4
0,57,0,5
0,65,95,0
0,33,54,0
0,57,88,0
0,60,86,0
0,65,96,0
0,35,63,0
0,35,0,3
0,60,0,27
0,57,0,0
0,65,0,5
0,65,0,8
0,64,71,0
0,33,0,0
0,45,64,0
0,60,60,0
0,64,84,0
0,60,0,9
0,64,0,3
0,64,0,5
0,45,0,1
0,64,91,0
0,33,56,0
0,57,86,0
0,60,86,0
0,64,88,0
0,35,66,0
0,35,0,3
0,57,0,26
0,64,0,2
0,60,0,2
0,64,0,14
0,65,77,0
0,33,0,0
0,45,56,0
0,57,78,0
0,60,86,0
0,65,86,0
0,60,0,14
0,45,0,2
0,65,0,0
0,57,0,1
0,65,0,1
0,65,81,0
0,33,56,0
0,57,88,0
0,60,96,0
0,65,104,0
0,35,69,0
0,35,0,3
0,65,0,36
0,65,0,6
0,64,77,0
0,33,0,0
0,45,64,0
0,64,86,0
0,60,0,5
0,57,0,5
0,64,0,5
0,64,0,2
0,45,0,1
0,64,83,0
0,32,66,0
0,56,104,0
0,59,88,0
0,64,86,0
0,35,71,0
0,35,0,3
0,56,0,32
0,64,0,7
0,64,0,5
0,65,77,0
0,32,0,0
0,44,60,0
0,56,56,0
0,65,88,0
0,56,0,13
0,59,0,0
0,65,0,3
0,44,0,0
0,65,0,2
0,65,95,0
0,32,66,0
0,56,92,0
0,59,86,0
0,65,96,0
0,35,74,0
0,35,0,3
0,65,0,41
0,65,0,1
0,64,81,0
0,32,0,0
0,44,60,0
0,64,88,0
0,59,0,6
0,56,0,2
0,64,0,7
0,44,0,2
0,64,0,7
0,64,79,0
0,32,64,0
0,59,92,0
0,64,100,0
0,35,77,0
0,35,0,3
0,59,0,36
0,64,0,5
0,64,0,0
0,69,83,0
0,32,0,0
0,44,48,0
0,59,55,0
0,64,59,0
0,69,100,0
0,69,0,15
0,64,0,0
0,59,0,0
0,44,0,2
0,69,0,1
0,69,91,0
0,32,68,0
0,59,104,0
0,64,92,0
0,69,96,0
0,35,80,0
0,35,0,3
0,59,0,0
0,69,0,1
0,69,0,1
0,68,87,4
0,32,0,0
0,44,66,0
0,59,56,0
0,68,86,0
0,44,0,4
0,59,0,2
0,28,62,21
0,40,108,0
0,35,82,0
0,35,0,3
0,68,0,0
0,68,0,1
0,28,0,1
0,64,0,0
0,40,0,23
0,28,56,6
0,52,100,0
0,52,0,15
0,28,0,8
0,38,64,25
0,40,108,0
0,40,85,0
0,40,0,3
0,38,0,3
0,40,0,0
0,28,62,3
0,52,108,0
0,52,0,23
0,28,0,5
0,77,95,0
0,38,66,0
0,40,108,0
0,64,80,0
0,68,86,0
0,71,100,0
0,74,96,0
0,68,88,0
0,71,60,0
0,74,40,0
0,35,85,0
0,35,0,3
0,71,0,4
0,68,0,2
0,64,0,3
0,74,0,4
0,77,0,2
0,71,0,0
0,68,0,1
0,74,0,2
0,38,0,14
0,40,0,1
0,77,103,0
0,52,117,0
0,64,100,0
0,68,104,0
0,71,117,0
0,74,92,0
0,68,88,0
0,74,40,0
0,71,58,0
0,77,0,44
0,52,0,0
0,68,0,2
0,40,64,2
0,40,104,0
0,40,85,0
0,71,0,1
0,74,0,0
0,40,0,2
0,64,0,15
0,68,0,0
0,74,0,4
0,71,0,4
0,40,0,11
0,40,0,6
0,77,103,0
0,28,52,0
