track,note,velocity,time
3,61,88,0
3,61,0,12
3,61,73,0
3,61,0,12
3,61,73,0
3,61,0,56
3,62,71,0
3,62,0,13
3,62,87,0
3,62,0,56
3,64,79,0
3,64,0,11
3,64,91,0
3,64,0,30
3,64,81,0
3,64,0,5
3,61,77,0
3,61,0,11
3,61,77,0
3,61,0,12
3,61,67,0
3,61,0,48
3,62,81,0
3,62,0,18
3,62,95,0
3,62,0,40
3,64,77,0
3,64,0,19
3,64,83,0
3,64,0,43
3,62,75,0
3,62,0,17
3,62,79,0
3,62,0,43
3,61,77,0
3,61,0,15
3,61,83,0
3,61,0,42
3,59,73,0
3,59,0,15
3,59,71,0
3,59,0,43
3,57,59,0
3,57,0,30
3,57,57,0
3,57,0,103
3,62,79,0
3,62,0,9
3,62,81,0
3,62,0,12
3,62,91,0
3,62,0,41
3,64,79,0
3,64,0,10
3,64,91,0
3,64,0,33
3,66,79,0
3,66,0,13
3,66,87,0
3,66,0,21
3,64,77,0
3,64,0,22
3,66,77,0
3,66,0,13
3,62,77,0
3,62,0,10
3,62,79,0
3,62,0,10
3,62,81,0
3,62,0,38
3,64,69,0
3,64,0,15
3,64,81,0
3,64,0,48
3,66,79,0
3,66,0,16
3,66,91,0
3,66,0,41
3,64,69,0
3,64,0,8
3,64,81,0
3,64,0,44
3,62,79,0
3,62,0,12
3,62,79,0
3,62,0,42
3,61,77,0
3,61,0,14
3,61,83,0
3,61,0,45
3,59,75,0
3,59,0,21
3,59,79,0
3,59,0,96
3,64,81,0
3,64,0,11
3,64,79,0
3,64,0,11
3,64,81,0
3,64,0,34
3,66,81,0
3,66,0,16
3,66,95,0
3,66,0,42
3,68,67,0
3,68,0,17
3,68,83,0
3,68,0,39
3,66,99,0
3,66,0,14
3,66,103,0
3,66,0,37
3,64,79,0
3,64,0,16
3,64,81,0
3,64,0,45
3,62,71,0
3,62,0,16
3,62,79,0
3,62,0,47
3,61,83,0
3,61,0,19
3,61,99,0
3,61,0,45
3,59,81,0
3,59,0,17
3,59,71,0
3,59,0,44
3,57,67,0
3,57,0,26
3,57,61,0
3,57,0,2
3,61,79,0
3,61,0,9
3,61,81,0
3,61,0,12
3,61,79,0
3,61,0,37
3,62,73,0
3,62,0,11
3,62,91,0
3,62,0,26
3,64,73,0
3,64,0,12
3,64,81,0
3,64,0,29
3,64,79,0
3,64,0,47
3,61,77,0
3,61,0,11
3,61,75,0
3,61,0,12
3,61,67,0
3,61,0,39
3,62,71,0
3,62,0,13
3,62,77,0
3,62,0,43
3,64,77,0
3,64,0,21
3,64,75,0
3,64,0,46
3,62,71,0
3,62,0,16
3,62,79,0
3,62,0,44
3,61,83,0
3,61,0,20
3,61,83,0
3,61,0,41
3,59,69,0
3,59,0,19
3,59,69,0
3,59,0,42
3,57,69,0
3,57,0,29
3,57,61,0
3,57,0,113
3,62,73,0
3,62,0,11
3,62,69,0
3,62,0,9
3,62,81,0
3,62,0,41
3,64,73,0
3,64,0,12
3,64,83,0
3,64,0,35
3,66,73,0
3,66,0,12
3,66,91,0
3,66,0,24
3,64,77,0
3,64,0,17
3,66,67,0
3,66,0,2
3,62,61,0
3,62,0,7
3,62,81,0
3,62,0,12
3,62,81,0
3,62,0,43
3,64,79,0
3,64,0,12
3,64,79,0
3,64,0,45
3,66,79,0
3,66,0,16
3,66,79,0
3,66,0,44
3,64,77,0
3,64,0,15
3,64,71,0
3,64,0,48
3,62,71,0
3,62,0,14
3,62,71,0
3,62,0,44
3,61,79,0
3,61,0,15
3,61,87,0
3,61,0,45
3,59,69,0
3,59,0,23
3,59,73,0
3,59,0,104
3,64,79,0
3,64,0,12
3,64,77,0
3,64,0,12
3,64,79,0
3,64,0,47
3,66,71,0
3,66,0,14
3,66,95,0
3,66,0,45
3,68,83,0
3,68,0,20
3,68,83,0
3,68,0,41
3,66,95,0
3,66,0,16
3,66,91,0
3,66,0,37
3,64,77,0
3,64,0,17
3,64,71,0
3,64,0,48
3,62,67,0
3,62,0,15
3,62,63,0
3,62,0,41
3,61,71,0
3,61,0,18
3,61,81,0
3,61,0,44
3,59,71,0
3,59,0,18
3,59,71,0
3,59,0,47
3,57,77,0
3,57,0,26
3,57,75,0
3,57,0,20
3,69,81,0
3,69,0,22
3,69,75,0
3,69,0,22
3,69,79,0
3,69,0,23
3,69,81,0
3,69,0,21
3,69,81,0
3,69,0,22
3,69,81,0
3,69,0,21
3,68,95,0
3,68,0,57
3,64,87,0
3,64,0,46
3,62,79,0
3,62,0,99
3,69,81,0
3,69,0,43
3,68,83,0
3,68,0,91
3,64,83,0
3,64,0,43
3,62,77,0
3,62,0,92
3,68,91,0
3,68,0,44
3,66,91,0
3,66,0,45
3,64,69,0
3,64,0,19
3,64,95,0
3,64,0,5
3,69,73,0
3,69,0,24
3,69,81,0
3,69,0,29
3,69,83,0
3,69,0,27
3,69,77,0
3,69,0,28
3,69,87,0
3,69,0,25
3,69,81,0
3,69,0,32
3,68,91,0
3,68,0,53
3,64,83,0
3,64,0,43
3,62,79,0
3,62,0,82
3,69,77,0
3,69,0,38
3,68,67,0
3,68,0,5
3,64,75,0
3,64,0,45
3,62,75,0
3,62,0,73
3,68,95,0
3,68,0,47
3,66,77,0
3,66,0,47
3,64,59,0
3,64,0,21
3,64,81,0
3,64,0,2
3,61,95,0
3,61,0,27
3,61,71,0
3,61,0,24
3,61,95,0
3,61,0,25
3,61,77,0
3,61,0,23
3,61,95,0
3,61,0,23
3,61,87,0
3,61,0,44
3,62,91,0
3,62,0,44
3,64,81,0
3,64,0,48
3,66,79,0
3,66,0,1
3,61,99,0
3,61,0,41
3,62,79,0
3,62,0,41
3,61,73,0
3,61,0,24
3,61,87,0
3,61,0,47
3,59,73,0
3,59,0,13
3,69,79,0
3,69,0,24
3,69,77,0
3,69,0,21
3,69,81,0
3,69,0,22
3,69,81,0
3,69,0,22
3,69,81,0
3,69,0,22
3,69,77,0
3,69,0,30
3,68,83,0
3,68,0,67
3,64,91,0
3,64,0,43
3,62,77,0
3,62,0,97
3,69,81,0
3,69,0,43
3,68,79,0
3,68,0,87
3,64,77,0
3,64,0,41
3,62,79,0
3,62,0,82
3,61,87,0
3,61,0,47
3,59,75,0
3,59,0,47
3,57,61,0
3,57,0,33
3,57,81,0
3,57,0,7
3,69,77,0
3,69,0,27
3,69,83,0
3,69,0,28
3,69,73,0
3,69,0,28
3,69,77,0
3,69,0,25
3,69,69,0
3,69,0,24
3,69,73,0
3,69,0,38
3,68,61,0
3,68,0,69
3,64,79,0
3,64,0,42
3,62,87,0
3,62,0,88
3,69,75,0
3,69,0,44
3,68,79,0
3,68,0,84
3,64,81,0
3,64,0,46
3,62,81,0
3,62,0,84
3,61,67,0
3,61,0,47
3,59,73,0
3,59,0,47
3,57,61,0
3,57,0,446
3,61,75,0
3,61,0,10
3,61,73,0
3,61,0,9
3,61,77,0
3,61,0,44
3,62,71,0
3,62,0,12
3,62,77,0
3,62,0,38
3,64,77,0
3,64,0,13
3,64,81,0
3,64,0,27
3,64,79,0
3,64,0,4
3,61,79,0
3,61,0,10
3,61,73,0
3,61,0,11
3,61,77,0
3,61,0,48
3,62,77,0
3,62,0,12
3,62,81,0
3,62,0,42
3,64,81,0
3,64,0,16
3,64,77,0
3,64,0,36
3,62,71,0
3,62,0,11
3,62,67,0
3,62,0,44
3,61,77,0
3,61,0,14
3,61,81,0
3,61,0,44
3,59,73,0
3,59,0,15
3,59,77,0
3,59,0,45
3,57,71,0
3,57,0,21
3,57,51,0
3,57,0,2
3,62,75,0
3,62,0,9
3,62,71,0
3,62,0,10
3,62,73,0
3,62,0,43
3,64,75,0
3,64,0,15
3,64,71,0
3,64,0,43
3,66,91,0
3,66,0,12
3,66,83,0
3,66,0,30
3,64,77,0
3,64,0,20
3,66,75,0
3,66,0,342
3,62,71,0
3,62,0,11
3,62,77,0
3,62,0,12
3,62,69,0
3,62,0,34
3,64,73,0
3,64,0,16
3,64,81,0
3,64,0,43
3,66,75,0
3,66,0,13
3,66,79,0
3,66,0,44
3,64,75,0
3,64,0,14
3,64,79,0
3,64,0,47
3,62,71,0
3,62,0,16
3,62,81,0
3,62,0,42
3,61,75,0
3,61,0,17
3,61,79,0
3,61,0,47
3,59,69,0
3,59,0,21
3,59,77,0
3,59,0,91
3,64,75,0
3,64,0,12
3,64,81,0
3,64,0,11
3,64,81,0
3,64,0,40
3,66,73,0
3,66,0,16
3,66,87,0
3,66,0,45
3,68,54,0
3,68,0,19
3,68,83,0
3,68,0,45
3,66,83,0
3,66,0,18
3,66,91,0
3,66,0,46
3,64,86,0
3,64,0,24
3,64,69,0
3,64,0,40
3,62,79,0
3,62,0,16
3,62,77,0
3,62,0,42
3,61,83,0
3,61,0,24
3,61,79,0
3,61,0,47
3,59,73,0
3,59,0,24
3,59,67,0
3,59,0,44
3,57,71,0
3,57,0,23
3,57,77,0
3,57,0,378
3,69,79,0
3,69,0,27
3,69,83,0
3,69,0,29
3,69,79,0
3,69,0,25
3,69,79,0
3,69,0,24
3,69,81,0
3,69,0,20
3,69,79,0
3,69,0,35
3,68,77,0
3,68,0,63
3,64,81,0
3,64,0,44
3,62,79,0
3,62,0,76
3,69,79,0
3,69,0,40
3,68,79,0
3,68,0,86
3,64,79,0
3,64,0,45
3,62,77,0
3,62,0,76
3,68,81,0
3,68,0,46
3,66,87,0
3,66,0,42
3,64,77,0
3,64,0,13
3,64,81,0
3,64,0,353
3,69,83,0
3,69,0,24
3,69,77,0
3,69,0,28
3,69,73,0
3,69,0,32
3,69,67,0
3,69,0,28
3,69,81,0
3,69,0,28
3,69,69,0
3,69,0,38
3,68,73,0
3,68,0,71
3,64,81,0
3,64,0,41
3,62,79,0
3,62,0,104
3,69,79,0
3,69,0,40
3,68,77,0
3,68,0,99
3,64,87,0
3,64,0,44
3,62,79,0
3,62,0,60
3,68,95,0
3,68,0,48
3,66,81,0
3,66,0,47
3,64,75,0
3,64,0,18
3,64,79,0
3,64,0,199
3,61,91,0
3,61,0,23
3,61,77,0
3,61,0,19
3,61,87,0
3,61,0,22
3,61,87,0
3,61,0,21
3,61,79,0
3,61,0,17
3,61,91,0
3,61,0,43
3,62,81,0
3,62,0,44
3,64,81,0
3,64,0,49
3,66,79,0
3,66,0,164
3,61,75,0
3,61,0,44
3,62,73,0
3,62,0,47
3,61,73,0
3,61,0,41
3,61,73,0
3,61,0,41
3,59,79,0
3,59,0,382
3,69,77,0
3,69,0,26
3,69,73,0
3,69,0,26
3,69,79,0
3,69,0,26
3,69,77,0
3,69,0,29
3,69,79,0
3,69,0,24
3,69,73,0
3,69,0,25
3,68,79,0
3,68,0,64
3,64,87,0
3,64,0,43
3,62,83,0
3,62,0,95
3,69,81,0
3,69,0,47
3,68,75,0
3,68,0,79
3,64,83,0
3,64,0,46
3,62,79,0
3,62,0,100
3,61,87,0
3,61,0,48
3,59,75,0
3,59,0,47
3,57,63,0
3,57,0,12
3,57,79,0
3,57,0,358
3,69,81,0
3,69,0,29
3,69,79,0
3,69,0,26
3,69,77,0
3,69,0,26
3,69,77,0
3,69,0,32
3,69,79,0
3,69,0,27
3,69,81,0
3,69,0,38
3,68,81,0
3,68,0,70
3,64,87,0
3,64,0,47
3,62,81,0
3,62,0,81
3,69,81,0
3,69,0,41
3,68,79,0
3,68,0,89
3,64,75,0
3,64,0,44
3,62,79,0
3,62,0,75
3,68,83,0
3,68,0,47
3,66,67,0
3,66,0,45
3,64,71,0
3,64,0,17
3,64,69,0
3,64,0,3
3,69,73,0
3,69,0,24
3,69,81,0
3,69,0,27
3,69,77,0
3,69,0,24
3,69,67,0
3,69,0,27
3,69,81,0
3,69,0,25
3,69,69,0
3,69,0,37
3,68,75,0
3,68,0,62
3,64,77,0
3,64,0,44
3,62,79,0
3,62,0,89
3,69,75,0
3,69,0,42
3,68,52,0
3,68,0,89
3,64,81,0
3,64,0,47
3,62,79,0
3,62,0,68
3,68,87,0
3,68,0,47
3,66,75,0
3,66,0,43
3,64,75,0
3,64,0,13
3,64,77,0
3,64,0,3
3,61,95,0
3,61,0,21
3,61,69,0
3,61,0,21
3,61,87,0
3,61,0,22
3,61,79,0
3,61,0,21
3,61,73,0
3,61,0,21
3,61,79,0
3,61,0,44
3,62,81,0
3,62,0,47
3,64,77,0
3,64,0,55
3,66,71,0
3,66,0,164
3,61,79,0
3,61,0,95
3,62,81,0
3,62,0,47
3,61,67,0
3,61,0,26
3,61,69,0
3,61,0,47
3,59,79,0
3,59,0,4
3,69,77,0
3,69,0,25
3,69,73,0
3,69,0,22
3,69,67,0
3,69,0,27
3,69,77,0
3,69,0,27
3,69,67,0
3,69,0,27
3,69,77,0
3,69,0,35
3,68,75,0
3,68,0,62
3,64,79,0
3,64,0,44
3,62,79,0
3,62,0,106
3,69,69,0
3,69,0,41
3,68,53,0
3,68,0,89
3,64,81,0
3,64,0,45
3,62,77,0
3,62,0,94
3,61,87,0
3,61,0,47
3,59,73,0
3,59,0,47
3,57,63,0
3,57,0,27
3,57,77,0
3,57,0,339
3,69,69,0
3,69,0,29
3,69,69,0
3,69,0,24
3,69,77,0
3,69,0,30
3,69,77,0
3,69,0,28
3,69,81,0
3,69,0,27
3,69,75,0
3,69,0,38
3,68,69,0
3,68,0,26
3,64,81,0
3,64,0,48
3,62,81,0
3,62,0,29
3,69,77,0
3,69,0,47
3,68,73,0
3,68,0,34
3,64,79,0
3,64,0,47
3,62,81,0
3,62,0,31
3,61,81,0
3,61,0,47
3,59,77,0
3,59,0,47
3,57,63,0
3,57,0,18
3,57,75,0
3,57,0,14
3,69,73,48
3,69,0,24
3,69,77,24
3,69,0,31
3,69,71,17
3,69,0,27
3,69,67,0
3,69,0,28
3,69,71,20
3,69,0,27
3,69,71,0
3,69,0,43
3,68,79,0
3,68,0,33
3,64,77,15
3,64,0,46
3,62,83,2
3,62,0,37
3,69,77,0
3,69,0,48
3,68,65,0
3,68,0,7
3,64,79,41
3,64,0,47
3,62,87,1
3,62,0,37
3,61,79,0
3,61,0,47
3,59,77,1
3,59,0,45
3,57,61,0
3,57,0,25
3,57,79,0
3,57,0,23
3,69,65,0
3,69,0,29
3,69,73,19
3,69,0,28
3,69,67,0
3,69,0,24
3,69,77,0
3,69,0,24
3,69,69,24
3,69,0,22
3,69,69,26
3,69,0,22
4,57,66,9033
4,57,0,12
4,57,64,12
4,57,0,10
4,57,72,14
4,57,0,47
4,59,76,25
4,59,0,10
4,59,80,14
4,59,0,42
4,61,84,30
4,61,0,10
4,61,84,14
4,61,0,34
4,61,84,14
4,61,0,312
4,57,62,168
4,57,0,9
4,57,54,15
4,57,0,10
4,57,62,14
4,57,0,47
4,59,76,1
4,59,0,15
4,59,72,33
4,59,0,47
4,61,80,1
4,61,0,15
4,61,92,33
4,61,0,42
4,59,66,6
4,59,0,16
4,59,64,32
4,59,0,40
4,57,52,8
4,57,0,18
4,57,66,30
4,57,0,47
4,56,66,1
4,56,0,22
4,56,72,26
4,56,0,47
4,54,62,1
4,54,0,22
4,54,64,26
4,54,0,169
4,57,60,359
4,57,0,13
4,57,56,11
4,57,0,17
4,59,88,7
4,59,0,42
4,61,80,30
4,61,0,10
4,61,84,14
4,61,0,45
4,62,80,27
4,62,0,11
4,62,80,13
4,62,0,32
4,61,84,16
4,61,0,16
4,62,62,8
4,62,0,336
4,59,80,120
4,59,0,13
4,59,62,11
4,59,0,9
4,59,76,15
4,59,0,42
4,61,88,6
4,61,0,18
4,61,88,30
4,61,0,40
4,62,68,8
4,62,0,17
4,62,80,31
4,62,0,40
4,61,88,8
4,61,0,16
4,61,84,32
4,61,0,36
4,59,68,12
4,59,0,13
4,59,84,35
4,59,0,28
4,57,60,20
4,57,0,16
4,57,66,32
4,57,0,40
4,56,66,8
4,56,0,16
4,56,84,32
4,56,0,60
4,68,76,84
4,68,0,13
4,68,64,11
4,68,0,14
4,68,80,10
4,68,0,40
4,69,62,8
4,69,0,16
