track,note,velocity,time
1,83,105,32160
1,83,0,716
1,82,105,4
1,82,0,716
1,80,105,4
1,80,0,956
1,80,105,4
1,80,0,236
1,78,105,4
1,78,0,236
1,75,105,4
1,75,0,236
1,78,105,4
1,78,0,236
1,83,105,484
1,83,0,716
1,82,105,4
1,82,0,476
1,80,105,4
1,80,0,476
1,78,105,4
1,78,0,236
1,78,105,4
1,78,0,476
1,83,105,1444
1,83,0,716
1,82,105,4
1,82,0,476
1,80,105,4
1,80,0,484
1,80,105,716
1,80,0,236
1,78,105,4
1,78,0,236
1,75,105,4
1,75,0,236
1,78,105,4
1,78,0,236
1,83,105,484
1,83,0,716
1,82,105,4
1,82,0,476
1,80,105,4
1,80,0,476
1,78,105,4
1,78,0,236
1,78,105,4
1,78,0,476
1,75,105,724
1,75,0,236
1,78,105,4
1,78,0,476
1,83,105,4
1,83,0,716
1,82,105,4
1,82,0,716
1,80,105,4
1,83,105,720
1,83,0,236
1,80,0,0
1,83,105,4
1,83,0,236
1,83,105,4
1,83,0,236
1,83,105,4
1,83,0,236
1,80,105,4
1,75,105,0
1,75,0,236
1,80,0,0
1,78,105,4
1,78,0,476
1,83,105,4
1,83,0,716
1,82,105,4
1,82,0,716
1,80,105,4
1,78,105,480
1,78,0,236
1,78,105,4
1,78,0,236
1,80,0,0
1,75,105,4
1,75,0,236
1,76,105,4
1,76,0,236
1,78,105,4
1,78,0,236
1,75,105,4
1,75,0,236
1,78,105,4
1,78,0,476
1,83,105,4
1,83,0,716
1,82,105,4
1,82,0,716
1,80,105,4
1,80,0,956
1,80,105,4
1,80,0,236
1,78,105,4
1,78,0,236
1,78,105,4
1,78,0,236
1,78,105,4
1,78,0,236
1,83,105,484
1,83,0,716
1,82,105,4
1,82,0,476
1,80,105,4
1,80,0,476
1,78,105,4
1,78,0,236
1,78,105,4
1,78,0,236
1,71,105,4
1,71,0,236
1,71,105,4
1,71,0,236
1,73,105,4
1,73,0,236
1,74,105,4
1,74,0,236
1,71,105,4
1,71,0,236
1,71,105,4
1,71,0,236
1,71,105,4
1,71,0,716
1,71,105,1684
1,71,0,236
1,71,105,4
1,71,0,236
1,73,105,4
1,73,0,236
1,74,105,4
1,74,0,236
1,71,105,4
1,71,0,236
1,71,105,4
1,71,0,236
1,71,105,4
1,71,0,716
1,71,105,1684
1,71,0,236
1,71,105,4
1,71,0,236
1,73,105,4
1,73,0,236
1,74,105,4
1,74,0,236
1,71,105,4
1,71,0,236
1,71,105,4
1,71,0,236
1,71,105,4
1,71,0,716
1,71,105,1684
1,71,0,236
1,71,105,4
1,71,0,236
1,73,105,4
1,73,0,236
1,74,105,4
1,74,0,236
1,71,105,4
1,71,0,236
1,71,105,4
1,71,0,236
1,71,105,4
1,71,0,716
1,83,105,3364
1,83,0,716
1,82,105,4
1,82,0,716
1,80,105,4
1,80,0,956
1,80,105,4
1,80,0,236
1,78,105,4
1,78,0,236
1,78,105,4
1,78,0,236
1,78,105,4
1,78,0,236
1,83,105,484
1,83,0,716
1,82,105,4
1,82,0,476
1,80,105,4
1,80,0,476
1,78,105,4
1,78,0,236
1,78,105,4
1,78,0,476
1,83,105,1444
1,83,0,716
1,82,105,4
1,82,0,476
1,80,105,4
1,80,0,484
1,80,105,716
1,80,0,236
1,78,105,4
1,78,0,236
1,75,105,4
1,75,0,236
1,78,105,4
1,78,0,236
1,83,105,484
1,83,0,716
1,82,105,4
1,82,0,476
1,80,105,4
1,80,0,476
1,78,105,4
1,78,0,236
1,78,105,4
1,78,0,476
1,75,105,724
1,75,0,236
1,78,105,4
1,78,0,476
1,83,105,4
1,83,0,716
1,82,105,4
1,82,0,716
1,80,105,4
1,83,105,708
1,83,0,236
1,83,105,4
1,83,0,236
1,83,105,4
1,83,0,236
1,83,105,4
1,80,0,132
1,83,0,104
1,80,105,4
1,75,105,0
1,75,105,12
1,75,0,224
1,80,0,0
1,78,105,4
1,75,0,8
1,78,105,4
1,78,0,464
1,83,105,4
1,78,0,8
1,83,105,4
1,83,0,704
1,82,105,4
1,83,0,8
1,82,105,4
1,82,0,704
1,80,105,4
1,82,0,8
1,80,105,4
1,78,105,468
1,78,0,236
1,78,105,4
1,78,0,236
1,80,0,0
1,75,105,4
1,75,0,236
1,76,105,4
1,76,0,236
1,78,105,4
1,80,0,12
1,78,0,224
1,75,105,4
1,75,105,12
1,75,0,224
1,78,105,4
1,75,0,8
1,78,105,4
1,78,0,464
1,83,105,4
1,78,0,8
1,83,105,4
1,83,0,704
1,83,0,12
1,82,105,4
1,82,0,716
1,80,105,4
1,80,0,956
1,80,105,4
1,80,0,236
1,78,105,4
1,78,0,236
1,78,105,4
1,78,0,236
1,78,105,4
1,78,0,236
1,83,105,484
1,83,0,716
1,82,105,4
1,82,0,476
1,80,105,4
1,80,0,476
1,78,105,4
1,78,0,236
1,78,105,4
1,78,0,236
1,71,105,4
1,71,0,236
1,71,105,4
1,71,0,236
1,73,105,4
1,73,0,236
1,74,105,4
1,74,0,236
1,71,105,4
1,71,0,236
1,71,105,4
1,71,0,236
1,71,105,4
1,71,0,716
1,71,105,1684
1,71,0,236
1,71,105,4
1,71,0,236
1,73,105,4
1,73,0,236
1,74,105,4
1,74,0,236
1,71,105,4
1,71,0,236
1,71,105,4
1,71,0,236
1,71,105,4
1,71,0,716
1,71,105,1684
1,71,0,236
1,71,105,4
1,71,0,236
1,73,105,4
1,73,0,236
1,74,105,4
1,74,0,236
1,71,105,4
1,71,0,236
1,71,105,4
1,71,0,236
1,71,105,4
1,71,0,716
1,71,105,1684
1,71,0,236
1,71,105,4
1,71,0,236
1,73,105,4
1,73,0,236
1,74,105,4
1,74,0,236
1,71,105,4
1,71,0,236
1,71,105,4
1,71,0,236
1,71,105,4
1,71,0,716
1,78,105,3844
1,78,0,236
1,80,105,4
1,80,0,1196
1,78,105,1444
1,78,0,236
1,80,105,4
1,80,0,716
1,78,105,4
1,78,0,236
1,81,105,4
1,81,0,716
1,80,105,4
1,80,0,236
1,83,105,4
1,83,0,716
1,80,105,4
1,80,0,236
1,81,105,4
1,81,0,716
1,80,105,4
1,80,0,476
1,78,105,484
1,78,0,236
1,80,105,4
1,80,0,1196
1,78,105,1444
1,78,0,236
1,80,105,4
1,80,0,716
1,78,105,4
1,78,0,236
1,81,105,4
1,81,0,716
1,80,105,4
1,80,0,236
1,83,105,4
1,83,0,716
1,80,105,4
1,80,0,236
1,81,105,4
1,81,0,716
1,80,105,4
1,80,0,476
1,80,105,4
1,80,0,16
1,78,105,4
1,78,0,1676
1,81,105,224
1,81,0,236
1,81,105,4
1,81,0,236
1,81,105,4
1,81,0,236
1,81,105,4
1,81,0,236
1,81,105,4
1,81,0,236
1,81,105,4
1,81,0,236
1,81,105,4
1,81,0,40
1,78,105,744
1,78,0,236
1,80,105,4
1,80,0,1196
1,78,105,1444
1,78,0,236
1,80,105,4
1,80,0,716
1,78,105,4
1,78,0,236
1,81,105,4
1,81,0,716
1,80,105,4
1,80,0,236
1,83,105,4
1,83,0,716
1,80,105,4
1,80,0,236
1,81,105,4
1,81,0,716
1,80,105,4
1,80,0,476
1,78,105,484
1,78,0,236
1,80,105,4
1,80,0,1196
1,78,105,1444
1,78,0,236
1,80,105,4
1,80,0,716
1,78,105,4
1,78,0,236
1,81,105,4
1,81,0,716
1,80,105,4
1,80,0,236
1,83,105,4
1,83,0,476
1,83,105,4
1,83,0,236
1,83,105,4
1,83,0,236
1,83,105,4
1,83,0,236
1,83,105,4
1,83,0,236
1,83,105,4
1,83,0,236
1,83,105,4
1,83,0,236
1,83,105,4
1,83,0,716
1,83,105,964
1,83,0,236
1,85,105,4
1,85,0,476
1,85,105,4
1,85,0,236
1,85,105,4
1,85,0,236
1,85,105,4
1,85,0,236
1,85,105,4
1,85,0,236
1,85,105,4
1,85,0,236
1,85,105,4
1,85,0,236
1,85,105,4
1,85,0,476
1,83,105,4
1,83,0,716
1,83,105,484
1,83,0,236
1,85,105,4
1,85,0,476
1,85,105,4
1,85,0,236
1,85,105,4
1,85,0,236
1,85,105,4
1,85,0,236
1,85,105,4
1,85,0,236
1,85,105,4
1,85,0,236
1,85,105,4
1,85,0,236
1,85,105,4
1,85,0,476
1,83,105,4
1,83,0,716
1,85,105,240
1,85,0,236
1,85,105,4
1,85,0,240
1,85,105,0
1,85,0,236
1,85,105,4
1,85,0,236
1,85,105,4
1,85,0,236
1,85,105,0
1,85,0,236
1,85,105,4
1,85,0,16
1,93,105,0
1,93,0,20
1,71,105,0
1,83,105,0
1,83,0,696
1,71,0,0
1,70,105,4
1,82,105,0
1,82,0,716
1,70,0,0
1,68,105,4
1,80,105,0
1,80,0,956
1,68,0,0
1,68,105,4
1,80,105,0
1,80,0,236
1,68,0,0
1,66,105,4
1,78,105,0
1,78,0,236
1,66,0,0
1,63,105,4
1,75,105,0
1,75,0,236
1,63,0,0
1,66,105,4
1,78,105,0
1,78,0,236
1,66,0,0
1,71,105,484
1,83,105,0
1,83,0,716
1,71,0,0
1,70,105,4
1,82,105,0
1,82,0,476
1,70,0,0
1,68,105,4
1,80,105,0
1,80,0,476
1,68,0,0
1,66,105,4
1,78,105,0
1,78,0,236
1,66,0,0
1,66,105,4
1,78,105,0
1,78,0,476
1,66,0,0
1,71,105,1444
1,83,105,0
1,83,0,716
1,71,0,0
1,70,105,4
1,82,105,0
1,82,0,476
1,70,0,0
1,68,105,4
1,80,105,0
1,80,0,484
1,68,0,0
1,68,105,716
1,80,105,0
1,80,0,236
1,68,0,0
1,66,105,4
1,78,105,0
1,78,0,236
1,66,0,0
1,63,105,4
1,75,105,0
1,75,0,236
1,63,0,0
1,66,105,4
1,78,105,0
1,78,0,236
1,66,0,0
1,71,105,484
1,83,105,0
1,83,0,716
1,71,0,0
1,70,105,4
1,82,105,0
1,82,0,476
1,70,0,0
1,68,105,4
1,80,105,0
1,80,0,476
1,68,0,0
1,66,105,4
1,78,105,0
1,78,0,236
1,66,0,0
1,66,105,4
1,78,105,0
1,78,0,476
1,66,0,0
1,63,105,724
1,75,105,0
1,75,0,236
1,63,0,0
1,66,105,4
1,78,105,0
1,78,0,476
1,66,0,0
1,71,105,4
1,83,105,0
1,83,0,716
1,71,0,0
1,70,105,4
1,82,105,0
1,82,0,716
1,70,0,0
1,68,105,4
1,80,105,0
1,71,105,708
1,83,105,0
1,83,0,236
1,71,0,0
1,71,105,4
1,83,105,0
1,83,0,236
1,71,0,0
1,71,105,4
1,83,105,0
1,83,0,236
1,71,0,0
1,71,105,4
1,83,105,0
1,80,0,12
1,68,0,0
1,71,0,224
1,83,0,0
1,68,105,4
1,63,105,0
1,80,105,0
1,75,105,0
1,63,105,12
1,75,105,0
1,75,0,224
1,80,0,0
1,68,0,0
1,63,0,0
1,66,105,4
1,78,105,0
1,75,0,8
1,63,0,0
1,66,105,4
1,78,105,0
1,66,0,464
1,78,0,0
1,71,105,4
1,83,105,0
1,66,0,8
1,78,0,0
1,71,105,4
1,83,105,0
1,71,0,704
1,83,0,0
1,70,105,4
1,82,105,0
1,71,0,8
1,83,0,0
1,70,105,4
1,82,105,0
1,70,0,704
1,82,0,0
1,68,105,4
1,80,105,0
1,70,0,8
1,82,0,0
1,68,105,4
1,80,105,0
1,66,105,468
1,78,105,0
1,78,0,236
1,66,0,0
1,66,105,4
1,78,105,0
1,78,0,236
1,80,0,0
1,68,0,0
1,66,0,0
1,63,105,4
1,75,105,0
1,75,0,236
1,63,0,0
1,64,105,4
1,76,105,0
1,76,0,236
1,64,0,0
1,66,105,4
1,78,105,0
1,80,0,12
1,68,0,0
1,66,0,224
1,78,0,0
1,63,105,4
1,75,105,0
1,63,105,12
1,75,105,0
1,75,0,224
1,63,0,0
1,66,105,4
1,78,105,0
1,63,0,8
1,75,0,0
1,66,105,4
1,78,105,0
1,66,0,464
1,78,0,0
1,71,105,4
1,83,105,0
1,66,0,8
1,78,0,0
1,71,105,4
1,83,105,0
1,71,0,704
1,83,0,0
1,71,0,12
1,83,0,0
1,70,105,4
1,82,105,0
1,82,0,716
1,70,0,0
1,68,105,4
1,80,105,0
1,80,0,956
1,68,0,0
1,68,105,4
1,80,105,0
1,80,0,236
1,68,0,0
1,66,105,4
1,78,105,0
1,78,0,236
1,66,0,0
1,66,105,4
1,78,105,0
1,78,0,236
1,66,0,0
1,66,105,4
1,78,105,0
1,78,0,236
1,66,0,0
1,71,105,484
1,83,105,0
1,83,0,716
1,71,0,0
1,70,105,4
1,82,105,0
1,82,0,476
1,70,0,0
1,68,105,4
1,80,105,0
1,80,0,476
1,68,0,0
1,66,105,4
1,78,105,0
1,78,0,236
1,66,0,0
1,71,105,248
1,71,105,0
1,71,0,236
1,71,0,0
1,71,105,4
1,71,105,0
1,71,0,236
1,71,0,0
1,73,105,4
1,73,105,0
1,73,0,236
1,73,0,0
1,74,105,4
1,74,105,0
1,74,0,236
1,74,0,0
1,71,105,4
1,71,105,0
1,71,0,236
1,71,0,0
1,71,105,4
1,71,105,0
1,71,0,236
1,71,0,0
1,71,105,4
1,71,105,0
1,71,0,712
1,71,0,0
1,71,105,1684
1,71,0,236
1,71,105,4
1,71,0,236
1,73,105,4
1,73,0,236
1,74,105,4
1,74,0,236
1,71,105,4
1,71,0,236
1,71,105,4
1,71,0,236
1,71,105,4
1,71,0,716
1,71,105,1688
1,71,0,236
1,71,105,4
1,71,0,236
1,73,105,4
1,73,0,236
1,74,105,4
1,74,0,236
1,71,105,4
1,71,0,236
1,71,105,4
1,71,0,236
1,71,105,4
1,71,0,712
1,71,105,1684
1,71,0,236
1,71,105,4
1,71,0,236
1,73,105,4
1,73,0,236
1,74,105,4
1,74,0,236
1,71,105,4
1,71,0,236
1,71,105,4
1,71,0,236
1,71,105,4
1,71,0,716
1,71,105,1688
1,71,0,236
1,71,105,4
1,71,0,236
1,73,105,4
1,73,0,236
1,74,105,4
1,74,0,236
1,71,105,4
1,71,0,236
1,71,105,4
1,71,0,236
1,71,105,4
1,71,0,712
1,71,105,1684
1,71,0,236
1,71,105,4
1,71,0,236
1,73,105,4
1,73,0,236
1,74,105,4
1,74,0,236
1,71,105,4
1,71,0,236
1,71,105,4
1,71,0,236
1,71,105,4
1,71,0,716
1,71,105,1688
1,71,0,236
1,71,105,4
1,71,0,236
1,73,105,4
1,73,0,236
1,74,105,4
1,74,0,236
1,71,105,4
1,71,0,236
1,71,105,4
1,71,0,236
1,71,105,4
1,71,0,712
1,71,105,1684
1,71,0,236
1,71,105,4
1,71,0,236
1,73,105,4
1,73,0,236
1,74,105,4
1,74,0,236
1,71,105,4
1,71,0,236
1,71,105,4
1,71,0,236
1,71,105,4
1,71,0,716
1,71,105,1688
1,71,0,236
1,71,105,4
1,71,0,236
1,73,105,4
1,73,0,236
1,74,105,4
1,74,0,236
1,71,105,4
1,71,0,236
1,71,105,4
1,71,0,236
1,71,105,4
1,71,0,712
1,71,105,1684
1,71,0,236
1,71,105,4
1,71,0,236
1,73,105,4
1,73,0,236
1,74,105,4
1,74,0,236
1,71,105,4
1,71,0,236
1,71,105,4
1,71,0,236
1,71,105,4
1,71,0,716
1,71,105,1688
1,71,0,236
1,71,105,4
1,71,0,236
1,73,105,4
1,73,0,236
1,74,105,4
1,74,0,236
1,71,105,4
1,71,0,236
1,71,105,4
1,71,0,236
1,71,105,4
1,71,0,712
1,71,105,1684
1,71,0,236
1,71,105,4
1,71,0,236
1,73,105,4
1,73,0,236
1,74,105,4
1,74,0,236
1,71,105,4
1,71,0,236
1,71,105,4
1,71,0,236
1,71,105,4
1,71,0,716
1,71,105,1688
1,71,0,236
1,71,105,4
1,71,0,100
1,73,105,4
1,73,0,236
1,74,105,4
1,74,0,140
1,71,105,4
1,71,0,80
1,71,105,4
1,71,0,180
1,71,105,4
1,71,0,128
1,71,105,180
1,71,0,196
1,71,105,4
1,71,0,36
1,73,105,4
1,73,0,176
1,74,105,4
1,74,0,16
1,71,105,4
1,71,0,196
1,71,105,4
1,71,0,216
1,71,105,4
1,71,0,236
