track,note,velocity,time
1,76,107,2676
1,69,107,0
1,72,96,0
1,69,96,124
1,76,89,0
1,72,89,0
1,76,93,132
1,72,93,0
1,69,107,0
1,76,93,136
1,69,96,0
1,72,96,0
1,69,96,132
1,72,89,0
1,76,89,0
1,69,107,8
1,76,107,0
1,72,96,0
1,64,102,116
1,69,86,96
1,72,78,76
1,76,102,52
1,65,107,44
1,75,86,0
1,69,96,0
1,72,74,0
1,75,89,96
1,65,102,0
1,69,86,0
1,72,86,0
1,75,80,120
1,69,93,0
1,65,102,0
1,72,80,0
1,69,93,124
1,75,80,0
1,65,96,4
1,72,86,0
1,69,86,136
1,65,86,0
1,75,76,0
1,72,83,0
1,75,102,136
1,69,102,0
1,65,107,0
1,72,89,0
1,65,112,84
1,69,63,96
1,72,78,40
1,75,89,12
1,62,107,48
1,74,118,0
1,65,102,0
1,69,102,0
1,72,112,148
1,62,102,4
1,65,107,0
1,69,96,16
1,62,112,36
1,72,112,0
1,68,107,0
1,40,107,0
1,40,118,112
1,68,107,8
1,72,118,0
1,62,118,0
1,45,122,8
1,57,118,12
1,64,112,0
1,69,112,0
1,60,107,0
1,45,102,4
1,48,102,16
1,52,102,12
1,57,93,24
1,60,102,24
1,64,93,48
1,69,112,0
1,69,70,720
1,81,70,0
1,83,70,4
1,71,70,4
1,84,70,84
1,72,70,8
1,88,70,88
1,76,70,4
1,81,70,84
1,69,70,0
1,71,70,8
1,83,70,0
1,84,71,84
1,72,71,0
1,76,71,0
1,88,71,0
1,69,72,0
1,81,72,0
1,71,72,0
1,83,72,0
1,72,72,96
1,84,72,0
1,76,72,0
1,88,72,0
1,69,72,4
1,81,72,4
1,71,73,4
1,83,73,0
1,84,73,92
1,72,73,0
1,76,73,56
1,88,73,0
1,69,74,36
1,81,74,0
1,83,74,0
1,71,74,0
1,84,74,80
1,72,74,4
1,88,74,76
1,76,74,0
1,69,74,4
1,81,74,0
1,83,74,8
1,71,74,0
1,72,74,88
1,84,74,0
1,76,74,0
1,88,74,0
1,69,74,12
1,81,74,0
1,83,74,96
1,71,74,0
1,72,74,88
1,84,74,0
1,88,74,0
1,76,74,0
1,69,74,4
1,81,74,4
1,83,74,4
1,71,74,4
1,72,73,88
1,84,73,0
1,88,72,68
1,76,72,0
1,72,72,48
1,76,72,0
1,45,71,0
1,69,64,0
1,77,86,8
1,57,83,0
1,72,72,124
1,77,78,0
1,69,76,0
1,45,86,4
1,76,80,12
1,57,83,0
1,76,83,108
1,72,80,0
1,45,86,0
1,69,78,0
1,77,89,32
1,57,86,0
1,77,93,104
1,72,89,4
1,45,93,0
1,69,89,0
1,76,86,0
1,57,89,4
1,44,78,112
1,76,86,4
1,68,80,0
1,71,83,0
1,77,89,160
1,56,80,0
1,44,102,112
1,77,107,0
1,71,96,0
1,68,86,0
1,76,93,168
1,56,80,0
1,44,107,100
1,68,89,4
1,76,107,0
1,71,96,0
1,56,93,20
1,76,112,4
1,81,112,0
1,71,83,0
1,81,118,112
1,76,118,0
1,71,118,0
1,44,112,0
1,56,102,16
1,76,102,0
1,80,112,0
1,71,112,0
1,40,125,24
1,52,112,192
1,40,125,100
1,52,102,192
1,74,107,108
1,68,102,0
1,64,102,0
1,71,96,0
1,40,112,0
1,52,118,0
1,74,112,92
1,64,112,0
1,68,107,0
1,71,107,4
1,52,107,0
1,40,118,0
1,72,112,284
1,69,112,0
1,64,112,0
1,57,107,0
1,45,112,0
1,81,74,176
1,83,74,8
1,57,74,72
1,84,74,0
1,88,73,24
1,45,73,56
1,81,73,12
1,83,72,56
1,57,72,24
1,84,72,4
1,88,72,36
1,45,72,56
1,81,72,8
1,83,72,80
1,57,71,68
1,84,71,8
1,88,70,28
1,45,70,76
1,81,70,12
1,83,70,72
1,57,70,52
1,84,70,0
1,88,70,36
1,76,78,40
1,72,78,0
1,69,74,0
1,45,86,0
1,77,93,16
1,57,83,0
1,72,72,112
1,77,83,0
1,69,71,0
1,45,93,4
1,76,80,24
1,57,83,8
1,72,71,16
1,76,86,0
1,69,78,4
1,45,83,0
1,77,86,12
1,57,83,4
1,45,93,116
1,77,93,0
1,72,86,0
1,69,86,0
1,76,86,12
1,57,83,0
1,44,89,116
1,76,102,4
1,71,93,0
1,68,86,0
1,77,93,176
1,56,86,0
1,77,102,104
1,68,86,0
1,71,96,0
1,44,107,0
1,76,93,4
1,56,89,0
1,68,86,4
1,44,93,0
1,71,102,0
1,76,102,0
1,56,89,28
1,76,102,0
1,81,112,0
1,71,93,0
1,44,107,112
1,81,122,0
1,71,125,0
1,76,118,0
1,76,122,12
1,80,107,4
1,71,112,0
1,56,107,0
1,40,125,24
1,52,112,196
1,40,125,92
1,52,96,0
1,74,112,100
1,77,112,0
1,68,102,0
1,71,102,4
1,52,112,0
1,40,118,0
1,77,112,84
1,74,118,0
1,68,107,0
1,71,112,0
1,52,107,8
1,40,118,0
1,72,118,0
1,76,112,0
1,69,112,0
1,57,118,0
1,45,118,0
1,81,68,192
1,83,68,64
1,57,67,52
1,84,67,0
1,88,67,8
1,45,67,72
1,81,67,8
1,83,67,0
1,57,67,40
1,84,67,8
1,88,67,20
1,45,67,80
1,81,67,8
1,83,67,0
1,57,67,88
1,84,67,4
1,88,67,20
1,45,68,72
1,81,68,4
1,83,68,8
1,84,69,0
1,64,69,0
1,57,69,8
1,88,69,12
1,74,107,32
1,71,112,0
1,64,107,0
1,45,107,0
1,74,112,8
1,71,118,0
1,64,122,0
1,57,89,0
1,45,107,112
1,72,107,64
1,64,107,0
1,69,112,0
1,57,89,0
1,45,112,120
1,57,93,4
1,45,107,124
1,57,83,0
1,45,112,84
1,64,102,4
1,71,107,0
1,68,107,0
1,71,112,128
1,57,86,0
1,64,107,0
1,68,102,0
1,45,107,124
1,69,107,8
1,72,107,0
1,64,89,0
1,57,83,0
1,45,107,132
1,57,89,196
1,43,107,144
1,55,80,192
1,41,118,8
1,69,96,192
1,74,89,0
1,53,74,0
1,65,96,4
1,41,112,120
1,74,112,8
1,65,118,0
1,69,112,0
1,53,69,4
1,41,102,48
1,65,93,4
1,69,102,0
1,72,107,0
1,53,78,24
1,72,112,8
1,69,107,0
1,65,107,0
1,41,102,112
1,53,74,28
1,41,102,108
1,60,89,0
1,71,96,0
1,65,102,0
1,53,76,12
1,71,118,8
1,60,107,0
1,65,118,0
1,41,107,120
1,53,71,20
1,65,112,0
1,69,112,0
1,60,107,4
1,41,112,120
1,53,83,188
1,40,122,104
1,52,93,0
1,69,107,4
1,69,107,100
1,38,112,4
1,62,96,4
1,65,96,0
1,71,102,16
1,50,76,8
1,71,118,100
1,38,102,8
1,69,93,8
1,50,78,0
1,69,112,16
1,38,102,96
1,71,86,0
1,50,74,0
1,71,93,16
1,38,102,100
1,50,74,192
1,69,107,4
1,39,93,80
1,69,112,12
1,66,93,0
1,63,89,0
1,51,78,180
1,71,96,8
1,39,107,112
1,71,112,4
1,69,96,0
1,51,71,4
1,39,102,92
1,69,112,4
1,51,86,8
1,72,107,4
1,39,107,76
1,72,112,12
1,51,86,0
1,71,107,4
1,52,102,36
1,56,93,88
1,59,112,60
1,64,96,48
1,68,76,44
1,71,83,40
1,76,89,60
1,80,102,44
1,62,88,332
1,50,88,16
1,63,88,4
1,51,88,0
1,64,88,0
1,52,88,8
1,65,89,96
1,53,89,0
1,62,90,104
1,50,90,0
1,64,90,104
1,52,90,0
1,60,90,100
1,48,90,0
1,62,89,96
1,50,89,4
1,59,89,96
1,47,89,8
1,64,114,68
1,52,114,0
1,53,88,4
1,65,88,4
1,50,107,88
1,62,118,4
1,52,85,184
1,64,85,0
1,60,112,104
1,48,122,0
1,62,83,188
1,50,83,0
1,59,111,80
1,47,111,4
1,48,80,0
1,60,80,0
1,57,112,104
1,72,107,32
1,76,107,0
1,69,107,0
1,76,96,104
1,69,102,0
1,72,89,4
1,76,96,92
1,72,86,0
1,69,102,0
1,69,83,96
1,72,86,0
1,76,93,0
1,76,89,96
1,72,89,0
1,69,93,0
1,76,86,104
1,72,78,0
1,69,80,0
1,76,112,116
1,72,112,0
1,57,118,0
1,69,118,0
1,75,86,100
1,69,96,0
1,47,102,0
1,71,89,0
1,66,78,0
1,66,71,80
1,75,76,0
1,69,62,0
1,71,72,0
1,75,69,100
1,66,78,4
1,71,78,0
1,69,78,0
1,75,80,100
1,66,86,0
1,71,89,0
1,69,93,4
1,71,68,88
1,75,76,0
1,66,76,0
1,69,83,0
1,71,72,84
1,75,78,0
1,69,86,0
1,66,80,0
1,71,66,68
1,75,76,0
1,66,86,0
1,69,72,4
1,47,107,88
1,75,86,0
1,66,102,4
1,69,96,0
1,71,102,0
1,64,102,80
1,52,102,0
1,74,96,0
1,68,78,0
1,71,69,88
1,74,89,0
1,68,89,0
1,64,86,0
1,68,71,108
1,74,78,0
1,71,64,0
1,64,80,0
1,74,89,108
1,68,86,4
1,64,86,0
1,71,89,0
1,74,74,96
1,64,83,0
1,68,78,0
1,71,80,4
1,74,89,104
1,64,86,0
1,71,86,0
1,68,80,0
1,74,80,108
1,64,80,4
1,68,78,0
1,71,78,0
1,52,93,88
1,68,102,0
1,64,112,0
1,72,102,8
1,45,112,44
1,69,96,0
1,72,89,0
1,64,93,0
1,72,69,96
1,69,72,0
1,64,78,0
1,64,72,104
1,69,74,0
1,72,74,0
1,69,80,100
1,64,89,0
1,72,86,0
1,72,74,100
1,64,89,0
1,69,83,0
1,72,76,92
1,64,93,0
1,69,80,0
1,72,74,92
1,64,89,0
1,69,93,0
1,69,102,88
1,64,89,0
1,72,86,0
1,72,80,100
1,69,86,0
1,64,93,0
1,72,102,92
1,76,112,0
1,69,112,0
1,57,112,0
1,76,78,76
1,69,76,0
1,72,76,0
1,72,80,96
1,69,83,0
1,76,93,0
1,69,71,104
1,72,74,0
1,76,89,0
1,72,80,104
1,76,96,0
1,69,86,0
1,72,80,108
1,76,80,0
1,69,78,0
1,57,102,116
1,76,118,0
1,72,107,0
1,69,107,0
1,75,86,84
1,47,96,0
1,66,86,0
1,69,83,0
1,71,72,0
1,66,78,80
1,75,72,4
1,69,78,0
1,71,83,0
1,71,60,92
1,66,71,0
1,69,63,0
1,75,60,0
1,75,69,92
1,71,74,0
1,66,76,4
1,69,89,0
1,71,74,84
1,66,76,0
1,69,66,0
1,75,66,4
1,71,68,72
1,66,80,0
1,75,76,4
1,69,86,0
1,71,80,80
1,66,71,4
1,75,78,0
1,69,78,0
1,47,102,80
1,75,86,0
1,71,107,4
1,66,102,0
1,69,107,0
1,52,107,0
1,71,62,4
1,64,93,0
1,74,86,4
1,68,89,0
1,74,80,92
1,68,86,4
1,71,83,0
1,64,86,0
1,68,69,104
1,74,74,0
1,71,68,4
1,64,71,0
1,74,83,116
1,68,80,0
1,71,78,4
1,64,78,0
1,74,65,92
1,71,69,0
1,68,69,4
1,64,80,0
1,74,76,92
1,64,78,4
1,71,78,4
1,68,89,0
1,74,78,100
1,71,78,0
1,68,80,4
1,64,80,0
1,52,89,68
1,71,102,0
1,74,102,4
1,68,102,0
1,64,102,0
1,69,96,80
1,64,96,0
1,72,89,0
1,45,107,0
1,72,78,88
1,69,80,4
1,64,86,0
1,72,66,88
1,69,74,0
1,64,72,0
1,72,72,92
1,64,83,0
1,69,83,0
1,72,76,88
1,64,80,0
1,69,86,0
1,72,83,96
1,64,86,0
1,69,86,0
1,72,65,88
1,64,83,8
1,69,80,0
1,72,83,80
1,64,83,0
1,69,80,0
1,72,74,100
1,64,96,0
1,69,86,0
1,74,107,88
1,62,107,4
1,50,107,4
1,64,102,52
1,76,112,0
1,77,107,56
1,65,107,0
1,74,102,52
1,62,107,4
1,76,102,56
1,64,107,0
1,77,107,44
1,65,112,0
1,52,112,32
1,76,112,384
1,64,107,0
1,62,107,40
1,74,102,0
1,76,107,68
1,64,112,0
1,65,112,44
1,77,118,0
1,45,102,144
1,33,102,0
1,47,107,60
1,77,107,0
1,65,107,4
1,64,96,44
1,76,107,0
1,33,96,4
1,49,102,64
1,77,107,0
1,65,102,4
1,76,107,44
1,64,107,0
1,33,102,0
1,52,107,40
1,69,107,0
1,57,118,0
1,50,107,40
1,74,112,0
1,62,112,0
1,38,107,192
1,53,102,80
1,69,118,96
1,53,118,0
1,72,118,0
1,63,107,0
1,65,112,0
1,71,112,44
1,68,112,0
1,64,112,0
1,52,112,0
1,62,107,0
1,69,118,32
1,57,112,0
1,45,102,0
1,71,112,92
1,59,112,0
1,72,112,72
1,60,96,0
1,69,107,60
1,57,96,0
1,71,118,48
1,59,93,0
1,72,118,76
1,60,118,0
1,62,118,64
1,65,118,0
1,74,122,0
1,69,112,0
1,38,112,0
1,50,107,0
1,68,89,92
1,71,89,0
1,64,86,8
1,52,86,0
1,40,93,0
1,76,107,16
1,69,107,0
1,72,96,0
1,69,96,124
1,76,89,0
1,72,89,0
1,76,93,132
1,72,93,0
1,69,107,0
1,76,93,136
1,69,96,0
1,72,96,0
1,69,96,132
1,72,89,0
1,76,89,0
1,69,107,8
1,76,107,0
1,72,96,0
1,64,102,116
1,69,86,96
1,72,78,76
1,76,102,52
1,65,107,44
1,75,86,0
1,69,96,0
1,72,74,0
1,75,89,96
1,65,102,0
1,69,86,0
1,72,86,0
1,75,80,120
1,69,93,0
1,65,102,0
1,72,80,0
1,69,93,124
1,75,80,0
1,65,96,4
1,72,86,0
1,69,86,136
1,65,86,0
1,75,76,0
1,72,83,0
1,75,102,136
1,69,102,0
1,65,107,0
1,72,89,0
1,65,112,84
1,69,63,96
1,72,78,40
1,75,89,12
1,62,107,48
1,74,118,0
1,65,102,0
1,69,102,0
1,72,112,148
1,62,102,4
1,65,107,0
1,69,96,16
1,62,112,36
1,72,112,0
1,68,107,0
1,40,107,0
1,40,118,112
1,68,107,8
1,72,118,0
1,62,118,0
1,45,82,8
1,57,82,12
1,64,82,0
1,69,82,0
1,60,82,0
1,69,63,4
1,81,63,0
1,83,63,4
1,71,63,4
1,84,63,84
1,72,63,8
1,88,63,88
1,76,63,4
1,81,62,84
1,69,62,0
1,71,62,8
1,83,62,0
1,84,62,84
1,72,62,0
1,76,62,0
1,88,62,0
1,69,62,0
1,81,62,0
1,71,62,0
1,83,62,0
1,72,62,96
1,84,62,0
1,76,62,0
1,88,62,0
1,69,62,4
1,81,62,4
1,71,62,4
1,83,62,0
1,84,62,92
1,72,62,0
1,76,62,56
1,88,62,0
1,69,62,36
1,81,62,0
1,83,62,0
1,71,62,0
1,84,62,80
1,72,62,4
1,88,62,76
1,76,62,0
1,69,62,4
1,81,62,0
1,83,62,8
1,71,62,0
1,72,62,88
1,84,62,0
1,76,62,0
1,88,62,0
1,69,62,12
1,81,62,0
1,83,62,96
1,71,62,0
1,72,62,88
1,84,62,0
1,88,62,0
1,76,62,0
1,69,62,4
1,81,62,4
1,83,62,4
1,71,62,4
1,72,62,88
1,84,62,0
1,88,62,68
1,76,62,0
1,72,72,48
1,76,72,0
1,45,71,0
1,69,64,0
1,77,86,8
1,57,83,0
1,72,72,124
1,77,78,0
1,69,76,0
1,45,86,4
1,76,80,12
1,57,83,0
1,76,83,108
1,72,80,0
1,45,86,0
1,69,78,0
1,77,89,32
1,57,86,0
1,77,93,104
1,72,89,4
1,45,93,0
1,69,89,0
1,76,86,0
1,57,89,4
1,44,78,112
1,76,86,4
1,68,80,0
1,71,83,0
1,77,89,160
1,56,80,0
1,44,102,112
1,77,107,0
1,71,96,0
1,68,86,0
1,76,93,168
1,56,80,0
1,44,107,100
1,68,89,4
1,76,107,0
1,71,96,0
1,56,93,20
1,76,112,4
1,81,112,0
1,71,83,0
1,81,118,112
1,76,118,0
1,71,118,0
1,44,112,0
1,56,102,16
1,76,102,0
1,80,112,0
1,71,112,0
1,40,125,24
1,52,112,192
1,40,125,100
1,52,102,192
1,74,107,108
1,68,102,0
1,64,102,0
1,71,96,0
1,40,112,0
1,52,118,0
1,74,112,92
1,64,112,0
1,68,107,0
1,71,107,4
