track,note,velocity,time
0,1,1,0
0,1,1,0
0,1,1,0
0,1,1,0
0,55,127,0
0,55,69,4
0,62,67,0
0,62,127,188
0,72,127,192
0,72,74,0
0,62,0,12
0,55,0,180
0,62,127,0
0,55,127,192
0,72,0,72
0,72,0,76
0,71,127,44
0,71,72,0
0,62,0,36
0,62,127,156
0,55,0,36
0,55,127,156
0,71,0,40
0,69,127,152
0,69,74,0
0,62,0,32
0,71,0,24
0,62,127,136
0,55,0,32
0,55,127,160
0,69,0,104
0,67,127,88
0,67,81,0
0,62,0,28
0,69,0,16
0,62,0,144
0,51,127,4
0,55,0,0
0,51,86,4
0,63,76,0
0,55,0,12
0,67,0,48
0,63,127,128
0,67,0,188
0,66,127,4
0,66,82,0
0,51,0,24
0,51,127,168
0,63,0,64
0,63,0,12
0,66,0,28
0,66,0,72
0,51,0,16
0,52,127,0
0,64,76,0
0,59,82,4
0,52,75,0
0,51,0,16
0,59,127,172
0,69,127,192
0,69,83,0
0,64,0,4
0,59,0,20
0,59,127,168
0,52,0,36
0,52,127,156
0,69,0,56
0,67,127,136
0,67,77,0
0,69,0,12
0,59,0,16
0,59,127,164
0,52,0,24
0,52,127,168
0,66,127,192
0,66,80,4
0,67,0,32
0,59,0,12
0,67,0,12
0,59,127,132
0,52,0,28
0,52,127,164
0,66,0,36
0,64,127,156
0,64,76,0
0,52,0,12
0,66,0,8
0,52,0,140
0,56,127,32
0,56,61,0
0,59,0,64
0,59,127,128
0,62,127,192
0,62,70,0
0,56,0,60
0,56,127,132
0,59,0,60
0,59,0,48
0,62,0,16
0,64,0,24
0,62,0,8
0,56,0,36
0,57,127,0
0,57,80,4
0,60,75,0
0,56,0,4
0,64,0,0
0,64,127,184
0,60,0,60
0,74,127,132
0,74,81,0
0,64,71,0
0,64,0,56
0,57,0,12
0,64,127,124
0,57,127,192
0,74,0,60
0,72,127,132
0,72,74,0
0,74,0,4
0,64,0,60
0,64,127,128
0,57,0,20
0,72,0,88
0,57,127,84
0,64,0,96
0,71,127,96
0,72,0,0
0,71,72,4
0,60,127,188
0,57,0,44
0,57,127,148
0,71,0,60
0,64,0,20
0,71,0,68
0,69,127,44
0,69,69,0
0,60,78,4
0,60,0,40
0,60,127,148
0,57,0,40
0,57,127,152
0,64,63,192
0,57,0,116
0,57,127,76
0,69,0,184
0,60,0,4
0,50,127,4
0,50,85,4
0,69,0,4
0,57,0,4
0,64,0,0
0,60,0,68
0,57,127,112
0,62,127,192
0,67,127,0
0,67,111,0
0,67,92,4
0,62,88,0
0,57,0,52
0,57,127,136
0,50,0,80
0,50,127,112
0,67,0,96
0,62,0,12
0,67,0,76
0,66,127,8
0,66,116,0
0,67,0,4
0,66,90,0
0,57,0,60
0,57,127,128
0,62,127,192
0,57,0,28
0,62,0,132
0,66,0,16
0,66,0,12
0,64,127,4
0,64,110,4
0,64,85,0
0,62,0,76
0,57,127,112
0,50,0,224
0,64,0,144
0,50,0,8
0,50,127,8
0,62,127,0
0,62,99,4
0,64,0,0
0,54,67,0
0,62,62,0
0,64,0,20
0,66,0,20
0,54,127,340
0,57,0,32
0,57,127,160
0,57,0,260
0,57,0,0
0,54,0,36
0,50,0,12
0,62,0,24
0,55,127,52
0,55,79,0
0,54,0,12
0,62,0,12
0,62,127,168
0,72,127,192
0,72,120,0
0,72,88,4
0,62,0,4
0,55,0,128
0,62,127,56
0,55,127,192
0,72,0,56
0,72,0,92
0,71,127,44
0,71,123,0
0,71,82,4
0,62,0,16
0,72,0,0
0,62,127,172
0,55,0,24
0,55,127,168
0,71,0,164
0,69,127,28
0,71,0,0
0,69,115,4
0,69,84,0
0,62,0,16
0,71,0,12
0,62,127,160
0,55,0,32
0,55,127,160
0,69,0,48
0,67,127,144
0,69,0,0
0,67,115,4
0,67,84,0
0,62,0,12
0,69,0,20
0,62,0,124
0,55,0,24
0,51,127,8
0,63,79,4
0,51,84,0
0,55,0,28
0,67,0,52
0,67,106,108
0,63,127,0
0,67,0,32
0,66,127,160
0,66,109,0
0,66,81,4
0,67,0,4
0,67,0,12
0,51,0,28
0,51,127,144
0,63,0,68
0,66,0,8
0,63,0,8
0,66,0,100
0,51,0,4
0,52,127,4
0,52,77,4
0,64,71,0
0,59,84,0
0,51,0,20
0,66,0,16
0,59,127,152
0,64,0,180
0,69,127,12
0,69,120,0
0,69,85,4
0,52,0,48
0,52,127,140
0,59,0,96
0,59,127,96
0,52,0,56
0,67,127,136
0,69,0,0
0,67,115,4
0,67,89,0
0,69,0,4
0,69,0,24
0,59,0,84
0,59,127,76
0,52,127,192
0,66,127,192
0,66,114,0
0,66,88,4
0,67,0,8
0,59,0,4
0,67,0,32
0,67,0,108
0,59,127,36
0,52,0,40
0,52,127,152
0,66,0,40
0,66,0,144
0,64,127,8
0,64,113,0
0,66,0,0
0,64,74,4
0,52,0,36
0,52,0,112
0,56,127,40
0,56,58,4
0,59,0,60
0,59,127,128
0,64,0,176
0,62,127,16
0,62,105,0
0,62,73,4
0,56,0,64
0,56,127,124
0,59,0,76
0,62,0,12
0,64,0,44
0,59,0,48
0,57,127,12
0,57,104,4
0,56,0,12
0,56,0,8
0,62,0,16
0,62,0,4
0,64,0,4
0,64,127,144
0,74,127,192
0,74,115,0
0,74,78,4
0,64,82,0
0,64,0,36
0,64,127,152
0,57,0,32
0,57,127,160
0,74,0,76
0,74,0,88
0,74,0,20
0,72,127,8
0,72,115,0
0,72,80,4
0,64,0,44
0,64,127,144
0,57,0,48
0,72,0,84
0,57,127,60
0,64,0,44
0,64,0,80
0,72,0,48
0,71,127,20
0,71,120,4
0,71,77,0
0,72,0,12
0,60,127,176
0,57,0,52
0,57,127,140
0,71,0,68
0,71,0,116
0,69,127,8
0,69,115,0
0,69,74,4
0,60,73,0
0,60,0,24
0,71,0,24
0,60,127,140
0,57,0,60
0,57,127,132
0,64,127,192
0,64,82,0
0,69,0,56
0,60,0,48
0,60,127,88
0,69,0,188
0,50,127,4
0,60,0,0
0,69,0,4
0,50,88,0
0,64,0,4
0,57,0,12
0,64,0,0
0,60,0,16
0,57,127,156
0,67,127,192
0,62,127,0
0,67,115,4
0,67,88,0
0,62,83,0
0,50,0,56
0,50,127,132
0,57,0,24
0,57,127,168
0,62,0,76
0,67,0,0
0,67,0,96
0,66,127,20
0,62,127,0
0,66,116,4
0,66,92,0
0,67,0,12
0,50,0,60
0,50,127,116
0,57,0,48
0,57,127,144
0,62,0,76
0,66,0,0
0,66,0,112
0,64,127,4
0,64,118,4
0,64,83,0
0,66,0,4
0,50,0,56
0,62,0,88
0,50,127,40
0,57,0,40
0,57,127,44
0,64,0,180
0,62,127,12
0,64,0,0
0,62,98,4
0,54,69,0
0,62,49,0
0,50,0,12
0,64,0,188
0,57,0,848
0,62,0,56
0,54,0,64
0,62,127,356
0,57,0,44
0,64,127,0
0,62,0,8
0,50,0,24
0,62,0,76
0,64,0,76
0,66,127,0
0,66,0,264
0,67,127,24
0,67,0,92
0,55,127,0
0,59,127,4
0,62,77,0
0,59,81,0
0,67,85,0
0,71,75,0
0,62,127,188
0,71,127,192
0,62,0,64
0,62,126,128
0,67,127,192
0,62,0,24
0,71,0,96
0,59,0,12
0,67,0,8
0,62,0,28
0,62,127,24
0,67,83,0
0,62,78,0
0,59,80,4
0,71,78,0
0,55,0,20
0,71,0,88
0,67,0,12
0,62,0,24
0,55,127,44
0,62,0,60
0,59,0,36
0,62,127,96
0,62,54,0
0,55,0,32
0,62,0,12
0,55,127,148
0,59,77,4
0,67,79,0
0,62,78,0
0,71,79,0
0,62,0,24
0,62,127,164
0,67,0,32
0,67,127,160
0,59,0,180
0,74,127,12
0,62,0,84
0,71,0,76
0,59,127,0
0,62,73,4
0,59,0,176
0,60,127,0
0,71,0,44
0,59,0,4
0,67,0,24
0,62,0,0
0,60,0,116
0,62,127,0
0,62,78,0
0,67,85,0
0,59,86,4
0,71,78,0
0,62,0,128
0,67,0,36
0,55,0,4
0,62,0,8
0,74,0,4
0,64,127,8
0,71,0,56
0,62,0,16
0,67,0,0
0,59,0,0
0,54,127,120
0,74,127,4
0,69,127,0
0,69,86,0
0,66,87,0
0,62,84,0
0,57,85,0
0,62,127,188
0,62,127,0
0,64,0,16
0,57,0,44
0,62,0,32
0,62,127,80
0,66,127,0
0,57,84,4
0,69,85,0
0,62,78,0
0,66,86,0
0,62,0,48
0,54,0,116
0,62,127,0
0,62,0,288
0,57,0,0
0,66,0,12
0,69,0,4
0,54,127,80
0,69,82,0
0,62,77,4
0,66,85,0
0,57,83,0
0,62,0,44
0,57,0,116
0,66,0,4
0,69,0,0
0,62,0,16
0,62,127,8
0,66,0,44
0,69,0,52
0,66,127,96
0,54,0,132
0,69,127,60
0,57,79,0
0,62,72,4
0,69,79,0
0,66,79,0
0,66,0,144
0,66,127,44
0,62,0,136
0,54,127,56
0,62,0,16
0,62,127,176
0,66,0,60
0,74,0,8
0,62,127,52
0,74,127,0
0,62,71,4
0,66,0,56
0,62,0,124
0,60,127,0
0,66,127,0
0,62,0,32
0,59,127,160
0,62,127,0
0,66,69,4
0,60,0,4
0,62,0,104
0,66,0,8
0,69,0,20
0,57,0,0
0,54,0,8
0,59,0,32
0,57,127,12
0,62,0,0
0,69,127,0
0,74,0,24
0,66,0,56
0,69,0,96
0,57,0,8
0,57,127,0
0,60,127,4
0,72,127,0
0,69,97,0
0,59,86,0
0,64,87,0
0,72,95,0
0,59,0,88
0,64,127,100
0,72,0,20
0,64,0,4
0,69,0,16
0,69,127,152
0,57,83,0
0,69,95,4
0,64,86,0
0,72,90,0
0,57,0,8
0,64,0,96
0,64,127,84
0,57,127,192
0,72,0,36
0,64,0,0
0,69,0,16
0,57,0,4
0,64,0,36
0,64,126,100
0,64,83,0
0,69,89,4
0,72,88,0
0,57,79,0
0,57,0,176
0,72,0,12
0,69,0,4
0,64,0,0
0,69,0,176
0,52,127,12
0,57,0,44
0,64,0,72
0,57,127,76
0,57,79,0
0,64,72,4
0,69,76,0
0,72,76,0
0,64,127,188
0,60,0,32
0,72,0,16
0,62,127,144
0,69,127,0
0,64,0,52
0,64,127,140
0,57,0,8
0,57,127,184
0,60,127,4
0,72,127,0
0,69,0,24
0,59,127,0
0,64,127,0
0,64,74,4
0,69,83,0
0,57,85,0
0,72,78,0
0,57,0,144
0,57,127,0
0,69,127,0
0,52,0,12
0,59,0,12
0,64,0,8
0,72,0,12
0,69,0,12
0,57,0,128
0,50,127,8
0,60,127,4
0,54,85,0
0,69,84,0
0,66,85,0
0,62,80,0
0,72,0,12
0,57,0,24
0,64,0,4
0,69,0,0
0,57,127,148
0,54,0,0
0,62,0,32
0,66,0,0
0,69,0,4
0,62,127,156
0,57,86,0
0,66,84,0
0,62,83,4
0,69,88,0
0,69,127,188
0,64,127,0
0,62,0,32
0,66,127,160
0,64,0,12
0,62,0,52
0,57,0,12
0,66,0,0
0,69,0,4
0,62,127,112
0,62,77,0
0,54,85,0
0,69,84,4
0,66,82,0
0,57,0,20
0,62,0,236
0,57,127,124
0,62,72,0
0,50,0,4
0,60,0,20
0,66,0,32
0,69,0,32
0,62,0,24
0,57,80,80
0,69,87,0
0,62,81,4
0,66,85,0
0,50,127,4
0,57,0,12
0,57,127,180
0,62,0,52
0,62,127,144
0,62,0,80
0,62,72,0
0,57,0,44
0,66,0,120
0,62,127,28
0,57,74,4
0,62,0,72
0,69,0,20
0,64,127,76
0,62,0,16
0,64,127,0
0,62,78,0
0,62,0,28
0,66,0,4
0,50,0,136
0,69,0,8
0,64,0,12
0,66,127,0
0,66,127,4
0,66,90,0
0,57,0,16
0,64,0,0
0,54,0,44
0,69,76,92
0,66,0,40
0,62,0,12
0,66,0,16
0,66,0,8
0,67,127,20
0,67,127,0
0,69,0,44
0,55,127,0
0,59,127,4
0,67,0,0
0,59,87,0
0,71,75,0
0,62,82,0
0,67,82,0
0,67,0,16
0,67,0,80
0,62,0,16
0,71,0,4
0,59,0,24
0,62,127,48
0,71,127,192
0,59,92,0
0,62,90,4
0,71,94,0
0,67,104,0
0,62,0,32
0,67,127,156
0,62,0,44
0,62,127,148
0,62,72,4
0,55,0,36
0,62,0,52
0,67,0,4
0,71,0,0
0,71,0,4
0,59,0,0
0,67,0,36
0,69,127,56
0,57,94,0
0,69,102,0
0,62,88,4
0,67,94,0
0,55,127,188
0,62,0,36
0,62,0,48
0,57,0,24
0,62,127,84
0,62,58,0
0,57,56,4
0,67,0,40
0,69,0,12
0,57,0,4
0,62,0,12
0,55,0,60
0,72,127,60
0,60,90,4
0,62,92,0
0,67,102,0
0,72,90,0
0,62,0,8
0,69,0,24
0,62,127,156
0,62,0,60
0,59,0,128
0,55,127,4
0,62,62,0
0,60,0,52
0,62,0,28
0,67,0,8
0,72,0,0
0,72,0,12
0,71,127,92
0,59,89,0
0,62,86,4
0,67,95,0
0,71,88,0
0,62,0,48
0,59,127,0
0,67,127,0
0,59,0,92
0,60,127,0
0,62,127,0
0,59,76,4
0,62,0,32
0,55,0,16
0,71,0,16
0,67,0,0
0,62,127,124
0,55,127,0
0,60,0,4
0,71,92,0
0,67,99,0
0,62,90,0
0,64,127,4
0,62,71,0
0,67,0,68
0,59,0,12
0,64,0,20
0,62,0,16
0,71,0,32
0,50,127,44
0,64,127,4
0,62,88,0
0,74,80,0
0,66,83,0
0,69,87,0
0,55,0,4
0,71,0,28
0,67,0,8
0,62,0,16
0,54,127,4
0,62,0,12
0,64,0,176
0,62,127,4
0,62,127,0
0,62,86,4
0,74,78,0
0,66,83,0
0,69,89,0
0,50,0,24
0,54,0,44
0,54,127,0
0,57,127,192
0,54,0,48
0,66,0,24
0,62,0,0
0,69,0,16
0,74,0,12
0,61,127,92
0,73,85,0
0,66,85,4
0,61,98,0
0,69,85,0
0,62,0,36
0,54,127,152
0,57,0,32
0,66,0,64
0,57,127,96
0,66,48,0
0,61,0,24
0,73,0,0
0,69,0,16
0,66,0,12
0,61,0,16
0,64,127,124
0,76,72,4
0,66,80,0
0,64,97,0
0,69,92,0
0,57,0,28
0,57,127,160
0,62,0,32
0,54,0,32
0,66,0,4
0,54,126,124
0,66,53,0
0,64,0,32
0,69,0,24
0,76,0,4
0,66,0,36
0,62,127,0
0,66,92,0
0,62,97,4
0,74,88,0
0,69,97,0
0,64,0,28
0,57,0,12
0,57,127,148
0,62,127,4
0,54,0,112
0,62,0,12
0,60,127,64
0,54,127,0
0,62,82,4
0,62,0,8
0,66,0,40
0,69,0,20
0,59,127,0
0,57,127,0
0,66,88,4
0,54,0,64
0,62,0,4
0,59,0,120
0,57,127,0
0,54,127,0
0,62,80,4
0,74,0,20
0,66,0,20
0,52,127,8
0,60,127,4
0,64,84,0
0,57,78,0
0,72,87,0
0,69,85,0
0,57,0,24
0,62,0,4
0,69,0,84
0,72,0,12
0,64,0,0
0,57,0,48
0,57,127,16
0,60,127,192
0,60,90,0
0,72,90,4
0,64,85,0
0,69,90,0
0,57,0,32
0,52,0,132
0,57,127,24
0,52,127,192
0,60,0,16
0,60,0,40
0,69,0,16
0,64,0,0
0,72,0,24
0,59,127,96
0,59,84,0
0,69,86,4
0,64,80,0
0,71,87,0
0,57,0,48
0,57,127,140
0,52,0,28
0,64,0,76
0,52,127,88
0,59,0,56
0,69,0,0
0,71,0,8
0,59,0,60
0,62,127,68
0,62,94,4
0,69,89,0
0,64,83,0
0,74,88,0
0,60,0,32
0,57,0,0
0,57,127,156
0,52,0,48
0,64,0,16
0,52,127,128
0,64,53,0
0,62,0,40
0,74,0,28
0,69,0,12
0,64,0,24
0,62,0,52
0,60,127,0
0,60,86,0
0,64,85,0
0,69,94,4
0,72,94,0
0,62,127,188
0,52,0,64
0,60,127,76
0,52,127,0
0,64,78,4
0,62,0,4
0,57,0,64
0,69,0,48
0,60,0,60
0,59,127,0
0,57,127,0
0,69,79,4
0,60,0,56
0,60,0,16
0,52,0,12
0,60,127,24
0,60,78,0
0,59,0,44
