track,note,velocity,time
1,38,104,1136
1,57,98,0
1,62,112,0
1,66,112,0
1,69,100,0
1,38,85,76
1,38,81,56
1,38,69,52
1,38,93,56
1,38,76,16
1,38,100,16
1,69,90,48
1,57,81,0
1,62,108,0
1,66,108,8
1,38,93,0
1,38,112,40
1,38,68,40
1,38,111,56
1,38,74,48
1,38,111,52
1,38,74,4
1,38,98,0
1,69,90,76
1,62,112,0
1,57,85,8
1,38,98,0
1,66,108,0
1,38,117,56
1,38,93,40
1,38,104,56
1,38,86,48
1,38,112,48
1,38,79,48
1,38,100,16
1,38,81,72
1,57,87,0
1,69,104,0
1,62,117,0
1,66,117,4
1,38,108,48
1,38,90,80
1,38,120,36
1,38,85,48
1,38,104,48
1,38,87,32
1,38,117,40
1,69,95,0
1,57,100,0
1,62,108,0
1,66,108,0
1,38,98,64
1,50,81,0
1,66,77,0
1,69,87,0
1,57,95,0
1,62,100,0
1,50,73,4
1,74,95,64
1,62,104,0
1,69,111,0
1,66,111,0
1,69,90,4
1,74,85,0
1,66,86,0
1,62,93,0
1,50,75,4
1,69,77,80
1,66,74,0
1,62,87,0
1,57,86,0
1,50,72,64
1,59,93,0
1,64,104,0
1,71,93,0
1,68,104,0
1,50,81,52
1,71,98,40
1,59,104,0
1,64,112,0
1,68,112,0
1,71,81,4
1,64,87,0
1,59,87,0
1,68,75,0
1,50,87,384
1,71,86,8
1,64,95,0
1,59,98,0
1,68,81,0
1,50,53,4
1,73,74,76
1,61,87,0
1,64,98,0
1,69,81,0
1,73,72,24
1,64,100,0
1,61,86,0
1,69,81,0
1,49,58,256
1,47,74,52
1,71,83,0
1,62,98,0
1,59,83,0
1,67,86,0
1,71,79,12
1,62,79,8
1,67,83,0
1,59,77,0
1,47,74,0
1,57,73,52
1,45,72,0
1,61,73,0
1,69,81,0
1,64,93,0
1,45,65,4
1,69,79,20
1,57,77,0
1,61,70,0
1,64,85,0
1,69,72,4
1,57,74,0
1,61,68,0
1,64,85,0
1,45,63,4
1,69,83,28
1,57,85,0
1,61,77,0
1,64,98,0
1,50,73,96
1,62,100,0
1,66,77,0
1,69,83,0
1,57,86,0
1,50,67,16
1,62,112,68
1,74,108,0
1,69,120,0
1,66,117,0
1,50,81,0
1,74,81,32
1,69,95,0
1,66,93,0
1,62,90,0
1,50,77,0
1,50,70,0
1,66,71,64
1,69,83,0
1,57,76,0
1,62,85,0
1,50,79,68
1,59,98,0
1,64,100,0
1,71,87,0
1,68,86,0
1,50,67,4
1,71,95,24
1,64,114,0
1,59,100,0
1,68,111,0
1,71,87,20
1,64,86,0
1,68,83,0
1,59,93,0
1,50,66,4
1,59,112,20
1,64,117,0
1,71,104,0
1,68,114,0
1,50,71,4
1,49,77,68
1,73,79,0
1,61,64,0
1,64,95,0
1,69,85,0
1,73,73,16
1,64,98,0
1,61,79,0
1,69,75,0
1,49,61,4
1,67,76,64
1,47,86,0
1,71,87,0
1,62,83,0
1,59,83,0
1,67,64,12
1,71,60,0
1,47,74,0
1,62,66,0
1,59,71,8
1,62,104,68
1,69,85,0
1,66,81,0
1,57,100,0
1,45,75,0
1,69,90,40
1,66,87,0
1,62,98,0
1,57,100,0
1,45,68,16
1,69,83,128
1,61,74,0
1,57,93,0
1,64,95,0
1,69,76,8
1,57,76,0
1,61,59,0
1,64,85,0
1,71,104,96
1,66,111,0
1,59,98,0
1,62,112,0
1,47,95,0
1,95,86,384
1,83,90,0
1,86,108,0
1,90,98,0
1,95,101,24
1,90,101,0
1,86,101,0
1,83,101,0
1,78,87,20
1,90,72,8
1,83,95,0
1,86,87,0
1,90,72,0
1,83,95,0
1,78,64,0
1,86,83,12
1,74,87,20
1,78,104,0
1,86,83,0
1,83,87,0
1,86,105,8
1,78,105,0
1,74,105,0
1,83,105,0
1,83,98,32
1,71,98,0
1,78,98,0
1,74,98,0
1,83,104,12
1,47,104,0
1,78,104,0
1,71,104,0
1,74,104,0
1,59,93,384
1,66,111,0
1,62,104,0
1,47,63,4
1,66,59,20
1,62,72,0
1,59,75,8
1,47,57,48
1,66,60,12
1,62,64,8
1,59,69,0
1,71,98,52
1,66,108,0
1,62,112,0
1,59,111,0
1,47,75,8
1,95,86,376
1,83,100,0
1,86,111,0
1,90,108,0
1,95,94,44
1,90,94,0
1,86,94,0
1,83,94,0
1,78,95,52
1,83,87,0
1,86,77,0
1,90,74,0
1,90,64,16
1,83,86,0
1,78,67,0
1,86,87,0
1,86,77,40
1,74,86,0
1,83,85,0
1,78,87,0
1,86,93,72
1,74,90,0
1,78,98,0
1,83,100,0
1,71,85,72
1,74,95,0
1,83,79,0
1,78,76,0
1,71,90,48
1,83,93,0
1,74,112,0
1,78,112,0
1,44,67,0
1,44,76,4
1,68,71,0
1,64,87,0
1,59,90,0
1,68,90,8
1,59,95,0
1,64,104,0
1,44,64,8
1,68,77,28
1,64,85,0
1,59,90,0
1,45,74,80
1,64,90,0
1,69,83,0
1,61,81,0
1,69,87,12
1,64,95,0
1,61,86,0
1,59,100,12
1,62,100,8
1,67,100,0
1,43,67,56
1,71,95,32
1,67,83,0
1,62,83,0
1,59,90,0
1,43,59,8
1,42,74,64
1,57,74,0
1,62,86,0
1,66,68,0
1,69,79,0
1,66,79,100
1,69,81,0
1,62,93,0
1,57,93,0
1,45,66,20
1,57,82,0
1,61,82,0
1,64,82,0
1,69,82,0
1,62,79,284
1,38,65,0
1,74,86,0
1,69,98,0
1,66,93,0
1,50,64,0
1,74,87,180
1,62,79,0
1,50,68,0
1,69,100,0
1,66,93,0
1,71,59,12
1,69,63,4
1,74,75,16
1,69,81,0
1,66,72,0
1,62,75,0
1,50,63,16
1,71,77,32
1,66,59,0
1,69,62,0
1,62,59,0
1,74,91,44
1,69,91,0
1,62,91,0
1,66,91,0
1,50,91,0
1,38,64,8
1,38,76,160
1,74,85,0
1,50,70,0
1,66,98,0
1,62,86,0
1,69,104,0
1,71,60,16
1,69,54,24
1,69,89,80
1,62,89,0
1,66,89,0
1,50,89,0
1,74,90,8
1,69,87,92
1,50,87,0
1,66,87,0
1,62,87,0
1,71,89,16
1,62,89,0
1,43,53,8
1,43,94,88
1,71,94,0
1,59,94,0
1,62,94,0
1,67,94,0
1,59,74,252
1,71,96,88
1,67,96,0
1,59,96,0
1,62,96,0
1,71,81,104
1,59,77,0
1,62,77,0
1,67,81,0
1,71,51,36
1,62,72,0
1,67,66,0
1,59,64,0
1,43,54,8
1,71,77,208
1,59,85,0
1,62,98,0
1,67,81,0
1,43,85,0
1,59,47,28
1,71,75,80
1,62,74,0
1,59,73,0
1,67,71,0
1,43,60,108
1,71,61,0
1,62,65,0
1,67,71,0
1,59,67,0
1,69,74,8
1,57,77,0
1,62,87,0
1,64,90,0
1,45,58,36
1,61,73,128
1,57,74,0
1,69,75,0
1,64,90,0
1,45,65,88
1,57,71,0
1,61,63,24
1,69,60,52
1,57,52,0
1,64,76,0
1,45,74,0
1,69,77,76
1,64,85,0
1,57,77,0
1,45,73,0
1,62,83,0
1,45,67,0
1,69,68,92
1,64,79,0
1,57,73,0
1,61,72,0
1,69,74,132
1,61,66,0
1,64,76,0
1,57,71,0
1,45,65,4
1,61,62,96
1,69,69,8
1,64,74,0
1,57,71,0
1,62,83,20
1,66,93,0
1,74,71,0
1,69,90,0
1,38,60,16
1,74,75,256
1,66,85,0
1,62,77,0
1,50,87,0
1,69,85,0
1,71,63,12
1,69,50,32
1,74,70,80
1,69,68,0
1,50,69,0
1,62,66,0
1,66,60,0
1,50,62,96
1,74,73,0
1,66,67,0
1,69,74,0
1,62,70,0
1,62,60,16
1,45,58,96
1,69,79,224
1,57,87,0
1,45,87,0
1,61,95,0
1,64,100,0
1,69,59,28
1,61,62,8
1,64,71,0
1,64,83,64
1,69,71,0
1,61,65,0
1,57,73,0
1,45,73,0
1,69,61,48
1,61,62,0
1,57,61,0
1,64,71,0
1,69,59,48
1,57,67,0
1,64,74,0
1,61,63,0
1,45,83,0
1,69,59,32
1,64,76,0
1,57,67,0
1,61,63,0
1,62,91,36
1,66,91,0
1,69,91,0
1,74,91,0
1,38,56,0
1,38,59,192
1,66,93,0
1,62,86,0
1,74,85,0
1,69,100,0
1,50,69,0
1,71,54,16
1,69,60,40
1,69,75,72
1,74,81,0
1,62,70,0
1,66,68,0
1,50,60,20
1,71,81,48
1,69,62,0
1,62,76,8
1,66,73,0
1,69,60,36
1,50,64,0
1,74,72,8
1,66,65,0
1,62,69,0
1,38,100,152
1,74,100,0
1,50,100,0
1,62,100,8
1,69,100,0
1,66,100,0
1,71,102,16
1,69,63,16
1,74,75,60
1,69,74,0
1,50,72,0
1,66,71,0
1,62,67,0
1,69,86,128
1,50,68,0
1,62,79,0
1,66,75,0
1,71,75,20
1,62,73,0
1,43,58,4
1,71,79,60
1,59,76,0
1,62,98,0
1,67,81,0
1,43,65,0
1,59,58,132
1,71,83,80
1,62,83,0
1,67,75,0
1,59,81,0
1,71,79,160
1,62,86,8
1,59,79,0
1,67,79,0
1,43,69,0
1,71,55,44
1,67,67,0
1,62,68,0
1,59,63,0
1,43,63,4
1,62,87,232
1,67,74,0
1,71,81,0
1,59,83,0
1,59,58,20
1,71,74,88
1,62,79,0
1,43,74,0
1,59,81,0
1,67,75,0
1,43,67,96
1,71,66,0
1,67,69,8
1,62,66,0
1,59,72,0
1,62,93,20
1,69,87,0
1,64,100,0
1,45,67,136
1,69,60,128
1,57,65,0
1,61,62,0
1,64,67,0
1,69,63,32
1,57,63,0
1,61,68,0
1,64,85,0
1,45,66,12
1,69,71,112
1,64,81,8
1,61,72,0
1,57,73,0
1,57,60,8
1,69,67,44
1,61,63,0
1,57,65,0
1,64,76,8
1,57,74,60
1,69,73,0
1,62,85,0
1,64,87,0
1,45,83,0
1,57,60,0
1,69,61,52
1,61,63,0
1,57,73,0
1,64,79,0
1,45,63,4
1,69,71,80
1,64,76,0
1,61,68,0
1,57,73,0
1,45,77,4
1,61,67,80
1,69,73,0
1,57,73,0
1,64,83,0
1,57,59,20
1,38,65,72
1,50,63,0
1,74,74,192
1,62,85,0
1,50,85,0
1,66,90,0
1,69,93,0
1,71,58,8
1,69,7,132
1,74,67,0
1,66,65,0
1,62,62,0
1,50,62,20
1,69,68,88
1,62,71,0
1,66,67,0
1,69,75,16
1,66,71,0
1,74,71,0
1,62,73,0
1,50,62,136
1,66,69,168
1,69,81,0
1,74,76,0
1,62,74,0
1,42,58,120
1,43,86,20
1,71,79,0
1,62,72,0
1,67,74,8
1,62,59,20
1,44,75,40
1,62,73,0
1,71,79,0
1,64,74,0
1,45,79,4
1,69,75,256
1,57,83,0
1,61,86,0
1,64,87,0
1,45,67,84
1,57,54,24
1,69,70,32
1,57,64,0
1,64,81,0
1,61,67,0
1,69,74,104
1,57,74,0
1,64,83,0
1,61,67,8
1,61,60,28
1,57,65,0
1,64,68,0
1,45,60,0
1,69,77,256
1,57,79,0
1,64,85,0
1,61,73,0
1,57,60,12
1,69,70,64
1,57,73,0
1,64,81,0
1,61,65,0
1,45,66,48
1,38,74,40
1,50,71,0
1,62,85,0
1,69,104,0
1,74,86,0
1,66,95,0
1,50,62,144
1,69,64,136
1,50,65,0
1,66,60,0
1,62,65,0
1,74,74,0
1,62,81,0
1,66,81,0
1,69,87,0
1,38,67,768
1,50,58,0
1,50,44,48
1,38,58,8
1,50,71,68
1,38,67,0
1,38,72,44
1,50,74,0
1,50,61,60
1,66,87,8
1,62,77,0
1,69,90,0
1,74,81,0
1,38,58,0
1,50,65,56
1,38,66,0
1,50,59,96
1,38,51,0
1,38,63,68
1,50,62,0
1,50,59,80
1,38,63,8
1,50,60,48
1,38,59,8
1,50,64,56
1,38,63,0
1,50,63,4
1,74,96,72
1,62,96,0
1,69,96,0
1,66,96,0
1,50,96,0
1,38,96,0
1,38,90,32
1,50,63,8
1,38,120,36
1,50,64,8
1,50,63,48
1,38,64,0
1,50,62,48
1,38,59,0
1,38,46,20
1,38,71,4
1,69,95,0
1,57,100,0
1,62,108,0
1,66,108,0
1,38,98,64
1,50,81,0
1,66,77,0
1,69,87,0
1,57,95,0
1,62,100,0
1,50,73,4
1,74,95,64
1,62,104,0
1,69,111,0
1,66,111,0
1,69,90,4
1,74,85,0
1,66,86,0
1,62,93,0
1,50,75,4
1,69,77,80
1,66,74,0
1,62,87,0
1,57,86,0
1,50,72,64
1,59,93,0
1,64,104,0
1,71,93,0
1,68,104,0
1,50,81,20
1,71,98,40
1,59,104,0
1,64,112,0
1,68,112,0
1,71,81,4
1,64,87,0
1,59,87,0
1,68,75,0
1,50,87,384
1,71,86,8
1,64,95,0
1,59,98,0
1,68,81,0
1,50,53,4
1,73,74,76
1,61,87,0
1,64,98,0
1,69,81,0
1,73,72,24
1,64,100,0
1,61,86,0
1,69,81,0
1,49,58,256
1,47,74,52
1,71,83,0
1,62,98,0
1,59,83,0
1,67,86,0
1,71,79,12
1,62,79,8
1,67,83,0
1,59,77,0
1,47,74,0
1,57,73,52
1,45,72,0
1,61,73,0
1,69,81,0
1,64,93,0
1,45,65,4
1,69,79,20
1,57,77,0
1,61,70,0
1,64,85,0
1,69,72,4
1,57,74,0
1,61,68,0
1,64,85,0
1,45,63,4
1,69,83,28
1,57,85,0
1,61,77,0
1,64,98,0
1,50,73,96
1,62,100,0
1,66,77,0
1,69,83,0
1,57,86,0
1,50,67,16
1,62,112,68
1,74,108,0
1,69,120,0
1,66,117,0
1,50,81,0
1,74,81,32
1,69,95,0
1,66,93,0
1,62,90,0
1,50,77,0
1,50,70,4
1,66,71,64
1,69,83,0
1,57,76,0
1,62,85,0
1,50,79,68
1,59,98,0
1,64,100,0
1,71,87,0
1,68,86,0
1,50,67,4
1,71,95,24
1,64,114,0
1,59,100,0
1,68,111,0
1,71,87,20
1,64,86,0
1,68,83,0
1,59,93,0
1,50,66,4
1,59,112,20
1,64,117,0
1,71,104,0
1,68,114,0
1,50,71,4
1,49,77,68
1,73,79,0
1,61,64,0
1,64,95,0
1,69,85,0
1,73,73,16
1,64,98,0
1,61,79,0
1,69,75,0
1,49,61,4
1,67,76,64
1,47,86,0
1,71,87,0
1,62,83,0
1,59,83,0
1,67,64,12
1,71,60,0
1,47,74,0
1,62,66,0
1,59,71,8
1,62,104,68
1,69,85,0
1,66,81,0
1,57,100,0
1,45,75,0
1,69,90,40
1,66,87,0
1,62,98,0
1,57,100,0
1,45,68,12
1,69,83,128
1,61,74,0
1,57,93,0
1,64,95,0
1,69,76,8
1,57,76,0
1,61,59,0
1,64,85,0
1,71,104,96
1,66,111,0
1,59,98,0
1,62,112,0
1,47,95,0
1,95,86,384
1,83,90,0
1,86,108,0
1,90,98,0
1,95,101,24
1,90,101,0
1,86,101,0
1,83,101,0
1,78,87,20
1,90,72,8
1,83,95,0
1,86,87,0
1,90,72,0
1,83,95,0
1,78,64,0
1,86,83,12
1,74,87,20
1,78,104,0
1,86,83,0
1,83,87,0
1,86,105,8
1,78,105,0
1,74,105,0
1,83,105,0
1,83,98,32
1,71,98,0
1,78,98,0
1,74,98,0
1,83,104,12
1,47,104,0
1,78,104,0
1,71,104,0
1,74,104,0
1,59,93,384
1,66,111,0
1,62,104,0
1,47,63,4
1,66,59,20
1,62,72,0
1,59,75,8
1,47,57,28
1,66,60,12
1,62,64,8
1,59,69,0
1,71,98,52
1,66,108,0
1,62,112,0
1,59,111,0
1,47,75,8
1,95,86,376
1,83,100,0
1,86,111,0
1,90,108,0
1,95,94,44
1,90,94,0
1,86,94,0
1,83,94,0
1,78,95,52
1,83,87,0
1,86,77,0
1,90,74,0
1,90,64,16
1,83,86,0
1,78,67,0
1,86,87,0
1,86,77,40
1,74,86,0
1,83,85,0
1,78,87,0
1,86,93,72
1,74,90,0
1,78,98,0
1,83,100,0
1,71,85,72
1,74,95,0
1,83,79,0
1,78,76,0
1,71,90,48
1,83,93,0
1,74,112,0
1,78,112,0
1,44,67,0
1,44,76,4
1,68,71,0
