track,note,velocity,time
0,43,80,331
0,50,108,0
0,55,108,0
0,59,100,0
0,62,96,0
0,79,88,0
0,83,104,0
0,86,100,0
0,55,118,0
0,59,127,0
0,62,122,0
0,59,0,115
0,55,0,2
0,59,0,1
0,55,0,0
0,50,0,11
0,83,0,0
0,62,0,2
0,79,0,4
0,43,0,4
0,62,0,2
0,40,88,3
0,47,96,0
0,55,86,0
0,59,104,0
0,64,96,0
0,79,86,0
0,83,104,0
0,88,92,0
0,55,110,0
0,59,114,0
0,64,118,0
0,86,0,2
0,88,0,184
0,64,0,13
0,64,0,1
0,83,0,0
0,79,0,7
0,59,0,5
0,55,0,1
0,55,0,3
0,59,0,0
0,47,0,3
0,40,0,1
0,40,92,20
0,47,84,0
0,52,86,0
0,55,92,0
0,59,88,0
0,76,104,0
0,79,86,0
0,83,108,0
0,55,118,0
0,59,127,0
0,40,0,112
0,55,0,1
0,52,0,0
0,47,0,1
0,79,0,13
0,59,0,2
0,76,0,3
0,55,0,2
0,83,0,3
0,59,0,4
0,35,86,3
0,47,88,0
0,54,100,0
0,57,84,0
0,62,104,0
0,78,108,0
0,81,96,0
0,86,100,0
0,54,127,0
0,59,114,0
0,62,122,0
0,78,0,161
0,81,0,5
0,86,0,22
0,35,0,11
0,62,0,1
0,54,0,2
0,54,0,0
0,62,0,2
0,59,0,3
0,47,0,2
0,57,0,4
0,43,78,27
0,43,96,0
0,55,100,0
0,59,92,0
0,62,88,0
0,79,84,0
0,83,100,0
0,86,92,0
0,55,118,0
0,59,127,0
0,62,118,0
0,42,75,0
0,35,75,0
0,35,0,3
0,42,0,0
0,42,32,45
0,42,0,3
0,42,61,45
0,40,75,0
0,40,0,3
0,42,0,0
0,43,0,5
0,79,0,17
0,83,0,1
0,86,0,2
0,55,0,0
0,62,0,4
0,62,0,1
0,55,0,2
0,59,0,0
0,59,0,4
0,43,0,6
0,45,78,3
0,45,96,0
0,57,104,0
0,61,88,0
0,64,104,0
0,81,86,0
0,85,112,0
0,88,88,0
0,57,102,0
0,61,127,0
0,64,127,0
0,42,30,0
0,42,0,3
0,42,75,45
0,35,75,0
0,35,0,3
0,42,0,0
0,42,35,45
0,42,0,3
0,42,56,45
0,40,75,0
0,40,0,3
0,42,0,0
0,45,0,36
0,33,42,9
0,45,51,0
0,52,64,0
0,46,44,0
0,46,0,3
0,45,0,1
0,52,0,14
0,57,0,3
0,45,0,0
0,33,0,12
0,33,66,15
0,45,72,0
0,52,74,0
0,57,70,0
0,42,75,0
0,35,75,0
0,35,0,3
0,42,0,0
0,57,0,19
0,45,0,0
0,52,0,1
0,33,0,18
0,33,72,7
0,45,66,0
0,52,62,0
0,57,60,0
0,42,37,0
0,42,0,3
0,45,0,16
0,52,0,2
0,57,0,0
0,33,0,1
0,33,76,26
0,45,78,0
0,52,74,0
0,57,74,0
0,42,59,0
0,40,75,0
0,40,0,3
0,42,0,0
0,57,0,20
0,52,0,1
0,45,0,2
0,33,0,14
0,33,72,8
0,45,86,0
0,52,80,0
0,57,76,0
0,42,35,0
0,42,0,3
0,45,0,22
0,52,0,1
0,57,0,1
0,33,0,1
0,33,82,20
0,45,96,0
0,52,82,0
0,57,82,0
0,42,75,0
0,35,75,0
0,35,0,3
0,42,0,0
0,52,0,19
0,57,0,5
0,45,0,1
0,33,0,1
0,33,68,19
0,45,88,0
0,52,84,0
0,57,84,0
0,42,40,0
0,42,0,3
0,52,0,24
0,33,0,5
0,45,0,3
0,57,0,5
0,64,0,0
0,61,0,2
0,81,0,3
0,88,0,1
0,85,0,0
0,33,70,2
0,42,61,0
0,40,75,0
0,40,0,3
0,42,0,0
0,61,0,29
0,64,0,1
0,57,0,3
0,33,0,12
0,43,68,0
0,46,44,0
0,46,0,3
0,43,0,20
0,45,70,1
0,45,0,20
0,62,97,0
0,38,82,0
0,54,78,0
0,57,88,0
0,62,96,0
0,57,114,0
0,62,110,0
0,66,127,0
0,66,57,0
0,69,75,0
0,74,75,0
0,42,75,0
0,35,75,0
0,35,0,3
0,42,0,0
0,66,0,11
0,69,0,1
0,74,0,4
0,66,67,29
0,69,71,0
0,74,61,0
0,42,29,0
0,42,0,3
0,69,0,10
0,66,0,2
0,74,0,2
0,66,63,31
0,69,79,0
0,74,69,0
0,42,52,0
0,40,75,0
0,40,0,3
0,42,0,0
0,66,0,13
0,69,0,1
0,38,0,2
0,74,0,0
0,54,0,4
0,57,0,11
0,62,0,1
0,57,0,4
0,66,0,1
0,64,97,0
0,40,76,0
0,55,84,0
0,59,82,0
0,64,88,0
0,59,118,0
0,64,118,0
0,67,118,0
0,67,83,0
0,71,91,0
0,74,87,0
0,46,36,0
0,62,0,1
0,46,0,2
0,62,0,5
0,67,0,9
0,71,0,1
0,74,0,1
0,67,59,29
0,71,71,0
0,74,75,0
0,42,75,0
0,35,75,0
0,35,0,3
0,42,0,0
0,67,0,11
0,71,0,3
0,74,0,2
0,67,79,29
0,71,83,0
0,74,79,0
0,42,34,0
0,42,0,3
0,74,0,13
0,71,0,0
0,67,0,0
0,67,81,32
0,71,81,0
0,74,71,0
0,42,56,0
0,40,75,0
0,40,0,3
0,42,0,0
0,74,0,11
0,71,0,0
0,67,0,1
0,67,79,33
0,71,83,0
0,74,77,0
0,46,40,0
0,46,0,3
0,64,0,2
0,40,0,4
0,71,0,3
0,74,0,1
0,67,0,0
0,55,0,2
0,59,0,0
0,67,0,0
0,59,0,1
0,64,0,1
0,64,0,6
0,59,88,0
0,47,74,0
0,50,88,0
0,55,84,0
0,59,86,0
0,59,106,0
0,64,127,0
0,67,122,0
0,67,83,0
0,71,91,0
0,74,91,0
0,42,75,0
0,35,75,0
0,35,0,3
0,42,0,0
0,71,0,0
0,67,0,0
0,74,0,2
0,47,0,21
0,50,64,3
0,67,79,0
0,71,77,0
0,74,75,0
0,42,39,0
0,42,0,3
0,74,0,13
0,71,0,0
0,67,0,0
0,50,0,19
0,52,86,13
0,67,73,0
0,71,69,0
0,74,65,0
0,42,56,0
0,40,75,0
0,40,0,3
0,42,0,0
0,55,0,12
0,52,0,1
0,67,0,2
0,74,0,1
0,71,0,0
0,59,0,8
0,50,0,4
0,59,0,4
0,59,0,1
0,67,0,0
0,64,0,0
0,62,88,0
0,47,78,0
0,50,80,0
0,54,86,0
0,59,82,0
0,62,78,0
0,57,110,0
0,62,110,0
0,66,106,0
0,66,71,0
0,69,79,0
0,71,75,0
0,74,65,0
0,46,40,0
0,46,0,3
0,66,0,12
0,69,0,0
0,71,0,0
0,74,0,0
0,66,52,20
0,69,77,0
0,71,69,0
0,74,63,0
0,42,75,0
0,35,75,0
0,35,0,3
0,42,0,0
0,66,0,12
0,69,0,1
0,71,0,2
0,74,0,4
0,66,55,26
0,69,71,0
0,71,63,0
0,74,63,0
0,42,40,0
0,42,0,3
0,69,0,11
0,66,0,1
0,71,0,0
0,74,0,5
0,66,63,28
0,69,81,0
0,71,73,0
0,74,69,0
0,42,56,0
0,40,75,0
0,40,0,3
0,42,0,0
0,47,0,6
0,69,0,6
0,66,0,1
0,71,0,0
0,74,0,4
0,33,52,28
0,66,59,0
0,69,79,0
0,71,71,0
0,74,63,0
0,46,37,0
0,62,0,3
0,46,0,0
0,50,0,5
0,54,0,4
0,69,0,1
0,66,0,0
0,62,0,2
0,71,0,0
0,59,0,3
0,66,0,1
0,57,0,0
0,74,0,0
0,62,0,4
0,33,0,1
0,34,72,0
0,34,0,21
0,62,107,0
0,35,78,0
0,50,84,0
0,54,82,0
0,59,88,0
0,62,72,0
0,57,110,0
0,62,118,0
0,66,127,0
0,66,71,0
0,69,77,0
0,71,73,0
0,74,71,0
0,42,75,0
0,35,75,0
0,35,0,3
0,42,0,0
0,66,0,12
0,69,0,1
0,71,0,3
0,74,0,2
0,66,59,27
0,69,77,0
0,71,65,0
0,74,59,0
0,42,40,0
0,42,0,3
0,66,0,9
0,69,0,2
0,71,0,3
0,74,0,1
0,66,65,30
0,69,81,0
0,71,71,0
0,74,67,0
0,42,51,0
0,40,75,0
0,40,0,3
0,42,0,0
0,71,0,8
0,35,0,1
0,69,0,1
0,66,0,1
0,62,0,5
0,74,0,1
0,54,0,1
0,50,0,2
0,62,0,6
0,57,0,0
0,66,0,5
0,62,0,0
0,64,88,0
0,40,76,0
0,52,88,0
0,57,86,0
0,61,74,0
0,64,82,0
0,57,98,0
0,61,122,0
0,64,122,0
0,66,87,0
0,69,91,0
0,73,83,0
0,76,103,0
0,46,40,0
0,46,0,3
0,59,0,3
0,66,0,7
0,73,0,1
0,69,0,2
0,76,0,1
0,66,59,31
0,69,79,0
0,73,57,0
0,76,69,0
0,42,75,0
0,35,75,0
0,35,0,3
0,42,0,0
0,66,0,8
0,69,0,4
0,73,0,0
0,76,0,3
0,40,0,28
0,42,62,2
0,66,71,0
0,69,81,0
0,73,59,0
0,76,73,0
0,42,42,0
0,42,0,3
0,69,0,12
0,66,0,1
0,76,0,0
0,73,0,1
0,66,73,31
0,69,83,0
0,73,71,0
0,76,77,0
0,42,59,0
0,40,75,0
0,40,0,3
0,42,0,0
0,66,0,11
0,69,0,1
0,76,0,2
0,73,0,1
0,66,69,30
0,69,79,0
0,73,63,0
0,76,73,0
0,46,51,0
0,46,0,3
0,76,0,10
0,69,0,0
0,73,0,2
0,66,0,0
0,66,79,33
0,69,95,0
0,73,77,0
0,76,95,0
0,42,75,0
0,35,75,0
0,35,0,3
0,42,0,0
0,73,0,10
0,69,0,0
0,66,0,1
0,76,0,3
0,66,75,31
0,69,79,0
0,73,65,0
0,76,73,0
0,42,46,0
0,42,0,3
0,69,0,8
0,66,0,1
0,73,0,1
0,76,0,1
0,42,0,30
0,44,52,4
0,66,79,0
0,69,95,0
0,73,81,0
0,76,99,0
0,42,75,0
0,40,75,0
0,40,0,3
0,42,0,0
0,69,0,10
0,66,0,1
0,76,0,2
0,73,0,1
0,44,0,31
0,42,64,0
0,66,67,0
0,69,81,0
0,73,52,0
0,76,77,0
0,42,32,0
0,42,0,3
0,76,0,12
0,66,0,0
0,69,0,0
0,73,0,0
0,61,0,24
0,64,0,1
0,57,0,1
0,42,0,7
0,40,76,0
0,66,91,0
0,69,99,0
0,73,87,0
0,76,95,0
0,42,75,0
0,35,75,0
0,35,0,3
0,42,0,0
0,69,0,10
0,66,0,0
0,73,0,5
0,76,0,0
0,40,0,30
0,42,64,0
0,66,63,0
0,69,79,0
0,73,69,0
0,76,79,0
0,42,35,0
0,42,0,3
0,66,0,9
0,76,0,1
0,69,0,2
0,42,0,1
0,73,0,1
0,64,0,30
0,42,70,1
0,66,77,0
0,69,83,0
0,73,71,0
0,76,91,0
0,42,52,0
0,40,75,0
0,40,0,3
0,42,0,0
0,66,0,9
0,61,0,2
0,69,0,0
0,52,0,2
0,57,0,0
0,64,0,0
0,73,0,2
0,76,0,1
0,42,0,14
0,66,61,15
0,69,79,0
0,73,71,0
0,76,77,0
0,46,32,0
0,46,0,3
0,76,0,11
0,66,0,0
0,69,0,1
0,73,0,7
0,62,102,0
0,38,72,0
0,54,88,0
0,57,86,0
0,62,92,0
0,57,96,0
0,62,127,0
0,66,122,0
0,66,73,0
0,69,87,0
0,74,77,0
0,42,75,0
0,35,75,0
0,35,0,3
0,42,0,0
0,69,0,12
0,66,0,0
0,74,0,8
0,66,53,25
0,69,75,0
0,74,67,0
0,42,29,0
0,42,0,3
0,66,0,8
0,74,0,8
0,69,0,0
0,66,46,29
0,69,79,0
0,74,65,0
0,42,52,0
0,40,75,0
0,40,0,3
0,42,0,0
0,38,0,8
0,66,0,4
0,69,0,1
0,62,0,1
0,54,0,3
0,57,0,2
0,74,0,1
0,66,0,10
0,57,0,0
0,62,0,8
0,62,0,6
0,64,88,0
0,40,78,0
0,52,86,0
0,55,80,0
0,59,86,0
0,64,88,0
0,59,106,0
0,64,122,0
0,67,127,0
0,67,83,0
0,71,83,0
0,74,73,0
0,76,87,0
0,46,45,0
0,46,0,3
0,76,0,13
0,71,0,1
0,67,0,1
0,74,0,3
0,67,61,27
0,71,63,0
0,74,53,0
0,76,51,0
0,42,75,0
0,35,75,0
0,35,0,3
0,42,0,0
0,71,0,12
0,67,0,3
0,76,0,1
0,74,0,1
0,67,73,28
0,71,63,0
0,74,61,0
0,76,75,0
0,42,34,0
0,42,0,3
0,71,0,14
0,67,0,1
0,76,0,1
0,74,0,3
0,67,73,26
0,71,71,0
0,74,69,0
0,76,79,0
0,42,56,0
0,40,75,0
0,40,0,3
0,42,0,0
0,71,0,12
0,67,0,0
0,76,0,4
0,74,0,3
0,40,0,26
0,67,71,0
0,71,63,0
0,74,67,0
0,76,91,0
0,46,40,0
0,46,0,3
0,64,0,1
0,67,0,5
0,64,0,3
0,52,0,3
0,71,0,0
0,67,0,0
0,59,0,2
0,55,0,0
0,76,0,1
0,74,0,2
0,59,0,4
0,64,0,16
0,59,97,0
0,50,68,0
0,50,84,0
0,52,96,0
0,55,92,0
0,59,100,0
0,59,102,0
0,62,127,0
0,67,122,0
0,67,83,0
0,71,103,0
0,74,99,0
0,42,75,0
0,35,75,0
0,35,0,3
0,42,0,0
0,67,0,11
0,71,0,4
0,74,0,3
0,50,0,26
0,52,74,1
0,67,63,0
0,71,51,0
0,74,71,0
0,42,39,0
0,42,0,3
0,67,0,10
0,71,0,1
0,74,0,6
0,52,0,24
0,67,73,4
0,71,67,0
0,74,65,0
0,42,56,0
0,40,75,0
0,40,0,3
0,42,0,0
0,67,0,11
0,71,0,4
0,62,0,2
0,74,0,0
0,52,0,6
0,50,0,1
0,55,0,2
0,59,0,0
0,59,0,12
0,59,0,6
0,62,88,0
0,45,70,0
0,50,80,0
0,54,84,0
0,59,84,0
0,62,84,0
0,57,106,0
0,62,106,0
0,66,122,0
0,66,79,0
0,69,81,0
0,71,75,0
0,74,73,0
0,46,40,0
0,67,0,1
0,46,0,2
0,66,0,12
0,69,0,3
0,71,0,3
0,74,0,1
0,45,0,26
0,47,74,0
0,66,54,0
0,69,75,0
0,71,65,0
0,74,63,0
0,42,75,0
0,35,75,0
0,35,0,3
0,42,0,0
0,69,0,12
0,66,0,1
0,71,0,5
0,74,0,1
0,47,0,14
0,50,68,12
0,66,53,0
0,69,69,0
0,71,61,0
0,74,63,0
0,42,40,0
0,42,0,3
0,69,0,10
0,66,0,3
0,74,0,5
0,71,0,1
0,50,0,1
0,47,66,25
0,66,51,0
0,69,71,0
0,71,67,0
0,74,65,0
0,42,56,0
0,40,75,0
0,40,0,3
0,42,0,0
0,69,0,11
0,66,0,1
0,71,0,2
0,74,0,3
0,66,59,0
0,69,79,0
0,71,61,0
0,74,61,0
0,46,37,0
0,46,0,0
0,66,0,0
0,62,0,0
0,50,0,0
0,54,0,0
0,69,0,0
0,66,0,0
0,71,0,0
0,62,0,0
0,74,0,0
0,57,0,0
0,62,0,1
0,59,0,0
0,47,0,2
0,62,97,0
0,35,74,0
0,54,86,0
0,57,86,0
0,59,84,0
0,62,64,0
0,57,110,0
0,62,118,0
0,66,127,0
0,66,69,0
0,69,81,0
0,71,59,0
0,74,67,0
0,42,75,0
0,35,75,0
0,35,0,3
0,42,0,0
0,69,0,12
0,66,0,0
0,71,0,5
0,74,0,1
0,66,54,27
0,69,77,0
0,71,63,0
0,74,67,0
0,42,40,0
0,42,0,3
0,66,0,11
0,69,0,1
0,74,0,5
0,71,0,1
0,66,67,27
0,69,81,0
0,71,75,0
0,74,73,0
0,42,51,0
0,40,75,0
0,40,0,3
0,42,0,0
0,59,0,3
0,71,0,5
0,69,0,1
0,66,0,2
0,62,0,1
0,35,0,2
0,54,0,0
0,57,0,3
0,62,0,1
0,57,0,1
0,74,0,1
0,66,0,4
0,62,0,15
0,64,80,0
0,42,74,0
0,52,88,0
0,57,92,0
0,61,66,0
0,64,82,0
0,57,96,0
0,61,127,0
0,64,127,0
0,66,79,0
0,69,81,0
0,73,71,0
0,76,95,0
0,42,34,0
0,42,0,3
0,66,0,13
