track,note,velocity,time
0,42,65,920
0,42,65,372
0,42,65,372
0,42,65,372
0,64,104,372
0,69,108,0
0,72,104,0
0,76,108,0
0,88,88,0
0,64,96,96
0,69,100,0
0,72,84,0
0,76,78,0
0,88,72,0
0,64,84,96
0,69,88,0
0,72,78,0
0,76,92,0
0,88,84,0
0,64,100,96
0,69,100,0
0,72,82,0
0,76,88,0
0,88,88,0
0,64,96,96
0,69,100,0
0,72,88,0
0,76,104,0
0,88,88,0
0,64,88,96
0,69,92,0
0,72,78,0
0,76,104,0
0,88,88,0
0,64,108,20
0,76,66,0
0,69,108,0
0,81,62,0
0,72,96,0
0,84,62,0
0,76,104,0
0,88,80,0
0,65,104,0
0,69,86,0
0,72,84,0
0,75,65,0
0,87,68,0
0,65,59,96
0,69,88,0
0,72,80,0
0,75,82,0
0,87,88,0
0,65,96,96
0,69,100,0
0,72,84,0
0,75,82,0
0,87,88,0
0,65,92,96
0,69,100,0
0,72,80,0
0,75,82,0
0,87,76,0
0,65,100,96
0,69,108,0
0,72,84,0
0,75,80,0
0,87,64,0
0,65,78,96
0,69,100,0
0,72,78,0
0,75,74,0
0,87,80,0
0,65,104,20
0,77,64,0
0,69,82,0
0,81,64,0
0,72,74,0
0,84,62,0
0,75,92,0
0,87,76,0
0,50,86,0
0,65,92,0
0,69,92,0
0,74,88,0
0,86,88,0
0,72,104,16
0,84,84,0
0,69,72,28
0,81,62,0
0,52,74,24
0,62,82,0
0,68,104,0
0,72,104,0
0,84,84,0
0,52,58,32
0,62,86,0
0,68,112,0
0,72,112,0
0,84,84,0
0,60,112,32
0,64,96,0
0,69,100,0
0,81,80,0
0,45,96,260
0,52,100,48
0,57,82,48
0,48,88,16
0,52,86,36
0,57,76,32
0,60,100,12
0,64,88,48
0,69,112,48
0,93,92,0
0,33,56,544
0,57,74,0
0,35,61,0
0,81,55,0
0,59,72,0
0,83,53,0
0,45,58,0
0,60,66,0
0,84,52,0
0,64,96,0
0,88,51,0
0,33,56,96
0,57,84,0
0,35,61,0
0,81,50,0
0,59,88,0
0,83,48,0
0,45,54,0
0,60,82,0
0,84,47,0
0,64,112,0
0,88,46,0
0,33,60,96
0,57,108,0
0,35,62,0
0,81,44,0
0,59,104,0
0,83,43,0
0,45,54,0
0,60,100,0
0,84,42,0
0,64,108,0
0,88,40,0
0,33,62,96
0,57,100,0
0,35,63,0
0,81,39,0
0,59,112,0
0,83,38,0
0,45,58,0
0,60,104,0
0,84,37,0
0,64,117,0
0,88,35,0
0,33,60,0
0,57,100,0
0,35,63,0
0,81,34,0
0,59,100,0
0,83,33,0
0,45,54,0
0,60,86,0
0,84,31,0
0,64,92,0
0,88,30,0
0,33,60,96
0,57,84,0
0,35,64,0
0,81,29,0
0,59,74,0
0,83,27,0
0,45,50,0
0,60,70,0
0,84,26,0
0,64,86,0
0,88,25,0
0,33,62,96
0,57,74,0
0,35,65,0
0,81,24,0
0,59,74,0
0,83,22,0
0,45,54,0
0,60,60,0
0,84,21,0
0,64,72,0
0,88,20,0
0,33,58,96
0,57,56,0
0,35,65,0
0,81,18,0
0,59,64,0
0,83,17,0
0,45,60,0
0,57,60,0
0,60,78,0
0,64,72,0
0,64,73,0
0,60,66,0
0,84,16,0
0,64,78,0
0,88,14,0
0,33,60,0
0,57,76,0
0,60,82,0
0,64,78,0
0,64,99,0
0,35,66,0
0,81,13,0
0,83,12,0
0,45,62,0
0,57,76,0
0,60,66,0
0,65,86,0
0,65,71,0
0,84,11,0
0,33,56,96
0,57,84,0
0,60,84,0
0,65,86,0
0,65,79,0
0,35,63,0
0,45,62,0
0,57,58,0
0,60,66,0
0,64,78,0
0,64,67,0
0,33,58,132
0,57,74,0
0,60,78,0
0,64,78,0
0,64,75,0
0,35,66,0
0,45,56,0
0,57,62,0
0,60,76,0
0,65,96,0
0,65,61,0
0,33,54,136
0,57,86,0
0,60,88,0
0,65,86,0
0,65,77,0
0,35,69,0
0,45,64,0
0,57,78,0
0,64,84,0
0,64,65,0
0,32,66,116
0,56,88,0
0,59,92,0
0,64,86,0
0,64,75,0
0,35,71,0
0,44,62,0
0,56,59,0
0,59,82,0
0,65,86,0
0,65,69,0
0,32,54,120
0,56,84,0
0,59,88,0
0,65,82,0
0,65,79,0
0,35,74,0
0,44,64,0
0,56,70,0
0,64,88,0
0,64,59,0
0,32,64,96
0,56,84,0
0,64,88,0
0,64,77,0
0,35,77,0
0,44,64,0
0,59,64,0
0,64,84,0
0,69,96,0
0,69,67,0
0,32,62,108
0,59,100,0
0,64,84,0
0,69,100,0
0,69,79,0
0,35,80,0
0,44,62,0
0,59,80,0
0,64,68,0
0,68,76,0
0,68,69,0
0,28,60,8
0,40,101,0
0,52,85,0
0,35,82,0
0,28,54,88
0,38,76,100
0,40,89,0
0,52,101,0
0,40,85,0
0,28,56,4
0,64,86,0
0,38,66,96
0,64,88,0
0,68,88,0
0,71,92,0
0,74,84,0
0,74,77,0
0,65,84,0
0,35,85,0
0,71,40,0
0,74,37,0
0,40,81,4
0,52,77,0
0,64,104,0
0,68,108,0
0,71,112,0
0,74,92,0
0,74,87,0
0,65,88,0
0,71,52,0
0,74,42,0
0,40,72,16
0,40,85,0
0,28,48,4
0,45,84,0
0,64,84,0
0,69,96,0
0,72,100,0
0,74,91,0
0,65,80,0
0,46,55,0
0,72,40,0
0,69,46,0
0,33,62,4
0,72,79,0
0,64,64,0
0,57,80,0
0,35,85,0
0,42,65,0
0,81,34,0
0,59,88,0
0,83,33,0
0,45,69,0
0,60,88,0
0,84,31,0
0,64,108,0
0,88,30,0
0,33,62,52
0,57,108,0
0,40,85,0
0,81,29,0
0,59,117,0
0,83,27,0
0,45,68,0
0,60,100,0
0,84,26,0
0,64,108,0
0,88,25,0
0,33,62,96
0,57,96,0
0,35,85,0
0,81,24,0
0,59,104,0
0,83,22,0
0,45,66,0
0,60,86,0
0,35,68,0
0,84,21,0
0,64,96,0
0,88,20,0
0,33,54,72
0,57,78,0
0,40,85,0
0,81,18,0
0,59,78,0
0,83,17,0
0,45,56,0
0,57,92,0
0,60,84,0
0,64,84,0
0,64,81,0
0,60,72,0
0,84,16,0
0,64,78,0
0,88,14,0
0,33,58,0
0,57,86,0
0,60,84,0
0,64,92,0
0,64,79,0
0,57,64,0
0,35,66,0
0,81,13,0
0,45,62,0
0,57,74,0
0,60,78,0
0,65,96,0
0,65,65,0
0,33,54,92
0,57,88,0
0,60,86,0
0,65,96,0
0,65,95,0
0,35,63,0
0,45,64,0
0,60,60,0
0,64,84,0
0,64,71,0
0,33,56,120
0,57,86,0
0,60,86,0
0,64,88,0
0,64,91,0
0,35,66,0
0,45,56,0
0,57,78,0
0,60,86,0
0,65,86,0
0,65,77,0
0,33,56,120
0,57,88,0
0,60,96,0
0,65,104,0
0,65,81,0
0,35,69,0
0,45,64,0
0,64,86,0
0,64,77,0
0,32,66,120
0,56,104,0
0,59,88,0
0,64,86,0
0,64,83,0
0,35,71,0
0,44,60,0
0,56,56,0
0,65,88,0
0,65,77,0
0,32,66,120
0,56,92,0
0,59,86,0
0,65,96,0
0,65,95,0
0,35,74,0
0,44,60,0
0,64,88,0
0,64,81,0
0,32,64,96
0,59,92,0
0,64,100,0
0,64,79,0
0,35,77,0
0,44,48,0
0,59,55,0
0,64,59,0
0,69,100,0
0,69,83,0
0,32,68,120
0,59,104,0
0,64,92,0
0,69,96,0
0,69,91,0
0,35,80,0
0,44,66,0
0,59,56,0
0,68,86,0
0,68,87,0
0,28,62,84
0,40,108,0
0,35,82,0
0,28,56,24
0,52,100,0
0,38,64,100
0,40,108,0
0,40,85,0
0,28,62,12
0,52,108,0
0,38,66,80
0,40,108,0
0,64,80,0
0,68,86,0
0,71,100,0
0,74,96,0
0,77,95,0
0,68,88,0
0,35,85,0
0,71,60,0
0,74,40,0
0,52,117,48
0,64,100,0
0,68,104,0
0,71,117,0
0,74,92,0
0,77,103,0
0,68,88,0
0,74,40,0
0,71,58,0
0,40,64,8
0,40,104,0
0,40,85,0
0,28,52,20
0,52,122,0
0,64,88,0
0,69,104,0
0,72,108,0
0,77,103,0
0,71,84,0
0,46,55,0
0,72,40,0
0,69,36,0
0,33,60,4
0,45,100,0
0,76,71,0
0,69,88,0
0,57,108,0
0,35,85,0
0,42,65,0
0,81,34,0
0,59,86,0
0,83,33,0
0,45,66,0
0,57,92,0
0,60,86,0
0,84,31,0
0,64,112,0
0,88,30,0
0,33,52,8
0,45,104,0
0,57,108,0
0,40,85,0
0,81,29,0
0,59,100,0
0,83,27,0
0,45,36,0
0,57,104,0
0,60,96,0
0,84,26,0
0,64,108,0
0,88,25,0
0,33,56,96
0,45,104,0
0,57,84,0
0,35,85,0
0,81,24,0
0,59,100,0
0,83,22,0
0,45,62,0
0,57,108,0
0,60,84,0
0,35,68,0
0,84,21,0
0,64,100,0
0,88,20,0
0,33,46,16
0,45,100,0
0,57,82,0
0,40,85,0
0,81,18,0
0,59,84,0
0,83,17,0
0,45,64,0
0,57,108,0
0,60,78,0
0,46,55,0
0,84,16,0
0,64,84,0
0,88,14,0
0,33,56,0
0,33,68,0
0,71,92,0
0,74,92,0
0,74,87,0
0,57,80,0
0,35,85,0
0,42,65,0
0,81,13,0
0,45,60,0
0,45,112,0
0,71,117,0
0,74,104,0
0,74,87,0
0,33,60,4
0,33,96,0
0,40,85,0
0,45,66,0
0,45,112,0
0,64,86,0
0,69,92,0
0,72,92,0
0,72,103,0
0,33,60,4
0,33,108,0
0,35,85,0
0,45,62,0
0,45,108,0
0,33,58,4
0,33,108,0
0,40,85,0
0,45,56,0
0,45,108,0
0,64,84,0
0,69,86,0
0,72,86,0
0,72,103,0
0,33,60,12
0,33,104,0
0,64,84,0
0,68,92,0
0,71,100,0
0,71,81,0
0,35,85,0
0,45,62,0
0,45,122,0
0,64,92,0
0,68,117,0
0,71,112,0
0,71,91,0
0,33,52,8
0,33,108,0
0,40,85,0
0,45,64,0
0,45,112,0
0,64,104,0
0,69,108,0
0,72,104,0
0,72,87,0
0,71,81,0
0,33,62,12
0,33,108,0
0,69,81,0
0,57,107,0
0,35,85,0
0,45,62,0
0,45,117,0
0,35,62,0
0,31,62,12
0,31,86,0
0,55,88,0
0,40,85,0
0,43,62,0
0,43,112,0
0,46,55,0
0,29,52,20
0,29,108,0
0,53,88,0
0,35,85,0
0,42,65,0
0,41,64,0
0,41,117,0
0,65,100,0
0,70,112,0
0,74,104,0
0,74,87,0
0,29,66,100
0,29,100,0
0,65,104,0
0,70,117,0
0,74,112,0
0,74,103,0
0,40,85,0
0,41,64,0
0,41,112,0
0,29,54,12
0,29,96,0
0,65,96,0
0,69,104,0
0,72,104,0
0,72,99,0
0,35,85,0
0,41,62,0
0,41,104,0
0,65,100,0
0,69,117,0
0,72,117,0
0,72,107,0
0,29,56,44
0,29,100,0
0,40,85,0
0,41,62,0
0,41,88,0
0,65,74,0
0,69,80,0
0,72,88,0
0,72,103,0
0,35,55,0
0,29,104,32
0,29,66,8
0,65,86,0
0,69,100,0
0,71,104,0
0,71,87,0
0,35,85,0
0,41,66,0
0,41,104,0
0,65,96,0
0,69,112,0
0,71,108,0
0,71,99,0
0,29,68,16
0,29,100,0
0,40,85,0
0,41,66,0
0,41,112,0
0,65,88,0
0,69,100,0
0,72,104,0
0,72,87,0
0,71,107,0
0,29,66,8
0,29,108,0
0,69,91,0
0,53,97,0
0,35,85,0
0,65,80,0
0,41,64,0
0,41,108,0
0,35,55,0
0,28,54,4
0,40,88,0
0,52,84,0
0,40,85,0
0,64,68,0
0,40,66,16
0,52,104,0
0,69,77,0
0,38,72,0
0,38,100,0
0,60,82,0
0,65,51,0
0,69,82,0
0,69,103,0
0,50,68,0
0,35,85,0
0,62,54,0
0,50,62,0
0,50,104,0
0,71,91,0
0,38,56,16
0,38,104,0
0,71,99,0
0,40,85,0
0,50,56,0
0,50,122,0
0,69,95,0
0,38,60,8
0,38,108,0
0,69,99,0
0,35,85,0
0,50,64,0
0,50,86,0
0,71,79,0
0,71,95,36
0,38,62,8
0,38,100,0
0,40,85,0
0,50,64,0
0,50,96,0
0,69,79,0
0,39,66,0
0,39,84,0
0,54,76,0
0,57,84,0
0,60,88,0
0,69,91,0
0,51,62,0
0,35,85,0
0,63,46,0
0,51,62,0
0,51,72,0
0,71,79,0
0,71,91,16
0,39,68,8
0,39,92,0
0,40,85,0
0,51,56,0
0,51,86,0
0,69,79,0
0,39,66,0
0,39,86,0
0,69,99,0
0,35,85,0
0,51,52,0
0,51,100,0
0,72,83,0
0,39,64,0
0,39,82,0
0,72,87,0
0,40,85,0
0,51,54,0
0,51,84,0
0,71,73,0
0,64,48,0
0,40,86,16
0,52,74,4
0,56,72,0
0,59,70,8
0,64,80,0
0,40,88,0
0,47,100,16
0,50,96,20
0,52,82,8
0,56,80,0
0,59,78,8
0,64,80,8
0,56,76,0
0,59,82,4
0,62,86,12
0,64,84,4
0,68,82,0
0,71,74,4
0,76,92,8
0,47,68,36
0,59,68,20
0,48,82,28
0,60,82,24
0,50,43,16
0,62,96,0
0,52,108,8
0,64,104,0
0,53,96,56
0,65,108,0
0,50,88,116
0,62,108,0
0,52,88,128
0,64,100,0
0,48,88,60
0,60,112,0
0,50,51,80
0,62,96,0
0,47,86,48
0,59,100,0
0,40,66,100
0,52,104,0
0,64,108,0
0,64,68,0
0,41,66,0
0,53,104,0
0,65,104,0
0,65,88,0
0,38,76,120
0,50,108,0
0,62,122,0
0,62,84,0
0,40,62,0
0,52,92,0
0,64,92,0
0,64,76,0
0,36,64,124
0,48,108,0
0,60,112,0
0,60,68,0
0,38,64,0
0,50,96,0
0,62,96,0
0,62,66,0
0,35,66,88
0,47,104,0
0,59,108,0
0,59,76,0
0,36,60,0
0,48,86,0
0,60,108,0
0,60,76,0
0,40,122,0
0,33,58,12
0,57,92,0
0,60,104,0
0,64,100,0
0,69,99,0
0,69,84,0
0,81,80,0
0,72,97,0
0,69,88,0
0,45,108,0
0,69,86,0
0,81,88,0
0,35,85,0
0,54,35,0
0,81,56,0
0,54,21,0
0,35,46,8
0,57,78,0
0,60,68,0
0,64,51,0
0,71,81,0
0,83,66,0
0,71,88,0
0,74,76,0
0,71,86,0
0,83,96,0
0,54,37,0
0,83,48,0
0,54,26,0
0,36,52,4
0,57,100,0
0,60,92,0
0,64,88,0
0,72,95,0
0,84,68,0
0,76,76,0
0,72,80,0
0,72,74,0
0,84,92,0
0,35,85,0
0,42,45,0
0,54,56,0
0,84,58,0
0,54,21,0
0,33,54,4
0,57,74,0
0,60,62,0
0,64,58,0
0,69,91,0
0,81,68,0
0,69,62,0
0,72,72,0
0,69,78,0
0,79,70,0
0,81,86,0
0,54,35,0
0,81,56,0
0,54,21,0
0,35,64,4
0,57,86,0
0,60,88,0
0,64,88,0
0,71,87,0
0,83,80,0
0,74,80,0
0,71,88,0
0,71,88,0
0,83,104,0
0,35,85,0
0,54,35,0
0,83,52,0
0,54,21,0
0,36,42,4
0,57,86,0
0,60,84,0
0,64,78,0
0,72,87,0
0,84,76,0
0,76,84,0
0,72,97,0
0,72,96,0
0,84,96,0
0,54,37,0
0,84,46,0
0,54,26,0
0,57,88,20
0,60,88,0
0,64,88,0
0,64,76,0
0,35,85,0
0,42,65,0
0,54,56,0
0,54,21,48
0,59,100,84
0,63,112,0
0,66,112,0
0,63,84,0
0,54,35,0
0,54,21,48
0,59,66,84
0,63,64,0
0,66,49,0
0,35,85,0
0,54,35,0
0,54,21,48
0,59,74,8
0,63,66,0
0,66,66,0
0,54,37,0
0,54,26,28
0,35,72,12
0,59,88,0
0,63,117,0
0,66,108,0
0,71,95,0
0,83,88,0
0,74,80,0
0,71,72,0
0,71,104,0
0,83,112,0
0,35,85,0
0,42,65,0
0,54,56,0
0,83,66,0
0,54,21,0
0,33,50,4
0,59,68,0
0,63,112,0
0,66,104,0
0,69,77,0
0,81,68,0
0,69,68,0
0,72,84,0
