track,note,velocity,time
1,72,84,3455
1,84,79,120
1,79,73,22
1,81,68,128
1,76,69,10
1,72,79,512
1,74,68,121
1,76,76,122
1,67,84,97
1,69,64,0
1,72,76,128
1,76,67,114
1,72,76,20
1,74,64,128
1,76,67,5
1,69,79,8
1,70,84,384
1,71,79,9
1,72,66,2
1,69,71,0
1,74,76,7
1,71,79,0
1,69,71,12
1,72,79,0
1,77,76,47
1,79,68,0
1,81,82,128
1,76,79,50
1,77,79,256
1,79,79,3
1,74,76,35
1,76,79,1
1,77,82,6
1,72,79,20
1,76,68,256
1,77,82,27
1,33,87,11
1,45,87,0
1,64,95,0
1,60,95,0
1,57,91,0
1,64,73,3
1,57,69,0
1,60,76,0
1,33,84,64
1,45,79,64
1,59,99,60
1,64,84,0
1,57,91,0
1,33,71,51
1,45,82,21
1,57,73,3
1,59,82,0
1,64,84,0
1,45,64,48
1,33,87,0
1,64,82,28
1,62,87,0
1,57,84,0
1,33,47,39
1,45,64,64
1,64,84,10
1,62,84,0
1,57,84,0
1,33,82,32
1,45,79,64
1,64,84,50
1,60,95,0
1,57,91,0
1,45,71,70
1,33,63,0
1,64,84,34
1,60,91,0
1,57,82,0
1,45,73,11
1,33,66,0
1,62,95,47
1,59,99,0
1,55,99,0
1,31,91,0
1,43,95,0
1,62,82,6
1,55,84,0
1,59,84,0
1,43,63,64
1,31,79,0
1,57,95,67
1,62,87,0
1,55,87,0
1,31,79,39
1,43,79,64
1,62,82,0
1,55,84,0
1,57,91,0
1,31,79,57
1,43,84,64
1,62,87,49
1,59,95,0
1,55,87,0
1,31,73,133
1,43,87,64
1,55,61,17
1,67,95,26
1,55,73,0
1,43,82,1
1,31,64,0
1,55,87,27
1,67,87,0
1,55,99,46
1,67,87,0
1,60,82,31
1,64,82,0
1,55,87,0
1,36,82,0
1,48,84,0
1,55,73,21
1,36,71,14
1,48,84,4
1,64,87,64
1,60,91,0
1,55,87,0
1,36,64,44
1,60,76,41
1,67,82,0
1,64,84,40
1,60,87,0
1,29,82,94
1,53,79,0
1,60,84,0
1,41,79,0
1,57,84,0
1,60,62,1
1,53,73,0
1,29,79,39
1,41,82,11
1,57,95,64
1,60,95,0
1,60,73,28
1,55,73,0
1,57,87,8
1,60,82,0
1,36,63,102
1,48,82,0
1,60,84,0
1,64,73,0
1,55,82,0
1,55,69,9
1,36,64,53
1,48,79,64
1,60,84,53
1,64,91,0
1,60,82,45
1,67,82,0
1,64,76,38
1,60,73,0
1,29,79,2
1,41,66,0
1,53,87,0
1,60,76,0
1,57,82,0
1,57,33,22
1,60,57,0
1,53,68,0
1,29,73,48
1,41,82,15
1,60,99,63
1,57,99,0
1,60,76,33
1,55,79,0
1,60,79,3
1,57,82,0
1,36,76,12
1,48,68,0
1,60,73,0
1,64,82,0
1,55,82,0
1,55,79,4
1,36,76,51
1,48,82,1
1,60,84,64
1,64,99,0
1,60,82,35
1,67,84,0
1,60,73,38
1,64,82,0
1,29,68,6
1,41,82,0
1,60,82,0
1,57,91,0
1,53,87,0
1,53,66,4
1,29,58,52
1,41,73,64
1,57,84,54
1,60,95,0
1,53,91,0
1,29,52,40
1,41,62,64
1,60,69,43
1,57,66,0
1,53,66,0
1,60,87,15
1,43,99,0
1,31,84,0
1,53,103,0
1,57,111,0
1,60,87,29
1,57,87,0
1,53,87,0
1,31,64,30
1,43,82,64
1,60,99,56
1,57,91,0
1,53,87,0
1,31,57,9
1,60,84,20
1,57,76,0
1,53,87,0
1,43,79,64
1,59,99,41
1,62,87,0
1,55,103,0
1,31,29,0
1,43,40,0
1,62,82,44
1,59,84,0
1,31,68,8
1,43,82,64
1,62,91,31
1,59,91,0
1,62,76,41
1,67,87,0
1,59,95,0
1,46,84,46
1,34,76,0
1,62,84,0
1,53,87,0
1,60,87,0
1,53,79,2
1,62,76,0
1,60,84,0
1,34,69,64
1,46,82,64
1,62,79,12
1,58,84,0
1,53,82,0
1,34,66,41
1,46,91,12
1,58,79,64
1,62,69,0
1,53,79,0
1,34,64,14
1,62,84,33
1,60,95,0
1,53,84,0
1,46,71,0
1,62,84,49
1,53,84,0
1,60,91,0
1,34,58,8
1,46,82,64
1,62,69,12
1,58,87,0
1,53,82,0
1,34,62,88
1,46,84,4
1,53,84,60
1,62,82,0
1,58,84,0
1,31,82,29
1,62,84,0
1,60,91,0
1,55,84,0
1,43,76,0
1,55,84,49
1,62,99,0
1,60,99,0
1,31,68,45
1,43,76,64
1,59,95,32
1,62,99,0
1,55,87,0
1,31,62,41
1,62,95,36
1,55,84,0
1,59,84,0
1,43,79,0
1,31,66,6
1,43,82,0
1,59,99,21
1,62,95,0
1,55,91,0
1,31,62,24
1,59,95,38
1,55,84,0
1,62,95,0
1,43,52,0
1,31,64,29
1,43,79,0
1,62,91,39
1,59,99,0
1,64,91,27
1,60,91,0
1,62,95,53
1,65,95,0
1,64,87,7
1,60,87,0
1,55,87,0
1,36,91,0
1,48,84,0
1,55,76,0
1,60,71,0
1,64,69,0
1,36,52,62
1,48,68,64
1,60,87,54
1,64,79,0
1,55,79,0
1,64,67,24
1,67,87,0
1,60,87,0
1,60,87,41
1,64,91,0
1,29,71,101
1,41,68,0
1,53,87,0
1,60,84,0
1,57,99,0
1,53,68,4
1,60,68,0
1,57,68,0
1,29,69,52
1,41,76,64
1,60,79,55
1,57,82,0
1,53,82,0
1,60,79,36
1,55,82,0
1,60,82,25
1,57,82,0
1,60,84,104
1,36,82,0
1,64,84,0
1,48,69,0
1,55,79,0
1,60,73,1
1,64,69,0
1,55,73,0
1,36,55,55
1,48,67,64
1,60,76,46
1,64,76,0
1,67,84,41
1,60,91,0
1,64,79,35
1,60,79,0
1,29,79,104
1,41,73,0
1,60,82,0
1,53,82,0
1,57,95,0
1,60,67,10
1,57,68,0
1,53,67,0
1,29,58,61
1,41,68,64
1,60,82,45
1,57,84,0
1,53,82,0
1,60,84,38
1,55,82,0
1,57,82,24
1,60,87,0
1,64,84,8
1,60,82,0
1,55,76,0
1,48,79,0
1,36,73,0
1,60,79,43
1,64,73,0
1,55,71,0
1,36,66,54
1,48,71,64
1,64,87,28
1,60,82,0
1,36,68,8
1,48,67,53
1,64,87,28
1,60,84,0
1,29,79,150
1,60,79,0
1,53,84,0
1,57,84,0
1,41,68,0
1,60,76,0
1,57,76,0
1,29,62,44
1,41,73,64
1,55,84,36
1,60,79,0
1,29,67,18
1,57,84,24
1,60,82,0
1,41,68,0
1,41,67,50
1,29,60,0
1,55,91,18
1,60,91,0
1,62,91,0
1,31,76,0
1,43,79,0
1,31,48,26
1,55,82,38
1,62,91,0
1,60,91,0
1,31,61,40
1,43,69,64
1,62,95,12
1,59,99,0
1,31,57,21
1,62,87,26
1,59,84,0
1,43,67,0
1,31,55,24
1,43,68,64
1,55,82,16
1,60,99,0
1,62,87,0
1,31,43,35
1,62,84,32
1,55,79,0
1,60,87,0
1,31,68,18
1,43,82,9
1,55,79,20
1,59,84,0
1,59,14,50
1,59,79,0
1,67,82,0
1,55,87,0
1,34,76,39
1,62,84,0
1,53,84,0
1,60,95,0
1,46,79,0
1,53,82,48
1,62,69,0
1,60,82,0
1,34,60,54
1,46,79,4
1,62,79,29
1,58,84,0
1,53,82,0
1,62,61,45
1,53,60,0
1,58,60,0
1,34,55,39
1,46,82,64
1,60,82,11
1,62,76,0
1,53,87,0
1,62,73,52
1,53,84,0
1,60,84,0
1,34,51,9
1,46,87,64
1,53,84,30
1,58,73,0
1,62,82,0
1,62,68,36
1,53,73,0
1,58,69,0
1,62,91,5
1,60,99,0
1,55,91,0
1,31,84,0
1,43,84,0
1,62,84,37
1,55,84,0
1,60,91,0
1,31,61,15
1,43,69,64
1,55,84,45
1,62,95,0
1,60,95,0
1,31,55,81
1,43,87,0
1,55,84,64
1,62,91,0
1,60,91,0
1,57,73,60
1,64,95,0
1,33,79,0
1,62,103,0
1,45,79,0
1,64,91,40
1,62,95,0
1,57,99,0
1,33,71,49
1,45,76,64
1,64,79,51
1,61,87,0
1,57,95,0
1,33,55,28
1,66,87,43
1,62,79,0
1,45,73,0
1,57,84,46
1,64,84,25
1,67,87,0
1,33,69,0
1,45,79,55
1,38,82,3
1,50,84,0
1,57,87,0
1,62,82,0
1,66,82,0
1,57,73,21
1,38,71,14
1,50,84,4
1,57,87,64
1,62,91,0
1,66,87,0
1,38,64,44
1,62,76,41
1,69,82,0
1,62,87,40
1,66,84,0
1,31,82,94
1,43,79,0
1,55,79,0
1,59,84,0
1,62,84,0
1,55,73,1
1,62,62,0
1,31,79,39
1,43,82,11
1,59,95,64
1,62,95,0
1,57,73,28
1,62,73,0
1,59,87,8
1,62,82,0
1,38,63,102
1,50,82,0
1,57,82,0
1,62,84,0
1,66,73,0
1,57,69,9
1,38,64,53
1,50,79,64
1,62,84,53
1,66,91,0
1,62,82,45
1,69,82,0
1,62,73,38
1,66,76,0
1,31,79,2
1,43,66,0
1,55,87,0
1,59,82,0
1,62,76,0
1,55,68,22
1,59,33,0
1,62,57,0
1,31,73,48
1,43,82,15
1,59,99,63
1,62,99,0
1,57,79,33
1,62,76,0
1,59,82,3
1,62,79,0
1,38,76,12
1,50,68,0
1,57,82,0
1,62,73,0
1,66,82,0
1,57,79,4
1,38,76,51
1,50,82,1
1,62,84,64
1,66,99,0
1,62,82,35
1,69,84,0
1,62,73,38
1,66,82,0
1,31,68,6
1,43,82,0
1,55,87,0
1,59,91,0
1,62,82,0
1,55,66,4
1,31,58,52
1,43,73,64
1,55,91,54
1,59,84,0
1,62,95,0
1,31,52,40
1,43,62,64
1,55,66,43
1,59,66,0
1,62,69,0
1,33,84,15
1,45,99,0
1,55,103,0
1,59,111,0
1,62,87,0
1,55,87,29
1,59,87,0
1,62,87,0
1,33,64,30
1,45,82,64
1,55,87,56
1,59,91,0
1,62,99,0
1,33,57,9
1,55,87,20
1,59,76,0
1,62,84,0
1,45,79,64
1,33,29,41
1,45,40,0
1,57,103,0
1,61,99,0
1,64,87,0
1,61,84,44
1,64,82,0
1,33,68,8
1,45,82,64
1,61,91,31
1,64,91,0
1,61,95,41
1,64,76,0
1,69,87,0
1,36,76,46
1,48,84,0
1,55,87,0
1,62,87,0
1,64,84,0
1,55,79,2
1,62,84,0
1,64,76,0
1,36,69,64
1,48,82,64
1,55,82,12
1,60,84,0
1,64,79,0
1,36,66,41
1,48,91,12
1,55,79,64
1,60,79,0
1,64,69,0
1,36,64,14
1,48,71,33
1,55,84,0
1,62,95,0
1,64,84,0
1,55,84,49
1,62,91,0
1,64,84,0
1,36,58,8
1,48,82,64
1,55,82,12
1,60,87,0
1,64,69,0
1,36,62,88
1,48,84,4
1,55,84,60
1,60,84,0
1,64,82,0
1,33,82,29
1,45,76,0
1,57,84,0
1,62,91,0
1,64,84,0
1,57,84,49
1,62,99,0
1,64,99,0
1,33,68,45
1,45,76,64
1,62,95,32
1,57,87,0
1,64,99,0
1,33,62,41
1,62,84,36
1,45,79,0
1,57,84,0
1,64,95,0
1,33,66,6
1,45,82,0
1,64,95,21
1,57,91,0
1,61,99,0
1,62,95,102
1,57,87,0
1,33,87,0
1,45,79,0
1,64,103,22
1,57,91,0
1,33,91,0
1,45,95,0
1,38,91,27
1,50,84,0
1,57,87,0
1,62,87,0
1,66,87,0
1,57,76,0
1,62,71,0
1,66,69,0
1,38,52,62
1,50,68,64
1,57,79,54
1,62,87,0
1,66,79,0
1,62,87,24
1,66,67,0
1,62,87,41
1,66,91,0
1,31,71,101
1,43,68,0
1,55,87,0
1,59,99,0
1,62,84,0
1,55,68,4
1,59,68,0
1,62,68,0
1,31,69,52
1,43,76,64
1,55,82,55
1,59,82,0
1,62,79,0
1,57,82,36
1,62,79,0
1,59,82,25
1,62,82,0
1,38,82,104
1,50,69,0
1,57,79,0
1,62,84,0
1,66,84,0
1,57,73,1
1,62,73,0
1,66,69,0
1,38,55,55
1,50,67,64
1,62,76,46
1,66,76,0
1,66,84,41
1,62,91,0
1,62,79,35
1,66,79,0
1,31,79,104
1,43,73,0
1,55,82,0
1,59,95,0
1,62,82,0
1,55,67,10
1,59,68,0
1,62,67,0
1,31,58,61
1,43,68,64
1,55,82,45
1,59,84,0
1,62,82,0
1,57,82,38
1,62,84,0
1,59,82,24
1,62,87,0
1,38,73,8
1,50,79,0
1,57,76,0
1,62,82,0
1,66,84,0
1,57,71,43
1,62,79,0
1,66,73,0
1,38,66,54
1,50,71,64
1,62,82,28
1,66,87,0
1,38,68,8
1,50,67,53
1,62,84,28
1,66,87,0
1,31,79,150
1,43,68,0
1,55,84,0
1,59,84,0
1,62,79,0
1,59,76,0
1,62,76,0
1,31,62,44
1,43,73,64
1,57,84,36
1,62,79,0
1,31,67,18
1,43,68,24
1,59,84,0
1,62,82,0
1,31,60,50
1,43,67,0
1,33,76,18
1,45,79,0
1,57,91,0
1,62,91,0
1,64,91,0
1,33,48,26
1,57,82,38
1,62,91,0
1,64,91,0
1,33,61,40
1,45,69,64
1,61,99,12
1,64,95,0
1,33,57,21
1,45,67,26
1,61,84,0
1,64,87,0
1,33,55,24
1,45,68,64
1,57,82,16
1,62,99,0
1,64,87,0
1,33,43,35
1,57,79,32
1,62,87,0
1,64,84,0
1,33,68,18
1,45,82,9
1,57,79,20
1,61,84,0
1,57,87,50
1,61,79,0
1,61,14,0
1,69,82,0
1,36,76,39
1,48,79,0
1,55,84,0
1,62,95,0
1,64,84,0
1,55,82,48
1,62,82,0
1,64,69,0
1,36,60,54
1,48,79,4
1,55,82,29
1,60,84,0
1,64,79,0
1,55,60,45
1,60,60,0
1,64,61,0
1,36,55,39
1,48,82,64
1,55,87,11
1,62,82,0
1,64,76,0
1,55,84,52
1,62,84,0
1,64,73,0
1,36,51,9
1,48,87,64
1,55,84,30
1,60,73,0
1,64,82,0
1,55,73,36
1,60,69,0
1,64,68,0
1,33,84,5
1,45,84,0
1,57,91,0
1,62,99,0
1,64,91,0
1,57,84,37
1,62,91,0
1,64,84,0
1,33,61,15
1,45,69,64
1,57,84,45
1,62,95,0
1,64,95,0
1,33,55,81
1,45,87,0
1,57,84,64
1,62,91,0
1,64,91,0
1,33,84,60
1,45,82,0
1,57,91,0
1,61,103,0
1,33,84,40
1,62,103,0
1,57,84,0
1,45,84,0
1,57,91,21
1,64,99,0
1,45,82,0
1,33,87,0
1,62,82,36
1,26,95,0
1,38,84,0
1,57,79,0
1,54,84,0
2,36,95,11135
2,41,85,0
2,36,95,0
2,41,78,0
2,36,91,0
2,41,81,0
2,43,72,0
2,31,87,0
2,34,83,0
2,34,76,64
2,31,85,0
2,43,68,0
2,31,85,0
2,36,85,0
2,36,83,64
2,41,70,0
2,36,83,0
2,41,72,0
2,36,87,0
2,41,66,0
2,43,61,0
2,38,57,0
2,31,81,0
2,33,74,0
2,34,74,0
2,34,70,0
2,31,78,0
2,43,61,0
2,31,79,0
2,41,76,0
2,36,83,0
2,31,74,0
2,36,74,64
2,31,89,0
2,31,68,64
2,31,83,64
2,36,87,64
2,41,81,0
2,41,68,0
2,33,87,0
2,33,64,17
2,33,58,47
2,33,79,34
2,33,71,25
2,33,87,32
2,45,68,192
2,33,69,13
2,33,84,33
2,33,79,17
2,31,103,48
2,43,87,192
2,31,73,116
2,31,95,35
2,31,87,11
2,31,107,42
2,31,107,68
2,43,79,64
2,45,56,13
2,47,67,17
2,31,111,7
2,36,95,2
2,36,87,100
2,29,84,19
2,41,95,384
2,48,73,4
2,43,58,64
2,41,68,44
2,38,69,54
2,36,84,11
2,36,107,112
2,41,87,0
2,29,69,192
2,29,87,35
2,29,95,24
2,36,107,0
2,36,103,99
2,41,87,5
2,29,111,384
2,31,99,15
2,31,62,33
2,31,107,38
2,43,79,256
2,38,79,5
2,31,107,3
2,31,82,46
2,31,95,10
2,38,87,1
2,43,82,128
2,34,95,12
2,41,76,0
2,34,84,128
2,34,91,36
2,41,76,10
2,34,91,5
2,31,107,3
2,43,107,3
2,31,103,256
