track,note,velocity,time
0,76,48,162
0,76,69,0
0,40,80,0
0,88,69,0
0,68,127,0
0,59,127,0
0,64,127,0
0,64,86,1
0,76,86,0
0,83,48,6
0,95,86,2
0,83,86,0
0,40,0,0
0,95,86,0
0,83,86,0
0,83,0,16
0,83,0,2
0,95,0,0
0,83,0,0
0,95,0,0
0,76,48,18
0,76,64,2
0,40,80,0
0,88,64,0
0,64,53,1
0,76,53,0
0,83,48,24
0,95,86,2
0,83,86,0
0,40,0,0
0,95,86,0
0,83,86,0
0,83,0,16
0,83,0,2
0,95,0,0
0,83,0,0
0,95,0,0
0,76,48,3
0,76,74,2
0,40,80,0
0,88,74,0
0,64,74,1
0,76,74,0
0,83,48,6
0,95,79,2
0,83,79,0
0,40,0,0
0,95,79,0
0,83,79,0
0,76,48,3
0,76,76,2
0,40,80,0
0,88,76,0
0,64,72,1
0,76,72,0
0,84,48,6
0,96,108,2
0,84,88,0
0,40,0,0
0,96,108,0
0,84,108,0
0,76,48,22
0,76,74,2
0,40,80,0
0,88,74,0
0,59,0,0
0,60,127,0
0,64,76,1
0,76,76,0
0,76,0,32
0,64,0,2
0,76,0,0
0,76,0,0
0,88,0,0
0,84,48,23
0,96,86,2
0,84,86,0
0,40,0,0
0,96,86,0
0,84,86,0
0,76,48,3
0,76,76,2
0,40,80,0
0,88,76,0
0,64,79,1
0,76,79,0
0,84,48,1
0,96,86,2
0,84,86,0
0,40,0,0
0,96,86,0
0,84,86,0
0,84,0,16
0,84,0,2
0,96,0,0
0,84,0,0
0,96,0,0
0,76,48,3
0,76,74,2
0,40,80,0
0,88,74,0
0,64,69,1
0,76,69,0
0,84,48,6
0,96,79,2
0,84,79,0
0,40,0,0
0,96,79,0
0,84,79,0
0,76,48,8
0,76,74,2
0,40,80,0
0,88,74,0
0,64,79,1
0,76,79,0
0,76,0,34
0,64,0,2
0,76,0,0
0,76,0,0
0,88,0,0
0,83,48,1
0,95,106,2
0,83,86,0
0,40,0,0
0,95,106,0
0,83,106,0
0,35,107,34
0,76,48,2
0,76,69,2
0,40,80,0
0,88,69,0
0,60,0,0
0,59,127,0
0,71,64,0
0,64,86,1
0,76,86,0
0,35,0,13
0,64,0,17
0,76,0,0
0,76,0,2
0,76,0,2
0,88,0,0
0,71,0,1
0,35,90,20
0,83,48,2
0,95,86,2
0,83,86,0
0,40,0,0
0,95,86,0
0,83,86,0
0,71,64,0
0,35,0,14
0,83,0,2
0,83,0,2
0,95,0,0
0,83,0,0
0,95,0,0
0,71,0,18
0,76,48,8
0,76,64,2
0,40,80,0
0,88,64,0
0,64,53,1
0,76,53,0
0,35,59,22
0,83,48,2
0,95,86,2
0,83,86,0
0,40,0,0
0,95,86,0
0,83,86,0
0,71,64,0
0,35,0,14
0,83,0,2
0,83,0,2
0,95,0,0
0,83,0,0
0,95,0,0
0,35,74,6
0,76,48,2
0,76,74,2
0,40,80,0
0,88,74,0
0,71,64,0
0,64,74,1
0,76,74,0
0,35,0,13
0,83,48,22
0,95,79,2
0,83,79,0
0,40,0,0
0,95,79,0
0,83,79,0
0,35,81,6
0,76,48,2
0,76,76,2
0,40,80,0
0,88,76,0
0,71,64,0
0,64,72,1
0,76,72,0
0,35,0,13
0,35,57,4
0,84,48,2
0,96,108,2
0,84,88,0
0,40,0,0
0,96,108,0
0,84,108,0
0,71,64,0
0,76,48,13
0,76,74,2
0,40,80,0
0,88,74,0
0,59,0,0
0,60,127,0
0,64,76,1
0,76,76,0
0,35,60,4
0,84,48,2
0,96,86,2
0,84,86,0
0,40,0,0
0,96,86,0
0,84,86,0
0,71,64,0
0,35,0,14
0,84,0,2
0,84,0,2
0,96,0,0
0,84,0,0
0,96,0,0
0,35,90,20
0,76,48,2
0,76,76,2
0,40,80,0
0,88,76,0
0,71,64,0
0,64,79,1
0,76,79,0
0,84,48,1
0,96,86,2
0,84,86,0
0,40,0,0
0,96,86,0
0,84,86,0
0,35,74,38
0,76,48,2
0,76,74,2
0,40,80,0
0,88,74,0
0,71,64,0
0,64,69,1
0,76,69,0
0,35,0,13
0,84,48,1
0,96,79,2
0,84,79,0
0,40,0,0
0,96,79,0
0,84,79,0
0,35,79,6
0,76,48,2
0,76,74,2
0,40,80,0
0,88,74,0
0,71,64,0
0,64,79,1
0,76,79,0
0,35,79,19
0,83,48,2
0,95,106,2
0,83,86,0
0,40,0,0
0,95,106,0
0,83,106,0
0,71,64,0
0,35,54,20
0,76,48,2
0,76,69,2
0,40,80,0
0,88,69,0
0,60,0,0
0,59,127,0
0,71,64,0
0,64,86,1
0,76,86,0
0,35,0,13
0,35,54,12
0,64,0,5
0,76,0,0
0,76,0,2
0,76,0,2
0,88,0,0
0,71,0,1
0,35,0,8
0,35,54,12
0,83,48,2
0,95,86,2
0,83,86,0
0,40,0,0
0,95,86,0
0,83,86,0
0,71,64,0
0,35,0,14
0,83,0,2
0,83,0,2
0,95,0,0
0,83,0,0
0,95,0,0
0,35,54,8
0,71,0,10
0,35,0,8
0,35,54,12
0,76,48,2
0,76,64,2
0,40,80,0
0,88,64,0
0,64,53,1
0,76,53,0
0,35,54,12
0,76,0,2
0,35,54,4
0,83,48,2
0,95,86,2
0,83,86,0
0,40,0,0
0,95,86,0
0,83,86,0
0,71,64,0
0,35,54,8
0,71,0,10
0,35,0,8
0,35,54,1
0,76,48,2
0,76,74,2
0,40,80,0
0,88,74,0
0,71,64,0
0,64,74,1
0,76,74,0
0,35,0,13
0,35,54,7
0,76,0,4
0,76,0,2
0,88,0,0
0,64,0,1
0,76,0,0
0,71,0,3
0,35,0,8
0,35,54,12
0,83,48,1
0,95,79,2
0,83,79,0
0,40,0,0
0,95,79,0
0,83,79,0
0,35,54,5
0,35,54,6
0,76,48,2
0,76,76,2
0,40,80,0
0,88,76,0
0,71,64,0
0,64,72,1
0,76,72,0
0,35,0,13
0,35,54,2
0,35,54,4
0,84,48,2
0,96,108,2
0,84,88,0
0,40,0,0
0,96,108,0
0,84,108,0
0,71,64,0
0,35,54,4
0,35,54,1
0,76,48,2
0,76,74,2
0,40,80,0
0,88,74,0
0,59,0,0
0,60,127,0
0,64,76,1
0,76,76,0
0,35,54,12
0,76,0,7
0,64,0,2
0,76,0,0
0,76,0,0
0,88,0,0
0,35,0,9
0,35,54,12
0,84,48,2
0,96,86,2
0,84,86,0
0,40,0,0
0,96,86,0
0,84,86,0
0,71,64,0
0,35,0,14
0,84,0,2
0,84,0,2
0,96,0,0
0,84,0,0
0,96,0,0
0,35,54,8
0,71,0,10
0,35,0,8
0,35,54,12
0,76,48,2
0,76,76,2
0,40,80,0
0,88,76,0
0,71,64,0
0,64,79,1
0,76,79,0
0,35,0,13
0,35,54,12
0,76,0,10
0,71,0,0
0,76,0,2
0,88,0,0
0,64,0,3
0,76,0,0
0,35,0,3
0,35,54,12
0,84,48,2
0,96,86,2
0,84,86,0
0,40,0,0
0,96,86,0
0,84,86,0
0,35,54,8
0,35,0,18
0,35,54,12
0,76,48,2
0,76,74,2
0,40,80,0
0,88,74,0
0,71,64,0
0,64,69,1
0,76,69,0
0,35,0,13
0,35,54,12
0,71,0,10
0,64,0,1
0,76,0,0
0,76,0,1
0,76,0,2
0,88,0,0
0,35,54,4
0,84,48,2
0,96,79,2
0,84,79,0
0,40,0,0
0,96,79,0
0,84,79,0
0,35,0,14
0,84,0,2
0,84,0,2
0,96,0,0
0,84,0,0
0,96,0,0
0,35,54,8
0,35,0,18
0,35,54,12
0,76,48,2
0,76,74,2
0,40,80,0
0,88,74,0
0,71,64,0
0,64,79,1
0,76,79,0
0,35,54,2
0,35,54,8
0,83,48,1
0,95,106,2
0,83,86,0
0,40,0,0
0,95,106,0
0,83,106,0
0,71,64,0
0,35,54,4
0,71,0,10
0,35,0,8
0,35,32,12
0,76,48,2
0,64,81,1
0,71,86,0
0,76,69,1
0,40,80,0
0,88,69,0
0,60,0,0
0,59,127,0
0,35,121,0
0,57,82,0
0,52,81,0
0,59,86,0
0,64,86,1
0,76,86,0
0,35,0,13
0,35,34,2
0,64,0,5
0,76,0,0
0,76,0,2
0,35,37,6
0,83,48,2
0,95,86,2
0,83,86,0
0,40,0,0
0,95,86,0
0,83,86,0
0,64,81,5
0,71,86,1
0,52,81,0
0,59,86,1
0,35,40,8
0,64,0,1
0,52,0,1
0,71,0,2
0,59,0,1
0,35,43,6
0,76,48,2
0,76,64,2
0,40,80,0
0,88,64,0
0,64,53,1
0,76,53,0
0,35,0,13
0,35,46,12
0,76,0,2
0,76,0,2
0,88,0,0
0,64,0,4
0,76,0,0
0,35,0,10
0,35,49,12
0,83,48,2
0,64,75,0
0,71,83,0
0,52,75,1
0,59,83,0
0,95,86,1
0,83,86,0
0,40,0,0
0,95,86,0
0,83,86,0
0,35,0,14
0,83,0,2
0,71,0,1
0,83,0,1
0,95,0,0
0,83,0,0
0,95,0,0
0,59,0,0
0,64,0,2
0,52,0,1
0,35,52,5
0,35,55,12
0,76,48,2
0,76,74,2
0,40,80,0
0,88,74,0
0,35,121,0
0,57,82,0
0,64,74,1
0,76,74,0
0,64,86,1
0,71,86,0
0,52,86,1
0,59,86,0
0,35,0,11
0,57,0,1
0,35,0,0
0,35,58,2
0,76,0,4
0,76,0,2
0,88,0,0
0,64,0,1
0,76,0,0
0,35,61,12
0,83,48,2
0,95,79,2
0,83,79,0
0,40,0,0
0,95,79,0
0,83,79,0
0,35,64,8
0,35,0,18
0,71,0,10
0,59,0,1
0,35,67,1
0,76,48,2
0,76,76,2
0,40,80,0
0,88,76,0
0,64,72,1
0,76,72,0
0,64,0,1
0,52,0,1
0,35,0,11
0,35,70,12
0,35,73,8
0,84,48,2
0,96,108,2
0,84,88,0
0,40,0,0
0,96,108,0
0,84,108,0
0,35,76,4
0,35,79,12
0,76,48,2
0,60,127,1
0,76,74,1
0,40,80,0
0,88,74,0
0,59,0,0
0,60,127,0
0,35,121,0
0,57,82,0
0,84,30,0
0,64,76,1
0,76,76,0
0,35,0,13
0,57,0,1
0,35,0,0
0,35,82,11
0,84,34,0
0,76,0,3
0,64,0,2
0,76,0,0
0,76,0,0
0,88,0,0
0,35,0,9
0,35,85,12
0,84,48,2
0,96,86,1
0,84,86,0
0,40,0,0
0,96,86,0
0,84,86,0
0,84,0,0
0,84,40,0
0,35,0,14
0,84,0,2
0,84,0,2
0,96,0,0
0,84,0,0
0,96,0,0
0,35,88,8
0,84,47,0
0,35,0,14
0,35,91,12
0,76,48,2
0,84,80,1
0,76,76,1
0,40,80,0
0,88,76,0
0,35,121,0
0,57,82,0
0,84,0,0
0,84,55,0
0,64,79,1
0,76,79,0
0,35,0,13
0,57,0,1
0,35,0,0
0,35,94,11
0,84,58,0
0,76,0,6
0,76,0,2
0,88,0,0
0,64,0,3
0,76,0,0
0,35,0,3
0,35,97,12
0,84,48,2
0,96,86,1
0,84,86,0
0,40,0,0
0,96,86,0
0,84,86,0
0,84,0,0
0,84,64,0
0,35,0,14
0,84,0,2
0,84,0,2
0,96,0,0
0,84,0,0
0,96,0,0
0,35,100,8
0,84,71,0
0,35,0,14
0,35,103,12
0,76,48,2
0,76,74,1
0,40,80,0
0,88,74,0
0,35,121,0
0,57,82,0
0,84,0,0
0,84,81,0
0,64,69,1
0,76,69,0
0,35,0,13
0,57,0,1
0,35,0,0
0,35,106,11
0,84,85,0
0,64,0,7
0,76,0,0
0,76,0,1
0,76,0,2
0,88,0,0
0,35,0,4
0,35,109,12
0,84,48,2
0,96,79,1
0,84,79,0
0,40,0,0
0,96,79,0
0,84,79,0
0,84,0,0
0,84,90,0
0,35,0,14
0,84,0,2
0,84,0,2
0,96,0,0
0,84,0,0
0,96,0,0
0,35,112,8
0,84,96,0
0,35,0,14
0,35,115,12
0,76,48,2
0,76,74,1
0,40,80,0
0,88,74,0
0,35,121,0
0,57,82,0
0,84,0,0
0,84,107,0
0,64,79,1
0,76,79,0
0,35,0,13
0,57,0,1
0,35,0,0
0,35,118,11
0,84,108,0
0,76,0,5
0,64,0,2
0,76,0,0
0,76,0,0
0,88,0,0
0,35,0,7
0,35,121,12
0,83,48,2
0,95,106,1
0,83,86,0
0,40,0,0
0,95,106,0
0,83,106,0
0,84,0,0
0,84,114,0
0,35,0,14
0,83,0,6
0,83,0,2
0,95,0,0
0,83,0,0
0,95,0,0
0,35,124,4
0,84,120,0
0,35,0,14
0,35,54,13
0,60,0,2
0,28,102,1
0,68,0,0
0,64,0,0
0,60,0,0
0,52,110,0
0,59,110,0
0,68,127,0
0,64,127,0
0,73,82,0
0,35,126,0
0,57,82,0
0,84,0,0
0,59,92,0
0,35,54,12
0,42,63,3
0,73,47,0
0,35,0,15
0,73,0,0
0,42,0,0
0,28,0,13
0,46,71,2
0,73,34,0
0,73,0,15
0,46,0,0
0,35,54,12
0,28,91,3
0,73,34,0
0,35,0,15
0,73,0,0
0,59,0,4
0,35,54,6
0,28,0,3
0,73,51,2
0,35,127,0
0,39,74,0
0,40,68,0
0,42,71,0
0,64,92,0
0,35,0,11
0,42,0,2
0,39,0,0
0,73,0,0
0,35,0,0
0,40,0,0
0,73,28,15
0,42,63,0
0,42,0,15
0,73,0,0
0,35,54,10
0,28,91,4
0,46,71,1
0,73,45,0
0,35,0,13
0,73,0,2
0,46,0,0
0,35,54,10
0,73,45,5
0,35,0,13
0,73,0,2
0,35,54,11
0,35,126,4
0,73,77,0
0,42,71,0
0,63,92,0
0,28,0,6
0,35,0,7
0,42,0,1
0,73,0,0
0,35,0,0
0,35,54,11
0,42,63,4
0,73,47,0
0,35,0,14
0,73,0,1
0,42,0,0
0,63,0,5
0,35,54,6
0,28,86,2
0,73,34,2
0,46,71,0
0,64,92,0
0,35,0,11
0,46,0,1
0,73,0,0
0,35,54,11
0,73,34,4
0,28,0,14
0,35,0,0
0,73,0,1
0,35,54,14
0,40,68,1
0,73,51,0
0,39,74,0
0,42,71,0
0,35,127,0
0,64,0,4
0,66,92,0
0,35,0,9
0,39,0,0
0,40,0,0
0,73,0,0
0,42,0,0
0,35,0,2
0,66,0,9
0,73,28,4
0,42,63,0
0,42,0,15
0,73,0,0
0,28,92,13
0,35,54,1
0,46,70,1
0,73,45,0
0,68,92,0
0,73,0,9
0,46,0,0
0,28,0,1
0,35,0,1
0,73,45,13
0,73,0,15
0,35,54,12
0,28,102,3
0,35,126,0
0,73,82,0
0,42,71,0
0,35,0,15
0,42,0,0
0,73,0,0
0,35,0,0
0,35,54,12
0,42,63,3
0,73,47,0
0,35,0,15
0,73,0,0
0,42,0,0
0,28,0,13
0,46,71,2
0,73,34,0
0,73,0,15
0,46,0,0
0,35,54,12
0,28,91,3
0,73,34,0
0,68,0,1
0,35,0,14
0,73,0,0
0,35,54,10
0,28,0,3
0,35,127,2
0,39,74,0
0,40,68,0
0,73,51,0
0,42,71,0
0,64,92,0
0,35,0,4
0,42,0,2
0,40,0,0
0,35,0,0
0,39,0,0
0,73,0,0
0,64,0,13
0,42,63,2
0,73,28,0
0,73,0,15
0,42,0,0
0,35,54,10
0,28,91,4
0,46,71,1
0,73,45,0
0,64,92,0
0,35,0,7
0,73,0,2
0,46,0,0
0,35,54,10
0,73,45,5
0,35,0,13
0,73,0,2
0,35,54,11
0,73,77,4
0,35,126,0
0,42,71,0
0,63,92,0
0,28,0,2
0,64,0,2
0,35,0,5
0,42,0,1
0,35,0,0
0,73,0,0
0,35,54,11
0,73,47,4
0,42,63,0
0,35,0,14
0,42,0,1
0,73,0,0
0,35,54,11
0,28,86,2
0,73,34,2
0,46,71,0
0,64,92,0
0,35,0,11
0,46,0,1
0,73,0,0
0,35,54,11
0,73,34,4
0,28,0,14
0,35,0,0
0,73,0,1
0,35,54,14
0,35,127,1
0,73,51,0
0,39,74,0
0,42,71,0
0,40,68,0
0,63,92,0
0,64,0,9
0,40,0,5
0,39,0,0
0,35,0,0
0,73,0,0
0,42,0,0
0,35,0,2
0,63,0,3
0,42,63,10
0,73,28,0
