track,note,velocity,time
0,76,95,372
0,69,104,0
0,72,95,0
0,76,107,1
0,69,107,0
0,72,96,0
0,88,110,0
0,72,74,23
0,76,85,0
0,69,98,1
0,69,96,5
0,76,89,0
0,72,89,0
0,88,94,0
0,72,76,22
0,76,88,0
0,69,104,1
0,76,93,3
0,72,93,0
0,69,107,0
0,88,105,1
0,72,88,22
0,76,88,0
0,69,104,0
0,76,93,4
0,69,96,0
0,72,96,0
0,88,105,2
0,76,98,24
0,72,91,0
0,69,98,0
0,69,96,4
0,72,89,0
0,76,89,0
0,88,110,2
0,76,91,20
0,72,98,0
0,69,104,0
0,69,107,2
0,76,107,0
0,72,96,0
0,88,110,2
0,64,98,4
0,64,102,4
0,76,91,0
0,69,98,10
0,69,86,1
0,81,81,0
0,72,85,14
0,72,78,3
0,84,84,0
0,76,104,5
0,76,102,1
0,88,105,0
0,65,109,7
0,75,82,0
0,72,91,2
0,69,98,0
0,65,107,1
0,75,86,0
0,69,96,0
0,72,74,0
0,87,91,0
0,75,80,21
0,65,88,0
0,72,78,2
0,69,91,0
0,75,89,1
0,65,102,0
0,69,86,0
0,72,86,0
0,87,91,0
0,75,80,23
0,65,91,0
0,69,82,0
0,75,80,4
0,69,93,0
0,65,102,0
0,72,80,0
0,72,80,0
0,87,87,0
0,75,80,23
0,65,91,0
0,72,78,0
0,69,88,0
0,69,93,4
0,75,80,0
0,65,96,1
0,72,86,0
0,87,87,1
0,75,78,22
0,65,95,1
0,69,91,1
0,72,88,1
0,69,86,3
0,65,86,0
0,75,76,0
0,72,83,0
0,87,87,2
0,69,95,23
0,72,76,1
0,65,98,0
0,75,82,0
0,75,102,4
0,69,102,0
0,65,107,0
0,72,89,0
0,87,91,0
0,65,112,1
0,65,104,0
0,77,87,0
0,69,63,4
0,81,84,1
0,69,91,1
0,72,85,7
0,72,78,2
0,84,81,1
0,75,88,9
0,75,89,3
0,87,62,0
0,62,107,12
0,74,118,0
0,65,102,0
0,69,102,0
0,74,98,0
0,69,104,2
0,65,98,0
0,86,100,0
0,72,112,37
0,62,102,1
0,65,107,0
0,84,100,1
0,69,96,4
0,81,100,2
0,68,104,1
0,72,98,0
0,62,98,1
0,62,112,1
0,72,112,0
0,68,107,0
0,40,107,0
0,84,105,2
0,72,98,25
0,40,118,1
0,68,109,0
0,62,109,1
0,68,107,1
0,72,118,0
0,62,118,0
0,84,105,2
0,64,98,19
0,60,85,0
0,69,109,0
0,45,122,2
0,57,118,3
0,64,112,0
0,69,112,0
0,60,107,0
0,81,116,0
0,45,102,1
0,48,102,4
0,52,102,3
0,57,93,6
0,60,102,6
0,64,93,12
0,69,112,0
0,35,116,0
0,33,101,0
0,81,33,0
0,69,70,0
0,81,70,0
0,83,33,0
0,83,70,1
0,71,70,1
0,84,70,21
0,84,33,0
0,45,101,1
0,72,70,1
0,88,33,5
0,88,70,1
0,76,70,1
0,81,33,4
0,35,120,1
0,81,70,0
0,33,106,0
0,69,70,0
0,83,33,1
0,71,70,1
0,83,70,0
0,84,33,20
0,84,71,1
0,72,71,0
0,45,92,1
0,76,71,0
0,88,71,0
0,88,33,0
0,69,72,0
0,81,72,0
0,81,32,0
0,35,116,1
0,33,95,0
0,71,72,0
0,83,72,0
0,83,32,0
0,72,72,23
0,84,72,0
0,84,31,0
0,45,82,2
0,76,72,0
0,88,72,0
0,88,30,1
0,69,72,1
0,33,101,1
0,81,72,0
0,81,29,0
0,35,116,1
0,71,73,1
0,83,73,0
0,83,29,0
0,84,73,19
0,72,73,0
0,84,28,0
0,45,85,1
0,76,73,2
0,88,73,0
0,88,27,0
0,33,106,2
0,69,74,0
0,81,74,0
0,81,26,0
0,35,116,1
0,83,74,0
0,71,74,0
0,83,26,1
0,84,74,20
0,84,26,0
0,45,88,1
0,72,74,0
0,88,74,7
0,76,74,0
0,88,26,0
0,33,101,1
0,69,74,0
0,81,74,0
0,81,26,0
0,35,116,1
0,83,74,1
0,71,74,0
0,83,26,0
0,84,26,21
0,45,88,1
0,72,74,0
0,84,74,0
0,76,74,0
0,88,74,0
0,88,26,0
0,33,106,3
0,69,74,0
0,81,74,0
0,35,120,1
0,81,26,0
0,83,74,1
0,71,74,0
0,83,26,0
0,84,26,21
0,45,85,1
0,72,74,0
0,84,74,0
0,88,74,0
0,76,74,0
0,88,26,0
0,33,101,1
0,69,74,0
0,81,26,0
0,35,116,1
0,81,74,0
0,83,74,1
0,71,74,1
0,83,26,0
0,84,27,21
0,45,88,1
0,72,73,0
0,84,73,0
0,64,73,0
0,88,28,4
0,88,72,0
0,76,72,0
0,64,75,0
0,33,106,2
0,35,116,1
0,72,72,0
0,76,72,0
0,45,71,0
0,69,64,0
0,65,86,0
0,45,82,0
0,77,86,0
0,57,83,0
0,65,86,0
0,33,101,0
0,72,72,0
0,77,78,0
0,69,76,0
0,35,116,1
0,45,86,0
0,45,77,3
0,76,80,0
0,57,83,0
0,64,80,0
0,64,86,0
0,33,106,0
0,76,83,0
0,72,80,0
0,45,86,0
0,69,78,0
0,35,116,1
0,77,89,8
0,57,86,0
0,45,82,1
0,65,93,0
0,77,93,12
0,33,101,1
0,72,89,0
0,45,93,0
0,69,89,0
0,35,116,1
0,65,86,0
0,76,86,0
0,45,75,1
0,57,89,0
0,64,93,0
0,44,78,15
0,32,101,1
0,76,86,0
0,68,80,0
0,71,83,0
0,64,86,0
0,35,110,0
0,44,92,23
0,77,89,0
0,56,80,0
0,65,99,0
0,65,99,0
0,32,106,1
0,44,102,0
0,77,107,0
0,71,96,0
0,68,86,0
0,35,110,1
0,64,83,0
0,76,93,2
0,44,88,1
0,56,80,0
0,44,107,21
0,64,109,0
0,32,101,0
0,68,89,0
0,76,107,0
0,71,96,0
0,35,116,1
0,56,93,5
0,44,92,1
0,76,112,0
0,81,112,0
0,71,83,0
0,69,104,0
0,81,118,21
0,76,118,0
0,71,118,0
0,44,112,0
0,32,101,1
0,69,109,0
0,35,120,0
0,56,102,4
0,76,102,0
0,80,112,0
0,71,112,0
0,44,101,1
0,68,90,1
0,28,106,1
0,40,125,0
0,35,116,1
0,28,117,25
0,52,112,0
0,40,117,1
0,40,116,1
0,40,125,0
0,28,106,1
0,52,102,1
0,65,90,26
0,74,104,0
0,38,111,0
0,74,107,0
0,68,102,0
0,64,102,0
0,71,96,0
0,40,112,0
0,52,118,0
0,35,116,1
0,68,83,0
0,64,83,0
0,71,83,0
0,68,83,22
0,74,112,1
0,64,112,0
0,68,107,0
0,64,83,0
0,71,83,0
0,71,107,1
0,52,107,0
0,40,118,0
0,74,115,0
0,65,95,1
0,40,120,22
0,40,121,0
0,65,95,1
0,28,88,3
0,74,109,0
0,46,91,0
0,69,83,0
0,72,112,0
0,69,112,0
0,64,112,0
0,57,107,0
0,45,112,0
0,64,83,0
0,60,83,0
0,33,106,0
0,72,93,1
0,64,90,0
0,35,116,0
0,42,100,0
0,81,31,0
0,81,74,0
0,83,31,0
0,83,74,2
0,45,95,1
0,57,74,0
0,84,74,0
0,84,31,0
0,88,31,1
0,88,73,2
0,45,73,7
0,81,31,1
0,40,116,1
0,33,95,0
0,81,73,0
0,83,31,0
0,83,72,2
0,84,31,5
0,57,72,1
0,45,92,1
0,84,72,0
0,88,31,1
0,88,72,3
0,81,31,2
0,45,72,1
0,35,116,1
0,33,106,0
0,81,72,0
0,83,31,6
0,83,72,2
0,84,31,0
0,57,71,17
0,35,116,1
0,45,92,0
0,84,71,0
0,88,29,1
0,88,70,3
0,45,70,19
0,81,29,0
0,40,120,2
0,33,106,0
0,81,70,0
0,83,29,1
0,83,70,9
0,84,28,1
0,64,73,0
0,57,70,3
0,84,70,0
0,45,88,2
0,88,28,2
0,88,70,0
0,64,75,0
0,33,106,2
0,35,116,1
0,76,78,0
0,72,78,0
0,69,74,0
0,45,86,0
0,65,86,0
0,45,85,3
0,77,93,1
0,57,83,0
0,65,90,0
0,33,101,0
0,35,110,1
0,72,72,0
0,77,83,0
0,69,71,0
0,45,93,0
0,64,83,0
0,45,85,0
0,76,80,0
0,57,83,2
0,33,101,4
0,72,71,0
0,76,86,0
0,64,75,0
0,35,116,0
0,69,78,0
0,45,83,0
0,65,86,0
0,45,85,1
0,77,86,0
0,57,83,1
0,65,93,0
0,33,101,18
0,45,93,0
0,77,93,0
0,72,86,0
0,69,86,0
0,35,116,1
0,45,92,3
0,76,86,0
0,57,83,0
0,64,86,0
0,32,101,4
0,44,89,0
0,35,116,1
0,76,102,0
0,71,93,0
0,68,86,0
0,64,90,0
0,44,92,26
0,77,93,1
0,56,86,0
0,65,93,0
0,32,106,14
0,77,102,0
0,68,86,0
0,71,96,0
0,44,107,0
0,35,116,1
0,65,83,0
0,64,83,0
0,44,88,0
0,76,93,0
0,56,89,0
0,64,83,0
0,32,101,1
0,68,86,0
0,44,93,0
0,71,102,0
0,76,102,0
0,35,116,1
0,69,104,0
0,44,92,2
0,56,89,0
0,76,102,0
0,81,112,0
0,71,93,0
0,69,115,0
0,32,101,2
0,44,107,0
0,81,122,0
0,71,125,0
0,76,118,0
0,35,110,1
0,76,122,3
0,44,101,1
0,80,107,0
0,71,112,0
0,56,107,0
0,68,99,1
0,28,106,1
0,40,125,0
0,35,116,1
0,52,112,26
0,28,92,1
0,40,120,22
0,40,117,0
0,40,125,0
0,28,106,1
0,52,96,0
0,77,109,0
0,74,112,1
0,77,112,0
0,68,102,0
0,35,116,1
0,71,102,0
0,52,112,0
0,40,118,0
0,38,117,0
0,64,83,0
0,68,76,1
0,68,83,1
0,71,83,0
0,77,112,1
0,74,118,0
0,68,107,0
0,71,112,0
0,35,110,1
0,52,107,0
0,40,118,0
0,71,83,0
0,64,83,0
0,68,83,0
0,77,115,0
0,68,85,0
0,40,120,17
0,40,117,0
0,71,90,0
0,28,101,3
0,69,80,0
0,64,80,0
0,46,100,1
0,72,118,0
0,76,112,0
0,69,112,0
0,57,118,0
0,45,118,0
0,72,50,0
0,77,115,0
0,76,104,1
0,33,111,0
0,35,116,1
0,42,100,0
0,81,68,0
0,81,31,0
0,69,90,0
0,83,31,15
0,83,68,1
0,57,67,13
0,84,67,0
0,45,101,1
0,84,31,0
0,88,31,0
0,88,67,2
0,45,67,18
0,40,120,0
0,33,101,0
0,81,67,0
0,81,31,0
0,83,31,0
0,83,67,0
0,84,31,9
0,57,67,1
0,45,88,2
0,84,67,0
0,88,31,3
0,88,67,0
0,45,67,1
0,81,31,0
0,35,110,1
0,33,101,0
0,81,67,0
0,83,31,19
0,83,67,0
0,57,67,22
0,84,31,0
0,35,116,1
0,84,67,0
0,45,95,0
0,88,31,2
0,88,67,1
0,45,68,8
0,81,31,0
0,40,120,1
0,33,106,0
0,81,68,0
0,83,31,0
0,83,68,1
0,84,31,0
0,84,69,0
0,64,69,0
0,45,88,1
0,57,69,1
0,88,31,2
0,88,69,1
0,74,99,0
0,74,107,1
0,71,112,0
0,64,107,0
0,45,107,0
0,35,110,0
0,32,106,0
0,74,112,0
0,71,118,0
0,64,122,0
0,57,89,0
0,45,106,1
0,74,104,0
0,45,107,24
0,40,110,1
0,33,95,0
0,72,104,0
0,72,107,0
0,64,107,0
0,69,112,0
0,57,89,0
0,45,101,1
0,32,106,22
0,45,112,0
0,35,116,1
0,45,92,1
0,57,93,0
0,33,106,21
0,45,107,0
0,40,120,1
0,45,88,16
0,57,83,0
0,72,90,0
0,45,112,0
0,71,99,0
0,35,110,0
0,32,106,0
0,64,102,0
0,71,107,0
0,68,107,0
0,45,88,1
0,71,112,2
0,57,86,0
0,64,107,0
0,68,102,0
0,71,90,0
0,33,106,25
0,40,110,1
0,45,107,0
0,72,80,0
0,45,88,6
0,69,107,2
0,72,107,0
0,64,89,0
0,57,83,0
0,71,77,1
0,69,99,1
0,57,120,13
0,33,111,1
0,35,116,1
0,45,107,0
0,45,101,4
0,57,89,1
0,31,111,1
0,40,110,1
0,43,107,0
0,55,116,2
0,43,95,2
0,46,105,1
0,55,80,0
0,29,121,2
0,41,118,0
0,35,116,1
0,42,91,0
0,53,127,0
0,41,101,1
0,69,96,0
0,74,89,0
0,53,74,0
0,74,104,0
0,65,96,0
0,74,99,0
0,41,112,0
0,40,116,1
0,29,117,0
0,74,112,0
0,65,118,0
0,69,112,0
0,41,88,1
0,53,69,0
0,72,99,0
0,41,102,0
0,35,105,1
0,29,117,0
0,65,93,0
0,69,102,0
0,72,107,0
0,41,95,1
0,53,78,0
0,72,104,0
0,72,112,0
0,69,107,0
0,65,107,0
0,41,102,2
0,40,116,1
0,29,106,0
0,53,74,1
0,35,94,1
0,41,95,0
0,72,93,0
0,71,99,0
0,41,102,1
0,60,89,0
0,71,96,0
0,65,102,0
0,35,116,1
0,29,111,0
0,41,95,1
0,53,76,0
0,71,118,1
0,60,107,0
0,65,118,0
0,71,109,0
0,29,106,2
0,41,107,0
0,40,110,1
0,72,75,0
0,41,92,0
0,53,71,0
0,65,112,0
0,69,112,0
0,60,107,1
0,71,69,1
0,69,99,2
0,35,110,1
0,41,112,0
0,41,117,0
0,53,121,0
0,53,95,1
0,53,83,0
0,35,110,1
0,40,111,4
0,40,122,0
0,40,110,1
0,52,119,2
0,52,101,1
0,52,93,0
0,69,107,1
0,69,104,0
0,69,99,0
0,38,111,2
0,69,107,0
0,35,110,1
0,38,112,0
0,62,119,0
0,62,120,0
0,62,96,0
0,65,96,0
0,71,93,0
0,50,92,1
0,71,102,0
0,50,76,2
0,71,93,0
0,38,95,3
0,71,118,0
0,40,116,1
0,38,102,0
0,69,104,0
0,69,93,2
0,50,78,0
0,50,85,2
0,69,112,2
0,69,86,0
0,38,102,2
0,35,110,1
0,38,95,0
0,71,90,0
0,50,85,1
0,71,86,0
0,50,74,0
0,71,115,0
0,71,93,0
0,38,102,9
0,40,110,1
0,38,92,0
0,69,90,0
0,50,74,0
0,50,88,2
0,69,107,1
0,63,117,1
0,39,106,1
0,39,93,0
0,63,109,0
0,35,110,1
0,69,93,0
0,69,112,0
0,66,93,0
0,63,89,0
0,71,86,0
0,51,88,0
0,51,78,0
0,71,96,2
0,71,104,0
0,39,106,1
0,40,116,0
0,39,107,0
0,71,112,0
0,69,99,0
0,51,88,1
0,69,96,0
0,51,71,1
0,69,90,0
0,39,101,1
0,39,102,0
0,35,120,1
0,69,112,0
0,72,93,0
0,51,86,1
0,51,101,0
0,72,107,0
0,39,107,3
0,40,116,1
0,39,106,0
0,72,104,0
0,72,112,0
0,51,106,6
0,51,86,0
0,71,107,1
0,71,86,0
0,40,86,1
0,52,88,0
0,52,102,1
0,59,83,2
0,56,93,1
0,59,112,1
0,64,96,6
0,68,76,11
0,71,83,10
0,76,89,15
0,80,102,11
0,62,88,46
0,50,88,4
0,63,88,1
0,51,88,0
0,64,88,0
0,52,88,2
0,65,89,12
0,53,89,0
0,62,90,26
0,50,90,0
0,64,90,20
0,52,90,0
0,60,90,25
0,48,90,0
0,62,89,4
0,50,89,1
0,59,89,3
0,47,89,1
0,64,119,0
0,40,111,1
0,64,114,0
0,52,114,0
0,53,88,1
0,65,106,0
0,41,101,1
0,65,88,0
0,50,107,2
0,62,112,0
0,38,101,1
0,62,118,0
0,52,85,2
0,64,85,0
0,40,106,1
0,64,102,0
0,60,112,3
0,48,122,0
0,36,95,1
0,60,108,0
0,62,83,1
0,50,83,0
0,62,95,1
0,38,101,1
0,59,111,2
0,47,111,1
0,59,105,0
0,35,106,1
0,48,80,0
0,60,80,0
0,60,102,0
0,40,115,0
0,28,93,0
0,35,116,1
0,36,111,0
0,57,112,9
0,45,119,6
0,81,93,0
0,72,76,0
0,60,76,0
0,57,79,0
0,69,76,0
0,35,110,0
0,72,65,0
0,69,68,0
0,33,104,0
0,69,75,0
0,33,111,0
0,72,107,0
0,76,107,0
0,69,107,0
0,76,70,0
0,69,110,0
0,69,20,3
0,76,63,0
0,83,93,0
0,72,70,0
0,69,65,1
0,35,101,1
0,71,76,0
0,59,79,0
0,74,76,0
