track,note,velocity,time
0,67,74,3
0,71,90,0
0,74,66,0
0,67,52,9
0,71,54,0
0,74,62,0
0,71,54,239
0,76,54,0
0,67,54,2
0,67,80,4
0,71,90,0
0,76,66,0
0,64,54,492
0,67,66,0
0,71,62,0
0,67,90,1
0,71,80,0
0,64,80,24
0,71,90,229
0,66,54,23
0,71,66,0
0,74,62,0
0,66,80,1
0,74,80,0
0,31,90,3
0,71,98,3
0,74,90,0
0,67,80,1
0,36,98,2
0,42,98,0
0,67,66,5
0,71,66,0
0,74,66,0
0,42,52,1
0,36,90,14
0,38,103,0
0,42,90,0
0,33,90,126
0,46,90,1
0,73,66,4
0,76,70,0
0,69,66,1
0,64,98,14
0,69,98,0
0,73,80,0
0,76,80,0
0,36,103,127
0,42,80,0
0,42,66,90
0,36,98,153
0,38,98,0
0,42,103,0
0,33,46,92
0,42,46,6
0,33,52,48
0,36,90,1
0,42,98,0
0,42,52,112
0,33,52,4
0,33,90,52
0,38,98,0
0,42,90,0
0,36,98,2
0,33,46,117
0,46,58,0
0,36,98,132
0,42,98,0
0,33,90,9
0,38,98,91
0,42,74,0
0,33,52,9
0,33,98,128
0,36,98,4
0,38,103,0
0,42,103,0
0,33,80,117
0,46,90,0
0,66,70,10
0,69,70,0
0,74,66,0
0,38,80,5
0,36,98,0
0,43,58,0
0,62,92,16
0,50,92,0
0,69,52,81
0,42,50,0
0,74,52,16
0,66,46,2
0,36,80,118
0,38,80,0
0,42,98,0
0,69,70,15
0,74,52,0
0,66,66,2
0,40,90,0
0,42,90,0
0,74,62,3
0,67,74,1
0,71,70,0
0,64,108,26
0,52,108,0
0,36,74,102
0,42,66,0
0,67,54,11
0,71,52,0
0,74,46,0
0,42,34,96
0,67,48,11
0,71,46,0
0,74,46,0
0,67,70,122
0,71,70,0
0,74,66,0
0,36,90,1
0,38,98,0
0,42,98,0
0,42,40,96
0,67,46,9
0,71,39,0
0,74,44,0
0,46,70,127
0,47,66,0
0,36,98,2
0,42,90,0
0,59,92,15
0,47,92,0
0,67,66,1
0,71,70,0
0,74,66,0
0,42,39,35
0,71,48,7
0,74,48,0
0,50,54,0
0,67,52,1
0,71,50,116
0,74,46,0
0,67,54,2
0,36,98,0
0,38,98,0
0,42,98,0
0,52,66,3
0,47,58,0
0,42,46,4
0,62,116,14
0,50,116,0
0,66,70,0
0,71,70,0
0,74,62,0
0,36,98,98
0,42,80,0
0,71,39,3
0,74,37,0
0,66,50,1
0,66,52,107
0,71,48,0
0,74,52,0
0,42,50,5
0,71,74,123
0,74,66,0
0,66,74,2
0,36,98,0
0,38,98,0
0,42,90,0
0,47,52,54
0,46,48,0
0,74,46,4
0,66,44,2
0,71,46,0
0,62,98,98
0,50,98,0
0,35,80,5
0,36,98,1
0,42,70,0
0,71,80,8
0,74,66,0
0,66,74,1
0,66,52,95
0,74,52,0
0,42,58,1
0,71,58,15
0,38,98,107
0,42,98,0
0,36,90,1
0,71,62,3
0,74,62,0
0,66,66,1
0,40,80,6
0,64,62,6
0,69,74,0
0,73,70,0
0,42,44,1
0,64,98,15
0,52,98,0
0,42,98,105
0,36,98,2
0,64,40,3
0,69,44,0
0,73,46,0
0,42,66,106
0,42,46,0
0,73,54,3
0,64,54,1
0,69,58,0
0,36,98,123
0,38,98,0
0,42,90,0
0,73,70,3
0,64,70,2
0,69,90,0
0,64,52,113
0,69,44,0
0,73,44,0
0,42,46,0
0,64,58,118
0,69,70,0
0,73,58,0
0,42,90,0
0,36,98,1
0,69,52,117
0,73,50,0
0,64,52,1
0,42,37,0
0,44,80,118
0,36,74,1
0,38,98,0
0,42,98,0
0,69,80,10
0,73,70,0
0,64,58,1
0,42,33,111
0,42,54,3
0,64,54,0
0,69,50,0
0,73,48,0
0,64,50,105
0,69,52,0
0,73,46,0
0,40,62,0
0,36,98,1
0,42,90,0
0,42,70,16
0,42,27,5
0,73,74,4
0,64,66,2
0,69,80,0
0,38,98,117
0,42,98,0
0,36,80,2
0,64,66,5
0,69,66,0
0,73,62,0
0,64,70,118
0,69,80,0
0,73,74,0
0,46,58,4
0,62,116,99
0,50,116,0
0,38,70,0
0,36,90,3
0,42,90,0
0,66,44,10
0,69,44,0
0,74,52,0
0,69,46,101
0,74,48,0
0,66,39,2
0,42,52,4
0,42,98,118
0,36,80,1
0,38,80,0
0,69,80,9
0,74,62,0
0,66,74,1
0,71,62,59
0,40,80,0
0,67,66,1
0,42,54,0
0,74,52,11
0,64,108,5
0,52,108,0
0,67,44,113
0,71,46,0
0,42,90,0
0,36,90,1
0,74,46,19
0,71,74,112
0,74,54,0
0,67,66,1
0,42,40,0
0,38,90,119
0,71,80,7
0,74,54,0
0,67,66,2
0,36,90,3
0,42,98,0
0,46,54,11
0,67,38,5
0,71,50,0
0,74,44,0
0,59,92,118
0,47,92,0
0,71,70,5
0,74,58,0
0,67,66,1
0,54,70,5
0,36,80,0
0,42,90,0
0,42,54,7
0,52,48,3
0,67,54,8
0,71,62,0
0,74,22,0
0,74,46,20
0,45,54,0
0,67,54,2
0,71,52,0
0,36,90,0
0,38,98,0
0,42,98,0
0,47,66,18
0,42,52,1
0,71,70,10
0,74,58,0
0,66,70,2
0,62,108,4
0,50,108,0
0,66,44,102
0,71,39,0
0,74,48,0
0,36,90,2
0,42,98,0
0,42,35,112
0,71,58,10
0,74,50,0
0,66,54,2
0,36,90,128
0,38,98,0
0,42,90,0
0,71,80,5
0,74,58,0
0,66,74,1
0,46,54,102
0,74,48,8
0,66,44,1
0,71,44,0
0,62,98,106
0,50,98,0
0,35,80,16
0,42,90,0
0,36,98,2
0,74,62,5
0,66,70,2
0,71,74,0
0,71,42,93
0,74,52,0
0,66,48,1
0,42,54,0
0,36,98,118
0,38,98,0
0,42,98,0
0,66,62,10
0,71,52,0
0,74,58,0
0,40,90,75
0,73,90,5
0,64,54,1
0,42,70,0
0,64,92,12
0,52,92,0
0,69,90,3
0,65,33,1
0,42,40,105
0,36,98,0
0,42,90,0
0,69,46,9
0,73,46,0
0,64,40,1
0,73,46,98
0,64,48,1
0,69,44,0
0,42,50,4
0,36,80,124
0,38,98,0
0,42,98,0
0,73,66,10
0,69,80,1
0,64,66,1
0,42,37,108
0,64,48,12
0,69,46,0
0,73,44,0
0,73,52,117
0,64,54,1
0,69,58,0
0,42,98,0
0,36,98,1
0,42,35,103
0,73,46,9
0,64,46,1
0,69,50,0
0,44,90,60
0,42,98,5
0,36,90,2
0,38,98,0
0,69,98,10
0,73,80,0
0,64,66,2
0,73,42,105
0,42,52,0
0,64,46,2
0,69,39,0
0,42,42,0
0,42,98,23
0,36,80,2
0,40,58,7
0,64,44,2
0,69,42,0
0,73,40,0
0,73,90,9
0,42,50,0
0,42,62,4
0,69,90,10
0,64,70,1
0,38,103,103
0,42,90,0
0,36,98,1
0,73,39,10
0,64,46,2
0,69,44,0
0,66,98,103
0,54,98,0
0,69,50,5
0,73,50,0
0,42,74,1
0,64,54,12
0,35,103,96
0,62,66,6
0,66,58,0
0,71,62,0
0,36,90,1
0,43,66,0
0,66,64,5
0,54,64,0
0,42,42,3
0,66,108,94
0,54,108,0
0,42,90,12
0,36,90,2
0,38,90,0
0,40,70,110
0,42,35,0
0,64,76,7
0,52,76,0
0,42,39,19
0,35,80,32
0,36,80,4
0,42,103,0
0,64,98,7
0,52,98,0
0,42,34,52
0,62,84,9
0,50,84,0
0,35,98,1
0,38,98,55
0,42,98,0
0,36,90,1
0,62,108,12
0,50,108,0
0,42,36,99
0,35,33,6
0,61,70,17
0,49,70,0
0,36,90,22
0,66,46,0
0,71,54,0
0,35,98,4
0,42,90,5
0,42,34,48
0,36,80,142
0,38,90,0
0,42,90,0
0,42,34,99
0,40,98,3
0,42,54,40
0,62,98,27
0,50,98,0
0,36,90,6
0,42,80,0
0,35,74,3
0,42,31,43
0,35,66,14
0,64,92,13
0,52,92,0
0,66,88,115
0,54,88,0
0,36,80,5
0,38,98,0
0,42,90,0
0,46,70,28
0,66,84,8
0,54,84,0
0,64,70,139
0,69,90,0
0,74,80,0
0,33,90,4
0,36,80,1
0,42,80,0
0,64,70,31
0,52,70,0
0,42,39,5
0,38,98,144
0,42,98,0
0,36,74,2
0,38,98,75
0,42,37,1
0,64,90,8
0,69,90,0
0,73,90,0
0,40,66,42
0,36,90,29
0,42,90,0
0,33,66,9
0,42,40,48
0,33,70,4
0,71,80,7
0,69,54,1
0,64,58,1
0,73,80,42
0,42,90,6
0,36,90,2
0,38,98,0
0,64,62,15
0,69,70,0
0,36,48,131
0,46,54,0
0,33,98,32
0,42,90,4
0,36,98,1
0,74,70,6
0,69,80,1
0,64,90,1
0,42,40,109
0,38,90,144
0,42,90,0
0,36,90,1
0,43,74,5
0,42,50,0
0,69,90,16
0,73,80,0
0,64,90,2
0,45,58,39
0,33,80,36
0,36,90,0
0,42,98,0
0,33,90,43
0,42,50,1
0,69,54,14
0,71,74,0
0,64,58,1
0,69,66,22
0,73,66,0
0,64,52,1
0,36,90,5
0,38,98,0
0,42,90,0
0,46,62,53
0,33,39,4
0,55,80,118
0,43,80,0
0,31,98,9
0,36,98,0
0,42,98,0
0,71,48,5
0,62,54,1
0,67,70,0
0,69,54,0
0,64,80,98
0,52,80,0
0,42,52,1
0,64,108,83
0,52,108,0
0,36,98,24
0,38,90,0
0,42,98,0
0,62,80,0
0,50,80,0
0,42,46,3
0,38,98,5
0,40,50,24
0,62,108,24
0,50,108,0
0,31,66,11
0,36,90,5
0,42,90,0
0,42,50,50
0,61,88,6
0,49,88,0
0,31,70,3
0,61,92,41
0,49,92,0
0,38,98,5
0,42,98,0
0,36,90,1
0,42,46,108
0,42,46,1
0,59,72,10
0,47,72,0
0,43,52,33
0,69,66,48
0,31,98,0
0,62,62,1
0,67,66,0
0,36,98,7
0,42,90,0
0,42,44,112
0,36,90,128
0,38,90,0
0,42,80,0
0,38,70,7
0,42,46,4
0,62,58,18
0,67,62,0
0,71,74,0
0,40,62,30
0,36,98,40
0,42,90,0
0,59,92,9
0,47,92,0
0,31,98,0
0,31,74,57
0,42,58,2
0,61,88,16
0,49,88,0
0,36,90,112
0,38,98,0
0,42,98,0
0,62,98,11
0,50,98,0
0,33,66,129
0,46,58,0
0,61,98,0
0,49,98,0
0,62,66,42
0,66,62,0
0,71,66,0
0,74,66,0
0,42,90,1
0,36,98,1
0,35,90,3
0,42,36,117
0,38,90,148
0,42,90,0
0,36,98,1
0,42,39,109
0,35,90,4
0,62,76,40
0,50,76,0
0,61,68,71
0,49,68,0
0,59,76,40
0,47,76,0
0,36,98,11
0,42,103,0
0,42,46,93
0,35,98,4
0,36,90,72
0,38,98,0
0,42,90,0
0,42,62,101
0,35,74,3
0,66,74,8
0,35,66,5
0,38,98,0
0,42,103,0
0,36,98,1
0,71,58,3
0,74,58,0
0,78,90,234
0,71,90,13
0,74,98,0
0,38,98,7
0,78,80,4
0,71,46,17
0,74,74,0
0,71,50,11
0,74,66,10
0,78,80,0
0,59,108,63
0,31,103,6
0,38,98,0
0,55,98,5
0,62,108,0
0,59,84,27
0,62,88,0
0,38,80,6
0,41,98,0
0,31,80,7
0,55,88,14
0,74,80,15
0,71,90,1
0,61,92,16
0,64,88,0
0,38,98,5
0,41,98,0
0,33,90,4
0,57,92,10
0,76,80,10
0,57,84,21
0,64,84,0
0,33,98,6
0,36,103,0
0,43,98,0
0,81,62,11
0,73,62,2
0,69,62,11
0,73,80,0
0,76,74,0
0,61,84,17
0,62,32,4
0,55,24,2
0,59,31,0
0,61,35,102
0,42,39,0
0,57,36,16
0,64,30,10
0,42,90,137
0,38,80,1
0,36,80,1
0,45,90,7
0,31,42,50
0,55,116,0
0,42,34,1
0,33,90,48
0,36,80,6
0,42,103,0
0,55,116,8
0,45,42,16
0,42,38,0
0,42,98,1
0,36,90,1
0,38,98,0
0,45,90,6
0,46,50,39
0,43,52,20
0,45,54,0
0,33,70,22
0,36,90,4
0,42,90,0
0,73,98,6
0,76,98,0
0,76,58,9
0,81,70,23
0,33,32,12
0,42,38,0
0,73,70,16
0,76,62,0
0,38,80,31
0,76,80,5
0,57,80,4
0,61,84,0
0,64,84,0
0,36,80,5
0,42,90,0
0,73,80,19
0,42,39,31
0,40,44,7
0,57,70,0
0,73,80,7
0,76,74,0
0,42,103,40
0,36,98,1
0,33,80,9
0,64,88,8
0,57,98,1
0,61,98,0
0,73,90,7
0,76,98,0
0,42,39,28
0,33,74,4
0,57,80,7
0,73,62,10
0,76,70,0
0,38,80,35
0,42,103,0
0,69,84,0
0,36,90,1
0,81,90,9
0,73,74,20
0,42,48,30
0,45,52,4
0,57,88,6
0,62,92,0
0,66,98,0
0,74,80,9
0,81,70,0
0,78,98,25
0,62,42,23
0,74,70,7
0,38,80,2
0,66,46,1
0,42,103,0
0,36,98,1
0,78,54,16
0,81,52,0
0,42,37,96
0,42,90,50
0,57,70,0
0,36,90,2
0,38,98,0
0,78,98,31
0,74,80,1
0,42,39,24
0,57,70,5
0,38,50,4
0,74,70,12
0,78,80,0
0,66,70,30
0,57,68,1
0,38,70,5
0,42,98,1
0,36,90,1
0,74,74,13
0,78,80,0
0,59,48,12
0,55,39,16
0,38,74,1
0,42,50,0
0,74,66,6
0,79,66,0
0,31,90,0
0,71,66,2
0,62,92,2
0,55,98,32
0,59,98,0
0,71,90,31
0,36,98,1
0,38,98,0
0,42,98,0
0,55,92,0
0,59,88,0
0,31,80,7
0,74,80,27
0,62,92,3
0,33,90,6
0,46,62,1
0,76,80,21
0,64,92,0
0,57,108,2
0,61,108,0
0,81,52,7
0,57,34,0
0,61,38,0
0,64,31,0
0,33,90,8
0,76,54,0
0,36,98,0
0,42,90,0
0,61,88,2
0,64,80,0
0,57,92,1
0,73,62,26
0,76,54,0
0,73,90,11
0,42,39,116
0,36,98,17
0,38,80,0
0,42,90,0
0,42,38,105
0,43,90,4
0,55,116,10
0,45,52,31
0,36,98,15
0,42,90,0
0,33,74,10
0,55,116,0
0,33,74,8
0,42,38,0
0,36,80,6
0,38,98,0
0,42,98,0
0,42,58,6
0,43,44,3
0,45,58,19
0,36,90,32
0,42,98,0
0,76,54,9
0,81,52,0
0,33,80,0
0,73,52,1
0,73,90,3
0,76,80,0
0,42,38,5
0,33,74,9
0,76,66,5
0,73,74,18
0,73,90,40
0,76,80,0
0,36,80,0
0,38,98,0
0,42,103,0
0,33,29,8
0,61,92,16
0,64,92,0
0,57,84,1
0,42,34,17
0,40,62,8
0,73,80,14
0,76,80,0
0,57,72,0
0,36,98,40
0,42,98,0
0,69,52,3
0,73,80,6
0,76,80,0
0,33,80,1
0,61,98,0
0,64,98,0
0,57,92,1
0,42,50,19
0,33,66,9
0,78,90,18
0,45,52,16
0,36,74,4
0,38,98,0
0,42,90,0
0,69,98,8
0,79,74,12
0,74,90,40
0,78,98,0
0,81,80,0
0,46,54,2
0,33,90,2
0,57,80,0
0,62,108,0
0,66,92,0
0,66,50,16
0,74,66,9
0,42,98,4
0,36,113,2
0,38,90,2
0,62,54,16
0,78,62,5
0,81,62,0
0,42,37,107
0,42,98,58
0,36,98,1
0,38,98,0
0,57,68,10
0,42,74,13
0,29,48,7
0,59,84,5
0,62,88,0
0,67,108,0
0,83,66,26
0,42,98,0
0,36,103,1
0,31,90,8
0,74,80,2
0,79,80,0
0,59,38,7
0,67,62,0
0,59,80,7
0,71,70,3
0,74,66,0
0,79,52,0
0,31,44,33
0,42,54,0
0,35,66,14
0,59,68,1
0,38,98,5
0,42,98,0
0,36,74,2
0,33,74,38
0,69,70,5
0,42,46,1
0,69,52,5
0,57,33,9
0,64,48,0
0,36,98,4
0,42,103,0
0,81,80,10
0,61,88,7
0,64,88,0
0,69,88,0
0,76,90,5
0,42,38,105
0,61,39,86
0,36,98,6
0,38,98,0
0,42,90,0
0,45,90,113
0,42,37,1
0,42,90,29
0,36,80,1
0,33,74,8
0,38,70,41
0,33,70,5
0,42,36,4
0,45,52,86
