track,note,velocity,time
3,69,112,0
3,69,0,39
3,69,117,0
3,69,0,39
3,69,112,0
3,69,0,23
3,69,117,0
3,69,0,40
3,68,102,0
3,68,0,47
3,68,98,0
3,68,0,47
3,69,102,0
3,69,0,33
3,69,107,0
3,69,0,60
3,69,94,0
3,69,0,22
3,69,112,0
3,69,0,30
3,69,112,34
3,69,0,32
3,67,62,0
3,67,0,57
3,67,102,0
3,67,0,44
3,66,117,0
3,66,0,32
3,64,86,0
3,64,0,37
3,64,78,0
3,64,0,32
3,69,102,0
3,69,0,48
3,69,117,0
3,69,0,32
3,69,112,0
3,69,0,29
3,69,112,0
3,69,0,32
3,68,72,0
3,68,0,40
3,68,102,0
3,68,0,50
3,68,107,0
3,68,0,39
3,69,112,0
3,69,0,46
3,69,117,0
3,69,0,59
3,69,107,0
3,69,0,45
3,69,117,0
3,69,0,32
3,67,68,0
3,67,0,39
3,67,86,0
3,67,0,25
3,67,107,0
3,67,0,32
3,66,76,0
3,66,0,48
3,66,82,0
3,66,0,40
3,66,117,0
3,66,0,32
3,64,82,0
3,64,0,42
3,64,82,0
3,64,78,0
3,64,0,8
3,64,0,53
3,62,94,0
3,62,0,32
3,59,117,0
3,59,0,37
3,59,98,0
3,59,0,96
3,61,107,0
3,61,0,15
3,61,98,0
3,61,0,35
3,61,102,0
3,61,0,96
3,62,112,0
3,62,0,17
3,62,98,0
3,62,0,36
3,62,112,0
3,62,0,63
3,59,117,0
3,59,0,30
3,59,117,0
3,59,0,96
3,61,86,0
3,61,0,27
3,62,98,0
3,62,0,42
3,64,117,0
3,64,0,56
3,66,107,0
3,66,0,32
3,68,98,0
3,68,0,47
3,69,102,0
3,69,0,396
3,69,122,0
3,69,0,32
3,69,107,0
3,69,0,15
3,69,102,0
3,69,0,39
3,71,112,0
3,71,0,31
3,71,90,0
3,71,0,22
3,69,102,0
3,69,0,52
3,67,112,0
3,67,0,44
3,66,102,0
3,66,0,19
3,66,102,0
3,66,0,36
3,66,102,0
3,66,0,86
3,67,94,0
3,67,0,22
3,67,107,0
3,67,0,54
3,71,112,0
3,71,0,41
3,71,107,0
3,71,0,27
3,69,117,0
3,69,0,48
3,71,107,0
3,71,0,37
3,71,98,0
3,71,0,26
3,69,102,0
3,69,0,41
3,71,112,0
3,71,0,55
3,71,107,0
3,71,0,28
3,69,117,0
3,69,0,50
3,67,102,0
3,66,102,32
3,67,0,3
3,66,0,18
3,66,92,0
3,66,0,29
3,66,94,0
3,66,0,11
3,71,122,0
3,71,0,51
3,71,112,0
3,71,0,26
3,69,107,0
3,69,0,43
3,71,117,0
3,71,0,48
3,71,102,0
3,71,0,19
3,69,105,0
3,69,0,61
3,67,112,0
3,67,0,44
3,66,102,0
3,66,0,16
3,66,98,0
3,66,0,38
3,66,117,0
3,66,0,73
3,67,107,0
3,67,0,20
3,67,107,0
3,67,0,48
3,71,122,0
3,71,0,39
3,71,107,0
3,71,0,26
3,69,112,0
3,69,0,53
3,71,117,0
3,71,0,27
3,71,107,0
3,71,0,30
3,69,112,0
3,69,0,49
3,66,98,0
3,66,0,80
3,64,102,0
3,64,0,18
3,64,94,0
3,64,0,36
3,64,112,0
3,64,0,89
3,62,98,0
3,62,0,19
3,62,90,0
3,62,0,66
3,74,122,0
3,74,0,85
3,73,102,0
3,73,0,56
3,71,117,0
3,71,0,72
3,69,117,0
3,69,0,38
3,71,122,0
3,71,0,41
3,71,102,0
3,71,0,25
3,69,117,0
3,69,0,58
3,71,112,0
3,71,0,59
3,69,107,0
3,69,0,15
3,69,98,0
3,69,0,53
3,66,102,0
3,66,0,58
3,66,107,0
3,66,0,19
3,64,112,0
3,64,0,43
3,64,94,0
3,64,0,89
3,62,98,0
3,62,0,21
3,62,94,0
3,62,0,93
3,69,112,0
3,69,0,48
3,69,112,0
3,69,0,44
3,69,117,0
3,69,0,43
3,69,117,0
3,69,0,50
3,68,117,0
3,68,0,44
3,68,117,0
3,68,0,47
3,69,102,0
3,69,0,45
3,69,122,0
3,69,0,67
3,69,98,0
3,69,0,16
3,69,102,16
3,69,0,39
3,69,117,0
3,69,0,32
3,67,68,0
3,67,0,66
3,67,112,0
3,67,0,48
3,66,112,0
3,66,0,32
3,64,74,0
3,64,0,44
3,64,82,0
3,64,0,43
3,69,117,0
3,69,0,47
3,69,112,0
3,69,0,41
3,69,112,0
3,69,0,28
3,69,112,0
3,69,0,32
3,68,74,0
3,68,0,40
3,68,112,0
3,68,0,44
3,68,112,0
3,68,0,36
3,69,117,0
3,69,0,46
3,69,112,0
3,69,0,49
3,69,112,0
3,69,0,35
3,69,117,0
3,69,0,32
3,67,66,0
3,67,0,40
3,67,103,0
3,67,0,38
3,67,112,0
3,67,0,32
3,66,66,0
3,66,0,45
3,66,90,0
3,66,0,31
3,66,112,0
3,66,0,32
3,64,70,0
3,64,0,46
3,64,82,0
3,64,0,44
3,62,107,0
3,62,0,46
3,59,117,0
3,59,0,35
3,59,102,0
3,59,0,49
3,61,107,0
3,61,0,17
3,61,112,0
3,61,0,37
3,61,117,0
3,61,0,38
3,62,107,0
3,62,0,22
3,62,102,0
3,62,0,43
3,62,107,0
3,62,0,56
3,59,107,0
3,59,0,33
3,59,117,0
3,59,0,53
3,61,102,0
3,61,0,19
3,62,94,0
3,62,0,38
3,64,117,0
3,64,0,46
3,66,107,0
3,66,0,22
3,68,102,0
3,68,0,42
3,69,107,0
3,69,0,181
3,71,122,0
3,71,0,61
3,71,112,0
3,71,0,29
3,69,102,0
3,69,0,48
3,71,122,0
3,71,0,32
3,71,117,0
3,71,0,31
3,69,112,0
3,69,0,49
3,67,112,0
3,67,0,42
3,66,98,0
3,66,0,18
3,66,102,0
3,66,0,36
3,66,107,0
3,66,0,64
3,67,102,0
3,67,0,21
3,67,107,0
3,67,0,62
3,71,117,0
3,71,0,34
3,71,112,0
3,71,0,27
3,69,107,0
3,69,0,46
3,71,117,0
3,71,0,34
3,71,102,0
3,71,0,26
3,69,102,0
3,69,0,44
3,71,117,0
3,71,0,39
3,71,107,0
3,71,0,29
3,69,102,0
3,69,0,52
3,67,107,0
3,66,90,32
3,67,0,1
3,66,0,40
3,66,98,0
3,66,0,25
3,66,107,0
3,66,0,46
3,71,122,0
3,71,0,45
3,71,102,0
3,71,0,24
3,69,112,0
3,69,0,60
3,71,107,0
3,71,0,35
3,71,98,0
3,71,0,28
3,69,117,0
3,69,0,44
3,67,102,0
3,67,0,71
3,66,102,0
3,66,0,16
3,66,102,0
3,66,0,36
3,66,98,0
3,66,0,77
3,67,102,0
3,67,0,16
3,67,112,0
3,67,0,58
3,71,122,0
3,71,0,11
3,71,107,0
3,71,0,28
3,69,98,0
3,69,0,55
3,71,112,0
3,71,0,37
3,71,94,0
3,71,0,26
3,69,112,0
3,69,0,50
3,66,98,0
3,66,0,73
3,64,98,0
3,64,0,17
3,64,98,0
3,64,0,42
3,64,117,0
3,64,0,85
3,62,90,0
3,62,0,19
3,62,98,0
3,62,0,71
3,74,122,0
3,74,0,98
3,73,112,0
3,73,0,64
3,71,112,0
3,71,0,88
3,69,94,0
3,69,0,49
3,71,112,0
3,71,0,57
3,71,102,0
3,69,112,0
3,71,0,2
3,69,0,52
3,71,107,0
3,71,0,54
3,69,102,0
3,69,0,16
3,69,102,0
3,69,0,58
3,66,102,0
3,66,0,74
3,64,94,0
3,64,0,15
3,64,107,0
3,64,0,45
3,64,117,0
3,64,0,83
3,62,94,0
3,62,0,17
3,62,94,0
3,62,0,70
3,61,117,0
3,61,0,49
3,59,102,0
3,59,0,59
3,61,107,0
3,61,0,18
3,61,102,0
3,61,0,32
3,61,112,0
3,61,0,70
3,62,107,0
3,62,0,17
3,62,117,0
3,62,0,44
3,62,117,0
3,62,0,86
3,59,117,0
3,59,0,38
3,59,102,0
3,59,0,57
3,61,107,0
3,61,0,23
3,62,98,0
3,62,0,45
3,64,107,0
3,64,0,50
3,66,102,0
3,66,0,21
3,68,98,0
3,68,0,39
3,69,107,0
3,69,0,66
3,71,112,0
3,71,0,63
3,71,102,0
3,71,0,28
3,69,112,0
3,69,0,45
3,71,112,0
3,71,0,45
3,71,102,0
3,69,112,0
3,71,0,1
3,69,0,47
3,67,117,0
3,67,0,59
3,66,102,0
3,66,0,18
3,66,107,0
3,66,0,42
3,66,107,0
3,66,0,82
3,67,98,0
3,67,0,20
3,67,102,0
3,67,0,47
3,71,117,0
3,71,0,52
3,71,112,0
3,71,0,24
3,69,107,0
3,69,0,50
3,71,122,0
3,71,0,43
3,71,76,0
3,69,112,0
3,71,0,9
3,69,0,41
3,66,102,0
3,66,0,47
3,64,102,0
3,64,0,15
3,64,112,0
3,64,0,45
3,64,107,0
3,62,94,0
3,64,0,1
3,62,0,21
3,62,98,0
3,62,0,63
3,74,122,0
3,74,0,91
3,73,112,0
3,73,0,65
3,71,112,0
3,71,0,91
3,69,94,0
3,69,0,28
3,71,117,0
3,71,0,26
3,69,102,0
3,69,0,16
3,69,98,0
3,69,0,46
3,71,107,0
3,71,0,52
3,69,112,0
3,69,0,18
3,69,94,0
3,69,0,56
3,66,98,0
3,66,0,43
3,64,102,0
3,64,0,17
3,64,102,0
3,64,0,37
3,64,112,0
3,64,0,79
3,62,98,0
3,62,0,17
3,62,94,0
3,62,0,67
3,71,117,0
3,66,90,25
3,71,0,12
3,66,0,20
3,69,107,0
3,69,0,55
3,71,107,0
3,71,0,29
3,71,117,0
3,71,0,46
3,69,90,0
3,69,0,12
3,69,112,0
3,69,0,37
3,71,122,0
3,71,0,34
3,69,102,0
3,69,0,15
3,69,94,0
3,69,0,51
3,66,102,0
3,66,0,41
3,64,102,0
3,64,0,19
3,64,102,0
3,64,0,40
3,64,112,0
3,64,0,29
3,62,94,0
3,62,0,13
3,62,98,0
3,62,0,13
3,74,107,0
3,74,0,24
3,73,117,0
3,73,0,5
3,71,112,0
3,71,0,39
3,69,98,0
3,69,0,36
3,71,107,0
3,71,0,46
3,69,102,0
3,69,0,18
3,69,102,0
3,69,0,1
3,71,112,0
3,71,0,35
3,69,102,0
3,69,0,17
3,69,94,0
3,69,0,2
3,66,102,0
3,66,0,12
3,64,98,0
3,64,0,16
3,64,98,0
3,64,0,36
3,64,112,0
3,64,0,8
3,62,94,0
3,62,0,15
3,62,90,0
3,62,0,36
4,67,102,7513
4,67,0,78
4,67,84,18
4,67,0,30
4,66,97,2
4,66,0,54
4,67,97,202
4,67,0,60
4,67,88,36
4,67,0,30
4,66,97,2
4,66,0,33
4,64,84,31
4,64,0,84
4,62,88,12
4,62,0,18
4,62,72,14
4,62,0,43
4,61,97,21
4,61,0,95
4,62,84,1
4,62,0,20
4,62,88,12
4,62,0,57
4,62,107,583
4,62,0,83
4,62,84,13
4,62,0,27
4,61,102,5
4,61,0,58
4,62,107,198
4,62,0,63
4,62,97,33
4,61,92,32
4,62,0,1
4,61,0,36
4,62,88,27
4,62,0,78
4,62,84,18
4,62,0,29
4,61,92,3
4,61,0,51
4,59,97,13
4,59,0,66
4,57,92,30
4,57,0,29
4,57,102,3
4,57,0,61
4,67,107,579
4,67,0,79
4,67,92,17
4,67,0,28
4,66,97,4
4,66,0,56
4,67,102,200
4,67,0,66
4,67,84,30
4,67,0,25
4,66,92,7
4,66,0,34
4,64,97,30
4,64,0,72
4,62,97,24
4,62,0,16
4,62,84,16
4,62,0,33
4,61,92,31
4,61,0,87
4,62,64,9
4,62,0,18
4,62,84,14
4,62,0,61
4,62,107,579
4,62,0,67
4,62,92,29
4,62,0,26
4,61,92,6
4,61,0,59
4,62,97,197
4,62,0,47
4,62,84,49
4,61,92,32
4,62,0,7
4,61,0,54
4,57,88,3
4,57,0,74
4,55,102,22
4,55,0,19
4,55,97,13
4,55,0,35
4,55,107,29
4,55,0,79
4,54,97,17
4,54,0,21
4,54,107,11
4,54,0,62
4,66,107,194
4,66,0,109
4,64,97,19
4,64,0,67
4,62,102,29
4,62,0,51
4,61,84,45
4,61,0,38
4,62,97,26
4,62,0,69
4,62,84,27
4,62,0,29
4,61,88,3
4,61,0,67
4,62,97,189
4,62,0,61
4,62,84,35
4,62,0,31
4,61,92,1
4,61,0,44
4,57,97,20
4,57,0,79
4,55,92,17
4,55,0,18
4,55,92,14
4,55,0,33
4,55,102,31
4,55,0,88
4,54,97,8
4,54,0,21
4,54,102,11
4,54,0,107
4,66,97,565
4,69,92,0
4,74,88,0
4,66,0,771
4,74,0,1
4,69,0,2
4,67,102,5338
4,67,0,81
4,67,92,15
4,67,0,27
4,66,92,5
4,66,0,59
4,67,102,197
4,67,0,60
4,67,88,36
4,66,92,32
4,67,0,2
4,66,0,32
4,64,92,30
4,64,0,58
4,62,88,38
4,62,0,18
4,62,76,14
4,62,0,36
4,61,102,28
4,61,0,84
4,62,76,12
4,62,0,20
4,62,88,12
4,62,0,61
4,62,112,579
4,62,0,69
4,62,97,27
4,62,0,26
4,61,88,6
4,61,0,48
4,62,102,208
4,62,0,46
4,62,88,50
4,62,0,24
4,61,97,8
4,61,0,43
4,62,102,21
4,62,0,53
4,62,84,43
4,62,0,25
4,61,92,7
4,61,0,36
4,59,102,28
4,59,0,28
4,57,88,4
4,57,0,36
4,57,80,28
4,57,0,14
4,57,84,18
4,57,0,61
4,67,102,579
4,67,0,64
4,67,88,32
4,67,0,26
4,66,92,6
4,66,0,49
4,67,97,207
4,67,0,50
4,67,84,46
4,66,92,32
4,67,0,8
4,66,0,25
4,64,92,31
4,64,0,46
4,62,84,50
4,62,0,19
4,62,88,13
4,62,0,44
4,61,102,20
4,61,0,77
4,62,84,19
4,62,0,21
4,62,92,11
4,62,0,52
4,62,97,588
4,62,0,70
4,62,92,26
4,62,0,28
4,61,88,4
4,61,0,60
4,62,102,196
4,62,0,53
4,62,88,43
4,62,0,31
4,61,88,1
4,61,0,35
4,57,84,29
4,57,0,59
4,55,88,37
4,55,0,15
4,55,92,17
4,55,0,38
4,55,102,26
4,55,0,69
4,54,88,27
4,54,0,19
4,54,97,13
4,54,0,99
4,66,107,157
4,66,0,103
4,64,97,25
4,64,0,68
4,62,97,28
4,62,0,60
4,61,92,36
4,61,0,53
4,62,102,11
4,62,0,78
4,62,80,18
4,62,0,25
4,61,92,7
4,61,0,55
4,62,97,201
4,62,0,54
4,62,80,42
4,62,0,31
4,61,88,1
4,61,0,42
4,57,102,22
4,57,0,84
4,55,92,12
4,55,0,18
4,55,80,14
4,55,0,26
4,55,92,38
4,55,0,68
4,54,102,28
4,54,0,18
4,54,102,14
4,54,0,83
4,59,97,493
4,59,0,24
4,59,92,40
4,59,0,86
4,61,92,10
4,61,0,17
4,61,84,15
4,61,0,37
4,61,97,27
4,61,0,56
4,62,102,40
4,62,0,20
4,62,92,12
4,62,0,39
4,62,107,25
4,62,0,104
4,59,102,216
4,59,0,27
4,59,102,37
4,59,0,68
4,61,92,28
4,61,0,20
4,62,80,12
4,62,0,42
4,64,107,22
4,64,0,56
4,66,92,40
4,66,0,21
4,68,84,11
4,68,0,45
4,69,97,19
4,69,0,342
4,67,107,42
4,67,0,71
4,67,88,25
4,67,0,24
4,66,97,8
4,66,0,53
4,67,92,203
4,67,0,46
4,67,84,50
4,67,0,20
4,66,102,12
4,66,0,31
4,64,97,33
4,64,0,52
4,62,84,44
4,62,0,20
4,62,72,12
4,62,0,36
4,61,92,28
4,61,0,88
4,62,88,8
4,62,0,21
4,62,88,11
4,62,0,62
4,62,102,578
4,62,0,43
4,62,102,53
4,62,0,26
4,61,84,6
4,61,0,51
4,62,92,205
4,62,0,54
4,62,62,42
4,62,0,24
4,61,97,8
4,61,0,40
4,57,92,24
4,57,0,78
4,55,88,18
4,55,0,21
4,55,84,11
4,55,0,30
4,55,88,34
4,55,0,69
4,54,88,27
4,54,0,18
4,54,102,14
4,54,0,68
4,66,107,188
4,66,0,109
4,64,102,19
4,64,0,67
4,62,92,29
4,62,0,63
4,61,97,33
4,61,0,51
4,62,102,13
4,62,0,68
