track,note,velocity,time
0,53,84,6
0,60,117,0
0,84,109,0
0,57,58,192
0,57,38,0
0,53,33,192
0,60,60,0
0,60,66,0
0,60,46,0
0,84,60,8
0,57,7,184
0,65,54,0
0,65,34,0
0,60,15,98
0,60,38,0
0,60,18,0
0,57,50,2
0,57,30,0
0,60,15,0
0,65,3,0
0,81,76,6
0,81,56,0
0,79,80,34
0,79,60,0
0,52,75,20
0,60,1,0
0,77,93,0
0,79,93,0
0,55,42,152
0,55,22,0
0,57,1,0
0,81,25,12
0,79,29,56
0,77,42,16
0,52,24,12
0,60,50,0
0,60,30,0
0,79,42,6
0,55,1,32
0,60,112,0
0,64,66,0
0,76,102,0
0,76,82,0
0,60,1,16
0,60,54,0
0,60,34,0
0,62,108,0
0,55,58,8
0,60,114,0
0,60,41,0
0,64,15,0
0,76,51,0
0,50,84,6
0,60,3,0
0,62,25,0
0,74,102,0
0,74,82,0
0,53,109,0
0,53,58,58
0,55,7,0
0,60,47,0
0,50,33,2
0,58,38,0
0,58,18,0
0,60,13,0
0,74,51,2
0,53,30,2
0,72,80,20
0,72,60,0
0,53,7,28
0,62,13,0
0,62,66,0
0,62,46,0
0,74,102,0
0,74,82,0
0,58,1,6
0,58,58,0
0,60,13,0
0,72,93,0
0,72,73,0
0,72,29,20
0,74,51,0
0,53,50,22
0,53,30,0
0,62,15,0
0,70,93,0
0,70,73,0
0,53,13,2
0,72,42,2
0,48,58,6
0,58,7,0
0,72,93,0
0,70,42,16
0,53,1,36
0,53,50,0
0,53,30,0
0,77,102,0
0,77,82,0
0,72,42,24
0,48,7,18
0,57,50,0
0,57,30,0
0,77,51,116
0,53,1,6
0,60,66,0
0,60,46,0
0,53,110,4
0,55,110,12
0,57,1,0
0,57,42,0
0,57,22,0
0,53,62,16
0,53,42,0
0,60,15,0
0,53,32,4
0,57,118,2
0,50,75,4
0,55,32,0
0,57,1,0
0,58,108,0
0,77,102,0
0,77,82,0
0,57,118,44
0,53,11,18
0,53,50,0
0,74,84,0
0,74,64,0
0,57,76,6
0,50,24,4
0,58,38,0
0,58,18,0
0,82,93,0
0,82,73,0
0,53,13,4
0,77,51,8
0,58,24,0
0,74,33,26
0,53,1,6
0,55,13,0
0,57,68,0
0,62,58,0
0,62,38,0
0,77,93,0
0,77,73,0
0,82,42,28
0,58,1,2
0,58,54,0
0,57,31,2
0,53,58,0
0,53,38,0
0,62,7,0
0,74,51,0
0,74,31,0
0,77,42,14
0,55,109,10
0,58,13,0
0,48,75,18
0,53,110,0
0,57,23,0
0,58,3,0
0,77,76,0
0,77,56,0
0,53,7,0
0,53,50,0
0,72,80,0
0,72,60,0
0,74,1,2
0,55,30,12
0,77,25,4
0,48,24,6
0,53,32,0
0,57,33,0
0,57,13,0
0,81,84,0
0,81,64,0
0,72,29,2
0,53,1,20
0,60,58,0
0,60,38,0
0,77,109,0
0,77,91,0
0,81,33,12
0,57,1,18
0,57,54,0
0,55,13,92
0,53,13,2
0,53,62,0
0,53,42,0
0,60,7,0
0,72,72,0
0,72,52,0
0,77,60,2
0,57,108,6
0,48,75,28
0,55,108,0
0,57,3,0
0,74,109,0
0,52,50,156
0,52,30,0
0,53,11,0
0,67,60,0
0,67,40,0
0,72,21,12
0,57,25,16
0,48,24,4
0,55,25,0
0,55,50,0
0,55,30,0
0,64,80,0
0,64,60,0
0,74,60,8
0,52,1,30
0,60,54,0
0,72,102,0
0,72,82,0
0,67,9,6
0,55,1,136
0,55,46,0
0,55,26,0
0,67,84,0
0,67,64,0
0,64,29,8
0,57,13,42
0,52,46,2
0,52,26,0
0,55,13,0
0,60,3,0
0,64,93,0
0,64,73,0
0,72,51,10
0,67,33,8
0,48,75,2
0,55,1,0
0,74,109,0
0,64,42,0
0,52,1,4
0,52,50,0
0,52,30,0
0,67,84,0
0,67,64,0
0,48,24,12
0,55,50,0
0,55,30,0
0,64,109,0
0,64,96,0
0,74,60,0
0,52,1,24
0,60,58,0
0,76,109,0
0,76,96,0
0,67,33,2
0,48,109,8
0,55,1,142
0,55,54,0
0,55,34,0
0,67,93,0
0,67,73,0
0,64,69,0
0,49,50,0
0,50,60,2
0,51,65,0
0,52,46,14
0,60,7,0
0,64,109,0
0,64,91,0
0,52,73,0
0,76,69,4
0,48,29,4
0,53,58,0
0,54,64,0
0,55,63,0
0,56,63,2
0,57,67,2
0,58,54,0
0,53,50,4
0,55,3,0
0,84,73,0
0,84,109,0
0,84,91,0
0,67,42,0
0,59,49,0
0,60,118,28
0,49,17,0
0,50,17,2
0,51,17,0
0,64,60,30
0,52,1,8
0,57,58,0
0,52,17,0
0,53,17,0
0,54,17,0
0,55,17,0
0,56,17,2
0,57,17,2
0,58,17,0
0,53,1,4
0,60,46,0
0,60,26,0
0,48,13,0
0,59,17,0
0,84,60,12
0,60,69,26
0,57,7,138
0,65,62,0
0,65,42,0
0,49,13,0
0,50,13,2
0,51,13,0
0,60,1,38
0,60,50,0
0,52,13,0
0,53,13,0
0,54,13,0
0,55,13,0
0,56,13,2
0,57,13,2
0,58,13,0
0,57,62,4
0,57,42,0
0,65,11,0
0,59,13,0
0,60,24,0
0,89,93,38
0,91,93,0
0,52,75,2
0,60,1,0
0,93,72,0
0,93,52,0
0,96,102,0
0,96,82,0
0,55,26,102
0,57,11,0
0,89,42,68
0,91,42,12
0,93,21,0
0,52,24,16
0,60,50,0
0,60,30,0
0,96,51,2
0,55,1,170
0,60,113,0
0,64,58,0
0,64,38,0
0,60,1,16
0,60,34,0
0,62,98,0
0,55,58,16
0,55,38,0
0,60,45,0
0,64,7,0
0,60,92,6
0,91,84,22
0,93,52,0
0,93,32,0
0,50,75,0
0,60,1,0
0,62,39,0
0,89,102,0
0,53,112,4
0,86,102,50
0,86,82,0
0,53,31,78
0,55,7,0
0,60,49,6
0,93,1,38
0,91,33,18
0,89,51,24
0,50,24,0
0,58,46,0
0,58,26,0
0,60,13,0
0,53,41,12
0,86,51,24
0,84,84,80
0,84,64,0
0,53,1,12
0,62,13,0
0,62,66,0
0,62,46,0
0,82,64,0
0,86,109,0
0,86,91,0
0,58,1,20
0,58,54,0
0,84,93,0
0,84,73,0
0,60,13,6
0,84,33,2
0,53,50,2
0,53,30,0
0,62,15,0
0,82,102,0
0,82,82,0
0,86,60,0
0,53,13,2
0,84,42,4
0,48,75,10
0,58,3,0
0,81,64,0
0,84,102,0
0,53,1,2
0,53,58,0
0,53,38,0
0,82,51,0
0,89,102,0
0,89,82,0
0,48,24,68
0,57,42,0
0,57,22,0
0,84,51,6
0,89,51,178
0,53,7,2
0,53,110,0
0,60,54,0
0,60,34,0
0,55,110,16
0,57,1,0
0,57,54,0
0,57,34,0
0,53,34,16
0,53,58,0
0,53,38,0
0,60,3,0
0,57,118,4
0,50,66,4
0,55,34,0
0,57,3,0
0,58,109,0
0,65,60,0
0,70,52,0
0,72,60,0
0,89,102,0
0,89,82,0
0,57,116,54
0,53,7,16
0,53,50,0
0,65,64,0
0,86,93,0
0,86,73,0
0,57,66,4
0,89,51,0
0,50,15,4
0,53,13,0
0,58,42,0
0,58,22,0
0,94,76,0
0,94,56,0
0,58,29,44
0,86,42,0
0,53,1,24
0,55,13,0
0,57,55,0
0,62,58,0
0,62,38,0
0,89,76,0
0,89,56,0
0,94,25,24
0,58,1,10
0,58,50,0
0,57,21,2
0,86,36,60
0,86,16,0
0,89,25,2
0,53,62,4
0,62,7,0
0,86,84,0
0,86,64,0
0,58,13,18
0,48,84,10
0,57,113,0
0,57,13,0
0,58,1,0
0,67,64,0
0,70,60,0
0,72,73,0
0,86,1,8
0,55,113,30
0,53,112,2
0,52,66,2
0,53,11,0
0,86,33,0
0,48,33,104
0,55,58,0
0,55,38,0
0,57,46,0
0,55,46,30
0,53,41,26
0,52,15,4
0,60,50,0
0,60,30,0
0,55,7,42
0,55,54,0
0,52,111,30
0,52,66,12
0,52,46,0
0,57,13,0
0,60,1,0
0,55,13,10
0,53,13,2
0,55,3,4
0,57,84,0
0,65,73,0
0,69,73,0
0,69,109,0
0,69,96,0
0,53,111,10
0,52,35,30
0,52,15,10
0,58,75,0
0,65,19,0
0,70,84,0
0,70,64,0
0,57,33,16
0,59,66,0
0,71,93,0
0,71,73,0
0,69,69,0
0,53,37,2
0,70,33,4
0,58,24,2
0,60,75,0
0,72,109,0
0,72,91,0
0,52,13,2
0,71,42,12
0,59,15,10
0,69,66,0
0,81,102,0
0,81,82,0
0,72,60,14
0,60,24,6
0,60,62,0
0,72,93,0
0,72,73,0
0,53,13,2
0,58,66,2
0,64,56,0
0,67,60,0
0,69,15,0
0,70,80,0
0,70,60,0
0,81,51,0
0,58,109,0
0,60,11,28
0,67,66,0
0,79,84,0
0,79,64,0
0,72,42,2
0,55,97,2
0,70,29,2
0,58,15,2
0,64,62,0
0,76,80,0
0,76,60,0
0,46,75,6
0,52,90,0
0,73,45,12
0,79,33,4
0,50,83,0
0,62,93,0
0,67,15,0
0,74,85,0
0,74,84,0
0,74,64,0
0,43,31,6
0,76,29,2
0,60,75,4
0,64,11,0
0,72,93,0
0,40,49,10
0,48,85,4
0,38,43,0
0,58,66,0
0,58,46,0
0,62,42,0
0,70,109,0
0,70,91,0
0,72,85,0
0,74,33,2
0,46,78,2
0,46,30,6
0,72,42,0
0,29,101,2
0,53,80,0
0,57,62,0
0,57,66,0
0,57,46,0
0,60,24,0
0,60,41,0
0,72,85,0
0,43,13,10
0,36,43,4
0,58,15,16
0,60,50,0
0,60,80,0
0,60,60,0
0,69,85,0
0,70,60,0
0,34,35,4
0,40,13,6
0,38,13,4
0,53,29,0
0,57,15,0
0,65,57,0
0,65,80,0
0,65,60,0
0,60,29,54
0,69,68,0
0,69,93,0
0,69,73,0
0,36,13,14
0,65,29,38
0,65,46,0
0,65,80,0
0,65,60,0
0,34,13,4
0,29,101,62
0,53,50,0
0,60,45,0
0,60,72,0
0,60,52,0
0,69,42,0
0,36,101,16
0,48,80,0
0,55,52,0
0,55,93,0
0,64,46,0
0,60,74,110
0,60,68,0
0,64,46,48
0,64,47,48
0,64,56,0
0,64,36,0
0,73,45,174
0,67,68,2
0,67,68,0
0,67,48,0
0,74,85,0
0,64,47,16
0,64,80,0
0,60,43,34
0,60,72,0
0,60,52,0
0,72,85,0
0,29,101,4
0,53,64,0
0,57,59,0
0,57,84,0
0,72,85,0
0,60,56,152
0,60,52,0
0,60,32,0
0,65,54,192
0,65,72,0
0,65,52,0
0,69,65,192
0,69,84,0
0,69,64,0
0,65,45,60
0,65,76,0
0,29,101,48
0,53,60,0
0,53,40,0
0,60,43,0
0,60,76,0
0,60,56,0
0,36,101,16
0,48,60,0
0,55,68,0
0,55,80,0
0,55,64,12
0,60,68,0
0,60,72,0
0,64,51,192
0,64,76,0
0,64,56,0
0,73,45,84
0,67,64,2
0,67,72,0
0,74,85,0
0,64,46,16
0,64,76,0
0,64,56,0
0,60,45,32
0,60,80,0
0,60,60,0
0,72,85,0
0,29,101,6
0,53,68,0
0,57,61,0
0,57,84,0
0,72,85,0
0,60,48,32
0,60,80,0
0,60,60,0
0,69,85,0
0,65,62,192
0,65,76,0
0,65,56,0
0,69,74,48
0,69,76,0
0,69,56,0
0,65,48,2
0,65,76,0
0,74,85,0
0,29,101,16
0,53,64,0
0,53,44,0
0,60,43,0
0,60,68,0
0,60,48,0
0,72,85,0
0,36,101,4
0,48,72,0
0,55,59,0
0,55,80,0
0,72,85,0
0,60,63,96
0,60,76,0
0,60,56,0
0,67,85,0
0,64,53,192
0,64,72,0
0,64,52,0
0,67,65,192
0,67,68,0
0,67,48,0
0,73,45,38
0,64,47,2
0,64,68,0
0,64,48,0
0,74,85,0
0,60,63,12
0,60,76,0
0,60,56,0
0,72,85,0
0,29,101,16
0,53,84,0
0,57,47,0
0,57,109,0
0,57,91,0
0,72,85,0
0,58,55,14
0,58,102,0
0,58,82,0
0,59,65,26
0,59,72,0
0,59,52,0
0,60,53,0
0,60,109,0
0,60,96,0
0,62,65,14
0,62,109,0
0,36,101,54
0,64,59,0
0,64,109,0
0,64,96,0
0,29,101,16
0,62,109,0
0,67,68,0
0,67,102,0
0,67,82,0
0,65,45,0
0,65,93,0
0,64,62,38
0,64,109,0
0,64,96,0
0,78,45,8
0,65,109,2
0,65,91,0
0,67,68,0
0,79,85,0
0,31,101,10
0,65,57,0
0,33,101,16
0,63,58,0
0,77,85,0
0,77,93,18
0,34,101,16
0,58,53,0
0,58,76,0
0,62,62,0
0,65,93,0
0,77,85,0
0,82,76,0
0,82,56,0
0,86,93,0
0,86,73,0
0,62,72,16
0,62,52,0
0,74,85,0
0,65,84,32
0,74,80,22
0,58,70,60
0,62,57,0
0,70,68,0
0,70,48,0
0,77,76,0
0,77,56,0
0,82,93,0
0,82,73,0
0,65,76,90
0,65,56,0
0,29,101,48
0,62,84,0
0,62,64,0
0,34,101,16
0,58,69,0
0,58,80,0
0,70,80,0
0,74,93,0
0,74,73,0
0,77,84,0
0,77,64,0
0,62,84,16
0,62,64,0
0,65,80,82
0,73,45,174
0,70,72,2
0,70,52,0
0,74,85,0
0,65,72,4
0,65,52,0
0,58,84,32
0,58,64,0
0,72,85,0
0,77,68,0
0,53,51,26
0,57,60,0
0,81,80,32
0,29,101,42
0,53,72,0
0,53,52,0
0,60,60,0
0,65,68,0
0,72,85,0
0,84,84,0
0,84,64,0
0,57,84,36
0,60,84,106
0,57,59,24
0,60,55,0
0,65,72,0
0,72,64,0
0,72,44,0
0,77,76,0
0,77,56,0
0,81,68,0
0,81,48,0
0,60,72,32
0,36,101,192
0,57,76,0
0,57,56,0
0,69,68,24
0,29,101,16
0,53,54,0
0,53,80,0
0,57,53,0
0,72,80,0
0,72,60,0
0,77,84,0
0,77,64,0
0,57,76,22
0,60,84,192
0,60,64,0
0,65,70,0
0,65,67,64
0,65,102,0
0,31,101,0
0,60,68,0
0,60,48,0
0,69,85,0
0,69,109,0
0,69,96,0
0,33,101,14
0,57,76,0
0,72,85,0
0,72,80,0
0,34,101,16
0,53,56,0
0,58,72,0
0,70,76,0
0,70,56,0
0,72,85,0
0,74,84,0
0,74,64,0
0,58,53,6
0,62,84,0
0,70,85,0
0,58,42,64
0,58,22,0
0,62,55,8
0,65,80,0
0,65,62,192
0,70,60,0
0,70,40,0
0,62,47,38
0,65,93,0
0,82,76,0
0,34,101,10
0,62,76,0
0,69,85,0
0,86,93,0
0,86,73,0
0,36,101,0
0,55,56,0
0,60,84,0
0,69,85,0
0,84,76,0
0,60,56,122
0,64,76,0
0,64,56,0
0,64,56,80
0,67,85,0
0,67,80,0
0,67,60,0
0,67,61,20
0,72,102,0
0,72,82,0
0,64,49,4
0,67,85,0
0,67,72,0
0,60,49,48
0,60,84,0
0,60,64,0
0,65,85,0
0,29,101,32
0,53,102,0
0,57,69,0
0,57,109,0
0,57,91,0
0,65,85,0
0,58,59,26
0,58,93,0
0,58,73,0
0,59,59,14
0,59,102,0
0,60,53,42
0,60,109,0
0,60,91,0
0,69,54,2
0,69,102,0
0,69,82,0
0,29,101,0
0,53,76,0
0,60,44,0
0,60,93,0
0,60,73,0
0,36,101,16
0,48,84,0
0,58,84,0
0,58,64,0
0,70,74,0
0,67,56,18
0,67,93,0
0,67,73,0
0,64,68,14
0,64,80,0
0,73,45,30
0,62,50,2
0,62,102,0
0,62,82,0
0,74,85,0
0,60,57,0
0,60,93,0
0,58,54,46
0,58,109,0
0,58,91,0
0,72,85,0
0,29,101,32
0,36,84,0
0,53,76,0
0,57,62,0
0,57,93,0
0,72,85,0
0,60,50,16
0,60,76,0
0,60,56,0
0,69,85,0
0,70,36,0
0,65,57,160
0,65,76,0
0,65,56,0
0,70,61,0
0,37,92,192
0,69,68,0
0,69,93,0
0,69,73,0
0,65,46,64
0,65,80,0
0,69,52,0
0,29,101,80
0,36,74,0
0,53,68,0
0,53,48,0
0,60,45,0
0,60,84,0
0,60,64,0
0,69,70,0
0,36,81,16
