track,note,velocity,time
1,42,72,2664
1,61,73,4
1,49,73,180
1,71,96,196
1,54,70,0
1,66,76,0
1,49,70,4
1,61,64,4
1,42,71,0
1,70,76,4
1,49,68,8
1,66,69,4
1,54,64,8
1,49,67,0
1,61,64,4
1,42,74,4
1,68,79,0
1,61,67,4
1,49,69,0
1,58,63,36
1,54,63,8
1,66,83,4
1,49,70,0
1,38,78,16
1,46,70,176
1,50,76,192
1,46,69,4
1,39,80,32
1,46,70,168
1,68,82,200
1,51,70,0
1,58,73,0
1,46,63,4
1,39,72,4
1,54,60,4
1,66,75,0
1,46,77,4
1,58,67,4
1,51,64,8
1,46,68,4
1,54,67,0
1,65,84,4
1,39,84,0
1,58,63,0
1,46,68,4
1,54,65,4
1,51,66,0
1,46,72,4
1,63,88,0
1,43,74,12
1,51,68,180
1,61,82,200
1,55,70,4
1,51,71,4
1,44,73,12
1,63,83,0
1,51,72,184
1,73,80,200
1,56,75,4
1,68,67,4
1,51,68,0
1,63,61,4
1,44,73,8
1,71,95,0
1,51,78,4
1,68,69,4
1,56,67,0
1,63,65,0
1,51,69,4
1,70,74,0
1,44,73,0
1,51,82,188
1,63,71,4
1,59,74,192
1,56,72,0
1,51,73,4
1,68,83,0
1,44,70,4
1,51,75,4
1,56,71,4
1,51,80,4
1,37,82,4
1,44,73,164
1,66,88,196
1,49,69,0
1,44,62,4
1,61,20,16
1,37,69,4
1,56,64,4
1,65,96,32
1,44,68,4
1,61,66,0
1,49,67,4
1,44,69,0
1,56,64,4
1,63,76,32
1,37,72,0
1,56,69,4
1,44,68,0
1,49,65,4
1,53,69,4
1,61,70,16
1,44,69,4
1,37,72,4
1,44,71,4
1,49,79,4
1,44,71,4
1,42,83,0
1,49,78,192
1,71,102,192
1,54,69,0
1,66,67,4
1,49,68,0
1,61,65,4
1,42,73,0
1,70,78,16
1,49,69,8
1,66,75,4
1,54,63,12
1,49,73,0
1,61,68,4
1,68,81,60
1,42,69,0
1,49,73,0
1,61,69,4
1,54,68,4
1,58,69,0
1,66,92,40
1,49,72,4
1,38,71,8
1,46,68,196
1,50,80,192
1,46,69,4
1,39,81,4
1,46,72,184
1,68,84,196
1,51,70,8
1,58,67,4
1,46,67,8
1,39,70,4
1,54,63,8
1,66,86,4
1,46,71,0
1,58,71,4
1,51,69,8
1,46,74,4
1,54,69,0
1,65,94,40
1,39,80,0
1,46,69,4
1,58,65,0
1,51,69,4
1,54,69,12
1,46,73,64
1,63,81,4
1,43,80,8
1,51,70,192
1,61,78,192
1,55,70,8
1,51,73,4
1,63,80,4
1,44,77,0
1,51,69,188
1,73,84,192
1,56,69,4
1,68,69,0
1,51,69,4
1,44,70,0
1,63,67,4
1,71,95,48
1,51,73,4
1,56,71,0
1,68,73,4
1,51,63,4
1,63,67,0
1,70,81,0
1,44,77,4
1,51,75,0
1,63,69,4
1,56,70,4
1,59,70,4
1,68,76,4
1,51,75,0
1,44,72,4
1,51,72,4
1,56,68,4
1,51,82,4
1,37,73,20
1,44,76,160
1,49,70,196
1,66,88,0
1,61,72,0
1,44,67,4
1,37,70,4
1,56,54,8
1,65,88,0
1,44,72,4
1,61,69,0
1,49,69,4
1,56,63,4
1,44,72,0
1,37,69,36
1,63,67,4
1,44,74,4
1,56,67,8
1,49,69,4
1,53,69,0
1,44,49,4
1,61,49,0
1,37,45,4
1,42,76,92
1,49,77,196
1,54,70,196
1,66,77,188
1,58,80,4
1,61,77,192
1,58,69,4
1,54,72,88
1,58,69,4
1,42,75,4
1,49,68,184
1,54,67,4
1,70,76,192
1,61,84,0
1,66,79,4
1,61,68,4
1,58,71,4
1,61,20,64
1,41,74,4
1,49,67,64
1,53,71,192
1,68,78,192
1,56,75,0
1,61,72,192
1,56,63,4
1,61,69,4
1,56,67,4
1,41,76,4
1,49,67,4
1,53,72,4
1,68,74,4
1,56,71,0
1,61,68,4
1,56,61,4
1,49,68,0
1,61,68,4
1,56,65,4
1,44,80,8
1,51,71,188
1,59,67,192
1,56,69,4
1,71,83,0
1,59,76,0
1,68,70,192
1,59,73,4
1,63,72,196
1,59,72,4
1,51,70,0
1,44,81,4
1,51,67,4
1,56,68,4
1,68,75,4
1,56,83,0
1,63,75,4
1,59,82,4
1,56,68,4
1,59,83,4
1,41,65,0
1,49,54,184
1,53,69,204
1,68,83,184
1,56,71,0
1,61,76,192
1,56,67,4
1,49,74,56
1,56,59,4
1,63,72,4
1,37,76,0
1,53,59,180
1,56,79,204
1,49,70,184
1,65,80,8
1,53,49,4
1,66,95,4
1,49,54,12
1,56,69,4
1,68,72,196
1,42,74,60
1,49,72,136
1,70,79,192
1,54,68,4
1,61,57,184
1,66,76,192
1,42,76,4
1,68,83,0
1,61,63,4
1,66,77,4
1,71,88,4
1,54,69,0
1,66,78,4
1,61,53,4
1,49,22,12
1,70,84,4
1,42,74,0
1,61,54,4
1,54,66,4
1,66,80,4
1,58,66,0
1,49,24,4
1,41,82,28
1,49,68,192
1,61,84,192
1,53,65,192
1,56,73,192
1,60,82,192
1,53,62,4
1,49,65,0
1,56,75,4
1,63,78,16
1,41,81,0
1,53,64,164
1,56,62,196
1,61,72,188
1,49,73,4
1,53,63,4
1,53,68,4
1,56,78,4
1,49,67,0
1,53,70,4
1,44,77,0
1,51,70,184
1,59,90,196
1,56,67,192
1,51,62,4
1,44,70,4
1,58,77,4
1,51,65,4
1,56,74,4
1,61,88,196
1,51,67,4
1,56,74,4
1,44,87,4
1,59,87,0
1,51,63,4
1,51,63,4
1,56,81,4
1,51,67,4
1,44,72,0
1,37,74,0
1,49,63,188
1,65,86,196
1,61,73,184
1,56,68,196
1,63,79,192
1,56,61,4
1,61,68,4
1,66,81,12
1,37,70,8
1,56,65,148
1,61,74,196
1,65,81,188
1,61,70,4
1,56,62,4
1,49,68,200
1,56,68,4
1,42,73,12
1,49,72,188
1,71,95,0
1,54,71,0
1,66,78,48
1,49,75,0
1,61,68,20
1,42,68,0
1,49,72,4
1,70,75,4
1,54,67,4
1,66,72,4
1,49,74,16
1,61,62,0
1,42,70,28
1,68,78,0
1,49,72,56
1,61,67,0
1,58,67,12
1,54,69,0
1,49,78,72
1,66,81,0
1,38,72,24
1,46,58,140
1,50,76,188
1,46,71,32
1,39,80,4
1,46,71,188
1,68,83,192
1,51,71,4
1,58,72,40
1,46,68,0
1,39,70,144
1,54,68,4
1,66,79,8
1,46,72,4
1,51,67,0
1,58,71,0
1,54,69,0
1,46,72,4
1,65,83,16
1,39,74,0
1,46,69,12
1,58,69,0
1,54,67,4
1,51,60,4
1,46,69,16
1,63,77,0
1,43,67,12
1,51,80,116
1,61,80,36
1,55,69,0
1,51,71,44
1,44,70,12
1,63,79,0
1,51,74,180
1,73,80,8
1,56,69,0
1,68,70,36
1,51,69,0
1,44,68,0
1,63,61,4
1,51,76,136
1,71,99,4
1,63,74,160
1,56,65,0
1,59,58,48
1,51,72,0
1,70,75,24
1,44,71,0
1,51,70,12
1,63,68,0
1,56,70,12
1,59,76,0
1,68,79,12
1,51,76,0
1,44,70,168
1,51,74,172
1,56,70,8
1,51,72,8
1,37,69,96
1,44,67,40
1,66,92,4
1,49,69,0
1,44,57,40
1,61,40,4
1,37,68,36
1,56,67,4
1,44,74,16
1,65,85,0
1,61,74,96
1,49,68,0
1,44,70,4
1,56,68,0
1,63,75,192
1,37,74,0
1,56,71,148
1,44,71,0
1,53,67,0
1,49,68,0
1,44,75,4
1,61,73,0
1,37,67,0
1,44,67,192
1,49,74,8
1,44,73,188
1,42,81,16
1,54,68,152
1,70,95,192
1,61,76,188
1,58,68,8
1,68,83,8
1,61,75,16
1,58,74,16
1,71,90,12
1,61,74,180
1,58,68,196
1,70,86,148
1,61,72,152
1,58,67,12
1,54,59,188
1,58,66,84
1,41,76,24
1,53,70,116
1,61,88,192
1,56,74,92
1,53,74,16
1,60,92,16
1,56,73,20
1,53,76,0
1,63,83,8
1,56,70,24
1,53,71,196
1,61,84,100
1,56,72,140
1,53,65,192
1,56,70,96
1,53,58,148
1,39,74,0
1,51,72,192
1,59,99,192
1,56,76,184
1,51,69,192
1,58,82,136
1,56,73,8
1,51,68,188
1,61,88,24
1,56,74,36
1,51,67,12
1,59,95,12
1,56,68,16
1,51,58,196
1,56,74,72
1,51,65,12
1,37,71,20
1,49,69,160
1,65,90,192
1,61,68,192
1,56,67,192
1,63,88,16
1,61,74,16
1,56,68,188
1,66,81,4
1,61,68,188
1,56,69,20
1,65,83,16
1,61,68,40
1,56,69,20
1,49,71,192
1,56,69,8
1,42,72,0
1,54,69,188
1,70,85,192
1,61,77,192
1,58,68,20
1,68,84,20
1,61,76,148
1,58,69,20
1,71,83,8
1,61,73,192
1,58,68,196
1,70,95,176
1,61,68,68
1,58,61,0
1,54,67,196
1,58,72,144
1,41,72,132
1,53,69,100
1,61,81,196
1,56,72,112
1,53,76,12
1,60,94,8
1,56,72,8
1,53,77,8
1,63,84,20
1,56,74,76
1,53,73,4
1,61,83,144
1,56,68,148
1,53,69,8
1,56,68,196
1,53,67,148
1,39,76,80
1,51,68,148
1,59,96,192
1,56,74,152
1,51,67,188
1,58,85,44
1,56,76,4
1,51,69,64
1,61,80,12
1,56,71,188
1,51,67,28
1,59,96,16
1,56,73,116
1,51,63,196
1,44,66,196
1,51,60,104
1,37,66,8
1,49,69,184
1,65,81,188
1,61,76,188
1,56,68,192
1,63,85,104
1,61,69,72
1,56,60,100
1,66,95,132
1,61,72,16
1,56,65,20
1,65,86,20
1,61,68,164
1,56,69,188
1,49,63,188
1,56,68,0
1,42,73,32
1,49,72,188
1,71,95,4
1,54,71,0
1,66,78,4
1,49,75,0
1,61,68,4
1,42,68,0
1,49,72,4
1,70,75,4
1,54,67,4
1,66,72,4
1,49,74,16
1,61,62,0
1,42,70,60
1,68,78,0
1,49,72,56
1,61,67,0
1,58,67,12
1,54,69,0
1,49,78,100
1,66,81,0
1,38,72,24
1,46,58,140
1,50,76,188
1,46,71,104
1,39,80,12
1,46,71,188
1,68,83,192
1,51,71,4
1,58,72,40
1,46,68,0
1,39,70,144
1,54,68,4
1,66,79,8
1,46,72,4
1,51,67,0
1,58,71,0
1,54,69,24
1,65,83,12
1,39,74,0
1,46,69,48
1,58,69,0
1,54,67,4
1,46,69,12
1,63,77,0
1,43,67,12
1,51,80,116
1,61,80,72
1,55,69,0
1,51,71,44
1,44,70,12
1,63,79,0
1,51,74,144
1,73,80,8
1,56,69,0
1,68,70,56
1,51,69,0
1,44,68,4
1,63,61,0
1,51,76,136
1,71,99,4
1,63,74,160
1,56,65,0
1,59,58,32
1,51,72,0
1,70,75,0
1,44,71,0
1,51,70,12
1,63,68,0
1,56,70,16
1,59,76,0
1,68,79,4
1,51,76,0
1,44,70,8
1,51,74,192
1,56,70,8
1,51,72,16
1,37,69,24
1,44,67,192
1,66,92,4
1,49,69,0
1,44,57,60
1,61,40,4
1,37,68,36
1,56,67,0
1,44,74,16
1,65,85,0
1,61,74,96
1,49,68,0
1,44,70,8
1,56,68,0
1,63,75,8
1,37,74,0
1,56,71,148
1,44,71,0
1,53,67,0
1,49,68,0
1,44,75,64
1,61,73,0
1,37,67,0
1,44,67,192
1,49,74,4
1,44,73,12
1,42,73,60
1,49,72,152
1,71,95,12
1,54,71,0
1,66,78,8
1,49,75,0
1,61,68,4
1,42,68,0
1,49,72,4
1,70,75,4
1,54,67,4
1,66,72,4
1,49,74,0
1,61,62,0
1,42,70,64
1,68,78,0
1,49,72,56
1,61,67,0
1,58,67,0
1,54,69,0
1,49,78,124
1,66,81,0
1,38,72,24
1,46,58,140
1,50,76,188
1,46,71,68
1,39,80,0
1,46,71,188
1,68,83,192
1,51,71,4
1,58,72,28
1,46,68,0
1,39,70,192
1,54,68,4
1,66,79,8
1,46,72,4
1,51,67,0
1,58,71,0
1,54,69,24
1,46,72,4
1,65,83,4
1,39,74,0
1,46,69,12
1,58,69,0
1,54,67,4
1,51,60,4
1,46,69,12
1,63,77,0
1,43,67,12
1,51,80,116
1,61,80,60
1,55,69,0
1,51,71,44
1,44,70,0
1,63,79,0
1,51,74,144
1,73,80,20
1,56,69,0
1,68,70,20
1,51,69,0
1,44,68,36
1,63,61,4
1,51,76,136
1,71,99,4
1,63,74,8
1,56,65,0
1,59,58,8
1,51,72,0
1,70,75,12
1,44,71,0
1,51,70,32
1,63,68,0
1,56,70,8
1,59,76,0
1,68,79,4
1,51,76,0
1,44,70,0
1,51,74,192
1,56,70,8
1,51,72,16
1,37,69,96
1,44,67,120
1,66,92,4
1,49,69,0
1,44,57,20
1,61,40,4
1,37,68,8
1,56,67,4
1,44,74,16
1,65,85,0
1,61,74,0
1,49,68,0
1,44,70,12
1,56,68,0
1,63,75,168
1,37,74,0
1,56,71,148
1,44,71,0
1,53,67,0
1,49,68,0
1,44,75,68
1,61,73,0
1,37,67,4
1,44,67,192
1,49,74,4
1,44,73,8
1,58,85,48
1,66,121,4
1,61,95,0
1,94,126,352
1,82,123,0
1,80,86,44
1,92,99,0
1,83,85,48
1,95,126,4
1,82,113,48
1,94,109,0
1,58,84,376
1,66,121,4
1,61,86,0
1,61,84,20
1,56,76,0
1,65,95,8
1,73,88,384
1,85,123,0
1,72,86,16
1,84,92,0
1,87,117,4
1,75,80,0
1,73,84,16
1,85,104,0
1,56,83,412
1,65,96,4
1,61,82,0
1,63,79,28
1,59,107,0
1,68,86,0
1,71,113,384
1,83,113,0
1,70,92,4
1,82,94,4
1,85,117,4
1,73,84,0
1,71,113,24
1,83,113,4
1,63,86,208
1,59,104,4
1,68,86,0
1,61,88,16
1,65,92,0
1,68,81,0
1,77,94,388
1,89,107,0
1,75,92,48
1,87,92,4
1,90,121,16
1,78,113,8
1,77,94,60
1,89,104,0
1,65,85,424
1,68,85,0
1,61,84,0
1,66,102,60
1,58,84,0
1,82,126,340
1,94,121,0
1,80,92,16
1,92,95,0
1,95,127,16
1,83,99,4
1,82,117,20
1,94,123,4
1,66,90,564
1,61,85,0
1,58,83,4
1,65,85,32
1,61,88,0
1,56,117,0
1,73,99,376
1,85,99,0
1,84,107,68
1,72,99,0
1,87,92,40
1,75,86,0
1,85,117,8
1,73,109,0
1,61,78,380
1,56,69,0
1,65,90,4
1,59,86,8
1,68,84,0
1,63,79,0
1,71,104,340
1,83,113,0
1,70,86,8
1,82,95,0
1,85,107,4
1,73,94,4
1,83,117,28
1,71,109,4
1,63,92,204
1,68,78,0
1,59,90,4
1,65,78,32
1,61,94,0
1,77,95,376
1,89,107,0
1,75,94,72
1,87,121,0
1,90,121,48
1,78,99,0
1,77,95,4
1,89,104,4
1,42,73,300
1,49,72,188
1,71,95,16
1,54,71,0
1,66,78,28
1,49,75,0
1,61,68,12
1,42,68,0
1,49,72,4
1,70,75,4
1,54,67,4
1,66,72,4
1,49,74,4
1,61,62,0
1,42,70,12
1,68,78,0
1,49,72,56
1,61,67,0
1,58,67,0
1,54,69,0
1,49,78,124
1,66,81,0
1,38,72,24
1,46,58,140
1,50,76,188
1,46,71,28
1,39,80,24
1,46,71,184
1,68,83,192
1,51,71,4
1,58,72,40
1,46,68,0
1,39,70,144
1,54,68,4
1,66,79,8
1,46,72,4
1,51,67,0
1,58,71,0
1,54,69,24
1,46,72,4
1,65,83,40
1,39,74,0
1,46,69,12
1,58,69,0
1,54,67,4
1,51,60,4
1,46,69,8
1,63,77,0
1,43,67,12
1,51,80,116
1,61,80,24
1,55,69,0
1,51,71,44
1,44,70,0
1,63,79,0
1,51,74,144
1,73,80,16
1,56,69,0
1,68,70,12
1,51,69,0
1,44,68,8
1,63,61,4
1,51,76,136
1,71,99,4
1,63,74,0
1,56,65,0
1,59,58,108
1,51,72,0
1,70,75,12
1,44,71,0
1,51,70,40
1,63,68,0
1,56,70,8
1,59,76,0
1,68,79,12
1,51,76,0
1,44,70,168
1,51,74,184
1,56,70,8
1,51,72,4
1,37,69,104
1,44,67,156
1,66,92,4
1,49,69,0
