track,note,velocity,time
0,50,78,1840
0,38,79,0
0,38,80,0
0,62,81,5
0,62,81,0
0,62,81,0
0,42,90,0
0,42,0,55
0,62,0,60
0,62,0,0
0,62,0,0
0,38,0,80
0,50,0,0
0,38,0,35
0,69,78,5
0,69,78,0
0,69,78,0
0,69,0,105
0,69,0,5
0,69,0,0
0,38,84,130
0,50,72,0
0,62,78,0
0,38,80,0
0,62,78,0
0,62,78,0
0,42,90,5
0,42,0,55
0,62,0,85
0,62,0,0
0,62,0,0
0,50,0,55
0,38,0,0
0,38,0,35
0,69,78,5
0,69,78,0
0,69,78,0
0,69,0,135
0,69,0,0
0,69,0,0
0,50,79,105
0,38,78,0
0,62,75,0
0,38,80,0
0,62,75,0
0,62,75,0
0,42,90,5
0,42,0,55
0,62,0,45
0,62,0,0
0,62,0,0
0,38,0,95
0,50,0,0
0,38,0,0
0,69,80,5
0,69,80,0
0,69,80,0
0,69,0,140
0,69,0,5
0,69,0,0
0,50,78,5
0,38,90,0
0,62,76,0
0,38,80,0
0,62,76,0
0,62,76,0
0,42,90,5
0,42,0,55
0,62,0,40
0,62,0,0
0,62,0,0
0,38,0,100
0,50,0,0
0,38,0,0
0,70,105,5
0,70,105,0
0,70,105,0
0,70,0,120
0,70,0,0
0,70,0,0
0,38,70,5
0,50,70,0
0,62,76,0
0,38,80,0
0,62,76,0
0,62,76,0
0,42,90,5
0,42,0,55
0,62,0,45
0,62,0,0
0,62,0,0
0,50,0,95
0,38,0,0
0,38,0,0
0,70,79,5
0,70,79,0
0,70,79,0
0,70,0,120
0,70,0,0
0,70,0,0
0,38,84,5
0,50,70,0
0,62,83,0
0,38,80,0
0,62,83,0
0,62,83,0
0,42,90,5
0,42,0,55
0,62,0,45
0,62,0,5
0,62,0,0
0,50,0,90
0,38,0,0
0,38,0,0
0,70,76,5
0,70,76,0
0,70,76,0
0,70,0,120
0,70,0,0
0,70,0,0
0,38,84,5
0,50,78,0
0,62,80,0
0,38,80,0
0,62,80,0
0,62,80,0
0,42,90,5
0,42,0,55
0,62,0,40
0,62,0,0
0,62,0,0
0,50,0,100
0,38,0,0
0,38,0,0
0,70,75,5
0,70,75,0
0,70,75,0
0,70,0,125
0,70,0,5
0,70,0,0
0,38,90,5
0,50,72,0
0,62,77,0
0,38,80,0
0,62,77,0
0,62,77,0
0,42,90,5
0,42,0,55
0,62,0,45
0,62,0,0
0,62,0,0
0,50,0,95
0,38,0,0
0,38,0,35
0,69,108,5
0,69,108,0
0,69,108,0
0,69,0,140
0,69,0,0
0,69,0,0
0,38,90,5
0,50,70,0
0,62,76,0
0,38,80,0
0,62,76,0
0,62,76,0
0,42,90,5
0,42,0,55
0,62,0,30
0,62,0,0
0,62,0,0
0,50,0,110
0,38,0,0
0,38,0,0
0,69,76,5
0,69,76,0
0,69,76,0
0,69,0,115
0,69,0,0
0,69,0,0
0,38,84,5
0,50,70,0
0,62,76,0
0,38,80,0
0,62,76,0
0,62,76,0
0,42,90,5
0,42,0,55
0,62,0,40
0,62,0,0
0,62,0,0
0,50,0,100
0,38,0,0
0,38,0,0
0,69,78,5
0,69,78,0
0,69,78,0
0,69,0,125
0,69,0,0
0,69,0,0
0,50,72,5
0,38,90,0
0,62,77,0
0,38,80,0
0,62,77,0
0,62,77,0
0,42,90,5
0,42,0,55
0,62,0,60
0,62,0,0
0,62,0,0
0,38,0,80
0,50,0,0
0,38,0,0
0,69,74,5
0,69,74,0
0,69,74,0
0,69,0,130
0,69,0,0
0,69,0,0
0,50,70,5
0,38,84,0
0,62,75,0
0,38,80,0
0,62,75,0
0,62,75,0
0,42,90,5
0,42,0,55
0,62,0,55
0,62,0,0
0,62,0,0
0,38,0,85
0,50,0,0
0,38,0,35
0,70,103,5
0,70,103,0
0,70,103,0
0,70,0,120
0,70,0,5
0,70,0,0
0,50,72,115
0,38,84,0
0,62,80,0
0,38,80,0
0,62,80,0
0,62,80,0
0,42,90,5
0,42,0,55
0,62,0,60
0,62,0,0
0,62,0,0
0,38,0,80
0,50,0,0
0,38,0,35
0,70,70,5
0,70,70,0
0,70,70,0
0,70,0,130
0,70,0,0
0,70,0,0
0,50,72,110
0,38,78,0
0,62,75,0
0,38,80,0
0,62,75,0
0,62,75,0
0,42,90,5
0,42,0,55
0,62,0,70
0,62,0,0
0,62,0,0
0,38,0,70
0,50,0,0
0,38,0,35
0,70,75,5
0,70,75,0
0,70,75,0
0,70,0,140
0,70,0,0
0,70,0,0
0,38,78,100
0,50,70,0
0,62,77,0
0,38,80,0
0,62,77,0
0,62,77,0
0,42,90,5
0,42,0,55
0,62,0,75
0,62,0,0
0,62,0,0
0,50,0,65
0,38,0,0
0,38,0,35
0,70,81,5
0,70,81,0
0,70,81,0
0,70,0,140
0,70,0,5
0,70,0,0
0,38,90,95
0,50,90,0
0,62,84,0
0,38,80,0
0,62,84,0
0,62,84,0
0,42,90,5
0,42,0,55
0,62,0,40
0,62,0,0
0,62,0,0
0,50,0,100
0,38,0,0
0,38,0,35
0,69,106,5
0,69,106,0
0,69,106,0
0,69,0,115
0,69,0,0
0,69,0,0
0,50,78,125
0,38,79,0
0,62,81,0
0,38,80,0
0,62,81,0
0,62,81,0
0,42,90,5
0,57,101,0
0,62,101,0
0,42,0,55
0,62,0,60
0,62,0,0
0,62,0,0
0,38,0,80
0,50,0,0
0,62,0,20
0,38,0,15
0,69,78,5
0,69,78,0
0,69,78,0
0,59,96,0
0,62,96,0
0,57,0,40
0,69,0,70
0,69,0,0
0,69,0,0
0,38,84,130
0,50,72,0
0,62,78,0
0,38,80,0
0,62,78,0
0,62,78,0
0,42,90,5
0,62,109,0
0,66,109,0
0,59,0,35
0,42,0,20
0,62,0,0
0,62,0,85
0,62,0,0
0,62,0,0
0,50,0,55
0,38,0,0
0,38,0,35
0,69,78,5
0,69,78,0
0,69,78,0
0,66,90,0
0,69,90,0
0,62,0,40
0,66,0,0
0,69,0,95
0,69,0,0
0,69,0,0
0,50,79,105
0,38,78,0
0,62,75,0
0,38,80,0
0,62,75,0
0,62,75,0
0,42,90,5
0,42,0,55
0,62,0,45
0,62,0,0
0,62,0,0
0,38,0,95
0,50,0,0
0,38,0,35
0,69,80,5
0,69,80,0
0,69,80,0
0,69,0,145
0,69,0,0
0,69,0,0
0,50,78,95
0,38,90,0
0,62,76,0
0,38,80,0
0,62,76,0
0,62,76,0
0,42,90,5
0,42,0,55
0,62,0,40
0,62,0,0
0,62,0,0
0,38,0,100
0,50,0,0
0,38,0,35
0,70,105,5
0,70,105,0
0,70,105,0
0,70,0,120
0,70,0,0
0,70,0,0
0,38,70,120
0,50,70,0
0,62,76,0
0,38,80,0
0,62,76,0
0,62,76,0
0,42,90,5
0,42,0,55
0,62,0,45
0,62,0,0
0,62,0,0
0,50,0,95
0,38,0,0
0,38,0,35
0,70,79,5
0,70,79,0
0,70,79,0
0,66,0,100
0,69,0,5
0,70,0,15
0,70,0,0
0,70,0,0
0,38,84,120
0,50,70,0
0,62,83,0
0,38,80,0
0,62,83,0
0,62,83,0
0,42,90,5
0,66,103,0
0,69,103,0
0,42,0,55
0,62,0,50
0,62,0,0
0,62,0,0
0,50,0,90
0,38,0,0
0,38,0,35
0,70,76,5
0,70,76,0
0,70,76,0
0,64,103,0
0,67,103,0
0,66,0,5
0,69,0,35
0,70,0,80
0,70,0,0
0,70,0,0
0,38,84,120
0,50,78,0
0,62,80,0
0,38,80,0
0,62,80,0
0,62,80,0
0,42,90,5
0,66,84,0
0,69,84,0
0,64,0,35
0,67,0,0
0,42,0,20
0,62,0,40
0,62,0,0
0,62,0,0
0,50,0,100
0,38,0,0
0,38,0,35
0,70,75,5
0,70,75,0
0,70,75,0
0,64,89,0
0,67,89,0
0,66,0,20
0,69,0,0
0,66,82,35
0,69,82,0
0,64,0,45
0,64,84,20
0,67,0,0
0,67,84,0
0,70,0,10
0,70,0,0
0,70,0,0
0,66,0,65
0,69,0,0
0,38,90,45
0,50,72,0
0,62,77,0
0,38,80,0
0,62,77,0
0,62,77,0
0,42,90,5
0,62,103,0
0,66,103,0
0,64,0,35
0,67,0,0
0,42,0,20
0,62,0,45
0,62,0,0
0,62,0,0
0,50,0,95
0,38,0,0
0,38,0,35
0,69,108,5
0,69,108,0
0,69,108,0
0,69,0,140
0,69,0,0
0,69,0,0
0,62,0,60
0,66,0,0
0,38,90,40
0,50,70,0
0,62,76,0
0,38,80,0
0,62,76,0
0,62,76,0
0,42,90,5
0,57,115,0
0,62,115,0
0,42,0,55
0,62,0,30
0,62,0,0
0,62,0,5
0,50,0,105
0,38,0,0
0,62,0,20
0,38,0,15
0,69,76,5
0,69,76,0
0,69,76,0
0,59,84,0
0,62,84,0
0,57,0,40
0,69,0,75
0,69,0,0
0,69,0,0
0,38,84,125
0,50,70,0
0,62,76,0
0,38,80,0
0,62,76,0
0,62,76,0
0,42,90,5
0,62,109,0
0,66,109,0
0,59,0,35
0,62,0,0
0,42,0,20
0,62,0,40
0,62,0,0
0,62,0,0
0,50,0,100
0,38,0,0
0,38,0,35
0,69,78,5
0,69,78,0
0,69,78,0
0,66,90,0
0,69,90,0
0,62,0,40
0,66,0,0
0,69,0,85
0,69,0,0
0,69,0,0
0,50,72,115
0,38,90,0
0,62,77,0
0,38,80,0
0,62,77,0
0,62,77,0
0,42,90,5
0,42,0,55
0,62,0,60
0,62,0,0
0,62,0,0
0,38,0,80
0,50,0,0
0,38,0,35
0,69,74,5
0,69,74,0
0,69,74,0
0,69,0,130
0,69,0,0
0,69,0,0
0,50,70,110
0,38,84,0
0,62,75,0
0,38,80,0
0,62,75,0
0,62,75,0
0,42,90,5
0,42,0,55
0,62,0,55
0,62,0,0
0,62,0,0
0,38,0,85
0,50,0,0
0,38,0,35
0,70,103,5
0,70,103,0
0,70,103,0
0,70,0,120
0,70,0,5
0,70,0,0
0,50,72,115
0,38,84,0
0,62,80,0
0,38,80,0
0,62,80,0
0,62,80,0
0,42,90,5
0,42,0,55
0,62,0,60
0,62,0,0
0,62,0,0
0,38,0,80
0,50,0,0
0,38,0,35
0,70,70,5
0,70,70,0
0,70,70,0
0,66,0,60
0,69,0,0
0,70,0,65
0,70,0,5
0,70,0,0
0,50,72,110
0,38,78,0
0,62,75,0
0,38,80,0
0,62,75,0
0,62,75,0
0,42,90,5
0,66,90,0
0,69,90,0
0,42,0,55
0,62,0,70
0,62,0,0
0,62,0,0
0,38,0,70
0,50,0,0
0,38,0,35
0,70,75,5
0,70,75,0
0,70,75,0
0,64,103,0
0,67,103,0
0,69,0,40
0,66,0,20
0,70,0,80
0,70,0,0
0,70,0,0
0,38,78,100
0,50,70,0
0,62,77,0
0,38,80,0
0,62,77,0
0,62,77,0
0,42,90,5
0,66,84,0
0,69,84,0
0,64,0,35
0,42,0,20
0,67,0,0
0,62,0,75
0,62,0,0
0,62,0,0
0,50,0,65
0,38,0,0
0,38,0,35
0,70,81,5
0,70,81,0
0,70,81,0
0,64,96,0
0,67,96,0
0,35,115,5
0,66,0,35
0,69,0,0
0,66,86,15
0,69,86,0
0,35,0,5
0,35,115,60
0,64,0,0
0,64,95,0
0,67,0,0
0,67,95,0
0,70,0,25
0,70,0,0
0,70,0,0
0,69,0,30
0,35,0,5
0,66,0,15
0,38,120,30
0,38,90,15
0,50,90,0
0,62,84,0
0,38,80,0
0,62,84,0
0,62,84,0
0,41,125,5
0,42,90,0
0,62,96,0
0,66,96,0
0,67,0,15
0,38,0,25
0,42,0,15
0,64,0,0
0,41,0,5
0,62,0,35
0,62,0,0
0,62,0,0
0,50,0,100
0,38,0,0
0,38,0,35
0,69,106,5
0,69,106,0
0,69,106,0
0,69,0,115
0,69,0,0
0,69,0,0
0,62,0,85
0,66,0,0
0,66,90,5
0,62,90,0
0,57,90,0
0,69,120,3
0,38,97,2
0,50,97,0
0,38,95,0
0,49,115,0
0,42,105,0
0,35,115,0
0,35,0,55
0,42,0,0
0,38,0,35
0,69,0,47
0,38,90,98
0,38,0,85
0,66,83,5
0,57,83,0
0,62,94,0
0,38,90,0
0,42,105,0
0,38,115,0
0,74,125,4
0,50,0,36
0,38,0,20
0,38,0,0
0,42,0,0
0,38,0,40
0,74,0,107
0,50,90,33
0,38,90,0
0,38,96,0
0,57,0,80
0,62,0,0
0,66,0,0
0,38,0,5
0,38,0,95
0,50,0,25
0,64,96,5
0,57,96,0
0,61,94,0
0,38,90,0
0,42,105,0
0,35,115,0
0,73,125,1
0,35,0,59
0,42,0,0
0,38,0,40
0,73,0,104
0,38,90,5
0,35,115,0
0,74,106,2
0,35,0,58
0,38,0,35
0,74,0,17
0,50,90,5
0,38,84,0
0,38,90,0
0,42,105,0
0,38,115,0
0,76,100,12
0,61,0,38
0,64,0,10
0,57,0,0
0,38,0,0
0,42,0,0
0,38,0,20
0,76,0,25
0,49,0,55
0,57,97,5
0,62,97,0
0,66,101,0
0,38,90,0
0,35,105,0
0,78,125,3
0,35,0,57
0,38,0,25
0,38,90,155
0,42,105,0
0,35,115,0
0,35,0,60
0,42,0,0
0,38,0,30
0,38,93,150
0,38,0,30
0,50,0,20
0,38,0,40
0,78,0,122
0,50,86,5
0,38,93,0
0,38,96,0
0,42,105,0
0,38,115,0
0,74,108,4
0,66,0,56
0,38,0,0
0,42,0,0
0,62,0,20
0,57,0,0
0,38,0,5
0,74,0,7
0,74,106,2
0,61,93,3
0,57,99,0
0,64,95,0
0,38,90,0
0,38,0,45
0,50,0,20
0,38,0,25
0,74,0,34
0,50,88,5
0,38,81,0
0,38,90,0
0,42,105,0
0,35,115,0
0,73,114,1
0,57,0,39
0,64,0,0
0,61,0,10
0,35,0,10
0,42,0,0
0,38,0,40
0,73,0,71
0,74,92,4
0,57,96,1
0,66,96,0
0,62,94,0
0,38,92,0
0,35,115,0
0,35,0,60
0,62,0,25
0,38,0,5
0,66,0,25
0,57,0,5
0,74,0,51
0,57,94,5
0,62,98,0
0,66,92,0
0,38,90,0
0,42,105,0
0,38,115,0
0,73,108,7
0,38,0,3
0,50,0,10
0,38,0,40
0,42,0,0
0,38,0,25
0,73,0,13
0,38,90,5
0,35,105,0
0,73,104,16
0,62,0,4
0,66,0,0
0,57,0,30
0,35,0,10
0,38,0,20
0,57,0,155
0,62,0,0
0,66,0,0
0,43,104,5
0,62,70,0
0,59,70,0
0,67,70,0
0,31,91,0
0,42,105,5
0,35,115,0
0,62,90,0
0,59,90,0
0,55,90,0
0,67,0,55
0,59,0,0
0,35,0,0
0,42,0,0
0,62,0,5
0,31,0,50
0,73,0,1
0,62,70,4
0,59,70,0
0,67,70,0
0,31,90,0
0,71,91,22
0,67,0,38
0,59,0,0
0,62,0,5
0,31,0,35
0,71,0,107
0,74,121,8
0,86,101,0
0,62,70,25
0,67,70,0
0,59,70,0
0,31,90,0
0,42,105,0
0,38,115,0
0,74,121,5
0,59,0,55
0,67,0,0
0,62,0,0
0,38,0,0
0,42,0,0
0,86,0,10
0,74,0,0
0,74,0,25
0,31,0,10
0,74,115,110
0,86,95,0
0,62,70,25
0,59,70,0
0,67,70,0
0,31,90,0
0,74,115,0
0,67,0,60
0,59,0,0
0,62,0,5
0,86,0,5
0,74,0,5
0,31,0,20
0,74,0,0
0,76,115,120
0,88,95,0
0,59,70,25
0,62,70,0
0,67,70,0
0,31,90,0
0,42,105,0
0,35,115,0
0,76,115,5
0,67,0,55
0,35,0,0
0,42,0,0
0,62,0,5
0,59,0,0
0,31,0,45
0,88,0,65
0,76,0,0
0,76,0,25
0,74,115,15
0,86,95,0
0,59,70,25
0,62,70,0
0,67,70,0
0,31,90,0
0,74,115,0
0,35,115,0
0,67,0,60
0,62,0,0
0,35,0,0
0,59,0,5
0,86,0,5
0,74,0,5
0,31,0,15
0,74,0,5
0,74,115,120
0,86,95,0
0,62,70,25
0,59,70,0
0,67,70,0
0,31,92,0
0,42,105,0
0,38,115,0
0,74,115,5
0,86,0,50
0,67,0,5
0,59,0,0
