track,note,velocity,time
3,61,88,4637
3,61,0,12
3,61,73,12
3,61,0,12
3,61,73,12
3,61,0,56
3,62,71,16
3,62,0,13
3,62,87,11
3,62,0,56
3,64,79,16
3,64,0,11
3,64,91,13
3,64,0,30
3,64,81,18
3,64,0,5
3,61,77,129
3,61,0,11
3,61,77,13
3,61,0,12
3,61,67,12
3,61,0,48
3,62,81,0
3,62,0,18
3,62,95,30
3,62,0,40
3,64,77,8
3,64,0,19
3,64,83,29
3,64,0,43
3,62,75,5
3,62,0,17
3,62,79,31
3,62,0,43
3,61,77,5
3,61,0,15
3,61,83,33
3,61,0,42
3,59,73,6
3,59,0,15
3,59,71,33
3,59,0,43
3,57,59,5
3,57,0,30
3,57,57,18
3,57,0,103
3,62,79,425
3,62,0,9
3,62,81,15
3,62,0,12
3,62,91,12
3,62,0,41
3,64,79,31
3,64,0,10
3,64,91,14
3,64,0,33
3,66,79,39
3,66,0,13
3,66,87,11
3,66,0,21
3,64,77,27
3,64,0,22
3,66,77,2
3,66,0,13
3,62,77,245
3,62,0,10
3,62,79,14
3,62,0,10
3,62,81,14
3,62,0,38
3,64,69,10
3,64,0,15
3,64,81,33
3,64,0,48
3,66,79,0
3,66,0,16
3,66,91,32
3,66,0,41
3,64,69,7
3,64,0,8
3,64,81,40
3,64,0,44
3,62,79,4
3,62,0,12
3,62,79,36
3,62,0,42
3,61,77,6
3,61,0,14
3,61,83,34
3,61,0,45
3,59,75,3
3,59,0,21
3,59,79,27
3,59,0,96
3,64,81,48
3,64,0,11
3,64,79,13
3,64,0,11
3,64,81,13
3,64,0,34
3,66,81,14
3,66,0,16
3,66,95,32
3,66,0,42
3,68,67,6
3,68,0,17
3,68,83,31
3,68,0,39
3,66,99,9
3,66,0,14
3,66,103,34
3,66,0,37
3,64,79,11
3,64,0,16
3,64,81,32
3,64,0,45
3,62,71,3
3,62,0,16
3,62,79,32
3,62,0,47
3,61,83,1
3,61,0,19
3,61,99,29
3,61,0,45
3,59,81,3
3,59,0,17
3,59,71,31
3,59,0,44
3,57,67,4
3,57,0,26
3,57,61,22
3,57,0,2
3,61,79,154
3,61,0,9
3,61,81,15
3,61,0,12
3,61,79,12
3,61,0,37
3,62,73,35
3,62,0,11
3,62,91,13
3,62,0,26
3,64,73,46
3,64,0,12
3,64,81,12
3,64,0,29
3,64,79,19
3,64,0,47
3,61,77,137
3,61,0,11
3,61,75,13
3,61,0,12
3,61,67,12
3,61,0,39
3,62,71,9
3,62,0,13
3,62,77,35
3,62,0,43
3,64,77,5
3,64,0,21
3,64,75,27
3,64,0,46
3,62,71,2
3,62,0,16
3,62,79,32
3,62,0,44
3,61,83,4
3,61,0,20
3,61,83,28
3,61,0,41
3,59,69,7
3,59,0,19
3,59,69,29
3,59,0,42
3,57,69,6
3,57,0,29
3,57,61,19
3,57,0,113
3,62,73,415
3,62,0,11
3,62,69,13
3,62,0,9
3,62,81,15
3,62,0,41
3,64,73,31
3,64,0,12
3,64,83,12
3,64,0,35
3,66,73,37
3,66,0,12
3,66,91,12
3,66,0,24
3,64,77,24
3,64,0,17
3,66,67,7
3,66,0,2
3,62,61,149
3,62,0,7
3,62,81,17
3,62,0,12
3,62,81,12
3,62,0,43
3,64,79,5
3,64,0,12
3,64,79,36
3,64,0,45
3,66,79,3
3,66,0,16
3,66,79,32
3,66,0,44
3,64,77,4
3,64,0,15
3,64,71,33
3,64,0,48
3,62,71,0
3,62,0,14
3,62,71,34
3,62,0,44
3,61,79,4
3,61,0,15
3,61,87,33
3,61,0,45
3,59,69,3
3,59,0,23
3,59,73,25
3,59,0,104
3,64,79,40
3,64,0,12
3,64,77,12
3,64,0,12
3,64,79,12
3,64,0,47
3,66,71,1
3,66,0,14
3,66,95,34
3,66,0,45
3,68,83,3
3,68,0,20
3,68,83,28
3,68,0,41
3,66,95,7
3,66,0,16
3,66,91,32
3,66,0,37
3,64,77,11
3,64,0,17
3,64,71,31
3,64,0,48
3,62,67,0
3,62,0,15
3,62,63,33
3,62,0,41
3,61,71,7
3,61,0,18
3,61,81,30
3,61,0,44
3,59,71,4
3,59,0,18
3,59,71,30
3,59,0,47
3,57,77,1
3,57,0,26
3,57,75,22
3,57,0,20
3,69,81,77
3,69,0,22
3,69,75,26
3,69,0,22
3,69,79,26
3,69,0,23
3,69,81,25
3,69,0,21
3,69,81,27
3,69,0,22
3,69,81,26
3,69,0,21
3,68,95,27
3,68,0,57
3,64,87,39
3,64,0,46
3,62,79,2
3,62,0,99
3,69,81,45
3,69,0,43
3,68,83,5
3,68,0,91
3,64,83,53
3,64,0,43
3,62,77,5
3,62,0,92
3,68,91,52
3,68,0,44
3,66,91,4
3,66,0,45
3,64,69,3
3,64,0,19
3,64,95,29
3,64,0,5
3,69,73,99
3,69,0,24
3,69,81,24
3,69,0,29
3,69,83,19
3,69,0,27
3,69,77,21
3,69,0,28
3,69,87,20
3,69,0,25
3,69,81,23
3,69,0,32
3,68,91,16
3,68,0,53
3,64,83,43
3,64,0,43
3,62,79,5
3,62,0,82
3,69,77,62
3,69,0,38
3,68,67,10
3,68,0,5
3,64,75,34
3,64,0,45
3,62,75,3
3,62,0,73
3,68,95,71
3,68,0,47
3,66,77,1
3,66,0,47
3,64,59,1
3,64,0,21
3,64,81,27
3,64,0,2
3,61,95,25
3,61,0,27
3,61,71,21
3,61,0,24
3,61,95,24
3,61,0,25
3,61,77,23
3,61,0,23
3,61,95,25
3,61,0,23
3,61,87,25
3,61,0,44
3,62,91,4
3,62,0,44
3,64,81,4
3,64,0,48
3,66,79,48
3,66,0,1
3,61,99,44
3,61,0,41
3,62,79,7
3,62,0,41
3,61,73,7
3,61,0,24
3,61,87,24
3,61,0,47
3,59,73,1
3,59,0,13
3,69,79,199
3,69,0,24
3,69,77,24
3,69,0,21
3,69,81,27
3,69,0,22
3,69,81,26
3,69,0,22
3,69,81,26
3,69,0,22
3,69,77,26
3,69,0,30
3,68,83,18
3,68,0,67
3,64,91,29
3,64,0,43
3,62,77,5
3,62,0,97
3,69,81,47
3,69,0,43
3,68,79,5
3,68,0,87
3,64,77,57
3,64,0,41
3,62,79,7
3,62,0,82
3,61,87,62
3,61,0,47
3,59,75,1
3,59,0,47
3,57,61,1
3,57,0,33
3,57,81,15
3,57,0,7
3,69,77,104
3,69,0,27
3,69,83,21
3,69,0,28
3,69,73,20
3,69,0,28
3,69,77,20
3,69,0,25
3,69,69,23
3,69,0,24
3,69,73,24
3,69,0,38
3,68,61,10
3,68,0,69
3,64,79,27
3,64,0,42
3,62,87,6
3,62,0,88
3,69,75,56
3,69,0,44
3,68,79,4
3,68,0,84
3,64,81,60
3,64,0,46
3,62,81,2
3,62,0,84
3,61,67,60
3,61,0,47
3,59,73,1
3,59,0,47
3,57,61,25
3,57,0,446
3,61,75,2170
3,61,0,10
3,61,73,14
3,61,0,9
3,61,77,15
3,61,0,44
3,62,71,28
3,62,0,12
3,62,77,12
3,62,0,38
3,64,77,34
3,64,0,13
3,64,81,11
3,64,0,27
3,64,79,21
3,64,0,4
3,61,79,134
3,61,0,10
3,61,73,14
3,61,0,11
3,61,77,13
3,61,0,48
3,62,77,0
3,62,0,12
3,62,81,36
3,62,0,42
3,64,81,6
3,64,0,16
3,64,77,32
3,64,0,36
3,62,71,12
3,62,0,11
3,62,67,37
3,62,0,44
3,61,77,4
3,61,0,14
3,61,81,34
3,61,0,44
3,59,73,4
3,59,0,15
3,59,77,33
3,59,0,45
3,57,71,3
3,57,0,21
3,57,51,27
3,57,0,2
3,62,75,287
3,62,0,9
3,62,71,15
3,62,0,10
3,62,73,14
3,62,0,43
3,64,75,29
3,64,0,15
3,64,71,9
3,64,0,43
3,66,91,29
3,66,0,12
3,66,83,12
3,66,0,30
3,64,77,18
3,64,0,20
3,66,75,4
3,66,0,342
3,62,71,114
3,62,0,11
3,62,77,13
3,62,0,12
3,62,69,12
3,62,0,34
3,64,73,14
3,64,0,16
3,64,81,32
3,64,0,43
3,66,75,5
3,66,0,13
3,66,79,35
3,66,0,44
3,64,75,4
3,64,0,14
3,64,79,34
3,64,0,47
3,62,71,1
3,62,0,16
3,62,81,32
3,62,0,42
3,61,75,6
3,61,0,17
3,61,79,31
3,61,0,47
3,59,69,1
3,59,0,21
3,59,77,27
3,59,0,91
3,64,75,53
3,64,0,12
3,64,81,12
3,64,0,11
3,64,81,13
3,64,0,40
3,66,73,8
3,66,0,16
3,66,87,32
3,66,0,45
3,68,54,3
3,68,0,19
3,68,83,29
3,68,0,45
3,66,83,3
3,66,0,18
3,66,91,30
3,66,0,46
3,64,86,2
3,64,0,24
3,64,69,24
3,64,0,40
3,62,79,8
3,62,0,16
3,62,77,32
3,62,0,42
3,61,83,6
3,61,0,24
3,61,79,24
3,61,0,47
3,59,73,1
3,59,0,24
3,59,67,24
3,59,0,44
3,57,71,4
3,57,0,23
3,57,77,25
3,57,0,378
3,69,79,102
3,69,0,27
3,69,83,21
3,69,0,29
3,69,79,19
3,69,0,25
3,69,79,23
3,69,0,24
3,69,81,24
3,69,0,20
3,69,79,28
3,69,0,35
3,68,77,13
3,68,0,63
3,64,81,33
3,64,0,44
3,62,79,4
3,62,0,76
3,69,79,68
3,69,0,40
3,68,79,8
3,68,0,86
3,64,79,58
3,64,0,45
3,62,77,3
3,62,0,76
3,68,81,68
3,68,0,46
3,66,87,2
3,66,0,42
3,64,77,6
3,64,0,13
3,64,81,35
3,64,0,353
3,69,83,79
3,69,0,24
3,69,77,24
3,69,0,28
3,69,73,20
3,69,0,32
3,69,67,16
3,69,0,28
3,69,81,20
3,69,0,28
3,69,69,20
3,69,0,38
3,68,73,10
3,68,0,71
3,64,81,25
3,64,0,41
3,62,79,7
3,62,0,104
3,69,79,40
3,69,0,40
3,68,77,8
3,68,0,99
3,64,87,45
3,64,0,44
3,62,79,4
3,62,0,60
3,68,95,84
3,68,0,48
3,66,81,0
3,66,0,47
3,64,75,1
3,64,0,18
3,64,79,30
3,64,0,199
3,61,91,41
3,61,0,23
3,61,77,25
3,61,0,19
3,61,87,29
3,61,0,22
3,61,87,26
3,61,0,21
3,61,79,27
3,61,0,17
3,61,91,31
3,61,0,43
3,62,81,5
3,62,0,44
3,64,81,4
3,64,0,49
3,66,79,47
3,66,0,164
3,61,75,76
3,61,0,44
3,62,73,4
3,62,0,47
3,61,73,1
3,61,0,41
3,61,73,7
3,61,0,41
3,59,79,7
3,59,0,382
3,69,77,98
3,69,0,26
3,69,73,22
3,69,0,26
3,69,79,22
3,69,0,26
3,69,77,22
3,69,0,29
3,69,79,19
3,69,0,24
3,69,73,24
3,69,0,25
3,68,79,23
3,68,0,64
3,64,87,32
3,64,0,43
3,62,83,5
3,62,0,95
3,69,81,49
3,69,0,47
3,68,75,1
3,68,0,79
3,64,83,65
3,64,0,46
3,62,79,2
3,62,0,100
3,61,87,44
3,61,0,48
3,59,75,0
3,59,0,47
3,57,63,1
3,57,0,12
3,57,79,36
3,57,0,358
3,69,81,74
3,69,0,29
3,69,79,19
3,69,0,26
3,69,77,22
3,69,0,26
3,69,77,22
3,69,0,32
3,69,79,16
3,69,0,27
3,69,81,21
3,69,0,38
3,68,81,10
3,68,0,70
3,64,87,26
3,64,0,47
3,62,81,1
3,62,0,81
3,69,81,63
3,69,0,41
3,68,79,7
3,68,0,89
3,64,75,55
3,64,0,44
3,62,79,4
3,62,0,75
3,68,83,69
3,68,0,47
3,66,67,1
3,66,0,45
3,64,71,3
3,64,0,17
3,64,69,31
3,64,0,3
3,69,73,105
3,69,0,24
3,69,81,24
3,69,0,27
3,69,77,21
3,69,0,24
3,69,67,24
3,69,0,27
3,69,81,21
3,69,0,25
3,69,69,23
3,69,0,37
3,68,75,11
3,68,0,62
3,64,77,34
3,64,0,44
3,62,79,4
3,62,0,89
3,69,75,55
3,69,0,42
3,68,52,6
3,68,0,89
3,64,81,55
3,64,0,47
3,62,79,1
3,62,0,68
3,68,87,76
3,68,0,47
3,66,75,1
3,66,0,43
3,64,75,5
3,64,0,13
3,64,77,35
3,64,0,3
3,61,95,36
3,61,0,21
3,61,69,27
3,61,0,21
3,61,87,27
3,61,0,22
3,61,79,26
3,61,0,21
3,61,73,27
3,61,0,21
3,61,79,27
3,61,0,44
3,62,81,4
3,62,0,47
3,64,77,1
3,64,0,55
3,66,71,41
3,66,0,164
3,61,79,28
3,61,0,95
3,62,81,1
3,62,0,47
3,61,67,1
3,61,0,26
3,61,69,22
3,61,0,47
3,59,79,1
3,59,0,4
3,69,77,115
3,69,0,25
3,69,73,23
3,69,0,22
3,69,67,26
3,69,0,27
3,69,77,21
3,69,0,27
3,69,67,21
3,69,0,27
3,69,77,21
3,69,0,35
3,68,75,13
3,68,0,62
3,64,79,34
3,64,0,44
3,62,79,4
3,62,0,106
3,69,69,38
3,69,0,41
3,68,53,7
3,68,0,89
3,64,81,55
3,64,0,45
3,62,77,3
3,62,0,94
3,61,87,50
3,61,0,47
3,59,73,1
3,59,0,47
3,57,63,1
3,57,0,27
3,57,77,21
3,57,0,339
3,69,69,93
3,69,0,29
3,69,69,19
3,69,0,24
3,69,77,24
3,69,0,30
3,69,77,18
3,69,0,28
3,69,81,20
3,69,0,27
3,69,75,21
3,69,0,38
3,68,69,0
3,68,0,26
3,64,81,22
3,64,0,48
3,62,81,0
3,62,0,29
3,69,77,0
3,69,0,47
3,68,73,0
3,68,0,34
3,64,79,48
3,64,0,47
3,62,81,1
3,62,0,31
3,61,81,48
3,61,0,47
3,59,77,0
3,59,0,47
3,57,63,0
3,57,0,18
3,57,75,30
3,57,0,14
3,69,73,0
3,69,0,24
3,69,77,0
3,69,0,31
3,69,71,17
3,69,0,27
3,69,67,21
3,69,0,28
3,69,71,20
3,69,0,27
3,69,71,21
3,69,0,43
3,68,79,5
3,68,0,33
3,64,77,15
3,64,0,46
3,62,83,2
3,62,0,37
3,69,77,0
3,69,0,48
3,68,65,0
3,68,0,7
3,64,79,41
3,64,0,47
3,62,87,1
3,62,0,37
3,61,79,0
3,61,0,47
3,59,77,1
3,59,0,45
3,57,61,0
3,57,0,25
3,57,79,0
3,57,0,23
4,81,66,648
4,85,62,0
4,85,0,4
4,81,0,17
4,78,64,3
4,83,64,0
4,83,0,24
4,78,0,0
4,81,64,0
4,85,66,0
4,85,0,24
4,81,0,0
4,83,42,0
4,78,62,0
4,78,0,24
4,83,0,0
4,81,66,0
4,76,46,0
4,76,0,24
4,81,0,0
4,73,72,0
4,78,56,0
4,73,0,22
4,78,0,13
4,76,68,0
4,73,54,0
4,76,0,23
4,73,0,23
4,76,62,1
4,81,62,0
4,81,0,23
4,76,0,0
4,78,62,1
4,73,42,0
4,73,0,6
4,78,0,5
4,78,64,0
4,73,50,0
4,78,0,24
4,73,0,14
4,78,64,0
4,81,58,0
4,81,0,9
4,78,0,22
4,85,54,2
4,81,66,0
4,85,0,13
4,81,0,1
4,90,64,24
4,86,64,0
4,86,0,24
4,90,0,0
4,92,66,0
4,88,66,0
4,88,0,24
4,92,0,0
4,86,52,0
4,90,56,0
4,90,0,24
4,86,0,0
4,85,52,0
4,88,56,0
4,85,0,23
4,88,0,1
4,81,52,0
4,85,58,0
4,85,0,337
4,81,0,12
4,78,64,35
4,74,60,0
4,78,0,173
4,74,0,3
4,74,56,16
4,78,76,0
4,78,0,94
4,74,0,1
4,76,62,1
4,80,56,0
4,80,0,47
4,76,0,0
4,81,66,1
4,78,56,0
4,78,0,240
4,81,0,0
4,80,62,0
4,76,68,0
4,76,0,52
4,80,0,13
4,76,64,31
4,73,64,0
4,73,0,46
4,69,46,2
4,73,50,0
4,76,0,8
4,69,0,40
4,76,62,48
4,73,0,187
4,76,0,39
4,78,62,14
4,74,64,0
4,74,0,24
4,78,0,0
4,80,58,0
4,76,62,0
4,76,0,24
4,80,0,0
4,78,38,0
4,74,50,0
4,74,0,24
4,78,0,0
4,76,64,0
4,73,31,0
4,73,0,21
4,76,0,3
