track,note,velocity,time
1,35,107,1920
1,35,101,302
1,35,98,520
1,35,98,52
1,35,101,200
1,35,101,202
1,35,101,420
1,35,98,48
1,35,98,208
1,35,101,180
1,35,101,470
1,35,101,46
1,35,95,224
1,35,101,244
1,35,101,526
1,35,101,54
1,35,101,284
1,35,101,248
1,35,95,448
1,35,86,50
1,35,95,180
1,35,98,190
1,35,95,518
1,35,86,48
1,35,95,204
1,35,101,216
1,35,98,512
1,35,95,44
1,35,95,244
1,35,101,262
1,35,95,538
1,35,92,54
1,35,98,206
1,35,95,126
1,35,89,56
1,35,95,488
1,35,86,52
1,35,98,258
1,35,98,260
1,35,95,536
1,35,89,46
1,35,101,238
1,35,98,272
1,35,89,542
1,35,86,48
1,35,95,276
1,35,95,300
1,35,95,546
1,35,92,60
1,35,95,274
1,35,86,150
1,35,101,70
1,35,95,448
1,35,86,50
1,35,95,180
1,35,98,190
1,35,95,518
1,35,86,48
1,35,95,204
1,35,101,216
1,35,98,512
1,35,95,44
1,35,95,244
1,35,101,262
1,35,95,538
1,35,92,54
1,35,98,206
1,35,95,126
1,35,89,56
1,35,95,488
1,35,86,52
1,35,98,258
1,35,98,260
1,35,95,536
1,35,89,46
1,35,101,238
1,35,98,272
1,35,89,542
1,35,86,48
1,35,95,276
1,35,95,300
1,35,95,546
1,35,92,60
1,35,95,274
1,35,86,150
1,35,95,70
1,35,86,494
1,35,89,42
1,35,95,220
1,35,92,246
1,35,92,526
1,35,95,26
1,35,92,250
1,35,95,264
1,35,86,536
1,35,95,50
1,35,95,282
1,35,95,276
1,35,86,544
1,35,89,54
1,35,89,266
1,35,95,288
1,35,89,552
1,35,92,50
1,35,95,286
1,35,95,282
1,35,89,540
1,35,95,52
1,35,95,246
1,35,95,276
1,35,92,552
1,35,98,54
1,35,95,284
1,35,98,274
1,35,92,530
1,35,98,44
1,35,98,218
1,35,86,140
1,35,101,58
1,35,95,448
1,35,86,50
1,35,95,180
1,35,98,190
1,35,95,518
1,35,86,48
1,35,95,204
1,35,101,216
1,35,98,512
1,35,95,44
1,35,95,244
1,35,101,262
1,35,95,538
1,35,92,54
1,35,98,206
1,35,95,126
1,35,89,56
1,35,95,488
1,35,86,52
1,35,98,258
1,35,98,260
1,35,95,536
1,35,89,46
1,35,101,238
1,35,98,272
1,35,89,542
1,35,86,48
1,35,95,276
1,35,95,300
1,35,95,546
1,35,92,60
1,35,95,274
1,35,86,150
1,35,101,70
1,35,98,520
1,35,98,52
1,35,101,200
1,35,101,202
1,35,101,420
1,35,98,48
1,35,98,208
1,35,101,180
1,35,101,470
1,35,101,46
1,35,95,224
1,35,101,244
1,35,101,526
1,35,101,54
1,35,101,284
1,35,101,248
1,35,95,448
1,35,86,50
1,35,95,180
1,35,98,190
1,35,95,518
1,35,86,48
1,35,95,204
1,35,101,216
1,35,98,512
1,35,95,44
1,35,95,244
1,35,101,262
1,35,95,538
1,35,92,54
1,35,98,206
1,35,95,126
1,35,89,56
1,35,95,488
1,35,86,52
1,35,98,258
1,35,98,260
1,35,95,536
1,35,89,46
1,35,101,238
1,35,98,272
1,35,89,542
1,35,86,48
1,35,95,276
1,35,95,300
1,35,95,546
1,35,92,60
1,35,95,274
1,35,86,150
1,35,95,70
1,35,86,494
1,35,89,42
1,35,95,220
1,35,92,246
1,35,92,526
1,35,95,26
1,35,92,250
1,35,95,264
1,35,86,536
1,35,95,50
1,35,95,282
1,35,95,276
1,35,86,544
1,35,89,54
1,35,89,266
1,35,95,288
1,35,89,552
1,35,92,50
1,35,95,286
1,35,95,282
1,35,89,540
1,35,95,52
1,35,95,246
1,35,95,276
1,35,92,552
1,35,98,54
1,35,95,284
1,35,98,274
1,35,92,530
1,35,98,44
1,35,98,218
1,35,86,140
1,35,101,58
1,35,95,448
1,35,86,50
1,35,95,180
1,35,98,190
1,35,95,518
1,35,86,48
1,35,95,204
1,35,101,216
1,35,98,512
1,35,95,44
1,35,95,244
1,35,101,262
1,35,95,538
1,35,92,54
1,35,98,206
1,35,95,126
1,35,89,56
1,35,95,488
1,35,86,52
1,35,98,258
1,35,98,260
1,35,95,536
1,35,89,46
1,35,101,238
1,35,98,272
1,35,89,542
1,35,86,48
1,35,95,276
1,35,95,300
1,35,95,546
1,35,92,60
1,35,95,274
1,35,86,150
1,35,101,70
1,35,95,448
1,35,86,50
1,35,95,180
1,35,98,190
1,35,95,518
1,35,86,48
1,35,95,204
1,35,101,216
1,35,98,512
1,35,95,44
1,35,95,244
1,35,101,262
1,35,95,538
1,35,92,54
1,35,98,206
1,35,95,126
1,35,89,56
1,35,95,488
1,35,86,52
1,35,98,258
1,35,98,260
1,35,95,536
1,35,89,46
1,35,101,238
1,35,98,272
1,35,89,542
1,35,86,48
1,35,95,276
1,35,95,300
1,35,95,546
1,35,92,60
1,35,95,274
1,35,86,150
1,35,101,70
1,35,95,448
1,35,86,50
1,35,95,180
1,35,98,190
1,35,95,518
1,35,86,48
1,35,95,204
1,35,101,216
1,35,98,512
1,35,95,44
1,35,95,244
1,35,101,262
1,35,95,538
1,35,92,54
1,35,98,206
1,35,95,126
1,35,89,56
1,35,95,488
1,35,86,52
1,35,98,258
1,35,98,260
1,35,95,536
1,35,89,46
1,35,101,238
1,35,98,272
1,35,89,542
1,35,86,48
1,35,95,276
1,35,95,300
1,35,95,546
1,35,92,60
1,35,95,274
1,35,86,150
1,35,101,70
1,35,98,520
1,35,98,52
1,35,101,200
1,35,101,202
1,35,101,420
1,35,98,48
1,35,98,208
1,35,101,180
1,35,101,470
1,35,101,46
1,35,95,224
1,35,101,244
1,35,101,526
1,35,101,54
1,35,101,284
1,35,101,248
1,35,98,520
1,35,98,52
1,35,101,200
1,35,101,202
1,35,101,420
1,35,98,48
1,35,98,208
1,35,101,180
1,35,101,470
1,35,101,46
1,35,95,224
1,35,101,244
1,35,101,526
1,35,101,54
1,35,101,284
1,35,101,248
1,35,98,520
1,35,98,52
1,35,101,200
1,35,101,202
1,35,101,420
1,35,98,48
1,35,98,208
1,35,101,180
1,35,95,300
1,35,101,38
1,35,95,194
1,35,101,190
1,35,101,74
1,35,104,40
2,38,89,2560
2,38,86,62
2,38,86,186
2,38,86,446
2,38,92,682
2,38,98,692
2,38,98,674
2,38,98,672
2,38,98,674
2,38,98,684
2,38,98,678
2,38,86,674
2,38,86,654
2,38,92,680
2,38,89,694
2,38,89,692
2,38,98,690
2,38,98,684
2,38,89,672
2,38,89,162
2,38,95,432
2,38,89,674
2,38,92,704
2,38,95,676
2,38,95,688
2,38,98,694
2,38,101,680
2,38,92,562
2,38,86,58
2,38,86,196
2,38,86,446
2,38,86,654
2,38,92,680
2,38,89,694
2,38,89,692
2,38,98,690
2,38,98,684
2,38,89,672
2,38,89,162
2,38,95,432
2,38,89,674
2,38,92,704
2,38,95,676
2,38,95,688
2,38,98,694
2,38,101,680
2,38,92,562
2,38,86,58
2,38,86,196
2,38,92,446
2,38,89,656
2,38,92,672
2,38,95,670
2,38,89,686
2,38,92,692
2,38,95,678
2,38,95,670
2,38,95,672
2,38,95,672
2,38,86,670
2,38,95,664
2,38,95,664
2,38,95,674
2,38,92,664
2,38,86,562
2,38,80,58
2,38,86,184
2,38,86,436
2,38,86,654
2,38,92,680
2,38,89,694
2,38,89,692
2,38,98,690
2,38,98,684
2,38,89,672
2,38,89,162
2,38,95,432
2,38,89,674
2,38,92,704
2,38,95,676
2,38,95,688
2,38,98,694
2,38,101,680
2,38,92,562
2,38,86,58
2,38,86,196
2,38,86,446
2,38,92,682
2,38,98,692
2,38,98,674
2,38,98,672
2,38,98,674
2,38,98,684
2,38,98,678
2,38,86,674
2,38,86,654
2,38,92,680
2,38,89,694
2,38,89,692
2,38,98,690
2,38,98,684
2,38,89,672
2,38,89,162
2,38,95,432
2,38,89,674
2,38,92,704
2,38,95,676
2,38,95,688
2,38,98,694
2,38,101,680
2,38,92,562
2,38,86,58
2,38,86,196
2,38,92,446
2,38,89,656
2,38,92,672
2,38,95,670
2,38,89,686
2,38,92,692
2,38,95,678
2,38,95,670
2,38,95,672
2,38,95,672
2,38,86,670
2,38,95,664
2,38,95,664
2,38,95,674
2,38,92,664
2,38,86,562
2,38,80,58
2,38,86,184
2,38,86,436
2,38,86,654
2,38,92,680
2,38,89,694
2,38,89,692
2,38,98,690
2,38,98,684
2,38,89,672
2,38,89,162
2,38,95,432
2,38,89,674
2,38,92,704
2,38,95,676
2,38,95,688
2,38,98,694
2,38,101,680
2,38,92,562
2,38,86,58
2,38,86,196
2,38,86,446
2,38,86,654
2,38,92,680
2,38,89,694
2,38,89,692
2,38,98,690
2,38,98,684
2,38,89,672
2,38,89,162
2,38,95,432
2,38,89,674
2,38,92,704
2,38,95,676
2,38,95,688
2,38,98,694
2,38,101,680
2,38,92,562
2,38,86,58
2,38,86,196
2,38,86,446
2,38,86,654
2,38,92,680
2,38,89,694
2,38,89,692
2,38,98,690
2,38,98,684
2,38,89,672
2,38,89,162
2,38,95,432
2,38,89,674
2,38,92,704
2,38,95,676
2,38,95,688
2,38,98,694
2,38,101,680
2,38,92,562
2,38,86,58
2,38,86,196
2,38,86,446
2,38,92,682
2,38,98,692
2,38,98,674
2,38,98,672
2,38,98,674
2,38,98,684
2,38,98,678
2,38,86,674
2,38,92,682
2,38,98,692
2,38,98,674
2,38,98,672
2,38,98,674
2,38,98,684
2,38,98,678
2,38,86,674
2,38,92,682
2,38,98,692
2,38,98,674
2,38,86,672
2,38,89,672
2,38,86,176
3,42,77,3072
3,42,54,70
3,42,64,68
3,44,89,52
3,42,68,62
3,42,66,58
3,42,86,68
3,42,74,60
3,42,77,68
3,44,86,56
3,42,71,68
3,42,77,60
3,42,86,58
3,42,74,54
3,42,74,72
3,44,89,58
3,42,71,66
3,42,83,56
3,42,83,62
3,42,77,62
3,42,77,70
3,42,44,54
3,44,92,0
3,42,77,68
3,42,86,52
3,42,86,62
3,42,83,62
3,42,86,58
3,44,86,50
3,42,77,72
3,42,83,64
3,42,86,66
3,42,77,64
3,42,83,68
3,44,86,58
3,42,74,74
3,42,86,74
3,42,83,62
3,42,74,62
3,42,80,70
3,44,86,56
3,42,71,70
3,42,80,68
3,42,83,72
3,42,74,62
3,42,83,60
3,44,95,56
3,42,83,70
3,42,86,62
3,42,71,66
3,42,77,52
3,42,77,60
3,44,80,52
3,42,68,40
3,42,77,54
3,42,77,54
3,42,74,50
3,42,77,54
3,44,86,44
3,42,71,30
3,42,80,54
3,42,83,44
3,42,74,48
3,42,80,52
3,44,77,44
3,42,74,50
3,42,86,52
3,42,80,44
3,42,74,50
3,42,86,50
3,44,86,42
3,42,77,46
3,42,86,46
3,42,77,48
3,42,74,44
3,42,83,50
3,44,83,40
3,42,71,50
3,42,83,52
3,42,80,44
3,42,77,48
3,42,77,52
3,44,83,46
3,42,74,44
3,42,80,50
3,42,83,42
3,42,74,46
3,42,83,54
3,44,80,44
3,42,71,42
3,42,80,44
3,42,80,46
3,42,77,46
3,42,80,56
3,44,77,46
3,42,80,58
3,42,80,50
3,42,86,42
3,42,77,46
3,42,83,56
3,44,77,40
3,42,74,54
3,42,77,44
3,42,83,40
3,42,71,50
3,42,74,48
3,44,74,38
3,42,68,56
3,42,83,54
3,42,80,44
3,42,68,48
3,42,71,48
3,44,77,38
3,42,74,54
3,42,77,52
3,42,80,46
3,42,66,48
3,42,77,54
3,44,80,32
3,42,71,50
3,42,77,52
3,42,77,44
3,42,68,42
3,42,71,44
3,44,80,28
3,42,68,48
3,42,77,54
3,42,77,42
3,42,74,44
3,42,74,56
3,44,77,50
3,42,77,48
3,42,68,46
3,42,80,52
3,42,71,56
3,42,77,54
3,42,83,56
3,42,71,60
3,42,74,54
3,42,77,56
3,42,77,60
3,42,86,58
3,42,86,50
3,42,92,58
3,42,92,50
3,42,71,72
3,42,77,52
3,42,77,60
3,44,80,52
3,42,68,40
3,42,77,54
3,42,77,54
3,42,74,50
3,42,77,54
3,44,86,44
3,42,71,30
3,42,80,54
3,42,83,44
3,42,74,48
3,42,80,52
3,44,77,44
3,42,74,50
3,42,86,52
3,42,80,44
3,42,74,50
3,42,86,50
3,44,86,42
3,42,77,46
3,42,86,46
3,42,77,48
3,42,74,44
3,42,83,50
3,44,83,40
3,42,71,50
3,42,83,52
3,42,80,44
3,42,77,48
3,42,77,52
3,44,83,46
3,42,74,44
3,42,80,50
3,42,83,42
3,42,74,46
3,42,83,54
3,44,80,44
3,42,71,42
3,42,80,44
3,42,80,46
3,42,77,46
3,42,80,56
3,44,77,46
3,42,80,58
3,42,80,50
3,42,86,42
3,42,77,46
3,42,83,56
3,44,77,40
3,42,74,54
3,42,77,44
3,42,83,40
3,42,71,50
3,42,74,48
3,44,74,38
3,42,68,56
3,42,83,54
3,42,80,44
3,42,68,48
3,42,71,48
3,44,77,38
3,42,74,54
3,42,77,52
3,42,80,46
3,42,66,48
3,42,77,54
3,44,80,32
3,42,71,50
3,42,77,52
3,42,77,44
3,42,68,42
3,42,71,44
3,44,80,28
3,42,68,48
3,42,77,54
3,42,77,42
3,42,74,44
3,42,74,56
3,44,77,50
3,42,77,48
3,42,68,46
3,42,80,52
3,42,71,56
3,42,77,54
3,42,83,56
3,42,71,60
3,42,74,54
3,42,77,56
3,42,77,60
3,42,86,58
3,42,86,50
3,42,92,58
3,42,92,50
3,42,74,72
3,42,64,70
3,42,64,68
3,42,68,58
3,42,60,64
3,42,58,58
3,42,60,60
3,42,54,58
3,42,54,54
3,42,71,58
3,42,64,56
3,42,66,62
3,42,68,58
3,42,60,60
3,42,64,62
3,42,71,54
3,42,68,58
3,42,62,60
3,42,66,58
3,42,60,58
3,42,71,58
3,42,68,52
3,42,68,58
3,42,66,54
3,42,62,54
3,42,62,50
3,42,68,54
3,42,68,46
3,42,66,54
3,42,71,54
3,42,64,52
3,42,64,54
3,42,71,54
3,42,68,54
3,42,64,60
3,42,64,54
3,42,68,54
3,42,71,48
3,42,64,54
3,42,74,46
3,42,68,54
3,42,66,50
3,42,71,50
3,42,64,52
3,42,71,50
3,42,80,54
3,42,71,58
3,42,71,56
3,42,74,48
3,42,64,46
3,42,66,50
3,42,86,50
3,42,71,54
3,42,68,48
3,42,74,50
3,42,74,46
3,42,68,54
3,42,77,54
3,42,68,56
3,42,68,52
3,42,71,50
3,42,68,52
3,42,62,58
3,42,77,52
3,42,64,54
3,42,71,52
3,42,80,58
3,42,68,54
3,42,74,48
3,42,77,52
3,42,74,56
3,42,66,56
3,42,83,52
3,42,77,52
3,42,74,52
3,42,86,46
3,42,77,56
3,42,86,56
3,42,86,54
3,42,83,50
3,42,80,54
3,42,86,56
3,42,83,64
3,42,86,62
3,42,86,62
3,42,80,60
3,42,80,60
3,42,77,54
3,42,80,54
3,42,83,56
3,42,77,56
3,42,74,50
3,42,77,50
3,42,74,48
3,42,71,58
3,42,86,58
3,42,71,68
3,42,77,52
3,42,77,60
3,44,80,52
3,42,68,40
3,42,77,54
3,42,77,54
3,42,74,50
3,42,77,54
3,44,86,44
3,42,71,30
3,42,80,54
3,42,83,44
3,42,74,48
3,42,80,52
3,44,77,44
3,42,74,50
3,42,86,52
3,42,80,44
3,42,74,50
3,42,86,50
3,44,86,42
3,42,77,46
3,42,86,46
3,42,77,48
3,42,74,44
3,42,83,50
3,44,83,40
3,42,71,50
3,42,83,52
3,42,80,44
3,42,77,48
3,42,77,52
3,44,83,46
3,42,74,44
3,42,80,50
3,42,83,42
3,42,74,46
3,42,83,54
3,44,80,44
3,42,71,42
3,42,80,44
3,42,80,46
3,42,77,46
3,42,80,56
3,44,77,46
3,42,80,58
3,42,80,50
3,42,86,42
3,42,77,46
3,42,83,56
3,44,77,40
3,42,74,54
3,42,77,44
3,42,83,40
3,42,71,50
3,42,74,48
3,44,74,38
3,42,68,56
3,42,83,54
3,42,80,44
3,42,68,48
3,42,71,48
3,44,77,38
3,42,74,54
3,42,77,52
3,42,80,46
3,42,66,48
