track,note,velocity,time
1,50,97,15744
1,48,90,26
1,47,109,42
1,45,109,144
1,43,80,142
1,41,103,76
1,49,106,62
1,36,92,0
1,42,77,134
1,42,71,62
1,38,88,66
1,42,112,0
1,42,60,22
1,42,53,66
1,42,65,72
1,42,106,66
1,36,74,0
1,42,73,138
1,42,71,72
1,38,88,42
1,46,95,0
1,42,83,22
1,42,73,52
1,42,80,56
1,36,65,0
1,42,80,62
1,36,82,0
1,42,83,154
1,42,77,60
1,38,90,38
1,46,77,0
1,42,80,24
1,42,69,58
1,42,86,62
1,42,83,62
1,36,82,0
1,42,75,36
1,42,59,62
1,42,69,62
1,38,88,56
1,46,90,0
1,38,84,32
1,42,80,0
1,42,69,52
1,38,67,52
1,42,80,0
1,49,112,42
1,36,103,0
1,42,90,184
1,42,75,62
1,38,95,34
1,42,106,0
1,42,69,46
1,42,80,56
1,46,86,96
1,42,106,36
1,36,90,0
1,42,80,130
1,42,73,50
1,38,84,8
1,42,106,0
1,42,77,40
1,42,100,56
1,46,86,6
1,42,100,42
1,36,84,0
1,42,83,136
1,42,75,46
1,38,84,24
1,42,112,0
1,42,80,36
1,42,86,56
1,46,86,20
1,42,112,50
1,36,82,0
1,42,80,136
1,42,77,56
1,38,88,54
1,42,112,0
1,42,75,40
1,42,95,66
1,46,83,24
1,42,112,52
1,36,72,0
1,42,80,136
1,42,73,56
1,38,86,38
1,42,112,0
1,42,75,46
1,42,90,60
1,46,83,32
1,42,118,44
1,36,88,0
1,42,86,146
1,42,75,56
1,38,88,32
1,42,112,0
1,42,75,46
1,42,100,60
1,46,77,32
1,42,112,46
1,36,92,0
1,42,100,146
1,42,57,56
1,38,90,42
1,42,106,0
1,42,77,50
1,42,100,66
1,46,86,36
1,42,112,42
1,36,86,0
1,42,83,142
1,42,64,62
1,38,86,38
1,42,106,0
1,42,77,46
1,42,95,60
1,46,80,26
1,42,118,40
1,36,86,0
1,42,100,146
1,42,75,46
1,38,92,48
1,42,118,0
1,38,82,46
1,42,80,0
1,42,118,46
1,38,106,36
1,49,90,0
1,49,112,52
1,36,92,0
1,42,90,184
1,42,75,62
1,38,92,6
1,42,106,0
1,42,69,46
1,42,80,26
1,36,83,0
1,46,86,30
1,42,106,36
1,36,92,0
1,42,80,130
1,42,73,50
1,38,92,8
1,42,106,0
1,42,77,40
1,42,100,56
1,36,81,0
1,46,86,6
1,42,100,42
1,36,103,0
1,42,83,136
1,42,75,46
1,38,92,44
1,42,112,0
1,42,80,36
1,42,86,52
1,36,86,0
1,46,86,20
1,42,112,50
1,36,95,0
1,42,80,136
1,42,77,56
1,38,92,16
1,42,112,0
1,42,75,4
1,42,95,66
1,36,92,0
1,46,83,24
1,42,112,52
1,36,95,0
1,42,80,136
1,42,73,56
1,38,89,8
1,42,112,0
1,42,75,46
1,42,90,0
1,36,81,0
1,46,83,20
1,42,118,44
1,36,89,0
1,42,86,146
1,42,75,56
1,38,92,12
1,42,112,0
1,42,75,8
1,38,99,60
1,42,100,0
1,38,95,32
1,46,77,0
1,42,112,14
1,36,95,0
1,42,100,146
1,42,57,20
1,42,106,60
1,36,92,0
1,42,77,50
1,42,100,66
1,46,86,36
1,42,112,42
1,36,86,0
1,42,83,142
1,42,64,62
1,42,106,56
1,36,92,0
1,42,77,46
1,42,95,60
1,46,80,0
1,42,112,40
1,36,102,0
1,42,90,184
1,42,75,62
1,42,106,56
1,36,93,0
1,42,69,46
1,42,80,56
1,46,86,14
1,42,106,36
1,36,91,0
1,42,80,130
1,42,73,50
1,42,106,56
1,36,99,0
1,42,77,40
1,38,91,56
1,42,100,0
1,38,93,6
1,46,86,0
1,42,100,42
1,36,109,0
1,42,83,136
1,42,75,46
1,38,105,8
1,42,112,0
1,42,80,36
1,42,86,56
1,46,86,20
1,42,112,48
1,36,91,0
1,42,80,136
1,42,77,56
1,38,96,14
1,42,112,0
1,42,75,40
1,42,95,66
1,46,83,24
1,42,112,50
1,36,88,0
1,42,80,136
1,42,73,56
1,38,99,66
1,42,112,0
1,42,75,46
1,42,90,60
1,46,83,32
1,36,86,0
1,38,102,14
1,42,118,0
1,38,96,38
1,42,86,30
1,38,113,56
1,42,75,0
1,42,112,24
1,38,109,46
1,42,75,0
1,38,105,54
1,42,100,0
1,38,105,32
1,46,77,0
1,49,112,46
1,82,105,0
1,36,106,0
1,82,40,52
1,42,90,54
1,82,52,0
1,42,75,48
1,82,56,0
1,38,103,56
1,42,106,0
1,82,113,0
1,42,69,46
1,42,80,6
1,82,52,0
1,36,92,0
1,46,86,40
1,82,56,0
1,42,106,36
1,82,87,0
1,36,106,0
1,82,52,34
1,42,80,58
1,82,47,0
1,42,73,42
1,82,54,0
1,38,109,52
1,42,106,0
1,82,113,0
1,42,77,40
1,82,58,0
1,42,100,22
1,82,54,0
1,36,92,0
1,46,86,6
1,82,56,0
1,42,100,42
1,82,105,0
1,36,106,0
1,82,56,40
1,42,83,54
1,82,45,0
1,42,75,46
1,82,51,0
1,38,103,10
1,42,112,0
1,82,105,0
1,42,80,36
1,82,58,0
1,42,86,38
1,82,46,0
1,36,82,0
1,46,86,20
1,82,51,0
1,42,112,50
1,82,82,0
1,36,113,0
1,82,46,40
1,42,80,64
1,82,50,0
1,42,77,54
1,82,52,0
1,38,106,54
1,42,112,0
1,82,105,0
1,42,75,34
1,82,60,0
1,42,95,30
1,82,48,0
1,36,80,0
1,46,83,24
1,82,51,0
1,42,112,42
1,82,70,0
1,36,103,0
1,82,50,38
1,42,80,48
1,82,41,0
1,42,73,46
1,82,54,0
1,38,103,8
1,42,112,0
1,82,99,0
1,42,75,38
1,82,51,0
1,42,90,58
1,82,51,0
1,46,83,32
1,82,51,0
1,42,118,44
1,82,99,0
1,36,103,0
1,82,48,40
1,42,86,58
1,82,54,0
1,42,75,46
1,82,54,0
1,38,103,54
1,42,112,0
1,82,99,0
1,42,75,40
1,82,45,0
1,42,100,58
1,82,51,0
1,36,90,0
1,46,77,32
1,82,45,0
1,42,112,46
1,82,87,0
1,36,103,0
1,82,47,28
1,42,100,58
1,82,46,0
1,42,57,48
1,82,52,0
1,38,103,10
1,42,106,0
1,82,99,0
1,42,77,36
1,82,51,0
1,42,100,52
1,82,40,0
1,46,86,36
1,82,47,0
1,36,90,0
1,42,112,42
1,82,99,0
1,36,95,0
1,82,52,42
1,42,83,58
1,82,64,0
1,42,64,42
1,82,54,0
1,38,97,34
1,42,106,0
1,82,99,0
1,42,77,38
1,82,52,0
1,42,95,26
1,82,51,0
1,36,103,0
1,46,80,4
1,82,51,0
1,49,112,38
1,82,105,0
1,36,126,0
1,82,58,54
1,42,90,48
1,82,46,0
1,42,75,58
1,82,58,0
1,38,113,40
1,42,106,0
1,82,113,0
1,42,69,42
1,82,51,0
1,42,80,56
1,82,38,0
1,36,95,0
1,46,86,18
1,82,60,0
1,42,106,36
1,82,99,0
1,36,122,0
1,82,54,34
1,42,80,58
1,82,38,0
1,42,73,50
1,82,54,0
1,38,117,18
1,42,106,0
1,82,105,0
1,42,77,40
1,82,52,0
1,42,100,32
1,82,42,0
1,36,92,0
1,46,86,6
1,82,45,0
1,42,100,42
1,82,99,0
1,36,122,0
1,82,51,38
1,42,83,54
1,82,44,0
1,42,75,46
1,82,62,0
1,38,122,30
1,42,112,0
1,82,99,0
1,42,80,36
1,82,50,0
1,42,86,8
1,82,48,0
1,36,97,0
1,46,86,20
1,82,58,0
1,42,112,50
1,82,99,0
1,36,109,0
1,82,46,40
1,42,80,64
1,82,48,0
1,42,77,48
1,82,51,0
1,38,113,34
1,42,112,0
1,82,87,0
1,42,75,38
1,82,50,0
1,42,95,0
1,82,45,0
1,36,100,0
1,46,83,24
1,82,47,0
1,42,112,52
1,82,93,0
1,36,109,0
1,82,41,38
1,42,80,58
1,82,50,0
1,42,73,52
1,82,50,0
1,38,113,12
1,42,112,0
1,82,93,0
1,42,75,38
1,82,46,0
1,42,90,6
1,82,54,0
1,36,88,0
1,46,83,32
1,82,45,0
1,42,118,44
1,82,87,0
1,36,106,0
1,82,41,38
1,42,86,52
1,82,52,0
1,42,75,46
1,82,48,0
1,38,106,34
1,42,112,0
1,82,99,0
1,42,75,36
1,82,43,0
1,42,100,52
1,82,54,0
1,36,92,0
1,46,77,32
1,82,47,0
1,42,112,42
1,82,87,0
1,36,106,0
1,82,40,38
1,42,100,54
1,82,54,0
1,42,57,48
1,82,51,0
1,38,100,24
1,42,106,0
1,82,93,0
1,42,77,30
1,82,47,0
1,42,100,28
1,82,51,0
1,36,100,0
1,46,86,24
1,82,48,0
1,42,112,42
1,82,82,0
1,36,100,0
1,82,34,46
1,42,83,58
1,82,52,0
1,42,64,52
1,82,51,0
1,38,122,44
1,42,106,0
1,82,93,0
1,38,100,30
1,42,77,0
1,82,54,0
1,38,103,48
1,42,95,0
1,82,77,0
1,38,113,26
1,46,80,0
1,82,60,0
1,49,112,40
1,82,118,0
1,36,106,0
1,82,71,50
1,42,90,52
1,82,71,0
1,42,75,48
1,82,75,0
1,38,103,52
1,42,106,0
1,82,126,0
1,42,69,42
1,82,71,0
1,42,80,6
1,82,52,0
1,36,92,0
1,46,86,40
1,82,71,0
1,42,106,36
1,82,100,0
1,36,106,0
1,82,63,32
1,42,80,60
1,82,56,0
1,42,73,50
1,82,58,0
1,38,109,56
1,42,106,0
1,82,112,0
1,42,77,40
1,82,75,0
1,42,100,22
1,82,53,0
1,36,92,0
1,46,86,6
1,82,65,0
1,42,100,42
1,82,83,0
1,36,106,0
1,82,64,40
1,42,83,54
1,82,56,0
1,42,75,46
1,82,67,0
1,38,103,10
1,42,112,0
1,82,106,0
1,42,80,36
1,82,67,0
1,42,86,38
1,82,65,0
1,36,82,0
1,46,86,20
1,82,63,0
1,42,112,50
1,82,100,0
1,36,113,0
1,82,58,40
1,42,80,62
1,82,64,0
1,42,77,52
1,82,61,0
1,38,106,54
1,42,112,0
1,82,112,0
1,42,75,40
1,82,63,0
1,42,95,30
1,82,63,0
1,36,80,0
1,46,83,24
1,82,64,0
1,42,112,52
1,82,95,0
1,36,103,0
1,82,56,40
1,42,80,64
1,82,60,0
1,42,73,54
1,82,65,0
1,38,103,8
1,42,112,0
1,82,106,0
1,42,75,42
1,82,64,0
1,42,90,58
1,82,61,0
1,46,83,32
1,82,63,0
1,42,118,44
1,82,86,0
1,36,103,0
1,82,55,48
1,42,86,62
1,82,56,0
1,42,75,52
1,82,63,0
1,38,103,62
1,42,112,0
1,82,90,0
1,42,75,46
1,82,55,0
1,42,100,60
1,82,56,0
1,36,90,0
1,46,77,32
1,82,60,0
1,42,112,46
1,82,106,0
1,36,103,0
1,82,55,40
1,42,100,58
1,82,49,0
1,42,57,56
1,82,53,0
1,38,103,10
1,42,106,0
1,82,106,0
1,42,77,42
1,82,59,0
1,42,100,64
1,82,60,0
1,46,86,36
1,82,65,0
1,36,90,0
1,42,112,42
1,82,106,0
1,36,95,0
1,82,47,42
1,42,83,68
1,82,67,0
1,42,64,46
1,82,59,0
1,38,97,34
1,42,106,0
1,82,106,0
1,42,77,36
1,42,95,26
1,82,52,0
1,82,59,0
1,36,103,0
1,46,80,4
1,82,65,0
1,49,112,40
1,82,110,0
1,36,106,0
1,82,48,54
1,42,90,68
1,82,48,0
1,42,75,62
1,82,47,0
1,38,103,56
1,42,106,0
1,82,96,0
1,42,69,42
1,82,49,0
1,42,80,6
1,82,42,0
1,36,92,0
1,46,86,40
1,82,53,0
1,42,106,36
1,82,90,0
1,36,106,0
1,82,47,34
1,42,80,60
1,82,17,0
1,42,73,50
1,82,49,0
1,38,109,56
1,42,106,0
1,82,102,0
1,42,77,40
1,82,45,0
1,42,100,22
1,82,27,0
1,36,92,0
1,46,86,6
1,82,48,0
1,42,100,42
1,82,84,0
1,36,106,0
1,82,45,30
1,42,83,64
1,82,27,0
1,42,75,46
1,82,42,0
1,38,103,10
1,42,112,0
1,82,84,0
1,42,80,34
1,82,47,0
1,42,86,38
1,82,38,0
1,36,82,0
1,46,86,20
1,82,44,0
1,42,112,50
1,82,70,0
1,36,113,0
1,82,32,34
1,42,80,64
1,82,30,0
1,42,77,56
1,82,45,0
1,38,106,54
1,42,112,0
1,82,96,0
1,42,75,36
1,82,45,0
1,42,95,30
1,82,37,0
1,36,80,0
1,46,83,24
1,82,43,0
1,42,112,52
1,82,55,0
1,36,103,0
1,82,30,30
1,42,80,52
1,82,30,0
1,42,73,56
1,82,42,0
1,38,103,8
1,42,112,0
1,82,90,0
1,42,75,42
1,82,35,0
1,42,90,60
1,82,38,0
1,46,83,32
1,82,42,0
1,38,103,44
1,49,127,0
1,82,64,0
1,36,103,0
1,82,25,46
1,82,42,64
1,50,95,914
1,48,72,8
1,47,95,34
1,49,112,130
1,36,103,0
1,42,90,184
1,42,75,62
1,38,95,34
1,42,106,0
1,42,69,46
1,42,80,56
1,46,86,96
1,42,106,36
1,36,90,0
1,42,80,130
1,42,73,50
1,38,84,8
1,42,106,0
1,42,77,40
1,42,100,56
1,46,86,6
1,42,100,42
1,36,84,0
1,42,83,136
1,42,75,46
1,38,84,24
1,42,112,0
1,42,80,36
1,42,86,56
1,46,86,20
1,42,112,50
1,36,82,0
1,42,80,136
1,42,77,56
1,38,88,54
1,42,112,0
1,42,75,40
1,42,95,66
1,46,83,24
1,42,112,52
1,36,72,0
1,42,80,136
1,42,73,56
1,38,86,38
1,42,112,0
1,42,75,46
1,42,90,60
1,46,83,32
1,42,118,44
1,36,88,0
1,42,86,146
1,42,75,56
1,38,88,32
1,42,112,0
1,42,75,46
1,42,100,60
1,46,77,32
1,42,112,46
1,36,92,0
1,42,100,146
1,42,57,56
1,38,90,42
1,42,106,0
1,42,77,50
1,42,100,66
1,46,86,36
1,42,112,42
1,36,86,0
1,42,83,142
1,42,64,62
1,38,86,38
1,42,106,0
1,42,77,46
1,42,95,60
1,46,80,26
1,42,118,40
1,36,86,0
1,42,100,146
1,42,75,46
1,38,92,48
1,42,118,0
1,38,82,46
1,42,80,0
1,42,118,46
1,38,106,36
1,49,90,0
1,49,112,52
1,36,92,0
1,42,90,184
1,42,75,62
1,38,92,6
1,42,106,0
1,42,69,46
1,42,80,26
1,36,83,0
1,46,86,30
1,42,106,36
1,36,92,0
1,42,80,130
1,42,73,50
1,38,92,8
1,42,106,0
1,42,77,40
1,42,100,56
1,36,81,0
1,46,86,6
1,42,100,42
1,36,103,0
1,42,83,136
1,42,75,46
1,38,92,44
1,42,112,0
1,42,80,36
1,42,86,52
1,36,86,0
1,46,86,20
1,42,112,50
1,36,95,0
1,42,80,136
1,42,77,56
1,38,92,16
1,42,112,0
1,42,75,4
1,42,95,66
1,36,92,0
1,46,83,24
1,42,112,52
1,36,95,0
1,42,80,136
1,42,73,56
1,38,89,8
1,42,112,0
1,42,75,46
1,42,90,0
1,36,81,0
1,46,83,20
1,42,118,44
1,36,89,0
1,42,86,146
1,42,75,56
1,38,92,12
1,42,112,0
1,42,75,8
1,38,99,60
1,42,100,0
1,38,95,32
1,46,77,0
1,42,112,14
1,36,95,0
1,42,100,146
1,42,57,20
1,42,106,60
1,36,92,0
1,42,77,50
1,42,100,66
1,46,86,36
1,42,112,42
1,36,86,0
1,42,83,142
1,42,64,62
1,42,106,56
1,36,92,0
1,42,77,46
1,42,95,60
1,46,80,0
1,42,112,40
1,36,102,0
1,42,90,184
1,42,75,62
1,42,106,56
1,36,93,0
1,42,69,46
1,42,80,56
1,46,86,14
1,42,106,36
1,36,91,0
1,42,80,130
1,42,73,50
1,42,106,56
1,36,99,0
1,42,77,40
1,38,91,56
1,42,100,0
1,38,93,6
1,46,86,0
1,42,100,42
1,36,109,0
1,42,83,136
1,42,75,46
1,38,105,8
1,42,112,0
1,42,80,36
1,42,86,56
1,46,86,20
1,42,112,48
1,36,91,0
1,42,80,136
1,42,77,56
1,38,96,14
1,42,112,0
1,42,75,40
1,42,95,66
1,46,83,24
1,42,112,50
1,36,88,0
