track,note,velocity,time
0,38,56,690
0,45,50,38
0,57,36,2
0,62,53,6
0,54,58,4
0,74,88,18
0,66,64,0
0,90,63,0
0,86,67,0
0,62,64,14
0,57,64,16
0,66,64,28
0,62,64,0
0,57,64,2
0,66,64,10
0,62,64,26
0,57,64,0
0,66,64,6
0,62,64,32
0,57,64,6
0,38,53,4
0,45,61,4
0,62,61,0
0,74,78,2
0,90,70,0
0,86,73,0
0,66,76,0
0,54,71,0
0,62,64,4
0,57,64,0
0,66,64,2
0,62,64,2
0,57,64,4
0,40,50,4
0,59,48,4
0,64,66,2
0,47,61,2
0,76,71,2
0,66,64,0
0,68,73,0
0,92,68,0
0,88,59,0
0,62,64,2
0,57,64,18
0,42,66,10
0,57,54,4
0,78,79,6
0,66,64,0
0,69,57,0
0,93,64,0
0,90,67,0
0,54,62,6
0,62,64,12
0,57,64,2
0,66,64,32
0,62,64,0
0,57,64,12
0,66,64,8
0,62,64,12
0,57,64,12
0,66,64,4
0,62,64,14
0,57,64,0
0,66,64,4
0,62,64,4
0,42,61,2
0,57,33,4
0,62,65,6
0,54,60,4
0,69,74,8
0,78,80,4
0,66,64,0
0,92,70,0
0,88,60,0
0,62,64,24
0,57,64,0
0,66,64,2
0,62,64,32
0,57,64,6
0,59,50,8
0,44,73,4
0,64,67,4
0,56,60,0
0,80,86,4
0,68,71,0
0,71,73,0
0,88,53,0
0,85,68,0
0,64,64,8
0,59,64,8
0,45,60,4
0,81,60,6
0,38,11,0
0,81,63,0
0,85,63,0
0,61,58,4
0,52,65,0
0,57,61,10
0,69,63,0
0,73,77,6
0,38,14,0
0,64,64,2
0,38,36,10
0,57,64,0
0,64,64,32
0,38,41,0
0,76,74,0
0,61,64,8
0,57,64,0
0,64,64,8
0,38,20,0
0,73,60,0
0,85,73,0
0,88,61,0
0,61,64,0
0,38,35,0
0,57,64,4
0,38,25,0
0,64,64,12
0,38,46,0
0,76,54,0
0,61,64,0
0,57,64,6
0,64,64,6
0,38,46,0
0,73,68,0
0,61,64,4
0,57,64,0
0,64,64,4
0,38,59,0
0,76,70,0
0,61,64,2
0,57,64,4
0,64,64,8
0,38,3,0
0,73,66,0
0,61,64,10
0,38,36,12
0,57,64,6
0,64,64,4
0,38,54,0
0,76,62,0
0,90,65,0
0,86,65,0
0,61,64,32
0,38,43,4
0,92,59,0
0,88,59,0
0,57,64,10
0,64,64,10
0,38,9,0
0,73,64,0
0,90,63,0
0,86,63,0
0,61,64,18
0,38,25,6
0,88,56,0
0,85,68,0
0,57,64,2
0,64,64,8
0,38,49,0
0,76,69,0
0,81,57,0
0,61,64,6
0,57,64,4
0,64,64,0
0,38,1,0
0,73,62,0
0,61,64,32
0,38,33,2
0,57,64,2
0,64,64,4
0,38,43,0
0,76,66,0
0,61,64,6
0,57,64,0
0,64,64,6
0,38,46,0
0,73,68,0
0,61,64,2
0,57,64,6
0,64,64,4
0,38,58,0
0,76,67,0
0,61,64,32
0,38,24,8
0,57,64,0
0,64,64,2
0,38,1,0
0,73,68,0
0,61,64,32
0,38,39,12
0,57,64,6
0,64,64,4
0,38,53,0
0,76,70,0
0,83,59,0
0,78,74,0
0,61,64,32
0,85,57,4
0,80,63,0
0,57,64,16
0,64,64,2
0,38,51,0
0,73,70,0
0,83,61,0
0,78,61,0
0,61,64,26
0,81,61,6
0,76,58,0
0,57,64,6
0,64,64,8
0,38,41,0
0,76,78,0
0,78,60,0
0,73,66,0
0,61,64,4
0,57,64,4
0,64,64,0
0,38,20,0
0,73,62,0
0,61,64,32
0,38,35,0
0,57,64,2
0,38,25,0
0,64,64,4
0,38,46,0
0,76,66,0
0,61,64,2
0,57,64,0
0,64,64,2
0,38,46,0
0,73,61,0
0,61,64,4
0,57,64,6
0,64,64,4
0,38,59,0
0,76,65,0
0,61,64,32
0,57,64,0
0,64,64,2
0,38,3,0
0,73,63,0
0,61,64,32
0,38,36,12
0,57,64,6
0,64,64,4
0,38,54,0
0,76,61,0
0,76,53,0
0,71,58,0
0,61,64,12
0,38,43,4
0,57,64,16
0,64,64,6
0,38,9,0
0,73,66,0
0,81,59,0
0,76,57,0
0,61,64,32
0,38,25,6
0,57,64,6
0,64,64,6
0,38,49,0
0,76,71,0
0,78,52,0
0,73,51,0
0,61,64,32
0,57,64,4
0,64,64,0
0,38,1,0
0,73,60,0
0,61,64,32
0,38,33,12
0,57,64,2
0,64,64,4
0,38,43,0
0,76,56,0
0,61,64,32
0,57,64,0
0,73,60,6
0,64,64,0
0,38,46,0
0,73,66,0
0,61,64,20
0,73,80,10
0,57,64,6
0,73,100,2
0,64,64,0
0,38,58,0
0,76,69,0
0,61,64,32
0,38,24,8
0,57,64,0
0,74,66,0
0,64,64,0
0,38,1,0
0,73,52,0
0,61,64,0
0,38,39,12
0,57,64,6
0,74,98,4
0,64,64,0
0,38,53,0
0,76,66,0
0,61,64,32
0,57,64,2
0,76,82,0
0,64,64,0
0,38,51,0
0,73,50,0
0,61,64,32
0,45,52,2
0,57,64,6
0,57,43,22
0,52,53,2
0,33,81,2
0,76,84,0
0,73,69,0
0,69,42,0
0,64,64,0
0,38,39,0
0,76,74,0
0,61,61,12
0,64,66,12
0,61,64,8
0,69,53,4
0,57,64,4
0,40,52,16
0,64,64,0
0,73,60,0
0,38,15,14
0,61,64,18
0,38,1,4
0,76,80,6
0,38,33,12
0,57,64,2
0,45,58,4
0,64,64,0
0,76,54,0
0,38,46,2
0,61,64,30
0,57,64,0
0,49,59,6
0,64,64,0
0,73,68,0
0,38,46,4
0,61,64,28
0,57,64,6
0,64,64,4
0,76,70,0
0,38,46,2
0,61,64,30
0,38,15,16
0,57,64,0
0,64,64,2
0,73,66,0
0,38,7,2
0,61,64,30
0,38,25,14
0,57,64,6
0,64,64,4
0,38,45,0
0,76,62,0
0,61,64,32
0,38,44,4
0,57,64,16
0,64,64,10
0,38,20,0
0,73,64,0
0,61,64,32
0,38,32,6
0,57,64,6
0,33,74,8
0,64,64,0
0,38,66,0
0,76,69,0
0,61,64,8
0,57,64,4
0,40,52,4
0,64,64,0
0,38,46,0
0,73,62,0
0,61,64,32
0,57,64,2
0,45,61,4
0,64,64,0
0,38,57,0
0,76,66,0
0,61,64,32
0,38,25,10
0,57,64,0
0,49,68,6
0,73,65,0
0,64,64,0
0,38,15,0
0,73,68,0
0,61,64,2
0,73,84,10
0,38,33,0
0,57,64,6
0,73,97,4
0,64,64,0
0,38,43,0
0,76,67,0
0,61,64,32
0,57,64,0
0,74,81,0
0,64,64,0
0,38,56,0
0,73,68,0
0,61,64,32
0,57,64,6
0,74,86,4
0,64,64,0
0,38,38,0
0,76,70,0
0,61,64,32
0,57,64,20
0,76,77,10
0,64,64,0
0,38,11,0
0,73,70,0
0,38,14,24
0,61,64,2
0,38,36,2
0,57,64,4
0,33,74,8
0,76,84,0
0,64,64,0
0,38,53,0
0,76,71,0
0,61,64,30
0,57,64,4
0,40,57,12
0,74,70,0
0,64,64,0
0,73,60,0
0,38,28,12
0,61,64,20
0,38,25,2
0,57,64,2
0,38,25,0
0,45,53,4
0,74,78,0
0,64,64,0
0,38,43,0
0,76,56,0
0,61,64,32
0,57,64,0
0,49,57,6
0,73,81,0
0,64,64,0
0,38,53,0
0,73,66,0
0,61,64,4
0,57,64,6
0,73,89,2
0,64,64,0
0,38,69,0
0,76,69,0
0,61,64,32
0,57,64,0
0,71,82,0
0,64,64,0
0,73,52,0
0,38,17,14
0,61,64,18
0,38,24,4
0,57,64,6
0,38,33,4
0,32,64,4
0,71,80,0
0,64,64,0
0,38,41,0
0,76,66,0
0,61,64,32
0,57,64,20
0,69,77,0
0,64,64,0
0,38,49,0
0,73,50,0
0,42,61,20
0,61,64,12
0,57,60,6
0,57,64,0
0,54,62,12
0,61,73,8
0,30,80,2
0,69,70,0
0,66,64,0
0,78,93,0
0,38,48,8
0,66,71,2
0,61,64,22
0,38,19,12
0,57,64,0
0,37,52,4
0,66,64,0
0,38,16,0
0,73,46,0
0,61,64,0
0,38,20,4
0,57,64,0
0,42,70,2
0,66,64,0
0,38,43,0
0,78,83,0
0,61,64,32
0,57,64,16
0,45,58,14
0,66,64,0
0,38,51,0
0,73,61,0
0,61,64,32
0,57,64,0
0,66,64,2
0,38,40,0
0,78,78,0
0,61,64,30
0,57,64,30
0,66,64,6
0,38,45,0
0,73,54,0
0,61,64,32
0,57,64,4
0,66,64,6
0,38,71,0
0,78,77,0
0,61,64,32
0,38,38,10
0,57,64,0
0,66,64,4
0,38,13,0
0,73,59,0
0,61,64,32
0,38,16,8
0,57,64,6
0,30,77,8
0,66,64,0
0,38,53,0
0,78,90,0
0,61,64,32
0,57,64,30
0,37,55,2
0,66,64,0
0,73,68,0
0,38,28,12
0,61,64,20
0,38,25,0
0,57,64,2
0,38,25,0
0,42,69,32
0,66,64,0
0,38,43,0
0,78,75,0
0,61,64,26
0,57,64,20
0,45,63,10
0,74,93,0
0,66,64,0
0,38,53,0
0,73,60,0
0,61,64,8
0,74,84,6
0,57,64,0
0,74,99,2
0,74,70,0
0,71,77,0
0,66,64,0
0,38,69,0
0,78,78,0
0,61,64,4
0,57,64,22
0,76,91,4
0,66,64,0
0,73,59,0
0,38,17,14
0,61,64,10
0,38,24,0
0,57,64,0
0,38,33,2
0,76,90,8
0,73,67,0
0,76,54,0
0,66,64,0
0,38,41,0
0,78,81,0
0,61,64,30
0,57,64,0
0,78,96,4
0,66,64,0
0,38,49,0
0,73,52,0
0,61,64,18
0,47,65,4
0,57,64,0
0,59,67,14
0,35,80,2
0,78,96,0
0,78,77,0
0,74,77,0
0,54,59,0
0,66,64,0
0,38,52,0
0,78,83,0
0,62,71,2
0,66,79,14
0,62,64,0
0,59,64,26
0,42,68,4
0,66,64,0
0,38,1,0
0,74,65,0
0,62,64,32
0,78,90,14
0,38,32,0
0,59,64,16
0,47,62,10
0,66,64,0
0,38,56,0
0,78,84,0
0,62,64,30
0,38,43,2
0,59,64,16
0,50,54,24
0,66,64,0
0,38,18,0
0,74,50,0
0,62,64,24
0,38,25,10
0,59,64,16
0,66,64,2
0,38,40,0
0,78,83,0
0,62,64,32
0,59,64,24
0,66,64,22
0,38,1,0
0,74,55,0
0,62,64,28
0,38,27,10
0,59,64,16
0,66,64,4
0,38,62,0
0,78,76,0
0,62,64,28
0,59,64,28
0,66,64,8
0,38,50,0
0,74,58,0
0,62,64,0
0,59,64,32
0,35,71,28
0,66,64,0
0,38,43,0
0,78,81,0
0,62,64,24
0,59,64,28
0,42,68,2
0,66,64,0
0,38,41,0
0,74,55,0
0,62,64,18
0,59,64,6
0,47,59,6
0,66,64,0
0,38,45,0
0,78,81,0
0,62,64,30
0,38,25,2
0,59,64,16
0,50,50,4
0,74,91,0
0,66,64,0
0,38,16,0
0,74,51,0
0,62,64,6
0,74,84,12
0,38,25,0
0,59,64,16
0,74,98,2
0,66,64,0
0,38,46,0
0,78,78,0
0,62,64,26
0,59,64,26
0,76,87,0
0,66,64,0
0,74,52,0
0,38,13,2
0,38,4,26
0,62,64,2
0,38,34,12
0,59,64,4
0,76,85,6
0,66,64,0
0,78,71,0
0,38,53,0
0,62,64,26
0,59,64,26
0,78,87,0
0,66,64,0
0,38,55,0
0,74,51,0
0,62,64,26
0,59,64,8
0,35,77,28
0,78,80,0
0,66,64,0
0,38,62,0
0,78,88,0
0,62,64,0
0,59,64,32
0,42,62,4
0,76,75,0
0,66,64,0
0,38,16,0
0,74,52,0
0,62,64,28
0,38,6,0
0,59,64,12
0,38,32,0
0,47,56,28
0,76,59,0
0,66,64,0
0,78,81,0
0,38,40,0
0,62,64,2
0,59,64,16
0,50,56,6
0,74,75,0
0,66,64,0
0,38,28,0
0,74,58,0
0,62,64,26
0,59,64,18
0,74,74,2
0,74,56,0
0,71,68,0
0,66,64,0
0,38,38,0
0,78,84,0
0,62,64,8
0,59,64,28
0,73,72,0
0,66,64,0
0,38,45,0
0,74,56,0
0,62,64,28
0,59,64,0
0,73,80,8
0,73,76,0
0,69,60,0
0,66,64,0
0,38,71,0
0,78,86,0
0,62,64,22
0,38,41,10
0,59,64,16
0,71,76,2
0,66,64,0
0,38,21,0
0,74,51,0
0,62,64,30
0,38,22,2
0,40,55,14
0,59,64,2
0,56,61,26
0,28,73,4
0,71,71,0
0,68,86,0
0,71,68,0
0,64,64,0
0,38,59,0
0,76,81,0
0,52,62,6
0,59,66,2
0,59,64,12
0,64,63,6
0,56,64,20
0,35,61,2
0,64,64,0
0,38,10,0
0,71,74,0
0,59,64,32
0,38,29,10
0,56,64,0
0,40,55,4
0,64,64,0
0,38,55,0
0,76,70,0
0,59,64,0
0,56,64,16
0,44,55,2
0,76,89,0
0,64,64,0
0,38,56,0
0,71,60,0
0,59,64,10
0,76,76,6
0,56,64,16
0,76,86,4
0,64,64,0
0,38,59,0
0,76,73,0
0,59,64,32
0,38,1,2
0,56,64,16
0,78,84,2
0,64,64,0
0,38,8,0
0,71,44,0
0,59,64,2
0,38,17,2
0,56,64,16
0,78,82,22
0,64,64,0
0,38,50,0
0,76,71,0
0,59,64,32
0,56,64,20
0,80,79,4
0,64,64,0
0,38,70,0
0,71,59,0
0,59,64,2
0,56,64,14
0,28,70,4
0,80,83,0
0,64,64,0
0,38,40,0
0,76,83,0
0,59,64,32
0,56,64,10
0,35,66,2
0,78,76,0
0,64,64,0
0,38,1,0
0,71,56,0
0,59,64,0
0,38,25,4
0,56,64,16
0,40,61,2
0,78,80,0
0,64,64,0
0,38,48,0
0,76,70,0
0,59,64,32
0,38,45,2
0,56,64,4
0,44,73,4
0,76,77,0
0,64,64,0
0,38,34,0
0,71,58,0
0,59,64,30
0,56,64,12
0,76,71,2
0,64,64,0
0,38,69,0
0,76,74,0
0,59,64,32
0,56,64,16
0,74,72,16
0,64,64,0
0,38,7,0
0,71,42,0
0,59,64,22
0,38,28,4
0,56,64,16
0,74,81,14
0,64,64,0
0,38,41,0
0,76,70,0
0,59,64,32
0,56,64,18
0,73,76,2
0,64,64,0
0,38,67,0
0,71,44,0
0,59,64,6
0,56,64,18
0,28,67,2
0,73,78,0
0,64,64,0
0,38,72,0
0,76,80,0
0,59,64,32
0,38,27,0
0,56,64,16
0,35,71,2
0,71,77,0
0,64,64,0
0,38,19,0
0,71,54,0
0,59,64,30
0,56,64,2
0,40,75,6
0,71,77,0
0,64,64,0
0,38,52,0
0,76,72,0
0,59,64,28
0,56,64,18
0,69,67,0
0,64,64,0
0,38,62,0
0,71,54,0
0,59,64,30
0,56,64,16
0,45,50,16
0,57,51,2
0,33,72,2
0,69,73,0
0,73,71,0
0,69,59,0
0,64,64,0
0,38,43,0
0,76,78,0
0,61,71,2
0,64,56,10
0,61,64,10
0,69,78,12
0,57,64,16
0,40,62,16
0,64,64,0
0,73,62,0
0,38,22,6
0,38,16,24
0,61,64,2
0,38,26,16
0,57,64,0
0,45,64,14
0,64,64,0
0,38,41,0
0,76,66,0
0,61,64,28
0,57,64,14
0,49,71,14
0,64,64,0
0,38,56,0
0,73,61,0
0,61,64,28
0,57,64,16
0,64,64,0
0,38,69,0
0,76,65,0
0,61,64,30
0,57,64,18
0,64,64,6
0,73,63,0
0,38,35,6
0,38,25,20
0,61,64,4
0,38,31,2
0,57,64,14
0,38,31,6
0,64,64,0
0,38,47,0
0,76,61,0
0,61,64,32
0,57,64,18
0,64,64,6
0,38,58,0
0,73,66,0
0,61,64,30
0,57,64,0
0,33,67,0
0,64,64,0
0,38,45,0
0,76,71,0
0,61,64,32
0,57,64,20
0,64,64,6
0,38,45,0
0,73,60,0
0,61,64,28
0,57,64,10
0,64,64,20
0,38,36,0
0,76,56,0
0,61,64,2
0,38,24,0
0,57,64,20
0,38,41,0
0,73,89,8
0,64,64,0
0,73,66,0
0,38,28,2
0,61,64,10
0,73,91,6
0,38,20,4
0,57,64,0
0,73,103,2
0,64,64,0
0,38,35,0
0,76,69,0
0,61,64,28
0,57,64,8
