track,note,velocity,time
2,42,72,382
2,61,73,1
2,49,73,45
2,71,96,49
2,54,70,0
2,49,0,46
2,66,76,0
2,49,70,1
2,42,0,47
2,61,0,0
2,61,64,1
2,42,71,0
2,49,0,46
2,70,76,1
2,49,68,2
2,54,0,41
2,66,0,4
2,66,69,1
2,54,64,2
2,49,0,45
2,61,0,1
2,49,67,0
2,61,64,1
2,42,0,48
2,42,74,1
2,68,79,0
2,49,0,46
2,61,0,0
2,61,67,1
2,49,69,0
2,54,0,38
2,58,63,9
2,54,63,2
2,49,0,47
2,66,0,0
2,66,83,1
2,49,70,0
2,71,0,13
2,70,0,2
2,68,0,10
2,58,0,14
2,54,0,2
2,61,0,1
2,42,0,2
2,38,78,4
2,49,0,4
2,46,70,44
2,50,76,48
2,46,0,45
2,46,69,1
2,50,0,42
2,38,0,0
2,39,80,8
2,46,0,4
2,46,70,42
2,68,82,50
2,51,70,0
2,46,0,45
2,58,73,0
2,46,63,1
2,39,0,48
2,39,72,1
2,54,60,1
2,66,0,46
2,46,0,1
2,66,75,0
2,46,77,1
2,51,0,25
2,58,0,20
2,58,67,1
2,51,64,2
2,54,0,45
2,46,0,0
2,46,68,1
2,54,67,0
2,39,0,49
2,65,84,1
2,39,84,0
2,58,0,45
2,46,0,1
2,58,63,0
2,46,68,1
2,51,0,47
2,54,0,0
2,54,65,1
2,51,66,0
2,46,0,47
2,46,72,1
2,63,88,0
2,46,0,46
2,65,0,0
2,51,0,0
2,39,0,0
2,68,0,0
2,66,0,0
2,58,0,0
2,54,0,0
2,43,74,3
2,51,68,45
2,61,82,50
2,55,70,1
2,51,0,43
2,51,71,1
2,51,0,49
2,55,0,0
2,63,0,0
2,43,0,0
2,61,0,0
2,44,73,3
2,63,83,0
2,51,72,46
2,73,80,50
2,56,75,1
2,51,0,46
2,68,67,1
2,51,68,0
2,44,0,45
2,63,0,1
2,63,61,1
2,44,73,2
2,51,0,46
2,71,95,0
2,51,78,1
2,56,0,46
2,68,0,0
2,68,69,1
2,56,67,0
2,63,0,45
2,51,0,1
2,63,65,0
2,51,69,1
2,63,0,48
2,71,0,0
2,56,0,0
2,44,0,0
2,73,0,0
2,68,0,0
2,51,0,2
2,70,74,0
2,44,73,0
2,51,82,47
2,63,71,1
2,59,74,48
2,56,72,0
2,51,0,46
2,51,73,1
2,68,83,0
2,44,0,48
2,44,70,1
2,51,0,46
2,51,75,1
2,56,0,48
2,56,71,1
2,51,0,45
2,51,80,1
2,59,0,27
2,44,0,2
2,63,0,2
2,70,0,6
2,68,0,12
2,37,82,1
2,51,0,6
2,56,0,0
2,44,73,41
2,66,88,49
2,49,69,0
2,44,0,46
2,44,62,1
2,61,20,4
2,37,0,43
2,37,69,1
2,56,64,1
2,44,0,39
2,65,96,8
2,44,68,1
2,61,0,46
2,49,0,1
2,61,66,0
2,49,67,1
2,44,0,45
2,56,0,1
2,44,69,0
2,56,64,1
2,37,0,41
2,63,76,8
2,37,72,0
2,44,0,45
2,56,0,0
2,56,69,1
2,44,68,0
2,49,0,47
2,49,65,1
2,53,69,1
2,44,0,41
2,61,0,2
2,61,70,4
2,44,69,1
2,37,0,47
2,37,72,1
2,44,0,48
2,44,71,1
2,49,0,47
2,49,79,1
2,66,0,16
2,44,0,30
2,44,71,1
2,61,0,27
2,53,0,16
2,56,0,0
2,63,0,0
2,65,0,0
2,49,0,0
2,37,0,0
2,44,0,6
2,42,83,0
2,49,78,48
2,71,102,48
2,54,69,0
2,49,0,47
2,66,67,1
2,49,68,0
2,42,0,47
2,61,65,1
2,42,73,0
2,49,0,42
2,70,78,4
2,49,69,2
2,54,0,24
2,66,0,20
2,66,75,1
2,54,63,3
2,49,0,44
2,61,0,1
2,49,73,0
2,61,68,1
2,42,0,33
2,68,81,15
2,42,69,0
2,49,0,45
2,61,0,1
2,49,73,0
2,61,69,1
2,54,0,48
2,54,68,1
2,58,69,0
2,66,0,36
2,49,0,1
2,66,92,10
2,49,72,1
2,49,0,45
2,54,0,0
2,61,0,0
2,68,0,0
2,71,0,0
2,70,0,0
2,58,0,0
2,42,0,0
2,38,71,2
2,46,68,49
2,50,80,48
2,46,0,47
2,46,69,1
2,50,0,36
2,38,0,0
2,46,0,12
2,39,81,1
2,46,72,46
2,68,84,49
2,51,70,2
2,46,0,43
2,58,67,1
2,46,67,2
2,39,0,46
2,39,70,1
2,54,63,2
2,66,0,45
2,46,0,0
2,66,86,1
2,46,71,0
2,51,0,28
2,58,0,19
2,58,71,1
2,51,69,2
2,54,0,45
2,46,0,0
2,46,74,1
2,54,69,0
2,39,0,40
2,65,94,10
2,39,80,0
2,46,0,45
2,58,0,0
2,46,69,1
2,58,65,0
2,54,0,36
2,51,0,10
2,51,69,1
2,54,69,3
2,46,0,31
2,46,73,16
2,63,81,1
2,46,0,45
2,58,0,0
2,54,0,0
2,65,0,0
2,68,0,0
2,66,0,0
2,39,0,0
2,51,0,0
2,43,80,2
2,51,70,48
2,61,78,48
2,55,70,2
2,51,0,45
2,51,73,1
2,51,0,49
2,55,0,0
2,63,0,0
2,43,0,0
2,61,0,0
2,63,80,1
2,44,77,0
2,51,69,47
2,73,84,48
2,56,69,1
2,51,0,45
2,68,69,0
2,51,69,1
2,44,0,48
2,63,0,1
2,44,70,0
2,63,67,1
2,51,0,34
2,71,95,12
2,51,73,1
2,56,0,45
2,68,0,1
2,56,71,0
2,68,73,1
2,63,0,46
2,51,0,0
2,51,63,1
2,63,67,0
2,44,0,50
2,70,81,0
2,44,77,1
2,51,0,44
2,63,0,1
2,51,75,0
2,63,69,1
2,56,0,47
2,56,70,1
2,59,70,1
2,68,0,45
2,51,0,0
2,68,76,1
2,51,75,0
2,44,0,48
2,44,72,1
2,51,0,47
2,51,72,1
2,56,0,47
2,56,68,1
2,51,0,47
2,51,82,1
2,71,0,11
2,70,0,2
2,73,0,2
2,44,0,28
2,56,0,2
2,59,0,1
2,37,73,5
2,63,0,1
2,51,0,5
2,44,76,40
2,49,70,49
2,66,88,0
2,44,0,46
2,61,72,0
2,44,67,1
2,37,0,46
2,37,70,1
2,56,54,2
2,44,0,47
2,65,88,0
2,44,72,1
2,61,0,46
2,49,0,1
2,61,69,0
2,49,69,1
2,44,0,45
2,56,0,0
2,56,63,1
2,44,72,0
2,37,0,40
2,37,69,9
2,63,67,1
2,56,0,40
2,44,0,5
2,44,74,1
2,56,67,2
2,49,0,47
2,49,69,1
2,53,69,0
2,44,0,47
2,61,0,0
2,44,49,1
2,61,49,0
2,37,0,49
2,37,45,1
2,63,0,467
2,65,0,5
2,66,0,13
2,37,0,7
2,68,0,4
2,44,0,6
2,49,0,12
2,53,0,16
2,56,0,15
2,61,0,5
2,42,76,23
2,49,77,49
2,54,70,49
2,66,77,47
2,58,80,1
2,61,77,48
2,58,0,47
2,58,69,1
2,54,0,28
2,54,72,22
2,58,0,44
2,58,69,1
2,61,0,31
2,42,0,17
2,42,75,1
2,49,0,1
2,49,68,46
2,54,0,47
2,54,67,1
2,70,76,48
2,61,84,0
2,66,0,47
2,66,79,1
2,61,0,47
2,61,68,1
2,58,0,47
2,58,71,1
2,61,0,36
2,61,20,16
2,42,0,6
2,66,0,38
2,70,0,0
2,54,0,0
2,49,0,0
2,58,0,0
2,41,74,1
2,61,0,31
2,49,67,16
2,53,71,48
2,68,78,48
2,56,75,0
2,61,72,48
2,56,0,47
2,56,63,1
2,61,0,47
2,61,69,1
2,56,0,47
2,56,67,1
2,41,0,47
2,41,76,1
2,49,0,47
2,49,67,1
2,53,0,47
2,53,72,1
2,56,0,47
2,68,0,0
2,68,74,1
2,56,71,0
2,61,0,47
2,61,68,1
2,56,0,48
2,56,61,1
2,49,0,46
2,61,0,1
2,49,68,0
2,61,68,1
2,56,0,46
2,56,65,1
2,53,0,30
2,41,0,3
2,61,0,5
2,49,0,2
2,56,0,7
2,68,0,0
2,44,80,2
2,51,71,47
2,59,67,48
2,59,0,47
2,56,69,1
2,71,83,0
2,59,76,0
2,68,70,48
2,59,0,47
2,59,73,1
2,63,72,49
2,59,0,46
2,51,0,0
2,59,72,1
2,51,70,0
2,44,0,48
2,44,81,1
2,51,0,46
2,51,67,1
2,56,0,48
2,56,68,1
2,56,0,46
2,68,0,0
2,68,75,1
2,56,83,0
2,63,0,47
2,63,75,1
2,59,0,47
2,59,82,1
2,56,0,48
2,56,68,1
2,59,0,46
2,59,83,1
2,44,0,8
2,68,0,22
2,51,0,7
2,63,0,1
2,71,0,3
2,59,0,8
2,41,65,0
2,56,0,1
2,49,54,46
2,53,69,51
2,68,83,46
2,56,71,0
2,61,76,48
2,56,0,46
2,56,67,1
2,49,0,36
2,49,74,14
2,56,0,45
2,56,59,1
2,61,0,29
2,68,0,1
2,53,0,2
2,41,0,3
2,56,0,14
2,49,0,1
2,63,72,1
2,37,76,0
2,53,59,45
2,56,79,51
2,49,70,46
2,65,80,2
2,53,0,44
2,53,49,1
2,49,0,48
2,66,95,1
2,49,54,3
2,56,0,43
2,56,69,1
2,68,72,49
2,37,0,8
2,53,0,26
2,63,0,2
2,65,0,0
2,42,74,15
2,49,0,11
2,66,0,0
2,68,0,0
2,56,0,0
2,49,72,34
2,70,79,48
2,54,68,1
2,61,57,46
2,66,76,48
2,42,0,47
2,42,76,1
2,68,83,0
2,61,0,47
2,61,63,1
2,66,0,47
2,66,77,1
2,54,0,47
2,71,88,1
2,54,69,0
2,66,0,47
2,66,78,1
2,49,0,41
2,61,0,6
2,61,53,1
2,49,22,3
2,42,0,44
2,70,0,0
2,70,84,1
2,42,74,0
2,61,0,47
2,61,54,1
2,54,0,46
2,54,66,1
2,66,0,48
2,66,80,1
2,49,0,47
2,58,66,0
2,49,24,1
2,49,0,41
2,66,0,0
2,61,0,0
2,70,0,0
2,68,0,0
2,71,0,0
2,54,0,0
2,42,0,0
2,58,0,0
2,41,82,7
2,49,68,48
2,61,84,48
2,53,65,48
2,56,73,48
2,60,82,48
2,53,0,47
2,53,62,1
2,49,0,46
2,56,0,1
2,49,65,0
2,56,75,1
2,49,0,44
2,61,0,0
2,60,0,0
2,41,0,0
2,53,0,0
2,63,78,4
2,41,81,0
2,56,0,7
2,53,64,41
2,56,62,49
2,61,72,47
2,49,73,1
2,53,0,46
2,53,63,1
2,53,0,47
2,53,68,1
2,49,0,48
2,56,0,0
2,56,78,1
2,49,67,0
2,53,0,46
2,53,70,1
2,41,0,6
2,63,0,18
2,61,0,5
2,49,0,19
2,53,0,0
2,44,77,0
2,56,0,2
2,51,70,46
2,59,90,49
2,56,67,48
2,51,0,47
2,51,62,1
2,44,0,47
2,44,70,1
2,58,77,1
2,51,0,45
2,51,65,1
2,56,0,47
2,56,74,1
2,61,88,49
2,51,0,46
2,51,67,1
2,56,0,47
2,56,74,1
2,44,0,47
2,59,0,0
2,44,87,1
2,59,87,0
2,51,0,47
2,51,63,1
2,51,0,47
2,51,63,1
2,56,0,47
2,56,81,1
2,61,0,43
2,58,0,1
2,44,0,3
2,51,0,0
2,51,67,1
2,44,72,0
2,44,0,48
2,56,0,0
2,59,0,0
2,51,0,0
2,37,74,0
2,49,63,47
2,65,86,49
2,61,73,46
2,56,68,49
2,63,79,48
2,56,0,44
2,56,61,1
2,61,0,48
2,61,68,1
2,49,0,37
2,63,0,9
2,65,0,0
2,37,0,0
2,56,0,0
2,66,81,3
2,37,70,2
2,61,0,8
2,56,65,37
2,61,74,49
2,65,81,47
2,61,0,48
2,61,70,1
2,56,0,46
2,56,62,1
2,49,68,50
2,66,0,30
2,56,0,16
2,56,68,1
2,37,0,23
2,61,0,26
2,65,0,0
2,49,0,0
2,56,0,0
2,42,73,3
2,49,72,47
2,49,0,48
2,71,95,0
2,54,71,0
2,42,0,35
2,66,78,12
2,49,75,0
2,49,0,43
2,61,68,5
2,42,68,0
2,66,0,40
2,71,0,6
2,49,72,1
2,70,75,1
2,54,0,26
2,49,0,20
2,54,67,1
2,66,72,1
2,61,0,38
2,42,0,6
2,49,74,4
2,61,62,0
2,66,0,3
2,70,0,38
2,42,70,7
2,68,78,0
2,49,0,8
2,61,0,26
2,49,72,14
2,61,67,0
2,54,0,42
2,49,0,3
2,58,67,3
2,54,69,0
2,61,0,5
2,68,0,25
2,49,78,18
2,66,81,0
2,42,0,42
2,38,72,6
2,49,0,10
2,54,0,4
2,46,58,35
2,50,76,47
2,46,0,22
2,58,0,18
2,46,71,8
2,66,0,24
2,38,0,6
2,50,0,12
2,46,0,6
2,39,80,1
2,46,71,47
2,68,83,48
2,51,71,1
2,46,0,37
2,58,72,10
2,46,68,0
2,39,0,12
2,39,70,36
2,54,68,1
2,46,0,45
2,66,79,2
2,46,72,1
2,68,0,17
2,51,0,12
2,58,0,12
2,54,0,6
2,51,67,0
2,58,71,0
2,46,0,42
2,39,0,6
2,54,69,0
2,46,72,1
2,66,0,44
2,65,83,4
2,39,74,0
2,58,0,33
2,54,0,6
2,46,0,6
2,46,69,3
2,58,69,0
2,51,0,25
2,46,0,21
2,54,67,1
2,51,60,1
2,65,0,39
2,39,0,5
2,46,69,4
2,63,77,0
2,46,0,39
2,51,0,0
2,54,0,6
2,43,67,3
2,58,0,21
2,51,80,29
2,63,0,39
2,61,80,9
2,55,69,0
2,43,0,33
2,51,0,2
2,51,71,11
2,61,0,42
2,55,0,4
2,51,0,1
2,44,70,3
2,63,79,0
2,51,74,45
2,51,0,43
2,63,0,4
2,73,80,2
2,56,69,0
2,44,0,38
2,68,70,9
2,51,69,0
2,56,0,23
2,73,0,15
2,51,0,10
2,44,68,0
2,63,61,1
2,68,0,13
2,51,76,34
2,71,99,1
2,63,0,7
2,63,74,40
2,56,65,0
2,51,0,4
2,71,0,25
2,44,0,7
2,59,58,12
2,51,72,0
2,63,0,4
2,56,0,10
2,51,0,29
2,70,75,6
2,44,71,0
2,59,0,44
2,51,70,3
2,63,68,0
2,70,0,42
2,51,0,4
2,56,70,3
2,59,76,0
2,63,0,7
2,44,0,37
2,68,79,3
2,51,76,0
2,56,0,4
2,59,0,2
2,44,70,42
2,51,0,5
2,51,74,43
2,51,0,47
2,56,70,2
2,56,0,43
2,44,0,2
2,51,72,2
2,51,0,24
2,37,69,24
2,68,0,38
2,44,67,10
2,44,0,47
2,66,92,1
2,49,69,0
2,37,0,38
2,44,57,10
2,61,40,1
2,49,0,7
2,66,0,31
2,37,68,9
2,56,67,1
2,44,0,3
2,61,0,40
2,44,74,4
2,65,85,0
2,56,0,24
2,61,74,24
2,49,68,0
2,44,0,4
2,65,0,6
2,37,0,29
2,61,0,8
2,49,0,0
2,44,70,1
2,56,68,0
2,63,75,48
2,37,74,0
2,44,0,1
2,56,0,10
2,56,71,37
2,44,71,0
2,63,0,44
2,44,0,4
2,53,67,0
2,49,68,0
2,56,0,10
2,37,0,37
2,44,75,1
2,61,73,0
2,49,0,8
2,53,0,1
2,44,0,39
2,37,67,0
2,44,67,48
2,37,0,19
2,44,0,28
2,49,74,2
2,44,73,47
2,49,0,2
2,61,0,43
2,42,81,4
2,44,0,10
2,54,68,38
2,70,95,48
2,61,76,47
2,61,0,46
2,58,68,2
2,70,0,46
2,68,83,2
2,58,0,44
2,61,75,4
2,61,0,44
2,58,74,4
2,68,0,40
2,58,0,8
2,71,90,3
2,61,74,45
2,58,68,49
2,61,0,9
2,71,0,2
2,70,86,37
2,58,0,9
2,61,72,38
2,54,0,12
2,42,0,33
2,58,67,3
2,61,0,2
2,54,59,47
2,58,0,28
2,58,66,21
2,70,0,27
2,54,0,16
2,41,76,6
2,58,0,19
2,53,70,29
2,61,88,48
2,53,0,25
2,56,74,23
2,56,0,42
2,53,74,4
2,61,0,43
2,60,92,4
2,53,0,44
2,56,73,5
2,56,0,47
2,53,76,0
2,60,0,47
2,63,83,2
2,53,0,41
2,56,70,6
2,53,71,49
2,56,0,8
2,63,0,15
2,61,84,25
2,53,0,13
2,56,72,35
2,53,65,48
2,56,0,12
2,41,0,12
