track,note,velocity,time
3,64,85,30720
3,64,0,476
3,71,85,4
3,71,0,236
3,66,85,4
3,66,0,1196
3,64,85,484
3,64,0,236
3,66,85,4
3,66,0,236
3,67,85,4
3,67,0,236
3,69,85,4
3,69,0,236
3,67,85,4
3,67,0,236
3,66,85,4
3,66,0,236
3,64,85,4
3,64,0,476
3,71,85,4
3,71,0,236
3,66,85,4
3,66,0,1196
3,64,85,484
3,64,0,236
3,66,85,4
3,66,0,236
3,67,85,4
3,67,0,236
3,69,85,4
3,69,0,236
3,67,85,4
3,67,0,236
3,66,85,4
3,66,0,236
3,64,85,4
3,64,0,476
3,67,85,4
3,67,0,236
3,66,85,4
3,66,0,716
3,64,85,4
3,64,0,476
3,67,85,4
3,67,0,236
3,66,85,4
3,66,0,716
3,64,85,4
3,64,0,476
3,67,85,4
3,67,0,236
3,66,85,4
3,66,0,716
3,64,85,1444
3,64,0,476
3,71,85,4
3,71,0,236
3,66,85,4
3,66,0,1196
3,64,85,484
3,64,0,236
3,66,85,4
3,66,0,236
3,67,85,4
3,67,0,236
3,69,85,4
3,69,0,236
3,67,85,4
3,67,0,236
3,66,85,4
3,66,0,236
3,64,85,4
3,64,0,476
3,71,85,4
3,71,0,236
3,66,85,4
3,66,0,1196
3,64,85,484
3,64,0,236
3,66,85,4
3,66,0,236
3,67,85,4
3,67,0,236
3,69,85,4
3,69,0,236
3,67,85,4
3,67,0,236
3,66,85,4
3,66,0,236
3,64,85,4
3,64,0,476
3,67,85,4
3,67,0,236
3,66,85,4
3,66,0,716
3,64,85,4
3,64,0,476
3,67,85,4
3,67,0,236
3,66,85,4
3,66,0,716
3,64,85,4
3,64,0,476
3,67,85,4
3,67,0,236
3,66,85,4
3,66,0,716
3,60,85,1444
3,60,0,236
3,66,85,4
3,66,0,236
3,66,85,4
3,66,0,236
3,66,85,4
3,66,0,236
3,66,85,4
3,66,0,476
3,60,85,4
3,60,0,236
3,66,85,4
3,66,0,236
3,66,85,4
3,66,0,236
3,66,85,4
3,66,0,236
3,66,85,4
3,66,0,476
3,67,85,4
3,67,0,476
3,69,85,4
3,69,0,476
3,66,85,4
3,66,0,1916
3,60,85,4
3,60,0,236
3,66,85,4
3,66,0,236
3,66,85,4
3,66,0,236
3,66,85,4
3,66,0,236
3,66,85,4
3,66,0,476
3,60,85,4
3,60,0,236
3,66,85,4
3,66,0,236
3,66,85,4
3,66,0,236
3,66,85,4
3,66,0,236
3,66,85,4
3,66,0,476
3,67,85,4
3,67,0,476
3,69,85,4
3,69,0,476
3,71,85,4
3,71,0,236
3,69,85,4
3,69,0,236
3,67,85,4
3,67,0,236
3,66,85,4
3,66,0,2156
3,58,85,4
3,58,0,236
3,64,85,4
3,64,0,236
3,64,85,4
3,64,0,236
3,64,85,4
3,64,0,236
3,64,85,4
3,64,0,476
3,58,85,4
3,58,0,236
3,64,85,4
3,64,0,236
3,64,85,4
3,64,0,236
3,64,85,4
3,64,0,236
3,64,85,4
3,64,0,476
3,65,85,4
3,65,0,476
3,67,85,4
3,67,0,476
3,64,85,4
3,64,0,1916
3,58,85,4
3,58,0,236
3,64,85,4
3,64,0,236
3,64,85,4
3,64,0,236
3,64,85,4
3,64,0,236
3,64,85,4
3,64,0,476
3,58,85,4
3,58,0,236
3,64,85,4
3,64,0,236
3,64,85,4
3,64,0,236
3,64,85,4
3,64,0,236
3,64,85,4
3,64,0,476
3,65,85,4
3,65,0,476
3,67,85,4
3,67,0,476
3,69,85,4
3,69,0,236
3,67,85,4
3,67,0,236
3,65,85,4
3,65,0,236
3,64,85,4
3,64,0,2156
3,71,85,2884
3,71,0,476
3,67,85,4
3,67,0,476
3,64,85,4
3,64,0,476
3,71,85,4
3,71,0,236
3,66,85,4
3,66,0,1196
3,64,85,484
3,64,0,236
3,66,85,4
3,66,0,236
3,67,85,4
3,67,0,236
3,69,85,4
3,69,0,236
3,67,85,4
3,67,0,236
3,66,85,4
3,66,0,236
3,64,85,4
3,64,0,476
3,71,85,4
3,71,0,236
3,66,85,4
3,66,0,1196
3,64,85,484
3,64,0,236
3,66,85,4
3,66,0,236
3,67,85,4
3,67,0,236
3,69,85,4
3,69,0,236
3,67,85,4
3,67,0,236
3,66,85,4
3,66,0,236
3,64,85,4
3,64,0,476
3,67,85,4
3,67,0,236
3,66,85,4
3,66,0,716
3,64,85,4
3,64,0,476
3,67,85,4
3,67,0,236
3,66,85,4
3,66,0,716
3,64,85,4
3,64,0,476
3,67,85,4
3,67,0,236
3,66,85,4
3,66,0,716
3,64,85,70564
3,64,0,476
3,71,85,4
3,71,0,236
3,66,85,4
3,66,0,1196
3,64,85,484
3,64,0,236
3,66,85,4
3,66,0,236
3,67,85,4
3,67,0,236
3,69,85,4
3,69,0,236
3,67,85,4
3,67,0,236
3,66,85,4
3,66,0,236
3,64,85,4
3,64,0,476
3,71,85,4
3,71,0,236
3,66,85,4
3,66,0,1196
3,64,85,484
3,64,0,236
3,66,85,4
3,66,0,236
3,67,85,4
3,67,0,236
3,69,85,4
3,69,0,236
3,67,85,4
3,67,0,236
3,66,85,4
3,66,0,236
3,64,85,4
3,64,0,476
3,67,85,4
3,67,0,236
3,66,85,4
3,66,0,716
3,64,85,4
3,64,0,476
3,67,85,4
3,67,0,236
3,66,85,4
3,66,0,716
3,64,85,4
3,64,0,476
3,67,85,4
3,67,0,236
3,66,85,4
3,66,0,716
3,60,85,1444
3,60,0,236
3,66,85,4
3,66,0,236
3,66,85,4
3,66,0,236
3,66,85,4
3,66,0,236
3,66,85,4
3,66,0,476
3,60,85,4
3,60,0,236
3,66,85,4
3,66,0,236
3,66,85,4
3,66,0,236
3,66,85,4
3,66,0,236
3,66,85,4
3,66,0,476
3,67,85,4
3,67,0,476
3,69,85,4
3,69,0,476
3,66,85,4
3,66,0,1916
3,60,85,4
3,60,0,236
3,66,85,4
3,66,0,236
3,66,85,4
3,66,0,236
3,66,85,4
3,66,0,236
3,66,85,4
3,66,0,476
3,60,85,4
3,60,0,236
3,66,85,4
3,66,0,236
3,66,85,4
3,66,0,236
3,66,85,4
3,66,0,236
3,66,85,4
3,66,0,476
3,67,85,4
3,67,0,476
3,69,85,4
3,69,0,476
3,71,85,4
3,71,0,236
3,69,85,4
3,69,0,236
3,67,85,4
3,67,0,236
3,66,85,4
3,66,0,2156
3,58,85,4
3,58,0,236
3,64,85,4
3,64,0,236
3,64,85,4
3,64,0,236
3,64,85,4
3,64,0,236
3,64,85,4
3,64,0,476
3,58,85,4
3,58,0,236
3,64,85,4
3,64,0,236
3,64,85,4
3,64,0,236
3,64,85,4
3,64,0,236
3,64,85,4
3,64,0,476
3,65,85,4
3,65,0,476
3,67,85,4
3,67,0,476
3,64,85,4
3,64,0,1916
3,58,85,4
3,58,0,236
3,64,85,4
3,64,0,236
3,64,85,4
3,64,0,236
3,64,85,4
3,64,0,236
3,64,85,4
3,64,0,476
3,58,85,4
3,58,0,236
3,64,85,4
3,64,0,236
3,64,85,4
3,64,0,236
3,64,85,4
3,64,0,236
3,64,85,4
3,64,0,476
3,65,85,4
3,65,0,476
3,67,85,4
3,67,0,476
3,69,85,4
3,69,0,236
3,67,85,4
3,67,0,236
3,65,85,4
3,65,0,236
3,64,85,4
3,64,0,2156
3,71,85,2884
3,71,0,476
3,67,85,4
3,67,0,476
3,64,85,4
3,64,0,476
3,71,85,4
3,71,0,236
3,66,85,4
3,66,0,1196
3,64,85,484
3,64,0,236
3,66,85,4
3,66,0,236
3,67,85,4
3,67,0,236
3,69,85,4
3,69,0,236
3,67,85,4
3,67,0,236
3,66,85,4
3,66,0,236
3,64,85,4
3,64,0,476
3,71,85,4
3,71,0,236
3,66,85,4
3,66,0,1196
3,64,85,484
3,64,0,236
3,66,85,4
3,66,0,236
3,67,85,4
3,67,0,236
3,69,85,4
3,69,0,236
3,67,85,4
3,67,0,236
3,66,85,4
3,66,0,236
3,64,85,4
3,64,0,476
3,67,85,4
3,67,0,236
3,66,85,4
3,66,0,716
3,64,85,4
3,64,0,476
3,67,85,4
3,67,0,236
3,66,85,4
3,66,0,716
3,64,85,4
3,64,0,476
3,67,85,4
3,67,0,236
3,66,85,4
3,66,0,716
3,60,85,1444
3,60,0,236
3,66,85,4
3,66,0,236
3,66,85,4
3,66,0,236
3,66,85,4
3,66,0,236
3,66,85,4
3,66,0,476
3,60,85,4
3,60,0,236
3,66,85,4
3,66,0,236
3,66,85,4
3,66,0,236
3,66,85,4
3,66,0,236
3,66,85,4
3,66,0,476
3,67,85,4
3,67,0,476
3,69,85,4
3,69,0,476
3,66,85,4
3,66,0,1916
3,60,85,4
3,60,0,236
3,66,85,4
3,66,0,236
3,66,85,4
3,66,0,236
3,66,85,4
3,66,0,236
3,66,85,4
3,66,0,476
3,60,85,4
3,60,0,236
3,66,85,4
3,66,0,236
3,66,85,4
3,66,0,236
3,66,85,4
3,66,0,236
3,66,85,4
3,66,0,476
3,67,85,4
3,67,0,476
3,69,85,4
3,69,0,476
3,71,85,4
3,71,0,236
3,69,85,4
3,69,0,236
3,67,85,4
3,67,0,236
3,66,85,4
3,66,0,2156
3,58,85,4
3,58,0,236
3,64,85,4
3,64,0,236
3,64,85,4
3,64,0,236
3,64,85,4
3,64,0,236
3,64,85,4
3,64,0,476
3,58,85,4
3,58,0,236
3,64,85,4
3,64,0,236
3,64,85,4
3,64,0,236
3,64,85,4
3,64,0,236
3,64,85,4
3,64,0,476
3,65,85,4
3,65,0,476
3,67,85,4
3,67,0,476
3,64,85,4
3,64,0,1916
3,58,85,4
3,58,0,236
3,64,85,4
3,64,0,236
3,64,85,4
3,64,0,236
3,64,85,4
3,64,0,236
3,64,85,4
3,64,0,476
3,58,85,4
3,58,0,236
3,64,85,4
3,64,0,236
3,64,85,4
3,64,0,236
3,64,85,4
3,64,0,236
3,64,85,4
3,64,0,476
3,65,85,4
3,65,0,476
3,67,85,4
3,67,0,476
3,69,85,4
3,69,0,236
3,67,85,4
3,67,0,236
3,65,85,4
3,65,0,236
3,64,85,4
3,64,0,2156
3,64,85,3844
3,64,0,476
3,71,85,4
3,71,0,236
3,66,85,4
3,66,0,1676
3,64,85,4
3,64,0,236
3,66,85,4
3,66,0,236
3,67,85,4
3,67,0,236
3,69,85,4
3,69,0,236
3,67,85,4
3,67,0,236
3,66,85,4
3,66,0,236
3,64,85,4
3,64,0,476
3,71,85,4
3,71,0,236
3,66,85,4
3,66,0,1676
3,64,85,4
3,64,0,236
3,66,85,4
3,66,0,236
3,67,85,4
3,67,0,236
3,69,85,4
3,69,0,236
3,67,85,4
3,67,0,236
3,66,85,4
3,66,0,236
3,64,85,4
3,64,0,476
3,67,85,4
3,67,0,236
3,66,85,4
3,66,0,716
3,64,85,484
3,64,0,476
3,67,85,4
3,67,0,236
3,66,85,4
3,66,0,716
3,64,85,1509
3,64,0,476
3,67,85,4
3,67,0,236
3,66,85,4
3,66,0,9755
4,55,97,30720
4,59,97,0
4,64,97,0
4,64,0,476
4,71,97,4
4,71,0,236
4,66,97,4
4,66,0,1196
4,64,97,484
4,64,0,236
4,66,97,4
4,66,0,236
4,67,97,4
4,67,0,236
4,69,97,4
4,69,0,236
4,67,97,4
4,67,0,236
4,66,97,4
4,66,0,236
4,59,0,0
4,55,0,0
4,64,97,4
4,59,97,0
4,55,97,0
4,64,0,476
4,71,97,4
4,71,0,236
4,66,97,4
4,66,0,1196
4,64,97,484
4,64,0,236
4,66,97,4
4,66,0,236
4,67,97,4
4,67,0,236
4,69,97,4
4,69,0,236
4,67,97,4
4,67,0,236
4,66,97,4
4,66,0,236
4,55,0,0
4,59,0,0
4,64,97,4
4,60,97,0
4,55,97,0
4,64,0,476
4,67,97,4
4,67,0,236
4,66,97,4
4,66,0,716
4,55,0,0
4,60,0,0
4,64,97,4
4,57,97,0
4,54,97,0
4,54,0,476
4,64,0,0
4,67,97,4
4,54,97,0
4,67,0,236
4,66,97,4
4,66,0,716
4,54,0,0
4,57,0,0
4,64,97,4
4,59,97,0
4,55,97,0
4,64,0,476
4,67,97,4
4,67,0,236
4,66,97,4
4,55,0,236
4,55,97,4
4,55,0,476
4,66,0,0
4,59,0,0
4,66,97,4
4,59,97,0
4,55,97,0
4,55,0,1436
4,59,0,0
4,66,0,0
4,64,97,4
4,59,97,0
4,55,97,0
4,64,0,476
4,71,97,4
4,71,0,236
4,66,97,4
4,55,0,236
4,55,97,4
4,55,0,716
4,59,0,0
4,59,97,4
4,55,97,0
4,66,0,236
4,64,97,484
4,64,0,236
4,66,97,4
4,66,0,236
4,67,97,4
4,67,0,236
4,69,97,4
4,69,0,236
4,67,97,4
4,67,0,236
4,66,97,4
4,66,0,236
4,55,0,0
4,59,0,0
4,64,97,4
4,59,97,0
4,55,97,0
4,64,0,476
4,71,97,4
4,71,0,236
4,66,97,4
4,55,0,236
4,55,97,4
4,55,0,236
4,59,0,0
4,59,97,4
4,55,97,0
4,55,0,476
4,59,0,0
4,59,97,4
4,55,97,0
4,66,0,236
4,64,97,484
4,64,0,236
4,66,97,4
4,66,0,236
4,67,97,4
4,67,0,236
4,69,97,4
4,69,0,236
4,67,97,4
4,67,0,236
4,66,97,4
4,66,0,236
4,55,0,0
4,59,0,0
4,64,97,4
4,60,97,0
4,55,97,0
4,64,0,476
4,67,97,4
4,67,0,236
4,66,97,4
4,66,0,716
4,55,0,0
4,60,0,0
4,64,97,4
4,57,97,0
4,54,97,0
4,54,0,476
4,64,0,0
4,54,97,4
4,54,0,956
4,57,0,0
4,67,97,4
4,67,0,236
4,66,97,4
4,66,0,716
4,55,97,4
4,55,0,476
4,66,97,4
4,59,97,0
4,55,97,0
4,55,0,1436
4,59,0,0
4,66,0,0
4,60,97,4
4,60,0,236
4,66,97,4
4,66,0,236
4,66,97,4
4,66,0,236
4,66,97,4
4,66,0,236
4,66,97,4
4,66,0,476
4,60,97,4
4,60,0,236
4,66,97,4
4,66,0,236
4,66,97,4
4,66,0,236
4,66,97,4
4,66,0,236
4,66,97,4
4,66,0,476
4,67,97,4
4,67,0,476
4,69,97,4
4,69,0,476
4,66,97,4
4,66,0,1916
4,60,97,4
4,60,0,236
4,66,97,4
4,66,0,236
4,66,97,4
4,66,0,236
4,66,97,4
4,66,0,236
4,66,97,4
4,66,0,476
4,60,97,4
4,60,0,236
4,66,97,4
4,66,0,236
4,66,97,4
4,66,0,236
4,66,97,4
4,66,0,236
4,66,97,4
4,66,0,476
4,67,97,4
4,67,0,476
4,69,97,4
4,69,0,476
4,71,97,4
4,71,0,236
4,69,97,4
4,69,0,236
4,67,97,4
4,67,0,236
4,66,97,4
4,66,0,2156
4,58,97,4
4,58,0,236
4,64,97,4
4,64,0,236
4,64,97,4
4,64,0,236
4,64,97,4
4,64,0,236
4,64,97,4
4,64,0,476
4,58,97,4
4,58,0,236
4,64,97,4
4,64,0,236
4,64,97,4
4,64,0,236
4,64,97,4
4,64,0,236
4,64,97,4
4,64,0,476
4,65,97,4
4,65,0,476
4,67,97,4
4,67,0,476
4,64,97,4
4,64,0,1916
4,58,97,4
4,58,0,236
4,64,97,4
4,64,0,236
4,64,97,4
4,64,0,236
4,64,97,4
4,64,0,236
4,64,97,4
4,64,0,476
4,58,97,4
4,58,0,236
4,64,97,4
4,64,0,236
4,64,97,4
4,64,0,236
4,64,97,4
4,64,0,236
4,64,97,4
4,64,0,476
4,65,97,4
4,65,0,476
4,67,97,4
4,67,0,476
4,69,97,4
4,69,0,236
4,67,97,4
4,67,0,236
4,65,97,4
4,65,0,236
4,64,97,4
4,64,0,2156
4,60,97,4
4,60,0,236
4,66,97,4
4,66,0,236
4,66,97,4
4,66,0,236
4,66,97,4
4,66,0,236
4,66,97,4
4,66,0,236
4,67,97,4
4,67,0,236
4,69,97,4
4,69,0,236
4,72,97,4
4,66,97,0
4,63,97,0
4,63,0,1196
4,66,0,0
4,72,0,0
4,71,97,4
4,63,97,0
4,59,97,0
4,71,0,476
4,67,97,4
4,67,0,476
4,59,0,0
4,63,0,0
4,64,97,4
4,59,97,0
