track,note,velocity,time
3,69,127,0
3,69,0,224
3,69,127,0
3,69,0,224
3,69,124,0
3,69,0,224
3,69,127,0
3,69,0,452
3,67,100,0
3,67,0,224
3,65,101,0
3,65,0,224
3,67,106,0
3,67,0,224
3,69,127,0
3,69,0,224
3,69,127,0
3,69,0,452
3,69,118,0
3,69,0,224
3,69,127,0
3,69,0,224
3,69,127,0
3,69,0,224
3,69,127,0
3,69,0,452
3,69,127,0
3,69,0,224
3,69,127,0
3,69,0,224
3,72,115,0
3,72,0,452
3,69,127,0
3,69,0,452
3,67,111,0
3,67,0,452
3,65,106,0
3,65,0,452
3,65,108,0
3,65,0,224
3,67,127,0
3,67,0,224
3,67,127,0
3,67,0,452
3,69,127,0
3,69,0,224
3,69,124,0
3,69,0,224
3,69,127,0
3,69,0,224
3,69,127,0
3,69,0,452
3,67,110,0
3,67,0,224
3,65,106,0
3,65,0,224
3,67,106,0
3,67,0,224
3,69,103,0
3,69,0,224
3,69,127,0
3,69,0,452
3,69,124,0
3,69,0,224
3,69,127,0
3,69,0,224
3,69,127,0
3,69,0,224
3,69,127,0
3,69,0,452
3,69,111,0
3,69,0,224
3,69,127,0
3,69,0,224
3,72,110,0
3,72,0,452
3,69,118,0
3,69,0,452
3,67,118,0
3,67,0,452
3,65,103,0
3,65,0,452
3,65,106,0
3,65,0,224
3,67,118,0
3,67,0,224
3,67,111,0
3,67,0,452
3,60,101,0
3,60,0,224
3,62,111,0
3,62,0,224
3,65,127,0
3,65,0,112
3,65,86,0
3,65,0,224
3,65,127,0
3,65,0,112
3,62,127,0
3,62,0,680
3,62,103,0
3,62,0,224
3,64,124,0
3,64,0,224
3,67,106,0
3,67,0,112
3,67,115,0
3,67,0,224
3,67,111,0
3,67,0,112
3,64,127,0
3,64,0,680
3,64,96,0
3,61,96,4
3,64,0,220
3,61,0,4
3,65,103,0
3,62,103,16
3,65,0,436
3,62,0,16
3,69,97,0
3,65,97,4
3,69,0,220
3,65,0,4
3,62,103,0
3,65,103,12
3,62,0,668
3,65,0,12
3,62,101,0
3,65,115,8
3,62,0,216
3,64,103,0
3,65,0,4
3,67,101,4
3,64,0,444
3,67,0,8
3,70,108,0
3,67,104,16
3,70,0,208
3,64,127,0
3,67,0,4
3,67,127,8
3,64,0,668
3,67,0,12
3,67,106,0
3,64,106,12
3,67,0,212
3,64,0,12
3,65,104,0
3,69,104,8
3,65,0,444
3,69,0,8
3,77,121,0
3,74,121,4
3,69,121,12
3,77,0,208
3,74,0,4
3,74,127,0
3,69,0,4
3,69,94,4
3,65,82,4
3,69,0,1132
3,65,0,4
3,67,96,0
3,71,101,4
3,74,0,4
3,67,0,8
3,71,0,4
3,65,127,0
3,62,124,8
3,65,0,900
3,62,0,8
3,61,100,0
3,64,110,8
3,61,0,900
3,64,0,8
3,62,127,0
3,62,0,452
3,61,100,0
3,64,118,4
3,61,0,448
3,64,0,4
3,65,104,0
3,62,103,8
3,65,0,444
3,62,0,8
3,64,103,0
3,67,97,4
3,64,0,448
3,67,0,4
3,65,127,0
3,62,124,20
3,65,0,1800
3,62,0,20
3,61,104,0
3,64,111,12
3,61,0,1352
3,64,0,12
3,62,127,0
3,65,127,4
3,62,0,904
3,65,0,4
3,67,94,0
3,64,104,16
3,60,100,0
3,67,0,436
3,60,0,16
3,64,0,0
3,65,101,0
3,69,101,0
3,60,100,4
3,69,0,448
3,65,0,0
3,60,0,4
3,62,96,0
3,65,124,8
3,67,101,4
3,62,0,896
3,65,0,8
3,67,0,4
3,60,100,0
3,64,111,8
3,67,100,4
3,60,0,896
3,64,0,8
3,67,0,4
3,57,82,0
3,65,94,4
3,60,97,8
3,57,0,3176
3,65,0,4
3,60,0,8
3,69,127,0
3,69,0,224
3,69,127,0
3,69,0,224
3,69,124,0
3,69,0,224
3,69,127,0
3,69,0,452
3,67,100,0
3,65,101,0
3,67,0,4
3,65,0,220
3,67,106,0
3,67,0,224
3,69,127,0
3,69,0,224
3,69,127,0
3,69,0,452
3,69,118,0
3,69,0,224
3,69,127,0
3,69,0,224
3,69,127,0
3,69,0,224
3,69,127,0
3,69,0,452
3,69,127,0
3,69,0,224
3,69,127,0
3,69,0,224
3,72,115,0
3,72,0,452
3,69,127,0
3,69,0,452
3,67,111,0
3,67,0,452
3,65,106,0
3,65,0,452
3,65,108,0
3,65,0,224
3,67,127,0
3,67,0,224
3,67,127,0
3,67,0,452
3,69,127,0
3,69,0,224
3,69,124,0
3,69,0,224
3,69,127,0
3,69,0,224
3,69,127,0
3,69,0,452
3,67,110,0
3,67,0,224
3,65,106,0
3,65,0,224
3,67,106,0
3,67,0,224
3,69,103,0
3,69,0,224
3,69,127,0
3,69,0,452
3,69,124,0
3,69,0,224
3,69,127,0
3,69,0,224
3,69,127,0
3,69,0,224
3,69,127,0
3,69,0,452
3,69,111,0
3,69,0,224
3,69,127,0
3,69,0,224
3,72,110,0
3,72,0,452
3,69,118,0
3,69,0,452
3,67,118,0
3,67,0,452
3,65,103,0
3,65,0,452
3,65,106,0
3,65,0,224
3,67,118,0
3,67,0,224
3,67,111,0
3,67,0,452
3,60,101,0
3,60,0,224
3,62,111,0
3,62,0,224
3,65,127,0
3,65,0,112
3,65,86,0
3,65,0,224
3,65,127,0
3,65,0,112
3,62,127,0
3,62,0,680
3,62,103,0
3,62,0,224
3,64,124,0
3,64,0,224
3,67,106,0
3,67,0,112
3,67,115,0
3,67,0,224
3,67,111,0
3,67,0,112
3,64,127,0
3,64,0,680
3,64,96,0
3,61,96,4
3,64,0,220
3,61,0,4
3,65,103,0
3,62,103,4
3,65,0,448
3,62,0,4
3,69,97,0
3,65,97,16
3,69,0,208
3,65,0,16
3,65,103,0
3,62,103,12
3,65,0,668
3,62,0,12
3,62,101,0
3,65,115,12
3,62,0,212
3,65,0,12
3,67,101,0
3,64,103,4
3,67,0,448
3,64,0,4
3,67,104,0
3,70,108,12
3,67,0,212
3,70,0,12
3,64,127,0
3,67,127,4
3,64,0,676
3,67,0,4
3,67,106,0
3,64,106,8
3,67,0,216
3,64,0,8
3,69,104,0
3,65,104,16
3,69,0,436
3,65,0,16
3,77,121,0
3,74,121,16
3,69,121,0
3,77,0,208
3,69,0,16
3,74,0,0
3,74,127,0
3,65,82,0
3,69,94,4
3,65,0,1132
3,69,0,4
3,67,96,0
3,71,101,8
3,74,0,20
3,67,0,8
3,71,0,8
3,62,124,0
3,65,127,4
3,62,0,904
3,65,0,4
3,61,100,0
3,64,110,4
3,61,0,904
3,64,0,4
3,62,127,0
3,62,0,452
3,64,118,0
3,61,100,12
3,64,0,440
3,61,0,12
3,65,104,0
3,62,103,4
3,65,0,448
3,62,0,4
3,67,97,0
3,64,103,12
3,67,0,440
3,64,0,12
3,62,124,0
3,65,127,12
3,62,0,1808
3,65,0,12
3,64,111,0
3,61,104,8
3,64,0,1356
3,61,0,8
3,62,127,0
3,65,127,12
3,62,0,896
3,65,0,12
3,64,104,0
3,60,100,4
3,67,94,8
3,64,0,440
3,60,0,4
3,67,0,8
3,65,101,0
3,69,101,12
3,60,100,4
3,65,0,436
3,69,0,12
3,60,0,4
3,65,124,0
3,62,96,4
3,67,101,8
3,65,0,896
3,62,0,4
3,67,0,8
3,64,111,0
3,60,100,12
3,67,100,4
3,64,0,892
3,60,0,12
3,67,0,4
3,57,82,0
3,65,94,4
3,60,97,4
3,57,0,3180
3,65,0,4
3,60,0,4
3,62,124,0
3,65,127,0
3,65,0,908
3,62,0,0
3,61,100,0
3,64,110,4
3,61,0,904
3,64,0,4
3,62,127,0
3,62,0,452
3,64,118,0
3,61,100,16
3,64,0,436
3,61,0,16
3,62,103,0
3,65,104,8
3,62,0,444
3,65,0,8
3,67,97,0
3,64,103,4
3,67,0,448
3,64,0,4
3,62,124,0
3,65,127,4
3,62,0,1816
3,65,0,4
3,64,111,0
3,61,104,8
3,64,0,1356
3,61,0,8
3,62,127,0
3,65,127,4
3,62,0,904
3,65,0,4
3,67,94,0
3,60,100,4
3,64,104,4
3,67,0,444
3,60,0,4
3,64,0,4
3,65,101,0
3,60,100,0
3,69,101,4
3,60,0,448
3,65,0,0
3,69,0,4
3,62,96,0
3,67,101,0
3,65,124,16
3,67,0,892
3,62,0,0
3,65,0,16
3,60,100,0
3,67,100,8
3,64,111,12
3,60,0,888
3,67,0,8
3,64,0,12
3,65,94,0
3,60,97,8
3,57,82,0
3,65,0,3180
3,57,0,8
3,60,0,0
3,69,127,0
3,69,0,224
3,69,127,0
3,69,0,224
3,69,124,0
3,69,0,224
3,69,127,0
3,69,0,452
3,67,100,0
3,67,0,224
3,65,101,0
3,65,0,224
3,67,106,0
3,67,0,224
3,69,127,0
3,69,0,224
3,69,127,0
3,69,0,452
3,69,118,0
3,69,0,224
3,69,127,0
3,69,0,224
3,69,127,0
3,69,0,224
3,69,127,0
3,69,0,452
3,69,127,0
3,69,0,224
3,69,127,0
3,69,0,224
3,72,115,0
3,72,0,452
3,69,127,0
3,69,0,452
3,67,111,0
3,67,0,452
3,65,106,0
3,65,0,452
3,65,108,0
3,65,0,224
3,67,127,0
3,67,0,224
3,67,127,0
3,67,0,452
3,69,127,0
3,69,0,224
3,69,124,0
3,69,0,224
3,69,127,0
3,69,0,224
3,69,127,0
3,69,0,452
3,67,110,0
3,67,0,224
3,65,106,0
3,65,0,224
3,67,106,0
3,67,0,224
3,69,103,0
3,69,0,224
3,69,127,0
3,69,0,452
3,69,124,0
3,69,0,224
3,69,127,0
3,69,0,224
3,69,127,0
3,69,0,224
3,69,127,0
3,69,0,452
3,69,111,0
3,69,0,224
3,69,127,0
3,69,0,224
3,72,110,0
3,72,0,452
3,69,118,0
3,69,0,452
3,67,118,0
3,67,0,452
3,65,103,0
3,65,0,452
3,65,106,0
3,65,0,224
3,67,118,0
3,67,0,224
3,67,111,0
3,67,0,452
3,60,101,0
3,60,0,224
3,62,111,0
3,62,0,224
3,65,127,0
3,65,0,112
3,65,86,0
3,65,0,224
3,65,127,0
3,65,0,112
3,62,127,0
3,62,0,680
3,62,103,0
3,62,0,224
3,64,124,0
3,64,0,224
3,67,106,0
3,67,0,112
3,67,115,0
3,67,0,224
3,67,111,0
3,67,0,112
3,64,127,0
3,64,0,680
3,61,96,0
3,64,96,20
3,61,0,204
3,64,0,20
3,62,103,0
3,65,103,8
3,62,0,444
3,65,0,8
3,65,97,0
3,69,97,8
3,65,0,216
3,69,0,8
3,62,103,0
3,65,103,4
3,62,0,676
3,65,0,4
3,62,101,0
3,65,115,12
3,62,0,212
3,65,0,12
3,64,103,0
3,67,101,8
3,64,0,444
3,67,0,8
3,67,104,0
3,70,108,16
3,67,0,208
3,70,0,16
3,67,127,0
3,64,127,0
3,64,0,680
3,67,0,0
3,67,106,0
3,64,106,0
3,65,104,0
3,64,0,4
3,67,0,0
3,69,104,0
3,65,0,448
3,69,0,4
3,77,121,0
3,74,121,0
3,69,121,16
3,74,0,208
3,77,0,0
3,69,0,16
3,65,82,0
3,69,94,0
3,74,123,16
3,69,0,1120
3,65,0,0
3,67,96,0
3,71,101,12
3,74,0,24
3,67,0,24
3,71,0,4
3,62,124,0
3,65,127,16
3,62,0,892
3,65,0,16
3,64,110,0
3,61,100,8
3,64,0,900
3,61,0,8
3,62,127,0
3,62,0,452
3,64,118,0
3,61,100,0
3,61,0,452
3,64,0,0
3,65,104,0
3,62,103,4
3,65,0,448
3,62,0,4
3,64,103,0
3,67,97,8
3,64,0,444
3,67,0,8
3,62,124,0
3,65,127,8
3,62,0,1812
3,65,0,8
3,61,104,0
3,64,111,8
3,61,0,1356
3,64,0,8
3,65,127,0
3,62,127,4
3,65,0,904
3,62,0,4
3,64,104,0
3,67,94,8
3,60,100,0
3,64,0,444
3,60,0,8
3,67,0,0
3,60,100,0
3,69,101,0
3,65,101,4
3,69,0,448
3,60,0,0
3,65,0,4
3,65,124,0
3,62,96,4
3,67,101,4
3,65,0,900
3,62,0,4
3,67,0,4
3,67,100,0
3,64,111,8
3,60,100,8
3,67,0,892
3,64,0,8
3,60,0,8
3,60,97,0
3,65,94,4
3,57,82,4
3,60,0,3180
3,65,0,4
3,57,0,4
3,62,124,0
3,65,127,4
3,62,0,904
3,65,0,4
3,61,100,0
3,64,110,8
3,61,0,900
3,64,0,8
3,62,127,0
3,62,0,452
3,64,118,0
3,61,100,8
3,64,0,444
3,61,0,8
3,62,103,0
3,65,104,12
3,62,0,440
3,65,0,12
3,67,97,0
3,64,103,8
3,67,0,444
3,64,0,8
3,62,124,0
3,65,127,12
3,62,0,1808
3,65,0,12
3,64,111,0
3,61,104,12
3,64,0,1352
3,61,0,12
3,65,127,0
3,62,127,0
3,62,0,908
3,65,0,0
3,64,104,0
3,60,100,4
3,67,94,8
3,64,0,440
3,60,0,4
3,67,0,8
3,69,101,0
3,60,100,4
3,65,101,8
3,69,0,440
3,60,0,4
3,65,0,8
3,65,124,0
3,67,101,4
3,62,96,0
3,65,0,904
3,62,0,4
3,67,0,0
3,67,100,0
3,60,100,0
3,64,111,12
3,60,0,896
3,67,0,0
3,64,0,12
3,57,82,0
3,60,97,8
3,65,94,0
3,57,0,3180
3,65,0,8
3,60,0,0
3,65,127,0
3,62,124,12
3,65,0,896
3,62,0,12
3,64,110,0
3,61,100,8
3,64,0,900
3,61,0,8
3,62,127,0
3,62,0,452
3,61,100,0
3,64,118,8
3,61,0,444
3,64,0,8
3,65,104,0
3,62,103,4
3,65,0,448
3,62,0,4
3,67,97,0
3,64,103,8
3,67,0,444
3,64,0,8
3,65,127,0
3,62,124,12
3,65,0,1808
3,62,0,12
3,64,111,0
3,61,104,4
3,64,0,1360
3,61,0,4
3,62,127,0
3,65,127,4
3,62,0,904
3,65,0,4
3,67,94,0
3,64,104,8
3,60,100,4
3,67,0,440
3,64,0,8
3,60,0,4
3,69,101,0
3,65,101,4
3,60,100,12
3,69,0,436
3,65,0,4
3,60,0,12
3,62,96,0
3,67,101,4
3,65,124,0
3,62,0,904
3,65,0,4
3,67,0,0
3,64,111,0
3,60,100,0
3,67,100,0
3,67,0,908
3,60,0,0
3,64,0,0
3,60,97,0
3,65,94,8
3,57,82,4
3,60,0,3176
3,65,0,8
3,57,0,4
3,65,127,0
3,62,124,4
3,65,0,904
3,62,0,4
3,64,110,0
3,61,100,4
3,64,0,904
3,61,0,4
3,62,127,0
3,62,0,452
3,64,118,0
3,61,100,16
3,64,0,436
3,61,0,16
3,62,103,0
3,65,104,16
3,62,0,436
3,65,0,16
3,64,103,0
3,67,97,8
3,64,0,444
3,67,0,8
3,62,124,0
3,65,127,4
3,62,0,1816
3,65,0,4
3,64,111,0
3,61,104,8
3,64,0,1356
3,61,0,8
3,62,127,0
3,65,127,16
3,62,0,892
3,65,0,16
3,64,104,0
3,67,94,4
3,60,100,4
3,64,0,444
3,67,0,4
3,60,0,4
3,60,100,0
3,69,101,12
3,65,101,8
3,60,0,432
3,69,0,12
3,65,0,8
3,65,124,0
3,67,101,0
3,62,96,12
3,67,0,896
3,65,0,0
3,62,0,12
3,64,111,0
3,60,100,0
3,67,100,4
3,60,0,904
3,64,0,0
3,67,0,4
3,57,82,0
3,60,97,12
3,65,94,4
3,57,0,3172
3,60,0,12
3,65,0,4
3,62,124,636
3,65,127,0
3,65,0,908
3,62,0,0
3,64,102,52
3,61,92,16
3,64,0,892
3,61,0,16
3,62,108,52
3,62,0,452
3,61,80,8
3,64,94,16
3,61,0,436
3,64,0,16
3,65,80,16
3,62,78,8
3,65,0,444
3,62,0,8
3,64,74,20
3,67,70,4
3,64,0,448
3,67,0,4
3,62,83,36
3,65,92,4
3,62,0,1816
3,65,0,4
3,61,55,80
3,64,58,4
3,61,0,1360
3,64,0,4
3,65,51,568
3,62,46,0
3,62,0,908
3,65,0,0
3,60,27,44
3,64,28,4
3,67,25,0
3,60,0,448
3,67,0,4
3,64,0,0
3,65,25,16
3,69,25,0
3,60,23,16
3,69,0,436
3,65,0,0
3,60,0,16
3,65,25,12
3,67,20,4
