track,note,velocity,time
0,42,75,940
0,42,75,372
0,42,75,372
0,42,75,372
0,81,66,372
0,85,62,0
0,45,50,0
0,61,42,0
0,57,46,0
0,64,84,0
0,61,60,0
0,64,80,0
0,61,82,0
0,64,82,0
0,61,84,0
0,64,82,0
0,61,84,0
0,64,84,0
0,61,84,0
0,64,86,0
0,61,82,0
0,64,82,0
0,61,84,0
0,64,84,0
0,61,74,0
0,64,76,0
0,61,82,0
0,64,76,0
0,61,82,0
0,64,84,0
0,61,80,0
0,64,84,0
0,61,88,0
0,78,64,12
0,83,64,0
0,64,78,0
0,61,92,0
0,81,64,0
0,85,66,0
0,64,84,0
0,61,88,0
0,78,62,0
0,83,42,0
0,64,78,0
0,61,80,0
0,76,46,0
0,81,66,0
0,64,78,0
0,61,84,0
0,73,72,0
0,78,56,0
0,64,82,0
0,61,82,0
0,64,78,0
0,61,86,0
0,64,80,0
0,61,82,0
0,64,78,0
0,61,80,0
0,64,74,0
0,61,82,0
0,64,80,0
0,61,84,0
0,64,80,0
0,61,84,0
0,64,78,0
0,61,84,0
0,73,54,44
0,76,68,0
0,64,78,0
0,61,84,0
0,64,76,0
0,61,82,0
0,64,76,0
0,61,82,0
0,64,78,0
0,61,84,0
0,76,62,4
0,81,62,0
0,64,82,0
0,61,84,0
0,64,78,0
0,61,82,0
0,64,76,0
0,61,84,0
0,64,80,0
0,61,86,0
0,73,42,4
0,78,62,0
0,64,80,0
0,61,84,0
0,64,70,0
0,61,86,0
0,64,78,0
0,61,82,0
0,64,76,0
0,61,82,0
0,64,76,0
0,61,80,0
0,64,76,0
0,61,82,0
0,64,82,0
0,61,80,0
0,64,82,0
0,61,84,0
0,73,50,48
0,78,64,0
0,64,88,0
0,61,82,0
0,64,82,0
0,61,82,0
0,64,76,0
0,61,76,0
0,64,78,0
0,61,80,0
0,78,64,40
0,81,58,0
0,64,82,0
0,61,82,0
0,64,76,0
0,61,84,0
0,64,84,0
0,61,84,0
0,64,86,0
0,61,86,0
0,81,66,8
0,85,54,0
0,64,88,0
0,61,84,0
0,64,78,0
0,61,78,0
0,64,80,0
0,61,84,0
0,64,78,0
0,61,84,0
0,64,82,0
0,61,80,0
0,64,82,0
0,61,76,0
0,64,76,0
0,61,82,0
0,64,86,0
0,61,84,0
0,64,80,0
0,61,84,0
0,64,78,0
0,61,82,0
0,64,84,0
0,61,82,0
0,64,82,0
0,61,82,0
0,86,64,48
0,90,64,0
0,64,78,0
0,61,78,0
0,88,66,0
0,92,66,0
0,64,80,0
0,61,84,0
0,86,52,0
0,90,56,0
0,64,82,0
0,61,82,0
0,85,52,0
0,88,56,0
0,64,80,0
0,61,84,0
0,81,52,0
0,85,58,0
0,64,74,0
0,61,84,0
0,64,82,0
0,61,84,0
0,64,78,0
0,61,84,0
0,64,84,0
0,61,82,0
0,64,80,0
0,61,84,0
0,64,80,0
0,61,82,0
0,64,82,0
0,61,86,0
0,64,80,0
0,61,82,0
0,64,80,0
0,61,84,0
0,64,80,0
0,61,84,0
0,64,82,0
0,61,84,0
0,64,82,0
0,61,80,0
0,64,82,0
0,61,86,0
0,64,76,0
0,61,84,0
0,64,76,0
0,61,72,0
0,64,80,0
0,50,86,0
0,57,80,4
0,38,81,16
0,57,79,0
0,62,91,0
0,66,87,0
0,74,60,0
0,78,64,0
0,62,66,0
0,54,48,0
0,50,58,0
0,62,96,0
0,66,92,0
0,38,81,16
0,57,87,0
0,62,95,0
0,66,83,0
0,74,56,0
0,78,76,0
0,54,62,0
0,62,76,0
0,38,72,0
0,50,88,0
0,57,76,0
0,62,88,0
0,66,86,0
0,40,91,4
0,59,83,0
0,64,95,0
0,68,87,0
0,76,62,0
0,80,56,0
0,57,48,0
0,64,58,0
0,40,62,0
0,40,86,0
0,59,82,0
0,64,88,0
0,68,82,0
0,42,103,4
0,62,87,0
0,66,103,0
0,69,99,0
0,78,56,0
0,81,66,0
0,66,48,0
0,42,80,0
0,42,86,0
0,57,82,0
0,62,92,0
0,69,86,0
0,42,91,112
0,62,83,0
0,66,107,0
0,69,99,0
0,76,68,0
0,80,62,0
0,66,68,0
0,57,64,0
0,42,64,0
0,42,82,0
0,57,88,0
0,62,104,0
0,44,79,44
0,59,73,0
0,64,81,0
0,68,83,0
0,73,64,0
0,76,64,0
0,64,48,0
0,44,54,0
0,59,60,0
0,44,80,0
0,59,88,0
0,64,86,0
0,45,91,4
0,57,83,0
0,61,91,0
0,64,79,0
0,69,46,0
0,73,50,0
0,61,46,0
0,45,64,0
0,45,88,0
0,61,84,0
0,64,74,0
0,38,11,16
0,38,23,36
0,38,18,36
0,38,75,0
0,76,62,180
0,38,13,48
0,38,20,36
0,38,22,36
0,38,75,36
0,61,70,180
0,64,76,0
0,61,72,0
0,64,76,0
0,61,72,0
0,38,66,0
0,64,64,0
0,61,84,0
0,64,76,0
0,61,82,0
0,38,40,0
0,64,74,0
0,61,82,0
0,64,76,0
0,74,64,48
0,78,62,0
0,61,82,0
0,38,75,0
0,64,66,0
0,76,62,0
0,80,58,0
0,61,76,0
0,64,74,0
0,74,50,0
0,78,38,0
0,61,76,0
0,64,76,0
0,38,13,0
0,73,31,0
0,76,64,0
0,61,76,0
0,38,11,0
0,64,82,0
0,38,20,0
0,69,72,0
0,73,54,0
0,61,72,0
0,38,75,0
0,64,78,0
0,57,44,48
0,61,78,0
0,64,78,0
0,61,82,0
0,64,78,12
0,61,82,0
0,38,15,0
0,38,13,0
0,64,76,36
0,38,75,0
0,61,82,0
0,64,70,0
0,61,74,0
0,64,72,0
0,61,86,0
0,38,23,0
0,64,74,0
0,38,18,0
0,61,84,0
0,38,20,0
0,64,80,0
0,38,75,0
0,61,84,0
0,64,66,0
0,61,76,0
0,64,78,0
0,38,75,0
0,61,76,0
0,64,76,0
0,61,76,0
0,66,64,32
0,71,66,0
0,64,76,0
0,38,75,0
0,61,80,0
0,69,60,0
0,73,56,0
0,64,76,0
0,38,44,0
0,61,74,0
0,71,30,0
0,64,76,0
0,38,75,0
0,61,78,0
0,64,42,0
0,69,54,0
0,64,82,0
0,61,82,0
0,61,56,0
0,66,58,0
0,64,78,0
0,38,75,0
0,61,76,0
0,64,60,0
0,61,66,0
0,64,76,0
0,38,30,0
0,61,70,0
0,64,82,0
0,61,82,0
0,64,70,0
0,38,61,0
0,61,80,0
0,64,76,0
0,61,82,0
0,64,82,0
0,38,28,0
0,61,74,0
0,64,82,0
0,61,78,0
0,64,82,0
0,38,75,0
0,61,84,0
0,64,80,0
0,61,84,0
0,64,80,0
0,61,80,0
0,64,82,0
0,38,20,0
0,61,80,0
0,38,22,0
0,61,56,0
0,64,66,0
0,64,78,0
0,38,75,0
0,61,74,0
0,64,74,0
0,61,70,0
0,69,64,36
0,64,78,0
0,61,84,0
0,64,84,0
0,61,84,0
0,61,34,4
0,66,54,0
0,64,82,0
0,38,75,0
0,61,84,0
0,64,80,0
0,61,80,0
0,64,82,0
0,38,43,0
0,61,70,0
0,64,80,0
0,61,82,0
0,64,78,0
0,38,75,0
0,61,72,0
0,64,82,0
0,61,76,0
0,61,88,48
0,64,84,0
0,61,76,0
0,38,11,0
0,61,73,36
0,64,84,0
0,38,10,0
0,61,76,0
0,38,17,0
0,61,73,36
0,61,82,0
0,38,75,0
0,64,76,0
0,61,74,0
0,38,37,0
0,64,80,0
0,61,68,0
0,38,56,0
0,64,86,0
0,62,71,48
0,61,80,0
0,64,86,0
0,62,87,44
0,61,74,0
0,38,75,0
0,64,84,0
0,61,76,0
0,64,82,0
0,61,76,0
0,64,78,0
0,64,79,48
0,61,74,0
0,45,58,0
0,38,11,0
0,52,64,20
0,64,86,0
0,38,13,0
0,57,64,4
0,33,56,0
0,64,91,0
0,61,80,0
0,61,56,0
0,38,75,0
0,76,90,0
0,64,82,0
0,61,80,0
0,64,82,0
0,40,62,48
0,64,81,0
0,61,74,0
0,73,66,0
0,64,80,0
0,61,70,0
0,38,10,0
0,64,82,0
0,38,11,0
0,45,44,36
0,61,76,0
0,38,75,0
0,76,78,0
0,64,82,0
0,61,80,0
0,64,86,0
0,49,60,48
0,61,84,0
0,73,74,0
0,64,86,0
0,38,13,0
0,61,82,0
0,38,13,0
0,64,86,0
0,38,13,0
0,61,76,0
0,38,75,0
0,76,78,0
0,64,80,0
0,61,76,0
0,64,84,0
0,61,76,0
0,38,61,0
0,73,74,0
0,64,82,0
0,61,74,0
0,64,80,0
0,61,74,0
0,38,75,0
0,76,78,0
0,64,82,0
0,61,72,0
0,38,47,0
0,64,84,0
0,61,72,0
0,38,75,0
0,73,68,0
0,64,84,0
0,61,80,0
0,64,88,0
0,33,54,8
0,61,80,0
0,38,75,0
0,76,78,0
0,64,82,0
0,61,80,0
0,64,86,0
0,40,56,48
0,61,74,0
0,73,62,0
0,64,84,0
0,61,74,0
0,38,10,0
0,64,82,0
0,38,10,0
0,45,52,36
0,61,72,0
0,38,75,0
0,76,78,0
0,64,84,0
0,61,72,0
0,64,86,0
0,49,54,48
0,61,77,0
0,61,70,0
0,73,60,0
0,64,82,0
0,61,77,32
0,61,72,0
0,38,10,0
0,64,86,0
0,38,10,0
0,61,67,36
0,61,72,0
0,38,75,0
0,76,72,0
0,64,86,0
0,61,74,0
0,64,80,0
0,62,81,0
0,61,72,0
0,73,62,0
0,64,82,0
0,61,76,0
0,38,11,0
0,64,86,0
0,38,13,0
0,62,95,36
0,61,74,0
0,38,75,0
0,76,72,0
0,64,84,0
0,61,72,0
0,64,78,0
0,64,77,32
0,61,68,0
0,73,62,0
0,64,80,0
0,61,82,0
0,38,10,0
0,64,80,0
0,38,11,0
0,33,56,0
0,64,83,0
0,61,76,0
0,38,75,0
0,76,72,0
0,64,84,0
0,61,76,0
0,64,76,0
0,40,62,20
0,62,75,0
0,61,74,0
0,73,62,0
0,61,74,0
0,64,84,0
0,64,84,0
0,38,10,0
0,61,76,0
0,38,10,0
0,45,42,36
0,62,79,0
0,64,84,0
0,38,75,0
0,76,70,0
0,61,76,0
0,64,84,0
0,61,82,0
0,49,62,20
0,61,77,0
0,64,86,0
0,73,70,0
0,61,74,0
0,64,86,0
0,38,10,0
0,61,82,0
0,38,15,0
0,61,83,36
0,64,86,0
0,38,75,0
0,76,72,0
0,61,84,0
0,64,88,0
0,61,74,0
0,59,73,24
0,64,82,0
0,73,74,0
0,61,78,0
0,64,80,0
0,38,37,0
0,61,82,0
0,59,71,48
0,64,82,0
0,38,75,0
0,76,70,0
0,61,74,0
0,64,84,0
0,38,35,0
0,61,74,0
0,57,59,20
0,64,84,0
0,38,75,0
0,73,60,0
0,61,74,0
0,64,86,0
0,42,66,0
0,38,47,0
0,57,56,8
0,57,84,0
0,61,60,16
0,30,62,0
0,57,57,0
0,66,58,0
0,57,48,0
0,42,50,0
0,66,88,0
0,66,64,0
0,38,75,0
0,78,76,0
0,57,82,0
0,66,88,0
0,57,82,0
0,37,58,48
0,66,86,0
0,73,64,0
0,57,82,0
0,38,12,0
0,66,92,0
0,38,10,0
0,57,82,0
0,38,12,0
0,42,42,36
0,66,86,0
0,38,75,0
0,78,78,0
0,57,80,0
0,66,86,0
0,57,76,0
0,45,64,48
0,66,86,0
0,38,51,0
0,73,72,0
0,57,74,0
0,66,86,0
0,57,82,0
0,66,86,0
0,38,75,0
0,78,78,0
0,57,82,0
0,66,86,0
0,57,82,0
0,66,86,0
0,73,72,0
0,57,72,0
0,66,88,0
0,38,12,0
0,57,76,0
0,38,12,0
0,66,84,0
0,38,75,0
0,78,78,0
0,57,80,0
0,66,82,0
0,57,82,0
0,66,84,0
0,73,64,0
0,57,80,0
0,66,84,0
0,38,17,0
0,57,72,0
0,38,12,0
0,30,62,36
0,66,84,0
0,38,75,0
0,78,78,0
0,57,84,0
0,66,86,0
0,57,82,0
0,37,62,48
0,66,70,0
0,73,60,0
0,57,78,0
0,66,88,0
0,38,8,0
0,57,82,0
0,38,11,0
0,42,54,36
0,66,86,0
0,38,75,0
0,78,72,0
0,57,80,0
0,66,84,0
0,57,84,0
0,45,66,48
0,62,79,0
0,66,74,0
0,73,66,0
0,57,82,0
0,62,81,24
0,66,86,0
0,38,8,0
0,57,84,0
0,38,11,0
0,62,91,36
0,66,74,0
0,38,75,0
0,78,82,0
0,57,76,0
0,66,88,0
0,38,43,0
0,57,84,0
0,66,88,0
0,38,75,0
0,73,68,0
0,57,80,0
0,64,79,48
0,66,84,0
0,38,42,0
0,57,82,0
0,64,91,48
0,66,84,0
0,38,75,0
0,78,78,0
0,57,80,0
0,66,84,0
0,57,82,0
0,66,84,0
0,73,66,0
0,57,82,0
0,38,1,0
0,66,79,36
0,66,84,0
0,47,68,0
0,38,6,0
0,59,62,20
0,57,80,0
0,38,15,0
0,62,76,4
0,35,52,32
0,66,87,0
0,62,54,0
0,47,60,0
0,66,86,0
0,66,72,0
0,38,75,0
0,78,78,0
0,62,88,0
0,66,92,0
0,62,82,0
0,42,56,48
0,64,77,0
0,66,88,0
0,74,66,0
0,62,84,0
0,66,77,8
0,66,84,0
0,38,8,0
0,62,78,0
0,38,11,0
0,47,62,36
0,66,84,0
0,38,75,0
0,78,82,0
0,62,84,0
0,66,88,0
0,62,84,0
0,50,66,48
0,66,88,0
0,74,66,0
0,62,84,0
0,66,84,0
0,38,11,0
0,62,84,0
0,38,15,0
0,66,86,0
0,38,75,0
0,78,76,0
0,62,82,0
0,66,84,0
0,62,74,0
0,66,84,0
0,74,58,0
0,62,88,0
0,66,86,0
0,38,8,0
0,62,80,0
0,38,8,0
0,66,86,0
0,38,75,0
0,78,74,0
0,62,84,0
0,66,86,0
0,62,74,0
0,66,82,0
0,74,62,0
0,62,72,0
0,38,8,0
0,66,86,0
0,38,13,0
0,62,78,0
0,38,22,0
0,35,54,36
0,66,86,0
0,38,75,0
0,78,78,0
0,62,84,0
0,66,84,0
0,62,82,0
0,42,50,48
0,66,82,0
0,74,58,0
0,62,78,0
0,66,84,0
0,38,6,0
0,62,82,0
0,38,13,0
0,47,58,36
0,66,84,0
0,38,75,0
0,78,76,0
0,62,80,0
0,66,82,0
0,62,84,0
0,50,64,48
0,62,77,0
0,66,82,0
0,74,52,0
0,62,82,0
0,62,79,36
0,66,88,0
0,38,28,0
0,62,86,0
0,62,81,48
0,66,84,0
0,38,75,0
0,78,74,0
0,62,82,0
0,66,88,0
0,62,82,0
0,64,69,40
0,66,82,0
0,38,59,0
0,74,60,0
0,62,84,0
0,66,80,0
0,62,84,0
0,64,81,48
0,66,80,0
0,38,75,0
0,78,74,0
0,62,78,0
0,66,78,0
0,62,84,0
0,66,79,0
0,66,86,0
0,74,60,0
0,62,86,0
0,66,86,0
0,38,5,0
0,62,74,0
0,38,11,0
0,35,58,36
0,66,91,0
0,66,84,0
0,38,75,0
0,78,74,0
0,62,80,0
0,66,82,0
0,62,86,0
0,42,46,28
0,64,69,0
0,66,84,0
0,38,35,0
0,74,66,0
0,62,82,0
0,66,82,0
0,62,80,0
0,47,46,48
0,64,81,0
0,66,84,0
0,38,75,0
0,78,72,0
0,62,82,0
0,66,84,0
0,62,78,0
0,50,58,16
0,62,79,0
0,66,84,0
0,74,64,0
0,62,80,0
0,66,84,0
0,38,10,0
0,62,82,0
0,38,8,0
0,62,79,36
0,66,82,0
0,38,75,0
0,78,74,0
0,62,80,0
0,66,84,0
0,62,78,0
0,61,77,24
0,66,84,0
0,38,33,0
0,74,62,0
0,62,84,0
0,66,84,0
0,62,84,0
0,61,83,48
0,66,84,0
0,38,75,0
0,78,72,0
0,62,84,0
0,66,86,0
0,62,78,0
0,59,75,12
0,66,86,0
0,74,64,0
0,62,82,0
0,38,3,0
0,66,80,0
0,52,76,0
0,38,8,0
0,56,76,8
0,62,82,0
0,38,11,0
0,59,64,4
0,28,48,0
0,59,79,0
0,40,52,0
0,56,36,0
0,64,62,0
0,62,66,0
0,68,86,0
0,64,66,0
0,38,75,0
0,76,76,0
0,59,86,0
0,68,88,0
