track,note,velocity,time
1,69,88,956
1,73,90,0
1,71,67,96
1,74,62,0
1,73,83,8
1,76,90,0
1,74,86,144
1,78,73,0
1,73,75,144
1,76,84,0
1,71,72,32
1,74,70,0
1,69,77,48
1,73,64,0
1,45,79,0
1,76,86,0
1,64,65,96
1,69,72,96
1,73,64,96
1,57,72,0
1,73,58,0
1,64,73,72
1,69,72,80
1,73,54,0
1,45,72,24
1,74,70,0
1,64,52,48
1,69,66,24
1,74,74,96
1,57,71,32
1,74,79,0
1,64,59,0
1,69,71,96
1,74,66,58
1,45,68,32
1,73,61,0
1,64,60,42
1,69,63,16
1,73,58,96
1,57,68,32
1,73,48,0
1,64,46,96
1,69,69,16
1,73,86,0
1,71,62,96
1,74,65,0
1,45,73,80
1,73,64,0
1,76,73,0
1,52,64,128
1,57,73,0
1,74,80,0
1,78,69,2
1,52,65,26
1,57,74,0
1,45,82,32
1,73,80,0
1,76,72,0
1,64,71,16
1,71,80,16
1,74,80,0
1,64,71,2
1,57,84,64
1,64,70,0
1,69,80,0
1,73,64,0
1,68,71,16
1,71,88,0
1,64,74,6
1,40,82,0
1,68,106,0
1,64,74,96
1,66,112,32
1,66,95,64
1,52,92,64
1,66,126,0
1,68,77,0
1,64,67,0
1,66,73,0
1,59,95,42
1,56,95,96
1,40,82,16
1,59,80,0
1,64,86,0
1,56,55,24
1,59,64,32
1,64,77,40
1,52,66,32
1,64,49,0
1,56,60,96
1,59,63,96
1,64,80,88
1,40,61,0
1,64,77,0
1,57,65,96
1,59,64,16
1,64,84,56
1,52,68,40
1,64,79,0
1,57,69,8
1,59,57,96
1,64,72,8
1,40,76,16
1,68,90,0
1,59,61,96
1,64,64,64
1,68,59,96
1,52,74,40
1,68,95,0
1,59,59,96
1,66,60,32
1,40,39,10
1,68,61,0
1,38,77,58
1,69,82,0
1,62,72,8
1,66,65,16
1,50,71,24
1,69,79,0
1,62,67,96
1,38,69,32
1,66,71,0
1,62,68,10
1,40,80,16
1,64,84,0
1,56,71,64
1,59,73,0
1,64,76,64
1,52,72,48
1,64,84,0
1,56,71,96
1,59,72,96
1,61,59,26
1,40,74,16
1,62,74,0
1,56,69,24
1,59,73,80
1,62,61,48
1,52,76,0
1,62,76,0
1,56,65,0
1,40,56,96
1,59,67,0
1,62,62,64
1,45,84,32
1,62,82,0
1,52,73,8
1,61,83,64
1,52,73,64
1,45,82,40
1,59,72,0
1,52,74,74
1,61,80,64
1,52,60,58
1,45,90,40
1,62,71,0
1,54,73,32
1,57,77,32
1,62,65,58
1,52,66,32
1,62,76,0
1,54,57,80
1,45,68,80
1,57,71,0
1,62,67,0
1,45,86,8
1,61,64,0
1,52,59,64
1,57,55,48
1,61,69,80
1,61,77,42
1,52,66,160
1,69,71,0
1,73,83,0
1,71,74,0
1,74,66,0
1,45,73,74
1,73,71,0
1,76,84,0
1,52,57,144
1,74,82,0
1,78,67,0
1,57,67,152
1,73,69,0
1,76,72,0
1,71,63,80
1,74,67,0
1,52,55,32
1,69,72,0
1,73,60,0
1,57,57,16
1,45,92,10
1,76,92,0
1,64,64,40
1,69,70,96
1,73,61,96
1,57,66,0
1,73,64,0
1,64,62,64
1,52,54,64
1,69,77,0
1,73,63,8
1,45,80,16
1,74,76,0
1,64,64,64
1,69,69,0
1,74,77,96
1,52,58,16
1,74,84,0
1,64,58,96
1,57,62,64
1,69,72,0
1,74,69,32
1,45,74,0
1,73,60,0
1,64,63,42
1,52,66,0
1,69,72,0
1,73,29,96
1,57,67,16
1,73,63,0
1,45,73,16
1,69,77,0
1,73,67,0
1,71,72,96
1,74,68,0
1,45,86,64
1,73,64,0
1,76,84,0
1,52,72,106
1,57,76,192
1,74,82,0
1,78,100,0
1,52,62,8
1,57,77,0
1,49,86,40
1,76,90,0
1,80,69,0
1,56,47,40
1,78,69,0
1,80,47,0
1,76,71,80
1,61,61,6
1,80,83,2
1,56,57,10
1,76,82,0
1,49,86,10
1,75,65,0
1,68,63,96
1,56,51,94
1,73,64,0
1,75,80,48
1,61,61,48
1,75,86,0
1,68,90,90
1,56,52,88
1,73,75,0
1,75,51,64
1,49,77,96
1,76,72,0
1,68,56,32
1,61,47,72
1,73,52,0
1,76,74,8
1,49,67,48
1,76,84,0
1,68,56,0
1,61,53,96
1,73,55,0
1,76,63,30
1,49,60,64
1,75,67,0
1,68,59,64
1,73,49,48
1,75,75,32
1,61,54,32
1,75,75,0
1,68,95,26
1,73,67,0
1,75,75,64
1,52,79,64
1,80,65,0
1,71,71,8
1,76,74,96
1,80,69,96
1,64,74,32
1,80,73,0
1,71,82,32
1,52,73,64
1,78,80,0
1,80,56,16
1,50,84,32
1,81,79,0
1,74,73,2
1,78,80,32
1,81,77,96
1,62,64,58
1,81,84,0
1,74,71,56
1,50,72,78
1,78,69,0
1,74,68,0
1,52,77,56
1,76,74,0
1,68,54,74
1,71,77,0
1,76,80,64
1,64,71,48
1,76,82,0
1,68,69,96
1,71,76,96
1,73,53,10
1,52,79,64
1,74,79,0
1,68,67,8
1,71,74,80
1,74,71,48
1,64,76,40
1,74,86,0
1,68,71,0
1,52,45,40
1,71,73,0
1,74,73,64
1,45,80,64
1,74,61,0
1,64,69,24
1,73,80,0
1,64,68,0
1,57,68,96
1,71,57,0
1,64,72,26
1,69,84,96
1,64,74,26
1,45,71,32
1,66,86,0
1,57,80,56
1,62,76,64
1,66,80,0
1,57,82,48
1,66,83,0
1,57,77,64
1,52,62,80
1,62,74,0
1,66,44,16
1,45,61,48
1,57,61,0
1,61,73,0
1,64,68,0
1,69,62,0
1,38,90,288
1,62,88,0
1,66,100,0
1,69,97,0
1,62,70,142
1,66,77,0
1,69,74,0
1,50,86,144
1,62,76,0
1,66,75,0
1,69,86,0
1,62,77,142
1,66,75,0
1,69,84,0
1,38,84,144
1,62,80,0
1,66,83,0
1,69,92,0
1,62,74,138
1,66,73,0
1,69,77,0
1,50,79,136
1,62,84,0
1,66,80,0
1,69,90,0
1,62,77,138
1,66,61,0
1,69,80,0
1,38,67,128
1,62,73,0
1,66,100,0
1,69,90,0
1,62,61,128
1,66,63,0
1,69,76,0
1,62,68,122
1,66,61,0
1,69,79,0
1,50,79,2
1,62,70,136
1,66,73,0
1,69,80,0
1,38,76,138
1,62,68,0
1,66,64,0
1,69,76,0
1,62,68,136
1,66,64,0
1,69,79,0
1,62,70,136
1,66,75,0
1,69,84,0
1,50,88,2
1,38,79,138
1,62,69,0
1,66,64,0
1,69,80,0
1,45,86,104
1,61,83,0
1,64,86,0
1,69,90,0
1,61,60,134
1,64,73,0
1,69,79,0
1,57,97,136
1,61,69,0
1,64,76,0
1,69,84,0
1,61,52,142
1,64,63,0
1,69,66,0
1,45,77,128
1,61,59,0
1,64,71,0
1,69,71,0
1,61,51,144
1,64,62,0
1,69,58,0
1,57,84,128
1,61,60,0
1,64,69,0
1,69,68,0
1,61,56,136
1,64,65,0
1,69,63,0
1,45,79,128
1,61,57,0
1,64,67,0
1,69,64,0
1,61,59,128
1,64,67,0
1,69,68,0
1,57,88,136
1,61,63,0
1,64,68,0
1,69,71,0
1,61,58,136
1,64,70,0
1,69,70,0
1,45,74,16
1,61,63,0
1,64,76,0
1,69,82,0
1,61,58,128
1,64,64,0
1,69,71,0
1,57,92,128
1,61,64,0
1,64,66,0
1,69,65,0
1,52,69,0
1,61,56,0
1,64,59,0
1,69,62,0
1,40,88,120
1,64,88,0
1,68,75,0
1,59,76,2
1,59,59,112
1,64,69,0
1,68,61,0
1,59,60,112
1,64,76,0
1,68,64,0
1,52,82,2
1,40,69,128
1,64,62,0
1,59,65,2
1,68,75,0
1,38,82,16
1,57,80,0
1,62,84,0
1,66,60,0
1,57,65,120
1,62,82,0
1,66,67,0
1,57,66,80
1,62,76,0
1,66,61,0
1,50,72,2
1,38,58,128
1,57,66,0
1,62,77,0
1,66,75,0
1,40,76,0
1,59,76,0
1,63,55,0
1,56,71,2
1,64,68,0
1,56,48,120
1,59,77,0
1,64,77,0
1,52,77,122
1,56,69,0
1,59,77,0
1,64,86,0
1,56,59,144
1,64,82,0
1,59,76,2
1,40,77,120
1,56,65,0
1,59,84,0
1,64,80,0
1,56,55,128
1,59,82,0
1,64,79,0
1,59,77,128
1,64,77,0
1,52,80,2
1,56,64,0
1,40,73,120
1,56,60,0
1,59,71,0
1,64,80,0
1,61,58,0
1,64,72,0
1,45,82,2
1,57,60,0
1,57,64,128
1,61,59,0
1,64,74,0
1,49,86,112
1,57,68,0
1,61,73,0
1,64,79,0
1,57,69,136
1,61,73,0
1,64,77,0
1,52,80,0
1,61,61,0
1,57,62,2
1,64,71,0
1,57,65,128
1,61,56,0
1,64,73,0
1,49,64,112
1,57,69,0
1,61,64,0
1,64,77,0
1,52,69,0
1,57,66,0
1,61,58,0
1,64,72,0
1,45,90,112
1,57,72,0
1,61,63,0
1,64,79,0
1,57,62,128
1,61,52,0
1,64,72,0
1,57,68,106
1,61,63,0
1,64,77,0
1,57,65,112
1,61,57,0
1,64,73,0
1,57,74,96
1,61,71,0
1,64,79,0
1,57,76,126
1,61,61,0
1,64,72,0
1,57,76,128
1,61,67,0
1,64,79,0
1,57,71,112
1,61,54,0
1,64,71,0
1,50,76,112
1,62,88,0
1,66,95,0
1,69,95,0
1,62,68,136
1,66,54,0
1,69,76,0
1,62,71,128
1,66,64,0
1,69,82,0
1,62,71,142
1,66,73,0
1,69,84,0
1,62,72,120
1,66,71,0
1,69,84,0
1,62,64,128
1,66,57,0
1,69,74,0
1,38,71,128
1,66,64,0
1,69,88,0
1,62,70,2
1,62,66,128
1,66,63,0
1,69,77,0
1,38,73,90
1,62,69,0
1,66,64,0
1,69,82,0
1,62,67,128
1,66,58,0
1,69,80,0
1,50,71,142
1,62,70,0
1,66,64,0
1,69,80,0
1,62,71,142
1,66,67,0
1,69,86,0
1,38,80,128
1,62,73,0
1,66,77,0
1,69,88,0
1,62,71,120
1,66,77,0
1,69,77,0
1,50,86,120
1,62,62,0
1,66,60,0
1,69,90,0
1,40,82,120
1,52,88,0
1,64,79,0
1,68,90,0
1,71,100,0
1,45,90,128
1,64,68,0
1,69,88,0
1,73,75,0
1,64,62,120
1,69,73,0
1,73,56,0
1,57,90,112
1,64,71,0
1,69,80,0
1,73,65,0
1,52,67,128
1,64,65,0
1,68,48,0
1,69,82,0
1,73,61,0
1,45,79,128
1,64,69,0
1,66,83,0
1,73,55,0
1,64,62,112
1,66,71,0
1,73,71,0
1,57,79,144
1,64,67,0
1,66,71,0
1,73,75,0
1,52,56,144
1,64,67,0
1,66,65,0
1,73,64,0
1,45,80,32
1,64,74,0
1,68,75,0
1,73,69,0
1,64,72,88
1,68,75,0
1,73,60,0
1,57,84,128
1,64,72,0
1,68,95,0
1,73,73,0
1,52,72,136
1,64,71,0
1,68,65,0
1,73,63,0
1,45,88,26
1,64,74,0
1,69,90,0
1,73,71,0
1,64,67,128
1,69,86,0
1,73,59,0
1,57,88,128
1,64,62,0
1,69,84,0
1,73,63,2
1,52,72,122
1,64,69,0
1,69,80,0
1,73,46,0
1,59,76,90
1,68,77,0
1,40,92,2
1,64,92,0
1,59,60,128
1,64,73,0
1,68,60,0
1,52,103,136
1,59,68,0
1,64,84,0
1,68,65,0
1,40,86,136
1,59,57,0
1,64,71,0
1,68,63,0
1,38,95,96
1,57,72,0
1,62,80,0
1,66,71,0
1,57,69,128
1,62,74,0
1,66,63,0
1,50,95,16
1,57,74,0
1,62,84,0
1,66,63,0
1,38,77,128
1,57,58,0
1,62,62,0
1,66,65,0
1,40,82,16
1,56,61,0
1,59,61,0
1,64,79,2
1,56,53,106
1,59,59,0
1,64,77,0
1,56,63,142
1,59,76,0
1,64,77,0
1,52,88,2
1,56,57,142
1,59,73,0
1,64,76,0
1,40,71,120
1,56,63,0
1,59,76,0
1,64,80,0
1,56,58,120
1,59,64,0
1,64,72,0
1,52,80,90
1,56,65,0
1,59,74,0
1,64,76,0
1,40,76,96
1,56,50,0
1,59,61,0
1,64,77,2
1,45,80,16
1,61,67,0
1,64,71,0
1,57,74,2
1,57,59,128
1,61,59,0
1,64,73,0
1,57,69,122
1,61,64,0
1,64,80,0
1,49,58,2
1,57,62,136
1,61,57,0
1,64,71,0
1,52,84,136
1,57,66,0
1,61,60,0
1,64,72,0
1,57,56,128
1,61,51,0
1,64,69,0
1,49,64,0
1,57,60,0
1,61,56,0
1,64,69,0
1,52,58,126
1,57,60,0
1,61,56,0
1,64,68,0
1,45,84,16
1,61,59,0
1,57,71,2
1,64,82,0
1,57,56,96
1,61,40,0
1,64,77,0
1,45,90,88
1,57,73,0
1,61,65,0
1,47,80,40
1,59,68,0
1,62,74,0
1,49,86,32
1,61,61,0
1,64,74,0
1,50,74,66
1,62,79,0
1,66,75,0
1,52,82,80
1,64,79,0
1,68,80,0
1,54,80,64
1,66,73,0
1,69,80,0
1,52,74,56
1,64,84,0
1,68,80,0
1,71,84,0
1,64,73,128
1,68,64,0
1,71,74,0
1,40,71,136
1,64,67,0
1,68,56,0
1,71,64,0
1,64,72,112
1,69,71,0
1,52,68,10
1,59,64,0
1,64,71,0
1,68,61,0
1,59,60,112
1,64,74,0
1,68,63,0
1,40,70,112
1,59,65,0
1,64,82,0
1,68,64,0
1,52,68,80
1,59,58,0
1,64,53,0
1,68,57,0
1,38,82,8
1,57,68,0
1,62,74,0
1,66,63,0
1,57,64,128
1,62,70,0
1,66,58,0
1,50,69,128
1,62,73,0
1,66,65,0
1,57,65,2
1,38,63,128
1,57,57,0
1,62,68,0
1,66,64,0
1,40,63,0
1,56,58,0
1,59,63,0
1,64,65,0
1,56,52,112
1,59,57,0
1,64,62,0
1,52,71,128
1,56,61,0
1,59,69,0
1,64,61,0
1,56,54,128
1,59,53,0
1,64,63,0
1,40,76,80
1,56,60,0
1,59,65,0
1,62,77,0
1,56,50,112
1,59,56,0
1,62,62,0
1,52,72,112
1,56,60,0
1,59,69,0
1,62,71,0
1,40,74,112
1,59,53,0
1,62,71,0
1,56,53,2
1,45,73,80
1,52,72,0
1,57,62,0
1,61,63,0
1,57,58,128
1,61,58,0
1,52,57,2
1,52,55,72
1,57,63,0
1,61,59,0
1,52,56,80
1,57,68,0
1,61,60,0
1,52,62,58
1,57,63,0
1,62,70,0
1,52,58,80
1,57,73,0
1,62,74,0
1,52,72,72
1,57,86,0
1,62,82,0
1,52,82,80
1,57,84,0
1,62,90,0
1,45,64,40
1,52,56,0
1,57,67,0
1,61,59,0
1,52,59,48
1,57,42,0
1,61,60,0
1,52,53,72
1,57,58,0
1,61,57,0
1,52,52,96
1,57,52,0
1,61,53,0
1,54,53,64
1,57,65,0
1,62,73,0
1,54,55,64
1,57,77,0
1,62,80,0
1,54,61,64
1,57,86,0
1,62,77,0
1,45,84,48
1,54,64,0
1,57,82,0
1,62,86,0
1,45,82,96
1,52,70,0
1,56,46,0
1,57,86,0
1,61,69,0
1,38,100,13440
1,50,72,0
1,38,80,16
1,50,72,256
1,38,73,32
1,50,86,0
1,38,84,32
1,50,100,256
1,38,88,16
1,50,84,256
1,38,79,0
1,50,82,0
1,38,86,16
1,50,84,256
1,38,79,8
1,50,95,256
1,38,90,26
1,50,88,10
1,38,86,128
1,50,74,8
1,38,82,128
1,50,79,240
1,38,86,122
1,50,92,248
1,38,90,16
1,50,86,256
1,38,82,96
1,50,80,6
1,38,86,130
1,50,95,16
1,62,90,0
1,66,106,0
1,38,92,2
1,69,92,0
1,62,97,192
1,66,118,0
1,69,106,0
1,50,86,2
1,38,95,10
1,50,100,0
1,38,84,0
1,50,95,256
1,38,76,16
1,50,92,32
1,38,88,16
1,62,76,0
1,66,100,0
1,69,88,0
1,59,100,16
1,64,106,0
1,68,106,0
1,50,100,2
1,38,100,0
1,50,92,0
1,38,95,8
1,50,95,0
1,38,92,0
1,50,103,26
1,38,100,8
1,59,90,0
1,64,84,0
1,69,90,0
1,50,88,30
1,61,106,0
1,64,92,0
