track,note,velocity,time
0,74,96,2390
0,86,73,0
0,74,78,0
0,38,108,0
0,42,90,0
0,36,127,0
0,42,90,2
0,62,96,2
0,81,73,0
0,69,78,0
0,45,109,0
0,42,90,0
0,42,90,2
0,74,96,2
0,86,73,0
0,74,78,0
0,38,110,0
0,42,90,0
0,36,127,0
0,42,90,2
0,62,96,2
0,81,73,0
0,69,78,0
0,45,111,0
0,42,90,0
0,42,90,2
0,74,96,2
0,86,73,0
0,74,78,0
0,38,112,0
0,42,90,0
0,36,127,0
0,42,90,2
0,62,96,2
0,81,73,0
0,69,78,0
0,45,109,0
0,42,90,0
0,42,90,2
0,74,96,2
0,86,73,0
0,74,78,0
0,38,111,0
0,42,90,0
0,36,127,0
0,42,90,2
0,62,96,2
0,82,73,0
0,70,78,0
0,46,111,0
0,42,90,0
0,42,90,2
0,74,96,2
0,86,73,0
0,74,78,0
0,38,108,0
0,42,90,0
0,36,127,0
0,42,90,2
0,62,96,2
0,82,73,0
0,70,78,0
0,46,112,0
0,42,90,0
0,42,90,2
0,74,96,2
0,86,73,0
0,74,78,0
0,38,110,0
0,42,90,0
0,36,127,0
0,42,90,2
0,62,96,2
0,82,73,0
0,70,78,0
0,46,108,0
0,42,90,0
0,42,90,2
0,74,96,2
0,86,73,0
0,74,78,0
0,38,108,0
0,42,90,0
0,36,127,0
0,42,90,2
0,62,96,2
0,82,73,0
0,70,78,0
0,46,111,0
0,42,90,0
0,42,90,2
0,74,96,2
0,86,73,0
0,74,78,0
0,38,109,0
0,42,90,0
0,36,127,0
0,42,90,2
0,62,96,2
0,81,73,0
0,69,78,0
0,45,111,0
0,42,90,0
0,42,90,2
0,74,96,2
0,86,73,0
0,74,78,0
0,38,108,0
0,42,90,0
0,36,127,0
0,42,90,2
0,62,96,2
0,81,73,0
0,69,78,0
0,45,113,0
0,42,90,0
0,42,90,2
0,74,96,2
0,86,73,0
0,74,78,0
0,38,111,0
0,42,90,0
0,36,127,0
0,42,90,2
0,62,96,2
0,81,73,0
0,69,78,0
0,45,110,0
0,42,90,0
0,42,90,2
0,74,96,2
0,86,73,0
0,74,78,0
0,38,110,0
0,42,90,0
0,36,127,0
0,42,90,2
0,62,96,2
0,81,73,0
0,69,78,0
0,45,109,0
0,42,90,0
0,42,90,2
0,74,96,2
0,86,73,0
0,74,78,0
0,38,111,0
0,42,90,0
0,36,127,0
0,42,90,2
0,62,96,2
0,82,73,0
0,70,78,0
0,46,112,0
0,42,90,0
0,42,90,2
0,74,96,2
0,86,73,0
0,74,78,0
0,38,111,0
0,42,90,0
0,36,127,0
0,42,90,2
0,62,96,2
0,82,73,0
0,70,78,0
0,46,108,0
0,42,90,0
0,42,90,2
0,74,96,2
0,86,73,0
0,74,78,0
0,38,108,0
0,42,90,0
0,36,127,0
0,42,90,2
0,62,96,2
0,82,73,0
0,70,78,0
0,46,111,0
0,42,90,0
0,42,90,2
0,74,96,2
0,86,73,0
0,74,78,0
0,38,108,0
0,42,90,0
0,36,127,0
0,42,90,2
0,62,96,2
0,82,73,0
0,70,78,0
0,46,112,0
0,42,90,0
0,42,90,2
0,74,96,2
0,86,73,0
0,74,78,0
0,38,109,0
0,42,90,0
0,36,127,0
0,42,90,94
0,62,96,2
0,81,73,0
0,69,78,0
0,45,111,0
0,42,90,0
0,42,90,2
0,74,96,2
0,86,73,0
0,74,78,0
0,57,87,0
0,57,87,0
0,38,112,0
0,42,90,0
0,36,127,0
0,42,90,2
0,62,96,2
0,81,73,0
0,69,78,0
0,59,87,0
0,59,87,0
0,45,109,0
0,42,90,0
0,42,90,2
0,74,96,2
0,86,73,0
0,74,78,0
0,62,87,0
0,62,87,0
0,38,110,0
0,42,90,0
0,36,127,0
0,42,90,2
0,62,96,2
0,81,73,0
0,69,78,0
0,66,87,0
0,66,87,0
0,45,110,0
0,42,90,0
0,42,90,2
0,74,96,2
0,86,73,0
0,74,78,0
0,38,109,0
0,42,90,0
0,36,127,0
0,42,90,2
0,62,96,2
0,81,73,0
0,69,78,0
0,45,110,0
0,42,90,0
0,42,90,2
0,74,96,2
0,86,73,0
0,74,78,0
0,38,109,0
0,42,90,0
0,36,127,0
0,42,90,2
0,62,96,2
0,82,73,0
0,70,78,0
0,46,108,0
0,42,90,0
0,42,90,2
0,74,96,2
0,86,73,0
0,74,78,0
0,38,112,0
0,42,90,0
0,36,127,0
0,42,90,2
0,62,96,2
0,82,73,0
0,70,78,0
0,46,108,0
0,42,90,0
0,42,90,2
0,74,96,2
0,86,73,0
0,74,78,0
0,66,87,0
0,66,87,0
0,38,109,0
0,42,90,0
0,36,127,0
0,42,90,2
0,62,96,2
0,82,73,0
0,70,78,0
0,64,87,0
0,64,87,0
0,46,111,0
0,42,90,0
0,42,90,2
0,74,96,2
0,86,73,0
0,74,78,0
0,66,87,0
0,66,87,0
0,38,108,0
0,42,90,0
0,36,127,0
0,42,90,2
0,62,96,2
0,82,73,0
0,70,78,0
0,64,87,0
0,64,87,0
0,46,110,0
0,42,90,0
0,42,90,2
0,74,96,2
0,86,73,0
0,74,78,0
0,62,87,0
0,62,87,0
0,38,108,0
0,42,90,0
0,36,127,0
0,42,90,2
0,62,96,2
0,81,73,0
0,69,78,0
0,45,111,0
0,42,90,0
0,42,90,2
0,74,96,2
0,86,73,0
0,74,78,0
0,57,87,0
0,57,87,0
0,38,108,0
0,42,90,0
0,36,127,0
0,42,90,2
0,62,96,2
0,81,73,0
0,69,78,0
0,59,87,0
0,59,87,0
0,45,109,0
0,42,90,0
0,42,90,2
0,74,96,2
0,86,73,0
0,74,78,0
0,62,87,0
0,62,87,0
0,38,110,0
0,42,90,0
0,36,127,0
0,42,90,2
0,62,96,2
0,81,73,0
0,69,78,0
0,66,87,0
0,66,87,0
0,45,108,0
0,42,90,0
0,42,90,2
0,74,96,2
0,86,73,0
0,74,78,0
0,38,108,0
0,42,90,0
0,36,127,0
0,42,90,2
0,62,96,2
0,81,73,0
0,69,78,0
0,45,112,0
0,42,90,0
0,42,90,2
0,74,96,2
0,86,73,0
0,74,78,0
0,38,111,0
0,42,90,0
0,36,127,0
0,42,90,2
0,62,96,2
0,82,73,0
0,70,78,0
0,46,109,0
0,42,90,0
0,42,90,2
0,74,96,2
0,86,73,0
0,74,78,0
0,38,111,0
0,42,90,0
0,36,127,0
0,42,90,2
0,62,96,2
0,82,73,0
0,70,78,0
0,46,111,0
0,42,90,0
0,42,90,2
0,74,96,2
0,86,73,0
0,74,78,0
0,66,87,0
0,66,87,0
0,38,111,0
0,42,90,0
0,36,127,0
0,42,90,2
0,62,96,2
0,82,73,0
0,70,78,0
0,64,87,0
0,64,87,0
0,46,109,0
0,42,90,0
0,42,90,2
0,74,96,2
0,86,73,0
0,74,78,0
0,66,87,0
0,66,87,0
0,38,108,0
0,38,127,0
0,36,127,0
0,62,96,2
0,82,73,0
0,70,78,0
0,64,87,0
0,64,87,0
0,46,109,0
0,74,96,2
0,86,73,0
0,74,78,0
0,62,87,0
0,62,87,0
0,38,112,0
0,38,127,0
0,36,127,0
0,62,96,2
0,81,73,0
0,69,78,0
0,45,110,0
0,74,100,2
0,78,100,0
0,81,100,0
0,69,110,0
0,69,110,0
0,50,112,0
0,42,90,0
0,49,127,0
0,36,127,0
0,74,100,2
0,78,100,0
0,81,100,0
0,50,108,0
0,42,90,0
0,74,100,2
0,78,100,0
0,81,100,0
0,74,110,0
0,74,110,0
0,50,111,0
0,42,90,0
0,38,127,0
0,74,100,2
0,78,100,0
0,81,100,0
0,50,109,0
0,42,90,0
0,36,127,0
0,74,100,2
0,78,100,0
0,81,100,0
0,73,110,0
0,73,110,0
0,50,108,0
0,42,90,0
0,36,127,0
0,74,100,2
0,78,100,0
0,81,100,0
0,74,110,0
0,74,110,0
0,50,110,0
0,42,90,0
0,74,100,2
0,78,100,0
0,81,100,0
0,76,110,0
0,76,110,0
0,50,108,0
0,42,90,0
0,38,127,0
0,74,100,2
0,78,100,0
0,81,100,0
0,78,110,0
0,78,110,0
0,50,109,0
0,42,90,0
0,36,127,0
0,74,100,2
0,78,100,0
0,81,100,0
0,50,108,0
0,42,90,0
0,36,127,0
0,74,100,2
0,78,100,0
0,81,100,0
0,50,108,0
0,42,90,0
0,74,100,2
0,78,100,0
0,81,100,0
0,74,110,0
0,74,110,0
0,50,110,0
0,42,90,0
0,38,127,0
0,74,100,2
0,78,100,0
0,81,100,0
0,74,110,0
0,74,110,0
0,50,110,0
0,42,90,0
0,36,127,0
0,74,100,2
0,78,100,0
0,81,100,0
0,73,110,0
0,73,110,0
0,50,109,0
0,42,90,0
0,36,127,0
0,74,100,2
0,78,100,0
0,81,100,0
0,74,110,0
0,74,110,0
0,50,109,0
0,42,90,0
0,74,100,2
0,78,100,0
0,81,100,0
0,73,110,0
0,73,110,0
0,50,109,0
0,42,90,0
0,38,127,0
0,74,100,2
0,78,100,0
0,81,100,0
0,71,110,0
0,71,110,0
0,50,110,0
0,42,90,0
0,36,127,0
0,74,100,2
0,79,100,0
0,83,100,0
0,43,109,0
0,42,90,0
0,36,127,0
0,74,100,2
0,79,100,0
0,83,100,0
0,43,110,0
0,42,90,0
0,71,96,2
0,74,96,0
0,74,100,0
0,79,100,0
0,83,100,0
0,43,110,0
0,42,90,0
0,38,127,0
0,71,96,2
0,74,96,0
0,74,100,0
0,79,100,0
0,83,100,0
0,43,111,0
0,42,90,0
0,36,127,0
0,71,96,2
0,76,96,0
0,74,100,0
0,79,100,0
0,83,100,0
0,43,108,0
0,42,90,0
0,36,127,0
0,71,96,2
0,74,96,0
0,74,100,0
0,79,100,0
0,83,100,0
0,43,109,0
0,42,90,0
0,71,96,2
0,74,96,0
0,74,100,0
0,79,100,0
0,83,100,0
0,43,109,0
0,42,90,0
0,38,127,0
0,71,96,2
0,74,96,0
0,74,100,0
0,79,100,0
0,83,100,0
0,43,110,0
0,42,90,0
0,36,127,0
0,74,100,2
0,79,100,0
0,83,100,0
0,43,108,0
0,42,90,0
0,36,127,0
0,74,100,2
0,79,100,0
0,83,100,0
0,43,109,0
0,42,90,0
0,71,96,2
0,74,96,0
0,79,96,0
0,74,100,0
0,79,100,0
0,83,100,0
0,43,110,0
0,42,90,0
0,38,127,0
0,71,96,2
0,74,96,0
0,79,96,0
0,74,100,0
0,79,100,0
0,83,100,0
0,43,112,0
0,42,90,0
0,36,127,0
0,71,96,2
0,74,96,0
0,78,96,0
0,74,100,0
0,79,100,0
0,83,100,0
0,43,111,0
0,42,90,0
0,36,127,0
0,71,96,2
0,74,96,0
0,74,100,0
0,79,100,0
0,83,100,0
0,43,110,0
0,42,90,0
0,71,96,2
0,74,96,0
0,74,100,0
0,79,100,0
0,83,100,0
0,43,111,0
0,42,90,0
0,38,127,0
0,71,96,2
0,74,96,0
0,74,100,0
0,79,100,0
0,83,100,0
0,43,109,0
0,42,90,0
0,36,127,0
0,74,100,2
0,78,100,0
0,81,100,0
0,69,110,0
0,69,110,0
0,50,109,0
0,42,90,0
0,36,127,0
0,74,100,2
0,78,100,0
0,81,100,0
0,50,111,0
0,42,90,0
0,74,100,2
0,78,100,0
0,81,100,0
0,74,110,0
0,74,110,0
0,50,110,0
0,42,90,0
0,38,127,0
0,74,100,2
0,78,100,0
0,81,100,0
0,50,112,0
0,42,90,0
0,36,127,0
0,74,100,2
0,78,100,0
0,81,100,0
0,73,110,0
0,73,110,0
0,50,108,0
0,42,90,0
0,36,127,0
0,74,100,2
0,78,100,0
0,81,100,0
0,74,110,0
0,74,110,0
0,50,109,0
0,42,90,0
0,74,100,2
0,78,100,0
0,81,100,0
0,76,110,0
0,76,110,0
0,50,109,0
0,42,90,0
0,38,127,0
0,74,100,2
0,78,100,0
0,81,100,0
0,78,110,0
0,78,110,0
0,50,110,0
0,42,90,0
0,36,127,0
0,74,100,2
0,78,100,0
0,81,100,0
0,50,111,0
0,42,90,0
0,36,127,0
0,74,100,2
0,78,100,0
0,81,100,0
0,50,108,0
0,42,90,0
0,74,100,2
0,78,100,0
0,81,100,0
0,74,110,0
0,74,110,0
0,50,112,0
0,42,90,0
0,38,127,0
0,74,100,2
0,78,100,0
0,81,100,0
0,74,110,0
0,74,110,0
0,50,113,0
0,42,90,0
0,36,127,0
0,74,100,2
0,78,100,0
0,81,100,0
0,73,110,0
0,73,110,0
0,50,108,0
0,42,90,0
0,36,127,0
0,74,100,2
0,78,100,0
0,81,100,0
0,74,110,0
0,74,110,0
0,50,112,0
0,42,90,0
0,74,100,2
0,78,100,0
0,81,100,0
0,73,110,0
0,73,110,0
0,50,112,0
0,42,90,0
0,38,127,0
0,74,100,2
0,78,100,0
0,81,100,0
0,71,110,0
0,71,110,0
0,50,108,0
0,42,90,0
0,36,127,0
0,74,100,2
0,79,100,0
0,83,100,0
0,43,112,0
0,42,90,0
0,36,127,0
0,74,100,2
0,79,100,0
0,83,100,0
0,43,111,0
0,42,90,0
0,71,96,2
0,74,96,0
0,74,100,0
0,79,100,0
0,83,100,0
0,43,111,0
0,42,90,0
0,38,127,0
0,71,96,2
0,74,96,0
0,74,100,0
0,79,100,0
0,83,100,0
0,43,109,0
0,42,90,0
0,36,127,0
0,71,96,2
0,76,96,0
0,74,100,0
0,79,100,0
0,83,100,0
0,43,109,0
0,42,90,0
0,36,127,0
0,71,96,2
0,74,96,0
0,74,100,0
0,79,100,0
0,83,100,0
0,43,111,0
0,42,90,0
0,71,96,2
0,74,96,0
0,74,100,0
0,79,100,0
0,83,100,0
0,43,109,0
0,42,90,0
0,38,127,0
0,71,96,2
0,74,96,0
0,74,100,0
0,79,100,0
0,83,100,0
0,43,111,0
0,42,90,0
0,36,127,0
0,74,100,2
0,79,100,0
0,83,100,0
0,43,112,0
0,42,90,0
0,36,127,0
0,74,100,2
0,79,100,0
0,83,100,0
0,43,110,0
0,42,90,0
0,71,96,2
0,74,96,0
0,79,96,0
0,74,100,0
0,79,100,0
0,83,100,0
0,43,111,0
0,42,90,0
0,38,127,0
0,71,96,2
0,74,96,0
0,79,96,0
0,74,100,0
0,79,100,0
0,83,100,0
0,43,110,0
0,42,90,0
0,36,127,0
0,71,96,2
0,74,96,0
0,78,96,0
0,74,100,0
0,79,100,0
0,83,100,0
0,43,110,0
0,42,90,0
0,36,127,0
0,71,96,2
0,74,96,0
0,74,100,0
0,79,100,0
0,83,100,0
0,43,110,0
0,42,90,0
0,71,96,2
0,74,96,0
0,74,100,0
0,79,100,0
0,83,100,0
0,43,108,0
0,42,90,0
0,38,127,0
0,71,96,2
0,74,96,0
0,74,100,0
0,79,100,0
0,83,100,0
0,43,112,0
0,42,90,0
0,36,127,0
0,86,73,2
0,74,78,0
0,74,100,0
0,78,100,0
0,81,100,0
0,69,110,0
0,69,110,0
0,38,108,0
0,42,90,0
0,49,127,0
0,36,127,0
0,81,73,2
0,69,78,0
0,74,100,0
0,78,100,0
0,81,100,0
0,71,110,0
0,71,110,0
0,45,109,0
0,42,90,0
0,86,73,2
0,74,78,0
0,74,100,0
0,78,100,0
0,81,100,0
0,74,110,0
0,74,110,0
0,38,110,0
0,42,90,0
0,38,127,0
0,81,73,2
0,69,78,0
0,74,100,0
0,78,100,0
0,81,100,0
0,78,110,0
0,78,110,0
0,45,109,0
0,42,90,0
0,36,127,0
0,86,73,2
0,74,78,0
0,74,100,0
0,78,100,0
0,81,100,0
0,38,111,0
0,42,90,0
0,36,127,0
0,81,73,2
0,69,78,0
0,74,100,0
0,78,100,0
0,81,100,0
0,45,108,0
0,42,90,0
0,86,73,2
0,74,78,0
0,74,100,0
0,78,100,0
0,81,100,0
0,38,112,0
0,42,90,0
0,38,127,0
0,81,73,2
0,69,78,0
0,74,100,0
0,78,100,0
0,81,100,0
0,45,111,0
0,42,90,0
0,36,127,0
0,86,73,2
0,74,78,0
0,74,100,0
0,78,100,0
0,82,100,0
0,38,111,0
0,42,90,0
0,36,127,0
0,82,73,2
0,70,78,0
0,74,100,0
0,78,100,0
