track,note,velocity,time
0,54,120,0
0,35,120,0
0,35,0,60
0,54,0,0
0,54,120,420
0,38,120,0
0,38,0,60
0,54,0,0
0,54,120,420
0,35,120,0
0,35,0,60
0,54,0,0
0,35,120,180
0,35,0,60
0,54,120,180
0,38,120,0
0,38,0,60
0,54,0,0
0,35,120,180
0,35,0,60
0,54,120,180
0,35,120,0
0,35,0,60
0,54,0,0
0,54,120,420
0,38,120,0
0,38,0,60
0,54,0,0
0,54,120,420
0,35,120,0
0,35,0,60
0,54,0,0
0,35,120,180
0,35,0,60
0,54,120,180
0,38,120,0
0,38,0,60
0,54,0,0
0,35,120,180
0,35,0,60
0,54,120,180
0,35,120,0
0,35,0,60
0,54,0,0
0,54,120,420
0,38,120,0
0,38,0,60
0,54,0,0
0,54,120,420
0,35,120,0
0,35,0,60
0,54,0,0
0,35,120,180
0,35,0,60
0,54,120,180
0,38,120,0
0,38,0,60
0,54,0,0
0,35,120,180
0,35,0,60
0,54,120,180
0,35,120,0
0,35,0,60
0,54,0,0
0,54,120,420
0,38,120,0
0,38,0,60
0,54,0,0
0,54,120,420
0,35,120,0
0,35,0,60
0,54,0,0
0,43,115,180
0,50,115,0
0,55,115,0
0,35,120,0
0,35,0,60
0,43,0,180
0,45,115,0
0,55,0,0
0,50,0,0
0,57,115,0
0,52,115,0
0,54,120,0
0,38,120,0
0,38,0,60
0,54,0,0
0,45,0,180
0,50,115,0
0,52,0,0
0,57,0,0
0,62,115,0
0,57,115,0
0,35,120,0
0,35,0,60
0,54,120,180
0,35,120,0
0,35,0,60
0,54,0,0
0,54,120,420
0,38,120,0
0,50,0,7
0,38,0,53
0,54,0,0
0,57,0,420
0,62,0,0
0,54,120,0
0,35,120,0
0,35,0,60
0,54,0,0
0,50,115,180
0,62,115,0
0,57,115,0
0,35,120,0
0,35,0,60
0,50,0,180
0,57,0,0
0,62,0,0
0,54,120,0
0,38,120,0
0,38,0,60
0,54,0,0
0,45,115,180
0,57,115,0
0,52,115,0
0,35,120,0
0,35,0,60
0,45,0,180
0,43,115,0
0,52,0,0
0,57,0,0
0,55,115,0
0,50,115,0
0,54,120,0
0,35,120,0
0,35,0,60
0,54,0,0
0,54,120,420
0,38,120,0
0,38,0,60
0,54,0,0
0,43,0,173
0,50,0,247
0,55,0,0
0,54,120,0
0,35,120,0
0,35,0,60
0,54,0,0
0,43,115,180
0,55,115,0
0,50,115,0
0,35,120,0
0,35,0,60
0,43,0,180
0,45,115,0
0,50,0,0
0,55,0,0
0,57,115,0
0,52,115,0
0,54,120,0
0,38,120,0
0,38,0,60
0,54,0,0
0,45,0,180
0,50,115,0
0,52,0,0
0,57,0,0
0,62,115,0
0,57,115,0
0,35,120,0
0,35,0,60
0,54,120,180
0,35,120,0
0,35,0,60
0,54,0,0
0,54,120,420
0,38,120,0
0,50,0,7
0,38,0,53
0,54,0,0
0,57,0,420
0,62,0,0
0,54,120,0
0,35,120,0
0,35,0,60
0,54,0,0
0,50,115,180
0,62,115,0
0,57,115,0
0,35,120,0
0,35,0,60
0,50,0,180
0,57,0,0
0,62,0,0
0,54,120,0
0,38,120,0
0,38,0,60
0,54,0,0
0,45,115,180
0,57,115,0
0,52,115,0
0,35,120,0
0,35,0,60
0,45,0,180
0,43,115,0
0,52,0,0
0,57,0,0
0,55,115,0
0,50,115,0
0,54,120,0
0,35,120,0
0,35,0,60
0,54,0,0
0,54,120,420
0,38,120,0
0,38,0,60
0,54,0,0
0,43,0,108
0,50,0,312
0,55,0,0
0,54,120,0
0,35,120,0
0,35,0,60
0,54,0,0
0,62,110,0
0,43,115,0
0,55,115,0
0,50,115,0
0,35,120,0
0,35,0,60
0,64,110,0
0,43,0,0
0,45,115,0
0,50,0,0
0,55,0,0
0,57,115,0
0,52,115,0
0,54,120,0
0,38,120,0
0,38,0,60
0,54,0,0
0,66,110,0
0,45,0,0
0,50,115,0
0,52,0,0
0,57,0,0
0,62,115,0
0,57,115,0
0,35,120,0
0,35,0,60
0,54,120,180
0,35,120,0
0,35,0,60
0,54,0,0
0,54,120,420
0,38,120,0
0,50,0,7
0,38,0,53
0,54,0,0
0,66,0,420
0,57,0,0
0,62,0,0
0,54,120,0
0,35,120,0
0,35,0,60
0,54,0,0
0,50,115,180
0,62,115,0
0,57,115,0
0,35,120,0
0,35,0,60
0,57,110,0
0,50,0,0
0,57,0,0
0,62,0,0
0,54,120,0
0,38,120,0
0,38,0,60
0,54,0,0
0,59,110,0
0,45,115,0
0,57,115,0
0,52,115,0
0,35,120,0
0,35,0,60
0,45,0,180
0,43,115,0
0,52,0,0
0,57,0,0
0,55,115,0
0,50,115,0
0,54,120,0
0,35,120,0
0,35,0,60
0,54,0,0
0,54,120,420
0,38,120,0
0,38,0,60
0,54,0,0
0,43,0,147
0,59,0,273
0,50,0,0
0,55,0,0
0,54,120,0
0,35,120,0
0,35,0,60
0,54,0,0
0,43,115,180
0,55,115,0
0,50,115,0
0,35,120,0
0,35,0,60
0,62,110,0
0,43,0,0
0,45,115,0
0,50,0,0
0,55,0,0
0,57,115,0
0,52,115,0
0,54,120,0
0,38,120,0
0,38,0,60
0,54,0,0
0,64,110,0
0,45,0,0
0,50,115,0
0,52,0,0
0,57,0,0
0,62,115,0
0,57,115,0
0,35,120,0
0,35,0,60
0,66,110,0
0,54,120,0
0,35,120,0
0,35,0,60
0,54,0,0
0,65,110,0
0,66,110,0
0,54,120,0
0,38,120,0
0,50,0,19
0,38,0,41
0,54,0,0
0,65,110,0
0,66,110,0
0,45,115,0
0,57,0,0
0,62,0,0
0,54,120,0
0,35,120,0
0,35,0,60
0,54,0,0
0,57,110,0
0,45,0,0
0,45,115,0
0,62,115,0
0,57,115,0
0,35,120,0
0,35,0,60
0,57,0,180
0,62,0,0
0,54,120,0
0,38,120,0
0,38,0,60
0,54,0,0
0,59,110,0
0,45,0,0
0,43,115,0
0,57,115,0
0,52,115,0
0,35,120,0
0,35,0,60
0,52,0,180
0,57,0,0
0,55,115,0
0,50,115,0
0,54,120,0
0,35,120,0
0,35,0,60
0,54,0,0
0,54,120,420
0,38,120,0
0,38,0,60
0,54,0,0
0,43,0,179
0,59,0,241
0,50,0,0
0,55,0,0
0,54,120,0
0,35,120,0
0,35,0,60
0,54,0,0
0,62,110,0
0,43,115,0
0,55,115,0
0,50,115,0
0,35,120,0
0,35,0,60
0,64,110,0
0,43,0,0
0,45,115,0
0,50,0,0
0,55,0,0
0,57,115,0
0,52,115,0
0,54,120,0
0,38,120,0
0,38,0,60
0,54,0,0
0,66,110,0
0,45,0,0
0,50,115,0
0,52,0,0
0,57,0,0
0,62,115,0
0,57,115,0
0,35,120,0
0,35,0,60
0,54,120,180
0,35,120,0
0,35,0,60
0,54,0,0
0,54,120,420
0,38,120,0
0,50,0,7
0,38,0,53
0,54,0,0
0,66,0,420
0,57,0,0
0,62,0,0
0,54,120,0
0,35,120,0
0,35,0,60
0,54,0,0
0,50,115,180
0,62,115,0
0,57,115,0
0,35,120,0
0,35,0,60
0,57,110,0
0,50,0,0
0,57,0,0
0,62,0,0
0,54,120,0
0,38,120,0
0,38,0,60
0,54,0,0
0,59,110,0
0,45,115,0
0,57,115,0
0,52,115,0
0,35,120,0
0,35,0,60
0,45,0,180
0,43,115,0
0,52,0,0
0,57,0,0
0,55,115,0
0,50,115,0
0,54,120,0
0,35,120,0
0,35,0,60
0,54,0,0
0,54,120,420
0,38,120,0
0,38,0,60
0,54,0,0
0,43,0,160
0,59,0,20
0,50,0,240
0,55,0,0
0,54,120,0
0,35,120,0
0,35,0,60
0,54,0,0
0,43,115,180
0,55,115,0
0,50,115,0
0,35,120,0
0,35,0,60
0,62,110,0
0,43,0,0
0,45,115,0
0,50,0,0
0,55,0,0
0,57,115,0
0,52,115,0
0,54,120,0
0,38,120,0
0,38,0,60
0,54,0,0
0,64,110,0
0,45,0,0
0,50,115,0
0,52,0,0
0,57,0,0
0,62,115,0
0,57,115,0
0,35,120,0
0,35,0,60
0,66,110,0
0,54,120,0
0,35,120,0
0,35,0,60
0,54,0,0
0,65,110,0
0,66,110,0
0,54,120,0
0,38,120,0
0,50,0,19
0,38,0,41
0,54,0,0
0,65,110,0
0,66,110,0
0,45,115,0
0,57,0,0
0,62,0,0
0,54,120,0
0,35,120,0
0,35,0,60
0,54,0,0
0,57,110,0
0,45,0,0
0,45,115,0
0,62,115,0
0,57,115,0
0,35,120,0
0,35,0,60
0,57,0,180
0,62,0,0
0,54,120,0
0,38,120,0
0,38,0,60
0,54,0,0
0,59,110,0
0,45,0,0
0,43,115,0
0,57,115,0
0,52,115,0
0,35,120,0
0,35,0,60
0,52,0,180
0,57,0,0
0,55,115,0
0,50,115,0
0,54,120,0
0,35,120,0
0,35,0,60
0,54,0,0
0,43,0,180
0,43,115,0
0,43,0,240
0,43,115,0
0,54,120,0
0,38,120,0
0,38,0,60
0,54,0,0
0,43,0,180
0,43,115,0
0,38,120,160
0,38,0,60
0,59,0,20
0,43,0,0
0,43,115,0
0,50,0,0
0,55,0,0
0,54,120,0
0,38,120,0
0,38,0,60
0,54,0,0
0,62,110,0
0,66,110,0
0,43,0,0
0,43,115,0
0,54,105,0
0,50,105,0
0,43,127,0
0,43,0,60
0,67,110,0
0,64,110,0
0,43,0,0
0,43,115,0
0,50,0,0
0,54,0,0
0,55,105,0
0,52,105,0
0,54,120,0
0,38,120,0
0,38,0,60
0,54,0,0
0,38,127,100
0,38,0,60
0,69,110,0
0,66,110,0
0,43,0,0
0,43,115,0
0,52,0,0
0,55,0,0
0,54,105,0
0,57,105,0
0,35,120,0
0,38,127,0
0,38,0,60
0,35,0,0
0,43,0,180
0,38,115,0
0,49,127,0
0,54,120,0
0,35,120,0
0,35,0,60
0,54,0,0
0,49,0,0
0,38,0,420
0,54,115,0
0,50,115,0
0,54,120,0
0,38,120,0
0,38,0,60
0,54,0,0
0,50,0,180
0,54,0,0
0,38,115,0
0,66,0,240
0,69,0,0
0,38,0,0
0,38,115,0
0,54,120,0
0,35,120,0
0,35,0,60
0,54,0,0
0,35,120,180
0,35,0,60
0,57,0,154
0,54,0,0
0,69,110,0
0,66,110,0
0,38,0,0
0,54,115,0
0,50,115,0
0,57,105,0
0,54,105,0
0,54,120,0
0,38,120,0
0,38,0,60
0,54,0,0
0,69,110,0
0,64,110,0
0,54,0,0
0,57,0,0
0,52,105,0
0,57,105,0
0,35,120,0
0,35,0,60
0,50,0,180
0,54,0,0
0,45,115,0
0,54,120,0
0,35,120,0
0,35,0,60
0,54,0,0
0,69,110,0
0,64,110,0
0,57,0,201
0,52,0,0
0,67,110,0
0,64,110,0
0,45,0,0
0,52,115,0
0,49,115,0
0,52,105,0
0,55,105,0
0,54,120,0
0,38,120,0
0,38,0,60
0,54,0,0
0,67,110,0
0,64,110,0
0,49,0,0
0,52,0,0
0,45,115,0
0,55,0,201
0,52,0,0
0,66,110,0
0,62,110,0
0,45,0,0
0,45,115,0
0,54,105,0
0,50,105,0
0,54,120,0
0,35,120,0
0,35,0,60
0,54,0,0
0,64,110,0
0,61,110,0
0,45,0,0
0,45,115,0
0,50,0,0
0,54,0,0
0,52,105,0
0,49,105,0
0,35,120,0
0,35,0,60
0,54,120,180
0,38,120,0
0,38,0,60
0,54,0,0
0,67,110,0
0,64,110,0
0,49,0,0
0,52,0,0
0,52,105,0
0,55,105,0
0,35,120,0
0,35,0,60
0,45,0,180
0,36,115,0
0,54,120,0
0,35,120,0
0,35,0,60
0,54,0,0
0,54,120,420
0,38,120,0
0,38,0,60
0,54,0,0
0,36,0,180
0,43,115,0
0,43,0,240
0,36,115,0
0,54,120,0
0,35,120,0
0,35,0,60
0,54,0,0
0,35,120,180
0,35,0,60
0,36,0,180
0,36,115,0
0,54,120,0
0,38,120,0
0,38,0,60
0,54,0,0
0,69,110,0
0,35,120,0
0,35,0,60
0,67,110,0
0,55,0,81
0,52,0,0
0,64,110,0
0,59,110,0
0,36,0,0
0,40,115,0
0,52,105,0
0,59,105,0
0,54,120,0
0,35,120,0
0,35,0,60
0,54,0,0
0,40,0,420
0,55,115,0
0,52,115,0
0,54,120,0
0,38,120,0
0,38,0,60
0,54,0,0
0,52,0,180
0,55,0,0
0,40,115,0
0,59,0,240
0,64,0,0
0,40,0,0
0,40,115,0
0,54,120,0
0,35,120,0
0,35,0,60
0,54,0,0
0,59,0,147
0,52,0,0
0,67,110,0
0,64,110,0
0,55,105,0
0,52,105,0
0,35,120,0
0,35,0,60
0,69,110,0
0,66,110,0
0,40,0,0
0,55,115,0
0,52,115,0
0,52,0,0
0,55,0,0
0,57,105,0
0,54,105,0
0,54,120,0
0,38,120,0
0,38,0,60
0,54,0,0
0,71,110,0
0,67,110,0
0,54,0,0
0,57,0,0
0,59,105,0
0,55,105,0
0,35,120,0
0,35,0,60
0,52,0,180
0,55,0,0
0,43,115,0
0,54,120,0
0,35,120,0
0,35,0,60
0,54,0,0
0,43,0,420
0,55,115,0
0,54,120,0
0,38,120,0
0,38,0,60
0,54,0,0
0,55,0,180
0,43,115,0
0,67,0,240
0,71,0,0
0,43,0,0
0,43,115,0
0,54,120,0
0,35,120,0
0,35,0,60
0,54,0,0
0,55,0,147
0,59,0,0
0,71,110,0
0,67,110,0
0,43,0,0
0,43,115,0
0,55,105,0
0,59,105,0
0,35,120,0
0,35,0,60
0,67,0,180
0,71,0,0
0,71,110,0
0,67,110,0
0,54,120,0
0,38,120,0
0,38,0,60
0,54,0,0
0,71,110,0
0,67,110,0
0,35,120,0
0,35,0,60
0,43,0,180
0,43,115,0
0,54,120,0
0,35,120,0
0,35,0,60
0,54,0,0
0,59,0,134
0,55,0,0
0,69,110,0
0,66,110,0
0,57,105,0
0,54,105,0
0,66,0,240
0,69,0,0
0,67,110,0
0,64,110,0
0,43,0,0
0,55,115,0
0,54,0,0
0,57,0,0
0,52,105,0
0,55,105,0
0,54,120,0
0,38,120,0
0,38,0,60
0,54,0,0
0,64,110,0
0,67,110,0
0,55,0,0
0,43,115,0
0,38,120,160
0,38,0,60
0,55,0,7
0,52,0,0
0,67,0,13
0,64,0,0
0,62,110,0
0,66,110,0
0,43,0,0
0,43,115,0
0,54,105,0
0,50,105,0
0,54,120,0
0,38,120,0
0,38,0,60
0,54,0,0
0,66,0,180
0,62,0,0
0,62,110,0
0,66,110,0
0,43,0,0
0,43,115,0
0,43,127,0
0,43,0,60
0,54,120,180
0,38,120,0
0,38,0,60
0,54,0,0
0,38,127,100
0,38,0,60
0,43,0,20
0,43,115,0
0,35,120,0
0,38,127,0
0,38,0,60
0,35,0,0
0,62,0,100
0,50,0,54
0,54,0,0
0,66,110,0
0,62,110,0
0,43,0,0
0,50,115,0
0,50,105,0
0,54,105,0
0,54,120,0
0,49,127,0
0,35,120,0
0,66,127,0
0,62,127,0
0,35,0,60
0,49,0,0
0,54,0,0
0,54,120,420
0,38,120,0
0,38,0,60
0,54,0,0
0,64,110,0
0,61,110,0
0,50,0,0
0,45,115,0
0,54,0,0
0,50,0,0
0,49,105,0
0,52,105,0
0,62,0,0
0,66,0,0
0,64,127,0
0,61,127,0
0,45,0,240
0,45,115,0
0,54,120,0
0,35,120,0
0,35,0,60
0,54,0,0
0,45,0,180
0,45,115,0
0,35,120,0
0,35,0,60
0,54,120,180
0,38,120,0
0,38,0,60
0,54,0,0
0,66,110,0
0,35,120,0
0,61,0,0
0,64,0,0
0,66,127,0
0,35,0,60
0,66,0,60
0,64,110,0
0,66,0,0
0,64,127,0
0,52,0,107
0,49,0,0
0,62,110,0
0,59,110,0
0,45,0,0
0,43,115,0
0,50,105,0
0,59,105,0
0,54,120,0
0,35,120,0
0,64,0,0
0,62,127,0
0,59,127,0
0,35,0,60
0,54,0,0
0,43,0,420
0,43,115,0
0,54,120,0
0,38,120,0
0,38,0,60
0,54,0,0
0,59,0,420
0,62,0,0
0,43,0,0
0,53,115,0
0,54,120,0
0,35,120,0
0,59,0,0
