track,note,velocity,time
0,50,118,467
0,77,106,3
0,57,96,0
0,74,116,8
0,62,116,0
0,62,116,0
0,57,0,888
0,73,106,36
0,57,122,8
0,61,106,4
0,61,106,0
0,50,0,9
0,77,0,3
0,76,116,4
0,74,0,4
0,62,0,0
0,62,0,0
0,45,100,4
0,73,0,920
0,74,114,0
0,76,0,28
0,45,0,8
0,50,120,8
0,57,88,8
0,53,112,0
0,57,88,0
0,69,88,8
0,57,0,8
0,61,0,4
0,61,0,0
0,74,0,404
0,45,94,8
0,57,108,12
0,73,106,12
0,50,0,12
0,57,0,8
0,53,0,0
0,57,0,0
0,69,0,8
0,76,116,4
0,61,106,0
0,61,106,0
0,57,0,372
0,45,0,48
0,57,118,4
0,50,116,0
0,73,0,20
0,74,120,8
0,77,108,12
0,76,0,12
0,62,120,0
0,62,120,0
0,61,0,60
0,61,0,0
0,57,0,364
0,61,108,12
0,61,108,0
0,57,124,4
0,74,0,12
0,77,0,12
0,79,106,0
0,73,108,4
0,45,94,0
0,62,0,8
0,62,0,0
0,50,0,8
0,61,0,428
0,61,0,0
0,57,0,4
0,53,127,4
0,74,120,4
0,77,108,4
0,62,120,4
0,62,120,0
0,79,0,8
0,73,0,4
0,46,127,8
0,45,0,52
0,57,83,380
0,57,0,236
0,62,94,52
0,65,99,200
0,62,0,36
0,65,0,140
0,65,78,56
0,62,80,16
0,65,0,700
0,61,104,0
0,61,104,0
0,62,0,16
0,73,104,0
0,74,0,4
0,77,0,4
0,62,0,4
0,57,116,0
0,62,0,0
0,45,124,12
0,46,0,8
0,76,116,4
0,53,0,24
0,57,97,428
0,57,0,236
0,61,83,12
0,64,97,212
0,61,0,24
0,64,0,212
0,61,80,32
0,64,92,4
0,61,0,200
0,61,0,0
0,73,0,16
0,57,0,12
0,45,0,12
0,76,0,12
0,62,114,436
0,62,114,0
0,50,126,20
0,61,0,4
0,64,0,4
0,77,106,8
0,57,122,8
0,74,114,4
0,62,83,452
0,65,84,4
0,62,0,452
0,64,110,0
0,62,0,0
0,64,110,0
0,62,0,20
0,60,127,0
0,50,0,0
0,65,0,4
0,48,124,8
0,77,0,4
0,57,0,8
0,74,0,4
0,79,102,8
0,76,110,8
0,64,0,412
0,64,0,0
0,53,112,12
0,60,0,8
0,65,112,8
0,65,112,0
0,48,0,4
0,81,116,12
0,79,0,12
0,60,127,0
0,76,0,8
0,77,112,4
0,79,110,420
0,65,0,16
0,65,0,0
0,62,120,4
0,46,127,4
0,81,0,8
0,77,116,4
0,65,116,8
0,60,0,0
0,65,116,0
0,77,0,12
0,53,0,64
0,62,92,384
0,67,70,28
0,79,0,424
0,48,127,12
0,76,126,8
0,79,112,0
0,62,0,4
0,46,0,0
0,64,126,4
0,64,126,0
0,77,0,8
0,65,0,8
0,60,127,0
0,65,0,0
0,67,0,8
0,62,0,28
0,67,73,404
0,64,94,36
0,67,0,440
0,77,102,4
0,48,0,4
0,60,88,4
0,60,88,0
0,79,0,4
0,76,0,0
0,57,118,0
0,64,0,8
0,53,94,0
0,64,0,0
0,72,88,4
0,64,0,8
0,60,0,4
0,41,68,16
0,65,80,428
0,60,96,28
0,65,0,928
0,60,0,28
0,53,104,468
0,57,120,8
0,53,104,24
0,57,120,8
0,53,0,72
0,57,0,8
0,53,0,24
0,57,0,8
0,60,118,88
0,57,116,12
0,60,118,20
0,57,116,12
0,60,0,12
0,57,0,12
0,60,0,20
0,57,0,12
0,53,108,20
0,57,116,16
0,53,108,16
0,57,116,16
0,53,0,64
0,57,0,16
0,53,0,16
0,57,0,16
0,60,116,80
0,57,118,8
0,60,116,24
0,57,118,8
0,60,0,16
0,57,0,8
0,60,0,24
0,57,0,8
0,53,96,24
0,57,116,16
0,53,96,16
0,57,116,16
0,53,0,64
0,57,0,16
0,53,0,16
0,57,0,16
0,53,64,80
0,57,70,8
0,53,64,24
0,57,70,8
0,53,0,72
0,57,0,8
0,53,0,24
0,57,0,8
0,53,108,88
0,57,118,12
0,53,108,20
0,57,118,12
0,53,0,68
0,57,0,12
0,53,0,20
0,57,0,12
0,77,0,68
0,60,0,8
0,60,0,0
0,57,0,4
0,53,64,4
0,53,0,4
0,72,0,4
0,41,127,4
0,57,74,0
0,38,127,4
0,40,121,0
0,53,64,16
0,41,0,4
0,57,74,8
0,53,0,68
0,38,0,12
0,41,0,0
0,57,0,0
0,40,0,4
0,53,0,16
0,57,0,12
0,53,116,84
0,57,127,16
0,53,116,16
0,57,127,16
0,53,0,64
0,57,0,16
0,53,0,16
0,57,0,16
0,57,96,72
0,50,118,8
0,62,116,4
0,62,116,0
0,36,95,12
0,49,79,0
0,55,84,0
0,38,127,4
0,36,0,4
0,62,104,8
0,74,116,8
0,77,106,4
0,65,116,0
0,62,0,18
0,65,0,6
0,42,84,42
0,42,0,12
0,69,104,8
0,65,114,8
0,38,0,24
0,69,0,24
0,65,0,8
0,62,106,56
0,65,116,16
0,36,93,84
0,36,0,8
0,42,127,0
0,38,122,0
0,38,127,4
0,62,0,0
0,42,0,4
0,65,0,12
0,38,0,84
0,69,116,28
0,65,118,12
0,69,0,44
0,65,0,12
0,42,92,40
0,42,0,8
0,62,114,4
0,65,116,8
0,38,0,28
0,62,0,76
0,65,0,8
0,57,0,76
0,61,106,8
0,50,0,0
0,61,106,0
0,62,0,4
0,62,0,0
0,45,100,4
0,36,94,8
0,73,106,0
0,42,127,4
0,36,0,4
0,57,122,0
0,38,127,0
0,42,0,4
0,76,116,8
0,57,48,0
0,74,0,4
0,77,0,4
0,61,58,0
0,57,0,104
0,61,0,8
0,42,92,108
0,42,0,8
0,57,94,4
0,61,102,8
0,64,120,8
0,38,0,16
0,57,0,80
0,61,0,8
0,64,0,8
0,36,95,92
0,42,127,0
0,38,101,8
0,38,127,0
0,42,0,4
0,36,0,0
0,57,50,8
0,61,50,12
0,64,72,8
0,38,0,64
0,57,0,28
0,61,0,12
0,64,0,8
0,46,127,88
0,57,98,20
0,61,100,12
0,64,120,4
0,38,0,16
0,46,0,28
0,57,0,52
0,61,0,12
0,64,0,4
0,50,120,76
0,45,0,4
0,73,0,8
0,53,112,0
0,55,0,4
0,49,0,0
0,42,127,0
0,36,95,4
0,57,0,0
0,38,127,0
0,42,0,4
0,74,114,4
0,36,0,4
0,76,0,0
0,62,108,4
0,69,88,4
0,57,88,0
0,57,88,0
0,65,116,8
0,61,0,8
0,61,0,0
0,62,0,92
0,65,0,12
0,42,84,96
0,42,0,12
0,69,112,8
0,65,116,8
0,38,0,20
0,69,0,28
0,65,0,8
0,62,118,56
0,65,120,16
0,61,106,64
0,61,106,0
0,53,0,12
0,57,108,4
0,45,94,0
0,36,95,4
0,42,127,4
0,38,101,0
0,38,127,0
0,36,0,4
0,74,0,0
0,42,0,4
0,76,116,0
0,62,0,0
0,69,0,8
0,57,0,0
0,57,0,0
0,65,0,8
0,73,106,4
0,50,0,8
0,38,0,64
0,57,88,36
0,61,102,8
0,57,0,48
0,61,0,8
0,42,92,40
0,42,0,8
0,61,106,8
0,64,124,12
0,38,0,16
0,61,0,84
0,64,0,12
0,62,120,72
0,62,120,0
0,74,120,4
0,50,116,4
0,57,0,8
0,36,95,8
0,42,127,8
0,76,0,0
0,38,127,0
0,36,0,4
0,77,108,0
0,57,118,0
0,42,0,4
0,62,66,4
0,73,0,8
0,65,68,0
0,61,0,8
0,61,0,0
0,45,0,16
0,62,0,80
0,65,0,8
0,42,92,100
0,42,0,8
0,62,118,12
0,65,120,12
0,38,0,20
0,62,0,80
0,65,0,12
0,74,0,72
0,45,94,16
0,42,127,12
0,38,127,0
0,73,108,0
0,38,127,0
0,36,95,4
0,77,0,0
0,61,108,0
0,57,0,0
0,61,108,0
0,42,0,8
0,36,0,4
0,61,56,0
0,79,106,4
0,57,124,4
0,62,0,4
0,64,76,0
0,62,0,0
0,50,0,8
0,38,0,44
0,61,0,48
0,64,0,12
0,46,127,96
0,61,108,20
0,64,126,8
0,38,0,20
0,46,0,32
0,61,0,52
0,64,0,8
0,53,127,88
0,46,127,0
0,62,120,8
0,62,120,0
0,73,0,4
0,36,95,4
0,61,0,0
0,61,0,0
0,42,127,4
0,34,127,0
0,36,0,4
0,74,120,0
0,77,108,0
0,42,0,4
0,79,0,4
0,58,118,0
0,57,0,4
0,62,118,0
0,45,0,4
0,58,0,8
0,62,0,12
0,42,84,84
0,42,0,12
0,65,118,0
0,62,116,12
0,34,0,20
0,65,0,24
0,62,0,12
0,58,118,52
0,62,118,12
0,36,93,88
0,42,127,0
0,42,0,8
0,36,0,0
0,38,122,0
0,57,66,4
0,34,127,0
0,58,0,0
0,62,0,12
0,38,0,88
0,65,116,28
0,62,118,8
0,65,0,48
0,62,0,8
0,42,88,44
0,57,0,0
0,42,0,8
0,58,118,4
0,62,75,8
0,62,116,4
0,34,0,24
0,58,0,76
0,62,0,12
0,36,94,96
0,36,0,8
0,42,127,0
0,34,127,0
0,42,0,8
0,65,79,0
0,58,62,4
0,62,0,4
0,62,62,12
0,58,0,96
0,62,0,16
0,65,0,44
0,62,64,24
0,65,62,20
0,42,72,12
0,42,0,8
0,58,116,4
0,62,118,8
0,34,0,24
0,58,0,80
0,62,0,8
0,36,95,100
0,38,101,4
0,42,127,4
0,34,127,0
0,36,0,4
0,42,0,8
0,58,68,0
0,62,68,12
0,38,0,68
0,58,0,32
0,62,0,12
0,42,96,96
0,42,0,12
0,58,116,8
0,62,118,12
0,34,0,20
0,58,0,80
0,62,0,12
0,62,0,68
0,53,0,12
0,46,0,0
0,45,124,0
0,65,0,8
0,76,116,0
0,73,104,4
0,36,95,8
0,33,127,0
0,42,127,4
0,77,0,0
0,74,0,0
0,42,0,8
0,36,0,0
0,57,104,4
0,57,116,4
0,61,104,4
0,61,106,0
0,61,104,0
0,62,0,8
0,62,0,0
0,57,0,8
0,61,0,8
0,42,84,100
0,42,0,12
0,64,116,8
0,61,100,12
0,33,0,16
0,64,0,28
0,61,0,12
0,57,106,52
0,61,104,16
0,57,77,72
0,36,95,16
0,38,101,0
0,33,127,0
0,36,0,8
0,42,127,0
0,57,0,0
0,42,0,8
0,61,0,8
0,38,0,76
0,64,116,36
0,61,100,8
0,64,0,48
0,61,0,8
0,57,0,20
0,42,92,20
0,42,0,8
0,57,106,8
0,61,66,4
0,61,104,12
0,33,0,12
0,57,0,84
0,61,0,16
0,64,77,88
0,36,95,8
0,33,127,4
0,42,127,4
0,36,0,4
0,42,0,4
0,61,0,0
0,57,60,0
0,61,64,8
0,57,0,104
0,61,0,8
0,64,0,32
0,64,73,48
0,42,92,28
0,42,0,8
0,57,102,4
0,61,64,8
0,61,116,4
0,33,0,20
0,57,0,80
0,61,0,12
0,45,0,76
0,76,0,8
0,73,0,4
0,36,95,12
0,33,127,0
0,42,127,4
0,38,127,0
0,36,0,8
0,42,0,4
0,57,0,0
0,57,50,0
0,61,0,4
0,61,0,0
0,61,66,12
0,38,0,52
0,57,0,44
0,61,0,16
0,46,127,100
0,57,102,12
0,61,116,8
0,33,0,20
0,46,0,40
0,57,0,44
0,61,0,8
0,64,0,76
0,62,114,4
0,62,114,0
0,57,122,16
0,50,126,0
0,36,95,8
0,42,127,4
0,38,127,0
0,36,0,4
0,42,0,4
0,74,114,0
0,77,106,4
0,62,114,0
0,61,0,4
0,65,116,4
0,62,0,4
0,65,0,12
0,42,84,100
0,42,0,12
0,69,112,4
0,65,116,8
0,38,0,24
0,69,0,24
0,65,0,8
0,62,116,56
0,65,118,16
0,57,60,68
0,36,93,16
0,42,127,4
0,38,122,0
0,36,0,4
0,42,0,4
0,38,127,0
0,62,0,0
0,65,0,16
0,65,67,4
0,38,0,76
0,69,118,32
0,65,118,12
0,69,0,44
0,65,0,12
0,42,88,32
0,42,0,8
0,62,116,12
0,65,118,16
0,38,0,20
0,62,0,76
0,65,0,16
0,48,124,68
0,57,0,4
0,50,0,12
0,36,94,8
0,79,102,4
0,36,127,0
0,36,0,4
0,42,127,0
0,74,0,0
0,77,0,4
0,42,0,4
0,60,48,0
0,65,0,8
0,60,127,0
0,76,110,4
0,64,68,0
0,64,110,4
0,64,110,0
0,57,0,4
0,62,0,28
0,62,0,0
0,60,0,24
0,64,0,12
0,42,72,96
0,42,0,8
0,60,108,12
0,64,118,8
0,36,0,24
0,60,0,80
0,64,0,8
0,60,0,64
0,65,112,16
0,65,112,0
0,42,127,20
0,38,101,0
0,36,95,4
0,79,0,0
0,53,112,0
0,29,127,4
0,42,0,4
0,60,127,0
0,36,0,4
0,60,66,4
0,81,116,4
0,76,0,4
0,64,0,4
0,48,0,0
0,65,68,0
0,64,0,0
0,77,112,4
0,38,0,12
0,60,0,16
0,65,0,0
0,42,96,28
0,42,0,8
0,60,110,4
0,65,118,12
0,29,0,20
0,60,0,80
0,65,0,12
0,65,0,12
0,65,0,0
0,65,116,56
0,65,116,0
0,79,110,16
0,62,120,0
0,36,95,16
0,34,127,0
0,60,0,4
0,42,127,4
0,36,0,4
0,81,0,4
0,58,118,0
0,42,0,4
0,62,120,4
0,77,0,4
0,77,116,0
0,46,127,0
0,53,0,12
0,58,0,4
0,62,0,8
0,42,60,100
0,42,0,8
0,65,116,12
0,62,116,12
0,34,0,16
0,65,0,28
0,62,0,12
0,58,114,52
0,62,120,12
0,36,95,88
0,42,127,4
0,38,101,0
0,34,127,0
0,36,0,4
0,58,0,4
0,42,0,4
0,67,56,8
0,62,0,0
0,58,70,12
0,38,0,68
0,65,116,36
0,62,118,8
0,65,0,48
0,62,0,8
0,42,84,40
0,42,0,8
0,58,120,8
0,62,122,16
0,34,0,12
0,58,0,84
0,62,0,16
0,65,0,60
0,65,0,0
0,79,0,16
0,64,126,0
0,64,126,0
0,60,127,8
0,42,127,8
0,36,95,4
0,42,0,4
0,36,127,0
0,36,0,8
0,67,0,4
0,60,66,0
0,48,127,4
0,77,0,4
0,76,126,0
0,46,0,0
0,64,68,0
0,58,0,4
0,79,112,0
0,62,0,12
0,60,0,64
0,64,0,8
0,42,78,104
0,42,0,8
0,60,118,8
0,64,118,12
0,36,0,20
0,60,0,80
0,64,0,12
0,60,75,80
0,38,127,16
0,36,127,4
0,36,95,4
0,42,127,0
0,67,58,8
0,42,0,4
0,36,0,0
0,60,78,0
0,64,70,12
0,38,0,48
0,60,0,52
0,64,0,12
0,46,127,104
0,60,114,12
0,64,106,8
0,36,0,20
0,46,0,40
0,60,0,44
0,64,0,8
0,60,0,80
0,60,0,8
0,77,102,4
0,57,118,4
0,53,94,4
0,36,95,8
0,29,127,0
0,42,127,4
0,67,0,0
0,72,88,0
0,36,0,4
0,48,0,4
0,53,106,0
0,42,0,4
0,76,0,0
0,79,0,4
0,60,88,0
0,41,68,0
0,60,88,0
0,57,118,0
0,64,0,4
0,64,0,0
0,53,0,4
0,57,0,16
0,42,78,76
0,42,0,8
0,60,116,8
0,57,116,12
0,29,0,20
0,60,0,24
0,57,0,12
0,53,100,52
0,57,116,8
0,65,64,84
0,38,122,8
0,36,93,4
0,42,127,0
0,42,0,8
0,36,0,0
0,29,127,0
0,53,0,0
0,57,60,8
0,57,0,0
0,38,0,84
0,60,116,36
0,57,118,16
0,60,0,40
0,57,0,16
0,42,84,40
0,42,0,8
0,53,106,0
0,57,116,12
0,29,0,24
0,53,0,76
0,57,0,12
0,36,94,96
0,36,0,8
0,29,127,0
0,42,127,4
0,42,0,8
0,57,78,0
0,60,78,12
0,57,0,100
0,60,0,12
0,42,106,104
0,42,0,8
0,65,108,4
0,60,118,8
0,29,0,24
0,65,0,24
0,60,0,8
0,57,110,56
0,60,116,16
0,65,0,72
0,38,101,16
0,36,95,4
0,29,127,0
0,42,127,4
0,57,0,0
0,57,0,4
0,36,0,4
0,42,0,4
0,60,0,4
0,38,0,72
0,65,106,40
0,60,116,12
0,65,0,44
0,60,0,12
0,42,78,32
0,42,0,8
0,53,96,12
0,57,118,12
0,60,116,12
0,29,0,8
0,53,0,80
0,57,0,12
