track,note,velocity,time
0,42,75,234
0,42,0,3
0,42,75,93
0,42,0,3
0,42,75,93
0,42,0,3
0,42,75,93
0,42,0,3
0,42,75,93
0,42,0,3
0,42,75,93
0,42,0,3
0,42,75,93
0,42,0,3
0,89,100,81
0,88,99,4
0,86,97,4
0,84,95,4
0,42,75,0
0,42,0,3
0,83,93,1
0,81,91,4
0,89,0,4
0,79,90,0
0,88,0,4
0,77,88,0
0,86,0,4
0,76,86,0
0,84,0,4
0,74,84,0
0,83,0,4
0,72,82,0
0,81,0,4
0,71,80,0
0,79,0,4
0,69,79,0
0,77,0,4
0,67,77,0
0,76,0,4
0,64,75,0
0,65,75,0
0,74,0,4
0,62,73,0
0,72,0,4
0,60,71,0
0,71,0,4
0,59,70,0
0,69,0,4
0,57,68,0
0,67,0,4
0,55,66,0
0,65,0,4
0,64,0,0
0,53,64,0
0,62,0,4
0,52,62,0
0,60,0,4
0,50,61,0
0,59,0,4
0,57,0,4
0,55,0,4
0,53,0,4
0,52,0,4
0,33,104,0
0,61,76,0
0,73,86,0
0,64,66,0
0,61,64,0
0,57,66,0
0,35,88,0
0,42,75,0
0,69,32,0
0,69,0,3
0,42,0,0
0,35,0,0
0,50,0,1
0,57,92,23
0,61,96,0
0,64,100,0
0,69,84,0
0,69,23,0
0,69,0,1
0,64,0,3
0,57,0,0
0,61,0,1
0,69,0,0
0,33,0,8
0,46,46,0
0,69,59,0
0,69,0,3
0,46,0,0
0,33,86,8
0,69,44,0
0,69,0,2
0,33,0,13
0,57,82,3
0,61,86,0
0,64,88,0
0,69,66,0
0,40,88,0
0,42,75,0
0,69,32,0
0,69,0,3
0,40,0,0
0,42,0,0
0,69,23,1
0,69,0,3
0,69,0,0
0,64,0,5
0,57,0,0
0,61,0,1
0,33,86,9
0,46,46,0
0,69,59,0
0,69,0,1
0,46,0,0
0,57,82,2
0,61,86,0
0,64,84,0
0,69,92,0
0,69,44,0
0,69,0,3
0,35,88,2
0,42,75,0
0,69,32,0
0,69,0,3
0,33,0,0
0,42,0,0
0,35,0,0
0,69,0,2
0,57,0,2
0,61,0,0
0,64,0,1
0,33,84,6
0,69,23,0
0,69,0,3
0,40,74,15
0,57,84,0
0,61,86,0
0,64,84,0
0,69,88,0
0,46,46,0
0,69,59,0
0,69,0,3
0,46,0,0
0,33,0,0
0,40,0,2
0,42,82,4
0,69,44,0
0,69,0,3
0,61,0,4
0,45,84,3
0,59,70,0
0,71,64,0
0,40,88,0
0,42,75,0
0,69,32,0
0,73,0,2
0,40,0,1
0,42,0,0
0,69,0,0
0,42,0,0
0,61,0,18
0,64,0,0
0,57,0,1
0,69,0,0
0,69,23,3
0,69,0,3
0,46,46,2
0,69,59,0
0,69,0,3
0,46,0,0
0,57,0,1
0,64,0,1
0,61,0,3
0,45,0,1
0,69,44,0
0,69,0,3
0,71,0,5
0,59,0,4
0,33,84,1
0,62,72,0
0,74,70,0
0,62,66,0
0,57,58,0
0,66,62,0
0,35,88,0
0,42,75,0
0,69,32,0
0,69,0,3
0,42,0,0
0,35,0,0
0,57,86,24
0,62,88,0
0,66,76,0
0,69,92,0
0,69,23,0
0,69,0,3
0,62,0,8
0,57,0,1
0,66,0,0
0,69,0,2
0,46,46,1
0,69,59,0
0,69,0,3
0,46,0,0
0,33,0,0
0,33,88,24
0,69,44,0
0,69,0,3
0,57,84,18
0,62,88,0
0,66,74,0
0,69,88,0
0,40,88,0
0,42,75,0
0,69,32,0
0,33,0,2
0,40,0,1
0,69,0,0
0,42,0,0
0,69,0,24
0,69,23,0
0,57,0,2
0,69,0,1
0,62,0,2
0,66,0,0
0,33,84,16
0,46,46,0
0,69,59,0
0,69,0,3
0,46,0,0
0,57,76,24
0,62,86,0
0,66,82,0
0,69,84,0
0,69,44,0
0,69,0,3
0,35,88,18
0,42,75,0
0,69,32,0
0,69,0,3
0,42,0,0
0,35,0,0
0,69,0,7
0,57,0,7
0,62,0,3
0,66,0,1
0,40,88,6
0,69,23,0
0,69,0,3
0,40,0,0
0,33,0,7
0,28,76,11
0,57,76,0
0,62,84,0
0,66,86,0
0,69,92,0
0,46,46,0
0,69,59,0
0,69,0,3
0,46,0,0
0,28,0,10
0,62,0,10
0,74,0,3
0,28,76,1
0,69,44,0
0,69,0,3
0,30,100,18
0,61,72,0
0,73,88,0
0,40,88,0
0,42,75,0
0,69,32,0
0,28,0,1
0,69,0,2
0,40,0,0
0,42,0,0
0,73,0,16
0,61,0,1
0,59,76,4
0,71,86,0
0,69,23,3
0,69,0,3
0,71,0,9
0,59,0,2
0,62,0,4
0,30,0,2
0,32,80,1
0,46,46,0
0,69,59,0
0,69,0,3
0,46,0,0
0,57,0,1
0,66,0,1
0,69,0,3
0,57,0,2
0,66,0,0
0,62,0,1
0,57,66,13
0,69,72,0
0,69,44,3
0,69,0,3
0,69,0,11
0,57,0,1
0,32,0,3
0,33,84,3
0,59,76,0
0,71,80,0
0,64,72,0
0,61,62,0
0,57,56,0
0,35,88,0
0,42,75,0
0,69,32,0
0,69,0,3
0,42,0,0
0,35,0,0
0,57,82,24
0,61,86,0
0,64,88,0
0,69,92,0
0,69,23,0
0,69,0,3
0,57,0,10
0,64,0,2
0,61,0,1
0,69,0,3
0,33,0,1
0,46,46,1
0,69,59,0
0,69,0,3
0,46,0,0
0,71,0,15
0,59,0,0
0,61,62,6
0,73,76,0
0,33,86,3
0,69,44,0
0,69,0,3
0,33,0,17
0,57,78,1
0,61,86,0
0,64,86,0
0,69,86,0
0,40,88,0
0,42,75,0
0,69,32,0
0,69,0,3
0,40,0,0
0,42,0,0
0,61,0,23
0,69,23,1
0,73,0,1
0,69,0,1
0,64,0,1
0,69,0,0
0,61,0,1
0,57,0,1
0,33,104,16
0,61,60,0
0,73,72,0
0,46,46,0
0,69,59,0
0,69,0,3
0,46,0,0
0,57,74,24
0,61,82,0
0,64,76,0
0,69,86,0
0,69,44,0
0,69,0,3
0,35,88,18
0,42,75,0
0,69,32,0
0,69,0,3
0,42,0,0
0,35,0,0
0,57,0,7
0,69,0,1
0,61,0,0
0,33,0,0
0,64,0,2
0,33,84,14
0,69,23,0
0,69,0,3
0,40,70,18
0,57,84,0
0,61,84,0
0,64,96,0
0,69,92,0
0,46,46,0
0,69,59,0
0,33,0,2
0,69,0,1
0,46,0,0
0,40,0,20
0,42,84,4
0,69,44,0
0,81,85,0
0,85,87,0
0,88,99,0
0,93,91,0
0,69,0,3
0,85,0,15
0,93,0,0
0,81,0,0
0,88,0,0
0,42,0,1
0,45,100,2
0,40,88,0
0,42,75,0
0,69,32,0
0,81,107,0
0,85,111,0
0,88,115,0
0,93,107,0
0,69,0,3
0,42,0,0
0,40,0,0
0,69,23,24
0,69,0,3
0,46,46,18
0,69,59,0
0,69,0,1
0,46,0,0
0,69,0,1
0,57,0,2
0,64,0,2
0,61,0,3
0,93,0,2
0,81,0,0
0,88,0,0
0,85,0,0
0,69,44,1
0,80,91,0
0,83,95,0
0,88,87,0
0,92,95,0
0,69,0,1
0,57,0,1
0,45,0,4
0,64,0,1
0,83,0,5
0,88,0,0
0,61,0,0
0,92,0,0
0,80,0,0
0,33,100,3
0,66,64,0
0,62,66,0
0,57,56,0
0,35,88,0
0,42,75,0
0,69,32,0
0,80,103,0
0,83,111,0
0,88,107,0
0,92,95,0
0,69,0,3
0,42,0,0
0,35,0,0
0,57,84,24
0,62,100,0
0,66,86,0
0,69,86,0
0,69,23,0
0,69,0,3
0,57,0,14
0,33,0,0
0,69,0,0
0,62,0,0
0,66,0,1
0,46,46,3
0,69,59,0
0,69,0,3
0,46,0,0
0,83,0,21
0,88,0,0
0,92,0,0
0,80,0,0
0,33,86,3
0,69,44,0
0,78,91,0
0,81,91,0
0,86,91,0
0,90,91,0
0,69,0,3
0,81,0,15
0,90,0,0
0,78,0,0
0,86,0,0
0,57,84,3
0,62,88,0
0,66,88,0
0,69,86,0
0,40,88,0
0,42,75,0
0,69,32,0
0,78,103,0
0,81,107,0
0,86,111,0
0,90,103,0
0,69,0,3
0,42,0,0
0,40,0,0
0,33,0,8
0,69,0,16
0,69,23,0
0,57,0,2
0,69,0,1
0,66,0,1
0,62,0,1
0,33,96,16
0,46,46,0
0,69,59,0
0,69,0,3
0,46,0,0
0,57,76,24
0,62,86,0
0,66,86,0
0,69,82,0
0,69,44,0
0,69,0,3
0,35,88,18
0,42,75,0
0,69,32,0
0,69,0,3
0,42,0,0
0,35,0,0
0,33,0,4
0,69,0,3
0,62,0,1
0,57,0,4
0,66,0,1
0,33,78,11
0,40,88,0
0,69,23,0
0,69,0,3
0,40,0,0
0,33,0,15
0,28,96,3
0,57,80,0
0,62,88,0
0,66,86,0
0,69,82,0
0,46,46,0
0,69,59,0
0,69,0,3
0,46,0,0
0,69,44,24
0,69,0,3
0,28,0,13
0,73,0,5
0,30,96,0
0,40,88,0
0,42,75,0
0,69,32,0
0,69,0,3
0,42,0,0
0,40,0,0
0,81,0,3
0,86,0,1
0,78,0,0
0,90,0,2
0,69,23,18
0,69,0,3
0,61,0,13
0,30,0,0
0,32,72,5
0,46,66,0
0,69,59,0
0,69,0,3
0,46,0,0
0,66,0,4
0,69,0,5
0,62,0,3
0,62,0,1
0,66,0,1
0,57,0,3
0,57,0,0
0,69,44,7
0,69,0,3
0,32,0,15
0,33,84,3
0,61,66,0
0,73,82,0
0,61,56,0
0,64,72,0
0,57,62,0
0,35,88,0
0,42,75,0
0,69,32,0
0,69,0,3
0,42,0,0
0,35,0,0
0,57,80,24
0,61,84,0
0,64,84,0
0,69,88,0
0,69,23,0
0,69,0,3
0,64,0,13
0,61,0,1
0,69,0,2
0,46,46,2
0,69,59,0
0,69,0,3
0,46,0,0
0,57,0,0
0,33,0,5
0,33,86,19
0,69,44,0
0,69,0,3
0,57,80,18
0,61,84,0
0,64,82,0
0,69,86,0
0,40,88,0
0,42,75,0
0,69,32,0
0,69,0,3
0,42,0,0
0,40,0,0
0,33,0,1
0,69,23,23
0,69,0,1
0,57,0,0
0,69,0,2
0,61,0,1
0,64,0,0
0,33,100,17
0,46,46,0
0,69,59,0
0,69,0,3
0,46,0,0
0,57,76,24
0,61,82,0
0,64,86,0
0,69,86,0
0,69,44,0
0,69,0,3
0,35,88,18
0,42,75,0
0,69,32,0
0,69,0,3
0,42,0,0
0,35,0,0
0,69,0,8
0,33,0,0
0,57,0,1
0,61,0,1
0,64,0,4
0,33,78,10
0,69,23,0
0,69,0,3
0,40,78,18
0,57,84,0
0,61,84,0
0,64,92,0
0,69,92,0
0,46,46,0
0,69,59,0
0,33,0,2
0,69,0,1
0,46,0,0
0,40,0,20
0,42,92,4
0,69,44,0
0,69,0,3
0,73,0,13
0,61,0,2
0,42,0,2
0,45,88,1
0,59,72,0
0,71,86,0
0,40,88,0
0,42,75,0
0,69,32,0
0,69,0,3
0,42,0,0
0,40,0,0
0,69,23,24
0,69,0,3
0,46,46,18
0,69,59,0
0,69,0,3
0,46,0,0
0,69,0,3
0,57,0,0
0,64,0,0
0,61,0,1
0,69,44,1
0,57,0,1
0,61,0,0
0,69,0,2
0,64,0,1
0,59,0,5
0,71,0,1
0,33,104,1
0,62,74,0
0,74,82,0
0,66,58,0
0,62,66,0
0,57,54,0
0,35,88,0
0,42,75,0
0,69,32,0
0,45,0,1
0,69,0,2
0,35,0,0
0,42,0,0
0,57,86,24
0,62,88,0
0,66,86,0
0,69,92,0
0,69,23,0
0,69,0,3
0,33,0,17
0,62,0,1
0,46,46,0
0,69,59,0
0,66,0,1
0,69,0,1
0,57,0,0
0,46,0,1
0,69,0,0
0,33,84,24
0,69,44,0
0,69,0,3
0,57,78,18
0,62,88,0
0,66,86,0
0,69,84,0
0,40,88,0
0,42,75,0
0,69,32,0
0,69,0,3
0,42,0,0
0,40,0,0
0,33,0,6
0,69,0,18
0,69,23,0
0,66,0,1
0,57,0,0
0,62,0,1
0,69,0,1
0,33,84,18
0,46,46,0
0,69,59,0
0,69,0,3
0,46,0,0
0,57,82,24
0,62,92,0
0,66,86,0
0,69,84,0
0,69,44,0
0,69,0,3
0,35,88,18
0,42,75,0
0,69,32,0
0,69,0,3
0,42,0,0
0,35,0,0
0,69,0,6
0,33,0,0
0,62,0,2
0,66,0,1
0,57,0,3
0,33,80,12
0,40,88,0
0,69,23,0
0,69,0,3
0,40,0,0
0,33,0,17
0,28,88,1
0,57,84,0
0,62,100,0
0,66,88,0
0,69,88,0
0,46,46,0
0,69,59,0
0,69,0,3
0,46,0,0
0,74,0,14
0,69,44,10
0,69,0,3
0,62,0,12
0,28,0,4
0,30,84,2
0,61,72,0
0,73,96,0
0,40,88,0
0,42,75,0
0,69,32,0
0,69,0,3
0,42,0,0
0,40,0,0
0,73,0,16
0,61,0,3
0,59,68,2
0,71,84,0
0,69,23,3
0,69,0,3
0,62,0,8
0,71,0,1
0,30,0,1
0,59,0,0
0,57,0,1
0,69,0,4
0,66,0,1
0,32,86,2
0,46,46,0
0,69,59,0
0,69,0,3
0,46,0,0
0,57,0,1
0,62,0,2
0,66,0,2
0,57,52,16
0,69,64,0
0,69,44,3
0,69,0,3
0,69,0,5
0,32,0,4
0,57,0,3
0,33,86,6
0,59,76,0
0,71,82,0
0,59,60,0
0,64,76,0
0,68,68,0
0,35,88,0
0,42,75,0
0,69,32,0
0,69,0,3
0,42,0,0
0,35,0,0
0,59,86,24
0,64,88,0
0,68,86,0
0,71,86,0
0,69,23,0
0,69,0,3
0,33,0,12
0,59,0,4
0,46,46,2
0,69,59,0
0,71,0,1
0,69,0,2
0,46,0,0
0,64,0,1
0,68,0,2
0,64,0,10
0,59,0,2
0,59,0,1
0,68,0,1
0,71,0,1
0,61,60,3
0,73,82,0
0,61,60,0
0,69,68,0
0,64,38,0
0,33,86,3
0,69,44,0
0,69,0,3
0,61,0,12
0,64,0,4
0,69,0,0
0,59,86,2
0,64,88,0
0,68,86,0
0,71,86,0
0,40,88,0
0,42,75,0
0,69,32,0
0,33,0,2
0,69,0,1
0,40,0,0
0,42,0,0
0,61,0,21
0,59,0,1
0,73,0,0
0,71,0,2
0,69,23,0
0,69,0,3
0,68,0,3
0,64,0,3
0,33,84,12
0,61,64,0
0,73,84,0
0,69,68,0
0,64,68,0
0,61,66,0
0,46,46,0
0,69,59,0
0,69,0,3
0,46,0,0
0,61,84,24
0,64,92,0
0,69,86,0
0,73,86,0
0,69,44,0
0,69,0,3
0,35,88,18
0,42,75,0
0,69,32,0
0,69,0,3
0,42,0,0
0,35,0,0
0,33,0,11
0,33,80,6
0,69,23,0
0,69,0,3
0,33,0,9
0,73,0,9
0,33,100,0
0,46,46,0
0,69,59,0
0,61,0,2
0,69,0,1
0,46,0,0
0,69,0,1
0,64,0,6
0,69,44,17
0,64,0,1
0,69,0,2
0,69,0,1
0,61,0,4
0,33,0,8
0,32,104,2
0,59,84,0
0,64,92,0
0,68,82,0
0,71,86,0
0,71,101,0
0,71,82,0
0,64,64,0
0,59,64,0
0,68,64,0
0,40,88,0
0,42,75,0
0,69,32,0
0,76,91,0
0,80,89,0
0,83,91,0
0,69,0,3
0,42,0,0
0,40,0,0
0,73,0,1
0,69,23,13
0,69,0,3
0,71,0,10
0,68,0,0
0,64,0,1
0,46,46,7
0,69,59,0
0,59,0,2
0,69,0,1
0,46,0,0
0,32,0,15
0,68,0,8
0,69,44,1
0,69,0,3
0,59,0,1
0,61,0,9
0,64,0,0
0,83,0,5
0,80,0,0
0,76,0,0
0,71,0,1
0,71,0,1
0,30,100,1
0,59,88,0
0,62,100,0
0,66,84,0
0,69,88,0
0,73,93,0
0,57,64,0
0,69,86,0
0,57,66,0
0,62,76,0
0,66,68,0
0,35,88,0
0,42,75,0
0,69,32,0
0,74,85,0
0,78,95,0
0,81,87,0
0,69,0,3
0,42,0,0
0,35,0,0
0,71,93,21
0,57,50,0
0,73,0,1
0,69,23,2
0,69,0,3
0,57,0,2
0,59,0,7
0,69,0,2
