track,note,velocity,time
0,42,72,382
0,61,73,1
0,49,73,45
0,71,96,49
0,54,70,0
0,66,76,0
0,49,70,1
0,61,64,1
0,42,71,0
0,70,76,1
0,49,68,2
0,66,69,1
0,54,64,2
0,49,67,0
0,61,64,1
0,42,74,1
0,68,79,0
0,61,67,1
0,49,69,0
0,58,63,9
0,54,63,2
0,66,83,1
0,49,70,0
0,38,78,4
0,46,70,44
0,50,76,48
0,46,69,1
0,39,80,8
0,46,70,42
0,68,82,50
0,51,70,0
0,58,73,0
0,46,63,1
0,39,72,1
0,54,60,1
0,66,75,0
0,46,77,1
0,58,67,1
0,51,64,2
0,46,68,1
0,54,67,0
0,65,84,1
0,39,84,0
0,58,63,0
0,46,68,1
0,54,65,1
0,51,66,0
0,46,72,1
0,63,88,0
0,43,74,3
0,51,68,45
0,61,82,50
0,55,70,1
0,51,71,1
0,44,73,3
0,63,83,0
0,51,72,46
0,73,80,50
0,56,75,1
0,68,67,1
0,51,68,0
0,63,61,1
0,44,73,2
0,71,95,0
0,51,78,1
0,68,69,1
0,56,67,0
0,63,65,0
0,51,69,1
0,70,74,0
0,44,73,0
0,51,82,47
0,63,71,1
0,59,74,48
0,56,72,0
0,51,73,1
0,68,83,0
0,44,70,1
0,51,75,1
0,56,71,1
0,51,80,1
0,37,82,1
0,49,65,0
0,44,73,41
0,56,65,1
0,66,75,44
0,66,88,3
0,49,69,0
0,61,73,0
0,44,62,1
0,49,64,1
0,61,20,3
0,37,69,1
0,56,64,1
0,56,67,1
0,65,70,5
0,65,96,3
0,44,68,1
0,61,63,0
0,61,66,0
0,49,67,1
0,49,60,1
0,44,69,0
0,56,64,1
0,56,59,1
0,63,64,4
0,63,76,4
0,37,72,0
0,61,63,0
0,56,69,1
0,44,68,0
0,49,60,3
0,49,65,1
0,53,69,1
0,56,65,1
0,61,65,2
0,61,70,2
0,44,69,1
0,61,69,0
0,37,72,1
0,56,69,2
0,44,71,1
0,49,60,0
0,49,79,1
0,56,63,3
0,44,71,1
0,49,64,1
0,42,83,0
0,54,62,2
0,49,78,39
0,61,69,3
0,71,102,39
0,54,69,0
0,71,76,0
0,66,63,3
0,66,67,1
0,49,68,0
0,61,67,0
0,61,65,1
0,42,73,0
0,54,59,1
0,70,70,2
0,70,78,2
0,49,69,2
0,66,67,0
0,66,75,1
0,54,63,3
0,61,64,0
0,49,73,0
0,61,68,1
0,54,62,2
0,68,74,8
0,68,81,4
0,42,69,0
0,66,68,2
0,49,73,0
0,61,69,1
0,61,63,3
0,54,68,1
0,58,69,0
0,54,71,0
0,66,80,5
0,66,92,5
0,49,72,1
0,66,72,2
0,38,71,2
0,62,74,2
0,46,68,18
0,58,60,2
0,50,80,6
0,65,67,4
0,65,61,1
0,46,69,1
0,58,61,1
0,39,81,1
0,58,69,3
0,46,72,8
0,51,60,3
0,68,84,46
0,51,70,2
0,63,63,1
0,68,74,4
0,58,67,1
0,46,67,2
0,58,67,2
0,39,70,1
0,54,63,2
0,51,75,1
0,66,86,1
0,46,71,0
0,66,88,0
0,63,67,4
0,58,71,1
0,51,69,2
0,58,61,1
0,46,74,1
0,54,69,0
0,51,64,2
0,65,70,2
0,65,94,5
0,39,80,0
0,63,74,2
0,46,69,1
0,58,65,0
0,58,59,2
0,51,69,1
0,54,69,3
0,51,60,2
0,63,78,1
0,46,73,3
0,63,81,1
0,63,68,1
0,43,80,2
0,58,59,2
0,51,70,13
0,51,58,1
0,61,78,15
0,55,70,2
0,61,72,1
0,61,72,0
0,51,73,1
0,58,63,2
0,63,80,1
0,44,77,0
0,59,74,0
0,51,69,37
0,63,60,1
0,73,75,44
0,73,84,3
0,56,69,1
0,68,64,0
0,68,69,0
0,51,69,1
0,63,71,2
0,44,70,0
0,63,67,1
0,59,64,1
0,71,81,10
0,71,95,2
0,51,73,1
0,68,65,1
0,56,71,0
0,68,73,1
0,63,70,2
0,51,63,1
0,63,67,0
0,59,63,3
0,70,81,0
0,44,77,1
0,68,69,0
0,70,65,0
0,51,75,0
0,63,69,1
0,63,64,2
0,56,70,1
0,59,70,1
0,59,62,1
0,68,74,0
0,68,76,1
0,51,75,0
0,68,60,3
0,44,72,1
0,63,69,2
0,51,72,1
0,59,63,2
0,56,68,1
0,63,65,2
0,51,82,1
0,59,63,2
0,37,73,5
0,56,67,1
0,44,76,40
0,61,61,2
0,66,78,25
0,49,70,5
0,66,88,0
0,66,68,3
0,61,72,0
0,44,67,1
0,61,56,1
0,37,70,1
0,56,54,2
0,56,68,3
0,65,88,0
0,65,64,0
0,44,72,1
0,65,79,0
0,61,69,0
0,49,69,1
0,61,53,1
0,56,63,1
0,44,72,0
0,56,58,5
0,63,69,2
0,37,69,7
0,63,67,1
0,63,69,3
0,44,74,1
0,56,67,2
0,61,63,0
0,49,69,1
0,53,69,0
0,56,60,4
0,44,49,1
0,61,49,0
0,61,70,1
0,61,63,3
0,37,45,1
0,61,97,0
0,63,96,0
0,65,95,0
0,66,87,0
0,42,76,22
0,58,51,1
0,58,82,0
0,61,59,0
0,66,58,2
0,49,77,1
0,66,44,0
0,61,50,1
0,54,70,1
0,58,43,2
0,66,77,1
0,58,54,0
0,58,80,1
0,61,64,2
0,66,75,2
0,61,77,44
0,66,55,0
0,58,69,1
0,66,51,0
0,54,72,3
0,61,51,0
0,58,56,2
0,58,69,1
0,66,46,0
0,58,40,0
0,42,75,1
0,61,52,1
0,66,41,2
0,49,68,1
0,66,50,0
0,54,67,1
0,66,67,0
0,61,68,3
0,58,69,2
0,70,76,1
0,61,84,0
0,58,50,0
0,61,39,3
0,66,56,2
0,66,79,1
0,58,91,0
0,61,68,0
0,66,53,0
0,59,97,0
0,61,47,2
0,58,46,2
0,58,71,1
0,58,78,0
0,61,94,0
0,61,56,0
0,66,65,2
0,66,53,1
0,61,20,4
0,63,83,0
0,65,50,0
0,41,74,1
0,63,100,0
0,56,52,0
0,49,67,16
0,53,71,4
0,56,72,0
0,61,95,0
0,61,55,0
0,65,75,2
0,68,78,1
0,56,75,0
0,65,60,0
0,61,50,3
0,56,50,2
0,61,72,1
0,56,28,0
0,56,63,1
0,56,59,0
0,61,60,3
0,65,66,2
0,61,69,1
0,56,49,0
0,56,67,1
0,61,30,0
0,41,76,1
0,65,69,0
0,61,69,3
0,56,70,2
0,49,67,1
0,61,51,0
0,65,42,3
0,53,72,1
0,68,74,1
0,56,71,0
0,65,77,0
0,61,59,3
0,56,67,2
0,61,68,1
0,56,44,0
0,61,96,0
0,56,50,0
0,56,61,1
0,59,106,0
0,61,50,1
0,65,52,2
0,49,68,0
0,65,69,0
0,58,85,0
0,61,68,0
0,61,52,1
0,56,75,2
0,56,65,1
0,56,79,0
0,56,50,1
0,44,80,1
0,59,98,0
0,59,64,0
0,51,71,3
0,63,46,0
0,56,47,3
0,59,67,1
0,56,56,0
0,59,77,3
0,63,62,2
0,56,69,1
0,71,83,0
0,59,76,0
0,63,53,0
0,59,51,2
0,56,56,2
0,68,70,43
0,59,73,1
0,56,39,0
0,59,43,3
0,63,44,2
0,63,37,1
0,63,72,1
0,56,31,2
0,59,72,1
0,51,70,0
0,56,49,0
0,59,46,1
0,63,50,2
0,63,56,0
0,44,81,1
0,59,78,2
0,56,59,2
0,51,67,1
0,56,46,0
0,59,45,1
0,63,51,2
0,59,63,0
0,56,68,1
0,56,49,2
0,68,75,1
0,56,83,0
0,56,55,0
0,61,101,0
0,59,65,2
0,63,59,2
0,63,75,1
0,59,82,1
0,63,52,0
0,59,98,0
0,59,58,2
0,56,56,2
0,56,57,0
0,58,94,0
0,56,68,0
0,59,68,2
0,63,53,2
0,59,83,1
0,63,50,0
0,56,83,0
0,59,42,1
0,56,52,0
0,41,65,0
0,59,113,0
0,61,62,0
0,65,52,2
0,49,54,1
0,61,56,0
0,65,82,1
0,53,69,3
0,61,63,0
0,56,67,2
0,56,54,0
0,68,83,1
0,56,71,0
0,61,52,2
0,65,52,2
0,56,40,1
0,61,76,1
0,56,67,1
0,65,46,1
0,49,74,2
0,61,49,1
0,56,47,2
0,56,59,1
0,56,66,1
0,63,72,1
0,37,76,0
0,61,64,0
0,65,78,2
0,53,59,1
0,65,43,0
0,56,79,51
0,65,65,1
0,49,70,1
0,65,80,2
0,61,56,0
0,56,59,2
0,53,49,1
0,61,103,0
0,56,42,0
0,66,95,1
0,63,89,0
0,61,48,0
0,49,54,1
0,65,48,1
0,56,69,1
0,65,53,0
0,61,54,3
0,65,96,0
0,56,53,1
0,56,51,1
0,68,72,1
0,65,47,2
0,66,83,0
0,66,50,9
0,61,58,3
0,58,92,0
0,42,74,0
0,58,50,1
0,58,45,26
0,49,72,1
0,61,55,2
0,66,43,2
0,66,73,1
0,70,79,1
0,54,68,1
0,61,74,1
0,58,74,2
0,61,57,1
0,58,50,0
0,61,52,3
0,66,51,2
0,66,76,1
0,58,44,0
0,42,76,1
0,68,83,0
0,66,75,0
0,61,71,1
0,58,55,2
0,61,63,1
0,66,77,1
0,58,45,0
0,66,62,3
0,71,88,1
0,54,69,0
0,66,78,0
0,58,82,3
0,66,78,1
0,58,52,0
0,61,45,3
0,66,56,2
0,61,53,1
0,49,22,3
0,70,84,1
0,42,74,0
0,66,67,0
0,61,56,3
0,58,66,2
0,61,54,1
0,58,29,0
0,58,101,0
0,54,66,1
0,66,56,1
0,59,101,0
0,66,80,1
0,58,69,0
0,61,91,0
0,61,51,1
0,66,52,2
0,58,66,0
0,63,80,0
0,49,24,0
0,66,59,0
0,61,50,3
0,58,46,2
0,41,82,7
0,56,53,0
0,65,55,3
0,63,101,0
0,49,68,1
0,65,26,0
0,61,84,1
0,65,73,0
0,61,96,0
0,61,73,0
0,56,73,2
0,53,65,1
0,56,55,0
0,61,50,3
0,65,51,2
0,56,73,1
0,65,50,0
0,56,51,3
0,60,82,1
0,56,61,0
0,61,42,3
0,65,67,2
0,53,62,1
0,65,41,0
0,56,38,3
0,49,65,0
0,56,75,1
0,56,51,0
0,65,38,3
0,63,78,1
0,41,81,0
0,65,54,0
0,56,54,3
0,53,64,1
0,56,50,0
0,65,39,3
0,56,62,4
0,61,72,1
0,65,69,0
0,49,73,1
0,61,58,2
0,56,61,2
0,53,63,1
0,61,94,0
0,53,68,1
0,56,55,0
0,59,107,0
0,61,57,0
0,65,61,2
0,65,56,0
0,56,78,1
0,49,67,0
0,58,86,0
0,61,53,0
0,56,60,2
0,53,70,1
0,56,55,0
0,56,80,0
0,61,52,2
0,65,51,2
0,44,77,0
0,63,59,0
0,59,63,1
0,59,105,0
0,56,56,1
0,51,70,18
0,63,52,0
0,56,59,1
0,59,90,1
0,59,75,2
0,63,57,2
0,63,57,1
0,56,67,1
0,59,58,1
0,56,58,2
0,51,62,1
0,56,54,0
0,44,70,1
0,58,77,1
0,59,66,1
0,63,65,2
0,51,65,1
0,56,74,1
0,63,55,0
0,59,53,3
0,56,50,2
0,56,56,0
0,61,88,1
0,59,78,2
0,63,57,2
0,51,67,1
0,63,48,0
0,59,46,3
0,56,74,1
0,56,39,0
0,44,87,1
0,59,87,0
0,56,56,0
0,59,71,3
0,63,62,2
0,61,84,0
0,51,63,0
0,51,63,1
0,63,51,0
0,59,105,0
0,59,56,2
0,56,50,2
0,56,81,1
0,56,55,0
0,59,79,3
0,58,92,0
0,63,55,1
0,51,67,1
0,44,72,0
0,63,52,0
0,59,51,1
0,56,44,2
0,56,84,0
0,37,74,0
0,56,54,0
0,61,51,3
0,59,106,0
0,65,55,1
0,49,63,39
0,65,86,1
0,65,78,0
0,61,55,1
0,56,66,2
0,61,73,1
0,56,52,1
0,61,49,3
0,65,51,2
0,56,68,5
0,56,47,1
0,63,79,1
0,65,69,0
0,61,61,3
0,56,63,2
0,56,61,1
0,56,31,1
0,61,68,1
0,65,44,3
0,66,81,3
0,37,70,2
0,56,50,0
0,61,50,2
0,65,58,2
0,56,65,1
0,65,48,1
0,61,46,3
0,56,33,2
0,61,74,1
0,56,48,2
0,65,51,3
0,65,81,2
0,61,89,0
0,65,65,0
0,61,61,3
0,56,59,2
0,61,70,1
0,61,94,0
0,56,40,0
0,56,62,1
0,56,48,1
0,71,101,0
0,65,52,2
0,49,68,2
0,65,53,1
0,56,50,3
0,71,106,0
0,56,68,1
0,70,88,0
0,70,90,0
0,42,102,0
0,42,73,0
0,54,62,0
0,66,43,0
0,49,72,46
0,61,69,2
0,71,95,0
0,54,71,0
0,66,63,2
0,71,78,2
0,66,78,6
0,49,75,0
0,61,67,0
0,61,68,5
0,42,68,0
0,54,59,1
0,49,72,1
0,70,75,1
0,66,67,0
0,70,67,3
0,54,67,1
0,66,72,1
0,61,64,0
0,49,74,4
0,61,62,0
0,54,62,0
0,42,70,4
0,68,78,0
0,66,68,0
0,68,66,1
0,49,72,14
0,61,67,0
0,61,63,0
0,54,71,1
0,58,67,2
0,54,69,0
0,66,60,0
0,58,90,0
0,49,78,0
0,66,81,0
0,66,72,0
0,58,88,0
0,38,72,0
0,62,74,0
0,38,92,3
0,68,90,0
0,58,60,0
0,46,58,1
0,50,76,12
0,68,95,0
0,65,61,0
0,58,61,0
0,46,71,1
0,66,80,0
0,39,97,6
0,39,80,1
0,58,69,1
0,66,93,0
0,46,71,44
0,51,60,0
0,68,83,3
0,68,62,0
0,51,71,1
0,63,63,0
0,58,72,10
0,46,68,0
0,58,67,0
0,39,70,13
0,51,75,0
0,54,68,1
0,66,79,2
0,66,64,0
0,46,72,1
0,63,67,0
0,51,67,0
0,58,71,0
0,58,61,0
0,51,64,5
0,54,69,0
0,46,72,1
0,65,71,0
0,65,83,1
0,39,74,0
0,63,74,0
0,58,59,1
0,46,69,2
0,58,69,0
0,54,67,1
0,51,60,1
0,51,60,0
0,63,94,0
0,63,68,0
0,46,69,1
0,63,77,0
0,63,66,1
0,58,59,2
0,43,67,1
0,67,42,1
0,63,95,0
0,31,84,0
0,51,58,0
0,73,93,0
0,51,80,2
0,61,72,7
0,73,91,0
0,61,80,0
0,55,69,0
0,58,63,1
0,51,71,1
0,71,103,0
0,59,74,0
0,68,39,2
0,32,75,1
0,44,70,0
0,63,79,0
0,71,107,0
0,51,74,44
0,63,60,0
0,68,64,1
0,73,80,1
0,56,69,0
0,73,77,1
0,68,70,9
0,51,69,0
0,63,71,0
0,44,68,0
0,63,61,1
0,59,64,0
0,51,76,4
0,68,65,0
0,71,99,1
0,71,78,2
0,63,74,6
0,56,65,0
0,63,70,0
0,59,58,12
0,51,72,0
0,59,63,0
0,70,66,0
0,68,69,0
0,70,75,1
0,44,71,0
0,51,70,3
0,63,68,0
0,63,64,0
0,71,106,0
0,59,62,0
0,56,70,1
0,59,76,0
0,68,71,0
0,68,79,2
0,51,76,0
0,68,60,0
0,44,93,23
0,44,70,0
0,63,69,0
0,70,97,0
0,51,74,0
0,59,63,0
0,63,65,1
0,56,70,1
0,68,93,0
0,51,72,0
0,59,63,0
0,70,84,0
0,37,69,0
0,71,101,0
0,37,79,0
0,61,38,0
0,37,85,3
0,44,67,10
0,44,55,3
0,66,92,1
0,49,69,0
0,49,60,1
0,66,76,0
0,44,57,3
0,44,68,0
0,61,40,1
0,37,68,4
0,37,62,0
0,56,67,1
0,44,74,4
0,65,85,0
0,49,66,1
0,65,70,2
0,61,74,24
0,49,68,0
0,44,67,1
0,44,70,1
0,56,68,0
0,37,63,1
0,46,56,3
0,47,59,14
0,48,63,1
0,63,75,1
0,37,74,0
0,49,60,0
0,53,84,1
0,49,85,2
0,63,67,0
0,56,71,34
0,44,71,0
0,44,66,2
0,53,67,0
0,49,68,0
0,37,63,1
0,44,75,1
0,61,73,0
0,49,63,1
0,61,79,1
0,37,67,0
0,61,101,0
0,44,68,0
0,44,67,39
0,37,72,1
0,63,92,0
0,49,74,2
0,49,68,0
0,38,109,2
0,65,82,0
0,44,73,0
0,44,74,1
0,66,93,0
0,54,56,1
0,42,81,1
0,42,79,1
0,35,108,0
0,42,78,0
0,58,49,0
