track,note,velocity,time
0,42,65,920
0,42,65,372
0,42,65,372
0,42,65,372
0,42,65,372
0,46,55,180
0,53,55,0
0,58,55,0
0,63,55,0
0,65,55,0
0,70,55,0
0,75,80,0
0,77,40,0
0,46,88,100
0,53,88,0
0,58,88,0
0,63,88,0
0,65,88,0
0,70,88,0
0,75,84,0
0,77,40,0
0,46,55,120
0,53,55,0
0,58,55,0
0,63,55,0
0,65,55,0
0,70,55,0
0,75,80,0
0,77,26,0
0,46,88,120
0,53,88,0
0,58,88,0
0,63,88,0
0,65,88,0
0,75,80,0
0,77,39,0
0,46,55,120
0,53,58,0
0,58,55,0
0,63,64,0
0,65,64,0
0,75,72,0
0,77,42,0
0,46,88,116
0,53,88,0
0,58,88,0
0,63,88,0
0,65,88,0
0,70,88,0
0,77,39,0
0,75,72,0
0,46,55,120
0,53,55,0
0,58,62,0
0,63,55,0
0,65,55,0
0,70,56,0
0,77,52,0
0,75,66,0
0,46,88,84
0,53,88,0
0,58,88,0
0,63,88,0
0,65,88,0
0,70,88,0
0,75,84,0
0,77,56,0
0,46,64,32
0,53,55,0
0,58,64,0
0,63,55,0
0,65,64,0
0,70,55,0
0,77,46,0
0,74,52,0
0,75,64,104
0,46,88,16
0,53,88,0
0,58,88,0
0,62,88,0
0,65,88,0
0,70,88,0
0,77,75,0
0,74,75,0
0,46,55,8
0,53,64,0
0,58,55,0
0,62,62,0
0,65,62,0
0,70,56,0
0,75,50,0
0,72,44,0
0,74,69,104
0,46,88,16
0,53,88,0
0,58,88,0
0,62,88,0
0,65,88,0
0,75,75,0
0,72,75,0
0,46,64,100
0,53,55,0
0,58,56,0
0,62,55,0
0,65,64,0
0,74,50,0
0,70,44,0
0,72,62,88
0,46,88,16
0,53,88,0
0,58,88,0
0,62,88,0
0,65,88,0
0,70,88,0
0,70,72,0
0,74,56,0
0,46,55,40
0,53,64,0
0,58,55,0
0,62,55,0
0,65,55,0
0,70,64,0
0,69,56,0
0,72,44,0
0,70,84,84
0,46,88,0
0,53,88,0
0,58,88,0
0,63,88,0
0,65,88,0
0,70,88,0
0,69,62,0
0,72,52,0
0,46,55,8
0,53,55,0
0,58,64,0
0,63,55,0
0,65,55,0
0,70,56,0
0,67,50,0
0,70,26,0
0,69,35,84
0,46,88,16
0,53,88,0
0,58,88,0
0,63,88,0
0,65,88,0
0,70,88,0
0,70,50,0
0,67,84,0
0,46,55,4
0,53,55,0
0,58,55,0
0,63,55,0
0,65,64,0
0,70,55,0
0,65,56,0
0,69,50,0
0,48,101,0
0,53,101,0
0,60,101,0
0,63,101,0
0,69,101,0
0,65,60,0
0,69,54,0
0,48,55,192
0,53,64,0
0,60,62,0
0,63,55,0
0,69,62,0
0,48,117,120
0,53,117,0
0,60,117,0
0,63,117,0
0,69,117,0
0,48,55,120
0,53,55,0
0,60,55,0
0,63,55,0
0,69,55,0
0,48,91,120
0,53,91,0
0,60,91,0
0,63,91,0
0,69,91,0
0,48,55,120
0,53,55,0
0,60,55,0
0,63,62,0
0,69,55,0
0,48,119,120
0,53,119,0
0,60,119,0
0,63,119,0
0,69,119,0
0,48,55,120
0,53,64,0
0,60,55,0
0,63,55,0
0,69,55,0
0,48,97,120
0,53,97,0
0,60,97,0
0,63,97,0
0,69,97,0
0,48,55,120
0,53,55,0
0,60,55,0
0,63,55,0
0,69,55,0
0,48,119,120
0,53,119,0
0,60,119,0
0,63,119,0
0,69,119,0
0,48,55,120
0,53,55,0
0,60,55,0
0,63,55,0
0,69,55,0
0,48,91,120
0,53,91,0
0,60,91,0
0,63,91,0
0,69,91,0
0,70,37,0
0,67,84,0
0,48,55,20
0,53,55,0
0,60,55,0
0,63,55,0
0,69,55,0
0,74,46,0
0,70,66,0
0,48,121,40
0,53,121,0
0,60,121,0
0,63,121,0
0,69,121,0
0,72,40,0
0,69,48,0
0,48,55,76
0,53,55,0
0,60,55,0
0,63,55,0
0,69,55,0
0,69,72,0
0,72,48,0
0,75,50,24
0,70,48,0
0,46,91,4
0,53,91,0
0,58,91,0
0,62,91,0
0,70,91,0
0,70,88,0
0,74,50,0
0,46,60,120
0,53,56,0
0,58,55,0
0,62,55,0
0,70,55,0
0,46,121,120
0,53,121,0
0,58,121,0
0,62,121,0
0,70,121,0
0,46,55,120
0,53,55,0
0,58,55,0
0,62,55,0
0,70,55,0
0,46,91,120
0,53,91,0
0,58,91,0
0,62,91,0
0,70,91,0
0,46,55,120
0,53,55,0
0,58,55,0
0,62,55,0
0,70,55,0
0,46,117,120
0,53,117,0
0,58,117,0
0,62,117,0
0,70,117,0
0,46,55,68
0,53,55,0
0,58,55,0
0,62,55,0
0,70,55,0
0,46,97,120
0,53,97,0
0,58,97,0
0,62,97,0
0,70,97,0
0,46,55,120
0,53,60,0
0,58,55,0
0,62,55,0
0,70,55,0
0,46,117,120
0,53,117,0
0,58,117,0
0,62,117,0
0,70,117,0
0,65,88,0
0,46,55,192
0,53,55,0
0,58,55,0
0,62,55,0
0,70,64,0
0,46,95,8
0,53,95,0
0,58,95,0
0,62,95,0
0,70,95,0
0,74,92,0
0,46,55,120
0,53,64,0
0,58,55,0
0,62,64,0
0,70,55,0
0,46,119,120
0,53,119,0
0,58,119,0
0,62,119,0
0,70,119,0
0,72,80,112
0,46,55,0
0,53,55,0
0,58,55,0
0,62,55,0
0,70,55,0
0,48,93,4
0,53,93,0
0,60,93,0
0,63,93,0
0,69,93,0
0,75,88,0
0,48,55,120
0,53,62,0
0,60,55,0
0,63,60,0
0,69,55,0
0,48,114,120
0,53,114,0
0,60,114,0
0,63,114,0
0,69,114,0
0,48,55,120
0,53,55,0
0,60,55,0
0,63,62,0
0,69,55,0
0,48,93,120
0,53,93,0
0,60,93,0
0,63,93,0
0,69,93,0
0,48,55,8
0,53,55,0
0,60,55,0
0,63,55,0
0,69,64,0
0,48,119,16
0,53,119,0
0,60,119,0
0,63,119,0
0,69,119,0
0,48,55,8
0,53,55,0
0,60,55,0
0,63,55,0
0,69,55,0
0,48,99,28
0,53,99,0
0,60,99,0
0,63,99,0
0,69,99,0
0,48,64,96
0,53,60,0
0,60,58,0
0,63,58,0
0,69,55,0
0,48,85,120
0,53,85,0
0,60,85,0
0,63,85,0
0,69,85,0
0,65,88,0
0,48,55,120
0,53,55,0
0,60,55,0
0,63,60,0
0,69,55,0
0,48,104,36
0,53,104,0
0,60,104,0
0,63,104,0
0,69,104,0
0,70,92,0
0,48,55,120
0,53,55,0
0,60,55,0
0,63,55,0
0,69,55,0
0,53,117,120
0,60,117,0
0,63,117,0
0,69,117,0
0,69,84,120
0,53,58,0
0,60,64,0
0,63,55,0
0,69,55,0
0,46,101,12
0,53,101,0
0,58,101,0
0,62,101,0
0,70,101,0
0,70,76,0
0,46,55,120
0,53,58,0
0,58,55,0
0,62,55,0
0,70,55,0
0,46,117,120
0,53,117,0
0,58,117,0
0,62,117,0
0,70,117,0
0,46,55,192
0,53,55,0
0,58,55,0
0,62,64,0
0,70,60,0
0,46,101,120
0,53,101,0
0,58,101,0
0,62,101,0
0,46,62,120
0,53,55,0
0,58,55,0
0,62,55,0
0,46,117,120
0,53,117,0
0,58,117,0
0,62,117,0
0,70,117,0
0,46,62,120
0,53,56,0
0,58,62,0
0,62,55,0
0,70,64,0
0,46,104,8
0,53,104,0
0,58,104,0
0,62,104,0
0,70,104,0
0,46,58,120
0,53,55,0
0,58,55,0
0,62,55,0
0,70,55,0
0,46,119,120
0,53,119,0
0,58,119,0
0,62,119,0
0,70,119,0
0,65,88,0
0,46,55,192
0,53,55,0
0,58,62,0
0,62,55,0
0,70,55,0
0,46,104,16
0,53,104,0
0,58,104,0
0,62,104,0
0,70,104,0
0,74,80,0
0,46,55,120
0,53,56,0
0,58,55,0
0,62,64,0
0,70,56,0
0,46,119,120
0,53,119,0
0,58,119,0
0,62,119,0
0,70,119,0
0,72,76,104
0,46,55,0
0,53,55,0
0,58,64,0
0,62,55,0
0,70,55,0
0,48,104,4
0,53,104,0
0,60,104,0
0,63,104,0
0,69,104,0
0,75,84,0
0,48,55,120
0,53,55,0
0,60,55,0
0,63,55,0
0,69,55,0
0,48,117,120
0,53,117,0
0,60,117,0
0,63,117,0
0,69,117,0
0,48,55,120
0,53,62,0
0,60,64,0
0,63,55,0
0,69,55,0
0,48,101,120
0,53,101,0
0,60,101,0
0,63,101,0
0,69,101,0
0,48,60,120
0,53,55,0
0,60,55,0
0,63,55,0
0,69,62,0
0,48,119,120
0,53,119,0
0,60,119,0
0,63,119,0
0,69,119,0
0,48,55,120
0,53,55,0
0,60,62,0
0,63,55,0
0,69,55,0
0,48,95,8
0,53,95,0
0,60,95,0
0,63,95,0
0,69,95,0
0,48,55,120
0,53,55,0
0,60,64,0
0,63,56,0
0,69,55,0
0,48,121,120
0,53,121,0
0,60,121,0
0,63,121,0
0,69,121,0
0,65,92,0
0,48,55,120
0,53,62,0
0,60,62,0
0,63,55,0
0,69,55,0
0,48,104,4
0,53,104,0
0,60,104,0
0,63,104,0
0,69,104,0
0,70,92,0
0,48,62,120
0,53,56,0
0,60,64,0
0,63,55,0
0,69,55,0
0,48,117,120
0,53,117,0
0,60,117,0
0,63,117,0
0,69,117,0
0,69,84,120
0,48,55,0
0,53,58,0
0,60,64,0
0,63,55,0
0,69,55,0
0,46,99,12
0,53,99,0
0,58,99,0
0,62,99,0
0,70,99,0
0,70,72,0
0,46,62,120
0,53,62,0
0,58,56,0
0,62,55,0
0,70,55,0
0,46,117,120
0,53,117,0
0,58,117,0
0,62,117,0
0,70,117,0
0,46,58,192
0,53,55,0
0,58,56,0
0,62,55,0
0,70,62,0
0,46,93,120
0,53,93,0
0,58,93,0
0,62,93,0
0,70,93,0
0,46,60,120
0,53,55,0
0,58,55,0
0,62,55,0
0,70,62,0
0,46,121,120
0,53,121,0
0,58,121,0
0,62,121,0
0,70,121,0
0,46,64,120
0,53,55,0
0,58,55,0
0,62,55,0
0,70,58,0
0,46,97,8
0,53,97,0
0,58,97,0
0,62,97,0
0,70,97,0
0,46,55,120
0,53,55,0
0,58,64,0
0,62,55,0
0,70,64,0
0,46,121,120
0,53,121,0
0,58,121,0
0,62,121,0
0,70,121,0
0,46,60,192
0,53,55,0
0,58,55,0
0,62,55,0
0,70,64,0
0,46,95,120
0,53,95,0
0,58,95,0
0,62,95,0
0,70,95,0
0,74,66,0
0,75,80,92
0,46,55,0
0,53,62,0
0,58,55,0
0,62,55,0
0,70,58,0
0,46,119,84
0,53,119,0
0,58,119,0
0,62,119,0
0,70,119,0
0,77,92,0
0,46,62,24
0,53,55,0
0,58,55,0
0,62,55,0
0,70,55,0
0,79,60,24
0,48,101,16
0,53,101,0
0,60,101,0
0,63,101,0
0,69,101,0
0,77,80,0
0,72,62,8
0,48,55,0
0,53,60,0
0,60,55,0
0,63,55,0
0,69,55,0
0,48,114,40
0,53,114,0
0,60,114,0
0,63,114,0
0,69,114,0
0,72,80,0
0,48,55,120
0,53,62,0
0,60,60,0
0,63,55,0
0,69,55,0
0,48,104,120
0,53,104,0
0,60,104,0
0,63,104,0
0,69,104,0
0,48,55,120
0,53,64,0
0,60,55,0
0,63,64,0
0,69,55,0
0,48,121,120
0,53,121,0
0,60,121,0
0,63,121,0
0,69,121,0
0,48,55,120
0,53,55,0
0,60,55,0
0,63,55,0
0,69,55,0
0,48,93,120
0,53,93,0
0,60,93,0
0,63,93,0
0,69,93,0
0,48,58,120
0,53,55,0
0,60,62,0
0,63,55,0
0,69,62,0
0,48,119,120
0,53,119,0
0,60,119,0
0,63,119,0
0,69,119,0
0,48,55,120
0,53,55,0
0,60,55,0
0,63,55,0
0,69,55,0
0,48,97,120
0,53,97,0
0,60,97,0
0,63,97,0
0,69,97,0
0,72,84,0
0,74,72,16
0,48,55,0
0,53,60,0
0,60,55,0
0,63,64,0
0,69,55,0
0,48,119,16
0,53,119,0
0,60,119,0
0,63,119,0
0,69,119,0
0,75,76,0
0,48,64,120
0,53,55,0
0,60,55,0
0,63,55,0
0,69,55,0
0,77,88,24
0,46,101,32
0,53,101,0
0,58,101,0
0,62,101,0
0,70,101,0
0,74,66,0
0,46,55,120
0,53,56,0
0,58,64,0
0,62,55,0
0,70,60,0
0,46,117,120
0,53,117,0
0,58,117,0
0,62,117,0
0,70,117,0
0,46,64,192
0,53,56,0
0,58,55,0
0,62,55,0
0,70,55,0
0,46,95,120
0,53,95,0
0,58,95,0
0,62,95,0
0,70,95,0
0,46,62,120
0,53,60,0
0,58,56,0
0,62,55,0
0,70,55,0
0,46,119,120
0,53,119,0
0,58,119,0
0,62,119,0
0,70,119,0
0,46,64,120
0,53,64,0
0,58,64,0
0,62,55,0
0,70,64,0
0,46,99,8
0,53,99,0
0,58,99,0
0,62,99,0
0,70,99,0
0,46,62,120
0,53,58,0
0,58,58,0
0,62,55,0
0,70,55,0
0,46,119,120
0,53,119,0
0,58,119,0
0,62,119,0
0,70,119,0
0,46,62,192
0,53,56,0
0,58,64,0
0,62,55,0
0,70,55,0
0,46,104,120
0,53,104,0
0,58,104,0
0,62,104,0
0,70,104,0
0,74,80,0
0,75,88,48
0,46,56,0
0,53,64,0
0,58,58,0
0,62,64,0
0,70,58,0
0,46,119,60
0,53,119,0
0,58,119,0
0,62,119,0
0,77,84,0
0,46,62,32
0,53,55,0
0,58,62,0
0,62,64,0
0,79,58,24
0,48,99,12
0,53,99,0
0,60,99,0
0,63,99,0
0,69,99,0
0,77,80,0
0,72,68,4
0,48,58,0
0,53,55,0
0,60,55,0
0,63,62,0
0,69,55,0
0,48,119,56
0,53,119,0
0,60,119,0
0,63,119,0
0,69,119,0
0,72,84,0
0,48,55,120
0,53,64,0
0,60,58,0
0,63,55,0
0,69,55,0
0,48,106,120
0,53,106,0
0,60,106,0
0,63,106,0
0,69,106,0
0,48,55,120
0,53,56,0
0,60,55,0
0,63,55,0
0,69,64,0
0,48,117,120
0,53,117,0
0,60,117,0
0,63,117,0
0,69,117,0
0,48,55,120
0,53,62,0
0,60,55,0
0,63,55,0
0,69,55,0
0,48,104,120
0,53,104,0
0,60,104,0
0,63,104,0
0,69,104,0
0,48,58,120
0,53,56,0
0,60,64,0
0,63,55,0
0,69,64,0
0,48,119,120
0,53,119,0
0,60,119,0
0,63,119,0
0,69,119,0
0,48,62,120
0,53,55,0
0,60,55,0
0,63,60,0
0,69,55,0
0,48,104,116
0,53,104,0
0,60,104,0
0,63,104,0
0,69,104,0
0,72,80,0
0,74,66,8
0,48,60,0
0,53,55,0
0,60,55,0
0,63,55,0
0,69,55,0
0,48,119,20
0,53,119,0
0,60,119,0
0,63,119,0
0,69,119,0
0,75,76,0
0,48,55,120
0,53,56,0
0,60,55,0
0,63,64,0
0,69,55,0
0,77,80,24
0,46,104,24
0,53,104,0
0,58,104,0
0,62,104,0
0,70,104,0
0,74,72,0
0,46,55,120
0,53,62,0
0,58,62,0
0,62,55,0
0,70,60,0
0,46,121,120
0,53,121,0
0,58,121,0
0,62,121,0
0,70,121,0
0,46,64,120
0,53,62,0
0,58,55,0
0,62,55,0
0,70,55,0
0,46,101,120
0,53,101,0
0,58,101,0
0,62,101,0
0,70,101,0
0,46,55,120
0,53,55,0
0,58,60,0
0,62,55,0
0,70,62,0
0,46,119,120
0,53,119,0
0,58,119,0
0,62,119,0
0,70,119,0
0,46,55,120
0,53,55,0
0,58,56,0
0,62,55,0
0,70,64,0
0,46,99,8
0,53,99,0
0,58,99,0
0,62,99,0
0,70,99,0
0,46,60,120
0,53,60,0
0,58,55,0
0,62,55,0
0,70,58,0
0,46,76,120
0,46,117,0
0,53,117,0
0,58,117,0
0,62,117,0
0,70,117,0
0,46,62,192
0,53,58,0
0,58,56,0
0,62,55,0
0,70,62,0
0,45,78,20
0,46,99,0
0,53,99,0
0,58,99,0
0,62,99,0
0,77,80,0
0,79,56,60
0,46,55,0
0,53,64,0
0,58,60,0
0,62,55,0
0,43,82,8
0,46,114,0
