track,note,velocity,time
3,66,83,140
3,66,0,236
3,68,62,4
3,68,0,236
3,69,76,4
3,69,0,236
3,71,64,4
3,71,0,236
3,73,68,4
3,73,0,236
3,76,87,4
3,76,0,960
3,75,77,480
3,75,0,236
3,73,65,4
3,73,0,236
3,75,85,4
3,75,0,716
3,73,85,724
3,73,0,236
3,71,71,4
3,71,0,236
3,73,85,4
3,73,0,476
3,66,65,4
3,66,0,236
3,68,64,4
3,68,0,236
3,69,82,4
3,69,0,716
3,66,85,964
3,66,0,236
3,68,65,4
3,68,0,236
3,69,83,4
3,69,0,236
3,71,70,4
3,71,0,236
3,73,65,4
3,73,0,236
3,76,85,4
3,76,0,716
3,75,79,724
3,75,0,236
3,73,64,4
3,73,0,236
3,75,91,4
3,75,0,1196
3,73,85,4
3,73,0,476
3,71,78,4
3,71,0,476
3,73,85,4
3,73,0,2396
3,73,87,484
3,73,0,476
3,75,59,4
3,75,0,236
3,73,64,4
3,73,0,236
3,76,83,4
3,76,0,720
3,73,74,720
3,73,0,236
3,75,63,4
3,75,0,236
3,76,89,4
3,76,0,476
3,78,81,4
3,78,0,476
3,75,85,4
3,75,0,476
3,73,64,4
3,73,0,236
3,71,64,4
3,71,0,236
3,75,85,4
3,75,0,1436
3,76,79,4
3,76,0,476
3,73,82,4
3,73,0,1916
3,76,91,4
3,76,0,1436
3,75,66,4
3,75,0,236
3,73,64,4
3,73,0,236
3,75,85,4
3,75,0,1436
3,73,64,4
3,73,0,236
3,75,63,4
3,75,0,236
3,76,85,4
3,76,0,476
3,76,71,4
3,76,0,476
3,76,81,4
3,76,0,476
3,75,65,4
3,75,0,236
3,73,65,4
3,73,0,236
3,75,86,4
3,75,0,1440
3,76,90,0
3,76,0,2400
3,76,110,0
3,76,110,0
3,80,94,0
3,80,0,236
3,76,0,0
3,76,0,0
3,76,114,4
3,76,110,0
3,80,100,0
3,80,0,236
3,76,0,0
3,76,0,0
3,76,110,4
3,76,111,0
3,80,98,0
3,80,0,236
3,76,0,0
3,76,0,0
3,75,112,4
3,75,107,0
3,78,95,0
3,78,0,476
3,75,0,0
3,75,0,0
3,76,114,4
3,76,119,0
3,80,94,0
3,80,0,476
3,76,0,0
3,76,0,0
3,75,114,4
3,75,108,0
3,78,98,0
3,78,0,476
3,75,0,0
3,75,0,0
3,76,113,4
3,76,115,0
3,80,88,0
3,80,0,476
3,76,0,0
3,76,0,0
3,75,112,4
3,75,115,0
3,78,95,0
3,78,0,476
3,75,0,0
3,75,0,0
3,76,120,4
3,76,114,0
3,80,93,0
3,80,0,716
3,76,0,0
3,76,0,0
3,76,119,4
3,76,0,236
3,76,112,4
3,76,0,236
3,76,114,4
3,76,0,236
3,75,119,4
3,75,0,476
3,76,111,4
3,76,0,476
3,75,120,4
3,75,0,476
3,76,114,4
3,76,0,476
3,78,109,4
3,78,0,476
3,80,110,4
3,80,0,716
3,76,109,4
3,80,88,0
3,76,95,0
3,76,0,236
3,80,0,0
3,76,0,0
3,76,117,4
3,80,94,0
3,76,88,0
3,76,0,236
3,80,0,0
3,76,0,0
3,76,113,4
3,80,94,0
3,76,94,0
3,76,0,236
3,80,0,0
3,76,0,0
3,75,108,4
3,78,98,0
3,75,95,0
3,75,0,476
3,78,0,0
3,75,0,0
3,76,113,4
3,80,93,0
3,76,94,0
3,76,0,476
3,80,0,0
3,76,0,0
3,75,115,4
3,78,96,0
3,75,95,0
3,75,0,476
3,78,0,0
3,75,0,0
3,76,110,4
3,80,90,0
3,76,93,0
3,76,0,476
3,80,0,0
3,76,0,0
3,75,120,4
3,78,99,0
3,75,94,0
3,75,0,476
3,78,0,0
3,75,0,0
3,76,112,4
3,80,95,0
3,76,89,0
3,76,0,716
3,80,0,0
3,76,0,0
3,80,108,4
3,80,0,236
3,80,110,4
3,80,0,236
3,80,113,4
3,80,0,236
3,78,110,4
3,78,0,476
3,80,114,4
3,80,0,476
3,78,113,4
3,78,0,476
3,80,110,4
3,80,0,476
3,81,109,4
3,81,0,476
3,83,109,4
3,80,108,732
3,83,0,1889
3,80,0,5
3,83,121,254
3,83,110,0
3,80,109,0
3,80,0,236
3,83,0,0
3,83,0,0
3,83,114,4
3,83,110,0
3,80,110,0
3,80,0,236
3,83,0,0
3,83,0,0
3,83,114,4
3,83,114,0
3,80,109,0
3,80,0,236
3,83,0,0
3,83,0,0
3,83,115,4
3,83,116,0
3,80,112,0
3,80,0,236
3,83,0,0
3,83,0,0
3,80,111,4
3,80,112,0
3,76,105,0
3,76,0,236
3,80,0,0
3,80,0,0
3,80,115,4
3,80,112,0
3,76,110,0
3,76,0,236
3,80,0,0
3,80,0,0
3,80,109,4
3,80,116,0
3,76,105,0
3,76,0,116
3,80,0,0
3,80,0,0
3,80,121,4
3,80,109,0
3,76,116,0
3,76,0,356
3,80,0,0
3,80,0,0
3,76,114,4
3,76,113,0
3,73,110,0
3,73,0,236
3,76,0,0
3,76,0,0
3,76,108,4
3,76,117,0
3,73,110,0
3,73,0,236
3,76,0,0
3,76,0,0
3,76,113,4
3,76,105,0
3,73,110,0
3,73,0,236
3,76,0,0
3,76,0,0
3,76,113,4
3,76,108,0
3,73,109,0
3,73,0,236
3,76,0,0
3,76,0,0
3,73,111,4
3,73,108,0
3,69,106,0
3,69,0,236
3,73,0,0
3,73,0,0
3,73,107,4
3,73,110,0
3,69,109,0
3,69,0,236
3,73,0,0
3,73,0,0
3,73,120,4
3,73,110,0
3,69,108,0
3,69,0,476
3,73,0,0
3,73,0,0
3,71,115,4
3,68,110,0
3,71,112,0
3,71,0,236
3,68,0,0
3,71,0,0
3,71,112,4
3,71,110,0
3,68,112,0
3,71,0,956
3,68,0,480
3,71,0,0
3,83,109,4
3,78,116,0
3,71,110,0
3,66,108,0
3,66,0,1196
3,71,0,0
3,78,0,0
3,76,116,4
3,71,110,0
3,64,105,0
3,64,0,236
3,71,0,0
3,76,0,0
3,78,112,4
3,71,110,0
3,66,112,0
3,66,0,236
3,71,0,0
3,78,0,0
3,80,114,4
3,71,109,0
3,68,113,0
3,68,0,236
3,83,0,0
3,80,0,0
3,71,0,0
3,83,118,244
3,71,105,0
3,68,110,0
3,68,0,236
3,71,0,0
3,83,0,0
3,83,114,4
3,71,109,0
3,68,114,0
3,68,0,236
3,71,0,0
3,83,0,0
3,83,119,4
3,71,112,0
3,68,110,0
3,68,0,236
3,71,0,0
3,83,0,0
3,83,115,4
3,71,105,0
3,68,107,0
3,68,0,236
3,71,0,0
3,83,0,0
3,80,110,4
3,68,112,0
3,64,110,0
3,64,0,236
3,68,0,0
3,80,0,0
3,80,114,4
3,68,116,0
3,64,117,0
3,64,0,236
3,68,0,0
3,80,0,0
3,80,118,4
3,68,110,0
3,64,111,0
3,64,0,236
3,68,0,0
3,80,0,0
3,80,114,4
3,68,110,0
3,64,113,0
3,64,0,236
3,68,0,0
3,80,0,0
3,76,116,4
3,64,109,0
3,61,113,0
3,61,0,236
3,64,0,0
3,76,0,0
3,76,114,4
3,64,107,0
3,61,115,0
3,61,0,236
3,64,0,0
3,76,0,0
3,76,113,4
3,64,105,0
3,61,106,0
3,61,0,236
3,64,0,0
3,76,0,0
3,76,116,4
3,64,111,0
3,61,110,0
3,61,0,236
3,64,0,0
3,76,0,0
3,73,113,4
3,61,110,0
3,57,109,0
3,57,0,236
3,61,0,0
3,73,0,0
3,73,110,4
3,61,103,0
3,57,110,0
3,57,0,236
3,61,0,0
3,73,0,0
3,73,119,4
3,61,113,0
3,56,106,0
3,54,107,240
3,59,112,0
3,56,0,4
3,61,0,0
3,73,0,232
3,54,0,0
3,59,0,0
3,71,118,4
3,54,104,0
3,59,110,0
3,59,0,236
3,54,0,0
3,71,0,0
3,71,108,4
3,54,112,0
3,59,112,0
3,59,0,236
3,54,0,0
3,59,106,4
3,54,109,0
3,54,0,236
3,59,0,0
3,59,114,4
3,54,113,0
3,71,0,476
3,54,0,480
3,59,0,0
3,73,117,4
3,56,114,0
3,49,114,0
3,49,0,236
3,56,0,0
3,73,0,0
3,73,113,4
3,56,114,0
3,49,119,0
3,49,0,236
3,56,0,0
3,73,0,0
3,73,110,4
3,56,111,0
3,49,116,0
3,49,0,236
3,56,0,0
3,73,0,0
3,71,113,4
3,54,114,0
3,47,114,0
3,47,0,476
3,54,0,0
3,71,0,0
3,73,115,4
3,56,112,0
3,49,115,0
3,73,0,2156
3,49,0,480
3,56,0,0
3,72,85,4
3,72,84,0
3,67,83,0
3,67,0,236
3,72,0,0
3,72,0,0
3,72,84,4
3,72,83,0
3,67,90,0
3,67,0,236
3,72,0,0
3,72,0,0
3,72,86,4
3,72,85,0
3,67,89,0
3,67,0,236
3,72,0,0
3,72,0,0
3,71,84,4
3,71,89,0
3,66,81,0
3,66,0,476
3,71,0,0
3,71,0,0
3,72,84,4
3,72,78,0
3,67,83,0
3,72,0,716
3,67,0,932
3,72,0,28
3,66,84,7204
3,66,0,236
3,68,85,4
3,68,0,236
3,69,84,4
3,69,0,236
3,71,85,4
3,71,0,236
3,73,81,4
3,73,0,236
3,76,84,4
3,76,0,716
3,75,87,724
3,75,0,236
3,73,84,4
3,73,0,236
3,75,80,4
3,75,0,716
3,73,82,724
3,73,0,236
3,71,78,4
3,71,0,236
3,73,81,4
3,73,0,476
3,66,79,4
3,66,0,236
3,68,83,4
3,68,0,236
3,69,87,4
3,69,0,716
3,66,83,964
3,66,0,236
3,68,87,4
3,68,0,236
3,69,84,4
3,69,0,236
3,71,90,4
3,71,0,236
3,73,81,4
3,73,0,236
3,76,86,4
3,76,0,716
3,75,89,724
3,75,0,236
3,73,82,4
3,73,0,236
3,75,79,4
3,75,0,716
3,73,84,724
3,73,0,236
3,71,84,4
3,71,0,236
3,73,84,4
3,73,0,804
3,73,83,1356
3,64,85,0
3,69,90,0
3,73,84,0
3,73,0,476
3,73,0,0
3,64,0,0
3,69,0,0
3,75,80,4
3,75,80,0
3,72,85,0
3,66,81,0
3,66,0,476
3,75,0,0
3,75,0,0
3,72,0,0
3,76,86,4
3,76,84,0
3,73,84,0
3,68,84,0
3,68,0,476
3,73,0,0
3,76,0,0
3,76,0,720
3,73,80,4
3,73,0,236
3,75,90,4
3,75,0,236
3,76,87,4
3,76,0,476
3,78,78,4
3,78,0,476
3,75,82,4
3,75,0,476
3,73,84,4
3,73,0,236
3,71,84,4
3,71,0,236
3,75,86,4
3,75,0,1676
3,76,88,4
3,76,0,236
3,73,88,4
3,73,0,1676
3,76,84,484
3,73,112,0
3,76,110,0
3,73,0,480
3,76,0,0
3,73,105,0
3,76,111,0
3,73,0,480
3,76,0,0
3,76,0,236
3,75,79,4
3,75,116,0
3,71,109,0
3,71,0,236
3,75,0,0
3,75,0,0
3,73,108,4
3,76,113,0
3,76,83,0
3,76,0,454
3,76,0,0
3,73,0,0
3,75,108,26
3,71,110,0
3,75,0,1200
3,73,81,0
3,73,112,0
3,69,112,0
3,69,0,236
3,71,0,0
3,73,0,0
3,73,0,0
3,75,85,4
3,75,110,0
3,71,110,0
3,71,0,236
3,75,0,0
3,75,0,0
3,76,79,4
3,76,110,0
3,73,115,0
3,73,0,476
3,76,0,0
3,76,110,4
3,73,109,0
3,76,0,236
3,76,77,4
3,73,0,236
3,76,0,0
3,76,112,4
3,73,110,0
3,76,0,236
3,73,0,240
3,76,0,0
3,75,111,4
3,71,109,0
3,71,0,236
3,75,0,0
3,76,110,4
3,73,114,0
3,69,113,0
3,69,0,236
3,73,0,0
3,76,0,0
3,75,107,4
3,71,112,0
3,75,0,1207
3,76,86,5
3,76,0,895
3,71,0,34
3,76,114,19
3,76,111,0
3,80,86,0
3,80,0,236
3,76,0,0
3,76,0,0
3,76,114,4
3,76,110,0
3,80,84,0
3,80,0,236
3,76,0,0
3,76,0,0
3,76,108,4
3,76,117,0
3,80,84,0
3,80,0,236
3,76,0,0
3,76,0,0
3,75,113,4
3,75,110,0
3,78,78,0
3,78,0,476
3,75,0,0
3,75,0,0
3,76,113,4
3,76,112,0
3,80,79,0
3,80,0,476
3,76,0,0
3,76,0,0
3,75,115,4
3,75,107,0
3,78,89,0
3,78,0,476
3,75,0,0
3,75,0,0
3,76,109,4
3,76,110,0
3,80,85,0
3,80,0,476
3,76,0,0
3,76,0,0
3,75,111,4
3,75,111,0
3,78,82,0
3,78,0,476
3,75,0,0
3,75,0,0
3,76,114,4
3,76,110,0
3,80,82,0
3,80,0,716
3,76,0,0
3,76,0,0
3,76,117,4
3,76,0,236
3,76,114,4
3,76,0,236
3,76,109,4
3,76,0,236
3,75,113,4
3,75,0,476
3,76,107,4
3,76,0,476
3,75,108,4
3,75,0,476
3,76,114,4
3,76,0,476
3,78,114,4
3,78,0,476
3,80,111,4
3,80,0,716
3,76,118,4
3,76,86,0
3,80,88,0
3,80,0,236
3,76,0,0
3,76,0,0
3,76,115,4
3,80,87,0
3,76,81,0
3,76,0,236
3,80,0,0
3,76,0,0
3,76,114,4
3,80,84,0
3,76,84,0
3,76,0,236
3,80,0,0
3,76,0,0
3,75,114,4
3,78,77,0
3,75,84,0
3,75,0,476
3,78,0,0
3,75,0,0
3,76,116,4
3,80,87,0
3,76,84,0
3,76,0,476
3,80,0,0
3,76,0,0
3,75,115,4
3,78,82,0
3,75,79,0
3,75,0,476
3,78,0,0
3,75,0,0
3,76,108,4
3,80,87,0
3,76,84,0
3,76,0,476
3,80,0,0
3,76,0,0
3,75,110,4
3,78,89,0
3,75,79,0
3,75,0,476
3,78,0,0
3,75,0,0
3,76,113,4
3,80,91,0
3,76,79,0
3,76,0,716
3,80,0,0
3,76,0,0
3,80,105,4
3,80,0,236
3,80,110,4
3,80,0,236
3,80,116,4
3,80,0,236
3,78,109,4
3,78,0,476
3,80,110,4
3,80,0,476
3,78,104,4
3,78,0,476
3,80,109,4
3,80,0,476
3,81,111,4
3,81,0,476
3,80,118,4
3,83,110,0
3,80,107,0
3,83,0,716
3,80,0,0
3,80,104,24
3,83,113,0
3,80,0,1680
3,83,0,189
3,80,0,27
3,83,115,244
3,80,116,0
3,83,114,0
3,83,0,236
3,80,0,0
3,83,0,0
3,83,114,4
3,83,103,0
3,80,112,0
3,80,0,236
3,83,0,0
3,83,0,0
3,83,113,4
3,83,109,0
3,80,106,0
3,80,0,236
3,83,0,0
3,83,0,0
3,83,107,4
3,83,109,0
3,80,113,0
3,80,0,236
3,83,0,0
3,83,0,0
3,80,107,4
3,80,112,0
3,76,113,0
3,76,0,236
3,80,0,0
3,80,0,0
3,80,114,4
3,80,112,0
3,76,106,0
3,76,0,236
3,80,0,0
3,80,0,0
3,80,114,4
3,80,110,0
3,76,110,0
3,76,0,116
3,80,0,0
3,80,0,0
3,80,114,4
3,80,112,0
3,76,105,0
3,76,0,356
3,80,0,0
3,80,0,0
3,76,114,4
3,76,105,0
3,73,109,0
3,73,0,236
3,76,0,0
3,76,0,0
3,76,111,4
3,76,110,0
3,73,110,0
3,73,0,236
3,76,0,0
3,76,0,0
3,76,114,4
3,76,106,0
3,73,107,0
3,73,0,236
3,76,0,0
3,76,0,0
3,76,114,4
3,73,112,0
3,76,111,0
3,76,0,236
3,73,0,0
3,76,0,0
3,73,113,4
3,73,109,0
3,69,115,0
3,69,0,236
3,73,0,0
3,73,0,0
3,73,116,4
3,73,105,0
3,69,110,0
3,69,0,236
3,73,0,0
3,73,0,0
3,73,115,4
3,73,115,0
3,69,108,0
3,69,0,476
3,73,0,0
3,73,0,0
3,71,108,4
3,71,104,0
3,68,111,0
3,68,0,236
3,71,0,0
3,71,0,0
3,71,120,4
3,71,105,0
3,68,111,0
3,71,0,956
3,68,0,480
3,71,0,0
3,83,114,4
3,78,110,0
3,71,115,0
3,66,104,0
3,66,0,1196
3,71,0,0
3,78,0,0
3,76,118,4
3,71,107,0
3,64,110,0
3,64,0,236
3,71,0,0
3,76,0,0
3,78,110,4
3,71,109,0
3,66,109,0
3,66,0,236
3,71,0,0
3,78,0,0
3,80,114,4
3,71,105,0
3,68,111,0
