track,note,velocity,time
3,69,95,13680
3,69,0,236
3,69,95,4
3,69,0,236
3,69,95,4
3,69,0,236
3,69,95,4
3,69,0,236
3,67,95,4
3,67,0,236
3,67,95,4
3,67,0,236
3,67,95,4
3,67,0,236
3,67,95,4
3,67,0,236
3,66,95,4
3,66,0,236
3,66,95,4
3,66,0,236
3,64,95,4
3,64,0,236
3,64,95,4
3,64,0,236
3,66,95,4
3,66,0,236
3,66,95,4
3,66,0,476
3,69,95,244
3,69,0,236
3,69,95,4
3,69,0,236
3,69,95,4
3,69,0,236
3,69,95,4
3,69,0,236
3,67,95,4
3,67,0,236
3,67,95,4
3,67,0,236
3,67,95,4
3,67,0,236
3,67,95,4
3,67,0,236
3,66,95,4
3,66,0,236
3,66,95,4
3,66,0,236
3,64,95,4
3,64,0,236
3,64,95,4
3,64,0,236
3,66,95,4
3,66,0,236
3,66,95,4
3,66,0,476
3,69,95,244
3,69,0,236
3,69,95,4
3,69,0,236
3,69,95,4
3,69,0,236
3,69,95,4
3,69,0,236
3,67,95,4
3,67,0,236
3,67,95,4
3,67,0,236
3,67,95,4
3,67,0,236
3,67,95,244
3,67,0,236
3,67,95,4
3,67,0,236
3,67,95,4
3,67,0,236
3,67,95,4
3,67,0,236
3,67,95,4
3,67,0,236
3,66,95,4
3,66,0,236
3,64,95,4
3,64,0,236
3,67,95,4
3,67,0,476
3,69,95,724
3,69,0,236
3,69,95,4
3,69,0,236
3,69,95,4
3,69,0,236
3,69,95,4
3,69,0,236
3,67,95,4
3,67,0,236
3,67,95,4
3,67,0,236
3,67,95,4
3,67,0,236
3,67,95,4
3,67,0,236
3,66,95,4
3,66,0,236
3,66,95,4
3,66,0,236
3,64,95,4
3,64,0,236
3,64,95,4
3,64,0,236
3,66,95,4
3,66,0,236
3,66,95,4
3,66,0,476
3,69,95,244
3,69,0,236
3,69,95,4
3,69,0,236
3,69,95,4
3,69,0,236
3,69,95,4
3,69,0,236
3,67,95,4
3,67,0,236
3,67,95,4
3,67,0,236
3,66,95,4
3,66,0,236
3,72,95,4
3,72,0,236
3,71,95,4
3,71,0,236
3,71,95,4
3,71,0,236
3,69,95,4
3,69,0,236
3,69,95,4
3,69,0,236
3,71,95,4
3,71,0,236
3,71,95,4
3,71,0,476
3,71,95,244
3,71,0,236
3,71,95,4
3,71,0,236
3,71,95,4
3,71,0,236
3,71,95,4
3,71,0,236
3,69,95,4
3,69,0,236
3,69,95,4
3,69,0,236
3,69,95,4
3,69,0,236
3,69,95,244
3,69,0,236
3,69,95,4
3,69,0,236
3,69,95,4
3,69,0,236
3,69,95,4
3,69,0,236
3,67,95,4
3,67,0,236
3,67,95,4
3,67,0,236
3,67,95,4
3,67,0,236
3,67,95,244
3,67,0,236
3,67,95,4
3,67,0,236
3,67,95,4
3,67,0,236
3,66,95,4
3,66,0,236
3,66,95,4
3,66,0,236
3,66,95,4
3,66,0,236
3,66,95,4
3,66,0,2156
3,64,95,4
3,64,0,476
3,66,95,4
3,66,0,476
3,59,95,4
3,59,0,476
3,62,95,4
3,62,0,476
3,64,95,4
3,64,0,1436
3,62,95,484
3,62,0,476
3,64,95,4
3,64,0,476
3,57,95,4
3,57,0,476
3,59,95,4
3,59,0,236
3,62,95,4
3,62,0,236
3,64,95,4
3,64,0,716
3,66,95,4
3,66,0,236
3,59,95,4
3,59,0,476
3,62,95,244
3,62,0,236
3,64,95,4
3,64,0,476
3,66,95,4
3,66,0,476
3,59,95,4
3,59,0,476
3,62,95,4
3,62,0,476
3,64,95,4
3,64,0,476
3,64,95,244
3,64,0,116
3,64,95,4
3,64,0,116
3,67,95,4
3,67,0,236
3,66,95,4
3,66,0,236
3,62,95,4
3,62,0,476
3,62,95,4
3,62,0,476
3,64,95,4
3,64,0,476
3,57,95,4
3,57,0,476
3,59,95,4
3,59,0,236
3,62,95,4
3,62,0,236
3,64,95,4
3,64,0,716
3,66,95,4
3,66,0,236
3,59,95,4
3,59,0,476
3,62,95,244
3,62,0,236
3,64,95,4
3,64,0,476
3,66,95,4
3,66,0,476
3,59,95,4
3,59,0,476
3,62,95,4
3,62,0,476
3,64,95,4
3,64,0,476
3,64,95,244
3,64,0,116
3,64,95,4
3,64,0,116
3,67,95,4
3,67,0,236
3,66,95,4
3,66,0,236
3,62,95,4
3,62,0,476
3,62,95,4
3,62,0,476
3,64,95,4
3,64,0,476
3,57,95,4
3,57,0,476
3,59,95,4
3,59,0,236
3,62,95,4
3,62,0,236
3,64,95,4
3,64,0,716
3,66,95,4
3,66,0,236
3,59,95,4
3,59,0,476
3,62,95,244
3,62,0,236
3,64,95,4
3,64,0,476
3,66,95,4
3,66,0,476
3,59,95,4
3,59,0,476
3,62,95,4
3,62,0,476
3,64,95,4
3,64,0,476
3,64,95,244
3,64,0,116
3,64,95,4
3,64,0,116
3,67,95,4
3,67,0,236
3,66,95,4
3,66,0,236
3,62,95,4
3,62,0,476
3,62,95,4
3,62,0,476
3,64,95,4
3,64,0,476
3,57,95,4
3,57,0,476
3,59,95,4
3,59,0,236
3,62,95,4
3,62,0,236
3,64,95,4
3,64,0,716
3,66,95,4
3,66,0,236
3,59,95,4
3,59,0,476
3,62,95,244
3,62,0,236
3,64,95,4
3,64,0,476
3,66,95,4
3,66,0,476
3,59,95,4
3,59,0,476
3,62,95,4
3,62,0,476
3,64,95,4
3,64,0,476
3,64,95,244
3,64,0,116
3,64,95,4
3,64,0,116
3,67,95,4
3,67,0,236
3,66,95,4
3,66,0,476
3,62,95,4
3,62,0,236
3,62,95,4
3,62,0,1916
3,69,95,9844
3,69,0,236
3,69,95,4
3,69,0,236
3,69,95,4
3,69,0,236
3,69,95,4
3,69,0,236
3,67,95,4
3,67,0,236
3,67,95,4
3,67,0,236
3,67,95,4
3,67,0,236
3,67,95,4
3,67,0,236
3,66,95,4
3,66,0,236
3,69,95,1684
3,69,0,236
3,69,95,4
3,69,0,236
3,69,95,4
3,69,0,236
3,69,95,4
3,69,0,236
3,67,95,4
3,67,0,236
3,67,95,4
3,67,0,236
3,67,95,4
3,67,0,236
3,67,95,4
3,67,0,236
3,66,95,4
3,66,0,236
3,66,95,4
3,66,0,236
3,64,95,4
3,64,0,236
3,64,95,4
3,64,0,236
3,66,95,4
3,66,0,236
3,66,95,4
3,66,0,476
3,69,95,244
3,69,0,236
3,69,95,4
3,69,0,236
3,69,95,4
3,69,0,236
3,69,95,4
3,69,0,236
3,67,95,4
3,67,0,236
3,67,95,4
3,67,0,236
3,67,95,4
3,67,0,236
3,67,95,244
3,67,0,236
3,67,95,4
3,67,0,236
3,67,95,4
3,67,0,236
3,67,95,4
3,67,0,236
3,67,95,4
3,67,0,236
3,66,95,4
3,66,0,236
3,64,95,4
3,64,0,236
3,67,95,4
3,67,0,476
3,69,95,724
3,69,0,236
3,69,95,4
3,69,0,236
3,69,95,4
3,69,0,236
3,69,95,4
3,69,0,236
3,67,95,4
3,67,0,236
3,67,95,4
3,67,0,236
3,67,95,4
3,67,0,236
3,67,95,4
3,67,0,236
3,66,95,4
3,66,0,236
3,66,95,4
3,66,0,236
3,64,95,4
3,64,0,236
3,64,95,4
3,64,0,236
3,66,95,4
3,66,0,236
3,66,95,4
3,66,0,476
3,69,95,244
3,69,0,236
3,69,95,4
3,69,0,236
3,69,95,4
3,69,0,236
3,69,95,4
3,69,0,236
3,67,95,4
3,67,0,236
3,67,95,4
3,67,0,236
3,66,95,4
3,66,0,236
3,72,95,4
3,72,0,236
3,71,95,4
3,71,0,236
3,71,95,4
3,71,0,236
3,69,95,4
3,69,0,236
3,69,95,4
3,69,0,236
3,71,95,4
3,71,0,236
3,71,95,4
3,71,0,476
3,71,95,244
3,71,0,236
3,71,95,4
3,71,0,236
3,71,95,4
3,71,0,236
3,71,95,4
3,71,0,236
3,69,95,4
3,69,0,236
3,69,95,4
3,69,0,236
3,69,95,4
3,69,0,236
3,69,95,244
3,69,0,236
3,69,95,4
3,69,0,236
3,69,95,4
3,69,0,236
3,69,95,4
3,69,0,236
3,67,95,4
3,67,0,236
3,67,95,4
3,67,0,236
3,67,95,4
3,67,0,236
3,67,95,244
3,67,0,236
3,67,95,4
3,67,0,236
3,67,95,4
3,67,0,236
3,67,95,4
3,67,0,236
3,66,95,4
3,66,0,236
3,66,95,4
3,66,0,236
3,66,95,4
3,66,0,2156
3,64,95,4
3,64,0,476
3,66,95,4
3,66,0,476
3,59,95,4
3,59,0,476
3,62,95,4
3,62,0,476
3,64,95,4
3,64,0,1436
3,62,95,484
3,62,0,476
3,64,95,4
3,64,0,476
3,57,95,4
3,57,0,476
3,59,95,4
3,59,0,236
3,62,95,4
3,62,0,236
3,64,95,4
3,64,0,716
3,66,95,4
3,66,0,236
3,59,95,4
3,59,0,476
3,62,95,244
3,62,0,236
3,64,95,4
3,64,0,476
3,66,95,4
3,66,0,476
3,59,95,4
3,59,0,476
3,62,95,4
3,62,0,476
3,64,95,4
3,64,0,476
3,64,95,244
3,64,0,116
3,64,95,4
3,64,0,116
3,67,95,4
3,67,0,236
3,66,95,4
3,66,0,236
3,62,95,4
3,62,0,476
3,62,95,4
3,62,0,476
3,64,95,4
3,64,0,476
3,57,95,4
3,57,0,476
3,59,95,4
3,59,0,236
3,62,95,4
3,62,0,236
3,64,95,4
3,64,0,716
3,66,95,4
3,66,0,236
3,59,95,4
3,59,0,476
3,62,95,244
3,62,0,236
3,64,95,4
3,64,0,476
3,66,95,4
3,66,0,476
3,59,95,4
3,59,0,476
3,62,95,4
3,62,0,476
3,64,95,4
3,64,0,476
3,64,95,244
3,64,0,116
3,64,95,4
3,64,0,116
3,67,95,4
3,67,0,236
3,66,95,4
3,66,0,236
3,62,95,4
3,62,0,476
3,62,95,4
3,62,0,476
3,64,95,4
3,64,0,476
3,57,95,4
3,57,0,476
3,59,95,4
3,59,0,236
3,62,95,4
3,62,0,236
3,64,95,4
3,64,0,716
3,66,95,4
3,66,0,236
3,59,95,4
3,59,0,476
3,62,95,244
3,62,0,236
3,64,95,4
3,64,0,476
3,66,95,4
3,66,0,476
3,59,95,4
3,59,0,476
3,62,95,4
3,62,0,476
3,64,95,4
3,64,0,476
3,64,95,244
3,64,0,116
3,64,95,4
3,64,0,116
3,67,95,4
3,67,0,236
3,66,95,4
3,66,0,236
3,62,95,4
3,62,0,476
3,62,95,4
3,62,0,476
3,64,95,4
3,64,0,476
3,57,95,4
3,57,0,476
3,59,95,4
3,59,0,236
3,62,95,4
3,62,0,236
3,64,95,4
3,64,0,716
3,66,95,4
3,66,0,236
3,59,95,4
3,59,0,476
3,62,95,244
3,62,0,236
3,64,95,4
3,64,0,476
3,66,95,4
3,66,0,476
3,59,95,4
3,59,0,476
3,62,95,4
3,62,0,476
3,64,95,4
3,64,0,476
3,64,95,244
3,64,0,116
3,64,95,4
3,64,0,116
3,67,95,4
3,67,0,236
3,66,95,4
3,66,0,476
3,62,95,4
3,62,0,236
3,62,95,4
3,69,95,240
3,69,0,236
3,69,95,4
3,69,0,236
3,69,95,4
3,69,0,236
3,69,95,4
3,69,0,236
3,67,95,4
3,67,0,236
3,67,95,4
3,67,0,236
3,67,95,4
3,67,0,236
3,62,0,0
3,67,95,4
3,67,0,236
3,66,95,4
3,66,0,236
3,66,95,4
3,66,0,236
3,64,95,4
3,64,0,236
3,64,95,4
3,64,0,236
3,66,95,4
3,66,0,236
3,66,95,4
3,66,0,476
3,69,95,244
3,69,0,236
3,69,95,4
3,69,0,236
3,69,95,4
3,69,0,236
3,69,95,4
3,69,0,236
3,67,95,4
3,67,0,236
3,67,95,4
3,67,0,236
3,66,95,4
3,66,0,236
3,72,95,4
3,72,0,236
3,71,95,4
3,71,0,236
3,71,95,4
3,71,0,236
3,69,95,4
3,69,0,236
3,69,95,4
3,69,0,236
3,66,95,4
3,66,0,236
3,67,95,4
3,67,0,236
3,69,95,4
3,69,0,236
4,69,85,788
4,69,0,236
4,81,85,4
4,81,0,236
4,76,85,4
4,76,0,1423
4,57,85,0
4,57,0,236
4,69,85,4
4,69,0,236
4,64,85,4
4,64,0,5
4,69,85,6
4,69,0,122
4,81,85,4
4,81,0,236
4,76,85,4
4,76,0,7
4,57,85,0
4,57,0,172
4,69,85,4
4,69,0,236
4,62,85,4
4,62,0,1258
4,54,85,1285
4,57,85,0
4,57,0,3262
4,54,0,0
4,57,85,591
4,54,85,0
4,54,0,291
4,57,0,0
4,52,85,3529
4,55,85,0
4,55,0,246
4,52,0,0
4,54,85,734
4,57,85,0
4,57,0,2989
4,54,0,0
4,69,85,111
4,69,0,236
4,81,85,4
4,81,0,236
4,76,85,4
4,76,0,1409
4,72,85,0
4,60,85,0
4,72,0,172
4,71,85,4
4,71,0,236
4,60,0,0
4,71,85,4
4,62,85,0
4,71,0,236
4,69,85,4
4,69,0,236
4,62,0,0
4,69,85,4
4,62,85,0
4,69,0,236
4,71,85,4
4,71,0,236
4,71,85,4
4,71,0,476
4,62,0,0
4,52,110,7684
4,52,0,476
4,54,110,4
4,54,0,476
4,47,110,4
4,47,0,476
4,50,110,4
4,50,0,476
4,49,110,4
4,52,110,0
4,52,0,1894
4,49,0,0
4,50,60,15411
4,50,0,476
4,52,60,4
4,52,0,476
4,45,60,4
4,45,0,476
4,47,60,4
4,47,0,236
4,50,60,4
4,50,0,236
4,52,60,4
4,52,0,716
4,54,60,4
4,54,0,236
4,47,60,4
4,47,0,476
4,50,60,244
4,50,0,236
4,52,60,4
4,52,0,476
4,54,60,4
4,54,0,476
4,47,60,4
4,47,0,476
4,50,60,4
4,50,0,476
4,45,60,4
4,45,0,476
4,52,60,244
4,52,0,116
4,52,60,4
4,52,0,116
4,55,60,4
4,55,0,236
4,54,60,4
4,54,0,236
4,50,60,4
4,50,0,476
4,50,60,4
4,50,0,476
4,52,60,4
4,52,0,476
4,45,60,4
4,45,0,476
4,47,60,4
4,47,0,236
4,50,60,4
4,50,0,236
4,52,60,4
4,52,0,716
4,54,60,4
4,54,0,236
4,47,60,4
4,47,0,476
4,50,60,244
4,50,0,236
4,52,60,4
4,52,0,476
4,54,60,4
4,54,0,476
4,47,60,4
4,47,0,476
4,50,60,4
4,50,0,476
4,45,60,4
4,45,0,476
4,52,60,244
4,52,0,116
4,52,60,4
4,52,0,116
4,55,60,4
4,55,0,236
4,54,60,4
4,54,0,476
4,50,60,4
4,50,0,236
4,50,60,4
4,50,0,1916
4,69,85,1179
4,69,0,236
4,81,85,4
4,81,0,236
4,76,85,4
4,76,0,1442
4,57,85,698
4,57,0,236
4,69,85,4
4,69,0,236
4,64,85,4
4,64,0,2235
4,57,85,6
4,57,0,162
4,69,85,4
4,69,0,236
4,62,85,4
4,62,0,4
4,54,85,2225
4,57,85,0
4,57,0,3808
4,54,0,0
4,54,85,33
4,57,85,0
4,57,0,317
4,54,0,0
4,55,85,3503
4,52,85,0
4,52,0,272
4,55,0,0
4,54,85,708
4,57,85,0
4,69,85,3100
4,69,0,236
4,81,85,4
4,81,0,236
4,76,85,4
4,57,0,214
4,54,0,0
4,76,0,9
4,48,85,10
4,60,85,0
4,60,0,126
4,59,85,4
4,59,0,236
4,48,0,0
4,59,85,4
4,50,85,0
4,59,0,236
4,57,85,4
4,57,0,236
4,50,0,0
4,57,85,4
4,50,85,0
4,57,0,236
4,59,85,4
4,59,0,236
4,59,85,4
4,59,0,476
4,50,0,0
4,52,106,7684
4,52,0,476
4,54,106,4
4,54,0,476
4,47,106,4
4,47,0,476
4,50,106,4
4,50,0,476
4,52,106,4
4,49,106,0
4,49,0,1436
4,52,0,0
4,54,85,31204
4,50,85,0
4,50,0,3775
4,54,0,0
4,57,85,72
4,54,85,0
4,54,0,2950
4,57,0,0
4,54,85,163
4,54,0,236
4,55,85,4
4,55,0,236
4,57,85,4
4,57,0,752
5,50,100,1920
5,50,0,476
5,50,100,4
5,50,0,476
5,50,100,4
5,50,0,476
5,50,100,4
5,50,0,476
5,50,100,4
5,50,0,476
5,50,100,4
5,50,0,476
5,50,100,4
5,50,0,476
