track,note,velocity,time
3,35,88,7287
3,35,0,89
3,37,88,7
3,37,0,89
3,39,88,7
3,39,0,95
3,40,76,1
3,40,0,101
3,40,66,43
3,40,0,47
3,42,80,1
3,42,0,95
3,42,62,49
3,42,0,43
3,35,68,5
3,35,0,84
3,35,68,60
3,35,0,47
3,40,68,1
3,40,0,162
3,37,80,30
3,37,0,112
3,37,66,32
3,37,0,44
3,35,68,4
3,35,0,113
3,35,60,31
3,35,0,48
3,34,68,0
3,34,0,87
3,37,76,9
3,37,0,94
3,35,64,2
3,35,0,59
3,44,76,37
3,44,0,40
3,42,66,8
3,42,0,40
3,40,76,8
3,40,0,105
3,40,66,39
3,40,0,47
3,42,66,1
3,42,0,103
3,42,62,41
3,42,0,45
3,44,66,3
3,44,0,105
3,44,68,39
3,44,0,47
3,37,60,1
3,37,0,69
3,37,68,27
3,37,0,40
3,35,60,8
3,35,0,46
3,33,68,2
3,33,0,103
3,33,68,41
3,33,0,21
3,33,76,27
3,33,0,149
3,33,66,43
3,33,0,95
3,33,64,49
3,33,0,23
3,33,76,25
3,33,0,107
3,38,64,37
3,38,0,16
3,39,60,8
3,39,0,19
3,40,68,5
3,40,0,103
3,40,72,41
3,40,0,43
3,38,68,5
3,38,0,103
3,38,54,41
3,38,0,42
3,37,62,6
3,37,0,57
3,37,68,39
3,37,0,85
3,39,66,11
3,39,0,95
3,41,76,1
3,41,0,67
3,42,84,29
3,42,0,80
3,44,80,16
3,44,0,80
3,45,66,16
3,45,0,48
3,33,80,0
3,33,0,36
3,35,66,108
3,35,0,83
3,47,68,13
3,47,0,45
3,35,58,3
3,35,0,24
3,35,66,24
3,35,0,86
3,42,54,10
3,42,0,48
3,35,58,0
3,35,0,48
3,40,66,0
3,40,0,108
3,40,35,36
3,40,0,47
3,43,66,1
3,43,0,106
3,43,62,38
3,43,0,46
3,42,64,2
3,42,0,89
3,42,68,55
3,42,0,45
3,35,64,3
3,35,0,60
3,35,52,36
3,35,0,22
3,37,58,2
3,37,0,22
3,39,66,2
3,39,0,47
3,40,72,1
3,40,0,95
3,40,54,49
3,43,64,48
3,40,0,1
3,43,0,103
3,43,60,40
3,43,0,45
3,42,64,3
3,42,0,89
3,49,36,55
3,49,0,47
3,47,30,1
3,47,0,108
3,44,54,36
3,44,0,48
3,40,68,0
3,40,0,106
3,40,66,38
3,40,0,19
3,35,58,29
3,35,0,94
3,40,62,2
3,40,0,95
3,35,64,1
3,35,0,95
3,35,56,49
3,35,0,47
3,40,66,1
3,40,0,94
3,31,64,50
3,31,0,22
3,32,54,2
3,32,0,23
3,33,62,1
3,33,0,105
3,33,66,39
3,33,0,76
3,33,58,20
3,33,0,120
3,37,68,24
3,37,0,103
3,37,76,41
3,37,0,20
3,37,64,28
3,37,0,121
3,37,38,23
3,37,0,47
3,42,56,1
3,42,0,110
3,42,54,34
3,42,0,16
3,42,56,32
3,42,0,47
3,44,60,1
3,44,0,48
3,45,66,0
3,45,0,83
3,47,66,13
3,47,0,128
3,42,68,40
3,42,0,14
3,35,68,10
3,35,0,76
3,37,76,20
3,37,0,45
3,39,62,3
3,39,0,47
3,40,76,1
3,40,0,103
3,40,64,41
3,40,0,22
3,40,64,26
3,40,0,104
3,40,54,40
3,40,0,21
3,42,64,27
3,42,0,106
3,42,52,38
3,42,0,35
3,35,68,13
3,35,0,79
3,42,58,17
3,42,0,45
3,35,62,3
3,35,0,48
3,40,64,0
3,40,0,103
3,40,56,41
3,40,0,21
3,40,64,27
3,40,0,73
3,40,64,23
3,40,0,87
3,45,64,9
3,45,0,111
3,40,58,33
3,40,0,43
3,45,60,5
3,45,0,63
3,33,76,33
3,33,0,48
3,35,66,0
3,35,0,47
3,37,76,1
3,37,0,124
3,37,54,20
3,37,0,28
3,37,66,20
3,37,0,95
3,37,46,49
3,37,0,24
3,39,56,0
3,39,0,22
3,49,66,2
3,49,0,79
3,49,54,65
3,49,0,36
3,49,62,12
3,49,0,112
3,49,64,32
3,49,0,47
3,42,60,1
3,42,0,97
3,42,64,47
3,42,0,38
3,40,64,10
3,40,0,98
3,40,66,46
3,40,0,47
3,35,62,1
3,35,0,47
3,42,60,1
3,42,0,47
3,35,68,1
3,35,0,77
3,37,72,19
3,37,0,69
3,39,62,27
3,39,0,70
3,40,76,26
3,40,0,104
3,40,64,40
3,40,0,47
3,42,62,1
3,42,0,103
3,42,58,41
3,42,0,47
3,35,64,1
3,35,0,64
3,42,64,32
3,42,0,65
3,40,76,31
3,40,0,177
3,37,80,15
3,37,0,101
3,37,66,43
3,37,0,36
3,35,66,12
3,35,0,110
3,35,58,34
3,35,0,40
3,34,68,8
3,34,0,79
3,37,66,17
3,37,0,88
3,35,62,8
3,35,0,79
3,44,66,17
3,44,0,45
3,42,64,3
3,42,0,44
3,40,66,4
3,40,0,112
3,40,64,32
3,40,0,48
3,42,64,0
3,42,0,106
3,42,50,38
3,42,0,47
3,44,66,1
3,44,0,113
3,44,42,31
3,44,0,45
3,37,66,3
3,37,0,48
3,49,52,24
3,49,0,15
3,37,66,9
3,37,0,45
3,35,42,3
3,35,0,47
3,33,58,1
3,33,0,111
3,33,58,33
3,33,0,24
3,33,68,24
3,33,0,89
3,45,66,7
3,45,0,91
3,33,76,5
3,33,0,106
3,33,64,38
3,33,0,30
3,33,76,18
3,33,0,109
3,38,60,35
3,38,0,14
3,39,62,10
3,39,0,16
3,40,76,8
3,40,0,123
3,40,66,21
3,40,0,35
3,38,68,13
3,38,0,117
3,38,64,27
3,38,0,44
3,37,66,4
3,37,0,61
3,37,66,35
3,37,0,75
3,39,80,21
3,39,0,62
3,41,64,34
3,41,0,82
3,42,68,14
3,42,0,61
3,44,64,35
3,44,0,67
3,45,39,29
3,45,0,47
3,33,68,1
3,33,0,35
3,35,68,109
3,35,0,81
3,35,66,15
3,35,0,95
3,47,56,1
3,47,0,32
3,47,60,16
3,47,0,47
3,35,62,1
3,35,0,88
3,40,66,8
3,40,0,114
3,40,56,30
3,40,0,47
3,52,56,1
3,52,0,161
3,40,66,31
3,40,0,120
3,40,58,24
3,40,0,33
3,40,56,15
3,40,0,184
3,42,71,2312
3,42,0,191
3,40,72,1
3,40,0,185
3,39,58,7
3,39,0,75
3,35,68,21
3,35,0,66
3,37,80,30
3,37,0,63
3,39,72,33
3,39,0,91
3,40,64,5
3,40,0,111
3,40,64,33
3,40,0,45
3,42,58,3
3,42,0,106
3,42,62,38
3,42,0,44
3,35,62,4
3,35,0,121
3,35,62,23
3,35,0,46
3,40,64,2
3,40,0,119
3,40,52,25
3,40,0,20
3,39,58,4
3,39,0,22
3,37,84,2
3,37,0,116
3,37,56,28
3,37,0,42
3,35,58,6
3,35,0,115
3,35,52,29
3,35,0,47
3,34,72,1
3,34,0,71
3,37,68,25
3,37,0,77
3,35,60,19
3,35,0,68
3,44,64,28
3,44,0,47
3,42,64,1
3,42,0,43
3,40,68,5
3,40,0,106
3,40,66,38
3,40,0,48
3,42,62,0
3,42,0,100
3,42,64,44
3,42,0,47
3,44,56,1
3,44,0,98
3,44,76,46
3,44,0,46
3,37,54,2
3,37,0,64
3,37,64,32
3,37,0,47
3,35,58,1
3,35,0,47
3,33,62,1
3,33,0,105
3,33,62,39
3,33,0,21
3,33,64,27
3,33,0,140
3,45,54,4
3,45,0,21
3,33,72,27
3,33,0,103
3,33,54,41
3,33,0,28
3,33,62,20
3,33,0,95
3,38,68,1
3,38,0,20
3,39,62,4
3,39,0,70
3,40,80,2
3,40,0,99
3,40,66,45
3,40,0,47
3,38,56,1
3,38,0,103
3,38,64,41
3,38,0,46
3,37,64,2
3,37,0,57
3,37,62,39
3,37,0,74
3,39,64,22
3,39,0,73
3,41,76,23
3,41,0,91
3,42,72,5
3,42,0,75
3,44,52,21
3,44,0,94
3,45,62,2
3,45,0,47
3,33,66,1
3,33,0,36
3,35,64,108
3,47,56,96
3,35,0,2
3,47,0,52
3,35,52,18
3,35,0,10
3,35,66,14
3,35,0,91
3,42,52,5
3,42,0,47
3,35,64,1
3,35,0,45
3,40,66,3
3,40,0,99
3,40,64,45
3,40,0,47
3,38,66,1
3,38,0,93
3,38,60,51
3,38,0,46
3,37,54,2
3,37,0,62
3,37,64,34
3,37,0,89
3,39,66,7
3,39,0,95
3,41,80,1
3,41,0,95
3,42,64,1
3,42,0,89
3,44,62,7
3,44,0,83
3,45,68,13
3,45,0,47
3,33,68,1
3,33,0,43
3,35,64,101
3,35,0,383
3,40,64,1
3,40,0,190
3,30,68,2
3,30,0,181
3,32,72,11
3,32,0,188
3,33,64,4
3,33,0,191
3,40,66,1
3,40,0,696
4,28,62,660
4,40,58,2
4,52,52,37
4,28,0,6
4,40,0,1
4,52,0,10
4,56,48,7
4,56,0,15
4,59,56,1
4,59,0,15
4,64,68,1
4,56,72,8
4,64,0,1
4,59,37,7
4,64,58,8
4,56,0,1
4,59,0,1
4,68,52,6
4,64,0,4
4,71,66,4
4,68,0,4
4,59,66,4
4,71,0,1
4,68,62,7
4,64,34,8
4,68,0,4
4,71,56,4
4,64,0,2
4,76,64,6
4,71,0,1
4,76,0,7
4,64,66,0
4,64,0,8
4,71,39,0
4,76,58,8
4,71,0,3
4,59,0,0
4,80,54,5
4,76,0,3
4,83,76,5
4,80,0,3
4,83,0,4
4,76,66,33
4,87,56,0
4,70,66,0
4,66,54,1
4,85,60,21
4,87,0,13
4,87,60,11
4,85,0,1
4,76,0,12
4,70,0,1
4,66,0,2
4,87,0,4
4,66,66,4
4,83,66,0
4,73,54,23
4,73,0,41
4,76,64,7
4,76,0,46
4,73,50,2
4,66,0,1
4,73,0,5
4,63,54,6
4,69,58,0
4,59,56,0
4,83,0,23
4,80,62,8
4,80,0,19
4,71,50,17
4,75,56,8
4,80,58,4
4,69,0,5
4,59,0,6
4,83,64,1
4,63,0,3
4,83,0,34
4,80,0,5
4,75,0,3
4,71,0,5
4,52,56,10
4,56,54,4
4,59,58,8
4,64,34,0
4,68,52,4
4,71,56,4
4,76,66,3
4,59,0,29
4,64,0,10
4,56,0,0
4,52,0,10
4,76,0,13
4,71,0,22
4,68,0,10
4,55,66,42
4,58,54,8
4,61,62,8
4,64,22,8
4,67,66,4
4,70,52,3
4,73,64,8
4,76,76,8
4,64,0,48
4,61,0,0
4,76,0,9
4,58,0,1
4,55,0,8
4,73,0,4
4,67,0,6
4,70,0,40
4,54,64,15
4,57,56,8
4,61,52,12
4,64,64,4
4,69,64,4
4,73,66,5
4,57,0,50
4,54,0,10
4,73,0,16
4,69,0,4
4,64,0,7
4,61,0,10
4,51,62,21
4,57,52,12
4,59,48,1
4,47,56,0
4,63,54,12
4,68,60,12
4,71,64,15
4,57,0,51
4,51,0,4
4,47,0,42
4,63,0,11
4,68,0,0
4,71,0,8
4,59,0,2
4,40,62,42
4,56,20,112
4,59,58,27
4,71,88,64
4,59,0,7
4,56,0,14
4,40,0,18
4,56,42,9
4,59,76,16
4,56,0,7
4,71,0,5
4,59,0,15
4,60,66,21
4,61,68,32
4,60,0,8
4,47,56,24
4,57,62,0
4,62,68,0
4,61,0,4
4,73,92,5
4,47,0,31
4,62,0,8
4,73,0,7
4,57,0,4
4,72,68,14
4,72,0,57
4,64,54,2
4,52,38,0
4,71,64,0
4,56,46,0
4,62,46,0
4,71,0,34
4,72,39,9
4,62,0,33
4,52,0,8
4,56,0,1
4,64,0,15
4,45,60,15
4,52,60,0
4,72,0,3
4,57,52,10
4,61,44,7
4,64,66,7
4,69,62,2
4,73,60,4
4,52,0,77
4,45,0,0
4,57,0,6
4,69,0,10
4,73,0,7
4,64,0,14
4,61,0,21
4,49,37,216
4,53,54,6
4,56,64,4
4,59,54,2
4,61,40,6
4,65,66,0
4,68,62,7
4,71,64,7
4,59,0,55
4,56,0,10
4,53,0,9
4,49,0,13
4,71,0,10
4,61,0,1
4,65,0,12
4,68,0,1
4,42,56,0
4,49,56,48
4,57,58,48
4,61,35,0
4,61,0,27
4,73,80,21
4,57,0,4
4,42,0,3
4,73,0,15
4,49,0,17
4,69,72,9
4,69,0,10
4,57,62,38
4,57,0,11
4,61,64,37
4,61,0,13
4,62,66,35
4,62,0,11
4,47,52,16
4,63,66,0
4,63,0,27
4,71,68,21
4,71,0,21
4,57,40,27
4,59,58,0
4,59,0,30
4,47,0,17
4,57,0,1
4,66,60,0
4,66,0,16
4,67,68,8
4,67,0,20
4,73,58,20
4,73,0,13
4,59,35,35
4,57,46,0
4,57,0,35
4,68,54,13
4,68,0,28
4,71,66,0
4,40,54,0
4,59,0,3
4,40,0,19
4,56,56,2
4,47,58,0
4,71,0,14
4,59,58,3
4,64,68,11
4,68,58,7
4,71,62,11
4,56,0,26
4,47,0,23
4,71,0,57
4,59,0,5
4,68,0,0
4,64,0,9
4,51,60,170
4,54,62,12
4,57,56,5
4,42,66,3
4,63,62,9
4,66,64,6
4,71,68,14
4,66,0,5
4,71,0,40
4,63,0,4
4,57,0,1
4,54,0,16
4,51,0,6
4,42,0,29
4,68,84,55
4,68,0,41
4,66,64,55
4,66,0,32
4,52,72,48
4,56,76,15
4,44,62,1
4,59,64,8
4,64,80,11
4,68,68,4
4,71,84,12
4,56,0,56
4,52,0,2
4,59,0,8
4,44,0,18
4,71,0,25
4,68,0,11
4,64,0,2
4,56,76,8
4,44,60,13
4,60,66,5
4,64,68,13
4,68,76,7
4,72,88,13
4,56,0,52
4,44,0,38
4,60,0,40
4,72,0,1
4,64,0,5
4,68,0,2
4,52,72,10
4,45,64,1
4,57,80,12
4,61,62,14
4,64,68,11
4,69,66,10
4,73,72,12
4,52,0,66
4,57,0,4
4,45,0,26
4,73,0,9
4,61,0,1
4,69,0,1
4,64,0,2
4,54,66,12
4,45,66,11
4,57,64,4
4,60,56,4
4,64,66,10
4,66,66,9
4,69,62,11
4,72,72,11
4,57,0,43
4,54,0,4
4,60,0,17
4,72,0,2
4,64,0,1
4,69,0,0
4,66,0,0
4,45,0,8
4,44,58,2
4,49,60,8
4,56,62,5
4,61,52,16
4,64,54,16
4,44,0,13
4,68,54,3
4,68,0,32
4,68,84,40
4,76,80,48
4,76,0,71
4,68,0,1
4,69,72,42
4,56,0,3
4,49,0,1
4,61,0,4
4,49,52,40
4,75,76,0
4,64,0,21
4,57,62,11
4,61,44,16
4,75,0,1
4,64,52,15
4,69,0,2
4,69,56,14
4,73,56,8
4,76,48,16
4,61,0,148
4,57,0,8
4,49,0,8
4,64,0,64
4,76,0,4
4,73,0,1
4,69,0,7
4,42,58,24
4,54,60,8
4,49,54,0
4,57,54,0
4,61,80,8
4,64,68,8
4,69,64,8
4,49,0,74
4,54,0,2
4,42,0,17
4,69,0,8
4,64,0,10
4,61,0,4
4,57,0,7
4,40,68,27
4,49,58,8
4,54,62,0
4,57,52,8
4,61,70,8
4,64,64,8
4,69,68,8
4,69,0,60
4,54,0,10
4,64,0,1
4,61,0,7
4,57,0,7
4,49,0,3
4,40,0,9
4,51,80,79
4,39,80,0
4,71,80,0
4,59,80,0
4,66,80,0
4,63,80,0
4,51,0,8
4,39,0,7
4,71,0,17
4,63,0,8
4,59,0,1
4,66,0,4
4,35,86,8
4,47,86,0
4,63,86,0
4,71,86,0
4,59,86,0
4,35,0,45
4,71,0,5
4,47,0,1
4,63,0,5
4,59,0,2
4,49,90,0
4,37,90,0
4,71,90,0
4,64,90,0
4,59,90,0
4,37,0,52
4,71,0,2
4,49,0,1
4,59,0,3
4,64,0,5
4,39,90,8
4,51,90,0
4,71,90,0
4,59,90,0
4,66,90,0
4,51,0,36
4,59,0,5
4,39,0,1
4,71,0,0
4,66,0,1
4,40,32,16
4,64,64,0
4,59,64,0
4,56,60,0
4,52,52,0
4,64,0,77
4,56,0,1
4,59,0,1
4,64,72,11
4,59,68,0
4,56,66,0
4,52,0,9
4,40,0,29
4,59,0,9
4,56,0,0
4,52,52,1
4,64,0,3
4,61,56,18
4,57,48,0
4,64,68,0
4,66,60,0
4,42,36,0
