track,note,velocity,time
1,35,95,1920
1,35,95,214
1,35,92,192
1,35,95,240
1,35,95,242
1,35,95,234
1,35,98,236
1,35,92,202
1,35,92,210
1,35,92,240
1,35,86,248
1,35,95,204
1,35,95,210
1,35,95,210
1,35,95,210
1,35,101,256
1,35,89,268
1,35,89,214
1,35,92,174
1,35,95,216
1,35,95,228
1,35,98,236
1,35,95,214
1,35,95,232
1,35,95,200
1,35,95,198
1,35,95,202
1,35,95,206
1,35,95,242
1,35,95,216
1,35,95,230
1,35,95,228
1,35,95,206
1,35,95,212
1,35,92,216
1,35,95,220
1,35,95,210
1,35,95,228
1,35,95,220
1,35,98,214
1,35,101,218
1,35,101,228
1,35,101,216
1,35,98,222
1,35,95,198
1,35,98,222
1,35,98,238
1,35,101,208
1,35,92,206
1,35,98,216
1,35,95,210
1,35,98,224
1,35,95,216
1,35,92,210
1,35,98,194
1,35,101,214
1,35,98,190
1,35,98,198
1,35,95,232
1,35,98,246
1,35,98,226
1,35,95,220
1,35,98,208
1,35,95,198
1,35,95,86
1,35,95,78
1,35,101,208
1,35,101,222
1,35,98,236
1,35,95,222
1,35,98,226
1,35,95,220
1,35,95,228
1,35,95,216
1,35,95,230
1,35,98,212
1,35,101,212
1,35,95,216
1,35,101,226
1,35,101,188
1,35,104,228
1,35,89,224
1,35,89,214
1,35,92,174
1,35,95,216
1,35,95,228
1,35,98,236
1,35,95,214
1,35,95,232
1,35,95,200
1,35,95,198
1,35,95,202
1,35,95,206
1,35,95,242
1,35,95,216
1,35,95,230
1,35,95,228
1,35,95,206
1,35,95,212
1,35,92,216
1,35,95,220
1,35,95,210
1,35,95,228
1,35,95,220
1,35,98,214
1,35,101,218
1,35,101,228
1,35,101,216
1,35,98,222
1,35,95,198
1,35,98,222
1,35,98,238
1,35,101,208
1,35,92,206
1,35,98,216
1,35,95,210
1,35,98,224
1,35,95,216
1,35,92,210
1,35,98,194
1,35,101,214
1,35,98,190
1,35,98,198
1,35,95,232
1,35,98,246
1,35,98,226
1,35,95,220
1,35,98,208
1,35,95,198
1,35,95,86
1,35,95,78
1,35,101,208
1,35,101,222
1,35,98,236
1,35,95,222
1,35,98,226
1,35,95,220
1,35,95,228
1,35,95,216
1,35,95,230
1,35,98,212
1,35,101,212
1,35,95,216
1,35,95,212
1,35,95,210
1,35,98,218
1,35,95,198
1,35,95,202
1,35,98,192
1,35,98,182
1,35,98,144
1,35,95,68
1,35,92,252
1,35,92,86
1,35,98,224
1,35,95,212
1,35,98,74
1,35,95,238
1,35,98,82
1,35,98,236
1,35,101,190
1,35,95,68
1,35,95,238
1,35,98,66
1,35,98,246
1,35,98,194
1,35,86,70
1,35,95,236
1,35,95,68
1,35,101,206
1,35,98,186
1,35,92,62
1,35,98,234
1,35,98,72
1,35,95,242
1,35,98,214
1,35,77,50
1,35,95,256
1,35,92,68
1,35,98,240
1,35,95,206
1,35,95,70
1,35,92,228
1,35,95,72
1,35,95,240
1,35,98,210
1,35,86,70
1,35,95,248
1,35,95,80
1,35,98,232
1,35,89,182
1,35,86,220
1,35,89,78
1,35,86,268
1,35,89,178
1,35,89,88
1,35,86,130
1,35,89,140
1,35,86,198
1,35,92,80
1,35,89,248
1,35,89,166
1,35,92,80
1,35,89,212
1,35,92,196
1,35,86,230
1,35,89,88
1,35,92,248
1,35,92,236
1,35,95,74
1,35,89,150
1,35,95,154
1,35,86,226
1,35,89,82
1,35,90,160
1,35,95,352
1,35,95,122
1,35,92,74
1,35,95,180
1,35,89,148
1,35,89,214
1,35,92,174
1,35,95,216
1,35,95,228
1,35,98,236
1,35,95,214
1,35,95,232
1,35,95,200
1,35,95,198
1,35,95,202
1,35,95,206
1,35,95,242
1,35,95,216
1,35,95,230
1,35,95,228
1,35,95,206
1,35,95,212
1,35,92,216
1,35,95,220
1,35,95,210
1,35,95,228
1,35,95,220
1,35,98,214
1,35,101,218
1,35,101,228
1,35,101,216
1,35,98,222
1,35,95,198
1,35,98,222
1,35,98,238
1,35,101,208
1,35,92,206
1,35,98,216
1,35,95,210
1,35,98,224
1,35,95,216
1,35,92,210
1,35,98,194
1,35,101,214
1,35,98,190
1,35,98,198
1,35,95,232
1,35,98,246
1,35,98,226
1,35,95,220
1,35,98,208
1,35,95,198
1,35,95,86
1,35,95,78
1,35,101,208
1,35,101,222
1,35,98,236
1,35,95,222
1,35,98,226
1,35,95,220
1,35,95,228
1,35,95,216
1,35,95,230
1,35,98,212
1,35,101,212
1,35,95,216
1,35,95,212
1,35,95,210
1,35,98,218
1,35,95,198
1,35,95,202
1,35,98,192
1,35,98,182
1,35,98,144
1,35,95,68
1,35,92,252
1,35,92,86
1,35,98,224
1,35,95,212
1,35,98,74
1,35,95,238
1,35,98,82
1,35,98,236
1,35,101,190
1,35,95,68
1,35,95,238
1,35,98,66
1,35,98,246
1,35,98,194
1,35,86,70
1,35,95,236
1,35,95,68
1,35,101,206
1,35,98,186
1,35,92,62
1,35,98,234
1,35,98,72
1,35,95,242
1,35,98,214
1,35,77,50
1,35,95,256
1,35,92,68
1,35,98,240
1,35,95,206
1,35,95,70
1,35,92,228
1,35,95,72
1,35,95,240
1,35,98,210
1,35,86,70
1,35,95,248
1,35,95,80
1,35,98,232
1,35,89,182
1,35,86,220
1,35,89,78
1,35,86,268
1,35,89,178
1,35,89,88
1,35,86,130
1,35,89,140
1,35,86,198
1,35,92,80
1,35,89,248
1,35,89,166
1,35,92,80
1,35,89,212
1,35,92,196
1,35,86,230
1,35,89,88
1,35,92,248
1,35,92,236
1,35,95,74
1,35,89,150
1,35,95,154
1,35,86,226
1,35,89,82
1,35,90,160
1,35,95,352
1,35,95,122
1,35,92,74
1,35,95,180
1,35,89,148
1,35,89,214
1,35,92,174
1,35,95,216
1,35,95,228
1,35,98,236
1,35,95,214
1,35,95,232
1,35,95,200
1,35,95,198
1,35,95,202
1,35,95,206
1,35,95,242
1,35,95,216
1,35,95,230
1,35,95,228
1,35,95,206
1,35,95,212
1,35,92,216
1,35,95,220
1,35,95,210
1,35,95,228
1,35,95,220
1,35,98,214
1,35,101,218
1,35,101,228
1,35,101,216
1,35,98,222
1,35,95,198
1,35,98,222
1,35,98,238
1,35,101,208
1,35,92,206
1,35,98,216
1,35,95,210
1,35,98,224
1,35,95,216
1,35,92,210
1,35,98,194
1,35,101,214
1,35,98,190
1,35,98,198
1,35,95,232
1,35,98,246
1,35,98,226
1,35,95,220
1,35,98,208
1,35,95,198
1,35,95,86
1,35,95,78
1,35,101,208
1,35,101,222
1,35,98,236
1,35,95,222
1,35,98,226
1,35,95,220
1,35,95,228
1,35,95,216
1,35,95,230
1,35,98,212
1,35,101,212
1,35,95,216
1,35,95,212
1,35,95,210
1,35,98,218
1,35,95,198
1,35,95,202
1,35,98,192
1,35,98,182
1,35,89,144
1,35,89,214
1,35,92,174
1,35,95,216
1,35,95,228
1,35,98,236
1,35,95,214
1,35,95,232
1,35,95,200
1,35,95,198
1,35,95,202
1,35,95,206
1,35,95,242
1,35,95,216
1,35,95,230
1,35,95,228
1,35,95,206
1,35,95,212
1,35,92,216
1,35,95,220
1,35,95,210
1,35,95,228
1,35,95,220
1,35,98,214
1,35,101,218
1,35,101,228
1,35,101,216
1,35,98,222
1,35,95,198
1,35,98,222
1,35,98,238
1,35,101,208
1,35,89,206
1,35,89,214
1,35,92,174
1,35,95,216
1,35,95,228
1,35,98,236
1,35,95,214
1,35,95,232
1,35,95,200
1,35,95,198
1,35,95,202
1,35,95,206
1,35,95,242
1,35,95,216
1,35,95,230
1,35,95,228
1,35,95,206
1,35,95,212
1,35,92,216
1,35,95,220
1,35,95,210
1,35,95,228
1,35,95,220
1,35,98,214
1,35,101,218
1,35,101,228
1,35,101,216
1,35,98,222
1,35,95,198
1,35,98,222
1,35,98,238
1,35,101,208
1,35,98,206
1,35,101,208
1,35,98,196
1,35,98,204
1,35,98,202
1,35,101,224
1,35,98,230
1,35,101,68
2,38,95,3452
2,38,104,626
2,38,101,592
2,38,101,626
2,38,104,614
2,38,101,614
2,38,101,196
2,38,101,106
2,38,101,98
2,38,89,104
2,38,89,104
2,38,101,288
2,38,95,682
2,38,95,642
2,38,98,660
2,38,92,666
2,38,92,634
2,38,95,650
2,38,98,660
2,38,98,640
2,38,98,638
2,38,101,628
2,38,101,648
2,38,98,652
2,38,98,652
2,38,98,650
2,38,101,648
2,38,86,442
2,38,86,116
2,38,80,120
2,38,95,496
2,38,101,636
2,38,98,644
2,38,98,650
2,38,92,648
2,38,92,644
2,38,89,650
2,38,98,644
2,38,98,644
2,38,98,646
2,38,98,644
2,38,98,626
2,38,98,644
2,38,98,628
2,38,86,252
2,38,95,114
2,38,86,104
2,38,86,122
2,38,89,102
2,38,101,278
2,38,95,654
2,38,95,642
2,38,98,660
2,38,92,666
2,38,92,634
2,38,95,650
2,38,98,660
2,38,98,640
2,38,98,638
2,38,101,628
2,38,101,648
2,38,98,652
2,38,98,652
2,38,98,650
2,38,101,648
2,38,86,442
2,38,86,116
2,38,80,120
2,38,95,496
2,38,101,636
2,38,98,644
2,38,98,650
2,38,92,648
2,38,92,644
2,38,89,650
2,38,98,644
2,38,98,644
2,38,98,646
2,38,98,644
2,38,98,626
2,38,98,644
2,38,98,628
2,38,83,252
2,38,77,266
2,38,83,278
2,38,80,250
2,38,86,248
2,38,89,238
2,38,86,216
2,38,86,212
2,38,92,578
2,38,98,608
2,38,98,612
2,38,98,612
2,38,101,604
2,38,98,618
2,38,101,642
2,38,101,622
2,38,101,630
2,38,101,628
2,38,101,616
2,38,101,620
2,38,104,632
2,38,101,608
2,38,104,636
2,38,95,434
2,38,98,88
2,38,86,96
2,38,89,490
2,38,89,628
2,38,89,634
2,38,89,644
2,38,92,640
2,38,86,636
2,38,86,644
2,38,92,620
2,38,92,644
2,38,92,636
2,38,89,632
2,38,95,636
2,38,89,642
2,38,92,660
2,38,95,636
2,38,86,504
2,38,95,118
2,38,89,114
2,38,95,492
2,38,95,642
2,38,98,660
2,38,92,666
2,38,92,634
2,38,95,650
2,38,98,660
2,38,98,640
2,38,98,638
2,38,101,628
2,38,101,648
2,38,98,652
2,38,98,652
2,38,98,650
2,38,101,648
2,38,86,442
2,38,86,116
2,38,80,120
2,38,95,496
2,38,101,636
2,38,98,644
2,38,98,650
2,38,92,648
2,38,92,644
2,38,89,650
2,38,98,644
2,38,98,644
2,38,98,646
2,38,98,644
2,38,98,626
2,38,98,644
2,38,98,628
2,38,83,252
2,38,77,266
2,38,83,278
2,38,80,250
2,38,86,248
2,38,89,238
2,38,86,216
2,38,86,212
2,38,92,578
2,38,98,608
2,38,98,612
2,38,98,612
2,38,101,604
2,38,98,618
2,38,101,642
2,38,101,622
2,38,101,630
2,38,101,628
2,38,101,616
2,38,101,620
2,38,104,632
2,38,101,608
2,38,104,636
2,38,95,434
2,38,98,88
2,38,86,96
2,38,89,490
2,38,89,628
2,38,89,634
2,38,89,644
2,38,92,640
2,38,86,636
2,38,86,644
2,38,92,620
2,38,92,644
2,38,92,636
2,38,89,632
2,38,95,636
2,38,89,642
2,38,92,660
2,38,95,636
2,38,86,504
2,38,95,118
2,38,89,114
2,38,95,492
2,38,95,642
2,38,98,660
2,38,92,666
2,38,92,634
2,38,95,650
2,38,98,660
2,38,98,640
2,38,98,638
2,38,101,628
2,38,101,648
2,38,98,652
2,38,98,652
2,38,98,650
2,38,101,648
2,38,86,442
2,38,86,116
2,38,80,120
2,38,95,496
2,38,101,636
2,38,98,644
2,38,98,650
2,38,92,648
2,38,92,644
2,38,89,650
2,38,98,644
2,38,98,644
2,38,98,646
2,38,98,644
2,38,98,626
2,38,98,644
2,38,98,628
2,38,83,252
2,38,77,266
2,38,83,278
2,38,80,250
2,38,86,248
2,38,89,238
2,38,86,216
2,38,86,212
2,38,95,578
2,38,95,642
2,38,98,660
2,38,92,666
2,38,92,634
2,38,95,650
2,38,98,660
2,38,98,640
2,38,98,638
2,38,101,628
2,38,101,648
2,38,98,652
2,38,98,652
2,38,98,650
2,38,101,648
2,38,86,442
2,38,86,116
2,38,80,120
2,38,95,496
2,38,95,642
2,38,98,660
2,38,92,666
2,38,92,634
2,38,95,650
2,38,98,660
2,38,98,640
2,38,98,638
2,38,101,628
2,38,101,648
2,38,98,652
2,38,98,652
2,38,98,650
2,38,101,648
2,38,86,442
2,38,86,116
2,38,80,120
2,38,86,496
2,38,86,680
2,38,97,584
2,38,98,44
2,38,98,302
2,38,95,92
3,42,86,3072
3,42,71,146
3,44,89,48
3,42,77,50
3,42,77,74
3,42,74,72
3,44,83,64
3,42,77,54
3,42,80,76
3,42,77,68
3,44,86,58
3,42,74,60
3,42,83,66
3,42,83,56
3,44,86,38
3,42,80,42
3,42,86,66
3,42,77,66
3,44,86,58
3,42,74,62
3,42,83,60
3,42,80,62
3,44,83,60
3,42,71,66
3,42,80,72
3,42,80,72
3,44,86,42
3,42,74,46
3,42,86,72
3,42,98,242
3,42,71,256
3,42,74,104
3,44,92,56
3,42,68,90
3,42,86,78
3,42,80,84
3,44,86,62
3,42,77,92
3,42,86,72
3,42,83,88
3,44,86,42
3,42,83,88
3,42,86,96
3,42,89,98
3,44,92,60
3,42,77,96
3,42,86,76
3,42,80,100
3,44,92,70
3,42,83,96
3,42,83,94
3,42,86,88
3,44,89,80
3,42,83,90
3,42,86,88
3,42,86,98
3,44,95,76
3,42,71,100
3,42,86,84
3,42,83,96
3,44,95,82
3,42,77,104
3,42,86,86
3,42,83,96
3,44,86,82
3,42,80,92
3,42,86,90
3,42,86,96
3,44,83,78
3,42,80,84
3,42,89,90
3,42,86,100
3,44,92,74
3,42,80,102
3,42,86,80
3,42,86,102
3,44,86,84
3,42,80,94
3,42,89,72
3,42,83,78
3,44,92,72
3,42,83,92
3,42,86,78
3,42,86,96
3,44,80,90
3,42,83,94
3,42,83,70
3,42,83,90
3,44,86,76
3,42,74,92
3,42,86,80
3,42,86,88
3,44,86,68
3,42,86,82
3,42,77,80
3,42,66,92
3,44,86,40
3,42,66,104
3,42,71,94
3,42,68,90
3,44,83,58
3,42,77,92
3,42,80,88
3,42,74,96
3,44,86,86
3,42,80,112
3,42,86,88
3,42,83,102
3,44,95,86
3,42,80,96
3,42,86,100
3,42,74,104
3,44,89,96
3,42,83,114
3,42,86,102
3,42,86,106
3,44,89,90
3,42,86,112
3,42,86,100
3,42,86,100
3,44,92,94
3,42,77,106
3,42,86,98
3,42,83,92
3,44,92,96
3,42,80,100
3,42,86,94
3,42,86,94
3,44,92,92
3,42,86,108
3,42,86,94
3,42,83,102
3,44,86,100
3,42,86,110
3,42,86,96
3,42,86,98
3,44,80,102
3,42,80,110
3,42,86,102
3,42,77,108
3,44,89,96
3,42,89,104
3,42,83,104
3,42,86,106
3,44,83,78
3,42,83,104
3,42,86,96
3,42,83,90
3,44,83,56
3,42,77,88
3,44,80,80
3,44,77,106
3,44,77,96
3,44,83,106
3,44,86,94
3,44,98,282
3,42,71,318
3,42,74,104
3,44,92,56
3,42,68,90
3,42,86,78
3,42,80,84
3,44,86,62
3,42,77,92
3,42,86,72
3,42,83,88
3,44,86,42
3,42,83,88
3,42,86,96
3,42,89,98
3,44,92,60
3,42,77,96
3,42,86,76
3,42,80,100
3,44,92,70
3,42,83,96
3,42,83,94
3,42,86,88
3,44,89,80
3,42,83,90
3,42,86,88
3,42,86,98
3,44,95,76
3,42,71,100
3,42,86,84
3,42,83,96
3,44,95,82
3,42,77,104
3,42,86,86
3,42,83,96
3,44,86,82
3,42,80,92
3,42,86,90
3,42,86,96
3,44,83,78
3,42,80,84
3,42,89,90
3,42,86,100
3,44,92,74
3,42,80,102
3,42,86,80
3,42,86,102
3,44,86,84
3,42,80,94
3,42,89,72
3,42,83,78
3,44,92,72
3,42,83,92
3,42,86,78
3,42,86,96
3,44,80,90
3,42,83,94
3,42,83,70
3,42,83,90
3,44,86,76
3,42,74,92
3,42,86,80
3,42,86,88
