track,note,velocity,time
0,42,75,940
0,42,75,372
0,42,75,372
0,42,75,372
0,42,75,372
0,42,75,372
0,42,75,372
0,89,100,324
0,88,99,16
0,86,97,16
0,84,95,16
0,42,75,0
0,83,93,4
0,81,91,16
0,79,90,0
0,77,88,0
0,76,86,0
0,74,84,0
0,72,82,0
0,71,80,0
0,69,79,0
0,67,77,0
0,64,75,0
0,65,75,0
0,62,73,0
0,60,71,0
0,59,70,0
0,57,68,0
0,55,66,0
0,53,64,0
0,52,62,0
0,50,61,0
0,33,104,0
0,61,76,0
0,73,86,0
0,64,66,0
0,61,64,0
0,57,66,0
0,35,88,0
0,42,75,0
0,69,32,0
0,57,92,92
0,61,96,0
0,64,100,0
0,69,84,0
0,69,23,0
0,46,46,0
0,69,59,0
0,33,86,32
0,69,44,0
0,57,82,12
0,61,86,0
0,64,88,0
0,69,66,0
0,40,88,0
0,42,75,0
0,69,32,0
0,69,23,4
0,33,86,36
0,46,46,0
0,69,59,0
0,57,82,8
0,61,86,0
0,64,84,0
0,69,92,0
0,69,44,0
0,35,88,8
0,42,75,0
0,69,32,0
0,33,84,24
0,69,23,0
0,40,74,60
0,57,84,0
0,61,86,0
0,64,84,0
0,69,88,0
0,46,46,0
0,69,59,0
0,42,82,16
0,69,44,0
0,45,84,12
0,59,70,0
0,71,64,0
0,40,88,0
0,42,75,0
0,69,32,0
0,69,23,12
0,46,46,8
0,69,59,0
0,69,44,0
0,33,84,4
0,62,72,0
0,74,70,0
0,62,66,0
0,57,58,0
0,66,62,0
0,35,88,0
0,42,75,0
0,69,32,0
0,57,86,96
0,62,88,0
0,66,76,0
0,69,92,0
0,69,23,0
0,46,46,4
0,69,59,0
0,33,88,96
0,69,44,0
0,57,84,72
0,62,88,0
0,66,74,0
0,69,88,0
0,40,88,0
0,42,75,0
0,69,32,0
0,69,23,0
0,33,84,64
0,46,46,0
0,69,59,0
0,57,76,96
0,62,86,0
0,66,82,0
0,69,84,0
0,69,44,0
0,35,88,72
0,42,75,0
0,69,32,0
0,40,88,24
0,69,23,0
0,28,76,44
0,57,76,0
0,62,84,0
0,66,86,0
0,69,92,0
0,46,46,0
0,69,59,0
0,28,76,4
0,69,44,0
0,30,100,72
0,61,72,0
0,73,88,0
0,40,88,0
0,42,75,0
0,69,32,0
0,59,76,16
0,71,86,0
0,69,23,12
0,32,80,4
0,46,46,0
0,69,59,0
0,57,66,52
0,69,72,0
0,69,44,12
0,33,84,12
0,59,76,0
0,71,80,0
0,64,72,0
0,61,62,0
0,57,56,0
0,35,88,0
0,42,75,0
0,69,32,0
0,57,82,96
0,61,86,0
0,64,88,0
0,69,92,0
0,69,23,0
0,46,46,4
0,69,59,0
0,61,62,24
0,73,76,0
0,33,86,12
0,69,44,0
0,57,78,4
0,61,86,0
0,64,86,0
0,69,86,0
0,40,88,0
0,42,75,0
0,69,32,0
0,69,23,4
0,33,104,64
0,61,60,0
0,73,72,0
0,46,46,0
0,69,59,0
0,57,74,96
0,61,82,0
0,64,76,0
0,69,86,0
0,69,44,0
0,35,88,72
0,42,75,0
0,69,32,0
0,33,84,56
0,69,23,0
0,40,70,72
0,57,84,0
0,61,84,0
0,64,96,0
0,69,92,0
0,46,46,0
0,69,59,0
0,42,84,16
0,69,44,0
0,81,85,0
0,85,87,0
0,88,99,0
0,93,91,0
0,45,100,8
0,40,88,0
0,42,75,0
0,69,32,0
0,81,107,0
0,85,111,0
0,88,115,0
0,93,107,0
0,69,23,96
0,46,46,72
0,69,59,0
0,69,44,4
0,80,91,0
0,83,95,0
0,88,87,0
0,92,95,0
0,33,100,12
0,66,64,0
0,62,66,0
0,57,56,0
0,35,88,0
0,42,75,0
0,69,32,0
0,80,103,0
0,83,111,0
0,88,107,0
0,92,95,0
0,57,84,96
0,62,100,0
0,66,86,0
0,69,86,0
0,69,23,0
0,46,46,12
0,69,59,0
0,33,86,12
0,69,44,0
0,78,91,0
0,81,91,0
0,86,91,0
0,90,91,0
0,57,84,12
0,62,88,0
0,66,88,0
0,69,86,0
0,40,88,0
0,42,75,0
0,69,32,0
0,78,103,0
0,81,107,0
0,86,111,0
0,90,103,0
0,69,23,0
0,33,96,64
0,46,46,0
0,69,59,0
0,57,76,96
0,62,86,0
0,66,86,0
0,69,82,0
0,69,44,0
0,35,88,72
0,42,75,0
0,69,32,0
0,33,78,44
0,40,88,0
0,69,23,0
0,28,96,12
0,57,80,0
0,62,88,0
0,66,86,0
0,69,82,0
0,46,46,0
0,69,59,0
0,69,44,96
0,30,96,20
0,40,88,0
0,42,75,0
0,69,32,0
0,69,23,72
0,32,72,20
0,46,66,0
0,69,59,0
0,69,44,28
0,33,84,12
0,61,66,0
0,73,82,0
0,61,56,0
0,64,72,0
0,57,62,0
0,35,88,0
0,42,75,0
0,69,32,0
0,57,80,96
0,61,84,0
0,64,84,0
0,69,88,0
0,69,23,0
0,46,46,8
0,69,59,0
0,33,86,76
0,69,44,0
0,57,80,72
0,61,84,0
0,64,82,0
0,69,86,0
0,40,88,0
0,42,75,0
0,69,32,0
0,69,23,92
0,33,100,68
0,46,46,0
0,69,59,0
0,57,76,96
0,61,82,0
0,64,86,0
0,69,86,0
0,69,44,0
0,35,88,72
0,42,75,0
0,69,32,0
0,33,78,40
0,69,23,0
0,40,78,72
0,57,84,0
0,61,84,0
0,64,92,0
0,69,92,0
0,46,46,0
0,69,59,0
0,42,92,16
0,69,44,0
0,45,88,4
0,59,72,0
0,71,86,0
0,40,88,0
0,42,75,0
0,69,32,0
0,69,23,96
0,46,46,72
0,69,59,0
0,69,44,4
0,33,104,4
0,62,74,0
0,74,82,0
0,66,58,0
0,62,66,0
0,57,54,0
0,35,88,0
0,42,75,0
0,69,32,0
0,57,86,96
0,62,88,0
0,66,86,0
0,69,92,0
0,69,23,0
0,46,46,0
0,69,59,0
0,33,84,96
0,69,44,0
0,57,78,72
0,62,88,0
0,66,86,0
0,69,84,0
0,40,88,0
0,42,75,0
0,69,32,0
0,69,23,0
0,33,84,72
0,46,46,0
0,69,59,0
0,57,82,96
0,62,92,0
0,66,86,0
0,69,84,0
0,69,44,0
0,35,88,72
0,42,75,0
0,69,32,0
0,33,80,48
0,40,88,0
0,69,23,0
0,28,88,4
0,57,84,0
0,62,100,0
0,66,88,0
0,69,88,0
0,46,46,0
0,69,59,0
0,69,44,40
0,30,84,8
0,61,72,0
0,73,96,0
0,40,88,0
0,42,75,0
0,69,32,0
0,59,68,8
0,71,84,0
0,69,23,12
0,32,86,8
0,46,46,0
0,69,59,0
0,57,52,64
0,69,64,0
0,69,44,12
0,33,86,24
0,59,76,0
0,71,82,0
0,59,60,0
0,64,76,0
0,68,68,0
0,35,88,0
0,42,75,0
0,69,32,0
0,59,86,96
0,64,88,0
0,68,86,0
0,71,86,0
0,69,23,0
0,46,46,8
0,69,59,0
0,61,60,12
0,73,82,0
0,61,60,0
0,69,68,0
0,64,38,0
0,33,86,12
0,69,44,0
0,59,86,8
0,64,88,0
0,68,86,0
0,71,86,0
0,40,88,0
0,42,75,0
0,69,32,0
0,69,23,0
0,33,84,48
0,61,64,0
0,73,84,0
0,69,68,0
0,64,68,0
0,61,66,0
0,46,46,0
0,69,59,0
0,61,84,96
0,64,92,0
0,69,86,0
0,73,86,0
0,69,44,0
0,35,88,72
0,42,75,0
0,69,32,0
0,33,80,24
0,69,23,0
0,33,100,36
0,46,46,0
0,69,59,0
0,69,44,68
0,32,104,8
0,59,84,0
0,64,92,0
0,68,82,0
0,71,86,0
0,71,101,0
0,71,82,0
0,64,64,0
0,59,64,0
0,68,64,0
0,40,88,0
0,42,75,0
0,69,32,0
0,76,91,0
0,80,89,0
0,83,91,0
0,69,23,52
0,46,46,28
0,69,59,0
0,69,44,4
0,30,100,4
0,59,88,0
0,62,100,0
0,66,84,0
0,69,88,0
0,73,93,0
0,57,64,0
0,69,86,0
0,57,66,0
0,62,76,0
0,66,68,0
0,35,88,0
0,42,75,0
0,69,32,0
0,74,85,0
0,78,95,0
0,81,87,0
0,71,93,84
0,57,50,0
0,69,23,8
0,59,88,12
0,62,104,0
0,66,96,0
0,69,104,0
0,69,79,0
0,57,50,0
0,46,46,0
0,69,59,0
0,57,50,0
0,30,96,8
0,69,44,0
0,57,50,64
0,40,88,0
0,42,75,0
0,69,32,0
0,57,50,28
0,69,23,12
0,28,96,12
0,57,88,0
0,61,84,0
0,64,100,0
0,69,86,0
0,64,76,0
0,61,72,0
0,57,68,0
0,46,46,0
0,69,59,0
0,73,73,0
0,76,85,0
0,81,81,0
0,69,44,96
0,35,88,72
0,42,75,0
0,69,32,0
0,40,88,0
0,69,23,0
0,28,100,12
0,46,46,0
0,69,59,0
0,69,44,0
0,28,68,4
0,40,88,0
0,42,75,0
0,69,32,0
0,30,100,4
0,69,23,0
0,32,104,4
0,46,66,0
0,69,59,0
0,69,44,24
0,28,92,16
0,59,86,0
0,64,88,0
0,68,88,0
0,71,86,0
0,73,97,0
0,80,80,0
0,64,78,0
0,64,76,0
0,68,74,0
0,56,64,0
0,64,76,0
0,59,66,0
0,35,88,0
0,42,75,0
0,69,32,0
0,69,23,96
0,46,46,72
0,69,59,0
0,28,92,12
0,69,44,0
0,71,101,16
0,64,82,0
0,40,88,0
0,42,75,0
0,69,32,0
0,69,23,56
0,28,88,72
0,71,97,0
0,64,78,0
0,46,46,0
0,69,59,0
0,69,44,96
0,35,88,0
0,42,75,0
0,69,32,0
0,78,68,4
0,28,86,4
0,69,23,0
0,40,96,8
0,59,88,0
0,64,88,0
0,68,78,0
0,71,80,0
0,80,62,0
0,46,46,0
0,69,59,0
0,78,66,8
0,69,44,0
0,40,96,12
0,59,104,0
0,64,92,0
0,68,92,0
0,71,86,0
0,80,84,0
0,40,88,0
0,42,75,0
0,69,32,0
0,81,64,12
0,35,86,12
0,69,23,0
0,46,46,4
0,69,59,0
0,36,68,16
0,69,44,0
0,37,84,36
0,61,82,0
0,65,104,0
0,68,84,0
0,71,86,0
0,73,101,0
0,80,88,0
0,65,86,0
0,61,59,0
0,71,53,0
0,59,68,0
0,65,76,0
0,61,66,0
0,35,88,0
0,42,75,0
0,69,32,0
0,69,23,96
0,46,46,8
0,69,59,0
0,37,104,44
0,69,44,0
0,71,101,36
0,65,70,0
0,40,88,0
0,42,75,0
0,69,32,0
0,69,23,56
0,37,92,12
0,71,101,0
0,65,74,0
0,46,46,0
0,69,59,0
0,69,44,96
0,35,88,72
0,42,75,0
0,69,32,0
0,81,62,20
0,37,74,8
0,40,88,0
0,69,23,0
0,38,84,0
0,61,64,0
0,65,92,0
0,68,66,0
0,71,74,0
0,73,93,0
0,83,60,0
0,46,46,0
0,69,59,0
0,81,62,28
0,69,44,12
0,39,82,4
0,61,80,0
0,65,100,0
0,68,82,0
0,71,78,0
0,83,64,0
0,40,88,0
0,42,75,0
0,69,32,0
0,85,84,4
0,39,74,12
0,69,23,0
0,40,76,8
0,46,46,0
0,69,59,0
0,41,86,12
0,69,44,0
0,42,96,8
0,61,74,0
0,64,92,0
0,66,84,0
0,69,84,0
0,69,97,0
0,81,68,0
0,69,82,0
0,69,84,0
0,66,66,0
0,57,64,0
0,61,64,0
0,35,88,0
0,42,75,0
0,69,32,0
0,69,23,96
0,46,46,0
0,69,59,0
0,71,97,4
0,83,68,0
0,71,78,0
0,71,80,0
0,42,104,12
0,61,80,0
0,64,96,0
0,66,82,0
0,69,84,0
0,69,44,0
0,40,88,24
0,42,75,0
0,69,32,0
0,69,23,68
0,42,100,4
0,61,76,0
0,64,92,0
0,66,86,0
0,69,82,0
0,68,97,0
0,80,72,0
0,68,82,0
0,68,70,0
0,46,46,0
0,69,59,0
0,69,44,96
0,69,89,4
0,81,68,0
0,69,90,0
0,69,88,0
0,35,88,0
0,42,75,0
0,69,32,0
0,42,84,68
0,69,23,0
0,42,74,20
0,46,46,0
0,69,59,0
0,71,97,24
0,83,68,0
0,71,76,0
0,71,84,0
0,69,44,12
0,42,76,72
0,40,88,0
0,42,75,0
0,69,32,0
0,40,92,4
0,69,23,0
0,68,101,0
0,80,66,0
0,68,66,0
0,68,72,0
0,46,46,0
0,69,59,0
0,69,44,96
0,39,92,4
0,59,84,0
0,63,86,0
0,66,86,0
0,69,92,0
0,69,79,0
0,81,68,0
0,69,74,0
0,69,70,0
0,59,66,0
0,63,64,0
0,66,64,0
0,35,88,0
0,42,75,0
0,69,32,0
0,69,107,0
0,81,115,0
0,68,93,0
0,68,82,0
0,68,74,0
0,69,23,12
0,66,71,0
0,66,70,0
0,66,78,0
0,46,46,0
0,69,59,0
0,83,76,20
0,39,100,12
0,59,86,0
0,63,82,0
0,66,84,0
0,69,84,0
0,69,44,0
0,71,85,0
0,83,120,0
0,40,88,0
0,42,75,0
0,69,32,0
0,69,23,20
0,39,96,12
0,59,86,0
0,63,80,0
0,66,82,0
0,69,84,0
0,85,76,0
0,46,46,0
0,69,59,0
0,73,103,0
0,85,115,0
0,69,44,12
0,73,97,4
0,87,62,0
0,73,90,0
0,73,74,0
0,35,88,0
0,42,75,0
0,69,32,0
0,75,103,0
0,87,115,0
0,39,74,16
0,40,88,0
0,69,23,0
0,47,88,8
0,59,78,0
0,63,78,0
0,66,76,0
0,69,76,0
0,71,71,0
0,71,66,0
0,71,78,0
0,46,46,0
0,69,59,0
0,73,93,0
0,88,68,0
0,73,72,0
0,73,74,0
0,69,44,8
0,76,103,0
0,88,111,0
0,47,86,4
0,59,88,0
0,63,104,0
0,66,100,0
0,69,88,0
0,71,89,0
0,71,64,0
0,71,76,0
0,40,88,0
0,42,75,0
0,69,32,0
0,69,101,0
0,69,86,0
0,69,78,0
0,39,80,4
0,69,23,0
0,90,84,0
0,46,66,0
0,69,59,0
0,78,99,0
0,90,115,0
0,69,44,16
0,38,92,0
0,68,101,0
0,88,66,0
0,64,82,0
0,64,56,0
0,76,66,0
0,64,66,0
0,57,56,0
0,62,72,0
0,35,88,0
0,42,75,0
0,69,32,0
0,76,103,0
0,88,95,0
0,57,78,96
0,62,86,0
0,66,80,0
0,69,84,0
0,69,23,0
0,46,46,72
0,69,59,0
0,69,93,28
0,64,102,0
0,38,84,12
0,69,44,0
0,57,84,32
0,62,92,0
0,66,88,0
0,69,84,0
0,40,88,0
0,42,75,0
0,69,32,0
0,69,23,72
0,38,86,52
0,69,97,0
0,64,90,0
0,46,46,0
0,69,59,0
0,57,82,96
0,62,86,0
0,66,86,0
0,69,86,0
0,69,44,0
0,35,88,72
0,42,75,0
0,69,32,0
0,69,23,64
0,38,88,4
0,57,78,0
0,62,92,0
0,66,84,0
0,69,88,0
0,46,46,0
0,69,59,0
0,69,44,4
0,40,88,0
0,42,75,0
0,69,32,0
0,37,104,8
0,69,23,0
0,46,46,12
0,69,59,0
0,69,44,12
0,35,86,24
0,68,97,0
0,64,90,0
0,64,66,0
0,62,66,0
0,57,54,0
0,35,88,0
0,42,75,0
0,69,32,0
0,57,78,96
0,62,86,0
0,66,80,0
0,69,80,0
0,69,23,0
0,46,46,0
0,69,59,0
0,69,93,36
0,64,82,0
0,35,84,12
0,69,44,0
0,57,48,36
0,62,86,0
0,66,80,0
0,69,82,0
0,40,88,0
0,42,75,0
0,69,32,0
0,69,23,40
0,35,86,16
0,69,97,0
0,64,82,0
0,46,46,0
0,69,59,0
0,57,84,96
0,62,88,0
0,66,88,0
0,69,92,0
0,69,44,0
0,35,88,0
0,42,75,0
0,69,32,0
0,40,88,0
0,69,23,0
0,35,78,12
0,57,84,0
0,62,92,0
0,66,86,0
0,69,92,0
0,46,46,0
0,69,59,0
0,69,44,12
0,28,84,12
0,71,89,0
0,64,82,0
0,40,88,0
0,42,75,0
0,69,32,0
0,69,105,12
0,62,82,0
0,69,23,12
0,30,92,0
0,46,46,0
0,69,59,0
0,69,89,4
0,62,94,0
0,69,44,12
0,33,82,28
0,68,93,0
0,62,94,0
0,61,62,0
0,57,60,0
0,64,72,0
0,35,88,0
