track,note,velocity,time
1,57,85,9600
1,57,0,236
1,57,85,4
1,57,0,236
1,60,85,4
1,60,0,236
1,60,85,4
1,60,0,236
1,55,85,4
1,55,0,236
1,55,85,4
1,55,0,236
1,58,85,4
1,58,0,956
1,58,85,964
1,58,0,236
1,58,85,4
1,58,0,236
1,62,85,4
1,62,0,236
1,62,85,4
1,62,0,236
1,62,85,4
1,62,0,356
1,60,85,4
1,60,0,116
1,60,85,4
1,60,0,956
1,60,85,964
1,60,0,236
1,60,85,4
1,60,0,236
1,65,85,4
1,65,0,236
1,65,85,4
1,65,0,236
1,58,85,4
1,58,0,236
1,58,85,4
1,58,0,236
1,62,85,4
1,62,0,356
1,62,85,4
1,62,0,116
1,55,85,4
1,55,0,956
1,55,85,964
1,55,0,236
1,57,85,4
1,57,0,236
1,57,85,4
1,57,0,236
1,55,85,4
1,55,0,236
1,55,85,4
1,55,0,236
1,57,85,4
1,57,0,236
1,57,85,4
1,57,0,476
1,57,85,4
1,57,0,236
1,58,85,4
1,58,0,236
1,58,85,4
1,58,0,236
1,57,85,4
1,57,0,236
1,57,85,4
1,57,0,236
1,58,85,4
1,58,0,236
1,58,85,4
1,58,0,476
1,57,85,4
1,57,0,236
1,57,85,4
1,57,0,236
1,60,85,4
1,60,0,236
1,60,85,4
1,60,0,236
1,55,85,4
1,55,0,236
1,55,85,4
1,55,0,236
1,58,85,4
1,58,0,956
1,58,85,964
1,58,0,236
1,58,85,4
1,58,0,236
1,62,85,4
1,62,0,236
1,62,85,4
1,62,0,236
1,62,85,4
1,62,0,356
1,60,85,4
1,60,0,116
1,60,85,4
1,60,0,956
1,60,85,964
1,60,0,236
1,60,85,4
1,60,0,236
1,65,85,4
1,65,0,236
1,65,85,4
1,65,0,236
1,58,85,4
1,58,0,236
1,58,85,4
1,58,0,236
1,62,85,4
1,62,0,356
1,62,85,4
1,62,0,116
1,57,85,4
1,57,0,956
1,58,85,484
1,58,0,236
1,57,85,4
1,57,0,236
1,55,85,4
1,55,0,956
1,55,85,964
1,55,0,236
1,57,85,4
1,57,0,236
1,57,85,4
1,57,0,236
1,55,85,4
1,55,0,236
1,55,85,4
1,55,0,236
1,57,85,4
1,57,0,236
1,57,85,4
1,57,0,236
1,55,85,4
1,55,0,236
1,53,85,4
1,53,0,956
1,57,85,964
1,57,0,236
1,57,85,4
1,57,0,236
1,60,85,4
1,60,0,236
1,60,85,4
1,60,0,236
1,55,85,4
1,55,0,236
1,55,85,4
1,55,0,236
1,58,85,4
1,58,0,956
1,58,85,964
1,58,0,236
1,58,85,4
1,58,0,236
1,62,85,4
1,62,0,236
1,62,85,4
1,62,0,236
1,62,85,4
1,62,0,356
1,60,85,4
1,60,0,116
1,60,85,4
1,60,0,956
1,60,85,964
1,60,0,236
1,60,85,4
1,60,0,236
1,65,85,4
1,65,0,236
1,65,85,4
1,65,0,236
1,58,85,4
1,58,0,236
1,58,85,4
1,58,0,236
1,62,85,4
1,62,0,356
1,62,85,4
1,62,0,116
1,55,85,4
1,55,0,956
1,55,85,964
1,55,0,236
1,57,85,4
1,57,0,236
1,57,85,4
1,57,0,236
1,55,85,4
1,55,0,236
1,55,85,4
1,55,0,236
1,57,85,4
1,57,0,236
1,57,85,4
1,57,0,476
1,57,85,4
1,57,0,236
1,58,85,4
1,58,0,236
1,58,85,4
1,58,0,236
1,57,85,4
1,57,0,236
1,57,85,4
1,57,0,236
1,58,85,4
1,58,0,236
1,58,85,4
1,58,0,476
1,57,85,4
1,57,0,236
1,57,85,4
1,57,0,236
1,60,85,4
1,60,0,236
1,60,85,4
1,60,0,236
1,55,85,4
1,55,0,236
1,55,85,4
1,55,0,236
1,58,85,4
1,58,0,956
1,58,85,964
1,58,0,236
1,58,85,4
1,58,0,236
1,62,85,4
1,62,0,236
1,62,85,4
1,62,0,236
1,62,85,4
1,62,0,356
1,60,85,4
1,60,0,116
1,60,85,4
1,60,0,956
1,60,85,964
1,60,0,236
1,60,85,4
1,60,0,236
1,65,85,4
1,65,0,236
1,65,85,4
1,65,0,236
1,58,85,4
1,58,0,236
1,58,85,4
1,58,0,236
1,62,85,4
1,62,0,356
1,62,85,4
1,62,0,116
1,57,85,4
1,57,0,956
1,58,85,484
1,58,0,236
1,57,85,4
1,57,0,236
1,55,85,4
1,55,0,956
1,55,85,964
1,55,0,236
1,57,85,4
1,57,0,236
1,57,85,4
1,57,0,236
1,55,85,4
1,55,0,236
1,55,85,4
1,55,0,236
1,57,85,4
1,57,0,236
1,57,85,4
1,57,0,236
1,55,85,4
1,55,0,236
1,53,85,4
1,53,0,956
1,67,85,964
1,67,0,1916
1,67,85,4
1,67,0,716
1,65,85,4
1,65,0,236
1,57,85,4
1,57,0,956
1,55,85,4
1,55,0,236
1,57,85,4
1,57,0,236
1,57,85,4
1,57,0,236
1,55,85,4
1,55,0,236
1,55,85,4
1,55,0,236
1,57,85,4
1,57,0,236
1,57,85,4
1,57,0,236
1,58,85,4
1,58,0,236
1,57,85,4
1,57,0,956
1,67,85,964
1,67,0,2636
1,65,85,4
1,65,0,236
1,57,85,4
1,57,0,956
1,55,85,4
1,55,0,236
1,57,85,4
1,57,0,236
1,57,85,4
1,57,0,236
1,55,85,4
1,55,0,236
1,55,85,4
1,55,0,236
1,57,85,4
1,57,0,236
1,57,85,4
1,57,0,236
1,55,85,4
1,55,0,236
1,53,85,4
1,53,0,21
2,81,85,5880
2,81,0,236
2,72,85,4
2,72,0,236
2,82,85,4
2,82,0,236
2,77,85,4
2,84,85,120
2,77,0,116
2,72,85,4
2,72,0,116
2,77,85,4
2,77,0,236
2,84,0,0
2,77,85,4
2,72,85,120
2,77,0,116
2,79,85,4
2,72,0,116
2,72,85,4
2,79,0,116
2,81,85,4
2,72,0,4
2,72,85,116
2,81,0,116
2,82,85,4
2,72,0,116
2,77,85,4
2,82,0,116
2,84,85,4
2,77,0,116
2,72,85,4
2,72,0,116
2,77,85,4
2,77,0,236
2,84,0,0
2,77,85,4
2,72,85,120
2,77,0,116
2,79,85,4
2,72,0,116
2,72,85,4
2,79,0,116
2,82,85,4
2,72,0,116
2,72,85,4
2,72,0,116
2,82,0,0
2,81,85,4
2,77,85,0
2,77,0,116
2,72,85,4
2,72,0,116
2,81,0,0
2,60,85,4
2,69,85,0
2,69,0,236
2,69,85,4
2,69,0,236
2,72,85,4
2,72,0,236
2,72,85,4
2,72,0,236
2,60,0,0
2,70,85,4
2,67,85,0
2,70,0,236
2,67,0,3
2,70,85,1
2,70,0,239
2,70,85,1
2,70,0,236
2,72,85,4
2,72,0,236
2,74,85,4
2,74,0,236
2,62,85,4
2,62,0,236
2,67,85,4
2,67,0,236
2,69,85,4
2,69,0,236
2,72,85,4
2,72,0,236
2,70,85,4
2,70,0,236
2,70,85,4
2,70,0,236
2,70,85,4
2,70,0,236
2,74,85,4
2,74,0,236
2,74,85,4
2,74,0,236
2,74,85,4
2,70,85,0
2,67,85,0
2,74,0,356
2,72,85,4
2,72,0,116
2,67,0,0
2,70,0,0
2,72,85,4
2,69,85,0
2,69,0,236
2,70,85,4
2,70,0,236
2,72,85,4
2,72,0,236
2,60,85,4
2,60,0,236
2,72,0,0
2,65,85,4
2,65,0,236
2,67,85,4
2,67,0,236
2,70,85,4
2,70,0,236
2,69,85,4
2,69,0,236
2,72,85,4
2,65,85,0
2,72,0,236
2,72,85,4
2,72,0,236
2,65,0,0
2,77,85,4
2,74,85,0
2,77,0,236
2,77,85,4
2,77,0,236
2,74,0,0
2,70,85,4
2,67,85,0
2,70,0,236
2,70,85,4
2,70,0,236
2,67,0,0
2,74,85,4
2,69,85,0
2,74,0,356
2,74,85,4
2,74,0,116
2,69,0,0
2,67,85,4
2,70,85,0
2,70,0,236
2,72,85,4
2,72,0,236
2,74,85,4
2,74,0,236
2,62,85,4
2,62,0,236
2,67,0,0
2,67,85,4
2,67,0,236
2,69,85,4
2,69,0,236
2,72,85,4
2,72,0,236
2,70,85,4
2,70,0,236
2,67,85,4
2,59,85,0
2,59,0,236
2,67,0,0
2,69,85,4
2,60,85,0
2,60,0,236
2,69,0,0
2,69,85,4
2,60,85,0
2,60,0,236
2,69,0,0
2,67,85,4
2,59,85,0
2,59,0,236
2,67,0,0
2,67,85,4
2,59,85,0
2,59,0,236
2,67,0,0
2,69,85,4
2,60,85,0
2,60,0,236
2,69,0,0
2,69,85,4
2,60,85,0
2,60,0,236
2,59,85,4
2,59,0,236
2,69,0,0
2,69,85,4
2,60,85,0
2,60,0,236
2,69,0,0
2,70,85,4
2,62,85,0
2,62,0,236
2,70,0,0
2,70,85,4
2,62,85,0
2,62,0,236
2,70,0,0
2,69,85,4
2,60,85,0
2,60,0,236
2,69,0,0
2,69,85,4
2,60,85,0
2,60,0,236
2,69,0,0
2,70,85,4
2,62,85,0
2,62,0,236
2,70,0,0
2,70,85,4
2,62,85,0
2,62,0,236
2,60,85,4
2,60,0,236
2,70,0,0
2,65,85,4
2,60,85,0
2,69,85,480
2,69,0,236
2,69,85,4
2,69,0,236
2,60,0,0
2,65,0,0
2,72,85,16
2,72,0,236
2,72,85,24
2,70,85,206
2,72,0,30
2,70,0,206
2,72,85,4
2,72,0,236
2,74,85,4
2,74,0,236
2,62,85,4
2,62,0,236
2,67,85,4
2,67,0,236
2,69,85,4
2,69,0,236
2,72,85,4
2,72,0,236
2,70,85,4
2,70,0,236
2,70,85,4
2,70,0,236
2,70,85,4
2,70,0,236
2,74,85,4
2,74,0,236
2,74,85,4
2,74,0,236
2,74,85,4
2,70,85,0
2,67,85,0
2,74,0,356
2,72,85,4
2,72,0,116
2,67,0,0
2,70,0,0
2,72,85,4
2,72,0,956
2,70,85,4
2,70,0,836
2,69,85,4
2,69,0,56
2,70,85,4
2,70,0,56
2,65,85,4
2,72,85,26
2,72,0,236
2,72,85,4
2,72,0,236
2,77,85,4
2,77,0,236
2,77,85,4
2,65,0,210
2,77,0,26
2,69,85,4
2,62,85,0
2,69,0,716
2,70,85,4
2,70,0,236
2,62,0,0
2,72,85,4
2,72,0,236
2,62,85,4
2,62,0,236
2,70,85,4
2,70,0,236
2,69,85,4
2,58,85,216
2,69,0,20
2,58,0,456
2,70,85,4
2,70,0,236
2,69,85,4
2,69,0,236
2,67,85,4
2,55,85,504
2,55,0,236
2,57,85,4
2,67,0,212
2,57,0,24
2,58,85,4
2,58,0,236
2,60,85,4
2,60,0,236
2,62,85,4
2,62,0,236
2,60,85,4
2,60,0,236
2,67,85,4
2,58,85,0
2,58,0,236
2,67,0,0
2,69,85,4
2,60,85,0
2,60,0,236
2,69,0,0
2,69,85,4
2,60,85,0
2,60,0,236
2,69,0,0
2,67,85,4
2,58,85,0
2,58,0,236
2,67,0,0
2,67,85,4
2,58,85,0
2,58,0,236
2,67,0,0
2,69,85,4
2,60,85,0
2,60,0,236
2,69,0,0
2,69,85,4
2,60,85,0
2,60,0,236
2,69,0,0
2,67,85,4
2,58,85,0
2,58,0,236
2,67,0,0
2,65,85,4
2,57,85,0
2,57,0,476
2,69,85,4
2,69,0,236
2,72,85,4
2,72,0,236
2,65,0,0
2,60,85,4
2,60,0,236
2,70,85,4
2,70,0,236
2,69,85,4
2,69,0,236
2,57,85,4
2,60,85,216
2,69,85,0
2,57,0,20
2,69,0,216
2,69,85,4
2,69,0,236
2,72,85,4
2,72,0,236
2,72,85,4
2,72,0,236
2,60,0,0
2,70,85,4
2,67,85,0
2,70,0,236
2,67,0,3
2,70,85,1
2,70,0,239
2,70,85,1
2,70,0,236
2,72,85,4
2,72,0,236
2,74,85,4
2,74,0,236
2,62,85,4
2,62,0,236
2,67,85,4
2,67,0,236
2,69,85,4
2,69,0,236
2,72,85,4
2,72,0,236
2,70,85,4
2,70,0,236
2,70,85,4
2,70,0,236
2,70,85,4
2,70,0,236
2,74,85,4
2,74,0,236
2,74,85,4
2,74,0,236
2,74,85,4
2,70,85,0
2,67,85,0
2,74,0,356
2,72,85,4
2,72,0,116
2,67,0,0
2,70,0,0
2,72,85,4
2,69,85,0
2,69,0,236
2,70,85,4
2,70,0,236
2,72,85,4
2,72,0,236
2,60,85,4
2,60,0,236
2,72,0,0
2,65,85,4
2,65,0,236
2,67,85,4
2,67,0,236
2,70,85,4
2,70,0,236
2,69,85,4
2,69,0,236
2,72,85,4
2,65,85,0
2,72,0,236
2,72,85,4
2,72,0,236
2,65,0,0
2,77,85,4
2,74,85,0
2,77,0,236
2,77,85,4
2,77,0,236
2,74,0,0
2,70,85,4
2,67,85,0
2,70,0,236
2,70,85,4
2,70,0,236
2,67,0,0
2,74,85,4
2,69,85,0
2,74,0,356
2,74,85,4
2,74,0,116
2,69,0,0
2,67,85,4
2,70,85,0
2,70,0,236
2,72,85,4
2,72,0,236
2,74,85,4
2,74,0,236
2,62,85,4
2,62,0,236
2,67,0,0
2,67,85,4
2,67,0,236
2,69,85,4
2,69,0,236
2,72,85,4
2,72,0,236
2,70,85,4
2,70,0,236
2,67,85,4
2,59,85,0
2,59,0,236
2,67,0,0
2,69,85,4
2,60,85,0
2,60,0,236
2,69,0,0
2,69,85,4
2,60,85,0
2,60,0,236
2,69,0,0
2,67,85,4
2,59,85,0
2,59,0,236
2,67,0,0
2,67,85,4
2,59,85,0
2,59,0,236
2,67,0,0
2,69,85,4
2,60,85,0
2,60,0,236
2,69,0,0
2,69,85,4
2,60,85,0
2,60,0,236
2,59,85,4
2,59,0,236
2,69,0,0
2,69,85,4
2,60,85,0
2,60,0,236
2,69,0,0
2,70,85,4
2,62,85,0
2,62,0,236
2,70,0,0
2,70,85,4
2,62,85,0
2,62,0,236
2,70,0,0
2,69,85,4
2,60,85,0
2,60,0,236
2,69,0,0
2,69,85,4
2,60,85,0
2,60,0,236
2,69,0,0
2,70,85,4
2,62,85,0
2,62,0,236
2,70,0,0
2,70,85,4
2,62,85,0
2,62,0,236
2,60,85,4
2,60,0,236
2,70,0,0
2,65,85,4
2,60,85,0
2,69,85,480
2,69,0,236
2,69,85,4
2,69,0,236
2,60,0,0
2,65,0,0
2,72,85,16
2,72,0,236
2,72,85,24
2,70,85,206
2,72,0,30
2,70,0,206
2,72,85,4
2,72,0,236
2,74,85,4
2,74,0,236
2,62,85,4
2,62,0,236
2,67,85,4
2,67,0,236
2,69,85,4
2,69,0,236
2,72,85,4
2,72,0,236
2,70,85,4
2,70,0,236
2,70,85,4
2,70,0,236
2,70,85,4
2,70,0,236
2,74,85,4
2,74,0,236
2,74,85,4
2,74,0,236
2,74,85,4
2,70,85,0
2,67,85,0
2,74,0,356
2,72,85,4
2,72,0,116
2,67,0,0
2,70,0,0
2,72,85,4
2,72,0,956
2,70,85,4
2,70,0,836
2,69,85,4
2,69,0,56
2,70,85,4
2,70,0,56
2,65,85,4
2,72,85,26
2,72,0,236
2,72,85,4
2,72,0,236
2,77,85,4
2,77,0,236
2,77,85,4
2,65,0,210
2,77,0,26
2,69,85,4
2,62,85,0
2,69,0,716
2,70,85,4
2,70,0,236
2,62,0,0
2,72,85,4
2,72,0,236
2,62,85,4
2,62,0,236
2,70,85,4
2,70,0,236
2,69,85,4
2,58,85,216
2,69,0,20
2,58,0,456
2,70,85,4
2,70,0,236
2,69,85,4
2,69,0,236
2,67,85,4
2,55,85,504
2,55,0,236
2,57,85,4
2,67,0,212
2,57,0,24
2,58,85,4
2,58,0,236
2,60,85,4
2,60,0,236
2,62,85,4
2,62,0,236
2,60,85,4
2,60,0,236
2,67,85,4
2,58,85,0
2,58,0,236
2,67,0,0
2,69,85,4
2,60,85,0
2,60,0,236
2,69,0,0
2,69,85,4
2,60,85,0
2,60,0,236
2,69,0,0
2,67,85,4
2,58,85,0
2,58,0,236
2,67,0,0
2,67,85,4
2,58,85,0
2,58,0,236
2,67,0,0
2,69,85,4
2,60,85,0
2,60,0,236
2,69,0,0
2,69,85,4
2,60,85,0
2,60,0,236
2,69,0,0
2,67,85,4
2,58,85,0
2,58,0,236
2,67,0,0
