track,note,velocity,time
2,54,81,478
2,61,74,0
2,59,81,351
2,64,75,0
2,61,0,1
2,54,0,3
2,59,0,17
2,64,0,11
2,54,55,67
2,64,81,29
2,59,76,0
2,54,0,2
2,61,71,95
2,54,60,1
2,64,0,2
2,59,0,6
2,54,0,526
2,61,0,3
2,59,85,5
2,64,73,0
2,59,0,20
2,64,0,2
2,54,60,75
2,54,0,31
2,64,77,0
2,59,85,0
2,61,72,97
2,64,0,1
2,54,64,0
2,59,0,14
2,61,0,464
2,54,0,3
2,64,77,62
2,59,86,0
2,59,0,19
2,64,0,5
2,54,61,72
2,64,83,33
2,59,85,2
2,54,0,4
2,64,0,87
2,61,67,2
2,54,65,0
2,59,0,7
2,54,0,279
2,61,0,0
2,64,76,1
2,59,85,0
2,63,70,97
2,64,0,4
2,63,0,471
2,61,73,4
2,54,65,0
2,59,0,1
2,64,63,448
2,59,76,0
2,54,0,3
2,61,0,4
2,59,0,24
2,64,0,2
2,54,58,65
2,64,64,30
2,59,71,1
2,54,0,6
2,61,73,91
2,54,63,0
2,64,0,6
2,59,0,6
2,54,0,464
2,61,0,9
2,59,90,56
2,64,65,1
2,64,0,17
2,59,0,3
2,54,58,79
2,54,0,27
2,64,77,5
2,59,83,0
2,61,74,96
2,54,69,0
2,64,0,1
2,59,0,4
2,54,0,485
2,61,0,9
2,64,72,41
2,59,83,0
2,64,0,19
2,59,0,1
2,54,60,77
2,54,0,31
2,59,77,0
2,64,73,1
2,61,75,95
2,54,63,0
2,64,0,2
2,59,0,10
2,54,0,272
2,64,76,4
2,59,85,0
2,61,0,1
2,64,0,91
2,63,67,4
2,63,0,480
2,61,74,0
2,54,70,0
2,59,0,4
2,54,0,371
2,61,0,8
2,59,72,66
2,64,74,2
2,64,0,17
2,59,0,8
2,54,64,71
2,54,0,21
2,64,76,9
2,59,86,2
2,64,0,94
2,61,70,0
2,54,66,2
2,59,0,5
2,54,0,473
2,61,0,9
2,64,73,55
2,59,81,1
2,64,0,18
2,59,0,1
2,54,61,76
2,54,0,21
2,64,79,10
2,59,86,0
2,61,77,96
2,54,65,1
2,64,0,4
2,59,0,1
2,61,0,459
2,54,0,11
2,59,83,68
2,64,67,1
2,64,0,15
2,59,0,4
2,54,60,77
2,54,0,20
2,64,72,11
2,59,86,1
2,64,0,93
2,61,75,3
2,54,71,0
2,59,0,8
2,54,0,275
2,61,0,0
2,64,81,4
2,59,86,0
2,63,72,96
2,64,0,2
2,59,0,470
2,63,0,1
3,42,92,384
3,42,0,89
3,44,92,6
3,45,91,98
3,44,0,4
3,47,95,88
3,45,0,4
3,47,0,92
3,35,92,0
3,37,90,96
3,35,0,2
3,40,96,98
3,37,0,12
3,42,95,84
3,40,0,6
3,44,94,182
3,42,0,5
3,45,98,93
3,44,0,5
3,45,0,91
3,47,96,0
3,35,92,98
3,47,0,6
3,37,92,86
3,35,0,5
3,40,96,91
3,37,0,8
3,42,93,88
3,40,0,5
3,44,94,187
3,42,0,7
3,45,97,89
3,44,0,10
3,47,96,90
3,45,0,3
3,35,95,89
3,47,0,5
3,37,91,91
3,35,0,10
3,40,95,86
3,37,0,13
3,42,94,83
3,40,0,10
3,44,90,182
3,42,0,2
3,45,95,94
3,44,0,7
3,35,99,91
3,45,0,6
3,35,0,431
3,42,94,43
3,44,91,95
3,42,0,6
3,44,0,89
3,45,94,1
3,45,0,95
3,47,96,1
3,47,0,49
3,47,93,15
3,47,0,29
3,35,96,3
3,35,0,83
3,37,95,13
3,37,0,96
3,40,96,0
3,42,95,96
3,40,0,5
3,44,94,187
3,42,0,7
3,45,99,89
3,44,0,2
3,47,98,94
3,45,0,1
3,47,0,38
3,47,98,25
3,47,0,26
3,35,95,6
3,35,0,95
3,37,92,0
3,40,96,97
3,37,0,7
3,42,96,89
3,40,0,4
3,44,94,188
3,42,0,13
3,44,0,78
3,45,95,5
3,45,0,96
3,47,96,0
3,47,0,43
3,47,98,21
3,47,0,24
3,35,99,8
3,35,0,95
3,37,91,1
3,40,95,96
3,37,0,11
3,42,95,85
3,40,0,5
3,44,93,187
3,42,0,11
3,44,0,79
3,45,96,6
3,45,0,95
3,35,96,1
3,35,0,475
3,42,92,4
3,44,94,97
3,42,0,9
3,44,0,87
3,45,97,0
3,47,99,96
3,45,0,5
3,47,0,38
3,47,98,21
3,47,0,21
3,35,96,12
3,35,0,90
3,37,92,5
3,40,97,96
3,37,0,3
3,42,96,93
3,40,0,2
3,44,94,190
3,42,0,8
3,44,0,87
3,45,99,1
3,47,98,96
3,45,0,7
3,47,0,32
3,47,96,26
3,47,0,20
3,35,95,11
3,35,0,91
3,37,92,4
3,40,95,97
3,37,0,10
3,40,0,85
3,42,96,0
3,44,95,193
3,42,0,13
3,44,0,78
3,45,100,5
3,47,98,95
3,45,0,4
3,47,0,36
3,47,96,25
3,47,0,25
3,35,96,7
3,35,0,94
3,37,92,1
3,40,96,97
3,37,0,11
3,40,0,82
3,42,95,2
3,44,92,193
3,42,0,7
3,45,95,89
3,44,0,3
3,45,0,92
3,35,101,1
3,35,0,438
3,42,92,10
3,42,0,24
3,30,101,7
3,30,0,46
3,30,95,19
3,30,0,27
3,32,91,5
3,33,95,96
3,32,0,7
3,37,95,89
3,33,0,3
3,39,95,92
3,37,0,5
3,39,0,287
3,39,94,60
3,37,93,32
3,39,0,4
3,37,0,310
3,37,92,39
3,38,100,32
3,37,0,4
3,38,0,199
3,40,94,53
3,37,92,32
3,40,0,8
3,35,93,24
3,37,0,2
3,35,0,29
3,33,92,1
3,33,0,27
3,30,99,5
3,30,0,47
3,30,97,17
3,30,0,32
3,32,95,0
3,33,97,96
3,32,0,4
3,33,0,87
3,37,95,5
3,39,96,95
3,37,0,6
3,39,0,290
3,39,92,56
3,37,93,32
3,39,0,4
3,37,0,303
3,37,92,46
3,38,100,32
3,37,0,8
3,38,0,319
3,33,91,25
3,33,0,27
3,38,96,5
3,35,98,384
3,38,0,3
3,28,108,285
3,35,0,4
3,28,0,387
3,28,100,57
3,33,98,34
3,28,0,3
3,33,0,254
3,33,91,79
3,33,0,34
3,38,98,12
3,38,0,38
3,38,100,58
3,40,95,288
3,38,0,8
3,38,108,376
3,40,0,3
3,38,0,254
3,38,98,31
3,33,93,96
3,38,0,3
3,33,0,279
3,33,93,54
3,33,0,37
3,38,102,11
3,38,0,55
3,38,99,41
3,38,0,180
3,38,102,12
3,38,0,94
3,40,98,2
3,38,108,384
3,40,0,2
3,33,94,382
3,38,0,7
3,33,0,239
3,33,96,42
3,38,102,96
3,33,0,4
3,38,0,221
3,38,97,63
3,40,98,96
3,38,0,2
3,40,0,239
3,40,97,47
3,38,95,96
3,40,0,3
3,33,95,381
3,38,0,9
3,33,0,250
3,33,95,29
3,33,0,91
3,37,102,5
3,37,0,227
3,37,98,61
3,30,95,96
3,37,0,1
3,35,104,383
3,30,0,8
3,35,0,260
3,35,102,20
3,35,0,91
3,40,98,5
3,37,101,384
3,40,0,3
3,37,0,213
3,37,96,72
3,30,96,96
3,37,0,5
3,30,0,206
3,30,95,77
3,35,104,96
3,30,0,3
3,35,0,393
3,28,98,84
3,28,0,45
3,28,96,51
3,28,0,126
3,28,97,66
3,28,0,36
3,28,98,60
3,28,0,113
3,33,107,3201
3,33,0,43
3,33,104,5
3,33,0,97
3,33,98,237
3,33,0,29
3,33,95,19
3,33,0,35
3,33,85,13
3,33,0,11
3,33,103,37
3,33,0,92
3,33,98,149
3,33,0,28
3,33,101,19
3,33,0,105
3,33,99,231
3,33,0,31
3,33,99,16
3,33,0,88
3,45,94,8
3,45,0,100
3,40,94,45
3,40,0,56
3,40,94,40
3,40,0,29
3,33,96,19
3,33,0,145
3,33,97,191
3,33,0,32
3,33,99,15
3,33,0,95
3,45,94,2
3,45,0,85
3,37,100,107
3,30,100,95
3,37,0,2
3,30,0,194
3,30,103,93
3,30,0,347
3,30,95,37
3,32,98,96
3,30,0,1
3,32,0,286
3,37,99,1
3,37,0,477
3,38,102,2
3,38,0,598
3,28,98,461
3,28,0,384
3,33,98,96
3,33,0,257
3,33,91,79
3,33,0,34
3,38,98,12
3,38,0,38
3,38,100,58
3,40,95,288
3,38,0,8
3,38,108,376
3,40,0,3
3,38,0,254
3,38,98,31
3,33,93,96
3,38,0,3
3,33,0,279
3,33,93,54
3,33,0,37
3,38,102,11
3,38,0,55
3,38,99,41
3,38,0,180
3,38,102,12
3,38,0,94
3,40,98,2
3,38,108,384
3,40,0,2
3,33,94,382
3,38,0,7
3,33,0,239
3,33,96,42
3,38,102,96
3,33,0,4
3,38,0,221
3,38,97,63
3,40,98,96
3,38,0,2
3,40,0,239
3,40,97,47
3,38,95,96
3,40,0,3
3,33,95,381
3,38,0,9
3,33,0,250
3,33,95,29
3,33,0,91
3,37,102,5
3,37,0,227
3,37,98,61
3,30,95,96
3,37,0,1
3,35,104,383
3,30,0,8
3,35,0,260
3,35,102,20
3,35,0,91
3,40,98,5
3,37,101,384
3,40,0,3
3,37,0,213
3,37,96,72
3,30,96,96
3,37,0,5
3,30,0,206
3,30,95,77
3,35,104,96
3,30,0,3
3,35,0,393
3,28,98,84
3,28,0,45
3,28,96,51
3,28,0,126
3,28,97,66
3,28,0,36
3,28,98,60
3,28,0,197
3,33,107,3117
3,33,0,43
3,33,104,5
3,33,0,97
3,33,98,237
3,33,0,29
3,33,95,19
3,33,0,35
3,33,85,13
3,33,0,11
3,33,103,37
3,33,0,92
3,33,98,149
3,33,0,28
3,33,101,19
3,33,0,105
3,33,99,231
3,33,0,31
3,33,99,16
3,33,0,88
3,45,94,8
3,45,0,100
3,40,94,45
3,40,0,56
3,40,94,40
3,40,0,29
3,33,96,19
3,33,0,145
3,33,97,191
3,33,0,32
3,33,99,15
3,33,0,95
3,45,94,2
3,45,0,85
3,37,100,107
3,30,100,95
3,37,0,2
3,30,0,194
3,30,103,93
3,30,0,347
3,30,95,37
3,32,98,96
3,30,0,1
3,32,0,286
3,37,99,1
3,37,0,477
3,38,102,2
3,38,0,598
3,28,98,461
3,28,0,384
3,28,98,384
3,28,0,384
3,33,98,99
3,33,0,257
3,33,91,79
3,33,0,34
3,38,98,12
3,38,0,38
3,38,100,58
3,40,95,288
3,38,0,8
3,38,108,376
3,40,0,4
3,38,0,253
3,38,98,31
3,33,93,96
3,38,0,3
3,33,0,279
3,33,93,54
3,33,0,37
3,38,102,11
3,38,0,56
3,38,99,40
3,38,0,180
3,38,102,12
3,38,0,94
3,40,98,2
3,38,108,384
3,40,0,2
3,33,98,387
3,38,0,3
3,33,0,254
3,33,91,79
3,33,0,35
3,38,98,12
3,38,0,37
3,38,100,59
3,40,95,288
3,38,0,8
3,38,108,376
3,40,0,3
3,38,0,253
3,38,98,32
3,33,93,96
3,38,0,2
3,33,0,279
3,33,93,55
3,33,0,36
3,38,102,12
3,38,0,55
3,38,99,41
3,38,0,180
3,38,102,12
3,38,0,93
3,40,98,3
3,38,108,384
3,40,0,1
3,38,0,390
3,33,104,83
3,33,0,689
4,54,78,9598
4,57,73,2
4,61,71,2
4,66,88,0
4,61,0,28
4,66,0,2
4,57,0,0
4,54,0,3
4,66,107,59
4,61,101,2
4,57,88,2
4,54,103,0
4,61,0,83
4,57,0,1
4,54,0,6
4,66,0,2
4,54,74,0
4,57,72,2
4,61,65,2
4,66,74,0
4,66,0,31
4,57,0,8
4,61,0,5
4,54,0,4
4,66,107,44
4,61,70,2
4,57,84,2
4,54,89,0
4,66,0,56
4,57,0,1
4,61,0,1
4,54,0,0
4,54,76,2
4,57,77,2
4,61,72,2
4,66,88,0
4,66,0,20
4,54,0,0
4,57,0,0
4,61,0,0
4,66,89,8
4,61,89,2
4,57,89,2
4,54,89,0
4,66,0,45
4,54,0,1
4,57,0,10
4,61,0,0
4,54,70,4
4,59,86,2
4,63,68,2
4,66,67,0
4,66,0,13
4,54,0,0
4,59,0,3
4,63,0,2
4,66,98,10
4,63,90,2
4,59,70,2
4,54,89,0
4,54,0,58
4,59,0,0
4,66,0,0
4,63,0,1
4,54,86,33
4,59,93,2
4,63,84,2
4,66,107,0
4,59,0,160
4,66,0,1
4,63,0,23
4,54,0,0
4,64,80,4
4,61,75,2
4,56,74,2
4,52,82,0
4,64,0,18
4,61,0,12
4,52,0,6
4,56,0,9
4,52,65,47
4,56,68,2
4,61,76,2
4,64,88,0
4,64,0,84
4,52,0,0
4,56,0,0
4,61,0,0
4,64,93,8
4,61,67,2
4,56,73,2
4,52,69,0
4,64,0,24
4,56,0,13
4,52,0,6
4,61,0,8
4,52,80,41
4,56,70,2
4,61,73,2
4,64,90,0
4,56,0,52
4,61,0,6
4,52,0,2
4,61,72,0
4,56,73,2
4,52,70,2
4,64,0,22
4,52,0,4
4,56,0,1
4,61,0,1
4,52,73,0
4,56,77,2
4,61,86,2
4,64,93,0
4,64,0,53
4,61,0,0
4,52,0,0
4,56,0,2
4,66,74,5
4,61,68,2
4,57,77,2
4,50,66,0
4,61,0,12
4,57,0,1
4,66,0,1
4,50,0,3
4,50,77,11
4,57,86,2
4,61,88,2
4,66,107,0
4,57,0,35
4,66,0,3
4,50,0,2
4,61,0,1
4,66,86,51
4,61,77,2
4,57,89,2
4,50,80,0
4,57,0,177
4,66,0,0
4,61,0,1
4,50,0,5
4,54,71,5
4,57,79,2
4,61,77,2
4,66,78,0
4,66,0,20
4,61,0,8
4,57,0,8
4,54,0,12
4,66,115,44
4,61,98,2
4,57,82,2
4,54,96,0
4,54,0,88
4,66,0,0
4,61,0,0
4,57,0,0
4,54,76,4
4,57,76,2
4,61,79,2
4,66,96,0
4,66,0,39
4,57,0,1
4,54,0,4
4,61,0,9
4,66,111,39
4,61,82,2
4,57,80,2
4,54,84,0
4,57,0,53
4,61,0,1
4,54,0,4
4,66,0,2
4,54,72,0
4,57,76,2
4,61,67,2
4,66,74,0
4,61,0,10
4,66,0,2
4,54,0,0
4,57,0,4
4,66,86,12
4,61,77,2
4,57,77,2
4,54,88,0
4,54,0,41
4,66,0,3
4,57,0,9
4,61,0,3
4,54,71,4
4,59,90,2
4,63,76,2
4,66,88,0
4,66,0,11
4,63,0,1
4,54,0,0
4,59,0,4
4,66,101,12
4,63,93,2
4,59,93,2
4,54,90,0
4,54,0,15
4,63,0,13
4,59,0,4
4,66,0,0
4,54,96,60
4,59,89,2
4,63,90,2
4,66,107,0
4,59,0,175
4,66,0,4
4,63,0,1
4,54,0,5
4,64,93,3
4,61,68,2
4,56,67,2
4,52,75,0
4,64,0,21
4,56,0,8
4,52,0,2
4,61,0,9
4,52,79,52
4,56,80,2
4,61,84,2
4,64,96,0
4,52,0,82
4,56,0,2
4,61,0,1
4,64,0,5
4,64,88,2
4,61,66,2
4,56,72,2
4,52,78,0
4,64,0,26
4,56,0,4
4,61,0,10
4,52,0,7
4,52,72,45
4,56,69,2
4,61,70,2
4,64,96,0
4,64,0,58
4,52,0,0
4,56,0,1
4,64,82,1
4,56,66,2
4,52,70,2
4,52,0,12
4,61,0,0
4,64,0,0
4,56,0,0
4,52,78,16
4,56,73,2
4,61,76,2
4,64,89,0
4,61,0,140
4,52,0,45
4,64,0,2
4,56,0,1
4,66,92,0
4,61,90,2
4,57,88,2
4,50,82,0
4,66,0,541
4,61,0,1
4,50,0,17
4,57,0,9
4,47,84,4
4,54,74,2
4,57,93,2
4,62,98,0
4,66,98,3
4,47,0,265
4,54,0,12
4,57,0,0
4,62,0,2
4,66,0,2
4,64,101,0
4,59,103,2
4,57,96,2
4,50,78,0
4,47,79,3
4,40,80,1
4,59,0,448
4,64,0,0
4,57,0,1
4,40,0,3
4,50,0,7
4,47,0,1
4,45,82,8
4,69,88,3
4,52,78,0
4,64,98,1
4,61,84,0
4,57,88,0
4,57,0,184
4,69,0,0
4,52,0,0
4,45,0,0
4,61,0,0
4,64,0,0
4,69,93,7
4,61,84,0
4,57,98,0
4,64,101,0
4,52,74,1
4,45,80,0
4,57,0,139
4,64,0,4
