track,note,velocity,time
0,72,88,474
0,79,45,8
0,84,72,0
0,72,76,1
0,72,76,0
0,72,76,0
0,72,76,0
0,72,76,0
0,72,76,0
0,67,38,3
0,67,38,0
0,67,38,0
0,67,38,0
0,67,38,0
0,67,38,0
0,79,0,86
0,67,0,2
0,67,0,0
0,67,0,0
0,67,0,0
0,67,0,0
0,67,0,0
0,84,0,15
0,88,88,0
0,79,46,0
0,76,76,4
0,76,76,0
0,76,76,0
0,76,76,0
0,76,76,0
0,76,76,0
0,67,64,1
0,67,64,0
0,67,64,0
0,67,64,0
0,67,64,0
0,67,64,0
0,76,96,0
0,72,0,1
0,79,0,94
0,88,0,0
0,67,0,6
0,67,0,0
0,67,0,0
0,72,0,0
0,72,0,0
0,72,0,0
0,72,0,0
0,67,0,0
0,72,0,0
0,67,0,0
0,72,0,0
0,67,0,0
0,76,0,2
0,76,0,0
0,76,0,0
0,76,0,0
0,76,0,0
0,76,0,0
0,79,58,9
0,77,60,3
0,76,0,7
0,67,84,0
0,67,92,4
0,65,88,0
0,67,92,0
0,65,88,0
0,67,92,0
0,65,88,0
0,67,92,0
0,65,88,0
0,67,92,0
0,65,88,0
0,67,92,0
0,65,88,0
0,77,0,88
0,65,0,20
0,65,0,0
0,65,0,0
0,65,0,0
0,65,0,0
0,65,0,0
0,72,96,9
0,84,88,1
0,77,54,0
0,79,0,1
0,67,0,4
0,67,0,0
0,67,0,0
0,67,0,0
0,67,0,0
0,67,0,0
0,72,92,2
0,65,68,0
0,72,92,0
0,65,68,0
0,72,92,0
0,65,68,0
0,72,92,0
0,65,68,0
0,72,92,0
0,65,68,0
0,72,92,0
0,65,68,0
0,67,0,0
0,72,0,17
0,77,0,67
0,65,0,0
0,65,0,0
0,65,0,0
0,65,0,0
0,65,0,0
0,65,0,0
0,84,0,1
0,72,0,11
0,72,0,0
0,72,0,0
0,72,0,0
0,72,0,0
0,72,0,0
0,64,58,23
0,64,58,0
0,64,58,0
0,64,58,0
0,64,58,0
0,64,58,0
0,64,100,0
0,67,84,2
0,67,84,0
0,67,84,0
0,67,84,0
0,67,84,0
0,67,84,0
0,76,64,7
0,79,72,0
0,76,0,29
0,64,0,0
0,64,0,0
0,64,0,0
0,64,0,0
0,64,0,0
0,64,0,0
0,79,0,8
0,67,0,3
0,67,0,0
0,67,0,0
0,67,0,0
0,67,0,0
0,67,0,0
0,67,68,8
0,62,60,0
0,67,68,0
0,62,60,0
0,67,68,0
0,62,60,0
0,67,68,0
0,62,60,0
0,67,68,0
0,62,60,0
0,67,68,0
0,62,60,0
0,64,0,1
0,62,76,0
0,74,52,3
0,79,60,0
0,62,0,34
0,62,0,0
0,62,0,0
0,62,0,0
0,62,0,0
0,62,0,0
0,79,0,6
0,74,0,0
0,64,84,14
0,64,72,1
0,64,72,0
0,64,72,0
0,64,72,0
0,64,72,0
0,64,72,0
0,62,0,2
0,79,64,6
0,76,54,1
0,78,56,4
0,78,0,9
0,79,0,24
0,76,0,2
0,64,0,8
0,64,0,0
0,64,0,0
0,64,0,0
0,64,0,0
0,64,0,0
0,65,84,4
0,65,84,0
0,65,84,0
0,65,84,0
0,65,84,0
0,65,84,0
0,64,0,3
0,65,88,0
0,79,54,3
0,77,64,0
0,79,0,29
0,77,0,8
0,65,0,14
0,65,0,0
0,65,0,0
0,65,0,0
0,65,0,0
0,65,0,0
0,64,76,1
0,64,64,3
0,64,64,0
0,64,64,0
0,64,64,0
0,64,64,0
0,64,64,0
0,65,0,0
0,79,68,6
0,76,64,1
0,76,0,99
0,79,0,5
0,64,0,0
0,64,0,0
0,64,0,0
0,64,0,0
0,64,0,0
0,64,0,0
0,67,0,3
0,67,0,0
0,67,0,0
0,67,0,0
0,67,0,0
0,67,0,0
0,62,88,6
0,64,0,1
0,62,72,3
0,62,72,0
0,62,72,0
0,62,72,0
0,62,72,0
0,62,72,0
0,67,64,1
0,67,64,0
0,67,64,0
0,67,64,0
0,67,64,0
0,67,64,0
0,79,72,3
0,74,72,0
0,62,0,57
0,79,0,31
0,74,0,1
0,67,0,9
0,62,0,0
0,67,0,0
0,62,0,0
0,62,0,0
0,62,0,0
0,62,0,0
0,62,0,0
0,67,0,0
0,67,0,0
0,67,0,0
0,67,0,0
0,65,96,0
0,67,84,13
0,67,84,0
0,67,84,0
0,67,84,0
0,67,84,0
0,67,84,0
0,65,88,1
0,65,88,0
0,65,88,0
0,65,88,0
0,65,88,0
0,65,88,0
0,79,80,5
0,77,80,0
0,65,0,133
0,79,0,5
0,77,0,1
0,65,0,1
0,67,0,0
0,65,0,0
0,67,0,0
0,67,0,0
0,67,0,0
0,67,0,0
0,67,0,0
0,65,0,0
0,65,0,0
0,65,0,0
0,65,0,0
0,65,100,24
0,77,88,4
0,79,68,0
0,65,68,2
0,65,68,0
0,65,68,0
0,65,68,0
0,65,68,0
0,65,68,0
0,67,68,1
0,67,68,0
0,67,68,0
0,67,68,0
0,67,68,0
0,67,68,0
0,65,0,25
0,79,0,1
0,77,0,5
0,67,0,4
0,67,0,0
0,67,0,0
0,67,0,0
0,67,0,0
0,67,0,0
0,65,0,7
0,65,0,0
0,65,0,0
0,65,0,0
0,65,0,0
0,65,0,0
0,64,100,15
0,79,84,1
0,67,84,0
0,64,68,0
0,67,84,0
0,64,68,0
0,67,84,0
0,64,68,0
0,67,84,0
0,64,68,0
0,67,84,0
0,64,68,0
0,67,84,0
0,64,68,0
0,76,72,2
0,77,40,3
0,77,0,10
0,76,0,39
0,64,0,23
0,79,0,19
0,67,0,5
0,67,0,0
0,67,0,0
0,67,0,0
0,67,0,0
0,67,0,0
0,64,0,4
0,64,0,0
0,64,0,0
0,64,0,0
0,64,0,0
0,64,0,0
0,64,84,11
0,76,64,2
0,81,72,1
0,64,68,2
0,64,68,0
0,64,68,0
0,64,68,0
0,64,68,0
0,64,68,0
0,67,80,1
0,67,80,0
0,67,80,0
0,67,80,0
0,67,80,0
0,67,80,0
0,76,0,87
0,81,0,2
0,64,0,1
0,64,0,12
0,64,0,0
0,64,0,0
0,64,0,0
0,64,0,0
0,64,0,0
0,67,0,2
0,67,0,0
0,67,0,0
0,67,0,0
0,67,0,0
0,67,0,0
0,83,58,5
0,81,60,3
0,62,100,7
0,67,80,5
0,62,76,0
0,67,80,0
0,62,76,0
0,67,80,0
0,62,76,0
0,67,80,0
0,62,76,0
0,67,80,0
0,62,76,0
0,67,80,0
0,62,76,0
0,79,54,2
0,74,76,4
0,83,0,2
0,81,0,4
0,74,0,365
0,79,0,6
0,62,0,40
0,62,0,0
0,62,0,0
0,62,0,0
0,62,0,0
0,62,0,0
0,67,0,1
0,67,0,0
0,67,0,0
0,67,0,0
0,67,0,0
0,67,0,0
0,81,84,51
0,77,72,1
0,65,104,8
0,62,0,1
0,65,64,1
0,69,72,0
0,71,88,0
0,65,64,0
0,69,72,0
0,71,88,0
0,65,64,0
0,69,72,0
0,71,88,0
0,65,64,0
0,69,72,0
0,71,88,0
0,65,64,0
0,69,72,0
0,71,88,0
0,65,64,0
0,69,72,0
0,71,88,0
0,67,72,1
0,67,72,0
0,67,72,0
0,67,72,0
0,67,72,0
0,67,72,0
0,67,0,16
0,67,0,0
0,67,0,0
0,67,0,0
0,67,0,0
0,67,0,0
0,71,0,9
0,71,0,0
0,71,0,0
0,71,0,0
0,71,0,0
0,71,0,0
0,65,0,122
0,77,0,7
0,65,0,9
0,65,0,0
0,65,0,0
0,65,0,0
0,65,0,0
0,65,0,0
0,69,0,4
0,69,0,0
0,69,0,0
0,69,0,0
0,69,0,0
0,69,0,0
0,65,104,6
0,77,64,1
0,83,88,2
0,65,64,2
0,71,76,0
0,65,64,0
0,71,76,0
0,65,64,0
0,71,76,0
0,65,64,0
0,71,76,0
0,65,64,0
0,71,76,0
0,65,64,0
0,71,76,0
0,69,43,3
0,69,43,0
0,69,43,0
0,69,43,0
0,69,43,0
0,69,43,0
0,81,0,6
0,69,0,1
0,69,0,0
0,69,0,0
0,69,0,0
0,69,0,0
0,69,0,0
0,77,0,27
0,65,0,4
0,65,0,0
0,65,0,0
0,65,0,0
0,65,0,0
0,65,0,0
0,65,0,1
0,83,0,2
0,71,0,2
0,71,0,0
0,71,0,0
0,71,0,0
0,71,0,0
0,71,0,0
0,84,68,8
0,76,76,2
0,72,72,0
0,72,72,0
0,72,72,0
0,72,72,0
0,72,72,0
0,72,72,0
0,64,92,2
0,64,92,0
0,64,92,0
0,64,92,0
0,64,92,0
0,64,92,0
0,64,96,3
0,64,0,85
0,84,0,32
0,86,80,0
0,64,92,0
0,74,92,1
0,74,92,0
0,74,92,0
0,74,92,0
0,74,92,0
0,74,92,0
0,72,0,6
0,72,0,0
0,72,0,0
0,72,0,0
0,72,0,0
0,72,0,0
0,86,0,65
0,76,0,8
0,64,0,6
0,64,0,0
0,64,0,0
0,64,0,0
0,64,0,0
0,64,0,0
0,86,76,4
0,76,27,0
0,64,0,2
0,74,0,6
0,74,0,0
0,74,0,0
0,74,0,0
0,74,0,0
0,74,0,0
0,76,0,7
0,62,96,7
0,86,0,4
0,62,56,0
0,62,56,0
0,62,56,0
0,62,56,0
0,62,56,0
0,62,56,0
0,83,60,2
0,71,88,0
0,71,88,0
0,71,88,0
0,71,88,0
0,71,88,0
0,71,88,0
0,74,54,2
0,83,0,371
0,74,0,12
0,71,0,3
0,71,0,0
0,71,0,0
0,71,0,0
0,71,0,0
0,71,0,0
0,62,0,6
0,62,0,0
0,62,0,0
0,62,0,0
0,62,0,0
0,62,0,0
0,83,80,19
0,74,47,1
0,62,56,2
0,62,56,0
0,62,56,0
0,62,56,0
0,62,56,0
0,62,56,0
0,71,72,1
0,71,72,0
0,71,72,0
0,71,72,0
0,71,72,0
0,71,72,0
0,74,0,16
0,83,0,4
0,62,0,0
0,62,0,0
0,62,0,0
0,62,0,0
0,62,0,0
0,62,0,0
0,71,0,1
0,71,0,0
0,71,0,0
0,71,0,0
0,71,0,0
0,71,0,0
0,62,0,6
0,62,88,21
0,71,76,5
0,71,76,0
0,71,76,0
0,71,76,0
0,71,76,0
0,71,76,0
0,74,50,2
0,83,80,0
0,62,64,0
0,62,64,0
0,62,64,0
0,62,64,0
0,62,64,0
0,62,64,0
0,74,0,39
0,60,72,14
0,83,0,4
0,69,72,1
0,69,72,0
0,69,72,0
0,69,72,0
0,69,72,0
0,69,72,0
0,72,68,1
0,81,58,0
0,62,0,0
0,71,0,4
0,71,0,0
0,71,0,0
0,71,0,0
0,71,0,0
0,71,0,0
0,72,0,26
0,81,0,13
0,83,88,15
0,74,64,0
0,71,68,0
0,71,68,0
0,71,68,0
0,71,68,0
0,71,68,0
0,71,68,0
0,62,88,1
0,60,0,1
0,74,0,31
0,83,0,2
0,72,64,20
0,72,64,0
0,72,64,0
0,72,64,0
0,72,64,0
0,72,64,0
0,84,88,2
0,76,56,1
0,71,0,2
0,71,0,0
0,71,0,0
0,71,0,0
0,71,0,0
0,71,0,0
0,64,80,3
0,62,0,1
0,69,0,6
0,69,0,0
0,69,0,0
0,69,0,0
0,69,0,0
0,69,0,0
0,76,0,16
0,84,0,13
0,72,0,15
0,72,0,0
0,72,0,0
0,72,0,0
0,72,0,0
0,72,0,0
0,74,72,2
0,83,80,1
0,69,45,3
0,71,68,0
0,69,45,0
0,71,68,0
0,69,45,0
0,71,68,0
0,69,45,0
0,71,68,0
0,69,45,0
0,71,68,0
0,69,45,0
0,71,68,0
0,64,0,8
0,62,100,1
0,74,0,137
0,83,0,19
0,71,0,20
0,71,0,0
0,71,0,0
0,71,0,0
0,71,0,0
0,71,0,0
0,76,76,1
0,84,80,1
0,79,68,1
0,60,76,3
0,62,0,1
0,71,80,3
0,71,80,0
0,71,80,0
0,71,80,0
0,71,80,0
0,71,80,0
0,35,113,0
0,79,84,1
0,84,100,0
0,84,88,0
0,76,96,1
0,60,96,4
0,72,80,2
0,72,80,0
0,72,80,0
0,72,80,0
0,72,80,0
0,72,80,0
0,60,80,1
0,60,80,0
0,60,80,0
0,60,80,0
0,60,80,0
0,60,80,0
0,48,84,5
0,67,76,0
0,60,68,0
0,64,76,0
0,35,0,16
0,84,0,3
0,84,92,25
0,88,68,60
0,89,60,2
0,38,115,0
0,89,0,8
0,48,0,12
0,84,0,6
0,38,0,4
0,43,100,24
0,88,0,2
0,91,96,2
0,88,76,2
0,43,0,14
0,88,0,41
0,48,96,1
0,86,64,4
0,86,96,0
0,35,115,0
0,91,0,8
0,35,0,22
0,35,111,30
0,86,0,29
0,35,0,1
0,86,72,19
0,84,96,8
0,38,110,3
0,86,0,2
0,38,0,28
0,48,0,7
0,84,58,16
0,43,100,7
0,35,114,0
0,86,0,1
0,67,0,11
0,43,0,7
0,64,0,0
0,60,0,2
0,35,0,9
0,60,0,5
0,64,96,21
0,60,76,0
0,84,0,1
0,84,0,0
0,67,88,0
0,48,100,2
0,79,46,0
0,79,76,0
0,35,115,1
0,35,0,30
0,84,76,25
0,60,0,4
0,60,0,0
0,60,0,0
0,60,0,0
0,60,0,0
0,60,0,0
0,35,110,1
0,72,0,4
0,72,0,0
0,72,0,0
0,72,0,0
0,72,0,0
0,72,0,0
0,35,0,26
0,88,84,20
0,38,113,10
0,46,70,0
0,79,0,2
0,84,0,3
0,38,0,25
0,46,0,0
0,48,0,13
0,91,92,8
0,88,0,1
0,79,0,2
0,35,111,6
0,43,100,1
0,43,0,26
0,35,0,3
0,48,96,25
0,86,100,2
0,91,0,3
0,35,112,0
0,35,0,30
0,35,115,30
0,35,0,30
0,84,92,30
0,38,113,0
0,86,0,3
0,84,0,21
0,79,0,2
0,76,0,3
0,38,0,1
0,48,0,11
0,47,108,19
0,35,113,0
0,67,0,16
0,64,0,0
0,60,0,2
0,47,0,9
0,35,0,3
0,84,0,9
0,60,76,16
0,69,100,0
0,64,92,0
0,45,100,2
0,76,92,0
0,35,111,3
0,35,0,30
0,81,76,27
0,35,112,3
0,35,0,30
0,84,80,25
0,38,110,5
0,76,0,8
0,45,0,14
0,38,0,8
0,40,96,26
0,81,0,1
0,88,92,2
0,35,116,1
0,84,0,1
0,40,0,22
0,35,0,7
0,45,92,27
0,83,92,1
0,35,112,2
0,88,0,3
0,35,0,27
0,81,68,85
0,83,0,4
0,38,112,1
0,38,0,30
0,45,0,7
0,40,64,29
0,38,76,4
0,38,0,17
0,40,0,4
0,69,0,2
0,64,0,3
0,60,0,0
0,35,116,24
0,81,0,1
0,76,88,0
0,45,104,1
0,60,72,0
0,64,92,0
0,69,104,1
0,35,0,27
0,35,113,30
0,81,60,2
0,76,0,13
0,35,0,15
0,38,114,30
0,84,80,2
0,38,0,28
0,45,0,5
0,81,0,11
0,84,0,12
0,88,96,0
0,35,113,2
0,40,96,2
0,35,0,28
0,40,0,4
0,83,96,24
0,35,113,2
0,45,100,1
0,88,0,2
0,35,0,27
0,81,88,86
0,38,113,4
0,83,0,2
0,38,0,28
0,45,0,7
0,35,112,23
0,45,96,3
0,35,0,27
0,69,0,8
0,64,0,2
0,60,0,2
0,45,0,1
0,81,0,6
0,60,72,7
0,65,100,0
0,69,72,1
0,41,96,1
0,81,68,1
0,35,113,1
0,35,0,30
0,35,111,30
0,86,92,1
0,35,0,29
0,89,88,27
0,38,114,3
0,41,0,18
0,38,0,12
0,93,80,25
0,36,92,2
0,89,0,0
0,86,0,3
0,35,115,0
0,36,0,25
0,35,0,5
0,81,0,7
0,41,104,18
0,89,84,4
0,35,115,1
0,93,0,2
0,35,0,28
0,88,92,30
0,89,0,4
0,38,112,56
0,86,88,1
0,88,0,4
0,41,0,24
0,38,0,1
0,36,84,28
0,35,114,2
0,36,0,29
0,35,0,1
0,65,0,5
0,60,0,0
0,69,0,3
0,41,104,21
0,81,76,1
0,69,96,0
0,62,84,0
0,35,112,0
0,86,0,1
0,65,104,0
0,35,0,29
0,86,88,30
0,89,80,58
0,38,112,2
0,38,0,30
0,41,0,21
0,93,88,8
0,89,0,1
