track,note,velocity,time
1,36,76,13404
1,33,66,160
1,31,66,172
1,36,56,136
1,31,46,16
1,36,64,192
1,36,64,100
1,33,76,0
1,31,56,384
1,31,64,96
1,33,72,8
1,31,56,16
1,33,64,192
1,33,60,92
1,36,66,192
1,40,68,148
1,36,54,156
1,40,54,20
1,33,56,192
1,33,60,88
1,36,62,192
1,33,50,124
1,35,58,8
1,36,58,192
1,38,60,108
1,38,62,88
1,41,64,0
1,45,66,164
1,41,68,148
1,45,56,192
1,38,56,184
1,38,56,100
1,41,68,192
1,38,56,164
1,40,56,8
1,41,62,8
1,43,56,56
1,43,56,88
1,40,66,16
1,38,64,164
1,40,58,52
1,38,54,192
1,43,62,24
1,43,64,76
1,40,68,0
1,38,64,12
1,38,62,84
1,40,64,8
1,38,58,12
1,36,40,8
1,36,38,124
1,33,68,192
1,31,64,192
1,33,62,144
1,31,58,4
1,40,54,192
1,40,58,100
1,40,72,88
1,40,54,156
1,40,52,88
1,40,66,68
1,38,56,212
1,38,56,108
1,41,64,40
1,45,52,148
1,45,44,100
1,41,64,12
1,43,58,104
1,43,54,96
1,40,60,8
1,38,54,164
1,43,62,292
1,36,48,288
1,36,56,96
1,33,52,12
1,31,66,140
1,33,54,4
1,31,50,28
1,28,62,192
1,28,64,76
1,28,56,16
1,28,68,192
1,28,56,56
1,28,66,96
1,38,62,32
1,38,31,80
1,40,66,120
1,41,64,204
1,41,62,72
1,45,52,0
1,43,60,68
1,43,52,80
1,40,66,24
1,38,58,156
1,40,64,120
1,38,52,44
1,41,64,192
1,41,50,128
1,41,72,92
1,40,64,172
1,40,58,148
1,40,58,68
1,41,62,160
1,41,52,136
1,41,58,80
1,40,68,76
1,40,64,148
1,40,62,68
1,41,62,168
1,41,48,140
1,41,62,84
1,36,56,112
1,36,60,168
1,36,66,88
1,36,54,152
1,31,68,20
1,31,66,40
1,31,68,140
1,38,66,384
1,43,64,180
1,43,62,100
1,43,76,116
1,47,64,32
1,50,72,384
1,36,48,28
1,36,66,22768
1,33,72,104
1,31,64,132
1,36,60,80
1,31,52,0
1,36,62,192
1,36,60,92
1,33,66,192
1,31,56,4
1,31,66,124
1,33,68,192
1,31,54,188
1,33,50,188
1,33,60,140
1,36,54,12
1,40,68,28
1,36,56,12
1,40,62,192
1,33,58,188
1,33,50,104
1,36,60,192
1,33,62,60
1,35,62,192
1,36,56,180
1,38,60,60
1,38,30,100
1,41,68,0
1,45,66,88
1,41,58,40
1,45,56,8
1,38,54,192
1,38,54,100
1,41,64,12
1,38,58,136
1,40,64,32
1,41,66,4
1,43,64,140
1,43,54,96
1,40,64,8
1,38,66,4
1,40,58,28
1,38,50,96
1,43,64,92
1,43,64,60
1,40,64,192
1,38,54,380
1,38,58,120
1,40,25,4
1,38,64,20
1,36,54,192
1,36,48,88
1,33,56,12
1,31,46,40
1,31,58,88
1,33,66,192
1,31,46,12
1,40,62,192
1,40,50,184
1,40,66,112
1,40,64,108
1,38,64,100
1,38,58,100
1,41,52,28
1,45,64,192
1,41,54,52
1,45,52,192
1,43,66,8
1,43,58,88
1,40,60,12
1,38,54,32
1,40,56,28
1,43,64,20
1,36,52,52
1,36,54,104
1,33,58,12
1,31,56,8
1,31,68,104
1,33,64,68
1,31,66,192
1,40,62,4
1,40,66,68
1,40,56,164
1,40,68,60
1,40,66,88
1,38,64,80
1,38,62,80
1,28,66,192
1,29,64,16
1,29,52,80
1,33,62,56
1,31,58,20
1,31,62,44
1,31,60,132
1,40,68,12
1,43,60,8
1,40,54,12
1,41,50,28
1,41,48,116
1,41,58,108
1,48,62,0
1,55,66,192
1,40,62,144
1,40,56,176
1,40,72,96
1,41,64,176
1,41,54,112
1,41,52,96
1,40,66,128
1,40,56,124
1,40,64,92
1,41,76,164
1,41,42,124
1,41,62,100
1,55,62,0
1,36,64,48
1,36,50,120
1,36,66,112
1,38,68,60
1,31,76,28
1,31,80,68
1,31,72,144
1,38,72,384
1,43,68,4
1,43,56,96
1,50,68,192
1,55,42,4
1,55,72,92
1,36,60,23208
1,36,52,68
1,36,66,44
1,36,62,60
1,31,72,92
1,31,68,92
1,36,62,24
1,36,54,100
1,36,48,32
1,36,88,76
1,38,80,64
1,40,64,4
1,41,68,16
1,41,64,196
1,41,72,100
1,41,58,148
1,45,62,4
1,45,54,140
1,45,66,92
1,38,76,156
1,38,58,144
1,43,62,8
1,43,72,36
1,43,72,300
1,36,58,4
1,36,54,168
1,36,58,80
1,43,68,84
1,41,68,152
1,41,52,136
1,41,80,92
1,41,56,228
1,38,64,40
1,38,58,108
1,40,76,40
1,40,66,116
1,41,64,52
1,41,66,280
1,41,76,96
1,41,56,164
1,43,64,24
1,43,68,132
1,43,66,112
1,43,68,108
1,47,60,132
1,45,66,0
1,55,62,64
1,55,66,84
1,55,64,124
1,53,54,28
1,55,76,96
1,55,68,80
2,67,92,13384
2,72,72,24
2,76,72,44
2,79,76,44
2,74,97,4
2,74,88,84
2,72,76,192
2,67,84,20
2,72,66,192
2,76,72,40
2,79,60,36
2,74,88,192
2,74,84,116
2,72,80,192
2,64,68,8
2,69,72,192
2,72,72,56
2,76,92,0
2,71,80,16
2,71,92,144
2,69,66,192
2,64,68,24
2,69,68,0
2,72,72,48
2,76,88,0
2,71,80,8
2,71,92,116
2,69,68,12
2,69,64,104
2,74,64,0
2,77,72,44
2,81,84,192
2,76,80,12
2,76,88,128
2,74,60,192
2,69,84,20
2,74,52,192
2,77,72,24
2,81,62,24
2,76,80,4
2,76,76,108
2,74,58,192
2,62,80,120
2,67,58,192
2,71,64,188
2,74,88,16
2,69,84,192
2,69,80,112
2,67,76,4
2,62,66,16
2,67,80,192
2,71,64,52
2,74,88,192
2,69,80,0
2,69,88,168
2,67,72,12
2,67,66,100
2,72,72,0
2,64,68,0
2,62,46,112
2,67,54,0
2,71,62,0
2,62,68,144
2,71,88,0
2,67,80,0
2,72,76,20
2,62,68,112
2,71,76,0
2,67,66,0
2,72,72,12
2,67,56,104
2,71,72,0
2,62,62,0
2,65,60,12
2,69,66,0
2,60,62,0
2,71,80,52
2,67,80,0
2,64,68,0
2,62,66,576
2,67,68,72
2,62,66,0
2,71,72,0
2,64,66,88
2,67,62,0
2,72,72,0
2,71,54,140
2,67,54,0
2,62,52,0
2,71,80,144
2,67,84,0
2,62,68,0
2,72,80,0
2,62,64,112
2,67,68,0
2,71,84,0
2,72,72,0
2,67,66,132
2,62,64,0
2,71,72,0
2,60,52,120
2,69,72,0
2,65,68,0
2,67,80,68
2,71,76,0
2,64,76,0
2,62,56,576
2,67,66,108
2,71,72,0
2,62,68,0
2,72,64,320
2,81,84,0
2,77,84,0
2,77,72,120
2,81,76,0
2,72,68,0
2,84,76,0
2,72,84,40
2,76,88,0
2,79,66,0
2,79,58,44
2,76,66,0
2,84,64,0
2,76,68,40
2,79,72,0
2,84,68,0
2,76,80,52
2,79,66,0
2,72,76,0
2,84,80,52
2,81,88,0
2,77,80,0
2,72,84,0
2,77,68,152
2,81,84,0
2,72,72,0
2,72,72,32
2,76,80,0
2,79,64,0
2,79,46,72
2,76,54,0
2,72,56,0
2,84,62,0
2,72,92,64
2,76,92,0
2,79,80,0
2,84,68,0
2,60,80,328
2,65,88,0
2,69,84,0
2,55,84,148
2,67,92,0
2,64,68,384
2,60,68,0
2,55,84,76
2,67,68,0
2,62,72,52
2,67,64,0
2,65,76,0
2,72,76,0
2,72,76,104
2,65,76,0
2,67,72,0
2,62,80,0
2,67,80,96
2,62,88,0
2,65,84,0
2,72,80,0
2,65,60,84
2,62,72,0
2,67,68,0
2,72,76,0
2,71,58,4
2,71,92,108
2,62,80,0
2,65,84,0
2,67,88,0
2,62,68,128
2,65,64,0
2,67,66,0
2,71,80,0
2,67,76,92
2,62,64,0
2,65,72,0
2,71,72,0
2,71,76,120
2,62,68,0
2,65,64,0
2,67,68,0
2,79,68,12376
2,76,84,0
2,72,72,0
2,76,92,116
2,72,76,0
2,79,76,0
2,77,84,84
2,79,72,0
2,72,76,0
2,72,76,80
2,79,66,0
2,77,97,0
2,76,76,28
2,79,56,0
2,72,66,0
2,79,62,96
2,74,80,0
2,72,68,0
2,79,64,112
2,72,64,0
2,76,68,0
2,77,72,92
2,79,60,0
2,72,64,0
2,76,88,108
2,79,66,0
2,72,72,0
2,74,80,28
2,72,76,120
2,74,88,0
2,79,72,0
2,77,92,112
2,79,72,0
2,72,68,0
2,79,72,104
2,72,76,0
2,77,88,0
2,76,72,96
2,72,68,0
2,79,62,0
2,79,66,92
2,72,76,0
2,76,92,0
2,74,52,192
2,71,80,68
2,74,72,0
2,79,66,0
2,79,66,88
2,74,76,0
2,77,88,0
2,74,88,144
2,77,92,0
2,79,66,0
2,76,80,128
2,79,66,0
2,72,68,0
2,76,88,60
2,79,62,0
2,72,68,0
2,74,58,192
2,74,72,52
2,79,76,0
2,71,84,0
2,77,54,108
2,79,56,0
2,74,80,0
2,77,84,128
2,79,64,0
2,74,84,0
2,76,64,16
2,72,66,0
2,79,22,92
2,74,88,0
2,77,76,0
2,79,68,100
2,76,80,0
2,74,80,84
2,79,72,0
2,77,84,0
2,76,64,192
2,72,66,0
2,76,88,108
2,72,72,0
2,79,62,0
2,67,84,128
2,72,68,16
2,76,76,4
2,79,68,36
2,74,66,192
2,74,88,104
2,72,76,192
2,67,84,16
2,72,72,4
2,76,76,192
2,79,72,16
2,74,80,192
2,74,84,160
2,72,76,192
2,64,66,8
2,69,68,192
2,72,76,24
2,76,88,192
2,71,72,188
2,71,80,96
2,69,62,192
2,64,72,28
2,69,66,4
2,72,72,40
2,76,80,4
2,71,68,24
2,71,80,92
2,69,64,4
2,67,40,100
2,69,52,0
2,74,60,136
2,77,72,12
2,81,80,192
2,76,80,184
2,76,84,100
2,74,50,0
2,69,80,8
2,74,84,192
2,77,68,8
2,81,84,192
2,76,80,8
2,76,68,104
2,74,62,192
2,62,52,4
2,67,76,192
2,71,64,144
2,74,84,16
2,69,68,192
2,69,68,96
2,67,66,192
2,62,64,4
2,67,66,192
2,71,66,160
2,74,64,176
2,69,68,184
2,69,68,124
2,67,66,192
2,67,76,80
2,72,76,0
2,64,76,0
2,71,54,108
2,62,56,0
2,67,52,0
2,62,66,148
2,71,68,0
2,67,72,0
2,72,72,0
2,67,68,116
2,62,72,0
2,71,68,0
2,72,72,20
2,71,80,112
2,67,68,0
2,62,66,0
2,60,72,12
2,69,68,0
2,65,72,0
2,64,84,100
2,67,80,0
2,71,76,0
2,62,66,8
2,62,68,104
2,67,72,0
2,71,66,0
2,64,64,20
2,67,76,0
2,72,76,0
2,67,32,120
2,62,52,0
2,71,62,0
2,62,66,136
2,67,72,0
2,71,84,0
2,72,72,4
2,62,64,112
2,71,72,0
2,67,68,0
2,72,66,0
2,62,66,124
2,71,80,0
2,67,76,0
2,60,76,8
2,69,64,0
2,65,68,0
2,71,72,148
2,67,84,0
2,64,68,0
2,62,62,576
2,67,68,100
2,62,72,0
2,71,80,0
2,69,84,108
2,60,68,0
2,65,76,0
2,72,76,100
2,65,76,0
2,69,88,0
2,60,72,0
2,60,68,8
2,64,72,0
2,67,72,0
2,67,66,116
2,64,66,0
2,72,66,0
2,64,84,92
2,67,88,0
2,72,80,0
2,67,68,20
2,60,72,0
2,64,72,0
2,72,88,40
2,60,66,0
2,69,84,0
2,65,84,0
2,60,72,100
2,65,72,0
2,69,76,0
2,60,68,32
2,64,80,0
2,67,84,0
2,67,68,136
2,60,64,0
2,64,64,0
2,72,62,0
2,60,64,80
2,67,68,0
2,64,66,0
2,72,76,0
2,60,66,44
2,65,68,0
2,69,84,0
2,55,66,4
2,67,84,0
2,64,72,384
2,60,68,0
2,55,80,116
2,67,76,0
2,65,76,88
2,62,66,0
2,67,76,0
2,72,92,0
2,67,68,120
2,62,76,0
2,65,72,0
2,72,76,0
2,62,62,92
2,65,60,0
2,67,62,0
2,72,72,0
2,72,80,92
2,67,72,0
2,65,68,0
2,62,76,0
2,71,72,64
2,62,76,0
2,65,72,0
2,67,68,0
2,65,72,92
2,62,72,0
2,67,76,0
2,71,88,0
2,67,64,108
2,62,68,0
2,65,68,0
2,71,80,0
2,71,84,104
2,65,68,0
2,67,76,0
2,62,72,0
2,76,88,12416
2,72,72,0
2,79,72,0
2,72,72,148
2,76,92,0
2,79,68,0
2,77,88,108
2,72,76,0
2,79,66,0
2,77,88,132
2,72,72,0
2,79,60,0
2,79,66,84
2,72,72,0
2,76,88,0
2,72,62,104
2,79,54,0
2,74,80,0
2,79,50,116
2,72,62,0
2,76,80,0
2,79,64,128
2,77,92,0
2,72,72,0
2,79,64,120
2,76,88,0
2,72,66,0
2,74,66,24
2,72,76,128
2,79,62,0
2,74,80,0
2,79,64,140
2,77,88,0
2,72,68,0
2,77,88,112
2,72,64,0
2,79,64,0
2,79,66,100
2,76,88,0
2,72,66,0
2,76,92,132
2,79,68,0
2,72,68,0
2,74,76,4
2,74,80,100
2,79,68,0
2,71,68,0
2,77,88,96
2,74,88,0
2,79,68,0
2,77,92,120
2,79,68,0
2,74,80,0
2,76,84,148
2,79,64,0
2,72,66,0
2,79,62,140
2,76,84,0
2,72,72,0
2,74,54,192
2,71,76,96
2,79,68,0
2,74,76,0
2,77,66,88
2,79,46,0
2,74,76,0
2,77,84,124
2,79,62,0
2,74,84,0
2,76,64,16
2,72,60,0
2,77,76,108
2,74,84,0
2,79,60,0
2,76,84,100
2,79,58,0
2,77,68,116
2,74,84,0
2,79,62,0
2,72,56,12
2,76,68,0
2,76,88,128
2,72,72,0
2,79,72,0
2,72,88,156
2,67,80,0
2,60,24,288
2,60,68,68
2,67,72,0
2,72,72,0
2,67,72,76
2,60,66,0
2,72,80,0
2,67,62,72
2,60,66,0
2,72,68,0
2,67,72,96
2,60,84,0
2,72,80,0
2,72,84,60
2,60,66,0
2,67,76,0
2,60,72,40
2,67,84,0
2,72,97,0
2,65,88,320
2,72,72,0
2,69,76,0
2,65,66,92
2,69,64,0
2,72,72,0
2,77,76,0
2,69,84,104
2,65,92,0
2,72,92,0
2,77,84,0
2,64,80,132
2,69,80,0
2,72,92,0
2,64,60,132
2,69,68,0
2,76,68,0
2,72,72,0
2,72,84,124
2,76,76,0
2,69,88,0
2,64,80,0
2,77,88,60
2,65,72,0
2,72,80,0
2,69,76,0
2,71,80,212
2,74,68,0
2,67,88,0
2,79,68,0
2,64,66,212
2,76,80,0
2,67,76,0
2,72,84,0
2,76,72,92
2,72,68,0
2,67,72,0
2,64,68,0
2,67,76,48
2,72,92,0
2,76,88,0
2,64,80,0
2,62,76,108
2,71,72,0
2,67,68,0
2,74,76,0
2,60,76,88
2,72,76,0
2,69,84,0
2,65,72,0
2,60,80,140
2,65,88,0
2,69,92,0
2,65,84,68
2,69,84,0
2,62,72,0
2,61,80,172
2,64,80,0
2,69,72,0
2,67,88,0
2,62,76,216
2,74,84,0
2,65,76,0
2,69,72,0
2,86,88,220
2,74,64,0
2,81,84,0
2,77,64,0
2,67,64,288
2,79,62,0
2,74,64,0
2,79,64,116
2,67,72,0
2,71,72,0
2,74,64,0
2,67,80,48
2,79,68,0
2,71,72,0
2,74,64,0
2,71,68,40
2,74,64,0
2,79,72,0
2,67,66,0
2,67,62,136
2,79,56,0
2,71,62,0
2,74,66,0
2,79,66,40
2,71,80,0
2,67,76,0
2,74,62,0
2,67,72,56
2,74,84,0
2,79,68,0
2,71,80,0
2,74,76,52
2,67,80,0
2,79,80,0
2,71,72,0
2,79,66,92
2,67,88,0
2,74,80,0
2,71,72,0
2,74,68,92
2,79,58,0
2,67,76,0
2,71,76,0
2,74,66,92
2,71,66,0
2,67,80,0
2,79,62,0
2,74,76,84
2,71,76,0
2,67,80,0
2,79,64,0
2,67,102,11728
2,72,92,24
2,76,80,192
2,76,84,76
2,79,68,0
2,72,76,0
2,72,68,100
2,79,66,0
2,76,88,0
2,77,84,108
2,79,66,0
2,72,80,0
2,74,80,0
2,72,62,112
