track,note,velocity,time
3,46,76,36064
3,46,0,364
3,45,78,20
3,45,0,376
3,43,82,8
3,43,0,380
3,41,70,4
3,41,0,760
3,36,70,8
3,36,0,744
3,41,94,24
3,41,0,628
3,36,76,140
3,36,0,220
3,41,76,164
3,41,0,156
3,36,66,36
3,36,0,184
3,39,90,8
3,39,0,692
3,34,82,76
3,34,0,568
3,34,82,200
3,34,0,464
3,34,68,112
3,34,0,184
3,38,82,8
3,38,0,360
3,39,78,24
3,41,86,384
3,39,0,4
3,41,0,652
3,36,78,112
3,36,0,648
3,41,74,120
3,41,0,624
3,36,76,144
3,36,0,308
3,41,82,76
3,41,0,376
3,39,86,8
3,39,0,756
3,34,82,12
3,34,0,500
3,39,64,76
3,39,0,188
3,34,78,4
3,34,0,440
3,34,72,136
3,34,0,184
3,33,74,8
3,33,0,380
3,31,78,4
3,31,0,376
3,29,86,8
3,29,0,588
3,36,68,180
3,36,0,524
3,41,90,244
3,41,0,1396
3,34,82,140
3,34,0,548
3,29,86,220
3,29,0,536
3,34,74,232
3,34,0,744
3,38,74,24
3,38,0,348
3,39,82,36
3,39,0,380
3,41,82,4
3,41,0,756
3,36,68,12
3,36,0,668
3,41,78,100
3,41,0,692
3,36,72,76
3,36,0,664
3,34,94,104
3,34,0,636
3,29,78,132
3,29,0,636
3,34,76,132
3,34,0,712
3,29,78,56
3,29,0,716
3,41,98,52
3,41,0,664
3,36,74,104
3,36,0,692
3,41,78,76
3,41,0,756
3,36,74,12
3,36,0,688
3,34,86,80
3,34,0,624
3,29,78,144
3,29,0,724
3,34,90,44
3,34,0,596
3,38,76,172
3,38,0,264
3,39,66,120
3,39,0,280
3,41,72,104
3,41,0,576
3,36,72,192
3,36,0,544
3,41,82,224
3,41,0,588
3,36,72,180
3,36,0,544
3,34,70,224
3,34,0,476
3,29,78,292
3,29,0,548
3,34,86,220
3,34,0,524
3,33,66,244
3,33,0,252
3,31,74,132
3,31,0,268
3,29,76,116
3,29,0,564
3,36,78,204
3,36,0,552
3,29,76,216
3,29,0,560
3,36,72,208
3,36,0,604
3,34,82,164
3,34,0,512
3,29,76,256
3,29,0,608
3,34,72,160
3,34,0,512
3,46,64,256
3,46,0,888
3,34,82,264
3,34,0,8
3,29,90,4
3,29,0,548
3,36,70,220
3,36,0,712
3,41,90,56
3,41,0,716
3,36,72,52
3,36,0,308
3,41,90,76
3,41,0,188
3,36,56,4
3,36,0,188
3,39,94,4
3,39,0,744
3,34,86,24
3,34,0,392
3,34,86,184
3,34,0,88
3,34,94,104
3,34,0,696
3,38,74,72
3,38,0,336
3,39,76,48
3,39,0,368
3,41,86,16
3,41,0,688
3,36,74,80
3,36,0,500
3,41,90,268
3,41,0,716
3,36,66,52
3,36,0,324
3,41,86,60
3,41,0,184
3,36,60,8
3,36,0,192
3,39,94,0
3,39,0,660
3,34,76,108
3,34,0,612
3,34,76,156
3,34,0,660
3,33,78,108
3,33,0,368
3,31,74,16
3,31,0,380
3,29,66,4
3,29,0,628
3,36,74,140
3,36,0,752
3,41,78,16
3,41,0,732
3,36,72,36
3,36,0,472
3,36,64,104
3,36,0,184
3,34,82,8
3,34,0,740
3,29,76,28
3,29,0,740
3,34,78,28
3,34,0,724
3,33,76,44
3,33,0,340
3,31,76,44
3,31,0,380
3,29,74,4
3,29,0,728
3,36,76,40
3,36,0,764
3,41,94,4
3,41,0,1476
3,34,82,60
3,34,0,656
3,29,90,112
3,29,0,592
3,34,78,176
3,34,0,716
3,29,82,52
3,29,0,608
3,33,90,160
3,33,0,276
3,31,86,108
3,31,0,256
3,29,94,128
3,29,0,560
3,36,78,208
3,36,0,580
3,34,82,188
3,34,0,560
3,29,82,208
3,29,0,548
3,34,82,220
3,34,0,568
3,29,78,200
3,29,0,596
3,34,76,172
3,34,0,556
3,33,90,212
3,33,0,308
3,31,82,76
3,31,0,376
3,29,78,8
3,29,0,648
3,36,78,120
3,36,0,620
3,41,82,148
3,41,0,592
3,36,78,176
3,36,0,560
3,34,94,208
3,34,0,500
3,29,76,268
3,29,0,660
3,34,102,108
3,34,0,616
3,38,78,152
3,38,0,252
3,39,90,132
3,39,0,292
3,41,90,92
3,41,0,584
3,36,76,184
3,36,0,580
3,41,86,188
3,41,0,568
3,36,74,200
3,36,0,560
3,34,90,208
3,34,0,588
3,29,74,180
3,29,0,620
3,34,74,148
3,34,0,588
3,29,76,180
3,29,0,556
3,41,90,212
3,41,0,616
3,36,72,152
3,36,0,600
3,41,82,168
3,41,0,560
3,36,74,208
3,36,0,624
3,34,72,144
3,34,0,564
3,29,68,204
3,29,0,624
3,34,82,144
3,34,0,572
3,38,86,196
3,38,0,292
3,39,76,92
3,39,0,248
3,41,86,136
3,41,0,568
3,36,72,200
3,36,0,556
3,41,86,212
3,41,0,560
3,36,74,208
3,36,0,588
3,34,86,180
3,34,0,508
3,29,74,260
3,29,0,560
3,34,76,208
3,34,0,628
3,33,78,140
3,33,0,236
3,31,82,148
3,31,0,220
3,29,76,164
3,29,0,604
3,36,76,164
3,36,0,536
3,41,86,232
3,41,0,608
3,36,72,160
3,36,0,616
3,34,82,152
3,34,0,520
3,29,72,248
3,29,0,584
3,34,94,184
3,34,0,604
3,46,66,164
3,46,0,980
3,34,90,172
3,34,0,8
3,29,76,12
3,29,0,588
3,36,78,180
3,36,0,524
3,41,90,244
3,41,0,580
3,36,64,188
3,36,0,288
3,41,82,96
3,41,0,180
3,36,56,12
3,36,0,180
3,39,82,12
3,39,0,588
3,34,98,180
3,34,0,576
3,34,86,192
3,34,0,588
3,38,72,180
3,38,0,248
3,39,90,136
3,39,0,260
3,41,86,124
3,41,0,668
3,36,70,100
3,36,0,736
3,41,86,32
3,41,0,560
3,36,72,208
3,36,0,280
3,41,90,104
3,41,0,136
3,36,56,56
3,36,0,176
3,39,90,16
3,39,0,612
3,34,82,156
3,34,0,580
3,34,78,188
3,34,0,584
3,33,78,184
3,33,0,348
3,31,74,36
3,31,0,308
3,29,82,76
3,29,0,672
3,36,78,96
3,36,0,608
3,41,90,160
3,41,0,576
3,36,70,192
3,36,0,584
3,34,74,184
3,34,0,764
3,29,76,4
3,29,0,664
3,34,76,104
3,34,0,644
3,33,82,124
3,33,0,268
3,31,90,116
3,31,0,264
3,29,74,120
3,29,0,632
3,36,76,136
3,36,0,520
3,41,86,248
3,41,0,1320
3,34,86,216
3,34,0,592
3,29,76,176
3,29,0,460
3,29,76,116
3,29,0,188
3,34,94,4
3,34,0,760
3,29,78,8
3,29,0,688
3,33,76,80
3,33,0,240
3,31,94,144
3,31,0,312
3,29,90,72
3,29,0,672
3,36,76,96
3,36,0,536
3,34,94,232
3,34,0,604
3,29,76,164
3,29,0,612
3,34,78,156
3,34,0,552
3,29,78,216
3,29,0,608
3,34,76,160
3,34,0,604
3,33,74,164
3,33,0,300
3,31,78,84
3,31,0,292
3,29,74,92
3,36,78,768
3,29,0,4
3,36,0,588
3,41,82,176
3,41,0,688
3,36,70,80
3,36,0,320
3,39,74,64
3,39,0,168
3,41,78,24
3,41,0,188
3,34,76,4
3,34,0,52
3,29,76,140
3,29,0,68
3,29,76,124
3,29,0,160
3,34,82,32
3,34,0,52
3,29,78,140
3,29,0,40
3,33,76,152
3,33,0,88
3,31,90,104
3,31,0,104
3,29,82,88
3,29,0,28
3,36,76,164
3,36,0,20
3,34,94,172
3,34,0,36
3,29,74,156
3,29,0,48
3,34,78,144
3,34,0,136
3,29,74,192
3,29,0,4
3,34,82,188
3,34,0,192
3,33,76,192
3,33,0,92
3,31,86,100
3,31,0,80
3,29,76,112
3,29,0,20
3,36,76,172
3,36,0,64
3,41,82,128
3,41,0,184
3,36,74,192
3,36,0,136
3,39,94,56
3,39,0,188
3,41,76,4
3,41,0,140
4,46,88,3020
4,53,88,0
4,58,88,0
4,63,88,0
4,65,88,0
4,70,88,0
4,70,0,264
4,53,0,0
4,58,0,0
4,46,0,0
4,65,0,0
4,63,0,0
4,46,88,120
4,53,88,0
4,58,88,0
4,63,88,0
4,65,88,0
4,65,0,264
4,58,0,0
4,46,0,0
4,53,0,0
4,63,0,0
4,46,88,120
4,53,88,0
4,58,88,0
4,63,88,0
4,65,88,0
4,70,88,0
4,70,0,264
4,53,0,0
4,58,0,0
4,46,0,0
4,65,0,0
4,63,0,0
4,46,88,120
4,53,88,0
4,58,88,0
4,63,88,0
4,65,88,0
4,70,88,0
4,70,0,264
4,53,0,0
4,58,0,0
4,46,0,0
4,65,0,0
4,63,0,0
4,46,88,120
4,53,88,0
4,58,88,0
4,62,88,0
4,65,88,0
4,70,88,0
4,70,0,264
4,53,0,0
4,58,0,0
4,46,0,0
4,65,0,0
4,62,0,0
4,46,88,120
4,53,88,0
4,58,88,0
4,62,88,0
4,65,88,0
4,65,0,264
4,58,0,0
4,46,0,0
4,53,0,0
4,62,0,0
4,46,88,120
4,53,88,0
4,58,88,0
4,62,88,0
4,65,88,0
4,70,88,0
4,70,0,264
4,53,0,0
4,58,0,0
4,46,0,0
4,65,0,0
4,62,0,0
4,46,88,120
4,53,88,0
4,58,88,0
4,63,88,0
4,65,88,0
4,70,88,0
4,70,0,264
4,53,0,0
4,58,0,0
4,46,0,0
4,65,0,0
4,63,0,0
4,46,88,120
4,53,88,0
4,58,88,0
4,63,88,0
4,65,88,0
4,70,88,0
4,70,0,264
4,53,0,0
4,58,0,0
4,46,0,0
4,65,0,0
4,63,0,0
4,48,101,120
4,53,101,0
4,60,101,0
4,63,101,0
4,69,101,0
4,69,0,264
4,60,0,0
4,48,0,0
4,53,0,0
4,63,0,0
4,48,117,120
4,53,117,0
4,60,117,0
4,63,117,0
4,69,117,0
4,69,0,264
4,60,0,0
4,48,0,0
4,53,0,0
4,63,0,0
4,48,91,120
4,53,91,0
4,60,91,0
4,63,91,0
4,69,91,0
4,69,0,264
4,60,0,0
4,48,0,0
4,53,0,0
4,63,0,0
4,48,119,120
4,53,119,0
4,60,119,0
4,63,119,0
4,69,119,0
4,69,0,264
4,60,0,0
4,48,0,0
4,53,0,0
4,63,0,0
4,48,97,120
4,53,97,0
4,60,97,0
4,63,97,0
4,69,97,0
4,69,0,264
4,60,0,0
4,48,0,0
4,53,0,0
4,63,0,0
4,48,119,120
4,53,119,0
4,60,119,0
4,63,119,0
4,69,119,0
4,69,0,264
4,60,0,0
4,48,0,0
4,53,0,0
4,63,0,0
4,48,91,120
4,53,91,0
4,60,91,0
4,63,91,0
4,69,91,0
4,69,0,264
4,60,0,0
4,48,0,0
4,53,0,0
4,63,0,0
4,48,121,120
4,53,121,0
4,60,121,0
4,63,121,0
4,69,121,0
4,69,0,264
4,60,0,0
4,48,0,0
4,53,0,0
4,63,0,0
4,46,91,120
4,53,91,0
4,58,91,0
4,62,91,0
4,70,91,0
4,70,0,264
4,58,0,0
4,46,0,0
4,53,0,0
4,62,0,0
4,46,121,120
4,53,121,0
4,58,121,0
4,62,121,0
4,70,121,0
4,70,0,264
4,58,0,0
4,46,0,0
4,53,0,0
4,62,0,0
4,46,91,120
4,53,91,0
4,58,91,0
4,62,91,0
4,70,91,0
4,70,0,264
4,58,0,0
4,46,0,0
4,53,0,0
4,62,0,0
4,46,117,120
4,53,117,0
4,58,117,0
4,62,117,0
4,70,117,0
4,70,0,264
4,58,0,0
4,46,0,0
4,53,0,0
4,62,0,0
4,46,97,120
4,53,97,0
4,58,97,0
4,62,97,0
4,70,97,0
4,70,0,264
4,58,0,0
4,46,0,0
4,53,0,0
4,62,0,0
4,46,117,120
4,53,117,0
4,58,117,0
4,62,117,0
4,70,117,0
4,70,0,264
4,58,0,0
4,46,0,0
4,53,0,0
4,62,0,0
4,46,95,120
4,53,95,0
4,58,95,0
4,62,95,0
4,70,95,0
4,70,0,264
4,58,0,0
4,46,0,0
4,53,0,0
4,62,0,0
4,46,119,120
4,53,119,0
4,58,119,0
4,62,119,0
4,70,119,0
4,70,0,264
4,58,0,0
4,46,0,0
4,53,0,0
4,62,0,0
4,48,93,120
4,53,93,0
4,60,93,0
4,63,93,0
4,69,93,0
4,69,0,264
4,60,0,0
4,48,0,0
4,53,0,0
4,63,0,0
4,48,114,120
4,53,114,0
4,60,114,0
4,63,114,0
4,69,114,0
4,69,0,264
4,60,0,0
4,48,0,0
4,53,0,0
4,63,0,0
4,48,93,120
4,53,93,0
4,60,93,0
4,63,93,0
4,69,93,0
4,69,0,264
4,60,0,0
4,48,0,0
4,53,0,0
4,63,0,0
4,48,119,120
4,53,119,0
4,60,119,0
4,63,119,0
4,69,119,0
4,69,0,264
4,60,0,0
4,48,0,0
4,53,0,0
4,63,0,0
4,48,99,120
4,53,99,0
4,60,99,0
4,63,99,0
4,69,99,0
4,69,0,264
4,60,0,0
4,48,0,0
4,53,0,0
4,63,0,0
4,48,85,120
4,53,85,0
4,60,85,0
4,63,85,0
4,69,85,0
4,69,0,264
4,60,0,0
4,48,0,0
4,53,0,0
4,63,0,0
4,48,104,120
4,53,104,0
4,60,104,0
4,63,104,0
4,69,104,0
4,69,0,264
4,60,0,0
4,48,0,0
4,53,0,0
4,63,0,0
4,53,117,120
4,60,117,0
4,63,117,0
4,69,117,0
4,69,0,264
4,53,0,0
4,60,0,0
4,63,0,0
4,46,101,120
4,53,101,0
4,58,101,0
4,62,101,0
4,70,101,0
4,70,0,264
4,58,0,0
4,46,0,0
4,53,0,0
4,62,0,0
4,46,117,120
4,53,117,0
4,58,117,0
4,62,117,0
4,70,117,0
4,70,0,264
4,58,0,0
4,46,0,0
4,53,0,0
4,62,0,0
4,46,101,120
4,53,101,0
4,58,101,0
4,62,101,0
4,62,0,264
4,46,0,0
4,53,0,0
4,58,0,0
4,46,117,120
4,53,117,0
4,58,117,0
4,62,117,0
4,70,117,0
4,70,0,264
4,58,0,0
4,46,0,0
4,53,0,0
4,62,0,0
4,46,104,120
4,53,104,0
4,58,104,0
4,62,104,0
4,70,104,0
4,70,0,264
4,58,0,0
4,46,0,0
4,53,0,0
4,62,0,0
4,46,119,120
4,53,119,0
4,58,119,0
4,62,119,0
4,70,119,0
4,70,0,264
4,58,0,0
4,46,0,0
4,53,0,0
4,62,0,0
4,46,104,120
4,53,104,0
4,58,104,0
4,62,104,0
4,70,104,0
4,70,0,264
4,58,0,0
4,46,0,0
4,53,0,0
4,62,0,0
4,46,119,120
4,53,119,0
4,58,119,0
4,62,119,0
4,70,119,0
4,70,0,264
4,58,0,0
4,46,0,0
4,53,0,0
4,62,0,0
4,48,104,120
4,53,104,0
4,60,104,0
4,63,104,0
4,69,104,0
4,69,0,264
4,60,0,0
4,48,0,0
4,53,0,0
4,63,0,0
4,48,117,120
4,53,117,0
4,60,117,0
4,63,117,0
4,69,117,0
4,69,0,264
4,60,0,0
4,48,0,0
4,53,0,0
4,63,0,0
4,48,101,120
4,53,101,0
4,60,101,0
4,63,101,0
4,69,101,0
4,69,0,264
4,60,0,0
4,48,0,0
4,53,0,0
4,63,0,0
4,48,119,120
4,53,119,0
4,60,119,0
4,63,119,0
4,69,119,0
4,69,0,264
4,60,0,0
4,48,0,0
4,53,0,0
4,63,0,0
4,48,95,120
4,53,95,0
4,60,95,0
4,63,95,0
4,69,95,0
4,69,0,264
4,60,0,0
4,48,0,0
4,53,0,0
4,63,0,0
4,48,121,120
4,53,121,0
4,60,121,0
4,63,121,0
4,69,121,0
4,69,0,264
4,60,0,0
4,48,0,0
4,53,0,0
4,63,0,0
4,48,104,120
4,53,104,0
4,60,104,0
4,63,104,0
4,69,104,0
4,69,0,264
4,60,0,0
4,48,0,0
4,53,0,0
4,63,0,0
4,48,117,120
4,53,117,0
4,60,117,0
4,63,117,0
4,69,117,0
4,69,0,264
4,60,0,0
4,48,0,0
4,53,0,0
4,63,0,0
4,46,99,120
4,53,99,0
4,58,99,0
4,62,99,0
4,70,99,0
4,70,0,264
4,58,0,0
4,46,0,0
4,53,0,0
4,62,0,0
4,46,117,120
4,53,117,0
4,58,117,0
4,62,117,0
