track,note,velocity,time
1,74,127,35035
1,74,127,0
1,79,77,0
1,79,0,476
1,74,0,0
1,74,0,0
1,72,105,4
1,74,77,0
1,79,77,0
1,79,0,476
1,74,0,0
1,72,0,0
1,69,105,4
1,74,77,0
1,79,77,0
1,79,0,476
1,74,0,0
1,69,0,0
1,67,105,4
1,74,77,0
1,79,77,2
1,74,0,234
1,67,0,0
1,65,105,4
1,74,77,0
1,74,0,236
1,65,0,0
1,67,105,4
1,79,0,2
1,67,0,474
1,67,105,4
1,67,0,236
1,65,105,4
1,65,0,116
1,67,105,4
1,67,0,356
1,69,105,4
1,69,0,236
1,62,105,4
1,62,0,236
1,65,105,4
1,65,0,236
1,67,105,4
1,67,0,476
1,67,105,4
1,67,0,236
1,65,105,4
1,65,0,116
1,67,105,4
1,67,0,596
1,62,105,4
1,62,0,236
1,65,105,4
1,65,0,236
1,67,105,4
1,67,0,236
1,67,105,4
1,67,0,236
1,67,105,4
1,67,0,236
1,69,105,4
1,69,0,116
1,67,105,4
1,67,0,356
1,65,105,4
1,65,0,236
1,62,105,4
1,62,0,236
1,60,105,4
1,60,0,236
1,62,105,4
1,62,0,1436
1,74,105,484
1,79,77,2
1,74,0,474
1,72,105,4
1,79,0,2
1,74,77,0
1,79,77,0
1,72,0,474
1,69,105,4
1,79,0,2
1,74,0,0
1,74,77,0
1,79,77,0
1,69,0,474
1,67,105,4
1,79,0,2
1,74,0,0
1,74,77,0
1,79,77,0
1,67,0,234
1,65,105,4
1,65,0,236
1,67,105,4
1,79,0,2
1,74,0,0
1,67,0,474
1,67,105,4
1,67,0,236
1,65,105,4
1,65,0,116
1,67,105,4
1,67,0,116
1,67,105,4
1,67,0,236
1,69,105,4
1,69,0,236
1,62,105,4
1,62,0,236
1,65,105,4
1,65,0,236
1,67,105,4
1,67,0,236
1,67,105,4
1,67,0,236
1,67,105,4
1,67,0,236
1,65,105,4
1,65,0,116
1,67,105,4
1,67,0,596
1,62,105,4
1,62,0,236
1,65,105,4
1,65,0,236
1,67,105,4
1,67,0,236
1,67,105,4
1,67,0,236
1,67,105,4
1,67,0,236
1,69,105,4
1,69,0,116
1,67,105,4
1,67,0,356
1,65,105,4
1,65,0,236
1,62,105,4
1,62,0,236
1,60,105,4
1,60,0,236
1,62,105,4
1,62,0,1436
1,64,105,724
1,64,0,236
1,64,105,4
1,64,0,236
1,64,105,4
1,64,0,236
1,64,105,4
1,64,0,316
1,65,105,4
1,65,0,316
1,67,105,4
1,67,0,1276
1,64,105,1204
1,64,0,236
1,64,105,4
1,64,0,236
1,64,105,4
1,64,0,236
1,64,105,4
1,64,0,316
1,65,105,4
1,65,0,316
1,67,105,4
1,67,0,6076
1,62,105,4
1,62,0,236
1,65,105,4
1,65,0,236
1,62,105,4
1,62,0,236
1,65,105,4
1,65,0,236
1,62,105,4
1,62,0,236
1,65,105,4
1,65,0,236
1,69,105,4
1,69,0,236
1,67,105,4
1,67,0,476
1,65,105,4
1,65,0,236
1,62,105,4
1,62,0,236
1,65,105,4
1,65,0,476
1,62,105,4
1,62,0,476
1,67,105,4
1,67,0,476
1,67,105,4
1,67,0,236
1,65,105,4
1,65,0,236
1,62,105,4
1,62,0,236
1,65,105,4
1,65,0,236
1,62,105,4
1,62,0,236
1,62,105,4
1,62,0,236
1,62,105,4
1,62,0,236
1,60,105,4
1,60,0,236
1,57,105,4
1,57,0,236
1,65,105,4
1,65,0,236
1,62,105,4
1,62,0,716
1,62,105,484
1,62,0,236
1,65,105,4
1,65,0,236
1,62,105,4
1,62,0,236
1,65,105,4
1,65,0,236
1,62,105,4
1,62,0,236
1,65,105,4
1,65,0,236
1,69,105,4
1,69,0,236
1,67,105,4
1,67,0,476
1,65,105,4
1,65,0,236
1,62,105,4
1,62,0,236
1,65,105,4
1,65,0,476
1,62,105,4
1,62,0,476
1,67,105,4
1,67,0,476
1,67,105,4
1,67,0,236
1,65,105,4
1,65,0,236
1,62,105,4
1,62,0,236
1,65,105,4
1,65,0,236
1,62,105,4
1,62,0,236
1,62,105,4
1,62,0,236
1,62,105,4
1,62,0,236
1,60,105,4
1,60,0,236
1,57,105,4
1,57,0,236
1,65,105,4
1,65,0,236
1,62,105,4
1,62,0,716
1,79,77,1922
1,74,105,11
1,79,0,465
1,72,105,2
1,74,77,2
1,79,77,0
1,74,0,7
1,72,0,467
1,74,0,2
1,79,0,0
1,69,105,2
1,74,77,2
1,79,77,0
1,69,0,474
1,79,0,2
1,74,0,0
1,67,105,2
1,74,77,2
1,79,77,0
1,67,0,234
1,65,105,4
1,65,0,236
1,79,0,2
1,74,0,0
1,67,105,2
1,67,0,476
1,67,105,4
1,67,0,236
1,65,105,4
1,65,0,116
1,67,105,4
1,67,0,356
1,69,105,4
1,69,0,236
1,62,105,4
1,62,0,236
1,65,105,4
1,65,0,236
1,67,105,4
1,67,0,476
1,67,105,4
1,67,0,236
1,65,105,4
1,65,0,116
1,67,105,4
1,67,0,596
1,62,105,4
1,62,0,236
1,65,105,4
1,65,0,236
1,67,105,4
1,67,0,236
1,67,105,4
1,67,0,236
1,67,105,4
1,67,0,236
1,69,105,4
1,69,0,116
1,67,105,4
1,67,0,356
1,65,105,4
1,65,0,236
1,62,105,4
1,62,0,236
1,60,105,4
1,60,0,236
1,62,105,4
1,62,0,1436
1,74,105,484
1,79,77,2
1,74,0,474
1,79,0,2
1,72,105,2
1,74,77,2
1,79,77,0
1,72,0,474
1,79,0,2
1,74,0,0
1,69,105,2
1,79,77,2
1,74,77,0
1,69,0,474
1,74,0,2
1,79,0,0
1,67,105,2
1,79,77,2
1,74,77,0
1,67,0,234
1,65,105,4
1,65,0,236
1,74,0,2
1,79,0,0
1,67,105,2
1,67,0,476
1,67,105,4
1,67,0,236
1,65,105,4
1,65,0,116
1,67,105,4
1,67,0,116
1,67,105,4
1,67,0,236
1,69,105,4
1,69,0,236
1,62,105,4
1,62,0,236
1,65,105,4
1,65,0,236
1,67,105,4
1,67,0,236
1,67,105,4
1,67,0,236
1,67,105,4
1,67,0,236
1,65,105,4
1,65,0,116
1,67,105,4
1,67,0,596
1,62,105,4
1,62,0,236
1,65,105,4
1,65,0,236
1,67,105,4
1,67,0,236
1,67,105,4
1,67,0,236
1,67,105,4
1,67,0,236
1,69,105,4
1,69,0,116
1,67,105,4
1,67,0,356
1,65,105,4
1,65,0,236
1,62,105,4
1,62,0,236
1,60,105,4
1,60,0,236
1,62,105,4
1,62,0,1436
1,64,105,724
1,64,0,236
1,64,105,4
1,64,0,236
1,64,105,4
1,64,0,236
1,64,105,4
1,64,0,316
1,65,105,4
1,65,0,316
1,67,105,4
1,67,0,1276
1,64,105,1204
1,64,0,236
1,64,105,4
1,64,0,236
1,64,105,4
1,64,0,236
1,64,105,4
1,64,0,316
1,65,105,4
1,65,0,316
1,67,105,4
1,67,0,6076
1,62,105,4
1,62,0,236
1,65,105,4
1,65,0,236
1,62,105,4
1,62,0,236
1,65,105,4
1,65,0,236
1,62,105,4
1,62,0,236
1,65,105,4
1,65,0,236
1,69,105,4
1,69,0,236
1,67,105,4
1,67,0,476
1,65,105,4
1,65,0,236
1,62,105,4
1,62,0,236
1,65,105,4
1,65,0,476
1,62,105,4
1,62,0,476
1,69,105,4
1,69,0,476
1,67,105,4
1,67,0,236
1,65,105,4
1,65,0,236
1,62,105,4
1,62,0,236
1,65,105,4
1,65,0,236
1,62,105,4
1,62,0,236
1,62,105,4
1,62,0,236
1,62,105,4
1,62,0,236
1,60,105,4
1,60,0,236
1,57,105,4
1,57,0,236
1,64,105,4
1,64,0,236
1,62,105,4
1,62,0,716
1,62,105,484
1,62,0,236
1,65,105,4
1,65,0,236
1,62,105,4
1,62,0,236
1,65,105,4
1,65,0,236
1,62,105,4
1,62,0,236
1,65,105,4
1,65,0,236
1,69,105,4
1,69,0,236
1,67,105,4
1,67,0,476
1,65,105,4
1,65,0,236
1,62,105,4
1,62,0,236
1,65,105,4
1,65,0,476
1,62,105,4
1,62,0,476
1,69,105,4
1,69,0,476
1,67,105,4
1,67,0,236
1,65,105,4
1,65,0,236
1,62,105,4
1,62,0,236
1,65,105,4
1,65,0,236
1,62,105,4
1,62,0,236
1,62,105,4
1,62,0,236
1,62,105,4
1,62,0,236
1,60,105,4
1,60,0,236
1,57,105,4
1,57,0,236
1,65,105,4
1,65,0,236
1,62,105,4
1,62,0,716
1,62,105,484
1,62,0,236
1,65,105,4
1,65,0,236
1,62,105,4
1,62,0,236
1,65,105,4
1,65,0,236
1,62,105,4
1,62,0,236
1,65,105,4
1,65,0,236
1,69,105,4
1,69,0,236
1,67,105,4
1,67,0,476
1,65,105,4
1,65,0,236
1,62,105,4
1,62,0,236
1,65,105,4
1,65,0,476
1,62,105,4
1,62,0,476
1,62,105,4084
1,62,0,236
1,65,105,4
1,65,0,236
1,62,105,4
1,62,0,236
1,65,105,4
1,65,0,236
1,62,105,4
1,62,0,236
1,65,105,4
1,65,0,236
1,69,105,4
1,69,0,236
1,67,105,4
1,67,0,476
1,65,105,4
1,65,0,236
1,62,105,4
1,62,0,236
1,65,105,4
1,65,0,476
1,62,105,4
1,62,0,476
1,64,105,53284
1,64,0,236
1,64,105,4
1,64,0,236
1,64,105,4
1,64,0,236
1,64,105,4
1,64,0,316
1,65,105,4
1,65,0,316
1,67,105,4
1,67,0,1276
1,64,105,1204
1,64,0,236
1,64,105,4
1,64,0,236
1,64,105,4
1,64,0,236
1,64,105,4
1,64,0,316
1,65,105,4
1,65,0,316
1,67,105,4
1,67,0,6076
1,62,105,4
1,62,0,236
1,65,105,4
1,65,0,236
1,62,105,4
1,62,0,236
1,65,105,4
1,65,0,236
1,62,105,4
1,62,0,236
1,65,105,4
1,65,0,236
1,69,105,4
1,69,0,236
1,67,105,4
1,67,0,476
1,65,105,4
1,65,0,236
1,62,105,4
1,62,0,236
1,65,105,4
1,65,0,476
1,62,105,4
1,62,0,476
1,69,105,4
1,69,0,476
1,67,105,4
1,67,0,236
1,65,105,4
1,65,0,236
1,62,105,4
1,62,0,236
1,65,105,4
1,65,0,236
1,62,105,4
1,62,0,236
1,62,105,4
1,62,0,236
1,62,105,4
1,62,0,236
1,60,105,4
1,60,0,236
1,57,105,4
1,57,0,236
1,64,105,4
1,64,0,34
1,62,105,4
1,62,0,716
1,62,105,484
1,62,0,236
1,65,105,4
1,65,0,236
1,62,105,4
1,62,0,236
1,65,105,4
1,65,0,236
1,62,105,4
1,62,0,236
1,65,105,4
1,65,0,236
1,69,105,4
1,69,0,236
1,67,105,4
1,67,0,476
1,65,105,4
1,65,0,236
1,62,105,4
1,62,0,236
1,65,105,4
1,65,0,476
1,62,105,4
1,62,0,476
1,69,105,4
1,69,0,476
1,67,105,4
1,67,0,236
1,65,105,4
1,65,0,236
1,62,105,4
1,62,0,236
1,65,105,4
1,65,0,236
1,62,105,4
1,62,0,236
1,62,105,4
1,62,0,236
1,62,105,4
1,62,0,236
1,60,105,4
1,60,0,236
1,57,105,4
1,57,0,236
1,65,105,4
1,65,0,236
1,62,105,4
1,62,0,716
1,62,105,484
1,62,0,236
1,65,105,4
1,65,0,236
1,62,105,4
1,62,0,236
1,65,105,4
1,65,0,236
1,62,105,4
1,62,0,236
1,65,105,4
1,65,0,236
1,69,105,4
1,69,0,236
1,67,105,4
1,67,0,476
1,65,105,4
1,65,0,236
1,62,105,4
1,62,0,236
1,65,105,4
1,65,0,476
1,62,105,4
1,62,0,476
1,69,105,4
1,69,0,476
1,67,105,4
1,67,0,236
1,65,105,4
1,65,0,236
1,62,105,4
1,62,0,236
1,65,105,4
1,65,0,236
1,62,105,4
1,62,0,236
1,62,105,4
1,62,0,236
1,62,105,4
1,62,0,236
1,60,105,4
1,60,0,236
1,57,105,4
1,57,0,236
1,65,105,4
1,65,0,236
1,62,105,4
1,62,0,716
1,62,105,484
1,62,0,236
1,65,105,4
1,65,0,236
1,62,105,4
1,62,0,236
1,65,105,4
1,65,0,236
1,62,105,4
1,62,0,236
1,65,105,4
1,65,0,236
1,69,105,4
1,69,0,236
1,67,105,4
1,67,0,476
1,65,105,4
1,65,0,236
1,62,105,4
1,62,0,236
1,65,105,4
1,65,0,476
1,62,105,4
1,62,0,476
1,69,105,4
1,69,0,476
1,67,105,4
1,67,0,236
1,65,105,4
1,65,0,236
1,62,105,4
1,62,0,236
1,65,105,4
1,65,0,236
1,62,105,4
1,62,0,236
1,62,105,4
1,62,0,236
1,62,105,4
1,62,0,236
1,60,105,4
1,60,0,236
1,57,105,4
1,57,0,236
1,65,105,4
1,65,0,236
1,62,105,4
1,62,0,716
2,52,85,8392
2,76,127,0
2,76,0,116
2,52,0,0
2,77,127,4
2,53,85,0
2,53,0,116
2,77,0,0
2,76,127,4
2,52,85,0
2,52,0,116
2,76,0,0
2,72,127,4
2,48,85,0
2,48,0,116
2,72,0,0
2,74,127,4
2,50,85,0
2,50,0,116
2,74,0,0
2,69,127,4
2,45,85,0
2,45,0,116
2,69,0,0
2,62,127,4
2,38,115,0
2,38,0,7676
2,62,0,0
2,74,85,244
2,74,0,76
2,77,85,4
2,77,0,76
2,81,85,4
2,81,0,76
2,86,85,4
2,86,0,236
2,86,85,4
2,86,0,76
2,81,85,4
2,81,0,76
2,77,85,4
2,77,0,76
2,74,85,2
2,74,0,956
2,74,85,244
2,74,0,76
2,77,85,4
2,77,0,76
2,81,85,4
2,81,0,76
2,86,85,4
2,86,0,236
2,86,85,4
2,86,0,76
2,81,85,4
2,81,0,76
2,77,85,4
2,77,0,76
2,74,85,4
2,74,0,116
2,76,85,4
2,76,0,116
2,77,85,4
2,77,0,116
2,79,85,4
2,79,0,116
2,81,85,4
2,81,0,716
2,77,85,4
2,77,0,76
2,81,85,4
2,81,0,76
2,84,85,4
2,84,0,76
2,89,85,4
2,89,0,236
2,89,85,4
2,89,0,76
2,88,85,4
2,88,0,76
2,84,85,4
2,84,0,76
2,81,85,4
2,81,0,956
2,76,85,244
2,76,0,76
2,81,85,4
2,81,0,76
2,84,85,4
2,84,0,76
2,88,85,4
2,88,0,236
2,86,85,4
2,86,0,76
2,81,85,4
2,81,0,76
2,77,85,4
2,77,0,76
2,74,85,4
2,74,0,956
2,74,85,244
2,74,0,76
2,77,85,4
2,77,0,76
2,81,85,4
2,81,0,76
2,86,85,4
2,86,0,236
2,86,85,4
2,86,0,76
2,81,85,4
2,81,0,76
2,77,85,4
2,77,0,76
2,74,85,4
2,74,0,956
2,74,85,244
2,74,0,76
2,77,85,4
2,77,0,76
2,81,85,4
2,81,0,76
2,86,85,4
2,86,0,236
2,86,85,4
2,86,0,76
2,81,85,4
2,81,0,76
2,77,85,4
2,77,0,76
2,74,85,4
2,74,0,116
2,76,85,4
2,76,0,116
2,77,85,4
2,77,0,116
2,79,85,4
2,79,0,116
2,81,85,4
2,81,0,716
2,77,85,4
2,77,0,76
2,81,85,4
2,81,0,76
2,84,85,4
2,84,0,76
2,89,85,4
2,89,0,236
2,89,85,4
2,89,0,76
2,88,85,4
2,88,0,76
2,84,85,4
2,84,0,76
2,81,85,4
2,81,0,956
2,76,85,244
2,76,0,76
2,81,85,4
2,81,0,76
2,84,85,4
2,84,0,76
2,86,85,4
2,86,0,236
2,86,85,4
2,86,0,76
2,81,85,4
2,81,0,76
2,77,85,4
2,77,0,76
2,65,47,4
2,74,47,0
2,65,0,3660
2,74,0,39
2,86,50,141
2,86,0,476
2,84,50,4
2,84,0,476
2,81,50,4
2,81,0,476
2,79,50,4
2,79,0,236
2,77,50,4
2,77,0,236
2,79,50,4
2,79,0,1427
2,79,50,493
2,79,0,1491
2,79,50,429
2,79,0,1414
2,86,50,2426
2,86,0,476
2,84,50,4
2,84,0,476
2,81,50,4
2,81,0,476
2,79,50,4
2,79,0,236
2,77,50,4
2,77,0,236
2,79,50,4
2,79,0,1427
2,79,50,493
2,79,0,1491
2,79,50,429
2,79,0,1491
2,74,27,2363
2,76,27,0
2,70,27,13
2,70,0,1869
2,74,0,12
2,70,67,10
