track,note,velocity,time
3,33,104,5240
3,33,0,240
3,33,86,135
3,33,0,90
3,33,86,255
3,33,0,255
3,33,84,120
3,40,74,105
3,33,0,15
3,40,0,100
3,42,82,20
3,45,84,105
3,42,0,15
3,45,0,15
3,33,84,55
3,33,0,255
3,33,88,120
3,33,0,115
3,33,84,230
3,33,0,425
3,28,76,55
3,28,0,65
3,28,76,70
3,30,100,105
3,28,0,5
3,30,0,230
3,32,80,5
3,32,0,225
3,33,84,15
3,33,0,235
3,33,86,140
3,33,0,100
3,33,104,245
3,33,0,295
3,33,84,80
3,40,70,105
3,33,0,10
3,40,0,105
3,42,84,20
3,42,0,95
3,45,100,10
3,45,0,25
3,33,100,45
3,33,0,220
3,33,86,155
3,33,0,160
3,33,96,185
3,33,0,275
3,33,78,100
3,33,0,90
3,28,96,15
3,28,0,215
3,30,96,25
3,30,0,215
3,32,72,25
3,32,0,225
3,33,84,15
3,33,0,280
3,33,86,95
3,33,0,125
3,33,100,220
3,33,0,295
3,33,78,80
3,40,78,105
3,33,0,10
3,40,0,105
3,42,92,20
3,42,0,100
3,45,88,5
3,45,0,5
3,33,104,0
3,33,0,235
3,33,84,140
3,33,0,150
3,33,84,195
3,33,0,285
3,33,80,90
3,33,0,100
3,28,88,5
3,28,0,230
3,30,84,10
3,30,0,200
3,32,86,40
3,32,0,195
3,33,86,45
3,33,0,210
3,33,86,165
3,33,0,115
3,33,84,230
3,33,0,310
3,33,80,65
3,33,0,60
3,33,100,45
3,33,0,230
3,32,104,10
3,32,0,330
3,30,100,150
3,30,0,270
3,30,96,105
3,30,0,150
3,28,96,195
3,28,0,350
3,28,100,130
3,28,0,120
3,28,68,120
3,28,0,105
3,30,100,30
3,32,104,105
3,30,0,25
3,32,0,180
3,28,92,35
3,28,0,250
3,28,92,125
3,28,0,140
3,28,88,205
3,28,0,255
3,28,86,120
3,40,96,105
3,28,0,10
3,40,0,150
3,40,96,80
3,40,0,105
3,35,86,30
3,35,0,220
3,36,68,20
3,36,0,105
3,37,84,0
3,37,0,230
3,37,104,145
3,37,0,170
3,37,92,175
3,37,0,270
3,37,74,105
3,37,0,105
3,38,84,0
3,38,0,220
3,39,82,20
3,39,0,90
3,39,74,45
3,39,0,95
3,40,76,10
3,40,0,110
3,41,86,25
3,41,0,105
3,42,96,0
3,42,0,325
3,42,104,50
3,42,0,155
3,42,100,190
3,42,0,290
3,42,84,85
3,42,0,80
3,42,74,25
3,42,0,140
3,42,76,100
3,42,0,130
3,40,92,5
3,40,0,305
3,39,92,40
3,39,0,245
3,39,100,130
3,39,0,170
3,39,96,175
3,39,0,295
3,39,74,80
3,47,88,105
3,39,0,10
3,47,0,115
3,47,86,115
3,47,0,105
3,39,80,30
3,39,0,305
3,38,92,40
3,38,0,265
3,38,84,110
3,38,0,125
3,38,86,220
3,38,0,440
3,38,88,40
3,38,0,260
3,37,104,115
3,37,0,315
3,35,86,30
3,35,0,240
3,35,84,135
3,35,0,125
3,35,86,220
3,35,0,325
3,35,78,155
3,35,0,225
3,28,84,15
3,28,0,240
3,30,92,0
3,30,0,195
3,33,82,45
3,33,0,195
3,33,86,180
3,33,0,130
3,33,88,215
3,33,0,465
3,40,82,15
3,40,0,115
3,42,84,20
3,42,0,100
3,45,84,5
3,45,0,10
3,33,96,65
3,33,0,265
3,33,86,110
3,33,0,205
3,33,96,140
3,33,0,240
3,33,74,135
3,33,0,95
3,28,66,10
3,28,0,45
3,28,74,90
3,30,96,105
3,28,0,10
3,32,80,230
3,30,0,30
3,32,0,210
3,33,80,0
3,33,0,285
3,33,84,90
3,33,0,105
3,40,84,0
3,40,0,110
3,42,80,25
3,42,0,100
3,45,86,5
3,45,0,270
3,33,82,105
3,33,0,90
3,33,100,15
3,33,0,190
3,33,96,50
3,33,0,280
3,33,86,200
3,33,0,265
3,33,82,110
3,40,68,105
3,33,0,10
3,40,0,105
3,42,86,20
3,42,0,100
3,45,96,5
3,45,0,240
3,33,84,135
3,33,0,85
3,33,88,20
3,33,0,165
3,33,86,75
3,33,0,315
3,33,112,165
3,33,0,250
3,33,42,125
3,33,0,45
3,33,100,300
3,33,0,390
3,33,86,90
3,33,0,185
3,40,80,55
3,40,0,110
3,42,84,25
3,45,68,105
3,42,0,5
3,45,0,160
3,33,84,75
3,33,0,265
3,33,92,455
3,33,0,355
3,28,104,20
3,28,0,325
3,30,80,20
3,30,0,235
3,32,80,5
3,32,0,235
3,33,82,5
3,33,0,285
3,33,66,90
3,33,0,95
3,33,92,250
3,33,0,400
3,33,86,80
3,33,0,225
3,40,76,15
3,40,0,110
3,42,84,25
3,42,0,100
3,45,88,5
3,45,0,230
3,42,80,10
3,42,0,220
3,42,82,155
3,42,0,60
3,42,96,285
3,42,0,480
3,37,74,0
3,37,0,110
3,42,86,130
3,42,0,115
3,40,80,20
3,30,84,105
3,40,0,5
3,30,0,110
3,28,96,125
3,28,0,260
3,28,96,115
3,28,0,75
3,32,100,270
3,32,0,470
3,40,82,10
3,40,0,60
3,40,86,180
3,40,0,110
3,42,96,25
3,45,100,105
3,42,0,5
3,45,0,85
3,28,88,150
3,28,0,290
3,28,92,85
3,28,0,105
3,32,104,240
3,32,0,450
3,40,86,30
3,40,0,80
3,40,66,160
3,40,0,115
3,42,62,20
3,45,100,105
3,42,0,10
3,45,0,105
3,40,84,125
3,40,0,265
3,42,100,110
3,42,0,90
3,42,88,255
3,42,0,480
3,40,80,0
3,40,0,105
3,42,84,30
3,40,80,105
3,42,0,5
3,40,0,95
3,42,100,35
3,42,0,105
3,30,84,0
3,30,0,100
3,30,104,140
3,30,0,210
3,30,88,165
3,30,0,80
3,30,108,265
3,30,0,320
3,30,100,160
3,30,0,80
3,30,76,55
3,30,0,70
3,30,100,35
3,30,0,205
3,32,82,35
3,32,0,230
3,33,84,10
3,33,0,290
3,33,68,85
3,33,0,70
3,33,82,275
3,33,0,375
3,33,82,105
3,40,31,240
3,33,0,5
3,40,0,100
3,42,84,30
3,42,0,95
3,45,96,10
3,45,0,170
3,33,84,70
3,33,0,265
3,33,80,110
3,33,0,110
3,33,84,235
3,33,0,355
3,28,100,20
3,28,0,320
3,30,80,25
3,30,0,230
3,32,74,10
3,32,0,235
3,33,82,5
3,33,0,270
3,33,82,105
3,33,0,85
3,33,100,260
3,33,0,415
3,33,82,65
3,33,0,240
3,40,74,0
3,40,0,110
3,42,84,25
3,45,86,105
3,42,0,5
3,45,0,230
3,42,84,5
3,42,0,230
3,42,96,145
3,42,0,130
3,42,88,215
3,42,0,320
3,42,74,160
3,42,0,115
3,40,84,20
3,42,84,105
3,40,0,15
3,42,0,220
3,30,80,5
3,30,0,180
3,40,96,60
3,40,0,225
3,28,86,150
3,28,0,95
3,40,80,250
3,40,0,385
3,40,82,95
3,40,0,90
3,42,96,45
3,42,0,85
3,45,86,20
3,45,0,200
3,50,92,40
3,50,0,5
3,40,96,25
3,40,0,210
3,40,96,165
3,40,0,90
3,35,86,255
3,35,0,440
3,40,86,40
3,40,0,160
3,40,84,80
3,40,0,220
3,35,70,20
3,35,0,120
3,37,84,15
3,37,0,70
3,40,100,35
3,40,0,265
3,42,96,110
3,42,0,90
3,42,100,255
3,42,0,440
3,45,100,40
3,45,0,190
3,42,96,50
3,42,0,155
3,42,88,85
3,42,0,5
3,30,100,5
3,30,0,235
3,30,88,120
3,30,0,120
3,30,112,225
3,30,0,460
3,42,88,20
3,42,0,175
3,42,104,65
3,42,0,220
3,30,62,20
3,30,0,205
3,35,96,35
3,35,0,260
3,35,82,115
3,35,0,135
3,35,88,210
3,35,0,275
3,35,82,100
3,35,0,60
3,35,96,45
3,35,0,85
3,35,86,50
3,35,0,85
3,35,84,20
3,35,0,220
3,30,72,20
3,30,0,215
3,28,104,25
3,28,0,215
3,28,100,160
3,28,0,105
3,28,104,240
3,28,0,365
3,28,82,115
3,28,0,100
3,30,108,35
3,30,0,90
3,32,104,15
3,32,0,230
3,30,82,10
3,30,0,215
3,33,104,25
3,33,0,250
3,33,100,125
3,33,0,70
3,33,104,275
3,33,0,250
3,33,86,125
3,40,80,105
3,33,0,10
3,40,0,105
3,42,80,20
3,45,92,105
3,42,0,5
3,45,0,15
3,33,104,75
3,33,0,230
3,33,100,145
3,33,0,90
3,33,86,255
3,33,0,300
3,28,76,75
3,28,0,60
3,28,86,45
3,28,0,105
3,30,82,135
3,30,0,235
3,32,82,5
3,32,0,240
3,33,84,0
3,33,0,275
3,33,108,100
3,33,0,85
3,33,100,260
3,33,0,315
3,33,76,60
3,40,80,105
3,33,0,20
3,40,0,90
3,42,84,25
3,42,0,90
3,45,104,15
3,45,0,25
3,33,104,60
3,33,0,275
3,33,96,100
3,33,0,120
3,33,88,225
3,33,0,310
3,33,84,65
3,33,0,95
3,28,92,10
3,28,0,240
3,30,96,0
3,30,0,235
3,32,78,5
3,32,0,230
3,33,88,10
3,33,0,270
3,33,100,105
3,33,0,75
3,33,88,270
3,33,0,450
3,40,72,30
3,40,0,110
3,42,74,25
3,42,0,90
3,45,100,15
3,45,0,20
3,33,108,105
3,33,0,270
3,33,76,105
3,33,0,185
3,33,86,160
3,33,0,465
3,28,66,15
3,28,0,80
3,28,74,55
3,28,0,105
3,30,86,0
3,30,0,235
3,32,82,5
3,32,0,220
3,33,80,20
3,33,0,210
3,33,80,165
3,33,0,110
3,33,86,235
3,33,0,345
3,33,60,30
3,33,0,55
3,33,88,50
3,33,0,225
3,32,96,15
3,32,0,375
3,30,104,105
3,30,0,285
3,30,92,90
3,30,0,145
3,28,108,200
3,28,0,280
3,28,80,95
3,28,0,315
3,28,92,30
3,28,0,120
3,30,72,15
3,32,80,105
3,30,0,15
3,32,0,225
3,28,92,0
3,28,0,270
3,28,67,105
3,28,0,60
3,28,96,45
3,28,0,90
3,28,104,150
3,28,0,255
3,28,82,120
3,40,88,105
3,28,0,5
3,40,0,105
3,35,84,25
3,40,104,105
3,35,0,5
3,40,0,230
3,35,76,5
3,35,0,100
3,36,78,35
3,36,0,95
3,37,104,10
3,37,0,285
3,37,104,90
3,37,0,80
3,37,100,265
3,37,0,280
3,37,84,95
3,39,96,105
3,37,0,15
3,39,0,75
3,39,80,45
3,39,0,105
3,40,78,0
3,40,0,75
3,40,60,60
3,40,0,45
3,40,76,60
3,40,0,100
3,41,70,35
3,41,0,95
3,42,96,10
3,42,0,250
3,42,100,125
3,42,0,60
3,42,96,45
3,42,0,115
3,42,88,125
3,42,0,285
3,42,88,90
3,42,0,55
3,42,88,50
3,42,0,65
3,42,88,70
3,42,0,75
3,42,96,30
3,42,0,225
3,40,86,15
3,40,0,210
3,39,76,30
3,39,0,275
3,39,84,100
3,39,0,65
3,39,82,40
3,39,0,95
3,39,96,145
3,39,0,275
3,39,74,100
3,39,0,55
3,39,78,50
3,39,0,65
3,39,70,70
3,39,0,45
3,39,108,60
3,39,0,230
3,39,74,145
3,39,0,105
3,38,86,0
3,38,0,290
3,38,92,85
3,38,0,75
3,38,92,270
3,38,0,390
3,38,86,90
3,38,0,90
3,38,100,150
3,38,0,115
3,37,88,20
3,37,0,325
3,35,88,20
3,35,0,190
3,35,74,185
3,35,0,90
3,35,86,255
3,35,0,355
3,30,88,20
3,35,88,105
3,30,0,10
3,35,0,55
3,35,82,70
3,28,88,105
3,35,0,10
3,28,0,200
3,30,74,30
3,30,0,235
3,33,86,5
3,33,0,225
3,33,86,150
3,33,0,105
3,33,104,240
3,33,0,235
3,33,72,140
3,33,0,60
3,33,98,45
3,33,0,130
3,40,82,110
3,40,0,120
3,42,104,15
3,45,96,105
3,42,0,10
3,45,0,230
3,33,104,0
3,33,0,255
3,33,86,120
3,33,0,95
3,33,86,250
3,33,0,245
3,33,80,130
3,28,72,105
3,33,0,5
3,28,0,60
3,28,74,70
3,28,0,105
3,30,100,0
3,30,0,235
3,32,84,5
3,32,0,95
3,32,84,40
3,32,0,105
3,33,86,0
3,33,0,225
3,33,86,150
3,33,0,105
3,33,104,240
3,33,0,235
3,33,72,140
3,33,0,60
3,33,98,45
3,33,0,130
3,40,82,110
3,40,0,110
3,42,104,25
3,45,96,105
3,42,0,10
3,45,0,230
3,33,84,0
3,33,0,265
3,33,82,110
3,33,0,115
3,33,82,230
3,33,0,300
3,33,74,75
3,33,0,70
3,33,76,35
3,33,0,235
3,28,80,5
3,28,0,210
3,30,78,30
3,30,0,220
3,33,82,20
3,33,0,250
3,33,86,125
3,33,0,130
3,40,80,695
3,40,0,100
3,42,86,35
3,45,86,105
3,42,0,15
3,45,0,220
3,33,86,5
3,33,0,95
3,33,104,145
3,33,0,255
3,33,82,120
3,33,0,60
3,33,104,285
3,33,0,400
3,40,66,80
3,42,74,135
3,40,0,10
3,45,86,95
3,42,0,10
3,45,0,175
3,32,112,55
3,32,0,130
3,33,108,110
3,33,0,270
3,33,86,105
3,33,0,110
3,33,104,235
3,33,0,285
3,33,64,90
3,33,0,60
3,33,82,45
3,33,0,240
3,40,78,0
3,40,0,110
3,42,64,25
3,45,88,105
3,42,0,5
3,45,0,235
3,33,88,0
3,33,0,265
3,33,82,110
3,33,0,85
3,33,76,260
3,33,0,305
3,33,78,70
3,33,0,105
3,28,96,0
3,28,0,230
3,30,82,10
3,30,0,230
3,32,76,10
3,32,0,235
3,33,84,5
3,33,0,290
3,33,86,85
3,33,0,135
3,33,92,210
3,33,0,400
3,33,86,80
3,33,0,230
3,40,78,10
3,40,0,90
3,42,68,45
3,45,80,105
3,42,0,15
3,45,0,220
3,42,74,5
3,42,0,280
3,42,86,95
3,42,0,85
3,42,96,260
3,42,0,310
3,42,76,170
3,42,0,115
3,37,74,20
3,42,92,105
3,37,0,5
3,42,0,210
3,32,82,25
3,32,0,5
3,28,104,5
3,28,0,250
3,28,88,125
3,28,0,100
3,32,104,5
3,32,0,235
3,40,88,5
3,40,0,440
3,40,86,40
3,40,0,65
3,40,66,70
3,40,0,40
3,40,80,65
3,40,0,135
3,44,100,0
3,47,92,105
3,44,0,10
3,47,0,75
3,28,100,155
3,28,0,270
3,28,80,105
3,28,0,5
3,32,108,0
3,40,86,130
3,32,0,20
3,40,0,435
3,40,74,25
3,40,0,55
3,40,72,80
3,40,0,50
3,40,66,55
3,40,0,120
3,44,80,15
3,47,88,105
3,44,0,5
3,47,0,65
3,28,100,170
3,28,0,520
3,30,96,200
3,30,0,470
3,40,84,10
3,40,0,230
3,42,80,10
3,42,0,280
3,42,72,200
3,42,0,235
3,42,78,140
3,42,0,120
3,42,84,225
3,42,0,295
3,42,88,185
3,42,0,365
3,37,92,10
3,37,0,320
3,35,104,25
3,35,0,605
3,35,104,115
3,35,0,225
3,47,82,15
3,47,0,120
3,42,82,15
3,38,80,10
3,42,0,10
3,38,0,110
3,38,84,0
3,38,0,165
3,32,82,10
3,32,0,235
3,28,96,5
3,28,0,470
3,28,96,145
3,40,92,105
3,28,0,15
3,40,0,105
3,38,86,15
3,38,0,230
3,40,100,10
3,38,88,105
3,40,0,15
3,38,0,275
3,38,100,85
3,38,0,175
3,32,88,65
3,32,0,105
3,33,108,0
3,33,0,230
3,33,96,145
3,33,0,70
3,33,100,275
3,33,0,395
3,33,84,85
3,33,0,230
3,40,78,10
3,40,0,95
3,42,82,40
3,42,0,100
3,45,88,5
3,45,0,205
3,33,86,35
3,33,0,250
3,33,88,125
3,33,0,95
3,33,86,250
3,33,0,240
3,28,92,135
3,28,0,95
3,28,96,10
3,28,0,85
3,28,82,50
3,28,0,85
3,30,112,20
3,30,0,210
3,32,76,30
3,32,0,235
3,33,84,5
3,33,0,275
3,33,96,100
3,33,0,60
3,33,100,285
3,33,0,395
3,33,86,85
3,33,0,230
3,40,84,10
3,40,0,125
3,42,82,10
3,42,0,90
3,45,84,15
3,45,0,175
3,33,86,65
3,33,0,240
3,33,84,135
3,33,0,100
3,33,86,245
3,33,0,235
3,33,72,140
3,33,0,85
3,28,96,20
3,28,0,235
3,30,92,5
3,30,0,240
