track,note,velocity,time
0,62,83,2344
0,67,94,0
0,71,89,0
0,62,18,0
0,67,29,0
0,71,24,0
0,74,18,0
0,79,29,0
0,83,24,0
0,62,38,0
0,67,49,0
0,71,44,0
0,71,95,768
0,71,74,0
0,71,49,0
0,69,81,384
0,69,84,0
0,69,59,0
0,66,83,180
0,66,83,0
0,66,58,0
0,67,83,188
0,67,82,0
0,67,57,0
0,64,81,64
0,64,16,0
0,76,16,0
0,64,36,0
0,64,79,52
0,67,97,0
0,72,110,0
0,64,14,0
0,67,32,0
0,72,45,0
0,76,14,0
0,79,32,0
0,84,45,0
0,64,34,0
0,67,52,0
0,72,65,0
0,67,97,0
0,67,99,0
0,67,74,0
0,66,86,384
0,66,81,0
0,66,56,0
0,62,81,10
0,62,83,0
0,62,58,0
0,76,115,192
0,88,115,0
0,76,50,0
0,88,50,0
0,64,66,0
0,64,100,0
0,76,100,0
0,64,70,0
0,64,45,0
0,74,110,180
0,86,110,0
0,74,45,0
0,86,45,0
0,62,95,0
0,74,95,0
0,72,124,184
0,84,124,0
0,72,59,0
0,84,59,0
0,60,109,0
0,72,109,0
0,71,118,174
0,83,118,0
0,71,53,0
0,83,53,0
0,59,103,0
0,71,103,0
0,62,91,104
0,68,80,0
0,69,124,0
0,71,85,0
0,81,124,0
0,62,26,0
0,68,15,0
0,69,59,0
0,71,20,0
0,74,26,0
0,80,15,0
0,81,59,0
0,83,20,0
0,62,46,0
0,68,35,0
0,71,40,0
0,57,109,0
0,69,109,0
0,68,127,18
0,80,127,0
0,68,62,0
0,80,62,0
0,56,112,0
0,68,112,0
0,74,115,16
0,86,115,0
0,74,50,0
0,86,50,0
0,62,100,0
0,74,100,0
0,71,103,192
0,83,103,0
0,71,38,0
0,83,38,0
0,59,88,0
0,71,88,0
0,64,77,0
0,69,86,0
0,72,99,0
0,72,103,0
0,84,103,0
0,64,12,0
0,69,21,0
0,72,34,0
0,72,38,0
0,76,12,0
0,81,21,0
0,84,34,0
0,84,38,0
0,64,32,0
0,69,41,0
0,72,54,0
0,60,88,0
0,72,88,0
0,64,97,38
0,69,112,0
0,72,115,0
0,64,32,0
0,69,47,0
0,72,50,0
0,76,32,0
0,81,47,0
0,84,50,0
0,64,52,0
0,69,67,0
0,72,70,0
0,72,89,0
0,72,87,0
0,72,62,0
0,71,89,2
0,71,86,0
0,71,61,0
0,69,86,158
0,69,83,0
0,69,58,0
0,67,101,28
0,69,83,0
0,74,99,0
0,67,36,0
0,69,18,0
0,74,34,0
0,79,36,0
0,81,18,0
0,86,34,0
0,67,56,0
0,69,38,0
0,74,54,0
0,67,72,0
0,67,97,0
0,67,72,0
0,66,103,52
0,66,38,0
0,78,38,0
0,66,58,0
0,66,75,0
0,66,80,0
0,66,55,0
0,62,101,40
0,67,112,0
0,71,107,0
0,62,36,0
0,67,47,0
0,71,42,0
0,74,36,0
0,79,47,0
0,83,42,0
0,62,56,0
0,67,67,0
0,71,62,0
0,71,81,0
0,71,81,0
0,71,56,0
0,69,84,366
0,69,83,0
0,69,58,0
0,67,85,164
0,67,87,0
0,67,62,0
0,59,96,188
0,59,99,0
0,59,74,0
0,60,107,114
0,66,101,0
0,69,105,0
0,60,42,0
0,66,36,0
0,69,40,0
0,72,42,0
0,78,36,0
0,81,40,0
0,60,62,0
0,66,56,0
0,69,60,0
0,57,71,0
0,57,76,0
0,57,51,0
0,59,84,182
0,59,80,0
0,59,55,0
0,60,89,354
0,60,87,0
0,60,62,0
0,62,111,382
0,62,87,0
0,62,62,0
0,64,89,190
0,64,68,0
0,64,43,0
0,66,109,376
0,66,87,0
0,66,62,0
0,50,97,1134
0,48,90,26
0,47,109,42
0,45,109,6
0,43,80,142
0,41,103,76
0,49,106,62
0,36,92,0
0,43,106,0
0,59,100,0
0,62,100,0
0,59,100,0
0,62,100,0
0,67,106,0
0,59,86,8
0,62,88,0
0,59,58,0
0,62,68,0
0,67,76,0
0,42,77,26
0,55,97,0
0,59,66,0
0,62,73,0
0,67,73,0
0,42,71,46
0,55,82,0
0,59,71,0
0,62,77,0
0,67,79,0
0,38,88,26
0,42,112,0
0,59,100,0
0,62,97,0
0,59,100,0
0,62,106,0
0,67,117,0
0,42,60,22
0,59,86,0
0,62,86,0
0,59,72,0
0,62,77,0
0,67,84,0
0,42,53,22
0,38,103,0
0,55,97,0
0,59,74,0
0,62,79,0
0,67,84,0
0,42,65,16
0,60,103,0
0,64,86,0
0,60,97,0
0,64,84,0
0,67,86,0
0,42,106,20
0,36,74,0
0,43,88,0
0,59,106,0
0,62,106,0
0,59,90,0
0,62,88,0
0,66,72,0
0,67,79,0
0,59,88,16
0,62,90,0
0,59,52,0
0,62,56,0
0,67,60,0
0,42,73,36
0,55,97,0
0,59,61,0
0,62,66,0
0,67,67,0
0,42,71,42
0,55,92,0
0,59,74,0
0,62,77,0
0,67,80,0
0,38,88,42
0,46,95,0
0,59,100,0
0,62,106,0
0,59,109,0
0,62,109,0
0,67,122,0
0,42,83,22
0,59,88,0
0,62,92,0
0,59,73,0
0,62,76,0
0,67,79,0
0,42,73,42
0,38,103,0
0,55,97,0
0,59,71,0
0,62,76,0
0,67,79,0
0,42,80,38
0,36,65,0
0,40,90,0
0,60,95,0
0,64,84,0
0,60,97,0
0,64,82,0
0,67,88,0
0,42,80,18
0,36,82,0
0,43,100,0
0,59,106,0
0,62,106,0
0,59,86,0
0,62,88,0
0,67,90,0
0,59,88,8
0,62,88,0
0,59,64,0
0,62,67,0
0,67,66,0
0,42,83,52
0,55,100,0
0,59,60,0
0,62,66,0
0,67,65,0
0,42,77,32
0,55,84,0
0,59,80,0
0,62,84,0
0,67,88,0
0,38,90,24
0,46,77,0
0,59,103,0
0,62,109,0
0,59,109,0
0,62,109,0
0,67,113,0
0,42,80,24
0,59,84,0
0,62,86,0
0,59,72,0
0,62,77,0
0,67,76,0
0,42,69,42
0,55,97,0
0,59,70,0
0,62,73,0
0,67,76,0
0,42,86,28
0,38,66,0
0,60,109,0
0,64,97,0
0,60,92,0
0,64,74,0
0,67,80,0
0,42,83,40
0,36,82,0
0,43,86,0
0,59,106,0
0,62,106,0
0,59,82,0
0,62,86,0
0,67,84,0
0,42,75,36
0,59,88,0
0,62,90,0
0,59,62,0
0,62,68,0
0,67,66,0
0,42,59,56
0,55,100,0
0,59,63,0
0,62,71,0
0,67,72,0
0,42,69,42
0,55,97,0
0,59,84,0
0,62,88,0
0,67,95,0
0,38,88,36
0,46,90,0
0,59,100,0
0,62,100,0
0,59,109,0
0,62,109,0
0,67,126,0
0,38,84,32
0,42,80,0
0,38,103,0
0,59,92,0
0,62,95,0
0,59,77,0
0,62,82,0
0,67,84,0
0,42,69,42
0,55,103,0
0,59,80,0
0,62,88,0
0,67,90,0
0,38,67,32
0,42,80,0
0,40,92,0
0,60,122,0
0,64,95,0
0,60,95,0
0,64,79,0
0,67,80,0
0,49,112,18
0,36,103,0
0,43,100,0
0,62,45,0
0,67,59,0
0,71,47,0
0,42,90,184
0,55,92,0
0,59,92,0
0,59,71,0
0,62,71,0
0,67,74,0
0,42,75,50
0,55,92,0
0,59,90,0
0,59,68,0
0,62,70,0
0,67,70,0
0,38,95,34
0,42,106,0
0,62,103,0
0,59,70,0
0,62,72,0
0,67,73,0
0,42,69,40
0,62,88,0
0,59,69,0
0,62,70,0
0,67,71,0
0,42,80,20
0,38,103,0
0,55,100,0
0,59,103,0
0,59,69,0
0,62,71,0
0,67,73,0
0,46,86,96
0,42,106,12
0,36,90,0
0,43,97,0
0,42,80,130
0,55,95,0
0,59,88,0
0,59,68,0
0,62,70,0
0,67,71,0
0,42,73,46
0,55,92,0
0,59,82,0
0,59,65,0
0,62,68,0
0,67,70,0
0,38,84,8
0,42,106,0
0,62,100,0
0,59,71,0
0,62,73,0
0,67,73,0
0,42,77,40
0,62,97,0
0,59,66,0
0,62,68,0
0,67,71,0
0,42,100,30
0,31,106,0
0,55,100,0
0,59,97,0
0,59,69,0
0,62,70,0
0,67,71,0
0,46,86,6
0,33,95,0
0,42,100,6
0,36,84,0
0,35,106,0
0,62,34,0
0,66,53,0
0,71,42,0
0,42,83,136
0,54,90,0
0,59,88,0
0,59,70,0
0,62,70,0
0,66,71,0
0,42,75,46
0,54,88,0
0,59,86,0
0,59,66,0
0,62,68,0
0,66,69,0
0,38,84,2
0,42,112,0
0,62,103,0
0,59,70,0
0,62,72,0
0,66,72,0
0,42,80,36
0,62,106,0
0,59,67,0
0,62,69,0
0,66,68,0
0,42,86,26
0,54,100,0
0,59,97,0
0,59,69,0
0,62,71,0
0,66,71,0
0,46,86,20
0,42,112,12
0,36,82,0
0,40,109,0
0,64,36,0
0,67,56,0
0,71,40,0
0,42,80,136
0,52,90,0
0,55,97,0
0,59,92,0
0,59,70,0
0,64,69,0
0,67,74,0
0,42,77,36
0,55,95,0
0,59,86,0
0,59,68,0
0,64,69,0
0,67,73,0
0,38,88,14
0,42,112,0
0,38,106,0
0,62,106,0
0,42,75,40
0,62,97,0
0,42,95,32
0,50,97,0
0,55,103,0
0,59,97,0
0,57,69,0
0,62,73,0
0,66,73,0
0,46,83,24
0,57,67,0
0,62,71,0
0,66,71,0
0,42,112,12
0,36,72,0
0,36,103,0
0,64,34,0
0,67,56,0
0,72,56,0
0,64,95,136
0,42,80,0
0,55,92,0
0,60,97,0
0,60,71,0
0,64,69,0
0,67,73,0
0,64,80,0
0,42,73,50
0,55,95,0
0,60,97,0
0,60,72,0
0,64,70,0
0,67,73,0
0,66,101,6
0,38,86,0
0,42,112,0
0,62,100,0
0,60,73,0
0,64,70,0
0,67,73,0
0,66,80,0
0,42,75,46
0,62,100,0
0,60,72,0
0,64,69,0
0,67,71,0
0,67,110,10
0,42,90,0
0,36,97,0
0,55,97,0
0,60,103,0
0,60,71,0
0,64,69,0
0,67,72,0
0,67,103,0
0,46,83,2
0,74,103,2
0,42,118,0
0,36,88,0
0,35,109,0
0,62,38,0
0,67,38,0
0,71,38,0
0,74,82,0
0,42,86,146
0,55,97,0
0,59,95,0
0,59,69,0
0,62,70,0
0,67,73,0
0,42,75,46
0,55,90,0
0,59,82,0
0,59,66,0
0,62,69,0
0,67,70,0
0,38,88,32
0,42,112,0
0,62,100,0
0,59,68,0
0,62,71,0
0,67,72,0
0,42,75,40
0,62,95,0
0,59,70,0
0,62,71,0
0,67,72,0
0,42,100,30
0,35,95,0
0,55,100,0
0,59,95,0
0,59,70,0
0,62,72,0
0,67,73,0
0,46,77,32
0,69,92,22
0,42,112,0
0,36,92,0
0,33,106,0
0,60,56,0
0,66,47,0
0,69,42,0
0,42,100,146
0,54,90,0
0,57,80,0
0,57,68,0
0,62,71,0
0,66,71,0
0,42,57,50
0,54,92,0
0,57,82,0
0,57,64,0
0,62,69,0
0,66,69,0
0,38,90,26
0,42,106,0
0,62,100,0
0,57,71,0
0,62,73,0
0,66,73,0
0,42,77,44
0,62,95,0
0,42,100,26
0,33,103,0
0,54,100,0
0,57,92,0
0,46,86,36
0,42,112,10
0,36,86,0
0,38,100,0
0,42,83,142
0,54,97,0
0,57,90,0
0,57,69,0
0,62,72,0
0,66,73,0
0,42,64,50
0,54,92,0
0,57,77,0
0,57,64,0
0,62,69,0
0,66,69,0
0,38,86,12
0,42,106,0
0,33,103,0
0,62,92,0
0,57,72,0
0,62,73,0
0,66,73,0
0,42,77,10
0,62,103,0
0,57,66,0
0,62,67,0
0,66,66,0
0,42,95,26
0,54,97,0
0,57,90,0
0,57,68,0
0,62,73,0
0,66,73,0
0,46,80,16
0,64,75,8
0,67,101,0
0,72,88,0
0,42,118,0
0,36,86,0
0,36,109,0
0,60,42,0
0,64,32,0
0,67,50,0
0,72,69,0
0,42,100,146
0,55,95,0
0,60,97,0
0,60,73,0
0,64,70,0
0,67,73,0
0,42,75,46
0,55,86,0
0,60,84,0
0,60,70,0
0,64,69,0
0,67,73,0
0,66,91,0
0,69,85,0
0,74,82,0
0,38,92,0
0,42,118,0
0,38,109,0
0,62,106,0
0,62,50,0
0,66,53,0
0,69,56,0
0,74,71,0
0,38,82,30
0,42,80,0
0,42,118,46
0,57,106,0
0,60,109,0
0,62,73,0
0,66,75,0
0,69,73,0
0,38,106,16
0,49,90,0
0,62,68,0
0,66,72,0
0,69,72,0
0,62,118,2
0,49,112,0
0,36,92,0
0,43,109,0
0,62,30,0
0,67,40,0
0,71,42,0
0,42,90,18
0,55,103,0
0,59,100,0
0,59,70,0
0,62,71,0
0,67,73,0
0,42,75,50
0,55,95,0
0,59,88,0
0,59,68,0
0,62,70,0
0,67,71,0
0,38,92,6
0,42,106,0
0,62,113,0
0,59,70,0
0,62,71,0
0,67,73,0
0,42,69,46
0,62,103,0
0,59,70,0
0,62,73,0
0,67,73,0
0,42,80,26
0,36,83,0
0,38,106,0
0,55,106,0
0,59,109,0
0,59,71,0
0,62,73,0
0,67,75,0
0,46,86,30
0,42,106,2
0,36,92,0
0,43,106,0
0,42,80,28
0,55,106,0
0,59,106,0
0,59,71,0
0,62,72,0
0,67,74,0
0,42,73,44
0,55,97,0
0,59,92,0
0,59,69,0
0,62,69,0
0,67,70,0
0,59,115,2
0,38,92,0
0,42,106,0
0,62,103,0
0,59,71,0
0,62,73,0
0,67,74,0
0,42,77,40
0,62,95,0
0,59,68,0
0,62,70,0
0,67,71,0
0,42,100,34
0,36,81,0
0,31,109,0
0,55,103,0
0,59,106,0
0,59,72,0
0,62,73,0
0,67,74,0
0,46,86,0
0,33,88,0
0,66,124,6
0,42,100,0
0,36,103,0
0,35,100,0
0,62,32,0
0,66,40,0
0,71,40,0
0,42,83,136
0,54,95,0
0,59,100,0
0,59,70,0
0,62,71,0
0,66,71,0
0,42,75,46
0,54,92,0
0,59,90,0
0,59,70,0
0,62,71,0
0,66,71,0
0,38,92,44
0,42,112,0
0,62,113,0
0,59,70,0
0,62,71,0
0,66,72,0
0,42,80,36
0,62,106,0
0,59,68,0
0,62,70,0
0,66,70,0
0,42,86,34
0,36,86,0
0,35,103,0
0,54,103,0
0,59,103,0
0,59,71,0
0,62,73,0
0,66,73,0
0,46,86,20
0,64,101,12
0,42,112,0
0,36,95,0
0,40,106,0
0,64,29,0
0,67,53,0
0,71,47,0
0,42,80,136
0,55,106,0
0,59,106,0
0,59,70,0
0,64,69,0
0,67,73,0
0,42,77,44
0,55,92,0
0,59,88,0
0,59,65,0
0,64,67,0
0,67,70,0
0,38,92,16
0,42,112,0
0,52,100,0
0,62,113,0
0,59,72,0
0,64,70,0
0,67,74,0
0,42,75,4
0,62,103,0
0,59,68,0
0,64,68,0
0,67,70,0
0,42,95,34
0,36,92,0
0,55,106,0
0,59,106,0
0,59,72,0
0,64,71,0
0,67,75,0
0,46,83,24
0,62,112,38
0,42,112,0
0,36,95,0
0,38,106,0
0,62,30,0
0,66,40,0
0,69,38,0
0,42,80,136
0,50,95,0
0,54,100,0
0,57,92,0
0,57,71,0
0,62,73,0
0,66,73,0
0,42,73,42
0,54,95,0
0,57,88,0
0,57,68,0
0,62,71,0
0,66,71,0
0,38,89,8
0,42,112,0
0,38,106,0
0,62,106,0
0,57,70,0
0,62,72,0
0,66,72,0
0,42,75,44
0,62,103,0
0,57,68,0
0,62,71,0
0,66,72,0
0,42,90,0
0,36,81,0
0,50,84,0
0,54,106,0
0,57,100,0
0,57,71,0
0,62,73,0
0,66,74,0
0,46,83,18
0,60,112,16
0,42,118,0
0,36,89,0
0,36,113,0
0,60,45,0
0,64,29,0
0,67,45,0
0,42,86,146
0,55,100,0
0,60,109,0
0,60,72,0
0,64,69,0
0,67,73,0
0,42,75,44
0,55,88,0
0,60,90,0
0,60,70,0
0,64,68,0
0,67,71,0
0,38,92,12
0,42,112,0
0,62,109,0
0,60,72,0
0,64,70,0
0,67,73,0
0,42,75,8
0,62,97,0
0,60,72,0
0,64,69,0
0,67,73,0
0,38,99,34
0,42,100,0
0,36,90,0
0,55,103,0
0,60,109,0
