track,note,velocity,time
0,42,75,0
0,42,75,93
0,42,75,93
0,42,75,93
0,42,75,93
0,42,75,93
0,42,75,93
0,89,100,81
0,88,99,4
0,86,97,4
0,84,95,4
0,42,75,0
0,83,93,1
0,81,91,4
0,79,90,0
0,77,88,0
0,76,86,0
0,74,84,0
0,72,82,0
0,71,80,0
0,69,79,0
0,67,77,0
0,64,75,0
0,65,75,0
0,62,73,0
0,60,71,0
0,59,70,0
0,57,68,0
0,55,66,0
0,53,64,0
0,52,62,0
0,50,61,0
0,33,104,4
0,61,76,0
0,73,86,0
0,64,66,0
0,61,64,0
0,57,66,0
0,35,88,0
0,42,75,0
0,69,32,0
0,57,92,23
0,61,96,0
0,64,100,0
0,69,84,0
0,69,23,0
0,46,46,8
0,69,59,0
0,33,86,8
0,69,44,0
0,57,82,3
0,61,86,0
0,64,88,0
0,69,66,0
0,40,88,0
0,42,75,0
0,69,32,0
0,69,23,1
0,33,86,9
0,46,46,0
0,69,59,0
0,57,82,2
0,61,86,0
0,64,84,0
0,69,92,0
0,69,44,0
0,35,88,2
0,42,75,0
0,69,32,0
0,33,84,6
0,69,23,0
0,40,74,15
0,57,84,0
0,61,86,0
0,64,84,0
0,69,88,0
0,46,46,0
0,69,59,0
0,42,82,4
0,69,44,0
0,45,84,3
0,59,70,0
0,71,64,0
0,40,88,0
0,42,75,0
0,69,32,0
0,69,23,3
0,46,46,2
0,69,59,0
0,69,44,1
0,33,84,1
0,62,72,0
0,74,70,0
0,62,66,0
0,57,58,0
0,66,62,0
0,35,88,0
0,42,75,0
0,69,32,0
0,57,86,24
0,62,88,0
0,66,76,0
0,69,92,0
0,69,23,0
0,46,46,1
0,69,59,0
0,33,88,24
0,69,44,0
0,57,84,18
0,62,88,0
0,66,74,0
0,69,88,0
0,40,88,0
0,42,75,0
0,69,32,0
0,69,23,24
0,33,84,16
0,46,46,0
0,69,59,0
0,57,76,24
0,62,86,0
0,66,82,0
0,69,84,0
0,69,44,0
0,35,88,18
0,42,75,0
0,69,32,0
0,40,88,6
0,69,23,0
0,28,76,11
0,57,76,0
0,62,84,0
0,66,86,0
0,69,92,0
0,46,46,0
0,69,59,0
0,28,76,1
0,69,44,0
0,30,100,18
0,61,72,0
0,73,88,0
0,40,88,0
0,42,75,0
0,69,32,0
0,59,76,4
0,71,86,0
0,69,23,3
0,32,80,1
0,46,46,0
0,69,59,0
0,57,66,13
0,69,72,0
0,69,44,3
0,33,84,3
0,59,76,0
0,71,80,0
0,64,72,0
0,61,62,0
0,57,56,0
0,35,88,0
0,42,75,0
0,69,32,0
0,57,82,24
0,61,86,0
0,64,88,0
0,69,92,0
0,69,23,0
0,46,46,1
0,69,59,0
0,61,62,6
0,73,76,0
0,33,86,3
0,69,44,0
0,57,78,1
0,61,86,0
0,64,86,0
0,69,86,0
0,40,88,0
0,42,75,0
0,69,32,0
0,69,23,1
0,33,104,16
0,61,60,0
0,73,72,0
0,46,46,0
0,69,59,0
0,57,74,24
0,61,82,0
0,64,76,0
0,69,86,0
0,69,44,0
0,35,88,18
0,42,75,0
0,69,32,0
0,33,84,14
0,69,23,0
0,40,70,18
0,57,84,0
0,61,84,0
0,64,96,0
0,69,92,0
0,46,46,0
0,69,59,0
0,42,84,4
0,69,44,0
0,81,85,0
0,85,87,0
0,88,99,0
0,93,91,0
0,45,100,2
0,40,88,0
0,42,75,0
0,69,32,0
0,81,107,0
0,85,111,0
0,88,115,0
0,93,107,0
0,69,23,24
0,46,46,18
0,69,59,0
0,69,44,1
0,80,91,0
0,83,95,0
0,88,87,0
0,92,95,0
0,33,100,3
0,66,64,0
0,62,66,0
0,57,56,0
0,35,88,0
0,42,75,0
0,69,32,0
0,80,103,0
0,83,111,0
0,88,107,0
0,92,95,0
0,57,84,24
0,62,100,0
0,66,86,0
0,69,86,0
0,69,23,0
0,46,46,3
0,69,59,0
0,33,86,3
0,69,44,0
0,78,91,0
0,81,91,0
0,86,91,0
0,90,91,0
0,57,84,3
0,62,88,0
0,66,88,0
0,69,86,0
0,40,88,0
0,42,75,0
0,69,32,0
0,78,103,0
0,81,107,0
0,86,111,0
0,90,103,0
0,69,23,16
0,33,96,16
0,46,46,0
0,69,59,0
0,57,76,24
0,62,86,0
0,66,86,0
0,69,82,0
0,69,44,0
0,35,88,18
0,42,75,0
0,69,32,0
0,33,78,11
0,40,88,0
0,69,23,0
0,28,96,3
0,57,80,0
0,62,88,0
0,66,86,0
0,69,82,0
0,46,46,0
0,69,59,0
0,69,44,24
0,30,96,5
0,40,88,0
0,42,75,0
0,69,32,0
0,69,23,18
0,32,72,5
0,46,66,0
0,69,59,0
0,69,44,7
0,33,84,3
0,61,66,0
0,73,82,0
0,61,56,0
0,64,72,0
0,57,62,0
0,35,88,0
0,42,75,0
0,69,32,0
0,57,80,24
0,61,84,0
0,64,84,0
0,69,88,0
0,69,23,0
0,46,46,2
0,69,59,0
0,33,86,19
0,69,44,0
0,57,80,18
0,61,84,0
0,64,82,0
0,69,86,0
0,40,88,0
0,42,75,0
0,69,32,0
0,69,23,23
0,33,100,17
0,46,46,0
0,69,59,0
0,57,76,24
0,61,82,0
0,64,86,0
0,69,86,0
0,69,44,0
0,35,88,18
0,42,75,0
0,69,32,0
0,33,78,10
0,69,23,0
0,40,78,18
0,57,84,0
0,61,84,0
0,64,92,0
0,69,92,0
0,46,46,0
0,69,59,0
0,42,92,4
0,69,44,0
0,45,88,1
0,59,72,0
0,71,86,0
0,40,88,0
0,42,75,0
0,69,32,0
0,69,23,24
0,46,46,18
0,69,59,0
0,69,44,1
0,33,104,1
0,62,74,0
0,74,82,0
0,66,58,0
0,62,66,0
0,57,54,0
0,35,88,0
0,42,75,0
0,69,32,0
0,57,86,24
0,62,88,0
0,66,86,0
0,69,92,0
0,69,23,0
0,46,46,0
0,69,59,0
0,33,84,24
0,69,44,0
0,57,78,18
0,62,88,0
0,66,86,0
0,69,84,0
0,40,88,0
0,42,75,0
0,69,32,0
0,69,23,0
0,33,84,18
0,46,46,0
0,69,59,0
0,57,82,24
0,62,92,0
0,66,86,0
0,69,84,0
0,69,44,0
0,35,88,18
0,42,75,0
0,69,32,0
0,33,80,12
0,40,88,0
0,69,23,0
0,28,88,1
0,57,84,0
0,62,100,0
0,66,88,0
0,69,88,0
0,46,46,0
0,69,59,0
0,69,44,10
0,30,84,2
0,61,72,0
0,73,96,0
0,40,88,0
0,42,75,0
0,69,32,0
0,59,68,2
0,71,84,0
0,69,23,3
0,32,86,2
0,46,46,0
0,69,59,0
0,57,52,16
0,69,64,0
0,69,44,3
0,33,86,6
0,59,76,0
0,71,82,0
0,59,60,0
0,64,76,0
0,68,68,0
0,35,88,0
0,42,75,0
0,69,32,0
0,59,86,24
0,64,88,0
0,68,86,0
0,71,86,0
0,69,23,0
0,46,46,2
0,69,59,0
0,61,60,3
0,73,82,0
0,61,60,0
0,69,68,0
0,64,38,0
0,33,86,3
0,69,44,0
0,59,86,2
0,64,88,0
0,68,86,0
0,71,86,0
0,40,88,0
0,42,75,0
0,69,32,0
0,69,23,2
0,33,84,12
0,61,64,0
0,73,84,0
0,69,68,0
0,64,68,0
0,61,66,0
0,46,46,0
0,69,59,0
0,61,84,24
0,64,92,0
0,69,86,0
0,73,86,0
0,69,44,0
0,35,88,18
0,42,75,0
0,69,32,0
0,33,80,6
0,69,23,0
0,33,100,9
0,46,46,0
0,69,59,0
0,69,44,17
0,32,104,2
0,59,84,0
0,64,92,0
0,68,82,0
0,71,86,0
0,71,101,0
0,71,82,0
0,64,64,0
0,59,64,0
0,68,64,0
0,40,88,0
0,42,75,0
0,69,32,0
0,76,91,0
0,80,89,0
0,83,91,0
0,69,23,13
0,46,46,7
0,69,59,0
0,69,44,1
0,30,100,1
0,59,88,0
0,62,100,0
0,66,84,0
0,69,88,0
0,73,93,0
0,57,64,0
0,69,86,0
0,57,66,0
0,62,76,0
0,66,68,0
0,35,88,0
0,42,75,0
0,69,32,0
0,74,85,0
0,78,95,0
0,81,87,0
0,71,93,21
0,57,50,0
0,69,23,2
0,59,88,3
0,62,104,0
0,66,96,0
0,69,104,0
0,69,79,0
0,57,50,0
0,46,46,0
0,69,59,0
0,57,50,0
0,30,96,2
0,69,44,0
0,57,50,16
0,40,88,0
0,42,75,0
0,69,32,0
0,57,50,7
0,69,23,3
0,28,96,3
0,57,88,0
0,61,84,0
0,64,100,0
0,69,86,0
0,64,76,0
0,61,72,0
0,57,68,0
0,46,46,0
0,69,59,0
0,73,73,0
0,76,85,0
0,81,81,0
0,69,44,24
0,35,88,18
0,42,75,0
0,69,32,0
0,40,88,5
0,69,23,0
0,28,100,3
0,46,46,0
0,69,59,0
0,69,44,0
0,28,68,1
0,40,88,0
0,42,75,0
0,69,32,0
0,30,100,1
0,69,23,0
0,32,104,1
0,46,66,0
0,69,59,0
0,69,44,6
0,28,92,4
0,59,86,0
0,64,88,0
0,68,88,0
0,71,86,0
0,73,97,0
0,80,80,0
0,64,78,0
0,64,76,0
0,68,74,0
0,56,64,0
0,64,76,0
0,59,66,0
0,35,88,0
0,42,75,0
0,69,32,0
0,69,23,24
0,46,46,18
0,69,59,0
0,28,92,3
0,69,44,0
0,71,101,4
0,64,82,0
0,40,88,0
0,42,75,0
0,69,32,0
0,69,23,14
0,28,88,18
0,71,97,0
0,64,78,0
0,46,46,0
0,69,59,0
0,69,44,24
0,35,88,0
0,42,75,0
0,69,32,0
0,78,68,1
0,28,86,1
0,69,23,0
0,40,96,2
0,59,88,0
0,64,88,0
0,68,78,0
0,71,80,0
0,80,62,0
0,46,46,0
0,69,59,0
0,78,66,2
0,69,44,1
0,40,96,3
0,59,104,0
0,64,92,0
0,68,92,0
0,71,86,0
0,80,84,0
0,40,88,0
0,42,75,0
0,69,32,0
0,81,64,3
0,35,86,3
0,69,23,0
0,46,46,1
0,69,59,0
0,36,68,4
0,69,44,0
0,37,84,9
0,61,82,0
0,65,104,0
0,68,84,0
0,71,86,0
0,73,101,0
0,80,88,0
0,65,86,0
0,61,59,0
0,71,53,0
0,59,68,0
0,65,76,0
0,61,66,0
0,35,88,0
0,42,75,0
0,69,32,0
0,69,23,24
0,46,46,2
0,69,59,0
0,37,104,11
0,69,44,0
0,71,101,9
0,65,70,0
0,40,88,0
0,42,75,0
0,69,32,0
0,69,23,14
0,37,92,3
0,71,101,0
0,65,74,0
0,46,46,0
0,69,59,0
0,69,44,24
0,35,88,18
0,42,75,0
0,69,32,0
0,81,62,5
0,37,74,2
0,40,88,0
0,69,23,0
0,38,84,8
0,61,64,0
0,65,92,0
0,68,66,0
0,71,74,0
0,73,93,0
0,83,60,0
0,46,46,0
0,69,59,0
0,81,62,7
0,69,44,3
0,39,82,1
0,61,80,0
0,65,100,0
0,68,82,0
0,71,78,0
0,83,64,0
0,40,88,0
0,42,75,0
0,69,32,0
0,85,84,1
0,39,74,3
0,69,23,0
0,40,76,2
0,46,46,0
0,69,59,0
0,41,86,3
0,69,44,0
0,42,96,2
0,61,74,0
0,64,92,0
0,66,84,0
0,69,84,0
0,69,97,0
0,81,68,0
0,69,82,0
0,69,84,0
0,66,66,0
0,57,64,0
0,61,64,0
0,35,88,0
0,42,75,0
0,69,32,0
0,69,23,24
0,46,46,0
0,69,59,0
0,71,97,1
0,83,68,0
0,71,78,0
0,71,80,0
0,42,104,3
0,61,80,0
0,64,96,0
0,66,82,0
0,69,84,0
0,69,44,0
0,40,88,6
0,42,75,0
0,69,32,0
0,69,23,17
0,42,100,1
0,61,76,0
0,64,92,0
0,66,86,0
0,69,82,0
0,68,97,0
0,80,72,0
0,68,82,0
0,68,70,0
0,46,46,0
0,69,59,0
0,69,44,24
0,69,89,1
0,81,68,0
0,69,90,0
0,69,88,0
0,35,88,0
0,42,75,0
0,69,32,0
0,42,84,17
0,69,23,0
0,42,74,5
0,46,46,0
0,69,59,0
0,71,97,6
0,83,68,0
0,71,76,0
0,71,84,0
0,69,44,3
0,42,76,18
0,40,88,0
0,42,75,0
0,69,32,0
0,40,92,1
0,69,23,0
0,68,101,0
0,80,66,0
0,68,66,0
0,68,72,0
0,46,46,0
0,69,59,0
0,69,44,24
0,39,92,1
0,59,84,0
0,63,86,0
0,66,86,0
0,69,92,0
0,69,79,0
0,81,68,0
0,69,74,0
0,69,70,0
0,59,66,0
0,63,64,0
0,66,64,0
0,35,88,0
0,42,75,0
0,69,32,0
0,69,107,0
0,81,115,0
0,68,93,0
0,68,82,0
0,68,74,0
0,69,23,3
0,66,71,0
0,66,70,0
0,66,78,0
0,46,46,0
0,69,59,0
0,83,76,5
0,39,100,3
0,59,86,0
0,63,82,0
0,66,84,0
0,69,84,0
0,69,44,0
0,71,85,0
0,83,120,0
0,40,88,4
0,42,75,0
0,69,32,0
0,69,23,5
0,39,96,3
0,59,86,0
0,63,80,0
0,66,82,0
0,69,84,0
0,85,76,0
0,46,46,0
0,69,59,0
0,73,103,0
0,85,115,0
0,69,44,3
0,73,97,1
0,87,62,0
0,73,90,0
0,73,74,0
0,35,88,0
0,42,75,0
0,69,32,0
0,75,103,0
0,87,115,0
0,39,74,4
0,40,88,0
0,69,23,0
0,47,88,2
0,59,78,0
0,63,78,0
0,66,76,0
0,69,76,0
0,71,71,0
0,71,66,0
0,71,78,0
0,46,46,0
0,69,59,0
0,73,93,0
0,88,68,0
0,73,72,0
0,73,74,0
0,69,44,2
0,76,103,0
0,88,111,0
0,47,86,1
0,59,88,0
0,63,104,0
0,66,100,0
0,69,88,0
0,71,89,0
0,71,64,0
0,71,76,0
0,40,88,0
0,42,75,0
0,69,32,0
0,69,101,0
0,69,86,0
0,69,78,0
0,39,80,1
0,69,23,0
0,90,84,3
0,46,66,0
0,69,59,0
0,78,99,0
0,90,115,0
0,69,44,4
0,38,92,1
0,68,101,0
0,88,66,0
0,64,82,0
0,64,56,0
0,76,66,0
0,64,66,0
0,57,56,0
0,62,72,0
0,35,88,0
0,42,75,0
0,69,32,0
0,76,103,0
0,88,95,0
0,57,78,24
0,62,86,0
0,66,80,0
0,69,84,0
0,69,23,0
0,46,46,18
0,69,59,0
0,69,93,7
0,64,102,0
0,38,84,3
0,69,44,0
0,57,84,8
0,62,92,0
0,66,88,0
0,69,84,0
0,40,88,0
0,42,75,0
0,69,32,0
0,69,23,18
0,38,86,13
0,69,97,0
0,64,90,0
0,46,46,0
0,69,59,0
0,57,82,24
0,62,86,0
0,66,86,0
0,69,86,0
0,69,44,0
0,35,88,18
0,42,75,0
0,69,32,0
0,69,23,16
0,38,88,1
0,57,78,0
0,62,92,0
0,66,84,0
0,69,88,0
0,46,46,0
0,69,59,0
0,69,44,1
0,40,88,4
0,42,75,0
0,69,32,0
0,37,104,2
0,69,23,0
0,46,46,3
0,69,59,0
0,69,44,3
0,35,86,6
0,68,97,0
0,64,90,0
0,64,66,0
0,62,66,0
0,57,54,0
0,35,88,0
0,42,75,0
0,69,32,0
0,57,78,24
0,62,86,0
0,66,80,0
0,69,80,0
0,69,23,0
0,46,46,0
0,69,59,0
0,69,93,9
0,64,82,0
0,35,84,3
0,69,44,0
0,57,48,9
0,62,86,0
0,66,80,0
0,69,82,0
0,40,88,0
0,42,75,0
0,69,32,0
0,69,23,10
0,35,86,4
0,69,97,0
0,64,82,0
0,46,46,0
0,69,59,0
0,57,84,24
0,62,88,0
0,66,88,0
0,69,92,0
0,69,44,0
0,35,88,4
0,42,75,0
0,69,32,0
0,40,88,5
0,69,23,0
0,35,78,3
0,57,84,0
0,62,92,0
0,66,86,0
0,69,92,0
0,46,46,0
0,69,59,0
0,69,44,3
0,28,84,3
0,71,89,0
0,64,82,0
0,40,88,0
0,42,75,0
0,69,32,0
0,69,105,3
0,62,82,0
0,69,23,3
0,30,92,0
0,46,46,0
0,69,59,0
0,69,89,1
0,62,94,0
0,69,44,3
0,33,82,7
0,68,93,0
0,62,94,0
0,61,62,0
0,57,60,0
0,64,72,0
0,35,88,0
