track,note,velocity,time
0,42,65,229
0,42,0,3
0,42,65,93
0,42,0,3
0,42,65,93
0,42,0,3
0,42,65,93
0,42,0,3
0,42,65,93
0,42,0,3
0,46,55,45
0,53,55,0
0,58,55,0
0,63,55,0
0,65,55,0
0,70,55,0
0,75,80,0
0,77,40,0
0,77,0,21
0,75,0,2
0,46,88,25
0,53,88,0
0,58,88,0
0,63,88,0
0,65,88,0
0,70,88,0
0,75,84,0
0,77,40,0
0,77,0,13
0,75,0,3
0,70,0,2
0,53,0,0
0,58,0,0
0,46,0,0
0,65,0,0
0,63,0,0
0,46,55,30
0,53,55,0
0,58,55,0
0,63,55,0
0,65,55,0
0,70,55,0
0,75,80,0
0,77,26,0
0,75,0,13
0,70,0,5
0,53,0,0
0,58,0,0
0,46,0,0
0,65,0,0
0,63,0,0
0,77,0,0
0,46,88,30
0,53,88,0
0,58,88,0
0,63,88,0
0,65,88,0
0,75,80,0
0,77,39,0
0,75,0,13
0,70,0,5
0,53,0,0
0,58,0,0
0,46,0,0
0,65,0,0
0,63,0,0
0,77,0,0
0,46,55,30
0,53,58,0
0,58,55,0
0,63,64,0
0,65,64,0
0,75,72,0
0,77,42,0
0,65,0,18
0,58,0,0
0,46,0,0
0,53,0,0
0,63,0,0
0,77,0,0
0,75,0,1
0,46,88,29
0,53,88,0
0,58,88,0
0,63,88,0
0,65,88,0
0,70,88,0
0,77,39,0
0,75,72,0
0,75,0,17
0,77,0,0
0,65,0,1
0,58,0,0
0,46,0,0
0,53,0,0
0,63,0,0
0,46,55,30
0,53,55,0
0,58,62,0
0,63,55,0
0,65,55,0
0,70,56,0
0,77,52,0
0,75,66,0
0,77,0,16
0,70,0,2
0,53,0,0
0,58,0,0
0,46,0,0
0,65,0,0
0,63,0,0
0,75,0,9
0,46,88,21
0,53,88,0
0,58,88,0
0,63,88,0
0,65,88,0
0,70,88,0
0,75,84,0
0,77,56,0
0,70,0,18
0,53,0,0
0,58,0,0
0,46,0,0
0,65,0,0
0,63,0,0
0,77,0,2
0,75,0,20
0,46,64,8
0,53,55,0
0,58,64,0
0,63,55,0
0,65,64,0
0,70,55,0
0,77,46,0
0,74,52,0
0,77,0,16
0,74,0,1
0,70,0,1
0,53,0,0
0,58,0,0
0,46,0,0
0,65,0,0
0,63,0,0
0,75,64,26
0,46,88,4
0,53,88,0
0,58,88,0
0,62,88,0
0,65,88,0
0,70,88,0
0,77,75,0
0,74,75,0
0,75,0,11
0,70,0,7
0,53,0,0
0,58,0,0
0,46,0,0
0,65,0,0
0,63,0,0
0,77,0,1
0,74,0,27
0,46,55,2
0,53,64,0
0,58,55,0
0,62,62,0
0,65,62,0
0,70,56,0
0,75,50,0
0,72,44,0
0,72,0,14
0,75,0,3
0,70,0,1
0,53,0,0
0,58,0,0
0,46,0,0
0,65,0,0
0,62,0,0
0,74,69,26
0,46,88,4
0,53,88,0
0,58,88,0
0,62,88,0
0,65,88,0
0,75,75,0
0,72,75,0
0,74,0,10
0,70,0,8
0,53,0,0
0,58,0,0
0,46,0,0
0,65,0,0
0,62,0,0
0,75,0,5
0,46,64,25
0,53,55,0
0,58,56,0
0,62,55,0
0,65,64,0
0,74,50,0
0,70,44,0
0,72,0,8
0,70,0,9
0,65,0,1
0,58,0,0
0,46,0,0
0,53,0,0
0,62,0,0
0,74,0,4
0,72,62,22
0,46,88,4
0,53,88,0
0,58,88,0
0,62,88,0
0,65,88,0
0,70,88,0
0,70,72,0
0,74,56,0
0,72,0,12
0,65,0,6
0,58,0,0
0,46,0,0
0,53,0,0
0,62,0,0
0,74,0,12
0,70,0,8
0,46,55,10
0,53,64,0
0,58,55,0
0,62,55,0
0,65,55,0
0,70,64,0
0,69,56,0
0,72,44,0
0,69,0,11
0,70,0,7
0,53,0,0
0,58,0,0
0,46,0,0
0,65,0,0
0,62,0,0
0,72,0,5
0,70,84,21
0,46,88,0
0,53,88,0
0,58,88,0
0,63,88,0
0,65,88,0
0,70,88,0
0,69,62,0
0,72,52,0
0,70,0,11
0,70,0,7
0,53,0,0
0,58,0,0
0,46,0,0
0,65,0,0
0,62,0,0
0,72,0,8
0,69,0,20
0,46,55,2
0,53,55,0
0,58,64,0
0,63,55,0
0,65,55,0
0,70,56,0
0,67,50,0
0,70,26,0
0,67,0,16
0,70,0,2
0,53,0,0
0,58,0,0
0,46,0,0
0,65,0,0
0,63,0,0
0,70,0,5
0,69,35,21
0,46,88,4
0,53,88,0
0,58,88,0
0,63,88,0
0,65,88,0
0,70,88,0
0,70,50,0
0,67,84,0
0,69,0,1
0,70,0,17
0,53,0,0
0,58,0,0
0,46,0,0
0,65,0,0
0,63,0,0
0,70,0,13
0,67,0,16
0,46,55,1
0,53,55,0
0,58,55,0
0,63,55,0
0,65,64,0
0,70,55,0
0,65,56,0
0,69,50,0
0,65,0,15
0,70,0,3
0,53,0,0
0,58,0,0
0,46,0,0
0,65,0,0
0,63,0,0
0,69,0,3
0,48,101,0
0,53,101,0
0,60,101,0
0,63,101,0
0,69,101,0
0,65,60,0
0,69,54,0
0,70,0,18
0,53,0,0
0,58,0,0
0,46,0,0
0,65,0,0
0,63,0,0
0,48,55,30
0,53,64,0
0,60,62,0
0,63,55,0
0,69,62,0
0,69,0,18
0,60,0,0
0,48,0,0
0,53,0,0
0,63,0,0
0,48,117,30
0,53,117,0
0,60,117,0
0,63,117,0
0,69,117,0
0,69,0,18
0,60,0,0
0,48,0,0
0,53,0,0
0,63,0,0
0,48,55,30
0,53,55,0
0,60,55,0
0,63,55,0
0,69,55,0
0,69,0,18
0,60,0,0
0,48,0,0
0,53,0,0
0,63,0,0
0,48,91,30
0,53,91,0
0,60,91,0
0,63,91,0
0,69,91,0
0,69,0,18
0,60,0,0
0,48,0,0
0,53,0,0
0,63,0,0
0,48,55,30
0,53,55,0
0,60,55,0
0,63,62,0
0,69,55,0
0,69,0,18
0,60,0,0
0,48,0,0
0,53,0,0
0,63,0,0
0,48,119,30
0,53,119,0
0,60,119,0
0,63,119,0
0,69,119,0
0,69,0,18
0,60,0,0
0,48,0,0
0,53,0,0
0,63,0,0
0,48,55,30
0,53,64,0
0,60,55,0
0,63,55,0
0,69,55,0
0,69,0,18
0,60,0,0
0,48,0,0
0,53,0,0
0,63,0,0
0,48,97,30
0,53,97,0
0,60,97,0
0,63,97,0
0,69,97,0
0,69,0,18
0,60,0,0
0,48,0,0
0,53,0,0
0,63,0,0
0,48,55,30
0,53,55,0
0,60,55,0
0,63,55,0
0,69,55,0
0,69,0,12
0,69,0,6
0,60,0,0
0,48,0,0
0,53,0,0
0,63,0,0
0,65,0,9
0,48,119,21
0,53,119,0
0,60,119,0
0,63,119,0
0,69,119,0
0,69,0,18
0,60,0,0
0,48,0,0
0,53,0,0
0,63,0,0
0,48,55,30
0,53,55,0
0,60,55,0
0,63,55,0
0,69,55,0
0,69,0,18
0,60,0,0
0,48,0,0
0,53,0,0
0,63,0,0
0,48,91,30
0,53,91,0
0,60,91,0
0,63,91,0
0,69,91,0
0,70,37,0
0,67,84,0
0,69,0,18
0,60,0,0
0,48,0,0
0,53,0,0
0,63,0,0
0,67,0,25
0,70,0,4
0,48,55,1
0,53,55,0
0,60,55,0
0,63,55,0
0,69,55,0
0,74,46,0
0,70,66,0
0,69,0,18
0,60,0,0
0,48,0,0
0,53,0,0
0,63,0,0
0,74,0,20
0,48,121,10
0,53,121,0
0,60,121,0
0,63,121,0
0,69,121,0
0,72,40,0
0,69,48,0
0,70,0,1
0,69,0,17
0,60,0,0
0,48,0,0
0,53,0,0
0,63,0,0
0,72,0,0
0,69,0,11
0,48,55,19
0,53,55,0
0,60,55,0
0,63,55,0
0,69,55,0
0,69,72,0
0,72,48,0
0,69,0,17
0,69,0,1
0,60,0,0
0,48,0,0
0,53,0,0
0,63,0,0
0,75,50,6
0,70,48,0
0,72,0,2
0,70,0,14
0,75,0,7
0,46,91,1
0,53,91,0
0,58,91,0
0,62,91,0
0,70,91,0
0,70,88,0
0,74,50,0
0,69,0,18
0,60,0,0
0,48,0,0
0,53,0,0
0,63,0,0
0,46,60,30
0,53,56,0
0,58,55,0
0,62,55,0
0,70,55,0
0,70,0,18
0,58,0,0
0,46,0,0
0,53,0,0
0,62,0,0
0,46,121,30
0,53,121,0
0,58,121,0
0,62,121,0
0,70,121,0
0,70,0,18
0,58,0,0
0,46,0,0
0,53,0,0
0,62,0,0
0,46,55,30
0,53,55,0
0,58,55,0
0,62,55,0
0,70,55,0
0,70,0,18
0,58,0,0
0,46,0,0
0,53,0,0
0,62,0,0
0,46,91,30
0,53,91,0
0,58,91,0
0,62,91,0
0,70,91,0
0,70,0,18
0,58,0,0
0,46,0,0
0,53,0,0
0,62,0,0
0,46,55,30
0,53,55,0
0,58,55,0
0,62,55,0
0,70,55,0
0,70,0,18
0,58,0,0
0,46,0,0
0,53,0,0
0,62,0,0
0,46,117,30
0,53,117,0
0,58,117,0
0,62,117,0
0,70,117,0
0,70,0,18
0,58,0,0
0,46,0,0
0,53,0,0
0,62,0,0
0,74,0,13
0,46,55,17
0,53,55,0
0,58,55,0
0,62,55,0
0,70,55,0
0,70,0,18
0,58,0,0
0,46,0,0
0,53,0,0
0,62,0,0
0,70,0,29
0,46,97,1
0,53,97,0
0,58,97,0
0,62,97,0
0,70,97,0
0,70,0,18
0,58,0,0
0,46,0,0
0,53,0,0
0,62,0,0
0,46,55,30
0,53,60,0
0,58,55,0
0,62,55,0
0,70,55,0
0,70,0,18
0,58,0,0
0,46,0,0
0,53,0,0
0,62,0,0
0,65,88,0
0,46,117,0
0,53,117,0
0,58,117,0
0,62,117,0
0,70,117,0
0,70,0,18
0,58,0,0
0,46,0,0
0,53,0,0
0,62,0,0
0,46,55,30
0,53,55,0
0,58,55,0
0,62,55,0
0,70,64,0
0,70,0,18
0,58,0,0
0,46,0,0
0,53,0,0
0,62,0,0
0,65,0,28
0,74,92,0
0,46,95,0
0,53,95,0
0,58,95,0
0,62,95,0
0,70,95,0
0,70,0,18
0,58,0,0
0,46,0,0
0,53,0,0
0,62,0,0
0,46,55,30
0,53,64,0
0,58,55,0
0,62,64,0
0,70,55,0
0,70,0,18
0,58,0,0
0,46,0,0
0,53,0,0
0,62,0,0
0,46,119,30
0,53,119,0
0,58,119,0
0,62,119,0
0,70,119,0
0,70,0,18
0,58,0,0
0,46,0,0
0,53,0,0
0,62,0,0
0,74,0,2
0,72,80,0
0,46,55,0
0,53,55,0
0,58,55,0
0,62,55,0
0,70,55,0
0,70,0,18
0,58,0,0
0,46,0,0
0,53,0,0
0,62,0,0
0,72,0,29
0,75,88,0
0,48,93,0
0,53,93,0
0,60,93,0
0,63,93,0
0,69,93,0
0,70,0,18
0,58,0,0
0,46,0,0
0,53,0,0
0,62,0,0
0,48,55,30
0,53,62,0
0,60,55,0
0,63,60,0
0,69,55,0
0,69,0,18
0,60,0,0
0,48,0,0
0,53,0,0
0,63,0,0
0,48,114,30
0,53,114,0
0,60,114,0
0,63,114,0
0,69,114,0
0,69,0,18
0,60,0,0
0,48,0,0
0,53,0,0
0,63,0,0
0,48,55,30
0,53,55,0
0,60,55,0
0,63,62,0
0,69,55,0
0,69,0,18
0,60,0,0
0,48,0,0
0,53,0,0
0,63,0,0
0,48,93,30
0,53,93,0
0,60,93,0
0,63,93,0
0,69,93,0
0,69,0,18
0,60,0,0
0,48,0,0
0,53,0,0
0,63,0,0
0,48,55,2
0,53,55,0
0,60,55,0
0,63,55,0
0,69,64,0
0,48,119,0
0,53,119,0
0,60,119,0
0,63,119,0
0,69,119,0
0,48,55,2
0,53,55,0
0,60,55,0
0,63,55,0
0,69,55,0
0,48,99,7
0,53,99,0
0,60,99,0
0,63,99,0
0,69,99,0
0,48,64,24
0,53,60,0
0,60,58,0
0,63,58,0
0,69,55,0
0,69,0,18
0,60,0,0
0,48,0,0
0,53,0,0
0,63,0,0
0,65,88,0
0,48,85,0
0,53,85,0
0,60,85,0
0,63,85,0
0,69,85,0
0,69,0,18
0,60,0,0
0,48,0,0
0,53,0,0
0,63,0,0
0,48,55,30
0,53,55,0
0,60,55,0
0,63,60,0
0,69,55,0
0,69,0,18
0,60,0,0
0,48,0,0
0,53,0,0
0,63,0,0
0,65,0,21
0,70,92,0
0,48,104,0
0,53,104,0
0,60,104,0
0,63,104,0
0,69,104,0
0,69,0,18
0,60,0,0
0,48,0,0
0,53,0,0
0,63,0,0
0,48,55,30
0,53,55,0
0,60,55,0
0,63,55,0
0,69,55,0
0,69,0,18
0,60,0,0
0,48,0,0
0,53,0,0
0,63,0,0
0,53,117,30
0,60,117,0
0,63,117,0
0,69,117,0
0,70,0,18
0,69,0,0
0,60,0,0
0,48,0,0
0,53,0,0
0,63,0,0
0,69,84,0
0,53,58,0
0,60,64,0
0,63,55,0
0,69,55,0
0,69,0,18
0,53,0,0
0,60,0,0
0,63,0,0
0,69,0,27
0,70,76,0
0,46,101,0
0,53,101,0
0,58,101,0
0,62,101,0
0,70,101,0
0,69,0,18
0,53,0,0
0,60,0,0
0,63,0,0
0,46,55,30
0,53,58,0
0,58,55,0
0,62,55,0
0,70,55,0
0,70,0,18
0,58,0,0
0,46,0,0
0,53,0,0
0,62,0,0
0,46,117,30
0,53,117,0
0,58,117,0
0,62,117,0
0,70,117,0
0,70,0,18
0,58,0,0
0,46,0,0
0,53,0,0
0,62,0,0
0,46,55,30
0,53,55,0
0,58,55,0
0,62,64,0
0,70,60,0
0,70,0,18
0,58,0,0
0,46,0,0
0,53,0,0
0,62,0,0
0,46,101,30
0,53,101,0
0,58,101,0
0,62,101,0
0,70,0,18
0,58,0,0
0,46,0,0
0,53,0,0
0,62,0,0
0,46,62,30
0,53,55,0
0,58,55,0
0,62,55,0
0,62,0,18
0,46,0,0
0,53,0,0
0,58,0,0
0,46,117,30
0,53,117,0
0,58,117,0
0,62,117,0
0,70,117,0
0,62,0,18
0,46,0,0
0,53,0,0
0,58,0,0
0,46,62,30
0,53,56,0
0,58,62,0
0,62,55,0
0,70,64,0
0,70,0,18
0,58,0,0
0,46,0,0
0,53,0,0
0,62,0,0
0,70,0,28
0,46,104,2
0,53,104,0
0,58,104,0
0,62,104,0
0,70,104,0
0,70,0,18
0,58,0,0
0,46,0,0
0,53,0,0
0,62,0,0
0,46,58,30
0,53,55,0
0,58,55,0
0,62,55,0
0,70,55,0
0,70,0,18
0,58,0,0
0,46,0,0
0,53,0,0
0,62,0,0
0,65,88,0
0,46,119,0
0,53,119,0
0,58,119,0
0,62,119,0
0,70,119,0
0,70,0,18
0,58,0,0
0,46,0,0
0,53,0,0
0,62,0,0
0,46,55,30
0,53,55,0
0,58,62,0
0,62,55,0
0,70,55,0
0,70,0,18
0,58,0,0
0,46,0,0
0,53,0,0
0,62,0,0
0,65,0,26
0,74,80,0
0,46,104,0
0,53,104,0
0,58,104,0
0,62,104,0
0,70,104,0
0,70,0,18
0,58,0,0
0,46,0,0
0,53,0,0
0,62,0,0
0,46,55,30
0,53,56,0
0,58,55,0
0,62,64,0
0,70,56,0
0,70,0,18
0,58,0,0
0,46,0,0
0,53,0,0
0,62,0,0
0,46,119,30
0,53,119,0
0,58,119,0
0,62,119,0
0,70,119,0
0,70,0,18
0,58,0,0
0,46,0,0
0,53,0,0
0,62,0,0
0,74,0,4
0,72,76,0
0,46,55,0
0,53,55,0
0,58,64,0
0,62,55,0
0,70,55,0
0,70,0,18
0,58,0,0
0,46,0,0
0,53,0,0
0,62,0,0
0,72,0,29
0,75,84,0
0,48,104,0
0,53,104,0
0,60,104,0
0,63,104,0
0,69,104,0
0,70,0,18
0,58,0,0
0,46,0,0
0,53,0,0
0,62,0,0
0,48,55,30
0,53,55,0
0,60,55,0
0,63,55,0
0,69,55,0
0,69,0,18
0,60,0,0
0,48,0,0
0,53,0,0
0,63,0,0
0,48,117,30
0,53,117,0
0,60,117,0
0,63,117,0
0,69,117,0
0,69,0,18
0,60,0,0
