track,note,velocity,time
0,42,96,0
0,42,0,30
0,42,80,73
0,42,0,47
0,42,64,73
0,42,0,17
0,42,64,73
0,42,0,27
0,42,96,0
0,42,0,47
0,61,91,63
0,64,89,3
0,61,0,42
0,62,90,5
0,64,0,10
0,62,0,2
0,66,88,0
0,62,90,0
0,64,100,0
0,64,0,1
0,64,89,4
0,66,0,5
0,62,0,4
0,68,87,0
0,64,0,2
0,64,89,0
0,66,88,48
0,68,0,6
0,64,0,3
0,66,0,2
0,66,88,0
0,69,87,2
0,68,87,47
0,66,0,8
0,69,0,1
0,68,0,1
0,68,87,0
0,71,86,1
0,69,87,47
0,71,0,6
0,68,0,3
0,73,85,3
0,64,89,38
0,69,0,10
0,68,78,0
0,73,0,8
0,71,86,0
0,64,0,340
0,68,0,10
0,71,0,10
0,69,87,32
0,71,86,28
0,69,0,5
0,69,87,25
0,71,0,2
0,69,0,28
0,68,87,0
0,71,83,11
0,76,83,19
0,68,0,210
0,71,0,11
0,66,100,0
0,66,0,1
0,66,88,1
0,76,0,8
0,68,87,50
0,66,0,4
0,68,0,54
0,64,89,2
0,66,88,11
0,69,87,19
0,69,0,240
0,64,0,30
0,66,0,11
0,66,88,49
0,66,0,90
0,64,87,11
0,68,87,9
0,71,84,10
0,71,0,180
0,71,81,0
0,73,80,30
0,78,77,30
0,74,79,0
0,68,0,1
0,73,0,29
0,71,0,66
0,64,0,5
0,74,100,0
0,78,0,0
0,74,0,0
0,78,77,0
0,74,79,0
0,74,0,1
0,57,88,0
0,74,0,17
0,78,0,0
0,64,84,13
0,68,82,30
0,64,0,26
0,73,80,4
0,68,0,26
0,57,0,4
0,57,88,0
0,73,0,26
0,64,84,4
0,68,82,30
0,64,0,26
0,73,80,4
0,68,0,26
0,57,0,4
0,57,88,0
0,73,0,26
0,66,83,4
0,69,82,30
0,66,0,26
0,74,79,4
0,69,0,26
0,57,0,4
0,57,88,0
0,74,0,26
0,66,83,4
0,69,82,30
0,66,0,26
0,74,79,4
0,69,0,26
0,57,0,4
0,57,88,0
0,74,0,26
0,64,84,4
0,68,82,30
0,64,0,26
0,73,80,4
0,68,0,26
0,57,0,4
0,57,88,0
0,73,0,26
0,64,84,4
0,68,82,30
0,73,113,0
0,64,0,23
0,73,80,4
0,74,115,0
0,73,0,2
0,68,0,21
0,57,0,4
0,57,88,0
0,76,120,0
0,74,0,2
0,73,0,21
0,66,83,4
0,78,111,0
0,69,82,0
0,76,0,6
0,66,0,20
0,74,79,4
0,69,0,26
0,57,0,4
0,57,88,0
0,78,0,0
0,76,114,0
0,74,0,24
0,66,83,4
0,74,115,0
0,76,0,1
0,69,82,27
0,74,0,0
0,73,116,0
0,66,0,24
0,74,79,4
0,69,0,26
0,57,0,4
0,73,80,0
0,57,88,0
0,73,0,2
0,76,118,0
0,74,0,21
0,64,84,4
0,73,0,26
0,68,82,4
0,64,0,26
0,73,80,4
0,68,0,26
0,57,0,4
0,57,88,0
0,73,0,26
0,64,84,4
0,68,82,30
0,64,0,26
0,73,80,4
0,68,0,26
0,57,0,4
0,57,88,0
0,76,0,6
0,73,0,20
0,66,83,4
0,69,82,30
0,66,0,26
0,74,79,4
0,69,0,26
0,57,0,4
0,57,88,0
0,74,0,26
0,66,83,4
0,69,82,30
0,66,0,26
0,74,79,4
0,69,0,26
0,57,0,4
0,57,88,0
0,74,0,26
0,64,84,4
0,69,82,30
0,64,0,23
0,73,80,7
0,69,0,23
0,57,0,7
0,57,88,0
0,73,0,23
0,64,84,7
0,73,120,0
0,69,82,0
0,64,0,23
0,73,0,0
0,74,111,0
0,71,81,0
0,69,0,23
0,74,0,7
0,57,0,0
0,73,80,0
0,57,88,0
0,76,112,0
0,71,0,21
0,64,84,7
0,73,0,23
0,69,82,7
0,64,0,23
0,73,80,7
0,69,0,23
0,57,0,7
0,74,79,0
0,57,88,0
0,78,116,0
0,76,0,2
0,73,0,19
0,66,83,7
0,74,0,23
0,69,82,7
0,66,0,23
0,74,79,7
0,69,0,23
0,57,0,7
0,73,80,0
0,57,88,0
0,76,114,0
0,78,0,2
0,74,0,19
0,71,81,37
0,76,0,0
0,74,112,0
0,73,0,20
0,57,0,37
0,69,82,0
0,57,88,0
0,73,114,0
0,74,0,1
0,71,0,20
0,68,82,37
0,71,117,0
0,73,0,3
0,69,0,18
0,52,90,37
0,57,0,17
0,59,87,13
0,68,0,20
0,64,84,10
0,59,0,26
0,68,82,4
0,64,0,26
0,52,0,4
0,52,90,0
0,68,0,26
0,59,87,4
0,64,84,30
0,59,0,26
0,68,82,4
0,64,0,26
0,52,0,4
0,52,90,0
0,68,0,26
0,59,87,4
0,64,84,30
0,59,0,26
0,68,82,4
0,64,0,26
0,52,0,4
0,52,90,0
0,68,0,26
0,59,87,4
0,64,84,30
0,59,0,26
0,68,82,4
0,64,0,26
0,52,0,4
0,52,90,0
0,68,0,26
0,59,87,4
0,64,84,30
0,59,0,26
0,68,82,4
0,64,0,26
0,52,0,4
0,52,90,0
0,68,0,26
0,59,87,4
0,64,84,30
0,59,0,26
0,68,82,4
0,64,0,26
0,52,0,4
0,76,78,0
0,52,90,0
0,80,113,0
0,71,0,6
0,68,0,19
0,68,82,4
0,76,0,26
0,71,81,4
0,68,0,26
0,76,78,4
0,71,0,26
0,52,0,4
0,68,82,0
0,52,90,0
0,76,0,26
0,71,81,4
0,68,0,26
0,74,79,4
0,78,110,0
0,80,0,1
0,71,0,23
0,76,78,4
0,80,114,0
0,78,0,2
0,74,0,21
0,81,120,0
0,78,77,0
0,50,91,0
0,80,0,6
0,52,0,11
0,76,0,9
0,69,82,4
0,78,0,26
0,74,79,4
0,69,0,26
0,78,77,4
0,74,0,26
0,50,0,4
0,50,91,0
0,78,0,26
0,69,82,4
0,74,79,30
0,78,119,0
0,81,0,1
0,69,0,23
0,69,82,4
0,74,0,26
0,68,82,4
0,52,90,0
0,76,119,0
0,78,0,3
0,50,0,12
0,69,0,9
0,64,84,4
0,68,0,26
0,68,82,4
0,64,0,26
0,71,81,4
0,68,0,26
0,52,0,4
0,52,90,0
0,71,0,26
0,64,84,4
0,68,82,30
0,71,110,0
0,76,0,4
0,64,0,19
0,69,82,4
0,73,114,0
0,71,0,1
0,68,0,20
0,71,81,4
0,66,83,0
0,40,96,0
0,74,112,0
0,73,0,3
0,52,0,12
0,69,0,9
0,74,0,0
0,74,118,0
0,66,0,118
0,45,94,0
0,66,83,0
0,74,0,0
0,74,114,0
0,71,0,2
0,40,0,0
0,64,84,55
0,73,114,0
0,74,0,2
0,66,0,19
0,62,85,37
0,73,0,0
0,71,110,0
0,64,0,21
0,64,84,37
0,73,112,0
0,71,0,3
0,62,0,18
0,57,83,37
0,64,0,30
0,66,83,0
0,57,0,30
0,69,82,0
0,66,0,26
0,74,79,4
0,69,0,26
0,57,88,4
0,73,0,3
0,74,0,23
0,66,83,4
0,57,0,30
0,69,82,0
0,66,0,26
0,74,79,4
0,69,0,26
0,57,88,4
0,74,0,26
0,45,0,4
0,64,84,0
0,57,0,30
0,68,82,0
0,64,0,26
0,73,80,4
0,68,0,26
0,57,88,4
0,73,0,26
0,64,84,4
0,73,116,0
0,57,0,0
0,69,82,0
0,64,0,26
0,74,110,0
0,71,81,0
0,73,0,2
0,69,0,24
0,73,80,4
0,74,0,1
0,76,112,0
0,71,0,23
0,74,79,34
0,78,115,0
0,76,0,1
0,73,0,17
0,73,80,37
0,78,0,0
0,76,120,0
0,74,0,18
0,74,119,0
0,71,81,0
0,76,0,7
0,73,0,19
0,69,82,4
0,73,110,0
0,74,0,2
0,71,0,23
0,33,100,34
0,73,80,0
0,57,88,0
0,73,0,2
0,76,116,0
0,69,0,20
0,64,84,7
0,73,0,26
0,69,82,4
0,64,0,26
0,73,80,4
0,69,0,26
0,57,0,4
0,57,88,0
0,73,0,26
0,64,84,4
0,69,82,30
0,64,0,26
0,73,80,4
0,69,0,26
0,57,0,4
0,57,88,0
0,76,0,4
0,73,0,22
0,66,83,4
0,69,82,30
0,33,0,23
0,66,0,3
0,74,79,4
0,69,0,26
0,40,96,4
0,57,0,0
0,57,88,0
0,74,0,26
0,66,83,4
0,69,82,30
0,66,0,26
0,74,79,4
0,40,0,17
0,69,0,9
0,45,94,4
0,57,0,0
0,57,88,0
0,74,0,26
0,64,84,4
0,69,82,30
0,64,0,26
0,73,80,4
0,69,0,26
0,57,0,4
0,57,88,0
0,73,0,26
0,64,84,4
0,69,82,30
0,73,111,0
0,64,0,24
0,71,81,4
0,74,110,0
0,73,0,2
0,69,0,22
0,57,0,4
0,73,80,0
0,57,88,0
0,76,118,0
0,74,0,1
0,71,0,24
0,64,84,4
0,73,0,26
0,69,82,4
0,45,0,23
0,64,0,3
0,73,80,4
0,69,0,26
0,35,99,4
0,57,0,0
0,74,79,0
0,57,88,0
0,76,0,0
0,78,114,0
0,73,0,24
0,66,83,4
0,35,0,23
0,74,0,3
0,36,98,4
0,69,82,0
0,66,0,26
0,74,79,4
0,36,0,23
0,69,0,3
0,37,98,4
0,76,78,0
0,49,92,0
0,80,112,0
0,78,0,2
0,57,0,13
0,74,0,9
0,68,82,4
0,76,0,26
0,75,79,4
0,80,0,0
0,78,115,0
0,68,0,24
0,73,80,4
0,76,112,0
0,78,0,1
0,75,0,23
0,80,114,0
0,49,0,0
0,76,78,0
0,49,92,0
0,76,0,3
0,73,0,23
0,68,82,4
0,37,0,11
0,76,0,15
0,32,100,4
0,75,79,0
0,80,0,0
0,76,114,0
0,68,0,24
0,73,80,4
0,32,0,23
0,75,0,3
0,37,98,4
0,49,0,0
0,49,92,0
0,64,84,30
0,73,0,23
0,68,82,7
0,64,0,26
0,73,80,4
0,68,0,26
0,49,0,4
0,49,92,0
0,73,0,26
0,64,84,4
0,37,0,11
0,32,100,19
0,68,82,0
0,64,0,26
0,73,80,4
0,32,0,23
0,68,0,3
0,37,98,4
0,49,0,0
0,49,92,0
0,73,0,26
0,64,84,4
0,68,82,30
0,76,0,2
0,64,0,24
0,73,80,4
0,68,0,26
0,49,0,4
0,49,92,0
0,73,0,26
0,64,84,4
0,68,82,30
0,64,0,26
0,73,80,4
0,68,0,26
0,49,0,4
0,49,92,0
0,73,0,26
0,64,84,4
0,68,82,30
0,64,0,26
0,73,80,4
0,68,0,26
0,49,0,4
0,49,92,0
0,73,0,26
0,64,84,4
0,68,82,30
0,37,0,11
0,64,0,15
0,73,80,4
0,68,0,26
0,80,118,0
0,40,96,0
0,76,78,0
0,52,90,0
0,68,84,0
0,64,86,0
0,49,0,17
0,73,0,9
0,68,82,4
0,76,0,26
0,71,81,4
0,68,0,26
0,76,78,4
0,71,0,26
0,52,0,4
0,68,82,0
0,52,90,0
0,76,0,26
0,71,81,4
0,68,0,26
0,74,79,4
0,80,0,1
0,78,111,0
0,71,0,24
0,78,77,4
0,80,115,0
0,78,0,1
0,40,0,3
0,74,0,21
0,38,97,4
0,69,82,0
0,50,91,0
0,64,0,0
0,68,0,0
0,66,85,0
0,62,83,0
0,81,115,0
0,80,0,1
0,52,0,14
0,78,0,9
0,74,79,4
0,69,0,26
0,78,77,4
0,74,0,26
0,78,0,30
0,50,0,4
0,69,82,0
0,50,91,0
0,74,79,30
0,69,0,26
0,78,113,0
0,69,82,0
0,81,0,3
0,74,0,23
0,68,82,4
0,38,0,5
0,69,0,21
0,40,96,4
0,64,84,0
0,52,90,0
0,62,0,0
0,66,0,0
0,68,84,0
0,64,85,0
0,76,118,0
0,78,0,2
0,50,0,14
0,68,0,9
0,68,82,4
0,64,0,26
0,71,81,4
0,68,0,26
0,71,0,30
0,52,0,4
0,64,84,0
0,52,90,0
0,68,82,30
0,64,0,26
0,69,82,4
0,76,0,4
0,71,117,0
0,68,0,21
0,71,81,4
0,66,83,0
0,73,117,0
0,71,0,6
0,69,0,18
0,74,114,0
0,52,0,0
0,52,90,0
0,64,0,0
0,68,0,0
0,71,83,0
0,66,85,0
0,73,0,5
0,74,0,0
0,74,113,0
0,40,0,71
0,71,0,24
0,66,0,0
0,33,100,25
0,45,94,0
0,66,83,0
0,66,0,0
0,71,0,0
0,69,84,0
0,64,85,0
0,74,0,0
0,74,114,0
0,52,0,3
0,64,84,55
0,73,118,0
0,74,0,2
0,66,0,19
0,62,85,37
0,71,117,0
0,73,0,2
0,64,0,18
0,64,84,37
0,69,113,0
0,71,0,2
0,62,0,19
0,57,83,37
0,64,0,30
0,66,83,0
0,57,0,30
0,69,82,0
0,66,0,26
0,74,79,4
0,69,0,26
0,57,88,4
0,74,0,26
0,66,83,4
0,57,0,30
0,69,82,0
0,69,0,7
0,33,0,4
0,66,0,15
0,74,79,4
0,69,0,26
0,33,100,4
0,57,88,0
0,74,0,26
0,45,0,4
0,64,84,0
0,57,0,30
0,68,82,0
0,64,0,26
0,73,80,4
0,68,0,26
0,57,88,4
0,73,0,26
0,64,84,4
0,57,0,30
0,69,82,0
0,73,118,0
0,64,0,21
0,71,81,4
0,74,115,0
0,73,0,6
0,69,0,19
0,73,80,4
0,64,0,0
0,69,0,0
0,74,0,0
0,76,115,0
0,71,0,24
0,78,110,0
0,74,79,0
0,76,0,2
0,73,0,21
0,78,0,37
0,73,80,0
0,76,112,0
0,74,0,18
0,71,81,7
0,74,113,0
0,76,0,4
0,73,0,19
0,69,82,4
0,74,0,0
0,73,119,0
0,33,0,6
0,71,0,15
0,33,100,34
0,73,80,0
0,57,88,0
0,45,96,0
0,35,120,0
0,76,114,0
0,73,0,7
0,35,0,7
0,69,0,8
0,64,84,7
0,73,0,26
0,68,82,4
0,64,0,26
0,73,80,4
0,68,0,26
0,57,0,4
0,57,88,0
0,35,120,0
0,35,0,15
0,73,0,11
0,64,84,4
0,68,82,30
0,64,0,26
0,73,80,4
0,68,0,26
0,57,0,4
0,57,88,0
0,45,0,0
0,50,93,0
0,35,120,0
0,76,0,3
0,35,0,12
0,73,0,11
0,66,83,4
0,69,82,30
0,33,0,23
0,66,0,3
0,74,79,4
0,69,0,26
0,40,96,4
0,57,0,0
0,57,88,0
0,35,120,0
0,35,0,15
0,74,0,11
0,66,83,4
0,69,82,30
0,66,0,26
0,74,79,4
0,40,0,17
0,69,0,9
0,45,94,4
0,57,0,0
0,57,88,0
0,50,0,0
0,45,93,0
0,35,120,0
0,35,0,15
0,74,0,11
0,64,84,4
0,69,82,30
0,64,0,23
0,73,80,7
0,69,0,23
0,57,0,7
0,57,88,0
0,35,120,0
0,35,0,15
0,73,0,8
0,64,84,7
0,69,82,30
0,73,119,0
0,64,0,18
0,74,113,0
0,71,81,0
0,73,0,8
0,69,0,15
0,76,120,0
0,57,0,0
0,73,80,0
0,57,88,0
0,35,120,0
0,74,0,2
0,35,0,13
0,71,0,8
0,64,84,7
0,73,0,23
0,69,82,7
0,45,0,23
0,64,0,0
0,73,80,7
0,69,0,23
0,35,99,7
0,57,0,0
0,74,79,0
0,57,88,0
0,35,120,0
0,76,0,0
0,78,112,0
0,35,0,13
0,73,0,8
0,66,83,7
0,35,0,23
0,74,0,0
0,36,98,7
0,69,82,0
0,46,48,0
0,66,0,23
0,74,79,7
0,36,0,23
0,69,0,0
0,37,98,7
0,57,0,0
0,73,80,0
0,57,88,0
0,45,0,0
0,52,92,0
0,46,0,0
0,35,120,0
0,76,112,0
0,78,0,1
0,35,0,11
0,74,0,8
0,71,81,37
0,52,0,0
0,50,93,0
0,74,112,0
0,76,0,1
0,73,0,20
0,57,0,37
0,69,82,0
0,57,88,0
0,50,0,0
0,49,94,0
0,35,120,0
0,73,120,0
0,74,0,2
0,35,0,11
0,71,0,8
0,37,0,18
0,71,116,0
0,32,100,0
0,68,82,0
0,49,0,0
0,47,95,0
0,73,0,2
0,69,0,21
0,32,0,30
0,37,98,7
0,52,90,0
0,35,120,0
0,35,0,15
0,57,0,2
0,59,87,13
0,68,0,20
0,64,84,10
0,59,0,26
0,68,82,4
0,64,0,26
0,52,0,4
0,52,90,0
0,35,120,0
