track,note,velocity,time
0,74,87,2290
0,62,80,0
0,62,0,445
0,74,0,1
0,31,68,34
0,77,79,0
0,65,68,0
0,62,71,0
0,58,68,0
0,65,87,0
0,31,0,275
0,31,71,45
0,81,87,0
0,69,87,0
0,77,0,38
0,65,0,19
0,31,0,190
0,31,79,73
0,79,87,0
0,67,87,0
0,81,0,1
0,69,0,13
0,31,0,212
0,31,71,94
0,77,79,0
0,65,87,0
0,79,0,21
0,67,0,8
0,69,62,131
0,72,66,0
0,69,0,80
0,74,72,0
0,70,69,0
0,72,0,1
0,70,0,71
0,72,66,8
0,76,72,0
0,74,0,10
0,76,0,59
0,74,69,11
0,77,72,0
0,72,0,12
0,77,0,61
0,76,72,7
0,79,80,0
0,74,0,2
0,79,0,71
0,76,0,4
0,81,80,3
0,77,72,0
0,79,66,80
0,82,69,0
0,81,0,3
0,77,0,8
0,82,0,55
0,84,80,14
0,81,69,0
0,79,0,1
0,81,0,68
0,84,0,6
0,82,69,5
0,86,80,0
0,82,0,77
0,84,69,3
0,88,72,0
0,86,0,7
0,88,0,67
0,89,80,6
0,86,72,0
0,84,0,5
0,89,0,58
0,91,72,17
0,88,69,0
0,86,0,2
0,91,0,74
0,89,69,4
0,86,69,0
0,88,0,3
0,86,0,71
0,89,0,2
0,91,72,4
0,88,62,0
0,91,0,73
0,89,69,7
0,86,69,0
0,88,0,3
0,86,0,68
0,89,0,3
0,91,69,6
0,88,58,0
0,91,0,73
0,89,62,7
0,86,66,0
0,88,0,2
0,89,0,68
0,86,0,1
0,91,66,9
0,88,58,0
0,89,66,80
0,86,66,0
0,91,0,2
0,88,0,10
0,86,0,64
0,91,69,4
0,88,58,0
0,89,0,1
0,65,0,51
0,89,69,28
0,86,69,0
0,51,62,0
0,88,0,4
0,91,0,3
0,51,0,34
0,58,0,7
0,65,0,17
0,77,0,11
0,91,72,4
0,88,62,0
0,86,0,3
0,89,0,2
0,30,79,75
0,77,87,0
0,61,61,0
0,58,61,0
0,65,65,0
0,65,58,0
0,89,69,0
0,92,72,0
0,51,99,0
0,36,63,0
0,62,0,1
0,91,0,14
0,88,0,1
0,31,0,20
0,51,0,11
0,90,72,33
0,87,69,0
0,89,0,14
0,92,0,5
0,89,69,61
0,85,58,0
0,90,0,5
0,87,0,14
0,85,0,59
0,87,72,2
0,84,66,0
0,89,0,14
0,84,0,63
0,85,72,3
0,82,66,0
0,87,0,16
0,85,0,62
0,84,69,2
0,80,58,0
0,82,0,10
0,36,0,69
0,82,72,1
0,78,62,0
0,80,0,8
0,84,0,11
0,78,0,49
0,80,66,12
0,77,69,0
0,82,0,16
0,78,80,64
0,75,62,0
0,80,0,2
0,77,0,1
0,78,0,73
0,73,62,4
0,77,69,0
0,75,0,4
0,61,0,24
0,73,0,44
0,72,69,8
0,75,72,0
0,77,0,15
0,73,69,65
0,70,62,0
0,75,0,6
0,72,0,2
0,58,0,38
0,30,0,30
0,29,79,4
0,76,68,0
0,57,54,0
0,60,51,0
0,64,62,0
0,64,68,0
0,69,66,0
0,72,72,0
0,57,65,0
0,36,63,0
0,51,91,0
0,88,91,0
0,65,0,9
0,73,0,3
0,70,0,3
0,65,0,10
0,77,0,1
0,51,0,7
0,57,0,13
0,60,65,9
0,60,0,12
0,64,65,0
0,64,0,4
0,88,0,16
0,36,0,4
0,67,58,5
0,37,99,0
0,67,0,2
0,29,0,3
0,72,65,0
0,72,0,4
0,57,0,16
0,41,65,9
0,76,65,0
0,36,63,0
0,51,91,0
0,51,0,6
0,72,0,9
0,36,0,4
0,69,0,2
0,76,0,4
0,39,71,17
0,74,76,0
0,58,44,0
0,55,54,0
0,62,65,0
0,74,62,0
0,51,91,0
0,36,63,0
0,86,76,0
0,60,0,11
0,76,0,8
0,41,0,1
0,64,0,2
0,64,0,1
0,51,0,24
0,74,0,46
0,36,0,9
0,70,54,58
0,37,0,52
0,70,0,23
0,67,58,85
0,67,0,73
0,36,68,87
0,55,51,0
0,37,99,0
0,51,99,0
0,51,0,49
0,39,0,0
0,55,0,87
0,70,76,24
0,58,62,0
0,82,76,0
0,86,0,10
0,74,0,27
0,58,0,110
0,67,76,13
0,62,58,0
0,79,84,0
0,82,0,12
0,70,0,17
0,62,0,30
0,62,0,0
0,58,0,76
0,36,0,4
0,29,79,20
0,72,76,0
0,60,54,0
0,57,65,0
0,64,51,0
0,57,65,0
0,57,58,0
0,51,99,0
0,36,63,0
0,84,84,0
0,79,0,21
0,67,0,27
0,51,0,4
0,55,0,13
0,36,0,16
0,57,0,22
0,60,65,57
0,60,0,91
0,58,65,69
0,64,65,0
0,57,0,3
0,37,0,8
0,64,0,69
0,67,62,80
0,37,99,0
0,67,0,90
0,29,0,22
0,60,68,48
0,72,65,0
0,58,0,24
0,64,0,58
0,72,0,15
0,29,79,63
0,76,65,0
0,36,63,0
0,51,99,0
0,51,0,47
0,36,0,8
0,76,0,46
0,57,0,43
0,27,79,16
0,70,76,0
0,58,51,0
0,62,58,0
0,55,62,0
0,58,58,0
0,62,62,0
0,74,65,0
0,51,91,0
0,36,63,0
0,82,68,0
0,72,0,1
0,60,0,10
0,84,0,1
0,60,0,7
0,29,0,3
0,51,0,33
0,36,0,9
0,74,0,41
0,70,65,55
0,37,0,116
0,70,0,2
0,67,62,42
0,58,0,64
0,67,0,20
0,34,71,76
0,58,58,0
0,62,58,0
0,36,63,0
0,37,107,0
0,51,91,0
0,50,99,0
0,62,0,13
0,27,0,6
0,51,0,25
0,36,0,12
0,62,0,29
0,67,68,75
0,58,51,0
0,47,91,0
0,79,68,0
0,50,0,2
0,82,0,15
0,70,0,13
0,58,0,31
0,62,0,50
0,37,0,32
0,63,68,17
0,43,99,0
0,75,65,0
0,47,0,11
0,79,0,5
0,67,0,28
0,58,0,92
0,60,57,24
0,64,68,0
0,67,71,0
0,36,79,0
0,64,76,0
0,60,58,0
0,67,65,0
0,79,68,0
0,76,68,0
0,72,65,0
0,49,82,0
0,51,99,0
0,36,70,0
0,42,77,0
0,79,76,0
0,43,0,9
0,75,0,15
0,63,0,4
0,55,0,0
0,51,0,19
0,34,0,2
0,76,0,0
0,72,0,1
0,79,0,11
0,58,0,1
0,42,0,9
0,49,0,24
0,76,58,65
0,72,47,0
0,79,58,0
0,42,33,0
0,79,0,55
0,76,0,1
0,72,0,1
0,42,0,2
0,72,62,101
0,76,68,0
0,79,62,0
0,42,77,0
0,76,0,50
0,79,0,4
0,72,0,6
0,42,0,3
0,42,77,97
0,40,99,0
0,36,0,56
0,42,0,15
0,72,47,89
0,76,54,0
0,79,54,0
0,42,41,0
0,36,0,4
0,79,0,38
0,76,0,3
0,72,0,6
0,42,0,12
0,60,0,19
0,64,0,37
0,72,54,41
0,76,54,0
0,79,58,0
0,42,71,0
0,36,63,0
0,79,0,36
0,76,0,13
0,72,0,1
0,42,0,16
0,36,0,5
0,64,0,74
0,58,65,15
0,62,68,0
0,31,68,0
0,58,54,0
0,62,65,0
0,74,65,0
0,70,62,0
0,79,54,0
0,36,76,0
0,42,83,0
0,60,0,5
0,79,0,6
0,70,0,30
0,79,0,5
0,74,0,10
0,42,0,16
0,74,62,88
0,70,54,0
0,79,54,0
0,42,46,0
0,70,0,41
0,74,0,8
0,79,0,0
0,42,0,15
0,40,0,85
0,74,65,11
0,79,65,0
0,70,62,0
0,42,64,0
0,70,0,42
0,74,0,10
0,79,0,3
0,42,0,3
0,34,79,102
0,74,62,0
0,79,62,0
0,70,76,0
0,42,77,0
0,40,99,0
0,31,0,5
0,70,0,43
0,74,0,4
0,79,0,3
0,42,0,9
0,74,58,96
0,70,54,0
0,79,51,0
0,42,64,0
0,79,0,35
0,70,0,8
0,74,0,6
0,67,0,6
0,42,0,1
0,36,0,99
0,74,62,5
0,70,65,0
0,79,47,0
0,42,64,0
0,62,0,10
0,58,0,10
0,79,0,18
0,42,0,10
0,74,0,6
0,70,0,5
0,58,0,21
0,64,71,80
0,60,68,0
0,67,68,0
0,36,71,0
0,60,62,0
0,76,62,0
0,72,62,0
0,79,62,0
0,42,83,0
0,36,76,0
0,34,0,8
0,67,0,11
0,62,0,24
0,79,0,3
0,72,0,5
0,76,0,3
0,42,0,7
0,76,58,99
0,72,54,0
0,79,54,0
0,42,34,0
0,79,0,35
0,72,0,12
0,76,0,0
0,42,0,22
0,40,0,48
0,72,54,43
0,76,62,0
0,79,54,0
0,42,77,0
0,79,0,38
0,72,0,8
0,76,0,3
0,42,0,15
0,72,54,96
0,76,54,0
0,79,51,0
0,42,77,0
0,40,99,0
0,79,0,35
0,76,0,11
0,72,0,0
0,42,0,25
0,72,54,89
0,76,51,0
0,79,47,0
0,42,52,0
0,36,0,26
0,79,0,11
0,36,0,6
0,76,0,2
0,72,0,3
0,42,0,12
0,36,68,100
0,72,47,0
0,76,54,0
0,79,51,0
0,42,71,0
0,36,63,0
0,79,0,36
0,72,0,15
0,76,0,6
0,42,0,0
0,36,0,22
0,58,57,81
0,62,68,0
0,31,71,0
0,74,65,0
0,70,62,0
0,79,54,0
0,36,70,0
0,42,83,0
0,36,0,6
0,64,0,22
0,60,0,0
0,79,0,19
0,70,0,4
0,74,0,7
0,42,0,4
0,74,58,98
0,79,58,0
0,70,54,0
0,42,64,0
0,70,0,38
0,74,0,11
0,79,0,1
0,42,0,4
0,40,0,98
0,74,58,8
0,70,51,0
0,79,54,0
0,46,55,0
0,60,0,14
0,70,0,27
0,79,0,8
0,74,0,2
0,46,0,47
0,31,0,60
0,34,79,2
0,74,58,0
0,70,54,0
0,79,62,0
0,42,77,0
0,40,99,0
0,70,0,41
0,79,0,8
0,74,0,0
0,42,0,10
0,36,0,17
0,67,92,84
0,74,58,0
0,79,54,0
0,70,47,0
0,42,71,0
0,70,0,36
0,42,0,8
0,74,0,8
0,79,0,1
0,58,0,77
0,62,0,11
0,67,0,13
0,69,92,6
0,74,58,0
0,79,65,0
0,70,47,0
0,42,71,0
0,67,0,21
0,42,0,17
0,70,0,11
0,74,0,8
0,79,0,0
0,40,0,10
0,60,65,93
0,64,71,0
0,67,65,0
0,36,79,0
0,72,84,0
0,76,65,0
0,79,68,0
0,72,62,0
0,42,77,0
0,36,70,0
0,69,0,6
0,34,0,17
0,72,0,18
0,79,0,12
0,76,0,8
0,42,0,10
0,76,58,89
0,72,47,0
0,79,62,0
0,42,33,0
0,72,0,50
0,79,0,5
0,76,0,1
0,42,0,3
0,76,54,101
0,72,51,0
0,79,58,0
0,42,77,0
0,72,0,41
0,79,0,7
0,76,0,0
0,42,0,15
0,76,68,97
0,79,68,0
0,72,65,0
0,42,77,0
0,40,99,0
0,72,0,47
0,76,0,5
0,79,0,7
0,42,0,12
0,72,40,89
0,79,54,0
0,76,47,0
0,42,41,0
0,36,0,4
0,36,0,24
0,76,0,14
0,72,0,4
0,79,0,6
0,42,0,11
0,36,71,97
0,72,62,0
0,76,65,0
0,79,65,0
0,42,71,0
0,36,63,0
0,76,0,46
0,79,0,1
0,72,0,5
0,42,0,14
0,36,0,5
0,64,0,68
0,62,68,21
0,58,61,0
0,31,71,0
0,79,68,0
0,74,65,0
0,70,58,0
0,36,76,0
0,42,83,0
0,60,0,22
0,36,0,5
0,70,0,26
0,74,0,1
0,79,0,9
0,42,0,9
0,70,62,88
0,74,65,0
0,79,62,0
0,42,46,0
0,79,0,45
0,74,0,0
0,70,0,5
0,42,0,14
0,40,0,85
0,74,65,11
0,70,58,0
0,79,68,0
0,42,64,0
0,79,0,39
0,70,0,2
0,74,0,0
0,42,0,17
0,31,0,99
0,34,68,3
0,74,58,0
0,79,62,0
0,70,40,0
0,42,77,0
0,40,99,0
0,72,0,37
0,79,0,4
0,70,0,3
0,74,0,1
0,42,0,19
0,70,84,96
0,74,65,0
0,70,51,0
0,79,62,0
0,42,64,0
0,70,0,42
0,79,0,4
0,74,0,0
0,42,0,10
0,67,0,97
0,36,0,2
0,69,84,5
0,74,65,0
0,70,47,0
0,79,65,0
0,42,64,0
0,70,0,7
0,58,0,19
0,62,0,3
0,42,0,19
0,70,0,8
0,79,0,1
0,74,0,12
0,34,0,54
0,60,65,37
0,64,71,0
0,67,71,0
0,36,71,0
0,67,92,0
0,76,68,0
0,72,62,0
0,79,65,0
0,42,83,0
0,36,76,0
0,69,0,20
0,79,0,29
0,76,0,0
0,72,0,2
0,42,0,10
0,72,51,99
0,76,54,0
0,79,54,0
0,42,34,0
0,72,0,47
0,79,0,1
0,76,0,2
0,42,0,19
0,40,0,48
0,76,58,43
0,72,47,0
0,79,58,0
0,42,77,0
0,72,0,41
0,76,0,3
0,79,0,2
0,42,0,18
0,76,62,96
0,72,62,0
0,79,65,0
0,42,77,0
0,40,99,0
0,76,0,42
0,72,0,7
0,79,0,4
0,42,0,18
0,72,47,89
0,79,54,0
0,76,51,0
0,42,52,0
0,76,0,39
0,36,0,4
0,72,0,4
0,79,0,1
0,42,0,12
0,36,0,22
0,36,71,78
0,72,54,0
0,76,58,0
0,79,58,0
0,42,71,0
0,36,63,0
0,76,0,42
0,72,0,1
0,79,0,4
0,42,0,10
0,36,0,22
0,62,65,81
0,58,61,0
0,31,79,0
0,79,68,0
0,74,68,0
0,70,91,0
0,36,70,0
0,42,83,0
0,64,0,5
0,60,0,7
0,36,0,12
0,70,0,13
0,74,0,7
0,79,0,4
0,42,0,14
0,74,68,98
0,79,68,0
0,70,68,0
0,42,64,0
0,70,0,38
0,74,0,1
0,79,0,3
0,42,0,12
0,40,0,98
0,70,47,8
0,79,62,0
0,74,58,0
0,46,55,0
0,74,0,39
0,79,0,7
0,70,0,1
0,46,0,51
0,67,0,41
0,34,71,21
0,70,68,0
0,74,76,0
0,79,68,0
0,42,77,0
0,40,99,0
0,31,0,19
0,79,0,30
0,74,0,0
0,70,0,1
0,42,0,9
0,36,0,17
0,67,92,84
0,70,47,0
0,74,58,0
0,79,62,0
0,42,71,0
0,42,0,44
0,79,0,5
0,70,0,1
0,74,0,1
0,67,0,7
0,58,0,16
0,62,0,3
0,69,92,83
0,74,65,0
0,79,65,0
0,70,54,0
0,42,71,0
0,67,0,5
0,42,0,33
0,70,0,8
0,74,0,12
0,79,0,4
0,40,0,5
0,34,0,79
0,60,68,14
0,64,71,0
0,67,71,0
0,36,68,0
0,72,92,0
0,76,58,0
0,79,65,0
0,72,62,0
0,42,77,0
0,36,70,0
0,69,0,7
0,72,0,38
0,76,0,7
0,79,0,2
0,42,0,17
0,76,54,89
0,72,39,0
0,79,54,0
0,42,33,0
0,72,0,43
0,79,0,9
0,76,0,4
0,42,0,3
0,72,0,97
0,74,101,4
0,79,62,0
0,76,58,0
0,72,58,0
0,42,77,0
0,72,0,43
0,76,0,2
0,79,0,12
0,42,0,6
0,72,62,97
0,79,62,0
0,76,65,0
0,42,77,0
0,40,99,0
0,76,0,44
0,72,0,2
0,79,0,7
0,36,0,14
0,42,0,4
0,72,92,89
0,72,51,0
0,76,58,0
0,79,58,0
0,42,41,0
0,36,0,4
0,74,0,17
0,76,0,24
0,72,0,0
0,79,0,9
0,42,0,9
0,36,68,97
0,76,51,0
0,72,44,0
0,79,58,0
0,42,71,0
0,36,63,0
0,72,0,57
0,79,0,2
0,42,0,7
0,76,0,1
0,36,0,4
0,58,61,89
0,62,65,0
0,31,68,0
0,70,84,0
0,79,68,0
0,74,68,0
0,70,68,0
0,36,76,0
0,42,83,0
0,64,0,13
0,36,0,2
0,72,0,6
0,60,0,4
0,70,0,16
0,74,0,17
0,79,0,1
0,42,0,13
0,70,58,88
0,74,62,0
0,79,62,0
0,42,46,0
0,79,0,38
0,74,0,0
0,70,0,7
0,42,0,19
0,40,0,85
0,70,0,8
0,67,92,3
0,70,65,0
0,74,62,0
0,79,65,0
0,42,64,0
0,74,0,38
0,70,0,10
0,79,0,5
0,42,0,5
0,34,71,102
0,74,68,0
0,70,65,0
0,79,68,0
0,42,77,0
0,40,99,0
0,31,0,11
0,70,0,39
0,74,0,1
0,79,0,1
