track,note,velocity,time
1,54,81,3048
1,61,74,0
1,59,81,1404
1,64,75,0
1,54,55,268
1,64,81,116
1,59,76,0
1,61,71,380
1,54,60,4
1,59,85,20
1,64,73,0
1,54,60,300
1,64,77,0
1,59,85,0
1,61,72,388
1,54,64,0
1,64,77,248
1,59,86,0
1,54,61,288
1,64,83,132
1,59,85,8
1,61,67,8
1,54,65,0
1,64,76,4
1,59,85,0
1,63,70,388
1,61,73,16
1,54,65,0
1,64,63,1792
1,59,76,0
1,54,58,260
1,64,64,120
1,59,71,4
1,61,73,364
1,54,63,0
1,59,90,224
1,64,65,4
1,54,58,316
1,64,77,20
1,59,83,0
1,61,74,384
1,54,69,0
1,64,72,164
1,59,83,0
1,54,60,308
1,59,77,0
1,64,73,4
1,61,75,380
1,54,63,0
1,64,76,16
1,59,85,0
1,63,67,16
1,61,74,0
1,54,70,0
1,59,72,264
1,64,74,8
1,54,64,284
1,64,76,36
1,59,86,8
1,61,70,0
1,54,66,8
1,64,73,220
1,59,81,4
1,54,61,304
1,64,79,40
1,59,86,0
1,61,77,384
1,54,65,4
1,59,83,272
1,64,67,4
1,54,60,308
1,64,72,44
1,59,86,4
1,61,75,12
1,54,71,0
1,64,81,16
1,59,86,0
1,63,72,384
2,42,92,2652
2,44,92,24
2,45,91,392
2,47,95,352
2,35,92,0
2,37,90,384
2,40,96,392
2,42,95,336
2,44,94,728
2,45,98,372
2,47,96,0
2,35,92,392
2,37,92,344
2,40,96,364
2,42,93,352
2,44,94,748
2,45,97,356
2,47,96,360
2,35,95,356
2,37,91,364
2,40,95,344
2,42,94,332
2,44,90,728
2,45,95,376
2,35,99,364
2,42,94,172
2,44,91,380
2,45,94,4
2,47,96,4
2,47,93,60
2,35,96,12
2,37,95,52
2,40,96,0
2,42,95,384
2,44,94,748
2,45,99,356
2,47,98,376
2,47,98,100
2,35,95,24
2,37,92,0
2,40,96,388
2,42,96,356
2,44,94,752
2,45,95,20
2,47,96,0
2,47,98,84
2,35,99,32
2,37,91,4
2,40,95,384
2,42,95,340
2,44,93,748
2,45,96,24
2,35,96,4
2,42,92,16
2,44,94,388
2,45,97,0
2,47,99,384
2,47,98,84
2,35,96,48
2,37,92,20
2,40,97,384
2,42,96,372
2,44,94,760
2,45,99,4
2,47,98,384
2,47,96,104
2,35,95,44
2,37,92,16
2,40,95,388
2,42,96,0
2,44,95,772
2,45,100,20
2,47,98,380
2,47,96,100
2,35,96,28
2,37,92,4
2,40,96,388
2,42,95,8
2,44,92,772
2,45,95,356
2,35,101,4
2,42,92,40
2,30,101,28
2,30,95,76
2,32,91,20
2,33,95,384
2,37,95,356
2,39,95,368
2,39,94,240
2,37,93,128
2,37,92,156
2,38,100,128
2,40,94,212
2,37,92,128
2,35,93,96
2,33,92,4
2,30,99,20
2,30,97,68
2,32,95,0
2,33,97,384
2,37,95,20
2,39,96,380
2,39,92,224
2,37,93,128
2,37,92,184
2,38,100,128
2,33,91,100
2,38,96,20
2,35,98,1536
2,28,108,1140
2,28,100,228
2,33,98,136
2,33,91,316
2,38,98,48
2,38,100,232
2,40,95,1152
2,38,108,1504
2,38,98,124
2,33,93,384
2,33,93,216
2,38,102,44
2,38,99,164
2,38,102,48
2,40,98,8
2,38,108,1536
2,33,94,1528
2,33,96,168
2,38,102,384
2,38,97,252
2,40,98,384
2,40,97,188
2,38,95,384
2,33,95,1524
2,33,95,116
2,37,102,20
2,37,98,244
2,30,95,384
2,35,104,1532
2,35,102,80
2,40,98,20
2,37,101,1536
2,37,96,288
2,30,96,384
2,30,95,308
2,35,104,384
2,28,98,336
2,28,96,204
2,28,97,264
2,28,98,240
2,33,107,12804
2,33,104,20
2,33,98,948
2,33,95,76
2,33,85,52
2,33,103,148
2,33,98,596
2,33,101,76
2,33,99,924
2,33,99,64
2,45,94,32
2,40,94,180
2,40,94,160
2,33,96,76
2,33,97,764
2,33,99,60
2,45,94,8
2,37,100,428
2,30,100,380
2,30,103,372
2,30,95,148
2,32,98,384
2,37,99,4
2,38,102,8
2,28,98,1844
2,33,98,384
2,33,91,316
2,38,98,48
2,38,100,232
2,40,95,1152
2,38,108,1504
2,38,98,124
2,33,93,384
2,33,93,216
2,38,102,44
2,38,99,164
2,38,102,48
2,40,98,8
2,38,108,1536
2,33,94,1528
2,33,96,168
2,38,102,384
2,38,97,252
2,40,98,384
2,40,97,188
2,38,95,384
2,33,95,1524
2,33,95,116
2,37,102,20
2,37,98,244
2,30,95,384
2,35,104,1532
2,35,102,80
2,40,98,20
2,37,101,1536
2,37,96,288
2,30,96,384
2,30,95,308
2,35,104,384
2,28,98,336
2,28,96,204
2,28,97,264
2,28,98,240
2,33,107,12468
2,33,104,20
2,33,98,948
2,33,95,76
2,33,85,52
2,33,103,148
2,33,98,596
2,33,101,76
2,33,99,924
2,33,99,64
2,45,94,32
2,40,94,180
2,40,94,160
2,33,96,76
2,33,97,764
2,33,99,60
2,45,94,8
2,37,100,428
2,30,100,380
2,30,103,372
2,30,95,148
2,32,98,384
2,37,99,4
2,38,102,8
2,28,98,1844
2,28,98,1536
2,33,98,396
2,33,91,316
2,38,98,48
2,38,100,232
2,40,95,1152
2,38,108,1504
2,38,98,124
2,33,93,384
2,33,93,216
2,38,102,44
2,38,99,160
2,38,102,48
2,40,98,8
2,38,108,1536
2,33,98,1548
2,33,91,316
2,38,98,48
2,38,100,236
2,40,95,1152
2,38,108,1504
2,38,98,128
2,33,93,384
2,33,93,220
2,38,102,48
2,38,99,164
2,38,102,48
2,40,98,12
2,38,108,1536
2,33,104,332
3,54,78,39488
3,57,73,8
3,61,71,8
3,66,88,0
3,66,107,236
3,61,101,8
3,57,88,8
3,54,103,0
3,54,74,0
3,57,72,8
3,61,65,8
3,66,74,0
3,66,107,176
3,61,70,8
3,57,84,8
3,54,89,0
3,54,76,8
3,57,77,8
3,61,72,8
3,66,88,0
3,66,89,32
3,61,89,8
3,57,89,8
3,54,89,0
3,54,70,16
3,59,86,8
3,63,68,8
3,66,67,0
3,66,98,40
3,63,90,8
3,59,70,8
3,54,89,0
3,54,86,132
3,59,93,8
3,63,84,8
3,66,107,0
3,64,80,16
3,61,75,8
3,56,74,8
3,52,82,0
3,52,65,188
3,56,68,8
3,61,76,8
3,64,88,0
3,64,93,32
3,61,67,8
3,56,73,8
3,52,69,0
3,52,80,164
3,56,70,8
3,61,73,8
3,64,90,0
3,61,72,0
3,56,73,8
3,52,70,8
3,52,73,0
3,56,77,8
3,61,86,8
3,64,93,0
3,66,74,20
3,61,68,8
3,57,77,8
3,50,66,0
3,50,77,44
3,57,86,8
3,61,88,8
3,66,107,0
3,66,86,204
3,61,77,8
3,57,89,8
3,50,80,0
3,54,71,20
3,57,79,8
3,61,77,8
3,66,78,0
3,66,115,176
3,61,98,8
3,57,82,8
3,54,96,0
3,54,76,16
3,57,76,8
3,61,79,8
3,66,96,0
3,66,111,156
3,61,82,8
3,57,80,8
3,54,84,0
3,54,72,0
3,57,76,8
3,61,67,8
3,66,74,0
3,66,86,48
3,61,77,8
3,57,77,8
3,54,88,0
3,54,71,16
3,59,90,8
3,63,76,8
3,66,88,0
3,66,101,48
3,63,93,8
3,59,93,8
3,54,90,0
3,54,96,240
3,59,89,8
3,63,90,8
3,66,107,0
3,64,93,12
3,61,68,8
3,56,67,8
3,52,75,0
3,52,79,208
3,56,80,8
3,61,84,8
3,64,96,0
3,64,88,8
3,61,66,8
3,56,72,8
3,52,78,0
3,52,72,180
3,56,69,8
3,61,70,8
3,64,96,0
3,64,82,4
3,56,66,8
3,52,70,8
3,52,78,64
3,56,73,8
3,61,76,8
3,64,89,0
3,66,92,0
3,61,90,8
3,57,88,8
3,50,82,0
3,47,84,16
3,54,74,8
3,57,93,8
3,62,98,0
3,66,98,12
3,64,101,0
3,59,103,8
3,57,96,8
3,50,78,0
3,47,79,12
3,40,80,4
3,45,82,32
3,69,88,12
3,52,78,0
3,64,98,4
3,61,84,0
3,57,88,0
3,69,93,28
3,61,84,0
3,57,98,0
3,64,101,0
3,52,74,4
3,45,80,0
3,45,73,4
3,61,67,0
3,52,64,0
3,69,70,0
3,57,67,8
3,64,77,0
3,69,84,48
3,64,90,8
3,54,70,0
3,57,90,0
3,62,107,0
3,50,75,8
3,62,74,0
3,64,88,8
3,69,63,0
3,57,58,0
3,54,73,8
3,54,79,20
3,57,71,0
3,62,88,8
3,50,84,0
3,69,78,0
3,64,88,4
3,69,89,48
3,64,93,0
3,57,88,0
3,62,90,0
3,54,88,0
3,50,89,8
3,47,103,16
3,56,75,8
3,64,98,0
3,52,89,0
3,59,101,0
3,64,98,32
3,47,90,0
3,52,78,0
3,59,107,0
3,56,77,0
3,52,69,20
3,56,71,8
3,64,80,0
3,59,96,0
3,64,90,8
3,59,107,0
3,52,72,0
3,56,80,0
3,59,98,4
3,56,98,4
3,64,98,8
3,47,86,4
3,52,100,4
3,56,90,0
3,59,115,0
3,64,89,0
3,52,77,8
3,52,78,4
3,56,76,0
3,47,80,4
3,64,93,0
3,59,96,0
3,69,90,32
3,52,84,0
3,61,77,0
3,45,89,0
3,64,101,0
3,57,86,0
3,52,77,16
3,45,76,4
3,57,96,0
3,61,101,0
3,69,89,0
3,64,111,0
3,61,61,4
3,45,66,0
3,57,65,0
3,64,74,0
3,69,60,0
3,52,62,0
3,57,86,60
3,64,89,0
3,69,82,0
3,62,114,0
3,54,61,8
3,50,70,8
3,69,67,8
3,62,79,0
3,64,82,0
3,54,88,4
3,50,77,12
3,69,84,4
3,57,78,4
3,62,90,0
3,54,82,0
3,64,96,0
3,50,88,4
3,69,88,12
3,62,111,4
3,54,80,0
3,64,111,0
3,57,103,0
3,50,88,0
3,47,96,20
3,52,73,0
3,59,103,4
3,64,98,0
3,56,78,0
3,47,96,36
3,52,78,0
3,64,96,0
3,59,103,0
3,56,77,0
3,52,70,56
3,56,71,0
3,64,77,0
3,59,93,4
3,59,101,48
3,56,72,0
3,52,73,0
3,64,90,0
3,59,80,8
3,56,80,0
3,64,80,0
3,52,80,16
3,59,114,32
3,64,93,0
3,56,86,0
3,52,75,0
3,64,96,56
3,52,79,0
3,59,107,0
3,56,96,0
3,52,80,12
3,61,76,0
3,57,76,0
3,69,90,4
3,45,82,0
3,64,98,0
3,57,96,4
3,69,86,0
3,52,82,0
3,61,101,0
3,64,90,4
3,45,80,0
3,61,60,4
3,64,71,12
3,45,59,0
3,69,57,4
3,52,61,0
3,57,63,0
3,57,84,60
3,64,90,0
3,69,82,0
3,62,103,0
3,54,66,0
3,50,79,12
3,64,70,12
3,62,68,0
3,54,75,16
3,50,77,0
3,69,80,4
3,57,78,0
3,64,82,0
3,62,82,0
3,54,88,0
3,50,88,12
3,54,77,4
3,57,93,0
3,69,88,0
3,62,98,0
3,64,101,0
3,50,93,0
3,64,93,28
3,56,73,0
3,47,77,0
3,52,77,4
3,59,101,0
3,56,73,16
3,59,107,0
3,64,98,0
3,47,80,0
3,52,77,12
3,56,67,12
3,59,86,4
3,52,68,0
3,47,65,0
3,47,61,32
3,56,67,0
3,64,88,0
3,59,96,0
3,52,86,16
3,59,88,4
3,64,88,4
3,52,83,8
3,59,98,4
3,56,77,0
3,64,86,0
3,52,73,0
3,52,78,8
3,59,101,0
3,47,78,0
3,64,93,0
3,56,89,0
3,52,78,88
3,69,89,0
3,45,79,4
3,57,89,0
3,64,98,0
3,61,79,0
3,69,86,40
3,52,80,0
3,64,90,4
3,57,82,0
3,61,77,0
3,45,77,4
3,52,68,0
3,57,68,4
3,64,73,8
3,69,65,0
3,56,90,64
3,49,90,0
3,53,90,0
3,61,90,0
3,65,90,8
3,65,89,32
3,56,71,0
3,61,70,8
3,53,63,8
3,49,74,0
3,65,84,44
3,61,79,8
3,56,79,76
3,53,79,0
3,65,96,0
3,61,82,4
3,49,74,0
3,54,78,60
3,57,101,32
3,61,101,32
3,66,99,32
3,54,81,44
3,59,83,32
3,63,83,32
3,66,91,32
3,56,93,56
3,59,103,32
3,64,98,32
3,53,75,48
3,56,75,24
3,61,78,24
3,65,89,32
3,54,76,64
3,57,90,32
3,61,89,32
3,66,84,32
3,54,80,44
3,59,83,32
3,63,82,32
3,66,92,32
3,40,93,496
3,50,93,4
3,57,93,4
3,59,93,0
3,64,93,0
3,69,93,8
3,40,70,232
3,50,77,4
3,57,77,4
3,59,77,0
3,64,89,0
3,69,89,8
3,40,76,216
3,50,84,4
3,57,75,4
3,59,73,0
3,64,88,0
3,69,77,8
3,40,71,276
3,50,77,4
3,57,82,4
3,59,82,0
3,64,96,0
3,69,89,8
3,50,79,9180
3,57,89,4
3,62,90,4
3,66,82,8
3,50,80,88
3,59,101,4
3,62,111,4
3,67,88,8
3,50,82,136
3,57,88,4
3,62,90,4
3,66,88,8
3,50,71,96
3,55,90,4
3,57,107,4
3,64,88,8
3,50,77,12
3,50,88,40
3,54,75,4
3,57,90,4
3,62,101,8
3,45,69,412
3,52,77,4
3,57,86,4
3,61,78,8
3,64,86,8
3,69,84,8
3,45,70,192
3,52,74,4
3,57,82,4
3,61,78,8
3,64,90,8
3,69,88,8
3,57,52,16
3,61,61,4
3,64,73,4
3,69,54,8
3,57,45,4
3,61,53,0
3,64,62,8
3,69,61,8
3,57,103,16
3,61,103,4
3,64,103,8
3,69,103,8
3,52,84,56
3,57,88,4
3,61,77,4
3,64,101,8
3,69,89,8
3,45,62,44
3,52,77,0
3,57,84,4
3,61,73,4
3,64,93,8
3,69,80,8
3,50,66,120
3,57,61,4
3,62,75,4
3,66,62,8
3,69,66,8
3,50,82,192
3,57,101,4
3,62,111,4
3,66,86,8
3,69,84,8
3,50,79,92
3,57,89,4
3,62,103,4
3,66,89,8
3,69,93,8
3,50,64,24
3,57,57,4
3,50,70,4
3,57,64,4
3,62,76,4
3,66,72,8
3,69,66,8
3,50,96,8
3,57,96,4
3,62,96,4
3,66,96,8
3,69,96,8
3,50,90,32
3,57,98,4
3,62,107,4
3,66,90,8
3,69,80,8
3,50,69,8
3,57,48,4
3,50,80,24
3,57,89,4
3,62,93,0
3,66,88,8
3,69,88,8
3,45,63,120
3,52,69,4
3,61,70,4
3,64,78,8
3,69,62,8
3,45,76,192
3,52,84,4
3,57,90,4
3,61,79,8
3,64,101,8
3,69,84,8
3,45,80,192
3,52,80,4
3,57,96,4
3,61,86,8
3,64,101,8
3,69,93,8
3,45,56,16
3,52,65,4
3,57,62,4
3,61,61,0
3,64,67,8
3,69,63,8
3,52,66,4
3,57,64,4
3,61,62,8
3,64,78,8
3,69,63,8
3,45,103,8
3,52,103,4
3,57,103,4
3,61,103,8
3,64,104,8
3,69,104,8
3,45,77,8
3,52,78,4
3,57,80,4
3,61,76,8
3,64,93,8
3,69,76,8
3,45,62,28
3,52,66,4
3,57,53,4
3,45,69,8
3,52,82,4
3,57,84,0
3,61,77,8
3,64,96,8
3,69,90,8
3,54,78,96
3,57,84,4
3,61,89,4
3,66,107,8
3,54,36,0
3,57,50,4
3,61,56,4
3,66,56,8
3,54,67,24
3,57,72,4
3,61,71,4
3,66,61,8
3,54,82,104
3,57,89,4
3,61,103,4
3,66,93,8
3,54,56,12
3,57,63,4
3,61,59,4
3,54,63,8
3,57,63,4
3,61,64,4
3,66,61,8
3,54,82,24
3,57,90,4
3,61,107,4
3,66,98,8
3,54,68,8
3,57,71,4
3,61,66,4
3,66,68,8
3,56,98,80
3,59,98,4
3,63,98,4
3,68,80,8
3,56,62,8
3,59,64,4
3,63,67,4
3,68,61,8
3,56,77,8
3,59,86,4
3,63,82,4
3,68,69,8
3,56,117,124
3,61,90,4
3,65,98,4
3,68,78,8
3,56,63,4
3,61,67,4
3,65,68,4
3,68,48,8
3,56,77,0
3,61,66,4
3,65,77,4
3,68,61,8
3,56,111,24
3,61,89,4
3,65,93,4
3,68,77,8
3,56,69,24
3,61,72,4
3,50,70,112
3,57,82,4
3,61,114,4
3,66,114,8
3,69,88,8
3,61,63,12
3,66,68,4
3,61,59,4
3,66,65,4
3,69,50,4
