track,note,velocity,time
1,64,85,30720
1,64,0,476
1,71,85,4
1,71,0,236
1,66,85,4
1,66,0,1196
1,64,85,484
1,64,0,236
1,66,85,4
1,66,0,236
1,67,85,4
1,67,0,236
1,69,85,4
1,69,0,236
1,67,85,4
1,67,0,236
1,66,85,4
1,66,0,236
1,64,85,4
1,64,0,476
1,71,85,4
1,71,0,236
1,66,85,4
1,66,0,1196
1,64,85,484
1,64,0,236
1,66,85,4
1,66,0,236
1,67,85,4
1,67,0,236
1,69,85,4
1,69,0,236
1,67,85,4
1,67,0,236
1,66,85,4
1,66,0,236
1,64,85,4
1,64,0,476
1,67,85,4
1,67,0,236
1,66,85,4
1,66,0,716
1,64,85,4
1,64,0,476
1,67,85,4
1,67,0,236
1,66,85,4
1,66,0,716
1,64,85,4
1,64,0,476
1,67,85,4
1,67,0,236
1,66,85,4
1,66,0,716
1,64,85,1444
1,64,0,476
1,71,85,4
1,71,0,236
1,66,85,4
1,66,0,1196
1,64,85,484
1,64,0,236
1,66,85,4
1,66,0,236
1,67,85,4
1,67,0,236
1,69,85,4
1,69,0,236
1,67,85,4
1,67,0,236
1,66,85,4
1,66,0,236
1,64,85,4
1,64,0,476
1,71,85,4
1,71,0,236
1,66,85,4
1,66,0,1196
1,64,85,484
1,64,0,236
1,66,85,4
1,66,0,236
1,67,85,4
1,67,0,236
1,69,85,4
1,69,0,236
1,67,85,4
1,67,0,236
1,66,85,4
1,66,0,236
1,64,85,4
1,64,0,476
1,67,85,4
1,67,0,236
1,66,85,4
1,66,0,716
1,64,85,4
1,64,0,476
1,67,85,4
1,67,0,236
1,66,85,4
1,66,0,716
1,64,85,4
1,64,0,476
1,67,85,4
1,67,0,236
1,66,85,4
1,66,0,716
1,60,85,1444
1,60,0,236
1,66,85,4
1,66,0,236
1,66,85,4
1,66,0,236
1,66,85,4
1,66,0,236
1,66,85,4
1,66,0,476
1,60,85,4
1,60,0,236
1,66,85,4
1,66,0,236
1,66,85,4
1,66,0,236
1,66,85,4
1,66,0,236
1,66,85,4
1,66,0,476
1,67,85,4
1,67,0,476
1,69,85,4
1,69,0,476
1,66,85,4
1,66,0,1916
1,60,85,4
1,60,0,236
1,66,85,4
1,66,0,236
1,66,85,4
1,66,0,236
1,66,85,4
1,66,0,236
1,66,85,4
1,66,0,476
1,60,85,4
1,60,0,236
1,66,85,4
1,66,0,236
1,66,85,4
1,66,0,236
1,66,85,4
1,66,0,236
1,66,85,4
1,66,0,476
1,67,85,4
1,67,0,476
1,69,85,4
1,69,0,476
1,71,85,4
1,71,0,236
1,69,85,4
1,69,0,236
1,67,85,4
1,67,0,236
1,66,85,4
1,66,0,2156
1,58,85,4
1,58,0,236
1,64,85,4
1,64,0,236
1,64,85,4
1,64,0,236
1,64,85,4
1,64,0,236
1,64,85,4
1,64,0,476
1,58,85,4
1,58,0,236
1,64,85,4
1,64,0,236
1,64,85,4
1,64,0,236
1,64,85,4
1,64,0,236
1,64,85,4
1,64,0,476
1,65,85,4
1,65,0,476
1,67,85,4
1,67,0,476
1,64,85,4
1,64,0,1916
1,58,85,4
1,58,0,236
1,64,85,4
1,64,0,236
1,64,85,4
1,64,0,236
1,64,85,4
1,64,0,236
1,64,85,4
1,64,0,476
1,58,85,4
1,58,0,236
1,64,85,4
1,64,0,236
1,64,85,4
1,64,0,236
1,64,85,4
1,64,0,236
1,64,85,4
1,64,0,476
1,65,85,4
1,65,0,476
1,67,85,4
1,67,0,476
1,69,85,4
1,69,0,236
1,67,85,4
1,67,0,236
1,65,85,4
1,65,0,236
1,64,85,4
1,64,0,2156
1,71,85,2884
1,71,0,476
1,67,85,4
1,67,0,476
1,64,85,4
1,64,0,476
1,71,85,4
1,71,0,236
1,66,85,4
1,66,0,1196
1,64,85,484
1,64,0,236
1,66,85,4
1,66,0,236
1,67,85,4
1,67,0,236
1,69,85,4
1,69,0,236
1,67,85,4
1,67,0,236
1,66,85,4
1,66,0,236
1,64,85,4
1,64,0,476
1,71,85,4
1,71,0,236
1,66,85,4
1,66,0,1196
1,64,85,484
1,64,0,236
1,66,85,4
1,66,0,236
1,67,85,4
1,67,0,236
1,69,85,4
1,69,0,236
1,67,85,4
1,67,0,236
1,66,85,4
1,66,0,236
1,64,85,4
1,64,0,476
1,67,85,4
1,67,0,236
1,66,85,4
1,66,0,716
1,64,85,4
1,64,0,476
1,67,85,4
1,67,0,236
1,66,85,4
1,66,0,716
1,64,85,4
1,64,0,476
1,67,85,4
1,67,0,236
1,66,85,4
1,66,0,716
1,64,85,70564
1,64,0,476
1,71,85,4
1,71,0,236
1,66,85,4
1,66,0,1196
1,64,85,484
1,64,0,236
1,66,85,4
1,66,0,236
1,67,85,4
1,67,0,236
1,69,85,4
1,69,0,236
1,67,85,4
1,67,0,236
1,66,85,4
1,66,0,236
1,64,85,4
1,64,0,476
1,71,85,4
1,71,0,236
1,66,85,4
1,66,0,1196
1,64,85,484
1,64,0,236
1,66,85,4
1,66,0,236
1,67,85,4
1,67,0,236
1,69,85,4
1,69,0,236
1,67,85,4
1,67,0,236
1,66,85,4
1,66,0,236
1,64,85,4
1,64,0,476
1,67,85,4
1,67,0,236
1,66,85,4
1,66,0,716
1,64,85,4
1,64,0,476
1,67,85,4
1,67,0,236
1,66,85,4
1,66,0,716
1,64,85,4
1,64,0,476
1,67,85,4
1,67,0,236
1,66,85,4
1,66,0,716
1,60,85,1444
1,60,0,236
1,66,85,4
1,66,0,236
1,66,85,4
1,66,0,236
1,66,85,4
1,66,0,236
1,66,85,4
1,66,0,476
1,60,85,4
1,60,0,236
1,66,85,4
1,66,0,236
1,66,85,4
1,66,0,236
1,66,85,4
1,66,0,236
1,66,85,4
1,66,0,476
1,67,85,4
1,67,0,476
1,69,85,4
1,69,0,476
1,66,85,4
1,66,0,1916
1,60,85,4
1,60,0,236
1,66,85,4
1,66,0,236
1,66,85,4
1,66,0,236
1,66,85,4
1,66,0,236
1,66,85,4
1,66,0,476
1,60,85,4
1,60,0,236
1,66,85,4
1,66,0,236
1,66,85,4
1,66,0,236
1,66,85,4
1,66,0,236
1,66,85,4
1,66,0,476
1,67,85,4
1,67,0,476
1,69,85,4
1,69,0,476
1,71,85,4
1,71,0,236
1,69,85,4
1,69,0,236
1,67,85,4
1,67,0,236
1,66,85,4
1,66,0,2156
1,58,85,4
1,58,0,236
1,64,85,4
1,64,0,236
1,64,85,4
1,64,0,236
1,64,85,4
1,64,0,236
1,64,85,4
1,64,0,476
1,58,85,4
1,58,0,236
1,64,85,4
1,64,0,236
1,64,85,4
1,64,0,236
1,64,85,4
1,64,0,236
1,64,85,4
1,64,0,476
1,65,85,4
1,65,0,476
1,67,85,4
1,67,0,476
1,64,85,4
1,64,0,1916
1,58,85,4
1,58,0,236
1,64,85,4
1,64,0,236
1,64,85,4
1,64,0,236
1,64,85,4
1,64,0,236
1,64,85,4
1,64,0,476
1,58,85,4
1,58,0,236
1,64,85,4
1,64,0,236
1,64,85,4
1,64,0,236
1,64,85,4
1,64,0,236
1,64,85,4
1,64,0,476
1,65,85,4
1,65,0,476
1,67,85,4
1,67,0,476
1,69,85,4
1,69,0,236
1,67,85,4
1,67,0,236
1,65,85,4
1,65,0,236
1,64,85,4
1,64,0,2156
1,71,85,2884
1,71,0,476
1,67,85,4
1,67,0,476
1,64,85,4
1,64,0,476
1,71,85,4
1,71,0,236
1,66,85,4
1,66,0,1196
1,64,85,484
1,64,0,236
1,66,85,4
1,66,0,236
1,67,85,4
1,67,0,236
1,69,85,4
1,69,0,236
1,67,85,4
1,67,0,236
1,66,85,4
1,66,0,236
1,64,85,4
1,64,0,476
1,71,85,4
1,71,0,236
1,66,85,4
1,66,0,1196
1,64,85,484
1,64,0,236
1,66,85,4
1,66,0,236
1,67,85,4
1,67,0,236
1,69,85,4
1,69,0,236
1,67,85,4
1,67,0,236
1,66,85,4
1,66,0,236
1,64,85,4
1,64,0,476
1,67,85,4
1,67,0,236
1,66,85,4
1,66,0,716
1,64,85,4
1,64,0,476
1,67,85,4
1,67,0,236
1,66,85,4
1,66,0,716
1,64,85,4
1,64,0,476
1,67,85,4
1,67,0,236
1,66,85,4
1,66,0,716
1,60,85,1444
1,60,0,236
1,66,85,4
1,66,0,236
1,66,85,4
1,66,0,236
1,66,85,4
1,66,0,236
1,66,85,4
1,66,0,476
1,60,85,4
1,60,0,236
1,66,85,4
1,66,0,236
1,66,85,4
1,66,0,236
1,66,85,4
1,66,0,236
1,66,85,4
1,66,0,476
1,67,85,4
1,67,0,476
1,69,85,4
1,69,0,476
1,66,85,4
1,66,0,1916
1,60,85,4
1,60,0,236
1,66,85,4
1,66,0,236
1,66,85,4
1,66,0,236
1,66,85,4
1,66,0,236
1,66,85,4
1,66,0,476
1,60,85,4
1,60,0,236
1,66,85,4
1,66,0,236
1,66,85,4
1,66,0,236
1,66,85,4
1,66,0,236
1,66,85,4
1,66,0,476
1,67,85,4
1,67,0,476
1,69,85,4
1,69,0,476
1,71,85,4
1,71,0,236
1,69,85,4
1,69,0,236
1,67,85,4
1,67,0,236
1,66,85,4
1,66,0,2156
1,58,85,4
1,58,0,236
1,64,85,4
1,64,0,236
1,64,85,4
1,64,0,236
1,64,85,4
1,64,0,236
1,64,85,4
1,64,0,476
1,58,85,4
1,58,0,236
1,64,85,4
1,64,0,236
1,64,85,4
1,64,0,236
1,64,85,4
1,64,0,236
1,64,85,4
1,64,0,476
1,65,85,4
1,65,0,476
1,67,85,4
1,67,0,476
1,64,85,4
1,64,0,1916
1,58,85,4
1,58,0,236
1,64,85,4
1,64,0,236
1,64,85,4
1,64,0,236
1,64,85,4
1,64,0,236
1,64,85,4
1,64,0,476
1,58,85,4
1,58,0,236
1,64,85,4
1,64,0,236
1,64,85,4
1,64,0,236
1,64,85,4
1,64,0,236
1,64,85,4
1,64,0,476
1,65,85,4
1,65,0,476
1,67,85,4
1,67,0,476
1,69,85,4
1,69,0,236
1,67,85,4
1,67,0,236
1,65,85,4
1,65,0,236
1,64,85,4
1,64,0,2156
1,64,85,3844
1,64,0,476
1,71,85,4
1,71,0,236
1,66,85,4
1,66,0,1676
1,64,85,4
1,64,0,236
1,66,85,4
1,66,0,236
1,67,85,4
1,67,0,236
1,69,85,4
1,69,0,236
1,67,85,4
1,67,0,236
1,66,85,4
1,66,0,236
1,64,85,4
1,64,0,476
1,71,85,4
1,71,0,236
1,66,85,4
1,66,0,1676
1,64,85,4
1,64,0,236
1,66,85,4
1,66,0,236
1,67,85,4
1,67,0,236
1,69,85,4
1,69,0,236
1,67,85,4
1,67,0,236
1,66,85,4
1,66,0,236
1,64,85,4
1,64,0,476
1,67,85,4
1,67,0,236
1,66,85,4
1,66,0,716
1,64,85,484
1,64,0,476
1,67,85,4
1,67,0,236
1,66,85,4
1,66,0,716
1,64,85,1509
1,64,0,476
1,67,85,4
1,67,0,236
1,66,85,4
1,66,0,9755
2,55,97,30720
2,59,97,0
2,64,97,0
2,64,0,476
2,71,97,4
2,71,0,236
2,66,97,4
2,66,0,1196
2,64,97,484
2,64,0,236
2,66,97,4
2,66,0,236
2,67,97,4
2,67,0,236
2,69,97,4
2,69,0,236
2,67,97,4
2,67,0,236
2,66,97,4
2,66,0,236
2,59,0,0
2,55,0,0
2,64,97,4
2,59,97,0
2,55,97,0
2,64,0,476
2,71,97,4
2,71,0,236
2,66,97,4
2,66,0,1196
2,64,97,484
2,64,0,236
2,66,97,4
2,66,0,236
2,67,97,4
2,67,0,236
2,69,97,4
2,69,0,236
2,67,97,4
2,67,0,236
2,66,97,4
2,66,0,236
2,55,0,0
2,59,0,0
2,64,97,4
2,60,97,0
2,55,97,0
2,64,0,476
2,67,97,4
2,67,0,236
2,66,97,4
2,66,0,716
2,55,0,0
2,60,0,0
2,64,97,4
2,57,97,0
2,54,97,0
2,54,0,476
2,64,0,0
2,67,97,4
2,54,97,0
2,67,0,236
2,66,97,4
2,66,0,716
2,54,0,0
2,57,0,0
2,64,97,4
2,59,97,0
2,55,97,0
2,64,0,476
2,67,97,4
2,67,0,236
2,66,97,4
2,55,0,236
2,55,97,4
2,55,0,476
2,66,0,0
2,59,0,0
2,66,97,4
2,59,97,0
2,55,97,0
2,55,0,1436
2,59,0,0
2,66,0,0
2,64,97,4
2,59,97,0
2,55,97,0
2,64,0,476
2,71,97,4
2,71,0,236
2,66,97,4
2,55,0,236
2,55,97,4
2,55,0,716
2,59,0,0
2,59,97,4
2,55,97,0
2,66,0,236
2,64,97,484
2,64,0,236
2,66,97,4
2,66,0,236
2,67,97,4
2,67,0,236
2,69,97,4
2,69,0,236
2,67,97,4
2,67,0,236
2,66,97,4
2,66,0,236
2,55,0,0
2,59,0,0
2,64,97,4
2,59,97,0
2,55,97,0
2,64,0,476
2,71,97,4
2,71,0,236
2,66,97,4
2,55,0,236
2,55,97,4
2,55,0,236
2,59,0,0
2,59,97,4
2,55,97,0
2,55,0,476
2,59,0,0
2,59,97,4
2,55,97,0
2,66,0,236
2,64,97,484
2,64,0,236
2,66,97,4
2,66,0,236
2,67,97,4
2,67,0,236
2,69,97,4
2,69,0,236
2,67,97,4
2,67,0,236
2,66,97,4
2,66,0,236
2,55,0,0
2,59,0,0
2,64,97,4
2,60,97,0
2,55,97,0
2,64,0,476
2,67,97,4
2,67,0,236
2,66,97,4
2,66,0,716
2,55,0,0
2,60,0,0
2,64,97,4
2,57,97,0
2,54,97,0
2,54,0,476
2,64,0,0
2,54,97,4
2,54,0,956
2,57,0,0
2,67,97,4
2,67,0,236
2,66,97,4
2,66,0,716
2,55,97,4
2,55,0,476
2,66,97,4
2,59,97,0
2,55,97,0
2,55,0,1436
2,59,0,0
2,66,0,0
2,60,97,4
2,60,0,236
2,66,97,4
2,66,0,236
2,66,97,4
2,66,0,236
2,66,97,4
2,66,0,236
2,66,97,4
2,66,0,476
2,60,97,4
2,60,0,236
2,66,97,4
2,66,0,236
2,66,97,4
2,66,0,236
2,66,97,4
2,66,0,236
2,66,97,4
2,66,0,476
2,67,97,4
2,67,0,476
2,69,97,4
2,69,0,476
2,66,97,4
2,66,0,1916
2,60,97,4
2,60,0,236
2,66,97,4
2,66,0,236
2,66,97,4
2,66,0,236
2,66,97,4
2,66,0,236
2,66,97,4
2,66,0,476
2,60,97,4
2,60,0,236
2,66,97,4
2,66,0,236
2,66,97,4
2,66,0,236
2,66,97,4
2,66,0,236
2,66,97,4
2,66,0,476
2,67,97,4
2,67,0,476
2,69,97,4
2,69,0,476
2,71,97,4
2,71,0,236
2,69,97,4
2,69,0,236
2,67,97,4
2,67,0,236
2,66,97,4
2,66,0,2156
2,58,97,4
2,58,0,236
2,64,97,4
2,64,0,236
2,64,97,4
2,64,0,236
2,64,97,4
2,64,0,236
2,64,97,4
2,64,0,476
2,58,97,4
2,58,0,236
2,64,97,4
2,64,0,236
2,64,97,4
2,64,0,236
2,64,97,4
2,64,0,236
2,64,97,4
2,64,0,476
2,65,97,4
2,65,0,476
2,67,97,4
2,67,0,476
2,64,97,4
2,64,0,1916
2,58,97,4
2,58,0,236
2,64,97,4
2,64,0,236
2,64,97,4
2,64,0,236
2,64,97,4
2,64,0,236
2,64,97,4
2,64,0,476
2,58,97,4
2,58,0,236
2,64,97,4
2,64,0,236
2,64,97,4
2,64,0,236
2,64,97,4
2,64,0,236
2,64,97,4
2,64,0,476
2,65,97,4
2,65,0,476
2,67,97,4
2,67,0,476
2,69,97,4
2,69,0,236
2,67,97,4
2,67,0,236
2,65,97,4
2,65,0,236
2,64,97,4
2,64,0,2156
2,60,97,4
2,60,0,236
2,66,97,4
2,66,0,236
2,66,97,4
2,66,0,236
2,66,97,4
2,66,0,236
2,66,97,4
2,66,0,236
2,67,97,4
2,67,0,236
2,69,97,4
2,69,0,236
2,72,97,4
2,66,97,0
2,63,97,0
2,63,0,1196
2,66,0,0
2,72,0,0
2,71,97,4
2,63,97,0
2,59,97,0
2,71,0,476
2,67,97,4
2,67,0,476
2,59,0,0
2,63,0,0
2,64,97,4
2,59,97,0
