track,note,velocity,time
3,46,76,9015
3,46,0,91
3,45,78,5
3,45,0,94
3,43,82,2
3,43,0,95
3,41,70,1
3,41,0,190
3,36,70,2
3,36,0,186
3,41,94,6
3,41,0,157
3,36,76,35
3,36,0,55
3,41,76,41
3,41,0,39
3,36,66,9
3,36,0,46
3,39,90,2
3,39,0,173
3,34,82,19
3,34,0,142
3,34,82,50
3,34,0,116
3,34,68,28
3,34,0,46
3,38,82,2
3,38,0,90
3,39,78,6
3,41,86,96
3,39,0,1
3,41,0,163
3,36,78,28
3,36,0,162
3,41,74,30
3,41,0,156
3,36,76,36
3,36,0,77
3,41,82,19
3,41,0,94
3,39,86,2
3,39,0,189
3,34,82,3
3,34,0,125
3,39,64,19
3,39,0,47
3,34,78,1
3,34,0,110
3,34,72,34
3,34,0,46
3,33,74,2
3,33,0,95
3,31,78,1
3,31,0,94
3,29,86,2
3,29,0,147
3,36,68,45
3,36,0,131
3,41,90,61
3,41,0,349
3,34,82,35
3,34,0,137
3,29,86,55
3,29,0,134
3,34,74,58
3,34,0,186
3,38,74,6
3,38,0,87
3,39,82,9
3,39,0,95
3,41,82,1
3,41,0,189
3,36,68,3
3,36,0,167
3,41,78,25
3,41,0,173
3,36,72,19
3,36,0,166
3,34,94,26
3,34,0,159
3,29,78,33
3,29,0,159
3,34,76,33
3,34,0,178
3,29,78,14
3,29,0,179
3,41,98,13
3,41,0,166
3,36,74,26
3,36,0,173
3,41,78,19
3,41,0,189
3,36,74,3
3,36,0,172
3,34,86,20
3,34,0,156
3,29,78,36
3,29,0,181
3,34,90,11
3,34,0,149
3,38,76,43
3,38,0,66
3,39,66,30
3,39,0,70
3,41,72,26
3,41,0,144
3,36,72,48
3,36,0,136
3,41,82,56
3,41,0,147
3,36,72,45
3,36,0,136
3,34,70,56
3,34,0,119
3,29,78,73
3,29,0,137
3,34,86,55
3,34,0,131
3,33,66,61
3,33,0,63
3,31,74,33
3,31,0,67
3,29,76,29
3,29,0,141
3,36,78,51
3,36,0,138
3,29,76,54
3,29,0,140
3,36,72,52
3,36,0,151
3,34,82,41
3,34,0,128
3,29,76,64
3,29,0,152
3,34,72,40
3,34,0,128
3,46,64,64
3,46,0,222
3,34,82,66
3,34,0,2
3,29,90,1
3,29,0,137
3,36,70,55
3,36,0,178
3,41,90,14
3,41,0,179
3,36,72,13
3,36,0,77
3,41,90,19
3,41,0,47
3,36,56,1
3,36,0,47
3,39,94,1
3,39,0,186
3,34,86,6
3,34,0,98
3,34,86,46
3,34,0,22
3,34,94,26
3,34,0,174
3,38,74,18
3,38,0,84
3,39,76,12
3,39,0,92
3,41,86,4
3,41,0,172
3,36,74,20
3,36,0,125
3,41,90,67
3,41,0,179
3,36,66,13
3,36,0,81
3,41,86,15
3,41,0,46
3,36,60,2
3,36,0,48
3,39,94,0
3,39,0,165
3,34,76,27
3,34,0,153
3,34,76,39
3,34,0,165
3,33,78,27
3,33,0,92
3,31,74,4
3,31,0,95
3,29,66,1
3,29,0,157
3,36,74,35
3,36,0,188
3,41,78,4
3,41,0,183
3,36,72,9
3,36,0,118
3,36,64,26
3,36,0,46
3,34,82,2
3,34,0,185
3,29,76,7
3,29,0,185
3,34,78,7
3,34,0,181
3,33,76,11
3,33,0,85
3,31,76,11
3,31,0,95
3,29,74,1
3,29,0,182
3,36,76,10
3,36,0,191
3,41,94,1
3,41,0,369
3,34,82,15
3,34,0,164
3,29,90,28
3,29,0,148
3,34,78,44
3,34,0,179
3,29,82,13
3,29,0,152
3,33,90,40
3,33,0,69
3,31,86,27
3,31,0,64
3,29,94,32
3,29,0,140
3,36,78,52
3,36,0,145
3,34,82,47
3,34,0,140
3,29,82,52
3,29,0,137
3,34,82,55
3,34,0,142
3,29,78,50
3,29,0,149
3,34,76,43
3,34,0,139
3,33,90,53
3,33,0,77
3,31,82,19
3,31,0,94
3,29,78,2
3,29,0,162
3,36,78,30
3,36,0,155
3,41,82,37
3,41,0,148
3,36,78,44
3,36,0,140
3,34,94,52
3,34,0,125
3,29,76,67
3,29,0,165
3,34,102,27
3,34,0,154
3,38,78,38
3,38,0,63
3,39,90,33
3,39,0,73
3,41,90,23
3,41,0,146
3,36,76,46
3,36,0,145
3,41,86,47
3,41,0,142
3,36,74,50
3,36,0,140
3,34,90,52
3,34,0,147
3,29,74,45
3,29,0,155
3,34,74,37
3,34,0,147
3,29,76,45
3,29,0,139
3,41,90,53
3,41,0,154
3,36,72,38
3,36,0,150
3,41,82,42
3,41,0,140
3,36,74,52
3,36,0,156
3,34,72,36
3,34,0,141
3,29,68,51
3,29,0,156
3,34,82,36
3,34,0,143
3,38,86,49
3,38,0,73
3,39,76,23
3,39,0,62
3,41,86,34
3,41,0,142
3,36,72,50
3,36,0,139
3,41,86,53
3,41,0,140
3,36,74,52
3,36,0,147
3,34,86,45
3,34,0,127
3,29,74,65
3,29,0,140
3,34,76,52
3,34,0,157
3,33,78,35
3,33,0,59
3,31,82,37
3,31,0,55
3,29,76,41
3,29,0,151
3,36,76,41
3,36,0,134
3,41,86,58
3,41,0,152
3,36,72,40
3,36,0,154
3,34,82,38
3,34,0,130
3,29,72,62
3,29,0,146
3,34,94,46
3,34,0,151
3,46,66,41
3,46,0,245
3,34,90,43
3,34,0,2
3,29,76,3
3,29,0,147
3,36,78,45
3,36,0,131
3,41,90,61
3,41,0,145
3,36,64,47
3,36,0,72
3,41,82,24
3,41,0,45
3,36,56,3
3,36,0,45
3,39,82,3
3,39,0,147
3,34,98,45
3,34,0,144
3,34,86,48
3,34,0,147
3,38,72,45
3,38,0,62
3,39,90,34
3,39,0,65
3,41,86,31
3,41,0,167
3,36,70,25
3,36,0,184
3,41,86,8
3,41,0,140
3,36,72,52
3,36,0,70
3,41,90,26
3,41,0,34
3,36,56,14
3,36,0,44
3,39,90,4
3,39,0,153
3,34,82,39
3,34,0,145
3,34,78,47
3,34,0,146
3,33,78,46
3,33,0,87
3,31,74,9
3,31,0,77
3,29,82,19
3,29,0,168
3,36,78,24
3,36,0,152
3,41,90,40
3,41,0,144
3,36,70,48
3,36,0,146
3,34,74,46
3,34,0,191
3,29,76,1
3,29,0,166
3,34,76,26
3,34,0,161
3,33,82,31
3,33,0,67
3,31,90,29
3,31,0,66
3,29,74,30
3,29,0,158
3,36,76,34
3,36,0,130
3,41,86,62
3,41,0,330
3,34,86,54
3,34,0,148
3,29,76,44
3,29,0,115
3,29,76,29
3,29,0,47
3,34,94,1
3,34,0,190
3,29,78,2
3,29,0,172
3,33,76,20
3,33,0,60
3,31,94,36
3,31,0,78
3,29,90,18
3,29,0,168
3,36,76,24
3,36,0,134
3,34,94,58
3,34,0,151
3,29,76,41
3,29,0,153
3,34,78,39
3,34,0,138
3,29,78,54
3,29,0,152
3,34,76,40
3,34,0,151
3,33,74,41
3,33,0,75
3,31,78,21
3,31,0,73
3,29,74,23
3,36,78,192
3,29,0,1
3,36,0,147
3,41,82,44
3,41,0,172
3,36,70,20
3,36,0,80
3,39,74,16
3,39,0,42
3,41,78,6
3,41,0,47
3,34,76,1
3,34,0,13
3,29,76,0
3,29,0,17
3,29,76,31
3,29,0,40
3,34,82,0
3,34,0,13
3,29,78,35
3,29,0,10
3,33,76,0
3,33,0,22
3,31,90,26
3,31,0,26
3,29,82,22
3,29,0,7
3,36,76,41
3,36,0,5
3,34,94,0
3,34,0,9
3,29,74,39
3,29,0,12
3,34,78,36
3,34,0,34
3,29,74,48
3,29,0,1
3,34,82,0
3,34,0,48
3,33,76,0
3,33,0,23
3,31,86,0
3,31,0,20
3,29,76,28
3,29,0,5
3,36,76,43
3,36,0,16
3,41,82,0
3,41,0,46
3,36,74,48
3,36,0,34
3,39,94,0
3,39,0,47
3,41,76,1
3,41,0,35
4,70,88,753
4,65,88,0
4,58,88,0
4,63,88,0
4,46,88,0
4,53,88,0
4,53,0,66
4,65,0,0
4,58,0,0
4,70,0,0
4,46,0,0
4,63,0,0
4,53,88,30
4,65,88,0
4,58,88,0
4,63,88,0
4,46,88,0
4,46,0,66
4,58,0,0
4,53,0,0
4,65,0,0
4,63,0,0
4,53,88,30
4,58,88,0
4,70,88,0
4,46,88,0
4,63,88,0
4,65,88,0
4,65,0,66
4,58,0,0
4,70,0,0
4,53,0,0
4,63,0,0
4,46,0,0
4,63,88,30
4,53,88,0
4,65,88,0
4,46,88,0
4,70,88,0
4,58,88,0
4,58,0,66
4,53,0,0
4,65,0,0
4,63,0,0
4,70,0,0
4,46,0,0
4,46,88,30
4,65,88,0
4,58,88,0
4,62,88,0
4,53,88,0
4,70,88,0
4,70,0,66
4,65,0,0
4,58,0,0
4,46,0,0
4,53,0,0
4,62,0,0
4,65,88,30
4,58,88,0
4,53,88,0
4,62,88,0
4,46,88,0
4,46,0,66
4,53,0,0
4,65,0,0
4,58,0,0
4,62,0,0
4,70,88,30
4,58,88,0
4,53,88,0
4,65,88,0
4,46,88,0
4,62,88,0
4,62,0,66
4,58,0,0
4,53,0,0
4,70,0,0
4,46,0,0
4,65,0,0
4,70,88,30
4,53,88,0
4,46,88,0
4,58,88,0
4,65,88,0
4,63,88,0
4,63,0,66
4,53,0,0
4,46,0,0
4,70,0,0
4,65,0,0
4,58,0,0
4,53,88,30
4,46,88,0
4,70,88,0
4,65,88,0
4,63,88,0
4,58,88,0
4,58,0,66
4,46,0,0
4,70,0,0
4,53,0,0
4,63,0,0
4,65,0,0
4,63,101,30
4,53,101,0
4,60,101,0
4,48,101,0
4,69,101,0
4,69,0,66
4,60,0,0
4,63,0,0
4,53,0,0
4,48,0,0
4,60,117,30
4,63,117,0
4,48,117,0
4,69,117,0
4,53,117,0
4,53,0,66
4,48,0,0
4,60,0,0
4,63,0,0
4,69,0,0
4,69,91,30
4,48,91,0
4,60,91,0
4,53,91,0
4,63,91,0
4,63,0,66
4,60,0,0
4,69,0,0
4,48,0,0
4,53,0,0
4,60,119,30
4,69,119,0
4,63,119,0
4,53,119,0
4,48,119,0
4,48,0,66
4,63,0,0
4,60,0,0
4,69,0,0
4,53,0,0
4,63,97,30
4,69,97,0
4,53,97,0
4,60,97,0
4,48,97,0
4,48,0,66
4,53,0,0
4,63,0,0
4,69,0,0
4,60,0,0
4,63,119,30
4,69,119,0
4,60,119,0
4,53,119,0
4,48,119,0
4,48,0,66
4,60,0,0
4,63,0,0
4,69,0,0
4,53,0,0
4,48,91,30
4,53,91,0
4,60,91,0
4,63,91,0
4,69,91,0
4,69,0,66
4,60,0,0
4,48,0,0
4,53,0,0
4,63,0,0
4,60,121,30
4,48,121,0
4,53,121,0
4,69,121,0
4,63,121,0
4,63,0,66
4,53,0,0
4,60,0,0
4,48,0,0
4,69,0,0
4,58,91,30
4,46,91,0
4,53,91,0
4,70,91,0
4,62,91,0
4,62,0,66
4,53,0,0
4,58,0,0
4,46,0,0
4,70,0,0
4,70,121,30
4,53,121,0
4,46,121,0
4,62,121,0
4,58,121,0
4,58,0,66
4,46,0,0
4,70,0,0
4,53,0,0
4,62,0,0
4,70,91,30
4,62,91,0
4,58,91,0
4,53,91,0
4,46,91,0
4,46,0,66
4,58,0,0
4,70,0,0
4,62,0,0
4,53,0,0
4,46,117,30
4,62,117,0
4,70,117,0
4,53,117,0
4,58,117,0
4,58,0,66
4,70,0,0
4,46,0,0
4,62,0,0
4,53,0,0
4,58,97,30
4,46,97,0
4,70,97,0
4,62,97,0
4,53,97,0
4,53,0,66
4,70,0,0
4,58,0,0
4,46,0,0
4,62,0,0
4,46,117,30
4,62,117,0
4,58,117,0
4,70,117,0
4,53,117,0
4,53,0,66
4,58,0,0
4,46,0,0
4,62,0,0
4,70,0,0
4,53,95,30
4,70,95,0
4,62,95,0
4,46,95,0
4,58,95,0
4,58,0,66
4,62,0,0
4,53,0,0
4,70,0,0
4,46,0,0
4,53,119,30
4,62,119,0
4,70,119,0
4,46,119,0
4,58,119,0
4,58,0,66
4,70,0,0
4,53,0,0
4,62,0,0
4,46,0,0
4,48,93,30
4,63,93,0
4,69,93,0
4,60,93,0
4,53,93,0
4,53,0,66
4,69,0,0
4,48,0,0
4,63,0,0
4,60,0,0
4,60,114,30
4,69,114,0
4,63,114,0
4,53,114,0
4,48,114,0
4,48,0,66
4,63,0,0
4,60,0,0
4,69,0,0
4,53,0,0
4,48,93,30
4,53,93,0
4,63,93,0
4,60,93,0
4,69,93,0
4,69,0,66
4,63,0,0
4,48,0,0
4,53,0,0
4,60,0,0
4,69,119,30
4,63,119,0
4,48,119,0
4,53,119,0
4,60,119,0
4,60,0,66
4,48,0,0
4,69,0,0
4,63,0,0
4,53,0,0
4,60,99,30
4,48,99,0
4,69,99,0
4,63,99,0
4,53,99,0
4,53,0,66
4,69,0,0
4,60,0,0
4,48,0,0
4,63,0,0
4,53,85,30
4,69,85,0
4,63,85,0
4,48,85,0
4,60,85,0
4,60,0,66
4,63,0,0
4,53,0,0
4,69,0,0
4,48,0,0
4,63,104,30
4,60,104,0
4,69,104,0
4,48,104,0
4,53,104,0
4,53,0,66
4,69,0,0
4,63,0,0
4,60,0,0
4,48,0,0
4,69,117,30
4,60,117,0
4,63,117,0
4,53,117,0
4,53,0,66
4,69,0,0
4,60,0,0
4,63,0,0
4,58,101,30
4,53,101,0
4,46,101,0
4,62,101,0
4,70,101,0
4,70,0,66
4,46,0,0
4,58,0,0
4,53,0,0
4,62,0,0
4,70,117,30
4,58,117,0
4,46,117,0
4,62,117,0
4,53,117,0
4,53,0,66
4,46,0,0
4,70,0,0
4,58,0,0
4,62,0,0
4,46,101,30
4,58,101,0
4,53,101,0
4,62,101,0
4,62,0,66
4,46,0,0
4,58,0,0
4,53,0,0
4,58,117,30
4,62,117,0
4,70,117,0
4,53,117,0
4,46,117,0
4,46,0,66
4,70,0,0
4,58,0,0
4,62,0,0
4,53,0,0
4,58,104,30
4,62,104,0
4,53,104,0
4,46,104,0
4,70,104,0
4,70,0,66
4,53,0,0
4,58,0,0
4,62,0,0
4,46,0,0
4,46,119,30
4,58,119,0
4,70,119,0
4,53,119,0
4,62,119,0
4,62,0,66
4,70,0,0
4,46,0,0
4,58,0,0
4,53,0,0
4,46,104,30
4,70,104,0
4,62,104,0
4,58,104,0
4,53,104,0
4,53,0,66
4,62,0,0
4,46,0,0
4,70,0,0
4,58,0,0
4,58,119,30
4,70,119,0
4,62,119,0
4,53,119,0
4,46,119,0
4,46,0,66
4,62,0,0
4,58,0,0
4,70,0,0
4,53,0,0
4,53,104,30
4,63,104,0
4,48,104,0
4,60,104,0
4,69,104,0
4,69,0,66
4,48,0,0
4,53,0,0
4,63,0,0
4,60,0,0
4,69,117,30
4,60,117,0
4,48,117,0
4,53,117,0
4,63,117,0
4,63,0,66
4,48,0,0
4,69,0,0
4,60,0,0
4,53,0,0
4,48,101,30
4,63,101,0
4,53,101,0
4,60,101,0
4,69,101,0
4,69,0,66
4,53,0,0
4,48,0,0
4,63,0,0
4,60,0,0
4,69,119,30
4,60,119,0
4,48,119,0
4,63,119,0
4,53,119,0
4,53,0,66
4,48,0,0
4,69,0,0
4,60,0,0
4,63,0,0
4,53,95,30
4,60,95,0
4,69,95,0
4,63,95,0
4,48,95,0
4,48,0,66
4,69,0,0
4,53,0,0
4,60,0,0
4,63,0,0
4,48,121,30
4,69,121,0
4,63,121,0
4,53,121,0
4,60,121,0
4,60,0,66
4,63,0,0
4,48,0,0
4,69,0,0
4,53,0,0
4,60,104,30
4,53,104,0
4,48,104,0
4,69,104,0
4,63,104,0
4,63,0,66
4,48,0,0
4,60,0,0
4,53,0,0
4,69,0,0
4,60,117,30
4,48,117,0
4,69,117,0
4,63,117,0
4,53,117,0
4,53,0,66
4,69,0,0
4,60,0,0
4,48,0,0
4,63,0,0
4,53,99,30
4,70,99,0
4,58,99,0
4,46,99,0
4,62,99,0
4,62,0,66
4,58,0,0
4,53,0,0
4,70,0,0
4,46,0,0
4,70,117,30
4,46,117,0
4,53,117,0
4,62,117,0
