track,note,velocity,time
0,60,94,1092
0,53,75,0
0,60,64,0
0,69,59,2
0,72,75,0
0,77,67,0
0,41,82,0
0,60,91,2
0,48,82,192
0,69,98,4
0,72,98,0
0,55,76,0
0,69,100,0
0,69,92,4
0,72,98,0
0,57,92,0
0,69,96,0
0,60,89,8
0,57,82,192
0,55,82,176
0,53,96,160
0,41,99,8
0,48,103,188
0,70,82,0
0,74,83,0
0,58,112,2
0,55,83,0
0,70,96,0
0,70,95,4
0,74,98,0
0,57,96,0
0,70,90,4
0,74,94,0
0,58,112,0
0,60,99,0
0,70,101,0
0,69,98,0
0,72,98,0
0,57,112,2
0,57,89,0
0,69,89,0
0,67,86,0
0,70,86,0
0,55,112,2
0,55,85,0
0,67,100,0
0,65,79,0
0,69,86,0
0,53,112,2
0,53,96,0
0,65,89,0
0,67,94,0
0,70,95,0
0,62,96,2
0,74,85,0
0,38,92,0
0,50,92,0
0,67,104,2
0,57,92,168
0,69,107,0
0,72,98,0
0,53,92,2
0,69,100,0
0,65,86,0
0,69,107,0
0,65,104,2
0,65,89,0
0,38,81,12
0,50,91,0
0,57,96,192
0,53,79,20
0,62,99,8
0,38,92,68
0,50,92,0
0,57,92,192
0,70,99,0
0,74,98,0
0,58,112,2
0,53,92,0
0,70,101,0
0,70,99,4
0,74,98,0
0,62,89,0
0,70,95,4
0,74,98,0
0,58,112,0
0,38,85,0
0,50,93,2
0,70,101,0
0,69,98,0
0,72,86,0
0,57,112,2
0,57,96,0
0,69,96,0
0,67,90,0
0,70,90,0
0,55,109,2
0,53,79,0
0,67,100,0
0,65,79,2
0,69,90,0
0,53,112,0
0,62,99,2
0,65,85,0
0,67,98,0
0,70,90,0
0,58,112,0
0,70,96,2
0,74,96,0
0,38,115,0
0,50,115,0
0,67,100,0
0,58,95,180
0,69,107,0
0,72,86,0
0,53,99,2
0,69,92,0
0,65,94,0
0,69,111,0
0,58,95,2
0,65,108,0
0,57,112,56
0,69,92,0
0,72,100,0
0,36,120,2
0,48,120,0
0,57,103,164
0,53,103,16
0,57,96,56
0,57,107,0
0,70,99,0
0,74,102,0
0,55,112,2
0,65,92,0
0,70,88,0
0,74,92,0
0,34,112,0
0,46,112,0
0,58,104,0
0,58,103,180
0,74,102,4
0,77,98,0
0,53,103,0
0,67,100,0
0,74,102,4
0,77,98,0
0,58,99,0
0,67,104,0
0,34,112,56
0,46,112,0
0,58,103,176
0,53,103,192
0,57,91,12
0,58,99,0
0,70,95,0
0,74,102,0
0,60,104,2
0,36,99,0
0,48,99,0
0,58,100,0
0,58,103,172
0,74,98,4
0,77,98,0
0,55,96,0
0,65,92,0
0,74,102,4
0,77,98,0
0,77,100,0
0,58,99,0
0,65,104,0
0,53,108,76
0,58,108,60
0,67,108,0
0,72,102,0
0,76,94,0
0,67,89,2
0,72,92,0
0,76,92,0
0,55,99,0
0,58,103,12
0,60,94,0
0,53,75,0
0,60,64,2
0,69,59,0
0,72,75,0
0,77,67,0
0,60,72,0
0,41,82,0
0,60,100,0
0,48,82,186
0,69,98,4
0,72,98,0
0,77,89,0
0,81,96,2
0,55,76,0
0,69,72,2
0,69,102,4
0,72,98,0
0,77,96,0
0,81,100,0
0,57,92,0
0,69,68,2
0,60,89,8
0,58,112,192
0,58,82,0
0,57,112,176
0,57,82,0
0,55,112,160
0,55,96,0
0,53,112,4
0,41,99,0
0,48,103,156
0,70,82,0
0,74,83,0
0,58,101,2
0,70,68,0
0,55,83,0
0,70,95,4
0,74,98,0
0,70,68,0
0,57,96,0
0,70,90,4
0,74,94,0
0,58,103,0
0,60,99,0
0,70,73,2
0,69,98,0
0,72,98,0
0,57,112,2
0,57,89,0
0,69,61,2
0,67,86,0
0,70,86,0
0,55,101,2
0,67,72,0
0,55,85,0
0,65,79,0
0,69,86,0
0,53,103,0
0,53,96,2
0,65,61,0
0,67,94,0
0,70,95,0
0,62,96,2
0,74,85,0
0,38,92,0
0,50,92,0
0,67,74,2
0,57,92,168
0,69,107,0
0,72,98,0
0,69,72,2
0,53,92,0
0,65,86,0
0,69,107,0
0,65,74,2
0,65,89,0
0,38,81,12
0,50,91,0
0,55,112,192
0,57,96,0
0,53,112,20
0,53,79,0
0,52,112,8
0,62,99,0
0,50,112,68
0,38,92,0
0,50,92,2
0,57,92,188
0,70,99,2
0,74,98,0
0,58,112,0
0,70,73,2
0,53,92,0
0,70,99,4
0,74,98,0
0,70,73,0
0,62,89,0
0,70,95,4
0,74,98,0
0,58,96,0
0,38,85,0
0,50,93,0
0,70,73,2
0,69,98,0
0,72,86,0
0,57,109,2
0,60,96,0
0,57,96,0
0,69,68,2
0,67,90,0
0,70,90,0
0,55,88,2
0,58,96,0
0,53,79,0
0,67,72,2
0,65,79,0
0,69,90,0
0,53,104,2
0,57,100,0
0,62,99,0
0,65,57,0
0,67,98,0
0,70,90,0
0,58,101,2
0,70,96,0
0,74,96,0
0,38,115,0
0,67,72,0
0,50,115,0
0,58,95,180
0,69,107,0
0,72,86,0
0,69,64,2
0,53,99,0
0,65,94,0
0,69,111,0
0,58,95,0
0,65,74,2
0,57,96,24
0,69,92,0
0,72,100,0
0,36,120,2
0,48,120,0
0,57,103,176
0,53,103,16
0,57,61,56
0,57,107,0
0,70,99,0
0,74,102,0
0,55,112,2
0,65,92,0
0,70,88,0
0,74,92,0
0,58,64,2
0,34,112,0
0,46,112,0
0,58,103,180
0,74,102,4
0,77,98,0
0,67,72,0
0,53,103,0
0,74,102,4
0,77,98,0
0,67,74,0
0,58,99,0
0,34,112,56
0,46,112,0
0,69,112,176
0,58,103,0
0,67,112,192
0,53,103,0
0,65,112,4
0,58,99,0
0,57,44,2
0,70,95,0
0,74,102,0
0,60,112,2
0,67,108,0
0,34,99,0
0,48,99,0
0,58,56,0
0,60,103,172
0,74,98,4
0,77,98,0
0,65,64,0
0,55,96,0
0,74,102,4
0,77,98,0
0,77,100,0
0,58,99,0
0,65,74,2
0,53,108,76
0,67,74,60
0,58,108,0
0,76,102,0
0,79,94,0
0,67,89,2
0,76,92,0
0,79,92,0
0,55,99,2
0,58,103,12
0,56,98,8
0,60,82,0
0,63,77,0
0,67,82,0
0,79,78,2
0,84,92,0
0,91,66,0
0,32,103,0
0,60,60,2
0,44,111,0
0,55,96,188
0,67,52,32
0,60,99,0
0,67,52,24
0,63,91,0
0,67,99,192
0,63,91,96
0,60,92,192
0,34,108,124
0,46,108,0
0,55,111,0
0,58,61,36
0,62,85,0
0,65,67,0
0,82,77,0
0,86,82,0
0,58,99,168
0,62,76,192
0,65,96,192
0,62,92,144
0,58,77,192
0,65,44,24
0,53,96,0
0,37,79,128
0,37,75,340
0,37,75,364
0,37,75,364
0,53,83,80
0,57,79,0
0,60,78,0
0,35,100,4
0,46,40,0
0,70,68,0
0,49,85,2
0,29,84,2
0,42,55,170
0,70,44,0
0,37,91,172
0,46,45,0
0,70,68,0
0,37,40,76
0,35,96,76
0,37,38,0
0,42,50,0
0,70,47,2
0,36,81,0
0,46,58,170
0,70,68,0
0,37,96,172
0,42,50,0
0,70,59,0
0,37,40,76
0,37,38,68
0,46,53,0
0,70,68,0
0,36,95,4
0,42,50,172
0,70,51,0
0,35,100,16
0,46,53,0
0,70,68,0
0,29,95,4
0,77,72,0
0,42,55,172
0,70,59,0
0,37,100,172
0,46,53,0
0,70,68,0
0,37,40,76
0,35,100,76
0,37,38,0
0,42,50,0
0,70,55,2
0,36,91,2
0,46,58,170
0,70,68,0
0,37,96,172
0,42,50,0
0,70,55,0
0,84,66,4
0,37,40,76
0,37,38,60
0,46,58,0
0,70,68,0
0,36,95,4
0,42,59,172
0,70,68,0
0,35,100,28
0,46,40,0
0,70,68,0
0,29,95,4
0,42,55,172
0,70,44,0
0,65,79,48
0,69,82,0
0,37,91,124
0,46,45,0
0,70,68,0
0,37,40,76
0,67,90,0
0,70,86,0
0,35,96,12
0,37,38,0
0,42,50,0
0,70,47,2
0,36,88,2
0,46,58,0
0,70,68,0
0,69,98,0
0,72,86,0
0,37,96,172
0,42,50,0
0,70,59,0
0,69,86,4
0,72,82,0
0,37,40,26
0,37,38,64
0,46,53,0
0,70,68,0
0,36,95,4
0,69,90,4
0,72,90,0
0,42,50,58
0,70,51,0
0,35,100,16
0,46,53,0
0,70,68,0
0,69,98,2
0,72,98,0
0,29,91,0
0,42,55,172
0,70,59,0
0,67,90,0
0,70,82,0
0,37,100,124
0,46,53,0
0,70,68,0
0,37,40,76
0,67,98,4
0,70,86,0
0,35,100,58
0,37,38,0
0,42,50,0
0,70,55,2
0,36,88,2
0,46,58,0
0,70,68,0
0,67,98,2
0,70,86,0
0,37,96,172
0,42,50,0
0,70,55,0
0,65,82,0
0,69,86,0
0,37,40,28
0,37,38,32
0,46,58,0
0,70,68,0
0,36,84,4
0,65,90,4
0,69,94,0
0,42,59,58
0,70,68,0
0,35,100,80
0,46,40,0
0,70,68,0
0,65,90,2
0,69,98,0
0,29,84,0
0,42,55,96
0,70,44,0
0,64,86,0
0,67,90,0
0,37,91,28
0,46,45,0
0,70,68,0
0,37,40,76
0,64,90,4
0,67,82,0
0,35,96,58
0,37,38,0
0,42,50,0
0,70,47,0
0,36,81,0
0,46,58,0
0,70,68,0
0,62,86,0
0,65,94,0
0,37,96,172
0,42,50,0
0,70,59,0
0,60,86,0
0,64,82,0
0,37,40,28
0,37,38,68
0,46,53,0
0,70,68,0
0,36,95,4
0,58,82,0
0,62,90,0
0,42,50,60
0,70,51,0
0,35,100,16
0,46,53,0
0,70,68,0
0,57,86,0
0,60,86,0
0,29,95,2
0,42,55,172
0,70,59,0
0,37,100,172
0,46,53,0
0,70,68,0
0,37,40,76
0,35,100,76
0,37,38,0
0,42,50,0
0,70,55,2
0,36,91,2
0,46,58,170
0,70,68,0
0,37,96,172
0,42,50,0
0,70,55,0
0,37,40,76
0,37,38,60
0,46,58,0
0,70,68,0
0,36,95,4
0,42,59,172
0,70,68,0
0,35,100,28
0,46,40,0
0,70,68,0
0,29,95,4
0,42,55,172
0,70,44,0
0,37,91,172
0,46,45,0
0,70,68,0
0,37,40,76
0,35,96,12
0,37,38,0
0,42,50,0
0,70,47,2
0,36,88,2
0,46,58,170
0,70,68,0
0,37,96,172
0,42,50,0
0,70,59,0
0,37,40,76
0,37,38,64
0,46,53,0
0,70,68,0
0,36,95,4
0,42,50,172
0,70,51,0
0,35,100,16
0,46,53,0
0,70,68,0
0,53,38,0
0,57,40,0
0,60,38,2
0,29,95,0
0,42,55,172
0,70,59,0
0,37,100,172
0,46,53,0
0,70,68,0
0,37,40,76
0,35,100,12
0,37,38,0
0,42,50,0
0,70,55,2
0,36,88,2
0,46,58,170
0,70,68,0
0,37,96,172
0,42,50,0
0,70,55,0
0,37,40,76
0,37,38,64
0,46,58,0
0,70,68,0
0,36,95,4
0,42,59,172
0,70,68,0
0,65,54,4
0,69,55,0
0,72,56,0
0,35,100,16
0,46,40,0
0,70,68,0
0,29,95,4
0,42,55,172
0,70,44,0
0,72,36,4
0,37,91,172
0,46,45,0
0,70,68,0
0,37,40,76
0,35,96,12
0,37,38,0
0,42,50,0
0,70,47,0
0,36,88,4
0,46,58,172
0,70,68,0
0,37,96,172
0,42,50,0
0,70,59,0
0,37,40,76
0,37,38,64
0,46,53,0
0,70,68,0
0,36,95,4
0,42,50,172
0,70,51,0
0,35,100,16
0,46,53,0
0,70,68,0
0,29,95,4
0,42,55,172
0,70,59,0
0,37,100,172
0,46,53,0
0,70,68,0
0,37,40,76
0,35,100,12
0,37,38,0
0,42,50,0
0,70,55,0
0,36,88,4
0,46,58,172
0,70,68,0
0,37,96,172
0,42,50,0
0,70,55,0
0,37,40,76
0,37,38,64
0,46,58,0
0,70,68,0
0,36,95,4
0,42,59,88
0,70,68,0
0,35,100,16
0,46,40,0
0,70,68,0
0,29,95,4
0,42,55,120
0,70,44,0
0,37,91,172
0,46,45,0
0,70,68,0
0,58,65,4
0,70,49,0
0,37,40,76
0,35,96,12
0,37,38,0
0,42,50,0
0,70,47,0
0,36,88,4
0,46,58,172
0,70,68,0
0,37,96,172
0,42,50,0
0,70,59,0
0,37,40,76
0,37,38,4
0,46,53,0
0,70,68,0
0,57,48,4
0,69,44,0
0,36,95,0
0,42,50,4
0,70,51,0
0,55,64,4
0,67,70,0
0,35,100,0
0,46,53,0
0,70,68,0
0,58,80,2
0,70,88,0
0,29,95,0
0,67,98,0
0,70,95,2
0,42,55,172
0,70,59,0
0,37,100,172
0,46,53,0
0,70,68,0
0,37,40,76
0,35,100,12
0,37,38,0
0,42,50,0
0,70,55,0
0,65,94,0
0,69,103,0
0,57,59,2
0,69,85,0
0,36,88,0
0,46,58,170
0,70,68,0
0,37,96,172
0,42,50,0
0,70,55,0
0,37,40,76
0,37,38,64
0,46,58,0
0,70,68,0
0,36,95,4
0,42,59,172
0,70,68,0
0,35,100,16
0,46,40,0
0,70,68,0
0,64,98,2
0,67,98,0
0,36,95,0
0,55,64,2
0,67,92,0
0,60,47,0
0,64,66,0
0,67,62,0
0,42,55,172
0,70,44,0
0,37,91,172
0,46,45,0
0,70,68,0
0,37,40,76
0,35,96,12
0,37,38,0
0,42,50,0
0,70,47,0
0,43,88,4
0,46,58,172
0,70,68,0
0,37,96,172
0,42,50,0
0,70,59,0
0,37,40,76
0,37,38,64
0,46,53,0
0,70,68,0
0,31,95,4
0,42,50,0
0,70,51,0
0,60,98,0
0,64,98,0
0,62,94,0
0,65,72,0
0,35,100,16
0,46,53,0
0,70,68,0
0,60,98,0
0,64,98,0
0,36,95,2
0,42,55,64
0,70,59,0
0,37,100,172
0,46,53,0
0,70,68,0
0,37,40,76
0,35,100,12
0,37,38,0
0,42,50,0
0,70,55,0
0,43,88,4
0,46,58,172
0,70,68,0
0,37,96,172
0,42,50,0
0,70,55,0
0,37,40,76
0,37,38,64
0,46,58,0
0,70,68,0
0,31,95,4
0,42,59,172
0,70,68,0
0,35,100,16
0,46,40,0
0,70,68,0
0,36,95,4
0,42,55,172
0,70,44,0
0,37,91,172
0,46,45,0
0,70,68,0
0,37,40,76
0,35,96,12
0,37,38,0
0,42,50,0
0,70,47,0
0,43,88,4
0,46,58,172
0,70,68,0
0,37,96,172
0,42,50,0
0,70,59,0
0,37,40,76
0,37,38,64
0,46,53,0
0,70,68,0
0,31,95,4
0,42,50,172
0,70,51,0
0,35,100,16
0,46,53,0
0,70,68,0
0,60,44,4
0,64,44,0
0,36,95,0
0,72,57,2
0,84,60,0
0,42,55,172
0,70,59,0
0,37,100,172
0,46,53,0
0,70,68,0
0,37,40,76
0,35,100,12
0,37,38,0
0,42,50,0
0,70,55,0
0,58,75,4
0,62,75,0
0,43,88,0
0,46,58,172
0,70,68,0
0,37,96,8
0,42,50,0
0,70,55,0
0,37,40,76
0,37,38,64
0,46,58,0
0,70,68,0
0,55,34,4
0,58,34,0
0,31,95,0
0,42,59,172
0,70,68,0
0,65,52,8
0,60,46,0
0,35,100,16
0,46,40,0
0,70,68,0
0,57,39,2
0,53,54,2
0,57,54,0
0,29,95,0
0,60,54,2
0,42,55,172
0,70,44,0
0,37,91,172
0,46,45,0
0,70,68,0
0,37,40,76
0,35,96,12
0,37,38,0
0,42,50,0
0,70,47,2
0,36,88,2
0,46,58,170
0,70,68,0
0,37,96,172
0,42,50,0
0,70,59,0
0,37,40,76
0,37,38,64
0,46,53,0
0,70,68,0
0,36,95,4
0,42,50,0
0,70,51,0
0,65,68,0
0,69,79,0
0,67,68,0
0,70,68,0
0,35,100,16
0,46,53,0
0,70,68,0
0,69,79,0
0,72,86,0
0,29,95,2
0,42,55,172
0,70,59,0
0,69,94,4
0,72,94,0
0,37,100,122
0,46,53,0
0,70,68,0
0,37,40,76
0,69,90,4
0,72,98,0
0,35,100,12
0,37,38,0
0,42,50,0
0,70,55,2
0,36,88,2
0,46,58,0
0,70,68,0
0,69,98,4
0,72,90,0
0,37,96,172
0,42,50,0
0,70,55,0
