track,note,velocity,time
1,38,127,4
1,38,0,64
1,36,127,129
1,36,0,650
1,36,107,50
1,36,0,28
1,31,113,2
1,31,0,28
1,33,122,3
1,33,0,26
1,33,107,34
1,33,0,38
1,33,67,6
1,33,0,54
1,34,127,25
1,46,127,129
1,34,0,4
1,46,0,21
1,33,104,91
1,33,0,52
1,34,109,14
1,34,0,14
1,34,125,46
1,34,0,19
1,34,112,40
1,34,0,52
1,36,127,8
1,36,0,114
1,48,127,5
1,48,0,16
1,36,126,103
1,36,0,60
1,38,117,2
1,36,84,55
1,38,0,10
1,36,0,46
1,33,98,3
1,33,0,20
1,33,119,38
1,33,0,55
1,36,116,3
1,36,0,15
1,36,121,44
1,36,0,54
1,33,121,3
1,36,108,64
1,33,0,1
1,36,0,34
1,38,127,24
1,38,0,62
1,36,103,0
1,36,0,53
1,33,96,4
1,33,0,22
1,33,81,40
1,33,0,56
1,36,103,3
1,36,0,17
1,36,109,47
1,36,0,53
1,33,106,0
1,33,0,55
1,36,116,7
1,36,0,26
1,38,127,34
1,36,98,62
1,38,0,3
1,36,0,52
1,33,107,1
1,33,0,22
1,33,110,40
1,33,0,55
1,36,116,4
1,36,0,18
1,36,100,43
1,36,0,55
1,33,111,4
1,33,0,57
1,36,121,7
1,36,0,26
1,38,127,34
1,36,108,61
1,38,0,6
1,36,0,45
1,33,113,7
1,33,0,20
1,33,116,40
1,33,0,53
1,36,126,4
1,36,0,16
1,36,124,45
1,36,0,52
1,33,119,6
1,33,0,58
1,36,110,7
1,36,0,22
1,38,127,37
1,36,105,59
1,38,0,10
1,36,0,39
1,33,114,9
1,33,0,20
1,33,119,43
1,33,0,51
1,36,119,6
1,36,0,20
1,36,126,43
1,36,0,52
1,33,116,7
1,33,0,55
1,36,122,9
1,36,0,43
1,38,127,15
1,38,0,57
1,36,121,3
1,36,0,49
1,33,109,6
1,33,0,19
1,33,116,38
1,33,0,54
1,36,121,9
1,36,0,19
1,36,122,45
1,36,0,52
1,33,121,2
1,33,0,60
1,36,116,8
1,36,0,32
1,38,127,24
1,38,0,61
1,36,114,2
1,36,0,50
1,33,114,8
1,33,0,20
1,33,117,40
1,33,0,52
1,36,124,5
1,36,0,19
1,36,124,45
1,36,0,54
1,33,117,2
1,33,0,51
1,36,121,11
1,36,0,31
1,38,127,29
1,38,0,51
1,36,119,10
1,36,0,48
1,33,119,10
1,33,0,23
1,33,119,40
1,33,0,50
1,36,113,6
1,36,0,19
1,36,124,47
1,36,0,51
1,33,114,6
1,33,0,55
1,36,113,7
1,36,0,26
1,38,127,35
1,38,0,51
1,36,100,7
1,36,0,52
1,33,114,7
1,33,0,26
1,33,103,33
1,33,0,52
1,36,127,7
1,36,0,21
1,36,121,41
1,36,0,50
1,33,119,6
1,33,0,44
1,36,124,23
1,36,0,34
1,38,127,24
1,38,0,56
1,36,116,5
1,36,0,47
1,33,116,11
1,33,0,23
1,33,119,37
1,33,0,53
1,36,124,3
1,36,0,20
1,36,126,44
1,36,0,53
1,33,117,3
1,33,0,51
1,36,121,12
1,36,0,31
1,38,127,28
1,38,0,50
1,36,113,14
1,36,0,49
1,33,117,7
1,33,0,25
1,33,119,34
1,33,0,48
1,36,122,6
1,36,0,22
1,36,122,44
1,36,0,50
1,33,121,6
1,33,0,55
1,36,110,9
1,36,0,27
1,38,126,35
1,38,0,53
1,36,119,9
1,36,0,52
1,33,117,3
1,33,0,22
1,33,116,40
1,33,0,54
1,36,119,6
1,36,0,19
1,36,114,40
1,36,0,53
1,33,116,4
1,33,0,55
1,36,113,9
1,36,0,26
1,38,127,35
1,38,0,59
1,36,109,3
1,36,0,50
1,33,110,5
1,33,0,22
1,33,76,43
1,33,0,49
1,36,117,9
1,36,0,19
1,36,119,45
1,36,0,55
1,33,119,5
1,33,0,53
1,36,110,7
1,36,0,28
1,38,126,30
1,38,0,55
1,36,110,6
1,36,0,47
1,33,121,9
1,33,0,24
1,33,109,32
1,33,0,48
1,36,119,11
1,36,0,21
1,36,122,46
1,36,0,51
1,33,117,7
1,33,0,44
1,36,126,19
1,36,0,32
1,38,127,31
1,38,0,59
1,36,114,2
1,36,0,50
1,33,117,8
1,33,0,20
1,33,117,38
1,33,0,46
1,36,124,9
1,36,0,20
1,36,124,45
1,36,0,54
1,33,109,5
1,33,0,51
1,36,117,11
1,36,0,26
1,38,127,31
1,38,0,58
1,36,119,5
1,36,0,39
1,33,119,19
1,33,0,17
1,33,117,43
1,33,0,53
1,36,119,4
1,36,0,21
1,36,122,41
1,36,0,52
1,33,121,3
1,33,0,56
1,36,114,6
1,36,0,27
1,38,127,33
1,36,122,63
1,38,0,2
1,36,0,28
1,33,119,26
1,33,0,19
1,33,121,41
1,33,0,58
1,36,117,5
1,36,0,22
1,36,122,38
1,36,0,54
1,33,119,2
1,33,0,58
1,36,121,5
1,36,0,28
1,38,127,33
1,36,121,58
1,38,0,2
1,36,0,49
1,33,117,8
1,33,0,22
1,33,111,37
1,33,0,51
1,36,117,5
1,36,0,21
1,36,117,45
1,36,0,51
1,33,111,4
1,33,0,57
1,36,124,12
1,36,0,27
1,38,127,36
1,38,0,51
1,36,111,7
1,36,0,48
1,33,108,10
1,33,0,22
1,33,119,39
1,33,0,53
1,36,117,6
1,36,0,17
1,36,119,45
1,36,0,51
1,33,119,5
1,33,0,54
1,36,113,8
1,36,0,21
1,38,127,41
1,38,0,53
1,36,127,7
1,36,0,52
1,33,119,2
1,33,0,21
1,33,117,43
1,33,0,49
1,36,117,7
1,36,0,15
1,36,127,50
1,36,0,56
1,33,119,4
1,33,0,59
1,36,114,5
1,36,0,44
1,34,112,18
1,34,0,19
1,34,114,42
1,34,0,57
1,31,117,0
1,29,110,57
1,31,0,2
1,29,0,51
1,34,122,5
1,34,0,18
1,34,122,41
1,34,0,56
1,31,127,2
1,29,106,61
1,31,0,2
1,29,0,54
1,36,113,5
1,36,0,19
1,36,122,46
1,33,121,57
1,36,0,1
1,31,105,56
1,33,0,2
1,31,0,53
1,36,126,6
1,36,0,22
1,36,124,39
1,36,0,55
1,33,127,3
1,31,113,62
1,33,0,4
1,31,0,51
1,34,112,2
1,34,0,22
1,34,109,43
1,31,122,57
1,34,0,1
1,29,110,57
1,31,0,3
1,29,0,52
1,34,119,6
1,34,0,18
1,34,122,40
1,34,0,54
1,31,126,2
1,31,0,65
1,29,113,2
1,29,0,55
1,36,126,5
1,36,0,24
1,36,126,41
1,36,0,56
1,33,127,3
1,33,0,59
1,31,114,1
1,31,0,55
1,36,126,4
1,36,0,20
1,36,124,43
1,36,0,54
1,33,124,1
1,33,0,60
1,31,105,0
1,31,0,58
1,34,127,2
1,34,0,22
1,34,122,42
1,31,116,53
1,34,0,1
1,31,0,56
1,29,109,0
1,29,0,58
1,34,122,5
1,34,0,15
1,34,122,48
1,31,113,55
1,34,0,6
1,31,0,60
1,29,111,0
1,29,0,54
1,33,127,6
1,33,0,19
1,33,127,42
1,33,0,52
1,31,121,5
1,31,0,60
1,28,116,0
1,28,0,56
1,33,126,7
1,33,0,19
1,33,127,43
1,31,124,50
1,33,0,5
1,31,0,57
1,28,114,1
1,28,0,53
1,38,127,11
1,38,0,22
1,38,109,39
1,38,0,54
1,36,111,0
1,36,0,58
1,33,121,1
1,33,0,56
1,36,127,4
1,36,0,19
1,36,121,43
1,33,111,60
1,36,0,1
1,31,114,0
1,31,0,21
1,36,127,36
1,33,0,9
1,36,0,50
1,38,121,3
1,38,0,57
1,36,113,7
1,36,0,53
1,33,116,5
1,33,0,20
1,33,117,44
1,36,127,55
1,33,0,1
1,36,0,22
1,36,127,40
1,36,0,55
1,33,126,3
1,33,0,59
1,36,124,5
1,36,0,34
1,38,124,23
1,38,0,24
1,38,109,37
1,36,116,57
1,38,0,5
1,33,116,54
1,36,0,5
1,33,0,56
1,38,127,1
1,38,0,29
1,38,119,31
1,38,0,57
1,36,119,0
1,36,0,62
1,33,108,0
1,33,0,59
1,36,122,2
1,36,0,27
1,36,121,35
1,33,114,56
1,36,0,3
1,31,119,55
1,33,0,1
1,31,0,59
1,36,127,2
1,36,0,27
1,36,124,36
1,33,119,60
1,36,0,20
1,31,119,40
1,33,0,2
1,31,0,55
1,34,127,0
1,34,0,25
1,34,112,37
1,31,121,56
1,34,0,3
1,31,0,60
1,29,103,1
1,34,125,58
1,29,0,5
1,34,0,18
1,34,109,39
1,34,0,52
1,31,114,6
1,31,0,66
1,29,114,0
1,29,0,57
1,33,127,0
1,33,0,26
1,33,122,35
1,33,0,51
1,31,119,4
1,31,0,61
1,29,116,0
1,29,0,60
1,33,127,1
1,33,0,29
1,33,127,32
1,33,0,55
1,31,126,1
1,31,0,61
1,29,111,4
1,29,0,56
1,31,127,4
1,31,0,29
1,31,124,37
1,31,0,55
1,29,127,0
1,29,0,59
1,26,127,3
1,26,0,55
1,31,127,7
1,31,0,27
1,31,127,36
1,31,0,41
1,33,111,19
1,33,0,31
1,34,122,28
1,34,0,25
1,34,112,32
1,34,0,40
1,34,104,20
1,31,117,55
1,34,0,35
1,31,0,13
1,29,107,8
1,29,0,55
1,36,127,7
1,36,0,26
1,36,117,35
1,36,0,54
1,33,124,3
1,33,0,57
1,36,126,5
1,36,0,33
1,38,126,30
1,38,0,53
1,36,109,10
1,36,0,49
1,33,116,6
1,33,0,27
1,33,95,43
1,36,127,50
1,33,0,3
1,36,0,25
1,36,126,33
1,36,0,52
1,33,116,1
1,33,0,61
1,36,126,2
1,36,0,32
1,38,127,32
1,38,0,55
1,36,119,8
1,33,116,55
1,36,0,2
1,33,0,29
1,33,119,32
1,36,127,56
1,33,0,10
1,36,0,16
1,36,126,36
1,36,0,54
1,33,119,3
1,33,0,58
1,36,124,5
1,36,0,40
1,38,122,22
1,38,0,58
1,36,114,1
1,36,0,45
1,33,121,10
1,33,0,28
1,33,117,42
1,33,0,53
1,36,127,4
1,36,0,27
1,36,122,31
1,36,0,54
1,33,126,4
1,33,0,58
1,36,126,3
1,36,0,35
1,38,124,26
1,38,0,51
1,36,108,6
1,36,0,52
1,33,116,7
1,33,0,23
1,33,107,42
1,33,0,56
1,36,126,5
1,36,0,16
1,36,124,46
1,36,0,53
1,33,114,4
1,33,0,58
1,36,126,2
1,36,0,27
1,38,126,35
1,38,0,54
1,36,111,5
1,36,0,48
1,33,114,11
1,33,0,19
1,33,114,45
1,33,0,57
1,36,124,1
1,36,0,18
1,36,124,44
1,36,0,51
1,33,121,3
1,33,0,54
1,36,113,6
1,36,0,19
1,38,126,41
1,38,0,60
1,36,98,5
1,36,0,48
1,33,113,10
1,33,0,21
1,33,110,40
1,33,0,49
1,36,121,3
1,36,0,24
1,36,122,40
1,36,0,54
1,33,116,4
1,33,0,58
1,36,122,7
1,36,0,22
1,38,122,39
1,38,0,53
1,36,100,7
1,36,0,46
1,33,106,11
1,33,0,25
1,33,121,40
1,33,0,49
1,36,127,5
1,36,0,56
1,36,77,16
1,36,0,6
1,33,114,3
1,33,0,36
1,33,84,24
1,33,0,43
1,36,126,5
1,36,0,45
1,38,117,8
1,38,0,48
1,36,114,14
1,36,0,43
1,33,100,15
1,33,0,20
1,33,111,44
1,33,0,48
1,36,127,6
1,36,0,25
1,36,127,39
1,36,0,58
1,33,119,1
1,33,0,59
1,36,127,2
1,36,0,22
1,38,127,40
1,36,106,57
1,38,0,3
1,36,0,45
1,33,113,9
1,33,0,27
1,33,111,36
1,33,0,55
1,36,127,1
1,36,0,15
1,36,126,50
1,36,0,60
1,33,114,1
1,33,0,52
1,36,121,6
1,36,0,21
1,38,124,39
1,38,0,52
1,36,107,9
1,36,0,47
1,33,113,11
1,33,0,22
1,33,114,38
1,33,0,52
1,36,127,0
1,36,0,22
1,36,127,44
1,36,0,59
1,33,117,4
1,33,0,58
1,36,124,3
1,36,0,29
1,38,127,33
1,38,0,51
1,36,103,10
1,36,0,43
1,33,107,19
1,33,0,22
1,33,109,35
1,33,0,57
1,36,122,1
1,36,0,19
1,36,124,42
1,36,0,29
1,33,113,28
1,33,0,55
1,36,122,6
1,36,0,21
1,38,126,42
1,38,0,51
1,36,102,9
1,36,0,49
1,33,116,8
1,33,0,27
1,33,114,37
1,33,0,50
1,36,124,8
1,36,0,15
1,36,122,46
1,36,0,51
1,33,117,7
1,33,0,57
1,36,121,3
1,36,0,24
1,38,126,38
1,38,0,49
1,36,107,10
1,36,0,30
1,33,98,30
1,33,0,36
1,33,106,29
1,33,0,45
1,36,126,11
1,36,0,17
1,36,122,40
1,36,0,42
1,33,121,14
1,33,0,56
1,36,124,8
1,36,0,19
1,38,122,40
1,38,0,49
1,36,103,9
1,36,0,45
1,33,117,11
1,33,0,32
1,33,109,35
1,33,0,52
1,36,127,4
1,36,0,21
1,36,121,40
1,36,0,45
1,33,116,12
1,33,0,56
1,36,126,9
1,36,0,22
1,38,119,37
1,38,0,49
1,36,76,11
1,36,0,44
1,33,104,11
1,33,0,34
1,33,109,35
1,36,114,54
1,33,0,3
1,36,0,20
1,36,121,39
1,36,0,48
1,33,113,9
1,33,0,59
1,36,127,2
1,36,0,22
1,38,126,37
1,38,0,40
1,36,107,23
1,36,0,49
1,33,113,2
1,33,0,29
1,33,114,43
1,33,0,48
1,36,127,4
1,36,0,41
1,36,119,31
1,36,0,27
1,33,95,21
1,33,0,53
1,36,119,6
1,36,0,27
1,38,127,38
1,38,0,49
1,36,107,14
1,36,0,43
1,33,117,14
1,33,0,25
1,33,116,38
1,33,0,54
1,36,127,4
1,36,0,18
1,36,127,44
1,36,0,56
1,33,127,3
1,33,0,53
1,36,127,7
1,36,0,18
1,38,126,42
1,38,0,56
1,36,103,4
1,36,0,27
1,33,116,29
1,33,0,19
1,33,121,48
1,33,0,50
1,36,127,3
1,36,0,14
1,36,127,50
1,36,0,42
1,33,126,8
1,33,0,62
1,36,122,8
1,36,0,17
1,34,127,45
1,34,0,40
1,34,94,18
1,34,0,54
1,31,117,3
1,31,0,58
1,29,107,6
1,29,0,52
1,34,112,4
1,34,0,19
1,34,117,45
1,34,0,55
1,31,116,0
1,31,0,62
1,29,121,2
1,29,0,50
1,36,122,11
1,36,0,23
1,36,126,38
1,36,0,56
1,33,127,2
1,33,0,48
1,31,113,4
1,31,0,53
1,36,127,7
1,36,0,21
1,36,126,42
1,36,0,59
1,33,121,3
1,33,0,56
1,31,104,5
1,31,0,50
1,34,122,5
1,34,0,18
1,34,117,46
1,34,0,62
1,31,124,2
1,31,0,58
1,29,113,0
1,29,0,55
1,34,125,4
1,34,0,17
1,34,125,46
1,31,127,58
1,34,0,2
1,31,0,50
1,29,121,2
1,29,0,59
1,36,127,2
1,36,0,22
1,36,127,41
1,36,0,55
1,33,127,7
1,33,0,57
1,31,117,2
1,31,0,50
1,36,117,11
1,36,0,15
1,36,122,49
1,36,0,55
1,33,121,0
1,33,0,59
1,31,116,4
1,31,0,56
1,34,119,0
1,34,0,18
1,34,125,46
1,31,121,58
1,34,0,5
1,31,0,52
1,29,117,2
1,34,127,59
1,29,0,1
1,34,0,20
1,34,122,44
1,31,127,57
1,34,0,8
1,31,0,45
1,29,114,5
1,29,0,58
1,33,127,3
1,33,0,19
1,33,127,44
1,33,0,49
1,31,114,5
1,31,0,60
1,28,126,1
1,28,0,55
1,33,127,6
1,33,0,22
1,33,126,42
1,33,0,55
1,31,127,5
1,31,0,56
1,36,113,6
1,36,0,55
1,38,117,1
1,38,0,56
1,36,117,6
1,36,0,48
1,33,124,8
1,33,0,22
1,33,122,43
1,33,0,60
1,36,127,0
1,36,0,20
1,36,127,39
1,36,0,56
1,33,127,5
1,33,0,61
1,36,127,0
1,36,0,23
1,38,127,36
1,38,0,53
1,36,110,7
1,36,0,55
1,33,105,5
1,33,0,24
1,33,122,36
1,36,127,56
1,33,0,1
1,36,0,18
1,36,127,43
1,36,0,57
1,33,126,4
1,33,0,59
1,36,124,0
1,36,0,27
1,38,117,35
1,38,0,24
1,38,111,42
1,38,0,51
