track,note,velocity,time
1,36,127,1537
1,36,0,12
1,36,127,180
1,36,0,12
1,36,127,179
1,36,0,12
1,36,127,181
1,36,0,12
1,36,127,180
1,36,0,12
1,36,127,180
1,36,0,12
1,36,127,180
1,36,0,12
1,36,127,180
1,36,0,12
1,36,127,180
1,36,0,12
1,36,127,180
1,36,0,12
1,36,127,180
1,36,0,12
1,36,127,180
1,36,0,12
1,36,127,180
1,36,0,12
1,36,127,178
1,36,0,12
1,36,127,182
1,36,0,12
1,36,127,180
1,36,0,12
1,36,127,180
1,36,0,12
1,36,127,371
1,36,0,12
1,36,127,375
1,36,0,12
1,36,127,370
1,36,0,12
1,36,127,372
1,36,0,12
1,36,127,375
1,36,0,12
1,36,127,369
1,36,0,12
1,36,127,372
1,36,0,12
1,36,127,372
1,36,0,12
1,36,127,373
1,36,0,12
1,36,127,370
1,36,0,12
1,36,127,376
1,36,0,12
1,36,127,369
1,36,0,12
1,36,127,374
1,36,0,12
1,36,127,370
1,36,0,12
1,36,127,375
1,36,0,12
1,36,127,367
1,36,0,12
1,36,127,374
1,36,0,12
1,36,127,372
1,36,0,12
1,36,127,373
1,36,0,12
1,36,127,370
1,36,0,12
1,36,127,375
1,36,0,12
1,36,127,369
1,36,0,12
1,36,127,374
1,36,0,12
1,36,127,371
1,36,0,12
1,36,127,370
1,36,0,12
1,36,127,374
1,36,0,12
1,36,127,372
1,36,0,12
1,36,127,372
1,36,0,12
1,36,127,371
1,36,0,12
1,36,127,374
1,36,0,12
1,36,127,372
1,36,0,12
1,36,127,371
1,36,0,12
1,36,127,372
1,36,0,12
1,36,127,371
1,36,0,12
1,36,127,371
1,36,0,12
1,36,127,374
1,36,0,12
1,36,127,373
1,36,0,12
1,36,127,370
1,36,0,12
1,36,127,375
1,36,0,12
1,36,127,371
1,36,0,12
1,36,127,370
1,36,0,12
1,36,127,372
1,36,0,12
1,36,127,375
1,36,0,12
1,36,127,371
1,36,0,12
1,36,127,373
1,36,0,12
1,36,127,370
1,36,0,12
1,36,127,372
1,36,0,12
1,36,127,372
1,36,0,12
1,36,127,372
1,36,0,12
1,36,127,372
1,36,0,12
1,36,127,374
1,36,0,12
1,36,127,370
1,36,0,12
1,36,119,277
1,36,0,12
1,36,127,84
1,36,0,12
1,36,127,371
1,36,0,12
1,36,127,372
1,36,0,12
1,36,127,372
1,36,0,12
1,36,127,372
1,36,0,12
1,36,127,372
1,36,0,12
1,36,127,372
1,36,0,12
1,36,127,372
1,36,0,12
1,36,127,374
1,36,0,12
1,36,127,369
1,36,0,12
1,36,127,373
1,36,0,12
1,36,127,372
1,36,0,12
1,36,127,372
1,36,0,12
1,36,127,371
1,36,0,12
1,36,127,374
1,36,0,12
1,36,127,371
1,36,0,12
1,36,127,373
1,36,0,12
1,36,127,372
1,36,0,12
1,36,127,371
1,36,0,12
1,36,127,372
1,36,0,12
1,36,127,373
1,36,0,12
1,36,127,371
1,36,0,12
1,36,127,373
1,36,0,12
1,36,127,371
1,36,0,12
1,36,127,373
1,36,0,12
1,36,127,370
1,36,0,12
1,36,127,375
1,36,0,12
1,36,127,369
1,36,0,12
1,36,127,374
1,36,0,12
1,36,127,372
1,36,0,12
1,36,127,370
1,36,0,12
1,36,127,372
1,36,0,12
1,36,127,375
1,36,0,12
1,36,127,370
1,36,0,12
1,36,127,372
1,36,0,12
1,36,127,371
1,36,0,12
1,36,127,373
1,36,0,12
1,36,127,371
1,36,0,12
1,36,127,373
1,36,0,12
1,36,127,372
1,36,0,12
1,36,127,373
1,36,0,12
1,36,127,371
1,36,0,12
1,36,127,374
1,36,0,12
1,36,127,370
1,36,0,12
1,36,127,372
1,36,0,12
1,36,127,373
1,36,0,12
1,36,127,371
1,36,0,12
1,36,127,372
1,36,0,12
1,36,127,372
1,36,0,12
1,36,127,373
1,36,0,12
1,36,127,372
1,36,0,12
1,36,127,372
1,36,0,12
1,36,127,372
1,36,0,12
1,36,127,371
1,36,0,12
1,36,119,274
1,36,0,12
1,36,127,86
1,36,0,12
1,36,127,373
1,36,0,12
1,36,127,372
1,36,0,12
1,36,127,371
1,36,0,12
1,36,127,374
1,36,0,12
1,36,127,369
1,36,0,12
1,36,127,373
1,36,0,12
1,36,127,372
1,36,0,12
1,36,127,373
1,36,0,12
1,36,127,371
1,36,0,12
1,36,127,373
1,36,0,12
1,36,127,371
1,36,0,12
1,36,127,373
1,36,0,12
1,36,127,371
1,36,0,12
1,36,127,373
1,36,0,12
1,36,127,371
1,36,0,12
1,36,127,372
1,36,0,12
1,36,127,372
1,36,0,12
1,36,127,373
1,36,0,12
1,36,127,371
1,36,0,12
1,36,127,373
1,36,0,12
1,36,127,370
1,36,0,12
1,36,127,375
1,36,0,12
1,36,127,369
1,36,0,12
1,36,127,371
1,36,0,12
1,36,127,376
1,36,0,12
1,36,127,370
1,36,0,12
1,36,127,371
1,36,0,12
1,36,127,371
1,36,0,12
1,36,127,374
1,36,0,12
1,36,127,370
1,36,0,12
1,36,127,374
1,36,0,12
1,36,127,375
1,36,0,12
1,36,127,368
1,36,0,12
1,36,127,373
1,36,0,12
1,36,127,372
1,36,0,12
1,36,127,373
1,36,0,12
1,36,127,371
1,36,0,12
1,36,127,374
1,36,0,12
1,36,127,370
1,36,0,12
1,36,127,371
1,36,0,12
1,36,127,373
1,36,0,12
1,36,127,372
1,36,0,12
1,36,127,371
1,36,0,12
1,36,127,373
1,36,0,12
1,36,127,372
1,36,0,12
1,36,127,373
1,36,0,12
1,36,127,371
1,36,0,12
1,36,127,373
1,36,0,12
1,36,127,370
1,36,0,12
1,36,127,376
1,36,0,12
1,36,127,369
1,36,0,12
1,36,127,372
1,36,0,12
1,36,127,372
1,36,0,12
1,36,127,372
1,36,0,12
1,36,127,372
1,36,0,12
1,36,127,372
1,36,0,12
1,36,127,372
1,36,0,12
1,36,127,373
1,36,0,12
1,36,127,371
1,36,0,12
1,36,127,374
1,36,0,12
1,36,127,370
1,36,0,12
1,36,119,274
1,36,0,12
1,36,127,87
1,36,0,12
1,36,127,371
1,36,0,12
1,36,127,372
1,36,0,12
1,36,127,372
1,36,0,12
1,36,127,372
1,36,0,12
1,36,127,372
1,36,0,12
1,36,127,370
1,36,0,12
1,36,127,374
1,36,0,12
1,36,127,370
1,36,0,12
1,36,127,374
1,36,0,12
1,36,127,372
1,36,0,12
1,36,127,372
1,36,0,12
1,36,127,372
1,36,0,12
1,36,127,372
1,36,0,12
1,36,127,372
1,36,0,12
1,36,127,370
1,36,0,12
1,36,127,377
1,36,0,12
1,36,127,371
1,36,0,12
1,36,127,372
1,36,0,12
1,36,127,369
1,36,0,12
1,36,127,373
1,36,0,12
1,36,127,372
1,36,0,12
1,36,127,373
1,36,0,12
1,36,127,371
1,36,0,12
1,36,127,375
1,36,0,12
1,36,127,370
1,36,0,12
1,36,127,371
1,36,0,12
1,36,127,373
1,36,0,12
1,36,127,371
1,36,0,12
1,36,127,372
1,36,0,12
1,36,127,372
1,36,0,12
1,36,127,372
1,36,0,12
1,36,127,371
1,36,0,12
1,36,127,373
1,36,0,12
1,36,127,372
1,36,0,12
1,36,127,371
1,36,0,12
1,36,127,372
1,36,0,12
1,36,127,373
1,36,0,12
1,36,127,372
1,36,0,12
1,36,127,372
1,36,0,12
1,36,127,372
1,36,0,12
1,36,127,372
1,36,0,12
1,36,127,372
1,36,0,12
1,36,127,372
1,36,0,12
1,36,127,372
1,36,0,12
1,36,127,372
1,36,0,12
1,36,127,372
1,36,0,12
1,36,127,372
1,36,0,12
1,36,127,372
1,36,0,12
1,36,127,372
1,36,0,12
1,36,127,372
1,36,0,12
1,36,127,373
1,36,0,12
1,36,127,372
1,36,0,12
1,36,127,370
1,36,0,12
1,36,127,374
1,36,0,12
1,36,127,371
1,36,0,12
1,36,127,374
1,36,0,12
2,38,127,4804
2,38,0,12
2,38,127,371
2,38,0,12
2,38,127,370
2,38,0,12
2,38,127,372
2,38,0,12
2,38,127,372
2,38,0,12
2,38,127,374
2,38,0,12
2,38,127,370
2,38,0,12
2,38,127,372
2,38,0,12
2,38,127,375
2,38,0,12
2,38,127,370
2,38,0,12
2,38,127,373
2,38,0,12
2,38,127,373
2,38,0,12
2,38,127,370
2,38,0,12
2,38,127,372
2,38,0,12
2,38,127,371
2,38,0,12
2,38,127,372
2,38,0,12
2,38,127,372
2,38,0,12
2,38,127,372
2,38,0,12
2,38,127,372
2,38,0,12
2,38,127,372
2,38,0,12
2,38,127,374
2,38,0,12
2,38,127,371
2,38,0,12
2,38,127,371
2,38,0,12
2,38,127,375
2,38,0,12
2,38,127,371
2,38,0,12
2,38,127,368
2,38,0,12
2,38,127,376
2,38,0,12
2,38,127,370
2,38,0,12
2,38,127,370
2,38,0,12
2,38,127,377
2,38,0,12
2,38,127,369
2,38,0,12
2,38,127,369
2,38,0,12
2,38,127,373
2,38,0,12
2,38,127,376
2,38,0,12
2,38,127,367
2,38,0,12
2,38,127,373
2,38,0,12
2,38,127,374
2,38,0,12
2,38,127,370
2,38,0,12
2,38,127,373
2,38,0,12
2,38,127,374
2,38,0,12
2,38,127,371
2,38,0,12
2,38,127,372
2,38,0,12
2,38,127,375
2,38,0,12
2,38,127,369
2,38,0,12
2,38,127,370
2,38,0,12
2,38,127,376
2,38,0,12
2,38,127,371
2,38,0,12
2,38,127,372
2,38,0,12
2,38,127,373
2,38,0,12
2,38,127,370
2,38,0,12
2,38,127,372
2,38,0,12
2,38,127,372
2,38,0,12
2,38,127,373
2,38,0,12
2,38,127,755
2,38,0,12
2,38,127,374
2,38,0,12
2,38,127,370
2,38,0,12
2,38,127,374
2,38,0,12
2,38,127,370
2,38,0,12
2,38,127,372
2,38,0,12
2,38,127,374
2,38,0,12
2,38,127,370
2,38,0,12
2,38,127,372
2,38,0,12
2,38,127,372
2,38,0,12
2,38,127,372
2,38,0,12
2,38,127,370
2,38,0,12
2,38,127,376
2,38,0,12
2,38,127,371
2,38,0,12
2,38,127,371
2,38,0,12
2,38,127,376
2,38,0,12
2,38,127,371
2,38,0,12
2,38,127,369
2,38,0,12
2,38,127,372
2,38,0,12
2,38,127,374
2,38,0,12
2,38,127,371
2,38,0,12
2,38,127,374
2,38,0,12
2,38,127,370
2,38,0,12
2,38,127,371
2,38,0,12
2,38,127,370
2,38,0,12
2,38,127,374
2,38,0,12
2,38,127,373
2,38,0,12
2,38,127,372
2,38,0,12
2,38,127,374
2,38,0,12
2,38,127,368
2,38,0,12
2,38,127,374
2,38,0,12
2,38,127,371
2,38,0,12
2,38,127,372
2,38,0,12
2,38,127,372
2,38,0,12
2,38,127,374
2,38,0,12
2,38,127,372
2,38,0,12
2,38,127,371
2,38,0,12
2,38,127,373
2,38,0,12
2,38,127,371
2,38,0,12
2,38,127,371
2,38,0,12
2,38,127,373
2,38,0,12
2,38,127,371
2,38,0,12
2,38,127,372
2,38,0,12
2,38,127,370
2,38,0,12
2,38,127,376
2,38,0,12
2,38,127,368
2,38,0,12
2,38,127,372
2,38,0,12
2,38,127,375
2,38,0,12
2,38,127,372
2,38,0,12
2,38,127,373
2,38,0,12
2,38,127,371
2,38,0,12
2,38,127,373
2,38,0,12
2,38,127,370
2,38,0,12
2,38,127,757
2,38,0,12
2,38,127,371
2,38,0,12
2,38,127,374
2,38,0,12
2,38,127,371
2,38,0,12
2,38,127,372
2,38,0,12
2,38,127,373
2,38,0,12
2,38,127,370
2,38,0,12
2,38,127,373
2,38,0,12
2,38,127,374
2,38,0,12
2,38,127,370
2,38,0,12
2,38,127,372
2,38,0,12
2,38,127,374
2,38,0,12
2,38,127,370
2,38,0,12
2,38,127,372
2,38,0,12
2,38,127,374
2,38,0,12
2,38,127,372
2,38,0,12
2,38,127,370
2,38,0,12
2,38,127,373
2,38,0,12
2,38,127,372
2,38,0,12
2,38,127,371
2,38,0,12
2,38,127,369
2,38,0,12
2,38,127,377
2,38,0,12
2,38,127,367
2,38,0,12
2,38,127,374
2,38,0,12
2,38,127,372
2,38,0,12
2,38,127,372
2,38,0,12
2,38,127,370
2,38,0,12
2,38,127,377
2,38,0,12
2,38,127,370
2,38,0,12
2,38,127,369
2,38,0,12
2,38,127,377
2,38,0,12
2,38,127,371
2,38,0,12
2,38,127,367
2,38,0,12
2,38,127,373
2,38,0,12
2,38,127,376
2,38,0,12
2,38,127,369
2,38,0,12
2,38,127,376
2,38,0,12
2,38,127,369
2,38,0,12
2,38,127,372
2,38,0,12
2,38,127,371
2,38,0,12
2,38,127,373
2,38,0,12
2,38,127,373
2,38,0,12
2,38,127,371
2,38,0,12
2,38,127,375
2,38,0,12
2,38,127,369
2,38,0,12
2,38,127,371
2,38,0,12
2,38,127,374
2,38,0,12
2,38,127,372
2,38,0,12
2,38,127,372
2,38,0,12
2,38,127,371
2,38,0,12
2,38,127,375
2,38,0,12
2,38,127,369
2,38,0,12
2,38,127,374
2,38,0,12
2,38,127,371
2,38,0,12
2,38,127,370
2,38,0,12
2,38,127,375
2,38,0,12
2,38,127,371
2,38,0,12
2,38,127,371
2,38,0,12
2,38,127,375
2,38,0,12
2,38,127,369
2,38,0,12
2,38,127,373
2,38,0,12
2,38,127,757
2,38,0,12
2,38,127,370
2,38,0,12
2,38,127,374
2,38,0,12
2,38,127,370
2,38,0,12
2,38,127,373
2,38,0,12
2,38,127,373
2,38,0,12
2,38,127,371
2,38,0,12
2,38,127,371
2,38,0,12
2,38,127,374
2,38,0,12
2,38,127,372
2,38,0,12
2,38,127,370
2,38,0,12
2,38,127,372
2,38,0,12
2,38,127,374
2,38,0,12
2,38,127,370
2,38,0,12
2,38,127,372
2,38,0,12
2,38,127,372
2,38,0,12
2,38,127,373
2,38,0,12
2,38,127,373
2,38,0,12
2,38,127,371
2,38,0,12
2,38,127,371
2,38,0,12
2,38,127,373
2,38,0,12
2,38,127,372
2,38,0,12
2,38,127,371
2,38,0,12
2,38,127,373
2,38,0,12
2,38,127,371
2,38,0,12
2,38,127,372
2,38,0,12
2,38,127,374
2,38,0,12
2,38,127,370
2,38,0,12
2,38,127,374
2,38,0,12
2,38,127,370
2,38,0,12
2,38,127,372
2,38,0,12
2,38,127,372
2,38,0,12
2,38,127,372
2,38,0,12
2,38,127,372
2,38,0,12
2,38,127,372
2,38,0,12
2,38,127,375
2,38,0,12
2,38,127,369
2,38,0,12
2,38,127,372
2,38,0,12
2,38,127,374
2,38,0,12
2,38,127,370
2,38,0,12
2,38,127,372
2,38,0,12
2,38,127,372
2,38,0,12
2,38,127,372
2,38,0,12
2,38,127,372
2,38,0,12
2,38,127,372
2,38,0,12
2,38,127,372
2,38,0,12
2,38,127,372
2,38,0,12
2,38,127,375
2,38,0,12
2,38,127,369
2,38,0,12
2,38,127,374
2,38,0,12
2,38,127,372
2,38,0,12
2,38,127,372
2,38,0,12
2,38,127,373
2,38,0,12
2,38,127,370
2,38,0,12
2,38,127,371
2,38,0,12
2,38,127,375
2,38,0,12
2,38,121,180
2,38,0,12
2,38,121,81
2,38,0,12
3,42,127,769
3,42,0,12
3,42,127,180
3,42,0,12
3,42,127,179
3,42,0,12
3,42,127,180
3,42,0,12
3,42,108,372
3,42,0,12
3,42,114,180
3,42,0,12
3,42,112,181
3,42,0,12
3,42,108,372
3,42,0,12
3,42,114,178
3,42,0,12
3,42,112,180
3,42,0,12
3,42,108,374
3,42,0,12
3,42,114,180
3,42,0,12
3,42,112,178
3,42,0,12
3,42,108,372
3,42,0,12
3,42,114,182
3,42,0,12
3,42,112,180
3,42,0,12
3,42,127,180
3,42,0,12
3,42,114,36
3,42,0,12
3,42,125,132
3,42,0,12
3,42,119,34
3,42,0,12
3,42,121,133
3,42,0,12
3,42,117,35
3,42,0,12
3,42,123,133
3,42,0,12
3,42,121,35
3,42,0,12
3,42,127,134
3,42,0,12
3,42,114,36
3,42,0,12
3,42,125,132
3,42,0,12
3,42,119,34
3,42,0,12
3,42,121,134
3,42,0,12
3,42,117,34
3,42,0,12
