track,note,velocity,time
1,62,125,7774
1,62,118,72
1,52,123,1994
1,64,121,22
1,62,121,42
1,57,123,24
1,62,123,30
1,57,123,26
1,61,123,26
1,62,121,34
1,52,123,30
1,64,121,24
1,62,121,40
1,57,123,30
1,61,123,26
1,62,116,48
1,57,123,10
1,57,121,36
1,56,123,36
1,52,123,40
1,64,121,26
1,62,121,40
1,57,123,24
1,62,123,32
1,57,123,26
1,61,123,32
1,62,121,28
1,52,123,26
1,64,118,24
1,62,121,36
1,57,123,30
1,61,123,30
1,62,113,48
1,57,123,16
1,57,123,42
1,56,121,96
1,52,123,0
1,52,121,52
1,52,121,56
1,52,123,54
1,52,121,54
1,52,123,54
1,52,123,56
1,52,123,58
1,52,123,62
1,52,121,16
1,52,118,14
1,52,123,58
1,52,123,58
1,52,123,58
1,52,123,58
1,52,121,56
1,52,123,54
1,52,123,56
1,52,123,56
1,52,123,56
1,52,123,56
1,52,123,54
1,52,123,56
1,52,123,56
1,52,123,58
1,52,123,64
1,52,123,16
1,52,123,12
1,52,123,58
1,52,123,60
1,52,123,60
1,52,123,56
1,52,123,58
1,52,118,56
1,57,123,56
1,57,121,52
1,57,123,54
1,57,123,52
1,57,123,50
1,57,123,52
1,57,123,52
1,57,123,56
1,57,123,60
1,57,118,16
1,57,121,14
1,57,123,58
1,57,123,56
1,57,123,56
1,57,123,54
1,57,123,54
1,57,121,56
1,52,123,54
1,52,118,52
1,52,123,56
1,52,123,52
1,52,118,56
1,52,121,56
1,52,123,56
1,52,123,58
1,52,121,60
1,52,121,16
1,52,121,14
1,52,123,60
1,52,123,58
1,52,123,56
1,52,123,58
1,52,121,56
1,52,121,58
1,59,123,56
1,59,123,50
1,59,123,50
1,59,123,50
1,59,123,52
1,64,123,52
1,63,118,48
1,62,118,40
1,59,121,48
1,59,123,48
1,59,121,46
1,59,123,52
1,59,123,50
1,59,123,50
1,59,123,48
1,59,121,54
1,61,123,48
1,62,121,32
1,62,123,44
1,62,123,46
1,62,123,44
1,62,123,48
1,62,123,48
1,62,121,48
1,62,123,50
1,57,123,50
1,57,123,48
1,57,121,50
1,57,121,52
1,57,121,52
1,52,123,58
1,52,123,16
1,52,123,10
1,52,123,58
1,59,123,52
1,59,123,52
1,57,123,40
1,54,122,28
1,57,123,52
1,54,122,28
1,57,123,50
1,58,122,18
1,59,123,42
1,59,121,40
1,57,123,40
1,54,116,48
1,50,118,2
1,62,123,46
1,63,118,96
1,64,121,24
1,52,121,32
1,59,121,14
1,59,118,32
1,57,123,36
1,54,122,16
1,57,123,54
1,54,122,18
1,57,123,52
1,58,121,10
1,59,123,38
1,59,121,36
1,57,123,44
1,54,118,48
1,50,116,38
1,62,123,48
1,63,118,96
1,64,121,16
1,52,123,38
1,59,123,6
1,47,123,0
1,47,123,88
1,59,123,0
1,52,123,462
1,52,123,32
1,63,123,10
1,64,118,48
1,59,118,32
1,52,123,114
1,59,123,18
1,52,121,20
1,57,123,18
1,52,123,6
1,57,122,104
1,57,122,110
1,59,122,2
1,59,123,48
1,52,123,6
1,52,123,32
1,63,123,10
1,64,118,48
1,59,118,32
1,52,123,114
1,59,123,18
1,52,121,20
1,57,123,18
1,52,123,6
1,57,122,104
1,57,122,110
1,59,122,2
1,59,123,48
1,52,123,6
1,52,123,32
1,63,123,10
1,64,118,48
1,59,118,32
1,52,123,114
1,59,123,18
1,52,121,20
1,57,123,18
1,52,123,6
1,57,122,104
1,57,122,110
1,59,122,2
1,59,123,48
1,52,123,6
1,52,123,32
1,63,123,10
1,64,118,48
1,59,118,32
1,52,123,114
1,59,123,18
1,52,121,20
1,57,123,18
1,52,123,6
1,57,122,104
1,57,122,110
1,59,122,2
1,59,123,48
1,52,123,6
1,52,123,32
1,63,123,10
1,64,118,48
1,59,118,32
1,52,123,114
1,59,123,18
1,52,121,20
1,57,123,18
1,52,123,6
1,57,122,104
1,57,121,110
1,59,118,2
1,59,123,48
1,52,118,6
1,52,123,32
1,63,123,16
1,64,116,48
1,59,118,34
1,52,123,116
1,59,123,20
1,52,121,18
1,57,123,96
1,52,123,16
1,57,123,98
1,57,123,116
1,59,121,10
1,59,123,50
1,61,123,4
1,56,123,10
1,61,121,18
1,56,121,30
1,52,123,18
1,52,123,58
1,59,122,96
1,57,123,174
1,52,121,14
1,57,121,96
1,52,123,22
1,57,123,10
1,57,121,58
1,59,123,12
1,59,123,54
1,52,123,12
1,64,121,22
1,62,121,42
1,57,123,24
1,62,123,30
1,57,123,26
1,61,123,26
1,62,121,34
1,52,123,30
1,64,121,24
1,62,121,40
1,57,123,30
1,61,123,26
1,62,116,48
1,57,123,10
1,57,121,36
1,56,123,36
1,52,123,40
1,64,121,26
1,62,121,40
1,57,123,24
1,62,123,32
1,57,123,26
1,61,123,32
1,62,121,28
1,52,123,26
1,64,118,24
1,62,121,36
1,57,123,30
1,61,123,30
1,62,113,48
1,57,123,16
1,57,123,42
1,56,121,96
1,52,123,0
1,52,121,52
1,52,121,56
1,52,123,54
1,52,121,54
1,52,123,54
1,52,123,56
1,52,123,58
1,52,123,62
1,52,121,16
1,52,118,14
1,52,123,58
1,52,123,58
1,52,123,58
1,52,123,58
1,52,121,56
1,52,123,54
1,52,123,56
1,52,123,56
1,52,123,56
1,52,123,56
1,52,123,54
1,52,123,56
1,52,123,56
1,52,123,58
1,52,123,64
1,52,123,16
1,52,123,12
1,52,123,58
1,52,123,60
1,52,123,60
1,52,123,56
1,52,123,58
1,52,118,56
1,57,123,56
1,57,121,52
1,57,123,54
1,57,123,52
1,57,123,50
1,57,123,52
1,57,123,52
1,57,123,56
1,57,123,60
1,57,118,16
1,57,121,14
1,57,123,58
1,57,123,56
1,57,123,56
1,57,123,54
1,57,123,54
1,57,121,56
1,52,123,54
1,52,118,52
1,52,123,56
1,52,123,52
1,52,118,56
1,52,121,56
1,52,123,56
1,52,123,58
1,52,121,60
1,52,121,16
1,52,121,14
1,52,123,60
1,52,123,58
1,52,123,56
1,52,123,58
1,52,121,56
1,52,121,58
1,59,123,56
1,59,123,50
1,59,123,50
1,59,123,50
1,59,123,52
1,64,123,52
1,63,118,48
1,62,118,40
1,59,121,48
1,59,123,48
1,59,121,46
1,59,123,52
1,59,123,50
1,59,123,50
1,59,123,48
1,59,121,54
1,61,123,48
1,62,121,32
1,62,123,44
1,62,123,46
1,62,123,44
1,62,123,48
1,62,123,48
1,62,121,48
1,62,123,50
1,57,123,50
1,57,123,48
1,57,121,50
1,57,121,52
1,57,121,52
1,52,123,58
1,52,123,16
1,52,123,10
1,52,123,58
1,59,123,52
1,59,123,52
1,57,123,40
1,54,121,28
1,57,123,52
1,54,119,28
1,57,123,50
1,58,119,18
1,59,123,42
1,59,121,40
1,57,123,40
1,54,116,48
1,50,118,2
1,62,123,46
1,63,118,96
1,64,121,24
1,52,121,32
1,59,121,14
1,59,118,32
1,57,123,36
1,54,116,16
1,57,123,54
1,54,116,18
1,57,123,52
1,58,121,10
1,59,123,38
1,59,121,36
1,57,123,44
1,54,118,48
1,50,116,38
1,62,123,48
1,63,118,96
1,64,121,16
1,52,123,38
1,59,123,6
1,47,123,0
1,47,123,88
1,59,123,0
1,52,123,462
1,52,123,32
1,63,123,10
1,64,118,48
1,59,118,32
1,52,123,114
1,59,123,18
1,52,121,20
1,57,123,18
1,52,123,6
1,57,121,104
1,57,121,110
1,59,121,2
1,59,123,48
1,52,118,6
1,52,123,32
1,63,123,16
1,64,116,48
1,59,118,34
1,52,123,116
1,59,123,20
1,52,121,18
1,57,123,96
1,52,123,16
1,57,123,98
1,57,123,116
1,59,121,10
1,59,123,50
1,52,123,4
1,52,123,32
1,63,123,10
1,64,118,48
1,59,118,32
1,52,123,114
1,59,123,18
1,52,121,20
1,57,123,18
1,52,123,6
1,57,121,104
1,57,121,110
1,59,121,2
1,59,123,48
1,52,118,6
1,52,123,32
1,63,123,16
1,64,116,48
1,59,118,34
1,52,123,116
1,59,123,20
1,52,121,18
1,57,123,96
1,52,123,16
1,57,123,98
1,57,123,116
1,59,121,10
1,59,123,50
1,52,123,4
1,52,123,32
1,63,123,10
1,64,118,48
1,59,118,32
1,52,123,114
1,59,123,18
1,52,121,20
1,57,123,18
1,52,123,6
1,57,121,104
1,57,121,110
1,59,121,2
1,59,123,48
1,52,118,6
1,52,123,32
1,63,123,16
1,64,116,48
1,59,118,34
1,52,123,116
1,59,123,20
1,52,121,18
1,57,123,96
1,52,123,16
1,57,123,98
1,57,123,116
1,59,121,10
1,59,123,50
1,61,123,4
1,56,123,10
1,61,121,18
1,56,121,30
1,52,123,18
1,52,123,58
1,59,122,96
1,57,123,84
1,52,121,14
1,57,121,96
1,52,123,22
1,57,123,10
1,57,121,58
1,59,123,12
1,59,123,54
1,52,123,12
1,64,121,26
1,63,123,52
1,62,123,50
1,57,123,8
1,58,123,20
1,59,121,46
1,52,123,40
1,64,121,26
1,63,123,50
1,62,123,50
1,57,123,12
1,58,123,20
1,59,121,50
1,52,123,38
1,64,121,30
1,63,123,48
1,62,123,54
1,57,121,2
1,58,123,24
1,59,121,48
1,52,123,38
1,64,123,28
1,63,123,50
1,62,118,52
1,57,121,192
1,58,123,24
1,59,123,44
1,54,123,30
1,66,121,26
1,65,123,52
1,64,123,50
1,59,123,8
1,60,123,20
1,61,121,46
1,54,123,40
1,66,121,26
1,65,123,50
1,64,123,50
1,59,123,12
1,60,123,20
1,61,121,50
1,54,123,38
1,66,121,30
1,65,123,48
1,64,123,54
1,59,121,2
1,60,123,24
1,61,121,48
1,54,123,38
1,66,123,28
1,65,123,50
1,64,118,52
1,59,121,192
1,60,123,24
1,61,123,44
1,55,123,30
1,67,121,24
1,65,121,40
1,60,123,30
1,64,123,26
1,65,116,48
1,60,123,10
1,60,121,36
1,59,123,36
1,55,123,40
1,67,121,24
1,65,121,40
1,60,123,30
1,64,123,26
1,65,116,48
1,60,123,10
1,60,121,36
1,59,123,36
1,55,123,40
1,67,121,24
1,65,121,40
1,60,123,30
1,64,123,26
1,65,116,48
1,60,123,10
1,60,121,36
1,59,123,36
1,55,123,40
1,67,121,24
1,65,121,40
1,60,123,30
1,64,123,26
1,65,116,48
1,60,123,10
1,60,121,36
1,59,123,36
1,57,123,40
1,69,121,24
1,67,121,40
1,62,123,30
1,66,123,26
1,67,116,48
1,62,123,10
1,62,121,36
1,61,123,36
1,57,123,40
1,69,121,24
1,67,121,40
1,62,123,30
1,66,123,26
1,67,116,48
1,62,123,10
1,62,121,36
1,61,123,36
1,57,123,40
1,69,121,24
1,67,121,40
1,62,123,30
1,66,123,26
1,67,116,48
1,62,123,10
1,62,121,36
1,61,123,36
1,57,123,40
1,69,121,24
1,67,121,40
1,62,123,30
1,66,123,26
1,67,116,48
1,62,123,10
1,62,121,36
1,61,123,36
1,59,123,40
1,59,123,50
1,59,123,50
1,59,123,50
1,59,123,52
1,64,123,52
1,63,118,48
1,62,118,40
1,59,121,48
1,59,123,48
1,59,121,46
1,59,123,52
1,59,123,50
1,59,123,50
1,59,123,48
1,59,121,54
1,61,123,48
1,62,121,32
1,62,123,44
1,62,123,46
1,62,123,44
1,62,123,48
1,62,123,48
1,62,121,48
1,62,123,50
1,57,123,50
1,57,123,48
1,57,121,50
1,57,121,52
1,57,121,52
1,52,123,58
1,52,123,16
1,52,123,10
1,52,123,58
1,59,123,52
1,59,123,52
1,57,123,40
1,54,122,28
1,57,123,52
1,54,122,28
1,57,123,50
1,58,122,18
1,59,123,42
1,59,121,40
1,57,123,40
1,54,116,48
1,50,118,2
1,62,123,46
1,63,118,96
1,64,121,24
1,52,121,32
1,59,121,14
1,59,118,32
1,57,123,36
1,54,122,16
1,57,123,54
1,54,122,18
1,57,123,52
1,58,121,10
1,59,123,38
1,59,121,36
1,57,123,44
1,54,118,48
1,50,116,38
1,62,123,48
1,63,118,96
1,64,121,16
1,52,123,38
1,59,123,6
1,47,123,0
1,47,123,88
1,59,123,0
1,60,123,1230
1,48,123,0
1,48,123,88
1,60,123,0
1,53,123,462
1,53,123,32
1,64,123,10
1,65,118,48
1,60,118,32
1,53,123,114
1,60,123,18
1,53,121,20
1,58,123,18
1,53,123,6
1,58,121,104
1,58,121,110
1,60,121,2
1,60,123,48
1,53,118,6
1,53,123,32
1,64,123,16
1,65,116,48
1,60,118,34
1,53,123,116
1,60,123,20
1,53,121,18
1,58,123,96
1,53,123,16
1,58,123,98
1,58,123,116
1,60,121,10
1,60,123,50
1,53,123,4
1,53,123,32
1,64,123,10
1,65,118,48
1,60,118,32
1,53,123,114
1,60,123,18
1,53,121,20
1,58,123,18
1,53,123,6
1,58,121,104
1,58,121,110
1,60,121,2
1,60,123,48
1,53,118,6
1,53,123,32
1,64,123,16
1,65,116,48
1,60,118,34
1,53,123,116
1,60,123,20
1,53,121,18
1,58,123,96
1,53,123,16
1,58,123,98
1,58,123,116
1,60,121,10
1,60,123,50
1,53,123,4
1,53,123,32
1,64,123,10
1,65,118,48
1,60,118,32
1,53,123,114
1,60,123,18
1,53,121,20
1,58,123,18
1,53,123,6
1,58,121,104
1,58,121,110
1,60,121,2
1,60,123,48
1,53,118,6
1,53,123,32
1,64,123,16
1,65,116,48
1,60,118,34
1,53,123,116
1,60,123,20
1,53,121,18
1,58,123,96
1,53,123,16
1,58,123,98
1,58,123,116
1,60,121,10
1,60,123,50
1,62,123,4
1,57,123,10
1,62,121,18
1,57,121,30
1,53,123,18
1,53,123,58
1,60,122,96
1,58,123,84
1,53,121,14
1,58,121,96
1,53,123,22
1,58,123,10
1,58,121,58
1,60,123,12
1,60,123,54
1,62,123,12
1,57,123,10
1,62,121,18
1,57,121,30
1,53,123,18
1,53,123,58
1,60,122,96
1,58,123,84
1,53,121,14
1,58,121,96
1,53,123,22
1,58,123,10
1,58,121,58
1,60,123,12
1,60,123,54
1,62,123,12
1,57,123,10
1,62,121,18
1,57,121,30
1,53,123,18
1,53,123,58
1,60,122,96
1,58,123,84
1,53,121,14
1,58,121,96
1,53,123,22
1,58,123,10
1,58,121,58
1,60,123,12
1,60,123,54
1,53,123,12
1,53,123,32
1,64,123,10
1,65,118,48
1,60,118,32
1,53,123,114
1,60,123,18
1,53,121,20
1,58,123,18
1,53,123,6
1,58,121,104
1,58,121,110
1,60,121,2
1,60,123,48
1,53,123,6
1,53,123,32
1,64,123,10
1,65,118,48
1,60,118,32
1,53,123,114
1,60,123,18
1,53,121,20
1,58,123,18
1,53,123,6
1,58,121,104
1,58,121,110
1,60,121,2
1,60,123,48
1,53,123,6
1,53,123,32
1,64,123,10
1,65,118,48
1,60,118,32
1,53,123,114
1,60,123,18
1,53,121,20
1,58,123,18
1,53,123,6
1,58,121,104
1,58,121,110
1,60,121,2
1,60,123,48
1,53,123,6
1,53,123,32
1,64,123,10
1,65,118,48
1,60,118,32
1,53,123,114
1,60,123,18
1,53,121,20
1,58,123,18
1,53,123,6
1,58,121,104
1,58,121,110
1,60,121,2
1,60,123,48
1,53,123,6
1,53,123,32
1,64,123,10
1,65,118,48
1,60,118,32
1,53,123,114
1,60,123,18
1,53,121,20
1,58,123,18
1,53,123,6
1,58,121,104
1,58,121,110
1,60,121,2
1,60,123,48
1,53,123,6
1,53,123,32
1,64,123,10
1,65,118,48
1,60,118,32
1,53,123,114
1,60,123,18
1,53,121,20
1,58,123,18
1,53,123,6
1,58,121,104
1,58,121,110
1,60,121,2
1,60,123,48
1,53,123,6
1,53,123,32
1,64,123,10
1,65,118,48
1,60,118,32
1,53,123,114
1,60,123,18
1,53,121,20
1,58,123,18
1,53,123,6
1,58,121,104
1,58,121,110
1,60,121,2
1,60,123,48
1,53,123,6
1,53,123,32
1,64,123,10
1,65,118,48
1,60,118,32
1,53,123,114
1,60,123,18
1,53,121,20
1,58,123,18
1,53,123,6
1,58,121,104
1,58,121,110
1,60,121,2
1,60,123,48
1,62,123,6
1,57,123,10
1,62,121,18
1,57,121,30
1,53,123,18
1,53,123,58
1,60,122,96
