track,note,velocity,time
1,58,56,480
1,58,0,240
1,56,58,0
1,56,0,240
1,54,56,0
1,54,0,360
1,56,56,0
1,56,0,120
1,58,58,0
1,58,0,240
1,56,57,0
1,56,0,240
1,54,50,0
1,54,0,360
1,51,52,0
1,44,51,0
1,51,0,120
1,44,0,0
1,46,62,0
1,46,0,60
1,53,64,0
1,53,0,60
1,58,57,0
1,58,0,120
1,44,53,0
1,44,0,60
1,53,50,0
1,53,0,60
1,58,50,0
1,58,0,120
1,42,53,0
1,42,0,60
1,49,53,0
1,49,0,60
1,58,56,0
1,58,0,120
1,54,53,0
1,54,0,120
1,53,58,0
1,53,0,120
1,63,53,0
1,66,53,0
1,63,0,120
1,66,0,0
1,51,56,0
1,51,0,120
1,56,53,0
1,56,0,120
1,56,53,0
1,56,0,120
1,61,56,0
1,61,0,240
1,65,58,0
1,65,0,120
1,53,62,0
1,53,0,120
1,58,58,0
1,58,0,60
1,65,61,0
1,65,0,60
1,70,51,0
1,70,0,120
1,56,51,0
1,56,0,60
1,65,62,0
1,65,0,60
1,70,56,0
1,70,0,120
1,54,61,0
1,54,0,60
1,61,61,0
1,61,0,60
1,70,53,0
1,70,0,120
1,66,50,0
1,66,0,120
1,65,42,0
1,68,51,0
1,68,0,120
1,65,0,0
1,63,51,0
1,66,51,0
1,63,0,120
1,66,0,0
1,51,57,0
1,51,0,120
1,66,53,0
1,63,57,0
1,63,0,120
1,66,0,0
1,51,60,0
1,51,0,120
1,53,62,0
1,53,0,60
1,60,61,0
1,60,0,60
1,65,58,0
1,65,0,120
1,65,37,0
1,72,50,0
1,69,55,0
1,69,0,120
1,72,0,0
1,65,0,0
1,53,64,0
1,53,0,120
1,58,64,0
1,58,0,60
1,65,56,0
1,65,0,60
1,70,56,0
1,70,0,60
1,72,62,0
1,72,0,60
1,74,62,0
1,74,0,120
1,58,62,0
1,58,0,120
1,51,64,0
1,51,0,120
1,73,45,0
1,66,51,0
1,70,53,0
1,73,0,120
1,70,0,0
1,66,0,0
1,56,64,0
1,56,0,120
1,75,51,0
1,72,63,0
1,68,63,0
1,72,0,120
1,68,0,0
1,75,0,0
1,58,58,0
1,58,0,60
1,65,67,0
1,65,0,60
1,70,61,0
1,70,0,60
1,72,64,0
1,72,0,60
1,74,64,0
1,74,0,120
1,58,76,0
1,58,0,120
1,51,76,0
1,51,0,120
1,73,53,0
1,70,57,0
1,66,52,0
1,73,0,120
1,70,0,0
1,66,0,0
1,56,76,0
1,56,0,120
1,75,52,0
1,72,61,0
1,68,55,0
1,75,0,120
1,72,0,0
1,68,0,0
1,61,64,0
1,61,0,120
1,77,62,0
1,72,56,0
1,68,41,0
1,68,0,120
1,72,0,0
1,77,0,0
1,70,51,0
1,77,58,0
1,73,55,0
1,66,37,0
1,77,0,240
1,73,0,0
1,70,0,0
1,66,0,0
1,65,53,0
1,70,48,0
1,72,58,0
1,70,0,240
1,72,0,0
1,65,0,0
1,57,64,0
1,57,0,240
1,58,64,0
1,58,0,120
1,70,63,0
1,70,0,120
1,68,64,0
1,68,0,240
1,66,56,0
1,66,0,360
1,68,64,0
1,68,0,120
1,70,61,0
1,70,0,240
1,68,62,0
1,68,0,240
1,66,56,0
1,66,0,360
1,63,61,0
1,56,60,0
1,63,0,120
1,56,0,0
1,51,0,0
1,44,0,0
1,46,62,0
1,46,0,60
1,53,64,0
1,53,0,60
1,58,57,0
1,58,0,120
1,44,53,0
1,44,0,60
1,53,50,0
1,53,0,60
1,58,50,0
1,58,0,120
1,42,53,0
1,42,0,60
1,49,53,0
1,49,0,60
1,58,56,0
1,58,0,120
1,54,53,0
1,54,0,120
1,53,58,0
1,53,0,120
1,63,53,0
1,66,53,0
1,63,0,120
1,66,0,0
1,51,56,0
1,51,0,120
1,56,53,0
1,56,0,120
1,56,53,0
1,56,0,120
1,61,56,0
1,61,0,240
1,65,58,0
1,65,0,120
1,53,62,0
1,53,0,120
1,58,58,0
1,58,0,60
1,65,61,0
1,65,0,60
1,70,51,0
1,70,0,120
1,56,51,0
1,56,0,60
1,65,62,0
1,65,0,60
1,70,56,0
1,70,0,120
1,54,61,0
1,54,0,60
1,61,61,0
1,61,0,60
1,70,53,0
1,70,0,120
1,66,50,0
1,66,0,120
1,65,42,0
1,68,51,0
1,68,0,120
1,65,0,0
1,63,51,0
1,66,51,0
1,63,0,120
1,66,0,0
1,51,57,0
1,51,0,120
1,66,53,0
1,63,57,0
1,63,0,120
1,66,0,0
1,51,60,0
1,51,0,120
1,53,62,0
1,53,0,60
1,60,61,0
1,60,0,60
1,65,58,0
1,65,0,120
1,65,37,0
1,72,50,0
1,69,55,0
1,69,0,120
1,72,0,0
1,65,0,0
1,53,64,0
1,53,0,120
1,58,64,0
1,58,0,60
1,65,56,0
1,65,0,60
1,70,56,0
1,70,0,60
1,72,62,0
1,72,0,60
1,74,62,0
1,74,0,120
1,58,62,0
1,58,0,120
1,51,64,0
1,51,0,120
1,73,45,0
1,66,51,0
1,70,53,0
1,73,0,120
1,70,0,0
1,66,0,0
1,56,64,0
1,56,0,120
1,75,51,0
1,72,63,0
1,68,63,0
1,72,0,120
1,68,0,0
1,75,0,0
1,58,58,0
1,58,0,60
1,65,67,0
1,65,0,60
1,70,61,0
1,70,0,60
1,72,64,0
1,72,0,60
1,74,64,0
1,74,0,120
1,58,76,0
1,58,0,120
1,51,76,0
1,51,0,120
1,73,53,0
1,70,57,0
1,66,52,0
1,73,0,120
1,70,0,0
1,66,0,0
1,56,76,0
1,56,0,120
1,75,52,0
1,72,61,0
1,68,55,0
1,75,0,120
1,72,0,0
1,68,0,0
1,61,64,0
1,61,0,120
1,77,62,0
1,72,56,0
1,68,41,0
1,68,0,120
1,72,0,0
1,77,0,0
1,70,51,0
1,77,58,0
1,73,55,0
1,66,37,0
1,77,0,240
1,73,0,0
1,70,0,0
1,66,0,0
1,65,53,0
1,70,48,0
1,72,58,0
1,70,0,240
1,72,0,0
1,65,0,0
1,57,64,0
1,57,0,240
1,58,64,0
1,58,0,120
1,70,63,0
1,70,0,120
1,58,64,1
1,56,64,119
1,58,0,1
1,56,0,119
1,54,64,0
1,54,0,120
1,66,64,0
1,66,0,120
1,54,64,0
1,54,0,120
1,66,67,0
1,66,0,120
1,53,61,0
1,53,0,120
1,65,64,0
1,65,0,120
1,49,67,0
1,49,0,120
1,65,51,0
1,73,53,0
1,68,55,0
1,73,0,120
1,68,0,0
1,65,0,0
1,51,69,0
1,51,0,120
1,73,57,0
1,70,62,0
1,66,52,0
1,70,0,120
1,73,0,0
1,66,0,0
1,53,64,0
1,53,0,120
1,68,61,0
1,73,61,0
1,65,60,0
1,68,0,120
1,73,0,0
1,65,0,0
1,54,64,0
1,54,0,120
1,70,60,0
1,73,56,0
1,66,48,0
1,70,0,120
1,73,0,0
1,66,0,0
1,68,64,0
1,68,0,120
1,56,64,0
1,56,0,120
1,53,0,0
1,58,64,0
1,58,0,60
1,65,56,0
1,65,0,60
1,70,56,0
1,70,0,60
1,72,62,0
1,72,0,60
1,74,62,0
1,74,0,120
1,58,62,0
1,58,0,120
1,51,64,0
1,51,0,120
1,73,45,0
1,66,51,0
1,70,53,0
1,73,0,120
1,70,0,0
1,66,0,0
1,56,64,0
1,56,0,120
1,75,51,0
1,72,63,0
1,68,63,0
1,72,0,120
1,68,0,0
1,75,0,0
1,58,58,0
1,58,0,60
1,65,67,0
1,65,0,60
1,70,61,0
1,70,0,60
1,72,64,0
1,72,0,60
1,74,64,0
1,74,0,120
1,58,76,0
1,58,0,120
1,51,76,0
1,51,0,120
1,73,53,0
1,70,57,0
1,66,52,0
1,73,0,120
1,70,0,0
1,66,0,0
1,56,76,0
1,56,0,120
1,75,52,0
1,72,61,0
1,68,55,0
1,75,0,120
1,72,0,0
1,68,0,0
1,56,0,0
1,49,64,0
1,49,0,120
1,77,68,0
1,72,62,0
1,68,53,0
1,77,0,120
1,72,0,0
1,68,0,0
1,77,51,0
1,66,23,0
1,70,41,0
1,73,47,0
1,77,0,480
1,70,0,0
1,73,0,0
1,66,0,0
1,65,46,0
1,70,55,0
1,72,46,0
1,70,0,240
1,72,0,0
1,65,0,0
1,53,56,0
1,53,0,240
1,58,61,0
1,58,0,120
1,70,62,0
1,70,0,120
1,68,53,0
1,68,0,240
1,66,52,0
1,66,0,360
1,68,58,0
1,68,0,120
1,70,61,0
1,70,0,480
2,72,40,480
2,73,35,0
2,77,43,0
2,73,0,60
2,77,0,0
2,72,0,0
2,70,40,0
2,70,0,60
2,72,43,0
2,73,48,0
2,77,46,0
2,72,0,60
2,77,0,0
2,73,0,0
2,70,53,0
2,70,0,60
2,72,48,0
2,73,50,0
2,77,48,0
2,77,0,60
2,73,0,0
2,72,0,0
2,70,56,0
2,70,0,60
2,72,50,0
2,73,46,0
2,77,56,0
2,77,0,60
2,73,0,0
2,72,0,0
2,70,58,0
2,70,0,60
2,77,62,0
2,72,41,0
2,73,52,0
2,73,0,60
2,77,0,0
2,72,0,0
2,70,51,0
2,70,0,180
2,72,45,0
2,77,56,0
2,73,53,0
2,73,0,120
2,77,0,0
2,72,0,0
2,72,62,0
2,75,56,0
2,68,53,0
2,72,0,120
2,75,0,0
2,68,0,0
2,72,42,0
2,73,50,0
2,77,61,0
2,77,0,60
2,73,0,0
2,72,0,0
2,70,62,0
2,70,0,60
2,77,56,0
2,73,52,0
2,72,48,0
2,77,0,60
2,73,0,0
2,72,0,0
2,70,62,0
2,70,0,60
2,73,53,0
2,72,52,0
2,77,58,0
2,77,0,60
2,73,0,0
2,72,0,0
2,70,61,0
2,70,0,60
2,77,61,0
2,73,57,0
2,72,56,0
2,77,0,60
2,73,0,0
2,72,0,0
2,70,61,0
2,70,0,60
2,72,48,0
2,77,62,0
2,73,56,0
2,77,0,60
2,73,0,0
2,72,0,0
2,70,57,0
2,70,0,150
2,82,61,0
2,82,0,30
2,73,56,0
2,73,0,120
2,72,52,0
2,75,60,0
2,75,0,120
2,72,0,0
2,73,40,0
2,77,62,0
2,77,0,150
2,77,61,0
2,77,0,30
2,77,6,0
2,84,64,0
2,84,0,30
2,82,64,0
2,82,0,30
2,77,0,0
2,73,0,0
2,84,62,0
2,77,55,0
2,73,47,0
2,73,0,60
2,84,0,0
2,77,0,0
2,82,67,0
2,82,0,60
2,84,64,0
2,77,62,0
2,73,53,0
2,73,0,60
2,84,0,0
2,77,0,0
2,82,64,0
2,82,0,60
2,84,58,0
2,73,47,0
2,77,60,0
2,84,0,30
2,77,0,0
2,73,0,0
2,75,61,0
2,75,0,30
2,77,67,0
2,77,0,60
2,77,62,0
2,77,0,60
2,77,61,0
2,70,38,60
2,73,51,0
2,73,0,120
2,70,0,0
2,73,58,0
2,68,43,0
2,73,0,120
2,68,0,0
2,77,0,0
2,70,46,0
2,73,52,0
2,78,58,150
2,78,0,30
2,80,62,0
2,80,0,30
2,82,64,0
2,70,0,30
2,73,0,0
2,82,0,0
2,72,42,0
2,82,52,0
2,75,51,0
2,82,0,90
2,75,0,0
2,72,0,0
2,80,62,0
2,80,0,30
2,72,50,0
2,80,47,0
2,75,56,0
2,75,0,120
2,72,0,0
2,80,0,0
2,77,57,0
2,73,40,0
2,80,62,90
2,77,0,30
2,73,0,0
2,80,0,0
2,77,58,0
2,73,52,0
2,80,60,0
2,77,0,40
2,80,0,0
2,73,0,0
2,80,61,0
2,80,0,40
2,85,64,0
2,85,0,40
2,84,37,0
2,77,38,0
2,82,52,0
2,77,0,120
2,77,24,0
2,81,62,0
2,82,0,120
2,81,0,0
2,77,0,0
2,77,60,0
2,73,43,0
2,84,0,30
2,82,61,60
2,82,0,30
2,84,60,0
2,84,0,30
2,82,64,0
2,82,0,30
2,84,62,0
2,84,0,30
2,82,67,0
2,77,0,30
2,73,0,0
2,82,0,0
2,77,52,0
2,84,57,0
2,73,45,0
2,73,0,90
2,84,0,0
2,77,0,0
2,82,62,0
2,82,0,30
2,84,61,0
2,77,53,0
2,73,52,0
2,84,0,60
2,77,0,0
2,73,0,0
2,87,61,0
2,87,0,60
2,82,52,0
2,77,36,0
2,85,48,0
2,82,0,360
2,85,0,0
2,77,0,0
2,73,51,0
2,77,62,0
2,77,0,120
2,73,0,0
2,70,46,0
2,73,56,0
2,73,0,90
2,73,56,0
2,78,64,30
2,78,0,30
2,78,58,0
2,78,0,30
2,80,64,0
2,80,0,30
2,82,64,0
2,70,0,30
2,73,0,0
2,82,0,0
2,82,53,0
2,77,56,0
2,73,31,0
2,77,0,180
2,73,0,0
2,82,0,0
2,82,67,0
2,82,0,60
2,72,53,0
2,77,64,0
2,82,58,0
2,81,67,60
2,82,0,30
2,81,0,60
2,81,73,0
2,81,0,30
2,81,73,0
2,81,0,30
2,82,73,0
2,77,0,30
2,72,0,0
2,82,0,0
2,84,64,0
2,84,0,60
2,77,67,0
2,77,0,120
2,82,67,0
2,82,0,30
2,84,67,0
2,84,0,30
2,86,52,0
2,77,45,0
2,82,52,0
2,82,0,480
2,77,0,0
2,86,0,0
2,70,28,0
2,73,56,0
2,80,67,0
2,78,62,60
2,80,0,60
2,78,0,60
2,75,76,0
2,75,0,60
2,73,0,0
2,70,0,0
2,72,61,0
2,63,50,0
2,68,56,0
2,72,0,60
2,68,0,0
2,63,0,0
2,68,64,0
2,68,0,120
2,77,63,0
2,77,0,60
2,70,52,0
2,74,61,0
2,65,61,0
2,65,0,360
2,70,0,0
2,74,0,0
2,77,67,60
2,77,0,60
2,78,60,0
2,78,0,60
2,78,56,0
2,78,0,30
2,78,50,0
2,78,0,90
2,70,61,0
2,70,0,60
2,72,64,0
2,72,0,60
2,68,64,0
2,68,0,60
2,68,58,30
2,68,0,30
2,73,64,0
2,73,0,30
2,75,67,0
2,75,0,30
2,75,61,0
2,75,0,30
2,77,64,0
2,77,0,30
2,77,71,0
2,77,0,60
2,77,71,0
2,77,0,60
2,77,71,0
2,77,0,60
2,70,60,0
2,70,0,180
2,77,67,30
2,77,0,30
2,82,61,0
2,82,0,60
2,82,58,0
2,82,0,90
2,82,53,0
2,82,0,30
2,84,62,0
2,84,0,30
2,82,60,0
2,82,0,30
2,81,51,0
2,77,60,0
2,72,48,0
2,81,0,120
2,77,0,0
2,72,0,0
2,85,63,0
2,85,0,60
2,84,64,0
2,84,0,60
2,84,56,0
2,73,38,0
2,77,56,0
2,82,61,60
2,84,0,60
2,73,0,120
2,82,0,0
2,77,0,0
2,73,51,0
2,72,42,0
2,77,53,0
2,73,0,60
2,72,0,0
2,77,0,0
2,70,58,0
2,70,0,60
2,72,46,0
2,77,62,0
2,73,55,0
2,73,0,60
2,77,0,0
2,72,0,0
2,70,58,0
2,70,0,60
2,72,40,0
2,73,53,0
2,77,55,0
2,73,0,60
2,77,0,0
2,72,0,0
2,70,52,0
2,70,0,180
2,77,60,0
2,72,48,0
2,73,55,0
2,73,0,120
2,77,0,0
2,72,0,0
2,75,56,0
2,68,48,0
2,72,61,0
2,72,0,120
2,75,0,0
2,68,0,0
2,72,50,0
2,73,56,0
2,77,62,0
2,77,0,60
2,73,0,0
2,72,0,0
2,70,64,0
2,70,0,60
2,72,50,0
2,77,55,0
2,73,56,0
2,77,0,60
2,73,0,0
2,72,0,0
2,70,61,0
2,70,0,60
2,73,53,0
2,77,60,0
2,72,55,0
2,77,0,60
2,73,0,0
2,72,0,0
2,70,60,0
2,70,0,60
2,72,60,0
2,73,56,0
2,77,55,0
2,77,0,60
2,73,0,0
2,72,0,0
2,70,64,0
2,70,0,60
2,77,61,0
2,72,50,0
2,73,57,0
2,73,0,60
2,77,0,0
2,72,0,0
2,70,53,0
2,70,0,150
2,82,64,0
2,82,0,30
2,73,61,0
2,73,0,120
2,77,66,0
2,68,50,0
2,72,57,0
2,68,0,90
2,72,0,0
2,77,0,0
2,75,56,0
2,75,0,30
2,73,40,0
2,77,62,0
2,77,0,150
2,77,61,0
2,77,0,30
2,77,6,0
2,84,64,0
2,84,0,30
