track,note,velocity,time
1,53,80,0
1,53,80,48
1,53,80,48
1,53,80,48
1,49,80,48
1,36,80,0
1,46,80,0
1,35,80,0
1,46,80,48
1,40,80,0
1,36,80,48
1,46,80,0
1,35,80,0
1,46,80,48
1,40,80,0
1,46,80,48
1,36,80,0
1,35,80,0
1,36,80,24
1,35,80,0
1,46,80,24
1,40,80,0
1,36,80,24
1,35,80,0
1,46,80,24
1,36,80,0
1,35,80,0
1,46,80,48
1,40,80,0
1,35,80,48
1,46,80,0
1,36,80,0
1,40,80,48
1,46,80,0
1,35,80,48
1,46,80,0
1,36,80,0
1,40,80,48
1,46,80,0
1,35,80,48
1,36,80,0
1,46,80,0
1,35,80,24
1,36,80,0
1,40,80,24
1,46,80,0
1,35,80,24
1,36,80,0
1,49,80,24
1,35,80,0
1,46,80,0
1,36,80,0
1,40,80,48
1,46,80,0
1,35,80,48
1,46,80,0
1,36,80,0
1,40,80,48
1,46,80,0
1,35,80,48
1,36,80,0
1,46,80,0
1,35,80,24
1,36,80,0
1,40,80,24
1,46,80,0
1,35,80,24
1,36,80,0
1,35,80,24
1,36,80,0
1,46,80,0
1,40,80,48
1,46,80,0
1,36,80,48
1,46,80,0
1,35,80,0
1,46,80,48
1,40,80,0
1,36,80,48
1,46,80,0
1,35,80,0
1,46,80,48
1,40,80,0
1,46,80,48
1,36,80,0
1,35,80,0
1,36,80,24
1,35,80,0
1,46,80,24
1,40,80,0
1,36,80,24
1,35,80,0
1,46,80,24
1,36,80,0
1,35,80,0
1,52,80,48
1,46,80,0
1,40,80,0
1,36,80,48
1,46,80,0
1,35,80,0
1,49,80,0
1,46,80,48
1,40,80,0
1,36,80,48
1,46,80,0
1,35,80,0
1,46,80,48
1,40,80,0
1,46,80,48
1,36,80,0
1,35,80,0
1,36,80,24
1,35,80,0
1,46,80,24
1,40,80,0
1,36,80,24
1,35,80,0
1,46,80,24
1,36,80,0
1,35,80,0
1,46,80,48
1,40,80,0
1,35,80,48
1,46,80,0
1,36,80,0
1,40,80,48
1,46,80,0
1,35,80,48
1,46,80,0
1,36,80,0
1,40,80,48
1,46,80,0
1,35,80,48
1,36,80,0
1,46,80,0
1,35,80,24
1,36,80,0
1,40,80,24
1,46,80,0
1,35,80,24
1,36,80,0
1,35,80,24
1,36,80,0
1,46,80,0
1,40,80,48
1,46,80,0
1,35,80,48
1,46,80,0
1,36,80,0
1,40,80,48
1,46,80,0
1,35,80,48
1,46,80,0
1,36,80,0
1,40,80,48
1,46,80,0
1,35,80,48
1,36,80,0
1,46,80,0
1,35,80,24
1,36,80,0
1,40,80,24
1,46,80,0
1,35,80,24
1,36,80,0
1,35,80,24
1,36,80,0
1,46,80,0
1,40,80,48
1,46,80,0
1,36,80,48
1,46,80,0
1,35,80,0
1,46,80,48
1,40,80,0
1,36,80,48
1,46,80,0
1,35,80,0
1,46,80,48
1,40,80,0
1,46,80,48
1,36,80,0
1,35,80,0
1,36,80,24
1,35,80,0
1,46,80,24
1,40,80,0
1,40,80,24
1,36,80,24
1,35,80,0
1,46,80,0
1,36,80,24
1,35,80,0
1,40,80,24
1,46,80,0
1,35,80,48
1,46,80,0
1,36,80,0
1,40,80,48
1,46,80,0
1,35,80,48
1,46,80,0
1,36,80,0
1,40,80,48
1,46,80,0
1,35,80,48
1,36,80,0
1,46,80,0
1,35,80,24
1,36,80,0
1,40,80,24
1,46,80,0
1,35,80,24
1,36,80,0
1,35,80,24
1,36,80,0
1,46,80,0
1,40,80,48
1,46,80,0
1,36,80,48
1,46,80,0
1,35,80,0
1,46,80,48
1,40,80,0
1,36,80,48
1,46,80,0
1,35,80,0
1,46,80,48
1,40,80,0
1,46,80,48
1,36,80,0
1,35,80,0
1,36,80,24
1,35,80,0
1,46,80,24
1,40,80,0
1,36,80,24
1,35,80,0
1,46,80,24
1,36,80,0
1,35,80,0
1,46,80,48
1,40,80,0
1,36,80,48
1,46,80,0
1,35,80,0
1,46,80,48
1,40,80,0
1,36,80,48
1,46,80,0
1,35,80,0
1,46,80,48
1,40,80,0
1,46,80,48
1,36,80,0
1,35,80,0
1,36,80,24
1,35,80,0
1,46,80,24
1,40,80,0
1,36,80,24
1,35,80,0
1,46,80,24
1,36,80,0
1,35,80,0
1,46,80,48
1,40,80,0
1,35,80,48
1,46,80,0
1,36,80,0
1,40,80,48
1,46,80,0
1,35,80,48
1,46,80,0
1,36,80,0
1,40,80,48
1,46,80,0
1,35,80,48
1,36,80,0
1,46,80,0
1,35,80,24
1,36,80,0
1,40,80,24
1,46,80,0
1,35,80,24
1,36,80,0
1,35,80,24
1,36,80,0
1,46,80,0
1,40,80,48
1,46,80,0
1,52,80,0
1,46,60,48
1,36,60,0
1,35,60,0
1,46,61,24
1,36,61,0
1,35,61,0
1,46,62,24
1,36,62,0
1,35,62,0
1,46,63,24
1,36,63,0
1,35,63,0
1,46,64,24
1,36,64,0
1,35,64,0
1,46,65,24
1,36,65,0
1,35,65,0
1,46,66,24
1,36,66,0
1,35,66,0
1,46,67,24
1,36,67,0
1,35,67,0
1,35,68,24
1,36,68,0
1,46,68,0
1,35,68,24
1,36,68,0
1,46,68,0
1,35,69,24
1,36,69,0
1,46,69,0
1,35,70,24
1,36,70,0
1,46,70,0
1,35,71,24
1,36,71,0
1,46,71,0
1,35,72,24
1,36,72,0
1,46,72,0
1,35,73,24
1,36,73,0
1,46,73,0
1,35,74,24
1,36,74,0
1,46,74,0
1,35,75,24
1,36,75,0
1,46,75,0
1,35,76,24
1,36,76,0
1,46,76,0
1,35,77,24
1,36,77,0
1,46,77,0
1,35,78,24
1,36,78,0
1,46,78,0
1,35,79,24
1,36,79,0
1,46,79,0
1,35,80,24
1,36,80,0
1,46,80,0
1,35,81,24
1,36,81,0
1,46,81,0
1,35,82,24
1,36,82,0
1,46,82,0
1,35,83,24
1,36,83,0
1,46,83,0
1,35,83,24
1,36,83,0
1,46,83,0
1,35,84,24
1,36,84,0
1,46,84,0
1,35,85,24
1,36,85,0
1,46,85,0
1,35,86,24
1,36,86,0
1,46,86,0
1,35,87,24
1,36,87,0
1,46,87,0
1,35,88,24
1,36,88,0
1,46,88,0
1,35,89,24
1,36,89,0
1,46,89,0
1,35,90,24
1,36,90,0
1,46,90,0
1,35,91,24
1,36,91,0
1,46,91,0
1,35,92,24
1,36,92,0
1,46,92,0
1,35,93,24
1,36,93,0
1,46,93,0
1,35,95,24
1,36,95,0
1,46,95,0
1,35,96,24
1,36,96,0
1,46,96,0
1,35,97,24
1,36,97,0
1,46,97,0
1,35,98,24
1,36,98,0
1,46,98,0
1,35,99,24
1,36,99,0
1,46,99,0
1,35,100,24
1,36,100,0
1,46,100,0
1,35,102,24
1,36,102,0
1,46,102,0
1,35,103,24
1,36,103,0
1,46,103,0
1,35,104,24
1,36,104,0
1,46,104,0
1,35,105,24
1,36,105,0
1,46,105,0
1,35,106,24
1,36,106,0
1,46,106,0
1,35,107,24
1,36,107,0
1,46,107,0
1,49,100,24
1,36,100,0
1,35,100,0
1,49,100,48
1,36,100,0
1,35,100,0
1,49,100,48
1,36,100,0
1,35,100,0
1,49,100,48
1,36,100,0
1,35,100,0
1,52,100,48
1,36,100,0
1,35,100,0
1,52,100,96
1,36,100,0
1,35,100,0
1,52,100,96
1,36,100,0
1,35,100,0
1,40,80,672
1,35,80,24
1,36,80,0
1,40,80,24
1,35,80,24
1,36,80,0
1,49,80,24
1,35,80,0
1,52,80,0
1,36,80,0
1,40,80,48
1,52,80,0
1,35,80,48
1,52,80,0
1,36,80,0
1,40,80,48
1,52,80,0
1,35,80,48
1,36,80,0
1,52,80,0
1,35,80,24
1,36,80,0
1,40,80,24
1,52,80,0
1,35,80,24
1,36,80,0
1,35,80,24
1,36,80,0
1,52,80,0
1,40,80,48
1,52,80,0
1,36,80,48
1,52,80,0
1,35,80,0
1,52,80,48
1,40,80,0
1,36,80,48
1,52,80,0
1,35,80,0
1,52,80,48
1,40,80,0
1,46,80,48
1,35,80,0
1,52,80,0
1,40,80,24
1,40,80,12
1,40,80,12
1,40,80,12
1,43,80,12
1,43,80,12
1,41,80,12
1,41,80,12
1,46,80,12
1,40,80,0
1,46,80,24
1,40,80,0
1,46,80,24
1,40,80,0
1,46,80,24
1,36,80,0
1,35,80,0
1,49,80,0
1,46,80,48
1,40,80,0
1,46,80,48
1,36,80,0
1,35,80,0
1,46,80,48
1,40,80,0
1,46,80,48
1,36,80,0
1,35,80,0
1,36,80,24
1,35,80,0
1,46,80,24
1,40,80,0
1,36,80,24
1,35,80,0
1,46,80,24
1,36,80,0
1,35,80,0
1,46,80,48
1,40,80,0
1,46,80,48
1,35,80,0
1,36,80,0
1,46,80,48
1,40,80,0
1,46,80,48
1,35,80,0
1,36,80,0
1,46,80,48
1,40,80,0
1,35,80,48
1,36,80,0
1,46,80,0
1,35,80,24
1,36,80,0
1,40,80,24
1,46,80,0
1,35,80,24
1,36,80,0
1,35,80,24
1,36,80,0
1,46,80,0
1,40,80,48
1,46,80,0
1,35,80,48
1,36,80,0
1,46,80,0
1,40,80,48
1,46,80,0
1,35,80,48
1,36,80,0
1,46,80,0
1,40,80,48
1,46,80,0
1,35,80,48
1,36,80,0
1,46,80,0
1,35,80,24
1,36,80,0
1,40,80,24
1,46,80,0
1,35,80,24
1,36,80,0
1,35,80,24
1,36,80,0
1,46,80,0
1,40,80,48
1,46,80,0
1,36,80,48
1,35,80,0
1,46,80,0
1,40,80,48
1,46,80,0
1,36,80,48
1,35,80,0
1,46,80,0
1,40,80,48
1,46,80,0
1,36,80,24
1,35,80,0
1,40,80,24
1,46,80,0
1,36,80,24
1,35,80,0
1,36,80,24
1,35,80,0
1,46,80,0
1,40,80,24
1,36,80,24
1,35,80,0
1,46,80,0
1,36,80,24
1,35,80,0
1,52,80,24
1,40,80,0
1,46,80,0
1,49,80,48
1,35,80,0
1,36,80,0
1,46,80,0
1,40,80,48
1,46,80,0
1,35,80,48
1,36,80,0
1,46,80,0
1,40,80,48
1,46,80,0
1,35,80,48
1,36,80,0
1,46,80,0
1,35,80,24
1,36,80,0
1,40,80,24
1,46,80,0
1,35,80,24
1,36,80,0
1,35,80,24
1,36,80,0
1,46,80,0
1,40,80,48
1,46,80,0
1,46,80,48
1,36,80,0
1,35,80,0
1,40,80,48
1,46,80,0
1,36,80,48
1,35,80,0
1,46,80,0
1,40,80,48
1,46,80,0
1,46,80,48
1,36,80,0
1,35,80,0
1,36,80,24
1,35,80,0
1,46,80,24
1,40,80,0
1,36,80,24
1,35,80,0
1,46,80,24
1,36,80,0
1,35,80,0
1,46,80,48
1,40,80,0
1,46,80,48
1,36,80,0
1,35,80,0
1,46,80,48
1,40,80,0
1,46,80,48
1,36,80,0
1,35,80,0
1,46,80,48
1,40,80,0
1,46,80,48
1,36,80,0
1,35,80,0
1,36,80,24
1,35,80,0
1,46,80,24
1,40,80,0
1,36,80,24
1,35,80,0
1,46,80,24
1,36,80,0
1,35,80,0
1,46,80,48
1,40,80,0
1,46,80,48
1,35,80,0
1,36,80,0
1,46,80,48
1,40,80,0
1,46,80,48
1,35,80,0
1,36,80,0
1,46,80,48
1,40,80,0
1,35,80,24
1,36,80,0
1,46,80,24
1,36,80,0
1,35,80,0
1,36,80,24
1,35,80,0
1,46,80,24
1,40,80,0
1,36,80,24
1,35,80,0
1,46,80,24
1,40,80,0
1,36,80,24
1,35,80,0
1,46,80,24
1,40,80,0
1,36,80,24
1,35,80,0
1,35,60,24
1,36,60,0
1,46,60,0
1,35,61,24
1,36,61,0
1,46,61,0
1,35,62,24
1,36,62,0
1,46,62,0
1,35,63,24
1,36,63,0
1,46,63,0
1,35,64,24
1,36,64,0
1,46,64,0
1,35,65,24
1,36,65,0
1,46,65,0
1,35,66,24
1,36,66,0
1,46,66,0
1,35,67,24
1,36,67,0
1,46,67,0
1,46,68,24
1,36,68,0
1,35,68,0
1,46,68,24
1,36,68,0
1,35,68,0
1,46,69,24
1,36,69,0
1,35,69,0
1,46,70,24
1,36,70,0
1,35,70,0
1,46,71,24
1,36,71,0
1,35,71,0
1,46,72,24
1,36,72,0
1,35,72,0
1,46,73,24
1,36,73,0
1,35,73,0
1,46,74,24
1,36,74,0
1,35,74,0
1,46,75,24
1,36,75,0
1,35,75,0
1,46,76,24
1,36,76,0
1,35,76,0
1,46,77,24
1,36,77,0
1,35,77,0
1,46,78,24
1,36,78,0
1,35,78,0
1,46,79,24
1,36,79,0
1,35,79,0
1,46,80,24
1,36,80,0
1,35,80,0
1,46,81,24
1,36,81,0
1,35,81,0
1,46,82,24
1,36,82,0
1,35,82,0
1,46,83,24
1,36,83,0
1,35,83,0
1,46,83,24
1,36,83,0
1,35,83,0
1,46,84,24
1,36,84,0
1,35,84,0
1,46,85,24
1,36,85,0
1,35,85,0
1,46,86,24
1,36,86,0
1,35,86,0
1,46,87,24
1,36,87,0
1,35,87,0
1,46,88,24
1,36,88,0
1,35,88,0
1,46,89,24
1,36,89,0
1,35,89,0
1,46,90,24
1,36,90,0
1,35,90,0
1,46,90,24
1,36,90,0
1,35,90,0
1,36,91,24
1,35,91,0
1,46,91,0
1,46,91,24
1,35,91,0
1,36,91,0
1,46,91,24
1,36,91,0
1,35,91,0
1,36,92,24
1,35,92,0
1,46,92,0
1,46,92,24
1,36,92,0
1,35,92,0
1,46,92,24
1,36,92,0
1,35,92,0
1,35,93,24
1,36,93,0
1,46,93,0
1,35,93,24
1,36,93,0
1,46,93,0
1,35,93,24
1,36,93,0
1,46,93,0
1,35,93,24
1,36,93,0
1,46,93,0
1,35,94,24
1,36,94,0
1,46,94,0
1,35,94,24
1,36,94,0
1,46,94,0
1,35,94,24
1,36,94,0
1,46,94,0
1,35,95,24
1,36,95,0
1,46,95,0
1,35,95,24
1,36,95,0
1,46,95,0
1,35,95,24
1,36,95,0
1,46,95,0
1,35,96,24
1,36,96,0
1,46,96,0
1,35,96,24
1,36,96,0
1,46,96,0
1,35,96,24
1,36,96,0
1,46,96,0
1,35,97,24
1,36,97,0
1,46,97,0
1,35,97,24
1,36,97,0
1,46,97,0
1,35,97,24
1,36,97,0
1,46,97,0
1,35,98,24
1,36,98,0
1,46,98,0
1,35,98,24
1,36,98,0
1,46,98,0
1,35,98,24
1,36,98,0
1,46,98,0
1,35,98,24
1,36,98,0
1,46,98,0
1,35,99,24
1,36,99,0
1,46,99,0
1,35,99,24
1,36,99,0
1,46,99,0
1,35,99,24
1,36,99,0
1,46,99,0
1,35,100,24
1,36,100,0
1,46,100,0
1,46,100,24
1,36,100,0
1,35,100,0
1,46,101,24
1,36,101,0
1,35,101,0
1,46,102,24
1,36,102,0
1,35,102,0
1,46,103,24
1,36,103,0
1,35,103,0
1,46,103,24
1,36,103,0
1,35,103,0
1,46,104,24
1,36,104,0
1,35,104,0
1,46,105,24
1,36,105,0
1,35,105,0
1,46,106,24
1,36,106,0
1,35,106,0
1,46,107,24
1,36,107,0
1,35,107,0
1,46,108,24
1,36,108,0
1,35,108,0
1,46,108,24
1,36,108,0
1,35,108,0
1,46,109,24
1,36,109,0
1,35,109,0
1,46,110,24
1,36,110,0
1,35,110,0
1,40,111,24
1,46,111,0
1,36,111,0
1,35,111,0
1,40,112,24
1,46,112,0
1,36,112,0
1,35,112,0
1,46,113,24
1,36,113,0
1,35,113,0
1,46,80,24
1,36,80,0
1,35,80,0
1,49,80,0
1,46,80,48
1,40,80,0
1,46,80,48
1,36,80,0
1,35,80,0
1,46,80,48
1,40,80,0
1,46,80,48
1,36,80,0
1,35,80,0
1,36,80,24
1,35,80,0
1,46,80,24
1,40,80,0
1,36,80,24
1,35,80,0
1,46,80,24
1,36,80,0
1,35,80,0
1,46,80,48
1,40,80,0
1,46,80,48
1,35,80,0
1,36,80,0
1,40,80,48
1,46,80,0
1,40,80,36
1,36,80,12
1,35,80,0
1,46,80,0
1,36,80,24
1,35,80,0
1,40,80,24
1,46,80,0
1,35,80,48
