track,note,velocity,time
1,59,127,4152
1,64,122,8
1,64,126,56
1,66,126,208
1,64,126,16
1,64,127,72
1,66,127,44
1,68,127,72
1,69,127,76
1,68,127,8
1,66,120,28
1,69,127,20
1,69,127,52
1,71,127,280
1,68,127,8
1,66,121,360
1,64,127,12
1,64,127,52
1,66,127,192
1,64,127,16
1,64,116,56
1,64,127,44
1,66,127,248
1,68,127,56
1,69,127,56
1,68,127,4
1,66,127,112
1,69,127,16
1,69,127,48
1,71,125,0
1,68,126,216
1,66,119,0
1,76,127,64
1,71,112,44
1,78,127,208
1,76,127,16
1,76,103,44
1,76,126,124
1,78,127,272
1,78,127,0
1,80,127,28
1,80,127,36
1,81,123,48
1,80,127,148
1,78,127,4
1,81,115,480
1,81,122,44
1,83,110,8
1,80,125,216
1,78,125,356
1,76,94,452
1,59,127,3780
1,61,127,200
1,62,127,12
1,61,127,196
1,62,127,44
1,61,127,12
1,62,127,8
1,59,127,152
1,61,127,200
1,62,127,20
1,61,127,196
1,62,127,4
1,61,127,196
1,62,127,88
1,64,127,268
1,61,127,56
1,59,127,292
1,71,127,1180
1,73,127,8
1,74,127,48
1,73,127,16
1,74,123,24
1,73,117,8
1,74,122,16
1,71,124,24
1,73,127,188
1,74,125,16
1,73,126,188
1,74,123,20
1,73,124,208
1,74,127,8
1,78,127,248
1,76,127,20
1,78,127,524
1,80,123,76
1,71,127,364
1,74,127,0
1,73,127,188
1,76,120,0
1,74,127,8
1,78,127,4
1,76,115,8
1,73,127,12
1,74,127,0
1,78,124,0
1,76,116,16
1,73,127,16
1,78,127,8
1,74,127,4
1,74,127,84
1,71,127,12
1,73,127,8
1,76,122,0
1,74,127,20
1,78,127,0
1,76,119,16
1,73,127,4
1,74,127,20
1,78,127,0
1,73,124,4
1,76,114,16
1,74,127,12
1,78,127,16
1,78,118,104
1,81,120,12
1,80,83,8
1,76,110,16
1,71,127,536
1,74,127,0
1,73,127,180
1,76,123,0
1,74,127,24
1,78,127,0
1,76,115,8
1,73,127,12
1,78,125,8
1,74,127,20
1,76,112,0
1,73,127,16
1,74,127,12
1,78,127,0
1,71,127,340
1,74,127,0
1,73,127,8
1,76,121,0
1,74,125,16
1,78,127,0
1,76,111,8
1,73,127,16
1,74,127,20
1,78,127,0
1,73,127,16
1,76,107,0
1,74,127,8
1,78,127,16
1,78,127,136
1,81,127,0
1,76,111,8
1,80,106,0
1,73,127,2068
1,78,123,380
1,76,116,8
1,73,116,624
1,74,127,372
1,74,127,32
1,74,127,44
1,73,127,28
1,71,127,100
1,69,119,64
1,73,127,836
1,73,123,36
1,73,127,60
1,78,127,464
1,76,125,8
1,73,126,8
1,75,127,880
1,75,127,80
1,80,127,84
1,78,127,92
1,76,127,228
1,78,127,100
1,80,127,616
1,80,127,36
1,76,127,448
1,78,127,24
1,80,127,96
1,81,127,60
1,80,127,212
1,78,127,76
1,78,127,348
1,81,127,8
1,81,127,56
1,83,124,204
1,80,127,52
1,78,127,20
1,76,127,16
1,76,127,372
1,78,127,16
1,76,127,52
1,76,127,392
1,78,127,48
1,80,127,104
1,81,127,60
1,80,127,204
1,78,117,16
1,76,105,176
1,81,119,144
1,81,127,44
1,81,127,44
1,83,127,12
1,80,127,48
1,78,127,20
1,76,118,24
1,71,127,5284
1,73,127,180
1,74,127,24
1,73,120,12
1,74,115,32
1,73,113,184
1,74,125,16
1,71,127,16
1,73,127,188
1,74,119,144
1,73,127,196
1,74,121,8
1,73,121,192
1,74,121,72
1,78,127,0
1,76,116,4
1,59,127,1080
1,61,127,192
1,62,127,148
1,61,127,172
1,62,127,168
1,61,127,200
1,62,127,68
1,59,127,28
1,61,127,188
1,62,127,156
1,61,127,184
1,62,127,168
1,61,127,196
1,62,127,68
1,66,127,8
1,64,127,24
1,61,127,884
1,59,120,20
1,71,127,504
1,74,127,0
1,73,127,8
1,76,127,0
1,74,123,28
1,78,127,0
1,76,108,16
1,73,126,12
1,74,127,16
1,78,127,0
1,73,127,28
1,76,109,12
1,74,127,16
1,78,127,0
1,74,127,192
1,71,127,12
1,73,126,8
1,76,119,0
1,74,122,16
1,78,123,0
1,73,124,8
1,76,111,0
1,74,127,16
1,78,123,0
1,76,102,16
1,73,127,4
1,74,127,20
1,78,126,0
1,78,127,128
1,81,123,12
1,80,97,552
1,76,107,0
1,73,127,2376
1,78,127,4
1,76,117,28
1,73,123,544
1,74,116,892
1,74,127,156
1,73,127,52
1,71,124,80
1,69,117,460
1,73,127,1488
1,78,115,256
1,76,114,0
1,73,105,4
1,75,127,924
1,80,122,388
1,78,125,368
1,76,127,196
1,78,127,24
1,80,127,596
1,80,126,44
1,76,127,376
1,78,127,56
1,80,127,56
1,81,127,36
1,80,126,236
1,78,123,80
1,78,127,184
1,81,127,16
1,81,127,48
1,81,127,56
1,83,127,180
1,80,127,8
1,78,127,8
1,76,127,28
1,78,127,504
1,76,127,28
1,76,127,292
1,78,127,64
1,80,127,120
1,81,127,92
1,80,117,212
1,78,119,8
1,81,127,340
1,81,127,60
1,83,127,0
1,80,127,72
1,78,127,272
1,76,127,12
1,80,127,464
1,80,123,40
1,76,127,612
1,78,127,36
1,80,127,72
1,81,127,56
1,80,127,208
1,78,127,88
1,78,119,308
1,81,127,140
1,81,127,64
1,83,127,0
1,80,127,28
1,78,127,8
1,76,127,8
1,76,126,72
1,76,123,284
1,78,127,128
1,76,127,16
1,76,127,292
1,78,127,52
1,80,127,80
1,81,127,96
1,80,127,196
1,78,127,16
1,78,100,256
1,81,127,48
1,81,125,36
1,81,121,36
1,83,125,8
1,80,127,8
1,78,127,20
1,76,126,20
1,64,127,22552
1,66,127,1076
1,64,114,8
1,64,127,80
1,66,127,280
1,68,127,212
1,69,127,8
1,68,127,160
1,66,127,4
1,69,127,8
1,69,127,24
1,71,122,4
1,68,127,224
1,66,115,8
1,64,116,20
1,64,123,80
1,66,127,264
1,64,113,20
1,64,127,88
1,66,127,52
1,68,127,72
1,69,127,112
1,68,127,16
1,66,123,16
1,80,123,1688
1,76,127,16
1,78,127,184
1,76,127,20
1,76,127,128
1,78,127,36
1,80,127,64
1,81,127,40
1,80,121,240
1,78,123,112
1,81,127,272
1,81,127,48
1,83,127,8
1,80,127,0
1,78,127,16
1,76,127,8
1,78,127,296
1,76,117,8
1,76,127,100
1,78,127,268
1,80,127,212
1,81,126,240
1,80,127,220
1,78,122,100
1,81,127,1104
1,81,127,44
1,81,127,36
1,83,125,0
1,80,127,8
1,78,127,12
1,76,127,8
1,78,127,320
1,76,125,8
1,76,127,136
1,78,127,288
1,80,127,28
1,81,127,24
1,80,127,232
1,78,121,136
1,81,127,260
1,81,127,36
1,81,127,52
1,83,126,8
1,80,127,16
1,78,127,28
1,76,121,8
1,76,127,4
1,78,127,928
1,76,117,20
1,76,127,132
1,78,127,120
1,80,127,152
1,81,127,120
1,80,127,184
1,78,121,12
1,64,127,1608
1,66,127,1192
1,64,111,8
1,64,117,80
1,66,127,288
1,68,127,208
1,69,127,244
1,68,123,228
1,66,127,156
1,68,121,2596
2,28,116,23036
2,40,110,80
2,40,106,96
2,37,121,8
2,40,108,48
2,40,105,28
2,37,121,8
2,28,115,60
2,40,109,668
2,40,103,92
2,37,106,28
2,40,104,48
2,40,101,36
2,37,114,8
2,28,123,72
2,40,116,668
2,40,108,64
2,37,117,28
2,40,111,64
2,40,108,44
2,37,117,28
2,28,120,72
2,40,109,668
2,40,102,100
2,37,109,28
2,40,107,80
2,37,114,188
2,28,116,52
2,40,108,8
2,40,103,84
2,37,108,20
2,40,102,52
2,40,99,36
2,37,114,28
2,28,115,44
2,40,108,24
2,40,103,112
2,37,113,36
2,40,99,72
2,40,101,36
2,37,121,24
2,28,113,88
2,40,113,668
2,40,105,100
2,37,113,36
2,40,103,72
2,40,101,36
2,37,117,24
2,28,116,80
2,40,111,668
2,40,109,100
2,37,121,28
2,40,99,72
2,40,101,48
2,37,124,16
2,28,118,80
2,40,107,668
2,40,105,92
2,37,124,20
2,40,107,80
2,37,124,92
2,28,115,96
2,40,102,60
2,40,104,116
2,37,113,28
2,40,106,88
2,40,102,36
2,37,117,32
2,28,116,108
2,40,106,8
2,40,103,100
2,37,107,16
2,40,103,76
2,40,103,36
2,37,114,8
2,28,107,92
2,40,115,668
2,40,107,104
2,37,117,20
2,40,107,88
2,37,124,92
2,28,116,116
2,40,123,668
2,40,106,100
2,37,115,24
2,40,106,88
2,40,103,36
2,37,127,24
2,28,116,80
2,40,116,668
2,40,106,96
2,37,117,16
2,40,106,56
2,40,105,44
2,37,124,16
2,28,116,92
2,40,109,668
2,40,106,104
2,37,124,28
2,40,106,92
2,40,101,28
2,37,121,16
2,28,118,16
2,40,108,668
2,40,104,80
2,37,113,16
2,40,106,64
2,37,117,12
2,28,115,80
2,40,108,668
2,40,106,92
2,37,113,16
2,40,106,88
2,40,101,40
2,37,121,16
2,28,115,88
2,40,109,672
2,40,101,92
2,37,112,20
2,40,106,76
2,37,117,48
2,28,115,80
2,40,110,8
2,40,102,76
2,37,113,16
2,40,103,68
2,40,99,36
2,37,107,16
2,28,113,36
2,40,106,8
2,40,98,76
2,37,103,28
2,40,105,96
2,37,108,12
2,33,123,80
2,42,115,864
2,33,101,92
2,40,109,28
2,33,118,0
2,42,117,8
2,33,106,92
2,40,113,24
2,33,108,188
2,31,106,24
2,40,109,860
2,31,107,72
2,38,110,0
2,31,115,4
2,40,106,860
2,31,110,76
2,38,104,16
2,38,100,36
2,31,111,16
2,33,127,4
2,42,113,864
2,33,106,76
2,40,107,32
2,33,113,384
2,42,113,848
2,33,105,64
2,40,110,12
2,35,107,384
2,44,115,832
2,35,107,92
2,42,115,12
2,35,106,192
2,35,123,24
2,35,123,92
2,35,116,96
2,35,123,68
2,35,103,108
2,40,115,36
2,40,102,148
2,40,105,88
2,52,95,284
2,52,89,112
2,40,110,36
2,37,127,196
2,37,119,152
2,37,113,100
2,49,121,284
2,49,103,128
2,37,114,36
2,38,125,196
2,38,107,144
2,38,116,92
2,38,103,120
2,38,125,92
2,38,102,184
2,38,104,68
2,33,100,196
2,35,102,172
2,40,107,32
2,40,106,136
2,40,106,88
2,52,96,56
2,37,127,16
2,37,121,156
2,37,117,100
2,49,112,284
2,49,104,120
2,37,109,44
2,38,116,68
2,38,111,148
2,38,107,92
2,50,102,284
2,50,99,100
2,38,115,36
2,35,116,72
2,35,111,120
2,35,107,88
2,35,113,84
2,35,106,120
2,28,120,80
2,40,99,156
2,40,106,96
2,37,113,16
2,40,105,196
2,37,121,172
2,28,120,68
2,40,106,668
2,40,100,92
2,37,96,24
2,40,101,88
2,28,110,16
2,40,99,96
2,40,94,104
2,37,98,32
2,40,96,120
2,37,101,4
2,28,120,24
2,40,107,668
2,40,99,76
2,37,106,28
2,40,105,60
2,37,98,188
2,28,118,180
2,40,104,12
2,40,94,96
2,37,96,20
2,40,99,192
2,37,99,184
2,28,118,8
2,40,107,668
2,40,95,84
2,37,106,32
2,40,101,96
2,37,105,188
2,28,127,192
2,40,103,660
2,40,97,100
2,37,108,28
2,40,101,44
2,40,87,36
2,37,101,8
2,28,109,196
2,40,105,40
2,40,101,68
2,37,103,40
2,40,104,80
2,37,100,60
2,28,108,136
2,40,104,4
2,40,96,96
2,37,102,20
2,40,97,36
2,40,87,36
2,37,102,36
2,28,120,0
2,40,104,668
2,40,99,112
2,37,102,40
2,40,106,68
2,37,104,96
2,28,127,192
2,40,108,664
2,40,104,4
2,37,102,20
2,40,108,28
2,37,115,4
2,28,127,16
2,40,113,0
2,40,107,76
2,37,114,20
2,40,107,0
2,40,83,36
2,37,115,16
2,28,127,196
2,40,110,664
2,40,97,92
2,37,109,12
2,40,107,20
2,37,114,0
2,28,127,196
2,40,103,664
2,40,91,84
2,37,114,20
2,40,106,40
2,40,89,56
2,37,121,52
2,28,120,64
2,40,110,28
2,40,97,116
2,37,113,40
2,40,109,108
2,37,121,12
2,28,120,28
2,40,108,668
2,40,97,120
2,37,117,32
2,40,106,88
2,40,83,36
2,37,117,28
2,33,110,108
2,42,119,16
2,33,106,88
2,40,104,32
2,33,111,384
2,42,117,852
2,33,111,72
2,40,110,40
2,31,118,4
2,40,116,8
2,31,110,48
2,38,105,28
2,31,120,8
2,40,116,860
2,31,111,84
2,33,127,416
2,42,124,864
2,33,111,100
2,40,116,20
2,33,120,12
2,42,121,860
2,33,111,64
2,40,113,12
2,35,111,32
2,35,108,152
2,42,124,20
2,35,109,384
2,35,113,16
2,35,102,96
2,35,108,52
2,35,102,52
2,35,99,84
2,28,113,0
2,40,106,172
2,40,108,96
2,52,95,284
2,52,103,104
2,40,109,28
2,37,127,4
2,37,119,172
2,37,108,108
2,32,106,384
2,37,109,16
2,38,96,20
2,38,98,136
2,38,102,88
2,50,94,112
2,38,115,236
2,38,102,128
2,38,106,60
2,33,105,0
2,35,102,4
2,40,111,196
2,40,102,144
2,40,104,100
2,52,102,284
2,52,108,160
2,40,108,64
2,37,127,76
2,49,111,12
2,37,106,164
2,37,115,144
2,37,121,112
2,38,113,0
2,38,97,152
2,38,101,88
2,33,93,188
2,35,99,180
2,38,111,176
2,35,115,12
2,47,99,104
2,47,106,140
2,35,108,52
2,35,105,80
2,35,116,44
2,40,116,12
2,40,105,184
2,40,106,92
2,52,102,284
2,52,100,144
2,40,108,64
2,37,124,124
2,49,121,20
2,37,106,164
2,37,124,144
2,49,115,284
2,49,115,148
2,37,117,56
2,38,108,8
2,38,99,128
2,38,99,88
2,33,94,28
2,35,91,96
2,38,111,8
2,38,101,144
2,38,110,100
2,38,107,36
2,38,115,112
2,40,118,184
2,40,106,160
2,40,109,96
2,52,109,16
2,52,107,152
2,40,106,68
2,37,127,144
2,37,121,180
2,37,124,124
2,49,111,284
2,49,106,152
2,37,113,44
2,38,120,88
2,38,104,160
2,38,106,108
2,38,108,128
2,35,113,64
2,35,95,92
2,35,95,72
2,35,99,88
2,35,93,116
2,28,127,96
2,40,103,0
2,40,99,116
2,37,106,36
2,40,104,80
2,37,109,12
2,28,125,32
2,40,102,668
2,40,93,128
2,37,106,40
2,40,103,60
2,40,88,24
2,37,106,20
2,28,109,4
2,40,102,668
2,40,96,120
2,37,106,28
2,40,102,44
2,40,86,36
2,37,112,16
2,28,118,196
2,40,107,664
2,40,100,104
2,37,114,32
2,40,106,80
2,40,91,24
2,37,119,16
2,35,115,44
2,35,99,28
2,35,106,44
2,35,110,16
2,35,100,84
2,40,125,16
2,40,103,188
2,40,110,128
2,52,107,284
2,52,106,140
2,40,105,56
2,37,124,116
2,37,114,148
2,37,119,116
2,37,121,68
2,37,107,104
2,32,99,8
2,35,90,96
2,38,113,20
2,38,115,196
2,38,106,100
2,38,100,60
2,38,95,164
2,38,81,28
2,38,99,116
2,38,96,136
2,38,95,92
2,50,95,12
2,38,103,44
2,38,104,112
2,33,95,12
2,35,102,96
2,40,113,16
2,40,104,132
2,40,103,104
2,52,95,16
2,52,96,132
2,35,105,36
2,37,114,96
2,37,112,164
2,37,111,116
2,49,119,284
2,49,111,136
2,37,117,40
2,38,113,196
2,33,102,164
2,35,103,92
2,38,109,0
2,38,103,32
2,38,96,92
2,33,98,28
2,42,124,196
2,42,121,100
2,30,127,384
2,42,109,16
2,30,124,384
2,28,123,92
2,28,111,76
2,28,108,96
2,28,103,36
2,28,94,184
2,28,91,456
2,26,85,88
2,28,84,0
2,38,127,11912
2,40,127,68
2,42,127,76
2,44,124,56
2,45,113,48
2,47,105,0
2,40,127,8
2,40,109,160
2,40,106,96
2,52,99,0
2,52,97,148
2,40,111,68
2,37,127,116
2,32,96,128
2,35,91,8
2,37,119,4
2,37,108,88
2,38,113,196
2,38,92,172
2,38,96,84
2,38,104,60
2,33,94,136
2,35,99,96
2,38,108,0
2,38,106,68
2,50,103,28
2,38,113,332
2,50,103,8
2,50,97,112
2,38,118,40
2,40,111,192
2,40,104,156
2,40,107,100
2,40,106,120
2,37,115,24
2,37,114,188
2,37,109,100
