track,note,velocity,time
3,72,111,5212
3,72,0,37
3,72,127,53
3,72,0,141
3,72,100,37
3,72,0,48
3,72,126,57
3,72,0,31
3,72,103,52
3,72,0,37
3,72,123,58
3,72,0,48
3,72,96,41
3,72,0,100
3,70,92,11
3,70,0,69
3,69,83,30
3,69,0,42
3,70,107,43
3,70,0,78
3,69,89,21
3,69,0,110
3,72,127,84
3,72,0,268
3,65,117,10
3,65,0,53
3,72,127,48
3,72,0,157
3,72,100,36
3,72,0,42
3,72,117,53
3,72,0,41
3,72,96,53
3,72,0,37
3,72,113,69
3,72,0,37
3,72,98,57
3,72,0,58
3,70,107,37
3,70,0,62
3,69,86,21
3,69,0,57
3,70,127,53
3,70,0,74
3,69,93,25
3,69,0,164
3,65,108,36
3,65,0,352
3,72,127,31
3,72,0,147
3,72,103,37
3,72,0,48
3,72,98,53
3,72,0,36
3,72,96,58
3,72,0,37
3,72,123,51
3,72,0,174
3,70,115,15
3,70,0,80
3,68,82,14
3,68,0,53
3,70,127,53
3,70,0,89
3,68,107,10
3,68,0,74
3,72,123,110
3,72,0,267
3,65,106,16
3,65,0,58
3,72,127,48
3,72,0,152
3,72,106,41
3,72,0,148
3,72,111,41
3,72,0,159
3,72,108,36
3,72,0,79
3,70,84,9
3,70,0,53
3,69,83,27
3,69,0,68
3,70,122,36
3,70,0,79
3,69,89,22
3,69,0,183
3,65,103,22
3,65,0,366
3,72,127,32
3,72,0,127
3,72,100,46
3,72,0,42
3,72,117,53
3,72,0,41
3,72,100,53
3,72,0,37
3,72,123,62
3,72,0,48
3,72,86,53
3,72,0,58
3,70,111,25
3,70,0,79
3,68,111,6
3,68,0,58
3,70,127,52
3,70,0,88
3,68,94,21
3,68,0,143
3,72,126,41
3,72,0,175
3,65,106,20
3,65,0,42
3,65,100,53
3,65,0,41
3,65,93,47
3,65,0,43
3,72,93,51
3,72,0,43
3,72,89,58
3,72,0,37
3,72,113,53
3,72,0,51
3,70,127,57
3,70,0,263
3,68,127,22
3,68,0,63
3,65,93,36
3,65,0,79
3,72,120,598
3,72,0,79
3,72,120,27
3,72,0,125
3,72,126,625
3,72,0,272
3,70,111,5
3,70,0,85
3,69,108,5
3,69,0,78
3,72,123,37
3,72,0,80
3,72,127,219
3,72,0,74
3,72,127,692
3,72,0,247
3,70,119,32
3,70,0,69
3,69,108,25
3,69,0,74
3,72,117,16
3,72,0,69
3,72,127,230
3,72,0,74
3,72,127,702
3,72,0,253
3,70,125,25
3,70,0,85
3,68,96,0
3,68,0,67
3,72,123,21
3,72,0,69
3,72,108,42
3,72,0,64
3,72,127,124
3,72,0,64
3,72,127,698
3,72,0,294
3,70,107,0
3,70,0,88
3,69,96,12
3,69,0,62
3,72,127,27
3,72,0,67
3,72,127,232
3,72,0,84
3,70,127,1155
3,68,92,94
3,70,0,16
3,68,0,67
3,65,98,7
3,65,0,57
3,65,127,42
3,65,0,661
3,65,117,704
3,65,0,62
3,72,127,26
3,72,0,48
3,72,126,57
3,72,0,32
3,72,127,58
3,72,0,152
3,72,117,37
3,72,0,41
3,72,127,53
3,72,0,32
3,72,127,58
3,72,0,161
3,70,111,28
3,70,0,83
3,69,91,21
3,69,0,48
3,70,125,36
3,70,0,84
3,69,113,16
3,69,0,152
3,72,127,41
3,72,0,179
3,65,89,16
3,65,0,47
3,65,103,48
3,65,0,32
3,65,108,51
3,65,0,43
3,72,127,58
3,72,0,147
3,72,108,42
3,72,0,36
3,72,113,63
3,72,0,37
3,72,113,62
3,72,0,37
3,72,106,53
3,72,0,84
3,70,111,10
3,70,0,78
3,69,86,16
3,69,0,48
3,70,127,47
3,70,0,85
3,69,108,16
3,69,0,152
3,65,123,52
3,65,0,357
3,72,127,31
3,72,0,147
3,72,106,32
3,72,0,41
3,72,100,58
3,72,0,42
3,72,86,52
3,72,0,37
3,72,126,63
3,72,0,174
3,70,107,21
3,70,0,83
3,68,89,11
3,68,0,53
3,70,127,42
3,70,0,89
3,68,100,10
3,68,0,110
3,72,127,99
3,72,0,58
3,65,120,331
3,65,0,53
3,72,127,16
3,72,0,157
3,72,120,32
3,72,0,157
3,72,126,36
3,72,0,180
3,70,115,25
3,70,0,74
3,69,80,16
3,69,0,62
3,70,127,32
3,70,0,83
3,69,106,16
3,69,0,164
3,65,120,36
3,65,0,100
3,72,127,283
3,72,0,152
3,72,100,37
3,72,0,36
3,72,108,58
3,72,0,43
3,72,91,51
3,72,0,37
3,72,120,48
3,72,0,163
3,70,119,31
3,70,0,85
3,68,84,16
3,68,0,46
3,70,127,48
3,70,0,88
3,68,107,11
3,68,0,143
3,72,111,51
3,72,0,184
3,65,100,21
3,65,0,52
3,65,85,48
3,65,0,31
3,65,86,53
3,65,0,52
3,72,120,47
3,72,0,37
3,72,96,57
3,72,0,43
3,72,113,58
3,72,0,46
3,70,127,53
3,70,0,258
3,68,127,25
3,68,0,58
3,65,113,37
3,65,0,89
3,72,127,514
3,72,0,147
3,72,127,32
3,72,0,152
3,72,127,603
3,72,0,269
3,70,125,10
3,70,0,89
3,69,93,5
3,69,0,85
3,72,127,14
3,72,0,80
3,72,127,226
3,72,0,83
3,72,127,688
3,72,0,251
3,70,127,12
3,69,106,94
3,70,0,16
3,69,0,58
3,72,126,25
3,72,0,64
3,72,126,42
3,72,0,62
3,72,127,127
3,72,0,68
3,72,127,703
3,72,0,278
3,70,100,0
3,70,0,79
3,68,104,11
3,68,0,78
3,72,123,21
3,72,0,53
3,72,127,251
3,72,0,64
3,72,127,698
3,72,0,288
3,70,119,11
3,70,0,78
3,69,106,11
3,69,0,63
3,72,127,21
3,72,0,62
3,72,126,48
3,72,0,58
3,72,127,131
3,72,0,73
3,70,127,1176
3,68,115,84
3,70,0,11
3,68,0,73
3,65,100,15
3,65,0,59
3,65,127,46
3,65,0,452
3,72,127,10129
3,72,0,58
3,72,113,25
3,72,0,48
3,72,117,47
3,72,0,41
3,72,127,48
3,72,0,162
3,72,111,37
3,72,0,43
3,72,106,51
3,72,0,37
3,72,127,53
3,72,0,168
3,70,111,27
3,70,0,83
3,69,89,0
3,69,0,63
3,70,125,32
3,70,0,99
3,69,106,0
3,69,0,105
3,72,127,95
3,72,0,62
3,72,127,299
3,72,0,184
3,72,100,37
3,72,0,42
3,72,98,57
3,72,0,32
3,72,93,42
3,72,0,43
3,72,106,63
3,72,0,48
3,72,98,46
3,72,0,62
3,70,122,32
3,70,0,79
3,69,69,16
3,69,0,53
3,70,127,41
3,70,0,79
3,69,100,27
3,69,0,168
3,65,127,25
3,65,0,394
3,72,123,0
3,72,0,163
3,72,111,21
3,72,0,168
3,72,127,32
3,72,0,173
3,72,120,25
3,70,122,90
3,72,0,5
3,68,119,85
3,70,0,4
3,68,0,53
3,70,122,26
3,68,100,94
3,70,0,7
3,68,0,161
3,72,120,32
3,72,0,200
3,65,108,5
3,65,0,42
3,65,89,41
3,65,0,53
3,72,127,37
3,72,0,163
3,72,103,37
3,72,0,46
3,72,86,58
3,72,0,37
3,72,93,48
3,72,0,41
3,72,123,58
3,72,0,168
3,70,96,25
3,70,0,69
3,69,91,16
3,69,0,69
3,70,127,26
3,70,0,94
3,69,108,5
3,69,0,158
3,65,126,37
3,65,0,62
3,72,127,336
3,72,0,148
3,72,100,36
3,72,0,42
3,72,108,53
3,72,0,41
3,72,93,48
3,72,0,36
3,72,127,59
3,72,0,173
3,70,119,25
3,70,0,74
3,68,75,16
3,68,0,53
3,70,115,46
3,68,94,106
3,70,0,4
3,68,0,79
3,72,117,101
3,72,0,172
3,65,108,21
3,65,0,48
3,65,83,47
3,65,0,36
3,65,106,53
3,65,0,47
3,72,108,57
3,72,0,37
3,72,89,58
3,72,0,36
3,72,117,53
3,72,0,64
3,70,127,42
3,70,0,267
3,68,119,11
3,68,0,74
3,65,117,25
3,65,0,79
3,72,127,504
3,72,0,147
3,72,127,32
3,72,0,854
3,72,127,28
3,72,0,161
3,70,127,11
3,70,0,90
3,69,83,0
3,69,0,67
3,72,120,21
3,72,0,90
3,72,127,241
3,72,0,63
3,72,127,704
3,72,0,147
3,72,126,37
3,70,127,83
3,72,0,11
3,70,0,67
3,69,96,16
3,69,0,58
3,72,123,37
3,72,0,48
3,72,127,52
3,72,0,68
3,72,127,115
3,72,0,69
3,72,127,718
3,72,0,232
3,70,125,30
3,70,0,80
3,68,96,15
3,68,0,80
3,72,123,14
3,72,0,80
3,72,127,251
3,72,0,69
3,72,127,687
3,72,0,252
3,70,119,16
3,70,0,88
3,69,103,7
3,69,0,62
3,72,127,32
3,72,0,67
3,72,127,44
3,72,0,88
3,72,127,116
3,72,0,74
3,70,127,1170
3,68,104,94
3,70,0,5
3,68,0,64
3,65,108,21
3,65,0,52
3,65,127,52
3,65,0,540
4,72,127,13920
4,72,0,168
4,72,127,24
4,72,0,168
4,72,127,24
4,72,0,168
4,72,127,24
4,72,0,83
4,62,127,109
4,62,0,83
4,63,110,13
4,63,0,83
4,60,110,13
4,60,0,83
4,63,127,13
4,63,0,83
4,65,110,13
4,65,0,36
4,62,127,1116
4,62,0,83
4,63,110,13
4,63,0,83
4,60,110,13
4,60,0,83
4,63,127,13
4,63,0,83
4,65,110,13
4,65,0,36
4,62,127,1116
4,62,0,83
4,62,110,13
4,62,0,83
4,58,110,13
4,58,0,83
4,62,127,13
4,62,0,83
4,65,110,13
4,65,0,36
4,62,127,1116
4,62,0,83
4,63,110,13
4,63,0,83
4,60,110,13
4,60,0,83
4,63,127,13
4,63,0,83
4,65,110,13
4,65,0,36
4,72,110,1020
4,72,0,75
4,72,110,117
4,72,0,75
4,72,127,117
4,72,0,83
4,72,110,13
4,72,0,75
4,70,127,117
4,70,0,840
4,65,110,120
4,65,0,83
4,63,110,13
4,63,0,83
4,60,110,13
4,60,0,83
4,65,127,13
4,65,0,168
4,63,127,24
4,63,0,83
4,60,110,13
4,60,0,36
4,60,110,156
4,60,0,36
4,60,110,60
4,60,0,36
4,60,127,60
4,60,0,456
4,72,127,8568
4,72,0,168
4,72,127,24
4,72,0,168
4,72,127,24
4,72,0,168
4,72,127,24
4,72,0,83
4,62,127,109
4,62,0,83
4,63,110,13
4,63,0,83
4,60,110,13
4,60,0,83
4,63,127,13
4,63,0,83
4,65,110,13
4,65,0,36
4,62,127,1116
4,62,0,83
4,63,110,13
4,63,0,83
4,60,110,13
4,60,0,83
4,63,127,13
4,63,0,83
4,65,110,13
4,65,0,36
4,62,127,1116
4,62,0,83
4,62,110,13
4,62,0,83
4,58,110,13
4,58,0,83
4,62,127,13
4,62,0,83
4,65,110,13
4,65,0,36
4,62,127,1116
4,62,0,83
4,63,110,13
4,63,0,83
4,60,110,13
4,60,0,83
4,63,127,13
4,63,0,83
4,65,110,13
4,65,0,36
4,72,110,1020
4,72,0,75
4,72,110,117
4,72,0,75
4,72,127,117
4,72,0,83
4,72,110,13
4,72,0,75
4,70,127,117
4,70,0,840
4,65,110,120
4,65,0,83
4,63,110,13
4,63,0,83
4,60,110,13
4,60,0,83
4,65,127,13
4,65,0,168
4,63,127,24
4,63,0,83
4,60,110,13
4,60,0,36
4,69,110,540
4,69,0,83
4,72,110,13
4,72,0,83
4,74,110,13
4,74,0,83
4,77,127,13
4,77,0,83
4,77,127,205
4,77,0,83
4,77,127,397
4,77,0,83
4,77,127,205
4,77,0,83
4,77,127,397
4,77,0,83
4,77,127,205
4,77,0,83
4,68,127,397
4,68,0,83
4,68,110,13
4,68,0,75
4,68,127,117
4,68,0,264
4,72,127,14904
4,72,0,168
4,72,127,24
4,72,0,168
4,72,127,24
4,72,0,168
4,72,127,24
4,72,0,83
4,62,127,109
4,62,0,83
4,63,110,13
4,63,0,83
4,60,110,13
4,60,0,83
4,63,127,13
4,63,0,83
4,65,110,13
4,65,0,36
4,62,127,1116
4,62,0,83
4,63,110,13
4,63,0,83
4,60,110,13
4,60,0,83
4,63,127,13
4,63,0,83
4,65,110,13
4,65,0,36
4,62,127,1116
4,62,0,83
4,62,110,13
4,62,0,83
4,58,110,13
4,58,0,83
4,62,127,13
4,62,0,83
4,65,110,13
4,65,0,36
4,62,127,1116
4,62,0,83
4,63,110,13
4,63,0,83
4,60,110,13
4,60,0,83
4,63,127,13
4,63,0,83
4,65,110,13
4,65,0,36
4,72,110,1020
4,72,0,75
4,72,110,117
4,72,0,75
4,72,110,117
4,72,0,36
4,72,127,60
4,72,0,264
4,70,110,24
4,70,0,75
4,70,127,117
4,70,0,552
4,77,127,1368
4,77,0,936
5,64,126,13920
5,64,0,168
5,64,126,24
5,64,0,168
5,64,126,24
5,64,0,168
5,64,126,24
5,64,0,83
5,60,126,109
5,60,0,83
5,60,100,13
5,60,0,83
5,57,100,13
5,57,0,83
5,60,126,13
5,60,0,83
5,62,100,13
5,62,0,36
5,60,126,1116
5,60,0,83
5,60,100,13
5,60,0,83
5,57,100,13
5,57,0,83
5,60,126,13
5,60,0,83
5,62,100,13
5,62,0,36
5,58,126,1116
5,58,0,83
5,58,100,13
5,58,0,83
5,55,100,13
5,55,0,83
5,58,126,13
5,58,0,83
5,62,100,13
5,62,0,36
5,60,126,1116
5,60,0,83
5,60,100,13
5,60,0,83
5,57,100,13
5,57,0,83
5,60,126,13
5,60,0,83
5,62,100,13
5,62,0,36
5,64,100,1020
5,64,0,75
5,64,100,117
5,64,0,75
5,64,126,117
5,64,0,83
5,64,100,13
5,64,0,75
5,62,126,117
5,62,0,840
5,65,100,120
5,65,0,83
5,63,100,13
5,63,0,83
5,60,100,13
5,60,0,83
5,65,126,13
5,65,0,168
5,63,126,24
5,63,0,83
5,60,100,13
5,60,0,36
5,48,100,156
5,48,0,36
5,48,100,60
5,48,0,36
5,48,126,60
5,48,0,456
5,64,126,8568
5,64,0,168
5,64,126,24
5,64,0,168
5,64,126,24
5,64,0,168
5,64,126,24
5,64,0,83
5,60,126,109
5,60,0,83
5,60,100,13
5,60,0,83
5,57,100,13
5,57,0,83
5,60,126,13
5,60,0,83
5,62,100,13
5,62,0,36
5,60,126,1116
5,60,0,83
5,60,100,13
5,60,0,83
5,57,100,13
5,57,0,83
5,60,126,13
5,60,0,83
5,62,100,13
5,62,0,36
5,58,126,1116
5,58,0,83
5,58,100,13
5,58,0,83
5,55,100,13
5,55,0,83
5,58,126,13
5,58,0,83
5,62,100,13
5,62,0,36
5,60,126,1116
5,60,0,83
5,60,100,13
5,60,0,83
5,57,100,13
5,57,0,83
5,60,126,13
5,60,0,83
5,62,100,13
5,62,0,36
5,64,100,1020
5,64,0,75
5,64,100,117
5,64,0,75
5,64,126,117
5,64,0,83
5,64,100,13
5,64,0,75
5,62,126,117
5,62,0,840
5,65,100,120
5,65,0,83
5,63,100,13
5,63,0,83
5,60,100,13
5,60,0,83
5,65,126,13
5,65,0,168
5,63,126,24
5,63,0,83
5,60,100,13
5,60,0,36
5,57,100,540
5,57,0,83
5,60,100,13
5,60,0,83
5,62,100,13
5,62,0,83
5,69,126,13
5,69,0,83
5,69,126,205
5,69,0,83
5,68,126,397
5,68,0,83
5,68,126,205
5,68,0,83
5,69,126,397
5,69,0,83
5,69,126,205
5,69,0,83
5,63,100,397
5,63,0,83
5,63,100,13
5,63,0,75
5,63,100,117
5,63,0,264
5,64,126,14904
5,64,0,168
5,64,126,24
5,64,0,168
5,64,126,24
5,64,0,168
5,64,126,24
5,64,0,83
5,60,126,109
5,60,0,83
5,60,100,13
5,60,0,83
5,57,100,13
5,57,0,83
5,60,126,13
5,60,0,83
5,62,100,13
5,62,0,36
5,60,126,1116
5,60,0,83
5,60,100,13
5,60,0,83
5,57,100,13
5,57,0,83
5,60,126,13
5,60,0,83
5,62,100,13
5,62,0,36
5,58,126,1116
5,58,0,83
5,58,100,13
5,58,0,83
5,55,100,13
5,55,0,83
5,58,126,13
5,58,0,83
5,62,100,13
5,62,0,36
5,60,126,1116
5,60,0,83
5,60,100,13
5,60,0,83
5,57,100,13
5,57,0,83
5,60,126,13
5,60,0,83
5,62,100,13
5,62,0,36
5,64,100,1020
5,64,0,75
