track,note,velocity,time
0,45,90,480
0,57,90,0
0,57,0,83
0,45,0,0
0,48,90,13
0,60,90,0
0,60,0,83
0,48,0,0
0,50,90,13
0,62,90,0
0,62,0,83
0,50,0,0
0,53,90,13
0,57,90,0
0,60,90,0
0,65,90,0
0,41,90,0
0,48,90,0
0,29,110,0
0,40,126,0
0,49,126,0
0,36,126,0
0,65,0,83
0,53,0,0
0,57,0,0
0,60,0,0
0,53,90,13
0,57,90,0
0,60,90,0
0,65,90,0
0,36,0,72
0,49,0,0
0,40,0,0
0,65,0,11
0,53,0,0
0,57,0,0
0,60,0,0
0,53,90,13
0,57,90,0
0,60,90,0
0,65,90,0
0,65,0,83
0,53,0,0
0,57,0,0
0,60,0,0
0,53,90,13
0,57,90,0
0,60,90,0
0,65,90,0
0,65,0,83
0,53,0,0
0,57,0,0
0,60,0,0
0,53,90,13
0,57,90,0
0,60,90,0
0,65,90,0
0,65,0,83
0,53,0,0
0,57,0,0
0,60,0,0
0,53,90,13
0,57,90,0
0,60,90,0
0,65,90,0
0,65,0,83
0,53,0,0
0,57,0,0
0,60,0,0
0,53,90,13
0,57,90,0
0,60,90,0
0,65,90,0
0,65,0,83
0,53,0,0
0,57,0,0
0,60,0,0
0,53,90,13
0,57,90,0
0,60,90,0
0,65,90,0
0,48,0,72
0,41,0,0
0,29,0,0
0,65,0,11
0,53,0,0
0,57,0,0
0,60,0,0
0,53,90,13
0,65,90,0
0,41,90,0
0,48,90,0
0,29,110,0
0,40,126,0
0,49,126,0
0,36,126,0
0,65,0,83
0,53,0,0
0,51,90,13
0,63,90,0
0,36,0,72
0,49,0,0
0,40,0,0
0,63,0,11
0,51,0,0
0,48,90,13
0,60,90,0
0,60,0,83
0,48,0,0
0,46,90,13
0,58,90,0
0,58,0,83
0,46,0,0
0,44,90,13
0,56,90,0
0,56,0,83
0,44,0,0
0,41,90,13
0,53,90,0
0,53,0,83
0,41,0,0
0,44,90,13
0,56,90,0
0,56,0,83
0,44,0,0
0,46,90,13
0,58,90,0
0,48,0,72
0,41,0,0
0,29,0,0
0,58,0,11
0,46,0,0
0,48,90,13
0,53,90,0
0,57,90,0
0,60,90,0
0,41,90,0
0,48,90,0
0,29,110,0
0,35,80,0
0,42,100,0
0,42,0,48
0,35,0,0
0,60,0,35
0,48,0,0
0,53,0,0
0,57,0,0
0,48,90,13
0,53,90,0
0,57,90,0
0,60,90,0
0,42,70,0
0,42,0,48
0,60,0,35
0,48,0,0
0,53,0,0
0,57,0,0
0,50,90,13
0,53,90,0
0,57,90,0
0,62,90,0
0,38,90,0
0,42,100,0
0,42,0,48
0,38,0,0
0,42,70,48
0,42,0,48
0,62,0,24
0,50,0,0
0,53,0,0
0,57,0,0
0,48,90,24
0,53,90,0
0,57,90,0
0,60,90,0
0,35,80,0
0,42,100,0
0,42,0,48
0,35,0,0
0,38,55,48
0,42,70,0
0,42,0,48
0,38,0,0
0,60,0,24
0,48,0,0
0,53,0,0
0,57,0,0
0,50,90,24
0,53,90,0
0,57,90,0
0,62,90,0
0,38,90,0
0,42,100,0
0,42,0,48
0,38,0,0
0,62,0,35
0,50,0,0
0,53,0,0
0,57,0,0
0,48,90,13
0,53,90,0
0,57,90,0
0,60,90,0
0,46,72,0
0,46,0,48
0,48,0,24
0,41,0,0
0,29,0,0
0,60,0,11
0,48,0,0
0,53,0,0
0,57,0,0
0,41,90,13
0,48,90,0
0,29,110,0
0,35,80,0
0,42,100,0
0,42,0,48
0,35,0,0
0,48,90,48
0,53,90,0
0,57,90,0
0,60,90,0
0,42,70,0
0,42,0,48
0,60,0,35
0,48,0,0
0,53,0,0
0,57,0,0
0,50,90,13
0,53,90,0
0,57,90,0
0,62,90,0
0,38,90,0
0,42,100,0
0,42,0,48
0,38,0,0
0,42,70,48
0,42,0,48
0,62,0,24
0,50,0,0
0,53,0,0
0,57,0,0
0,48,90,24
0,53,90,0
0,57,90,0
0,60,90,0
0,35,80,0
0,42,100,0
0,42,0,48
0,35,0,0
0,38,55,48
0,42,70,0
0,42,0,48
0,38,0,0
0,60,0,24
0,48,0,0
0,53,0,0
0,57,0,0
0,50,90,24
0,53,90,0
0,57,90,0
0,62,90,0
0,38,90,0
0,42,100,0
0,42,0,48
0,38,0,0
0,38,70,48
0,42,70,0
0,42,0,48
0,38,0,0
0,62,0,24
0,50,0,0
0,53,0,0
0,57,0,0
0,48,0,0
0,41,0,0
0,29,0,0
0,48,90,24
0,53,90,0
0,57,90,0
0,60,90,0
0,41,90,0
0,48,90,0
0,29,110,0
0,35,80,0
0,42,100,0
0,42,0,48
0,35,0,0
0,60,0,35
0,48,0,0
0,53,0,0
0,57,0,0
0,48,90,13
0,53,90,0
0,57,90,0
0,60,90,0
0,42,70,0
0,42,0,48
0,60,0,35
0,48,0,0
0,53,0,0
0,57,0,0
0,50,90,13
0,53,90,0
0,57,90,0
0,62,90,0
0,38,90,0
0,42,100,0
0,42,0,48
0,38,0,0
0,42,70,48
0,42,0,48
0,62,0,24
0,50,0,0
0,53,0,0
0,57,0,0
0,48,90,24
0,53,90,0
0,57,90,0
0,60,90,0
0,35,80,0
0,42,100,0
0,42,0,48
0,35,0,0
0,42,70,48
0,42,0,48
0,60,0,24
0,48,0,0
0,53,0,0
0,57,0,0
0,50,90,24
0,53,90,0
0,57,90,0
0,62,90,0
0,38,90,0
0,42,100,0
0,42,0,48
0,38,0,0
0,62,0,35
0,50,0,0
0,53,0,0
0,57,0,0
0,48,90,13
0,53,90,0
0,57,90,0
0,60,90,0
0,38,70,0
0,46,72,0
0,46,0,48
0,38,0,0
0,48,0,24
0,41,0,0
0,29,0,0
0,60,0,11
0,48,0,0
0,53,0,0
0,57,0,0
0,36,90,13
0,48,90,0
0,24,110,0
0,35,80,0
0,42,70,0
0,41,80,0
0,45,60,0
0,45,0,48
0,35,0,0
0,42,0,0
0,41,0,0
0,48,90,48
0,52,90,0
0,55,90,0
0,60,90,0
0,41,90,0
0,45,80,0
0,45,0,48
0,41,0,0
0,60,0,35
0,48,0,0
0,52,0,0
0,55,0,0
0,48,90,13
0,52,90,0
0,55,90,0
0,60,90,0
0,35,80,0
0,42,70,0
0,41,70,0
0,45,90,0
0,45,0,48
0,35,0,0
0,42,0,0
0,41,0,0
0,60,0,35
0,48,0,0
0,52,0,0
0,55,0,0
0,48,90,13
0,52,90,0
0,55,90,0
0,60,90,0
0,41,90,0
0,45,100,0
0,45,0,48
0,41,0,0
0,60,0,35
0,48,0,0
0,52,0,0
0,55,0,0
0,48,90,13
0,52,90,0
0,55,90,0
0,60,90,0
0,35,80,0
0,38,80,0
0,42,70,0
0,42,0,48
0,38,0,0
0,35,0,0
0,38,60,0
0,60,0,35
0,48,0,0
0,52,0,0
0,55,0,0
0,48,90,13
0,52,90,0
0,55,90,0
0,60,90,0
0,38,0,0
0,38,100,0
0,38,0,48
0,38,70,0
0,60,0,35
0,48,0,0
0,52,0,0
0,55,0,0
0,48,90,13
0,52,90,0
0,55,90,0
0,60,90,0
0,38,0,0
0,35,80,0
0,38,100,0
0,42,70,0
0,72,111,28
0,42,0,20
0,38,0,0
0,35,0,0
0,45,90,0
0,72,0,17
0,60,0,18
0,48,0,0
0,52,0,0
0,55,0,0
0,48,90,13
0,52,90,0
0,55,90,0
0,60,90,0
0,45,0,0
0,41,100,0
0,72,127,22
0,41,0,26
0,48,0,24
0,36,0,0
0,24,0,0
0,60,0,11
0,48,0,0
0,52,0,0
0,55,0,0
0,48,90,0
0,53,90,0
0,57,90,0
0,60,90,0
0,41,90,0
0,29,110,0
0,35,80,0
0,42,100,0
0,49,90,0
0,49,0,48
0,42,0,0
0,35,0,0
0,72,0,19
0,60,0,16
0,48,0,0
0,53,0,0
0,57,0,0
0,48,90,13
0,53,90,0
0,57,90,0
0,60,90,0
0,42,70,0
0,72,100,0
0,42,0,40
0,72,0,8
0,41,0,16
0,29,0,0
0,60,0,11
0,48,0,0
0,53,0,0
0,57,0,0
0,50,90,13
0,53,90,0
0,57,90,0
0,62,90,0
0,45,90,0
0,33,110,0
0,38,90,0
0,42,100,0
0,72,126,9
0,72,0,31
0,42,0,0
0,38,0,0
0,42,70,4
0,72,103,4
0,72,0,37
0,42,0,7
0,62,0,24
0,50,0,0
0,53,0,0
0,57,0,0
0,45,0,0
0,33,0,0
0,48,90,0
0,53,90,0
0,57,90,0
0,60,90,0
0,48,90,0
0,36,110,0
0,35,80,0
0,42,100,0
0,72,123,3
0,42,0,45
0,35,0,0
0,72,0,3
0,72,96,4
0,42,70,4
0,42,0,48
0,60,0,24
0,48,0,0
0,53,0,0
0,57,0,0
0,48,0,0
0,36,0,0
0,72,0,0
0,50,90,0
0,53,90,0
0,57,90,0
0,62,90,0
0,50,90,0
0,38,110,0
0,38,90,0
0,42,100,0
0,70,92,11
0,42,0,37
0,38,0,0
0,70,0,32
0,62,0,3
0,50,0,0
0,53,0,0
0,57,0,0
0,50,0,0
0,38,0,0
0,48,90,0
0,53,90,0
0,57,90,0
0,60,90,0
0,48,90,0
0,36,110,0
0,42,70,0
0,69,83,14
0,42,0,34
0,69,0,8
0,48,0,27
0,36,0,0
0,41,90,0
0,29,110,0
0,35,80,0
0,42,100,0
0,70,107,3
0,42,0,45
0,35,0,0
0,70,0,33
0,60,0,2
0,48,0,0
0,53,0,0
0,57,0,0
0,48,90,0
0,53,90,0
0,57,90,0
0,60,90,0
0,42,70,0
0,69,89,6
0,42,0,42
0,41,0,24
0,29,0,0
0,60,0,11
0,48,0,0
0,53,0,0
0,57,0,0
0,50,90,13
0,53,90,0
0,57,90,0
0,62,90,0
0,45,90,0
0,33,110,0
0,38,90,0
0,42,100,0
0,69,0,20
0,42,0,28
0,38,0,0
0,42,70,0
0,72,127,8
0,42,0,40
0,62,0,24
0,50,0,0
0,53,0,0
0,57,0,0
0,45,0,0
0,33,0,0
0,48,90,24
0,53,90,0
0,57,90,0
0,60,90,0
0,48,90,0
0,36,110,0
0,35,80,0
0,42,100,0
0,42,0,48
0,35,0,0
0,38,55,48
0,42,70,0
0,42,0,48
0,38,0,0
0,60,0,24
0,48,0,0
0,53,0,0
0,57,0,0
0,48,0,0
0,36,0,0
0,72,0,12
0,65,117,10
0,50,90,2
0,53,90,0
0,57,90,0
0,62,90,0
0,50,90,0
0,38,110,0
0,38,90,0
0,42,100,0
0,42,0,48
0,38,0,0
0,65,0,3
0,50,0,32
0,38,0,0
0,48,90,0
0,36,110,0
0,38,70,0
0,42,70,0
0,72,127,3
0,42,0,45
0,38,0,0
0,62,0,24
0,50,0,0
0,53,0,0
0,57,0,0
0,48,0,11
0,36,0,0
0,48,90,0
0,53,90,0
0,57,90,0
0,60,90,0
0,41,90,0
0,29,110,0
0,35,80,0
0,42,100,0
0,42,0,48
0,35,0,0
0,42,50,0
0,72,0,16
0,60,0,19
0,48,0,0
0,53,0,0
0,57,0,0
0,48,90,0
0,53,90,0
0,57,90,0
0,60,90,0
0,42,0,0
0,42,70,0
0,72,100,4
0,72,0,42
0,42,0,2
0,41,0,24
0,29,0,0
0,60,0,11
0,48,0,0
0,53,0,0
0,57,0,0
0,50,90,0
0,53,90,0
0,57,90,0
0,62,90,0
0,45,90,0
0,33,110,0
0,38,90,0
0,42,100,0
0,72,117,3
0,72,0,41
0,42,0,4
0,38,0,0
0,42,70,0
0,72,96,1
0,72,0,37
0,42,0,10
0,62,0,24
0,50,0,0
0,53,0,0
0,57,0,0
0,45,0,0
0,33,0,0
0,48,90,0
0,53,90,0
0,57,90,0
0,60,90,0
0,48,90,0
0,36,110,0
0,35,80,0
0,42,100,0
0,72,113,11
0,72,0,37
0,42,0,0
0,35,0,0
0,42,70,0
0,72,98,9
0,42,0,39
0,72,0,19
0,60,0,5
0,48,0,0
0,53,0,0
0,57,0,0
0,48,0,0
0,36,0,0
0,50,90,0
0,53,90,0
0,57,90,0
0,62,90,0
0,50,90,0
0,38,110,0
0,38,90,0
0,42,100,0
0,70,107,8
0,42,0,40
0,38,0,0
0,70,0,22
0,62,0,13
0,50,0,0
0,53,0,0
0,57,0,0
0,50,0,0
0,38,0,0
0,69,86,8
0,48,90,0
0,53,90,0
0,57,90,0
0,60,90,0
0,48,90,0
0,36,110,0
0,35,70,0
0,46,72,0
0,46,0,48
0,35,0,0
0,69,0,4
0,48,0,31
0,36,0,0
0,41,90,0
0,29,110,0
0,35,80,0
0,42,100,0
0,70,127,9
0,42,0,39
0,35,0,0
0,70,0,35
0,60,0,0
0,48,0,0
0,53,0,0
0,57,0,0
0,48,90,0
0,53,90,0
0,57,90,0
0,60,90,0
0,42,70,0
0,69,93,12
0,42,0,36
0,41,0,24
0,29,0,0
0,60,0,11
0,48,0,0
0,53,0,0
0,57,0,0
0,50,90,13
0,53,90,0
0,57,90,0
0,62,90,0
0,45,90,0
0,33,110,0
0,38,90,0
0,42,100,0
0,42,0,48
0,38,0,0
0,69,0,32
0,42,70,0
0,65,108,20
0,42,0,28
0,62,0,24
0,50,0,0
0,53,0,0
0,57,0,0
0,45,0,0
0,33,0,0
0,48,90,24
0,53,90,0
0,57,90,0
0,60,90,0
0,48,90,0
0,36,110,0
0,35,80,0
0,42,100,0
0,42,0,48
0,35,0,0
0,38,55,48
0,42,70,0
0,42,0,48
0,38,0,0
0,60,0,24
0,48,0,0
0,53,0,0
0,57,0,0
0,48,0,0
0,36,0,0
0,50,90,24
0,53,90,0
0,57,90,0
0,62,90,0
0,50,90,0
0,38,110,0
0,38,90,0
0,42,100,0
0,42,0,48
0,38,0,0
0,50,0,35
0,38,0,0
0,65,0,1
0,48,90,0
0,36,110,0
0,38,70,0
0,42,70,0
0,72,127,19
0,42,0,29
0,38,0,0
0,62,0,24
0,50,0,0
0,53,0,0
0,57,0,0
0,48,0,11
0,36,0,0
0,53,90,0
0,58,90,0
0,62,90,0
0,65,90,0
0,46,90,0
0,34,110,0
0,35,80,0
0,42,100,0
0,49,90,0
0,49,0,48
0,42,0,0
0,35,0,0
0,72,0,22
0,65,0,13
0,53,0,0
0,58,0,0
0,62,0,0
0,53,90,0
0,58,90,0
0,62,90,0
0,65,90,0
0,42,70,0
0,72,103,11
0,42,0,37
0,72,0,11
0,46,0,13
0,34,0,0
0,65,0,11
0,53,0,0
0,58,0,0
0,62,0,0
0,55,90,0
0,58,90,0
0,62,90,0
0,67,90,0
0,50,90,0
0,38,110,0
0,38,90,0
0,42,100,0
0,72,98,16
0,42,0,32
0,38,0,0
0,72,0,4
0,42,70,44
0,72,96,14
0,42,0,34
0,72,0,3
0,67,0,21
0,55,0,0
0,58,0,0
0,62,0,0
0,50,0,0
0,38,0,0
0,53,90,0
0,58,90,0
0,62,90,0
0,65,90,0
0,53,90,0
0,41,110,0
0,35,80,0
0,42,100,0
0,72,123,6
0,42,0,42
0,35,0,0
0,42,70,0
0,42,0,48
0,65,0,24
0,53,0,0
0,58,0,0
0,62,0,0
0,53,0,0
0,41,0,0
0,72,0,12
0,55,90,0
0,58,90,0
0,62,90,0
0,67,90,0
0,55,90,0
0,43,110,0
0,38,90,0
0,42,100,0
0,70,115,3
0,42,0,45
0,38,0,0
0,70,0,35
0,67,0,0
0,55,0,0
0,58,0,0
0,62,0,0
0,55,0,0
0,43,0,0
0,53,90,0
0,58,90,0
0,62,90,0
0,65,90,0
0,53,90,0
0,41,110,0
0,42,70,0
0,68,82,1
0,42,0,47
0,68,0,6
0,53,0,29
0,41,0,0
0,46,90,0
0,34,110,0
0,35,80,0
0,42,100,0
0,70,127,11
0,42,0,37
0,35,0,0
0,65,0,35
0,53,0,0
0,58,0,0
0,62,0,0
0,53,90,13
0,58,90,0
0,62,90,0
0,65,90,0
0,42,70,0
0,70,0,4
0,68,107,10
0,42,0,34
0,46,0,24
0,34,0,0
0,65,0,11
0,53,0,0
0,58,0,0
0,62,0,0
0,68,0,5
0,55,90,0
0,58,90,0
0,62,90,0
0,67,90,0
0,50,90,0
0,38,110,0
