track,note,velocity,time
2,50,84,7440
2,50,84,88
2,47,84,0
2,47,84,64
2,45,84,128
2,45,84,96
2,38,78,0
2,38,81,68
2,38,81,28
2,38,81,80
2,38,75,32
2,42,71,44
2,38,75,8
2,38,104,112
2,42,78,0
2,44,84,80
2,45,109,0
2,45,103,128
2,40,106,76
2,42,101,36
2,45,104,44
2,45,102,92
2,40,106,88
2,45,99,48
2,47,102,72
2,49,99,124
2,40,106,104
2,42,97,128
2,45,94,92
2,47,99,88
2,40,97,56
2,42,84,96
2,45,94,164
2,49,106,40
2,49,86,92
2,52,99,128
2,52,81,96
2,42,97,128
2,44,99,80
2,45,94,16
2,49,106,40
2,49,86,92
2,52,99,128
2,52,81,96
2,42,97,128
2,44,99,80
2,45,109,16
2,42,92,56
2,40,109,40
2,42,106,56
2,33,109,40
2,37,99,60
2,40,104,4
2,42,112,28
2,45,119,48
2,49,86,96
2,52,109,40
2,40,103,52
2,45,99,44
2,45,104,64
2,40,84,52
2,45,99,44
2,38,104,60
2,42,109,48
2,45,94,60
2,47,104,28
2,38,94,40
2,42,97,32
2,50,92,12
2,40,75,0
2,42,84,0
2,40,84,32
2,45,104,4
2,42,116,48
2,40,94,60
2,37,71,48
2,33,99,40
2,37,81,76
2,40,86,28
2,42,101,60
2,47,106,36
2,49,105,88
2,40,116,56
2,42,96,96
2,47,109,72
2,49,102,68
2,40,112,56
2,42,101,80
2,45,116,120
2,42,115,56
2,40,104,96
2,37,96,96
2,33,94,44
2,37,86,76
2,40,89,48
2,42,84,52
2,45,119,72
2,49,97,92
2,52,112,60
2,40,99,100
2,42,109,20
2,45,119,0
2,45,99,72
2,40,104,52
2,42,116,52
2,45,119,80
2,42,119,60
2,40,109,52
2,37,81,64
2,33,112,48
2,37,91,80
2,40,94,96
2,42,89,60
2,38,107,136
2,42,109,64
2,45,104,24
2,47,104,56
2,48,97,84
2,47,109,56
2,45,104,56
2,38,86,44
2,42,97,128
2,44,92,212
2,45,109,28
2,42,109,60
2,40,109,52
2,37,81,64
2,33,102,48
2,37,81,80
2,40,94,96
2,42,89,60
2,47,106,136
2,49,88,92
2,40,94,64
2,42,92,64
2,47,99,40
2,49,96,56
2,40,94,60
2,42,109,68
2,45,109,136
2,42,119,60
2,40,109,52
2,37,81,64
2,33,112,48
2,37,91,80
2,40,94,96
2,42,99,60
2,45,94,136
2,45,81,72
2,49,81,24
2,49,63,72
2,52,78,128
2,40,78,36
2,42,97,36
2,44,50,44
2,45,104,40
2,42,92,4
2,40,81,32
2,42,71,32
2,33,89,80
2,37,92,84
2,40,94,48
2,42,89,44
2,45,94,20
2,45,99,68
2,40,94,48
2,45,94,32
2,45,99,48
2,38,92,48
2,42,99,128
2,40,84,224
2,45,92,116
2,42,84,8
2,38,99,128
2,42,89,220
2,45,99,0
2,38,92,48
2,42,99,128
2,40,84,224
2,45,92,116
2,42,84,8
2,38,99,128
2,42,89,220
2,45,99,0
2,42,105,68
2,40,84,60
2,37,85,52
2,33,104,44
2,37,94,68
2,40,99,36
2,42,99,44
2,47,109,108
2,47,104,96
2,49,84,128
2,49,81,80
2,52,92,128
2,42,106,88
2,44,92,12
2,47,99,0
2,47,89,72
2,49,81,128
2,49,86,68
2,52,81,128
2,42,97,76
2,44,92,32
2,45,99,4
2,42,105,68
2,40,84,60
2,37,85,52
2,33,104,44
2,37,94,68
2,40,99,36
2,42,99,44
2,45,119,108
2,49,97,92
2,52,112,60
2,40,99,100
2,42,109,20
2,45,119,0
2,45,99,72
2,40,104,52
2,42,116,52
2,45,119,80
2,42,119,60
2,40,109,52
2,37,81,64
2,33,112,48
2,37,91,80
2,40,94,96
2,42,89,60
2,38,107,136
2,42,109,64
2,45,104,24
2,47,104,56
2,48,97,84
2,47,109,56
2,45,104,56
2,38,86,44
2,42,97,128
2,44,92,212
2,45,109,28
2,42,109,60
2,40,109,52
2,37,81,64
2,33,102,48
2,37,81,80
2,40,94,96
2,42,89,60
2,47,106,136
2,49,88,92
2,40,94,64
2,42,92,64
2,47,99,40
2,49,96,56
2,40,94,60
2,42,109,68
2,45,109,136
2,42,119,60
2,40,109,52
2,37,81,64
2,33,112,48
2,37,91,80
2,40,94,96
2,42,99,60
2,45,127,136
2,38,127,1264
2,45,127,1220
2,45,113,424
2,45,127,464
2,45,113,152
2,45,127,172
2,45,127,140
2,38,127,108
2,42,127,60
2,45,122,68
2,47,109,100
2,38,109,80
2,42,127,68
2,45,122,72
2,47,122,60
2,45,127,80
2,42,127,76
2,40,104,72
2,37,116,68
2,33,116,60
2,37,92,76
2,40,97,44
2,42,106,48
2,40,113,100
2,42,89,52
2,47,104,12
2,49,75,384
2,47,99,36
2,49,86,32
2,47,68,12
2,52,86,128
2,49,75,208
2,42,101,16
2,44,86,256
2,45,122,8
2,45,127,40
2,40,89,60
2,42,122,32
2,45,109,40
2,45,127,56
2,40,109,52
2,42,116,44
2,45,125,128
2,38,125,1240
2,45,116,1208
2,45,127,416
2,45,104,468
2,45,104,104
2,45,101,84
2,45,106,80
2,38,127,72
2,42,127,60
2,45,122,68
2,47,109,100
2,38,109,80
2,42,127,68
2,45,122,72
2,47,122,60
2,45,127,80
2,42,127,76
2,40,104,72
2,37,116,68
2,33,116,60
2,37,92,76
2,40,97,44
2,42,106,48
2,40,113,100
2,42,89,52
2,47,104,12
2,49,75,384
2,47,99,36
2,49,86,32
2,47,68,12
2,52,86,128
2,49,75,208
2,42,101,16
2,44,86,256
2,45,113,8
2,42,122,48
2,40,99,56
2,37,86,40
2,33,97,28
2,37,92,56
2,40,104,16
2,42,97,28
2,45,94,52
2,45,81,72
2,49,81,24
2,49,63,72
2,52,78,128
2,40,78,36
2,42,97,36
2,44,50,44
2,45,104,40
2,42,92,4
2,40,81,32
2,42,71,32
2,33,89,80
2,37,92,84
2,40,94,48
2,42,89,44
2,45,94,20
2,45,99,68
2,40,94,48
2,45,94,32
2,45,99,48
2,38,92,48
2,42,99,128
2,40,84,224
2,45,92,116
2,42,84,8
2,38,99,128
2,42,89,220
2,45,99,0
2,38,92,48
2,42,99,128
2,40,84,224
2,45,92,116
2,42,84,8
2,38,99,128
2,42,89,220
2,45,99,0
2,42,105,68
2,40,84,60
2,37,85,52
2,33,104,44
2,37,94,68
2,40,99,36
2,42,99,44
2,47,109,108
2,47,104,96
2,49,84,128
2,49,81,80
2,52,92,128
2,42,106,88
2,44,92,12
2,47,99,0
2,47,89,72
2,49,81,128
2,49,86,68
2,52,81,128
2,42,97,76
2,44,92,32
2,45,99,4
2,42,105,68
2,40,84,60
2,37,85,52
2,33,104,44
2,37,94,68
2,40,99,36
2,42,99,44
2,45,119,108
2,49,97,92
2,52,112,60
2,40,99,100
2,42,109,20
2,45,119,0
2,45,99,72
2,40,104,52
2,42,116,52
2,45,119,80
2,42,119,60
2,40,109,52
2,37,81,64
2,33,112,48
2,37,91,80
2,40,94,96
2,42,89,60
2,38,107,136
2,42,109,64
2,45,104,24
2,47,104,56
2,48,97,84
2,47,109,56
2,45,104,56
2,38,86,44
2,42,97,128
2,44,92,212
2,45,109,28
2,42,109,60
2,40,109,52
2,37,81,64
2,33,102,48
2,37,81,80
2,40,94,96
2,42,89,60
2,47,106,136
2,49,88,92
2,40,94,64
2,42,92,64
2,47,99,40
2,49,96,56
2,40,94,60
2,42,109,68
2,45,127,136
2,45,122,56
2,45,127,352
2,45,109,100
2,45,127,376
2,42,86,192
2,40,84,152
2,33,113,32
3,81,92,38160
3,88,104,0
3,81,75,76
3,88,112,104
3,85,109,0
3,85,112,200
3,81,99,0
3,88,101,0
3,85,109,16
3,81,78,0
3,88,99,0
3,85,101,292
3,81,99,0
3,88,112,0
3,81,75,116
3,90,112,60
3,81,75,0
3,83,97,188
3,91,104,0
3,81,71,0
3,90,104,0
3,85,112,284
3,88,99,0
3,81,86,0
3,81,84,88
3,85,112,104
3,88,112,0
3,85,112,208
3,81,97,0
3,88,112,0
3,85,112,16
3,81,86,0
3,88,97,0
3,81,92,312
3,88,97,0
3,85,112,0
3,81,71,116
3,81,75,56
3,90,112,0
3,83,99,192
3,91,112,0
3,81,86,24
3,90,97,0
3,91,106,408
3,93,89,0
3,81,104,0
3,85,112,0
3,93,84,36
3,81,75,0
3,86,99,0
3,93,78,40
3,81,81,0
3,86,84,0
3,86,99,36
3,81,89,0
3,93,94,0
3,86,75,40
3,93,78,0
3,81,59,0
3,86,84,44
3,81,55,0
3,93,78,0
3,93,84,40
3,86,84,0
3,81,81,0
3,93,75,36
3,86,78,0
3,81,59,0
3,93,75,40
3,86,78,0
3,81,63,0
3,93,86,40
3,86,84,0
3,81,78,0
3,86,81,40
3,81,55,0
3,93,55,0
3,81,75,44
3,93,99,0
3,86,78,0
3,84,84,0
3,86,75,32
3,81,68,0
3,93,71,0
3,90,94,28
3,81,81,0
3,86,99,0
3,81,78,80
3,81,81,44
3,86,97,0
3,91,104,0
3,86,71,20
3,90,84,0
3,81,75,0
3,81,68,48
3,88,84,0
3,85,68,0
3,81,78,20
3,88,86,0
3,93,34,0
3,88,78,48
3,93,78,0
3,81,75,0
3,88,92,32
3,81,86,0
3,93,86,0
3,88,84,32
3,93,84,0
3,81,71,0
3,88,84,28
3,93,75,0
3,81,75,0
3,88,92,24
3,93,99,0
3,81,78,0
3,88,81,28
3,93,71,0
3,81,63,0
3,93,81,28
3,88,84,0
3,81,71,0
3,88,81,28
3,93,78,0
3,81,78,0
3,88,55,28
3,81,68,0
3,93,75,0
3,88,99,44
3,85,112,0
3,81,86,0
3,81,84,92
3,90,104,80
3,86,86,0
3,81,75,48
3,88,92,56
3,91,112,0
3,86,86,16
3,81,78,0
3,90,97,0
3,88,81,8
3,81,63,0
3,100,104,240
3,95,109,0
3,88,99,0
3,95,94,16
3,100,81,0
3,88,84,0
3,95,84,44
3,88,84,0
3,100,78,0
3,95,99,12
3,88,84,0
3,100,92,0
3,95,104,48
3,88,78,0
3,100,86,0
3,95,94,228
3,92,112,0
3,88,92,0
3,88,71,8
3,88,92,44
3,93,89,0
3,85,109,0
3,83,75,36
3,88,99,44
3,83,78,0
3,92,89,0
3,83,104,40
3,88,89,0
3,88,104,268
3,83,94,0
3,88,94,212
3,81,78,0
3,90,112,28
3,81,94,0
3,83,94,176
3,91,112,0
3,90,112,152
3,81,89,0
3,81,75,104
3,88,112,32
3,81,89,0
3,81,81,28
3,88,109,128
3,81,94,72
3,88,112,0
3,81,50,152
3,88,75,0
3,88,86,44
3,81,84,0
3,88,104,32
3,81,94,0
3,88,92,292
3,93,112,0
3,81,89,0
3,88,112,268
3,81,109,0
3,93,112,0
3,88,71,64
3,93,38,0
3,81,75,0
3,90,106,52
3,86,86,0
3,81,68,24
3,81,42,68
3,88,104,0
3,91,109,0
3,90,84,136
3,86,99,0
3,81,63,0
3,81,84,28
3,88,89,128
3,91,92,0
3,81,75,52
3,90,94,0
3,86,94,0
3,84,68,268
3,88,99,0
3,85,101,0
3,90,106,240
3,81,84,0
3,86,99,0
3,84,99,268
3,88,109,0
3,85,92,0
3,90,101,152
3,86,78,0
3,87,112,256
3,81,68,0
3,91,109,0
3,88,104,20
3,81,84,12
3,90,97,120
3,86,92,0
3,81,75,28
3,88,89,128
3,91,86,0
3,90,89,44
3,86,94,0
3,81,78,0
3,90,92,272
3,81,75,0
3,86,59,0
3,85,104,28
3,81,89,0
3,93,104,0
3,93,86,64
3,81,75,0
3,86,94,0
3,93,75,68
3,81,78,0
3,86,94,0
3,86,89,60
3,81,78,0
3,93,92,0
3,81,63,60
3,86,94,0
3,93,75,0
3,86,86,56
3,81,59,0
3,93,75,0
3,93,81,48
3,86,94,0
3,81,78,0
3,93,75,52
3,86,89,0
3,81,59,0
3,93,63,52
3,86,81,0
3,81,59,0
3,86,81,68
3,81,59,0
3,93,68,0
3,81,71,64
3,86,81,0
3,93,78,0
3,81,75,44
3,93,89,0
3,86,99,0
3,86,68,60
3,93,78,0
3,81,78,0
3,81,75,52
3,86,97,0
3,90,112,0
3,86,23,84
3,81,75,0
3,81,34,40
3,86,89,0
3,91,86,0
3,90,97,64
3,81,78,0
3,86,92,0
3,84,75,292
3,88,94,0
3,85,101,0
3,86,28,0
3,85,97,240
3,88,104,0
3,90,101,24
3,86,84,0
3,81,55,64
3,88,89,128
3,91,109,0
3,90,101,156
3,86,99,0
3,81,55,32
3,84,71,92
3,85,86,0
3,88,112,0
3,81,71,108
3,90,97,12
3,86,84,0
3,81,78,76
3,81,38,36
3,88,86,0
3,91,104,0
3,86,104,24
3,81,89,0
3,90,104,0
3,83,92,272
3,83,59,56
3,87,104,0
3,93,89,0
3,83,63,20
3,93,55,0
3,88,86,0
3,88,84,60
3,83,55,0
3,93,42,0
3,88,97,72
3,83,75,0
3,93,86,0
3,88,84,88
3,83,78,0
3,93,81,0
3,93,81,52
3,83,68,0
3,88,109,0
3,88,78,56
3,83,75,0
3,93,81,0
3,88,104,300
3,83,89,0
3,93,109,0
3,88,94,220
3,93,92,0
3,83,89,0
3,88,99,248
3,83,89,0
3,93,97,0
3,88,112,224
3,83,92,0
3,93,109,0
3,88,101,264
3,81,104,0
3,93,112,0
3,93,63,96
3,88,86,0
3,81,63,0
3,81,34,32
3,88,38,0
3,90,89,0
3,86,94,0
3,81,55,56
3,88,104,124
3,91,99,0
3,90,112,148
3,86,104,0
3,81,50,0
3,81,46,4
3,81,50,76
3,88,92,0
3,91,109,0
3,90,86,176
3,86,104,0
3,81,42,0
3,81,68,48
3,84,92,128
3,88,92,0
3,90,109,44
3,86,92,0
3,81,68,64
3,81,92,396
3,88,104,0
3,81,75,76
3,88,112,104
3,85,109,0
3,85,112,200
3,81,99,0
3,88,101,0
3,85,109,16
3,81,78,0
3,88,99,0
3,85,101,292
3,81,99,0
3,88,112,0
3,81,75,116
3,90,112,60
3,81,75,0
3,83,97,188
3,91,104,0
3,81,71,0
3,90,104,0
3,85,112,284
3,88,99,0
3,81,86,0
3,81,84,88
3,85,112,104
3,88,112,0
3,85,112,208
3,81,97,0
3,88,112,0
3,85,112,16
3,81,86,0
3,88,97,0
3,81,92,312
3,88,97,0
3,85,112,0
3,81,71,116
3,81,75,56
3,90,112,0
3,83,99,192
3,91,112,0
3,81,86,24
3,90,97,0
3,91,106,408
3,93,89,0
3,81,104,0
3,85,112,0
3,93,84,36
3,81,75,0
3,86,99,0
3,93,78,40
3,81,81,0
3,86,84,0
3,86,99,36
3,81,89,0
3,93,94,0
3,86,75,40
3,93,78,0
3,81,59,0
3,86,84,44
3,81,55,0
3,93,78,0
3,93,84,40
3,86,84,0
3,81,81,0
3,93,75,36
3,86,78,0
3,81,59,0
3,93,75,40
3,86,78,0
3,81,63,0
3,93,86,40
3,86,84,0
3,81,78,0
3,86,81,40
3,81,55,0
3,93,55,0
3,81,75,44
3,93,99,0
3,86,78,0
3,84,84,0
3,86,75,32
3,81,68,0
3,93,71,0
3,90,94,28
3,81,81,0
3,86,99,0
3,81,78,80
3,81,81,44
3,86,97,0
3,91,104,0
3,86,71,20
3,90,84,0
3,81,75,0
3,81,68,48
3,88,84,0
3,85,68,0
3,81,78,20
3,88,86,0
3,93,34,0
3,88,78,48
3,93,78,0
3,81,75,0
3,88,92,32
3,81,86,0
3,93,86,0
3,88,84,32
3,93,84,0
3,81,71,0
3,88,84,28
3,93,75,0
3,81,75,0
3,88,92,24
3,93,99,0
3,81,78,0
3,88,81,28
3,93,71,0
3,81,63,0
3,93,81,28
3,88,84,0
3,81,71,0
3,88,81,28
3,93,78,0
3,81,78,0
3,88,55,28
3,81,68,0
3,93,75,0
3,88,99,44
3,85,112,0
3,81,86,0
3,81,84,92
3,90,104,80
3,86,86,0
3,81,75,48
3,88,92,56
3,91,112,0
3,86,86,16
3,81,78,0
3,90,97,0
3,88,81,8
3,81,63,0
3,100,104,240
3,95,109,0
3,88,99,0
3,95,94,16
3,100,81,0
3,88,84,0
3,95,84,44
3,88,84,0
3,100,78,0
