track,note,velocity,time
3,33,97,960
3,25,30,120
3,33,0,22
3,25,0,26
3,33,98,32
3,33,0,31
3,28,98,9
3,28,0,149
3,28,93,51
3,28,0,40
3,33,101,0
3,33,0,134
3,33,83,66
3,33,0,32
3,28,105,8
3,28,0,132
3,28,104,68
3,28,0,40
3,38,102,0
3,38,0,130
3,33,116,110
3,33,0,125
3,38,106,115
3,38,0,118
3,33,113,2
3,33,0,118
3,35,127,2
3,35,0,96
3,37,127,24
3,37,0,96
3,38,95,24
3,38,0,120
3,38,92,80
3,38,0,28
3,33,103,12
3,33,0,135
3,33,90,65
3,33,0,40
3,38,95,0
3,38,0,122
3,38,81,78
3,38,0,33
3,33,105,7
3,33,0,51
3,33,108,69
3,33,0,65
3,38,93,55
3,38,0,135
3,38,90,65
3,38,0,27
3,33,111,13
3,33,0,125
3,33,98,75
3,33,0,36
3,38,93,4
3,38,0,135
3,38,90,65
3,38,0,27
3,33,111,13
3,33,0,125
3,33,98,75
3,33,0,36
3,43,97,4
3,43,0,125
3,43,94,75
3,43,0,31
3,38,105,9
3,38,0,120
3,38,98,80
3,38,0,41
3,43,101,0
3,43,0,62
3,43,103,57
3,43,0,60
3,42,100,60
3,42,0,51
3,40,105,69
3,40,0,68
3,38,97,52
3,38,0,125
3,38,94,75
3,38,0,31
3,33,105,9
3,33,0,120
3,33,98,80
3,33,0,41
3,38,101,0
3,38,0,62
3,38,103,57
3,38,0,60
3,37,100,60
3,37,0,51
3,35,105,69
3,35,0,68
3,33,102,52
3,33,0,130
3,28,116,110
3,28,0,125
3,33,106,115
3,33,0,134
3,28,113,106
3,28,0,120
3,38,95,120
3,38,0,120
3,38,92,80
3,38,0,28
3,33,103,12
3,33,0,135
3,33,90,65
3,33,0,40
3,38,95,0
3,33,127,120
3,38,0,2
3,33,0,94
3,35,127,24
3,35,0,96
3,37,127,24
3,37,0,96
3,38,102,24
3,38,0,130
3,33,116,110
3,33,0,125
3,38,106,115
3,38,0,134
3,33,113,106
3,33,0,120
3,38,93,120
3,38,0,135
3,38,90,65
3,38,0,27
3,33,111,13
3,33,0,125
3,33,98,75
3,33,0,36
3,38,98,4
3,38,0,132
3,38,90,68
3,38,0,24
3,33,106,16
3,33,0,118
3,33,90,82
3,33,0,36
3,43,97,4
3,43,0,125
3,43,94,75
3,43,0,31
3,38,105,9
3,38,0,120
3,38,98,80
3,38,0,41
3,43,101,0
3,43,0,62
3,43,103,57
3,43,0,60
3,42,100,60
3,42,0,51
3,40,105,69
3,40,0,68
3,38,97,52
3,38,0,125
3,38,94,75
3,38,0,31
3,33,105,9
3,33,0,120
3,33,98,80
3,33,0,41
3,38,101,0
3,38,0,62
3,38,103,57
3,38,0,60
3,37,100,60
3,37,0,51
3,35,105,69
3,35,0,68
3,33,97,52
3,25,30,120
3,33,0,22
3,25,0,26
3,33,98,32
3,33,0,31
3,28,98,9
3,28,0,149
3,28,93,51
3,28,0,40
3,33,101,0
3,33,0,134
3,33,83,66
3,33,0,32
3,28,105,8
3,28,0,132
3,28,104,68
3,28,0,40
3,38,97,0
3,30,30,120
3,38,0,22
3,30,0,26
3,38,98,32
3,38,0,31
3,33,98,9
3,33,0,149
3,33,93,51
3,33,0,40
3,38,101,0
3,38,0,118
3,38,127,2
3,38,0,96
3,40,127,24
3,40,0,96
3,42,127,24
3,42,0,96
3,43,93,24
3,43,0,93
3,47,99,27
3,47,0,94
3,50,113,26
3,50,0,84
3,47,121,36
3,47,0,60
3,50,103,20
3,50,0,38
3,43,110,2
3,43,0,106
3,43,121,14
3,43,0,75
3,42,114,45
3,42,0,91
3,40,117,29
3,40,0,97
3,38,93,23
3,38,0,99
3,42,120,21
3,42,0,98
3,45,116,22
3,45,0,80
3,47,121,40
3,47,0,87
3,50,120,33
3,50,0,81
3,47,121,39
3,47,0,89
3,45,116,31
3,45,0,79
3,42,118,41
3,42,0,120
3,40,103,0
3,40,0,98
3,44,113,22
3,44,0,103
3,47,106,17
3,47,0,89
3,44,108,31
3,44,0,55
3,47,89,25
3,47,0,29
3,40,97,11
3,40,0,103
3,38,101,17
3,38,0,89
3,37,98,31
3,37,0,91
3,35,116,29
3,35,0,80
3,33,93,40
3,33,0,99
3,37,120,21
3,37,0,98
3,40,116,22
3,40,0,80
3,42,121,40
3,42,0,87
3,43,120,33
3,43,0,81
3,42,121,39
3,42,0,89
3,40,116,31
3,40,0,79
3,37,118,41
3,37,0,120
3,38,97,0
3,30,30,120
3,38,0,22
3,30,0,26
3,38,98,32
3,38,0,31
3,33,98,9
3,33,0,149
3,33,93,51
3,33,0,40
3,38,101,0
3,38,0,134
3,38,83,66
3,38,0,32
3,33,105,8
3,33,0,132
3,33,104,68
3,33,0,40
3,38,95,0
3,38,0,129
3,33,105,111
3,33,0,125
3,38,93,115
3,38,0,135
3,38,90,65
3,38,0,27
3,33,111,13
3,33,0,125
3,33,98,75
3,33,0,36
3,43,97,4
3,43,0,125
3,43,94,75
3,43,0,31
3,38,105,9
3,38,0,120
3,38,98,80
3,38,0,41
3,43,101,0
3,43,0,62
3,43,103,57
3,43,0,60
3,42,100,60
3,42,0,51
3,40,105,69
3,40,0,68
3,38,97,52
3,38,0,125
3,38,94,75
3,38,0,31
3,33,105,9
3,33,0,120
3,33,98,80
3,33,0,41
3,38,101,0
3,38,0,62
3,38,103,57
3,38,0,60
3,37,100,60
3,37,0,51
3,35,105,69
3,35,0,68
3,33,97,52
3,25,30,120
3,33,0,22
3,25,0,26
3,33,98,32
3,33,0,31
3,28,98,9
3,28,0,149
3,28,93,51
3,28,0,40
3,33,101,0
3,33,0,134
3,33,83,66
3,33,0,32
3,28,105,8
3,28,0,132
3,28,104,68
3,28,0,40
3,38,97,0
3,38,0,125
3,38,94,75
3,38,0,31
3,33,105,9
3,33,0,120
3,33,98,80
3,33,0,41
3,38,101,0
3,38,0,62
3,38,103,57
3,38,0,60
3,37,100,60
3,37,0,51
3,35,105,69
3,35,0,68
3,33,97,52
3,25,30,120
3,33,0,22
3,25,0,26
3,33,98,32
3,33,0,31
3,28,98,9
3,28,0,149
3,28,93,51
3,28,0,40
3,33,101,0
3,33,0,134
3,33,83,66
3,33,0,32
3,28,105,8
3,28,0,132
3,28,104,68
3,28,0,40
3,38,102,0
3,38,0,130
3,33,116,110
3,33,0,125
3,38,106,115
3,38,0,134
3,33,113,106
3,33,0,120
3,43,93,120
3,43,0,93
3,47,99,27
3,47,0,94
3,50,113,26
3,50,0,84
3,47,121,36
3,47,0,60
3,50,103,20
3,50,0,38
3,43,110,2
3,43,0,106
3,43,121,14
3,43,0,75
3,42,114,45
3,42,0,91
3,40,117,29
3,40,0,97
3,38,93,23
3,38,0,99
3,42,120,21
3,42,0,98
3,45,116,22
3,45,0,80
3,47,121,40
3,47,0,87
3,50,120,33
3,50,0,81
3,47,121,39
3,47,0,89
3,45,116,31
3,45,0,79
3,42,118,41
3,42,0,120
3,40,103,0
3,40,0,98
3,44,113,22
3,44,0,103
3,47,106,17
3,47,0,89
3,44,108,31
3,44,0,55
3,47,89,25
3,47,0,29
3,40,97,11
3,40,0,103
3,38,101,17
3,38,0,89
3,37,98,31
3,37,0,91
3,35,116,29
3,35,0,80
3,33,93,40
3,33,0,99
3,37,120,21
3,37,0,98
3,40,116,22
3,40,0,80
3,42,121,40
3,42,0,87
3,43,120,33
3,43,0,81
3,42,121,39
3,42,0,89
3,40,116,31
3,40,0,79
3,37,118,41
3,37,0,120
3,38,97,0
3,30,30,120
3,38,0,22
3,30,0,26
3,38,98,32
3,38,0,31
3,33,98,9
3,33,0,149
3,33,93,51
3,33,0,40
3,38,101,0
3,38,0,134
3,38,83,66
3,38,0,32
3,33,105,8
3,33,0,132
3,33,104,68
3,33,0,40
3,38,95,0
3,38,0,129
3,33,105,111
3,33,0,125
3,38,93,115
3,38,0,135
3,38,90,65
3,38,0,27
3,33,111,13
3,33,0,125
3,33,98,75
3,33,0,36
3,43,97,4
3,43,0,125
3,43,94,75
3,43,0,31
3,38,105,9
3,38,0,120
3,38,98,80
3,38,0,41
3,43,101,0
3,43,0,62
3,43,103,57
3,43,0,60
3,42,100,60
3,42,0,51
3,40,105,69
3,40,0,68
3,38,97,52
3,38,0,125
3,38,94,75
3,38,0,31
3,33,105,9
3,33,0,120
3,33,98,80
3,33,0,41
3,38,101,0
3,38,0,62
3,38,103,57
3,38,0,60
3,37,100,60
3,37,0,51
3,35,105,69
3,35,0,68
3,33,97,52
3,25,30,120
3,33,0,22
3,25,0,26
3,33,98,32
3,33,0,31
3,28,98,9
3,28,0,149
3,28,93,51
3,28,0,40
3,33,101,0
3,33,0,134
3,33,83,66
3,33,0,32
3,28,105,8
3,28,0,132
3,28,104,68
3,28,0,40
3,38,97,0
3,38,0,125
3,38,94,75
3,38,0,31
3,33,105,9
3,33,0,120
3,33,98,80
3,33,0,41
3,38,101,0
3,38,0,62
3,38,103,57
3,38,0,60
3,37,100,60
3,37,0,51
3,35,105,69
3,35,0,68
3,33,95,52
3,33,0,129
3,28,105,111
3,28,0,125
3,33,98,115
3,33,0,132
3,33,90,68
3,33,0,24
3,28,106,16
3,28,0,118
3,28,90,82
3,28,0,36
3,38,105,4
3,38,0,117
3,38,98,83
3,38,0,26
3,33,118,14
3,33,0,127
3,33,98,73
3,33,0,26
3,38,106,14
3,38,0,53
3,33,118,67
3,33,0,58
3,38,113,62
3,38,0,178
4,45,80,1403
4,45,0,29
4,64,89,14
4,69,87,0
4,64,0,15
4,66,60,3
4,69,0,75
4,66,0,3
4,64,93,21
4,69,87,0
4,69,0,65
4,64,0,2
4,45,82,16
4,64,85,38
4,45,0,1
4,59,93,0
4,59,0,16
4,61,59,1
4,61,0,23
4,64,0,3
4,64,91,33
4,59,98,0
4,59,0,37
4,57,87,10
4,57,0,61
4,64,0,1
4,62,66,50
4,66,58,80
4,62,0,3
4,69,74,37
4,62,68,80
4,69,0,5
4,66,0,8
4,74,80,27
4,62,0,21
4,74,0,59
4,69,76,0
4,69,0,33
4,66,59,7
4,74,87,80
4,66,0,3
4,74,0,117
4,69,76,0
4,69,0,157
4,50,43,83
4,66,85,40
4,62,85,0
4,57,85,0
4,50,0,8
4,66,0,20
4,62,0,0
4,57,0,0
4,69,60,94
4,62,58,1
4,66,58,1
4,50,70,208
4,69,0,19
4,62,0,2
4,66,0,3
4,69,91,20
4,62,93,0
4,50,0,11
4,69,0,52
4,62,0,1
4,69,80,8
4,64,102,1
4,64,0,22
4,69,0,4
4,69,91,19
4,64,102,1
4,66,85,18
4,64,0,3
4,50,68,54
4,69,0,22
4,66,0,2
4,64,100,18
4,69,91,1
4,50,0,10
4,64,0,5
4,66,74,1
4,50,87,61
4,69,0,24
4,66,0,0
4,69,87,19
4,64,89,1
4,50,0,12
4,66,76,8
4,64,0,1
4,66,0,28
4,69,0,3
4,64,102,25
4,69,91,0
4,64,0,33
4,62,89,11
4,69,0,43
4,62,0,31
4,59,82,2
4,59,0,18
4,66,50,22
4,62,50,0
4,57,50,0
4,66,0,310
4,62,0,0
4,57,0,0
4,50,52,10
4,50,0,36
4,66,78,4
4,62,78,0
4,57,78,0
4,66,0,41
4,62,0,0
4,57,0,0
4,66,85,79
4,74,82,40
4,66,0,6
4,66,85,34
4,66,0,18
4,64,100,22
4,74,0,11
4,72,98,29
4,64,0,2
4,64,87,38
4,72,0,19
4,64,0,4
4,62,87,17
4,71,82,40
4,62,0,8
4,62,87,32
4,71,0,4
4,62,0,35
4,60,98,1
4,69,52,40
4,60,0,3
4,60,72,37
4,69,0,1
4,60,0,18
4,62,85,261
4,59,85,0
4,55,85,0
4,62,0,45
4,59,0,0
4,55,0,0
4,62,78,195
4,59,78,0
4,55,78,0
4,62,0,46
4,59,0,0
4,55,0,0
4,43,52,154
4,62,85,40
4,59,85,0
4,55,85,0
4,43,0,2
4,62,0,78
4,59,0,0
4,55,0,0
4,43,52,0
4,43,0,37
4,62,82,3
4,59,82,0
4,55,82,0
4,62,0,39
4,59,0,0
4,55,0,0
4,69,60,83
4,62,58,1
4,66,58,1
4,50,70,317
4,69,0,19
4,62,0,2
4,66,0,3
4,69,91,20
4,62,93,0
4,50,0,11
4,69,0,52
4,62,0,1
4,69,80,8
4,64,102,1
4,64,0,22
4,69,0,4
4,69,91,19
4,64,102,1
4,66,85,18
4,64,0,3
4,50,68,54
4,69,0,22
4,66,0,2
4,64,100,18
4,69,91,1
4,50,0,10
4,64,0,5
4,66,74,1
4,50,87,61
4,69,0,24
4,66,0,0
4,69,87,19
4,64,89,1
4,50,0,12
4,66,76,8
4,64,0,1
4,66,0,28
4,69,0,3
4,64,102,25
4,69,91,0
4,64,0,33
4,62,89,11
4,69,0,43
4,62,0,31
4,59,82,2
4,59,0,18
4,52,38,22
4,64,68,0
4,57,59,2
4,61,66,1
4,45,59,0
4,52,0,6
4,57,0,21
4,61,0,3
4,52,52,15
4,64,0,2
4,57,68,37
4,61,82,40
4,64,58,38
4,45,0,13
4,61,0,4
4,64,0,9
4,69,78,14
4,69,0,11
4,76,87,6
4,71,80,1
4,71,0,20
4,73,60,5
4,45,68,56
4,73,0,32
4,71,82,7
4,57,0,21
4,71,0,2
4,76,0,1
4,57,60,14
4,69,85,46
4,64,72,3
4,64,0,17
4,66,57,6
4,57,0,40
4,57,87,15
4,66,0,36
4,64,64,3
4,57,0,27
4,45,0,2
4,52,0,2
4,64,0,25
4,69,0,6
4,50,80,500
4,50,0,29
4,69,89,14
4,74,87,0
4,69,0,15
4,71,60,3
4,74,0,75
4,71,0,3
4,69,93,21
4,74,87,0
4,74,0,65
4,69,0,2
4,50,82,16
4,69,85,38
4,50,0,1
4,64,93,0
4,64,0,16
4,66,59,1
4,66,0,23
4,69,0,3
4,69,91,33
4,64,98,0
4,64,0,37
4,62,87,10
4,62,0,61
4,69,0,1
4,66,85,290
4,62,85,0
4,57,85,0
4,66,0,45
4,62,0,0
4,57,0,0
4,66,78,195
4,62,78,0
4,57,78,0
4,66,0,46
4,62,0,0
4,57,0,0
4,50,52,154
4,66,85,40
4,62,85,0
4,57,85,0
4,50,0,2
4,66,0,78
4,62,0,0
4,57,0,0
4,50,52,0
4,50,0,37
4,66,82,3
4,62,82,0
4,57,82,0
4,66,0,39
4,62,0,0
4,57,0,0
4,69,85,161
4,69,0,48
4,66,66,0
4,62,60,72
4,66,0,7
4,66,13,193
4,62,0,33
4,66,0,7
4,69,89,0
4,69,0,17
4,60,72,23
4,62,62,80
4,66,66,40
4,69,68,80
4,62,0,73
4,66,0,0
4,69,0,0
4,60,0,47
4,50,63,0
4,50,0,36
4,66,78,4
4,62,78,0
4,60,78,0
4,69,78,0
4,66,0,28
4,62,0,0
4,60,0,0
4,69,0,0
4,50,38,92
4,62,68,0
4,55,59,2
4,59,66,1
4,43,59,0
4,50,0,6
4,55,0,21
4,59,0,3
4,50,52,15
4,62,0,2
4,55,68,37
4,59,82,40
4,62,58,38
4,43,0,13
4,59,0,4
4,62,0,9
4,67,78,14
4,67,0,11
4,74,87,6
4,69,80,1
4,69,0,20
4,71,60,5
4,43,68,56
4,71,0,32
4,69,82,7
4,55,0,21
4,69,0,2
4,74,0,1
4,55,60,14
4,67,85,46
4,62,72,3
4,62,0,17
4,64,57,6
4,55,0,40
4,55,87,15
4,64,0,36
4,62,64,3
4,55,0,27
4,43,0,2
4,50,0,2
4,62,0,25
4,67,0,6
4,62,66,57
4,66,58,80
4,62,0,3
4,69,74,37
4,62,68,80
4,69,0,5
4,66,0,8
4,74,80,27
4,62,0,21
4,74,0,59
4,69,76,0
4,69,0,33
4,66,59,7
4,74,87,80
4,66,0,3
4,74,0,117
4,69,76,0
4,69,0,157
4,50,43,83
4,66,85,40
4,62,85,0
4,57,85,0
4,50,0,8
4,66,0,20
4,62,0,0
4,57,0,0
4,67,85,332
4,64,85,0
4,61,85,0
4,69,85,0
4,67,0,45
4,64,0,0
4,61,0,0
4,69,0,0
