track,note,velocity,time
1,79,121,10400
1,77,108,144
1,77,111,48
1,79,108,96
1,79,105,1220
1,79,103,96
1,77,110,96
1,77,105,48
1,77,104,96
1,72,110,48
1,74,112,48
1,79,101,1220
1,77,107,48
1,77,112,96
1,73,100,96
1,73,110,48
1,70,110,48
1,73,102,432
1,73,118,96
1,70,110,96
1,70,119,48
1,73,103,96
1,74,112,96
1,70,123,1700
1,74,103,48
1,75,103,96
1,75,110,48
1,74,97,48
1,75,110,48
1,75,110,48
1,76,121,48
1,77,119,96
1,73,115,144
1,72,108,96
1,70,102,96
1,70,116,48
1,70,99,3140
1,73,110,48
1,73,116,96
1,73,110,96
1,73,107,48
1,73,111,48
1,70,123,48
1,72,99,48
1,70,109,48
1,70,106,48
1,73,116,48
1,70,96,260
1,73,110,48
1,73,117,96
1,70,96,48
1,72,108,48
1,67,113,96
1,67,112,48
1,70,120,48
1,70,107,96
1,65,105,48
1,65,109,260
1,73,123,48
1,73,110,48
1,73,111,48
1,70,120,48
1,73,100,48
1,67,124,48
1,67,106,48
1,67,115,48
1,70,104,48
1,70,98,96
1,73,114,48
1,73,110,500
1,73,110,48
1,73,95,48
1,73,109,96
1,67,110,96
1,70,99,96
1,70,115,48
1,65,118,96
1,65,103,260
1,73,102,48
1,73,112,48
1,73,104,48
1,73,113,96
1,73,106,24
1,67,108,24
1,67,124,48
1,70,103,96
1,70,110,96
1,73,98,48
1,70,116,96
1,70,102,48
1,73,104,96
1,73,110,48
1,73,110,48
1,73,109,48
1,70,102,48
1,70,107,48
1,67,101,48
1,70,124,96
1,70,111,96
1,65,120,48
1,79,121,96
1,79,100,96
1,77,124,48
1,79,108,1220
1,79,121,96
1,77,109,96
1,77,110,48
1,77,108,96
1,72,114,48
1,74,98,48
1,79,98,1220
1,77,110,48
1,77,103,96
1,72,106,96
1,72,110,48
1,70,110,48
1,72,114,432
1,72,111,96
1,70,110,96
1,70,110,48
1,73,110,96
1,74,115,96
1,74,108,1220
1,74,113,48
1,75,105,96
1,75,103,48
1,75,109,48
1,75,100,96
1,75,114,48
1,75,111,48
1,77,110,48
1,73,110,144
1,72,101,96
1,70,107,96
1,70,110,48
1,70,110,2660
1,73,111,48
1,73,110,96
1,73,122,96
1,73,120,48
1,73,124,48
1,70,110,48
1,72,105,48
1,70,103,48
1,70,110,48
1,73,109,48
1,70,117,260
1,73,108,48
1,73,98,96
1,70,101,48
1,72,103,48
1,67,111,96
1,67,108,48
1,70,97,48
1,70,110,96
1,65,123,48
1,65,110,260
1,73,109,48
1,73,118,96
1,73,110,96
1,67,117,48
1,67,97,48
1,70,122,96
1,70,101,96
1,73,117,48
1,65,103,260
1,73,112,48
1,73,108,48
1,73,112,48
1,73,106,96
1,67,104,96
1,67,105,48
1,70,108,48
1,70,109,48
1,65,122,96
1,65,100,260
1,73,110,48
1,73,115,48
1,73,110,48
1,73,101,96
1,73,116,24
1,67,112,24
1,67,119,48
1,70,105,96
1,70,110,96
1,73,105,48
1,70,109,96
1,70,110,48
1,73,104,96
1,73,108,96
1,73,103,48
1,70,109,48
1,70,110,48
1,67,123,48
1,70,107,96
1,70,110,96
1,65,110,48
1,79,115,96
1,79,99,96
1,77,110,48
1,79,111,1220
1,79,116,96
1,77,106,96
1,77,97,48
1,77,110,96
1,72,107,48
1,74,105,48
1,79,110,1220
1,77,122,48
1,77,110,96
1,72,120,96
1,72,114,48
1,70,119,48
1,72,110,432
1,72,124,96
1,70,117,96
1,70,99,48
1,73,102,96
1,74,106,96
1,74,124,1220
1,74,121,48
1,75,104,96
1,75,111,48
1,75,107,48
1,75,105,96
1,75,115,48
1,75,121,48
1,77,112,48
1,73,104,144
1,72,108,96
1,70,112,96
1,70,113,48
1,79,110,47300
1,79,113,144
1,77,105,96
1,77,110,96
1,79,108,96
1,79,124,1220
1,79,111,96
1,77,111,96
1,77,104,48
1,77,121,96
1,72,110,48
1,74,108,48
1,79,123,1220
1,77,111,48
1,77,109,96
1,73,117,96
1,73,97,48
1,70,103,48
1,73,122,432
1,73,98,96
1,70,109,96
1,70,105,48
1,73,100,96
1,74,113,96
1,70,122,1700
1,74,109,48
1,75,110,96
1,75,116,48
1,74,108,48
1,75,119,48
1,75,107,48
1,76,123,48
1,77,114,96
1,73,102,144
1,72,109,96
1,70,106,96
1,70,101,48
1,70,106,3140
1,73,110,48
1,73,98,48
1,73,115,48
1,73,110,96
1,70,104,336
1,72,104,48
1,70,113,96
1,73,106,96
1,70,110,260
1,73,109,48
1,73,96,96
1,70,103,48
1,72,108,48
1,67,116,96
1,70,121,96
1,70,113,96
1,65,107,48
1,65,117,260
1,73,124,48
1,73,98,48
1,73,123,48
1,73,110,96
1,67,120,48
1,67,112,48
1,67,106,48
1,70,108,48
1,70,100,96
1,73,112,48
1,65,106,260
1,73,113,48
1,73,109,48
1,73,121,48
1,73,111,96
1,73,110,48
1,67,114,48
1,67,111,48
1,70,111,48
1,70,97,48
1,65,112,96
1,73,110,500
1,73,118,48
1,73,109,48
1,73,98,96
1,73,111,24
1,67,109,24
1,67,111,48
1,70,99,96
1,70,100,96
1,73,110,48
1,70,112,96
1,70,99,48
1,73,116,96
1,73,97,96
1,73,108,48
1,70,121,48
1,70,121,48
1,67,111,48
1,70,111,96
1,70,114,96
1,65,110,48
1,79,108,96
1,79,100,96
1,77,110,48
1,79,118,1220
1,79,113,96
1,77,105,96
1,77,110,48
1,77,112,96
1,72,121,48
1,74,116,48
1,79,108,1220
1,77,117,48
1,77,101,96
1,72,110,96
1,72,110,48
1,70,109,48
1,72,107,432
1,72,103,96
1,70,100,96
1,70,111,48
1,73,109,96
1,74,123,96
1,74,109,1220
1,74,102,48
1,75,119,96
1,75,110,48
1,75,108,48
1,75,117,96
1,75,103,48
1,75,110,48
1,77,109,48
1,73,110,144
1,72,110,96
1,70,110,96
1,70,114,48
2,67,121,10400
2,65,97,144
2,65,110,48
2,67,96,96
2,67,108,1220
2,67,106,96
2,65,113,96
2,65,96,48
2,65,108,96
2,60,116,48
2,62,103,48
2,67,109,1220
2,65,99,48
2,65,109,96
2,61,107,96
2,61,103,48
2,58,114,48
2,61,117,432
2,61,106,96
2,58,109,96
2,58,124,48
2,61,115,96
2,62,110,96
2,58,120,1700
2,62,114,48
2,63,104,96
2,63,103,48
2,62,121,48
2,63,113,48
2,63,110,48
2,64,113,48
2,65,107,96
2,61,97,144
2,60,110,96
2,58,104,96
2,58,109,48
2,58,116,3140
2,61,119,48
2,61,107,96
2,61,124,96
2,61,107,48
2,61,105,48
2,58,113,48
2,60,111,48
2,58,111,48
2,58,105,48
2,61,105,48
2,58,110,260
2,61,119,48
2,61,121,96
2,58,118,48
2,60,98,48
2,55,119,96
2,55,102,48
2,58,122,48
2,58,109,96
2,53,121,48
2,53,112,260
2,61,120,48
2,61,120,48
2,61,95,48
2,58,110,48
2,61,109,48
2,55,103,48
2,55,102,48
2,55,110,48
2,58,97,48
2,58,108,96
2,61,122,48
2,61,109,500
2,61,106,48
2,61,110,48
2,61,99,96
2,55,101,96
2,58,103,96
2,58,98,48
2,53,110,96
2,53,109,260
2,61,110,48
2,61,122,48
2,61,110,48
2,61,110,96
2,61,120,24
2,55,115,24
2,55,119,48
2,58,110,96
2,58,111,96
2,61,109,48
2,58,113,96
2,58,110,48
2,61,111,96
2,61,100,48
2,61,112,48
2,61,118,48
2,58,112,48
2,58,108,48
2,55,104,48
2,58,110,96
2,58,110,96
2,53,118,48
2,67,98,96
2,67,108,96
2,65,112,48
2,67,110,1220
2,67,97,96
2,65,97,96
2,65,108,48
2,65,111,96
2,60,96,48
2,62,112,48
2,67,113,1220
2,65,111,48
2,65,98,96
2,60,108,96
2,60,107,48
2,58,109,48
2,60,111,432
2,60,110,96
2,58,114,96
2,58,110,48
2,61,110,96
2,62,111,96
2,62,123,1220
2,62,114,48
2,63,111,96
2,63,114,48
2,63,125,48
2,63,113,96
2,63,104,48
2,63,100,48
2,65,125,48
2,61,110,144
2,60,122,96
2,58,110,96
2,58,124,48
2,58,124,2660
2,61,110,48
2,61,102,96
2,61,116,96
2,61,117,48
2,61,110,48
2,58,101,48
2,60,100,48
2,58,106,48
2,58,100,48
2,61,108,48
2,58,111,260
2,61,118,48
2,61,101,96
2,58,104,48
2,60,120,48
2,55,97,96
2,55,112,48
2,58,109,48
2,58,110,96
2,53,110,48
2,53,104,260
2,61,116,48
2,61,98,96
2,61,101,96
2,55,105,48
2,55,96,48
2,58,110,96
2,58,101,96
2,61,98,48
2,53,121,260
2,61,114,48
2,61,123,48
2,61,98,48
2,61,106,96
2,55,96,96
2,55,110,48
2,58,109,48
2,58,115,48
2,53,118,96
2,53,111,260
2,61,103,48
2,61,110,48
2,61,110,48
2,61,122,96
2,61,100,24
2,55,110,24
2,55,116,48
2,58,110,96
2,58,113,96
2,61,107,48
2,58,110,96
2,58,110,48
2,61,106,96
2,61,113,96
2,61,114,48
2,58,105,48
2,58,107,48
2,55,109,48
2,58,113,96
2,58,123,96
2,53,107,48
2,67,112,96
2,67,119,96
2,65,104,48
2,67,95,1220
2,67,116,96
2,65,98,96
2,65,119,48
2,65,102,96
2,60,121,48
2,62,112,48
2,67,109,1220
2,65,117,48
2,65,109,96
2,60,121,96
2,60,110,48
2,58,113,48
2,60,110,432
2,60,110,96
2,58,121,96
2,58,95,48
2,61,111,96
2,62,118,96
2,62,96,1220
2,62,107,48
2,63,108,96
2,63,110,48
2,63,111,48
2,63,110,96
2,63,98,48
2,63,110,48
2,65,113,48
2,61,98,144
2,60,125,96
2,58,110,96
2,58,108,48
2,67,117,47300
2,67,125,144
2,65,120,96
2,65,111,96
2,67,96,96
2,67,97,1220
2,67,109,96
2,65,100,96
2,65,114,48
2,65,96,96
2,60,101,48
2,62,99,48
2,67,113,1220
2,65,115,48
2,65,109,96
2,61,112,96
2,61,100,48
2,58,109,48
2,61,111,432
2,61,99,96
2,58,106,96
2,58,111,48
2,61,110,96
2,62,115,96
2,58,98,1700
2,62,110,48
2,63,101,96
2,63,110,48
2,62,109,48
2,63,109,48
2,63,108,48
2,64,95,48
2,65,102,96
2,61,110,144
2,60,107,96
2,58,118,96
2,58,114,48
2,58,111,3140
2,61,102,48
2,61,105,48
2,61,110,48
2,61,108,96
2,58,115,336
2,60,108,48
2,58,107,96
2,61,112,96
2,58,124,260
2,61,114,48
2,61,110,96
2,58,104,48
2,60,108,48
2,55,119,96
2,58,111,96
2,58,114,96
2,53,119,48
2,53,105,260
2,61,98,48
2,61,118,48
2,61,115,48
2,61,117,96
2,55,113,48
2,55,107,48
2,55,116,48
2,58,114,48
2,58,109,96
2,61,122,48
2,53,113,260
2,61,95,48
2,61,111,48
2,61,110,48
2,61,110,96
2,61,100,48
2,55,117,48
2,55,115,48
2,58,110,48
2,58,110,48
2,53,106,96
2,61,120,500
2,61,105,48
2,61,101,48
2,61,115,96
2,61,107,24
2,55,109,24
2,55,102,48
2,58,110,96
2,58,101,96
2,61,111,48
2,58,104,96
2,58,112,48
2,61,124,96
2,61,110,96
2,61,110,48
2,58,103,48
2,58,110,48
2,55,102,48
2,58,95,96
2,58,103,96
2,53,106,48
2,67,110,96
2,67,122,96
2,65,109,48
2,67,110,1220
2,67,123,96
2,65,96,96
2,65,110,48
2,65,110,96
2,60,112,48
2,62,104,48
2,67,118,1220
2,65,106,48
2,65,107,96
2,60,111,96
2,60,110,48
2,58,110,48
2,60,119,432
2,60,119,96
2,58,108,96
2,58,102,48
2,61,97,96
2,62,122,96
2,62,105,1220
2,62,108,48
2,63,124,96
2,63,97,48
2,63,106,48
2,63,96,96
2,63,111,48
2,63,99,48
2,65,101,48
2,61,106,144
2,60,110,96
2,58,124,96
2,58,110,48
3,53,109,2240
3,55,109,96
3,58,99,96
3,60,119,96
3,65,102,0
3,60,105,96
3,65,104,0
3,58,91,192
3,62,107,96
3,65,106,0
3,62,96,192
3,65,104,0
3,62,106,144
3,65,114,0
3,46,77,48
3,53,73,96
3,58,75,0
3,62,82,0
3,41,76,96
3,53,82,96
3,58,88,0
3,62,79,0
3,46,87,96
3,53,65,96
3,58,79,0
3,62,81,0
3,41,69,96
3,53,82,96
3,58,73,0
3,62,88,0
3,46,80,96
3,53,76,96
3,58,75,0
3,62,66,0
3,41,76,96
3,53,73,96
3,58,75,0
3,62,76,0
3,46,75,96
3,53,62,96
3,58,73,0
3,62,88,0
3,41,70,96
3,53,89,96
3,58,79,0
3,62,66,0
3,46,74,96
3,53,64,96
3,58,82,0
3,62,86,0
3,41,70,96
3,53,84,96
3,58,78,0
3,62,67,0
3,46,75,96
3,53,73,96
3,58,87,0
3,62,76,0
3,41,75,96
3,53,61,96
3,58,75,0
3,62,70,0
3,51,75,96
3,58,71,96
3,63,83,0
3,67,75,0
3,46,75,96
3,58,70,96
3,63,75,0
3,67,63,0
3,51,75,96
3,58,82,96
3,63,75,0
3,67,73,0
3,46,75,96
3,58,60,96
3,63,82,0
3,67,64,0
3,46,72,96
3,53,78,96
3,58,72,0
3,62,75,0
3,41,78,96
3,53,76,96
3,58,62,0
3,62,71,0
3,46,90,96
3,53,67,96
3,58,88,0
3,62,69,0
3,41,62,96
3,53,74,96
3,58,76,0
3,62,79,0
3,41,75,96
3,48,74,96
3,53,76,0
3,57,61,0
3,48,75,96
3,48,75,96
3,53,79,0
3,57,66,0
3,41,75,96
3,48,83,96
3,53,75,0
3,57,62,0
3,48,76,96
3,48,68,96
3,53,74,0
3,57,64,0
3,46,64,96
3,53,86,96
3,58,82,0
3,62,68,0
3,41,88,96
3,53,75,96
3,58,88,0
3,62,85,0
3,46,76,96
3,53,69,96
3,58,73,0
3,62,88,0
3,41,80,96
3,53,75,96
3,58,89,0
3,62,80,0
3,46,88,96
3,53,73,96
3,58,74,0
3,62,75,0
3,41,75,96
3,53,64,96
3,58,82,0
3,62,66,0
3,46,69,96
3,53,63,96
3,58,69,0
3,62,76,0
3,41,82,96
3,53,70,96
3,58,76,0
3,62,69,0
3,46,86,96
3,53,88,96
3,58,81,0
3,62,75,0
3,41,78,96
3,53,81,96
3,58,72,0
3,62,81,0
3,46,76,96
3,53,78,96
3,58,77,0
3,62,77,0
3,41,76,96
3,53,75,96
3,58,76,0
3,62,72,0
3,46,88,96
3,53,69,96
3,58,87,0
3,62,77,0
3,41,69,96
3,53,80,96
3,58,80,0
3,62,66,0
3,46,75,96
3,53,85,96
3,58,64,0
3,62,62,0
3,41,75,96
3,53,86,96
3,58,74,0
3,62,72,0
3,46,73,96
3,53,75,96
3,58,75,0
3,62,82,0
3,41,77,96
3,53,90,96
3,58,74,0
3,62,74,0
3,46,78,96
3,53,75,96
3,58,85,0
3,62,73,0
3,41,71,96
3,53,80,96
3,58,71,0
3,62,89,0
3,46,73,96
3,53,74,96
3,58,73,0
3,62,89,0
3,41,72,96
3,53,76,96
3,58,73,0
3,62,85,0
3,46,60,96
3,53,75,96
3,58,68,0
3,62,73,0
3,41,82,96
3,53,67,96
3,58,71,0
3,62,62,0
3,46,70,96
3,53,60,96
3,58,77,0
3,62,72,0
3,41,74,96
3,53,75,96
3,58,72,0
3,62,83,0
3,46,65,96
3,53,79,96
3,58,87,0
3,62,70,0
3,41,74,96
3,53,74,96
3,58,69,0
3,62,75,0
3,46,67,96
3,53,64,96
3,58,77,0
3,62,75,0
3,41,71,96
3,53,75,96
3,58,82,0
3,62,66,0
3,46,75,96
3,53,72,96
3,58,75,0
3,62,88,0
3,41,60,96
3,53,76,96
3,58,74,0
3,62,82,0
3,46,86,96
3,53,65,96
3,58,86,0
3,62,75,0
3,41,72,96
3,53,79,96
3,58,78,0
3,62,71,0
3,46,73,96
3,53,74,96
3,58,86,0
3,62,82,0
3,41,76,96
3,53,65,96
3,58,75,0
3,62,87,0
3,51,89,96
3,58,79,96
3,63,73,0
3,67,75,0
3,46,75,96
3,58,73,96
3,63,75,0
3,67,66,0
3,51,72,96
3,58,74,96
3,63,72,0
3,67,76,0
3,46,89,96
3,58,74,96
3,63,75,0
3,67,85,0
