track,note,velocity,time
1,36,108,3072
1,36,108,184
1,36,108,184
1,36,108,184
1,36,110,184
1,36,108,760
1,36,108,184
1,36,108,184
1,36,108,184
1,36,110,184
1,36,108,760
1,36,108,184
1,36,108,184
1,36,108,184
1,36,110,184
1,36,108,760
1,36,108,184
1,36,108,184
1,36,108,184
1,36,110,184
1,36,108,760
1,36,108,184
1,36,108,184
1,36,108,184
1,36,110,184
1,36,108,760
1,36,108,184
1,36,108,184
1,36,108,184
1,36,110,184
1,36,108,760
1,36,108,184
1,36,108,184
1,36,108,184
1,36,110,184
1,36,108,760
1,36,108,184
1,36,108,184
1,36,108,184
1,36,110,184
1,36,108,760
1,36,108,184
1,36,108,184
1,36,108,184
1,36,110,184
1,36,108,760
1,36,108,184
1,36,108,184
1,36,108,184
1,36,110,184
1,36,108,760
1,36,108,184
1,36,108,184
1,36,108,184
1,36,110,184
1,36,108,760
1,36,108,184
1,36,108,184
1,36,108,184
1,36,110,184
1,36,95,760
1,36,95,312
1,36,95,56
1,36,95,312
1,36,95,56
1,36,95,312
1,36,95,56
1,36,95,312
1,36,95,56
1,36,95,312
1,36,95,56
1,36,95,312
1,36,95,56
1,36,95,312
1,36,95,56
1,36,95,312
1,36,95,56
1,36,95,312
1,36,95,56
1,36,95,312
1,36,95,56
1,36,95,312
1,36,95,56
1,36,95,312
1,36,95,56
1,36,95,312
1,36,95,56
1,36,95,312
1,36,95,56
1,36,95,312
1,36,95,56
1,36,95,312
1,36,95,56
1,36,95,312
1,36,95,56
1,36,95,312
1,36,95,56
1,36,95,312
1,36,95,56
1,36,95,312
1,36,95,56
1,36,95,312
1,36,95,56
1,36,95,312
1,36,95,56
1,36,108,760
1,36,108,184
1,36,108,184
1,36,108,184
1,36,110,184
1,36,108,760
1,36,108,184
1,36,108,184
1,36,108,184
1,36,110,184
1,36,108,760
1,36,108,184
1,36,108,184
1,36,108,184
1,36,110,184
1,36,108,760
1,36,108,184
1,36,108,184
1,36,108,184
1,36,110,184
1,36,108,760
1,36,108,184
1,36,108,184
1,36,108,184
1,36,110,184
1,36,108,760
1,36,108,184
1,36,108,184
1,36,108,184
1,36,110,184
1,36,108,760
1,36,108,184
1,36,108,184
1,36,108,184
1,36,110,184
1,36,108,760
1,36,108,184
1,36,108,184
1,36,108,184
1,36,110,184
1,36,108,760
1,36,108,184
1,36,108,184
1,36,108,184
1,36,110,184
1,36,108,760
1,36,108,184
1,36,108,184
1,36,108,184
1,36,110,184
1,36,108,760
1,36,108,184
1,36,108,184
1,36,108,184
1,36,110,184
1,36,108,760
1,36,108,184
1,36,108,184
1,36,108,184
1,36,110,184
1,36,95,760
1,36,95,312
1,36,95,56
1,36,95,312
1,36,95,56
1,36,95,312
1,36,95,56
1,36,95,312
1,36,95,56
1,36,95,312
1,36,95,56
1,36,95,312
1,36,95,56
1,36,95,312
1,36,95,56
1,36,95,312
1,36,95,56
1,36,95,312
1,36,95,56
1,36,95,312
1,36,95,56
1,36,95,312
1,36,95,56
1,36,95,312
1,36,95,56
1,36,95,312
1,36,95,56
1,36,95,312
1,36,95,56
1,36,95,312
1,36,95,56
1,36,95,312
1,36,95,56
1,36,95,312
1,36,95,56
1,36,95,312
1,36,95,56
1,36,95,312
1,36,95,56
1,36,95,312
1,36,95,56
1,36,95,312
1,36,95,56
1,36,95,312
1,36,95,56
1,36,95,312
1,36,95,56
1,36,95,312
1,36,95,56
1,36,95,319
1,36,95,0
1,36,95,0
1,36,95,319
1,36,95,0
1,36,95,0
1,36,95,319
1,36,95,0
1,36,95,0
1,36,95,319
1,36,95,0
1,36,95,0
1,36,95,319
1,36,95,0
1,36,95,0
1,36,95,319
1,36,95,0
1,36,95,0
1,36,95,319
1,36,95,0
1,36,95,0
1,36,95,319
1,36,95,0
1,36,95,0
1,36,95,319
1,36,95,0
1,36,95,0
1,36,95,319
1,36,95,0
1,36,95,0
1,36,95,319
1,36,95,0
1,36,95,0
1,36,95,319
2,40,75,3072
2,40,45,120
2,40,75,56
2,40,45,120
2,40,75,56
2,40,45,120
2,40,75,56
2,40,45,120
2,40,75,56
2,40,75,760
2,40,45,120
2,40,75,56
2,40,45,120
2,40,75,56
2,40,45,120
2,40,75,56
2,40,45,120
2,40,75,56
2,40,75,760
2,40,45,120
2,40,75,56
2,40,45,120
2,40,75,56
2,40,45,120
2,40,75,56
2,40,45,120
2,40,75,56
2,40,75,760
2,40,45,120
2,40,75,56
2,40,45,120
2,40,75,56
2,40,45,120
2,40,75,56
2,40,45,120
2,40,75,56
2,40,75,760
2,40,45,120
2,40,75,56
2,40,45,120
2,40,75,56
2,40,45,120
2,40,75,56
2,40,45,120
2,40,75,56
2,40,75,760
2,40,45,120
2,40,75,56
2,40,45,120
2,40,75,56
2,40,45,120
2,40,75,56
2,40,45,120
2,40,75,56
2,40,75,760
2,40,45,120
2,40,75,56
2,40,45,120
2,40,75,56
2,40,45,120
2,40,75,56
2,40,45,120
2,40,75,56
2,40,75,760
2,40,45,120
2,40,75,56
2,40,45,120
2,40,75,56
2,40,45,120
2,40,75,56
2,40,45,120
2,40,75,56
2,40,75,760
2,40,45,120
2,40,75,56
2,40,45,120
2,40,75,56
2,40,45,120
2,40,75,56
2,40,45,120
2,40,75,56
2,40,75,760
2,40,45,120
2,40,75,56
2,40,45,120
2,40,75,56
2,40,45,120
2,40,75,56
2,40,45,120
2,40,75,56
2,40,75,760
2,40,45,120
2,40,75,56
2,40,45,120
2,40,75,56
2,40,45,120
2,40,75,56
2,40,45,120
2,40,75,56
2,40,75,760
2,40,45,120
2,40,75,56
2,40,45,120
2,40,75,56
2,40,45,120
2,40,75,56
2,40,45,120
2,40,75,56
2,40,53,56
2,40,58,56
2,40,64,56
2,40,69,56
2,40,75,56
2,40,81,56
2,40,86,56
2,40,92,56
2,40,97,56
2,40,103,56
2,40,109,56
2,40,75,184
2,40,95,56
2,40,75,312
2,40,95,56
2,40,75,312
2,40,95,56
2,40,75,312
2,40,95,56
2,40,75,312
2,40,95,56
2,40,75,312
2,40,95,56
2,40,75,312
2,40,95,56
2,40,75,312
2,40,95,56
2,40,75,312
2,40,95,56
2,40,75,312
2,40,95,56
2,40,75,312
2,40,95,56
2,40,75,312
2,40,95,56
2,40,75,312
2,40,95,56
2,40,75,312
2,40,95,56
2,40,75,312
2,40,95,56
2,40,75,312
2,40,95,56
2,40,75,312
2,40,95,56
2,40,75,312
2,40,95,56
2,40,75,312
2,40,95,56
2,40,75,312
2,40,95,56
2,40,37,184
2,40,41,32
2,40,46,32
2,40,95,63
2,40,55,0
2,40,60,0
2,40,65,0
2,40,69,0
2,40,74,0
2,40,95,63
2,40,88,0
2,40,70,703
2,40,45,127
2,40,75,0
2,40,45,0
2,40,75,0
2,40,45,0
2,40,75,0
2,40,45,0
2,40,45,127
2,40,75,0
2,40,45,0
2,40,75,0
2,40,45,0
2,40,75,0
2,40,45,0
2,40,45,127
2,40,75,0
2,40,45,0
2,40,75,0
2,40,45,0
2,40,75,0
2,40,45,0
2,40,45,127
2,40,75,0
2,40,45,0
2,40,75,0
2,40,45,0
2,40,75,0
2,40,45,0
2,40,45,127
2,40,75,0
2,40,45,0
2,40,75,0
2,40,45,0
2,40,75,0
2,40,45,0
2,40,45,127
2,40,75,0
2,40,45,0
2,40,75,0
2,40,45,0
2,40,75,0
2,40,45,0
2,40,45,127
2,40,75,0
2,40,45,0
2,40,75,0
2,40,45,0
2,40,75,0
2,40,45,0
2,40,45,127
2,40,75,0
2,40,45,0
2,40,75,0
2,40,45,0
2,40,75,0
2,40,45,0
2,40,45,127
2,40,75,0
2,40,45,0
2,40,75,0
2,40,45,0
2,40,75,0
2,40,45,0
2,40,45,127
2,40,75,0
2,40,45,0
2,40,75,0
2,40,45,0
2,40,75,0
2,40,45,0
2,40,45,127
2,40,75,0
2,40,45,0
2,40,75,0
2,40,45,0
2,40,75,0
2,40,45,0
2,40,45,127
2,40,75,0
2,40,45,0
2,40,75,0
2,40,45,0
2,40,75,0
2,40,45,0
2,40,53,63
2,40,58,0
2,40,64,0
2,40,69,0
2,40,75,0
2,40,81,0
2,40,86,0
2,40,92,0
2,40,97,0
2,40,103,0
2,40,109,0
2,40,75,0
2,40,95,0
2,40,75,0
2,40,95,0
2,40,75,0
2,40,95,0
2,40,75,0
2,40,95,0
2,40,75,0
2,40,95,0
2,40,75,0
2,40,95,0
2,40,75,0
2,40,95,0
2,40,75,0
2,40,95,0
2,40,75,0
2,40,95,0
2,40,75,0
2,40,95,0
2,40,75,0
2,40,95,0
2,40,75,0
2,40,95,0
2,40,75,0
2,40,95,0
2,40,75,0
2,40,95,0
2,40,75,0
2,40,95,0
2,40,75,0
2,40,95,0
2,40,75,0
2,40,95,0
2,40,75,0
2,40,95,0
2,40,75,0
2,40,95,0
2,40,75,0
2,40,95,0
2,40,75,0
2,40,95,0
2,40,75,0
2,40,95,0
2,40,75,0
2,40,95,0
2,40,75,0
2,40,95,0
2,40,84,0
2,40,75,0
2,40,95,0
2,40,75,0
2,40,95,0
2,40,75,0
2,40,95,0
2,40,75,0
2,40,95,0
2,40,75,0
2,40,95,0
2,40,75,0
2,40,95,0
2,40,75,0
2,40,95,0
2,40,75,0
2,40,95,0
2,40,75,0
2,40,95,0
2,40,75,0
2,40,95,0
2,40,75,0
2,40,95,0
2,40,75,0
2,40,95,0
2,40,75,0
2,40,95,0
2,40,75,0
2,40,95,0
2,40,75,0
2,40,95,0
2,40,75,0
2,40,95,0
2,40,75,0
2,40,95,0
2,40,75,0
2,40,95,0
2,40,75,0
2,40,95,0
2,40,75,0
2,40,95,0
2,40,75,0
2,40,95,0
2,40,75,0
2,40,95,0
2,40,84,15
2,40,75,0
2,40,95,0
3,42,47,768
3,42,47,184
3,42,47,184
3,42,47,184
3,42,47,184
3,42,47,184
3,42,47,184
3,42,47,184
3,42,47,184
3,42,47,184
3,42,47,184
3,42,47,184
3,42,80,184
3,42,80,120
3,42,80,56
3,42,80,120
3,42,80,56
3,42,80,120
3,42,80,56
3,42,80,120
3,42,80,56
3,42,47,184
3,42,47,184
3,42,47,184
3,42,80,184
3,42,80,120
3,42,80,56
3,42,80,120
3,42,80,56
3,42,80,120
3,42,80,56
3,42,80,120
3,42,80,56
3,42,47,184
3,42,47,184
3,42,47,184
3,42,80,184
3,42,80,120
3,42,80,56
3,42,80,120
3,42,80,56
3,42,80,120
3,42,80,56
3,42,80,120
3,42,80,56
3,42,47,184
3,42,47,184
3,42,47,184
3,42,80,184
3,42,80,120
3,42,80,56
3,42,80,120
3,42,80,56
3,42,80,120
3,42,80,56
3,42,80,120
3,42,80,56
3,42,47,184
3,42,47,184
3,42,47,184
3,42,80,184
3,42,80,120
3,42,80,56
3,42,80,120
3,42,80,56
3,42,80,120
3,42,80,56
3,42,80,120
3,42,80,56
3,42,47,184
3,42,47,184
3,42,47,184
3,42,80,184
3,42,80,120
3,42,80,56
3,42,80,120
3,42,80,56
3,42,80,120
3,42,80,56
3,42,80,120
3,42,80,56
3,42,47,184
3,42,47,184
3,42,47,184
3,42,80,184
3,42,80,120
3,42,80,56
3,42,80,120
3,42,80,56
3,42,80,120
3,42,80,56
3,42,80,120
3,42,80,56
3,42,47,184
3,42,47,184
3,42,47,184
3,42,80,184
3,42,80,120
3,42,80,56
3,42,80,120
3,42,80,56
3,42,80,120
3,42,80,56
3,42,80,120
3,42,80,56
3,42,47,184
3,42,47,184
3,42,47,184
3,42,80,184
3,42,80,120
3,42,80,56
3,42,80,120
3,42,80,56
3,42,80,120
3,42,80,56
3,42,80,120
3,42,80,56
3,42,47,184
3,42,47,184
3,42,47,184
3,42,80,184
3,42,80,120
3,42,80,56
3,42,80,120
3,42,80,56
3,42,80,120
3,42,80,56
3,42,80,120
3,42,80,56
3,42,47,184
3,42,47,184
3,42,47,184
3,42,80,184
3,42,80,120
3,42,80,56
3,42,80,120
3,42,80,56
3,42,80,120
3,42,80,56
3,42,80,120
3,42,80,56
3,42,47,184
3,42,47,184
3,42,47,184
3,42,80,184
3,42,80,120
3,42,80,56
3,42,80,120
3,42,80,56
3,42,80,120
3,42,80,56
3,42,80,120
3,42,80,56
3,42,47,184
3,42,47,184
3,42,47,184
3,42,111,184
3,42,91,120
3,42,111,56
3,42,91,120
3,42,111,56
3,42,91,120
3,42,111,56
3,42,91,120
3,42,111,56
3,42,91,120
3,42,111,56
3,42,91,120
3,42,111,56
3,42,91,120
3,42,111,56
3,42,91,120
3,42,111,56
3,42,91,120
3,42,111,56
3,42,91,120
3,42,111,56
3,42,91,120
3,42,111,56
3,42,91,120
3,42,111,56
3,42,91,120
3,42,111,56
3,42,91,120
3,42,111,56
3,42,91,120
3,42,111,56
3,42,91,120
3,42,111,56
3,42,91,120
3,42,111,56
3,42,91,120
3,42,111,56
3,42,91,120
3,42,111,56
3,42,91,120
3,42,111,56
3,42,91,120
3,42,111,56
3,42,91,120
3,42,111,56
3,42,91,120
3,42,111,56
3,42,91,120
3,42,111,56
3,42,91,120
3,42,111,56
3,42,91,120
3,42,111,56
3,42,91,120
3,42,111,56
3,42,91,120
3,42,111,56
3,42,91,120
3,42,111,56
3,42,91,120
3,42,111,56
3,42,91,120
3,42,111,56
3,42,91,120
3,42,111,56
3,42,91,120
3,42,111,56
3,42,91,120
3,42,111,56
3,42,91,120
3,42,111,56
3,42,91,120
3,42,111,56
3,42,91,120
3,42,111,56
3,42,91,120
3,42,111,56
3,42,91,120
3,42,111,56
3,42,91,120
3,42,111,56
3,42,91,120
3,42,111,56
3,42,91,120
3,42,111,56
3,42,91,120
3,42,111,56
3,42,91,120
3,42,111,56
3,42,12,120
3,42,12,32
3,42,12,72
3,42,12,32
3,42,12,72
3,42,12,8
3,42,12,72
3,42,80,8
3,42,80,120
3,42,80,56
3,42,80,120
3,42,80,56
3,42,80,120
3,42,80,56
3,42,80,120
3,42,80,56
3,42,47,184
3,42,47,184
3,42,47,184
3,42,80,184
3,42,80,120
3,42,80,56
3,42,80,120
3,42,80,56
3,42,80,120
3,42,80,56
3,42,80,120
3,42,80,56
3,42,47,184
3,42,47,184
3,42,47,184
3,42,80,184
3,42,80,120
3,42,80,56
3,42,80,120
3,42,80,56
3,42,80,120
3,42,80,56
3,42,80,120
3,42,80,56
3,42,47,184
3,42,47,184
3,42,47,184
3,42,80,184
3,42,80,120
3,42,80,56
3,42,80,120
3,42,80,56
3,42,80,120
3,42,80,56
3,42,80,120
3,42,80,56
3,42,47,184
3,42,47,184
3,42,47,184
3,42,80,184
3,42,80,120
3,42,80,56
3,42,80,120
3,42,80,56
3,42,80,120
3,42,80,56
3,42,80,120
3,42,80,56
3,42,47,184
3,42,47,184
3,42,47,184
3,42,80,184
3,42,80,120
3,42,80,56
3,42,80,120
3,42,80,56
3,42,80,120
3,42,80,56
3,42,80,120
3,42,80,56
3,42,47,184
3,42,47,184
3,42,47,184
3,42,80,184
3,42,80,120
3,42,80,56
3,42,80,120
3,42,80,56
3,42,80,120
3,42,80,56
3,42,80,120
3,42,80,56
3,42,47,184
3,42,47,184
3,42,47,184
3,42,80,184
3,42,80,120
3,42,80,56
3,42,80,120
3,42,80,56
3,42,80,120
3,42,80,56
3,42,80,120
3,42,80,56
3,42,47,184
3,42,47,184
3,42,47,184
3,42,80,184
3,42,80,120
3,42,80,56
3,42,80,120
3,42,80,56
3,42,80,120
3,42,80,56
3,42,80,120
3,42,80,56
3,42,47,184
3,42,47,184
3,42,47,184
3,42,80,184
3,42,80,120
3,42,80,56
3,42,80,120
3,42,80,56
3,42,80,120
3,42,80,56
3,42,80,120
3,42,80,56
3,42,47,184
3,42,47,184
3,42,47,184
3,42,80,184
3,42,80,120
3,42,80,56
3,42,80,120
3,42,80,56
3,42,80,120
3,42,80,56
3,42,80,120
3,42,80,56
3,42,47,184
3,42,47,184
3,42,47,184
3,42,80,184
3,42,80,120
3,42,80,56
3,42,80,120
3,42,80,56
3,42,80,120
