track,note,velocity,time
1,1,1,0
1,69,88,14404
1,77,88,12
1,77,88,48
1,77,88,40
1,77,88,64
1,74,88,8
1,74,88,712
1,74,88,60
1,76,88,24
1,77,88,12
1,77,88,88
1,77,88,80
1,77,88,132
1,74,88,108
1,74,88,628
1,77,88,8
1,79,88,120
1,79,88,56
1,79,88,44
1,79,88,72
1,77,88,180
1,74,88,20
1,77,88,944
1,78,88,32
1,79,88,60
1,79,88,80
1,79,88,52
1,77,88,40
1,74,88,328
1,74,88,1504
1,74,88,72
1,72,88,72
1,74,88,68
1,74,88,380
1,74,88,72
1,72,88,172
1,74,88,684
1,74,88,52
1,72,88,92
1,74,88,20
1,74,88,396
1,74,88,92
1,72,88,212
1,74,88,868
1,74,88,76
1,72,88,84
1,74,88,108
1,74,88,624
1,72,88,272
1,81,88,572
1,81,88,68
1,81,88,232
1,79,88,68
1,81,88,60
1,81,88,220
1,84,88,8
1,81,88,4
1,81,88,160
1,81,88,1996
1,81,88,48
1,89,88,52
1,88,88,68
1,88,88,112
1,89,88,1124
1,86,88,208
1,81,88,252
1,81,88,72
1,89,88,72
1,88,88,8
1,88,88,112
1,88,88,108
1,88,88,144
1,89,88,144
1,86,88,24
1,86,88,132
1,86,88,152
1,86,88,56
1,86,88,52
1,86,88,80
1,84,88,12
1,86,88,12
1,86,88,140
1,86,88,52
1,86,88,124
1,84,88,12
1,81,88,292
1,79,88,260
1,81,88,84
1,93,88,728
1,93,88,224
1,93,88,148
1,93,88,148
1,93,88,144
1,93,88,84
1,94,88,104
1,91,88,136
1,88,88,148
1,88,88,52
1,89,88,196
1,91,88,8
1,91,88,112
1,91,88,104
1,91,88,64
1,93,88,388
1,91,88,12
1,89,88,8
1,86,88,176
1,86,88,96
1,88,88,160
1,89,88,28
1,86,88,20
1,89,88,100
1,86,88,8
1,91,88,16
1,89,88,152
1,88,88,576
1,89,88,392
1,88,88,152
1,69,88,14056
1,77,88,8
1,77,88,60
1,77,88,80
1,77,88,80
1,74,88,20
1,74,88,220
1,76,88,224
1,77,88,184
1,77,88,68
1,77,88,52
1,77,88,52
1,74,88,8
1,74,88,128
1,77,88,20
1,79,88,20
1,79,88,96
1,79,88,60
1,77,88,0
1,74,88,20
1,74,88,528
1,77,88,172
1,79,88,8
1,79,88,100
1,79,88,40
1,77,88,404
1,74,88,396
1,74,88,976
1,74,88,36
1,72,88,12
1,74,88,200
1,74,88,424
1,74,88,40
1,72,88,8
1,74,88,8
1,74,88,1132
1,74,88,20
1,72,88,8
1,74,88,196
1,74,88,424
1,74,88,64
1,72,88,20
1,74,88,52
1,74,88,1172
1,74,88,52
1,72,88,60
1,74,88,80
1,74,88,424
1,74,88,80
1,72,88,240
1,81,88,836
1,81,88,172
1,81,88,72
1,79,88,120
1,81,88,20
1,81,88,260
1,84,88,204
1,81,88,208
1,79,88,28
1,81,88,32
1,81,88,2332
1,81,88,64
1,89,88,28
1,88,88,32
1,88,88,108
1,89,88,1164
1,86,88,180
1,81,88,32
1,81,88,68
1,89,88,28
1,88,88,4
1,88,88,100
1,88,88,104
1,88,88,108
1,89,88,380
1,86,88,12
1,86,88,120
1,86,88,120
1,86,88,28
1,86,88,56
1,84,88,8
1,86,88,156
1,86,88,112
1,86,88,124
1,86,88,72
1,84,88,16
1,81,88,596
1,79,88,32
1,81,88,200
1,93,88,1200
1,93,88,172
1,93,88,216
1,93,88,216
1,93,88,100
1,93,88,52
1,94,88,364
1,91,88,396
1,88,88,20
1,88,88,136
1,89,88,192
1,91,88,24
1,91,88,164
1,91,88,92
1,91,88,76
1,93,88,360
1,91,88,12
1,89,88,12
1,86,88,148
1,86,88,108
1,88,88,12
1,89,88,12
1,86,88,12
1,89,88,112
1,86,88,12
1,91,88,196
1,89,88,192
1,88,88,576
1,89,88,360
1,88,88,32
1,81,88,1156
1,81,88,72
1,89,88,52
1,88,88,64
1,88,88,156
1,89,88,1136
1,86,88,8
1,81,88,384
1,81,88,68
1,89,88,48
1,88,88,8
1,88,88,144
1,88,88,136
1,88,88,164
1,89,88,8
1,86,88,192
1,86,88,140
1,86,88,160
1,86,88,16
1,86,88,44
1,86,88,52
1,84,88,20
1,86,88,240
1,86,88,120
1,86,88,124
1,86,88,84
1,84,88,20
1,81,88,312
1,79,88,20
1,81,88,192
1,93,88,1448
1,93,88,160
1,93,88,168
1,93,88,192
1,93,88,60
1,93,88,32
1,94,88,372
1,91,88,12
1,88,88,8
1,88,88,144
1,89,88,192
1,91,88,20
1,91,88,112
1,91,88,80
1,91,88,88
1,93,88,380
1,91,88,384
1,89,88,8
1,86,88,84
1,88,88,384
1,89,88,12
1,86,88,20
1,89,88,376
1,91,88,244
1,89,88,148
1,88,88,0
1,89,88,376
1,88,88,20
2,26,109,2308
2,26,109,0
2,26,109,0
2,26,109,0
2,29,109,104
2,29,109,0
2,29,109,0
2,29,109,0
2,33,109,120
2,33,109,0
2,33,109,0
2,33,109,0
2,29,109,16
2,29,109,0
2,29,109,0
2,29,109,0
2,29,109,80
2,29,109,0
2,29,109,0
2,29,109,0
2,28,109,99
2,28,109,0
2,28,109,0
2,28,109,0
2,26,109,92
2,26,109,0
2,26,109,0
2,26,109,0
2,26,109,92
2,26,109,0
2,26,109,0
2,26,109,0
2,29,109,88
2,29,109,0
2,29,109,0
2,29,109,0
2,33,109,112
2,33,109,0
2,33,109,0
2,33,109,0
2,29,109,4
2,29,109,0
2,29,109,0
2,29,109,0
2,26,109,8
2,26,109,0
2,26,109,0
2,26,109,0
2,33,109,8
2,33,109,0
2,33,109,0
2,33,109,0
2,33,109,112
2,33,109,0
2,33,109,0
2,33,109,0
2,36,109,112
2,36,109,0
2,36,109,0
2,36,109,0
2,38,109,132
2,38,109,0
2,38,109,0
2,38,109,0
2,40,109,16
2,40,109,0
2,40,109,0
2,40,109,0
2,36,109,283
2,36,109,0
2,36,109,0
2,36,109,0
2,35,109,0
2,35,109,0
2,35,109,0
2,35,109,0
2,33,109,12
2,33,109,0
2,33,109,0
2,33,109,0
2,33,109,124
2,33,109,0
2,33,109,0
2,33,109,0
2,36,109,128
2,36,109,0
2,36,109,0
2,36,109,0
2,38,109,128
2,38,109,0
2,38,109,0
2,38,109,0
2,40,109,8
2,40,109,0
2,40,109,0
2,40,109,0
2,29,109,287
2,29,109,0
2,29,109,0
2,29,109,0
2,26,109,164
2,26,109,0
2,26,109,0
2,26,109,0
2,26,109,128
2,26,109,0
2,26,109,0
2,26,109,0
2,29,109,100
2,29,109,0
2,29,109,0
2,29,109,0
2,33,109,108
2,33,109,0
2,33,109,0
2,33,109,0
2,29,109,283
2,29,109,0
2,29,109,0
2,29,109,0
2,29,109,92
2,29,109,0
2,29,109,0
2,29,109,0
2,28,109,4
2,28,109,0
2,28,109,0
2,28,109,0
2,26,109,8
2,26,109,0
2,26,109,0
2,26,109,0
2,26,109,116
2,26,109,0
2,26,109,0
2,26,109,0
2,29,109,100
2,29,109,0
2,29,109,0
2,29,109,0
2,33,109,116
2,33,109,0
2,33,109,0
2,33,109,0
2,29,109,4
2,29,109,0
2,29,109,0
2,29,109,0
2,26,109,100
2,26,109,0
2,26,109,0
2,26,109,0
2,33,109,4
2,33,109,0
2,33,109,0
2,33,109,0
2,33,109,100
2,33,109,0
2,33,109,0
2,33,109,0
2,36,109,112
2,36,109,0
2,36,109,0
2,36,109,0
2,38,109,120
2,38,109,0
2,38,109,0
2,38,109,0
2,40,109,4
2,40,109,0
2,40,109,0
2,40,109,0
2,36,109,40
2,36,109,0
2,36,109,0
2,36,109,0
2,35,109,12
2,35,109,0
2,35,109,0
2,35,109,0
2,33,109,16
2,33,109,0
2,33,109,0
2,33,109,0
2,33,109,104
2,33,109,0
2,33,109,0
2,33,109,0
2,36,109,120
2,36,109,0
2,36,109,0
2,36,109,0
2,38,109,124
2,38,109,0
2,38,109,0
2,38,109,0
2,40,109,16
2,40,109,0
2,40,109,0
2,40,109,0
2,33,109,44
2,33,109,0
2,33,109,0
2,33,109,0
2,26,109,32
2,26,109,0
2,26,109,0
2,26,109,0
2,38,109,88
2,38,109,0
2,38,109,0
2,38,109,0
2,26,109,128
2,26,109,0
2,26,109,0
2,26,109,0
2,38,109,104
2,38,109,0
2,38,109,0
2,38,109,0
2,26,109,132
2,26,109,0
2,26,109,0
2,26,109,0
2,38,109,100
2,38,109,0
2,38,109,0
2,38,109,0
2,26,109,128
2,26,109,0
2,26,109,0
2,26,109,0
2,38,109,72
2,38,109,0
2,38,109,0
2,38,109,0
2,26,109,112
2,26,109,0
2,26,109,0
2,26,109,0
2,38,109,76
2,38,109,0
2,38,109,0
2,38,109,0
2,26,109,112
2,26,109,0
2,26,109,0
2,26,109,0
2,38,109,104
2,38,109,0
2,38,109,0
2,38,109,0
2,26,109,108
2,26,109,0
2,26,109,0
2,26,109,0
2,38,109,92
2,38,109,0
2,38,109,0
2,38,109,0
2,26,109,112
2,26,109,0
2,26,109,0
2,26,109,0
2,38,109,104
2,38,109,0
2,38,109,0
2,38,109,0
2,26,109,124
2,26,109,0
2,26,109,0
2,26,109,0
2,38,109,92
2,38,109,0
2,38,109,0
2,38,109,0
2,26,109,116
2,26,109,0
2,26,109,0
2,26,109,0
2,38,109,104
2,38,109,0
2,38,109,0
2,38,109,0
2,26,109,124
2,26,109,0
2,26,109,0
2,26,109,0
2,38,109,96
2,38,109,0
2,38,109,0
2,38,109,0
2,26,109,128
2,26,109,0
2,26,109,0
2,26,109,0
2,38,109,88
2,38,109,0
2,38,109,0
2,38,109,0
2,26,109,116
2,26,109,0
2,26,109,0
2,26,109,0
2,38,109,88
2,38,109,0
2,38,109,0
2,38,109,0
2,26,109,124
2,26,109,0
2,26,109,0
2,26,109,0
2,38,109,100
2,38,109,0
2,38,109,0
2,38,109,0
2,26,109,132
2,26,109,0
2,26,109,0
2,26,109,0
2,38,109,112
2,38,109,0
2,38,109,0
2,38,109,0
2,26,109,132
2,26,109,0
2,26,109,0
2,26,109,0
2,38,109,112
2,38,109,0
2,38,109,0
2,38,109,0
2,31,109,132
2,31,109,0
2,31,109,0
2,31,109,0
2,43,109,108
2,43,109,0
2,43,109,0
2,43,109,0
2,31,109,116
2,31,109,0
2,31,109,0
2,31,109,0
2,43,109,112
2,43,109,0
2,43,109,0
2,43,109,0
2,31,109,132
2,31,109,0
2,31,109,0
2,31,109,0
2,43,109,108
2,43,109,0
2,43,109,0
2,43,109,0
2,31,109,132
2,31,109,0
2,31,109,0
2,31,109,0
2,43,109,100
2,43,109,0
2,43,109,0
2,43,109,0
2,31,109,132
2,31,109,0
2,31,109,0
2,31,109,0
2,43,109,120
2,43,109,0
2,43,109,0
2,43,109,0
2,31,109,132
2,31,109,0
2,31,109,0
2,31,109,0
2,43,109,108
2,43,109,0
2,43,109,0
2,43,109,0
2,31,109,132
2,31,109,0
2,31,109,0
2,31,109,0
2,43,109,120
2,43,109,0
2,43,109,0
2,43,109,0
2,31,109,132
2,31,109,0
2,31,109,0
2,31,109,0
2,43,109,120
2,43,109,0
2,43,109,0
2,43,109,0
2,31,109,128
2,31,109,0
2,31,109,0
2,31,109,0
2,43,109,120
2,43,109,0
2,43,109,0
2,43,109,0
2,31,109,132
2,31,109,0
2,31,109,0
2,31,109,0
2,43,109,88
2,43,109,0
2,43,109,0
2,43,109,0
2,31,109,120
2,31,109,0
2,31,109,0
2,31,109,0
2,43,109,92
2,43,109,0
2,43,109,0
2,43,109,0
2,31,109,120
2,31,109,0
2,31,109,0
2,31,109,0
2,43,109,92
2,43,109,0
2,43,109,0
2,43,109,0
2,31,109,124
2,31,109,0
2,31,109,0
2,31,109,0
2,43,109,100
2,43,109,0
2,43,109,0
2,43,109,0
2,31,109,120
2,31,109,0
2,31,109,0
2,31,109,0
2,43,109,108
2,43,109,0
2,43,109,0
2,43,109,0
2,31,109,120
2,31,109,0
2,31,109,0
2,31,109,0
2,43,109,88
2,43,109,0
2,43,109,0
2,43,109,0
2,31,109,132
2,31,109,0
2,31,109,0
2,31,109,0
2,43,109,112
2,43,109,0
2,43,109,0
2,43,109,0
2,26,109,132
2,26,109,0
2,26,109,0
2,26,109,0
2,38,109,96
2,38,109,0
2,38,109,0
2,38,109,0
2,26,109,132
2,26,109,0
2,26,109,0
2,26,109,0
2,38,109,80
2,38,109,0
2,38,109,0
2,38,109,0
2,26,109,120
2,26,109,0
2,26,109,0
2,26,109,0
2,38,109,92
2,38,109,0
2,38,109,0
2,38,109,0
2,26,109,128
2,26,109,0
2,26,109,0
2,26,109,0
2,38,109,100
2,38,109,0
2,38,109,0
2,38,109,0
2,26,109,132
2,26,109,0
2,26,109,0
2,26,109,0
2,38,109,96
2,38,109,0
2,38,109,0
2,38,109,0
2,26,109,124
2,26,109,0
2,26,109,0
2,26,109,0
2,38,109,96
2,38,109,0
2,38,109,0
2,38,109,0
2,26,109,132
2,26,109,0
2,26,109,0
2,26,109,0
2,38,109,88
2,38,109,0
2,38,109,0
2,38,109,0
2,26,109,132
2,26,109,0
2,26,109,0
2,26,109,0
2,38,109,100
2,38,109,0
2,38,109,0
2,38,109,0
2,29,109,132
2,29,109,0
2,29,109,0
2,29,109,0
2,41,109,108
2,41,109,0
2,41,109,0
2,41,109,0
2,29,109,132
2,29,109,0
2,29,109,0
2,29,109,0
2,41,109,88
2,41,109,0
2,41,109,0
2,41,109,0
2,29,109,132
2,29,109,0
2,29,109,0
2,29,109,0
2,41,109,116
2,41,109,0
2,41,109,0
2,41,109,0
2,29,109,132
2,29,109,0
2,29,109,0
2,29,109,0
2,41,109,108
2,41,109,0
2,41,109,0
2,41,109,0
2,29,109,132
2,29,109,0
2,29,109,0
2,29,109,0
2,41,109,112
2,41,109,0
2,41,109,0
2,41,109,0
2,29,109,120
2,29,109,0
2,29,109,0
2,29,109,0
2,41,109,96
2,41,109,0
2,41,109,0
2,41,109,0
2,29,109,132
2,29,109,0
2,29,109,0
2,29,109,0
2,41,109,100
2,41,109,0
2,41,109,0
2,41,109,0
2,29,109,128
2,29,109,0
2,29,109,0
2,29,109,0
2,41,109,84
2,41,109,0
2,41,109,0
2,41,109,0
2,31,109,136
2,31,109,0
2,31,109,0
2,31,109,0
2,43,109,100
2,43,109,0
2,43,109,0
2,43,109,0
2,31,109,132
2,31,109,0
2,31,109,0
2,31,109,0
2,43,109,112
2,43,109,0
2,43,109,0
2,43,109,0
2,31,109,132
2,31,109,0
2,31,109,0
2,31,109,0
2,43,109,112
2,43,109,0
2,43,109,0
2,43,109,0
2,31,109,132
2,31,109,0
2,31,109,0
2,31,109,0
2,43,109,96
2,43,109,0
2,43,109,0
2,43,109,0
2,31,109,132
2,31,109,0
2,31,109,0
2,31,109,0
2,43,109,96
2,43,109,0
2,43,109,0
2,43,109,0
2,31,109,120
2,31,109,0
2,31,109,0
2,31,109,0
2,43,109,96
2,43,109,0
2,43,109,0
2,43,109,0
2,31,109,112
2,31,109,0
2,31,109,0
2,31,109,0
2,43,109,108
2,43,109,0
2,43,109,0
2,43,109,0
2,31,109,124
2,31,109,0
2,31,109,0
2,31,109,0
2,43,109,112
2,43,109,0
2,43,109,0
2,43,109,0
2,33,109,124
2,33,109,0
2,33,109,0
2,33,109,0
2,45,109,96
2,45,109,0
2,45,109,0
2,45,109,0
2,33,109,108
2,33,109,0
2,33,109,0
2,33,109,0
2,45,109,108
2,45,109,0
2,45,109,0
2,45,109,0
2,33,109,132
2,33,109,0
2,33,109,0
2,33,109,0
2,45,109,116
2,45,109,0
2,45,109,0
2,45,109,0
2,33,109,124
2,33,109,0
2,33,109,0
2,33,109,0
2,45,109,124
2,45,109,0
2,45,109,0
2,45,109,0
2,33,109,132
2,33,109,0
2,33,109,0
2,33,109,0
2,45,109,124
2,45,109,0
2,45,109,0
2,45,109,0
2,33,109,120
2,33,109,0
2,33,109,0
2,33,109,0
2,45,109,128
2,45,109,0
2,45,109,0
2,45,109,0
2,33,109,132
2,33,109,0
2,33,109,0
2,33,109,0
