track,note,velocity,time
2,36,91,4608
2,36,91,368
2,36,91,368
2,36,91,368
2,36,91,368
2,36,91,368
2,36,91,368
2,36,91,368
2,36,91,368
2,36,91,368
2,36,91,368
2,36,91,368
2,36,91,368
2,36,91,368
2,36,91,368
2,36,91,368
2,36,91,368
2,36,91,368
2,36,91,368
2,36,91,368
2,36,91,368
2,36,91,368
2,36,91,368
2,36,91,368
2,36,91,368
2,36,91,368
2,36,91,368
2,36,91,368
2,36,91,368
2,36,91,368
2,36,91,368
2,36,91,368
2,36,91,368
2,36,91,368
2,36,91,368
2,36,91,368
2,36,91,368
2,36,91,368
2,36,91,368
2,36,91,368
2,36,91,368
2,36,91,368
2,36,91,368
2,36,91,368
2,36,91,368
2,36,91,368
2,36,91,368
2,36,91,368
2,36,91,368
2,36,91,368
2,36,91,368
2,36,91,368
2,36,91,368
2,36,91,368
2,36,91,368
2,36,91,368
2,36,91,368
2,36,91,368
2,36,91,368
2,36,91,368
2,36,91,368
2,36,91,368
2,36,91,368
2,36,91,368
2,36,91,368
2,36,91,368
2,36,91,368
2,36,91,368
2,36,91,368
2,36,91,368
2,36,91,368
2,36,91,368
2,36,91,368
2,36,91,368
2,36,91,368
2,36,91,368
2,36,91,368
2,36,91,368
2,36,91,368
2,36,91,368
2,36,91,368
2,36,91,368
2,36,91,368
2,36,91,368
2,36,91,368
2,36,91,368
2,36,91,368
2,36,91,368
2,36,91,368
2,36,91,368
2,36,91,368
2,36,91,368
2,36,91,368
2,36,91,368
2,36,91,368
2,36,91,368
2,36,91,368
2,36,91,368
2,36,91,368
2,36,91,368
2,36,91,368
2,36,91,368
2,36,91,368
2,36,91,368
2,36,91,368
2,36,91,368
2,36,91,368
2,36,91,368
2,36,91,1904
2,36,91,368
2,36,91,368
2,36,91,368
2,36,91,368
2,36,91,368
2,36,91,368
2,36,91,368
2,36,91,368
2,36,91,368
2,36,91,368
2,36,91,368
2,36,91,368
2,36,91,368
2,36,91,368
2,36,91,368
2,36,91,368
2,36,91,368
2,36,91,368
2,36,91,368
2,36,91,368
2,36,91,368
2,36,91,368
2,36,91,368
2,36,91,368
2,36,91,368
2,36,91,368
2,36,91,368
2,36,91,368
2,36,91,368
2,36,91,368
2,36,91,368
2,36,91,368
2,36,91,368
2,36,91,368
2,36,91,368
2,36,91,368
2,36,91,368
2,36,91,368
2,36,91,368
2,36,91,368
2,36,91,368
2,36,91,368
2,36,91,368
2,36,91,368
2,36,91,368
2,36,91,368
2,36,91,368
2,36,91,368
2,36,91,368
2,36,91,368
2,36,91,368
2,36,91,368
2,36,91,368
2,36,91,368
2,36,91,368
2,36,91,368
2,36,91,368
2,36,91,368
2,36,91,368
2,36,91,368
2,36,91,368
2,36,91,368
2,36,91,368
2,36,91,368
2,36,91,368
2,36,91,368
2,36,91,368
2,36,91,368
2,36,91,368
2,36,91,368
2,36,91,368
2,36,91,368
2,36,91,368
2,36,91,368
2,36,91,368
2,36,91,368
2,36,91,368
2,36,91,368
2,36,91,368
2,36,91,368
2,36,91,368
2,36,91,368
2,36,91,368
2,36,91,368
2,36,91,368
2,36,91,368
2,36,91,368
2,36,91,368
2,36,91,368
2,36,91,368
2,36,91,368
2,36,91,368
2,36,91,368
2,36,91,368
2,36,91,368
2,36,91,368
2,36,91,368
2,36,91,368
2,36,91,368
2,36,91,368
2,36,91,368
2,36,91,368
2,36,91,368
2,36,91,368
2,36,91,368
2,36,91,368
2,36,91,368
2,36,91,368
2,36,91,368
2,36,91,368
2,36,91,368
2,36,91,368
2,36,91,368
2,36,91,368
2,36,91,368
2,36,91,368
2,36,91,368
2,36,91,368
2,36,91,368
2,36,91,368
2,36,91,368
2,36,91,368
2,36,91,368
2,36,91,368
2,36,91,368
2,36,91,368
2,36,91,368
2,36,91,368
2,36,91,368
2,36,91,368
2,36,91,368
2,36,91,368
2,36,91,368
2,36,91,368
2,36,91,368
2,36,91,368
2,36,91,368
2,36,91,368
2,36,91,368
2,36,91,368
2,36,91,368
2,36,91,368
2,36,91,368
2,36,91,368
2,36,91,368
2,36,91,368
2,36,91,368
2,36,91,368
2,36,91,368
2,36,91,368
2,36,91,368
2,36,91,368
2,36,91,368
2,36,91,368
2,36,91,368
2,36,91,368
2,36,91,368
2,36,91,368
2,36,91,368
2,36,91,368
2,36,91,1328
2,36,91,176
2,36,91,1328
2,36,91,176
2,36,91,1328
2,36,91,176
2,36,91,752
2,36,91,368
2,36,91,368
2,36,91,368
2,36,91,368
2,36,91,368
2,36,91,368
2,36,91,368
2,36,91,368
2,36,91,368
2,36,91,368
2,36,91,368
2,36,91,368
2,36,91,368
2,36,91,368
2,36,91,368
2,36,91,368
2,36,91,368
2,36,91,368
2,36,91,368
2,36,91,368
2,36,91,368
2,36,91,368
2,36,91,368
2,36,91,368
2,36,91,368
2,36,91,368
2,36,91,368
2,36,91,368
2,36,91,368
2,36,91,368
2,36,91,368
2,36,91,368
2,36,91,368
2,36,91,368
2,36,91,368
2,36,91,368
2,36,91,368
2,36,91,368
2,36,91,368
2,36,91,368
2,36,91,368
2,36,91,368
2,36,91,368
2,36,91,368
2,36,91,368
2,36,91,368
2,36,91,368
2,36,91,368
2,36,91,368
2,36,91,368
2,36,91,368
2,36,91,368
2,36,91,368
2,36,91,368
2,36,91,368
2,36,91,368
2,36,91,368
2,36,91,368
2,36,91,368
2,36,91,368
2,36,91,368
2,36,91,368
2,36,91,368
2,36,91,368
2,36,91,368
2,36,91,368
2,36,91,368
2,36,91,368
2,36,91,368
2,36,91,1904
2,36,91,368
2,36,91,368
2,36,91,368
2,36,91,368
2,36,91,368
2,36,91,368
2,36,91,368
2,36,91,368
2,36,91,368
2,36,91,368
2,36,91,368
2,36,91,368
2,36,91,368
2,36,91,368
2,36,91,368
2,36,91,368
2,36,91,368
2,36,91,368
2,36,91,368
2,36,91,368
2,36,91,368
2,36,91,368
2,36,91,368
2,36,91,368
2,36,91,368
2,36,91,368
2,36,91,368
2,36,91,368
2,36,91,368
2,36,91,368
2,36,91,368
2,36,91,368
2,36,91,368
2,36,91,368
2,36,91,368
2,36,91,368
2,36,91,368
2,36,91,368
2,36,91,368
2,36,91,368
2,36,91,368
2,36,91,368
2,36,91,368
2,36,91,368
2,36,91,368
2,36,91,368
2,36,91,368
2,36,91,368
2,36,91,368
2,36,91,368
2,36,91,368
2,36,91,368
2,36,91,368
2,36,91,368
2,36,91,368
2,36,91,368
2,36,91,368
2,36,91,368
2,36,91,368
2,36,91,368
2,36,91,368
2,36,91,368
2,36,91,368
2,36,91,368
2,36,91,368
2,36,91,368
2,36,91,368
2,36,91,368
2,36,91,368
2,36,91,368
2,36,91,368
2,36,91,368
2,36,91,368
2,36,91,368
2,36,91,368
2,36,91,368
2,36,91,368
2,36,91,368
2,36,91,368
2,36,91,368
2,36,91,368
2,36,91,368
2,36,91,368
2,36,91,368
2,36,91,368
2,36,91,368
2,36,91,368
2,36,91,368
2,36,91,368
2,36,91,368
2,36,91,368
2,36,91,368
2,36,91,368
2,36,91,368
2,36,91,368
2,36,91,368
2,36,91,368
2,36,91,368
2,36,91,368
2,36,91,368
2,36,91,368
2,36,91,368
2,36,91,368
2,36,91,368
2,36,91,368
2,36,91,368
2,36,91,368
2,36,91,368
2,36,91,368
2,36,91,368
2,36,91,368
2,36,91,368
2,36,91,368
2,36,91,368
2,36,91,368
2,36,91,368
2,36,91,368
2,36,91,368
2,36,91,368
2,36,91,368
2,36,91,368
2,36,91,368
2,36,91,368
2,36,91,368
2,36,91,368
2,36,91,368
2,36,91,368
2,36,91,368
2,36,91,1328
2,36,91,176
2,36,91,1328
2,36,91,176
2,36,91,1328
2,36,91,176
3,38,56,149376
3,38,56,752
3,38,56,752
3,38,56,752
3,38,56,752
3,38,56,752
3,38,56,752
3,38,56,752
3,38,56,752
3,38,56,752
3,38,56,752
3,38,56,752
3,38,56,752
3,38,56,752
3,38,56,752
3,38,56,752
3,38,56,752
3,38,56,752
3,38,56,752
3,38,56,752
3,38,56,752
3,38,56,752
3,38,56,752
3,38,56,752
3,38,56,752
3,38,56,752
3,38,56,752
3,38,56,752
3,38,56,752
3,38,56,752
3,38,56,752
3,38,56,752
3,38,56,752
3,38,56,752
3,38,56,752
3,38,56,752
3,38,56,752
3,38,56,752
3,38,56,752
3,38,56,752
3,38,56,752
3,38,56,752
3,38,56,752
3,38,56,752
3,38,56,752
3,38,56,752
3,38,56,752
3,38,56,752
3,38,56,752
3,38,56,752
3,38,56,752
3,38,56,752
3,38,56,752
3,38,56,752
3,38,56,752
3,38,56,752
4,44,19,16896
4,46,59,168
4,44,19,168
4,46,59,168
4,44,19,168
4,46,59,168
4,44,19,168
4,46,59,168
4,44,19,168
4,46,59,168
4,44,19,168
4,46,59,168
4,44,19,168
4,46,59,168
4,44,19,168
4,46,59,168
4,44,19,168
4,46,59,168
4,44,19,168
4,46,59,168
4,44,19,168
4,46,59,168
4,44,19,168
4,46,59,168
4,44,19,168
4,46,59,168
4,44,19,168
4,46,59,168
4,44,19,168
4,46,59,168
4,44,19,168
4,46,59,168
4,44,19,168
4,46,59,168
4,44,19,168
4,46,59,168
4,44,19,168
4,46,59,168
4,44,19,168
4,46,59,168
4,44,19,168
4,46,59,168
4,44,19,168
4,46,59,168
4,44,19,168
4,46,59,168
4,44,19,168
4,46,59,168
4,44,19,168
4,46,59,168
4,44,19,168
4,46,59,168
4,44,19,168
4,46,59,168
4,44,19,168
4,46,59,168
4,44,19,168
4,46,59,168
4,44,19,168
4,46,59,168
4,44,19,168
4,46,59,168
4,44,19,168
4,46,59,168
4,44,19,168
4,46,59,168
4,44,19,168
4,46,59,168
4,44,19,168
4,46,59,168
4,44,19,168
4,46,59,168
4,44,19,168
4,46,59,168
4,44,19,168
4,46,59,168
4,44,19,168
4,46,59,168
4,44,19,168
4,46,59,168
4,44,19,168
4,46,59,168
4,44,19,168
4,46,59,168
4,44,19,168
4,46,59,168
4,44,19,168
4,46,59,168
4,44,19,168
4,46,59,168
4,44,19,168
4,46,59,168
4,44,19,168
4,46,59,168
4,44,19,168
4,46,59,168
4,44,19,168
4,46,59,168
4,44,19,168
4,46,59,168
4,44,19,168
4,46,59,168
4,44,19,168
4,46,59,168
4,44,19,168
4,46,59,168
4,44,19,168
4,46,59,168
4,44,19,168
4,46,59,168
4,44,19,168
4,46,59,168
4,44,19,168
4,46,59,168
4,44,19,168
4,46,59,168
4,44,19,168
4,46,59,168
4,44,19,168
4,46,59,168
4,44,19,168
4,46,59,168
4,44,19,168
4,46,59,168
4,44,19,168
4,46,59,168
4,44,19,168
4,46,59,168
4,44,19,168
4,46,59,168
4,44,19,168
4,46,59,168
4,44,19,168
4,46,59,168
4,44,19,168
4,46,59,168
4,44,19,168
4,46,59,168
4,44,19,168
4,46,59,168
4,44,19,168
4,46,59,168
4,44,19,168
4,46,59,168
4,44,19,168
4,46,59,168
4,44,19,168
4,46,59,168
4,44,19,168
4,46,59,168
4,44,19,168
4,46,59,168
4,44,19,1704
4,46,59,168
4,44,19,168
4,46,59,168
4,44,19,168
4,46,59,168
4,44,19,168
4,46,59,168
4,44,19,168
4,46,59,168
4,44,19,168
4,46,59,168
4,44,19,168
4,46,59,168
4,44,19,168
4,46,59,168
4,44,19,168
4,46,59,168
4,44,19,168
4,46,59,168
4,44,19,168
4,46,59,168
4,44,19,168
4,46,59,168
4,44,19,168
4,46,59,168
4,44,19,168
4,46,59,168
4,44,19,168
4,46,59,168
4,44,19,168
4,46,59,168
4,44,19,168
4,46,59,168
4,44,19,168
4,46,59,168
4,44,19,168
4,46,59,168
4,44,19,168
4,46,59,168
4,44,19,168
4,46,59,168
4,44,19,168
4,46,59,168
4,44,19,168
4,46,59,168
4,44,19,168
4,46,59,168
4,44,19,168
4,46,59,168
4,44,19,168
4,46,59,168
4,44,19,168
4,46,59,168
4,44,19,168
4,46,59,168
4,44,19,168
4,46,59,168
4,44,19,168
4,46,59,168
4,44,19,168
4,46,59,168
4,44,19,168
4,46,59,168
4,44,19,168
4,46,59,168
4,44,19,168
4,46,59,168
4,44,19,168
4,46,59,168
4,44,19,168
4,46,59,168
4,44,19,168
4,46,59,168
4,44,19,168
4,46,59,168
4,44,19,168
4,46,59,168
4,44,19,168
4,46,59,168
4,44,19,168
4,46,59,168
4,44,19,168
4,46,59,168
4,44,19,168
4,46,59,168
4,44,19,168
4,46,59,168
4,44,19,168
4,46,59,168
4,44,19,168
4,46,59,168
4,44,19,168
4,46,59,168
4,44,19,168
4,46,59,168
4,44,19,168
4,46,59,168
4,44,19,168
4,46,59,168
4,44,19,168
4,46,59,168
4,44,19,168
4,46,59,168
4,44,19,168
4,46,59,168
4,44,19,168
4,46,59,168
4,44,19,168
4,46,59,168
4,44,19,168
4,46,59,168
4,44,19,168
4,46,59,168
4,44,19,168
4,46,59,168
4,44,19,168
4,46,59,168
4,44,19,168
4,46,59,168
4,44,19,168
4,46,59,168
4,44,19,168
4,46,59,168
4,44,19,168
4,46,59,168
4,44,19,168
4,46,59,168
4,44,19,168
4,46,59,168
4,44,19,168
4,46,59,168
4,44,19,168
4,46,59,168
4,44,19,168
4,46,59,168
4,44,19,168
4,46,59,168
4,44,19,168
4,46,59,168
4,44,19,168
4,46,59,168
4,44,19,168
4,46,59,168
4,44,19,168
4,46,59,168
4,44,19,168
4,46,59,168
4,44,19,168
4,46,59,168
4,44,19,168
4,46,59,168
4,44,19,168
4,46,59,168
4,44,19,168
4,46,59,168
4,44,19,168
4,46,59,168
4,44,19,168
4,46,59,168
4,44,19,168
4,46,59,168
4,44,19,168
4,46,59,168
4,44,19,168
4,46,59,168
4,44,19,168
4,46,59,168
4,44,19,168
4,46,59,168
4,44,19,168
4,46,59,168
4,44,19,168
4,46,59,168
4,44,19,168
4,46,59,168
4,44,19,168
4,46,59,168
4,44,19,168
4,46,59,168
4,44,19,168
4,46,59,168
4,44,19,168
4,46,59,168
4,44,19,168
4,46,59,168
4,44,19,168
4,46,59,168
4,44,19,168
4,46,59,168
4,44,19,168
4,46,59,168
4,44,19,168
4,46,59,168
4,44,19,168
4,46,59,168
4,44,19,168
4,46,59,168
4,44,19,168
4,46,59,168
4,44,19,168
4,46,59,168
4,44,19,168
4,46,59,168
4,44,19,168
4,46,59,168
4,44,19,168
4,46,59,168
4,44,19,168
4,46,59,168
4,44,19,168
4,46,59,168
4,44,19,168
4,46,59,168
4,44,19,168
4,46,59,168
4,44,19,168
4,46,59,168
4,44,19,168
4,46,59,168
4,44,19,168
4,46,59,168
4,44,19,168
4,46,59,168
4,44,19,168
4,46,59,168
4,44,19,168
4,46,59,168
4,44,19,168
4,46,59,168
4,44,19,168
4,46,59,168
4,44,19,168
4,46,59,168
4,44,19,168
4,46,59,168
4,44,19,168
4,46,59,168
4,44,19,168
4,46,59,168
4,44,19,168
4,46,59,168
4,44,19,168
4,46,59,168
4,44,19,168
4,46,59,168
4,44,19,168
4,46,59,168
4,44,19,168
4,46,59,168
4,44,19,168
4,46,59,168
4,44,19,168
4,46,59,168
4,44,19,168
4,46,59,168
4,44,19,168
4,46,59,168
4,44,19,168
4,46,59,168
4,44,19,168
4,46,59,168
4,44,19,168
4,46,59,168
4,44,19,168
4,46,59,168
4,44,19,168
4,46,59,168
4,44,19,168
4,46,59,168
4,44,19,168
4,46,59,168
4,44,19,168
4,46,59,168
4,44,19,168
4,46,59,168
4,44,19,168
4,46,59,168
4,44,19,168
4,46,59,168
4,44,19,168
4,46,59,168
4,44,19,168
4,46,59,168
4,44,19,168
4,46,59,168
4,44,19,168
4,46,59,168
4,44,19,168
4,46,59,168
4,44,19,168
4,46,59,168
4,44,19,168
4,46,59,168
4,44,19,168
4,46,59,168
4,44,19,168
4,46,59,168
4,44,19,168
4,46,59,168
4,44,19,168
4,46,59,168
4,44,19,168
4,46,59,168
4,44,19,168
4,46,59,168
4,44,19,168
4,46,59,168
4,44,19,168
4,46,59,168
4,44,19,168
4,46,59,168
