track,note,velocity,time
2,47,92,0
2,47,0,336
2,35,92,0
2,35,0,192
2,38,92,0
2,38,0,384
2,45,92,0
2,45,0,192
2,50,92,0
2,50,0,96
2,45,92,288
2,45,0,192
2,38,92,0
2,38,0,576
2,50,92,0
2,50,0,576
2,37,92,0
2,37,0,384
2,45,92,0
2,45,0,192
2,49,92,0
2,49,0,384
2,45,92,0
2,45,0,192
2,33,92,0
2,33,0,576
2,34,92,0
2,34,0,576
2,35,92,0
2,35,0,384
2,42,92,0
2,42,0,192
2,47,92,0
2,47,0,32
2,47,92,256
2,47,0,96
2,42,92,0
2,42,0,192
2,35,92,0
2,35,0,576
2,47,92,0
2,47,0,96
2,35,92,288
2,35,0,192
2,33,92,0
2,33,0,384
2,37,92,0
2,37,0,192
2,33,92,0
2,33,0,48
2,38,92,528
2,38,0,384
2,45,92,0
2,45,0,192
2,50,92,0
2,50,0,96
2,45,92,288
2,45,0,192
2,38,92,0
2,38,0,576
2,50,92,0
2,50,0,576
2,37,92,0
2,37,0,384
2,45,92,0
2,45,0,192
2,49,92,0
2,49,0,384
2,45,92,0
2,45,0,192
2,33,92,0
2,33,0,576
2,34,92,0
2,34,0,576
2,35,92,0
2,35,0,384
2,42,92,0
2,42,0,192
2,47,92,0
2,47,0,96
2,42,92,288
2,42,0,192
2,35,92,0
2,35,0,576
2,47,92,0
2,47,0,96
2,33,92,480
2,33,0,384
2,37,92,0
2,37,0,192
2,45,92,0
2,45,0,144
2,33,92,0
2,33,0,192
2,34,92,0
2,34,0,192
2,35,92,0
2,35,0,576
2,35,92,0
2,35,0,576
2,33,92,0
2,33,0,384
2,40,92,0
2,40,0,192
2,45,92,0
2,45,0,576
2,35,92,0
2,35,0,576
2,35,92,0
2,35,0,576
2,33,92,0
2,33,0,384
2,37,92,0
2,37,0,192
2,45,92,0
2,45,0,192
2,40,92,0
2,40,0,144
2,38,92,0
2,38,0,576
2,35,92,0
2,35,0,576
2,40,92,0
2,40,0,576
2,28,92,0
2,28,0,576
2,40,92,0
2,40,0,192
2,40,92,0
2,40,0,192
2,40,92,288
2,40,0,192
2,40,92,0
2,40,0,192
2,33,92,288
2,33,0,192
2,33,92,0
2,33,0,192
2,33,92,0
2,33,0,192
2,33,92,0
2,33,0,576
2,38,92,0
2,38,0,384
2,45,92,0
2,45,0,192
2,50,92,0
2,50,0,96
2,45,92,288
2,45,0,192
2,38,92,0
2,38,0,576
2,50,92,0
2,50,0,576
2,37,92,0
2,37,0,384
2,45,92,0
2,45,0,192
2,49,92,0
2,49,0,384
2,45,92,0
2,45,0,192
2,33,92,0
2,33,0,576
2,34,92,0
2,34,0,576
2,35,92,0
2,35,0,384
2,42,92,0
2,42,0,192
2,47,92,0
2,47,0,96
2,42,92,288
2,42,0,192
2,35,92,0
2,35,0,576
2,47,92,0
2,47,0,96
2,33,92,480
2,33,0,384
2,37,92,0
2,37,0,192
2,45,92,0
2,45,0,144
2,33,92,0
2,33,0,192
2,34,92,0
2,34,0,192
2,35,92,0
2,35,0,576
2,35,92,0
2,35,0,576
2,33,92,0
2,33,0,384
2,40,92,0
2,40,0,192
2,45,92,0
2,45,0,576
2,35,92,0
2,35,0,576
2,35,92,0
2,35,0,576
2,33,92,0
2,33,0,384
2,37,92,0
2,37,0,192
2,45,92,0
2,45,0,192
2,40,92,0
2,40,0,144
2,38,92,0
2,38,0,576
2,35,92,0
2,35,0,576
2,40,92,0
2,40,0,576
2,28,92,0
2,28,0,576
2,40,92,0
2,40,0,192
2,40,92,0
2,40,0,192
2,40,92,192
2,40,0,192
2,40,92,0
2,40,0,192
2,33,92,192
2,33,0,192
2,33,92,0
2,33,0,192
2,33,92,0
2,33,0,192
2,33,92,0
2,33,0,576
2,38,92,0
2,38,0,384
2,45,92,0
2,45,0,192
2,50,92,0
2,50,0,96
2,45,92,288
2,45,0,192
2,38,92,0
2,38,0,576
2,50,92,0
2,50,0,528
2,37,92,0
2,37,0,384
2,45,92,0
2,45,0,192
2,49,92,0
2,49,0,384
2,45,92,0
2,45,0,192
2,33,92,0
2,33,0,576
2,34,92,0
2,34,0,16
2,35,92,0
2,35,0,13
2,42,92,0
2,42,0,9
2,47,92,0
2,47,0,7
2,47,92,5
2,47,0,3
2,47,92,2
2,47,0,0
2,42,92,0
2,42,0,14
2,35,92,0
2,35,0,0
3,69,75,0
3,69,0,144
3,71,75,0
3,71,0,48
3,78,75,144
3,78,0,576
3,78,75,0
3,78,0,192
3,78,75,288
3,78,0,96
3,78,75,0
3,78,0,192
3,79,75,0
3,79,0,192
3,81,75,0
3,81,0,144
3,81,75,0
3,81,0,192
3,79,75,0
3,79,0,192
3,78,75,0
3,78,0,192
3,76,75,0
3,76,0,576
3,76,75,0
3,76,0,192
3,76,75,288
3,76,0,96
3,76,75,0
3,76,0,192
3,78,75,0
3,78,0,192
3,79,75,0
3,79,0,144
3,79,75,0
3,79,0,192
3,78,75,0
3,78,0,288
3,76,75,0
3,76,0,96
3,74,75,0
3,74,0,576
3,74,75,0
3,74,0,48
3,74,75,464
3,74,0,64
3,74,75,0
3,74,0,192
3,76,75,0
3,76,0,192
3,78,75,0
3,78,0,192
3,78,75,0
3,78,0,144
3,76,75,0
3,76,0,64
3,74,75,0
3,74,0,128
3,74,75,96
3,74,0,96
3,73,75,0
3,73,0,48
3,71,75,0
3,71,0,48
3,69,75,0
3,69,0,480
3,81,75,0
3,81,0,144
3,79,75,0
3,79,0,192
3,78,75,0
3,78,0,576
3,78,75,0
3,78,0,192
3,78,75,288
3,78,0,96
3,78,75,0
3,78,0,192
3,79,75,0
3,79,0,192
3,81,75,0
3,81,0,144
3,81,75,0
3,81,0,192
3,79,75,0
3,79,0,192
3,78,75,0
3,78,0,192
3,76,75,0
3,76,0,576
3,76,75,0
3,76,0,192
3,76,75,0
3,76,0,0
3,76,75,0
3,76,0,192
3,78,75,0
3,78,0,192
3,79,75,0
3,79,0,192
3,79,75,0
3,79,0,144
3,78,75,0
3,78,0,288
3,76,75,0
3,76,0,96
3,74,75,0
3,74,0,576
3,74,75,0
3,74,0,192
3,74,75,384
3,74,0,192
3,76,75,0
3,76,0,192
3,78,75,0
3,78,0,192
3,78,75,0
3,78,0,192
3,76,75,0
3,76,0,72
3,74,75,216
3,74,0,96
3,76,75,0
3,76,0,576
3,74,75,576
3,74,0,128
3,73,75,0
3,73,0,64
3,74,75,0
3,74,0,128
3,73,75,0
3,73,0,64
3,74,75,0
3,74,0,128
3,73,75,0
3,73,0,64
3,74,75,0
3,74,0,192
3,78,75,0
3,78,0,240
3,76,75,0
3,76,0,96
3,74,75,0
3,74,0,192
3,73,75,0
3,73,0,192
3,69,75,672
3,69,0,96
3,74,75,0
3,74,0,128
3,73,75,0
3,73,0,64
3,74,75,0
3,74,0,128
3,73,75,0
3,73,0,64
3,74,75,0
3,74,0,128
3,73,75,0
3,73,0,64
3,74,75,0
3,74,0,192
3,78,75,0
3,78,0,144
3,76,75,0
3,76,0,192
3,73,75,0
3,73,0,48
3,71,75,0
3,71,0,48
3,69,75,0
3,69,0,288
3,78,75,0
3,78,0,144
3,79,75,0
3,79,0,192
3,81,75,0
3,81,0,192
3,81,75,0
3,81,0,96
3,81,75,0
3,81,0,192
3,83,75,0
3,83,0,96
3,81,75,0
3,81,0,64
3,79,75,0
3,79,0,64
3,78,75,0
3,78,0,352
3,81,75,0
3,81,0,96
3,79,75,0
3,79,0,64
3,78,75,0
3,78,0,64
3,76,75,0
3,76,0,256
3,69,75,672
3,69,0,96
3,79,75,0
3,79,0,192
3,78,75,0
3,78,0,192
3,76,75,192
3,76,0,96
3,79,75,0
3,79,0,192
3,78,75,0
3,78,0,192
3,76,75,192
3,76,0,96
3,79,75,0
3,79,0,144
3,78,75,0
3,78,0,192
3,76,75,0
3,76,0,192
3,79,75,0
3,79,0,192
3,81,75,0
3,81,0,144
3,79,75,0
3,79,0,192
3,78,75,0
3,78,0,576
3,78,75,0
3,78,0,48
3,78,75,432
3,78,0,96
3,78,75,0
3,78,0,192
3,79,75,0
3,79,0,192
3,81,75,0
3,81,0,144
3,81,75,0
3,81,0,192
3,79,75,0
3,79,0,192
3,78,75,0
3,78,0,192
3,76,75,0
3,76,0,576
3,76,75,0
3,76,0,192
3,76,75,0
3,76,0,0
3,76,75,0
3,76,0,192
3,78,75,0
3,78,0,192
3,79,75,0
3,79,0,192
3,79,75,0
3,79,0,144
3,78,75,0
3,78,0,192
3,76,75,0
3,76,0,192
3,74,75,0
3,74,0,96
3,72,75,0
3,72,0,96
3,72,75,0
3,72,0,192
3,74,75,672
3,74,0,96
3,74,75,0
3,74,0,192
3,76,75,0
3,76,0,192
3,78,75,0
3,78,0,192
3,78,75,0
3,78,0,192
3,76,75,0
3,76,0,72
3,74,75,216
3,74,0,96
3,76,75,0
3,76,0,576
3,74,75,576
3,74,0,128
3,73,75,0
3,73,0,64
3,74,75,0
3,74,0,128
3,73,75,0
3,73,0,64
3,74,75,0
3,74,0,128
3,73,75,0
3,73,0,64
3,74,75,0
3,74,0,192
3,78,75,0
3,78,0,240
3,76,75,0
3,76,0,96
3,74,75,0
3,74,0,192
3,73,75,0
3,73,0,192
3,69,75,672
3,69,0,96
3,74,75,0
3,74,0,128
3,73,75,0
3,73,0,64
3,74,75,0
3,74,0,128
3,73,75,0
3,73,0,64
3,74,75,0
3,74,0,128
3,73,75,0
3,73,0,64
3,74,75,0
3,74,0,192
3,78,75,0
3,78,0,144
3,76,75,0
3,76,0,192
3,73,75,0
3,73,0,48
3,71,75,0
3,71,0,48
3,69,75,0
3,69,0,288
3,78,75,0
3,78,0,144
3,79,75,0
3,79,0,192
3,81,75,0
3,81,0,192
3,81,75,0
3,81,0,96
3,81,75,0
3,81,0,192
3,83,75,0
3,83,0,96
3,81,75,0
3,81,0,64
3,79,75,0
3,79,0,64
3,78,75,0
3,78,0,352
3,81,75,0
3,81,0,96
3,79,75,0
3,79,0,64
3,78,75,0
3,78,0,64
3,76,75,0
3,76,0,256
3,69,75,672
3,69,0,96
3,79,75,0
3,79,0,192
3,78,75,0
3,78,0,192
3,76,75,96
3,76,0,96
3,79,75,0
3,79,0,192
3,78,75,0
3,78,0,192
3,76,75,96
3,76,0,96
3,79,75,0
3,79,0,144
3,78,75,0
3,78,0,192
3,76,75,0
3,76,0,192
3,79,75,0
3,79,0,192
3,71,75,0
3,71,0,192
3,74,75,0
3,74,0,192
3,76,75,0
3,76,0,192
3,74,75,0
3,74,0,384
4,66,60,576
4,66,0,576
4,66,60,0
4,66,0,576
4,62,60,0
4,66,60,0
4,62,0,192
4,66,0,0
4,64,60,0
4,67,60,0
4,64,0,192
4,67,0,0
4,66,60,0
4,69,60,0
4,66,0,192
4,69,0,0
4,66,60,0
4,69,60,0
4,66,0,192
4,69,0,0
4,64,60,0
4,67,60,0
4,64,0,192
4,67,0,0
4,62,60,0
4,66,60,0
4,62,0,192
4,66,0,0
4,64,60,0
4,64,0,576
4,64,60,0
4,64,0,384
4,64,60,96
4,64,0,96
4,61,60,0
4,64,60,0
4,61,0,192
4,64,0,0
4,62,60,0
4,66,60,0
4,62,0,192
4,66,0,0
4,64,60,0
4,67,60,0
4,64,0,192
4,67,0,0
4,64,60,0
4,67,60,0
4,64,0,192
4,67,0,0
4,62,60,0
4,66,60,0
4,62,0,288
4,66,0,0
4,61,60,0
4,64,60,0
4,61,0,96
4,64,0,0
4,59,60,0
4,62,60,0
4,59,0,576
4,62,0,0
4,62,60,0
4,62,0,576
4,59,60,0
4,62,60,0
4,59,0,192
4,62,0,0
4,61,60,0
4,64,60,0
4,61,0,192
4,64,0,0
4,62,60,0
4,66,60,0
4,62,0,192
4,66,0,0
4,62,60,0
4,66,60,0
4,62,0,192
4,66,0,0
4,61,60,0
4,64,60,0
4,64,0,64
4,59,60,0
4,62,60,0
4,61,0,32
4,62,0,96
4,59,60,0
4,62,60,0
4,59,0,64
4,59,0,128
4,62,0,0
4,57,60,0
4,61,60,0
4,61,0,48
4,59,60,0
4,57,0,48
4,59,0,0
4,57,60,0
4,57,0,480
4,66,60,0
4,69,60,0
4,66,0,144
4,69,0,0
4,64,60,0
4,67,60,0
4,64,0,192
4,67,0,0
4,66,60,0
4,66,0,576
4,66,60,0
4,66,0,192
4,57,60,288
4,57,0,96
4,62,60,0
4,66,60,0
4,62,0,192
4,66,0,0
4,64,60,0
4,67,60,0
4,64,0,192
4,67,0,0
4,66,60,0
4,69,60,0
4,66,0,192
4,69,0,0
4,66,60,0
4,69,60,0
4,66,0,192
4,69,0,0
4,64,60,0
4,67,60,0
4,64,0,192
4,67,0,0
4,62,60,0
4,66,60,0
4,62,0,192
4,66,0,0
4,64,60,0
4,64,0,576
4,64,60,0
4,64,0,192
4,64,60,288
4,64,0,96
4,61,60,0
4,64,60,0
4,61,0,192
4,64,0,0
4,62,60,0
4,66,60,0
4,62,0,192
4,66,0,0
4,64,60,0
4,67,60,0
4,64,0,192
4,67,0,0
4,64,60,0
4,67,60,0
4,64,0,192
4,67,0,0
4,62,60,0
4,66,60,0
4,62,0,288
4,66,0,0
4,61,60,0
4,64,60,0
4,61,0,96
4,64,0,0
4,59,60,0
4,62,60,0
4,59,0,576
4,62,0,0
4,62,60,0
4,62,0,192
4,59,60,384
4,62,60,0
4,59,0,192
4,62,0,0
4,61,60,0
4,64,60,0
4,61,0,192
4,64,0,0
4,62,60,0
4,66,60,0
4,62,0,192
4,66,0,0
4,62,60,0
4,66,60,0
4,62,0,192
4,66,0,0
4,61,60,0
4,64,60,0
4,61,0,1056
4,64,0,0
4,59,60,0
4,62,60,0
4,59,0,128
4,62,0,0
4,58,60,0
4,61,60,0
4,58,0,64
4,61,0,0
4,59,60,0
4,62,60,0
4,59,0,128
4,62,0,0
4,58,60,0
4,61,60,0
4,58,0,64
4,61,0,0
4,59,60,0
4,62,60,0
4,59,0,128
4,62,0,0
4,58,60,0
4,61,60,0
4,58,0,64
4,61,0,0
4,59,60,0
4,62,60,0
4,59,0,192
4,62,0,0
4,62,60,0
4,66,60,0
4,62,0,288
4,66,0,0
4,61,60,0
4,64,60,0
4,61,0,96
4,64,0,0
4,59,60,0
4,62,60,0
4,59,0,192
4,62,0,0
4,57,60,0
4,61,60,0
4,57,0,192
4,61,0,0
4,59,60,0
4,59,0,192
4,69,60,0
4,73,60,0
4,69,0,192
4,73,0,0
4,64,60,0
4,69,60,0
4,64,0,192
4,69,0,0
4,59,60,0
4,62,60,0
4,59,0,96
4,62,0,0
4,57,60,0
4,57,0,96
4,59,60,0
4,62,60,0
4,59,0,128
4,62,0,0
4,58,60,0
4,61,60,0
4,58,0,64
4,61,0,0
4,59,60,0
4,62,60,0
4,59,0,128
4,62,0,0
4,58,60,0
4,61,60,0
4,58,0,64
4,61,0,0
4,59,60,0
4,62,60,0
4,59,0,128
4,62,0,0
4,58,60,0
4,61,60,0
4,58,0,64
4,61,0,0
4,59,60,0
4,62,60,0
4,59,0,192
4,62,0,0
4,62,60,0
4,66,60,0
4,62,0,192
4,66,0,0
4,61,60,0
4,64,60,0
4,61,0,192
4,64,0,0
4,57,60,0
4,61,60,0
4,57,0,384
4,61,0,0
4,69,60,0
4,69,0,192
4,61,60,0
4,61,0,192
4,66,60,0
4,66,0,192
4,67,60,0
4,67,0,192
4,66,60,0
4,69,60,0
4,66,0,480
4,69,0,0
4,67,60,0
4,71,60,0
4,67,0,96
4,71,0,0
4,66,60,0
4,69,60,0
4,66,0,480
4,69,0,0
4,66,60,0
4,69,60,0
4,66,0,96
4,69,0,0
4,64,60,0
4,67,60,0
4,64,0,576
4,67,0,0
4,59,60,576
4,62,60,0
4,67,60,0
4,59,0,192
4,62,0,0
4,67,0,0
4,57,60,0
4,62,60,0
4,66,60,0
4,57,0,192
4,62,0,0
4,66,0,0
4,59,60,288
4,62,60,0
4,67,60,0
4,59,0,192
4,62,0,0
4,67,0,0
4,57,60,0
4,62,60,0
