track,note,velocity,time
1,60,79,1136
1,59,71,0
1,64,75,0
1,67,77,0
1,57,60,224
1,67,77,0
1,64,75,0
1,60,76,0
1,60,71,64
1,67,79,0
1,57,73,0
1,64,73,0
1,59,70,200
1,62,72,0
1,55,75,0
1,60,71,192
1,64,72,0
1,59,67,152
1,62,78,0
1,64,70,184
1,60,71,0
1,55,68,0
1,59,71,216
1,62,73,0
1,55,71,0
1,60,74,192
1,64,67,0
1,62,73,0
1,59,63,0
1,60,70,8
1,64,71,0
1,55,77,0
1,64,85,192
1,55,82,0
1,60,81,0
1,62,79,160
1,55,78,0
1,59,75,0
1,64,71,8
1,60,74,0
1,57,73,0
1,55,80,8
1,64,75,0
1,59,72,0
1,60,75,56
1,53,79,0
1,57,71,0
1,55,81,56
1,52,73,0
1,60,81,0
1,60,79,128
1,62,84,0
1,55,77,0
1,62,80,136
1,59,77,0
1,55,79,0
1,64,82,40
1,60,76,0
1,55,75,0
1,62,83,0
1,55,73,0
1,59,67,0
1,64,79,0
1,60,75,0
1,57,79,0
1,59,73,128
1,64,85,0
1,55,75,0
1,60,79,1528
1,53,82,0
1,57,68,0
1,60,84,8
1,52,75,0
1,55,79,0
1,60,80,104
1,62,74,0
1,55,68,0
1,59,74,136
1,62,73,0
1,55,73,0
1,57,77,32
1,60,78,0
1,64,82,0
1,55,73,48
1,59,78,0
1,62,86,0
1,60,85,1528
1,53,70,0
1,57,81,0
1,60,84,16
1,52,69,0
1,55,83,0
1,63,69,144
1,60,79,0
1,55,80,0
1,68,71,128
1,63,80,0
1,60,81,0
1,62,73,8
1,65,83,0
1,70,65,0
1,70,72,144
1,63,68,0
1,67,77,0
1,53,101,136
1,58,90,192
1,60,94,168
1,60,95,96
1,62,97,0
1,53,96,192
1,52,101,184
1,55,92,128
1,60,99,192
1,62,95,0
1,60,87,192
1,55,91,168
1,64,98,0
1,67,82,192
1,71,95,160
1,59,91,184
1,64,92,176
1,58,80,160
1,64,99,312
1,67,91,144
1,70,77,176
1,67,89,88
1,69,95,0
1,72,101,0
1,65,88,0
1,67,95,96
1,69,95,16
1,72,103,0
1,65,107,104
1,57,96,2184
1,59,96,16
1,62,102,16
1,64,111,8
1,67,94,16
1,59,83,8
1,62,85,72
1,64,97,0
1,67,95,16
1,59,86,96
1,62,101,296
1,64,103,0
1,67,104,0
1,57,94,1400
1,59,92,192
1,60,97,168
1,67,90,0
1,69,97,8
1,72,107,0
1,69,101,88
1,72,102,0
1,67,88,8
1,65,102,136
1,60,104,280
1,65,111,0
1,57,112,464
1,60,90,0
1,59,97,184
1,62,101,200
1,64,102,160
1,67,98,8
1,59,90,8
1,64,90,56
1,59,87,8
1,67,90,0
1,64,88,48
1,67,86,0
1,59,88,8
1,59,92,264
1,64,95,0
1,67,97,0
1,58,100,240
1,67,97,0
1,62,90,8
1,67,92,480
1,69,106,8
1,72,117,0
1,65,97,128
1,67,95,112
1,69,94,16
1,72,99,0
1,65,102,136
1,57,102,328
1,65,112,0
1,57,90,328
1,65,94,0
1,57,98,56
1,65,98,0
1,67,108,432
1,59,97,0
1,55,108,208
1,67,99,16
1,71,108,0
1,43,95,48
1,69,98,40
1,74,97,0
1,71,98,0
1,69,102,8
1,71,87,96
1,74,86,0
1,59,93,600
1,62,107,0
1,55,101,0
1,55,106,192
1,59,93,0
1,62,98,0
1,61,94,56
1,55,96,0
1,57,101,72
1,60,95,0
1,65,103,0
1,59,85,16
1,62,97,0
1,67,90,0
1,67,77,128
1,64,79,0
1,60,79,0
1,59,72,0
1,57,60,96
1,67,77,0
1,64,75,0
1,60,76,0
1,60,71,64
1,67,79,0
1,57,73,0
1,64,73,0
1,59,70,200
1,62,72,0
1,55,75,0
1,60,71,192
1,64,72,0
1,59,67,152
1,62,78,0
1,64,70,184
1,60,71,0
1,55,68,0
1,59,71,216
1,62,73,0
1,55,71,0
1,60,74,192
1,64,67,0
1,62,73,0
1,59,63,0
1,60,70,8
1,64,71,0
1,55,77,0
1,64,85,192
1,55,82,0
1,60,81,0
1,62,79,160
1,55,78,0
1,59,75,0
1,60,74,8
1,64,71,0
1,57,73,0
1,59,72,8
1,64,75,0
1,55,80,0
1,53,79,56
1,60,75,0
1,57,71,0
1,60,81,56
1,52,73,0
1,55,81,0
1,60,79,128
1,62,84,0
1,55,77,0
1,59,77,136
1,62,80,0
1,55,79,0
1,64,82,40
1,60,76,0
1,55,75,0
1,62,83,0
1,55,73,0
1,59,67,0
1,57,79,0
1,60,75,0
1,64,79,0
1,64,85,128
1,59,73,0
1,55,75,0
1,60,79,1512
1,53,82,0
1,57,68,0
1,60,84,8
1,52,75,0
1,55,79,0
1,60,80,104
1,62,74,0
1,55,68,0
1,59,74,136
1,62,73,0
1,55,73,0
1,64,82,32
1,60,78,0
1,57,77,0
1,55,73,48
1,59,78,0
1,62,86,0
1,60,85,1512
1,53,70,0
1,57,81,0
1,60,84,16
1,52,69,0
1,55,83,0
1,63,69,144
1,60,79,0
1,55,80,0
1,63,80,128
1,68,71,0
1,60,81,0
1,62,73,8
1,65,83,0
1,70,65,0
1,58,91,176
1,63,86,192
1,65,106,176
1,65,97,80
1,67,88,192
1,63,76,176
1,58,95,176
1,58,87,176
1,65,93,0
1,72,89,176
1,74,89,16
1,77,99,0
1,72,96,0
1,70,92,192
1,65,109,152
1,64,102,176
1,64,103,176
1,72,89,192
1,72,99,32
1,67,96,216
1,64,101,192
1,67,91,176
1,71,98,152
1,59,93,176
1,64,97,168
1,58,95,160
1,64,96,368
1,67,90,184
1,70,85,152
1,67,91,88
1,72,111,8
1,69,101,8
1,65,87,128
1,67,94,96
1,69,97,8
1,72,107,0
1,65,102,152
1,67,86,280
1,69,98,0
1,72,102,0
1,67,88,272
1,69,100,8
1,72,102,0
1,69,100,648
1,65,99,0
1,72,99,0
1,67,99,272
1,62,96,0
1,71,107,0
1,67,94,0
1,71,106,96
1,74,121,0
1,74,94,64
1,71,94,0
1,67,101,288
1,55,94,304
1,59,94,0
1,62,100,0
1,59,99,304
1,62,99,0
1,55,94,0
1,59,96,624
1,62,100,0
1,55,98,0
1,61,90,240
1,64,106,0
1,55,101,0
1,61,89,184
1,64,100,0
1,55,93,0
1,55,93,0
1,64,100,0
1,61,89,0
1,69,117,0
1,72,103,0
1,67,92,16
1,65,96,96
1,69,99,368
1,72,99,0
1,65,98,0
1,72,90,48
1,69,90,0
1,65,90,0
1,62,104,440
1,67,94,0
1,72,103,0
1,71,93,16
1,62,106,608
1,67,99,0
1,71,106,0
1,59,93,104
1,64,93,0
1,67,94,0
1,64,88,48
1,67,96,0
1,59,86,0
1,67,90,48
1,59,92,0
1,64,90,0
1,64,96,264
1,67,96,0
1,59,93,0
1,67,94,248
1,58,81,0
1,62,102,0
1,60,101,576
1,72,116,0
1,60,107,176
1,72,104,0
1,69,107,144
1,72,116,0
1,67,88,0
1,65,102,96
1,72,101,192
1,69,104,0
1,72,98,64
1,69,98,0
1,62,101,88
1,67,92,0
1,71,102,0
1,79,100,168
1,86,100,0
1,86,100,56
1,79,100,0
1,67,112,672
1,71,102,0
1,74,100,0
1,74,99,112
1,71,97,0
1,67,94,0
1,73,84,40
1,64,101,0
1,69,94,0
1,60,107,96
1,69,101,96
1,77,94,96
1,67,77,136
1,71,80,0
1,62,75,0
1,59,81,224
1,64,78,0
1,67,80,0
1,60,71,0
1,57,60,96
1,67,77,0
1,64,75,0
1,60,76,0
1,60,71,64
1,67,79,0
1,57,73,0
1,64,73,0
1,59,70,200
1,62,72,0
1,55,75,0
1,60,71,192
1,64,72,0
1,59,67,152
1,62,78,0
1,64,70,184
1,60,71,0
1,55,68,0
1,59,71,216
1,62,73,0
1,55,71,0
1,60,74,192
1,64,67,0
1,62,73,0
1,59,63,0
1,60,70,8
1,64,71,0
1,55,77,0
2,31,95,11488
2,36,96,48
2,31,94,48
2,36,103,48
2,36,104,336
2,36,103,168
2,36,100,112
2,36,100,176
2,35,104,104
2,35,98,184
2,35,100,112
2,35,103,160
2,33,101,104
2,33,96,176
2,33,108,112
2,33,100,160
2,31,102,112
2,31,95,176
2,31,95,120
2,43,92,168
2,41,100,128
2,41,104,184
2,41,103,120
2,41,106,184
2,40,103,120
2,40,101,184
2,38,104,384
2,36,96,176
2,31,102,360
2,43,93,184
2,43,100,128
2,43,87,192
2,43,103,136
2,45,98,0
2,43,97,0
2,40,100,64
2,38,88,24
2,36,100,16
2,36,103,184
2,36,96,112
2,36,99,168
2,35,104,88
2,35,103,192
2,35,103,112
2,35,100,168
2,33,105,64
2,33,98,200
2,33,104,112
2,33,104,160
2,31,101,192
2,31,95,200
2,31,98,104
2,43,94,176
2,41,103,104
2,41,100,168
2,41,102,120
2,41,103,216
2,40,100,112
2,40,97,192
2,38,95,8
2,36,101,104
2,43,104,88
2,43,96,184
2,43,101,136
2,43,101,216
2,43,96,136
2,43,102,224
2,42,89,96
2,43,97,32
2,44,104,32
2,45,100,32
2,45,102,192
2,45,96,112
2,45,99,184
2,43,104,120
2,43,103,192
2,43,100,120
2,43,103,208
2,41,112,112
2,41,102,200
2,41,103,112
2,41,103,176
2,40,103,104
2,40,105,192
2,36,104,176
2,38,92,8
2,40,104,40
2,39,99,192
2,39,99,176
2,39,100,120
2,39,97,168
2,41,118,0
2,41,110,200
2,34,98,104
2,34,99,160
2,39,100,80
2,39,97,176
2,41,102,72
2,43,88,8
2,41,102,64
2,39,89,192
2,38,103,8
2,38,95,176
2,41,101,40
2,46,88,32
2,41,109,72
2,38,96,0
2,36,98,16
2,36,102,168
2,36,105,224
2,43,104,224
2,48,100,16
2,48,95,120
2,46,99,88
2,46,100,104
2,45,96,72
2,45,98,104
2,43,104,80
2,43,100,104
2,38,100,96
2,38,93,200
2,38,103,120
2,38,104,184
2,43,104,104
2,38,100,192
2,43,104,32
2,38,95,0
2,41,100,8
2,38,97,0
2,40,104,8
2,40,95,200
2,28,101,184
2,29,104,56
2,31,102,16
2,33,96,24
2,33,110,184
2,33,104,152
2,35,96,40
2,36,100,48
2,41,104,32
2,41,102,224
2,41,104,104
2,41,108,176
2,43,103,88
2,43,96,200
2,43,93,128
2,43,93,224
2,36,101,88
2,36,96,200
2,36,103,104
2,36,100,248
2,48,100,32
2,43,101,24
2,48,98,56
2,46,95,24
2,43,104,40
2,46,91,192
2,36,110,56
2,37,110,8
2,38,104,8
2,38,101,176
2,38,102,96
2,40,98,24
2,41,106,48
2,42,93,32
2,43,100,48
2,43,95,176
2,41,109,88
2,41,102,184
2,40,109,96
2,40,98,176
2,40,98,96
2,28,100,56
2,29,98,32
2,31,97,8
2,33,101,192
2,33,99,160
2,33,104,152
2,35,101,8
2,36,98,32
2,41,103,72
2,41,98,192
2,41,104,104
2,41,108,184
2,43,102,96
2,43,96,112
2,43,97,96
2,43,97,104
2,36,104,104
2,31,95,8480
2,36,96,48
2,31,94,48
2,36,103,48
2,36,104,336
2,36,103,168
2,36,100,112
2,36,100,176
2,35,104,104
2,35,98,184
2,35,100,112
2,35,103,160
2,33,101,104
2,33,96,176
2,33,108,112
2,33,100,160
2,31,102,112
2,31,95,176
2,31,95,120
2,43,92,168
2,41,100,128
2,41,104,184
2,41,103,120
2,41,106,184
2,40,103,120
2,40,101,184
2,38,104,384
2,36,96,176
2,31,102,360
2,43,93,184
2,43,100,128
2,43,87,192
2,43,103,136
2,45,98,0
2,43,97,0
2,40,100,64
2,38,88,24
2,36,100,16
2,36,103,184
2,36,96,112
2,36,99,168
2,35,104,88
2,35,103,192
2,35,103,112
2,35,100,168
2,33,105,64
2,33,98,200
2,33,104,112
2,33,104,160
2,31,101,192
2,31,95,200
2,31,98,104
2,43,94,176
2,41,103,104
2,41,100,168
2,41,102,120
2,41,103,216
2,40,100,112
2,40,97,192
2,38,95,8
2,36,101,104
2,43,104,88
2,43,96,184
2,43,101,136
2,43,101,216
2,43,96,136
2,43,102,224
2,42,89,96
2,43,97,32
2,44,104,32
2,45,100,32
2,45,102,192
2,45,96,112
2,45,99,184
2,43,104,120
2,43,103,192
2,43,100,120
2,43,103,208
2,41,112,112
2,41,102,200
2,41,103,112
2,41,103,176
2,40,103,104
2,40,105,192
2,36,104,176
2,38,92,8
2,40,104,40
2,39,99,192
2,39,99,176
2,39,100,120
2,39,97,168
2,41,118,0
2,41,110,200
2,34,98,104
2,34,99,160
2,39,100,80
2,39,97,176
2,41,102,72
2,43,88,8
2,41,102,64
2,39,89,192
2,38,103,8
2,38,95,176
2,41,101,40
2,46,88,32
2,41,109,72
2,38,96,0
2,36,98,16
2,36,102,168
2,36,105,224
2,43,104,224
2,48,100,16
2,48,95,120
2,46,99,88
2,46,100,104
2,45,96,72
2,45,98,104
2,43,104,80
2,43,100,104
2,38,100,96
2,38,93,200
2,38,103,120
2,38,104,184
2,43,104,104
2,38,100,192
2,43,104,32
2,38,95,0
2,41,100,8
2,38,97,0
2,40,104,8
2,40,95,200
2,28,101,184
2,29,104,56
2,31,102,16
2,33,96,24
2,33,110,184
2,33,104,152
2,35,96,40
2,36,100,48
2,41,104,32
2,41,102,224
2,41,104,104
2,41,108,176
2,43,103,88
2,43,96,200
2,43,93,128
2,43,93,224
2,36,101,88
2,36,96,200
2,36,103,104
2,36,100,248
2,48,100,32
2,43,101,24
2,48,98,56
2,46,95,24
2,43,104,40
2,46,91,192
2,36,110,56
2,37,110,8
2,38,104,8
2,38,101,176
2,38,102,96
2,40,98,24
2,41,106,48
2,42,93,32
2,43,100,48
2,43,95,176
2,41,109,88
2,41,102,184
2,40,109,96
2,40,98,176
2,40,98,96
2,28,100,56
2,29,98,32
2,31,97,8
2,33,101,192
2,33,99,160
2,33,104,152
2,35,101,8
2,36,98,32
2,41,103,72
2,41,98,192
2,41,104,104
2,41,108,184
2,43,102,96
2,43,96,112
2,43,97,96
2,43,97,104
2,36,104,104
2,31,95,8480
2,36,96,48
2,31,94,48
2,36,103,0
3,48,95,1096
3,59,86,192
3,60,86,192
3,67,92,192
3,48,95,0
3,59,85,0
3,60,94,192
3,67,92,0
3,48,95,0
3,59,90,8
3,60,91,192
3,67,90,192
3,48,93,176
3,59,86,0
3,60,94,192
3,67,87,0
3,45,94,16
3,59,91,168
3,60,95,192
3,67,88,192
3,45,95,0
3,59,93,160
3,60,96,160
3,67,92,168
3,45,96,160
3,59,94,184
3,60,94,192
3,67,93,192
3,45,96,160
3,59,90,176
3,60,94,184
3,67,87,32
3,53,94,192
3,59,86,184
3,60,93,192
3,67,93,192
3,53,99,160
3,59,86,160
3,60,91,168
3,67,91,0
3,53,95,192
3,59,83,184
3,60,93,192
3,67,91,192
3,53,92,176
3,59,87,184
3,60,87,176
3,67,93,176
3,62,87,0
3,59,85,0
3,55,90,0
3,60,84,8
3,64,85,0
3,59,83,192
3,55,83,0
3,62,85,0
3,64,88,168
3,60,87,0
3,55,85,152
3,59,79,0
3,62,88,0
3,60,83,0
3,64,85,0
3,55,84,184
3,59,81,0
3,62,85,0
3,64,85,176
3,60,90,0
3,48,95,176
3,55,85,192
3,60,88,192
3,64,85,192
3,55,96,208
3,60,89,168
3,64,75,184
3,43,96,0
3,55,97,192
3,62,88,192
3,67,88,192
3,55,95,8
3,62,91,0
3,67,79,192
3,45,99,8
3,60,99,184
3,64,89,192
3,69,93,192
3,57,100,384
3,60,91,152
3,64,86,192
3,52,100,0
3,55,99,192
3,59,83,192
3,64,88,192
3,59,89,176
3,64,88,120
3,67,91,192
3,53,100,0
3,57,97,192
3,60,90,192
3,65,85,192
3,57,94,184
3,60,85,0
3,64,86,192
3,48,100,8
3,55,95,184
3,60,90,192
3,64,86,192
3,55,97,0
3,60,93,144
3,64,88,192
3,43,100,0
3,62,88,192
3,67,87,192
3,72,92,192
3,62,82,8
3,67,92,192
3,72,94,152
3,43,100,8
3,62,88,176
3,67,90,192
3,71,89,192
3,69,98,192
3,71,96,368
3,48,96,8
3,55,87,176
3,60,94,192
3,64,90,192
3,55,89,0
3,60,88,0
