track,note,velocity,time
1,24,80,1214
1,27,80,102
1,29,80,198
1,29,80,64
1,29,80,220
1,22,80,140
1,24,80,10
1,27,80,174
1,29,80,226
1,31,80,140
1,32,80,96
1,31,80,92
1,29,80,90
1,22,80,64
1,24,80,8
1,27,80,102
1,29,80,194
1,29,80,64
1,29,80,220
1,22,80,138
1,24,80,0
1,27,80,172
1,29,80,224
1,34,80,4
1,36,80,40
1,37,80,124
1,39,80,952
1,32,80,0
1,32,80,38
1,44,80,190
1,32,80,12
1,37,80,40
1,32,80,8
1,37,80,100
1,30,80,36
1,30,80,38
1,42,80,76
1,36,80,52
1,36,80,30
1,24,80,122
1,36,80,52
1,41,80,72
1,41,80,38
1,41,80,162
1,39,80,36
1,34,80,8
1,34,80,68
1,46,80,38
1,34,80,52
1,36,80,0
1,39,80,0
1,39,80,54
1,39,80,48
1,39,80,120
1,39,80,24
1,39,80,34
1,34,80,20
1,39,80,12
1,37,80,0
1,39,80,0
1,32,80,0
1,32,80,6
1,32,80,6
1,32,80,0
1,44,80,0
1,32,80,0
1,24,80,0
1,25,80,106
1,25,80,0
1,25,80,0
1,25,80,96
1,37,80,0
1,25,80,94
1,30,80,0
1,30,80,96
1,30,80,4
1,30,80,0
1,42,80,0
1,34,80,0
1,35,80,0
1,36,80,0
1,30,80,24
1,24,80,28
1,24,80,28
1,28,80,18
1,29,80,0
1,29,80,296
1,29,80,20
1,41,80,0
1,39,80,96
1,31,80,0
1,34,80,0
1,34,80,0
1,34,80,104
1,34,80,87
1,46,80,0
1,44,80,0
1,34,80,0
1,27,80,96
1,27,80,94
1,27,80,106
1,27,80,0
1,39,80,0
1,39,80,862
1,39,80,0
1,39,80,576
1,41,80,96
1,43,80,94
1,44,80,0
1,32,80,34
1,32,80,96
1,44,80,0
1,39,80,0
1,46,80,0
1,44,80,92
1,39,80,96
1,32,80,0
1,25,80,0
1,25,80,96
1,25,80,102
1,25,80,89
1,25,80,95
1,25,80,93
1,37,80,0
1,37,80,98
1,35,80,0
1,32,80,0
1,34,80,0
1,34,80,96
1,34,80,104
1,34,80,87
1,46,80,0
1,34,80,96
1,46,80,4
1,44,80,96
1,46,80,0
1,39,80,0
1,27,80,96
1,39,80,0
1,39,80,88
1,39,80,2
1,39,80,94
1,34,80,6
1,32,80,0
1,32,80,26
1,32,80,104
1,32,80,87
1,42,80,0
1,44,80,0
1,44,80,100
1,32,80,102
1,33,80,0
1,36,80,96
1,37,80,0
1,38,80,0
1,26,80,96
1,27,80,94
1,39,80,96
1,39,80,96
1,39,80,192
1,27,80,98
1,39,80,0
1,27,80,0
1,39,80,0
1,37,80,102
1,39,80,0
1,32,80,0
1,32,80,0
1,32,80,104
1,32,80,87
1,44,80,0
1,32,80,0
1,23,80,0
1,24,80,0
1,25,80,0
1,25,80,96
1,25,80,192
1,37,80,0
1,25,80,98
1,29,80,0
1,30,80,100
1,30,80,96
1,30,80,102
1,30,80,87
1,42,80,0
1,34,80,98
1,35,80,0
1,36,80,0
1,31,80,0
1,24,80,96
1,24,80,96
1,28,80,98
1,29,80,102
1,36,80,96
1,41,80,96
1,36,80,96
1,32,80,0
1,34,80,0
1,41,80,98
1,46,80,96
1,34,80,98
1,26,80,0
1,27,80,0
1,27,80,98
1,27,80,190
1,39,80,0
1,39,80,100
1,39,80,664
1,39,80,0
1,27,80,0
1,29,80,98
1,31,80,96
1,32,80,0
1,32,80,96
1,32,80,8
1,32,80,0
1,44,80,0
1,39,80,0
1,46,80,0
1,44,80,96
1,32,80,0
1,25,80,98
1,32,80,0
1,37,80,0
1,32,80,4
1,39,80,0
1,37,80,96
1,36,80,96
1,34,80,104
1,34,80,472
1,46,80,0
1,34,80,0
1,46,80,4
1,44,80,96
1,34,80,0
1,27,80,0
1,27,80,284
1,34,80,0
1,37,80,0
1,34,80,4
1,39,80,0
1,34,80,96
1,30,80,0
1,32,80,0
1,32,80,92
1,32,80,104
1,32,80,87
1,42,80,0
1,44,80,0
1,46,80,0
1,44,80,4
1,32,80,48
1,33,80,24
1,36,80,0
1,37,80,4
1,38,80,0
1,33,80,0
1,26,80,4
1,39,80,106
1,39,80,96
1,37,80,0
1,38,80,0
1,39,80,0
1,27,80,480
1,27,80,192
1,51,80,206
1,39,80,12
1,39,80,4
1,39,80,92
1,37,80,0
1,39,80,0
1,24,80,2
1,27,80,96
1,29,80,96
1,29,80,96
1,29,80,188
1,22,80,0
1,24,80,6
1,27,80,96
1,29,80,94
1,39,80,4
1,41,80,4
1,41,80,92
1,41,80,96
1,34,80,0
1,36,80,0
1,39,80,96
1,27,80,102
1,39,80,0
1,39,80,194
1,39,80,200
1,27,80,190
1,39,80,0
1,37,80,0
1,39,80,0
1,32,80,0
1,32,80,96
1,32,80,104
1,32,80,87
1,44,80,0
1,44,80,100
1,37,80,4
1,25,80,104
1,37,80,96
1,37,80,92
1,37,80,104
1,39,80,104
1,37,80,0
1,29,80,0
1,30,80,0
1,42,80,92
1,37,80,88
1,42,80,0
1,42,80,96
1,34,80,96
1,35,80,0
1,36,80,0
1,36,80,96
1,31,80,92
1,24,80,0
1,24,80,96
1,38,80,4
1,39,80,8
1,40,80,0
1,29,80,0
1,41,80,0
1,29,80,96
1,41,80,0
1,43,80,0
1,41,80,0
1,34,80,96
1,34,80,10
1,34,80,92
1,46,80,0
1,34,80,0
1,46,80,0
1,34,80,4
1,26,80,6
1,27,80,96
1,27,80,96
1,27,80,88
1,39,80,0
1,27,80,0
1,39,80,0
1,27,80,0
1,27,80,0
1,27,80,96
1,27,80,96
1,39,80,0
1,27,80,0
1,39,80,0
1,39,80,96
1,27,80,0
1,37,80,0
1,39,80,4
1,31,80,0
1,32,80,100
1,32,80,8
1,32,80,96
1,44,80,28
1,44,80,4
1,23,80,104
1,24,80,0
1,25,80,0
1,25,80,96
1,25,80,94
1,37,80,0
1,37,80,4
1,39,80,6
1,37,80,0
1,29,80,0
1,30,80,0
1,30,80,94
1,30,80,96
1,42,80,0
1,30,80,0
1,42,80,0
1,34,80,0
1,35,80,0
1,36,80,0
1,36,80,0
1,24,80,98
1,36,80,6
1,24,80,0
1,36,80,0
1,38,80,2
1,39,80,0
1,40,80,0
1,31,80,0
1,31,80,96
1,29,80,0
1,41,80,104
1,29,80,90
1,41,80,0
1,29,80,0
1,43,80,4
1,41,80,0
1,34,80,0
1,34,80,288
1,34,80,92
1,46,80,4
1,34,80,0
1,46,80,0
1,41,80,0
1,38,80,0
1,39,80,0
1,39,80,98
1,46,80,98
1,39,80,0
1,38,80,0
1,39,80,0
1,34,80,0
1,31,80,0
1,32,80,106
1,32,80,98
1,32,80,88
1,44,80,0
1,32,80,0
1,46,80,4
1,44,80,0
1,39,80,98
1,39,80,98
1,46,80,96
1,39,80,0
1,38,80,0
1,39,80,0
1,31,80,98
1,32,115,98
1,32,115,94
1,32,115,96
1,44,115,0
1,32,115,0
1,46,115,0
1,44,115,104
1,32,115,96
1,32,115,96
1,27,95,0
2,63,60,1208
2,67,60,2
2,58,60,2
2,63,60,42
2,67,60,0
2,58,60,0
2,63,60,42
2,60,60,0
2,67,60,4
2,67,60,1346
2,63,60,0
2,58,60,0
2,58,60,32
2,63,60,0
2,67,60,0
2,60,60,44
2,63,60,0
2,67,60,0
2,67,60,1340
2,58,60,12
2,63,60,0
2,58,60,34
2,63,60,0
2,67,60,0
2,60,60,38
2,63,60,0
2,67,60,0
2,58,60,1344
2,63,60,0
2,67,60,0
2,58,60,36
2,63,60,0
2,67,60,0
2,60,60,40
2,63,60,0
2,67,60,0
2,61,60,1346
2,65,60,0
2,56,60,0
2,58,60,32
2,67,60,0
2,63,60,0
2,60,60,48
2,65,60,0
2,68,60,0
2,65,60,92
2,68,60,0
2,73,60,0
2,60,60,376
2,59,60,378
2,58,60,382
2,70,60,374
2,68,60,86
2,75,60,1044
2,65,60,96
2,67,60,44
2,68,60,52
2,62,60,60
2,65,60,376
2,61,60,0
2,68,60,0
2,65,60,72
2,68,60,0
2,73,60,0
2,61,60,48
2,65,60,0
2,68,60,0
2,67,60,48
2,75,60,96
2,63,60,68
2,65,60,388
2,77,60,98
2,58,60,82
2,67,60,0
2,62,60,0
2,58,60,40
2,61,60,0
2,68,60,0
2,67,60,60
2,60,60,16
2,63,60,0
2,70,60,0
2,68,60,74
2,67,60,16
2,68,60,16
2,75,60,18
2,60,60,16
2,56,60,0
2,65,60,0
2,59,60,38
2,64,60,0
2,62,60,0
2,67,60,0
2,68,60,52
2,70,60,66
2,70,60,96
2,74,60,0
2,79,60,0
2,72,60,38
2,70,60,30
2,67,60,26
2,62,60,20
2,67,60,196
2,58,60,0
2,62,60,0
2,63,60,40
2,68,60,0
2,60,60,0
2,70,60,46
2,62,60,0
2,65,60,0
2,71,60,0
2,68,60,380
2,68,60,376
2,72,60,30
2,70,60,24
2,66,60,18
2,73,60,20
2,75,60,8
2,66,60,18
2,68,60,0
2,69,60,20
2,70,60,20
2,73,60,84
2,68,60,0
2,77,60,0
2,73,60,2
2,65,60,0
2,68,60,0
2,77,60,84
2,68,60,0
2,73,60,0
2,73,60,0
2,68,60,0
2,65,60,6
2,63,60,32
2,60,60,0
2,67,60,0
2,66,60,376
2,65,60,386
2,65,60,20
2,66,60,0
2,70,60,0
2,65,60,12
2,68,60,12
2,61,60,12
2,60,60,16
2,67,60,12
2,65,60,6
2,72,60,24
2,75,60,12
2,77,60,22
2,79,60,16
2,91,60,20
2,86,60,0
2,82,60,0
2,58,60,78
2,67,60,0
2,62,60,0
2,58,60,566
2,67,60,0
2,62,60,0
2,63,60,72
2,60,60,0
2,68,60,0
2,65,60,104
2,62,60,0
2,70,60,0
2,71,60,0
2,63,60,0
2,66,60,0
2,68,60,370
2,68,60,380
2,72,60,24
2,70,60,16
2,66,60,24
2,68,60,16
2,70,60,16
2,71,60,28
2,75,60,20
2,73,60,576
2,71,60,8
2,68,60,24
2,69,60,24
2,70,60,46
2,51,60,20
2,70,60,0
2,68,60,0
2,65,60,0
2,51,60,0
2,70,60,0
2,65,60,0
2,68,60,0
2,51,60,0
2,65,60,0
2,70,60,0
2,68,60,0
2,51,60,480
2,70,60,0
2,68,60,0
2,65,60,0
2,51,60,192
2,65,60,0
2,70,60,0
2,68,60,0
2,51,60,186
2,70,60,0
2,65,60,0
2,68,60,0
2,67,60,0
2,63,60,0
2,58,60,8
2,67,60,20
2,58,60,0
2,63,60,0
2,63,60,20
2,67,60,0
2,60,60,0
2,67,60,1354
2,67,60,24
2,67,60,18
2,65,60,1342
2,56,60,0
2,61,60,0
2,58,60,4
2,67,60,0
2,63,60,0
2,61,60,12
2,65,60,0
2,68,60,0
2,68,60,8
2,73,60,0
2,65,60,0
2,61,60,14
2,65,60,0
2,68,60,0
2,77,60,16
2,80,60,0
2,85,60,0
2,77,60,16
2,80,60,0
2,73,60,8
2,55,60,10
2,60,60,2
2,63,60,0
2,63,60,388
2,65,60,380
2,65,60,32
2,66,60,8
2,68,60,0
2,70,60,8
2,70,60,10
2,72,60,20
2,72,60,4
2,70,60,14
2,63,60,384
2,64,60,8
2,65,60,28
2,67,60,16
2,79,60,12
2,74,60,0
2,82,60,0
2,56,60,4
2,65,60,0
2,61,60,0
2,70,69,16
2,72,75,8
2,73,83,8
2,75,90,8
2,63,60,8
2,67,60,0
2,72,60,0
2,66,60,388
2,70,60,30
2,68,60,26
2,68,60,26
2,72,60,24
2,72,60,18
2,70,60,34
2,70,60,92
2,65,60,16
2,74,60,26
2,77,60,20
2,74,60,20
2,70,60,38
2,70,60,8
2,74,60,8
2,79,60,8
2,70,60,94
2,70,60,8
2,72,60,4
2,79,60,4
2,62,60,94
2,67,60,4
2,70,60,4
2,74,60,4
2,79,60,4
2,72,60,190
2,79,60,4
2,74,79,48
2,75,79,4
2,77,79,6
2,74,80,8
2,75,80,4
2,82,81,8
3,67,63,1202
3,72,63,0
3,67,63,194
3,53,89,472
3,55,89,4
3,58,89,0
3,60,89,4
3,62,89,96
3,62,89,96
3,67,63,0
3,58,89,0
3,58,89,96
3,67,63,0
3,55,89,6
3,55,89,90
3,67,63,0
3,67,63,288
3,67,63,96
3,67,63,95
3,67,89,96
3,72,89,0
3,67,63,0
3,70,89,96
3,65,89,0
3,65,89,4
3,70,89,0
3,65,89,0
3,72,63,0
3,70,89,0
3,62,89,0
3,67,89,0
3,62,89,0
3,67,89,0
3,70,63,95
3,62,89,8
3,67,89,0
3,53,89,92
3,55,89,4
3,58,89,0
3,60,89,0
3,62,89,96
3,63,89,0
3,70,63,0
3,62,89,0
3,58,89,96
3,70,63,0
3,55,89,0
3,70,63,194
3,70,63,288
3,70,63,0
3,70,63,93
3,67,63,92
3,72,63,94
3,67,63,190
3,53,89,482
3,55,89,4
3,58,89,0
3,60,89,0
3,62,89,96
3,62,89,98
3,67,63,0
3,58,89,0
3,58,89,96
3,67,63,0
3,55,89,0
3,55,89,98
3,67,63,0
3,67,63,288
3,67,63,98
3,67,63,95
3,67,89,96
3,72,89,0
3,67,63,0
3,65,89,0
3,70,89,6
3,70,89,4
3,65,89,4
3,65,89,0
3,70,89,0
3,72,63,0
3,67,89,8
3,62,89,4
3,67,89,0
3,62,89,3
3,70,63,0
3,62,89,96
3,67,89,0
3,53,89,96
3,55,89,0
3,58,89,0
3,60,89,0
3,62,89,0
3,63,89,0
3,70,63,0
3,62,89,0
3,58,89,96
3,70,63,0
3,55,89,0
3,55,89,96
3,70,63,0
3,70,63,96
3,70,63,94
3,65,63,44
3,67,63,0
3,68,63,194
3,68,63,96
3,70,89,1152
3,65,89,0
3,60,63,100
3,67,63,0
3,63,63,0
3,63,63,98
3,60,63,0
3,67,63,0
3,63,63,4
3,67,63,0
3,60,63,0
3,60,63,90
3,67,63,0
3,63,63,0
3,58,89,190
3,60,89,0
3,63,89,0
3,58,89,12
3,60,89,4
3,63,89,26
3,59,63,96
3,66,63,4
3,63,63,0
3,63,63,88
3,59,63,0
3,66,63,0
3,63,63,6
3,66,63,0
3,59,63,0
3,59,63,92
3,63,63,0
3,66,63,0
3,65,63,94
3,58,63,6
3,61,63,0
3,61,63,94
3,58,63,0
3,65,63,0
3,65,63,4
3,58,63,0
3,61,63,0
3,61,63,96
3,65,63,0
3,58,63,0
3,56,89,190
3,58,89,98
3,61,89,4
3,56,89,38
3,58,89,98
3,61,89,84
3,58,63,94
3,62,63,6
3,65,63,4
3,68,63,0
3,61,63,0
3,64,63,0
3,60,63,88
3,67,63,0
3,63,63,0
3,60,63,94
3,63,63,0
3,67,63,0
3,67,63,4
3,60,63,0
3,63,63,0
3,60,63,86
3,63,63,0
3,67,63,0
3,58,89,194
3,60,89,0
3,63,63,20
3,63,89,0
3,67,63,0
3,60,63,0
3,58,89,34
3,60,89,4
3,63,89,92
3,60,63,96
3,63,63,0
3,65,89,0
3,65,63,0
3,64,63,96
3,58,63,0
3,62,63,0
3,65,63,92
3,62,63,0
3,58,63,8
3,58,63,94
3,67,63,4
3,62,63,6
3,67,63,98
3,62,63,0
3,58,63,0
3,62,63,4
3,67,63,0
3,58,63,0
3,62,63,96
3,67,63,0
3,58,63,0
3,62,89,192
3,65,89,120
3,62,89,216
3,56,63,96
3,65,63,0
3,58,89,0
3,61,63,0
3,56,63,88
3,65,63,0
3,61,63,0
3,56,63,88
3,65,63,0
3,61,63,0
3,60,63,0
3,67,63,0
3,63,63,0
3,63,63,96
3,60,63,0
3,67,63,0
3,60,63,2
3,67,63,0
3,63,63,0
3,60,63,96
3,67,63,0
3,63,63,0
3,58,89,192
3,60,89,0
3,63,89,0
3,58,89,10
3,60,89,0
3,63,89,22
3,59,63,92
3,63,63,6
3,66,63,4
3,63,63,98
3,59,63,0
3,66,63,0
3,59,63,0
3,66,63,0
3,63,63,0
3,59,63,86
3,63,63,0
3,66,63,0
3,65,63,98
3,58,63,4
3,61,63,0
3,61,63,96
3,58,63,0
3,65,63,0
3,65,63,0
3,58,63,0
3,61,63,0
3,61,63,98
