track,note,velocity,time
0,42,50,0
0,42,40,93
0,42,40,93
0,42,40,93
0,62,127,93
0,59,115,0
0,54,119,0
0,35,82,1
0,47,74,0
0,59,95,32
0,54,99,0
0,62,119,1
0,59,99,35
0,54,99,1
0,62,111,0
0,59,91,33
0,62,111,1
0,54,95,0
0,59,99,32
0,54,95,1
0,61,123,0
0,59,115,32
0,54,103,0
0,61,127,1
0,59,103,32
0,61,127,1
0,54,107,0
0,59,107,32
0,54,99,0
0,61,115,0
0,59,99,27
0,64,123,0
0,54,103,0
0,59,111,31
0,64,127,0
0,54,111,0
0,59,103,28
0,64,123,1
0,54,103,0
0,64,123,29
0,59,103,0
0,54,99,0
0,62,127,27
0,59,103,0
0,54,107,0
0,59,111,34
0,62,127,0
0,54,111,1
0,59,111,30
0,62,123,0
0,54,107,0
0,45,78,1
0,59,103,20
0,54,103,0
0,62,123,0
0,57,95,1
0,59,111,5
0,62,127,1
0,55,99,0
0,43,70,0
0,55,95,3
0,62,119,31
0,59,99,0
0,55,99,1
0,62,119,33
0,59,99,0
0,55,99,1
0,48,83,10
0,59,99,18
0,62,119,1
0,55,99,1
0,61,123,29
0,59,103,0
0,55,95,1
0,45,98,3
0,59,99,28
0,61,127,0
0,55,107,1
0,43,113,11
0,59,107,16
0,61,127,1
0,55,103,0
0,61,123,32
0,59,103,1
0,55,99,0
0,41,127,1
0,59,99,29
0,64,119,1
0,55,99,1
0,64,119,29
0,59,99,0
0,55,99,1
0,59,99,30
0,64,119,1
0,55,99,1
0,59,99,31
0,64,119,0
0,55,99,1
0,59,99,26
0,62,115,1
0,55,95,1
0,59,91,27
0,62,111,1
0,55,91,0
0,59,95,30
0,62,119,0
0,42,90,0
0,55,99,0
0,59,95,29
0,62,115,1
0,55,95,1
0,59,95,4
0,62,119,0
0,40,78,1
0,55,99,0
0,59,99,28
0,62,115,1
0,55,95,0
0,59,91,31
0,62,107,0
0,55,87,1
0,59,87,32
0,62,111,0
0,55,95,1
0,59,95,27
0,61,115,1
0,55,95,1
0,59,87,27
0,61,107,0
0,55,95,1
0,59,99,30
0,61,111,1
0,55,91,1
0,59,91,27
0,61,111,0
0,55,91,2
0,59,91,29
0,54,103,0
0,61,123,0
0,42,90,3
0,59,103,29
0,54,103,0
0,61,123,0
0,59,107,31
0,61,123,0
0,54,107,0
0,61,119,29
0,59,95,0
0,54,95,0
0,61,115,31
0,58,95,0
0,54,95,0
0,58,95,29
0,54,95,1
0,61,123,0
0,61,127,26
0,58,107,1
0,54,107,0
0,61,123,32
0,58,111,0
0,54,107,0
0,59,111,32
0,55,107,0
0,52,111,1
0,40,82,0
0,58,95,4
0,59,105,97
0,62,100,8
0,61,105,3
0,62,127,2
0,59,115,0
0,54,119,0
0,35,82,0
0,47,105,1
0,47,74,0
0,59,58,2
0,59,95,2
0,54,99,0
0,62,119,1
0,62,100,3
0,59,99,36
0,54,99,0
0,62,111,0
0,59,91,33
0,62,111,1
0,54,95,0
0,59,99,1
0,54,95,1
0,61,123,0
0,59,115,32
0,54,103,0
0,62,78,1
0,61,127,0
0,62,116,30
0,59,103,1
0,61,127,1
0,54,107,0
0,61,90,2
0,59,107,1
0,54,99,0
0,61,115,1
0,61,110,21
0,59,99,0
0,64,123,0
0,54,103,0
0,59,111,31
0,64,127,0
0,54,111,0
0,59,103,28
0,64,123,1
0,54,103,0
0,59,105,4
0,64,123,21
0,59,103,1
0,54,99,0
0,59,100,1
0,62,127,26
0,59,103,1
0,54,107,0
0,59,111,34
0,62,127,0
0,54,111,1
0,59,100,8
0,59,111,1
0,62,123,0
0,54,107,0
0,62,105,1
0,45,78,0
0,60,100,1
0,59,67,1
0,59,103,19
0,54,103,0
0,62,123,0
0,62,110,2
0,57,82,0
0,55,67,0
0,59,111,5
0,62,127,0
0,55,99,2
0,43,70,0
0,61,100,1
0,53,95,0
0,62,119,30
0,59,99,0
0,55,99,1
0,62,105,1
0,62,119,31
0,59,99,1
0,55,99,1
0,59,99,1
0,62,119,0
0,55,99,0
0,50,95,4
0,61,123,29
0,59,103,0
0,55,95,0
0,43,90,1
0,59,99,28
0,61,127,0
0,55,107,1
0,61,110,10
0,59,107,0
0,62,100,1
0,61,127,0
0,55,103,0
0,61,123,1
0,59,103,1
0,55,99,0
0,64,105,1
0,50,95,2
0,55,95,1
0,66,116,0
0,59,99,23
0,64,119,0
0,55,99,1
0,64,119,29
0,59,99,0
0,55,99,0
0,59,99,30
0,64,119,1
0,55,99,1
0,67,105,1
0,59,99,31
0,64,119,0
0,55,99,1
0,50,105,0
0,64,100,0
0,43,100,2
0,59,99,1
0,62,115,0
0,55,95,1
0,57,7,2
0,59,17,4
0,49,13,2
0,57,11,5
0,51,22,2
0,49,15,2
0,59,91,2
0,62,111,1
0,55,91,0
0,59,33,0
0,57,26,1
0,51,38,1
0,49,25,1
0,59,45,2
0,57,31,1
0,51,53,3
0,49,38,2
0,59,47,1
0,42,110,1
0,59,95,1
0,62,119,0
0,42,90,0
0,55,99,0
0,57,31,1
0,51,56,2
0,49,42,1
0,59,69,1
0,57,49,3
0,51,65,1
0,49,45,1
0,59,82,0
0,57,56,3
0,59,95,3
0,62,115,1
0,51,91,0
0,55,95,1
0,49,62,0
0,59,79,1
0,57,64,1
0,51,87,2
0,49,67,2
0,59,99,1
0,57,70,0
0,51,89,4
0,59,106,1
0,59,95,3
0,62,119,0
0,40,78,1
0,66,110,0
0,55,99,0
0,49,82,1
0,40,100,2
0,59,99,1
0,47,95,1
0,62,115,0
0,55,95,0
0,59,91,30
0,62,107,0
0,55,87,1
0,52,100,5
0,59,87,0
0,62,111,0
0,55,95,1
0,67,100,2
0,64,78,4
0,47,95,4
0,59,95,0
0,61,115,0
0,55,95,1
0,59,87,2
0,61,107,0
0,55,95,1
0,40,95,1
0,59,99,1
0,61,111,1
0,55,91,0
0,76,105,1
0,76,127,0
0,59,91,1
0,61,111,0
0,55,91,2
0,64,110,0
0,59,91,4
0,54,103,0
0,61,123,0
0,42,90,0
0,42,105,1
0,73,88,1
0,73,127,0
0,66,100,1
0,67,86,2
0,59,103,14
0,54,103,0
0,61,123,0
0,66,82,1
0,67,100,2
0,59,107,3
0,61,123,0
0,54,107,0
0,66,100,5
0,61,119,0
0,59,95,0
0,54,95,0
0,49,82,1
0,54,100,0
0,61,115,0
0,58,95,1
0,54,95,0
0,58,95,0
0,54,95,0
0,61,123,0
0,64,105,4
0,61,127,0
0,58,107,1
0,54,107,0
0,62,86,2
0,61,105,3
0,61,123,4
0,58,111,1
0,54,107,0
0,49,82,4
0,54,86,1
0,52,86,3
0,59,111,1
0,55,107,0
0,52,111,0
0,40,82,0
0,40,105,1
0,55,95,1
0,61,105,2
0,59,95,1
0,64,90,7
0,59,95,2
0,59,110,9
0,58,95,4
0,51,16,3
0,59,15,4
0,51,15,1
0,59,24,2
0,51,17,0
0,59,34,1
0,51,27,3
0,59,40,0
0,51,35,0
0,62,90,1
0,59,44,0
0,51,39,3
0,59,52,0
0,62,116,2
0,51,46,4
0,69,116,0
0,59,59,2
0,51,45,0
0,62,105,1
0,59,60,0
0,51,46,1
0,59,66,2
0,51,71,1
0,59,67,1
0,61,105,4
0,51,78,2
0,59,64,1
0,51,79,0
0,62,127,1
0,59,115,0
0,54,119,0
0,35,82,0
0,35,122,1
0,47,74,0
0,55,89,0
0,35,116,0
0,51,8,0
0,59,12,1
0,51,9,2
0,59,17,5
0,51,12,3
0,59,20,2
0,59,95,0
0,54,99,0
0,62,105,1
0,62,119,0
0,51,15,1
0,59,23,0
0,51,16,3
0,59,27,2
0,51,22,2
0,59,35,1
0,59,99,1
0,54,99,0
0,62,111,0
0,51,25,2
0,59,34,0
0,51,17,3
0,59,29,1
0,51,33,6
0,59,25,1
0,59,91,3
0,62,111,0
0,54,95,1
0,51,28,4
0,59,41,1
0,51,28,3
0,59,37,3
0,51,22,2
0,59,99,2
0,54,95,1
0,61,123,0
0,51,27,1
0,59,31,3
0,51,26,2
0,59,31,4
0,51,29,4
0,59,27,1
0,59,115,1
0,54,103,0
0,61,127,1
0,51,27,2
0,59,33,1
0,51,30,3
0,59,38,1
0,62,100,1
0,51,38,5
0,59,29,1
0,59,103,1
0,61,127,0
0,62,100,1
0,54,107,0
0,51,35,3
0,59,21,4
0,51,30,1
0,59,38,4
0,51,23,2
0,61,95,1
0,59,107,6
0,54,99,0
0,61,115,1
0,42,105,1
0,59,57,0
0,35,90,0
0,61,95,3
0,59,99,4
0,64,123,0
0,54,103,0
0,47,122,1
0,35,116,0
0,55,57,1
0,59,111,31
0,64,127,0
0,54,111,0
0,59,103,4
0,64,123,0
0,54,103,0
0,59,105,1
0,64,123,13
0,59,103,0
0,54,99,0
0,59,105,1
0,62,127,27
0,59,103,0
0,54,107,0
0,59,111,34
0,62,127,0
0,54,111,1
0,59,111,29
0,62,123,1
0,54,107,0
0,45,78,1
0,62,105,1
0,62,105,1
0,59,103,19
0,54,103,1
0,62,123,0
0,62,105,8
0,59,111,5
0,62,127,1
0,55,99,0
0,43,70,0
0,55,32,0
0,43,122,1
0,35,116,0
0,53,26,0
0,61,110,1
0,62,119,22
0,59,99,0
0,55,99,0
0,59,81,1
0,62,100,1
0,62,119,30
0,59,99,0
0,55,99,1
0,59,90,3
0,59,99,1
0,62,119,0
0,55,99,1
0,61,123,20
0,59,103,0
0,55,95,1
0,59,86,2
0,59,99,6
0,61,127,0
0,55,107,1
0,71,60,1
0,59,107,30
0,61,127,1
0,55,103,0
0,62,105,7
0,61,123,33
0,59,103,0
0,55,99,0
0,50,105,1
0,57,23,0
0,35,67,0
0,64,105,1
0,66,105,1
0,59,99,3
0,64,119,1
0,51,54,0
0,55,116,1
0,55,99,0
0,35,116,1
0,55,32,0
0,59,21,4
0,51,14,3
0,59,24,4
0,51,18,7
0,59,24,4
0,64,119,2
0,59,99,1
0,55,99,1
0,51,26,1
0,59,26,0
0,51,27,0
0,59,28,4
0,51,43,7
0,59,44,4
0,59,99,3
0,64,119,0
0,67,95,1
0,55,99,0
0,51,39,4
0,59,45,5
0,51,37,6
0,64,95,0
0,59,45,4
0,51,46,6
0,59,50,4
0,59,99,1
0,64,119,0
0,55,99,1
0,51,51,6
0,59,52,5
0,51,59,2
0,59,59,5
0,51,53,5
0,59,99,6
0,62,115,0
0,55,95,0
0,51,62,1
0,59,54,1
0,51,67,2
0,59,55,2
0,51,65,1
0,59,67,0
0,59,91,1
0,62,111,1
0,55,91,0
0,51,72,0
0,59,60,1
0,51,72,2
0,59,70,1
0,51,60,0
0,59,95,2
0,59,75,0
0,62,119,1
0,42,90,0
0,55,99,0
0,54,116,1
0,51,81,1
0,59,71,0
0,51,61,0
0,59,75,3
0,51,84,2
0,59,95,1
0,59,72,0
0,62,115,1
0,55,95,1
0,51,78,0
0,59,80,0
0,51,85,5
0,59,95,3
0,51,76,0
0,59,95,1
0,62,119,0
0,40,78,1
0,55,99,1
0,55,92,0
0,59,92,0
0,52,122,1
0,69,116,0
0,35,122,0
0,59,99,28
0,62,115,1
0,55,95,0
0,59,91,31
0,62,107,0
0,55,87,1
0,67,100,1
0,59,87,14
0,62,111,1
0,55,95,1
0,66,105,2
0,59,95,4
0,61,115,1
0,55,95,1
0,64,100,1
0,59,87,27
0,61,107,0
0,55,95,1
0,59,99,0
0,61,111,1
0,55,91,1
0,52,110,1
0,47,95,2
0,59,91,21
0,61,111,0
0,55,91,1
0,40,100,1
0,35,70,0
0,41,86,8
0,64,100,1
0,59,91,2
0,54,103,0
0,61,123,1
0,66,105,2
0,42,90,0
0,35,116,0
0,42,105,0
0,57,44,0
0,67,86,0
0,59,103,14
0,54,103,0
0,61,123,0
0,66,105,1
0,59,107,31
0,61,123,0
0,54,107,0
0,67,100,1
0,66,105,2
0,61,119,2
0,59,95,0
0,54,95,0
0,49,86,1
0,61,115,30
0,58,95,1
0,54,95,0
0,54,105,1
0,58,95,7
0,54,95,0
0,61,123,0
0,64,110,1
0,61,127,21
0,58,107,0
0,54,107,1
0,62,100,1
0,61,100,0
0,64,82,2
0,61,123,0
0,58,111,0
0,54,107,0
0,49,93,1
0,42,88,1
0,62,95,0
0,40,72,2
0,55,84,0
0,51,84,0
0,59,110,1
0,40,120,0
0,35,110,0
0,55,61,1
0,52,61,0
0,59,61,0
0,40,49,0
0,45,21,0
0,35,13,1
0,40,21,0
0,40,70,1
0,45,36,1
0,35,23,0
0,40,27,0
0,40,86,0
0,45,47,1
0,35,31,0
0,40,46,0
0,40,106,0
0,45,67,0
0,40,71,1
0,35,43,0
0,42,114,0
0,45,100,1
0,35,47,0
0,40,100,0
0,45,51,1
0,41,127,1
0,36,122,0
0,38,116,0
0,45,68,4
0,55,59,2
0,62,53,1
0,59,53,0
0,71,82,28
0,71,100,12
0,43,59,0
0,43,48,0
0,71,105,1
0,71,105,24
0,62,127,1
0,59,115,0
0,54,119,0
0,59,127,1
0,35,82,0
0,47,74,0
0,54,122,1
0,47,116,0
0,57,116,0
0,71,116,1
0,55,122,0
0,36,116,0
0,35,127,1
0,59,95,32
0,54,99,0
0,62,119,1
0,46,70,1
0,59,99,19
0,54,99,0
0,62,111,0
0,38,122,0
0,46,122,0
0,68,116,2
0,59,91,17
0,35,105,1
0,62,111,0
0,54,95,0
0,46,77,1
0,59,99,8
0,54,95,1
0,61,123,0
0,35,122,1
0,46,116,0
0,36,122,0
0,59,115,32
0,54,103,0
0,61,127,1
0,46,75,1
0,59,103,32
0,61,127,1
0,54,107,0
0,46,122,1
0,38,116,0
0,59,107,7
0,54,99,0
0,61,115,1
0,46,73,1
0,54,100,1
0,47,95,0
0,59,100,0
0,59,113,3
0,54,113,0
0,47,113,1
0,59,99,9
0,64,123,0
0,54,103,0
0,47,116,1
0,35,122,1
0,59,122,0
0,54,116,0
0,46,116,0
0,36,122,1
0,59,111,31
0,64,127,0
0,54,111,0
0,46,70,2
0,59,103,28
0,64,123,1
0,54,103,0
0,38,116,2
0,46,116,0
0,64,123,17
0,59,103,0
0,54,99,0
0,35,110,2
0,46,74,0
0,59,113,7
0,54,113,0
0,47,113,0
0,62,127,15
0,59,103,0
0,54,107,0
0,35,122,2
0,46,116,0
0,36,116,0
0,47,116,1
0,59,122,1
0,54,110,0
0,59,100,1
0,71,100,2
0,59,111,0
0,62,127,0
0,54,111,1
0,46,79,2
0,59,111,6
0,62,123,0
0,54,107,0
0,45,78,1
0,71,105,1
0,38,116,0
0,46,116,0
0,57,127,1
0,55,127,1
0,59,103,0
0,54,103,0
0,62,123,0
0,33,110,1
0,36,78,0
0,46,76,0
0,71,105,1
0,57,127,1
0,59,111,5
0,62,127,1
0,55,99,0
0,71,116,1
0,49,116,0
0,43,70,0
0,55,116,0
0,31,122,1
0,55,122,0
0,50,122,0
0,43,116,0
0,36,122,0
0,62,119,31
0,59,99,0
0,55,99,1
0,46,66,0
0,62,119,1
0,59,99,0
0,55,99,1
0,38,122,1
0,46,116,0
0,69,110,1
0,59,99,12
0,62,119,0
0,55,99,1
0,31,110,1
0,46,71,0
0,61,123,29
0,59,103,0
0,55,95,1
0,31,122,1
0,46,116,0
0,36,116,0
0,67,110,1
0,59,99,0
0,61,127,0
0,55,107,0
0,46,73,0
0,59,107,30
0,61,127,1
0,55,103,0
0,46,116,0
0,38,116,1
0,61,123,5
0,59,103,0
0,55,99,0
0,55,116,1
0,50,116,0
0,46,71,0
0,43,116,1
0,59,99,10
0,64,119,1
0,55,117,1
0,55,99,0
0,46,110,0
0,31,116,1
0,50,117,0
0,43,117,0
0,36,116,1
0,64,119,29
0,59,99,0
0,46,70,0
0,55,99,1
0,59,99,31
0,64,119,0
0,55,99,0
0,46,105,1
0,38,116,0
0,59,99,5
0,64,119,0
0,31,105,1
0,55,99,0
0,50,62,1
0,43,62,0
0,46,69,0
0,55,116,1
0,59,99,27
0,62,115,0
0,46,110,0
0,31,116,1
0,55,122,0
0,55,95,0
0,50,122,1
