track,note,velocity,time
1,34,104,1714
1,34,104,72
1,46,104,38
1,34,104,4
1,46,104,30
1,41,104,4
1,34,104,4
1,34,104,42
1,46,104,4
1,41,104,4
1,34,104,4
1,26,104,4
1,29,104,4
1,29,104,100
1,31,104,2
1,31,104,146
1,43,104,54
1,31,104,4
1,43,104,114
1,38,104,22
1,31,104,34
1,31,104,40
1,43,104,4
1,38,104,4
1,43,104,4
1,38,104,28
1,43,104,4
1,38,104,74
1,34,104,46
1,34,104,96
1,46,104,4
1,34,104,4
1,34,104,32
1,46,104,4
1,41,104,4
1,34,104,4
1,34,104,38
1,46,104,4
1,41,104,6
1,34,104,4
1,26,104,4
1,29,104,4
1,29,104,56
1,31,104,22
1,31,104,38
1,31,104,36
1,43,104,18
1,31,104,4
1,43,104,82
1,38,104,0
1,31,104,4
1,31,104,168
1,34,104,914
1,34,104,120
1,46,104,2
1,34,104,4
1,34,104,12
1,46,104,46
1,41,104,192
1,34,104,4
1,34,104,76
1,46,104,4
1,41,104,0
1,34,104,192
1,34,104,34
1,46,104,4
1,41,104,4
1,31,104,30
1,31,104,120
1,43,104,10
1,31,104,0
1,43,104,94
1,38,104,4
1,31,104,0
1,31,104,102
1,43,104,6
1,38,104,4
1,31,104,0
1,43,104,86
1,38,104,2
1,38,104,56
1,38,104,122
1,50,104,192
1,38,104,4
1,50,104,90
1,45,104,4
1,36,104,4
1,36,104,46
1,48,104,34
1,43,104,96
1,36,104,22
1,29,104,122
1,29,104,26
1,29,104,130
1,29,104,40
1,34,104,92
1,46,104,46
1,41,104,4
1,34,104,192
1,34,104,192
1,29,104,10
1,34,104,6
1,31,104,4
1,31,104,38
1,31,104,38
1,34,104,976
1,34,104,100
1,46,104,42
1,34,104,4
1,34,104,38
1,46,104,4
1,41,104,192
1,34,104,6
1,34,104,74
1,46,104,26
1,41,104,192
1,34,104,40
1,34,104,38
1,34,104,4
1,33,104,4
1,31,104,22
1,31,104,144
1,43,104,28
1,31,104,4
1,31,104,38
1,43,104,4
1,38,104,4
1,31,104,192
1,43,104,70
1,38,104,0
1,31,104,8
1,31,104,84
1,43,104,0
1,38,104,192
1,38,104,78
1,38,104,96
1,50,104,4
1,45,104,4
1,38,104,8
1,38,104,62
1,50,104,192
1,45,104,4
1,36,104,10
1,36,104,82
1,48,104,192
1,43,104,4
1,29,104,8
1,29,104,78
1,41,104,4
1,36,104,4
1,34,104,36
1,34,104,98
1,46,104,28
1,34,104,0
1,34,104,34
1,46,104,4
1,41,104,4
1,34,104,18
1,34,104,48
1,46,104,12
1,41,104,6
1,34,104,22
1,34,104,54
1,46,104,192
1,41,104,182
1,39,104,90
1,39,104,92
1,51,104,8
1,39,104,4
1,39,104,82
1,51,104,4
1,46,104,4
1,39,104,50
1,39,104,90
1,51,104,20
1,46,104,4
1,39,104,88
1,39,104,80
1,38,70,86
1,39,104,24
1,41,104,4
1,34,104,44
1,34,104,122
1,46,104,8
1,34,104,192
1,46,104,64
1,41,104,192
1,34,104,54
1,34,104,66
1,46,104,42
1,41,104,4
1,34,104,54
1,34,104,88
1,36,104,16
1,38,104,14
1,41,104,96
1,43,104,10
1,36,104,0
1,48,104,118
1,36,104,4
1,36,104,88
1,48,104,0
1,43,104,26
1,36,104,40
1,36,104,96
1,48,104,52
1,43,104,16
1,36,104,46
1,36,104,78
1,48,104,14
1,43,104,4
1,41,104,66
1,29,104,12
1,41,104,10
1,29,104,14
1,41,104,0
1,29,104,14
1,29,104,50
1,29,104,60
1,34,104,732
1,34,104,120
1,46,104,2
1,34,104,4
1,34,104,12
1,46,104,46
1,41,104,192
1,34,104,4
1,34,104,76
1,46,104,4
1,41,104,0
1,34,104,192
1,34,104,34
1,46,104,4
1,41,104,4
1,31,104,30
1,31,104,120
1,43,104,10
1,31,104,0
1,43,104,94
1,38,104,4
1,31,104,0
1,31,104,102
1,43,104,6
1,38,104,4
1,31,104,0
1,43,104,86
1,38,104,2
1,38,104,56
1,38,104,122
1,50,104,192
1,38,104,4
1,50,104,90
1,45,104,4
1,36,104,4
1,36,104,46
1,48,104,34
1,43,104,96
1,36,104,22
1,29,104,122
1,29,104,26
1,29,104,130
1,29,104,40
1,34,104,92
1,46,104,46
1,41,104,4
1,34,104,192
1,34,104,192
1,29,104,10
1,34,104,6
1,31,104,4
1,31,104,38
1,31,104,38
1,34,104,976
1,34,104,100
1,46,104,42
1,34,104,4
1,34,104,38
1,46,104,4
1,41,104,192
1,34,104,6
1,34,104,74
1,46,104,26
1,41,104,192
1,34,104,40
1,34,104,38
1,34,104,4
1,33,104,4
1,31,104,22
1,31,104,144
1,43,104,28
1,31,104,192
1,31,104,38
1,43,104,4
1,38,104,4
1,31,104,192
1,43,104,70
1,38,104,0
1,31,104,8
1,31,104,84
1,43,104,0
1,38,104,192
1,38,104,78
1,38,104,96
1,50,104,4
1,45,104,4
1,38,104,8
1,38,104,62
1,50,104,4
1,45,104,4
1,36,104,10
1,36,104,82
1,48,104,192
1,43,104,4
1,41,104,8
1,41,104,78
1,53,104,4
1,48,104,4
1,34,104,36
1,34,104,98
1,46,104,28
1,34,104,0
1,34,104,34
1,46,104,4
1,41,104,192
1,34,104,18
1,34,104,48
1,46,104,12
1,41,104,6
1,34,104,22
1,36,104,48
1,38,104,28
1,41,104,0
1,38,104,96
1,41,104,90
1,39,104,52
1,39,104,92
1,51,104,8
1,39,104,4
1,39,104,82
1,51,104,4
1,46,104,42
1,46,84,4
1,39,104,54
1,39,104,34
1,41,104,34
1,46,104,16
1,51,104,26
1,58,104,4
1,51,104,4
1,46,104,4
1,34,104,60
1,34,104,122
1,46,104,8
1,34,104,192
1,46,104,64
1,41,104,192
1,34,104,54
1,34,104,66
1,46,104,42
1,41,104,4
1,34,104,54
1,34,104,88
1,36,104,16
1,38,104,14
1,41,104,96
1,43,104,10
1,36,104,0
1,48,104,118
1,36,104,4
1,36,104,88
1,48,104,0
1,43,104,26
1,36,104,40
1,36,104,96
1,48,104,52
1,43,104,16
1,36,104,46
1,36,104,78
1,48,104,14
1,43,104,4
1,41,104,66
1,41,104,48
1,53,104,192
1,39,104,4
1,39,104,90
1,51,104,4
1,38,104,4
1,38,104,88
1,36,104,12
1,34,104,198
1,34,104,100
1,46,104,42
1,34,104,4
1,34,104,38
1,46,104,4
1,41,104,192
1,34,104,6
1,34,104,74
1,46,104,26
1,41,104,4
1,34,104,40
1,34,104,38
1,34,104,4
1,33,104,4
1,31,104,22
1,31,104,144
1,43,104,28
1,31,104,192
1,31,104,38
1,43,104,4
1,38,104,192
1,31,104,176
1,43,104,70
1,38,104,0
1,31,104,8
1,31,104,84
1,43,104,0
1,38,104,4
1,38,104,78
1,38,104,96
1,50,104,4
1,45,104,4
1,38,104,8
1,38,104,62
1,50,104,192
1,45,104,4
1,36,104,10
1,36,104,30
1,48,104,4
1,43,104,4
1,29,104,8
1,29,104,78
1,41,104,4
1,36,104,4
1,34,104,36
1,34,104,98
1,46,104,44
1,34,104,48
1,38,104,96
1,41,104,2
1,46,104,4
1,50,104,4
1,53,104,8
1,58,104,4
1,50,104,4
1,46,104,4
1,36,104,4
1,36,104,100
1,48,104,4
1,43,104,4
1,29,104,8
1,29,104,78
1,41,104,4
1,36,104,4
1,34,104,36
1,34,104,98
1,46,104,44
1,34,104,48
1,38,104,96
1,41,104,2
1,46,104,4
1,50,104,4
1,53,104,8
1,58,104,4
1,50,104,4
1,46,104,4
1,36,104,4
1,36,104,82
1,48,104,4
1,43,104,4
1,29,104,8
1,29,104,78
1,41,104,4
1,36,104,4
1,34,104,36
1,31,104,4
1,43,104,12
1,31,104,192
1,31,104,94
1,31,104,76
1,43,104,192
1,38,104,4
1,31,104,4
1,31,104,88
1,43,104,192
1,38,104,4
1,31,104,192
1,31,104,72
1,29,104,4
1,34,104,110
1,46,104,4
1,41,104,4
1,34,104,4
1,34,104,90
1,46,104,32
1,41,104,4
1,34,104,192
1,34,104,88
1,46,104,4
1,41,104,192
1,34,104,40
1,34,104,94
1,36,104,4
1,36,104,62
1,31,104,26
1,43,104,12
1,31,104,192
1,31,104,94
1,31,104,76
1,43,104,192
1,38,104,4
1,31,104,4
1,31,104,88
1,43,104,192
1,38,104,4
1,31,104,192
1,31,104,72
1,29,104,4
1,34,104,110
1,46,104,4
1,41,104,4
1,34,104,4
1,34,104,90
1,46,104,32
1,41,104,4
1,34,104,0
1,34,104,0
1,46,104,4
1,41,104,96
1,34,104,40
1,34,104,94
1,36,104,4
1,36,104,62
1,31,104,26
1,43,104,12
1,31,104,192
1,31,104,94
1,31,104,76
1,43,104,0
1,38,104,4
1,31,104,4
1,31,104,88
1,43,104,0
1,38,104,4
1,31,104,96
1,31,104,72
1,29,104,4
1,34,104,0
1,46,104,4
1,41,104,4
1,34,104,0
1,34,104,90
1,46,104,32
1,41,104,4
1,34,104,192
1,34,104,88
1,46,104,4
1,41,104,192
1,34,104,40
1,34,104,94
1,36,104,0
1,36,104,62
1,31,104,26
1,43,104,0
1,31,104,192
1,31,104,94
1,31,104,76
1,43,104,192
1,38,104,4
1,31,104,4
1,31,104,88
1,43,104,96
1,38,104,4
1,31,104,0
1,31,104,72
2,55,95,10
2,58,71,0
2,55,83,192
2,53,86,184
2,50,90,10
2,46,76,4
2,50,83,10
2,53,83,0
2,55,95,16
2,58,68,140
2,55,74,190
2,53,86,174
2,50,83,2
2,46,80,40
2,50,80,6
2,49,58,4
2,48,52,4
2,46,47,4
2,43,80,4
2,43,90,2
2,46,76,16
2,48,74,52
2,48,57,4
2,49,57,4
2,50,74,4
2,53,74,26
2,53,90,64
2,55,83,2
2,53,86,150
2,50,100,6
2,53,90,18
2,50,80,4
2,46,73,6
2,50,80,4
2,49,58,4
2,48,52,4
2,46,47,4
2,43,80,4
2,46,76,200
2,50,80,28
2,53,74,22
2,55,74,4
2,43,80,20
2,55,83,8
2,58,83,72
2,55,83,176
2,53,83,186
2,50,83,14
2,46,83,4
2,50,83,12
2,53,83,148
2,55,83,14
2,58,83,6
2,55,83,192
2,53,83,184
2,50,83,10
2,46,83,36
2,50,83,12
2,48,83,22
2,46,83,20
2,43,83,10
2,46,83,1302
2,48,83,18
2,46,83,24
2,50,83,22
2,53,83,116
2,53,83,198
2,55,83,12
2,50,83,0
2,48,83,142
2,41,83,242
2,43,83,4
2,46,83,4
2,48,83,4
2,46,83,4
2,43,83,4
2,46,83,4
2,50,83,4
2,53,83,88
2,55,83,4
2,58,83,8
2,62,83,22
2,65,83,4
2,67,83,4
2,70,83,96
3,67,112,6
3,70,112,0
3,67,112,0
3,65,112,0
3,62,112,0
3,58,112,0
3,62,112,0
3,65,112,0
3,67,112,1152
3,67,112,96
3,70,112,0
3,67,112,0
3,65,112,0
3,62,112,0
3,58,112,0
3,60,112,0
3,58,112,0
3,62,112,1152
3,62,112,96
3,65,112,0
3,62,112,0
3,60,112,0
3,58,112,0
3,55,112,0
3,62,112,0
3,65,112,0
3,62,112,192
3,63,103,0
3,62,112,0
3,58,95,0
3,60,112,0
3,60,112,96
3,60,112,18
3,62,112,18
3,60,112,96
3,58,112,0
3,55,112,0
3,58,112,0
3,58,112,18
3,67,112,6
3,70,112,0
3,67,112,0
3,65,112,0
3,62,112,0
3,58,112,0
3,62,112,0
3,65,112,0
3,67,112,1152
3,67,112,96
3,70,112,0
3,67,112,0
3,65,112,0
3,62,112,0
3,58,112,0
3,60,112,0
3,58,112,0
3,62,112,1152
3,62,112,96
3,65,112,0
3,62,112,0
3,60,112,0
3,58,112,0
3,55,112,0
3,62,112,0
3,65,112,0
3,62,112,192
3,63,103,0
3,62,112,0
3,58,95,0
3,60,112,0
3,60,112,96
3,60,112,18
3,62,112,18
3,60,112,96
3,58,112,0
3,55,112,0
3,58,112,0
3,58,112,18
3,58,112,1248
3,58,112,96
3,62,112,0
3,65,112,0
3,65,112,96
3,62,112,0
3,67,112,0
3,70,112,0
3,67,112,960
3,67,112,96
3,65,112,0
3,67,112,0
3,65,112,0
3,62,112,0
3,58,112,0
3,60,112,0
3,58,112,0
3,62,112,1152
3,65,112,0
3,67,112,96
3,65,112,0
3,65,112,96
3,62,112,0
3,65,112,96
3,62,112,0
3,64,112,1344
3,64,112,96
3,64,112,96
3,64,112,96
3,65,112,0
3,67,112,0
3,69,112,0
3,67,112,0
3,65,112,0
3,67,112,6
3,70,112,0
3,67,112,0
3,65,112,0
3,62,112,0
3,58,112,0
3,62,112,0
3,65,112,0
3,67,112,1152
3,67,112,96
3,70,112,0
3,67,112,0
3,65,112,0
3,62,112,0
3,58,112,0
3,60,112,0
3,58,112,0
3,62,112,1152
3,62,112,96
3,65,112,0
3,62,112,0
3,60,112,0
3,58,112,0
3,55,112,0
3,62,112,0
3,65,112,0
3,62,112,192
3,63,103,0
3,62,112,0
3,58,95,0
3,60,112,0
3,60,112,96
3,60,112,18
3,62,112,18
3,60,112,96
3,58,112,0
3,55,112,0
3,58,112,0
3,58,112,18
3,58,112,13536
3,58,112,96
3,62,112,0
3,65,112,0
3,65,112,96
3,62,112,0
3,67,112,0
3,70,112,0
3,67,112,960
3,67,112,96
3,65,112,0
3,67,112,0
3,65,112,0
3,62,112,0
3,58,112,0
3,60,112,0
3,58,112,0
3,62,112,1152
3,65,112,0
3,67,112,96
3,65,112,0
3,65,112,96
3,62,112,0
3,65,112,0
3,62,112,0
3,64,112,1344
3,64,112,96
3,64,112,96
3,64,112,96
3,65,112,0
3,67,112,0
3,69,112,0
3,67,112,0
3,65,112,0
3,67,112,6
3,70,112,0
3,67,112,0
3,65,112,0
3,62,112,0
3,58,112,0
3,62,112,0
3,65,112,0
3,67,112,1152
3,67,112,96
3,70,112,0
3,67,112,0
3,65,112,0
3,62,112,0
3,58,112,0
3,60,112,0
3,58,112,0
3,62,112,1152
3,62,112,96
3,65,112,0
3,62,112,0
3,60,112,0
3,58,112,0
3,55,112,0
3,62,112,0
3,65,112,0
3,62,112,192
3,63,103,0
3,62,112,0
3,58,95,0
3,60,112,0
3,60,112,96
3,60,112,18
3,62,112,18
3,60,112,96
3,58,112,0
3,55,112,0
3,58,112,0
3,58,112,18
3,60,112,1056
3,60,112,18
3,62,112,18
3,60,112,96
3,58,112,0
3,55,112,0
3,58,112,0
3,58,112,18
3,65,112,1056
3,65,112,96
3,67,112,0
3,67,112,96
3,69,112,0
3,69,112,96
3,70,112,0
3,70,112,96
3,67,112,96
3,70,112,0
3,67,112,0
3,65,112,0
3,62,112,0
3,60,112,0
3,58,112,0
3,58,102,3648
3,60,102,12
3,58,102,96
3,60,102,16
3,58,102,94
3,60,102,38
3,58,102,192
3,60,102,78
3,62,102,188
3,70,102,1686
3,70,102,64
3,69,102,192
3,69,102,72
3,67,102,192
3,67,102,72
3,65,102,192
3,67,102,22
3,65,102,0
3,70,105,0
3,70,94,50
3,69,81,0
3,69,94,0
3,67,76,2
3,67,87,60
3,65,94,96
3,67,91,0
3,65,74,192
3,70,105,96
3,70,94,50
3,69,81,0
3,69,94,0
3,67,76,2
3,67,87,0
3,65,94,96
3,67,91,0
3,65,74,0
4,65,66,48190
4,69,66,0
4,63,66,4
4,67,66,0
4,65,66,10
4,62,66,0
4,60,66,22
4,65,66,0
4,62,66,4
4,65,66,0
4,74,66,9150
4,70,66,0
4,82,66,96
4,65,66,0
4,72,66,4
4,81,66,0
4,79,66,22
4,70,66,0
4,72,66,4
4,81,66,0
4,70,66,96
4,72,66,4
4,79,66,0
4,82,66,4
4,74,66,0
4,70,66,0
4,81,66,4
4,72,66,0
4,79,66,4
4,70,66,0
4,69,66,4
4,74,66,0
4,77,66,0
4,63,66,4
4,75,66,0
4,72,66,0
4,67,66,0
4,79,66,768
4,81,66,348
4,65,66,4
4,74,66,0
4,82,66,0
4,70,66,0
4,69,66,10610
4,65,66,0
4,67,66,4
4,63,66,0
4,65,66,10
4,62,66,0
4,65,66,22
4,60,66,0
4,65,66,4
4,62,66,0
4,62,66,1470
4,67,66,0
4,74,66,1536
4,70,66,0
