track,note,velocity,time
1,41,98,3072
1,41,105,103
1,41,70,16
1,41,89,52
1,38,100,61
1,38,105,125
1,26,87,480
1,43,105,52
1,43,105,122
1,38,100,7
1,36,98,132
1,36,95,122
1,36,98,128
1,31,72,192
1,41,100,87
1,41,105,125
1,29,87,480
1,38,87,52
1,38,102,119
1,38,102,0
1,43,105,132
1,43,102,112
1,38,102,16
1,36,98,138
1,36,95,122
1,36,98,128
1,31,72,192
1,41,100,87
1,41,105,125
1,29,87,480
1,38,105,52
1,38,105,122
1,45,100,7
1,43,105,132
1,43,105,122
1,38,100,7
1,36,100,132
1,36,102,10
1,36,87,119
1,36,107,135
1,41,105,128
1,41,105,122
1,36,100,7
1,38,100,132
1,38,105,125
1,26,87,480
1,43,98,52
1,43,105,103
1,43,70,16
1,43,89,52
1,36,100,61
1,41,102,10
1,40,87,119
1,36,107,135
1,39,102,128
1,27,89,96
1,39,82,45
1,39,85,112
1,39,89,20
1,39,85,29
1,39,87,112
1,39,100,29
1,39,76,0
1,41,89,87
1,41,95,100
1,41,105,77
1,36,68,192
1,41,100,87
1,42,89,29
1,42,95,100
1,42,105,77
1,36,68,192
1,42,100,87
1,43,87,29
1,43,82,61
1,43,87,42
1,43,107,68
1,40,89,32
1,40,95,100
1,40,105,77
1,35,68,192
1,40,100,87
1,33,89,29
1,33,102,103
1,33,105,52
1,33,87,0
1,38,87,80
1,38,82,61
1,38,87,42
1,38,107,68
1,43,89,32
1,43,95,100
1,43,105,77
1,38,68,192
1,43,100,87
1,40,89,29
1,40,95,100
1,40,105,77
1,35,68,192
1,40,100,87
1,33,89,29
1,33,95,100
1,33,105,77
1,28,68,192
1,33,100,87
1,38,87,29
1,38,82,61
1,38,87,42
1,38,107,68
1,43,87,32
1,43,82,61
1,43,87,42
1,43,107,68
1,40,89,32
1,40,102,103
1,40,105,52
1,40,87,0
1,33,89,80
1,33,95,100
1,33,105,77
1,28,68,192
1,33,100,87
1,38,89,29
1,38,95,100
1,38,105,77
1,33,68,192
1,38,100,87
1,43,87,29
1,43,93,100
1,43,89,77
1,43,87,84
1,43,91,52
1,43,89,71
1,43,89,61
1,31,82,192
1,43,95,164
1,43,89,61
1,43,91,106
1,43,87,71
1,43,87,109
1,43,85,106
1,43,105,128
1,31,72,13
1,36,102,103
1,24,89,96
1,36,82,45
1,36,85,112
1,36,89,20
1,36,85,29
1,36,87,112
1,36,100,29
1,36,76,0
1,43,93,87
1,43,102,106
1,43,95,64
1,31,95,192
1,36,89,55
1,36,95,100
1,36,105,77
1,31,68,192
1,36,100,87
1,41,89,29
1,41,102,103
1,41,105,52
1,41,87,0
1,38,89,80
1,38,95,100
1,38,105,77
1,33,68,192
1,38,100,87
1,43,87,29
1,43,82,61
1,43,87,42
1,43,107,68
1,36,87,32
1,36,82,61
1,36,87,42
1,36,107,68
1,41,89,32
1,41,95,100
1,41,105,77
1,36,68,192
1,41,100,87
1,38,89,29
1,38,95,100
1,38,105,77
1,33,68,192
1,38,100,87
1,43,89,29
1,43,95,100
1,43,105,77
1,38,68,192
1,43,100,87
1,36,89,29
1,36,102,103
1,36,105,52
1,36,87,0
1,41,89,80
1,41,95,100
1,41,105,77
1,36,68,192
1,41,100,87
1,38,89,29
1,38,95,100
1,38,105,77
1,33,68,192
1,38,100,87
1,43,87,29
1,43,82,61
1,43,87,42
1,43,107,68
1,36,87,32
1,36,82,61
1,36,87,42
1,36,107,68
1,41,89,32
1,41,102,103
1,41,105,52
1,41,87,0
1,38,87,80
1,38,82,61
1,38,87,42
1,38,107,68
1,43,93,32
1,43,102,106
1,43,95,64
1,31,95,192
1,36,89,55
1,36,102,103
1,36,105,52
1,36,87,0
1,39,102,80
1,39,89,87
1,39,100,71
1,39,85,90
1,39,100,55
1,39,87,77
1,39,100,42
1,40,102,84
1,41,89,128
1,41,95,100
1,41,105,77
1,36,68,192
1,41,100,87
1,42,89,29
1,42,102,103
1,42,105,52
1,42,87,0
1,43,87,80
1,43,82,61
1,43,87,42
1,43,107,68
1,40,89,32
1,40,95,100
1,40,105,77
1,35,68,192
1,40,100,87
1,33,87,29
1,33,82,61
1,33,87,42
1,33,107,68
1,38,89,32
1,38,102,103
1,38,105,52
1,38,87,0
1,43,89,80
1,43,102,103
1,43,105,52
1,42,87,0
1,40,87,80
1,40,82,61
1,40,87,42
1,40,107,68
1,33,89,32
1,33,102,103
1,33,105,52
1,33,87,0
1,38,89,80
1,38,102,103
1,38,105,52
1,43,87,0
1,43,89,80
1,43,95,100
1,43,105,77
1,38,68,192
1,43,100,87
1,40,89,29
1,40,102,103
1,40,105,52
1,40,87,0
1,33,87,80
1,33,82,61
1,33,87,42
1,33,107,68
1,38,87,32
1,38,82,61
1,38,87,42
1,38,107,68
1,43,98,32
1,43,91,77
1,43,95,48
1,43,95,93
1,43,87,23
1,43,85,74
1,43,102,119
1,43,76,42
1,31,66,16
1,43,102,96
1,43,66,48
1,43,105,116
1,43,80,61
1,43,87,61
1,43,105,122
1,43,91,39
1,43,95,16
1,36,102,68
1,36,89,87
1,36,100,71
1,36,85,90
1,36,100,55
1,36,87,77
1,36,100,42
1,36,102,84
1,43,89,128
1,43,102,103
1,43,105,52
1,38,87,0
1,36,87,80
1,36,82,61
1,36,87,42
1,36,107,68
1,41,87,32
1,41,102,119
1,41,102,0
1,38,105,132
1,38,102,112
1,41,102,16
1,43,87,138
1,43,102,119
1,31,102,0
1,36,100,132
1,41,102,10
1,36,87,119
1,36,107,135
1,41,87,128
1,41,102,119
1,41,102,0
1,38,87,132
1,38,102,119
1,41,102,0
1,43,100,132
1,43,105,125
1,31,87,480
1,36,98,52
1,36,95,122
1,36,98,128
1,31,72,192
1,41,98,87
1,41,105,103
1,41,70,16
1,41,89,52
1,38,98,61
1,38,105,103
1,45,70,16
1,41,89,52
1,43,98,61
1,43,105,103
1,40,70,16
1,34,89,52
1,36,98,61
1,36,95,122
1,36,98,128
1,31,72,192
1,41,100,87
1,41,105,125
1,29,87,480
1,38,105,52
1,38,105,122
1,45,100,7
1,43,98,132
1,43,105,103
1,43,70,16
1,43,89,52
1,36,98,61
1,36,95,122
1,36,98,128
1,31,72,192
1,39,102,87
1,27,89,96
1,39,82,45
1,39,85,112
1,39,89,20
1,39,85,29
1,39,87,112
1,39,100,29
1,39,76,0
1,41,87,87
1,41,82,61
1,41,87,42
1,41,107,68
1,42,89,32
1,42,102,103
1,42,105,52
1,42,87,0
1,43,87,80
1,43,82,61
1,43,87,42
1,43,107,68
1,40,93,32
1,40,102,106
1,40,95,64
1,28,95,192
1,33,89,55
1,33,102,103
1,33,105,52
1,33,87,0
1,38,87,80
1,38,82,61
1,38,87,42
1,38,107,68
1,43,89,32
1,43,102,103
1,43,105,52
1,43,87,0
1,40,89,80
1,40,95,100
1,40,105,77
1,35,68,192
1,40,100,87
1,33,89,29
1,33,95,100
1,33,105,77
1,28,68,192
1,33,100,87
1,38,93,29
1,38,102,106
1,38,95,64
1,26,95,192
1,43,87,55
1,43,82,61
1,43,87,42
1,43,107,68
1,40,89,32
1,40,102,103
1,40,105,52
1,40,87,0
1,33,87,80
1,33,82,61
1,33,87,42
1,33,107,68
1,38,89,32
1,38,102,103
1,38,105,52
1,38,87,0
1,43,102,80
1,31,85,4
1,43,76,96
1,43,105,112
1,43,105,122
1,43,107,36
1,43,107,87
1,43,102,39
1,43,102,112
1,43,102,48
1,31,78,96
1,43,74,0
1,43,102,93
1,43,89,71
1,43,85,90
1,43,102,116
1,43,102,48
1,43,110,87
1,36,102,96
1,36,89,87
1,36,100,71
1,36,85,90
1,36,100,55
1,36,87,77
1,36,100,42
1,36,102,84
1,43,89,128
1,43,95,100
1,43,105,77
1,38,68,192
1,43,100,87
1,36,89,29
1,36,95,100
1,36,105,77
1,31,68,192
1,36,100,87
1,41,82,29
1,41,85,119
1,41,87,192
1,41,82,116
1,38,87,0
1,38,70,112
1,36,78,80
1,36,76,93
1,41,105,93
1,36,60,100
1,38,68,87
1,41,100,0
2,35,90,3072
2,42,90,0
2,49,90,0
2,42,70,112
2,38,100,112
2,42,100,0
2,35,80,112
2,42,70,0
2,35,100,112
2,42,90,0
2,42,70,112
2,38,100,112
2,42,100,0
2,35,70,112
2,42,70,0
2,35,100,112
2,48,100,0
2,54,100,0
2,70,100,0
2,48,70,16
2,35,90,16
2,48,100,0
2,54,70,0
2,69,80,0
2,48,70,16
2,38,100,16
2,54,127,0
2,70,100,0
2,35,100,16
2,48,100,0
2,54,90,16
2,69,80,0
2,35,100,16
2,45,100,0
2,54,100,16
2,70,100,0
2,45,70,16
2,45,100,16
2,54,70,0
2,69,80,0
2,45,115,16
2,35,90,16
2,38,100,0
2,54,127,0
2,70,100,0
2,41,90,16
2,41,115,16
2,54,90,0
2,69,80,0
2,41,70,16
2,35,90,16
2,42,90,0
2,49,90,0
2,42,70,112
2,38,100,112
2,42,100,0
2,35,80,112
2,42,70,0
2,35,100,112
2,42,90,0
2,42,70,112
2,38,100,112
2,42,100,0
2,35,70,112
2,42,70,0
2,35,100,112
2,42,90,0
2,35,90,112
2,42,70,0
2,38,115,112
2,46,100,0
2,35,100,112
2,38,127,112
2,38,90,16
2,38,115,16
2,38,90,16
2,38,115,16
2,38,100,112
2,35,90,112
2,42,90,0
2,49,90,0
2,42,70,112
2,38,100,112
2,42,100,0
2,35,80,112
2,42,70,0
2,35,100,112
2,42,90,0
2,42,70,112
2,38,100,112
2,42,100,0
2,35,70,112
2,42,70,0
2,35,100,112
2,42,90,0
2,35,90,112
2,42,70,0
2,38,100,112
2,38,70,16
2,38,115,16
2,35,90,16
2,49,70,0
2,35,100,112
2,49,115,0
2,38,100,16
2,38,115,112
2,38,100,112
2,38,115,16
2,35,90,16
2,42,90,0
2,49,90,0
2,42,70,112
2,38,100,112
2,42,100,0
2,35,80,112
2,42,70,0
2,35,100,112
2,42,90,0
2,42,70,112
2,38,100,112
2,42,100,0
2,35,70,112
2,42,70,0
2,35,100,112
2,42,90,0
2,54,100,0
2,70,100,0
2,35,90,112
2,42,70,0
2,54,70,0
2,69,80,0
2,38,100,112
2,42,100,0
2,41,50,0
2,54,127,0
2,70,100,0
2,35,70,112
2,38,50,0
2,42,70,0
2,41,70,0
2,54,90,0
2,69,80,0
2,35,100,112
2,38,80,0
2,42,90,0
2,41,80,0
2,54,100,0
2,70,100,0
2,35,90,112
2,38,100,0
2,42,70,0
2,41,90,0
2,54,70,0
2,69,80,0
2,38,115,112
2,42,100,0
2,41,100,0
2,54,127,0
2,70,100,0
2,35,75,112
2,38,127,0
2,42,70,0
2,41,115,0
2,54,90,0
2,69,80,0
2,35,100,112
2,42,90,0
2,49,90,0
2,54,100,0
2,70,100,0
2,35,90,112
2,42,70,0
2,54,70,0
2,70,60,0
2,69,80,0
2,38,100,112
2,42,100,0
2,54,127,0
2,70,100,0
2,35,70,112
2,42,70,0
2,54,90,0
2,70,60,0
2,69,80,0
2,35,100,112
2,42,90,0
2,54,100,0
2,70,100,0
2,35,90,112
2,42,70,0
2,54,70,0
2,70,60,0
2,69,80,0
2,38,100,112
2,42,100,0
2,54,127,0
2,70,100,0
2,35,75,112
2,42,70,0
2,54,90,0
2,70,60,0
2,69,80,0
2,35,100,112
2,42,90,0
2,35,90,112
2,42,70,0
2,38,115,112
2,46,100,0
2,35,100,112
2,38,127,112
2,35,100,112
2,38,115,112
2,35,100,112
2,35,100,112
2,42,90,0
2,49,90,0
2,54,100,0
2,70,100,0
2,35,90,112
2,42,70,0
2,54,70,0
2,70,60,0
2,69,80,0
2,38,100,112
2,42,100,0
2,54,127,0
2,70,100,0
2,35,70,112
2,42,70,0
2,54,90,0
2,70,60,0
2,69,80,0
2,35,100,112
2,42,90,0
2,54,100,0
2,70,100,0
2,35,90,112
2,42,70,0
2,54,70,0
2,70,60,0
2,69,80,0
2,38,100,112
2,42,100,0
2,54,127,0
2,70,100,0
2,35,75,112
2,42,70,0
2,54,90,0
2,70,60,0
2,69,80,0
2,35,100,112
2,42,90,0
2,35,90,112
2,42,70,0
2,38,115,112
2,46,100,0
2,35,100,112
2,38,127,112
2,35,100,112
2,38,115,112
2,35,100,112
2,35,100,112
2,42,90,0
2,49,90,0
2,54,100,0
2,70,100,0
2,35,90,112
2,42,70,0
2,54,70,0
2,70,60,0
2,69,80,0
2,38,100,112
2,42,100,0
2,54,127,0
2,70,100,0
2,35,70,112
2,42,70,0
2,54,90,0
2,70,60,0
2,69,80,0
2,35,100,112
2,42,90,0
2,54,100,0
2,70,100,0
2,35,90,112
2,42,70,0
2,54,70,0
2,70,60,0
2,69,80,0
2,38,100,112
2,42,100,0
2,54,127,0
2,70,100,0
2,35,75,112
2,42,70,0
2,54,90,0
2,70,60,0
2,69,80,0
2,35,100,112
2,42,90,0
2,35,90,112
2,42,70,0
2,38,115,112
2,46,100,0
2,35,100,112
2,38,127,112
2,35,100,112
2,38,115,112
2,35,100,112
2,35,100,112
2,42,90,0
2,49,90,0
2,54,100,0
2,70,100,0
2,35,90,112
2,42,70,0
2,54,70,0
2,70,60,0
2,69,80,0
2,38,100,112
2,42,100,0
2,54,127,0
2,70,100,0
2,35,70,112
2,42,70,0
2,54,90,0
2,70,60,0
2,69,80,0
2,35,100,112
2,42,90,0
2,54,100,0
2,70,100,0
2,35,90,112
2,42,70,0
2,54,70,0
2,70,60,0
2,69,80,0
2,38,100,112
2,42,100,0
2,54,127,0
2,70,100,0
2,35,75,112
2,42,70,0
2,54,90,0
2,70,60,0
2,69,80,0
2,35,100,112
2,42,90,0
2,35,90,112
2,42,70,0
2,38,115,112
2,46,100,0
2,35,100,112
2,38,127,112
2,35,100,112
2,38,115,112
2,35,100,112
2,35,100,112
2,42,90,0
2,49,90,0
2,54,100,0
2,70,100,0
2,35,90,112
2,42,70,0
2,54,70,0
2,70,60,0
2,69,80,0
2,38,100,112
2,42,100,0
2,54,127,0
2,70,100,0
2,35,70,112
2,42,70,0
2,54,90,0
2,70,60,0
2,69,80,0
2,35,100,112
2,42,90,0
2,54,100,0
2,70,100,0
2,35,90,112
2,42,70,0
2,54,70,0
2,70,60,0
2,69,80,0
2,38,100,112
2,42,100,0
2,54,127,0
2,70,100,0
2,35,75,112
2,42,70,0
2,54,90,0
2,70,60,0
2,69,80,0
2,35,100,112
2,42,90,0
2,54,100,0
2,70,100,0
2,35,90,112
2,42,70,0
2,54,70,0
2,70,60,0
2,69,80,0
2,38,100,112
2,42,100,0
2,54,127,0
2,70,100,0
2,35,70,112
2,42,70,0
2,54,90,0
2,70,60,0
2,69,80,0
2,35,100,112
2,42,90,0
2,54,100,0
2,70,100,0
2,35,90,112
2,42,70,0
2,54,70,0
2,70,60,0
2,69,80,0
2,38,100,112
2,42,100,0
2,54,127,0
2,70,100,0
2,35,75,112
2,42,70,0
2,54,90,0
2,70,60,0
2,69,80,0
2,35,100,112
2,42,90,0
2,54,100,0
2,70,100,0
2,35,90,112
2,42,70,0
2,54,70,0
2,70,60,0
2,69,80,0
2,38,100,112
2,42,100,0
2,54,127,0
2,70,100,0
2,35,70,112
2,42,70,0
2,54,90,0
2,70,60,0
2,69,80,0
2,35,100,112
2,42,90,0
2,54,100,0
2,70,100,0
2,35,90,112
2,42,70,0
2,54,70,0
2,70,60,0
2,69,80,0
2,38,100,112
2,42,100,0
2,54,127,0
2,70,100,0
2,35,75,112
2,42,70,0
2,54,90,0
2,70,60,0
2,69,80,0
2,46,100,16
2,35,100,16
2,42,90,0
2,35,90,112
2,42,70,0
2,38,115,112
2,46,100,0
2,35,100,112
2,38,127,112
2,38,90,16
2,38,115,16
2,38,90,16
2,38,115,16
2,38,100,112
2,35,100,112
2,42,90,0
2,49,90,0
2,54,100,0
2,70,100,0
2,35,90,112
2,42,70,0
2,54,70,0
2,70,60,0
2,69,80,0
2,38,100,112
2,42,100,0
2,54,127,0
2,70,100,0
2,35,70,112
2,42,70,0
2,54,90,0
2,70,60,0
