track,note,velocity,time
0,36,93,69
0,39,64,0
0,56,66,0
0,36,0,4
0,39,0,0
0,56,0,0
0,39,63,92
0,42,72,0
0,39,0,4
0,42,0,0
0,36,94,92
0,38,82,0
0,56,66,0
0,36,0,4
0,38,0,0
0,56,0,0
0,42,84,92
0,42,0,4
0,39,60,44
0,39,0,4
0,36,94,44
0,39,62,0
0,56,65,0
0,36,0,4
0,39,0,0
0,56,0,0
0,39,67,92
0,42,84,0
0,39,0,4
0,42,0,0
0,36,94,92
0,38,82,0
0,39,57,0
0,56,66,0
0,87,101,0
0,36,0,4
0,38,0,0
0,39,0,0
0,56,0,0
0,87,0,0
0,46,65,92
0,46,0,4
0,36,93,92
0,39,64,0
0,42,42,0
0,56,65,0
0,36,0,4
0,39,0,0
0,42,0,0
0,56,0,0
0,39,63,92
0,42,84,0
0,39,0,4
0,42,0,0
0,36,94,92
0,38,82,0
0,56,66,0
0,36,0,4
0,38,0,0
0,56,0,0
0,42,92,92
0,42,0,4
0,39,60,44
0,39,0,4
0,36,94,44
0,39,62,0
0,56,65,0
0,36,0,4
0,39,0,0
0,56,0,0
0,39,67,92
0,42,87,0
0,39,0,4
0,42,0,0
0,36,94,92
0,38,82,0
0,39,57,0
0,56,66,0
0,69,80,0
0,87,101,0
0,36,0,4
0,38,0,0
0,39,0,0
0,56,0,0
0,87,0,0
0,69,0,37
0,46,65,35
0,72,80,0
0,46,0,4
0,72,0,32
0,36,93,60
0,39,64,0
0,41,101,0
0,42,68,0
0,56,66,0
0,74,88,0
0,36,0,4
0,39,0,0
0,42,0,0
0,56,0,0
0,42,34,44
0,42,0,4
0,74,0,4
0,39,63,40
0,42,52,0
0,53,77,0
0,57,77,0
0,60,78,0
0,39,0,4
0,42,0,0
0,53,0,29
0,57,0,2
0,60,0,6
0,42,30,7
0,72,84,0
0,42,0,4
0,72,0,37
0,41,0,4
0,36,100,3
0,36,94,0
0,38,82,0
0,42,65,0
0,56,66,0
0,36,0,4
0,38,0,0
0,42,0,0
0,56,0,0
0,42,30,44
0,42,0,4
0,36,0,40
0,38,102,4
0,42,60,0
0,53,77,0
0,57,77,0
0,60,77,0
0,69,80,0
0,42,0,4
0,69,0,23
0,69,74,5
0,57,0,10
0,60,0,0
0,53,0,1
0,39,60,5
0,42,30,0
0,39,0,4
0,42,0,0
0,69,0,7
0,69,80,5
0,69,0,27
0,38,0,2
0,36,94,3
0,39,62,0
0,41,99,0
0,42,76,0
0,56,65,0
0,69,64,0
0,36,0,4
0,39,0,0
0,42,0,0
0,56,0,0
0,69,0,23
0,69,63,5
0,42,30,16
0,42,0,4
0,69,0,7
0,69,59,5
0,69,0,27
0,39,67,5
0,42,56,0
0,53,78,0
0,57,77,0
0,60,78,0
0,65,104,0
0,69,57,0
0,69,104,0
0,72,104,0
0,39,0,4
0,42,0,0
0,69,0,23
0,69,53,5
0,57,0,8
0,60,0,2
0,42,30,6
0,53,0,1
0,42,0,3
0,69,0,7
0,69,52,5
0,69,0,27
0,41,0,2
0,36,101,3
0,36,94,0
0,38,82,0
0,39,57,0
0,42,68,0
0,56,66,0
0,69,48,0
0,87,101,0
0,36,0,4
0,38,0,0
0,39,0,0
0,42,0,0
0,56,0,0
0,87,0,0
0,69,0,23
0,69,49,5
0,65,0,12
0,69,0,0
0,72,0,0
0,42,30,4
0,42,0,4
0,69,0,7
0,69,47,5
0,69,0,27
0,36,0,2
0,38,102,3
0,46,59,0
0,53,77,0
0,57,77,0
0,60,77,0
0,77,72,0
0,46,0,4
0,57,0,33
0,53,0,3
0,60,0,0
0,77,0,5
0,38,0,48
0,36,93,3
0,39,64,0
0,41,100,0
0,42,68,0
0,56,65,0
0,77,72,0
0,36,0,4
0,39,0,0
0,42,0,0
0,56,0,0
0,77,0,41
0,42,34,3
0,76,72,0
0,42,0,4
0,76,0,41
0,39,63,3
0,42,52,0
0,53,77,0
0,57,77,0
0,60,78,0
0,39,0,4
0,42,0,0
0,53,0,41
0,57,0,0
0,60,0,0
0,42,30,3
0,53,78,0
0,57,78,0
0,60,78,0
0,76,72,0
0,42,0,4
0,41,0,37
0,53,0,1
0,57,0,0
0,60,0,0
0,36,102,6
0,36,94,0
0,38,82,0
0,42,65,0
0,56,66,0
0,36,0,4
0,38,0,0
0,42,0,0
0,56,0,0
0,76,0,36
0,42,30,8
0,42,0,4
0,36,0,37
0,38,102,7
0,42,60,0
0,53,77,0
0,57,77,0
0,60,77,0
0,74,72,0
0,42,0,4
0,57,0,33
0,60,0,4
0,53,0,4
0,74,0,0
0,39,60,3
0,42,30,0
0,39,0,4
0,42,0,0
0,38,0,41
0,36,94,3
0,39,62,0
0,41,102,0
0,42,76,0
0,56,65,0
0,74,72,0
0,36,0,4
0,39,0,0
0,42,0,0
0,56,0,0
0,74,0,41
0,42,30,3
0,42,0,4
0,39,67,44
0,42,56,0
0,53,77,0
0,57,77,0
0,60,78,0
0,72,72,0
0,39,0,4
0,42,0,0
0,57,0,32
0,60,0,5
0,53,0,3
0,72,0,1
0,42,30,3
0,42,0,4
0,41,0,41
0,36,100,3
0,36,94,0
0,38,82,0
0,39,57,0
0,42,68,0
0,56,66,0
0,69,72,0
0,36,0,4
0,38,0,0
0,39,0,0
0,42,0,0
0,56,0,0
0,69,0,41
0,42,30,3
0,42,0,4
0,46,59,44
0,53,78,0
0,57,77,0
0,60,78,0
0,72,72,0
0,46,0,4
0,57,0,37
0,60,0,4
0,72,0,0
0,53,0,5
0,36,0,32
0,36,93,14
0,38,102,0
0,39,64,0
0,42,68,0
0,56,66,0
0,74,88,0
0,36,0,4
0,39,0,0
0,42,0,0
0,56,0,0
0,42,34,44
0,42,0,4
0,74,0,4
0,39,63,40
0,42,52,0
0,53,77,0
0,57,77,0
0,62,78,0
0,39,0,4
0,42,0,0
0,57,0,33
0,62,0,5
0,53,0,2
0,42,30,4
0,72,84,0
0,42,0,4
0,72,0,37
0,38,0,4
0,33,102,3
0,36,94,0
0,38,82,0
0,42,65,0
0,56,66,0
0,36,0,4
0,38,0,0
0,42,0,0
0,56,0,0
0,42,30,44
0,42,0,4
0,33,0,41
0,36,101,3
0,42,60,0
0,53,77,0
0,57,77,0
0,62,78,0
0,69,80,0
0,42,0,4
0,69,0,23
0,69,74,5
0,57,0,3
0,62,0,5
0,53,0,2
0,39,60,6
0,42,30,0
0,39,0,4
0,42,0,0
0,69,0,7
0,69,80,5
0,69,0,27
0,36,0,2
0,36,94,3
0,38,101,0
0,39,62,0
0,42,76,0
0,56,65,0
0,69,64,0
0,36,0,4
0,39,0,0
0,42,0,0
0,56,0,0
0,69,0,23
0,69,63,5
0,42,30,16
0,42,0,4
0,69,0,7
0,69,59,5
0,69,0,27
0,39,67,5
0,42,56,0
0,53,77,0
0,57,78,0
0,62,78,0
0,65,104,0
0,69,57,0
0,69,105,0
0,74,106,0
0,39,0,4
0,42,0,0
0,69,0,23
0,69,53,5
0,62,0,6
0,57,0,1
0,53,0,4
0,42,30,5
0,42,0,4
0,69,0,7
0,69,52,5
0,69,0,27
0,38,0,2
0,33,101,3
0,36,94,0
0,38,82,0
0,39,57,0
0,42,68,0
0,56,66,0
0,69,48,0
0,87,101,0
0,36,0,4
0,38,0,0
0,39,0,0
0,42,0,0
0,56,0,0
0,87,0,0
0,69,0,23
0,69,49,5
0,65,0,12
0,69,0,0
0,74,0,0
0,42,30,4
0,42,0,4
0,69,0,7
0,69,47,5
0,69,0,27
0,33,0,2
0,36,101,3
0,46,59,0
0,53,77,0
0,57,77,0
0,62,77,0
0,46,0,4
0,57,0,32
0,62,0,0
0,53,0,5
0,36,0,51
0,36,93,4
0,38,102,0
0,39,64,0
0,42,68,0
0,56,65,0
0,36,0,4
0,39,0,0
0,42,0,0
0,56,0,0
0,42,34,44
0,42,0,4
0,39,63,44
0,42,52,0
0,53,77,0
0,57,77,0
0,62,78,0
0,65,100,0
0,69,99,0
0,74,102,0
0,39,0,4
0,42,0,0
0,65,0,18
0,69,0,0
0,74,0,0
0,57,0,9
0,62,0,8
0,53,0,2
0,42,30,7
0,53,78,0
0,57,78,0
0,62,78,0
0,42,0,4
0,53,0,38
0,57,0,0
0,62,0,0
0,38,0,1
0,33,102,5
0,36,94,0
0,38,82,0
0,42,65,0
0,56,66,0
0,36,0,4
0,38,0,0
0,42,0,0
0,56,0,0
0,42,30,44
0,65,100,0
0,69,101,0
0,74,102,0
0,42,0,4
0,65,0,18
0,69,0,0
0,74,0,0
0,33,0,23
0,36,102,3
0,42,60,0
0,53,77,0
0,57,78,0
0,62,78,0
0,42,0,4
0,57,0,31
0,53,0,4
0,62,0,1
0,39,60,8
0,42,30,0
0,39,0,4
0,42,0,0
0,36,0,41
0,36,94,3
0,38,103,0
0,39,62,0
0,42,76,0
0,56,65,0
0,65,100,0
0,69,102,0
0,74,103,0
0,36,0,4
0,39,0,0
0,42,0,0
0,56,0,0
0,65,0,18
0,69,0,0
0,74,0,0
0,42,30,26
0,42,0,4
0,39,67,44
0,42,56,0
0,53,77,0
0,57,77,0
0,62,78,0
0,69,84,0
0,39,0,4
0,42,0,0
0,57,0,27
0,53,0,9
0,62,0,0
0,69,0,7
0,42,30,1
0,42,0,4
0,38,0,41
0,33,104,3
0,36,94,0
0,38,82,0
0,39,57,0
0,42,68,0
0,56,66,0
0,67,76,0
0,36,0,4
0,38,0,0
0,39,0,0
0,42,0,0
0,56,0,0
0,67,0,37
0,42,30,7
0,42,0,4
0,46,59,44
0,53,77,0
0,57,78,0
0,62,78,0
0,65,68,0
0,46,0,4
0,57,0,30
0,53,0,5
0,62,0,0
0,65,0,0
0,33,0,54
0,36,93,3
0,39,64,0
0,42,68,0
0,43,103,0
0,56,66,0
0,67,88,0
0,36,0,4
0,39,0,0
0,42,0,0
0,56,0,0
0,42,34,44
0,42,0,4
0,67,0,4
0,39,63,40
0,42,52,0
0,55,77,0
0,58,77,0
0,62,78,0
0,39,0,4
0,42,0,0
0,58,0,31
0,55,0,5
0,62,0,1
0,42,30,7
0,69,84,0
0,42,0,4
0,69,0,37
0,43,0,4
0,36,94,3
0,38,104,0
0,38,82,0
0,42,65,0
0,56,66,0
0,36,0,4
0,38,0,0
0,42,0,0
0,56,0,0
0,42,30,44
0,42,0,4
0,38,0,33
0,41,102,11
0,42,60,0
0,55,78,0
0,58,78,0
0,62,78,0
0,67,80,0
0,42,0,4
0,67,0,23
0,67,74,5
0,58,0,6
0,62,0,0
0,55,0,7
0,39,60,3
0,42,30,0
0,39,0,4
0,42,0,0
0,67,0,7
0,67,80,5
0,67,0,27
0,41,0,2
0,36,94,3
0,39,62,0
0,42,76,0
0,43,102,0
0,56,65,0
0,67,64,0
0,36,0,4
0,39,0,0
0,42,0,0
0,56,0,0
0,67,0,23
0,67,63,5
0,42,30,16
0,42,0,4
0,67,0,7
0,67,59,5
0,67,0,27
0,39,67,5
0,42,56,0
0,55,78,0
0,58,78,0
0,62,78,0
0,67,57,0
0,70,99,0
0,74,101,1
0,79,101,0
0,39,0,3
0,42,0,0
0,67,0,23
0,67,53,5
0,58,0,3
0,55,0,5
0,62,0,0
0,42,30,8
0,42,0,4
0,67,0,7
0,67,52,5
0,67,0,27
0,43,0,2
0,36,94,3
0,38,103,0
0,38,82,0
0,39,57,0
0,42,68,0
0,56,66,0
0,67,48,0
0,87,101,0
0,36,0,4
0,38,0,0
0,39,0,0
0,42,0,0
0,56,0,0
0,87,0,0
0,67,0,23
0,67,49,5
0,70,0,4
0,74,0,1
0,79,0,0
0,42,30,11
0,42,0,4
0,67,0,7
0,67,47,5
0,38,0,14
0,67,0,13
0,41,101,5
0,46,59,0
0,55,77,0
0,58,78,0
0,62,78,0
0,46,0,4
0,55,0,36
0,58,0,1
0,62,0,0
0,41,0,52
0,36,93,3
0,39,64,0
0,42,68,0
0,43,103,0
0,56,65,0
0,36,0,4
0,39,0,0
0,42,0,0
0,56,0,0
0,42,34,44
0,42,0,4
0,39,63,44
0,42,52,0
0,55,77,0
0,58,78,0
0,62,78,0
0,39,0,4
0,42,0,0
0,55,0,41
0,58,0,0
0,62,0,0
0,42,30,3
0,55,77,0
0,58,77,0
0,62,77,0
0,42,0,4
0,43,0,41
0,55,0,0
0,58,0,0
0,62,0,0
0,36,94,3
0,38,104,0
0,38,82,0
0,42,65,0
0,56,66,0
0,36,0,4
0,38,0,0
0,42,0,0
0,56,0,0
0,42,30,44
0,42,0,4
0,38,0,19
0,41,102,25
0,42,60,0
0,55,77,0
0,58,78,0
0,62,78,0
0,67,80,0
0,42,0,4
0,55,0,36
0,58,0,2
0,62,0,2
0,67,0,1
0,39,60,3
0,42,30,0
0,39,0,4
0,42,0,0
0,41,0,41
0,36,94,3
0,39,62,0
0,42,76,0
0,43,102,0
0,56,65,0
0,69,80,0
0,36,0,4
0,39,0,0
0,42,0,0
0,56,0,0
0,42,30,44
0,69,0,0
0,42,0,4
0,39,67,44
0,42,56,0
0,55,77,0
0,58,78,0
0,62,78,0
0,67,72,0
0,39,0,4
0,42,0,0
0,55,0,33
0,67,0,0
0,58,0,4
0,62,0,1
0,42,30,6
0,42,0,4
0,43,0,41
0,36,94,3
0,38,104,0
0,38,82,0
0,39,57,0
0,42,68,0
0,56,66,0
0,67,72,0
0,36,0,4
0,38,0,0
0,39,0,0
0,42,0,0
0,56,0,0
0,67,0,37
0,42,30,7
0,42,0,4
0,46,59,44
0,55,77,0
0,58,77,0
0,62,78,0
0,65,60,0
0,46,0,4
0,58,0,36
0,55,0,1
0,65,0,2
0,62,0,8
0,38,0,42
0,36,93,3
0,39,105,0
0,39,64,0
0,42,68,0
0,56,66,0
0,67,88,0
0,36,0,4
0,39,0,0
0,42,0,0
0,56,0,0
0,42,34,44
0,42,0,4
0,67,0,4
0,39,63,40
0,42,52,0
0,55,77,0
0,58,78,0
0,63,78,0
0,67,96,0
0,70,98,0
0,75,98,0
0,39,0,4
0,42,0,0
0,75,0,16
0,67,0,1
0,70,0,1
0,58,0,13
0,55,0,3
0,63,0,6
0,42,30,4
0,67,97,0
0,69,84,0
0,70,96,0
0,75,97,0
0,42,0,4
0,75,0,14
0,67,0,3
0,70,0,0
0,69,0,20
0,39,0,4
0,34,99,3
0,36,94,0
0,38,82,0
0,42,65,0
0,56,66,0
0,36,0,4
0,38,0,0
0,42,0,0
0,56,0,0
0,42,30,44
0,42,0,4
0,34,0,28
0,36,101,16
0,42,60,0
0,55,77,0
0,58,78,0
0,63,77,0
0,67,80,0
0,42,0,4
0,67,0,23
0,67,74,5
0,58,0,7
0,55,0,5
0,63,0,0
0,39,60,4
0,42,30,0
0,39,0,4
0,42,0,0
0,67,0,7
0,67,80,5
0,36,0,22
0,67,0,5
0,36,94,5
0,39,102,0
0,39,62,0
0,42,76,0
0,56,65,0
0,67,64,0
0,36,0,4
0,39,0,0
0,42,0,0
0,56,0,0
0,67,0,23
0,67,63,5
0,42,30,16
0,42,0,4
0,67,0,7
0,67,59,5
0,67,0,27
0,39,67,5
0,42,56,0
0,55,77,0
0,58,78,0
0,63,78,0
0,63,103,0
0,67,57,0
0,67,104,0
0,70,104,0
0,39,0,4
0,42,0,0
0,67,0,23
0,67,53,5
0,58,0,10
0,42,30,6
0,55,0,0
0,63,0,3
0,42,0,1
0,67,0,7
0,67,52,5
0,39,0,21
0,67,0,6
0,34,98,5
0,36,94,0
0,38,82,0
0,39,57,0
0,42,68,0
0,56,66,0
0,67,48,0
0,87,101,0
0,36,0,4
0,38,0,0
0,39,0,0
0,42,0,0
0,56,0,0
0,87,0,0
0,67,0,23
0,67,49,5
0,63,0,13
0,67,0,0
0,70,0,0
0,42,30,3
0,42,0,4
0,67,0,7
0,67,47,5
0,34,0,2
0,67,0,25
0,39,101,5
0,46,59,0
0,55,77,0
0,58,78,0
0,63,77,0
0,46,0,4
0,63,0,40
0,58,0,5
0,55,0,6
0,39,0,38
0,36,105,3
0,36,93,0
0,39,64,0
0,42,68,0
