track,note,velocity,time
1,67,122,3854
1,71,122,0
1,69,122,60
1,72,122,0
1,71,122,44
1,74,122,0
1,71,122,28
1,74,122,0
1,69,122,28
1,72,122,0
1,67,122,14
1,71,122,0
1,67,122,28
1,71,122,0
1,67,122,28
1,71,122,0
1,65,122,28
1,69,122,0
1,64,122,44
1,67,122,0
1,64,122,28
1,60,122,16
1,67,122,348
1,76,122,0
1,67,122,44
1,76,122,0
1,67,122,44
1,76,122,0
1,67,122,62
1,76,122,0
1,74,122,28
1,66,122,16
1,64,122,172
1,72,122,0
1,64,122,44
1,72,122,0
1,62,122,28
1,71,122,0
1,61,122,28
1,70,122,0
1,63,122,16
1,62,122,28
1,71,122,2
1,67,122,188
1,71,122,0
1,69,122,44
1,72,122,0
1,71,122,44
1,74,122,0
1,71,122,28
1,74,122,0
1,69,122,28
1,72,122,16
1,67,122,28
1,71,122,0
1,67,122,44
1,71,122,0
1,67,122,44
1,71,122,0
1,65,122,28
1,69,122,0
1,67,122,60
1,64,122,2
1,60,122,28
1,64,122,0
1,67,122,284
1,76,122,0
1,67,122,44
1,76,122,0
1,67,122,44
1,76,122,0
1,67,122,60
1,76,122,2
1,74,122,60
1,66,122,16
1,64,122,60
1,72,122,0
1,64,122,44
1,72,122,16
1,64,122,44
1,72,122,0
1,60,122,28
1,66,122,0
1,67,122,46
1,59,122,14
1,62,122,1852
1,67,122,162
1,67,122,60
1,67,122,76
1,67,122,92
1,62,122,284
1,69,122,176
1,69,122,76
1,69,122,108
1,69,122,108
1,71,122,368
1,72,122,188
1,71,122,332
1,62,122,412
1,67,122,176
1,67,122,68
1,67,122,92
1,67,122,108
1,62,122,12
1,69,122,12
1,69,122,72
1,69,122,92
1,69,122,92
1,71,122,368
1,72,122,168
1,71,122,348
1,64,122,1500
1,72,122,0
1,71,122,12
1,64,122,46
1,72,122,0
1,72,122,44
1,64,122,12
1,66,122,18
1,74,122,0
1,72,122,12
1,64,122,8
1,66,122,12
1,74,122,0
1,64,122,12
1,72,122,0
1,63,122,556
1,72,122,0
1,63,122,60
1,72,122,0
1,72,122,44
1,63,122,16
1,65,122,352
1,74,122,8
1,63,122,12
1,72,122,0
1,65,122,352
1,74,122,0
1,72,122,44
1,63,122,12
1,62,122,12
1,71,122,16
1,62,122,252
1,71,122,0
1,62,122,30
1,71,122,0
1,64,122,44
1,72,122,12
1,71,122,28
1,62,122,16
1,60,122,44
1,69,122,0
1,60,122,268
1,69,122,0
1,60,122,44
1,69,122,0
1,62,122,60
1,71,122,0
1,60,122,28
1,69,122,0
1,59,122,60
1,67,122,0
1,71,122,1246
1,67,122,4
1,69,122,248
1,72,122,0
1,71,122,12
1,74,122,8
1,72,122,8
1,74,122,28
1,71,122,12
1,72,122,12
1,69,122,4
1,71,122,8
1,67,122,26
1,71,122,0
1,67,122,28
1,71,122,0
1,67,122,30
1,71,122,0
1,65,122,12
1,69,122,0
1,64,122,36
1,67,122,0
1,60,122,12
1,64,122,0
1,76,122,268
1,67,122,4
1,67,122,44
1,76,122,0
1,76,122,28
1,67,122,4
1,67,122,44
1,76,122,0
1,74,122,60
1,66,122,16
1,64,122,28
1,72,122,0
1,64,122,34
1,72,122,0
1,71,122,28
1,62,122,16
1,70,122,76
1,61,122,12
1,62,122,12
1,71,122,0
1,67,122,172
1,71,122,16
1,69,122,44
1,72,122,0
1,71,122,44
1,74,122,0
1,71,122,34
1,74,122,0
1,72,122,12
1,69,122,16
1,71,122,0
1,67,122,12
1,71,122,0
1,71,122,36
1,67,122,4
1,67,122,28
1,71,122,0
1,65,122,12
1,69,122,0
1,67,122,40
1,64,122,4
1,60,122,12
1,64,122,0
1,67,122,284
1,76,122,0
1,67,122,32
1,76,122,0
1,67,122,44
1,76,122,0
1,76,122,44
1,67,122,2
1,74,122,60
1,66,122,12
1,64,122,12
1,72,122,16
1,72,122,28
1,64,122,18
1,64,122,44
1,72,122,0
1,60,122,12
1,66,122,0
1,59,122,46
1,67,122,0
1,62,122,1740
1,67,122,178
1,67,122,76
1,67,122,92
1,67,122,108
1,62,122,768
1,69,122,28
1,69,122,44
1,69,122,76
1,69,122,76
1,71,122,384
1,72,122,188
1,71,122,348
1,62,122,476
1,67,122,28
1,67,122,76
1,67,122,76
1,67,122,92
1,62,122,784
1,69,122,172
1,69,122,60
1,69,122,76
1,69,122,76
1,71,122,28
1,72,122,208
1,71,122,318
1,64,122,1484
1,72,122,0
1,72,122,44
1,64,122,16
1,72,122,28
1,64,122,16
1,66,122,352
1,74,122,32
1,72,122,332
1,64,122,16
1,66,122,188
1,74,122,16
1,64,122,12
1,72,122,0
1,63,122,156
1,72,122,0
1,63,122,46
1,72,122,0
1,63,122,44
1,72,122,0
1,65,122,352
1,74,122,16
1,63,122,348
1,72,122,0
1,65,122,364
1,74,122,16
1,72,122,28
1,63,122,8
1,62,122,14
1,71,122,0
1,62,122,44
1,71,122,0
1,64,122,60
1,72,122,0
1,71,122,28
1,62,122,12
1,60,122,60
1,69,122,0
1,69,122,188
1,60,122,12
1,60,122,30
1,69,122,0
1,62,122,44
1,71,122,12
1,69,122,28
1,60,122,12
1,59,122,12
1,67,122,0
1,71,122,1276
1,67,122,8
1,69,122,264
1,72,122,0
1,71,122,268
1,74,122,0
1,71,122,44
1,74,122,0
1,69,122,384
1,72,122,0
1,67,122,172
1,71,122,0
1,67,122,28
1,71,122,16
1,67,122,44
1,71,122,0
1,65,122,368
1,69,122,0
1,64,122,60
1,67,122,0
1,64,122,12
1,60,122,2
1,67,122,316
1,76,122,0
1,67,122,38
1,76,122,0
1,67,122,44
1,76,122,0
1,76,122,44
1,67,122,2
1,74,122,60
1,66,122,12
1,64,122,28
1,72,122,0
1,64,122,44
1,72,122,0
1,62,122,28
1,71,122,0
1,70,122,76
1,61,122,12
1,62,122,12
1,71,122,0
1,67,122,236
1,71,122,0
1,69,122,28
1,72,122,0
1,71,122,12
1,74,122,0
1,72,122,16
1,71,122,44
1,74,122,0
1,69,122,400
1,72,122,0
1,67,122,140
1,71,122,0
1,67,122,44
1,71,122,0
1,67,122,28
1,71,122,8
1,65,122,376
1,69,122,0
1,64,122,62
1,67,122,0
1,60,122,12
1,64,122,0
1,76,122,316
1,67,122,8
1,67,122,28
1,76,122,0
1,67,122,44
1,76,122,0
1,67,122,54
1,76,122,0
1,74,122,60
1,66,122,16
1,64,122,22
1,72,122,0
1,64,122,60
1,72,122,0
1,64,122,60
1,72,122,0
1,66,122,44
1,60,122,12
1,67,122,44
1,59,122,14
1,71,122,1132
1,67,122,12
1,69,122,42
1,72,122,0
1,71,122,28
1,74,122,0
1,71,122,60
1,74,122,0
1,69,122,28
1,72,122,0
1,74,122,16
1,67,122,28
1,71,122,0
1,67,122,28
1,71,122,0
1,67,122,44
1,71,122,0
1,65,122,28
1,69,122,0
1,64,122,44
1,67,122,0
1,60,122,28
1,64,122,0
1,67,122,316
1,76,122,0
1,67,122,40
1,76,122,4
1,67,122,44
1,76,122,0
1,67,122,60
1,76,122,2
1,66,122,60
1,74,122,0
1,64,122,44
1,72,122,0
1,64,122,60
1,72,122,0
1,62,122,44
1,71,122,0
1,70,122,84
1,61,122,12
1,62,122,12
1,71,122,2
1,67,122,60
1,71,122,0
1,69,122,50
1,72,122,4
1,71,122,44
1,74,122,0
1,71,122,44
1,74,122,0
1,69,122,36
1,72,122,4
1,67,122,28
1,71,122,0
1,67,122,30
1,71,122,0
1,67,122,28
1,71,122,0
1,65,122,12
1,69,122,0
1,67,122,60
1,64,122,2
1,60,122,12
1,64,122,0
1,67,122,332
1,76,122,0
1,67,122,44
1,76,122,0
1,67,122,44
1,76,122,0
1,67,122,44
1,76,122,2
1,74,122,64
1,66,122,16
1,64,122,12
1,72,122,0
1,64,122,76
1,72,122,0
1,64,122,60
1,72,122,0
1,60,122,20
1,66,122,0
1,67,122,44
1,59,122,2
1,67,122,296
1,71,122,4
1,72,122,124
1,69,122,12
1,74,122,44
1,71,122,16
1,72,122,0
1,71,122,60
1,74,122,0
1,69,122,124
1,72,122,0
1,67,122,28
1,71,122,0
1,67,122,44
1,71,122,12
1,71,122,60
1,74,122,16
1,74,122,36
1,71,122,4
1,79,122,4
2,43,90,1536
2,50,90,106
2,50,90,112
2,38,90,98
2,43,90,98
2,43,90,112
2,50,90,112
2,43,90,112
2,43,90,864
2,50,90,106
2,50,90,122
2,38,90,88
2,43,90,88
2,50,90,84
2,50,90,282
2,38,90,74
2,36,90,74
2,43,90,138
2,31,90,120
2,36,90,106
2,36,90,106
2,43,90,74
2,43,90,138
2,48,90,90
2,38,90,264
2,45,90,26
2,52,90,42
2,50,90,42
2,45,90,74
2,45,90,122
2,45,90,280
2,33,90,72
2,43,90,74
2,50,90,136
2,38,90,122
2,43,90,106
2,43,90,104
2,50,90,74
2,50,90,136
2,55,90,90
2,43,90,266
2,50,90,106
2,50,90,122
2,38,90,88
2,43,90,84
2,50,90,84
2,50,90,282
2,38,90,74
2,36,90,72
2,43,90,138
2,31,90,120
2,36,90,106
2,36,90,106
2,43,90,72
2,43,90,138
2,48,90,88
2,38,90,264
2,45,90,26
2,52,90,42
2,50,90,42
2,45,90,74
2,45,90,122
2,45,90,280
2,33,90,74
2,43,90,72
2,50,90,138
2,38,90,122
2,43,90,104
2,43,90,138
2,50,90,120
2,43,90,120
2,43,90,858
2,50,90,106
2,50,90,122
2,38,90,88
2,38,90,90
2,45,90,70
2,45,90,282
2,33,90,74
2,43,90,64
2,50,90,136
2,38,90,120
2,43,90,106
2,43,90,106
2,50,90,72
2,50,90,138
2,55,90,88
2,43,90,264
2,50,90,106
2,50,90,122
2,38,90,90
2,38,90,90
2,45,90,86
2,45,90,280
2,33,90,74
2,43,90,74
2,50,90,138
2,38,90,122
2,43,90,104
2,43,90,106
2,43,90,266
2,38,90,74
2,36,90,170
2,43,90,104
2,43,90,120
2,31,90,88
2,36,90,90
2,43,90,90
2,43,90,184
2,48,90,68
2,36,90,170
2,43,90,74
2,31,90,74
2,36,90,56
2,43,90,72
2,43,90,154
2,48,90,26
2,43,90,250
2,50,90,106
2,50,90,122
2,38,90,90
2,40,90,88
2,47,90,100
2,47,90,282
2,35,90,74
2,33,90,74
2,40,90,72
2,28,90,72
2,38,90,58
2,45,90,58
2,45,90,282
2,33,90,74
2,43,90,170
2,50,90,104
2,50,90,120
2,38,90,90
2,43,90,90
2,43,90,138
2,50,90,118
2,43,90,122
2,43,90,858
2,50,90,106
2,50,90,122
2,38,90,90
2,43,90,90
2,50,90,100
2,50,90,280
2,38,90,74
2,36,90,74
2,43,90,138
2,31,90,122
2,36,90,104
2,36,90,104
2,43,90,74
2,43,90,136
2,48,90,90
2,38,90,266
2,45,90,24
2,52,90,40
2,50,90,40
2,45,90,74
2,45,90,122
2,45,90,282
2,33,90,72
2,43,90,72
2,50,90,136
2,38,90,122
2,43,90,106
2,43,90,106
2,50,90,72
2,50,90,136
2,55,90,88
2,43,90,266
2,43,90,0
2,50,90,134
2,50,90,122
2,38,90,90
2,43,90,88
2,50,90,100
2,50,90,284
2,38,90,74
2,36,90,74
2,43,90,138
2,31,90,122
2,36,90,104
2,36,90,106
2,43,90,74
2,43,90,138
2,48,90,90
2,38,90,266
2,45,90,26
2,52,90,40
2,50,90,38
2,45,90,74
2,45,90,122
2,45,90,282
2,33,90,72
2,43,90,68
2,50,90,136
2,38,90,122
2,43,90,106
2,43,90,138
2,50,90,122
2,43,90,122
2,43,90,856
2,50,90,106
2,50,90,122
2,38,90,88
2,38,90,88
2,45,90,84
2,45,90,282
2,33,90,74
2,43,90,74
2,50,90,138
2,38,90,120
2,43,90,104
2,43,90,106
2,50,90,74
2,50,90,138
2,55,90,90
2,43,90,264
2,50,90,104
2,50,90,120
2,38,90,90
2,38,90,90
2,45,90,102
2,45,90,280
2,33,90,72
2,43,90,74
2,50,90,136
2,38,90,122
2,43,90,106
2,43,90,100
2,43,90,266
2,38,90,74
2,36,90,168
2,43,90,106
2,43,90,122
2,31,90,88
2,36,90,88
2,43,90,90
2,43,90,184
2,48,90,74
2,36,90,170
2,43,90,72
2,31,90,74
2,36,90,58
2,43,90,74
2,43,90,154
2,48,90,24
2,43,90,248
2,50,90,104
2,50,90,120
2,38,90,90
2,40,90,90
2,47,90,86
2,47,90,280
2,35,90,72
2,33,90,74
2,40,90,74
2,28,90,72
2,38,90,56
2,45,90,58
2,45,90,274
2,33,90,74
2,43,90,168
2,50,90,106
2,50,90,122
2,38,90,88
2,43,90,88
2,43,90,132
2,50,90,120
2,43,90,122
2,43,90,858
2,50,90,104
2,50,90,120
2,38,90,90
2,43,90,90
2,50,90,102
2,50,90,282
2,38,90,72
2,36,90,72
2,43,90,136
2,31,90,122
2,36,90,106
2,36,90,104
2,43,90,72
2,43,90,136
2,48,90,90
2,38,90,266
2,45,90,24
2,52,90,40
2,50,90,40
2,45,90,72
2,45,90,120
2,45,90,282
2,33,90,74
2,43,90,74
2,50,90,138
2,38,90,120
2,43,90,104
2,43,90,106
2,50,90,74
2,50,90,138
2,55,90,90
2,43,90,264
2,50,90,104
2,50,90,120
2,38,90,80
2,43,90,90
2,50,90,84
2,50,90,280
2,38,90,72
2,36,90,74
2,43,90,136
2,31,90,122
2,36,90,106
2,36,90,104
2,43,90,74
2,43,90,136
2,48,90,90
2,38,90,266
2,45,90,24
2,52,90,40
2,50,90,40
2,45,90,72
2,45,90,122
2,45,90,280
2,33,90,74
2,43,90,72
2,50,90,138
2,38,90,120
2,43,90,106
2,43,90,138
2,50,90,122
2,43,90,122
2,43,90,858
2,50,90,104
2,50,90,120
2,38,90,90
2,43,90,90
2,50,90,84
2,50,90,280
2,38,90,74
2,36,90,74
2,43,90,138
2,31,90,122
2,36,90,104
2,36,90,104
2,43,90,74
2,43,90,136
2,48,90,90
2,38,90,266
2,45,90,24
2,52,90,40
2,50,90,40
2,45,90,74
2,45,90,122
2,45,90,282
2,33,90,74
2,43,90,72
2,50,90,136
2,38,90,120
2,43,90,106
2,43,90,106
2,50,90,72
2,50,90,138
2,55,90,88
2,43,90,264
2,50,90,106
2,50,90,122
2,38,90,90
2,43,90,90
2,50,90,100
2,50,90,280
2,38,90,74
2,36,90,74
2,43,90,138
2,31,90,122
2,36,90,104
2,36,90,106
2,43,90,74
2,43,90,136
2,48,90,90
2,38,90,266
2,45,90,24
2,52,90,40
2,50,90,42
2,45,90,74
2,45,90,122
2,45,90,282
2,33,90,72
2,43,90,72
2,50,90,132
2,38,90,122
2,43,90,106
2,43,90,106
2,50,90,72
2,50,90,136
2,55,90,88
2,43,90,266
2,50,90,106
2,50,90,124
2,38,90,84
2,43,90,88
2,50,90,88
2,55,90,184
2,55,90,74
2,43,90,168
2,43,90,0
2,38,90,190
2,31,90,192
3,55,40,4590
3,59,40,0
3,62,40,0
3,55,40,44
3,59,40,0
3,62,40,0
3,65,40,0
3,55,40,60
3,64,40,0
3,60,40,16
3,54,40,92
3,62,40,0
3,55,40,76
3,62,40,0
3,59,40,16
3,55,40,44
3,59,40,16
3,62,40,0
3,62,40,16
3,55,40,16
3,59,40,0
3,65,40,0
3,60,40,44
3,64,40,0
3,54,40,92
3,62,40,0
3,55,40,28
3,59,40,0
3,62,40,0
3,55,40,364
3,59,40,0
3,62,40,0
3,60,40,108
3,54,40,16
3,55,40,92
3,59,40,0
3,59,40,308
3,55,40,8
3,62,40,0
3,60,40,28
3,62,40,0
3,54,40,16
3,55,40,36
3,59,40,8
3,62,40,0
3,55,40,46
3,59,40,0
3,62,40,0
3,65,40,0
3,60,40,44
3,64,40,0
3,55,40,12
3,60,40,0
3,63,40,16
3,59,40,44
3,62,40,0
3,56,40,44
3,62,40,0
3,64,40,0
3,57,40,28
3,60,40,16
3,60,40,28
3,54,40,16
3,62,40,0
3,55,40,48
3,59,40,0
3,55,40,860
3,59,40,16
3,62,40,0
3,55,40,60
3,65,40,16
3,55,40,28
3,60,40,0
3,64,40,0
3,62,40,76
