track,note,velocity,time
0,67,79,439
0,67,0,42
0,62,76,54
0,62,0,65
0,62,77,31
0,59,70,59
0,59,0,6
0,62,0,41
0,59,79,86
0,62,79,10
0,67,79,10
0,59,0,27
0,62,0,10
0,67,0,10
0,62,81,61
0,59,62,64
0,59,0,45
0,62,0,43
0,62,83,19
0,62,0,72
0,62,72,51
0,67,86,10
0,62,0,95
0,67,0,10
0,62,72,44
0,59,82,16
0,62,0,14
0,55,85,10
0,59,0,14
0,55,0,15
0,50,73,2
0,35,107,100
0,35,99,0
0,47,89,0
0,49,67,0
0,59,92,0
0,66,98,0
0,71,89,0
0,35,0,4
0,49,0,0
0,59,0,18
0,50,0,38
0,59,98,4
0,59,94,0
0,66,0,3
0,59,0,15
0,59,96,46
0,63,103,0
0,59,0,3
0,59,0,21
0,63,0,36
0,59,101,4
0,66,105,0
0,59,0,24
0,66,0,34
0,35,0,3
0,34,101,3
0,59,101,0
0,59,99,0
0,59,0,18
0,34,0,41
0,32,94,5
0,59,103,0
0,63,101,0
0,59,0,12
0,59,0,11
0,71,0,27
0,63,0,9
0,32,0,2
0,47,0,0
0,30,101,3
0,35,99,0
0,54,89,0
0,66,105,0
0,66,103,0
0,70,89,0
0,35,0,4
0,66,0,22
0,58,98,38
0,66,96,0
0,66,0,5
0,66,0,13
0,61,100,46
0,66,96,0
0,58,0,14
0,66,0,10
0,70,0,26
0,30,0,8
0,54,0,3
0,61,0,1
0,28,105,2
0,48,86,0
0,64,97,0
0,66,96,0
0,67,107,0
0,48,0,4
0,66,0,21
0,28,0,30
0,31,98,9
0,48,67,0
0,63,93,0
0,63,103,0
0,66,103,0
0,48,0,4
0,64,0,0
0,67,0,0
0,63,0,14
0,31,0,40
0,34,96,6
0,45,67,0
0,61,97,0
0,61,98,0
0,64,107,0
0,63,0,2
0,66,0,0
0,45,0,2
0,61,0,14
0,34,0,43
0,35,105,3
0,35,99,0
0,59,93,0
0,59,101,0
0,63,103,0
0,61,0,2
0,64,0,0
0,35,0,2
0,59,0,16
0,59,0,77
0,63,0,0
0,35,0,1
0,59,102,30
0,59,0,46
0,59,103,18
0,59,0,105
0,61,102,23
0,61,0,61
0,63,102,3
0,63,0,101
0,66,103,27
0,66,0,96
0,68,103,32
0,68,0,56
0,71,99,8
0,71,0,61
0,28,105,3
0,35,101,0
0,42,57,0
0,52,79,0
0,56,79,0
0,64,79,0
0,73,104,0
0,73,85,0
0,73,71,0
0,35,0,4
0,42,0,0
0,42,42,60
0,42,0,4
0,42,44,60
0,42,0,4
0,42,67,60
0,54,65,0
0,42,0,4
0,54,0,0
0,73,0,56
0,42,42,4
0,75,104,0
0,42,0,4
0,75,0,57
0,35,73,3
0,42,50,0
0,71,102,0
0,35,0,4
0,42,0,0
0,71,0,57
0,35,101,3
0,42,57,0
0,73,104,0
0,35,0,4
0,42,0,0
0,42,47,60
0,42,0,4
0,42,40,60
0,42,0,4
0,42,67,60
0,54,65,0
0,42,0,4
0,54,0,0
0,42,42,60
0,42,0,4
0,28,0,53
0,35,98,7
0,42,50,0
0,42,0,4
0,73,0,4
0,35,0,53
0,28,105,3
0,35,101,0
0,42,57,0
0,35,0,4
0,42,0,0
0,42,42,60
0,42,0,4
0,42,44,60
0,42,0,4
0,42,67,60
0,54,65,0
0,71,106,0
0,42,0,4
0,54,0,0
0,71,0,57
0,42,42,3
0,73,106,0
0,42,0,4
0,73,0,50
0,35,73,10
0,42,50,0
0,75,99,0
0,35,0,4
0,42,0,0
0,75,0,54
0,35,101,6
0,42,57,0
0,73,102,0
0,35,0,4
0,42,0,0
0,42,47,60
0,42,0,4
0,73,0,46
0,42,40,14
0,71,95,0
0,42,0,4
0,42,67,60
0,54,65,0
0,42,0,4
0,54,0,0
0,28,0,18
0,71,0,30
0,30,95,12
0,42,42,0
0,68,106,0
0,42,0,4
0,30,0,57
0,68,0,0
0,32,95,3
0,42,50,0
0,71,99,0
0,42,0,4
0,52,0,51
0,56,0,0
0,64,0,0
0,73,0,0
0,71,0,3
0,73,0,0
0,32,0,3
0,35,103,3
0,35,101,0
0,42,57,0
0,47,79,0
0,54,79,0
0,63,79,0
0,71,99,0
0,71,85,0
0,71,71,0
0,35,0,4
0,42,0,0
0,42,42,60
0,42,0,4
0,42,44,60
0,42,0,4
0,42,67,60
0,54,65,0
0,42,0,4
0,54,0,0
0,42,42,60
0,42,0,4
0,71,0,50
0,35,73,10
0,42,50,0
0,35,0,4
0,42,0,0
0,35,101,60
0,42,57,0
0,35,0,4
0,42,0,0
0,42,47,60
0,42,0,4
0,42,40,60
0,42,0,4
0,42,67,60
0,54,65,0
0,42,0,4
0,54,0,0
0,42,42,60
0,42,0,4
0,35,0,13
0,42,91,47
0,42,50,0
0,42,0,4
0,42,0,57
0,35,103,3
0,35,101,0
0,42,57,0
0,35,0,4
0,42,0,0
0,42,42,60
0,42,0,4
0,42,44,60
0,66,100,0
0,42,0,4
0,66,0,42
0,42,67,18
0,54,65,0
0,66,101,0
0,42,0,4
0,54,0,0
0,42,42,60
0,42,0,4
0,66,0,50
0,35,73,10
0,42,50,0
0,68,101,0
0,35,0,4
0,42,0,0
0,68,0,57
0,35,101,3
0,42,57,0
0,71,105,0
0,35,0,4
0,42,0,0
0,42,47,60
0,42,0,4
0,71,0,48
0,42,40,12
0,68,103,0
0,42,0,4
0,35,0,46
0,47,0,5
0,71,0,0
0,71,0,3
0,36,91,6
0,42,67,0
0,48,66,0
0,54,65,0
0,72,59,0
0,42,0,4
0,54,0,0
0,68,0,57
0,42,42,3
0,66,101,0
0,42,0,4
0,66,0,57
0,42,50,3
0,63,105,0
0,42,0,4
0,48,0,51
0,54,0,0
0,63,0,0
0,72,0,0
0,36,0,3
0,63,0,1
0,35,101,5
0,37,103,0
0,42,57,0
0,49,79,0
0,56,79,0
0,61,103,0
0,65,79,0
0,73,79,0
0,35,0,4
0,42,0,0
0,42,42,60
0,42,0,4
0,61,0,49
0,42,44,11
0,61,104,0
0,42,0,4
0,42,67,60
0,54,65,0
0,42,0,4
0,54,0,0
0,42,42,60
0,42,0,4
0,35,73,60
0,42,50,0
0,68,90,0
0,35,0,4
0,42,0,0
0,68,0,57
0,35,101,3
0,42,57,0
0,73,94,0
0,35,0,4
0,42,0,0
0,61,0,56
0,42,47,4
0,42,0,4
0,42,40,60
0,42,0,4
0,73,0,46
0,42,67,14
0,54,65,0
0,68,87,0
0,42,0,4
0,54,0,0
0,42,42,60
0,42,0,4
0,37,0,13
0,39,91,47
0,42,50,0
0,42,0,4
0,68,0,45
0,49,0,6
0,56,0,0
0,65,0,0
0,73,0,0
0,39,0,6
0,35,101,3
0,40,103,0
0,42,57,0
0,52,79,0
0,55,79,0
0,64,79,0
0,67,79,0
0,71,90,0
0,71,79,0
0,35,0,4
0,42,0,0
0,42,42,60
0,42,0,4
0,42,44,60
0,42,0,4
0,42,67,60
0,54,65,0
0,59,97,0
0,42,0,4
0,54,0,0
0,59,0,37
0,42,42,23
0,59,97,0
0,42,0,4
0,59,0,52
0,35,73,8
0,42,50,0
0,61,106,0
0,35,0,4
0,42,0,0
0,40,0,46
0,67,0,2
0,71,0,0
0,52,0,3
0,55,0,0
0,64,0,0
0,71,0,0
0,61,0,1
0,35,101,8
0,42,100,0
0,42,57,0
0,54,75,0
0,61,75,0
0,63,98,0
0,64,75,0
0,66,69,0
0,70,74,0
0,70,75,0
0,35,0,4
0,42,0,0
0,63,0,41
0,61,94,3
0,42,47,16
0,42,0,4
0,61,0,25
0,59,90,3
0,42,40,32
0,42,0,4
0,42,67,60
0,54,65,0
0,42,0,4
0,54,0,0
0,42,42,60
0,42,0,4
0,59,0,57
0,42,50,3
0,58,97,0
0,42,0,4
0,42,0,46
0,66,0,2
0,70,0,0
0,54,0,3
0,61,0,0
0,64,0,0
0,70,0,0
0,58,0,6
0,35,95,3
0,35,101,0
0,42,57,0
0,47,73,0
0,59,94,0
0,59,73,0
0,63,73,0
0,66,60,0
0,71,78,0
0,71,73,0
0,35,0,4
0,42,0,0
0,42,42,60
0,42,0,4
0,42,44,60
0,42,0,4
0,42,67,60
0,54,65,0
0,42,0,4
0,54,0,0
0,35,0,33
0,37,96,27
0,42,42,0
0,42,0,4
0,59,0,37
0,37,0,13
0,35,73,10
0,39,93,0
0,42,50,0
0,35,0,4
0,42,0,0
0,47,0,36
0,59,0,0
0,63,0,0
0,71,0,0
0,66,0,10
0,71,0,0
0,39,0,11
0,35,101,3
0,40,100,0
0,42,57,0
0,52,79,0
0,56,79,0
0,64,79,0
0,68,63,0
0,71,72,0
0,71,79,0
0,35,0,4
0,42,0,0
0,42,47,60
0,42,0,4
0,42,40,60
0,42,0,4
0,42,67,60
0,54,65,0
0,42,0,4
0,54,0,0
0,40,0,41
0,39,94,19
0,42,42,0
0,42,0,4
0,39,0,57
0,37,93,3
0,42,50,0
0,42,0,4
0,52,0,36
0,56,0,0
0,64,0,0
0,71,0,0
0,68,0,10
0,71,0,0
0,37,0,9
0,35,95,5
0,35,101,0
0,47,79,0
0,51,61,0
0,54,61,0
0,59,79,0
0,63,79,0
0,66,57,0
0,71,76,0
0,71,79,0
0,35,0,4
0,51,0,0
0,54,0,0
0,35,0,75
0,47,0,15
0,59,0,0
0,63,0,0
0,71,0,0
0,66,0,4
0,71,0,0
0,59,102,30
0,59,0,46
0,59,103,18
0,59,0,105
0,61,102,23
0,61,0,61
0,63,102,3
0,63,0,101
0,66,103,27
0,35,73,64
0,47,65,0
0,59,65,0
0,66,0,32
0,68,103,32
0,68,0,56
0,46,42,8
0,71,99,0
0,46,0,4
0,47,0,52
0,59,0,0
0,35,0,2
0,71,0,3
0,28,105,3
0,35,101,0
0,42,57,0
0,52,79,0
0,56,79,0
0,59,100,0
0,64,79,0
0,73,104,0
0,73,85,0
0,73,71,0
0,35,0,4
0,42,0,0
0,52,85,0
0,59,0,22
0,42,42,38
0,59,101,0
0,42,0,4
0,56,96,0
0,59,0,19
0,42,44,41
0,59,100,0
0,42,0,4
0,59,90,0
0,52,0,15
0,56,0,0
0,59,0,4
0,37,89,41
0,42,67,0
0,54,65,0
0,59,98,0
0,64,69,0
0,76,66,0
0,37,0,4
0,42,0,0
0,54,0,0
0,64,96,0
0,59,0,9
0,59,0,10
0,73,0,37
0,42,42,4
0,59,94,0
0,75,104,0
0,42,0,4
0,59,68,0
0,59,0,15
0,64,0,24
0,64,0,0
0,76,0,2
0,28,0,12
0,75,0,4
0,32,91,3
0,35,73,0
0,42,50,0
0,59,94,0
0,71,102,0
0,35,0,4
0,42,0,0
0,56,92,0
0,59,0,19
0,59,0,32
0,32,0,6
0,71,0,0
0,35,101,3
0,37,103,0
0,42,57,0
0,59,98,0
0,73,104,0
0,35,0,4
0,42,0,0
0,52,90,0
0,56,0,7
0,59,0,9
0,42,47,44
0,59,96,0
0,42,0,4
0,56,94,0
0,59,0,16
0,42,40,44
0,59,93,0
0,42,0,4
0,59,90,0
0,59,0,14
0,37,0,39
0,35,96,7
0,37,89,0
0,42,67,0
0,54,65,0
0,59,96,0
0,64,69,0
0,76,68,0
0,37,0,4
0,42,0,0
0,54,0,0
0,64,97,0
0,56,0,11
0,59,0,0
0,59,0,3
0,42,42,46
0,59,93,0
0,42,0,4
0,59,78,0
0,59,0,13
0,52,0,24
0,64,0,4
0,76,0,0
0,42,50,19
0,59,94,0
0,42,0,4
0,56,92,0
0,73,0,4
0,64,0,2
0,59,0,9
0,59,0,2
0,35,0,36
0,28,105,7
0,35,101,0
0,42,57,0
0,59,96,0
0,35,0,4
0,42,0,0
0,52,87,0
0,56,0,5
0,59,0,10
0,42,42,45
0,59,93,0
0,42,0,4
0,56,94,0
0,59,0,14
0,42,44,46
0,59,94,0
0,42,0,4
0,59,87,0
0,52,0,9
0,59,0,5
0,56,0,3
0,37,89,43
0,42,67,0
0,54,65,0
0,59,98,0
0,64,69,0
0,73,106,0
0,76,67,0
0,37,0,4
0,42,0,0
0,54,0,0
0,64,99,0
0,59,0,6
0,59,0,9
0,73,0,42
0,42,42,3
0,59,93,0
0,73,106,0
0,42,0,4
0,59,75,0
0,59,0,14
0,64,0,27
0,76,0,0
0,73,0,9
0,28,0,3
0,32,91,7
0,35,73,0
0,42,50,0
0,59,91,0
0,75,99,0
0,35,0,4
0,42,0,0
0,56,94,0
0,64,0,7
0,59,0,1
0,59,0,3
0,75,0,43
0,32,0,3
0,35,103,3
0,35,101,0
0,42,57,0
0,59,91,0
0,73,102,0
0,35,0,4
0,42,0,0
0,52,89,0
0,56,0,10
0,59,0,2
0,42,47,48
0,59,94,0
0,42,0,4
0,56,92,0
0,59,0,13
0,73,0,33
0,42,40,14
0,59,89,0
0,71,95,0
0,42,0,4
0,59,90,0
0,52,0,2
0,56,0,12
0,59,0,0
0,37,89,46
0,42,67,0
0,54,65,0
0,59,96,0
0,64,69,0
0,76,68,0
0,37,0,4
0,42,0,0
0,54,0,0
0,64,94,0
0,59,0,7
0,59,0,7
0,71,0,34
0,35,0,5
0,32,95,7
0,42,42,0
0,59,91,0
0,68,106,0
0,42,0,4
0,59,69,0
0,59,0,10
0,64,0,31
0,76,0,0
0,32,0,16
0,68,0,0
0,30,95,3
0,42,50,0
0,59,84,0
0,71,99,0
0,42,0,4
0,56,89,0
0,59,0,10
0,59,0,9
0,64,0,0
0,52,0,32
0,56,0,0
0,64,0,0
0,73,0,0
0,71,0,3
0,73,0,0
0,30,0,3
0,35,105,3
0,35,101,0
0,42,57,0
0,47,79,0
0,54,79,0
0,59,96,0
0,63,79,0
0,71,99,0
0,71,85,0
0,71,71,0
0,35,0,4
0,42,0,0
0,54,89,0
0,56,0,13
0,59,0,2
0,42,42,45
0,59,89,0
0,42,0,4
0,59,87,0
0,59,0,13
0,54,0,15
0,42,44,32
0,59,98,0
0,42,0,4
0,63,83,0
0,59,0,12
0,59,0,9
0,37,89,39
0,42,67,0
0,54,65,0
0,59,94,0
0,63,69,0
0,75,69,0
0,37,0,4
0,42,0,0
0,54,0,0
0,66,94,0
0,59,0,12
0,63,0,8
0,42,42,40
0,59,94,0
0,42,0,4
0,63,76,0
0,66,0,9
0,59,0,3
0,63,0,29
0,75,0,0
0,71,0,9
0,35,0,3
0,35,73,7
0,39,91,0
0,42,50,0
0,59,98,0
0,35,0,4
0,42,0,0
0,59,80,0
0,63,0,6
0,59,0,8
0,39,0,43
0,35,101,3
0,42,57,0
0,44,103,0
0,59,94,0
0,35,0,4
0,42,0,0
0,54,83,0
0,59,0,9
0,59,0,6
0,42,47,45
0,59,93,0
0,42,0,4
0,59,87,0
0,59,0,14
0,54,0,3
0,42,40,43
0,59,89,0
0,42,0,4
0,63,82,0
0,59,0,6
0,59,0,2
0,44,0,45
0,37,89,7
0,42,96,0
0,42,67,0
0,54,65,0
0,59,101,0
0,63,69,0
0,75,68,0
0,63,0,3
0,37,0,1
0,42,0,0
0,54,0,0
0,66,92,0
0,59,0,15
0,42,42,45
0,59,89,0
0,42,0,4
0,63,82,0
0,59,0,13
0,66,0,11
0,75,0,6
0,63,0,2
0,42,50,28
0,59,93,0
0,42,0,4
0,59,85,0
0,59,0,13
0,63,0,8
0,42,0,32
0,35,105,7
0,35,101,0
0,42,57,0
0,59,94,0
0,35,0,4
0,42,0,0
0,54,94,0
0,59,0,7
0,59,0,7
0,42,42,46
0,59,89,0
0,42,0,4
0,59,87,0
0,59,0,9
0,54,0,27
0,42,44,24
0,59,91,0
0,66,100,0
0,42,0,4
0,63,75,0
0,59,0,12
0,59,0,3
0,66,0,27
0,37,89,18
0,42,67,0
0,54,65,0
0,59,101,0
0,63,69,0
0,66,101,0
0,75,69,0
0,37,0,4
0,42,0,0
0,54,0,0
0,66,99,0
0,63,0,7
0,59,0,8
0,42,42,45
0,59,94,0
0,42,0,4
0,63,71,0
0,59,0,14
0,66,0,7
0,75,0,19
0,63,0,1
0,66,0,9
0,35,0,3
0,35,73,7
0,39,91,0
