track,note,velocity,time
1,72,127,840
1,72,0,29
1,74,127,1
1,74,0,59
1,76,127,1
1,76,0,59
1,74,127,1
1,74,0,59
1,72,127,1
1,72,0,59
1,71,127,1
1,71,0,89
1,71,127,1
1,71,0,179
1,69,127,1
1,69,0,29
1,69,127,1
1,69,0,179
1,72,127,211
1,72,0,29
1,74,127,1
1,74,0,59
1,76,127,1
1,76,0,59
1,74,127,1
1,74,0,59
1,72,127,1
1,72,0,59
1,74,127,1
1,74,0,59
1,74,127,1
1,74,0,179
1,76,127,1
1,76,0,29
1,72,127,421
1,72,0,29
1,74,127,1
1,74,0,59
1,76,127,1
1,76,0,59
1,74,127,1
1,74,0,59
1,72,127,1
1,72,0,59
1,71,127,1
1,71,0,89
1,71,127,1
1,71,0,149
1,72,127,1
1,72,0,29
1,71,127,1
1,71,0,29
1,69,127,1
1,69,0,179
1,67,127,31
1,67,0,29
1,67,127,1
1,67,0,209
1,69,127,1
1,69,0,29
1,69,127,1
1,69,0,209
1,69,127,1
1,69,0,29
1,69,127,1
1,69,0,29
1,67,127,1
1,67,0,239
1,79,127,480
1,79,0,119
1,71,127,1
1,71,0,59
1,72,127,1
1,72,0,179
1,79,127,1
1,79,0,59
1,79,127,1
1,79,0,119
1,78,127,1
1,78,0,59
1,78,127,1
1,78,0,59
1,78,127,1
1,78,0,119
1,76,127,61
1,76,0,59
1,78,127,1
1,78,0,59
1,79,127,1
1,79,0,119
1,71,127,1
1,71,0,59
1,72,127,1
1,72,0,179
1,79,127,1
1,79,0,59
1,79,127,1
1,79,0,179
1,81,127,1
1,81,0,59
1,81,127,1
1,81,0,89
1,79,127,1
1,79,0,29
1,78,127,1
1,78,0,119
1,79,127,61
1,79,0,119
1,71,127,1
1,71,0,59
1,72,127,1
1,72,0,179
1,79,127,1
1,79,0,59
1,79,127,1
1,79,0,119
1,78,127,1
1,78,0,59
1,78,127,1
1,78,0,59
1,78,127,1
1,78,0,119
1,72,127,781
1,72,0,29
1,74,127,1
1,74,0,59
1,76,127,1
1,76,0,59
1,74,127,1
1,74,0,59
1,71,127,1
1,71,0,59
1,69,127,1
1,69,0,59
1,71,127,1
1,71,0,239
1,79,127,2671
1,79,0,179
1,78,127,1
1,78,0,29
1,78,127,1
1,78,0,119
1,79,127,480
1,79,0,119
1,71,127,1
1,71,0,59
1,72,127,1
1,72,0,179
1,79,127,1
1,79,0,59
1,79,127,1
1,79,0,119
1,78,127,1
1,78,0,59
1,78,127,1
1,78,0,59
1,78,127,1
1,78,0,119
1,76,127,61
1,76,0,59
1,78,127,1
1,78,0,59
1,79,127,1
1,79,0,119
1,71,127,1
1,71,0,59
1,72,127,1
1,72,0,179
1,79,127,1
1,79,0,59
1,79,127,1
1,79,0,179
1,79,127,211
1,79,0,89
1,76,127,1
1,76,0,29
1,74,127,1
1,74,0,29
1,74,127,1
1,74,0,119
1,79,127,241
1,79,0,59
1,79,127,1
1,79,0,119
1,78,127,1
1,78,0,59
1,78,127,1
1,78,0,59
1,78,127,1
1,78,0,119
1,76,127,121
1,76,0,29
1,78,127,1
1,78,0,29
1,79,127,1
1,79,0,59
1,78,127,1
1,78,0,29
1,79,127,1
1,79,0,59
1,78,127,1
1,78,0,59
1,79,127,1
1,79,0,59
1,78,127,1
1,78,0,59
1,76,127,1
1,76,0,119
1,79,127,151
1,79,0,149
1,76,127,1
1,76,0,29
1,74,127,1
1,74,0,119
1,72,127,31
1,72,0,29
1,74,127,1
1,74,0,59
1,74,127,1
1,74,0,29
1,74,127,1
1,74,0,89
1,72,127,1
1,72,0,29
1,74,127,1
1,74,0,59
1,72,127,1
1,72,0,59
1,69,127,1
1,69,0,119
1,72,127,481
1,72,0,29
1,74,127,1
1,74,0,59
1,74,127,1
1,74,0,29
1,74,127,1
1,74,0,89
1,72,127,1
1,72,0,29
1,74,127,1
1,74,0,59
1,72,127,1
1,72,0,59
1,69,127,1
1,69,0,119
1,69,127,0
1,69,0,59
1,72,127,1
1,72,0,59
1,74,127,1
1,74,0,59
1,74,127,1
1,74,0,64
1,79,127,5
1,79,0,119
1,71,127,1
1,71,0,59
1,72,127,1
1,72,0,179
1,79,127,1
1,79,0,59
1,79,127,1
1,79,0,119
1,78,127,0
1,78,0,59
1,78,127,1
1,78,0,59
1,78,127,1
1,78,0,119
1,76,127,0
1,76,0,59
1,78,127,1
1,78,0,59
1,79,127,1
1,79,0,119
1,71,127,1
1,71,0,59
1,72,127,1
1,72,0,179
1,79,127,1
1,79,0,59
1,79,127,1
1,79,0,179
1,81,127,1
1,81,0,119
1,83,127,0
1,83,0,119
1,81,127,1
1,81,0,59
1,79,127,1
1,79,0,359
1,79,127,61
1,79,0,59
1,79,127,1
1,79,0,119
1,78,127,1
1,78,0,59
1,78,127,1
1,78,0,59
1,78,127,1
1,78,0,89
1,76,127,1
1,76,0,29
1,74,127,1
1,74,0,119
1,79,127,361
1,79,0,59
1,76,127,1
1,76,0,59
1,76,127,301
1,76,0,119
1,74,127,61
1,74,0,119
1,76,127,1
1,76,0,29
1,79,127,271
1,79,0,59
1,79,127,1
1,79,0,119
1,78,127,1
1,78,0,59
1,78,127,1
1,78,0,59
1,78,127,1
1,78,0,119
1,76,127,121
1,76,0,29
1,78,127,1
1,78,0,29
1,79,127,1
1,79,0,59
1,78,127,1
1,78,0,29
1,79,127,1
1,79,0,59
1,78,127,1
1,78,0,59
1,79,127,1
1,79,0,59
1,81,127,1
1,81,0,59
1,79,127,1
1,79,0,119
1,76,127,151
1,76,0,29
1,78,127,1
1,78,0,59
1,79,127,1
1,79,0,59
1,78,127,1
1,78,0,59
1,76,127,1
1,76,0,179
1,81,127,31
1,81,0,29
1,82,127,1
1,82,0,29
1,81,127,1
1,81,0,59
1,79,127,1
1,79,0,479
1,78,127,1
1,78,0,89
1,76,127,1
1,76,0,29
1,74,127,1
1,79,127,0
1,74,0,59
1,79,0,30
1,79,127,1
1,79,0,239
1,79,127,211
1,79,0,59
1,79,127,1
1,79,0,179
1,81,127,1
1,81,0,59
1,83,127,1
1,83,0,29
1,81,127,1
1,81,0,209
1,83,127,1
1,83,0,29
1,79,127,691
1,79,0,119
1,78,127,1
1,78,0,29
1,76,127,1
1,76,0,29
1,74,127,1
1,74,0,119
1,72,127,601
1,72,0,29
1,74,127,1
1,74,0,59
1,76,127,1
1,76,0,59
1,74,127,1
1,74,0,59
1,71,127,1
1,71,0,59
1,69,127,1
1,69,0,59
1,71,127,1
1,71,0,179
2,76,127,360
2,76,0,59
2,78,127,1
2,78,0,29
2,79,127,1
2,79,0,29
2,79,127,1
2,79,0,119
2,71,127,1
2,71,0,59
2,72,127,1
2,72,0,179
2,79,127,1
2,79,0,59
2,79,127,1
2,79,0,119
2,78,127,1
2,78,0,59
2,78,127,1
2,78,0,59
2,78,127,1
2,78,0,119
2,76,127,61
2,76,0,59
2,78,127,1
2,78,0,59
2,79,127,1
2,79,0,119
2,71,127,1
2,71,0,59
2,72,127,1
2,72,0,179
2,79,127,1
2,79,0,59
2,79,127,1
2,79,0,179
2,81,127,1
2,81,0,59
2,81,127,1
2,81,0,89
2,79,127,1
2,79,0,29
2,78,127,1
2,78,0,119
2,79,127,61
2,79,0,119
2,71,127,1
2,71,0,59
2,72,127,1
2,72,0,179
2,79,127,1
2,79,0,59
2,79,127,1
2,79,0,119
2,78,127,1
2,78,0,59
2,78,127,1
2,78,0,59
2,78,127,1
2,78,0,119
2,76,127,121
2,76,0,29
2,78,127,1
2,78,0,29
2,79,127,1
2,79,0,59
2,78,127,1
2,78,0,29
2,79,127,1
2,79,0,59
2,78,127,1
2,78,0,59
2,79,127,1
2,79,0,59
2,78,127,1
2,78,0,59
2,76,127,1
2,76,0,119
2,76,127,151
2,76,0,29
2,78,127,1
2,78,0,59
2,79,127,1
2,79,0,59
2,78,127,1
2,78,0,59
2,76,127,1
2,76,0,59
2,74,127,1
2,74,0,59
2,76,127,1
2,76,0,239
2,72,127,0
2,72,0,29
2,74,127,1
2,74,0,59
2,76,127,1
2,76,0,59
2,74,127,1
2,74,0,59
2,72,127,1
2,72,0,59
2,71,127,1
2,71,0,89
2,71,127,1
2,71,0,149
2,72,127,1
2,72,0,29
2,71,127,1
2,71,0,29
2,69,127,1
2,69,0,119
2,72,127,271
2,72,0,29
2,74,127,1
2,74,0,59
2,76,127,1
2,76,0,59
2,74,127,1
2,74,0,59
2,72,127,1
2,72,0,59
2,74,127,1
2,74,0,59
2,74,127,1
2,74,0,179
2,76,127,1
2,76,0,29
2,72,127,421
2,72,0,29
2,74,127,1
2,74,0,59
2,76,127,1
2,76,0,59
2,74,127,1
2,74,0,59
2,72,127,1
2,72,0,59
2,71,127,1
2,71,0,89
2,71,127,1
2,71,0,149
2,72,127,1
2,72,0,29
2,71,127,1
2,71,0,29
2,69,127,1
2,69,0,119
2,67,127,91
2,67,0,29
2,67,127,1
2,67,0,209
2,69,127,1
2,69,0,29
2,69,127,1
2,69,0,209
2,69,127,1
2,69,0,29
2,69,127,1
2,69,0,29
2,67,127,1
2,67,0,239
2,64,127,151
2,64,0,29
2,66,127,1
2,66,0,29
2,67,127,1
2,67,0,209
2,69,127,1
2,69,0,29
2,69,127,1
2,69,0,209
2,74,127,1
2,74,0,29
2,74,127,1
2,74,0,329
2,76,127,31
2,76,0,59
2,78,127,1
2,78,0,29
2,79,127,1
2,79,0,29
2,79,127,1
2,79,0,119
2,71,127,1
2,71,0,59
2,72,127,1
2,72,0,179
2,79,127,1
2,79,0,59
2,79,127,1
2,79,0,119
2,78,127,1
2,78,0,59
2,78,127,1
2,78,0,59
2,78,127,1
2,78,0,119
2,76,127,61
2,76,0,59
2,78,127,1
2,78,0,59
2,79,127,1
2,79,0,119
2,71,127,1
2,71,0,59
2,72,127,1
2,72,0,179
2,79,127,1
2,79,0,59
2,79,127,1
2,79,0,179
2,81,127,1
2,81,0,59
2,81,127,1
2,81,0,89
2,79,127,1
2,79,0,29
2,78,127,1
2,78,0,119
2,79,127,61
2,79,0,119
2,71,127,1
2,71,0,59
2,72,127,1
2,72,0,179
2,79,127,1
2,79,0,59
2,79,127,1
2,79,0,119
2,78,127,1
2,78,0,59
2,78,127,1
2,78,0,59
2,78,127,1
2,78,0,119
2,76,127,121
2,76,0,29
2,78,127,1
2,78,0,29
2,79,127,1
2,79,0,59
2,78,127,1
2,78,0,29
2,79,127,1
2,79,0,59
2,78,127,1
2,78,0,59
2,79,127,1
2,79,0,59
2,78,127,1
2,78,0,59
2,76,127,1
2,76,0,119
2,67,127,0
2,67,0,29
2,69,127,1
2,69,0,59
2,69,127,1
2,69,0,29
2,69,127,1
2,69,0,89
2,67,127,1
2,67,0,29
2,69,127,1
2,69,0,59
2,67,127,1
2,67,0,59
2,65,127,1
2,65,0,119
2,67,127,481
2,67,0,29
2,69,127,1
2,69,0,59
2,69,127,1
2,69,0,29
2,69,127,1
2,69,0,89
2,67,127,1
2,67,0,29
2,69,127,1
2,69,0,59
2,67,127,1
2,67,0,59
2,65,127,1
2,65,0,119
2,74,127,60
2,74,0,59
2,77,127,1
2,77,0,59
2,79,127,1
2,79,0,59
2,79,127,1
2,79,0,239
2,78,127,0
2,78,0,69
2,76,127,0
2,76,0,239
2,76,127,0
2,76,0,59
2,78,127,1
2,78,0,29
2,79,127,1
2,79,0,29
2,79,127,1
2,79,0,119
2,71,127,1
2,71,0,59
2,72,127,1
2,72,0,179
2,79,127,1
2,79,0,59
2,79,127,1
2,79,0,119
2,78,127,1
2,78,0,59
2,78,127,1
2,78,0,59
2,78,127,1
2,78,0,119
2,76,127,61
2,76,0,59
2,78,127,1
2,78,0,59
2,79,127,1
2,79,0,119
2,71,127,1
2,71,0,59
2,72,127,1
2,72,0,179
2,79,127,1
2,79,0,59
2,79,127,1
2,79,0,179
2,81,127,1
2,81,0,59
2,81,127,1
2,81,0,89
2,79,127,1
2,79,0,29
2,78,127,1
2,78,0,119
2,79,127,61
2,79,0,119
2,71,127,1
2,71,0,59
2,72,127,1
2,72,0,179
2,79,127,1
2,79,0,59
2,79,127,1
2,79,0,119
2,78,127,1
2,78,0,59
2,78,127,1
2,78,0,59
2,78,127,1
2,78,0,119
2,76,127,121
2,76,0,29
2,78,127,1
2,78,0,29
2,79,127,1
2,79,0,59
2,78,127,1
2,78,0,29
2,79,127,1
2,79,0,59
2,78,127,1
2,78,0,59
2,79,127,1
2,79,0,59
2,78,127,1
2,78,0,59
2,76,127,1
2,76,0,119
2,76,127,391
2,76,0,59
2,78,127,1
2,78,0,29
2,79,127,1
2,79,0,29
2,79,127,1
2,79,0,119
2,71,127,1
2,71,0,59
2,72,127,1
2,72,0,179
2,79,127,1
2,79,0,59
2,79,127,1
2,79,0,119
2,78,127,1
2,78,0,59
2,78,127,1
2,78,0,59
2,78,127,1
2,78,0,119
2,76,127,61
2,76,0,59
2,78,127,1
2,78,0,59
2,79,127,1
2,79,0,119
2,71,127,1
2,71,0,59
2,72,127,1
2,72,0,179
2,79,127,1
2,79,0,59
2,79,127,1
2,79,0,179
2,81,127,1
2,81,0,59
2,81,127,1
2,81,0,89
2,79,127,1
2,79,0,29
2,78,127,1
2,78,0,119
2,79,127,61
2,79,0,119
2,71,127,1
2,71,0,59
2,72,127,1
2,72,0,179
2,79,127,1
2,79,0,59
2,79,127,1
2,79,0,119
2,78,127,1
2,78,0,59
2,78,127,1
2,78,0,59
2,78,127,1
2,78,0,119
2,76,127,0
2,76,0,29
2,78,127,1
2,78,0,29
2,79,127,1
2,79,0,59
2,78,127,1
2,78,0,29
2,79,127,1
2,79,0,59
2,78,127,1
2,78,0,59
2,79,127,1
2,79,0,59
2,78,127,1
2,78,0,59
2,76,127,1
2,76,0,119
2,76,127,151
2,76,0,29
2,78,127,1
2,78,0,59
2,79,127,1
2,79,0,59
2,78,127,1
2,78,0,59
2,76,127,1
2,76,0,59
2,74,127,1
2,74,0,59
2,76,127,1
2,76,0,179
3,69,127,4650
3,69,0,29
3,72,127,1
3,72,0,29
3,74,127,1
3,74,0,59
3,76,127,1
3,76,0,59
3,74,127,1
3,74,0,59
3,72,127,1
3,72,0,59
3,71,127,1
3,71,0,89
3,71,127,1
3,71,0,149
3,69,127,1
3,69,0,59
3,69,127,1
3,69,0,119
3,72,127,271
3,72,0,29
3,74,127,1
3,74,0,59
3,76,127,1
3,76,0,59
3,74,127,1
3,74,0,59
3,72,127,1
3,72,0,59
3,74,127,1
3,74,0,149
3,76,127,1
3,76,0,59
3,77,127,1
3,77,0,14
3,76,127,1
3,76,0,14
3,74,127,1
3,74,0,119
3,76,127,1
3,76,0,29
3,72,127,301
3,72,0,29
3,74,127,1
3,74,0,59
3,76,127,1
3,76,0,59
3,74,127,1
3,74,0,59
3,79,127,1
3,79,0,89
3,76,127,1
3,76,0,59
3,76,127,1
3,76,0,89
3,77,127,1
3,77,0,14
3,76,127,1
3,76,0,14
3,74,127,1
3,74,0,119
3,67,127,181
3,67,0,29
3,67,127,1
3,67,0,209
3,69,127,1
3,69,0,29
3,69,127,1
3,69,0,179
3,71,127,1
3,71,0,29
3,67,127,1
3,67,0,29
3,69,127,1
3,69,0,29
3,67,127,1
3,67,0,239
3,64,127,151
3,64,0,29
3,66,127,1
3,66,0,29
3,67,127,1
3,67,0,209
3,69,127,1
3,69,0,29
3,69,127,1
3,69,0,209
3,74,127,1
3,74,0,29
3,74,127,1
3,74,0,359
3,76,127,0
3,76,0,119
3,67,127,1
3,67,0,59
3,67,127,1
3,67,0,179
3,76,127,1
3,76,0,59
3,76,127,1
3,76,0,119
3,74,127,1
3,74,0,59
3,74,127,1
3,74,0,59
3,74,127,1
3,74,0,119
3,71,127,61
3,71,0,59
3,74,127,1
3,74,0,59
3,76,127,1
3,76,0,119
3,67,127,1
3,67,0,59
3,67,127,1
3,67,0,179
3,76,127,1
3,76,0,59
3,76,127,1
3,76,0,179
3,78,127,1
3,78,0,59
3,78,127,1
3,78,0,89
