track,note,velocity,time
0,57,100,0
0,64,100,0
0,52,100,0
0,52,100,4
0,44,110,1536
0,24,100,0
0,45,127,0
0,44,0,44
0,62,127,148
0,44,110,0
0,77,127,0
0,44,0,44
0,44,110,128
0,54,120,0
0,52,100,0
0,60,100,0
0,54,0,44
0,44,0,4
0,62,127,4
0,54,100,0
0,62,100,0
0,77,127,0
0,44,110,4
0,44,0,44
0,55,100,52
0,64,100,0
0,62,127,4
0,44,110,0
0,77,127,0
0,44,0,40
0,54,100,32
0,62,100,0
0,44,110,4
0,44,0,96
0,62,127,0
0,44,110,0
0,52,100,0
0,60,100,0
0,77,127,0
0,44,0,36
0,44,110,32
0,54,120,0
0,44,0,40
0,54,0,0
0,44,110,56
0,44,0,40
0,62,127,4
0,44,100,0
0,77,127,0
0,44,110,4
0,43,100,0
0,44,0,48
0,62,127,144
0,44,110,0
0,47,100,0
0,77,127,0
0,44,0,44
0,44,110,32
0,50,100,0
0,44,0,44
0,44,110,52
0,54,120,0
0,54,0,40
0,44,0,8
0,62,127,48
0,59,100,0
0,77,127,0
0,44,110,4
0,44,0,44
0,42,100,4
0,62,127,96
0,44,110,0
0,77,127,0
0,44,0,44
0,45,100,32
0,44,110,96
0,44,0,40
0,62,127,56
0,44,110,0
0,62,100,0
0,77,127,0
0,44,0,40
0,44,110,32
0,54,120,0
0,44,0,44
0,54,0,4
0,57,100,4
0,62,127,96
0,44,110,0
0,45,100,0
0,77,127,0
0,44,0,40
0,44,110,4
0,24,100,0
0,45,100,0
0,44,0,48
0,62,127,144
0,44,110,0
0,77,127,0
0,44,0,44
0,44,110,128
0,54,120,0
0,52,100,0
0,60,100,0
0,44,0,40
0,54,0,8
0,62,127,4
0,54,100,0
0,62,100,0
0,77,127,0
0,44,110,12
0,44,0,28
0,44,110,60
0,55,100,0
0,64,100,0
0,44,0,36
0,62,127,4
0,44,110,0
0,77,127,0
0,44,0,32
0,54,100,32
0,62,100,0
0,44,110,4
0,44,0,36
0,62,127,60
0,44,110,0
0,52,100,0
0,60,100,0
0,77,127,0
0,44,0,32
0,44,110,32
0,54,120,0
0,44,0,32
0,54,0,12
0,44,110,52
0,44,0,32
0,62,127,4
0,44,100,0
0,77,127,0
0,44,110,4
0,50,100,0
0,44,0,48
0,62,127,144
0,44,110,0
0,57,100,0
0,77,127,0
0,44,0,44
0,62,100,32
0,44,110,96
0,54,120,0
0,44,0,40
0,54,0,4
0,62,127,4
0,44,110,0
0,57,100,0
0,77,127,0
0,44,0,36
0,44,110,32
0,44,0,40
0,67,100,56
0,62,127,96
0,44,110,0
0,77,127,0
0,44,0,40
0,67,100,4
0,67,100,4
0,44,110,4
0,66,100,0
0,44,0,48
0,62,127,4
0,44,100,0
0,64,100,0
0,77,127,0
0,54,120,32
0,57,100,0
0,44,110,56
0,44,0,40
0,62,127,56
0,44,110,0
0,50,100,0
0,77,127,0
0,44,0,44
0,44,110,4
0,24,100,0
0,45,100,0
0,44,0,48
0,62,127,100
0,44,110,0
0,77,127,0
0,44,0,48
0,44,110,128
0,54,120,0
0,52,100,0
0,60,100,0
0,44,0,48
0,54,0,0
0,62,127,4
0,54,100,0
0,62,100,0
0,77,127,0
0,44,110,4
0,44,0,52
0,55,100,44
0,64,100,0
0,62,127,4
0,44,110,0
0,77,127,0
0,54,100,0
0,62,100,0
0,44,110,4
0,44,0,48
0,62,127,48
0,44,100,0
0,52,100,0
0,60,100,0
0,77,127,0
0,44,0,56
0,54,120,32
0,54,0,44
0,44,110,52
0,44,0,40
0,62,127,4
0,44,110,0
0,77,127,0
0,44,0,40
0,44,110,4
0,44,0,44
0,44,110,4
0,43,100,0
0,55,80,0
0,44,0,44
0,62,127,148
0,44,110,0
0,47,100,0
0,77,127,0
0,44,0,40
0,44,110,32
0,50,100,0
0,44,0,40
0,44,110,56
0,54,120,0
0,44,0,36
0,54,0,12
0,62,127,48
0,59,100,0
0,77,127,0
0,44,110,4
0,44,0,40
0,42,100,4
0,62,127,4
0,44,110,0
0,77,127,0
0,54,80,0
0,44,0,36
0,44,110,32
0,45,100,0
0,44,0,40
0,44,110,56
0,44,0,44
0,62,127,52
0,44,100,0
0,62,100,0
0,77,127,0
0,54,120,24
0,54,0,44
0,44,110,4
0,57,100,0
0,44,0,36
0,62,127,60
0,44,110,0
0,45,100,0
0,77,127,0
0,44,0,40
0,44,110,4
0,40,100,0
0,55,80,0
0,44,0,40
0,44,110,56
0,44,0,44
0,62,127,52
0,44,110,0
0,43,100,0
0,77,127,0
0,44,0,36
0,47,100,32
0,44,110,96
0,54,120,0
0,44,0,36
0,54,0,8
0,62,127,52
0,52,100,0
0,77,127,0
0,44,110,4
0,44,0,40
0,42,100,4
0,62,127,4
0,44,110,0
0,77,127,0
0,57,80,0
0,44,0,36
0,45,100,32
0,44,110,96
0,44,0,36
0,62,127,60
0,44,110,0
0,62,100,0
0,77,127,0
0,44,0,32
0,44,110,16
0,44,110,4
0,54,120,0
0,62,80,0
0,44,0,32
0,54,0,12
0,57,100,4
0,62,127,96
0,44,100,0
0,45,100,0
0,77,127,0
0,44,0,60
0,60,100,4
0,48,100,0
0,52,100,0
0,55,100,0
0,62,100,0
0,43,100,0
0,62,70,0
0,60,70,0
0,55,70,0
0,60,100,960
0,39,100,192
0,35,100,12
0,39,100,32
0,35,100,32
0,39,100,0
0,35,100,4
0,57,100,0
0,44,110,0
0,64,100,0
0,60,100,0
0,52,100,0
0,48,100,0
0,45,100,0
0,33,100,0
0,44,0,44
0,62,127,64
0,44,110,0
0,77,127,0
0,44,0,44
0,45,100,4
0,48,100,0
0,52,100,0
0,60,100,0
0,64,100,0
0,33,100,0
0,44,110,4
0,54,120,0
0,39,95,0
0,40,110,0
0,54,0,44
0,44,0,4
0,39,0,8
0,40,0,0
0,62,127,40
0,35,100,0
0,45,100,0
0,48,100,0
0,52,100,0
0,60,100,0
0,64,100,0
0,28,100,0
0,77,127,0
0,35,100,4
0,44,110,0
0,31,100,0
0,44,0,44
0,48,100,4
0,45,100,0
0,52,100,0
0,60,100,0
0,64,100,0
0,33,100,0
0,62,127,4
0,35,100,0
0,44,110,0
0,52,100,0
0,45,100,0
0,48,100,0
0,60,100,0
0,64,100,0
0,77,127,0
0,44,0,40
0,31,100,32
0,44,110,4
0,33,100,0
0,62,127,0
0,44,110,0
0,45,100,0
0,48,100,0
0,52,100,0
0,60,100,0
0,64,100,0
0,77,127,0
0,44,0,36
0,44,110,32
0,54,120,0
0,39,95,0
0,40,110,0
0,44,0,40
0,54,0,0
0,39,0,20
0,40,0,0
0,44,110,36
0,45,100,0
0,48,100,0
0,52,100,0
0,60,100,0
0,64,100,0
0,44,0,40
0,62,127,4
0,44,100,0
0,31,100,0
0,77,127,0
0,48,100,4
0,45,100,0
0,52,100,0
0,60,100,0
0,64,100,0
0,33,100,0
0,35,100,4
0,44,110,0
0,50,100,0
0,55,100,0
0,59,100,0
0,62,100,0
0,67,100,0
0,31,100,0
0,44,0,48
0,62,127,128
0,44,110,0
0,77,127,0
0,44,0,44
0,44,110,4
0,50,100,0
0,55,100,0
0,59,100,0
0,62,100,0
0,67,100,0
0,31,100,0
0,44,0,44
0,44,110,4
0,54,120,0
0,39,95,0
0,40,110,0
0,54,0,40
0,44,0,8
0,39,0,8
0,40,0,0
0,62,127,40
0,35,100,0
0,77,127,0
0,35,100,4
0,44,110,0
0,44,0,44
0,50,100,32
0,62,100,0
0,54,100,0
0,57,100,0
0,66,100,0
0,26,100,0
0,62,127,4
0,35,100,0
0,44,110,0
0,77,127,0
0,44,0,44
0,50,100,32
0,62,100,0
0,54,100,0
0,57,100,0
0,66,100,0
0,44,110,4
0,44,0,40
0,62,127,4
0,44,110,0
0,50,100,0
0,64,100,0
0,54,100,0
0,59,100,0
0,67,100,0
0,26,100,0
0,77,127,0
0,44,0,40
0,44,110,4
0,54,120,0
0,39,95,0
0,40,110,0
0,38,100,0
0,44,0,44
0,54,0,4
0,39,0,4
0,40,0,0
0,50,100,4
0,54,100,0
0,57,100,0
0,62,100,0
0,66,100,0
0,62,127,96
0,44,110,0
0,35,100,0
0,77,127,0
0,44,0,40
0,36,100,4
0,35,100,4
0,44,110,0
0,64,100,0
0,60,100,0
0,52,100,0
0,48,100,0
0,45,100,0
0,33,100,0
0,44,0,48
0,62,127,64
0,44,110,0
0,77,127,0
0,44,0,44
0,45,100,4
0,48,100,0
0,52,100,0
0,60,100,0
0,64,100,0
0,33,100,0
0,44,110,4
0,54,120,0
0,39,95,0
0,40,110,0
0,44,0,40
0,54,0,8
0,39,0,8
0,40,0,0
0,62,127,40
0,35,100,0
0,45,100,0
0,48,100,0
0,52,100,0
0,60,100,0
0,64,100,0
0,28,100,0
0,77,127,0
0,35,100,4
0,31,100,0
0,44,110,8
0,44,0,28
0,44,110,4
0,48,100,0
0,45,100,0
0,52,100,0
0,60,100,0
0,64,100,0
0,33,100,0
0,62,127,4
0,35,100,0
0,44,110,0
0,52,100,0
0,45,100,0
0,48,100,0
0,60,100,0
0,64,100,0
0,77,127,0
0,44,0,32
0,31,100,32
0,44,110,4
0,33,100,0
0,44,0,36
0,62,127,4
0,44,110,0
0,45,100,0
0,48,100,0
0,52,100,0
0,60,100,0
0,64,100,0
0,77,127,0
0,44,0,32
0,44,110,32
0,54,120,0
0,39,95,0
0,40,110,0
0,44,0,32
0,54,0,12
0,39,0,12
0,40,0,0
0,44,110,40
0,45,100,0
0,48,100,0
0,52,100,0
0,60,100,0
0,64,100,0
0,44,0,32
0,62,127,4
0,44,100,0
0,31,100,0
0,77,127,0
0,48,100,4
0,45,100,0
0,52,100,0
0,60,100,0
0,64,100,0
0,33,100,0
0,35,100,4
0,44,110,0
0,62,100,0
0,57,100,0
0,54,100,0
0,50,100,0
0,66,100,0
0,26,100,0
0,44,0,48
0,62,127,128
0,44,110,0
0,77,127,0
0,44,0,44
0,50,100,4
0,54,100,0
0,57,100,0
0,62,100,0
0,66,100,0
0,26,100,0
0,44,110,4
0,54,120,0
0,39,95,0
0,40,110,0
0,44,0,40
0,54,0,4
0,39,0,12
0,40,0,0
0,62,127,4
0,35,100,0
0,44,110,0
0,77,127,0
0,44,0,36
0,35,100,32
0,44,110,0
0,50,100,0
0,55,100,0
0,59,100,0
0,62,100,0
0,67,100,0
0,38,100,0
0,44,0,40
0,50,100,4
0,55,100,0
0,59,100,0
0,62,100,0
0,67,100,0
0,38,100,0
0,62,127,96
0,35,100,0
0,44,110,0
0,77,127,0
0,44,0,40
0,50,100,4
0,54,100,0
0,57,100,0
0,62,100,0
0,66,100,0
0,35,100,0
0,44,110,96
0,44,0,48
0,62,127,4
0,44,100,0
0,36,100,0
0,77,127,0
0,44,0,60
0,54,120,4
0,39,95,0
0,40,110,0
0,50,100,0
0,55,100,0
0,59,100,0
0,62,100,0
0,67,100,0
0,54,0,40
0,39,0,12
0,40,0,0
0,44,110,4
0,50,100,0
0,54,100,0
0,57,100,0
0,62,100,0
0,66,100,0
0,35,100,0
0,44,0,40
0,62,127,4
0,44,110,0
0,31,100,0
0,77,127,0
0,44,0,44
0,28,100,4
0,35,100,4
0,44,110,0
0,64,100,0
0,60,100,0
0,52,100,0
0,48,100,0
0,45,100,0
0,33,100,0
0,44,0,48
0,62,127,64
0,44,110,0
0,77,127,0
0,44,0,48
0,45,100,4
0,48,100,0
0,52,100,0
0,60,100,0
0,64,100,0
0,33,100,0
0,44,110,4
0,54,120,0
0,39,95,0
0,40,110,0
0,44,0,48
0,54,0,0
0,39,0,4
0,40,0,0
0,62,127,44
0,35,100,0
0,45,100,0
0,48,100,0
0,52,100,0
0,60,100,0
0,64,100,0
0,28,100,0
0,77,127,0
0,35,100,4
0,44,110,0
0,31,100,0
0,44,0,52
0,48,100,4
0,45,100,0
0,52,100,0
0,60,100,0
0,64,100,0
0,33,100,0
0,62,127,4
0,35,100,0
0,44,110,0
0,52,100,0
0,45,100,0
0,48,100,0
0,60,100,0
0,64,100,0
0,77,127,0
0,31,100,0
0,44,110,4
0,33,100,0
0,44,0,48
0,62,127,4
0,46,100,0
0,45,100,0
0,48,100,0
0,52,100,0
0,60,100,0
0,64,100,0
0,77,127,0
0,54,120,32
0,39,95,0
0,40,110,0
0,54,0,44
0,39,0,4
0,40,0,0
0,44,110,48
0,45,100,0
0,48,100,0
0,52,100,0
0,60,100,0
0,64,100,0
0,44,0,40
0,62,127,4
0,44,110,0
0,31,100,0
0,77,127,0
0,44,0,40
0,44,110,4
0,48,100,0
0,45,100,0
0,52,100,0
0,60,100,0
0,64,100,0
0,33,100,0
0,44,0,44
0,35,100,4
0,44,110,0
0,50,100,0
0,55,100,0
0,59,100,0
0,62,100,0
0,67,100,0
0,31,100,0
0,44,0,44
0,62,127,128
0,44,110,0
0,77,127,0
0,44,0,40
0,44,110,4
0,50,100,0
0,55,100,0
0,59,100,0
0,62,100,0
0,67,100,0
0,31,100,0
0,44,0,40
0,44,110,4
0,54,120,0
0,39,95,0
0,40,110,0
0,44,0,36
0,54,0,12
0,39,0,0
0,40,0,0
0,62,127,48
0,35,100,0
0,77,127,0
0,35,100,32
0,44,110,0
0,44,0,40
0,50,100,32
0,62,100,0
0,54,100,0
0,57,100,0
0,66,100,0
0,30,100,0
0,62,127,4
0,35,100,0
0,44,110,0
0,77,127,0
0,44,0,36
0,44,110,32
0,50,100,0
0,62,100,0
0,54,100,0
0,57,100,0
0,66,100,0
0,28,100,0
0,44,0,40
0,44,110,4
0,30,100,0
0,44,0,44
0,62,127,52
0,44,100,0
0,50,100,0
0,64,100,0
0,54,100,0
0,59,100,0
0,67,100,0
0,77,127,0
0,54,120,4
0,39,95,0
0,40,110,0
0,54,0,44
0,39,0,4
0,40,0,0
0,44,110,48
0,50,100,0
0,54,100,0
0,57,100,0
0,62,100,0
0,66,100,0
0,44,0,36
0,62,127,4
0,44,110,0
0,26,100,0
0,77,127,0
0,44,0,40
0,35,100,4
0,44,110,0
0,43,100,0
0,60,100,0
0,52,100,0
0,55,100,0
0,64,100,0
0,28,100,0
0,55,80,0
0,44,0,40
0,44,110,56
0,62,127,52
0,44,110,0
0,77,127,0
0,44,0,36
0,44,110,4
0,54,120,0
0,39,95,0
0,40,110,0
0,43,100,0
0,60,100,0
0,52,100,0
0,55,100,0
0,64,100,0
0,44,0,36
0,54,0,8
0,39,0,8
0,40,0,0
0,62,127,44
0,35,100,0
0,77,127,0
0,35,100,4
0,44,110,0
0,26,100,0
0,44,0,40
0,30,100,4
0,62,127,4
0,35,100,0
0,44,110,0
0,45,100,0
0,62,100,0
0,54,100,0
0,57,100,0
0,66,100,0
0,77,127,0
0,57,80,0
0,44,0,36
0,44,110,64
0,44,0,36
0,62,127,60
0,44,110,0
0,77,127,0
0,44,0,32
0,44,110,16
0,44,110,4
0,54,120,0
0,39,95,0
0,40,110,0
0,45,100,0
0,62,100,0
0,54,100,0
0,57,100,0
0,66,100,0
0,44,0,32
0,54,0,12
0,39,0,8
0,40,0,0
0,62,127,100
0,44,100,0
0,31,100,0
0,77,127,0
0,44,0,60
0,24,100,4
0,35,100,4
0,57,105,0
0,44,110,0
0,67,100,0
0,60,100,0
0,55,100,0
0,52,100,0
0,48,100,0
0,24,100,0
0,62,80,0
0,55,80,0
0,57,0,20
0,44,0,28
0,62,127,128
0,44,110,0
0,77,127,0
0,44,0,40
0,24,100,4
0,44,110,4
0,54,120,0
0,39,95,0
0,40,110,0
0,67,100,0
0,60,100,0
0,55,100,0
0,52,100,0
0,48,100,0
0,44,0,44
0,54,0,4
0,39,0,0
0,40,0,0
0,62,127,48
0,35,100,0
0,77,127,0
0,35,100,4
0,44,110,0
0,44,0,48
0,67,100,32
0,60,100,0
0,55,100,0
0,52,100,0
0,48,100,0
0,24,100,0
0,62,127,96
0,35,100,0
0,77,127,0
0,67,100,4
0,60,100,0
0,55,100,0
0,52,100,0
0,48,100,0
0,44,110,4
0,67,100,0
0,60,100,0
