track,note,velocity,time
1,48,100,1536
1,48,100,128
1,51,100,128
1,48,100,64
1,46,100,320
1,48,100,64
1,51,100,64
1,48,100,64
1,48,100,128
1,60,100,64
1,48,100,64
1,48,100,64
1,48,100,128
1,51,100,128
1,48,100,64
1,46,100,320
1,48,100,64
1,51,100,64
1,48,100,64
1,48,100,128
1,60,100,64
1,48,100,64
1,48,100,64
1,48,100,128
1,51,100,128
1,48,100,64
1,46,100,320
1,48,100,64
1,51,100,64
1,48,100,64
1,48,100,6592
1,48,100,128
1,51,100,128
1,48,100,64
1,46,100,320
1,48,100,64
1,51,100,64
1,48,100,64
1,48,100,3776
1,48,100,128
1,51,100,128
1,48,100,64
1,46,100,320
1,48,100,64
1,51,100,64
1,48,100,64
1,48,100,6848
1,48,100,128
1,51,100,128
1,48,100,64
1,46,100,320
1,48,100,64
1,51,100,64
1,48,100,64
1,48,100,448
1,48,100,128
1,51,100,128
1,48,100,64
1,46,100,320
1,48,100,64
1,51,100,64
1,48,100,64
1,48,100,448
1,48,100,128
1,51,100,128
1,48,100,64
1,46,100,320
1,48,100,64
1,51,100,64
1,48,100,64
1,48,100,3520
1,48,100,128
1,51,100,128
1,48,100,64
1,46,100,320
1,48,100,64
1,51,100,64
1,48,100,64
1,48,100,3520
1,48,100,128
1,51,100,128
1,48,100,64
1,46,100,320
1,48,100,64
1,51,100,64
1,48,100,64
1,48,100,3776
1,48,100,128
1,51,100,128
1,48,100,64
1,46,100,320
1,48,100,64
1,51,100,64
1,48,100,64
1,48,100,6848
1,48,100,128
1,51,100,128
1,48,100,64
1,46,100,320
1,48,100,64
1,51,100,64
1,48,100,64
1,48,100,448
1,48,100,128
1,51,100,128
1,48,100,64
1,46,100,320
1,48,100,64
1,51,100,64
1,48,100,64
1,48,100,448
1,48,100,128
1,51,100,128
1,48,100,64
1,46,100,320
1,48,100,64
1,51,100,64
1,48,100,64
1,48,100,3520
1,48,100,128
1,51,100,128
1,48,100,64
1,46,100,320
1,48,100,64
1,51,100,64
1,48,100,64
1,48,100,17344
1,48,100,128
1,51,100,128
1,48,100,64
1,46,100,320
1,48,100,64
1,51,100,64
1,48,100,64
1,48,100,448
1,48,100,128
1,51,100,128
1,48,100,64
1,46,100,320
1,48,100,64
1,51,100,64
1,48,100,64
1,48,100,448
1,48,100,128
1,51,100,128
1,48,100,64
1,46,100,320
1,48,100,64
1,51,100,64
1,48,100,64
1,48,100,15808
1,48,100,128
1,51,100,128
1,48,100,64
1,46,100,320
1,48,100,64
1,51,100,64
1,48,100,64
1,48,100,448
1,48,100,128
1,51,100,128
1,48,100,64
1,46,100,320
1,48,100,64
1,51,100,64
1,48,100,64
1,48,100,448
1,48,100,128
1,51,100,128
1,48,100,64
1,46,100,320
1,48,100,64
1,51,100,64
1,48,100,64
1,48,100,3520
1,48,100,128
1,51,100,128
1,48,100,64
1,46,100,320
1,48,100,64
1,51,100,64
1,48,100,64
1,48,100,448
1,48,100,128
1,51,100,128
1,48,100,64
1,46,100,320
1,48,100,64
1,51,100,64
1,48,100,64
1,48,100,448
1,48,100,128
1,51,100,128
1,48,100,64
1,46,100,320
1,48,100,64
1,51,100,64
1,48,100,64
2,42,100,0
2,42,100,128
2,42,100,128
2,42,100,128
2,46,100,3008
2,46,100,32
2,42,100,32
2,56,100,0
2,46,100,0
2,42,100,128
2,56,100,0
2,46,100,0
2,42,100,128
2,56,100,0
2,46,100,0
2,42,100,128
2,56,100,0
2,46,100,0
2,42,100,128
2,56,100,0
2,46,100,0
2,42,100,128
2,56,100,0
2,46,100,0
2,42,100,128
2,40,100,0
2,56,100,0
2,46,100,0
2,40,100,64
2,40,100,64
2,56,100,0
2,46,100,0
2,40,100,32
2,40,100,32
2,40,100,32
2,36,100,32
2,42,100,0
2,49,100,0
2,56,100,0
2,42,100,64
2,38,100,64
2,36,100,0
2,42,100,0
2,56,100,0
2,36,100,64
2,42,100,0
2,42,100,64
2,36,100,0
2,56,100,0
2,36,100,64
2,42,100,0
2,56,100,0
2,36,100,28
2,56,100,0
2,36,100,32
2,38,100,0
2,42,100,0
2,56,100,0
2,42,100,64
2,56,100,0
2,36,100,64
2,42,100,0
2,56,100,0
2,42,100,64
2,38,100,64
2,36,100,0
2,42,100,0
2,56,100,0
2,36,100,64
2,42,100,0
2,42,100,64
2,36,100,0
2,56,100,0
2,36,100,64
2,42,100,0
2,56,100,0
2,36,100,32
2,56,100,0
2,36,100,32
2,38,100,0
2,42,100,0
2,56,100,0
2,42,100,64
2,56,100,0
2,36,100,64
2,42,100,0
2,56,100,0
2,49,100,0
2,42,100,64
2,38,100,64
2,36,100,0
2,42,100,0
2,56,100,0
2,36,100,64
2,42,100,0
2,42,100,64
2,36,100,0
2,56,100,0
2,36,100,64
2,42,100,0
2,56,100,0
2,36,100,28
2,56,100,0
2,36,100,32
2,38,100,0
2,42,100,0
2,56,100,0
2,42,100,64
2,56,100,0
2,36,100,64
2,42,100,0
2,56,100,0
2,42,100,64
2,38,100,64
2,36,100,0
2,42,100,0
2,56,100,0
2,36,100,64
2,42,100,0
2,42,100,64
2,36,100,0
2,56,100,0
2,36,100,64
2,42,100,0
2,56,100,0
2,36,100,32
2,56,100,0
2,36,100,32
2,38,100,0
2,42,100,0
2,56,100,0
2,42,100,64
2,56,100,0
2,36,100,1024
2,40,100,64
2,36,100,128
2,42,100,0
2,56,100,0
2,42,100,64
2,38,100,64
2,36,100,0
2,42,100,0
2,56,100,0
2,36,100,64
2,42,100,0
2,42,100,64
2,36,100,0
2,56,100,0
2,36,100,64
2,42,100,0
2,56,100,0
2,36,100,32
2,56,100,0
2,36,100,32
2,38,100,0
2,42,100,0
2,56,100,0
2,42,100,64
2,56,100,0
2,36,100,64
2,42,100,0
2,56,100,0
2,49,100,0
2,42,100,64
2,38,100,64
2,36,100,0
2,42,100,0
2,56,100,0
2,36,100,64
2,42,100,0
2,42,100,64
2,36,100,0
2,56,100,0
2,36,100,64
2,42,100,0
2,56,100,0
2,36,100,28
2,56,100,0
2,36,100,32
2,38,100,0
2,42,100,0
2,56,100,0
2,42,100,64
2,56,100,0
2,36,100,64
2,42,100,0
2,56,100,0
2,42,100,64
2,38,100,64
2,36,100,0
2,42,100,0
2,56,100,0
2,36,100,64
2,42,100,0
2,42,100,64
2,36,100,0
2,56,100,0
2,36,100,64
2,42,100,0
2,56,100,0
2,36,100,32
2,56,100,0
2,36,100,32
2,38,100,0
2,42,100,0
2,56,100,0
2,42,100,64
2,56,100,0
2,36,100,64
2,42,100,0
2,56,100,0
2,49,100,0
2,42,100,64
2,38,100,64
2,36,100,0
2,42,100,0
2,56,100,0
2,36,100,64
2,42,100,0
2,42,100,64
2,36,100,0
2,56,100,0
2,36,100,64
2,42,100,0
2,56,100,0
2,36,100,28
2,56,100,0
2,36,100,32
2,38,100,0
2,42,100,0
2,56,100,0
2,42,100,64
2,56,100,0
2,36,100,64
2,42,100,0
2,56,100,0
2,42,100,64
2,38,100,64
2,36,100,0
2,42,100,0
2,56,100,0
2,36,100,64
2,42,100,0
2,42,100,64
2,36,100,0
2,56,100,0
2,36,100,64
2,42,100,0
2,56,100,0
2,36,100,32
2,56,100,0
2,36,100,32
2,38,100,0
2,42,100,0
2,56,100,0
2,42,100,64
2,56,100,0
2,36,100,64
2,42,100,0
2,56,100,0
2,49,100,0
2,42,100,64
2,38,100,64
2,36,100,0
2,42,100,0
2,56,100,0
2,36,100,64
2,42,100,0
2,42,100,64
2,36,100,0
2,56,100,0
2,36,100,64
2,42,100,0
2,56,100,0
2,36,100,28
2,56,100,0
2,36,100,32
2,38,100,0
2,42,100,0
2,56,100,0
2,42,100,64
2,56,100,0
2,36,100,64
2,42,100,0
2,56,100,0
2,42,100,64
2,38,100,64
2,36,100,0
2,42,100,0
2,56,100,0
2,36,100,64
2,42,100,0
2,42,100,64
2,36,100,0
2,56,100,0
2,36,100,64
2,42,100,0
2,56,100,0
2,36,100,32
2,56,100,0
2,36,100,32
2,38,100,0
2,42,100,0
2,56,100,0
2,42,100,64
2,56,100,0
2,36,100,64
2,42,100,0
2,56,100,0
2,49,100,0
2,42,100,64
2,38,100,64
2,36,100,0
2,42,100,0
2,56,100,0
2,36,100,64
2,42,100,0
2,42,100,64
2,36,100,0
2,56,100,0
2,36,100,64
2,42,100,0
2,56,100,0
2,36,100,28
2,56,100,0
2,36,100,32
2,38,100,0
2,42,100,0
2,56,100,0
2,42,100,64
2,56,100,0
2,36,100,64
2,42,100,0
2,56,100,0
2,42,100,64
2,38,100,64
2,36,100,0
2,42,100,0
2,56,100,0
2,36,100,64
2,42,100,0
2,42,100,64
2,36,100,0
2,56,100,0
2,36,100,64
2,42,100,0
2,56,100,0
2,36,100,32
2,56,100,0
2,36,100,32
2,38,100,0
2,42,100,0
2,56,100,0
2,42,100,64
2,56,100,0
2,36,100,64
2,42,100,0
2,56,100,0
2,49,100,0
2,42,100,64
2,38,100,64
2,36,100,0
2,42,100,0
2,56,100,0
2,36,100,64
2,42,100,0
2,42,100,64
2,36,100,0
2,56,100,0
2,36,100,64
2,42,100,0
2,56,100,0
2,36,100,28
2,56,100,0
2,36,100,32
2,38,100,0
2,42,100,0
2,56,100,0
2,42,100,64
2,56,100,0
2,42,100,64
2,56,100,0
2,42,100,128
2,56,100,0
2,42,100,128
2,56,100,0
2,42,100,256
2,56,100,0
2,36,100,128
2,42,100,0
2,49,100,0
2,56,100,0
2,42,100,64
2,38,100,64
2,36,100,0
2,42,100,0
2,56,100,0
2,36,100,64
2,42,100,0
2,42,100,64
2,36,100,0
2,56,100,0
2,36,100,64
2,42,100,0
2,56,100,0
2,36,100,28
2,56,100,0
2,36,100,32
2,38,100,0
2,42,100,0
2,56,100,0
2,42,100,64
2,56,100,0
2,36,100,64
2,42,100,0
2,56,100,0
2,42,100,64
2,38,100,64
2,36,100,0
2,42,100,0
2,56,100,0
2,36,100,64
2,42,100,0
2,42,100,64
2,36,100,0
2,56,100,0
2,36,100,64
2,42,100,0
2,56,100,0
2,36,100,32
2,56,100,0
2,36,100,32
2,38,100,0
2,42,100,0
2,56,100,0
2,42,100,64
2,56,100,0
2,36,100,64
2,42,100,0
2,49,100,0
2,56,100,0
2,42,100,64
2,38,100,64
2,36,100,0
2,42,100,0
2,56,100,0
2,36,100,64
2,42,100,0
2,42,100,64
2,36,100,0
2,56,100,0
2,36,100,64
2,42,100,0
2,56,100,0
2,36,100,28
2,56,100,0
2,36,100,32
2,38,100,0
2,42,100,0
2,56,100,0
2,42,100,64
2,56,100,0
2,36,100,64
2,42,100,0
2,56,100,0
2,42,100,64
2,38,100,64
2,36,100,0
2,42,100,0
2,56,100,0
2,36,100,64
2,42,100,0
2,42,100,64
2,36,100,0
2,56,100,0
2,36,100,64
2,42,100,0
2,56,100,0
2,36,100,32
2,56,100,0
2,36,100,32
2,38,100,0
2,42,100,0
2,56,100,0
2,42,100,64
2,56,100,0
2,36,100,64
2,42,100,0
2,49,100,0
2,56,100,0
2,42,100,64
2,38,100,64
2,36,100,0
2,42,100,0
2,56,100,0
2,36,100,64
2,42,100,0
2,42,100,64
2,36,100,0
2,56,100,0
2,36,100,64
2,42,100,0
2,56,100,0
2,36,100,28
2,56,100,0
2,36,100,32
2,38,100,0
2,42,100,0
2,56,100,0
2,42,100,64
2,56,100,0
2,36,100,64
2,42,100,0
2,56,100,0
2,42,100,64
2,38,100,64
2,36,100,0
2,42,100,0
2,56,100,0
2,36,100,64
2,42,100,0
2,42,100,64
2,36,100,0
2,56,100,0
2,36,100,64
2,42,100,0
2,56,100,0
2,36,100,32
2,56,100,0
2,36,100,32
2,38,100,0
2,42,100,0
2,56,100,0
2,42,100,64
2,56,100,0
2,36,100,64
2,42,100,0
2,56,100,0
2,49,100,0
2,42,100,64
2,38,100,64
2,36,100,0
2,42,100,0
2,56,100,0
2,36,100,64
2,42,100,0
2,42,100,64
2,36,100,0
2,56,100,0
2,36,100,64
2,42,100,0
2,56,100,0
2,36,100,28
2,56,100,0
2,36,100,32
2,38,100,0
2,42,100,0
2,56,100,0
2,42,100,64
2,56,100,0
2,36,100,64
2,42,100,0
2,56,100,0
2,42,100,64
2,38,100,64
2,36,100,0
2,42,100,0
2,56,100,0
2,36,100,64
2,42,100,0
2,42,100,64
2,36,100,0
2,56,100,0
2,36,100,64
2,42,100,0
2,56,100,0
2,36,100,32
2,56,100,0
2,36,100,32
2,38,100,0
2,42,100,0
2,56,100,0
2,42,100,64
2,56,100,0
2,36,100,64
2,42,100,0
2,49,100,0
2,56,100,0
2,42,100,64
2,38,100,64
2,36,100,0
2,42,100,0
2,56,100,0
2,36,100,64
2,42,100,0
2,42,100,64
2,36,100,0
2,56,100,0
2,36,100,64
2,42,100,0
2,56,100,0
2,36,100,28
2,56,100,0
2,36,100,32
2,38,100,0
2,42,100,0
2,56,100,0
2,42,100,64
2,56,100,0
2,36,100,64
2,42,100,0
2,56,100,0
2,42,100,64
2,38,100,64
2,36,100,0
2,42,100,0
2,56,100,0
2,36,100,64
2,42,100,0
2,42,100,64
2,36,100,0
2,56,100,0
2,36,100,64
2,42,100,0
2,56,100,0
2,36,100,32
2,56,100,0
2,36,100,32
2,38,100,0
2,42,100,0
2,56,100,0
2,42,100,64
2,56,100,0
2,36,100,64
2,42,100,0
2,56,100,0
2,49,100,0
2,42,100,64
2,38,100,64
2,36,100,0
2,42,100,0
2,56,100,0
2,36,100,64
2,42,100,0
2,42,100,64
2,36,100,0
2,56,100,0
2,36,100,64
2,42,100,0
2,56,100,0
2,36,100,28
2,56,100,0
2,36,100,32
2,38,100,0
2,42,100,0
2,56,100,0
2,42,100,64
2,56,100,0
2,36,100,64
2,42,100,0
2,56,100,0
2,42,100,64
2,38,100,64
2,36,100,0
2,42,100,0
2,56,100,0
2,36,100,64
2,42,100,0
2,42,100,64
2,36,100,0
2,56,100,0
2,36,100,64
2,42,100,0
2,56,100,0
2,36,100,32
2,56,100,0
2,36,100,32
2,38,100,0
2,42,100,0
2,56,100,0
2,42,100,64
2,56,100,0
2,36,100,64
2,42,100,0
2,56,100,0
2,49,100,0
2,42,100,64
2,38,100,64
2,36,100,0
2,42,100,0
2,56,100,0
2,36,100,64
2,42,100,0
2,42,100,64
2,36,100,0
2,56,100,0
2,36,100,64
2,42,100,0
2,56,100,0
2,36,100,28
2,56,100,0
2,36,100,32
2,38,100,0
2,42,100,0
2,56,100,0
2,42,100,64
2,56,100,0
2,36,100,64
2,42,100,0
2,56,100,0
2,42,100,64
2,38,100,64
2,36,100,0
2,42,100,0
2,56,100,0
2,36,100,64
2,42,100,0
2,42,100,64
2,36,100,0
2,56,100,0
2,36,100,64
2,42,100,0
2,56,100,0
2,36,100,32
2,56,100,0
2,36,100,32
2,38,100,0
2,42,100,0
2,56,100,0
2,42,100,64
2,56,100,0
2,36,100,64
2,42,100,0
2,56,100,0
2,49,100,0
2,42,100,64
2,38,100,64
2,36,100,0
2,42,100,0
2,56,100,0
2,36,100,64
2,42,100,0
2,42,100,64
2,36,100,0
2,56,100,0
2,36,100,64
2,42,100,0
2,56,100,0
2,36,100,28
2,56,100,0
2,36,100,32
2,38,100,0
2,42,100,0
2,56,100,0
2,42,100,64
2,56,100,0
2,36,100,64
2,42,100,0
2,56,100,0
2,42,100,64
2,38,100,64
2,36,100,0
2,42,100,0
2,56,100,0
2,36,100,64
2,42,100,0
2,42,100,64
2,36,100,0
2,56,100,0
2,36,100,64
2,42,100,0
2,56,100,0
2,36,100,32
2,56,100,0
2,36,100,32
2,38,100,0
2,42,100,0
2,56,100,0
2,42,100,64
2,56,100,0
2,36,100,64
2,42,100,0
2,56,100,0
2,49,100,0
2,42,100,64
2,38,100,64
2,36,100,0
2,42,100,0
2,56,100,0
2,36,100,64
2,42,100,0
2,42,100,64
2,36,100,0
2,56,100,0
2,36,100,64
2,42,100,0
2,56,100,0
2,36,100,28
2,56,100,0
2,36,100,32
2,38,100,0
2,42,100,0
