track,note,velocity,time
0,42,93,0
0,42,0,16
0,42,90,60
0,42,0,11
0,42,90,109
0,42,0,10
0,42,93,110
0,42,0,8
0,44,38,58
0,44,0,11
0,73,66,49
0,78,50,0
0,69,50,0
0,73,0,19
0,78,0,1
0,69,0,17
0,69,50,23
0,73,78,0
0,78,50,0
0,73,0,23
0,78,0,0
0,69,0,18
0,69,50,19
0,73,73,0
0,78,50,0
0,78,0,18
0,73,0,3
0,69,0,3
0,44,42,36
0,73,86,0
0,78,50,0
0,69,50,0
0,44,0,9
0,73,0,16
0,69,0,9
0,78,0,7
0,69,50,19
0,73,75,0
0,78,50,0
0,78,0,16
0,73,0,6
0,69,0,2
0,69,50,96
0,73,77,0
0,78,50,0
0,78,0,24
0,69,0,9
0,73,0,21
0,62,53,4
0,44,43,2
0,69,50,0
0,74,77,0
0,78,50,0
0,38,68,0
0,54,41,1
0,66,54,2
0,44,0,5
0,69,0,80
0,69,50,32
0,71,64,0
0,78,50,0
0,74,0,9
0,78,0,2
0,78,0,22
0,69,0,19
0,62,50,8
0,78,50,0
0,69,73,0
0,71,0,3
0,52,62,55
0,54,0,1
0,40,50,0
0,38,0,1
0,44,40,0
0,64,66,0
0,59,60,2
0,62,0,2
0,66,0,1
0,44,0,0
0,78,0,47
0,64,50,8
0,68,67,0
0,76,50,0
0,62,0,3
0,69,0,0
0,66,79,117
0,68,69,30
0,57,76,5
0,66,0,4
0,57,83,3
0,42,61,1
0,49,97,3
0,42,76,1
0,64,0,1
0,54,101,0
0,61,86,0
0,54,56,3
0,52,0,3
0,40,0,0
0,76,0,0
0,61,49,0
0,61,95,1
0,68,0,2
0,66,33,0
0,59,0,1
0,66,86,0
0,44,103,2
0,69,90,0
0,68,0,6
0,64,0,3
0,66,99,0
0,44,0,31
0,44,99,80
0,44,0,42
0,44,93,78
0,44,0,43
0,44,99,77
0,26,127,0
0,66,66,0
0,57,0,24
0,26,0,2
0,44,0,11
0,61,0,2
0,66,0,0
0,69,0,4
0,66,0,17
0,68,70,0
0,52,60,0
0,52,0,30
0,66,0,1
0,54,0,4
0,57,59,10
0,54,52,3
0,62,67,1
0,66,36,1
0,54,0,1
0,57,0,2
0,42,0,0
0,61,0,0
0,61,0,0
0,38,75,1
0,62,77,0
0,66,0,1
0,42,0,2
0,49,0,1
0,68,0,2
0,44,90,0
0,69,92,0
0,54,54,0
0,66,76,4
0,54,0,20
0,44,0,10
0,54,54,26
0,54,0,32
0,69,0,14
0,44,93,3
0,73,104,0
0,44,0,2
0,71,98,36
0,73,0,4
0,64,55,41
0,59,63,0
0,62,0,2
0,52,63,0
0,54,0,4
0,66,0,0
0,40,84,3
0,38,0,6
0,44,96,0
0,44,0,19
0,71,0,41
0,46,84,0
0,69,84,0
0,46,0,11
0,57,0,3
0,62,0,13
0,66,0,1
0,85,45,2
0,85,0,3
0,85,90,12
0,85,0,7
0,69,0,6
0,44,84,2
0,26,127,0
0,85,127,0
0,68,106,0
0,44,0,11
0,85,0,2
0,26,0,2
0,36,66,12
0,66,98,0
0,28,87,0
0,64,70,0
0,64,94,0
0,68,0,9
0,36,0,3
0,64,0,15
0,64,0,2
0,57,90,13
0,57,82,1
0,42,59,1
0,54,92,1
0,49,102,0
0,28,0,1
0,61,84,0
0,54,56,2
0,61,98,0
0,64,0,3
0,52,0,2
0,42,64,0
0,40,0,2
0,66,83,0
0,61,48,1
0,44,107,1
0,57,68,0
0,36,90,0
0,57,63,0
0,30,95,0
0,66,82,0
0,66,43,0
0,54,84,0
0,66,107,0
0,59,0,3
0,66,93,1
0,57,0,12
0,44,0,3
0,36,0,0
0,66,0,2
0,66,0,4
0,30,0,13
0,36,109,22
0,30,97,0
0,66,90,0
0,66,103,0
0,36,0,1
0,66,0,2
0,30,0,2
0,66,0,2
0,44,107,1
0,44,0,1
0,44,103,1
0,44,0,20
0,85,60,40
0,66,0,13
0,85,0,1
0,57,0,20
0,66,0,6
0,61,0,4
0,54,0,7
0,42,0,7
0,44,103,2
0,26,127,0
0,61,0,2
0,44,0,17
0,66,0,4
0,26,0,12
0,49,0,41
0,54,0,4
0,66,0,0
0,42,0,1
0,57,0,0
0,61,0,2
0,57,0,4
0,57,74,12
0,54,0,12
0,62,87,0
0,66,82,8
0,44,103,1
0,57,70,0
0,50,68,0
0,44,0,14
0,44,103,106
0,44,0,15
0,57,0,51
0,66,0,6
0,62,0,2
0,56,77,24
0,59,86,10
0,50,0,8
0,57,0,3
0,44,103,1
0,56,73,0
0,52,75,0
0,64,77,2
0,44,0,10
0,46,96,48
0,46,0,11
0,44,107,49
0,26,127,0
0,44,0,13
0,56,0,15
0,26,0,7
0,59,0,15
0,64,0,5
0,36,62,5
0,28,94,0
0,64,63,0
0,64,99,0
0,36,0,13
0,64,0,10
0,64,0,10
0,28,0,3
0,57,74,5
0,57,95,3
0,52,0,3
0,42,91,0
0,49,102,3
0,54,95,0
0,61,88,0
0,56,0,2
0,61,92,1
0,44,103,7
0,36,99,0
0,57,72,0
0,30,98,0
0,66,78,0
0,54,85,0
0,66,103,0
0,66,95,1
0,66,89,3
0,36,0,14
0,66,0,4
0,66,0,3
0,30,0,11
0,44,0,4
0,36,102,20
0,30,104,0
0,66,67,0
0,66,103,0
0,36,0,26
0,66,0,4
0,30,0,8
0,66,0,0
0,44,99,22
0,44,0,42
0,44,93,78
0,44,0,43
0,85,70,17
0,85,0,14
0,44,99,46
0,26,127,0
0,26,0,35
0,44,0,2
0,57,0,7
0,61,0,4
0,66,0,5
0,57,0,43
0,57,79,10
0,54,0,12
0,62,93,0
0,44,90,2
0,57,70,0
0,50,75,0
0,66,78,5
0,44,0,29
0,44,93,86
0,44,0,24
0,61,0,3
0,49,0,1
0,54,0,1
0,57,0,1
0,42,0,3
0,66,0,2
0,62,0,19
0,57,0,1
0,66,0,0
0,56,85,55
0,44,96,10
0,56,82,0
0,52,79,0
0,59,82,0
0,50,0,2
0,57,0,4
0,64,82,5
0,44,0,8
0,46,84,41
0,46,0,11
0,44,84,49
0,26,127,0
0,44,0,11
0,26,0,24
0,56,0,24
0,52,65,1
0,56,0,10
0,59,0,4
0,64,0,2
0,52,0,16
0,56,66,22
0,44,107,6
0,56,70,0
0,52,75,0
0,52,0,4
0,59,101,0
0,64,91,12
0,44,0,3
0,44,107,101
0,44,0,20
0,54,93,28
0,57,77,8
0,54,87,4
0,62,83,7
0,56,0,8
0,56,0,9
0,59,0,4
0,64,0,0
0,44,103,32
0,50,77,0
0,52,0,4
0,44,0,16
0,85,76,40
0,85,0,11
0,44,103,49
0,26,127,0
0,44,0,19
0,26,0,16
0,57,0,29
0,54,0,1
0,62,0,1
0,54,0,26
0,62,60,5
0,66,72,8
0,50,0,3
0,57,79,2
0,69,69,9
0,44,103,1
0,54,87,0
0,62,87,0
0,49,86,0
0,66,75,6
0,44,0,8
0,57,0,80
0,62,0,10
0,62,0,1
0,69,0,1
0,66,0,0
0,66,0,4
0,44,103,10
0,44,0,15
0,61,62,34
0,65,69,4
0,56,86,1
0,61,101,3
0,54,0,3
0,53,72,0
0,65,40,3
0,68,72,4
0,44,103,1
0,54,79,0
0,54,82,4
0,44,0,8
0,46,96,48
0,49,0,6
0,46,0,5
0,66,96,48
0,44,107,1
0,26,127,0
0,56,86,0
0,54,0,1
0,66,94,1
0,78,96,1
0,56,90,1
0,54,0,7
0,44,0,2
0,61,0,1
0,65,0,3
0,68,0,2
0,53,0,13
0,26,0,3
0,36,70,25
0,68,88,0
0,28,95,0
0,52,70,0
0,64,76,0
0,64,102,0
0,68,93,3
0,80,90,2
0,66,0,1
0,78,0,4
0,36,0,1
0,66,0,4
0,64,0,8
0,64,0,1
0,52,0,2
0,56,0,13
0,65,0,0
0,57,98,0
0,61,0,1
0,28,0,2
0,42,104,4
0,61,104,2
0,54,116,0
0,49,120,0
0,56,0,4
0,56,0,2
0,66,112,3
0,68,0,1
0,66,68,0
0,69,60,1
0,69,90,0
0,44,107,1
0,57,68,0
0,36,92,0
0,30,98,0
0,66,82,0
0,54,62,0
0,42,101,0
0,66,103,0
0,69,84,1
0,80,0,1
0,69,68,0
0,68,0,2
0,73,58,0
0,81,90,0
0,57,0,12
0,36,0,0
0,44,0,3
0,66,0,0
0,69,0,4
0,66,0,0
0,54,0,3
0,30,0,10
0,82,43,24
0,36,102,0
0,30,94,0
0,54,70,0
0,66,82,0
0,66,103,0
0,82,0,11
0,66,0,12
0,36,0,4
0,66,0,0
0,82,45,3
0,54,0,4
0,30,0,3
0,82,0,17
0,44,107,6
0,69,63,0
0,37,99,0
0,37,0,12
0,44,0,8
0,69,0,4
0,82,43,36
0,82,0,12
0,82,44,18
0,82,0,13
0,44,103,17
0,69,56,0
0,69,0,16
0,44,0,4
0,69,56,10
0,69,0,17
0,69,66,13
0,81,60,0
0,81,0,14
0,69,0,11
0,44,103,35
0,69,66,0
0,26,127,0
0,81,0,7
0,69,0,3
0,44,0,9
0,26,0,16
0,69,0,1
0,82,41,24
0,69,0,6
0,82,0,21
0,42,0,9
0,73,0,9
0,44,103,15
0,69,66,0
0,38,85,0
0,73,54,2
0,44,0,12
0,69,0,22
0,82,41,24
0,74,59,0
0,82,0,10
0,73,37,16
0,74,0,2
0,82,32,2
0,49,0,4
0,61,0,3
0,54,0,1
0,42,0,1
0,66,0,2
0,57,0,3
0,82,0,1
0,73,0,7
0,74,62,4
0,44,103,4
0,69,67,0
0,37,107,0
0,37,0,12
0,44,0,3
0,69,0,10
0,74,0,18
0,38,0,17
0,82,31,0
0,40,97,0
0,82,0,9
0,82,40,21
0,82,0,13
0,71,66,16
0,44,103,1
0,69,62,0
0,73,0,2
0,64,68,2
0,68,68,0
0,69,0,5
0,66,0,2
0,44,0,1
0,69,0,6
0,69,59,12
0,69,0,16
0,46,96,14
0,69,71,0
0,68,97,1
0,80,103,1
0,46,0,9
0,69,0,18
0,44,107,31
0,69,67,0
0,26,127,0
0,44,0,13
0,26,0,22
0,69,0,1
0,82,47,24
0,36,65,0
0,28,94,0
0,52,63,0
0,64,76,0
0,64,78,0
0,69,90,4
0,81,95,1
0,80,0,5
0,36,0,0
0,68,0,1
0,64,0,8
0,82,0,9
0,52,0,0
0,28,0,5
0,64,0,0
0,57,83,9
0,42,61,1
0,49,97,3
0,54,101,2
0,61,95,7
0,66,68,1
0,69,67,2
0,40,0,2
0,44,103,0
0,69,67,0
0,36,94,0
0,30,90,0
0,54,63,0
0,66,82,0
0,61,86,0
0,73,92,0
0,42,107,0
0,66,99,0
0,81,0,3
0,71,0,1
0,73,58,1
0,69,0,3
0,68,0,1
0,66,99,0
0,64,0,1
0,36,0,6
0,54,0,1
0,66,0,2
0,66,0,1
0,69,0,15
0,30,0,0
0,44,0,5
0,82,40,20
0,36,97,0
0,30,114,0
0,66,78,0
0,54,72,0
0,66,103,0
0,82,0,11
0,36,0,16
0,66,0,1
0,54,0,1
0,82,40,1
0,30,0,6
0,66,0,0
0,82,0,10
0,44,99,14
0,69,66,0
0,37,96,0
0,37,0,6
0,69,0,22
0,44,0,14
0,82,30,18
0,82,0,9
0,82,39,21
0,82,0,13
0,44,93,17
0,69,62,0
0,69,0,18
0,69,63,12
0,44,0,13
0,69,0,3
0,69,64,14
0,81,70,0
0,81,0,14
0,69,0,12
0,44,99,34
0,69,66,0
0,26,127,0
0,26,0,35
0,44,0,2
0,69,0,20
0,82,39,3
0,82,0,31
0,42,0,12
0,73,0,2
0,54,0,6
0,57,0,2
0,61,0,0
0,66,0,2
0,42,0,2
0,73,45,0
0,49,0,1
0,44,90,2
0,69,50,0
0,57,83,0
0,38,107,0
0,73,0,1
0,61,0,7
0,44,0,26
0,82,43,26
0,69,0,2
0,82,0,10
0,82,41,18
0,82,0,17
0,44,93,13
0,69,70,0
0,37,117,0
0,37,0,10
0,44,0,14
0,57,0,25
0,38,0,11
0,69,0,0
0,82,40,0
0,40,116,0
0,56,80,5
0,82,0,5
0,82,41,20
0,82,0,15
0,44,96,15
0,69,57,0
0,71,66,0
0,68,68,5
0,73,0,1
0,64,68,0
0,69,0,5
0,66,0,3
0,69,0,4
0,44,0,1
0,69,59,11
0,69,0,18
0,46,84,12
0,69,68,0
0,46,0,11
0,69,0,17
0,44,84,32
0,69,66,0
0,26,127,0
0,44,0,11
0,26,0,24
0,69,0,8
0,56,0,12
0,52,77,3
0,82,47,2
0,82,0,20
0,62,75,25
0,66,80,8
0,40,0,7
0,44,107,0
0,69,62,0
0,57,46,0
0,64,49,0
0,62,48,0
0,69,46,0
0,40,103,0
0,52,0,4
0,56,91,0
0,69,77,0
0,44,0,15
0,69,0,16
0,82,41,25
0,82,0,8
0,82,37,22
0,82,0,17
0,44,107,13
0,69,63,0
0,37,107,0
0,37,0,9
0,44,0,11
0,69,0,6
0,82,28,34
0,54,92,1
0,56,0,1
0,82,0,7
0,82,40,21
0,82,0,19
0,71,0,8
0,57,0,2
0,69,0,0
0,44,103,1
0,69,59,0
0,62,68,0
0,66,68,0
0,54,46,0
0,69,46,0
0,62,46,0
0,38,96,0
0,69,65,2
0,40,0,8
0,68,0,2
0,64,0,0
0,69,0,3
0,44,0,5
0,69,59,10
0,69,0,19
0,81,76,11
0,69,62,0
0,81,0,11
0,69,0,9
0,44,103,40
0,69,60,0
0,26,127,0
0,62,0,16
0,44,0,3
0,66,0,3
0,69,0,1
0,69,0,11
0,26,0,1
0,82,47,25
0,82,0,18
0,54,0,17
0,62,69,17
0,38,0,4
0,62,0,2
0,66,0,1
0,54,0,1
0,69,0,0
0,62,0,0
0,44,103,0
0,61,68,0
0,65,68,0
0,54,90,0
0,53,50,0
0,68,46,0
0,59,46,0
0,61,46,0
0,66,80,0
0,37,93,0
0,68,54,2
0,62,0,1
0,64,0,2
0,69,72,0
0,69,0,1
0,44,0,8
0,62,0,89
0,69,0,3
0,66,0,1
0,61,77,67
0,53,90,4
0,65,65,0
0,54,0,1
0,82,40,1
0,68,79,10
0,82,0,14
0,68,0,35
0,59,0,0
0,61,0,0
0,53,0,1
0,53,50,0
0,59,71,0
0,61,46,0
0,56,46,0
0,65,46,0
0,46,96,60
0,46,0,11
0,61,0,45
0,65,0,0
0,53,0,4
0,59,0,0
0,61,0,0
0,56,0,0
0,65,0,0
0,44,107,0
0,52,75,0
0,39,100,0
0,85,127,0
0,26,127,0
0,28,89,4
0,52,0,2
0,85,0,3
0,44,0,4
0,39,0,0
0,28,0,4
0,26,0,18
0,36,68,25
0,28,86,0
0,52,83,0
0,64,96,0
0,64,89,0
0,68,0,11
0,36,0,0
0,64,0,7
0,52,0,1
0,53,0,11
0,64,0,1
0,61,0,1
0,68,0,1
0,65,0,2
0,28,0,2
0,57,83,5
0,42,61,1
0,49,97,3
0,54,101,2
0,61,95,7
0,44,107,5
0,57,68,0
0,55,75,0
0,36,84,0
0,30,88,0
0,66,90,0
0,54,76,0
0,73,47,0
0,66,46,0
0,69,49,0
0,54,98,0
0,30,127,0
0,66,103,0
0,37,0,1
0,66,99,8
0,66,0,3
0,36,0,1
0,54,0,0
0,57,0,3
0,44,0,3
0,55,0,0
0,66,0,7
0,30,0,13
0,30,0,9
0,44,47,12
0,36,99,0
0,30,102,0
0,66,96,0
0,54,69,0
0,57,91,0
0,30,100,0
0,66,107,0
0,44,0,18
0,66,0,3
0,36,0,5
0,54,0,4
0,66,0,6
0,30,0,13
0,44,107,11
0,37,103,0
0,61,99,0
0,37,0,12
0,44,0,8
0,44,50,40
0,66,104,0
0,44,0,21
0,44,103,39
0,44,0,20
0,44,47,40
0,85,60,0
0,64,60,0
0,36,65,0
0,36,0,10
0,85,0,4
0,64,0,5
0,44,0,4
0,44,103,37
0,26,127,0
0,63,44,0
0,40,109,0
0,40,0,12
0,44,0,7
0,63,0,1
0,26,0,15
0,44,45,25
0,63,47,0
0,57,0,10
0,61,0,3
0,63,0,2
0,54,0,1
0,44,0,0
0,66,0,1
0,30,0,7
0,54,80,24
