track,note,velocity,time
3,64,96,79
3,64,0,22
3,64,96,0
3,62,96,48
3,64,0,1
3,62,0,29
3,64,96,1
3,64,0,48
3,74,96,0
3,72,96,27
3,74,0,2
3,72,0,173
3,67,96,72
3,67,0,10
3,67,96,15
3,67,0,55
3,65,96,6
3,65,0,10
3,65,96,18
3,65,0,97
3,64,96,0
3,64,0,14
3,64,96,15
3,64,0,90
3,62,96,0
3,62,0,14
3,60,96,14
3,60,0,62
3,62,96,0
3,62,0,20
3,64,96,0
3,64,0,51
3,62,96,6
3,62,0,29
3,64,96,0
3,64,0,45
3,74,96,0
3,74,0,37
3,72,96,4
3,72,0,150
3,67,96,0
3,67,0,13
3,67,96,12
3,65,96,60
3,67,0,2
3,65,0,12
3,65,96,16
3,64,96,60
3,65,0,3
3,64,0,30
3,64,96,27
3,64,0,60
3,64,96,0
3,69,96,58
3,64,0,2
3,71,96,61
3,69,0,3
3,71,0,46
3,71,96,9
3,71,0,60
3,72,96,1
3,72,0,60
3,72,96,0
3,72,0,27
3,72,96,1
3,71,96,24
3,72,0,1
3,72,96,28
3,71,0,1
3,72,0,59
3,72,96,0
3,72,0,28
3,71,96,5
3,72,96,41
3,71,0,7
3,72,0,9
3,72,96,14
3,72,0,60
3,74,96,0
3,74,0,1
3,81,96,1
3,76,96,59
3,81,0,3
3,72,96,57
3,76,0,3
3,69,96,57
3,72,0,7
3,69,0,15
3,71,96,38
3,71,0,30
3,72,96,0
3,72,0,49
3,71,96,7
3,71,0,22
3,72,96,9
3,72,0,73
3,71,96,1
3,71,0,23
3,72,96,0
3,72,0,88
3,71,96,2
3,72,96,33
3,71,0,1
3,72,0,51
3,76,96,3
3,76,0,49
3,76,96,1
3,74,96,73
3,76,0,4
3,74,0,197
3,69,96,1
3,69,0,17
3,71,96,1
3,72,96,29
3,71,0,2
3,74,96,27
3,72,0,3
3,74,0,24
3,76,96,3
3,76,0,131
3,76,96,0
3,76,0,48
3,74,96,0
3,74,0,1
3,74,96,1
3,72,96,29
3,74,0,5
3,71,96,25
3,72,0,6
3,69,96,24
3,71,0,6
3,67,96,24
3,69,0,2
3,67,0,2
3,64,96,0
3,67,96,13
3,64,0,2
3,74,96,29
3,67,0,9
3,74,0,51
3,72,96,0
3,72,0,120
3,72,96,1
3,72,0,9
3,71,96,1
3,69,96,30
3,71,0,9
3,67,96,21
3,69,0,2
3,65,96,28
3,67,0,5
3,65,0,2
3,76,96,7
3,76,0,39
3,74,96,1
3,74,0,97
3,74,96,56
3,72,96,30
3,74,0,5
3,71,96,25
3,72,0,6
3,69,96,24
3,71,0,6
3,67,96,24
3,69,0,2
3,67,0,2
3,64,96,0
3,67,96,13
3,64,0,2
3,74,96,29
3,67,0,9
3,74,0,51
3,72,96,0
3,72,0,120
3,76,96,1
3,76,0,9
3,74,96,1
3,72,96,30
3,74,0,9
3,71,96,21
3,72,0,2
3,69,96,28
3,71,0,5
3,69,0,2
3,76,96,7
3,76,0,39
3,74,96,1
3,74,0,97
3,74,96,56
3,72,96,30
3,74,0,5
3,71,96,25
3,72,0,6
3,69,96,24
3,71,0,6
3,67,96,24
3,69,0,2
3,67,0,2
3,64,96,0
3,67,96,13
3,64,0,2
3,74,96,29
3,67,0,9
3,74,0,45
3,72,96,0
3,72,0,120
3,72,96,36
3,72,0,9
3,71,96,1
3,69,96,30
3,71,0,9
3,67,96,21
3,69,0,2
3,65,96,28
3,67,0,5
3,69,96,115
3,65,0,7
3,69,0,20
3,69,96,3
3,69,0,30
3,69,96,0
3,69,0,30
3,76,96,0
3,76,0,41
3,74,96,2
3,74,0,60
3,76,96,0
3,76,0,12
3,74,96,0
3,74,0,28
3,72,96,2
3,72,0,28
3,71,96,2
3,71,0,28
3,74,96,2
3,74,0,90
3,72,96,0
3,72,0,128
3,72,64,0
3,79,57,46
3,72,0,4
3,77,76,54
3,79,0,4
3,77,0,28
3,76,70,0
3,76,0,59
3,74,62,0
3,72,54,59
3,74,0,2
3,72,0,204
3,67,96,0
3,76,96,41
3,67,0,2
3,74,96,88
3,76,0,5
3,74,0,25
3,72,96,0
3,71,96,30
3,72,0,6
3,71,0,23
3,69,96,1
3,69,0,54
3,67,96,6
3,67,0,200
3,67,96,40
3,67,0,10
3,67,96,15
3,67,0,55
3,65,96,6
3,65,0,10
3,65,96,18
3,65,0,60
3,64,96,6
3,64,0,30
3,64,96,30
3,64,0,90
3,62,96,0
3,62,0,14
3,60,96,14
3,60,0,62
3,62,96,0
3,62,0,30
3,64,96,0
3,64,0,51
3,62,96,6
3,62,0,29
3,64,96,0
3,64,0,45
3,74,96,0
3,74,0,37
3,72,96,4
3,72,0,92
3,69,96,181
3,69,0,60
3,69,96,0
3,69,0,14
3,69,96,16
3,69,0,60
3,69,96,0
3,69,0,33
3,68,96,27
3,68,0,60
3,68,96,0
3,69,96,58
3,68,0,2
3,71,96,61
3,69,0,3
3,71,0,46
3,71,96,9
3,71,0,60
3,72,96,1
3,72,0,60
3,72,96,0
3,72,0,27
3,72,96,1
3,72,0,19
3,72,96,4
3,72,0,30
3,74,96,0
3,74,0,30
3,76,96,0
3,76,0,30
3,76,96,0
3,76,0,60
3,72,96,2
3,79,96,22
3,72,0,1
3,79,0,59
3,76,96,5
3,76,0,24
3,74,96,3
3,74,0,1
3,72,96,1
3,72,0,32
3,81,96,2
3,76,96,60
3,81,0,9
3,76,0,51
3,72,96,0
3,69,96,60
3,72,0,2
3,69,0,18
3,72,96,70
3,72,0,49
3,71,96,7
3,71,0,30
3,72,96,1
3,72,0,60
3,74,96,3
3,74,0,20
3,76,96,39
3,76,0,60
3,77,96,1
3,77,0,60
3,79,96,2
3,79,0,52
3,76,96,3
3,76,0,49
3,76,96,1
3,74,96,73
3,76,0,4
3,74,0,146
3,79,76,11
3,79,0,30
3,74,76,0
3,74,0,30
3,74,76,0
3,74,0,16
3,69,96,1
3,69,0,17
3,71,96,1
3,72,96,29
3,71,0,2
3,74,96,27
3,72,0,3
3,74,0,24
3,76,96,3
3,76,0,131
3,76,96,0
3,76,0,48
3,74,96,0
3,74,0,1
3,74,96,1
3,72,96,29
3,74,0,5
3,71,96,25
3,72,0,6
3,69,96,24
3,71,0,6
3,67,96,24
3,69,0,2
3,67,0,2
3,64,96,0
3,67,96,13
3,64,0,2
3,74,96,29
3,67,0,9
3,74,0,51
3,72,96,0
3,72,0,120
3,72,96,1
3,72,0,9
3,71,96,1
3,69,96,30
3,71,0,9
3,67,96,21
3,69,0,2
3,65,96,28
3,67,0,5
3,65,0,2
3,76,96,7
3,76,0,39
3,74,96,1
3,74,0,97
3,74,96,56
3,72,96,30
3,74,0,5
3,71,96,25
3,72,0,6
3,69,96,24
3,71,0,6
3,67,96,24
3,69,0,2
3,67,0,2
3,64,96,0
3,67,96,13
3,64,0,2
3,74,96,29
3,67,0,9
3,74,0,45
3,72,96,0
3,72,0,120
3,76,96,36
3,76,0,9
3,74,96,1
3,72,96,30
3,74,0,9
3,71,96,21
3,72,0,2
3,69,96,28
3,71,0,5
3,69,0,2
3,76,96,7
3,76,0,39
3,74,96,1
3,74,0,97
3,74,96,56
3,72,96,30
3,74,0,5
3,71,96,25
3,72,0,6
3,69,96,24
3,71,0,6
3,67,96,24
3,69,0,2
3,67,0,2
3,64,96,0
3,67,96,13
3,64,0,2
3,74,96,29
3,67,0,9
3,74,0,45
3,72,96,0
3,72,0,120
3,72,96,36
3,72,0,9
3,71,96,1
3,69,96,30
3,71,0,9
3,67,96,21
3,69,0,2
3,65,96,28
3,67,0,5
3,69,96,115
3,65,0,7
3,69,0,20
3,69,96,3
3,69,0,30
3,69,96,0
3,69,0,30
3,76,96,0
3,76,0,41
3,74,96,2
3,74,0,120
3,72,96,30
3,72,0,30
3,74,96,0
3,74,0,30
3,75,96,0
3,75,0,180
3,80,85,30
3,80,0,18
3,80,85,12
3,80,0,19
3,80,85,11
3,77,85,10
3,80,0,6
3,77,0,35
3,77,96,9
3,77,0,15
3,80,96,2
3,80,0,17
3,80,96,2
3,80,0,27
3,82,96,4
3,82,0,90
3,77,96,0
3,77,0,54
3,77,96,6
3,77,0,60
3,77,96,2
3,75,96,43
3,77,0,2
3,75,0,100
3,75,96,48
3,73,96,29
3,75,0,5
3,72,96,25
3,73,0,6
3,70,96,24
3,72,0,6
3,68,96,24
3,70,0,2
3,68,0,2
3,65,96,0
3,68,96,13
3,65,0,2
3,75,96,29
3,68,0,9
3,75,0,51
3,73,96,0
3,73,0,120
3,73,96,1
3,73,0,9
3,72,96,1
3,70,96,30
3,72,0,9
3,68,96,21
3,70,0,2
3,66,96,28
3,68,0,5
3,66,0,2
3,77,96,7
3,77,0,39
3,75,96,1
3,75,0,97
3,75,96,56
3,73,96,30
3,75,0,5
3,72,96,25
3,73,0,6
3,70,96,24
3,72,0,6
3,68,96,24
3,70,0,2
3,68,0,2
3,65,96,0
3,68,96,13
3,65,0,2
3,75,96,29
3,68,0,9
3,75,0,51
3,73,96,0
3,73,0,120
3,77,96,1
3,77,0,9
3,75,96,1
3,73,96,30
3,75,0,9
3,72,96,21
3,73,0,2
3,70,96,28
3,72,0,5
3,70,0,2
3,77,96,7
3,77,0,39
3,75,96,1
3,75,0,97
3,75,96,56
3,73,96,30
3,75,0,5
3,72,96,25
3,73,0,6
3,70,96,24
3,72,0,6
3,68,96,24
3,70,0,2
3,68,0,2
3,80,96,0
3,80,0,13
3,80,96,0
3,82,96,31
3,80,0,9
3,82,0,45
3,77,96,0
3,77,0,120
3,77,96,36
3,77,0,9
3,75,96,1
3,73,96,30
3,75,0,9
3,72,96,21
3,73,0,2
3,70,96,28
3,72,0,5
3,70,0,100
3,70,96,15
3,70,0,27
3,70,96,3
3,70,0,30
3,70,96,0
3,70,0,30
3,77,96,0
3,77,0,41
3,75,96,2
3,75,0,60
3,77,96,1
3,77,0,12
3,75,96,0
3,75,0,28
3,73,96,2
3,73,0,28
3,72,96,2
3,72,0,28
3,75,96,2
3,75,0,90
3,73,96,0
3,73,0,128
3,73,89,2
3,80,88,46
3,73,0,4
3,78,87,54
3,80,0,4
3,78,0,28
3,77,87,0
3,77,0,59
3,73,86,0
3,68,85,59
3,73,0,2
3,68,0,1
3,75,81,4
3,75,0,46
3,73,72,3
3,68,72,61
3,73,0,2
3,68,0,129
3,77,81,314
3,77,0,120
3,75,79,0
3,75,0,120
3,73,77,0
3,73,0,120
3,72,74,0
3,72,0,60
3,68,73,0
3,68,0,2
3,68,65,2
3,77,65,41
3,68,0,2
3,73,49,31
3,77,0,2
3,73,0,186
4,36,85,480
4,36,0,240
4,33,85,0
4,33,0,240
4,29,86,0
4,29,0,240
4,31,86,0
4,31,0,240
4,36,86,0
4,36,0,240
4,33,85,0
4,33,0,240
4,29,85,0
4,29,0,240
4,31,85,0
4,31,0,240
4,36,100,0
4,36,0,240
4,33,100,0
4,33,0,180
4,28,100,0
4,28,0,60
4,29,100,0
4,29,0,240
4,31,100,0
4,31,0,120
4,33,100,0
4,33,0,60
4,35,100,0
4,35,0,60
4,36,100,0
4,36,0,240
4,33,100,0
4,33,0,240
4,29,100,0
4,29,0,240
4,28,100,0
4,28,0,90
4,30,100,0
4,30,0,60
4,32,100,0
4,32,0,90
4,33,100,0
4,33,0,150
4,40,100,0
4,40,0,30
4,45,100,0
4,45,0,30
4,40,100,0
4,40,0,30
4,44,100,0
4,44,0,240
4,43,100,0
4,43,0,240
4,42,100,0
4,42,0,240
4,41,100,0
4,41,0,150
4,36,100,0
4,36,0,30
4,33,100,0
4,33,0,30
4,29,100,0
4,29,0,30
4,30,100,0
4,30,0,240
4,31,100,0
4,31,0,180
4,38,84,0
4,38,0,30
4,26,100,0
4,26,0,30
4,31,100,0
4,31,0,30
4,29,100,210
4,29,0,198
4,29,72,12
4,29,0,30
4,31,91,0
4,36,90,240
4,31,0,2
4,36,0,118
4,35,90,0
4,33,90,120
4,35,0,3
4,33,0,117
4,31,90,0
4,31,0,60
4,28,90,0
4,28,0,60
4,29,90,0
4,29,0,150
4,40,90,0
4,40,0,30
4,38,90,0
4,38,0,30
4,35,90,0
4,35,0,30
4,31,90,0
4,31,0,180
4,35,90,0
4,35,0,30
4,38,90,0
4,38,0,30
4,36,90,0
4,36,0,120
4,35,90,0
4,33,90,120
4,35,0,3
4,33,0,117
4,31,90,0
4,31,0,60
4,28,90,0
4,28,0,60
4,29,90,0
4,29,0,150
4,40,90,0
4,40,0,30
4,38,90,0
4,38,0,30
4,35,90,0
4,35,0,30
4,31,90,0
4,31,0,180
4,35,90,0
4,35,0,30
4,38,90,0
4,38,0,30
4,36,90,0
4,36,0,120
4,35,90,0
4,35,0,120
4,33,90,0
4,33,0,120
4,31,90,0
4,31,0,60
4,28,90,0
4,28,0,60
4,29,90,0
4,29,0,180
4,29,90,30
4,29,0,30
4,31,90,1
4,31,90,89
4,31,0,1
4,31,0,29
4,33,90,0
4,33,0,60
4,35,90,0
4,35,0,30
4,31,90,0
4,31,0,30
4,36,90,0
4,36,0,210
4,28,90,0
4,28,0,30
4,33,90,0
4,33,0,180
4,28,90,0
4,28,0,60
4,29,90,0
4,29,0,206
4,29,90,4
4,29,0,30
4,31,90,0
4,31,0,120
4,33,90,0
4,33,0,60
4,35,90,0
4,35,0,60
4,36,90,0
4,36,0,210
4,28,90,0
4,28,0,30
4,33,90,0
4,33,0,180
4,28,90,0
4,28,0,60
4,29,90,0
4,29,0,206
4,29,90,4
4,29,0,30
4,31,90,0
4,31,0,240
4,36,100,0
4,36,0,240
4,33,100,0
4,33,0,180
4,28,100,0
4,28,0,60
4,29,100,0
4,29,0,240
4,31,100,0
4,31,0,90
4,31,100,0
4,31,0,30
4,33,100,0
4,33,0,60
4,35,100,0
4,35,0,60
4,36,100,0
4,36,0,150
4,43,100,0
4,43,0,30
4,48,100,0
4,48,0,30
4,47,100,0
4,47,0,30
4,45,100,0
4,45,0,90
4,40,100,0
4,40,0,30
4,33,100,0
4,33,0,60
4,31,100,0
4,31,0,60
4,29,100,0
4,29,0,210
4,29,100,0
4,29,0,30
4,28,100,0
4,28,0,90
4,30,100,0
4,30,0,60
4,32,100,0
4,32,0,60
4,28,100,0
4,28,0,30
4,33,100,0
4,33,0,90
4,40,100,0
4,40,0,30
4,48,100,0
4,48,0,30
4,47,100,0
4,47,0,30
4,45,100,0
4,45,0,30
4,40,100,0
4,40,0,30
4,32,100,0
4,32,0,240
4,31,100,0
4,31,0,210
4,31,100,0
4,31,0,30
4,30,100,0
4,30,0,240
4,29,100,0
4,29,0,180
4,29,100,30
4,29,0,30
4,30,100,0
4,30,0,240
4,31,100,0
4,31,0,150
4,38,84,0
4,38,0,30
4,43,100,0
4,43,0,30
4,38,100,0
4,38,0,30
4,31,100,0
4,31,0,30
4,29,100,210
4,29,0,198
4,29,72,12
4,29,0,30
4,31,91,0
4,36,90,240
4,31,0,2
4,36,0,118
4,35,90,0
4,33,90,120
4,35,0,3
4,33,0,117
4,31,90,0
4,31,0,60
4,28,90,0
4,28,0,60
4,29,90,0
4,29,0,150
4,40,90,0
4,40,0,30
4,38,90,0
4,38,0,30
4,35,90,0
4,35,0,30
4,31,90,0
4,31,0,180
4,35,90,0
4,35,0,30
4,38,90,0
4,38,0,30
4,36,90,0
4,36,0,120
4,35,90,0
4,35,0,120
4,33,90,0
4,33,0,120
4,31,90,0
4,31,0,60
4,28,90,0
4,28,0,60
4,29,90,0
4,29,0,150
4,40,90,0
4,40,0,30
4,38,90,0
4,38,0,30
4,35,90,0
4,35,0,30
4,31,90,0
4,31,0,180
4,35,90,0
4,35,0,30
4,38,90,0
4,38,0,30
4,36,90,0
4,36,0,120
4,35,90,0
4,35,0,120
4,33,90,0
4,33,0,120
4,31,90,0
4,31,0,60
4,28,90,0
4,28,0,60
4,29,90,0
4,29,0,180
4,29,90,30
4,29,0,30
4,31,90,1
4,38,90,179
4,31,0,1
4,38,0,29
4,31,90,0
4,31,0,30
