track,note,velocity,time
1,50,64,469
1,47,64,488
1,50,0,4
1,50,64,481
1,47,0,6
1,50,0,354
1,54,64,36
1,52,64,27
1,54,0,8
1,50,64,22
1,52,0,6
1,45,64,27
1,50,0,2
1,45,0,497
1,45,64,3995
1,38,64,59
1,45,0,8
1,38,0,224
1,42,64,11
1,42,0,225
1,43,64,2
1,50,64,189
1,43,0,51
1,50,0,7
1,43,64,2
1,43,0,186
1,50,64,52
1,50,0,219
1,50,64,25
1,50,0,200
1,45,64,37
1,52,64,182
1,45,0,31
1,45,64,29
1,52,0,5
1,46,64,113
1,45,0,1
1,47,64,122
1,46,0,1
1,47,0,184
1,45,64,56
1,45,0,200
1,43,64,38
1,43,0,148
1,43,64,28
1,43,0,33
1,43,64,28
1,43,0,126
1,38,64,110
1,38,0,203
1,38,64,42
1,38,0,179
1,33,64,62
1,33,0,40
1,33,64,140
1,33,64,60
1,33,0,0
1,33,0,60
1,33,64,180
1,33,0,40
1,43,64,440
1,43,0,119
1,43,64,61
1,43,0,59
1,45,64,1
1,45,0,119
1,45,64,61
1,45,0,59
1,38,64,1
1,38,0,179
1,38,64,61
1,38,0,119
1,42,64,1
1,42,0,119
1,43,64,1
1,43,0,179
1,43,64,1
1,43,0,59
1,45,64,1
1,45,0,179
1,45,64,1
1,45,0,59
1,38,64,1
1,38,0,119
1,50,64,121
1,50,0,119
1,49,64,1
1,49,0,119
1,47,64,1
1,47,0,119
1,47,64,61
1,47,0,59
1,45,64,1
1,45,0,179
1,45,64,1
1,45,0,59
1,44,64,1
1,44,0,119
1,44,64,61
1,44,0,59
1,43,64,1
1,43,0,119
1,42,64,1
1,42,0,119
1,40,64,1
1,40,0,119
1,40,64,61
1,40,0,59
1,45,64,1
1,45,0,179
1,47,64,538
1,50,64,485
1,47,0,6
1,50,0,354
1,54,64,36
1,52,64,27
1,54,0,8
1,50,64,22
1,52,0,6
1,45,64,27
1,50,0,2
1,47,64,471
1,45,0,26
1,47,0,173
1,43,64,32
1,43,0,202
1,50,64,47
1,50,0,130
1,50,64,48
1,50,0,25
1,50,64,35
1,50,0,151
1,42,64,91
1,42,0,173
1,47,64,63
1,45,64,122
1,47,0,2
1,43,64,123
1,45,0,0
1,43,0,133
1,38,64,43
1,38,0,29
1,43,64,32
1,43,0,166
1,47,64,75
1,47,0,185
1,45,64,56
1,45,0,200
1,43,64,38
1,43,0,148
1,43,64,28
1,43,0,33
1,43,64,28
1,43,0,126
1,40,64,116
1,40,0,149
1,40,64,31
1,40,0,29
1,40,64,32
1,40,0,169
1,33,64,70
1,33,0,40
1,33,64,140
1,33,64,60
1,33,0,0
1,33,0,60
1,33,64,180
1,33,0,40
1,43,64,440
1,43,0,119
1,43,64,61
1,43,0,59
1,45,64,1
1,45,0,119
1,45,64,61
1,45,0,59
1,38,64,1
1,38,0,179
1,38,64,61
1,38,0,119
1,42,64,1
1,42,0,119
1,43,64,1
1,43,0,179
1,43,64,1
1,43,0,59
1,45,64,1
1,45,0,179
1,45,64,1
1,45,0,59
1,38,64,1
1,38,0,119
1,50,64,121
1,50,0,119
1,49,64,1
1,49,0,119
1,47,64,1
1,47,0,119
1,47,64,61
1,47,0,59
1,45,64,1
1,45,0,179
1,45,64,1
1,45,0,59
1,44,64,1
1,44,0,119
1,44,64,61
1,44,0,59
1,43,64,1
1,43,0,119
1,42,64,1
1,42,0,119
1,40,64,1
1,40,0,119
1,40,64,61
1,40,0,59
1,45,64,1
1,45,0,120
1,45,64,57
1,50,64,58
1,45,0,4
1,45,64,178
1,50,0,1
1,50,64,58
1,45,0,5
1,49,64,112
1,50,0,1
1,47,64,126
1,49,0,4
1,47,0,115
1,47,64,61
1,47,0,59
1,45,64,1
1,45,0,179
1,45,64,1
1,45,0,59
1,44,64,1
1,44,0,119
1,40,64,601
1,40,0,119
1,40,64,61
1,40,0,59
1,45,64,1
1,45,0,179
1,48,64,64
1,48,0,140
1,48,64,34
1,48,0,31
1,48,64,32
1,48,0,85
1,48,64,30
1,48,0,87
1,47,64,33
1,47,0,124
1,47,64,61
1,47,0,34
1,47,64,29
1,47,0,78
1,47,64,38
1,47,0,75
1,45,64,43
1,45,0,119
1,45,64,62
1,45,0,35
1,45,64,28
1,45,0,86
1,45,64,34
1,45,0,69
1,38,64,58
1,38,0,480
2,50,117,480
2,57,117,60
2,62,117,60
2,64,117,120
2,66,117,120
2,66,0,119
2,62,0,0
2,50,0,0
2,57,0,0
2,64,0,0
2,47,87,1681
2,54,87,60
2,59,87,60
2,59,0,119
2,54,0,0
2,47,0,0
2,43,87,1
2,50,87,60
2,55,87,60
2,43,0,89
2,55,0,30
2,50,0,0
2,45,87,1
2,57,87,60
2,45,0,59
2,64,87,1
2,64,0,29
2,64,87,1
2,66,87,0
2,66,0,29
2,62,87,1
2,57,0,29
2,57,87,31
2,57,0,149
2,62,0,0
2,64,0,0
2,42,87,91
2,49,87,60
2,49,0,59
2,54,87,1
2,54,0,59
2,57,87,1
2,57,0,59
2,42,0,0
2,54,87,1
2,66,87,0
2,66,0,59
2,54,0,0
2,62,87,1
2,50,87,0
2,50,0,59
2,62,0,0
2,59,87,1
2,47,87,0
2,62,87,60
2,47,0,29
2,59,0,0
2,62,0,30
2,55,87,1
2,55,0,89
2,57,87,391
2,62,87,60
2,64,87,60
2,66,87,60
2,66,0,59
2,57,0,0
2,62,0,0
2,64,0,0
2,47,87,1
2,57,87,60
2,62,87,60
2,62,0,59
2,66,87,1
2,66,0,59
2,57,0,0
2,47,0,0
2,43,87,1
2,50,87,60
2,55,87,60
2,59,87,60
2,55,0,29
2,67,87,31
2,43,0,119
2,59,0,0
2,50,0,0
2,67,0,60
2,47,87,61
2,54,87,60
2,59,87,60
2,59,0,59
2,62,87,1
2,54,0,59
2,47,0,0
2,43,87,1
2,62,0,59
2,50,87,1
2,55,87,60
2,55,0,119
2,50,0,0
2,43,0,0
2,45,87,1
2,45,0,59
2,52,87,1
2,52,0,59
2,50,87,361
2,57,87,60
2,66,87,60
2,62,87,60
2,62,0,59
2,50,0,0
2,57,0,0
2,66,0,0
2,54,87,1
2,57,87,60
2,66,87,60
2,66,0,59
2,62,87,1
2,62,0,59
2,57,0,0
2,54,0,0
2,50,87,1
2,55,87,60
2,59,87,60
2,62,87,60
2,59,0,59
2,67,87,1
2,62,0,59
2,62,87,1
2,62,0,59
2,59,87,1
2,67,0,59
2,50,0,0
2,55,0,0
2,55,87,1
2,55,0,59
2,59,0,0
2,50,87,1
2,54,87,60
2,50,0,59
2,66,87,1
2,66,0,59
2,62,87,1
2,62,0,59
2,54,0,0
2,50,87,1
2,54,87,60
2,66,87,60
2,66,0,59
2,62,87,1
2,62,0,59
2,54,0,0
2,50,0,0
2,45,87,1
2,50,87,60
2,62,87,60
2,62,0,59
2,64,87,1
2,64,0,59
2,50,0,0
2,45,0,0
2,61,87,1
2,61,0,119
2,55,87,596
2,62,87,64
2,59,87,60
2,62,0,4
2,57,87,52
2,59,0,6
2,55,0,20
2,55,87,31
2,55,0,133
2,57,0,6
2,69,87,2085
2,66,87,58
2,69,0,7
2,62,87,55
2,66,0,9
2,57,87,51
2,62,0,107
2,57,0,62
2,50,117,2475
2,57,117,60
2,62,117,60
2,64,117,120
2,66,117,120
2,66,0,119
2,62,0,0
2,50,0,0
2,57,0,0
2,64,0,0
2,69,87,6297
2,66,87,58
2,69,0,7
2,62,87,55
2,66,0,9
2,57,87,51
2,62,0,107
2,57,0,62
2,50,117,2475
2,50,0,479
2,43,64,1675
2,48,64,1
2,52,64,1
2,55,64,0
2,52,0,290
2,55,0,1
2,48,0,11
2,43,0,4
2,38,64,162
2,42,64,2
2,50,64,2
2,54,64,0
2,50,0,195
2,54,0,3
2,42,0,3
2,38,0,1
2,45,64,292
2,49,64,0
2,52,64,0
2,37,64,1
2,45,0,337
2,37,0,2
2,52,0,5
2,49,0,0
3,57,64,874
3,54,64,27
3,57,0,6
3,50,64,21
3,54,0,0
3,50,0,37
3,47,64,1
3,50,64,52
3,55,64,62
3,50,0,217
3,47,0,1
3,55,0,6
3,55,64,15
3,54,64,26
3,55,0,12
3,52,64,19
3,54,0,6
3,50,64,24
3,52,0,2
3,45,64,31
3,50,0,2
3,45,0,220
3,57,64,7693
3,62,64,66
3,62,0,59
3,66,64,1
3,66,0,59
3,62,64,1
3,57,0,18
3,62,0,41
3,57,64,1
3,62,64,60
3,62,0,59
3,64,64,1
3,64,0,59
3,57,0,0
3,62,64,1
3,62,0,59
3,57,64,2
3,62,64,60
3,62,0,36
3,62,64,20
3,64,64,58
3,62,0,6
3,62,64,53
3,64,0,7
3,64,64,52
3,62,0,6
3,62,64,56
3,64,0,7
3,64,64,52
3,62,0,8
3,64,0,33
3,64,64,25
3,57,0,51
3,64,0,3
3,57,64,4180
3,54,64,27
3,57,0,6
3,50,64,21
3,54,0,0
3,50,0,37
3,47,64,1
3,50,64,52
3,55,64,62
3,50,0,217
3,47,0,1
3,55,0,6
3,55,64,15
3,54,64,26
3,55,0,12
3,52,64,19
3,54,0,6
3,50,64,24
3,52,0,2
3,45,64,31
3,50,0,2
3,45,0,220
3,57,64,3613
3,57,0,204
4,62,64,1560
4,66,64,0
4,66,0,119
4,62,0,0
4,67,64,1
4,64,64,0
4,64,0,119
4,67,0,0
4,66,64,1
4,69,64,0
4,69,0,119
4,66,0,0
4,57,64,65
4,59,64,64
4,62,64,52
4,64,64,62
4,57,0,241
4,64,0,3
4,62,0,0
4,59,0,1
4,74,64,172
4,74,0,27
4,73,64,2
4,71,64,32
4,73,0,3
4,71,0,134
4,50,64,1423
4,54,64,30
4,50,0,4
4,55,64,26
4,54,0,3
4,60,64,22
4,55,0,18
4,59,64,12
4,60,0,7
4,59,0,247
4,62,64,1551
4,62,0,59
4,69,64,1
4,64,64,0
4,64,0,59
4,69,0,0
4,61,64,1
4,64,64,0
4,64,0,179
4,61,0,0
4,61,64,1744
4,64,64,119
4,61,0,20
4,59,64,101
4,64,0,4
4,59,0,201
4,57,64,34
4,57,0,204
4,55,64,31
4,55,0,306
4,45,64,655
4,33,64,6
4,45,0,141
4,33,0,10
4,33,64,23
4,45,64,2
4,45,0,29
4,33,0,2
4,33,64,23
4,45,64,0
4,45,0,36
4,33,0,7
4,45,64,17
4,33,64,3
4,45,0,25
4,33,0,6
4,33,64,26
4,45,64,0
4,45,0,30
4,33,0,0
4,45,64,30
4,33,64,1
4,33,0,29
4,45,0,4
4,33,64,28
4,45,64,1
4,45,0,37
4,33,0,4
4,43,64,448
4,43,0,147
4,43,64,24
4,45,64,63
4,43,0,7
4,45,0,136
4,45,64,36
4,38,64,60
4,45,0,5
4,38,0,134
4,38,64,39
4,42,64,60
4,38,0,9
4,45,64,113
4,42,0,6
4,43,64,116
4,45,0,6
4,43,0,149
4,43,64,21
4,45,64,63
4,43,0,9
4,45,0,147
4,45,64,26
4,45,0,54
4,38,64,1
4,33,64,181
4,38,0,6
4,33,0,34
4,38,64,20
4,37,64,114
4,38,0,4
4,37,0,114
4,47,64,10
4,47,0,177
4,47,64,3
4,45,64,60
4,47,0,2
4,45,0,144
4,45,64,31
4,45,0,52
4,44,64,8
4,44,0,151
4,44,64,30
4,43,64,63
4,44,0,0
4,42,64,117
4,43,0,6
4,40,64,115
4,42,0,6
4,45,64,235
4,40,0,5
4,45,0,178
4,66,64,1146
4,67,64,114
4,66,0,9
4,69,64,109
4,67,0,7
4,69,0,128
4,57,64,45
4,62,64,62
4,64,64,58
4,69,64,63
4,62,0,352
4,64,0,1
4,69,0,4
4,57,0,2
4,50,64,1434
4,52,64,27
4,50,0,5
4,55,64,27
4,60,64,29
4,55,0,5
4,60,0,26
4,59,64,6
4,52,0,49
4,59,0,159
4,57,64,272
4,57,0,204
4,55,64,31
4,55,0,306
4,45,64,655
4,33,64,6
4,45,0,141
4,33,0,10
4,33,64,23
4,45,64,2
4,45,0,29
4,33,0,2
4,33,64,23
4,45,64,0
4,45,0,36
4,33,0,7
4,45,64,17
4,33,64,3
4,45,0,25
4,33,0,6
4,33,64,26
4,45,64,0
4,45,0,30
4,33,0,0
4,45,64,30
4,33,64,1
4,33,0,29
4,45,0,4
4,33,64,28
4,45,64,1
4,45,0,37
4,33,0,4
4,43,64,448
4,43,0,147
4,43,64,24
4,45,64,63
4,43,0,7
4,45,0,136
4,45,64,36
4,38,64,60
4,45,0,5
4,38,0,134
4,38,64,39
4,42,64,60
4,38,0,9
4,45,64,113
4,42,0,6
4,43,64,116
4,45,0,6
4,43,0,149
4,43,64,21
4,45,64,63
4,43,0,9
4,45,0,147
4,45,64,26
4,45,0,54
4,38,64,1
4,33,64,181
4,38,0,6
4,33,0,34
4,38,64,20
4,37,64,114
4,38,0,4
4,37,0,114
4,47,64,10
4,47,0,177
4,47,64,3
4,45,64,60
4,47,0,2
4,45,0,144
4,45,64,31
4,45,0,52
4,44,64,8
4,44,0,151
4,44,64,30
4,55,64,59
4,43,64,3
4,44,0,1
4,54,64,108
4,55,0,2
4,42,64,4
4,43,0,2
4,55,64,54
4,54,0,1
4,43,64,5
4,42,0,4
4,40,64,56
4,52,64,0
4,43,0,2
4,55,0,0
4,52,0,117
4,40,0,36
4,45,64,88
4,45,0,183
4,47,64,537
4,47,0,177
4,47,64,3
4,45,64,60
4,47,0,2
4,45,0,144
4,45,64,31
4,45,0,52
4,44,64,8
4,44,0,151
4,44,64,32
4,44,0,59
4,45,64,721
4,45,0,183
4,43,64,57
4,74,64,122
4,43,0,31
4,43,64,27
4,43,0,38
4,76,64,13
4,74,0,8
4,43,64,3
4,78,64,110
4,76,0,7
4,43,0,103
4,42,64,7
4,78,0,1
4,74,64,4
4,74,0,90
4,74,64,26
4,42,0,40
4,42,64,26
4,74,0,31
4,42,0,4
4,42,64,25
4,76,64,3
4,78,64,120
4,76,0,4
4,42,0,76
4,40,64,40
4,78,0,5
4,74,64,1
4,83,64,115
4,55,64,4
4,74,0,7
4,40,0,14
4,40,64,35
4,55,0,2
4,54,64,1
4,40,0,29
4,83,0,22
4,79,64,6
4,40,64,1
4,52,64,3
4,54,0,6
4,37,64,108
4,40,0,0
4,49,64,1
4,76,64,2
4,52,0,0
4,79,0,9
4,37,0,109
4,74,64,1
4,50,64,6
4,38,64,1
4,49,0,2
4,76,0,8
4,74,0,198
4,50,0,283
4,38,0,167
5,81,64,470
5,79,64,374
5,81,0,14
5,78,64,94
5,79,0,11
5,78,0,56
5,79,64,374
5,78,64,108
5,79,0,11
5,78,0,56
6,74,64,597
6,76,64,121
6,74,0,6
6,78,64,110
6,76,0,10
6,74,64,117
6,78,0,0
6,86,64,179
6,74,0,6
6,83,64,54
6,86,0,24
6,81,64,6
6,83,0,14
6,79,64,16
6,81,0,8
6,83,64,52
6,85,64,30
6,83,0,19
6,86,64,11
6,85,0,7
6,79,0,45
6,81,64,8
6,86,0,7
6,74,64,117
6,74,64,3
6,76,64,119
6,76,64,5
6,81,0,2
6,74,0,4
6,78,64,100
6,74,0,2
6,78,64,2
6,76,0,7
6,76,0,16
6,69,64,96
6,81,64,4
6,78,0,0
6,78,0,10
6,81,0,228
6,69,0,24
6,50,64,2013
6,54,64,29
6,50,0,7
6,55,64,20
6,54,0,8
6,60,64,22
6,59,64,32
6,60,0,3
6,59,0,205
6,55,0,5
6,61,64,3631
6,64,64,117
6,61,0,5
6,59,64,116
6,64,0,2
6,59,0,238
6,57,64,2
6,55,64,234
6,57,0,3
6,62,64,59
6,59,64,59
6,62,0,2
6,57,64,57
6,59,0,8
6,55,0,45
6,55,64,10
6,57,0,29
6,55,0,127
6,69,64,2061
6,66,64,61
6,69,0,6
6,62,64,49
6,66,0,8
6,57,64,53
6,62,0,17
6,57,0,184
6,69,64,585
6,66,64,61
6,69,0,10
6,62,64,54
6,66,0,10
6,57,64,47
6,62,0,21
6,57,0,140
6,74,64,1636
6,76,64,121
6,74,0,6
6,78,64,110
6,76,0,10
6,74,64,117
6,78,0,0
6,86,64,179
