track,note,velocity,time
3,34,102,6142
3,34,0,657
3,34,101,111
3,34,0,461
3,33,94,51
3,33,0,199
3,31,98,57
3,31,0,605
3,26,95,35
3,26,0,49
3,31,98,79
3,31,0,477
3,29,105,35
3,29,0,219
3,27,95,37
3,27,0,589
3,22,106,51
3,22,0,97
3,27,102,31
3,27,0,423
3,27,104,89
3,27,0,55
3,28,92,73
3,28,0,59
3,29,110,69
3,29,0,589
3,24,104,51
3,24,0,39
3,29,109,89
3,29,0,401
3,29,93,111
3,29,0,149
3,34,102,107
3,34,0,657
3,34,101,111
3,34,0,461
3,33,94,51
3,33,0,199
3,31,98,57
3,31,0,605
3,26,95,35
3,26,0,49
3,31,98,79
3,31,0,477
3,29,105,35
3,29,0,219
3,27,95,37
3,27,0,589
3,22,106,51
3,22,0,97
3,27,102,31
3,27,0,423
3,27,104,89
3,27,0,55
3,28,92,73
3,28,0,59
3,29,110,69
3,29,0,589
3,24,104,51
3,24,0,39
3,27,109,89
3,27,0,401
3,30,93,111
3,30,0,149
3,43,114,107
3,43,0,693
3,38,120,11
3,38,0,25
3,42,121,39
3,42,0,463
3,38,117,49
3,38,0,31
3,42,124,97
3,42,0,41
3,41,114,87
3,41,0,697
3,38,114,7
3,38,0,21
3,40,114,43
3,40,0,465
3,41,114,47
3,41,0,37
3,40,120,91
3,40,0,37
3,38,114,91
3,38,0,739
3,41,107,29
3,41,0,365
3,41,117,19
3,41,0,93
3,40,114,35
3,40,0,49
3,38,117,79
3,38,0,71
3,39,117,57
3,39,0,171
3,38,99,85
3,38,0,141
3,36,116,115
3,36,0,177
3,41,114,79
3,41,0,81
3,34,104,687
3,34,0,573
3,29,96,67
3,29,0,121
3,34,95,7
3,34,0,443
3,29,98,5
3,29,0,35
3,34,124,29
3,34,0,37
3,33,104,91
3,33,0,43
3,31,91,85
3,31,0,579
3,26,98,61
3,26,0,93
3,31,101,35
3,31,0,437
3,31,93,75
3,31,0,105
3,29,107,23
3,29,0,89
3,27,99,39
3,27,0,437
3,27,86,75
3,27,0,113
3,31,98,15
3,31,0,89
3,26,104,39
3,26,0,461
3,26,93,51
3,26,0,125
3,29,98,3
3,29,0,87
3,24,101,41
3,24,0,497
3,26,96,15
3,26,0,67
3,27,104,61
3,27,0,67
3,29,96,61
3,29,0,419
3,29,114,93
3,29,0,103
3,31,104,25
3,31,0,65
3,34,104,63
3,34,0,573
3,29,96,67
3,29,0,121
3,34,95,7
3,34,0,443
3,29,98,5
3,29,0,35
3,34,124,29
3,34,0,37
3,33,104,91
3,33,0,43
3,31,91,85
3,31,0,579
3,26,98,61
3,26,0,93
3,31,101,35
3,31,0,437
3,31,93,75
3,31,0,105
3,29,107,23
3,29,0,89
3,27,99,39
3,27,0,437
3,27,86,75
3,27,0,113
3,31,98,15
3,31,0,89
3,26,104,39
3,26,0,461
3,26,93,51
3,26,0,125
3,29,98,3
3,29,0,87
3,24,101,41
3,24,0,497
3,26,96,15
3,27,104,128
3,26,0,35
3,29,96,93
3,27,0,35
3,29,0,88
3,29,96,5
3,29,0,123
3,29,96,5
3,29,0,53
3,29,96,75
3,29,0,89
3,34,102,295
3,34,0,657
3,34,101,111
3,34,0,461
3,33,94,51
3,33,0,199
3,31,98,57
3,31,0,605
3,26,95,35
3,26,0,49
3,31,98,79
3,31,0,477
3,29,105,35
3,29,0,219
3,27,95,37
3,27,0,589
3,22,106,51
3,22,0,97
3,36,102,31
3,36,0,423
3,36,104,89
3,36,0,55
3,31,92,73
3,31,0,59
3,29,110,69
3,29,0,589
3,24,104,51
3,24,0,39
3,29,109,89
3,29,0,401
3,29,93,111
3,29,0,149
3,34,102,107
3,34,0,657
3,34,101,111
3,34,0,461
3,33,94,51
3,33,0,199
3,31,98,57
3,31,0,605
3,26,95,35
3,26,0,49
3,31,98,79
3,31,0,477
3,29,105,35
3,29,0,219
3,27,95,37
3,27,0,589
3,22,106,51
3,22,0,97
3,27,102,31
3,27,0,423
3,27,104,89
3,27,0,55
3,28,92,73
3,28,0,59
3,29,110,69
3,29,0,589
3,24,104,51
3,24,0,39
3,27,109,89
3,27,0,401
3,30,93,111
3,30,0,149
3,43,114,107
3,43,0,693
3,38,120,11
3,38,0,25
3,42,121,39
3,42,0,463
3,38,117,49
3,38,0,31
3,42,124,97
3,42,0,41
3,41,114,87
3,41,0,697
3,38,114,7
3,38,0,21
3,40,114,43
3,40,0,465
3,41,114,47
3,41,0,37
3,40,120,91
3,40,0,37
3,38,114,91
3,38,0,739
3,41,107,29
3,41,0,365
3,41,117,19
3,41,0,93
3,40,114,35
3,40,0,49
3,38,117,79
3,38,0,71
3,39,117,57
3,39,0,171
3,38,99,85
3,38,0,141
3,36,116,115
3,36,0,177
3,41,114,79
3,41,0,81
3,41,124,55
3,41,0,69
3,41,114,63
3,41,0,61
3,41,120,59
3,41,0,65
3,41,120,55
3,41,0,73
3,41,122,57
3,41,0,61
3,41,122,57
3,41,0,39
3,41,124,479
3,41,0,99
3,43,122,37
3,43,0,75
3,34,104,51
3,34,0,573
3,29,96,67
3,29,0,121
3,34,95,7
3,34,0,443
3,29,98,5
3,29,0,35
3,34,124,29
3,34,0,37
3,33,104,91
3,33,0,43
3,31,91,85
3,31,0,579
3,26,98,61
3,26,0,93
3,31,101,35
3,31,0,437
3,31,93,75
3,31,0,105
3,29,107,23
3,29,0,89
3,27,99,39
3,27,0,437
3,27,86,75
3,27,0,113
3,31,98,15
3,31,0,89
3,26,104,39
3,26,0,461
3,26,93,51
3,26,0,125
3,29,98,3
3,29,0,87
3,24,101,41
3,24,0,497
3,26,96,15
3,26,0,67
3,27,104,61
3,27,0,67
3,29,96,61
3,29,0,419
3,29,114,93
3,29,0,103
3,31,104,25
3,31,0,65
3,34,104,63
3,34,0,573
3,29,96,67
3,29,0,121
3,34,95,7
3,34,0,443
3,29,98,5
3,29,0,35
3,34,124,29
3,34,0,37
3,33,104,91
3,33,0,43
3,31,91,85
3,31,0,579
3,26,98,61
3,26,0,93
3,31,101,35
3,31,0,437
3,31,93,75
3,31,0,105
3,29,107,23
3,29,0,89
3,27,99,39
3,27,0,437
3,27,86,75
3,27,0,113
3,31,98,15
3,31,0,89
3,26,104,39
3,26,0,461
3,26,93,51
3,26,0,125
3,29,98,3
3,29,0,87
3,24,101,41
3,24,0,497
3,26,96,15
3,27,104,128
3,26,0,35
3,29,96,93
3,27,0,35
3,29,0,88
3,29,96,5
3,29,0,123
3,29,96,5
3,29,0,53
3,29,96,75
3,29,0,89
3,38,92,295
3,33,89,320
3,38,0,1
3,33,0,32
3,38,97,31
3,38,0,87
3,42,64,297
3,38,89,320
3,42,0,3
3,38,0,28
3,42,91,33
3,42,0,95
3,43,98,289
3,41,83,384
3,43,0,3
3,41,0,334
3,43,84,47
3,43,0,319
3,38,96,1
3,38,0,17
3,43,85,47
3,43,0,45
3,41,94,83
3,41,0,35
3,38,82,93
3,38,0,33
3,38,87,95
3,33,85,320
3,38,0,13
3,33,0,16
3,38,89,35
3,38,0,65
3,42,87,319
3,42,0,349
3,38,93,35
3,42,81,0
3,38,0,11
3,42,0,38
3,38,94,207
3,38,0,45
3,39,83,83
3,39,0,101
3,39,80,27
3,39,0,9
3,39,81,247
3,39,0,113
3,38,96,15
3,38,0,109
3,39,88,19
3,39,0,43
3,41,96,85
3,41,0,67
3,41,90,61
3,41,0,69
3,41,94,59
3,41,0,77
3,40,92,51
3,40,0,81
3,40,94,47
3,40,0,67
3,40,89,61
3,40,0,55
3,35,104,73
3,35,0,573
3,30,96,67
3,30,0,121
3,35,95,7
3,35,0,443
3,30,98,5
3,30,0,35
3,35,124,29
3,35,0,37
3,34,104,91
3,34,0,43
3,32,91,85
3,32,0,579
3,27,98,61
3,27,0,93
3,32,101,35
3,32,0,437
3,32,93,75
3,32,0,105
3,30,107,23
3,30,0,89
3,28,99,39
3,28,0,437
3,28,86,75
3,28,0,113
3,32,98,15
3,32,0,89
3,27,104,39
3,27,0,461
3,27,93,51
3,27,0,125
3,30,98,3
3,30,0,87
3,25,101,41
3,25,0,497
3,27,96,15
3,27,0,67
3,28,104,61
3,28,0,67
3,30,96,61
3,30,0,419
3,30,114,93
3,30,0,103
3,32,104,25
3,32,0,65
3,35,104,63
3,35,0,573
3,30,96,67
3,30,0,121
3,35,95,7
3,35,0,443
3,30,98,5
3,30,0,35
3,35,124,29
3,35,0,37
3,34,104,91
3,34,0,43
3,32,91,85
3,32,0,579
3,27,98,61
3,27,0,93
3,32,101,35
3,32,0,437
3,32,93,75
3,32,0,105
3,30,107,23
3,30,0,89
3,28,99,39
3,28,0,437
3,28,86,75
3,28,0,113
3,32,98,15
3,32,0,89
3,27,104,39
3,27,0,461
3,27,93,51
3,27,0,125
3,30,98,3
3,30,0,87
3,25,101,41
3,25,0,497
3,27,96,15
3,28,104,128
3,27,0,35
3,30,96,93
3,28,0,35
3,30,0,88
3,30,96,5
3,30,0,123
3,30,96,5
3,30,0,53
3,30,96,75
3,30,0,89
3,35,104,295
3,35,0,573
3,30,96,67
3,30,0,121
3,35,95,7
3,35,0,443
3,30,98,5
3,30,0,35
3,35,124,29
3,35,0,37
3,34,104,91
3,34,0,43
3,32,91,39
3,32,0,34
3,27,98,29
3,27,0,52
3,32,101,21
3,32,0,26
3,32,93,1
3,32,0,48
3,30,107,23
3,30,0,34
3,28,99,39
3,28,0,24
4,82,90,18814
4,86,90,0
4,91,91,0
4,86,0,47
4,82,0,4
4,91,0,2
4,82,90,715
4,86,88,0
4,90,91,0
4,82,0,45
4,86,0,4
4,90,0,0
4,82,90,719
4,86,87,0
4,89,88,0
4,82,0,47
4,86,0,6
4,89,0,2
4,82,90,713
4,86,90,0
4,88,89,0
4,82,0,63
4,88,0,4
4,86,0,2
4,81,89,699
4,86,88,0
4,89,90,0
4,81,0,57
4,86,0,2
4,89,0,2
4,79,79,1091
4,82,79,0
4,86,77,0
4,89,78,0
4,79,0,213
4,86,0,0
4,89,0,0
4,82,0,4
4,77,78,39
4,82,78,0
4,86,76,0
4,77,0,201
4,82,0,8
4,86,0,0
4,79,78,47
4,82,77,0
4,87,73,0
4,82,0,203
4,79,0,2
4,87,0,8
4,82,85,43
4,87,89,0
4,91,88,0
4,82,0,57
4,91,0,0
4,87,0,2
4,79,66,12229
4,82,69,0
4,87,66,0
4,79,0,69
4,82,0,8
4,87,0,4
4,79,78,47
4,82,78,0
4,87,73,0
4,82,0,75
4,79,0,4
4,87,0,2
4,79,84,47
4,82,89,0
4,87,89,0
4,82,0,89
4,79,0,4
4,87,0,0
4,79,92,35
4,82,93,0
4,87,92,0
4,79,0,45
4,82,0,4
4,87,0,0
4,82,90,13007
4,86,90,0
4,91,91,0
4,86,0,47
4,82,0,4
4,91,0,2
4,82,90,715
4,86,88,0
4,90,91,0
4,82,0,45
4,86,0,4
4,90,0,0
4,82,90,719
4,86,87,0
4,89,88,0
4,82,0,47
4,86,0,6
4,89,0,2
4,82,90,713
4,86,90,0
4,88,89,0
4,82,0,63
4,88,0,4
4,86,0,2
4,81,89,699
4,86,88,0
4,89,90,0
4,81,0,57
4,86,0,2
4,89,0,2
4,79,66,14915
4,82,69,0
4,87,66,0
4,79,0,69
4,82,0,8
4,87,0,4
4,79,78,47
4,82,78,0
4,87,73,0
4,82,0,75
4,79,0,4
4,87,0,2
4,79,84,47
4,82,89,0
4,87,89,0
4,82,0,89
4,79,0,4
4,87,0,0
4,79,92,35
4,82,93,0
4,87,92,0
4,79,0,45
4,82,0,4
4,87,0,0
4,81,97,719
4,86,97,0
4,89,96,0
4,81,0,49
4,86,0,0
4,89,0,6
4,84,96,713
4,86,96,0
4,90,97,0
4,86,0,63
4,84,0,2
4,90,0,2
4,81,95,2237
4,86,98,0
4,89,98,0
4,81,0,57
4,86,0,0
4,89,0,8
4,84,99,703
4,86,93,0
4,90,97,0
4,86,0,53
4,84,0,4
4,90,0,0
4,70,90,1095
4,75,93,0
4,79,97,0
4,70,0,87
4,75,0,0
4,79,0,2
4,70,93,39
4,75,98,0
4,79,91,0
4,70,0,87
4,75,0,6
4,79,0,0
4,70,95,35
4,75,97,0
4,79,97,0
4,75,0,73
4,79,0,4
4,70,0,8
4,71,97,43
4,76,97,0
4,80,95,0
4,76,0,85
4,80,0,8
4,71,0,2
4,71,95,33
4,76,91,0
4,80,95,0
4,76,0,97
4,80,0,6
4,71,0,2
4,71,98,23
4,76,99,0
4,80,95,0
4,71,0,71
4,76,0,6
4,80,0,0
4,68,66,11571
4,71,69,0
4,76,66,0
4,68,0,69
4,71,0,8
4,76,0,4
4,68,78,47
4,71,78,0
4,76,73,0
4,71,0,75
4,68,0,4
4,76,0,2
4,68,84,47
4,71,89,0
4,76,89,0
4,71,0,89
4,68,0,4
4,76,0,0
4,68,92,35
4,71,93,0
4,76,92,0
4,68,0,45
4,71,0,4
4,76,0,0
5,65,93,55
5,65,0,86
5,70,86,23
5,70,0,307
5,70,89,51
5,70,0,325
5,70,86,55
5,70,0,70
5,72,89,51
5,72,0,81
5,74,83,31
5,74,0,38
5,72,91,39
5,72,0,83
5,70,66,25
5,70,0,89
5,70,60,47
5,70,0,215
5,70,78,39
5,70,0,40
5,70,86,57
5,70,0,189
5,72,110,123
5,72,0,27
5,72,96,37
5,72,0,10
5,74,87,25
5,74,0,41
5,72,72,75
5,72,0,83
5,70,80,19
5,70,0,85
5,70,76,69
5,70,0,191
5,70,74,37
5,70,0,95
5,72,89,43
5,72,0,253
5,70,82,91
5,70,0,7
5,70,84,41
5,70,0,79
5,70,78,41
5,70,0,79
5,70,80,43
5,70,0,6
5,70,84,59
5,70,0,102
5,65,93,31
5,65,0,267
5,67,81,99
5,69,81,136
5,67,0,3
5,69,0,106
5,70,71,11
5,69,77,130
5,70,0,1
5,69,0,124
5,67,78,7
5,74,89,126
5,67,0,9
5,74,0,1
5,72,65,25
5,74,87,94
5,72,0,3
5,74,0,18
5,74,89,61
5,72,75,206
5,74,0,13
5,70,86,57
5,72,0,5
5,70,0,16
5,70,78,23
5,74,77,254
5,70,0,7
5,74,0,60
5,74,89,37
5,74,0,161
5,74,81,121
5,74,0,109
5,77,95,9
5,77,0,40
5,79,81,31
5,74,74,7
5,79,0,13
5,74,0,98
5,72,63,21
5,70,72,108
5,72,0,17
5,70,0,2
5,70,86,67
5,72,78,80
5,70,0,1
5,72,0,44
5,74,85,1
5,74,0,133
5,75,95,125
5,75,0,117
5,74,89,13
5,74,0,18
5,72,96,7
5,72,0,103
5,70,71,15
5,70,0,79
5,70,78,41
5,70,0,71
5,70,80,65
5,72,96,202
5,70,0,3
5,72,0,46
5,74,91,7
5,74,0,157
5,65,98,88
5,65,0,29
5,67,93,13
5,67,0,43
5,65,104,37
5,65,0,27
5,70,89,15
5,70,0,100
5,72,98,5
5,72,0,129
5,74,87,3
5,74,0,59
5,74,91,75
5,72,98,123
5,74,0,5
5,72,0,54
5,72,96,65
5,72,0,211
5,70,74,5
5,70,0,31
5,74,94,17
5,74,0,63
5,72,96,189
5,72,0,39
5,70,66,25
5,70,0,47
5,72,78,15
5,72,0,53
5,70,72,27
5,70,0,187
5,72,91,93
5,72,0,112
5,70,84,5
5,70,0,59
5,70,86,2
5,70,0,37
5,70,89,85
5,70,0,112
5,72,89,11
5,72,0,91
5,74,96,33
5,74,0,82
5,74,101,5
5,74,0,61
5,70,104,197
5,70,0,41
5,67,83,25
5,67,0,49
5,70,95,5
5,70,0,109
5,67,81,29
5,67,0,105
5,74,93,85
5,74,0,114
5,72,89,15
5,72,0,95
5,70,86,21
5,70,0,53
5,70,95,79
5,70,0,74
5,70,95,53
5,70,0,22
5,72,87,41
5,72,0,28
5,74,101,51
5,74,0,96
5,72,91,29
5,72,0,91
5,70,86,33
5,70,0,91
5,70,89,5
5,70,0,89
5,74,104,33
5,74,0,103
5,75,91,21
5,75,0,38
5,77,91,53
5,77,0,80
5,77,98,41
5,77,0,69
5,77,93,67
5,77,0,41
