track,note,velocity,time
1,55,100,5640
1,55,0,120
1,60,100,0
1,60,0,360
1,60,100,0
1,60,0,360
1,60,100,0
1,60,0,360
1,62,100,120
1,62,0,120
1,64,100,0
1,64,0,120
1,62,100,0
1,62,0,240
1,60,100,0
1,60,0,120
1,60,100,0
1,60,0,240
1,57,100,0
1,57,0,120
1,60,100,0
1,60,0,360
1,62,100,120
1,62,0,120
1,64,100,0
1,64,0,120
1,62,100,0
1,62,0,240
1,60,100,0
1,60,0,120
1,60,100,0
1,60,0,240
1,57,100,0
1,57,0,120
1,62,100,0
1,62,0,240
1,60,100,60
1,60,0,30
1,60,100,30
1,60,0,120
1,60,100,0
1,60,0,120
1,60,100,0
1,60,0,120
1,60,100,0
1,60,0,60
1,55,100,0
1,57,100,420
1,57,0,120
1,59,100,0
1,55,0,60
1,59,0,60
1,60,100,0
1,60,0,120
1,59,100,0
1,59,0,120
1,57,100,0
1,57,0,120
1,64,100,0
1,64,0,240
1,64,100,0
1,64,0,120
1,64,100,0
1,64,0,180
1,62,100,0
1,62,0,60
1,60,100,0
1,60,0,120
1,60,100,0
1,60,0,180
1,62,100,0
1,62,0,60
1,64,100,0
1,64,0,120
1,64,100,0
1,64,0,360
1,64,100,120
1,64,0,120
1,67,100,0
1,67,0,120
1,69,100,0
1,69,0,240
1,64,100,0
1,64,0,120
1,62,100,0
1,62,0,180
1,60,100,60
1,60,0,60
1,57,100,0
1,57,0,60
1,60,100,0
1,60,0,360
1,65,100,120
1,65,0,120
1,64,100,0
1,64,0,120
1,62,100,0
1,62,0,120
1,60,100,0
1,60,0,120
1,57,100,0
1,57,0,120
1,62,100,0
1,62,0,360
1,57,100,180
1,57,0,60
1,60,100,0
1,60,0,60
1,57,100,0
1,57,0,60
1,60,100,0
1,60,0,120
1,62,100,0
1,62,0,120
1,64,100,0
1,64,0,120
1,64,100,0
1,64,0,120
1,62,100,0
1,62,0,120
1,62,100,0
1,62,0,480
1,62,100,720
1,62,0,120
1,60,100,0
1,60,0,120
1,60,100,0
1,60,0,120
1,60,100,0
1,60,0,120
1,62,100,0
1,62,0,120
1,64,100,0
1,64,0,120
1,62,100,0
1,62,0,120
1,62,100,60
1,62,0,60
1,60,100,0
1,60,0,120
1,62,100,0
1,62,0,360
1,64,100,0
1,64,0,120
1,62,100,0
1,62,0,120
1,60,100,0
1,60,0,120
1,60,100,0
1,60,0,120
1,62,100,0
1,62,0,120
1,64,100,0
1,64,0,120
1,64,100,0
1,64,0,120
1,67,100,0
1,67,0,120
1,67,100,0
1,67,0,120
1,64,100,0
1,64,100,120
1,64,0,120
1,64,0,0
1,65,100,0
1,65,0,120
1,67,100,0
1,67,0,120
1,67,100,0
1,67,0,120
1,67,100,0
1,67,0,120
1,67,100,0
1,67,0,120
1,64,100,0
1,64,0,120
1,65,100,0
1,65,0,120
1,67,100,0
1,67,0,180
1,65,100,0
1,65,0,60
1,64,100,0
1,64,0,60
1,62,100,0
1,62,0,60
1,60,100,0
1,60,0,240
1,67,100,120
1,67,0,120
1,67,100,0
1,67,0,120
1,67,100,0
1,67,0,120
1,72,100,0
1,72,0,120
1,64,100,0
1,64,0,120
1,64,100,0
1,64,0,120
1,64,100,0
1,64,0,120
1,62,100,0
1,62,0,240
1,60,100,0
1,60,0,120
1,62,100,0
1,62,0,120
1,64,100,0
1,64,0,120
1,67,100,0
1,67,0,360
1,64,100,0
1,62,100,300
1,64,0,10
1,62,0,50
1,60,100,0
1,60,0,360
1,60,100,0
1,60,0,120
1,62,100,0
1,62,0,120
1,64,100,0
1,64,0,120
1,69,100,0
1,69,0,360
1,64,100,0
1,62,100,300
1,62,0,60
1,64,0,0
1,60,100,0
1,60,0,360
1,60,100,0
1,60,0,120
1,62,100,0
1,62,0,120
1,64,100,0
1,64,0,120
1,69,100,0
1,69,0,360
1,69,100,0
1,69,0,120
1,67,100,0
1,67,0,120
1,65,100,0
1,65,0,120
1,67,100,0
1,67,0,360
1,64,100,120
1,64,0,120
1,64,100,0
1,64,0,120
1,62,100,0
1,62,0,120
1,60,100,0
1,60,0,120
1,60,100,0
1,60,0,120
1,60,100,0
1,60,0,120
1,62,100,0
1,62,0,120
1,64,100,0
1,64,0,120
1,62,100,0
1,62,0,120
1,60,100,0
1,60,0,240
1,60,100,0
1,60,0,120
1,62,100,0
1,62,0,120
1,64,100,0
1,64,0,120
1,67,100,0
1,67,0,360
1,64,100,0
1,62,100,300
1,64,0,10
1,62,0,50
1,60,100,0
1,60,0,360
1,60,100,0
1,60,0,120
1,62,100,0
1,62,0,120
1,64,100,0
1,64,0,120
1,69,100,0
1,69,0,360
1,64,100,0
1,62,100,300
1,62,0,60
1,64,0,0
1,60,100,0
1,60,0,360
1,60,100,0
1,60,0,120
1,62,100,0
1,62,0,120
1,64,100,0
1,64,0,120
1,69,100,0
1,69,0,360
1,69,100,0
1,69,0,120
1,67,100,0
1,67,0,120
1,65,100,0
1,65,0,120
1,67,100,0
1,67,0,360
1,64,100,120
1,64,0,120
1,64,100,0
1,64,0,120
1,62,100,0
1,62,0,120
1,60,100,0
1,60,0,120
1,60,100,0
1,60,0,120
1,60,100,0
1,60,0,120
1,62,100,0
1,62,0,120
1,64,100,0
1,64,0,120
1,62,100,0
1,62,0,120
1,60,100,0
1,60,0,240
1,55,100,300
1,55,0,60
1,60,100,0
1,60,0,360
1,60,100,0
1,60,0,360
1,60,100,0
1,60,0,360
1,67,100,120
1,67,0,240
1,64,100,0
1,64,0,180
1,62,100,0
1,62,0,60
1,60,100,0
1,60,0,120
1,60,100,0
1,60,0,180
1,60,100,60
1,60,0,120
1,62,100,0
1,62,0,120
1,64,100,0
1,64,0,120
1,62,100,0
1,62,0,60
1,64,100,0
1,64,0,60
1,64,100,240
1,64,0,120
1,65,100,0
1,65,0,120
1,64,100,0
1,64,0,120
1,62,100,0
1,62,0,60
1,60,100,0
1,60,0,60
1,62,100,0
1,62,0,240
1,60,100,0
1,60,0,120
1,57,100,0
1,57,0,240
1,57,100,60
1,57,0,60
1,69,100,0
1,69,0,120
1,64,100,0
1,64,0,120
1,64,100,0
1,64,0,120
1,64,100,0
1,64,0,60
1,62,100,0
1,62,0,60
1,62,100,0
1,62,0,360
1,67,100,840
1,67,0,120
1,64,100,0
1,64,0,290
1,60,100,190
1,60,0,120
1,62,100,0
1,62,0,60
1,60,100,0
1,60,0,60
1,64,100,0
1,64,0,360
1,69,100,240
1,69,0,120
1,67,100,0
1,67,0,240
1,64,100,0
1,64,0,120
1,62,100,0
1,62,0,240
1,64,100,0
1,64,0,120
1,60,100,0
1,60,0,240
1,64,100,360
1,64,0,120
1,65,100,0
1,65,0,120
1,64,100,0
1,64,0,120
1,62,100,0
1,62,0,60
1,64,100,0
1,64,0,30
1,62,100,0
1,62,0,30
1,60,100,0
1,60,0,360
1,69,100,360
1,69,0,120
1,69,100,0
1,69,0,120
1,69,100,0
1,69,0,120
1,69,100,0
1,69,0,120
1,67,100,0
1,67,0,120
1,67,100,0
1,67,0,600
1,62,100,600
1,62,0,120
1,60,100,0
1,60,0,120
1,60,100,0
1,60,0,120
1,60,100,0
1,60,0,120
1,62,100,0
1,62,0,120
1,67,100,0
1,67,0,120
1,64,100,0
1,64,0,120
1,62,100,60
1,62,0,60
1,60,100,0
1,60,0,120
1,62,100,0
1,62,0,360
1,64,100,0
1,64,0,120
1,62,100,0
1,62,0,120
1,60,100,0
1,60,0,120
1,60,100,0
1,60,0,120
1,62,100,0
1,62,0,120
1,64,100,0
1,64,0,120
1,64,100,0
1,64,0,120
1,67,100,0
1,67,0,120
1,67,100,0
1,67,0,120
1,64,100,0
1,64,100,120
1,64,0,120
1,64,0,0
1,65,100,0
1,65,0,120
1,67,100,0
1,67,0,120
1,67,100,0
1,67,0,120
1,67,100,0
1,67,0,120
1,67,100,0
1,67,0,120
1,64,100,0
1,64,0,120
1,65,100,0
1,65,0,120
1,67,100,0
1,67,0,180
1,65,100,0
1,65,0,60
1,64,100,0
1,64,0,60
1,62,100,0
1,62,0,60
1,60,100,0
1,60,0,240
1,60,100,60
1,60,0,60
1,67,100,0
1,67,0,120
1,67,100,0
1,67,0,120
1,67,100,0
1,67,0,120
1,67,100,0
1,67,0,120
1,64,100,0
1,64,0,120
1,65,100,0
1,65,0,120
1,67,100,0
1,67,0,120
1,67,100,0
1,67,0,120
1,67,100,0
1,67,0,120
1,67,100,0
1,67,0,120
1,67,100,0
1,67,0,120
1,67,100,0
1,67,0,120
1,76,100,0
1,60,100,360
1,60,0,120
1,62,100,0
1,62,0,120
1,64,100,0
1,64,0,120
1,76,0,0
1,72,100,0
1,67,100,0
1,67,0,360
1,72,0,0
1,71,100,0
1,64,100,0
1,62,100,300
1,64,0,10
1,62,0,50
1,71,0,0
1,69,100,0
1,60,100,0
1,69,0,120
1,67,100,0
1,67,0,240
1,60,0,0
1,60,100,0
1,60,0,120
1,62,100,0
1,62,0,120
1,64,100,0
1,64,0,120
1,69,100,0
1,64,100,120
1,64,0,60
1,65,100,0
1,65,0,60
1,64,100,0
1,64,0,60
1,62,100,0
1,62,0,60
1,69,0,0
1,60,100,0
1,64,100,0
1,60,0,240
1,55,100,0
1,62,100,60
1,62,0,60
1,55,0,0
1,64,0,0
1,55,100,0
1,60,100,0
1,55,0,120
1,62,100,0
1,62,0,120
1,60,0,120
1,60,100,0
1,60,0,120
1,62,100,0
1,62,0,120
1,64,100,0
1,64,0,120
1,69,100,0
1,69,0,360
1,69,100,0
1,69,0,120
1,67,100,0
1,67,0,120
1,65,100,0
1,65,0,120
1,67,100,0
1,67,0,360
1,64,100,120
1,64,0,120
1,64,100,0
1,64,0,120
1,62,100,0
1,62,0,120
1,60,100,0
1,60,0,120
1,60,100,0
1,60,0,120
1,60,100,0
1,60,0,120
1,62,100,0
1,62,0,120
1,64,100,0
1,64,0,120
1,62,100,0
1,62,0,120
1,60,100,0
1,60,0,240
1,60,100,0
1,60,0,120
1,62,100,0
1,62,0,120
1,64,100,0
1,64,0,120
1,67,100,0
1,64,100,300
1,64,0,60
1,67,0,0
1,64,100,0
1,64,100,0
1,64,0,60
1,62,100,0
1,62,0,60
1,64,100,0
1,64,0,120
1,62,100,0
1,62,100,60
1,64,0,10
1,62,0,30
1,62,0,20
1,60,100,0
1,60,0,360
1,60,100,0
1,60,0,120
1,62,100,0
1,62,0,120
1,64,100,0
1,64,0,120
1,69,100,0
1,67,100,180
1,67,0,60
1,69,100,0
1,69,0,60
1,72,100,0
1,72,0,60
1,69,0,0
1,74,100,0
1,64,100,0
1,74,0,240
1,69,100,0
1,62,100,60
1,62,0,60
1,69,0,0
1,64,0,0
1,69,100,0
1,60,100,0
1,69,0,240
1,60,0,120
1,60,100,0
1,60,0,120
1,62,100,0
1,62,0,120
1,64,100,0
1,64,0,120
1,69,100,0
1,69,0,360
1,69,100,0
1,69,0,120
1,67,100,0
1,67,0,120
1,65,100,0
1,65,0,120
1,67,100,0
1,67,0,360
1,64,100,120
1,64,0,120
1,64,100,0
1,64,0,120
1,62,100,0
1,62,0,120
1,60,100,0
1,60,0,120
1,60,100,0
1,60,0,120
1,60,100,0
1,60,0,120
1,62,100,0
1,62,0,120
1,64,100,0
1,64,0,120
1,62,100,0
1,62,0,120
1,60,100,0
1,60,0,120
1,60,100,0
1,60,0,120
1,60,100,0
1,60,0,120
1,62,100,720
1,62,0,120
1,62,100,0
1,62,0,240
1,64,100,360
1,64,0,120
1,64,100,0
1,64,0,240
1,64,100,0
1,64,0,120
1,62,100,0
1,62,0,120
1,64,100,120
1,64,0,120
1,62,100,0
1,62,0,120
1,62,100,120
1,62,0,120
1,60,100,0
1,60,0,120
1,55,100,120
1,55,0,60
1,55,100,0
1,55,0,60
1,67,100,0
1,67,0,120
1,67,100,480
1,67,0,120
1,64,100,0
1,64,0,120
1,62,100,0
1,62,0,120
1,69,100,180
1,69,0,60
1,72,100,0
1,72,0,60
1,69,100,0
1,69,0,60
1,67,100,0
1,67,0,120
1,69,100,0
1,69,0,120
1,69,100,0
1,69,0,180
1,67,100,0
1,67,0,60
1,65,100,0
1,65,0,180
1,67,100,0
1,67,0,60
1,69,100,0
1,69,0,560
1,62,100,40
1,62,0,120
1,64,100,0
1,64,0,120
1,66,100,0
1,66,0,120
1,74,100,0
1,69,100,0
1,69,0,360
1,74,0,0
1,73,100,0
1,66,100,0
1,64,100,300
1,66,0,10
1,64,0,50
1,73,0,0
1,71,100,0
1,62,100,0
1,71,0,120
1,69,100,0
1,62,0,240
1,62,100,0
1,62,0,120
1,69,0,0
1,64,100,0
1,64,0,120
1,66,100,0
1,66,0,120
1,71,100,0
1,69,100,180
1,69,0,60
1,71,100,0
1,71,0,60
1,74,100,0
1,74,0,60
1,71,0,0
1,76,100,0
1,66,100,0
1,76,0,240
1,71,100,0
1,64,100,60
1,64,0,60
1,71,0,0
1,66,0,0
1,71,100,0
1,62,100,0
1,62,0,360
1,71,0,0
1,62,100,0
1,62,0,120
1,64,100,0
1,64,0,120
1,66,100,0
1,66,0,120
1,71,100,0
1,71,0,360
1,74,100,0
1,71,100,0
1,71,0,120
1,74,0,0
1,73,100,0
1,69,100,0
1,69,0,120
1,73,0,0
1,71,100,0
1,67,100,0
1,67,0,120
1,71,0,0
1,73,100,0
1,69,100,0
1,73,0,240
1,69,0,120
1,69,100,120
1,66,100,0
1,66,0,120
1,69,0,0
1,69,100,0
1,66,100,0
1,66,0,120
1,69,0,0
1,67,100,0
1,64,100,0
1,64,0,120
1,67,0,0
1,66,100,0
1,62,100,0
1,62,0,120
1,66,0,0
1,66,100,0
1,62,100,0
1,62,0,120
1,66,0,0
1,66,100,0
1,62,100,0
1,62,0,120
1,66,0,0
1,67,100,0
1,64,100,0
1,64,0,120
1,67,0,0
1,69,100,0
1,66,100,0
1,66,0,120
1,69,0,0
1,67,100,0
1,64,100,0
1,64,0,120
1,67,0,0
1,66,100,0
1,62,100,0
1,62,0,240
1,66,0,0
1,62,100,0
1,62,0,120
1,64,100,0
1,64,0,120
1,66,100,0
1,66,0,120
1,69,100,0
1,66,100,240
1,66,0,120
1,69,0,0
1,66,100,0
1,66,100,0
1,66,0,60
1,64,100,0
1,64,0,60
1,66,100,0
1,66,0,120
1,64,100,0
1,64,100,60
1,66,0,10
1,64,0,50
1,64,0,0
1,62,100,0
1,62,0,360
1,62,100,0
1,62,0,120
1,64,100,0
1,64,0,120
1,66,100,0
1,66,0,120
1,71,100,0
1,69,100,180
1,69,0,60
1,71,100,0
1,71,0,60
1,74,100,0
1,74,0,60
1,71,0,0
1,76,100,0
1,66,100,0
1,76,0,240
1,71,100,0
1,64,100,60
1,64,0,60
1,71,0,0
1,66,0,0
1,71,100,0
1,62,100,0
1,62,0,360
1,71,0,0
1,62,100,0
1,62,0,120
1,64,100,0
1,64,0,120
1,66,100,0
1,66,0,120
1,71,100,0
1,71,0,360
1,71,100,0
1,71,0,120
1,69,100,0
1,69,0,120
1,67,100,0
1,67,0,120
1,69,100,0
1,69,0,360
1,69,100,120
1,66,100,0
1,66,0,120
1,69,0,0
1,69,100,0
1,66,100,0
1,66,0,120
1,69,0,0
1,67,100,0
1,64,100,0
1,64,0,120
1,67,0,0
1,66,100,0
1,62,100,0
1,62,0,120
1,66,0,0
1,66,100,0
1,62,100,0
1,62,0,120
1,66,0,0
1,66,100,0
1,62,100,0
1,62,0,120
1,66,0,0
1,67,100,0
1,64,100,0
1,64,0,120
1,67,0,0
1,69,100,0
1,66,100,0
1,66,0,120
1,69,0,0
1,67,100,0
1,64,100,0
1,64,0,120
1,67,0,0
1,62,100,0
1,66,100,0
1,62,100,0
1,62,0,240
1,66,0,0
1,62,0,0
1,62,100,0
1,62,0,120
1,64,100,0
1,64,0,120
1,66,100,0
1,66,0,120
1,74,100,0
1,69,100,0
1,69,0,360
1,74,0,0
1,73,100,0
1,66,100,0
1,64,100,300
1,66,0,10
1,64,0,50
1,73,0,0
