track,note,velocity,time
0,42,110,0
0,42,90,44
0,42,90,104
0,42,90,291
0,36,115,291
0,42,85,0
0,49,85,0
0,54,74,0
0,82,66,0
0,32,100,0
0,63,100,0
0,59,100,0
0,68,100,0
0,44,100,0
0,56,100,0
0,44,100,0
0,68,100,0
0,42,71,99
0,82,61,0
0,27,100,0
0,39,100,0
0,51,100,0
0,39,100,0
0,63,100,0
0,69,58,3
0,39,104,3
0,38,104,0
0,42,71,0
0,54,74,0
0,82,61,0
0,42,74,99
0,82,60,0
0,27,100,0
0,39,100,0
0,51,100,0
0,39,100,0
0,63,100,0
0,36,60,3
0,69,65,0
0,36,115,3
0,42,67,0
0,54,71,0
0,82,67,0
0,28,100,0
0,40,100,0
0,52,100,0
0,40,100,0
0,64,100,0
0,46,75,99
0,82,58,0
0,27,100,0
0,39,100,0
0,51,100,0
0,39,100,0
0,63,100,0
0,69,58,3
0,39,93,3
0,38,105,0
0,42,71,0
0,54,66,0
0,82,60,0
0,42,56,99
0,82,55,0
0,27,100,0
0,39,100,0
0,51,100,0
0,39,100,0
0,63,100,0
0,69,58,3
0,36,115,3
0,42,85,0
0,54,71,0
0,82,66,0
0,31,100,0
0,58,100,0
0,67,100,0
0,61,100,0
0,43,100,0
0,55,100,0
0,43,100,0
0,67,100,0
0,42,74,99
0,82,61,0
0,27,100,0
0,39,100,0
0,51,100,0
0,39,100,0
0,63,100,0
0,69,58,3
0,39,104,3
0,38,104,0
0,42,69,0
0,54,67,0
0,82,61,0
0,42,71,99
0,82,60,0
0,28,100,0
0,40,100,0
0,52,100,0
0,40,100,0
0,64,100,0
0,36,60,3
0,69,65,0
0,36,115,3
0,42,74,0
0,54,74,0
0,82,67,0
0,46,79,9
0,82,58,0
0,27,100,0
0,39,100,0
0,51,100,0
0,39,100,0
0,63,100,0
0,69,58,3
0,39,93,3
0,38,105,0
0,42,64,0
0,54,71,0
0,82,60,0
0,26,100,0
0,38,100,0
0,50,100,0
0,38,100,0
0,62,100,0
0,42,67,5
0,82,55,0
0,27,100,0
0,39,100,0
0,51,100,0
0,39,100,0
0,63,100,0
0,69,58,3
0,36,115,3
0,42,85,0
0,54,74,0
0,82,66,0
0,32,100,0
0,59,100,0
0,68,100,0
0,63,100,0
0,44,100,0
0,56,100,0
0,44,100,0
0,68,100,0
0,42,71,99
0,82,61,0
0,27,100,0
0,39,100,0
0,51,100,0
0,39,100,0
0,63,100,0
0,69,58,3
0,39,104,3
0,38,104,0
0,42,71,0
0,54,74,0
0,82,61,0
0,42,74,99
0,82,60,0
0,27,100,0
0,39,100,0
0,51,100,0
0,39,100,0
0,63,100,0
0,36,60,3
0,69,65,0
0,36,115,3
0,42,67,0
0,54,71,0
0,82,67,0
0,28,100,0
0,40,100,0
0,52,100,0
0,40,100,0
0,64,100,0
0,46,73,99
0,82,58,0
0,27,100,0
0,39,100,0
0,51,100,0
0,39,100,0
0,63,100,0
0,69,58,3
0,39,93,3
0,38,105,0
0,42,71,0
0,54,66,0
0,82,60,0
0,42,56,99
0,82,55,0
0,27,100,0
0,39,100,0
0,51,100,0
0,39,100,0
0,63,100,0
0,69,58,3
0,36,115,3
0,42,85,0
0,54,71,0
0,82,66,0
0,31,100,0
0,58,100,0
0,61,100,0
0,67,100,0
0,43,100,0
0,55,100,0
0,43,100,0
0,67,100,0
0,42,74,99
0,82,61,0
0,27,100,0
0,39,100,0
0,51,100,0
0,39,100,0
0,63,100,0
0,69,58,3
0,39,104,3
0,38,104,0
0,42,69,0
0,54,67,0
0,82,61,0
0,32,100,0
0,44,100,0
0,56,100,0
0,44,100,0
0,68,100,0
0,42,71,99
0,82,60,0
0,34,100,0
0,46,100,0
0,58,100,0
0,46,100,0
0,70,100,0
0,69,65,3
0,36,115,3
0,39,104,0
0,38,104,0
0,42,74,0
0,54,74,0
0,82,67,0
0,35,100,0
0,47,100,0
0,59,100,0
0,47,100,0
0,71,100,0
0,36,115,99
0,46,71,0
0,82,58,0
0,69,58,3
0,39,93,3
0,38,105,0
0,42,64,0
0,57,79,0
0,54,71,0
0,82,60,0
0,34,100,0
0,46,100,0
0,58,100,0
0,46,100,0
0,70,100,0
0,36,115,99
0,42,67,0
0,82,55,0
0,63,105,0
0,59,105,0
0,69,58,3
0,36,115,3
0,42,85,0
0,49,85,0
0,54,74,0
0,82,66,0
0,32,100,0
0,63,120,0
0,59,120,0
0,63,100,0
0,59,100,0
0,68,100,0
0,44,100,0
0,56,100,0
0,44,100,0
0,68,100,0
0,42,71,99
0,82,61,0
0,27,100,0
0,39,100,0
0,51,100,0
0,39,100,0
0,63,100,0
0,69,58,3
0,39,104,3
0,38,104,0
0,42,71,0
0,54,74,0
0,82,61,0
0,42,74,99
0,82,60,0
0,27,100,0
0,63,120,0
0,59,120,0
0,39,100,0
0,51,100,0
0,39,100,0
0,63,100,0
0,36,64,3
0,69,65,0
0,36,115,3
0,42,67,0
0,54,71,0
0,82,67,0
0,28,100,0
0,63,124,0
0,59,124,0
0,40,100,0
0,52,100,0
0,40,100,0
0,64,100,0
0,46,75,99
0,82,58,0
0,27,100,0
0,39,100,0
0,51,100,0
0,39,100,0
0,63,100,0
0,69,58,3
0,39,93,3
0,38,105,0
0,42,71,0
0,54,66,0
0,82,60,0
0,42,56,99
0,82,55,0
0,27,100,0
0,63,120,0
0,59,120,0
0,39,100,0
0,51,100,0
0,39,100,0
0,63,100,0
0,69,58,3
0,36,115,3
0,42,85,0
0,54,71,0
0,82,66,0
0,31,100,0
0,67,116,0
0,58,116,0
0,58,100,0
0,67,100,0
0,61,100,0
0,43,100,0
0,55,100,0
0,43,100,0
0,67,100,0
0,42,74,99
0,82,61,0
0,27,100,0
0,63,105,0
0,58,105,0
0,39,100,0
0,51,100,0
0,39,100,0
0,63,100,0
0,69,58,3
0,39,104,3
0,38,104,0
0,42,69,0
0,54,67,0
0,82,61,0
0,61,115,0
0,58,115,0
0,42,71,99
0,82,60,0
0,28,100,0
0,64,105,0
0,58,105,0
0,40,100,0
0,52,100,0
0,40,100,0
0,64,100,0
0,36,60,3
0,69,65,0
0,36,115,3
0,42,74,0
0,54,74,0
0,82,67,0
0,63,120,0
0,58,120,0
0,46,79,9
0,82,58,0
0,27,100,0
0,39,100,0
0,51,100,0
0,39,100,0
0,63,100,0
0,69,58,3
0,39,93,3
0,38,105,0
0,42,64,0
0,54,71,0
0,82,60,0
0,26,100,0
0,38,100,0
0,50,100,0
0,38,100,0
0,62,100,0
0,42,67,5
0,82,55,0
0,27,100,0
0,63,124,0
0,59,124,0
0,39,100,0
0,51,100,0
0,39,100,0
0,63,100,0
0,69,58,3
0,36,115,3
0,42,85,0
0,54,74,0
0,82,66,0
0,32,100,0
0,63,124,0
0,59,124,0
0,59,100,0
0,68,100,0
0,63,100,0
0,44,100,0
0,56,100,0
0,44,100,0
0,68,100,0
0,42,71,99
0,82,61,0
0,27,100,0
0,39,100,0
0,51,100,0
0,39,100,0
0,63,100,0
0,69,58,3
0,39,104,3
0,38,104,0
0,42,71,0
0,54,74,0
0,82,61,0
0,42,74,99
0,82,60,0
0,27,100,0
0,63,120,0
0,59,120,0
0,39,100,0
0,51,100,0
0,39,100,0
0,63,100,0
0,36,60,3
0,69,65,0
0,36,115,3
0,42,67,0
0,54,71,0
0,82,67,0
0,28,100,0
0,63,124,0
0,59,124,0
0,40,100,0
0,52,100,0
0,40,100,0
0,64,100,0
0,46,73,99
0,82,58,0
0,27,100,0
0,39,100,0
0,51,100,0
0,39,100,0
0,63,100,0
0,69,58,3
0,39,93,3
0,38,105,0
0,42,71,0
0,54,66,0
0,82,60,0
0,42,56,99
0,82,55,0
0,27,100,0
0,63,115,0
0,59,115,0
0,39,100,0
0,51,100,0
0,39,100,0
0,63,100,0
0,69,58,3
0,36,115,3
0,42,85,0
0,54,71,0
0,82,66,0
0,31,100,0
0,67,116,0
0,58,116,0
0,58,100,0
0,61,100,0
0,67,100,0
0,43,100,0
0,55,100,0
0,43,100,0
0,67,100,0
0,42,74,99
0,82,61,0
0,27,100,0
0,63,115,0
0,58,115,0
0,39,100,0
0,51,100,0
0,39,100,0
0,63,100,0
0,69,58,3
0,39,104,3
0,38,104,0
0,42,69,0
0,54,67,0
0,82,61,0
0,32,100,0
0,68,115,0
0,58,115,0
0,44,100,0
0,56,100,0
0,44,100,0
0,68,100,0
0,42,71,99
0,82,60,0
0,34,100,0
0,70,86,0
0,59,86,0
0,46,100,0
0,58,100,0
0,46,100,0
0,70,100,0
0,69,65,3
0,36,115,3
0,39,104,0
0,38,104,0
0,42,74,0
0,54,74,0
0,82,67,0
0,35,100,0
0,70,110,0
0,58,110,0
0,47,100,0
0,59,100,0
0,47,100,0
0,71,100,0
0,36,115,99
0,46,71,0
0,82,58,0
0,68,115,0
0,56,115,0
0,69,58,3
0,39,93,3
0,38,105,0
0,42,64,0
0,57,79,0
0,54,71,0
0,82,60,0
0,34,100,0
0,46,100,0
0,58,100,0
0,46,100,0
0,70,100,0
0,36,115,99
0,42,67,0
0,82,55,0
0,69,58,3
0,36,115,3
0,42,85,0
0,49,85,0
0,54,74,0
0,82,66,0
0,32,100,0
0,59,100,0
0,56,100,0
0,63,100,0
0,59,100,0
0,56,100,0
0,63,100,0
0,42,71,99
0,82,61,0
0,63,100,0
0,69,58,3
0,39,104,3
0,38,104,0
0,42,71,0
0,54,74,0
0,82,61,0
0,63,100,0
0,42,74,96
0,82,60,0
0,27,100,0
0,63,100,0
0,36,60,3
0,69,65,0
0,63,100,0
0,36,115,3
0,42,67,0
0,54,71,0
0,82,67,0
0,27,100,0
0,46,75,99
0,82,58,0
0,61,100,0
0,69,58,3
0,39,93,3
0,38,105,0
0,42,71,0
0,54,66,0
0,82,60,0
0,27,100,0
0,59,100,0
0,42,56,99
0,82,55,0
0,56,100,0
0,69,58,3
0,36,115,3
0,42,85,0
0,54,71,0
0,82,66,0
0,35,100,0
0,59,100,0
0,54,100,0
0,63,100,0
0,59,100,0
0,59,100,0
0,54,100,0
0,63,100,0
0,42,74,99
0,82,61,0
0,69,58,3
0,61,100,0
0,39,104,3
0,38,104,0
0,42,69,0
0,54,67,0
0,82,61,0
0,42,71,64
0,82,60,0
0,35,100,0
0,61,100,0
0,36,56,3
0,69,65,0
0,36,115,3
0,42,74,0
0,54,74,0
0,82,67,0
0,35,100,0
0,46,79,99
0,82,58,0
0,69,58,3
0,39,93,3
0,38,105,0
0,42,64,0
0,54,71,0
0,82,60,0
0,30,100,0
0,42,67,99
0,82,55,0
0,69,58,3
0,36,115,3
0,42,85,0
0,54,74,0
0,82,66,0
0,35,100,0
0,63,100,0
0,54,100,0
0,59,100,0
0,64,100,0
0,63,100,0
0,54,100,0
0,59,100,0
0,42,71,99
0,82,61,0
0,63,100,0
0,69,58,3
0,39,104,3
0,38,104,0
0,42,71,0
0,54,74,0
0,82,61,0
0,61,100,0
0,42,74,1
0,82,60,0
0,27,100,0
0,59,100,0
0,36,56,3
0,69,65,0
0,36,115,3
0,42,67,0
0,54,71,0
0,82,67,0
0,28,100,0
0,64,100,0
0,56,100,0
0,59,100,0
0,66,100,0
0,64,100,0
0,56,100,0
0,59,100,0
0,46,73,99
0,82,58,0
0,69,58,3
0,63,100,0
0,39,93,3
0,38,105,0
0,42,71,0
0,54,66,0
0,82,60,0
0,28,100,0
0,42,56,99
0,82,55,0
0,61,100,0
0,69,58,3
0,36,115,3
0,42,85,0
0,54,71,0
0,82,66,0
0,32,100,0
0,63,100,0
0,59,100,0
0,56,100,0
0,63,100,0
0,59,100,0
0,56,100,0
0,56,110,0
0,59,100,3
0,42,74,10
0,82,61,0
0,56,100,0
0,69,58,3
0,56,92,0
0,39,104,3
0,38,104,0
0,42,69,0
0,54,67,0
0,82,61,0
0,42,71,96
0,82,60,0
0,30,100,0
0,58,100,0
0,54,100,0
0,61,100,0
0,58,100,0
0,54,100,0
0,61,100,0
0,54,105,0
0,69,65,3
0,36,115,3
0,42,74,0
0,54,74,0
0,82,67,0
0,30,100,0
0,36,115,99
0,46,71,0
0,82,58,0
0,54,105,0
0,69,58,3
0,39,93,3
0,38,105,0
0,42,64,0
0,57,79,0
0,54,71,0
0,82,60,0
0,30,100,0
0,54,100,0
0,54,89,3
0,42,67,28
0,82,55,0
0,69,58,3
0,36,115,3
0,42,85,0
0,49,85,0
0,54,74,0
0,82,66,0
0,32,100,0
0,59,100,0
0,56,100,0
0,63,100,0
0,59,100,0
0,56,100,0
0,63,100,0
0,42,71,99
0,82,61,0
0,63,100,0
0,69,58,3
0,39,104,3
0,38,104,0
0,42,71,0
0,54,74,0
0,82,61,0
0,63,100,0
0,42,74,96
0,82,60,0
0,27,100,0
0,63,100,0
0,36,60,3
0,69,65,0
0,63,100,0
0,36,115,3
0,42,67,0
0,54,71,0
0,82,67,0
0,27,100,0
0,46,75,99
0,82,58,0
0,61,100,0
0,69,58,3
0,39,93,3
0,38,105,0
0,42,71,0
0,54,66,0
0,82,60,0
0,27,100,0
0,59,100,0
0,42,56,99
0,82,55,0
0,56,100,0
0,69,58,3
0,36,115,3
0,42,85,0
0,54,71,0
0,82,66,0
0,35,100,0
0,59,100,0
0,54,100,0
0,63,100,0
0,59,100,0
0,59,100,0
0,54,100,0
0,63,100,0
0,42,74,99
0,82,61,0
0,69,58,3
0,61,100,0
0,39,104,3
0,38,104,0
0,42,69,0
0,54,67,0
0,82,61,0
0,42,71,64
0,82,60,0
0,35,100,0
0,61,100,0
0,36,56,3
0,69,65,0
0,36,115,3
0,42,74,0
0,54,74,0
0,82,67,0
0,35,100,0
0,46,79,99
0,82,58,0
0,69,58,3
0,39,93,3
0,38,105,0
0,42,64,0
0,54,71,0
0,82,60,0
0,30,100,0
0,42,67,99
0,82,55,0
0,69,58,3
0,36,115,3
0,42,85,0
0,54,74,0
0,82,66,0
0,35,100,0
0,63,100,0
0,54,100,0
0,59,100,0
0,64,100,0
0,63,100,0
0,54,100,0
0,59,100,0
0,42,71,99
0,82,61,0
0,63,100,0
0,69,58,3
0,39,104,3
0,38,104,0
0,42,71,0
0,54,74,0
0,82,61,0
0,61,100,0
0,42,74,1
0,82,60,0
0,27,100,0
0,59,100,0
0,36,56,3
0,69,65,0
0,36,115,3
0,42,67,0
0,54,71,0
0,82,67,0
0,28,100,0
0,64,100,0
0,56,100,0
0,59,100,0
0,66,100,0
0,64,100,0
0,56,100,0
0,59,100,0
0,46,73,99
0,82,58,0
0,69,58,3
0,68,100,0
0,39,93,3
0,38,105,0
0,42,71,0
0,54,66,0
0,82,60,0
0,28,100,0
0,42,56,99
0,82,55,0
0,66,100,0
0,69,58,3
0,36,115,3
0,42,85,0
0,54,71,0
0,82,66,0
0,32,100,0
0,63,100,0
0,59,100,0
0,56,100,0
0,63,100,0
0,59,100,0
0,56,100,0
0,56,110,0
0,42,74,99
0,82,61,0
0,68,100,0
0,69,58,3
0,56,92,0
0,39,104,3
0,38,104,0
0,42,69,0
0,54,67,0
0,82,61,0
0,42,71,96
0,82,60,0
0,30,100,0
0,58,100,0
0,54,100,0
0,61,100,0
0,58,100,0
0,54,100,0
0,61,100,0
0,54,105,0
0,69,65,3
0,36,115,3
0,42,74,0
0,54,74,0
0,82,67,0
0,30,100,0
0,36,115,99
0,46,71,0
0,82,58,0
0,54,105,0
0,69,58,3
0,39,93,3
0,38,105,0
0,42,64,0
0,57,79,0
0,54,71,0
0,82,60,0
0,30,100,0
0,54,100,0
0,38,105,3
0,39,93,0
0,54,89,0
0,42,67,3
0,82,55,0
0,69,58,3
0,36,115,3
0,42,85,0
0,49,85,0
0,54,74,0
0,82,66,0
0,28,100,0
0,59,100,0
0,64,100,0
0,56,100,0
0,59,100,0
0,64,100,0
0,56,100,0
0,42,71,99
0,82,61,0
0,64,100,0
0,69,58,3
0,39,104,3
0,38,104,0
0,42,71,0
0,54,74,0
0,82,61,0
0,28,100,0
0,64,100,0
0,42,74,99
0,82,60,0
