track,note,velocity,time
4,42,75,840
4,42,75,292
4,42,75,292
4,42,79,300
4,36,89,37196
4,42,60,0
4,49,37,0
4,57,49,0
4,46,48,4
4,37,96,0
4,42,72,0
4,36,58,4
4,42,29,0
4,42,35,4
4,36,31,4
4,42,25,0
4,42,34,4
4,36,38,4
4,42,36,0
4,36,79,4
4,42,58,0
4,46,41,4
4,37,99,0
4,42,70,0
4,36,56,4
4,42,34,0
4,42,47,4
4,36,31,4
4,42,35,0
4,42,47,4
4,36,43,4
4,42,44,0
4,36,89,4
4,42,60,0
4,46,48,4
4,37,96,0
4,42,72,0
4,36,58,4
4,42,29,0
4,42,35,4
4,36,31,4
4,42,25,0
4,42,34,4
4,36,38,4
4,42,36,0
4,36,79,4
4,42,58,0
4,46,41,4
4,37,99,0
4,42,70,0
4,36,56,4
4,42,34,0
4,42,47,4
4,36,31,4
4,42,35,0
4,42,47,4
4,36,43,4
4,42,44,0
4,36,89,4
4,42,60,0
4,46,48,4
4,37,96,0
4,42,72,0
4,36,58,4
4,42,29,0
4,42,35,4
4,36,31,4
4,42,25,0
4,42,34,4
4,36,38,4
4,42,36,0
4,36,79,4
4,42,58,0
4,46,41,4
4,37,99,0
4,42,70,0
4,36,56,4
4,42,34,0
4,42,47,4
4,36,31,4
4,42,35,0
4,42,47,4
4,36,43,4
4,42,44,0
4,36,89,4
4,42,60,0
4,46,48,4
4,37,96,0
4,42,72,0
4,36,58,4
4,42,29,0
4,42,35,4
4,36,31,4
4,42,25,0
4,42,34,4
4,36,38,4
4,42,36,0
4,36,79,4
4,42,58,0
4,46,41,4
4,37,99,0
4,42,70,0
4,36,56,4
4,42,34,0
4,42,47,4
4,36,31,4
4,42,35,0
4,42,47,4
4,36,43,4
4,42,44,0
4,36,81,4
4,49,49,0
4,36,89,5984
4,42,60,0
4,57,38,0
4,46,48,4
4,37,96,0
4,42,72,0
4,36,58,4
4,42,29,0
4,42,35,4
4,36,31,4
4,42,25,0
4,42,34,4
4,36,38,4
4,42,36,0
4,36,79,4
4,42,58,0
4,46,41,4
4,37,99,0
4,42,70,0
4,36,56,4
4,42,34,0
4,42,47,4
4,36,31,4
4,42,35,0
4,42,47,4
4,36,43,4
4,42,44,0
4,36,89,4
4,42,60,0
4,46,48,4
4,37,96,0
4,42,72,0
4,36,58,4
4,42,29,0
4,42,35,4
4,36,31,4
4,42,25,0
4,42,34,4
4,36,38,4
4,42,36,0
4,36,79,4
4,42,58,0
4,46,41,4
4,37,99,0
4,42,70,0
4,36,56,4
4,42,34,0
4,42,47,4
4,36,31,4
4,42,35,0
4,42,47,4
4,36,43,4
4,42,44,0
4,36,89,4
4,42,60,0
4,46,48,4
4,37,96,0
4,42,72,0
4,36,58,4
4,42,29,0
4,42,35,4
4,36,31,4
4,42,25,0
4,42,34,4
4,36,38,4
4,42,36,0
4,36,79,4
4,42,58,0
4,46,41,4
4,37,99,0
4,42,70,0
4,36,56,4
4,42,34,0
4,42,47,4
4,36,31,4
4,42,35,0
4,42,47,4
4,36,43,4
4,42,44,0
4,36,89,4
4,42,60,0
4,46,48,4
4,37,96,0
4,42,72,0
4,36,58,4
4,42,29,0
4,42,35,4
4,36,31,4
4,42,25,0
4,42,34,4
4,36,38,4
4,42,36,0
4,36,79,4
4,42,58,0
4,46,41,4
4,37,99,0
4,42,70,0
4,36,56,4
4,42,34,0
4,42,47,4
4,36,31,4
4,42,35,0
4,42,47,4
4,36,43,4
4,42,44,0
4,36,89,4
4,42,60,0
4,46,48,4
4,37,96,0
4,42,72,0
4,36,58,4
4,42,29,0
4,42,35,4
4,36,31,4
4,42,25,0
4,42,34,4
4,36,38,4
4,42,36,0
4,36,79,4
4,42,58,0
4,46,41,4
4,37,99,0
4,42,70,0
4,36,56,4
4,42,34,0
4,42,47,4
4,36,31,4
4,42,35,0
4,42,47,4
4,36,43,4
4,42,44,0
4,36,89,4
4,42,60,0
4,46,48,4
4,37,96,0
4,42,72,0
4,36,58,4
4,42,29,0
4,42,35,4
4,36,31,4
4,42,25,0
4,42,34,4
4,36,38,4
4,42,36,0
4,36,79,4
4,42,58,0
4,46,41,4
4,37,99,0
4,42,70,0
4,36,56,4
4,42,34,0
4,42,47,4
4,36,31,4
4,42,35,0
4,42,47,4
4,36,43,4
4,42,44,0
4,36,89,4
4,42,60,0
4,46,48,4
4,37,96,0
4,42,72,0
4,36,58,4
4,42,29,0
4,42,35,4
4,36,31,4
4,42,25,0
4,42,34,4
4,36,38,4
4,42,36,0
4,36,79,4
4,42,58,0
4,46,41,4
4,37,99,0
4,42,70,0
4,36,56,4
4,42,34,0
4,42,47,4
4,36,31,4
4,42,35,0
4,42,47,4
4,36,43,4
4,42,44,0
4,36,89,4
4,42,60,0
4,46,48,4
4,37,96,0
4,42,72,0
4,36,58,4
4,42,29,0
4,42,35,4
4,36,31,4
4,42,25,0
4,42,34,4
4,36,38,4
4,42,36,0
4,36,79,4
4,42,58,0
4,46,41,4
4,37,99,0
4,42,70,0
4,36,56,4
4,42,34,0
4,42,47,4
4,36,31,4
4,42,35,0
4,47,86,0
4,42,47,4
4,43,127,0
4,36,43,0
4,42,44,0
4,36,89,4
4,42,60,0
4,49,37,0
4,57,49,0
4,70,93,0
4,46,48,0
4,70,33,0
4,37,96,0
4,42,72,0
4,70,96,0
4,36,58,0
4,42,29,0
4,70,49,0
4,42,35,0
4,70,69,0
4,36,31,0
4,42,25,0
4,70,46,0
4,42,34,0
4,70,99,0
4,36,38,0
4,42,36,0
4,70,30,0
4,36,79,0
4,42,58,0
4,70,80,0
4,46,41,0
4,70,40,0
4,37,99,0
4,42,70,0
4,70,99,0
4,36,56,0
4,42,34,0
4,70,34,0
4,42,47,0
4,70,72,0
4,36,31,0
4,42,35,0
4,70,50,0
4,42,47,0
4,70,99,0
4,36,43,0
4,42,44,0
4,70,43,0
4,70,45,4
4,36,89,0
4,42,60,0
4,70,55,0
4,46,48,0
4,70,47,0
4,37,96,0
4,42,72,0
4,70,96,0
4,36,58,0
4,42,29,0
4,70,43,0
4,42,35,0
4,70,74,0
4,36,31,0
4,42,25,0
4,70,51,0
4,42,34,0
4,70,93,0
4,36,38,0
4,42,36,0
4,70,35,0
4,36,79,0
4,42,58,0
4,70,70,0
4,46,41,0
4,70,45,0
4,37,99,0
4,42,70,0
4,70,103,0
4,36,56,0
4,42,34,0
4,70,43,0
4,70,41,4
4,42,47,0
4,70,53,0
4,70,38,4
4,36,31,0
4,42,35,0
4,70,27,0
4,42,47,0
4,70,96,0
4,36,43,0
4,42,44,0
4,70,40,0
4,36,89,0
4,42,60,0
4,70,90,0
4,46,48,0
4,70,45,0
4,37,96,0
4,42,72,0
4,70,93,0
4,36,58,0
4,42,29,0
4,70,48,0
4,42,35,0
4,70,78,0
4,36,31,0
4,42,25,0
4,70,46,0
4,42,34,0
4,70,93,0
4,36,38,0
4,42,36,0
4,70,54,0
4,70,43,4
4,36,79,0
4,42,58,0
4,70,45,0
4,70,44,4
4,46,41,0
4,70,45,0
4,37,99,0
4,42,70,0
4,70,93,0
4,36,56,0
4,42,34,0
4,70,42,0
4,42,47,0
4,70,78,0
4,36,31,0
4,42,35,0
4,70,54,0
4,42,47,0
4,70,90,0
4,36,43,0
4,42,44,0
4,70,43,0
4,36,89,0
4,42,60,0
4,70,90,0
4,46,48,0
4,70,44,0
4,37,96,0
4,42,72,0
4,70,93,0
4,36,58,0
4,42,29,0
4,70,44,0
4,42,35,0
4,70,74,0
4,36,31,0
4,42,25,0
4,70,55,0
4,42,34,0
4,70,90,0
4,36,38,0
4,42,36,0
4,70,47,0
4,36,79,0
4,42,58,0
4,70,84,0
4,46,41,0
4,70,45,0
4,37,99,0
4,42,70,0
4,70,93,0
4,36,56,0
4,42,34,0
4,70,44,0
4,70,46,4
4,42,47,0
4,70,44,0
4,70,52,4
4,36,31,0
4,42,35,0
4,70,45,0
4,70,54,4
4,42,47,0
4,70,96,0
4,36,43,0
4,42,44,0
4,70,43,0
4,36,89,0
4,42,60,0
4,70,93,0
4,46,48,0
4,70,33,0
4,37,96,0
4,42,72,0
4,70,96,0
4,36,58,0
4,42,29,0
4,70,49,0
4,42,35,0
4,70,69,0
4,36,31,0
4,42,25,0
4,70,46,0
4,42,34,0
4,70,99,0
4,55,34,92
4,36,38,0
4,42,36,0
4,70,30,0
4,49,51,80
4,36,79,0
4,42,58,0
4,70,80,0
4,46,41,0
4,70,40,0
4,37,99,0
4,42,70,0
4,70,99,0
4,36,56,0
4,42,34,0
4,70,34,0
4,42,47,0
4,70,72,0
4,36,31,0
4,42,35,0
4,70,50,0
4,42,47,0
4,70,99,0
4,36,43,0
4,42,44,0
4,70,43,0
4,70,45,4
4,36,89,0
4,42,60,0
4,70,55,0
4,46,48,0
4,70,47,0
4,37,96,0
4,42,72,0
4,70,96,0
4,36,58,0
4,42,29,0
4,70,43,0
4,42,35,0
4,70,74,0
4,36,31,0
4,42,25,0
4,70,51,0
4,42,34,0
4,70,93,0
4,36,38,0
4,42,36,0
4,70,35,0
4,36,79,0
4,42,58,0
4,70,70,0
4,46,41,0
4,70,45,0
4,37,99,0
4,42,70,0
4,70,103,0
4,36,56,0
4,42,34,0
4,70,43,0
4,70,41,4
4,42,47,0
4,70,53,0
4,70,38,4
4,36,31,0
4,42,35,0
4,70,27,0
4,42,47,0
4,70,96,0
4,36,43,0
4,42,44,0
4,70,40,0
4,36,89,0
4,42,60,0
4,70,90,0
4,46,48,0
4,70,45,0
4,37,96,0
4,42,72,0
4,70,93,0
4,36,58,0
4,42,29,0
4,70,48,0
4,42,35,0
4,70,78,0
4,36,31,0
4,42,25,0
4,70,46,0
4,42,34,0
4,70,93,0
4,36,38,0
4,42,36,0
4,70,54,0
4,70,43,4
4,36,79,0
4,42,58,0
4,70,45,0
4,70,44,4
4,46,41,0
4,70,45,0
4,37,99,0
4,42,70,0
4,70,93,0
4,36,56,0
4,42,34,0
4,70,42,0
4,42,47,0
4,70,78,0
4,36,31,0
4,42,35,0
4,70,54,0
4,42,47,0
4,70,90,0
4,36,43,0
4,42,44,0
4,70,43,0
4,36,89,0
4,42,60,0
4,70,90,0
4,46,48,0
4,70,44,0
4,37,96,0
4,42,72,0
4,70,93,0
4,36,58,0
4,42,29,0
4,70,44,0
4,42,35,0
4,70,74,0
4,36,31,0
4,42,25,0
4,70,55,0
4,42,34,0
4,70,90,0
4,36,38,0
4,42,36,0
4,70,47,0
4,36,79,0
4,42,58,0
4,70,84,0
4,46,41,0
4,70,45,0
4,37,99,0
4,42,70,0
4,70,93,0
4,36,56,0
4,42,34,0
4,70,44,0
4,70,46,4
4,42,47,0
4,70,44,0
4,70,52,4
4,36,31,0
4,42,35,0
4,70,45,0
4,70,54,4
4,41,73,0
4,42,47,0
4,70,96,0
4,36,43,0
4,42,44,0
4,70,43,0
4,36,70,96
4,49,40,0
4,36,89,13684
4,42,60,0
4,49,37,0
4,57,49,0
4,70,93,0
4,46,48,0
4,70,33,0
4,37,96,0
4,42,72,0
4,70,96,0
4,36,58,0
4,42,29,0
4,70,49,0
4,42,35,0
4,70,69,0
4,36,31,0
4,42,25,0
4,70,46,0
4,42,34,0
4,70,99,0
4,36,38,0
4,42,36,0
4,70,30,0
4,36,79,0
4,42,58,0
4,70,80,0
4,46,41,0
4,70,40,0
4,37,99,0
4,42,70,0
4,70,99,0
4,36,56,0
4,42,34,0
4,70,34,0
4,42,47,0
4,70,72,0
4,36,31,0
4,42,35,0
4,70,50,0
4,42,47,0
4,70,99,0
4,36,43,0
4,42,44,0
4,70,43,0
4,70,45,4
4,36,89,0
4,42,60,0
4,70,55,0
4,46,48,0
4,70,47,0
4,37,96,0
4,42,72,0
4,70,96,0
4,36,58,0
4,42,29,0
4,70,43,0
4,42,35,0
4,70,74,0
4,36,31,0
4,42,25,0
4,70,51,0
4,42,34,0
4,70,93,0
4,36,38,0
4,42,36,0
4,70,35,0
4,36,79,0
4,42,58,0
4,70,70,0
4,46,41,0
4,70,45,0
4,37,99,0
4,42,70,0
4,70,103,0
4,36,56,0
4,42,34,0
4,70,43,0
4,70,41,4
4,42,47,0
4,70,53,0
4,70,38,4
4,36,31,0
4,42,35,0
4,70,27,0
4,42,47,0
4,70,96,0
4,36,43,0
4,42,44,0
4,70,40,0
4,36,89,0
4,42,60,0
4,70,90,0
4,46,48,0
4,70,45,0
4,37,96,0
4,42,72,0
4,70,93,0
4,36,58,0
4,42,29,0
4,70,48,0
4,42,35,0
4,70,78,0
4,36,31,0
4,42,25,0
4,70,46,0
4,42,34,0
4,70,93,0
4,36,38,0
4,42,36,0
4,70,54,0
4,70,43,4
4,36,79,0
4,42,58,0
4,70,45,0
4,70,44,4
4,46,41,0
4,70,45,0
4,37,99,0
4,42,70,0
4,70,93,0
4,36,56,0
4,42,34,0
4,70,42,0
4,42,47,0
4,70,78,0
4,36,31,0
4,42,35,0
4,70,54,0
4,42,47,0
4,70,90,0
4,36,43,0
4,42,44,0
4,70,43,0
4,36,89,0
4,42,60,0
4,70,90,0
4,46,48,0
4,70,44,0
4,37,96,0
4,42,72,0
4,70,93,0
4,36,58,0
4,42,29,0
4,70,44,0
4,42,35,0
4,70,74,0
4,36,31,0
4,42,25,0
4,70,55,0
4,42,34,0
4,70,90,0
4,36,38,0
4,42,36,0
4,70,47,0
4,36,79,0
4,42,58,0
4,70,84,0
4,46,41,4
4,70,45,0
4,37,99,0
4,42,70,0
4,70,93,0
4,36,56,4
4,42,34,0
4,70,44,0
4,42,47,4
4,70,46,0
4,70,44,0
4,36,31,4
4,42,35,0
4,47,94,0
4,70,52,0
4,70,45,0
4,42,47,4
4,45,75,0
4,70,54,0
4,70,96,0
4,36,43,4
4,42,44,0
4,43,79,0
4,45,69,0
4,70,43,0
4,36,89,4
4,41,58,0
4,42,60,0
4,49,37,0
4,57,49,0
4,70,93,0
4,49,78,20
4,46,48,0
4,70,33,0
4,37,96,0
4,42,72,0
4,70,96,0
4,36,58,0
4,42,29,0
4,70,49,0
4,42,35,0
4,70,69,0
4,36,31,0
4,42,25,0
4,70,46,0
4,42,34,0
4,70,99,0
4,36,38,0
4,42,36,0
4,70,30,0
4,36,79,0
4,42,58,0
4,70,80,0
4,46,41,0
4,70,40,0
4,37,99,0
4,42,70,0
4,70,99,0
4,36,56,0
4,42,34,0
4,70,34,0
4,42,47,0
4,70,72,0
4,36,31,0
4,42,35,0
4,70,50,0
4,42,47,0
4,70,99,0
4,36,43,0
4,42,44,0
4,70,43,0
4,70,45,4
4,36,89,0
4,42,60,0
4,70,55,0
4,46,48,0
4,70,47,0
4,37,96,0
4,42,72,0
4,70,96,0
4,36,58,0
4,42,29,0
4,70,43,0
4,42,35,0
4,70,74,0
4,36,31,0
4,42,25,0
4,70,51,0
4,42,34,0
4,70,93,0
4,36,38,0
4,42,36,0
4,70,35,0
4,36,79,0
4,42,58,0
4,70,70,0
4,46,41,0
4,70,45,0
4,37,99,0
4,42,70,0
4,70,103,0
4,36,56,0
4,42,34,0
4,70,43,0
4,70,41,4
4,42,47,0
4,70,53,0
4,70,38,4
4,36,31,0
4,42,35,0
4,70,27,0
4,42,47,0
4,70,96,0
4,36,43,0
4,42,44,0
4,70,40,0
4,36,89,0
4,42,60,0
4,70,90,0
4,46,48,0
4,70,45,0
4,37,96,0
4,42,72,0
4,70,93,0
4,36,58,0
4,42,29,0
4,70,48,0
4,42,35,0
4,70,78,0
4,36,31,0
4,42,25,0
4,70,46,0
4,42,34,0
4,70,93,0
4,36,38,0
4,42,36,0
4,70,54,0
4,70,43,4
4,36,79,0
4,42,58,0
4,70,45,0
4,70,44,4
4,46,41,0
4,70,45,0
4,37,99,0
4,42,70,0
4,70,93,0
4,36,56,0
4,42,34,0
4,70,42,0
4,42,47,0
4,70,78,0
4,36,31,0
4,42,35,0
4,70,54,0
4,42,47,0
4,70,90,0
4,36,43,0
4,42,44,0
4,70,43,0
4,36,89,0
