track,note,velocity,time
1,49,64,9096
1,54,60,22
1,54,30,188
1,54,47,166
1,39,80,22
1,54,29,164
1,54,45,214
1,46,82,164
1,54,26,22
1,39,82,190
1,54,40,0
1,54,25,188
1,54,43,188
1,39,91,358
1,54,46,22
1,54,44,380
1,46,82,164
1,54,20,22
1,39,84,166
1,54,46,0
1,54,20,212
1,54,54,188
1,39,84,356
1,54,45,20
1,54,50,358
1,46,82,190
1,54,52,190
1,39,84,0
1,54,20,212
1,54,49,166
1,54,30,190
1,39,91,188
1,54,49,0
1,54,50,380
1,46,82,190
1,54,22,22
1,54,52,166
1,39,88,22
1,57,74,164
1,54,21,22
1,54,52,164
1,49,64,0
1,54,30,214
1,54,50,188
1,39,80,0
1,54,22,188
1,54,47,166
1,46,82,190
1,54,27,22
1,54,52,164
1,39,82,20
1,54,31,190
1,54,45,166
1,54,22,238
1,39,91,140
1,54,58,22
1,54,27,188
1,54,56,188
1,46,82,164
1,54,28,22
1,54,54,164
1,39,84,0
1,54,35,190
1,54,54,188
1,54,25,214
1,39,84,164
1,54,49,20
1,54,33,166
1,54,52,212
1,46,82,164
1,54,34,22
1,39,84,164
1,54,60,20
1,54,33,166
1,54,47,188
1,54,36,212
1,39,91,166
1,54,56,0
1,54,33,188
1,54,47,190
1,46,82,190
1,54,31,0
1,54,58,190
1,39,88,22
1,57,74,164
1,54,36,22
1,57,76,166
1,49,69,0
1,54,49,0
1,54,25,236
1,39,93,140
1,54,54,20
1,54,27,188
1,54,49,190
1,46,82,164
1,54,37,0
1,54,52,190
1,39,84,0
1,54,38,190
1,54,48,190
1,54,22,238
1,39,84,142
1,54,56,22
1,54,32,166
1,54,54,190
1,46,82,190
1,54,23,22
1,54,58,166
1,39,86,0
1,54,33,188
1,54,60,190
1,54,54,380
1,39,88,20
1,54,23,190
1,54,50,164
1,46,82,188
1,54,23,22
1,54,52,166
1,39,88,20
1,54,24,188
1,54,52,164
1,54,29,188
1,54,58,188
1,39,91,20
1,54,31,166
1,54,47,188
1,46,82,188
1,54,25,22
1,54,52,164
1,39,88,0
1,54,28,190
1,54,58,188
1,54,56,380
1,39,93,0
1,54,30,188
1,54,48,190
1,46,82,190
1,54,28,0
1,54,49,188
1,39,84,0
1,54,27,190
1,54,49,190
1,54,50,382
1,39,84,0
1,54,29,190
1,54,48,190
1,46,82,188
1,54,22,22
1,54,50,164
1,39,86,0
1,54,30,188
1,54,52,188
1,54,56,380
1,39,88,20
1,54,33,166
1,54,46,188
1,46,82,188
1,54,27,22
1,54,50,164
1,39,88,20
1,54,30,164
1,54,52,190
1,54,26,214
1,54,52,166
1,39,91,22
1,54,33,166
1,54,48,188
1,46,82,190
1,54,23,22
1,54,58,164
1,39,88,0
1,54,32,190
1,57,76,190
1,49,69,0
1,54,52,0
1,54,32,212
1,39,93,164
1,54,54,20
1,54,30,190
1,54,49,188
1,46,82,166
1,54,35,22
1,39,84,164
1,54,52,22
1,54,33,190
1,54,52,164
1,54,29,214
1,54,54,166
1,39,84,0
1,54,27,190
1,54,48,190
1,46,82,190
1,54,23,22
1,54,50,164
1,39,86,0
1,54,33,190
1,54,47,188
1,54,56,404
1,39,88,0
1,54,29,166
1,54,48,188
1,46,82,190
1,54,30,22
1,54,48,164
1,39,88,22
1,54,31,188
1,54,49,166
1,54,18,238
1,39,91,166
1,54,54,0
1,54,32,164
1,54,47,190
1,46,82,190
1,54,28,22
1,54,56,164
1,39,88,0
1,54,32,190
1,57,76,188
1,49,69,0
1,54,56,0
1,54,18,212
1,54,54,164
1,39,93,0
1,54,32,188
1,54,54,188
1,46,82,190
1,54,18,22
1,54,56,164
1,39,84,0
1,54,29,190
1,54,45,188
1,54,28,212
1,39,84,166
1,54,54,22
1,54,27,190
1,54,46,166
1,46,82,188
1,54,32,0
1,54,50,188
1,39,86,0
1,54,35,190
1,54,50,188
1,54,52,380
1,39,88,22
1,54,29,166
1,54,54,190
1,54,27,190
1,46,82,0
1,54,54,190
1,39,88,20
1,54,39,164
1,54,48,188
1,46,105,188
1,54,56,190
1,46,100,190
1,54,58,190
1,46,105,190
1,54,42,190
1,49,64,382
1,54,56,0
1,54,32,190
1,54,56,212
1,39,80,0
1,54,50,356
1,46,82,190
1,54,30,22
1,54,56,166
1,39,82,20
1,54,31,190
1,54,48,166
1,39,91,382
1,54,54,22
1,54,30,190
1,54,48,190
1,46,82,166
1,54,34,22
1,39,84,166
1,54,54,0
1,54,35,214
1,54,56,164
1,54,27,212
1,39,84,166
1,54,52,20
1,54,49,380
1,46,82,164
1,54,24,22
1,39,84,164
1,54,56,20
1,54,33,188
1,54,56,188
1,39,91,356
1,54,50,0
1,54,37,190
1,54,56,190
1,46,82,190
1,54,37,0
1,54,56,188
1,39,88,22
1,54,42,164
1,57,74,0
1,54,58,190
1,49,64,0
1,54,60,404
1,39,80,0
1,54,49,356
1,46,82,188
1,54,32,0
1,54,54,188
1,39,82,22
1,54,36,166
1,54,60,214
1,54,24,190
1,39,91,164
1,54,49,22
1,54,50,358
1,54,29,190
1,46,82,0
1,54,52,190
1,39,84,0
1,54,27,214
1,54,52,188
1,54,31,188
1,39,84,164
1,54,50,20
1,54,28,190
1,54,49,166
1,46,82,190
1,54,26,22
1,54,52,166
1,39,84,0
1,54,30,188
1,54,52,188
1,54,31,188
1,54,49,190
1,39,91,0
1,54,29,190
1,54,48,190
1,57,59,0
1,46,82,188
1,54,28,0
1,57,51,190
1,54,50,0
1,39,88,22
1,54,31,188
1,49,64,164
1,54,52,22
1,54,33,190
1,39,80,188
1,54,56,0
1,54,32,188
1,54,58,188
1,46,82,166
1,54,27,22
1,54,45,164
1,39,82,20
1,54,31,190
1,54,46,166
1,54,27,214
1,39,91,166
1,54,54,22
1,54,47,356
1,46,82,190
1,54,52,190
1,39,84,0
1,54,27,214
1,54,54,166
1,39,84,380
1,54,49,20
1,54,48,356
1,46,82,190
1,54,30,0
1,54,52,190
1,39,84,0
1,54,26,188
1,54,49,188
1,39,91,382
1,54,58,0
1,54,26,190
1,54,48,190
1,46,82,188
1,54,37,0
1,54,49,188
1,39,88,22
1,57,74,164
1,54,32,22
1,49,64,164
1,54,50,0
1,54,23,236
1,54,52,164
1,39,80,0
1,54,32,188
1,54,50,164
1,46,82,190
1,39,82,214
1,54,52,0
1,54,24,188
1,54,47,164
1,39,91,380
1,54,56,22
1,54,23,188
1,54,50,164
1,54,30,190
1,46,82,0
1,54,50,190
1,39,84,0
1,54,40,190
1,54,52,212
1,39,84,356
1,54,49,20
1,54,23,188
1,54,49,188
1,46,82,166
1,54,28,22
1,39,84,166
1,54,49,20
1,54,32,188
1,54,52,164
1,39,73,0
1,54,36,214
1,39,66,164
1,54,52,22
1,54,62,358
1,39,68,0
1,46,82,190
1,54,64,574
1,57,76,0
1,49,69,0
1,54,56,380
1,39,93,0
1,54,49,380
1,46,82,190
1,54,62,190
1,39,84,0
1,54,37,190
1,54,45,190
1,39,84,380
1,54,56,22
1,54,33,164
1,54,48,190
1,46,82,190
1,54,58,190
1,39,86,0
1,54,48,382
1,54,60,404
1,39,88,0
1,54,54,358
1,46,82,188
1,54,54,190
1,39,88,20
1,54,46,356
1,54,29,212
1,39,91,188
1,54,58,0
1,54,35,190
1,54,49,188
1,46,82,164
1,54,56,190
1,39,88,0
1,54,36,190
1,54,52,190
1,57,76,0
1,49,69,0
1,54,27,214
1,39,93,166
1,54,50,20
1,54,56,358
1,46,82,188
1,54,27,0
1,54,50,188
1,39,84,0
1,54,31,190
1,54,52,188
1,54,23,214
1,39,84,164
1,54,50,22
1,54,54,358
1,46,82,188
1,54,22,22
1,39,86,166
1,54,58,22
1,54,58,358
1,54,31,190
1,54,48,188
1,39,88,22
1,54,25,190
1,54,56,164
1,46,82,190
1,54,56,190
1,39,88,20
1,54,56,356
1,46,105,188
1,54,58,190
1,46,100,190
1,54,58,190
1,46,105,190
1,54,58,190
1,54,56,382
1,49,64,0
1,54,56,382
1,39,80,20
1,54,38,164
1,54,54,190
1,46,82,190
1,54,32,22
1,54,56,190
1,39,82,0
1,54,58,382
1,54,28,166
1,39,91,190
1,54,56,22
1,54,54,382
1,46,82,166
1,54,27,22
1,39,84,166
1,54,50,0
1,54,52,380
1,54,21,212
1,39,84,164
1,54,48,20
1,54,54,380
1,46,82,166
1,54,58,190
1,39,84,0
1,54,60,404
1,39,91,356
1,54,54,0
1,54,31,190
1,54,52,190
1,46,82,190
1,54,56,190
1,39,88,20
1,57,74,164
1,49,64,190
1,54,56,22
1,54,54,380
1,39,80,0
1,54,49,356
1,46,82,190
1,54,58,190
1,39,82,22
1,54,56,358
1,39,91,382
1,54,60,22
1,54,49,358
1,46,82,188
1,54,35,22
1,39,84,164
1,54,54,0
1,54,28,214
1,54,54,188
1,54,24,188
1,39,84,164
1,54,54,20
1,54,58,356
1,46,82,190
1,54,50,190
1,39,84,0
1,54,54,380
1,54,27,214
1,39,91,166
1,54,56,22
1,57,59,358
1,54,54,0
1,46,82,188
1,57,51,190
1,54,54,0
1,39,88,22
1,49,64,356
1,54,58,0
1,54,58,380
1,39,80,20
1,54,48,356
1,46,82,190
1,54,56,190
1,39,82,22
1,54,60,358
1,54,30,214
1,39,91,166
1,54,49,22
1,54,58,380
1,46,82,166
1,54,54,190
1,39,84,0
1,54,52,404
1,39,84,356
1,54,50,20
1,54,50,356
1,46,82,190
1,54,31,22
1,39,84,164
1,54,58,20
1,54,56,356
1,39,91,382
1,54,60,22
1,54,60,358
1,46,82,190
1,54,54,190
1,39,88,22
1,57,74,164
1,54,58,190
1,49,64,0
1,54,54,406
1,39,80,0
1,54,56,356
1,46,82,190
1,54,26,22
1,54,60,190
1,39,82,0
1,54,54,358
1,39,91,382
1,54,60,22
1,54,49,356
1,46,82,190
1,54,58,190
1,39,84,0
1,54,54,382
1,39,84,380
1,54,60,20
1,54,52,356
1,46,82,188
1,54,56,190
1,39,84,0
1,54,27,212
1,54,54,164
1,39,73,0
1,39,66,382
1,54,60,0
1,54,62,380
1,39,68,0
1,46,82,190
1,46,54,11326
1,57,41,0
1,46,54,382
1,57,41,0
1,46,56,382
1,57,42,0
1,46,62,382
1,49,64,382
1,57,59,0
1,54,68,0
1,54,30,214
1,54,56,188
1,39,80,0
1,54,32,188
1,54,54,166
1,46,82,188
1,54,27,22
1,54,60,164
1,39,82,20
1,54,54,358
1,54,26,190
1,39,91,188
1,54,62,0
1,54,58,380
1,46,82,190
1,54,60,190
1,39,84,0
1,54,60,382
1,39,84,380
1,54,58,20
1,54,56,356
1,46,82,190
1,54,60,190
1,39,84,0
1,54,62,380
1,54,60,382
1,39,91,0
1,54,56,382
1,46,82,190
1,54,54,190
1,39,88,22
1,57,74,164
1,54,58,190
1,49,64,0
1,54,54,382
1,39,80,22
1,54,60,356
1,46,82,190
1,54,58,190
1,39,82,22
1,54,58,358
1,39,91,382
1,54,54,0
1,54,58,380
1,46,82,188
1,39,84,190
1,54,52,0
1,54,21,214
1,54,60,164
1,39,84,380
1,54,54,0
1,54,60,380
1,46,82,190
1,54,56,190
1,39,84,0
1,54,56,380
1,54,54,382
1,39,91,0
1,54,56,382
1,57,59,0
1,46,82,188
1,54,54,190
1,57,51,0
1,39,88,22
1,54,54,356
1,49,64,0
1,54,52,380
1,39,80,22
1,54,30,188
1,54,54,190
1,46,82,166
1,54,22,22
1,39,82,188
1,54,56,0
1,54,50,358
1,54,23,214
1,39,91,164
1,54,56,22
1,54,48,382
1,46,82,164
1,54,23,22
1,39,84,164
1,54,52,22
1,54,50,358
1,54,32,212
1,39,84,164
1,54,52,20
1,54,49,356
1,46,82,190
1,54,56,190
1,39,84,0
1,54,46,380
1,39,73,0
1,39,66,382
1,54,54,0
1,54,54,382
1,39,68,0
1,46,82,190
1,57,69,190
1,54,56,0
1,49,64,380
1,54,64,22
1,39,80,382
1,54,54,0
1,54,52,380
1,46,82,166
1,54,28,22
1,54,60,190
1,39,82,0
1,54,49,358
1,54,18,214
1,39,91,164
1,54,60,22
1,54,50,358
1,54,32,190
1,46,82,0
1,54,58,190
1,39,84,0
1,54,35,190
1,54,47,212
1,54,28,188
1,39,84,166
1,54,52,20
1,54,49,382
1,46,82,166
1,54,50,190
1,39,84,0
1,54,27,212
1,54,50,166
1,54,27,214
1,39,91,164
1,54,58,22
1,54,23,188
1,54,56,164
1,46,82,190
1,54,56,214
1,39,88,0
1,57,74,166
1,54,21,22
1,54,54,164
1,49,64,0
1,54,58,406
1,39,80,0
1,54,52,356
1,46,82,190
1,54,21,22
1,54,54,164
1,39,82,20
1,54,25,190
1,54,54,164
1,39,91,382
1,54,58,0
1,54,50,380
1,46,82,188
1,54,29,22
1,39,84,164
1,54,62,22
1,54,24,188
1,54,58,166
1,39,84,380
1,54,56,20
1,54,29,190
1,54,56,164
1,46,82,188
1,39,84,190
1,54,60,20
1,54,49,382
1,54,28,214
1,39,91,140
1,54,58,22
1,54,54,356
1,57,59,0
1,46,82,190
1,54,54,190
1,57,51,0
1,39,88,22
1,54,60,356
1,49,64,0
1,54,60,404
1,39,80,0
1,54,45,358
1,46,82,190
1,54,17,46
1,39,82,166
1,54,54,0
1,54,49,356
1,54,32,214
1,39,91,166
1,54,56,0
1,54,49,380
1,46,82,188
1,39,84,190
1,54,54,0
1,54,33,214
1,54,58,164
1,39,84,380
1,54,56,0
1,54,54,380
1,46,82,190
1,54,50,190
1,39,84,0
1,54,50,380
1,54,26,214
1,39,91,164
1,54,49,0
1,57,59,380
1,54,48,22
1,46,82,164
1,57,51,190
1,54,52,22
1,39,88,0
1,54,30,164
1,57,62,188
1,49,58,0
1,54,68,22
2,28,90,9216
2,16,80,0
2,23,92,192
2,11,82,0
2,24,85,0
2,12,75,0
2,23,101,0
2,11,91,0
2,27,100,64
2,15,90,0
2,24,100,192
2,12,90,0
2,23,82,0
2,11,72,0
2,22,93,0
2,10,83,0
2,23,96,0
2,11,86,0
2,28,85,0
2,16,75,0
2,23,80,192
2,11,70,0
2,24,72,0
2,12,62,0
2,23,101,0
2,11,91,0
2,27,86,64
2,15,76,0
2,23,101,192
2,11,91,0
2,31,83,0
2,19,73,0
2,30,76,0
2,18,66,0
2,28,90,0
2,16,80,0
2,23,92,192
2,11,82,0
2,24,85,0
2,12,75,0
2,23,101,0
2,11,91,0
2,27,100,64
2,15,90,0
2,24,100,192
2,12,90,0
2,23,82,0
2,11,72,0
2,22,93,0
2,10,83,0
2,23,96,0
2,11,86,0
2,28,85,0
2,16,75,0
2,23,80,192
2,11,70,0
2,24,72,0
2,12,62,0
2,23,101,0
2,11,91,0
2,27,86,64
2,15,76,0
2,23,101,192
2,11,91,0
2,31,83,0
2,19,73,0
2,30,76,0
2,18,66,0
2,28,85,0
2,16,75,0
2,23,92,192
2,11,82,0
2,23,101,192
2,11,91,0
2,31,80,64
2,19,70,0
2,31,80,192
2,19,70,0
2,26,92,192
2,14,82,0
2,31,86,64
2,19,76,0
2,23,85,192
2,11,75,0
2,24,72,0
2,12,62,0
2,24,80,64
2,12,70,0
2,28,76,64
2,16,66,0
2,26,73,192
2,14,63,0
2,26,76,192
2,14,66,0
2,28,85,64
2,16,75,0
2,23,92,192
2,11,82,0
2,23,101,192
2,11,91,0
2,31,80,64
2,19,70,0
2,31,80,192
2,19,70,0
2,26,92,192
2,14,82,0
2,31,86,64
2,19,76,0
2,23,85,192
2,11,75,0
2,24,72,0
2,12,62,0
2,24,80,64
2,12,70,0
2,28,76,64
2,16,66,0
2,26,73,192
2,14,63,0
2,26,76,192
2,14,66,0
2,24,105,64
2,12,95,0
2,24,105,136
2,12,95,0
2,24,100,148
2,12,90,0
2,24,105,434
2,12,95,0
2,28,92,20
2,16,82,0
2,28,76,30
2,16,66,0
2,28,68,16
2,16,58,0
2,23,80,26
2,11,70,0
2,26,101,24
2,14,91,0
2,26,85,270
2,14,75,0
2,26,71,52
2,14,61,0
2,24,95,120
2,12,85,0
2,24,100,164
