track,note,velocity,time
0,56,97,590
0,63,96,0
0,63,115,4
0,68,96,0
0,56,1,4
0,56,0,1
0,56,0,61
0,63,0,3
0,68,0,5
0,63,0,4
0,56,97,14
0,63,92,0
0,63,99,4
0,68,98,0
0,63,0,68
0,68,0,7
0,56,0,1
0,63,0,13
0,56,94,3
0,63,96,0
0,63,105,4
0,68,98,0
0,63,0,118
0,63,0,7
0,68,0,9
0,56,0,1
0,59,100,5
0,63,98,0
0,63,99,0
0,68,100,4
0,68,0,125
0,59,0,9
0,63,0,1
0,63,0,2
0,58,98,3
0,64,96,0
0,67,103,4
0,61,99,8
0,64,0,242
0,58,0,11
0,61,0,10
0,67,0,6
0,58,96,7
0,64,96,0
0,67,95,4
0,61,105,4
0,64,0,65
0,67,0,3
0,58,0,3
0,61,0,3
0,58,96,14
0,61,105,0
0,64,100,0
0,67,95,4
0,64,0,78
0,61,0,1
0,67,0,3
0,58,0,4
0,58,97,6
0,64,95,0
0,67,100,4
0,61,105,4
0,64,0,117
0,58,0,5
0,67,0,3
0,61,0,4
0,61,98,7
0,64,98,0
0,70,88,4
0,64,105,4
0,64,0,124
0,61,0,6
0,70,0,4
0,59,98,2
0,63,96,0
0,68,96,4
0,64,0,2
0,63,95,14
0,59,0,238
0,63,0,4
0,63,0,2
0,68,0,10
0,59,100,14
0,63,95,0
0,63,99,0
0,68,95,4
0,63,0,68
0,63,0,2
0,68,0,8
0,59,0,1
0,63,92,9
0,59,96,4
0,63,95,0
0,68,88,4
0,63,0,67
0,68,0,11
0,63,0,1
0,59,0,8
0,59,100,5
0,63,98,0
0,63,99,0
0,68,95,4
0,68,0,114
0,63,0,8
0,63,0,12
0,59,0,4
0,63,100,2
0,63,98,0
0,71,98,4
0,68,92,4
0,63,0,111
0,63,0,9
0,71,0,0
0,61,100,16
0,64,100,0
0,68,0,2
0,70,92,2
0,40,118,4
0,49,118,0
0,55,118,0
0,58,112,0
0,61,115,0
0,64,115,0
0,67,99,0
0,55,124,11
0,60,105,27
0,67,124,22
0,72,124,20
0,32,110,41
0,61,0,1
0,64,0,0
0,67,0,5
0,70,0,10
0,72,0,74
0,60,0,22
0,67,0,2
0,55,0,1
0,61,0,15
0,40,0,2
0,49,0,0
0,55,0,0
0,58,0,0
0,64,0,3
0,59,89,45
0,63,86,0
0,68,83,0
0,32,0,9
0,32,113,3
0,36,110,0
0,42,110,0
0,49,110,0
0,54,77,0
0,56,106,0
0,56,110,0
0,68,106,0
0,68,105,0
0,36,0,4
0,42,0,0
0,49,0,0
0,54,0,0
0,54,15,44
0,54,0,4
0,68,0,39
0,42,68,5
0,51,104,0
0,51,107,0
0,54,51,0
0,56,0,0
0,63,101,0
0,63,102,0
0,68,0,1
0,56,0,2
0,42,0,1
0,54,0,0
0,63,0,18
0,63,0,0
0,51,0,8
0,51,0,1
0,32,0,14
0,54,50,3
0,54,0,4
0,39,110,44
0,42,110,0
0,54,77,0
0,28,110,4
0,38,110,0
0,39,0,0
0,42,0,0
0,54,0,0
0,28,0,4
0,38,0,0
0,54,15,40
0,54,0,4
0,32,112,44
0,42,45,0
0,51,109,0
0,51,111,0
0,54,51,0
0,63,104,0
0,63,105,0
0,42,0,4
0,54,0,0
0,54,50,44
0,54,0,4
0,32,0,33
0,63,0,9
0,63,0,1
0,28,113,1
0,36,110,0
0,42,110,0
0,52,110,0
0,52,111,0
0,54,77,0
0,64,102,0
0,64,111,0
0,51,0,1
0,51,0,0
0,36,0,3
0,42,0,0
0,54,0,0
0,54,15,44
0,54,0,4
0,28,0,24
0,52,0,0
0,64,0,4
0,64,0,0
0,52,0,1
0,28,110,15
0,46,100,0
0,51,106,0
0,51,110,0
0,54,51,0
0,63,104,0
0,63,103,0
0,46,0,4
0,54,0,0
0,63,0,13
0,51,0,1
0,51,0,5
0,63,0,2
0,54,50,23
0,54,0,4
0,27,105,44
0,39,110,0
0,42,110,0
0,54,77,0
0,28,0,2
0,28,110,2
0,38,110,0
0,39,0,0
0,42,0,0
0,54,0,0
0,28,0,4
0,38,0,0
0,54,15,40
0,54,0,4
0,27,0,22
0,27,116,22
0,42,45,0
0,51,109,0
0,51,110,0
0,54,51,0
0,63,102,0
0,63,107,0
0,42,0,4
0,54,0,0
0,54,50,44
0,54,0,4
0,51,0,28
0,59,0,0
0,63,0,0
0,68,0,0
0,63,0,1
0,58,92,3
0,61,82,0
0,67,92,0
0,63,0,1
0,27,0,1
0,51,0,3
0,31,116,7
0,36,110,0
0,42,110,0
0,54,77,0
0,55,109,0
0,55,111,0
0,67,109,0
0,67,110,0
0,36,0,4
0,42,0,0
0,54,0,0
0,54,15,44
0,54,0,4
0,67,0,21
0,67,0,3
0,55,0,7
0,55,0,2
0,42,58,11
0,51,109,0
0,51,110,0
0,54,51,0
0,63,102,0
0,63,105,0
0,42,0,4
0,54,0,0
0,31,0,1
0,63,0,16
0,51,0,2
0,51,0,1
0,63,0,4
0,54,50,20
0,54,0,4
0,39,110,44
0,42,110,0
0,54,77,0
0,28,110,4
0,38,110,0
0,39,0,0
0,42,0,0
0,54,0,0
0,28,0,4
0,38,0,0
0,54,15,40
0,54,0,4
0,52,106,44
0,64,109,0
0,28,116,0
0,42,68,0
0,52,111,0
0,54,51,0
0,62,105,0
0,64,108,0
0,42,0,4
0,54,0,0
0,66,108,0
0,62,0,8
0,54,50,6
0,54,0,3
0,36,110,11
0,42,110,0
0,54,77,0
0,36,0,2
0,42,0,0
0,54,0,0
0,54,15,44
0,54,0,4
0,64,0,18
0,52,0,8
0,64,0,10
0,28,0,1
0,27,110,5
0,46,107,0
0,51,104,0
0,51,103,0
0,54,51,0
0,63,104,0
0,63,107,0
0,52,0,1
0,46,0,3
0,54,0,0
0,54,50,14
0,54,0,4
0,51,0,16
0,63,0,4
0,63,0,4
0,27,0,4
0,51,0,0
0,26,113,8
0,39,110,0
0,42,103,0
0,50,106,0
0,50,107,0
0,54,77,0
0,62,107,0
0,62,110,0
0,28,110,4
0,38,110,0
0,39,0,0
0,42,0,0
0,54,0,0
0,28,0,4
0,38,0,0
0,54,15,40
0,54,0,4
0,62,0,32
0,26,0,1
0,62,0,0
0,66,0,5
0,50,0,2
0,27,113,4
0,42,74,0
0,51,109,0
0,51,110,0
0,54,51,0
0,63,101,0
0,63,102,0
0,42,0,4
0,54,0,0
0,66,105,0
0,50,0,9
0,54,50,35
0,54,0,4
0,27,0,24
0,51,0,3
0,58,0,1
0,61,0,0
0,67,0,0
0,63,0,2
0,59,95,2
0,63,89,0
0,68,88,0
0,51,0,1
0,63,0,3
0,32,113,8
0,36,110,0
0,42,110,0
0,54,77,0
0,56,107,0
0,56,105,0
0,68,102,0
0,68,107,0
0,36,0,4
0,42,0,0
0,54,0,0
0,54,15,44
0,54,0,4
0,56,0,11
0,68,0,1
0,68,0,7
0,56,0,3
0,51,109,2
0,51,107,0
0,63,102,0
0,63,105,0
0,64,78,0
0,42,68,0
0,54,51,0
0,66,0,3
0,42,0,1
0,54,0,0
0,64,0,2
0,63,0,5
0,63,0,2
0,51,0,2
0,32,0,1
0,51,0,0
0,54,50,10
0,54,0,4
0,39,110,44
0,42,110,0
0,54,77,0
0,28,110,4
0,38,110,0
0,39,0,0
0,42,0,0
0,54,0,0
0,28,0,4
0,38,0,0
0,54,15,40
0,54,0,4
0,32,112,44
0,42,45,0
0,51,106,0
0,51,110,0
0,54,51,0
0,63,106,0
0,63,105,0
0,42,0,4
0,54,0,0
0,54,50,44
0,54,0,4
0,63,0,31
0,32,0,3
0,63,0,4
0,51,0,5
0,28,118,1
0,36,110,0
0,42,110,0
0,52,107,0
0,52,108,0
0,54,77,0
0,64,106,0
0,64,107,0
0,51,0,1
0,36,0,3
0,42,0,0
0,54,0,0
0,54,15,44
0,54,0,4
0,28,0,22
0,64,0,5
0,52,0,3
0,52,0,4
0,64,0,8
0,28,108,2
0,46,100,0
0,51,106,0
0,51,110,0
0,54,51,0
0,63,101,0
0,63,107,0
0,46,0,4
0,54,0,0
0,51,0,22
0,63,0,2
0,63,0,2
0,51,0,1
0,54,50,17
0,54,0,4
0,28,0,40
0,27,112,4
0,39,110,0
0,42,110,0
0,54,77,0
0,28,110,4
0,38,110,0
0,39,0,0
0,42,0,0
0,54,0,0
0,28,0,4
0,38,0,0
0,54,15,40
0,54,0,4
0,27,0,33
0,27,113,11
0,42,45,0
0,51,106,0
0,51,108,0
0,54,51,0
0,63,104,0
0,63,107,0
0,42,0,4
0,54,0,0
0,66,110,0
0,68,105,0
0,66,0,34
0,54,50,10
0,54,0,4
0,63,0,22
0,63,0,5
0,27,0,1
0,59,0,0
0,63,0,0
0,68,0,0
0,58,94,4
0,61,77,0
0,67,91,0
0,51,0,1
0,51,0,3
0,31,116,8
0,36,110,0
0,42,110,0
0,54,77,0
0,55,110,0
0,55,108,0
0,67,109,0
0,67,107,0
0,36,0,4
0,42,0,0
0,54,0,0
0,54,15,44
0,54,0,4
0,68,0,10
0,64,105,10
0,55,0,9
0,67,0,3
0,67,0,2
0,55,0,9
0,42,58,1
0,51,93,0
0,51,94,0
0,54,51,0
0,63,101,0
0,63,102,0
0,42,0,4
0,54,0,0
0,31,0,7
0,54,50,37
0,54,0,4
0,63,0,20
0,63,0,0
0,51,0,23
0,39,110,1
0,42,110,0
0,54,77,0
0,56,104,0
0,56,105,0
0,68,102,0
0,68,100,0
0,28,110,4
0,38,110,0
0,39,0,0
0,42,0,0
0,51,0,0
0,54,0,0
0,28,0,4
0,38,0,0
0,64,0,12
0,63,99,12
0,54,15,16
0,54,0,4
0,68,0,30
0,68,0,8
0,56,0,1
0,27,113,5
0,42,68,0
0,54,51,0
0,58,106,0
0,58,110,0
0,70,73,0
0,70,95,0
0,42,0,4
0,54,0,0
0,56,0,10
0,54,50,34
0,54,0,4
0,70,0,21
0,58,0,7
0,61,0,0
0,67,0,0
0,63,0,2
0,70,0,1
0,63,87,1
0,68,86,0
0,71,93,0
0,27,0,2
0,58,0,2
0,59,110,0
0,58,0,1
0,35,116,3
0,36,110,0
0,42,110,0
0,54,77,0
0,59,109,0
0,59,110,0
0,71,109,0
0,71,110,0
0,36,0,4
0,42,0,0
0,54,0,0
0,54,15,25
0,54,0,2
0,36,110,7
0,46,107,0
0,54,51,0
0,36,0,4
0,46,0,0
0,54,0,0
0,59,0,2
0,58,105,14
0,54,50,4
0,54,0,0
0,59,0,17
0,71,0,9
0,35,0,1
0,63,0,1
0,68,0,0
0,71,0,0
0,67,94,0
0,70,83,0
0,59,0,4
0,71,0,7
0,34,113,1
0,39,110,0
0,42,103,0
0,54,77,0
0,58,109,0
0,58,107,0
0,70,104,0
0,70,103,0
0,28,110,4
0,38,110,0
0,39,0,0
0,42,0,0
0,54,0,0
0,28,0,4
0,38,0,0
0,54,15,18
0,54,0,4
0,58,0,12
0,56,110,0
0,68,99,0
0,36,110,0
0,42,74,0
0,54,51,0
0,63,108,0
0,70,0,1
0,58,0,1
0,36,0,2
0,42,0,0
0,54,0,0
0,63,108,4
0,70,0,0
0,58,0,2
0,54,50,0
0,54,0,4
0,63,0,24
0,68,0,1
0,67,0,3
0,70,0,0
0,59,95,4
0,63,81,0
0,63,0,4
0,34,0,3
0,32,116,5
0,36,110,0
0,42,110,0
0,49,110,0
0,54,77,0
0,56,106,0
0,56,110,0
0,68,106,0
0,68,105,0
0,36,0,4
0,42,0,0
0,49,0,0
0,54,0,0
0,68,105,0
0,63,115,2
0,63,115,0
0,54,15,12
0,54,0,4
0,56,0,2
0,68,0,5
0,68,0,3
0,51,104,2
0,51,107,0
0,56,0,0
0,63,101,0
0,63,102,0
0,42,68,0
0,54,51,0
0,68,0,1
0,56,0,2
0,42,0,1
0,54,0,0
0,63,0,8
0,63,0,2
0,63,0,0
0,51,0,8
0,63,0,0
0,51,0,1
0,32,0,1
0,54,50,4
0,54,0,4
0,39,110,44
0,42,110,0
0,54,77,0
0,28,110,4
0,38,110,0
0,39,0,0
0,42,0,0
0,54,0,0
0,28,0,4
0,38,0,0
0,54,15,40
0,54,0,4
0,68,105,40
0,32,113,4
0,42,45,0
0,51,109,0
0,51,111,0
0,54,51,0
0,63,104,0
0,63,105,0
0,63,108,0
0,63,108,0
0,42,0,4
0,54,0,0
0,54,50,44
0,54,0,4
0,63,0,24
0,68,0,4
0,63,0,2
0,32,0,5
0,63,0,7
0,63,0,1
0,28,116,1
0,36,110,0
0,42,110,0
0,52,110,0
0,52,111,0
0,54,77,0
0,64,102,0
0,64,111,0
0,51,0,1
0,51,0,0
0,36,0,3
0,42,0,0
0,54,0,0
0,63,105,0
0,63,115,0
0,68,105,0
0,54,15,44
0,54,0,4
0,52,0,24
0,28,0,3
0,64,0,1
0,64,0,0
0,52,0,1
0,28,113,15
0,46,100,0
0,51,106,0
0,51,110,0
0,54,51,0
0,63,104,0
0,63,103,0
0,63,0,3
0,46,0,1
0,54,0,0
0,68,0,3
0,63,0,10
0,51,0,1
0,51,0,5
0,63,0,2
0,63,0,9
0,54,50,14
0,54,0,4
0,28,0,38
0,27,110,6
0,39,110,0
0,42,110,0
0,54,77,0
0,28,110,4
0,38,110,0
0,39,0,0
0,42,0,0
0,54,0,0
0,28,0,4
0,38,0,0
0,54,15,40
0,54,0,4
0,27,0,33
0,68,105,7
0,27,113,4
0,42,45,0
0,51,109,0
0,51,110,0
0,54,51,0
0,63,102,0
0,63,107,0
0,63,112,0
0,63,115,0
0,42,0,4
0,54,0,0
0,54,50,44
0,54,0,4
0,51,0,28
0,59,0,0
0,63,0,0
0,63,0,1
0,63,0,1
0,27,0,1
0,58,92,1
0,61,79,0
0,63,0,1
0,63,0,2
0,51,0,2
0,68,0,2
0,31,118,5
0,36,110,0
0,42,110,0
0,54,77,0
0,55,109,0
0,55,111,0
0,67,109,0
0,67,110,0
0,36,0,4
0,42,0,0
0,54,0,0
0,63,108,0
0,67,105,0
0,67,112,4
0,54,15,40
0,54,0,4
0,67,0,21
0,67,0,3
0,55,0,7
0,67,0,0
0,55,0,2
0,63,0,4
0,67,0,2
0,42,58,5
0,51,109,0
0,51,110,0
0,54,51,0
0,63,102,0
0,63,105,0
0,63,108,0
0,31,0,2
0,42,0,2
0,54,0,0
0,67,115,4
0,63,108,4
0,63,0,9
0,51,0,2
0,51,0,1
0,63,0,4
0,54,50,20
0,54,0,4
0,63,0,34
0,63,0,2
0,67,0,2
0,39,110,6
0,42,110,0
0,54,77,0
0,28,110,4
0,38,110,0
0,39,0,0
0,42,0,0
0,54,0,0
0,61,99,0
0,63,108,0
0,28,0,4
0,38,0,0
0,67,121,0
0,54,15,40
0,54,0,4
0,67,0,25
0,63,0,3
0,61,0,4
0,67,121,6
0,28,116,4
0,42,68,0
0,52,106,0
0,52,111,0
0,54,51,0
0,62,105,0
0,64,109,0
0,64,108,0
0,42,0,4
0,54,0,0
0,63,112,0
0,64,108,4
0,62,0,5
0,54,50,8
0,54,0,4
0,63,0,5
0,67,0,8
0,64,0,2
0,63,115,8
0,36,110,0
0,42,110,0
0,54,77,0
0,36,0,4
0,42,0,0
0,54,0,0
0,67,124,0
0,63,105,4
0,54,15,10
0,54,0,4
0,64,0,8
0,52,0,8
0,28,0,4
0,64,0,6
0,27,112,8
0,46,107,0
0,51,104,0
0,51,103,0
0,54,51,0
0,63,104,0
0,63,107,0
0,52,0,1
0,46,0,3
0,54,0,0
0,63,0,0
0,67,0,21
0,63,0,1
0,54,50,0
0,54,0,4
0,51,0,2
0,63,0,4
0,63,0,4
0,51,0,4
0,27,0,6
0,26,113,2
0,39,110,0
0,42,103,0
0,50,106,0
0,50,107,0
0,54,77,0
0,62,107,0
0,62,110,0
0,28,110,0
0,38,110,0
0,39,0,0
0,42,0,0
0,54,0,0
0,28,0,4
0,38,0,0
0,54,15,40
0,54,0,4
0,62,0,32
0,26,0,1
0,62,0,0
0,63,108,3
0,50,0,4
0,27,110,4
0,42,74,0
0,51,109,0
0,51,110,0
