track,note,velocity,time
3,90,100,19
3,78,100,0
3,77,100,2
3,89,100,1
3,78,0,2
3,90,0,0
3,78,100,10
3,89,0,2
3,90,100,0
3,77,0,1
3,90,0,10
3,78,0,8
3,89,100,0
3,77,100,2
3,77,0,1
3,89,0,0
3,90,100,19
3,78,100,0
3,77,100,751
3,89,100,1
3,78,0,2
3,90,0,0
3,78,100,749
3,89,0,2
3,90,100,0
3,77,0,1
3,90,0,765
3,78,0,8
3,89,100,0
3,77,100,2
3,77,0,772
3,89,0,0
3,90,100,19
3,78,100,0
3,77,100,751
3,89,100,1
3,78,0,2
3,90,0,0
3,78,100,749
3,89,0,2
3,90,100,0
3,77,0,1
3,90,0,765
3,78,0,8
3,89,100,0
3,77,100,2
3,77,0,772
3,89,0,0
3,74,112,6144
3,66,101,0
3,57,98,0
3,57,0,768
3,66,0,0
3,74,0,0
3,69,100,0
3,78,95,0
3,61,104,0
3,61,0,384
3,69,0,0
3,68,93,0
3,76,116,0
3,59,127,0
3,78,0,13
3,59,0,363
3,76,0,2
3,68,0,1
3,74,112,5
3,66,101,0
3,57,98,0
3,57,0,768
3,66,0,0
3,74,0,0
3,69,100,0
3,78,95,0
3,61,104,0
3,61,0,384
3,69,0,0
3,68,93,0
3,76,116,0
3,59,127,0
3,78,0,13
3,59,0,363
3,76,0,2
3,68,0,1
3,74,112,5
3,66,101,0
3,57,98,0
3,57,0,768
3,66,0,0
3,74,0,0
3,69,100,0
3,78,95,0
3,61,104,0
3,61,0,384
3,69,0,0
3,68,93,0
3,76,116,0
3,59,127,0
3,78,0,13
3,59,0,363
3,76,0,2
3,68,0,1
3,66,104,5
3,74,87,0
3,57,98,0
3,57,0,768
3,74,0,0
3,66,0,0
3,76,127,0
3,68,113,0
3,59,113,0
3,59,0,576
3,68,0,0
3,76,0,0
3,69,120,0
3,78,119,0
3,61,123,0
3,61,0,192
3,78,0,0
3,69,0,0
3,90,100,19
3,78,100,0
3,77,100,751
3,89,100,1
3,78,0,2
3,90,0,0
3,78,100,749
3,89,0,2
3,90,100,0
3,77,0,1
3,90,0,765
3,78,0,8
3,89,100,0
3,77,100,2
3,77,0,772
3,89,0,0
3,90,100,19
3,78,100,0
3,77,100,751
3,89,100,1
3,78,0,2
3,90,0,0
3,78,100,749
3,89,0,2
3,90,100,0
3,77,0,1
3,90,0,765
3,78,0,8
3,89,100,0
3,77,100,2
3,77,0,772
3,89,0,0
3,90,100,19
3,78,100,0
3,77,100,751
3,89,100,1
3,78,0,2
3,90,0,0
3,78,100,749
3,89,0,2
3,90,100,0
3,77,0,1
3,90,0,765
3,78,0,8
3,89,100,0
3,77,100,2
3,77,0,772
3,89,0,0
3,90,100,19
3,78,100,0
3,77,100,751
3,89,100,1
3,78,0,2
3,90,0,0
3,78,100,749
3,89,0,2
3,90,100,0
3,77,0,1
3,90,0,765
3,78,0,8
3,89,100,0
3,77,100,2
3,77,0,12
3,89,0,0
3,74,112,0
3,66,101,0
3,57,98,0
3,57,0,768
3,66,0,0
3,74,0,0
3,69,100,0
3,78,95,0
3,61,104,0
3,61,0,384
3,69,0,0
3,68,93,0
3,76,116,0
3,59,127,0
3,78,0,13
3,59,0,363
3,76,0,2
3,68,0,1
3,74,112,5
3,66,101,0
3,57,98,0
3,57,0,768
3,66,0,0
3,74,0,0
3,69,100,0
3,78,95,0
3,61,104,0
3,61,0,384
3,69,0,0
3,68,93,0
3,76,116,0
3,59,127,0
3,78,0,13
3,59,0,363
3,76,0,2
3,68,0,1
3,74,112,5
3,66,101,0
3,57,98,0
3,57,0,768
3,66,0,0
3,74,0,0
3,69,100,0
3,78,95,0
3,61,104,0
3,61,0,384
3,69,0,0
3,68,93,0
3,76,116,0
3,59,127,0
3,78,0,13
3,59,0,363
3,76,0,2
3,68,0,1
3,66,104,5
3,74,87,0
3,57,98,0
3,57,0,768
3,74,0,0
3,66,0,0
3,76,127,0
3,68,113,0
3,59,113,0
3,59,0,576
3,68,0,0
3,76,0,0
3,69,120,0
3,78,119,0
3,61,123,0
3,61,0,192
3,78,0,0
3,69,0,0
3,90,100,19
3,78,100,0
3,77,100,751
3,89,100,1
3,78,0,2
3,90,0,0
3,78,100,749
3,89,0,2
3,90,100,0
3,77,0,1
3,90,0,765
3,78,0,8
3,89,100,0
3,77,100,2
3,77,0,772
3,89,0,0
3,90,100,19
3,78,100,0
3,77,100,751
3,89,100,1
3,78,0,2
3,90,0,0
3,78,100,749
3,89,0,2
3,90,100,0
3,77,0,1
3,90,0,765
3,78,0,8
3,89,100,0
3,77,100,2
3,77,0,772
3,89,0,0
3,90,100,19
3,78,100,0
3,77,100,751
3,89,100,1
3,78,0,2
3,90,0,0
3,78,100,749
3,89,0,2
3,90,100,0
3,77,0,1
3,90,0,765
3,78,0,8
3,89,100,0
3,77,100,2
3,77,0,772
3,89,0,0
3,90,100,19
3,78,100,0
3,77,100,751
3,89,100,1
3,78,0,2
3,90,0,0
3,78,100,749
3,89,0,2
3,90,100,0
3,77,0,1
3,90,0,765
3,78,0,8
3,89,100,0
3,77,100,2
3,77,0,12
3,89,0,0
3,90,100,19
3,78,100,0
3,77,100,751
3,89,100,1
3,78,0,2
3,90,0,0
3,78,100,749
3,89,0,2
3,90,100,0
3,77,0,1
3,90,0,765
3,78,0,8
3,89,100,0
3,77,100,2
3,77,0,772
3,89,0,0
3,90,100,19
3,78,100,0
3,77,100,751
3,89,100,1
3,78,0,2
3,90,0,0
3,78,100,749
3,89,0,2
3,90,100,0
3,77,0,1
3,90,0,765
3,78,0,8
3,89,100,0
3,77,100,2
3,77,0,772
3,89,0,0
3,90,100,19
3,78,100,0
3,77,100,751
3,89,100,1
3,78,0,2
3,90,0,0
3,78,100,749
3,89,0,2
3,90,100,0
3,77,0,1
3,90,0,765
3,78,0,8
3,89,100,0
3,77,100,2
3,77,0,772
3,89,0,0
3,90,100,19
3,78,100,0
3,77,100,751
3,89,100,1
3,78,0,2
3,90,0,0
3,78,100,749
3,89,0,2
3,90,100,0
3,77,0,1
3,90,0,765
3,78,0,8
3,89,100,0
3,77,100,2
3,77,0,772
3,89,0,0
3,90,100,19
3,78,100,0
3,77,100,751
3,89,100,1
3,78,0,2
3,90,0,0
3,78,100,749
3,89,0,2
3,90,100,0
3,77,0,1
3,90,0,765
3,78,0,8
3,89,100,0
3,77,100,2
3,77,0,772
3,89,0,0
3,90,100,19
3,78,100,0
3,77,100,751
3,89,100,1
3,78,0,2
3,90,0,0
3,78,100,749
3,89,0,2
3,90,100,0
3,77,0,1
3,90,0,765
3,78,0,6
4,18,123,9408
4,18,0,192
4,25,123,96
4,25,0,262
4,13,123,26
4,13,0,172
4,21,123,20
4,21,0,176
4,33,123,112
4,33,0,283
4,16,123,5
4,16,0,187
4,21,123,5
4,21,0,168
4,25,123,120
4,25,0,85
4,26,123,11
4,26,0,192
4,14,123,0
4,14,0,179
4,30,123,13
4,30,0,155
4,28,123,133
4,28,0,233
4,23,123,7
4,23,0,28
4,28,123,20
4,28,0,35
4,23,123,13
4,23,0,36
4,16,123,12
4,16,0,95
4,18,123,1
4,18,0,187
4,25,123,101
4,25,0,262
4,13,123,26
4,13,0,172
4,21,123,20
4,21,0,176
4,33,123,112
4,33,0,283
4,16,123,5
4,16,0,187
4,21,123,5
4,21,0,168
4,25,123,120
4,25,0,85
4,26,123,11
4,26,0,192
4,14,123,0
4,14,0,179
4,30,123,13
4,30,0,155
4,28,123,133
4,28,0,233
4,23,123,7
4,23,0,28
4,28,123,20
4,28,0,35
4,23,123,13
4,23,0,36
4,16,123,12
4,16,0,95
4,26,123,1
4,26,0,113
4,14,123,79
4,14,0,107
4,26,123,85
4,26,0,97
4,30,123,287
4,30,0,76
4,30,123,20
4,30,0,90
4,18,123,6
4,23,123,96
4,18,0,3
4,28,123,93
4,23,0,8
4,28,0,82
4,23,123,150
4,23,0,8
4,28,123,40
4,28,0,7
4,23,123,41
4,23,0,39
4,26,123,9
4,26,0,107
4,14,123,85
4,14,0,97
4,21,123,47
4,21,0,41
4,14,123,7
4,14,0,70
4,14,123,26
4,14,0,83
4,18,123,205
4,18,0,41
4,18,123,55
4,18,0,95
4,23,123,1
4,23,0,96
4,30,123,0
4,30,0,94
4,28,123,2
4,28,0,48
4,28,123,48
4,28,0,9
4,23,123,39
4,23,0,33
4,23,123,63
4,23,0,6
4,28,123,42
4,28,0,10
4,23,123,38
4,23,0,39
4,26,123,9
4,26,0,94
4,26,123,98
4,26,0,100
4,21,123,44
4,21,0,44
4,14,123,4
4,14,0,100
4,21,123,236
4,21,0,12
4,18,123,36
4,18,0,41
4,18,123,55
4,18,0,91
4,25,123,5
4,25,0,88
4,18,123,8
4,18,0,27
4,25,123,21
4,25,0,27
4,28,123,21
4,28,0,24
4,16,123,72
4,16,0,129
4,23,123,15
4,23,0,13
4,28,123,35
4,28,0,5
4,23,123,43
4,23,0,22
4,26,123,26
4,26,0,96
4,14,123,96
4,14,0,114
4,21,123,30
4,21,0,40
4,26,123,8
4,26,0,97
4,21,123,143
4,21,0,30
4,26,123,18
4,26,0,38
4,27,123,10
4,27,0,37
4,28,123,11
4,28,0,113
4,16,123,79
4,16,0,106
4,16,123,86
4,16,0,96
4,18,123,96
4,18,0,103
4,26,123,12377
4,26,0,113
4,14,123,79
4,14,0,107
4,26,123,85
4,26,0,97
4,30,123,287
4,30,0,76
4,30,123,20
4,30,0,90
4,18,123,6
4,23,123,96
4,18,0,3
4,28,123,93
4,23,0,8
4,28,0,82
4,23,123,150
4,23,0,8
4,28,123,40
4,28,0,7
4,23,123,41
4,23,0,39
4,26,123,9
4,26,0,107
4,14,123,85
4,14,0,97
4,21,123,47
4,21,0,41
4,14,123,7
4,14,0,70
4,14,123,26
4,14,0,83
4,18,123,205
4,18,0,41
4,18,123,55
4,18,0,95
4,23,123,1
4,23,0,96
4,30,123,0
4,30,0,94
4,28,123,2
4,28,0,48
4,28,123,48
4,28,0,9
4,23,123,39
4,23,0,33
4,23,123,63
4,23,0,6
4,28,123,42
4,28,0,10
4,23,123,38
4,23,0,39
4,26,123,9
4,26,0,94
4,26,123,98
4,26,0,100
4,21,123,44
4,21,0,44
4,14,123,4
4,14,0,100
4,21,123,236
4,21,0,12
4,18,123,36
4,18,0,41
4,18,123,55
4,18,0,91
4,25,123,5
4,25,0,88
4,18,123,8
4,18,0,27
4,25,123,21
4,25,0,27
4,28,123,21
4,28,0,24
4,16,123,72
4,16,0,129
4,23,123,15
4,23,0,13
4,28,123,35
4,28,0,5
4,23,123,43
4,23,0,22
4,26,123,26
4,26,0,96
4,14,123,96
4,14,0,114
4,21,123,30
4,21,0,40
4,26,123,8
4,26,0,97
4,21,123,143
4,21,0,30
4,26,123,18
4,26,0,38
4,27,123,10
4,27,0,37
4,28,123,11
4,28,0,113
4,16,123,79
4,16,0,106
4,16,123,86
4,16,0,96
4,17,123,96
4,17,0,103
5,30,123,9408
5,30,0,192
5,37,123,96
5,37,0,262
5,25,123,26
5,25,0,172
5,33,123,20
5,33,0,176
5,45,123,112
5,45,0,283
5,28,123,5
5,28,0,187
5,33,123,5
5,33,0,168
5,37,123,120
5,37,0,85
5,38,123,11
5,38,0,192
5,26,123,0
5,26,0,179
5,42,123,13
5,42,0,155
5,40,123,133
5,40,0,233
5,35,123,7
5,35,0,28
5,40,123,20
5,40,0,35
5,35,123,13
5,35,0,36
5,28,123,12
5,28,0,95
5,30,123,1
5,30,0,187
5,37,123,101
5,37,0,262
5,25,123,26
5,25,0,172
5,33,123,20
5,33,0,176
5,45,123,112
5,45,0,283
5,28,123,5
5,28,0,187
5,33,123,5
5,33,0,168
5,37,123,120
5,37,0,85
5,38,123,11
5,38,0,192
5,26,123,0
5,26,0,179
5,42,123,13
5,42,0,155
5,40,123,133
5,40,0,233
5,35,123,7
5,35,0,28
5,40,123,20
5,40,0,35
5,35,123,13
5,35,0,36
5,28,123,12
5,28,0,95
5,38,123,1
5,38,0,113
5,26,123,79
5,26,0,107
5,38,123,85
5,38,0,97
5,42,123,287
5,42,0,76
5,42,123,20
5,42,0,90
5,30,123,6
5,35,123,96
5,30,0,3
5,40,123,93
5,35,0,8
5,40,0,82
5,35,123,150
5,35,0,8
5,40,123,40
5,40,0,7
5,35,123,41
5,35,0,39
5,38,123,9
5,38,0,107
5,26,123,85
5,26,0,97
5,33,123,47
5,33,0,41
5,26,123,7
5,26,0,70
5,26,123,26
5,26,0,83
5,30,123,205
5,30,0,41
5,30,123,55
5,30,0,95
5,35,123,1
5,35,0,96
5,42,123,0
5,42,0,94
5,40,123,2
5,40,0,48
5,40,123,48
5,40,0,9
5,35,123,39
5,35,0,33
5,35,123,63
5,35,0,6
5,40,123,42
5,40,0,10
5,35,123,38
5,35,0,39
5,38,123,9
5,38,0,94
5,38,123,98
5,38,0,100
5,33,123,44
5,33,0,44
5,26,123,4
5,26,0,100
5,33,123,236
5,33,0,12
5,30,123,36
5,30,0,41
5,30,123,55
5,30,0,91
5,37,123,5
5,37,0,88
5,30,123,8
5,30,0,27
5,37,123,21
5,37,0,27
5,40,123,21
5,40,0,24
5,28,123,72
5,28,0,129
5,35,123,15
5,35,0,13
5,40,123,35
5,40,0,5
5,35,123,43
5,35,0,22
5,38,123,26
5,38,0,96
5,26,123,96
5,26,0,114
5,33,123,30
5,33,0,40
5,38,123,8
5,38,0,97
5,33,123,143
5,33,0,30
5,38,123,18
5,38,0,38
5,39,123,10
5,39,0,37
5,40,123,11
5,40,0,113
5,28,123,79
5,28,0,106
5,28,123,86
5,28,0,96
5,30,123,96
5,30,0,103
5,38,123,12377
5,38,0,113
5,26,123,79
5,26,0,107
5,38,123,85
5,38,0,97
5,42,123,287
5,42,0,76
5,42,123,20
5,42,0,90
5,30,123,6
5,35,123,96
5,30,0,3
5,40,123,93
5,35,0,8
5,40,0,82
5,35,123,150
5,35,0,8
5,40,123,40
5,40,0,7
5,35,123,41
5,35,0,39
5,38,123,9
5,38,0,107
5,26,123,85
5,26,0,97
5,33,123,47
5,33,0,41
5,26,123,7
5,26,0,70
5,26,123,26
5,26,0,83
5,30,123,205
5,30,0,41
5,30,123,55
5,30,0,95
5,35,123,1
5,35,0,96
5,42,123,0
5,42,0,94
5,40,123,2
5,40,0,48
5,40,123,48
5,40,0,9
5,35,123,39
5,35,0,33
5,35,123,63
5,35,0,6
5,40,123,42
5,40,0,10
5,35,123,38
5,35,0,39
5,38,123,9
5,38,0,94
5,38,123,98
5,38,0,100
5,33,123,44
5,33,0,44
5,26,123,4
5,26,0,100
5,33,123,236
5,33,0,12
5,30,123,36
5,30,0,41
5,30,123,55
5,30,0,91
5,37,123,5
5,37,0,88
5,30,123,8
5,30,0,27
5,37,123,21
5,37,0,27
5,40,123,21
5,40,0,24
5,28,123,72
5,28,0,129
5,35,123,15
5,35,0,13
5,40,123,35
5,40,0,5
5,35,123,43
5,35,0,22
5,38,123,26
5,38,0,96
5,26,123,96
5,26,0,114
5,33,123,30
5,33,0,40
5,38,123,8
5,38,0,97
5,33,123,143
5,33,0,30
5,38,123,18
5,38,0,38
5,39,123,10
5,39,0,37
5,40,123,11
5,40,0,113
5,28,123,79
5,28,0,106
5,28,123,86
5,28,0,96
5,29,123,96
5,29,0,103
6,73,127,379
6,73,0,50
6,73,127,47
6,73,0,47
6,73,127,43
6,73,0,71
6,78,127,74
6,78,0,64
6,77,127,91
6,77,0,3
6,77,127,38
6,77,0,55
6,77,114,40
6,77,0,50
6,77,122,42
6,77,0,78
6,80,127,63
6,80,0,62
6,78,127,80
6,78,0,4
6,78,127,36
6,78,0,48
6,78,127,44
6,78,0,45
6,78,127,47
6,78,0,71
6,81,127,77
6,81,0,60
6,80,127,94
6,80,0,4
6,73,127,3388
6,73,0,52
6,73,127,43
6,73,0,100
6,73,127,190
6,73,0,57
6,73,127,41
6,73,0,93
6,73,127,199
6,73,0,66
6,77,127,27
6,77,0,65
6,73,127,24
6,73,0,49
