track,note,velocity,time
0,42,75,194
0,42,0,23
0,42,75,73
0,43,1,2
0,43,0,11
0,42,0,10
0,42,75,73
0,42,79,75
0,42,0,11
0,77,70,0
0,46,127,0
0,46,127,0
0,58,79,0
0,65,81,0
0,58,83,15
0,53,89,0
0,58,0,47
0,53,0,0
0,53,104,1
0,65,127,0
0,58,112,0
0,65,126,0
0,53,0,47
0,58,0,0
0,65,0,0
0,46,0,1
0,58,99,0
0,53,81,0
0,45,109,0
0,46,0,0
0,65,117,0
0,77,81,0
0,75,76,12
0,77,0,1
0,65,0,4
0,77,0,0
0,53,103,1
0,63,110,0
0,75,84,0
0,74,82,38
0,65,106,1
0,62,95,0
0,74,86,0
0,65,0,5
0,58,0,1
0,72,83,38
0,74,0,1
0,62,0,2
0,74,0,0
0,45,0,1
0,53,92,0
0,60,97,0
0,72,83,0
0,70,91,36
0,77,72,3
0,72,0,3
0,53,0,0
0,43,116,0
0,58,97,0
0,70,94,0
0,55,97,1
0,58,98,0
0,53,103,0
0,58,107,0
0,65,123,1
0,65,123,0
0,58,99,0
0,58,99,0
0,41,109,1
0,53,108,0
0,65,117,0
0,69,108,1
0,53,0,7
0,58,87,1
0,63,109,0
0,65,93,1
0,50,105,1
0,65,113,0
0,65,0,0
0,62,92,0
0,70,0,0
0,74,97,0
0,62,94,0
0,50,0,6
0,65,0,0
0,62,0,0
0,41,0,1
0,58,99,0
0,53,0,0
0,60,93,0
0,58,82,4
0,63,87,2
0,65,88,0
0,63,106,1
0,62,0,1
0,51,127,1
0,51,110,0
0,58,111,0
0,84,59,0
0,74,0,0
0,70,87,0
0,55,102,1
0,58,104,0
0,55,109,0
0,63,127,1
0,58,0,29
0,65,0,5
0,63,0,1
0,63,0,10
0,60,127,0
0,55,97,3
0,51,0,0
0,58,94,0
0,51,0,0
0,55,0,0
0,60,86,0
0,70,0,0
0,72,91,0
0,55,0,23
0,57,102,1
0,70,80,1
0,62,84,0
0,62,122,1
0,58,104,1
0,50,127,0
0,53,99,0
0,62,94,0
0,36,84,0
0,42,80,0
0,57,57,0
0,70,72,0
0,74,116,0
0,53,83,1
0,36,0,0
0,42,42,0
0,70,32,0
0,42,0,23
0,70,0,0
0,70,25,1
0,65,127,0
0,37,103,0
0,42,53,0
0,62,78,0
0,70,80,0
0,55,97,4
0,50,0,0
0,58,89,0
0,53,0,0
0,58,113,0
0,36,44,0
0,42,45,0
0,70,38,0
0,57,106,1
0,70,35,0
0,63,84,13
0,65,82,1
0,58,127,0
0,58,114,1
0,51,127,0
0,51,95,0
0,58,111,0
0,36,81,0
0,42,66,0
0,70,87,0
0,74,0,0
0,70,87,0
0,60,127,1
0,58,0,3
0,70,0,0
0,58,0,1
0,57,104,0
0,65,0,0
0,58,0,0
0,55,99,0
0,58,104,0
0,55,108,0
0,36,0,0
0,42,36,0
0,70,32,0
0,72,109,0
0,70,32,1
0,62,127,22
0,55,0,1
0,58,0,0
0,70,0,0
0,72,0,0
0,57,0,1
0,55,104,0
0,65,123,0
0,60,95,0
0,37,82,0
0,42,76,0
0,62,79,0
0,70,82,0
0,74,93,0
0,60,0,3
0,42,0,20
0,70,0,0
0,62,0,20
0,63,119,1
0,60,0,3
0,74,0,0
0,55,0,1
0,53,119,0
0,51,0,0
0,58,92,0
0,51,0,0
0,55,0,0
0,62,92,0
0,37,0,0
0,42,54,0
0,70,34,0
0,75,92,0
0,53,0,23
0,42,0,0
0,70,0,0
0,70,37,1
0,60,87,11
0,53,81,1
0,65,82,0
0,63,0,3
0,53,81,1
0,60,97,1
0,65,85,4
0,53,97,1
0,53,127,0
0,53,113,0
0,60,106,0
0,36,78,0
0,42,66,0
0,70,87,0
0,72,71,0
0,51,75,0
0,65,0,0
0,58,86,0
0,42,50,0
0,70,41,0
0,42,0,23
0,70,0,0
0,36,0,1
0,70,39,0
0,70,0,23
0,60,92,1
0,58,80,0
0,37,90,0
0,42,60,0
0,62,73,0
0,70,82,0
0,65,91,0
0,60,82,0
0,36,53,0
0,42,48,0
0,70,44,0
0,70,44,0
0,41,95,1
0,57,87,1
0,69,83,0
0,36,86,0
0,42,69,0
0,70,78,0
0,42,45,0
0,70,33,0
0,72,0,0
0,70,38,1
0,37,80,0
0,42,64,0
0,62,74,0
0,70,90,0
0,41,0,1
0,53,0,2
0,60,0,0
0,65,0,0
0,42,0,20
0,62,0,0
0,70,0,0
0,55,109,4
0,37,0,0
0,42,57,0
0,70,33,0
0,57,105,1
0,70,47,0
0,57,0,23
0,70,0,0
0,27,104,1
0,58,103,0
0,50,117,0
0,55,126,0
0,55,114,0
0,55,93,0
0,58,102,0
0,62,102,0
0,36,84,0
0,42,80,0
0,70,72,0
0,58,95,1
0,58,97,0
0,36,0,0
0,42,42,0
0,70,32,0
0,70,25,0
0,67,123,0
0,62,126,0
0,37,103,0
0,42,53,0
0,62,78,0
0,70,80,0
0,27,94,0
0,58,0,0
0,55,94,0
0,50,0,0
0,55,0,0
0,62,93,0
0,58,95,0
0,36,44,0
0,42,45,0
0,70,38,0
0,55,0,23
0,36,0,0
0,42,0,0
0,70,0,0
0,57,104,1
0,70,35,0
0,27,0,23
0,57,0,0
0,62,0,0
0,58,0,0
0,70,0,0
0,27,108,1
0,58,109,0
0,67,0,0
0,55,126,0
0,55,94,0
0,36,81,0
0,42,66,0
0,70,87,0
0,42,0,23
0,70,0,0
0,62,0,1
0,55,0,23
0,58,0,1
0,60,108,0
0,58,97,0
0,36,0,0
0,42,36,0
0,70,32,0
0,60,0,23
0,42,0,0
0,70,0,0
0,70,32,1
0,58,0,23
0,70,0,0
0,62,114,1
0,55,0,0
0,67,118,0
0,62,114,0
0,37,82,0
0,42,76,0
0,62,79,0
0,70,82,0
0,62,0,23
0,42,0,0
0,70,0,0
0,27,98,0
0,63,120,0
0,62,106,0
0,58,84,0
0,55,0,0
0,58,0,0
0,62,0,0
0,37,0,0
0,42,54,0
0,70,34,0
0,70,37,1
0,29,124,1
0,51,91,0
0,60,91,0
0,63,106,0
0,51,127,0
0,55,109,0
0,55,91,0
0,58,101,0
0,63,100,0
0,36,78,0
0,42,66,0
0,70,87,0
0,62,90,0
0,55,98,0
0,58,92,0
0,42,50,0
0,70,41,0
0,42,0,23
0,70,0,0
0,36,0,1
0,70,39,0
0,55,0,23
0,58,0,0
0,70,0,0
0,63,126,1
0,63,125,0
0,37,90,0
0,42,60,0
0,62,73,0
0,70,82,0
0,37,0,23
0,42,0,0
0,70,0,0
0,29,96,0
0,58,106,0
0,58,92,0
0,36,53,0
0,42,48,0
0,70,44,0
0,70,44,0
0,41,111,1
0,63,0,0
0,51,112,0
0,57,108,0
0,55,0,0
0,57,77,0
0,36,86,0
0,42,69,0
0,70,78,0
0,55,90,1
0,63,115,0
0,62,0,0
0,36,0,0
0,42,45,0
0,70,33,0
0,70,38,0
0,62,127,1
0,63,122,0
0,58,109,0
0,57,0,0
0,55,99,0
0,37,80,0
0,42,64,0
0,62,74,0
0,70,90,0
0,63,119,1
0,38,89,0
0,65,109,0
0,51,0,0
0,58,106,0
0,63,125,0
0,58,0,0
0,63,0,0
0,37,0,0
0,42,57,0
0,70,33,0
0,70,47,1
0,50,107,1
0,58,99,0
0,36,114,1
0,63,119,0
0,55,127,0
0,55,104,0
0,55,106,0
0,58,110,0
0,62,98,0
0,36,84,0
0,42,80,0
0,70,72,0
0,62,111,0
0,58,91,0
0,58,95,0
0,36,0,0
0,42,42,0
0,70,32,0
0,62,0,23
0,42,0,0
0,70,0,0
0,70,25,1
0,58,0,23
0,58,0,0
0,70,0,0
0,36,0,1
0,62,107,0
0,67,127,0
0,62,115,0
0,37,103,0
0,42,53,0
0,62,78,0
0,70,80,0
0,37,0,23
0,42,0,0
0,70,0,0
0,62,0,24
0,36,92,1
0,62,0,0
0,60,104,0
0,55,0,0
0,62,93,0
0,55,93,0
0,36,44,0
0,42,45,0
0,70,38,0
0,36,0,23
0,42,0,0
0,70,0,0
0,70,35,1
0,48,116,15
0,50,0,2
0,57,104,0
0,58,0,3
0,36,0,3
0,62,0,0
0,55,0,0
0,70,0,0
0,36,104,1
0,67,0,0
0,55,126,0
0,62,109,0
0,36,81,0
0,42,66,0
0,70,87,0
0,58,85,1
0,58,106,0
0,36,0,0
0,42,36,0
0,70,32,0
0,70,32,1
0,67,122,0
0,57,120,0
0,37,82,0
0,42,76,0
0,62,79,0
0,70,82,0
0,36,108,0
0,55,0,0
0,62,110,0
0,58,115,0
0,55,0,0
0,37,0,0
0,42,54,0
0,70,34,0
0,55,89,1
0,70,37,0
0,51,111,1
0,63,120,1
0,31,127,1
0,62,112,0
0,46,127,0
0,58,115,0
0,58,0,0
0,62,0,0
0,53,99,0
0,58,98,0
0,62,89,0
0,36,78,0
0,42,66,0
0,70,87,0
0,60,99,0
0,53,101,0
0,53,89,0
0,42,50,0
0,70,41,0
0,60,0,23
0,42,0,0
0,70,0,0
0,36,0,1
0,70,39,0
0,53,0,23
0,53,0,0
0,70,0,0
0,31,0,1
0,60,96,0
0,62,123,0
0,62,109,0
0,37,90,0
0,42,60,0
0,62,73,0
0,70,82,0
0,37,0,23
0,42,0,0
0,70,0,0
0,62,0,24
0,62,0,0
0,31,98,1
0,60,0,0
0,58,87,0
0,53,89,0
0,53,104,0
0,36,53,0
0,42,48,0
0,70,44,0
0,58,0,23
0,36,0,0
0,42,0,0
0,70,0,0
0,58,100,1
0,70,44,0
0,55,92,3
0,67,86,0
0,31,0,8
0,53,0,0
0,53,0,0
0,70,0,0
0,29,123,1
0,60,115,0
0,51,105,0
0,60,124,0
0,36,86,0
0,42,69,0
0,70,78,0
0,53,84,0
0,62,0,0
0,36,0,0
0,42,45,0
0,70,33,0
0,57,93,0
0,70,38,0
0,57,0,23
0,53,0,0
0,70,0,0
0,57,108,1
0,62,120,0
0,51,105,0
0,60,116,0
0,37,80,0
0,42,64,0
0,62,74,0
0,70,90,0
0,29,96,0
0,57,0,0
0,55,111,0
0,46,0,0
0,53,99,0
0,50,98,0
0,58,97,0
0,53,0,0
0,58,0,0
0,62,0,0
0,37,0,0
0,42,57,0
0,70,33,0
0,67,0,1
0,29,0,19
0,55,0,3
0,42,0,0
0,70,0,0
0,70,47,1
0,26,97,2
0,67,103,1
0,70,96,0
0,24,120,1
0,55,99,0
0,48,127,0
0,51,108,0
0,60,123,0
0,55,92,0
0,58,90,0
0,60,98,0
0,63,96,0
0,36,84,0
0,42,80,0
0,70,72,0
0,55,100,1
0,51,97,0
0,36,0,0
0,42,42,0
0,70,32,0
0,70,25,1
0,55,0,23
0,51,0,0
0,70,0,0
0,63,127,1
0,63,119,0
0,37,103,0
0,42,53,0
0,62,78,0
0,70,80,0
0,31,94,0
0,55,100,0
0,55,102,0
0,36,44,0
0,42,45,0
0,70,38,0
0,70,35,1
0,53,117,1
0,57,111,0
0,65,115,0
0,36,123,1
0,62,116,0
0,62,117,0
0,36,81,0
0,42,66,0
0,70,87,0
0,55,102,1
0,55,102,0
0,36,0,0
0,42,36,0
0,70,32,0
0,65,0,2
0,70,32,1
0,57,0,2
0,53,0,1
0,65,105,0
0,55,0,6
0,55,0,0
0,70,0,0
0,63,119,1
0,60,126,0
0,37,82,0
0,42,76,0
0,62,79,0
0,70,82,0
0,67,110,1
0,65,0,3
0,69,127,5
0,67,0,6
0,42,0,5
0,70,0,0
0,55,0,1
0,70,102,1
0,69,0,4
0,72,123,2
0,36,105,0
0,55,101,0
0,48,0,0
0,55,116,0
0,55,99,0
0,55,0,0
0,58,0,0
0,60,0,0
0,63,0,0
0,37,0,0
0,42,54,0
0,70,34,0
0,77,127,1
0,72,0,1
0,70,37,1
0,77,0,1
0,31,120,1
0,70,127,0
0,82,115,0
0,55,0,0
0,53,97,0
0,50,127,0
0,62,117,0
0,55,103,0
0,58,110,0
0,62,99,0
0,36,78,0
0,42,66,0
0,70,87,0
0,55,96,1
0,55,98,0
0,42,50,0
0,70,41,0
0,42,0,23
0,70,0,0
0,36,0,1
0,70,39,0
0,62,126,0
0,60,115,0
0,37,90,0
0,42,60,0
0,62,73,0
0,70,82,0
0,31,95,0
0,55,107,0
0,55,104,0
0,36,53,0
0,42,48,0
0,70,44,0
0,36,0,23
0,42,0,0
0,70,0,0
0,70,44,1
0,69,117,1
0,81,116,0
0,29,111,1
0,53,0,0
0,65,114,0
0,60,115,0
0,58,123,0
0,36,86,0
0,42,69,0
0,70,78,0
0,36,105,1
0,65,0,0
0,63,120,0
0,55,69,0
0,62,0,0
0,36,0,0
0,42,45,0
0,70,33,0
0,42,0,23
0,70,0,0
0,70,38,1
0,41,99,6
0,36,0,1
0,55,0,0
0,70,0,0
0,41,120,1
0,63,0,0
0,62,105,0
0,62,117,0
0,57,117,0
0,37,80,0
0,42,64,0
0,62,74,0
0,70,90,0
0,60,107,0
0,50,0,0
0,58,88,0
0,58,98,0
0,55,0,0
0,58,0,0
0,62,0,0
0,37,0,0
0,42,57,0
0,70,33,0
0,70,47,1
0,70,118,1
0,82,112,0
0,49,47,0
0,41,0,1
0,34,126,0
0,60,0,0
0,63,114,0
0,46,126,0
0,51,126,0
0,55,127,0
0,55,96,0
0,58,106,0
0,63,105,0
0,36,84,0
0,42,80,0
0,70,72,0
0,55,98,1
0,58,107,0
0,36,0,0
0,42,42,0
0,70,32,0
0,42,0,23
0,70,0,0
0,70,25,1
0,55,0,23
0,58,0,0
0,70,0,0
0,63,126,1
0,63,123,0
0,37,103,0
0,42,53,0
0,62,78,0
0,70,80,0
0,34,103,1
0,55,101,0
0,55,79,0
0,36,44,0
0,42,45,0
0,70,38,0
0,70,35,0
0,65,107,1
0,70,0,1
0,77,88,1
0,33,117,0
0,62,106,0
0,57,101,0
0,65,101,0
0,36,81,0
0,42,66,0
0,70,87,0
0,55,93,1
0,57,90,0
0,36,0,0
0,42,36,0
0,70,32,0
0,70,32,1
0,60,112,1
0,58,114,0
0,58,111,0
0,67,106,0
0,55,0,0
0,58,0,0
0,63,0,0
0,37,82,0
0,42,76,0
0,62,79,0
0,70,82,0
0,62,102,0
0,62,0,23
0,58,0,0
0,58,0,0
0,67,0,0
0,33,105,1
0,63,113,0
0,46,0,0
0,51,0,0
0,55,109,0
0,58,92,0
0,37,0,0
0,42,54,0
0,70,34,0
0,63,0,23
0,42,0,0
0,70,0,0
0,70,37,1
0,67,112,1
0,79,112,1
0,63,97,1
0,31,127,0
0,62,117,0
0,48,123,0
0,53,120,0
0,65,115,0
0,57,92,0
0,60,102,0
0,65,93,0
0,36,78,0
0,42,66,0
0,70,87,0
0,60,108,0
0,57,99,0
0,57,103,0
0,42,50,0
0,70,41,0
0,60,0,23
0,42,0,0
0,70,0,0
0,36,0,1
0,70,39,0
0,57,0,23
0,57,0,0
0,70,0,0
0,60,106,1
0,60,123,0
0,57,120,0
0,37,90,0
0,42,60,0
0,62,73,0
0,70,82,0
0,37,0,23
0,42,0,0
0,70,0,0
0,31,0,1
0,31,108,1
0,60,0,0
0,58,105,0
0,57,103,0
0,57,102,0
0,36,53,0
0,42,48,0
0,70,44,0
0,63,0,4
0,67,0,1
0,79,0,4
0,58,0,14
0,36,0,0
0,42,0,0
0,70,0,0
0,58,109,1
0,70,44,0
0,62,106,1
0,65,111,0
0,77,115,1
0,29,127,0
0,65,126,0
0,65,127,0
0,36,86,0
0,42,69,0
0,70,78,0
0,57,99,0
0,48,0,0
0,53,0,0
0,63,108,0
0,63,120,0
0,62,0,0
0,36,0,0
0,42,45,0
0,70,33,0
0,57,0,23
0,42,0,0
0,70,0,0
0,57,96,1
0,70,38,0
0,63,0,23
0,63,0,0
0,62,107,1
0,62,117,0
0,65,0,0
0,37,80,0
0,42,64,0
0,62,74,0
0,70,90,0
0,29,99,1
0,57,0,0
0,55,90,0
0,65,0,0
0,60,109,0
0,65,0,0
0,60,108,0
0,57,0,0
0,60,0,0
0,37,0,0
0,42,57,0
0,70,33,0
0,42,0,23
0,70,0,0
