track,note,velocity,time
0,76,55,51
0,78,58,47
0,76,0,52
0,79,59,11
0,76,54,104
0,78,0,38
0,81,62,68
0,79,0,95
0,83,67,2
0,76,0,18
0,81,0,47
0,83,0,11
0,60,84,4
0,67,71,47
0,60,0,34
0,72,60,19
0,67,0,21
0,76,62,28
0,72,0,10
0,81,66,91
0,76,0,33
0,83,53,74
0,81,0,63
0,79,57,50
0,83,0,77
0,79,0,219
0,62,77,86
0,67,64,43
0,62,0,49
0,69,69,2
0,67,0,55
0,74,84,4
0,69,0,13
0,67,50,140
0,74,0,1
0,67,0,14
0,50,59,115
0,66,53,0
0,62,47,1
0,50,0,8
0,66,0,4
0,67,55,25
0,62,11,17
0,69,55,88
0,62,0,16
0,67,0,2
0,62,0,9
0,67,63,84
0,43,55,4
0,69,0,4
0,50,54,48
0,67,0,32
0,55,38,25
0,43,0,13
0,50,0,17
0,50,41,33
0,55,50,48
0,62,38,53
0,55,0,5
0,60,37,2
0,50,0,13
0,55,21,58
0,59,57,45
0,55,0,3
0,50,55,2
0,62,0,31
0,60,0,19
0,43,52,0
0,55,0,54
0,55,49,1
0,59,0,23
0,50,0,13
0,59,51,30
0,43,0,1
0,55,0,33
0,50,57,16
0,59,0,44
0,55,43,67
0,59,46,55
0,62,26,5
0,50,59,49
0,50,0,9
0,43,57,43
0,55,0,7
0,59,0,9
0,62,0,39
0,55,52,3
0,59,42,61
0,50,0,12
0,43,0,0
0,55,0,8
0,50,62,24
0,59,63,60
0,62,54,3
0,59,0,1
0,55,50,0
0,50,55,46
0,50,0,12
0,59,0,15
0,62,0,5
0,55,0,20
0,57,56,4
0,60,52,2
0,50,57,61
0,50,0,8
0,57,0,3
0,60,0,6
0,59,55,11
0,43,54,1
0,50,0,4
0,55,38,2
0,59,0,29
0,43,0,30
0,67,81,147
0,55,0,38
0,71,80,18
0,67,0,32
0,50,58,42
0,71,0,2
0,71,63,33
0,62,59,3
0,67,65,2
0,50,0,36
0,43,56,3
0,50,48,34
0,71,0,14
0,62,0,28
0,55,68,14
0,67,0,1
0,43,0,11
0,59,57,42
0,50,0,19
0,55,0,81
0,62,29,18
0,67,40,56
0,59,0,4
0,62,32,49
0,43,54,52
0,50,54,60
0,62,0,7
0,67,0,6
0,62,0,9
0,55,52,34
0,43,0,17
0,50,0,7
0,62,72,28
0,59,62,2
0,50,60,50
0,55,0,26
0,62,0,11
0,59,0,2
0,64,84,14
0,50,0,27
0,50,78,23
0,64,0,8
0,50,0,10
0,65,77,34
0,60,70,1
0,55,67,0
0,36,63,44
0,65,0,58
0,64,71,2
0,60,0,29
0,43,49,24
0,64,67,42
0,55,0,46
0,48,40,15
0,36,0,20
0,64,0,4
0,43,0,16
0,55,47,10
0,64,0,4
0,60,39,63
0,48,0,4
0,52,24,52
0,55,0,13
0,55,40,37
0,36,66,59
0,43,48,52
0,60,0,18
0,52,0,15
0,55,0,13
0,48,48,8
0,36,0,10
0,55,52,42
0,43,0,9
0,48,0,6
0,55,0,4
0,67,93,35
0,52,77,46
0,67,0,1
0,52,0,10
0,67,88,43
0,62,86,2
0,45,71,1
0,38,68,46
0,67,0,14
0,66,77,38
0,57,71,1
0,62,0,9
0,45,62,50
0,45,0,3
0,38,0,11
0,66,0,2
0,66,69,26
0,62,53,5
0,57,59,0
0,57,0,49
0,45,0,1
0,66,0,5
0,50,56,0
0,62,0,28
0,57,0,14
0,57,69,11
0,62,42,58
0,50,0,7
0,54,52,43
0,57,0,28
0,57,49,80
0,62,0,37
0,54,0,6
0,38,53,8
0,57,0,8
0,50,42,46
0,54,51,55
0,57,66,2
0,38,0,16
0,50,0,10
0,59,64,28
0,54,0,4
0,50,69,44
0,57,0,12
0,59,0,13
0,50,0,9
0,60,67,21
0,57,74,3
0,50,69,4
0,60,0,19
0,43,50,16
0,57,0,41
0,50,0,4
0,55,62,5
0,59,66,1
0,43,0,77
0,55,0,9
0,59,45,28
0,55,49,1
0,59,0,40
0,50,51,54
0,55,57,50
0,59,0,9
0,55,0,13
0,50,0,6
0,55,49,26
0,38,79,51
0,55,0,33
0,50,53,16
0,55,60,44
0,55,0,9
0,38,0,1
0,50,0,11
0,50,65,35
0,67,78,57
0,55,0,20
0,50,0,21
0,69,91,10
0,67,0,32
0,50,77,19
0,69,0,7
0,50,0,18
0,72,74,23
0,67,69,2
0,62,71,1
0,50,58,2
0,43,61,48
0,50,63,22
0,72,0,35
0,67,0,0
0,62,0,12
0,50,0,5
0,55,59,7
0,43,0,7
0,50,0,15
0,62,58,27
0,71,69,2
0,67,58,1
0,55,0,81
0,59,49,35
0,62,0,20
0,62,42,30
0,50,49,61
0,71,0,50
0,43,48,1
0,50,54,8
0,67,0,2
0,59,0,1
0,62,0,2
0,50,0,17
0,55,51,36
0,62,59,49
0,59,46,1
0,43,0,5
0,55,48,48
0,50,0,17
0,55,0,8
0,62,0,2
0,59,0,4
0,59,62,25
0,64,73,2
0,55,0,19
0,59,0,4
0,50,69,22
0,64,0,9
0,50,0,10
0,55,63,34
0,60,65,1
0,43,50,0
0,65,73,14
0,55,0,3
0,36,63,16
0,64,85,55
0,60,0,1
0,43,0,49
0,43,57,3
0,65,0,25
0,36,0,4
0,55,69,19
0,64,78,0
0,60,68,1
0,64,0,11
0,48,49,2
0,43,0,13
0,55,0,10
0,64,0,19
0,55,53,8
0,60,0,5
0,60,48,53
0,48,0,12
0,52,44,45
0,55,0,17
0,55,49,36
0,36,65,60
0,43,64,50
0,60,0,40
0,52,0,2
0,55,0,2
0,36,0,3
0,48,57,6
0,43,0,3
0,48,0,7
0,52,74,40
0,67,85,55
0,52,0,36
0,55,64,8
0,67,0,13
0,55,0,10
0,67,64,39
0,57,74,1
0,62,66,0
0,38,55,44
0,67,0,51
0,66,65,6
0,45,51,30
0,57,0,2
0,62,0,15
0,38,0,6
0,66,58,29
0,57,63,1
0,62,55,1
0,66,0,54
0,45,0,0
0,66,0,6
0,50,52,1
0,57,0,37
0,57,55,15
0,62,0,52
0,54,52,10
0,50,0,25
0,57,54,27
0,38,50,103
0,57,0,18
0,54,0,4
0,57,0,9
0,45,58,26
0,50,61,43
0,57,92,61
0,38,0,19
0,45,0,44
0,50,59,51
0,50,0,1
0,57,0,4
0,50,0,19
0,69,71,4
0,47,44,19
0,69,0,3
0,47,0,23
0,40,63,18
0,69,82,3
0,59,72,2
0,47,63,6
0,40,0,14
0,69,0,14
0,59,63,9
0,67,70,2
0,59,0,25
0,47,0,19
0,64,86,10
0,59,78,2
0,59,0,25
0,67,0,6
0,52,51,20
0,64,0,7
0,59,0,33
0,71,92,15
0,52,0,34
0,47,65,23
0,71,0,11
0,47,0,5
0,45,64,34
0,45,0,28
0,62,51,5
0,66,56,2
0,38,60,0
0,69,60,3
0,45,60,61
0,62,0,23
0,66,0,3
0,50,66,5
0,38,0,2
0,69,0,9
0,62,66,41
0,45,0,16
0,50,0,3
0,62,0,2
0,54,82,28
0,69,90,63
0,54,0,22
0,71,90,26
0,57,73,2
0,69,0,17
0,71,0,18
0,57,0,6
0,67,83,6
0,72,82,1
0,64,82,0
0,55,70,4
0,67,0,18
0,48,68,14
0,55,60,10
0,72,0,39
0,60,51,15
0,64,0,49
0,64,51,3
0,67,50,119
0,55,0,1
0,48,0,6
0,55,0,3
0,60,0,26
0,64,0,13
0,55,55,3
0,67,0,10
0,55,64,39
0,55,0,5
0,55,0,42
0,76,75,0
0,67,74,3
0,72,77,0
0,48,68,1
0,76,0,5
0,67,0,13
0,72,0,2
0,71,77,14
0,74,77,1
0,67,46,7
0,48,0,26
0,55,64,16
0,71,0,6
0,74,0,21
0,67,0,13
0,67,82,5
0,72,78,1
0,55,0,16
0,67,0,4
0,55,61,30
0,72,0,31
0,67,71,25
0,71,63,2
0,55,0,22
0,55,54,30
0,67,0,9
0,71,0,10
0,55,0,30
0,66,68,5
0,69,69,2
0,38,62,34
0,45,58,23
0,66,0,26
0,69,0,14
0,50,57,18
0,38,0,10
0,54,65,41
0,57,64,55
0,45,0,47
0,62,50,5
0,50,0,9
0,66,43,40
0,54,0,13
0,57,0,10
0,62,0,3
0,57,62,27
0,66,0,21
0,57,0,9
0,50,77,16
0,66,84,1
0,62,72,2
0,69,84,1
0,50,0,31
0,57,71,15
0,66,0,18
0,62,0,1
0,69,91,36
0,66,76,1
0,62,74,0
0,69,0,17
0,57,0,12
0,69,0,4
0,71,74,17
0,66,0,1
0,62,71,1
0,62,0,46
0,57,76,3
0,71,0,4
0,62,0,23
0,62,88,27
0,72,85,1
0,57,0,46
0,57,81,4
0,62,0,16
0,72,0,8
0,57,0,19
0,54,68,8
0,71,73,2
0,62,68,1
0,66,65,1
0,54,0,14
0,47,55,16
0,54,62,1
0,71,0,38
0,57,51,19
0,62,0,46
0,62,43,5
0,66,0,73
0,47,0,25
0,66,42,9
0,62,40,1
0,57,64,57
0,54,0,11
0,57,0,3
0,62,0,5
0,66,0,6
0,54,67,25
0,62,0,1
0,57,0,44
0,54,0,2
0,71,69,5
0,66,68,1
0,62,69,1
0,47,58,0
0,54,60,29
0,71,0,15
0,66,0,8
0,62,0,5
0,69,66,9
0,62,45,1
0,47,0,15
0,54,0,23
0,67,67,13
0,62,58,1
0,57,53,50
0,69,0,10
0,62,0,14
0,67,0,10
0,69,79,22
0,62,0,1
0,57,0,24
0,69,0,4
0,43,58,77
0,64,69,1
0,55,57,2
0,60,54,1
0,43,0,18
0,36,49,5
0,43,53,5
0,64,0,30
0,55,0,8
0,60,0,9
0,48,57,9
0,36,0,13
0,55,51,43
0,43,0,56
0,52,54,9
0,48,0,15
0,55,55,28
0,55,0,31
0,52,0,4
0,55,0,9
0,45,56,11
0,45,0,18
0,45,59,36
0,45,0,33
0,38,55,12
0,66,58,1
0,62,58,3
0,57,55,1
0,45,58,49
0,38,0,15
0,66,0,7
0,62,0,18
0,57,67,6
0,50,62,1
0,57,0,11
0,45,0,19
0,57,0,12
0,54,79,9
0,50,0,10
0,57,66,39
0,69,105,55
0,54,0,4
0,57,0,30
0,57,82,16
0,71,90,2
0,69,0,7
0,57,0,27
0,67,82,12
0,72,82,2
0,55,69,0
0,64,79,1
0,71,0,13
0,67,0,21
0,48,67,13
0,55,58,13
0,72,0,21
0,60,49,33
0,55,0,44
0,64,52,11
0,64,0,47
0,67,53,7
0,48,0,22
0,64,51,33
0,55,0,10
0,60,0,1
0,64,0,14
0,60,52,22
0,67,0,15
0,64,0,23
0,67,68,12
0,55,61,4
0,60,0,9
0,67,0,21
0,76,86,17
0,72,84,1
0,67,82,1
0,48,68,3
0,55,0,1
0,76,0,12
0,72,0,8
0,67,0,2
0,67,63,5
0,74,78,0
0,71,71,2
0,48,0,30
0,55,63,13
0,67,0,25
0,74,0,12
0,71,0,14
0,72,73,1
0,67,74,0
0,55,0,17
0,72,0,3
0,55,55,29
0,67,0,52
0,71,62,4
0,67,61,1
0,55,0,31
0,55,54,17
0,71,0,9
0,67,0,9
0,55,0,36
0,66,63,1
0,69,67,2
0,38,64,25
0,45,62,16
0,66,0,14
0,69,0,28
0,50,66,15
0,38,0,12
0,62,46,36
0,54,63,59
0,45,0,47
0,57,64,10
0,62,70,48
0,50,0,5
0,62,0,21
0,54,0,21
0,66,63,0
0,57,0,10
0,57,58,1
0,62,0,18
0,66,0,4
0,57,0,2
0,50,83,16
0,69,95,4
0,62,83,1
0,66,83,1
0,57,74,2
0,50,0,12
0,69,0,18
0,62,0,0
0,69,92,26
0,62,77,1
0,66,71,1
0,66,0,15
0,57,0,9
0,69,0,1
0,71,82,21
0,62,82,1
0,66,77,0
0,62,0,9
0,57,75,42
0,66,0,9
0,71,0,3
0,62,0,9
0,66,0,8
0,62,85,20
0,72,82,1
0,66,76,2
0,57,0,25
0,48,58,27
0,62,0,7
0,72,0,8
0,66,0,16
0,57,75,14
0,48,0,2
0,71,81,3
0,62,78,1
0,66,69,6
0,57,0,13
0,47,54,23
0,54,67,5
0,71,0,17
0,62,0,2
0,57,64,35
0,59,57,55
0,62,59,53
0,66,47,58
0,66,0,3
0,47,0,17
0,54,0,10
0,59,58,21
0,57,0,9
0,59,0,12
0,62,0,17
0,57,66,12
0,66,0,8
0,59,0,28
0,57,0,11
0,71,79,5
0,62,77,1
0,66,77,0
0,47,63,1
0,54,74,34
0,71,0,13
0,62,0,10
0,62,69,8
0,69,74,3
0,66,0,1
0,47,0,27
0,54,0,13
0,62,67,13
0,67,75,1
0,57,69,51
0,62,0,20
0,69,0,8
0,62,0,7
0,69,84,17
0,62,63,1
0,67,0,15
0,57,0,5
0,69,0,8
0,54,70,19
0,62,0,20
0,54,0,6
0,64,71,32
0,55,63,3
0,60,60,7
0,36,54,34
0,43,51,56
0,64,0,23
0,55,0,5
0,48,67,8
0,60,0,13
0,52,76,37
0,36,0,12
0,43,0,1
0,48,0,46
0,55,79,2
0,60,82,52
0,52,0,9
0,55,0,13
0,60,0,1
0,45,66,28
0,45,0,10
0,45,74,38
0,45,0,38
0,62,80,7
0,66,79,0
0,57,83,3
0,38,70,2
0,45,70,52
0,62,0,12
0,66,0,1
0,50,72,3
0,57,0,25
0,38,0,5
0,45,0,5
0,57,53,20
0,67,66,1
0,66,81,29
0,50,0,1
0,64,79,37
0,57,0,2
0,66,84,48
0,67,0,6
0,66,0,11
0,54,68,35
0,64,0,17
0,66,0,5
0,50,37,49
0,54,0,26
0,50,0,11
0,67,58,6
0,60,59,1
0,43,57,2
0,50,61,46
0,55,53,57
0,67,0,1
0,59,45,109
0,60,0,20
0,55,47,39
0,43,0,2
0,50,0,106
0,50,54,0
0,55,0,51
0,43,43,2
0,59,0,4
0,55,0,44
0,55,54,1
0,59,34,59
0,50,0,5
0,38,44,64
0,43,0,26
0,55,51,68
0,55,0,55
0,50,46,5
0,59,0,28
0,43,35,1
0,38,0,11
0,55,50,45
0,55,0,5
0,50,0,38
0,50,56,16
0,43,0,12
0,55,0,0
0,50,64,38
0,50,0,9
0,50,0,6
0,62,62,45
0,54,62,3
0,57,70,4
0,38,46,6
0,50,38,50
0,62,0,4
0,54,0,1
0,57,0,1
0,38,0,17
0,60,62,7
0,54,31,1
0,50,0,4
0,57,42,1
0,60,0,11
0,38,47,51
0,54,0,4
0,57,0,21
0,38,0,18
0,31,66,5
0,59,54,2
0,55,52,2
0,31,0,28
0,59,0,22
0,43,31,47
0,67,82,86
0,55,0,19
0,43,0,12
0,69,91,23
0,67,0,44
0,69,0,1
0,43,53,8
0,71,66,6
0,43,0,4
0,71,0,28
0,71,70,22
0,67,74,0
0,62,54,5
0,50,43,6
0,43,54,15
0,50,54,21
0,71,0,6
0,67,0,3
0,62,0,4
0,50,0,18
0,43,0,1
0,55,51,20
0,50,0,11
0,59,53,50
0,55,0,13
0,59,55,102
0,62,55,55
0,67,58,47
0,47,69,55
0,50,68,53
0,55,56,54
0,59,0,1
0,59,0,1
0,62,0,3
0,67,0,5
0,47,0,14
0,62,79,28
0,50,0,6
0,50,71,46
0,55,0,36
0,62,0,2
0,64,77,17
0,50,0,17
0,50,61,34
0,64,0,9
0,50,0,9
0,60,63,35
0,65,62,0
0,55,57,1
0,36,61,40
0,60,0,2
0,43,54,8
0,65,0,51
0,48,46,4
0,55,69,47
0,60,67,1
0,64,80,2
0,55,0,1
0,36,0,10
0,55,51,39
0,43,0,10
0,48,58,46
0,48,0,11
0,43,51,41
0,55,0,13
0,60,0,14
0,36,66,35
0,64,0,3
0,55,0,6
0,48,0,29
0,43,0,76
0,55,62,4
0,60,72,47
0,36,0,12
0,55,0,6
0,60,0,2
0,52,74,31
0,67,95,52
0,52,0,12
0,67,0,31
0,52,63,13
0,52,0,8
0,67,69,44
0,62,63,3
0,57,65,2
0,38,57,42
0,66,74,55
0,67,0,10
0,45,51,44
0,62,0,9
0,57,0,2
0,38,0,4
0,66,62,32
0,62,58,1
0,57,62,1
0,66,0,45
0,45,0,10
0,50,56,3
0,66,0,1
0,62,0,36
