track,note,velocity,time
3,60,127,0
3,60,0,969
3,12,117,4791
3,72,65,0
3,72,0,969
3,12,0,0
3,60,127,951
3,60,0,969
3,36,127,1191
3,36,0,369
3,31,127,2511
3,31,0,369
3,36,127,591
3,36,0,369
3,36,127,3471
3,36,0,369
3,31,127,2511
3,31,0,369
3,36,127,591
3,36,0,369
3,36,127,3471
3,36,0,369
3,31,127,2511
3,31,0,369
3,36,127,591
3,36,0,369
3,60,127,1311
3,60,0,969
3,36,127,1191
3,36,0,369
3,31,127,2511
3,31,0,369
3,36,127,591
3,36,0,369
3,36,127,3471
3,36,0,369
3,31,127,2511
3,31,0,369
3,36,127,591
3,36,0,369
3,60,127,1311
3,60,0,969
3,36,127,3111
3,72,127,360
3,36,0,9
3,72,0,360
3,31,127,2151
3,31,0,369
3,36,127,591
3,36,0,369
3,36,127,3471
3,36,0,369
3,31,127,2511
3,31,0,369
3,36,127,591
3,36,0,369
3,60,127,1311
3,60,0,969
3,36,127,1191
3,36,0,369
3,31,127,2511
3,31,0,369
3,36,127,591
3,36,0,369
3,36,127,3471
3,36,0,369
3,31,127,2511
3,31,0,369
3,36,127,591
3,36,0,369
3,60,127,1311
3,60,0,969
3,60,127,2871
3,72,127,120
3,72,0,489
3,60,0,360
3,84,127,7191
3,84,0,489
3,60,127,18231
3,60,0,969
3,36,127,1191
3,36,0,369
3,31,127,2511
3,31,0,369
3,36,127,591
3,36,0,369
3,36,127,3471
3,36,0,369
3,31,127,2511
3,31,0,369
3,36,127,591
3,36,0,369
3,60,127,831
3,60,0,609
3,31,127,4911
3,31,0,369
3,36,127,591
3,36,0,369
3,36,127,3471
3,36,0,369
3,31,127,2511
3,31,0,369
3,36,127,591
3,36,0,369
3,60,127,1311
3,60,0,969
3,36,127,1191
3,36,0,369
3,31,127,2511
3,31,0,369
3,36,127,591
3,36,0,369
3,36,127,3471
3,36,0,369
3,31,127,2511
3,31,0,369
3,36,127,591
3,72,127,240
3,36,0,129
3,72,0,360
3,60,127,2871
3,60,0,969
4,34,116,0
4,34,0,145
4,34,99,215
4,34,0,120
4,34,116,0
4,34,0,145
4,29,115,95
4,34,116,240
4,29,0,15
4,34,0,130
4,34,116,335
4,34,0,145
4,22,116,95
4,22,0,240
4,29,116,0
4,29,0,145
4,29,116,335
4,29,0,145
4,29,116,335
4,29,0,145
4,29,116,335
4,29,0,145
4,29,116,95
4,29,0,240
4,34,116,0
4,34,0,145
4,34,99,215
4,34,0,120
4,34,116,0
4,34,0,145
4,29,115,95
4,34,116,240
4,29,0,15
4,34,0,130
4,34,116,335
4,34,0,145
4,22,116,95
4,22,0,240
4,27,116,0
4,27,0,145
4,27,116,335
4,27,0,145
4,29,116,335
4,29,0,145
4,29,116,335
4,29,0,145
4,33,116,95
4,33,0,240
4,34,116,0
4,34,0,145
4,34,99,215
4,34,0,120
4,34,116,0
4,34,0,145
4,29,115,95
4,34,116,240
4,29,0,15
4,34,0,130
4,34,116,335
4,34,0,145
4,22,116,95
4,22,0,240
4,29,116,0
4,29,0,145
4,29,116,335
4,29,0,145
4,29,116,335
4,29,0,145
4,29,116,335
4,29,0,145
4,29,116,95
4,29,0,240
4,30,116,0
4,30,0,145
4,30,116,215
4,30,0,120
4,30,116,0
4,30,0,120
4,29,116,120
4,29,0,240
4,30,116,0
4,30,0,145
4,30,116,335
4,30,0,145
4,30,116,95
4,30,0,240
4,29,116,0
4,29,0,145
4,29,116,335
4,29,0,145
4,29,116,335
4,29,0,145
4,29,116,335
4,29,0,145
4,33,116,95
4,33,0,240
4,34,116,0
4,34,0,145
4,34,99,215
4,34,0,120
4,34,116,0
4,34,0,145
4,29,115,95
4,34,116,240
4,29,0,15
4,34,0,130
4,34,116,335
4,34,0,145
4,22,116,95
4,22,0,240
4,29,116,0
4,29,0,145
4,29,99,215
4,29,0,120
4,29,116,0
4,29,0,145
4,29,115,95
4,30,116,240
4,29,0,15
4,30,0,130
4,30,116,335
4,30,0,145
4,37,116,335
4,37,0,145
4,37,116,215
4,37,0,120
4,37,116,0
4,37,0,120
4,32,116,120
4,32,0,240
4,37,116,0
4,37,0,145
4,34,117,335
4,34,0,120
4,36,117,0
4,37,117,120
4,36,0,20
4,37,0,100
4,39,117,0
4,39,0,120
4,41,127,0
4,41,0,187
4,36,127,293
4,36,0,177
4,39,127,303
4,39,0,186
4,37,127,294
4,37,0,237
4,36,127,3
4,34,127,240
4,36,0,20
4,34,0,220
4,34,127,120
4,34,0,120
4,34,127,0
4,34,0,240
4,29,127,0
4,29,0,240
4,34,127,0
4,34,0,240
4,34,127,240
4,34,0,240
4,22,127,0
4,22,0,240
4,29,127,0
4,29,0,240
4,29,127,120
4,29,0,120
4,29,127,0
4,29,0,240
4,24,127,0
4,24,0,240
4,29,127,0
4,29,0,240
4,29,127,240
4,29,0,240
4,29,127,0
4,29,0,240
4,37,127,0
4,37,0,240
4,37,127,120
4,37,0,120
4,37,127,0
4,37,0,240
4,37,127,0
4,37,0,240
4,37,127,0
4,37,0,240
4,34,127,240
4,34,0,240
4,37,127,0
4,37,0,240
4,39,127,0
4,39,0,245
4,39,127,235
4,39,0,275
4,41,127,205
4,41,0,15
4,41,127,9
4,41,0,10
4,34,127,129
4,34,0,140
4,34,127,0
4,34,0,120
4,34,127,120
4,34,0,240
4,29,127,0
4,29,0,240
4,34,127,0
4,34,0,240
4,34,127,240
4,34,0,240
4,22,127,0
4,22,0,240
4,29,127,0
4,29,0,342
4,29,127,138
4,29,0,270
4,30,127,210
4,30,0,456
4,32,127,24
4,32,0,451
4,25,127,29
4,25,0,55
4,25,127,65
4,25,0,147
4,25,127,93
4,25,0,45
4,25,127,75
4,25,0,140
4,25,127,100
4,25,0,106
4,25,127,134
4,25,0,12
4,25,127,14
4,25,0,305
4,42,127,100
4,42,0,170
4,41,127,70
4,41,0,150
4,39,127,90
4,39,0,155
4,37,127,325
4,37,0,120
4,39,127,0
4,39,0,120
4,36,127,0
4,36,0,120
4,37,127,0
4,37,0,120
4,34,127,0
4,34,0,240
4,33,127,0
4,33,0,240
4,34,127,0
4,34,0,240
4,34,105,10
4,34,0,20
4,29,116,0
4,29,0,145
4,29,116,335
4,29,0,145
4,29,116,335
4,29,0,145
4,29,116,335
4,29,0,145
4,29,116,95
4,29,0,240
4,34,116,0
4,34,0,145
4,34,99,215
4,34,0,120
4,34,116,0
4,34,0,145
4,29,115,95
4,34,116,240
4,29,0,15
4,34,0,130
4,34,116,335
4,34,0,145
4,22,116,95
4,22,0,240
4,27,116,0
4,27,0,145
4,27,116,335
4,27,0,145
4,29,116,335
4,29,0,145
4,29,116,335
4,29,0,145
4,33,116,95
4,33,0,240
4,34,116,0
4,34,0,145
4,34,99,215
4,34,0,120
4,34,116,0
4,34,0,145
4,29,115,95
4,34,116,240
4,29,0,15
4,34,0,130
4,34,116,335
4,34,0,145
4,22,116,95
4,22,0,240
4,29,116,0
4,29,0,145
4,29,116,335
4,29,0,145
4,29,116,335
4,29,0,145
4,29,116,335
4,29,0,145
4,29,116,95
4,29,0,240
4,30,116,0
4,30,0,145
4,30,116,215
4,30,0,120
4,30,116,0
4,30,0,120
4,29,116,120
4,29,0,240
4,30,116,0
4,30,0,145
4,34,117,335
4,34,0,120
4,36,117,0
4,37,117,120
4,36,0,20
4,37,0,100
4,39,117,0
4,39,0,120
4,41,127,0
4,41,0,187
4,36,127,293
4,36,0,177
4,39,127,303
4,39,0,186
4,37,127,294
4,37,0,237
4,36,127,3
4,34,127,240
4,36,0,20
4,34,0,220
4,34,127,120
4,34,0,120
4,34,127,0
4,34,0,240
4,29,127,0
4,29,0,240
4,34,127,0
4,34,0,240
4,34,127,240
4,34,0,240
4,22,127,0
4,22,0,240
4,29,127,0
4,29,0,240
4,29,127,120
4,29,0,120
4,29,127,0
4,29,0,240
4,24,127,0
4,24,0,240
4,29,127,0
4,29,0,240
4,29,127,240
4,29,0,240
4,29,127,0
4,29,0,240
4,37,127,0
4,37,0,240
4,37,127,120
4,37,0,120
4,37,127,0
4,37,0,240
4,37,127,0
4,37,0,240
4,37,127,0
4,37,0,240
4,34,127,240
4,34,0,240
4,37,127,0
4,37,0,240
4,39,127,0
4,39,0,245
4,39,127,235
4,39,0,275
4,41,127,205
4,41,0,15
4,41,127,9
4,41,0,10
4,34,127,129
4,34,0,140
4,34,127,0
4,34,0,120
4,34,127,120
4,34,0,240
4,29,127,0
4,29,0,240
4,34,127,0
4,34,0,240
4,34,127,240
4,34,0,240
4,22,127,0
4,22,0,240
4,29,127,0
4,29,0,342
4,29,127,138
4,29,0,270
4,30,127,210
4,30,0,456
4,32,127,24
4,32,0,451
4,25,127,29
4,25,0,55
4,25,127,65
4,25,0,147
4,25,127,93
4,25,0,45
4,25,127,75
4,25,0,140
4,25,127,100
4,25,0,106
4,25,127,134
4,25,0,12
4,25,127,14
4,25,0,279
4,42,127,100
4,42,0,170
4,41,127,70
4,41,0,150
4,39,127,90
4,39,0,155
4,37,127,325
4,37,0,120
4,39,127,0
4,39,0,120
4,36,127,0
4,36,0,120
4,37,127,0
4,37,0,120
4,34,127,0
4,34,0,240
4,33,127,0
4,33,0,240
4,42,127,24960
4,42,0,155
4,41,127,85
4,41,0,146
4,39,127,94
4,39,0,181
4,37,127,299
4,37,0,157
4,36,127,83
4,36,0,150
4,34,127,90
4,34,0,146
4,33,127,94
4,33,0,156
4,42,127,84
4,42,0,155
4,41,127,85
4,41,0,146
4,39,127,94
4,39,0,181
4,37,127,299
4,37,0,157
4,36,127,83
4,36,0,150
4,34,127,90
4,34,0,146
4,33,127,94
4,33,0,156
4,36,127,2004
4,36,0,240
4,36,127,120
4,36,0,120
4,36,127,0
4,36,0,240
4,31,127,0
4,31,0,240
4,36,127,0
4,36,0,240
4,36,127,240
4,36,0,240
4,24,127,0
4,24,0,240
4,31,127,0
4,31,0,240
4,31,127,120
4,31,0,120
4,31,127,0
4,31,0,240
4,26,127,0
4,26,0,240
4,31,127,0
4,31,0,240
4,31,127,240
4,31,0,240
4,31,127,0
4,31,0,240
4,39,127,0
4,39,0,240
4,39,127,120
4,39,0,120
4,39,127,0
4,39,0,240
4,39,127,0
4,39,0,240
4,39,127,0
4,39,0,240
4,36,127,240
4,36,0,240
4,39,127,0
4,39,0,240
4,41,127,0
4,41,0,245
4,41,127,235
4,41,0,275
4,43,127,205
4,43,0,15
4,43,127,9
4,43,0,10
4,36,127,129
4,36,0,140
4,36,127,0
4,36,0,120
4,36,127,120
4,36,0,240
4,31,127,0
4,31,0,240
4,36,127,0
4,36,0,240
4,36,127,240
4,36,0,240
4,24,127,0
4,24,0,240
4,31,127,0
4,31,0,342
4,31,127,138
4,31,0,270
4,32,127,210
4,32,0,456
4,34,127,24
4,34,0,451
4,27,127,29
4,27,0,55
4,27,127,65
4,27,0,147
4,27,127,93
4,27,0,45
4,27,127,75
4,27,0,140
4,27,127,100
4,27,0,106
4,27,127,134
4,27,0,12
4,27,127,14
4,27,0,279
4,44,127,100
4,44,0,170
4,43,127,70
4,43,0,150
4,41,127,90
4,41,0,155
4,39,127,85
4,39,0,155
4,38,127,85
4,38,0,155
4,48,1,450
4,48,0,210
4,31,127,30
4,31,0,30
4,31,127,0
4,31,0,210
4,31,127,120
4,31,0,120
4,31,127,0
4,31,0,240
4,26,127,0
4,26,0,240
4,31,127,0
4,31,0,240
4,31,127,240
4,31,0,240
4,31,127,0
4,31,0,240
4,39,127,0
4,39,0,240
4,39,127,120
4,39,0,120
4,39,127,0
4,39,0,240
4,39,127,0
4,39,0,240
4,39,127,0
4,39,0,240
4,36,127,240
4,36,0,240
4,39,127,0
4,39,0,240
4,41,127,0
4,41,0,245
4,41,127,235
4,41,0,275
4,43,127,205
4,43,0,15
4,43,127,9
4,43,0,10
4,36,127,129
4,36,0,140
4,36,127,0
4,36,0,120
4,36,127,120
4,36,0,240
4,31,127,0
4,31,0,240
4,36,127,0
4,36,0,240
4,36,127,240
4,36,0,240
4,24,127,0
4,24,0,240
4,31,127,0
4,31,0,342
4,31,127,138
4,31,0,270
4,32,127,210
4,32,0,456
4,34,127,24
4,34,0,451
4,27,127,29
4,27,0,55
4,27,127,65
4,27,0,147
4,27,127,93
4,27,0,45
4,27,127,75
4,27,0,140
4,27,127,100
4,27,0,106
4,27,127,134
4,27,0,12
4,27,127,14
4,27,0,279
4,44,127,100
4,44,0,170
4,43,127,70
4,43,0,150
4,41,127,90
4,41,0,155
4,39,127,85
4,39,0,155
4,39,127,85
4,39,0,120
4,41,127,0
4,41,0,120
4,38,127,0
4,38,0,120
4,39,127,0
4,39,0,120
4,36,127,0
4,36,0,240
4,35,127,0
4,35,0,240
4,36,127,0
4,36,0,240
4,36,127,120
4,36,0,120
4,36,127,0
4,36,0,240
4,31,127,0
4,31,0,240
4,36,127,0
4,36,0,240
4,36,127,240
4,36,0,240
4,24,127,0
4,24,0,240
4,31,127,0
4,31,0,240
4,31,127,120
4,31,0,120
4,31,127,0
4,31,0,240
4,26,127,0
4,26,0,240
4,31,127,0
4,31,0,240
4,31,127,240
4,31,0,240
4,31,127,0
4,31,0,240
4,39,127,0
4,39,0,240
4,39,127,120
4,39,0,120
4,39,127,0
4,39,0,240
4,39,127,0
4,39,0,240
4,39,127,0
4,39,0,240
4,36,127,240
4,36,0,240
4,39,127,0
4,39,0,240
4,41,127,0
4,41,0,245
4,41,127,235
4,41,0,275
4,43,127,205
4,43,0,15
4,43,127,9
4,43,0,10
4,36,127,129
4,36,0,140
4,36,127,0
4,36,0,120
4,36,127,120
4,36,0,240
4,31,127,0
4,31,0,240
4,36,127,0
4,36,0,240
4,36,127,240
4,36,0,240
4,24,127,0
4,24,0,240
4,31,127,0
4,31,0,342
4,31,127,138
4,31,0,270
4,32,127,210
4,32,0,456
4,34,127,24
4,34,0,451
4,27,127,29
4,27,0,55
4,27,127,65
4,27,0,147
4,27,127,93
4,27,0,45
4,27,127,75
4,27,0,140
4,27,127,100
4,27,0,106
4,27,127,134
4,27,0,12
4,27,127,14
4,27,0,279
4,44,127,100
4,44,0,155
4,43,127,85
4,43,0,146
4,41,127,94
4,41,0,181
4,39,127,299
4,39,0,157
4,38,127,83
4,38,0,150
4,36,127,90
4,36,0,146
4,35,127,94
4,35,0,156
4,44,127,84
4,44,0,170
4,43,127,70
4,43,0,150
4,41,127,90
4,41,0,155
4,39,127,325
4,39,0,120
4,41,127,0
4,41,0,120
4,38,127,0
4,38,0,120
4,39,127,0
4,39,0,120
4,36,127,0
4,36,0,240
4,35,127,0
4,35,0,240
5,58,87,0
5,46,87,0
5,46,0,1200
5,58,0,0
5,94,101,720
5,82,101,0
5,82,0,120
5,94,0,0
5,58,87,22080
5,46,87,0
5,82,74,480
5,94,74,0
5,82,0,590
5,94,0,30
5,46,0,100
5,58,0,0
5,82,101,720
5,94,101,0
5,94,0,120
5,82,0,0
5,58,94,0
5,70,94,0
5,58,0,29
5,70,0,5
5,58,87,14040
5,46,87,0
5,82,80,480
5,94,80,0
5,82,0,590
5,94,0,30
5,46,0,100
5,58,0,0
5,82,101,720
5,94,101,0
5,94,0,120
5,82,0,0
5,58,87,2880
5,46,87,0
5,46,0,1200
5,58,0,0
5,82,101,720
5,94,101,0
5,94,0,120
5,82,0,0
5,84,53,3840
5,48,87,960
5,60,87,0
5,84,0,480
5,96,80,0
5,84,80,0
5,84,0,590
5,96,0,30
5,60,0,100
5,48,0,0
5,58,94,0
5,70,94,0
5,70,0,90
5,58,0,10
5,84,101,720
5,96,101,0
5,96,0,120
5,84,0,0
6,61,127,0
6,61,0,51
6,61,127,69
6,61,0,32
6,61,127,88
6,61,0,50
6,61,127,70
6,61,0,31
6,61,127,89
6,61,0,51
6,61,127,69
6,61,0,180
6,61,113,60
6,61,0,45
6,61,127,75
6,61,0,35
6,61,127,85
6,61,0,130
6,61,127,110
6,61,0,210
6,60,127,30
6,60,0,215
6,60,127,25
6,60,0,121
6,60,127,119
6,60,0,195
6,60,127,45
6,60,0,181
6,60,127,59
6,61,113,240
