track,note,velocity,time
1,90,100,38
1,78,100,0
1,77,100,4
1,89,100,2
1,78,100,20
1,90,100,0
1,89,100,0
1,77,100,4
1,90,100,38
1,78,100,0
1,77,100,1502
1,89,100,2
1,78,100,1498
1,90,100,0
1,89,100,0
1,77,100,4
1,90,100,38
1,78,100,0
1,77,100,1502
1,89,100,2
1,78,100,1498
1,90,100,0
1,89,100,0
1,77,100,4
1,74,112,12288
1,66,101,0
1,57,98,0
1,69,100,0
1,78,95,0
1,61,104,0
1,68,93,0
1,76,116,0
1,59,127,0
1,74,112,10
1,66,101,0
1,57,98,0
1,69,100,0
1,78,95,0
1,61,104,0
1,68,93,0
1,76,116,0
1,59,127,0
1,74,112,10
1,66,101,0
1,57,98,0
1,69,100,0
1,78,95,0
1,61,104,0
1,68,93,0
1,76,116,0
1,59,127,0
1,66,104,10
1,74,87,0
1,57,98,0
1,76,127,0
1,68,113,0
1,59,113,0
1,69,120,0
1,78,119,0
1,61,123,0
1,90,100,38
1,78,100,0
1,77,100,1502
1,89,100,2
1,78,100,1498
1,90,100,0
1,89,100,0
1,77,100,4
1,90,100,38
1,78,100,0
1,77,100,1502
1,89,100,2
1,78,100,1498
1,90,100,0
1,89,100,0
1,77,100,4
1,90,100,38
1,78,100,0
1,77,100,1502
1,89,100,2
1,78,100,1498
1,90,100,0
1,89,100,0
1,77,100,4
1,90,100,38
1,78,100,0
1,77,100,1502
1,89,100,2
1,78,100,1498
1,90,100,0
1,89,100,0
1,77,100,4
1,74,112,0
1,66,101,0
1,57,98,0
1,69,100,0
1,78,95,0
1,61,104,0
1,68,93,0
1,76,116,0
1,59,127,0
1,74,112,10
1,66,101,0
1,57,98,0
1,69,100,0
1,78,95,0
1,61,104,0
1,68,93,0
1,76,116,0
1,59,127,0
1,74,112,10
1,66,101,0
1,57,98,0
1,69,100,0
1,78,95,0
1,61,104,0
1,68,93,0
1,76,116,0
1,59,127,0
1,66,104,10
1,74,87,0
1,57,98,0
1,76,127,0
1,68,113,0
1,59,113,0
1,69,120,0
1,78,119,0
1,61,123,0
1,90,100,38
1,78,100,0
1,77,100,1502
1,89,100,2
1,78,100,1498
1,90,100,0
1,89,100,0
1,77,100,4
1,90,100,38
1,78,100,0
1,77,100,1502
1,89,100,2
1,78,100,1498
1,90,100,0
1,89,100,0
1,77,100,4
1,90,100,38
1,78,100,0
1,77,100,1502
1,89,100,2
1,78,100,1498
1,90,100,0
1,89,100,0
1,77,100,4
1,90,100,38
1,78,100,0
1,77,100,1502
1,89,100,2
1,78,100,1498
1,90,100,0
1,89,100,0
1,77,100,4
1,90,100,38
1,78,100,0
1,77,100,1502
1,89,100,2
1,78,100,1498
1,90,100,0
1,89,100,0
1,77,100,4
1,90,100,38
1,78,100,0
1,77,100,1502
1,89,100,2
1,78,100,1498
1,90,100,0
1,89,100,0
1,77,100,4
1,90,100,38
1,78,100,0
1,77,100,1502
1,89,100,2
1,78,100,1498
1,90,100,0
1,89,100,0
1,77,100,4
1,90,100,38
1,78,100,0
1,77,100,1502
1,89,100,2
1,78,100,1498
1,90,100,0
1,89,100,0
1,77,100,4
1,90,100,38
1,78,100,0
1,77,100,1502
1,89,100,2
1,78,100,1498
1,90,100,0
1,89,100,0
1,77,100,4
1,90,100,38
1,78,100,0
1,77,100,1502
1,89,100,2
1,78,100,1498
1,90,100,0
2,18,123,18816
2,25,123,192
2,13,123,52
2,21,123,40
2,33,123,224
2,16,123,10
2,21,123,10
2,25,123,240
2,26,123,22
2,14,123,0
2,30,123,26
2,28,123,266
2,23,123,14
2,28,123,40
2,23,123,26
2,16,123,24
2,18,123,2
2,25,123,202
2,13,123,52
2,21,123,40
2,33,123,224
2,16,123,10
2,21,123,10
2,25,123,240
2,26,123,22
2,14,123,0
2,30,123,26
2,28,123,266
2,23,123,14
2,28,123,40
2,23,123,26
2,16,123,24
2,26,123,2
2,14,123,158
2,26,123,170
2,30,123,574
2,30,123,40
2,18,123,12
2,23,123,192
2,28,123,186
2,23,123,300
2,28,123,80
2,23,123,82
2,26,123,18
2,14,123,170
2,21,123,94
2,14,123,14
2,14,123,52
2,18,123,410
2,18,123,110
2,23,123,2
2,30,123,0
2,28,123,4
2,28,123,96
2,23,123,78
2,23,123,126
2,28,123,84
2,23,123,76
2,26,123,18
2,26,123,196
2,21,123,88
2,14,123,8
2,21,123,472
2,18,123,72
2,18,123,110
2,25,123,10
2,18,123,16
2,25,123,42
2,28,123,42
2,16,123,144
2,23,123,30
2,28,123,70
2,23,123,86
2,26,123,52
2,14,123,192
2,21,123,60
2,26,123,16
2,21,123,286
2,26,123,36
2,27,123,20
2,28,123,22
2,16,123,158
2,16,123,172
2,18,123,192
2,26,123,24754
2,14,123,158
2,26,123,170
2,30,123,574
2,30,123,40
2,18,123,12
2,23,123,192
2,28,123,186
2,23,123,300
2,28,123,80
2,23,123,82
2,26,123,18
2,14,123,170
2,21,123,94
2,14,123,14
2,14,123,52
2,18,123,410
2,18,123,110
2,23,123,2
2,30,123,0
2,28,123,4
2,28,123,96
2,23,123,78
2,23,123,126
2,28,123,84
2,23,123,76
2,26,123,18
2,26,123,196
2,21,123,88
2,14,123,8
2,21,123,472
2,18,123,72
2,18,123,110
2,25,123,10
2,18,123,16
2,25,123,42
2,28,123,42
2,16,123,144
2,23,123,30
2,28,123,70
2,23,123,86
2,26,123,52
2,14,123,192
2,21,123,60
2,26,123,16
2,21,123,286
2,26,123,36
2,27,123,20
2,28,123,22
2,16,123,158
2,16,123,172
2,17,123,192
3,30,123,18816
3,37,123,192
3,25,123,52
3,33,123,40
3,45,123,224
3,28,123,10
3,33,123,10
3,37,123,240
3,38,123,22
3,26,123,0
3,42,123,26
3,40,123,266
3,35,123,14
3,40,123,40
3,35,123,26
3,28,123,24
3,30,123,2
3,37,123,202
3,25,123,52
3,33,123,40
3,45,123,224
3,28,123,10
3,33,123,10
3,37,123,240
3,38,123,22
3,26,123,0
3,42,123,26
3,40,123,266
3,35,123,14
3,40,123,40
3,35,123,26
3,28,123,24
3,38,123,2
3,26,123,158
3,38,123,170
3,42,123,574
3,42,123,40
3,30,123,12
3,35,123,192
3,40,123,186
3,35,123,300
3,40,123,80
3,35,123,82
3,38,123,18
3,26,123,170
3,33,123,94
3,26,123,14
3,26,123,52
3,30,123,410
3,30,123,110
3,35,123,2
3,42,123,0
3,40,123,4
3,40,123,96
3,35,123,78
3,35,123,126
3,40,123,84
3,35,123,76
3,38,123,18
3,38,123,196
3,33,123,88
3,26,123,8
3,33,123,472
3,30,123,72
3,30,123,110
3,37,123,10
3,30,123,16
3,37,123,42
3,40,123,42
3,28,123,144
3,35,123,30
3,40,123,70
3,35,123,86
3,38,123,52
3,26,123,192
3,33,123,60
3,38,123,16
3,33,123,286
3,38,123,36
3,39,123,20
3,40,123,22
3,28,123,158
3,28,123,172
3,30,123,192
3,38,123,24754
3,26,123,158
3,38,123,170
3,42,123,574
3,42,123,40
3,30,123,12
3,35,123,192
3,40,123,186
3,35,123,300
3,40,123,80
3,35,123,82
3,38,123,18
3,26,123,170
3,33,123,94
3,26,123,14
3,26,123,52
3,30,123,410
3,30,123,110
3,35,123,2
3,42,123,0
3,40,123,4
3,40,123,96
3,35,123,78
3,35,123,126
3,40,123,84
3,35,123,76
3,38,123,18
3,38,123,196
3,33,123,88
3,26,123,8
3,33,123,472
3,30,123,72
3,30,123,110
3,37,123,10
3,30,123,16
3,37,123,42
3,40,123,42
3,28,123,144
3,35,123,30
3,40,123,70
3,35,123,86
3,38,123,52
3,26,123,192
3,33,123,60
3,38,123,16
3,33,123,286
3,38,123,36
3,39,123,20
3,40,123,22
3,28,123,158
3,28,123,172
3,29,123,192
4,73,127,758
4,73,127,94
4,73,127,86
4,78,127,148
4,77,127,182
4,77,127,76
4,77,114,80
4,77,122,84
4,80,127,126
4,78,127,160
4,78,127,72
4,78,127,88
4,78,127,94
4,81,127,154
4,80,127,188
4,73,127,6776
4,73,127,86
4,73,127,380
4,73,127,82
4,73,127,398
4,77,127,54
4,73,127,48
4,71,127,92
4,74,127,62
4,73,127,74
4,73,127,244
4,73,127,108
4,73,127,306
4,73,127,102
4,73,127,350
4,77,127,42
4,73,127,34
4,78,127,50
4,80,127,42
4,81,127,76
4,73,127,634
4,73,127,122
4,73,123,100
4,73,127,52
4,71,127,38
4,69,127,34
4,66,127,96
4,69,127,94
4,71,127,86
4,71,127,174
4,74,127,524
4,73,127,44
4,71,127,42
4,69,127,76
4,76,127,46
4,73,127,126
4,71,127,166
4,73,110,24
4,71,101,62
4,69,127,22
4,73,127,784
4,73,127,124
4,71,93,44
4,73,127,74
4,71,123,282
4,69,117,100
4,69,90,90
4,69,127,140
4,66,113,32
4,69,127,140
4,66,51,38
4,71,127,74
4,73,127,40
4,73,127,270
4,74,127,152
4,73,127,8
4,71,127,66
4,69,110,64
4,76,127,50
4,78,127,94
4,76,127,174
4,74,92,298
4,73,107,72
4,74,104,1300
4,74,127,132
4,74,127,88
4,74,127,102
4,73,123,184
4,71,127,0
4,69,127,6
4,69,127,126
4,71,127,20
4,73,127,12
4,71,127,118
4,73,127,2
4,69,122,724
4,69,127,126
4,66,127,18
4,69,120,34
4,71,127,128
4,69,117,132
4,76,127,104
4,73,127,162
4,69,127,18
4,74,104,1152
4,74,127,142
4,74,127,84
4,74,127,128
4,73,127,188
4,71,127,14
4,69,125,8
4,69,127,122
4,71,127,6
4,73,127,10
4,71,127,4
4,73,127,4
4,74,127,740
4,74,127,140
4,73,127,196
4,74,127,134
4,73,127,186
4,71,127,12
4,69,127,8
4,76,127,24
4,73,127,38
4,76,127,162
4,73,127,10
4,76,127,136
4,73,127,8
4,78,127,18
4,76,107,12
4,73,127,166
4,73,127,86
4,73,127,380
4,73,127,82
4,73,127,398
4,77,127,54
4,73,127,48
4,71,127,92
4,74,127,62
4,73,127,74
4,73,127,244
4,73,127,108
4,73,127,306
4,73,127,102
4,73,127,350
4,77,127,42
4,73,127,34
4,78,127,50
4,80,127,42
4,81,127,76
4,73,127,244
4,73,127,86
4,73,127,380
4,73,127,82
4,73,127,398
4,77,127,54
4,73,127,48
4,71,127,92
4,74,127,62
4,73,127,74
4,73,127,244
4,73,127,108
4,73,127,306
4,73,127,102
4,73,127,350
4,77,127,42
4,73,127,34
4,78,127,50
4,80,127,42
4,81,127,76
4,85,127,636
4,85,127,120
4,85,127,118
4,85,127,136
4,85,127,198
4,83,127,214
4,83,110,38
4,83,127,124
4,83,127,104
4,83,127,122
4,86,120,192
4,85,127,216
4,85,107,36
4,85,127,140
4,85,127,98
4,85,127,148
4,85,127,184
4,83,127,212
4,85,127,1326
4,85,127,120
4,85,127,118
4,85,127,136
4,85,127,198
4,83,127,214
4,83,110,38
4,83,127,124
4,83,127,104
4,83,127,122
4,86,120,192
4,85,127,216
4,85,107,36
4,85,127,140
4,85,127,98
4,85,127,148
4,85,127,184
4,89,127,212
4,74,104,1334
4,74,127,132
4,74,127,88
4,74,127,102
4,73,123,184
4,71,127,0
4,69,127,6
4,69,127,126
4,71,127,20
4,73,127,12
4,71,127,118
4,73,127,2
4,69,122,724
4,69,127,126
4,66,127,18
4,69,120,34
4,71,127,128
4,69,117,132
4,76,127,104
4,73,127,162
4,69,127,18
4,74,104,1152
4,74,127,142
4,74,127,84
4,74,127,128
4,73,127,188
4,71,127,14
4,69,125,8
4,69,127,122
4,71,127,6
4,73,127,10
4,71,127,4
4,73,127,4
4,74,127,740
4,74,127,140
4,73,127,196
4,74,127,134
4,73,127,186
4,71,127,12
4,69,127,8
4,76,127,24
4,73,127,38
4,76,127,162
4,73,127,10
4,76,127,136
4,73,127,8
4,78,127,18
4,76,107,12
4,73,127,166
4,73,127,86
4,73,127,380
4,73,127,82
4,73,127,398
4,77,127,54
4,73,127,48
4,71,127,92
4,74,127,62
4,73,127,74
4,73,127,244
4,73,127,108
4,73,127,306
4,73,127,102
4,73,127,350
4,77,127,42
4,73,127,34
4,78,127,50
4,80,127,42
4,81,127,76
4,73,127,244
4,73,127,86
4,73,127,380
4,73,127,82
4,73,127,398
4,77,127,54
4,73,127,48
4,71,127,92
4,74,127,62
4,73,127,74
4,73,127,244
4,73,127,108
4,73,127,306
4,73,127,102
4,73,127,350
4,77,127,42
4,73,127,34
4,78,127,50
4,80,127,42
4,81,127,76
4,85,127,636
4,85,127,120
4,85,127,118
4,85,127,136
4,85,127,198
4,83,127,214
4,83,110,38
4,83,127,124
4,83,127,104
4,83,127,122
4,86,120,192
4,85,127,216
4,85,107,36
4,85,127,140
4,85,127,98
4,85,127,148
4,85,127,184
4,83,127,212
4,85,127,1326
4,85,127,120
4,85,127,118
4,85,127,136
4,85,127,198
4,83,127,214
4,83,110,38
4,83,127,124
4,83,127,104
4,83,127,122
4,86,120,192
4,85,127,216
4,85,107,36
4,85,127,140
4,85,127,98
4,85,127,148
4,85,127,184
4,89,127,212
4,74,104,1334
4,74,127,132
4,74,127,88
4,74,127,102
4,73,123,184
4,71,127,0
4,69,127,6
4,69,127,126
4,71,127,20
4,73,127,12
4,71,127,118
4,73,127,2
4,69,122,724
4,69,127,126
4,66,127,18
4,69,120,34
4,71,127,128
4,69,117,132
4,76,127,104
4,73,127,162
4,69,127,18
4,74,104,1152
4,74,127,142
4,74,127,84
4,74,127,128
4,73,127,188
4,71,127,14
4,69,125,8
4,69,127,122
4,71,127,6
4,73,127,10
4,71,127,4
4,73,127,4
4,74,127,740
4,74,127,140
4,73,127,196
4,74,127,134
4,73,127,186
4,71,127,12
4,69,127,8
4,76,127,24
4,73,127,38
4,76,127,162
4,73,127,10
4,76,127,136
4,73,127,8
4,78,127,18
4,73,127,186
4,73,127,86
4,73,127,380
4,73,127,82
4,73,127,398
4,77,127,54
4,73,127,48
4,71,127,92
4,74,127,62
4,73,127,74
4,73,127,244
4,73,127,108
4,73,127,306
4,73,127,102
4,73,127,350
4,77,127,42
4,73,127,34
4,78,127,50
4,80,127,42
4,81,127,76
4,73,127,244
4,73,127,86
4,73,127,380
4,73,127,82
4,73,127,398
4,77,127,54
4,73,127,48
4,71,127,92
4,74,127,62
4,73,127,74
4,73,127,244
4,73,127,108
4,73,127,306
4,73,127,102
4,73,127,350
4,77,127,42
4,73,127,34
4,78,127,50
4,80,127,42
4,81,127,76
4,73,127,244
4,73,127,86
4,73,127,380
4,73,127,82
4,73,127,398
4,77,127,54
4,73,127,48
4,71,127,92
4,74,127,62
4,73,127,74
4,73,127,244
4,73,127,108
4,73,127,306
4,73,127,102
4,73,127,350
4,77,127,42
4,73,127,34
4,78,127,50
4,80,127,42
4,81,127,76
4,73,127,244
4,73,127,86
4,73,127,380
4,73,127,82
4,73,127,398
4,77,127,54
4,73,127,48
4,71,127,92
4,74,127,62
4,73,127,74
4,73,127,244
4,73,127,108
4,73,127,306
4,73,127,102
4,73,127,350
4,77,127,42
4,73,127,34
4,78,127,50
4,80,127,42
4,81,127,76
4,73,127,244
4,73,127,86
4,73,127,380
4,73,127,82
4,73,127,398
4,77,127,54
4,73,127,48
4,71,127,92
4,74,127,62
4,73,127,74
4,73,127,244
4,73,127,108
4,73,127,306
4,73,127,102
4,73,127,350
4,77,127,42
4,73,127,34
4,78,127,50
4,80,127,42
4,81,127,76
4,73,127,244
4,73,127,86
4,73,127,380
4,73,127,82
4,73,127,398
4,77,127,54
4,73,127,48
4,71,127,92
4,74,127,62
4,73,127,74
4,73,127,244
4,73,127,108
4,73,127,306
4,73,127,102
4,73,127,350
4,77,127,42
4,73,127,34
4,78,127,50
4,80,127,42
4,81,127,76
5,61,123,384
5,66,123,0
5,57,123,0
5,59,123,0
5,62,123,0
5,65,123,0
5,56,123,0
5,61,123,0
5,66,123,0
5,57,123,0
5,59,123,0
5,62,123,0
5,65,123,0
5,56,123,0
5,61,123,0
5,57,123,0
5,66,123,0
5,61,123,0
5,56,123,0
5,65,123,0
5,61,123,2
5,57,123,0
5,66,123,0
5,61,123,0
5,56,123,0
5,65,123,0
5,61,123,2
5,57,123,0
5,66,123,0
