track,note,velocity,time
2,27,104,2386
2,27,94,0
2,27,108,1
2,27,98,0
2,29,124,1
2,29,96,0
2,41,111,1
2,38,89,0
2,36,114,1
2,36,92,48
2,36,104,1
2,36,108,0
2,31,127,1
2,31,98,48
2,29,123,1
2,29,96,0
2,26,97,6
2,24,120,2
2,31,94,0
2,36,123,1
2,36,105,0
2,31,120,1
2,31,95,0
2,29,111,1
2,36,105,1
2,41,120,1
2,34,126,0
2,34,103,24
2,33,117,0
2,33,105,24
2,31,127,0
2,31,108,24
2,29,127,0
2,29,99,24
2,39,113,0
2,39,111,24
2,38,120,0
2,38,103,24
2,39,115,0
2,27,111,0
2,29,123,0
2,41,127,0
2,34,127,0
2,34,103,24
2,33,127,0
2,33,108,24
2,31,126,0
2,31,104,24
2,29,127,0
2,38,109,0
2,39,127,0
2,39,105,24
2,38,127,0
2,34,83,0
2,27,121,0
2,27,108,24
2,29,126,25
2,41,127,0
2,31,127,25
2,31,114,24
2,31,103,48
2,31,100,1
2,31,89,0
2,39,102,1
2,39,97,0
2,39,108,1
2,39,99,0
2,31,96,1
2,31,84,0
2,31,91,1
2,31,92,0
2,34,123,1
2,34,96,0
2,34,113,1
2,38,107,0
2,36,114,0
2,36,100,48
2,36,124,1
2,36,92,0
2,31,127,1
2,31,95,0
2,31,115,1
2,29,111,0
2,27,104,1
2,27,94,0
2,27,108,1
2,27,98,0
2,29,124,1
2,29,96,0
2,41,111,1
2,38,89,0
2,36,114,1
2,36,92,48
2,36,104,1
2,36,108,0
2,31,127,1
2,31,98,48
2,29,123,1
2,29,96,0
2,26,97,6
2,24,120,2
2,31,94,0
2,36,123,1
2,36,105,0
2,31,120,1
2,31,95,0
2,29,111,1
2,36,105,1
2,41,120,1
2,34,126,0
2,34,103,24
2,33,117,0
2,33,105,24
2,31,127,0
2,31,108,24
2,29,127,0
2,29,99,24
2,39,113,0
2,39,111,24
2,38,120,0
2,38,103,24
2,39,115,0
2,27,111,0
2,29,123,0
2,41,127,0
2,34,127,0
2,34,103,24
2,33,127,0
2,33,108,24
2,31,126,0
2,31,104,24
2,29,127,0
2,38,109,0
2,39,127,0
2,39,105,24
2,38,127,0
2,34,83,0
2,27,121,0
2,27,108,24
2,29,126,25
2,41,127,0
2,31,127,23
2,24,127,24
2,31,95,24
2,36,127,0
2,36,115,24
2,31,127,0
2,38,96,0
2,43,114,0
2,38,99,0
2,31,107,1
2,34,127,0
2,46,103,0
2,45,127,0
2,33,98,0
2,43,127,0
2,43,95,24
2,31,127,0
2,31,122,48
2,26,117,0
2,26,113,24
2,26,122,25
2,33,76,0
2,38,114,0
2,38,100,24
2,38,109,25
2,45,108,0
2,36,112,0
2,36,97,24
2,36,127,25
2,36,107,24
2,31,123,0
2,31,111,24
2,29,117,0
2,36,98,0
2,41,109,1
2,29,107,0
2,34,126,25
2,34,103,24
2,33,117,0
2,33,105,24
2,31,127,0
2,31,108,24
2,29,127,0
2,29,99,24
2,39,113,0
2,39,111,24
2,38,120,0
2,38,103,24
2,39,115,0
2,27,111,0
2,29,123,0
2,41,127,0
2,34,127,0
2,34,103,24
2,33,127,0
2,33,108,24
2,31,126,0
2,31,104,24
2,29,127,0
2,38,109,0
2,39,127,0
2,39,105,24
2,38,127,0
2,34,83,0
2,27,121,0
2,27,108,24
2,29,126,25
2,41,127,0
2,31,127,23
3,77,70,650
3,75,76,234
3,74,82,43
3,72,83,49
3,70,91,39
3,69,108,1
3,65,93,3
3,62,94,0
3,63,106,48
3,60,127,0
3,62,122,45
3,58,127,0
3,60,127,1
3,62,127,50
3,63,119,1
3,53,81,1
3,60,97,1
3,65,85,4
3,41,95,183
3,51,91,477
3,60,91,0
3,50,107,377
3,58,99,0
3,48,116,184
3,57,104,0
3,51,111,1
3,63,120,1
3,55,92,191
3,67,86,0
3,67,103,38
3,70,96,0
3,53,117,2
3,57,111,0
3,65,115,0
3,65,105,14
3,67,110,1
3,69,127,5
3,70,102,7
3,72,123,2
3,77,127,16
3,70,127,23
3,82,115,0
3,69,117,183
3,81,116,0
3,70,118,192
3,82,112,0
3,65,107,187
3,77,88,1
3,67,112,74
3,79,112,1
3,63,97,1
3,62,106,27
3,65,111,0
3,77,115,2
3,58,122,65
3,70,127,0
3,60,127,83
3,69,127,0
3,77,104,111
3,79,110,7
3,81,121,7
3,70,127,1
3,82,126,3
3,69,122,25
3,72,114,1
3,81,121,0
3,67,104,58
3,82,99,1
3,74,90,1
3,65,104,25
3,77,113,1
3,63,109,104
3,70,112,1
3,79,113,0
3,62,105,105
3,70,104,1
3,77,115,1
3,63,93,104
3,65,94,0
3,70,99,0
3,57,105,95
3,69,102,1
3,51,91,3494
3,60,91,0
3,50,107,377
3,58,99,0
3,48,116,184
3,57,104,0
3,51,111,1
3,63,120,1
3,55,92,191
3,67,86,0
3,67,103,38
3,70,96,0
3,53,117,2
3,57,111,0
3,65,115,0
3,65,105,14
3,67,110,1
3,69,127,5
3,70,102,7
3,72,123,2
3,77,127,16
3,70,127,23
3,82,115,0
3,69,117,183
3,81,116,0
3,70,118,192
3,82,112,0
3,65,107,187
3,77,88,1
3,67,112,74
3,79,112,1
3,63,97,1
3,62,106,27
3,65,111,0
3,77,115,2
3,58,122,65
3,70,127,0
3,60,127,83
3,69,127,0
3,77,104,111
3,79,110,7
3,81,121,7
3,70,127,1
3,82,126,3
3,69,122,25
3,72,114,1
3,81,121,0
3,67,104,58
3,82,99,1
3,74,90,1
3,65,104,25
3,77,113,1
3,63,109,104
3,70,112,1
3,79,113,0
3,62,105,105
3,70,104,1
3,77,115,1
3,63,93,104
3,65,94,0
3,70,99,0
3,57,105,95
3,69,102,1
3,55,109,422
3,60,88,0
3,63,115,0
3,55,120,3
3,58,116,0
3,62,115,0
3,53,122,1
3,58,127,0
3,62,127,0
3,57,120,145
3,60,127,0
3,65,123,0
3,55,125,12
3,58,125,0
3,62,122,0
3,55,126,2
3,57,127,0
3,62,126,0
3,54,127,48
3,48,107,288
3,55,122,0
3,60,123,0
3,63,127,0
3,43,111,1
3,50,115,0
3,55,122,0
3,58,117,0
3,62,110,0
3,41,127,5
3,48,126,0
3,53,127,0
3,57,119,0
3,60,124,0
3,70,127,0
3,82,115,0
3,69,117,183
3,81,116,0
3,70,118,192
3,82,112,0
3,65,107,187
3,77,88,1
3,67,112,74
3,79,112,1
3,63,97,1
3,62,106,27
3,65,111,0
3,77,115,2
3,58,122,65
3,70,127,0
3,60,127,83
3,69,127,0
3,77,104,111
3,79,110,7
3,81,121,7
3,70,127,1
3,82,126,3
3,69,122,25
3,72,114,1
3,81,121,0
3,67,104,58
3,82,99,1
3,74,90,1
3,65,104,25
3,77,113,1
3,63,109,104
3,70,112,1
3,79,113,0
3,62,105,105
3,70,104,1
3,77,115,1
3,63,93,104
3,65,94,0
3,70,99,0
3,57,105,95
3,69,102,1
3,43,102,38
3,50,81,0
3,55,94,0
3,58,86,0
3,62,80,0
4,43,1,356
4,55,97,1187
4,57,102,1
4,58,104,1
4,55,97,19
4,57,106,1
4,58,114,1
4,57,104,0
4,55,104,0
4,53,119,0
4,53,97,25
4,51,75,0
4,55,109,157
4,57,105,1
4,58,103,1
4,55,94,0
4,57,104,1
4,58,109,1
4,60,108,0
4,62,114,25
4,63,120,1
4,63,106,1
4,62,90,0
4,62,127,61
4,63,119,1
4,65,109,1
4,63,119,1
4,62,111,0
4,62,107,25
4,60,104,0
4,55,89,52
4,62,112,1
4,60,99,0
4,60,96,25
4,58,87,0
4,58,100,1
4,57,93,0
4,57,108,1
4,55,111,0
4,55,99,2
4,55,101,1
4,53,97,0
4,65,114,0
4,63,120,0
4,62,105,0
4,60,107,0
4,63,114,0
4,60,112,32
4,62,102,1
4,63,113,1
4,62,117,3
4,60,108,0
4,60,106,25
4,58,105,0
4,58,109,1
4,57,99,0
4,57,96,1
4,55,90,0
4,53,117,24
4,53,112,1
4,62,127,1
4,62,127,24
4,60,112,0
4,60,127,25
4,58,119,0
4,65,127,1
4,65,92,0
4,65,116,1
4,63,110,0
4,62,93,1
4,60,91,0
4,58,99,0
4,65,113,1
4,65,103,25
4,65,111,1
4,63,113,0
4,62,92,1
4,60,101,0
4,58,100,0
4,65,115,1
4,65,110,25
4,65,122,1
4,63,108,0
4,62,105,1
4,60,102,0
4,58,109,0
4,60,99,0
4,62,108,0
4,63,110,0
4,60,95,1
4,62,117,2
4,62,120,1
4,65,124,3
4,65,103,25
4,65,117,1
4,63,109,0
4,62,99,1
4,60,100,0
4,58,82,0
4,65,120,48
4,65,116,25
4,65,115,1
4,63,112,0
4,62,105,1
4,60,100,49
4,58,106,4
4,65,123,0
4,65,107,25
4,65,113,2
4,63,101,0
4,62,95,1
4,60,108,0
4,58,102,0
4,60,108,0
4,62,111,0
4,63,95,0
4,60,111,0
4,58,96,24
4,58,86,1
4,55,103,168
4,57,103,1
4,58,114,1
4,55,110,24
4,57,105,1
4,58,117,1
4,57,105,25
4,55,113,0
4,53,106,0
4,53,103,1
4,51,88,25
4,55,127,120
4,57,125,1
4,58,106,1
4,55,117,24
4,57,117,1
4,58,120,1
4,60,108,25
4,62,119,2
4,63,116,25
4,63,111,1
4,62,102,0
4,62,127,48
4,63,127,1
4,65,127,1
4,62,124,1
4,63,127,1
4,62,110,0
4,60,103,1
4,63,123,1
4,62,127,0
4,60,122,0
4,62,127,1
4,58,83,0
4,58,127,0
4,57,127,25
4,58,127,1
4,55,127,1
4,53,90,1
4,55,70,1
4,55,109,144
4,55,108,1
4,53,116,1
4,53,116,24
4,65,124,1
4,63,120,0
4,62,102,0
4,60,108,1
4,63,114,25
4,60,114,216
4,62,122,1
4,60,110,0
4,60,119,1
4,58,109,0
4,58,113,1
4,57,110,0
4,57,106,25
4,55,108,0
4,55,110,1
4,53,115,24
4,53,114,1
4,62,120,1
4,62,126,24
4,65,127,0
4,65,127,1
4,63,125,0
4,62,122,1
4,60,108,0
4,58,96,0
4,65,127,1
4,65,92,0
4,65,116,1
4,63,110,0
4,62,93,1
4,60,91,0
4,58,99,0
4,65,113,1
4,65,103,25
4,65,111,1
4,63,113,0
4,62,92,1
4,60,101,0
4,58,100,0
4,65,115,1
4,65,110,25
4,65,122,1
4,63,108,0
4,62,105,1
4,60,102,0
4,58,109,0
4,60,99,0
4,62,108,0
4,63,110,0
4,60,95,1
4,62,117,2
4,62,120,1
4,65,124,3
4,65,103,25
4,65,117,1
4,63,109,0
4,62,99,1
4,60,100,0
4,58,82,0
4,65,120,48
4,65,116,25
4,65,115,1
4,63,112,0
4,62,105,1
4,60,100,49
4,58,106,4
4,65,123,0
4,65,107,25
4,65,113,2
4,63,101,0
4,62,95,1
4,60,108,0
4,58,102,0
4,60,108,0
4,62,111,0
4,63,95,0
4,60,111,0
4,58,96,24
4,58,86,1
4,62,107,196
4,63,120,3
4,63,118,16
4,63,127,23
4,62,111,2
4,70,119,2
4,67,102,11
4,65,102,13
4,63,119,5
4,62,127,5
4,60,123,5
4,62,127,10
4,60,114,6
4,62,100,7
4,58,118,51
4,65,127,11
4,63,123,5
4,62,115,8
4,60,127,2
4,62,127,1
4,62,107,12
4,65,126,2
4,58,99,6
4,62,127,207
4,60,124,22
4,62,127,4
4,62,107,13
4,60,111,2
4,62,101,6
4,65,127,2
4,62,111,0
4,63,102,6
4,62,94,4
4,60,76,7
4,55,116,8
4,55,119,10
4,62,127,1
4,62,121,19
4,65,127,7
4,65,127,2
4,63,112,0
4,62,104,7
4,60,100,7
4,58,100,5
4,65,127,1
4,65,92,0
4,65,116,1
4,63,110,0
4,62,93,1
4,60,91,0
4,58,99,0
4,65,113,1
4,65,103,25
4,65,111,1
4,63,113,0
4,62,92,1
4,60,101,0
4,58,100,0
4,65,115,1
4,65,110,25
4,65,122,1
4,63,108,0
4,62,105,1
4,60,102,0
4,58,109,0
4,60,99,0
4,62,108,0
4,63,110,0
4,60,95,1
4,62,117,2
4,62,120,1
4,65,124,3
4,65,103,25
4,65,117,1
4,63,109,0
4,62,99,1
4,60,100,0
4,58,82,0
4,65,120,48
4,65,116,25
4,65,115,1
4,63,112,0
4,62,105,1
4,60,100,49
4,58,106,4
4,65,123,0
4,65,107,25
4,65,113,2
4,63,101,0
4,62,95,1
4,60,108,0
4,58,102,0
4,60,108,0
4,62,111,0
4,63,95,0
4,60,111,0
4,58,96,24
4,58,86,1
5,62,119,3
5,70,125,1
5,70,124,11
5,62,114,1
5,62,123,12
5,70,127,1
5,67,127,1
5,65,127,3
5,63,127,3
5,62,127,13
5,62,127,1
5,65,127,0
5,70,127,0
5,62,118,12
5,70,124,1
5,62,122,15
5,70,127,0
5,67,127,12
5,62,115,1
5,62,120,11
5,65,127,0
5,62,127,13
5,67,127,4
5,70,120,12
5,63,123,1
5,63,119,14
5,70,120,0
5,62,124,15
5,70,127,0
5,69,123,7
5,62,110,11
5,67,119,0
5,65,123,16
5,62,117,2
5,63,127,3
5,65,123,38
5,67,127,4
5,70,127,3
5,69,127,0
5,60,127,30
5,62,125,16
5,70,127,1
5,62,127,4
5,70,127,1
5,70,127,8
5,62,127,1
5,70,127,16
5,67,127,6
5,65,127,3
5,62,127,9
5,58,124,0
5,62,126,1
5,70,119,0
5,70,120,14
5,62,123,1
5,70,127,0
5,62,126,1
5,67,127,9
5,65,127,6
5,62,127,9
5,63,127,1
5,63,123,1
5,67,127,1
5,63,122,18
5,67,127,0
5,65,127,18
5,63,126,3
5,62,116,6
5,58,117,2
5,63,126,1
5,65,120,6
5,67,119,6
5,63,112,1
5,65,119,2
5,62,95,2
5,58,100,1
5,62,119,3
5,70,125,1
5,70,124,11
5,62,114,1
5,62,123,12
5,70,127,1
5,67,127,1
5,65,127,3
5,63,127,3
5,62,127,13
5,62,127,1
5,65,127,0
5,70,127,0
5,62,118,12
5,70,124,1
5,62,122,15
5,70,127,0
5,67,127,12
5,62,115,1
5,62,120,11
5,65,127,0
5,62,127,13
5,67,127,4
5,70,120,12
5,63,123,1
5,63,119,14
5,70,120,0
5,62,124,15
5,70,127,0
5,69,123,7
5,62,110,11
5,67,119,0
5,65,123,16
5,62,117,2
5,63,127,3
5,65,123,38
5,67,127,4
5,70,127,3
5,69,127,0
5,60,127,30
5,62,125,16
5,70,127,1
5,62,127,4
5,70,127,1
5,70,127,8
5,62,127,1
5,70,127,16
5,67,127,6
5,65,127,3
5,62,127,9
5,58,124,0
5,62,126,1
5,70,119,0
5,70,120,14
5,62,123,1
5,70,127,0
5,62,126,1
5,67,127,9
5,65,127,6
5,62,127,9
5,63,127,1
5,63,123,1
5,67,127,1
5,63,122,18
5,67,127,0
5,65,127,18
5,63,126,3
5,62,116,6
5,58,117,2
5,63,126,1
5,65,120,6
5,67,119,6
5,63,112,1
5,65,119,2
5,62,95,2
5,58,100,1
6,46,127,626
6,58,83,18
6,53,104,1
6,65,127,0
6,58,99,0
6,45,109,0
6,53,103,18
6,65,106,1
6,53,92,0
6,43,116,0
6,55,97,22
6,58,98,0
6,65,123,1
6,58,99,0
6,41,109,1
6,53,108,0
6,58,87,1
6,50,105,1
6,65,113,0
6,58,99,0
6,51,127,1
6,55,102,21
6,58,104,0
6,63,127,1
6,58,94,0
6,50,127,0
6,53,83,4
6,65,127,1
6,58,89,0
6,51,127,1
6,55,99,0
6,58,104,0
6,65,123,1
6,58,92,0
6,53,127,1
6,58,86,0
6,60,92,48
6,65,91,0
6,57,87,1
6,50,117,0
6,55,126,0
6,58,95,48
6,67,123,1
6,62,93,0
6,55,126,0
6,58,97,48
6,67,118,0
6,62,106,1
6,51,127,1
6,55,98,24
6,63,126,1
6,58,106,0
6,51,112,0
6,55,90,48
6,63,122,1
6,58,106,0
6,55,127,1
6,58,91,20
6,67,127,1
6,62,93,0
6,55,126,0
6,58,85,48
6,67,122,1
6,62,110,0
6,46,127,1
6,53,101,41
6,62,123,1
6,53,89,1
6,60,115,1
6,53,84,1
6,62,120,1
6,53,99,0
6,48,127,1
