track,note,velocity,time
0,48,87,2320
0,53,93,40
0,57,101,48
0,72,50,36
0,69,50,0
0,65,50,0
0,84,58,0
0,77,111,4
0,60,116,16
0,77,0,176
0,67,102,0
0,60,127,0
0,65,127,192
0,67,0,192
0,72,92,0
0,60,0,76
0,65,0,192
0,72,0,116
0,48,0,260
0,53,0,12
0,57,0,12
0,60,0,4
0,52,87,160
0,55,93,40
0,60,101,48
0,65,0,36
0,69,0,0
0,67,50,0
0,64,50,0
0,76,114,4
0,64,116,16
0,76,0,176
0,67,106,0
0,60,127,0
0,64,127,192
0,67,0,192
0,72,90,0
0,60,0,76
0,64,0,192
0,72,0,116
0,52,0,260
0,55,0,12
0,60,0,12
0,64,0,4
0,52,87,160
0,57,93,40
0,60,101,48
0,67,0,36
0,69,50,0
0,76,114,4
0,57,127,0
0,64,116,16
0,76,0,176
0,67,106,0
0,60,127,0
0,64,127,192
0,57,0,76
0,67,0,116
0,72,99,0
0,60,0,76
0,64,0,192
0,72,0,116
0,115,48,80
0,113,52,4
0,113,0,92
0,55,95,0
0,112,44,48
0,113,17,16
0,52,0,4
0,57,0,12
0,60,0,12
0,64,0,4
0,112,0,0
0,55,0,24
0,115,0,4
0,113,0,4
0,112,29,32
0,113,24,4
0,110,52,8
0,60,95,0
0,110,0,12
0,115,63,12
0,112,0,24
0,50,87,16
0,115,0,0
0,113,0,4
0,113,33,24
0,112,11,4
0,110,38,4
0,55,93,4
0,113,0,12
0,113,38,28
0,59,101,8
0,110,0,8
0,112,0,16
0,113,0,8
0,69,0,4
0,67,50,0
0,74,114,4
0,62,116,16
0,110,39,4
0,112,15,8
0,108,62,4
0,108,0,48
0,60,0,48
0,112,0,0
0,108,41,20
0,107,57,20
0,107,0,16
0,62,92,0
0,59,127,0
0,108,0,16
0,112,39,0
0,112,0,32
0,110,0,8
0,108,14,28
0,107,55,8
0,62,0,12
0,110,12,0
0,107,0,24
0,108,0,24
0,76,53,0
0,88,61,0
0,64,94,0
0,62,127,0
0,107,39,0
0,108,39,4
0,105,55,8
0,110,43,0
0,107,0,4
0,105,56,48
0,107,17,4
0,108,29,0
0,64,0,8
0,108,0,12
0,88,0,12
0,76,0,0
0,74,53,0
0,86,61,0
0,62,91,0
0,108,41,4
0,105,0,8
0,107,0,24
0,110,36,0
0,110,0,12
0,108,0,0
0,59,0,28
0,105,46,8
0,107,44,12
0,103,66,8
0,103,0,24
0,105,0,28
0,108,44,0
0,108,0,20
0,107,0,4
0,103,50,44
0,105,41,4
0,62,0,40
0,107,48,8
0,103,0,8
0,107,0,20
0,105,0,16
0,62,0,24
0,103,33,4
0,101,61,8
0,105,38,4
0,86,0,20
0,74,0,0
0,72,53,0
0,84,61,0
0,60,92,0
0,101,0,16
0,103,0,32
0,105,0,8
0,101,56,48
0,103,20,0
0,105,31,16
0,101,0,32
0,103,0,24
0,105,0,4
0,103,35,40
0,101,61,12
0,105,35,8
0,50,0,20
0,55,0,12
0,101,0,4
0,59,0,8
0,62,0,4
0,103,0,20
0,105,0,24
0,103,31,4
0,105,38,20
0,28,122,28
0,40,122,0
0,103,0,24
0,107,31,4
0,107,0,12
0,48,87,24
0,103,50,20
0,107,43,12
0,53,93,8
0,103,0,40
0,57,101,8
0,105,0,20
0,84,0,16
0,67,0,0
0,64,0,0
0,72,0,0
0,72,50,0
0,69,50,0
0,65,50,0
0,84,58,0
0,40,0,4
0,28,0,0
0,29,127,0
0,41,127,0
0,72,65,0
0,57,85,0
0,60,85,0
0,57,85,0
0,107,0,12
0,60,116,4
0,105,25,0
0,107,45,12
0,103,63,0
0,103,0,36
0,105,0,24
0,105,55,56
0,108,44,8
0,108,0,24
0,67,114,16
0,60,127,0
0,105,0,8
0,105,48,72
0,108,34,8
0,105,0,40
0,108,0,32
0,107,0,0
0,65,127,32
0,107,27,16
0,105,57,0
0,108,44,4
0,105,0,44
0,107,0,16
0,108,0,20
0,107,52,32
0,108,41,12
0,110,33,4
0,110,0,12
0,105,32,0
0,105,0,12
0,65,126,12
0,67,0,8
0,72,108,0
0,110,43,4
0,107,0,4
0,110,0,12
0,108,0,8
0,108,39,36
0,110,48,8
0,60,0,4
0,107,50,4
0,107,0,36
0,108,0,28
0,65,0,8
0,65,127,36
0,108,54,4
0,60,0,12
0,112,28,0
0,112,0,28
0,108,0,8
0,110,0,20
0,65,0,8
0,110,44,44
0,112,50,12
0,108,39,8
0,108,0,24
0,72,0,28
0,65,0,0
0,64,125,0
0,110,0,0
0,112,0,8
0,110,46,48
0,112,48,8
0,108,39,12
0,108,0,20
0,110,0,28
0,112,0,20
0,112,29,36
0,113,44,8
0,64,0,8
0,62,126,4
0,110,41,0
0,110,0,24
0,113,0,32
0,112,0,0
0,48,0,4
0,53,0,12
0,57,0,12
0,60,0,4
0,112,37,24
0,113,43,0
0,115,24,4
0,112,0,52
0,62,0,8
0,62,127,0
0,115,0,4
0,113,0,0
0,41,0,4
0,29,0,0
0,115,52,44
0,113,26,4
0,52,87,8
0,55,93,40
0,113,0,8
0,115,0,4
0,60,101,36
0,115,48,4
0,113,34,4
0,36,40,24
0,65,0,4
0,69,0,0
0,67,50,0
0,64,50,0
0,57,0,4
0,57,0,0
0,55,85,0
0,64,116,16
0,113,0,12
0,115,0,4
0,115,46,52
0,115,0,60
0,115,33,40
0,67,114,8
0,62,127,0
0,115,0,48
0,115,31,64
0,115,0,32
0,67,127,48
0,67,0,192
0,72,108,0
0,60,127,0
0,62,0,28
0,62,0,48
0,64,126,4
0,67,0,84
0,65,126,100
0,72,0,16
0,64,0,0
0,60,0,76
0,67,125,112
0,65,0,12
0,52,0,60
0,55,0,12
0,60,0,12
0,64,0,4
0,67,0,72
0,60,126,16
0,52,87,72
0,57,93,40
0,60,101,48
0,36,0,32
0,33,40,0
0,67,0,4
0,69,50,0
0,55,0,4
0,57,85,0
0,64,116,16
0,67,114,176
0,62,127,0
0,67,127,192
0,60,0,116
0,67,0,76
0,72,106,0
0,60,127,0
0,62,0,76
0,67,0,192
0,72,0,116
0,60,0,76
0,57,126,104
0,52,0,80
0,57,0,12
0,60,0,12
0,64,0,4
0,57,0,96
0,60,126,0
0,50,87,64
0,55,93,40
0,59,101,48
0,33,0,32
0,31,40,0
0,69,0,4
0,67,50,0
0,57,60,4
0,57,0,0
0,57,0,0
0,60,0,0
0,59,85,0
0,55,85,0
0,62,116,16
0,46,18,16
0,46,0,0
0,46,22,32
0,46,0,0
0,46,22,32
0,46,0,0
0,46,25,32
0,46,0,0
0,46,28,32
0,46,0,0
0,46,28,0
0,46,0,0
0,60,0,20
0,62,126,0
0,46,29,12
0,46,0,0
0,46,33,32
0,46,0,0
0,46,36,32
0,46,0,0
0,46,36,32
0,46,0,0
0,46,36,32
0,46,0,0
0,46,37,32
0,46,0,0
0,62,127,20
0,84,0,8
0,72,0,0
0,76,53,0
0,88,61,0
0,46,39,4
0,46,0,0
0,62,0,20
0,46,40,12
0,46,0,0
0,46,42,12
0,46,0,0
0,46,45,32
0,46,0,0
0,46,46,32
0,46,0,0
0,46,50,32
0,46,0,0
0,46,50,0
0,46,0,0
0,74,53,0
0,86,61,0
0,62,126,0
0,46,50,4
0,46,0,0
0,62,0,16
0,46,51,16
0,46,0,0
0,46,52,32
0,46,0,0
0,46,55,32
0,46,0,0
0,46,56,32
0,46,0,0
0,46,58,32
0,46,0,0
0,46,61,32
0,46,0,0
0,72,0,0
0,46,62,32
0,46,0,0
0,46,63,32
0,46,0,0
0,46,64,32
0,46,0,0
0,46,64,32
0,46,0,0
0,46,67,32
0,46,0,0
0,46,67,0
0,46,0,0
0,60,125,16
0,86,0,12
0,74,0,0
0,72,53,0
0,84,61,0
0,46,68,4
0,46,0,0
0,62,0,16
0,46,68,16
0,46,0,0
0,46,70,32
0,46,0,0
0,46,72,32
0,46,0,0
0,46,75,32
0,46,0,0
0,60,89,0
0,38,108,0
0,38,0,0
0,44,1,0
0,44,0,0
0,39,90,0
0,39,0,0
0,50,0,68
0,55,0,12
0,59,0,12
0,62,0,4
0,60,0,48
0,62,91,0
0,62,0,116
0,60,0,12
0,33,117,0
0,64,95,0
0,52,90,0
0,49,72,0
0,49,0,0
0,36,112,0
0,36,0,0
0,55,0,0
0,59,0,0
0,57,100,4
0,60,115,4
0,60,115,4
0,57,100,4
0,62,80,0
0,52,0,0
0,52,90,0
0,69,77,0
0,69,0,0
0,42,83,0
0,42,0,0
0,36,87,0
0,36,0,0
0,57,0,4
0,60,0,4
0,60,0,0
0,33,82,4
0,62,0,104
0,52,0,64
0,52,90,0
0,52,0,4
0,57,0,0
0,57,100,0
0,57,0,0
0,62,87,0
0,60,115,0
0,60,0,0
0,42,83,0
0,42,0,0
0,38,106,0
0,38,0,0
0,39,90,0
0,39,0,0
0,33,0,12
0,60,115,168
0,57,100,4
0,60,82,0
0,52,90,0
0,69,77,0
0,69,0,0
0,36,110,0
0,36,0,0
0,42,106,0
0,42,0,0
0,33,108,20
0,33,0,48
0,60,0,76
0,60,0,36
0,52,91,0
0,57,0,4
0,57,101,0
0,60,84,0
0,52,0,0
0,52,0,0
0,60,115,0
0,36,112,0
0,36,0,0
0,42,83,0
0,42,0,0
0,33,111,24
0,33,0,124
0,60,115,32
0,57,0,4
0,57,104,0
0,60,0,4
0,59,86,0
0,60,0,0
0,60,0,0
0,52,90,0
0,69,77,0
0,69,0,0
0,36,87,0
0,36,0,0
0,46,106,0
0,46,0,0
0,33,97,28
0,59,0,100
0,52,0,52
0,52,93,0
0,52,0,4
0,57,0,0
0,57,104,0
0,57,0,0
0,59,85,0
0,60,115,0
0,60,0,0
0,42,83,0
0,42,0,0
0,38,108,0
0,38,0,0
0,39,90,0
0,39,0,0
0,33,0,28
0,59,0,92
0,60,115,60
0,57,101,4
0,52,87,0
0,52,93,0
0,69,77,0
0,69,0,0
0,42,83,0
0,42,0,0
0,36,110,0
0,36,0,0
0,33,111,16
0,33,0,44
0,52,0,52
0,60,0,68
0,53,95,0
0,57,0,4
0,57,101,0
0,53,90,0
0,52,0,0
0,60,115,0
0,36,112,0
0,36,0,0
0,42,106,0
0,42,0,0
0,29,113,12
0,42,83,84
0,42,0,0
0,53,0,32
0,29,0,12
0,60,115,0
0,57,0,4
0,57,102,0
0,53,95,0
0,69,77,0
0,69,0,0
0,36,87,0
0,36,0,0
0,42,91,0
0,42,0,0
0,29,97,4
0,64,90,0
0,53,97,0
0,53,0,4
0,57,0,0
0,57,105,0
0,57,0,0
0,60,115,8
0,60,0,0
0,42,83,0
0,42,0,0
0,39,90,0
0,39,0,0
0,38,106,0
0,38,0,0
0,29,0,12
0,64,0,152
0,60,115,16
0,57,106,4
0,62,85,0
0,53,95,0
0,69,77,0
0,69,0,0
0,42,83,0
0,42,0,0
0,36,110,0
0,36,0,0
0,29,111,8
0,29,0,44
0,60,0,128
0,53,90,0
0,57,0,4
0,57,102,0
0,53,0,8
0,53,0,0
0,60,115,0
0,36,112,0
0,36,0,0
0,42,106,0
0,42,0,0
0,29,113,4
0,29,0,124
0,60,115,4
0,57,101,0
0,60,0,8
0,60,0,0
0,53,99,0
0,69,77,0
0,69,0,0
0,36,87,0
0,36,0,0
0,46,106,0
0,46,0,0
0,29,106,4
0,53,91,0
0,53,0,4
0,57,0,0
0,57,105,0
0,57,0,0
0,60,115,8
0,60,0,0
0,38,108,0
0,38,0,0
0,39,90,0
0,39,0,0
0,42,83,0
0,42,0,0
0,29,0,8
0,64,127,4
0,60,115,8
0,29,111,4
0,57,103,0
0,59,81,0
0,53,93,0
0,36,110,0
0,36,0,0
0,69,77,0
0,69,0,0
0,42,106,0
0,42,0,0
0,62,0,28
0,29,0,16
0,59,0,88
0,60,0,48
0,55,95,0
0,31,117,4
0,57,0,0
0,59,100,0
0,62,89,0
0,59,81,0
0,53,0,0
0,62,115,0
0,36,112,0
0,36,0,0
0,42,106,0
0,42,0,0
0,42,83,96
0,42,0,0
0,62,0,28
0,59,0,8
0,31,0,4
0,55,0,44
0,62,115,0
0,59,0,4
0,59,101,0
0,59,79,0
0,62,85,0
0,62,0,0
0,62,0,0
0,55,93,0
0,36,87,0
0,36,0,0
0,42,91,0
0,42,0,0
0,69,77,0
0,69,0,0
0,31,105,8
0,62,0,32
0,59,0,12
0,55,0,128
0,55,93,0
0,55,0,4
0,59,0,0
0,59,103,0
0,59,0,0
0,62,84,0
0,59,80,0
0,62,115,0
0,62,0,0
0,39,90,0
0,39,0,0
0,38,106,0
0,38,0,0
0,42,83,0
0,42,0,0
0,31,0,8
0,59,0,80
0,62,0,0
0,62,115,92
0,59,101,4
0,31,100,0
0,62,87,0
0,59,80,0
0,55,91,0
0,42,83,0
0,42,0,0
0,69,77,0
0,69,0,0
0,36,110,0
0,36,0,0
0,31,0,44
0,62,0,136
0,55,92,0
0,59,0,4
0,59,103,0
0,31,117,4
0,55,0,4
0,55,0,0
0,62,115,0
0,36,112,0
0,36,0,0
0,42,106,0
0,42,0,0
0,59,0,100
0,31,0,20
0,62,115,60
0,59,0,4
0,59,101,0
0,60,80,0
0,64,85,0
0,62,0,0
0,62,0,0
0,55,92,0
0,46,106,0
0,46,0,0
0,36,87,0
0,36,0,0
0,69,77,0
0,69,0,0
0,31,111,4
0,62,0,20
0,64,0,116
0,60,0,40
0,55,0,0
0,55,92,0
0,55,0,4
0,59,0,0
0,59,102,0
0,59,0,0
0,65,81,0
0,62,82,0
0,62,115,0
0,62,0,0
0,39,90,0
0,39,0,0
0,38,108,0
0,38,0,0
0,42,83,0
0,42,0,0
0,31,0,4
0,62,0,32
0,65,0,28
0,62,115,4
0,59,101,4
0,62,87,0
0,65,85,0
0,55,89,0
0,69,77,0
0,69,0,0
0,36,110,0
0,36,0,0
0,42,106,0
0,42,0,0
0,31,117,8
0,31,0,52
0,55,93,0
0,59,0,4
0,60,102,0
0,55,0,8
0,64,115,0
0,36,112,0
0,36,0,0
0,42,106,0
0,42,0,0
0,36,121,16
0,42,83,80
0,42,0,0
0,36,0,44
0,62,0,20
0,65,0,20
0,55,0,0
0,64,115,0
0,60,0,4
0,60,101,0
0,60,79,8
0,64,83,0
0,64,0,0
0,64,0,0
0,55,98,0
0,69,77,0
0,69,0,0
0,36,87,0
0,36,0,0
0,42,91,0
0,42,0,0
0,36,100,16
0,55,0,164
0,55,88,0
0,55,0,4
0,60,0,0
0,60,107,0
0,60,0,0
0,64,115,8
0,64,0,0
0,42,83,0
0,42,0,0
0,39,90,0
0,39,0,0
0,38,106,0
0,38,0,0
0,36,0,16
0,64,115,0
0,60,104,0
0,36,111,8
0,55,94,0
0,69,77,0
0,69,0,0
0,42,83,0
0,42,0,0
0,36,110,0
0,36,0,0
0,55,90,0
0,59,102,0
0,35,119,4
0,55,0,4
0,55,0,0
0,62,115,0
0,36,112,0
0,36,0,0
0,42,106,0
0,42,0,0
0,62,115,52
0,59,0,4
0,59,104,0
0,35,108,8
0,62,0,0
0,62,0,0
0,55,91,0
0,36,87,0
0,36,0,0
0,69,77,0
0,69,0,0
0,46,106,0
0,46,0,0
0,55,0,180
0,55,90,0
0,55,0,4
0,59,0,0
0,59,100,0
0,59,0,0
0,60,89,0
0,62,115,0
0,62,0,0
0,42,83,0
0,42,0,0
0,39,90,0
0,39,0,0
0,38,108,0
0,38,0,0
0,60,0,164
0,62,113,16
0,35,111,4
0,59,100,0
0,62,89,0
0,55,88,0
0,36,110,0
0,36,0,0
0,42,106,0
0,42,0,0
0,69,77,0
0,69,0,0
0,35,0,44
0,62,0,44
0,33,117,0
0,64,92,0
0,55,0,0
0,52,90,0
0,42,106,0
0,42,0,0
0,36,112,0
0,36,0,0
0,57,100,4
0,60,115,4
0,60,115,36
0,57,100,4
0,64,0,4
0,62,86,0
0,52,0,0
0,52,90,0
0,69,77,0
0,69,0,0
0,42,83,0
0,42,0,0
0,36,87,0
0,36,0,0
0,57,0,4
0,60,0,4
0,60,0,0
0,33,82,4
0,62,0,108
