track,note,velocity,time
1,45,70,0
1,52,66,124
1,57,66,120
1,61,66,120
1,46,70,590
1,45,0,4
1,52,0,4
1,57,0,0
1,61,0,0
1,55,66,122
1,61,66,120
1,64,66,120
1,46,0,588
1,55,0,10
1,61,0,0
1,64,0,0
1,47,72,2
1,54,66,120
1,54,0,118
1,57,68,2
1,57,0,118
1,59,66,2
1,59,0,238
1,57,66,2
1,57,0,118
1,69,66,2
1,52,66,236
1,47,0,2
1,69,0,0
1,59,65,122
1,59,0,118
1,64,65,2
1,64,0,108
1,66,66,12
1,66,0,118
1,68,66,2
1,68,0,358
1,69,77,2
1,69,0,58
1,71,77,2
1,52,0,54
1,71,0,4
1,73,77,2
1,45,66,0
1,61,77,0
1,73,0,118
1,52,59,2
1,73,77,0
1,61,0,18
1,73,0,80
1,52,0,20
1,57,65,2
1,73,77,0
1,57,0,118
1,73,0,0
1,61,60,2
1,73,77,0
1,71,77,60
1,73,0,18
1,69,77,42
1,71,0,18
1,69,0,220
1,73,77,122
1,45,0,118
1,61,0,0
1,73,0,0
1,46,66,2
1,73,77,0
1,55,62,120
1,74,76,0
1,73,0,18
1,55,0,100
1,61,60,2
1,73,77,0
1,74,0,18
1,61,0,100
1,64,62,2
1,76,77,0
1,73,0,18
1,76,0,340
1,66,77,126
1,46,0,46
1,64,0,68
1,47,66,2
1,71,77,0
1,66,0,6
1,71,0,112
1,54,56,2
1,71,77,0
1,54,0,116
1,71,0,0
1,59,59,4
1,71,77,0
1,59,0,112
1,71,0,6
1,71,77,2
1,62,60,0
1,71,0,238
1,73,77,2
1,73,0,118
1,74,76,0
1,74,0,118
1,66,72,4
1,47,0,88
1,47,70,14
1,62,0,16
1,61,66,122
1,66,0,28
1,61,0,90
1,62,66,2
1,62,0,118
1,69,66,2
1,69,0,118
1,62,68,2
1,47,0,118
1,57,65,2
1,57,0,118
1,54,65,2
1,62,0,118
1,66,75,2
1,54,0,88
1,52,70,22
1,71,77,10
1,66,0,8
1,71,0,110
1,59,60,2
1,71,77,0
1,71,0,118
1,71,77,2
1,64,64,0
1,71,0,118
1,64,0,0
1,71,77,2
1,68,55,0
1,59,0,238
1,59,65,2
1,71,0,118
1,68,0,0
1,66,77,2
1,66,0,118
1,64,78,2
1,52,0,78
1,59,0,40
1,64,0,0
1,52,70,2
1,71,77,0
1,71,0,118
1,59,55,2
1,71,77,0
1,71,0,118
1,71,77,2
1,64,55,0
1,64,0,90
1,71,0,28
1,74,79,2
1,68,55,0
1,59,0,238
1,74,0,0
1,68,0,0
1,74,77,2
1,59,64,0
1,74,0,118
1,59,0,0
1,74,77,2
1,64,55,0
1,74,0,118
1,64,0,0
1,74,77,2
1,59,64,0
1,74,0,58
1,74,77,2
1,45,70,52
1,52,0,6
1,59,0,0
1,74,0,120
1,73,81,2
1,52,59,0
1,52,0,118
1,57,64,2
1,73,0,118
1,57,0,0
1,73,77,2
1,61,65,0
1,73,0,118
1,73,77,2
1,73,0,158
1,73,77,2
1,73,0,158
1,73,77,2
1,45,0,150
1,61,0,8
1,73,0,0
1,45,70,2
1,73,77,0
1,71,77,52
1,73,0,6
1,71,0,52
1,69,76,10
1,52,55,0
1,52,0,118
1,57,64,2
1,57,0,118
1,61,59,4
1,69,0,116
1,69,66,2
1,69,0,118
1,76,71,2
1,45,0,118
1,76,0,0
1,61,0,2
1,40,70,0
1,71,77,0
1,71,0,58
1,69,77,2
1,69,0,58
1,69,77,2
1,40,0,88
1,69,0,30
1,45,70,2
1,73,77,0
1,73,0,118
1,52,58,2
1,73,77,0
1,52,0,118
1,73,0,0
1,57,57,2
1,73,77,0
1,57,0,118
1,73,0,0
1,73,77,2
1,61,60,0
1,73,0,58
1,71,77,2
1,71,0,58
1,69,77,2
1,61,0,238
1,69,0,0
1,64,60,2
1,64,0,82
1,64,77,38
1,45,0,48
1,64,0,10
1,64,77,2
1,64,0,58
1,46,70,2
1,73,77,0
1,73,0,118
1,55,57,2
1,74,77,0
1,74,0,114
1,55,0,4
1,61,65,2
1,73,76,0
1,61,0,118
1,73,0,0
1,76,77,2
1,64,60,0
1,64,0,358
1,64,64,2
1,76,0,118
1,66,77,2
1,46,0,88
1,47,70,28
1,64,0,2
1,66,0,0
1,71,77,2
1,66,55,0
1,62,55,0
1,71,0,118
1,66,0,0
1,62,0,0
1,54,64,2
1,71,77,0
1,54,0,118
1,71,0,0
1,71,76,2
1,57,60,0
1,71,0,118
1,57,0,0
1,71,77,2
1,62,60,0
1,71,0,238
1,73,77,2
1,73,0,118
1,71,77,2
1,71,0,118
1,74,81,2
1,47,0,54
1,50,70,58
1,62,0,6
1,69,55,2
1,65,55,0
1,57,60,120
1,74,0,118
1,69,0,0
1,65,0,0
1,65,66,2
1,65,0,238
1,64,66,2
1,64,0,238
1,62,66,2
1,62,0,118
1,59,77,2
1,50,0,110
1,57,0,8
1,59,0,0
1,40,70,2
1,64,77,0
1,59,55,0
1,56,55,0
1,64,0,118
1,59,0,0
1,56,0,0
1,64,77,2
1,64,0,118
1,64,77,2
1,40,0,118
1,64,0,0
1,40,69,2
1,68,78,0
1,64,55,0
1,59,55,0
1,40,0,118
1,35,70,2
1,68,0,118
1,64,0,0
1,59,0,0
1,68,77,2
1,68,0,118
1,68,77,2
1,68,0,118
1,68,77,2
1,35,0,118
1,68,0,0
1,40,70,2
1,71,78,0
1,68,55,0
1,64,55,0
1,71,0,118
1,68,0,0
1,64,0,0
1,71,77,2
1,71,0,118
1,71,77,2
1,40,0,118
1,71,0,0
1,40,66,2
1,74,80,0
1,71,55,0
1,68,55,0
1,40,0,118
1,35,70,2
1,74,0,238
1,71,0,0
1,68,0,0
1,64,77,182
1,35,0,58
1,64,0,0
1,40,70,2
1,71,81,0
1,68,55,0
1,64,55,0
1,71,0,118
1,68,0,0
1,64,0,0
1,71,78,2
1,71,0,118
1,71,78,2
1,40,0,118
1,71,0,0
1,71,77,2
1,68,55,0
1,64,55,0
1,40,70,0
1,68,0,118
1,64,0,0
1,40,0,0
1,35,70,2
1,71,0,118
1,73,74,2
1,73,0,118
1,71,77,2
1,71,0,118
1,76,86,2
1,71,55,0
1,68,55,0
1,64,55,0
1,35,0,118
1,40,70,2
1,71,0,118
1,68,0,0
1,64,0,0
1,71,55,2
1,68,53,0
1,64,55,0
1,40,0,118
1,71,0,0
1,68,0,0
1,64,0,0
1,40,70,2
1,71,55,0
1,68,53,0
1,64,55,0
1,40,0,118
1,71,0,0
1,68,0,0
1,64,0,0
1,71,55,2
1,68,55,0
1,64,55,0
1,40,70,0
1,71,0,118
1,68,0,0
1,64,0,0
1,40,0,0
1,42,70,2
1,69,55,0
1,66,57,0
1,42,0,118
1,69,0,0
1,66,0,0
1,42,70,2
1,69,55,0
1,66,55,0
1,42,0,118
1,69,0,0
1,66,0,0
1,44,70,2
1,71,55,0
1,68,55,0
1,76,0,118
1,44,0,0
1,71,0,0
1,68,0,0
1,44,70,2
1,68,55,0
1,72,77,0
1,44,0,118
1,68,0,0
1,72,0,0
1,64,55,2
1,45,70,2
1,73,74,4
1,64,0,112
1,64,55,2
1,73,0,10
1,71,77,2
1,71,0,222
1,64,0,4
1,64,55,2
1,69,77,10
1,45,0,12
1,40,73,106
1,64,0,230
1,66,72,2
1,69,0,8
1,40,0,228
1,66,0,2
1,45,70,2
1,57,72,0
1,57,0,358
1,66,72,2
1,45,0,64
1,40,67,56
1,66,0,102
1,64,72,6
1,66,72,132
1,64,0,12
1,66,0,106
1,69,72,2
1,40,0,24
1,45,70,92
1,69,0,2
1,73,81,2
1,64,55,0
1,64,0,118
1,73,0,2
1,73,72,0
1,64,55,0
1,64,0,118
1,71,73,2
1,73,0,18
1,71,0,100
1,69,72,2
1,64,55,0
1,45,0,84
1,40,74,36
1,69,0,238
1,64,0,0
1,66,78,2
1,66,0,118
1,64,58,2
1,40,0,88
1,64,0,30
1,45,70,2
1,64,72,0
1,57,72,120
1,64,0,18
1,57,0,220
1,66,72,2
1,45,0,120
1,40,68,0
1,64,72,120
1,66,0,18
1,64,0,100
1,61,77,2
1,61,0,118
1,59,78,116
1,40,0,4
1,47,70,2
1,59,0,232
1,59,72,8
1,62,55,120
1,59,0,6
1,66,77,4
1,42,65,108
1,47,0,4
1,62,0,236
1,66,0,10
1,42,0,228
1,47,70,4
1,47,0,442
1,59,72,158
1,66,72,112
1,59,0,6
1,66,0,232
1,40,70,10
1,52,72,0
1,52,0,118
1,52,72,2
1,52,0,238
1,64,81,0
1,59,55,2
1,64,0,386
1,59,0,2
1,40,0,184
1,73,72,748
1,64,55,0
1,73,73,228
1,73,0,10
1,64,0,0
1,45,71,2
1,64,55,0
1,64,0,118
1,64,55,2
1,71,76,0
1,73,0,20
1,64,0,218
1,71,0,0
1,64,55,2
1,69,72,4
1,64,0,354
1,66,72,2
1,69,0,2
1,45,70,234
1,45,0,2
1,66,0,0
1,57,72,2
1,57,0,238
1,57,72,2
1,66,71,116
1,57,0,2
1,64,72,236
1,66,0,10
1,66,72,106
1,64,0,20
1,66,0,98
1,69,79,12
1,45,0,84
1,69,0,34
1,73,82,2
1,45,70,0
1,64,55,0
1,73,0,118
1,64,0,0
1,73,72,2
1,71,72,120
1,73,0,18
1,71,0,100
1,69,72,2
1,64,55,0
1,45,0,118
1,40,68,2
1,69,0,238
1,64,0,0
1,69,72,2
1,69,0,118
1,69,72,2
1,40,0,88
1,69,0,30
1,45,70,0
1,78,83,2
1,73,72,240
1,78,0,18
1,76,72,102
1,73,0,18
1,76,0,220
1,73,72,2
1,73,0,118
1,71,72,2
1,69,72,120
1,71,0,24
1,45,0,92
1,69,0,2
1,47,69,2
1,71,72,0
1,66,55,0
1,71,0,118
1,66,0,0
1,73,72,2
1,73,0,238
1,71,72,2
1,66,55,0
1,47,0,118
1,71,0,120
1,66,0,0
1,40,67,362
1,64,72,360
1,64,0,118
1,73,72,2
1,76,72,120
1,73,0,18
1,76,0,220
1,73,72,2
1,40,0,68
1,45,70,52
1,73,0,118
1,73,72,2
1,71,72,60
1,73,0,18
1,69,72,42
1,64,55,0
1,71,0,18
1,45,0,190
1,69,0,30
1,64,0,0
1,40,68,2
1,40,0,406
1,45,70,74
1,45,0,238
1,40,71,2
1,40,0,238
1,42,70,2
1,42,0,238
1,44,70,2
1,64,73,60
1,64,0,58
1,69,75,2
1,44,0,118
1,69,0,0
1,73,77,2
1,45,66,0
1,73,0,118
1,73,77,2
1,73,0,98
1,73,77,22
1,73,0,118
1,73,77,2
1,71,77,60
1,73,0,18
1,69,77,42
1,71,0,18
1,69,0,220
1,73,77,122
1,45,0,118
1,73,0,0
1,46,66,2
1,73,77,0
1,74,76,120
1,73,0,18
1,73,77,102
1,74,0,18
1,76,77,102
1,73,0,18
1,76,0,340
1,66,77,126
1,46,0,46
1,47,66,70
1,71,77,0
1,66,0,6
1,71,0,112
1,71,77,2
1,71,0,116
1,71,77,4
1,71,0,118
1,71,77,2
1,71,0,238
1,73,77,2
1,73,0,118
1,74,76,0
1,74,0,118
1,66,72,4
1,47,0,88
1,47,70,14
1,66,0,166
1,47,0,450
1,66,75,242
1,52,70,110
1,71,77,10
1,66,0,8
1,71,0,110
1,71,77,2
1,71,0,118
1,71,77,2
1,64,64,0
1,71,0,118
1,64,0,0
1,71,77,2
1,68,55,0
1,71,0,358
1,68,0,0
1,66,77,2
1,66,0,118
1,64,78,2
1,52,0,78
1,64,0,40
1,52,70,2
1,71,77,0
1,71,0,118
1,71,77,2
1,71,0,118
1,71,77,2
1,64,55,0
1,64,0,90
1,71,0,28
1,74,79,2
1,68,55,0
1,74,0,238
1,68,0,0
1,74,77,2
1,74,0,118
1,74,77,2
1,74,0,118
1,74,77,2
1,74,0,58
1,74,77,2
1,45,70,52
1,52,0,6
1,74,0,120
1,73,81,2
1,73,0,238
1,73,77,2
1,73,0,118
1,73,77,2
1,73,0,158
1,73,77,2
1,73,0,158
1,73,77,2
1,45,0,150
1,73,0,8
1,45,70,2
1,73,77,0
1,71,77,52
1,73,0,6
1,71,0,52
1,69,76,10
1,69,0,358
1,45,0,240
1,40,70,2
1,71,77,0
1,71,0,58
1,69,77,2
1,69,0,58
1,69,77,2
1,40,0,88
1,69,0,30
1,45,70,2
1,73,77,0
1,73,0,118
1,73,77,2
1,73,0,118
1,73,77,2
1,73,0,118
1,73,77,2
1,73,0,58
1,71,77,2
1,71,0,58
1,69,77,2
1,69,0,238
1,64,77,122
1,45,0,48
1,64,0,10
1,64,77,2
1,64,0,58
1,46,70,2
1,73,77,0
1,73,0,118
1,74,77,2
1,74,0,114
1,73,76,6
1,73,0,118
1,76,77,2
1,76,0,478
1,66,77,2
1,46,0,88
1,47,70,28
1,66,0,2
1,71,77,2
1,66,55,0
1,62,55,0
1,71,0,118
1,66,0,0
1,62,0,0
1,71,77,2
1,71,0,118
1,71,76,2
1,71,0,118
1,71,77,2
1,71,0,238
1,73,77,2
1,73,0,118
1,71,77,2
1,71,0,118
1,74,81,2
1,47,0,54
1,50,70,58
1,74,0,246
1,59,77,602
1,50,0,110
1,59,0,8
1,40,70,2
1,64,77,0
1,59,55,0
1,56,55,0
1,64,0,118
1,59,0,0
1,56,0,0
1,64,77,2
1,64,0,118
1,64,77,2
1,64,0,118
1,68,78,2
1,64,55,0
1,59,55,0
1,68,0,238
1,64,0,0
1,59,0,0
1,68,77,2
1,68,0,118
1,68,77,2
1,68,0,118
1,68,77,2
1,40,0,118
1,68,0,0
1,40,70,2
1,71,78,0
1,68,55,0
1,64,55,0
1,71,0,118
1,68,0,0
1,64,0,0
1,71,77,2
1,71,0,118
1,71,77,2
1,71,0,118
1,74,80,2
1,71,55,0
1,68,55,0
1,74,0,358
1,71,0,0
1,68,0,0
1,64,77,182
1,40,0,58
1,64,0,0
1,40,70,2
1,71,81,0
1,68,55,0
1,64,55,0
1,71,0,118
1,68,0,0
1,64,0,0
1,71,78,2
1,71,0,118
1,71,78,2
1,71,0,118
1,71,77,2
1,68,55,0
1,64,55,0
1,68,0,118
1,64,0,0
1,71,0,120
1,73,74,2
1,73,0,118
1,71,77,2
1,71,0,118
1,76,86,2
1,71,55,0
1,68,55,0
1,64,55,0
1,40,0,118
1,40,70,2
1,71,0,118
1,68,0,0
1,64,0,0
1,71,55,2
1,68,53,0
1,64,55,0
1,40,0,118
1,71,0,0
1,68,0,0
1,64,0,0
1,40,70,2
1,71,55,0
1,68,53,0
1,64,55,0
1,40,0,118
1,71,0,0
1,68,0,0
1,64,0,0
1,71,55,2
1,68,55,0
1,64,55,0
1,40,70,0
1,71,0,118
1,68,0,0
1,64,0,0
1,40,0,0
1,42,70,2
1,69,55,0
1,66,57,0
1,42,0,118
1,69,0,0
1,66,0,0
1,42,70,2
1,69,55,0
1,66,55,0
1,42,0,118
1,69,0,0
1,66,0,0
1,44,70,2
1,71,55,0
1,68,55,0
1,76,0,118
1,44,0,0
1,71,0,0
1,68,0,0
1,44,70,2
1,68,55,0
1,72,77,0
1,44,0,118
1,68,0,0
1,72,0,0
1,64,55,2
1,45,70,2
1,73,74,4
1,64,0,112
1,64,55,2
1,73,0,10
1,71,77,2
1,71,0,222
1,64,0,4
1,64,55,2
1,69,77,10
1,45,0,12
1,40,73,106
1,64,0,230
1,66,72,2
1,69,0,8
1,40,0,228
1,66,0,2
1,45,70,2
1,57,72,0
1,57,0,358
1,66,72,2
1,45,0,64
1,40,67,56
1,66,0,102
1,64,72,6
1,66,72,132
1,64,0,12
1,66,0,106
1,69,72,2
1,40,0,24
1,45,70,92
1,69,0,2
1,73,81,2
1,64,55,0
1,64,0,118
1,73,0,2
1,73,72,0
1,64,55,0
1,64,0,118
1,71,73,2
1,73,0,18
1,71,0,100
1,69,72,2
1,64,55,0
1,45,0,84
1,40,74,36
1,69,0,238
1,64,0,0
1,66,78,2
1,66,0,118
1,64,58,2
1,40,0,88
1,64,0,30
1,45,70,2
1,64,72,0
1,57,72,120
1,64,0,18
