track,note,velocity,time
2,42,75,840
2,42,75,292
2,42,75,292
2,42,79,300
2,36,89,37196
2,42,60,0
2,49,37,0
2,57,49,0
2,46,48,4
2,37,96,0
2,42,72,0
2,36,58,4
2,42,29,0
2,42,35,4
2,36,31,4
2,42,25,0
2,42,34,4
2,36,38,4
2,42,36,0
2,36,79,4
2,42,58,0
2,46,41,4
2,37,99,0
2,42,70,0
2,36,56,4
2,42,34,0
2,42,47,4
2,36,31,4
2,42,35,0
2,42,47,4
2,36,43,4
2,42,44,0
2,36,89,4
2,42,60,0
2,46,48,4
2,37,96,0
2,42,72,0
2,36,58,4
2,42,29,0
2,42,35,4
2,36,31,4
2,42,25,0
2,42,34,4
2,36,38,4
2,42,36,0
2,36,79,4
2,42,58,0
2,46,41,4
2,37,99,0
2,42,70,0
2,36,56,4
2,42,34,0
2,42,47,4
2,36,31,4
2,42,35,0
2,42,47,4
2,36,43,4
2,42,44,0
2,36,89,4
2,42,60,0
2,46,48,4
2,37,96,0
2,42,72,0
2,36,58,4
2,42,29,0
2,42,35,4
2,36,31,4
2,42,25,0
2,42,34,4
2,36,38,4
2,42,36,0
2,36,79,4
2,42,58,0
2,46,41,4
2,37,99,0
2,42,70,0
2,36,56,4
2,42,34,0
2,42,47,4
2,36,31,4
2,42,35,0
2,42,47,4
2,36,43,4
2,42,44,0
2,36,89,4
2,42,60,0
2,46,48,4
2,37,96,0
2,42,72,0
2,36,58,4
2,42,29,0
2,42,35,4
2,36,31,4
2,42,25,0
2,42,34,4
2,36,38,4
2,42,36,0
2,36,79,4
2,42,58,0
2,46,41,4
2,37,99,0
2,42,70,0
2,36,56,4
2,42,34,0
2,42,47,4
2,36,31,4
2,42,35,0
2,42,47,4
2,36,43,4
2,42,44,0
2,36,81,4
2,49,49,0
2,36,89,5984
2,42,60,0
2,57,38,0
2,46,48,4
2,37,96,0
2,42,72,0
2,36,58,4
2,42,29,0
2,42,35,4
2,36,31,4
2,42,25,0
2,42,34,4
2,36,38,4
2,42,36,0
2,36,79,4
2,42,58,0
2,46,41,4
2,37,99,0
2,42,70,0
2,36,56,4
2,42,34,0
2,42,47,4
2,36,31,4
2,42,35,0
2,42,47,4
2,36,43,4
2,42,44,0
2,36,89,4
2,42,60,0
2,46,48,4
2,37,96,0
2,42,72,0
2,36,58,4
2,42,29,0
2,42,35,4
2,36,31,4
2,42,25,0
2,42,34,4
2,36,38,4
2,42,36,0
2,36,79,4
2,42,58,0
2,46,41,4
2,37,99,0
2,42,70,0
2,36,56,4
2,42,34,0
2,42,47,4
2,36,31,4
2,42,35,0
2,42,47,4
2,36,43,4
2,42,44,0
2,36,89,4
2,42,60,0
2,46,48,4
2,37,96,0
2,42,72,0
2,36,58,4
2,42,29,0
2,42,35,4
2,36,31,4
2,42,25,0
2,42,34,4
2,36,38,4
2,42,36,0
2,36,79,4
2,42,58,0
2,46,41,4
2,37,99,0
2,42,70,0
2,36,56,4
2,42,34,0
2,42,47,4
2,36,31,4
2,42,35,0
2,42,47,4
2,36,43,4
2,42,44,0
2,36,89,4
2,42,60,0
2,46,48,4
2,37,96,0
2,42,72,0
2,36,58,4
2,42,29,0
2,42,35,4
2,36,31,4
2,42,25,0
2,42,34,4
2,36,38,4
2,42,36,0
2,36,79,4
2,42,58,0
2,46,41,4
2,37,99,0
2,42,70,0
2,36,56,4
2,42,34,0
2,42,47,4
2,36,31,4
2,42,35,0
2,42,47,4
2,36,43,4
2,42,44,0
2,36,89,4
2,42,60,0
2,46,48,4
2,37,96,0
2,42,72,0
2,36,58,4
2,42,29,0
2,42,35,4
2,36,31,4
2,42,25,0
2,42,34,4
2,36,38,4
2,42,36,0
2,36,79,4
2,42,58,0
2,46,41,4
2,37,99,0
2,42,70,0
2,36,56,4
2,42,34,0
2,42,47,4
2,36,31,4
2,42,35,0
2,42,47,4
2,36,43,4
2,42,44,0
2,36,89,4
2,42,60,0
2,46,48,4
2,37,96,0
2,42,72,0
2,36,58,4
2,42,29,0
2,42,35,4
2,36,31,4
2,42,25,0
2,42,34,4
2,36,38,4
2,42,36,0
2,36,79,4
2,42,58,0
2,46,41,4
2,37,99,0
2,42,70,0
2,36,56,4
2,42,34,0
2,42,47,4
2,36,31,4
2,42,35,0
2,42,47,4
2,36,43,4
2,42,44,0
2,36,89,4
2,42,60,0
2,46,48,4
2,37,96,0
2,42,72,0
2,36,58,4
2,42,29,0
2,42,35,4
2,36,31,4
2,42,25,0
2,42,34,4
2,36,38,4
2,42,36,0
2,36,79,4
2,42,58,0
2,46,41,4
2,37,99,0
2,42,70,0
2,36,56,4
2,42,34,0
2,42,47,4
2,36,31,4
2,42,35,0
2,42,47,4
2,36,43,4
2,42,44,0
2,36,89,4
2,42,60,0
2,46,48,4
2,37,96,0
2,42,72,0
2,36,58,4
2,42,29,0
2,42,35,4
2,36,31,4
2,42,25,0
2,42,34,4
2,36,38,4
2,42,36,0
2,36,79,4
2,42,58,0
2,46,41,4
2,37,99,0
2,42,70,0
2,36,56,4
2,42,34,0
2,42,47,4
2,36,31,4
2,42,35,0
2,47,86,0
2,42,47,4
2,43,127,0
2,36,43,0
2,42,44,0
2,36,89,4
2,42,60,0
2,49,37,0
2,57,49,0
2,70,93,0
2,46,48,0
2,70,33,0
2,37,96,0
2,42,72,0
2,70,96,0
2,36,58,0
2,42,29,0
2,70,49,0
2,42,35,0
2,70,69,0
2,36,31,0
2,42,25,0
2,70,46,0
2,42,34,0
2,70,99,0
2,36,38,0
2,42,36,0
2,70,30,0
2,36,79,0
2,42,58,0
2,70,80,0
2,46,41,0
2,70,40,0
2,37,99,0
2,42,70,0
2,70,99,0
2,36,56,0
2,42,34,0
2,70,34,0
2,42,47,0
2,70,72,0
2,36,31,0
2,42,35,0
2,70,50,0
2,42,47,0
2,70,99,0
2,36,43,0
2,42,44,0
2,70,43,0
2,70,45,4
2,36,89,0
2,42,60,0
2,70,55,0
2,46,48,0
2,70,47,0
2,37,96,0
2,42,72,0
2,70,96,0
2,36,58,0
2,42,29,0
2,70,43,0
2,42,35,0
2,70,74,0
2,36,31,0
2,42,25,0
2,70,51,0
2,42,34,0
2,70,93,0
2,36,38,0
2,42,36,0
2,70,35,0
2,36,79,0
2,42,58,0
2,70,70,0
2,46,41,0
2,70,45,0
2,37,99,0
2,42,70,0
2,70,103,0
2,36,56,0
2,42,34,0
2,70,43,0
2,70,41,4
2,42,47,0
2,70,53,0
2,70,38,4
2,36,31,0
2,42,35,0
2,70,27,0
2,42,47,0
2,70,96,0
2,36,43,0
2,42,44,0
2,70,40,0
2,36,89,0
2,42,60,0
2,70,90,0
2,46,48,0
2,70,45,0
2,37,96,0
2,42,72,0
2,70,93,0
2,36,58,0
2,42,29,0
2,70,48,0
2,42,35,0
2,70,78,0
2,36,31,0
2,42,25,0
2,70,46,0
2,42,34,0
2,70,93,0
2,36,38,0
2,42,36,0
2,70,54,0
2,70,43,4
2,36,79,0
2,42,58,0
2,70,45,0
2,70,44,4
2,46,41,0
2,70,45,0
2,37,99,0
2,42,70,0
2,70,93,0
2,36,56,0
2,42,34,0
2,70,42,0
2,42,47,0
2,70,78,0
2,36,31,0
2,42,35,0
2,70,54,0
2,42,47,0
2,70,90,0
2,36,43,0
2,42,44,0
2,70,43,0
2,36,89,0
2,42,60,0
2,70,90,0
2,46,48,0
2,70,44,0
2,37,96,0
2,42,72,0
2,70,93,0
2,36,58,0
2,42,29,0
2,70,44,0
2,42,35,0
2,70,74,0
2,36,31,0
2,42,25,0
2,70,55,0
2,42,34,0
2,70,90,0
2,36,38,0
2,42,36,0
2,70,47,0
2,36,79,0
2,42,58,0
2,70,84,0
2,46,41,0
2,70,45,0
2,37,99,0
2,42,70,0
2,70,93,0
2,36,56,0
2,42,34,0
2,70,44,0
2,70,46,4
2,42,47,0
2,70,44,0
2,70,52,4
2,36,31,0
2,42,35,0
2,70,45,0
2,70,54,4
2,42,47,0
2,70,96,0
2,36,43,0
2,42,44,0
2,70,43,0
2,36,89,0
2,42,60,0
2,70,93,0
2,46,48,0
2,70,33,0
2,37,96,0
2,42,72,0
2,70,96,0
2,36,58,0
2,42,29,0
2,70,49,0
2,42,35,0
2,70,69,0
2,36,31,0
2,42,25,0
2,70,46,0
2,42,34,0
2,70,99,0
2,55,34,92
2,36,38,0
2,42,36,0
2,70,30,0
2,49,51,80
2,36,79,0
2,42,58,0
2,70,80,0
2,46,41,0
2,70,40,0
2,37,99,0
2,42,70,0
2,70,99,0
2,36,56,0
2,42,34,0
2,70,34,0
2,42,47,0
2,70,72,0
2,36,31,0
2,42,35,0
2,70,50,0
2,42,47,0
2,70,99,0
2,36,43,0
2,42,44,0
2,70,43,0
2,70,45,4
2,36,89,0
2,42,60,0
2,70,55,0
2,46,48,0
2,70,47,0
2,37,96,0
2,42,72,0
2,70,96,0
2,36,58,0
2,42,29,0
2,70,43,0
2,42,35,0
2,70,74,0
2,36,31,0
2,42,25,0
2,70,51,0
2,42,34,0
2,70,93,0
2,36,38,0
2,42,36,0
2,70,35,0
2,36,79,0
2,42,58,0
2,70,70,0
2,46,41,0
2,70,45,0
2,37,99,0
2,42,70,0
2,70,103,0
2,36,56,0
2,42,34,0
2,70,43,0
2,70,41,4
2,42,47,0
2,70,53,0
2,70,38,4
2,36,31,0
2,42,35,0
2,70,27,0
2,42,47,0
2,70,96,0
2,36,43,0
2,42,44,0
2,70,40,0
2,36,89,0
2,42,60,0
2,70,90,0
2,46,48,0
2,70,45,0
2,37,96,0
2,42,72,0
2,70,93,0
2,36,58,0
2,42,29,0
2,70,48,0
2,42,35,0
2,70,78,0
2,36,31,0
2,42,25,0
2,70,46,0
2,42,34,0
2,70,93,0
2,36,38,0
2,42,36,0
2,70,54,0
2,70,43,4
2,36,79,0
2,42,58,0
2,70,45,0
2,70,44,4
2,46,41,0
2,70,45,0
2,37,99,0
2,42,70,0
2,70,93,0
2,36,56,0
2,42,34,0
2,70,42,0
2,42,47,0
2,70,78,0
2,36,31,0
2,42,35,0
2,70,54,0
2,42,47,0
2,70,90,0
2,36,43,0
2,42,44,0
2,70,43,0
2,36,89,0
2,42,60,0
2,70,90,0
2,46,48,0
2,70,44,0
2,37,96,0
2,42,72,0
2,70,93,0
2,36,58,0
2,42,29,0
2,70,44,0
2,42,35,0
2,70,74,0
2,36,31,0
2,42,25,0
2,70,55,0
2,42,34,0
2,70,90,0
2,36,38,0
2,42,36,0
2,70,47,0
2,36,79,0
2,42,58,0
2,70,84,0
2,46,41,0
2,70,45,0
2,37,99,0
2,42,70,0
2,70,93,0
2,36,56,0
2,42,34,0
2,70,44,0
2,70,46,4
2,42,47,0
2,70,44,0
2,70,52,4
2,36,31,0
2,42,35,0
2,70,45,0
2,70,54,4
2,41,73,0
2,42,47,0
2,70,96,0
2,36,43,0
2,42,44,0
2,70,43,0
2,36,70,96
2,49,40,0
2,36,89,13684
2,42,60,0
2,49,37,0
2,57,49,0
2,70,93,0
2,46,48,0
2,70,33,0
2,37,96,0
2,42,72,0
2,70,96,0
2,36,58,0
2,42,29,0
2,70,49,0
2,42,35,0
2,70,69,0
2,36,31,0
2,42,25,0
2,70,46,0
2,42,34,0
2,70,99,0
2,36,38,0
2,42,36,0
2,70,30,0
2,36,79,0
2,42,58,0
2,70,80,0
2,46,41,0
2,70,40,0
2,37,99,0
2,42,70,0
2,70,99,0
2,36,56,0
2,42,34,0
2,70,34,0
2,42,47,0
2,70,72,0
2,36,31,0
2,42,35,0
2,70,50,0
2,42,47,0
2,70,99,0
2,36,43,0
2,42,44,0
2,70,43,0
2,70,45,4
2,36,89,0
2,42,60,0
2,70,55,0
2,46,48,0
2,70,47,0
2,37,96,0
2,42,72,0
2,70,96,0
2,36,58,0
2,42,29,0
2,70,43,0
2,42,35,0
2,70,74,0
2,36,31,0
2,42,25,0
2,70,51,0
2,42,34,0
2,70,93,0
2,36,38,0
2,42,36,0
2,70,35,0
2,36,79,0
2,42,58,0
2,70,70,0
2,46,41,0
2,70,45,0
2,37,99,0
2,42,70,0
2,70,103,0
2,36,56,0
2,42,34,0
2,70,43,0
2,70,41,4
2,42,47,0
2,70,53,0
2,70,38,4
2,36,31,0
2,42,35,0
2,70,27,0
2,42,47,0
2,70,96,0
2,36,43,0
2,42,44,0
2,70,40,0
2,36,89,0
2,42,60,0
2,70,90,0
2,46,48,0
2,70,45,0
2,37,96,0
2,42,72,0
2,70,93,0
2,36,58,0
2,42,29,0
2,70,48,0
2,42,35,0
2,70,78,0
2,36,31,0
2,42,25,0
2,70,46,0
2,42,34,0
2,70,93,0
2,36,38,0
2,42,36,0
2,70,54,0
2,70,43,4
2,36,79,0
2,42,58,0
2,70,45,0
2,70,44,4
2,46,41,0
2,70,45,0
2,37,99,0
2,42,70,0
2,70,93,0
2,36,56,0
2,42,34,0
2,70,42,0
2,42,47,0
2,70,78,0
2,36,31,0
2,42,35,0
2,70,54,0
2,42,47,0
2,70,90,0
2,36,43,0
2,42,44,0
2,70,43,0
2,36,89,0
2,42,60,0
2,70,90,0
2,46,48,0
2,70,44,0
2,37,96,0
2,42,72,0
2,70,93,0
2,36,58,0
2,42,29,0
2,70,44,0
2,42,35,0
2,70,74,0
2,36,31,0
2,42,25,0
2,70,55,0
2,42,34,0
2,70,90,0
2,36,38,0
2,42,36,0
2,70,47,0
2,36,79,0
2,42,58,0
2,70,84,0
2,46,41,4
2,70,45,0
2,37,99,0
2,42,70,0
2,70,93,0
2,36,56,4
2,42,34,0
2,70,44,0
2,42,47,4
2,70,46,0
2,70,44,0
2,36,31,4
2,42,35,0
2,47,94,0
2,70,52,0
2,70,45,0
2,42,47,4
2,45,75,0
2,70,54,0
2,70,96,0
2,36,43,4
2,42,44,0
2,43,79,0
2,45,69,0
2,70,43,0
2,36,89,4
2,41,58,0
2,42,60,0
2,49,37,0
2,57,49,0
2,70,93,0
2,49,78,20
2,46,48,0
2,70,33,0
2,37,96,0
2,42,72,0
2,70,96,0
2,36,58,0
2,42,29,0
2,70,49,0
2,42,35,0
2,70,69,0
2,36,31,0
2,42,25,0
2,70,46,0
2,42,34,0
2,70,99,0
2,36,38,0
2,42,36,0
2,70,30,0
2,36,79,0
2,42,58,0
2,70,80,0
2,46,41,0
2,70,40,0
2,37,99,0
2,42,70,0
2,70,99,0
2,36,56,0
2,42,34,0
2,70,34,0
2,42,47,0
2,70,72,0
2,36,31,0
2,42,35,0
2,70,50,0
2,42,47,0
2,70,99,0
2,36,43,0
2,42,44,0
2,70,43,0
2,70,45,4
2,36,89,0
2,42,60,0
2,70,55,0
2,46,48,0
2,70,47,0
2,37,96,0
2,42,72,0
2,70,96,0
2,36,58,0
2,42,29,0
2,70,43,0
2,42,35,0
2,70,74,0
2,36,31,0
2,42,25,0
2,70,51,0
2,42,34,0
2,70,93,0
2,36,38,0
2,42,36,0
2,70,35,0
2,36,79,0
2,42,58,0
2,70,70,0
2,46,41,0
2,70,45,0
2,37,99,0
2,42,70,0
2,70,103,0
2,36,56,0
2,42,34,0
2,70,43,0
2,70,41,4
2,42,47,0
2,70,53,0
2,70,38,4
2,36,31,0
2,42,35,0
2,70,27,0
2,42,47,0
2,70,96,0
2,36,43,0
2,42,44,0
2,70,40,0
2,36,89,0
2,42,60,0
2,70,90,0
2,46,48,0
2,70,45,0
2,37,96,0
2,42,72,0
2,70,93,0
2,36,58,0
2,42,29,0
2,70,48,0
2,42,35,0
2,70,78,0
2,36,31,0
2,42,25,0
2,70,46,0
2,42,34,0
2,70,93,0
2,36,38,0
2,42,36,0
2,70,54,0
2,70,43,4
2,36,79,0
2,42,58,0
2,70,45,0
2,70,44,4
2,46,41,0
2,70,45,0
2,37,99,0
2,42,70,0
2,70,93,0
2,36,56,0
2,42,34,0
2,70,42,0
2,42,47,0
2,70,78,0
2,36,31,0
2,42,35,0
2,70,54,0
2,42,47,0
2,70,90,0
2,36,43,0
2,42,44,0
2,70,43,0
2,36,89,0
