track,note,velocity,time
0,48,87,440
0,53,93,13
0,57,101,15
0,72,50,11
0,69,50,0
0,65,50,0
0,84,58,0
0,77,111,1
0,60,116,5
0,77,0,55
0,67,102,0
0,60,127,0
0,65,127,60
0,67,0,60
0,72,92,0
0,60,0,24
0,65,0,60
0,72,0,36
0,48,0,82
0,53,0,3
0,57,0,4
0,60,0,2
0,52,87,49
0,55,93,13
0,60,101,15
0,69,0,11
0,65,0,0
0,67,50,0
0,64,50,0
0,76,114,1
0,64,116,5
0,76,0,55
0,67,106,0
0,60,127,0
0,64,127,60
0,67,0,60
0,72,90,0
0,60,0,24
0,64,0,60
0,72,0,36
0,52,0,82
0,55,0,3
0,60,0,4
0,64,0,2
0,52,87,49
0,57,93,13
0,60,101,15
0,67,0,11
0,69,50,0
0,76,114,1
0,57,127,0
0,64,116,5
0,76,0,55
0,67,106,0
0,60,127,0
0,64,127,60
0,57,0,24
0,67,0,36
0,72,99,0
0,60,0,24
0,64,0,60
0,72,0,36
0,115,48,26
0,113,52,1
0,113,0,28
0,55,95,3
0,112,44,17
0,113,17,5
0,52,0,2
0,57,0,3
0,60,0,4
0,112,0,2
0,64,0,0
0,55,0,5
0,115,0,3
0,113,0,1
0,112,29,11
0,113,24,1
0,110,52,2
0,60,95,6
0,110,0,4
0,115,63,4
0,112,0,8
0,50,87,4
0,115,0,1
0,113,0,1
0,113,33,7
0,112,11,2
0,110,38,1
0,55,93,1
0,113,0,4
0,113,38,8
0,59,101,3
0,110,0,3
0,112,0,5
0,113,0,2
0,69,0,1
0,67,50,0
0,74,114,1
0,62,116,5
0,110,39,2
0,112,15,2
0,108,62,1
0,108,0,15
0,112,0,15
0,60,0,1
0,108,41,6
0,107,57,6
0,107,0,5
0,62,92,1
0,59,127,1
0,108,0,6
0,112,39,0
0,112,0,10
0,110,0,2
0,108,14,9
0,107,55,2
0,62,0,3
0,110,12,1
0,107,0,8
0,108,0,7
0,110,0,1
0,64,94,1
0,84,0,1
0,72,0,0
0,76,53,0
0,88,61,0
0,74,0,1
0,62,127,0
0,107,39,0
0,108,39,1
0,105,55,3
0,105,0,3
0,110,43,0
0,107,0,1
0,110,0,2
0,108,0,0
0,105,56,15
0,64,0,1
0,107,17,0
0,108,29,0
0,108,0,7
0,88,0,3
0,76,0,0
0,74,53,0
0,86,61,0
0,62,91,2
0,108,41,1
0,105,0,2
0,107,0,8
0,110,36,0
0,110,0,4
0,108,0,0
0,59,0,8
0,105,46,3
0,107,44,4
0,103,66,2
0,103,0,8
0,105,0,8
0,108,44,0
0,108,0,7
0,107,0,1
0,103,50,13
0,105,41,2
0,62,0,12
0,107,48,3
0,103,0,2
0,107,0,6
0,105,0,6
0,62,0,7
0,103,33,1
0,101,61,3
0,105,38,1
0,60,92,2
0,74,0,4
0,86,0,0
0,72,53,0
0,84,61,0
0,101,0,7
0,103,0,10
0,105,0,2
0,101,56,15
0,103,20,0
0,105,31,5
0,101,0,10
0,103,0,8
0,105,0,1
0,103,35,12
0,101,61,4
0,105,35,3
0,50,0,6
0,55,0,3
0,101,0,2
0,59,0,2
0,62,0,2
0,103,0,6
0,105,0,7
0,103,31,1
0,105,38,7
0,28,122,8
0,40,122,0
0,103,0,8
0,107,31,1
0,107,0,4
0,48,87,7
0,103,50,7
0,107,43,4
0,53,93,2
0,103,0,12
0,57,101,3
0,105,0,6
0,67,0,5
0,72,0,0
0,64,0,0
0,84,0,0
0,72,50,0
0,69,50,0
0,65,50,0
0,84,58,0
0,40,0,1
0,28,0,0
0,29,127,0
0,41,127,0
0,72,65,0
0,57,85,0
0,60,85,0
0,57,85,0
0,107,0,4
0,60,116,1
0,105,25,0
0,107,45,4
0,103,63,0
0,103,0,12
0,105,0,7
0,105,55,17
0,108,44,3
0,108,0,7
0,67,114,5
0,60,127,0
0,105,0,3
0,105,48,23
0,108,34,2
0,105,0,13
0,107,0,9
0,108,0,1
0,65,127,9
0,107,27,5
0,105,57,1
0,108,44,1
0,105,0,13
0,107,0,6
0,108,0,6
0,107,52,10
0,108,41,3
0,110,33,2
0,110,0,4
0,105,32,0
0,105,0,3
0,65,126,4
0,67,0,2
0,72,108,0
0,110,43,2
0,107,0,1
0,110,0,4
0,108,0,2
0,108,39,12
0,110,48,2
0,60,0,1
0,107,50,1
0,107,0,12
0,108,0,8
0,65,0,3
0,60,0,11
0,65,127,0
0,108,54,2
0,112,28,3
0,112,0,9
0,108,0,3
0,110,0,6
0,65,0,2
0,110,44,14
0,112,50,4
0,108,39,2
0,108,0,8
0,65,0,8
0,72,0,0
0,64,125,0
0,110,0,1
0,112,0,2
0,110,46,15
0,112,48,3
0,108,39,3
0,108,0,6
0,110,0,9
0,112,0,6
0,112,29,12
0,113,44,2
0,64,0,3
0,62,126,1
0,110,41,0
0,110,0,8
0,113,0,9
0,112,0,0
0,48,0,2
0,53,0,3
0,57,0,4
0,60,0,2
0,112,37,7
0,113,43,0
0,115,24,1
0,112,0,16
0,62,0,3
0,62,127,0
0,113,0,1
0,115,0,0
0,29,0,1
0,41,0,0
0,115,52,14
0,113,26,2
0,52,87,2
0,55,93,13
0,113,0,3
0,115,0,1
0,60,101,11
0,115,48,1
0,113,34,1
0,36,40,8
0,65,0,1
0,69,0,0
0,67,50,0
0,64,50,0
0,57,0,1
0,57,0,0
0,55,85,0
0,64,116,5
0,113,0,4
0,115,0,2
0,115,46,16
0,115,0,18
0,115,33,13
0,67,114,2
0,62,127,0
0,115,0,16
0,115,31,19
0,115,0,11
0,67,127,14
0,67,0,60
0,72,108,0
0,60,127,0
0,62,0,9
0,62,0,15
0,64,126,1
0,67,0,26
0,65,126,32
0,64,0,4
0,72,0,0
0,60,0,24
0,67,125,35
0,65,0,4
0,52,0,19
0,55,0,3
0,60,0,4
0,64,0,2
0,67,0,22
0,60,126,5
0,52,87,22
0,57,93,13
0,60,101,15
0,36,0,10
0,33,40,0
0,67,0,1
0,69,50,0
0,55,0,1
0,57,85,0
0,64,116,5
0,67,114,55
0,62,127,0
0,67,127,60
0,60,0,37
0,67,0,23
0,72,106,0
0,60,127,0
0,62,0,24
0,67,0,60
0,72,0,36
0,60,0,24
0,57,126,33
0,52,0,25
0,57,0,3
0,60,0,4
0,64,0,2
0,57,0,30
0,60,126,0
0,50,87,19
0,55,93,13
0,59,101,15
0,33,0,10
0,31,40,0
0,69,0,1
0,67,50,0
0,60,0,1
0,57,0,0
0,57,60,0
0,59,85,0
0,55,85,0
0,57,0,1
0,62,116,4
0,46,18,5
0,46,0,1
0,46,22,9
0,46,0,1
0,46,22,9
0,46,0,1
0,46,25,9
0,46,0,1
0,46,28,9
0,46,28,0
0,46,0,1
0,46,0,0
0,60,0,6
0,62,126,0
0,46,29,3
0,46,0,1
0,46,33,9
0,46,0,1
0,46,36,9
0,46,0,1
0,46,36,9
0,46,0,1
0,46,36,9
0,46,0,1
0,46,37,9
0,46,0,1
0,62,127,6
0,84,0,2
0,72,0,0
0,76,53,0
0,88,61,0
0,46,39,1
0,46,0,1
0,62,0,6
0,46,40,3
0,46,0,1
0,46,42,3
0,46,0,1
0,46,45,9
0,46,0,1
0,46,46,9
0,46,0,1
0,46,50,9
0,46,50,0
0,46,0,1
0,46,0,0
0,88,0,1
0,76,0,0
0,74,53,0
0,86,61,0
0,62,126,0
0,46,50,1
0,46,0,1
0,62,0,5
0,46,51,4
0,46,0,1
0,46,52,9
0,46,0,1
0,46,55,9
0,46,0,1
0,46,56,9
0,46,0,1
0,46,58,9
0,46,0,1
0,72,0,9
0,46,61,0
0,46,0,1
0,46,62,9
0,46,0,1
0,46,63,9
0,46,0,1
0,46,64,9
0,46,0,1
0,46,64,9
0,46,0,1
0,46,67,9
0,46,67,0
0,46,0,1
0,46,0,0
0,60,125,5
0,86,0,3
0,74,0,0
0,72,53,0
0,84,61,0
0,46,68,1
0,46,0,1
0,62,0,5
0,46,68,4
0,46,0,1
0,46,70,9
0,46,0,1
0,46,72,9
0,46,0,1
0,46,75,9
0,46,0,1
0,38,108,19
0,44,1,0
0,39,90,0
0,39,0,1
0,44,0,0
0,38,0,0
0,60,89,0
0,50,0,21
0,55,0,3
0,59,0,4
0,62,0,2
0,60,0,15
0,62,91,8
0,62,0,37
0,60,0,10
0,31,0,5
0,64,95,0
0,64,0,1
0,84,0,0
0,67,0,0
0,72,0,0
0,59,0,0
0,55,0,0
0,52,90,0
0,49,72,0
0,36,112,0
0,36,0,1
0,49,0,0
0,33,117,0
0,57,100,1
0,60,115,1
0,33,0,17
0,64,0,7
0,60,115,4
0,57,100,1
0,62,80,1
0,52,0,1
0,52,90,0
0,69,77,0
0,42,83,0
0,36,87,0
0,36,0,1
0,42,0,0
0,69,0,0
0,57,0,1
0,60,0,1
0,60,0,0
0,33,82,1
0,62,0,32
0,62,87,19
0,52,90,2
0,52,0,0
0,52,0,1
0,57,0,0
0,57,100,0
0,57,0,0
0,60,115,2
0,60,0,0
0,42,83,0
0,38,106,0
0,39,90,0
0,39,0,1
0,42,0,0
0,38,0,0
0,33,0,3
0,62,0,51
0,60,82,2
0,60,115,0
0,57,100,1
0,52,90,2
0,69,77,0
0,36,110,0
0,42,106,0
0,42,0,1
0,69,0,0
0,36,0,0
0,33,108,6
0,33,0,15
0,60,0,20
0,60,0,15
0,52,91,0
0,57,0,1
0,60,84,0
0,57,101,0
0,52,0,2
0,52,0,0
0,60,115,0
0,36,112,0
0,42,83,0
0,42,0,1
0,36,0,0
0,33,111,7
0,33,0,39
0,60,0,10
0,60,115,0
0,57,0,1
0,57,104,0
0,60,0,2
0,60,0,0
0,59,86,0
0,52,90,0
0,69,77,0
0,36,87,0
0,46,106,0
0,46,0,1
0,69,0,0
0,36,0,0
0,33,97,8
0,59,0,31
0,52,93,17
0,52,0,0
0,57,0,1
0,52,0,0
0,59,85,0
0,57,104,0
0,57,0,0
0,60,115,2
0,60,0,0
0,42,83,0
0,38,108,0
0,39,90,0
0,39,0,1
0,42,0,0
0,38,0,0
0,33,0,8
0,59,0,26
0,60,115,22
0,57,101,1
0,52,87,1
0,52,93,1
0,69,77,0
0,42,83,0
0,36,110,0
0,36,0,1
0,69,0,0
0,42,0,0
0,33,111,4
0,33,0,14
0,52,0,15
0,60,0,23
0,53,95,0
0,57,0,1
0,57,101,0
0,52,0,2
0,60,115,0
0,36,112,0
0,42,106,0
0,42,0,1
0,36,0,0
0,53,90,0
0,29,113,3
0,42,83,26
0,42,0,1
0,53,0,9
0,29,0,4
0,53,0,2
0,60,115,0
0,57,0,1
0,57,102,0
0,60,0,1
0,60,0,0
0,53,95,0
0,69,77,0
0,36,87,0
0,42,91,0
0,42,0,1
0,69,0,0
0,36,0,0
0,29,97,1
0,64,90,1
0,53,97,2
0,53,0,0
0,57,0,1
0,53,0,0
0,57,105,0
0,57,0,0
0,60,115,2
0,60,0,0
0,42,83,0
0,39,90,0
0,38,106,0
0,38,0,1
0,42,0,0
0,39,0,0
0,29,0,3
0,64,0,34
0,62,85,19
0,60,115,0
0,57,106,1
0,53,95,2
0,69,77,0
0,42,83,0
0,36,110,0
0,36,0,1
0,69,0,0
0,42,0,0
0,29,111,2
0,29,0,14
0,60,0,40
0,53,90,0
0,57,0,1
0,57,102,0
0,53,0,2
0,53,0,0
0,60,115,0
0,36,112,0
0,42,106,0
0,42,0,1
0,36,0,0
0,29,113,1
0,29,0,39
0,60,115,1
0,57,0,1
0,57,101,0
0,60,0,2
0,60,0,0
0,53,99,0
0,69,77,0
0,36,87,0
0,46,106,0
0,46,0,1
0,69,0,0
0,36,0,0
0,29,106,1
0,53,91,32
0,53,0,0
0,57,0,1
0,53,0,0
0,57,105,0
0,57,0,0
0,60,115,2
0,60,0,0
0,38,108,0
0,39,90,0
0,42,83,0
0,42,0,1
0,38,0,0
0,39,0,0
0,29,0,2
0,64,127,1
0,64,0,3
0,60,115,3
0,29,111,1
0,57,103,0
0,53,93,2
0,36,110,0
0,69,77,0
0,42,106,0
0,42,0,1
0,69,0,0
0,36,0,0
0,62,0,5
0,29,0,8
0,60,0,43
0,55,95,0
0,57,0,1
0,31,117,0
0,59,100,0
0,53,0,2
0,62,115,0
0,36,112,0
0,42,106,0
0,42,0,1
0,36,0,0
0,62,89,3
0,59,81,0
0,42,83,26
0,42,0,1
0,31,0,12
0,62,0,0
0,59,0,2
0,55,0,12
0,62,115,0
0,59,0,1
0,59,101,0
0,62,0,2
0,62,0,0
0,55,93,0
0,36,87,0
0,42,91,0
0,69,77,0
0,69,0,1
0,36,0,0
0,42,0,0
0,59,79,1
0,31,105,1
0,62,85,0
0,62,0,12
0,59,0,3
0,55,93,39
0,55,0,0
0,59,0,1
0,55,0,0
0,62,84,0
0,59,80,0
0,59,103,0
0,59,0,0
0,62,115,2
0,62,0,0
0,39,90,0
0,38,106,0
0,42,83,0
0,42,0,1
0,39,0,0
0,38,0,0
0,31,0,2
0,59,0,23
0,62,0,0
0,62,87,31
0,62,115,0
0,59,101,1
0,59,80,2
0,55,91,0
0,42,83,0
0,69,77,0
0,36,110,0
0,36,0,1
0,69,0,0
0,42,0,0
0,31,100,0
0,31,0,13
0,62,0,43
0,55,92,0
0,59,0,1
0,59,103,0
0,31,117,1
0,55,0,1
0,55,0,0
0,62,115,0
0,36,112,0
0,42,106,0
0,42,0,1
0,36,0,0
0,59,0,31
0,31,0,6
0,60,80,19
0,64,85,0
0,62,115,0
0,59,0,1
0,59,101,0
0,62,0,2
0,62,0,0
0,55,92,0
0,46,106,0
0,36,87,0
0,69,77,0
0,69,0,1
0,36,0,0
0,46,0,0
0,31,111,1
0,62,0,2
0,64,0,37
0,65,81,9
0,60,0,3
0,62,82,1
0,55,92,3
0,55,0,0
0,59,0,1
0,55,0,0
0,59,102,0
0,59,0,0
0,62,115,2
0,62,0,0
0,39,90,0
0,38,108,0
0,42,83,0
0,42,0,1
0,39,0,0
0,38,0,0
0,31,0,1
0,62,0,3
0,65,0,5
0,62,87,1
0,62,115,0
0,59,101,1
0,65,85,1
0,55,89,0
0,69,77,0
0,36,110,0
0,42,106,0
0,42,0,1
0,36,0,0
0,69,0,0
0,31,117,2
0,31,0,16
0,62,0,8
0,55,93,0
0,59,0,1
0,60,102,0
0,55,0,2
0,64,115,0
0,36,112,0
0,42,106,0
0,42,0,1
0,36,0,0
0,36,121,4
0,42,83,25
0,42,0,1
0,36,0,13
0,62,0,3
0,65,0,9
0,60,79,0
0,64,83,0
0,55,0,1
0,64,115,0
0,60,0,1
0,60,101,0
0,64,0,2
0,64,0,0
0,55,98,0
0,69,77,0
0,36,87,0
0,42,91,0
0,42,0,1
0,69,0,0
0,36,0,0
0,36,100,4
0,55,88,52
0,55,0,0
0,55,0,1
0,60,0,0
0,60,107,0
0,60,0,0
0,64,115,2
0,64,0,0
0,42,83,0
0,39,90,0
0,38,106,0
0,38,0,1
0,42,0,0
0,39,0,0
0,36,0,4
0,64,115,0
0,60,104,0
0,55,94,2
0,69,77,0
0,42,83,0
0,36,110,0
0,36,0,1
0,42,0,0
0,69,0,0
0,36,111,0
0,36,0,3
0,64,0,2
0,55,90,0
0,60,0,1
0,59,102,0
0,35,119,1
0,55,0,1
0,55,0,0
0,62,115,0
0,36,112,0
0,42,106,0
0,42,0,1
0,36,0,0
0,60,0,7
0,64,0,1
0,35,0,28
0,62,115,16
0,59,0,1
0,59,104,0
0,62,0,2
0,62,0,0
0,35,108,0
0,55,91,0
0,36,87,0
0,69,77,0
0,46,106,0
0,46,0,1
0,36,0,0
0,69,0,0
0,55,90,56
0,55,0,0
0,59,0,1
0,55,0,0
0,59,100,0
0,59,0,0
0,35,0,2
0,62,115,0
0,62,0,0
0,42,83,0
0,39,90,0
0,38,108,0
0,38,0,1
0,39,0,0
0,42,0,0
0,60,89,0
0,60,0,51
0,62,89,5
0,62,113,0
0,35,111,1
0,59,100,0
0,55,88,2
0,36,110,0
0,42,106,0
0,69,77,0
0,69,0,1
0,42,0,0
