track,note,velocity,time
0,64,125,2394
0,52,125,0
0,75,83,470
0,63,83,0
0,33,97,10
0,52,90,0
0,57,95,0
0,61,90,0
0,76,124,0
0,36,113,0
0,42,113,0
0,49,81,0
0,64,124,0
0,36,0,55
0,42,0,0
0,42,108,0
0,49,0,0
0,33,96,82
0,42,0,0
0,42,113,0
0,42,0,120
0,29,104,110
0,39,90,4
0,40,113,0
0,42,108,0
0,29,0,110
0,40,0,0
0,42,0,0
0,33,97,120
0,73,126,0
0,36,113,0
0,42,113,0
0,61,126,0
0,36,0,71
0,42,0,0
0,33,97,120
0,42,113,0
0,42,0,120
0,33,96,56
0,46,113,0
0,46,0,120
0,29,104,110
0,39,90,4
0,40,113,0
0,42,117,0
0,29,0,110
0,40,0,0
0,42,0,0
0,33,95,113
0,74,124,0
0,42,113,0
0,62,124,0
0,73,124,120
0,42,0,0
0,61,124,0
0,35,95,4
0,54,95,0
0,59,96,0
0,62,90,0
0,74,125,0
0,36,113,0
0,42,113,0
0,62,125,0
0,36,0,97
0,42,0,0
0,42,113,0
0,35,96,62
0,42,0,0
0,42,113,0
0,42,0,120
0,29,104,110
0,39,90,4
0,40,113,0
0,42,108,0
0,29,0,110
0,40,0,0
0,42,0,0
0,35,96,30
0,69,125,0
0,36,113,0
0,42,113,0
0,57,125,0
0,36,0,71
0,42,0,0
0,35,96,120
0,42,113,0
0,42,0,120
0,35,96,60
0,36,113,0
0,46,113,0
0,36,0,120
0,46,0,0
0,29,104,110
0,39,90,4
0,40,113,0
0,42,113,0
0,29,0,27
0,40,0,0
0,42,0,0
0,35,91,120
0,74,124,0
0,42,113,0
0,62,124,0
0,73,116,120
0,42,0,0
0,61,116,0
0,31,96,4
0,55,90,0
0,59,95,0
0,62,93,0
0,74,125,0
0,36,113,0
0,42,113,0
0,62,125,0
0,36,0,89
0,42,0,0
0,42,108,0
0,31,92,35
0,42,0,0
0,42,113,0
0,42,0,120
0,29,104,4
0,39,90,0
0,40,113,0
0,42,108,0
0,29,0,0
0,40,0,0
0,42,0,0
0,31,95,31
0,69,125,0
0,36,113,0
0,42,113,0
0,57,125,0
0,36,0,71
0,42,0,0
0,31,96,120
0,42,113,0
0,42,0,61
0,69,78,38
0,57,78,0
0,31,94,17
0,71,117,0
0,46,113,0
0,59,117,0
0,46,0,2
0,29,104,4
0,39,90,0
0,40,113,0
0,42,117,0
0,29,0,0
0,40,0,0
0,42,0,0
0,31,94,46
0,69,125,0
0,42,113,0
0,57,125,0
0,42,0,120
0,33,95,4
0,52,94,0
0,57,96,0
0,61,92,0
0,36,113,0
0,42,113,0
0,36,0,120
0,42,0,0
0,42,113,0
0,33,96,58
0,42,0,0
0,42,113,0
0,42,0,120
0,29,104,4
0,39,90,0
0,40,113,0
0,42,108,0
0,29,0,0
0,40,0,0
0,42,0,0
0,33,94,120
0,36,113,0
0,42,113,0
0,36,0,71
0,42,0,0
0,33,94,120
0,42,113,0
0,42,0,120
0,33,96,21
0,36,113,0
0,46,113,0
0,36,0,120
0,46,0,0
0,64,127,4
0,29,104,0
0,39,90,0
0,40,113,0
0,42,113,0
0,52,127,0
0,29,0,0
0,40,0,0
0,42,0,0
0,33,97,120
0,42,113,0
0,42,0,16
0,75,83,110
0,63,83,0
0,33,97,4
0,52,90,0
0,57,95,0
0,61,90,0
0,76,124,0
0,36,113,0
0,42,113,0
0,49,68,0
0,64,124,0
0,36,0,55
0,42,0,0
0,42,108,0
0,49,0,0
0,33,96,82
0,42,0,0
0,42,113,0
0,42,0,120
0,29,104,4
0,39,90,0
0,40,113,0
0,42,108,0
0,29,0,0
0,40,0,0
0,42,0,0
0,33,97,120
0,73,126,0
0,36,113,0
0,42,113,0
0,61,126,0
0,61,105,7
0,36,0,71
0,42,0,0
0,33,97,120
0,42,113,0
0,59,104,6
0,42,0,103
0,33,96,4
0,46,113,0
0,57,108,6
0,46,0,114
0,29,104,4
0,39,90,0
0,40,113,0
0,42,117,0
0,29,0,0
0,40,0,0
0,42,0,0
0,33,95,54
0,74,124,0
0,42,113,0
0,62,124,0
0,73,124,120
0,42,0,0
0,61,124,0
0,35,95,4
0,54,95,0
0,59,96,0
0,62,90,0
0,74,125,0
0,36,113,0
0,42,113,0
0,62,125,0
0,36,0,97
0,42,0,0
0,42,113,0
0,35,96,62
0,42,0,0
0,42,113,0
0,42,0,120
0,29,104,4
0,39,90,0
0,40,113,0
0,42,108,0
0,29,0,0
0,40,0,0
0,42,0,0
0,35,96,30
0,69,125,0
0,36,113,0
0,42,113,0
0,57,125,0
0,59,105,7
0,36,0,71
0,42,0,0
0,35,96,11
0,57,104,0
0,42,113,0
0,42,0,120
0,59,94,4
0,35,96,1
0,36,113,0
0,46,113,0
0,36,0,120
0,46,0,0
0,29,104,4
0,39,90,0
0,40,113,0
0,42,113,0
0,29,0,0
0,40,0,0
0,42,0,0
0,35,91,120
0,74,124,0
0,42,113,0
0,62,124,0
0,73,116,120
0,42,0,0
0,61,116,0
0,31,96,4
0,55,90,0
0,59,95,0
0,62,93,0
0,74,125,0
0,36,113,0
0,42,113,0
0,62,125,0
0,36,0,89
0,42,0,0
0,42,108,0
0,31,92,35
0,42,0,0
0,42,113,0
0,42,0,120
0,29,104,4
0,39,90,0
0,40,113,0
0,42,108,0
0,29,0,0
0,40,0,0
0,42,0,0
0,31,95,31
0,69,125,0
0,36,113,0
0,42,113,0
0,57,125,0
0,36,0,71
0,42,0,0
0,31,96,120
0,42,113,0
0,42,0,61
0,69,78,38
0,57,78,0
0,31,94,17
0,71,117,0
0,46,113,0
0,59,117,0
0,46,0,2
0,29,104,4
0,39,90,0
0,40,113,0
0,42,117,0
0,29,0,0
0,40,0,0
0,42,0,0
0,31,94,46
0,69,125,0
0,42,113,0
0,57,125,0
0,42,0,120
0,33,95,4
0,52,94,0
0,57,96,0
0,61,92,0
0,36,113,0
0,46,117,0
0,36,0,120
0,46,0,0
0,61,124,318
0,61,116,106
0,62,120,41
0,61,116,11
0,46,113,10
0,46,0,120
0,29,104,120
0,39,90,0
0,40,113,0
0,29,0,0
0,40,0,0
0,59,122,51
0,33,97,4
0,36,113,0
0,42,113,0
0,57,77,0
0,57,113,13
0,36,0,103
0,42,0,0
0,42,108,0
0,33,96,82
0,42,0,0
0,42,113,0
0,42,0,120
0,29,104,4
0,39,90,0
0,40,113,0
0,42,108,0
0,29,0,0
0,40,0,0
0,42,0,0
0,33,97,120
0,36,113,0
0,42,113,0
0,36,0,71
0,42,0,0
0,33,97,120
0,42,113,0
0,42,0,120
0,33,96,56
0,46,113,0
0,46,0,120
0,61,113,113
0,29,104,4
0,39,90,0
0,40,113,0
0,42,117,0
0,29,0,0
0,40,0,0
0,42,0,0
0,33,95,120
0,42,113,0
0,42,0,71
0,59,114,3
0,35,95,3
0,59,77,0
0,36,113,0
0,42,113,0
0,36,0,120
0,42,0,0
0,42,113,0
0,35,96,62
0,42,0,0
0,42,113,0
0,42,0,120
0,29,104,4
0,39,90,0
0,40,113,0
0,42,108,0
0,29,0,0
0,40,0,0
0,42,0,0
0,35,96,37
0,36,113,0
0,42,113,0
0,36,0,71
0,42,0,0
0,35,96,120
0,42,113,0
0,42,0,120
0,35,96,60
0,36,113,0
0,46,113,0
0,36,0,120
0,46,0,0
0,29,104,4
0,39,90,0
0,40,113,0
0,42,113,0
0,29,0,0
0,40,0,0
0,42,0,0
0,35,91,120
0,42,113,0
0,42,0,71
0,62,122,100
0,31,96,6
0,55,77,0
0,36,113,0
0,42,113,0
0,36,0,120
0,42,0,0
0,42,108,0
0,62,113,29
0,31,92,6
0,42,0,0
0,42,113,0
0,42,0,12
0,62,120,114
0,29,104,4
0,39,90,0
0,40,113,0
0,42,108,0
0,29,0,0
0,40,0,0
0,42,0,0
0,62,111,86
0,31,95,34
0,36,113,0
0,42,113,0
0,36,0,5
0,42,0,0
0,62,120,106
0,31,96,14
0,42,113,0
0,42,0,120
0,31,94,55
0,46,113,0
0,46,0,120
0,64,110,16
0,29,104,4
0,39,90,0
0,40,113,0
0,42,117,0
0,29,0,0
0,40,0,0
0,42,0,0
0,64,117,104
0,31,94,16
0,42,113,0
0,42,0,71
0,33,95,6
0,57,77,0
0,36,113,0
0,42,113,0
0,61,121,4
0,36,0,76
0,42,0,0
0,42,113,0
0,33,96,58
0,42,0,0
0,42,113,0
0,42,0,35
0,61,124,112
0,29,104,4
0,39,90,0
0,40,113,0
0,42,108,0
0,29,0,0
0,40,0,0
0,42,0,0
0,61,110,103
0,33,94,10
0,36,113,0
0,42,113,0
0,36,0,71
0,42,0,0
0,62,110,60
0,33,94,20
0,42,113,0
0,42,0,120
0,61,116,34
0,33,96,23
0,36,113,0
0,46,113,0
0,36,0,120
0,46,0,0
0,29,104,4
0,39,90,0
0,40,113,0
0,42,113,0
0,29,0,0
0,40,0,0
0,42,0,0
0,59,110,86
0,33,97,5
0,42,113,0
0,42,0,71
0,57,111,22
0,33,97,9
0,36,113,0
0,42,113,0
0,57,77,4
0,36,0,116
0,42,0,0
0,42,108,0
0,33,96,82
0,42,0,0
0,42,113,0
0,42,0,120
0,29,104,4
0,39,90,0
0,40,113,0
0,42,108,0
0,29,0,0
0,40,0,0
0,42,0,0
0,33,97,120
0,36,113,0
0,42,113,0
0,36,0,71
0,42,0,0
0,33,97,120
0,42,113,0
0,42,0,120
0,33,96,56
0,46,113,0
0,46,0,120
0,61,110,104
0,29,104,4
0,39,90,0
0,40,113,0
0,42,117,0
0,29,0,0
0,40,0,0
0,42,0,0
0,33,95,120
0,42,113,0
0,42,0,35
0,59,114,4
0,35,95,2
0,59,77,0
0,36,113,0
0,42,113,0
0,36,0,120
0,42,0,0
0,42,113,0
0,35,96,62
0,42,0,0
0,42,113,0
0,42,0,120
0,29,104,4
0,39,90,0
0,40,113,0
0,42,108,0
0,29,0,0
0,40,0,0
0,42,0,0
0,35,96,120
0,36,113,0
0,42,113,0
0,36,0,71
0,42,0,0
0,35,96,120
0,42,113,0
0,42,0,120
0,35,96,60
0,36,113,0
0,46,113,0
0,36,0,120
0,46,0,0
0,29,104,4
0,39,90,0
0,40,113,0
0,42,113,0
0,29,0,0
0,40,0,0
0,42,0,0
0,35,91,120
0,42,113,0
0,42,0,71
0,62,116,94
0,31,96,6
0,55,77,0
0,36,113,0
0,42,113,0
0,36,0,9
0,42,0,0
0,42,108,0
0,62,114,3
0,31,92,32
0,42,0,0
0,42,113,0
0,42,0,38
0,62,115,96
0,29,104,4
0,39,90,0
0,40,113,0
0,42,108,0
0,29,0,0
0,40,0,0
0,42,0,0
0,62,122,85
0,31,95,35
0,36,113,0
0,42,113,0
0,36,0,64
0,42,0,0
0,62,114,95
0,31,96,25
0,42,113,0
0,42,0,120
0,31,94,55
0,46,113,0
0,46,0,120
0,29,104,4
0,39,90,0
0,40,113,0
0,42,117,0
0,61,110,4
0,29,0,0
0,40,0,0
0,42,0,0
0,59,116,53
0,31,94,23
0,42,113,0
0,42,0,71
0,57,111,4
0,33,95,6
0,57,77,0
0,36,113,0
0,42,113,0
0,36,0,120
0,42,0,0
0,42,113,0
0,33,96,0
0,42,0,0
0,42,113,0
0,61,110,4
0,42,0,48
0,61,110,97
0,29,104,4
0,39,90,0
0,40,113,0
0,42,108,0
0,29,0,0
0,40,0,0
0,42,0,0
0,61,110,94
0,33,94,26
0,36,113,0
0,42,113,0
0,36,0,71
0,42,0,0
0,62,111,59
0,33,94,2
0,42,113,0
0,42,0,120
0,33,96,57
0,36,113,0
0,46,113,0
0,64,114,14
0,36,0,106
0,46,0,0
0,29,104,4
0,39,90,0
0,40,113,0
0,42,113,0
0,29,0,0
0,40,0,0
0,42,0,0
0,64,110,114
0,33,97,6
0,42,113,0
0,42,0,71
0,61,116,4
0,33,97,5
0,52,90,0
0,57,95,0
0,61,90,0
0,36,113,0
0,42,113,0
0,49,68,0
0,57,77,4
0,36,0,116
0,42,0,0
0,42,108,0
0,49,0,0
0,33,96,82
0,42,0,0
0,42,113,0
0,42,0,120
0,29,104,4
0,39,90,0
0,40,113,0
0,42,108,0
0,29,0,0
0,40,0,0
0,42,0,0
0,33,97,120
0,36,113,0
0,42,113,0
0,36,0,71
0,42,0,0
0,33,97,120
0,42,113,0
0,42,0,120
0,52,113,27
0,33,96,29
0,46,113,0
0,46,0,120
0,61,111,23
0,29,104,4
0,39,90,0
0,40,113,0
0,42,117,0
0,29,0,0
0,40,0,0
0,42,0,0
0,33,95,22
0,42,113,0
0,42,0,71
0,59,114,114
0,35,95,4
0,54,95,0
0,59,96,0
0,62,90,0
0,59,77,0
0,36,113,0
0,42,113,0
0,36,0,120
0,42,0,0
0,42,113,0
0,35,96,62
0,42,0,0
0,42,113,0
0,42,0,120
0,29,104,4
0,39,90,0
0,40,113,0
0,42,108,0
0,29,0,0
0,40,0,0
0,42,0,0
0,35,96,120
0,36,113,0
0,42,113,0
0,36,0,71
0,42,0,0
0,35,96,120
0,42,113,0
0,42,0,120
0,35,96,60
0,36,113,0
0,46,113,0
0,36,0,120
0,46,0,0
0,29,104,4
0,39,90,0
0,40,113,0
0,42,113,0
0,29,0,0
0,40,0,0
0,42,0,0
0,57,113,98
0,35,91,22
0,42,113,0
0,42,0,71
0,62,111,28
0,31,96,4
0,55,90,0
0,59,95,0
0,62,93,0
0,55,77,0
0,36,113,0
0,42,113,0
0,36,0,120
0,42,0,0
0,42,108,0
0,62,111,23
0,31,92,12
0,42,0,0
0,42,113,0
0,42,0,29
0,62,113,110
0,29,104,4
0,39,90,0
0,40,113,0
0,42,108,0
0,29,0,0
0,40,0,0
0,42,0,0
0,62,114,105
0,31,95,15
0,36,113,0
0,42,113,0
0,36,0,42
0,42,0,0
0,62,112,105
0,31,96,15
0,42,113,0
0,42,0,120
0,31,94,55
0,46,113,0
0,61,112,11
0,46,0,109
0,29,104,4
0,39,90,0
0,40,113,0
0,42,117,0
0,29,0,0
0,40,0,0
0,42,0,0
0,59,110,102
0,31,94,18
0,42,113,0
0,42,0,71
0,57,112,20
0,33,95,4
0,52,94,0
0,57,96,0
0,61,92,0
0,57,77,0
0,36,113,0
0,42,113,0
0,36,0,120
0,42,0,0
0,42,113,0
0,33,96,58
0,42,0,0
0,42,113,0
0,42,0,116
0,61,121,112
0,29,104,4
0,39,90,0
0,40,113,0
0,42,108,0
0,29,0,0
0,40,0,0
0,42,0,0
0,61,112,95
0,33,94,25
0,36,113,0
0,42,113,0
0,36,0,71
0,42,0,0
0,62,114,28
0,33,94,4
0,42,113,0
0,42,0,120
0,61,110,49
0,33,96,8
0,36,113,0
0,46,113,0
0,36,0,120
0,46,0,0
0,29,104,4
0,39,90,0
0,40,113,0
0,42,113,0
0,29,0,0
0,40,0,0
0,42,0,0
0,59,112,113
0,33,97,7
0,42,113,0
0,42,0,71
0,33,97,4
0,52,90,0
0,57,95,0
0,61,90,0
0,36,113,0
0,42,113,0
0,57,77,4
0,57,111,4
0,36,0,111
0,42,0,0
0,42,108,0
0,33,96,82
0,42,0,0
0,42,113,0
0,42,0,5
0,29,104,4
0,39,90,0
0,40,113,0
0,42,108,0
0,29,0,0
0,40,0,0
0,42,0,0
0,33,97,120
0,36,113,0
0,42,113,0
0,36,0,71
0,42,0,0
0,33,97,120
0,42,113,0
0,42,0,120
0,33,96,56
0,46,113,0
0,46,0,120
0,61,110,109
0,29,104,4
0,39,90,0
0,40,113,0
0,42,117,0
0,29,0,0
0,40,0,0
0,42,0,0
0,33,95,120
0,42,113,0
0,42,0,71
0,59,111,96
0,35,95,4
0,54,95,0
0,59,96,0
0,62,90,0
0,59,77,0
0,36,113,0
0,42,113,0
0,36,0,120
0,42,0,0
0,42,113,0
0,35,96,62
0,42,0,0
0,42,113,0
0,42,0,120
0,29,104,4
0,39,90,0
0,40,113,0
0,42,108,0
0,29,0,0
0,40,0,0
0,42,0,0
0,35,96,120
0,36,113,0
0,42,113,0
0,36,0,71
0,42,0,0
0,35,96,120
