track,note,velocity,time
1,61,127,4128
1,59,127,2
1,57,127,2
1,59,127,194
1,57,127,2
1,59,127,2
1,61,127,962
1,61,127,2
1,62,127,2
1,61,127,2
1,59,127,2
1,57,127,2
1,61,127,194
1,59,127,2
1,59,127,2
1,62,127,386
1,62,127,2
1,62,127,2
1,62,127,2
1,62,127,2
1,64,127,2
1,64,127,2
1,61,127,2
1,61,127,50
1,61,127,2
1,62,127,2
1,61,127,2
1,59,127,2
1,57,127,2
1,61,127,194
1,59,127,2
1,59,127,2
1,62,127,386
1,62,127,2
1,62,127,2
1,62,127,2
1,62,127,2
1,61,127,2
1,59,127,2
1,57,127,2
1,61,127,96
1,61,127,2
1,61,127,2
1,62,127,2
1,64,127,2
1,64,127,2
1,61,127,2
1,52,127,194
1,61,127,2
1,59,127,2
1,59,127,2
1,57,127,290
1,62,127,2
1,62,127,2
1,62,127,2
1,62,127,2
1,62,127,2
1,61,127,2
1,59,127,2
1,57,127,2
1,61,127,50
1,61,127,2
1,62,127,2
1,61,127,2
1,59,127,2
1,57,127,2
1,61,127,194
1,59,127,2
1,59,127,2
1,59,127,194
1,55,127,2
1,59,127,2
1,57,127,2
1,61,127,98
1,61,127,2
1,61,127,2
1,62,127,2
1,61,127,2
1,59,127,2
1,57,127,2
1,52,127,98
1,61,127,2
1,59,127,2
1,59,127,2
1,59,127,194
1,55,127,2
1,55,127,2
1,61,127,386
1,61,127,2
1,61,127,2
1,62,127,2
1,61,127,2
1,59,127,2
1,57,127,2
1,52,127,98
1,61,127,2
1,59,127,2
1,59,127,2
1,59,127,194
1,55,127,2
1,55,127,2
1,59,127,194
1,57,127,2
1,57,127,2
1,61,127,2
1,62,127,2
1,61,127,2
1,59,127,2
1,61,127,2
1,61,127,194
1,59,127,2
1,57,127,290
1,62,127,2
1,62,127,2
1,62,127,2
1,62,127,2
1,62,127,2
1,64,127,2
1,64,127,2
1,61,127,2
1,61,127,50
1,61,127,2
1,62,127,2
1,61,127,2
1,59,127,2
1,57,127,2
1,52,127,98
1,61,127,2
1,59,127,2
1,59,127,2
1,57,127,290
1,62,127,2
1,62,127,2
1,62,127,2
1,62,127,2
1,62,127,2
1,61,127,2
1,59,127,2
1,57,127,2
1,61,127,96
1,61,127,2
1,61,127,2
1,62,127,2
1,64,127,2
1,64,127,2
1,61,127,2
1,52,127,194
1,61,127,2
1,59,127,2
1,59,127,2
1,57,127,290
1,62,127,2
1,62,127,2
1,62,127,2
1,62,127,2
1,62,127,2
1,61,127,2
1,59,127,2
1,57,127,2
1,61,127,50
1,61,127,2
1,62,127,2
1,61,127,2
1,59,127,2
1,61,127,2
1,59,127,2
1,57,127,2
1,61,127,194
1,62,127,2
1,61,127,2
1,59,127,2
1,59,127,194
1,55,127,2
1,59,127,2
1,57,127,2
1,57,127,2
1,57,127,2
1,57,127,2
1,61,127,2
1,61,127,2
1,61,127,2
1,62,127,2
1,61,127,2
1,59,127,2
1,57,127,2
1,52,127,98
1,61,127,2
1,59,127,2
1,59,127,2
1,59,127,194
1,55,127,2
1,55,127,2
1,61,127,386
1,61,127,2
1,61,127,2
1,62,127,2
1,61,127,2
1,59,127,2
1,57,127,2
1,52,127,98
1,61,127,2
1,59,127,2
1,59,127,2
1,59,127,194
1,55,127,2
1,55,127,2
1,66,127,98
1,64,127,2
1,64,127,2
1,66,127,2
1,64,127,2
1,66,127,386
1,64,127,2
1,64,127,2
1,66,127,2
1,59,127,50
1,62,127,2
1,59,127,2
1,64,127,2
1,59,127,2
1,59,127,2
1,62,127,2
1,59,127,2
1,59,127,2
1,59,127,242
1,59,127,2
1,59,127,2
1,62,127,2
1,62,127,2
1,62,127,2
1,62,127,2
1,64,127,2
1,66,127,2
1,66,127,50
1,66,127,2
1,64,127,2
1,64,127,2
1,66,127,2
1,62,127,146
1,59,127,2
1,64,127,2
1,59,127,2
1,59,127,2
1,59,127,98
1,62,127,2
1,59,127,2
1,62,127,2
1,64,127,2
1,62,127,2
1,59,127,2
1,59,127,2
1,57,127,2
1,61,127,866
1,59,127,2
1,57,127,2
1,59,127,194
1,57,127,2
1,59,127,2
1,66,127,770
1,64,127,2
1,64,127,2
1,66,127,2
1,64,127,2
1,61,127,2402
1,61,127,2
1,61,127,2
1,62,127,2
1,64,127,2
1,64,127,2
1,61,127,2
1,52,127,98
1,61,127,2
1,59,127,2
1,59,127,2
1,57,127,290
1,62,127,2
1,62,127,2
1,62,127,2
1,62,127,2
1,62,127,2
1,61,127,2
1,59,127,2
1,57,127,2
1,61,127,50
1,61,127,2
1,62,127,2
1,61,127,2
1,59,127,2
1,57,127,2
1,61,127,194
1,59,127,2
1,59,127,2
1,59,127,194
1,55,127,2
1,59,127,2
1,57,127,2
1,61,127,194
1,61,127,2
1,61,127,2
1,62,127,2
1,61,127,2
1,59,127,2
1,57,127,2
1,52,127,98
1,61,127,2
1,59,127,2
1,59,127,2
1,59,127,194
1,55,127,2
1,55,127,2
1,61,127,386
1,61,127,2
1,61,127,2
1,62,127,2
1,61,127,2
1,59,127,2
1,57,127,2
1,52,127,98
1,61,127,2
1,59,127,2
1,59,127,2
1,59,127,194
1,55,127,2
1,55,127,2
1,61,127,482
1,61,127,2
1,61,127,2
1,62,127,2
1,64,127,2
1,64,127,2
1,64,127,2
1,61,127,2
1,61,127,2018
1,61,127,2
1,61,127,2
1,62,127,2
1,61,127,2
1,59,127,2
1,57,127,2
1,52,127,98
1,61,127,2
1,59,127,2
1,59,127,2
1,59,127,194
1,55,127,2
1,55,127,2
1,59,127,194
1,57,127,2
1,57,127,2
2,57,102,19296
2,69,102,0
2,57,102,2
2,69,102,0
2,57,102,2
2,69,102,0
2,57,102,2
2,69,102,0
2,57,102,2
2,69,102,0
2,57,102,2
2,69,102,0
2,52,102,2
2,64,102,0
2,57,102,98
2,69,102,0
2,57,102,2
2,69,102,0
2,57,102,2
2,69,102,0
2,57,102,2
2,69,102,0
2,59,102,2
2,71,102,0
2,59,102,2
2,71,102,0
2,59,102,2
2,71,102,0
2,57,102,98
2,69,102,0
2,57,102,2
2,69,102,0
2,57,102,2
2,69,102,0
2,57,102,2
2,69,102,0
2,52,102,2
2,64,102,0
2,59,102,2
2,71,102,0
2,57,102,2
2,69,102,0
2,57,102,2
2,69,102,0
2,57,102,290
2,69,102,0
2,57,102,2
2,69,102,0
2,57,102,2
2,69,102,0
2,57,102,2
2,69,102,0
2,52,102,2
2,64,102,0
2,57,102,2
2,69,102,0
2,52,102,2
2,64,102,0
2,57,102,98
2,69,102,0
2,57,102,2
2,69,102,0
2,57,102,2
2,69,102,0
2,57,102,2
2,69,102,0
2,59,102,2
2,71,102,0
2,59,102,2
2,71,102,0
2,57,102,194
2,69,102,0
2,57,102,2
2,69,102,0
2,57,102,2
2,69,102,0
2,57,102,2
2,69,102,0
2,52,102,2
2,64,102,0
2,59,102,2
2,71,102,0
2,57,102,2
2,69,102,0
2,57,102,2
2,69,102,0
2,66,102,8162
2,66,102,2
2,66,102,2
2,66,102,2
2,66,102,2
2,64,102,2
2,62,102,2
2,61,102,2
2,64,102,2930
2,64,102,2
2,64,102,2
2,66,102,2
2,64,102,2
2,62,102,2
2,61,102,2
2,57,102,96
2,69,102,0
2,57,102,2
2,69,102,0
2,57,102,2
2,69,102,0
2,57,102,2
2,69,102,0
2,57,102,2
2,69,102,0
2,64,102,2
2,57,102,0
2,69,102,0
2,62,102,2
2,52,102,0
2,64,102,0
2,62,102,2
2,57,102,96
2,69,102,0
2,57,102,2
2,69,102,0
2,57,102,2
2,69,102,0
2,57,102,2
2,69,102,0
2,59,102,2
2,71,102,0
2,62,102,2
2,59,102,0
2,71,102,0
2,59,102,2
2,59,102,0
2,71,102,0
2,59,102,2
2,57,102,96
2,69,102,0
2,57,102,2
2,69,102,0
2,57,102,2
2,69,102,0
2,57,102,2
2,69,102,0
2,52,102,2
2,64,102,0
2,59,102,2
2,71,102,0
2,57,102,2
2,69,102,0
2,64,102,2
2,69,102,0
2,57,102,0
2,64,102,2
2,64,102,2
2,66,102,2
2,64,102,2
2,62,102,2
2,61,102,2
2,57,102,96
2,69,102,0
2,57,102,2
2,69,102,0
2,57,102,2
2,69,102,0
2,57,102,2
2,69,102,0
2,52,102,2
2,64,102,0
2,64,102,2
2,57,102,0
2,69,102,0
2,62,102,2
2,52,102,0
2,64,102,0
2,62,102,2
2,57,102,96
2,69,102,0
2,57,102,2
2,69,102,0
2,57,102,2
2,69,102,0
2,57,102,2
2,69,102,0
2,71,102,2
2,59,102,0
2,62,102,2
2,59,102,0
2,71,102,0
2,59,102,2
2,59,102,2
2,62,102,1250
2,61,102,2
2,61,102,2
2,62,102,2
2,59,102,1538
2,59,102,2
2,59,102,2
2,59,102,2
2,59,102,2
2,59,102,2
2,59,102,2
2,61,102,2
2,62,102,2
2,62,102,146
2,61,102,2
2,61,102,2
2,62,102,2
2,59,102,818
2,62,102,2
2,59,102,2
2,62,102,2
2,64,102,2
2,62,102,2
2,59,102,2
2,59,102,2
2,57,102,2
2,57,102,3746
2,61,102,0
2,59,102,2
2,62,102,0
2,61,102,2
2,64,102,0
2,59,102,2
2,62,102,0
2,57,102,2
2,61,102,0
2,57,102,2
2,61,102,0
2,54,102,2
2,57,102,0
2,57,102,98
2,61,102,0
2,59,102,2
2,62,102,0
2,61,102,2
2,64,102,0
2,59,102,2
2,62,102,0
2,57,102,2
2,61,102,0
2,57,102,2
2,61,102,0
2,54,102,2
2,57,102,0
2,57,102,98
2,61,102,0
2,59,102,2
2,62,102,0
2,61,102,2
2,64,102,0
2,59,102,2
2,62,102,0
2,57,102,2
2,61,102,0
2,61,102,2
2,57,102,0
2,52,102,2
2,55,102,0
2,59,102,2
2,62,102,0
2,61,102,2
2,57,102,0
2,64,102,5570
2,64,102,2
2,64,102,2
2,66,102,2
2,64,102,2
2,62,102,2
2,61,102,2
2,57,102,96
2,69,102,0
2,57,102,2
2,69,102,0
2,57,102,2
2,69,102,0
2,57,102,2
2,69,102,0
2,57,102,2
2,69,102,0
2,64,102,2
2,57,102,0
2,69,102,0
2,62,102,2
2,52,102,0
2,64,102,0
2,62,102,2
2,57,102,96
2,69,102,0
2,57,102,2
2,69,102,0
2,57,102,2
2,69,102,0
2,57,102,2
2,69,102,0
2,59,102,2
2,71,102,0
2,62,102,2
2,59,102,0
2,71,102,0
2,59,102,2
2,59,102,0
2,71,102,0
2,59,102,2
2,57,102,96
2,69,102,0
2,57,102,2
2,69,102,0
2,57,102,2
2,69,102,0
2,57,102,2
2,69,102,0
2,52,102,2
2,64,102,0
2,59,102,2
2,71,102,0
2,57,102,2
2,69,102,0
2,64,102,2
2,69,102,0
2,57,102,0
2,64,102,2
2,64,102,2
2,66,102,2
2,64,102,2
2,62,102,2
2,61,102,2
2,57,102,96
2,69,102,0
2,57,102,2
2,69,102,0
2,57,102,2
2,69,102,0
2,57,102,2
2,69,102,0
2,52,102,2
2,64,102,0
2,64,102,2
2,57,102,0
2,69,102,0
2,62,102,2
2,52,102,0
2,64,102,0
2,62,102,2
2,57,102,96
2,69,102,0
2,57,102,2
2,69,102,0
2,57,102,2
2,69,102,0
2,57,102,2
2,69,102,0
2,71,102,2
2,59,102,0
2,62,102,2
2,59,102,0
2,71,102,0
2,59,102,2
2,59,102,2
2,57,102,96
2,69,102,0
2,57,102,2
2,69,102,0
2,57,102,2
2,69,102,0
2,57,102,2
2,69,102,0
2,52,102,2
2,64,102,0
2,59,102,2
2,71,102,0
2,57,102,2
2,69,102,0
2,57,102,2
2,69,102,0
2,57,102,578
2,61,102,0
2,59,102,2
2,62,102,0
2,61,102,2
2,64,102,0
2,59,102,2
2,62,102,0
2,57,102,2
2,61,102,0
2,57,102,2
2,61,102,0
2,54,102,2
2,57,102,0
2,57,102,98
2,61,102,0
2,59,102,2
2,62,102,0
2,61,102,2
2,64,102,0
2,59,102,2
2,62,102,0
2,57,102,2
2,61,102,0
2,57,102,2
2,61,102,0
2,54,102,2
2,57,102,0
2,57,102,98
2,61,102,0
2,59,102,2
2,62,102,0
2,61,102,2
2,64,102,0
2,59,102,2
2,62,102,0
2,57,102,2
2,61,102,0
2,61,102,2
2,57,102,0
2,52,102,2
2,55,102,0
2,59,102,2
2,62,102,0
2,61,102,2
2,57,102,0
2,57,102,290
2,61,102,0
2,59,102,2
2,62,102,0
2,61,102,2
2,64,102,0
2,59,102,2
2,62,102,0
2,57,102,2
2,61,102,0
2,57,102,2
2,61,102,0
2,54,102,2
2,57,102,0
2,57,102,98
2,61,102,0
2,59,102,2
2,62,102,0
2,61,102,2
2,64,102,0
2,59,102,2
2,62,102,0
2,57,102,2
2,61,102,0
2,57,102,2
2,61,102,0
2,54,102,2
2,57,102,0
3,52,127,576
3,64,127,2
3,62,127,0
3,61,127,2
3,62,127,2
3,61,127,2
3,62,127,2
3,57,127,2
3,62,127,2
3,61,127,2
3,62,127,2
3,57,127,2
3,59,127,2
3,57,127,2
3,52,127,2
3,64,127,2
3,62,127,0
3,61,127,2
3,62,127,2
3,61,127,2
3,62,127,2
3,57,127,2
3,62,127,2
3,61,127,2
3,62,127,2
3,57,127,2
3,59,127,2
3,57,127,2
3,52,127,43070
3,64,127,2
3,62,127,0
3,61,127,2
3,62,127,2
3,61,127,2
3,62,127,2
3,57,127,2
3,62,127,2
3,61,127,2
3,62,127,2
3,57,127,2
3,59,127,2
3,57,127,2
3,52,127,2
3,64,127,2
3,62,127,0
3,61,127,2
3,62,127,2
3,61,127,2
3,62,127,2
3,57,127,2
3,62,127,2
3,61,127,2
3,62,127,2
3,57,127,2
3,59,127,2
3,57,127,2
3,52,127,6146
3,64,127,2
3,62,127,0
3,61,127,2
3,62,127,2
3,61,127,2
3,62,127,2
3,57,127,2
3,62,127,2
3,61,127,2
3,62,127,2
3,57,127,2
3,59,127,2
3,57,127,2
3,52,127,2
3,64,127,2
3,62,127,0
3,61,127,2
3,62,127,2
3,61,127,2
3,62,127,2
3,57,127,2
3,62,127,2
3,61,127,2
3,62,127,2
3,57,127,2
3,59,127,2
3,57,127,2
3,52,127,2
3,64,127,2
3,62,127,0
3,61,127,2
3,62,127,2
3,61,127,2
3,62,127,2
3,57,127,2
3,62,127,2
3,61,127,2
3,62,127,2
3,57,127,2
3,59,127,2
3,57,127,2
3,52,127,2
3,64,127,2
3,62,127,0
3,61,127,2
3,62,127,2
3,61,127,2
3,62,127,2
3,57,127,2
3,62,127,2
3,61,127,2
3,62,127,2
3,57,127,2
3,59,127,2
3,57,127,2
4,33,127,768
4,33,127,2
4,33,127,98
4,33,127,2
4,33,127,2
4,33,127,98
4,35,127,50
4,35,127,2
4,35,127,98
4,35,127,2
4,35,127,2
4,35,127,98
4,31,127,50
4,31,127,2
4,31,127,98
4,31,127,2
4,31,127,2
4,31,127,98
4,33,127,50
4,33,127,2
4,33,127,98
4,33,127,2
4,33,127,2
4,33,127,98
4,33,127,50
4,33,127,2
4,33,127,98
4,33,127,2
4,33,127,2
4,33,127,98
4,35,127,50
4,35,127,2
4,35,127,98
4,35,127,2
4,35,127,2
4,35,127,98
4,31,127,50
4,31,127,2
4,31,127,98
4,31,127,2
4,31,127,2
4,31,127,98
4,33,127,50
4,33,127,674
4,33,127,2
4,33,127,98
4,33,127,2
4,33,127,2
4,33,127,98
4,35,127,50
4,35,127,2
4,35,127,98
4,35,127,2
4,35,127,2
4,35,127,98
4,31,127,50
4,31,127,2
4,31,127,98
4,31,127,2
4,31,127,2
4,31,127,98
4,33,127,50
4,33,127,2
4,33,127,98
4,33,127,2
4,33,127,2
4,33,127,98
4,33,127,50
4,33,127,2
4,33,127,98
4,33,127,2
4,33,127,2
4,33,127,98
4,35,127,50
4,35,127,2
4,35,127,98
4,35,127,2
4,35,127,2
4,35,127,98
4,31,127,50
4,31,127,2
4,31,127,98
4,31,127,2
4,31,127,2
4,31,127,98
4,33,127,50
4,33,127,2
4,33,127,98
4,33,127,2
4,33,127,2
4,33,127,98
