track,note,velocity,time
0,77,110,480
0,53,51,0
0,57,51,0
0,60,51,0
0,84,39,0
0,77,0,60
0,67,110,0
0,67,44,60
0,67,0,60
0,67,0,0
0,72,110,0
0,72,44,0
0,53,0,240
0,57,0,0
0,60,0,30
0,72,0,30
0,76,110,0
0,64,51,0
0,55,51,0
0,60,51,0
0,76,0,60
0,67,110,0
0,72,0,60
0,67,44,0
0,67,0,60
0,67,0,0
0,72,110,0
0,72,44,0
0,55,0,90
0,64,0,30
0,60,0,0
0,55,51,0
0,57,51,60
0,55,0,30
0,60,51,30
0,57,0,30
0,60,0,30
0,76,110,0
0,57,51,0
0,60,51,0
0,64,51,0
0,72,0,30
0,76,0,30
0,67,110,0
0,72,0,90
0,67,0,30
0,72,110,0
0,72,44,0
0,72,0,120
0,69,44,0
0,60,0,90
0,64,0,0
0,57,0,0
0,74,110,90
0,55,51,0
0,60,51,0
0,62,51,0
0,72,0,30
0,84,0,30
0,86,39,0
0,67,44,0
0,69,0,2
0,86,0,58
0,60,0,0
0,67,0,0
0,88,39,0
0,72,44,0
0,72,0,60
0,86,39,0
0,71,44,0
0,88,0,30
0,59,51,30
0,86,0,60
0,71,0,0
0,84,39,0
0,67,44,0
0,62,0,120
0,59,0,0
0,55,0,30
0,74,0,30
0,67,0,0
0,77,110,0
0,57,51,0
0,60,51,0
0,53,51,0
0,53,51,0
0,57,51,0
0,60,51,0
0,77,0,60
0,67,110,0
0,67,44,60
0,67,0,60
0,67,0,0
0,72,110,0
0,72,44,0
0,65,97,60
0,65,0,60
0,64,97,0
0,64,0,60
0,62,97,0
0,60,0,30
0,57,0,0
0,53,0,0
0,62,0,30
0,64,97,0
0,60,0,60
0,53,0,0
0,72,0,0
0,57,0,0
0,76,110,0
0,55,51,0
0,60,51,0
0,64,51,0
0,55,51,0
0,60,51,0
0,64,51,0
0,76,0,60
0,67,110,0
0,72,0,60
0,67,44,0
0,67,0,60
0,67,0,0
0,72,110,0
0,72,44,0
0,64,0,30
0,64,97,30
0,55,0,30
0,55,0,0
0,64,0,30
0,64,0,0
0,60,0,0
0,65,97,0
0,55,51,0
0,55,51,0
0,60,0,60
0,64,0,0
0,67,97,0
0,57,51,0
0,57,51,0
0,55,0,30
0,65,0,0
0,55,0,30
0,67,0,0
0,60,97,0
0,60,51,0
0,60,51,0
0,60,0,30
0,57,0,0
0,57,0,0
0,72,0,30
0,60,0,0
0,76,110,0
0,57,51,0
0,64,51,0
0,60,51,0
0,57,51,0
0,60,51,0
0,64,51,0
0,76,0,60
0,67,110,0
0,72,0,90
0,67,0,30
0,72,110,0
0,72,44,0
0,72,0,120
0,69,44,0
0,60,0,60
0,57,97,0
0,60,0,30
0,57,0,0
0,64,0,0
0,57,0,30
0,60,97,0
0,60,0,60
0,72,0,0
0,64,0,0
0,57,0,0
0,74,110,0
0,55,51,0
0,60,51,0
0,62,51,0
0,55,51,0
0,60,51,0
0,62,51,0
0,84,0,60
0,60,0,0
0,69,0,0
0,62,97,0
0,86,39,0
0,67,44,0
0,67,0,60
0,86,0,0
0,60,0,0
0,62,0,0
0,62,97,0
0,88,39,0
0,72,44,0
0,62,0,30
0,64,97,0
0,64,0,30
0,72,0,0
0,88,0,0
0,62,97,0
0,86,39,0
0,71,44,0
0,60,0,30
0,59,51,30
0,59,51,0
0,71,0,60
0,86,0,0
0,62,0,0
0,60,97,0
0,84,39,0
0,67,44,0
0,46,90,0
0,46,0,30
0,60,127,30
0,39,127,0
0,40,90,0
0,42,90,0
0,42,0,30
0,40,0,0
0,60,0,30
0,62,127,0
0,62,0,60
0,39,0,0
0,84,0,0
0,59,0,0
0,74,0,0
0,55,0,0
0,55,0,0
0,62,0,0
0,67,0,0
0,59,0,0
0,60,0,0
0,57,51,0
0,64,51,0
0,60,51,0
0,64,127,0
0,33,80,0
0,36,90,0
0,46,90,0
0,46,0,30
0,36,0,0
0,62,0,0
0,64,0,30
0,33,0,0
0,62,127,0
0,33,80,0
0,42,90,0
0,42,0,30
0,62,0,0
0,33,0,30
0,62,127,0
0,39,127,0
0,40,90,0
0,42,90,0
0,42,0,30
0,40,0,0
0,62,0,30
0,60,127,0
0,33,80,0
0,36,90,0
0,42,90,0
0,42,0,30
0,36,0,0
0,60,0,0
0,33,0,0
0,39,0,30
0,60,127,0
0,33,80,0
0,42,90,0
0,42,0,30
0,60,0,30
0,33,0,0
0,59,127,0
0,33,80,0
0,36,90,0
0,46,90,0
0,46,0,30
0,59,0,0
0,36,0,0
0,33,0,30
0,59,127,0
0,39,127,0
0,40,90,0
0,42,90,0
0,42,0,30
0,60,0,0
0,57,0,0
0,64,0,0
0,40,0,0
0,59,0,30
0,52,127,0
0,33,80,0
0,42,90,0
0,42,0,30
0,33,0,0
0,52,0,30
0,39,0,0
0,53,51,0
0,57,51,0
0,60,51,0
0,53,127,0
0,29,80,0
0,46,90,0
0,36,90,0
0,36,0,30
0,46,0,0
0,29,0,30
0,29,80,0
0,42,90,0
0,42,0,30
0,53,0,0
0,64,127,0
0,29,0,30
0,39,127,0
0,40,90,0
0,42,90,0
0,42,0,30
0,40,0,0
0,64,0,30
0,62,127,0
0,29,80,0
0,36,90,0
0,42,90,0
0,42,0,30
0,36,0,0
0,29,0,0
0,39,0,30
0,29,80,0
0,42,90,0
0,42,0,30
0,29,0,30
0,29,80,0
0,46,90,0
0,36,90,0
0,36,0,30
0,62,0,0
0,46,0,0
0,60,0,30
0,53,0,0
0,57,0,0
0,29,0,0
0,39,127,0
0,40,100,0
0,42,100,0
0,42,0,30
0,40,0,0
0,55,127,30
0,29,80,0
0,42,100,0
0,42,0,30
0,29,0,0
0,55,0,0
0,39,0,30
0,55,51,0
0,59,51,0
0,62,51,0
0,62,127,0
0,31,80,0
0,36,100,0
0,46,100,0
0,46,0,30
0,36,0,0
0,62,0,30
0,31,0,0
0,62,127,0
0,31,80,0
0,42,100,0
0,42,0,30
0,62,0,30
0,31,0,0
0,62,127,0
0,39,127,0
0,40,100,0
0,42,100,0
0,42,0,30
0,40,0,0
0,62,0,30
0,62,127,0
0,31,80,0
0,36,100,0
0,42,100,0
0,42,0,30
0,36,0,0
0,31,0,0
0,39,0,30
0,31,80,0
0,42,100,0
0,42,0,30
0,62,0,0
0,31,0,30
0,64,127,0
0,31,80,0
0,36,100,0
0,46,100,0
0,46,0,30
0,36,0,0
0,55,0,30
0,62,0,0
0,59,0,0
0,31,0,0
0,64,0,0
0,65,127,0
0,39,127,0
0,40,100,0
0,42,100,0
0,42,0,30
0,40,0,0
0,65,0,0
0,65,127,30
0,31,80,0
0,42,100,0
0,42,0,30
0,31,0,0
0,65,0,30
0,39,0,0
0,55,51,0
0,60,51,0
0,64,51,0
0,64,127,0
0,36,80,0
0,46,100,0
0,36,100,0
0,36,0,30
0,46,0,0
0,36,0,30
0,36,80,0
0,42,100,0
0,42,0,30
0,36,0,30
0,39,127,0
0,40,100,0
0,42,100,0
0,42,0,30
0,40,0,0
0,36,80,30
0,36,100,0
0,42,100,0
0,42,0,30
0,36,0,0
0,60,0,0
0,36,0,0
0,64,0,30
0,39,0,0
0,64,0,0
0,59,51,0
0,62,51,0
0,35,80,0
0,42,100,0
0,42,0,30
0,35,0,30
0,35,80,0
0,46,100,0
0,36,100,0
0,36,0,30
0,46,0,0
0,35,0,30
0,33,80,0
0,39,127,0
0,40,100,0
0,42,100,0
0,42,0,30
0,40,0,0
0,59,0,30
0,62,0,0
0,55,0,0
0,33,0,0
0,31,80,0
0,42,100,0
0,42,0,30
0,31,0,30
0,39,0,0
0,57,51,0
0,60,51,0
0,64,51,0
0,64,127,0
0,33,80,0
0,36,100,0
0,46,100,0
0,46,0,30
0,36,0,0
0,64,0,30
0,33,0,0
0,62,127,0
0,33,80,0
0,42,100,0
0,42,0,30
0,62,0,0
0,33,0,30
0,62,127,0
0,39,127,0
0,40,100,0
0,42,100,0
0,42,0,30
0,40,0,0
0,62,0,30
0,60,127,0
0,33,80,0
0,36,100,0
0,42,100,0
0,42,0,30
0,36,0,0
0,60,0,0
0,33,0,0
0,39,0,30
0,60,127,0
0,33,80,0
0,42,100,0
0,42,0,30
0,60,0,30
0,33,0,0
0,59,127,0
0,33,80,0
0,36,100,0
0,46,100,0
0,46,0,30
0,59,0,0
0,36,0,0
0,33,0,30
0,59,127,0
0,39,127,0
0,40,100,0
0,42,100,0
0,42,0,30
0,64,0,0
0,57,0,0
0,60,0,0
0,40,0,0
0,59,0,30
0,52,127,0
0,33,80,0
0,42,100,0
0,42,0,30
0,33,0,0
0,52,0,30
0,39,0,0
0,53,51,0
0,57,51,0
0,60,51,0
0,53,127,0
0,29,80,0
0,46,100,0
0,36,100,0
0,36,0,30
0,46,0,0
0,29,0,30
0,29,80,0
0,42,100,0
0,42,0,30
0,53,0,0
0,64,127,0
0,29,0,30
0,39,127,0
0,40,100,0
0,42,100,0
0,42,0,30
0,40,0,0
0,64,0,30
0,62,127,0
0,29,80,0
0,36,100,0
0,42,100,0
0,42,0,30
0,36,0,0
0,29,0,0
0,39,0,30
0,29,80,0
0,42,100,0
0,42,0,30
0,62,0,0
0,29,0,30
0,64,127,0
0,29,80,0
0,46,100,0
0,36,100,0
0,36,0,30
0,64,0,0
0,46,0,0
0,53,0,30
0,29,0,0
0,39,127,0
0,40,100,0
0,42,100,0
0,42,0,30
0,60,0,0
0,57,0,0
0,40,0,0
0,29,80,30
0,42,100,0
0,42,0,30
0,29,0,0
0,39,0,30
0,55,51,0
0,59,51,0
0,62,51,0
0,62,127,0
0,31,80,0
0,36,100,0
0,46,100,0
0,46,0,30
0,36,0,0
0,62,0,30
0,31,0,0
0,62,127,0
0,31,80,0
0,42,100,0
0,42,0,30
0,62,0,30
0,31,0,0
0,62,127,0
0,39,127,0
0,40,100,0
0,42,100,0
0,42,0,30
0,40,0,0
0,62,0,30
0,62,127,0
0,31,80,0
0,36,100,0
0,42,100,0
0,42,0,30
0,36,0,0
0,31,0,0
0,39,0,30
0,31,80,0
0,42,100,0
0,42,0,30
0,62,0,0
0,31,0,30
0,64,127,0
0,31,80,0
0,36,100,0
0,46,100,0
0,46,0,30
0,36,0,0
0,55,0,30
0,62,0,0
0,59,0,0
0,31,0,0
0,64,0,0
0,65,127,0
0,39,127,0
0,40,100,0
0,42,100,0
0,42,0,30
0,40,0,0
0,65,0,0
0,65,127,30
0,35,80,0
0,42,100,0
0,42,0,30
0,35,0,0
0,65,0,30
0,39,0,0
0,55,51,0
0,60,51,0
0,64,51,0
0,64,127,0
0,36,80,0
0,46,100,0
0,36,100,0
0,36,0,4
0,46,0,26
0,36,0,0
0,40,80,30
0,42,100,0
0,42,0,30
0,40,0,30
0,40,80,0
0,39,127,0
0,40,100,0
0,42,100,0
0,42,0,30
0,40,0,0
0,64,0,0
0,62,127,0
0,62,0,30
0,79,100,0
0,60,127,0
0,36,100,0
0,42,100,0
0,42,0,30
0,64,0,0
0,36,0,0
0,40,0,0
0,60,0,0
0,60,0,0
0,39,0,30
0,59,51,0
0,62,51,0
0,38,80,0
0,42,100,0
0,42,0,30
0,38,0,30
0,36,80,0
0,46,100,0
0,36,100,0
0,36,0,30
0,46,0,0
0,79,0,30
0,36,0,0
0,72,100,0
0,33,80,0
0,39,127,0
0,40,100,0
0,42,100,0
0,42,0,30
0,40,0,0
0,59,0,0
0,33,0,30
0,55,0,0
0,62,0,0
0,55,127,0
0,31,80,0
0,42,100,0
0,42,0,30
0,55,0,0
0,31,0,30
0,39,0,0
0,57,51,0
0,60,51,0
0,64,51,0
0,64,127,0
0,33,80,0
0,36,100,0
0,46,100,0
0,33,0,12
0,46,0,18
0,36,0,0
0,64,0,30
0,62,127,0
0,33,80,0
0,42,100,0
0,42,0,30
0,62,0,0
0,33,0,0
0,62,127,30
0,33,80,0
0,39,127,0
0,40,100,0
0,42,100,0
0,42,0,30
0,40,0,0
0,62,0,30
0,60,127,0
0,36,100,0
0,42,100,0
0,42,0,30
0,36,0,0
0,60,0,0
0,33,0,0
0,39,0,30
0,60,127,0
0,31,80,0
0,42,100,0
0,42,0,30
0,72,0,0
0,60,0,30
0,31,0,0
0,59,127,0
0,33,80,0
0,36,100,0
0,46,100,0
0,46,0,30
0,59,0,0
0,36,0,0
0,33,0,30
0,71,100,0
0,59,127,0
0,33,80,0
0,39,127,0
0,40,100,0
0,42,100,0
0,42,0,30
0,57,0,0
0,40,0,0
0,60,0,0
0,64,0,0
0,59,0,30
0,71,0,0
0,33,0,0
0,72,100,0
0,52,127,0
0,33,80,0
0,42,100,0
0,42,0,30
0,52,0,30
0,33,0,0
0,39,0,0
0,53,51,0
0,57,51,0
0,60,51,0
0,53,127,0
0,40,80,0
0,46,100,0
0,36,100,0
0,40,0,14
0,36,0,16
0,46,0,0
0,40,80,30
0,42,100,0
0,42,0,30
0,53,0,0
0,40,0,0
0,64,127,0
0,40,80,30
0,39,127,0
0,40,100,0
0,42,100,0
0,42,0,30
0,40,0,0
0,72,0,30
0,64,0,0
0,62,127,0
0,36,100,0
0,42,100,0
0,42,0,30
0,36,0,0
0,40,0,0
0,39,0,30
0,38,80,0
0,42,100,0
0,42,0,30
0,62,0,0
0,38,0,30
0,67,100,0
0,64,127,0
0,36,80,0
0,46,100,0
0,36,100,0
0,36,0,30
0,46,0,0
0,64,0,0
0,67,0,30
0,36,0,0
0,33,80,0
0,39,127,0
0,40,100,0
0,42,100,0
0,42,0,30
0,40,0,0
0,53,0,30
0,57,0,0
0,60,0,0
0,33,0,0
0,67,100,0
0,55,127,0
0,31,80,0
0,42,100,0
0,42,0,30
0,55,0,30
0,31,0,0
0,39,0,0
0,55,51,0
0,59,51,0
0,62,51,0
0,59,127,0
0,62,127,0
0,31,80,0
0,36,100,0
0,46,100,0
0,31,0,12
0,46,0,18
0,36,0,0
0,59,0,30
0,62,0,0
0,59,127,0
0,62,127,0
0,31,80,0
0,42,100,0
0,42,0,30
0,31,0,0
0,59,0,30
0,62,0,0
0,59,127,0
0,62,127,0
0,31,80,0
0,39,127,0
0,40,100,0
0,42,100,0
0,42,0,30
0,40,0,0
0,31,0,30
0,62,0,0
0,59,0,0
0,59,127,0
0,62,127,0
0,31,80,0
0,36,100,0
0,42,100,0
0,42,0,30
0,36,0,0
0,39,0,30
0,31,0,0
0,33,80,0
0,42,100,0
0,42,0,30
0,59,0,0
0,62,0,0
0,33,0,30
0,60,127,0
0,64,127,0
0,31,80,0
0,36,100,0
0,46,100,0
0,46,0,30
0,36,0,0
0,62,0,30
0,60,0,0
0,55,0,0
0,59,0,0
0,31,0,0
0,64,0,0
0,62,127,0
0,65,127,0
0,35,80,0
0,39,127,0
0,40,100,0
0,42,100,0
0,42,0,30
0,65,0,0
0,62,0,0
0,40,0,0
0,35,0,30
0,62,127,0
0,65,127,0
0,31,80,0
0,42,100,0
0,42,0,30
0,39,0,30
0,62,0,0
0,67,0,0
0,31,0,0
0,65,0,0
0,55,51,0
0,60,51,0
0,64,51,0
0,60,127,0
0,64,127,0
0,40,80,0
0,46,100,0
0,36,100,0
0,40,0,6
0,36,0,24
0,46,0,0
0,72,100,30
0,40,80,0
0,42,100,0
0,42,0,30
0,40,0,0
0,60,0,0
0,40,80,30
0,39,127,0
0,40,100,0
0,42,100,0
0,42,0,30
0,40,0,0
0,64,0,0
0,62,127,0
0,62,0,30
0,72,0,0
0,60,0,0
0,64,0,0
0,55,0,0
0,71,100,0
0,60,127,0
0,36,100,0
0,42,100,0
0,42,0,30
0,60,0,0
0,40,0,0
0,36,0,0
0,39,0,30
0,55,51,0
0,59,51,0
0,62,51,0
0,38,80,0
0,42,100,0
0,42,0,30
0,71,0,30
0,38,0,0
0,67,100,0
0,36,80,0
0,46,100,0
0,36,100,0
0,36,0,30
0,46,0,0
0,36,0,30
0,33,80,0
0,39,127,0
0,40,100,0
0,42,100,0
0,42,0,30
0,40,0,0
0,62,0,30
0,59,0,0
0,67,0,0
0,55,0,0
