track,note,velocity,time
1,100,69,10174
1,100,0,120
1,98,69,0
1,98,0,60
1,97,69,0
1,97,0,60
1,95,69,0
1,95,0,60
1,93,69,0
1,93,0,60
1,92,69,0
1,92,0,120
1,93,69,60
1,93,0,120
1,100,69,300
1,100,0,120
1,98,69,0
1,98,0,60
1,97,69,0
1,97,0,60
1,95,69,0
1,95,0,60
1,93,69,0
1,93,0,60
1,92,69,0
1,92,0,120
1,93,69,60
1,93,0,118
1,93,69,62
1,93,0,60
1,92,72,10
1,92,0,50
1,90,72,0
1,90,0,120
1,90,80,840
1,90,0,120
1,93,80,60
1,93,0,120
1,97,80,60
1,97,0,110
1,95,80,10
1,95,0,120
1,93,80,60
1,93,0,120
1,100,69,4140
1,100,0,120
1,98,69,0
1,98,0,60
1,97,69,0
1,97,0,60
1,95,69,0
1,95,0,60
1,93,69,0
1,93,0,60
1,92,69,0
1,92,0,120
1,93,69,60
1,93,0,120
1,100,69,300
1,100,0,120
1,98,69,0
1,98,0,60
1,97,69,0
1,97,0,60
1,95,69,0
1,95,0,60
1,93,69,0
1,93,0,60
1,92,69,0
1,92,0,120
1,93,69,60
1,93,0,118
1,93,69,62
1,93,0,60
1,92,72,10
1,92,0,50
1,90,72,0
1,90,0,120
1,90,80,840
1,90,0,120
1,93,80,60
1,93,0,120
1,97,80,60
1,97,0,110
1,97,80,10
1,97,0,120
1,97,80,60
1,97,0,120
1,61,77,180
1,66,90,60
1,69,77,60
1,73,77,60
1,73,0,180
1,61,0,0
1,66,0,0
1,69,0,0
1,61,94,120
1,64,94,60
1,68,94,60
1,68,0,60
1,69,94,0
1,64,0,120
1,69,0,60
1,61,0,0
1,57,94,120
1,62,94,60
1,66,94,60
1,69,94,60
1,69,0,180
1,57,0,0
1,62,0,0
1,66,0,0
1,62,95,120
1,71,95,0
1,66,95,0
1,66,0,240
1,71,0,0
1,62,0,0
1,61,104,0
1,71,104,0
1,68,104,0
1,76,104,0
1,64,104,0
1,64,0,240
1,68,0,0
1,61,0,0
1,71,0,0
1,76,0,0
1,61,77,0
1,66,90,60
1,69,77,60
1,73,77,60
1,73,0,180
1,61,0,0
1,66,0,0
1,69,0,0
1,61,94,120
1,64,94,60
1,68,94,60
1,68,0,60
1,69,94,0
1,64,0,120
1,69,0,60
1,61,0,0
1,57,94,120
1,62,94,60
1,66,94,60
1,69,94,60
1,69,0,180
1,57,0,0
1,62,0,0
1,66,0,0
1,52,104,120
1,59,104,0
1,69,104,0
1,64,104,0
1,64,0,240
1,52,0,0
1,59,0,0
1,69,0,0
1,52,104,0
1,68,104,0
1,64,104,0
1,76,104,0
1,59,104,0
1,59,0,240
1,64,0,0
1,52,0,0
1,68,0,0
1,76,0,0
1,66,127,1800
1,66,0,60
1,69,127,0
1,69,0,120
1,66,127,900
1,66,0,122
1,69,127,58
1,73,127,180
1,69,0,3
1,73,0,102
1,71,127,15
1,71,0,133
1,78,62,828
1,82,61,1
1,73,62,1
1,73,0,136
1,82,0,15
1,78,0,0
1,78,74,18
1,75,80,1
1,83,76,1
1,75,0,159
1,83,0,13
1,78,0,14
1,78,74,120
1,83,69,0
1,75,66,0
1,78,0,180
1,83,0,2
1,75,0,2
1,78,74,295
1,73,76,2
1,82,69,1
1,73,0,149
1,82,0,11
1,78,0,2
1,78,76,15
1,75,85,1
1,83,72,1
1,75,0,160
1,83,0,4
1,78,0,7
1,83,76,128
1,78,76,0
1,75,75,0
1,75,0,338
1,83,0,3
1,78,0,4
1,78,79,132
1,73,74,2
1,82,66,0
1,73,0,133
1,78,0,19
1,82,0,1
1,78,76,24
1,75,99,0
1,83,74,2
1,75,0,252
1,78,0,14
1,83,0,10
1,78,79,512
1,73,79,2
1,82,63,0
1,73,0,109
1,82,0,7
1,78,0,0
1,83,81,59
1,78,83,0
1,75,82,2
1,75,0,157
1,78,0,8
1,83,0,7
1,90,82,243
1,90,0,120
1,88,82,0
1,88,0,60
1,87,82,0
1,87,0,60
1,85,82,0
1,85,0,60
1,83,82,0
1,83,0,60
1,82,82,0
1,82,0,120
1,83,82,60
1,83,0,120
1,90,82,300
1,90,0,120
1,88,82,0
1,88,0,60
1,87,82,0
1,87,0,60
1,85,82,0
1,85,0,60
1,83,82,0
1,83,0,60
1,82,82,0
1,82,0,120
1,83,82,60
1,83,0,118
1,83,82,62
1,83,0,60
1,82,86,10
1,82,0,50
1,80,86,0
1,80,0,120
1,80,96,840
1,80,0,120
1,83,96,60
1,83,0,120
1,87,96,60
1,87,0,110
1,85,96,10
1,85,0,120
1,83,96,60
1,83,0,120
1,66,69,3060
1,66,0,64
1,68,82,0
1,71,95,58
1,68,0,1
1,85,95,57
1,73,95,0
1,71,0,4
1,73,0,101
1,85,0,0
1,75,95,15
1,87,95,0
1,87,0,120
1,75,0,0
1,73,81,70
1,70,81,60
1,73,0,2
1,70,0,54
1,66,81,2
1,83,95,56
1,71,95,0
1,66,0,3
1,71,0,158
1,83,0,0
1,56,113,134
1,63,72,57
1,68,69,65
1,63,0,22
1,68,0,37
1,63,77,0
1,68,114,60
1,56,0,52
1,68,0,8
1,71,114,0
1,63,0,39
1,63,84,19
1,71,0,51
1,68,57,12
1,70,80,65
1,73,78,0
1,66,68,0
1,63,0,19
1,68,0,16
1,70,0,67
1,73,0,1
1,66,0,1
1,59,68,63
1,63,84,9
1,66,73,12
1,71,95,12
1,59,0,194
1,63,0,10
1,66,0,6
1,71,0,11
2,40,125,6068
2,40,0,8
2,30,123,2
2,30,0,52
2,30,112,2
2,30,0,48
2,30,105,72
2,30,0,28
2,30,123,32
2,30,0,58
2,30,112,2
2,30,0,48
2,30,125,12
2,30,0,14
2,37,112,2
2,37,0,48
2,38,123,12
2,38,0,58
2,38,112,2
2,38,0,48
2,33,123,72
2,33,0,178
2,45,125,2
2,45,0,11
2,30,123,2
2,30,0,58
2,30,112,2
2,30,0,48
2,30,105,72
2,30,0,28
2,30,123,32
2,30,0,58
2,30,112,2
2,30,0,48
2,38,123,132
2,38,0,58
2,38,112,2
2,38,0,48
2,33,123,72
2,33,0,165
2,33,118,15
2,33,0,11
2,30,123,2
2,30,0,58
2,30,112,2
2,30,0,48
2,30,105,72
2,30,0,28
2,30,123,32
2,30,0,58
2,30,112,2
2,30,0,48
2,30,125,12
2,30,0,14
2,37,112,2
2,37,0,48
2,38,123,12
2,38,0,58
2,38,112,2
2,38,0,48
2,33,123,72
2,33,0,178
2,45,125,2
2,45,0,11
2,30,123,2
2,30,0,58
2,30,112,2
2,30,0,48
2,30,105,72
2,30,0,28
2,30,123,32
2,30,0,58
2,30,112,2
2,30,0,48
2,28,125,132
2,28,0,165
2,33,118,15
2,33,0,178
2,38,123,122
2,38,0,58
2,38,112,2
2,38,0,48
2,38,105,72
2,38,0,28
2,38,123,32
2,38,0,58
2,38,112,2
2,38,0,48
2,38,125,12
2,38,0,58
2,38,112,2
2,38,0,48
2,28,123,12
2,28,0,58
2,28,112,2
2,28,0,48
2,30,123,72
2,30,0,178
2,28,112,52
2,28,0,48
2,38,123,0
2,38,0,58
2,38,112,2
2,38,0,48
2,38,105,72
2,38,0,28
2,38,123,32
2,38,0,58
2,38,112,2
2,38,0,48
2,38,125,12
2,38,0,58
2,38,112,2
2,38,0,48
2,28,123,12
2,28,0,58
2,28,112,2
2,28,0,48
2,30,123,72
2,30,0,178
2,28,112,52
2,28,0,48
2,38,123,22
2,38,0,58
2,38,112,2
2,38,0,48
2,38,105,72
2,38,0,28
2,38,123,32
2,38,0,58
2,38,112,2
2,38,0,48
2,38,105,72
2,38,0,28
2,28,123,32
2,28,0,58
2,28,112,2
2,28,0,48
2,30,123,12
2,30,0,14
2,33,126,2
2,33,0,165
2,33,118,15
2,33,0,11
2,30,123,2
2,30,0,58
2,30,112,2
2,30,0,48
2,30,105,72
2,30,0,28
2,30,123,32
2,30,0,58
2,30,112,2
2,30,0,48
2,28,123,132
2,28,0,58
2,28,112,2
2,28,0,48
2,30,123,12
2,30,0,14
2,33,126,2
2,33,0,178
2,30,125,62
2,30,0,57
2,30,123,3
2,30,0,58
2,30,112,2
2,30,0,48
2,30,105,72
2,30,0,28
2,30,123,32
2,30,0,58
2,30,112,2
2,30,0,48
2,30,125,12
2,30,0,14
2,37,112,2
2,37,0,48
2,38,123,12
2,38,0,58
2,38,112,2
2,38,0,48
2,33,123,72
2,33,0,178
2,45,125,2
2,45,0,11
2,30,123,2
2,30,0,58
2,30,112,2
2,30,0,48
2,30,105,72
2,30,0,28
2,30,123,32
2,30,0,58
2,30,112,2
2,30,0,48
2,38,123,132
2,38,0,58
2,38,112,2
2,38,0,48
2,33,123,72
2,33,0,165
2,33,118,15
2,33,0,11
2,30,123,2
2,30,0,58
2,30,112,2
2,30,0,48
2,30,105,72
2,30,0,28
2,30,123,32
2,30,0,58
2,30,112,2
2,30,0,48
2,30,125,12
2,30,0,14
2,37,112,2
2,37,0,48
2,38,123,12
2,38,0,58
2,38,112,2
2,38,0,48
2,33,123,72
2,33,0,178
2,45,125,2
2,45,0,11
2,30,123,2
2,30,0,58
2,30,112,2
2,30,0,48
2,30,105,72
2,30,0,28
2,30,123,32
2,30,0,58
2,30,112,2
2,30,0,48
2,28,125,132
2,28,0,165
2,33,118,15
2,33,0,8
2,40,125,2
2,40,0,11
2,38,123,2
2,38,0,58
2,38,112,2
2,38,0,48
2,38,105,72
2,38,0,28
2,38,123,32
2,38,0,58
2,38,112,2
2,38,0,48
2,38,125,12
2,38,0,58
2,38,112,2
2,38,0,48
2,28,123,12
2,28,0,58
2,28,112,2
2,28,0,48
2,30,123,72
2,30,0,178
2,28,112,52
2,28,0,48
2,38,123,0
2,38,0,58
2,38,112,2
2,38,0,48
2,38,105,72
2,38,0,28
2,38,123,32
2,38,0,58
2,38,112,2
2,38,0,48
2,38,125,12
2,38,0,58
2,38,112,2
2,38,0,48
2,28,123,12
2,28,0,58
2,28,112,2
2,28,0,48
2,30,123,72
2,30,0,178
2,28,112,52
2,28,0,48
2,38,123,22
2,38,0,58
2,38,112,2
2,38,0,48
2,38,105,72
2,38,0,28
2,38,123,32
2,38,0,58
2,38,112,2
2,38,0,48
2,38,105,72
2,38,0,28
2,28,123,32
2,28,0,58
2,28,112,2
2,28,0,48
2,30,123,12
2,30,0,14
2,33,126,2
2,33,0,165
2,33,118,15
2,33,0,11
2,30,123,2
2,30,0,58
2,30,112,2
2,30,0,48
2,30,105,72
2,30,0,28
2,30,123,32
2,30,0,58
2,30,112,2
2,30,0,48
2,37,125,132
2,37,0,1
2,37,126,2
2,37,0,178
2,37,102,2
2,37,0,10
2,28,123,1862
2,28,0,58
2,30,123,2
2,30,0,58
2,30,125,2
2,30,0,135
2,28,123,285
2,28,0,178
2,40,125,2
2,40,0,285
2,38,123,15
2,38,0,58
2,45,112,2
2,45,0,48
2,52,123,10
2,52,0,5
2,50,125,2
2,50,0,225
2,28,123,15
2,28,0,56
2,40,123,2
2,40,0,238
2,40,121,4
2,40,0,4
2,32,121,300
2,32,0,2
2,42,125,1
2,42,0,8
2,28,123,2
2,28,0,58
2,28,112,2
2,28,0,48
2,28,105,72
2,28,0,28
2,28,123,32
2,28,0,58
2,28,112,2
2,28,0,48
2,28,125,12
2,28,0,58
2,28,112,2
2,28,0,48
2,30,123,12
2,30,0,58
2,30,112,2
2,30,0,48
2,32,123,72
2,32,0,178
2,30,112,52
2,30,0,48
2,28,123,0
2,28,0,58
2,28,112,2
2,28,0,48
2,28,105,72
2,28,0,28
2,28,123,32
2,28,0,58
2,28,112,2
2,28,0,48
2,28,125,12
2,28,0,58
2,28,112,2
2,28,0,48
2,30,123,12
2,30,0,58
2,30,112,2
2,30,0,48
2,32,123,72
2,32,0,178
2,30,112,52
2,30,0,48
2,28,123,22
2,28,0,58
2,28,112,2
2,28,0,48
2,28,105,72
2,28,0,28
2,28,123,32
2,28,0,58
2,28,112,2
2,28,0,48
2,28,105,72
2,28,0,28
2,30,123,32
2,30,0,58
2,30,112,2
2,30,0,48
2,32,123,12
2,32,0,14
2,35,125,2
2,35,0,165
2,35,118,15
2,35,0,11
2,32,123,2
2,32,0,58
2,32,112,2
2,32,0,48
2,32,105,72
2,32,0,28
2,32,123,32
2,32,0,58
2,32,112,2
2,32,0,48
2,30,123,132
2,30,0,58
2,30,112,2
2,30,0,48
2,32,123,12
2,32,0,14
2,35,125,2
2,35,0,178
2,32,112,62
2,32,0,57
2,28,123,3
2,28,0,58
2,28,112,2
2,28,0,48
2,28,105,72
2,28,0,28
2,28,123,32
2,28,0,58
2,28,112,2
2,28,0,48
2,28,125,12
2,28,0,58
2,28,112,2
2,28,0,48
2,30,123,12
2,30,0,58
2,30,112,2
2,30,0,48
2,32,123,72
2,32,0,178
2,30,112,52
2,30,0,48
2,28,123,0
2,28,0,58
2,28,112,2
2,28,0,48
2,28,105,72
2,28,0,28
2,28,123,32
2,28,0,58
2,28,112,2
2,28,0,48
2,28,125,12
2,28,0,58
2,28,112,2
2,28,0,48
2,30,123,12
2,30,0,58
2,30,112,2
2,30,0,48
2,32,123,72
2,32,0,178
2,30,112,52
2,30,0,48
2,28,123,22
2,28,0,58
2,28,112,2
2,28,0,48
2,28,105,72
2,28,0,28
2,28,123,32
2,28,0,58
2,28,112,2
2,28,0,48
2,28,105,72
2,28,0,28
2,30,123,32
2,30,0,58
2,30,112,2
2,30,0,48
2,32,123,12
2,32,0,14
2,35,125,2
2,35,0,165
2,35,118,15
2,35,0,11
2,32,123,2
2,32,0,58
2,32,112,2
2,32,0,48
2,32,105,72
2,32,0,28
2,32,123,32
2,32,0,58
2,32,112,2
2,32,0,48
2,30,123,132
2,30,0,58
2,30,112,2
2,30,0,48
2,32,123,12
2,32,0,14
2,35,125,2
2,35,0,178
2,32,112,62
2,32,0,57
2,28,123,3
2,28,0,58
2,28,112,2
2,28,0,48
2,28,105,72
2,28,0,28
2,28,123,32
2,28,0,58
2,28,112,2
2,28,0,48
2,28,125,12
2,28,0,58
2,28,112,2
2,28,0,48
2,30,123,12
2,30,0,58
2,30,112,2
2,30,0,48
2,32,123,72
2,32,0,178
2,30,112,52
2,30,0,48
2,28,123,0
2,28,0,58
2,28,112,2
2,28,0,48
2,28,105,72
2,28,0,28
2,28,123,32
2,28,0,58
2,28,112,2
2,28,0,48
2,28,125,12
2,28,0,58
2,28,112,2
2,28,0,48
2,30,123,12
2,30,0,58
2,30,112,2
2,30,0,48
2,32,123,72
2,32,0,178
2,30,112,52
2,30,0,48
2,28,123,22
2,28,0,58
2,28,112,2
2,28,0,48
2,28,105,72
2,28,0,28
2,28,123,32
2,28,0,58
2,28,112,2
2,28,0,48
2,28,105,72
2,28,0,28
2,30,123,32
2,30,0,58
2,30,112,2
2,30,0,48
2,32,123,12
2,32,0,14
2,35,125,2
2,35,0,165
2,35,118,15
2,35,0,11
2,32,123,2
2,32,0,380
2,30,123,100
2,30,0,2
2,35,118,0
2,35,0,3
2,32,85,2
2,32,0,470
3,66,49,6171
3,73,58,1
3,69,49,1
3,74,72,476
3,73,0,2
3,66,0,167
3,74,0,16
3,73,63,0
3,64,57,1
3,64,0,255
3,66,56,39
3,74,74,481
3,73,0,6
3,66,0,159
3,74,0,16
3,73,66,0
3,64,62,3
3,64,0,260
3,66,58,37
3,74,79,483
3,73,0,5
3,66,0,151
3,74,0,23
3,73,69,0
3,64,69,2
3,64,0,265
3,66,61,34
3,69,0,445
3,66,0,18
3,71,67,12
3,68,61,5
3,64,69,1
3,73,0,2
3,69,74,174
3,73,69,1
3,68,0,2
3,71,0,2
3,73,0,297
3,64,0,4
3,69,0,5
3,66,30,3829
3,73,36,1
3,69,30,1
3,74,45,476
3,73,0,2
3,66,0,167
3,74,0,16
3,73,39,0
3,64,35,1
3,64,0,255
3,66,35,39
3,74,45,481
3,73,0,6
3,66,0,159
3,74,0,16
3,73,41,0
3,64,38,3
3,64,0,260
3,66,36,37
3,74,49,483
3,73,0,5
3,66,0,151
