track,note,velocity,time
3,64,127,2688
3,76,127,80
3,73,127,116
3,74,127,156
3,73,127,20
3,74,127,20
3,69,127,116
3,74,127,156
3,73,127,20
3,74,127,20
3,69,127,116
3,71,127,80
3,69,127,384
3,64,127,116
3,76,127,80
3,73,127,116
3,74,127,156
3,73,127,20
3,74,127,20
3,69,127,116
3,74,127,156
3,73,127,20
3,74,127,20
3,69,127,116
3,71,127,80
3,69,127,384
3,64,127,86132
3,76,127,80
3,73,127,116
3,74,127,156
3,73,127,20
3,74,127,20
3,69,127,116
3,74,127,156
3,73,127,20
3,74,127,20
3,69,127,116
3,71,127,80
3,69,127,384
3,64,127,116
3,76,127,80
3,73,127,116
3,74,127,156
3,73,127,20
3,74,127,20
3,69,127,116
3,74,127,156
3,73,127,20
3,74,127,20
3,69,127,116
3,64,127,80
3,71,127,40
3,69,127,40
3,74,127,27344
3,73,127,20
3,74,127,20
3,69,127,116
3,74,127,156
3,73,127,20
3,74,127,20
3,69,127,116
3,71,127,80
4,45,102,3072
4,45,102,40
4,45,102,424
4,45,102,40
4,47,102,424
4,47,102,40
4,47,102,424
4,47,102,40
4,43,102,424
4,43,102,40
4,43,102,424
4,43,102,40
4,45,102,424
4,45,102,40
4,45,102,424
4,45,102,40
4,45,102,424
4,45,102,40
4,45,102,424
4,45,102,40
4,47,102,424
4,47,102,40
4,47,102,424
4,47,102,40
4,43,102,424
4,43,102,40
4,43,102,424
4,43,102,40
4,45,102,424
4,45,102,1232
4,45,102,0
4,45,102,40
4,45,102,0
4,45,102,424
4,45,102,0
4,45,102,40
4,45,102,0
4,47,102,424
4,47,102,0
4,47,102,40
4,47,102,0
4,47,102,424
4,47,102,0
4,47,102,40
4,47,102,0
4,43,102,424
4,43,102,0
4,43,102,40
4,43,102,0
4,43,102,424
4,43,102,0
4,43,102,40
4,43,102,0
4,45,102,424
4,45,102,0
4,45,102,40
4,45,102,0
4,45,102,424
4,45,102,0
4,45,102,40
4,45,102,0
4,45,102,424
4,45,102,40
4,45,102,424
4,45,102,40
4,47,102,424
4,47,102,40
4,47,102,424
4,47,102,40
4,43,102,424
4,43,102,40
4,43,102,424
4,43,102,40
4,45,102,424
4,45,102,40
4,45,102,424
4,45,102,40
4,45,102,424
4,45,102,40
4,45,102,424
4,45,102,40
4,47,102,424
4,47,102,40
4,47,102,424
4,47,102,40
4,43,102,424
4,43,102,40
4,43,102,424
4,43,102,40
4,45,102,424
4,45,102,40
4,45,102,424
4,45,102,40
4,45,102,424
4,45,102,40
4,45,102,424
4,45,102,40
4,47,102,424
4,47,102,40
4,47,102,424
4,47,102,40
4,43,102,424
4,43,102,40
4,43,102,424
4,43,102,40
4,43,102,424
4,45,102,1232
4,45,102,40
4,45,102,424
4,45,102,40
4,47,102,424
4,47,102,40
4,47,102,424
4,47,102,40
4,43,102,424
4,43,102,40
4,43,102,424
4,43,102,40
4,45,102,424
4,45,102,40
4,45,102,424
4,45,102,40
4,45,102,424
4,45,102,40
4,45,102,424
4,45,102,40
4,47,102,424
4,47,102,40
4,47,102,424
4,47,102,40
4,43,102,424
4,43,102,40
4,43,102,424
4,43,102,40
4,45,102,424
4,45,102,40
4,45,102,424
4,45,102,40
4,45,102,424
4,45,102,40
4,45,102,424
4,45,102,40
4,47,102,424
4,47,102,40
4,47,102,424
4,47,102,40
4,43,102,424
4,43,102,40
4,43,102,424
4,43,102,40
4,45,102,424
4,45,102,40
4,45,102,424
4,45,102,40
4,45,102,424
4,45,102,40
4,45,102,424
4,45,102,40
4,47,102,424
4,47,102,40
4,47,102,424
4,47,102,40
4,43,102,424
4,43,102,40
4,43,102,424
4,43,102,40
4,45,102,424
4,45,102,40
4,45,102,424
4,45,102,40
4,45,102,424
4,45,102,40
4,45,102,424
4,45,102,40
4,47,102,424
4,47,102,40
4,47,102,424
4,47,102,40
4,43,102,424
4,43,102,40
4,43,102,424
4,43,102,40
4,45,102,424
4,45,102,40
4,45,102,424
4,45,102,40
4,45,102,424
4,45,102,40
4,45,102,424
4,45,102,40
4,47,102,424
4,47,102,40
4,47,102,424
4,47,102,40
4,43,102,424
4,43,102,40
4,43,102,424
4,43,102,40
4,43,102,424
4,45,102,1232
4,45,102,40
4,45,102,424
4,45,102,40
4,47,102,424
4,47,102,40
4,47,102,424
4,47,102,40
4,43,102,424
4,43,102,40
4,43,102,424
4,43,102,40
4,45,102,424
4,45,102,40
4,44,102,424
4,44,102,40
4,42,102,424
4,42,102,40
4,42,102,424
4,42,102,40
4,43,102,424
4,43,102,40
4,43,102,424
4,43,102,40
4,43,102,424
4,43,102,40
4,43,102,424
4,43,102,40
4,42,102,424
4,42,102,40
4,42,102,424
4,42,102,40
4,47,102,424
4,47,102,272
4,47,102,616
4,45,102,40
4,45,102,272
4,45,102,616
4,43,102,40
4,43,102,272
4,43,102,808
4,43,102,272
4,45,102,40
4,47,102,156
4,47,102,272
4,47,102,616
4,45,102,40
4,45,102,272
4,45,102,616
4,43,102,40
4,43,102,272
4,45,102,2344
4,45,102,40
4,45,102,424
4,45,102,40
4,47,102,424
4,47,102,40
4,47,102,424
4,47,102,40
4,43,102,424
4,43,102,40
4,43,102,424
4,43,102,40
4,45,102,424
4,45,102,40
4,45,102,424
4,45,102,40
4,45,102,424
4,45,102,40
4,45,102,424
4,45,102,40
4,47,102,424
4,47,102,40
4,47,102,424
4,47,102,40
4,43,102,424
4,43,102,40
4,43,102,424
4,43,102,40
4,45,102,424
4,45,102,40
4,45,102,424
4,45,102,40
4,40,102,12136
4,47,102,40
4,45,102,80
4,45,102,40
4,45,102,424
4,45,102,40
4,47,102,424
4,47,102,40
4,47,102,424
4,47,102,40
4,43,102,424
4,43,102,40
4,43,102,424
4,43,102,40
4,45,102,424
4,45,102,40
4,44,102,424
4,44,102,40
4,42,102,424
4,42,102,40
4,42,102,424
4,42,102,40
4,43,102,424
4,43,102,40
4,43,102,424
4,43,102,40
4,43,102,424
4,43,102,40
4,43,102,424
4,43,102,40
4,45,102,424
4,45,102,40
4,45,102,424
4,45,102,40
4,45,102,424
4,45,102,40
4,45,102,424
4,45,102,40
4,47,102,424
4,47,102,40
4,47,102,424
4,47,102,40
4,43,102,424
4,43,102,40
4,43,102,424
4,43,102,40
4,45,102,424
4,45,102,40
4,45,102,424
4,45,102,40
4,45,102,424
4,45,102,40
4,45,102,424
4,45,102,40
4,47,102,424
4,47,102,40
4,47,102,424
4,47,102,40
4,43,102,424
4,43,102,40
4,43,102,424
4,43,102,40
4,45,102,424
5,52,127,2692
5,64,127,44
5,61,127,68
5,62,127,92
5,61,127,12
5,62,127,12
5,57,127,68
5,62,127,92
5,61,127,12
5,62,127,12
5,57,127,68
5,59,127,44
5,57,127,384
5,52,127,1220
5,64,127,44
5,61,127,68
5,62,127,92
5,61,127,12
5,62,127,12
5,57,127,68
5,62,127,92
5,61,127,12
5,62,127,12
5,57,127,68
5,59,127,44
5,57,127,384
5,52,127,86008
5,64,127,44
5,61,127,68
5,62,127,92
5,61,127,12
5,62,127,12
5,57,127,68
5,62,127,92
5,61,127,12
5,62,127,12
5,57,127,68
5,59,127,44
5,57,127,384
5,52,127,1220
5,64,127,44
5,61,127,68
5,62,127,92
5,61,127,12
5,62,127,12
5,57,127,68
5,62,127,92
5,61,127,12
5,62,127,12
5,57,127,68
5,52,127,44
5,59,127,40
5,57,127,36
5,62,127,27340
5,61,127,20
5,62,127,20
5,57,127,116
5,62,127,152
5,61,127,20
5,62,127,20
5,57,127,116
5,59,127,76
6,73,102,14208
6,73,102,40
6,74,102,40
6,73,102,40
6,71,102,80
6,69,102,80
6,73,102,500
6,71,102,80
6,74,102,464
6,74,102,40
6,74,102,40
6,74,102,40
6,74,102,40
6,76,102,80
6,76,102,40
6,73,102,80
6,73,102,40
6,73,102,40
6,74,102,40
6,73,102,40
6,71,102,80
6,69,102,80
6,73,102,500
6,71,102,80
6,74,102,464
6,74,102,40
6,74,102,40
6,74,102,40
6,74,102,40
6,73,102,80
6,71,102,40
6,73,102,80
6,73,102,40
6,73,102,40
6,74,102,40
6,76,102,40
6,76,102,80
6,73,102,80
6,64,102,308
6,73,102,40
6,71,102,80
6,69,102,272
6,74,102,40
6,74,102,40
6,74,102,40
6,74,102,40
6,74,102,40
6,73,102,40
6,71,102,80
6,69,102,40
6,73,102,80
6,73,102,40
6,74,102,40
6,73,102,40
6,71,102,80
6,69,102,16
6,73,102,232
6,71,102,80
6,71,102,540
6,69,102,80
6,71,102,40
6,71,102,40
6,73,102,232
6,73,102,60
6,73,102,60
6,74,102,40
6,73,102,60
6,71,102,60
6,69,102,40
6,64,102,348
6,73,102,40
6,71,102,80
6,71,102,232
6,67,102,80
6,73,102,308
6,73,102,60
6,73,102,60
6,74,102,40
6,73,102,60
6,71,102,60
6,69,102,40
6,64,102,348
6,73,102,40
6,71,102,80
6,71,102,232
6,67,102,80
6,71,102,232
6,69,102,80
6,73,102,116
6,74,102,40
6,73,102,40
6,71,102,80
6,73,102,80
6,73,102,500
6,71,102,80
6,74,102,464
6,74,102,40
6,74,102,40
6,74,102,40
6,74,102,40
6,76,102,80
6,76,102,40
6,73,102,80
6,73,102,40
6,73,102,40
6,74,102,40
6,73,102,40
6,71,102,80
6,73,102,80
6,73,102,500
6,71,102,80
6,74,102,464
6,74,102,40
6,74,102,40
6,74,102,40
6,74,102,40
6,73,102,80
6,71,102,40
6,73,102,80
6,73,102,40
6,73,102,40
6,74,102,40
6,76,102,40
6,76,102,80
6,73,102,80
6,64,102,308
6,73,102,40
6,71,102,80
6,73,102,272
6,74,102,40
6,74,102,40
6,74,102,40
6,74,102,40
6,74,102,40
6,73,102,40
6,71,102,80
6,73,102,40
6,73,102,80
6,73,102,40
6,74,102,40
6,73,102,40
6,71,102,80
6,73,102,16
6,73,102,232
6,71,102,80
6,71,102,540
6,69,102,80
6,71,102,40
6,73,102,400
6,73,102,60
6,73,102,60
6,74,102,40
6,73,102,60
6,71,102,60
6,69,102,40
6,64,102,348
6,73,102,40
6,71,102,80
6,71,102,232
6,67,102,80
6,73,102,308
6,73,102,60
6,73,102,60
6,74,102,40
6,73,102,60
6,71,102,60
6,69,102,40
6,64,102,348
6,73,102,40
6,71,102,80
6,71,102,232
6,67,102,80
6,78,102,156
6,76,102,60
6,76,102,60
6,78,102,40
6,73,102,23540
6,73,102,40
6,73,102,40
6,74,102,40
6,76,102,40
6,76,102,80
6,73,102,80
6,64,102,308
6,73,102,40
6,71,102,80
6,69,102,732
6,74,102,40
6,74,102,40
6,74,102,40
6,74,102,40
6,74,102,40
6,73,102,40
6,71,102,80
6,69,102,16
6,73,102,80
6,73,102,40
6,74,102,40
6,73,102,40
6,71,102,80
6,69,102,80
6,73,102,500
6,71,102,80
6,71,102,848
6,71,102,80
6,69,102,116
6,73,102,500
6,73,102,60
6,73,102,60
6,74,102,40
6,73,102,60
6,71,102,60
6,69,102,40
6,64,102,348
6,73,102,40
6,71,102,80
6,71,102,540
6,67,102,80
6,73,102,464
6,73,102,60
6,73,102,60
6,74,102,40
6,73,102,60
6,71,102,60
6,69,102,40
6,64,102,348
6,73,102,40
6,71,102,80
6,71,102,232
6,67,102,80
6,73,102,924
6,73,102,60
6,73,102,60
6,74,102,40
6,76,102,60
6,76,102,60
6,76,102,40
6,73,102,40
6,73,102,3956
6,73,102,60
6,73,102,60
6,74,102,40
6,73,102,60
6,71,102,60
6,69,102,40
6,64,102,348
6,73,102,40
6,71,102,80
6,71,102,232
6,67,102,80
6,71,102,232
6,69,102,80
7,52,82,3072
7,57,82,4
7,61,82,8
7,54,82,4
7,59,82,4
7,62,82,8
7,55,82,4
7,59,82,4
7,62,82,8
7,52,82,4
7,57,82,4
7,61,82,8
7,52,82,4
7,57,82,4
7,61,82,8
7,54,82,4
7,59,82,4
7,62,82,8
7,55,82,4
7,59,82,4
7,62,82,8
7,52,82,4
7,57,82,4
7,61,82,8
7,57,82,4
7,59,82,16
7,55,82,16
7,57,82,16
7,57,82,16
7,59,82,16
7,55,82,16
7,57,82,16
7,52,82,16
7,57,82,4
7,61,82,8
7,57,82,4
7,59,82,4
7,62,82,8
7,55,82,4
7,57,82,4
7,62,82,8
7,52,82,4
7,57,82,4
7,61,82,8
7,52,82,4
7,57,82,4
7,61,82,8
7,57,82,4
7,59,82,4
7,62,82,8
7,55,82,4
7,57,82,4
7,62,82,8
7,52,82,1732
7,57,82,192
7,57,82,40
7,61,82,4
7,57,82,12
7,61,82,4
7,54,82,204
7,57,82,192
7,59,82,192
7,62,82,4
7,59,82,12
7,62,82,4
7,55,82,204
7,57,82,192
7,59,82,192
7,62,82,4
7,59,82,12
7,62,82,4
7,52,82,396
7,57,82,4
7,61,82,8
7,52,82,196
7,57,82,192
7,57,82,40
7,61,82,4
7,57,82,12
7,61,82,4
7,54,82,204
7,57,82,192
7,59,82,192
7,62,82,4
7,59,82,12
7,62,82,4
7,55,82,204
7,57,82,192
7,59,82,192
7,62,82,4
7,59,82,12
7,62,82,4
7,52,82,396
7,57,82,4
7,61,82,8
7,52,82,12292
7,57,82,4
7,61,82,8
7,57,82,4
7,59,82,4
7,62,82,8
7,55,82,4
7,57,82,4
7,62,82,8
7,52,82,4
7,57,82,4
7,61,82,8
7,52,82,4
7,57,82,4
7,61,82,8
7,57,82,4
7,59,82,4
7,62,82,8
7,55,82,4
7,57,82,4
7,62,82,8
7,52,82,1540
7,54,82,16
7,57,82,4
7,55,82,12
7,57,82,4
7,52,82,12
7,57,82,4
7,61,82,8
7,52,82,4
7,56,82,4
7,59,82,8
7,54,82,4
7,55,82,16
7,57,82,4
7,55,82,396
7,59,82,4
7,62,82,8
7,54,82,4
7,52,82,12304
7,54,82,16
7,57,82,4
7,55,82,12
7,57,82,4
7,52,82,396
7,57,82,4
7,61,82,8
7,52,82,4
7,54,82,16
7,57,82,4
7,55,82,12
7,57,82,4
7,52,82,396
7,57,82,4
7,61,82,8
7,52,82,12484
7,57,82,192
7,57,82,40
7,61,82,4
7,57,82,12
7,61,82,4
7,54,82,204
7,57,82,192
7,59,82,192
7,62,82,4
7,59,82,12
7,62,82,4
7,55,82,204
7,57,82,192
7,59,82,192
7,62,82,4
7,59,82,12
7,62,82,4
7,52,82,12
7,57,82,4
7,61,82,8
7,52,82,4
7,56,82,4
7,59,82,8
7,54,82,196
7,57,82,192
7,59,82,192
7,62,82,4
7,59,82,12
7,62,82,4
7,55,82,204
7,57,82,192
7,59,82,192
7,62,82,4
7,59,82,12
7,62,82,4
7,55,82,204
7,57,82,192
7,59,82,192
7,62,82,4
7,59,82,12
7,62,82,4
7,52,82,396
7,57,82,4
7,61,82,8
7,52,82,4
7,54,82,16
7,57,82,4
7,55,82,12
7,57,82,4
7,57,82,12
7,61,82,16
7,54,82,16
7,57,82,4
7,55,82,12
7,57,82,4
7,52,82,12
7,57,82,4
7,61,82,8
8,57,83,52224
8,59,83,4
8,64,83,8
8,57,83,4
8,59,83,4
8,62,83,8
8,55,83,4
8,57,83,4
8,62,83,8
8,57,83,4
8,59,83,4
8,64,83,8
8,57,83,4
8,59,83,4
8,64,83,8
8,57,83,4
8,59,83,4
8,62,83,8
8,55,83,4
8,57,83,4
8,62,83,8
8,57,83,4
8,59,83,4
8,64,83,8
8,52,83,4
8,57,83,4
8,61,83,8
8,57,83,4
8,59,83,4
8,62,83,8
8,55,83,4
8,57,83,4
8,62,83,8
8,52,83,4
8,57,83,4
8,61,83,8
8,52,83,4
8,57,83,4
8,61,83,8
8,57,83,4
8,59,83,4
8,62,83,8
8,55,83,4
8,57,83,4
8,62,83,8
8,57,82,1732
8,61,82,4
8,57,82,32
8,61,82,4
8,57,82,32
8,61,82,4
8,57,82,32
8,61,82,4
8,57,82,32
8,61,82,4
8,57,82,32
8,61,82,4
8,57,82,32
8,61,82,4
8,59,82,224
8,62,82,4
8,59,82,32
8,62,82,4
8,59,82,32
8,62,82,4
8,59,82,32
8,62,82,4
8,59,82,32
8,62,82,4
8,59,82,32
