track,note,velocity,time
0,49,67,1120
0,42,73,0
0,61,73,480
0,56,68,0
0,58,68,0
0,51,71,15
0,44,74,0
0,60,76,437
0,56,68,0
0,56,73,23
0,61,80,0
0,60,78,120
0,58,78,112
0,46,82,210
0,53,78,0
0,61,91,117
0,54,95,660
0,53,82,240
0,49,82,23
0,63,82,0
0,58,82,0
0,42,78,220
0,61,88,92
0,58,91,0
0,51,71,8
0,44,80,0
0,63,82,225
0,60,85,0
0,41,78,0
0,48,74,180
0,53,88,240
0,61,104,0
0,63,88,10
0,42,73,65
0,49,80,0
0,58,88,0
0,73,93,470
0,72,93,10
0,61,73,0
0,58,67,0
0,54,68,0
0,73,93,190
0,82,58,0
0,82,40,25
0,49,67,50
0,42,73,0
0,82,61,0
0,61,73,413
0,56,68,0
0,58,68,0
0,82,58,0
0,51,71,15
0,44,74,0
0,82,55,197
0,73,93,128
0,60,76,0
0,56,68,0
0,72,93,23
0,56,73,0
0,61,80,0
0,82,58,0
0,60,78,14
0,72,93,112
0,58,78,0
0,46,82,210
0,53,78,0
0,82,53,0
0,73,93,145
0,82,48,0
0,72,93,117
0,61,91,0
0,82,50,0
0,72,93,87
0,82,53,240
0,54,95,92
0,53,82,240
0,82,55,0
0,72,93,23
0,49,82,0
0,63,82,0
0,58,82,0
0,73,93,0
0,42,78,0
0,82,58,0
0,73,93,46
0,61,88,0
0,58,91,0
0,72,93,240
0,82,51,0
0,72,93,8
0,70,93,240
0,51,71,0
0,44,80,0
0,82,51,0
0,72,93,102
0,63,82,0
0,60,85,0
0,70,93,190
0,82,50,0
0,68,93,3
0,41,78,0
0,82,50,0
0,48,74,123
0,53,88,240
0,61,104,0
0,82,48,0
0,63,88,10
0,42,73,65
0,49,80,0
0,58,88,0
0,82,50,230
0,73,93,125
0,72,93,10
0,61,73,0
0,58,67,0
0,54,68,0
0,82,53,0
0,29,78,143
0,73,93,0
0,82,53,0
0,82,46,25
0,30,91,8
0,42,91,0
0,82,54,0
0,36,101,0
0,49,78,163
0,82,49,0
0,82,45,78
0,68,80,43
0,58,73,0
0,61,78,0
0,56,68,0
0,82,55,0
0,37,99,0
0,32,88,15
0,70,93,0
0,44,89,0
0,36,101,0
0,82,54,0
0,82,48,45
0,70,93,43
0,82,54,0
0,72,93,153
0,63,71,0
0,60,71,0
0,58,68,0
0,51,73,0
0,82,53,0
0,82,49,84
0,73,93,50
0,82,53,0
0,37,114,0
0,32,82,107
0,75,93,0
0,36,91,0
0,82,47,0
0,82,50,80
0,29,74,0
0,41,88,0
0,82,54,0
0,36,101,0
0,58,82,165
0,48,78,0
0,82,54,0
0,60,74,62
0,82,47,20
0,63,82,43
0,53,73,0
0,82,47,0
0,37,114,0
0,68,91,8
0,30,82,70
0,73,93,0
0,42,73,0
0,56,64,0
0,58,64,0
0,61,71,0
0,82,55,0
0,82,51,44
0,73,93,48
0,82,49,0
0,75,93,170
0,82,51,0
0,36,107,0
0,82,48,0
0,30,88,20
0,77,93,0
0,61,74,0
0,56,64,0
0,58,68,0
0,49,78,0
0,82,53,0
0,37,104,0
0,36,101,55
0,34,74,15
0,73,93,0
0,82,53,0
0,82,51,90
0,35,88,0
0,78,93,0
0,47,88,0
0,36,101,0
0,82,60,0
0,54,82,170
0,82,51,0
0,82,46,95
0,77,93,50
0,59,85,0
0,37,114,0
0,82,47,0
0,35,88,102
0,75,93,0
0,61,80,0
0,36,101,0
0,82,50,0
0,82,47,78
0,82,51,62
0,73,93,70
0,63,82,0
0,54,80,0
0,59,85,0
0,82,51,0
0,82,53,45
0,37,82,53
0,37,114,0
0,82,50,0
0,39,91,15
0,77,93,0
0,61,80,0
0,65,73,0
0,56,91,0
0,53,65,0
0,51,80,0
0,36,91,0
0,82,50,0
0,75,93,70
0,82,48,10
0,77,93,14
0,82,54,0
0,36,101,0
0,82,45,170
0,82,46,105
0,37,104,55
0,82,51,0
0,29,88,5
0,41,85,0
0,82,60,0
0,49,95,230
0,73,93,141
0,56,88,0
0,53,82,0
0,82,58,0
0,36,107,0
0,72,93,148
0,61,80,0
0,37,114,0
0,36,101,68
0,29,85,62
0,73,93,0
0,68,80,0
0,82,58,0
0,82,55,5
0,30,88,43
0,42,81,0
0,49,67,0
0,42,73,0
0,49,61,0
0,55,63,0
0,82,54,0
0,36,101,0
0,49,68,163
0,82,49,0
0,82,45,78
0,56,63,43
0,58,68,0
0,61,70,0
0,61,73,0
0,56,68,0
0,58,68,0
0,82,55,0
0,37,99,0
0,32,82,13
0,44,85,0
0,51,71,0
0,44,74,0
0,36,101,0
0,82,54,0
0,82,48,75
0,82,54,43
0,73,93,153
0,56,63,0
0,58,63,0
0,63,63,0
0,51,64,0
0,60,76,0
0,56,68,0
0,82,53,0
0,82,49,50
0,72,93,23
0,56,73,0
0,61,80,0
0,82,53,0
0,37,114,0
0,60,78,18
0,32,78,112
0,72,93,0
0,58,78,0
0,36,91,0
0,82,47,0
0,82,50,28
0,34,88,3
0,46,68,0
0,46,82,0
0,53,78,0
0,82,54,0
0,36,101,0
0,73,93,165
0,49,70,0
0,82,54,0
0,82,47,17
0,72,93,43
0,58,64,0
0,53,58,0
0,65,68,0
0,61,91,0
0,82,47,0
0,37,114,0
0,34,82,65
0,70,93,0
0,82,55,0
0,82,51,84
0,82,49,48
0,75,75,0
0,34,95,80
0,73,93,0
0,54,95,0
0,82,51,0
0,36,107,0
0,75,86,24
0,82,48,0
0,72,93,33
0,61,58,0
0,58,58,0
0,53,82,0
0,82,53,0
0,37,104,0
0,36,101,55
0,32,88,23
0,73,93,0
0,49,82,0
0,63,82,0
0,58,82,0
0,75,99,0
0,82,53,0
0,82,51,78
0,30,88,0
0,42,78,0
0,42,78,0
0,36,101,0
0,82,60,0
0,49,78,92
0,61,88,0
0,58,91,0
0,82,51,0
0,82,46,95
0,72,93,33
0,58,61,0
0,61,63,0
0,54,57,0
0,37,114,0
0,82,47,0
0,32,88,8
0,70,93,0
0,36,101,0
0,82,50,0
0,82,47,0
0,44,72,62
0,51,71,0
0,44,80,0
0,82,51,0
0,32,88,65
0,68,93,0
0,63,68,0
0,58,64,0
0,56,61,0
0,51,61,0
0,63,82,0
0,60,85,0
0,82,51,0
0,82,53,24
0,37,114,53
0,82,50,0
0,68,93,3
0,36,91,0
0,82,50,0
0,82,48,80
0,29,74,0
0,41,72,0
0,41,78,0
0,82,54,0
0,36,101,0
0,48,66,170
0,48,74,0
0,82,45,0
0,66,93,85
0,82,46,20
0,65,93,55
0,68,64,0
0,56,63,0
0,60,64,0
0,53,88,0
0,61,104,0
0,37,104,0
0,82,51,0
0,63,93,10
0,63,88,0
0,30,88,28
0,61,93,0
0,56,54,0
0,58,61,0
0,61,58,0
0,42,72,0
0,42,73,0
0,49,80,0
0,58,88,0
0,82,60,0
0,75,75,214
0,68,93,149
0,82,58,0
0,36,107,0
0,75,86,48
0,70,93,10
0,61,73,0
0,58,67,0
0,54,68,0
0,37,114,0
0,36,101,68
0,30,78,50
0,68,93,0
0,75,99,0
0,82,58,0
0,82,55,25
0,30,91,67
0,42,85,0
0,49,67,0
0,42,73,0
0,82,54,0
0,36,101,0
0,70,93,163
0,49,57,0
0,82,49,0
0,82,45,24
0,58,63,43
0,61,68,0
0,56,63,0
0,61,73,0
0,56,68,0
0,58,68,0
0,82,55,0
0,37,99,0
0,32,88,5
0,68,93,0
0,44,78,0
0,51,71,0
0,44,74,0
0,36,101,0
0,82,54,0
0,82,48,78
0,68,93,43
0,82,54,0
0,70,93,153
0,56,57,0
0,63,58,0
0,60,56,0
0,51,58,0
0,60,76,0
0,56,68,0
0,82,53,0
0,82,49,50
0,72,93,23
0,56,73,0
0,61,80,0
0,82,53,0
0,37,114,0
0,60,78,53
0,34,82,3
0,75,93,0
0,58,78,0
0,36,91,0
0,82,47,0
0,82,50,17
0,35,91,13
0,47,75,0
0,54,82,0
0,47,82,0
0,87,73,0
0,82,54,0
0,36,101,0
0,73,93,165
0,54,68,0
0,66,88,0
0,82,54,0
0,90,59,3
0,82,47,20
0,63,58,43
0,66,63,0
0,59,66,0
0,63,74,0
0,82,47,0
0,37,114,0
0,34,88,25
0,70,93,0
0,46,68,0
0,53,64,0
0,46,80,0
0,65,71,0
0,61,74,0
0,58,74,0
0,89,59,0
0,82,55,0
0,82,51,56
0,70,93,48
0,82,49,0
0,75,75,0
0,72,93,23
0,58,68,0
0,61,70,0
0,61,66,0
0,58,67,0
0,53,66,0
0,85,57,0
0,82,51,0
0,36,107,0
0,75,86,84
0,82,48,0
0,73,93,33
0,82,53,0
0,37,104,0
0,36,101,15
0,30,73,3
0,70,93,0
0,75,99,0
0,82,53,0
0,82,51,2
0,29,82,0
0,78,93,0
0,41,60,0
0,57,70,0
0,60,68,0
0,66,78,0
0,41,82,0
0,84,56,0
0,36,101,0
0,82,60,0
0,51,78,170
0,82,51,0
0,82,46,95
0,77,93,25
0,65,61,0
0,57,78,0
0,37,114,0
0,82,47,0
0,75,93,145
0,51,58,0
0,63,68,0
0,63,88,0
0,36,101,0
0,82,50,0
0,82,47,78
0,33,85,45
0,82,51,0
0,73,93,107
0,61,63,0
0,65,68,0
0,65,80,0
0,82,51,0
0,82,53,49
0,37,114,53
0,82,50,0
0,33,76,3
0,77,93,0
0,36,91,0
0,82,50,0
0,75,93,25
0,82,48,7
0,34,91,3
0,77,93,0
0,46,78,0
0,65,66,0
0,46,78,0
0,61,71,0
0,58,73,0
0,53,71,0
0,82,47,0
0,82,54,0
0,36,101,0
0,49,81,170
0,82,45,0
0,82,46,105
0,53,64,55
0,37,104,0
0,82,51,0
0,77,93,155
0,61,57,0
0,58,61,0
0,82,60,0
0,75,93,129
0,75,75,0
0,73,93,158
0,82,58,0
0,36,107,0
0,75,86,48
0,72,93,33
0,37,114,0
0,36,101,48
0,32,91,3
0,70,93,0
0,75,99,0
0,82,58,0
0,82,55,78
0,30,88,28
0,58,48,0
0,61,55,0
0,56,44,0
0,42,81,0
0,49,67,0
0,42,73,0
0,49,61,0
0,55,63,0
0,82,54,0
0,36,101,0
0,49,68,53
0,82,49,0
0,82,45,78
0,73,93,43
0,56,63,0
0,58,68,0
0,61,70,0
0,61,73,0
0,56,68,0
0,58,68,0
0,82,55,0
0,37,99,0
0,32,82,13
0,56,55,0
0,63,52,0
0,60,49,0
0,72,93,0
0,44,85,0
0,51,71,0
0,44,74,0
0,36,101,0
0,82,54,0
0,82,48,74
0,82,54,43
0,56,63,153
0,58,63,0
0,63,63,0
0,51,64,0
0,60,76,0
0,56,68,0
0,82,53,0
0,82,49,50
0,73,93,23
0,56,73,0
0,61,80,0
0,82,53,0
0,37,114,0
0,60,78,45
0,32,78,3
0,73,93,0
0,58,78,0
0,36,91,0
0,82,47,0
0,82,50,28
0,34,88,3
0,61,52,0
0,58,51,0
0,65,54,0
0,46,68,0
0,46,82,0
0,53,78,0
0,82,54,0
0,36,101,0
0,49,70,165
0,82,54,0
0,82,47,17
0,58,64,43
0,53,58,0
0,65,68,0
0,61,91,0
0,82,47,0
0,37,114,0
0,34,82,45
0,77,93,0
0,82,55,0
0,82,51,92
0,75,93,48
0,82,49,0
0,75,75,0
0,34,95,80
0,73,93,0
0,54,95,0
0,82,51,0
0,36,107,0
0,75,86,73
0,82,48,0
0,72,93,33
0,61,58,0
0,58,58,0
0,53,82,0
0,82,53,0
0,37,104,0
0,36,101,10
0,32,88,23
0,70,93,0
0,49,82,0
0,63,82,0
0,58,82,0
0,75,99,0
0,82,53,0
0,82,51,59
0,30,88,0
0,61,51,0
0,58,48,0
0,56,37,0
0,42,78,0
0,42,78,0
0,36,101,0
0,82,60,0
0,49,78,92
0,61,88,0
0,58,91,0
0,82,51,0
0,82,46,95
0,73,93,50
0,58,61,0
0,61,63,0
0,54,57,0
0,37,114,0
0,82,47,0
0,32,88,8
0,63,52,0
0,58,51,0
0,60,54,0
0,72,93,0
0,36,101,0
0,82,50,0
0,82,47,0
0,44,72,62
0,51,71,0
0,44,80,0
0,82,51,0
0,32,88,65
0,63,68,0
0,58,64,0
0,56,61,0
0,51,61,0
0,63,82,0
0,60,85,0
0,82,51,0
0,82,53,95
0,73,93,53
0,37,114,0
0,82,50,0
0,75,93,3
0,36,91,0
0,82,50,0
0,73,93,60
0,82,48,20
0,29,74,0
0,60,60,0
0,56,58,0
0,75,93,0
0,41,72,0
0,41,78,0
0,82,54,0
0,36,101,0
0,48,66,170
0,48,74,0
0,82,45,0
0,82,46,105
0,68,64,55
0,56,63,0
0,60,64,0
0,53,88,0
0,61,104,0
0,37,104,0
0,82,51,0
0,63,88,5
0,30,88,24
0,58,58,0
0,61,64,0
0,73,93,0
0,56,54,0
0,58,61,0
0,61,58,0
0,42,72,0
0,42,73,0
0,49,80,0
0,58,88,0
0,82,60,0
0,73,93,50
0,75,75,0
0,75,93,158
0,82,58,0
0,36,107,0
0,75,86,48
0,77,93,10
0,61,73,0
0,58,67,0
0,54,68,0
0,37,114,0
0,36,101,68
0,30,78,62
0,80,93,0
0,75,99,0
0,82,58,0
0,82,55,25
0,30,88,67
0,61,55,0
0,58,51,0
0,56,51,0
0,49,70,0
0,54,64,0
0,42,78,0
0,49,78,0
0,49,61,0
0,55,63,0
0,82,54,0
0,36,101,0
0,49,68,87
0,54,70,0
0,56,82,0
0,82,49,0
0,82,45,78
0,78,93,3
0,61,70,0
0,58,70,0
0,66,88,0
0,61,74,0
0,58,74,0
0,82,55,0
0,37,99,0
0,32,88,5
0,63,51,0
0,56,55,0
0,60,44,0
0,77,93,0
0,51,72,0
0,44,78,0
0,51,74,0
0,44,80,0
0,36,101,0
0,82,54,0
0,82,48,75
0,82,54,43
0,63,68,153
0,60,66,0
0,56,68,0
0,68,82,0
0,63,78,0
0,60,82,0
0,82,53,0
0,82,49,90
0,32,88,33
0,75,93,0
0,82,53,0
0,37,114,0
0,34,78,18
0,77,93,0
0,36,91,0
0,82,47,0
0,75,93,5
0,82,50,17
0,36,82,0
0,63,50,0
0,68,50,0
0,56,46,0
0,60,52,0
0,77,93,0
0,48,78,0
0,48,91,0
0,82,54,0
0,36,101,0
0,75,93,45
0,56,82,94
0,82,54,0
0,82,47,82
0,68,72,43
0,63,72,0
0,60,68,0
0,56,78,0
0,63,78,0
0,68,91,0
0,60,76,0
0,82,47,0
0,37,114,0
0,37,88,8
0,65,55,0
0,56,44,0
0,61,57,0
0,73,93,0
0,49,72,0
0,53,72,0
0,49,91,0
0,61,88,0
0,56,57,0
0,63,50,0
0,82,55,0
0,82,51,59
0,73,93,48
0,82,49,0
0,75,75,0
0,75,93,95
0,68,72,0
0,61,72,0
0,56,72,0
0,61,80,0
0,65,85,0
0,56,80,0
0,82,51,0
0,36,107,0
0,75,86,84
0,82,48,0
0,37,88,33
0,77,93,0
0,82,53,0
0,37,104,0
0,36,101,55
0,34,74,62
0,80,93,0
0,75,99,0
0,82,53,0
0,82,51,15
0,35,80,0
0,59,46,0
0,66,45,0
0,63,48,0
0,78,93,0
0,51,78,0
0,47,70,0
0,54,91,0
0,47,74,0
0,36,101,0
0,82,60,0
0,54,70,170
0,59,85,0
0,82,51,0
0,82,46,95
0,77,93,50
0,63,70,0
0,61,82,0
0,37,114,0
0,82,47,0
0,35,82,102
0,75,93,0
0,61,70,0
0,63,82,0
0,36,101,0
0,82,50,0
0,82,47,78
0,82,51,62
0,73,93,70
0,63,68,0
0,54,63,0
0,82,51,0
0,82,53,24
0,30,80,23
0,75,93,0
0,37,114,0
0,82,50,0
0,77,93,48
0,36,91,0
0,82,50,0
0,75,93,3
0,82,48,0
0,32,88,0
0,66,50,0
0,63,58,0
0,58,57,0
0,77,93,0
0,44,85,0
0,44,91,0
0,82,54,0
0,36,101,0
0,75,93,50
0,73,93,94
0,51,78,0
0,54,82,0
0,82,45,0
0,70,93,85
0,82,46,9
0,68,93,55
0,54,70,0
0,58,80,0
0,37,104,0
0,82,51,0
0,63,64,155
0,58,70,0
