track,note,velocity,time
0,44,63,0
0,44,0,4
0,44,63,11
0,44,0,10
0,44,63,5
0,44,0,11
0,63,67,19
0,68,66,0
0,60,73,0
0,44,63,0
0,36,86,0
0,55,65,7
0,55,0,30
0,44,0,16
0,44,45,7
0,36,0,18
0,44,0,0
0,42,85,0
0,42,0,11
0,44,63,73
0,36,52,0
0,44,0,14
0,36,0,2
0,44,63,44
0,36,79,0
0,44,0,9
0,44,63,21
0,36,0,2
0,44,0,14
0,46,82,14
0,46,0,16
0,37,99,44
0,54,112,1
0,54,0,21
0,37,0,3
0,44,63,35
0,60,0,1
0,68,0,1
0,44,0,14
0,63,0,1
0,44,63,13
0,44,0,11
0,63,50,19
0,58,55,0
0,67,73,0
0,44,63,0
0,36,70,0
0,55,65,2
0,55,0,30
0,36,0,20
0,44,0,2
0,44,52,6
0,44,0,15
0,42,85,15
0,42,0,26
0,44,63,64
0,36,59,0
0,36,0,18
0,44,0,1
0,44,63,41
0,36,72,0
0,44,0,10
0,36,0,16
0,44,63,4
0,44,0,12
0,24,77,0
0,44,63,0
0,44,0,13
0,45,48,9
0,44,63,8
0,43,77,0
0,45,0,6
0,44,0,6
0,43,0,2
0,27,83,16
0,46,83,0
0,41,86,0
0,37,93,0
0,24,0,8
0,41,0,2
0,46,0,11
0,37,0,0
0,58,0,30
0,67,0,2
0,24,86,7
0,44,63,0
0,63,0,1
0,27,0,3
0,44,0,11
0,63,69,45
0,68,70,0
0,60,79,0
0,32,87,0
0,63,35,0
0,68,35,0
0,60,35,0
0,44,63,0
0,57,70,0
0,55,65,0
0,36,78,0
0,24,0,3
0,36,0,18
0,55,0,2
0,57,0,1
0,44,0,36
0,44,54,0
0,44,0,14
0,56,93,16
0,42,103,0
0,56,0,10
0,42,0,20
0,36,61,60
0,36,0,14
0,44,69,46
0,36,72,0
0,44,0,14
0,36,0,7
0,44,62,39
0,44,0,21
0,56,92,9
0,42,70,0
0,56,0,9
0,42,0,20
0,46,83,1
0,37,99,0
0,54,127,5
0,46,0,8
0,37,0,0
0,54,0,8
0,68,0,33
0,60,0,1
0,44,63,5
0,44,0,4
0,44,63,11
0,63,0,1
0,44,0,9
0,44,63,5
0,44,0,11
0,68,0,18
0,60,0,0
0,63,49,1
0,58,71,0
0,67,77,0
0,31,107,0
0,67,35,0
0,58,35,0
0,44,63,0
0,36,77,0
0,32,0,2
0,55,65,4
0,36,0,13
0,55,0,2
0,44,0,32
0,44,45,7
0,44,0,18
0,55,92,12
0,42,85,0
0,55,0,10
0,42,0,7
0,31,0,52
0,31,88,21
0,44,63,0
0,36,60,0
0,36,0,13
0,44,0,1
0,31,0,36
0,31,96,10
0,44,63,0
0,36,72,0
0,44,0,9
0,36,0,12
0,44,63,9
0,44,0,16
0,46,82,14
0,46,0,16
0,55,92,14
0,55,0,10
0,37,103,20
0,54,127,4
0,37,0,7
0,54,0,7
0,32,72,42
0,44,63,0
0,58,0,1
0,63,0,2
0,67,0,0
0,44,0,1
0,31,0,4
0,44,63,7
0,44,0,10
0,32,0,3
0,31,95,2
0,44,63,0
0,44,0,11
0,63,0,18
0,67,0,0
0,58,0,0
0,63,63,1
0,60,75,0
0,68,69,0
0,29,104,0
0,63,35,0
0,60,35,0
0,68,35,0
0,44,63,0
0,36,77,0
0,55,65,6
0,31,0,4
0,36,0,9
0,55,0,2
0,44,0,32
0,44,45,7
0,44,0,18
0,56,90,12
0,42,85,0
0,56,0,8
0,42,0,9
0,29,0,46
0,29,83,27
0,44,63,0
0,36,60,0
0,36,0,13
0,44,0,1
0,29,0,42
0,29,91,4
0,44,63,0
0,36,72,0
0,44,0,9
0,36,0,12
0,44,63,9
0,44,0,16
0,46,82,14
0,46,0,16
0,56,93,14
0,56,0,11
0,37,103,19
0,54,127,4
0,37,0,7
0,54,0,7
0,68,0,34
0,60,0,2
0,44,63,6
0,44,0,4
0,63,0,1
0,44,63,10
0,44,0,10
0,44,63,5
0,44,0,11
0,63,0,18
0,60,0,0
0,68,0,0
0,63,63,1
0,58,73,0
0,67,79,0
0,31,87,0
0,67,35,0
0,58,35,0
0,63,35,0
0,44,63,0
0,36,77,0
0,55,65,6
0,29,0,5
0,36,0,8
0,55,0,2
0,44,0,32
0,44,45,7
0,44,0,18
0,55,92,12
0,42,85,0
0,55,0,12
0,42,0,5
0,31,0,50
0,31,116,23
0,44,63,0
0,36,60,0
0,36,0,13
0,44,0,1
0,31,0,26
0,31,92,20
0,44,63,0
0,36,72,0
0,44,0,9
0,36,0,12
0,44,63,9
0,44,0,16
0,46,82,14
0,46,0,16
0,55,92,14
0,55,0,11
0,58,0,18
0,31,0,0
0,58,68,1
0,27,113,0
0,37,103,0
0,43,51,2
0,54,127,2
0,41,75,1
0,37,0,6
0,43,0,5
0,54,0,2
0,41,0,0
0,27,0,39
0,24,79,3
0,44,63,0
0,67,0,2
0,63,0,2
0,44,0,0
0,44,63,11
0,44,0,10
0,44,63,5
0,44,0,11
0,24,0,12
0,67,0,6
0,58,0,0
0,63,0,0
0,58,0,1
0,63,46,0
0,68,65,0
0,60,79,0
0,32,69,0
0,68,35,0
0,63,35,0
0,60,35,0
0,44,63,0
0,57,62,0
0,36,77,0
0,55,65,6
0,36,0,13
0,55,0,2
0,44,0,32
0,44,45,7
0,44,0,18
0,56,69,12
0,56,93,0
0,42,85,0
0,56,0,10
0,42,0,7
0,60,74,45
0,32,0,1
0,32,73,27
0,63,64,0
0,44,63,0
0,36,60,0
0,36,0,13
0,44,0,1
0,32,0,32
0,32,89,14
0,44,63,0
0,36,72,0
0,44,0,9
0,36,0,12
0,44,63,9
0,44,0,16
0,46,82,14
0,46,0,16
0,34,68,14
0,56,92,0
0,32,0,8
0,56,0,1
0,36,94,21
0,37,103,0
0,34,0,4
0,54,127,0
0,37,0,7
0,54,0,7
0,60,0,30
0,68,0,2
0,36,0,6
0,34,81,4
0,44,63,0
0,44,0,4
0,63,0,3
0,44,63,8
0,44,0,10
0,34,0,5
0,32,77,0
0,44,63,0
0,44,0,11
0,68,0,18
0,63,0,0
0,60,0,0
0,63,59,1
0,58,67,0
0,67,76,0
0,31,90,0
0,67,35,0
0,63,35,0
0,58,35,0
0,44,63,0
0,36,77,0
0,32,0,5
0,55,65,1
0,36,0,13
0,55,0,2
0,56,0,22
0,63,0,0
0,60,0,4
0,44,0,6
0,44,45,7
0,44,0,18
0,55,74,12
0,55,92,0
0,42,85,0
0,55,0,10
0,42,0,7
0,58,61,43
0,31,0,4
0,31,88,26
0,63,67,0
0,44,63,0
0,36,60,0
0,36,0,13
0,44,0,1
0,31,0,19
0,31,91,27
0,44,63,0
0,36,72,0
0,44,0,9
0,36,0,12
0,44,63,9
0,44,0,16
0,46,82,14
0,46,0,16
0,55,92,14
0,55,0,10
0,37,103,20
0,54,127,4
0,37,0,7
0,54,0,7
0,58,0,32
0,63,0,5
0,67,0,0
0,32,82,5
0,44,63,0
0,31,0,2
0,44,0,2
0,44,63,11
0,44,0,10
0,31,90,5
0,44,63,0
0,32,0,5
0,44,0,6
0,67,0,18
0,63,0,0
0,58,0,0
0,53,51,1
0,56,52,0
0,29,101,0
0,68,35,0
0,60,35,0
0,63,35,0
0,44,63,0
0,36,77,0
0,31,0,1
0,63,64,1
0,53,81,0
0,60,55,1
0,55,65,3
0,36,0,13
0,55,0,2
0,63,0,11
0,55,0,1
0,58,0,10
0,44,0,10
0,44,45,7
0,44,0,18
0,56,0,9
0,56,65,3
0,56,90,0
0,42,85,0
0,56,75,2
0,56,0,6
0,42,0,9
0,63,0,70
0,29,0,2
0,36,92,1
0,44,63,0
0,36,60,0
0,63,46,1
0,63,70,2
0,36,0,10
0,44,0,1
0,29,91,46
0,44,63,0
0,36,72,0
0,36,0,5
0,44,0,4
0,36,0,12
0,44,63,9
0,44,0,16
0,46,82,14
0,46,0,16
0,56,93,14
0,56,0,11
0,37,103,19
0,54,127,4
0,37,0,7
0,54,0,7
0,44,63,42
0,44,0,4
0,44,63,11
0,55,70,5
0,60,0,4
0,44,0,1
0,58,67,5
0,44,63,0
0,53,0,1
0,29,0,1
0,56,0,7
0,44,0,2
0,63,0,1
0,63,86,8
0,56,0,1
0,63,0,2
0,53,0,2
0,68,0,4
0,60,0,0
0,63,0,0
0,63,59,1
0,58,67,0
0,55,76,0
0,31,93,0
0,63,35,0
0,67,35,0
0,58,35,0
0,44,63,0
0,36,77,0
0,55,65,6
0,36,0,13
0,55,0,2
0,44,0,32
0,44,45,7
0,44,0,18
0,55,92,12
0,42,85,0
0,55,0,12
0,42,0,5
0,31,0,55
0,31,91,18
0,44,63,0
0,36,60,0
0,36,0,13
0,44,0,1
0,31,0,32
0,65,69,14
0,31,98,0
0,44,63,0
0,36,72,0
0,65,86,4
0,44,0,5
0,63,0,7
0,36,0,5
0,44,63,9
0,44,0,16
0,31,0,4
0,24,78,10
0,46,82,0
0,46,0,16
0,55,92,14
0,58,0,7
0,55,0,4
0,58,0,19
0,58,51,0
0,27,89,0
0,37,103,0
0,24,0,3
0,54,127,1
0,58,75,5
0,37,0,2
0,54,0,7
0,63,0,37
0,55,0,0
0,24,79,5
0,44,63,0
0,27,0,2
0,44,0,2
0,44,63,11
0,44,0,10
0,44,63,5
0,56,62,6
0,44,0,5
0,56,61,0
0,60,73,3
0,60,93,3
0,63,0,12
0,67,0,0
0,58,0,0
0,57,0,1
0,63,63,0
0,32,94,0
0,68,35,0
0,63,35,0
0,60,35,0
0,44,63,0
0,57,62,0
0,36,77,0
0,63,89,3
0,24,0,2
0,55,65,1
0,58,0,11
0,65,0,1
0,36,0,1
0,55,0,1
0,55,0,1
0,44,0,32
0,65,0,5
0,44,45,2
0,58,0,7
0,44,0,11
0,56,93,12
0,42,85,0
0,56,0,10
0,42,0,7
0,32,0,68
0,32,69,5
0,44,63,0
0,36,60,0
0,36,0,13
0,44,0,1
0,32,0,46
0,39,90,0
0,44,63,0
0,36,72,0
0,44,0,9
0,36,0,12
0,44,63,9
0,44,0,16
0,46,82,14
0,46,0,16
0,56,92,14
0,56,0,9
0,39,0,21
0,32,74,0
0,37,103,0
0,54,127,4
0,37,0,7
0,54,0,7
0,60,0,42
0,44,63,0
0,56,0,4
0,44,0,0
0,60,0,1
0,63,0,0
0,44,63,10
0,56,0,3
0,63,0,0
0,44,0,7
0,44,63,5
0,44,0,11
0,32,0,4
0,55,77,7
0,58,70,3
0,68,0,4
0,63,0,0
0,60,0,0
0,31,91,1
0,67,35,0
0,63,35,0
0,58,35,0
0,44,63,0
0,36,77,0
0,55,80,2
0,55,65,4
0,58,83,2
0,63,64,6
0,36,0,5
0,55,0,2
0,63,70,1
0,44,0,31
0,44,45,7
0,44,0,18
0,55,92,12
0,42,85,0
0,55,0,10
0,42,0,7
0,31,0,54
0,31,82,19
0,44,63,0
0,36,60,0
0,36,0,13
0,44,0,1
0,31,0,26
0,31,99,20
0,44,63,0
0,36,72,0
0,44,0,9
0,36,0,12
0,44,63,9
0,44,0,16
0,46,82,14
0,46,0,16
0,55,92,14
0,55,0,10
0,37,103,20
0,54,127,4
0,55,0,4
0,37,0,3
0,58,0,6
0,54,0,1
0,63,0,1
0,55,0,8
0,58,0,11
0,63,0,1
0,31,0,15
0,32,73,6
0,44,63,0
0,44,0,4
0,44,63,11
0,44,0,10
0,31,90,5
0,44,63,0
0,32,0,3
0,56,57,4
0,44,0,4
0,56,60,5
0,58,76,6
0,58,75,0
0,67,0,7
0,63,0,0
0,58,0,0
0,29,84,1
0,68,35,0
0,60,35,0
0,63,35,0
0,44,63,0
0,36,77,0
0,55,65,6
0,63,64,2
0,63,65,2
0,31,0,1
0,36,0,8
0,55,0,2
0,44,0,32
0,44,45,7
0,56,0,1
0,44,0,17
0,56,0,8
0,29,0,4
0,32,67,0
0,56,90,0
0,42,85,0
0,56,54,3
0,56,74,3
0,56,0,2
0,42,0,9
0,63,0,22
0,63,0,51
0,41,92,0
0,44,63,0
0,36,60,0
0,32,0,4
0,63,65,1
0,63,69,0
0,36,0,8
0,44,0,1
0,44,63,46
0,36,72,0
0,44,0,9
0,36,0,12
0,44,63,9
0,44,0,16
0,46,82,14
0,46,0,16
0,56,0,1
0,56,93,13
0,56,0,6
0,56,0,5
0,58,0,16
0,56,54,2
0,56,32,1
0,37,103,0
0,54,127,4
0,37,0,7
0,54,0,7
0,39,65,42
0,44,63,0
0,41,0,1
0,44,0,3
0,44,63,11
0,44,0,10
0,41,82,5
0,44,63,0
0,55,75,2
0,56,0,1
0,58,0,1
0,63,0,3
0,63,0,4
0,44,0,0
0,58,82,2
0,55,77,1
0,39,0,4
0,56,0,3
0,58,63,1
0,63,69,5
0,68,0,2
0,60,0,0
0,63,0,0
0,43,82,1
0,63,35,0
0,67,35,0
0,58,35,0
0,36,77,0
0,42,93,4
0,41,0,2
0,55,65,0
0,63,54,3
0,36,0,10
0,55,0,2
0,42,0,20
0,44,28,17
0,39,69,32
0,58,73,0
0,55,92,0
0,42,90,1
0,44,0,1
0,55,0,10
0,43,0,4
0,42,0,14
0,44,74,26
0,44,0,17
0,39,0,17
0,34,77,0
0,63,61,0
0,46,90,3
0,46,0,22
0,82,90,37
0,82,70,1
0,34,0,27
0,24,68,0
0,27,48,30
0,24,0,5
0,55,92,25
0,27,0,1
0,55,0,10
0,43,65,14
0,27,72,5
0,41,73,0
0,43,0,6
0,67,76,0
0,41,0,6
0,58,0,12
0,63,0,0
0,55,0,1
0,24,73,35
0,27,0,1
0,68,79,2
0,67,0,4
0,82,0,37
0,67,85,7
0,63,0,3
0,68,0,3
0,82,0,1
0,63,0,1
0,67,0,0
0,58,0,0
0,56,76,0
0,57,0,1
0,58,0,0
0,60,97,0
0,63,77,0
0,32,76,0
0,68,35,0
0,63,35,0
0,60,35,0
0,44,63,0
0,57,62,0
0,36,77,0
0,24,0,2
0,55,65,4
0,58,0,3
0,63,0,0
0,55,0,1
0,36,0,9
0,55,0,2
0,44,0,32
0,44,45,7
0,68,82,8
0,32,0,3
0,67,0,1
0,44,0,6
0,32,87,12
0,56,93,0
0,42,85,0
0,56,0,10
0,32,0,4
0,42,0,3
0,32,66,43
0,32,0,11
0,32,87,19
0,44,63,0
0,36,60,0
0,36,0,13
0,44,0,1
0,32,0,29
0,32,94,17
0,44,63,0
0,36,72,0
0,44,0,9
0,36,0,12
0,44,63,9
0,44,0,16
0,46,82,14
0,46,0,16
0,56,92,14
0,56,0,9
0,68,0,17
0,67,88,1
0,37,103,3
0,54,127,4
0,60,0,7
0,37,0,0
0,56,0,7
0,54,0,0
0,63,0,3
0,68,82,11
0,67,0,5
0,44,63,23
0,44,0,4
0,44,63,11
0,44,0,10
0,68,0,2
0,70,86,0
0,44,63,3
0,44,0,11
0,68,0,18
0,63,0,0
0,60,0,0
0,58,82,1
0,55,90,0
0,63,75,0
0,31,90,0
0,67,35,0
0,63,35,0
0,58,35,0
0,44,63,0
0,36,77,0
0,32,0,2
0,36,0,17
0,67,94,11
0,70,0,9
0,44,0,14
0,44,45,7
0,44,0,18
0,67,83,12
0,55,92,0
0,42,85,0
0,67,0,1
0,55,0,9
0,42,0,7
0,68,83,47
0,31,0,2
0,67,0,4
0,31,82,20
0,44,63,0
0,36,60,0
0,36,0,13
0,44,0,1
0,31,0,3
0,67,90,10
0,68,0,3
0,31,92,30
0,44,63,0
0,36,72,0
0,44,0,9
0,36,0,12
0,44,63,9
0,44,0,16
0,46,82,14
0,46,0,16
0,31,0,8
0,31,80,6
0,55,92,0
0,55,0,10
0,31,0,19
0,32,71,1
0,37,103,0
0,54,127,4
0,37,0,7
0,54,0,7
0,55,0,33
0,32,0,1
0,58,0,1
0,63,0,5
0,31,90,2
0,44,63,0
0,44,0,4
0,44,63,11
0,31,0,1
0,67,0,7
0,44,0,2
0,70,73,0
0,44,63,5
0,44,0,11
0,67,0,18
0,63,0,0
0,58,0,0
0,56,70,1
0,63,75,0
0,60,80,0
0,29,95,0
