track,note,velocity,time
3,50,105,2875
3,43,127,0
3,59,127,0
3,59,0,18
3,50,0,0
3,55,99,1
3,55,0,30
3,50,96,0
3,55,99,30
3,50,0,1
3,55,0,60
3,59,119,0
3,55,91,29
3,59,0,1
3,55,0,28
3,50,92,1
3,50,0,30
3,59,126,0
3,55,87,30
3,59,0,1
3,55,0,29
3,50,90,0
3,50,0,30
3,55,88,1
3,55,0,28
3,61,120,1
3,57,120,0
3,52,116,0
3,57,0,36
3,61,0,1
3,52,0,6
3,43,0,25
3,62,114,2
3,50,119,0
3,43,123,1
3,50,0,4
3,59,104,0
3,62,0,1
3,55,91,29
3,59,0,2
3,55,0,28
3,50,119,0
3,50,0,57
3,59,127,3
3,59,0,30
3,55,89,0
3,55,0,30
3,50,95,0
3,50,0,30
3,62,123,0
3,59,103,30
3,62,0,1
3,59,0,29
3,55,91,0
3,55,0,30
3,50,93,0
3,50,0,29
3,52,119,1
3,57,127,0
3,61,124,0
3,61,0,14
3,57,0,1
3,52,0,26
3,43,0,1
3,59,127,1
3,50,116,0
3,43,126,0
3,50,0,6
3,55,93,0
3,59,0,3
3,55,0,26
3,50,92,1
3,50,0,30
3,55,119,0
3,59,127,60
3,55,0,1
3,59,0,30
3,55,87,0
3,55,0,29
3,50,94,0
3,50,0,30
3,59,127,0
3,55,95,30
3,59,0,1
3,55,0,29
3,50,96,0
3,55,93,30
3,50,0,1
3,43,0,3
3,55,0,25
3,52,114,1
3,57,119,0
3,61,118,0
3,43,123,0
3,57,0,11
3,61,0,1
3,52,0,23
3,43,0,30
3,62,127,3
3,43,127,1
3,59,104,0
3,62,0,2
3,59,0,28
3,55,94,0
3,50,116,30
3,55,0,1
3,50,0,58
3,59,126,1
3,55,89,30
3,59,0,1
3,55,0,29
3,50,104,0
3,50,0,30
3,59,127,0
3,55,100,30
3,59,0,2
3,55,0,28
3,50,97,0
3,50,0,30
3,55,89,1
3,43,0,25
3,55,0,3
3,57,119,1
3,52,111,0
3,61,120,0
3,43,123,0
3,61,0,13
3,57,0,0
3,52,0,0
3,43,0,24
3,50,105,1
3,43,127,0
3,59,127,0
3,59,0,18
3,50,0,0
3,55,99,1
3,55,0,30
3,50,96,0
3,55,99,30
3,50,0,1
3,55,0,60
3,59,119,0
3,55,91,29
3,59,0,1
3,55,0,28
3,50,92,1
3,50,0,30
3,59,126,0
3,55,87,30
3,59,0,1
3,55,0,29
3,50,90,0
3,50,0,30
3,55,88,1
3,55,0,28
3,61,120,1
3,57,120,0
3,52,116,0
3,57,0,36
3,61,0,1
3,52,0,6
3,43,0,25
3,62,114,2
3,50,119,0
3,43,123,1
3,50,0,4
3,59,104,0
3,62,0,1
3,55,91,29
3,59,0,2
3,55,0,28
3,50,119,0
3,50,0,57
3,59,127,3
3,59,0,30
3,55,89,0
3,55,0,30
3,50,95,0
3,50,0,30
3,62,123,0
3,59,103,30
3,62,0,1
3,59,0,29
3,55,91,0
3,55,0,30
3,50,93,0
3,50,0,29
3,52,119,1
3,57,127,0
3,61,124,0
3,61,0,14
3,57,0,1
3,52,0,26
3,43,0,1
3,59,127,1
3,50,116,0
3,43,126,0
3,50,0,6
3,55,93,0
3,59,0,3
3,55,0,26
3,50,92,1
3,50,0,30
3,55,119,0
3,59,127,60
3,55,0,1
3,59,0,30
3,55,87,0
3,55,0,29
3,50,94,0
3,50,0,30
3,59,127,0
3,55,95,30
3,59,0,1
3,55,0,29
3,50,96,0
3,55,93,30
3,50,0,1
3,43,0,3
3,55,0,25
3,52,114,1
3,57,119,0
3,61,118,0
3,43,123,0
3,57,0,11
3,61,0,1
3,52,0,23
3,43,0,30
3,62,127,3
3,43,127,1
3,59,104,0
3,62,0,2
3,59,0,28
3,55,94,0
3,50,116,30
3,55,0,1
3,50,0,58
3,59,126,1
3,55,89,30
3,59,0,1
3,55,0,29
3,50,104,0
3,50,0,30
3,59,127,0
3,55,100,30
3,59,0,2
3,55,0,28
3,50,97,0
3,50,0,30
3,55,89,1
3,43,0,25
3,55,0,3
3,59,114,2
3,59,0,24
3,55,113,1
3,55,0,28
3,42,127,0
3,38,126,14
3,42,0,27
3,57,108,2
3,50,99,31
3,57,0,2
3,50,0,29
3,57,92,0
3,62,119,29
3,57,0,2
3,57,95,28
3,62,0,3
3,50,99,27
3,38,0,24
3,57,0,3
3,50,0,1
3,62,120,1
3,57,96,60
3,62,0,3
3,50,96,26
3,57,0,28
3,50,0,1
3,64,123,1
3,62,98,29
3,64,0,3
3,57,108,28
3,62,0,4
3,50,100,25
3,57,0,1
3,50,0,26
3,50,108,4
3,50,0,36
3,57,127,24
3,57,0,28
3,50,89,1
3,50,0,31
3,57,93,0
3,57,0,29
3,62,114,1
3,57,95,29
3,62,0,3
3,57,0,27
3,50,96,0
3,50,0,30
3,62,114,0
3,57,91,30
3,62,0,3
3,50,90,27
3,57,0,2
3,50,0,28
3,57,93,1
3,57,0,30
3,64,123,0
3,62,93,29
3,64,0,3
3,57,93,28
3,62,0,4
3,57,0,25
3,50,86,2
3,50,0,1
3,50,111,0
3,57,114,1
3,50,0,2
3,57,0,29
3,50,105,0
3,57,100,30
3,50,0,1
3,57,0,26
3,62,113,2
3,62,0,28
3,57,100,2
3,57,0,24
3,50,106,5
3,50,0,24
3,64,127,7
3,66,110,21
3,64,0,3
3,62,106,7
3,66,0,2
3,62,0,27
3,57,92,0
3,50,98,31
3,57,0,1
3,50,0,27
3,62,127,3
3,50,95,31
3,62,0,4
3,50,0,23
3,57,102,2
3,57,0,23
3,50,114,1
3,67,108,0
3,59,91,61
3,67,0,1
3,62,123,28
3,59,0,4
3,67,110,57
3,62,0,2
3,62,113,28
3,67,0,2
3,62,0,26
3,59,104,2
3,50,0,3
3,59,0,22
3,50,127,4
3,64,127,0
3,66,106,24
3,64,0,3
3,66,0,26
3,62,106,0
3,62,0,29
3,57,126,1
3,50,0,34
3,50,127,26
3,57,0,3
3,57,119,27
3,50,0,4
3,57,0,19
3,62,127,7
3,62,0,6
3,55,106,5
3,67,110,0
3,59,90,3
3,67,0,24
3,62,119,7
3,59,0,5
3,62,0,53
3,67,120,1
3,62,120,30
3,67,0,3
3,62,0,26
3,59,111,1
3,59,0,29
3,54,124,1
3,64,127,0
3,55,0,2
3,66,88,25
3,64,0,1
3,66,0,29
3,57,89,1
3,62,123,25
3,57,0,1
3,66,118,59
3,62,0,2
3,62,94,29
3,66,0,2
3,62,0,26
3,57,103,2
3,54,0,24
3,57,0,2
3,67,114,4
3,52,127,0
3,59,104,3
3,67,0,1
3,64,104,30
3,59,0,3
3,64,0,23
3,67,123,4
3,64,119,60
3,67,0,1
3,64,0,29
3,59,110,1
3,52,0,1
3,59,0,27
3,45,120,31
3,61,120,0
3,61,0,5
3,52,96,0
3,52,0,26
3,57,91,3
3,57,0,26
3,61,124,4
3,61,0,55
3,52,96,5
3,57,106,29
3,52,0,1
3,57,0,25
3,45,0,0
3,61,118,4
3,61,0,24
3,50,126,1
3,66,118,0
3,57,91,2
3,66,0,1
3,62,105,30
3,57,0,1
3,66,106,29
3,62,0,1
3,50,0,2
3,66,0,25
3,50,127,2
3,67,104,1
3,59,100,5
3,67,0,3
3,62,102,27
3,59,0,3
3,67,114,27
3,62,0,1
3,50,0,2
3,66,106,25
3,50,127,1
3,67,0,4
3,57,102,24
3,66,0,2
3,62,102,28
3,57,0,3
3,66,124,27
3,62,0,1
3,66,0,55
3,57,100,4
3,57,0,26
3,62,113,4
3,62,0,22
3,66,124,8
3,50,0,2
3,66,0,20
3,47,106,5
3,59,119,0
3,54,86,2
3,59,0,2
3,54,0,29
3,59,103,0
3,62,108,59
3,59,0,2
3,62,0,29
3,59,100,0
3,54,90,30
3,59,0,1
3,54,0,24
3,47,0,3
3,59,104,1
3,43,126,1
3,59,0,40
3,50,87,2
3,50,0,29
3,55,110,0
3,55,0,57
3,59,126,3
3,55,96,30
3,59,0,1
3,43,0,24
3,55,0,3
3,50,88,2
3,50,0,1
3,50,127,6
3,66,110,0
3,66,0,25
3,57,94,2
3,57,0,29
3,62,96,0
3,66,96,30
3,50,0,2
3,62,0,1
3,66,0,25
3,50,127,4
3,67,104,0
3,59,100,11
3,67,0,3
3,62,95,27
3,59,0,4
3,67,108,26
3,62,0,1
3,50,0,2
3,66,106,6
3,50,127,1
3,67,0,2
3,66,0,31
3,57,102,5
3,57,0,23
3,62,127,7
3,66,120,60
3,62,0,3
3,66,0,28
3,62,110,0
3,62,0,28
3,57,90,1
3,50,0,2
3,57,0,21
3,61,118,2
3,45,123,0
3,61,0,11
3,52,99,2
3,52,0,27
3,57,114,3
3,61,120,59
3,57,0,1
3,57,102,29
3,61,0,2
3,57,0,27
3,52,93,1
3,52,0,24
3,45,0,0
3,50,127,0
3,66,102,0
3,57,119,1
3,57,0,26
3,66,0,0
3,57,106,3
3,57,0,25
3,62,103,4
3,50,0,5
3,62,0,20
3,67,114,7
3,62,127,0
3,50,127,0
3,59,123,0
3,67,0,14
3,62,0,2
3,59,0,15
3,50,0,5
3,50,127,3
3,64,126,1
3,55,123,0
3,55,0,3
3,64,0,17
3,50,0,3
3,57,99,5
3,62,120,0
3,50,111,0
3,66,113,1
3,66,0,21
3,50,0,0
3,62,0,0
3,57,0,1
3,66,118,7
3,62,127,0
3,57,120,0
3,50,127,0
3,57,0,205
3,66,0,17
3,50,0,1
3,62,0,1
3,66,118,7
3,50,127,0
3,57,98,29
3,66,0,3
3,62,106,26
3,57,0,2
3,66,115,28
3,62,0,2
3,50,0,2
3,66,0,24
3,67,105,1
3,50,127,0
3,59,97,9
3,67,0,3
3,62,100,27
3,59,0,6
3,62,0,25
3,67,103,0
3,50,0,7
3,67,0,22
3,66,108,2
3,50,127,0
3,66,0,4
3,57,88,0
3,62,99,29
3,57,0,1
3,62,0,29
3,66,124,2
3,66,0,58
3,62,105,1
3,62,0,28
3,57,97,2
3,57,0,26
3,62,108,4
3,50,0,4
3,62,0,20
3,55,127,4
3,67,111,0
3,67,0,27
3,59,94,1
3,62,97,32
3,59,0,4
3,62,0,26
3,67,114,1
3,62,90,59
3,67,0,2
3,62,0,28
3,59,98,0
3,59,0,31
3,62,96,0
3,62,0,25
3,50,116,3
3,64,123,0
3,55,0,3
3,66,92,18
3,64,0,2
3,66,0,29
3,57,94,0
3,62,108,29
3,57,0,4
3,62,0,56
3,66,110,0
3,62,96,29
3,66,0,1
3,62,0,28
3,57,96,2
3,57,0,27
3,67,116,3
3,55,126,1
3,50,0,1
3,59,100,7
3,67,0,1
3,62,90,30
3,59,0,4
3,62,0,21
3,67,123,5
3,62,91,59
3,67,0,2
3,62,0,29
3,59,96,0
3,62,93,31
3,59,0,3
3,62,0,25
3,66,120,1
3,54,120,0
3,55,0,4
3,66,0,28
3,57,93,6
3,57,0,25
3,62,116,5
3,62,0,28
3,64,127,2
3,62,123,29
3,64,0,2
3,62,0,27
3,57,120,1
3,54,0,3
3,54,118,27
3,57,0,26
3,52,116,4
3,64,116,0
3,54,0,2
3,64,0,5
3,59,94,1
3,64,100,30
3,59,0,3
3,64,0,26
3,67,123,1
3,64,99,59
3,67,0,1
3,64,0,29
3,59,94,1
3,52,0,4
3,59,0,33
3,45,127,0
3,61,120,0
3,61,0,14
3,52,93,1
3,57,104,30
3,52,0,2
3,61,106,28
3,57,0,4
3,45,0,2
3,61,0,2
3,62,113,2
3,45,111,1
3,54,108,0
3,54,0,22
3,62,0,2
3,45,0,5
3,64,119,23
3,55,113,1
3,45,119,0
3,64,0,47
3,66,110,0
3,50,127,0
3,45,0,2
3,55,0,0
3,66,0,20
3,57,100,1
3,57,0,29
3,62,94,1
3,66,106,30
3,62,0,4
3,66,0,23
3,55,119,4
3,67,111,0
3,50,0,2
3,59,100,6
3,67,0,3
3,62,94,27
3,59,0,5
3,67,105,26
3,62,0,1
3,67,0,27
3,66,99,1
3,50,127,1
3,55,0,2
3,66,0,25
3,57,97,8
3,57,0,23
3,62,127,8
3,62,0,55
3,66,120,5
3,66,0,27
3,62,114,2
3,62,0,29
3,57,96,1
3,50,0,4
3,57,0,20
3,67,110,2
3,55,123,1
3,59,95,2
3,67,0,2
3,62,104,29
3,59,0,2
3,62,0,28
3,67,116,0
3,67,0,56
3,59,100,3
3,59,0,27
3,61,119,3
3,57,120,0
3,55,0,3
3,57,0,50
3,59,113,0
3,62,111,0
3,61,0,3
3,59,0,47
3,62,0,1
3,59,92,3
3,59,0,29
3,67,108,2
3,67,0,59
3,62,96,1
3,62,0,30
3,59,100,0
3,59,0,23
3,50,127,4
3,66,118,0
3,66,0,5
3,57,91,1
3,57,0,29
3,62,103,0
3,66,106,30
3,62,0,3
3,50,0,23
3,66,0,1
3,50,127,2
3,67,114,1
3,59,99,1
3,67,0,2
3,62,98,28
3,59,0,4
3,67,116,26
3,62,0,1
3,50,0,23
3,67,0,4
3,67,95,2
3,66,113,0
3,50,127,0
3,67,0,18
3,66,0,29
3,57,93,0
3,62,119,30
3,57,0,3
3,62,0,26
3,64,127,1
3,62,126,30
3,64,0,2
3,62,0,27
3,57,113,0
3,50,0,7
3,57,0,23
3,50,116,1
3,50,0,23
3,45,116,3
3,61,118,1
3,61,0,56
3,52,87,3
3,52,0,24
3,57,119,0
3,61,110,59
3,57,0,1
3,61,0,29
3,57,87,2
3,57,0,25
3,45,0,29
3,62,123,3
3,50,127,0
3,62,0,16
3,54,83,2
3,54,0,24
3,57,98,5
3,57,0,24
3,62,120,5
3,62,0,58
3,54,96,2
3,54,0,29
3,57,90,1
3,57,0,26
3,62,96,2
3,50,0,6
3,62,0,19
3,50,127,5
3,64,120,1
3,66,108,16
3,64,0,2
3,66,0,27
3,62,95,1
3,62,0,29
3,57,106,1
3,62,93,61
3,57,0,5
3,57,96,27
3,62,0,1
3,62,98,28
3,57,0,1
3,50,0,23
3,62,0,2
3,66,120,3
3,50,123,0
3,62,93,30
3,66,0,2
3,62,0,26
3,57,90,2
3,57,0,28
3,66,113,1
3,66,0,59
3,62,91,1
3,62,0,27
3,57,91,3
3,57,0,30
3,62,88,0
3,50,0,6
3,62,0,21
3,64,116,3
3,50,114,0
3,66,91,30
3,64,0,2
3,62,94,29
3,66,0,1
3,62,0,29
3,57,105,0
3,50,0,53
3,50,106,7
3,57,0,25
3,62,103,6
3,62,0,27
3,66,113,1
3,50,0,1
3,66,0,24
3,50,111,0
3,57,114,1
3,50,0,2
3,57,0,29
3,50,105,0
3,57,100,30
3,50,0,1
3,57,0,26
3,62,113,2
3,62,0,28
3,57,100,2
3,57,0,24
3,50,106,5
3,50,0,24
3,64,127,7
3,66,110,21
3,64,0,3
3,62,106,7
3,66,0,2
3,62,0,27
3,57,92,0
3,50,98,31
3,57,0,1
3,50,0,27
3,62,127,3
3,50,95,31
3,62,0,4
3,50,0,23
3,57,102,2
3,57,0,23
3,50,114,1
3,67,108,0
3,59,91,61
3,67,0,1
3,62,123,28
3,59,0,4
3,67,110,57
3,62,0,2
3,62,113,28
3,67,0,2
3,62,0,26
3,59,104,2
3,50,0,3
3,59,0,22
3,50,127,4
3,64,127,0
3,66,106,24
3,64,0,3
3,66,0,26
3,62,106,0
3,62,0,29
3,57,126,1
3,50,0,34
3,50,127,26
3,57,0,3
3,57,119,27
3,50,0,4
3,57,0,19
3,62,127,7
3,62,0,6
3,55,106,5
3,67,110,0
3,59,90,3
3,67,0,24
3,62,119,7
3,59,0,5
3,62,0,53
3,67,120,1
3,62,120,30
3,67,0,3
3,62,0,26
3,59,111,1
3,59,0,29
3,54,124,1
3,64,127,0
3,55,0,2
3,66,88,25
3,64,0,1
3,66,0,29
3,57,89,1
3,62,123,25
3,57,0,1
3,66,118,59
3,62,0,2
3,62,94,29
3,66,0,2
3,62,0,26
3,57,103,2
3,54,0,24
3,57,0,2
3,67,114,4
3,52,127,0
3,59,104,3
3,67,0,1
3,64,104,30
3,59,0,3
3,64,0,23
3,67,123,4
3,64,119,60
3,67,0,1
