track,note,velocity,time
1,39,110,3648
1,39,0,160
1,32,110,32
1,32,0,720
1,27,110,48
1,27,0,94
1,27,110,2
1,27,0,94
1,27,110,578
1,27,0,94
1,27,110,2
1,27,0,94
1,34,110,578
1,34,0,94
1,34,110,2
1,34,0,94
1,32,110,578
1,32,0,94
1,32,110,2
1,32,0,94
1,27,110,578
1,27,0,94
1,27,110,2
1,27,0,94
1,27,110,578
1,27,0,94
1,27,110,2
1,27,0,94
1,34,110,578
1,34,0,94
1,34,110,2
1,34,0,94
1,32,110,578
1,32,0,94
1,32,110,2
1,32,0,94
1,27,110,578
1,27,0,94
1,27,110,2
1,27,0,94
1,27,110,578
1,27,0,94
1,27,110,2
1,27,0,94
1,34,110,578
1,34,0,94
1,34,110,2
1,34,0,94
1,32,110,578
1,32,0,94
1,32,110,2
1,32,0,94
1,36,110,578
1,36,0,94
1,36,110,2
1,36,0,94
1,34,110,578
1,34,0,94
1,34,110,2
1,34,0,94
1,33,110,578
1,33,0,94
1,33,110,2
1,33,0,94
1,32,110,578
1,32,0,720
1,27,110,48
1,27,0,94
1,27,110,2
1,27,0,94
1,27,110,98
1,27,0,94
1,27,110,2
1,27,0,256
1,27,110,32
1,27,0,94
1,32,110,2
1,32,0,94
1,32,110,2
1,32,0,94
1,32,110,98
1,32,0,94
1,27,110,2
1,27,0,256
1,32,110,32
1,32,0,94
1,34,110,2
1,34,0,94
1,34,110,2
1,34,0,94
1,34,110,98
1,34,0,94
1,32,110,2
1,32,0,256
1,32,110,32
1,32,0,94
1,31,110,2
1,31,0,94
1,31,110,2
1,31,0,94
1,31,110,98
1,31,0,94
1,31,110,2
1,31,0,256
1,34,110,32
1,34,0,94
1,36,110,2
1,36,0,94
1,36,110,2
1,36,0,94
1,39,110,98
1,39,0,94
1,34,110,2
1,34,0,256
1,32,110,32
1,32,0,94
1,29,110,2
1,29,0,94
1,29,110,2
1,29,0,94
1,29,110,98
1,29,0,94
1,29,110,2
1,29,0,256
1,31,110,32
1,31,0,94
1,32,110,2
1,32,0,94
1,32,110,2
1,32,0,94
1,32,110,98
1,32,0,94
1,32,110,2
1,32,0,256
1,32,110,32
1,32,0,94
1,34,110,2
1,34,0,94
1,34,110,2
1,34,0,94
1,34,110,98
1,34,0,94
1,34,110,2
1,34,0,160
1,32,110,32
1,32,0,160
1,32,110,32
1,32,0,94
1,32,110,2
1,32,0,94
1,32,110,98
1,32,0,94
1,32,110,2
1,32,0,336
1,27,110,48
1,27,0,94
1,27,110,2
1,27,0,94
1,27,110,98
1,27,0,94
1,27,110,2
1,27,0,336
1,27,110,48
1,27,0,94
1,27,110,2
1,27,0,94
1,27,110,98
1,27,0,352
1,32,110,32
1,32,0,94
1,34,110,2
1,34,0,94
1,34,110,2
1,34,0,94
1,34,110,98
1,34,0,94
1,34,110,2
1,34,0,336
1,32,110,48
1,32,0,94
1,32,110,2
1,32,0,190
1,32,110,2
1,32,0,256
1,32,110,32
1,32,0,94
1,34,110,2
1,34,0,94
1,27,110,2
1,27,0,94
1,27,110,2
1,27,0,94
1,27,110,98
1,27,0,94
1,27,110,2
1,27,0,336
1,27,110,48
1,27,0,94
1,27,110,2
1,27,0,94
1,27,110,98
1,27,0,352
1,32,110,32
1,32,0,94
1,34,110,2
1,34,0,94
1,34,110,2
1,34,0,190
1,34,110,2
1,34,0,94
1,34,110,2
1,34,0,336
1,32,110,48
1,32,0,94
1,32,110,2
1,32,0,190
1,32,110,2
1,32,0,256
1,32,110,32
1,32,0,94
1,34,110,2
1,34,0,94
1,27,110,2
1,27,0,94
1,27,110,2
1,27,0,94
1,27,110,98
1,27,0,94
1,27,110,2
1,27,0,336
1,27,110,48
1,27,0,94
1,27,110,2
1,27,0,94
1,27,110,98
1,27,0,352
1,32,110,32
1,32,0,94
1,34,110,2
1,34,0,94
1,34,110,2
1,34,0,94
1,34,110,98
1,34,0,94
1,34,110,2
1,34,0,336
1,32,110,48
1,32,0,94
1,32,110,2
1,32,0,94
1,32,110,98
1,32,0,352
1,34,110,32
1,34,0,94
1,36,110,2
1,36,0,94
1,36,110,2
1,36,0,94
1,36,110,98
1,36,0,94
1,36,110,2
1,36,0,336
1,34,110,48
1,34,0,94
1,34,110,2
1,34,0,94
1,34,110,98
1,34,0,432
1,33,110,48
1,33,0,94
1,33,110,2
1,33,0,190
1,33,110,2
1,33,0,432
1,32,110,48
1,32,0,528
1,39,110,48
1,39,0,160
1,27,110,32
1,27,0,94
1,27,110,2
1,27,0,94
1,27,110,98
1,27,0,94
1,27,110,2
1,27,0,256
1,27,110,32
1,27,0,94
1,32,110,2
1,32,0,94
1,32,110,2
1,32,0,94
1,32,110,98
1,32,0,94
1,27,110,2
1,27,0,256
1,32,110,32
1,32,0,94
1,34,110,2
1,34,0,94
1,34,110,2
1,34,0,94
1,34,110,98
1,34,0,94
1,32,110,2
1,32,0,256
1,32,110,32
1,32,0,94
1,31,110,2
1,31,0,94
1,31,110,2
1,31,0,94
1,31,110,98
1,31,0,94
1,31,110,2
1,31,0,256
1,34,110,32
1,34,0,94
1,36,110,2
1,36,0,94
1,36,110,2
1,36,0,94
1,39,110,98
1,39,0,94
1,34,110,2
1,34,0,256
1,32,110,32
1,32,0,94
1,29,110,2
1,29,0,94
1,29,110,2
1,29,0,94
1,29,110,98
1,29,0,94
1,29,110,2
1,29,0,256
1,31,110,32
1,31,0,94
1,32,110,2
1,32,0,94
1,32,110,2
1,32,0,94
1,32,110,98
1,32,0,94
1,32,110,2
1,32,0,256
1,32,110,32
1,32,0,94
1,31,110,2
1,31,0,94
1,31,110,2
1,31,0,190
1,31,110,2
1,31,0,94
1,31,110,2
1,31,0,160
1,31,110,32
1,31,0,94
1,35,110,2
1,35,0,94
1,36,110,2
1,36,0,94
1,36,110,2
1,36,0,190
1,36,110,2
1,36,0,94
1,34,110,2
1,34,0,256
1,34,110,32
1,34,0,94
1,27,110,2
1,27,0,94
1,27,110,2
1,27,0,190
1,30,110,2
1,30,0,94
1,32,110,2
1,32,0,256
1,34,110,32
1,34,0,94
1,36,110,2
1,36,0,94
1,36,110,2
1,36,0,94
1,36,110,98
1,36,0,94
1,34,110,2
1,34,0,256
1,29,110,32
1,29,0,94
1,27,110,2
1,27,0,94
1,27,110,2
1,27,0,190
1,30,110,2
1,30,0,94
1,32,110,2
1,32,0,160
1,31,110,32
1,31,0,160
1,29,110,32
1,29,0,94
1,29,110,2
1,29,0,94
1,29,110,98
1,29,0,94
1,29,110,2
1,29,0,256
1,29,110,32
1,29,0,94
1,31,110,2
1,31,0,94
1,31,110,2
1,31,0,190
1,31,110,2
1,31,0,94
1,31,110,2
1,31,0,256
1,31,110,32
1,31,0,94
1,32,110,2
1,32,0,94
1,32,110,2
1,32,0,190
1,32,110,2
1,32,0,94
1,32,110,2
1,32,0,256
1,32,110,32
1,32,0,94
1,35,110,2
1,35,0,94
1,35,110,2
1,35,0,190
1,35,110,2
1,35,0,94
1,36,110,2
1,36,0,160
1,38,110,32
1,38,0,160
1,39,110,32
1,39,0,1488
1,29,110,48
1,29,0,94
1,29,110,2
1,29,0,94
1,29,110,98
1,29,0,94
1,29,110,2
1,29,0,256
1,29,110,32
1,29,0,94
1,34,110,2
1,34,0,94
1,34,110,2
1,34,0,94
1,34,110,98
1,34,0,94
1,29,110,2
1,29,0,256
1,34,110,32
1,34,0,94
1,36,110,2
1,36,0,94
1,36,110,2
1,36,0,94
1,36,110,98
1,36,0,94
1,34,110,2
1,34,0,256
1,34,110,32
1,34,0,94
1,33,110,2
1,33,0,94
1,33,110,2
1,33,0,94
1,33,110,98
1,33,0,94
1,33,110,2
1,33,0,256
1,36,110,32
1,36,0,94
1,38,110,2
1,38,0,94
1,38,110,2
1,38,0,94
1,41,110,98
1,41,0,94
1,36,110,2
1,36,0,256
1,34,110,32
1,34,0,94
1,31,110,2
1,31,0,94
1,31,110,2
1,31,0,94
1,31,110,98
1,31,0,94
1,31,110,2
1,31,0,256
1,33,110,32
1,33,0,94
1,34,110,2
1,34,0,94
1,34,110,2
1,34,0,94
1,34,110,98
1,34,0,94
1,34,110,2
1,34,0,256
1,41,110,32
1,41,0,46
1,43,110,2
1,43,0,46
1,46,110,2
1,46,0,142
1,43,110,2
1,43,0,142
1,40,110,2
1,40,0,94
1,36,110,2
1,36,0,142
1,33,110,2
1,33,0,142
1,31,110,2
1,31,0,94
1,29,110,2
1,29,0,94
1,29,110,2
1,29,0,94
1,29,110,98
1,29,0,94
1,29,110,2
1,29,0,256
1,29,110,32
1,29,0,94
1,34,110,2
1,34,0,94
1,34,110,2
1,34,0,94
1,34,110,98
1,34,0,94
1,29,110,2
1,29,0,256
1,34,110,32
1,34,0,94
1,36,110,2
1,36,0,94
1,36,110,2
1,36,0,94
1,36,110,98
1,36,0,94
1,34,110,2
1,34,0,256
1,34,110,32
1,34,0,94
1,33,110,2
1,33,0,94
1,33,110,2
1,33,0,94
1,33,110,98
1,33,0,94
1,33,110,2
1,33,0,256
1,36,110,32
1,36,0,94
1,38,110,2
1,38,0,94
1,38,110,2
1,38,0,94
1,41,110,98
1,41,0,94
1,36,110,2
1,36,0,256
1,34,110,32
1,34,0,94
1,31,110,2
1,31,0,94
1,31,110,2
1,31,0,94
1,31,110,98
1,31,0,94
1,31,110,2
1,31,0,256
1,33,110,32
1,33,0,94
1,34,110,2
1,34,0,94
1,34,110,2
1,34,0,94
1,34,110,98
1,34,0,94
1,34,110,2
1,34,0,256
1,41,110,32
1,41,0,46
1,43,110,2
1,43,0,46
1,46,110,2
1,46,0,142
1,43,110,2
1,43,0,142
1,40,110,2
1,40,0,94
1,36,110,2
1,36,0,142
1,33,110,2
1,33,0,142
1,31,110,2
1,31,0,94
1,29,110,2
1,29,0,94
1,29,110,2
1,29,0,94
1,29,110,98
1,29,0,94
1,29,110,2
1,29,0,256
1,29,110,32
1,29,0,94
1,34,110,2
1,34,0,94
1,34,110,2
1,34,0,94
1,34,110,98
1,34,0,94
1,29,110,2
1,29,0,256
1,34,110,32
1,34,0,94
1,36,110,2
1,36,0,94
1,36,110,2
1,36,0,94
1,36,110,98
1,36,0,94
1,34,110,2
1,34,0,256
1,34,110,32
1,34,0,94
1,33,110,2
1,33,0,94
1,33,110,2
1,33,0,94
1,33,110,98
1,33,0,94
1,33,110,2
1,33,0,256
1,36,110,32
1,36,0,94
1,38,110,2
1,38,0,94
1,38,110,2
1,38,0,94
1,41,110,98
1,41,0,94
1,36,110,2
1,36,0,256
1,34,110,32
1,34,0,94
1,31,110,2
1,31,0,94
1,31,110,2
1,31,0,94
1,31,110,98
1,31,0,94
1,31,110,2
1,31,0,336
1,34,110,48
1,34,0,720
1,36,110,48
1,36,0,720
2,70,110,16896
2,75,110,0
2,70,0,720
2,75,0,0
2,72,110,48
2,75,110,0
2,72,0,336
2,75,0,0
2,72,110,48
2,75,110,0
2,72,0,160
2,75,0,0
2,70,110,32
2,75,110,0
2,70,0,160
2,75,0,0
2,70,110,32
2,74,110,0
2,70,0,336
2,74,0,0
2,70,110,432
2,74,110,0
2,70,0,720
2,74,0,0
2,72,110,48
2,75,110,0
2,72,0,336
2,75,0,0
2,70,110,48
2,70,0,336
2,69,110,48
2,72,110,0
2,69,0,720
2,72,0,0
2,72,110,48
2,75,110,0
2,72,0,720
2,75,0,0
2,70,110,48
2,75,110,0
2,79,110,0
2,70,0,256
2,75,0,0
2,79,0,0
2,70,110,32
2,70,0,94
2,70,110,2
2,74,110,0
2,77,110,0
2,70,0,336
2,74,0,0
2,77,0,0
2,72,110,48
2,75,110,0
2,72,0,720
2,75,0,0
2,70,110,12336
2,75,110,0
2,70,0,720
2,75,0,0
2,72,110,48
2,75,110,0
2,72,0,336
2,75,0,0
2,72,110,48
2,75,110,0
2,72,0,160
2,75,0,0
2,70,110,32
2,75,110,0
2,70,0,160
2,75,0,0
2,70,110,32
2,74,110,0
2,70,0,336
2,74,0,0
2,70,110,432
2,74,110,0
2,70,0,720
2,74,0,0
2,72,110,48
2,75,110,0
2,72,0,336
2,75,0,0
2,70,110,48
2,70,0,336
2,69,110,48
2,72,110,0
2,69,0,720
2,72,0,0
2,72,110,48
2,75,110,0
2,72,0,720
2,75,0,0
2,71,110,48
2,74,110,0
2,79,110,0
2,71,0,336
2,74,0,0
2,79,0,0
2,71,110,48
2,74,110,0
2,79,110,0
2,71,0,336
2,74,0,0
2,79,0,0
2,69,110,7728
2,72,110,0
2,77,110,0
2,69,0,720
2,72,0,0
2,77,0,0
2,70,110,48
2,74,110,0
2,77,110,0
2,70,0,336
2,74,0,0
2,77,0,0
2,70,110,48
2,74,110,0
2,77,110,0
2,70,0,160
2,74,0,0
2,77,0,0
2,69,110,32
2,72,110,0
2,77,110,0
2,69,0,160
2,72,0,0
2,77,0,0
2,72,110,32
2,76,110,0
2,72,0,336
2,76,0,0
2,70,110,48
2,70,0,336
2,69,110,48
2,72,110,0
2,76,110,0
2,69,0,720
2,72,0,0
2,76,0,0
2,69,110,48
2,74,110,0
2,77,110,0
2,69,0,336
2,74,0,0
2,77,0,0
2,72,110,48
2,72,0,336
2,71,110,48
2,74,110,0
2,71,0,720
2,74,0,0
2,70,110,48
2,74,110,0
2,77,110,0
2,70,0,720
2,74,0,0
2,77,0,0
2,69,110,816
2,72,110,0
2,77,110,0
2,69,0,720
2,72,0,0
2,77,0,0
2,70,110,48
2,74,110,0
2,77,110,0
2,70,0,336
2,74,0,0
2,77,0,0
2,70,110,48
2,74,110,0
2,77,110,0
2,70,0,160
2,74,0,0
2,77,0,0
2,69,110,32
2,72,110,0
2,77,110,0
2,69,0,160
2,72,0,0
2,77,0,0
2,72,110,32
2,76,110,0
2,72,0,336
2,76,0,0
2,70,110,48
2,70,0,336
2,69,110,48
2,72,110,0
2,76,110,0
2,69,0,720
2,72,0,0
2,76,0,0
2,69,110,48
2,74,110,0
2,77,110,0
2,69,0,336
2,74,0,0
2,77,0,0
2,72,110,48
2,72,0,336
2,71,110,48
2,74,110,0
2,71,0,720
2,74,0,0
2,70,110,48
2,74,110,0
2,77,110,0
2,70,0,720
2,74,0,0
2,77,0,0
2,69,110,816
2,72,110,0
2,77,110,0
2,69,0,720
2,72,0,0
2,77,0,0
2,70,110,48
2,74,110,0
2,77,110,0
2,70,0,336
2,74,0,0
2,77,0,0
2,70,110,48
2,74,110,0
2,77,110,0
2,70,0,160
2,74,0,0
2,77,0,0
2,69,110,32
2,72,110,0
2,77,110,0
2,69,0,160
2,72,0,0
2,77,0,0
2,72,110,32
2,76,110,0
2,72,0,336
2,76,0,0
2,70,110,48
2,70,0,336
2,69,110,48
2,72,110,0
2,76,110,0
2,69,0,720
2,72,0,0
2,76,0,0
2,69,110,48
2,74,110,0
2,77,110,0
2,69,0,336
2,74,0,0
2,77,0,0
2,72,110,48
2,72,0,336
2,71,110,48
2,74,110,0
2,71,0,720
2,74,0,0
2,70,110,48
2,74,110,0
2,77,110,0
2,70,0,720
2,74,0,0
2,77,0,0
2,72,110,816
2,76,110,0
2,72,0,160
2,76,0,0
2,74,110,152
2,77,110,0
2,74,0,232
2,77,0,0
2,79,110,32
2,79,0,22
2,76,110,2
2,76,0,166
2,69,110,2
2,69,0,22
2,77,110,2
2,81,110,0
2,77,0,286
2,81,0,0
2,76,110,2
2,79,110,0
2,76,0,232
2,79,0,0
2,69,110,56
2,72,110,0
2,77,110,0
2,69,0,166
2,72,0,0
2,77,0,0
2,69,110,26
2,72,110,0
2,77,110,0
2,69,0,1672
2,72,0,0
2,77,0,0
3,63,110,1536
3,68,110,0
3,63,0,256
3,68,0,0
3,67,110,32
3,67,0,432
3,63,110,48
3,68,110,0
3,63,0,256
3,68,0,0
3,67,110,32
3,67,0,432
3,63,110,48
3,67,110,0
3,63,0,256
3,67,0,0
3,62,110,32
3,65,110,0
3,62,0,432
3,65,0,0
3,60,110,48
3,63,110,0
3,60,0,720
3,63,0,0
3,63,110,48
3,68,110,0
