track,note,velocity,time
5,31,127,2580
5,31,0,748
5,31,127,19
5,31,0,6
5,31,127,361
5,31,0,23
5,31,127,49
5,31,0,23
5,31,123,49
5,31,0,144
5,31,100,48
5,31,0,23
5,31,127,25
5,31,0,23
5,31,119,49
5,31,0,23
5,31,114,49
5,31,0,168
5,31,105,24
5,31,0,23
5,31,127,25
5,31,0,23
5,31,113,49
5,31,0,23
5,31,109,49
5,31,0,192
5,29,95,0
5,29,0,48
5,31,111,0
5,31,0,23
5,31,114,49
5,31,0,23
5,31,114,49
5,31,0,192
5,34,109,0
5,34,0,48
5,31,115,0
5,31,0,23
5,31,117,49
5,31,0,23
5,31,114,49
5,31,0,168
5,31,95,24
5,31,0,23
5,31,124,25
5,31,0,23
5,31,110,49
5,31,0,23
5,31,108,49
5,31,0,192
5,29,105,0
5,29,0,48
5,31,117,0
5,31,0,23
5,31,116,49
5,31,0,23
5,31,117,49
5,31,0,168
5,31,105,24
5,31,0,23
5,27,127,25
5,27,0,48
5,27,127,24
5,27,0,23
5,27,123,49
5,27,0,23
5,29,127,25
5,29,0,48
5,29,127,24
5,29,0,23
5,29,127,49
5,29,0,23
5,37,127,25
5,37,0,48
5,37,127,24
5,37,0,23
5,37,127,49
5,37,0,144
5,37,109,48
5,37,0,48
5,34,126,0
5,34,0,48
5,34,118,24
5,34,0,23
5,34,119,49
5,34,0,168
5,34,114,24
5,34,0,48
5,30,122,0
5,30,0,48
5,30,121,24
5,30,0,23
5,30,127,49
5,30,0,144
5,30,113,48
5,30,0,48
5,32,127,0
5,32,0,48
5,32,125,24
5,32,0,23
5,32,127,49
5,32,0,72
5,32,111,24
5,32,0,8
5,39,116,0
5,39,0,31
5,36,113,0
5,36,0,48
5,37,127,0
5,37,0,48
5,37,127,24
5,37,0,23
5,37,127,49
5,37,0,192
5,32,114,0
5,32,0,48
5,34,127,0
5,34,0,48
5,34,127,24
5,34,0,23
5,34,127,49
5,34,0,168
5,34,119,24
5,34,0,48
5,30,127,0
5,30,0,48
5,30,127,24
5,30,0,23
5,30,127,49
5,30,0,168
5,30,113,24
5,30,0,48
5,32,127,0
5,32,0,5
5,34,127,38
5,34,0,72
5,34,120,0
5,34,0,23
5,34,127,49
5,34,0,72
5,34,113,24
5,34,0,23
5,34,108,25
5,34,0,23
5,34,110,25
5,34,0,48
5,29,127,0
5,29,0,48
5,29,117,24
5,29,0,48
5,29,126,24
5,29,0,72
5,29,109,24
5,29,0,23
5,29,126,25
5,29,0,23
5,29,123,25
5,29,0,48
5,31,127,0
5,31,0,48
5,31,127,24
5,31,0,23
5,31,127,49
5,31,0,72
5,31,116,24
5,31,0,23
5,31,127,25
5,31,0,48
5,26,124,0
5,26,0,48
5,27,127,0
5,27,0,48
5,27,127,24
5,27,0,48
5,27,127,24
5,27,0,48
5,29,127,0
5,29,0,48
5,29,127,24
5,29,0,48
5,29,127,24
5,29,0,48
5,34,126,0
5,34,0,48
5,34,125,24
5,34,0,23
5,34,127,49
5,34,0,72
5,34,125,24
5,34,0,48
5,24,115,0
5,24,0,48
5,26,111,0
5,26,0,48
5,29,127,0
5,29,0,72
5,29,123,0
5,29,0,23
5,29,127,49
5,29,0,72
5,29,127,24
5,29,0,23
5,29,127,25
5,29,0,48
5,26,107,0
5,26,0,48
5,31,123,0
5,31,0,48
5,31,123,24
5,31,0,23
5,31,127,49
5,31,0,72
5,31,123,24
5,31,0,23
5,31,127,25
5,31,0,48
5,29,127,0
5,29,0,48
5,27,127,0
5,27,0,48
5,27,123,24
5,27,0,48
5,27,127,24
5,27,0,48
5,29,127,0
5,29,0,48
5,29,127,24
5,29,0,48
5,29,127,24
5,29,0,23
5,31,127,25
5,31,0,23
5,31,127,49
5,31,0,23
5,31,123,49
5,31,0,144
5,31,100,48
5,31,0,23
5,31,127,25
5,31,0,23
5,31,119,49
5,31,0,23
5,31,114,49
5,31,0,168
5,31,105,24
5,31,0,23
5,31,127,25
5,31,0,23
5,31,113,49
5,31,0,23
5,31,109,49
5,31,0,192
5,29,95,0
5,29,0,48
5,31,111,0
5,31,0,23
5,31,114,49
5,31,0,23
5,31,114,49
5,31,0,192
5,34,109,0
5,34,0,48
5,31,115,0
5,31,0,23
5,31,117,49
5,31,0,23
5,31,114,49
5,31,0,168
5,31,95,24
5,31,0,23
5,31,124,25
5,31,0,23
5,31,110,49
5,31,0,23
5,31,108,49
5,31,0,192
5,29,105,0
5,29,0,48
5,31,117,0
5,31,0,23
5,31,116,49
5,31,0,23
5,31,117,49
5,31,0,168
5,31,105,24
5,31,0,23
5,27,127,25
5,27,0,48
5,27,127,24
5,27,0,23
5,27,123,49
5,27,0,23
5,29,127,25
5,29,0,48
5,29,127,24
5,29,0,23
5,29,127,49
5,29,0,23
5,37,127,25
5,37,0,48
5,37,127,24
5,37,0,23
5,37,127,49
5,37,0,144
5,37,109,48
5,37,0,48
5,34,126,0
5,34,0,48
5,34,118,24
5,34,0,23
5,34,119,49
5,34,0,168
5,34,114,24
5,34,0,48
5,30,122,0
5,30,0,48
5,30,121,24
5,30,0,23
5,30,127,49
5,30,0,144
5,30,113,48
5,30,0,48
5,32,127,0
5,32,0,48
5,32,125,24
5,32,0,23
5,32,127,49
5,32,0,72
5,32,111,24
5,32,0,8
5,39,116,0
5,39,0,31
5,36,113,0
5,36,0,48
5,37,127,0
5,37,0,48
5,37,127,24
5,37,0,23
5,37,127,49
5,37,0,192
5,32,114,0
5,32,0,48
5,34,127,0
5,34,0,48
5,34,127,24
5,34,0,23
5,34,127,49
5,34,0,168
5,34,119,24
5,34,0,48
5,30,127,0
5,30,0,48
5,30,127,24
5,30,0,23
5,30,127,49
5,30,0,168
5,30,113,24
5,30,0,48
5,32,127,0
5,32,0,5
5,34,127,38
5,34,0,72
5,34,120,0
5,34,0,23
5,34,127,49
5,34,0,72
5,34,113,24
5,34,0,23
5,34,108,25
5,34,0,23
5,34,110,25
5,34,0,48
5,29,127,0
5,29,0,48
5,29,117,24
5,29,0,48
5,29,126,24
5,29,0,72
5,29,109,24
5,29,0,23
5,29,126,25
5,29,0,23
5,29,123,25
5,29,0,48
5,31,127,0
5,31,0,48
5,31,127,24
5,31,0,23
5,31,127,49
5,31,0,72
5,31,116,24
5,31,0,23
5,31,127,25
5,31,0,48
5,26,124,0
5,26,0,48
5,27,127,0
5,27,0,48
5,27,127,24
5,27,0,48
5,27,127,24
5,27,0,48
5,29,127,0
5,29,0,48
5,29,127,24
5,29,0,48
5,29,127,24
5,29,0,48
5,34,126,0
5,34,0,48
5,34,125,24
5,34,0,23
5,34,127,49
5,34,0,72
5,34,125,24
5,34,0,48
5,24,115,0
5,24,0,48
5,26,111,0
5,26,0,48
5,29,127,0
5,29,0,72
5,29,123,0
5,29,0,23
5,29,127,49
5,29,0,72
5,29,127,24
5,29,0,23
5,29,127,25
5,29,0,48
5,26,107,0
5,26,0,48
5,31,123,0
5,31,0,48
5,31,123,24
5,31,0,23
5,31,127,49
5,31,0,72
5,31,123,24
5,31,0,23
5,31,127,25
5,31,0,48
5,29,127,0
5,29,0,48
5,27,127,0
5,27,0,48
5,27,127,24
5,27,0,48
5,27,127,24
5,27,0,23
5,29,127,25
5,29,0,72
5,30,127,24
5,30,0,72
5,31,127,24
5,31,0,48
5,31,122,24
5,31,0,23
5,31,127,49
5,31,0,168
5,31,114,24
5,31,0,48
5,29,127,0
5,29,0,48
5,29,123,24
5,29,0,23
5,29,127,49
5,29,0,144
5,29,115,48
5,29,0,23
5,27,127,25
5,27,0,48
5,27,124,24
5,27,0,23
5,27,117,49
5,27,0,48
5,24,127,0
5,24,0,120
5,24,126,24
5,24,0,48
5,29,127,0
5,29,0,72
5,29,127,0
5,29,0,23
5,29,127,49
5,29,0,72
5,29,111,24
5,29,0,1
5,36,115,0
5,36,0,2
5,29,127,0
5,29,0,3
5,37,127,13
5,37,0,384
5,34,109,0
5,34,0,384
5,30,113,0
5,30,0,384
5,32,124,0
5,32,0,336
5,36,114,0
5,36,0,48
5,37,127,0
5,37,0,384
5,34,127,0
5,34,0,336
5,29,102,0
5,29,0,48
5,30,127,0
5,30,0,384
5,32,127,0
5,32,0,1
5,34,127,0
5,22,83,384
5,34,0,336
5,22,0,24
5,34,127,1560
5,34,0,48
5,29,127,336
5,29,0,48
5,31,127,336
5,31,0,48
5,27,127,336
5,27,0,146
5,34,127,24
5,34,0,72
5,34,120,0
5,34,0,23
5,34,127,49
5,34,0,72
5,34,113,24
5,34,0,23
5,34,108,25
5,34,0,23
5,34,110,25
5,34,0,48
5,29,127,0
5,29,0,48
5,29,117,24
5,29,0,48
5,29,126,24
5,29,0,72
5,29,109,24
5,29,0,23
5,29,126,25
5,29,0,23
5,29,123,25
5,29,0,48
5,31,127,0
5,31,0,48
5,31,127,24
5,31,0,23
5,31,127,49
5,31,0,72
5,31,116,24
5,31,0,23
5,31,127,25
5,31,0,48
5,26,124,0
5,26,0,48
5,27,127,0
5,27,0,48
5,27,127,24
5,27,0,48
5,27,127,24
5,27,0,48
5,29,127,0
5,29,0,48
5,29,127,24
5,29,0,48
5,29,127,24
5,29,0,48
5,34,126,0
5,34,0,48
5,34,125,24
5,34,0,23
5,34,127,49
5,34,0,72
5,34,125,24
5,34,0,48
5,24,115,0
5,24,0,48
5,26,111,0
5,26,0,48
5,29,127,0
5,29,0,72
5,29,123,0
5,29,0,23
5,29,127,49
5,29,0,72
5,29,127,24
5,29,0,23
5,29,127,25
5,29,0,48
5,26,107,0
5,26,0,48
5,31,123,0
5,31,0,48
5,31,123,24
5,31,0,23
5,31,127,49
5,31,0,72
5,31,123,24
5,31,0,23
5,31,127,25
5,31,0,48
5,29,127,0
5,29,0,48
5,27,127,0
5,27,0,48
5,27,123,24
5,27,0,48
5,27,127,24
5,27,0,48
5,29,127,0
5,29,0,48
5,29,127,24
5,29,0,48
5,29,127,24
5,29,0,23
5,34,127,25
5,34,0,72
5,34,120,0
5,34,0,23
5,34,127,49
5,34,0,72
5,34,113,24
5,34,0,23
5,34,108,25
5,34,0,23
5,34,110,25
5,34,0,48
5,29,127,0
5,29,0,48
5,29,117,24
5,29,0,48
5,29,126,24
5,29,0,72
5,29,109,24
5,29,0,23
5,29,126,25
5,29,0,23
5,29,123,25
5,29,0,48
5,31,127,0
5,31,0,48
5,31,127,24
5,31,0,23
5,31,127,49
5,31,0,72
5,31,116,24
5,31,0,23
5,31,127,25
5,31,0,48
5,26,124,0
5,26,0,48
5,27,127,0
5,27,0,48
5,27,127,24
5,27,0,48
5,27,127,24
5,27,0,48
5,29,127,0
5,29,0,48
5,29,127,24
5,29,0,48
5,29,127,24
5,29,0,48
5,34,126,0
5,34,0,48
5,34,125,24
5,34,0,23
5,34,127,49
5,34,0,72
5,34,125,24
5,34,0,48
5,24,115,0
5,24,0,48
5,26,111,0
5,26,0,48
5,29,127,0
5,29,0,72
5,29,123,0
5,29,0,23
5,29,127,49
5,29,0,72
5,29,127,24
5,29,0,23
5,29,127,25
5,29,0,48
5,26,107,0
5,26,0,48
5,31,123,0
5,31,0,48
5,31,123,24
5,31,0,23
5,31,127,49
5,31,0,72
5,31,123,24
5,31,0,23
5,31,127,25
5,31,0,48
5,29,127,0
5,29,0,48
5,27,127,0
5,27,0,48
5,27,127,24
5,27,0,48
5,27,127,24
5,27,0,23
5,29,127,25
5,29,0,72
5,30,127,24
5,30,0,72
5,31,127,24
5,31,0,48
5,31,122,24
5,31,0,23
5,31,127,49
5,31,0,168
5,31,114,24
5,31,0,48
5,29,127,0
5,29,0,48
5,29,123,24
5,29,0,23
5,29,127,49
5,29,0,144
5,29,115,48
5,29,0,23
5,27,127,25
5,27,0,48
5,27,124,24
5,27,0,23
5,27,117,49
5,27,0,48
5,24,127,0
5,24,0,120
5,24,126,24
5,24,0,48
5,29,127,0
5,29,0,72
5,29,127,0
5,29,0,23
5,29,127,49
5,29,0,72
5,29,111,24
5,29,0,1
5,36,115,0
5,36,0,2
5,29,127,0
5,29,0,3
5,34,127,13
5,34,0,1
6,62,114,4
6,65,108,1
6,58,111,2
6,70,99,0
6,62,0,20
6,65,0,1
6,58,0,2
6,70,0,0
6,58,119,1
6,62,122,0
6,65,117,0
6,70,105,0
6,53,127,0
6,58,0,23
6,62,0,0
6,65,0,0
6,70,0,0
6,53,0,0
6,53,127,1
6,58,123,0
6,65,127,0
6,62,127,0
6,70,127,0
6,53,0,23
6,58,0,0
6,65,0,0
6,62,0,0
6,70,0,0
6,60,88,9
6,57,83,0
6,48,81,0
6,53,81,0
6,60,0,43
6,57,0,0
6,48,0,0
6,53,0,0
6,58,90,216
6,62,86,0
6,50,81,0
6,55,88,0
6,58,0,62
6,62,0,0
6,50,0,0
6,55,0,0
6,58,91,5
6,46,89,0
6,55,84,0
6,51,77,0
6,58,0,53
6,46,0,0
6,55,0,0
6,51,0,0
6,53,104,120
6,60,105,0
6,57,105,0
6,48,104,0
6,53,0,137
6,60,0,0
6,57,0,0
6,48,0,0
6,55,126,48
6,43,126,0
6,50,124,0
6,55,0,23
6,43,0,0
6,50,0,0
6,43,123,49
6,50,122,0
6,55,123,0
6,43,0,23
6,50,0,0
6,55,0,0
6,50,123,49
6,55,122,0
6,43,127,0
6,50,0,23
6,55,0,0
6,43,0,0
6,43,119,217
6,48,124,0
6,55,126,0
6,43,0,23
6,48,0,0
6,55,0,0
6,48,126,49
6,43,124,0
6,55,127,0
6,48,0,23
6,43,0,0
6,55,0,0
6,55,127,49
6,48,127,0
6,43,126,0
6,55,0,23
6,48,0,0
6,43,0,0
6,50,127,217
6,55,127,0
6,43,126,0
6,50,0,23
6,55,0,0
6,43,0,0
6,50,127,49
6,55,127,0
6,43,126,0
6,50,0,23
6,55,0,0
6,43,0,0
6,43,127,49
6,50,127,0
6,55,127,0
6,43,0,23
6,50,0,0
6,55,0,0
6,50,44,265
6,55,44,0
6,43,44,0
6,50,0,23
6,55,0,0
6,43,0,0
6,55,51,1
6,50,51,0
6,43,51,0
6,55,0,23
6,50,0,0
6,43,0,0
6,55,61,1
6,43,61,0
6,50,61,0
6,55,0,23
6,43,0,0
6,50,0,0
6,50,79,25
6,43,79,0
6,55,79,0
6,50,0,23
6,43,0,0
6,55,0,0
6,55,85,1
6,50,85,0
6,43,85,0
6,55,0,23
6,50,0,0
6,43,0,0
6,55,88,25
6,43,88,0
6,50,88,0
6,55,0,23
6,43,0,0
6,50,0,0
6,43,86,1
6,55,86,0
6,50,86,0
6,43,0,23
6,55,0,0
6,50,0,0
6,55,83,1
6,50,83,0
6,43,83,0
6,55,0,23
6,50,0,0
6,43,0,0
6,50,69,1
6,43,69,0
6,55,69,0
6,50,0,23
6,43,0,0
6,55,0,0
6,55,59,25
6,43,59,0
6,50,59,0
6,55,0,23
6,43,0,0
6,50,0,0
6,61,127,3097
6,53,125,0
6,56,127,0
6,61,0,16
6,53,0,0
6,56,0,0
6,61,127,49
6,53,123,0
6,56,127,0
6,61,0,23
6,53,0,0
6,56,0,0
6,56,125,49
6,53,118,0
6,61,125,0
6,56,0,23
6,53,0,0
6,61,0,0
6,61,108,49
6,53,98,0
6,56,110,0
6,61,0,23
6,53,0,0
6,56,0,0
6,53,111,1
6,56,123,0
6,61,120,0
6,53,0,23
6,56,0,0
6,61,0,0
6,53,127,25
6,56,127,0
6,61,127,0
6,53,0,23
6,56,0,0
6,61,0,0
6,56,114,25
6,53,103,0
6,61,108,0
6,56,0,23
6,53,0,0
6,61,0,0
6,58,127,19
6,61,125,0
6,53,119,0
6,58,0,14
6,61,0,0
6,53,0,0
6,58,127,49
6,53,117,0
6,61,122,0
6,58,0,23
6,53,0,0
6,61,0,0
6,58,127,49
6,61,122,0
6,53,119,0
6,58,0,23
6,61,0,0
6,53,0,0
6,61,88,49
6,58,102,0
6,53,89,0
6,61,0,23
6,58,0,0
6,53,0,0
6,58,112,1
6,61,101,0
6,53,95,0
6,58,0,23
6,61,0,0
6,53,0,0
