track,note,velocity,time
3,31,127,2580
3,31,127,19
3,31,127,361
3,31,127,49
3,31,123,49
3,31,100,48
3,31,127,25
3,31,119,49
3,31,114,49
3,31,105,24
3,31,127,25
3,31,113,49
3,31,109,49
3,29,95,0
3,31,111,0
3,31,114,49
3,31,114,49
3,34,109,0
3,31,115,0
3,31,117,49
3,31,114,49
3,31,95,24
3,31,124,25
3,31,110,49
3,31,108,49
3,29,105,0
3,31,117,0
3,31,116,49
3,31,117,49
3,31,105,24
3,27,127,25
3,27,127,24
3,27,123,49
3,29,127,25
3,29,127,24
3,29,127,49
3,37,127,25
3,37,127,24
3,37,127,49
3,37,109,48
3,34,126,0
3,34,118,24
3,34,119,49
3,34,114,24
3,30,122,0
3,30,121,24
3,30,127,49
3,30,113,48
3,32,127,0
3,32,125,24
3,32,127,49
3,32,111,24
3,39,116,0
3,36,113,0
3,37,127,0
3,37,127,24
3,37,127,49
3,32,114,0
3,34,127,0
3,34,127,24
3,34,127,49
3,34,119,24
3,30,127,0
3,30,127,24
3,30,127,49
3,30,113,24
3,32,127,0
3,34,127,38
3,34,120,0
3,34,127,49
3,34,113,24
3,34,108,25
3,34,110,25
3,29,127,0
3,29,117,24
3,29,126,24
3,29,109,24
3,29,126,25
3,29,123,25
3,31,127,0
3,31,127,24
3,31,127,49
3,31,116,24
3,31,127,25
3,26,124,0
3,27,127,0
3,27,127,24
3,27,127,24
3,29,127,0
3,29,127,24
3,29,127,24
3,34,126,0
3,34,125,24
3,34,127,49
3,34,125,24
3,24,115,0
3,26,111,0
3,29,127,0
3,29,123,0
3,29,127,49
3,29,127,24
3,29,127,25
3,26,107,0
3,31,123,0
3,31,123,24
3,31,127,49
3,31,123,24
3,31,127,25
3,29,127,0
3,27,127,0
3,27,123,24
3,27,127,24
3,29,127,0
3,29,127,24
3,29,127,24
3,31,127,25
3,31,127,49
3,31,123,49
3,31,100,48
3,31,127,25
3,31,119,49
3,31,114,49
3,31,105,24
3,31,127,25
3,31,113,49
3,31,109,49
3,29,95,0
3,31,111,0
3,31,114,49
3,31,114,49
3,34,109,0
3,31,115,0
3,31,117,49
3,31,114,49
3,31,95,24
3,31,124,25
3,31,110,49
3,31,108,49
3,29,105,0
3,31,117,0
3,31,116,49
3,31,117,49
3,31,105,24
3,27,127,25
3,27,127,24
3,27,123,49
3,29,127,25
3,29,127,24
3,29,127,49
3,37,127,25
3,37,127,24
3,37,127,49
3,37,109,48
3,34,126,0
3,34,118,24
3,34,119,49
3,34,114,24
3,30,122,0
3,30,121,24
3,30,127,49
3,30,113,48
3,32,127,0
3,32,125,24
3,32,127,49
3,32,111,24
3,39,116,0
3,36,113,0
3,37,127,0
3,37,127,24
3,37,127,49
3,32,114,0
3,34,127,0
3,34,127,24
3,34,127,49
3,34,119,24
3,30,127,0
3,30,127,24
3,30,127,49
3,30,113,24
3,32,127,0
3,34,127,38
3,34,120,0
3,34,127,49
3,34,113,24
3,34,108,25
3,34,110,25
3,29,127,0
3,29,117,24
3,29,126,24
3,29,109,24
3,29,126,25
3,29,123,25
3,31,127,0
3,31,127,24
3,31,127,49
3,31,116,24
3,31,127,25
3,26,124,0
3,27,127,0
3,27,127,24
3,27,127,24
3,29,127,0
3,29,127,24
3,29,127,24
3,34,126,0
3,34,125,24
3,34,127,49
3,34,125,24
3,24,115,0
3,26,111,0
3,29,127,0
3,29,123,0
3,29,127,49
3,29,127,24
3,29,127,25
3,26,107,0
3,31,123,0
3,31,123,24
3,31,127,49
3,31,123,24
3,31,127,25
3,29,127,0
3,27,127,0
3,27,127,24
3,27,127,24
3,29,127,25
3,30,127,24
3,31,127,24
3,31,122,24
3,31,127,49
3,31,114,24
3,29,127,0
3,29,123,24
3,29,127,49
3,29,115,48
3,27,127,25
3,27,124,24
3,27,117,49
3,24,127,0
3,24,126,24
3,29,127,0
3,29,127,0
3,29,127,49
3,29,111,24
3,36,115,0
3,29,127,0
3,37,127,13
3,34,109,0
3,30,113,0
3,32,124,0
3,36,114,0
3,37,127,0
3,34,127,0
3,29,102,0
3,30,127,0
3,32,127,0
3,34,127,0
3,22,83,384
3,34,127,1560
3,29,127,336
3,31,127,336
3,27,127,336
3,34,127,24
3,34,120,0
3,34,127,49
3,34,113,24
3,34,108,25
3,34,110,25
3,29,127,0
3,29,117,24
3,29,126,24
3,29,109,24
3,29,126,25
3,29,123,25
3,31,127,0
3,31,127,24
3,31,127,49
3,31,116,24
3,31,127,25
3,26,124,0
3,27,127,0
3,27,127,24
3,27,127,24
3,29,127,0
3,29,127,24
3,29,127,24
3,34,126,0
3,34,125,24
3,34,127,49
3,34,125,24
3,24,115,0
3,26,111,0
3,29,127,0
3,29,123,0
3,29,127,49
3,29,127,24
3,29,127,25
3,26,107,0
3,31,123,0
3,31,123,24
3,31,127,49
3,31,123,24
3,31,127,25
3,29,127,0
3,27,127,0
3,27,123,24
3,27,127,24
3,29,127,0
3,29,127,24
3,29,127,24
3,34,127,25
3,34,120,0
3,34,127,49
3,34,113,24
3,34,108,25
3,34,110,25
3,29,127,0
3,29,117,24
3,29,126,24
3,29,109,24
3,29,126,25
3,29,123,25
3,31,127,0
3,31,127,24
3,31,127,49
3,31,116,24
3,31,127,25
3,26,124,0
3,27,127,0
3,27,127,24
3,27,127,24
3,29,127,0
3,29,127,24
3,29,127,24
3,34,126,0
3,34,125,24
3,34,127,49
3,34,125,24
3,24,115,0
3,26,111,0
3,29,127,0
3,29,123,0
3,29,127,49
3,29,127,24
3,29,127,25
3,26,107,0
3,31,123,0
3,31,123,24
3,31,127,49
3,31,123,24
3,31,127,25
3,29,127,0
3,27,127,0
3,27,127,24
3,27,127,24
3,29,127,25
3,30,127,24
3,31,127,24
3,31,122,24
3,31,127,49
3,31,114,24
3,29,127,0
3,29,123,24
3,29,127,49
3,29,115,48
3,27,127,25
3,27,124,24
3,27,117,49
3,24,127,0
3,24,126,24
3,29,127,0
3,29,127,0
3,29,127,49
3,29,111,24
3,36,115,0
3,29,127,0
3,34,127,13
4,62,114,4
4,65,108,1
4,58,111,2
4,70,99,0
4,53,127,1
4,58,119,0
4,62,122,0
4,65,117,0
4,70,105,0
4,53,127,1
4,58,123,0
4,62,127,0
4,65,127,0
4,70,127,0
4,48,81,9
4,53,81,0
4,57,83,0
4,60,88,0
4,50,81,216
4,55,88,0
4,58,90,0
4,62,86,0
4,46,89,5
4,51,77,0
4,55,84,0
4,58,91,0
4,48,104,120
4,53,104,0
4,57,105,0
4,60,105,0
4,43,126,48
4,50,124,0
4,55,126,0
4,43,123,49
4,50,122,0
4,55,123,0
4,43,127,49
4,50,123,0
4,55,122,0
4,43,119,217
4,48,124,0
4,55,126,0
4,43,124,49
4,48,126,0
4,55,127,0
4,43,126,49
4,48,127,0
4,55,127,0
4,43,126,217
4,50,127,0
4,55,127,0
4,43,126,49
4,50,127,0
4,55,127,0
4,43,127,49
4,50,127,0
4,55,127,0
4,43,44,265
4,50,44,0
4,55,44,0
4,43,51,1
4,50,51,0
4,55,51,0
4,43,61,1
4,50,61,0
4,55,61,0
4,43,79,25
4,50,79,0
4,55,79,0
4,43,85,1
4,50,85,0
4,55,85,0
4,43,88,25
4,50,88,0
4,55,88,0
4,43,86,1
4,50,86,0
4,55,86,0
4,43,83,1
4,50,83,0
4,55,83,0
4,43,69,1
4,50,69,0
4,55,69,0
4,43,59,25
4,50,59,0
4,55,59,0
4,53,125,3097
4,56,127,0
4,61,127,0
4,53,123,49
4,56,127,0
4,61,127,0
4,53,118,49
4,56,125,0
4,61,125,0
4,53,98,49
4,56,110,0
4,61,108,0
4,53,111,1
4,56,123,0
4,61,120,0
4,53,127,25
4,56,127,0
4,61,127,0
4,53,103,25
4,56,114,0
4,61,108,0
4,53,119,19
4,58,127,0
4,61,125,0
4,53,117,49
4,58,127,0
4,61,122,0
4,53,119,49
4,58,127,0
4,61,122,0
4,53,89,49
4,58,102,0
4,61,88,0
4,53,95,1
4,58,112,0
4,61,101,0
4,53,98,1
4,58,120,0
4,61,109,0
4,53,107,1
4,58,127,0
4,61,118,0
4,53,123,25
4,58,127,0
4,61,123,0
4,49,127,5
4,54,127,0
4,58,127,0
4,49,122,24
4,54,126,0
4,58,127,0
4,49,127,49
4,54,127,0
4,58,127,0
4,49,101,49
4,54,103,0
4,58,110,0
4,49,108,1
4,54,114,0
4,58,124,0
4,49,127,25
4,54,127,0
4,58,127,0
4,49,111,25
4,54,113,0
4,58,123,0
4,51,123,11
4,56,127,0
4,60,127,0
4,51,122,49
4,56,127,0
4,60,125,0
4,51,127,49
4,56,127,0
4,60,127,0
4,51,115,73
4,56,122,0
4,60,120,0
4,51,120,25
4,58,112,0
4,60,119,0
4,61,121,0
4,60,115,25
4,63,126,0
4,53,125,12
4,56,127,0
4,61,127,0
4,53,126,24
4,56,127,0
4,61,127,0
4,53,127,49
4,56,127,0
4,61,127,0
4,53,101,49
4,56,110,0
4,61,105,0
4,53,109,1
4,56,122,0
4,61,116,0
4,53,127,25
4,56,127,0
4,61,127,0
4,53,100,25
4,56,117,0
4,61,107,0
4,53,109,1
4,56,122,0
4,61,114,0
4,53,113,1
4,58,127,0
4,61,119,0
4,53,117,49
4,58,127,0
4,61,122,0
4,53,127,49
4,58,127,0
4,61,124,0
4,53,99,49
4,58,114,0
4,61,109,0
4,53,109,1
4,58,126,0
4,61,121,0
4,53,126,25
4,58,127,0
4,61,127,0
4,53,116,25
4,58,126,0
4,61,119,0
4,54,127,9
4,56,127,0
4,58,127,0
4,61,127,0
4,54,120,49
4,56,127,0
4,58,127,0
4,61,127,0
4,54,127,49
4,56,127,0
4,58,127,0
4,61,127,0
4,54,114,49
4,56,122,0
4,58,122,0
4,61,121,0
4,54,116,1
4,56,127,0
4,58,127,0
4,61,127,0
4,54,125,25
4,56,127,0
4,58,127,0
4,61,127,0
4,54,122,25
4,56,127,0
4,58,127,0
4,61,127,0
4,51,127,6
4,56,127,0
4,60,127,0
4,53,120,0
4,58,127,0
4,62,127,0
4,65,127,0
4,53,126,49
4,58,127,0
4,62,125,0
4,65,126,0
4,53,123,49
4,58,123,0
4,62,116,0
4,65,112,0
4,53,112,73
4,58,111,0
4,62,104,0
4,65,100,0
4,53,122,25
4,58,123,0
4,62,117,0
4,65,113,0
4,53,111,25
4,58,127,0
4,65,110,0
4,57,127,3
4,60,127,0
4,65,127,0
4,57,127,49
4,60,127,0
4,65,127,0
4,57,127,49
4,60,127,0
4,65,127,0
4,57,117,73
4,60,122,0
4,65,117,0
4,57,126,25
4,60,127,0
4,65,125,0
4,57,118,25
4,60,123,0
4,65,113,0
4,55,127,9
4,58,127,0
4,65,127,0
4,55,127,49
4,58,127,0
4,65,127,0
4,55,127,49
4,58,127,0
4,65,127,0
4,55,123,73
4,58,126,0
4,65,126,0
4,55,124,25
4,58,126,0
4,65,123,0
4,55,122,25
4,58,126,0
4,65,123,0
4,55,127,10
4,58,127,0
4,63,127,0
4,65,127,0
4,55,127,49
4,58,127,0
4,63,127,0
4,65,127,0
4,55,115,49
4,58,117,0
4,63,123,0
4,65,113,0
4,57,127,8
4,60,127,0
4,65,127,0
4,57,123,49
4,60,127,0
4,65,127,0
4,57,122,49
4,60,127,0
4,65,125,0
4,53,127,11
4,58,127,0
4,62,127,0
4,65,127,0
4,53,126,49
4,58,127,0
4,62,126,0
4,65,127,0
4,53,127,49
4,58,127,0
4,62,127,0
4,65,127,0
4,53,122,73
4,58,126,0
4,62,119,0
4,65,122,0
4,53,127,25
4,58,127,0
4,62,127,0
4,65,126,0
4,53,118,25
4,58,121,0
4,62,108,0
4,65,115,0
4,57,127,2
4,60,127,0
4,65,127,0
4,57,127,49
4,60,127,0
4,65,127,0
4,57,127,49
4,60,127,0
4,65,127,0
4,57,119,73
4,60,126,0
4,65,119,0
4,57,124,25
4,60,127,0
4,65,124,0
4,57,123,25
4,60,127,0
4,65,123,0
4,55,127,17
4,58,127,0
4,65,127,0
4,55,127,49
4,58,127,0
4,65,127,0
4,55,127,49
4,58,127,0
4,65,127,0
4,55,127,73
4,58,127,0
4,65,125,0
4,55,126,25
4,58,127,0
4,65,123,0
4,55,123,25
4,58,127,0
4,65,120,0
4,55,127,25
4,58,127,0
4,65,127,0
4,55,127,49
4,58,127,0
4,65,127,0
4,55,127,49
4,58,127,0
4,65,122,0
4,57,127,2
4,60,127,0
4,65,127,0
4,57,126,49
4,60,127,0
4,65,126,0
4,57,127,49
4,60,127,0
4,65,127,0
4,53,125,3091
4,56,127,0
4,61,127,0
4,53,123,49
4,56,127,0
4,61,127,0
4,53,118,49
4,56,125,0
4,61,125,0
4,53,98,49
4,56,110,0
4,61,108,0
4,53,111,1
4,56,123,0
4,61,120,0
4,53,127,25
4,56,127,0
4,61,127,0
4,53,103,25
4,56,114,0
4,61,108,0
4,53,119,19
4,58,127,0
4,61,125,0
4,53,117,49
4,58,127,0
4,61,122,0
4,53,119,49
4,58,127,0
4,61,122,0
4,53,89,49
4,58,102,0
4,61,88,0
4,53,95,1
4,58,112,0
4,61,101,0
4,53,98,1
4,58,120,0
4,61,109,0
4,53,107,1
4,58,127,0
4,61,118,0
4,53,123,25
4,58,127,0
4,61,123,0
4,49,127,5
4,54,127,0
4,58,127,0
4,49,122,24
4,54,126,0
4,58,127,0
4,49,127,49
4,54,127,0
4,58,127,0
4,49,101,49
4,54,103,0
4,58,110,0
4,49,108,1
4,54,114,0
4,58,124,0
4,49,127,25
4,54,127,0
4,58,127,0
4,49,111,25
4,54,113,0
4,58,123,0
4,51,123,11
4,56,127,0
4,60,127,0
4,51,122,49
4,56,127,0
4,60,125,0
4,51,127,49
4,56,127,0
4,60,127,0
4,51,115,73
4,56,122,0
4,60,120,0
4,51,120,25
4,58,112,0
4,60,119,0
4,61,121,0
4,60,115,25
4,63,126,0
4,53,125,12
4,56,127,0
4,61,127,0
4,53,126,24
4,56,127,0
4,61,127,0
4,53,127,49
4,56,127,0
4,61,127,0
4,53,101,49
4,56,110,0
4,61,105,0
4,53,109,1
4,56,122,0
4,61,116,0
4,53,127,25
4,56,127,0
4,61,127,0
4,53,100,25
4,56,117,0
4,61,107,0
4,53,109,1
4,56,122,0
4,61,114,0
4,53,113,1
4,58,127,0
4,61,119,0
4,53,117,49
4,58,127,0
4,61,122,0
4,53,127,49
4,58,127,0
4,61,124,0
4,53,99,49
4,58,114,0
4,61,109,0
4,53,109,1
4,58,126,0
4,61,121,0
4,53,126,25
4,58,127,0
4,61,127,0
4,53,116,25
4,58,126,0
4,61,119,0
4,54,127,9
4,56,127,0
4,58,127,0
4,61,127,0
4,54,120,49
4,56,127,0
4,58,127,0
4,61,127,0
4,54,127,49
4,56,127,0
4,58,127,0
4,61,127,0
4,54,114,49
4,56,122,0
4,58,122,0
4,61,121,0
4,54,116,1
4,56,127,0
4,58,127,0
4,61,127,0
4,54,125,25
4,56,127,0
4,58,127,0
4,61,127,0
4,54,122,25
4,56,127,0
4,58,127,0
4,61,127,0
4,51,127,6
4,56,127,0
4,60,127,0
4,53,120,0
4,58,127,0
4,62,127,0
4,65,127,0
4,53,126,49
4,58,127,0
4,62,125,0
4,65,126,0
4,53,123,49
4,58,123,0
4,62,116,0
4,65,112,0
4,53,112,73
4,58,111,0
4,62,104,0
4,65,100,0
4,53,122,25
4,58,123,0
4,62,117,0
4,65,113,0
4,53,111,25
4,58,127,0
4,65,110,0
4,57,127,3
4,60,127,0
4,65,127,0
4,57,127,49
4,60,127,0
4,65,127,0
4,57,127,49
4,60,127,0
4,65,127,0
4,57,117,73
4,60,122,0
4,65,117,0
4,57,126,25
4,60,127,0
4,65,125,0
4,57,118,25
4,60,123,0
4,65,113,0
4,55,127,9
4,58,127,0
4,65,127,0
4,55,127,49
4,58,127,0
4,65,127,0
4,55,127,49
4,58,127,0
4,65,127,0
4,55,123,73
4,58,126,0
4,65,126,0
4,55,124,25
4,58,126,0
4,65,123,0
4,55,122,25
4,58,126,0
