track,note,velocity,time
3,74,90,1828
3,74,93,86
3,72,91,74
3,74,88,4
3,74,91,54
3,72,70,2
3,74,89,19
3,74,94,71
3,72,91,71
3,74,77,13
3,74,89,22
3,74,91,34
3,72,93,20
3,74,91,20
3,74,94,81
3,72,94,74
3,74,90,2
3,74,92,62
3,72,71,2
3,74,91,2
3,62,102,187
3,62,101,72
3,65,100,2
3,69,107,14
3,67,107,9
3,65,107,2
3,62,99,14
3,60,101,878
3,62,95,2
3,60,101,55
3,62,94,2
3,67,89,720
3,65,80,2
3,62,80,2
3,62,99,522
3,62,99,71
3,62,93,70
3,62,93,69
3,62,93,68
3,64,75,21
3,62,78,18
3,62,73,718
3,65,89,6
3,65,72,59
3,65,83,65
3,65,81,62
3,64,70,2
3,62,88,2
3,62,78,66
3,60,78,2
3,57,56,8
3,62,79,413
3,62,77,74
3,62,76,68
3,62,84,21
3,62,79,60
3,62,71,62
3,64,80,2
3,64,69,61
3,62,80,34
3,64,80,2
3,65,69,13
3,62,80,554
3,65,80,2
3,65,81,64
3,65,80,66
3,67,79,13
3,62,69,32
3,62,65,70
3,60,80,2
3,57,64,7
3,74,90,560
3,74,93,86
3,72,91,74
3,74,88,4
3,74,91,54
3,72,70,2
3,74,89,19
3,74,94,71
3,72,91,71
3,74,77,13
3,74,89,22
3,74,91,34
3,72,93,20
3,74,91,20
3,74,94,81
3,72,94,74
3,74,90,2
3,74,92,62
3,72,71,2
3,74,91,2
3,62,102,187
3,62,101,72
3,65,100,2
3,69,107,14
3,67,107,9
3,65,107,2
3,62,99,14
3,60,101,110
3,62,95,2
3,60,101,55
3,62,94,2
3,67,97,144
3,65,91,25
3,62,102,13
3,62,83,0
3,62,101,72
3,65,100,2
3,69,107,14
3,67,107,9
3,65,107,2
3,62,99,14
3,60,101,110
3,62,95,2
3,60,101,55
3,62,94,2
3,67,102,144
3,65,97,12
3,65,99,66
3,62,86,2
3,60,97,153
3,62,95,2
3,62,97,51
3,64,96,8
3,64,97,56
3,65,98,11
3,60,99,6
3,60,99,78
3,58,97,2
3,58,97,67
3,62,97,13
3,61,97,22
3,62,100,14
3,62,64,761
3,62,91,96
3,62,88,2
3,62,91,65
3,64,70,2
3,64,91,55
3,62,82,10
3,62,86,686
3,65,85,2
3,65,88,54
3,65,90,61
3,65,89,62
3,64,86,2
3,62,89,2
3,62,90,65
3,60,91,2
3,57,68,4
3,60,86,493
3,62,88,2
3,62,77,56
3,64,88,2
3,64,90,71
3,65,86,30
3,64,77,25
3,62,87,37
3,62,89,114
3,65,90,2
3,65,91,52
3,65,90,66
3,65,88,59
3,67,86,10
3,69,88,4
3,67,89,2
3,65,89,2
3,62,70,7
3,74,90,526
3,74,93,86
3,72,91,74
3,74,88,4
3,74,91,54
3,72,70,2
3,74,89,19
3,74,94,71
3,72,91,71
3,74,77,13
3,74,89,22
3,74,91,34
3,72,93,20
3,74,91,20
3,74,94,81
3,74,84,74
3,77,84,2
3,79,94,16
3,81,91,18
3,79,88,2
3,77,94,10
3,74,89,12
3,62,102,76
3,62,101,72
3,65,100,2
3,69,107,14
3,67,107,9
3,65,107,2
3,62,99,14
3,60,101,110
3,62,95,2
3,60,101,55
3,62,94,2
3,67,97,144
3,65,91,25
3,62,102,13
3,62,83,0
3,62,101,72
3,65,100,2
3,69,107,14
3,67,107,9
3,65,107,2
3,62,99,14
3,60,101,110
3,62,95,2
3,60,101,55
3,62,94,2
3,67,102,144
3,65,97,12
3,65,99,66
3,62,86,2
3,60,97,153
3,62,95,2
3,62,97,51
3,64,96,8
3,64,97,56
3,65,98,11
3,60,99,6
3,60,99,78
3,58,97,2
3,58,97,67
3,62,97,13
3,61,97,22
3,62,100,14
3,72,81,377
3,74,78,4
3,74,81,54
3,72,60,2
3,72,81,1171
3,74,67,13
3,74,79,22
3,74,81,34
3,72,83,20
3,74,90,788
3,74,93,86
3,72,91,74
3,74,88,4
3,74,91,54
3,72,70,2
3,74,89,19
3,74,94,71
3,72,91,71
3,74,77,13
3,74,89,22
3,74,91,34
3,72,93,20
3,74,91,20
3,74,94,81
3,72,94,74
3,74,90,2
3,74,92,62
3,72,71,2
3,74,91,2
3,65,82,379
3,64,82,2
3,64,90,46
3,62,68,2
3,62,66,84
3,69,86,22
3,67,73,2
3,65,80,31
3,64,75,14
3,62,89,9
3,64,80,7
3,65,69,20
3,62,71,36
3,62,84,664
3,62,85,72
3,64,82,12
3,65,60,2
3,64,81,2
3,62,63,10
3,64,83,10
3,69,84,19
3,62,94,1728
3,65,94,2
3,65,94,49
3,65,94,59
3,64,96,2
3,64,96,384
3,65,88,7
3,62,94,10
3,67,84,96
3,65,79,11
3,62,93,56
3,65,94,2
3,65,95,61
3,65,92,63
3,64,94,11
3,64,98,81
3,64,94,160
3,65,94,2
3,69,79,16
3,67,78,2
3,65,79,9
3,62,69,10
3,62,86,22
3,65,92,2
3,65,90,51
3,65,92,65
3,64,85,3
3,64,92,73
3,65,88,24
3,60,85,4
3,62,90,42
3,58,93,9
3,58,92,71
3,62,91,15
3,61,83,21
3,62,94,74
3,65,94,2
3,65,94,49
3,65,94,59
3,64,96,2
3,64,96,384
3,65,88,7
3,62,94,10
3,62,93,268
3,65,94,2
3,65,95,61
3,65,92,63
3,64,94,11
3,64,98,81
3,64,94,160
3,65,94,2
3,62,86,496
3,65,92,2
3,65,90,51
3,65,92,65
3,64,85,3
3,64,92,73
3,65,88,24
3,60,85,4
3,62,90,42
3,58,93,9
3,58,92,71
3,62,91,15
3,61,83,21
3,62,91,2
3,69,95,693
3,67,91,672
3,65,72,188
3,60,97,1978
3,62,95,2
3,62,97,51
3,64,96,8
3,64,97,56
3,65,98,11
3,60,99,6
3,60,99,78
3,58,97,2
3,58,97,67
3,62,97,13
3,61,97,22
3,62,100,14
4,58,45,4512
4,62,45,0
4,74,60,0
4,55,45,1
4,58,45,0
4,60,45,1
4,57,45,1
4,62,45,0
4,58,45,1
4,62,45,0
4,74,60,0
4,55,45,1
4,58,45,0
4,60,45,1
4,57,45,1
4,62,45,0
4,62,30,718
4,65,30,0
4,62,30,1
4,67,30,0
4,62,35,1
4,69,35,0
4,62,30,1
4,65,30,0
4,62,30,1
4,67,30,0
4,62,35,1
4,69,35,0
4,62,30,1
4,65,30,0
4,62,30,1
4,67,30,0
4,62,35,1
4,69,35,0
4,62,30,1
4,65,30,0
4,62,30,1
4,67,30,0
4,62,35,1
4,69,35,0
4,57,30,1
4,62,30,0
4,86,45,0
4,55,30,1
4,60,30,0
4,53,30,1
4,58,30,0
4,55,30,1
4,60,30,0
4,57,30,1
4,62,30,0
4,58,45,705
4,62,45,0
4,55,45,1
4,58,45,0
4,60,45,1
4,57,45,1
4,62,45,0
4,58,45,1
4,62,45,0
4,55,45,1
4,58,45,0
4,60,45,1
4,57,45,1
4,62,45,0
4,58,45,1
4,62,45,0
4,55,45,1
4,60,45,0
4,57,45,1
4,60,45,0
4,58,45,1
4,62,45,0
4,57,45,1
4,61,45,0
4,57,45,1
4,62,45,0
4,62,30,778
4,65,30,0
4,62,30,1
4,67,30,0
4,62,35,1
4,69,35,0
4,62,30,1
4,65,30,0
4,62,30,1
4,67,30,0
4,62,35,1
4,69,35,0
4,62,30,1
4,65,30,0
4,62,30,1
4,67,30,0
4,62,35,1
4,69,35,0
4,62,30,1
4,65,30,0
4,62,30,1
4,67,30,0
4,62,40,1
4,65,40,0
4,69,40,0
4,57,30,1
4,62,30,0
4,86,45,0
4,55,30,1
4,60,30,0
4,53,30,1
4,58,30,0
4,55,30,1
4,60,30,0
4,57,30,1
4,62,30,0
4,58,45,705
4,62,45,0
4,55,45,1
4,58,45,0
4,60,45,1
4,57,45,1
4,62,45,0
4,58,45,1
4,62,45,0
4,55,45,1
4,58,45,0
4,60,45,1
4,57,45,1
4,62,45,0
4,58,45,1
4,62,45,0
4,55,45,1
4,60,45,0
4,57,45,1
4,60,45,0
4,58,45,1
4,62,45,0
4,57,45,1
4,61,45,0
4,57,45,1
4,62,45,0
4,57,51,5770
4,62,51,0
4,65,51,0
4,55,51,1
4,60,51,0
4,64,51,0
4,58,51,1
4,62,51,0
4,65,51,0
4,57,51,1
4,60,51,0
4,64,51,0
4,55,51,1
4,58,51,0
4,62,51,0
4,60,51,1
4,64,51,0
4,57,51,1
4,62,51,0
4,65,51,0
4,57,51,1
4,62,51,0
4,64,51,0
4,61,51,1
4,58,45,1537
4,62,45,0
4,55,45,1
4,58,45,0
4,60,45,1
4,57,45,1
4,62,45,0
4,58,45,1
4,62,45,0
4,55,45,1
4,58,45,0
4,60,45,1
4,57,45,1
4,62,45,0
4,58,45,1
4,62,45,0
4,55,45,1
4,60,45,0
4,57,45,1
4,60,45,0
4,58,45,1
4,62,45,0
4,57,45,1
4,61,45,0
4,58,45,1
4,62,45,0
4,55,45,1
4,58,45,0
4,60,45,1
4,57,45,1
4,62,45,0
4,58,45,1
4,62,45,0
4,55,45,1
4,58,45,0
4,60,45,1
4,57,45,1
4,62,45,0
4,58,45,1
4,62,45,0
4,55,45,1
4,60,45,0
4,57,45,1
4,60,45,0
4,58,45,1
4,62,45,0
4,57,45,1
4,61,45,0
4,57,45,1
4,62,45,0
4,55,45,1
4,60,45,0
4,58,45,1
4,62,45,0
4,55,45,1
4,58,45,0
4,60,45,1
4,57,45,1
4,62,45,0
4,58,45,1
4,62,45,0
4,55,45,1
4,58,45,0
4,60,45,1
4,57,45,1
4,62,45,0
4,58,45,1
4,62,45,0
4,55,45,1
4,60,45,0
4,57,45,1
4,60,45,0
4,58,45,1
4,62,45,0
4,58,17,0
4,62,17,0
4,57,17,1
4,61,17,0
4,57,17,1
4,62,17,0
5,34,90,4464
5,34,90,103
5,33,90,6
5,31,90,8
5,33,90,85
5,38,90,2
5,38,90,18
5,38,90,108
5,34,90,380
5,34,90,98
5,33,90,2
5,31,90,2
5,33,90,85
5,26,90,2
5,26,90,25
5,26,90,101
5,34,100,384
5,31,100,210
5,33,100,2
5,26,100,2
5,26,100,21
5,26,100,98
5,34,100,384
5,31,100,198
5,33,100,11
5,26,100,2
5,26,100,25
5,26,100,92
5,34,100,383
5,31,100,210
5,33,100,2
5,26,100,2
5,26,100,21
5,26,100,98
5,31,100,384
5,24,100,198
5,21,100,11
5,26,100,2
5,26,100,25
5,26,100,92
5,34,90,3455
5,34,90,103
5,33,90,6
5,31,90,8
5,33,90,85
5,38,90,2
5,38,90,18
5,38,90,108
5,33,90,188
5,34,90,2
5,34,90,98
5,33,90,2
5,31,90,2
5,33,90,85
5,26,90,2
5,26,90,25
5,26,90,101
5,36,90,192
5,34,90,2
5,36,90,38
5,29,90,47
5,29,90,23
5,34,90,48
5,34,90,111
5,34,90,76
5,33,90,2
5,31,90,2
5,33,90,87
5,26,90,15
5,34,90,758
5,34,90,96
5,33,90,2
5,31,90,2
5,33,90,2
5,26,90,27
5,26,90,19
5,26,90,103
5,34,90,380
5,34,90,95
5,33,90,2
5,31,90,9
5,33,90,14
5,26,90,14
5,26,90,28
5,26,90,100
5,34,90,383
5,34,90,96
5,33,90,2
5,31,90,2
5,33,90,2
5,26,90,27
5,26,90,19
5,26,90,103
5,29,90,284
5,31,90,2
5,33,90,6
5,26,90,26
5,26,90,20
5,26,90,95
5,34,90,3458
5,34,90,103
5,33,90,6
5,31,90,8
5,33,90,85
5,38,90,2
5,38,90,18
5,38,90,108
5,33,90,188
5,34,90,2
5,34,90,98
5,33,90,2
5,31,90,2
5,33,90,85
5,26,90,2
5,26,90,25
5,26,90,101
5,36,90,192
5,34,90,2
5,36,90,38
5,29,90,47
5,29,90,23
5,34,90,48
5,34,90,111
5,34,90,76
5,33,90,2
5,31,90,2
5,33,90,87
5,26,90,15
5,31,105,4886
5,32,105,2
5,31,105,2
5,29,105,2
5,26,105,4
5,26,105,2
5,24,105,2
5,26,105,15
5,46,44,647
5,45,44,2
5,43,44,2
5,48,44,2
5,38,44,2
5,33,44,5
5,33,44,40
5,34,90,906
5,34,90,37
5,36,90,198
5,36,90,34
5,34,90,110
5,34,90,103
5,33,90,6
5,31,90,8
5,33,90,85
5,38,90,2
5,38,90,18
5,38,90,108
5,33,90,188
5,34,90,2
5,34,90,98
5,33,90,2
5,31,90,2
5,33,90,85
5,26,90,2
5,26,90,25
5,26,90,101
5,36,90,192
5,34,90,2
5,36,90,38
5,29,90,47
5,29,90,23
5,34,90,48
5,34,90,111
5,34,90,76
5,33,90,2
5,31,90,2
5,33,90,87
5,34,90,2
5,34,90,103
5,33,90,6
5,31,90,8
5,33,90,85
5,38,90,2
5,38,90,18
5,38,90,108
5,33,90,188
5,34,90,2
5,34,90,98
5,33,90,2
5,31,90,2
5,33,90,85
5,26,90,2
5,26,90,25
5,26,90,101
5,36,90,192
5,34,90,2
5,36,90,38
5,29,90,47
5,29,90,23
5,34,90,48
5,34,90,111
5,34,90,76
5,33,90,2
5,31,90,2
5,33,90,87
5,38,90,2
5,38,90,26
5,38,90,100
5,36,90,190
5,34,90,26
5,34,90,103
5,33,90,6
5,31,90,8
5,33,90,85
5,38,90,2
5,38,90,18
5,38,90,108
5,33,90,188
5,34,90,2
5,34,90,98
5,33,90,2
5,31,90,2
5,33,90,85
5,26,90,2
5,26,90,25
5,26,90,101
5,36,90,192
6,62,82,3940
6,65,77,0
6,62,82,69
6,65,77,0
6,65,82,7
6,69,77,0
6,69,82,25
6,72,77,0
6,67,82,24
6,70,77,0
6,65,82,2
6,69,77,0
6,62,82,17
6,65,77,0
6,74,52,2802
6,74,52,71
6,74,52,70
6,74,52,69
6,74,52,68
6,76,52,21
6,74,52,18
6,74,52,718
6,77,52,6
6,77,52,59
6,77,52,65
6,77,52,62
6,76,52,2
6,74,52,2
6,74,52,66
6,72,52,2
6,69,52,8
6,74,52,413
6,74,52,74
6,74,52,68
6,74,52,21
6,74,52,60
6,74,52,62
6,76,52,2
6,76,52,61
6,74,52,34
6,76,52,2
6,77,52,13
6,74,52,554
6,77,52,2
6,77,52,64
6,77,52,66
6,79,52,13
6,74,52,32
6,74,52,70
6,72,52,2
6,69,52,7
6,74,62,560
6,77,62,0
6,74,62,97
6,77,62,0
6,74,62,472
6,77,62,0
6,74,62,106
6,77,62,0
6,74,62,472
6,77,62,0
6,74,62,92
6,77,62,0
6,62,82,770
6,65,77,0
6,62,82,69
6,65,77,0
6,65,82,7
6,69,77,0
6,69,82,25
6,72,77,0
6,67,82,24
6,70,77,0
6,65,82,2
6,69,77,0
6,62,82,17
6,65,77,0
6,70,66,594
6,69,66,2
6,62,82,2
6,65,77,0
6,62,82,69
6,65,77,0
6,65,82,7
6,69,77,0
6,69,82,25
6,72,77,0
6,67,82,24
6,70,77,0
6,65,82,2
6,69,77,0
6,62,82,17
6,65,77,0
6,70,66,594
6,69,66,13
6,67,66,69
6,65,66,11
6,57,79,161
6,64,79,0
6,58,79,2
6,65,79,0
6,58,79,51
6,65,79,0
6,60,79,8
6,67,79,0
6,60,79,56
6,67,79,0
6,60,79,11
6,69,79,0
6,65,79,6
6,69,79,0
6,64,79,78
6,67,79,0
6,62,79,2
6,65,79,0
6,62,79,67
6,65,79,0
6,58,79,13
6,65,79,0
6,57,79,22
6,64,79,0
6,57,79,14
6,65,79,0
6,65,62,761
6,65,62,30
6,65,62,65
6,67,62,2
6,67,62,55
6,65,62,10
6,65,62,2318
6,65,62,56
6,67,62,2
6,67,62,71
6,69,62,30
6,67,62,25
6,65,62,37
6,74,62,1746
6,77,62,0
6,74,62,97
6,77,62,0
6,74,62,472
6,77,62,0
6,74,62,106
6,77,62,0
6,74,62,472
6,77,62,0
6,74,62,92
6,77,62,0
6,62,82,770
6,65,77,0
6,62,82,69
6,65,77,0
6,65,82,7
6,69,77,0
6,69,82,25
6,72,77,0
6,67,82,24
6,70,77,0
6,65,82,2
6,69,77,0
6,62,82,17
6,65,77,0
6,70,66,594
6,69,66,2
6,62,82,2
6,65,77,0
6,62,82,69
6,65,77,0
6,65,82,7
