track,note,velocity,time
0,57,50,6
0,64,60,9
0,57,50,6
0,64,60,7
0,57,0,17
0,64,0,20
0,42,74,34
0,45,65,3
0,60,85,1
0,42,0,26
0,57,0,16
0,42,50,12
0,82,65,1
0,64,0,7
0,42,0,4
0,82,0,23
0,42,60,25
0,82,72,1
0,76,72,0
0,69,67,2
0,76,0,13
0,42,0,3
0,82,0,18
0,69,0,15
0,60,65,68
0,42,70,1
0,60,62,2
0,37,94,0
0,52,76,1
0,42,0,15
0,37,0,19
0,60,0,22
0,62,67,0
0,76,70,1
0,70,55,2
0,62,71,3
0,54,39,0
0,52,0,1
0,60,0,2
0,76,0,9
0,70,0,14
0,42,67,29
0,70,77,3
0,42,0,14
0,54,0,10
0,62,0,0
0,70,0,10
0,62,0,4
0,54,29,6
0,62,58,1
0,64,60,9
0,64,73,10
0,55,54,2
0,62,0,18
0,54,0,14
0,42,70,19
0,60,70,0
0,60,0,22
0,42,0,1
0,64,0,23
0,64,0,7
0,55,0,4
0,62,74,0
0,42,56,3
0,62,71,2
0,54,44,0
0,82,60,0
0,42,0,15
0,82,0,10
0,42,65,33
0,82,83,2
0,42,0,19
0,82,0,9
0,62,0,17
0,60,70,10
0,76,70,2
0,60,73,3
0,52,71,3
0,60,0,6
0,54,0,10
0,76,0,0
0,62,0,0
0,42,72,38
0,54,74,2
0,37,65,1
0,42,0,16
0,37,0,5
0,54,0,14
0,60,0,10
0,59,62,10
0,59,73,3
0,70,70,2
0,60,0,19
0,70,0,6
0,70,40,6
0,42,70,26
0,76,72,2
0,70,0,1
0,70,77,0
0,42,0,17
0,76,0,1
0,70,0,11
0,45,0,10
0,50,71,19
0,82,34,1
0,52,0,9
0,82,0,20
0,59,0,5
0,59,0,11
0,50,0,6
0,59,70,5
0,42,74,4
0,59,78,1
0,43,35,0
0,42,0,29
0,46,40,28
0,82,65,1
0,46,0,11
0,82,0,23
0,42,60,25
0,50,65,1
0,82,72,0
0,76,72,0
0,69,67,2
0,76,0,13
0,42,0,3
0,69,0,17
0,82,0,1
0,55,76,26
0,42,70,58
0,37,94,2
0,42,0,16
0,59,0,18
0,37,0,1
0,59,67,23
0,76,70,0
0,70,55,2
0,76,0,15
0,70,0,14
0,42,67,29
0,70,77,3
0,42,0,14
0,55,0,3
0,70,0,17
0,43,0,9
0,57,76,14
0,42,67,0
0,57,60,1
0,59,0,6
0,59,0,12
0,50,0,14
0,42,70,27
0,60,70,0
0,60,0,22
0,42,0,1
0,42,56,37
0,50,78,2
0,82,60,0
0,42,0,15
0,82,0,10
0,42,65,33
0,82,83,2
0,42,0,19
0,82,0,9
0,76,70,29
0,62,77,1
0,76,0,21
0,42,72,38
0,54,74,2
0,37,65,1
0,42,0,16
0,37,0,5
0,57,0,10
0,54,0,4
0,50,0,16
0,57,73,7
0,70,70,2
0,70,0,25
0,42,70,32
0,76,72,2
0,50,67,1
0,70,77,0
0,42,0,17
0,76,0,1
0,70,0,11
0,42,40,1
0,42,0,29
0,42,49,1
0,42,58,30
0,42,0,5
0,42,0,6
0,42,0,13
0,60,87,4
0,45,74,1
0,42,74,0
0,50,0,12
0,62,0,8
0,57,0,0
0,42,0,10
0,57,0,28
0,46,40,0
0,82,65,1
0,46,0,11
0,82,0,23
0,42,60,25
0,82,72,1
0,76,72,0
0,69,67,3
0,76,0,12
0,42,0,3
0,69,0,17
0,82,0,1
0,60,67,81
0,42,70,3
0,52,72,2
0,60,70,0
0,37,94,0
0,42,0,16
0,37,0,19
0,62,72,20
0,76,70,3
0,70,55,2
0,60,0,1
0,62,67,4
0,54,41,9
0,76,0,1
0,60,0,2
0,52,0,8
0,70,0,4
0,42,67,29
0,70,77,3
0,42,0,14
0,70,0,20
0,62,0,8
0,54,0,8
0,64,70,3
0,62,0,4
0,62,65,4
0,54,33,3
0,64,74,16
0,55,45,1
0,62,0,3
0,54,0,7
0,42,70,26
0,60,70,0
0,60,0,22
0,42,0,1
0,62,73,36
0,54,54,0
0,62,72,0
0,42,56,1
0,64,0,2
0,82,60,0
0,42,0,15
0,82,0,10
0,55,0,0
0,64,0,9
0,42,65,24
0,82,83,2
0,42,0,19
0,82,0,9
0,62,0,20
0,54,0,0
0,62,0,1
0,52,59,7
0,60,63,0
0,60,70,1
0,76,70,0
0,76,0,22
0,42,72,38
0,54,74,2
0,37,65,1
0,60,0,8
0,42,0,8
0,37,0,5
0,54,0,14
0,60,0,13
0,62,83,4
0,62,70,3
0,60,0,1
0,46,40,2
0,70,70,2
0,46,0,10
0,70,0,15
0,42,70,32
0,76,72,2
0,70,77,1
0,42,0,17
0,76,0,1
0,70,0,11
0,55,65,27
0,46,30,1
0,46,0,12
0,45,0,10
0,52,0,8
0,62,0,4
0,62,72,24
0,50,74,2
0,42,74,0
0,55,0,25
0,42,0,5
0,42,50,28
0,55,52,1
0,82,65,0
0,42,0,11
0,82,0,23
0,42,60,25
0,57,70,1
0,69,65,0
0,82,72,0
0,76,72,0
0,55,0,7
0,76,0,8
0,42,0,3
0,82,0,18
0,69,0,5
0,62,0,11
0,62,94,12
0,42,70,56
0,37,94,2
0,42,0,16
0,37,0,19
0,76,70,23
0,66,83,2
0,70,55,0
0,76,0,15
0,70,0,14
0,42,67,29
0,70,77,3
0,42,0,14
0,70,0,20
0,67,89,24
0,66,0,11
0,42,70,48
0,60,70,0
0,60,0,22
0,42,0,1
0,66,60,28
0,67,0,7
0,42,56,2
0,82,60,2
0,67,62,13
0,42,0,2
0,62,0,6
0,66,0,2
0,82,0,2
0,66,60,7
0,67,0,20
0,42,65,6
0,82,83,2
0,64,70,13
0,42,0,6
0,66,0,8
0,82,0,1
0,57,0,29
0,76,70,0
0,62,74,5
0,76,0,17
0,42,72,38
0,57,79,1
0,54,74,1
0,37,65,1
0,42,0,16
0,37,0,5
0,50,0,10
0,54,0,4
0,50,60,23
0,70,70,2
0,70,0,25
0,42,70,32
0,76,72,2
0,45,65,1
0,70,77,0
0,42,0,17
0,76,0,1
0,70,0,11
0,38,67,29
0,64,0,31
0,62,0,18
0,45,0,12
0,42,74,0
0,60,87,1
0,38,0,4
0,62,0,3
0,45,72,3
0,42,0,19
0,57,0,20
0,42,50,8
0,82,65,1
0,42,0,11
0,50,0,20
0,82,0,3
0,42,60,25
0,82,72,1
0,76,72,0
0,69,67,2
0,76,0,13
0,42,0,3
0,82,0,18
0,69,0,15
0,60,72,66
0,42,70,3
0,37,94,2
0,60,72,7
0,52,74,1
0,42,0,8
0,37,0,19
0,62,72,22
0,76,70,1
0,70,55,2
0,60,0,2
0,62,67,2
0,54,52,3
0,60,0,2
0,76,0,6
0,52,0,10
0,70,0,4
0,42,67,29
0,70,77,3
0,42,0,14
0,54,0,20
0,70,0,0
0,62,0,7
0,62,0,2
0,64,72,11
0,54,50,5
0,62,74,3
0,64,72,21
0,55,72,3
0,62,0,12
0,54,0,14
0,42,70,5
0,60,70,0
0,60,0,22
0,42,0,1
0,62,74,36
0,42,56,1
0,82,60,2
0,64,0,2
0,54,60,0
0,62,79,7
0,55,0,5
0,64,0,1
0,42,0,0
0,82,0,10
0,42,65,33
0,82,83,2
0,42,0,19
0,82,0,9
0,62,0,21
0,60,72,8
0,76,70,0
0,54,0,1
0,52,72,3
0,62,0,6
0,60,60,2
0,76,0,10
0,42,72,9
0,54,74,2
0,37,65,1
0,42,0,5
0,37,0,1
0,54,0,9
0,60,0,6
0,59,72,2
0,70,70,3
0,59,70,1
0,60,0,10
0,70,0,4
0,70,40,6
0,42,70,26
0,76,72,2
0,70,0,1
0,70,77,0
0,60,0,5
0,45,0,4
0,52,0,0
0,42,0,8
0,76,0,1
0,70,0,11
0,50,65,26
0,82,34,4
0,82,0,29
0,59,0,4
0,59,0,7
0,55,52,5
0,55,79,5
0,59,74,6
0,59,65,4
0,42,74,0
0,43,79,6
0,42,0,24
0,50,0,4
0,46,40,24
0,82,65,1
0,50,70,6
0,46,0,5
0,82,0,23
0,42,60,25
0,82,72,1
0,76,72,0
0,55,62,1
0,69,67,1
0,76,0,13
0,42,0,3
0,59,0,13
0,69,0,4
0,82,0,1
0,59,68,24
0,42,70,60
0,37,94,2
0,42,0,16
0,55,0,11
0,37,0,8
0,76,70,23
0,70,55,2
0,55,65,1
0,76,0,14
0,70,0,14
0,42,67,4
0,70,77,3
0,42,0,14
0,43,0,5
0,50,0,1
0,70,0,4
0,50,70,7
0,42,74,1
0,57,70,1
0,57,70,0
0,59,0,5
0,59,0,2
0,55,0,3
0,54,65,36
0,54,70,2
0,42,70,11
0,60,70,0
0,55,0,4
0,55,0,1
0,60,0,14
0,42,0,1
0,50,0,18
0,42,56,19
0,82,60,2
0,50,74,4
0,42,0,11
0,82,0,10
0,42,65,33
0,82,83,2
0,42,0,19
0,82,0,9
0,76,70,29
0,62,83,2
0,76,0,20
0,57,0,7
0,42,72,31
0,54,74,2
0,37,65,1
0,42,0,16
0,37,0,5
0,54,0,14
0,50,0,23
0,57,62,0
0,70,70,2
0,70,0,25
0,55,70,28
0,57,0,3
0,50,65,1
0,42,70,0
0,76,72,2
0,70,77,1
0,42,0,17
0,76,0,1
0,70,0,11
0,42,40,1
0,55,0,11
0,55,70,13
0,42,0,5
0,42,49,1
0,62,0,13
0,42,58,17
0,55,65,1
0,42,0,4
0,55,74,3
0,54,0,10
0,42,0,1
0,57,0,0
0,54,0,3
0,42,0,2
0,42,74,5
0,55,74,3
0,40,67,5
0,42,0,22
0,50,0,0
0,46,40,28
0,82,65,1
0,46,0,11
0,82,0,23
0,42,60,21
0,82,72,1
0,76,72,0
0,52,74,2
0,69,67,1
0,76,0,11
0,42,0,3
0,69,0,17
0,82,0,1
0,55,0,3
0,55,74,8
0,42,70,6
0,37,94,2
0,42,0,8
0,37,0,7
0,59,72,11
0,76,70,2
0,70,55,2
0,76,0,10
0,70,0,10
0,57,62,19
0,42,67,3
0,70,77,3
0,55,0,3
0,52,0,6
0,42,0,1
0,70,0,1
0,55,0,1
0,42,62,1
0,50,65,2
0,57,72,1
0,40,0,1
0,59,0,3
0,57,72,1
0,57,0,2
0,57,74,2
0,42,70,2
0,60,70,0
0,55,0,2
0,57,79,1
0,55,0,1
0,60,0,1
0,42,0,1
0,42,56,33
0,82,60,2
0,42,0,15
0,82,0,10
0,50,0,4
0,50,72,29
0,42,65,0
0,82,83,2
0,42,0,19
0,82,0,9
0,62,79,28
0,76,70,1
0,76,0,22
0,62,74,2
0,42,72,4
0,54,74,2
0,37,65,1
0,42,0,3
0,57,0,3
0,37,0,1
0,54,0,2
0,57,52,3
0,46,40,0
0,70,70,2
0,46,0,3
0,70,0,2
0,55,60,1
0,42,70,1
0,50,0,1
0,76,72,0
0,50,67,1
0,70,77,0
0,57,0,1
0,42,0,1
0,76,0,1
0,70,0,1
0,46,30,3
0,62,0,2
0,46,0,2
0,55,0,1
0,62,72,3
0,55,74,1
0,52,70,0
0,48,60,1
0,62,79,0
0,42,0,3
0,55,70,1
0,57,0,2
0,57,0,1
0,51,74,0
0,55,70,2
0,62,70,2
0,51,0,5
0,57,0,0
0,50,0,0
0,40,50,2
0,54,74,0
0,37,65,1
0,37,0,3
0,40,0,5
0,54,0,2
0,36,62,1
0,70,76,2
0,70,0,4
0,36,0,1
0,42,44,1
0,40,55,0
0,40,0,2
0,36,74,0
0,76,72,2
0,70,88,1
0,42,0,2
0,76,0,2
0,62,0,2
0,36,0,1
0,42,53,4
0,70,0,1
0,52,0,2
0,55,0,1
0,62,0,1
0,62,0,1
0,48,0,0
0,55,0,4
0,42,0,1
0,70,91,0
0,40,60,2
0,42,61,1
0,40,0,1
0,70,0,1
0,55,0,1
0,57,65,1
0,42,0,2
0,45,74,3
0,42,74,0
0,36,94,0
0,33,77,1
0,60,74,1
0,64,79,3
0,36,0,1
0,42,0,1
0,46,45,4
0,82,65,1
0,46,0,3
0,82,0,6
0,42,60,3
0,82,72,1
0,76,72,0
0,69,67,1
0,76,0,2
0,42,0,2
0,33,0,5
0,82,0,2
0,57,0,2
0,69,0,2
0,64,0,5
0,60,0,0
0,45,0,2
0,33,70,0
0,57,70,1
0,57,72,1
0,60,70,2
0,64,70,3
0,57,0,6
0,60,0,2
0,33,0,4
0,64,0,0
0,60,70,7
0,42,70,4
0,40,60,0
0,37,94,2
0,57,0,3
0,42,0,9
0,40,0,10
0,37,0,9
0,62,72,20
0,28,77,2
0,60,0,1
0,76,70,0
0,70,55,2
0,57,67,4
0,76,0,11
0,70,0,1
0,31,70,8
0,42,67,0
0,55,72,1
0,36,74,0
0,70,77,1
0,28,0,5
0,57,0,1
0,42,0,7
0,36,0,1
0,31,0,4
0,70,0,1
0,55,0,4
0,62,0,4
0,57,74,1
0,60,72,0
0,64,74,0
0,64,79,1
0,33,72,2
0,42,70,4
0,60,70,0
0,36,79,1
0,60,0,2
0,42,0,1
0,36,0,1
0,57,0,6
0,60,0,5
0,64,0,4
0,64,0,1
0,62,74,1
0,31,74,1
0,42,56,0
0,33,0,1
0,57,72,0
0,82,60,1
0,60,60,2
0,64,77,2
0,42,0,2
0,57,0,1
0,60,0,0
0,64,0,2
0,82,0,1
0,31,0,2
0,42,65,3
0,33,83,2
0,82,83,0
0,42,0,1
0,82,0,4
0,62,0,1
0,60,77,2
0,57,62,1
0,76,70,0
0,60,67,2
0,64,74,1
0,76,0,1
0,60,0,2
0,57,0,1
0,64,0,2
0,42,72,1
0,40,60,1
0,54,74,1
0,37,65,1
0,42,0,1
0,37,0,1
0,40,0,2
0,54,0,1
0,33,0,4
0,59,74,3
0,60,0,4
0,70,70,2
0,57,60,1
0,70,0,4
0,55,65,16
0,42,70,3
0,31,89,1
0,76,72,1
0,70,77,1
0,57,0,1
0,42,0,16
0,76,0,1
0,70,0,11
0,42,40,1
0,35,70,28
0,42,0,1
0,31,0,0
0,55,0,1
0,42,49,0
0,57,70,1
0,59,0,24
0,42,58,5
0,42,0,5
0,35,0,5
0,43,62,7
0,57,0,2
0,62,0,2
0,62,74,1
0,47,65,1
0,59,83,0
0,42,0,1
0,36,94,4
0,42,74,1
0,31,77,1
0,50,65,1
0,67,74,1
0,55,62,10
0,42,0,17
0,36,0,1
0,46,40,27
0,82,65,1
0,46,0,11
0,82,0,23
0,42,60,25
0,82,72,1
0,76,72,0
0,69,67,2
0,76,0,13
0,42,0,3
0,55,0,14
0,43,0,1
0,50,0,2
0,69,0,0
0,82,0,1
0,47,0,0
0,67,0,1
0,31,0,3
0,62,0,2
0,43,70,15
0,62,72,4
0,47,67,1
0,31,79,0
0,50,62,3
0,67,77,2
0,55,67,1
0,62,0,12
0,43,0,0
0,50,0,2
0,47,0,1
0,67,0,2
0,55,0,2
0,31,0,5
0,40,60,1
0,42,70,0
0,37,94,2
0,42,0,3
0,40,0,4
0,37,0,11
0,50,70,14
0,76,70,9
0,70,55,2
0,46,52,0
0,31,59,1
0,76,0,14
0,70,0,14
0,31,0,11
0,57,77,13
0,46,0,2
0,43,74,1
0,33,63,2
0,36,77,0
0,42,67,0
0,50,0,1
0,70,77,2
0,59,0,3
0,42,0,11
0,36,0,17
0,70,0,3
0,33,0,12
0,35,72,10
0,43,0,1
0,46,58,0
0,42,60,6
0,57,74,0
0,50,72,3
0,64,89,4
0,35,0,46
0,38,70,1
0,36,94,0
0,42,70,0
0,60,70,0
0,46,0,2
0,60,0,20
0,42,0,1
0,36,0,5
0,38,0,24
0,57,0,3
0,50,0,0
0,26,64,5
0,42,56,0
0,82,60,2
0,57,70,10
0,62,77,1
0,42,0,4
0,50,67,0
0,64,0,5
0,82,0,5
0,42,65,33
0,82,83,2
0,26,0,5
0,42,0,14
0,50,0,7
0,82,0,2
0,57,0,2
0,62,0,4
0,26,74,23
0,76,70,0
0,57,70,1
0,50,70,0
0,62,79,7
0,76,0,14
0,42,72,38
0,40,60,1
0,26,0,1
0,38,62,0
0,54,74,0
0,37,65,1
0,42,0,16
0,37,0,5
0,57,0,7
0,40,0,0
