track,note,velocity,time
0,77,104,360
0,77,104,0
0,77,0,52
0,77,0,0
0,75,104,6
0,75,104,0
0,75,0,22
0,75,0,0
0,75,104,36
0,75,104,0
0,94,79,1
0,61,92,1
0,58,85,2
0,65,76,1
0,94,0,100
0,97,76,13
0,75,0,13
0,75,0,0
0,73,117,50
0,73,117,0
0,73,0,34
0,73,0,0
0,97,0,9
0,94,67,11
0,70,112,2
0,70,112,0
0,94,0,106
0,97,82,11
0,65,0,90
0,97,0,6
0,66,92,27
0,94,79,3
0,94,0,93
0,97,79,28
0,97,0,72
0,58,0,15
0,66,0,29
0,57,76,0
0,65,70,3
0,96,92,1
0,61,0,1
0,60,82,1
0,70,0,41
0,70,0,0
0,96,0,78
0,77,100,0
0,77,100,0
0,77,0,49
0,77,0,0
0,75,108,5
0,75,108,0
0,75,0,29
0,75,0,0
0,57,0,29
0,65,0,1
0,94,89,3
0,75,100,2
0,75,100,0
0,61,92,1
0,58,85,2
0,60,0,1
0,65,76,0
0,94,0,77
0,75,0,36
0,75,0,0
0,97,82,1
0,73,108,67
0,73,108,0
0,97,0,4
0,94,89,10
0,73,0,4
0,73,0,0
0,70,108,3
0,70,108,0
0,94,0,64
0,97,85,54
0,97,0,73
0,65,0,9
0,66,92,33
0,94,76,5
0,94,0,80
0,97,79,34
0,97,0,78
0,58,0,14
0,66,0,29
0,96,76,0
0,60,82,1
0,65,70,2
0,57,76,1
0,61,0,1
0,70,0,51
0,70,0,0
0,77,108,66
0,77,108,0
0,96,0,11
0,77,0,40
0,77,0,0
0,75,112,5
0,75,112,0
0,75,0,31
0,75,0,0
0,65,0,29
0,75,108,2
0,75,108,0
0,57,0,1
0,60,0,1
0,61,92,3
0,58,85,2
0,65,76,1
0,94,85,4
0,94,0,91
0,75,0,22
0,75,0,0
0,97,79,6
0,73,112,55
0,73,112,0
0,97,0,9
0,73,0,45
0,73,0,0
0,70,112,1
0,94,73,0
0,70,112,0
0,94,0,74
0,97,79,46
0,97,0,69
0,70,0,10
0,70,0,0
0,65,0,7
0,66,92,33
0,34,85,1
0,94,79,2
0,70,112,2
0,70,112,0
0,94,0,66
0,70,0,38
0,70,0,0
0,97,76,18
0,73,104,1
0,73,104,0
0,97,0,64
0,58,0,19
0,73,0,14
0,73,0,0
0,66,0,15
0,60,76,0
0,96,89,0
0,75,108,2
0,75,108,0
0,61,0,3
0,68,70,1
0,63,82,4
0,96,0,86
0,75,0,14
0,75,0,0
0,70,100,12
0,70,100,0
0,70,0,31
0,70,0,0
0,70,104,32
0,70,104,0
0,60,0,2
0,68,0,4
0,61,92,1
0,58,85,1
0,65,92,1
0,61,76,1
0,65,76,0
0,70,76,0
0,94,79,0
0,63,0,6
0,94,0,4
0,97,56,1
0,97,0,6
0,94,73,9
0,94,0,9
0,97,73,6
0,70,0,8
0,70,0,0
0,97,0,2
0,34,0,10
0,70,108,9
0,70,108,0
0,61,0,1
0,65,0,0
0,70,0,0
0,46,100,0
0,49,100,0
0,49,0,10
0,70,0,7
0,70,0,0
0,73,104,7
0,73,104,0
0,73,0,10
0,73,0,0
0,75,100,6
0,75,100,0
0,75,0,10
0,75,0,0
0,82,79,3
0,82,79,0
0,82,0,2
0,82,0,0
0,82,108,7
0,82,108,0
0,61,0,7
0,58,0,1
0,65,0,1
0,46,0,1
0,65,76,0
0,58,85,0
0,61,92,0
0,49,100,0
0,36,100,0
0,42,100,0
0,34,104,1
0,42,0,10
0,49,0,0
0,42,100,0
0,34,0,2
0,34,112,8
0,42,0,2
0,36,0,0
0,39,100,0
0,42,100,0
0,40,100,0
0,34,0,2
0,33,117,7
0,40,0,3
0,42,0,0
0,39,0,0
0,36,100,0
0,42,100,0
0,33,0,9
0,32,108,9
0,42,0,1
0,36,0,0
0,36,100,0
0,42,100,0
0,32,0,7
0,31,108,6
0,42,0,4
0,36,0,0
0,36,100,0
0,42,100,0
0,82,0,3
0,82,0,0
0,31,0,4
0,30,112,2
0,42,0,4
0,36,0,0
0,39,100,0
0,42,100,0
0,40,100,0
0,40,0,10
0,39,0,0
0,42,0,0
0,42,100,0
0,30,0,5
0,66,92,15
0,30,112,3
0,65,0,2
0,42,0,0
0,36,100,0
0,42,100,0
0,42,0,60
0,36,0,0
0,42,100,0
0,30,0,6
0,30,117,53
0,42,0,1
0,42,100,0
0,39,100,0
0,40,100,0
0,30,0,53
0,32,112,4
0,39,0,3
0,42,0,0
0,40,0,0
0,36,100,0
0,42,100,0
0,32,0,46
0,66,0,9
0,57,76,0
0,65,70,3
0,29,112,0
0,36,0,2
0,61,0,0
0,58,0,0
0,42,0,0
0,36,100,0
0,42,100,0
0,60,82,1
0,42,0,59
0,36,0,0
0,42,100,0
0,42,0,60
0,42,100,0
0,39,100,0
0,40,100,0
0,40,100,0
0,29,0,3
0,40,0,57
0,39,0,0
0,42,0,0
0,40,0,0
0,42,100,0
0,57,0,52
0,65,0,1
0,42,0,7
0,61,92,0
0,34,104,0
0,49,100,0
0,42,100,0
0,36,100,0
0,60,0,2
0,58,85,0
0,65,76,1
0,42,0,57
0,49,0,0
0,42,100,0
0,34,0,11
0,34,112,46
0,36,0,3
0,42,0,0
0,42,100,0
0,39,100,0
0,40,100,0
0,34,0,41
0,65,89,11
0,33,117,4
0,39,0,4
0,42,0,0
0,40,0,0
0,42,100,0
0,36,100,0
0,68,100,15
0,65,0,5
0,33,0,18
0,68,0,1
0,65,96,0
0,32,108,19
0,42,0,2
0,36,0,0
0,42,100,0
0,36,100,0
0,68,108,2
0,65,0,5
0,32,0,39
0,65,108,8
0,31,108,1
0,68,0,3
0,36,0,2
0,42,0,0
0,42,100,0
0,36,100,0
0,31,0,53
0,30,112,2
0,42,0,5
0,36,0,0
0,42,100,0
0,39,100,0
0,40,100,0
0,40,100,0
0,65,0,17
0,40,0,43
0,40,0,0
0,42,0,0
0,39,0,0
0,42,100,0
0,30,0,24
0,66,92,31
0,30,112,2
0,42,0,3
0,36,100,0
0,42,100,0
0,65,0,3
0,36,0,57
0,42,0,0
0,42,100,0
0,30,0,5
0,70,108,44
0,30,117,9
0,42,0,2
0,42,100,0
0,39,100,0
0,40,100,0
0,30,0,52
0,32,112,4
0,40,0,4
0,39,0,0
0,42,0,0
0,36,100,0
0,42,100,0
0,32,0,45
0,66,0,10
0,57,76,0
0,29,112,2
0,65,70,1
0,61,0,2
0,36,0,0
0,42,0,0
0,36,100,0
0,42,100,0
0,60,82,1
0,58,0,1
0,70,0,36
0,36,0,22
0,42,0,0
0,42,100,0
0,42,0,60
0,42,100,0
0,39,100,0
0,40,100,0
0,40,100,0
0,29,0,2
0,40,0,50
0,39,0,0
0,42,0,0
0,40,0,0
0,42,100,0
0,57,0,52
0,65,0,6
0,42,0,2
0,70,96,0
0,70,96,0
0,49,100,0
0,60,0,1
0,70,0,5
0,70,0,0
0,70,96,13
0,70,96,0
0,49,0,7
0,68,104,24
0,68,104,0
0,70,0,1
0,70,0,0
0,68,0,65
0,68,0,0
0,68,104,31
0,68,104,0
0,68,0,39
0,68,0,0
0,65,104,21
0,65,104,0
0,65,0,32
0,65,0,0
0,65,92,23
0,65,92,0
0,65,0,27
0,65,0,0
0,63,108,3
0,63,108,0
0,39,100,34
0,39,100,0
0,63,0,46
0,63,0,0
0,61,104,14
0,61,104,0
0,36,100,0
0,61,0,53
0,61,0,0
0,66,92,2
0,30,112,2
0,39,0,3
0,36,0,0
0,39,0,0
0,61,100,0
0,58,100,0
0,49,100,0
0,36,100,0
0,42,100,0
0,42,0,60
0,49,0,0
0,36,0,0
0,42,100,0
0,30,0,5
0,30,117,53
0,42,0,2
0,42,100,0
0,39,100,0
0,40,100,0
0,30,0,52
0,32,112,4
0,39,0,4
0,42,0,0
0,40,0,0
0,36,100,0
0,42,100,0
0,32,0,45
0,66,0,10
0,57,76,0
0,29,112,2
0,65,70,1
0,36,0,2
0,61,0,0
0,58,0,0
0,42,0,0
0,36,100,0
0,42,100,0
0,60,82,1
0,42,0,59
0,36,0,0
0,42,100,0
0,42,0,60
0,42,100,0
0,39,100,0
0,40,100,0
0,29,0,2
0,39,0,58
0,42,0,0
0,40,0,0
0,42,100,0
0,57,0,52
0,70,112,5
0,70,112,0
0,65,0,1
0,42,0,2
0,34,104,0
0,61,92,0
0,42,100,0
0,36,100,0
0,60,0,1
0,58,85,1
0,65,76,1
0,70,0,24
0,70,0,0
0,70,108,29
0,70,108,0
0,42,0,4
0,42,100,0
0,34,0,11
0,70,0,8
0,70,0,0
0,68,108,5
0,68,108,0
0,34,112,33
0,36,0,3
0,42,0,0
0,42,100,0
0,39,100,0
0,40,100,0
0,68,0,41
0,34,0,0
0,68,0,0
0,33,117,15
0,39,0,4
0,40,0,0
0,42,0,0
0,42,100,0
0,36,100,0
0,68,104,2
0,68,104,0
0,33,0,36
0,68,0,2
0,68,0,0
0,32,108,18
0,65,112,1
0,65,112,0
0,42,0,1
0,36,0,0
0,42,100,0
0,36,100,0
0,65,0,27
0,65,0,0
0,32,0,19
0,31,108,9
0,65,104,4
0,65,104,0
0,36,0,1
0,42,0,0
0,42,100,0
0,36,100,0
0,63,108,28
0,63,108,0
0,65,0,2
0,65,0,0
0,31,0,23
0,30,112,2
0,36,0,5
0,42,0,0
0,42,100,0
0,39,100,0
0,40,100,0
0,63,0,49
0,63,0,0
0,61,108,8
0,61,108,0
0,39,0,3
0,40,0,0
0,42,0,0
0,42,100,0
0,30,0,24
0,66,92,31
0,30,112,2
0,42,0,3
0,36,100,0
0,42,100,0
0,65,0,3
0,61,0,1
0,61,0,0
0,36,0,56
0,42,0,0
0,42,100,0
0,30,0,5
0,30,117,53
0,42,0,2
0,42,100,0
0,39,100,0
0,40,100,0
0,30,0,52
0,32,112,4
0,39,0,4
0,42,0,0
0,40,0,0
0,36,100,0
0,42,100,0
0,32,0,45
0,66,0,10
0,57,76,0
0,29,112,2
0,65,70,1
0,36,0,2
0,61,0,0
0,42,0,0
0,36,100,0
0,42,100,0
0,60,82,1
0,58,0,1
0,36,0,58
0,42,0,0
0,42,100,0
0,42,0,60
0,42,100,0
0,39,100,0
0,40,100,0
0,29,0,2
0,39,0,58
0,42,0,0
0,40,0,0
0,42,100,0
0,68,100,29
0,68,100,0
0,57,0,23
0,68,0,3
0,68,0,0
0,65,0,3
0,42,0,2
0,70,112,0
0,34,104,0
0,61,92,0
0,70,112,0
0,49,100,0
0,42,100,0
0,36,100,0
0,60,0,1
0,58,85,1
0,65,76,1
0,70,0,34
0,70,0,0
0,70,92,13
0,70,92,0
0,42,0,10
0,49,0,0
0,42,100,0
0,34,0,11
0,70,0,15
0,70,0,0
0,68,108,0
0,68,108,0
0,34,112,31
0,42,0,3
0,36,0,0
0,42,100,0
0,39,100,0
0,40,100,0
0,68,0,36
0,68,0,0
0,34,0,5
0,33,117,15
0,42,0,4
0,40,0,0
0,39,0,0
0,42,100,0
0,36,100,0
0,68,104,5
0,68,104,0
0,33,0,33
0,68,0,2
0,68,0,0
0,32,108,18
0,42,0,2
0,36,0,0
0,42,100,0
0,36,100,0
0,65,100,4
0,65,100,0
0,65,0,24
0,65,0,0
0,32,0,18
0,31,108,9
0,65,96,2
0,65,96,0
0,42,0,3
0,36,0,0
0,42,100,0
0,36,100,0
0,65,0,25
0,65,0,0
0,63,104,1
0,63,104,0
0,31,0,27
0,30,112,2
0,36,0,5
0,42,0,0
0,42,100,0
0,39,100,0
0,40,100,0
0,63,0,59
0,63,0,0
0,40,0,1
0,39,0,0
0,42,0,0
0,42,100,0
0,61,112,4
0,61,112,0
0,30,0,20
0,66,92,31
0,30,112,2
0,61,0,2
0,61,0,0
0,42,0,1
0,36,100,0
0,42,100,0
0,65,0,3
0,36,0,57
0,42,0,0
0,42,100,0
0,30,0,5
0,30,117,53
0,42,0,2
0,42,100,0
0,39,100,0
0,40,100,0
0,30,0,52
0,32,112,4
0,39,0,4
0,42,0,0
0,40,0,0
0,36,100,0
0,42,100,0
0,32,0,45
0,66,0,10
0,57,76,0
0,29,112,2
0,65,70,1
0,61,0,2
0,36,0,0
0,42,0,0
0,36,100,0
0,42,100,0
0,60,82,1
0,58,0,1
0,36,0,58
0,42,0,0
0,42,100,0
0,42,0,60
0,42,100,0
0,39,100,0
0,40,100,0
0,29,0,2
0,65,73,37
0,65,73,0
0,39,0,21
0,42,0,0
0,40,0,0
0,42,100,0
0,68,104,2
0,68,104,0
0,65,0,3
0,65,0,0
0,68,0,38
0,68,0,0
0,57,0,9
0,65,0,6
0,42,0,2
0,70,89,0
0,34,104,0
0,61,92,0
0,70,89,0
0,42,100,0
0,36,100,0
0,60,0,1
0,58,85,1
0,65,76,1
0,70,0,31
0,70,0,0
0,42,0,26
0,70,92,0
0,70,92,0
0,42,100,0
0,34,0,11
0,70,0,13
0,70,0,0
0,68,96,0
0,68,96,0
0,34,112,33
0,42,0,3
0,36,0,0
0,42,100,0
0,39,100,0
0,40,100,0
0,68,0,35
0,68,0,0
0,34,0,6
0,33,117,15
0,42,0,4
0,40,0,0
0,39,0,0
0,68,92,0
0,68,92,0
0,42,100,0
0,36,100,0
0,68,0,32
0,68,0,0
0,33,0,6
0,65,89,20
0,32,108,0
0,65,89,0
0,36,0,2
0,42,0,0
0,42,100,0
0,36,100,0
0,65,0,26
0,65,0,0
0,32,0,20
0,65,100,9
0,31,108,0
0,65,100,0
0,36,0,5
0,42,0,0
0,42,100,0
0,36,100,0
0,65,0,21
0,65,0,0
0,63,96,2
0,63,96,0
0,31,0,30
0,30,112,2
0,36,0,5
0,42,0,0
0,42,100,0
0,39,100,0
0,40,100,0
0,63,0,20
0,63,0,0
0,61,108,17
0,61,108,0
0,40,0,3
0,39,0,0
0,42,0,0
0,42,100,0
0,30,0,24
0,66,92,21
0,30,112,2
0,42,0,3
0,36,100,0
0,42,100,0
0,65,0,3
0,61,0,15
0,61,0,0
0,36,0,8
0,42,0,0
0,42,100,0
0,30,0,3
0,30,117,6
0,42,0,2
0,42,100,0
0,39,100,0
0,40,100,0
0,30,0,20
0,32,112,4
0,39,0,4
0,42,0,0
0,40,0,0
0,36,100,0
0,42,100,0
0,32,0,13
0,66,0,3
0,57,76,0
0,29,112,2
0,65,70,1
0,36,0,2
0,61,0,0
0,42,0,0
0,36,100,0
0,42,100,0
0,60,82,1
0,58,0,1
0,75,92,4
0,75,92,0
0,36,0,4
0,42,0,0
0,42,100,0
0,75,0,4
0,75,0,0
0,75,92,6
0,75,92,0
0,42,0,2
0,42,100,0
0,39,100,0
0,40,100,0
0,29,0,2
0,75,0,17
0,75,0,0
0,70,89,6
0,70,89,0
0,40,0,2
0,39,0,0
0,42,0,0
0,42,100,0
0,70,0,16
0,70,0,0
0,57,0,10
0,65,0,6
0,42,0,2
0,73,85,0
0,61,92,0
0,34,104,0
0,73,85,0
0,49,100,0
0,36,100,0
0,42,100,0
0,60,0,1
0,58,85,1
0,65,76,1
0,42,0,8
0,49,0,0
0,42,100,0
0,73,0,6
0,73,0,0
0,34,0,5
0,75,82,3
0,75,82,0
0,34,112,15
0,42,0,3
0,36,0,0
0,42,100,0
0,39,100,0
0,40,100,0
0,75,0,7
0,75,0,0
0,34,0,9
0,75,89,14
0,33,117,0
0,75,89,0
0,42,0,4
0,40,0,0
0,39,0,0
0,36,100,0
0,42,100,0
0,33,0,6
0,32,108,16
0,42,0,2
0,36,0,0
0,36,100,0
0,42,100,0
0,32,0,4
0,31,108,9
0,42,0,5
0,36,0,0
0,36,100,0
0,42,100,0
0,31,0,11
0,30,112,2
0,75,0,2
0,75,0,0
0,42,0,3
0,36,0,0
0,42,100,0
0,39,100,0
0,40,100,0
0,40,0,8
0,42,0,0
0,39,0,0
0,42,100,0
0,30,0,2
0,65,92,15
0,70,89,2
0,66,92,3
0,30,112,2
0,42,0,3
0,36,100,0
0,42,100,0
0,65,0,1
0,42,0,8
0,36,0,0
0,42,100,0
0,30,0,3
0,30,117,6
0,42,0,2
