track,note,velocity,time
1,51,60,7928
1,58,72,54
1,63,82,42
1,66,88,38
1,51,49,196
1,58,76,54
1,63,83,42
1,66,88,38
1,51,54,182
1,58,58,54
1,63,68,42
1,66,72,38
1,51,58,302
1,54,52,384
1,58,60,0
1,63,54,0
1,51,57,24
1,54,52,24
1,58,60,0
1,63,55,0
1,51,54,48
1,54,52,24
1,58,60,0
1,63,52,0
1,51,60,24
1,54,52,24
1,58,60,0
1,63,62,0
1,46,58,8
1,49,44,384
1,53,60,0
1,58,54,0
1,49,40,24
1,53,41,0
1,58,60,0
1,46,54,384
1,49,47,24
1,53,52,0
1,58,52,0
1,46,60,24
1,44,50,384
1,42,58,142
1,49,53,382
1,54,54,0
1,58,44,0
1,49,50,44
1,54,55,0
1,58,44,0
1,42,54,384
1,49,52,44
1,54,52,0
1,58,44,0
1,42,60,24
1,49,48,44
1,54,48,0
1,58,62,0
1,46,58,384
1,53,61,380
1,58,54,0
1,62,44,0
1,41,64,24
1,53,54,20
1,58,55,0
1,62,44,0
1,46,54,24
1,53,52,44
1,58,52,0
1,62,44,0
1,46,60,24
1,53,48,68
1,58,55,0
1,62,62,0
1,47,58,384
1,54,61,380
1,59,54,0
1,63,44,0
1,42,64,24
1,54,54,18
1,59,55,0
1,63,44,0
1,47,54,24
1,54,52,20
1,59,52,0
1,63,44,0
1,47,60,24
1,54,48,96
1,59,62,0
1,42,58,48
1,54,54,380
1,58,44,0
1,61,58,0
1,54,55,48
1,58,44,0
1,61,55,0
1,42,62,384
1,54,52,20
1,58,44,0
1,61,53,0
1,42,60,24
1,54,62,72
1,58,42,0
1,61,42,0
1,49,58,384
1,56,53,380
1,61,54,0
1,65,44,0
1,44,64,24
1,56,54,66
1,61,55,0
1,65,44,0
1,46,54,24
1,58,52,382
1,62,52,0
1,65,44,0
1,41,60,24
1,58,48,66
1,62,62,0
1,65,48,0
1,46,58,384
1,58,46,46
1,62,60,0
1,65,56,0
1,58,62,22
1,54,69,70
1,58,40,192
1,51,58,46
1,54,52,354
1,58,60,0
1,63,54,0
1,51,57,24
1,54,52,24
1,58,60,0
1,63,55,0
1,51,54,48
1,54,52,24
1,58,60,0
1,63,52,0
1,51,60,24
1,54,52,24
1,58,60,0
1,63,62,0
1,46,58,8
1,49,44,384
1,53,60,0
1,58,54,0
1,49,40,24
1,53,41,0
1,58,60,0
1,46,54,384
1,49,47,24
1,53,52,0
1,58,52,0
1,46,60,24
1,44,50,384
1,42,58,142
1,49,53,382
1,54,54,0
1,58,44,0
1,49,50,44
1,54,55,0
1,58,44,0
1,42,54,384
1,49,52,44
1,54,52,0
1,58,44,0
1,42,60,24
1,49,48,44
1,54,48,0
1,58,62,0
1,46,58,384
1,53,61,380
1,58,54,0
1,62,44,0
1,41,64,24
1,53,54,20
1,58,55,0
1,62,44,0
1,46,54,24
1,53,52,44
1,58,52,0
1,62,44,0
1,46,60,24
1,53,48,68
1,58,55,0
1,62,62,0
1,66,54,380
1,71,55,0
1,75,45,0
1,66,68,96
1,71,62,0
1,75,63,0
1,66,67,528
1,71,60,0
1,75,52,0
1,66,53,20
1,71,53,0
1,75,45,0
1,66,58,72
1,71,67,0
1,75,68,0
1,59,52,408
1,66,55,48
1,71,60,48
1,75,67,24
1,66,62,188
1,70,57,0
1,73,54,0
1,66,63,288
1,70,68,0
1,73,68,0
1,66,74,528
1,70,54,0
1,73,67,0
1,66,69,24
1,70,65,0
1,73,53,0
1,66,67,282
1,70,73,0
1,73,58,0
1,54,52,384
1,61,55,72
1,66,71,48
1,70,64,24
1,65,52,188
1,68,46,0
1,73,71,0
1,65,52,282
1,68,56,0
1,73,76,0
1,65,50,528
1,68,56,0
1,73,67,0
1,65,59,0
1,73,69,0
1,62,52,238
1,65,46,0
1,70,71,0
1,62,52,282
1,65,56,0
1,70,76,0
1,62,50,528
1,65,56,0
1,70,67,0
1,62,59,0
1,70,69,0
1,58,58,238
1,65,56,0
1,70,76,0
1,58,48,432
1,62,57,48
1,65,59,24
1,70,67,24
1,66,63,192
1,70,61,0
1,75,63,0
1,66,71,288
1,70,73,0
1,75,73,0
1,66,73,528
1,70,73,0
1,75,75,0
1,66,67,72
1,70,67,0
1,75,71,0
1,66,71,334
1,70,65,0
1,75,75,0
1,66,67,504
1,70,71,0
1,75,73,0
1,65,63,180
1,70,70,0
1,73,56,0
1,65,71,288
1,70,73,0
1,73,63,0
1,65,73,528
1,70,74,0
1,73,67,0
1,65,67,72
1,70,74,0
1,73,65,0
1,65,71,334
1,70,75,0
1,73,66,0
1,65,67,504
1,70,77,0
1,73,63,0
1,61,59,180
1,66,71,0
1,70,75,0
1,61,57,342
1,66,67,0
1,70,73,0
1,61,71,520
1,66,71,0
1,70,78,0
1,61,56,184
1,66,71,0
1,70,71,0
1,61,59,328
1,66,71,0
1,70,65,0
1,61,56,326
1,66,64,0
1,70,64,0
1,61,64,144
1,66,72,0
1,70,72,0
1,63,67,188
1,65,82,0
1,70,75,0
1,63,65,314
1,65,80,0
1,70,78,0
1,63,78,516
1,65,84,0
1,70,80,0
1,62,73,178
1,65,78,0
1,70,73,0
1,62,82,520
1,65,82,0
1,70,73,0
1,62,78,494
1,65,84,0
1,70,73,0
1,63,67,316
1,66,82,0
1,71,75,0
1,63,65,314
1,66,80,0
1,71,78,0
1,63,78,468
1,66,84,24
1,71,84,24
1,63,67,46
1,66,82,0
1,71,75,0
1,63,65,314
1,66,80,0
1,71,78,0
1,63,73,420
1,66,77,48
1,71,78,24
1,75,80,24
1,61,70,178
1,66,70,0
1,70,83,0
1,61,64,314
1,66,71,0
1,70,80,0
1,61,74,516
1,66,78,0
1,70,84,0
1,61,70,178
1,66,70,0
1,70,83,0
1,61,64,314
1,66,71,0
1,70,80,0
1,61,67,444
1,66,71,24
1,70,66,24
1,73,77,24
1,61,70,178
1,65,63,0
1,68,78,0
1,61,70,314
1,65,64,0
1,68,75,0
1,61,68,468
1,65,63,24
1,68,70,24
1,58,66,274
1,65,56,0
1,70,76,0
1,58,66,138
1,65,57,0
1,70,73,0
1,58,66,546
1,65,56,0
1,70,76,0
1,58,66,138
1,65,57,0
1,70,73,0
1,58,66,546
1,65,56,0
1,70,76,0
1,58,66,138
1,65,57,0
1,70,73,0
1,58,66,354
1,65,56,0
1,70,76,0
1,58,66,330
1,65,56,0
1,70,76,0
1,63,56,426
1,66,73,0
1,70,52,0
1,63,43,236
1,66,66,0
1,70,58,0
1,63,56,240
1,66,71,0
1,70,66,0
1,63,58,240
1,66,75,0
1,70,69,0
1,66,35,146
1,70,32,0
1,63,71,70
1,66,79,0
1,70,73,0
1,63,58,52
1,66,79,0
1,70,71,0
1,63,50,240
1,66,73,0
1,70,62,0
1,63,60,238
1,66,75,0
1,70,69,0
1,63,62,234
1,66,75,0
1,70,64,0
1,63,69,240
1,66,75,0
1,70,66,0
1,61,58,178
1,65,69,0
1,70,66,0
1,70,35,122
1,61,44,54
1,65,71,0
1,70,58,0
1,61,50,232
1,65,71,0
1,70,60,0
1,61,52,230
1,65,73,0
1,70,64,0
1,70,37,34
1,61,66,156
1,65,82,0
1,70,71,0
1,61,46,44
1,65,73,0
1,70,54,0
1,61,37,230
1,65,73,0
1,70,52,0
1,61,48,232
1,65,73,0
1,70,54,0
1,61,60,218
1,65,73,0
1,70,54,0
1,61,45,228
1,65,73,0
1,70,54,0
1,61,42,90
1,66,73,0
1,70,64,0
1,61,52,240
1,66,73,0
1,70,66,0
1,61,54,244
1,66,71,0
1,70,66,0
1,66,44,140
1,70,51,0
1,61,41,62
1,66,71,0
1,70,60,0
1,61,69,240
1,66,79,0
1,70,75,0
1,61,48,66
1,66,66,0
1,70,69,0
1,61,46,244
1,66,73,0
1,70,64,0
1,70,39,136
1,61,60,76
1,66,73,0
1,70,62,0
1,61,56,228
1,66,66,0
1,70,58,0
1,61,71,232
1,66,77,0
1,70,64,0
1,58,65,208
1,65,64,0
1,70,56,0
1,58,56,228
1,65,62,0
1,70,62,0
1,58,54,240
1,65,73,0
1,70,62,0
1,58,44,238
1,65,75,0
1,70,64,0
1,58,63,242
1,65,77,0
1,70,69,0
1,58,61,122
1,65,75,0
1,70,60,0
1,58,61,234
1,65,84,0
1,70,60,0
1,58,56,234
1,65,75,0
1,70,60,0
1,58,58,236
1,65,73,0
1,70,64,0
1,70,49,142
1,58,61,64
1,65,77,0
1,70,71,0
1,63,61,172
1,66,72,0
1,71,64,0
1,63,48,236
1,66,65,0
1,71,70,0
1,63,61,240
1,66,70,0
1,71,78,0
1,63,63,240
1,66,74,0
1,71,81,0
1,66,34,146
1,71,44,0
1,63,76,70
1,66,78,0
1,71,85,0
1,63,63,52
1,66,78,0
1,71,83,0
1,63,55,240
1,66,72,0
1,71,74,0
1,63,65,238
1,66,74,0
1,71,81,0
1,63,67,234
1,66,74,0
1,71,76,0
1,63,74,240
1,66,74,0
1,71,78,0
1,61,63,178
1,66,74,0
1,70,78,0
1,70,47,122
1,61,49,54
1,66,76,0
1,70,70,0
1,61,55,232
1,66,76,0
1,70,72,0
1,61,57,230
1,66,78,0
1,70,76,0
1,70,49,34
1,61,71,156
1,66,87,0
1,70,83,0
1,61,51,44
1,66,78,0
1,70,66,0
1,61,42,230
1,66,78,0
1,70,64,0
1,61,53,232
1,66,78,0
1,70,66,0
1,61,65,218
1,66,78,0
1,70,66,0
1,61,50,228
1,66,78,0
1,70,66,0
1,61,47,90
1,68,72,0
1,73,76,0
1,61,57,240
1,68,72,0
1,73,78,0
1,61,59,244
1,68,70,0
1,73,78,0
1,68,43,140
1,61,46,62
1,68,70,0
1,73,72,0
1,61,74,240
1,68,65,0
1,73,73,0
1,65,53,186
1,70,65,0
1,74,81,0
1,65,51,244
1,70,72,0
1,74,76,0
1,74,51,136
1,65,65,76
1,70,72,0
1,74,74,0
1,65,61,228
1,70,65,0
1,74,70,0
1,65,76,232
1,70,76,0
1,74,76,0
1,65,61,208
1,70,62,0
1,74,60,0
1,65,59,228
1,70,53,0
1,74,66,0
1,65,72,432
1,70,41,0
1,74,68,0
1,65,74,242
1,70,60,0
1,74,73,0
1,63,57,432
1,66,74,0
1,70,53,0
1,63,44,236
1,66,67,0
1,70,59,0
1,63,57,240
1,66,72,0
1,70,67,0
1,63,59,240
1,66,76,0
1,70,70,0
1,66,36,146
1,70,33,0
1,63,72,70
1,66,80,0
1,70,74,0
1,63,59,52
1,66,80,0
1,70,72,0
1,63,51,240
1,66,74,0
1,70,63,0
1,63,61,238
1,66,76,0
1,70,70,0
1,63,63,234
1,66,76,0
1,70,65,0
1,63,70,240
1,66,76,0
1,70,67,0
1,65,70,178
1,70,67,0
1,73,59,0
1,70,36,122
1,65,72,54
1,70,59,0
1,73,45,0
1,65,72,232
1,70,61,0
1,73,51,0
1,65,74,230
1,70,65,0
1,73,53,0
1,70,38,34
1,65,83,156
1,70,72,0
1,73,67,0
1,65,74,44
1,70,55,0
1,73,47,0
1,65,74,230
1,70,53,0
1,73,38,0
1,65,74,232
1,70,55,0
1,73,49,0
1,65,74,218
1,70,55,0
1,73,61,0
1,65,74,228
1,70,55,0
1,73,62,0
1,61,43,90
1,66,74,0
1,70,65,0
1,61,53,240
1,66,74,0
1,70,67,0
1,61,55,244
1,66,72,0
1,70,67,0
1,66,45,140
1,70,52,0
1,61,42,62
1,66,72,0
1,70,61,0
1,61,70,240
1,66,80,0
1,70,76,0
1,61,49,66
1,66,67,0
1,70,70,0
1,61,47,244
1,66,74,0
1,70,65,0
1,70,40,136
1,61,61,76
1,66,74,0
1,70,63,0
1,61,57,228
1,66,67,0
1,70,59,0
1,61,72,232
1,66,78,0
1,70,65,0
1,65,65,208
1,70,57,0
1,74,66,0
1,65,63,228
1,70,63,0
1,74,57,0
1,65,74,240
1,70,63,0
1,74,55,0
1,65,76,238
1,70,65,0
1,74,45,0
1,65,78,242
1,70,70,0
1,74,64,0
1,65,76,122
1,70,61,0
1,74,62,0
1,65,85,234
1,70,61,0
1,74,62,0
1,65,76,234
1,70,61,0
1,74,57,0
1,65,74,236
1,70,65,0
1,74,59,0
1,70,50,142
1,65,78,64
1,70,72,0
1,74,62,0
1,63,65,172
1,66,76,0
1,71,68,0
1,63,52,236
1,66,69,0
1,71,74,0
1,63,65,240
1,66,74,0
1,71,82,0
1,63,67,240
1,66,78,0
1,71,85,0
1,66,38,146
1,71,48,0
1,63,80,70
1,66,82,0
1,71,89,0
1,63,67,52
1,66,82,0
1,71,87,0
1,63,59,240
1,66,76,0
1,71,78,0
1,63,69,238
1,66,78,0
1,71,85,0
1,63,71,234
1,66,78,0
1,71,80,0
1,63,78,240
1,66,78,0
1,71,82,0
1,61,67,178
1,66,78,0
1,70,82,0
1,70,51,122
1,61,53,54
1,66,80,0
1,70,74,0
1,61,59,232
1,66,80,0
1,70,76,0
1,61,61,230
1,66,82,0
1,70,80,0
1,70,53,34
1,61,75,156
1,66,91,0
1,70,87,0
1,61,55,44
1,66,82,0
1,70,70,0
1,61,46,230
1,66,82,0
1,70,68,0
1,61,57,232
1,66,82,0
1,70,70,0
1,61,69,218
1,66,82,0
1,70,70,0
1,61,54,228
1,66,82,0
1,70,70,0
1,61,51,90
1,68,76,0
1,73,80,0
1,61,61,240
1,68,76,0
1,73,82,0
1,61,63,244
1,68,74,0
1,73,82,0
1,68,47,140
1,61,50,62
1,68,74,0
1,73,76,0
1,61,78,240
1,68,69,0
1,73,77,0
1,65,57,186
1,70,69,0
1,74,85,0
1,65,55,244
1,70,76,0
1,74,80,0
1,74,55,136
1,65,69,76
1,70,76,0
1,74,78,0
1,65,65,228
1,70,69,0
1,74,74,0
1,65,80,232
1,70,80,0
1,74,80,0
1,65,65,208
1,70,66,0
1,74,64,0
1,65,63,228
1,70,57,0
1,74,70,0
1,65,76,432
1,70,45,0
1,74,72,0
1,65,64,242
1,70,58,0
1,74,77,0
1,51,106,240
1,58,82,0
1,63,93,0
1,66,88,0
1,51,98,84
1,58,75,0
1,63,86,0
1,66,71,0
1,58,78,8
1,61,78,24
1,65,82,42
1,46,82,6
1,58,73,76
1,61,75,32
1,46,82,16
1,65,82,6
1,58,73,78
1,61,75,24
1,42,82,24
1,66,82,6
1,58,73,78
1,61,75,24
1,42,82,24
1,66,82,6
1,58,73,78
1,63,82,24
1,46,82,24
1,65,81,0
1,58,73,68
1,62,82,24
1,46,82,24
1,65,81,0
1,63,90,116
1,63,88,170
1,63,90,146
1,63,81,264
1,63,68,182
1,63,90,176
1,63,81,146
1,63,86,176
1,63,88,284
1,63,90,168
1,58,88,196
1,58,79,154
1,58,90,160
1,58,90,256
1,58,83,142
1,58,88,180
1,58,81,140
1,58,83,172
1,58,90,262
1,58,81,146
1,54,77,182
1,54,73,150
1,54,79,172
1,54,77,270
1,54,86,172
1,54,86,186
1,54,75,172
1,54,81,178
1,54,81,272
1,54,77,174
1,58,90,188
1,58,77,162
1,58,86,176
1,58,88,264
1,58,83,164
1,58,81,22
1,58,83,144
1,58,83,170
1,58,88,250
1,58,77,166
1,59,95,198
1,59,90,144
1,59,93,152
1,59,86,268
1,59,77,192
1,59,93,202
1,59,90,166
1,59,88,168
1,59,88,290
1,59,93,182
1,54,86,216
1,54,77,162
1,54,86,174
1,54,86,286
1,54,86,166
1,54,86,196
1,54,86,170
1,54,77,186
1,54,90,274
1,54,79,184
1,61,79,204
1,61,66,138
1,61,73,168
1,61,93,250
1,61,90,144
1,58,73,184
1,58,83,158
1,58,83,192
1,58,88,282
1,58,58,204
1,58,79,220
1,58,77,180
1,58,83,190
1,58,77,292
1,58,77,194
1,63,90,194
1,63,83,186
1,63,90,180
1,63,75,272
1,61,75,184
1,63,90,208
1,63,79,182
1,63,77,190
1,63,70,300
1,63,86,184
1,58,77,218
1,58,77,172
1,58,77,200
1,58,77,292
1,58,83,166
1,58,90,210
1,58,77,168
1,58,81,186
1,58,81,294
1,58,79,184
1,54,75,204
1,54,77,166
1,54,75,186
