track,note,velocity,time
1,38,75,6720
1,42,53,20
1,43,75,5
1,38,75,225
1,37,71,30
1,35,65,40
1,33,59,40
1,28,35,480
1,33,53,33
1,43,75,68
1,42,47,53
1,35,75,78
1,33,38,30
1,31,71,8
1,30,47,25
1,28,56,73
1,30,65,38
1,31,75,83
1,33,71,150
1,40,50,0
1,45,56,30
1,38,75,138
1,42,53,20
1,43,75,5
1,38,75,225
1,37,71,30
1,35,65,40
1,33,59,40
1,28,35,480
1,33,53,33
1,43,75,68
1,42,47,53
1,35,75,78
1,33,38,30
1,31,71,8
1,30,47,25
1,28,56,73
1,30,65,38
1,33,75,83
1,33,75,123
1,33,75,60
1,33,75,43
1,33,75,50
1,45,75,15
1,40,75,18
1,45,75,8
1,33,75,0
1,38,75,140
1,38,75,70
1,40,47,0
1,42,75,20
1,42,75,48
1,31,75,30
1,31,75,60
1,33,75,65
1,33,75,63
1,38,75,40
1,37,75,45
1,35,75,10
1,33,75,55
1,28,75,23
1,40,75,480
1,33,75,448
1,33,75,40
1,38,75,160
1,38,75,220
1,38,75,165
1,38,75,180
1,38,75,80
1,31,75,23
1,43,75,13
1,28,75,10
1,28,75,55
1,28,75,80
1,38,75,150
1,35,75,960
1,35,75,78
1,28,75,240
1,40,75,5
1,33,75,15
1,38,75,133
1,45,75,240
1,50,75,230
1,49,75,0
1,42,75,0
1,42,75,28
1,31,75,123
1,31,75,173
1,33,75,160
1,33,75,158
1,33,75,158
1,38,75,100
1,42,53,20
1,43,75,5
1,38,75,225
1,37,71,30
1,35,65,40
1,33,59,40
1,28,35,480
1,33,53,33
1,43,75,68
1,42,47,53
1,35,75,78
1,33,38,30
1,31,71,8
1,30,47,25
1,28,56,73
1,30,65,38
1,33,75,83
1,33,75,123
1,33,75,60
1,33,75,43
1,33,75,50
1,45,75,15
1,40,75,18
1,45,75,8
1,33,75,0
1,43,75,140
1,30,75,30
1,35,75,65
1,35,75,50
1,28,75,93
1,28,75,140
1,30,75,20
1,30,75,90
1,31,75,15
1,43,75,3
1,31,75,240
1,33,75,50
1,33,75,110
1,33,75,128
1,33,75,133
1,33,75,63
1,40,75,3
1,45,75,120
1,33,75,110
1,33,75,213
1,33,75,175
1,33,75,178
1,38,75,103
1,38,75,203
1,40,75,120
1,42,75,20
1,30,75,480
1,31,75,90
1,31,75,60
1,33,75,65
1,33,75,63
1,38,75,40
1,37,75,45
1,35,75,10
1,33,75,55
1,28,75,23
1,40,75,480
1,33,75,448
1,33,75,40
1,38,75,160
1,38,75,220
1,38,75,165
1,38,75,180
1,38,75,80
1,31,75,23
1,43,75,13
1,28,75,10
1,28,75,55
1,28,75,80
1,38,75,150
1,35,75,960
1,35,75,78
1,28,75,240
1,40,75,5
1,33,75,15
1,38,75,133
1,35,75,960
1,35,75,78
1,28,75,240
1,40,75,5
1,33,75,15
1,38,75,133
1,35,75,960
1,35,75,78
1,28,75,240
1,40,75,5
1,33,75,15
1,38,75,133
1,45,75,240
1,50,75,230
1,49,75,0
1,42,75,0
1,42,75,28
1,43,75,123
1,43,75,55
1,33,75,0
1,33,75,55
1,38,75,13
2,62,77,1130
2,50,77,0
2,66,77,48
2,69,77,65
2,66,77,68
2,62,77,100
2,42,77,0
2,66,77,70
2,69,77,120
2,66,77,90
2,43,77,115
2,62,77,0
2,67,77,50
2,69,77,85
2,67,77,60
2,57,77,30
2,62,77,0
2,64,77,58
2,69,77,8
2,64,77,25
2,61,77,3
2,69,77,0
2,64,77,0
2,57,77,0
2,38,77,120
2,66,77,0
2,62,77,0
2,57,77,0
2,66,77,10
2,42,77,0
2,62,77,0
2,57,77,0
2,62,77,25
2,59,77,0
2,55,77,0
2,43,77,0
2,50,77,248
2,57,77,0
2,49,77,80
2,57,77,0
2,55,77,60
2,47,77,0
2,45,77,13
2,54,77,0
2,40,77,150
2,52,77,75
2,55,77,240
2,57,68,313
2,52,77,0
2,45,77,0
2,62,77,170
2,61,77,163
2,62,77,68
2,55,77,0
2,43,77,0
2,59,77,0
2,54,77,330
2,61,77,0
2,64,77,0
2,57,77,0
2,47,77,150
2,66,77,0
2,62,77,0
2,59,77,0
2,57,77,143
2,45,77,0
2,43,77,20
2,55,77,0
2,42,77,10
2,54,77,0
2,40,77,5
2,59,77,0
2,52,77,0
2,55,77,0
2,55,77,0
2,64,77,68
2,67,77,180
2,66,77,18
2,62,77,240
2,55,77,263
2,62,77,240
2,67,77,15
2,45,77,23
2,52,77,240
2,62,77,240
2,61,74,0
2,52,77,0
2,45,77,0
2,38,77,125
2,66,77,0
2,62,77,0
2,57,77,0
2,66,77,10
2,42,77,0
2,62,77,0
2,57,77,0
2,62,77,25
2,59,77,0
2,55,77,0
2,43,77,0
2,50,77,248
2,57,77,0
2,49,77,80
2,57,77,0
2,55,77,60
2,47,77,0
2,45,77,13
2,54,77,0
2,40,77,150
2,52,77,75
2,55,77,240
2,57,68,313
2,52,77,0
2,45,77,0
2,62,77,170
2,61,77,163
2,62,77,68
2,55,77,0
2,43,77,0
2,59,77,0
2,54,77,330
2,61,77,0
2,64,77,0
2,57,77,0
2,47,77,150
2,66,77,0
2,62,77,0
2,59,77,0
2,57,77,143
2,45,77,0
2,43,77,20
2,55,77,0
2,42,77,10
2,54,77,0
2,40,77,5
2,59,77,0
2,52,77,0
2,55,77,0
2,55,77,0
2,64,77,68
2,67,77,180
2,66,77,18
2,62,77,240
2,64,55,23
2,57,71,0
2,62,76,0
2,52,77,0
2,64,77,168
2,45,77,0
2,57,76,0
2,62,77,0
2,52,77,0
2,64,77,123
2,45,77,0
2,57,77,0
2,62,77,0
2,52,77,0
2,45,77,95
2,52,77,0
2,62,77,0
2,64,77,0
2,57,77,0
2,62,77,108
2,57,77,0
2,64,77,0
2,45,77,0
2,52,77,0
2,45,77,110
2,52,77,0
2,64,77,0
2,62,77,0
2,57,77,0
2,52,77,75
2,45,77,0
2,64,77,0
2,62,77,0
2,57,77,0
2,52,77,70
2,45,77,0
2,57,77,0
2,64,77,0
2,62,77,0
2,52,77,50
2,57,77,0
2,64,77,0
2,45,77,0
2,61,77,0
2,50,77,205
2,57,77,0
2,69,77,0
2,62,77,0
2,66,77,0
2,62,77,15
2,64,77,73
2,69,77,0
2,50,77,133
2,57,77,0
2,66,77,0
2,69,77,0
2,62,77,0
2,66,77,85
2,62,77,0
2,69,77,0
2,62,77,390
2,69,77,0
2,59,77,0
2,55,77,0
2,45,77,470
2,62,77,0
2,59,77,0
2,52,77,0
2,61,77,190
2,45,77,0
2,57,77,0
2,62,77,25
2,66,77,0
2,61,77,23
2,64,77,0
2,62,77,30
2,59,77,0
2,57,77,28
2,61,77,0
2,52,77,3
2,62,77,0
2,55,77,0
2,59,77,0
2,52,77,0
2,67,77,20
2,52,77,183
2,45,77,10
2,52,77,0
2,57,77,0
2,64,77,0
2,61,77,0
2,57,77,78
2,62,77,120
2,57,77,0
2,64,77,0
2,57,77,350
2,69,77,0
2,62,77,0
2,50,77,0
2,66,77,0
2,62,77,83
2,64,77,113
2,66,77,130
2,60,77,10
2,66,77,0
2,69,77,0
2,57,77,0
2,50,77,0
2,66,77,40
2,60,77,0
2,69,77,0
2,43,77,353
2,55,77,0
2,59,77,0
2,62,77,0
2,50,77,10
2,67,77,50
2,64,77,425
2,62,77,0
2,68,77,0
2,71,77,0
2,59,77,0
2,52,77,0
2,62,77,60
2,68,77,0
2,52,77,0
2,59,77,0
2,62,77,10
2,69,77,0
2,66,77,0
2,66,77,403
2,62,77,0
2,59,77,0
2,52,61,270
2,55,75,0
2,64,77,20
2,59,77,0
2,62,77,430
2,45,77,0
2,52,77,0
2,45,77,5
2,61,77,0
2,57,77,0
2,52,77,0
2,62,77,135
2,50,77,0
2,66,77,0
2,69,77,0
2,62,77,68
2,64,77,3
2,50,77,0
2,66,77,65
2,62,77,50
2,55,77,0
2,59,77,0
2,67,77,0
2,45,77,390
2,59,77,0
2,62,77,0
2,52,77,0
2,45,77,688
2,52,77,0
2,61,77,0
2,57,77,0
2,38,77,225
2,66,77,0
2,62,77,0
2,57,77,0
2,66,77,10
2,42,77,0
2,62,77,0
2,57,77,0
2,62,77,25
2,59,77,0
2,55,77,0
2,43,77,0
2,50,77,248
2,57,77,0
2,49,77,80
2,57,77,0
2,55,77,60
2,47,77,0
2,45,77,13
2,54,77,0
2,40,77,150
2,52,77,75
2,55,77,240
2,57,68,313
2,52,77,0
2,45,77,0
2,62,77,170
2,61,77,163
2,62,77,68
2,55,77,0
2,43,77,0
2,59,77,0
2,54,77,330
2,61,77,0
2,64,77,0
2,57,77,0
2,47,77,150
2,66,77,0
2,62,77,0
2,59,77,0
2,57,77,143
2,45,77,0
2,43,77,20
2,55,77,0
2,42,77,10
2,54,77,0
2,40,77,5
2,59,77,0
2,52,77,0
2,55,77,0
2,55,77,0
2,64,77,68
2,67,77,180
2,66,77,18
2,62,77,240
2,64,55,23
2,57,71,0
2,62,76,0
2,52,77,0
2,64,77,168
2,45,77,0
2,57,76,0
2,62,77,0
2,52,77,0
2,64,77,123
2,45,77,0
2,57,77,0
2,62,77,0
2,52,77,0
2,45,77,95
2,52,77,0
2,62,77,0
2,64,77,0
2,57,77,0
2,62,77,108
2,57,77,0
2,64,77,0
2,45,77,0
2,52,77,0
2,45,77,110
2,52,77,0
2,64,77,0
2,62,77,0
2,57,77,0
2,52,77,75
2,45,77,0
2,64,77,0
2,62,77,0
2,57,77,0
2,52,77,70
2,45,77,0
2,57,77,0
2,64,77,0
2,62,77,0
2,52,77,50
2,57,77,0
2,64,77,0
2,45,77,0
2,61,77,0
2,64,77,0
2,62,77,0
2,59,77,0
2,57,77,0
2,61,77,0
2,64,77,0
2,62,77,205
2,59,77,0
2,55,77,0
2,71,77,0
2,67,77,0
2,54,77,473
2,61,77,0
2,57,77,0
2,64,77,0
2,66,77,35
2,62,77,0
2,59,77,0
2,62,77,13
2,59,77,0
2,55,77,0
2,52,77,0
2,54,77,10
2,49,77,0
2,57,77,0
2,66,77,0
2,61,77,0
2,59,77,5
2,62,77,0
2,55,77,0
2,43,77,0
2,52,77,28
2,45,77,0
2,62,77,0
2,59,77,0
2,45,77,30
2,52,77,0
2,59,77,0
2,62,77,0
2,62,77,125
2,59,77,0
2,52,77,0
2,45,77,0
2,62,66,138
2,45,77,0
2,52,77,0
2,69,77,95
2,52,77,0
2,45,77,0
2,62,77,0
2,59,77,0
2,45,77,115
2,52,77,0
2,69,77,0
2,62,77,0
2,59,77,0
2,52,77,85
2,45,77,0
2,62,77,0
2,59,77,0
2,69,77,0
2,52,77,93
2,45,77,0
2,69,77,0
2,59,77,0
2,62,77,0
2,52,77,80
2,45,77,0
2,69,77,0
2,61,77,0
2,64,77,0
2,52,77,170
2,45,77,0
2,69,77,0
2,64,77,0
2,61,77,0
2,52,77,210
2,45,77,0
2,64,77,0
2,69,77,0
2,61,77,0
2,52,77,210
2,45,77,0
2,64,77,0
2,69,77,0
2,61,77,0
2,50,77,120
2,69,77,0
2,66,77,0
2,62,77,0
2,74,77,495
2,69,77,0
2,66,77,0
2,62,77,325
2,69,77,0
2,59,77,0
2,55,77,0
2,45,77,470
2,62,77,0
2,59,77,0
2,52,77,0
2,61,77,190
2,45,77,0
2,57,77,0
2,62,77,25
2,66,77,0
2,61,77,23
2,64,77,0
2,62,77,30
2,59,77,0
2,57,77,28
2,61,77,0
2,52,77,3
2,62,77,0
2,55,77,0
2,59,77,0
2,52,77,0
2,67,77,20
2,52,77,183
2,45,77,10
2,52,77,0
2,57,77,0
2,64,77,0
2,61,77,0
2,57,77,78
2,62,77,120
2,57,77,0
2,64,77,0
2,57,77,350
2,69,77,0
2,62,77,0
2,50,77,0
2,66,77,0
2,62,77,83
2,64,77,113
2,66,77,130
2,60,77,10
2,66,77,0
2,69,77,0
2,57,77,0
2,50,77,0
2,66,77,40
2,60,77,0
2,69,77,0
2,43,77,353
2,55,77,0
2,59,77,0
2,62,77,0
2,50,77,10
2,67,77,50
2,64,77,425
2,62,77,0
2,68,77,0
2,71,77,0
2,59,77,0
2,52,77,0
2,62,77,60
2,68,77,0
2,52,77,0
2,59,77,0
2,62,77,10
2,69,77,0
2,66,77,0
2,66,77,403
2,62,77,0
2,59,77,0
2,55,75,270
2,52,61,0
2,64,77,20
2,59,77,0
2,62,77,430
2,45,77,0
2,52,77,0
2,45,77,5
2,61,77,0
2,57,77,0
2,52,77,0
2,62,77,135
2,69,77,0
2,66,77,0
2,66,77,403
2,62,77,0
2,59,77,0
2,55,75,270
2,52,61,0
2,64,77,20
2,59,77,0
2,62,77,430
2,45,77,0
2,52,77,0
2,45,77,5
2,61,77,0
2,57,77,0
2,52,77,0
2,62,77,135
2,69,77,0
2,66,77,0
2,66,77,403
2,62,77,0
2,59,77,0
2,55,75,270
2,52,61,0
2,64,77,20
2,59,77,0
2,62,77,430
2,45,77,0
2,52,77,0
2,45,77,5
2,61,77,0
2,57,77,0
2,52,77,0
2,62,77,135
2,50,77,0
2,66,77,0
2,69,77,0
2,62,77,68
2,64,77,3
2,50,77,0
2,66,77,65
2,67,77,50
2,62,77,0
2,59,77,0
2,55,77,0
2,62,77,130
2,59,77,0
2,45,77,5
2,52,77,0
2,61,77,0
2,57,77,0
2,50,77,18
2,62,77,0
2,54,77,0
2,57,77,0
3,86,70,39098
3,78,62,0
3,79,70,373
3,86,70,0
3,86,70,210
3,81,70,0
3,81,70,10
3,85,70,0
3,78,70,10
3,76,70,5
3,74,70,13
3,73,70,150
3,74,70,3
3,74,70,45
3,73,60,50
3,71,70,18
3,69,70,8
3,74,70,23
3,78,67,0
3,81,70,15
3,78,70,283
3,72,70,0
3,81,70,110
3,79,70,373
3,74,70,10
3,81,70,130
3,79,70,140
3,76,70,3
3,80,65,155
3,83,70,3
3,88,65,165
3,92,70,188
3,81,70,7590
3,85,70,35
3,86,65,120
3,88,70,98
3,86,70,40
3,90,70,0
3,81,70,0
3,71,70,15480
3,79,70,0
3,67,70,0
3,83,70,0
3,76,70,555
3,81,50,0
3,73,60,0
3,71,67,13
3,78,70,0
3,74,70,0
3,74,50,3233
3,81,48,0
3,81,70,130
3,74,70,0
3,81,70,83
3,74,70,0
3,81,70,88
3,74,70,0
3,81,70,85
3,74,70,0
3,81,70,98
3,74,70,0
3,81,70,93
3,74,70,0
3,73,70,78
3,81,70,0
3,76,70,0
3,81,70,40
3,88,70,0
3,85,70,0
3,81,70,203
3,88,70,0
3,85,70,0
3,88,70,155
3,81,70,0
3,85,70,0
3,79,70,2013
3,86,70,0
3,86,70,210
3,81,70,0
3,81,70,10
3,85,70,0
3,78,70,10
3,76,70,5
3,74,70,13
3,73,70,150
3,74,70,3
3,74,70,45
3,73,60,50
3,71,70,18
3,69,70,8
3,74,70,23
3,78,67,0
3,81,70,15
3,78,70,283
3,72,70,0
3,81,70,110
3,79,70,373
3,74,70,10
3,81,70,130
3,79,70,140
3,76,70,3
3,80,65,155
3,83,70,3
3,88,65,165
3,92,70,188
3,90,70,8310
3,86,70,0
3,85,67,45
3,88,70,0
3,90,60,0
3,86,70,0
3,86,70,38
3,85,45,240
3,83,48,233
3,81,48,228
3,79,50,235
3,78,43,0
3,76,41,240
3,73,37,203
3,62,70,70
3,69,70,240
3,74,70,230
3,73,70,0
3,66,70,0
3,66,70,28
3,83,70,10
3,79,70,0
3,83,70,50
3,79,70,0
3,86,70,58
3,91,70,160
3,86,45,3
3,81,60,0
3,78,44,0
3,102,33,240
3,98,38,240
3,93,20,240
4,62,76,793
4,50,76,0
4,66,68,48
4,69,76,65
4,66,71,68
4,62,76,100
4,42,76,0
4,66,45,70
4,69,71,120
4,66,73,90
4,43,76,115
4,62,76,0
4,67,61,50
4,69,76,85
4,67,76,60
4,57,76,30
4,62,76,0
4,64,59,58
4,69,73,8
4,64,51,25
4,61,51,3
4,69,50,0
4,64,59,0
4,57,73,0
4,62,76,120
4,50,73,0
4,66,40,45
4,69,76,40
4,66,45,60
