track,note,velocity,time
1,36,96,8667
1,42,82,0
1,49,50,0
1,42,82,115
1,37,80,0
1,36,96,225
1,42,82,0
1,36,96,90
1,42,82,0
1,42,82,248
1,42,82,4
1,37,80,0
1,46,82,363
1,36,96,169
1,42,82,0
1,42,82,518
1,37,80,0
1,36,96,162
1,42,82,0
1,36,96,39
1,42,82,0
1,36,96,157
1,42,82,173
1,37,80,0
1,42,82,219
1,36,96,110
1,42,82,0
1,42,82,367
1,37,80,0
1,36,96,100
1,46,82,0
1,36,96,113
1,42,82,0
1,42,82,15
1,37,80,0
1,42,82,106
1,36,96,123
1,42,82,0
1,42,82,345
1,37,80,0
1,36,96,170
1,42,82,0
1,36,96,25
1,42,82,0
1,49,50,0
1,42,82,172
1,42,82,126
1,37,80,0
1,46,82,24
1,36,96,92
1,42,82,0
1,49,50,24
1,42,82,294
1,37,80,0
1,36,96,192
1,42,82,0
1,36,96,6
1,42,82,0
1,42,82,324
1,37,80,0
1,42,82,164
1,36,96,132
1,42,82,0
1,42,82,375
1,37,80,0
1,36,96,169
1,46,82,0
1,36,96,98
1,42,82,0
1,36,96,147
1,42,82,303
1,37,80,0
1,42,82,205
1,36,96,117
1,42,82,0
1,49,50,18
1,42,82,263
1,37,80,0
1,36,96,170
1,42,82,0
1,36,96,112
1,42,82,0
1,42,82,139
1,42,82,180
1,37,80,0
1,36,96,304
1,42,82,0
1,42,82,259
1,37,80,0
1,36,96,207
1,42,82,0
1,36,96,23
1,42,82,0
1,42,82,37
1,42,82,122
1,37,80,0
1,46,82,31
1,36,96,71
1,42,82,0
1,42,82,331
1,37,80,0
1,36,96,162
1,36,96,118
1,42,82,0
1,42,82,221
1,37,80,0
1,42,82,183
1,36,96,132
1,42,82,0
1,42,82,224
1,37,80,0
1,36,96,265
1,46,82,0
1,36,96,105
1,42,82,0
1,42,82,84
1,42,82,548
1,37,80,0
1,42,82,167
1,36,96,162
1,42,82,0
1,42,82,359
1,37,80,0
1,36,96,224
1,36,96,107
1,42,82,0
1,42,82,189
1,42,82,131
1,37,80,0
1,46,82,187
1,36,96,18
1,42,82,0
1,42,82,523
1,37,80,0
1,36,96,166
1,42,82,0
1,36,96,118
1,42,82,0
1,36,96,26
1,42,82,417
1,37,80,0
1,42,82,143
1,36,96,137
1,42,82,0
1,42,82,444
1,37,80,0
1,36,96,164
1,42,82,0
1,36,96,105
1,42,82,0
1,42,82,384
1,42,82,143
1,37,80,0
1,46,82,156
1,36,96,43
1,42,82,0
1,42,82,522
1,37,80,0
1,36,96,261
1,42,82,0
1,36,96,117
1,42,82,0
1,42,82,137
1,42,82,170
1,42,82,166
1,37,80,0
1,46,82,109
1,36,96,85
1,42,82,0
1,42,82,385
1,37,80,0
1,36,96,174
1,42,82,0
1,36,96,114
1,42,82,0
1,42,82,21
1,42,82,496
1,37,80,0
1,42,82,282
1,36,96,53
1,42,82,0
1,42,82,335
1,37,80,0
1,36,96,224
1,46,82,0
1,36,96,1
1,42,82,0
1,50,90,192
1,48,90,126
1,42,82,279
1,50,90,192
1,50,90,134
1,48,90,66
1,36,96,68
1,42,82,0
1,49,50,19
1,42,82,115
1,37,80,0
1,61,70,116
1,62,70,33
1,36,96,7
1,42,82,0
1,36,96,90
1,42,82,0
1,75,50,192
1,75,50,56
1,42,82,13
1,42,82,4
1,37,80,0
1,46,82,363
1,36,96,169
1,42,82,0
1,61,70,183
1,62,70,96
1,42,82,217
1,37,80,0
1,36,96,162
1,42,82,0
1,36,96,39
1,42,82,0
1,36,96,157
1,75,50,0
1,75,50,97
1,42,82,30
1,37,80,0
1,42,82,219
1,36,96,110
1,42,82,0
1,61,70,192
1,62,70,114
1,42,82,307
1,37,80,0
1,36,96,100
1,46,82,0
1,36,96,113
1,42,82,0
1,75,50,83
1,75,50,109
1,42,82,15
1,37,80,0
1,42,82,106
1,36,96,123
1,42,82,0
1,62,70,192
1,61,70,116
1,42,82,316
1,37,80,0
1,36,96,170
1,42,82,0
1,36,96,25
1,42,82,0
1,75,50,83
1,42,82,172
1,75,50,0
1,42,82,30
1,37,80,0
1,46,82,24
1,36,96,92
1,42,82,0
1,61,70,383
1,61,70,110
1,42,82,115
1,37,80,0
1,61,70,0
1,62,70,126
1,36,96,150
1,42,82,0
1,36,96,90
1,42,82,0
1,75,50,192
1,75,50,56
1,42,82,13
1,42,82,4
1,37,80,0
1,46,82,363
1,36,96,169
1,42,82,0
1,62,70,183
1,61,70,127
1,42,82,307
1,37,80,0
1,36,96,162
1,42,82,0
1,36,96,39
1,42,82,0
1,36,96,157
1,75,50,0
1,75,50,97
1,42,82,30
1,37,80,0
1,61,70,192
1,62,70,27
1,42,82,149
1,62,70,0
1,49,50,74
1,36,96,4
1,42,82,0
1,42,82,140
1,37,80,0
1,36,96,100
1,46,82,0
1,36,96,113
1,42,82,0
1,61,70,83
1,75,50,0
1,62,70,109
1,75,50,0
1,42,82,15
1,37,80,0
1,42,82,106
1,36,96,123
1,42,82,0
1,42,82,345
1,37,80,0
1,62,70,31
1,61,70,128
1,36,96,133
1,42,82,0
1,36,96,25
1,42,82,0
1,75,50,83
1,42,82,172
1,75,50,0
1,42,82,30
1,37,80,0
1,46,82,24
1,36,96,92
1,42,82,0
1,61,70,191
1,61,70,114
1,61,70,110
1,42,82,115
1,37,80,0
1,61,70,0
1,62,70,169
1,36,96,139
1,42,82,0
1,36,96,90
1,42,82,0
1,75,50,192
1,75,50,56
1,42,82,13
1,42,82,4
1,37,80,0
1,37,80,0
1,62,70,0
1,61,70,133
1,46,82,96
1,36,96,192
1,42,82,0
1,49,50,12
1,49,50,118
1,42,82,171
1,37,80,0
1,36,96,162
1,42,82,0
1,36,96,39
1,42,82,0
1,36,96,157
1,75,50,0
1,75,50,97
1,42,82,30
1,37,80,0
1,42,82,219
1,36,96,110
1,42,82,0
1,62,70,192
1,61,70,119
1,62,70,132
1,42,82,87
1,37,80,0
1,61,70,0
1,36,96,100
1,46,82,0
1,42,82,113
1,86,24,10
1,42,82,508
1,42,82,190
1,42,82,123
1,49,50,7
1,42,82,332
1,42,82,170
1,36,96,0
1,42,82,0
1,42,82,115
1,37,80,0
1,36,96,225
1,42,82,0
1,36,96,90
1,42,82,0
1,62,70,192
1,61,70,56
1,42,82,147
1,42,82,4
1,37,80,0
1,46,82,363
1,36,96,169
1,42,82,0
1,42,82,518
1,37,80,0
1,36,96,162
1,42,82,0
1,36,96,39
1,42,82,0
1,36,96,157
1,61,70,0
1,75,50,0
1,62,70,105
1,42,82,173
1,37,80,0
1,61,70,192
1,62,70,27
1,42,82,69
1,36,96,110
1,42,82,0
1,42,82,367
1,37,80,0
1,36,96,100
1,46,82,0
1,36,96,113
1,42,82,0
1,61,70,0
1,62,70,83
1,61,70,116
1,42,82,15
1,37,80,0
1,42,82,106
1,36,96,123
1,42,82,0
1,42,82,345
1,37,80,0
1,61,70,31
1,36,96,170
1,42,82,0
1,61,70,0
1,36,96,25
1,42,82,0
1,61,70,0
1,75,50,109
1,42,82,115
1,37,80,0
1,49,50,7
1,36,96,13
1,42,82,0
1,36,96,90
1,42,82,0
1,49,50,7
1,62,70,185
1,61,70,56
1,42,82,77
1,42,82,4
1,37,80,0
1,46,82,363
1,36,96,169
1,42,82,0
1,42,82,518
1,37,80,0
1,36,96,162
1,42,82,0
1,36,96,39
1,42,82,0
1,61,70,0
1,36,96,126
1,62,70,0
1,61,70,90
1,42,82,173
1,37,80,0
1,42,82,219
1,36,96,110
1,42,82,0
1,75,50,192
1,42,82,367
1,37,80,0
1,36,96,100
1,46,82,0
1,36,96,113
1,42,82,0
1,61,70,0
1,62,70,83
1,61,70,92
1,42,82,15
1,37,80,0
1,42,82,106
1,36,96,123
1,42,82,0
1,42,82,345
1,37,80,0
1,36,96,170
1,42,82,0
1,36,96,25
1,42,82,0
1,61,70,0
1,62,70,124
1,61,70,110
1,42,82,115
1,37,80,0
1,36,96,225
1,42,82,0
1,36,96,90
1,42,82,0
1,49,50,7
1,75,50,185
1,50,90,0
1,48,90,56
1,42,82,43
1,42,82,4
1,37,80,0
1,48,90,0
1,49,50,7
1,48,90,94
1,47,90,106
1,46,82,37
1,47,90,0
1,36,96,54
1,42,82,0
1,49,50,7
1,42,82,260
1,37,80,0
1,36,96,162
1,42,82,0
1,36,96,39
1,42,82,0
1,36,96,157
1,75,50,0
1,75,50,109
1,42,82,173
1,37,80,0
1,42,82,219
1,36,96,110
1,42,82,0
1,61,70,0
1,62,70,118
1,61,70,101
1,42,82,241
1,37,80,0
1,36,96,100
1,46,82,0
1,36,96,113
1,42,82,0
1,75,50,83
1,75,50,198
1,42,82,15
1,37,80,0
1,42,82,106
1,36,96,123
1,42,82,0
1,61,70,192
1,62,70,104
1,62,70,110
1,42,82,127
1,37,80,0
1,36,96,170
1,42,82,0
1,36,96,25
1,42,82,0
1,75,50,192
1,75,50,109
1,42,82,115
1,37,80,0
1,36,96,225
1,42,82,0
1,36,96,90
1,42,82,0
1,61,70,0
1,62,70,132
1,61,70,56
1,42,82,66
1,42,82,4
1,37,80,0
1,46,82,363
1,36,96,169
1,42,82,0
1,75,50,183
1,75,50,198
1,42,82,30
1,37,80,0
1,36,96,162
1,42,82,0
1,36,96,39
1,42,82,0
1,61,70,0
1,36,96,114
1,62,70,0
1,61,70,103
1,42,82,173
1,37,80,0
1,42,82,219
1,36,96,110
1,42,82,0
1,75,50,192
1,75,50,109
1,42,82,205
1,37,80,0
1,36,96,100
1,46,82,0
1,36,96,113
1,42,82,0
1,61,70,0
1,62,70,83
1,61,70,100
1,42,82,15
1,37,80,0
1,42,82,106
1,36,96,123
1,42,82,0
1,75,50,192
1,75,50,153
1,42,82,30
1,37,80,0
1,36,96,170
1,42,82,0
1,36,96,25
1,42,82,0
1,61,70,192
1,61,70,109
1,61,70,108
1,42,82,115
1,37,80,0
1,61,70,0
1,62,70,101
1,36,96,166
1,42,82,0
1,36,96,90
1,42,82,0
1,75,50,192
1,75,50,56
1,42,82,13
1,42,82,4
1,37,80,0
1,46,82,363
1,36,96,169
1,42,82,0
1,42,82,518
1,37,80,0
1,36,96,162
1,42,82,0
1,36,96,39
1,42,82,0
1,61,70,0
1,36,96,125
1,62,70,0
1,75,50,0
1,61,70,6
1,75,50,87
1,42,82,30
1,37,80,0
1,42,82,219
1,36,96,110
1,42,82,0
1,42,82,367
1,37,80,0
1,36,96,100
1,46,82,0
1,36,96,113
1,42,82,0
1,61,70,83
1,75,50,0
1,62,70,109
1,75,50,0
1,62,70,13
1,42,82,15
1,37,80,0
1,37,80,0
1,42,82,190
1,36,96,123
1,42,82,0
1,42,82,345
1,37,80,0
1,36,96,170
1,42,82,0
1,36,96,25
1,42,82,0
1,50,90,5
1,48,90,3
1,48,90,93
1,50,90,5
1,42,82,146
1,48,90,11
1,47,90,107
1,36,96,170
1,42,82,0
1,36,96,96
1,42,82,0
1,49,50,7
1,42,82,86
1,37,80,0
1,36,96,225
1,42,82,0
1,36,96,90
1,42,82,0
1,61,70,0
1,62,70,132
1,61,70,56
1,42,82,89
1,42,82,4
1,37,80,0
1,46,82,363
1,36,96,169
1,42,82,0
1,42,82,518
1,37,80,0
1,36,96,162
1,42,82,0
1,36,96,39
1,42,82,0
1,61,70,0
1,36,96,124
1,62,70,0
1,75,50,0
1,61,70,87
1,42,82,173
1,37,80,0
1,62,70,192
1,62,70,27
1,42,82,137
1,62,70,0
1,49,50,7
1,36,96,81
1,42,82,0
1,49,50,7
1,42,82,78
1,37,80,0
1,36,96,100
1,46,82,0
1,36,96,113
1,42,82,0
1,42,82,15
1,37,80,0
1,61,70,0
1,62,70,117
1,61,70,94
1,42,82,3
1,36,96,123
1,42,82,0
1,42,82,345
1,37,80,0
1,61,70,31
1,61,70,127
1,36,96,154
1,42,82,0
1,61,70,0
1,36,96,25
1,42,82,0
1,50,90,0
1,49,50,7
1,62,70,56
1,50,90,49
1,62,70,103
1,50,90,134
1,61,70,14
1,42,82,98
1,61,70,0
1,48,90,28
1,48,90,63
1,47,90,90
1,61,70,31
1,45,90,27
1,36,96,122
1,42,82,0
1,36,96,50
1,42,82,0
1,49,52,0
1,42,82,115
1,37,80,0
1,36,96,225
1,42,82,0
1,36,96,90
1,42,82,0
1,61,70,0
1,62,70,141
1,75,50,0
1,61,70,56
1,75,50,0
1,42,82,13
1,42,82,4
1,37,80,0
1,46,82,363
1,36,96,169
1,42,82,0
1,42,82,518
1,37,80,0
1,36,96,162
1,42,82,0
1,36,96,39
1,42,82,0
1,61,70,0
1,36,96,129
1,62,70,0
1,75,50,0
1,61,70,6
1,75,50,97
1,42,82,30
1,37,80,0
1,61,70,192
1,61,70,27
1,42,82,117
1,61,70,0
1,36,96,110
1,42,82,0
1,61,70,143
1,62,70,140
1,42,82,306
1,37,80,0
1,36,96,100
1,46,82,0
1,36,96,113
1,42,82,0
1,61,70,83
1,75,50,0
1,75,50,109
1,61,70,13
1,42,82,15
1,37,80,0
1,62,70,33
1,42,82,106
1,36,96,123
1,42,82,0
1,42,82,345
1,37,80,0
1,36,96,170
1,42,82,0
1,36,96,25
1,42,82,0
1,61,70,0
1,62,70,83
1,75,50,0
1,61,70,6
1,42,82,28
1,75,50,0
1,42,82,30
1,37,80,0
1,46,82,24
1,36,96,92
1,42,82,0
1,61,70,0
1,62,70,104
1,61,70,116
1,42,82,115
1,37,80,0
1,36,96,225
1,42,82,0
1,36,96,90
1,42,82,0
1,75,50,192
1,75,50,56
1,42,82,13
1,42,82,4
1,37,80,0
1,46,82,363
1,36,96,169
1,42,82,0
1,61,70,0
1,49,50,7
1,62,70,132
1,61,70,95
1,42,82,241
1,37,80,0
1,36,96,162
1,42,82,0
1,36,96,39
1,42,82,0
1,49,50,7
1,36,96,157
1,61,70,0
1,75,50,0
1,62,70,6
1,62,70,97
1,75,50,0
1,42,82,30
1,37,80,0
1,62,70,0
1,61,70,36
1,42,82,219
1,36,96,110
1,42,82,0
1,42,82,367
1,37,80,0
1,36,96,100
1,46,82,0
1,36,96,113
1,42,82,0
1,61,70,0
1,62,70,83
1,75,50,0
1,61,70,109
1,75,50,0
1,42,82,15
1,37,80,0
1,42,82,106
1,36,96,123
1,42,82,0
1,42,82,345
1,37,80,0
1,36,96,170
1,42,82,0
1,36,96,25
1,42,82,0
1,61,70,83
1,75,50,0
1,61,70,6
1,42,82,97
1,75,50,0
1,42,82,30
1,37,80,0
1,46,82,24
1,36,96,92
1,42,82,0
1,61,70,0
1,49,50,6
1,62,70,142
1,61,70,126
1,42,82,61
1,37,80,0
1,36,96,225
1,42,82,0
1,36,96,90
1,42,82,0
1,50,90,0
1,50,90,109
1,50,90,53
1,50,90,56
1,42,82,30
1,48,90,0
1,42,82,4
1,37,80,0
1,48,90,0
1,48,90,136
1,48,90,53
1,48,90,63
1,47,90,18
1,46,82,50
1,45,90,0
1,36,96,96
1,42,82,0
1,49,50,7
1,42,82,177
1,37,80,0
1,36,96,162
1,42,82,0
1,36,96,39
1,42,82,0
1,75,50,192
1,75,50,109
1,42,82,115
1,37,80,0
1,36,96,225
1,42,82,0
1,36,96,90
1,42,82,0
1,61,70,0
1,62,70,99
1,61,70,56
1,42,82,61
1,42,82,4
1,37,80,0
1,46,82,363
1,36,96,169
1,42,82,0
1,75,50,183
1,75,50,198
1,42,82,30
1,37,80,0
1,36,96,162
1,42,82,0
1,36,96,39
1,42,82,0
1,61,70,0
1,36,96,117
1,62,70,0
1,61,70,104
1,42,82,173
1,37,80,0
1,42,82,219
1,36,96,110
1,42,82,0
1,75,50,192
1,75,50,109
1,42,82,205
1,37,80,0
1,36,96,100
1,46,82,0
1,36,96,113
1,42,82,0
1,61,70,0
1,62,70,83
1,61,70,112
1,42,82,15
1,37,80,0
1,42,82,106
1,36,96,123
1,42,82,0
1,75,50,192
1,75,50,153
1,42,82,30
1,37,80,0
1,36,96,170
1,42,82,0
1,36,96,25
1,42,82,0
1,61,70,0
