track,note,velocity,time
1,67,107,15364
1,70,95,188
1,72,107,192
1,70,98,188
1,72,113,192
1,63,98,188
1,63,87,192
1,65,110,284
1,67,93,476
1,70,90,188
1,72,113,192
1,79,93,380
1,70,93,0
1,68,116,288
1,77,116,0
1,68,87,476
1,77,87,0
1,66,113,284
1,75,113,0
1,67,104,476
1,70,93,188
1,72,110,192
1,70,87,188
1,72,104,192
1,63,98,188
1,63,90,192
1,65,110,284
1,67,93,476
1,70,84,188
1,72,107,192
1,70,52,284
1,79,95,476
1,70,95,0
1,68,107,284
1,77,107,0
1,68,98,476
1,77,98,0
1,66,110,284
1,75,110,0
1,70,78,380
1,75,113,92
1,70,87,188
1,68,113,92
1,70,90,188
1,75,107,188
1,70,107,188
1,75,101,188
1,79,104,188
1,79,93,188
1,80,98,188
1,77,116,188
1,70,78,188
1,82,101,192
1,80,66,188
1,80,110,92
1,79,93,188
1,79,110,188
1,77,101,188
1,77,116,188
1,75,93,188
1,79,104,188
1,75,116,284
1,74,69,284
1,75,107,96
1,74,78,188
1,72,93,92
1,74,104,188
1,75,113,188
1,75,78,284
1,78,104,96
1,75,78,188
1,74,95,92
1,75,101,188
1,77,110,188
1,83,93,188
1,79,93,0
1,83,93,192
1,79,93,0
1,74,107,284
1,79,107,0
1,74,78,284
1,72,113,188
1,71,87,188
1,72,110,192
1,72,78,380
1,74,101,188
1,76,69,188
1,74,98,92
1,74,116,188
1,79,81,476
1,83,81,0
1,74,110,284
1,79,110,0
1,74,87,284
1,72,110,188
1,71,87,188
1,72,101,192
1,71,93,380
1,67,90,380
1,69,110,284
1,83,101,284
1,79,101,0
1,79,84,188
1,83,84,0
1,74,101,284
1,79,101,0
1,74,81,284
1,72,116,188
1,71,93,188
1,72,93,192
1,71,55,284
1,72,93,92
1,74,72,188
1,76,58,188
1,74,113,92
1,74,87,188
1,74,104,92
1,71,93,192
1,72,107,188
1,74,90,380
1,75,90,380
1,77,95,284
1,79,113,284
1,84,101,42044
1,81,101,0
1,83,72,192
1,79,72,0
1,74,101,284
1,79,101,0
1,81,75,284
1,84,75,0
1,79,87,188
1,83,87,0
1,79,110,284
1,74,110,0
1,84,107,1340
1,81,107,0
1,83,72,192
1,79,72,0
1,74,98,284
1,79,98,0
1,74,81,284
1,72,107,188
1,71,81,188
1,72,101,192
1,71,75,284
1,72,90,92
1,74,95,188
1,76,69,188
1,74,87,92
1,74,107,188
1,71,81,284
1,72,116,188
1,74,101,380
1,75,87,380
1,77,116,284
1,79,104,284
1,72,93,956
1,72,93,380
1,70,72,284
1,70,90,92
1,82,75,96
1,80,95,92
1,79,81,188
1,77,116,188
1,79,95,284
1,72,95,0
1,79,95,0
1,84,90,380
1,72,90,0
1,73,113,284
1,82,113,0
1,79,90,476
1,77,78,192
1,79,90,92
1,75,98,92
1,72,78,380
1,79,78,0
1,70,84,572
1,79,98,192
1,84,87,380
1,82,98,284
1,84,78,188
1,82,87,96
1,80,98,188
1,79,93,188
1,77,113,188
1,72,110,188
1,74,84,384
1,75,110,188
1,77,95,380
1,79,110,380
1,77,93,380
1,79,90,380
1,81,113,284
1,81,84,4604
1,72,84,0
1,70,104,288
1,79,104,0
1,70,87,476
1,79,87,0
1,68,113,284
1,77,113,0
1,69,98,476
1,72,81,188
1,74,113,192
1,72,84,188
1,74,110,192
1,65,81,188
1,65,95,192
1,67,113,284
1,69,107,476
1,72,75,188
1,70,98,192
1,72,104,380
1,81,104,0
1,70,90,288
1,79,90,0
1,72,78,284
1,81,78,0
1,72,110,188
1,81,110,0
1,70,75,284
1,79,75,0
1,85,98,188
1,81,98,0
1,85,110,192
1,81,110,0
1,76,101,284
1,81,101,0
1,76,93,284
1,74,110,188
1,73,98,188
1,74,110,192
1,74,84,380
1,76,101,188
1,78,90,188
1,76,75,92
1,76,116,188
1,85,110,476
1,81,110,0
1,76,101,284
1,81,101,0
1,76,93,284
1,74,110,188
1,73,98,188
1,74,107,192
1,73,93,380
1,69,95,380
1,71,104,284
1,85,107,284
1,81,107,0
1,85,110,188
1,81,110,0
1,76,101,284
1,81,101,0
1,76,93,284
1,74,110,188
1,73,98,188
1,74,110,192
1,73,78,284
1,74,87,92
1,76,104,188
1,78,78,188
1,76,95,92
1,76,113,188
1,73,87,284
1,74,116,188
1,76,104,380
1,78,110,380
1,80,84,380
1,86,104,188
1,83,104,0
1,76,104,0
1,85,104,188
1,81,104,0
1,81,107,284
1,76,107,0
1,86,90,284
1,83,90,0
1,85,113,188
1,81,113,0
1,76,110,284
1,81,110,0
1,83,93,284
1,86,93,0
1,85,107,188
1,81,107,0
1,81,84,284
1,76,84,0
1,86,84,668
1,83,84,0
1,85,104,380
1,81,104,0
1,81,107,288
1,76,107,0
1,86,90,284
1,83,90,0
1,85,113,188
1,81,113,0
1,76,110,284
1,81,110,0
1,83,93,284
1,86,93,0
1,85,107,188
1,81,107,0
1,81,84,284
1,76,84,0
1,86,95,572
1,83,95,0
1,85,104,380
1,81,104,0
1,81,107,288
1,76,107,0
1,86,90,284
1,83,90,0
1,85,113,188
1,81,113,0
1,76,110,284
1,81,110,0
1,83,93,284
1,86,93,0
1,85,107,188
1,81,107,0
1,81,84,284
1,76,84,0
1,86,84,668
1,83,84,0
1,86,95,1724
1,83,95,0
1,85,104,192
1,81,104,0
1,81,107,284
1,76,107,0
1,86,90,284
1,83,90,0
1,85,113,188
1,81,113,0
1,76,110,284
1,81,110,0
1,83,93,284
1,86,93,0
1,85,107,188
1,81,107,0
1,81,84,284
1,76,84,0
1,86,84,668
1,83,84,0
1,85,104,380
1,81,104,0
1,81,107,288
1,76,107,0
1,86,90,284
1,83,90,0
1,85,113,188
1,81,113,0
1,76,110,284
1,81,110,0
1,83,93,284
1,86,93,0
1,85,107,188
1,81,107,0
1,81,84,284
1,76,84,0
1,86,95,572
1,83,95,0
1,85,104,380
1,81,104,0
1,81,107,288
1,76,107,0
1,86,90,284
1,83,90,0
1,85,113,188
1,81,113,0
1,76,110,284
1,81,110,0
1,83,93,284
1,86,93,0
1,85,107,188
1,81,107,0
1,81,84,284
1,76,84,0
1,86,84,668
1,83,84,0
1,86,95,1724
1,83,95,0
1,85,104,192
1,81,104,0
1,81,107,284
1,76,107,0
1,86,90,284
1,83,90,0
1,85,113,188
1,81,113,0
1,76,110,284
1,81,110,0
1,83,93,284
1,86,93,0
1,85,107,188
1,81,107,0
1,81,84,284
1,76,84,0
1,86,84,668
1,83,84,0
1,85,104,380
1,81,104,0
1,81,107,288
1,76,107,0
1,86,90,284
1,83,90,0
1,85,113,188
1,81,113,0
1,76,110,284
1,81,110,0
1,83,93,284
1,86,93,0
1,85,107,188
1,81,107,0
1,81,84,284
1,76,84,0
1,86,95,572
1,83,95,0
1,85,104,380
1,81,104,0
1,81,107,288
1,76,107,0
1,86,90,284
1,83,90,0
1,85,113,188
1,81,113,0
1,76,110,284
1,81,110,0
1,83,93,284
1,86,93,0
1,85,107,188
1,81,107,0
1,81,84,284
1,76,84,0
1,86,84,668
1,83,84,0
1,86,95,1724
1,83,95,0
1,85,107,192
1,81,107,0
1,81,90,284
1,76,90,0
2,39,110,3072
2,43,81,192
2,44,101,0
2,43,75,192
2,41,101,0
2,42,36,264
2,43,47,0
2,44,58,0
2,45,69,0
2,46,69,0
2,47,80,0
2,48,104,0
2,46,84,0
2,39,101,0
2,43,66,192
2,44,104,0
2,43,72,192
2,41,107,0
2,36,98,384
2,34,84,0
2,39,110,0
2,43,81,192
2,44,101,0
2,43,75,192
2,41,101,0
2,42,36,264
2,43,47,0
2,44,58,0
2,45,69,0
2,46,69,0
2,47,80,0
2,48,104,0
2,46,84,0
2,39,101,0
2,43,66,192
2,44,104,0
2,43,72,192
2,41,107,0
2,48,69,384
2,36,69,0
2,46,93,0
2,34,93,0
3,39,101,15360
3,39,87,96
3,43,110,0
3,44,113,0
3,43,93,192
3,41,107,0
3,46,95,384
3,44,90,0
3,39,101,0
3,39,84,96
3,43,104,0
3,44,113,0
3,43,95,192
3,34,87,1248
3,38,104,0
3,39,101,0
3,39,87,96
3,43,110,0
3,44,113,0
3,43,93,192
3,41,107,0
3,46,95,384
3,44,90,0
3,39,101,0
3,39,84,96
3,43,104,0
3,44,113,0
3,43,95,192
3,43,87,1440
3,44,95,0
3,44,75,0
3,44,98,0
3,46,69,0
3,46,101,0
3,46,81,0
3,46,104,0
3,46,81,0
3,39,101,0
3,39,93,0
3,39,101,0
3,44,84,0
3,44,104,0
3,44,101,0
3,44,113,0
3,36,84,0
3,36,113,0
3,36,87,0
3,36,116,0
3,36,87,0
3,38,113,0
3,38,93,0
3,38,107,0
3,43,110,384
3,43,87,192
3,41,107,0
3,53,90,0
3,48,72,0
3,43,93,0
3,45,113,0
3,47,75,192
3,48,95,0
3,50,107,0
3,43,110,0
3,43,87,192
3,41,107,0
3,53,90,0
3,48,72,0
3,43,93,0
3,45,113,0
3,47,75,0
3,48,95,0
3,50,107,0
3,50,98,0
3,43,110,0
3,43,87,192
3,41,107,0
3,53,90,0
3,48,72,0
3,43,93,0
3,45,113,0
3,47,75,192
3,48,95,0
3,50,107,0
3,44,104,0
3,46,95,0
3,48,78,0
3,50,113,0
3,50,93,0
3,39,110,0
3,43,81,192
3,44,101,0
3,43,75,192
3,41,101,0
3,42,36,264
3,43,47,0
3,44,58,0
3,45,69,0
3,46,69,0
3,47,80,0
3,48,104,0
3,46,84,0
3,39,101,0
3,43,66,192
3,44,104,0
3,43,72,192
3,41,107,0
3,48,69,384
3,36,69,0
3,46,93,0
3,34,93,0
3,39,101,0
3,39,87,96
3,43,110,0
3,44,113,0
3,43,93,192
3,41,107,0
3,46,95,384
3,44,90,0
3,39,101,0
3,39,84,96
3,43,104,0
3,44,113,0
3,43,95,192
3,34,87,1248
3,38,104,0
3,39,101,0
3,39,87,96
3,43,110,0
3,44,113,0
3,43,93,192
3,41,107,0
3,46,95,384
3,44,90,0
3,39,101,0
3,39,84,96
3,43,104,0
3,44,113,0
3,43,95,192
3,43,87,1440
3,44,95,0
3,44,75,0
3,44,98,0
3,46,69,0
3,46,101,0
3,46,81,0
3,46,104,0
3,46,81,0
3,39,101,0
3,39,93,0
3,39,101,0
3,44,84,0
3,44,104,0
3,44,101,0
3,44,113,0
3,36,84,0
3,36,113,0
3,36,87,0
3,36,116,0
3,36,87,0
3,38,113,0
3,38,93,0
3,38,107,0
3,43,110,384
3,43,87,192
3,41,107,0
3,53,90,0
3,48,72,0
3,43,93,0
3,45,113,0
3,47,75,192
3,48,95,0
3,50,107,0
3,43,110,0
3,43,87,192
3,41,107,0
3,53,90,0
3,48,72,0
3,43,93,0
3,45,113,0
3,47,75,0
3,48,95,0
3,50,107,0
3,50,98,0
3,43,110,0
3,43,87,192
3,41,107,0
3,53,90,0
3,48,72,0
3,43,93,0
3,45,113,0
3,47,75,192
3,48,95,0
3,50,107,0
3,44,104,0
3,46,95,0
3,48,78,0
3,50,113,0
3,45,104,0
3,47,84,0
3,48,95,0
3,50,101,0
3,50,87,0
3,50,104,0
3,43,110,0
3,43,87,192
3,41,107,0
3,53,90,0
3,48,72,0
3,43,93,0
3,45,113,0
3,47,75,192
3,48,95,0
3,50,107,0
3,43,110,0
3,43,87,192
3,41,107,0
3,53,90,0
3,48,72,0
3,43,93,0
3,45,113,0
3,47,75,0
3,48,95,0
3,50,107,0
3,50,98,0
3,43,110,0
3,43,87,192
3,41,107,0
3,53,90,0
3,48,72,0
3,43,93,0
3,45,113,0
3,47,75,192
3,48,95,0
3,50,107,0
3,44,104,0
3,46,95,0
3,48,78,0
3,50,113,0
3,41,116,12288
3,45,104,192
3,46,119,0
3,45,95,192
3,43,116,0
3,48,107,384
3,46,119,0
3,41,116,0
3,45,90,192
3,46,116,0
3,45,104,192
3,36,101,1248
3,40,122,0
3,41,116,0
3,45,104,192
3,46,119,0
3,45,95,192
3,43,116,0
3,48,107,384
3,46,119,0
3,41,116,0
3,45,90,192
3,46,116,0
3,45,104,192
3,45,101,1536
3,45,84,192
3,43,104,0
3,55,110,0
3,50,81,0
3,45,113,0
3,47,113,0
3,49,90,192
3,50,110,0
3,52,101,0
3,45,101,0
3,45,84,192
3,43,104,0
3,55,110,0
3,50,81,0
3,45,113,0
3,47,113,0
3,49,90,0
3,50,110,0
3,52,107,0
3,52,113,0
3,45,101,0
3,45,84,192
3,43,104,0
3,55,110,0
3,50,81,0
3,45,113,0
3,47,113,0
3,49,90,192
3,50,110,0
3,52,101,0
3,36,104,0
3,48,104,0
3,38,78,0
3,50,78,0
3,40,98,0
3,52,98,0
3,38,119,0
3,50,119,0
3,45,101,0
3,45,84,192
3,43,104,0
3,55,110,0
3,50,81,0
3,45,113,0
3,47,113,0
3,49,90,192
3,50,110,0
3,52,101,0
3,45,101,0
3,45,84,192
3,43,104,0
3,55,110,0
3,50,81,0
3,45,113,0
3,47,113,0
3,49,90,0
3,50,110,0
3,52,107,0
3,52,113,0
3,45,101,0
3,45,84,192
3,43,104,0
3,55,110,0
3,50,81,0
3,45,113,0
3,47,113,0
3,49,90,192
3,50,110,0
3,52,101,0
3,47,104,0
3,49,93,0
3,40,98,384
3,52,98,0
3,45,101,0
3,45,84,192
3,43,104,0
3,55,110,0
3,50,81,0
3,45,113,0
3,47,113,0
3,49,90,192
3,50,110,0
3,52,101,0
3,45,101,0
3,45,84,192
3,43,104,0
3,55,110,0
3,50,81,0
3,45,113,0
3,47,113,0
3,49,90,0
3,50,110,0
3,52,107,0
3,52,113,0
3,45,101,0
3,45,84,192
3,43,104,0
3,55,110,0
3,50,81,0
3,45,113,0
3,47,113,0
3,49,90,192
3,50,110,0
3,52,101,0
3,36,104,0
3,48,104,0
3,38,78,0
3,50,78,0
3,40,98,0
3,52,98,0
3,38,119,0
3,50,119,0
3,45,101,0
3,45,84,192
3,43,104,0
3,55,110,0
3,50,81,0
3,45,113,0
3,47,113,0
3,49,90,192
3,50,110,0
3,52,101,0
3,45,101,0
3,45,84,192
3,43,104,0
3,55,110,0
3,50,81,0
3,45,113,0
3,47,113,0
3,49,90,0
3,50,110,0
3,52,107,0
3,52,113,0
3,45,101,0
3,45,84,192
3,43,104,0
3,55,110,0
3,50,81,0
3,45,113,0
3,47,113,0
3,49,90,192
3,50,110,0
3,52,101,0
3,36,104,0
3,48,104,0
3,38,78,0
3,50,78,0
3,40,98,0
3,52,98,0
3,38,119,0
3,50,119,0
4,44,101,98306
4,51,101,0
4,46,93,1440
4,53,93,0
4,44,110,1630
4,51,110,0
4,48,98,1438
4,44,95,1630
4,51,95,0
4,46,101,1438
4,53,101,0
4,36,98,1630
4,48,98,0
4,38,84,1534
4,50,84,0
4,40,98,766
4,52,98,0
5,87,78,3360
5,82,78,0
5,75,78,0
5,63,104,1440
5,75,104,0
5,63,93,96
5,75,93,0
5,63,93,96
5,75,93,0
5,63,107,96
5,75,107,0
5,60,72,0
5,72,72,0
5,58,93,0
5,70,93,0
5,63,101,0
5,75,101,0
5,65,87,0
5,77,87,0
5,67,98,0
5,79,98,0
5,63,75,96
5,75,75,0
5,87,87,96
5,82,87,0
5,75,87,0
5,87,78,2976
5,82,78,0
5,75,78,0
5,63,104,1440
5,75,104,0
5,63,93,96
5,75,93,0
5,63,93,96
5,75,93,0
5,63,107,96
5,75,107,0
5,60,72,0
5,72,72,0
5,58,93,0
5,70,93,0
5,63,101,0
5,75,101,0
5,65,87,0
5,77,87,0
5,67,98,0
5,79,98,0
5,63,75,96
5,75,75,0
5,87,87,96
5,82,87,0
5,75,87,0
5,87,84,288
5,82,84,0
5,77,84,0
5,77,98,96
5,82,98,0
5,87,98,0
5,63,104,36192
5,75,104,0
5,63,93,96
5,75,93,0
5,63,93,96
5,75,93,0
5,63,107,96
5,75,107,0
5,60,72,0
5,72,72,0
5,58,93,0
5,70,93,0
5,63,101,0
5,75,101,0
5,65,87,0
5,77,87,0
5,67,98,0
5,79,98,0
5,63,75,96
5,75,75,0
5,87,87,96
5,82,87,0
5,75,87,0
