track,note,velocity,time
0,76,57,76
0,67,91,4
0,64,91,0
0,79,57,0
0,36,100,8
0,49,64,0
0,36,117,0
0,42,40,4
0,42,65,8
0,79,50,16
0,76,57,0
0,67,91,4
0,64,91,0
0,38,88,16
0,42,90,0
0,54,100,0
0,31,117,0
0,42,40,4
0,67,80,0
0,64,80,0
0,76,57,0
0,79,46,4
0,42,65,8
0,67,90,12
0,64,90,0
0,79,50,4
0,76,57,8
0,36,100,4
0,42,90,0
0,36,117,0
0,69,91,4
0,65,91,0
0,81,52,0
0,77,56,4
0,42,40,4
0,42,65,20
0,79,44,0
0,67,84,4
0,64,84,0
0,76,57,4
0,38,88,12
0,42,90,4
0,54,100,0
0,38,114,0
0,72,57,0
0,76,57,8
0,64,81,8
0,60,81,0
0,40,117,4
0,42,40,0
0,42,65,12
0,71,57,20
0,74,57,0
0,62,89,4
0,59,89,0
0,36,100,8
0,42,90,4
0,43,116,0
0,42,40,4
0,42,65,32
0,74,57,0
0,71,57,4
0,62,88,8
0,59,88,0
0,38,88,16
0,42,90,4
0,54,100,0
0,38,117,0
0,42,40,0
0,76,57,20
0,72,46,12
0,64,78,0
0,60,78,0
0,42,65,12
0,74,57,16
0,71,57,4
0,62,88,8
0,59,88,0
0,36,100,16
0,42,90,4
0,31,117,0
0,42,40,4
0,42,65,12
0,60,78,12
0,57,78,0
0,72,57,8
0,69,52,0
0,38,88,8
0,42,90,4
0,54,100,0
0,31,117,0
0,62,84,12
0,59,84,0
0,74,57,0
0,71,48,0
0,35,117,4
0,42,40,0
0,42,65,16
0,64,90,0
0,60,90,0
0,72,57,0
0,76,57,4
0,36,100,12
0,42,90,4
0,36,117,0
0,67,89,40
0,64,89,4
0,76,57,0
0,79,57,0
0,42,40,4
0,42,65,32
0,38,88,68
0,42,90,0
0,54,100,4
0,40,117,0
0,72,57,0
0,76,57,0
0,64,80,8
0,60,80,0
0,42,40,4
0,42,65,16
0,81,57,0
0,77,52,0
0,36,100,4
0,42,90,0
0,41,117,4
0,69,92,0
0,65,92,0
0,42,40,4
0,42,65,28
0,76,57,40
0,67,90,4
0,64,90,0
0,79,57,0
0,38,88,8
0,42,90,0
0,54,100,0
0,36,117,0
0,42,40,4
0,42,65,8
0,81,48,12
0,84,50,4
0,71,88,0
0,68,88,0
0,36,100,12
0,42,90,0
0,41,117,4
0,81,57,120
0,84,56,4
0,71,84,8
0,68,84,4
0,42,40,4
0,42,65,28
0,38,88,68
0,42,90,0
0,54,100,4
0,36,117,0
0,83,49,0
0,79,56,0
0,71,80,0
0,67,80,0
0,42,40,0
0,42,65,16
0,77,57,8
0,81,50,4
0,69,91,0
0,65,91,0
0,36,100,0
0,42,106,0
0,41,117,4
0,38,52,0
0,76,48,44
0,79,56,4
0,67,89,4
0,64,89,0
0,38,81,4
0,54,100,0
0,36,117,0
0,38,95,16
0,84,64,4
0,93,62,0
0,77,106,4
0,69,87,0
0,65,87,4
0,77,68,0
0,81,50,0
0,36,100,0
0,49,64,0
0,41,117,4
0,72,86,4
0,77,81,0
0,71,92,0
0,68,92,0
0,72,61,4
0,96,72,0
0,42,40,0
0,77,79,0
0,42,65,28
0,72,65,4
0,77,71,60
0,38,88,4
0,42,90,0
0,54,100,0
0,33,117,0
0,72,57,12
0,77,60,4
0,69,72,8
0,65,72,0
0,93,76,0
0,42,40,4
0,72,66,0
0,42,65,16
0,76,106,4
0,67,81,0
0,64,81,4
0,36,100,0
0,42,90,0
0,36,117,0
0,76,57,0
0,79,57,0
0,91,68,0
0,72,86,28
0,76,81,0
0,72,61,4
0,71,81,0
0,66,81,0
0,42,40,4
0,96,76,0
0,76,79,4
0,42,65,28
0,72,65,4
0,76,71,60
0,38,88,4
0,42,90,0
0,54,100,0
0,40,117,0
0,72,58,4
0,76,52,12
0,71,77,24
0,63,77,0
0,41,117,0
0,42,40,4
0,96,60,0
0,72,66,0
0,42,65,16
0,86,64,0
0,98,80,0
0,74,104,0
0,74,57,0
0,77,50,4
0,36,100,0
0,42,90,0
0,43,117,0
0,74,90,0
0,65,90,0
0,71,86,4
0,74,81,0
0,84,64,32
0,72,85,12
0,64,85,0
0,72,44,0
0,96,72,4
0,71,61,4
0,76,47,0
0,42,40,4
0,74,79,4
0,42,65,28
0,71,65,4
0,86,64,32
0,74,87,4
0,65,87,0
0,74,57,4
0,77,57,0
0,98,70,8
0,74,64,4
0,38,88,4
0,42,90,0
0,54,100,0
0,38,117,0
0,71,55,12
0,74,57,0
0,74,87,0
0,65,87,0
0,79,57,0
0,76,57,0
0,42,40,4
0,100,74,0
0,71,69,0
0,42,65,16
0,88,64,0
0,76,101,4
0,36,100,4
0,42,90,0
0,36,117,0
0,72,86,28
0,76,81,0
0,72,57,28
0,72,83,0
0,64,83,0
0,72,61,8
0,42,40,4
0,96,86,8
0,76,79,0
0,42,65,28
0,72,65,4
0,76,71,60
0,38,88,4
0,42,90,0
0,54,100,0
0,31,117,0
0,72,54,8
0,76,57,4
0,42,40,4
0,72,63,0
0,42,65,16
0,77,57,4
0,89,64,4
0,81,57,0
0,77,106,0
0,69,84,0
0,65,84,0
0,36,100,4
0,42,90,0
0,41,117,0
0,93,57,0
0,72,86,8
0,77,81,0
0,96,74,0
0,72,61,4
0,71,87,0
0,68,87,0
0,42,40,4
0,77,79,4
0,42,65,28
0,72,65,4
0,77,71,60
0,38,88,4
0,42,90,0
0,54,100,0
0,33,117,0
0,72,57,12
0,77,60,4
0,69,75,4
0,65,75,0
0,42,40,4
0,93,78,0
0,72,66,0
0,42,65,16
0,67,88,56
0,64,88,0
0,79,53,0
0,76,57,4
0,76,106,0
0,91,74,0
0,36,100,4
0,42,90,0
0,36,117,0
0,88,64,0
0,72,86,24
0,76,81,0
0,71,88,4
0,66,88,0
0,96,82,0
0,72,61,8
0,42,40,4
0,76,79,4
0,42,65,28
0,72,65,8
0,76,71,60
0,38,88,4
0,42,90,0
0,54,100,0
0,40,117,0
0,72,58,4
0,76,52,16
0,71,70,12
0,66,70,0
0,96,88,8
0,42,65,0
0,41,117,0
0,72,66,4
0,74,90,0
0,65,90,0
0,86,64,0
0,74,57,0
0,77,45,4
0,74,104,8
0,36,100,4
0,42,106,0
0,43,117,0
0,98,66,0
0,71,86,24
0,74,81,0
0,88,64,4
0,76,55,4
0,74,86,0
0,65,86,0
0,79,56,0
0,100,78,0
0,71,61,8
0,74,79,4
0,38,60,28
0,71,65,8
0,86,64,36
0,74,87,0
0,65,87,0
0,98,88,0
0,77,53,4
0,74,46,4
0,74,64,8
0,38,97,0
0,54,100,0
0,38,117,0
0,71,55,12
0,74,57,4
0,76,57,8
0,72,83,4
0,64,83,0
0,72,57,0
0,96,94,4
0,36,74,8
0,71,69,20
0,76,101,4
0,36,100,4
0,49,64,0
0,36,117,0
0,84,64,4
0,72,86,32
0,76,81,4
0,42,58,8
0,72,61,0
0,76,79,0
0,72,65,8
0,76,71,64
0,38,88,0
0,42,90,0
0,54,100,0
0,31,117,0
0,72,54,8
0,76,71,60
0,60,52,48
0,42,40,4
0,72,54,0
0,76,49,8
0,42,65,16
0,72,49,12
0,76,57,52
0,60,50,0
0,36,80,8
0,42,90,0
0,36,117,0
0,58,87,28
0,58,52,0
0,42,72,4
0,34,117,4
0,57,68,48
0,38,77,12
0,54,100,0
0,33,117,0
0,57,85,8
0,55,68,0
0,55,85,4
0,31,117,0
0,45,70,4
0,53,69,4
0,36,100,12
0,49,49,0
0,77,83,0
0,41,117,0
0,77,92,0
0,69,68,4
0,69,107,0
0,53,121,0
0,65,95,0
0,77,70,4
0,53,111,0
0,77,91,4
0,42,65,4
0,29,117,4
0,53,68,4
0,38,88,8
0,42,90,0
0,54,100,0
0,76,82,48
0,65,89,4
0,77,85,0
0,69,97,0
0,53,118,0
0,42,65,4
0,29,117,0
0,77,100,4
0,53,69,0
0,77,63,4
0,69,67,0
0,36,100,4
0,42,90,0
0,29,117,0
0,53,69,0
0,42,65,4
0,53,93,0
0,69,62,0
0,65,91,0
0,77,52,0
0,69,86,4
0,29,117,0
0,77,61,0
0,76,73,24
0,53,68,12
0,55,111,8
0,67,86,0
0,70,117,0
0,38,88,4
0,42,90,0
0,54,100,0
0,31,117,0
0,77,91,0
0,57,64,0
0,57,99,4
0,69,89,0
0,42,65,4
0,72,93,0
0,77,81,0
0,33,117,0
0,53,69,0
0,69,107,4
0,65,71,4
0,53,121,0
0,77,83,0
0,36,100,4
0,42,90,0
0,29,117,0
0,77,56,0
0,69,65,0
0,77,91,20
0,53,111,0
0,42,65,8
0,29,117,0
0,81,91,4
0,53,68,4
0,38,88,0
0,42,90,4
0,54,100,0
0,53,115,40
0,69,95,0
0,65,89,4
0,42,65,0
0,77,85,4
0,29,117,0
0,81,91,76
0,53,68,4
0,36,100,4
0,42,90,4
0,29,117,0
0,53,69,0
0,42,65,4
0,53,93,4
0,65,91,0
0,69,86,0
0,77,61,0
0,29,117,4
0,53,68,12
0,70,117,4
0,67,91,4
0,55,111,0
0,38,88,0
0,42,90,4
0,54,100,0
0,31,117,0
0,57,64,24
0,65,71,4
0,42,65,0
0,77,81,0
0,33,117,4
0,79,91,4
0,70,81,0
0,48,69,0
0,48,85,4
0,64,83,4
0,60,79,0
0,67,93,0
0,36,100,0
0,42,90,4
0,72,83,0
0,36,117,0
0,79,82,0
0,72,93,0
0,64,95,0
0,81,100,0
0,67,95,4
0,60,85,0
0,48,89,0
0,42,65,0
0,81,76,4
0,36,117,0
0,72,84,0
0,38,88,4
0,42,90,4
0,54,100,0
0,79,90,104
0,36,59,16
0,42,65,0
0,43,77,0
0,70,78,0
0,31,117,4
0,79,80,0
0,82,101,0
0,65,115,0
0,70,111,4
0,62,3,0
0,46,93,4
0,58,86,0
0,36,100,0
0,38,100,4
0,49,64,0
0,34,117,0
0,82,104,0
0,74,83,8
0,82,48,4
0,74,58,40
0,53,95,12
0,81,91,0
0,65,111,0
0,81,96,4
0,69,121,0
0,60,111,0
0,36,100,4
0,38,100,0
0,49,64,4
0,54,100,0
0,29,117,0
0,72,84,0
0,81,54,0
0,72,66,0
0,79,82,36
0,48,68,4
0,48,85,0
0,70,105,4
0,64,103,0
0,60,93,0
0,79,93,4
0,67,85,0
0,36,100,0
0,42,90,0
0,36,117,4
0,70,69,4
0,81,95,80
0,42,65,4
0,81,86,4
0,72,80,4
0,38,88,4
0,42,90,0
0,54,100,0
0,79,84,72
0,48,68,4
0,52,89,4
0,79,78,4
0,64,100,0
0,42,65,0
0,60,92,0
0,70,82,0
0,67,97,0
0,40,117,0
0,77,91,4
0,53,68,4
0,41,89,0
0,77,106,0
0,36,100,4
0,42,90,0
0,65,111,4
0,41,117,0
0,69,115,0
0,60,81,0
0,69,80,4
0,77,62,0
0,42,80,4
0,69,46,4
0,60,66,28
0,54,100,8
0,60,68,4
0,47,75,8
0,60,103,0
0,36,117,4
0,57,58,12
0,57,64,0
0,57,79,4
0,33,117,8
0,45,70,4
0,53,68,16
0,53,69,4
0,53,121,8
0,77,98,0
0,69,107,4
0,65,95,0
0,36,100,0
0,49,49,0
0,77,83,4
0,29,117,0
0,69,68,0
0,77,70,4
0,53,111,0
0,77,100,4
0,42,65,4
0,29,117,4
0,53,68,4
0,38,88,4
0,42,90,0
0,54,100,0
0,76,82,44
0,65,89,4
0,77,85,4
0,69,97,0
0,53,118,0
0,42,65,0
0,29,117,0
0,53,69,4
0,77,100,4
0,77,63,0
0,69,67,4
0,42,90,4
0,29,117,0
0,36,100,4
0,53,69,0
0,42,65,4
0,53,93,0
0,69,62,4
0,65,91,0
0,77,52,0
0,69,86,0
0,29,117,0
0,77,61,0
0,76,91,4
0,53,68,8
0,55,111,8
0,55,66,0
0,67,86,4
0,70,117,0
0,38,88,0
0,42,90,0
0,54,100,0
0,31,117,4
0,57,62,8
0,77,100,0
0,57,64,4
0,57,99,4
0,69,89,0
0,42,65,4
0,72,93,0
0,77,81,0
0,33,117,0
0,53,74,0
0,53,69,0
0,69,107,4
0,65,71,4
0,53,121,0
0,77,83,4
0,36,100,0
0,42,90,0
0,29,117,0
0,77,56,0
0,69,65,0
0,53,111,0
0,77,91,4
0,42,65,4
0,29,117,4
0,81,98,4
0,53,68,4
0,38,88,8
0,42,90,0
0,54,100,0
0,53,115,44
0,69,95,0
0,65,89,4
0,42,65,4
0,77,85,0
0,29,117,0
0,81,100,84
0,53,68,4
0,36,100,4
0,42,90,0
0,29,117,0
0,60,60,8
0,53,69,0
0,42,65,8
0,65,91,0
0,53,93,0
0,69,86,4
0,77,61,0
0,29,117,0
0,67,74,4
0,48,68,4
0,55,111,8
0,67,91,0
0,70,117,0
0,38,88,4
0,42,90,0
0,54,100,0
0,31,117,4
0,64,60,4
0,48,64,8
0,65,71,4
0,42,65,4
0,33,117,0
0,70,81,4
0,48,69,0
0,60,89,4
0,64,93,0
0,48,85,4
0,79,91,0
0,67,103,0
0,36,100,4
0,42,90,0
0,72,93,0
0,36,117,0
0,79,82,4
0,72,93,0
0,48,64,4
0,64,95,0
0,67,95,0
0,81,100,0
0,60,85,0
0,48,89,4
0,42,65,0
0,81,76,0
0,36,117,4
0,72,84,0
0,38,88,4
0,42,90,0
0,54,100,0
0,43,64,116
0,79,91,4
0,36,59,4
0,42,65,0
0,43,77,0
0,70,78,0
0,31,117,0
0,79,80,4
0,65,58,4
0,58,64,0
0,65,115,8
0,70,111,0
0,62,3,4
0,82,101,0
0,82,104,0
0,46,93,4
0,58,86,0
0,36,100,0
0,38,100,0
0,49,64,0
0,34,117,4
0,74,83,4
0,82,48,0
0,74,58,24
0,48,46,0
0,53,95,36
0,65,111,4
0,57,58,0
0,81,96,0
0,69,121,4
0,60,111,0
0,65,58,0
0,81,100,0
0,36,100,4
0,38,100,0
0,49,64,0
0,54,100,0
0,29,117,4
0,72,84,0
0,81,54,0
0,72,66,4
0,60,68,4
0,79,91,8
0,48,68,0
0,48,85,4
0,70,105,0
0,64,103,0
0,60,93,4
0,79,93,0
0,67,85,0
0,36,100,4
0,42,90,0
0,36,117,0
0,70,69,0
0,81,91,80
0,42,65,4
0,81,86,4
0,72,80,0
0,62,62,0
0,38,88,0
0,42,90,0
0,54,100,0
0,64,56,68
0,79,91,0
0,48,68,4
0,52,89,4
0,64,111,0
0,42,65,4
0,60,93,0
0,79,78,0
0,67,108,0
0,70,82,0
0,40,100,0
0,65,66,4
0,77,100,4
0,53,68,0
0,41,89,4
0,77,106,4
0,36,100,4
0,42,103,0
0,65,111,0
0,41,117,0
0,69,115,4
0,60,81,0
0,69,80,4
0,77,62,0
0,38,52,8
0,69,46,4
0,38,81,16
0,54,100,0
0,36,117,0
0,53,64,4
0,45,70,16
0,77,78,4
0,81,65,0
0,79,85,8
0,82,52,16
0,53,69,0
0,81,101,0
0,60,60,4
0,53,60,0
0,36,100,4
0,49,49,0
0,41,117,0
0,81,98,0
0,69,72,4
0,77,100,0
0,77,98,0
0,77,88,0
0,69,64,4
0,77,67,4
0,53,68,0
0,42,65,8
0,41,117,4
0,81,95,0
0,77,91,0
0,77,95,0
0,81,91,4
0,69,67,0
0,69,76,0
0,38,88,4
0,42,90,0
0,54,100,0
0,77,67,0
0,77,84,0
0,77,75,0
0,81,70,0
0,81,56,4
0,77,49,8
0,53,68,4
0,42,65,4
0,41,117,0
0,77,66,0
0,77,66,8
0,69,54,4
0,81,75,4
0,81,95,0
0,77,95,0
0,69,80,0
0,53,68,0
0,77,80,0
0,77,83,4
0,81,104,0
0,77,67,4
0,36,100,4
0,42,90,0
0,69,67,4
0,82,91,12
0,79,91,4
0,79,62,4
0,70,67,0
0,79,96,0
0,53,68,0
0,42,65,8
0,79,74,0
0,82,93,0
0,39,92,4
0,70,62,0
0,81,91,8
0,77,91,4
0,69,66,8
0,77,67,8
0,77,74,0
0,69,76,4
0,81,89,0
0,77,72,0
0,38,88,4
0,42,90,0
0,54,100,0
0,38,117,0
0,79,91,12
0,75,91,4
