track,note,velocity,time
1,77,83,33756
1,82,83,0
1,82,65,140
1,77,65,0
1,77,83,144
1,82,83,0
1,77,65,136
1,82,65,0
1,77,83,144
1,82,83,0
1,77,65,128
1,82,65,0
1,77,83,136
1,82,83,0
1,77,65,132
1,82,65,0
1,81,83,136
1,77,83,0
1,77,65,128
1,81,65,0
1,82,83,128
1,77,83,0
1,77,65,136
1,82,65,0
1,77,83,136
1,84,83,0
1,77,65,132
1,84,65,0
1,82,83,136
1,77,83,0
1,82,65,136
1,77,65,0
1,77,83,132
1,82,83,0
1,77,65,136
1,82,65,0
1,77,83,136
1,82,83,0
1,82,65,132
1,77,65,0
1,77,83,136
1,82,83,0
1,77,65,132
1,82,65,0
1,82,83,136
1,77,83,0
1,82,65,124
1,77,65,0
1,82,83,128
1,77,83,0
1,82,65,128
1,77,65,0
1,82,83,136
1,77,83,0
1,77,65,124
1,82,65,0
1,82,83,136
1,77,83,0
1,77,65,124
1,82,65,0
1,77,83,132
1,82,83,0
1,82,65,124
1,77,65,0
1,77,83,132
1,82,83,0
1,82,65,140
1,77,65,0
1,82,83,144
1,77,83,0
1,82,65,140
1,77,65,0
1,82,83,148
1,77,83,0
1,82,65,136
1,77,65,0
1,82,83,136
1,77,83,0
1,82,65,136
1,77,65,0
1,81,83,132
1,77,83,0
1,77,65,128
1,81,65,0
1,82,83,124
1,77,83,0
1,82,65,136
1,77,65,0
1,84,83,140
1,77,83,0
1,77,65,136
1,84,65,0
1,77,83,136
1,82,83,0
1,82,65,136
1,77,65,0
1,75,83,128
1,79,83,0
1,75,65,140
1,79,65,0
1,75,83,136
1,79,83,0
1,75,65,136
1,79,65,0
1,79,83,132
1,75,83,0
1,75,65,136
1,79,65,0
1,79,83,140
1,75,83,0
1,75,65,128
1,79,65,0
1,79,83,144
1,75,83,0
1,79,65,136
1,75,65,0
1,75,83,144
1,79,83,0
1,79,65,132
1,75,65,0
1,79,83,132
1,75,83,0
1,79,65,132
1,75,65,0
1,79,83,152
1,75,83,0
1,79,65,132
1,75,65,0
1,79,83,124
1,75,83,0
1,75,65,128
1,79,65,0
1,75,83,136
1,80,83,0
1,79,65,128
1,75,65,0
1,75,83,140
1,79,83,0
1,79,65,144
1,75,65,0
1,75,83,148
1,79,83,0
1,75,65,140
1,79,65,0
1,79,83,140
1,75,83,0
1,79,65,132
1,75,65,0
1,79,83,144
1,75,83,0
1,75,65,140
1,79,65,0
1,79,83,140
1,75,83,0
1,79,65,140
1,75,65,0
1,79,83,140
1,75,83,0
1,79,65,132
1,75,65,0
1,77,83,132
1,74,83,0
1,74,65,132
1,77,65,0
1,74,83,144
1,77,83,0
1,77,65,128
1,74,65,0
1,77,83,120
1,74,83,0
1,74,65,140
1,77,65,0
1,72,83,136
1,75,83,0
1,72,65,140
1,75,65,0
1,74,83,128
1,70,83,0
1,70,65,136
1,74,65,0
1,70,83,140
1,74,83,0
1,74,65,136
1,70,65,0
1,74,83,140
1,70,83,0
1,74,65,132
1,70,65,0
1,74,83,136
1,70,83,0
1,74,65,136
1,70,65,0
1,75,83,124
1,79,83,0
1,79,65,136
1,75,65,0
1,79,83,140
1,75,83,0
1,75,65,132
1,79,65,0
1,79,83,140
1,75,83,0
1,75,65,136
1,79,65,0
1,79,83,144
1,75,83,0
1,79,65,140
1,75,65,0
1,81,83,144
1,75,83,0
1,75,65,140
1,81,65,0
1,75,83,144
1,81,83,0
1,81,65,140
1,75,65,0
1,75,83,144
1,81,83,0
1,81,65,136
1,75,65,0
1,81,83,140
1,75,83,0
1,75,65,136
1,81,65,0
1,74,83,140
1,82,83,0
1,82,65,132
1,74,65,0
1,82,83,140
1,74,83,0
1,74,65,132
1,82,65,0
1,74,83,136
1,82,83,0
1,82,65,128
1,74,65,0
1,72,83,124
1,81,83,0
1,81,65,132
1,72,65,0
1,74,83,120
1,82,83,0
1,75,83,1476
1,81,83,0
1,75,65,140
1,81,65,0
1,81,83,144
1,75,83,0
1,77,65,144
1,75,65,0
1,72,65,0
1,81,65,0
1,77,83,140
1,72,83,0
1,75,83,0
1,81,83,0
1,74,65,48
1,70,65,0
1,81,65,0
1,77,65,0
1,81,83,128
1,74,83,0
1,77,83,0
1,70,83,0
1,72,65,60
1,69,65,0
1,81,65,0
1,77,65,0
1,77,83,132
1,72,83,0
1,81,83,0
1,69,83,0
1,77,65,120
1,74,65,0
1,79,83,124
1,75,83,0
1,77,65,124
1,74,65,0
1,75,83,132
1,79,83,0
1,75,65,120
1,79,65,0
1,81,83,120
1,77,83,0
1,81,65,120
1,77,65,0
1,74,83,112
1,82,83,0
1,74,65,132
1,82,65,0
1,82,83,132
1,74,83,0
1,82,65,132
1,77,65,0
1,82,83,128
1,77,83,0
1,82,65,128
1,77,65,0
1,82,83,132
1,77,83,0
1,77,65,128
1,82,65,0
1,77,83,132
1,82,83,0
1,77,65,128
1,82,65,0
1,82,83,132
1,77,83,0
1,77,65,132
1,82,65,0
1,82,83,136
1,77,83,0
1,77,65,132
1,82,65,0
1,77,83,140
1,82,83,0
1,82,65,124
1,77,65,0
1,75,83,132
1,81,83,0
1,75,65,140
1,81,65,0
1,75,83,148
1,81,83,0
1,75,65,140
1,81,65,0
1,75,83,148
1,81,83,0
1,75,65,136
1,81,65,0
1,75,83,148
1,81,83,0
1,75,65,136
1,81,65,0
1,81,83,140
1,75,83,0
1,81,65,132
1,75,65,0
1,75,83,140
1,81,83,0
1,81,65,132
1,75,65,0
1,81,83,128
1,75,83,0
1,81,65,140
1,75,65,0
1,75,83,144
1,81,83,0
1,81,65,132
1,75,65,0
1,82,83,136
1,74,83,0
1,74,65,132
1,82,65,0
1,82,83,144
1,74,83,0
1,72,83,0
1,82,65,132
1,74,65,0
1,74,83,16
1,82,83,0
1,75,83,0
1,74,65,124
1,82,65,0
1,72,65,0
1,82,83,12
1,74,83,0
1,74,65,140
1,82,65,0
1,70,65,0
1,82,83,4
1,74,83,0
1,72,83,4
1,70,65,128
1,74,65,0
1,82,65,0
1,74,83,20
1,82,83,0
1,82,65,128
1,74,65,0
1,82,83,144
1,74,83,0
1,74,65,136
1,82,65,0
1,74,83,144
1,82,83,0
1,74,65,140
1,82,65,0
1,75,83,140
1,81,83,0
1,75,65,140
1,81,65,0
1,81,83,144
1,75,83,0
1,77,65,144
1,75,65,0
1,72,65,0
1,81,65,0
1,77,83,140
1,72,83,0
1,75,83,0
1,81,83,0
1,74,65,48
1,70,65,0
1,81,65,0
1,77,65,0
1,81,83,128
1,74,83,0
1,77,83,0
1,70,83,0
1,72,65,60
1,69,65,0
1,81,65,0
1,77,65,0
1,77,83,132
1,72,83,0
1,81,83,0
1,69,83,0
1,77,65,120
1,74,65,0
1,79,83,124
1,75,83,0
1,77,65,124
1,74,65,0
1,75,83,132
1,79,83,0
1,75,65,120
1,79,65,0
1,81,83,120
1,77,83,0
1,81,65,120
1,77,65,0
1,75,83,112
1,79,83,0
1,75,65,132
1,79,65,0
1,79,83,132
1,75,83,0
1,79,65,132
1,75,65,0
1,82,83,128
1,74,83,0
1,82,65,128
1,74,65,0
1,82,83,132
1,74,83,0
1,74,65,128
1,82,65,0
1,74,83,132
1,82,83,0
1,74,65,128
1,82,65,0
1,82,83,132
1,74,83,0
1,74,65,132
1,82,65,0
1,82,83,136
1,74,83,0
1,74,65,132
1,82,65,0
1,74,83,140
1,82,83,0
1,82,65,124
1,74,65,0
1,75,83,132
1,79,83,0
1,75,65,140
1,79,65,0
1,75,83,148
1,79,83,0
1,75,65,140
1,79,65,0
1,75,83,148
1,79,83,0
1,75,65,136
1,79,65,0
1,75,83,148
1,79,83,0
1,75,65,136
1,79,65,0
1,81,83,140
1,75,83,0
1,81,65,132
1,75,65,0
1,75,83,140
1,81,83,0
1,81,65,132
1,75,65,0
1,81,83,128
1,75,83,0
1,81,65,140
1,75,65,0
1,75,83,144
1,81,83,0
1,81,65,132
1,75,65,0
1,82,83,136
1,74,83,0
1,74,65,132
1,82,65,0
1,82,83,144
1,74,83,0
1,82,65,132
1,72,65,0
1,75,65,0
1,82,83,132
1,75,83,0
1,72,83,0
1,70,65,28
1,82,65,0
1,74,65,0
1,82,83,132
1,74,83,0
1,70,83,0
1,74,65,32
1,69,65,0
1,82,65,0
1,72,65,0
1,82,83,4
1,74,83,0
1,70,83,4
1,74,65,128
1,82,65,0
1,74,83,136
1,82,83,0
1,82,65,128
1,74,65,0
1,82,83,144
1,74,83,0
1,74,65,136
1,82,65,0
1,74,83,144
1,82,83,0
1,74,65,140
1,82,65,0
1,82,83,140
1,74,83,0
1,82,65,136
1,74,65,0
1,82,83,144
1,74,83,0
1,74,65,136
1,82,65,0
1,82,83,144
1,74,83,0
1,82,65,136
1,74,65,4
1,82,83,148
1,74,83,4
1,82,65,140
1,74,65,0
1,74,83,148
1,82,83,0
1,82,65,144
1,74,65,0
1,82,83,144
1,74,83,0
1,82,65,148
1,74,65,0
1,82,83,148
1,74,83,0
1,74,65,144
1,82,65,0
1,82,83,152
1,74,83,0
1,74,65,148
1,82,65,0
1,82,83,144
1,79,83,0
1,82,65,144
1,79,65,0
1,79,83,152
1,82,83,0
1,82,65,144
1,79,65,0
1,79,83,152
1,82,83,0
1,82,65,148
1,79,65,0
1,82,83,152
1,79,83,0
1,82,65,148
1,79,65,0
1,82,83,160
1,79,83,0
1,79,65,152
1,82,65,0
1,82,83,156
1,79,83,0
1,82,65,156
1,79,65,0
1,82,83,160
1,79,83,0
1,82,65,156
1,79,65,0
1,82,83,152
1,79,83,0
1,82,65,144
1,79,65,0
1,75,83,144
1,79,83,0
1,75,65,144
1,79,65,0
1,75,83,148
1,79,83,0
1,75,65,148
1,79,65,0
1,79,83,152
1,75,83,0
1,75,65,148
1,79,65,0
1,79,83,156
1,75,83,0
1,75,65,148
1,79,65,0
1,75,83,144
1,81,83,0
1,75,65,140
1,81,65,0
1,75,83,144
1,81,83,0
1,75,65,144
1,81,65,0
1,75,83,148
1,81,83,0
1,75,65,140
1,81,65,0
1,75,83,148
1,81,83,0
1,75,65,152
1,81,65,0
1,82,83,148
1,74,83,0
1,82,65,140
1,74,65,0
1,82,83,144
1,74,83,4
1,82,65,140
1,74,65,0
1,82,83,144
1,74,83,0
1,82,65,144
1,74,65,0
1,82,83,152
1,74,83,0
1,74,65,144
1,82,65,0
1,77,83,132
1,80,83,0
1,77,65,144
1,80,65,0
1,77,83,144
1,80,83,0
1,77,65,140
1,80,65,0
1,80,83,156
1,77,83,0
1,77,65,144
1,80,65,0
1,77,83,148
1,80,83,0
1,80,65,152
1,77,65,0
1,82,83,148
1,87,83,0
1,79,83,0
1,82,65,140
1,87,65,0
1,79,65,0
1,79,83,144
1,82,83,0
1,87,83,0
1,79,65,136
1,82,65,0
1,87,65,0
1,79,83,144
1,82,83,0
1,87,83,0
1,82,65,128
1,87,65,0
1,79,65,0
1,82,83,136
1,87,83,0
1,79,83,0
1,79,65,132
1,82,65,0
1,87,65,0
1,79,83,136
1,86,83,0
1,82,83,4
1,79,65,128
1,86,65,0
1,82,65,4
1,79,83,128
1,87,83,0
1,82,83,4
1,79,65,136
1,87,65,0
1,82,65,4
1,79,83,132
1,82,83,0
1,89,83,0
1,79,65,132
1,82,65,0
1,89,65,0
1,79,83,136
1,87,83,0
1,82,83,4
1,82,65,136
1,79,65,0
1,87,65,0
1,79,83,132
1,82,83,0
1,87,83,0
1,79,65,136
1,82,65,0
1,87,65,0
1,79,83,136
1,82,83,0
1,87,83,0
1,82,65,132
1,79,65,0
1,87,65,0
1,79,83,136
1,82,83,0
1,87,83,0
1,79,65,132
1,82,65,0
1,87,65,0
1,82,83,136
1,87,83,0
1,79,83,0
1,82,65,124
1,87,65,0
1,79,65,0
1,82,83,128
1,79,83,0
1,87,83,0
1,82,65,128
1,79,65,0
1,87,65,0
1,82,83,136
1,79,83,0
1,87,83,0
1,79,65,124
1,82,65,0
1,87,65,0
1,82,83,136
1,79,83,0
1,87,83,0
1,77,65,124
1,82,65,0
1,87,65,0
1,79,83,132
1,82,83,0
1,87,83,0
1,82,65,124
1,79,65,0
1,87,65,0
1,79,83,132
1,82,83,0
1,87,83,0
1,82,65,140
1,79,65,0
1,87,65,0
1,82,83,144
1,87,83,0
1,79,83,0
1,82,65,140
1,87,65,0
1,79,65,0
1,82,83,148
1,79,83,0
1,87,83,0
1,82,65,136
1,87,65,0
1,79,65,0
1,82,83,136
1,87,83,0
1,79,83,0
1,82,65,136
1,87,65,0
1,79,65,0
1,82,83,132
1,79,83,0
1,86,83,0
1,79,65,128
1,82,65,0
1,86,65,0
1,82,83,124
1,79,83,0
1,87,83,0
1,82,65,136
1,87,65,0
1,79,65,0
1,82,83,140
1,79,83,0
1,89,83,0
1,79,65,136
1,82,65,0
1,89,65,0
1,79,83,136
1,82,83,0
1,87,83,0
1,82,65,136
1,79,65,0
1,87,65,0
1,80,83,128
1,84,83,0
1,89,83,0
1,80,65,140
1,84,65,0
1,89,65,0
1,80,83,136
1,84,83,0
1,89,83,0
1,80,65,136
1,84,65,0
1,89,65,0
1,84,83,132
1,80,83,0
1,91,83,0
1,80,65,136
1,84,65,0
1,89,65,0
1,84,83,140
1,80,83,0
1,89,83,0
1,80,65,128
1,84,65,0
1,89,65,0
1,84,83,144
1,82,83,0
1,89,83,0
1,84,65,136
1,80,65,0
1,89,65,0
1,80,83,144
1,84,83,0
1,89,83,0
1,84,65,132
1,89,65,0
1,80,65,0
1,84,83,132
1,79,83,0
1,89,83,0
1,84,65,132
1,89,65,0
1,79,65,0
1,84,83,152
1,89,83,0
1,80,83,0
1,84,65,132
1,80,65,0
1,89,65,0
1,80,83,124
1,75,83,0
1,84,83,0
1,75,65,128
1,80,65,0
1,84,65,0
1,75,83,136
1,80,83,0
1,84,83,0
1,80,65,128
1,84,65,0
1,75,65,0
1,75,83,140
1,82,83,0
1,84,83,0
1,82,65,144
1,75,65,0
1,84,65,0
1,75,83,148
1,80,83,0
1,84,83,0
1,75,65,140
1,80,65,0
1,84,65,0
1,80,83,140
1,75,83,0
1,84,83,0
1,80,65,132
1,75,65,0
1,84,65,0
1,80,83,144
1,84,83,0
1,75,83,0
1,75,65,140
1,80,65,0
1,84,65,0
1,80,83,140
1,84,83,0
1,75,83,0
1,80,65,140
1,75,65,0
1,84,65,0
1,80,83,140
1,75,83,0
1,84,83,0
1,80,65,132
1,75,65,0
1,84,65,0
1,79,83,132
1,75,83,0
1,82,83,0
1,75,65,132
1,79,65,0
1,82,65,0
1,75,83,144
1,79,83,0
1,82,83,0
1,79,65,128
1,75,65,0
1,82,65,0
1,79,83,120
1,75,83,0
1,82,83,0
1,75,65,140
1,79,65,0
1,82,65,0
1,75,83,136
1,79,83,0
1,82,83,0
1,75,65,140
1,79,65,0
1,82,65,0
1,79,83,128
1,82,83,0
1,75,83,0
1,75,65,136
1,79,65,0
1,82,65,0
1,75,83,140
1,79,83,0
1,82,83,0
1,77,65,136
1,80,65,0
1,77,83,144
1,80,83,0
1,77,65,140
1,80,65,0
1,79,83,144
1,75,83,0
1,79,65,136
1,75,65,0
1,77,83,124
1,80,83,0
1,84,83,0
1,80,65,136
1,77,65,0
1,84,65,0
1,80,83,140
1,77,83,0
1,84,83,0
1,77,65,132
1,80,65,0
1,84,65,0
1,80,83,140
1,77,83,0
1,84,83,0
1,77,65,136
1,80,65,0
1,84,65,0
1,80,83,144
1,77,83,0
1,84,83,0
1,80,65,140
1,77,65,0
1,84,65,0
1,82,83,144
1,77,83,0
1,86,83,0
1,77,65,140
1,82,65,0
1,86,65,0
1,77,83,144
1,82,83,0
1,86,83,0
1,82,65,140
1,77,65,0
1,86,65,0
1,77,83,144
1,82,83,0
1,86,83,0
1,82,65,136
1,77,65,0
1,86,65,0
1,82,83,140
1,77,83,0
1,86,83,0
1,77,65,136
1,82,65,0
1,86,65,0
1,79,83,140
1,87,83,0
1,82,83,0
1,87,65,132
1,79,65,0
1,82,65,0
