track,note,velocity,time
2,36,91,8056
2,36,91,320
2,36,91,316
2,36,91,324
2,36,91,322
2,36,91,320
2,36,91,316
2,36,91,324
2,36,91,322
2,36,91,320
2,36,91,316
2,36,91,324
2,36,91,322
2,36,91,320
2,36,91,316
2,36,91,324
2,36,91,322
2,36,91,320
2,36,91,316
2,36,91,324
2,36,91,322
2,36,91,320
2,36,91,316
2,36,91,324
2,36,91,322
2,36,91,320
2,36,91,316
2,36,91,324
2,36,91,322
2,36,91,320
2,36,91,316
2,36,91,324
2,36,91,322
2,36,91,320
2,36,91,316
2,36,91,324
2,36,91,322
2,36,91,320
2,36,91,316
2,36,91,324
2,36,91,130
2,36,91,130
2,36,91,320
2,36,91,316
2,36,91,324
2,36,91,322
2,36,91,320
2,36,91,316
2,36,91,324
2,36,91,322
2,36,91,320
2,36,91,316
2,36,91,324
2,36,91,322
2,36,91,320
2,36,91,316
2,36,91,324
2,36,91,322
2,36,91,320
2,36,91,316
2,36,91,324
2,36,91,322
2,36,91,320
2,36,91,316
2,36,91,324
2,36,91,322
2,36,91,320
2,36,91,316
2,36,91,324
2,36,91,322
2,36,91,320
2,36,91,316
2,36,91,324
2,36,91,322
2,36,91,320
2,36,91,316
2,36,91,324
2,36,91,322
2,36,91,320
2,36,91,316
2,36,91,324
2,36,91,322
2,36,91,320
2,36,91,316
2,36,91,324
2,36,91,322
2,36,91,320
2,36,91,316
2,36,91,324
2,36,91,322
2,36,91,320
2,36,91,316
2,36,91,324
2,36,91,322
2,36,91,320
2,36,91,316
2,36,91,324
2,36,91,322
2,36,91,320
2,36,91,316
2,36,91,324
2,36,91,322
2,36,91,320
2,36,91,316
2,36,91,324
2,36,91,322
2,36,91,320
2,36,91,316
2,36,91,324
2,36,91,322
2,36,91,320
2,36,91,316
2,36,91,324
2,36,91,322
2,36,91,320
2,36,91,316
2,36,91,324
2,36,91,322
2,36,91,320
2,36,91,316
2,36,91,324
2,36,91,322
2,36,91,320
2,36,91,316
2,36,91,324
2,36,91,130
2,36,91,130
2,36,91,320
2,36,91,316
2,36,91,324
2,36,91,130
2,36,91,130
2,36,91,320
2,36,91,316
2,36,91,324
2,36,91,322
2,36,91,320
2,36,91,316
2,36,91,324
2,36,91,322
2,36,91,320
2,36,91,316
2,36,91,324
2,36,91,322
2,36,91,320
2,36,91,316
2,36,91,324
2,36,91,322
2,36,91,320
2,36,91,316
2,36,91,324
2,36,91,322
2,36,91,320
2,36,91,316
2,36,91,324
2,36,91,322
2,36,91,320
2,36,91,316
2,36,91,324
2,36,91,322
2,36,91,320
2,36,91,316
2,36,91,324
2,36,91,130
2,36,91,130
2,36,91,320
2,36,91,316
2,36,91,324
2,36,91,322
2,36,91,320
2,36,91,316
2,36,91,324
2,36,91,322
2,36,91,320
2,36,91,316
2,36,91,324
2,36,91,322
2,36,91,320
2,36,91,316
2,36,91,324
2,36,91,322
2,36,91,320
2,36,91,316
2,36,91,324
2,36,91,322
2,36,91,320
2,36,91,316
2,36,91,324
2,36,91,322
2,36,91,320
2,36,91,316
2,36,91,324
2,36,91,322
2,36,91,320
2,36,91,316
2,36,91,324
2,36,91,322
2,36,91,320
2,36,91,316
2,36,91,324
2,36,91,322
2,36,91,320
2,36,91,316
2,36,91,324
2,36,91,322
2,36,91,320
2,36,91,316
2,36,91,324
2,36,91,322
2,36,91,320
2,36,91,316
2,36,91,324
2,36,91,322
2,36,91,320
2,36,91,316
2,36,91,324
2,36,91,322
2,36,91,320
2,36,91,316
2,36,91,324
2,36,91,322
2,36,91,320
2,36,91,316
2,36,91,324
2,36,91,322
2,36,91,320
2,36,91,316
2,36,91,324
2,36,91,322
2,36,91,320
2,36,91,316
2,36,91,324
2,36,91,322
2,36,91,320
2,36,91,316
2,36,91,324
2,36,91,322
2,36,91,320
2,36,91,316
2,36,91,324
2,36,91,322
2,36,91,320
2,36,91,316
2,36,91,324
2,36,91,130
2,36,91,130
2,36,91,320
2,36,91,316
2,36,91,324
2,36,91,130
2,36,91,130
2,36,91,320
2,36,91,316
2,36,91,324
2,36,91,322
2,36,91,320
2,36,91,316
2,36,91,324
2,36,91,322
2,36,91,320
2,36,91,316
2,36,91,324
2,36,91,322
2,36,91,320
2,36,91,316
2,36,91,324
2,36,91,322
2,36,91,320
2,36,91,316
2,36,91,324
2,36,91,322
2,36,91,320
2,36,91,316
2,36,91,324
2,36,91,322
2,36,91,320
2,36,91,316
2,36,91,324
2,36,91,322
2,36,91,320
2,36,91,316
2,36,91,324
2,36,91,322
2,36,91,320
2,36,91,316
2,36,91,324
2,36,91,322
2,36,91,320
2,36,91,316
2,36,91,324
2,36,91,322
2,36,91,320
2,36,91,316
2,36,91,324
2,36,91,322
2,36,91,320
2,36,91,316
2,36,91,324
2,36,91,322
2,36,91,320
2,36,91,316
2,36,91,324
2,36,91,322
2,36,91,320
2,36,91,316
2,36,91,324
2,36,91,322
2,36,91,320
2,36,91,316
2,36,91,324
2,36,91,322
2,36,91,320
2,36,91,316
2,36,91,324
2,36,91,130
2,36,91,130
2,36,91,320
2,36,91,316
2,36,91,324
2,36,91,322
2,36,91,704
2,36,91,708
2,36,91,224
2,36,91,220
2,36,91,132
3,38,60,11416
3,38,79,26
3,38,60,526
3,38,79,26
3,38,60,526
3,38,79,26
3,38,60,526
3,38,79,26
3,38,60,526
3,38,79,26
3,38,60,526
3,38,79,26
3,38,60,526
3,38,79,26
3,38,60,526
3,38,79,26
3,38,60,526
3,38,79,26
3,38,60,526
3,38,79,26
3,38,60,526
3,38,79,26
3,38,60,526
3,38,79,26
3,38,60,526
3,38,79,26
3,38,60,526
3,38,79,26
3,38,60,526
3,38,79,26
3,38,60,526
3,38,79,26
3,38,79,42
3,38,60,334
3,38,79,26
3,38,60,526
3,38,79,26
3,38,60,526
3,38,79,26
3,38,60,526
3,38,79,26
3,38,60,526
3,38,79,26
3,38,60,526
3,38,79,26
3,38,60,526
3,38,79,26
3,38,60,526
3,38,79,26
3,38,60,526
3,38,79,26
3,38,60,526
3,38,79,26
3,38,60,526
3,38,79,26
3,38,60,526
3,38,79,26
3,38,60,526
3,38,79,26
3,38,60,526
3,38,79,26
3,38,60,526
3,38,79,26
3,38,60,526
3,38,79,26
3,38,60,526
3,38,79,26
3,38,60,526
3,38,79,26
3,38,79,138
3,38,60,318
3,38,79,26
3,38,60,526
3,38,79,26
3,38,60,526
3,38,79,26
3,38,60,526
3,38,79,26
3,38,60,526
3,38,79,26
3,38,60,526
3,38,79,26
3,38,60,526
3,38,79,26
3,38,79,618
3,38,60,526
3,38,79,26
3,38,60,526
3,38,79,26
3,38,60,526
3,38,79,26
3,38,60,526
3,38,79,26
3,38,60,526
3,38,79,26
3,38,60,526
3,38,79,26
3,38,60,526
3,38,79,26
3,38,60,526
3,38,79,26
3,38,60,526
3,38,79,26
3,38,60,526
3,38,79,26
3,38,60,526
3,38,79,26
3,38,60,526
3,38,79,26
3,38,60,526
3,38,79,26
3,38,60,526
3,38,79,26
3,38,60,526
3,38,79,26
3,38,79,234
3,38,60,142
3,38,79,26
3,38,79,42
3,38,60,334
3,38,79,26
3,38,60,526
3,38,79,26
3,38,79,42
3,38,60,334
3,38,79,26
3,38,60,526
3,38,79,26
3,38,60,526
3,38,79,26
3,38,60,526
3,38,79,26
3,38,60,526
3,38,79,26
3,38,60,526
3,38,79,26
3,38,60,526
3,38,79,26
3,38,60,526
3,38,79,26
3,38,60,526
3,38,79,26
3,38,60,526
3,38,79,26
3,38,60,526
3,38,79,26
3,38,60,526
3,38,79,26
3,38,60,526
3,38,79,26
3,38,60,526
3,38,79,26
3,38,60,526
3,38,79,26
3,38,60,526
3,38,79,26
3,38,79,42
3,38,60,334
3,38,79,26
3,38,60,526
3,38,79,26
3,38,60,526
3,38,79,26
3,38,60,526
3,38,79,26
3,38,60,526
3,38,79,26
3,38,60,526
3,38,79,26
3,38,60,526
3,38,79,26
3,38,60,526
3,38,79,26
3,38,60,526
3,38,79,26
3,38,60,526
3,38,79,26
3,38,60,526
3,38,79,26
3,38,60,526
3,38,79,26
3,38,60,526
3,38,79,26
3,38,60,526
3,38,79,26
3,38,60,526
3,38,79,26
3,38,60,526
3,38,79,26
3,38,79,138
3,38,60,318
3,38,79,26
3,38,60,526
3,38,79,26
3,38,60,526
3,38,79,26
3,38,60,526
3,38,79,26
3,38,60,526
3,38,79,26
3,38,60,526
3,38,79,26
3,38,60,526
3,38,79,26
3,38,79,618
3,38,60,526
3,38,79,26
3,38,60,526
3,38,79,26
3,38,60,526
3,38,79,26
3,38,60,526
3,38,79,26
3,38,60,526
3,38,79,26
3,38,60,526
3,38,79,26
3,38,60,526
3,38,79,26
3,38,60,526
3,38,79,26
3,38,60,526
3,38,79,26
3,38,60,526
3,38,79,26
3,38,60,526
3,38,79,26
3,38,60,526
3,38,79,26
3,38,60,526
3,38,79,26
3,38,60,526
3,38,79,26
3,38,60,526
3,38,79,26
3,38,79,234
3,38,60,142
3,38,79,26
3,38,79,42
3,38,60,334
3,38,79,26
3,38,60,526
3,38,79,26
3,38,79,42
3,38,60,6478
3,38,79,26
3,38,60,526
3,38,79,26
3,38,60,526
3,38,79,26
3,38,60,526
3,38,79,26
3,38,60,526
3,38,79,26
3,38,60,526
3,38,79,26
3,38,60,526
3,38,79,26
3,38,79,618
3,38,60,526
3,38,79,26
3,38,60,526
3,38,79,26
3,38,60,526
3,38,79,26
3,38,60,526
3,38,79,26
3,38,60,526
3,38,79,26
3,38,60,526
3,38,79,26
3,38,60,526
3,38,79,26
3,38,60,526
3,38,79,26
3,38,60,526
3,38,79,26
3,38,60,526
3,38,79,26
3,38,60,526
3,38,79,26
3,38,60,526
3,38,79,26
3,38,60,526
3,38,79,26
3,38,60,526
3,38,79,26
3,38,60,526
3,38,79,26
3,38,79,234
3,38,60,142
3,38,79,26
3,38,79,42
3,38,60,334
3,38,79,26
3,38,60,526
3,38,79,26
3,38,79,234
3,38,79,618
3,38,79,618
3,38,72,138
3,38,75,222
3,38,86,126
4,42,46,11216
4,42,64,54
4,42,55,246
4,42,66,246
4,42,46,54
4,42,64,54
4,42,55,246
4,42,66,246
4,42,46,54
4,42,64,54
4,42,55,246
4,42,66,246
4,42,46,54
4,42,64,54
4,42,55,246
4,42,66,246
4,42,46,54
4,42,64,54
4,42,55,246
4,42,66,246
4,42,46,54
4,42,64,54
4,42,55,246
4,42,66,246
4,42,46,54
4,42,64,54
4,42,55,246
4,42,66,246
4,42,46,54
4,42,64,54
4,42,55,246
4,42,66,246
4,42,46,54
4,42,64,54
4,42,55,246
4,42,66,246
4,42,46,54
4,42,64,54
4,42,55,246
4,42,66,246
4,42,46,54
4,42,64,54
4,42,55,246
4,42,66,246
4,42,46,54
4,42,64,54
4,42,55,246
4,42,66,246
4,42,46,54
4,42,64,54
4,42,55,246
4,42,66,246
4,42,46,54
4,42,64,54
4,42,55,246
4,42,66,246
4,42,46,54
4,42,64,54
4,42,55,246
4,42,66,246
4,42,46,822
4,42,64,54
4,42,46,246
4,42,61,54
4,42,43,54
4,42,66,54
4,42,46,54
4,42,64,54
4,42,55,246
4,42,66,246
4,42,46,54
4,42,64,54
4,42,46,246
4,42,61,54
4,42,43,54
4,42,66,54
4,42,46,54
4,42,64,54
4,42,55,246
4,42,66,246
4,42,46,54
4,42,64,54
4,42,46,246
4,42,61,54
4,42,43,54
4,42,66,54
4,42,46,54
4,42,64,54
4,42,55,246
4,42,66,246
4,42,46,54
4,42,64,54
4,42,46,246
4,42,61,54
4,42,43,54
4,42,66,54
4,42,46,54
4,42,64,54
4,42,55,246
4,42,66,246
4,42,46,54
4,42,64,54
4,42,46,246
4,42,61,54
4,42,43,54
4,42,66,54
4,42,46,54
4,42,64,54
4,42,55,246
4,42,66,246
4,42,46,54
4,42,64,54
4,42,46,246
4,42,61,54
4,42,43,54
4,42,66,54
4,42,46,54
4,42,64,54
4,42,55,246
4,42,66,246
4,42,46,54
4,42,64,54
4,42,46,246
4,42,61,54
4,42,43,54
4,42,66,54
4,42,46,54
4,42,64,54
4,42,55,246
4,42,66,246
4,42,46,54
4,42,64,54
4,42,46,246
4,42,61,54
4,42,43,54
4,42,66,54
4,42,46,54
4,42,64,54
4,42,55,246
4,42,66,246
4,42,46,54
4,42,64,54
4,42,55,246
4,42,66,246
4,42,46,822
4,42,64,54
4,42,46,246
4,42,61,54
4,42,43,54
4,42,66,54
4,42,46,54
4,42,64,54
4,42,55,246
4,42,66,246
4,42,46,54
4,42,64,54
4,42,46,246
4,42,61,54
4,42,43,54
4,42,66,54
4,42,46,54
4,42,64,54
4,42,55,246
4,42,66,246
4,42,46,54
4,42,64,54
4,42,46,246
4,42,61,54
4,42,43,54
4,42,66,54
4,42,46,54
4,42,64,54
4,42,55,246
4,42,66,246
4,42,46,54
4,42,64,54
4,42,66,534
4,42,46,822
4,42,64,54
4,42,55,246
4,42,66,246
4,42,46,54
4,42,64,54
4,42,55,246
4,42,66,246
4,42,46,54
4,42,64,54
4,42,55,246
4,42,66,246
4,42,46,54
4,42,64,54
4,42,55,246
4,42,66,246
4,42,46,54
4,42,64,54
4,42,55,246
4,42,66,246
4,42,46,54
4,42,64,54
4,42,55,246
4,42,66,246
4,42,46,54
4,42,64,54
4,42,55,246
4,42,66,246
4,42,46,54
4,42,64,54
4,42,55,246
4,42,46,342
4,42,64,54
4,42,55,246
4,42,66,246
4,42,46,54
4,42,64,54
4,42,55,246
4,42,66,246
4,42,46,54
4,42,64,54
4,42,55,246
4,42,66,246
4,42,46,54
4,42,64,54
4,42,55,246
4,42,66,246
4,42,46,54
4,42,64,54
4,42,55,246
4,42,66,246
4,42,46,54
4,42,64,54
4,42,55,246
4,42,66,246
4,42,46,54
4,42,64,54
4,42,55,246
4,42,66,1014
4,42,46,54
4,42,64,54
4,42,46,246
4,42,61,54
4,42,43,54
4,42,66,54
4,42,46,54
4,42,64,54
4,42,55,246
4,42,46,342
4,42,64,54
4,42,55,246
4,42,66,246
4,42,46,54
4,42,64,54
4,42,55,246
4,42,66,246
4,42,46,54
4,42,64,54
4,42,55,246
4,42,66,246
4,42,46,54
4,42,64,54
4,42,55,246
4,42,66,246
4,42,46,54
4,42,64,54
4,42,55,246
4,42,66,246
4,42,46,54
4,42,64,54
4,42,55,246
4,42,66,246
4,42,46,54
4,42,64,54
4,42,55,246
4,42,66,246
4,42,46,54
4,42,64,54
4,42,55,246
4,42,66,246
4,42,46,54
4,42,64,54
4,42,55,246
4,42,66,246
4,42,46,54
4,42,64,54
4,42,55,246
4,42,66,246
4,42,46,54
4,42,64,54
4,42,55,246
4,42,66,246
4,42,46,54
4,42,64,54
4,42,55,246
4,42,66,246
4,42,46,54
4,42,64,54
4,42,55,246
4,42,66,246
4,42,46,54
4,42,64,54
4,42,55,246
4,42,66,246
4,42,46,54
4,42,64,54
4,42,55,246
4,42,66,246
4,42,46,150
4,42,78,54
4,42,46,534
4,42,64,54
4,42,46,246
4,42,61,54
4,42,43,54
4,42,66,54
4,42,46,54
4,42,64,54
4,42,55,246
4,42,66,246
4,42,46,54
4,42,64,54
4,42,46,246
4,42,61,54
4,42,43,54
4,42,66,54
4,42,46,54
4,42,64,54
4,42,55,246
4,42,66,246
4,42,46,54
4,42,64,54
4,42,46,246
4,42,61,54
4,42,43,54
4,42,66,54
4,42,46,54
4,42,64,54
4,42,55,246
4,42,66,246
4,42,46,54
4,42,64,54
4,42,46,246
4,42,61,54
4,42,43,54
4,42,66,54
4,42,46,54
4,42,64,54
4,42,55,246
4,42,66,246
4,42,46,54
4,42,64,54
4,42,46,246
4,42,61,54
4,42,43,54
4,42,66,54
4,42,46,54
4,42,64,54
4,42,55,246
4,42,66,246
4,42,46,54
4,42,64,54
4,42,46,246
4,42,61,54
4,42,43,54
4,42,66,54
4,42,46,54
4,42,64,54
4,42,55,246
4,42,66,246
4,42,46,54
4,42,64,54
4,42,46,246
4,42,61,54
4,42,43,54
