track,note,velocity,time
1,40,77,130
1,35,72,388
1,40,78,388
1,35,76,388
1,40,76,388
1,35,77,388
1,40,72,388
1,47,80,388
1,35,86,4
1,40,85,4
1,35,83,388
1,40,80,388
1,35,83,388
1,40,83,388
1,35,83,388
1,40,82,388
1,40,77,388
1,42,77,4
1,35,69,4
1,42,64,388
1,47,77,388
1,42,67,388
1,40,80,388
1,40,82,388
1,35,82,4
1,33,83,4
1,33,72,388
1,40,85,388
1,35,83,388
1,40,80,388
1,35,83,388
1,40,83,388
1,35,83,388
1,40,82,388
1,40,77,388
1,42,77,4
1,35,69,4
1,42,64,388
1,47,77,388
1,42,67,388
1,40,80,388
1,40,82,388
1,35,82,4
1,33,83,4
1,33,72,388
1,40,77,388
1,35,72,388
1,40,78,388
1,35,76,388
1,40,76,388
1,35,77,388
1,40,72,388
1,47,80,388
1,35,86,4
1,35,69,4
1,42,64,388
1,47,77,388
1,42,67,388
1,40,80,388
1,40,82,388
1,35,82,4
1,33,83,4
1,33,72,388
1,35,69,388
1,42,64,388
1,47,77,388
1,42,67,388
1,40,80,388
1,40,82,388
1,35,82,4
1,33,83,4
1,33,72,388
1,40,77,388
1,35,72,388
1,40,78,388
1,35,76,388
1,40,76,388
1,35,77,388
1,40,72,388
1,47,80,388
1,35,86,4
1,35,69,4
1,42,64,388
1,47,77,388
1,42,67,388
1,40,80,388
1,40,82,388
1,35,82,4
1,45,96,0
1,43,91,28
1,42,80,6
1,41,89,26
1,40,77,36
1,35,72,388
1,40,78,388
1,35,76,388
1,40,76,388
1,35,77,388
1,40,72,388
1,47,80,388
1,35,86,4
1,35,69,4
1,42,64,388
1,47,77,388
1,42,67,388
1,40,80,388
1,40,82,388
1,35,82,4
1,33,83,4
1,33,72,388
1,40,77,388
1,35,72,388
1,40,78,388
1,35,76,388
1,40,76,388
1,35,77,388
1,40,72,388
1,47,80,388
1,35,86,4
1,35,69,4
1,42,64,388
1,47,77,388
1,42,67,388
1,40,80,388
1,40,82,388
1,35,82,4
1,33,83,4
1,33,72,388
1,40,77,388
1,35,72,388
1,40,78,388
1,35,76,388
1,40,76,388
1,35,77,388
1,40,72,388
1,47,80,388
1,35,86,4
1,35,69,4
1,42,64,388
1,47,77,388
1,42,67,388
1,40,80,388
1,40,82,388
1,35,82,4
1,33,83,4
1,33,72,388
1,40,77,388
1,35,72,388
1,40,78,388
1,35,76,388
1,40,76,388
1,35,77,388
1,40,72,388
1,47,80,388
1,35,86,4
1,35,69,4
1,42,64,388
1,47,77,388
1,42,67,388
1,40,80,388
1,40,82,388
1,35,82,4
1,33,83,4
1,33,72,388
1,40,77,388
1,35,72,388
1,40,78,388
1,35,76,388
1,40,76,388
1,35,77,388
1,40,72,388
1,47,80,388
1,35,86,4
1,35,69,4
1,42,64,388
1,47,77,388
1,42,67,388
1,40,80,388
1,40,82,388
1,35,82,4
1,33,83,4
1,33,72,388
1,40,77,388
1,35,72,388
1,40,78,388
1,35,76,388
1,40,76,388
1,35,77,388
1,40,72,388
1,47,80,388
1,35,86,4
1,35,69,4
1,42,64,388
1,47,77,388
1,42,67,388
1,40,80,388
1,40,82,388
1,35,82,4
1,33,83,4
1,33,72,388
1,40,77,388
1,35,72,388
1,40,78,388
1,35,76,388
1,40,76,388
1,35,77,388
1,40,72,388
1,47,80,388
1,35,86,4
1,35,69,4
1,42,64,388
1,47,77,388
1,42,67,388
1,40,80,388
1,40,82,388
1,35,82,4
1,33,83,4
1,33,72,388
1,40,77,388
1,35,72,388
1,40,78,388
1,35,76,388
1,40,76,388
1,35,77,388
1,40,72,388
1,47,80,388
1,35,86,4
1,35,69,4
1,42,64,388
1,47,77,388
1,42,67,388
1,40,80,388
1,40,82,388
1,35,82,4
1,33,83,4
1,33,72,388
1,28,118,548
1,31,119,18
1,33,110,12
1,34,112,12
1,35,108,12
1,38,121,26
1,40,112,24
1,43,107,26
1,45,104,6
1,46,104,10
1,50,101,6
1,47,98,20
1,29,107,292
1,28,95,24
2,52,69,874
2,56,56,0
2,61,55,0
2,52,64,676
2,56,64,0
2,59,65,0
2,52,66,676
2,56,57,0
2,61,57,0
2,52,65,676
2,56,69,0
2,59,65,0
2,52,71,676
2,56,56,0
2,61,56,0
2,52,67,676
2,56,63,0
2,59,67,0
2,52,67,676
2,56,61,0
2,61,61,0
2,52,65,676
2,56,71,0
2,59,66,0
2,52,66,676
2,56,53,0
2,61,59,0
2,52,64,676
2,56,66,0
2,59,66,0
2,52,69,676
2,56,54,0
2,61,57,0
2,52,61,676
2,56,64,0
2,59,61,0
2,52,69,676
2,56,65,0
2,61,56,0
2,52,65,676
2,56,65,0
2,59,61,0
2,52,71,676
2,56,56,0
2,61,56,0
2,52,64,676
2,56,70,0
2,59,68,0
2,51,69,676
2,54,76,0
2,59,62,0
2,51,63,676
2,54,78,0
2,59,63,0
2,51,60,676
2,54,69,0
2,59,65,0
2,51,56,676
2,54,72,0
2,59,63,0
2,52,72,676
2,56,56,0
2,61,56,0
2,52,66,676
2,56,76,0
2,59,73,0
2,52,71,676
2,55,81,0
2,61,61,0
2,52,64,676
2,55,82,0
2,61,56,0
2,52,67,676
2,56,52,0
2,61,51,0
2,52,63,676
2,56,56,0
2,59,57,0
2,52,66,676
2,56,48,0
2,61,58,0
2,52,62,676
2,56,62,0
2,59,66,0
2,52,64,676
2,56,50,0
2,61,56,0
2,52,66,676
2,56,70,0
2,59,69,0
2,52,69,676
2,56,58,0
2,61,54,0
2,52,65,676
2,56,65,0
2,59,63,0
2,51,58,676
2,54,66,0
2,59,59,0
2,51,56,676
2,54,63,0
2,59,59,0
2,51,59,676
2,54,58,0
2,59,58,0
2,51,60,676
2,54,67,0
2,59,63,0
2,52,70,676
2,56,58,0
2,61,63,0
2,52,64,676
2,56,78,0
2,59,70,0
2,52,61,292
2,55,61,0
2,61,61,0
2,52,67,292
2,55,67,0
2,61,67,0
2,52,73,292
2,55,73,0
2,61,73,0
2,52,81,292
2,55,81,0
2,61,81,0
2,52,69,676
2,56,56,0
2,61,55,0
2,52,64,676
2,56,64,0
2,59,65,0
2,52,66,676
2,56,57,0
2,61,57,0
2,52,65,676
2,56,69,0
2,59,65,0
2,52,71,676
2,56,56,0
2,61,56,0
2,52,67,676
2,56,63,0
2,59,67,0
2,52,67,676
2,56,61,0
2,61,61,0
2,52,65,676
2,56,71,0
2,59,66,0
2,51,58,676
2,54,66,0
2,59,59,0
2,51,56,676
2,54,63,0
2,59,59,0
2,51,59,676
2,54,58,0
2,59,58,0
2,51,60,676
2,54,67,0
2,59,63,0
2,52,70,676
2,56,58,0
2,61,63,0
2,52,64,676
2,56,78,0
2,59,70,0
2,52,61,292
2,55,61,0
2,61,61,0
2,52,67,292
2,55,67,0
2,61,67,0
2,52,73,292
2,55,73,0
2,61,73,0
2,52,81,292
2,55,81,0
2,61,81,0
2,51,58,676
2,54,66,0
2,59,59,0
2,51,56,676
2,54,63,0
2,59,59,0
2,51,59,676
2,54,58,0
2,59,58,0
2,51,60,676
2,54,67,0
2,59,63,0
2,52,70,676
2,56,58,0
2,61,63,0
2,52,64,676
2,56,78,0
2,59,70,0
2,52,61,292
2,55,61,0
2,61,61,0
2,52,67,292
2,55,67,0
2,61,67,0
2,52,73,292
2,55,73,0
2,61,73,0
2,52,81,292
2,55,81,0
2,61,81,0
2,64,69,292
2,68,73,0
2,73,75,0
2,64,68,314
2,68,63,0
2,73,61,0
2,64,68,308
2,68,59,0
2,71,74,0
2,64,64,320
2,68,63,0
2,71,76,0
2,64,64,326
2,68,64,0
2,73,73,0
2,64,68,330
2,68,65,0
2,73,57,0
2,64,66,316
2,68,63,0
2,71,77,0
2,64,63,322
2,68,63,0
2,71,74,0
2,64,62,324
2,68,62,0
2,73,66,0
2,64,58,322
2,68,58,0
2,73,60,0
2,64,64,314
2,68,65,0
2,71,72,0
2,64,62,318
2,68,60,0
2,71,69,0
2,64,64,316
2,68,60,0
2,73,65,0
2,64,64,320
2,68,58,0
2,73,56,0
2,64,62,312
2,68,56,0
2,71,69,0
2,64,66,320
2,68,63,0
2,71,71,0
2,59,60,312
2,63,70,0
2,68,66,0
2,59,68,314
2,63,71,0
2,68,64,0
2,59,66,320
2,63,71,0
2,66,66,0
2,59,68,320
2,63,70,0
2,66,65,0
2,59,65,318
2,63,65,0
2,68,65,0
2,59,66,326
2,63,58,0
2,68,56,0
2,59,66,320
2,63,70,0
2,66,65,0
2,59,66,320
2,63,69,0
2,66,70,0
2,64,60,318
2,68,76,0
2,71,63,0
2,64,61,318
2,68,63,0
2,71,64,0
2,64,61,324
2,68,72,0
2,71,70,0
2,64,61,320
2,68,63,0
2,71,63,0
2,64,69,328
2,67,79,0
2,73,79,0
2,64,70,318
2,67,79,0
2,73,81,0
2,64,70,326
2,67,75,0
2,73,73,0
2,64,79,326
2,67,86,0
2,73,93,0
2,52,69,716
2,56,56,0
2,61,55,0
2,52,64,676
2,56,64,0
2,59,65,0
2,52,66,676
2,56,57,0
2,61,57,0
2,52,65,676
2,56,69,0
2,59,65,0
2,52,71,676
2,56,56,0
2,61,56,0
2,52,67,676
2,56,63,0
2,59,67,0
2,52,67,676
2,56,61,0
2,61,61,0
2,52,65,676
2,56,71,0
2,59,66,0
2,51,58,676
2,54,66,0
2,59,59,0
2,51,56,676
2,54,63,0
2,59,59,0
2,51,59,676
2,54,58,0
2,59,58,0
2,51,60,676
2,54,67,0
2,59,63,0
2,52,70,676
2,56,58,0
2,61,63,0
2,52,64,676
2,56,78,0
2,59,70,0
2,52,61,292
2,55,61,0
2,61,61,0
2,52,67,292
2,55,67,0
2,61,67,0
2,52,73,292
2,55,73,0
2,61,73,0
2,52,81,292
2,55,81,0
2,61,81,0
2,52,69,676
2,56,56,0
2,61,55,0
2,52,64,676
2,56,64,0
2,59,65,0
2,52,66,676
2,56,57,0
2,61,57,0
2,52,65,676
2,56,69,0
2,59,65,0
2,52,71,676
2,56,56,0
2,61,56,0
2,52,67,676
2,56,63,0
2,59,67,0
2,52,67,676
2,56,61,0
2,61,61,0
2,52,65,676
2,56,71,0
2,59,66,0
2,51,58,676
2,54,66,0
2,59,59,0
2,51,56,676
2,54,63,0
2,59,59,0
2,51,59,676
2,54,58,0
2,59,58,0
2,51,60,676
2,54,67,0
2,59,63,0
2,52,70,676
2,56,58,0
2,61,63,0
2,52,64,676
2,56,78,0
2,59,70,0
2,52,61,292
2,55,61,0
2,61,61,0
2,52,67,292
2,55,67,0
2,61,67,0
2,52,73,292
2,55,73,0
2,61,73,0
2,52,81,292
2,55,81,0
2,61,81,0
2,52,69,676
2,56,56,0
2,61,55,0
2,52,64,676
2,56,64,0
2,59,65,0
2,52,66,676
2,56,57,0
2,61,57,0
2,52,65,676
2,56,69,0
2,59,65,0
2,52,71,676
2,56,56,0
2,61,56,0
2,52,67,676
2,56,63,0
2,59,67,0
2,52,67,676
2,56,61,0
2,61,61,0
2,52,65,676
2,56,71,0
2,59,66,0
2,51,58,676
2,54,66,0
2,59,59,0
2,51,56,676
2,54,63,0
2,59,59,0
2,51,59,676
2,54,58,0
2,59,58,0
2,51,60,676
2,54,67,0
2,59,63,0
2,52,70,676
2,56,58,0
2,61,63,0
2,52,64,676
2,56,78,0
2,59,70,0
2,52,61,292
2,55,61,0
2,61,61,0
2,52,67,292
2,55,67,0
2,61,67,0
2,52,73,292
2,55,73,0
2,61,73,0
2,52,81,292
2,55,81,0
2,61,81,0
2,52,69,676
2,56,56,0
2,61,55,0
2,52,64,676
2,56,64,0
2,59,65,0
2,52,66,676
2,56,57,0
2,61,57,0
2,52,65,676
2,56,69,0
2,59,65,0
2,52,71,676
2,56,56,0
2,61,56,0
2,52,67,676
2,56,63,0
2,59,67,0
2,52,67,676
2,56,61,0
2,61,61,0
2,52,65,676
2,56,71,0
2,59,66,0
2,51,58,676
2,54,66,0
2,59,59,0
2,51,56,676
2,54,63,0
2,59,59,0
2,51,59,676
2,54,58,0
2,59,58,0
2,51,60,676
2,54,67,0
2,59,63,0
2,52,70,676
2,56,58,0
2,61,63,0
2,52,64,676
2,56,78,0
2,59,70,0
2,52,61,292
2,55,61,0
2,61,61,0
2,52,67,292
2,55,67,0
2,61,67,0
2,52,73,292
2,55,73,0
2,61,73,0
2,52,81,292
2,55,81,0
2,61,81,0
2,52,69,676
2,56,56,0
2,61,55,0
2,52,64,676
2,56,64,0
2,59,65,0
2,52,66,676
2,56,57,0
2,61,57,0
2,52,65,676
2,56,69,0
2,59,65,0
2,52,71,676
2,56,56,0
2,61,56,0
2,52,67,676
2,56,63,0
2,59,67,0
2,52,67,676
2,56,61,0
2,61,61,0
2,52,65,676
2,56,71,0
2,59,66,0
2,51,58,676
2,54,66,0
2,59,59,0
2,51,56,676
2,54,63,0
2,59,59,0
2,51,59,676
2,54,58,0
2,59,58,0
2,51,60,676
2,54,67,0
2,59,63,0
2,52,70,676
2,56,58,0
2,61,63,0
2,52,64,676
2,56,78,0
2,59,70,0
2,52,61,292
2,55,61,0
2,61,61,0
2,52,67,292
2,55,67,0
2,61,67,0
2,52,73,292
2,55,73,0
2,61,73,0
2,52,81,292
2,55,81,0
2,61,81,0
2,52,69,676
2,56,56,0
2,61,55,0
2,52,64,676
2,56,64,0
2,59,65,0
2,52,66,676
2,56,57,0
2,61,57,0
2,52,65,676
2,56,69,0
2,59,65,0
2,52,71,676
2,56,56,0
2,61,56,0
2,52,67,676
2,56,63,0
2,59,67,0
2,52,67,676
2,56,61,0
2,61,61,0
2,52,65,676
2,56,71,0
2,59,66,0
2,51,58,676
2,54,66,0
2,59,59,0
2,51,56,676
2,54,63,0
2,59,59,0
2,51,59,676
2,54,58,0
2,59,58,0
2,51,60,676
2,54,67,0
2,59,63,0
2,52,70,676
2,56,58,0
2,61,63,0
2,52,64,676
2,56,78,0
2,59,70,0
2,52,61,292
2,55,61,0
2,61,61,0
2,52,67,292
2,55,67,0
2,61,67,0
2,52,73,292
2,55,73,0
2,61,73,0
2,52,81,292
2,55,81,0
2,61,81,0
2,52,69,676
2,56,56,0
2,61,55,0
2,52,64,676
2,56,64,0
2,59,65,0
2,52,66,676
2,56,57,0
2,61,57,0
2,52,65,676
2,56,69,0
2,59,65,0
2,52,71,676
2,56,56,0
2,61,56,0
2,52,67,676
2,56,63,0
2,59,67,0
2,52,67,676
2,56,61,0
2,61,61,0
2,52,65,676
2,56,71,0
2,59,66,0
2,51,58,676
2,54,66,0
2,59,59,0
2,51,56,676
2,54,63,0
2,59,59,0
2,51,59,676
2,54,58,0
2,59,58,0
2,51,60,676
2,54,67,0
2,59,63,0
2,52,70,676
2,56,58,0
2,61,63,0
2,52,64,676
2,56,78,0
2,59,70,0
2,52,61,292
2,55,61,0
2,61,61,0
2,52,67,292
2,55,67,0
2,61,67,0
2,52,73,292
2,55,73,0
2,61,73,0
2,52,81,292
2,55,81,0
2,61,81,0
2,52,69,676
2,56,56,0
2,61,55,0
2,52,64,676
2,56,64,0
2,59,65,0
2,52,66,676
2,56,57,0
2,61,57,0
2,52,65,676
2,56,69,0
2,59,65,0
2,52,71,676
2,56,56,0
2,61,56,0
2,52,67,676
2,56,63,0
2,59,67,0
2,52,67,676
2,56,61,0
2,61,61,0
2,52,65,676
2,56,71,0
2,59,66,0
2,51,58,676
2,54,66,0
2,59,59,0
2,51,56,676
2,54,63,0
2,59,59,0
2,51,59,676
2,54,58,0
2,59,58,0
2,51,60,676
2,54,67,0
2,59,63,0
2,52,70,676
2,56,58,0
2,61,63,0
2,52,64,676
2,56,78,0
2,59,70,0
2,52,61,292
2,55,61,0
2,61,61,0
2,52,67,292
2,55,67,0
2,61,67,0
2,52,73,292
2,55,73,0
2,61,73,0
2,52,81,292
2,55,81,0
2,61,81,0
2,52,95,452
2,55,96,18
2,57,87,12
2,58,89,12
2,59,85,12
2,62,106,26
2,64,95,24
2,67,88,26
2,69,96,6
2,70,112,10
2,74,70,6
2,71,106,20
