track,note,velocity,time
1,52,64,0
1,56,64,0
1,59,64,0
1,52,64,0
1,52,64,0
1,52,64,0
1,56,64,0
1,59,64,0
1,52,64,0
1,52,64,0
1,56,64,0
1,52,64,0
1,59,64,0
1,50,64,0
1,50,64,0
1,48,64,0
1,52,64,0
1,55,64,0
1,48,64,0
1,48,64,0
1,48,64,0
1,55,64,0
1,52,64,0
1,48,64,0
1,48,64,0
1,48,64,0
1,52,64,0
1,55,64,0
1,45,64,0
1,45,64,0
1,43,64,0
1,50,64,0
1,55,64,0
1,48,64,0
1,52,64,0
1,52,64,0
1,56,64,0
1,59,64,0
1,52,64,0
1,52,64,0
1,52,64,0
1,56,64,0
1,59,64,0
1,52,64,0
1,52,64,0
1,56,64,0
1,52,64,0
1,59,64,0
1,50,64,0
1,50,64,0
1,48,64,0
1,52,64,0
1,55,64,0
1,48,64,0
1,48,64,0
1,48,64,0
1,55,64,0
1,52,64,0
1,48,64,0
1,48,64,0
1,48,64,0
1,52,64,0
1,55,64,0
1,45,64,0
1,45,64,0
1,43,64,0
1,50,64,0
1,55,64,0
1,48,64,0
1,52,64,0
1,52,64,0
1,56,64,0
1,59,64,0
1,52,64,0
1,52,64,0
1,52,64,0
1,56,64,0
1,59,64,0
1,52,64,0
1,52,64,0
1,56,64,0
1,52,64,0
1,59,64,0
1,50,64,0
1,50,64,0
1,48,64,0
1,52,64,0
1,55,64,0
1,48,64,0
1,48,64,0
1,48,64,0
1,55,64,0
1,52,64,0
1,48,64,0
1,48,64,0
1,48,64,0
1,52,64,0
1,55,64,0
1,45,64,0
1,45,64,0
1,43,64,0
1,50,64,0
1,55,64,0
1,48,64,0
1,52,64,0
1,52,64,0
1,56,64,0
1,59,64,0
1,52,64,0
1,52,64,0
1,52,64,0
1,56,64,0
1,59,64,0
1,52,64,0
1,52,64,0
1,56,64,0
1,52,64,0
1,59,64,0
1,50,64,0
1,50,64,0
1,48,64,0
1,52,64,0
1,55,64,0
1,48,64,0
1,48,64,0
1,48,64,0
1,55,64,0
1,52,64,0
1,48,64,0
1,48,64,0
1,48,64,0
1,52,64,0
1,55,64,0
1,45,64,0
1,45,64,0
1,43,64,0
1,50,64,0
1,55,64,0
1,52,64,63360
1,56,64,0
1,59,64,0
1,52,64,0
1,52,64,0
1,52,64,0
1,56,64,0
1,59,64,0
1,52,64,0
1,52,64,0
1,56,64,0
1,52,64,0
1,59,64,0
1,50,64,0
1,50,64,0
1,48,64,0
1,52,64,0
1,55,64,0
1,48,64,0
1,48,64,0
1,48,64,0
1,55,64,0
1,52,64,0
1,48,64,0
1,48,64,0
1,48,64,0
1,52,64,0
1,55,64,0
1,45,64,0
1,45,64,0
1,43,64,0
1,50,64,0
1,55,64,0
1,48,64,0
1,52,64,0
1,52,64,0
1,56,64,0
1,59,64,0
1,52,64,0
1,52,64,0
1,52,64,0
1,56,64,0
1,59,64,0
1,52,64,0
1,52,64,0
1,56,64,0
1,52,64,0
1,59,64,0
1,50,64,0
1,50,64,0
1,48,64,0
1,52,64,0
1,55,64,0
1,48,64,0
1,48,64,0
1,48,64,0
1,55,64,0
1,52,64,0
1,48,64,0
1,48,64,0
1,48,64,0
1,52,64,0
1,55,64,0
1,45,64,0
1,45,64,0
1,43,64,0
1,50,64,0
1,55,64,0
1,48,64,0
1,52,64,0
1,52,64,0
1,56,64,0
1,59,64,0
1,52,64,0
1,52,64,0
1,52,64,0
1,56,64,0
1,59,64,0
1,52,64,0
1,52,64,0
1,56,64,0
1,52,64,0
1,59,64,0
1,50,64,0
1,50,64,0
1,48,64,0
1,52,64,0
1,55,64,0
1,48,64,0
1,48,64,0
1,48,64,0
1,55,64,0
1,52,64,0
1,48,64,0
1,48,64,0
1,48,64,0
1,52,64,0
1,55,64,0
1,45,64,0
1,45,64,0
1,43,64,0
1,50,64,0
1,55,64,0
1,48,64,0
1,52,64,0
1,52,64,0
1,56,64,0
1,59,64,0
1,52,64,0
1,52,64,0
1,52,64,0
1,56,64,0
1,59,64,0
1,52,64,0
1,52,64,0
1,56,64,0
1,52,64,0
1,59,64,0
1,50,64,0
1,50,64,0
1,48,64,0
1,52,64,0
1,55,64,0
1,48,64,0
1,48,64,0
1,48,64,0
1,55,64,0
1,52,64,0
1,48,64,0
1,48,64,0
1,48,64,0
1,52,64,0
1,55,64,0
1,45,64,0
1,45,64,0
1,43,64,0
1,50,64,0
1,55,64,0
1,43,64,94080
1,47,64,0
1,43,64,0
1,47,64,0
1,47,64,0
1,44,64,0
1,40,64,0
1,40,64,0
1,44,64,0
1,47,64,0
1,40,64,0
1,44,64,0
1,47,64,0
1,40,64,0
1,44,64,0
1,47,64,0
1,64,64,0
1,60,64,0
1,67,64,0
1,60,64,0
1,64,64,0
1,67,64,0
1,64,64,0
1,57,64,0
1,64,64,0
1,57,64,0
1,64,64,0
1,57,64,0
1,64,64,0
1,57,64,0
1,62,64,0
1,64,64,0
1,69,64,0
1,62,64,0
1,64,64,0
1,69,64,0
1,62,64,0
1,64,64,0
1,69,64,0
1,62,64,0
1,64,64,0
1,69,64,0
1,62,64,0
1,64,64,0
1,69,64,0
1,64,64,0
1,66,64,0
1,59,64,0
1,59,64,0
1,64,64,0
1,66,64,0
1,59,64,0
1,64,64,0
1,66,64,0
1,57,64,240
1,57,64,0
1,57,64,0
1,55,64,0
1,59,64,0
1,40,64,0
1,55,64,0
1,59,64,0
1,56,64,0
1,59,64,0
1,52,64,0
1,56,64,0
1,59,64,0
1,52,64,0
1,56,64,0
1,59,64,0
1,52,64,0
1,56,64,0
1,59,64,0
1,52,64,0
1,60,64,0
1,64,64,0
1,67,64,0
1,60,64,0
1,67,64,0
1,64,64,0
1,64,64,0
1,57,64,0
1,64,64,0
1,57,64,0
1,64,64,0
1,57,64,0
1,64,64,0
1,57,64,0
1,62,64,0
1,64,64,0
1,69,64,0
1,62,64,0
1,64,64,0
1,69,64,0
1,64,64,0
1,66,64,0
1,59,64,0
1,64,64,0
1,66,64,0
1,59,64,0
1,64,64,0
1,66,64,0
1,59,64,0
1,56,64,0
1,52,64,0
1,56,64,0
1,52,64,0
1,52,64,0
1,56,64,0
1,59,64,0
1,64,64,0
1,52,64,0
1,57,64,0
1,50,64,0
1,55,64,0
1,59,64,0
1,50,64,0
1,55,64,0
1,59,64,0
1,50,64,0
1,55,64,0
1,59,64,0
1,50,64,0
1,55,64,0
1,59,64,0
1,54,64,0
1,59,64,0
1,64,64,0
1,64,64,0
1,59,64,0
1,59,64,0
1,64,64,0
1,64,64,0
1,59,64,0
1,59,64,0
1,64,64,0
1,64,64,0
1,59,64,0
1,54,64,0
1,60,64,0
1,64,64,0
1,60,64,0
1,64,64,0
1,60,64,0
1,64,64,0
1,60,64,0
1,64,64,0
1,54,64,0
1,59,64,0
1,64,64,0
1,62,64,0
1,69,64,0
1,62,64,0
1,64,64,0
1,69,64,0
1,62,64,0
1,64,64,0
1,69,64,0
1,62,64,0
1,64,64,0
1,69,64,0
1,62,64,0
1,64,64,0
1,69,64,0
1,66,64,0
1,64,64,0
1,66,64,0
1,67,64,0
1,67,64,0
1,67,64,0
1,66,64,0
1,64,64,0
1,64,64,0
1,71,64,0
1,76,64,0
1,64,64,0
1,71,64,0
1,76,64,0
1,64,64,0
1,71,64,0
1,76,64,0
1,64,64,0
1,71,64,0
1,76,64,0
1,64,64,0
1,71,64,0
1,76,64,0
1,64,64,0
1,71,64,0
1,76,64,0
1,64,64,0
1,71,64,0
1,76,64,0
1,64,64,0
1,71,64,0
1,76,64,0
1,64,64,0
1,67,64,0
1,74,64,0
1,64,64,0
1,67,64,0
1,74,64,0
1,64,64,0
1,67,64,0
1,74,64,0
1,64,64,0
1,67,64,0
1,74,64,0
1,64,64,0
1,67,64,0
1,74,64,0
1,64,64,0
1,67,64,0
1,74,64,0
1,64,64,0
1,67,64,0
1,74,64,0
1,64,64,0
1,67,64,0
1,74,64,0
1,64,64,0
1,69,64,0
1,76,64,0
1,64,64,0
1,69,64,0
1,76,64,0
1,64,64,0
1,69,64,0
1,76,64,0
1,64,64,0
1,69,64,0
1,76,64,0
1,64,64,0
1,69,64,0
1,76,64,0
1,64,64,0
1,69,64,0
1,76,64,0
1,64,64,0
1,69,64,0
1,76,64,0
1,64,64,0
1,69,64,0
1,76,64,0
1,67,64,0
1,66,64,0
1,64,64,0
1,67,64,0
1,64,64,0
1,66,64,0
1,64,64,0
1,64,64,0
1,52,64,0
2,52,64,7680
2,59,64,0
2,71,64,0
2,52,64,0
2,59,64,0
2,71,64,0
2,52,64,0
2,59,64,0
2,71,64,0
2,52,64,0
2,59,64,0
2,71,64,0
2,52,64,0
2,59,64,0
2,71,64,0
2,50,64,0
2,50,64,0
2,48,64,0
2,62,64,0
2,67,64,0
2,48,64,0
2,62,64,0
2,67,64,0
2,48,64,0
2,62,64,0
2,67,64,0
2,48,64,0
2,62,64,0
2,67,64,0
2,45,64,0
2,45,64,0
2,43,64,0
2,50,64,0
2,55,64,0
2,62,64,0
2,67,64,0
2,48,64,0
2,62,64,0
2,67,64,0
2,48,64,0
2,62,64,0
2,67,64,0
2,52,64,0
2,59,64,0
2,71,64,0
2,52,64,0
2,59,64,0
2,71,64,0
2,52,64,0
2,59,64,0
2,71,64,0
2,52,64,0
2,59,64,0
2,71,64,0
2,52,64,0
2,59,64,0
2,71,64,0
2,50,64,0
2,50,64,0
2,48,64,0
2,62,64,0
2,67,64,0
2,48,64,0
2,62,64,0
2,67,64,0
2,48,64,0
2,62,64,0
2,67,64,0
2,48,64,0
2,62,64,0
2,67,64,0
2,45,64,0
2,45,64,0
2,43,64,0
2,50,64,0
2,55,64,0
2,62,64,0
2,67,64,0
2,48,64,0
2,62,64,0
2,67,64,0
2,48,64,0
2,62,64,0
2,67,64,0
2,52,64,0
2,59,64,0
2,71,64,0
2,52,64,0
2,59,64,0
2,71,64,0
2,52,64,0
2,59,64,0
2,71,64,0
2,52,64,0
2,59,64,0
2,71,64,0
2,52,64,0
2,59,64,0
2,71,64,0
2,50,64,0
2,50,64,0
2,48,64,0
2,62,64,0
2,67,64,0
2,48,64,0
2,62,64,0
2,67,64,0
2,48,64,0
2,62,64,0
2,67,64,0
2,48,64,0
2,62,64,0
2,67,64,0
2,45,64,0
2,45,64,0
2,43,64,0
2,50,64,0
2,55,64,0
2,62,64,0
2,67,64,0
2,52,64,30720
2,56,64,0
2,59,64,0
2,52,64,0
2,56,64,0
2,59,64,0
2,52,64,0
2,56,64,0
2,59,64,0
2,52,64,0
2,56,64,0
2,59,64,0
2,48,64,0
2,52,64,0
2,48,64,0
2,52,64,0
2,55,64,0
2,59,64,0
2,48,64,0
2,52,64,0
2,55,64,0
2,59,64,0
2,48,64,0
2,52,64,0
2,55,64,0
2,59,64,0
2,50,64,0
2,54,64,0
2,55,64,0
2,50,64,0
2,54,64,0
2,55,64,0
2,50,64,0
2,54,64,0
2,55,64,0
2,50,64,0
2,49,64,0
2,45,64,0
2,49,64,0
2,50,64,0
2,45,64,0
2,45,64,0
2,45,64,0
2,49,64,0
2,50,64,0
2,45,64,0
2,45,64,0
2,45,64,0
2,44,64,0
2,40,64,0
2,40,64,0
2,52,64,0
2,56,64,0
2,59,64,0
2,52,64,0
2,56,64,0
2,59,64,0
2,52,64,0
2,56,64,0
2,59,64,0
2,48,64,0
2,52,64,0
2,55,64,0
2,59,64,0
2,48,64,0
2,52,64,0
2,55,64,0
2,59,64,0
2,48,64,0
2,52,64,0
2,55,64,0
2,59,64,0
2,48,64,0
2,52,64,0
2,55,64,0
2,59,64,0
2,50,64,0
2,54,64,0
2,55,64,0
2,50,64,0
2,54,64,0
2,55,64,0
2,50,64,0
2,54,64,0
2,55,64,0
2,50,64,0
2,49,64,0
2,45,64,0
2,49,64,0
2,50,64,0
2,45,64,0
2,45,64,0
2,45,64,0
2,49,64,0
2,50,64,0
2,45,64,0
2,45,64,0
2,45,64,0
2,44,64,0
2,52,64,23040
2,59,64,0
2,71,64,0
2,52,64,0
2,59,64,0
2,71,64,0
2,52,64,0
2,59,64,0
2,71,64,0
2,52,64,0
2,59,64,0
2,71,64,0
2,52,64,0
2,59,64,0
2,71,64,0
2,50,64,0
2,50,64,0
2,48,64,0
2,62,64,0
2,67,64,0
2,48,64,0
2,62,64,0
2,67,64,0
2,48,64,0
2,62,64,0
2,67,64,0
2,48,64,0
2,62,64,0
2,67,64,0
2,45,64,0
2,45,64,0
2,43,64,0
2,50,64,0
2,55,64,0
2,62,64,0
2,67,64,0
2,48,64,0
2,62,64,0
2,67,64,0
2,48,64,0
2,62,64,0
2,67,64,0
2,52,64,0
2,59,64,0
2,71,64,0
2,52,64,0
2,59,64,0
2,71,64,0
2,52,64,0
2,59,64,0
2,71,64,0
2,52,64,0
2,59,64,0
2,71,64,0
2,52,64,0
2,59,64,0
2,71,64,0
2,50,64,0
2,50,64,0
2,48,64,0
2,62,64,0
2,67,64,0
2,48,64,0
2,62,64,0
2,67,64,0
2,48,64,0
2,62,64,0
2,67,64,0
2,48,64,0
2,62,64,0
2,67,64,0
2,45,64,0
2,45,64,0
2,43,64,0
2,50,64,0
2,55,64,0
2,62,64,0
2,67,64,0
2,48,64,0
2,62,64,0
2,67,64,0
2,48,64,0
2,62,64,0
2,67,64,0
2,52,64,0
2,59,64,0
2,71,64,0
2,52,64,0
2,59,64,0
2,71,64,0
2,52,64,0
2,59,64,0
2,71,64,0
2,52,64,0
2,59,64,0
2,71,64,0
2,52,64,0
2,59,64,0
2,71,64,0
2,50,64,0
2,50,64,0
2,48,64,0
2,62,64,0
2,67,64,0
2,48,64,0
2,62,64,0
2,67,64,0
2,48,64,0
2,62,64,0
2,67,64,0
2,48,64,0
2,62,64,0
2,67,64,0
2,45,64,0
2,45,64,0
2,43,64,0
2,50,64,0
2,55,64,0
2,62,64,0
2,67,64,0
2,52,64,30720
2,56,64,0
2,59,64,0
2,52,64,0
2,56,64,0
2,59,64,0
2,52,64,0
2,56,64,0
2,59,64,0
2,52,64,0
2,56,64,0
2,59,64,0
2,48,64,0
2,52,64,0
2,48,64,0
2,52,64,0
2,55,64,0
2,59,64,0
2,48,64,0
2,52,64,0
2,55,64,0
2,59,64,0
2,48,64,0
2,52,64,0
2,55,64,0
2,59,64,0
2,50,64,0
2,54,64,0
2,55,64,0
2,50,64,0
2,54,64,0
2,55,64,0
2,50,64,0
2,54,64,0
2,55,64,0
2,50,64,0
2,49,64,0
2,45,64,0
2,49,64,0
2,50,64,0
2,45,64,0
2,45,64,0
2,45,64,0
2,49,64,0
2,50,64,0
2,45,64,0
2,45,64,0
2,45,64,0
2,44,64,0
2,40,64,0
2,40,64,0
2,52,64,0
2,56,64,0
2,59,64,0
2,52,64,0
2,56,64,0
2,59,64,0
2,52,64,0
2,56,64,0
2,59,64,0
2,48,64,0
2,52,64,0
2,55,64,0
2,59,64,0
2,48,64,0
2,52,64,0
2,55,64,0
2,59,64,0
2,48,64,0
2,52,64,0
2,55,64,0
2,59,64,0
2,48,64,0
2,52,64,0
2,55,64,0
2,59,64,0
2,50,64,0
2,54,64,0
2,55,64,0
2,50,64,0
2,54,64,0
2,55,64,0
2,50,64,0
2,54,64,0
2,55,64,0
2,50,64,0
2,49,64,0
2,45,64,0
2,49,64,0
2,50,64,0
2,45,64,0
2,45,64,0
2,45,64,0
2,49,64,0
2,50,64,0
2,45,64,0
2,45,64,0
2,45,64,0
2,44,64,0
2,52,64,15360
2,56,64,0
2,59,64,0
2,52,64,0
2,56,64,0
2,59,64,0
2,52,64,0
2,56,64,0
2,59,64,0
2,52,64,0
2,56,64,0
2,59,64,0
2,48,64,0
2,52,64,0
2,48,64,0
2,52,64,0
2,55,64,0
2,59,64,0
2,48,64,0
2,52,64,0
2,55,64,0
2,59,64,0
2,48,64,0
2,52,64,0
2,55,64,0
2,59,64,0
2,50,64,0
2,54,64,0
2,55,64,0
2,50,64,0
2,54,64,0
2,55,64,0
2,50,64,0
