track,note,velocity,time
1,66,80,7680
1,66,80,96
1,57,80,24
1,57,80,48
1,62,80,96
1,62,80,24
1,57,80,48
1,62,80,48
1,62,80,48
1,62,80,48
1,64,80,24
1,62,80,24
1,66,80,264
1,66,80,48
1,66,80,48
1,66,80,48
1,67,80,24
1,66,80,24
1,66,80,24
1,66,80,48
1,57,80,48
1,62,80,264
1,62,80,24
1,64,80,48
1,62,80,24
1,66,80,384
1,66,80,96
1,57,80,24
1,57,80,48
1,62,80,96
1,62,80,24
1,57,80,48
1,62,80,48
1,62,80,48
1,62,80,48
1,64,80,24
1,62,80,24
1,66,80,96
1,66,80,72
1,66,80,48
1,66,80,48
1,66,80,24
1,67,80,48
1,66,80,24
1,66,80,24
1,57,80,312
1,62,80,24
1,62,80,48
1,62,80,24
1,64,80,48
1,62,80,24
1,62,80,96
1,62,80,24
1,59,80,48
1,57,80,696
1,57,80,24
1,62,80,48
1,62,80,48
1,57,80,24
1,57,80,696
1,57,80,24
1,57,80,24
1,62,80,24
1,62,80,48
1,62,80,24
1,59,80,24
1,57,80,816
1,62,80,24
1,62,80,48
1,57,80,24
1,66,80,1536
1,66,80,96
1,57,80,24
1,57,80,48
1,62,80,96
1,62,80,24
1,57,80,48
1,62,80,288
1,62,80,24
1,64,80,48
1,62,80,24
1,66,80,264
1,66,80,48
1,66,80,48
1,66,80,24
1,67,80,48
1,66,80,24
1,66,80,24
1,57,80,24
1,57,80,48
1,62,80,96
1,62,80,24
1,64,80,48
1,62,80,24
1,66,80,264
1,64,80,24
1,64,80,48
1,69,80,48
1,66,80,48
1,62,80,72
1,57,80,48
1,57,80,24
1,57,80,24
1,66,80,24
1,64,80,24
1,64,80,48
1,62,80,48
1,62,80,24
1,62,80,24
1,61,80,24
1,61,80,24
1,61,80,48
1,61,80,72
1,62,80,24
1,62,80,144
1,57,80,24
1,66,80,552
1,64,80,24
1,64,80,48
1,62,80,48
1,61,80,24
1,62,80,96
1,62,80,24
1,59,80,48
1,57,80,696
1,57,80,24
1,62,80,48
1,62,80,48
1,57,80,24
1,57,80,696
1,57,80,24
1,57,80,24
1,62,80,24
1,62,80,48
1,62,80,24
1,59,80,24
1,57,80,816
1,62,80,24
1,62,80,48
1,57,80,24
1,62,80,696
1,62,80,24
1,62,80,48
1,62,80,24
1,59,80,24
1,57,80,816
1,62,80,24
1,62,80,24
1,57,80,48
1,57,80,696
1,57,80,24
1,62,80,24
1,62,80,48
1,62,80,24
1,59,80,24
1,57,80,816
1,62,80,24
1,62,80,48
1,57,80,24
1,64,80,1296
1,66,80,24
1,67,80,24
1,67,80,48
1,66,80,24
1,64,80,48
1,66,80,24
1,64,80,48
1,66,80,24
1,69,80,24
1,69,80,24
1,66,80,24
1,64,80,48
1,64,80,192
1,66,80,48
1,67,80,48
1,67,80,48
1,66,80,24
1,64,80,48
1,66,80,24
1,64,80,48
1,66,80,24
1,69,80,24
1,69,80,24
1,66,80,24
1,64,80,48
1,64,80,192
1,66,80,48
1,67,80,48
1,67,80,48
1,66,80,24
1,64,80,48
1,66,80,24
1,64,80,48
1,66,80,24
1,69,80,24
1,69,80,24
1,66,80,24
1,64,80,48
1,64,80,192
1,66,80,48
1,67,80,48
1,66,80,24
1,64,80,48
1,66,80,24
1,64,80,24
1,61,80,672
1,61,80,24
1,57,80,48
1,61,80,648
1,57,80,24
1,61,80,24
1,61,80,48
1,61,80,24
1,57,80,48
1,64,80,888
1,64,80,72
1,64,80,24
1,64,80,48
1,62,80,24
1,62,80,336
1,64,80,24
1,62,80,24
1,64,80,24
1,62,80,24
1,64,80,24
1,64,80,48
1,64,80,48
1,61,80,24
1,57,80,48
1,62,80,576
1,62,80,24
1,59,80,48
1,57,80,696
1,57,80,24
1,57,80,24
1,62,80,24
1,62,80,48
1,57,80,24
1,57,80,696
1,57,80,24
1,57,80,24
1,62,80,24
1,62,80,48
1,62,80,24
1,59,80,24
1,55,80,96
1,55,80,48
1,55,80,264
1,62,80,24
1,62,80,48
1,57,80,24
1,62,80,696
1,62,80,24
1,62,80,24
1,62,80,48
1,59,80,24
1,62,80,576
1,62,80,48
1,62,80,24
1,57,80,48
1,62,80,696
1,62,80,24
1,62,80,48
1,62,80,24
1,59,80,24
1,55,80,96
1,55,80,48
1,55,80,144
1,55,80,24
1,62,80,24
1,62,80,48
1,57,80,24
1,62,80,216
1,64,80,48
1,62,80,24
1,66,80,384
1,64,80,24
1,64,80,48
1,69,80,24
1,66,80,24
1,62,80,24
1,62,80,24
1,57,80,24
1,66,80,24
1,64,80,24
1,62,80,48
1,62,80,48
1,61,80,48
1,62,80,48
1,61,80,24
1,57,80,24
1,66,80,96
1,64,80,24
1,64,80,48
1,69,80,24
1,66,80,24
1,62,80,24
1,62,80,24
1,57,80,24
1,66,80,24
1,64,80,24
1,62,80,48
1,62,80,48
1,61,80,48
1,62,80,48
1,61,80,24
1,57,80,24
2,62,80,21120
2,69,80,48
2,69,80,48
2,69,80,24
2,69,80,48
2,69,80,96
2,69,80,24
2,67,80,48
2,64,80,696
2,64,80,24
2,66,80,48
2,66,80,48
2,66,80,24
2,64,80,696
2,64,80,24
2,64,80,24
2,66,80,24
2,66,80,48
2,66,80,24
2,62,80,24
2,64,80,816
2,66,80,24
2,66,80,48
2,66,80,24
2,69,80,14976
2,69,80,24
2,69,80,48
2,69,80,48
2,69,80,24
2,69,80,96
2,69,80,24
2,67,80,48
2,64,80,696
2,64,80,24
2,66,80,48
2,66,80,48
2,66,80,24
2,64,80,696
2,64,80,24
2,64,80,24
2,66,80,24
2,66,80,48
2,66,80,24
2,62,80,24
2,64,80,816
2,66,80,24
2,66,80,48
2,66,80,24
2,74,80,120
2,73,80,72
2,69,80,0
2,69,80,384
2,74,80,0
2,67,80,24
2,74,80,384
2,69,80,0
2,73,80,24
2,69,80,0
2,74,80,384
2,69,80,0
2,67,80,24
2,66,80,24
2,74,80,0
2,66,80,48
2,74,80,0
2,66,80,24
2,74,80,0
2,69,80,24
2,73,80,0
2,61,80,7584
2,61,80,48
2,62,80,48
2,62,80,48
2,62,80,24
2,62,80,48
2,62,80,24
2,62,80,48
2,62,80,24
2,64,80,24
2,61,80,192
2,61,80,48
2,62,80,48
2,62,80,24
2,59,80,48
2,62,80,24
2,57,80,24
2,57,80,8352
2,57,80,24
2,55,80,48
2,64,80,696
2,64,80,24
2,66,80,48
2,66,80,48
2,66,80,24
2,64,80,696
2,64,80,24
2,64,80,24
2,66,80,24
2,66,80,48
2,66,80,24
2,62,80,24
2,64,80,816
2,66,80,24
2,66,80,48
2,66,80,24
2,74,80,120
2,69,80,72
2,73,80,0
2,74,80,384
2,69,80,0
2,67,80,24
2,69,80,384
2,74,80,0
2,69,80,24
2,73,80,0
2,69,80,384
2,74,80,0
2,67,80,24
2,69,80,72
2,74,80,24
2,66,80,0
2,74,80,48
2,66,80,0
2,74,80,24
2,66,80,0
2,73,80,24
2,69,80,0
2,69,80,384
2,74,80,0
2,67,80,24
2,74,80,0
2,69,80,384
2,76,80,0
2,74,80,96
2,73,80,96
2,74,80,384
2,69,80,0
2,74,80,24
2,67,80,0
2,76,80,384
2,69,80,0
2,74,80,96
2,73,80,96
3,40,127,0
3,66,127,0
3,62,127,0
3,55,127,0
3,66,127,0
3,62,127,0
3,55,127,0
3,66,127,0
3,62,127,0
3,50,127,0
3,66,127,0
3,62,127,0
3,50,127,0
3,66,127,0
3,62,127,0
3,50,127,0
3,66,127,0
3,62,127,0
3,50,127,0
3,50,127,0
3,62,127,0
3,66,127,0
3,66,127,0
3,62,127,0
3,50,127,0
3,59,127,0
3,55,127,0
3,45,127,0
3,45,127,53
3,55,127,0
3,59,127,0
3,57,127,53
3,47,127,0
3,64,127,0
3,62,127,0
3,57,127,0
3,47,127,0
3,64,127,0
3,62,127,0
3,57,127,0
3,47,127,0
3,64,127,0
3,62,127,0
3,57,127,0
3,47,127,0
3,64,127,0
3,61,127,0
3,57,127,0
3,52,127,0
3,64,127,0
3,61,127,0
3,57,127,0
3,52,127,0
3,64,127,0
3,61,127,0
3,57,127,0
3,52,127,0
3,64,127,0
3,61,127,0
3,57,127,0
3,52,127,0
3,64,127,0
3,61,127,0
3,57,127,0
3,52,127,0
3,64,127,0
3,61,127,0
3,57,127,0
3,52,127,0
3,64,127,0
3,59,127,0
3,55,127,0
3,50,127,0
3,45,127,0
3,40,127,113
3,55,127,0
3,62,127,0
3,66,127,0
3,55,127,0
3,62,127,0
3,66,127,0
3,55,127,0
3,62,127,0
3,66,127,0
3,50,127,0
3,62,127,0
3,66,127,0
3,50,127,0
3,62,127,0
3,66,127,0
3,50,127,0
3,62,127,0
3,66,127,0
3,50,127,0
3,62,127,0
3,66,127,0
3,50,127,0
3,62,127,0
3,66,127,0
3,50,127,0
3,62,127,0
3,66,127,0
3,45,127,0
3,55,127,0
3,59,127,0
3,59,127,53
3,55,127,0
3,45,127,0
3,47,127,53
3,57,127,0
3,62,127,0
3,47,127,0
3,57,127,0
3,62,127,0
3,64,127,0
3,47,127,0
3,57,127,0
3,62,127,0
3,64,127,0
3,47,127,0
3,57,127,0
3,62,127,0
3,64,127,0
3,52,127,0
3,57,127,0
3,61,127,0
3,64,127,0
3,52,127,0
3,57,127,0
3,61,127,0
3,64,127,0
3,52,127,0
3,57,127,0
3,61,127,0
3,64,127,0
3,52,127,0
3,57,127,0
3,61,127,0
3,64,127,0
3,52,127,0
3,57,127,0
3,61,127,0
3,64,127,0
3,52,127,0
3,57,127,0
3,61,127,0
3,64,127,0
3,45,127,0
3,50,127,0
3,55,127,0
3,59,127,0
3,64,127,0
3,40,127,0
3,66,127,0
3,62,127,0
3,55,127,0
3,66,127,0
3,62,127,0
3,55,127,0
3,66,127,0
3,62,127,0
3,55,127,0
3,66,127,0
3,62,127,0
3,50,127,0
3,66,127,0
3,62,127,0
3,50,127,0
3,66,127,0
3,62,127,0
3,50,127,0
3,66,127,0
3,62,127,0
3,50,127,0
3,66,127,0
3,62,127,0
3,50,127,0
3,66,127,0
3,62,127,0
3,50,127,0
3,59,127,0
3,55,127,0
3,45,127,0
3,45,127,53
3,55,127,0
3,59,127,0
3,47,127,53
3,57,127,0
3,62,127,0
3,47,127,0
3,57,127,0
3,62,127,0
3,64,127,0
3,47,127,0
3,57,127,0
3,62,127,0
3,64,127,0
3,47,127,0
3,57,127,0
3,62,127,0
3,64,127,0
3,52,127,0
3,57,127,0
3,61,127,0
3,64,127,0
3,52,127,0
3,57,127,0
3,61,127,0
3,64,127,0
3,52,127,0
3,57,127,0
3,61,127,0
3,64,127,0
3,52,127,0
3,57,127,0
3,61,127,0
3,64,127,0
3,52,127,0
3,57,127,0
3,61,127,0
3,64,127,0
3,52,127,0
3,57,127,0
3,61,127,0
3,64,127,0
3,45,127,0
3,50,127,0
3,55,127,0
3,59,127,0
3,64,127,0
3,40,127,0
3,66,127,0
3,62,127,0
3,55,127,0
3,66,127,0
3,62,127,0
3,55,127,0
3,66,127,0
3,62,127,0
3,55,127,0
3,66,127,0
3,62,127,0
3,50,127,0
3,66,127,0
3,62,127,0
3,50,127,0
3,66,127,0
3,62,127,0
3,50,127,0
3,66,127,0
3,62,127,0
3,50,127,0
3,66,127,0
3,62,127,0
3,50,127,0
3,66,127,0
3,62,127,0
3,50,127,0
3,59,127,0
3,55,127,0
3,45,127,0
3,45,127,53
3,55,127,0
3,59,127,0
3,47,127,53
3,57,127,0
3,62,127,0
3,47,127,0
3,57,127,0
3,62,127,0
3,64,127,0
3,47,127,0
3,57,127,0
3,62,127,0
3,64,127,0
3,47,127,0
3,57,127,0
3,62,127,0
3,64,127,0
3,52,127,0
3,57,127,0
3,61,127,0
3,64,127,0
3,52,127,0
3,57,127,0
3,61,127,0
3,64,127,0
3,52,127,0
3,57,127,0
3,61,127,0
3,64,127,0
3,52,127,0
3,57,127,0
3,61,127,0
3,64,127,0
3,52,127,0
3,57,127,0
3,61,127,0
3,64,127,0
3,52,127,0
3,57,127,0
3,61,127,0
3,64,127,0
3,45,127,0
3,50,127,0
3,55,127,0
3,59,127,0
3,64,127,0
3,40,127,0
3,66,127,0
3,62,127,0
3,55,127,0
3,66,127,0
3,62,127,0
3,55,127,0
3,66,127,0
3,62,127,0
3,55,127,0
3,66,127,0
3,62,127,0
3,50,127,0
3,66,127,0
3,62,127,0
3,50,127,0
3,66,127,0
3,62,127,0
3,50,127,0
3,66,127,0
3,62,127,0
3,50,127,0
3,66,127,0
3,62,127,0
3,50,127,0
3,66,127,0
3,62,127,0
3,50,127,0
3,59,127,0
3,55,127,0
3,45,127,0
3,45,127,53
3,55,127,0
3,59,127,0
3,47,127,53
3,57,127,0
3,62,127,0
3,47,127,0
3,57,127,0
3,62,127,0
3,64,127,0
3,47,127,0
3,57,127,0
3,62,127,0
3,64,127,0
3,47,127,0
3,57,127,0
3,62,127,0
3,64,127,0
3,52,127,0
3,57,127,0
3,61,127,0
3,64,127,0
3,52,127,0
3,57,127,0
3,61,127,0
3,64,127,0
3,52,127,0
3,57,127,0
3,61,127,0
3,64,127,0
3,52,127,0
3,57,127,0
3,61,127,0
3,64,127,0
3,52,127,0
3,57,127,0
3,61,127,0
3,64,127,0
3,52,127,0
3,57,127,0
3,61,127,0
3,64,127,0
3,45,127,0
3,50,127,0
3,55,127,0
3,59,127,0
3,64,127,0
3,40,127,0
3,66,127,0
3,62,127,0
3,55,127,0
3,66,127,0
3,62,127,0
3,55,127,0
3,66,127,0
3,62,127,0
3,55,127,0
3,66,127,0
3,62,127,0
3,50,127,0
3,66,127,0
3,62,127,0
3,50,127,0
3,66,127,0
3,62,127,0
3,50,127,0
3,66,127,0
3,62,127,0
3,50,127,0
3,66,127,0
3,62,127,0
3,50,127,0
3,66,127,0
3,62,127,0
3,50,127,0
3,59,127,0
3,55,127,0
3,45,127,0
3,45,127,53
3,55,127,0
3,59,127,0
3,47,127,53
3,57,127,0
3,62,127,0
3,47,127,0
3,57,127,0
3,62,127,0
3,64,127,0
3,47,127,0
3,57,127,0
3,62,127,0
3,64,127,0
3,47,127,0
3,57,127,0
3,62,127,0
3,64,127,0
3,52,127,0
3,57,127,0
3,61,127,0
3,64,127,0
3,52,127,0
3,57,127,0
3,61,127,0
3,64,127,0
3,57,127,0
3,52,127,0
3,61,127,0
3,64,127,0
3,64,127,0
3,61,127,0
3,57,127,0
3,52,127,0
3,64,127,0
3,61,127,0
3,57,127,0
3,52,127,0
3,64,127,0
3,61,127,0
3,52,127,0
3,57,127,0
3,59,127,0
3,64,127,0
3,55,127,0
3,50,127,0
3,45,127,0
3,43,127,113
3,59,127,0
3,67,127,0
3,62,127,0
3,55,127,0
3,55,127,0
3,62,127,0
3,67,127,0
3,59,127,0
3,55,127,0
3,62,127,0
3,67,127,0
3,59,127,0
3,59,127,0
3,67,127,0
3,62,127,0
3,55,127,0
3,52,127,0
3,59,127,0
3,64,127,0
3,55,127,0
3,64,127,0
3,55,127,0
3,59,127,0
3,52,127,0
3,55,127,0
3,64,127,0
3,59,127,0
3,52,127,0
3,64,127,0
3,59,127,0
3,52,127,0
3,55,127,0
3,64,127,0
3,59,127,0
3,52,127,0
3,55,127,0
3,55,127,0
3,64,127,0
3,59,127,0
3,52,127,0
3,52,127,0
3,59,127,0
3,64,127,0
3,55,127,0
3,54,127,0
3,62,127,0
3,57,127,0
3,50,127,0
3,54,127,0
3,62,127,0
3,57,127,0
3,50,127,0
3,54,127,0
3,62,127,0
3,57,127,0
3,50,127,0
3,50,127,0
3,57,127,0
3,62,127,0
3,54,127,0
3,50,127,0
3,57,127,0
3,62,127,0
3,54,127,0
3,57,127,0
3,52,127,0
3,49,127,0
3,45,127,0
3,57,127,0
3,52,127,0
3,49,127,0
3,45,127,0
3,45,127,0
3,57,127,0
3,52,127,0
3,49,127,0
3,57,127,0
3,52,127,0
3,49,127,0
3,45,127,0
3,57,127,0
3,52,127,0
3,49,127,0
3,45,127,0
3,57,127,0
