track,note,velocity,time
3,62,120,1344
3,74,120,0
3,72,120,0
3,72,120,0
3,71,120,0
3,71,120,0
3,69,120,0
3,67,120,0
3,69,120,0
3,74,120,0
3,74,120,0
3,74,120,0
3,74,120,0
3,74,120,0
3,72,120,0
3,72,120,0
3,72,120,0
3,72,120,0
3,71,120,0
3,71,120,0
3,69,120,0
3,67,120,0
3,62,120,0
3,74,120,192
3,74,120,0
3,74,120,0
3,72,120,0
3,72,120,0
3,72,120,0
3,71,120,0
3,71,120,0
3,69,120,0
3,67,120,0
3,69,120,0
3,71,120,192
3,69,120,0
3,67,120,0
3,64,120,0
3,67,120,0
3,64,120,0
3,67,120,0
3,66,120,0
3,64,120,0
3,69,120,0
3,67,120,1152
3,64,120,0
3,67,120,0
3,64,120,0
3,67,120,0
3,66,120,0
3,64,120,0
3,66,120,0
3,64,120,0
3,62,120,0
3,74,120,1920
3,76,120,0
3,74,120,0
3,74,120,0
3,74,120,0
3,72,120,0
3,71,120,0
3,69,120,0
3,69,120,0
3,71,120,0
3,72,120,0
3,71,120,0
3,72,120,0
3,71,120,0
3,72,120,0
3,71,120,0
3,67,120,0
3,69,120,0
3,67,120,768
3,67,120,0
3,67,120,0
3,66,120,0
3,67,120,0
3,66,120,0
3,62,120,0
3,76,120,1536
3,74,120,0
3,76,120,0
3,74,120,0
3,74,120,0
3,74,120,0
3,71,120,0
3,71,120,0
3,74,120,0
3,74,120,0
3,76,120,0
3,71,120,0
3,74,120,0
3,69,120,0
3,74,120,576
3,72,120,0
3,71,120,0
3,69,120,0
3,72,120,0
3,71,120,0
3,67,120,192
3,64,120,0
3,67,120,0
3,64,120,0
3,67,120,0
3,64,120,0
3,67,120,0
3,71,120,384
3,71,120,0
3,72,120,0
3,71,120,0
3,69,120,0
3,71,120,0
3,71,120,768
3,72,120,0
3,76,120,0
3,71,120,0
3,71,120,0
3,71,120,0
3,72,120,0
3,71,120,0
3,74,120,0
3,72,120,0
3,71,120,0
3,76,120,0
3,71,120,0
3,71,120,0
3,71,120,0
3,72,120,0
3,71,120,0
3,74,120,0
3,71,120,192
3,72,120,0
3,71,120,0
3,69,120,0
3,67,120,0
3,67,120,0
3,71,120,0
3,69,120,0
3,79,120,192
3,79,120,0
3,79,120,0
3,79,120,0
3,79,120,0
3,79,120,0
3,81,120,0
3,78,120,0
3,74,120,0
3,86,120,0
3,81,120,0
3,79,120,0
3,76,120,0
3,79,120,0
3,76,120,0
3,74,120,0
3,74,120,0
3,74,120,0
3,71,120,0
3,74,120,0
3,74,120,0
3,76,120,0
3,71,120,0
3,71,120,0
3,69,120,0
3,71,120,0
3,72,120,0
3,71,120,0
3,72,120,0
3,71,120,0
3,74,120,0
3,71,120,0
3,69,120,0
3,71,120,0
3,71,120,192
3,71,120,0
3,79,120,0
3,76,120,0
3,74,120,0
3,74,120,0
3,74,120,0
3,76,120,0
3,74,120,0
3,71,120,0
3,67,120,0
3,67,120,0
3,71,120,768
3,72,120,0
3,71,120,0
3,67,120,0
3,74,120,1344
3,74,120,0
3,74,120,0
3,76,120,0
3,74,120,0
3,74,120,0
3,72,120,0
3,72,120,0
3,71,120,0
3,71,120,0
3,69,120,0
3,67,120,0
3,69,120,0
3,74,120,0
3,74,120,0
3,74,120,0
3,74,120,0
3,74,120,0
3,72,120,0
3,72,120,0
3,72,120,0
3,72,120,0
3,71,120,0
3,71,120,0
3,69,120,0
3,67,120,0
3,62,120,0
3,74,120,192
3,74,120,0
3,74,120,0
3,72,120,0
3,72,120,0
3,72,120,0
3,71,120,0
3,71,120,0
3,69,120,0
3,67,120,0
3,69,120,0
3,71,120,192
3,69,120,0
3,67,120,0
3,64,120,0
3,67,120,0
3,64,120,0
3,67,120,0
3,66,120,0
3,64,120,0
3,69,120,0
3,67,120,1152
3,64,120,0
3,67,120,0
3,64,120,0
3,67,120,0
3,66,120,0
3,64,120,0
3,66,120,0
3,64,120,0
3,62,120,0
3,74,120,1920
3,76,120,0
3,74,120,0
3,74,120,0
3,74,120,0
3,72,120,0
3,71,120,0
3,69,120,0
3,69,120,0
3,71,120,0
3,72,120,0
3,71,120,0
3,72,120,0
3,71,120,0
3,72,120,0
3,71,120,0
3,67,120,0
3,69,120,0
3,67,120,768
3,67,120,0
3,67,120,0
3,66,120,0
3,67,120,0
3,66,120,0
3,62,120,0
3,76,120,1536
3,74,120,0
3,76,120,0
3,74,120,0
3,74,120,0
3,74,120,0
3,71,120,0
3,71,120,0
3,74,120,0
3,74,120,0
3,76,120,0
3,71,120,0
3,74,120,0
3,69,120,0
3,74,120,576
3,72,120,0
3,71,120,0
3,69,120,0
3,72,120,0
3,71,120,0
3,67,120,192
3,64,120,0
3,67,120,0
3,64,120,0
3,67,120,0
3,64,120,0
3,67,120,0
3,71,120,384
3,71,120,0
3,72,120,0
3,71,120,0
3,69,120,0
3,71,120,0
3,71,120,768
3,72,120,0
3,76,120,0
3,71,120,0
3,71,120,0
3,71,120,0
3,72,120,0
3,71,120,0
3,74,120,0
3,72,120,0
3,71,120,0
3,76,120,0
3,71,120,0
3,71,120,0
3,71,120,0
3,72,120,0
3,71,120,0
3,74,120,0
3,71,120,192
3,72,120,0
3,71,120,0
3,69,120,0
3,67,120,0
3,67,120,0
3,71,120,0
3,69,120,0
3,79,120,192
3,79,120,0
3,79,120,0
3,79,120,0
3,79,120,0
3,79,120,0
3,81,120,0
3,78,120,0
3,74,120,0
3,86,120,0
3,81,120,0
3,79,120,0
3,76,120,0
3,79,120,0
3,76,120,0
3,74,120,0
3,74,120,0
3,74,120,0
3,71,120,0
3,74,120,0
3,74,120,0
3,76,120,0
3,71,120,0
3,71,120,0
3,69,120,0
3,71,120,0
3,72,120,0
3,71,120,0
3,72,120,0
3,71,120,0
3,74,120,0
3,71,120,0
3,69,120,0
3,71,120,0
3,71,120,192
3,71,120,0
3,79,120,0
3,76,120,0
3,74,120,0
3,74,120,0
3,74,120,0
3,76,120,0
3,74,120,0
3,71,120,0
3,67,120,0
3,67,120,0
3,71,120,768
3,72,120,0
3,71,120,0
3,67,120,0
3,74,120,1344
3,74,120,0
3,74,120,0
3,76,120,0
3,74,120,0
3,74,120,0
3,72,120,0
3,72,120,0
3,71,120,0
3,71,120,0
3,69,120,0
3,67,120,0
3,69,120,0
3,74,120,0
3,74,120,0
3,74,120,0
3,74,120,0
3,74,120,0
3,72,120,0
3,72,120,0
3,72,120,0
3,72,120,0
3,71,120,0
3,71,120,0
3,69,120,0
3,67,120,0
3,62,120,0
3,74,120,192
3,74,120,0
3,74,120,0
3,72,120,0
3,72,120,0
3,72,120,0
3,71,120,0
3,71,120,0
3,69,120,0
3,67,120,0
3,69,120,0
3,71,120,192
3,69,120,0
3,67,120,0
3,64,120,0
3,67,120,0
3,64,120,0
3,67,120,0
3,66,120,0
3,64,120,0
3,69,120,0
3,67,120,1152
3,64,120,0
3,67,120,0
3,64,120,0
3,67,120,0
3,66,120,0
3,64,120,0
3,66,120,0
3,64,120,0
3,62,120,0
3,74,120,1920
3,76,120,0
3,74,120,0
3,74,120,0
3,74,120,0
3,72,120,0
3,71,120,0
3,69,120,0
3,69,120,0
3,71,120,0
3,72,120,0
3,71,120,0
3,72,120,0
3,71,120,0
3,72,120,0
3,71,120,0
3,67,120,0
3,69,120,0
3,67,120,768
3,67,120,0
3,67,120,0
3,66,120,0
3,67,120,0
3,66,120,0
3,62,120,0
3,76,120,1536
3,74,120,0
3,76,120,0
3,74,120,0
3,74,120,0
3,74,120,0
3,71,120,0
3,71,120,0
3,74,120,0
3,74,120,0
3,76,120,0
3,71,120,0
3,74,120,0
3,69,120,0
3,74,120,576
3,72,120,0
3,71,120,0
3,69,120,0
3,72,120,0
3,71,120,0
3,67,120,192
3,64,120,0
3,67,120,0
3,64,120,0
3,67,120,0
3,64,120,0
3,67,120,0
3,71,120,384
3,71,120,0
3,72,120,0
3,71,120,0
3,69,120,0
3,71,120,0
3,71,120,768
3,72,120,0
3,76,120,0
3,71,120,0
3,71,120,0
3,71,120,0
3,72,120,0
3,71,120,0
3,74,120,0
3,72,120,0
3,71,120,0
3,76,120,0
3,71,120,0
3,71,120,0
3,71,120,0
3,72,120,0
3,71,120,0
3,74,120,0
3,71,120,192
3,72,120,0
3,71,120,0
3,69,120,0
3,67,120,0
3,67,120,0
3,71,120,0
3,69,120,0
3,79,120,192
3,79,120,0
3,79,120,0
3,79,120,0
3,79,120,0
3,79,120,0
3,81,120,0
3,78,120,0
3,74,120,0
3,86,120,0
3,81,120,0
3,79,120,0
3,76,120,0
3,79,120,0
3,76,120,0
3,74,120,0
3,74,120,0
3,74,120,0
3,71,120,0
3,74,120,0
3,74,120,0
3,76,120,0
3,71,120,0
3,71,120,0
3,69,120,0
3,71,120,0
3,72,120,0
3,71,120,0
3,72,120,0
3,71,120,0
3,74,120,0
3,71,120,0
3,69,120,0
3,71,120,0
3,71,120,192
3,71,120,0
3,79,120,0
3,76,120,0
3,74,120,0
3,74,120,0
3,74,120,0
3,76,120,0
3,74,120,0
3,71,120,0
3,67,120,0
3,67,120,0
3,71,120,768
3,72,120,0
3,71,120,0
3,67,120,0
3,74,120,1344
3,74,120,0
3,74,120,0
3,76,120,0
3,74,120,0
3,74,120,0
3,72,120,0
3,72,120,0
3,71,120,0
3,71,120,0
3,69,120,0
3,67,120,0
3,69,120,0
3,74,120,0
3,74,120,0
3,74,120,0
3,74,120,0
3,74,120,0
3,72,120,0
3,72,120,0
3,72,120,0
3,72,120,0
3,71,120,0
3,71,120,0
3,69,120,0
3,67,120,0
3,62,120,0
3,74,120,192
3,74,120,0
3,74,120,0
3,72,120,0
3,72,120,0
3,72,120,0
3,71,120,0
3,71,120,0
3,69,120,0
3,67,120,0
3,69,120,0
3,71,120,192
3,69,120,0
3,67,120,0
3,64,120,0
3,67,120,0
3,64,120,0
3,67,120,0
3,66,120,0
3,64,120,0
3,69,120,0
3,67,120,1152
3,64,120,0
3,67,120,0
3,64,120,0
3,67,120,0
3,66,120,0
3,64,120,0
3,66,120,0
3,64,120,0
3,62,120,0
3,74,120,1920
3,76,120,0
3,74,120,0
3,74,120,0
3,74,120,0
3,72,120,0
3,71,120,0
3,69,120,0
3,69,120,0
3,71,120,0
3,72,120,0
3,71,120,0
3,72,120,0
3,71,120,0
3,72,120,0
3,71,120,0
3,67,120,0
3,69,120,0
3,67,120,768
3,67,120,0
3,67,120,0
3,66,120,0
3,67,120,0
3,66,120,0
3,62,120,0
3,76,120,1536
3,74,120,0
3,76,120,0
3,74,120,0
3,74,120,0
3,74,120,0
3,71,120,0
3,71,120,0
3,74,120,0
3,74,120,0
3,76,120,0
3,71,120,0
3,74,120,0
3,69,120,0
3,74,120,576
3,72,120,0
3,71,120,0
3,69,120,0
3,72,120,0
3,71,120,0
3,67,120,192
3,64,120,0
3,67,120,0
3,64,120,0
3,67,120,0
3,64,120,0
3,67,120,0
3,71,120,384
3,71,120,0
3,72,120,0
3,71,120,0
3,69,120,0
3,71,120,0
3,71,120,768
3,72,120,0
3,76,120,0
3,71,120,0
3,71,120,0
3,71,120,0
3,72,120,0
3,71,120,0
3,74,120,0
3,72,120,0
3,71,120,0
3,76,120,0
3,71,120,0
3,71,120,0
3,71,120,0
3,72,120,0
3,71,120,0
3,74,120,0
3,71,120,192
3,72,120,0
3,71,120,0
3,69,120,0
3,67,120,0
3,67,120,0
3,71,120,0
3,69,120,0
3,79,120,192
3,79,120,0
3,79,120,0
3,79,120,0
3,79,120,0
3,79,120,0
3,81,120,0
3,78,120,0
3,74,120,0
3,86,120,0
3,81,120,0
3,79,120,0
3,76,120,0
3,79,120,0
3,76,120,0
3,74,120,0
3,74,120,0
3,74,120,0
3,71,120,0
3,74,120,0
3,74,120,0
3,76,120,0
3,71,120,0
3,71,120,0
3,69,120,0
3,71,120,0
3,72,120,0
3,71,120,0
3,72,120,0
3,71,120,0
3,74,120,0
3,71,120,0
3,69,120,0
3,71,120,0
3,71,120,192
3,71,120,0
3,79,120,0
3,76,120,0
3,74,120,0
3,74,120,0
3,74,120,0
3,76,120,0
3,74,120,0
3,71,120,0
3,67,120,0
3,67,120,0
3,71,120,768
3,72,120,0
3,71,120,0
3,67,120,0
3,74,120,1536
3,74,120,0
3,76,120,0
3,74,120,0
3,74,120,0
3,72,120,0
3,72,120,0
3,71,120,0
3,71,120,0
3,69,120,0
3,67,120,0
3,69,120,0
3,74,120,0
3,74,120,0
3,74,120,0
3,74,120,0
3,74,120,0
3,72,120,0
3,72,120,0
3,72,120,0
3,72,120,0
3,71,120,0
3,71,120,0
3,69,120,0
3,67,120,0
3,62,120,0
3,74,120,192
3,74,120,0
3,74,120,0
3,72,120,0
3,72,120,0
3,72,120,0
3,71,120,0
3,71,120,0
3,69,120,0
3,67,120,0
3,69,120,0
3,71,120,192
3,69,120,0
3,72,120,0
3,71,120,0
3,69,120,0
3,67,120,0
3,66,120,0
3,64,120,0
3,66,120,0
3,67,120,0
4,62,64,1344
4,74,64,0
4,72,64,0
4,71,64,0
4,71,64,0
4,71,64,0
4,69,64,0
4,67,64,0
4,69,64,0
4,74,64,0
4,74,64,0
4,74,64,0
4,74,64,0
4,74,64,0
4,72,64,0
4,72,64,0
4,72,64,0
4,72,64,0
4,71,64,0
4,71,64,0
4,69,64,0
4,67,64,0
4,62,64,0
4,74,64,192
4,74,64,0
4,74,64,0
4,72,64,0
4,72,64,0
4,72,64,0
4,71,64,0
4,71,64,0
4,69,64,0
4,67,64,0
4,69,64,0
4,71,64,192
4,69,64,0
4,67,64,0
4,64,64,0
4,67,64,0
4,64,64,0
4,67,64,0
4,66,64,0
4,64,64,0
4,69,64,0
4,67,64,1152
4,64,64,0
4,67,64,0
4,64,64,0
4,67,64,0
4,66,64,0
4,64,64,0
4,66,64,0
4,64,64,0
4,62,64,0
4,74,64,1920
4,76,64,0
4,74,64,0
4,74,64,0
4,74,64,0
4,72,64,0
4,71,64,0
4,69,64,0
4,69,64,0
4,71,64,0
4,72,64,0
4,71,64,0
4,72,64,0
4,71,64,0
4,72,64,0
4,71,64,0
4,67,64,0
4,69,64,0
4,67,64,768
4,67,64,0
4,67,64,0
4,66,64,0
4,67,64,0
4,66,64,0
4,62,64,0
4,76,64,1536
4,74,64,0
4,76,64,0
4,74,64,0
4,74,64,0
4,74,64,0
4,71,64,0
4,71,64,0
4,74,64,0
4,74,64,0
4,76,64,0
4,76,64,0
4,71,64,0
4,74,64,0
4,69,64,0
4,74,64,576
4,72,64,0
4,71,64,0
4,69,64,0
4,72,64,0
4,71,64,0
4,67,64,192
4,64,64,0
4,67,64,0
4,64,64,0
4,67,64,0
4,64,64,0
4,67,64,0
4,71,64,384
4,71,64,0
4,72,64,0
4,71,64,0
4,69,64,0
4,71,64,0
4,71,64,768
4,72,64,0
4,76,64,0
4,71,64,0
4,71,64,0
4,71,64,0
4,72,64,0
4,71,64,0
4,74,64,0
4,72,64,0
4,71,64,0
4,76,64,0
4,71,64,0
4,71,64,0
4,71,64,0
4,72,64,0
4,71,64,0
4,74,64,0
4,71,64,192
4,72,64,0
4,71,64,0
4,69,64,0
4,67,64,0
4,67,64,0
4,71,64,0
4,69,64,0
4,79,64,192
4,79,64,0
4,79,64,0
4,79,64,0
4,79,64,0
4,79,64,0
4,81,64,0
4,78,64,0
4,74,64,0
4,86,64,0
4,81,64,0
4,79,64,0
4,76,64,0
4,79,64,0
4,76,64,0
4,74,64,0
4,74,64,0
4,74,64,0
4,71,64,0
4,74,64,0
4,74,64,0
4,76,64,0
4,71,64,0
4,71,64,0
4,69,64,0
4,71,64,0
4,72,64,0
4,71,64,0
4,72,64,0
4,71,64,0
4,74,64,0
4,71,64,0
4,69,64,0
4,71,64,0
4,71,64,192
4,71,64,0
4,79,64,0
4,76,64,0
4,74,64,0
4,74,64,0
4,74,64,0
4,76,64,0
4,74,64,0
4,71,64,0
4,67,64,0
4,67,64,0
4,71,64,768
4,72,64,0
4,71,64,0
4,67,64,0
