track,note,velocity,time
5,69,127,14160
5,67,127,8
5,65,127,8
5,60,127,432
5,62,127,0
5,63,127,8
5,70,127,0
5,69,127,32
5,65,127,8
5,72,127,192
5,69,127,8
5,65,127,24
5,67,127,192
5,62,127,8
5,63,127,24
5,67,127,384
5,70,127,24
5,67,127,0
5,69,127,768
5,70,107,760
5,62,107,8
5,63,107,24
5,62,107,5376
5,63,107,0
5,69,127,14552
5,67,127,8
5,65,127,8
5,60,127,432
5,62,127,0
5,63,127,8
5,70,127,0
5,69,127,32
5,65,127,8
5,72,127,192
5,69,127,8
5,65,127,24
5,67,127,192
5,62,127,8
5,63,127,24
5,67,127,384
5,70,127,24
5,67,127,0
5,69,127,768
5,62,127,3072
5,63,127,24
6,34,115,0
6,34,109,0
6,34,110,40
6,34,113,72
6,34,114,24
6,36,109,72
6,31,92,16
6,36,114,192
6,34,102,0
6,34,101,160
6,33,100,192
6,29,66,16
6,31,94,0
6,36,114,1536
6,34,104,944
6,36,96,8
6,38,93,0
6,39,85,0
6,41,109,8
6,34,97,0
6,34,93,136
6,34,105,112
6,36,105,48
6,36,97,56
6,36,110,120
6,31,96,16
6,36,110,192
6,36,101,184
6,36,104,120
6,34,106,8
6,34,104,136
6,34,104,136
6,34,94,88
6,33,104,192
6,29,87,0
6,31,97,192
6,31,94,136
6,31,97,128
6,33,109,32
6,36,104,24
6,36,101,144
6,36,109,112
6,34,101,192
6,36,110,16
6,38,92,16
6,39,91,192
6,39,94,120
6,41,104,8
6,41,94,168
6,34,115,32
6,34,109,64
6,34,114,40
6,34,118,88
6,29,96,8
6,34,119,144
6,34,97,120
6,34,114,136
6,34,109,104
6,34,106,152
6,34,104,136
6,36,110,56
6,31,96,576
6,36,109,72
6,36,109,120
6,31,92,8
6,36,115,104
6,31,88,16
6,36,114,88
6,39,92,560
6,41,101,24
6,29,109,8
6,29,101,136
6,29,113,128
6,34,114,56
6,29,91,16
6,34,100,128
6,29,97,16
6,34,100,152
6,29,106,32
6,34,109,136
6,33,109,392
6,31,113,96
6,31,106,144
6,31,114,144
6,31,114,144
6,31,92,120
6,31,104,120
6,36,104,88
6,31,106,72
6,36,113,136
6,36,100,128
6,31,94,16
6,36,104,136
6,36,113,128
6,31,97,16
6,36,104,112
6,39,93,584
6,41,94,16
6,29,102,16
6,29,109,152
6,34,115,136
6,34,109,64
6,34,110,40
6,34,113,72
6,34,114,24
6,36,106,72
6,36,99,120
6,36,111,112
6,31,102,24
6,36,107,16
6,36,111,144
6,36,115,120
6,34,108,24
6,34,102,152
6,34,97,120
6,34,109,88
6,33,93,8
6,29,91,16
6,31,110,192
6,31,92,128
6,31,109,120
6,36,107,32
6,36,107,128
6,36,110,120
6,34,108,0
6,36,103,8
6,38,105,192
6,39,102,184
6,39,110,152
6,39,106,136
6,41,119,112
6,41,88,112
6,41,99,136
6,39,100,384
6,34,97,0
6,34,93,136
6,34,105,112
6,36,105,48
6,36,97,56
6,36,110,120
6,31,96,16
6,36,110,192
6,36,101,184
6,36,104,120
6,34,106,8
6,34,104,136
6,34,104,136
6,34,94,88
6,33,104,192
6,29,87,0
6,31,97,192
6,31,94,136
6,31,97,128
6,33,109,32
6,36,104,24
6,36,101,144
6,36,109,112
6,34,101,192
6,36,110,16
6,38,92,16
6,39,91,192
6,39,94,120
6,41,104,8
6,41,94,168
6,34,115,32
6,34,109,64
6,34,110,40
6,34,113,72
6,34,119,24
6,34,97,120
6,34,114,136
6,34,109,104
6,34,106,152
6,34,104,136
6,36,110,56
6,31,96,576
6,36,109,72
6,36,109,120
6,31,92,8
6,36,115,104
6,31,88,16
6,36,114,88
6,39,92,560
6,41,101,24
6,29,109,8
6,29,101,136
6,29,113,128
6,34,114,56
6,29,91,16
6,34,100,128
6,29,97,16
6,34,100,152
6,29,106,32
6,34,109,136
6,33,109,392
6,31,113,96
6,31,106,144
6,31,114,144
6,31,114,144
6,31,92,120
6,31,104,120
6,36,104,88
6,31,106,72
6,36,113,136
6,36,100,128
6,31,94,16
6,36,104,136
6,36,113,128
6,31,97,16
6,36,104,112
6,39,93,584
6,41,94,16
6,29,102,16
6,29,109,152
7,77,109,48
7,89,124,0
7,82,127,168
7,79,121,368
7,89,124,168
7,82,122,8
7,77,111,8
7,89,120,192
7,82,116,0
7,79,117,384
7,89,121,184
7,82,118,8
7,77,109,45504
7,89,124,192
7,82,127,168
7,79,121,368
7,89,124,168
7,82,122,8
7,77,111,8
7,89,120,192
7,82,116,0
7,79,117,384
7,89,121,184
7,82,118,8
7,77,109,22464
7,89,124,192
7,82,127,168
7,79,121,368
7,89,124,168
7,82,122,8
7,77,111,8
7,89,120,192
7,82,116,0
7,79,117,384
7,89,121,184
7,82,118,8
7,77,109,20160
7,89,124,192
7,82,127,168
7,79,121,368
7,89,124,168
7,82,122,8
7,82,122,0
7,77,111,8
7,89,120,192
7,82,116,0
7,79,117,384
8,70,111,0
8,77,111,0
8,72,104,1152
8,74,114,0
8,75,93,8
8,74,111,0
8,70,111,384
8,69,111,360
8,72,111,24
8,70,111,16
8,72,111,0
8,74,111,768
8,75,111,368
8,79,111,152
8,75,111,168
8,77,111,0
8,72,111,0
8,74,111,384
8,75,111,8
8,74,111,24
8,75,111,0
8,72,111,0
8,74,111,0
8,75,111,8
8,74,111,0
8,70,111,384
8,69,111,360
8,72,111,24
8,70,111,16
8,72,111,0
8,74,111,768
8,75,111,368
8,79,111,152
8,75,111,168
8,77,111,752
8,70,111,32
8,77,111,0
8,82,111,0
8,81,111,0
8,79,111,384
8,78,111,376
8,77,111,8
8,78,111,384
8,79,111,8
8,81,111,384
8,82,111,8
8,79,111,960
8,78,111,184
8,79,111,8
8,82,111,192
8,77,111,6712
8,82,111,8
8,81,111,0
8,81,111,104
8,79,111,192
8,79,111,96
8,78,111,384
8,79,111,40
8,81,111,192
8,81,111,128
8,82,111,16
8,82,111,48
8,86,111,16
8,84,111,384
8,84,111,136
8,77,111,192
8,75,111,160
8,77,111,16
8,70,111,0
8,77,111,0
8,72,111,1152
8,74,111,0
8,75,111,8
8,74,111,0
8,70,111,384
8,69,111,360
8,72,111,24
8,70,111,16
8,72,111,0
8,74,111,768
8,75,111,368
8,79,111,152
8,75,111,168
8,77,111,0
8,72,111,0
8,74,111,384
8,75,111,8
8,74,111,24
8,75,111,0
8,72,111,0
8,74,111,0
8,75,111,8
8,74,111,0
8,70,111,384
8,69,111,360
8,72,111,24
8,70,111,16
8,72,111,0
8,74,111,768
8,75,111,368
8,79,111,152
8,75,111,168
8,77,111,752
8,70,111,32
8,77,111,0
8,82,111,0
8,81,111,0
8,79,111,384
8,78,111,376
8,77,111,8
8,78,111,384
8,79,111,8
8,81,111,384
8,82,111,8
8,79,111,960
8,78,111,184
8,79,111,8
8,82,111,192
8,77,111,6712
8,82,111,8
8,81,111,0
8,81,111,104
8,79,111,192
8,79,111,96
8,78,111,384
8,79,111,40
8,81,111,192
8,81,111,128
8,82,111,16
8,82,111,48
8,86,111,16
8,84,111,384
8,84,111,136
8,77,111,192
8,75,111,160
8,77,111,16
8,70,111,0
9,46,101,0
9,53,100,0
9,60,83,0
9,62,103,16
9,65,103,8
9,69,102,16
9,46,103,64
9,53,99,8
9,60,92,216
9,63,101,24
9,67,101,56
9,70,101,40
9,46,101,56
9,53,101,8
9,60,92,216
9,62,103,48
9,65,108,48
9,69,96,40
9,46,101,48
9,53,103,0
9,60,84,192
9,63,96,56
9,67,99,48
9,70,108,8
9,46,98,40
9,53,100,8
9,60,86,224
9,62,102,24
9,65,101,48
9,69,97,8
9,62,104,280
9,65,103,8
9,67,102,112
9,63,88,8
9,65,101,120
9,69,92,8
9,70,86,136
9,67,93,8
9,60,98,120
9,63,99,0
9,48,81,8
9,55,83,208
9,60,89,168
9,63,95,8
9,70,68,0
9,67,89,8
9,58,97,24
9,60,102,168
9,63,93,0
9,63,86,8
9,48,88,8
9,60,79,0
9,67,93,8
9,70,61,8
9,55,71,0
9,58,83,144
9,63,112,48
9,60,93,0
9,55,70,24
9,67,107,184
9,63,76,16
9,69,101,104
9,46,101,120
9,53,78,136
9,60,98,192
9,62,103,0
9,65,98,8
9,58,103,24
9,60,103,40
9,53,102,176
9,62,127,0
9,45,97,200
9,57,101,0
9,58,115,16
9,55,104,8
9,43,97,8
9,50,88,336
9,53,76,144
9,55,103,0
9,50,84,176
9,58,101,184
9,62,102,0
9,65,65,16
9,48,92,32
9,63,88,0
9,60,80,8
9,70,83,0
9,67,86,8
9,55,86,8
9,58,96,160
9,60,101,0
9,55,91,184
9,60,101,128
9,63,103,8
9,67,103,8
9,60,83,8
9,39,96,40
9,46,96,168
9,51,104,192
9,53,115,176
9,55,103,136
9,58,101,0
9,60,76,280
9,67,83,16
9,63,92,16
9,41,100,168
9,48,110,136
9,53,119,184
9,60,100,192
9,63,97,8
9,67,96,0
9,70,71,16
9,53,88,0
9,46,101,24
9,60,89,16
9,62,98,0
9,65,86,8
9,69,87,0
9,53,84,56
9,58,100,32
9,62,117,256
9,65,108,8
9,67,102,120
9,53,91,8
9,63,94,0
9,69,106,128
9,65,77,16
9,70,104,144
9,48,90,128
9,63,93,0
9,60,89,8
9,55,85,128
9,58,103,16
9,60,102,184
9,60,102,40
9,70,102,0
9,55,82,8
9,60,76,184
9,67,87,0
9,63,83,8
9,58,82,24
9,48,93,8
9,60,89,8
9,63,87,8
9,70,78,0
9,67,87,8
9,55,72,160
9,58,96,96
9,55,81,56
9,63,85,0
9,60,60,8
9,58,83,8
9,60,105,16
9,63,102,0
9,62,99,24
9,65,101,0
9,55,92,8
9,63,101,128
9,67,102,0
9,69,98,120
9,65,96,0
9,46,106,24
9,53,103,176
9,62,103,184
9,60,82,8
9,65,95,8
9,58,115,96
9,60,110,8
9,53,104,184
9,60,105,168
9,62,118,0
9,57,102,80
9,58,108,0
9,55,89,8
9,43,92,16
9,50,98,112
9,53,87,56
9,55,102,176
9,55,77,88
9,58,84,0
9,62,86,16
9,50,95,0
9,58,99,224
9,62,97,0
9,55,76,8
9,65,67,8
9,53,80,24
9,48,94,24
9,63,83,8
9,60,75,0
9,67,81,8
9,70,70,8
9,55,90,0
9,58,99,120
9,60,103,8
9,63,99,200
9,55,88,0
9,63,104,112
9,60,88,8
9,67,95,8
9,58,92,80
9,53,97,40
9,55,99,0
9,39,92,8
9,58,97,0
9,62,99,0
9,46,96,0
9,62,96,176
9,55,106,8
9,58,103,0
9,53,71,16
9,51,76,8
9,41,96,8
9,63,92,8
9,60,86,8
9,67,89,0
9,70,79,0
9,48,92,0
9,63,103,184
9,60,91,8
9,67,99,0
9,70,79,0
9,53,77,0
9,46,108,32
9,53,110,0
9,60,99,216
9,62,116,40
9,65,108,48
9,69,104,56
9,46,101,24
9,53,100,8
9,60,81,200
9,63,104,48
9,67,102,48
9,70,115,56
9,46,100,56
9,53,96,0
9,60,96,200
9,62,115,48
9,65,108,56
9,69,102,40
9,53,100,40
9,46,100,8
9,60,86,192
9,63,109,40
9,67,92,64
9,70,109,32
9,46,98,120
9,53,101,88
9,58,110,104
9,60,105,96
9,62,120,0
9,60,100,0
9,62,106,16
9,60,102,80
9,46,101,0
9,53,98,32
9,58,113,96
9,60,108,88
9,62,118,8
9,60,101,8
9,62,102,8
9,60,100,88
9,46,102,8
9,53,97,40
9,58,105,96
9,60,101,88
9,62,112,0
9,60,104,0
9,62,104,8
9,60,87,96
9,46,108,24
9,53,101,24
9,58,102,96
9,60,107,88
9,62,109,8
9,60,104,8
9,62,104,0
9,60,97,24
9,48,102,8
9,58,102,48
9,63,103,16
9,58,107,80
9,63,115,8
9,58,103,8
9,63,104,16
9,48,99,8
9,58,109,32
9,63,102,24
9,58,98,8
9,63,103,16
9,58,109,8
9,63,97,16
9,58,79,0
9,48,112,24
9,58,102,24
9,63,102,16
9,58,98,0
9,63,107,8
9,58,103,80
9,63,102,8
9,58,100,24
9,48,104,0
9,58,106,24
9,63,101,8
9,58,97,0
9,63,108,16
9,58,94,8
9,63,104,8
9,58,103,8
9,48,103,16
9,58,110,40
9,63,102,16
9,58,104,0
9,63,105,16
9,58,101,0
9,63,100,16
9,58,101,24
9,41,105,8
9,48,100,56
9,53,98,96
9,60,104,88
9,63,98,104
9,67,103,40
9,70,108,0
9,60,86,72
9,63,120,64
9,48,98,0
9,53,110,144
9,60,93,8
9,46,97,8
9,62,100,8
9,60,95,8
9,65,97,16
9,53,93,0
9,58,106,88
9,60,126,104
9,62,106,80
9,65,104,0
9,60,96,72
9,62,105,24
9,53,92,0
9,58,106,8
9,60,108,104
9,62,120,8
9,60,101,8
9,62,98,40
9,46,103,72
9,60,98,0
9,62,105,0
9,65,102,8
9,53,97,128
9,60,102,200
9,62,100,0
9,65,93,0
9,58,116,128
9,46,107,8
9,72,106,0
9,77,126,0
9,53,101,64
9,58,96,88
9,60,101,88
9,62,126,16
9,65,82,0
9,45,104,56
9,58,117,0
9,43,103,8
9,55,117,0
9,50,108,112
9,53,98,88
9,55,124,8
9,58,113,16
9,55,113,72
9,58,114,8
9,62,100,8
9,43,117,208
9,58,124,40
9,62,126,0
9,55,110,8
9,31,117,16
9,55,108,0
9,58,116,0
9,62,116,0
9,55,98,120
9,62,104,192
9,58,96,8
9,43,109,0
9,50,107,192
9,58,125,104
9,55,93,8
9,62,112,0
9,53,93,104
9,58,121,8
9,62,124,0
9,55,92,8
9,50,93,0
9,48,98,24
9,60,100,8
9,63,101,0
9,67,100,8
9,55,100,0
9,70,118,136
9,60,105,0
9,58,97,80
9,55,93,72
9,60,109,72
9,70,110,0
9,55,97,16
9,60,100,104
9,70,106,0
9,58,100,48
9,63,97,88
9,60,82,8
9,67,97,0
9,48,86,16
9,55,93,0
9,58,99,160
9,60,100,0
9,63,97,184
9,55,85,88
9,60,94,104
9,63,101,0
9,67,103,0
9,58,94,16
9,60,97,40
9,63,102,0
9,67,98,0
9,48,95,360
9,55,84,144
9,41,107,0
9,60,98,0
9,63,101,0
9,67,103,0
9,70,100,0
9,60,92,56
9,63,108,8
9,67,107,16
9,41,105,8
9,70,109,24
9,46,110,48
9,53,118,0
9,60,81,272
9,62,116,32
9,65,104,32
9,69,109,32
9,53,113,32
9,46,106,8
9,60,81,216
9,63,107,40
9,67,101,48
9,70,112,40
9,46,99,64
9,53,101,0
9,60,83,224
9,62,109,48
9,65,108,48
9,69,101,24
9,46,108,24
9,53,100,0
9,60,91,192
9,63,103,72
9,67,102,48
9,70,107,24
9,53,102,32
9,46,100,8
9,62,107,144
9,65,110,0
9,63,106,32
9,67,102,0
9,65,121,112
9,69,104,0
9,67,104,120
9,70,98,0
9,48,102,16
9,55,90,168
9,63,100,160
9,60,94,8
9,67,101,0
9,70,94,8
9,58,100,184
9,60,119,32
9,55,96,184
9,63,104,160
9,70,94,0
9,67,98,8
9,60,68,8
9,60,106,24
9,48,101,32
9,55,90,112
9,58,101,184
9,63,110,16
9,60,102,8
9,60,126,136
9,63,119,8
9,62,117,136
9,65,105,0
9,63,104,144
9,67,101,0
9,65,103,112
9,69,95,8
9,46,110,0
9,53,87,128
9,58,103,224
9,60,110,152
9,60,119,48
9,62,119,8
9,53,99,0
9,62,120,168
9,62,95,32
9,45,93,16
9,57,74,0
9,58,117,0
9,43,96,8
9,55,97,8
9,50,99,104
9,53,96,128
9,55,98,136
9,58,103,0
9,58,127,112
9,55,121,8
9,60,108,120
9,57,102,8
9,58,115,120
9,62,105,8
9,60,106,16
9,63,98,0
9,48,112,32
9,55,96,120
9,60,90,184
9,63,92,0
9,67,93,8
9,70,82,0
9,58,101,0
9,60,117,16
9,55,96,184
9,63,116,120
9,67,112,8
9,60,90,8
9,60,104,0
9,39,117,32
9,46,101,136
9,55,116,184
9,58,112,0
9,53,104,8
9,51,93,56
9,70,109,176
9,67,102,0
9,65,78,8
9,46,96,8
9,55,102,184
9,58,97,8
9,53,93,8
9,51,88,0
9,41,115,0
9,48,98,152
9,53,81,200
9,48,78,160
