track,note,velocity,time
1,64,56,960
1,71,56,52
1,76,59,60
1,78,48,60
1,79,39,8
1,81,38,17
1,79,50,8
1,78,46,0
1,60,55,0
1,67,46,60
1,79,51,60
1,81,56,50
1,83,45,2
1,79,48,6
1,62,59,9
1,67,55,60
1,69,53,60
1,74,67,12
1,69,39,34
1,67,53,18
1,69,45,4
1,67,51,12
1,83,43,19203
1,67,42,0
1,79,34,60
1,81,36,24
1,86,36,1
1,74,28,7
1,88,39,21
1,83,38,87
1,79,33,9
1,81,38,60
1,83,39,26
1,74,42,60
1,81,43,11
1,60,45,40
1,81,45,0
1,67,39,68
1,76,39,60
1,79,38,0
1,78,29,41
1,79,39,47
1,72,30,19
1,74,37,60
1,76,37,6
1,72,40,60
1,78,30,21
1,76,32,0
1,62,44,44
1,78,43,0
1,69,43,120
1,79,40,19
1,78,37,39
1,74,34,60
1,81,43,26
1,79,33,38
1,74,28,6
1,78,34,10
1,79,42,48
1,74,39,15
1,83,41,100
1,67,39,0
1,74,37,60
1,79,36,60
1,81,35,7
1,86,41,22
1,79,35,60
1,62,42,4
1,78,39,174
1,74,38,120
1,76,32,11
1,67,41,11
1,83,41,120
1,81,36,20
1,86,39,32
1,79,36,0
1,81,34,60
1,83,35,120
1,86,40,55
1,83,27,11
1,79,34,2
1,84,34,86
1,60,39,0
1,72,31,21
1,76,35,31
1,79,39,0
1,79,39,70
1,76,37,0
1,84,45,39
1,76,40,0
1,79,34,12
1,76,31,7
1,76,36,25
1,81,45,0
1,83,39,1
1,72,39,60
1,76,39,28
1,78,34,0
1,62,43,0
1,69,39,60
1,79,45,1
1,78,43,1
1,74,34,3
1,76,39,12
1,69,40,13
1,81,43,28
1,74,37,60
1,79,33,30
1,69,26,0
1,78,41,39
1,74,35,60
1,79,41,22
1,74,41,1
1,79,41,89
1,64,42,0
1,71,39,21
1,79,39,60
1,66,34,91
1,78,35,0
1,54,33,0
1,66,34,41
1,74,32,56
1,78,46,100
1,74,42,0
1,66,39,0
1,64,37,97
1,60,25,88
1,76,34,60
1,84,45,0
1,79,33,40
1,72,33,60
1,76,34,82
1,79,41,60
1,76,29,60
1,81,38,0
1,72,40,25
1,78,39,77
1,62,41,0
1,74,33,120
1,78,39,54
1,79,45,22
1,74,37,59
1,81,40,97
1,79,41,68
1,78,43,2
1,74,39,60
1,59,41,94
1,74,45,0
1,66,39,60
1,71,43,14
1,74,49,49
1,76,51,0
1,71,43,60
1,74,37,44
1,78,50,24
1,79,43,13
1,78,37,60
1,78,48,26
1,76,48,13
1,71,43,39
1,74,28,26
1,76,45,46
1,60,46,0
1,67,43,60
1,72,43,49
1,76,46,60
1,78,53,44
1,72,43,50
1,79,46,79
1,62,45,0
1,69,42,39
1,74,36,60
1,81,50,21
1,79,42,30
1,74,37,60
1,60,46,76
1,76,41,120
1,84,45,0
1,76,45,27
1,84,50,0
1,72,34,4
1,76,39,42
1,83,43,0
1,76,41,52
1,81,40,0
1,72,34,61
1,76,39,60
1,79,48,17
1,72,39,60
1,76,37,22
1,62,45,4
1,69,34,108
1,78,37,60
1,79,45,60
1,74,37,21
1,78,34,36
1,79,41,29
1,81,45,32
1,79,42,32
1,78,39,10
1,74,39,60
1,59,42,77
1,74,44,0
1,66,28,180
1,71,42,15
1,74,42,226
1,71,36,6
1,60,42,107
1,72,38,120
1,76,45,60
1,78,37,29
1,72,36,43
1,62,43,4
1,74,34,107
1,76,39,60
1,79,44,56
1,74,39,47
1,67,43,7
1,83,37,114
1,81,35,60
1,86,39,17
1,79,35,79
1,81,29,120
1,83,34,9
1,86,37,23
1,60,41,47
1,76,44,60
1,72,39,60
1,74,35,36
1,76,34,11
1,67,22,48
1,74,34,32
1,79,42,12
1,76,40,0
1,72,37,12
1,74,37,60
1,76,43,7
1,67,43,1
1,62,43,3
1,74,34,100
1,78,37,60
1,79,39,6
1,74,35,60
1,78,35,31
1,81,34,60
1,79,36,7
1,78,28,8
1,78,39,25
1,79,39,3
1,74,37,60
1,74,44,99
1,59,43,0
1,66,26,120
1,74,42,32
1,74,34,46
1,71,34,0
1,74,34,43
1,74,39,31
1,76,36,69
1,71,35,5
1,76,41,47
1,60,40,0
1,67,39,120
1,72,39,60
1,76,41,17
1,72,39,10
1,62,40,45
1,69,43,60
1,74,38,60
1,78,39,60
1,79,40,3
1,74,34,60
1,55,31,49
1,79,37,0
1,67,35,0
1,71,34,0
1,74,36,0
1,62,29,0
1,64,42,174
1,71,40,60
1,76,39,60
1,78,37,10
1,79,37,11
1,76,26,6
1,81,41,22
1,83,36,53
1,60,43,104
1,67,38,60
1,74,43,60
1,76,43,22
1,81,39,4
1,83,41,71
1,79,36,137
1,62,42,11
1,67,43,60
1,69,44,1
1,74,48,1
1,69,39,16
1,66,36,61
1,50,41,60
1,64,44,97
1,66,34,180
1,40,43,11
1,59,34,51
1,71,39,0
1,76,39,0
1,69,36,0
1,74,37,0
1,67,44,0
1,71,42,0
1,64,43,0
1,69,42,0
1,47,39,0
1,67,41,0
1,64,39,0
1,40,51,0
1,47,51,60
1,52,47,60
1,55,52,60
1,83,53,8
1,57,50,0
1,79,53,0
1,78,43,22
1,47,48,0
1,79,58,28
1,59,48,0
1,83,54,0
1,76,49,32
1,57,46,0
1,83,55,0
1,52,39,3
1,74,50,41
1,55,44,0
1,83,51,0
1,83,51,91
1,71,46,0
1,47,45,1
1,36,53,78
1,43,50,120
1,52,56,60
1,79,51,20
1,54,43,0
1,83,52,0
1,78,45,4
1,48,45,0
1,83,53,35
1,55,51,0
1,79,56,0
1,81,51,24
1,54,44,0
1,78,48,0
1,43,43,3
1,76,50,60
1,54,43,0
1,79,51,0
1,74,51,12
1,78,46,0
1,52,53,18
1,48,48,14
1,69,45,33
1,38,56,0
1,74,50,0
1,79,47,0
1,45,51,84
1,67,44,0
1,50,53,0
1,69,45,0
1,52,39,0
1,74,44,0
1,79,45,0
1,54,41,0
1,81,46,0
1,86,46,0
1,45,49,0
1,86,50,0
1,54,45,0
1,91,48,0
1,55,50,0
1,93,50,0
1,98,49,0
1,57,52,0
1,50,46,60
1,54,40,17
1,40,53,0
1,47,50,99
1,95,50,60
1,91,48,0
1,90,43,0
1,55,51,0
1,88,38,0
1,52,45,0
1,83,46,0
1,54,39,0
1,86,41,0
1,55,51,0
1,81,44,0
1,83,48,0
1,57,51,0
1,76,45,0
1,47,48,0
1,79,45,0
1,59,51,0
1,71,40,0
1,74,43,0
1,57,48,0
1,69,45,0
1,52,43,0
1,64,45,0
1,55,45,0
1,40,52,0
1,47,50,113
1,52,48,120
1,83,53,55
1,55,50,0
1,79,53,0
1,78,43,7
1,47,50,0
1,79,58,19
1,57,51,0
1,83,54,0
1,76,49,16
1,59,50,0
1,83,55,0
1,52,45,8
1,74,50,28
1,57,46,0
1,83,51,0
1,83,51,8
1,55,46,0
1,71,46,0
1,54,45,1
1,55,45,5
1,47,50,0
1,36,60,24
1,43,51,120
1,48,49,60
1,55,51,40
1,50,53,0
1,79,51,60
1,43,51,0
1,83,52,0
1,78,45,24
1,48,45,0
1,83,53,35
1,50,47,0
1,79,56,0
1,52,51,0
1,48,44,21
1,81,51,6
1,55,50,0
1,78,48,0
1,50,43,0
1,48,45,27
1,76,50,37
1,54,45,0
1,79,51,0
1,74,51,93
1,52,48,0
1,78,46,0
1,54,53,6
1,48,50,48
1,69,45,26
1,38,56,0
1,74,50,0
1,79,47,0
1,45,50,84
1,67,44,0
1,55,59,0
1,69,45,0
1,50,46,0
1,74,44,0
1,45,48,0
1,79,45,0
1,54,47,0
1,81,46,0
1,86,46,0
1,55,51,0
1,86,50,0
1,50,46,0
1,91,48,0
1,57,53,0
1,93,50,0
1,98,49,0
1,55,51,0
1,45,51,60
1,54,39,2
1,40,52,0
1,47,48,108
1,95,50,60
1,91,48,0
1,90,43,0
1,52,48,0
1,88,38,0
1,55,53,0
1,83,46,0
1,86,41,0
1,59,55,0
1,81,44,0
1,83,48,0
1,57,47,0
1,76,45,0
1,47,49,0
1,79,45,0
1,55,53,0
1,71,40,0
1,74,43,0
1,57,47,0
1,69,45,0
1,52,46,0
1,64,45,0
1,55,45,0
1,62,43,0
1,40,51,0
1,71,53,0
1,67,51,3
1,47,51,0
1,62,43,60
1,52,47,0
1,62,53,22
1,55,52,0
1,69,57,0
1,67,43,43
1,62,45,8
1,57,50,0
1,71,51,0
1,67,45,0
1,47,48,0
1,62,52,19
1,59,48,0
1,72,55,0
1,67,51,5
1,62,48,27
1,57,46,0
1,71,56,0
1,52,39,1
1,62,48,25
1,55,44,0
1,69,55,0
1,71,59,21
1,62,47,0
1,69,48,36
1,47,45,0
1,67,43,2
1,72,57,21
1,36,53,0
1,64,53,0
1,67,50,29
1,43,50,0
1,64,50,28
1,52,56,0
1,71,52,0
1,67,53,0
1,72,56,20
1,54,43,0
1,64,50,0
1,67,52,0
1,48,45,4
1,74,53,31
1,55,51,0
1,64,51,0
1,76,54,24
1,54,44,0
1,43,43,3
1,79,56,60
1,54,43,0
1,79,51,12
1,81,55,0
1,83,56,6
1,52,53,0
1,48,48,14
1,86,55,33
1,38,56,0
1,84,49,60
1,83,45,7
1,45,51,0
1,81,51,6
1,50,53,60
1,83,53,44
1,52,39,0
1,81,48,60
1,79,45,3
1,54,41,0
1,78,51,9
1,79,46,1
1,45,49,0
1,78,44,0
1,54,45,0
1,76,41,11
1,55,50,0
1,74,49,10
1,72,46,0
1,57,52,0
1,71,52,60
1,50,46,0
1,54,40,17
1,72,56,37
1,40,53,0
1,69,51,0
1,71,43,39
1,69,42,48
1,47,50,0
1,67,56,39
1,71,57,0
1,55,51,60
1,69,53,58
1,52,45,0
1,66,52,0
1,54,39,29
1,67,60,18
1,55,51,0
1,69,53,0
1,67,53,10
1,57,51,0
1,64,52,0
1,47,48,3
1,62,53,60
1,59,51,0
1,66,51,0
1,60,52,36
1,57,48,0
1,64,52,0
1,62,51,17
1,52,43,0
1,59,43,12
1,55,45,0
1,67,46,29
1,40,52,0
1,69,55,0
1,47,50,113
1,67,53,36
1,71,51,0
1,62,51,0
1,52,48,60
1,62,48,14
1,55,50,0
1,67,43,0
1,72,53,0
1,74,51,0
1,47,50,7
1,67,45,19
1,57,51,0
1,62,45,0
1,71,51,0
1,62,40,16
1,59,50,0
1,71,45,0
1,52,45,8
1,62,48,28
1,57,46,0
1,67,56,0
1,71,52,0
1,62,47,8
1,55,46,0
1,67,53,0
1,62,52,16
1,54,45,0
1,72,58,0
1,67,53,0
1,55,45,5
1,47,50,0
1,62,53,24
1,36,60,0
1,69,56,0
1,43,51,76
1,62,53,38
1,48,49,0
1,69,54,0
1,55,51,40
1,50,53,0
1,62,50,36
1,43,51,0
1,67,56,0
1,48,45,29
1,60,53,60
1,50,47,0
1,67,53,0
1,52,51,0
1,64,50,0
1,48,44,42
1,66,45,6
1,55,50,0
1,50,43,0
1,48,45,6
1,62,59,37
1,54,45,0
1,64,48,7
1,52,48,0
1,66,59,6
1,54,53,0
1,48,50,27
1,67,57,26
1,38,56,0
1,62,52,0
1,57,53,0
1,45,50,104
1,55,59,120
1,66,63,5
1,50,46,0
1,57,53,0
1,62,56,0
1,45,48,8
1,57,53,20
1,54,47,0
1,64,56,0
1,62,52,0
1,57,53,13
1,55,51,0
1,66,59,0
1,62,56,0
1,50,46,4
1,57,53,21
1,57,53,0
1,62,57,0
1,67,58,0
1,66,56,22
1,55,51,0
1,62,45,8
1,45,51,0
1,54,39,2
1,60,48,2
1,40,52,0
1,67,51,42
1,47,48,60
1,64,53,37
1,52,48,60
1,69,51,43
1,55,53,0
1,71,53,22
1,59,55,0
1,81,55,19
1,57,47,0
1,47,49,11
1,78,54,52
1,55,53,0
1,76,49,7
1,57,47,0
1,74,45,9
1,52,46,0
1,55,45,17
1,79,50,0
1,40,51,0
1,78,40,52
1,47,51,0
1,74,45,11
1,52,47,0
1,81,53,26
1,55,52,0
1,78,36,8
1,83,53,8
1,57,50,0
1,47,48,13
1,86,52,57
1,59,48,0
1,57,46,32
1,52,39,3
1,88,55,41
1,55,44,0
1,90,63,98
1,91,66,17
1,47,45,0
1,93,58,76
1,36,53,0
1,86,53,0
1,91,51,60
1,90,39,5
1,43,50,0
1,86,53,42
1,52,56,0
1,90,63,0
1,91,49,16
1,54,43,0
1,48,45,4
1,91,53,55
1,55,51,0
1,88,56,0
1,84,48,0
1,54,44,13
1,43,43,3
1,54,43,60
1,52,53,18
1,86,56,14
1,48,48,0
1,86,53,33
1,38,56,0
1,45,51,17
1,90,56,60
1,86,46,0
1,50,53,20
1,86,48,32
1,52,39,0
1,81,43,14
1,54,41,42
1,45,49,1
1,54,45,60
1,81,48,11
1,55,50,0
1,81,56,24
1,86,47,35
1,57,52,0
1,88,63,17
1,50,46,0
1,54,40,17
1,88,62,60
1,40,53,0
1,83,52,39
1,79,45,10
1,47,50,0
1,81,45,21
1,83,47,0
1,79,49,45
1,55,51,0
1,52,45,2
1,83,63,46
1,54,39,0
1,81,43,11
1,55,51,0
1,79,39,15
1,88,56,10
1,57,51,0
1,81,53,3
1,47,48,0
1,79,45,3
1,59,51,0
1,86,51,18
1,83,45,36
1,57,48,0
1,81,49,11
1,52,43,0
1,55,45,40
1,79,51,29
1,40,52,0
1,86,45,53
1,79,48,4
1,47,50,0
1,81,55,60
1,52,48,46
1,83,49,5
1,55,50,0
1,79,45,7
1,47,50,0
1,88,61,16
1,57,51,0
1,79,45,60
1,79,53,16
1,59,50,0
1,86,51,0
1,52,45,6
1,81,53,28
1,57,46,0
1,79,52,0
1,86,55,0
1,86,58,8
1,55,46,0
1,79,53,0
1,83,52,0
1,54,45,3
1,86,53,5
1,55,45,0
1,81,53,0
1,47,50,0
1,81,53,17
1,36,60,0
1,78,54,0
1,86,52,0
1,43,51,11
1,81,56,37
1,48,49,0
1,79,53,0
1,86,59,0
1,55,51,7
1,50,53,0
1,86,56,55
1,43,51,0
1,78,56,0
1,48,45,14
1,76,56,60
1,50,47,0
1,79,51,0
1,52,51,0
1,84,56,0
1,48,44,42
1,83,56,6
1,55,50,0
1,74,49,0
1,50,43,0
1,79,53,0
1,48,45,1
1,78,53,37
1,54,45,0
1,74,51,0
1,81,53,0
1,76,53,41
1,52,48,0
1,79,53,0
1,72,56,0
1,76,49,6
1,54,53,0
1,78,46,0
1,69,56,32
1,48,50,0
1,69,56,26
1,38,56,0
1,78,62,0
1,74,55,44
1,45,50,43
1,71,58,26
1,76,56,0
1,55,59,60
1,71,46,5
1,50,46,0
1,79,51,0
1,74,44,8
1,45,48,0
1,81,56,10
1,54,47,0
1,83,54,0
1,81,48,13
1,55,51,0
1,50,46,4
1,81,51,21
1,57,53,0
1,79,49,0
1,74,51,0
1,74,45,22
1,55,51,0
1,83,56,0
1,86,66,32
1,45,51,0
1,54,39,2
1,40,52,60
1,79,56,48
1,84,56,0
1,76,59,0
1,47,48,14
1,88,64,60
1,52,48,15
1,86,52,60
1,55,53,0
1,81,49,0
1,89,51,22
1,59,55,0
1,86,51,0
1,91,51,0
1,90,60,19
1,57,47,0
1,83,50,0
1,47,49,28
1,95,59,52
1,55,53,0
1,93,58,7
1,57,47,0
1,91,57,14
1,52,46,0
1,55,45,17
1,40,51,0
1,47,51,60
1,52,47,60
1,55,52,60
1,83,53,8
1,57,50,0
1,79,53,0
1,78,43,22
1,47,48,0
1,79,58,28
1,59,48,0
1,83,54,0
1,76,49,32
1,57,46,0
1,83,55,0
1,52,39,3
1,74,50,41
1,55,44,0
1,83,51,0
1,83,51,91
1,71,46,0
1,47,45,1
1,36,53,78
1,43,50,120
1,52,56,60
1,79,51,20
1,54,43,0
1,83,52,0
1,78,45,4
1,48,45,0
1,83,53,35
1,55,51,0
1,79,56,0
1,81,51,24
1,54,44,0
1,78,48,0
1,43,43,3
1,76,50,60
1,54,43,0
1,79,51,0
1,74,51,12
1,78,46,0
1,52,53,18
1,48,48,14
1,69,45,33
1,38,56,0
