track,note,velocity,time
1,62,127,890
1,62,0,59
1,74,127,1
1,71,127,0
1,67,127,0
1,62,127,0
1,62,0,119
1,74,0,0
1,71,0,0
1,67,0,0
1,74,127,1
1,69,127,0
1,62,127,0
1,62,0,119
1,69,0,0
1,74,0,0
1,74,127,1
1,67,127,0
1,62,127,0
1,74,0,29
1,71,127,1
1,71,0,29
1,62,0,0
1,67,0,0
1,67,127,1
1,62,127,0
1,59,127,0
1,59,0,179
1,62,0,0
1,67,0,0
1,72,127,1
1,64,127,0
1,60,127,0
1,72,0,29
1,69,127,1
1,69,0,89
1,72,127,1
1,72,0,59
1,72,127,1
1,72,0,59
1,60,0,0
1,64,0,0
1,71,127,1
1,64,127,0
1,60,127,0
1,71,0,29
1,69,127,1
1,69,0,89
1,67,127,1
1,67,0,29
1,66,127,1
1,66,0,89
1,60,0,0
1,64,0,0
1,67,127,1
1,59,127,0
1,55,127,0
1,67,0,59
1,66,127,1
1,66,0,59
1,67,127,61
1,67,0,29
1,66,127,1
1,66,0,29
1,67,127,1
1,67,0,59
1,66,127,1
1,66,0,59
1,55,0,0
1,59,0,0
1,62,127,1
1,57,127,0
1,54,127,0
1,54,0,239
1,57,0,0
1,62,0,0
1,67,127,1
1,64,127,0
1,57,127,0
1,64,0,59
1,67,0,0
1,66,127,1
1,62,127,0
1,62,0,59
1,66,0,0
1,64,127,1
1,60,127,0
1,60,0,59
1,64,0,0
1,66,127,1
1,62,127,0
1,62,0,119
1,66,0,0
1,57,0,0
1,62,127,1
1,62,0,59
1,74,127,1
1,71,127,0
1,67,127,0
1,62,127,0
1,74,0,59
1,74,127,1
1,74,0,29
1,74,127,1
1,74,0,29
1,71,0,0
1,67,0,0
1,62,0,0
1,74,127,1
1,69,127,0
1,62,127,0
1,74,0,59
1,74,127,1
1,74,0,59
1,62,0,0
1,69,0,0
1,76,127,1
1,67,127,0
1,62,127,0
1,62,0,59
1,67,0,0
1,76,0,0
1,67,127,1
1,62,127,0
1,59,127,0
1,67,0,119
1,67,127,31
1,67,0,29
1,59,0,0
1,62,0,0
1,69,127,1
1,64,127,0
1,60,127,0
1,69,0,89
1,71,127,1
1,71,0,29
1,72,127,1
1,72,0,29
1,71,127,1
1,71,0,89
1,60,0,0
1,64,0,0
1,69,127,1
1,64,127,0
1,60,127,0
1,69,0,89
1,71,127,1
1,71,0,29
1,72,127,1
1,72,0,89
1,69,127,1
1,69,0,29
1,60,0,0
1,64,0,0
1,67,127,1
1,59,127,0
1,67,0,59
1,64,127,1
1,64,0,59
1,67,127,1
1,67,0,29
1,64,127,1
1,64,0,89
1,59,0,0
1,67,127,1
1,60,127,0
1,67,0,59
1,64,127,1
1,64,0,119
1,67,127,1
1,67,0,29
1,71,127,1
1,71,0,29
1,60,0,0
1,69,127,1
1,62,127,0
1,66,127,0
1,66,0,178
1,66,127,0
1,66,0,60
1,67,127,2
1,66,127,58
1,67,0,2
1,66,0,58
1,62,0,1
1,69,0,0
1,64,127,1
1,66,127,58
1,64,0,2
1,66,0,58
1,64,127,62
1,64,0,59
1,71,127,1
1,71,0,29
1,71,127,1
1,71,0,29
1,71,127,1
1,71,0,29
1,71,127,1
1,71,0,29
1,72,127,1
1,72,0,59
1,71,127,1
1,71,0,59
1,67,127,1
1,67,0,29
1,69,127,1
1,69,0,29
1,71,127,61
1,71,0,29
1,71,127,1
1,71,0,59
1,71,127,1
1,71,0,29
1,71,127,1
1,71,0,29
1,71,127,1
1,71,0,89
1,72,127,1
1,72,0,89
1,71,127,1
1,71,0,29
1,67,127,1
1,67,0,29
1,64,127,1
1,64,0,29
1,67,127,61
1,64,127,0
1,60,127,0
1,67,0,59
1,67,127,1
1,67,0,59
1,60,0,0
1,64,0,0
1,67,127,1
1,62,127,0
1,55,127,0
1,67,0,89
1,66,127,1
1,66,0,29
1,55,0,0
1,62,0,0
1,64,127,1
1,60,127,0
1,57,127,0
1,64,0,59
1,67,127,1
1,67,0,59
1,69,127,61
1,69,0,59
1,57,0,0
1,60,0,0
1,67,127,1
1,64,127,0
1,60,127,0
1,67,0,89
1,69,127,1
1,69,0,29
1,60,0,0
1,64,0,0
1,71,127,1
1,67,127,0
1,64,127,0
1,71,0,89
1,76,127,1
1,76,0,29
1,64,0,0
1,67,0,0
1,74,127,1
1,69,127,0
1,66,127,0
1,62,127,0
1,74,0,59
1,71,127,1
1,71,0,59
1,71,127,61
1,71,0,59
1,69,0,0
1,66,0,0
1,62,0,0
1,76,127,1
1,71,127,0
1,67,127,0
1,62,127,0
1,76,0,59
1,74,127,1
1,74,0,29
1,62,0,0
1,67,0,0
1,71,0,0
1,74,127,1
1,69,127,0
1,62,127,0
1,74,0,59
1,71,127,1
1,71,0,29
1,72,127,1
1,72,0,29
1,71,127,1
1,71,0,29
1,62,0,0
1,69,0,0
1,67,127,1
1,64,127,0
1,59,127,0
1,67,0,89
1,66,127,1
1,66,0,29
1,59,0,0
1,64,0,0
1,64,127,1
1,59,127,0
1,55,127,0
1,55,0,119
1,59,0,0
1,64,0,0
1,69,127,1
1,64,127,0
1,60,127,0
1,69,0,89
1,71,127,1
1,71,0,29
1,72,127,1
1,72,0,29
1,71,127,1
1,71,0,29
1,71,127,1
1,71,0,59
1,60,0,0
1,64,0,0
1,69,127,1
1,62,127,0
1,69,0,29
1,71,127,1
1,71,0,89
1,69,127,1
1,69,0,59
1,62,0,60
1,71,127,1
1,67,127,0
1,62,127,0
1,71,0,59
1,71,127,1
1,71,0,59
1,62,0,0
1,67,0,0
1,71,127,1
1,69,127,0
1,62,127,0
1,71,0,59
1,71,127,1
1,71,0,59
1,62,0,0
1,69,0,0
1,67,127,1
1,64,127,0
1,71,127,0
1,71,0,89
1,71,127,1
1,71,0,29
1,64,0,0
1,67,0,0
1,59,127,1
1,69,127,0
1,69,0,28
1,67,127,2
1,67,0,29
1,64,127,1
1,64,0,44
1,67,127,1
1,67,0,15
1,59,0,0
1,64,127,0
1,60,127,0
1,67,127,178
1,64,0,1
1,67,0,59
1,60,0,2
1,66,127,0
1,60,127,0
1,72,127,0
1,72,0,120
1,71,127,0
1,60,0,119
1,66,0,0
1,71,0,1
1,67,127,0
1,59,127,0
1,59,0,359
1,60,127,1
1,60,0,29
1,59,127,1
1,59,0,29
1,57,127,1
1,57,0,29
1,60,127,1
1,60,0,29
1,59,127,1
1,59,0,359
1,67,0,0
1,62,127,61
1,62,0,59
1,74,127,1
1,71,127,0
1,62,127,0
1,62,0,239
1,71,0,0
1,74,0,0
1,72,127,1
1,67,127,0
1,64,127,0
1,72,0,119
1,72,127,1
1,72,0,59
1,71,127,1
1,71,0,59
1,64,0,0
1,67,0,0
1,71,127,1
1,62,127,0
1,71,0,59
1,69,127,1
1,69,0,59
1,67,127,1
1,67,0,59
1,62,0,0
1,69,127,1
1,66,127,0
1,62,127,0
1,62,0,119
1,66,0,0
1,69,0,0
1,74,127,1
1,66,127,0
1,62,127,0
1,74,0,119
1,74,127,1
1,74,0,59
1,62,0,0
1,66,0,0
1,74,127,1
1,67,127,0
1,62,127,0
1,74,0,59
1,74,127,1
1,74,0,59
1,74,127,1
1,74,0,59
1,72,127,1
1,72,0,59
1,62,0,0
1,67,0,0
1,72,127,1
1,67,127,0
1,64,127,0
1,72,0,59
1,72,127,1
1,72,0,59
1,72,127,1
1,72,0,59
1,71,127,1
1,71,0,59
1,64,0,0
1,67,0,0
1,71,127,1
1,62,127,0
1,71,0,59
1,69,127,1
1,69,0,59
1,62,0,0
1,67,127,1
1,59,127,0
1,59,0,59
1,67,0,0
1,62,127,1
1,54,127,0
1,54,0,179
1,62,0,0
1,74,127,61
1,66,127,0
1,62,127,0
1,62,0,59
1,66,0,0
1,74,0,0
1,74,127,1
1,71,127,0
1,62,127,0
1,71,0,59
1,74,0,0
1,74,127,1
1,71,127,0
1,71,0,119
1,74,0,0
1,62,0,0
1,72,127,1
1,67,127,0
1,64,127,0
1,72,0,119
1,72,127,1
1,72,0,59
1,72,127,1
1,72,0,59
1,71,127,1
1,71,0,59
1,64,0,0
1,67,0,0
1,71,127,1
1,62,127,0
1,71,0,59
1,69,127,1
1,69,0,59
1,67,127,1
1,67,0,59
1,62,0,0
1,69,127,1
1,66,127,0
1,62,127,0
1,69,0,119
1,71,127,61
1,71,0,59
1,62,0,0
1,66,0,0
1,69,127,1
1,69,127,0
1,66,127,0
1,62,127,0
1,62,0,59
1,69,0,0
1,69,0,0
1,66,0,0
1,67,127,1
1,59,127,0
1,67,0,59
1,64,127,1
1,64,0,59
1,67,127,1
1,67,0,59
1,64,127,1
1,64,0,29
1,67,127,1
1,67,0,89
1,66,127,1
1,66,0,29
1,64,127,1
1,64,0,149
1,59,0,0
1,69,127,1
1,64,127,0
1,61,127,0
1,61,0,119
1,64,0,0
1,69,0,0
1,67,127,361
1,59,127,0
1,67,0,59
1,64,127,1
1,64,0,59
1,67,127,1
1,67,0,59
1,64,127,1
1,64,0,29
1,67,127,1
1,67,0,89
1,66,127,1
1,66,0,29
1,64,127,1
1,64,0,149
1,59,0,0
1,66,127,1
1,60,127,0
1,57,127,0
1,66,0,29
1,64,127,1
1,64,0,29
1,62,127,1
1,62,0,419
1,57,0,0
1,60,0,0
1,74,127,601
1,71,127,0
1,67,127,0
1,67,0,59
1,71,0,0
1,74,0,0
1,76,127,1
1,71,127,0
1,67,127,0
1,67,0,119
1,71,0,0
1,76,0,0
1,74,127,1
1,71,127,0
1,67,127,0
1,67,0,119
1,71,0,0
1,74,0,0
1,74,127,1
1,71,127,0
1,67,127,0
1,67,0,59
1,71,0,0
1,74,0,0
1,74,127,1
1,71,127,0
1,64,127,0
1,64,0,59
1,71,0,0
1,74,0,0
1,72,127,1
1,69,127,0
1,64,127,0
1,64,0,119
1,69,0,0
1,72,0,0
1,71,127,1
1,62,127,0
1,62,0,59
1,71,0,0
1,69,127,1
1,60,127,0
1,60,0,59
1,69,0,0
1,69,127,1
1,69,0,59
1,71,127,1
1,64,127,58
1,71,0,1
1,67,127,1
1,72,127,0
1,72,0,175
1,67,0,0
1,64,0,3
1,71,127,2
1,67,127,0
1,64,127,0
1,64,0,119
1,67,0,0
1,71,0,0
1,72,127,1
1,67,127,0
1,64,127,0
1,64,0,119
1,67,0,0
1,72,0,0
1,71,127,1
1,67,127,0
1,64,127,0
1,64,0,119
1,67,0,0
1,71,0,0
1,72,127,1
1,69,127,0
1,64,127,0
1,72,0,119
1,71,127,1
1,71,0,59
1,64,0,0
1,69,0,0
1,67,127,1
1,64,127,0
1,60,127,0
1,67,0,59
1,69,127,1
1,69,0,119
1,60,0,0
1,64,0,0
1,67,127,241
1,64,127,0
1,59,127,0
1,67,0,59
1,67,127,1
1,67,0,59
1,64,0,0
1,67,127,1
1,64,127,0
1,67,0,119
1,66,127,1
1,66,0,59
1,64,0,0
1,59,0,0
1,67,127,1
1,62,127,0
1,57,127,0
1,67,0,179
1,66,127,1
1,66,0,59
1,57,0,0
1,62,0,0
1,62,127,1
1,54,127,0
1,54,0,179
1,62,0,0
1,76,127,481
1,69,127,0
1,66,127,0
1,76,0,59
1,74,127,1
1,74,0,59
1,66,0,0
1,69,0,0
1,76,127,1
1,71,127,0
1,67,127,0
1,76,0,59
1,74,127,1
1,74,0,119
1,74,127,1
1,74,0,59
1,67,0,0
1,71,0,0
1,74,127,1
1,69,127,0
1,62,127,0
1,74,0,59
1,71,127,1
1,71,0,59
1,71,127,1
1,71,0,119
1,62,0,0
1,69,0,0
1,74,127,1
1,71,127,0
1,67,127,0
1,74,0,59
1,74,127,1
1,74,0,119
1,67,0,0
1,71,0,0
1,76,127,1
1,71,127,0
1,67,127,0
1,67,0,179
1,71,0,0
1,76,0,0
1,71,127,1
1,67,127,0
1,64,127,0
1,64,0,119
1,67,0,0
1,71,0,0
1,74,127,1
1,67,127,0
1,64,127,0
1,74,0,59
1,69,127,1
1,69,0,59
1,64,0,0
1,67,0,0
1,74,127,181
1,67,127,0
1,64,127,0
1,74,0,119
1,72,127,1
1,72,0,59
1,64,0,0
1,67,0,0
1,71,127,1
1,67,127,0
1,64,127,0
1,71,0,59
1,69,127,1
1,69,0,119
1,64,0,0
1,67,0,0
1,72,127,1
1,67,127,0
1,64,127,0
1,64,0,179
1,67,0,0
1,72,0,0
1,71,127,1
1,67,127,0
1,64,127,0
1,64,0,119
1,67,0,0
1,71,0,0
1,67,127,61
1,59,127,0
1,59,0,119
1,67,0,0
1,64,127,1
1,64,0,59
1,67,127,1
1,59,127,0
1,59,0,119
1,67,0,0
1,64,127,1
1,64,0,119
1,67,127,1
1,61,127,0
1,61,0,59
1,67,0,0
1,64,127,1
1,64,0,119
1,67,127,1
1,61,127,0
1,61,0,179
1,67,0,0
1,71,127,121
1,66,127,120
1,62,127,0
1,62,0,119
1,66,0,0
1,71,0,0
1,71,127,1
1,66,127,120
1,62,127,0
1,71,0,59
1,72,127,1
1,72,0,29
1,71,127,1
1,71,0,29
1,69,127,1
1,69,0,29
1,71,127,1
1,71,0,29
1,62,0,61
1,66,0,0
1,66,127,0
1,62,127,0
1,62,0,119
1,66,0,0
1,71,127,61
1,71,0,59
1,72,127,1
1,66,127,0
1,62,127,0
1,62,0,119
1,66,0,0
1,72,0,0
1,76,127,1
1,67,127,0
1,64,127,0
1,76,0,119
1,71,127,1
1,71,0,59
1,64,0,0
1,67,0,0
1,71,127,1
1,67,127,0
1,64,127,0
1,64,0,119
1,67,0,0
1,71,0,0
1,71,127,1
1,67,127,0
1,64,127,0
1,64,0,179
1,67,0,0
1,71,0,0
1,72,127,1
1,66,127,0
1,62,127,0
1,72,0,119
1,71,127,1
1,71,0,59
1,62,0,0
1,66,0,0
1,74,127,1
1,69,127,0
1,66,127,0
1,74,0,119
1,72,127,1
1,72,0,59
1,71,127,1
1,66,0,119
1,69,0,0
1,67,127,1
1,64,127,0
1,71,0,59
1,76,127,1
1,76,0,119
1,71,127,1
1,71,0,59
1,64,0,0
1,67,0,0
1,71,127,1
1,67,127,0
1,64,127,0
1,71,0,119
1,71,127,1
1,71,0,119
1,64,0,0
1,67,0,0
1,72,127,1
1,66,127,0
1,62,127,0
1,72,0,119
1,71,127,1
1,71,0,59
1,62,0,0
1,66,0,0
1,74,127,1
1,69,127,0
1,66,127,0
1,66,0,179
1,69,0,0
1,74,0,0
1,69,127,1
1,66,127,0
1,71,127,60
1,71,0,59
1,66,0,0
1,69,0,0
1,72,127,1
1,67,127,0
1,64,127,0
1,72,0,119
1,71,127,1
1,71,0,119
1,64,0,0
1,67,0,0
1,69,127,1
1,62,127,0
1,69,0,59
1,67,127,1
1,67,0,59
1,67,127,1
1,67,0,59
1,62,0,0
1,71,127,1
1,67,127,0
1,61,127,0
1,71,0,119
1,69,127,1
1,61,0,175
1,69,0,4
1,67,0,0
1,79,127,61
1,76,127,0
1,73,127,0
1,67,127,0
1,79,0,59
1,79,127,1
1,79,0,119
1,67,0,0
1,73,0,0
1,76,0,0
1,79,127,1
1,76,127,0
1,72,127,0
1,67,127,0
1,79,0,119
1,79,127,1
1,79,0,119
1,67,0,0
1,72,0,0
1,76,0,0
1,79,127,1
1,72,127,0
1,67,127,0
1,79,0,59
1,79,127,1
1,79,0,59
1,67,0,0
1,72,0,0
1,81,127,1
1,79,127,0
1,76,127,0
1,69,127,0
1,81,0,119
1,79,0,1
1,76,0,0
1,69,0,0
1,78,127,0
1,72,127,0
1,69,127,0
1,78,0,59
1,74,127,1
1,74,0,119
1,69,0,0
1,72,0,0
1,86,127,1
1,78,127,0
1,72,127,0
1,86,0,119
1,83,127,1
1,83,0,59
1,72,0,0
1,78,0,0
1,79,127,1
1,72,127,0
1,69,127,0
1,79,0,59
1,76,127,1
1,76,0,59
1,69,0,0
1,72,0,0
1,79,127,1
1,71,127,0
1,67,127,0
1,79,0,59
1,76,127,1
1,76,0,59
1,74,127,1
1,74,0,59
1,67,0,0
1,71,0,0
1,74,127,1
1,69,127,0
