track,note,velocity,time
1,62,114,4213
1,62,0,96
1,64,105,2
1,64,0,86
1,67,109,5
1,67,0,83
1,69,103,6
1,69,0,87
1,71,113,12
1,71,0,789
1,71,95,357
1,71,0,79
1,69,84,5
1,67,88,122
1,69,0,2
1,67,0,56
1,64,91,1
1,64,0,90
1,69,98,13
1,69,0,81
1,71,97,3
1,71,0,58
1,64,100,12
1,64,0,721
1,71,111,281
1,71,0,76
1,69,101,6
1,69,0,109
1,67,110,10
1,67,0,70
1,64,89,4
1,64,0,107
1,69,100,10
1,69,0,66
1,71,97,3
1,71,0,58
1,64,97,15
1,64,0,464
1,66,115,118
1,66,0,49
1,67,93,8
1,67,0,74
1,66,106,11
1,66,0,72
1,64,98,9
1,64,0,87
1,62,94,3
1,62,0,97
1,64,95,4
1,64,0,101
1,66,93,1
1,66,0,92
1,67,93,0
1,69,113,86
1,67,0,5
1,69,0,75
1,71,92,46
1,62,89,388
1,71,0,10
1,62,0,64
1,64,98,20
1,64,0,68
1,67,91,31
1,67,0,58
1,69,93,37
1,69,0,62
1,71,63,12
1,71,0,854
1,71,115,174
1,71,0,106
1,71,97,28
1,71,0,76
1,69,96,8
1,69,0,98
1,67,106,7
1,67,0,69
1,64,86,4
1,64,0,65
1,69,97,89
1,69,0,52
1,71,91,10
1,71,0,49
1,64,97,13
1,64,0,707
1,71,102,207
1,71,0,145
1,69,105,15
1,69,0,89
1,67,101,9
1,67,0,61
1,64,86,6
1,64,0,123
1,69,99,8
1,69,0,68
1,71,93,4
1,71,0,57
1,64,97,12
1,64,0,449
1,66,110,86
1,66,0,85
1,67,95,15
1,67,0,78
1,66,106,8
1,66,0,94
1,64,103,9
1,64,0,87
1,62,94,4
1,62,0,89
1,64,102,15
1,64,0,94
1,66,91,2
1,66,0,86
1,67,95,4
1,67,0,74
1,69,100,2
1,69,0,63
1,67,104,11
1,67,0,912
1,62,91,306
1,62,0,71
1,67,104,9
1,67,0,61
1,69,90,5
1,69,0,72
1,71,96,12
1,71,0,57
1,67,103,13
1,67,0,58
1,69,97,6
1,69,0,810
1,69,114,336
1,69,0,86
1,71,104,5
1,71,0,105
1,72,95,2
1,72,0,62
1,74,97,3
1,74,0,66
1,71,106,11
1,71,0,288
1,76,98,3
1,76,0,71
1,74,97,14
1,74,0,570
1,71,85,258
1,71,0,57
1,72,84,1
1,72,0,54
1,71,91,8
1,71,0,70
1,69,80,10
1,69,0,76
1,64,58,22
1,64,0,78
1,71,97,14
1,71,0,98
1,69,97,14
1,69,0,710
1,69,105,198
1,69,0,46
1,69,99,24
1,69,0,49
1,69,96,21
1,69,0,62
1,71,93,14
1,71,0,74
1,72,93,15
1,72,0,67
1,69,91,14
1,69,0,106
1,71,105,28
1,71,0,82
1,71,97,9
1,71,0,71
1,71,91,22
1,71,0,42
1,72,91,11
1,72,0,66
1,71,105,9
1,72,95,26
1,71,0,5
1,71,84,13
1,72,0,13
1,71,0,70
1,69,89,17
1,69,0,86
1,67,97,10
1,67,0,66
1,64,89,3
1,64,0,98
1,69,97,49
1,69,0,191
1,71,91,1
1,71,0,78
1,64,81,20
1,64,0,621
1,62,103,118
1,66,97,95
1,62,0,1
1,66,0,74
1,67,84,13
1,67,0,82
1,69,83,18
1,69,0,66
1,66,99,3
1,66,0,66
1,67,95,15
1,67,0,869
1,62,107,345
1,62,0,85
1,64,89,10
1,64,0,83
1,67,87,7
1,67,0,90
1,69,90,6
1,69,0,94
1,71,113,21
1,71,0,390
1,71,95,375
1,71,0,79
1,69,84,5
1,67,88,122
1,69,0,2
1,67,0,56
1,64,91,1
1,64,0,90
1,69,98,13
1,69,0,82
1,71,97,2
1,71,0,58
1,64,100,12
1,64,0,721
1,71,111,281
1,71,0,76
1,69,101,6
1,69,0,109
1,67,110,10
1,67,0,70
1,64,89,4
1,64,0,107
1,69,100,10
1,69,0,66
1,71,97,4
1,71,0,57
1,64,97,15
1,64,0,464
1,66,115,118
1,66,0,50
1,67,93,7
1,67,0,74
1,66,106,10
1,66,0,73
1,64,98,10
1,64,0,86
1,62,94,4
1,62,0,96
1,64,95,4
1,64,0,101
1,66,93,1
1,66,0,92
1,67,93,0
1,69,113,86
1,67,0,5
1,69,0,75
1,71,92,46
1,62,89,388
1,71,0,10
1,62,0,64
1,64,98,20
1,64,0,68
1,67,91,32
1,67,0,57
1,69,93,37
1,69,0,62
1,71,63,12
1,71,0,853
1,71,115,175
1,71,0,106
1,71,97,28
1,71,0,76
1,69,96,7
1,69,0,99
1,67,106,8
1,67,0,68
1,64,86,3
1,64,0,66
1,64,87,21
1,64,0,62
1,69,97,6
1,69,0,52
1,71,91,10
1,71,0,49
1,64,97,13
1,64,0,707
1,71,102,207
1,71,0,145
1,69,105,14
1,69,0,90
1,67,101,9
1,67,0,62
1,64,86,6
1,64,0,122
1,69,99,8
1,69,0,68
1,71,93,4
1,71,0,57
1,64,97,12
1,64,0,449
1,66,110,86
1,66,0,85
1,67,95,15
1,67,0,78
1,66,106,8
1,66,0,94
1,64,103,10
1,64,0,86
1,62,94,4
1,62,0,89
1,64,102,15
1,64,0,94
1,66,91,1
1,66,0,87
1,67,95,4
1,67,0,74
1,69,100,2
1,69,0,63
1,67,104,11
1,67,0,912
1,62,91,306
1,62,0,71
1,67,104,9
1,67,0,61
1,69,90,5
1,69,0,72
1,71,96,12
1,71,0,57
1,67,103,13
1,67,0,58
1,69,97,6
1,69,0,809
1,69,114,337
1,69,0,86
1,71,104,6
1,71,0,104
1,72,95,2
1,72,0,62
1,74,97,4
1,74,0,65
1,71,106,11
1,71,0,288
1,76,98,3
1,76,0,71
1,74,97,14
1,74,0,570
1,71,85,258
1,71,0,57
1,72,84,1
1,72,0,54
1,71,91,7
1,71,0,71
1,69,80,9
1,69,0,77
1,64,58,22
1,64,0,78
1,71,97,14
1,71,0,98
1,69,97,14
1,69,0,710
1,69,105,198
1,69,0,46
1,69,99,24
1,69,0,49
1,69,96,21
1,69,0,62
1,71,93,14
1,71,0,74
1,72,93,15
1,72,0,67
1,69,91,14
1,69,0,106
1,71,105,20
1,71,0,82
1,71,97,18
1,71,0,70
1,71,91,22
1,71,0,42
1,72,91,12
1,72,0,65
1,71,105,9
1,72,95,26
1,71,0,5
1,71,84,13
1,72,0,14
1,71,0,69
1,69,89,17
1,69,0,86
1,67,97,10
1,67,0,66
1,64,89,4
1,64,0,97
1,69,97,11
1,69,0,85
1,71,91,22
1,71,0,79
1,64,81,18
1,64,0,622
1,62,103,242
1,66,97,94
1,62,0,2
1,66,0,73
1,67,84,13
1,67,0,81
1,69,83,19
1,69,0,66
1,66,99,4
1,66,0,65
1,67,115,89
1,67,0,182
1,67,115,72
1,67,0,81
1,67,115,47
1,67,0,100
1,69,115,30
1,69,0,78
1,71,115,26
1,71,0,87
1,71,115,42
1,71,0,195
1,69,115,18
1,69,0,580
1,62,115,104
1,62,0,124
1,69,115,18
1,69,0,100
1,69,115,34
1,69,0,108
1,71,115,24
1,71,0,113
1,72,115,17
1,72,0,96
1,74,115,29
1,74,0,769
1,71,115,144
1,71,0,205
1,72,115,17
1,72,0,134
1,74,115,16
1,74,0,177
1,76,115,23
1,76,0,124
1,74,114,1
1,74,0,83
1,74,100,22
1,74,0,74
1,72,115,10
1,72,0,79
1,71,109,20
1,71,0,100
1,71,109,23
1,71,0,57
1,72,102,10
1,72,0,121
1,75,115,82
1,75,0,88
1,74,111,4
1,74,0,76
1,74,115,34
1,74,0,57
1,72,103,14
1,72,0,93
1,74,115,30
1,74,0,164
1,75,115,156
1,75,0,50
1,74,114,14
1,74,0,79
1,72,105,4
1,72,0,65
1,72,114,24
1,72,0,83
1,71,105,14
1,71,0,70
1,71,115,31
1,71,0,88
1,67,111,14
1,67,0,94
1,69,115,6
1,69,0,75
1,71,115,9
1,71,0,84
1,71,115,21
1,71,0,386
1,71,115,220
1,71,0,30
1,71,115,30
1,71,0,45
1,72,111,23
1,72,0,76
1,71,103,4
1,71,0,72
1,71,114,32
1,71,0,67
1,69,113,23
1,69,0,74
1,69,114,38
1,69,0,79
1,71,106,19
1,71,0,74
1,72,115,100
1,72,0,68
1,72,115,36
1,72,0,71
1,71,110,14
1,71,0,74
1,71,111,39
1,71,0,76
1,69,105,8
1,69,0,68
1,69,111,31
1,69,0,81
1,67,110,10
1,67,0,82
1,66,95,22
1,66,0,87
1,67,115,19
1,67,0,53
1,71,115,227
1,71,0,74
1,69,115,14
1,69,0,88
1,67,115,16
1,67,0,173
1,66,115,23
1,66,0,161
1,67,110,25
1,67,0,834
1,62,115,315
1,64,114,104
1,62,0,5
1,64,0,88
1,67,115,7
1,69,107,89
1,67,0,13
1,69,0,78
1,71,113,21
1,71,0,789
1,71,95,357
1,71,0,79
1,69,84,5
1,67,88,122
1,69,0,2
1,67,0,56
1,64,91,2
1,64,0,89
1,69,98,13
1,69,0,82
1,71,97,2
1,71,0,58
1,64,100,12
1,64,0,721
1,71,111,281
1,71,0,76
1,69,101,6
1,69,0,109
1,67,110,10
1,67,0,70
1,64,89,4
1,64,0,107
1,69,100,10
1,69,0,66
1,71,97,3
1,71,0,58
1,64,97,15
1,64,0,464
1,66,115,118
1,66,0,50
1,67,93,7
1,67,0,74
1,66,106,11
1,66,0,72
1,64,98,10
1,64,0,86
1,62,94,4
1,62,0,96
1,64,95,4
1,64,0,101
1,66,93,1
1,66,0,92
1,67,93,0
1,69,113,86
1,67,0,5
1,69,0,75
1,71,92,46
1,62,89,388
1,71,0,10
1,62,0,64
1,64,98,20
1,64,0,68
1,67,91,32
1,67,0,57
1,69,93,37
1,69,0,62
1,71,63,12
1,71,0,854
1,71,115,174
1,71,0,106
1,71,97,28
1,71,0,76
1,69,96,8
1,69,0,98
1,67,106,8
1,67,0,68
1,64,86,3
1,64,0,66
1,64,87,21
1,64,0,62
1,69,97,6
1,69,0,52
1,71,91,10
1,71,0,49
1,64,97,13
1,64,0,707
1,71,102,206
1,71,0,146
1,69,105,15
1,69,0,89
1,67,101,9
1,67,0,62
1,64,86,6
1,64,0,122
1,69,99,8
1,69,0,68
1,71,93,4
1,71,0,57
1,64,97,13
1,64,0,448
1,66,110,86
1,66,0,85
1,67,95,14
1,67,0,79
1,66,106,8
1,66,0,94
1,64,103,10
1,64,0,86
1,62,94,3
1,62,0,90
1,64,102,15
1,64,0,94
1,66,91,1
1,66,0,87
1,67,95,4
1,67,0,74
1,69,100,1
1,69,0,64
1,67,104,10
1,67,0,913
1,62,91,306
1,62,0,71
1,67,104,9
1,67,0,61
1,69,90,5
1,69,0,72
1,71,96,12
1,71,0,57
1,67,103,13
1,67,0,58
1,69,97,6
1,69,0,810
1,69,114,335
1,69,0,87
1,71,104,6
1,71,0,104
1,72,95,2
1,72,0,62
1,74,97,4
1,74,0,65
1,71,106,10
1,71,0,289
1,76,98,3
1,76,0,71
1,74,97,14
1,74,0,570
1,71,85,257
1,71,0,58
1,72,84,1
1,72,0,54
1,71,91,7
1,71,0,71
1,69,80,10
1,69,0,76
1,64,58,22
1,64,0,78
1,71,97,14
1,71,0,98
1,69,97,13
1,69,0,711
1,69,105,198
1,69,0,45
1,69,99,25
1,69,0,49
1,69,96,21
1,69,0,62
1,71,93,14
1,71,0,74
1,72,93,15
1,72,0,67
1,69,91,14
1,69,0,106
1,71,105,28
1,71,0,82
1,71,97,9
1,71,0,71
1,71,91,22
1,71,0,42
1,72,91,11
1,72,0,66
1,71,105,9
1,72,95,26
1,71,0,5
1,71,84,13
1,72,0,14
1,71,0,69
1,69,89,17
1,69,0,86
1,67,97,10
1,67,0,66
1,64,89,4
1,64,0,97
1,67,115,49
1,67,0,175
1,64,109,15
1,64,0,88
1,71,113,12
1,71,0,532
1,64,114,221
1,64,0,92
1,66,110,6
1,66,0,87
1,67,109,9
1,67,0,79
1,69,115,10
1,69,0,78
1,71,110,10
1,71,0,92
1,74,115,15
1,74,0,8
2,43,93,4608
2,43,0,484
2,50,97,92
2,50,0,78
2,47,88,18
2,47,0,74
2,43,103,22
2,43,0,338
2,43,87,46
2,43,0,77
2,47,86,19
2,47,0,69
2,50,84,27
2,50,0,70
2,47,84,26
2,47,0,62
2,45,100,34
2,45,0,351
2,52,94,225
2,52,0,42
2,48,87,6
2,48,0,38
2,47,73,10
2,47,0,69
2,45,104,27
2,45,0,370
2,52,83,14
2,52,0,146
2,48,89,46
2,48,0,103
2,36,104,89
2,36,0,260
2,36,89,124
2,36,0,74
2,40,87,22
2,40,0,66
2,43,78,30
2,43,0,41
2,40,77,7
2,40,0,42
2,36,92,6
2,36,0,58
2,38,103,38
2,38,0,307
2,38,80,29
2,38,0,30
2,42,80,18
2,42,0,84
2,45,80,12
2,45,0,74
2,50,73,22
2,45,80,96
2,50,0,8
2,45,0,58
2,43,84,30
2,43,0,323
2,47,80,61
2,47,0,76
2,50,80,20
2,50,0,76
2,47,72,20
2,47,0,57
2,45,75,39
2,45,0,72
2,43,100,24
2,43,0,256
2,50,75,32
2,50,0,69
2,50,76,27
2,50,0,179
2,47,57,13
2,47,0,27
2,50,80,21
2,50,0,42
2,47,84,6
2,47,0,74
2,43,94,22
2,43,0,336
2,43,79,48
2,43,0,78
2,47,80,18
2,47,0,67
2,50,78,29
2,50,0,76
2,43,78,20
2,43,0,66
2,45,93,30
2,45,0,256
2,52,87,32
2,52,0,70
2,52,82,26
2,52,0,180
2,48,73,12
2,48,0,37
2,52,70,11
2,52,0,41
2,48,83,7
2,48,0,82
2,45,94,14
2,45,0,245
2,45,85,43
2,45,0,86
2,48,82,10
2,48,0,62
2,52,78,34
2,52,0,81
2,48,77,15
2,48,0,69
2,45,75,27
2,45,0,78
2,48,78,18
2,48,0,241
2,48,84,47
2,48,0,73
2,43,80,23
2,43,0,184
2,48,90,8
2,48,0,73
2,43,63,23
2,43,0,73
2,50,97,23
2,50,0,275
2,45,87,13
2,45,0,71
2,45,84,25
2,45,0,142
2,42,86,50
2,42,0,69
2,38,65,27
2,38,0,74
2,43,97,22
2,43,0,252
2,43,85,36
2,43,0,75
2,48,100,21
2,48,0,166
2,48,84,26
2,48,0,153
2,43,96,39
2,43,0,280
2,43,80,104
2,43,0,74
2,47,84,22
2,47,0,71
2,50,81,25
2,50,0,70
2,47,83,26
2,47,0,71
2,45,93,25
2,45,0,244
2,52,83,44
2,52,0,82
2,52,84,14
2,52,0,164
2,48,71,28
2,48,0,30
2,52,71,18
2,52,0,37
2,48,70,11
2,48,0,78
2,50,94,18
2,50,0,251
2,45,88,37
2,45,0,70
2,45,83,26
2,45,0,162
2,50,80,30
2,50,0,167
2,43,93,25
2,43,0,232
2,50,86,56
2,50,0,73
2,50,80,23
2,50,0,82
2,43,78,14
2,43,0,62
2,42,72,34
2,42,0,114
2,40,89,78
2,40,0,284
2,40,76,4
2,40,0,85
2,43,84,11
2,43,0,76
2,47,84,20
2,47,0,79
2,43,76,17
2,43,0,69
2,40,76,27
2,40,0,74
2,45,91,22
2,45,0,224
2,45,84,64
2,45,0,74
2,45,80,22
2,45,0,169
2,40,75,23
2,40,0,71
2,45,82,25
2,45,0,76
2,38,101,20
2,38,0,256
2,38,90,32
2,38,0,74
2,42,73,22
2,42,0,70
2,45,87,26
2,45,0,73
2,42,69,23
2,42,0,78
2,38,77,18
2,38,0,62
2,40,100,34
2,40,0,251
2,40,80,37
2,40,0,44
2,47,91,52
2,43,67,96
2,47,0,7
2,43,0,71
2,40,82,18
2,40,0,172
2,45,103,20
2,45,0,220
2,45,92,68
2,45,0,66
2,45,93,30
2,45,0,155
2,40,84,37
2,40,0,167
2,45,101,25
2,45,0,236
2,45,80,52
2,45,0,70
2,38,98,26
2,38,0,150
2,38,96,42
2,38,0,149
2,43,97,43
2,43,0,208
2,47,90,80
2,47,0,77
2,50,85,19
2,50,0,78
2,47,75,18
2,47,0,73
2,50,83,23
2,47,80,48
2,50,0,5
2,47,0,34
2,43,76,9
2,43,0,55
2,43,104,41
2,43,0,148
