track,note,velocity,time
3,62,95,242
3,62,0,61
3,64,95,0
3,64,0,61
3,67,95,0
3,67,0,61
3,69,95,0
3,69,0,61
3,71,95,0
3,71,0,488
3,71,95,244
3,71,0,62
3,69,95,0
3,69,0,61
3,67,95,0
3,67,0,61
3,64,95,0
3,64,0,61
3,69,95,0
3,69,0,61
3,71,95,0
3,71,0,61
3,64,95,0
3,64,0,366
3,71,95,244
3,71,0,61
3,69,95,0
3,69,0,61
3,67,95,0
3,67,0,61
3,64,95,0
3,64,0,62
3,69,95,0
3,69,0,61
3,71,95,0
3,71,0,61
3,64,95,0
3,64,0,244
3,66,95,61
3,66,0,61
3,67,95,0
3,67,0,61
3,66,95,0
3,66,0,61
3,64,95,0
3,64,0,61
3,62,95,0
3,62,0,61
3,64,95,0
3,64,0,61
3,66,95,0
3,66,0,61
3,67,95,0
3,67,0,61
3,69,95,0
3,69,0,61
3,71,95,0
3,71,0,122
3,62,95,0
3,62,0,62
3,62,95,0
3,62,0,61
3,62,95,0
3,62,0,61
3,64,95,0
3,64,0,61
3,67,95,0
3,67,0,61
3,69,95,0
3,69,0,61
3,71,95,0
3,71,0,488
3,71,95,183
3,71,0,61
3,71,95,0
3,71,0,61
3,69,95,0
3,69,0,62
3,67,95,0
3,67,0,61
3,64,95,0
3,64,0,29
3,64,95,0
3,64,0,32
3,69,95,0
3,69,0,61
3,71,95,0
3,71,0,61
3,64,95,0
3,64,0,366
3,71,95,183
3,71,0,61
3,71,95,0
3,71,0,61
3,69,95,0
3,69,0,61
3,67,95,0
3,67,0,61
3,64,95,0
3,64,0,30
3,64,95,0
3,64,0,29
3,69,95,0
3,69,0,61
3,71,95,0
3,71,0,61
3,64,95,0
3,64,0,245
3,66,95,61
3,66,0,61
3,67,95,0
3,67,0,61
3,66,95,0
3,66,0,61
3,64,95,0
3,64,0,61
3,62,95,0
3,62,0,61
3,64,95,0
3,64,0,61
3,66,95,0
3,66,0,61
3,67,95,0
3,67,0,61
3,69,95,0
3,69,0,61
3,67,95,0
3,67,0,489
3,67,95,244
3,67,0,61
3,69,95,0
3,69,0,61
3,71,95,0
3,71,0,61
3,67,95,0
3,67,0,61
3,69,95,0
3,69,0,486
3,69,95,242
3,69,0,62
3,71,95,0
3,71,0,61
3,72,95,0
3,72,0,61
3,74,95,0
3,74,0,61
3,71,95,0
3,71,0,183
3,71,95,0
3,71,0,61
3,71,95,0
3,71,0,244
3,71,95,122
3,71,0,61
3,72,95,0
3,72,0,61
3,71,95,0
3,71,0,61
3,69,95,0
3,69,0,61
3,67,95,0
3,67,0,61
3,64,95,0
3,64,0,62
3,71,95,0
3,71,0,61
3,69,95,0
3,69,0,61
3,69,95,0
3,69,0,364
3,69,95,122
3,69,0,61
3,69,95,0
3,69,0,61
3,69,95,0
3,69,0,61
3,71,95,0
3,71,0,61
3,72,95,0
3,72,0,61
3,69,95,0
3,69,0,61
3,71,95,0
3,71,0,61
3,71,95,0
3,71,0,61
3,71,95,0
3,71,0,61
3,72,95,0
3,72,0,61
3,71,95,0
3,71,0,62
3,69,95,0
3,69,0,61
3,67,95,0
3,67,0,61
3,64,95,0
3,64,0,61
3,69,95,0
3,69,0,120
3,71,95,0
3,71,0,61
3,64,95,0
3,64,0,305
3,62,95,181
3,62,0,61
3,66,95,0
3,66,0,61
3,67,95,0
3,67,0,61
3,69,95,0
3,69,0,61
3,66,95,0
3,66,0,61
3,67,95,0
3,67,0,733
3,62,95,0
3,62,0,61
3,64,95,0
3,64,0,61
3,67,95,0
3,67,0,61
3,69,95,0
3,69,0,61
3,71,95,0
3,71,0,489
3,71,95,244
3,71,0,61
3,69,95,0
3,69,0,61
3,67,95,0
3,67,0,61
3,64,95,0
3,64,0,61
3,69,95,0
3,69,0,61
3,71,95,0
3,71,0,61
3,64,95,0
3,64,0,366
3,71,95,245
3,71,0,61
3,69,95,0
3,69,0,61
3,67,95,0
3,67,0,61
3,64,95,0
3,64,0,61
3,69,95,0
3,69,0,61
3,71,95,0
3,71,0,61
3,64,95,0
3,64,0,244
3,66,95,61
3,66,0,61
3,67,95,0
3,67,0,61
3,66,95,0
3,66,0,61
3,64,95,0
3,64,0,61
3,62,95,0
3,62,0,61
3,64,95,0
3,64,0,62
3,66,95,0
3,66,0,61
3,67,95,0
3,67,0,61
3,69,95,0
3,69,0,61
3,71,95,0
3,71,0,122
3,62,95,0
3,62,0,61
3,62,95,0
3,62,0,61
3,62,95,0
3,62,0,61
3,64,95,0
3,64,0,61
3,67,95,0
3,67,0,61
3,69,95,0
3,69,0,61
3,71,95,0
3,71,0,489
3,71,95,183
3,71,0,61
3,71,95,0
3,71,0,61
3,69,95,0
3,69,0,61
3,67,95,0
3,67,0,61
3,64,95,0
3,64,0,29
3,64,95,0
3,64,0,32
3,69,95,0
3,69,0,61
3,71,95,0
3,71,0,61
3,64,95,0
3,64,0,366
3,71,95,184
3,71,0,61
3,71,95,0
3,71,0,61
3,69,95,0
3,69,0,61
3,67,95,0
3,67,0,61
3,64,95,0
3,64,0,29
3,64,95,0
3,64,0,32
3,69,95,0
3,69,0,61
3,71,95,0
3,71,0,61
3,64,95,0
3,64,0,244
3,66,95,61
3,66,0,61
3,67,95,0
3,67,0,61
3,66,95,0
3,66,0,61
3,64,95,0
3,64,0,61
3,62,95,0
3,62,0,61
3,64,95,0
3,64,0,61
3,66,95,0
3,66,0,62
3,67,95,0
3,67,0,61
3,69,95,0
3,69,0,61
3,67,95,0
3,67,0,488
3,67,95,242
3,67,0,61
3,69,95,0
3,69,0,61
3,71,95,0
3,71,0,61
3,67,95,0
3,67,0,61
3,69,95,0
3,69,0,487
3,69,95,244
3,69,0,61
3,71,95,0
3,71,0,61
3,72,95,0
3,72,0,61
3,74,95,0
3,74,0,61
3,71,95,0
3,71,0,183
3,71,95,0
3,71,0,61
3,71,95,0
3,71,0,245
3,71,95,120
3,71,0,61
3,72,95,0
3,72,0,61
3,71,95,0
3,71,0,61
3,69,95,0
3,69,0,61
3,67,95,0
3,67,0,61
3,64,95,0
3,64,0,61
3,71,95,0
3,71,0,61
3,69,95,0
3,69,0,61
3,69,95,0
3,69,0,364
3,69,95,122
3,69,0,61
3,69,95,0
3,69,0,61
3,69,95,0
3,69,0,61
3,71,95,0
3,71,0,61
3,72,95,0
3,72,0,62
3,69,95,0
3,69,0,61
3,71,95,0
3,71,0,61
3,71,95,0
3,71,0,61
3,71,95,0
3,71,0,61
3,72,95,0
3,72,0,61
3,71,95,0
3,71,0,61
3,69,95,0
3,69,0,61
3,67,95,0
3,67,0,61
3,64,95,0
3,64,0,61
3,69,95,0
3,69,0,122
3,71,95,0
3,71,0,61
3,64,95,0
3,64,0,181
3,64,95,0
3,64,0,122
3,62,95,181
3,62,0,61
3,66,95,0
3,66,0,61
3,67,95,0
3,67,0,62
3,69,95,0
3,69,0,61
3,66,95,0
3,66,0,61
3,67,95,0
3,67,0,122
3,67,95,0
3,67,0,61
3,67,95,0
3,67,0,61
3,69,95,0
3,69,0,120
3,71,95,0
3,71,0,122
3,71,95,0
3,71,0,122
3,69,95,0
3,69,0,362
3,62,95,61
3,62,0,61
3,69,95,0
3,69,0,61
3,69,95,0
3,69,0,61
3,71,95,0
3,71,0,122
3,72,95,0
3,72,0,123
3,74,95,0
3,74,0,488
3,71,95,122
3,71,0,122
3,72,95,0
3,72,0,122
3,74,95,0
3,74,0,122
3,76,95,0
3,76,0,61
3,74,95,0
3,74,0,62
3,74,95,0
3,74,0,61
3,72,95,0
3,72,0,61
3,72,95,0
3,72,0,29
3,71,95,0
3,71,0,30
3,71,95,0
3,71,0,61
3,72,95,0
3,72,0,122
3,75,95,0
3,75,0,61
3,74,95,0
3,74,0,61
3,74,95,0
3,74,0,61
3,72,95,0
3,72,0,61
3,74,95,0
3,74,0,122
3,75,95,61
3,75,0,61
3,74,95,0
3,74,0,61
3,72,95,0
3,72,0,61
3,72,95,0
3,72,0,61
3,71,95,0
3,71,0,61
3,71,95,0
3,71,0,61
3,67,95,0
3,67,0,61
3,69,95,0
3,69,0,62
3,71,95,0
3,71,0,61
3,71,95,0
3,71,0,364
3,71,95,0
3,71,0,61
3,71,95,0
3,71,0,61
3,72,95,0
3,72,0,61
3,71,95,0
3,71,0,61
3,71,95,0
3,71,0,61
3,69,95,0
3,69,0,61
3,69,95,0
3,69,0,61
3,71,95,0
3,71,0,61
3,71,95,61
3,71,0,61
3,72,95,0
3,72,0,61
3,71,95,0
3,71,0,61
3,71,95,0
3,71,0,61
3,69,95,0
3,69,0,62
3,69,95,0
3,69,0,61
3,67,95,0
3,67,0,61
3,66,95,0
3,66,0,61
3,67,95,0
3,67,0,61
3,71,95,120
3,71,0,61
3,69,95,0
3,69,0,61
3,67,95,0
3,67,0,122
3,66,95,0
3,66,0,120
3,67,95,0
3,67,0,488
3,62,95,245
3,62,0,61
3,64,95,0
3,64,0,61
3,67,95,0
3,67,0,61
3,69,95,0
3,69,0,61
3,71,95,0
3,71,0,488
3,71,95,244
3,71,0,61
3,69,95,0
3,69,0,62
3,67,95,0
3,67,0,61
3,64,95,0
3,64,0,61
3,69,95,0
3,69,0,61
3,71,95,0
3,71,0,61
3,64,95,0
3,64,0,366
3,71,95,244
3,71,0,61
3,69,95,0
3,69,0,61
3,67,95,0
3,67,0,61
3,64,95,0
3,64,0,61
3,69,95,0
3,69,0,62
3,71,95,0
3,71,0,61
3,64,95,0
3,64,0,244
3,66,95,61
3,66,0,61
3,67,95,0
3,67,0,61
3,66,95,0
3,66,0,61
3,64,95,0
3,64,0,61
3,62,95,0
3,62,0,61
3,64,95,0
3,64,0,61
3,66,95,0
3,66,0,61
3,67,95,0
3,67,0,61
3,69,95,0
3,69,0,61
3,71,95,0
3,71,0,122
3,62,95,0
3,62,0,61
3,62,95,0
3,62,0,62
3,62,95,0
3,62,0,61
3,64,95,0
3,64,0,61
3,67,95,0
3,67,0,61
3,69,95,0
3,69,0,61
3,71,95,0
3,71,0,488
3,71,95,183
3,71,0,61
3,71,95,0
3,71,0,61
3,69,95,0
3,69,0,61
3,67,95,0
3,67,0,62
3,64,95,0
3,64,0,31
3,64,95,0
3,64,0,30
3,69,95,0
3,69,0,61
3,71,95,0
3,71,0,61
3,64,95,0
3,64,0,366
3,71,95,183
3,71,0,61
3,71,95,0
3,71,0,61
3,69,95,0
3,69,0,61
3,67,95,0
3,67,0,61
3,64,95,0
3,64,0,32
3,64,95,0
3,64,0,29
3,69,95,0
3,69,0,61
3,71,95,0
3,71,0,62
3,64,95,0
3,64,0,244
3,66,95,61
3,66,0,61
3,67,95,0
3,67,0,61
3,66,95,0
3,66,0,61
3,64,95,0
3,64,0,61
3,62,95,0
3,62,0,61
3,64,95,0
3,64,0,61
3,66,95,0
3,66,0,61
3,67,95,0
3,67,0,61
3,69,95,0
3,69,0,61
3,67,95,0
3,67,0,489
3,67,95,244
3,67,0,61
3,69,95,0
3,69,0,61
3,71,95,0
3,71,0,61
3,67,95,0
3,67,0,61
3,69,95,0
3,69,0,486
3,69,95,243
3,69,0,61
3,71,95,0
3,71,0,61
3,72,95,0
3,72,0,61
3,74,95,0
3,74,0,61
3,71,95,0
3,71,0,183
3,71,95,0
3,71,0,61
3,71,95,0
3,71,0,244
3,71,95,122
3,71,0,61
3,72,95,0
3,72,0,61
3,71,95,0
3,71,0,61
3,69,95,0
3,69,0,61
3,67,95,0
3,67,0,62
3,64,95,0
3,64,0,61
3,71,95,0
3,71,0,61
3,69,95,0
3,69,0,61
3,69,95,0
3,69,0,364
3,69,95,120
3,69,0,61
3,69,95,0
3,69,0,61
3,69,95,0
3,69,0,61
3,71,95,0
3,71,0,61
3,72,95,0
3,72,0,61
3,69,95,0
3,69,0,61
3,71,95,0
3,71,0,61
3,71,95,0
3,71,0,61
3,71,95,0
3,71,0,61
3,72,95,0
3,72,0,61
3,71,95,0
3,71,0,61
3,69,95,0
3,69,0,62
3,67,95,0
3,67,0,61
3,64,95,0
3,64,0,61
3,67,95,0
3,67,0,61
3,64,95,0
3,64,0,122
3,71,95,0
3,71,0,303
3,64,95,181
3,64,0,61
3,66,95,0
3,66,0,61
3,67,95,0
3,67,0,61
3,69,95,0
3,69,0,61
3,71,95,0
3,71,0,61
3,74,95,0
3,74,0,733
3,79,95,0
3,79,0,244
4,62,95,242
4,62,0,61
4,64,95,0
4,64,0,61
4,67,95,0
4,67,0,61
4,69,95,0
4,69,0,61
4,67,95,0
4,67,0,488
4,62,95,244
4,62,0,62
4,69,95,0
4,69,0,61
4,67,95,0
4,67,0,61
4,64,95,0
4,64,0,61
4,64,95,0
4,64,0,61
4,64,95,671
4,64,0,61
4,64,95,184
4,64,0,61
4,64,95,427
4,64,0,61
4,62,95,0
4,62,0,61
4,64,95,0
4,64,0,61
4,62,95,0
4,62,0,61
4,60,95,0
4,60,0,61
4,62,95,0
4,62,0,61
4,64,95,0
4,64,0,61
4,66,95,0
4,66,0,61
4,67,95,0
4,67,0,122
4,67,95,367
4,67,0,488
4,62,95,244
4,62,0,61
4,64,95,184
4,64,0,61
4,60,95,305
4,60,0,122
4,64,95,244
4,64,0,61
4,64,95,181
4,64,0,61
4,66,95,2379
4,66,0,487
4,59,95,61
4,59,0,61
4,62,95,0
4,62,0,122
4,59,95,61
4,59,0,61
4,62,95,0
4,62,0,61
4,59,95,0
4,59,0,61
4,64,95,0
4,64,0,489
4,64,95,0
4,64,0,364
4,64,95,0
4,64,0,122
4,66,95,0
4,66,0,244
4,66,95,0
4,66,0,244
4,67,95,0
4,67,0,489
4,67,95,0
4,67,0,120
4,61,95,61
4,61,0,183
4,61,95,0
4,61,0,122
4,60,95,0
4,60,0,242
4,62,95,0
4,62,0,244
4,59,95,61
4,59,0,61
4,62,95,0
4,62,0,61
4,59,95,0
4,59,0,62
4,59,95,61
4,59,0,61
4,62,95,0
4,62,0,61
4,59,95,0
4,59,0,61
4,59,95,61
4,59,0,61
4,62,95,0
4,62,0,61
4,59,95,0
4,59,0,61
4,67,95,244
4,67,0,489
4,62,95,244
4,62,0,61
4,69,95,0
4,69,0,61
4,67,95,0
4,67,0,61
4,64,95,0
4,64,0,61
4,64,95,0
4,64,0,61
4,64,95,672
4,64,0,61
4,64,95,183
4,64,0,61
4,64,95,427
4,64,0,61
4,62,95,0
4,62,0,61
4,64,95,0
4,64,0,61
4,62,95,0
4,62,0,61
4,60,95,0
4,60,0,62
4,62,95,0
4,62,0,61
4,64,95,0
4,64,0,61
4,66,95,0
4,66,0,61
4,67,95,0
4,67,0,122
4,67,95,366
4,67,0,489
4,62,95,244
4,62,0,61
4,64,95,183
4,64,0,61
4,60,95,305
4,60,0,122
4,64,95,245
4,64,0,61
4,64,95,183
4,64,0,61
4,66,95,2377
4,66,0,488
4,59,95,61
4,59,0,61
4,62,95,0
4,62,0,122
4,59,95,61
4,59,0,61
4,62,95,0
4,62,0,61
4,59,95,0
4,59,0,62
4,64,95,0
4,64,0,486
4,64,95,0
4,64,0,364
4,64,95,0
4,64,0,122
4,66,95,0
4,66,0,244
4,66,95,0
4,66,0,245
4,67,95,0
4,67,0,488
4,67,95,0
4,67,0,122
4,61,95,61
4,61,0,181
4,61,95,0
4,61,0,122
4,60,95,0
4,60,0,242
4,62,95,0
4,62,0,245
4,64,95,608
4,64,0,242
4,64,95,0
4,64,0,120
4,60,95,0
4,60,0,244
4,66,95,0
4,66,0,245
4,62,95,61
4,62,0,61
4,71,95,0
4,71,0,61
4,62,95,0
4,62,0,61
4,62,95,61
4,62,0,61
4,71,95,0
4,71,0,61
4,62,95,0
4,62,0,61
4,64,95,61
4,64,0,61
4,67,95,0
4,67,0,61
4,64,95,0
4,64,0,61
4,69,95,0
4,69,0,61
4,64,95,0
4,64,0,61
4,71,95,0
4,71,0,61
4,64,95,0
4,64,0,61
4,67,95,0
4,67,0,487
4,67,95,0
4,67,0,488
4,67,95,0
4,67,0,244
4,63,95,0
4,63,0,245
