track,note,velocity,time
1,66,102,3342
1,66,0,103
1,64,103,39
1,64,0,141
1,68,100,99
1,68,0,102
1,64,95,43
1,64,0,128
1,64,96,110
1,64,0,105
1,62,103,39
1,62,0,87
1,57,92,12
1,57,0,11
1,57,92,14
1,57,0,13
1,57,89,9
1,57,0,26
1,56,94,0
1,56,0,36
1,57,92,9
1,57,0,68
1,66,102,339
1,66,0,105
1,64,100,39
1,64,0,131
1,68,97,109
1,68,0,105
1,64,95,39
1,64,0,120
1,64,95,121
1,64,0,100
1,62,100,44
1,62,0,84
1,57,92,13
1,57,0,12
1,57,95,13
1,57,0,14
1,57,89,10
1,57,0,21
1,56,94,4
1,56,0,34
1,57,91,15
1,57,0,55
1,68,107,733
1,68,0,38
1,69,104,12
1,69,0,28
1,69,104,18
1,69,0,32
1,66,89,15
1,66,0,12
1,69,104,13
1,69,0,34
1,66,99,15
1,66,0,53
1,64,97,67
1,64,0,35
1,66,100,13
1,66,0,35
1,64,99,12
1,64,0,38
1,61,95,10
1,61,0,23
1,59,92,1
1,59,0,21
1,57,92,2
1,57,0,22
1,61,91,4
1,61,0,42
1,66,81,171
1,66,0,71
1,64,86,27
1,64,0,73
1,61,83,21
1,61,0,60
1,59,76,14
1,59,0,17
1,61,83,6
1,59,83,23
1,61,0,8
1,59,0,21
1,61,87,20
1,61,0,64
1,68,110,345
1,68,0,39
1,69,103,11
1,69,0,31
1,68,100,15
1,68,0,17
1,69,103,7
1,69,0,44
1,68,104,27
1,68,0,24
1,66,100,1
1,66,0,35
1,66,104,15
1,66,0,34
1,64,101,13
1,64,0,48
1,66,105,23
1,66,0,37
1,64,101,12
1,64,0,22
1,61,99,24
1,59,92,26
1,61,0,2
1,57,92,20
1,59,0,2
1,57,0,22
1,61,104,0
1,61,0,74
1,66,83,144
1,66,0,67
1,64,86,28
1,64,0,69
1,61,86,26
1,61,0,57
1,59,80,16
1,59,0,21
1,61,88,3
1,59,83,25
1,61,0,8
1,59,0,32
1,61,87,9
1,61,0,60
1,61,92,298
1,62,94,48
1,61,0,6
1,62,0,32
1,62,92,10
1,62,0,66
1,61,92,30
1,61,0,77
1,61,90,68
1,64,96,25
1,61,0,8
1,64,0,42
1,64,94,20
1,64,0,36
1,64,92,12
1,64,0,12
1,64,92,12
1,64,0,47
1,61,88,3
1,66,93,23
1,61,0,2
1,66,0,50
1,64,94,45
1,64,0,45
1,61,87,1
1,59,94,24
1,61,0,7
1,57,92,17
1,59,0,5
1,57,0,32
1,61,92,11
1,57,86,48
1,61,0,2
1,59,97,46
1,57,0,3
1,59,0,47
1,52,92,70
1,52,0,20
1,54,104,4
1,54,0,15
1,54,88,9
1,54,0,10
1,54,96,14
1,54,0,21
1,52,94,3
1,52,0,44
1,54,100,6
1,54,0,59
1,61,90,299
1,62,98,48
1,61,0,4
1,62,0,30
1,62,96,14
1,62,0,64
1,61,93,32
1,61,0,86
1,61,90,58
1,64,97,24
1,61,0,8
1,64,0,47
1,64,98,19
1,64,0,31
1,64,91,15
1,64,0,12
1,64,94,12
1,64,0,38
1,61,87,10
1,66,98,24
1,61,0,1
1,66,0,70
1,64,99,25
1,64,0,46
1,61,87,2
1,59,91,25
1,61,0,9
1,57,94,14
1,59,0,6
1,57,0,37
1,61,94,5
1,57,90,48
1,61,0,1
1,57,0,46
1,59,101,1
1,59,0,42
1,52,88,76
1,52,0,15
1,54,98,11
1,54,0,15
1,54,92,10
1,54,0,13
1,54,89,10
1,54,0,22
1,52,95,2
1,52,0,40
1,54,100,8
1,54,0,62
1,68,105,731
1,68,0,37
1,69,95,10
1,69,0,33
1,69,97,15
1,69,0,38
1,66,94,11
1,66,0,30
1,68,101,18
1,68,0,32
1,64,77,15
1,64,0,20
1,66,96,4
1,66,0,38
1,64,101,10
1,66,89,72
1,64,0,1
1,64,97,46
1,66,0,8
1,64,0,39
1,61,92,2
1,59,88,24
1,61,0,3
1,57,86,23
1,59,0,7
1,61,90,14
1,57,0,1
1,61,0,93
1,66,77,123
1,66,0,79
1,64,81,17
1,64,0,70
1,61,74,27
1,61,0,46
1,59,76,24
1,59,0,19
1,61,74,4
1,59,76,25
1,61,0,5
1,59,0,35
1,61,76,9
1,61,0,71
1,69,97,338
1,69,0,14
1,69,95,11
1,69,0,11
1,69,97,11
1,69,0,37
1,69,97,13
1,69,0,34
1,69,95,14
1,69,0,15
1,66,102,8
1,66,0,23
1,69,95,1
1,71,92,26
1,69,0,6
1,71,0,25
1,69,92,13
1,69,0,49
1,64,94,22
1,64,0,42
1,66,91,7
1,66,0,38
1,64,93,11
1,64,0,33
1,61,88,17
1,59,86,22
1,61,0,3
1,57,90,20
1,59,0,7
1,57,0,30
1,57,83,12
1,57,0,65
1,66,80,127
1,66,0,75
1,64,84,22
1,64,0,69
1,61,77,25
1,61,0,54
1,59,67,20
1,59,0,12
1,61,74,10
1,59,77,24
1,61,0,1
1,59,0,36
1,61,78,12
1,61,0,59
1,61,99,301
1,62,95,47
1,61,0,6
1,62,0,31
1,62,95,11
1,62,0,63
1,61,92,32
1,61,0,109
1,61,93,37
1,64,98,25
1,61,0,9
1,64,0,46
1,64,95,18
1,64,0,40
1,64,86,8
1,64,0,11
1,64,96,11
1,61,80,49
1,64,0,1
1,61,0,19
1,66,96,3
1,66,0,60
1,69,99,34
1,69,0,43
1,71,97,7
1,69,94,48
1,71,0,2
1,69,0,36
1,71,96,11
1,71,0,42
1,69,98,5
1,66,94,47
1,69,0,2
1,66,0,73
1,52,84,44
1,52,0,14
1,54,95,11
1,54,0,14
1,54,89,10
1,54,0,14
1,54,91,10
1,54,0,21
1,52,94,4
1,52,0,25
1,54,94,22
1,54,0,78
1,61,88,283
1,62,97,48
1,61,0,10
1,62,0,31
1,62,99,8
1,62,0,62
1,61,91,33
1,61,0,101
1,61,89,42
1,64,95,24
1,61,0,7
1,64,0,48
1,64,92,20
1,64,0,35
1,64,92,13
1,64,0,7
1,64,95,17
1,64,0,36
1,61,76,9
1,61,0,17
1,66,93,7
1,66,0,62
1,66,94,34
1,66,0,47
1,69,94,2
1,66,85,48
1,69,0,1
1,66,0,24
1,69,97,23
1,66,87,48
1,69,0,7
1,66,0,40
1,71,99,0
1,71,0,57
1,69,96,62
1,69,0,14
1,69,96,12
1,69,0,14
1,69,90,11
1,69,0,11
1,69,92,11
1,66,91,24
1,69,0,3
1,66,0,33
1,66,94,13
1,66,0,53
1,69,97,3812
1,69,0,31
1,69,87,16
1,69,0,35
1,69,89,15
1,69,0,15
1,69,91,9
1,69,0,30
1,69,94,15
1,69,0,47
1,66,96,2
1,66,0,37
1,66,91,11
1,66,0,48
1,64,92,48
1,66,91,22
1,64,0,4
1,66,0,44
1,64,89,0
1,64,0,42
1,61,82,7
1,57,74,25
1,61,0,1
1,57,0,34
1,61,87,11
1,61,0,85
1,66,76,133
1,66,0,74
1,64,80,22
1,64,0,69
1,61,75,27
1,61,0,56
1,59,73,16
1,59,0,20
1,61,71,3
1,59,75,24
1,61,0,3
1,59,0,37
1,61,77,11
1,61,0,64
1,61,91,292
1,61,0,47
1,62,99,1
1,62,0,45
1,62,94,5
1,62,0,59
1,61,91,36
1,61,0,105
1,61,95,39
1,64,99,24
1,61,0,5
1,64,0,47
1,64,96,23
1,64,0,38
1,64,84,9
1,64,0,12
1,64,95,11
1,64,0,46
1,61,81,0
1,61,0,22
1,66,96,3
1,66,0,68
1,66,96,27
1,66,0,45
1,69,98,4
1,66,90,49
1,69,0,2
1,66,0,30
1,71,97,16
1,71,0,47
1,69,97,1
1,66,101,49
1,69,0,6
1,66,0,58
1,64,85,53
1,64,0,11
1,66,92,14
1,66,0,11
1,66,95,13
1,66,0,12
1,66,93,11
1,66,0,25
1,64,92,1
1,64,0,38
1,66,99,10
1,66,0,97
1,61,92,263
1,62,98,47
1,61,0,4
1,62,0,36
1,62,89,8
1,62,0,67
1,61,92,29
1,61,0,96
1,66,92,48
1,66,0,15
1,66,98,8
1,66,0,45
1,66,94,27
1,66,0,41
1,66,85,8
1,66,0,15
1,69,96,10
1,69,0,46
1,66,80,1
1,66,0,19
1,71,99,6
1,71,0,95
1,69,94,1
1,69,0,37
1,73,101,11
1,73,0,40
1,71,98,8
1,71,0,38
1,71,92,9
1,69,91,48
1,71,0,3
1,69,0,38
1,71,99,8
1,71,0,59
1,66,84,59
1,66,0,25
1,66,89,1
1,64,92,24
1,66,0,9
1,61,88,14
1,64,0,6
1,59,90,18
1,61,0,2
1,59,0,29
1,61,87,18
1,61,0,61
1,66,94,203
1,66,0,13
1,66,87,13
1,66,0,9
1,66,94,13
1,66,0,21
1,64,92,5
1,64,0,28
1,66,93,17
1,66,0,60
1,73,101,205
1,71,94,24
1,73,0,6
1,71,0,9
1,71,89,11
1,71,0,11
1,69,94,11
1,69,0,33
1,69,94,17
1,69,0,44
1,69,92,216
1,69,0,12
1,69,90,13
1,69,0,12
1,69,87,11
1,68,87,26
1,69,0,7
1,68,0,25
1,69,92,16
1,69,0,35
1,73,96,86
1,73,0,65
1,69,92,7
1,69,0,43
1,69,91,27
1,69,0,15
1,69,91,10
1,69,0,14
1,69,86,10
1,68,88,24
1,69,0,5
1,68,0,35
1,69,93,10
1,69,0,37
1,66,86,752
1,66,0,76
1,64,91,20
1,64,0,73
1,61,85,24
1,61,0,59
1,59,80,15
1,59,0,20
1,61,85,1
1,59,86,25
1,61,0,14
1,59,0,14
1,61,86,21
1,61,0,56
1,66,88,351
1,66,0,70
1,64,92,27
1,64,0,70
1,61,87,25
1,61,0,55
1,59,75,19
1,59,0,21
1,61,83,1
1,59,87,25
1,61,0,10
1,59,0,21
1,61,85,15
1,61,0,48
1,73,94,71
1,73,0,77
1,71,94,69
1,71,0,60
1,69,95,16
1,69,0,58
1,73,95,10
1,73,0,70
1,71,89,26
1,71,0,62
1,69,93,33
1,69,0,62
1,68,85,13
1,68,0,17
1,69,87,4
1,68,94,27
1,69,0,11
1,68,0,23
1,69,92,12
1,69,0,63
1,69,89,103
1,71,88,50
1,69,0,6
1,69,86,67
1,71,0,3
1,69,0,127
1,78,104,251
1,78,0,188
1,76,87,7
1,76,0,46
1,73,94,4
1,73,0,37
1,71,87,8
1,71,0,37
1,71,87,10
1,71,0,38
1,69,87,11
1,69,0,44
1,66,84,1
1,66,0,47
1,73,91,28
1,73,0,80
1,71,90,16
1,71,0,74
1,69,90,21
1,69,0,57
1,69,90,16
1,69,0,12
1,69,88,11
1,68,82,25
1,69,0,8
1,69,89,40
1,68,0,1
1,69,0,53
1,73,94,353
1,73,0,79
1,71,90,17
1,71,0,81
1,69,91,15
1,69,0,63
1,69,88,13
1,69,0,12
1,69,86,11
1,68,85,25
1,69,0,7
1,68,0,33
1,69,92,5
1,69,0,57
1,73,91,350
1,73,0,76
1,71,92,21
1,71,0,72
1,69,92,24
1,69,0,55
1,69,84,19
1,69,0,9
1,69,88,14
1,68,82,26
1,69,0,6
1,68,0,37
1,69,97,3
1,69,0,56
1,73,88,351
1,73,0,76
1,71,87,21
1,71,0,64
1,69,87,29
1,69,0,60
1,69,86,15
1,69,0,12
1,69,88,13
1,68,81,24
1,69,0,1
1,68,0,43
1,69,88,2
1,69,0,61
1,73,87,348
1,73,0,72
1,71,91,23
1,71,0,59
1,69,92,37
1,69,0,56
1,69,88,18
1,69,0,13
1,69,86,10
1,68,82,23
1,69,0,3
1,68,0,35
1,69,88,10
1,69,0,64
1,69,94,200
1,69,0,12
1,69,89,13
1,69,0,11
1,69,92,13
1,68,87,23
1,69,0,4
1,69,89,43
1,68,0,3
1,69,0,41
1,69,91,222
1,69,0,12
1,69,92,13
1,69,0,12
1,69,91,12
1,68,83,24
1,69,0,8
1,69,88,40
1,68,0,6
1,69,0,34
1,69,88,222
1,69,0,10
1,69,89,16
1,69,0,11
1,69,90,13
1,68,83,22
1,69,0,6
1,69,88,42
1,68,0,6
1,69,0,34
1,69,90,223
1,69,0,12
1,69,92,14
1,69,0,12
1,69,88,11
1,68,87,26
1,69,0,12
1,69,92,36
1,68,0,1
1,69,0,44
2,78,102,3342
2,78,0,103
2,76,103,39
2,76,0,141
2,80,100,99
2,80,0,102
2,76,95,43
2,76,0,128
2,76,96,110
2,76,0,105
2,74,103,39
2,74,0,87
2,69,92,12
2,69,0,11
2,69,92,14
2,69,0,13
2,69,89,9
2,69,0,26
2,68,94,0
2,68,0,36
2,69,92,9
2,69,0,68
2,78,102,339
2,78,0,105
2,76,100,39
2,76,0,131
2,80,97,109
2,80,0,105
2,76,95,39
2,76,0,120
2,76,95,121
2,76,0,100
2,74,100,44
2,74,0,84
2,69,92,13
2,69,0,12
2,69,95,13
2,69,0,14
2,69,89,10
2,69,0,21
2,68,94,4
2,68,0,34
2,69,91,15
2,69,0,55
2,80,107,733
2,80,0,38
2,81,104,12
2,81,0,28
2,81,104,18
2,81,0,32
2,78,89,15
2,78,0,12
2,81,104,13
2,81,0,34
2,78,99,15
2,76,90,51
2,78,0,2
2,76,0,51
2,76,97,16
2,76,0,35
2,78,100,13
2,78,0,35
2,76,99,12
2,76,0,38
2,73,95,10
2,73,0,23
2,69,92,24
2,71,89,21
2,69,0,1
2,73,91,4
2,71,0,2
2,73,0,40
2,78,81,171
2,78,0,71
2,76,86,27
2,76,0,73
2,73,83,21
2,73,0,60
2,71,76,14
2,71,0,17
2,73,83,6
2,71,83,23
2,73,0,8
2,71,0,21
2,73,87,20
2,73,0,64
2,80,110,345
2,80,0,39
2,81,103,11
2,81,0,31
2,80,100,15
2,80,0,17
2,81,103,7
2,81,0,44
2,80,104,27
2,80,0,24
2,78,100,1
2,78,0,35
2,78,104,15
2,78,0,34
2,76,101,37
2,78,105,47
2,76,0,1
2,78,0,36
2,76,101,12
2,76,0,22
2,73,99,24
2,71,92,26
2,73,0,2
2,69,92,20
2,71,0,2
2,69,0,22
2,73,104,0
2,73,0,74
2,78,83,144
2,78,0,67
2,76,86,28
2,76,0,69
2,73,86,26
2,73,0,57
2,71,80,16
2,71,0,21
2,73,88,3
2,71,83,25
2,73,0,8
2,71,0,32
2,73,87,9
2,73,0,60
2,73,92,298
2,74,94,48
2,73,0,6
2,74,0,32
2,74,92,10
2,74,0,66
2,73,92,30
2,73,0,77
2,73,90,68
2,76,96,25
2,73,0,8
2,76,0,42
2,76,94,20
2,76,0,36
2,76,92,12
2,76,0,12
2,76,92,12
2,76,0,47
2,73,95,2
2,78,100,24
2,73,0,1
2,78,0,58
2,76,94,38
2,76,0,45
2,73,87,1
2,71,94,24
2,73,0,7
2,69,92,17
2,71,0,5
2,69,0,32
2,73,92,11
2,69,86,48
2,73,0,2
2,71,97,46
2,69,0,3
2,71,0,47
2,64,92,70
2,64,0,20
2,66,104,4
2,66,0,15
2,66,88,9
2,66,0,10
2,66,96,14
2,66,0,21
2,64,94,3
2,64,0,44
2,66,100,6
2,66,0,59
2,73,90,299
2,74,98,48
2,73,0,4
2,74,0,30
2,74,96,14
2,74,0,64
2,73,93,32
2,73,0,86
2,73,90,58
2,76,97,24
2,73,0,8
2,76,0,47
2,76,98,19
2,76,0,31
2,76,91,15
2,76,0,12
2,76,94,12
2,76,0,38
2,73,87,10
2,78,98,24
2,73,0,1
2,78,0,70
2,76,99,25
2,76,0,46
2,73,87,2
2,71,91,25
2,73,0,9
2,69,94,14
2,71,0,6
2,69,0,37
2,73,94,5
2,69,90,48
2,73,0,1
2,69,0,46
2,71,101,1
2,71,0,42
2,64,88,76
2,64,0,15
2,66,98,11
2,66,0,15
2,66,92,10
2,66,0,13
2,66,89,10
2,66,0,22
2,64,95,2
2,64,0,40
2,66,100,8
2,66,0,62
2,80,105,731
2,80,0,37
2,81,95,10
2,81,0,33
2,81,97,15
2,81,0,38
2,78,94,11
2,78,0,30
2,80,101,18
2,80,0,32
2,76,77,15
2,76,0,20
2,78,96,4
2,78,0,38
2,76,101,10
2,78,89,72
2,76,0,1
2,76,97,46
2,78,0,8
2,76,0,39
