track,note,velocity,time
0,48,118,0
0,55,101,0
0,55,108,0
0,48,119,0
0,48,70,5
0,48,119,41
0,48,104,1
0,57,109,1
0,57,108,1
0,48,81,10
0,48,104,42
0,48,115,0
0,55,99,1
0,55,82,8
0,48,99,1
0,48,104,1
0,55,74,1
0,55,94,1
0,48,94,2
0,55,94,1
0,43,84,0
0,48,104,0
0,40,13,0
0,46,105,30
0,53,96,2
0,46,107,1
0,53,71,1
0,46,111,1
0,53,102,0
0,53,100,4
0,46,106,0
0,46,54,4
0,46,115,42
0,46,119,0
0,55,111,1
0,55,109,1
0,60,23,4
0,40,13,5
0,46,74,6
0,46,114,17
0,46,100,2
0,53,107,0
0,53,56,1
0,46,99,0
0,53,78,1
0,53,111,0
0,46,111,0
0,53,95,3
0,46,97,1
0,53,97,0
0,41,104,4
0,53,111,32
0,53,108,1
0,60,109,2
0,60,67,3
0,53,110,1
0,53,109,0
0,60,110,2
0,60,108,1
0,53,57,13
0,65,13,41
0,53,110,0
0,62,106,1
0,53,111,1
0,62,109,2
0,53,66,11
0,53,106,41
0,60,102,1
0,53,114,1
0,60,112,1
0,53,81,1
0,53,110,0
0,60,110,1
0,53,95,1
0,62,95,1
0,53,86,0
0,48,84,2
0,60,86,0
0,48,112,25
0,48,101,0
0,55,102,2
0,55,107,0
0,48,103,1
0,48,113,0
0,55,104,0
0,40,112,1
0,55,105,0
0,96,38,10
0,48,75,0
0,91,41,0
0,90,30,0
0,48,114,31
0,48,117,1
0,57,105,1
0,57,111,0
0,96,56,1
0,91,65,0
0,40,112,1
0,84,58,0
0,90,44,0
0,91,80,14
0,48,60,0
0,84,87,1
0,96,79,0
0,90,62,0
0,48,105,31
0,48,109,0
0,55,104,1
0,55,101,0
0,40,112,2
0,91,89,0
0,96,87,0
0,90,89,0
0,84,99,0
0,48,88,1
0,48,113,0
0,55,113,1
0,55,73,1
0,91,93,1
0,96,93,0
0,84,110,0
0,90,95,0
0,40,112,9
0,91,105,1
0,96,95,0
0,84,107,0
0,90,95,0
0,48,89,0
0,40,112,1
0,43,83,0
0,55,89,0
0,48,114,28
0,91,72,3
0,89,77,0
0,48,114,0
0,55,99,0
0,55,98,0
0,48,100,0
0,35,112,1
0,96,61,0
0,55,95,2
0,48,105,1
0,55,111,0
0,48,105,0
0,55,80,0
0,49,69,1
0,35,112,0
0,36,89,0
0,36,100,0
0,87,112,0
0,96,99,0
0,55,107,0
0,62,22,0
0,62,27,23
0,88,61,10
0,36,97,1
0,36,102,0
0,48,61,0
0,62,25,0
0,62,44,2
0,48,116,18
0,57,108,0
0,57,90,1
0,48,98,0
0,88,75,1
0,91,68,0
0,84,66,0
0,48,117,0
0,57,107,0
0,46,95,1
0,40,112,0
0,37,84,0
0,33,76,0
0,33,97,0
0,62,55,0
0,62,43,10
0,33,91,13
0,33,100,0
0,48,50,0
0,62,24,0
0,62,43,21
0,48,113,3
0,48,115,1
0,48,95,0
0,55,106,1
0,55,90,0
0,55,108,1
0,46,78,1
0,35,105,0
0,37,48,0
0,31,83,0
0,31,98,0
0,91,99,0
0,84,105,0
0,62,57,0
0,62,29,23
0,48,116,1
0,48,87,0
0,55,95,0
0,37,74,1
0,35,112,0
0,31,95,0
0,31,101,0
0,55,80,0
0,55,116,0
0,62,27,0
0,91,85,0
0,84,70,0
0,62,55,4
0,48,116,0
0,55,105,1
0,48,109,0
0,46,74,1
0,40,112,0
0,33,105,0
0,33,104,0
0,62,62,0
0,37,92,0
0,43,83,0
0,55,100,0
0,62,30,9
0,46,114,20
0,46,115,1
0,48,88,0
0,55,95,0
0,89,102,1
0,53,104,0
0,35,112,1
0,31,91,0
0,31,100,0
0,53,109,0
0,62,23,0
0,94,98,0
0,92,70,0
0,62,35,19
0,46,75,1
0,46,109,1
0,53,98,0
0,53,108,0
0,46,82,1
0,35,112,0
0,34,108,0
0,34,105,0
0,46,113,0
0,62,51,0
0,53,98,1
0,62,43,21
0,92,49,11
0,89,46,0
0,34,101,1
0,34,103,0
0,46,67,0
0,62,27,0
0,62,25,16
0,46,114,1
0,55,105,0
0,46,112,0
0,55,95,0
0,46,97,1
0,46,92,1
0,40,112,0
0,37,89,0
0,31,66,0
0,31,94,0
0,92,112,0
0,89,112,0
0,94,108,0
0,86,110,0
0,55,100,0
0,62,57,0
0,62,44,7
0,31,85,12
0,31,99,0
0,46,51,0
0,62,39,0
0,62,38,21
0,46,105,0
0,46,105,0
0,53,105,1
0,92,104,1
0,89,105,0
0,86,97,0
0,53,98,0
0,53,94,0
0,46,64,1
0,35,112,0
0,29,80,0
0,29,98,0
0,62,64,0
0,46,81,0
0,62,45,23
0,46,106,1
0,53,106,1
0,92,69,1
0,89,59,0
0,86,47,0
0,53,110,0
0,35,112,1
0,29,93,0
0,29,101,0
0,62,40,0
0,37,74,0
0,53,84,0
0,46,97,1
0,62,41,3
0,46,90,1
0,53,90,1
0,46,86,1
0,40,112,0
0,31,97,0
0,31,102,0
0,53,100,0
0,62,64,0
0,37,95,0
0,46,100,0
0,62,45,9
0,53,107,1
0,53,110,1
0,46,95,0
0,84,112,1
0,89,102,0
0,53,104,0
0,35,112,1
0,29,76,0
0,29,97,0
0,60,109,0
0,62,38,0
0,60,104,0
0,62,37,23
0,53,65,0
0,60,98,0
0,53,104,1
0,53,109,0
0,46,92,1
0,35,112,0
0,29,95,0
0,29,101,0
0,60,104,0
0,62,60,0
0,60,109,0
0,62,40,23
0,29,85,12
0,29,99,0
0,53,65,0
0,62,37,0
0,84,51,1
0,62,47,15
0,53,112,21
0,53,94,0
0,62,114,0
0,37,95,1
0,62,108,0
0,62,107,0
0,46,98,0
0,40,112,0
0,33,97,0
0,33,102,0
0,62,54,0
0,84,110,0
0,89,105,0
0,77,110,0
0,65,72,0
0,53,109,1
0,62,50,3
0,33,80,9
0,33,98,0
0,53,77,0
0,62,40,0
0,62,55,21
0,53,108,2
0,53,88,0
0,60,98,0
0,53,98,1
0,60,109,0
0,37,43,1
0,84,89,0
0,89,83,0
0,46,80,0
0,35,102,0
0,36,93,0
0,36,101,0
0,77,66,0
0,62,58,0
0,60,93,1
0,62,50,10
0,53,88,2
0,53,115,0
0,37,74,1
0,60,91,0
0,60,115,0
0,53,70,0
0,60,92,0
0,35,112,0
0,36,91,0
0,36,100,0
0,77,65,0
0,62,41,0
0,62,46,4
0,53,106,0
0,46,95,1
0,40,112,0
0,38,95,0
0,38,101,0
0,60,112,0
0,60,100,0
0,53,100,0
0,62,57,0
0,37,98,0
0,62,54,6
0,53,95,0
0,60,102,0
0,48,113,1
0,48,114,0
0,87,112,2
0,79,102,0
0,55,100,0
0,35,105,1
0,33,93,0
0,33,101,0
0,55,103,0
0,62,44,0
0,62,48,23
0,48,80,3
0,55,88,0
0,48,107,1
0,88,50,1
0,55,103,0
0,46,82,1
0,35,112,0
0,36,91,0
0,36,100,0
0,48,109,0
0,62,48,0
0,55,102,1
0,62,48,14
0,36,105,2
0,36,104,0
0,48,68,0
0,62,39,0
0,84,75,1
0,79,53,0
0,62,58,5
0,48,115,19
0,48,114,0
0,57,98,1
0,57,108,1
0,57,105,0
0,48,95,0
0,46,101,2
0,40,112,0
0,37,98,0
0,33,68,0
0,33,95,0
0,62,60,0
0,62,51,23
0,33,91,8
0,33,100,0
0,87,112,0
0,79,107,0
0,48,75,0
0,62,40,0
0,62,51,21
0,48,106,0
0,48,108,0
0,55,101,0
0,55,92,1
0,48,88,0
0,88,62,1
0,46,84,1
0,35,99,0
0,37,45,0
0,31,85,0
0,31,99,0
0,62,44,0
0,55,97,5
0,62,46,10
0,48,100,1
0,48,110,0
0,55,111,1
0,55,75,1
0,55,88,0
0,35,112,1
0,31,89,0
0,31,100,0
0,62,38,0
0,37,64,0
0,84,75,0
0,79,53,0
0,48,102,0
0,62,43,5
0,48,99,0
0,55,99,1
0,48,110,0
0,79,51,1
0,84,82,0
0,46,98,1
0,40,112,0
0,33,102,0
0,33,103,0
0,55,104,0
0,62,50,0
0,37,108,0
0,62,51,1
0,60,115,19
0,55,95,1
0,48,92,0
0,48,109,1
0,35,112,2
0,31,91,0
0,31,100,0
0,55,95,0
0,62,45,0
0,90,67,0
0,91,80,0
0,96,77,0
0,84,63,1
0,62,60,8
0,48,118,18
0,55,86,1
0,48,114,0
0,57,69,1
0,35,110,0
0,36,99,0
0,36,102,0
0,55,104,0
0,62,64,0
0,62,57,20
0,91,58,7
0,36,93,1
0,36,101,0
0,96,50,0
0,47,108,0
0,48,66,0
0,62,40,0
0,90,35,1
0,46,96,0
0,45,76,0
0,62,62,1
0,48,116,21
0,57,97,0
0,48,95,0
0,67,113,1
0,46,86,1
0,40,112,0
0,33,70,0
0,33,95,0
0,91,107,0
0,96,107,0
0,84,112,0
0,90,92,0
0,70,106,0
0,57,106,0
0,62,51,0
0,37,98,0
0,76,109,0
0,76,114,1
0,62,48,0
0,70,113,1
0,67,113,1
0,67,115,1
0,33,89,1
0,33,100,0
0,48,75,0
0,62,40,0
0,70,114,0
0,76,118,1
0,76,107,0
0,62,58,0
0,70,111,1
0,67,105,1
0,67,117,1
0,48,104,1
0,55,77,0
0,48,80,0
0,37,51,1
0,55,101,0
0,46,64,0
0,35,110,0
0,31,77,0
0,31,97,0
0,91,60,0
0,96,44,0
0,62,46,0
0,84,51,0
0,76,118,1
0,70,119,2
0,62,41,20
0,48,113,0
0,55,90,0
0,37,62,1
0,96,80,0
0,91,87,0
0,60,119,0
0,55,113,0
0,35,112,0
0,31,89,0
0,31,100,0
0,84,76,0
0,62,40,0
0,90,67,0
0,62,57,18
0,46,82,1
0,40,112,0
0,37,104,0
0,33,99,0
0,33,102,0
0,48,104,0
0,55,104,0
0,62,62,0
0,62,51,11
0,63,118,19
0,55,98,0
0,94,89,1
0,89,80,0
0,86,89,0
0,92,82,0
0,46,109,0
0,53,101,0
0,48,88,0
0,35,110,1
0,31,91,0
0,31,100,0
0,62,40,0
0,62,57,0
0,46,109,0
0,46,82,0
0,53,94,0
0,46,89,1
0,35,112,0
0,34,108,0
0,34,105,0
0,53,99,0
0,62,60,0
0,62,41,9
0,92,39,1
0,89,42,0
0,58,118,0
0,34,101,1
0,34,103,0
0,46,75,0
0,62,38,0
0,62,57,4
0,46,114,3
0,37,95,1
0,92,112,0
0,89,112,0
0,86,105,0
0,55,106,0
0,46,95,0
0,40,112,0
0,31,77,0
0,31,97,0
0,56,116,0
0,55,98,0
0,46,93,0
0,62,52,0
0,62,43,0
0,31,99,2
0,31,102,0
0,46,75,0
0,62,40,0
0,58,118,1
0,62,58,17
0,46,110,1
0,92,98,1
0,89,102,0
0,86,91,0
0,53,102,0
0,46,76,1
0,35,102,0
0,29,95,0
0,29,101,0
0,46,70,0
0,62,55,0
0,37,43,0
0,53,72,2
0,62,52,2
0,92,55,2
0,46,118,0
0,35,112,1
0,37,70,0
0,29,95,0
0,29,101,0
0,89,62,0
0,62,32,0
0,86,62,0
0,53,118,0
0,53,100,0
0,46,93,1
0,62,66,3
0,46,92,2
0,40,112,0
0,31,99,0
0,46,92,0
0,53,92,0
0,62,62,0
0,37,101,0
0,31,102,0
0,62,52,1
0,47,124,3
0,53,102,1
0,84,112,1
0,89,105,0
0,35,107,1
0,29,99,0
0,29,102,0
0,53,106,0
0,46,91,0
0,62,39,0
0,60,105,1
0,48,120,1
0,62,57,6
0,60,102,13
0,77,54,1
0,53,107,0
0,46,95,1
0,35,112,0
0,29,97,0
0,29,102,0
0,62,60,0
0,60,107,0
0,41,88,0
0,62,51,8
0,29,79,2
0,29,97,0
0,53,79,0
0,62,40,0
0,84,54,1
0,62,52,15
0,53,86,19
0,62,106,1
0,53,107,1
0,62,107,1
0,46,92,1
0,40,112,0
0,37,98,0
0,33,99,0
0,33,102,0
0,84,110,0
0,77,107,0
0,89,97,0
0,62,66,0
0,60,112,1
0,63,110,4
0,69,98,4
0,62,52,2
0,69,118,1
0,63,115,1
0,33,87,1
0,33,99,0
0,53,66,0
0,62,43,0
0,63,114,1
0,69,122,1
0,62,58,0
0,69,119,1
0,63,112,1
0,53,104,7
0,53,83,0
0,60,103,0
0,60,90,0
0,46,89,1
0,35,112,0
0,37,53,0
0,36,93,0
0,36,101,0
0,60,116,0
0,62,66,0
0,89,87,0
0,84,105,0
0,77,102,0
0,63,110,0
0,69,109,2
0,62,44,19
0,53,62,0
0,89,64,1
0,84,70,0
0,53,119,0
0,60,94,0
0,35,110,1
0,36,95,0
0,36,101,0
0,77,51,0
0,62,40,0
0,37,74,0
0,53,116,0
0,60,120,0
0,62,60,3
0,46,89,1
0,40,112,0
0,38,97,0
0,38,102,0
0,53,100,0
0,62,55,0
0,37,98,0
0,62,55,10
0,53,83,20
0,48,103,0
0,60,92,0
0,55,104,1
0,35,97,1
0,33,85,0
0,33,99,0
0,87,112,0
0,79,95,0
0,62,36,0
0,65,119,1
0,62,41,9
0,48,88,1
0,63,117,1
0,55,86,0
0,88,70,1
0,48,108,0
0,46,89,1
0,35,112,0
0,36,95,0
0,36,101,0
0,62,51,0
0,55,105,0
0,62,36,0
0,60,114,1
0,79,61,3
0,84,93,0
0,36,105,1
0,36,104,0
0,48,75,0
0,62,44,0
0,62,54,8
0,58,115,2
0,57,98,0
0,48,95,0
0,37,101,1
0,48,111,0
0,57,102,0
0,46,92,0
0,40,112,0
0,33,70,0
0,33,95,0
0,62,57,0
0,78,101,0
0,84,112,0
0,80,80,0
0,62,40,2
0,33,95,5
0,33,101,0
0,48,83,0
0,62,41,0
0,79,71,1
0,60,115,1
0,62,50,1
0,55,73,1
0,48,79,1
0,48,109,1
0,79,82,1
0,72,91,0
0,84,80,0
0,46,82,1
0,35,105,0
0,37,55,0
0,31,93,0
0,31,101,0
0,62,62,0
0,55,97,0
0,62,51,3
0,55,116,6
0,48,119,0
0,55,91,0
0,48,86,0
0,84,102,1
0,78,104,0
0,72,102,0
0,55,119,0
0,35,112,1
0,37,74,0
0,31,87,0
0,31,99,0
0,62,43,0
0,79,68,0
0,62,58,13
0,58,116,1
0,55,102,0
0,46,92,1
0,40,112,0
0,33,105,0
0,33,104,0
0,48,105,0
0,62,62,0
0,37,92,0
0,79,51,1
0,62,50,1
0,55,78,0
0,48,75,0
0,35,110,1
0,31,89,0
0,31,100,0
0,48,116,0
0,62,37,0
0,79,93,0
0,84,95,0
0,72,102,0
0,60,116,0
0,55,70,2
0,62,50,3
0,48,111,4
0,55,91,1
0,48,87,0
0,49,74,1
0,35,112,0
0,36,102,0
0,36,103,0
0,62,58,0
0,48,120,0
0,55,85,1
0,62,51,6
0,48,103,2
0,36,95,2
0,36,101,0
0,62,41,0
0,79,53,1
0,55,61,3
0,62,54,12
0,70,110,21
0,48,123,0
0,57,85,0
0,48,94,1
0,46,86,1
0,40,112,0
0,37,98,0
0,33,89,0
0,33,100,0
0,62,62,0
0,78,101,0
0,84,112,0
0,80,64,0
0,72,58,0
0,76,113,0
0,57,107,2
0,76,117,1
0,70,115,1
0,67,107,4
0,62,54,0
0,60,66,1
0,67,115,0
0,48,90,1
0,70,113,1
0,33,99,1
0,33,102,0
0,76,113,0
0,55,87,0
0,62,40,0
0,79,45,1
0,70,110,0
0,67,109,1
0,62,48,1
0,48,68,0
0,67,115,0
0,55,72,0
0,48,117,1
0,46,69,2
0,35,97,0
0,31,87,0
0,31,99,0
0,70,113,0
0,76,113,0
0,62,58,0
0,37,48,0
0,79,97,0
0,84,102,0
0,72,110,0
0,55,101,4
0,62,58,17
0,60,91,0
0,48,91,0
0,55,94,1
0,48,84,0
0,35,107,2
0,31,91,0
0,31,100,0
0,55,87,0
0,62,44,0
0,37,74,0
0,79,39,0
0,62,58,14
0,48,122,9
0,46,89,1
0,40,112,0
0,33,97,0
0,33,102,0
0,62,62,0
0,37,95,0
0,57,103,0
0,62,55,1
0,63,118,19
0,55,92,0
0,48,88,0
0,35,102,1
0,31,89,0
0,31,100,0
0,77,99,0
0,80,104,0
