track,note,velocity,time
0,45,95,240
0,57,104,0
0,45,65,0
0,49,77,0
0,57,80,0
0,35,127,0
0,35,0,1
0,49,0,0
0,57,0,0
0,61,111,2
0,57,89,1
0,69,114,1
0,64,109,0
0,61,100,0
0,64,103,1
0,69,104,2
0,69,0,19
0,69,100,2
0,69,0,20
0,69,92,1
0,69,0,22
0,69,103,1
0,64,0,1
0,69,0,0
0,61,0,1
0,64,0,0
0,69,114,0
0,64,102,0
0,64,110,1
0,61,96,0
0,61,0,1
0,45,0,0
0,45,0,0
0,61,104,1
0,69,0,14
0,64,0,3
0,57,0,0
0,61,0,0
0,69,0,1
0,64,0,0
0,69,85,0
0,61,100,0
0,69,0,1
0,64,95,2
0,61,0,1
0,69,96,1
0,69,0,14
0,64,0,0
0,57,0,1
0,61,0,3
0,64,85,1
0,64,75,0
0,64,0,1
0,64,0,0
0,49,54,20
0,54,100,2
0,54,92,0
0,59,101,1
0,59,110,1
0,49,38,0
0,63,110,1
0,63,102,0
0,68,106,1
0,68,58,10
0,63,0,7
0,64,109,0
0,63,0,5
0,64,79,0
0,54,0,1
0,56,61,0
0,54,0,4
0,56,36,0
0,68,0,37
0,64,0,2
0,68,103,0
0,64,100,1
0,59,0,2
0,68,0,1
0,59,94,0
0,56,0,1
0,49,0,0
0,68,111,0
0,64,0,1
0,56,56,0
0,64,102,1
0,64,0,14
0,64,99,2
0,68,0,1
0,68,100,1
0,59,0,1
0,59,88,1
0,64,0,1
0,68,0,1
0,64,105,0
0,68,111,1
0,68,0,17
0,68,103,1
0,64,0,1
0,64,100,1
0,68,0,1
0,59,0,0
0,68,110,1
0,59,93,0
0,56,0,19
0,56,88,1
0,59,0,1
0,64,0,1
0,68,0,0
0,59,102,0
0,64,102,1
0,59,0,1
0,68,99,0
0,64,0,1
0,59,108,0
0,68,0,1
0,64,111,0
0,68,113,1
0,68,0,16
0,64,0,1
0,68,0,3
0,59,0,0
0,68,75,0
0,68,0,1
0,64,0,0
0,64,110,1
0,59,0,2
0,56,0,3
0,49,0,2
0,56,0,2
0,64,0,4
0,64,85,9
0,64,75,0
0,64,0,1
0,64,0,0
0,68,85,23
0,68,75,0
0,68,0,1
0,68,0,0
0,47,36,18
0,52,99,1
0,61,110,1
0,57,110,0
0,47,51,0
0,66,113,2
0,52,94,0
0,57,102,1
0,61,102,1
0,66,104,1
0,61,0,17
0,62,92,0
0,61,0,3
0,62,95,0
0,52,0,2
0,52,0,1
0,62,0,21
0,66,0,1
0,62,85,0
0,66,102,1
0,66,0,19
0,62,0,2
0,66,110,0
0,62,104,1
0,66,0,2
0,66,103,1
0,62,0,1
0,62,104,1
0,57,0,1
0,57,100,1
0,47,0,1
0,47,58,2
0,57,0,12
0,62,0,2
0,57,104,0
0,57,0,1
0,66,0,0
0,66,0,0
0,62,109,0
0,62,0,1
0,66,115,0
0,62,101,1
0,57,101,0
0,47,0,3
0,47,0,3
0,57,0,4
0,62,0,2
0,57,0,0
0,66,0,1
0,62,0,2
0,62,85,8
0,66,75,0
0,66,0,1
0,62,0,0
0,55,96,22
0,55,82,0
0,60,108,1
0,60,101,0
0,64,109,2
0,64,99,0
0,69,112,1
0,69,104,0
0,64,0,21
0,65,105,0
0,55,0,5
0,55,0,1
0,57,38,0
0,57,76,0
0,64,0,3
0,65,95,0
0,69,0,36
0,69,112,1
0,65,0,1
0,69,0,1
0,65,107,0
0,69,102,1
0,65,0,1
0,65,97,1
0,60,0,1
0,60,94,1
0,60,0,15
0,65,0,1
0,60,89,0
0,69,0,2
0,65,105,0
0,65,0,1
0,69,112,0
0,65,98,1
0,69,0,1
0,69,102,1
0,69,0,19
0,69,0,1
0,69,112,0
0,65,0,1
0,69,100,0
0,65,0,1
0,65,106,0
0,65,94,1
0,60,0,19
0,65,0,1
0,57,0,0
0,60,108,0
0,69,0,1
0,60,0,0
0,57,91,0
0,69,0,1
0,65,0,0
0,69,113,0
0,65,110,0
0,60,98,0
0,69,89,4
0,65,94,0
0,69,0,18
0,69,0,1
0,65,0,1
0,69,111,0
0,65,0,1
0,65,108,0
0,69,103,0
0,60,0,1
0,65,99,0
0,57,0,2
0,57,76,1
0,60,0,8
0,57,0,0
0,69,0,6
0,65,0,0
0,65,0,1
0,69,0,2
0,57,0,2
0,60,85,0
0,65,75,0
0,65,0,1
0,60,0,0
0,65,85,23
0,69,75,0
0,69,0,1
0,65,0,0
0,49,83,18
0,54,99,1
0,49,58,3
0,68,114,1
0,54,93,0
0,59,103,2
0,63,99,1
0,68,105,1
0,63,108,1
0,63,0,20
0,64,99,0
0,63,0,1
0,64,85,0
0,54,0,1
0,56,76,0
0,54,0,2
0,56,36,0
0,64,0,13
0,64,88,1
0,68,0,1
0,68,103,1
0,68,0,3
0,68,100,1
0,68,0,19
0,64,0,1
0,68,112,0
0,64,106,2
0,68,0,2
0,64,0,1
0,68,102,0
0,64,100,1
0,56,0,3
0,56,78,1
0,64,0,13
0,64,107,1
0,64,0,1
0,68,0,0
0,59,0,1
0,68,114,0
0,68,0,1
0,64,75,0
0,64,0,1
0,49,0,1
0,68,100,0
0,49,0,2
0,56,0,3
0,56,0,1
0,68,0,6
0,64,0,1
0,68,0,1
0,64,85,8
0,68,102,0
0,68,0,1
0,64,0,0
0,63,51,5
0,63,0,1
0,54,89,12
0,49,92,2
0,59,108,1
0,54,92,0
0,63,107,1
0,68,112,1
0,59,98,0
0,63,97,2
0,68,100,2
0,63,0,17
0,63,0,0
0,54,0,0
0,64,102,0
0,64,84,0
0,56,81,0
0,54,0,3
0,56,38,0
0,68,0,21
0,68,73,1
0,68,0,25
0,68,0,1
0,68,110,0
0,64,0,1
0,68,102,0
0,64,0,1
0,64,105,0
0,64,97,1
0,59,0,1
0,59,89,2
0,49,0,3
0,59,0,14
0,68,0,1
0,64,0,1
0,59,98,0
0,68,0,1
0,68,109,0
0,64,97,0
0,68,103,2
0,68,0,21
0,68,0,0
0,64,0,1
0,68,111,0
0,68,100,0
0,64,0,1
0,64,97,0
0,59,0,1
0,64,95,0
0,56,0,1
0,59,95,0
0,56,65,2
0,59,0,17
0,64,0,1
0,64,0,0
0,59,0,0
0,59,108,0
0,68,0,1
0,68,0,0
0,64,105,0
0,64,96,0
0,59,100,0
0,68,106,3
0,68,99,0
0,68,0,18
0,68,0,1
0,64,0,0
0,68,102,0
0,68,112,1
0,59,0,1
0,64,97,0
0,56,0,5
0,56,0,8
0,59,0,0
0,68,0,0
0,64,0,4
0,68,0,1
0,64,0,3
0,64,85,1
0,64,75,0
0,64,0,1
0,64,0,0
0,59,85,23
0,59,75,0
0,59,0,1
0,59,0,0
0,66,31,6
0,54,98,13
0,57,109,2
0,62,111,1
0,47,66,0
0,52,92,0
0,47,68,1
0,66,113,0
0,57,98,0
0,35,127,0
0,35,0,1
0,66,0,1
0,61,100,0
0,66,103,1
0,57,0,22
0,57,96,1
0,61,0,2
0,52,0,0
0,62,82,0
0,66,0,17
0,66,0,1
0,66,107,0
0,66,101,1
0,40,127,1
0,40,0,1
0,47,0,11
0,66,0,9
0,66,113,1
0,62,0,1
0,66,0,0
0,62,109,1
0,62,0,1
0,66,102,0
0,62,99,2
0,54,58,4
0,47,0,14
0,62,0,0
0,66,0,1
0,57,0,1
0,62,0,0
0,66,0,0
0,62,85,1
0,62,103,0
0,66,106,0
0,40,127,0
0,40,0,1
0,54,0,0
0,62,0,0
0,57,0,5
0,54,0,3
0,62,0,4
0,66,0,6
0,64,96,4
0,64,97,1
0,55,54,3
0,64,0,9
0,64,0,1
0,55,0,3
0,62,99,5
0,66,108,2
0,57,61,1
0,47,127,0
0,47,0,1
0,69,113,0
0,62,94,0
0,66,98,2
0,69,104,1
0,40,127,20
0,40,0,1
0,69,0,20
0,69,97,1
0,66,0,3
0,69,0,1
0,66,96,0
0,69,102,1
0,57,0,7
0,69,0,13
0,66,0,1
0,69,112,0
0,47,127,0
0,47,0,1
0,69,0,0
0,66,106,1
0,69,102,0
0,66,0,1
0,62,0,1
0,66,99,0
0,57,87,1
0,62,94,0
0,57,69,9
0,66,0,8
0,69,0,1
0,66,110,0
0,66,0,2
0,69,112,0
0,69,0,1
0,66,98,0
0,69,104,1
0,69,0,19
0,69,110,1
0,69,0,1
0,47,127,0
0,47,0,1
0,66,0,0
0,69,102,0
0,66,94,1
0,62,0,18
0,66,0,2
0,62,105,0
0,69,0,1
0,66,108,0
0,62,0,1
0,69,112,0
0,45,127,0
0,45,0,1
0,62,100,0
0,69,0,1
0,66,0,0
0,66,92,1
0,69,96,1
0,69,0,15
0,66,0,1
0,69,112,0
0,66,106,1
0,69,0,2
0,66,0,1
0,69,104,0
0,66,97,2
0,57,0,2
0,69,0,13
0,57,0,3
0,62,0,1
0,69,0,0
0,66,0,2
0,66,85,1
0,62,75,0
0,41,127,0
0,41,0,1
0,66,0,0
0,62,0,0
0,62,0,0
0,66,0,3
0,64,85,20
0,66,75,0
0,66,0,1
0,64,0,0
0,57,92,18
0,61,110,2
0,64,109,1
0,69,114,1
0,57,92,0
0,33,125,1
0,61,99,0
0,33,95,0
0,57,90,0
0,35,127,0
0,35,0,1
0,57,0,0
0,64,102,0
0,69,102,2
0,69,0,20
0,69,100,1
0,64,0,21
0,64,95,1
0,69,0,1
0,69,100,1
0,46,83,0
0,46,0,1
0,69,0,20
0,64,0,2
0,69,112,0
0,61,0,1
0,64,110,0
0,69,0,1
0,61,110,0
0,33,0,1
0,33,0,0
0,69,103,0
0,64,0,1
0,61,0,1
0,64,100,0
0,61,96,1
0,44,70,14
0,44,40,0
0,61,0,1
0,64,0,1
0,61,106,0
0,44,0,1
0,44,0,0
0,61,0,1
0,45,118,0
0,45,88,0
0,69,0,1
0,64,0,0
0,61,100,0
0,40,127,0
0,46,107,0
0,46,0,1
0,40,0,0
0,69,0,1
0,61,0,8
0,57,0,0
0,61,0,7
0,57,0,4
0,64,85,3
0,64,75,0
0,64,0,1
0,64,0,0
0,45,0,21
0,45,0,0
0,59,106,0
0,37,119,1
0,63,110,0
0,54,86,0
0,37,89,0
0,68,112,1
0,35,127,0
0,46,99,0
0,46,0,1
0,35,0,0
0,59,100,0
0,68,103,2
0,63,98,0
0,63,0,17
0,64,106,0
0,63,0,2
0,64,80,0
0,54,0,5
0,56,31,0
0,35,96,21
0,46,83,0
0,46,0,1
0,35,0,0
0,68,0,16
0,68,110,1
0,64,0,1
0,64,103,1
0,56,36,3
0,68,0,1
0,64,0,1
0,68,100,0
0,64,98,2
0,59,0,1
0,56,0,1
0,59,89,0
0,56,65,1
0,64,0,10
0,68,0,0
0,64,109,2
0,68,112,1
0,64,0,5
0,35,127,0
0,46,101,0
0,46,0,1
0,35,0,0
0,64,94,0
0,68,0,1
0,68,100,1
0,68,0,14
0,64,0,1
0,68,110,0
0,64,108,1
0,59,0,1
0,59,102,1
0,68,0,3
0,68,100,1
0,64,0,1
0,59,0,1
0,64,96,0
0,59,93,1
0,64,0,14
0,68,0,1
0,64,108,0
0,68,114,2
0,64,0,3
0,37,0,0
0,37,0,0
0,40,127,0
0,46,120,0
0,46,0,1
0,40,0,0
0,68,0,0
0,40,120,0
0,40,90,0
0,64,97,1
0,68,83,3
0,68,0,14
0,68,111,1
0,64,0,1
0,59,0,1
0,64,108,0
0,68,0,1
0,64,0,1
0,68,100,0
0,59,0,2
0,64,96,0
0,56,0,3
0,56,0,3
0,68,0,5
0,64,0,1
0,68,0,0
0,64,0,1
0,40,0,6
0,40,0,0
0,64,85,3
0,64,75,0
0,35,120,0
0,46,99,0
0,46,0,1
0,64,0,0
0,64,0,0
0,35,0,0
0,37,114,0
0,37,84,0
0,57,85,23
0,57,0,1
0,61,77,0
0,66,67,3
0,37,0,10
0,37,0,0
0,52,99,6
0,61,0,1
0,57,112,0
0,47,65,0
0,61,112,1
0,66,0,1
0,66,113,0
0,52,90,0
0,66,104,1
0,61,98,0
0,57,100,0
0,35,127,0
0,46,120,0
0,46,0,1
0,35,0,0
0,35,116,0
0,35,86,0
0,61,0,23
0,61,0,0
0,62,104,0
0,62,87,0
0,52,0,5
0,52,0,0
0,54,45,0
0,54,31,0
0,66,0,18
0,66,94,1
0,46,91,0
0,46,0,1
0,66,0,22
0,66,0,1
0,66,111,0
0,62,0,1
0,66,101,0
0,62,109,1
0,57,0,1
0,62,0,0
0,57,0,1
0,54,0,0
0,57,108,0
0,62,99,0
0,54,0,1
0,47,0,1
0,54,82,0
0,54,89,0
0,57,100,0
0,47,51,1
0,47,81,2
0,57,0,14
0,57,0,0
0,66,0,0
0,35,0,1
0,35,0,0
0,62,0,0
0,57,109,0
0,57,75,0
0,46,107,0
0,40,127,0
0,40,0,1
0,46,0,0
0,57,0,0
0,42,127,0
0,42,101,0
0,47,0,1
0,62,0,0
0,62,109,0
0,47,0,1
0,54,0,1
0,66,0,3
0,54,0,1
0,57,0,8
0,62,0,4
0,66,85,4
0,62,75,0
0,62,0,1
0,66,0,0
0,69,71,0
0,42,0,15
0,42,0,0
0,50,88,5
0,55,98,2
0,35,127,1
0,46,111,0
0,46,0,1
0,69,0,0
0,35,0,0
0,38,121,0
0,60,106,0
0,38,91,0
0,64,107,1
0,69,114,1
0,55,94,1
0,69,102,0
0,60,95,2
0,64,98,4
0,55,0,15
0,57,76,0
0,64,0,2
0,65,106,0
0,64,0,1
0,65,92,0
0,55,0,4
0,57,48,0
0,46,94,16
0,46,0,1
0,69,0,19
0,65,0,2
0,69,108,0
0,65,106,1
0,69,0,4
0,69,99,1
0,65,0,1
0,65,95,1
0,60,0,1
0,60,96,1
0,65,0,10
0,65,106,1
0,69,0,1
0,69,110,1
0,35,127,3
0,46,103,0
0,46,0,1
0,35,0,0
0,69,0,2
0,69,100,2
0,69,0,15
0,65,0,1
0,65,107,1
0,69,0,2
0,69,109,0
0,69,102,1
0,65,0,1
0,65,91,1
0,69,0,13
0,38,0,2
0,38,0,0
0,65,0,4
0,65,108,1
0,69,112,1
0,40,127,0
0,46,120,0
0,46,0,1
0,40,0,0
0,65,0,0
0,45,127,0
0,45,100,0
0,69,0,1
0,65,92,1
0,69,96,2
0,69,0,17
0,50,0,0
0,65,0,2
0,69,111,0
0,69,0,1
0,65,0,1
0,65,105,0
0,69,102,0
0,57,0,1
0,60,0,0
0,65,98,0
0,60,0,6
0,57,0,2
0,69,0,2
0,65,0,2
0,45,0,4
0,45,0,0
0,69,0,0
0,65,0,2
0,65,85,3
0,69,75,0
0,35,127,0
0,46,101,0
0,46,0,1
0,65,0,0
0,69,0,0
0,35,0,0
0,38,114,0
0,38,84,0
0,69,85,23
0,65,75,0
0,65,0,1
0,69,0,0
0,38,0,8
0,38,0,0
0,54,98,12
0,59,108,1
0,63,112,2
0,68,115,0
0,35,127,0
0,46,120,0
0,46,0,1
0,35,0,0
0,37,114,0
0,54,89,0
0,37,84,0
0,59,100,1
0,63,99,2
0,68,104,0
0,63,0,21
0,54,0,0
0,63,0,0
0,64,85,0
0,64,94,0
0,54,0,2
0,56,45,0
0,64,0,20
0,64,87,1
0,40,119,0
0,46,85,0
0,46,0,1
0,40,0,0
0,68,0,0
0,68,100,2
0,68,0,18
0,68,110,1
0,64,0,1
0,59,0,1
0,64,106,0
0,68,0,1
0,59,106,1
0,64,0,2
0,59,0,1
0,64,98,0
0,59,96,2
0,68,98,0
0,56,82,5
0,49,54,1
0,64,0,7
0,59,0,1
0,37,0,1
0,64,0,0
0,37,0,0
0,49,119,1
0,49,89,0
0,59,0,1
0,64,85,0
0,59,85,0
0,64,75,0
0,40,127,0
0,46,114,0
0,46,0,1
0,64,0,0
0,64,0,0
0,68,0,0
0,49,0,0
0,59,0,0
0,40,0,0
0,68,0,1
0,56,0,0
0,56,0,3
0,68,110,17
0,64,75,2
0,68,100,0
0,64,0,1
0,63,73,0
0,59,86,0
0,49,0,9
0,49,0,0
0,59,0,10
0,68,0,1
0,63,0,0
0,59,106,0
0,49,41,0
0,54,79,2
