track,note,velocity,time
17,45,74,19968
17,52,66,0
17,61,66,0
17,57,68,0
17,64,80,0
17,58,49,375
17,61,59,0
17,46,54,0
17,64,54,0
17,62,72,770
17,66,63,0
17,47,66,0
17,59,64,0
17,69,60,586
17,60,58,0
17,65,60,0
17,57,54,0
17,50,66,0
17,40,60,517
17,52,52,0
17,59,56,0
17,56,53,0
17,52,68,749
17,59,72,0
17,56,62,0
17,64,80,0
17,52,40,180
17,56,49,0
17,59,51,0
17,56,68,128
17,59,74,0
17,52,68,0
17,56,78,119
17,52,80,0
17,59,85,0
17,56,85,106
17,52,91,0
17,59,100,0
17,56,95,122
17,52,91,0
17,59,105,0
17,56,105,127
17,52,102,0
17,59,107,0
17,52,110,127
17,56,107,0
17,59,107,0
17,52,87,132
17,61,91,0
17,64,107,0
17,45,98,0
17,57,95,0
17,64,91,140
17,62,102,0
17,59,98,0
17,61,82,332
17,64,91,0
17,52,70,0
17,57,82,0
17,45,87,0
17,52,91,173
17,57,82,125
17,52,87,181
17,59,110,135
17,64,105,0
17,64,57,4
17,57,102,0
17,57,93,4
17,61,93,0
17,45,87,0
17,64,93,0
17,52,64,0
17,64,107,13
17,61,102,0
17,57,87,0
17,45,89,271
17,61,82,20
17,64,93,0
17,57,85,0
17,64,85,5
17,62,98,0
17,59,85,0
17,61,85,95
17,57,85,0
17,64,91,0
17,52,82,15
17,59,102,66
17,64,95,0
17,47,91,20
17,66,82,0
17,62,91,0
17,59,72,0
17,62,95,148
17,59,85,0
17,66,100,0
17,47,68,324
17,62,98,0
17,66,91,0
17,59,80,0
17,66,68,61
17,62,80,0
17,59,85,0
17,56,82,10
17,64,95,0
17,59,93,0
17,47,66,0
17,40,82,0
17,52,98,652
17,71,66,192
17,64,89,0
17,66,107,114
17,71,105,0
17,68,95,72
17,71,100,0
17,64,85,0
17,59,74,389
17,56,85,0
17,52,80,0
17,56,105,52
17,52,102,0
17,59,107,0
17,45,85,407
17,52,82,0
17,61,100,0
17,64,105,0
17,57,100,0
17,64,100,114
17,59,102,0
17,62,110,0
17,61,87,239
17,45,91,0
17,52,74,0
17,64,95,0
17,57,89,0
17,52,98,117
17,57,85,149
17,59,107,69
17,64,102,0
17,52,89,192
17,57,91,84
17,64,89,53
17,61,80,0
17,57,82,0
17,45,78,0
17,52,61,0
17,61,93,64
17,64,107,0
17,57,85,0
17,52,100,311
17,64,98,23
17,61,95,0
17,52,82,0
17,45,105,0
17,57,98,0
17,47,82,2
17,62,98,0
17,66,91,0
17,59,87,0
17,56,70,541
17,59,82,0
17,64,85,0
17,40,80,0
17,47,60,0
17,45,82,4
17,64,80,0
17,61,68,0
17,57,72,0
17,52,61,176
17,57,72,112
17,59,89,101
17,52,74,167
17,61,68,95
17,57,64,0
17,62,105,88
17,59,95,0
17,64,100,0
17,62,89,336
17,59,93,0
17,64,102,0
17,52,87,85
17,61,91,0
17,64,107,0
17,45,98,0
17,57,95,0
17,64,91,140
17,62,102,0
17,59,98,0
17,61,82,332
17,64,91,0
17,52,70,0
17,57,82,0
17,45,87,0
17,52,91,173
17,57,82,125
17,52,87,181
17,59,110,135
17,64,105,0
17,64,57,4
17,57,102,0
17,57,93,4
17,61,93,0
17,45,87,0
17,64,93,0
17,52,64,0
17,64,107,13
17,61,102,0
17,57,87,0
17,45,89,271
17,61,82,20
17,64,93,0
17,57,85,0
17,64,85,5
17,62,98,0
17,59,85,0
17,61,85,95
17,57,85,0
17,64,91,0
17,52,82,15
17,59,102,66
17,64,95,0
17,47,91,20
17,66,82,0
17,62,91,0
17,59,72,0
17,62,95,148
17,59,85,0
17,66,100,0
17,40,93,132
17,56,87,0
17,59,100,0
17,52,87,0
17,56,68,525
17,59,87,0
17,64,91,0
17,56,100,47
17,52,85,287
17,61,87,0
17,57,93,0
17,45,95,0
17,64,98,0
17,45,98,152
17,64,85,95
17,59,87,0
17,62,102,0
17,64,95,120
17,59,100,0
17,62,110,0
17,62,87,79
17,59,87,0
17,64,82,0
17,61,102,32
17,57,100,0
17,64,100,0
17,52,87,0
17,45,98,0
17,71,113,832
17,76,105,0
17,73,95,64
17,76,91,0
17,71,95,96
17,69,107,77
17,64,89,15
17,76,95,130
17,70,91,0
17,78,107,210
17,74,93,64
17,71,100,95
17,83,102,311
17,74,110,312
17,81,107,0
17,78,105,0
17,76,107,127
17,81,102,0
17,78,78,64
17,76,68,58
17,74,87,40
17,69,102,324
17,69,107,64
17,66,100,0
17,68,98,15
17,71,102,0
17,64,100,0
17,76,110,8
17,68,105,0
17,71,87,84
17,69,68,0
17,76,91,0
17,71,107,13
17,76,107,0
17,76,93,103
17,69,100,0
17,68,89,133
17,76,100,0
17,68,95,32
17,64,95,0
17,73,85,34
17,69,80,0
17,74,119,343
17,71,110,0
17,69,66,12
17,73,64,0
17,64,82,69
17,57,98,149
17,71,110,192
17,76,107,0
17,73,85,23
17,69,102,37
17,45,74,192
17,52,66,0
17,61,66,0
17,57,68,0
17,64,80,0
17,58,49,375
17,61,59,0
17,46,54,0
17,64,54,0
17,62,72,770
17,66,63,0
17,47,66,0
17,59,64,0
17,69,60,586
17,60,58,0
17,65,60,0
17,57,54,0
17,50,66,0
17,40,60,517
17,52,52,0
17,59,56,0
17,56,53,0
17,52,68,749
17,59,72,0
17,56,62,0
17,64,80,0
17,52,40,180
17,56,49,0
17,59,51,0
17,56,68,128
17,59,74,0
17,52,68,0
17,56,78,119
17,52,80,0
17,59,85,0
17,56,85,106
17,52,91,0
17,59,100,0
17,56,95,122
17,52,91,0
17,59,105,0
17,56,105,127
17,52,102,0
17,59,107,0
17,52,110,127
17,56,107,0
17,59,107,0
17,52,87,132
17,61,91,0
17,64,107,0
17,45,98,0
17,57,95,0
17,64,91,140
17,62,102,0
17,59,98,0
17,61,82,332
17,64,91,0
17,52,70,0
17,57,82,0
17,45,87,0
17,52,91,173
17,57,82,125
17,52,87,181
17,59,110,135
17,64,105,0
17,64,57,4
17,57,102,0
17,57,93,4
17,61,93,0
17,45,87,0
17,64,93,0
17,52,64,0
17,64,107,13
17,61,102,0
17,57,87,0
17,45,89,271
17,61,82,20
17,64,93,0
17,57,85,0
17,64,85,5
17,62,98,0
17,59,85,0
17,61,85,95
17,57,85,0
17,64,91,0
17,52,82,15
17,59,102,66
17,64,95,0
17,47,91,20
17,66,82,0
17,62,91,0
17,59,72,0
17,62,95,148
17,59,85,0
17,66,100,0
17,47,68,324
17,62,98,0
17,66,91,0
17,59,80,0
17,66,68,61
17,62,80,0
17,59,85,0
17,56,82,10
17,64,95,0
17,59,93,0
17,47,66,0
17,40,82,0
17,52,98,652
17,71,66,192
17,64,89,0
17,66,107,114
17,71,105,0
17,68,95,72
17,71,100,0
17,64,85,0
17,59,74,389
17,56,85,0
17,52,80,0
17,56,105,52
17,52,102,0
17,59,107,0
17,45,85,407
17,52,82,0
17,61,100,0
17,64,105,0
17,57,100,0
17,64,100,114
17,59,102,0
17,62,110,0
17,61,87,239
17,45,91,0
17,52,74,0
17,64,95,0
17,57,89,0
17,52,98,117
17,57,85,149
17,59,107,69
17,64,102,0
17,52,89,192
17,57,91,84
17,64,89,53
17,61,80,0
17,57,82,0
17,45,78,0
17,52,61,0
17,61,93,64
17,64,107,0
17,57,85,0
17,52,100,311
17,64,98,23
17,61,95,0
17,52,82,0
17,45,105,0
17,57,98,0
17,47,82,2
17,62,98,0
17,66,91,0
17,59,87,0
17,56,70,541
17,59,82,0
17,64,85,0
17,40,80,0
17,47,60,0
17,45,82,4
17,64,80,0
17,61,68,0
17,57,72,0
17,52,61,176
17,57,72,112
17,59,89,101
17,52,74,167
17,61,68,95
17,57,64,0
17,62,105,88
17,59,95,0
17,64,100,0
17,62,89,336
17,59,93,0
17,64,102,0
17,52,87,85
17,61,91,0
17,64,107,0
17,45,98,0
17,57,95,0
17,64,91,140
17,62,102,0
17,59,98,0
17,61,82,332
17,64,91,0
17,52,70,0
17,57,82,0
17,45,87,0
17,52,91,173
17,57,82,125
17,52,87,181
17,59,110,135
17,64,105,0
17,64,57,4
17,57,102,0
17,57,93,4
17,61,93,0
17,45,87,0
17,64,93,0
17,52,64,0
17,64,107,13
17,61,102,0
17,57,87,0
17,45,89,271
17,61,82,20
17,64,93,0
17,57,85,0
17,64,85,5
17,62,98,0
17,59,85,0
17,61,85,95
17,57,85,0
17,64,91,0
17,52,82,15
17,59,102,66
17,64,95,0
17,47,91,20
17,66,82,0
17,62,91,0
17,59,72,0
17,62,95,148
17,59,85,0
17,66,100,0
17,47,68,324
17,62,98,0
17,66,91,0
17,59,80,0
17,66,68,61
17,62,80,0
17,59,85,0
17,56,82,10
17,64,95,0
17,59,93,0
17,47,66,0
17,40,82,0
17,52,98,652
17,71,66,192
17,64,89,0
17,66,107,114
17,71,105,0
17,68,95,72
17,71,100,0
17,64,85,0
17,59,74,389
17,56,85,0
17,52,80,0
17,56,105,52
17,52,102,0
17,59,107,0
17,45,85,407
17,52,82,0
17,61,100,0
17,64,105,0
17,57,100,0
17,64,100,114
17,59,102,0
17,62,110,0
17,61,87,239
17,45,91,0
17,52,74,0
17,64,95,0
17,57,89,0
17,52,98,117
17,57,85,149
17,59,107,69
17,64,102,0
17,52,89,192
17,57,91,84
17,64,89,53
17,61,80,0
17,57,82,0
17,45,78,0
17,52,61,0
17,61,93,64
17,64,107,0
17,57,85,0
17,52,100,311
17,64,89,23
17,61,80,0
17,57,82,0
17,45,78,0
17,52,61,0
17,61,93,64
17,64,107,0
17,57,85,0
17,52,100,311
17,47,82,23
17,62,98,0
17,66,91,0
17,59,87,0
17,56,70,541
17,59,82,0
17,64,85,0
17,40,80,0
17,47,60,0
17,45,82,4
17,64,80,0
17,61,68,0
17,57,72,0
17,52,61,176
17,57,72,112
17,59,89,101
17,52,74,167
17,61,68,95
17,57,64,0
17,62,105,88
17,59,95,0
17,64,100,0
17,62,89,336
17,59,93,0
17,64,102,0
17,52,87,85
17,61,91,0
17,64,107,0
17,45,98,0
17,57,95,0
17,64,91,140
17,62,102,0
17,59,98,0
17,61,82,332
17,64,91,0
17,52,70,0
17,57,82,0
17,45,87,0
17,52,91,173
17,57,82,125
17,52,87,181
17,59,110,135
17,64,105,0
17,64,57,4
17,57,102,0
17,57,93,4
17,61,93,0
17,45,87,0
17,64,93,0
17,52,64,0
17,64,107,13
17,61,102,0
17,57,87,0
17,45,89,271
17,61,82,20
17,64,93,0
17,57,85,0
17,64,85,5
17,62,98,0
17,59,85,0
17,61,85,95
17,57,85,0
17,64,91,0
17,52,82,15
17,59,102,66
17,64,95,0
17,47,91,20
17,66,82,0
17,62,91,0
17,59,72,0
17,62,95,148
17,59,85,0
17,66,100,0
17,47,68,324
17,62,98,0
17,66,91,0
17,59,80,0
17,66,68,61
17,62,80,0
17,59,85,0
17,56,82,10
17,64,95,0
17,59,93,0
17,47,66,0
17,40,82,0
17,52,98,652
17,71,66,192
17,64,89,0
17,66,107,114
17,71,105,0
17,68,95,72
17,71,100,0
17,64,85,0
17,59,74,389
17,56,85,0
17,52,80,0
17,56,105,52
17,52,102,0
17,59,107,0
17,45,85,407
17,52,82,0
17,61,100,0
17,64,105,0
17,57,100,0
17,64,100,114
17,59,102,0
17,62,110,0
17,61,87,239
17,45,91,0
17,52,74,0
17,64,95,0
17,57,89,0
17,52,98,117
17,57,85,149
17,59,107,69
17,64,102,0
17,52,89,192
17,57,91,84
17,64,89,53
17,61,80,0
17,57,82,0
17,45,78,0
17,52,61,0
17,61,93,64
17,64,107,0
17,57,85,0
17,52,100,311
17,64,89,23
17,61,80,0
17,57,82,0
17,45,78,0
17,52,61,0
17,61,93,64
17,64,107,0
17,57,85,0
17,52,100,311
17,47,82,23
17,62,98,0
17,66,91,0
17,59,87,0
17,56,70,541
17,59,82,0
17,64,85,0
17,40,80,0
17,47,60,0
17,45,82,4
17,64,80,0
17,61,68,0
17,57,72,0
17,52,61,176
17,57,72,112
17,59,89,101
17,52,74,167
17,61,68,95
17,57,64,0
17,62,105,88
17,59,95,0
17,64,100,0
17,62,89,336
17,59,93,0
17,64,102,0
17,47,82,85
17,62,98,0
17,66,91,0
17,59,87,0
17,56,70,541
17,59,82,0
17,64,85,0
17,40,80,0
17,47,60,0
17,45,82,4
17,64,80,0
17,61,68,0
17,57,72,0
17,52,61,176
17,57,72,112
17,59,89,101
17,52,74,167
17,61,68,95
17,57,64,0
17,62,105,88
17,59,95,0
17,64,100,0
17,62,89,336
17,59,93,0
17,64,102,0
17,64,102,85
17,61,95,0
17,57,102,0
17,45,100,0
17,52,89,0
18,64,127,55104
18,64,100,116
18,64,110,136
18,64,116,122
18,64,113,125
18,61,102,37
18,57,105,36
18,59,127,32
18,59,122,68
18,57,116,66
18,52,110,384
18,45,127,13
18,47,127,576
18,49,107,176
18,52,127,4
18,61,119,12
18,57,116,0
18,61,122,15
18,57,119,0
18,61,119,141
18,57,113,0
18,59,107,5
18,57,127,10
18,52,122,192
18,64,127,42
18,64,127,138
18,61,113,143
18,59,105,24
18,57,119,15
18,57,127,8
18,57,122,69
18,52,127,16
18,47,127,10
18,45,122,37
18,45,105,109
18,45,107,40
18,49,110,20
18,52,98,2
18,49,113,16
18,47,110,12
18,45,105,96
18,47,110,0
18,64,127,47599
18,64,100,116
18,64,110,136
18,64,116,122
18,64,113,125
18,61,102,37
18,57,105,36
18,45,122,32
18,52,127,0
18,45,119,92
18,52,113,0
18,52,107,328
18,45,107,0
18,45,116,128
18,52,110,0
18,45,107,63
18,52,113,0
18,45,119,524
18,52,122,0
18,45,122,112
18,57,102,45
18,54,113,44
18,47,105,0
18,47,122,79
18,54,107,0
18,47,110,522
18,54,110,0
18,52,107,18
18,40,110,0
18,40,122,101
18,47,110,100
18,40,122,7
18,40,107,66
18,52,105,0
18,47,102,0
18,40,110,133
18,52,107,0
18,47,100,0
18,52,122,50
18,45,119,0
18,45,107,63
18,52,113,0
18,45,102,327
18,52,100,0
18,45,105,104
18,52,113,0
18,45,110,74
18,52,116,0
18,45,102,324
18,52,102,0
18,45,116,128
18,52,116,0
18,45,119,117
18,52,102,48
18,57,105,0
18,45,110,77
18,45,116,61
18,52,116,0
18,45,119,117
18,52,102,48
18,57,105,0
18,45,110,77
18,54,110,61
18,47,119,0
18,47,116,120
18,54,110,90
18,40,122,34
18,40,110,72
18,52,102,23
18,40,110,45
18,52,116,42
18,45,127,74
18,52,127,0
18,64,127,12
18,64,100,116
18,64,110,136
18,64,116,122
18,64,113,125
18,61,102,37
18,57,105,36
18,45,122,32
18,52,127,0
18,45,119,92
18,52,113,0
18,52,107,328
18,45,107,0
18,45,116,128
18,52,110,0
18,45,107,63
18,52,113,0
18,45,119,524
18,52,122,0
18,45,122,112
18,57,102,45
18,54,113,44
18,47,105,0
18,47,122,79
18,54,107,0
18,47,110,522
18,54,110,0
18,52,107,18
18,40,110,0
18,40,122,101
18,47,110,100
18,40,122,7
18,40,107,66
18,52,105,0
18,47,102,0
18,40,110,133
18,52,107,0
18,47,100,0
18,52,122,50
18,45,119,0
18,45,107,63
18,52,113,0
18,45,102,327
18,52,100,0
18,45,105,104
18,52,113,0
18,45,110,74
18,52,116,0
18,45,102,324
18,52,102,0
18,45,116,128
18,52,116,0
18,45,119,117
18,52,102,48
18,57,105,0
18,45,110,77
18,45,116,61
18,52,116,0
18,45,119,117
18,52,102,48
18,57,105,0
18,45,110,77
18,54,110,61
18,47,119,0
18,47,116,120
18,54,110,90
18,40,122,34
18,40,110,72
18,52,102,23
18,40,110,45
18,52,116,42
18,45,127,74
18,52,127,0
18,64,127,12
18,64,100,116
18,64,110,136
18,64,116,122
18,64,113,125
18,61,102,37
18,57,105,36
18,54,110,32
18,47,119,0
18,47,116,120
18,54,110,90
18,40,122,34
18,40,110,72
18,52,102,23
18,40,110,45
18,52,116,42
18,45,127,74
18,52,127,0
18,52,122,1224
18,45,119,0
19,45,91,1536
19,52,82,192
19,57,82,180
19,61,100,112
