track,note,velocity,time
3,52,107,286
3,45,99,0
3,57,111,1
3,61,111,1
3,64,111,1
3,64,0,67
3,64,117,1
3,61,0,1
3,57,0,1
3,61,110,0
3,57,110,2
3,45,0,66
3,52,0,1
3,64,0,1
3,61,0,0
3,57,0,0
3,52,100,0
3,45,100,0
3,57,111,2
3,61,107,1
3,64,108,1
3,64,0,64
3,61,0,1
3,64,117,0
3,57,0,2
3,61,113,0
3,57,104,1
3,64,0,20
3,64,80,1
3,52,0,45
3,57,0,1
3,52,80,0
3,61,0,1
3,57,107,1
3,64,0,1
3,61,107,0
3,64,115,1
3,57,0,44
3,61,0,1
3,64,0,2
3,59,72,0
3,55,69,0
3,64,115,1
3,52,0,9
3,64,0,10
3,64,90,4
3,45,0,11
3,64,0,1
3,59,0,4
3,55,0,0
3,55,109,7
3,59,111,1
3,50,78,0
3,67,114,2
3,47,81,2
3,67,0,66
3,67,112,1
3,59,0,2
3,55,0,1
3,59,106,1
3,55,111,1
3,50,0,1
3,50,74,3
3,67,0,16
3,67,110,1
3,47,0,10
3,67,0,21
3,59,0,8
3,55,0,2
3,50,0,5
3,50,91,1
3,45,74,1
3,57,107,1
3,62,108,1
3,66,112,1
3,66,0,66
3,62,0,1
3,66,114,0
3,62,111,2
3,45,0,19
3,45,60,1
3,62,0,27
3,62,97,1
3,57,0,19
3,62,0,2
3,57,112,0
3,66,0,1
3,62,109,0
3,66,109,1
3,57,0,45
3,62,0,2
3,57,109,0
3,66,0,1
3,62,111,0
3,66,109,1
3,66,0,19
3,64,109,1
3,57,0,1
3,62,0,0
3,59,105,0
3,59,0,21
3,64,0,2
3,57,106,0
3,50,0,1
3,61,113,0
3,64,121,0
3,52,43,0
3,64,0,69
3,64,121,1
3,61,0,1
3,61,113,1
3,57,0,1
3,57,109,1
3,45,0,1
3,52,0,0
3,52,94,1
3,45,92,1
3,64,0,19
3,64,114,1
3,52,0,47
3,57,0,1
3,52,101,2
3,57,109,0
3,61,0,1
3,64,0,0
3,61,110,1
3,64,120,0
3,64,0,66
3,61,0,1
3,64,118,0
3,57,0,2
3,61,113,0
3,57,109,1
3,64,0,23
3,64,72,1
3,64,0,21
3,61,0,2
3,64,95,0
3,61,99,1
3,57,0,1
3,57,89,2
3,45,0,16
3,52,0,1
3,45,101,0
3,61,0,2
3,57,0,0
3,52,97,0
3,57,109,1
3,64,0,1
3,61,113,0
3,64,122,3
3,45,0,41
3,57,0,1
3,61,0,2
3,57,103,0
3,64,0,1
3,61,109,0
3,64,113,1
3,61,0,11
3,52,0,1
3,57,0,6
3,55,56,0
3,64,0,1
3,59,93,1
3,47,82,23
3,55,0,2
3,50,81,0
3,59,0,1
3,67,114,0
3,55,110,0
3,59,112,2
3,67,0,67
3,67,115,1
3,59,0,1
3,55,0,1
3,59,117,0
3,50,0,2
3,55,110,0
3,47,0,1
3,47,101,1
3,50,99,0
3,67,0,19
3,67,113,2
3,67,0,24
3,59,0,16
3,55,0,1
3,57,113,6
3,62,108,2
3,66,114,1
3,47,0,1
3,57,0,68
3,66,0,0
3,62,0,2
3,66,113,0
3,62,111,1
3,57,105,2
3,50,0,1
3,45,81,2
3,50,84,1
3,62,0,39
3,62,101,1
3,45,0,18
3,50,0,1
3,45,85,0
3,57,0,2
3,50,81,0
3,66,0,1
3,62,0,0
3,57,112,0
3,66,115,1
3,62,111,0
3,57,0,45
3,62,0,0
3,66,0,1
3,57,105,0
3,62,109,0
3,66,119,2
3,62,0,17
3,66,0,0
3,64,65,1
3,57,0,4
3,55,60,0
3,50,0,18
3,55,0,1
3,57,113,4
3,52,83,0
3,64,0,1
3,64,119,1
3,61,115,0
3,64,0,69
3,64,121,1
3,61,0,1
3,57,0,2
3,61,118,0
3,57,108,2
3,52,0,1
3,52,92,1
3,64,0,18
3,64,113,1
3,52,0,45
3,57,0,2
3,52,96,0
3,61,0,1
3,57,111,0
3,64,0,1
3,64,106,1
3,61,107,1
3,64,0,65
3,61,0,1
3,64,117,0
3,57,0,2
3,61,108,0
3,52,0,2
3,57,107,0
3,52,80,2
3,64,0,41
3,64,113,1
3,61,0,1
3,61,113,1
3,57,0,1
3,57,109,1
3,52,0,1
3,45,0,2
3,52,100,0
3,45,98,3
3,61,0,15
3,61,107,1
3,64,0,1
3,64,113,1
3,57,0,45
3,61,0,1
3,57,103,0
3,64,0,2
3,64,119,1
3,52,0,4
3,57,0,10
3,64,0,5
3,59,107,3
3,55,99,2
3,50,72,1
3,67,63,2
3,45,0,6
3,50,0,4
3,55,0,9
3,59,0,1
3,55,111,1
3,50,92,1
3,67,0,1
3,43,82,0
3,47,104,0
3,67,113,2
3,59,100,0
3,67,0,63
3,67,113,1
3,59,0,2
3,59,111,1
3,50,0,3
3,47,0,1
3,50,91,2
3,47,97,0
3,67,0,18
3,67,106,1
3,43,0,7
3,47,0,5
3,67,0,8
3,55,0,18
3,59,0,0
3,50,0,5
3,50,103,2
3,57,109,1
3,66,116,2
3,62,110,0
3,66,0,66
3,62,0,1
3,66,114,0
3,62,110,2
3,57,0,1
3,57,107,1
3,50,0,2
3,50,79,2
3,57,0,43
3,57,88,1
3,50,0,17
3,45,97,0
3,57,0,1
3,62,0,1
3,57,111,0
3,50,101,0
3,66,0,2
3,62,105,1
3,66,117,1
3,62,0,47
3,66,0,1
3,62,111,0
3,66,117,1
3,62,0,18
3,66,0,1
3,57,0,6
3,64,88,0
3,55,66,2
3,59,44,1
3,55,0,12
3,59,0,2
3,50,0,3
3,64,0,4
3,61,112,1
3,52,94,0
3,64,122,0
3,57,105,3
3,64,0,64
3,64,109,1
3,61,0,1
3,61,111,2
3,57,0,1
3,52,0,1
3,57,102,0
3,52,81,2
3,57,0,16
3,57,88,1
3,64,0,1
3,64,99,1
3,52,0,43
3,57,0,2
3,52,93,0
3,61,0,1
3,57,109,0
3,64,0,1
3,61,109,0
3,64,113,1
3,64,0,66
3,61,0,2
3,64,117,0
3,57,0,2
3,61,111,0
3,57,109,1
3,45,0,2
3,45,84,2
3,64,0,40
3,64,86,1
3,61,0,2
3,61,105,1
3,57,0,1
3,57,103,1
3,52,0,1
3,52,85,2
3,52,0,14
3,57,0,1
3,52,93,0
3,61,0,2
3,57,112,0
3,64,0,1
3,61,108,0
3,64,120,1
3,52,0,44
3,57,0,2
3,52,90,0
3,61,0,1
3,57,111,0
3,64,0,1
3,64,114,2
3,52,0,11
3,57,0,7
3,64,0,0
3,55,87,0
3,64,97,1
3,59,104,2
3,50,70,3
3,64,0,7
3,45,0,4
3,50,0,1
3,55,0,10
3,59,0,0
3,50,99,0
3,55,114,1
3,59,121,0
3,67,115,2
3,43,81,1
3,47,95,1
3,67,0,65
3,67,115,1
3,59,0,1
3,55,0,2
3,59,110,0
3,55,112,1
3,47,0,1
3,47,93,3
3,67,0,18
3,67,112,1
3,43,0,7
3,47,0,4
3,67,0,15
3,59,0,11
3,55,0,1
3,45,103,8
3,57,111,2
3,62,114,1
3,66,101,4
3,66,0,64
3,62,0,1
3,66,117,0
3,62,115,1
3,57,0,1
3,57,109,1
3,66,0,45
3,66,113,2
3,62,0,1
3,57,0,0
3,62,112,1
3,57,108,0
3,50,0,3
3,57,0,13
3,62,0,3
3,66,0,1
3,50,109,0
3,57,111,0
3,66,112,2
3,62,101,1
3,57,0,43
3,57,107,1
3,62,0,1
3,66,0,1
3,62,111,0
3,66,120,2
3,66,0,12
3,62,0,2
3,57,0,2
3,64,115,4
3,59,116,2
3,55,108,2
3,59,0,16
3,55,0,1
3,45,0,1
3,50,0,0
3,52,101,2
3,64,0,1
3,57,109,0
3,45,92,0
3,61,118,1
3,64,110,2
3,64,0,66
3,64,119,1
3,61,0,1
3,61,112,2
3,52,0,2
3,45,0,2
3,52,85,0
3,45,91,4
3,61,0,14
3,64,0,1
3,61,107,0
3,64,113,1
3,45,0,46
3,52,0,1
3,57,0,2
3,45,101,1
3,52,97,0
3,61,0,1
3,64,0,1
3,57,111,0
3,61,111,0
3,64,115,2
3,64,0,62
3,64,115,1
3,61,0,2
3,61,113,1
3,57,0,1
3,57,107,1
3,52,0,1
3,52,80,1
3,61,0,64
3,64,0,2
3,64,115,1
3,61,110,0
3,52,0,44
3,52,85,1
3,57,0,1
3,61,0,1
3,57,109,0
3,64,0,1
3,61,109,0
3,64,112,1
3,61,0,20
3,64,0,0
3,64,113,1
3,52,0,3
3,57,0,0
3,59,107,0
3,55,95,1
3,64,0,11
3,45,0,3
3,43,94,6
3,59,0,1
3,55,0,1
3,59,119,1
3,55,114,0
3,67,115,2
3,47,72,1
3,47,0,55
3,67,0,9
3,67,115,1
3,59,0,1
3,59,119,1
3,50,94,3
3,47,85,1
3,43,0,38
3,47,0,2
3,67,0,3
3,59,0,2
3,59,107,1
3,64,55,1
3,50,0,2
3,50,63,2
3,64,0,9
3,55,0,2
3,59,0,0
3,50,0,5
3,45,100,1
3,57,110,1
3,50,104,1
3,62,102,2
3,66,113,2
3,66,0,66
3,62,0,1
3,66,113,0
3,62,111,1
3,57,0,1
3,57,107,1
3,66,0,43
3,66,99,1
3,62,0,1
3,62,103,1
3,45,0,17
3,50,0,2
3,45,107,0
3,57,0,1
3,66,0,0
3,50,103,0
3,62,0,1
3,57,108,0
3,62,112,1
3,66,115,1
3,57,0,46
3,57,107,2
3,62,0,1
3,66,0,0
3,62,109,1
3,66,114,0
3,66,0,19
3,62,0,2
3,64,85,1
3,59,83,1
3,57,0,1
3,55,74,0
3,50,0,2
3,50,62,1
3,55,0,13
3,45,0,3
3,50,0,2
3,45,100,0
3,59,0,1
3,52,101,0
3,64,0,3
3,61,112,0
3,64,100,1
3,57,108,1
3,64,0,48
3,64,123,17
3,61,0,2
3,61,115,1
3,57,0,1
3,57,111,1
3,52,0,1
3,52,101,1
3,45,0,1
3,45,88,4
3,52,0,12
3,61,0,2
3,52,74,0
3,61,108,1
3,40,16,8
3,45,0,37
3,52,0,0
3,57,0,1
3,45,91,0
3,64,0,2
3,61,0,0
3,52,108,0
3,57,114,0
3,61,107,1
3,64,111,1
3,64,0,66
3,64,123,1
3,61,0,1
3,57,0,1
3,61,113,0
3,57,114,1
3,45,0,3
3,45,91,4
3,64,0,37
3,64,91,1
3,61,0,1
3,61,108,1
3,57,0,1
3,57,108,1
3,45,0,3
3,40,0,4
3,52,0,11
3,64,0,1
3,57,0,0
3,52,105,0
3,61,0,1
3,57,112,0
3,45,102,1
3,64,110,1
3,61,103,0
3,40,73,2
3,52,0,44
3,52,91,1
3,57,0,1
3,61,0,1
3,57,113,0
3,64,0,1
3,61,110,0
3,64,111,2
3,52,0,13
3,61,0,1
3,57,0,3
3,64,0,3
3,67,85,2
3,59,107,1
3,55,98,3
3,67,0,13
3,47,105,6
3,43,97,0
3,55,0,2
3,50,89,0
3,59,0,1
3,55,116,0
3,45,0,1
3,59,112,1
3,67,109,0
3,40,0,9
3,67,0,57
3,67,114,1
3,59,0,1
3,55,0,2
3,59,119,0
3,55,113,1
3,50,0,1
3,50,101,1
3,67,0,20
3,67,103,1
3,47,0,3
3,43,0,0
3,67,0,19
3,64,114,1
3,59,0,2
3,55,0,1
3,64,0,9
3,50,0,8
3,45,81,0
3,50,104,1
3,57,111,2
3,62,109,0
3,66,111,2
3,66,0,66
3,62,0,1
3,66,115,0
3,62,112,1
3,57,0,1
3,57,107,2
3,62,0,19
3,66,0,24
3,66,98,1
3,62,109,2
3,57,0,2
3,57,103,1
3,50,0,15
3,57,0,2
3,50,105,0
3,57,113,1
3,66,0,1
3,62,0,0
3,62,103,2
3,66,101,0
3,57,0,45
3,62,0,1
3,66,0,1
3,62,111,0
3,55,65,1
3,62,0,14
3,55,0,4
3,64,109,3
3,59,107,3
3,55,95,1
3,50,0,2
3,50,59,1
3,59,0,9
3,55,0,3
3,50,0,4
3,52,96,1
3,57,109,1
3,64,0,1
3,61,111,0
3,64,111,1
3,40,16,2
3,64,0,66
3,64,121,1
3,61,0,1
3,61,115,2
3,57,0,1
3,57,106,1
3,45,0,1
3,45,68,2
3,61,0,16
3,64,0,1
3,61,113,0
3,64,117,1
3,45,0,45
3,52,0,1
3,45,96,1
3,57,0,1
3,61,0,0
3,64,0,0
3,52,103,0
3,57,115,1
3,64,114,1
3,61,109,0
3,40,0,21
3,40,16,12
3,57,0,28
3,64,0,7
3,64,113,1
3,61,0,1
3,61,109,1
3,52,0,1
3,57,109,0
3,52,83,4
3,40,0,32
3,64,0,8
3,64,87,1
3,52,0,5
3,52,78,2
3,45,0,13
3,40,80,1
3,52,0,1
3,57,0,1
3,52,101,0
3,61,0,1
3,57,110,0
3,45,101,1
3,64,0,1
3,61,109,0
3,64,105,1
3,52,0,42
3,57,0,1
3,52,88,0
3,61,0,2
3,57,108,0
3,64,0,1
3,61,111,1
3,64,121,1
3,52,0,13
3,61,0,0
3,57,0,6
3,64,0,0
3,64,109,2
3,59,111,2
3,55,100,2
3,50,66,2
3,64,0,8
3,67,74,0
3,40,0,1
3,45,0,2
3,50,0,8
3,43,93,0
3,55,0,1
3,50,103,0
3,59,0,1
3,67,0,1
3,55,112,0
3,59,112,0
3,67,113,1
3,47,101,4
3,67,0,40
3,67,115,24
3,59,0,1
3,59,120,1
3,59,0,22
3,59,102,1
3,47,0,7
3,43,0,1
3,67,0,17
3,64,115,1
3,59,0,1
3,55,0,2
3,64,0,11
3,45,56,7
3,57,107,0
3,66,114,2
3,62,108,0
3,66,0,67
3,66,111,2
3,62,0,1
3,57,0,1
3,62,109,0
3,57,108,2
3,66,0,20
3,66,83,1
3,45,0,7
3,66,0,16
3,66,115,1
3,62,0,1
3,62,111,1
3,57,0,1
3,57,109,2
3,50,0,1
3,50,89,1
3,45,83,2
3,57,0,12
3,62,0,1
3,57,112,0
3,66,0,1
3,62,101,2
3,66,117,0
3,57,0,43
3,62,0,2
3,57,103,0
3,66,0,1
3,62,109,0
3,66,110,1
3,66,0,13
3,57,0,1
3,62,0,0
3,64,108,8
3,59,107,2
3,55,101,2
3,50,0,11
3,59,0,1
3,55,0,3
3,45,0,3
3,45,80,2
3,64,0,1
3,57,108,0
3,61,115,1
3,64,112,0
3,52,99,1
3,64,0,65
3,64,119,1
3,61,0,1
3,57,0,2
3,61,109,0
3,57,108,1
3,45,0,3
3,45,86,2
3,64,0,39
3,64,85,2
3,61,0,1
3,57,0,3
3,57,88,1
3,61,99,0
3,52,0,15
3,57,0,1
3,52,99,0
3,61,0,2
3,57,109,0
3,64,0,1
3,61,106,1
3,64,111,0
3,64,0,72
3,61,0,1
3,64,117,0
3,61,110,2
3,57,0,1
3,57,108,1
3,52,0,1
3,45,0,1
3,52,81,0
3,45,97,4
3,64,0,39
3,64,97,1
3,61,0,1
3,61,108,2
3,57,0,1
3,57,105,1
3,52,0,1
3,45,0,3
3,45,100,3
3,57,0,8
3,52,103,0
3,61,0,2
3,57,110,0
3,64,0,1
3,61,103,1
3,64,117,1
3,57,0,46
3,57,105,1
3,61,0,1
3,64,0,1
3,61,108,0
3,64,119,2
3,52,0,13
3,57,0,3
3,55,58,0
3,61,0,1
3,59,40,0
3,64,0,2
3,43,81,23
3,45,0,1
3,55,0,2
3,50,105,0
3,59,0,1
3,59,111,1
3,55,110,0
3,67,111,1
3,47,46,8
3,67,0,34
3,67,72,1
3,67,0,21
3,59,0,1
3,67,115,0
3,59,114,2
3,67,0,22
3,67,113,2
3,47,0,12
3,43,0,2
3,67,0,7
3,59,0,20
3,55,0,1
3,45,76,4
3,62,111,2
3,57,109,0
3,66,107,6
3,66,0,63
3,62,0,1
3,66,113,0
3,62,109,2
3,66,0,46
3,66,116,1
3,62,0,1
3,57,0,2
3,62,111,0
3,57,109,2
3,57,0,16
3,62,0,1
3,57,107,0
3,66,0,1
3,62,109,0
3,66,109,2
3,50,0,44
3,57,0,1
3,50,87,0
3,62,0,1
3,57,109,0
3,62,111,1
3,66,0,1
3,66,117,1
3,66,0,20
3,66,108,2
3,62,0,1
