track,note,velocity,time
1,52,107,572
1,45,99,0
1,57,111,2
1,61,111,2
1,64,111,2
1,64,117,2
1,61,110,0
1,57,110,4
1,45,100,0
1,52,100,0
1,57,111,4
1,61,107,2
1,64,108,2
1,64,117,0
1,61,113,0
1,57,104,2
1,64,80,2
1,52,80,0
1,57,107,2
1,61,107,0
1,64,115,2
1,55,69,0
1,59,72,0
1,64,115,2
1,64,90,8
1,55,109,14
1,50,78,2
1,59,111,0
1,67,114,4
1,47,81,4
1,67,112,2
1,59,106,2
1,55,111,2
1,50,74,6
1,67,110,2
1,50,91,2
1,45,74,2
1,57,107,2
1,62,108,2
1,66,112,2
1,66,114,0
1,62,111,4
1,45,60,2
1,62,97,2
1,57,112,0
1,62,109,0
1,66,109,2
1,57,109,0
1,62,111,0
1,66,109,2
1,64,109,2
1,59,105,0
1,57,106,0
1,61,113,0
1,52,43,0
1,64,121,0
1,64,121,2
1,61,113,2
1,57,109,2
1,52,94,2
1,45,92,2
1,64,114,2
1,57,109,4
1,52,101,0
1,61,110,2
1,64,120,0
1,64,118,0
1,61,113,0
1,57,109,2
1,64,72,2
1,64,95,0
1,61,99,2
1,57,89,4
1,45,101,0
1,52,97,0
1,57,109,2
1,61,113,0
1,64,122,6
1,57,103,0
1,61,109,0
1,64,113,2
1,55,56,0
1,59,93,2
1,47,82,46
1,50,81,0
1,55,110,0
1,67,114,0
1,59,112,4
1,67,115,2
1,59,117,0
1,55,110,0
1,50,99,2
1,47,101,0
1,67,113,4
1,57,113,12
1,62,108,4
1,66,114,2
1,66,113,0
1,62,111,2
1,57,105,4
1,45,81,4
1,50,84,2
1,62,101,2
1,45,85,0
1,50,81,0
1,57,112,0
1,62,111,2
1,66,115,0
1,57,105,0
1,62,109,0
1,66,119,4
1,64,65,2
1,55,60,0
1,52,83,8
1,57,113,0
1,61,115,2
1,64,119,0
1,64,121,2
1,61,118,0
1,57,108,4
1,52,92,2
1,64,113,2
1,52,96,0
1,57,111,0
1,64,106,2
1,61,107,2
1,64,117,0
1,61,108,0
1,57,107,0
1,52,80,4
1,64,113,2
1,61,113,2
1,57,109,2
1,52,100,0
1,45,98,6
1,61,107,2
1,64,113,2
1,57,103,0
1,64,119,2
1,59,107,6
1,55,99,4
1,50,72,2
1,67,63,4
1,55,111,2
1,50,92,2
1,43,82,0
1,47,104,0
1,67,113,4
1,59,100,0
1,67,113,2
1,59,111,2
1,50,91,4
1,47,97,0
1,67,106,2
1,50,103,4
1,57,109,2
1,62,110,4
1,66,116,0
1,66,114,0
1,62,110,4
1,57,107,2
1,50,79,4
1,57,88,2
1,45,97,0
1,50,101,0
1,57,111,0
1,62,105,2
1,66,117,2
1,62,111,0
1,66,117,2
1,64,88,0
1,55,66,4
1,59,44,2
1,61,112,2
1,64,122,0
1,52,94,0
1,57,105,6
1,64,109,2
1,61,111,4
1,57,102,0
1,52,81,4
1,57,88,2
1,64,99,2
1,52,93,0
1,57,109,0
1,61,109,0
1,64,113,2
1,64,117,0
1,61,111,0
1,57,109,2
1,45,84,4
1,64,86,2
1,61,105,2
1,57,103,2
1,52,85,4
1,52,93,0
1,57,112,0
1,61,108,0
1,64,120,2
1,52,90,0
1,57,111,0
1,64,114,4
1,55,87,0
1,64,97,2
1,59,104,4
1,50,70,6
1,50,99,0
1,55,114,2
1,59,121,0
1,67,115,4
1,43,81,2
1,47,95,2
1,67,115,2
1,59,110,0
1,55,112,2
1,47,93,6
1,67,112,2
1,45,103,16
1,57,111,4
1,62,114,2
1,66,101,8
1,66,117,0
1,62,115,2
1,57,109,2
1,66,113,4
1,57,108,2
1,62,112,0
1,57,111,0
1,50,109,0
1,66,112,4
1,62,101,2
1,57,107,2
1,62,111,0
1,66,120,4
1,64,115,8
1,59,116,4
1,55,108,4
1,52,101,4
1,57,109,0
1,45,92,0
1,61,118,2
1,64,110,4
1,64,119,2
1,61,112,4
1,52,85,0
1,45,91,8
1,61,107,0
1,64,113,2
1,52,97,2
1,45,101,0
1,57,111,0
1,61,111,0
1,64,115,4
1,64,115,2
1,61,113,2
1,57,107,2
1,52,80,2
1,61,110,2
1,64,115,0
1,52,85,2
1,57,109,0
1,61,109,0
1,64,112,2
1,64,113,2
1,59,107,0
1,55,95,2
1,43,94,12
1,55,114,2
1,59,119,0
1,67,115,4
1,47,72,2
1,67,115,2
1,59,119,2
1,50,94,6
1,47,85,2
1,59,107,2
1,64,55,2
1,50,63,4
1,45,100,2
1,57,110,2
1,50,104,2
1,62,102,4
1,66,113,4
1,66,113,0
1,62,111,2
1,57,107,2
1,66,99,2
1,62,103,2
1,45,107,0
1,50,103,0
1,57,108,0
1,62,112,2
1,66,115,2
1,57,107,4
1,62,109,2
1,66,114,0
1,64,85,2
1,59,83,2
1,55,74,0
1,50,62,2
1,45,100,0
1,52,101,0
1,61,112,0
1,64,100,2
1,57,108,2
1,64,123,34
1,61,115,2
1,57,111,2
1,52,101,2
1,45,88,8
1,52,74,0
1,61,108,2
1,40,16,16
1,45,91,0
1,57,114,0
1,52,108,0
1,61,107,2
1,64,111,2
1,64,123,2
1,61,113,0
1,57,114,2
1,45,91,8
1,64,91,2
1,61,108,2
1,57,108,2
1,52,105,0
1,57,112,0
1,45,102,2
1,61,103,2
1,64,110,0
1,40,73,4
1,52,91,2
1,57,113,0
1,61,110,0
1,64,111,4
1,67,85,4
1,59,107,2
1,55,98,6
1,43,97,12
1,47,105,0
1,50,89,0
1,55,116,0
1,59,112,2
1,67,109,0
1,67,114,2
1,59,119,0
1,55,113,2
1,50,101,2
1,67,103,2
1,64,114,2
1,45,81,0
1,50,104,2
1,57,111,4
1,62,109,0
1,66,111,4
1,66,115,0
1,62,112,2
1,57,107,4
1,66,98,2
1,62,109,4
1,57,103,2
1,50,105,0
1,57,113,2
1,66,101,4
1,62,103,0
1,62,111,0
1,55,65,2
1,64,109,6
1,59,107,6
1,55,95,2
1,50,59,2
1,52,96,2
1,57,109,2
1,61,111,0
1,64,111,2
1,40,16,4
1,64,121,2
1,61,115,4
1,57,106,2
1,45,68,4
1,61,113,0
1,64,117,2
1,45,96,2
1,52,103,0
1,57,115,2
1,61,109,2
1,64,114,0
1,40,16,24
1,64,113,2
1,61,109,2
1,57,109,0
1,52,83,8
1,64,87,2
1,52,78,4
1,40,80,2
1,52,101,0
1,57,110,0
1,45,101,2
1,61,109,0
1,64,105,2
1,52,88,0
1,57,108,0
1,61,111,2
1,64,121,2
1,64,109,4
1,59,111,4
1,55,100,4
1,50,66,4
1,67,74,0
1,43,93,0
1,50,103,0
1,55,112,0
1,59,112,0
1,67,113,2
1,47,101,8
1,67,115,48
1,59,120,2
1,59,102,2
1,64,115,2
1,45,56,14
1,57,107,0
1,62,108,4
1,66,114,0
1,66,111,4
1,62,109,0
1,57,108,4
1,66,83,2
1,66,115,2
1,62,111,2
1,57,109,4
1,50,89,2
1,45,83,4
1,57,112,0
1,66,117,4
1,62,101,0
1,57,103,0
1,62,109,0
1,66,110,2
1,64,108,16
1,59,107,4
1,55,101,4
1,45,80,4
1,57,108,0
1,61,115,2
1,64,112,0
1,52,99,2
1,64,119,2
1,61,109,0
1,57,108,2
1,45,86,4
1,64,85,4
1,61,99,2
1,57,88,0
1,52,99,0
1,57,109,0
1,61,106,2
1,64,111,0
1,64,117,0
1,61,110,4
1,57,108,2
1,52,81,0
1,45,97,8
1,64,97,2
1,61,108,4
1,57,105,2
1,45,100,6
1,52,103,0
1,57,110,0
1,61,103,2
1,64,117,2
1,57,105,2
1,61,108,0
1,64,119,4
1,55,58,0
1,59,40,0
1,43,81,46
1,50,105,0
1,55,110,2
1,59,111,0
1,67,111,2
1,47,46,16
1,67,72,2
1,67,115,0
1,59,114,4
1,67,113,4
1,45,76,8
1,57,109,4
1,62,111,0
1,66,107,12
1,66,113,0
1,62,109,4
1,66,116,2
1,62,111,0
1,57,109,4
1,57,107,0
1,62,109,0
1,66,109,4
1,50,87,0
1,57,109,0
1,62,111,2
1,66,117,2
1,66,108,4
1,45,26,2
1,57,106,2
1,62,114,2
1,50,91,0
1,66,121,2
1,66,114,10
1,62,111,4
1,50,105,0
1,57,109,2
1,62,114,0
1,66,108,2
1,66,110,6
1,62,108,2
1,66,114,2
1,62,109,2
1,57,104,4
1,50,63,4
1,57,109,2
1,62,110,0
1,66,116,2
1,62,107,2
1,66,115,2
1,64,77,4
1,53,83,0
1,57,107,2
1,60,112,4
1,65,120,4
1,65,114,2
1,60,109,2
1,57,107,0
1,53,81,2
1,55,78,14
1,59,105,4
1,62,105,2
1,67,115,2
1,67,101,0
1,62,107,0
1,59,108,0
1,55,74,2
1,67,110,2
1,62,110,0
1,59,104,4
1,55,99,0
1,59,108,0
1,62,109,0
1,67,107,4
1,59,106,2
1,62,113,0
1,67,116,2
1,64,115,12
1,59,105,4
1,55,86,4
1,61,103,14
1,52,103,0
1,64,123,2
1,57,112,2
1,64,123,2
1,61,115,4
1,57,112,2
1,61,102,2
1,57,102,0
1,56,91,56
1,61,106,4
1,64,98,2
1,68,110,2
1,68,101,0
1,64,100,0
1,61,105,0
1,56,91,4
1,49,37,2
1,68,108,0
1,64,105,0
1,61,103,2
1,56,90,2
1,49,74,2
1,61,100,0
1,64,105,0
1,68,109,2
1,68,109,0
1,64,106,2
1,61,99,2
1,56,68,6
1,61,95,0
1,64,107,0
1,66,102,10
1,49,101,42
1,54,103,4
1,57,104,0
1,61,109,2
1,66,113,0
1,42,82,2
1,66,112,2
1,61,107,0
1,57,104,4
1,57,105,0
1,66,111,2
1,61,107,2
1,66,109,2
1,61,105,2
1,57,110,2
1,54,91,4
1,66,113,0
1,61,107,2
1,57,107,0
1,54,84,2
1,57,109,0
1,61,104,0
1,66,112,4
1,66,91,2
1,57,107,0
1,61,108,2
1,66,109,2
1,66,108,2
1,57,91,2
1,61,101,4
1,54,75,32
1,57,104,0
1,62,106,0
1,66,107,4
1,66,111,0
1,62,108,2
1,57,107,2
1,54,81,2
1,66,109,2
1,62,105,2
1,57,103,4
1,47,53,6
1,57,106,0
1,62,104,2
1,66,109,0
1,66,108,0
1,62,106,0
1,57,108,4
1,47,59,6
1,66,111,2
1,62,108,2
1,57,108,2
1,57,105,2
1,62,107,0
1,66,105,2
1,62,108,0
1,66,116,4
1,55,35,0
1,64,111,10
1,59,110,4
1,55,108,4
1,50,81,4
1,45,74,4
1,50,99,0
1,40,50,0
1,57,109,0
1,62,109,0
1,64,108,4
1,64,109,0
1,62,115,2
1,57,107,2
1,50,87,2
1,40,86,4
1,62,108,2
1,64,118,0
1,62,94,2
1,40,98,0
1,57,107,0
1,50,98,2
1,62,117,0
1,64,109,2
1,64,115,2
1,62,111,0
1,57,106,4
1,40,73,10
1,64,111,2
1,62,107,2
1,50,90,2
1,57,107,0
1,40,70,10
1,50,96,0
1,62,110,2
1,64,112,0
1,64,108,4
1,50,68,2
1,50,81,2
1,57,105,2
1,62,107,0
1,64,118,2
1,64,114,2
1,62,107,4
1,45,111,8
1,52,105,0
1,40,16,2
1,57,110,0
1,61,117,2
1,64,92,4
1,40,106,396
1,52,107,2
1,47,113,2
1,56,113,0
1,59,115,4
1,64,76,2
1,50,108,10
1,57,113,2
1,62,110,4
1,45,43,394
1,50,105,6
1,57,113,2
1,62,105,4
1,66,114,0
1,45,94,0
1,57,115,2
1,64,21,4
1,61,117,0
1,52,91,4
1,47,111,452
1,52,105,2
1,56,113,2
1,59,113,2
1,64,103,2
1,40,86,4
1,50,109,6
1,57,108,2
1,62,113,0
1,66,59,4
1,45,87,390
1,57,111,16
1,50,112,2
1,62,117,2
1,66,109,2
1,52,101,2
1,64,117,0
1,57,109,4
1,61,109,0
1,40,80,416
1,47,112,8
1,59,117,2
1,52,105,4
1,64,101,0
1,56,110,4
1,50,107,14
1,62,100,2
1,57,108,4
1,66,111,8
1,45,109,398
1,50,105,4
1,57,109,2
1,62,108,4
1,66,111,0
1,57,110,8
1,45,116,0
1,40,30,2
1,61,109,0
1,52,104,2
1,64,16,4
1,64,106,390
1,52,103,2
1,56,109,4
1,59,109,2
1,57,113,14
1,62,115,4
1,66,117,0
1,57,105,2
1,66,118,2
1,62,110,0
1,66,114,4
1,62,105,2
1,52,94,2
1,56,113,2
1,64,109,0
1,61,113,0
1,56,107,2
1,61,111,4
1,64,119,2
1,64,115,0
1,54,80,6
1,59,109,2
1,62,109,2
1,66,113,2
1,59,101,2
1,62,111,2
1,66,113,0
1,62,114,2
1,66,114,0
1,52,99,6
1,59,106,2
1,64,110,2
1,56,109,0
1,59,116,4
1,56,94,2
1,64,117,0
1,59,114,4
1,52,78,2
1,64,116,0
1,52,107,4
1,45,99,0
1,57,111,4
1,61,111,2
1,64,111,2
1,64,117,2
1,61,110,0
1,57,110,4
1,45,100,0
1,52,100,0
1,57,111,4
1,61,107,2
1,64,108,2
1,64,117,0
1,61,113,0
1,57,104,2
1,64,80,2
1,52,80,0
1,57,107,2
1,61,107,0
1,64,115,2
1,55,69,0
1,59,72,0
1,64,115,2
1,64,90,8
1,55,109,14
1,50,78,2
1,59,111,0
1,67,114,4
1,47,81,4
1,67,112,2
1,59,106,2
1,55,111,2
1,50,74,6
1,67,110,2
1,50,91,2
1,45,74,2
1,57,107,2
1,62,108,2
1,66,112,2
1,66,114,0
1,62,111,4
1,45,60,2
1,62,97,2
1,57,112,0
1,62,109,0
1,66,109,2
1,57,109,0
1,62,111,0
1,66,109,2
1,64,109,2
1,59,105,0
1,57,106,0
1,61,113,0
1,52,43,0
1,64,121,0
1,64,121,2
1,61,113,2
1,57,109,2
1,52,94,2
1,45,92,2
1,64,114,2
1,57,109,4
1,52,101,0
1,61,110,2
1,64,120,0
1,64,118,0
1,61,113,0
1,57,109,2
1,64,72,2
1,64,95,0
1,61,99,2
1,57,89,4
1,45,101,0
1,52,97,0
1,57,109,2
1,61,113,0
1,64,122,6
1,57,103,0
1,61,109,0
1,64,113,2
1,55,56,0
1,59,93,2
1,47,82,46
1,50,81,0
1,55,110,0
1,67,114,0
1,59,112,4
1,67,115,2
1,59,117,0
1,55,110,0
1,50,99,2
1,47,101,0
1,67,113,4
1,57,113,12
1,62,108,4
1,66,114,2
1,66,113,0
1,62,111,2
1,57,105,4
1,45,81,4
1,50,84,2
1,62,101,2
1,45,85,0
1,50,81,0
1,57,112,0
1,62,111,2
1,66,115,0
1,57,105,0
1,62,109,0
1,66,119,4
1,64,65,2
1,55,60,0
1,52,83,8
1,57,113,0
1,61,115,2
1,64,119,0
1,64,121,2
1,61,118,0
1,57,108,4
1,52,92,2
1,64,113,2
1,52,96,0
1,57,111,0
1,64,106,2
1,61,107,2
1,64,117,0
1,61,108,0
1,57,107,0
1,52,80,4
1,64,113,2
1,61,113,2
1,57,109,2
1,52,100,0
1,45,98,6
1,61,107,2
1,64,113,2
1,57,103,0
1,64,119,2
1,59,107,6
1,55,99,4
1,50,72,2
1,67,63,4
1,55,111,2
1,50,92,2
1,43,82,0
1,47,104,0
1,67,113,4
1,59,100,0
1,67,113,2
1,59,111,2
1,50,91,4
1,47,97,0
1,67,106,2
1,50,103,4
1,57,109,2
1,62,110,4
1,66,116,0
1,66,114,0
1,62,110,4
1,57,107,2
1,50,79,4
1,57,88,2
1,45,97,0
1,50,101,0
1,57,111,0
1,62,105,2
1,66,117,2
1,62,111,0
1,66,117,2
1,64,88,0
1,55,66,4
1,59,44,2
1,61,112,2
1,64,122,0
1,52,94,0
1,57,105,6
1,64,109,2
1,61,111,4
1,57,102,0
1,52,81,4
1,57,88,2
1,64,99,2
1,52,93,0
1,57,109,0
1,61,109,0
1,64,113,2
1,64,117,0
1,61,111,0
1,57,109,2
1,45,84,4
1,64,86,2
1,61,105,2
1,57,103,2
1,52,85,4
1,52,93,0
1,57,112,0
1,61,108,0
1,64,120,2
1,52,90,0
1,57,111,0
1,64,114,4
1,55,87,0
1,64,97,2
1,59,104,4
1,50,70,6
1,50,99,0
1,55,114,2
