track,note,velocity,time
0,31,87,4
0,43,81,0
0,55,87,0
0,58,84,4
0,62,70,0
0,67,84,0
0,43,76,16
0,55,80,192
0,58,75,36
0,62,66,0
0,67,78,88
0,70,77,160
0,74,67,164
0,79,69,200
0,57,66,332
0,61,80,36
0,45,72,24
0,33,75,8
0,64,84,16
0,69,84,24
0,45,84,0
0,57,87,20
0,61,83,80
0,64,84,44
0,69,85,56
0,73,71,104
0,76,72,148
0,81,81,180
0,69,64,32
0,45,68,356
0,54,88,260
0,57,84,0
0,38,94,4
0,62,66,0
0,60,72,4
0,60,71,456
0,62,92,60
0,63,74,52
0,63,79,532
0,60,76,220
0,62,75,0
0,66,80,0
0,38,82,0
0,69,80,4
0,62,77,0
0,35,96,16
0,42,80,0
0,51,85,0
0,54,88,12
0,57,77,0
0,40,82,12
0,37,100,20
0,42,80,0
0,51,83,0
0,51,85,236
0,54,71,72
0,57,55,4
0,42,82,8
0,62,35,12
0,35,96,8
0,42,80,0
0,51,90,0
0,62,73,16
0,66,75,0
0,57,80,4
0,69,75,0
0,74,64,12
0,54,82,4
0,57,63,0
0,43,82,24
0,37,100,8
0,42,80,0
0,51,84,0
0,66,75,12
0,62,67,4
0,57,76,4
0,69,69,0
0,74,68,4
0,51,82,20
0,45,82,20
0,35,96,0
0,42,80,0
0,51,90,0
0,66,104,4
0,54,85,24
0,57,84,0
0,60,26,24
0,38,89,12
0,47,82,0
0,37,100,12
0,42,80,0
0,51,86,0
0,67,82,4
0,51,85,140
0,54,65,52
0,57,54,4
0,60,32,20
0,69,79,12
0,48,82,0
0,35,96,0
0,42,80,0
0,51,90,0
0,62,19,48
0,54,110,36
0,57,75,0
0,60,67,4
0,62,55,0
0,75,85,16
0,50,82,56
0,37,100,20
0,42,80,0
0,51,87,0
0,74,79,100
0,45,82,88
0,51,83,0
0,58,67,4
0,70,65,4
0,67,68,4
0,74,65,8
0,62,52,4
0,70,62,0
0,43,82,0
0,55,55,0
0,35,96,16
0,42,80,0
0,51,90,4
0,58,88,28
0,55,95,4
0,53,62,4
0,62,77,0
0,58,80,4
0,70,79,4
0,62,71,4
0,67,77,0
0,74,70,0
0,45,82,68
0,37,100,8
0,42,80,0
0,51,87,0
0,51,89,236
0,58,69,60
0,62,67,8
0,53,57,4
0,55,67,4
0,46,82,0
0,35,96,20
0,42,80,0
0,51,94,0
0,74,76,8
0,58,77,4
0,67,80,0
0,70,74,4
0,62,66,8
0,58,88,4
0,55,59,4
0,53,80,0
0,55,82,0
0,62,48,12
0,50,82,0
0,37,100,8
0,42,80,0
0,51,86,0
0,51,89,20
0,55,82,88
0,35,96,20
0,42,80,0
0,51,90,0
0,58,80,32
0,53,73,4
0,62,65,4
0,55,75,0
0,62,64,4
0,70,79,12
0,67,68,8
0,58,74,0
0,74,68,0
0,38,82,0
0,62,46,8
0,50,82,8
0,37,100,20
0,42,80,0
0,51,88,0
0,67,71,4
0,70,74,184
0,58,75,4
0,69,67,0
0,67,75,4
0,74,71,0
0,62,65,4
0,51,87,8
0,55,59,8
0,53,62,44
0,58,51,0
0,62,51,4
0,55,62,8
0,46,82,0
0,35,96,0
0,42,80,0
0,51,92,0
0,70,47,4
0,53,80,28
0,58,82,0
0,55,87,4
0,62,62,4
0,58,74,28
0,46,74,0
0,62,62,4
0,69,74,0
0,43,82,20
0,67,84,4
0,37,100,0
0,42,80,0
0,51,90,0
0,67,67,8
0,57,70,8
0,69,74,0
0,61,66,0
0,64,70,0
0,69,77,4
0,67,71,4
0,73,65,0
0,76,80,0
0,44,82,0
0,55,61,4
0,51,86,16
0,45,82,0
0,35,96,12
0,42,80,0
0,51,90,0
0,55,84,200
0,57,69,0
0,61,49,4
0,64,54,4
0,47,82,96
0,37,100,0
0,42,80,0
0,51,90,0
0,51,86,40
0,55,63,44
0,57,57,0
0,61,42,0
0,64,44,0
0,49,82,12
0,64,53,12
0,35,96,0
0,42,80,0
0,51,92,0
0,61,99,16
0,55,90,4
0,57,75,0
0,73,77,8
0,64,54,0
0,69,80,4
0,67,66,4
0,76,73,0
0,45,82,4
0,42,80,8
0,37,100,4
0,51,90,0
0,42,82,16
0,51,89,16
0,54,72,36
0,66,83,0
0,57,70,4
0,64,70,0
0,69,76,4
0,60,53,4
0,76,70,0
0,72,66,0
0,38,82,20
0,35,96,20
0,42,80,0
0,51,90,0
0,64,100,16
0,54,99,4
0,57,80,4
0,62,53,12
0,40,82,40
0,37,100,0
0,42,80,0
0,51,92,0
0,66,100,80
0,63,83,4
0,66,86,0
0,54,76,4
0,75,67,4
0,69,77,4
0,57,67,12
0,60,52,4
0,72,60,0
0,51,86,32
0,54,56,4
0,57,69,4
0,62,53,4
0,67,102,0
0,42,82,24
0,35,96,0
0,42,80,0
0,51,90,0
0,54,99,40
0,57,62,4
0,62,43,4
0,60,46,8
0,38,82,0
0,69,67,0
0,46,74,8
0,63,84,8
0,45,82,12
0,37,100,16
0,42,80,0
0,51,91,0
0,65,95,96
0,55,71,12
0,65,70,0
0,70,77,0
0,58,72,4
0,67,85,0
0,53,68,4
0,62,67,0
0,74,77,0
0,50,82,24
0,51,89,20
0,62,82,4
0,43,82,0
0,35,96,20
0,42,80,0
0,51,92,0
0,53,82,100
0,58,69,0
0,55,84,0
0,62,67,0
0,46,82,92
0,62,70,4
0,37,100,16
0,42,80,0
0,51,92,0
0,73,83,12
0,79,82,4
0,46,74,12
0,51,88,0
0,74,84,4
0,58,56,8
0,62,60,4
0,55,77,0
0,53,57,4
0,50,82,28
0,35,96,0
0,42,80,0
0,51,90,0
0,53,84,36
0,58,103,0
0,55,90,4
0,62,75,4
0,73,83,8
0,79,76,4
0,37,100,16
0,74,85,8
0,46,82,16
0,42,80,8
0,51,92,0
0,62,63,20
0,50,82,36
0,73,91,4
0,79,91,4
0,37,100,8
0,46,74,0
0,51,87,0
0,74,92,8
0,53,90,8
0,58,88,0
0,55,82,0
0,55,98,4
0,62,87,4
0,35,96,12
0,67,67,0
0,37,100,4
0,42,80,0
0,51,92,0
0,72,53,4
0,71,59,0
0,69,73,20
0,67,76,12
0,65,66,12
0,64,80,16
0,62,72,16
0,60,72,4
0,59,78,4
0,57,80,20
0,55,81,4
0,53,76,0
0,52,75,16
0,62,67,288
0,63,85,76
0,37,100,12
0,63,62,4
0,36,82,80
0,63,58,40
0,37,82,92
0,46,74,24
0,54,74,64
0,62,69,0
0,62,72,0
0,66,76,0
0,57,69,4
0,69,78,0
0,38,82,12
0,35,96,20
0,42,80,0
0,51,90,4
0,54,78,20
0,57,67,0
0,60,41,4
0,40,82,28
0,37,100,20
0,42,80,0
0,51,84,0
0,51,89,28
0,54,73,16
0,57,49,4
0,62,32,8
0,60,34,12
0,42,82,12
0,35,96,8
0,42,80,0
0,51,88,0
0,62,71,24
0,66,81,0
0,69,81,4
0,72,61,8
0,54,96,0
0,57,69,0
0,60,54,8
0,38,81,0
0,43,82,0
0,37,100,8
0,42,80,0
0,51,90,0
0,54,84,44
0,57,73,4
0,66,66,0
0,69,76,0
0,60,60,4
0,51,85,12
0,45,82,4
0,35,96,20
0,42,80,0
0,51,89,0
0,66,108,4
0,54,99,4
0,57,80,8
0,66,72,8
0,60,71,4
0,54,81,4
0,62,66,0
0,57,69,4
0,69,66,4
0,50,60,8
0,47,82,0
0,37,100,20
0,42,80,0
0,51,89,0
0,67,85,92
0,66,75,104
0,62,75,4
0,60,71,4
0,69,77,0
0,54,74,4
0,57,71,8
0,51,90,12
0,50,64,4
0,54,85,40
0,69,71,0
0,57,50,12
0,48,82,4
0,35,96,0
0,42,80,0
0,51,86,0
0,62,22,8
0,54,83,32
0,57,67,12
0,54,85,0
0,57,77,0
0,75,71,0
0,60,46,8
0,62,35,4
0,65,78,8
0,50,82,28
0,37,100,20
0,42,80,0
0,51,90,0
0,74,71,64
0,58,76,64
0,62,71,0
0,53,71,4
0,55,82,0
0,70,84,0
0,65,73,4
0,67,76,4
0,74,87,0
0,45,82,4
0,51,89,4
0,77,95,8
0,46,82,0
0,35,96,20
0,42,80,0
0,51,89,0
0,53,77,180
0,58,96,0
0,62,82,8
0,45,82,84
0,37,100,0
0,42,80,0
0,51,91,0
0,62,66,20
0,51,85,16
0,65,60,8
0,58,69,24
0,53,58,12
0,62,57,4
0,43,82,8
0,35,96,20
0,42,80,0
0,51,90,0
0,67,66,20
0,58,82,8
0,53,60,8
0,62,29,0
0,41,82,12
0,37,100,20
0,42,80,0
0,51,89,0
0,58,75,36
0,62,64,8
0,53,68,4
0,65,66,0
0,70,74,0
0,55,69,4
0,74,75,0
0,67,67,4
0,51,87,24
0,46,82,4
0,35,96,24
0,42,80,0
0,51,88,0
0,74,69,12
0,58,93,20
0,53,80,4
0,55,82,4
0,62,71,4
0,46,74,16
0,62,70,4
0,41,82,4
0,65,77,8
0,37,100,8
0,51,89,0
0,75,64,28
0,42,80,12
0,55,76,8
0,59,75,0
0,62,67,0
0,65,72,4
0,67,77,0
0,53,66,4
0,71,67,0
0,74,75,0
0,46,82,4
0,51,87,0
0,62,71,4
0,55,69,4
0,59,44,0
0,53,58,4
0,77,85,0
0,47,82,8
0,35,96,20
0,42,80,0
0,51,90,0
0,53,84,48
0,55,92,0
0,59,62,0
0,62,58,4
0,62,75,20
0,46,74,4
0,41,82,0
0,65,80,16
0,37,100,4
0,51,90,0
0,75,45,4
0,42,80,28
0,74,67,28
0,63,84,24
0,67,82,4
0,75,74,0
0,55,75,4
0,72,75,0
0,60,63,4
0,47,82,0
0,51,85,20
0,75,64,0
0,48,82,16
0,35,96,20
0,42,80,0
0,51,88,4
0,63,88,52
0,55,75,8
0,60,57,0
0,63,81,8
0,46,82,40
0,67,70,20
0,37,100,0
0,42,80,0
0,51,87,4
0,58,80,4
0,70,86,12
0,75,77,4
0,67,72,0
0,51,86,4
0,58,53,20
0,63,63,4
0,45,82,8
0,55,46,0
0,60,25,4
0,35,96,4
0,42,80,0
0,51,87,4
0,58,82,36
0,60,63,0
0,63,80,0
0,55,92,4
0,67,89,4
0,70,91,0
0,75,80,0
0,43,82,20
0,37,100,0
0,42,80,0
0,51,90,0
0,63,77,12
0,53,66,4
0,65,80,8
0,69,85,0
0,57,71,4
0,72,73,0
0,75,65,4
0,42,82,0
0,60,54,4
0,51,87,12
0,41,82,8
0,35,96,8
0,42,80,0
0,51,91,4
0,71,60,32
0,72,56,4
0,63,99,4
0,69,84,0
0,74,85,8
0,53,84,12
0,57,69,4
0,63,71,4
0,60,25,12
0,43,82,64
0,37,100,20
0,42,80,0
0,51,90,4
0,74,102,8
0,63,81,84
0,73,71,0
0,69,71,8
0,51,90,44
0,75,79,16
0,63,78,12
0,53,65,0
0,72,77,0
0,57,55,0
0,60,27,8
0,45,82,12
0,35,96,20
0,42,80,0
0,51,90,4
0,63,93,28
0,69,68,0
0,72,62,0
0,74,88,4
0,63,99,8
0,53,82,4
0,57,63,0
0,41,82,0
0,60,45,4
0,60,76,24
0,45,82,28
0,37,100,0
0,42,80,0
0,51,90,4
0,72,82,12
0,48,82,40
0,65,64,4
0,51,90,4
0,74,102,12
0,55,75,12
0,58,75,4
0,62,66,0
0,46,82,28
0,35,96,12
0,42,80,0
0,51,90,4
0,70,81,200
0,58,90,0
0,65,78,4
0,67,85,0
0,74,76,0
0,53,92,0
0,55,90,8
0,62,73,0
0,46,82,36
0,37,100,20
0,42,80,0
0,51,91,4
0,62,49,8
0,51,90,4
0,54,82,16
0,57,49,0
0,62,37,4
0,60,27,4
0,62,70,8
0,50,68,4
0,66,60,0
0,38,82,0
0,69,66,4
0,72,53,12
0,35,96,4
0,42,80,4
0,51,90,0
0,57,80,4
0,54,99,4
0,60,75,4
0,45,82,0
0,66,95,32
0,69,80,0
0,62,81,4
0,72,78,4
0,50,82,8
0,37,100,0
0,42,80,0
0,51,92,4
0,55,81,36
0,67,87,4
0,70,76,4
0,74,56,4
0,38,82,0
0,51,85,0
0,43,82,20
0,35,96,20
0,42,80,0
0,51,90,4
0,70,85,8
0,58,96,20
0,70,88,4
0,67,85,4
0,55,87,0
0,62,73,0
0,74,69,4
0,55,82,36
0,43,82,36
0,37,100,20
0,42,80,0
0,51,92,0
0,72,82,80
0,60,50,124
0,51,89,8
0,73,104,0
0,48,75,8
0,63,69,4
0,57,53,4
0,55,58,8
0,48,82,8
0,74,85,4
0,35,96,8
0,42,80,0
0,51,89,0
0,63,93,4
0,60,84,4
0,67,89,0
0,69,73,0
0,57,75,0
0,63,96,4
0,55,90,8
0,60,69,0
0,72,92,4
0,43,82,76
0,37,100,8
0,42,80,0
0,51,90,0
0,70,88,80
0,60,70,108
0,63,77,0
0,48,76,8
0,67,72,0
0,69,70,4
0,48,82,4
0,46,74,24
0,51,90,0
0,71,108,32
0,72,74,12
0,36,82,12
0,35,96,20
0,42,80,0
0,51,90,0
0,57,87,184
0,63,99,0
0,60,75,4
0,55,92,4
0,38,82,104
0,37,100,0
0,42,80,0
0,51,89,0
0,51,92,76
0,63,86,4
0,60,76,4
0,67,80,0
0,69,69,4
0,48,60,4
0,57,48,0
0,63,53,0
0,55,49,12
0,39,82,8
0,35,96,20
0,42,80,0
0,51,90,0
0,60,19,44
0,57,77,24
0,63,69,4
0,60,75,4
0,55,77,4
0,63,88,16
0,60,77,8
0,48,71,0
0,69,75,0
0,67,71,0
0,38,81,0
0,49,83,20
0,36,82,4
0,42,80,0
0,37,100,4
0,51,90,0
0,38,80,12
0,66,72,0
0,60,67,4
0,62,72,0
0,69,76,0
0,50,80,4
0,37,82,4
0,51,87,20
0,38,82,8
0,35,96,20
0,42,80,0
0,51,89,0
0,69,95,8
0,54,93,20
0,57,67,4
0,40,82,76
0,37,100,20
0,42,80,0
0,51,90,0
0,70,71,104
0,68,90,72
0,50,62,8
0,62,63,0
0,74,89,0
0,57,77,4
0,69,92,12
0,51,89,16
0,71,108,8
0,54,61,20
0,72,74,0
0,57,50,8
0,62,50,8
0,42,82,4
0,60,30,4
0,35,96,8
0,42,80,0
0,51,90,0
0,74,67,0
0,57,73,20
0,54,96,12
0,57,69,0
0,60,77,0
0,62,46,12
0,72,69,4
0,70,67,12
0,62,73,28
0,45,82,4
0,42,80,8
0,37,100,4
0,51,93,0
0,57,73,4
0,69,77,4
0,42,82,4
0,51,87,20
0,70,80,12
0,67,81,0
0,70,106,8
0,74,58,4
0,43,82,8
0,35,96,20
0,42,80,0
0,51,91,0
0,58,96,24
0,62,84,4
0,55,87,4
0,67,77,16
0,70,86,0
0,74,82,4
0,38,93,0
0,43,82,40
0,37,100,20
0,42,80,0
0,51,90,0
0,65,66,8
0,70,67,0
0,53,67,4
0,67,75,0
0,55,73,4
0,58,61,0
0,74,75,0
0,62,53,4
0,51,89,8
0,58,67,8
0,53,67,4
0,55,73,4
0,62,69,0
0,46,82,12
0,35,96,20
0,42,80,0
0,51,91,0
0,58,82,28
0,55,87,4
0,53,84,4
0,62,55,8
0,65,78,4
0,46,82,0
0,62,44,4
0,42,80,8
0,37,100,4
0,51,92,0
0,58,74,4
0,70,83,0
0,65,77,4
0,55,75,4
0,62,62,0
0,67,71,0
0,74,75,0
0,51,90,0
0,53,52,16
0,43,82,20
0,35,96,4
0,42,80,0
0,51,90,0
0,58,85,0
0,62,62,8
0,53,67,4
0,55,80,0
0,67,92,0
0,65,72,20
0,70,80,0
0,62,70,4
0,38,87,0
0,67,75,4
0,74,73,0
0,58,60,4
0,55,70,0
0,43,82,60
0,37,100,20
0,42,80,0
0,51,92,0
0,69,77,8
0,50,82,68
0,65,76,16
0,70,84,0
0,74,78,4
0,67,80,4
0,55,73,0
0,58,65,0
0,62,63,0
0,51,89,0
0,71,90,24
0,70,85,16
0,53,60,12
0,62,54,4
0,55,65,4
0,58,29,0
0,55,82,0
0,35,96,20
0,42,80,0
0,51,88,4
0,55,87,28
0,58,82,0
0,53,73,4
0,65,76,4
0,70,79,0
0,58,74,0
0,55,71,4
0,62,67,0
