track,note,velocity,time
0,47,93,3
0,47,87,3
0,62,107,3
0,59,76,2
0,54,77,1
0,74,90,1
0,62,79,1
0,54,92,187
0,59,97,184
0,62,0,175
0,74,0,4
0,62,99,14
0,74,83,4
0,62,0,72
0,74,0,4
0,62,94,13
0,74,81,4
0,47,0,47
0,62,0,29
0,74,0,4
0,54,0,1
0,62,0,3
0,47,0,8
0,45,91,0
0,61,98,0
0,59,0,3
0,45,86,1
0,73,84,0
0,54,0,5
0,59,0,0
0,61,81,0
0,57,76,2
0,52,76,1
0,61,0,176
0,73,0,4
0,52,86,4
0,62,101,2
0,74,85,4
0,62,0,159
0,74,0,4
0,57,87,21
0,62,100,0
0,74,84,4
0,64,93,22
0,62,0,2
0,76,85,2
0,74,0,2
0,64,0,158
0,76,0,4
0,62,92,5
0,74,78,4
0,45,0,148
0,52,0,7
0,57,0,15
0,52,0,1
0,61,0,4
0,50,75,8
0,45,0,1
0,57,0,0
0,43,98,0
0,43,87,3
0,55,76,2
0,59,80,2
0,50,82,180
0,57,89,193
0,62,0,179
0,74,0,4
0,55,71,9
0,62,101,1
0,74,86,4
0,57,0,8
0,62,0,75
0,74,0,4
0,62,99,5
0,74,83,4
0,43,0,72
0,59,0,11
0,62,0,0
0,43,0,2
0,74,0,2
0,50,0,1
0,45,96,0
0,45,85,1
0,50,0,1
0,55,0,1
0,61,102,1
0,73,89,4
0,61,79,0
0,52,78,7
0,57,76,3
0,55,0,21
0,61,0,148
0,73,0,4
0,52,84,6
0,62,94,0
0,74,80,4
0,62,0,176
0,74,0,4
0,57,97,2
0,64,105,6
0,76,91,4
0,64,0,144
0,76,0,4
0,61,71,34
0,64,98,1
0,76,84,4
0,64,0,20
0,66,103,2
0,76,0,2
0,78,87,2
0,52,0,140
0,61,0,6
0,57,0,1
0,45,0,4
0,57,0,0
0,52,0,5
0,61,0,1
0,47,87,2
0,45,0,1
0,47,92,1
0,59,76,1
0,54,79,3
0,62,79,7
0,54,92,187
0,59,97,184
0,66,0,186
0,78,0,4
0,62,98,5
0,74,82,4
0,62,0,63
0,74,0,4
0,62,99,24
0,74,82,4
0,47,0,43
0,54,0,34
0,47,0,4
0,45,86,6
0,74,0,1
0,45,90,0
0,62,0,3
0,59,0,3
0,57,77,1
0,54,0,1
0,61,103,0
0,59,0,1
0,52,82,0
0,62,0,1
0,73,87,2
0,61,80,3
0,61,0,163
0,73,0,4
0,69,108,13
0,52,87,0
0,81,93,4
0,69,0,155
0,81,0,4
0,57,87,27
0,66,110,3
0,78,96,4
0,66,0,160
0,78,0,4
0,57,101,25
0,69,85,4
0,57,0,31
0,69,0,0
0,59,94,3
0,71,88,0
0,45,0,117
0,52,0,7
0,52,0,17
0,45,0,2
0,57,0,1
0,61,0,1
0,57,0,6
0,43,98,0
0,43,89,0
0,55,79,2
0,50,78,2
0,59,80,1
0,50,83,182
0,57,92,187
0,59,88,196
0,71,0,100
0,59,0,60
0,59,0,599
0,55,0,32
0,50,0,26
0,43,0,33
0,43,0,7
0,50,0,44
0,57,0,33
0,59,0,7
0,50,93,18
0,66,111,4
0,50,59,0
0,57,65,0
0,50,69,0
0,54,64,3
0,66,0,155
0,57,91,21
0,57,57,4
0,66,110,3
0,57,0,177
0,57,0,3
0,57,68,7
0,62,98,1
0,57,34,2
0,62,64,2
0,66,0,155
0,50,0,14
0,55,79,16
0,55,45,3
0,57,0,52
0,57,0,4
0,55,0,35
0,57,81,0
0,55,0,3
0,57,46,1
0,54,0,87
0,57,0,5
0,57,0,2
0,55,86,1
0,57,0,2
0,50,0,2
0,55,53,0
0,55,64,0
0,67,111,2
0,43,67,0
0,59,64,5
0,62,0,87
0,43,76,0
0,62,0,3
0,43,43,1
0,50,0,32
0,67,0,51
0,50,75,9
0,66,111,4
0,50,40,0
0,55,0,178
0,55,0,3
0,66,0,2
0,55,90,5
0,64,110,4
0,55,57,0
0,43,0,95
0,55,0,73
0,55,0,3
0,64,0,8
0,55,83,11
0,69,111,2
0,55,48,1
0,55,0,95
0,57,81,1
0,55,0,3
0,57,46,0
0,43,0,55
0,50,0,9
0,50,0,3
0,59,0,5
0,43,0,14
0,55,0,1
0,57,65,1
0,50,92,0
0,50,67,0
0,50,59,4
0,54,64,3
0,57,0,161
0,57,0,4
0,57,91,17
0,57,57,4
0,57,0,180
0,57,74,10
0,62,98,5
0,62,64,4
0,57,0,152
0,55,79,29
0,55,44,3
0,69,0,20
0,57,0,32
0,55,0,39
0,57,81,0
0,55,0,3
0,57,47,1
0,50,0,33
0,50,0,3
0,57,0,43
0,55,69,12
0,50,0,2
0,54,0,0
0,57,0,1
0,55,78,1
0,59,66,0
0,57,0,2
0,55,45,2
0,71,110,2
0,43,64,0
0,50,74,83
0,50,40,4
0,62,0,60
0,62,0,3
0,43,77,17
0,71,0,3
0,43,42,1
0,69,110,12
0,55,0,57
0,50,0,74
0,55,0,7
0,43,0,5
0,55,67,12
0,55,31,3
0,59,82,17
0,50,0,1
0,69,0,3
0,59,49,0
0,67,111,13
0,62,84,0
0,62,50,4
0,43,0,160
0,67,0,15
0,43,81,11
0,66,111,2
0,43,47,1
0,43,0,87
0,45,88,3
0,43,0,1
0,45,55,2
0,55,0,72
0,43,0,2
0,55,0,2
0,45,0,20
0,55,0,1
0,45,0,2
0,47,61,1
0,54,67,0
0,47,89,1
0,47,54,3
0,66,0,53
0,64,110,25
0,59,0,71
0,59,0,3
0,64,0,9
0,54,85,9
0,62,110,4
0,54,51,0
0,62,0,100
0,62,0,3
0,59,92,82
0,59,58,4
0,62,91,8
0,62,56,3
0,62,0,150
0,50,72,130
0,50,39,3
0,54,0,23
0,54,0,3
0,47,0,37
0,47,0,4
0,50,0,17
0,47,0,1
0,40,84,1
0,50,0,2
0,40,51,1
0,52,63,1
0,54,0,1
0,55,64,0
0,64,111,2
0,62,0,152
0,62,0,4
0,64,0,19
0,66,111,13
0,50,81,1
0,50,46,3
0,59,0,153
0,59,0,3
0,66,0,7
0,55,95,23
0,67,110,2
0,59,72,1
0,55,60,0
0,59,39,4
0,67,0,177
0,50,0,2
0,50,0,4
0,64,110,4
0,52,80,4
0,52,47,3
0,40,0,113
0,40,0,4
0,59,0,49
0,59,0,3
0,59,0,8
0,55,0,1
0,45,89,3
0,45,66,0
0,55,0,1
0,52,0,1
0,45,54,2
0,55,0,2
0,57,67,7
0,52,65,1
0,52,0,158
0,52,0,4
0,52,79,13
0,52,44,3
0,57,80,186
0,57,47,3
0,45,0,155
0,61,90,40
0,64,0,3
0,61,56,0
0,57,0,82
0,57,0,4
0,57,83,11
0,57,49,4
0,52,0,156
0,52,0,4
0,52,78,15
0,52,45,3
0,61,0,77
0,45,0,2
0,45,65,18
0,45,31,3
0,45,0,168
0,43,71,3
0,52,0,1
0,45,0,0
0,57,0,2
0,57,0,0
0,52,0,2
0,61,0,1
0,52,0,0
0,57,0,0
0,45,0,2
0,50,34,0
0,55,74,0
0,55,41,4
0,43,68,4
0,55,68,1
0,50,67,3
0,62,91,1
0,62,68,4
0,67,100,7
0,62,0,300
0,43,0,60
0,55,0,0
0,62,0,1
0,55,0,2
0,50,0,4
0,50,0,0
0,67,0,0
0,43,0,1
0,50,92,0
0,55,0,2
0,66,111,2
0,50,58,0
0,64,85,0
0,57,64,0
0,50,69,0
0,54,65,3
0,66,0,161
0,57,91,21
0,57,55,4
0,66,110,3
0,66,78,98
0,64,0,3
0,57,0,64
0,50,0,2
0,57,0,1
0,57,75,19
0,62,98,1
0,57,39,2
0,62,64,2
0,66,0,155
0,57,0,27
0,55,78,3
0,55,42,3
0,62,0,4
0,62,71,1
0,62,0,2
0,57,0,45
0,55,0,39
0,57,81,0
0,55,0,3
0,57,45,1
0,54,0,87
0,57,0,5
0,57,0,2
0,55,87,1
0,57,0,2
0,50,0,2
0,55,51,0
0,55,64,0
0,67,111,2
0,43,67,0
0,59,64,5
0,43,76,78
0,43,40,4
0,50,0,32
0,67,0,51
0,43,0,0
0,50,74,9
0,66,111,4
0,50,38,0
0,55,0,178
0,55,0,3
0,66,0,2
0,55,91,5
0,64,110,4
0,55,55,0
0,55,0,168
0,55,0,3
0,64,0,8
0,55,82,11
0,69,111,2
0,55,46,1
0,66,0,15
0,62,0,17
0,55,0,63
0,57,81,1
0,57,59,0
0,55,0,3
0,57,47,0
0,43,0,55
0,50,0,9
0,50,0,3
0,59,0,5
0,43,0,14
0,55,0,1
0,57,64,1
0,50,93,0
0,50,67,0
0,50,59,4
0,74,77,0
0,54,65,3
0,57,0,3
0,64,88,3
0,57,0,155
0,57,0,4
0,57,90,17
0,57,54,4
0,74,0,98
0,73,74,1
0,66,83,3
0,64,0,1
0,57,0,45
0,50,0,2
0,57,0,1
0,57,75,3
0,62,98,1
0,57,39,2
0,62,64,2
0,55,78,103
0,55,42,3
0,73,0,3
0,62,66,0
0,69,69,1
0,69,0,16
0,57,0,32
0,57,0,4
0,55,0,35
0,57,81,0
0,55,0,3
0,57,45,1
0,57,0,54
0,50,0,6
0,55,68,6
0,50,0,2
0,54,0,0
0,57,0,1
0,55,79,1
0,59,66,0
0,57,0,2
0,55,43,2
0,71,110,2
0,43,65,0
0,50,64,92
0,50,30,4
0,62,0,6
0,62,0,3
0,71,0,5
0,43,76,9
0,55,0,1
0,43,40,3
0,71,110,12
0,71,0,31
0,69,111,13
0,43,0,5
0,55,0,7
0,55,67,17
0,55,31,3
0,59,83,17
0,50,0,1
0,50,0,1
0,59,46,0
0,62,84,13
0,62,51,1
0,69,0,3
0,67,111,13
0,43,0,2
0,67,0,15
0,43,80,11
0,66,110,2
0,43,45,1
0,66,0,30
0,62,0,8
0,43,0,2
0,45,89,3
0,43,0,1
0,45,52,2
0,57,58,2
0,55,0,22
0,43,0,2
0,55,0,2
0,45,0,5
0,55,0,1
0,64,89,1
0,45,0,1
0,47,61,1
0,54,67,0
0,47,88,1
0,57,0,1
0,47,52,1
0,66,0,1
0,64,110,9
0,59,0,7
0,59,0,3
0,64,0,9
0,54,85,9
0,62,111,4
0,54,49,0
0,64,0,43
0,66,83,2
0,62,0,2
0,62,0,3
0,54,0,24
0,54,0,1
0,54,63,2
0,54,27,0
0,59,82,1
0,47,0,1
0,59,46,3
0,62,91,4
0,62,55,0
0,62,0,14
0,54,0,22
0,59,0,1
0,59,0,3
0,54,0,0
0,59,70,5
0,62,74,1
0,59,35,1
0,54,54,0
0,54,19,4
0,62,111,48
0,47,0,18
0,59,0,16
0,62,0,1
0,47,0,5
0,62,0,4
0,59,0,1
0,52,62,0
0,54,0,1
0,59,0,2
0,62,0,0
0,64,110,0
0,54,0,1
0,45,85,0
0,45,62,0
0,57,65,1
0,54,0,2
0,45,48,0
0,64,0,35
0,62,110,13
0,52,59,1
0,52,23,3
0,52,36,2
0,62,0,23
0,45,0,1
0,66,0,22
0,57,90,0
0,64,111,2
0,52,0,1
0,57,55,1
0,57,51,0
0,52,0,20
0,52,0,4
0,64,0,14
0,52,50,9
0,62,110,1
0,52,47,1
0,52,16,1
0,62,0,37
0,57,0,32
0,45,0,0
0,57,0,3
0,52,0,1
0,52,0,2
0,57,0,0
0,50,81,3
0,52,0,1
0,50,46,2
0,52,0,1
0,69,0,1
0,45,0,2
0,54,62,4
0,50,70,2
0,50,65,7
0,57,73,92
0,57,38,3
0,50,0,169
0,62,90,19
0,62,55,3
0,64,96,10
0,64,63,4
0,62,0,14
0,62,0,24
0,62,0,69
0,62,89,72
0,62,54,3
0,50,0,104
0,64,0,45
0,64,0,3
0,57,0,4
0,50,0,9
0,62,0,14
0,50,78,7
0,57,56,1
0,50,78,1
0,50,69,1
0,59,51,0
0,59,0,11
0,51,47,9
0,51,0,11
0,62,0,20
0,59,52,28
0,59,0,12
0,51,50,19
0,51,0,12
0,57,0,33
0,59,55,0
0,59,0,11
0,57,81,25
0,51,55,1
0,62,59,5
0,57,0,5
0,51,0,1
0,59,61,22
0,59,0,11
0,51,59,33
0,57,0,3
0,62,0,4
0,66,65,4
0,51,0,1
0,66,91,2
0,59,62,12
0,59,0,12
0,51,62,36
0,66,0,1
0,51,0,11
0,66,0,13
0,59,65,2
0,54,0,3
0,50,0,2
0,45,53,0
0,50,0,1
0,59,0,0
0,67,74,0
0,49,79,0
0,50,0,2
0,49,80,0
0,50,0,1
0,67,101,2
0,49,66,1
0,52,53,1
0,51,65,27
0,51,0,12
0,59,68,12
0,59,0,12
0,51,64,33
0,51,0,11
0,59,74,16
0,59,0,12
0,51,66,30
0,51,0,12
0,66,96,11
0,71,111,0
0,67,0,1
0,66,62,1
0,59,77,7
0,59,0,11
0,51,71,29
0,51,0,12
0,59,75,13
0,71,0,7
0,67,0,5
0,59,0,0
0,73,111,10
0,51,71,29
0,51,0,12
0,59,76,0
0,59,0,11
0,57,0,18
0,73,0,3
0,49,0,3
0,66,0,1
0,45,0,4
0,47,84,2
0,47,75,0
0,52,0,1
0,66,0,0
0,74,110,1
0,51,84,0
0,49,0,1
0,49,0,1
0,47,69,0
0,62,71,5
0,47,62,1
0,59,66,2
0,51,0,1
0,54,65,3
0,54,62,5
0,74,0,52
0,74,111,25
0,74,0,83
0,54,75,10
0,74,110,3
0,74,0,71
0,74,110,25
0,59,95,95
0,44,99,4
0,44,0,11
0,74,0,69
0,74,111,13
0,54,0,81
0,74,0,2
0,74,111,13
0,54,74,1
0,47,0,163
0,62,0,11
0,59,0,2
0,59,0,2
0,57,63,7
0,54,0,2
0,47,0,1
0,47,0,0
0,54,0,0
0,45,84,1
0,45,71,2
0,57,66,2
0,47,0,1
0,45,75,0
0,54,0,2
0,45,63,0
0,52,64,5
0,61,71,1
0,74,0,61
0,74,110,13
0,74,0,83
0,52,75,10
0,73,110,3
0,73,0,83
0,69,111,13
0,57,95,95
0,54,93,1
0,54,0,11
0,69,0,84
0,66,111,1
0,66,0,80
0,52,0,9
0,59,86,0
0,71,110,7
0,57,0,172
0,45,0,2
0,57,0,5
0,59,0,1
0,59,70,0
0,61,0,3
0,57,0,2
0,52,0,0
0,45,0,3
0,45,0,1
0,43,77,0
0,43,84,1
0,45,0,4
0,43,72,1
0,55,67,3
0,43,59,1
0,62,64,4
0,50,64,3
0,71,0,53
0,71,110,25
0,50,81,93
0,71,0,183
0,57,94,11
0,44,100,1
0,44,0,11
0,62,111,85
0,62,0,83
0,50,0,6
0,55,87,4
0,71,110,3
0,71,0,71
0,71,111,25
0,59,0,75
0,62,0,8
0,57,0,0
0,71,0,0
0,55,0,5
0,43,0,1
0,43,0,1
0,42,78,2
0,43,0,1
0,55,0,0
0,42,60,1
0,43,0,1
0,42,73,0
0,71,111,1
0,42,81,2
0,62,70,3
0,54,67,5
0,57,73,1
0,71,0,156
0,50,80,22
0,69,110,3
0,69,0,83
0,66,111,13
0,62,0,93
0,54,90,4
0,57,81,0
0,57,69,2
0,54,0,9
0,66,0,71
0,62,110,13
0,62,0,83
0,50,0,6
0,62,88,4
0,67,110,3
0,54,0,177
0,57,0,2
0,42,0,3
0,57,0,1
0,62,0,2
0,42,0,0
0,57,0,4
0,40,80,1
0,55,71,2
0,40,74,1
0,42,0,1
0,42,0,1
0,40,74,2
0,40,63,0
0,55,72,1
0,59,72,0
0,67,0,148
0,47,81,34
0,67,111,3
0,52,89,189
0,44,99,3
0,44,0,11
0,67,0,12
0,47,0,162
0,55,96,4
0,67,111,99
0,67,0,71
0,67,110,25
0,52,0,149
0,67,0,20
0,52,90,20
0,66,110,3
0,66,0,83
0,66,111,13
0,52,0,88
0,50,95,7
0,54,91,2
0,54,0,11
0,66,0,69
0,67,111,15
0,67,0,83
0,47,69,10
0,50,0,1
0,64,110,2
0,40,0,149
0,55,0,4
0,59,0,2
0,55,0,8
0,55,0,8
0,47,0,4
0,50,0,2
0,40,0,1
0,40,0,7
0,40,0,3
0,61,74,0
0,45,92,2
0,33,84,2
0,52,69,0
0,45,64,2
0,57,72,1
0,45,79,4
0,61,71,3
0,61,0,163
