track,note,velocity,time
1,43,107,1440
1,43,0,43
1,43,98,17
1,43,0,47
1,43,105,13
1,43,0,41
1,43,105,19
1,43,0,42
1,43,95,18
1,43,0,35
1,43,100,25
1,43,0,34
1,43,105,26
1,43,0,41
1,43,85,19
1,43,0,31
1,31,61,0
1,31,0,19
1,43,107,10
1,43,0,44
1,43,98,16
1,43,0,39
1,43,105,21
1,43,0,40
1,43,98,20
1,43,0,34
1,43,107,26
1,43,0,32
1,43,95,28
1,43,0,17
1,43,110,43
1,43,0,44
1,42,105,16
1,42,0,19
1,43,105,41
1,43,0,30
1,43,102,30
1,43,0,30
1,43,107,30
1,43,0,32
1,43,116,28
1,31,72,30
1,43,0,8
1,31,0,8
1,43,82,14
1,43,0,28
1,43,105,32
1,43,0,28
1,43,105,32
1,43,0,39
1,43,105,21
1,43,0,45
1,43,98,15
1,43,0,28
1,43,89,32
1,43,0,28
1,43,110,32
1,43,0,35
1,43,95,25
1,43,0,44
1,43,105,16
1,43,0,31
1,43,105,29
1,43,0,34
1,43,107,26
1,43,0,35
1,43,113,25
1,43,0,39
1,36,105,21
1,36,0,28
1,36,100,32
1,36,0,22
1,36,110,38
1,36,0,23
1,36,116,37
1,36,0,51
1,36,95,9
1,36,0,27
1,36,95,33
1,36,0,23
1,36,122,37
1,36,0,33
1,36,110,27
1,36,0,14
1,24,85,16
1,24,0,17
1,36,102,13
1,36,0,35
1,36,119,25
1,36,0,43
1,36,113,17
1,36,0,36
1,36,113,24
1,36,0,48
1,36,91,12
1,36,0,34
1,36,105,26
1,36,0,44
1,36,105,16
1,36,0,34
1,36,113,26
1,36,0,41
1,43,102,19
1,43,0,31
1,43,98,29
1,43,0,38
1,43,119,22
1,43,0,34
1,43,105,26
1,31,93,30
1,43,0,8
1,31,0,8
1,43,85,14
1,43,0,31
1,43,107,29
1,43,0,21
1,43,113,39
1,43,0,50
1,42,98,10
1,42,0,19
1,43,116,41
1,43,0,28
1,43,116,32
1,43,0,34
1,43,107,26
1,43,0,32
1,43,116,28
1,43,0,36
1,43,107,24
1,43,0,33
1,43,105,27
1,31,72,30
1,43,0,1
1,31,0,24
1,43,127,5
1,43,0,28
1,31,76,2
1,31,0,24
1,43,110,6
1,43,0,26
1,43,102,4
1,43,0,18
1,43,105,12
1,43,0,30
1,43,102,30
1,43,0,30
1,43,107,30
1,43,0,32
1,43,116,28
1,31,72,30
1,43,0,8
1,31,0,8
1,43,82,14
1,43,0,28
1,43,105,32
1,43,0,28
1,43,105,32
1,43,0,39
1,43,105,21
1,43,0,45
1,43,98,15
1,43,0,28
1,43,89,32
1,43,0,28
1,43,110,32
1,43,0,35
1,43,95,25
1,43,0,44
1,43,105,16
1,43,0,31
1,43,105,29
1,43,0,34
1,43,107,26
1,43,0,35
1,43,113,25
1,43,0,39
1,43,107,21
1,43,0,24
1,43,105,36
1,43,0,22
1,43,105,38
1,43,0,30
1,43,116,30
1,43,0,48
1,43,105,12
1,43,0,23
1,43,100,37
1,43,0,30
1,43,119,30
1,43,0,35
1,43,102,25
1,43,0,27
1,31,91,3
1,31,0,18
1,43,107,12
1,43,0,31
1,43,100,29
1,43,0,26
1,43,116,34
1,43,0,34
1,43,98,26
1,31,85,30
1,43,0,6
1,31,0,13
1,43,110,11
1,43,0,29
1,43,105,31
1,43,0,27
1,43,113,33
1,43,0,27
1,35,105,33
1,35,0,18
1,36,105,42
1,36,0,28
1,36,100,32
1,36,0,22
1,36,110,38
1,36,0,23
1,36,116,37
1,36,0,51
1,36,95,9
1,36,0,27
1,36,95,33
1,36,0,23
1,36,122,37
1,36,0,33
1,36,110,27
1,36,0,14
1,24,85,16
1,24,0,17
1,36,102,13
1,36,0,35
1,36,119,25
1,36,0,43
1,36,113,17
1,36,0,36
1,36,113,24
1,36,0,48
1,36,91,12
1,36,0,34
1,36,105,26
1,36,0,44
1,36,105,16
1,36,0,34
1,36,113,26
1,36,0,41
1,43,105,19
1,43,0,44
1,43,89,16
1,43,0,33
1,43,105,27
1,43,0,40
1,43,98,20
1,43,0,44
1,43,102,16
1,43,0,36
1,43,102,24
1,43,0,37
1,43,110,23
1,43,0,43
1,43,98,17
1,43,0,52
1,43,105,8
1,43,0,38
1,43,110,22
1,43,0,43
1,43,107,17
1,43,0,42
1,43,110,18
1,43,0,51
1,43,100,9
1,43,0,34
1,43,107,26
1,43,0,47
1,43,102,13
1,43,0,38
1,43,119,22
1,43,0,39
1,38,102,21
1,38,0,31
1,38,98,29
1,38,0,38
1,38,119,22
1,38,0,34
1,38,105,26
1,26,93,30
1,38,0,8
1,26,0,8
1,38,85,14
1,38,0,31
1,38,107,29
1,38,0,21
1,38,113,39
1,38,0,50
1,37,98,10
1,37,0,19
1,38,105,41
1,38,0,28
1,38,100,32
1,38,0,22
1,38,110,38
1,38,0,23
1,38,116,37
1,38,0,51
1,38,95,9
1,38,0,27
1,38,95,33
1,38,0,23
1,38,122,37
1,38,0,33
1,38,110,27
1,38,0,14
1,26,85,16
1,26,0,17
1,43,102,13
1,43,0,35
1,43,119,25
1,43,0,43
1,43,113,17
1,43,0,36
1,43,113,24
1,43,0,48
1,43,91,12
1,43,0,34
1,43,105,26
1,43,0,44
1,43,105,16
1,43,0,34
1,43,113,26
1,43,0,41
1,43,105,19
1,43,0,28
1,43,100,32
1,43,0,22
1,43,110,38
1,43,0,23
1,43,116,37
1,43,0,51
1,43,95,9
1,43,0,27
1,43,95,33
1,43,0,23
1,43,122,37
1,43,0,33
1,43,110,27
1,43,0,14
1,31,85,16
1,31,0,17
1,43,107,13
1,43,0,25
1,43,107,35
1,43,0,34
1,43,119,26
1,43,0,31
1,43,107,29
1,43,0,39
1,43,107,21
1,43,0,25
1,43,100,35
1,43,0,24
1,43,105,36
1,43,0,60
1,42,89,0
1,42,0,23
1,43,102,37
1,43,0,35
1,43,119,25
1,43,0,43
1,43,113,17
1,43,0,36
1,43,113,24
1,43,0,48
1,43,91,12
1,43,0,34
1,43,105,26
1,43,0,44
1,43,105,16
1,43,0,34
1,43,113,26
1,43,0,41
1,43,105,19
1,43,0,28
1,43,100,32
1,43,0,22
1,43,110,38
1,43,0,23
1,43,116,37
1,43,0,51
1,43,95,9
1,43,0,27
1,43,95,33
1,43,0,23
1,43,122,37
1,43,0,33
1,43,110,27
1,43,0,14
1,31,85,16
1,31,0,17
1,43,117,13
1,43,0,43
1,43,107,437
1,43,0,43
1,43,98,17
1,43,0,47
1,43,105,13
1,43,0,41
1,43,105,19
1,43,0,42
1,43,95,18
1,43,0,35
1,43,100,25
1,43,0,34
1,43,105,26
1,43,0,41
1,43,85,19
1,43,0,31
1,31,61,0
1,31,0,19
1,43,107,10
1,43,0,44
1,43,98,16
1,43,0,39
1,43,105,21
1,43,0,40
1,43,98,20
1,43,0,34
1,43,107,26
1,43,0,32
1,43,95,28
1,43,0,17
1,43,110,43
1,43,0,44
1,42,105,16
1,42,0,19
1,43,105,41
1,43,0,30
1,43,102,30
1,43,0,30
1,43,107,30
1,43,0,32
1,43,116,28
1,31,72,30
1,43,0,8
1,31,0,8
1,43,82,14
1,43,0,28
1,43,105,32
1,43,0,28
1,43,105,32
1,43,0,39
1,43,105,21
1,43,0,45
1,43,98,15
1,43,0,28
1,43,89,32
1,43,0,28
1,43,110,32
1,43,0,35
1,43,95,25
1,43,0,44
1,43,105,16
1,43,0,31
1,43,105,29
1,43,0,34
1,43,107,26
1,43,0,35
1,43,113,25
1,43,0,39
1,36,102,21
1,36,0,31
1,36,98,29
1,36,0,38
1,36,119,22
1,36,0,34
1,36,105,26
1,24,93,30
1,36,0,8
1,24,0,8
1,36,85,14
1,36,0,31
1,36,107,29
1,36,0,21
1,36,113,39
1,36,0,50
1,35,98,10
1,35,0,19
1,36,116,41
1,36,0,28
1,36,116,32
1,36,0,34
1,36,107,26
1,36,0,32
1,36,116,28
1,36,0,36
1,36,107,24
1,36,0,33
1,36,105,27
1,24,72,30
1,36,0,1
1,24,0,24
1,36,127,5
1,36,0,28
1,24,76,2
1,24,0,24
1,36,110,6
1,36,0,26
1,36,102,4
1,36,0,18
1,43,110,12
1,43,0,38
1,43,102,22
1,43,0,51
1,43,102,9
1,43,0,46
1,43,100,14
1,31,91,30
1,43,0,12
1,31,0,6
1,43,89,12
1,43,0,36
1,43,105,24
1,43,0,28
1,43,116,32
1,43,0,43
1,43,107,17
1,43,0,50
1,43,100,10
1,43,0,27
1,43,105,33
1,43,0,29
1,43,116,31
1,43,0,36
1,43,105,24
1,31,82,30
1,43,0,9
1,31,0,6
1,43,89,15
1,43,0,37
1,43,102,23
1,43,0,26
1,31,53,4
1,31,0,17
1,43,110,13
1,43,0,38
1,43,107,22
1,43,0,27
1,38,102,33
1,38,0,31
1,38,98,29
1,38,0,38
1,38,119,22
1,38,0,34
1,38,105,26
1,26,93,30
1,38,0,8
1,26,0,8
1,38,85,14
1,38,0,31
1,38,107,29
1,38,0,21
1,38,113,39
1,38,0,50
1,37,98,10
1,37,0,19
1,38,105,41
1,38,0,44
1,38,89,16
1,38,0,33
1,38,105,27
1,38,0,40
1,38,98,20
1,38,0,44
1,38,102,16
1,38,0,36
1,38,102,24
1,38,0,37
1,38,110,23
1,38,0,43
1,38,98,17
1,38,0,52
1,43,105,8
1,43,0,44
1,43,89,16
1,43,0,33
1,43,105,27
1,43,0,40
1,43,98,20
1,43,0,44
1,43,102,16
1,43,0,36
1,43,102,24
1,43,0,37
1,43,110,23
1,43,0,43
1,43,98,17
1,43,0,52
1,43,116,8
1,43,0,28
1,43,116,32
1,43,0,34
1,43,107,26
1,43,0,32
1,43,116,28
1,43,0,36
1,43,107,24
1,43,0,33
1,43,105,27
1,31,72,30
1,43,0,1
1,31,0,24
1,43,127,5
1,43,0,28
1,31,76,2
1,31,0,24
1,43,110,6
1,43,0,26
1,43,102,4
1,43,0,18
1,43,105,12
1,43,0,44
1,43,89,16
1,43,0,33
1,43,105,27
1,43,0,40
1,43,98,20
1,43,0,44
1,43,102,16
1,43,0,36
1,43,102,24
1,43,0,37
1,43,110,23
1,43,0,43
1,43,98,17
1,43,0,52
1,43,117,8
1,43,0,43
1,36,116,437
1,36,0,28
1,36,116,32
1,36,0,34
1,36,107,26
1,36,0,32
1,36,116,28
1,36,0,36
1,36,107,24
1,36,0,33
1,36,105,27
1,24,72,30
1,36,0,1
1,24,0,24
1,36,127,5
1,36,0,28
1,24,76,2
1,24,0,24
1,36,110,6
1,36,0,26
1,36,102,4
1,36,0,18
1,36,116,12
1,36,0,28
1,36,116,32
1,36,0,34
1,36,107,26
1,36,0,32
1,36,116,28
1,36,0,36
1,36,107,24
1,36,0,33
1,36,105,27
1,24,72,30
1,36,0,1
1,24,0,24
1,36,127,5
1,36,0,28
1,24,76,2
1,24,0,24
1,36,110,6
1,36,0,26
1,36,102,4
1,36,0,18
1,43,105,12
1,43,0,44
1,43,89,16
1,43,0,33
1,43,105,27
1,43,0,40
1,43,98,20
1,43,0,44
1,43,102,16
1,43,0,36
1,43,102,24
1,43,0,37
1,43,110,23
1,43,0,43
1,43,98,17
1,43,0,52
1,43,105,8
1,43,0,21
1,43,116,39
1,43,0,49
1,43,110,11
1,43,0,31
1,42,110,29
1,42,0,25
1,43,102,35
1,43,0,43
1,43,85,17
1,43,0,40
1,34,102,20
1,34,0,43
1,34,85,17
1,34,0,40
1,36,105,20
1,36,0,28
1,36,100,32
1,36,0,22
1,36,110,38
1,36,0,23
1,36,116,37
1,36,0,51
1,36,95,9
1,36,0,27
1,36,95,33
1,36,0,23
1,36,122,37
1,36,0,33
1,36,110,27
1,36,0,14
1,24,85,16
1,24,0,17
1,36,107,13
1,36,0,25
1,36,107,35
1,36,0,34
1,36,119,26
1,36,0,31
1,36,107,29
1,36,0,39
1,36,107,21
1,36,0,25
1,36,100,35
1,36,0,24
1,36,105,36
1,36,0,60
1,35,89,0
1,35,0,23
1,36,107,37
1,36,0,25
1,36,107,35
1,36,0,34
1,36,119,26
1,36,0,31
1,36,107,29
1,36,0,39
1,36,107,21
1,36,0,25
1,36,100,35
1,36,0,24
1,36,105,36
1,36,0,60
1,35,89,0
1,35,0,23
1,36,116,37
1,36,0,28
1,36,116,32
1,36,0,34
1,36,107,26
1,36,0,32
1,36,116,28
1,36,0,36
1,36,107,24
1,36,0,33
1,36,105,27
1,24,72,30
1,36,0,1
1,24,0,24
1,36,127,5
1,36,0,28
1,24,76,2
1,24,0,24
1,36,110,6
1,36,0,26
1,36,102,4
1,36,0,18
1,41,105,732
1,41,0,38
1,41,107,22
1,41,0,48
1,41,102,12
1,41,0,38
1,41,116,22
1,41,0,17
1,29,80,13
1,29,0,15
1,43,105,15
1,43,0,44
1,43,89,16
1,43,0,33
1,43,105,27
1,43,0,40
1,43,98,20
1,43,0,44
1,43,102,16
1,43,0,36
1,43,102,24
1,43,0,37
1,43,110,23
1,43,0,43
1,43,98,17
1,43,0,52
1,43,105,8
1,43,0,44
1,43,89,16
1,43,0,33
1,43,105,27
1,43,0,40
1,43,98,20
1,43,0,44
1,43,102,16
1,43,0,36
1,43,102,24
1,43,0,37
1,43,110,23
1,43,0,43
1,43,98,17
1,43,0,52
1,43,105,8
1,43,0,38
1,43,110,22
1,43,0,43
1,43,107,17
1,43,0,42
1,43,110,18
1,43,0,51
1,43,100,9
1,43,0,34
1,43,107,26
1,43,0,47
1,43,102,13
1,43,0,38
1,43,119,22
1,43,0,39
1,43,116,21
1,43,0,28
1,43,116,32
1,43,0,34
1,43,107,26
1,43,0,32
1,43,116,28
1,43,0,36
1,43,107,24
1,43,0,33
1,43,105,27
1,31,72,30
1,43,0,1
1,31,0,24
1,43,127,5
1,43,0,28
1,31,76,2
1,31,0,24
1,43,110,6
1,43,0,26
1,43,102,4
1,43,0,18
1,36,105,12
1,36,0,44
1,36,89,16
1,36,0,33
1,36,105,27
1,36,0,40
1,36,98,20
1,36,0,44
1,36,102,16
1,36,0,36
1,36,102,24
1,36,0,37
1,36,110,23
1,36,0,43
1,36,98,17
1,36,0,52
1,36,105,8
1,36,0,28
1,36,100,32
1,36,0,22
1,36,110,38
1,36,0,23
1,36,116,37
1,36,0,51
1,36,95,9
1,36,0,27
1,36,95,33
1,36,0,23
1,36,122,37
1,36,0,33
1,36,110,27
1,36,0,14
1,24,85,16
1,24,0,17
1,43,107,13
1,43,0,25
1,43,107,35
1,43,0,34
1,43,119,26
1,43,0,31
1,43,107,29
1,43,0,39
1,43,107,21
1,43,0,25
1,43,100,35
1,43,0,24
1,43,105,36
1,43,0,60
1,42,89,0
1,42,0,23
1,43,102,37
1,43,0,31
1,43,98,29
1,43,0,38
1,43,119,22
1,43,0,34
1,43,105,26
1,31,93,30
1,43,0,8
1,31,0,8
1,43,85,14
1,43,0,31
1,43,107,29
1,43,0,21
1,43,113,39
1,43,0,50
1,37,98,10
1,37,0,19
1,38,105,41
1,38,0,44
1,38,89,16
1,38,0,33
1,38,105,27
1,38,0,40
1,38,98,20
1,38,0,44
1,38,102,16
1,38,0,36
1,38,102,24
1,38,0,37
1,38,110,23
1,38,0,43
1,38,98,17
1,38,0,52
1,38,102,8
1,38,0,35
1,38,119,25
1,38,0,43
1,38,113,17
1,38,0,36
1,38,113,24
1,38,0,48
1,38,91,12
1,38,0,34
1,38,105,26
1,38,0,44
1,38,105,16
1,38,0,34
1,38,113,26
1,38,0,41
1,43,102,19
1,43,0,31
1,43,98,29
1,43,0,38
1,43,119,22
1,43,0,34
1,43,105,26
1,31,93,30
1,43,0,8
1,31,0,8
1,43,85,14
1,43,0,31
1,43,107,29
1,43,0,21
1,43,113,39
1,43,0,50
1,42,98,10
1,42,0,19
1,43,105,41
1,43,0,38
1,43,107,22
1,43,0,48
1,43,102,12
1,43,0,38
1,43,116,22
1,43,0,17
1,31,80,13
1,31,0,15
1,43,102,15
1,43,0,43
1,43,85,17
1,43,0,40
1,41,102,20
1,41,0,43
1,41,85,17
1,41,0,40
