track,note,velocity,time
0,44,59,188
0,44,0,1
0,44,59,95
0,44,0,1
0,44,59,95
0,44,0,1
0,44,59,95
0,44,0,1
0,85,80,235
0,73,100,4
0,85,0,8
0,73,0,4
0,85,80,8
0,73,100,4
0,85,0,8
0,73,0,6
0,85,80,6
0,73,100,4
0,73,0,59
0,83,80,1
0,71,100,4
0,85,0,7
0,82,80,53
0,70,100,4
0,71,0,6
0,83,0,9
0,61,45,1
0,61,0,1
0,61,40,11
0,61,0,1
0,61,50,11
0,61,0,1
0,70,0,0
0,61,45,11
0,61,0,1
0,82,0,4
0,78,80,3
0,59,80,0
0,66,80,0
0,63,80,0
0,42,117,4
0,35,95,0
0,47,95,0
0,66,100,0
0,63,99,0
0,35,100,0
0,35,109,0
0,59,92,0
0,35,0,1
0,42,0,0
0,54,80,43
0,42,61,4
0,42,0,1
0,54,0,38
0,63,80,5
0,42,117,4
0,38,107,0
0,38,0,1
0,42,0,0
0,47,0,14
0,35,0,2
0,35,0,0
0,66,80,27
0,47,90,4
0,42,61,0
0,35,104,0
0,35,92,0
0,35,100,0
0,35,0,1
0,42,0,0
0,63,0,2
0,47,0,14
0,35,0,1
0,35,0,3
0,66,0,8
0,66,80,15
0,35,100,4
0,78,100,0
0,35,96,0
0,35,111,0
0,42,117,0
0,47,89,0
0,42,0,1
0,35,0,0
0,66,0,43
0,63,80,0
0,42,61,4
0,42,0,1
0,76,100,28
0,78,0,1
0,63,0,14
0,59,80,0
0,42,117,4
0,38,107,0
0,38,0,1
0,42,0,0
0,59,0,43
0,54,80,0
0,35,100,4
0,42,61,0
0,42,0,1
0,35,0,0
0,75,100,1
0,76,0,1
0,47,0,8
0,35,0,1
0,66,0,2
0,35,0,3
0,51,80,27
0,54,0,2
0,35,96,2
0,42,117,0
0,47,96,0
0,35,100,0
0,35,108,0
0,35,0,1
0,42,0,0
0,75,0,11
0,71,100,0
0,78,0,17
0,42,61,19
0,42,0,1
0,38,107,47
0,42,117,0
0,42,0,1
0,38,0,0
0,47,0,8
0,35,0,3
0,35,0,3
0,85,80,29
0,35,91,4
0,35,103,0
0,47,89,0
0,35,100,0
0,42,61,0
0,73,100,0
0,42,0,1
0,35,0,0
0,85,0,7
0,73,0,5
0,47,0,4
0,35,0,1
0,85,80,2
0,35,0,1
0,73,100,3
0,85,0,8
0,71,0,2
0,73,0,5
0,85,80,5
0,47,95,4
0,35,108,0
0,35,100,0
0,73,100,0
0,35,96,0
0,42,117,0
0,42,0,1
0,35,0,0
0,73,0,47
0,42,61,0
0,42,0,1
0,85,0,11
0,83,80,0
0,51,0,4
0,71,100,0
0,42,117,32
0,38,107,0
0,38,0,1
0,42,0,0
0,71,0,18
0,83,0,9
0,82,80,0
0,35,0,4
0,35,0,0
0,70,100,0
0,59,0,4
0,63,0,4
0,47,0,4
0,42,61,4
0,35,100,0
0,35,0,1
0,42,0,0
0,70,0,14
0,66,0,29
0,82,0,0
0,59,0,0
0,63,0,0
0,61,80,0
0,54,80,0
0,78,80,0
0,54,80,0
0,58,80,0
0,42,99,4
0,61,91,0
0,35,100,0
0,66,91,0
0,54,93,0
0,58,97,0
0,42,117,0
0,42,102,0
0,66,100,0
0,42,0,1
0,35,0,0
0,42,61,47
0,42,0,1
0,38,107,47
0,42,117,0
0,42,0,1
0,38,0,0
0,54,0,1
0,42,0,4
0,54,0,8
0,42,0,7
0,54,80,23
0,42,89,4
0,54,83,0
0,42,61,0
0,42,99,0
0,35,100,0
0,35,0,1
0,42,0,0
0,54,0,8
0,54,0,5
0,42,0,3
0,42,0,11
0,54,80,16
0,35,100,4
0,42,117,0
0,54,84,0
0,42,100,0
0,42,96,0
0,42,0,1
0,35,0,0
0,54,0,10
0,78,0,3
0,54,0,0
0,42,0,6
0,66,0,6
0,42,0,2
0,54,80,16
0,78,80,0
0,42,61,4
0,42,98,0
0,54,85,0
0,42,95,0
0,66,100,0
0,42,0,1
0,54,0,14
0,54,0,2
0,78,0,3
0,66,0,1
0,42,0,1
0,42,0,1
0,53,80,21
0,77,80,0
0,42,117,4
0,38,107,0
0,41,93,0
0,41,92,0
0,65,100,0
0,53,87,0
0,38,0,1
0,42,0,0
0,58,0,1
0,66,0,2
0,61,0,1
0,53,0,10
0,53,0,0
0,41,0,3
0,77,0,1
0,41,0,2
0,65,0,1
0,58,0,22
0,61,0,0
0,59,80,0
0,51,80,0
0,63,80,0
0,75,80,0
0,66,100,4
0,63,100,0
0,42,61,0
0,35,100,0
0,39,107,0
0,39,107,0
0,51,94,0
0,63,96,0
0,59,96,0
0,35,0,1
0,42,0,0
0,42,117,47
0,42,0,1
0,42,61,47
0,42,0,1
0,42,117,47
0,38,107,0
0,38,0,1
0,42,0,0
0,51,0,4
0,39,0,2
0,51,0,3
0,39,0,8
0,51,80,26
0,42,61,4
0,51,86,0
0,39,100,0
0,39,92,0
0,35,100,0
0,35,0,1
0,42,0,0
0,75,0,7
0,51,0,3
0,51,0,3
0,39,0,1
0,39,0,0
0,51,80,29
0,75,80,0
0,63,0,4
0,39,104,0
0,35,100,0
0,51,93,0
0,63,100,0
0,42,117,0
0,39,106,0
0,42,0,1
0,35,0,0
0,51,0,12
0,51,0,5
0,63,0,1
0,75,0,1
0,39,0,1
0,39,0,3
0,77,80,20
0,53,80,0
0,65,100,4
0,41,89,0
0,53,86,0
0,41,84,0
0,42,61,0
0,42,0,1
0,53,0,13
0,53,0,1
0,41,0,1
0,65,0,4
0,41,0,1
0,77,0,5
0,75,80,18
0,51,80,0
0,38,107,4
0,39,104,0
0,51,95,0
0,63,100,0
0,39,104,0
0,42,117,0
0,42,0,1
0,38,0,0
0,59,0,37
0,63,0,1
0,51,0,2
0,63,0,4
0,75,0,2
0,42,61,1
0,42,0,1
0,66,0,0
0,51,0,6
0,39,0,5
0,39,0,0
0,54,0,32
0,63,0,0
0,59,0,0
0,77,80,0
0,49,80,0
0,65,80,0
0,38,87,4
0,37,104,0
0,65,100,0
0,61,92,0
0,49,86,0
0,46,117,0
0,37,91,0
0,35,100,0
0,56,87,0
0,35,0,1
0,46,0,0
0,38,0,0
0,49,0,4
0,49,0,13
0,37,0,0
0,63,80,2
0,75,80,0
0,37,0,2
0,63,100,2
0,77,0,1
0,65,0,0
0,65,0,4
0,65,80,15
0,49,80,0
0,77,80,0
0,75,0,1
0,63,0,0
0,37,89,3
0,38,92,0
0,65,100,0
0,46,117,0
0,49,80,0
0,35,100,0
0,37,101,0
0,35,0,1
0,38,0,0
0,63,0,0
0,46,0,0
0,49,0,12
0,49,0,1
0,37,0,1
0,37,0,3
0,78,80,2
0,66,80,0
0,77,0,1
0,65,0,0
0,66,100,3
0,65,0,1
0,66,0,17
0,78,0,2
0,80,80,0
0,68,80,0
0,49,80,0
0,66,0,1
0,37,109,3
0,37,97,0
0,46,117,0
0,38,97,0
0,49,92,0
0,35,100,0
0,68,100,0
0,35,0,1
0,38,0,0
0,46,0,0
0,49,0,10
0,49,0,3
0,37,0,0
0,37,0,5
0,66,80,1
0,78,80,0
0,66,100,4
0,68,0,3
0,80,0,0
0,68,0,3
0,78,0,14
0,80,80,0
0,49,80,0
0,68,80,0
0,38,102,4
0,37,95,0
0,46,117,0
0,35,100,0
0,49,93,0
0,68,100,0
0,37,109,0
0,35,0,1
0,46,0,0
0,38,0,0
0,66,0,5
0,66,0,4
0,49,0,0
0,37,0,2
0,49,0,1
0,68,0,0
0,68,0,4
0,37,0,1
0,80,0,2
0,81,80,0
0,69,80,0
0,69,100,4
0,66,107,0
0,69,0,16
0,69,0,3
0,81,0,1
0,83,80,0
0,71,80,0
0,49,80,0
0,49,98,4
0,71,100,0
0,37,111,0
0,35,100,0
0,46,117,0
0,37,99,0
0,38,107,0
0,38,0,1
0,35,0,0
0,46,0,0
0,49,0,7
0,49,0,5
0,37,0,0
0,37,0,6
0,71,0,0
0,83,0,1
0,81,80,0
0,69,80,0
0,71,0,2
0,69,100,2
0,83,80,20
0,71,80,0
0,49,80,0
0,81,0,2
0,69,0,0
0,49,97,2
0,37,109,0
0,35,100,0
0,37,99,0
0,71,100,0
0,46,117,0
0,38,107,0
0,38,0,1
0,69,0,0
0,46,0,0
0,35,0,0
0,49,0,6
0,49,0,5
0,37,0,0
0,37,0,6
0,73,80,2
0,85,80,0
0,73,100,4
0,71,0,2
0,83,0,0
0,71,0,4
0,73,0,11
0,85,0,3
0,86,80,0
0,74,80,0
0,49,80,0
0,73,0,1
0,37,101,3
0,46,117,0
0,37,111,0
0,38,107,0
0,49,98,0
0,74,100,0
0,35,100,0
0,35,0,1
0,46,0,0
0,38,0,0
0,49,0,7
0,49,0,4
0,37,0,1
0,37,0,3
0,85,80,4
0,73,80,0
0,73,100,4
0,86,0,6
0,74,0,0
0,74,0,4
0,73,0,10
0,85,0,0
0,83,80,0
0,49,80,0
0,71,80,0
0,73,0,4
0,38,107,0
0,35,100,0
0,49,99,0
0,46,117,0
0,71,100,0
0,37,98,0
0,37,110,0
0,46,0,1
0,35,0,0
0,38,0,0
0,49,0,8
0,37,0,3
0,49,0,1
0,37,0,3
0,71,0,16
0,71,0,4
0,83,0,8
0,49,80,0
0,85,80,0
0,73,80,0
0,38,107,4
0,35,100,0
0,49,110,0
0,37,112,0
0,37,117,0
0,46,117,0
0,73,100,0
0,46,0,1
0,38,0,0
0,35,0,0
0,49,122,3
0,49,0,1
0,49,0,4
0,37,0,3
0,49,0,0
0,61,0,10
0,37,0,0
0,56,0,2
0,85,0,20
0,73,0,0
0,66,0,52
0,73,0,144
0,89,100,44
0,89,0,24
0,86,90,0
0,86,0,24
0,85,80,0
0,83,80,24
0,85,0,2
0,83,0,2
0,73,70,0
0,73,120,0
0,69,100,0
0,42,117,0
0,42,111,0
0,61,99,0
0,42,95,0
0,57,89,0
0,73,100,0
0,35,100,0
0,54,93,0
0,66,100,0
0,64,70,0
0,64,0,1
0,42,0,0
0,35,0,0
0,63,51,9
0,63,0,1
0,73,0,9
0,42,61,14
0,64,54,0
0,73,102,0
0,64,0,1
0,42,0,0
0,73,0,18
0,42,117,29
0,40,74,0
0,61,79,0
0,73,108,0
0,54,122,0
0,54,0,1
0,42,0,0
0,61,0,0
0,40,0,0
0,73,0,13
0,35,100,34
0,42,61,0
0,63,68,0
0,73,114,0
0,63,0,1
0,35,0,0
0,42,0,0
0,73,0,16
0,73,0,27
0,85,80,0
0,73,114,4
0,64,54,0
0,42,117,0
0,35,100,0
0,35,0,1
0,42,0,0
0,64,0,0
0,83,80,0
0,71,93,0
0,42,61,0
0,64,47,0
0,64,0,1
0,42,0,0
0,85,0,2
0,73,0,2
0,66,0,12
0,69,0,6
0,81,80,8
0,71,0,3
0,40,100,1
0,42,117,0
0,69,93,0
0,61,80,0
0,54,122,0
0,54,0,1
0,40,0,0
0,61,0,0
0,42,0,0
0,83,0,2
0,73,0,0
0,69,0,29
0,54,0,8
0,57,0,4
0,83,80,0
0,81,0,4
0,35,100,0
0,42,61,0
0,71,109,0
0,42,0,1
0,35,0,0
0,61,0,3
0,42,0,7
0,42,0,1
0,40,107,1
0,42,117,0
0,35,100,0
0,59,94,0
0,52,84,0
0,71,100,0
0,68,100,0
0,64,70,0
0,56,92,0
0,40,83,0
0,64,100,0
0,64,0,1
0,35,0,0
0,42,0,0
0,63,51,1
0,63,0,1
0,42,61,3
0,64,54,0
0,64,0,1
0,42,0,0
0,40,104,2
0,54,122,0
0,61,83,0
0,42,117,0
0,42,0,1
0,61,0,0
0,40,0,0
0,54,0,0
0,63,68,10
0,42,61,0
0,35,100,0
0,35,0,1
0,42,0,0
0,63,0,0
0,71,0,27
0,83,0,2
0,80,80,0
0,35,100,2
0,64,54,0
0,68,112,0
0,42,117,0
0,42,0,1
0,35,0,0
0,64,0,0
0,81,80,29
0,80,0,1
0,68,0,3
0,69,93,0
0,42,61,0
0,64,47,0
0,64,0,1
0,42,0,0
0,81,0,43
0,83,80,0
0,61,83,4
0,42,117,0
0,40,103,0
0,54,122,0
0,71,100,0
0,54,0,1
0,40,0,0
0,61,0,0
0,42,0,0
0,69,0,4
0,64,0,12
0,71,0,13
0,68,0,1
0,71,0,2
0,52,0,6
0,56,0,2
0,40,0,2
0,85,80,1
0,83,0,4
0,42,61,0
0,35,100,0
0,73,111,0
0,35,0,1
0,42,0,0
0,59,0,7
0,40,0,2
0,42,117,1
0,42,109,0
0,73,100,0
0,64,70,0
0,66,100,0
0,42,82,0
0,35,100,0
0,57,89,0
0,69,100,0
0,61,97,0
0,35,0,1
0,64,0,0
0,42,0,0
0,63,51,0
0,63,0,1
0,42,61,1
0,64,54,0
0,64,0,1
0,42,0,0
0,85,0,1
0,83,80,0
0,73,0,1
0,61,79,0
0,40,74,0
0,42,117,0
0,71,109,0
0,54,122,0
0,54,0,1
0,40,0,0
0,61,0,0
0,42,0,0
0,71,0,17
0,81,80,25
0,83,0,2
0,35,100,2
0,63,68,0
0,42,61,0
0,69,95,0
0,42,0,1
0,63,0,0
0,35,0,0
0,69,0,0
0,66,0,6
0,42,0,2
0,61,0,9
0,73,0,1
0,57,0,2
0,69,0,3
0,80,80,0
0,42,0,2
0,81,0,0
0,68,110,0
0,35,100,0
0,68,100,0
0,65,100,0
0,71,100,0
0,49,80,0
0,37,90,0
0,42,117,0
0,64,54,0
0,37,104,0
0,65,88,0
0,61,98,0
0,64,0,1
0,42,0,0
0,35,0,0
0,65,0,31
0,80,0,4
0,78,80,0
0,68,0,1
0,42,61,3
0,69,100,0
0,64,47,0
0,66,100,0
0,66,95,0
0,64,0,1
0,42,0,0
0,68,0,10
0,66,0,26
0,77,80,7
0,71,0,4
0,68,100,0
0,61,80,0
0,54,122,0
0,40,100,0
0,71,100,0
0,65,92,0
0,42,117,0
0,42,0,1
0,40,0,0
0,66,0,0
0,54,0,0
0,61,0,0
0,78,0,1
0,69,0,3
0,68,0,12
0,71,0,6
0,77,0,21
0,37,0,0
0,78,80,0
0,65,0,4
0,42,61,0
0,35,100,0
0,66,107,0
0,73,100,0
0,69,100,0
0,35,0,1
0,42,0,0
0,49,0,8
0,61,0,6
0,37,0,1
0,65,0,6
0,42,101,2
0,57,80,0
0,54,80,0
0,42,80,0
0,64,70,0
0,42,117,0
0,35,100,0
0,61,92,0
0,35,0,1
0,42,0,0
0,64,0,0
0,63,51,7
0,63,0,1
0,42,61,2
0,64,54,0
0,64,0,1
0,42,0,0
0,66,80,4
0,54,122,4
0,40,104,0
0,42,117,0
0,61,83,0
0,61,0,1
0,42,0,0
0,54,0,0
0,40,0,0
0,42,0,3
0,69,0,2
0,73,0,1
0,42,105,1
0,42,61,0
0,63,68,0
0,35,100,0
0,35,0,1
0,63,0,0
0,42,0,0
0,42,0,3
0,66,0,5
0,69,80,0
0,66,0,4
0,35,100,0
0,42,105,0
0,42,117,0
0,64,54,0
0,64,0,1
0,42,0,0
0,35,0,0
0,64,47,0
0,42,61,0
0,42,0,1
0,64,0,0
0,69,0,42
0,73,80,0
0,42,117,4
0,61,83,0
0,40,103,0
0,54,122,0
0,54,0,1
0,42,0,0
0,40,0,0
0,61,0,0
0,77,80,19
0,73,0,6
0,54,0,17
0,77,0,1
0,78,80,0
0,35,100,4
0,42,61,0
0,42,0,1
0,35,0,0
0,42,0,1
0,57,0,10
0,61,0,1
0,78,0,2
0,78,0,0
0,80,80,0
0,42,0,1
0,80,0,2
0,81,80,2
0,85,80,0
0,42,117,2
0,64,70,0
0,42,104,0
0,42,87,0
0,57,86,0
0,61,98,0
0,73,110,0
0,54,82,0
0,35,100,0
0,66,100,0
0,73,100,0
0,69,100,0
0,35,0,1
0,64,0,0
0,42,0,0
0,73,0,2
0,63,51,7
0,63,0,1
0,64,54,23
0,73,102,0
0,42,61,0
0,42,0,1
0,64,0,0
0,73,0,12
0,54,122,35
0,61,79,0
0,40,74,0
0,42,117,0
0,73,104,0
0,42,0,1
0,40,0,0
0,54,0,0
0,61,0,0
0,42,0,7
