track,note,velocity,time
1,52,120,6386
1,54,120,128
1,42,94,130
1,42,106,72
1,51,102,20
1,52,105,6
1,54,95,76
1,52,80,66
1,51,90,54
1,52,84,6
1,51,93,10
1,49,80,6
1,42,91,8
1,42,97,70
1,51,98,18
1,52,99,6
1,56,90,54
1,52,98,54
1,51,104,32
1,52,89,6
1,51,101,10
1,49,107,6
1,42,84,6
1,42,87,76
1,51,86,24
1,52,105,10
1,54,109,78
1,52,91,68
1,51,88,58
1,52,80,12
1,51,82,18
1,49,81,12
1,42,107,12
1,42,88,76
1,51,100,24
1,52,101,10
1,56,86,58
1,52,94,58
1,51,108,40
1,52,83,12
1,51,91,16
1,49,98,10
1,42,90,12
1,42,86,76
1,51,104,22
1,52,109,10
1,54,90,78
1,52,99,68
1,51,81,58
1,52,95,10
1,51,108,16
1,49,107,10
1,42,89,10
1,42,82,76
1,51,100,22
1,52,106,10
1,56,97,58
1,52,85,58
1,51,94,38
1,52,95,10
1,51,92,16
1,49,97,10
1,42,102,10
1,42,94,78
1,51,91,22
1,52,81,12
1,54,99,78
1,52,83,68
1,51,107,58
1,52,90,14
1,51,91,16
1,49,89,10
1,42,88,10
1,42,88,74
1,51,97,22
1,52,102,10
1,56,91,58
1,52,106,56
1,51,109,38
1,52,81,12
1,51,85,16
1,49,98,8
1,42,85,12
1,42,83,76
1,51,102,22
1,52,108,12
1,54,90,78
1,52,101,68
1,51,101,56
1,52,102,10
1,51,84,18
1,49,81,14
1,42,105,12
1,42,83,76
1,51,80,22
1,52,93,10
1,56,100,56
1,52,82,58
1,51,86,38
1,52,88,10
1,51,86,16
1,49,95,10
1,42,84,10
1,42,108,76
1,51,107,24
1,52,90,8
1,54,109,78
1,52,109,66
1,51,98,60
1,52,93,12
1,51,81,18
1,49,88,10
1,42,103,12
1,42,86,76
1,51,98,20
1,52,93,8
1,56,99,62
1,52,104,58
1,51,101,38
1,52,91,12
1,51,102,18
1,49,107,10
1,42,85,12
1,42,100,76
1,51,90,20
1,52,82,10
1,54,98,76
1,52,100,66
1,51,84,58
1,52,106,10
1,51,98,18
1,49,81,8
1,42,109,12
1,42,97,76
1,51,85,22
1,52,106,12
1,56,102,56
1,52,89,58
1,51,82,38
1,52,104,10
1,51,93,16
1,49,88,10
1,42,95,14
1,42,89,78
1,51,89,24
1,52,108,12
1,54,101,76
1,52,108,70
1,51,81,60
1,52,95,12
1,51,108,14
1,49,106,12
1,42,89,10
1,42,95,76
1,51,88,22
1,52,96,10
1,56,83,58
1,52,91,58
1,51,103,38
1,52,91,10
1,51,95,14
1,49,91,10
1,47,101,12
1,47,98,78
1,56,94,24
1,57,94,10
1,59,103,78
1,57,90,68
1,56,98,60
1,57,91,12
1,56,102,16
1,54,98,10
1,47,89,12
1,47,99,76
1,56,105,22
1,57,97,10
1,61,105,58
1,57,83,58
1,56,98,38
1,57,81,12
1,56,98,16
1,54,89,10
1,47,99,12
1,47,104,76
1,56,98,22
1,57,107,10
1,59,98,78
1,57,87,68
1,56,105,58
1,57,92,10
1,56,89,16
1,54,86,10
1,47,83,10
1,47,84,76
1,56,103,22
1,57,103,10
1,49,98,106
1,52,105,134
1,42,105,112
1,42,87,78
1,51,109,22
1,52,82,8
1,54,92,78
1,52,87,68
1,51,86,58
1,52,83,10
1,51,82,18
1,49,81,10
1,42,107,12
1,42,92,78
1,51,105,22
1,52,105,10
1,56,91,58
1,52,80,60
1,51,108,38
1,52,87,12
1,51,87,18
1,49,108,10
1,42,106,12
1,42,108,74
1,51,103,22
1,52,84,10
1,54,91,80
1,52,92,68
1,51,99,60
1,52,81,12
1,51,99,18
1,49,104,8
1,42,100,12
1,42,100,76
1,51,103,22
1,52,106,10
1,56,101,58
1,52,96,58
1,51,81,38
1,52,84,10
1,51,98,16
1,42,107,56
1,42,100,76
1,51,84,24
1,52,95,10
1,54,83,80
1,52,93,68
1,51,103,60
1,52,109,10
1,51,106,16
1,49,93,8
1,42,102,10
1,42,92,76
1,51,109,22
1,52,87,10
1,56,87,58
1,52,98,58
1,51,108,38
1,52,103,12
1,51,99,18
1,49,93,10
1,42,99,12
1,42,99,78
1,51,92,24
1,52,96,12
1,54,96,80
1,52,91,68
1,51,81,58
1,52,85,10
1,51,91,16
1,49,82,10
1,42,84,10
1,42,93,76
1,51,100,22
1,52,100,14
1,56,105,60
1,52,85,60
1,51,106,38
1,52,109,8
1,51,106,16
1,49,93,10
1,42,101,12
1,42,88,76
1,51,92,24
1,52,101,10
1,54,106,78
1,52,91,68
1,51,89,56
1,52,97,12
1,51,102,16
1,49,102,10
1,42,84,10
1,42,88,76
1,51,107,22
1,52,95,10
1,56,107,58
1,52,95,58
1,51,93,40
1,52,82,12
1,51,82,14
1,49,90,10
1,42,100,10
1,42,91,78
1,51,100,24
1,52,85,10
1,54,98,78
1,52,96,68
1,51,96,58
1,52,109,12
1,51,109,18
1,49,95,12
1,42,100,12
1,42,91,76
1,51,104,22
1,52,81,10
1,56,103,58
1,52,89,56
1,51,80,40
1,52,95,12
1,51,102,16
1,49,90,10
1,42,108,12
1,42,109,76
1,51,96,22
1,52,91,10
1,54,88,78
1,52,98,68
1,51,80,58
1,52,93,10
1,51,108,16
1,49,101,10
1,42,104,10
1,42,97,76
1,51,82,22
1,52,93,10
1,56,97,58
1,52,104,58
1,51,90,38
1,52,88,10
1,51,86,16
1,49,91,10
1,42,83,10
1,42,98,76
1,51,85,22
1,52,107,10
1,54,108,78
1,52,107,68
1,51,108,58
1,52,106,14
1,51,85,16
1,49,87,8
1,42,101,12
1,42,85,76
1,51,94,22
1,52,104,10
1,56,83,58
1,52,97,58
1,51,102,38
1,52,101,10
1,51,80,18
1,49,100,12
1,47,82,10
1,47,100,76
1,56,96,22
1,57,103,8
1,59,99,80
1,57,86,68
1,56,88,58
1,57,103,10
1,56,81,18
1,54,90,10
1,47,90,12
1,47,92,78
1,56,96,22
1,57,90,10
1,61,106,58
1,57,97,58
1,56,93,38
1,57,92,12
1,56,94,16
1,54,96,10
1,47,103,12
1,47,105,76
1,56,105,24
1,57,102,8
1,59,102,78
1,57,107,68
1,56,95,60
1,57,83,10
1,56,104,14
1,54,85,8
1,47,99,10
1,47,81,76
1,56,91,22
1,57,104,10
1,49,84,106
1,52,90,134
1,42,109,114
1,42,81,76
1,51,99,24
1,52,80,10
1,54,91,78
1,52,103,68
1,51,104,56
1,52,99,10
1,51,109,18
1,49,86,14
1,42,103,12
1,42,94,76
1,51,83,22
1,52,102,12
1,56,93,58
1,52,109,58
1,51,99,38
1,52,108,12
1,51,88,16
1,49,88,10
1,42,101,10
1,42,96,78
1,51,108,24
1,52,102,12
1,54,93,80
1,52,102,66
1,51,86,60
1,52,107,12
1,51,107,16
1,49,94,10
1,42,106,14
1,42,85,78
1,51,86,22
1,52,108,10
1,56,81,58
1,52,81,58
1,51,96,38
1,52,81,10
1,51,83,16
1,49,81,12
1,42,99,12
1,42,89,78
1,51,92,24
1,52,86,10
1,54,84,78
1,52,95,68
1,51,93,60
1,52,90,12
1,51,83,16
1,49,101,10
1,42,99,12
1,42,95,76
1,51,102,22
1,52,93,10
1,56,83,58
1,52,104,58
1,51,83,38
1,52,102,12
1,51,92,16
1,49,82,10
1,42,86,12
1,42,97,76
1,51,98,22
1,52,100,10
1,54,107,78
1,52,88,68
1,51,91,58
1,52,103,10
1,51,85,16
1,49,85,10
1,42,85,10
1,42,85,76
1,51,89,22
1,52,85,10
1,56,103,58
1,52,106,60
1,51,93,38
1,52,104,10
1,51,94,14
1,49,87,12
1,47,82,12
1,47,106,76
1,56,81,22
1,57,98,10
1,59,102,78
1,57,107,68
1,56,85,58
1,57,81,10
1,56,103,16
1,54,80,10
1,47,96,12
1,47,106,78
1,56,89,24
1,57,94,12
1,61,99,58
1,57,103,60
1,56,86,38
1,57,81,10
1,56,80,16
1,54,100,12
1,45,93,14
1,45,99,76
1,54,94,22
1,55,82,10
1,57,84,78
1,55,107,70
1,54,91,60
1,55,81,12
1,54,87,16
1,52,87,10
1,45,86,12
1,45,105,76
1,54,106,24
1,55,98,10
1,59,85,58
1,55,90,60
1,54,85,38
1,55,98,8
1,54,107,16
1,52,101,10
1,47,109,14
1,47,105,76
1,56,91,22
1,57,85,10
1,59,102,78
1,57,80,68
1,56,104,60
1,57,104,12
1,56,101,16
1,54,99,10
1,47,106,12
1,47,103,76
1,56,80,22
1,57,92,10
1,61,107,58
1,57,87,58
1,56,107,38
1,57,80,10
1,56,86,16
1,54,104,10
1,45,89,10
1,45,109,76
1,54,99,24
1,55,104,10
1,57,91,80
1,55,96,72
1,54,83,60
1,55,106,10
1,54,108,16
1,52,105,10
1,45,93,10
1,45,99,76
1,54,98,22
1,55,80,8
1,47,84,104
1,49,88,112
1,42,96,114
1,42,98,76
1,51,92,20
1,52,102,12
1,54,95,76
1,52,80,70
1,51,90,60
1,52,93,10
1,51,81,16
1,49,80,10
1,42,109,8
1,42,101,76
1,51,104,22
1,52,97,12
1,56,105,60
1,52,102,62
1,51,80,38
1,52,98,8
1,51,91,16
1,49,88,10
1,42,106,12
1,42,107,76
1,51,95,22
1,52,109,12
1,54,93,78
1,52,89,70
1,51,94,60
1,52,81,12
1,51,86,18
1,49,105,12
1,42,98,12
1,42,82,76
1,51,89,22
1,52,82,10
1,56,89,58
1,52,107,58
1,51,86,38
1,52,96,10
1,51,87,18
1,49,101,10
1,42,86,12
1,42,93,76
1,51,97,22
1,52,109,10
1,54,98,78
1,52,85,68
1,51,86,58
1,52,108,10
1,51,82,16
1,49,88,10
1,42,94,10
1,42,107,76
1,51,88,22
1,52,92,10
1,56,96,58
1,52,103,58
1,51,97,38
1,52,89,10
1,51,88,16
1,49,101,10
1,42,103,10
1,42,85,76
1,51,81,24
1,52,105,8
1,54,80,78
1,52,104,68
1,51,103,60
1,52,88,12
1,51,107,16
1,49,87,12
1,61,80,10
1,60,80,106
1,59,101,108
1,57,85,108
1,54,127,6250
1,42,85,1922
1,42,84,78
1,51,95,20
1,52,104,10
1,54,106,78
1,52,80,68
1,51,104,56
1,52,97,10
1,51,96,16
1,49,106,10
1,42,108,10
1,42,84,76
1,51,104,22
1,52,82,8
1,56,104,60
1,52,96,58
1,51,93,40
1,52,108,12
1,51,101,16
1,49,88,10
1,42,85,10
1,42,94,76
1,51,86,22
1,52,100,12
1,54,100,78
1,52,87,68
1,51,87,58
1,52,94,10
1,51,96,16
1,49,90,12
1,42,85,14
1,42,86,78
1,51,102,22
1,52,99,10
1,56,88,58
1,52,81,58
1,51,105,38
1,52,81,10
1,51,80,16
1,49,98,12
1,42,98,8
1,42,103,76
1,51,100,22
1,52,106,12
1,54,92,78
1,52,80,70
1,51,81,60
1,52,88,10
1,51,87,16
1,49,95,8
1,42,82,8
1,42,108,74
1,51,90,22
1,52,88,12
1,56,109,62
1,52,82,60
1,51,89,38
1,52,99,10
1,51,87,16
1,49,86,10
1,42,85,10
1,42,83,78
1,51,102,24
1,52,81,10
1,54,100,80
1,52,97,68
1,51,82,58
1,52,109,10
1,51,98,16
1,49,97,10
1,61,109,10
1,49,81,0
1,60,87,106
1,59,103,104
1,57,107,106
1,42,101,106
1,42,81,76
1,51,90,20
1,52,100,8
1,54,86,76
1,52,90,68
1,51,99,58
1,52,88,14
1,51,95,16
1,49,86,10
1,42,83,10
1,42,105,76
1,51,104,22
1,52,94,10
1,56,108,60
1,52,98,58
1,51,106,38
1,52,104,10
1,51,89,16
1,49,84,10
1,42,100,8
1,42,109,78
1,51,92,22
1,52,100,6
1,54,85,76
1,52,85,68
1,51,102,60
1,52,94,10
1,51,108,18
1,49,96,10
1,42,97,8
1,42,92,76
1,51,92,22
1,52,104,10
1,56,88,58
1,52,98,58
1,51,99,38
1,52,108,10
1,51,86,16
1,49,90,10
1,42,104,12
1,42,83,76
1,51,88,22
1,52,104,10
1,54,89,78
1,52,96,68
1,51,109,58
1,52,91,10
1,51,91,16
1,49,106,10
1,42,91,10
1,42,95,76
1,51,98,22
1,52,82,10
1,56,86,58
1,52,89,58
1,51,98,38
1,52,82,10
1,51,84,16
1,49,104,10
1,42,109,10
1,42,83,76
1,51,87,22
1,52,97,10
1,54,83,78
1,52,91,68
1,51,95,58
1,52,89,10
1,51,89,16
1,49,102,10
1,42,91,10
1,42,101,76
1,51,82,22
1,52,102,8
1,56,99,58
1,52,94,62
1,51,92,38
1,52,90,10
1,51,86,14
1,49,84,10
1,42,60,10
2,78,84,6338
2,90,44,0
2,73,84,0
2,66,84,0
2,81,84,104
2,76,84,2
2,93,44,0
2,69,84,0
2,64,84,0
2,83,92,96
2,95,92,0
2,78,92,0
2,90,92,0
2,71,92,0
2,71,76,42528
2,83,76,0
2,78,76,0
2,90,76,0
2,73,76,150
2,85,76,0
2,80,76,0
2,92,76,0
2,83,76,94
2,95,60,0
2,78,92,2
2,90,44,0
2,71,76,0
2,78,92,6046
2,90,28,2
2,106,28,0
2,70,76,0
2,66,92,0
2,95,76,1248
2,71,76,0
2,78,92,0
2,83,92,0
2,90,28,0
2,66,92,0
2,78,92,104
2,82,76,2
2,90,28,0
2,94,28,0
2,66,92,0
2,70,76,2
2,95,28,1246
2,71,92,0
2,78,92,0
2,83,76,0
2,90,28,2
2,66,92,0
2,78,92,104
2,82,76,0
2,90,28,0
2,94,28,2
2,66,92,0
2,70,76,0
2,95,28,1246
2,71,92,2
2,78,92,0
2,83,76,0
2,90,28,0
2,66,92,0
2,78,92,106
2,82,76,0
2,90,28,0
2,94,28,0
2,66,92,2
2,70,76,0
2,73,84,4126
2,80,84,0
2,68,84,2
2,80,84,104
2,76,84,2
2,83,92,0
2,88,76,0
3,78,79,6384
3,90,39,0
3,73,79,0
3,66,79,0
3,81,79,108
3,76,79,0
3,93,39,0
3,69,79,0
3,64,79,2
3,83,46,96
3,71,94,0
3,90,46,0
3,78,94,0
3,95,46,0
3,71,94,42526
3,83,94,0
3,78,94,0
3,90,94,0
3,73,94,106
3,85,94,0
3,80,94,0
3,92,94,0
3,83,46,104
3,95,14,0
3,78,94,2
3,90,46,0
3,71,78,0
3,78,62,6050
3,94,14,0
3,90,14,0
3,106,14,0
3,70,78,0
3,66,62,0
3,95,14,1246
3,71,78,2
3,78,62,0
3,83,62,0
3,90,14,0
3,66,78,0
3,78,78,104
3,82,62,0
3,90,14,0
3,94,14,0
3,66,78,2
3,70,62,0
3,95,14,1246
3,71,78,0
3,78,62,2
3,83,62,0
3,90,14,0
3,66,78,0
3,78,78,106
3,82,62,0
3,90,14,2
3,94,14,0
3,66,78,0
3,70,62,0
3,95,14,1248
3,71,78,0
3,78,62,0
3,83,62,2
3,90,14,0
3,66,78,0
3,78,78,106
3,82,62,0
3,90,14,0
3,94,14,0
3,66,78,0
3,70,62,2
3,73,70,0
3,92,70,0
3,80,70,2
3,68,70,0
3,92,70,104
3,80,70,0
3,88,70,2
3,76,70,0
3,95,78,0
3,83,78,0
3,76,62,0
4,76,104,62065
4,80,88,1
4,61,88,0
4,78,104,4
4,75,104,2
4,66,88,0
4,83,88,0
4,76,104,4
4,73,88,0
4,80,88,0
4,61,88,2
4,71,88,80
4,75,104,2
4,78,104,0
4,80,104,16
4,68,104,0
4,71,104,0
4,75,104,2
4,78,104,56
4,73,104,0
4,61,104,0
4,71,104,160
4,75,104,0
4,80,104,0
4,73,80,106
4,64,80,0
4,80,80,2
4,69,80,0
4,73,80,0
4,61,80,0
4,68,80,10
4,73,80,0
4,61,80,0
4,78,80,54
4,69,80,0
4,66,80,0
4,57,80,0
4,54,80,0
5,88,64,62065
5,92,48,1
5,73,48,0
5,90,64,4
5,87,64,2
5,78,48,0
5,95,48,0
5,88,64,4
5,85,48,0
5,92,48,0
5,73,48,2
5,83,48,80
5,87,64,2
5,90,64,0
5,92,64,16
5,80,64,0
5,83,64,0
5,87,64,2
5,90,64,56
5,85,64,0
5,73,64,0
5,83,64,160
5,87,64,0
5,92,64,0
5,85,40,106
5,76,40,0
5,92,40,2
