track,note,velocity,time
1,66,127,4080
1,66,0,78
1,67,127,2
1,67,0,78
1,69,127,2
1,69,0,78
1,69,127,2
1,69,0,120
1,67,127,0
1,67,0,210
1,66,127,30
1,66,0,58
1,66,127,2
1,66,0,160
1,64,127,20
1,64,0,58
1,64,127,2
1,64,0,160
1,62,127,20
1,62,0,58
1,66,127,2
1,66,0,120
1,64,127,0
1,64,0,30
1,66,127,0
1,66,0,130
1,66,127,500
1,66,0,78
1,67,127,2
1,67,0,78
1,69,127,2
1,69,0,78
1,69,127,2
1,69,0,100
1,67,127,20
1,67,0,58
1,67,127,2
1,67,0,118
1,66,127,2
1,66,0,100
1,66,127,20
1,66,0,160
1,66,127,20
1,66,0,58
1,66,127,2
1,66,0,118
1,64,127,2
1,64,0,58
1,62,127,2
1,62,0,58
1,66,127,2
1,66,0,120
1,64,127,0
1,64,0,30
1,62,127,0
1,62,0,130
1,67,127,440
1,67,0,58
1,67,127,2
1,67,0,78
1,66,127,2
1,66,0,78
1,62,127,2
1,62,0,78
1,62,127,2
1,62,0,60
1,60,127,0
1,60,0,270
1,67,127,330
1,67,0,58
1,67,127,2
1,67,0,78
1,66,127,2
1,66,0,78
1,62,127,2
1,62,0,78
1,62,127,2
1,62,0,330
1,67,127,330
1,67,0,58
1,67,127,2
1,67,0,78
1,66,127,2
1,66,0,78
1,62,127,2
1,62,0,78
1,62,127,2
1,62,0,60
1,60,127,0
1,60,0,270
1,67,127,330
1,67,0,58
1,67,127,2
1,67,0,78
1,66,127,2
1,66,0,78
1,62,127,2
1,62,0,78
1,62,127,2
1,62,0,330
1,66,127,390
1,66,0,78
1,67,127,2
1,67,0,78
1,69,127,2
1,69,0,78
1,69,127,2
1,69,0,100
1,67,127,20
1,67,0,100
1,67,127,20
1,67,0,100
1,66,127,20
1,66,0,58
1,66,127,2
1,66,0,160
1,64,127,20
1,64,0,58
1,64,127,2
1,64,0,160
1,62,127,20
1,62,0,58
1,66,127,2
1,66,0,120
1,64,127,0
1,64,0,30
1,66,127,0
1,66,0,130
1,66,127,500
1,66,0,78
1,67,127,2
1,67,0,78
1,69,127,2
1,69,0,78
1,69,127,2
1,69,0,58
1,67,127,2
1,67,0,58
1,67,127,2
1,67,0,58
1,67,127,2
1,67,0,118
1,66,127,2
1,66,0,58
1,66,127,2
1,66,0,58
1,66,127,2
1,66,0,118
1,66,127,2
1,66,0,58
1,66,127,2
1,66,0,58
1,66,127,2
1,66,0,118
1,64,127,2
1,64,0,58
1,62,127,2
1,62,0,58
1,66,127,2
1,66,0,120
1,64,127,0
1,64,0,30
1,62,127,0
1,62,0,130
1,67,127,440
1,67,0,58
1,67,127,2
1,67,0,78
1,66,127,2
1,66,0,78
1,62,127,2
1,62,0,78
1,62,127,2
1,62,0,60
1,60,127,0
1,60,0,270
1,67,127,330
1,67,0,58
1,67,127,2
1,67,0,78
1,66,127,2
1,66,0,78
1,62,127,2
1,62,0,78
1,62,127,2
1,62,0,330
1,67,127,330
1,67,0,58
1,67,127,2
1,67,0,78
1,66,127,2
1,66,0,78
1,62,127,2
1,62,0,78
1,62,127,2
1,62,0,60
1,60,127,0
1,60,0,270
1,67,127,330
1,67,0,58
1,67,127,2
1,67,0,78
1,66,127,2
1,66,0,78
1,62,127,2
1,62,0,78
1,62,127,2
1,62,0,330
1,67,127,470
1,67,0,78
1,69,127,2
1,69,0,78
1,72,127,122
1,72,0,100
1,71,127,20
1,71,0,58
1,69,127,2
1,69,0,58
1,67,127,2
1,67,0,58
1,71,127,2
1,71,0,118
1,69,127,2
1,69,0,58
1,69,127,2
1,69,0,100
1,69,127,100
1,69,0,78
1,71,127,2
1,71,0,78
1,72,127,62
1,72,0,100
1,72,127,20
1,72,0,58
1,71,127,2
1,71,0,100
1,67,127,20
1,67,0,58
1,71,127,2
1,71,0,118
1,69,127,2
1,69,0,58
1,69,127,2
1,69,0,100
1,69,127,100
1,69,0,78
1,71,127,2
1,71,0,78
1,72,127,122
1,72,0,100
1,71,127,20
1,71,0,58
1,69,127,2
1,69,0,58
1,67,127,2
1,67,0,58
1,71,127,2
1,71,0,118
1,69,127,2
1,69,0,58
1,69,127,2
1,69,0,100
1,69,127,100
1,69,0,78
1,71,127,2
1,71,0,78
1,72,127,122
1,72,0,100
1,71,127,20
1,71,0,58
1,69,127,2
1,69,0,58
1,67,127,2
1,67,0,58
1,71,127,2
1,71,0,118
1,69,127,2
1,69,0,58
1,69,127,2
1,69,0,100
1,66,127,3860
1,66,0,80
1,67,127,0
1,67,0,80
1,69,127,0
1,69,0,78
1,69,127,2
1,69,0,120
1,67,127,0
1,67,0,58
1,67,127,2
1,67,0,180
1,66,127,0
1,66,0,58
1,66,127,2
1,66,0,180
1,64,127,0
1,64,0,58
1,64,127,2
1,64,0,180
1,62,127,0
1,62,0,58
1,66,127,2
1,66,0,90
1,64,127,0
1,64,0,30
1,66,127,0
1,66,0,270
1,66,127,390
1,66,0,80
1,67,127,0
1,67,0,80
1,69,127,0
1,69,0,78
1,69,127,2
1,69,0,120
1,67,127,0
1,67,0,58
1,67,127,2
1,67,0,180
1,66,127,0
1,66,0,58
1,66,127,2
1,66,0,180
1,64,127,0
1,64,0,58
1,64,127,2
1,64,0,180
1,62,127,0
1,62,0,58
1,66,127,2
1,66,0,90
1,64,127,0
1,64,0,30
1,66,127,0
1,66,0,270
1,66,127,390
1,66,0,80
1,67,127,0
1,67,0,80
1,69,127,0
1,69,0,78
1,69,127,2
1,69,0,100
1,67,127,20
1,67,0,100
1,67,127,20
1,67,0,100
1,66,127,20
1,66,0,58
1,66,127,2
1,66,0,160
1,64,127,20
1,64,0,58
1,64,127,2
1,64,0,160
1,62,127,20
1,62,0,58
1,66,127,2
1,66,0,120
1,64,127,0
1,64,0,30
1,66,127,0
1,66,0,130
1,66,127,500
1,66,0,78
1,67,127,2
1,67,0,78
1,69,127,2
1,69,0,78
1,69,127,2
1,69,0,58
1,67,127,2
1,67,0,58
1,67,127,2
1,67,0,58
1,67,127,2
1,67,0,118
1,66,127,2
1,66,0,58
1,66,127,2
1,66,0,58
1,66,127,2
1,66,0,118
1,66,127,2
1,66,0,58
1,66,127,2
1,66,0,58
1,66,127,2
1,66,0,118
1,64,127,2
1,64,0,58
1,62,127,2
1,62,0,58
1,66,127,2
1,66,0,120
1,64,127,0
1,64,0,30
1,62,127,0
1,62,0,130
1,67,127,440
1,67,0,58
1,67,127,2
1,67,0,78
1,66,127,2
1,66,0,78
1,62,127,2
1,62,0,78
1,62,127,2
1,62,0,60
1,60,127,0
1,60,0,270
1,67,127,330
1,67,0,58
1,67,127,2
1,67,0,78
1,66,127,2
1,66,0,78
1,62,127,2
1,62,0,78
1,62,127,2
1,62,0,330
1,67,127,330
1,67,0,58
1,67,127,2
1,67,0,78
1,66,127,2
1,66,0,78
1,62,127,2
1,62,0,78
1,62,127,2
1,62,0,60
1,60,127,0
1,60,0,270
1,67,127,330
1,67,0,58
1,67,127,2
1,67,0,78
1,66,127,2
1,66,0,78
1,62,127,2
1,62,0,78
1,62,127,2
1,62,0,330
1,69,127,470
1,69,0,78
1,71,127,2
1,71,0,78
1,72,127,122
1,72,0,100
1,71,127,20
1,71,0,58
1,69,127,2
1,69,0,58
1,67,127,2
1,67,0,58
1,71,127,2
1,71,0,118
1,69,127,2
1,69,0,58
1,69,127,2
1,69,0,100
1,69,127,100
1,69,0,78
1,71,127,2
1,71,0,78
1,72,127,62
1,72,0,100
1,72,127,20
1,72,0,58
1,71,127,2
1,71,0,100
1,67,127,20
1,67,0,58
1,71,127,2
1,71,0,118
1,69,127,2
1,69,0,58
1,69,127,2
1,69,0,100
1,69,127,100
1,69,0,78
1,71,127,2
1,71,0,78
1,72,127,122
1,72,0,100
1,71,127,20
1,71,0,58
1,69,127,2
1,69,0,58
1,67,127,2
1,67,0,58
1,71,127,2
1,71,0,118
1,69,127,2
1,69,0,58
1,69,127,2
1,69,0,100
1,69,127,100
1,69,0,78
1,71,127,2
1,71,0,78
1,72,127,62
1,72,0,100
1,72,127,20
1,72,0,58
1,71,127,2
1,71,0,100
1,67,127,20
1,67,0,58
1,71,127,2
1,71,0,118
1,69,127,2
1,69,0,58
1,69,127,2
1,69,0,100
1,69,127,100
1,69,0,78
1,71,127,2
1,71,0,78
1,72,127,122
1,72,0,100
1,71,127,20
1,71,0,58
1,69,127,2
1,69,0,58
1,67,127,2
1,67,0,58
1,71,127,2
1,71,0,118
1,69,127,2
1,69,0,58
1,69,127,2
1,69,0,100
1,69,127,100
1,69,0,78
1,71,127,2
1,71,0,78
1,72,127,62
1,72,0,100
1,72,127,20
1,72,0,58
1,71,127,2
1,71,0,100
1,67,127,20
1,67,0,58
1,71,127,2
1,71,0,118
1,69,127,2
1,69,0,58
1,69,127,2
1,69,0,1170
2,57,127,240
2,66,127,0
2,66,0,78
2,57,0,0
2,59,127,2
2,67,127,0
2,67,0,78
2,59,0,0
2,60,127,2
2,69,127,0
2,69,0,78
2,60,0,0
2,60,127,2
2,69,127,0
2,69,0,100
2,60,0,0
2,59,127,20
2,67,127,0
2,67,0,58
2,59,0,0
2,59,127,2
2,67,127,0
2,67,0,160
2,59,0,0
2,57,127,20
2,66,127,0
2,66,0,58
2,57,0,0
2,57,127,2
2,66,127,0
2,66,0,160
2,57,0,0
2,55,127,20
2,64,127,0
2,64,0,58
2,55,0,0
2,55,127,2
2,64,127,0
2,64,0,60
2,55,0,0
2,55,127,0
2,64,127,0
2,64,0,100
2,55,0,0
2,54,127,20
2,62,127,0
2,62,0,100
2,54,0,0
2,57,127,20
2,66,127,0
2,66,0,330
2,57,0,0
2,57,127,390
2,66,127,0
2,66,0,78
2,57,0,0
2,59,127,2
2,67,127,0
2,67,0,78
2,59,0,0
2,60,127,2
2,69,127,0
2,69,0,78
2,60,0,0
2,60,127,2
2,69,127,0
2,69,0,100
2,60,0,0
2,59,127,20
2,67,127,0
2,67,0,58
2,59,0,0
2,59,127,2
2,67,127,0
2,67,0,160
2,59,0,0
2,57,127,20
2,66,127,0
2,66,0,58
2,57,0,0
2,57,127,2
2,66,127,0
2,66,0,160
2,57,0,0
2,55,127,20
2,64,127,0
2,64,0,58
2,55,0,0
2,55,127,2
2,64,127,0
2,64,0,60
2,55,0,0
2,55,127,0
2,64,127,0
2,64,0,100
2,55,0,0
2,64,127,20
2,64,0,58
2,66,127,2
2,66,0,28
2,64,127,2
2,64,0,28
2,57,127,2
2,66,127,0
2,66,0,330
2,57,0,0
2,57,127,390
2,66,127,0
2,66,0,78
2,57,0,0
2,59,127,2
2,67,127,0
2,67,0,78
2,59,0,0
2,60,127,2
2,69,127,0
2,69,0,78
2,60,0,0
2,60,127,2
2,69,127,0
2,69,0,100
2,60,0,0
2,59,127,20
2,67,127,0
2,67,0,210
2,59,0,0
2,57,127,30
2,66,127,0
2,66,0,58
2,57,0,0
2,57,127,2
2,66,127,0
2,66,0,160
2,57,0,0
2,55,127,20
2,64,127,0
2,64,0,58
2,55,0,0
2,55,127,2
2,64,127,0
2,64,0,160
2,55,0,0
2,54,127,20
2,62,127,0
2,62,0,58
2,54,0,0
2,57,127,2
2,66,127,0
2,66,0,118
2,64,127,2
2,64,0,28
2,66,127,2
2,57,0,120
2,66,0,10
2,57,127,500
2,66,127,0
2,66,0,78
2,57,0,0
2,59,127,2
2,67,127,0
2,67,0,78
2,59,0,0
2,60,127,2
2,69,127,0
2,69,0,78
2,60,0,0
2,60,127,2
2,69,127,0
2,69,0,100
2,60,0,0
2,59,127,20
2,67,127,0
2,67,0,58
2,59,0,0
2,59,127,2
2,67,127,0
2,67,0,118
2,59,0,0
2,57,127,2
2,66,127,0
2,66,0,100
2,57,0,0
2,57,127,20
2,66,127,0
2,66,0,160
2,57,0,0
2,57,127,20
2,66,127,0
2,66,0,58
2,57,0,0
2,57,127,2
2,66,127,0
2,66,0,118
2,57,0,0
2,55,127,2
2,64,127,0
2,64,0,58
2,55,0,0
2,54,127,2
2,62,127,0
2,62,0,58
2,54,0,0
2,57,127,2
2,66,127,0
2,66,0,118
2,64,127,2
2,64,0,28
2,62,127,2
2,57,0,120
2,62,0,10
2,67,127,440
2,67,0,58
2,59,127,2
2,67,127,0
2,67,0,78
2,59,0,0
2,57,127,2
2,66,127,0
2,66,0,78
2,57,0,0
2,54,127,2
2,62,127,0
2,62,0,78
2,54,0,0
2,54,127,2
2,62,127,0
2,62,0,58
2,60,127,2
2,60,0,270
2,54,0,0
2,67,127,330
2,67,0,58
2,59,127,2
2,67,127,0
2,67,0,78
2,59,0,0
2,57,127,2
2,66,127,0
2,66,0,78
2,57,0,0
2,54,127,2
2,62,127,0
2,62,0,78
2,54,0,0
2,54,127,2
2,62,127,0
2,62,0,330
2,54,0,0
2,67,127,330
2,67,0,58
2,59,127,2
2,67,127,0
2,67,0,78
2,59,0,0
2,57,127,2
2,66,127,0
2,66,0,78
2,57,0,0
2,54,127,2
2,62,127,0
2,62,0,78
2,54,0,0
2,54,127,2
2,62,127,0
2,62,0,58
2,60,127,2
2,60,0,270
2,54,0,0
2,67,127,330
2,67,0,58
2,59,127,2
2,67,127,0
2,67,0,78
2,59,0,0
2,57,127,2
2,66,127,0
2,66,0,78
2,57,0,0
2,54,127,2
2,62,127,0
2,62,0,78
2,54,0,0
2,54,127,2
2,62,127,0
2,62,0,330
2,54,0,0
2,57,127,390
2,66,127,0
2,66,0,78
2,57,0,0
2,59,127,2
2,67,127,0
2,67,0,78
2,59,0,0
2,60,127,2
2,69,127,0
2,69,0,78
2,60,0,0
2,60,127,2
2,69,127,0
2,69,0,100
2,60,0,0
2,59,127,20
2,67,127,0
2,67,0,210
2,59,0,0
2,57,127,30
2,66,127,0
2,66,0,58
2,57,0,0
2,57,127,2
2,66,127,0
2,66,0,160
2,57,0,0
2,55,127,20
2,64,127,0
2,64,0,58
2,55,0,0
2,55,127,2
2,64,127,0
2,64,0,160
2,55,0,0
2,54,127,20
2,62,127,0
2,62,0,58
2,54,0,0
2,57,127,2
2,66,127,0
2,66,0,118
2,64,127,2
2,64,0,28
2,66,127,2
2,57,0,120
2,66,0,10
2,57,127,500
2,66,127,0
2,66,0,78
2,57,0,0
2,59,127,2
2,67,127,0
2,67,0,78
2,59,0,0
2,60,127,2
2,69,127,0
2,69,0,78
2,60,0,0
2,60,127,2
2,69,127,0
2,69,0,100
2,60,0,0
2,59,127,20
2,67,127,0
2,67,0,58
2,59,0,0
2,59,127,2
2,67,127,0
2,67,0,118
2,59,0,0
2,57,127,2
2,66,127,0
2,66,0,100
2,57,0,0
2,57,127,20
2,66,127,0
2,66,0,160
2,57,0,0
2,57,127,20
2,66,127,0
2,66,0,58
2,57,0,0
2,57,127,2
2,66,127,0
2,66,0,118
2,57,0,0
2,55,127,2
2,64,127,0
2,64,0,58
2,55,0,0
2,54,127,2
2,62,127,0
2,62,0,58
2,54,0,0
2,57,127,2
2,66,127,0
2,66,0,118
2,64,127,2
2,64,0,28
2,62,127,2
2,57,0,120
2,62,0,10
2,67,127,440
2,67,0,58
2,59,127,2
2,67,127,0
2,67,0,78
2,59,0,0
2,57,127,2
2,66,127,0
2,66,0,78
2,57,0,0
2,54,127,2
2,62,127,0
2,62,0,78
2,54,0,0
2,54,127,2
2,62,127,0
2,62,0,58
2,60,127,2
2,60,0,270
2,54,0,0
2,67,127,330
2,67,0,58
2,59,127,2
2,67,127,0
2,67,0,78
2,59,0,0
2,57,127,2
2,66,127,0
2,66,0,78
2,57,0,0
2,54,127,2
2,62,127,0
2,62,0,78
2,54,0,0
2,54,127,2
2,62,127,0
2,62,0,330
2,54,0,0
2,67,127,330
2,67,0,58
2,59,127,2
2,67,127,0
2,67,0,78
2,59,0,0
2,57,127,2
2,66,127,0
2,66,0,78
2,57,0,0
2,54,127,2
2,62,127,0
2,62,0,78
2,54,0,0
2,54,127,2
2,62,127,0
2,62,0,58
2,60,127,2
2,60,0,270
2,54,0,0
