track,note,velocity,time
1,33,126,6900
1,33,123,128
1,33,123,140
1,38,127,48
1,38,124,136
1,38,117,140
1,38,126,64
1,40,127,16
1,40,121,134
1,40,126,148
1,38,126,12
1,38,127,110
1,38,126,116
1,38,127,52
1,40,123,38
1,33,123,32
1,33,123,92
1,33,117,124
1,38,126,36
1,38,127,134
1,38,124,140
1,38,121,58
1,40,127,52
1,40,113,116
1,40,121,136
1,38,126,10
1,38,109,130
1,38,118,130
1,38,127,58
1,33,126,8
1,33,123,128
1,33,123,140
1,38,127,48
1,38,124,136
1,38,117,140
1,38,126,64
1,40,127,16
1,40,121,134
1,40,126,148
1,38,126,12
1,38,127,110
1,38,126,116
1,38,127,52
1,40,123,38
1,33,123,32
1,33,123,92
1,33,117,124
1,38,126,36
1,38,127,134
1,38,124,140
1,38,121,58
1,40,127,52
1,40,113,116
1,40,121,136
1,38,126,10
1,38,109,130
1,38,118,130
1,38,127,58
1,33,126,8
1,33,123,128
1,33,123,140
1,38,127,48
1,38,124,136
1,38,117,140
1,38,126,64
1,40,127,16
1,40,121,134
1,40,126,148
1,38,126,12
1,38,127,110
1,38,126,116
1,38,127,52
1,40,123,38
1,33,123,32
1,33,123,92
1,33,117,124
1,38,126,36
1,38,127,134
1,38,124,140
1,38,121,58
1,40,127,52
1,40,113,116
1,40,121,136
1,38,126,10
1,38,109,130
1,38,118,130
1,38,127,58
1,33,126,8
1,33,123,128
1,33,123,140
1,38,127,48
1,38,124,136
1,38,117,140
1,38,126,64
1,40,127,16
1,40,121,134
1,40,126,148
1,38,126,12
1,38,127,110
1,38,126,116
1,38,127,52
1,40,123,38
1,33,123,32
1,33,123,92
1,33,117,124
1,38,126,36
1,38,127,134
1,38,124,140
1,38,121,58
1,40,127,52
1,40,113,116
1,40,121,136
1,38,126,10
1,38,109,130
1,38,118,130
1,38,127,58
1,33,126,8
1,33,123,128
1,33,123,140
1,38,127,48
1,38,124,136
1,38,117,140
1,38,126,64
1,40,127,16
1,40,121,134
1,40,126,148
1,38,126,12
1,38,127,110
1,38,126,116
1,38,127,52
1,40,123,38
1,33,123,32
1,33,123,92
1,33,117,124
1,38,126,36
1,38,127,134
1,38,124,140
1,38,121,58
1,40,127,52
1,40,113,116
1,40,121,136
1,38,126,10
1,38,109,130
1,38,118,130
1,38,127,58
1,40,116,8
1,40,121,118
1,40,121,122
1,35,95,18
1,40,101,26
1,40,122,110
1,35,94,92
1,40,108,38
1,40,113,42
1,38,99,54
1,38,116,104
1,38,119,118
1,33,95,18
1,38,99,34
1,38,122,104
1,33,108,110
1,38,97,38
1,38,113,48
1,40,119,44
1,40,119,118
1,40,110,124
1,35,86,18
1,40,109,38
1,40,109,110
1,35,105,110
1,40,110,40
1,40,108,62
1,38,95,38
1,38,116,104
1,38,110,116
1,33,88,26
1,38,95,20
1,38,119,110
1,33,101,104
1,38,105,44
1,38,116,62
1,40,103,44
1,40,103,122
1,40,116,130
1,35,89,32
1,40,103,34
1,40,99,104
1,35,86,110
1,40,101,38
1,40,108,68
1,38,101,18
1,38,101,98
1,38,119,122
1,33,85,26
1,38,95,26
1,38,119,98
1,33,95,92
1,38,119,38
1,38,108,56
1,33,126,50
1,33,123,128
1,33,123,140
1,38,127,48
1,38,124,136
1,38,117,140
1,38,126,64
1,40,127,16
1,40,121,134
1,40,126,148
1,38,126,12
1,38,127,110
1,38,126,116
1,38,127,52
1,40,123,38
1,33,123,32
1,33,123,92
1,33,117,124
1,38,126,36
1,38,127,134
1,38,124,140
1,38,121,58
1,40,127,52
1,40,113,116
1,40,121,136
1,38,126,10
1,38,109,130
1,38,118,130
1,38,127,58
1,33,126,8
1,33,123,128
1,33,123,140
1,38,127,48
1,38,124,136
1,38,117,140
1,38,126,64
1,40,127,16
1,40,121,134
1,40,126,148
1,38,126,12
1,38,127,110
1,38,126,116
1,38,127,52
1,40,123,38
1,33,123,32
1,33,123,92
1,33,117,124
1,38,126,36
1,38,127,134
1,38,124,140
1,38,121,58
1,40,127,52
1,40,113,116
1,40,121,136
1,38,126,10
1,38,109,130
1,38,118,130
1,38,127,58
1,33,126,8
1,33,123,128
1,33,123,140
1,38,127,48
1,38,124,136
1,38,117,140
1,38,126,64
1,40,127,16
1,40,121,134
1,40,126,148
1,38,126,12
1,38,127,110
1,38,126,116
1,38,127,52
1,40,123,38
1,33,123,32
1,33,123,92
1,33,117,124
1,38,126,36
1,38,127,134
1,38,124,140
1,38,121,58
1,40,127,52
1,40,113,116
1,40,121,136
1,38,126,10
1,38,109,130
1,38,118,130
1,38,127,58
1,33,126,8
1,33,123,128
1,33,123,140
1,38,127,48
1,38,124,136
1,38,117,140
1,38,126,64
1,40,127,16
1,40,121,134
1,40,126,148
1,38,126,12
1,38,127,110
1,38,126,116
1,38,127,52
1,40,123,38
1,33,123,32
1,33,123,92
1,33,117,124
1,38,126,36
1,38,127,134
1,38,124,140
1,38,121,58
1,40,127,52
1,40,113,116
1,40,121,136
1,38,126,10
1,38,109,130
1,38,118,130
1,38,127,58
1,33,126,8
1,33,123,128
1,33,123,140
1,38,127,48
1,38,124,136
1,38,117,140
1,38,126,64
1,40,127,16
1,40,121,134
1,40,126,148
1,38,126,12
1,38,127,110
1,38,126,116
1,38,127,52
1,40,123,38
1,33,123,32
1,33,123,92
1,33,117,124
1,38,126,36
1,38,127,134
1,38,124,140
1,38,121,58
1,40,127,52
1,40,113,116
1,40,121,136
1,38,126,10
1,38,109,130
1,38,118,130
1,38,127,58
1,40,116,8
1,40,121,118
1,40,121,122
1,35,95,18
1,40,101,26
1,40,122,110
1,35,94,92
1,40,108,38
1,40,113,42
1,38,99,54
1,38,116,104
1,38,119,118
1,33,95,18
1,38,99,34
1,38,122,104
1,33,108,110
1,38,97,38
1,38,113,48
1,40,119,44
1,40,119,118
1,40,110,124
1,35,86,18
1,40,109,38
1,40,109,110
1,35,105,110
1,40,110,40
1,40,108,62
1,38,95,38
1,38,116,104
1,38,110,116
1,33,88,26
1,38,95,20
1,38,119,110
1,33,101,104
1,38,105,44
1,38,116,62
1,40,103,44
1,40,103,122
1,40,116,130
1,35,89,32
1,40,103,34
1,40,99,104
1,35,86,110
1,40,101,38
1,40,108,68
1,38,101,18
1,38,101,98
1,38,119,122
1,33,85,26
1,38,95,26
1,38,119,98
1,33,95,92
1,38,119,38
1,38,108,56
1,33,126,50
1,33,123,128
1,33,123,140
1,38,127,48
1,38,124,136
1,38,117,140
1,38,126,64
1,40,127,16
1,40,121,134
1,40,126,148
1,38,126,12
1,38,127,110
1,38,126,116
1,38,127,52
1,40,123,38
1,33,123,32
1,33,123,92
1,33,117,124
1,38,126,36
1,38,127,134
1,38,124,140
1,38,121,58
1,40,127,52
1,40,113,116
1,40,121,136
1,38,126,10
1,38,109,130
1,38,118,130
1,38,127,58
1,33,126,8
1,33,123,128
1,33,123,140
1,38,127,48
1,38,124,136
1,38,117,140
1,38,126,64
1,40,127,16
1,40,121,134
1,40,126,148
1,38,126,12
1,38,127,110
1,38,126,116
1,38,127,52
1,40,123,38
1,33,123,32
1,33,123,92
1,33,117,124
1,38,126,36
1,38,127,134
1,38,124,140
1,38,121,58
1,40,127,52
1,40,113,116
1,40,121,136
1,38,126,10
1,38,109,130
1,38,118,130
1,38,127,58
1,33,126,8
1,33,123,128
1,33,123,140
1,38,127,48
1,38,124,136
1,38,117,140
1,38,126,64
1,40,127,16
1,40,121,134
1,40,126,148
1,38,126,12
1,38,127,110
1,38,126,116
1,38,127,52
1,40,123,38
1,33,123,32
1,33,123,92
1,33,117,124
1,38,126,36
1,38,127,134
1,38,124,140
1,38,121,58
1,40,127,52
1,40,113,116
1,40,121,136
1,38,126,10
1,38,109,130
1,38,118,130
1,38,127,58
1,33,126,8
1,33,123,128
1,33,123,140
1,38,127,48
1,38,124,136
1,38,117,140
1,38,126,64
1,40,127,16
1,40,121,134
1,40,126,148
1,38,126,12
1,38,127,110
1,38,126,116
1,38,127,52
1,40,123,38
1,33,123,32
1,33,123,92
1,33,117,124
1,38,126,36
1,38,127,134
1,38,124,140
1,38,121,58
1,40,127,52
1,40,113,116
1,40,121,136
1,38,126,10
1,38,109,130
1,38,118,130
1,38,127,58
1,33,126,8
1,33,123,128
1,33,123,140
1,38,127,48
1,38,124,136
1,38,117,140
1,38,126,64
1,40,127,16
1,40,121,134
1,40,126,148
1,38,126,12
1,38,127,110
1,38,126,116
1,38,127,52
1,40,123,38
1,33,123,32
1,33,123,92
1,33,117,124
1,38,126,36
1,38,127,134
1,38,124,140
1,38,121,58
1,40,127,52
1,40,113,116
1,40,121,136
1,38,126,10
1,38,109,130
1,38,118,130
1,38,127,58
1,40,116,8
1,40,121,118
1,40,121,122
1,35,95,18
1,40,101,26
1,40,122,110
1,35,94,92
1,40,108,38
1,40,113,42
1,38,99,54
1,38,116,104
1,38,119,118
1,33,95,18
1,38,99,34
1,38,122,104
1,33,108,110
1,38,97,38
1,38,113,48
1,40,119,44
1,40,119,118
1,40,110,124
1,35,86,18
1,40,109,38
1,40,109,110
1,35,105,110
1,40,110,40
1,40,108,62
1,38,95,38
1,38,116,104
1,38,110,116
1,33,88,26
1,38,95,20
1,38,119,110
1,33,101,104
1,38,105,44
1,38,116,62
1,40,103,44
1,40,103,122
1,40,116,130
1,35,89,32
1,40,103,34
1,40,99,104
1,35,86,110
1,40,101,38
1,40,108,68
1,38,101,18
1,38,101,98
1,38,119,122
1,42,116,28
1,45,92,12
1,45,104,72
1,42,116,34
1,37,116,42
1,35,108,30
1,33,123,32
1,33,123,92
1,33,117,124
1,38,126,36
1,38,127,134
1,38,124,140
1,38,121,58
1,40,101,52
1,40,101,98
1,40,119,122
1,42,116,28
1,45,92,12
1,45,104,72
1,42,116,34
1,37,116,42
1,35,108,30
1,33,123,32
1,33,123,92
1,33,117,124
1,38,126,36
1,38,127,134
1,38,124,140
1,38,121,58
1,40,101,52
1,40,101,98
1,40,119,122
1,42,116,28
1,45,92,12
1,45,104,72
1,42,116,34
1,37,116,42
1,35,108,30
1,33,123,32
1,33,123,92
1,33,117,124
1,38,126,36
1,38,127,134
1,38,124,140
1,38,121,58
1,40,101,52
1,40,101,98
1,40,119,122
1,42,116,28
1,45,92,12
1,45,104,72
1,42,116,34
1,37,116,42
1,35,108,30
1,33,123,32
1,33,123,92
1,33,117,124
1,38,126,36
1,38,127,134
1,38,124,140
1,38,121,58
1,40,101,52
1,40,101,98
1,40,119,122
1,42,116,28
1,45,92,12
1,45,104,72
1,42,116,34
1,37,116,42
1,35,108,30
1,33,123,32
1,33,123,92
1,33,117,124
1,38,126,36
1,38,127,134
1,38,124,140
1,38,121,58
1,40,101,52
1,40,101,98
1,40,119,122
1,42,116,28
1,45,92,12
1,45,104,72
1,42,116,34
1,37,116,42
1,35,108,30
1,33,123,32
1,33,123,92
1,33,117,124
1,38,126,36
1,38,127,134
1,38,124,140
1,38,121,58
1,40,101,52
1,40,101,98
1,40,119,122
1,42,116,28
1,45,92,12
1,45,104,72
1,42,116,34
1,37,116,42
1,35,108,30
1,33,123,32
1,33,123,92
1,33,117,124
1,38,126,36
1,38,127,134
1,38,124,140
1,38,121,58
1,40,101,52
1,40,101,98
1,40,119,122
1,42,116,28
1,45,92,12
1,45,104,72
1,42,116,34
1,37,116,42
1,35,108,30
1,33,123,32
1,33,123,92
1,33,117,124
1,38,126,36
1,38,127,134
1,38,124,140
1,38,121,58
1,40,101,52
1,40,101,98
1,40,119,122
1,42,116,28
1,45,92,12
1,45,104,72
1,42,116,34
1,37,116,42
1,35,108,30
1,33,123,32
1,33,123,92
1,33,117,124
1,38,126,36
1,38,127,134
1,38,124,140
1,38,121,58
1,40,101,52
1,40,101,98
1,40,119,122
1,42,116,28
1,45,92,12
1,45,104,72
1,42,116,34
1,37,116,42
1,35,108,30
1,33,123,32
1,33,123,92
1,33,117,124
1,38,126,36
1,38,127,134
1,38,124,140
1,38,121,58
1,40,101,52
1,40,101,98
1,40,119,122
1,42,116,28
1,45,92,12
1,45,104,72
1,42,116,34
1,37,116,42
1,35,108,30
1,33,126,32
1,33,123,128
1,33,123,0
1,38,127,48
1,38,124,96
1,38,117,96
1,38,126,64
1,40,127,16
1,40,121,134
1,40,126,148
1,38,126,12
1,38,127,96
1,38,126,96
1,38,127,0
1,40,123,38
1,33,123,32
1,33,123,92
1,33,117,0
1,38,126,36
1,38,127,96
1,38,124,96
1,38,121,58
1,40,127,0
1,40,113,116
1,40,121,136
1,38,126,10
1,38,109,96
1,38,118,96
1,38,127,0
2,81,98,1152
2,76,98,0
2,85,98,0
2,81,98,4
2,78,98,0
2,86,98,0
2,88,98,4
2,83,98,0
2,80,98,0
2,78,98,4
2,81,98,0
2,86,98,0
2,85,98,4
2,76,98,0
2,81,98,0
2,78,113,4
2,81,113,0
2,86,113,0
2,80,113,4
2,88,113,0
2,83,113,0
2,78,125,4
2,86,125,0
2,81,125,0
2,76,98,0
2,85,98,0
2,81,98,0
2,86,98,4
2,78,98,0
2,81,98,0
2,80,98,4
2,88,98,0
2,83,98,0
2,78,98,4
2,86,98,0
2,81,98,0
2,85,98,0
2,81,98,0
2,76,98,0
2,81,98,4
2,86,98,0
2,78,98,0
2,80,98,4
2,88,98,0
2,83,98,0
2,86,98,4
2,81,98,0
2,78,98,0
2,73,86,6
2,83,100,0
2,80,89,0
2,88,90,0
2,85,123,0
2,81,96,4
2,83,90,0
2,85,57,0
2,86,90,0
2,78,84,0
2,71,89,8
2,69,86,744
2,71,89,328
2,73,84,20
2,85,84,4
2,80,84,0
2,83,89,0
2,88,80,0
2,71,86,2
2,81,87,2
2,83,87,0
2,78,80,0
2,86,89,0
2,69,86,762
2,72,82,12
2,73,95,2
2,76,76,2
2,83,108,2
2,80,72,0
2,85,119,0
2,88,90,0
2,71,93,1526
2,81,98,4
2,78,77,0
2,86,105,0
2,83,98,0
2,69,86,16
2,73,66,4
2,76,82,0
2,92,98,10
2,93,112,12
2,78,66,34
2,74,76,0
2,76,76,14
2,80,57,0
2,74,65,672
2,78,69,0
2,88,89,22
2,90,98,6
2,73,64,44
2,76,71,0
2,93,111,18
2,74,64,2
2,78,64,0
2,76,64,36
2,80,51,0
2,74,56,672
2,78,56,0
2,90,95,18
2,88,95,0
2,76,73,2
2,85,74,0
2,81,64,0
2,81,55,8
2,78,57,0
2,86,60,0
2,83,52,18
2,80,52,0
2,88,56,0
2,81,53,10
2,86,58,0
2,78,49,0
2,76,62,58
2,81,54,0
2,85,54,0
2,78,57,26
2,81,53,0
2,86,60,0
2,88,57,44
2,83,54,0
2,80,50,0
2,78,51,2
2,81,55,0
2,86,62,0
2,81,57,50
2,85,52,0
2,76,62,0
2,86,50,672
2,78,46,0
2,80,46,6
2,88,59,0
2,83,59,0
2,86,53,656
2,78,65,0
2,81,51,0
2,85,50,6
2,81,51,0
2,76,65,0
2,86,57,2
2,78,56,0
2,81,51,0
2,80,40,24
2,83,60,0
2,88,53,0
2,81,45,668
2,86,48,0
2,78,42,0
2,76,55,68
2,81,48,0
2,85,45,0
2,78,46,672
2,86,51,0
2,88,50,6
2,83,63,0
2,80,46,0
2,81,48,6
2,86,55,0
2,78,53,0
2,85,56,30
2,81,55,0
2,76,59,0
2,86,54,2
2,78,59,0
2,80,50,6
2,83,63,0
2,88,47,0
2,86,52,658
2,81,47,0
2,78,50,0
2,76,59,36
2,85,53,0
2,81,53,0
2,86,50,4
2,78,54,0
2,80,46,864
2,88,51,0
2,83,57,0
2,81,48,10
2,78,57,0
2,86,51,0
2,81,55,50
2,85,64,0
2,76,64,0
2,86,65,0
2,78,61,0
2,81,63,0
2,88,60,34
2,83,72,0
2,80,65,0
2,86,62,4
2,81,66,0
2,78,56,0
2,83,100,844
2,85,123,0
2,88,90,0
2,73,86,0
2,80,89,0
2,86,90,4
2,83,90,0
2,78,84,0
2,85,57,0
2,81,96,0
2,71,89,8
2,69,86,744
2,71,89,328
2,73,84,20
