track,note,velocity,time
1,46,77,1800
1,46,0,120
1,51,89,0
1,51,0,840
1,55,77,0
1,55,0,120
1,56,83,0
1,56,0,120
1,57,81,360
1,57,0,120
1,58,89,360
1,58,0,960
1,87,84,0
1,82,70,0
1,79,70,0
1,75,70,0
1,75,0,120
1,87,0,0
1,82,0,0
1,79,0,0
1,46,77,720
1,46,0,120
1,51,89,0
1,51,0,840
1,55,77,0
1,55,0,120
1,58,83,0
1,58,0,120
1,60,81,360
1,60,0,120
1,61,89,360
1,61,0,960
1,91,85,0
1,87,70,0
1,82,70,0
1,79,70,0
1,79,0,120
1,91,0,0
1,87,0,0
1,82,0,0
1,48,77,720
1,48,0,120
1,51,89,0
1,51,0,840
1,56,64,0
1,56,0,120
1,60,72,0
1,60,0,320
1,61,75,0
1,61,0,320
1,62,79,0
1,62,0,320
1,63,89,0
1,63,0,960
1,92,84,0
1,87,70,0
1,84,70,0
1,80,70,0
1,80,0,120
1,92,0,0
1,87,0,0
1,84,0,0
1,48,77,720
1,48,0,120
1,51,89,0
1,51,0,840
1,56,70,0
1,56,0,120
1,60,68,0
1,60,0,240
1,63,70,0
1,63,0,240
1,64,74,0
1,64,0,240
1,65,79,0
1,65,0,240
1,66,89,0
1,66,0,960
1,93,84,0
1,90,70,0
1,84,70,0
1,81,70,0
1,81,0,120
1,93,0,0
1,90,0,0
1,84,0,0
1,63,36,1000
1,68,36,0
1,68,0,48
1,63,0,0
1,65,36,112
1,71,36,0
1,71,0,48
1,65,0,0
1,66,40,112
1,72,40,0
1,72,0,48
1,66,0,0
1,68,37,112
1,74,37,0
1,74,0,48
1,68,0,0
1,69,37,112
1,75,37,0
1,75,0,48
1,69,0,0
1,71,41,112
1,77,41,0
1,77,0,48
1,71,0,0
1,72,37,112
1,78,37,0
1,78,0,48
1,72,0,0
1,74,38,112
1,80,38,0
1,80,0,48
1,74,0,0
1,75,42,112
1,81,42,0
1,81,0,48
1,75,0,0
1,77,40,112
1,83,40,0
1,83,0,48
1,77,0,0
1,78,40,112
1,84,40,0
1,84,0,48
1,78,0,0
1,80,42,112
1,86,42,0
1,86,0,48
1,80,0,0
1,81,44,112
1,87,44,0
1,87,0,48
1,81,0,0
1,83,45,112
1,89,45,0
1,89,0,48
1,83,0,0
1,84,46,112
1,90,46,0
1,90,0,48
1,84,0,0
1,86,47,112
1,92,47,0
1,92,0,48
1,86,0,0
1,87,48,112
1,93,48,0
1,93,0,48
1,87,0,0
1,89,51,112
1,95,51,0
1,95,0,48
1,89,0,0
1,90,53,112
1,96,53,0
1,96,0,48
1,90,0,0
1,91,55,112
1,97,55,0
1,97,0,48
1,91,0,0
1,92,58,112
1,98,58,0
1,98,0,36
1,92,0,0
1,93,61,84
1,99,61,0
1,99,0,36
1,93,0,0
1,94,62,84
1,100,62,0
1,100,0,36
1,94,0,0
1,95,64,84
1,101,64,0
1,101,0,36
1,95,0,0
1,102,67,84
1,96,67,0
1,96,0,36
1,102,0,0
1,75,50,1644
1,69,40,240
1,75,0,360
1,77,46,0
1,77,0,60
1,75,47,0
1,75,0,60
1,74,50,0
1,74,0,240
1,72,41,0
1,72,0,150
1,72,30,60
1,69,0,30
1,77,47,0
1,77,0,240
1,72,0,0
1,69,37,0
1,69,0,240
1,70,37,0
1,70,0,240
1,70,50,720
1,64,40,480
1,70,0,360
1,72,46,0
1,72,0,60
1,70,47,0
1,70,0,60
1,68,50,0
1,68,0,240
1,67,41,0
1,67,0,150
1,67,30,60
1,64,0,30
1,72,47,0
1,72,0,240
1,67,0,0
1,64,37,0
1,64,0,240
1,65,37,0
1,65,0,240
1,65,50,720
1,63,40,480
1,65,0,360
1,67,46,0
1,67,0,60
1,65,47,0
1,65,0,60
1,64,50,0
1,64,0,240
1,65,41,0
1,65,0,150
1,58,36,30
1,65,41,30
1,63,0,30
1,70,45,0
1,70,0,240
1,65,0,0
1,62,37,0
1,62,0,240
1,58,0,0
1,63,37,0
1,63,0,240
1,58,36,180
1,63,35,30
1,71,45,30
1,71,0,240
1,63,0,0
1,62,37,0
1,62,0,240
1,58,0,0
1,63,37,0
1,63,0,240
1,63,31,180
1,63,0,50
1,53,37,10
1,56,37,0
1,63,37,0
1,63,0,240
1,59,31,0
1,59,0,240
1,63,37,0
1,63,0,240
1,60,31,0
1,60,0,240
1,56,0,0
1,53,0,0
1,63,39,0
1,63,0,320
1,61,33,0
1,61,0,320
1,63,33,0
1,63,0,320
1,62,35,0
1,62,0,240
1,63,28,0
1,63,0,60
1,62,28,0
1,62,0,60
1,61,28,0
1,61,0,60
1,62,28,0
1,62,0,60
1,58,32,0
1,62,35,30
1,67,38,30
1,67,0,300
1,62,0,0
1,58,0,0
1,56,35,0
1,65,35,0
1,65,0,120
1,56,0,0
1,58,60,3720
1,58,0,120
1,63,68,0
1,63,0,840
1,67,57,0
1,67,0,120
1,68,57,0
1,68,0,60
1,69,66,420
1,69,0,60
1,70,71,420
1,70,0,960
1,75,68,0
1,75,0,60
1,67,49,420
1,70,63,0
1,70,0,360
1,67,0,0
1,65,46,0
1,68,59,0
1,68,0,60
1,65,0,0
1,67,47,0
1,70,59,0
1,70,0,60
1,67,0,0
1,65,54,0
1,68,69,0
1,68,0,240
1,65,0,0
1,67,60,480
1,64,50,0
1,64,0,240
1,67,0,0
1,68,66,0
1,65,51,0
1,65,0,60
1,68,0,0
1,67,50,420
1,70,64,0
1,70,0,60
1,67,0,0
1,67,68,420
1,63,54,0
1,63,0,960
1,67,0,0
1,58,58,160
1,58,0,160
1,59,50,0
1,59,0,160
1,60,51,0
1,60,0,160
1,61,55,0
1,61,0,160
1,62,58,0
1,62,0,160
1,63,68,0
1,63,0,840
1,67,57,0
1,67,0,120
1,68,57,0
1,68,0,60
1,69,66,420
1,69,0,60
1,69,49,300
1,69,0,40
1,70,44,0
1,70,0,40
1,72,47,0
1,72,0,40
1,70,54,0
1,70,0,48
1,72,49,0
1,72,0,48
1,70,50,0
1,70,0,48
1,72,47,0
1,72,0,48
1,70,50,0
1,70,0,48
1,72,47,0
1,72,0,48
1,70,50,0
1,70,0,48
1,72,47,0
1,72,0,48
1,70,50,0
1,70,0,48
1,72,45,0
1,72,0,48
1,70,50,0
1,70,0,48
1,72,46,0
1,72,0,48
1,70,50,0
1,70,0,48
1,72,45,0
1,72,0,48
1,70,50,0
1,70,0,48
1,72,47,0
1,72,0,60
1,70,53,0
1,70,0,60
1,69,50,0
1,69,0,60
1,70,50,0
1,70,0,60
1,79,68,0
1,75,58,0
1,75,0,60
1,79,0,0
1,67,49,660
1,70,63,0
1,70,0,120
1,67,0,0
1,65,46,0
1,68,59,0
1,68,0,60
1,65,0,0
1,67,47,0
1,70,59,0
1,70,0,60
1,67,0,0
1,65,54,0
1,68,69,0
1,68,0,240
1,65,0,0
1,64,50,480
1,67,60,0
1,67,0,240
1,64,0,0
1,68,66,0
1,65,51,0
1,65,0,60
1,68,0,0
1,62,50,420
1,70,64,0
1,70,0,60
1,62,0,0
1,63,68,420
1,63,0,960
1,70,60,2760
1,70,0,120
1,63,62,0
1,75,74,0
1,75,0,840
1,63,0,0
1,67,52,0
1,79,62,0
1,79,0,120
1,67,0,0
1,68,52,0
1,80,62,0
1,80,0,60
1,68,0,0
1,69,56,420
1,81,67,0
1,81,0,60
1,69,0,0
1,70,44,300
1,70,0,60
1,75,46,0
1,75,0,60
1,82,53,0
1,82,0,69
1,84,41,0
1,84,0,68
1,82,41,0
1,81,41,68
1,82,0,1
1,81,0,68
1,82,41,0
1,82,0,68
1,84,48,0
1,84,0,69
1,82,41,0
1,82,0,68
1,75,48,1
1,75,0,80
1,70,42,0
1,70,0,80
1,63,46,0
1,63,0,80
1,70,52,0
1,70,0,80
1,75,63,0
1,75,0,80
1,82,73,0
1,82,0,80
1,87,81,0
1,87,0,60
1,67,54,660
1,70,54,0
1,70,0,110
1,67,0,0
1,67,33,10
1,70,40,0
1,70,0,60
1,67,0,0
1,66,33,0
1,69,40,0
1,69,0,60
1,66,0,0
1,65,39,0
1,68,49,0
1,68,0,60
1,65,0,0
1,82,42,300
1,79,36,0
1,79,0,60
1,82,0,0
1,81,43,0
1,78,37,0
1,78,0,60
1,81,0,0
1,77,44,0
1,80,50,0
1,80,0,60
1,77,0,0
1,94,41,300
1,91,36,0
1,91,0,60
1,94,0,0
1,90,37,0
1,93,41,0
1,93,0,60
1,90,0,0
1,92,48,0
1,89,44,0
1,89,0,60
1,92,0,0
1,64,36,300
1,67,42,0
1,67,0,120
1,64,0,0
1,65,43,0
1,68,49,0
1,68,0,60
1,65,0,0
1,67,38,180
1,70,44,0
1,70,0,60
1,67,0,0
1,67,52,180
1,63,44,0
1,63,0,960
1,67,0,0
1,70,52,160
1,58,52,0
1,58,0,160
1,71,52,0
1,59,52,0
1,70,0,20
1,59,0,140
1,72,50,0
1,60,50,0
1,71,0,20
1,60,0,140
1,73,56,0
1,61,56,0
1,72,0,20
1,61,0,140
1,74,60,0
1,62,60,0
1,73,0,20
1,62,0,140
1,75,84,0
1,63,71,0
1,74,0,20
1,63,0,820
1,75,0,0
1,79,66,0
1,67,56,0
1,67,0,120
1,79,0,0
1,80,73,0
1,68,61,0
1,68,0,60
1,80,0,0
1,81,78,420
1,69,66,0
1,69,0,60
1,81,0,0
1,70,44,300
1,70,0,60
1,75,46,0
1,75,0,60
1,82,60,0
1,82,0,69
1,84,45,0
1,84,0,68
1,82,45,0
1,81,45,68
1,82,0,1
1,81,0,68
1,82,45,0
1,82,0,68
1,84,52,0
1,84,0,69
1,82,45,0
1,82,0,68
1,75,52,1
1,75,0,70
1,70,47,0
1,70,0,69
1,63,51,0
1,63,0,70
1,70,58,0
1,70,0,70
1,75,62,0
1,75,0,69
1,82,68,0
1,82,0,60
1,82,74,9
1,82,0,63
1,91,85,0
1,87,75,0
1,87,0,60
1,91,0,0
1,67,54,660
1,70,54,0
1,70,0,110
1,67,0,0
1,67,33,10
1,70,40,0
1,70,0,60
1,67,0,0
1,66,33,0
1,69,40,0
1,69,0,60
1,66,0,0
1,65,39,0
1,68,49,0
1,68,0,60
1,65,0,0
1,82,42,300
1,79,36,0
1,79,0,60
1,82,0,0
1,81,43,0
1,78,37,0
1,78,0,60
1,81,0,0
1,77,44,0
1,80,50,0
1,80,0,60
1,77,0,0
1,94,41,300
1,91,36,0
1,91,0,60
1,94,0,0
1,90,37,0
1,93,41,0
1,93,0,60
1,90,0,0
1,92,48,0
1,89,44,0
1,89,0,60
1,92,0,0
1,64,36,300
1,67,42,0
1,67,0,120
1,64,0,0
1,65,41,0
1,68,49,0
1,68,0,160
1,65,0,0
1,68,38,0
1,72,44,0
1,72,0,240
1,68,0,0
1,67,38,0
1,70,44,0
1,70,0,80
1,67,0,0
1,67,52,0
1,63,44,0
1,63,0,480
1,67,0,0
1,85,69,960
1,82,55,0
1,82,0,480
1,85,0,0
1,84,58,0
1,80,48,0
1,80,0,360
1,84,0,0
1,86,43,0
1,86,0,60
1,84,49,0
1,84,0,60
1,82,54,0
1,79,46,0
1,79,0,60
1,82,0,0
1,80,49,180
1,77,40,0
1,77,0,60
1,80,0,0
1,79,51,180
1,75,43,0
1,75,0,60
1,79,0,0
1,77,46,180
1,70,38,0
1,70,0,60
1,77,0,0
1,75,54,180
1,67,46,0
1,67,0,60
1,75,0,0
1,67,48,300
1,63,40,0
1,63,0,120
1,67,0,0
1,68,61,0
1,65,52,0
1,65,0,240
1,68,0,0
1,70,45,0
1,70,0,60
1,68,45,0
1,68,0,60
1,67,51,0
1,64,43,0
1,64,0,120
1,67,0,0
1,68,56,0
1,65,47,0
1,65,0,60
1,68,0,0
1,69,54,180
1,66,46,0
1,66,0,60
1,69,0,0
1,70,59,180
1,67,50,0
1,67,0,240
1,70,0,0
1,85,69,240
1,82,55,0
1,82,0,480
1,85,0,0
1,84,58,0
1,80,48,0
1,80,0,360
1,84,0,0
1,86,43,0
1,86,0,60
1,84,49,0
1,84,0,60
1,82,54,0
1,79,46,0
1,79,0,60
1,82,0,0
1,80,49,180
1,77,40,0
1,77,0,60
1,80,0,0
1,79,51,180
1,75,43,0
1,75,0,60
1,79,0,0
1,77,46,180
1,70,38,0
1,70,0,60
1,77,0,0
1,75,54,180
1,67,46,0
1,67,0,60
1,75,0,0
1,67,48,300
1,63,40,0
1,63,0,120
1,67,0,0
1,68,61,0
1,65,52,0
1,65,0,240
1,68,0,0
1,70,45,0
1,70,0,60
1,68,45,0
1,68,0,60
1,67,51,0
1,64,43,0
1,64,0,120
1,67,0,0
1,68,56,0
1,65,47,0
1,65,0,60
1,68,0,0
1,70,54,180
1,62,46,0
1,62,0,60
1,70,0,0
1,63,59,180
1,63,0,240
1,82,63,240
1,87,67,30
1,97,71,30
1,97,0,360
1,87,0,0
1,82,0,0
1,80,64,0
1,87,66,30
1,96,69,30
1,96,0,360
1,87,0,0
1,80,0,0
1,94,40,0
1,98,48,0
1,98,0,60
1,94,0,0
1,92,42,0
1,96,55,0
1,96,0,60
1,92,0,0
1,94,61,0
1,91,61,0
1,91,0,120
1,94,0,0
1,92,51,120
1,89,51,0
1,89,0,60
1,92,0,0
1,91,56,180
1,87,56,0
1,87,0,60
1,91,0,0
1,89,49,180
1,82,49,0
1,82,0,60
1,89,0,0
1,87,55,180
1,79,55,0
1,79,0,60
1,87,0,0
1,63,40,360
1,67,48,0
1,67,0,60
1,63,0,0
1,68,61,0
1,65,52,0
1,65,0,240
1,68,0,0
1,70,45,0
1,70,0,60
1,68,45,0
1,68,0,60
1,67,51,0
1,64,43,0
1,64,0,120
1,67,0,0
1,68,56,0
1,65,47,0
1,65,0,60
1,68,0,0
1,69,54,180
1,66,46,0
1,66,0,60
1,69,0,0
1,70,59,180
1,67,50,0
1,67,0,240
1,70,0,0
1,82,61,240
1,87,65,30
1,97,68,30
1,82,0,300
1,97,0,60
1,87,0,0
1,80,61,0
1,87,64,30
1,96,67,30
1,96,0,360
1,87,0,0
1,80,0,0
1,94,31,0
1,98,51,0
1,98,0,60
1,94,0,0
1,92,42,0
1,96,55,0
1,96,0,60
1,92,0,0
1,94,60,0
1,91,60,0
1,91,0,120
1,94,0,0
1,92,54,120
1,89,54,0
1,89,0,60
1,92,0,0
1,91,58,180
1,87,58,0
1,87,0,60
1,91,0,0
1,89,54,180
1,82,54,0
1,82,0,60
1,89,0,0
1,87,63,180
1,79,63,0
1,79,0,60
1,87,0,0
1,67,48,300
1,63,40,0
1,63,0,120
1,67,0,0
1,68,61,0
1,65,52,0
1,65,0,720
1,68,0,0
1,64,43,0
1,67,51,0
1,64,0,240
1,65,47,0
1,68,56,0
1,67,0,9
1,68,0,51
1,65,0,0
1,62,46,420
1,70,54,0
1,70,0,60
1,62,0,0
1,58,40,810
1,63,42,30
1,67,44,30
1,70,46,30
1,70,0,60
1,58,0,0
1,63,0,0
1,67,0,0
1,67,40,810
1,70,42,30
1,75,44,30
1,79,46,30
1,79,0,60
1,67,0,0
1,70,0,0
1,75,0,0
1,79,42,810
1,82,44,30
1,87,45,30
1,91,47,30
1,91,0,60
1,79,0,0
1,82,0,0
1,87,0,0
1,70,40,1260
1,67,34,0
1,67,0,120
1,70,0,0
1,68,45,0
1,65,38,0
1,65,0,120
1,68,0,0
1,75,40,0
1,72,34,0
1,72,0,120
1,75,0,0
1,74,45,0
1,70,38,0
1,70,0,120
1,74,0,0
1,79,41,0
1,75,34,0
1,75,0,120
1,79,0,0
1,77,48,0
1,74,40,0
1,74,0,120
1,77,0,0
1,84,43,0
1,80,36,0
1,80,0,120
1,84,0,0
1,82,43,0
1,79,36,0
1,79,0,120
1,82,0,0
1,80,43,0
1,77,36,0
1,77,0,120
1,80,0,0
1,79,49,0
1,75,49,0
1,75,0,120
1,79,0,0
1,77,44,0
1,74,37,0
1,74,0,120
1,77,0,0
1,75,44,0
1,72,37,0
1,72,0,120
1,75,0,0
1,74,44,0
1,70,37,0
1,70,0,120
1,74,0,0
