track,note,velocity,time
1,64,86,960
1,71,86,52
1,76,89,60
1,78,78,60
1,79,69,8
1,81,68,17
1,79,80,8
1,78,76,0
1,60,85,0
1,67,76,60
1,79,81,60
1,81,86,50
1,83,75,2
1,79,78,6
1,62,89,9
1,67,85,60
1,69,83,60
1,74,97,12
1,69,69,34
1,67,83,18
1,69,75,4
1,67,81,12
1,83,73,19203
1,67,72,0
1,79,64,60
1,81,66,24
1,86,66,1
1,74,58,7
1,88,69,21
1,83,68,87
1,79,63,9
1,81,68,60
1,83,69,26
1,74,72,60
1,81,73,11
1,60,75,40
1,81,75,0
1,67,69,68
1,76,69,60
1,79,68,0
1,78,59,41
1,79,69,47
1,72,60,19
1,74,67,60
1,76,67,6
1,72,70,60
1,78,60,21
1,76,62,0
1,62,74,44
1,78,73,0
1,69,73,120
1,79,70,19
1,78,67,39
1,74,64,60
1,81,73,26
1,79,63,38
1,74,58,6
1,78,64,10
1,79,72,48
1,74,69,15
1,83,71,100
1,67,69,0
1,74,67,60
1,79,66,60
1,81,65,7
1,86,71,22
1,79,65,60
1,62,72,4
1,78,69,174
1,74,68,120
1,76,62,11
1,67,71,11
1,83,71,120
1,81,66,20
1,86,69,32
1,79,66,0
1,81,64,60
1,83,65,120
1,86,70,55
1,83,57,11
1,79,64,2
1,84,64,86
1,60,69,0
1,72,61,21
1,76,65,31
1,79,69,0
1,79,69,70
1,76,67,0
1,84,75,39
1,76,70,0
1,79,64,12
1,76,61,7
1,76,66,25
1,81,75,0
1,83,69,1
1,72,69,60
1,76,69,28
1,78,64,0
1,62,73,0
1,69,69,60
1,79,75,1
1,78,73,1
1,74,64,3
1,76,69,12
1,69,70,13
1,81,73,28
1,74,67,60
1,79,63,30
1,69,56,0
1,78,71,39
1,74,65,60
1,79,71,22
1,74,71,1
1,79,71,89
1,64,72,0
1,71,69,21
1,79,69,60
1,66,64,91
1,78,65,0
1,54,63,0
1,66,64,41
1,74,62,56
1,78,76,100
1,74,72,0
1,66,69,0
1,64,67,97
1,60,55,88
1,76,64,60
1,84,75,0
1,79,63,40
1,72,63,60
1,76,64,82
1,79,71,60
1,76,59,60
1,81,68,0
1,72,70,25
1,78,69,77
1,62,71,0
1,74,63,120
1,78,69,54
1,79,75,22
1,74,67,59
1,81,70,97
1,79,71,68
1,78,73,2
1,74,69,60
1,59,71,94
1,74,75,0
1,66,69,60
1,71,73,14
1,74,79,49
1,76,81,0
1,71,73,60
1,74,67,44
1,78,80,24
1,79,73,13
1,78,67,60
1,78,78,26
1,76,78,13
1,71,73,39
1,74,58,26
1,76,75,46
1,60,76,0
1,67,73,60
1,72,73,49
1,76,76,60
1,78,83,44
1,72,73,50
1,79,76,79
1,62,75,0
1,69,72,39
1,74,66,60
1,81,80,21
1,79,72,30
1,74,67,60
1,60,76,76
1,76,71,120
1,84,75,0
1,76,75,27
1,84,80,0
1,72,64,4
1,76,69,42
1,83,73,0
1,76,71,52
1,81,70,0
1,72,64,61
1,76,69,60
1,79,78,17
1,72,69,60
1,76,67,22
1,62,75,4
1,69,64,108
1,78,67,60
1,79,75,60
1,74,67,21
1,78,64,36
1,79,71,29
1,81,75,32
1,79,72,32
1,78,69,10
1,74,69,60
1,59,72,77
1,74,74,0
1,66,58,180
1,71,72,15
1,74,72,226
1,71,66,6
1,60,72,107
1,72,68,120
1,76,75,60
1,78,67,29
1,72,66,43
1,62,73,4
1,74,64,107
1,76,69,60
1,79,74,56
1,74,69,47
1,67,73,7
1,83,67,114
1,81,65,60
1,86,69,17
1,79,65,79
1,81,59,120
1,83,64,9
1,86,67,23
1,60,71,47
1,76,74,60
1,72,69,60
1,74,65,36
1,76,64,11
1,67,52,48
1,74,64,32
1,79,72,12
1,76,70,0
1,72,67,12
1,74,67,60
1,76,73,7
1,67,73,1
1,62,73,3
1,74,64,100
1,78,67,60
1,79,69,6
1,74,65,60
1,78,65,31
1,81,64,60
1,79,66,7
1,78,58,8
1,78,69,25
1,79,69,3
1,74,67,60
1,74,74,99
1,59,73,0
1,66,56,120
1,74,72,32
1,74,64,46
1,71,64,0
1,74,64,43
1,74,69,31
1,76,66,69
1,71,65,5
1,76,71,47
1,60,70,0
1,67,69,120
1,72,69,60
1,76,71,17
1,72,69,10
1,62,70,45
1,69,73,60
1,74,68,60
1,78,69,60
1,79,70,3
1,74,64,60
1,55,61,49
1,79,67,0
1,67,65,0
1,71,64,0
1,74,66,0
1,62,59,0
1,64,72,174
1,71,70,60
1,76,69,60
1,78,67,10
1,79,67,11
1,76,56,6
1,81,71,22
1,83,66,53
1,60,73,104
1,67,68,60
1,74,73,60
1,76,73,22
1,81,69,4
1,83,71,71
1,79,66,137
1,62,72,11
1,67,73,60
1,69,74,1
1,74,78,1
1,69,69,16
1,66,66,61
1,50,71,60
1,64,74,97
1,66,64,180
1,40,73,11
1,59,64,51
1,71,69,0
1,76,69,0
1,69,66,0
1,74,67,0
1,67,74,0
1,71,72,0
1,64,73,0
1,69,72,0
1,47,69,0
1,67,71,0
1,64,69,0
1,40,81,0
1,47,81,60
1,52,77,60
1,55,82,60
1,83,83,8
1,57,80,0
1,79,83,0
1,78,73,22
1,47,78,0
1,79,88,28
1,59,78,0
1,83,84,0
1,76,79,32
1,57,76,0
1,83,85,0
1,52,69,3
1,74,80,41
1,55,74,0
1,83,81,0
1,83,81,91
1,71,76,0
1,47,75,1
1,36,83,78
1,43,80,120
1,52,86,60
1,79,81,20
1,54,73,0
1,83,82,0
1,78,75,4
1,48,75,0
1,83,83,35
1,55,81,0
1,79,86,0
1,81,81,24
1,54,74,0
1,78,78,0
1,43,73,3
1,76,80,60
1,54,73,0
1,79,81,0
1,74,81,12
1,78,76,0
1,52,83,18
1,48,78,14
1,69,75,33
1,38,86,0
1,74,80,0
1,79,77,0
1,45,81,84
1,67,74,0
1,50,83,0
1,69,75,0
1,52,69,0
1,74,74,0
1,79,75,0
1,54,71,0
1,81,76,0
1,86,76,0
1,45,79,0
1,86,80,0
1,54,75,0
1,91,78,0
1,55,80,0
1,93,80,0
1,98,79,0
1,57,82,0
1,50,76,60
1,54,70,17
1,40,83,0
1,47,80,99
1,95,80,60
1,91,78,0
1,90,73,0
1,55,81,0
1,88,68,0
1,52,75,0
1,83,76,0
1,54,69,0
1,86,71,0
1,55,81,0
1,81,74,0
1,83,78,0
1,57,81,0
1,76,75,0
1,47,78,0
1,79,75,0
1,59,81,0
1,71,70,0
1,74,73,0
1,57,78,0
1,69,75,0
1,52,73,0
1,55,75,0
1,64,75,0
1,40,82,0
1,47,80,113
1,52,78,120
1,83,83,55
1,55,80,0
1,79,83,0
1,78,73,7
1,47,80,0
1,79,88,19
1,57,81,0
1,83,84,0
1,76,79,16
1,59,80,0
1,83,85,0
1,52,75,8
1,74,80,28
1,57,76,0
1,83,81,0
1,83,81,8
1,55,76,0
1,71,76,0
1,54,75,1
1,55,75,5
1,47,80,0
1,36,90,24
1,43,81,120
1,48,79,60
1,55,81,40
1,50,83,0
1,79,81,60
1,43,81,0
1,83,82,0
1,78,75,24
1,48,75,0
1,83,83,35
1,50,77,0
1,79,86,0
1,52,81,0
1,48,74,21
1,81,81,6
1,55,80,0
1,78,78,0
1,50,73,0
1,48,75,27
1,76,80,37
1,54,75,0
1,79,81,0
1,74,81,93
1,52,78,0
1,78,76,0
1,54,83,6
1,48,80,48
1,69,75,26
1,38,86,0
1,74,80,0
1,79,77,0
1,45,80,84
1,67,74,0
1,55,89,0
1,69,75,0
1,50,76,0
1,74,74,0
1,45,78,0
1,79,75,0
1,54,77,0
1,81,76,0
1,86,76,0
1,55,81,0
1,86,80,0
1,50,76,0
1,91,78,0
1,57,83,0
1,93,80,0
1,98,79,0
1,55,81,0
1,45,81,60
1,54,69,2
1,40,82,0
1,47,78,108
1,95,80,60
1,91,78,0
1,90,73,0
1,52,78,0
1,88,68,0
1,55,83,0
1,83,76,0
1,86,71,0
1,59,85,0
1,81,74,0
1,83,78,0
1,57,77,0
1,76,75,0
1,47,79,0
1,79,75,0
1,55,83,0
1,71,70,0
1,74,73,0
1,57,77,0
1,52,76,0
1,69,75,0
1,55,75,0
1,64,75,0
1,40,81,0
1,62,73,0
1,71,83,0
1,67,81,3
1,47,81,0
1,62,73,60
1,52,77,0
1,55,82,22
1,62,83,0
1,69,87,0
1,67,73,43
1,62,75,8
1,57,80,0
1,71,81,0
1,67,75,0
1,47,78,0
1,62,82,19
1,59,78,0
1,72,85,0
1,67,81,5
1,62,78,27
1,57,76,0
1,71,86,0
1,62,78,25
1,55,74,0
1,69,85,0
1,71,89,21
1,62,77,0
1,69,78,36
1,47,75,0
1,67,73,2
1,72,87,21
1,36,83,0
1,64,83,0
1,67,80,29
1,43,80,0
1,64,80,28
1,52,86,0
1,71,82,0
1,67,83,0
1,72,86,20
1,54,73,0
1,64,80,0
1,67,82,0
1,48,75,4
1,74,83,31
1,55,81,0
1,64,81,0
1,76,84,24
1,54,74,0
1,43,73,3
1,79,86,60
1,54,73,0
1,79,81,12
1,81,85,0
1,83,86,6
1,52,83,0
1,48,78,14
1,86,85,33
1,38,86,0
1,84,79,60
1,83,75,7
1,45,81,0
1,81,81,6
1,50,83,60
1,83,83,44
1,52,69,0
1,81,78,60
1,79,75,3
1,54,71,0
1,78,81,9
1,79,76,1
1,45,79,0
1,78,74,0
1,54,75,0
1,76,71,11
1,55,80,0
1,74,79,10
1,72,76,0
1,57,82,0
1,71,82,60
1,50,76,0
1,54,70,17
1,40,83,37
1,72,86,0
1,69,81,0
1,71,73,39
1,69,72,48
1,47,80,0
1,67,86,39
1,71,87,0
1,55,81,60
1,69,83,58
1,52,75,0
1,66,82,0
1,54,69,29
1,67,90,18
1,55,81,0
1,69,83,0
1,67,83,10
1,57,81,0
1,64,82,0
1,47,78,3
1,62,83,60
1,59,81,0
1,66,81,0
1,60,82,36
1,57,78,0
1,64,82,0
1,62,81,17
1,52,73,0
1,55,75,12
1,59,73,0
1,67,76,29
1,40,82,0
1,69,85,0
1,47,80,113
1,67,83,36
1,71,81,0
1,62,81,0
1,52,78,60
1,62,78,14
1,55,80,0
1,67,73,0
1,72,83,0
1,74,81,0
1,47,80,7
1,67,75,19
1,57,81,0
1,62,75,0
1,71,81,0
1,62,70,16
1,59,80,0
1,71,75,0
1,52,75,8
1,62,78,28
1,57,76,0
1,67,86,0
1,71,82,0
1,62,77,8
1,55,76,0
1,67,83,0
1,62,82,16
1,54,75,0
1,72,88,0
1,67,83,0
1,55,75,5
1,47,80,0
1,62,83,24
1,36,90,0
1,69,86,0
1,43,81,76
1,62,83,38
1,48,79,0
1,69,84,0
1,55,81,40
1,50,83,0
1,62,80,36
1,43,81,0
1,67,86,0
1,48,75,29
1,60,83,60
1,50,77,0
1,67,83,0
1,52,81,0
1,64,80,0
1,48,74,42
1,66,75,6
1,55,80,0
1,50,73,0
1,48,75,6
1,62,89,37
1,54,75,0
1,64,78,7
1,52,78,0
1,54,83,6
1,66,89,0
1,48,80,27
1,67,87,26
1,38,86,0
1,62,82,0
1,57,83,0
1,45,80,104
1,55,89,120
1,66,93,5
1,50,76,0
1,57,83,0
1,62,86,0
1,45,78,8
1,57,83,20
1,54,77,0
1,64,86,0
1,62,82,0
1,57,83,13
1,55,81,0
1,66,89,0
1,62,86,0
1,50,76,4
1,57,83,21
1,57,83,0
1,62,87,0
1,67,88,0
1,66,86,22
1,55,81,0
1,62,75,8
1,45,81,0
1,54,69,2
1,40,82,2
1,60,78,0
1,67,81,42
1,47,78,60
1,64,83,37
1,52,78,60
1,69,81,43
1,55,83,0
1,71,83,22
1,59,85,0
1,81,85,19
1,57,77,0
1,47,79,11
1,78,84,52
1,55,83,0
1,76,79,7
1,57,77,0
1,52,76,9
1,74,75,0
1,55,75,17
1,40,81,0
1,79,80,0
1,78,70,52
1,47,81,0
1,74,75,11
1,52,77,0
1,81,83,26
1,78,66,8
1,83,83,8
1,57,80,0
1,47,78,13
1,86,82,57
1,59,78,0
1,57,76,32
1,52,69,3
1,88,85,41
1,55,74,0
1,90,93,98
1,91,96,17
1,47,75,0
1,93,88,76
1,36,83,0
1,86,83,0
1,91,81,60
1,90,69,5
1,43,80,0
1,86,83,42
1,52,86,0
1,90,93,0
1,91,79,16
1,54,73,0
1,48,75,4
1,91,83,55
1,55,81,0
1,88,86,0
1,84,78,0
1,54,74,13
1,43,73,3
1,54,73,60
1,52,83,18
1,86,86,14
1,48,78,0
1,86,83,33
1,38,86,0
1,45,81,17
1,90,86,60
1,86,76,0
1,50,83,20
1,86,78,32
1,52,69,0
1,81,73,14
1,54,71,42
1,45,79,1
1,54,75,60
1,81,78,11
1,55,80,0
1,81,86,24
1,86,77,35
1,57,82,0
1,88,93,17
1,50,76,0
1,54,70,17
1,88,92,60
1,40,83,0
1,83,82,39
1,79,75,10
1,47,80,0
1,81,75,21
1,83,77,0
1,79,79,45
1,55,81,0
1,52,75,2
1,83,93,46
1,54,69,0
1,81,73,11
1,55,81,0
1,79,69,15
1,88,86,10
1,57,81,0
1,81,83,3
1,47,78,0
1,79,75,3
1,59,81,0
1,86,81,18
1,83,75,36
1,57,78,0
1,81,79,11
1,52,73,0
1,55,75,40
1,79,81,29
1,40,82,0
1,86,75,53
1,79,78,4
1,47,80,0
1,81,85,60
1,52,78,46
1,83,79,5
1,55,80,0
1,79,75,7
1,47,80,0
1,88,91,16
1,57,81,0
1,79,75,60
1,79,83,16
1,59,80,0
1,86,81,0
1,52,75,6
1,81,83,28
1,57,76,0
1,79,82,0
1,86,85,0
1,86,88,8
1,55,76,0
1,79,83,0
1,83,82,0
1,54,75,3
1,86,83,5
1,55,75,0
1,81,83,0
1,47,80,0
1,81,83,17
1,36,90,0
1,78,84,0
1,86,82,0
1,43,81,11
1,81,86,37
1,48,79,0
1,79,83,0
1,86,89,0
1,55,81,7
1,50,83,0
1,86,86,55
1,43,81,0
1,78,86,0
1,48,75,14
1,76,86,60
1,50,77,0
1,79,81,0
1,52,81,0
1,84,86,0
1,48,74,42
1,83,86,6
1,55,80,0
1,74,79,0
1,50,73,0
1,79,83,0
1,48,75,1
1,78,83,37
1,54,75,0
1,74,81,0
1,81,83,0
1,76,83,41
1,52,78,0
1,79,83,0
1,72,86,0
1,54,83,6
1,76,79,0
1,78,76,0
1,69,86,32
1,48,80,0
1,69,86,26
1,38,86,0
1,78,92,0
1,74,85,44
1,45,80,43
1,71,88,26
1,76,86,0
1,55,89,60
1,71,76,5
1,50,76,0
1,79,81,0
1,74,74,8
1,45,78,0
1,81,86,10
1,54,77,0
1,83,84,0
1,81,78,13
1,55,81,0
1,50,76,4
1,81,81,21
1,57,83,0
1,79,79,0
1,74,81,0
1,74,75,22
1,55,81,0
1,83,86,0
1,86,96,32
1,45,81,0
1,54,69,2
1,40,82,60
1,79,86,48
1,84,86,0
1,76,89,0
1,47,78,14
1,88,94,60
1,52,78,15
1,86,82,60
1,55,83,0
1,81,79,0
1,89,81,22
1,59,85,0
1,86,81,0
1,91,81,0
1,90,90,19
1,57,77,0
1,83,80,0
1,47,79,28
1,95,89,52
1,55,83,0
1,93,88,7
1,57,77,0
1,52,76,14
1,91,87,0
1,55,75,17
1,40,81,0
1,47,81,60
1,52,77,60
1,55,82,60
1,83,83,8
1,57,80,0
1,79,83,0
1,78,73,22
1,47,78,0
1,79,88,28
1,59,78,0
1,83,84,0
1,76,79,32
1,57,76,0
1,83,85,0
1,52,69,3
1,74,80,41
1,55,74,0
1,83,81,0
1,83,81,91
1,71,76,0
1,47,75,1
1,36,83,78
1,43,80,120
1,52,86,60
1,79,81,20
1,54,73,0
1,83,82,0
1,78,75,4
1,48,75,0
1,83,83,35
1,55,81,0
1,79,86,0
1,81,81,24
1,54,74,0
1,78,78,0
1,43,73,3
1,76,80,60
1,54,73,0
1,79,81,0
1,74,81,12
1,78,76,0
1,52,83,18
1,48,78,14
1,69,75,33
1,38,86,0
1,74,80,0
1,79,77,0
