track,note,velocity,time
1,38,75,6720
1,38,0,940
1,42,53,20
1,42,0,955
1,43,75,5
1,43,0,1695
1,38,75,225
1,38,0,450
1,37,71,30
1,37,0,440
1,35,65,40
1,35,0,440
1,33,59,40
1,28,35,480
1,33,0,10
1,28,0,917
1,33,53,33
1,33,0,892
1,43,75,68
1,43,0,907
1,42,47,53
1,42,0,882
1,35,75,78
1,35,0,450
1,33,38,30
1,33,0,472
1,31,71,8
1,31,0,455
1,30,47,25
1,30,0,407
1,28,56,73
1,28,0,922
1,30,65,38
1,30,0,877
1,31,75,83
1,31,0,810
1,33,71,150
1,33,0,720
1,40,50,0
1,40,0,210
1,45,56,30
1,45,0,822
1,38,75,138
1,38,0,940
1,42,53,20
1,42,0,955
1,43,75,5
1,43,0,1695
1,38,75,225
1,38,0,450
1,37,71,30
1,37,0,440
1,35,65,40
1,35,0,440
1,33,59,40
1,28,35,480
1,33,0,10
1,28,0,917
1,33,53,33
1,33,0,892
1,43,75,68
1,43,0,907
1,42,47,53
1,42,0,882
1,35,75,78
1,35,0,450
1,33,38,30
1,33,0,472
1,31,71,8
1,31,0,455
1,30,47,25
1,30,0,407
1,28,56,73
1,28,0,922
1,30,65,38
1,30,0,877
1,33,75,83
1,33,0,117
1,33,75,123
1,33,0,180
1,33,75,60
1,33,0,197
1,33,75,43
1,33,0,190
1,33,75,50
1,33,0,225
1,45,75,15
1,45,0,222
1,40,75,18
1,40,0,232
1,45,75,8
1,45,0,240
1,33,75,0
1,33,0,1780
1,38,75,140
1,38,0,650
1,38,75,70
1,38,0,120
1,40,47,0
1,40,0,100
1,42,75,20
1,42,0,672
1,42,75,48
1,42,0,210
1,31,75,30
1,31,0,660
1,31,75,60
1,31,0,175
1,33,75,65
1,33,0,417
1,33,75,63
1,33,0,440
1,38,75,40
1,38,0,435
1,37,75,45
1,37,0,470
1,35,75,10
1,35,0,425
1,33,75,55
1,33,0,457
1,28,75,23
1,40,75,480
1,28,0,32
1,33,75,448
1,40,0,2
1,33,0,438
1,33,75,40
1,33,0,320
1,38,75,160
1,38,0,500
1,38,75,220
1,38,0,75
1,38,75,165
1,38,0,60
1,38,75,180
1,38,0,400
1,38,75,80
1,38,0,217
1,31,75,23
1,31,0,707
1,43,75,13
1,43,0,230
1,28,75,10
1,28,0,425
1,28,75,55
1,28,0,400
1,28,75,80
1,28,0,810
1,38,75,150
1,35,75,960
1,38,0,2
1,35,0,640
1,35,75,78
1,28,75,240
1,35,0,12
1,28,0,703
1,40,75,5
1,40,0,225
1,33,75,15
1,33,0,827
1,38,75,133
1,45,75,240
1,38,0,10
1,50,75,230
1,45,0,5
1,50,0,235
1,49,75,0
1,49,0,240
1,42,75,0
1,42,0,452
1,42,75,28
1,42,0,357
1,31,75,123
1,31,0,547
1,31,75,173
1,31,0,80
1,33,75,160
1,33,0,562
1,33,75,158
1,33,0,82
1,33,75,158
1,33,0,860
1,38,75,100
1,38,0,940
1,42,53,20
1,42,0,955
1,43,75,5
1,43,0,1695
1,38,75,225
1,38,0,450
1,37,71,30
1,37,0,440
1,35,65,40
1,35,0,440
1,33,59,40
1,28,35,480
1,33,0,10
1,28,0,917
1,33,53,33
1,33,0,892
1,43,75,68
1,43,0,907
1,42,47,53
1,42,0,882
1,35,75,78
1,35,0,450
1,33,38,30
1,33,0,472
1,31,71,8
1,31,0,455
1,30,47,25
1,30,0,407
1,28,56,73
1,28,0,922
1,30,65,38
1,30,0,877
1,33,75,83
1,33,0,117
1,33,75,123
1,33,0,180
1,33,75,60
1,33,0,197
1,33,75,43
1,33,0,190
1,33,75,50
1,33,0,225
1,45,75,15
1,45,0,222
1,40,75,18
1,40,0,232
1,45,75,8
1,45,0,240
1,33,75,0
1,33,0,1780
1,43,75,140
1,43,0,1890
1,30,75,30
1,30,0,655
1,35,75,65
1,35,0,670
1,35,75,50
1,35,0,387
1,28,75,93
1,28,0,580
1,28,75,140
1,28,0,220
1,30,75,20
1,30,0,630
1,30,75,90
1,30,0,225
1,31,75,15
1,31,0,477
1,43,75,3
1,31,75,240
1,43,0,27
1,31,0,163
1,33,75,50
1,33,0,610
1,33,75,110
1,33,0,112
1,33,75,128
1,33,0,107
1,33,75,133
1,33,0,297
1,33,75,63
1,33,0,117
1,40,75,3
1,45,75,120
1,40,0,10
1,33,75,110
1,45,0,5
1,33,0,742
1,33,75,213
1,33,0,185
1,33,75,175
1,33,0,182
1,33,75,178
1,33,0,137
1,38,75,103
1,38,0,517
1,38,75,203
1,40,75,120
1,38,0,12
1,40,0,88
1,42,75,20
1,30,75,480
1,42,0,17
1,30,0,373
1,31,75,90
1,31,0,660
1,31,75,60
1,31,0,175
1,33,75,65
1,33,0,417
1,33,75,63
1,33,0,440
1,38,75,40
1,38,0,435
1,37,75,45
1,37,0,470
1,35,75,10
1,35,0,425
1,33,75,55
1,33,0,457
1,28,75,23
1,40,75,480
1,28,0,32
1,33,75,448
1,40,0,2
1,33,0,438
1,33,75,40
1,33,0,320
1,38,75,160
1,38,0,500
1,38,75,220
1,38,0,75
1,38,75,165
1,38,0,60
1,38,75,180
1,38,0,400
1,38,75,80
1,38,0,217
1,31,75,23
1,31,0,707
1,43,75,13
1,43,0,230
1,28,75,10
1,28,0,425
1,28,75,55
1,28,0,400
1,28,75,80
1,28,0,810
1,38,75,150
1,35,75,960
1,38,0,2
1,35,0,640
1,35,75,78
1,28,75,240
1,35,0,12
1,28,0,703
1,40,75,5
1,40,0,225
1,33,75,15
1,33,0,827
1,38,75,133
1,35,75,960
1,38,0,2
1,35,0,640
1,35,75,78
1,28,75,240
1,35,0,12
1,28,0,703
1,40,75,5
1,40,0,225
1,33,75,15
1,33,0,827
1,38,75,133
1,35,75,960
1,38,0,2
1,35,0,640
1,35,75,78
1,28,75,240
1,35,0,12
1,28,0,703
1,40,75,5
1,40,0,225
1,33,75,15
1,33,0,827
1,38,75,133
1,45,75,240
1,38,0,10
1,50,75,230
1,45,0,5
1,50,0,235
1,49,75,0
1,49,0,240
1,42,75,0
1,42,0,452
1,42,75,28
1,42,0,357
1,43,75,123
1,43,0,665
1,43,75,55
1,43,0,240
1,33,75,0
1,33,0,425
1,33,75,55
1,33,0,467
1,38,75,13
1,38,0,3307
2,62,77,1130
2,50,77,0
2,62,0,155
2,66,77,48
2,66,0,175
2,69,77,65
2,50,0,72
2,69,0,100
2,66,77,68
2,66,0,140
2,62,77,100
2,42,77,0
2,62,0,170
2,66,77,70
2,42,0,22
2,66,0,98
2,69,77,120
2,69,0,150
2,66,77,90
2,66,0,125
2,43,77,115
2,62,77,0
2,62,0,190
2,67,77,50
2,67,0,155
2,69,77,85
2,43,0,15
2,69,0,165
2,67,77,60
2,67,0,132
2,57,77,30
2,62,77,0
2,62,0,132
2,64,77,58
2,64,0,232
2,69,77,8
2,69,0,207
2,57,0,8
2,64,77,25
2,64,0,90
2,61,77,3
2,69,77,0
2,64,77,0
2,57,77,0
2,64,0,820
2,61,0,0
2,57,0,2
2,69,0,18
2,38,77,120
2,66,77,0
2,62,77,0
2,57,77,0
2,38,0,103
2,62,0,157
2,66,0,20
2,57,0,28
2,66,77,10
2,42,77,0
2,62,77,0
2,57,77,0
2,62,0,30
2,42,0,0
2,66,0,5
2,57,0,22
2,62,77,25
2,59,77,0
2,55,77,0
2,43,77,0
2,59,0,1597
2,55,0,8
2,62,0,15
2,43,0,52
2,50,77,248
2,57,77,0
2,57,0,397
2,50,0,3
2,49,77,80
2,57,77,0
2,49,0,60
2,57,0,10
2,55,77,60
2,47,77,0
2,47,0,70
2,55,0,0
2,45,77,13
2,54,77,0
2,45,0,52
2,54,0,35
2,40,77,150
2,52,77,75
2,55,77,240
2,40,0,60
2,55,0,60
2,52,0,0
2,57,68,313
2,52,77,0
2,45,77,0
2,57,0,40
2,62,77,170
2,61,77,163
2,62,0,32
2,61,0,130
2,52,0,8
2,45,0,2
2,62,77,68
2,55,77,0
2,43,77,0
2,59,77,0
2,55,0,83
2,59,0,7
2,43,0,5
2,62,0,3
2,54,77,330
2,61,77,0
2,64,77,0
2,57,77,0
2,57,0,772
2,54,0,0
2,61,0,3
2,64,0,20
2,47,77,150
2,66,77,0
2,62,77,0
2,59,77,0
2,62,0,113
2,66,0,2
2,59,0,23
2,47,0,12
2,57,77,143
2,45,77,0
2,57,0,128
2,45,0,5
2,43,77,20
2,55,77,0
2,43,0,90
2,55,0,85
2,42,77,10
2,54,77,0
2,54,0,80
2,42,0,2
2,40,77,5
2,59,77,0
2,52,77,0
2,55,77,0
2,55,0,240
2,55,77,0
2,64,77,68
2,52,0,30
2,59,0,30
2,67,77,180
2,55,0,15
2,64,0,10
2,40,0,77
2,67,0,57
2,66,77,18
2,62,77,240
2,66,0,107
2,62,0,350
2,55,77,263
2,62,77,240
2,62,0,180
2,55,0,30
2,67,77,15
2,67,0,95
2,45,77,23
2,52,77,240
2,62,77,240
2,62,0,467
2,52,0,13
2,45,0,0
2,61,74,0
2,52,77,0
2,45,77,0
2,61,0,795
2,52,0,22
2,45,0,18
2,38,77,125
2,66,77,0
2,62,77,0
2,57,77,0
2,38,0,103
2,62,0,157
2,66,0,20
2,57,0,28
2,66,77,10
2,42,77,0
2,62,77,0
2,57,77,0
2,62,0,30
2,42,0,0
2,66,0,5
2,57,0,22
2,62,77,25
2,59,77,0
2,55,77,0
2,43,77,0
2,59,0,1597
2,55,0,8
2,62,0,15
2,43,0,52
2,50,77,248
2,57,77,0
2,57,0,397
2,50,0,3
2,49,77,80
2,57,77,0
2,49,0,60
2,57,0,10
2,55,77,60
2,47,77,0
2,47,0,70
2,55,0,0
2,45,77,13
2,54,77,0
2,45,0,52
2,54,0,35
2,40,77,150
2,52,77,75
2,55,77,240
2,40,0,60
2,55,0,60
2,52,0,0
2,57,68,313
2,52,77,0
2,45,77,0
2,57,0,40
2,62,77,170
2,61,77,163
2,62,0,32
2,61,0,130
2,52,0,8
2,45,0,2
2,62,77,68
2,55,77,0
2,43,77,0
2,59,77,0
2,55,0,83
2,59,0,7
2,43,0,5
2,62,0,3
2,54,77,330
2,61,77,0
2,64,77,0
2,57,77,0
2,57,0,772
2,54,0,0
2,61,0,3
2,64,0,20
2,47,77,150
2,66,77,0
2,62,77,0
2,59,77,0
2,62,0,113
2,66,0,2
2,59,0,23
2,47,0,12
2,57,77,143
2,45,77,0
2,57,0,128
2,45,0,5
2,43,77,20
2,55,77,0
2,43,0,90
2,55,0,85
2,42,77,10
2,54,77,0
2,54,0,80
2,42,0,2
2,40,77,5
2,59,77,0
2,52,77,0
2,55,77,0
2,55,0,240
2,55,77,0
2,64,77,68
2,52,0,30
2,59,0,30
2,67,77,180
2,55,0,15
2,64,0,10
2,40,0,77
2,67,0,57
2,66,77,18
2,62,77,240
2,66,0,107
2,62,0,350
2,64,55,23
2,57,71,0
2,62,76,0
2,52,77,0
2,64,0,47
2,52,0,23
2,62,0,2
2,57,0,0
2,64,77,168
2,45,77,0
2,57,76,0
2,62,77,0
2,52,77,0
2,45,0,67
2,64,0,38
2,52,0,0
2,57,0,7
2,62,0,5
2,64,77,123
2,45,77,0
2,57,77,0
2,62,77,0
2,52,77,0
2,45,0,120
2,64,0,10
2,57,0,0
2,62,0,10
2,52,0,5
2,45,77,95
2,52,77,0
2,62,77,0
2,64,77,0
2,57,77,0
2,45,0,110
2,52,0,12
2,57,0,5
2,62,0,5
2,64,0,0
2,62,77,108
2,57,77,0
2,64,77,0
2,45,77,0
2,52,77,0
2,45,0,117
2,57,0,10
2,62,0,0
2,52,0,0
2,64,0,3
2,45,77,110
2,52,77,0
2,64,77,0
2,62,77,0
2,57,77,0
2,45,0,150
2,52,0,5
2,64,0,5
2,62,0,5
2,57,0,0
2,52,77,75
2,45,77,0
2,64,77,0
2,62,77,0
2,57,77,0
2,45,0,150
2,52,0,7
2,64,0,3
2,57,0,5
2,62,0,5
2,52,77,70
2,45,77,0
2,57,77,0
2,64,77,0
2,62,77,0
2,52,0,155
2,45,0,10
2,62,0,15
2,57,0,10
2,64,0,0
2,52,77,50
2,57,77,0
2,64,77,0
2,45,77,0
2,61,77,0
2,52,0,1677
2,61,0,3
2,45,0,10
2,57,0,7
2,64,0,18
2,50,77,205
2,57,77,0
2,69,77,0
2,62,77,0
2,66,77,0
2,62,0,430
2,62,77,15
2,66,0,105
2,62,0,50
2,69,0,12
2,64,77,73
2,69,77,0
2,64,0,80
2,69,0,20
2,50,0,0
2,57,0,7
2,50,77,133
2,57,77,0
2,66,77,0
2,69,77,0
2,62,77,0
2,69,0,95
2,62,0,7
2,66,0,8
2,57,0,10
2,50,0,10
2,66,77,85
2,62,77,0
2,69,77,0
2,62,0,72
2,66,0,3
2,69,0,15
2,62,77,390
2,69,77,0
2,59,77,0
2,55,77,0
2,62,0,282
2,59,0,58
2,55,0,32
2,69,0,8
2,45,77,470
2,62,77,0
2,59,77,0
2,52,77,0
2,59,0,22
2,62,0,8
2,52,0,107
2,45,0,3
2,61,77,190
2,45,77,0
2,57,77,0
2,57,0,15
2,61,0,13
2,45,0,27
2,62,77,25
2,66,77,0
2,66,0,90
2,62,0,0
2,61,77,23
2,64,77,0
2,64,0,90
2,61,0,5
2,62,77,30
2,59,77,0
2,62,0,75
2,59,0,10
2,57,77,28
2,61,77,0
2,61,0,73
2,57,0,2
2,52,77,3
2,62,77,0
2,55,77,0
2,59,77,0
2,52,0,105
2,55,0,10
2,59,0,17
2,62,0,13
2,52,77,0
2,52,0,220
2,67,77,20
2,67,0,57
2,52,77,183
2,52,0,50
2,45,77,10
2,52,77,0
2,57,77,0
2,64,77,0
2,61,77,0
2,57,0,72
2,57,77,78
2,61,0,30
2,64,0,55
2,57,0,35
2,62,77,120
2,57,77,0
2,64,77,0
2,52,0,20
2,45,0,0
2,57,0,77
2,62,0,33
2,64,0,0
2,57,77,350
2,69,77,0
2,62,77,0
2,50,77,0
2,66,77,0
2,62,0,20
2,62,77,83
2,66,0,70
2,62,0,47
2,69,0,10
2,64,77,113
2,64,0,110
2,66,77,130
2,50,0,42
2,57,0,15
2,66,0,45
2,60,77,10
2,66,77,0
2,69,77,0
2,57,77,0
2,50,77,0
2,60,0,167
2,69,0,3
2,66,0,2
2,57,0,5
2,50,0,8
2,66,77,40
2,60,77,0
2,69,77,0
2,66,0,110
2,69,0,17
2,60,0,0
2,43,77,353
2,55,77,0
2,59,77,0
2,62,77,0
2,55,0,118
2,59,0,20
2,50,77,10
2,62,0,5
2,50,0,75
2,43,0,110
2,67,77,50
2,67,0,55
2,64,77,425
2,62,77,0
2,68,77,0
2,71,77,0
2,59,77,0
2,52,77,0
2,64,0,3
2,62,0,845
2,68,0,5
2,71,0,22
2,59,0,0
2,52,0,8
2,62,77,60
2,68,77,0
2,52,77,0
2,59,77,0
2,68,0,780
2,59,0,25
2,52,0,18
2,62,0,27
2,62,77,10
2,69,77,0
2,66,77,0
2,66,0,75
2,69,0,10
2,62,0,15
2,66,77,403
2,62,77,0
2,59,77,0
2,59,0,110
2,62,0,20
2,66,0,5
2,52,61,270
2,55,75,0
2,64,77,20
2,59,77,0
2,55,0,450
2,52,0,17
2,64,0,35
2,59,0,18
2,62,77,430
2,45,77,0
2,52,77,0
2,62,0,15
2,45,0,95
2,52,0,10
2,45,77,5
2,61,77,0
2,57,77,0
2,52,77,0
2,61,0,332
2,45,0,3
2,52,0,0
2,57,0,10
2,62,77,135
2,50,77,0
2,66,77,0
2,69,77,0
2,62,0,168
2,69,0,20
2,66,0,7
2,62,77,68
2,50,0,60
2,62,0,110
2,64,77,3
2,50,77,0
2,50,0,97
2,64,0,63
2,66,77,65
2,66,0,125
2,62,77,50
2,55,77,0
2,59,77,0
2,67,77,0
2,62,0,55
2,67,0,20
2,59,0,12
2,55,0,18
2,45,77,390
2,59,77,0
2,62,77,0
2,52,77,0
2,62,0,23
2,59,0,5
2,52,0,50
2,45,0,12
2,45,77,688
2,52,77,0
2,61,77,0
2,57,77,0
