track,note,velocity,time
1,36,100,1920
1,36,100,96
1,36,100,78
1,36,100,528
1,36,100,96
1,36,100,78
1,36,100,528
1,36,100,96
1,36,100,78
1,36,100,528
1,36,100,96
1,36,100,78
1,36,100,528
1,36,100,96
1,36,100,78
1,36,100,528
1,36,100,96
1,36,100,78
1,36,100,528
1,36,100,96
1,36,100,78
1,36,100,528
1,36,100,96
1,36,100,78
1,36,100,528
1,36,100,96
1,36,100,78
1,36,100,528
1,36,100,96
1,36,100,78
1,36,100,528
1,36,100,96
1,36,100,78
1,36,100,528
1,36,100,96
1,36,100,78
1,36,100,528
1,36,100,96
1,36,100,78
1,36,100,528
1,36,100,96
1,36,100,78
1,36,100,528
1,36,100,96
1,36,100,78
1,36,100,528
1,36,100,96
1,36,100,78
1,36,100,528
1,36,100,96
1,36,100,78
1,36,100,528
1,36,100,96
1,36,100,78
1,36,100,528
1,36,100,96
1,36,100,78
1,36,100,528
1,36,100,96
1,36,100,78
1,36,100,528
1,36,100,96
1,36,100,78
1,36,100,528
1,36,100,96
1,36,100,78
1,36,100,528
1,36,100,96
1,36,100,78
1,36,100,528
1,36,100,96
1,36,100,78
1,36,100,528
1,36,100,96
1,36,100,78
1,36,100,528
1,36,100,96
1,36,100,78
1,36,100,528
1,36,100,96
1,36,100,78
1,36,100,528
1,36,100,96
1,36,100,78
1,36,100,528
1,36,100,96
1,36,100,78
1,36,100,528
1,36,100,96
1,36,100,78
1,36,100,528
1,36,100,96
1,36,100,78
1,36,100,528
1,36,100,96
1,36,100,78
1,36,100,528
1,36,100,96
1,36,100,78
1,36,100,528
1,36,100,96
1,36,100,78
1,36,100,528
1,36,100,96
1,36,100,78
1,36,100,528
1,36,100,96
1,36,100,78
1,36,100,528
1,36,100,96
1,36,100,78
1,36,100,528
1,36,100,96
1,36,100,78
1,36,100,528
1,36,100,96
1,36,100,78
1,36,100,528
1,36,100,96
1,36,100,78
1,36,100,528
1,36,100,96
1,36,100,78
1,36,100,528
1,36,100,96
1,36,100,78
1,36,100,528
1,36,100,96
1,36,100,78
1,36,100,528
1,36,100,96
1,36,100,78
1,36,100,528
1,36,100,96
1,36,100,78
1,36,100,528
1,36,100,96
1,36,100,78
1,36,100,528
1,36,100,96
1,36,100,78
1,36,100,528
1,36,100,96
1,36,100,78
1,36,100,528
1,36,100,96
1,36,100,78
1,36,100,528
1,36,100,96
1,36,100,78
1,36,100,528
1,36,100,96
1,36,100,78
1,36,100,528
1,36,100,96
1,36,100,78
1,36,100,528
1,36,100,96
1,36,100,78
1,36,100,528
1,36,100,96
1,36,100,78
1,36,100,528
1,36,100,96
1,36,100,78
1,36,100,528
1,36,100,96
1,36,100,78
1,36,100,528
1,36,100,96
1,36,100,78
1,36,100,528
1,36,100,96
1,36,100,78
1,36,100,528
1,36,100,96
1,36,100,78
1,36,100,528
1,36,100,96
1,36,100,78
1,36,100,528
1,36,100,96
1,36,100,78
1,36,100,528
1,36,100,96
1,36,100,78
1,36,100,528
1,36,100,96
1,36,100,78
1,36,100,528
1,36,100,96
1,36,100,78
1,36,100,528
1,36,100,96
1,36,100,78
1,36,100,528
1,36,100,96
1,36,100,78
1,36,100,528
1,36,100,96
1,36,100,78
1,36,100,528
1,36,100,96
1,36,100,78
1,36,100,528
1,36,100,96
1,36,100,78
1,36,100,528
1,36,100,96
1,36,100,78
1,36,100,528
1,36,100,96
1,36,100,78
1,36,100,528
1,36,100,96
1,36,100,78
1,36,100,528
1,36,100,96
1,36,100,78
1,36,100,528
1,36,100,96
1,36,100,78
1,36,100,528
1,36,100,96
1,36,100,78
1,36,100,528
1,36,100,96
1,36,100,78
1,36,100,528
1,36,100,96
1,36,100,78
1,36,100,528
1,36,100,96
1,36,100,78
1,36,100,528
1,36,100,96
1,36,100,78
1,36,100,528
1,36,100,96
1,36,100,78
1,36,100,528
1,36,100,96
1,36,100,78
1,36,100,528
1,36,100,96
1,36,100,78
1,36,100,528
1,36,100,96
1,36,100,78
1,36,100,528
1,36,100,96
1,36,100,78
1,36,100,528
1,36,100,96
1,36,100,78
1,36,100,528
1,36,100,96
1,36,100,78
1,36,100,528
1,36,100,96
1,36,100,78
1,36,100,528
1,36,100,96
1,36,100,78
1,36,100,528
1,36,100,96
1,36,100,78
1,36,100,528
1,36,100,96
1,36,100,78
1,36,100,528
1,36,100,96
1,36,100,78
1,36,100,528
1,36,100,96
1,36,100,78
1,36,100,528
1,36,100,96
1,36,100,78
1,36,100,528
1,36,100,96
1,36,100,78
1,36,100,528
1,36,100,96
1,36,100,78
1,36,100,528
1,36,100,96
1,36,100,78
1,36,100,528
1,36,97,96
1,36,96,78
1,36,91,528
1,36,88,96
1,36,87,78
1,36,82,528
1,36,79,96
1,36,78,78
1,36,73,528
1,36,70,96
1,36,69,78
1,36,64,528
1,36,61,96
1,36,60,78
1,36,55,528
1,36,52,96
1,36,51,78
1,36,46,528
1,36,43,96
1,36,42,78
1,36,37,528
1,36,34,96
1,36,33,78
2,38,80,2400
2,38,80,143
2,38,80,121
2,38,80,162
2,38,80,597
2,38,80,143
2,38,80,121
2,38,80,162
2,38,80,597
2,38,80,143
2,38,80,121
2,38,80,162
2,38,80,597
2,38,80,143
2,38,80,121
2,38,80,162
2,38,80,597
2,38,80,143
2,38,80,121
2,38,80,162
2,38,80,597
2,38,80,143
2,38,80,121
2,38,80,162
2,38,80,597
2,38,80,143
2,38,80,121
2,38,80,162
2,38,80,597
2,38,80,143
2,38,80,121
2,38,80,162
2,38,80,597
2,38,80,143
2,38,80,121
2,38,80,162
2,38,80,597
2,38,80,143
2,38,80,121
2,38,80,162
2,38,80,597
2,38,80,143
2,38,80,121
2,38,80,162
2,38,80,597
2,38,80,143
2,38,80,121
2,38,80,162
2,38,80,597
2,38,80,143
2,38,80,121
2,38,80,162
2,38,80,597
2,38,80,143
2,38,80,121
2,38,80,162
2,38,80,597
2,38,80,143
2,38,80,121
2,38,80,162
2,38,80,597
2,38,80,143
2,38,80,121
2,38,80,162
2,38,80,597
2,38,80,143
2,38,80,121
2,38,80,162
2,38,80,597
2,38,80,143
2,38,80,121
2,38,80,162
2,38,80,597
2,38,80,143
2,38,80,121
2,38,80,162
2,38,80,597
2,38,80,143
2,38,80,121
2,38,80,162
2,38,80,597
2,38,80,143
2,38,80,121
2,38,80,162
2,38,80,597
2,38,80,143
2,38,80,121
2,38,80,162
2,38,80,597
2,38,80,143
2,38,80,121
2,38,80,162
2,38,80,597
2,38,80,143
2,38,80,121
2,38,80,162
2,38,80,597
2,38,80,143
2,38,80,121
2,38,80,162
2,38,80,597
2,38,80,143
2,38,80,121
2,38,80,162
2,38,80,597
2,38,80,143
2,38,80,121
2,38,80,162
2,38,80,597
2,38,80,143
2,38,80,121
2,38,80,162
2,38,80,597
2,38,80,143
2,38,80,121
2,38,80,162
2,38,80,597
2,38,80,143
2,38,80,121
2,38,80,162
2,38,80,597
2,38,80,143
2,38,80,121
2,38,80,162
2,38,80,597
2,38,80,143
2,38,80,121
2,38,80,162
2,38,80,597
2,38,80,143
2,38,80,121
2,38,80,162
2,38,80,597
2,38,80,143
2,38,80,121
2,38,80,162
2,38,80,597
2,38,80,143
2,38,80,121
2,38,80,162
2,38,80,597
2,38,80,143
2,38,80,121
2,38,80,162
2,38,80,597
2,38,80,143
2,38,80,121
2,38,80,162
2,38,80,597
2,38,80,143
2,38,80,121
2,38,80,162
2,38,80,597
2,38,80,143
2,38,80,121
2,38,80,162
2,38,80,597
2,38,80,143
2,38,80,121
2,38,80,162
2,38,80,597
2,38,80,143
2,38,80,121
2,38,80,162
2,38,80,597
2,38,80,143
2,38,80,121
2,38,80,162
2,38,80,597
2,38,80,143
2,38,80,121
2,38,80,162
2,38,80,597
2,38,80,143
2,38,80,121
2,38,80,162
2,38,80,597
2,38,80,143
2,38,80,121
2,38,80,162
2,38,80,597
2,38,80,143
2,38,80,121
2,38,80,162
2,38,80,597
2,38,80,143
2,38,80,121
2,38,80,162
2,38,80,597
2,38,80,143
2,38,80,121
2,38,80,162
2,38,78,597
2,38,75,143
2,38,71,121
2,38,68,162
2,38,64,597
2,38,60,143
2,38,56,121
2,38,53,162
2,38,49,597
2,38,46,143
2,38,42,121
2,38,39,162
2,38,35,597
2,38,32,143
2,38,28,121
2,38,24,162
3,39,110,2400
3,39,110,143
3,39,110,121
3,39,110,162
3,39,110,597
3,39,110,143
3,39,110,121
3,39,110,162
3,39,110,597
3,39,110,143
3,39,110,121
3,39,110,162
3,39,110,597
3,39,110,143
3,39,110,121
3,39,110,162
3,39,110,597
3,39,110,143
3,39,110,121
3,39,110,162
3,39,110,597
3,39,110,143
3,39,110,121
3,39,110,162
3,39,110,597
3,39,110,143
3,39,110,121
3,39,110,162
3,39,110,597
3,39,110,143
3,39,110,121
3,39,110,162
3,39,110,597
3,39,110,143
3,39,110,121
3,39,110,162
3,39,110,597
3,39,110,143
3,39,110,121
3,39,110,162
3,39,110,597
3,39,110,143
3,39,110,121
3,39,110,162
3,39,110,597
3,39,110,143
3,39,110,121
3,39,110,162
3,39,110,597
3,39,110,143
3,39,110,121
3,39,110,162
3,39,110,597
3,39,110,143
3,39,110,121
3,39,110,162
3,39,110,597
3,39,110,143
3,39,110,121
3,39,110,162
3,39,110,597
3,39,110,143
3,39,110,121
3,39,110,162
3,39,110,597
3,39,110,143
3,39,110,121
3,39,110,162
3,39,110,597
3,39,110,143
3,39,110,121
3,39,110,162
3,39,110,597
3,39,110,143
3,39,110,121
3,39,110,162
3,39,110,597
3,39,110,143
3,39,110,121
3,39,110,162
3,39,110,597
3,39,110,143
3,39,110,121
3,39,110,162
3,39,110,597
3,39,110,143
3,39,110,121
3,39,110,162
3,39,110,597
3,39,110,143
3,39,110,121
3,39,110,162
3,39,110,597
3,39,110,143
3,39,110,121
3,39,110,162
3,39,110,597
3,39,110,143
3,39,110,121
3,39,110,162
3,39,110,597
3,39,110,143
3,39,110,121
3,39,110,162
3,39,110,597
3,39,110,143
3,39,110,121
3,39,110,162
3,39,110,597
3,39,110,143
3,39,110,121
3,39,110,162
3,39,110,597
3,39,110,143
3,39,110,121
3,39,110,162
3,39,110,597
3,39,110,143
3,39,110,121
3,39,110,162
3,39,110,597
3,39,110,143
3,39,110,121
3,39,110,162
3,39,110,597
3,39,110,143
3,39,110,121
3,39,110,162
3,39,110,597
3,39,110,143
3,39,110,121
3,39,110,162
3,39,110,597
3,39,110,143
3,39,110,121
3,39,110,162
3,39,110,597
3,39,110,143
3,39,110,121
3,39,110,162
3,39,110,597
3,39,110,143
3,39,110,121
3,39,110,162
3,39,110,597
3,39,110,143
3,39,110,121
3,39,110,162
3,39,110,597
3,39,110,143
3,39,110,121
3,39,110,162
3,39,110,597
3,39,110,143
3,39,110,121
3,39,110,162
3,39,110,597
3,39,110,143
3,39,110,121
3,39,110,162
3,39,110,597
3,39,110,143
3,39,110,121
3,39,110,162
3,39,110,597
3,39,110,143
3,39,110,121
3,39,110,162
3,39,110,597
3,39,110,143
3,39,110,121
3,39,110,162
3,39,110,597
3,39,110,143
3,39,110,121
3,39,110,162
3,39,110,597
3,39,110,143
3,39,110,121
3,39,110,162
3,39,110,597
3,39,110,143
3,39,110,121
3,39,110,162
3,39,110,597
3,39,110,143
3,39,110,121
3,39,110,162
3,39,110,597
3,39,110,143
3,39,110,121
3,39,110,162
3,39,107,597
3,39,103,143
3,39,97,121
3,39,93,162
3,39,88,597
3,39,83,143
3,39,78,121
3,39,73,162
3,39,68,597
3,39,63,143
3,39,58,121
3,39,53,162
3,39,48,597
3,39,44,143
3,39,38,121
3,39,34,162
4,75,70,2160
4,76,70,66
4,77,70,49
4,75,70,277
4,76,70,102
4,77,70,85
4,75,70,323
4,76,70,133
4,77,70,87
4,75,70,310
4,76,70,119
4,77,70,67
4,75,70,325
4,76,70,66
4,77,70,49
4,75,70,277
4,76,70,102
4,77,70,85
4,75,70,323
4,76,70,133
4,77,70,87
4,75,70,310
4,76,70,100
4,76,70,19
4,77,70,64
4,77,70,3
4,75,70,289
4,76,70,66
4,77,70,49
4,75,70,277
4,76,70,102
4,77,70,85
4,75,70,323
4,76,70,133
4,77,70,87
4,75,70,310
4,76,70,100
4,76,70,19
4,77,70,64
4,77,70,3
4,75,70,289
4,76,70,66
4,77,70,49
4,75,70,277
4,76,70,102
4,77,70,85
4,75,70,323
4,76,70,133
4,77,70,87
4,75,70,310
4,76,70,100
4,76,70,19
4,77,70,64
4,77,70,3
4,75,70,15649
4,76,70,66
4,77,70,49
4,75,70,277
4,76,70,102
4,77,70,85
4,75,70,323
4,76,70,133
4,77,70,87
4,75,70,310
4,76,70,119
4,77,70,67
4,75,70,325
4,76,70,66
4,77,70,49
4,75,70,277
4,76,70,102
4,77,70,85
4,75,70,323
4,76,70,133
4,77,70,87
4,75,70,310
4,76,70,100
4,76,70,19
4,77,70,64
4,77,70,3
4,75,70,289
4,76,70,66
4,77,70,49
4,75,70,277
4,76,70,102
4,77,70,85
4,75,70,323
4,76,70,133
4,77,70,87
4,75,70,310
4,76,70,100
4,76,70,19
4,77,70,64
4,77,70,3
4,75,70,289
4,76,70,66
4,77,70,49
4,75,70,277
4,76,70,102
4,77,70,85
4,75,70,323
4,76,70,133
4,77,70,87
4,75,70,310
4,76,70,100
4,76,70,19
4,77,70,64
4,77,70,3
4,75,70,15649
4,76,70,66
4,77,70,49
4,75,70,277
4,76,70,102
4,77,70,85
4,75,70,323
4,76,70,133
4,77,70,87
4,75,70,310
4,76,70,119
4,77,70,67
4,75,70,325
4,76,70,66
4,77,70,49
4,75,70,277
4,76,70,102
4,77,70,85
4,75,70,323
4,76,70,133
4,77,70,87
4,75,70,310
4,76,70,100
4,76,70,19
4,77,70,64
4,77,70,3
4,75,70,289
4,76,70,66
4,77,70,49
4,75,70,277
4,76,70,102
4,77,70,85
4,75,70,323
4,76,70,133
4,77,70,87
4,75,70,310
4,76,70,100
4,76,70,19
4,77,70,64
4,77,70,3
4,75,70,289
4,76,70,66
4,77,70,49
4,75,70,277
4,76,70,102
4,77,70,85
4,75,70,323
4,76,70,133
4,77,70,87
4,75,70,310
4,76,70,100
4,76,70,19
4,77,70,64
4,77,70,3
4,75,70,15649
4,76,70,66
4,77,70,49
4,75,70,277
4,76,70,102
4,77,70,85
4,75,70,323
4,76,70,133
4,77,70,87
4,75,70,310
4,76,70,119
4,77,70,67
4,75,70,325
4,76,70,66
4,77,70,49
4,75,70,277
4,76,70,102
4,77,70,85
4,75,70,323
4,76,70,133
4,77,70,87
4,75,70,310
4,76,70,100
4,76,70,19
4,77,70,64
4,77,70,3
4,75,70,289
4,76,70,66
4,77,70,49
4,75,70,277
4,76,70,102
4,77,70,85
4,75,70,323
4,76,70,133
4,77,70,87
4,75,70,310
4,76,70,100
4,76,70,19
4,77,70,64
4,77,70,3
4,75,70,289
4,76,70,66
4,77,70,49
4,75,70,277
4,76,70,102
4,77,70,85
4,75,70,323
4,76,70,133
4,77,70,87
4,75,70,310
4,76,70,100
4,76,70,19
4,77,70,64
4,77,70,3
4,75,70,289
4,76,70,66
4,77,70,49
4,75,70,277
4,76,70,102
4,77,70,85
4,75,70,323
4,76,70,133
4,77,70,87
4,75,70,310
4,76,70,119
4,77,70,67
4,75,70,325
4,76,70,66
4,77,70,49
4,75,70,277
4,76,70,102
4,77,70,85
4,75,70,323
4,76,70,133
4,77,70,87
4,75,70,310
4,76,70,100
4,76,70,19
4,77,70,64
4,77,70,3
4,75,70,289
4,76,70,66
4,77,70,49
4,75,70,277
4,76,70,102
4,77,70,85
4,75,70,323
4,76,70,133
4,77,70,87
4,75,70,310
4,76,70,100
4,76,70,19
4,77,70,64
4,77,70,3
4,75,70,289
4,76,70,66
4,77,70,49
4,75,70,277
4,76,70,102
4,77,70,85
4,75,70,323
4,76,70,133
4,77,70,87
4,75,70,310
4,76,70,100
4,76,70,19
4,77,70,64
4,77,70,3
4,75,70,15649
4,76,70,66
