track,note,velocity,time
1,81,56,960
1,69,45,0
1,69,0,480
1,81,0,0
1,70,48,0
1,82,59,0
1,82,0,480
1,70,0,0
1,76,51,0
1,88,63,0
1,88,0,480
1,76,0,0
1,79,54,0
1,91,67,0
1,91,0,480
1,79,0,0
1,91,69,0
1,79,56,0
1,79,0,960
1,91,0,0
1,68,51,0
1,80,63,0
1,80,0,480
1,68,0,0
1,81,69,0
1,69,56,0
1,69,0,480
1,81,0,0
1,72,51,0
1,84,63,0
1,84,0,480
1,72,0,0
1,89,68,0
1,77,55,0
1,77,0,480
1,89,0,0
1,77,55,0
1,89,68,0
1,89,0,960
1,77,0,0
1,78,56,0
1,66,45,0
1,66,0,480
1,78,0,0
1,67,48,0
1,79,59,0
1,79,0,480
1,67,0,0
1,70,51,0
1,82,63,0
1,82,0,480
1,70,0,0
1,74,54,0
1,86,67,0
1,86,0,480
1,74,0,0
1,86,69,0
1,74,56,0
1,74,0,960
1,86,0,0
1,64,51,0
1,76,63,0
1,76,0,480
1,64,0,0
1,77,69,0
1,65,56,0
1,65,0,480
1,77,0,0
1,69,47,0
1,81,58,0
1,81,0,480
1,69,0,0
1,84,58,0
1,72,47,0
1,72,0,480
1,84,0,0
1,72,44,0
1,84,54,0
1,69,38,900
1,84,0,60
1,72,0,0
1,81,45,0
1,69,0,420
1,70,40,0
1,81,0,60
1,82,48,0
1,70,0,420
1,76,43,0
1,82,0,60
1,88,51,0
1,76,0,420
1,79,45,0
1,88,0,60
1,91,54,0
1,79,0,420
1,79,47,0
1,91,0,60
1,91,56,0
1,91,0,960
1,79,0,0
1,68,43,0
1,80,51,0
1,80,0,480
1,68,0,0
1,81,53,0
1,69,44,0
1,69,0,480
1,81,0,0
1,72,43,0
1,84,51,0
1,84,0,480
1,72,0,0
1,89,55,0
1,77,46,0
1,77,0,480
1,89,0,0
1,77,46,0
1,89,55,0
1,89,0,960
1,77,0,0
1,78,45,0
1,66,38,0
1,66,0,480
1,78,0,0
1,67,40,0
1,79,48,0
1,79,0,480
1,67,0,0
1,70,43,0
1,82,51,0
1,82,0,480
1,70,0,0
1,74,45,0
1,86,54,0
1,86,0,480
1,74,0,0
1,86,56,0
1,74,47,0
1,74,0,960
1,86,0,0
1,64,43,0
1,76,51,0
1,76,0,480
1,64,0,0
1,77,56,0
1,65,47,0
1,65,0,480
1,77,0,0
1,69,39,0
1,81,47,0
1,81,0,480
1,69,0,0
1,84,47,0
1,72,39,0
1,72,0,480
1,84,0,0
1,72,37,0
1,84,44,0
1,84,0,960
1,72,0,0
1,79,53,0
1,91,66,0
1,91,0,480
1,79,0,0
1,91,72,0
1,79,58,0
1,79,0,480
1,91,0,0
1,76,53,0
1,88,66,0
1,88,0,480
1,76,0,0
1,82,68,0
1,70,55,0
1,70,0,480
1,82,0,0
1,69,55,0
1,81,69,0
1,81,0,960
1,69,0,0
1,81,55,0
1,93,69,0
1,93,0,480
1,81,0,0
1,93,75,0
1,81,60,0
1,81,0,480
1,93,0,0
1,77,55,0
1,89,69,0
1,89,0,480
1,77,0,0
1,86,74,0
1,74,59,0
1,74,0,480
1,86,0,0
1,72,57,0
1,84,72,0
1,84,0,960
1,72,0,0
1,84,57,0
1,96,72,0
1,96,0,480
1,84,0,0
1,96,79,0
1,84,64,0
1,84,0,480
1,96,0,0
1,81,60,0
1,93,75,0
1,93,0,480
1,81,0,0
1,89,77,0
1,77,63,0
1,77,0,480
1,89,0,0
1,74,67,0
1,86,83,0
1,86,0,960
1,74,0,0
1,86,55,0
1,98,68,0
1,98,0,480
1,86,0,0
1,98,73,0
1,86,59,0
1,86,0,480
1,98,0,0
1,82,52,0
1,94,65,0
1,94,0,480
1,82,0,0
1,91,69,0
1,79,55,0
1,79,0,480
1,91,0,0
1,77,52,0
1,89,65,0
1,79,44,900
1,89,0,60
1,77,0,0
1,91,49,0
1,79,0,420
1,79,43,0
1,91,0,60
1,91,54,0
1,79,0,420
1,76,39,0
1,91,0,60
1,88,49,0
1,76,0,420
1,70,43,0
1,88,0,60
1,82,53,0
1,70,0,420
1,69,43,0
1,82,0,60
1,81,53,0
1,81,0,960
1,69,0,0
1,81,44,0
1,93,55,0
1,93,0,480
1,81,0,0
1,93,60,0
1,81,48,0
1,81,0,480
1,93,0,0
1,77,45,0
1,89,56,0
1,89,0,480
1,77,0,0
1,86,61,0
1,74,50,0
1,74,0,480
1,86,0,0
1,72,50,0
1,84,62,0
1,84,0,960
1,72,0,0
1,84,50,0
1,96,62,0
1,96,0,480
1,84,0,0
1,96,69,0
1,84,56,0
1,84,0,480
1,96,0,0
1,81,52,0
1,93,66,0
1,93,0,480
1,81,0,0
1,89,67,0
1,77,55,0
1,77,0,480
1,89,0,0
1,74,60,0
1,86,74,0
1,86,0,960
1,74,0,0
1,86,48,0
1,98,60,0
1,98,0,480
1,86,0,0
1,98,64,0
1,86,52,0
1,86,0,480
1,98,0,0
1,82,43,0
1,94,54,0
1,94,0,480
1,82,0,0
1,91,54,0
1,79,43,0
1,79,0,480
1,91,0,0
1,77,40,0
1,89,50,0
1,89,0,480
1,77,0,0
1,57,28,60
1,60,28,30
1,65,34,30
1,60,0,330
1,65,0,30
1,57,0,0
1,57,69,1200
1,51,58,0
1,48,58,0
1,48,0,240
1,51,0,0
1,57,0,0
1,48,64,0
1,52,64,0
1,58,75,0
1,58,0,240
1,52,0,0
1,48,0,0
1,60,59,0
1,69,71,0
1,63,59,0
1,63,0,240
1,69,0,0
1,60,0,0
1,64,64,0
1,60,64,0
1,70,76,0
1,70,0,240
1,60,0,0
1,64,0,0
1,75,60,0
1,72,60,0
1,81,72,0
1,81,0,240
1,72,0,0
1,75,0,0
1,76,65,0
1,82,77,0
1,72,65,0
1,72,0,240
1,82,0,0
1,76,0,0
1,93,74,0
1,84,63,0
1,87,63,0
1,87,0,240
1,84,0,0
1,93,0,0
1,84,66,0
1,84,0,120
1,94,73,0
1,94,0,120
1,91,64,0
1,96,75,0
1,91,0,120
1,88,73,0
1,88,0,120
1,96,0,0
1,84,75,0
1,84,0,120
1,82,74,0
1,82,0,120
1,79,72,0
1,79,0,120
1,76,71,0
1,76,0,120
1,72,69,0
1,72,0,240
1,50,58,0
1,53,58,0
1,59,69,0
1,59,0,240
1,53,0,0
1,50,0,0
1,48,64,0
1,60,75,0
1,53,64,0
1,53,0,240
1,60,0,0
1,48,0,0
1,65,59,0
1,62,59,0
1,71,71,0
1,71,0,240
1,62,0,0
1,65,0,0
1,65,64,0
1,60,64,0
1,72,76,0
1,72,0,240
1,60,0,0
1,65,0,0
1,77,60,0
1,83,72,0
1,74,60,0
1,74,0,240
1,83,0,0
1,77,0,0
1,84,77,0
1,72,65,0
1,77,65,0
1,77,0,240
1,72,0,0
1,84,0,0
1,95,74,0
1,86,63,0
1,89,63,0
1,89,0,240
1,86,0,0
1,95,0,0
1,84,66,0
1,84,0,120
1,101,77,0
1,101,0,120
1,96,75,0
1,93,73,120
1,93,0,120
1,96,0,0
1,89,76,0
1,89,0,120
1,84,73,0
1,84,0,120
1,81,71,0
1,81,0,120
1,77,69,0
1,77,0,120
1,78,67,0
1,78,0,120
1,81,63,0
1,84,57,120
1,84,0,120
1,87,54,0
1,81,0,120
1,79,56,0
1,87,0,120
1,86,48,0
1,86,0,120
1,85,48,0
1,85,0,120
1,86,48,0
1,86,0,120
1,91,54,0
1,79,0,120
1,80,47,0
1,91,0,100
1,91,54,20
1,81,47,0
1,80,0,20
1,82,47,100
1,81,0,20
1,91,0,80
1,83,47,20
1,91,54,0
1,82,0,20
1,84,48,100
1,83,0,20
1,91,0,80
1,85,49,20
1,91,56,0
1,84,0,20
1,86,50,100
1,85,0,20
1,91,0,80
1,89,49,20
1,91,56,0
1,86,0,20
1,88,49,100
1,89,0,20
1,91,0,80
1,91,56,20
1,87,50,0
1,88,0,20
1,88,49,100
1,87,0,20
1,91,0,80
1,84,50,20
1,96,56,0
1,88,0,20
1,85,51,100
1,84,0,20
1,96,0,80
1,96,56,20
1,86,50,0
1,85,0,20
1,87,51,100
1,86,0,20
1,96,0,80
1,96,58,20
1,88,51,0
1,87,0,20
1,89,53,100
1,88,0,20
1,96,0,80
1,90,53,20
1,96,60,0
1,89,0,20
1,91,55,100
1,90,0,20
1,96,0,80
1,94,54,20
1,96,61,0
1,91,0,20
1,93,56,100
1,94,0,20
1,96,0,80
1,92,56,20
1,96,65,0
1,93,0,20
1,93,57,100
1,92,0,20
1,96,0,80
1,101,65,20
1,89,56,0
1,93,0,20
1,90,56,100
1,89,0,20
1,101,0,80
1,91,57,20
1,101,67,0
1,90,0,20
1,92,57,100
1,91,0,20
1,101,0,80
1,101,67,20
1,93,57,0
1,92,0,20
1,94,58,100
1,93,0,20
1,101,0,80
1,101,69,20
1,95,59,0
1,94,0,20
1,98,60,100
1,95,0,20
1,101,0,80
1,100,69,20
1,96,69,0
1,98,0,20
1,96,0,220
1,100,0,0
1,72,47,0
1,72,0,120
1,76,52,0
1,76,0,120
1,79,56,0
1,79,0,120
1,84,54,0
1,84,0,120
1,88,52,0
1,88,0,120
1,91,50,0
1,91,0,120
1,90,52,0
1,90,0,120
1,99,55,0
1,99,0,120
1,87,45,0
1,87,0,120
1,96,52,0
1,96,0,120
1,91,45,0
1,91,0,120
1,100,39,0
1,100,0,120
1,88,40,0
1,88,0,90
1,88,40,30
1,88,0,90
1,96,48,30
1,96,0,120
1,84,41,0
1,84,0,90
1,84,41,30
1,84,0,120
1,91,42,0
1,91,0,90
1,79,51,30
1,79,0,90
1,79,43,30
1,79,0,120
1,88,45,0
1,88,0,120
1,76,45,0
1,76,0,90
1,76,54,30
1,76,0,120
1,84,48,0
1,84,0,120
1,72,48,0
1,72,0,90
1,72,48,30
1,72,0,90
1,79,56,30
1,79,0,120
1,67,48,0
1,67,0,90
1,67,48,30
1,67,0,120
1,79,48,0
1,79,0,90
1,64,56,30
1,64,0,90
1,64,49,30
1,64,0,120
1,72,49,0
1,72,0,120
1,60,50,0
1,60,0,120
1,65,64,0
1,65,0,120
1,72,51,0
1,72,0,120
1,60,51,0
1,60,0,120
1,69,52,0
1,69,0,120
1,77,63,0
1,77,0,120
1,65,53,0
1,65,0,120
1,72,53,0
1,72,0,120
1,81,54,0
1,81,0,120
1,69,66,0
1,69,0,120
1,77,55,0
1,77,0,120
1,84,57,0
1,84,0,120
1,72,57,0
1,72,0,120
1,84,69,0
1,84,0,120
1,89,59,0
1,89,0,120
1,77,60,0
1,77,0,120
1,84,64,0
1,84,0,120
1,93,75,0
1,93,0,120
1,81,67,0
1,81,0,120
1,89,68,0
1,89,0,120
1,96,68,0
1,96,0,120
1,84,78,0
1,84,0,120
1,93,72,0
1,93,0,120
1,101,73,0
1,101,0,120
1,89,74,0
1,89,0,120
1,92,76,0
1,92,0,120
1,101,80,0
1,101,0,120
1,100,79,0
1,100,0,120
1,99,76,0
1,99,0,120
1,98,75,0
1,101,70,0
1,98,0,120
1,97,72,0
1,97,0,120
1,96,72,0
1,96,0,120
1,95,70,0
1,95,0,120
1,101,0,0
1,92,62,0
1,98,74,0
1,92,0,120
1,86,70,0
1,86,0,120
1,98,0,0
1,91,57,0
1,95,69,0
1,91,0,120
1,89,67,0
1,89,0,120
1,95,0,0
1,96,74,0
1,88,63,0
1,88,0,120
1,94,64,0
1,94,0,120
1,93,63,0
1,93,0,120
1,92,61,0
1,92,0,120
1,96,0,0
1,91,56,0
1,96,67,0
1,91,0,120
1,90,54,0
1,90,0,120
1,89,53,0
1,89,0,120
1,88,53,0
1,88,0,120
1,96,0,0
1,85,48,0
1,91,56,0
1,85,0,120
1,79,46,0
1,79,0,120
1,91,0,0
1,88,51,0
1,84,43,0
1,84,0,120
1,82,43,0
1,82,0,120
1,88,0,0
1,84,43,0
1,84,0,120
1,89,38,0
1,93,47,0
1,89,0,120
1,81,43,0
1,81,0,120
1,93,0,0
1,78,43,0
1,78,0,120
1,77,43,0
1,77,0,120
1,86,38,0
1,89,47,0
1,86,0,120
1,77,44,0
1,77,0,120
1,89,0,0
1,73,44,0
1,73,0,120
1,72,44,0
1,72,0,120
1,84,48,0
1,81,40,0
1,81,0,120
1,72,44,0
1,72,0,120
1,84,0,0
1,70,44,0
1,70,0,120
1,69,44,0
1,69,0,120
1,77,40,0
1,81,48,0
1,77,0,120
1,69,44,0
1,69,0,120
1,81,0,0
1,65,44,0
1,65,0,120
1,57,36,90
1,60,40,30
1,60,0,360
1,57,0,0
1,93,65,240
1,96,77,0
1,93,0,120
1,84,59,0
1,90,71,0
1,90,0,120
1,84,0,0
1,96,0,0
1,91,75,0
1,84,68,120
1,84,0,120
1,91,0,0
1,81,63,0
1,84,74,0
1,81,0,120
1,72,54,0
1,78,65,0
1,78,0,120
1,72,0,0
1,84,0,0
1,79,71,0
1,72,63,120
1,72,0,120
1,79,0,0
1,69,58,0
1,72,69,0
1,69,0,120
1,60,51,0
1,66,60,0
1,66,0,120
1,60,0,0
1,72,0,0
1,67,64,0
1,65,63,120
1,65,0,120
1,67,0,0
1,67,71,0
1,64,59,0
1,64,0,120
1,62,65,0
1,62,0,120
1,67,0,0
1,69,69,0
1,61,58,0
1,61,0,120
1,58,58,0
1,58,0,120
1,69,0,0
1,64,58,0
1,67,63,240
1,67,0,240
1,70,68,0
1,70,0,240
1,69,57,0
1,73,70,0
1,69,0,240
1,67,69,0
1,67,0,240
1,73,0,0
1,64,0,0
1,74,66,0
1,65,63,0
1,65,0,240
1,74,0,0
1,85,65,0
1,93,77,0
1,85,0,120
1,79,59,0
1,88,71,0
1,88,0,120
1,79,0,0
1,93,0,0
1,86,65,0
1,89,75,0
1,86,0,120
1,77,68,0
1,77,0,120
1,89,0,0
1,72,63,0
1,81,74,0
1,72,0,120
1,67,54,0
1,76,65,0
1,76,0,120
1,67,0,0
1,81,0,0
1,74,65,0
1,77,71,0
1,74,0,120
1,64,63,0
1,64,0,120
1,77,0,0
1,65,58,0
1,71,69,0
1,65,0,120
1,67,60,0
1,67,0,120
1,71,0,0
1,68,63,0
1,72,68,0
1,68,0,120
1,65,63,0
1,65,0,120
1,64,58,0
1,64,0,120
1,67,63,0
1,67,0,120
1,72,0,0
1,70,55,0
1,70,0,120
1,73,53,0
1,73,0,120
1,76,52,0
1,76,0,120
1,79,52,0
1,79,0,120
1,82,49,0
1,82,0,120
1,84,51,0
1,88,51,120
1,91,52,120
1,96,54,120
1,91,0,120
1,84,0,0
1,88,0,0
1,84,48,0
1,96,0,120
1,96,53,0
1,84,0,120
1,89,49,0
1,89,0,120
1,96,0,0
1,83,56,0
1,95,56,0
1,95,0,120
1,92,51,0
1,92,0,120
1,83,0,0
1,86,52,0
1,91,52,0
1,91,0,120
1,89,54,0
1,93,46,90
1,93,0,30
1,89,0,0
1,86,0,0
1,91,54,0
1,88,46,0
1,88,0,180
1,85,52,0
1,89,45,30
1,89,0,30
1,85,0,0
1,91,0,0
1,88,56,0
1,84,47,0
1,84,0,180
1,82,52,0
1,86,45,30
1,86,0,30
1,82,0,0
1,88,0,0
1,84,54,0
1,81,46,0
1,81,0,180
1,78,52,0
1,82,49,30
1,82,0,30
1,78,0,0
1,84,0,0
1,81,54,0
1,77,47,0
1,77,0,180
1,75,52,0
1,75,0,60
1,81,0,0
1,82,67,0
1,74,67,0
1,74,0,120
1,79,61,0
1,79,0,120
1,82,64,0
1,82,0,120
1,85,66,0
1,85,0,120
1,82,0,0
1,86,68,0
1,86,0,120
1,91,70,0
1,91,0,120
1,94,72,0
1,94,0,120
1,97,74,0
1,97,0,120
1,98,76,0
1,88,54,120
1,90,68,0
1,90,0,120
1,91,63,0
1,91,0,120
1,98,0,0
1,96,60,0
1,96,0,120
1,88,0,0
1,93,76,0
1,84,52,120
1,87,65,0
1,87,0,120
1,88,60,0
1,88,0,120
1,93,0,0
1,91,59,0
1,91,0,120
1,84,0,0
1,89,75,0
1,82,52,120
1,85,60,0
1,85,0,120
