track,note,velocity,time
1,71,49,0
1,64,35,240
1,67,35,0
1,67,0,240
1,64,0,0
1,71,0,0
1,63,29,0
1,66,29,0
1,71,49,0
1,66,0,240
1,63,0,0
1,62,35,0
1,65,34,0
1,71,0,120
1,71,40,0
1,71,0,120
1,65,0,0
1,62,0,0
1,61,33,0
1,71,49,0
1,64,33,0
1,71,0,240
1,70,46,0
1,70,0,240
1,76,48,0
1,76,0,240
1,64,0,0
1,61,0,0
1,69,33,0
1,60,33,0
1,63,33,0
1,75,47,0
1,75,0,240
1,63,0,0
1,60,0,0
1,74,49,0
1,74,0,240
1,69,0,0
1,67,42,0
1,67,0,240
1,66,34,0
1,72,47,0
1,66,0,240
1,67,39,0
1,72,0,120
1,71,45,0
1,71,0,120
1,67,0,0
1,67,46,0
1,71,46,0
1,71,0,480
1,67,0,0
1,69,45,0
1,66,45,0
1,66,0,480
1,69,0,0
1,79,46,240
1,71,46,0
1,74,46,0
1,74,0,240
1,71,0,0
1,79,0,0
1,78,48,0
1,69,48,0
1,74,48,0
1,74,0,240
1,69,0,0
1,78,0,0
1,76,50,0
1,67,50,0
1,73,50,0
1,73,0,240
1,67,0,0
1,76,0,0
1,74,56,0
1,66,56,0
1,69,56,0
1,69,0,1200
1,66,0,0
1,74,0,0
1,67,45,0
1,74,45,0
1,74,0,240
1,67,0,0
1,66,42,0
1,72,42,0
1,66,0,240
1,67,41,0
1,72,0,120
1,71,41,0
1,71,0,120
1,67,0,0
1,67,44,0
1,71,44,0
1,71,0,480
1,67,0,0
1,69,40,0
1,66,40,0
1,66,0,480
1,69,0,0
1,71,49,0
1,64,35,240
1,67,35,0
1,67,0,240
1,64,0,0
1,71,0,0
1,63,29,0
1,66,29,0
1,71,49,0
1,66,0,240
1,63,0,0
1,62,35,0
1,65,34,0
1,71,0,120
1,71,40,0
1,71,0,120
1,65,0,0
1,62,0,0
1,61,33,0
1,64,33,0
1,71,49,0
1,71,0,240
1,70,46,0
1,70,0,240
1,76,48,0
1,76,0,240
1,64,0,0
1,61,0,0
1,60,33,0
1,63,33,0
1,69,33,0
1,75,47,0
1,75,0,240
1,60,0,0
1,63,0,0
1,74,49,0
1,74,0,240
1,69,0,0
1,67,42,0
1,67,0,240
1,66,34,0
1,72,47,0
1,66,0,240
1,67,39,0
1,72,0,120
1,71,45,0
1,71,0,120
1,67,0,0
1,67,46,0
1,71,46,0
1,71,0,480
1,67,0,0
1,66,45,0
1,69,45,0
1,69,0,480
1,66,0,0
1,71,46,240
1,74,46,0
1,79,46,0
1,79,0,240
1,74,0,0
1,71,0,0
1,69,48,0
1,74,48,0
1,78,48,0
1,78,0,240
1,74,0,0
1,69,0,0
1,67,50,0
1,73,50,0
1,76,50,0
1,76,0,240
1,73,0,0
1,67,0,0
1,66,56,0
1,69,56,0
1,74,56,0
1,74,0,1200
1,69,0,0
1,66,0,0
1,67,45,0
1,74,45,0
1,74,0,240
1,67,0,0
1,72,42,0
1,66,42,0
1,66,0,240
1,67,41,0
1,72,0,120
1,71,41,0
1,71,0,120
1,67,0,0
1,67,44,0
1,71,44,0
1,71,0,480
1,67,0,0
1,66,40,0
1,69,40,0
1,69,0,480
1,66,0,0
1,59,26,120
1,64,26,0
1,67,26,0
1,67,0,120
1,64,0,0
1,59,0,0
1,59,28,120
1,64,28,0
1,67,28,0
1,67,0,120
1,64,0,0
1,59,0,0
1,66,31,120
1,64,31,0
1,60,31,0
1,60,0,120
1,64,0,0
1,66,0,0
1,66,26,120
1,64,26,0
1,60,26,0
1,60,0,120
1,64,0,0
1,66,0,0
1,59,26,120
1,63,26,0
1,66,26,0
1,66,0,120
1,63,0,0
1,59,0,0
1,59,27,120
1,63,27,0
1,66,27,0
1,66,0,120
1,63,0,0
1,59,0,0
1,59,31,120
1,64,31,0
1,67,31,0
1,67,0,120
1,64,0,0
1,59,0,0
1,55,39,120
1,59,39,0
1,62,39,0
1,62,0,120
1,59,0,0
1,55,0,0
1,55,30,120
1,60,30,0
1,64,30,0
1,64,0,120
1,60,0,0
1,55,0,0
1,55,31,120
1,60,31,0
1,64,31,0
1,64,0,120
1,60,0,0
1,55,0,0
1,57,32,120
1,60,32,0
1,62,32,0
1,62,0,120
1,60,0,0
1,57,0,0
1,57,28,120
1,60,28,0
1,62,28,0
1,62,0,120
1,60,0,0
1,57,0,0
1,55,31,120
1,59,31,0
1,62,31,0
1,62,0,120
1,59,0,0
1,55,0,0
1,55,32,120
1,59,32,0
1,62,32,0
1,62,0,120
1,59,0,0
1,55,0,0
1,55,41,120
1,60,41,0
1,64,41,0
1,64,0,360
1,60,0,0
1,55,0,0
1,59,29,120
1,64,29,0
1,67,29,0
1,67,0,120
1,64,0,0
1,59,0,0
1,59,33,120
1,64,33,0
1,67,33,0
1,67,0,120
1,64,0,0
1,59,0,0
1,66,36,120
1,64,36,0
1,60,36,0
1,60,0,120
1,64,0,0
1,66,0,0
1,66,28,120
1,64,28,0
1,60,28,0
1,60,0,120
1,64,0,0
1,66,0,0
1,59,28,120
1,63,28,0
1,66,28,0
1,66,0,120
1,63,0,0
1,59,0,0
1,59,29,120
1,63,29,0
1,66,29,0
1,66,0,120
1,63,0,0
1,59,0,0
1,59,34,120
1,64,34,0
1,67,34,0
1,67,0,120
1,64,0,0
1,59,0,0
1,55,42,120
1,59,42,0
1,62,42,0
1,62,0,120
1,59,0,0
1,55,0,0
1,55,32,120
1,60,32,0
1,64,32,0
1,64,0,120
1,60,0,0
1,55,0,0
1,55,34,120
1,60,34,0
1,64,34,0
1,64,0,120
1,60,0,0
1,55,0,0
1,57,36,120
1,60,36,0
1,62,36,0
1,62,0,120
1,60,0,0
1,57,0,0
1,57,31,120
1,60,31,0
1,62,31,0
1,62,0,120
1,60,0,0
1,57,0,0
1,55,35,120
1,59,35,0
1,62,35,0
1,62,0,120
1,59,0,0
1,55,0,0
1,55,39,120
1,59,39,0
1,62,39,0
1,62,0,120
1,59,0,0
1,55,0,0
1,55,49,120
1,60,49,0
1,64,49,0
1,64,0,330
1,60,0,0
1,55,0,0
1,71,49,0
1,64,35,240
1,67,35,0
1,67,0,240
1,64,0,0
1,71,0,0
1,63,29,0
1,66,29,0
1,71,49,0
1,66,0,240
1,63,0,0
1,62,35,0
1,65,34,0
1,71,0,120
1,71,40,0
1,71,0,120
1,65,0,0
1,62,0,0
1,61,33,0
1,64,33,0
1,71,49,0
1,71,0,240
1,70,46,0
1,76,48,240
1,76,0,240
1,61,0,0
1,64,0,0
1,70,0,0
1,60,33,0
1,63,33,0
1,69,33,0
1,75,47,0
1,75,0,240
1,60,0,0
1,63,0,0
1,74,49,0
1,74,0,240
1,69,0,0
1,67,42,0
1,67,0,240
1,66,34,0
1,72,47,0
1,66,0,240
1,67,39,0
1,72,0,120
1,71,45,0
1,71,0,120
1,67,0,0
1,67,46,0
1,71,46,0
1,71,0,480
1,67,0,0
1,66,45,0
1,69,45,0
1,69,0,480
1,66,0,0
1,71,46,240
1,74,46,0
1,79,46,0
1,79,0,240
1,74,0,0
1,71,0,0
1,69,48,0
1,74,48,0
1,78,48,0
1,78,0,240
1,74,0,0
1,69,0,0
1,67,50,0
1,73,50,0
1,76,50,0
1,76,0,240
1,73,0,0
1,67,0,0
1,66,56,0
1,69,56,0
1,74,56,0
1,74,0,1200
1,69,0,0
1,66,0,0
1,67,45,0
1,74,45,0
1,74,0,240
1,67,0,0
1,72,42,0
1,66,42,0
1,66,0,240
1,67,41,0
1,72,0,120
1,71,41,0
1,71,0,120
1,67,0,0
1,67,44,0
1,71,44,0
1,71,0,480
1,67,0,0
1,66,40,0
1,69,40,0
1,69,0,480
1,66,0,0
1,71,59,0
1,67,59,0
1,71,0,120
1,72,53,0
1,72,0,120
1,69,53,0
1,69,0,120
1,71,53,0
1,71,0,120
1,67,0,0
1,67,59,0
1,67,0,60
1,71,64,180
1,68,64,0
1,76,64,0
1,76,0,60
1,68,0,0
1,71,0,0
1,76,62,420
1,69,62,0
1,72,62,0
1,72,0,60
1,69,0,0
1,76,0,0
1,69,62,420
1,74,62,0
1,72,62,0
1,72,0,90
1,74,0,0
1,69,0,0
1,67,59,150
1,71,59,0
1,71,0,120
1,72,53,0
1,72,0,120
1,69,53,0
1,69,0,120
1,71,53,0
1,71,0,120
1,67,0,0
1,67,59,0
1,67,0,120
1,73,63,120
1,78,63,0
1,70,63,0
1,70,0,180
1,78,0,0
1,73,0,0
1,78,62,300
1,71,62,0
1,74,62,0
1,74,0,180
1,71,0,0
1,78,0,0
1,74,63,60
1,69,63,0
1,78,63,0
1,78,0,240
1,69,0,0
1,74,0,0
1,74,59,0
1,71,59,0
1,79,59,0
1,79,0,180
1,71,0,0
1,74,0,0
1,79,70,60
1,79,0,480
1,78,66,0
1,78,0,480
1,75,59,0
1,75,0,480
1,76,48,0
1,76,0,480
1,74,50,0
1,74,0,480
1,72,45,0
1,72,0,480
1,70,42,0
1,70,0,480
1,71,38,0
1,71,0,480
1,71,49,0
1,67,35,240
1,64,35,0
1,64,0,240
1,67,0,0
1,71,0,0
1,66,29,0
1,71,49,0
1,63,29,0
1,63,0,240
1,66,0,0
1,65,34,0
1,62,35,0
1,71,0,120
1,71,40,0
1,71,0,120
1,62,0,0
1,65,0,0
1,61,33,0
1,71,49,0
1,64,33,0
1,71,0,240
1,70,46,0
1,70,0,240
1,76,48,0
1,76,0,240
1,64,0,0
1,61,0,0
1,63,33,0
1,69,33,0
1,75,47,0
1,60,33,0
1,60,0,240
1,75,0,0
1,63,0,0
1,74,49,0
1,74,0,240
1,69,0,0
1,67,42,0
1,67,0,240
1,72,47,0
1,66,34,0
1,66,0,240
1,67,39,0
1,72,0,120
1,71,45,0
1,71,0,120
1,67,0,0
1,67,46,0
1,71,46,0
1,71,0,480
1,67,0,0
1,66,45,0
1,69,45,0
1,69,0,480
1,66,0,0
1,79,46,240
1,71,46,0
1,74,46,0
1,74,0,240
1,71,0,0
1,79,0,0
1,74,48,0
1,78,48,0
1,69,48,0
1,69,0,240
1,78,0,0
1,74,0,0
1,67,50,0
1,73,50,0
1,76,50,0
1,76,0,240
1,73,0,0
1,67,0,0
1,69,56,0
1,74,56,0
1,66,56,0
1,66,0,1200
1,74,0,0
1,69,0,0
1,74,45,0
1,67,45,0
1,67,0,240
1,74,0,0
1,66,42,0
1,72,42,0
1,66,0,240
1,67,41,0
1,72,0,120
1,71,41,0
1,71,0,120
1,67,0,0
1,71,44,0
1,67,44,0
1,67,0,480
1,71,0,0
1,69,40,0
1,66,40,0
1,66,0,480
1,69,0,0
1,67,26,120
1,64,26,0
1,59,26,0
1,59,0,120
1,64,0,0
1,67,0,0
1,59,28,120
1,67,28,0
1,64,28,0
1,64,0,120
1,67,0,0
1,59,0,0
1,60,31,120
1,66,31,0
1,64,31,0
1,64,0,120
1,66,0,0
1,60,0,0
1,66,26,120
1,64,26,0
1,60,26,0
1,60,0,120
1,64,0,0
1,66,0,0
1,66,26,120
1,63,26,0
1,59,26,0
1,59,0,120
1,63,0,0
1,66,0,0
1,66,27,120
1,63,27,0
1,59,27,0
1,59,0,120
1,63,0,0
1,66,0,0
1,59,31,120
1,64,31,0
1,67,31,0
1,67,0,120
1,64,0,0
1,59,0,0
1,62,39,120
1,55,39,0
1,59,39,0
1,59,0,120
1,55,0,0
1,62,0,0
1,55,30,120
1,64,30,0
1,60,30,0
1,60,0,120
1,64,0,0
1,55,0,0
1,55,31,120
1,60,31,0
1,64,31,0
1,64,0,120
1,60,0,0
1,55,0,0
1,57,32,120
1,60,32,0
1,62,32,0
1,62,0,120
1,60,0,0
1,57,0,0
1,57,28,120
1,62,28,0
1,60,28,0
1,60,0,120
1,62,0,0
1,57,0,0
1,62,31,120
1,55,31,0
1,59,31,0
1,59,0,120
1,55,0,0
1,62,0,0
1,59,32,120
1,55,32,0
1,62,32,0
1,62,0,120
1,55,0,0
1,59,0,0
1,64,41,120
1,55,41,0
1,60,41,0
1,60,0,360
1,55,0,0
1,64,0,0
1,59,31,120
1,67,31,0
1,64,31,0
1,64,0,120
1,67,0,0
1,59,0,0
1,64,33,120
1,59,33,0
1,67,33,0
1,67,0,120
1,59,0,0
1,64,0,0
1,60,37,120
1,66,37,0
1,64,37,0
1,64,0,120
1,66,0,0
1,60,0,0
1,64,28,120
1,66,28,0
1,60,28,0
1,60,0,120
1,66,0,0
1,64,0,0
1,59,28,120
1,63,28,0
1,66,28,0
1,66,0,120
1,63,0,0
1,59,0,0
1,59,29,120
1,66,29,0
1,63,29,0
1,63,0,120
1,66,0,0
1,59,0,0
1,64,34,120
1,59,34,0
1,67,34,0
1,67,0,120
1,59,0,0
1,64,0,0
1,55,42,120
1,62,42,0
1,59,42,0
1,59,0,120
1,62,0,0
1,55,0,0
1,64,35,120
1,55,35,0
1,60,35,0
1,60,0,120
1,55,0,0
1,64,0,0
1,60,35,120
1,55,35,0
1,64,35,0
1,64,0,120
1,55,0,0
1,60,0,0
1,57,37,120
1,60,37,0
1,62,37,0
1,62,0,120
1,60,0,0
1,57,0,0
1,57,31,120
1,60,31,0
1,62,31,0
1,62,0,120
1,60,0,0
1,57,0,0
1,62,35,120
1,55,35,0
1,59,35,0
1,59,0,120
1,55,0,0
1,62,0,0
1,59,39,120
1,55,39,0
1,62,39,0
1,62,0,120
1,55,0,0
1,59,0,0
1,60,49,120
1,64,49,0
1,55,49,0
1,55,0,330
1,64,0,0
1,60,0,0
1,71,49,30
1,67,35,240
1,64,35,0
1,64,0,240
1,67,0,0
1,71,0,0
1,66,29,0
1,71,49,0
1,63,29,0
1,63,0,240
1,66,0,0
1,65,34,0
1,62,35,0
1,71,0,120
1,71,40,0
1,71,0,120
1,62,0,0
1,65,0,0
1,61,33,0
1,71,49,0
1,64,33,0
1,71,0,240
1,70,46,0
1,76,48,240
1,76,0,240
1,61,0,0
1,64,0,0
1,70,0,0
1,63,33,0
1,75,47,0
1,60,33,0
1,69,33,0
1,60,0,240
1,63,0,0
1,75,0,0
1,74,49,0
1,74,0,240
1,69,0,0
1,67,42,0
1,67,0,240
1,72,47,0
1,66,34,0
1,66,0,240
1,67,39,0
1,72,0,120
1,71,45,0
1,71,0,120
1,67,0,0
1,67,46,0
1,71,46,0
1,71,0,480
1,67,0,0
1,66,45,0
1,69,45,0
1,69,0,480
1,66,0,0
1,79,46,240
1,71,46,0
1,74,46,0
1,74,0,240
1,71,0,0
1,79,0,0
1,69,48,0
1,74,48,0
1,78,48,0
1,78,0,240
1,74,0,0
1,69,0,0
1,67,50,0
1,73,50,0
1,76,50,0
1,76,0,240
1,73,0,0
1,67,0,0
1,69,56,0
1,74,56,0
1,66,56,0
1,66,0,1200
1,74,0,0
1,69,0,0
1,74,45,0
1,67,45,0
1,74,0,240
1,72,42,0
1,72,0,240
1,67,0,0
1,60,37,120
1,66,37,0
1,66,0,120
1,60,0,0
1,60,41,0
1,66,41,0
1,66,0,480
1,60,0,0
1,67,36,0
1,59,36,0
1,59,0,480
1,67,0,0
2,59,41,1461
2,62,41,0
2,62,0,480
2,59,0,0
2,62,39,0
2,57,39,0
2,57,0,360
2,62,0,0
2,62,34,0
2,55,34,0
2,55,0,120
2,62,0,0
2,62,38,0
2,55,38,0
2,55,0,155
2,59,39,0
2,59,0,240
2,62,0,0
2,62,40,0
2,50,38,84
2,62,0,240
2,62,61,0
2,62,0,480
2,62,60,0
2,62,0,360
2,62,56,0
2,62,0,120
2,50,0,0
2,62,60,0
2,62,0,183
2,60,56,0
2,60,0,240
2,64,58,0
2,64,0,226
2,62,55,0
2,62,0,212
2,60,57,0
2,60,0,240
2,59,51,0
2,62,51,0
2,62,0,240
2,59,0,0
2,57,55,0
2,62,55,0
2,62,0,360
2,57,0,0
2,55,45,0
2,62,45,0
2,62,0,120
2,55,0,0
2,55,50,0
2,62,50,0
2,55,0,236
2,59,35,0
2,59,0,240
2,62,0,0
2,62,38,0
2,50,33,56
2,50,0,240
2,62,0,0
