track,note,velocity,time
1,38,127,508
1,38,0,104
1,33,127,16
1,33,0,105
1,38,127,15
1,38,0,98
1,33,126,17
1,33,0,107
1,38,127,19
1,38,0,118
1,33,127,0
1,33,0,23
1,38,127,0
1,38,0,26
1,38,127,0
1,38,0,35
1,38,127,0
1,38,0,28
1,38,127,16
1,38,0,46
1,38,127,9
1,38,0,113
1,45,127,12
1,45,0,69
1,38,127,48
1,38,0,16
1,45,127,10
1,45,0,47
1,38,127,54
1,38,0,5
1,33,127,12
1,33,0,114
1,38,127,0
1,38,0,17
1,38,127,18
1,38,0,50
1,38,127,0
1,38,0,17
1,35,127,8
1,35,0,100
1,35,127,18
1,35,0,17
1,33,127,30
1,33,0,107
1,33,127,18
1,33,0,85
1,43,127,30
1,43,0,107
1,43,127,18
1,43,0,85
1,38,127,37
1,38,0,122
1,33,127,1
1,33,0,68
1,33,127,42
1,33,0,107
1,33,127,18
1,33,0,85
1,38,127,30
1,38,0,122
1,38,127,0
1,38,0,47
1,38,127,14
1,38,0,46
1,43,127,11
1,43,0,107
1,43,127,18
1,43,0,85
1,33,127,30
1,33,0,107
1,33,127,18
1,33,0,85
1,35,127,37
1,35,0,122
1,30,127,1
1,30,0,68
1,33,127,42
1,33,0,32
1,33,127,18
1,33,0,85
1,43,127,10
1,43,0,41
1,43,127,18
1,43,0,85
1,38,127,13
1,38,0,44
1,33,127,1
1,33,0,68
1,33,127,42
1,33,0,107
1,33,127,11
1,33,0,85
1,38,127,37
1,38,0,9
1,45,127,0
1,45,0,7
1,43,127,30
1,43,0,107
1,43,127,18
1,43,0,85
1,33,127,20
1,33,0,107
1,33,127,5
1,33,0,14
1,38,127,32
1,38,0,102
1,50,127,15
1,50,0,119
1,47,127,0
1,47,0,125
1,45,127,0
1,45,0,117
1,38,127,11
1,38,0,94
1,33,127,22
1,33,0,108
1,38,124,10
1,38,0,45
1,33,116,15
1,33,0,86
1,38,127,31
1,38,0,105
1,33,118,17
1,33,0,98
1,38,127,22
1,38,0,104
1,33,116,16
1,33,0,103
1,38,127,18
1,38,0,122
1,33,120,2
1,33,0,119
1,38,118,0
1,38,0,81
1,38,110,4
1,42,122,27
1,38,0,24
1,42,0,18
1,45,127,23
1,45,0,49
1,35,127,8
1,35,0,122
1,35,127,0
1,35,0,47
1,35,127,14
1,35,0,46
1,33,127,11
1,33,0,122
1,40,127,0
1,40,0,47
1,42,127,14
1,42,0,46
1,43,127,11
1,43,0,107
1,43,127,18
1,43,0,85
1,38,127,37
1,38,0,122
1,33,127,1
1,33,0,68
1,33,127,42
1,33,0,122
1,33,127,0
1,33,0,47
1,33,127,14
1,33,0,46
1,38,127,11
1,38,0,107
1,38,127,18
1,38,0,85
1,43,127,30
1,43,0,72
1,43,127,0
1,43,0,47
1,43,127,14
1,43,0,46
1,33,127,11
1,33,0,107
1,33,127,18
1,33,0,85
1,35,127,30
1,35,0,107
1,35,127,18
1,35,0,85
1,33,127,30
1,33,0,107
1,33,127,18
1,33,0,85
1,43,127,30
1,43,0,107
1,43,127,18
1,43,0,85
1,38,127,30
1,38,0,122
1,38,127,0
1,38,0,47
1,38,127,14
1,38,0,46
1,33,127,18
1,33,0,122
1,40,127,1
1,40,0,27
1,38,127,49
1,38,0,39
1,45,127,1
1,45,0,9
1,43,127,30
1,43,0,47
1,43,127,0
1,43,0,29
1,43,127,14
1,43,0,46
1,33,127,11
1,33,0,122
1,40,127,0
1,40,0,47
1,37,127,14
1,37,0,46
1,38,127,14
1,38,0,104
1,33,127,16
1,33,0,105
1,38,127,15
1,38,0,98
1,33,126,17
1,33,0,107
1,38,127,19
1,38,0,118
1,33,127,0
1,33,0,124
1,38,127,0
1,38,0,84
1,38,127,0
1,38,0,35
1,35,127,0
1,35,0,46
1,37,127,16
1,37,0,46
1,38,127,10
1,38,0,104
1,33,127,16
1,33,0,105
1,38,127,15
1,38,0,98
1,33,126,17
1,33,0,92
1,38,127,19
1,38,0,23
1,33,127,0
1,33,0,124
1,38,127,0
1,38,0,84
1,38,127,0
1,38,0,30
1,35,127,0
1,35,0,46
1,40,127,16
1,40,0,46
1,38,127,7
1,38,0,105
1,33,118,17
1,33,0,98
1,38,127,22
1,38,0,40
1,33,116,16
1,33,0,103
1,38,127,18
1,38,0,122
1,33,120,2
1,33,0,119
1,38,118,0
1,38,0,81
1,38,110,4
1,42,122,27
1,38,0,24
1,42,0,18
1,45,127,23
1,45,0,49
1,38,127,8
1,38,0,105
1,45,127,21
1,45,0,86
1,38,127,31
1,38,0,92
1,45,127,24
1,45,0,82
1,38,127,8
1,38,0,19
1,45,127,20
1,45,0,13
1,38,127,37
1,38,0,107
1,45,127,12
1,45,0,57
1,43,127,44
1,43,0,31
1,38,127,16
1,38,0,105
1,43,127,15
1,43,0,98
1,38,126,17
1,38,0,35
1,43,127,19
1,43,0,118
1,38,127,0
1,38,0,124
1,43,127,0
1,43,0,1
1,43,127,0
1,43,0,22
1,43,127,0
1,43,0,46
1,43,127,16
1,43,0,1
1,33,127,0
1,33,0,102
1,45,127,15
1,45,0,119
1,42,127,0
1,42,0,9
1,40,127,0
1,40,0,117
1,33,127,11
1,33,0,94
1,28,127,22
1,28,0,108
1,33,124,10
1,33,0,103
1,28,116,15
1,28,0,86
1,43,127,34
1,43,0,104
1,38,127,16
1,38,0,105
1,43,127,15
1,43,0,98
1,38,126,8
1,38,0,70
1,43,127,19
1,43,0,118
1,38,127,0
1,38,0,124
1,43,127,0
1,43,0,84
1,43,127,0
1,43,0,35
1,43,127,0
1,43,0,46
1,43,127,16
1,43,0,46
1,33,127,9
1,33,0,102
1,45,127,15
1,45,0,119
1,42,127,0
1,42,0,125
1,40,127,0
1,40,0,117
1,33,127,11
1,33,0,94
1,28,127,22
1,28,0,108
1,33,124,10
1,33,0,103
1,28,116,15
1,28,0,86
1,38,127,35
1,50,127,0
1,38,0,111
1,33,127,2
1,50,0,76
1,33,0,34
1,37,127,5
1,49,127,3
1,37,0,103
1,37,127,13
1,49,0,74
1,37,0,27
1,35,127,19
1,47,127,1
1,35,0,111
1,35,127,18
1,47,0,49
1,35,0,42
1,33,127,18
1,45,127,3
1,45,0,62
1,33,0,7
1,35,127,13
1,47,127,14
1,47,0,50
1,35,0,13
1,37,127,11
1,35,127,2
1,49,127,4
1,35,0,38
1,49,0,6
1,37,0,5
1,50,127,19
1,38,127,1
1,38,0,112
1,50,0,6
1,38,127,3
1,37,127,2
1,37,0,25
1,38,0,77
1,37,127,15
1,49,127,2
1,37,0,99
1,33,127,17
1,49,0,55
1,33,0,41
1,31,127,23
1,47,127,6
1,31,0,94
1,31,127,25
1,47,0,42
1,31,0,48
1,33,127,19
1,45,127,14
1,45,0,72
1,33,0,12
1,47,127,7
1,35,127,2
1,47,0,43
1,35,0,24
1,45,127,8
1,33,127,4
1,45,0,34
1,33,0,15
1,31,127,12
1,31,0,96
1,31,127,15
1,31,0,101
1,33,127,17
1,33,0,105
1,35,127,13
1,35,0,58
1,38,127,14
1,10,89,0
1,38,0,118
1,31,127,0
1,31,0,94
1,31,127,24
1,31,0,119
1,35,127,9
1,35,0,111
1,38,127,8
1,38,0,118
1,31,127,6
1,31,0,98
1,38,127,18
1,33,127,1
1,38,0,97
1,33,0,8
1,35,127,11
1,35,0,110
1,33,127,12
1,33,127,6
1,33,0,91
1,33,0,8
1,35,127,11
1,35,127,3
1,35,0,50
1,35,0,7
1,37,127,0
1,37,127,1
1,37,0,44
1,37,0,7
1,50,127,5
1,38,127,2
1,38,127,4
1,38,0,94
1,50,0,2
1,45,127,13
1,47,127,1
1,38,0,24
1,47,0,16
1,45,0,71
1,50,127,7
1,50,0,99
1,45,127,25
1,38,127,106
1,45,0,8
1,50,127,11
1,38,0,10
1,10,0,87
1,33,127,4
1,50,0,2
1,45,127,19
1,33,0,8
1,45,0,83
1,38,127,8
1,50,116,12
1,50,127,6
1,38,0,11
1,50,0,43
1,33,127,48
1,50,0,1
1,45,119,9
1,45,127,7
1,33,0,12
1,33,116,0
1,45,0,69
1,33,0,17
1,45,0,17
1,50,124,9
1,38,127,7
1,50,0,92
1,38,0,10
1,45,127,5
1,50,127,10
1,45,0,96
1,50,0,23
1,47,127,0
1,47,0,125
1,45,127,0
1,45,0,117
1,38,127,11
1,38,0,94
1,33,127,22
1,33,0,108
1,38,124,10
1,38,0,103
1,33,116,15
1,33,0,4
1,38,127,11
1,38,0,109
1,45,127,12
1,45,0,114
1,38,127,0
1,38,0,105
1,38,127,18
1,38,0,50
1,38,127,11
1,38,0,46
1,38,127,12
1,38,0,94
1,33,127,24
1,33,0,103
1,38,127,17
1,38,0,89
1,38,127,31
1,38,0,77
1,38,127,44
1,38,0,104
1,33,127,16
1,33,0,105
1,38,127,15
1,38,0,98
1,33,126,17
1,33,0,107
1,38,127,19
1,38,0,118
1,33,127,0
1,33,0,124
1,38,127,0
1,38,0,10
1,38,127,0
1,38,0,30
1,38,127,0
1,38,0,7
1,38,127,6
1,38,0,5
1,43,127,7
1,43,0,38
1,38,118,17
1,38,0,98
1,43,127,22
1,43,0,104
1,38,116,16
1,38,0,103
1,43,127,18
1,43,0,122
1,38,120,2
1,38,0,119
1,43,118,0
1,43,0,81
1,43,110,4
1,47,122,27
1,43,0,24
1,47,0,18
1,50,127,23
1,50,0,49
1,33,127,15
1,33,0,109
1,40,127,12
1,40,0,114
1,33,127,0
1,33,0,105
1,33,127,18
1,33,0,50
1,33,127,11
1,33,0,46
1,38,127,8
1,38,0,107
1,38,127,18
1,38,0,85
1,33,127,30
1,33,0,107
1,33,127,18
1,33,0,85
1,35,127,34
1,35,0,94
1,30,127,24
1,30,0,103
1,35,127,17
1,35,0,89
1,35,127,31
1,35,0,4
1,43,127,37
1,43,0,122
1,38,127,1
1,38,0,68
1,38,127,42
1,38,0,107
1,38,127,18
1,38,0,85
1,40,127,30
1,40,0,106
1,38,127,14
1,38,0,11
1,43,127,14
1,43,0,76
1,33,127,0
1,33,0,48
1,35,127,14
1,35,0,22
1,35,127,13
1,35,0,85
1,35,127,30
1,35,0,3
1,35,127,0
1,35,0,47
1,35,127,14
1,35,0,46
1,43,127,0
1,43,0,38
1,38,127,1
1,38,0,68
1,38,127,42
1,38,0,22
1,38,127,18
1,38,0,85
1,40,127,30
1,40,0,107
1,40,127,18
1,40,0,85
1,38,127,37
1,38,0,122
1,45,127,1
1,45,0,68
1,38,127,46
1,38,0,94
1,33,127,24
1,33,0,103
1,38,127,17
1,38,0,89
1,38,127,31
1,38,0,77
2,37,127,0
2,37,0,100
2,37,127,120
2,37,0,110
2,37,124,25
2,37,0,120
2,37,127,0
2,37,0,120
2,37,124,0
2,37,0,120
2,37,127,0
2,37,0,120
2,35,127,0
2,51,127,0
2,49,127,0
2,35,0,30
2,51,0,0
2,49,0,0
2,38,127,30
2,51,127,0
2,38,0,30
2,51,0,0
2,35,127,30
2,51,127,0
2,35,0,30
2,51,0,0
2,38,127,30
2,51,127,0
2,38,0,30
2,51,0,0
2,35,127,30
2,51,127,0
2,35,0,30
2,51,0,0
2,38,127,30
2,51,127,0
2,38,0,30
2,51,0,0
2,35,127,30
2,51,127,0
2,35,0,30
2,51,0,0
2,38,127,30
2,51,127,0
2,38,0,30
2,51,0,0
2,51,127,0
2,51,0,30
2,35,127,0
2,51,127,0
2,35,0,30
2,51,0,0
2,38,127,30
2,51,127,0
2,38,0,30
2,51,0,0
2,51,127,0
2,51,0,30
2,35,127,0
2,51,127,0
2,35,0,30
2,51,0,0
2,38,127,30
2,51,127,0
2,38,0,17
2,51,0,0
2,35,127,17
2,51,127,0
2,35,0,30
2,51,0,0
2,51,127,0
2,51,0,30
2,38,127,0
2,51,127,0
2,38,0,26
2,51,0,0
2,35,127,30
2,51,127,0
2,35,0,7
2,51,0,0
2,38,127,30
2,51,127,0
2,38,0,30
2,51,0,0
2,38,120,0
2,38,0,30
2,35,127,0
2,38,127,0
2,35,0,30
2,38,0,0
2,38,127,60
2,38,0,30
2,35,127,0
2,41,127,0
2,35,0,17
2,41,0,0
2,38,127,30
2,38,0,30
2,35,127,30
2,38,127,0
2,35,0,30
2,38,0,0
2,38,127,0
2,38,0,30
2,41,127,30
2,41,0,20
2,35,127,0
2,41,127,0
2,35,0,4
2,41,0,0
2,38,127,30
2,38,0,30
2,48,127,30
2,48,0,30
2,48,127,17
2,48,0,9
2,48,127,0
2,48,0,30
2,48,127,30
2,48,0,30
2,45,120,30
2,45,0,30
2,45,127,0
2,45,0,30
2,45,127,0
2,45,0,30
2,41,127,30
2,41,0,30
2,41,127,0
2,41,0,30
2,41,127,0
2,41,0,14
2,48,127,25
2,48,0,23
2,48,127,60
2,48,0,30
2,48,127,0
2,48,0,30
2,48,127,14
2,48,0,17
2,45,120,30
2,45,0,30
2,45,127,0
2,45,0,30
2,45,127,0
2,45,0,30
2,41,127,30
2,41,0,30
2,41,127,0
2,41,0,30
2,41,127,0
2,41,0,30
2,35,127,30
2,38,127,0
2,35,0,30
2,38,0,0
2,48,127,0
2,48,0,30
2,45,127,30
2,45,0,30
2,35,127,0
2,45,127,0
2,35,0,30
2,45,0,0
2,38,127,30
2,38,0,30
2,45,127,0
2,45,0,30
2,35,127,0
2,35,0,30
2,41,127,0
2,41,0,30
2,41,127,0
2,41,0,30
2,41,127,0
2,41,0,30
2,35,127,0
2,41,127,0
2,35,0,30
2,41,0,0
2,38,127,30
2,41,127,0
2,38,0,30
2,41,0,0
2,35,127,30
2,51,127,0
2,49,127,0
2,35,0,30
2,51,0,0
2,49,0,0
2,38,127,30
2,51,127,0
2,38,0,30
2,51,0,0
2,35,127,30
2,51,127,0
2,35,0,30
2,51,0,0
2,38,127,30
2,51,127,0
2,38,0,30
2,51,0,0
2,35,127,30
2,51,127,0
2,35,0,30
2,51,0,0
2,38,127,30
2,51,127,0
2,38,0,30
2,51,0,0
2,35,127,30
2,51,127,0
2,35,0,30
2,51,0,0
2,38,127,30
2,51,127,0
2,38,0,30
2,51,0,0
2,51,127,0
2,51,0,30
2,35,127,0
2,51,127,0
2,35,0,30
2,51,0,0
2,38,127,30
2,51,127,0
2,38,0,30
2,51,0,0
2,51,127,0
2,51,0,30
2,35,127,0
2,51,127,0
2,35,0,30
2,51,0,0
2,38,127,30
2,51,127,0
2,38,0,30
2,51,0,0
2,51,127,0
2,51,0,30
2,35,127,0
2,51,127,0
2,35,0,30
2,51,0,0
2,38,127,30
2,51,127,0
2,38,0,30
2,51,0,0
2,51,127,0
2,51,0,30
2,35,127,0
2,51,127,0
2,35,0,30
2,51,0,0
2,38,127,30
2,51,127,0
2,38,0,30
2,51,0,0
2,51,127,0
2,51,0,30
2,35,127,0
2,51,127,0
2,35,0,30
2,51,0,0
2,38,127,30
2,51,127,0
2,38,0,30
2,51,0,0
2,51,127,0
2,51,0,30
2,35,127,0
2,51,127,0
2,35,0,30
2,51,0,0
2,38,127,30
2,51,127,0
2,38,0,30
2,51,0,0
2,51,127,0
2,51,0,30
2,35,127,0
2,51,127,0
2,35,0,30
2,51,0,0
2,38,127,30
2,51,127,0
2,38,0,15
2,51,0,0
2,51,127,0
2,51,0,30
2,35,127,0
2,51,127,0
2,35,0,30
2,51,0,0
2,38,127,30
2,51,127,0
2,38,0,30
2,51,0,0
2,51,127,0
2,51,0,10
2,48,127,0
2,48,0,17
2,48,127,24
2,48,0,30
2,48,127,0
2,48,0,30
2,48,127,30
2,48,0,30
2,45,120,6
2,45,0,30
2,45,127,0
2,45,0,15
2,45,127,0
2,45,0,5
2,41,127,30
2,41,0,30
2,41,127,0
2,41,0,30
2,41,127,0
2,41,0,30
2,35,127,30
2,51,127,0
2,49,127,0
2,35,0,30
2,51,0,0
2,49,0,0
2,38,127,30
2,51,127,0
2,38,0,30
2,51,0,0
2,35,127,6
2,51,127,0
2,35,0,30
2,51,0,0
2,38,127,30
2,51,127,0
2,38,0,30
2,51,0,0
2,35,127,30
2,51,127,0
