track,note,velocity,time
1,45,77,0
1,45,0,120
1,47,69,0
1,47,0,120
1,45,74,0
1,45,0,120
1,47,69,0
1,47,0,120
1,48,78,0
1,48,0,120
1,47,69,0
1,47,0,120
1,48,77,0
1,48,0,120
1,47,69,0
1,47,0,120
1,45,80,0
1,45,0,240
1,47,69,0
1,47,0,120
1,48,79,120
1,48,0,240
1,52,69,0
1,52,0,120
1,57,79,120
1,57,0,240
1,59,69,0
1,59,0,120
1,60,79,120
1,60,0,240
1,64,69,0
1,64,0,120
1,64,62,120
1,68,62,0
1,71,74,0
1,71,0,228
1,68,0,0
1,64,0,0
1,64,59,12
1,68,59,0
1,71,70,0
1,71,0,228
1,68,0,0
1,64,0,0
1,64,68,12
1,69,68,0
1,72,80,0
1,72,0,480
1,69,0,0
1,64,0,0
1,45,77,0
1,45,0,120
1,47,69,0
1,47,0,120
1,45,74,0
1,45,0,120
1,47,69,0
1,47,0,120
1,48,78,0
1,48,0,120
1,47,69,0
1,47,0,120
1,48,77,0
1,48,0,120
1,47,69,0
1,47,0,120
1,45,80,0
1,45,0,240
1,47,69,0
1,47,0,120
1,48,79,120
1,52,69,233
1,48,0,7
1,52,0,113
1,57,79,127
1,57,0,240
1,59,69,0
1,59,0,120
1,60,79,120
1,60,0,240
1,64,69,0
1,64,0,120
1,64,62,120
1,68,62,0
1,71,74,0
1,71,0,228
1,68,0,0
1,64,0,0
1,64,59,12
1,68,59,0
1,71,70,0
1,71,0,228
1,68,0,0
1,64,0,0
1,69,82,12
1,69,0,480
1,58,77,0
1,58,0,120
1,57,69,0
1,57,0,120
1,58,74,0
1,58,0,120
1,57,69,0
1,57,0,120
1,55,78,0
1,55,0,120
1,57,69,0
1,57,0,120
1,55,77,0
1,55,0,120
1,57,69,0
1,57,0,120
1,58,80,0
1,58,0,240
1,55,69,0
1,55,0,120
1,55,79,120
1,55,0,240
1,52,69,0
1,52,0,120
1,67,67,120
1,70,79,0
1,70,0,240
1,67,0,0
1,64,58,0
1,67,69,0
1,67,0,120
1,64,0,0
1,64,67,120
1,67,79,0
1,67,0,240
1,64,0,0
1,64,69,0
1,61,58,0
1,61,0,120
1,64,0,0
1,64,74,120
1,61,62,0
1,57,62,0
1,57,0,228
1,61,0,0
1,64,0,0
1,64,70,12
1,61,59,0
1,57,59,0
1,57,0,228
1,61,0,0
1,64,0,0
1,65,80,12
1,62,68,0
1,57,68,0
1,57,0,480
1,62,0,0
1,65,0,0
1,60,77,0
1,60,0,120
1,59,69,0
1,59,0,120
1,60,74,0
1,60,0,120
1,59,69,0
1,59,0,120
1,57,78,0
1,57,0,120
1,59,69,0
1,59,0,120
1,57,77,0
1,57,0,120
1,59,69,0
1,59,0,120
1,60,80,0
1,60,0,240
1,57,69,0
1,57,0,120
1,57,79,120
1,57,0,240
1,54,69,0
1,54,0,120
1,69,67,120
1,72,79,0
1,72,0,240
1,69,0,0
1,66,58,0
1,69,69,0
1,69,0,120
1,66,0,0
1,66,67,120
1,69,79,0
1,69,0,240
1,66,0,0
1,66,69,0
1,63,58,0
1,63,0,120
1,66,0,0
1,66,74,120
1,63,74,0
1,63,0,240
1,66,0,0
1,66,70,0
1,63,70,0
1,63,0,240
1,66,0,0
1,68,80,0
1,64,68,0
1,59,68,0
1,59,0,480
1,64,0,0
1,68,0,0
1,57,84,0
1,57,0,120
1,59,75,0
1,59,0,120
1,57,81,0
1,57,0,120
1,59,75,0
1,59,0,120
1,60,85,0
1,60,0,120
1,59,75,0
1,59,0,120
1,60,84,0
1,60,0,120
1,59,75,0
1,59,0,120
1,57,88,0
1,57,0,240
1,59,75,0
1,59,0,120
1,60,86,120
1,60,0,240
1,64,75,0
1,64,0,120
1,69,86,120
1,69,0,240
1,71,75,0
1,71,0,120
1,72,86,120
1,72,0,240
1,76,75,0
1,76,0,120
1,64,73,120
1,68,73,0
1,71,86,0
1,71,0,228
1,68,0,0
1,64,0,0
1,64,68,12
1,68,68,0
1,71,81,0
1,71,0,228
1,68,0,0
1,64,0,0
1,64,68,12
1,69,68,0
1,72,81,0
1,72,0,228
1,69,0,0
1,64,0,0
1,64,72,12
1,67,72,0
1,69,72,0
1,73,85,0
1,73,0,228
1,64,0,0
1,67,0,0
1,69,0,0
1,65,77,12
1,69,77,0
1,74,91,0
1,74,0,480
1,69,0,0
1,65,0,0
1,65,81,0
1,65,0,120
1,64,72,0
1,64,0,120
1,65,80,0
1,65,0,120
1,64,72,0
1,64,0,120
1,62,84,0
1,62,0,240
1,64,72,0
1,64,0,120
1,65,82,120
1,65,0,240
1,69,72,0
1,69,0,120
1,74,82,120
1,74,0,240
1,76,72,0
1,76,0,120
1,77,82,120
1,77,0,240
1,81,72,0
1,81,0,120
1,71,71,120
1,76,71,0
1,80,85,0
1,80,0,228
1,76,0,0
1,71,0,0
1,71,67,12
1,76,67,0
1,80,80,0
1,80,0,228
1,76,0,0
1,71,0,0
1,72,77,12
1,76,77,0
1,81,92,0
1,81,0,480
1,76,0,0
1,72,0,0
1,58,77,0
1,58,0,120
1,57,69,0
1,57,0,120
1,58,74,0
1,58,0,120
1,57,69,0
1,57,0,120
1,55,78,0
1,55,0,120
1,57,69,0
1,57,0,120
1,55,77,0
1,55,0,120
1,57,69,0
1,57,0,120
1,58,80,0
1,58,0,240
1,55,69,0
1,55,0,120
1,55,79,120
1,55,0,240
1,52,69,0
1,52,0,120
1,67,67,120
1,70,79,0
1,70,0,240
1,67,0,0
1,64,58,0
1,67,69,0
1,67,0,120
1,64,0,0
1,64,67,120
1,67,79,0
1,67,0,240
1,64,0,0
1,64,69,0
1,61,58,0
1,61,0,120
1,64,0,0
1,64,74,120
1,61,62,0
1,57,62,0
1,57,0,228
1,61,0,0
1,64,0,0
1,64,70,12
1,61,59,0
1,57,59,0
1,57,0,228
1,61,0,0
1,64,0,0
1,65,80,12
1,62,68,0
1,57,68,0
1,57,0,480
1,62,0,0
1,65,0,0
1,60,77,0
1,60,0,120
1,59,69,0
1,59,0,120
1,60,74,0
1,60,0,120
1,59,69,0
1,59,0,120
1,57,78,0
1,57,0,120
1,59,69,0
1,59,0,120
1,57,77,0
1,57,0,120
1,59,69,0
1,59,0,120
1,60,80,0
1,60,0,240
1,57,69,0
1,57,0,120
1,57,79,120
1,57,0,240
1,54,69,0
1,54,0,120
1,69,67,120
1,72,79,0
1,72,0,240
1,69,0,0
1,66,58,0
1,69,69,0
1,69,0,120
1,66,0,0
1,66,67,120
1,69,79,0
1,69,0,240
1,66,0,0
1,66,69,0
1,63,58,0
1,63,0,120
1,66,0,0
1,66,74,120
1,63,74,0
1,63,0,228
1,66,0,0
1,66,70,12
1,63,70,0
1,63,0,228
1,66,0,0
1,68,80,12
1,64,68,0
1,59,68,0
1,59,0,480
1,64,0,0
1,68,0,0
1,57,84,0
1,57,0,120
1,59,75,0
1,59,0,120
1,57,81,0
1,57,0,120
1,59,75,0
1,59,0,120
1,60,85,0
1,60,0,120
1,59,75,0
1,59,0,120
1,60,84,0
1,60,0,120
1,59,75,0
1,59,0,120
1,57,88,0
1,57,0,240
1,59,75,0
1,59,0,120
1,60,86,120
1,60,0,240
1,64,75,0
1,64,0,120
1,69,86,120
1,69,0,240
1,71,75,0
1,71,0,120
1,72,86,120
1,72,0,240
1,76,75,0
1,76,0,120
1,64,73,120
1,68,73,0
1,71,86,0
1,71,0,228
1,68,0,0
1,64,0,0
1,64,68,12
1,68,68,0
1,71,81,0
1,71,0,228
1,68,0,0
1,64,0,0
1,64,68,12
1,69,68,0
1,72,81,0
1,72,0,228
1,69,0,0
1,64,0,0
1,64,72,12
1,67,72,0
1,69,72,0
1,73,85,0
1,73,0,228
1,64,0,0
1,67,0,0
1,69,0,0
1,65,77,12
1,69,77,0
1,74,91,0
1,74,0,480
1,69,0,0
1,65,0,0
1,65,81,0
1,65,0,120
1,64,72,0
1,64,0,120
1,65,80,0
1,65,0,120
1,64,72,0
1,64,0,120
1,62,84,0
1,62,0,240
1,64,72,0
1,64,0,120
1,65,82,120
1,65,0,240
1,69,72,0
1,69,0,120
1,74,82,120
1,74,0,240
1,76,72,0
1,76,0,120
1,77,82,120
1,77,0,240
1,81,72,0
1,81,0,120
1,71,71,120
1,76,71,0
1,80,85,0
1,80,0,228
1,76,0,0
1,71,0,0
1,71,67,12
1,76,67,0
1,80,80,0
1,80,0,228
1,76,0,0
1,71,0,0
1,72,77,12
1,76,77,0
1,81,92,0
1,81,0,480
1,76,0,0
1,72,0,0
1,69,37,0
1,69,0,120
1,65,29,0
1,65,0,120
1,69,40,0
1,69,0,120
1,65,33,0
1,65,0,120
1,69,41,0
1,69,0,120
1,65,35,0
1,65,0,120
1,67,44,0
1,67,0,120
1,64,39,0
1,64,0,120
1,69,47,0
1,69,0,120
1,65,42,0
1,65,0,120
1,70,45,0
1,70,0,120
1,67,48,0
1,67,0,120
1,72,51,0
1,72,0,120
1,69,48,0
1,69,0,120
1,67,46,0
1,67,0,120
1,64,44,0
1,64,0,120
1,69,37,0
1,69,0,120
1,65,30,0
1,65,0,120
1,69,40,0
1,69,0,120
1,65,35,0
1,65,0,120
1,69,41,0
1,69,0,120
1,65,37,0
1,65,0,120
1,67,44,0
1,67,0,120
1,64,39,0
1,64,0,120
1,69,47,0
1,69,0,120
1,65,42,0
1,65,0,120
1,70,45,0
1,70,0,120
1,67,48,0
1,67,0,120
1,72,51,0
1,72,0,120
1,69,52,0
1,69,0,120
1,74,57,0
1,74,0,120
1,71,51,0
1,71,0,120
1,76,58,0
1,76,0,120
1,72,47,0
1,72,0,120
1,76,55,0
1,76,0,120
1,72,47,0
1,72,0,120
1,76,52,0
1,76,0,120
1,72,40,0
1,72,0,120
1,74,46,0
1,74,0,120
1,71,40,0
1,71,0,120
1,76,47,0
1,76,0,120
1,72,42,0
1,72,0,120
1,77,45,0
1,77,0,120
1,74,48,0
1,74,0,120
1,79,51,0
1,79,0,120
1,76,48,0
1,76,0,120
1,74,46,0
1,74,0,120
1,71,44,0
1,71,0,120
1,76,51,0
1,76,0,120
1,72,43,0
1,72,0,120
1,76,49,0
1,76,0,120
1,72,40,0
1,72,0,120
1,76,49,0
1,76,0,120
1,72,40,0
1,72,0,120
1,74,46,0
1,74,0,120
1,71,40,0
1,71,0,120
1,76,47,0
1,76,0,120
1,72,42,0
1,72,0,120
1,74,45,0
1,74,0,120
1,71,41,0
1,71,0,120
1,72,48,0
1,72,0,120
1,67,40,0
1,67,0,120
1,70,40,0
1,70,0,120
1,67,36,0
1,67,0,120
1,69,37,0
1,69,0,120
1,65,32,0
1,65,0,120
1,69,40,0
1,69,0,120
1,65,34,0
1,65,0,120
1,69,41,0
1,69,0,120
1,65,37,0
1,65,0,120
1,67,44,0
1,67,0,120
1,64,39,0
1,64,0,120
1,69,47,0
1,69,0,120
1,65,42,0
1,65,0,120
1,70,45,0
1,70,0,120
1,67,48,0
1,67,0,120
1,72,51,0
1,72,0,120
1,69,48,0
1,69,0,120
1,67,45,0
1,67,0,120
1,64,42,0
1,64,0,120
1,69,37,0
1,69,0,120
1,65,34,0
1,65,0,120
1,69,40,0
1,69,0,120
1,65,36,0
1,65,0,120
1,69,41,0
1,69,0,120
1,65,37,0
1,65,0,120
1,67,44,0
1,67,0,120
1,64,39,0
1,64,0,120
1,69,47,0
1,69,0,120
1,65,42,0
1,65,0,120
1,70,45,0
1,70,0,120
1,67,48,0
1,67,0,120
1,72,51,0
1,72,0,120
1,69,52,0
1,69,0,120
1,74,57,0
1,74,0,120
1,71,51,0
1,71,0,120
1,76,58,0
1,76,0,120
1,72,47,0
1,72,0,120
1,76,55,0
1,76,0,120
1,72,47,0
1,72,0,120
1,76,52,0
1,76,0,120
1,72,40,0
1,72,0,120
1,74,46,0
1,74,0,120
1,71,40,0
1,71,0,120
1,76,47,0
1,76,0,120
1,72,42,0
1,72,0,120
1,77,45,0
1,77,0,120
1,74,48,0
1,74,0,120
1,79,55,0
1,79,0,120
1,76,48,0
1,76,0,120
1,74,46,0
1,74,0,120
1,71,44,0
1,71,0,120
1,76,51,0
1,76,0,120
1,72,43,0
1,72,0,120
1,76,49,0
1,76,0,120
1,72,40,0
1,72,0,120
1,76,45,0
1,76,0,120
1,72,42,0
1,72,0,120
1,74,46,0
1,74,0,120
1,71,40,0
1,71,0,120
1,76,47,0
1,76,0,120
1,72,42,0
1,72,0,120
1,74,45,0
1,74,0,120
1,71,41,0
1,71,0,120
1,72,48,0
1,72,0,120
1,67,40,0
1,67,0,120
1,70,40,0
1,70,0,120
1,67,40,0
1,67,0,120
1,70,47,0
1,70,0,120
1,67,40,0
1,67,0,120
1,70,47,0
1,70,0,120
1,67,40,0
1,67,0,120
1,70,47,0
1,70,0,120
1,67,41,0
1,67,0,120
1,70,47,0
1,70,0,120
1,67,42,0
1,67,0,120
1,70,47,0
1,70,0,120
1,67,41,0
1,67,0,120
1,70,47,0
1,70,0,120
1,67,42,0
1,67,0,120
1,70,47,0
1,70,0,120
1,67,41,0
1,67,0,120
1,70,47,0
1,70,0,120
1,67,42,0
1,67,0,120
1,68,47,0
1,68,0,120
1,65,40,0
1,65,0,120
1,68,47,0
1,68,0,120
1,65,40,0
1,65,0,120
1,68,49,0
1,68,0,120
1,65,43,0
1,65,0,120
1,68,52,0
1,68,0,120
1,65,48,0
1,65,0,120
1,68,57,0
1,68,0,120
1,65,49,0
1,65,0,120
1,68,54,0
1,68,0,120
1,65,42,0
1,65,0,120
1,68,47,0
1,68,0,120
1,65,41,0
1,65,0,120
1,68,47,0
1,68,0,120
1,65,37,0
1,65,0,120
1,65,45,0
1,61,41,0
1,61,0,120
1,56,33,0
1,56,0,120
1,61,41,0
1,61,0,120
1,56,34,0
1,56,0,120
1,61,41,0
1,61,0,120
1,56,33,0
1,56,0,120
1,65,0,0
1,63,42,0
1,60,41,0
1,60,0,120
1,56,34,0
1,56,0,120
1,63,0,0
1,61,41,0
1,65,42,0
1,61,0,120
1,56,34,0
1,56,0,120
1,65,0,0
1,66,42,0
1,56,34,120
1,56,0,120
1,66,0,0
1,68,42,0
1,56,34,120
1,56,0,120
1,68,0,0
1,60,41,0
1,63,42,0
1,60,0,120
1,56,34,0
1,56,0,120
1,63,0,0
1,65,42,0
1,61,34,120
1,61,0,120
1,65,0,0
1,67,46,0
1,64,38,120
1,64,0,120
1,67,0,0
1,68,48,0
1,65,40,120
1,65,0,120
1,68,0,0
1,70,53,0
1,65,46,120
1,65,0,120
1,70,0,0
1,72,55,0
1,72,0,120
1,64,44,0
1,64,0,120
1,70,50,0
1,70,0,120
1,67,42,0
1,67,0,120
1,64,47,0
1,64,0,120
1,69,37,360
1,69,0,120
1,65,27,0
1,65,0,120
1,69,40,0
1,69,0,120
1,65,32,0
1,65,0,120
1,69,41,0
1,69,0,120
1,65,37,0
1,65,0,120
1,67,44,0
1,67,0,120
1,64,39,0
1,64,0,120
1,69,47,0
1,69,0,120
1,65,42,0
1,65,0,120
1,70,45,0
1,70,0,120
1,67,48,0
1,67,0,120
1,72,51,0
1,72,0,120
1,69,48,0
1,69,0,120
1,67,44,0
1,67,0,120
1,64,42,0
1,64,0,120
1,69,37,0
1,69,0,120
1,65,32,0
1,65,0,120
1,69,40,0
1,69,0,120
1,65,34,0
1,65,0,120
1,69,41,0
1,69,0,120
1,65,37,0
1,65,0,120
1,67,44,0
1,67,0,120
1,64,39,0
1,64,0,120
1,69,47,0
1,69,0,120
1,65,42,0
1,65,0,120
1,70,45,0
1,70,0,120
1,67,48,0
1,67,0,120
1,72,51,0
1,72,0,120
1,69,48,0
1,69,0,120
1,64,46,0
1,64,0,120
1,65,44,0
1,65,0,120
1,74,57,0
1,70,41,0
1,70,0,120
1,65,33,0
1,65,0,120
1,70,41,0
1,70,0,120
1,65,34,0
1,65,0,120
1,70,41,0
1,70,0,120
1,65,33,0
1,65,0,120
1,74,0,0
1,72,42,0
1,69,41,0
1,69,0,120
1,65,34,0
