track,note,velocity,time
1,72,56,1
1,72,0,240
1,77,60,0
1,65,31,240
1,72,31,0
1,77,0,240
1,76,56,0
1,76,0,240
1,72,0,0
1,65,0,0
1,65,30,0
1,75,51,0
1,75,0,240
1,65,0,0
1,74,52,0
1,74,0,240
1,65,30,0
1,76,52,0
1,76,0,240
1,77,55,0
1,77,0,240
1,65,0,0
1,65,31,0
1,79,50,0
1,79,0,240
1,65,0,0
1,72,57,0
1,60,29,240
1,67,46,0
1,67,0,240
1,69,47,0
1,69,0,240
1,60,0,0
1,72,0,0
1,60,29,0
1,70,44,0
1,70,0,240
1,60,0,0
1,69,47,0
1,60,30,240
1,69,0,240
1,60,0,240
1,72,56,0
1,72,0,240
1,72,56,0
1,72,0,240
1,77,60,0
1,65,31,0
1,77,0,240
1,76,56,0
1,65,0,237
1,76,0,3
1,75,51,0
1,75,0,240
1,74,52,0
1,74,0,240
1,65,30,0
1,76,52,0
1,76,0,240
1,77,55,0
1,77,0,240
1,65,0,0
1,65,31,0
1,79,50,0
1,79,0,240
1,65,0,0
1,72,57,0
1,60,29,240
1,67,46,0
1,67,0,240
1,69,47,0
1,69,0,240
1,60,0,0
1,72,0,0
1,60,29,0
1,70,45,0
1,70,0,240
1,60,0,0
1,69,47,0
1,65,32,240
1,69,0,240
1,65,0,240
1,72,50,0
1,72,0,240
1,72,56,0
1,72,0,240
1,60,40,0
1,67,51,0
1,67,0,240
1,69,54,0
1,69,0,240
1,60,0,0
1,60,40,0
1,70,57,0
1,70,0,240
1,60,0,0
1,74,56,0
1,64,48,480
1,64,0,240
1,74,0,0
1,60,40,0
1,66,48,0
1,66,0,240
1,60,0,0
1,58,41,0
1,67,50,0
1,67,0,240
1,58,0,0
1,70,52,0
1,70,0,240
1,74,54,0
1,74,0,240
1,60,32,0
1,62,44,0
1,62,0,240
1,60,0,0
1,67,46,0
1,58,32,240
1,67,0,240
1,58,0,240
1,70,53,0
1,70,0,240
1,74,59,0
1,74,0,240
1,66,32,0
1,69,55,0
1,69,0,240
1,70,59,0
1,70,0,240
1,72,63,0
1,72,0,240
1,66,0,0
1,76,63,0
1,64,59,240
1,66,52,240
1,66,0,240
1,64,0,0
1,76,0,0
1,62,44,0
1,68,52,0
1,68,0,240
1,62,0,0
1,60,45,0
1,69,55,0
1,69,0,240
1,60,0,0
1,72,57,0
1,72,0,240
1,76,59,0
1,76,0,240
1,62,41,0
1,62,0,480
1,60,57,0
1,69,57,0
1,60,0,477
1,69,0,3
1,58,53,0
1,67,53,0
1,67,0,240
1,58,0,0
1,65,62,0
1,53,53,240
1,60,53,0
1,65,0,240
1,64,49,0
1,64,0,240
1,60,0,0
1,53,0,0
1,53,35,0
1,63,45,0
1,63,0,240
1,53,0,0
1,74,48,0
1,74,0,240
1,65,27,0
1,76,44,0
1,76,0,240
1,77,44,0
1,77,0,240
1,65,0,0
1,65,27,0
1,79,44,0
1,79,0,240
1,65,0,0
1,72,46,0
1,60,26,240
1,67,37,0
1,67,0,240
1,69,37,0
1,69,0,240
1,60,0,0
1,72,0,0
1,60,26,0
1,70,36,0
1,70,0,240
1,60,0,0
1,69,37,0
1,65,24,240
1,69,0,240
1,65,0,237
1,72,50,3
1,72,0,240
1,72,50,0
1,72,0,240
1,77,54,0
1,65,27,0
1,77,0,240
1,76,50,0
1,65,0,237
1,76,0,3
1,63,27,0
1,75,45,0
1,75,0,240
1,63,0,0
1,74,46,0
1,74,0,240
1,65,27,0
1,76,46,0
1,76,0,240
1,77,49,0
1,65,27,210
1,67,25,10
1,74,25,10
1,77,0,10
1,65,0,0
1,79,43,0
1,79,0,240
1,74,0,0
1,65,0,0
1,67,0,0
1,81,49,0
1,69,28,240
1,72,25,0
1,81,0,240
1,79,44,0
1,72,0,240
1,69,0,0
1,67,25,0
1,72,25,0
1,72,0,240
1,67,0,0
1,79,0,0
1,77,38,0
1,65,25,240
1,72,25,0
1,77,0,240
1,72,0,240
1,65,0,0
1,72,50,0
1,72,0,240
1,72,56,0
1,72,0,240
1,60,40,0
1,67,51,0
1,67,0,240
1,69,54,0
1,69,0,240
1,60,0,0
1,60,40,0
1,70,57,0
1,70,0,240
1,60,0,0
1,74,56,0
1,64,48,480
1,64,0,240
1,74,0,0
1,60,40,0
1,66,48,0
1,66,0,240
1,60,0,0
1,58,41,0
1,67,50,0
1,67,0,240
1,58,0,0
1,70,52,0
1,70,0,240
1,74,54,0
1,74,0,240
1,60,32,0
1,62,44,0
1,62,0,240
1,60,0,0
1,67,46,0
1,58,33,240
1,67,0,240
1,58,0,240
1,70,53,0
1,70,0,240
1,74,59,0
1,74,0,240
1,66,32,0
1,69,55,0
1,69,0,240
1,70,59,0
1,70,0,240
1,72,63,0
1,72,0,240
1,66,0,0
1,76,63,0
1,64,59,240
1,66,52,240
1,66,0,240
1,64,0,0
1,76,0,0
1,62,44,0
1,68,52,0
1,68,0,240
1,62,0,0
1,60,45,0
1,69,55,0
1,69,0,240
1,60,0,0
1,72,57,0
1,72,0,240
1,76,59,0
1,76,0,240
1,62,41,0
1,62,0,480
1,60,57,0
1,69,57,0
1,60,0,477
1,69,0,3
1,58,53,0
1,67,53,0
1,67,0,240
1,58,0,0
1,65,62,0
1,53,53,240
1,60,53,0
1,65,0,240
1,64,49,0
1,64,0,240
1,60,0,0
1,53,0,0
1,53,35,0
1,63,45,0
1,63,0,240
1,53,0,0
1,74,48,0
1,74,0,240
1,65,27,0
1,76,44,0
1,76,0,240
1,77,44,0
1,77,0,240
1,65,0,0
1,65,27,0
1,79,44,0
1,79,0,240
1,65,0,0
1,72,46,0
1,60,26,240
1,67,37,0
1,67,0,240
1,69,37,0
1,69,0,240
1,60,0,0
1,72,0,0
1,60,26,0
1,70,36,0
1,70,0,240
1,60,0,0
1,69,37,0
1,65,24,240
1,69,0,240
1,65,0,237
1,72,50,3
1,72,0,240
1,72,50,0
1,72,0,240
1,77,54,0
1,65,27,0
1,77,0,240
1,76,50,0
1,65,0,237
1,76,0,3
1,63,27,0
1,75,45,0
1,75,0,240
1,63,0,0
1,74,46,0
1,74,0,240
1,65,27,0
1,76,46,0
1,76,0,240
1,77,49,0
1,65,27,210
1,67,25,10
1,74,25,10
1,77,0,10
1,65,0,0
1,79,43,0
1,79,0,240
1,74,0,0
1,65,0,0
1,67,0,0
1,81,49,0
1,69,28,240
1,72,25,0
1,81,0,240
1,79,44,0
1,72,0,240
1,69,0,0
1,67,25,0
1,72,25,0
1,72,0,240
1,67,0,0
1,79,0,0
1,77,38,0
1,65,25,240
1,72,25,0
1,77,0,240
1,72,0,240
1,65,0,0
1,65,47,0
1,72,47,0
1,72,0,210
1,65,0,0
1,65,57,30
1,74,57,0
1,74,0,240
1,65,0,0
1,64,47,0
1,72,47,0
1,72,0,210
1,64,0,0
1,65,58,30
1,74,58,0
1,74,0,240
1,65,0,0
1,64,47,0
1,72,47,0
1,72,0,210
1,64,0,0
1,63,54,30
1,72,54,0
1,72,0,210
1,63,0,0
1,62,47,30
1,70,51,0
1,62,0,240
1,61,47,0
1,61,0,240
1,70,0,0
1,60,46,0
1,69,46,0
1,69,0,240
1,60,0,0
1,62,50,0
1,67,50,0
1,67,0,480
1,62,0,0
1,64,43,0
1,69,43,0
1,69,0,480
1,64,0,0
1,60,38,0
1,65,38,0
1,65,0,720
1,60,0,0
1,53,39,0
1,60,39,0
1,60,0,210
1,53,0,0
1,53,50,30
1,62,50,0
1,62,0,240
1,53,0,0
1,52,39,0
1,60,39,0
1,60,0,210
1,52,0,0
1,53,51,30
1,62,51,0
1,62,0,240
1,53,0,0
1,52,39,0
1,60,39,0
1,60,0,210
1,52,0,0
1,51,48,30
1,60,48,0
1,60,0,210
1,51,0,0
1,50,42,30
1,58,46,0
1,50,0,240
1,49,42,0
1,49,0,240
1,58,0,0
1,48,41,0
1,57,41,0
1,57,0,240
1,48,0,0
1,50,39,0
1,55,39,0
1,55,0,480
1,50,0,0
1,52,38,0
1,57,38,0
1,57,0,480
1,52,0,0
1,48,34,0
1,53,34,0
1,53,0,720
1,48,0,0
2,53,41,241
2,53,0,240
2,60,23,0
2,69,23,0
2,69,0,480
2,60,0,0
2,60,21,0
2,69,21,0
2,69,0,240
2,60,0,0
2,58,41,0
2,62,23,70
2,70,23,0
2,70,0,240
2,62,0,0
2,55,33,0
2,55,0,113
2,70,21,0
2,62,21,0
2,62,0,240
2,70,0,0
2,58,0,0
2,48,41,0
2,48,0,240
2,64,24,0
2,58,27,0
2,58,0,240
2,57,30,0
2,57,0,240
2,64,0,0
2,64,23,0
2,55,23,0
2,55,0,240
2,64,0,0
2,53,38,0
2,53,0,155
2,65,21,0
2,57,21,0
2,57,0,480
2,65,0,0
2,57,25,0
2,65,25,0
2,65,0,240
2,57,0,0
2,53,41,0
2,60,23,103
2,69,23,0
2,53,0,240
2,57,37,0
2,69,0,240
2,60,0,0
2,60,21,0
2,65,21,0
2,65,0,240
2,60,0,0
2,57,0,0
2,58,41,0
2,62,23,113
2,70,23,0
2,70,0,240
2,62,0,0
2,55,33,0
2,55,0,70
2,70,21,0
2,62,21,0
2,62,0,240
2,70,0,0
2,58,0,0
2,48,41,0
2,48,0,240
2,64,24,0
2,58,27,0
2,58,0,240
2,57,30,0
2,57,0,240
2,64,0,0
2,64,23,0
2,55,23,0
2,55,0,240
2,64,0,0
2,53,38,0
2,53,0,155
2,60,21,0
2,57,21,0
2,57,0,480
2,60,0,0
2,57,25,0
2,65,25,0
2,65,0,240
2,57,0,0
2,48,40,0
2,64,34,240
2,58,34,0
2,58,0,480
2,64,0,0
2,64,34,0
2,58,34,0
2,58,0,240
2,64,0,0
2,48,0,0
2,48,40,0
2,62,52,240
2,62,0,480
2,62,40,0
2,62,0,240
2,48,0,0
2,48,37,0
2,55,32,240
2,62,52,0
2,48,0,240
2,48,33,0
2,62,0,237
2,55,0,3
2,54,32,0
2,54,0,240
2,48,0,0
2,48,40,0
2,62,28,155
2,55,23,0
2,55,0,480
2,62,0,0
2,62,34,0
2,55,34,0
2,55,0,234
2,62,0,0
2,48,0,0
2,48,42,0
2,62,54,240
2,62,0,480
2,60,44,0
2,60,0,240
2,48,0,0
2,48,45,0
2,59,48,240
2,62,48,0
2,62,0,477
2,59,0,3
2,59,44,0
2,59,0,240
2,48,0,0
2,48,40,0
2,57,47,240
2,64,57,0
2,48,0,240
2,48,36,0
2,64,0,240
2,57,0,0
2,64,50,0
2,56,41,0
2,48,0,240
2,48,56,0
2,56,0,240
2,64,0,0
2,57,50,0
2,64,50,0
2,48,0,240
2,48,50,0
2,64,0,240
2,57,0,0
2,52,50,0
2,60,50,0
2,60,0,240
2,52,0,0
2,48,0,0
2,41,56,0
2,57,40,171
2,48,40,0
2,48,0,480
2,57,0,0
2,48,34,0
2,57,34,0
2,57,0,226
2,48,0,0
2,41,0,0
2,46,34,0
2,50,22,240
2,58,24,0
2,46,0,240
2,43,34,0
2,58,0,240
2,50,0,0
2,62,20,0
2,58,21,0
2,58,0,240
2,62,0,0
2,43,0,0
2,48,30,0
2,48,0,240
2,58,32,0
2,64,22,0
2,58,0,240
2,57,35,0
2,57,0,240
2,64,0,0
2,55,28,0
2,64,22,0
2,64,0,240
2,55,0,0
2,53,33,0
2,60,20,141
2,57,20,0
2,53,0,240
2,57,0,240
2,60,0,0
2,65,27,0
2,57,27,0
2,57,0,99
2,65,0,0
2,53,36,0
2,69,25,240
2,60,25,0
2,53,0,240
2,57,33,0
2,60,0,240
2,69,0,0
2,65,22,0
2,60,22,0
2,60,0,240
2,65,0,0
2,57,0,0
2,58,36,0
2,70,25,143
2,62,25,0
2,62,0,240
2,70,0,0
2,58,0,0
2,55,29,0
2,59,22,100
2,62,22,10
2,71,22,10
2,71,0,280
2,55,0,0
2,59,0,0
2,62,0,0
2,60,34,0
2,69,21,155
2,65,21,0
2,60,0,240
2,60,31,0
2,65,0,56
2,69,0,0
2,64,17,0
2,70,17,0
2,70,0,240
2,64,0,0
2,60,0,0
2,53,29,0
2,69,17,71
2,60,17,0
2,53,0,240
2,60,0,240
2,69,0,0
2,69,25,0
2,60,25,0
2,60,0,226
2,69,0,0
2,48,40,0
2,64,40,240
2,58,40,0
2,58,0,480
2,64,0,0
2,64,40,0
2,58,40,0
2,58,0,240
2,64,0,0
2,48,0,0
2,48,40,0
2,62,52,240
2,62,0,480
2,62,40,0
2,62,0,240
2,48,0,0
2,48,37,0
2,55,32,240
2,62,52,0
2,48,0,240
2,48,33,0
2,62,0,237
2,55,0,3
2,54,32,0
2,54,0,240
2,48,0,0
2,48,40,0
2,62,30,113
2,55,25,0
2,55,0,480
2,62,0,0
2,62,34,0
2,55,34,0
2,55,0,222
2,62,0,0
2,48,0,0
2,48,42,0
2,62,54,240
2,62,0,480
2,60,44,0
2,60,0,240
2,48,0,0
2,48,45,0
2,59,48,240
2,62,48,0
2,62,0,477
2,59,0,3
2,59,44,0
2,59,0,240
2,48,0,0
2,48,40,0
2,57,47,240
2,64,57,0
2,48,0,240
2,48,36,0
2,64,0,240
2,57,0,0
2,64,50,0
2,56,41,0
2,48,0,240
2,48,56,0
2,56,0,240
2,64,0,0
2,57,50,0
2,64,50,0
2,48,0,240
2,48,50,0
2,64,0,240
2,57,0,0
2,52,50,0
2,60,50,0
2,60,0,240
2,52,0,0
2,48,0,0
2,41,56,0
2,57,40,160
2,48,40,0
2,48,0,224
2,57,0,0
2,48,34,0
2,57,34,0
2,57,0,240
2,48,0,0
2,41,0,0
2,46,34,0
2,50,22,240
2,58,24,0
2,46,0,240
2,43,34,0
2,58,0,240
2,50,0,0
2,62,17,0
2,58,17,0
2,58,0,240
2,62,0,0
2,43,0,0
2,48,30,0
2,48,0,240
2,58,32,0
2,64,22,0
2,58,0,240
2,57,35,0
2,57,0,240
2,64,0,0
2,55,28,0
2,64,22,0
2,64,0,240
2,55,0,0
2,53,33,0
2,60,20,141
2,57,20,0
2,53,0,240
2,57,0,240
2,60,0,0
2,65,22,0
2,57,22,0
2,57,0,127
2,65,0,0
2,53,36,0
2,69,21,240
2,60,21,0
2,53,0,240
2,57,33,0
2,60,0,240
2,69,0,0
2,65,18,0
2,60,18,0
2,60,0,240
2,65,0,0
2,57,0,0
2,58,36,0
2,70,25,174
2,62,25,0
2,62,0,240
2,70,0,0
2,58,0,0
2,55,29,0
2,59,22,108
2,62,22,10
2,71,22,10
2,71,0,280
2,55,0,0
2,59,0,0
2,62,0,0
2,60,34,0
2,69,21,141
2,65,21,0
2,60,0,240
2,60,31,0
2,65,0,226
2,69,0,0
2,64,17,0
2,70,17,0
2,70,0,240
2,64,0,0
2,60,0,0
2,53,29,0
2,69,17,127
2,60,17,0
2,53,0,240
2,60,0,240
2,69,0,0
2,69,33,0
2,60,33,0
2,60,0,208
2,69,0,0
2,68,42,30
2,59,42,0
2,59,0,240
2,68,0,0
2,67,39,0
2,60,39,0
2,60,0,210
2,67,0,0
2,59,42,30
2,68,42,0
2,68,0,240
2,59,0,0
2,60,39,0
2,67,39,0
2,67,0,210
2,60,0,0
2,57,39,30
2,57,0,240
2,65,37,0
2,58,37,0
2,58,0,240
2,55,37,0
2,55,0,240
2,57,36,0
2,57,0,240
2,58,39,0
2,58,0,240
2,55,34,0
2,55,0,240
2,65,0,0
2,60,37,0
2,60,0,240
2,58,31,0
2,58,0,240
2,57,35,0
2,53,35,127
2,53,0,240
2,48,35,0
2,57,0,226
2,48,33,0
2,57,33,0
2,57,0,210
2,48,0,0
2,48,0,30
2,56,35,0
2,47,35,0
2,47,0,240
2,56,0,0
2,55,32,0
2,48,32,0
2,48,0,210
2,55,0,0
2,47,36,30
2,56,36,0
2,56,0,240
2,47,0,0
2,48,34,0
2,55,34,0
2,55,0,210
2,48,0,0
2,45,38,30
2,45,0,240
2,53,33,0
2,46,33,0
2,46,0,240
2,43,41,0
2,43,0,240
2,45,37,0
2,45,0,240
2,46,46,0
2,46,0,120
2,43,35,0
