track,note,velocity,time
1.0,60.0,51.0,1.0
1.0,60.0,0.0,480.0
1.0,65.0,58.0,0.0
1.0,53.0,26.0,480.0
1.0,60.0,26.0,0.0
1.0,65.0,0.0,720.0
1.0,64.0,45.0,0.0
1.0,64.0,0.0,240.0
1.0,65.0,48.0,0.0
1.0,65.0,0.0,240.0
1.0,69.0,49.0,0.0
1.0,69.0,0.0,240.0
1.0,60.0,0.0,0.0
1.0,53.0,0.0,0.0
1.0,72.0,52.0,0.0
1.0,72.0,0.0,240.0
1.0,77.0,52.0,0.0
1.0,77.0,0.0,230.0
1.0,65.0,38.0,10.0
1.0,77.0,50.0,10.0
1.0,76.0,39.0,955.0
1.0,77.0,0.0,5.0
1.0,76.0,0.0,235.0
1.0,74.0,38.0,0.0
1.0,72.0,42.0,235.0
1.0,74.0,0.0,5.0
1.0,72.0,0.0,235.0
1.0,77.0,38.0,0.0
1.0,77.0,0.0,240.0
1.0,65.0,0.0,0.0
1.0,64.0,42.0,0.0
1.0,67.0,42.0,0.0
1.0,67.0,0.0,240.0
1.0,69.0,42.0,0.0
1.0,69.0,0.0,240.0
1.0,70.0,48.0,0.0
1.0,70.0,0.0,240.0
1.0,74.0,40.0,0.0
1.0,74.0,0.0,240.0
1.0,64.0,0.0,0.0
1.0,60.0,46.0,0.0
1.0,65.0,46.0,0.0
1.0,65.0,0.0,240.0
1.0,64.0,46.0,0.0
1.0,67.0,46.0,0.0
1.0,67.0,0.0,240.0
1.0,64.0,0.0,0.0
1.0,65.0,49.0,0.0
1.0,69.0,49.0,0.0
1.0,69.0,0.0,240.0
1.0,65.0,0.0,0.0
1.0,72.0,38.0,0.0
1.0,72.0,0.0,240.0
1.0,60.0,0.0,0.0
1.0,60.0,45.0,0.0
1.0,64.0,45.0,0.0
1.0,67.0,45.0,0.0
1.0,67.0,0.0,960.0
1.0,64.0,0.0,0.0
1.0,60.0,0.0,0.0
1.0,60.0,51.0,20.0
1.0,60.0,0.0,460.0
1.0,65.0,58.0,0.0
1.0,53.0,26.0,480.0
1.0,60.0,26.0,0.0
1.0,65.0,0.0,720.0
1.0,64.0,45.0,0.0
1.0,64.0,0.0,240.0
1.0,65.0,48.0,0.0
1.0,65.0,0.0,240.0
1.0,69.0,49.0,0.0
1.0,69.0,0.0,240.0
1.0,60.0,0.0,0.0
1.0,53.0,0.0,0.0
1.0,72.0,52.0,0.0
1.0,72.0,0.0,240.0
1.0,81.0,51.0,0.0
1.0,81.0,0.0,230.0
1.0,69.0,33.0,10.0
1.0,81.0,49.0,0.0
1.0,67.0,33.0,0.0
1.0,81.0,0.0,720.0
1.0,79.0,46.0,0.0
1.0,79.0,0.0,240.0
1.0,77.0,46.0,0.0
1.0,77.0,0.0,240.0
1.0,76.0,46.0,0.0
1.0,76.0,0.0,240.0
1.0,67.0,0.0,0.0
1.0,77.0,55.0,0.0
1.0,77.0,0.0,240.0
1.0,81.0,45.0,0.0
1.0,81.0,0.0,240.0
1.0,74.0,49.0,0.0
1.0,74.0,0.0,240.0
1.0,69.0,0.0,0.0
1.0,68.0,44.0,0.0
1.0,77.0,44.0,0.0
1.0,77.0,0.0,240.0
1.0,68.0,0.0,0.0
1.0,67.0,48.0,0.0
1.0,76.0,48.0,0.0
1.0,67.0,0.0,240.0
1.0,72.0,38.0,0.0
1.0,72.0,0.0,240.0
1.0,64.0,38.0,0.0
1.0,64.0,0.0,240.0
1.0,76.0,0.0,0.0
1.0,66.0,38.0,0.0
1.0,75.0,38.0,0.0
1.0,75.0,0.0,240.0
1.0,66.0,0.0,0.0
1.0,65.0,44.0,0.0
1.0,74.0,44.0,0.0
1.0,74.0,0.0,480.0
1.0,76.0,42.0,0.0
1.0,76.0,0.0,360.0
1.0,72.0,35.0,0.0
1.0,72.0,0.0,120.0
1.0,65.0,0.0,0.0
1.0,64.0,38.0,0.0
1.0,72.0,38.0,0.0
1.0,64.0,0.0,480.0
1.0,60.0,51.0,250.0
1.0,60.0,0.0,230.0
1.0,72.0,0.0,0.0
1.0,65.0,58.0,0.0
1.0,53.0,26.0,480.0
1.0,60.0,26.0,0.0
1.0,65.0,0.0,720.0
1.0,64.0,45.0,0.0
1.0,64.0,0.0,240.0
1.0,65.0,48.0,0.0
1.0,65.0,0.0,240.0
1.0,69.0,49.0,0.0
1.0,69.0,0.0,240.0
1.0,60.0,0.0,0.0
1.0,53.0,0.0,0.0
1.0,72.0,52.0,0.0
1.0,72.0,0.0,240.0
1.0,77.0,52.0,0.0
1.0,77.0,0.0,230.0
1.0,65.0,38.0,10.0
1.0,77.0,50.0,10.0
1.0,76.0,37.0,955.0
1.0,77.0,0.0,5.0
1.0,76.0,0.0,235.0
1.0,74.0,36.0,0.0
1.0,74.0,0.0,235.0
1.0,72.0,42.0,0.0
1.0,72.0,0.0,240.0
1.0,77.0,38.0,0.0
1.0,77.0,0.0,240.0
1.0,65.0,0.0,0.0
1.0,64.0,42.0,0.0
1.0,67.0,40.0,0.0
1.0,67.0,0.0,240.0
1.0,69.0,40.0,0.0
1.0,69.0,0.0,240.0
1.0,70.0,46.0,0.0
1.0,70.0,0.0,240.0
1.0,74.0,38.0,0.0
1.0,74.0,0.0,240.0
1.0,64.0,0.0,0.0
1.0,60.0,46.0,0.0
1.0,65.0,46.0,0.0
1.0,65.0,0.0,240.0
1.0,64.0,46.0,0.0
1.0,67.0,46.0,0.0
1.0,67.0,0.0,240.0
1.0,64.0,0.0,0.0
1.0,65.0,49.0,0.0
1.0,69.0,49.0,0.0
1.0,69.0,0.0,240.0
1.0,65.0,0.0,0.0
1.0,72.0,38.0,0.0
1.0,72.0,0.0,240.0
1.0,60.0,0.0,0.0
1.0,60.0,45.0,0.0
1.0,64.0,45.0,0.0
1.0,67.0,45.0,0.0
1.0,67.0,0.0,960.0
1.0,64.0,0.0,0.0
1.0,60.0,0.0,0.0
1.0,60.0,51.0,20.0
1.0,60.0,0.0,460.0
1.0,65.0,58.0,0.0
1.0,53.0,26.0,480.0
1.0,60.0,26.0,0.0
1.0,65.0,0.0,720.0
1.0,64.0,45.0,0.0
1.0,64.0,0.0,240.0
1.0,65.0,48.0,0.0
1.0,65.0,0.0,240.0
1.0,69.0,49.0,0.0
1.0,69.0,0.0,240.0
1.0,60.0,0.0,0.0
1.0,53.0,0.0,0.0
1.0,72.0,52.0,0.0
1.0,72.0,0.0,240.0
1.0,81.0,51.0,0.0
1.0,81.0,0.0,230.0
1.0,69.0,33.0,10.0
1.0,81.0,49.0,0.0
1.0,67.0,33.0,0.0
1.0,81.0,0.0,720.0
1.0,79.0,46.0,0.0
1.0,79.0,0.0,240.0
1.0,77.0,46.0,0.0
1.0,77.0,0.0,240.0
1.0,76.0,46.0,0.0
1.0,76.0,0.0,240.0
1.0,67.0,0.0,0.0
1.0,77.0,55.0,0.0
1.0,77.0,0.0,240.0
1.0,81.0,45.0,0.0
1.0,81.0,0.0,240.0
1.0,74.0,49.0,0.0
1.0,74.0,0.0,240.0
1.0,69.0,0.0,0.0
1.0,68.0,44.0,0.0
1.0,77.0,44.0,0.0
1.0,77.0,0.0,240.0
1.0,68.0,0.0,0.0
1.0,67.0,48.0,0.0
1.0,76.0,48.0,0.0
1.0,67.0,0.0,240.0
1.0,72.0,38.0,0.0
1.0,72.0,0.0,240.0
1.0,64.0,38.0,0.0
1.0,64.0,0.0,240.0
1.0,76.0,0.0,0.0
1.0,66.0,38.0,0.0
1.0,75.0,38.0,0.0
1.0,75.0,0.0,240.0
1.0,66.0,0.0,0.0
1.0,65.0,44.0,0.0
1.0,74.0,44.0,0.0
1.0,74.0,0.0,480.0
1.0,76.0,42.0,0.0
1.0,76.0,0.0,360.0
1.0,72.0,35.0,0.0
1.0,72.0,0.0,120.0
1.0,65.0,0.0,0.0
1.0,64.0,38.0,0.0
1.0,72.0,38.0,0.0
1.0,64.0,0.0,480.0
1.0,60.0,56.0,250.0
1.0,60.0,0.0,230.0
1.0,72.0,0.0,0.0
1.0,65.0,63.0,0.0
1.0,53.0,28.0,480.0
1.0,60.0,28.0,0.0
1.0,65.0,0.0,720.0
1.0,64.0,49.0,0.0
1.0,64.0,0.0,240.0
1.0,65.0,52.0,0.0
1.0,65.0,0.0,240.0
1.0,69.0,53.0,0.0
1.0,69.0,0.0,240.0
1.0,60.0,0.0,0.0
1.0,53.0,0.0,0.0
1.0,72.0,52.0,0.0
1.0,72.0,0.0,240.0
1.0,70.0,41.0,0.0
1.0,75.0,51.0,0.0
1.0,75.0,0.0,230.0
1.0,70.0,0.0,0.0
1.0,69.0,41.0,10.0
1.0,75.0,56.0,0.0
1.0,66.0,48.0,720.0
1.0,66.0,0.0,240.0
1.0,75.0,0.0,0.0
1.0,69.0,0.0,0.0
1.0,69.0,38.0,0.0
1.0,74.0,50.0,0.0
1.0,74.0,0.0,240.0
1.0,72.0,51.0,0.0
1.0,72.0,0.0,240.0
1.0,69.0,0.0,0.0
1.0,70.0,55.0,0.0
1.0,70.0,0.0,240.0
1.0,74.0,49.0,0.0
1.0,74.0,0.0,240.0
1.0,67.0,53.0,0.0
1.0,67.0,0.0,240.0
1.0,63.0,48.0,0.0
1.0,69.0,48.0,0.0
1.0,69.0,0.0,240.0
1.0,63.0,0.0,0.0
1.0,62.0,52.0,0.0
1.0,70.0,52.0,0.0
1.0,62.0,0.0,240.0
1.0,67.0,41.0,0.0
1.0,67.0,0.0,240.0
1.0,58.0,41.0,0.0
1.0,58.0,0.0,240.0
1.0,70.0,0.0,0.0
1.0,60.0,41.0,0.0
1.0,69.0,41.0,0.0
1.0,69.0,0.0,240.0
1.0,60.0,0.0,0.0
1.0,67.0,48.0,0.0
1.0,67.0,0.0,720.0
1.0,60.0,41.0,0.0
1.0,62.0,41.0,0.0
1.0,62.0,0.0,237.0
1.0,60.0,0.0,3.0
1.0,58.0,41.0,0.0
1.0,62.0,41.0,0.0
1.0,62.0,0.0,480.0
1.0,58.0,0.0,0.0
1.0,65.0,42.0,250.0
1.0,65.0,0.0,230.0
1.0,70.0,51.0,0.0
1.0,58.0,28.0,480.0
1.0,65.0,28.0,0.0
1.0,70.0,0.0,720.0
1.0,69.0,40.0,0.0
1.0,69.0,0.0,240.0
1.0,70.0,44.0,0.0
1.0,70.0,0.0,240.0
1.0,74.0,45.0,0.0
1.0,74.0,0.0,240.0
1.0,65.0,0.0,0.0
1.0,58.0,0.0,0.0
1.0,77.0,44.0,0.0
1.0,82.0,46.0,240.0
1.0,82.0,0.0,230.0
1.0,77.0,0.0,10.0
1.0,76.0,36.0,0.0
1.0,82.0,46.0,0.0
1.0,73.0,36.0,720.0
1.0,73.0,0.0,240.0
1.0,82.0,0.0,0.0
1.0,76.0,0.0,0.0
1.0,76.0,36.0,0.0
1.0,81.0,40.0,5.0
1.0,81.0,0.0,240.0
1.0,79.0,37.0,0.0
1.0,79.0,0.0,235.0
1.0,76.0,0.0,0.0
1.0,77.0,45.0,0.0
1.0,77.0,0.0,240.0
1.0,81.0,42.0,0.0
1.0,81.0,0.0,240.0
1.0,74.0,45.0,0.0
1.0,74.0,0.0,240.0
1.0,70.0,40.0,0.0
1.0,76.0,40.0,0.0
1.0,76.0,0.0,240.0
1.0,70.0,0.0,0.0
1.0,69.0,36.0,0.0
1.0,77.0,44.0,0.0
1.0,69.0,0.0,240.0
1.0,74.0,37.0,0.0
1.0,74.0,0.0,240.0
1.0,65.0,37.0,0.0
1.0,65.0,0.0,240.0
1.0,77.0,0.0,0.0
1.0,67.0,37.0,0.0
1.0,76.0,37.0,0.0
1.0,76.0,0.0,240.0
1.0,67.0,0.0,0.0
1.0,65.0,40.0,0.0
1.0,74.0,42.0,0.0
1.0,65.0,0.0,240.0
1.0,69.0,38.0,0.0
1.0,69.0,0.0,240.0
1.0,74.0,0.0,240.0
1.0,67.0,36.0,0.0
1.0,69.0,36.0,0.0
1.0,67.0,0.0,240.0
1.0,65.0,35.0,0.0
1.0,69.0,0.0,240.0
1.0,65.0,0.0,240.0
1.0,64.0,29.0,0.0
1.0,67.0,30.0,0.0
1.0,67.0,0.0,360.0
1.0,64.0,0.0,0.0
1.0,60.0,34.0,0.0
1.0,60.0,0.0,120.0
1.0,65.0,46.0,0.0
1.0,53.0,23.0,480.0
1.0,60.0,23.0,0.0
1.0,65.0,0.0,720.0
1.0,64.0,40.0,0.0
1.0,64.0,0.0,240.0
1.0,65.0,43.0,0.0
1.0,65.0,0.0,240.0
1.0,69.0,44.0,0.0
1.0,69.0,0.0,240.0
1.0,60.0,0.0,0.0
1.0,53.0,0.0,0.0
1.0,72.0,46.0,0.0
1.0,72.0,0.0,240.0
1.0,77.0,46.0,0.0
1.0,77.0,0.0,230.0
1.0,65.0,34.0,10.0
1.0,77.0,45.0,10.0
1.0,76.0,31.0,957.0
1.0,77.0,0.0,3.0
1.0,74.0,29.0,235.0
1.0,76.0,0.0,2.0
1.0,74.0,0.0,233.0
1.0,72.0,37.0,0.0
1.0,72.0,0.0,240.0
1.0,77.0,34.0,0.0
1.0,77.0,0.0,240.0
1.0,65.0,0.0,0.0
1.0,64.0,37.0,0.0
1.0,67.0,36.0,0.0
1.0,67.0,0.0,240.0
1.0,69.0,36.0,0.0
1.0,69.0,0.0,240.0
1.0,70.0,41.0,0.0
1.0,70.0,0.0,240.0
1.0,74.0,34.0,0.0
1.0,74.0,0.0,240.0
1.0,64.0,0.0,0.0
1.0,60.0,41.0,0.0
1.0,65.0,41.0,0.0
1.0,65.0,0.0,240.0
1.0,64.0,41.0,0.0
1.0,67.0,41.0,0.0
1.0,67.0,0.0,240.0
1.0,64.0,0.0,0.0
1.0,65.0,44.0,0.0
1.0,69.0,44.0,0.0
1.0,69.0,0.0,240.0
1.0,65.0,0.0,0.0
1.0,72.0,34.0,0.0
1.0,72.0,0.0,240.0
1.0,60.0,0.0,0.0
1.0,60.0,40.0,0.0
1.0,64.0,40.0,0.0
1.0,67.0,40.0,0.0
1.0,67.0,0.0,960.0
1.0,64.0,0.0,0.0
1.0,60.0,0.0,0.0
1.0,60.0,45.0,20.0
1.0,60.0,0.0,460.0
1.0,65.0,52.0,0.0
1.0,53.0,23.0,480.0
1.0,60.0,23.0,0.0
1.0,65.0,0.0,720.0
1.0,64.0,40.0,0.0
1.0,64.0,0.0,240.0
1.0,65.0,43.0,0.0
1.0,65.0,0.0,240.0
1.0,69.0,44.0,0.0
1.0,69.0,0.0,240.0
1.0,60.0,0.0,0.0
1.0,53.0,0.0,0.0
1.0,72.0,46.0,0.0
1.0,72.0,0.0,240.0
1.0,81.0,45.0,0.0
1.0,81.0,0.0,230.0
1.0,74.0,29.0,10.0
1.0,65.0,29.0,0.0
1.0,81.0,32.0,0.0
1.0,67.0,29.0,0.0
1.0,81.0,0.0,720.0
1.0,79.0,36.0,0.0
1.0,79.0,0.0,240.0
1.0,77.0,36.0,0.0
1.0,77.0,0.0,240.0
1.0,74.0,36.0,0.0
1.0,74.0,0.0,240.0
1.0,67.0,0.0,0.0
1.0,65.0,0.0,0.0
1.0,74.0,0.0,0.0
1.0,72.0,39.0,0.0
1.0,72.0,0.0,240.0
1.0,77.0,35.0,0.0
1.0,77.0,0.0,240.0
1.0,64.0,29.0,0.0
1.0,67.0,36.0,0.0
1.0,67.0,0.0,240.0
1.0,69.0,36.0,0.0
1.0,69.0,0.0,240.0
1.0,70.0,43.0,0.0
1.0,70.0,0.0,240.0
1.0,74.0,34.0,0.0
1.0,74.0,0.0,240.0
1.0,64.0,0.0,0.0
1.0,62.0,32.0,0.0
1.0,67.0,32.0,0.0
1.0,67.0,0.0,240.0
1.0,69.0,32.0,0.0
1.0,66.0,32.0,0.0
1.0,66.0,0.0,240.0
1.0,69.0,0.0,0.0
1.0,70.0,36.0,0.0
1.0,70.0,0.0,240.0
1.0,74.0,33.0,0.0
1.0,74.0,0.0,240.0
1.0,62.0,0.0,0.0
1.0,58.0,29.0,0.0
1.0,62.0,29.0,0.0
1.0,62.0,0.0,240.0
1.0,60.0,29.0,0.0
1.0,64.0,29.0,0.0
1.0,64.0,0.0,240.0
1.0,58.0,0.0,0.0
1.0,57.0,29.0,0.0
1.0,65.0,29.0,0.0
1.0,65.0,0.0,960.0
1.0,57.0,0.0,0.0
1.0,60.0,0.0,0.0
2.0,41.0,46.0,427.0
2.0,48.0,22.0,480.0
2.0,57.0,22.0,0.0
2.0,46.0,31.0,784.0
2.0,53.0,35.0,7.0
2.0,46.0,0.0,10.0
2.0,57.0,0.0,50.0
2.0,41.0,0.0,0.0
2.0,48.0,0.0,0.0
2.0,62.0,39.0,10.0
2.0,60.0,36.0,950.0
2.0,62.0,0.0,10.0
2.0,60.0,0.0,230.0
2.0,58.0,34.0,0.0
2.0,58.0,0.0,240.0
2.0,53.0,0.0,0.0
2.0,48.0,33.0,0.0
2.0,57.0,33.0,0.0
2.0,57.0,0.0,438.0
2.0,48.0,0.0,0.0
2.0,58.0,38.0,0.0
2.0,48.0,38.0,0.0
2.0,58.0,0.0,234.0
2.0,57.0,38.0,0.0
2.0,57.0,0.0,240.0
2.0,55.0,42.0,0.0
2.0,55.0,0.0,353.0
2.0,48.0,0.0,0.0
2.0,45.0,36.0,0.0
2.0,53.0,36.0,0.0
2.0,53.0,0.0,237.0
2.0,45.0,0.0,0.0
2.0,48.0,39.0,0.0
2.0,55.0,39.0,0.0
2.0,55.0,0.0,240.0
2.0,48.0,0.0,0.0
2.0,53.0,42.0,0.0
2.0,57.0,42.0,0.0
2.0,57.0,0.0,360.0
2.0,53.0,0.0,0.0
2.0,48.0,39.0,0.0
2.0,55.0,39.0,0.0
2.0,48.0,0.0,235.0
2.0,50.0,50.0,0.0
2.0,50.0,0.0,240.0
2.0,48.0,47.0,0.0
2.0,48.0,0.0,240.0
2.0,46.0,47.0,0.0
2.0,46.0,0.0,240.0
2.0,55.0,0.0,0.0
2.0,43.0,48.0,0.0
2.0,43.0,0.0,240.0
2.0,45.0,48.0,0.0
2.0,45.0,0.0,240.0
2.0,41.0,46.0,0.0
2.0,48.0,22.0,282.0
2.0,57.0,22.0,0.0
2.0,49.0,28.0,600.0
2.0,57.0,30.0,24.0
2.0,49.0,0.0,10.0
2.0,57.0,0.0,50.0
2.0,41.0,0.0,0.0
2.0,48.0,0.0,0.0
2.0,64.0,35.0,0.0
2.0,64.0,0.0,472.0
2.0,50.0,33.0,0.0
2.0,62.0,33.0,0.0
2.0,62.0,0.0,225.0
2.0,50.0,0.0,0.0
2.0,57.0,0.0,0.0
2.0,60.0,29.0,0.0
2.0,53.0,29.0,0.0
2.0,53.0,0.0,240.0
2.0,55.0,33.0,0.0
2.0,55.0,0.0,227.0
2.0,60.0,0.0,0.0
2.0,57.0,33.0,0.0
2.0,60.0,33.0,0.0
2.0,60.0,0.0,240.0
2.0,57.0,0.0,0.0
2.0,59.0,36.0,0.0
2.0,55.0,36.0,0.0
2.0,59.0,0.0,190.0
2.0,67.0,33.0,0.0
2.0,67.0,0.0,240.0
2.0,57.0,33.0,0.0
2.0,57.0,0.0,237.0
2.0,59.0,33.0,0.0
2.0,59.0,0.0,240.0
2.0,55.0,0.0,0.0
2.0,48.0,37.0,0.0
2.0,60.0,37.0,0.0
2.0,60.0,0.0,240.0
2.0,48.0,0.0,0.0
2.0,50.0,46.0,0.0
2.0,50.0,0.0,240.0
2.0,46.0,41.0,0.0
2.0,46.0,0.0,240.0
2.0,43.0,40.0,0.0
2.0,43.0,0.0,240.0
2.0,41.0,46.0,0.0
2.0,48.0,22.0,339.0
2.0,57.0,22.0,0.0
2.0,46.0,31.0,741.0
2.0,53.0,35.0,3.0
2.0,46.0,0.0,10.0
2.0,57.0,0.0,50.0
2.0,41.0,0.0,0.0
2.0,48.0,0.0,0.0
2.0,62.0,39.0,10.0
2.0,60.0,34.0,950.0
2.0,62.0,0.0,10.0
2.0,60.0,0.0,226.0
2.0,58.0,31.0,0.0
2.0,58.0,0.0,240.0
2.0,53.0,0.0,0.0
2.0,48.0,33.0,0.0
2.0,57.0,33.0,0.0
2.0,57.0,0.0,360.0
2.0,48.0,0.0,0.0
2.0,58.0,37.0,0.0
2.0,48.0,38.0,0.0
2.0,58.0,0.0,233.0
2.0,57.0,37.0,0.0
2.0,57.0,0.0,240.0
2.0,55.0,40.0,0.0
2.0,55.0,0.0,381.0
2.0,48.0,0.0,0.0
2.0,45.0,36.0,0.0
2.0,53.0,36.0,0.0
2.0,53.0,0.0,236.0
2.0,45.0,0.0,0.0
2.0,48.0,39.0,0.0
2.0,55.0,39.0,0.0
2.0,55.0,0.0,240.0
2.0,48.0,0.0,0.0
2.0,53.0,42.0,0.0
2.0,57.0,42.0,0.0
2.0,57.0,0.0,381.0
2.0,53.0,0.0,0.0
2.0,48.0,39.0,0.0
2.0,55.0,39.0,0.0
2.0,48.0,0.0,226.0
2.0,50.0,50.0,0.0
2.0,50.0,0.0,240.0
2.0,48.0,47.0,0.0
2.0,48.0,0.0,240.0
2.0,46.0,47.0,0.0
2.0,46.0,0.0,240.0
2.0,55.0,0.0,0.0
2.0,43.0,48.0,0.0
2.0,43.0,0.0,240.0
2.0,45.0,48.0,0.0
2.0,45.0,0.0,240.0
2.0,41.0,46.0,0.0
2.0,48.0,22.0,339.0
2.0,57.0,22.0,0.0
2.0,49.0,28.0,798.0
2.0,57.0,30.0,0.0
2.0,49.0,0.0,10.0
2.0,57.0,0.0,50.0
2.0,41.0,0.0,0.0
2.0,48.0,0.0,0.0
2.0,64.0,35.0,0.0
2.0,64.0,0.0,703.0
2.0,50.0,33.0,0.0
2.0,62.0,33.0,0.0
2.0,62.0,0.0,232.0
2.0,50.0,0.0,0.0
2.0,57.0,0.0,0.0
2.0,60.0,29.0,0.0
2.0,53.0,29.0,0.0
2.0,53.0,0.0,240.0
2.0,55.0,33.0,0.0
2.0,55.0,0.0,232.0
2.0,60.0,0.0,0.0
2.0,57.0,33.0,0.0
2.0,60.0,33.0,0.0
2.0,60.0,0.0,240.0
2.0,57.0,0.0,0.0
2.0,59.0,36.0,0.0
2.0,55.0,36.0,0.0
2.0,59.0,0.0,120.0
2.0,67.0,33.0,0.0
2.0,67.0,0.0,240.0
2.0,57.0,33.0,0.0
2.0,57.0,0.0,228.0
2.0,59.0,33.0,0.0
2.0,59.0,0.0,240.0
2.0,55.0,0.0,0.0
2.0,48.0,37.0,0.0
2.0,60.0,37.0,0.0
2.0,60.0,0.0,240.0
2.0,48.0,0.0,0.0
2.0,50.0,46.0,0.0
2.0,50.0,0.0,240.0
2.0,46.0,42.0,0.0
2.0,46.0,0.0,240.0
2.0,43.0,40.0,0.0
2.0,43.0,0.0,240.0
2.0,41.0,50.0,0.0
2.0,48.0,24.0,310.0
2.0,57.0,24.0,0.0
2.0,57.0,0.0,268.0
2.0,48.0,0.0,0.0
2.0,41.0,0.0,0.0
2.0,48.0,36.0,68.0
2.0,55.0,39.0,0.0
2.0,55.0,0.0,240.0
2.0,48.0,0.0,0.0
2.0,54.0,41.0,0.0
2.0,50.0,41.0,0.0
2.0,54.0,0.0,233.0
2.0,57.0,41.0,0.0
2.0,57.0,0.0,240.0
2.0,62.0,44.0,0.0
2.0,50.0,0.0,720.0
2.0,54.0,41.0,0.0
2.0,54.0,0.0,240.0
2.0,55.0,46.0,0.0
2.0,55.0,0.0,222.0
2.0,62.0,0.0,0.0
2.0,54.0,39.0,0.0
2.0,48.0,39.0,0.0
2.0,48.0,0.0,240.0
2.0,54.0,0.0,0.0
2.0,50.0,44.0,0.0
2.0,55.0,44.0,0.0
2.0,55.0,0.0,226.0
2.0,50.0,0.0,0.0
2.0,51.0,40.0,0.0
2.0,51.0,0.0,240.0
2.0,58.0,45.0,0.0
2.0,50.0,45.0,0.0
2.0,58.0,0.0,120.0
2.0,62.0,40.0,0.0
2.0,62.0,0.0,240.0
2.0,55.0,40.0,0.0
2.0,55.0,0.0,238.0
2.0,50.0,0.0,0.0
2.0,50.0,37.0,0.0
2.0,57.0,37.0,0.0
2.0,57.0,0.0,480.0
2.0,50.0,0.0,0.0
2.0,55.0,42.0,0.0
2.0,55.0,0.0,240.0
2.0,43.0,44.0,0.0
2.0,43.0,0.0,240.0
2.0,45.0,38.0,0.0
2.0,45.0,0.0,240.0
2.0,34.0,42.0,0.0
2.0,34.0,0.0,339.0
2.0,53.0,24.0,0.0
2.0,62.0,24.0,0.0
2.0,62.0,0.0,381.0
2.0,53.0,0.0,0.0
2.0,55.0,28.0,103.0
2.0,62.0,28.0,0.0
2.0,62.0,0.0,240.0
2.0,55.0,0.0,0.0
2.0,61.0,27.0,0.0
2.0,57.0,25.0,0.0
2.0,61.0,0.0,229.0
2.0,64.0,29.0,0.0
2.0,64.0,0.0,240.0
2.0,69.0,30.0,0.0
2.0,57.0,0.0,720.0
2.0,61.0,33.0,0.0
2.0,61.0,0.0,240.0
2.0,62.0,41.0,0.0
2.0,62.0,0.0,225.0
2.0,69.0,0.0,0.0
2.0,61.0,31.0,0.0
2.0,55.0,31.0,0.0
2.0,55.0,0.0,240.0
2.0,61.0,0.0,0.0
2.0,57.0,37.0,0.0
2.0,62.0,37.0,0.0
2.0,62.0,0.0,229.0
2.0,57.0,0.0,0.0
2.0,58.0,29.0,0.0
2.0,58.0,0.0,240.0
2.0,57.0,34.0,0.0
2.0,62.0,37.0,402.0
2.0,62.0,0.0,233.0
2.0,61.0,31.0,0.0
2.0,64.0,31.0,0.0
2.0,64.0,0.0,240.0
2.0,61.0,0.0,0.0
2.0,57.0,0.0,0.0
2.0,62.0,36.0,0.0
2.0,57.0,30.0,0.0
2.0,57.0,0.0,240.0
2.0,58.0,30.0,0.0
2.0,62.0,0.0,240.0
2.0,60.0,30.0,0.0
2.0,60.0,0.0,240.0
2.0,58.0,0.0,0.0
2.0,48.0,32.0,0.0
2.0,48.0,0.0,113.0
2.0,41.0,37.0,0.0
2.0,48.0,19.0,480.0
2.0,57.0,19.0,0.0
2.0,46.0,27.0,3.0
2.0,53.0,31.0,10.0
2.0,46.0,0.0,10.0
2.0,57.0,0.0,50.0
2.0,41.0,0.0,0.0
2.0,48.0,0.0,0.0
2.0,62.0,35.0,10.0
2.0,60.0,29.0,950.0
2.0,62.0,0.0,10.0
2.0,60.0,0.0,225.0
2.0,58.0,27.0,0.0
2.0,58.0,0.0,240.0
2.0,53.0,0.0,0.0
2.0,48.0,29.0,0.0
2.0,57.0,29.0,0.0
2.0,57.0,0.0,409.0
2.0,48.0,0.0,0.0
2.0,58.0,33.0,0.0
2.0,48.0,34.0,0.0
2.0,58.0,0.0,226.0
2.0,57.0,33.0,0.0
2.0,57.0,0.0,240.0
2.0,55.0,36.0,0.0
2.0,55.0,0.0,353.0
2.0,48.0,0.0,0.0
2.0,45.0,32.0,0.0
2.0,53.0,32.0,0.0
2.0,53.0,0.0,236.0
2.0,45.0,0.0,0.0
2.0,48.0,35.0,0.0
2.0,55.0,35.0,0.0
2.0,55.0,0.0,240.0
2.0,48.0,0.0,0.0
2.0,53.0,37.0,0.0
2.0,57.0,37.0,0.0
2.0,57.0,0.0,381.0
2.0,53.0,0.0,0.0
2.0,48.0,35.0,0.0
2.0,55.0,35.0,0.0
2.0,48.0,0.0,233.0
2.0,50.0,45.0,0.0
2.0,50.0,0.0,240.0
2.0,48.0,42.0,0.0
2.0,48.0,0.0,240.0
2.0,46.0,42.0,0.0
2.0,46.0,0.0,240.0
2.0,55.0,0.0,0.0
2.0,43.0,43.0,0.0
2.0,43.0,0.0,240.0
2.0,45.0,43.0,0.0
2.0,45.0,0.0,240.0
2.0,41.0,41.0,0.0
2.0,48.0,19.0,353.0
2.0,57.0,19.0,0.0
2.0,57.0,0.0,833.0
2.0,48.0,0.0,0.0
2.0,41.0,0.0,0.0
2.0,43.0,26.0,0.0
2.0,47.0,26.0,0.0
2.0,59.0,26.0,0.0
2.0,59.0,0.0,339.0
2.0,47.0,0.0,0.0
2.0,43.0,0.0,0.0
2.0,57.0,29.0,0.0
2.0,48.0,29.0,0.0
2.0,60.0,29.0,0.0
2.0,60.0,0.0,377.0
2.0,48.0,0.0,0.0
2.0,57.0,0.0,0.0
2.0,58.0,29.0,0.0
2.0,60.0,29.0,0.0
2.0,48.0,29.0,0.0
2.0,58.0,0.0,232.0
2.0,57.0,29.0,0.0
2.0,57.0,0.0,240.0
2.0,55.0,29.0,0.0
2.0,55.0,0.0,331.0
2.0,48.0,0.0,0.0
2.0,60.0,0.0,0.0
2.0,46.0,27.0,0.0
2.0,55.0,27.0,0.0
2.0,55.0,0.0,227.0
2.0,46.0,0.0,0.0
2.0,50.0,27.0,0.0
2.0,57.0,27.0,0.0
2.0,57.0,0.0,240.0
2.0,50.0,0.0,0.0
2.0,58.0,32.0,0.0
2.0,55.0,32.0,0.0
2.0,55.0,0.0,395.0
2.0,58.0,0.0,0.0
2.0,48.0,26.0,0.0
2.0,55.0,26.0,0.0
2.0,36.0,26.0,226.0
2.0,36.0,0.0,240.0
2.0,55.0,0.0,0.0
2.0,41.0,26.0,0.0
2.0,41.0,0.0,861.0
2.0,48.0,0.0,0.0
0.0,0.0,0.0,0.0
0.0,0.0,0.0,0.0
0.0,0.0,0.0,0.0
0.0,0.0,0.0,0.0
0.0,0.0,0.0,0.0
0.0,0.0,0.0,0.0
0.0,0.0,0.0,0.0
0.0,0.0,0.0,0.0
0.0,0.0,0.0,0.0
0.0,0.0,0.0,0.0
0.0,0.0,0.0,0.0
0.0,0.0,0.0,0.0
0.0,0.0,0.0,0.0
0.0,0.0,0.0,0.0
0.0,0.0,0.0,0.0
0.0,0.0,0.0,0.0
0.0,0.0,0.0,0.0
0.0,0.0,0.0,0.0
0.0,0.0,0.0,0.0
0.0,0.0,0.0,0.0
0.0,0.0,0.0,0.0
0.0,0.0,0.0,0.0
0.0,0.0,0.0,0.0
0.0,0.0,0.0,0.0
0.0,0.0,0.0,0.0
0.0,0.0,0.0,0.0
0.0,0.0,0.0,0.0
0.0,0.0,0.0,0.0
0.0,0.0,0.0,0.0
0.0,0.0,0.0,0.0
0.0,0.0,0.0,0.0
0.0,0.0,0.0,0.0
0.0,0.0,0.0,0.0
0.0,0.0,0.0,0.0
0.0,0.0,0.0,0.0
0.0,0.0,0.0,0.0
0.0,0.0,0.0,0.0
0.0,0.0,0.0,0.0
0.0,0.0,0.0,0.0
0.0,0.0,0.0,0.0
0.0,0.0,0.0,0.0
0.0,0.0,0.0,0.0
0.0,0.0,0.0,0.0
0.0,0.0,0.0,0.0
0.0,0.0,0.0,0.0
0.0,0.0,0.0,0.0
0.0,0.0,0.0,0.0
0.0,0.0,0.0,0.0
0.0,0.0,0.0,0.0
0.0,0.0,0.0,0.0
0.0,0.0,0.0,0.0
0.0,0.0,0.0,0.0
0.0,0.0,0.0,0.0
0.0,0.0,0.0,0.0
0.0,0.0,0.0,0.0
0.0,0.0,0.0,0.0
0.0,0.0,0.0,0.0
0.0,0.0,0.0,0.0
0.0,0.0,0.0,0.0
0.0,0.0,0.0,0.0
0.0,0.0,0.0,0.0
0.0,0.0,0.0,0.0
0.0,0.0,0.0,0.0
0.0,0.0,0.0,0.0
0.0,0.0,0.0,0.0
0.0,0.0,0.0,0.0
0.0,0.0,0.0,0.0
0.0,0.0,0.0,0.0
0.0,0.0,0.0,0.0
0.0,0.0,0.0,0.0
0.0,0.0,0.0,0.0
0.0,0.0,0.0,0.0
0.0,0.0,0.0,0.0
0.0,0.0,0.0,0.0
0.0,0.0,0.0,0.0
0.0,0.0,0.0,0.0
0.0,0.0,0.0,0.0
0.0,0.0,0.0,0.0
0.0,0.0,0.0,0.0
0.0,0.0,0.0,0.0
0.0,0.0,0.0,0.0
0.0,0.0,0.0,0.0
0.0,0.0,0.0,0.0
0.0,0.0,0.0,0.0
0.0,0.0,0.0,0.0
0.0,0.0,0.0,0.0
0.0,0.0,0.0,0.0
0.0,0.0,0.0,0.0
