track,note,velocity,time
1,68,59,1
1,67,35,120
1,64,35,0
1,64,0,120
1,67,0,0
1,68,0,0
1,69,62,0
1,64,35,120
1,67,35,0
1,67,0,120
1,64,0,0
1,69,0,0
1,73,64,0
1,69,37,120
1,67,37,0
1,67,0,120
1,69,0,0
1,73,0,0
1,78,68,0
1,67,40,120
1,69,40,0
1,69,0,120
1,67,0,0
1,78,0,0
1,76,68,0
1,67,40,120
1,69,40,0
1,69,0,120
1,67,0,0
1,76,0,0
1,74,66,0
1,62,38,120
1,66,38,0
1,66,0,120
1,62,0,0
1,74,0,0
1,69,63,0
1,62,36,120
1,66,36,0
1,66,0,120
1,62,0,0
1,69,0,0
1,62,38,120
1,66,38,0
1,66,0,120
1,62,0,0
1,69,64,0
1,69,0,60
1,62,39,60
1,66,39,0
1,66,0,120
1,62,0,0
1,69,67,0
1,69,0,120
1,61,48,0
1,64,48,0
1,64,0,60
1,61,0,0
1,61,56,60
1,64,56,0
1,64,0,120
1,66,45,0
1,66,0,120
1,61,0,0
1,67,59,0
1,61,42,120
1,64,42,0
1,64,0,120
1,61,0,0
1,67,0,0
1,71,59,0
1,59,43,120
1,67,43,0
1,67,0,120
1,59,0,0
1,71,0,0
1,69,57,0
1,57,39,120
1,66,39,0
1,66,0,120
1,57,0,0
1,69,0,0
1,66,55,0
1,57,36,120
1,62,36,0
1,62,0,120
1,57,0,0
1,66,0,0
1,64,53,0
1,57,34,120
1,61,34,0
1,61,0,120
1,57,0,0
1,64,0,0
1,68,59,0
1,64,40,120
1,67,40,0
1,67,0,120
1,64,0,0
1,68,0,0
1,69,69,0
1,64,38,120
1,67,38,0
1,67,0,120
1,64,0,0
1,55,40,120
1,57,40,0
1,57,0,120
1,55,0,0
1,69,0,0
1,55,38,120
1,57,38,0
1,57,0,120
1,55,0,0
1,61,45,0
1,55,38,120
1,57,38,0
1,57,0,120
1,55,0,0
1,61,0,0
1,62,62,0
1,57,38,120
1,54,38,0
1,54,0,120
1,57,0,0
1,62,0,0
1,66,64,0
1,57,39,120
1,62,39,0
1,62,0,120
1,57,0,0
1,66,0,0
1,71,68,0
1,66,40,120
1,62,40,0
1,62,0,120
1,66,0,0
1,71,0,0
1,69,68,0
1,66,40,120
1,62,40,0
1,62,0,120
1,66,0,0
1,69,0,0
1,67,68,0
1,62,40,120
1,55,40,0
1,55,0,120
1,62,0,0
1,67,0,0
1,71,70,0
1,62,42,120
1,67,42,0
1,67,0,120
1,62,0,0
1,71,0,0
1,76,74,0
1,67,44,120
1,64,44,0
1,64,0,120
1,67,0,0
1,76,0,0
1,74,72,0
1,67,41,120
1,62,41,0
1,62,0,120
1,67,0,0
1,74,0,0
1,73,68,0
1,61,38,120
1,67,38,0
1,67,0,120
1,61,0,0
1,73,0,0
1,71,65,0
1,62,38,120
1,67,38,0
1,67,0,120
1,62,0,0
1,71,0,0
1,69,60,0
1,63,35,120
1,67,35,0
1,67,0,120
1,63,0,0
1,69,0,0
1,68,59,0
1,64,35,120
1,67,35,0
1,67,0,120
1,64,0,0
1,68,0,0
1,69,62,0
1,64,35,120
1,67,35,0
1,67,0,120
1,64,0,0
1,69,0,0
1,73,64,0
1,67,37,120
1,69,37,0
1,69,0,120
1,67,0,0
1,73,0,0
1,78,68,0
1,67,40,120
1,69,40,0
1,69,0,120
1,67,0,0
1,78,0,0
1,76,68,0
1,67,40,120
1,69,40,0
1,69,0,120
1,67,0,0
1,76,0,0
1,74,66,0
1,62,38,120
1,66,38,0
1,66,0,120
1,62,0,0
1,74,0,0
1,69,63,0
1,62,36,120
1,66,36,0
1,66,0,120
1,62,0,0
1,69,0,0
1,62,38,120
1,66,38,0
1,66,0,120
1,62,0,0
1,69,64,0
1,69,0,60
1,62,39,60
1,66,39,0
1,66,0,120
1,62,0,0
1,69,67,0
1,69,0,120
1,61,48,0
1,64,48,0
1,64,0,60
1,61,0,0
1,61,56,60
1,64,56,0
1,64,0,120
1,66,45,0
1,66,0,120
1,61,0,0
1,67,59,0
1,61,42,120
1,64,42,0
1,64,0,120
1,61,0,0
1,67,0,0
1,71,59,0
1,59,39,120
1,67,39,0
1,67,0,120
1,59,0,0
1,71,0,0
1,69,56,0
1,57,36,120
1,66,36,0
1,66,0,120
1,57,0,0
1,69,0,0
1,66,55,0
1,57,35,120
1,62,35,0
1,62,0,120
1,57,0,0
1,66,0,0
1,64,51,0
1,57,34,120
1,61,34,0
1,61,0,120
1,57,0,0
1,64,0,0
1,68,59,0
1,64,40,120
1,67,40,0
1,67,0,120
1,64,0,0
1,68,0,0
1,69,69,0
1,64,38,120
1,67,38,0
1,67,0,120
1,64,0,0
1,55,40,120
1,57,40,0
1,57,0,120
1,55,0,0
1,69,0,0
1,55,38,120
1,57,38,0
1,57,0,120
1,55,0,0
1,61,45,0
1,55,38,120
1,57,38,0
1,57,0,120
1,55,0,0
1,61,0,0
1,62,62,0
1,57,38,120
1,54,38,0
1,54,0,120
1,57,0,0
1,62,0,0
1,66,64,0
1,57,39,120
1,62,39,0
1,62,0,120
1,57,0,0
1,66,0,0
1,71,68,0
1,66,40,120
1,62,40,0
1,62,0,120
1,66,0,0
1,71,0,0
1,69,68,0
1,66,40,120
1,62,40,0
1,62,0,120
1,66,0,0
1,69,0,0
1,67,68,0
1,62,40,120
1,55,40,0
1,55,0,120
1,62,0,0
1,67,0,0
1,71,70,0
1,62,42,120
1,67,42,0
1,67,0,120
1,62,0,0
1,71,0,0
1,76,74,0
1,67,44,120
1,64,44,0
1,64,0,120
1,67,0,0
1,76,0,0
1,74,72,0
1,67,41,120
1,62,41,0
1,62,0,120
1,67,0,0
1,74,0,0
1,73,63,0
1,61,38,120
1,67,38,0
1,67,0,120
1,61,0,0
1,73,0,0
1,71,58,0
1,62,38,120
1,67,38,0
1,67,0,120
1,62,0,0
1,71,0,0
1,69,53,0
1,63,35,120
1,67,35,0
1,67,0,1
1,63,0,0
1,69,0,0
1,69,50,0
1,67,29,120
1,64,29,0
1,64,0,120
1,67,0,0
1,69,0,0
1,70,52,0
1,67,29,120
1,64,29,0
1,64,0,120
1,67,0,0
1,70,0,0
1,76,54,0
1,67,31,120
1,70,31,0
1,70,0,120
1,67,0,0
1,76,0,0
1,81,57,0
1,67,34,120
1,70,34,0
1,70,0,120
1,67,0,0
1,81,0,0
1,79,57,0
1,70,34,120
1,67,34,0
1,67,0,120
1,70,0,0
1,79,0,0
1,77,56,0
1,69,32,120
1,65,32,0
1,65,0,120
1,69,0,0
1,77,0,0
1,72,53,0
1,65,30,120
1,69,30,0
1,69,0,120
1,65,0,0
1,72,0,0
1,69,32,120
1,65,32,0
1,65,0,120
1,69,0,0
1,72,54,0
1,72,0,60
1,65,33,60
1,69,33,0
1,69,0,120
1,65,0,0
1,72,56,0
1,72,0,120
1,67,40,0
1,64,40,0
1,64,0,60
1,67,0,0
1,67,47,60
1,64,47,0
1,67,0,120
1,69,38,0
1,69,0,120
1,64,0,0
1,70,50,0
1,67,35,120
1,64,35,0
1,64,0,120
1,67,0,0
1,70,0,0
1,74,52,0
1,60,36,120
1,70,36,0
1,70,0,120
1,60,0,0
1,74,0,0
1,72,51,0
1,60,34,120
1,69,34,0
1,69,0,120
1,60,0,0
1,72,0,0
1,69,49,0
1,65,33,120
1,60,33,0
1,60,0,120
1,65,0,0
1,69,0,0
1,67,47,0
1,60,33,120
1,60,0,120
1,67,0,0
1,69,56,0
1,64,34,120
1,67,34,0
1,67,0,120
1,64,0,0
1,69,0,0
1,70,60,0
1,67,37,120
1,64,37,0
1,64,0,120
1,67,0,0
1,70,0,0
1,76,63,0
1,67,40,120
1,70,40,0
1,70,0,120
1,67,0,0
1,76,0,0
1,81,67,0
1,67,42,120
1,70,42,0
1,70,0,120
1,67,0,0
1,81,0,0
1,79,63,0
1,70,40,120
1,67,40,0
1,67,0,120
1,70,0,0
1,79,0,0
1,78,64,0
1,66,39,120
1,69,39,0
1,69,0,120
1,66,0,0
1,78,0,0
1,73,59,0
1,67,39,120
1,69,39,0
1,69,0,120
1,67,0,0
1,73,0,0
1,76,63,0
1,64,42,120
1,69,42,0
1,69,0,120
1,64,0,0
1,76,0,0
1,74,62,0
1,62,39,120
1,69,39,0
1,69,0,120
1,62,0,0
1,74,0,0
1,71,62,0
1,62,39,120
1,67,39,0
1,67,0,120
1,62,0,0
1,71,0,0
1,66,49,0
1,60,31,120
1,62,31,0
1,62,0,120
1,60,0,0
1,66,0,0
1,69,52,0
1,57,32,120
1,62,32,0
1,62,0,120
1,57,0,0
1,69,0,0
1,67,48,0
1,55,31,120
1,62,31,0
1,62,0,120
1,55,0,0
1,67,0,0
1,66,45,0
1,57,30,120
1,62,30,0
1,62,0,120
1,57,0,0
1,66,0,0
1,64,39,0
1,55,28,120
1,61,28,0
1,61,0,120
1,55,0,0
1,64,0,0
1,62,38,0
1,54,22,120
1,57,22,0
1,62,0,120
1,68,59,0
1,57,0,60
1,54,0,0
1,67,35,60
1,64,35,0
1,64,0,120
1,67,0,0
1,68,0,0
1,69,62,0
1,64,35,120
1,67,35,0
1,67,0,120
1,64,0,0
1,69,0,0
1,73,64,0
1,67,37,120
1,69,37,0
1,69,0,120
1,67,0,0
1,73,0,0
1,78,70,0
1,67,40,120
1,69,40,0
1,69,0,120
1,67,0,0
1,78,0,0
1,76,68,0
1,67,40,120
1,69,40,0
1,69,0,120
1,67,0,0
1,76,0,0
1,74,66,0
1,62,38,120
1,66,38,0
1,66,0,120
1,62,0,0
1,74,0,0
1,69,63,0
1,62,36,120
1,66,36,0
1,66,0,120
1,62,0,0
1,69,0,0
1,62,38,120
1,66,38,0
1,66,0,120
1,62,0,0
1,69,64,0
1,69,0,60
1,62,39,60
1,66,39,0
1,66,0,120
1,62,0,0
1,69,67,0
1,69,0,120
1,61,48,0
1,64,48,0
1,64,0,60
1,61,0,0
1,61,56,60
1,64,56,0
1,64,0,120
1,66,45,0
1,66,0,120
1,61,0,0
1,67,59,0
1,61,42,120
1,64,42,0
1,64,0,120
1,61,0,0
1,67,0,0
1,71,59,0
1,59,43,120
1,67,43,0
1,67,0,120
1,59,0,0
1,71,0,0
1,69,57,0
1,57,39,120
1,66,39,0
1,66,0,120
1,57,0,0
1,69,0,0
1,66,55,0
1,57,36,120
1,62,36,0
1,62,0,120
1,57,0,0
1,66,0,0
1,64,53,0
1,57,34,120
1,61,34,0
1,61,0,120
1,57,0,0
1,64,0,0
1,68,59,0
1,64,40,120
1,67,40,0
1,67,0,120
1,64,0,0
1,68,0,0
1,69,69,0
1,64,38,120
1,67,38,0
1,67,0,120
1,64,0,0
1,55,40,120
1,57,40,0
1,57,0,120
1,55,0,0
1,69,0,0
1,55,38,120
1,57,38,0
1,57,0,120
1,55,0,0
1,61,45,0
1,55,38,120
1,57,38,0
1,57,0,120
1,55,0,0
1,61,0,0
1,62,62,0
1,57,38,120
1,54,38,0
1,54,0,120
1,57,0,0
1,62,0,0
1,66,64,0
1,57,39,120
1,62,39,0
1,62,0,120
1,57,0,0
1,66,0,0
1,71,68,0
1,66,40,120
1,62,40,0
1,62,0,120
1,66,0,0
1,71,0,0
1,69,68,0
1,66,40,120
1,62,40,0
1,62,0,120
1,66,0,0
1,69,0,0
1,67,68,0
1,62,40,120
1,55,40,0
1,55,0,120
1,62,0,0
1,67,0,0
1,71,70,0
1,62,42,120
1,67,42,0
1,67,0,120
1,62,0,0
1,71,0,0
1,76,74,0
1,67,44,120
1,64,44,0
1,64,0,120
1,67,0,0
1,76,0,0
1,74,72,0
1,67,41,120
1,62,41,0
1,62,0,120
1,67,0,0
1,74,0,0
1,73,63,0
1,61,38,120
1,67,38,0
1,67,0,120
1,61,0,0
1,73,0,0
1,71,58,0
1,62,38,120
1,67,38,0
1,67,0,120
1,62,0,0
1,71,0,0
1,69,53,0
1,63,35,120
1,67,35,0
1,67,0,1
1,63,0,0
1,69,0,0
1,69,50,0
1,67,29,120
1,64,29,0
1,64,0,120
1,67,0,0
1,69,0,0
1,70,52,0
1,67,29,120
1,64,29,0
1,64,0,120
1,67,0,0
1,70,0,0
1,76,54,0
1,67,31,120
1,70,31,0
1,70,0,120
1,67,0,0
1,76,0,0
1,81,57,0
1,67,34,120
1,70,34,0
1,70,0,120
1,67,0,0
1,81,0,0
1,79,57,0
1,70,34,120
1,67,34,0
1,67,0,120
1,70,0,0
1,79,0,0
1,77,56,0
1,69,32,120
1,65,32,0
1,65,0,120
1,69,0,0
1,77,0,0
1,72,53,0
1,65,30,120
1,69,30,0
1,69,0,120
1,65,0,0
1,72,0,0
1,69,32,120
1,65,32,0
1,65,0,120
1,69,0,0
1,72,54,0
1,72,0,60
1,65,33,60
1,69,33,0
1,69,0,120
1,65,0,0
1,72,56,0
1,72,0,120
1,67,40,0
1,64,40,0
1,64,0,60
1,67,0,0
1,67,47,60
1,64,47,0
1,67,0,120
1,69,38,0
1,69,0,120
1,64,0,0
1,70,50,0
1,67,35,120
1,64,35,0
1,64,0,120
1,67,0,0
1,70,0,0
1,74,52,0
1,60,36,120
1,70,36,0
1,70,0,120
1,60,0,0
1,74,0,0
1,72,51,0
1,60,34,120
1,69,34,0
1,69,0,120
1,60,0,0
1,72,0,0
1,69,49,0
1,65,33,120
1,60,33,0
1,60,0,120
1,65,0,0
1,69,0,0
1,67,47,0
1,60,33,120
1,60,0,120
1,67,0,0
1,69,56,0
1,64,34,120
1,67,34,0
1,67,0,120
1,64,0,0
1,69,0,0
1,70,62,0
1,67,37,120
1,64,37,0
1,64,0,120
1,67,0,0
1,70,0,0
1,76,65,0
1,67,40,120
1,70,40,0
1,70,0,120
1,67,0,0
1,76,0,0
1,81,69,0
1,67,42,120
1,70,42,0
1,70,0,120
1,67,0,0
1,81,0,0
1,79,63,0
1,70,40,120
1,67,40,0
1,67,0,120
1,70,0,0
1,79,0,0
1,78,64,0
1,66,39,120
1,69,39,0
1,69,0,120
1,66,0,0
1,78,0,0
1,73,59,0
1,67,39,120
1,69,39,0
1,69,0,120
1,67,0,0
1,73,0,0
1,76,63,0
1,64,42,120
1,69,42,0
1,69,0,120
1,64,0,0
1,76,0,0
1,74,62,0
1,62,39,120
1,69,39,0
1,69,0,120
1,62,0,0
1,74,0,0
1,71,62,0
1,62,39,120
1,67,39,0
1,67,0,120
1,62,0,0
1,71,0,0
1,66,49,0
1,60,31,120
1,62,31,0
1,62,0,120
1,60,0,0
1,66,0,0
1,69,52,0
1,57,32,120
1,62,32,0
1,62,0,120
1,57,0,0
1,69,0,0
1,67,48,0
1,55,31,120
1,62,31,0
1,62,0,120
1,55,0,0
1,67,0,0
1,66,45,0
1,57,30,120
1,62,30,0
1,62,0,120
1,57,0,0
1,66,0,0
1,64,39,0
1,55,28,120
1,61,28,0
1,61,0,120
1,55,0,0
1,64,0,0
1,62,38,0
1,54,22,120
1,57,22,0
1,57,0,360
1,54,0,0
1,62,0,0
2,45,51,241
2,33,51,0
2,33,0,63
2,45,0,0
2,49,51,120
2,49,0,240
2,45,54,0
2,50,54,0
2,50,0,166
2,54,57,0
2,54,0,240
2,59,61,0
2,59,0,198
2,57,59,0
2,57,0,46
2,45,0,0
2,45,51,0
2,45,0,120
2,55,38,0
2,57,38,0
2,57,0,60
2,55,0,0
2,55,41,60
2,57,41,0
2,55,0,120
2,54,38,0
2,54,0,120
2,52,51,0
2,52,0,202
2,57,0,0
2,33,44,0
2,45,44,0
2,33,0,240
2,38,52,0
2,38,0,85
2,42,49,0
2,42,0,240
2,45,45,0
2,45,0,106
2,33,53,0
2,33,0,120
2,45,0,0
2,45,53,0
2,49,58,196
2,49,0,240
2,54,63,0
2,54,0,151
2,52,61,0
2,52,0,240
2,45,0,0
2,38,51,0
2,50,51,0
2,50,0,120
2,38,0,0
2,36,47,0
2,48,47,0
2,48,0,240
2,36,0,0
2,35,56,0
2,47,56,0
2,47,0,148
2,35,0,0
2,34,43,0
2,46,43,0
2,46,0,240
2,34,0,0
