track,note,velocity,time
1,78,79,1
1,74,79,0
1,81,88,0
1,74,0,239
1,78,0,0
1,69,74,0
1,69,0,240
1,81,0,0
1,76,84,0
1,70,75,0
1,74,75,0
1,74,0,240
1,70,0,0
1,64,69,0
1,64,0,240
1,76,0,0
1,81,88,0
1,74,79,0
1,78,79,0
1,78,0,240
1,74,0,0
1,69,75,0
1,69,0,240
1,81,0,0
1,76,84,0
1,70,75,0
1,74,75,0
1,74,0,240
1,70,0,0
1,64,70,0
1,64,0,240
1,76,0,0
1,74,72,0
1,74,0,60
1,76,67,60
1,76,0,60
1,74,71,60
1,74,0,60
1,76,67,60
1,76,0,60
1,78,72,60
1,78,0,120
1,78,68,120
1,78,0,120
1,76,73,120
1,67,66,0
1,74,66,0
1,76,0,240
1,79,69,0
1,79,0,240
1,74,0,0
1,67,0,0
1,73,64,0
1,76,72,0
1,73,0,240
1,69,68,0
1,69,0,240
1,76,0,0
1,81,88,0
1,74,79,0
1,78,79,0
1,78,0,240
1,74,0,0
1,69,75,0
1,69,0,240
1,81,0,0
1,76,84,0
1,70,75,0
1,74,75,0
1,74,0,240
1,70,0,0
1,64,73,0
1,64,0,240
1,76,0,0
1,81,88,0
1,74,79,0
1,78,79,0
1,78,0,240
1,74,0,0
1,69,75,0
1,69,0,240
1,81,0,0
1,76,84,0
1,70,75,0
1,74,75,0
1,74,0,240
1,70,0,0
1,64,72,0
1,64,0,240
1,76,0,0
1,74,77,0
1,74,0,60
1,76,73,60
1,76,0,60
1,74,78,60
1,74,0,60
1,76,73,60
1,76,0,60
1,78,80,60
1,78,0,120
1,78,72,120
1,78,0,120
1,74,80,120
1,76,80,0
1,76,0,60
1,74,0,0
1,78,81,60
1,78,0,60
1,79,83,60
1,79,0,60
1,81,85,60
1,81,0,60
1,82,86,60
1,82,0,240
1,61,42,360
1,63,42,0
1,63,0,120
1,61,0,0
1,61,42,120
1,63,42,0
1,63,0,120
1,61,0,0
1,60,47,0
1,72,42,240
1,63,42,0
1,63,0,240
1,72,0,0
1,60,0,0
1,63,46,120
1,65,46,0
1,65,0,120
1,63,0,0
1,63,46,120
1,65,46,0
1,65,0,120
1,63,0,0
1,62,52,0
1,74,47,240
1,65,41,0
1,65,0,240
1,74,0,0
1,62,0,0
1,62,49,0
1,67,38,240
1,74,41,0
1,65,38,0
1,65,0,240
1,62,0,0
1,67,0,0
1,74,0,0
1,63,50,0
1,75,43,240
1,67,38,0
1,67,0,240
1,75,0,0
1,63,0,0
1,65,54,0
1,71,38,240
1,79,43,0
1,79,0,240
1,71,0,0
1,65,0,0
1,63,53,0
1,75,45,240
1,67,40,0
1,67,0,240
1,75,0,0
1,63,0,0
1,65,47,120
1,67,47,0
1,67,0,120
1,65,0,0
1,65,48,120
1,67,48,0
1,67,0,120
1,65,0,0
1,64,53,0
1,76,48,240
1,67,43,0
1,67,0,240
1,76,0,0
1,64,0,0
1,67,53,120
1,69,53,0
1,69,0,120
1,67,0,0
1,67,53,120
1,69,53,0
1,69,0,120
1,67,0,0
1,65,58,0
1,77,53,240
1,69,47,0
1,69,0,240
1,77,0,0
1,65,0,0
1,64,58,0
1,67,44,240
1,76,49,0
1,69,44,0
1,69,0,240
1,64,0,0
1,67,0,0
1,76,0,0
1,65,59,0
1,77,52,240
1,69,46,0
1,69,0,240
1,77,0,0
1,65,0,0
1,67,65,0
1,73,46,240
1,81,53,0
1,81,0,240
1,73,0,0
1,67,0,0
1,65,62,0
1,77,55,240
1,69,48,0
1,69,0,240
1,77,0,0
1,65,0,0
1,64,66,0
1,69,50,240
1,76,57,0
1,67,50,0
1,67,0,240
1,64,0,0
1,69,0,0
1,76,0,0
1,65,66,0
1,77,57,240
1,69,50,0
1,69,0,240
1,77,0,0
1,65,0,0
1,69,70,0
1,78,50,240
1,83,57,0
1,83,0,240
1,78,0,0
1,69,0,0
1,67,67,0
1,79,59,240
1,71,53,0
1,71,0,240
1,79,0,0
1,67,0,0
1,66,71,0
1,71,57,240
1,78,64,0
1,69,57,0
1,69,0,240
1,66,0,0
1,71,0,0
1,78,0,0
1,67,74,0
1,79,64,240
1,71,58,0
1,71,0,240
1,79,0,0
1,67,0,0
1,71,76,0
1,80,58,240
1,85,65,0
1,85,0,240
1,80,0,0
1,71,0,0
1,69,75,0
1,81,67,240
1,73,60,0
1,73,0,240
1,81,0,0
1,69,0,0
1,72,82,0
1,81,60,240
1,86,69,0
1,86,0,240
1,81,0,0
1,72,0,0
1,71,78,0
1,83,72,240
1,74,65,0
1,74,0,240
1,83,0,0
1,71,0,0
1,72,83,0
1,81,61,240
1,86,70,0
1,86,0,240
1,81,0,0
1,72,0,0
1,71,79,0
1,83,70,240
1,74,61,0
1,74,0,240
1,83,0,0
1,71,0,0
1,88,86,0
1,88,0,60
1,86,74,60
1,86,0,60
1,82,80,60
1,82,0,60
1,81,72,60
1,81,0,60
1,79,77,60
1,79,0,120
1,64,74,360
1,64,0,60
1,62,63,60
1,62,0,60
1,58,70,60
1,58,0,60
1,57,64,60
1,57,0,60
1,55,75,60
1,55,0,120
1,62,72,840
1,64,72,0
1,64,0,720
1,62,0,0
1,61,80,0
1,64,80,0
1,69,80,0
1,69,0,180
1,64,0,0
1,61,0,0
1,62,86,60
1,69,86,0
1,74,86,0
1,74,0,240
1,69,0,0
1,62,0,0
1,78,78,240
1,78,0,60
1,76,71,60
1,76,0,60
1,74,73,60
1,74,0,60
1,73,68,60
1,73,0,60
1,71,75,60
1,71,0,240
1,73,66,0
1,73,0,240
1,61,77,0
1,70,69,240
1,66,69,0
1,66,0,240
1,70,0,0
1,61,0,0
1,62,77,0
1,71,69,240
1,66,69,0
1,66,0,240
1,71,0,0
1,62,0,0
1,61,71,0
1,73,52,120
1,73,0,120
1,67,59,0
1,67,0,120
1,71,55,0
1,71,0,120
1,61,0,0
1,62,66,0
1,74,59,120
1,74,0,120
1,66,62,0
1,66,0,120
1,71,59,0
1,71,0,120
1,62,0,0
1,67,73,0
1,79,60,120
1,79,0,120
1,71,66,0
1,71,0,120
1,76,59,0
1,76,0,120
1,67,0,0
1,66,70,0
1,78,53,120
1,78,0,120
1,71,58,0
1,71,0,120
1,74,52,0
1,74,0,120
1,66,0,0
1,78,73,0
1,78,0,60
1,76,67,60
1,76,0,60
1,74,70,60
1,74,0,60
1,73,63,60
1,73,0,60
1,71,75,60
1,71,0,240
1,73,66,0
1,73,0,240
1,61,77,0
1,70,69,240
1,66,69,0
1,66,0,240
1,70,0,0
1,61,0,0
1,62,77,0
1,71,69,240
1,66,69,0
1,66,0,240
1,71,0,0
1,62,0,0
1,61,71,0
1,73,52,120
1,73,0,120
1,67,59,0
1,67,0,120
1,71,55,0
1,71,0,120
1,61,0,0
1,62,66,0
1,74,59,120
1,74,0,120
1,66,62,0
1,66,0,120
1,71,59,0
1,71,0,120
1,62,0,0
1,67,73,0
1,79,60,120
1,79,0,120
1,71,66,0
1,71,0,120
1,76,59,0
1,76,0,120
1,67,0,0
1,66,70,0
1,78,53,120
1,78,0,120
1,71,58,0
1,71,0,120
1,74,52,0
1,74,0,120
1,66,0,0
1,59,48,240
1,62,48,0
1,62,0,480
1,59,0,0
1,59,52,0
1,62,52,0
1,62,0,480
1,59,0,0
1,59,51,0
1,62,51,0
1,62,0,480
1,59,0,0
1,59,44,0
1,62,44,0
1,62,0,60
1,59,0,0
1,71,64,180
1,71,0,60
1,70,58,60
1,70,0,60
1,69,60,60
1,69,0,60
1,68,55,60
1,68,0,60
1,67,62,60
1,67,0,60
1,68,63,180
1,68,0,240
1,73,72,0
1,73,0,240
1,71,60,0
1,71,0,240
1,63,62,0
1,63,0,240
1,64,56,0
1,64,0,60
1,61,48,420
1,64,48,0
1,64,0,480
1,61,0,0
1,61,52,0
1,64,52,0
1,64,0,480
1,61,0,0
1,61,51,0
1,64,51,0
1,64,0,480
1,61,0,0
1,61,44,0
1,64,44,0
1,64,0,120
1,61,0,0
1,73,64,120
1,73,0,60
1,72,58,60
1,72,0,60
1,71,60,60
1,71,0,60
1,70,55,60
1,70,0,60
1,69,62,60
1,69,0,60
1,70,63,180
1,70,0,240
1,74,72,0
1,74,0,240
1,73,60,0
1,73,0,240
1,65,62,0
1,65,0,240
1,66,56,0
1,66,0,60
1,71,83,180
1,71,0,60
1,73,74,60
1,73,0,60
1,74,80,60
1,74,0,60
1,76,73,60
1,76,0,60
1,78,85,60
1,78,0,60
1,74,70,180
1,71,70,0
1,67,70,0
1,79,80,0
1,79,0,180
1,74,0,0
1,71,0,0
1,67,0,0
1,65,84,60
1,77,78,240
1,77,0,240
1,65,0,0
1,66,85,0
1,78,77,240
1,78,0,240
1,66,0,0
1,71,83,0
1,71,0,60
1,73,77,60
1,73,0,60
1,74,80,60
1,74,0,60
1,76,75,60
1,76,0,60
1,78,85,60
1,78,0,60
1,67,70,180
1,71,70,0
1,74,70,0
1,79,80,0
1,79,0,180
1,67,0,0
1,71,0,0
1,74,0,0
1,65,84,60
1,77,78,240
1,77,0,240
1,65,0,0
1,66,85,0
1,78,77,240
1,78,0,240
1,66,0,0
1,74,83,0
1,74,0,60
1,76,74,60
1,76,0,60
1,78,80,60
1,78,0,60
1,79,75,60
1,79,0,60
1,81,85,60
1,81,0,60
1,70,71,180
1,82,81,0
1,77,71,0
1,74,71,0
1,74,0,180
1,70,0,0
1,82,0,0
1,77,0,0
1,68,84,60
1,80,78,240
1,80,0,240
1,68,0,0
1,69,85,0
1,81,77,240
1,81,0,240
1,69,0,0
1,74,83,0
1,74,0,60
1,76,75,60
1,76,0,60
1,78,80,60
1,78,0,60
1,79,75,60
1,79,0,60
1,81,85,60
1,81,0,60
1,77,71,180
1,82,81,0
1,70,71,0
1,74,71,0
1,74,0,180
1,77,0,0
1,82,0,0
1,70,0,0
1,68,84,60
1,80,78,240
1,80,0,240
1,68,0,0
1,69,85,0
1,81,77,240
1,81,0,240
1,69,0,0
1,68,84,0
1,80,78,240
1,80,0,240
1,68,0,0
1,69,85,0
1,81,77,240
1,81,0,240
1,69,0,0
1,70,84,0
1,82,78,240
1,82,0,240
1,70,0,0
1,64,85,0
1,76,77,240
1,76,0,240
1,64,0,0
1,67,84,0
1,79,78,240
1,79,0,240
1,67,0,0
1,58,85,0
1,70,77,240
1,70,0,240
1,58,0,0
1,62,84,0
1,74,78,240
1,74,0,240
1,62,0,0
1,57,85,0
1,69,77,240
1,69,0,240
1,57,0,0
1,51,69,480
1,52,61,120
1,51,0,20
1,56,66,100
1,52,0,20
1,57,60,100
1,56,0,20
1,57,0,100
1,63,72,480
1,64,64,120
1,63,0,20
1,68,70,100
1,64,0,20
1,69,64,100
1,68,0,20
1,69,0,100
1,75,74,480
1,76,64,120
1,75,0,20
1,80,74,100
1,76,0,20
1,81,69,100
1,80,0,20
1,81,0,100
1,87,77,480
1,88,67,120
1,87,0,20
1,92,75,100
1,88,0,20
1,93,67,100
1,92,0,20
1,93,0,100
1,81,88,1
1,74,79,0
1,78,79,0
1,78,0,239
1,74,0,0
1,69,72,0
1,69,0,240
1,81,0,0
1,74,75,0
1,70,75,0
1,76,84,0
1,70,0,240
1,74,0,0
1,64,70,0
1,64,0,240
1,76,0,0
1,78,79,0
1,74,79,0
1,81,88,0
1,74,0,240
1,78,0,0
1,69,74,0
1,69,0,240
1,81,0,0
1,74,75,0
1,70,75,0
1,76,84,0
1,70,0,240
1,74,0,0
1,64,70,0
1,64,0,240
1,76,0,0
1,74,72,0
1,74,0,60
1,76,67,60
1,76,0,60
1,74,70,60
1,74,0,60
1,76,66,60
1,76,0,60
1,78,72,60
1,78,0,120
1,78,68,120
1,78,0,120
1,74,66,120
1,67,66,0
1,76,73,0
1,76,0,240
1,79,69,0
1,79,0,240
1,67,0,0
1,74,0,0
1,73,64,0
1,76,72,0
1,73,0,240
1,69,68,0
1,69,0,240
1,76,0,0
1,81,88,0
1,74,79,0
1,78,79,0
1,78,0,240
1,74,0,0
1,69,73,0
1,69,0,240
1,81,0,0
1,76,84,0
1,70,75,0
1,74,75,0
1,74,0,240
1,70,0,0
1,64,70,0
1,64,0,240
1,76,0,0
1,81,88,0
1,74,79,0
1,78,79,0
1,78,0,240
1,74,0,0
1,69,73,0
1,69,0,240
1,81,0,0
1,76,84,0
1,70,75,0
1,74,75,0
1,74,0,240
1,70,0,0
1,64,69,0
1,64,0,240
1,76,0,0
1,74,77,0
1,74,0,60
1,76,71,60
1,76,0,60
1,74,77,60
1,74,0,60
1,76,70,60
1,76,0,60
1,78,80,60
1,78,0,120
1,78,72,120
1,78,0,120
1,74,80,120
1,76,80,0
1,76,0,60
1,74,0,0
1,78,81,60
1,78,0,60
1,79,83,60
1,79,0,60
1,81,85,60
1,81,0,60
1,82,86,60
1,82,0,240
1,61,42,360
1,63,42,0
1,63,0,120
1,61,0,0
1,61,42,120
1,63,42,0
1,63,0,120
1,61,0,0
1,60,47,0
1,72,42,240
1,63,42,0
1,63,0,240
1,72,0,0
1,60,0,0
1,63,46,120
1,65,46,0
1,65,0,120
1,63,0,0
1,63,46,120
1,65,46,0
1,65,0,120
1,63,0,0
1,62,52,0
1,74,47,240
1,65,41,0
1,65,0,240
1,74,0,0
1,62,0,0
1,62,49,0
1,65,38,240
1,74,41,0
1,67,38,0
1,67,0,240
1,62,0,0
1,65,0,0
1,74,0,0
1,63,50,0
1,75,43,240
1,67,38,0
1,67,0,240
1,75,0,0
1,63,0,0
1,65,54,0
1,71,38,240
1,79,43,0
1,79,0,240
1,71,0,0
1,65,0,0
1,63,53,0
1,75,45,240
1,67,40,0
1,67,0,240
1,75,0,0
1,63,0,0
1,65,47,120
1,67,47,0
1,67,0,120
1,65,0,0
1,65,48,120
1,67,48,0
1,67,0,120
1,65,0,0
1,64,53,0
1,76,48,240
1,67,43,0
1,67,0,240
1,76,0,0
1,64,0,0
1,67,53,120
1,69,53,0
1,69,0,120
1,67,0,0
1,67,53,120
1,69,53,0
1,69,0,120
1,67,0,0
1,65,58,0
1,77,53,240
1,69,47,0
1,69,0,240
1,77,0,0
1,65,0,0
1,64,58,0
1,67,44,240
1,76,49,0
1,69,44,0
1,69,0,240
1,64,0,0
1,67,0,0
1,76,0,0
1,65,59,0
1,77,52,240
1,69,46,0
1,69,0,240
1,77,0,0
1,65,0,0
1,67,65,0
1,73,46,240
1,81,53,0
1,81,0,240
1,73,0,0
1,67,0,0
1,65,62,0
1,77,55,240
1,69,48,0
1,69,0,240
1,77,0,0
1,65,0,0
1,64,66,0
1,67,50,240
1,76,57,0
1,69,50,0
1,69,0,240
1,64,0,0
1,67,0,0
1,76,0,0
1,65,66,0
1,77,57,240
1,69,50,0
1,69,0,240
1,77,0,0
1,65,0,0
1,69,70,0
1,78,50,240
1,83,57,0
1,83,0,240
1,78,0,0
1,69,0,0
1,67,67,0
1,79,59,240
1,71,53,0
1,71,0,240
1,79,0,0
1,67,0,0
1,66,71,0
1,71,57,240
1,78,64,0
1,69,57,0
1,69,0,240
1,66,0,0
1,71,0,0
1,78,0,0
1,67,74,0
1,79,64,240
1,71,58,0
1,71,0,240
1,79,0,0
1,67,0,0
1,71,76,0
1,80,58,240
1,85,65,0
1,85,0,240
1,80,0,0
1,71,0,0
1,69,75,0
1,81,67,240
1,73,60,0
1,73,0,240
1,81,0,0
1,69,0,0
1,72,82,0
1,81,60,240
1,86,69,0
1,86,0,240
1,81,0,0
1,72,0,0
1,71,78,0
1,83,72,240
1,74,65,0
1,74,0,240
1,83,0,0
1,71,0,0
1,72,83,0
1,81,61,240
1,86,70,0
1,86,0,240
1,81,0,0
1,72,0,0
1,71,79,0
1,83,70,240
1,74,61,0
1,74,0,240
1,83,0,0
1,71,0,0
1,88,86,0
1,88,0,60
1,86,74,60
1,86,0,60
1,82,78,60
1,82,0,60
1,81,75,60
1,81,0,60
1,79,77,60
1,79,0,120
1,64,74,360
1,64,0,60
1,62,64,60
1,62,0,60
1,58,71,60
1,58,0,60
