track,note,velocity,time
1,62,40,2100
1,66,45,30
1,74,50,30
1,74,0,480
1,71,51,0
1,62,37,180
1,67,39,30
1,71,0,30
1,62,0,0
1,66,0,0
1,71,55,0
1,71,0,600
1,62,0,0
1,67,0,0
1,62,40,60
1,69,42,30
1,74,53,30
1,74,0,480
1,71,53,0
1,62,36,180
1,67,39,30
1,71,0,30
1,62,0,0
1,69,0,0
1,71,52,0
1,71,0,720
1,62,0,0
1,67,0,0
1,66,52,0
1,76,63,0
1,76,0,480
1,74,60,0
1,74,0,240
1,66,0,0
1,67,52,0
1,74,59,0
1,74,0,720
1,67,0,0
1,70,52,0
1,79,66,0
1,79,0,240
1,78,58,0
1,78,0,240
1,76,56,0
1,76,0,240
1,70,0,0
1,69,48,0
1,69,0,720
1,74,60,0
1,66,48,0
1,74,0,240
1,69,56,0
1,69,0,240
1,72,58,0
1,72,0,240
1,66,0,0
1,72,57,0
1,66,50,0
1,66,0,480
1,72,0,0
1,67,49,0
1,71,55,0
1,71,0,240
1,67,0,0
1,64,52,0
1,69,52,0
1,64,0,240
1,57,51,0
1,57,0,240
1,64,53,0
1,64,0,240
1,69,0,0
1,69,55,0
1,64,55,0
1,64,0,480
1,62,53,0
1,62,0,120
1,62,40,60
1,66,45,30
1,69,0,30
1,74,55,0
1,74,0,480
1,71,51,0
1,62,37,180
1,67,39,30
1,71,0,30
1,62,0,0
1,66,0,0
1,71,52,0
1,71,0,600
1,62,0,0
1,67,0,0
1,62,40,60
1,69,42,30
1,74,53,30
1,74,0,480
1,71,53,0
1,62,36,180
1,67,39,30
1,71,0,30
1,62,0,0
1,69,0,0
1,71,50,0
1,71,0,720
1,62,0,0
1,67,0,0
1,66,52,0
1,76,63,0
1,76,0,480
1,74,60,0
1,74,0,240
1,66,0,0
1,74,62,0
1,67,53,0
1,67,0,720
1,74,0,0
1,70,52,0
1,79,66,0
1,79,0,240
1,76,55,0
1,76,0,240
1,79,57,0
1,79,0,240
1,70,0,0
1,71,58,0
1,78,62,0
1,78,0,480
1,78,56,0
1,78,0,240
1,71,0,0
1,83,62,0
1,73,53,0
1,83,0,240
1,79,60,0
1,79,0,240
1,83,57,0
1,83,0,240
1,73,0,0
1,81,61,0
1,74,51,0
1,81,0,480
1,81,55,0
1,81,0,240
1,74,0,0
1,74,49,0
1,86,55,0
1,86,0,240
1,81,53,0
1,81,0,240
1,86,53,0
1,86,0,240
1,74,0,0
1,86,57,0
1,81,50,0
1,81,0,720
1,86,0,0
1,81,39,240
1,81,0,240
1,86,39,0
1,86,0,240
1,93,44,0
1,93,0,240
1,86,42,0
1,93,42,240
1,98,45,240
1,98,0,480
1,93,0,0
1,86,0,0
1,74,57,240
1,86,57,0
1,86,0,240
1,82,55,0
1,82,0,240
1,79,52,0
1,79,0,240
1,77,53,0
1,77,0,240
1,81,49,0
1,81,0,240
1,79,49,0
1,79,0,240
1,77,52,0
1,77,0,720
1,74,0,0
1,62,57,2160
1,74,57,0
1,74,0,240
1,70,55,0
1,70,0,240
1,67,52,0
1,67,0,240
1,65,53,0
1,65,0,240
1,69,49,0
1,69,0,240
1,67,46,0
1,67,0,240
1,65,51,0
1,65,0,720
1,62,0,0
1,57,55,2160
1,62,55,0
1,62,0,480
1,59,51,0
1,59,0,240
1,57,0,0
1,59,48,0
1,55,48,0
1,55,0,720
1,59,0,0
1,57,51,0
1,62,51,0
1,62,0,480
1,59,51,0
1,59,0,240
1,57,0,0
1,55,41,0
1,59,46,0
1,59,0,720
1,54,50,0
1,64,57,0
1,55,0,30
1,64,0,450
1,62,53,0
1,62,0,240
1,54,0,0
1,62,59,0
1,55,53,0
1,55,0,720
1,62,0,0
1,58,59,0
1,67,66,0
1,67,0,240
1,66,63,0
1,66,0,240
1,64,62,0
1,64,0,240
1,58,0,0
1,57,60,0
1,57,0,960
1,59,52,0
1,59,0,240
1,60,56,0
1,60,0,240
1,60,58,0
1,60,0,480
1,59,55,0
1,59,0,240
1,59,55,0
1,59,0,1440
1,59,57,0
1,59,0,480
1,57,53,0
1,57,0,240
1,57,52,0
1,57,0,1440
1,57,49,0
1,57,0,240
1,59,46,0
1,59,0,240
1,60,46,0
1,60,0,240
1,54,42,0
1,60,48,0
1,60,0,480
1,59,42,0
1,59,0,240
1,54,0,0
1,55,38,0
1,59,42,0
1,59,0,600
1,55,0,0
1,71,70,120
1,67,52,360
1,67,0,120
1,71,0,0
1,70,62,0
1,66,57,360
1,66,0,120
1,70,0,0
1,74,73,0
1,74,0,240
1,64,57,0
1,66,57,0
1,73,67,0
1,73,0,240
1,66,0,0
1,64,0,0
1,62,51,0
1,66,51,0
1,71,61,0
1,71,0,240
1,66,0,0
1,62,0,0
1,71,70,240
1,67,55,360
1,67,0,120
1,71,0,0
1,70,62,0
1,66,57,360
1,66,0,120
1,70,0,0
1,78,74,0
1,78,0,240
1,76,71,0
1,76,0,240
1,71,56,0
1,76,70,0
1,71,0,120
1,72,57,0
1,72,0,120
1,76,0,0
1,71,52,0
1,75,62,0
1,71,0,120
1,66,51,0
1,66,0,120
1,75,0,0
1,71,70,0
1,67,55,360
1,67,0,120
1,71,0,0
1,70,62,0
1,66,57,360
1,66,0,120
1,70,0,0
1,74,73,0
1,74,0,240
1,64,57,0
1,66,57,0
1,73,67,0
1,73,0,240
1,66,0,0
1,64,0,0
1,62,51,0
1,66,51,0
1,71,61,0
1,71,0,240
1,66,0,0
1,62,0,0
1,71,70,240
1,67,55,360
1,67,0,120
1,71,0,0
1,70,62,0
1,66,57,360
1,66,0,120
1,70,0,0
1,78,72,0
1,78,0,240
1,76,71,0
1,76,0,240
1,71,56,0
1,76,70,0
1,71,0,120
1,72,56,0
1,72,0,120
1,76,0,0
1,71,52,0
1,75,62,0
1,71,0,120
1,66,51,0
1,66,0,120
1,75,0,0
1,79,79,0
1,67,52,240
1,67,0,120
1,71,48,0
1,71,0,120
1,79,0,0
1,78,77,0
1,66,50,240
1,66,0,120
1,71,47,0
1,71,0,120
1,78,0,0
1,77,77,0
1,77,0,240
1,71,49,0
1,73,50,0
1,80,67,0
1,80,0,240
1,73,0,0
1,71,0,0
1,71,60,0
1,73,71,0
1,71,0,240
1,69,57,0
1,69,0,240
1,73,0,0
1,78,77,0
1,66,52,240
1,66,0,120
1,69,48,0
1,69,0,120
1,78,0,0
1,76,75,0
1,64,50,240
1,64,0,120
1,69,46,0
1,69,0,120
1,76,0,0
1,75,79,0
1,75,0,240
1,69,49,0
1,71,50,0
1,78,69,0
1,78,0,240
1,71,0,0
1,69,0,0
1,69,60,0
1,71,71,0
1,69,0,240
1,67,57,0
1,67,0,240
1,71,0,0
1,76,75,0
1,64,52,240
1,64,0,120
1,67,48,0
1,67,0,120
1,76,0,0
1,74,73,0
1,62,50,240
1,62,0,120
1,67,47,0
1,67,0,120
1,74,0,0
1,74,72,0
1,74,0,240
1,61,41,0
1,67,42,0
1,73,67,0
1,73,0,240
1,67,0,0
1,61,0,0
1,64,51,0
1,67,51,0
1,71,59,0
1,71,0,240
1,67,0,0
1,64,0,0
1,69,57,0
1,69,0,240
1,67,59,0
1,61,46,360
1,61,0,120
1,67,0,0
1,66,57,0
1,62,46,360
1,62,0,120
1,66,0,0
1,73,60,0
1,73,0,240
1,62,36,0
1,66,39,0
1,71,49,0
1,71,0,240
1,66,0,0
1,62,0,0
1,69,55,0
1,69,0,240
1,69,62,240
1,63,49,360
1,63,0,120
1,69,0,0
1,67,60,0
1,64,49,360
1,64,0,120
1,67,0,0
1,76,66,0
1,76,0,240
1,64,45,0
1,67,45,0
1,74,53,0
1,74,0,240
1,67,0,0
1,64,0,0
1,74,61,0
1,74,0,240
1,73,57,0
1,73,0,240
1,67,59,0
1,61,46,360
1,61,0,120
1,67,0,0
1,66,57,0
1,62,46,360
1,62,0,120
1,66,0,0
1,73,58,0
1,73,0,240
1,62,36,0
1,66,39,0
1,71,49,0
1,71,0,240
1,66,0,0
1,62,0,0
1,69,55,0
1,69,0,240
1,69,60,240
1,63,49,360
1,63,0,120
1,69,0,0
1,67,60,0
1,64,51,360
1,64,0,120
1,67,0,0
1,76,64,0
1,76,0,240
1,64,45,0
1,67,45,0
1,74,53,0
1,74,0,240
1,67,0,0
1,64,0,0
1,73,61,0
1,73,0,240
1,72,71,240
1,62,49,240
1,69,59,0
1,69,0,240
1,62,0,0
1,72,0,0
1,71,72,0
1,62,52,240
1,67,62,0
1,67,0,240
1,62,0,0
1,71,0,0
1,74,74,0
1,64,53,240
1,71,63,0
1,71,0,240
1,64,0,0
1,74,0,0
1,73,74,0
1,64,53,240
1,69,63,0
1,69,0,240
1,64,0,0
1,73,0,0
1,73,78,0
1,65,56,240
1,71,67,0
1,71,0,240
1,65,0,0
1,73,0,0
1,73,80,0
1,65,58,240
1,71,69,0
1,71,0,240
1,65,0,0
1,73,0,0
1,70,73,0
1,66,73,0
1,78,86,0
1,78,0,480
1,73,85,0
1,73,0,480
1,66,0,0
1,70,0,0
1,70,60,0
1,65,60,0
1,73,80,0
1,73,0,240
1,75,80,0
1,75,0,240
1,73,81,0
1,73,0,480
1,65,0,0
1,70,0,0
1,70,73,0
1,66,73,0
1,78,86,0
1,78,0,480
1,73,84,0
1,73,0,480
1,66,0,0
1,70,0,0
1,70,60,0
1,65,60,0
1,73,80,0
1,73,0,240
1,75,80,0
1,75,0,240
1,73,81,0
1,73,0,480
1,65,0,0
1,70,0,0
1,66,82,0
1,70,55,240
1,73,64,0
1,73,0,240
1,70,0,0
1,66,0,0
1,61,72,0
1,70,56,240
1,66,46,0
1,66,0,240
1,70,0,0
1,61,0,0
1,61,75,0
1,61,0,240
1,68,52,0
1,71,52,0
1,63,70,0
1,63,0,240
1,61,72,0
1,61,0,480
1,71,0,0
1,68,0,0
1,66,73,0
1,70,49,240
1,73,58,0
1,73,0,240
1,70,0,0
1,66,0,0
1,61,64,0
1,70,49,240
1,66,40,0
1,66,0,240
1,70,0,0
1,61,0,0
1,61,68,0
1,61,0,240
1,68,47,0
1,71,47,0
1,63,62,0
1,63,0,240
1,61,64,0
1,61,0,480
1,71,0,0
1,68,0,0
1,66,66,0
1,70,44,240
1,73,51,0
1,73,0,240
1,70,0,0
1,66,0,0
1,61,58,0
1,70,44,240
1,66,36,0
1,66,0,240
1,70,0,0
1,61,0,0
1,66,59,0
1,73,46,240
1,70,39,0
1,70,0,240
1,73,0,0
1,66,0,0
1,61,51,0
1,66,31,240
1,70,39,0
1,70,0,240
1,66,0,0
1,61,0,0
1,71,70,0
1,67,52,360
1,67,0,120
1,71,0,0
1,70,62,0
1,66,57,360
1,66,0,120
1,70,0,0
1,74,73,0
1,74,0,240
1,64,57,0
1,66,57,0
1,73,67,0
1,73,0,240
1,66,0,0
1,64,0,0
1,62,51,0
1,66,51,0
1,71,61,0
1,71,0,240
1,66,0,0
1,62,0,0
1,71,70,240
1,67,55,360
1,67,0,120
1,71,0,0
1,70,62,0
1,66,57,360
1,66,0,120
1,70,0,0
1,78,74,0
1,78,0,240
1,76,71,0
1,76,0,240
1,71,56,0
1,76,70,0
1,71,0,120
1,72,57,0
1,72,0,120
1,76,0,0
1,71,52,0
1,75,62,0
1,71,0,120
1,66,51,0
1,66,0,120
1,75,0,0
1,79,79,0
1,71,42,360
1,71,0,120
1,79,0,0
1,78,77,0
1,71,44,360
1,71,0,120
1,78,0,0
1,78,75,0
1,78,0,240
1,66,52,0
1,76,67,0
1,66,0,120
1,69,48,0
1,69,0,120
1,76,0,0
1,74,71,0
1,67,40,360
1,67,0,120
1,74,0,0
1,76,77,0
1,69,42,360
1,69,0,120
1,76,0,0
1,74,73,0
1,67,44,360
1,67,0,120
1,74,0,0
1,74,77,0
1,74,0,240
1,62,52,0
1,72,67,0
1,62,0,120
1,69,48,0
1,69,0,120
1,72,0,0
1,71,67,0
1,62,40,360
1,67,40,0
1,67,0,120
1,62,0,0
1,71,0,0
1,67,62,0
1,61,42,360
1,61,0,120
1,67,0,0
1,66,61,0
1,66,0,240
1,67,58,0
1,61,36,120
1,61,0,120
1,67,0,0
1,71,62,0
1,62,42,360
1,62,0,120
1,71,0,0
1,69,59,0
1,62,36,360
1,62,0,120
1,69,0,0
1,63,56,0
1,63,0,360
1,60,36,0
1,60,0,120
1,62,52,0
1,62,0,240
1,51,56,240
1,51,0,360
1,48,35,0
1,48,0,120
1,50,53,0
1,50,0,240
1,61,47,720
1,61,0,120
1,62,40,0
1,62,0,120
1,66,45,0
1,66,0,120
1,69,40,0
1,69,0,120
1,62,40,420
1,66,45,30
1,74,53,30
1,74,0,480
1,71,51,0
1,62,37,180
1,67,39,30
1,71,0,30
1,62,0,0
1,66,0,0
1,71,55,0
1,71,0,600
1,62,0,0
1,67,0,0
1,62,40,60
1,69,42,30
1,74,53,30
1,74,0,480
1,71,53,0
1,62,36,180
1,67,39,30
1,71,0,30
1,62,0,0
1,69,0,0
1,71,52,0
1,71,0,720
1,62,0,0
1,67,0,0
1,66,52,0
1,76,63,0
1,76,0,480
1,74,60,0
1,74,0,240
1,66,0,0
1,74,59,0
1,67,52,0
1,67,0,720
1,74,0,0
1,70,52,0
1,79,66,0
1,79,0,240
1,78,60,0
1,78,0,240
1,76,57,0
1,76,0,240
1,70,0,0
1,69,48,0
1,69,0,720
1,74,60,0
1,66,48,0
1,74,0,240
1,69,56,0
1,69,0,240
1,72,58,0
1,72,0,240
1,66,0,0
1,72,57,0
1,66,50,0
1,66,0,480
1,72,0,0
1,67,49,0
1,71,55,0
1,71,0,240
1,67,0,0
1,64,52,0
1,69,52,0
1,64,0,240
1,57,51,0
1,57,0,240
1,64,53,0
1,64,0,240
1,69,0,0
1,69,55,0
1,64,55,0
1,64,0,480
1,62,53,0
1,62,0,120
1,62,40,60
1,66,45,30
1,69,0,30
1,74,55,0
1,74,0,480
1,71,51,0
1,62,37,180
1,67,39,30
1,71,0,30
1,62,0,0
1,66,0,0
1,71,52,0
1,71,0,600
1,62,0,0
1,67,0,0
1,62,40,60
1,69,42,30
1,74,53,30
1,74,0,480
1,71,53,0
1,62,36,180
1,67,39,30
1,71,0,30
1,62,0,0
1,69,0,0
1,71,50,0
1,71,0,720
1,62,0,0
1,67,0,0
1,66,52,0
1,76,63,0
1,76,0,480
1,74,60,0
1,74,0,240
1,66,0,0
1,74,62,0
1,67,53,0
1,67,0,720
1,74,0,0
1,70,52,0
1,79,66,0
1,79,0,240
1,76,61,0
1,76,0,240
1,79,62,0
1,79,0,240
1,70,0,0
1,71,58,0
1,78,62,0
1,78,0,480
1,78,56,0
1,78,0,240
1,71,0,0
1,83,62,0
1,73,53,0
1,83,0,240
1,79,60,0
1,79,0,240
1,83,57,0
1,83,0,240
1,73,0,0
1,74,51,0
1,81,61,0
1,81,0,480
1,81,55,0
1,81,0,240
1,74,0,0
1,74,49,0
1,86,55,0
1,86,0,240
1,81,53,0
1,81,0,240
1,86,53,0
1,86,0,240
1,74,0,0
1,86,57,0
1,81,50,0
1,81,0,720
1,86,0,0
1,81,39,240
1,81,0,240
1,86,39,0
1,86,0,240
1,93,44,0
1,93,0,240
1,86,42,0
1,93,42,240
1,98,44,240
1,98,0,480
1,93,0,0
1,86,0,0
1,74,57,240
1,86,57,0
1,86,0,240
1,82,55,0
1,82,0,240
1,79,52,0
1,79,0,240
1,77,53,0
1,77,0,240
1,81,49,0
1,81,0,240
1,79,49,0
1,79,0,240
1,77,52,0
1,77,0,720
1,74,0,0
1,62,57,2160
1,74,57,0
1,74,0,240
1,70,55,0
1,70,0,240
1,67,52,0
1,67,0,240
1,65,53,0
1,65,0,240
1,69,49,0
1,69,0,240
1,67,49,0
1,67,0,240
1,65,51,0
1,65,0,720
1,62,0,0
1,57,55,2160
1,62,55,0
1,62,0,480
1,59,51,0
1,59,0,240
1,57,0,0
1,55,48,0
1,59,48,0
1,59,0,720
1,55,0,0
1,57,51,0
1,62,51,0
1,62,0,480
1,59,51,0
1,59,0,240
1,57,0,0
