track,note,velocity,time
3,50,123,4970
3,50,0,60
3,59,127,0
3,59,0,60
3,59,127,0
3,59,0,120
3,57,127,0
3,57,0,120
3,59,127,0
3,59,0,60
3,59,127,0
3,59,0,60
3,57,111,0
3,57,0,60
3,50,127,180
3,50,0,60
3,55,127,0
3,55,0,60
3,57,122,0
3,57,0,60
3,59,127,0
3,59,0,180
3,62,127,0
3,62,0,60
3,59,127,0
3,59,0,30
3,57,116,0
3,57,0,30
3,55,111,0
3,55,0,60
3,55,127,60
3,55,0,60
3,52,127,0
3,52,0,360
3,50,127,240
3,50,0,60
3,50,127,0
3,50,0,60
3,55,127,0
3,55,0,120
3,57,127,0
3,57,0,60
3,59,127,0
3,59,0,180
3,57,127,0
3,57,0,60
3,55,127,0
3,55,0,240
3,57,127,0
3,57,0,60
3,59,127,0
3,59,0,60
3,57,127,0
3,57,0,120
3,55,127,0
3,55,0,60
3,57,127,0
3,57,0,180
3,59,122,0
3,59,0,60
3,54,127,0
3,54,0,30
3,52,118,0
3,52,0,30
3,50,120,0
3,50,0,420
3,59,127,60
3,59,0,60
3,62,127,0
3,62,0,60
3,59,125,0
3,59,0,60
3,64,127,0
3,64,0,120
3,62,127,0
3,62,0,60
3,59,127,0
3,59,0,60
3,62,127,0
3,62,0,60
3,59,127,0
3,59,0,180
3,50,127,60
3,50,0,60
3,55,127,0
3,55,0,60
3,57,125,0
3,57,0,60
3,59,127,0
3,59,0,30
3,57,122,0
3,57,0,30
3,55,127,0
3,55,0,120
3,59,124,0
3,59,0,60
3,60,127,0
3,60,0,120
3,60,127,0
3,60,0,60
3,60,127,0
3,60,0,120
3,57,122,0
3,57,0,30
3,55,99,0
3,55,0,30
3,57,127,300
3,57,0,60
3,59,127,0
3,59,0,120
3,59,127,60
3,59,0,60
3,59,127,0
3,59,0,60
3,57,127,0
3,57,0,60
3,57,127,60
3,57,0,60
3,57,127,0
3,57,0,60
3,54,117,0
3,54,0,30
3,52,127,0
3,52,0,30
3,50,127,0
3,50,0,240
3,50,127,60
3,50,0,60
3,59,127,0
3,59,0,180
3,62,127,0
3,62,0,60
3,59,127,0
3,59,0,30
3,57,116,0
3,57,0,30
3,55,127,0
3,55,0,120
3,55,127,0
3,55,0,60
3,52,127,0
3,52,0,720
3,59,127,300
3,59,0,60
3,62,127,0
3,62,0,60
3,62,127,0
3,62,0,60
3,62,127,0
3,62,0,80
3,62,127,0
3,62,0,80
3,62,127,0
3,62,0,80
3,62,127,0
3,62,0,60
3,59,127,0
3,59,0,60
3,57,125,0
3,57,0,120
3,50,127,60
3,50,0,60
3,55,127,0
3,55,0,60
3,57,123,0
3,57,0,60
3,59,127,0
3,59,0,180
3,62,127,0
3,62,0,60
3,59,127,0
3,59,0,180
3,55,127,0
3,55,0,60
3,52,127,0
3,52,0,300
3,50,127,240
3,50,0,60
3,50,127,0
3,50,0,60
3,50,127,0
3,50,0,60
3,55,127,0
3,55,0,120
3,57,127,0
3,57,0,60
3,59,127,0
3,59,0,120
3,59,127,0
3,59,0,30
3,57,115,0
3,57,0,30
3,55,127,0
3,55,0,180
3,55,127,60
3,55,0,60
3,57,127,0
3,57,0,60
3,59,127,0
3,59,0,60
3,57,127,0
3,57,0,120
3,57,127,60
3,57,0,60
3,59,127,60
3,59,0,120
3,54,127,0
3,54,0,30
3,52,122,0
3,52,0,30
3,50,127,0
3,50,0,240
3,59,127,0
3,59,0,60
3,59,127,0
3,59,0,60
3,62,127,0
3,62,0,60
3,62,127,0
3,62,0,60
3,59,127,0
3,59,0,60
3,59,127,60
3,59,0,60
3,64,127,0
3,64,0,60
3,62,127,0
3,62,0,60
3,62,127,0
3,62,0,120
3,62,127,0
3,62,0,60
3,59,127,0
3,59,0,180
3,55,127,120
3,55,0,60
3,57,127,0
3,57,0,60
3,59,127,0
3,59,0,60
3,55,127,0
3,55,0,60
3,55,127,60
3,55,0,60
3,60,127,0
3,60,0,120
3,60,127,0
3,60,0,120
3,60,127,0
3,60,0,240
3,57,127,240
3,57,0,60
3,59,127,0
3,59,0,60
3,59,127,60
3,59,0,60
3,59,127,0
3,59,0,180
3,57,124,0
3,57,0,60
3,59,127,0
3,59,0,60
3,57,121,0
3,57,0,180
3,52,127,60
3,52,0,60
3,52,127,60
3,52,0,60
3,52,127,0
3,52,0,30
3,50,127,0
3,50,0,30
3,48,127,0
3,48,0,300
3,64,127,660
3,64,0,60
3,64,127,0
3,64,0,60
3,64,127,0
3,64,0,60
3,64,127,0
3,64,0,120
3,62,127,0
3,62,0,60
3,62,127,0
3,62,0,120
3,59,127,0
3,59,0,30
3,57,115,0
3,57,0,30
3,55,127,0
3,55,0,240
3,57,127,240
3,57,0,60
3,55,124,0
3,55,0,60
3,59,127,0
3,59,0,120
3,62,127,0
3,62,0,60
3,59,127,0
3,59,0,120
3,57,112,0
3,57,0,30
3,55,127,0
3,55,0,240
3,59,127,30
3,59,0,60
3,62,127,0
3,62,0,60
3,62,127,0
3,62,0,60
3,64,127,0
3,64,0,60
3,64,127,60
3,64,0,180
3,62,127,0
3,62,0,60
3,62,127,0
3,62,0,120
3,59,127,0
3,59,0,30
3,57,107,0
3,57,0,30
3,55,127,0
3,55,0,240
3,55,127,60
3,55,0,60
3,59,127,0
3,59,0,180
3,62,127,0
3,62,0,60
3,59,127,0
3,59,0,120
3,57,127,0
3,57,0,120
3,55,127,0
3,55,0,60
3,52,127,0
3,52,0,180
3,50,127,60
3,50,0,60
3,55,127,0
3,55,0,60
3,57,122,0
3,57,0,60
3,57,127,0
3,57,0,60
3,59,127,0
3,59,0,120
3,59,127,60
3,59,0,60
3,57,127,0
3,57,0,60
3,57,127,60
3,57,0,60
3,59,127,0
3,59,0,60
3,57,127,0
3,57,0,180
3,59,127,60
3,59,0,60
3,59,127,0
3,59,0,60
3,57,118,0
3,57,0,60
3,57,127,0
3,57,0,60
3,55,127,0
3,55,0,180
3,52,127,0
3,52,0,60
3,48,127,0
3,48,0,60
3,48,127,60
3,48,0,60
3,50,127,0
3,50,0,240
3,50,127,60
3,50,0,60
3,55,127,0
3,55,0,60
3,57,127,0
3,57,0,60
3,59,125,0
3,59,0,120
3,59,127,60
3,59,0,60
3,60,127,0
3,60,0,60
3,59,127,0
3,59,0,60
3,59,127,60
3,59,0,60
3,59,127,0
3,59,0,60
3,57,127,0
3,57,0,180
3,55,127,60
3,55,0,60
3,55,127,60
3,55,0,120
3,52,127,0
3,52,0,300
3,52,100,125
3,52,0,26
3,59,127,4349
3,59,0,60
3,59,127,0
3,59,0,60
3,59,127,0
3,59,0,60
3,59,127,0
3,59,0,180
3,57,127,0
3,57,0,60
3,59,127,0
3,59,0,60
3,57,127,0
3,57,0,60
3,55,127,240
3,55,0,60
3,57,117,0
3,57,0,60
3,59,127,0
3,59,0,180
3,62,127,0
3,62,0,60
3,59,127,0
3,59,0,30
3,57,123,0
3,57,0,30
3,55,127,0
3,55,0,60
3,55,127,60
3,55,0,60
3,52,127,0
3,52,0,480
3,50,127,120
3,50,0,60
3,50,127,0
3,50,0,60
3,55,127,0
3,55,0,120
3,57,127,0
3,57,0,60
3,59,127,0
3,59,0,60
3,59,127,0
3,59,0,60
3,62,127,0
3,62,0,120
3,59,127,0
3,59,0,60
3,57,127,0
3,57,0,120
3,55,127,60
3,55,0,30
3,57,127,0
3,57,0,30
3,59,116,0
3,59,0,60
3,57,127,0
3,57,0,60
3,57,127,60
3,57,0,60
3,59,127,0
3,59,0,60
3,57,127,0
3,57,0,60
3,57,127,60
3,57,0,60
3,54,127,0
3,54,0,30
3,52,127,0
3,52,0,30
3,50,127,0
3,50,0,180
3,59,127,120
3,59,0,30
3,62,127,0
3,62,0,90
3,62,127,0
3,62,0,180
3,59,127,0
3,59,0,60
3,64,127,0
3,64,0,60
3,62,127,0
3,62,0,60
3,62,127,0
3,62,0,120
3,62,127,0
3,62,0,60
3,59,127,0
3,59,0,180
3,55,127,60
3,55,0,60
3,55,127,0
3,55,0,60
3,57,127,0
3,57,0,60
3,59,127,0
3,59,0,60
3,59,127,0
3,59,0,180
3,60,127,0
3,60,0,120
3,62,127,0
3,62,0,60
3,60,127,0
3,60,0,360
3,55,127,60
3,55,0,60
3,57,125,0
3,57,0,60
3,57,127,0
3,57,0,60
3,59,127,0
3,59,0,300
3,59,127,60
3,59,0,60
3,59,127,0
3,59,0,60
3,57,127,0
3,57,0,180
3,55,127,60
3,55,0,60
3,55,127,60
3,55,0,120
3,52,127,0
3,52,0,420
3,64,127,540
3,64,0,60
3,64,127,0
3,64,0,60
3,64,127,0
3,64,0,60
3,64,127,0
3,64,0,120
3,62,127,0
3,62,0,60
3,62,127,0
3,62,0,120
3,59,127,0
3,59,0,30
3,57,105,0
3,57,0,30
3,55,127,0
3,55,0,300
3,57,127,180
3,57,0,60
3,55,125,0
3,55,0,60
3,59,127,0
3,59,0,120
3,62,127,0
3,62,0,60
3,59,127,0
3,59,0,120
3,57,127,0
3,57,0,30
3,55,127,0
3,55,0,240
3,59,127,30
3,59,0,60
3,62,127,0
3,62,0,60
3,62,127,0
3,62,0,60
3,64,125,0
3,64,0,60
3,64,127,60
3,64,0,180
3,62,127,0
3,62,0,60
3,62,127,0
3,62,0,120
3,59,127,0
3,59,0,30
3,57,105,0
3,57,0,30
3,55,127,0
3,55,0,240
3,55,127,60
3,55,0,60
3,59,127,0
3,59,0,180
3,62,127,0
3,62,0,60
3,59,127,0
3,59,0,120
3,57,127,0
3,57,0,120
3,55,127,0
3,55,0,60
3,52,127,0
3,52,0,180
3,50,127,60
3,50,0,60
3,55,127,0
3,55,0,60
3,57,124,0
3,57,0,60
3,57,127,0
3,57,0,60
3,59,127,0
3,59,0,120
3,59,127,60
3,59,0,60
3,57,127,0
3,57,0,60
3,57,127,60
3,57,0,60
3,59,127,0
3,59,0,60
3,57,127,0
3,57,0,180
3,59,127,60
3,59,0,60
3,59,127,0
3,59,0,60
3,57,125,0
3,57,0,60
3,57,127,0
3,57,0,60
3,55,127,0
3,55,0,180
3,52,127,0
3,52,0,60
3,48,127,0
3,48,0,120
3,48,127,0
3,48,0,60
3,50,127,0
3,50,0,240
3,50,127,60
3,50,0,60
3,55,127,0
3,55,0,60
3,57,127,0
3,57,0,60
3,59,127,0
3,59,0,120
3,59,127,60
3,59,0,60
3,60,127,0
3,60,0,60
3,59,127,0
3,59,0,60
3,59,127,60
3,59,0,60
3,59,127,0
3,59,0,60
3,57,127,0
3,57,0,180
3,55,127,60
3,55,0,60
3,55,127,60
3,55,0,120
3,52,127,0
3,52,0,420
3,64,127,600
3,64,127,0
3,64,0,60
3,64,0,0
3,64,127,0
3,64,0,60
3,64,127,0
3,64,0,120
3,62,127,0
3,62,0,60
3,62,127,0
3,62,0,120
3,59,124,0
3,59,0,30
3,57,112,0
3,57,0,30
3,55,127,0
3,55,0,360
3,57,127,120
3,57,0,60
3,55,127,0
3,55,0,60
3,59,127,0
3,59,0,120
3,62,127,0
3,62,0,60
3,59,127,0
3,59,0,90
3,57,106,0
3,57,0,30
3,55,122,0
3,55,0,240
3,64,127,240
3,64,0,60
3,64,127,0
3,64,0,60
3,64,127,0
3,64,0,60
3,64,127,0
3,64,0,60
3,62,127,0
3,62,0,60
3,62,127,0
3,62,0,60
3,62,127,0
3,62,0,120
3,59,120,0
3,59,0,30
3,57,123,0
3,57,0,30
3,55,127,0
3,55,0,180
3,55,127,60
3,55,0,60
3,57,122,0
3,57,0,60
3,59,122,0
3,59,0,60
3,59,127,0
3,59,0,180
3,62,127,0
3,62,0,60
3,64,127,60
3,64,0,60
3,59,127,60
3,59,0,30
3,57,115,0
3,57,0,30
3,55,127,0
3,55,0,240
3,55,127,60
3,55,0,60
3,57,127,0
3,57,0,60
3,57,127,0
3,57,0,60
3,59,127,0
3,59,0,120
3,59,127,60
3,59,0,60
3,57,127,0
3,57,0,120
3,57,127,0
3,57,0,60
3,59,127,0
3,59,0,60
3,57,127,0
3,57,0,180
3,55,127,60
3,55,0,60
3,59,127,0
3,59,0,60
3,57,125,0
3,57,0,60
3,57,127,0
3,57,0,60
3,55,127,0
3,55,0,180
3,52,127,0
3,52,0,60
3,48,127,0
3,48,0,60
3,48,127,60
3,48,0,60
3,50,127,0
3,50,0,240
3,50,127,60
3,50,0,60
3,55,127,0
3,55,0,60
3,57,120,0
3,57,0,60
3,59,127,0
3,59,0,120
3,59,127,60
3,59,0,60
3,60,127,0
3,60,0,60
3,59,127,0
3,59,0,60
3,59,127,60
3,59,0,60
3,59,127,0
3,59,0,60
3,57,127,0
3,57,0,180
3,55,127,60
3,55,0,60
3,55,127,60
3,55,0,120
3,52,127,0
3,52,0,420
3,50,127,300
3,50,0,60
3,55,127,0
3,55,0,60
3,57,127,0
3,57,0,60
3,59,127,0
3,59,0,180
3,59,127,0
3,59,0,60
3,62,127,0
3,62,0,180
3,59,127,0
3,59,0,60
3,59,127,0
3,59,0,60
3,57,127,0
3,57,0,180
3,55,127,60
3,55,0,60
3,55,127,60
3,55,0,60
3,55,127,60
3,55,0,900
5,38,114,950
5,38,0,2
5,31,108,1
5,31,0,108
5,31,107,34
5,31,0,18
5,31,111,50
5,31,0,234
5,29,107,3
5,29,0,144
5,29,111,40
5,29,0,17
5,29,108,46
5,28,92,116
5,29,0,5
5,28,0,51
5,26,103,1
5,26,0,56
5,24,111,6
5,24,0,145
5,24,122,38
5,24,0,14
5,24,120,49
5,24,0,229
5,31,114,6
5,31,0,138
5,31,83,35
5,31,0,19
5,31,113,47
5,31,0,113
5,26,113,5
5,26,0,59
5,28,99,4
5,28,0,56
5,31,108,5
5,31,0,136
5,31,103,42
5,31,0,17
5,31,108,47
5,31,0,236
5,26,113,4
5,26,0,126
5,26,115,48
5,26,0,15
5,26,115,48
5,24,120,237
5,26,0,2
5,24,0,929
5,31,106,32
5,31,0,180
5,31,103,58
5,31,0,234
5,26,107,4
5,26,0,140
5,26,104,44
5,26,0,12
5,26,110,49
5,26,0,232
5,28,102,5
5,28,0,207
5,28,104,29
5,28,0,237
5,24,114,3
5,24,0,144
5,24,117,41
5,24,0,15
5,24,113,47
5,24,0,220
5,31,117,15
5,31,0,203
5,31,108,35
5,31,0,241
5,28,108,2
5,28,0,144
5,28,104,39
5,28,0,16
5,28,98,43
5,28,0,239
5,33,108,5
5,33,0,205
5,33,115,33
5,33,0,232
5,38,110,5
5,33,99,178
5,38,0,8
5,33,0,56
5,26,107,0
5,26,0,231
5,31,106,0
5,31,0,233
5,36,106,9
5,31,98,242
5,36,0,2
5,31,0,138
5,31,108,43
5,31,0,12
5,31,114,47
5,31,0,210
5,31,111,31
5,31,0,232
5,33,98,12
5,33,0,111
5,35,103,5
5,36,111,117
5,35,0,4
5,36,0,145
5,36,118,35
5,36,0,19
5,36,111,45
5,31,102,231
5,36,0,4
5,31,0,219
5,31,106,23
5,31,0,233
5,38,110,7
5,38,0,145
5,38,115,33
5,38,0,18
5,38,108,43
5,38,0,234
5,40,110,2
5,40,0,146
5,40,114,35
5,40,0,60
5,38,111,5
5,38,0,216
5,36,115,23
5,31,114,960
5,36,0,4
5,31,0,236
5,31,110,2
5,38,106,243
5,31,0,1
5,38,0,138
5,38,118,31
5,38,0,22
5,38,110,38
5,38,0,243
5,40,118,5
5,40,0,208
5,40,120,26
5,40,0,224
5,36,115,12
5,36,0,154
5,36,117,32
5,36,0,17
5,36,114,44
5,36,0,233
5,31,113,8
5,31,0,212
5,31,111,24
5,31,0,236
5,28,113,3
5,28,0,147
5,28,111,33
5,28,0,17
5,28,87,41
5,28,0,239
5,33,98,3
5,33,0,207
5,33,110,35
5,33,0,232
5,38,102,10
5,33,93,173
5,38,0,6
5,33,0,56
5,26,106,7
5,28,92,115
5,26,0,2
5,28,0,62
5,30,104,2
5,31,103,57
5,30,0,1
5,31,0,239
5,36,111,3
5,36,0,237
5,31,111,0
5,31,0,151
5,31,110,28
5,31,0,18
5,31,111,46
5,31,0,205
