track,note,velocity,time
1,60,40,720
1,60,0,240
1,59,45,0
1,59,0,240
1,60,40,0
1,60,0,240
1,65,45,0
1,65,0,120
1,65,38,120
1,65,0,120
1,63,45,120
1,63,0,480
1,60,40,240
1,60,0,240
1,59,45,0
1,59,0,240
1,60,40,0
1,60,0,240
1,68,45,0
1,68,0,120
1,68,38,120
1,68,0,120
1,67,45,120
1,67,0,480
1,60,40,240
1,60,0,240
1,59,45,0
1,59,0,240
1,60,40,0
1,60,0,240
1,72,45,0
1,72,0,120
1,72,38,120
1,72,0,120
1,72,45,120
1,72,0,240
1,74,45,0
1,74,0,60
1,72,45,0
1,72,0,60
1,71,40,0
1,71,0,60
1,72,45,0
1,72,0,60
1,75,50,0
1,75,0,240
1,74,45,0
1,74,0,240
1,77,56,0
1,77,0,240
1,75,53,0
1,75,0,240
1,74,50,0
1,74,0,240
1,72,47,0
1,72,0,240
1,71,51,0
1,71,0,480
1,55,40,240
1,55,0,240
1,54,45,0
1,54,0,240
1,55,40,0
1,55,0,240
1,60,45,0
1,60,0,120
1,60,38,120
1,60,0,120
1,59,45,120
1,59,0,480
1,55,40,240
1,55,0,240
1,54,45,0
1,54,0,240
1,55,40,0
1,55,0,240
1,63,45,0
1,63,0,120
1,63,38,120
1,63,0,120
1,62,45,120
1,62,0,480
1,55,45,240
1,55,0,120
1,59,51,120
1,59,0,120
1,62,45,120
1,62,0,120
1,65,45,120
1,65,0,120
1,68,45,120
1,68,0,120
1,71,55,120
1,71,0,120
1,74,53,120
1,74,0,120
1,77,56,120
1,77,0,120
1,80,60,120
1,80,0,120
1,79,63,120
1,79,0,120
1,77,59,120
1,77,0,120
1,75,55,120
1,75,0,120
1,74,54,120
1,74,0,120
1,72,62,120
1,72,0,480
1,72,50,240
1,72,0,240
1,71,57,0
1,71,0,240
1,72,53,0
1,72,0,240
1,84,60,0
1,84,0,120
1,84,52,120
1,84,0,120
1,84,60,120
1,84,0,480
1,89,59,240
1,89,0,240
1,87,65,0
1,87,0,240
1,86,60,0
1,86,0,240
1,84,66,0
1,84,0,240
1,83,60,0
1,83,0,240
1,86,69,0
1,86,0,240
1,84,60,0
1,84,0,240
1,72,50,240
1,72,0,240
1,71,57,0
1,71,0,240
1,72,53,0
1,72,0,240
1,84,60,0
1,84,0,120
1,84,52,120
1,84,0,120
1,84,60,120
1,84,0,480
1,86,60,0
1,86,0,60
1,84,60,0
1,84,0,60
1,83,60,0
1,83,0,60
1,84,60,0
1,84,0,60
1,89,59,0
1,89,0,240
1,87,65,0
1,87,0,240
1,86,60,0
1,86,0,240
1,84,66,0
1,84,0,240
1,83,60,0
1,83,0,240
1,84,69,0
1,84,0,120
1,86,63,0
1,86,0,120
1,84,63,0
1,84,0,120
1,83,63,0
1,83,0,120
1,84,69,0
1,84,0,120
1,87,73,0
1,87,0,120
1,86,72,0
1,86,0,120
1,84,71,0
1,84,0,120
1,83,72,0
1,83,0,120
1,84,65,0
1,84,0,120
1,83,65,0
1,83,0,120
1,80,65,0
1,80,0,120
1,79,69,0
1,79,0,120
1,77,63,0
1,77,0,120
1,75,63,0
1,75,0,120
1,74,63,0
1,74,0,120
1,72,69,0
1,72,0,120
1,74,63,0
1,74,0,120
1,72,63,0
1,72,0,120
1,71,61,0
1,71,0,120
1,72,66,0
1,72,0,120
1,75,72,0
1,75,0,120
1,74,70,0
1,74,0,120
1,72,67,0
1,72,0,120
1,71,69,0
1,71,0,120
1,72,63,0
1,72,0,120
1,71,63,0
1,71,0,120
1,68,63,0
1,68,0,120
1,67,69,0
1,67,0,120
1,65,63,0
1,65,0,120
1,63,63,0
1,63,0,120
1,62,63,0
1,62,0,120
1,60,77,0
1,60,0,120
1,62,69,0
1,62,0,120
1,60,69,0
1,60,0,120
1,59,69,0
1,59,0,120
1,60,77,0
1,60,0,120
1,63,69,0
1,63,0,120
1,62,69,0
1,62,0,120
1,60,69,0
1,60,0,120
1,59,77,0
1,59,0,120
1,67,69,0
1,67,0,120
1,62,69,0
1,62,0,120
1,59,69,0
1,59,0,120
1,55,79,0
1,55,0,120
1,67,69,0
1,67,0,120
1,63,69,0
1,63,0,120
1,60,69,0
1,60,0,120
1,55,81,0
1,55,0,120
1,67,69,0
1,67,0,120
1,62,69,0
1,62,0,120
1,59,69,0
1,59,0,120
1,55,80,0
1,55,0,120
1,67,69,0
1,67,0,120
1,63,69,0
1,63,0,120
1,60,69,0
1,60,0,120
1,55,80,0
1,55,0,120
1,67,69,0
1,67,0,120
1,62,69,0
1,62,0,120
1,59,69,0
1,59,0,120
1,55,80,0
1,55,0,120
1,67,69,0
1,67,0,120
1,63,69,0
1,63,0,120
1,60,69,0
1,60,0,120
1,55,74,0
1,59,74,0
1,62,74,0
1,67,89,0
1,67,0,960
1,55,0,0
1,59,0,0
1,62,0,0
1,58,40,240
1,58,0,120
1,60,37,120
1,60,0,120
1,62,37,120
1,62,0,120
1,55,39,120
1,58,39,0
1,63,46,0
1,63,0,120
1,65,40,120
1,65,0,120
1,67,40,120
1,67,0,120
1,58,0,360
1,55,0,0
1,58,38,0
1,62,38,0
1,65,45,0
1,65,0,120
1,62,0,0
1,58,0,0
1,58,33,360
1,63,39,0
1,63,0,120
1,58,0,0
1,56,37,360
1,58,37,0
1,62,37,0
1,68,45,0
1,68,0,960
1,56,0,0
1,58,0,0
1,62,0,0
1,58,40,240
1,58,0,120
1,60,37,120
1,60,0,120
1,62,37,120
1,62,0,120
1,55,39,120
1,58,39,0
1,63,46,0
1,63,0,120
1,65,40,120
1,65,0,120
1,67,40,120
1,67,0,120
1,58,0,360
1,55,0,0
1,53,38,0
1,60,38,0
1,65,45,0
1,65,0,120
1,60,0,0
1,53,0,0
1,60,33,360
1,53,33,0
1,63,39,0
1,63,0,120
1,53,0,0
1,60,0,0
1,50,31,360
1,53,31,0
1,58,37,0
1,58,0,960
1,53,0,0
1,50,0,0
1,58,40,240
1,58,0,120
1,60,37,120
1,60,0,120
1,62,37,120
1,62,0,120
1,55,39,120
1,58,39,0
1,63,46,0
1,63,0,120
1,65,40,120
1,65,0,120
1,67,40,120
1,67,0,120
1,58,0,360
1,55,0,0
1,58,38,0
1,62,38,0
1,65,45,0
1,65,0,120
1,62,0,0
1,58,0,0
1,58,33,360
1,63,39,0
1,63,0,120
1,58,0,0
1,60,45,315
1,63,50,15
1,68,63,15
1,72,72,15
1,68,0,960
1,60,0,0
1,63,0,0
1,72,0,240
1,72,48,0
1,72,0,120
1,70,53,120
1,70,0,120
1,68,50,120
1,68,0,120
1,67,53,120
1,67,0,240
1,65,48,0
1,65,0,240
1,63,48,0
1,63,0,120
1,62,48,120
1,62,0,120
1,53,45,120
1,56,45,0
1,60,53,0
1,60,0,480
1,58,49,0
1,58,0,480
1,56,0,0
1,53,0,0
1,51,41,0
1,55,41,0
1,58,49,0
1,58,0,960
1,55,0,0
1,51,0,0
1,70,48,240
1,70,0,120
1,68,53,120
1,68,0,120
1,67,50,120
1,67,0,120
1,67,53,120
1,67,0,240
1,65,48,0
1,65,0,240
1,63,48,0
1,63,0,120
1,62,48,120
1,62,0,120
1,53,45,120
1,56,45,0
1,60,53,0
1,60,0,480
1,58,49,0
1,58,0,480
1,56,0,0
1,53,0,0
1,51,54,0
1,55,54,0
1,58,54,0
1,58,0,960
1,55,0,0
1,51,0,0
1,82,48,240
1,70,48,0
1,70,0,120
1,82,0,0
1,80,53,120
1,68,53,0
1,68,0,120
1,80,0,0
1,79,50,120
1,67,50,0
1,67,0,120
1,79,0,0
1,79,55,120
1,67,55,0
1,67,0,240
1,79,0,0
1,77,48,0
1,65,48,0
1,65,0,240
1,77,0,0
1,75,48,0
1,63,48,0
1,63,0,120
1,75,0,0
1,74,48,120
1,62,48,0
1,62,0,120
1,74,0,0
1,60,55,120
1,72,55,0
1,72,0,120
1,60,0,0
1,58,48,120
1,70,48,0
1,70,0,120
1,58,0,0
1,60,48,120
1,72,48,0
1,72,0,120
1,60,0,0
1,62,48,120
1,74,48,0
1,74,0,120
1,62,0,0
1,63,48,120
1,63,0,120
1,75,43,0
1,75,0,120
1,63,48,0
1,63,0,120
1,75,42,0
1,75,0,120
1,63,49,0
1,63,0,120
1,75,43,0
1,75,0,120
1,63,50,0
1,63,0,120
1,75,45,0
1,75,0,120
1,63,51,0
1,63,0,120
1,75,44,0
1,75,0,120
1,63,52,0
1,63,0,120
1,75,47,0
1,75,0,120
1,63,53,0
1,63,0,120
1,75,47,0
1,75,0,120
1,63,53,0
1,63,0,120
1,75,47,0
1,75,0,120
1,63,54,0
1,63,0,120
1,75,48,0
1,75,0,120
1,63,55,0
1,63,0,120
1,75,48,0
1,75,0,120
1,63,55,0
1,63,0,120
1,75,48,0
1,75,0,120
1,63,56,0
1,63,0,120
1,75,51,0
1,75,0,120
1,63,57,0
1,63,0,120
1,75,49,0
1,75,0,120
1,63,58,0
1,63,0,120
1,75,53,0
1,75,0,120
1,63,59,0
1,63,0,120
1,75,54,0
1,75,0,120
1,63,60,0
1,63,0,120
1,75,54,0
1,75,0,120
1,63,70,0
1,75,70,0
1,75,0,480
1,63,0,0
1,75,74,240
1,75,0,240
1,74,84,0
1,74,0,240
1,75,77,0
1,75,0,240
1,84,86,0
1,80,86,0
1,80,0,120
1,84,0,0
1,80,79,120
1,84,79,0
1,84,0,120
1,80,0,0
1,80,92,120
1,84,92,0
1,80,0,480
1,84,0,120
1,82,74,0
1,82,0,120
1,80,73,0
1,80,0,120
1,79,72,0
1,79,0,120
1,77,72,0
1,77,0,120
1,75,72,0
1,75,0,120
1,74,71,0
1,74,0,120
1,72,70,0
1,72,0,120
1,71,69,0
1,71,0,120
1,70,68,0
1,70,0,120
1,69,67,0
1,69,0,120
1,68,66,0
1,68,0,120
1,67,66,0
1,67,0,160
1,68,62,0
1,68,0,160
1,70,62,0
1,70,0,160
1,68,66,0
1,68,0,160
1,67,62,0
1,67,0,160
1,65,62,0
1,65,0,160
1,63,66,0
1,63,0,160
1,62,62,0
1,62,0,160
1,60,62,0
1,60,0,160
1,58,66,0
1,58,0,160
1,56,60,0
1,56,0,160
1,55,63,0
1,55,0,160
1,53,59,120
1,53,0,120
1,56,63,0
1,56,0,120
1,60,67,0
1,60,0,120
1,65,72,0
1,65,0,240
1,53,63,360
1,53,0,120
1,56,66,0
1,56,0,120
1,58,69,0
1,58,0,120
1,62,72,0
1,62,0,240
1,74,67,240
1,74,0,120
1,86,60,0
1,86,0,120
1,74,67,0
1,74,0,120
1,86,60,0
1,86,0,120
1,74,67,0
1,74,0,120
1,86,59,0
1,86,0,120
1,74,67,0
1,74,0,120
1,86,61,0
1,86,0,120
1,74,67,0
1,74,0,120
1,86,59,0
1,86,0,120
1,74,67,0
1,74,0,120
1,86,59,0
1,86,0,120
1,74,67,0
1,74,0,120
1,86,59,0
1,86,0,120
1,74,67,0
1,74,0,120
1,86,60,0
1,86,0,120
1,75,67,0
1,75,0,120
1,87,60,0
1,87,0,120
1,75,69,0
1,75,0,120
1,87,62,0
1,87,0,120
1,75,71,0
1,75,0,120
1,87,63,0
1,87,0,120
1,75,72,0
1,75,0,120
1,87,67,0
1,87,0,120
1,75,75,0
1,75,0,120
1,87,67,0
1,87,0,120
1,75,77,0
1,75,0,120
1,87,69,0
1,87,0,120
1,76,80,0
1,76,0,120
1,88,71,0
1,88,0,120
1,76,81,0
1,76,0,120
1,88,73,0
1,88,0,120
1,77,71,120
1,77,0,120
1,80,76,0
1,80,0,120
1,84,81,0
1,84,0,120
1,89,86,0
1,89,0,240
1,74,75,360
1,74,0,120
1,77,79,0
1,77,0,120
1,80,82,0
1,80,0,120
1,86,86,0
1,86,0,240
1,75,80,240
1,82,80,0
1,79,80,0
1,87,94,0
1,87,0,480
1,75,0,0
1,82,0,0
1,79,0,0
1,82,63,0
1,82,0,120
1,82,63,120
1,82,0,120
1,82,70,120
1,82,0,240
1,82,63,240
1,82,0,120
1,82,63,120
1,82,0,120
1,82,69,120
1,82,0,240
1,53,60,240
1,56,60,0
1,62,72,0
1,62,0,240
1,56,0,0
1,53,0,0
1,53,33,720
1,56,33,0
1,62,39,0
1,62,0,120
1,56,0,0
1,53,0,0
1,55,37,360
1,63,45,0
1,63,0,120
1,55,0,0
1,60,35,360
1,63,35,0
1,65,41,0
1,65,0,120
1,63,0,0
1,60,0,0
1,58,37,360
1,63,37,0
1,67,45,0
1,67,0,120
1,63,0,0
1,58,0,0
1,56,33,360
1,62,33,0
1,65,39,0
1,65,0,120
1,62,0,0
1,56,0,0
1,55,37,360
1,63,45,0
1,63,0,120
1,55,0,0
1,82,63,360
1,82,0,120
1,84,59,0
1,84,0,120
1,82,63,0
1,82,0,120
1,81,59,0
1,81,0,120
1,82,70,0
1,82,0,240
1,82,63,240
1,82,0,120
1,84,58,0
1,84,0,120
1,82,63,0
1,82,0,120
1,81,57,0
1,81,0,120
1,82,69,0
1,82,0,240
1,53,60,240
1,56,60,0
1,62,72,0
1,62,0,240
1,56,0,0
1,53,0,0
1,51,55,720
1,54,55,0
1,57,55,0
1,63,66,0
1,63,0,960
1,51,0,0
1,54,0,0
1,57,0,0
1,60,35,0
1,63,35,0
1,65,41,0
1,65,0,120
1,63,0,0
1,60,0,0
1,58,37,360
1,63,37,0
1,67,45,0
1,67,0,120
1,63,0,0
1,58,0,0
1,56,33,360
1,62,33,0
1,65,39,0
1,65,0,120
1,62,0,0
1,56,0,0
1,55,37,360
1,63,45,0
1,63,0,240
1,55,0,0
1,62,30,240
1,68,36,0
1,68,0,240
1,62,0,0
1,63,27,0
1,67,32,0
1,67,0,240
1,63,0,0
1,68,31,480
1,74,37,0
1,74,0,240
1,68,0,0
1,67,27,0
1,75,32,0
1,75,0,240
1,67,0,0
1,80,37,480
1,74,31,0
1,74,0,240
1,80,0,0
1,75,27,0
1,79,32,0
1,79,0,240
1,75,0,0
1,86,43,480
1,80,36,0
1,80,0,240
1,86,0,0
1,79,30,0
1,87,36,0
1,87,0,240
1,79,0,0
1,55,48,480
1,58,48,0
1,63,57,0
1,63,0,480
1,58,0,0
1,55,0,0
1,60,40,1680
1,60,0,240
1,59,45,0
1,59,0,240
1,60,40,0
1,60,0,240
1,65,45,0
1,65,0,120
1,65,38,120
1,65,0,120
1,63,45,120
1,63,0,480
1,60,40,240
1,60,0,240
1,59,45,0
1,59,0,240
1,60,40,0
1,60,0,240
1,68,45,0
1,68,0,120
1,68,38,120
1,68,0,120
1,67,45,120
1,67,0,480
1,60,40,240
1,60,0,240
1,59,45,0
1,59,0,240
1,60,40,0
1,60,0,240
1,72,45,0
1,72,0,120
1,72,38,120
1,72,0,120
1,72,45,120
1,72,0,240
1,74,45,0
1,74,0,60
1,72,45,0
1,72,0,60
1,71,40,0
1,71,0,60
1,72,45,0
1,72,0,60
1,75,50,0
1,75,0,240
1,74,45,0
1,74,0,240
1,77,56,0
1,77,0,240
1,75,53,0
1,75,0,240
1,74,50,0
1,74,0,240
1,72,47,0
1,72,0,240
1,71,51,0
1,71,0,480
1,55,40,240
1,55,0,240
1,54,45,0
1,54,0,240
1,55,40,0
1,55,0,240
1,60,45,0
1,60,0,120
1,60,38,120
1,60,0,120
1,59,45,120
1,59,0,480
1,55,40,240
1,55,0,240
1,54,45,0
1,54,0,240
1,55,40,0
1,55,0,240
1,63,45,0
1,63,0,120
1,63,38,120
1,63,0,120
1,62,45,120
1,62,0,480
1,55,45,240
1,55,0,120
1,59,51,120
1,59,0,120
1,62,45,120
1,62,0,120
1,65,45,120
1,65,0,120
1,68,45,120
1,68,0,120
1,71,55,120
1,71,0,120
1,74,53,120
1,74,0,120
1,77,56,120
1,77,0,120
1,80,60,120
1,80,0,120
1,79,63,120
1,79,0,120
1,77,59,120
1,77,0,120
1,75,55,120
1,75,0,120
1,74,54,120
1,74,0,120
1,72,62,120
1,72,0,480
1,72,50,240
1,72,0,240
1,71,57,0
1,71,0,240
1,72,53,0
1,72,0,240
