track,note,velocity,time
3,43,101,3833
3,79,101,0
3,55,107,3
3,67,108,2
3,55,0,1302
3,67,0,2
3,43,0,28
3,79,0,1
3,79,105,52
3,67,113,1
3,43,108,6
3,55,112,1
3,55,0,328
3,43,0,17
3,67,0,1636
3,79,0,143
3,98,88,820
3,96,104,15
3,98,0,9
3,95,103,5
3,96,0,5
3,93,94,18
3,95,0,2
3,91,85,21
3,93,0,1
3,89,82,19
3,91,0,4
3,88,83,15
3,89,0,7
3,86,89,13
3,88,0,1
3,84,96,14
3,86,0,7
3,83,98,5
3,81,100,15
3,84,0,2
3,83,0,10
3,79,103,5
3,81,0,9
3,77,103,7
3,79,0,10
3,76,100,8
3,77,0,6
3,74,94,17
3,79,58,1
3,76,0,2
3,79,0,13
3,72,103,3
3,74,0,3
3,71,96,21
3,72,0,1
3,69,96,21
3,71,0,2
3,69,0,25
3,67,92,1
3,67,0,27
3,65,85,3
3,65,0,30
3,64,83,2
3,64,0,34
3,62,73,3
3,62,0,38
3,60,36,31
3,50,78,1
3,60,0,52
3,50,0,32
3,58,59,79
3,43,74,22
3,67,78,11
3,58,0,34
3,59,72,20
3,67,0,290
3,59,0,7
3,43,0,3
3,50,52,81
3,64,49,28
3,67,70,3
3,60,50,15
3,50,0,2
3,52,74,11
3,52,0,251
3,67,0,23
3,64,0,15
3,60,0,20
3,62,62,156
3,67,78,10
3,59,53,3
3,50,68,17
3,50,0,187
3,67,0,8
3,59,0,30
3,62,0,23
3,64,73,177
3,52,93,1
3,60,93,3
3,67,68,1
3,64,0,156
3,60,0,30
3,52,0,4
3,67,0,22
3,67,63,88
3,58,88,5
3,50,70,13
3,50,0,112
3,67,0,18
3,58,0,3
3,59,67,23
3,43,62,14
3,67,33,44
3,67,0,203
3,43,0,35
3,59,0,26
3,50,90,33
3,50,0,62
3,64,76,60
3,67,78,4
3,60,89,7
3,52,81,20
3,64,0,254
3,67,0,9
3,52,0,15
3,60,0,11
3,62,82,155
3,50,85,1
3,59,75,6
3,67,71,2
3,67,0,256
3,50,0,14
3,59,0,18
3,62,0,39
3,64,87,165
3,67,85,2
3,52,103,1
3,60,101,0
3,64,0,174
3,67,0,27
3,60,0,8
3,52,0,59
3,50,94,43
3,67,78,5
3,58,100,4
3,50,0,121
3,43,84,31
3,58,0,3
3,59,96,4
3,67,0,26
3,67,14,68
3,67,0,116
3,43,0,49
3,59,0,34
3,50,59,59
3,50,0,63
3,64,80,67
3,60,96,5
3,67,77,4
3,52,80,16
3,64,0,259
3,67,0,13
3,60,0,5
3,52,0,28
3,50,80,132
3,59,57,9
3,67,68,3
3,62,65,5
3,67,0,254
3,50,0,17
3,59,0,25
3,62,0,46
3,52,98,106
3,64,76,8
3,60,94,9
3,67,75,1
3,67,0,196
3,52,0,8
3,60,0,6
3,64,0,10
3,50,47,79
3,50,0,95
3,43,85,114
3,43,0,315
3,50,90,29
3,50,0,93
3,64,84,33
3,67,74,8
3,60,98,1
3,52,96,16
3,67,0,258
3,64,0,20
3,50,89,3
3,52,0,3
3,60,0,1
3,50,0,107
3,67,82,66
3,62,78,4
3,59,85,3
3,43,82,13
3,67,0,227
3,59,0,40
3,43,0,21
3,50,94,21
3,62,0,2
3,50,0,74
3,64,83,67
3,67,88,5
3,60,97,2
3,52,93,19
3,64,0,151
3,67,0,10
3,60,0,31
3,52,0,5
3,50,98,97
3,58,106,5
3,67,94,4
3,50,0,128
3,58,0,10
3,59,93,0
3,43,92,8
3,67,0,178
3,59,0,113
3,43,0,6
3,50,98,62
3,50,0,87
3,64,81,41
3,60,94,6
3,67,75,8
3,52,88,2
3,64,0,269
3,67,0,3
3,60,0,12
3,52,0,15
3,50,59,21
3,50,0,66
3,62,78,58
3,59,78,8
3,67,74,5
3,43,92,1
3,67,0,265
3,43,0,26
3,59,0,8
3,62,0,37
3,52,78,127
3,64,76,25
3,67,80,2
3,60,94,6
3,64,0,206
3,67,0,6
3,60,0,4
3,52,0,23
3,50,84,13
3,59,101,54
3,62,97,3
3,67,85,3
3,43,73,73
3,67,0,368
3,59,0,43
3,43,0,19
3,62,0,19
3,50,0,23
3,64,83,88
3,67,88,1
3,52,96,1
3,60,98,3
3,43,90,6
3,67,0,253
3,64,0,9
3,43,0,3
3,60,0,31
3,52,0,3
3,62,78,156
3,59,70,17
3,50,66,3
3,67,72,4
3,43,59,16
3,67,0,227
3,43,0,40
3,50,0,7
3,59,0,8
3,62,0,28
3,43,96,117
3,52,100,2
3,67,92,9
3,60,101,1
3,64,85,3
3,64,0,157
3,43,0,9
3,60,0,23
3,67,0,2
3,52,0,42
3,67,83,43
3,58,100,13
3,50,77,16
3,43,93,32
3,58,0,106
3,43,0,5
3,67,0,1
3,59,88,4
3,67,62,38
3,43,68,13
3,67,0,209
3,43,0,55
3,59,0,30
3,50,0,28
3,52,92,120
3,43,94,5
3,64,88,2
3,60,96,8
3,67,84,0
3,43,0,308
3,67,0,3
3,64,0,1
3,52,0,13
3,60,0,3
3,62,85,163
3,59,77,2
3,43,74,3
3,67,76,1
3,50,78,1
3,67,0,247
3,43,0,44
3,50,0,12
3,59,0,7
3,62,0,13
3,52,97,110
3,64,96,4
3,43,90,5
3,67,90,9
3,60,90,1
3,67,0,268
3,60,0,10
3,64,0,8
3,52,0,1
3,43,0,5
3,65,98,177
3,67,85,3
3,61,108,2
3,50,90,16
3,43,87,2
3,61,0,186
3,62,47,5
3,67,0,75
3,65,0,28
3,43,0,10
3,62,0,50
3,50,0,3
3,64,96,108
3,52,97,6
3,43,96,1
3,67,93,5
3,60,83,3
3,67,0,269
3,43,0,29
3,60,0,3
3,64,0,20
3,52,0,5
3,62,88,122
3,67,84,5
3,59,70,2
3,50,85,5
3,43,87,7
3,43,0,282
3,59,0,18
3,67,0,4
3,50,0,63
3,62,0,30
3,52,90,77
3,43,93,3
3,67,88,12
3,60,89,1
3,64,85,1
3,43,0,185
3,64,0,19
3,67,0,21
3,52,0,40
3,60,0,26
3,63,106,28
3,72,96,21
3,71,88,10
3,71,0,25
3,48,96,68
3,55,94,3
3,63,0,54
3,64,78,14
3,72,0,283
3,48,0,17
3,64,0,16
3,55,0,24
3,72,87,107
3,69,77,3
3,57,84,4
3,65,87,4
3,48,90,8
3,48,0,241
3,72,0,28
3,69,0,16
3,65,0,5
3,57,0,20
3,72,87,148
3,55,72,2
3,64,78,2
3,67,75,3
3,48,70,19
3,72,0,254
3,48,0,31
3,64,0,22
3,55,0,3
3,67,0,46
3,48,94,78
3,57,96,2
3,72,94,7
3,69,76,2
3,65,89,2
3,69,0,179
3,72,0,3
3,65,0,28
3,48,0,21
3,57,0,44
3,72,90,46
3,63,102,4
3,63,0,152
3,55,76,2
3,72,0,4
3,48,84,11
3,64,71,2
3,72,57,41
3,72,0,167
3,64,0,145
3,48,0,39
3,55,0,44
3,69,73,26
3,72,85,7
3,65,75,2
3,57,97,5
3,48,77,7
3,72,0,242
3,48,0,24
3,69,0,2
3,65,0,12
3,57,0,26
3,67,75,133
3,64,72,13
3,72,84,1
3,55,74,5
3,48,81,13
3,72,0,272
3,48,0,18
3,64,0,38
3,55,0,26
3,67,0,1
3,57,84,104
3,69,62,5
3,65,84,4
3,48,85,3
3,72,80,2
3,69,0,176
3,72,0,28
3,65,0,22
3,48,0,20
3,57,0,32
3,72,71,40
3,63,106,8
3,66,71,19
3,66,0,27
3,63,0,105
3,55,78,4
3,72,0,2
3,64,73,11
3,48,92,1
3,72,56,33
3,72,0,194
3,64,0,124
3,48,0,10
3,55,0,56
3,69,80,67
3,65,89,3
3,72,93,2
3,57,98,3
3,48,82,3
3,72,0,267
3,48,0,15
3,69,0,3
3,65,0,17
3,57,0,8
3,67,84,142
3,64,78,1
3,72,84,2
3,55,71,4
3,48,82,12
3,72,0,232
3,48,0,37
3,55,0,37
3,64,0,8
3,67,0,1
3,48,83,114
3,57,89,2
3,69,66,17
3,72,80,4
3,65,84,3
3,72,0,182
3,69,0,23
3,65,0,18
3,48,0,45
3,72,78,57
3,63,104,4
3,66,40,24
3,57,0,8
3,66,0,11
3,72,0,77
3,63,0,13
3,55,73,13
3,64,71,13
3,48,93,6
3,72,81,11
3,55,0,285
3,48,0,4
3,72,0,13
3,64,0,54
3,55,87,130
3,69,88,1
3,72,93,2
3,65,97,4
3,48,96,4
3,48,0,234
3,55,0,23
3,72,0,30
3,69,0,2
3,65,0,22
3,46,86,130
3,58,88,11
3,70,92,2
3,62,90,3
3,65,100,3
3,58,0,306
3,62,0,48
3,65,0,1
3,46,0,6
3,70,0,12
3,69,83,79
3,65,83,4
3,57,89,9
3,45,93,5
3,60,82,4
3,57,0,282
3,50,85,19
3,45,0,10
3,69,0,43
3,65,0,32
3,60,0,27
3,50,0,17
3,43,98,32
3,50,92,391
3,43,0,28
3,50,0,70
3,64,92,10
3,60,100,4
3,67,89,2
3,52,96,4
3,64,0,299
3,67,0,12
3,60,0,11
3,52,0,22
3,59,76,110
3,62,80,2
3,67,80,2
3,50,81,10
3,43,54,23
3,67,0,248
3,43,0,13
3,59,0,19
3,50,0,15
3,62,0,3
3,52,100,154
3,64,93,6
3,67,88,2
3,60,101,4
3,43,71,20
3,43,0,193
3,64,0,10
3,52,0,29
3,60,0,8
3,67,0,7
3,67,40,31
3,59,74,11
3,62,84,5
3,50,73,9
3,43,85,23
3,43,0,314
3,50,0,18
3,67,0,98
3,59,0,30
3,62,0,38
3,43,77,20
3,50,75,3
3,50,0,46
3,52,81,25
3,67,85,27
3,43,0,1
3,64,77,4
3,60,100,6
3,43,55,30
3,67,0,212
3,60,0,4
3,64,0,9
3,52,0,13
3,43,0,4
3,62,82,185
3,59,75,10
3,50,75,1
3,67,77,1
3,43,76,8
3,67,0,256
3,43,0,9
3,50,0,4
3,59,0,8
3,62,0,29
3,43,92,151
3,52,96,3
3,60,96,9
3,64,82,1
3,67,82,0
3,60,0,179
3,64,0,3
3,67,0,33
3,43,0,34
3,52,0,21
3,67,63,13
3,58,98,10
3,50,72,25
3,58,0,114
3,43,60,8
3,59,88,3
3,67,0,225
3,43,0,31
3,50,0,3
3,59,0,37
3,43,94,191
3,64,73,4
3,52,97,3
3,60,93,9
3,67,66,5
3,64,0,267
3,67,0,5
3,60,0,3
3,52,0,4
3,43,0,1
3,62,82,177
3,59,64,3
3,67,76,5
3,50,74,4
3,43,75,6
3,67,0,246
3,43,0,6
3,50,0,18
3,59,0,26
3,62,0,21
3,52,92,126
3,43,93,3
3,64,82,7
3,67,75,7
3,60,93,0
3,60,0,265
3,50,48,15
3,64,0,7
3,52,0,4
3,43,0,2
3,67,0,20
3,61,102,143
3,67,77,9
3,65,82,1
3,63,60,8
3,50,0,29
3,53,87,1
3,63,0,1
3,43,89,2
3,52,85,7
3,61,0,63
3,62,76,13
3,52,0,8
3,67,0,162
3,65,0,15
3,53,0,22
3,62,0,3
3,48,87,35
3,50,39,59
3,48,0,19
3,64,94,42
3,52,100,1
3,67,94,3
3,60,94,5
3,50,0,31
3,67,0,222
3,60,0,16
3,43,0,11
3,64,0,13
3,52,0,33
3,62,97,124
3,59,82,3
3,67,92,2
3,50,94,19
3,43,90,4
3,67,0,288
3,59,0,13
3,62,0,72
3,43,0,52
3,50,0,17
3,52,107,29
3,67,100,12
3,64,98,4
3,60,100,4
3,43,75,5
3,60,0,147
3,64,0,50
3,67,0,8
3,43,0,3
3,52,0,46
3,50,117,235
3,69,117,17
3,74,116,1
3,74,0,749
3,69,0,65
3,72,116,133
3,72,0,264
3,69,103,47
3,69,0,137
3,65,110,20
3,50,0,58
3,65,0,224
3,66,113,19
3,66,0,156
3,62,117,21
3,50,117,2
3,60,50,1729
3,62,0,5
3,50,0,14
3,60,0,23
3,67,107,129
3,50,110,0
3,55,108,0
3,62,112,2
3,43,108,0
3,62,0,219
3,67,0,93
3,50,0,92
3,55,0,13
3,43,0,62
3,86,115,43
3,91,105,1
3,79,112,7
3,50,108,7
3,55,108,1
3,43,104,2
3,81,104,1
3,81,0,26
3,91,0,140
3,50,0,28
3,55,0,29
3,43,0,7
3,91,64,99
3,79,0,10
3,79,64,116
3,91,0,1
3,79,0,123
3,91,73,14
3,91,0,79
3,86,0,4
3,103,104,81
3,101,35,30
3,103,0,19
3,100,41,20
3,101,0,17
3,98,94,16
3,100,0,11
3,96,98,14
3,98,0,13
3,95,98,14
3,96,0,11
3,93,97,16
3,95,0,15
3,91,93,13
3,93,0,17
3,89,90,12
3,91,0,15
3,88,89,15
3,89,0,18
3,86,93,9
3,88,0,14
3,84,103,11
3,86,0,15
3,83,94,10
3,84,0,17
3,81,97,8
3,83,0,12
3,79,104,11
3,81,0,13
3,77,100,12
3,79,0,10
3,76,100,14
3,77,0,9
3,74,100,18
3,76,0,7
3,72,108,18
3,74,0,5
3,71,103,19
3,72,0,6
3,69,94,23
3,71,0,2
3,67,94,26
3,69,0,4
3,65,90,26
3,67,0,5
3,64,94,28
3,65,0,7
3,62,88,31
3,64,0,8
3,62,0,33
3,60,76,4
3,60,0,34
3,59,77,2
3,59,0,40
3,57,61,9
3,57,0,31
3,50,76,51
3,50,0,91
3,59,116,2
3,67,104,0
3,43,107,5
3,50,112,1
3,67,0,322
3,59,0,24
3,50,0,31
3,43,0,51
3,64,66,24
3,52,94,13
3,67,63,12
3,60,80,4
3,43,50,14
3,43,0,230
3,67,0,30
3,64,0,1
3,52,0,5
3,60,0,21
3,59,74,181
3,50,80,2
3,62,78,1
3,67,73,7
3,43,70,14
3,67,0,221
3,59,0,67
3,50,0,11
3,62,0,2
3,43,0,16
3,43,84,117
3,52,110,12
3,67,97,18
3,60,105,1
3,64,93,2
3,60,0,166
3,64,0,12
3,67,0,32
3,43,0,27
3,52,0,5
3,67,83,19
3,58,106,5
3,50,103,14
3,61,77,7
3,61,0,20
3,58,0,112
3,59,97,7
3,67,0,1
3,43,87,36
3,67,37,34
3,67,0,144
3,59,0,36
3,55,87,60
3,50,0,102
3,55,0,36
3,52,116,50
3,60,101,1
3,64,100,1
3,67,101,4
3,64,0,232
3,67,0,3
3,43,0,36
3,52,0,45
3,60,0,4
3,59,66,154
3,50,85,8
3,67,52,1
3,62,44,1
3,43,73,14
3,67,0,274
3,59,0,47
3,43,0,26
3,62,0,19
3,50,0,89
3,52,110,21
3,43,103,5
3,50,97,4
3,64,97,3
3,67,104,1
3,60,108,1
3,50,0,22
3,64,0,136
3,67,0,16
3,60,0,3
3,43,0,46
3,52,0,34
3,58,104,27
3,67,90,0
3,50,105,4
3,61,79,18
3,61,0,22
3,58,0,99
3,43,107,3
3,50,0,2
3,67,0,3
3,59,96,0
3,67,53,43
3,67,0,190
3,59,0,48
3,57,50,55
3,50,104,41
3,48,42,28
3,48,0,24
3,57,0,4
3,50,0,62
3,64,104,8
3,60,105,3
3,67,100,2
3,52,112,3
3,67,0,205
3,64,0,5
3,60,0,3
3,43,0,93
3,50,101,7
3,52,0,3
3,57,62,18
3,50,0,69
3,57,0,42
3,58,90,13
3,43,100,13
3,67,87,2
3,50,72,7
3,59,97,65
3,58,0,9
3,67,0,161
3,59,0,105
3,43,0,105
3,50,0,3
3,52,113,31
3,64,92,2
3,67,93,6
3,60,103,5
3,43,96,5
3,64,0,157
3,60,0,9
3,67,0,2
3,43,0,18
3,52,0,24
3,67,101,60
3,58,113,3
3,50,105,4
3,61,102,13
3,61,0,24
3,59,105,79
3,58,0,5
3,67,0,16
3,43,93,100
3,50,0,12
3,67,89,8
3,59,0,17
3,59,83,94
3,67,0,5
3,59,0,112
3,67,64,11
3,47,67,61
3,48,107,6
3,67,0,4
3,47,0,65
3,50,90,31
3,48,0,3
3,67,105,10
3,64,93,2
3,52,105,5
3,60,110,1
3,50,0,33
3,67,0,245
3,50,90,11
3,64,0,11
3,60,0,12
3,43,0,1
3,52,0,15
3,50,0,44
3,62,97,96
3,67,100,2
3,59,93,3
3,50,77,2
3,43,98,8
3,67,0,265
3,59,0,47
3,43,0,3
