track,note,velocity,time
1,67,40,0
1,63,34,0
1,63,0,480
1,67,0,0
1,65,39,0
1,58,33,0
1,58,0,480
1,65,0,0
1,55,33,0
1,63,39,0
1,63,0,720
1,55,0,0
1,63,44,0
1,63,0,180
1,68,37,0
1,68,0,60
1,67,44,0
1,67,0,240
1,67,46,0
1,67,0,180
1,73,44,0
1,73,0,60
1,72,50,0
1,72,0,240
1,72,55,0
1,72,0,60
1,74,48,0
1,74,0,20
1,72,48,0
1,72,0,20
1,71,48,0
1,71,0,20
1,72,55,0
1,72,0,60
1,74,48,0
1,74,0,60
1,75,58,0
1,63,44,0
1,63,0,240
1,66,39,0
1,63,33,0
1,75,0,120
1,72,44,0
1,72,0,120
1,63,0,0
1,66,0,0
1,71,46,0
1,62,32,0
1,67,37,0
1,67,0,240
1,62,0,0
1,71,0,0
1,79,62,0
1,79,0,120
1,87,58,0
1,87,0,120
1,87,63,0
1,75,48,0
1,75,0,240
1,78,48,0
1,75,40,0
1,87,0,120
1,84,53,0
1,84,0,120
1,75,0,0
1,78,0,0
1,74,40,0
1,79,40,0
1,83,50,0
1,83,0,238
1,79,0,0
1,74,0,0
1,82,60,2
1,74,46,0
1,79,46,0
1,79,0,240
1,74,0,0
1,82,0,0
1,82,68,0
1,74,55,0
1,74,0,240
1,75,55,0
1,75,0,240
1,77,46,0
1,77,0,80
1,82,0,0
1,70,51,0
1,70,0,80
1,72,46,0
1,72,0,80
1,69,55,0
1,69,0,80
1,70,46,0
1,70,0,80
1,68,46,0
1,68,0,40
1,58,34,40
1,64,40,0
1,67,40,0
1,61,34,0
1,61,0,480
1,58,0,0
1,64,0,0
1,67,0,0
1,62,33,0
1,65,39,0
1,56,33,0
1,56,0,480
1,65,0,0
1,62,0,0
1,54,33,0
1,63,39,0
1,63,0,720
1,54,0,0
1,66,44,0
1,63,34,0
1,66,0,180
1,71,37,0
1,71,0,60
1,63,0,0
1,71,44,0
1,64,34,0
1,64,0,240
1,71,0,0
1,64,34,0
1,70,46,0
1,70,0,180
1,76,44,0
1,76,0,60
1,64,0,0
1,75,50,0
1,63,34,0
1,63,0,240
1,75,0,0
1,75,55,0
1,75,0,60
1,77,48,0
1,77,0,20
1,75,48,0
1,75,0,20
1,74,48,0
1,74,0,20
1,75,55,0
1,75,0,60
1,77,48,0
1,77,0,60
1,78,58,0
1,72,37,0
1,72,0,240
1,72,44,0
1,78,0,120
1,75,49,0
1,75,0,120
1,72,0,0
1,74,46,0
1,70,37,0
1,70,0,240
1,74,0,0
1,70,37,0
1,73,55,0
1,73,0,60
1,75,48,0
1,75,0,20
1,73,48,0
1,73,0,20
1,72,48,0
1,72,0,20
1,73,55,0
1,73,0,60
1,75,48,0
1,75,0,60
1,76,58,0
1,70,0,240
1,70,44,0
1,76,0,120
1,75,49,0
1,75,0,60
1,73,44,0
1,73,0,60
1,70,0,0
1,71,46,0
1,68,37,0
1,68,0,240
1,71,0,0
1,63,42,0
1,75,55,0
1,70,42,0
1,70,0,240
1,75,0,0
1,63,0,0
1,74,51,0
1,68,39,0
1,62,39,0
1,70,39,0
1,70,0,240
1,74,0,0
1,68,0,0
1,62,0,0
1,62,32,360
1,70,38,0
1,74,45,0
1,68,32,0
1,68,0,119
1,62,0,0
1,70,0,0
1,74,0,0
1,70,39,1
1,63,33,0
1,66,33,0
1,75,47,0
1,75,0,119
1,70,0,0
1,63,0,0
1,66,0,0
1,66,30,1
1,75,43,0
1,70,36,0
1,63,30,0
1,63,0,119
1,66,0,0
1,75,0,0
1,70,0,0
1,77,55,1
1,65,39,0
1,70,46,0
1,70,0,240
1,65,0,0
1,77,0,0
1,74,45,360
1,70,38,0
1,70,0,119
1,74,0,0
1,70,39,1
1,75,47,0
1,75,0,119
1,70,0,0
1,75,43,1
1,70,36,0
1,70,0,119
1,75,0,0
1,77,55,1
1,70,46,0
1,70,0,240
1,77,0,0
1,70,41,360
1,77,49,0
1,77,0,119
1,70,0,0
1,79,54,1
1,70,44,0
1,70,0,119
1,79,0,0
1,68,42,1
1,80,51,0
1,80,0,119
1,68,0,0
1,68,46,1
1,80,55,0
1,80,0,240
1,68,0,0
1,77,49,360
1,70,41,0
1,70,0,119
1,77,0,0
1,79,54,1
1,70,44,0
1,70,0,119
1,79,0,0
1,80,51,1
1,68,42,0
1,68,0,119
1,80,0,0
1,80,44,241
1,68,36,0
1,68,0,240
1,80,0,0
1,68,36,240
1,80,44,0
1,80,0,240
1,68,0,0
1,80,77,0
1,68,64,0
1,68,0,720
1,80,0,0
1,67,59,0
1,74,70,0
1,74,0,120
1,79,67,0
1,79,0,60
1,67,0,60
1,67,59,0
1,79,70,0
1,79,0,240
1,67,0,0
1,72,70,0
1,65,59,0
1,72,0,120
1,77,67,0
1,77,0,60
1,65,0,60
1,65,59,0
1,77,70,0
1,77,0,240
1,65,0,0
1,70,70,0
1,63,59,0
1,70,0,120
1,75,67,0
1,75,0,60
1,63,0,60
1,68,59,0
1,63,59,0
1,75,70,0
1,70,59,0
1,75,0,480
1,63,0,0
1,74,59,0
1,62,50,0
1,62,0,240
1,70,0,0
1,68,0,0
1,74,0,0
1,75,59,0
1,70,50,0
1,63,50,0
1,63,0,240
1,70,0,0
1,75,0,0
1,65,48,0
1,70,48,0
1,77,57,0
1,77,0,240
1,70,0,0
1,65,0,0
1,67,51,0
1,70,51,0
1,79,60,0
1,79,0,240
1,70,0,0
1,67,0,0
1,70,54,0
1,80,64,0
1,68,54,0
1,68,0,240
1,80,0,0
1,70,0,0
1,70,57,0
1,82,68,0
1,82,0,240
1,70,0,0
1,67,66,0
1,70,66,0
1,82,78,0
1,82,0,240
1,70,0,0
1,67,0,0
1,82,81,240
1,70,69,0
1,70,0,240
1,82,0,0
1,82,78,240
1,94,93,0
1,94,0,720
1,82,0,0
1,82,65,0
1,70,55,0
1,70,0,960
1,82,0,0
1,67,62,0
1,79,62,0
1,79,0,240
1,67,0,0
1,77,65,0
1,65,55,0
1,65,0,240
1,77,0,0
1,74,57,0
1,62,48,0
1,62,0,240
1,74,0,0
1,71,57,0
1,59,48,0
1,59,0,240
1,71,0,0
1,70,56,0
1,58,47,0
1,58,0,238
1,70,0,0
1,70,78,2
1,58,66,0
1,58,0,240
1,70,0,0
1,82,81,240
1,70,69,0
1,70,0,240
1,82,0,0
1,82,78,240
1,94,93,0
1,94,0,720
1,82,0,0
1,70,55,0
1,82,65,0
1,82,0,960
1,70,0,0
1,67,62,0
1,79,62,0
1,79,0,240
1,67,0,0
1,64,55,0
1,76,65,0
1,76,0,240
1,64,0,0
1,77,57,0
1,65,48,0
1,65,0,240
1,77,0,0
1,72,57,0
1,60,48,0
1,60,0,240
1,72,0,0
1,63,47,0
1,75,56,0
1,75,0,240
1,63,0,0
1,74,56,0
1,62,56,0
1,62,0,120
1,74,0,0
1,70,49,0
1,70,0,120
1,69,51,0
1,69,0,120
1,70,53,0
1,70,0,120
1,72,55,0
1,69,46,0
1,69,0,120
1,72,0,0
1,70,48,0
1,74,57,0
1,74,0,120
1,70,0,0
1,72,50,0
1,75,59,0
1,75,0,120
1,72,0,0
1,74,51,0
1,77,61,0
1,77,0,120
1,74,0,0
1,75,53,0
1,79,63,0
1,79,0,480
1,75,0,0
1,84,62,0
1,80,52,0
1,80,0,120
1,84,0,0
1,82,59,0
1,79,50,0
1,79,0,120
1,82,0,0
1,77,47,0
1,80,56,0
1,80,0,120
1,77,0,0
1,79,53,0
1,75,45,0
1,75,0,120
1,79,0,0
1,77,61,0
1,74,51,0
1,74,0,240
1,77,0,0
1,96,68,240
1,92,57,0
1,92,0,120
1,96,0,0
1,94,64,0
1,91,55,0
1,91,0,120
1,94,0,0
1,89,51,0
1,92,61,0
1,92,0,120
1,89,0,0
1,91,58,0
1,87,49,0
1,87,0,120
1,91,0,0
1,89,67,0
1,86,56,0
1,86,0,240
1,89,0,0
1,84,68,0
1,74,57,0
1,74,0,120
1,84,0,0
1,82,67,0
1,75,56,0
1,75,0,120
1,82,0,0
1,71,56,0
1,80,67,0
1,80,0,120
1,71,0,0
1,79,66,0
1,72,56,0
1,72,0,120
1,79,0,0
1,67,55,0
1,77,64,0
1,77,0,90
1,67,0,0
1,75,53,30
1,78,63,0
1,78,0,90
1,75,0,0
1,79,61,30
1,74,51,0
1,74,0,90
1,79,0,0
1,74,55,30
1,78,55,0
1,81,64,0
1,81,0,90
1,78,0,0
1,74,0,0
1,74,57,30
1,79,57,0
1,83,68,0
1,83,0,90
1,79,0,0
1,74,0,0
1,74,60,30
1,83,71,0
1,79,60,0
1,79,0,90
1,83,0,0
1,74,0,0
1,75,63,30
1,79,63,0
1,84,75,0
1,84,0,90
1,79,0,0
1,75,0,0
1,77,67,30
1,83,67,0
1,86,79,0
1,86,0,90
1,83,0,0
1,77,0,0
1,79,69,30
1,84,69,0
1,87,82,0
1,87,0,90
1,84,0,0
1,79,0,0
1,88,85,30
1,84,72,0
1,79,72,0
1,79,0,90
1,84,0,0
1,88,0,0
1,88,89,30
1,84,74,0
1,79,74,0
1,79,0,120
1,84,0,0
1,88,0,0
1,89,92,360
1,77,92,0
1,84,92,0
1,84,0,120
1,77,0,0
1,89,0,0
1,70,65,360
1,75,84,0
1,75,0,720
1,77,85,0
1,77,0,120
1,78,93,120
1,70,0,240
1,70,61,0
1,70,0,120
1,69,52,0
1,69,0,120
1,70,61,0
1,70,0,120
1,69,54,0
1,69,0,120
1,70,61,0
1,70,0,120
1,69,54,0
1,69,0,120
1,78,0,0
1,70,65,0
1,75,84,0
1,75,0,720
1,77,85,0
1,77,0,120
1,79,93,120
1,70,0,240
1,70,61,0
1,70,0,120
1,69,52,0
1,69,0,120
1,70,61,0
1,70,0,120
1,69,54,0
1,69,0,120
1,70,61,0
1,70,0,120
1,69,54,0
1,69,0,120
1,79,0,0
1,78,70,0
1,78,0,240
1,70,51,0
1,70,0,120
1,69,44,0
1,69,0,120
1,70,51,0
1,70,0,120
1,69,43,0
1,69,0,120
1,70,51,0
1,70,0,120
1,69,45,0
1,69,0,120
1,77,70,0
1,77,0,240
1,72,51,0
1,72,0,120
1,71,44,0
1,71,0,120
1,72,51,0
1,72,0,120
1,71,43,0
1,71,0,120
1,72,51,0
1,72,0,120
1,71,45,0
1,71,0,120
1,77,70,0
1,77,0,120
1,74,51,120
1,74,0,120
1,72,44,0
1,72,0,120
1,77,70,0
1,77,0,120
1,72,51,120
1,72,0,120
1,70,44,0
1,70,0,120
1,77,70,0
1,77,0,120
1,70,51,120
1,70,0,120
1,69,44,0
1,69,0,120
1,77,70,0
1,77,0,120
1,72,51,120
1,72,0,120
1,70,44,0
1,70,0,120
1,78,70,0
1,78,0,240
1,70,51,0
1,70,0,120
1,69,44,0
1,69,0,120
1,70,51,0
1,70,0,120
1,69,43,0
1,69,0,120
1,70,51,0
1,70,0,120
1,69,45,0
1,69,0,120
1,77,70,0
1,77,0,240
1,72,51,0
1,72,0,120
1,71,44,0
1,71,0,120
1,72,51,0
1,72,0,120
1,71,43,0
1,71,0,120
1,72,51,0
1,72,0,120
1,71,45,0
1,71,0,120
1,77,70,0
1,77,0,120
1,74,51,120
1,74,0,120
1,72,44,0
1,72,0,120
1,77,70,0
1,77,0,120
1,72,51,120
1,72,0,120
1,71,44,0
1,71,0,120
1,77,70,0
1,77,0,120
1,74,51,120
1,74,0,120
1,72,44,0
1,72,0,120
1,77,64,0
1,77,0,240
1,72,59,0
1,75,70,0
1,65,45,240
1,75,0,240
1,72,0,0
1,74,65,0
1,70,55,0
1,70,0,240
1,74,0,0
1,65,0,0
1,72,65,0
1,69,55,0
1,69,0,240
1,72,0,0
1,84,59,0
1,87,70,0
1,77,45,240
1,87,0,240
1,84,0,0
1,82,55,0
1,86,65,0
1,86,0,240
1,82,0,0
1,77,0,0
1,84,65,0
1,81,55,0
1,81,0,240
1,84,0,0
1,91,77,0
1,84,64,0
1,81,64,0
1,81,0,240
1,84,0,0
1,77,65,0
1,82,65,0
1,82,0,240
1,77,0,0
1,91,0,0
1,77,63,0
1,89,75,0
1,82,63,0
1,82,0,240
1,89,0,0
1,77,0,0
1,79,69,0
1,82,69,0
1,82,0,240
1,79,0,0
1,87,79,0
1,84,67,0
1,81,67,0
1,81,0,240
1,84,0,0
1,87,0,0
1,86,88,0
1,77,49,120
1,77,0,120
1,79,55,0
1,79,0,120
1,77,50,0
1,77,0,120
1,79,55,0
1,79,0,120
1,77,47,0
1,77,0,120
1,79,55,0
1,79,0,120
1,77,48,0
1,77,0,120
1,86,0,0
1,84,80,0
1,75,46,120
1,75,0,120
1,77,54,0
1,77,0,120
1,75,50,0
1,75,0,120
1,77,53,0
1,77,0,120
1,75,47,0
1,75,0,120
1,77,53,0
1,77,0,120
1,75,48,0
1,75,0,120
1,84,0,0
1,82,70,0
1,74,53,0
1,74,0,120
1,70,48,0
1,70,0,120
1,72,53,0
1,72,0,120
1,70,48,0
1,70,0,120
1,82,0,0
1,79,68,0
1,70,48,120
1,70,0,120
1,79,0,0
1,77,60,0
1,70,48,120
1,70,0,120
1,77,0,0
1,77,68,0
1,70,53,0
1,70,0,120
1,65,48,0
1,65,0,120
1,77,0,0
1,69,53,0
1,75,58,0
1,69,0,120
1,65,48,0
1,65,0,120
1,75,0,0
1,70,53,0
1,74,66,0
1,70,0,120
1,65,48,0
1,65,0,120
1,74,0,0
1,72,57,0
1,65,48,120
1,65,0,120
1,72,0,0
1,74,79,0
1,65,44,120
1,65,0,120
1,67,49,0
1,67,0,120
1,65,45,0
1,65,0,120
1,67,49,0
1,67,0,120
1,65,42,0
1,65,0,120
1,67,49,0
1,67,0,120
1,65,43,0
1,65,0,120
1,74,0,0
1,72,72,0
1,63,41,120
1,63,0,120
1,65,48,0
1,65,0,120
1,63,45,0
1,63,0,120
1,65,47,0
1,65,0,120
1,63,42,0
1,63,0,120
1,65,47,0
1,65,0,120
1,63,43,0
1,63,0,120
1,72,0,0
1,70,63,0
1,62,47,0
1,62,0,120
1,58,43,0
1,58,0,120
1,60,47,0
1,60,0,120
1,58,43,0
1,58,0,120
1,70,0,0
1,67,61,0
1,58,43,120
1,58,0,120
1,67,0,0
1,65,54,0
1,58,43,120
1,58,0,120
1,65,0,0
1,58,47,0
1,65,61,0
1,58,0,120
1,53,43,0
1,53,0,120
1,65,0,0
1,63,52,0
1,57,47,0
1,57,0,120
1,53,43,0
1,53,0,120
1,63,0,0
1,58,47,0
1,62,59,0
1,58,0,120
1,53,43,0
1,53,0,120
1,62,0,0
1,60,51,0
1,53,43,120
1,53,0,120
1,60,0,0
1,58,57,0
1,54,46,120
1,50,55,120
1,50,0,240
1,54,0,0
1,58,0,120
1,53,47,10
1,50,47,110
1,53,0,10
1,50,0,110
1,58,47,0
1,58,0,240
1,58,47,0
1,58,0,120
1,57,51,0
1,57,0,120
1,58,49,0
1,58,0,120
1,60,52,0
1,60,0,120
1,62,44,0
1,62,0,120
1,63,51,0
1,63,0,120
1,60,47,0
1,60,0,120
1,70,57,0
1,66,46,120
1,62,55,120
1,62,0,240
1,66,0,0
1,70,0,120
1,65,47,10
1,62,47,110
1,65,0,10
1,62,0,110
1,70,47,0
1,65,47,120
1,70,0,120
1,70,47,0
1,70,0,120
1,69,51,0
1,69,0,120
1,70,49,0
1,70,0,120
1,65,0,0
1,72,52,0
1,72,0,120
1,74,44,0
1,74,0,120
1,75,51,0
1,75,0,120
1,72,47,0
1,72,0,120
1,74,51,0
1,74,0,120
1,72,42,0
1,72,0,120
1,70,49,0
1,70,0,360
1,67,41,0
1,67,0,120
1,65,48,0
1,65,0,360
1,63,42,0
1,63,0,120
1,62,48,0
1,62,0,360
1,60,42,0
1,60,0,120
1,58,47,0
1,58,0,360
1,55,41,0
1,55,0,120
1,53,47,0
1,53,0,360
1,51,38,0
1,51,0,120
1,50,43,0
1,50,0,360
1,48,37,0
1,48,0,120
1,46,44,0
1,46,0,360
1,48,36,0
1,48,0,120
