track,note,velocity,time
1,58,42,1440
1,62,50,0
1,58,0,120
1,57,40,0
1,57,0,120
1,58,45,0
1,58,0,120
1,53,39,0
1,53,0,120
1,62,0,0
1,62,35,0
1,65,42,0
1,65,0,90
1,62,0,0
1,58,32,390
1,62,38,0
1,62,0,90
1,58,0,0
1,58,42,870
1,62,50,0
1,58,0,120
1,57,40,0
1,57,0,120
1,58,45,0
1,58,0,120
1,53,39,0
1,53,0,120
1,62,0,0
1,62,35,0
1,65,42,0
1,65,0,90
1,62,0,0
1,58,32,390
1,62,38,0
1,62,0,90
1,58,0,0
1,62,50,870
1,58,42,0
1,57,40,120
1,58,0,12
1,62,0,108
1,58,46,0
1,57,0,12
1,53,40,108
1,58,0,12
1,53,0,108
1,65,53,0
1,62,44,0
1,61,42,120
1,62,0,12
1,65,0,108
1,62,49,0
1,61,0,12
1,58,42,108
1,62,0,12
1,58,0,108
1,65,47,0
1,70,56,0
1,64,45,120
1,65,0,12
1,70,0,108
1,65,51,0
1,64,0,12
1,62,45,108
1,65,0,12
1,62,0,108
1,70,49,0
1,74,59,0
1,69,47,120
1,70,0,12
1,74,0,108
1,70,54,0
1,69,0,12
1,65,47,108
1,70,0,12
1,65,0,108
1,74,52,0
1,77,62,0
1,73,50,120
1,74,0,12
1,77,0,108
1,74,57,0
1,73,0,12
1,70,49,108
1,74,0,12
1,70,0,108
1,82,72,0
1,82,0,1440
1,81,60,0
1,81,0,120
1,82,57,0
1,82,0,120
1,84,60,0
1,84,0,120
1,82,54,0
1,82,0,120
1,81,60,0
1,81,0,240
1,79,51,0
1,79,0,240
1,77,54,0
1,77,0,240
1,75,50,0
1,75,0,240
1,74,59,0
1,74,0,240
1,72,48,0
1,72,0,240
1,79,56,0
1,79,0,240
1,77,47,0
1,77,0,240
1,75,54,0
1,75,0,480
1,74,47,0
1,74,0,480
1,69,58,480
1,69,0,120
1,70,54,0
1,70,0,120
1,72,58,0
1,72,0,120
1,70,54,0
1,70,0,120
1,68,60,0
1,68,0,240
1,67,54,0
1,67,0,240
1,65,66,0
1,65,0,240
1,63,61,0
1,63,0,240
1,62,69,0
1,62,0,240
1,60,62,0
1,60,0,240
1,63,73,0
1,63,0,240
1,57,63,0
1,57,0,240
1,58,79,0
1,58,0,120
1,62,68,120
1,62,0,120
1,60,65,0
1,60,0,120
1,58,71,0
1,58,0,120
1,57,65,0
1,57,0,120
1,58,71,0
1,58,0,120
1,55,65,0
1,55,0,120
1,53,79,0
1,53,0,120
1,67,68,120
1,67,0,120
1,65,65,0
1,65,0,120
1,63,71,0
1,63,0,120
1,62,65,0
1,62,0,120
1,63,71,0
1,63,0,120
1,60,65,0
1,60,0,120
1,58,79,0
1,58,0,120
1,74,68,120
1,74,0,120
1,72,65,0
1,72,0,120
1,70,71,0
1,70,0,120
1,69,65,0
1,69,0,120
1,70,71,0
1,70,0,120
1,67,65,0
1,67,0,120
1,65,79,0
1,65,0,120
1,79,78,120
1,79,0,120
1,77,74,0
1,77,0,120
1,75,81,0
1,75,0,120
1,74,74,0
1,74,0,120
1,75,81,0
1,75,0,120
1,72,74,0
1,72,0,120
1,70,90,0
1,70,0,120
1,72,68,120
1,72,0,120
1,74,68,0
1,74,0,120
1,75,77,0
1,75,0,120
1,77,70,0
1,77,0,120
1,79,70,0
1,79,0,120
1,81,71,0
1,81,0,120
1,82,73,0
1,82,0,30
1,84,65,0
1,84,0,30
1,82,81,0
1,82,0,60
1,81,72,0
1,81,0,120
1,82,73,0
1,82,0,120
1,84,74,0
1,84,0,120
1,86,74,0
1,86,0,30
1,87,66,0
1,87,0,30
1,86,83,0
1,84,75,60
1,86,0,60
1,84,0,60
1,86,76,0
1,86,0,120
1,88,76,0
1,88,0,120
1,89,92,0
1,89,0,120
1,65,79,360
1,65,0,120
1,77,75,4200
1,71,56,1440
1,71,0,480
1,77,0,0
1,72,44,0
1,75,53,0
1,75,0,480
1,72,0,0
1,69,41,0
1,74,49,0
1,69,0,480
1,70,55,0
1,70,0,480
1,74,0,0
1,67,41,0
1,72,49,0
1,67,0,480
1,69,55,0
1,69,0,480
1,72,0,0
1,65,42,0
1,71,50,0
1,71,0,480
1,65,0,0
1,72,68,0
1,72,0,120
1,64,34,0
1,67,40,0
1,67,0,120
1,64,0,0
1,72,62,0
1,72,0,120
1,64,33,0
1,67,39,0
1,67,0,120
1,64,0,0
1,72,64,0
1,72,0,120
1,64,34,0
1,67,41,0
1,67,0,120
1,64,0,0
1,74,68,0
1,74,0,120
1,64,34,0
1,67,40,0
1,67,0,120
1,64,0,0
1,76,62,0
1,76,0,120
1,67,38,0
1,70,45,0
1,70,0,120
1,67,0,0
1,72,68,0
1,72,0,120
1,67,38,0
1,70,45,0
1,70,0,120
1,67,0,0
1,74,68,0
1,74,0,120
1,67,38,0
1,70,45,0
1,70,0,120
1,67,0,0
1,76,70,0
1,76,0,120
1,67,38,0
1,70,45,0
1,70,0,120
1,67,0,0
1,77,68,0
1,77,0,120
1,65,34,0
1,69,40,0
1,69,0,120
1,65,0,0
1,77,62,0
1,77,0,120
1,65,33,0
1,69,39,0
1,69,0,120
1,65,0,0
1,77,64,0
1,77,0,120
1,65,34,0
1,69,41,0
1,69,0,120
1,65,0,0
1,76,68,0
1,76,0,120
1,65,34,0
1,69,40,0
1,69,0,120
1,65,0,0
1,74,62,0
1,74,0,120
1,65,38,0
1,68,45,0
1,68,0,120
1,65,0,0
1,72,68,0
1,72,0,120
1,65,38,0
1,68,45,0
1,68,0,120
1,65,0,0
1,71,68,0
1,71,0,120
1,65,38,0
1,68,45,0
1,68,0,120
1,65,0,0
1,74,70,0
1,74,0,120
1,65,38,0
1,68,45,0
1,68,0,120
1,65,0,0
1,72,68,0
1,72,0,120
1,64,34,0
1,67,40,0
1,67,0,120
1,64,0,0
1,71,62,0
1,71,0,120
1,64,33,0
1,67,39,0
1,67,0,120
1,64,0,0
1,72,64,0
1,72,0,120
1,64,34,0
1,67,41,0
1,67,0,120
1,64,0,0
1,74,68,0
1,74,0,120
1,64,34,0
1,67,40,0
1,67,0,120
1,64,0,0
1,76,62,0
1,76,0,120
1,67,38,0
1,70,45,0
1,70,0,120
1,67,0,0
1,72,68,0
1,72,0,120
1,67,38,0
1,70,45,0
1,70,0,120
1,67,0,0
1,74,68,0
1,74,0,120
1,67,38,0
1,70,45,0
1,70,0,120
1,67,0,0
1,76,70,0
1,76,0,120
1,67,38,0
1,70,45,0
1,70,0,120
1,67,0,0
1,77,68,0
1,77,0,120
1,65,34,0
1,69,40,0
1,69,0,120
1,65,0,0
1,77,62,0
1,77,0,120
1,65,33,0
1,69,39,0
1,69,0,120
1,65,0,0
1,77,64,0
1,77,0,120
1,65,34,0
1,69,41,0
1,69,0,120
1,65,0,0
1,76,68,0
1,76,0,120
1,65,34,0
1,69,40,0
1,69,0,120
1,65,0,0
1,74,62,0
1,74,0,120
1,65,38,0
1,68,45,0
1,68,0,120
1,65,0,0
1,72,68,0
1,72,0,120
1,65,38,0
1,68,45,0
1,68,0,120
1,65,0,0
1,71,68,0
1,71,0,120
1,65,38,0
1,68,45,0
1,68,0,120
1,65,0,0
1,74,70,0
1,74,0,120
1,65,38,0
1,68,45,0
1,68,0,120
1,65,0,0
1,72,78,0
1,72,0,120
1,64,38,0
1,67,45,0
1,67,0,120
1,64,0,0
1,72,68,0
1,72,0,120
1,64,38,0
1,67,45,0
1,67,0,120
1,64,0,0
1,71,68,0
1,71,0,120
1,65,38,0
1,68,45,0
1,68,0,120
1,65,0,0
1,74,70,0
1,74,0,120
1,65,38,0
1,68,45,0
1,68,0,120
1,65,0,0
1,72,76,0
1,72,0,120
1,64,38,0
1,67,45,0
1,67,0,120
1,64,0,0
1,72,68,0
1,72,0,120
1,64,38,0
1,67,45,0
1,67,0,120
1,64,0,0
1,71,68,0
1,71,0,120
1,65,38,0
1,68,45,0
1,68,0,120
1,65,0,0
1,74,70,0
1,74,0,120
1,65,38,0
1,68,45,0
1,68,0,120
1,65,0,0
1,64,59,0
1,67,59,0
1,72,70,0
1,72,0,120
1,67,0,0
1,64,0,0
1,60,35,0
1,62,40,120
1,60,0,12
1,64,35,108
1,62,0,12
1,65,40,108
1,64,0,12
1,67,35,108
1,65,0,12
1,69,40,108
1,67,0,12
1,71,33,108
1,69,0,12
1,72,40,108
1,71,0,12
1,71,33,108
1,72,0,12
1,72,40,108
1,71,0,12
1,71,33,108
1,72,0,12
1,72,40,108
1,71,0,12
1,71,34,108
1,72,0,12
1,72,40,108
1,71,0,12
1,71,33,108
1,72,0,12
1,71,0,108
1,69,38,0
1,72,43,0
1,72,0,960
1,69,0,0
1,69,49,0
1,69,0,480
1,77,47,0
1,77,0,480
1,69,41,0
1,72,49,0
1,72,0,480
1,69,0,0
1,81,43,0
1,77,36,0
1,77,0,480
1,81,0,0
1,69,42,0
1,72,50,0
1,72,0,480
1,69,0,0
1,84,43,0
1,81,36,0
1,81,0,480
1,84,0,0
1,69,38,0
1,72,43,0
1,72,0,960
1,69,0,0
1,69,49,0
1,69,0,480
1,77,46,0
1,77,0,480
1,69,41,0
1,72,49,0
1,72,0,480
1,69,0,0
1,81,43,0
1,77,36,0
1,77,0,480
1,81,0,0
1,69,42,0
1,72,50,0
1,72,0,480
1,69,0,0
1,84,43,0
1,81,36,0
1,81,0,480
1,84,0,0
1,69,41,0
1,72,41,0
1,74,49,0
1,78,49,0
1,78,0,960
1,69,0,0
1,72,0,0
1,74,0,0
1,78,70,1440
1,78,0,480
1,81,68,0
1,81,0,480
1,84,66,0
1,78,72,480
1,84,0,480
1,82,73,0
1,78,0,480
1,79,75,0
1,73,66,480
1,73,0,480
1,72,74,0
1,79,0,480
1,82,0,0
1,81,67,0
1,77,57,0
1,77,0,480
1,81,0,0
1,72,0,0
1,70,61,0
1,74,61,0
1,79,72,0
1,79,0,480
1,74,0,0
1,70,0,0
1,67,53,0
1,70,53,0
1,76,64,0
1,76,0,480
1,70,0,0
1,67,0,0
1,65,64,0
1,69,64,0
1,77,77,0
1,77,0,240
1,69,0,0
1,65,0,0
1,65,73,720
1,69,88,0
1,65,0,950
1,69,0,10
1,62,57,0
1,65,68,0
1,62,0,470
1,65,0,10
1,58,59,0
1,62,70,0
1,62,0,240
1,58,0,0
1,67,73,240
1,70,88,0
1,70,0,720
1,67,0,0
1,65,57,0
1,69,68,0
1,69,0,240
1,65,0,0
1,67,77,0
1,64,64,0
1,64,0,470
1,67,0,10
1,60,57,0
1,64,68,0
1,64,0,240
1,60,0,0
1,69,73,240
1,72,88,0
1,69,0,950
1,72,0,10
1,65,57,0
1,69,68,0
1,65,0,470
1,69,0,10
1,62,59,0
1,65,70,0
1,65,0,240
1,62,0,0
1,70,73,240
1,74,88,0
1,74,0,720
1,70,0,0
1,69,57,0
1,72,68,0
1,72,0,240
1,69,0,0
1,70,77,0
1,67,64,0
1,67,0,470
1,70,0,10
1,64,57,0
1,67,68,0
1,67,0,240
1,64,0,0
1,70,73,240
1,79,88,0
1,79,0,720
1,70,0,0
1,69,57,0
1,77,68,0
1,77,0,240
1,69,0,0
1,67,73,0
1,76,88,0
1,76,0,720
1,67,0,0
1,65,57,0
1,74,68,0
1,74,0,240
1,65,0,0
1,64,51,0
1,72,60,0
1,72,0,480
1,64,0,0
1,58,44,0
1,70,52,0
1,70,0,480
1,58,0,0
1,57,49,0
1,69,58,0
1,69,0,480
1,57,0,0
1,61,39,0
1,67,46,0
1,67,0,480
1,61,0,0
1,62,45,0
1,65,53,0
1,65,0,480
1,62,0,0
1,53,40,0
1,55,40,0
1,62,48,0
1,62,0,480
1,55,0,0
1,53,0,0
1,53,32,480
1,57,32,0
1,60,38,0
1,60,0,240
1,57,0,0
1,53,0,0
1,48,31,720
1,52,31,0
1,55,31,0
1,60,37,0
1,60,0,240
1,48,0,0
1,52,0,0
1,55,0,0
1,57,35,720
1,53,29,0
1,48,29,0
1,48,0,450
1,53,0,0
1,57,0,0
1,65,55,270
1,69,66,0
1,69,0,480
1,65,0,0
1,65,43,0
1,69,51,0
1,69,0,120
1,65,0,0
1,62,41,360
1,65,49,0
1,65,0,120
1,62,0,0
1,58,38,360
1,62,45,0
1,62,0,120
1,58,0,0
1,67,60,360
1,70,73,0
1,70,0,480
1,67,0,0
1,65,43,0
1,69,51,0
1,69,0,120
1,65,0,0
1,64,41,360
1,67,49,0
1,67,0,120
1,64,0,0
1,60,38,360
1,64,45,0
1,64,0,120
1,60,0,0
1,69,60,360
1,72,72,0
1,72,0,480
1,69,0,0
1,69,47,0
1,72,56,0
1,72,0,120
1,69,0,0
1,65,45,360
1,69,53,0
1,69,0,120
1,65,0,0
1,62,41,360
1,65,49,0
1,65,0,120
1,62,0,0
1,70,68,360
1,74,84,0
1,74,0,480
1,70,0,0
1,69,49,0
1,72,58,0
1,72,0,120
1,69,0,0
1,67,47,360
1,70,55,0
1,70,0,120
1,67,0,0
1,64,43,360
1,67,51,0
1,67,0,120
1,64,0,0
1,70,79,360
1,79,96,0
1,79,0,480
1,70,0,0
1,69,56,0
1,77,67,0
1,77,0,120
1,69,0,0
1,67,79,360
1,76,96,0
1,76,0,480
1,67,0,0
1,65,56,0
1,74,67,0
1,74,0,120
1,65,0,0
1,64,44,360
1,72,52,0
1,72,0,120
1,64,0,0
1,58,39,360
1,70,46,0
1,70,0,120
1,58,0,0
1,69,54,120
1,69,0,120
1,57,46,0
1,57,0,120
1,61,43,0
1,61,0,120
1,64,43,0
1,64,0,120
1,69,53,0
1,69,0,120
1,73,42,0
1,73,0,120
1,76,42,0
1,76,0,120
1,80,42,0
1,80,0,120
1,81,49,0
1,81,0,120
1,80,39,0
1,80,0,120
1,81,42,0
1,81,0,120
1,80,38,0
1,80,0,120
1,81,48,0
1,81,0,120
1,76,38,0
1,76,0,120
1,73,38,0
1,73,0,120
1,69,38,0
1,69,0,120
1,57,46,120
1,57,0,120
1,62,43,0
1,62,0,120
1,65,43,0
1,65,0,120
1,69,53,0
1,69,0,120
1,74,42,0
1,74,0,120
1,77,42,0
1,77,0,120
1,80,42,0
1,80,0,120
1,81,49,0
1,81,0,120
1,80,39,0
1,80,0,120
1,81,42,0
1,81,0,120
1,80,38,0
1,80,0,120
1,81,48,0
1,81,0,120
1,77,38,0
1,77,0,120
1,74,38,0
1,74,0,120
1,69,38,0
1,69,0,120
1,56,46,120
1,56,0,120
1,59,43,0
1,59,0,120
1,62,43,0
1,62,0,120
1,65,50,0
1,65,0,120
1,68,42,0
1,68,0,120
1,71,42,0
1,71,0,120
1,74,42,0
1,74,0,120
1,77,49,0
1,77,0,120
1,74,41,0
1,74,0,120
1,80,48,0
1,80,0,120
1,77,41,0
1,77,0,120
1,74,48,0
1,74,0,120
1,71,45,0
1,71,0,120
1,68,42,0
1,68,0,120
1,65,39,0
1,65,0,120
1,64,48,120
1,64,0,120
1,67,50,0
1,67,0,120
1,70,51,0
1,70,0,120
1,73,53,0
1,73,0,120
1,76,55,0
1,76,0,120
1,79,57,0
1,79,0,120
1,82,59,0
1,82,0,120
1,85,65,0
1,85,0,120
1,88,57,0
1,88,0,120
1,76,64,0
1,76,0,120
1,88,56,0
1,88,0,120
1,76,64,0
1,76,0,120
1,88,58,0
1,88,0,120
1,76,64,0
1,76,0,120
1,88,59,0
1,88,0,120
1,77,74,0
1,77,0,120
1,89,59,0
1,89,0,120
1,76,67,0
1,76,0,120
1,88,54,0
1,88,0,120
1,77,66,0
1,77,0,120
1,89,57,0
1,89,0,120
1,70,59,0
1,70,0,120
1,82,50,0
1,82,0,120
1,69,79,0
1,69,0,120
1,81,54,0
1,81,0,120
1,76,65,0
1,76,0,120
1,88,57,0
1,88,0,120
1,77,68,0
1,77,0,120
1,89,60,0
1,89,0,120
1,70,67,0
1,70,0,120
1,82,58,0
1,82,0,120
1,69,81,0
1,69,0,120
1,81,58,0
1,81,0,120
1,76,64,0
1,76,0,120
1,88,59,0
1,88,0,120
