track,note,velocity,time
4,50,127,3982
4,59,127,48
4,59,127,20
4,59,127,22
4,59,127,24
4,59,127,24
4,62,127,96
4,62,127,36
4,43,127,188
4,55,127,48
4,57,127,90
4,55,127,8
4,59,127,12
4,57,127,144
4,57,127,30
4,59,127,96
4,57,127,6
4,55,127,20
4,52,127,96
4,55,127,48
4,59,127,20
4,57,127,48
4,55,127,18
4,55,127,12
4,52,127,48
4,50,127,34
4,50,127,596
4,59,127,48
4,59,127,20
4,59,127,22
4,59,127,24
4,59,127,24
4,62,127,96
4,62,127,36
4,43,127,188
4,55,127,48
4,57,127,90
4,55,127,8
4,59,127,12
4,57,127,144
4,57,127,30
4,59,127,96
4,57,127,6
4,55,127,20
4,50,127,0
4,52,127,48
4,55,127,46
4,59,127,20
4,57,127,96
4,55,127,16
4,55,127,36
4,62,127,288
4,62,127,30
4,64,127,2
4,59,127,6
4,57,127,48
4,59,127,12
4,64,127,44
4,62,127,6
4,60,127,0
4,59,127,48
4,57,127,94
4,55,127,6
4,50,127,528
4,59,127,0
4,57,127,48
4,57,127,38
4,55,127,144
4,59,127,8
4,57,127,48
4,50,127,714
4,59,127,48
4,59,127,20
4,59,127,22
4,59,127,24
4,59,127,24
4,62,127,96
4,62,127,36
4,43,127,188
4,55,127,48
4,57,127,90
4,55,127,8
4,59,127,12
4,57,127,144
4,57,127,30
4,59,127,96
4,57,127,6
4,50,127,164
4,52,127,0
4,55,127,48
4,59,127,20
4,57,127,96
4,55,127,4
4,55,127,36
4,50,127,3792
4,59,127,48
4,59,127,20
4,59,127,22
4,59,127,24
4,59,127,24
4,62,127,96
4,62,127,36
4,43,127,188
4,55,127,48
4,57,127,90
4,55,127,8
4,59,127,12
4,57,127,144
4,57,127,30
4,59,127,96
4,57,127,6
4,55,127,20
4,52,127,96
4,55,127,48
4,59,127,20
4,57,127,48
4,55,127,18
4,55,127,12
4,52,127,48
4,50,127,34
4,50,127,596
4,59,127,48
4,59,127,20
4,59,127,22
4,59,127,24
4,59,127,24
4,62,127,96
4,62,127,36
4,43,127,188
4,55,127,48
4,57,127,90
4,55,127,8
4,59,127,12
4,57,127,144
4,57,127,30
4,59,127,96
4,57,127,6
4,55,127,20
4,50,127,0
4,52,127,48
4,55,127,46
4,59,127,20
4,57,127,96
4,55,127,16
4,55,127,36
4,62,127,288
4,62,127,30
4,64,127,2
4,59,127,6
4,57,127,48
4,59,127,12
4,64,127,44
4,62,127,6
4,60,127,0
4,59,127,48
4,57,127,94
4,55,127,6
4,50,127,528
4,59,127,0
4,57,127,48
4,57,127,38
4,55,127,144
4,59,127,8
4,57,127,48
4,50,127,714
4,59,127,48
4,59,127,20
4,59,127,22
4,59,127,24
4,59,127,24
4,62,127,96
4,62,127,36
4,43,127,188
4,55,127,48
4,57,127,90
4,55,127,8
4,59,127,12
4,57,127,144
4,57,127,30
4,59,127,96
4,57,127,6
4,50,127,164
4,52,127,48
4,55,127,44
4,59,127,10
4,57,127,96
4,55,127,4
4,62,127,0
4,64,127,192
4,59,127,10
4,57,127,48
4,59,127,0
4,50,127,334
4,52,127,2
4,55,127,48
4,59,127,38
4,57,127,96
4,55,127,10
4,57,127,96
4,55,127,64
5,38,121,6814
5,41,121,28
5,47,124,8
5,47,122,26
5,42,121,8
5,38,120,16
5,31,119,288
5,36,122,10
5,38,123,384
5,31,126,2
5,35,123,72
5,40,124,12
5,36,121,14
5,31,123,8
5,40,124,8
5,33,121,4
5,38,121,64
5,45,121,8
5,50,119,2
5,38,122,102
5,33,121,0
5,35,121,42
5,40,120,6
5,38,121,18
5,36,118,32
5,38,121,28
5,31,123,20
5,31,123,62
5,33,122,288
5,34,117,40
5,35,123,40
5,40,124,12
5,36,121,14
5,31,123,8
5,40,124,8
5,33,121,4
5,38,121,64
5,45,121,8
5,50,119,2
5,43,126,198
5,47,126,20
5,40,123,4
5,31,126,384
5,36,126,0
5,36,126,34
5,31,125,42
5,36,124,288
5,31,126,56
5,35,125,12
5,40,125,2
5,31,126,6
5,33,125,192
5,34,124,92
5,36,123,82
5,38,126,4
5,31,126,384
5,31,126,82
5,33,121,192
5,34,123,92
5,35,123,90
5,40,124,12
5,36,121,14
5,31,123,8
5,40,124,8
5,33,121,4
5,38,121,64
5,45,121,8
5,50,119,2
5,43,126,198
5,47,126,20
5,40,123,4
5,31,126,384
5,36,126,0
5,38,126,82
5,38,125,90
5,31,126,6
5,33,126,0
5,34,123,96
5,36,126,6
5,38,126,384
5,50,125,8846
5,45,121,2
5,38,121,90
5,31,121,0
5,35,121,50
5,40,120,6
5,38,121,18
5,36,118,32
5,38,121,28
5,31,123,20
5,31,123,62
5,33,122,288
5,34,117,40
5,31,121,0
5,35,121,50
5,40,120,6
5,38,121,18
5,36,118,32
5,38,121,28
5,31,123,20
6,38,121,6814
6,41,121,28
6,47,124,8
6,47,122,26
6,42,121,8
6,38,120,16
6,31,119,288
6,36,122,10
6,38,123,384
6,31,126,2
6,35,123,72
6,40,124,12
6,36,121,14
6,31,123,8
6,40,124,8
6,33,121,4
6,38,121,64
6,45,121,8
6,50,119,2
6,38,122,102
6,33,121,0
6,35,121,42
6,40,120,6
6,38,121,18
6,36,118,32
6,38,121,28
6,31,123,20
6,31,123,62
6,33,122,288
6,34,117,40
6,35,123,40
6,40,124,12
6,36,121,14
6,31,123,8
6,40,124,8
6,33,121,4
6,38,121,64
6,45,121,8
6,50,119,2
6,43,126,198
6,47,126,20
6,40,123,4
6,31,126,384
6,36,126,0
6,36,126,34
6,31,125,42
6,36,124,288
6,31,126,56
6,35,125,12
6,40,125,2
6,31,126,6
6,33,125,192
6,34,124,92
6,36,123,82
6,38,126,4
6,31,126,384
6,31,126,82
6,33,121,192
6,34,123,92
6,35,123,90
6,40,124,12
6,36,121,14
6,31,123,8
6,40,124,8
6,33,121,4
6,38,121,64
6,45,121,8
6,50,119,2
6,43,126,198
6,47,126,20
6,40,123,4
6,31,126,384
6,36,126,0
6,38,126,82
6,38,125,90
6,31,126,6
6,33,126,0
6,34,123,96
6,36,126,6
6,38,126,384
6,50,125,8846
6,45,121,2
6,38,121,90
6,31,121,0
6,35,121,50
6,40,120,6
6,38,121,18
6,36,118,32
6,38,121,28
6,31,123,20
6,31,123,62
6,33,122,288
6,34,117,40
6,31,121,0
6,35,121,50
6,40,120,6
6,38,121,18
6,36,118,32
6,38,121,28
6,31,123,20
7,59,123,8
7,62,121,16
7,62,122,20
7,64,116,144
7,59,122,2
7,59,118,6
7,57,120,8
7,55,116,0
7,59,115,48
7,60,118,18
7,59,121,16
7,57,119,14
7,55,116,76
7,50,117,0
7,57,122,48
7,55,115,40
7,59,121,6
7,62,120,20
7,64,116,10
7,67,126,144
7,64,119,4
7,64,123,2
7,62,115,48
7,64,124,4
7,62,115,24
7,50,116,144
7,59,120,18
7,57,110,48
7,50,122,5484
7,52,119,0
7,55,116,48
7,57,121,82
7,55,109,6
7,59,122,48
7,62,121,4
7,64,112,48
7,62,125,40
7,59,118,12306
7,62,117,48
7,62,124,18
7,59,114,0
7,50,112,2
7,55,121,0
7,52,123,336
7,55,122,48
7,57,113,0
7,52,119,0
7,55,119,22
7,59,124,522
7,62,119,48
7,62,117,20
7,64,122,12
7,62,121,54
7,64,118,94
7,67,112,42
7,64,114,40
7,59,115,4
7,62,119,48
7,69,122,360
7,70,123,500
7,69,113,0
7,65,122,48
7,69,118,34
7,67,119,48
7,64,119,44
7,55,115,16
7,57,115,240
7,55,114,44
7,57,119,42
7,55,121,94
7,55,117,14
7,55,118,24
7,59,125,6
7,62,120,26
7,62,124,26
7,65,120,2
7,69,120,32
7,67,125,0
7,69,122,24
7,69,117,2
7,69,110,4
7,69,119,2
7,69,120,2
7,67,116,0
7,69,121,0
7,67,122,32
7,70,124,2
7,69,121,2
7,67,120,22
7,69,119,32
7,67,106,60
7,69,110,134
7,67,105,40
8,47,120,9982
8,50,114,88
8,54,111,40
8,59,111,10
8,52,113,10
8,55,114,88
8,59,113,96
8,64,109,96
8,48,114,70
8,52,112,74
8,55,109,96
8,60,108,0
8,43,115,70
8,47,114,82
8,55,112,56
8,64,112,172
8,57,108,0
8,62,115,96
8,57,117,6
8,64,116,30
8,57,104,0
8,61,123,60
8,59,106,12
8,57,117,64
8,64,110,30
8,67,120,4
8,66,115,0
8,62,116,0
8,66,120,16
8,66,117,8
8,55,121,64
8,62,113,4
8,59,116,96
8,57,115,68
8,59,117,26
8,62,114,96
8,66,114,0
8,62,110,0
8,59,113,8
8,64,116,36
8,67,112,144
8,71,114,0
8,67,107,96
8,62,113,4
8,65,111,48
8,69,113,48
8,65,115,42
8,62,111,80
8,60,114,38
8,64,110,96
8,67,110,4
8,64,110,96
8,62,115,0
8,67,115,192
8,55,108,26
8,53,108,0
8,59,112,92
8,62,113,96
8,66,118,174
8,62,120,0
8,59,114,0
8,66,104,42
8,59,108,0
8,62,109,0
8,66,113,62
8,62,115,0
8,59,111,0
8,66,106,52
8,59,109,0
8,62,112,0
8,64,112,72
8,67,118,0
8,71,114,0
8,64,104,54
8,71,104,0
8,67,105,0
8,67,101,28
8,64,100,0
8,71,102,0
8,67,116,30
8,64,113,0
8,71,114,0
8,67,115,68
8,71,112,0
8,64,110,0
8,64,118,4
8,60,112,0
8,67,116,0
8,67,100,38
8,64,102,0
8,60,97,0
8,64,101,32
8,67,98,0
8,60,97,0
8,64,110,28
8,60,108,0
8,67,108,0
8,64,104,26
8,60,104,0
8,67,104,0
8,64,115,32
8,60,112,0
8,67,115,0
8,62,112,80
8,59,114,0
8,55,110,0
8,62,100,42
8,59,102,0
8,55,99,0
8,59,104,32
8,55,103,0
8,62,103,0
8,59,108,32
8,55,106,0
8,62,106,0
8,59,106,64
8,55,106,0
8,62,106,0
8,62,110,8
8,64,108,0
8,57,106,0
8,62,110,36
8,64,109,0
8,57,104,0
8,62,102,22
8,57,99,0
8,64,97,0
8,62,112,36
8,64,111,0
8,57,108,0
8,57,108,54
8,62,113,0
8,64,113,0
8,57,107,60
8,64,110,0
8,61,115,0
8,57,101,32
8,61,96,0
8,57,97,30
8,61,96,0
8,64,110,34
8,59,120,0
8,61,114,48
8,61,120,28
8,57,117,0
8,64,110,0
8,67,113,76
8,62,109,0
8,71,106,0
8,69,106,0
8,69,110,40
8,67,112,0
8,62,107,0
8,69,105,22
8,62,102,0
8,67,103,0
8,67,117,34
8,69,114,0
8,62,110,0
8,69,115,62
8,67,117,0
8,62,111,0
8,66,123,64
8,69,115,0
8,62,110,0
8,55,117,30
8,62,112,96
8,59,119,88
8,57,115,76
8,59,124,90
8,62,120,90
8,66,106,92
8,64,114,12
8,67,122,96
8,71,120,2
8,62,113,8
8,65,118,96
8,67,121,82
8,69,113,42
8,67,116,44
8,60,114,92
8,64,112,86
8,67,111,96
8,64,112,84
8,60,111,2
8,62,116,24
8,64,120,34
8,55,119,80
8,59,112,96
8,62,112,10
8,60,116,6
8,64,119,76
8,62,116,8
8,60,120,28
8,55,120,10
8,59,113,76
8,62,120,44
8,57,117,12
8,55,120,30
8,59,120,4
8,62,120,26
8,66,117,10
8,62,120,28
8,59,115,10
8,64,120,116
8,69,120,20
8,67,121,16
8,62,120,2
8,65,114,30
8,67,116,18
8,69,115,18
8,67,119,24
8,60,115,92
8,64,112,8
8,67,110,4
8,64,110,0
8,60,115,96
8,64,103,72
8,62,122,14
8,64,122,84
8,55,120,4
8,59,112,2
8,62,120,6
8,59,117,96
8,62,123,4
8,60,117,96
8,66,118,54
8,62,120,0
8,59,114,0
8,66,104,42
8,59,108,0
8,62,109,0
8,66,113,62
8,62,115,0
8,59,111,0
8,66,106,52
8,59,109,0
8,62,112,0
8,64,112,72
8,67,118,0
8,71,114,0
8,64,104,54
8,71,104,0
8,67,105,0
8,67,101,28
8,64,100,0
8,71,102,0
8,67,116,30
8,64,113,0
8,71,114,0
8,67,115,68
8,71,112,0
8,64,110,0
8,64,118,4
8,60,112,0
8,67,116,0
8,67,100,38
8,64,102,0
8,60,97,0
8,64,101,32
8,67,98,0
8,60,97,0
8,64,110,28
8,60,108,0
8,67,108,0
8,64,104,26
8,60,104,0
8,67,104,0
8,64,115,32
8,60,112,0
8,67,115,0
8,62,112,80
8,59,114,0
8,55,110,0
8,62,100,42
8,59,102,0
8,55,99,0
8,59,104,32
8,55,103,0
8,62,103,0
8,59,108,32
8,55,106,0
8,62,106,0
8,59,106,64
8,55,106,0
8,62,106,0
8,62,110,8
8,64,108,0
8,57,106,0
8,62,110,36
8,64,109,0
8,57,104,0
8,62,102,22
8,57,99,0
8,64,97,0
8,62,112,36
8,64,111,0
8,57,108,0
8,57,108,54
8,62,113,0
8,64,113,0
8,57,107,60
8,64,110,0
8,61,115,0
8,57,101,32
8,61,96,0
8,57,97,30
8,61,96,0
8,64,110,34
8,59,120,0
8,61,114,48
8,61,120,28
8,57,117,0
8,64,110,0
8,67,113,76
8,62,109,0
8,71,106,0
8,69,106,0
8,69,110,40
8,67,112,0
8,62,107,0
8,69,105,22
8,62,102,0
8,67,103,0
8,67,117,34
8,69,114,0
8,62,110,0
8,69,115,62
8,67,117,0
8,62,111,0
8,66,123,64
8,69,115,0
8,62,110,0
8,55,117,30
8,62,112,96
8,59,119,88
8,57,115,76
8,59,124,90
8,62,120,90
8,66,106,92
8,64,114,12
8,67,122,96
8,71,120,2
8,62,113,8
8,65,118,96
8,67,121,82
8,69,113,42
8,67,116,44
8,55,122,0
8,59,117,96
8,62,120,96
8,59,118,92
8,62,122,8
8,65,121,76
8,69,117,6
8,62,118,96
8,62,116,18
8,65,120,88
8,69,121,96
8,62,119,2
8,55,120,80
8,59,120,8
8,62,120,2
8,59,121,2
8,62,95,0
8,55,104,0
8,64,123,80
8,67,122,0
8,60,119,0
8,69,115,36
8,62,112,0
8,67,122,0
8,55,121,9294
8,62,113,4
8,59,116,96
8,57,115,68
8,59,117,26
8,62,114,96
8,66,114,0
8,62,110,0
8,59,113,8
8,64,116,36
8,67,112,144
8,71,114,0
8,67,107,96
8,62,113,4
8,65,111,48
8,69,113,48
8,65,115,42
8,62,111,80
8,60,114,38
8,64,110,96
8,67,110,4
8,64,110,96
8,62,115,0
8,67,115,192
8,55,108,26
8,53,108,0
8,59,112,92
8,62,113,96
8,55,121,174
8,62,113,4
8,59,116,96
8,57,115,68
8,59,117,26
8,62,114,96
8,66,114,0
8,62,110,0
8,59,113,8
8,64,116,36
8,67,112,144
8,71,114,0
8,67,107,96
8,62,113,4
8,65,111,48
8,69,113,48
8,65,115,42
8,62,111,80
8,60,114,38
8,64,110,96
8,67,110,4
8,64,110,96
8,62,115,0
8,67,115,192
8,43,112,26
8,50,109,96
8,55,116,96
8,59,116,96
8,62,117,2
9,50,120,11230
9,52,105,48
9,55,120,8
9,57,112,0
9,55,118,48
9,62,117,24
9,69,122,1834
9,67,120,40
9,69,120,280
9,72,121,32
9,67,115,20
9,71,120,0
9,67,122,18
9,64,115,2
9,62,110,24
9,69,122,2976
9,67,120,82
9,66,121,8
9,64,123,18
9,69,122,1870
9,70,121,10
9,72,120,48
9,72,123,6
9,69,125,328
9,67,125,36
9,69,124,376
9,72,122,32
9,67,124,32
9,69,122,4014
9,67,120,82
9,66,121,8
9,64,123,18
9,69,122,12718
9,67,120,40
9,69,120,280
9,72,121,32
9,67,115,20
9,71,120,0
9,67,122,18
9,64,115,2
9,62,110,24
9,69,122,768
9,67,120,40
9,69,120,280
9,72,121,32
9,67,115,20
9,71,120,0
10,50,120,11230
10,52,105,48
10,55,120,8
10,57,112,0
10,55,118,48
10,62,117,24
10,69,122,1834
10,67,120,40
10,69,120,280
10,72,121,32
10,67,115,20
10,71,120,0
10,67,122,18
10,64,115,2
10,62,110,24
10,69,122,2976
10,67,120,82
10,66,121,8
10,64,123,18
10,69,122,1870
10,70,121,10
10,72,120,48
10,72,123,6
10,69,125,328
10,67,125,36
10,69,124,376
10,72,122,32
10,67,124,32
10,69,122,4014
10,67,120,82
10,66,121,8
