track,note,velocity,time
1,65,40,1440
1,70,48,0
1,58,36,0
1,58,0,480
1,70,0,0
1,65,0,0
1,70,50,0
1,58,37,0
1,65,42,0
1,65,0,480
1,58,0,0
1,70,0,0
1,69,48,0
1,57,31,0
1,65,40,0
1,65,0,480
1,57,0,0
1,69,0,0
1,70,50,0
1,58,37,0
1,65,42,0
1,65,0,480
1,58,0,0
1,70,0,0
1,72,48,0
1,60,36,0
1,65,40,0
1,65,0,480
1,60,0,0
1,72,0,0
1,62,40,0
1,65,45,0
1,74,53,0
1,74,0,1440
1,65,0,0
1,62,0,0
1,60,37,0
1,65,42,0
1,72,50,0
1,72,0,240
1,65,0,0
1,60,0,0
1,58,35,0
1,65,39,0
1,70,46,0
1,70,0,240
1,65,0,0
1,58,0,0
1,60,35,0
1,72,47,0
1,65,39,0
1,65,0,452
1,60,0,0
1,72,0,0
1,65,38,28
1,60,34,0
1,72,46,0
1,72,0,452
1,60,0,0
1,65,0,0
1,65,38,28
1,60,34,0
1,72,46,0
1,72,0,452
1,60,0,0
1,65,0,0
1,65,42,28
1,58,37,0
1,70,50,0
1,70,0,240
1,58,0,0
1,65,0,0
1,65,38,0
1,57,30,0
1,69,45,0
1,69,0,240
1,57,0,0
1,65,0,0
1,58,37,0
1,70,52,0
1,65,52,0
1,65,0,480
1,63,42,0
1,67,50,0
1,67,0,480
1,63,0,0
1,62,36,0
1,65,44,0
1,65,0,480
1,58,0,0
1,70,0,0
1,62,0,0
1,70,61,0
1,70,0,480
1,63,45,0
1,70,51,0
1,75,60,0
1,75,0,1440
1,70,0,0
1,63,0,0
1,62,41,0
1,74,55,0
1,70,46,0
1,70,0,240
1,74,0,0
1,62,0,0
1,70,42,0
1,60,37,0
1,72,50,0
1,72,0,240
1,60,0,0
1,70,0,0
1,70,45,0
1,62,45,0
1,74,53,0
1,74,0,480
1,62,0,0
1,70,0,0
1,65,42,0
1,57,37,0
1,69,50,0
1,69,0,480
1,57,0,0
1,65,0,0
1,65,44,0
1,58,39,0
1,70,52,0
1,70,0,480
1,58,0,0
1,65,0,0
1,65,42,0
1,72,50,0
1,60,37,0
1,60,0,480
1,72,0,0
1,65,0,0
1,70,52,0
1,58,39,0
1,65,44,0
1,65,0,480
1,58,0,0
1,70,0,0
1,70,44,0
1,74,52,0
1,62,39,0
1,65,44,0
1,65,0,480
1,70,0,0
1,74,0,0
1,62,0,0
1,65,42,0
1,60,37,0
1,72,50,0
1,69,42,0
1,69,0,3120
1,65,0,0
1,60,0,0
1,72,0,0
1,65,40,1200
1,58,36,0
1,70,48,0
1,70,0,480
1,58,0,0
1,65,0,0
1,65,42,0
1,58,37,0
1,70,50,0
1,70,0,480
1,58,0,0
1,65,0,0
1,65,40,0
1,57,31,0
1,69,48,0
1,69,0,480
1,57,0,0
1,65,0,0
1,65,42,0
1,58,37,0
1,70,50,0
1,70,0,480
1,58,0,0
1,65,0,0
1,65,40,0
1,72,48,0
1,60,36,0
1,60,0,480
1,72,0,0
1,65,0,0
1,74,53,0
1,62,40,0
1,65,45,0
1,65,0,1440
1,62,0,0
1,74,0,0
1,72,50,0
1,60,37,0
1,65,42,0
1,65,0,240
1,60,0,0
1,72,0,0
1,70,46,0
1,58,35,0
1,65,39,0
1,65,0,240
1,58,0,0
1,70,0,0
1,72,47,0
1,65,39,0
1,60,35,0
1,60,0,475
1,65,0,0
1,72,0,0
1,65,38,5
1,60,34,0
1,72,46,0
1,72,0,475
1,60,0,0
1,65,0,0
1,65,38,5
1,60,34,0
1,72,46,0
1,72,0,475
1,60,0,0
1,65,0,0
1,65,42,5
1,58,37,0
1,70,50,0
1,70,0,240
1,58,0,0
1,65,0,0
1,65,38,0
1,57,30,0
1,69,45,0
1,69,0,240
1,57,0,0
1,65,0,0
1,58,37,0
1,70,52,0
1,65,52,0
1,65,0,480
1,63,42,0
1,67,50,0
1,67,0,480
1,63,0,0
1,62,36,0
1,65,44,0
1,65,0,480
1,58,0,0
1,70,0,0
1,62,0,0
1,65,51,0
1,62,45,0
1,74,61,0
1,74,0,480
1,62,0,0
1,65,0,0
1,67,51,0
1,62,45,0
1,74,60,0
1,74,0,1440
1,62,0,0
1,67,0,0
1,67,46,0
1,72,55,0
1,60,41,0
1,60,0,240
1,72,0,0
1,67,0,0
1,71,50,0
1,59,37,0
1,67,42,0
1,67,0,240
1,59,0,0
1,71,0,0
1,75,65,0
1,63,53,0
1,67,54,0
1,67,0,480
1,63,0,0
1,75,0,0
1,74,59,0
1,62,50,0
1,67,50,0
1,67,0,480
1,62,0,0
1,74,0,0
1,72,57,0
1,60,48,0
1,67,48,0
1,67,0,480
1,60,0,0
1,72,0,0
1,60,45,0
1,69,51,0
1,72,61,0
1,72,0,480
1,69,0,0
1,60,0,0
1,65,45,0
1,72,60,0
1,60,45,0
1,69,51,0
1,69,0,1440
1,65,0,0
1,72,0,0
1,60,0,0
1,70,55,0
1,58,41,0
1,65,46,0
1,65,0,240
1,58,0,0
1,70,0,0
1,69,50,0
1,57,37,0
1,65,42,0
1,65,0,240
1,57,0,0
1,69,0,0
1,62,51,0
1,65,55,0
1,74,65,0
1,74,0,480
1,65,0,0
1,62,0,0
1,57,47,0
1,65,47,0
1,69,56,0
1,69,0,480
1,65,0,0
1,57,0,0
1,58,50,0
1,65,50,0
1,70,59,0
1,70,0,480
1,65,0,0
1,58,0,0
1,65,45,0
1,72,54,0
1,60,40,0
1,69,45,0
1,69,0,480
1,65,0,0
1,72,0,0
1,60,0,0
1,65,40,0
1,72,54,0
1,60,40,0
1,69,45,0
1,69,0,960
1,60,0,0
1,72,0,0
1,58,48,0
1,70,48,0
1,70,0,240
1,58,0,0
1,65,0,0
1,70,51,2160
1,70,0,480
1,70,52,0
1,70,0,480
1,68,51,0
1,68,0,480
1,70,52,0
1,70,0,480
1,71,50,0
1,71,0,480
1,73,52,0
1,73,0,1440
1,71,56,0
1,71,0,240
1,70,53,0
1,70,0,240
1,75,58,0
1,75,0,240
1,75,54,240
1,75,0,240
1,75,54,240
1,75,0,240
1,77,56,240
1,77,0,240
1,78,51,0
1,78,0,240
1,73,54,0
1,73,0,1440
1,71,52,0
1,71,0,240
1,70,51,0
1,70,0,240
1,71,52,0
1,71,0,480
1,75,52,0
1,75,0,480
1,68,52,0
1,68,0,480
1,71,52,0
1,71,0,480
1,70,54,0
1,70,0,480
1,66,51,0
1,78,61,0
1,78,0,720
1,66,0,0
1,65,45,0
1,77,53,0
1,77,0,240
1,65,0,0
1,75,56,0
1,63,47,0
1,63,0,240
1,75,0,0
1,61,43,0
1,73,51,0
1,73,0,240
1,61,0,0
1,59,46,0
1,71,54,0
1,71,0,480
1,59,0,0
1,75,56,0
1,75,0,480
1,68,54,0
1,68,0,480
1,70,52,0
1,70,0,240
1,71,52,0
1,71,0,240
1,70,55,0
1,70,0,240
1,73,52,0
1,73,0,240
1,82,56,0
1,82,0,240
1,78,52,0
1,78,0,240
1,73,56,0
1,73,0,240
1,70,52,0
1,70,0,240
1,78,55,0
1,78,0,240
1,74,52,0
1,74,0,240
1,75,55,0
1,75,0,240
1,71,52,0
1,71,0,240
1,83,56,0
1,83,0,240
1,80,54,0
1,80,0,240
1,77,58,0
1,77,0,240
1,80,56,0
1,80,0,240
1,85,58,0
1,85,0,240
1,81,54,0
1,81,0,240
1,82,57,0
1,82,0,240
1,78,54,0
1,78,0,240
1,82,57,0
1,82,0,120
1,78,51,0
1,78,0,120
1,82,56,0
1,82,0,120
1,78,50,0
1,78,0,120
1,73,56,0
1,73,0,120
1,70,52,0
1,70,0,120
1,73,56,0
1,73,0,120
1,70,53,0
1,70,0,120
1,78,58,0
1,78,0,120
1,74,53,0
1,74,0,120
1,78,57,0
1,78,0,120
1,74,52,0
1,74,0,120
1,75,57,0
1,75,0,120
1,71,52,0
1,71,0,120
1,75,54,0
1,75,0,120
1,71,52,0
1,71,0,120
1,83,57,0
1,83,0,120
1,80,51,0
1,80,0,120
1,83,56,0
1,83,0,120
1,80,50,0
1,80,0,120
1,77,56,0
1,77,0,120
1,80,52,0
1,80,0,120
1,77,56,0
1,77,0,120
1,80,53,0
1,80,0,120
1,85,58,0
1,85,0,120
1,81,53,0
1,81,0,120
1,85,57,0
1,85,0,120
1,81,52,0
1,81,0,120
1,82,57,0
1,82,0,120
1,81,53,0
1,81,0,120
1,82,52,0
1,82,0,120
1,77,52,0
1,77,0,120
1,78,57,0
1,78,0,120
1,77,51,0
1,77,0,120
1,78,51,0
1,78,0,120
1,72,50,0
1,72,0,120
1,73,55,0
1,73,0,120
1,72,51,0
1,72,0,120
1,73,51,0
1,73,0,120
1,69,51,0
1,69,0,120
1,70,54,0
1,70,0,120
1,69,47,0
1,69,0,120
1,70,49,0
1,70,0,120
1,65,47,0
1,65,0,120
1,66,57,0
1,66,0,120
1,81,53,0
1,81,0,120
1,82,52,0
1,82,0,120
1,77,52,0
1,77,0,120
1,78,57,0
1,78,0,120
1,77,51,0
1,77,0,120
1,78,51,0
1,78,0,120
1,72,50,0
1,72,0,120
1,73,55,0
1,73,0,120
1,72,51,0
1,72,0,120
1,73,51,0
1,73,0,120
1,69,51,0
1,69,0,120
1,70,54,0
1,70,0,120
1,69,47,0
1,69,0,120
1,70,49,0
1,70,0,120
1,65,47,0
1,65,0,120
1,66,53,0
1,66,0,120
1,65,49,0
1,65,0,120
1,66,49,0
1,66,0,120
1,68,49,0
1,68,0,120
1,70,55,0
1,70,0,120
1,71,49,0
1,71,0,120
1,70,49,0
1,70,0,120
1,68,49,0
1,68,0,120
1,66,55,0
1,66,0,120
1,68,50,0
1,68,0,120
1,70,50,0
1,70,0,120
1,68,50,0
1,68,0,120
1,66,55,0
1,66,0,120
1,68,50,0
1,68,0,120
1,66,52,0
1,66,0,120
1,65,51,0
1,65,0,120
1,64,57,0
1,64,0,160
1,70,52,0
1,70,0,152
1,58,45,8
1,64,45,0
1,70,54,0
1,70,0,152
1,64,0,0
1,58,0,0
1,58,50,8
1,70,59,0
1,64,50,0
1,64,0,152
1,70,0,0
1,58,0,0
1,64,47,8
1,70,56,0
1,58,47,0
1,58,0,152
1,70,0,0
1,64,0,0
1,70,57,8
1,58,48,0
1,64,48,0
1,64,0,152
1,58,0,0
1,70,0,0
1,70,62,8
1,58,52,0
1,64,52,0
1,64,0,152
1,58,0,0
1,70,0,0
1,70,56,8
1,58,47,0
1,64,47,0
1,64,0,152
1,58,0,0
1,70,0,0
1,70,57,8
1,58,47,0
1,64,47,0
1,64,0,152
1,58,0,0
1,70,0,0
1,58,55,8
1,64,55,0
1,70,65,0
1,70,0,152
1,64,0,0
1,58,0,0
1,58,51,8
1,64,51,0
1,70,61,0
1,70,0,152
1,64,0,0
1,58,0,0
1,58,52,8
1,64,52,0
1,70,62,0
1,70,0,152
1,64,0,0
1,58,0,0
1,58,57,8
1,70,67,0
1,64,57,0
1,64,0,152
1,70,0,0
1,58,0,0
1,64,53,8
1,58,53,0
1,70,64,0
1,70,0,152
1,58,0,0
1,64,0,0
1,64,55,8
1,58,55,0
1,70,65,0
1,70,0,152
1,58,0,0
1,64,0,0
1,64,59,8
1,58,59,0
1,70,71,0
1,70,0,152
1,58,0,0
1,64,0,0
1,64,56,8
1,58,56,0
1,70,67,0
1,70,0,152
1,58,0,0
1,64,0,0
1,64,57,8
1,70,69,0
1,58,57,0
1,58,0,152
1,70,0,0
1,64,0,0
1,70,74,8
1,58,62,0
1,64,62,0
1,64,0,152
1,58,0,0
1,70,0,0
1,70,71,8
1,58,59,0
1,64,59,0
1,64,0,152
1,58,0,0
1,70,0,0
1,70,72,8
1,58,60,0
1,64,60,0
1,64,0,152
1,58,0,0
1,70,0,0
1,70,85,8
1,65,72,0
1,58,72,0
1,58,0,152
1,65,0,0
1,70,0,0
1,65,67,8
1,58,67,0
1,70,80,0
1,70,0,152
1,58,0,0
1,65,0,0
1,65,67,8
1,58,67,0
1,70,80,0
1,70,0,152
1,58,0,0
1,65,0,0
1,58,63,8
1,65,77,0
1,70,90,0
1,70,0,480
1,65,0,0
1,58,0,0
1,57,60,0
1,69,85,0
1,65,72,0
1,65,0,480
1,69,0,0
1,57,0,0
1,65,72,0
1,58,60,0
1,70,85,0
1,70,0,480
1,58,0,0
1,65,0,0
1,65,72,0
1,60,60,0
1,72,85,0
1,72,0,480
1,60,0,0
1,65,0,0
1,65,78,0
1,62,64,0
1,74,92,0
1,74,0,1440
1,62,0,0
1,65,0,0
1,65,74,0
1,60,62,0
1,72,89,0
1,72,0,240
1,60,0,0
1,65,0,0
1,65,69,0
1,70,82,0
1,58,58,0
1,58,0,240
1,70,0,0
1,65,0,0
1,72,88,0
1,60,61,0
1,65,73,0
1,65,0,475
1,60,0,0
1,72,0,0
1,72,84,5
1,60,59,0
1,65,71,0
1,65,0,475
1,60,0,0
1,72,0,0
1,72,83,5
1,60,59,0
1,65,70,0
1,65,0,475
1,60,0,0
1,72,0,0
1,70,88,5
1,58,61,0
1,65,73,0
1,65,0,240
1,58,0,0
1,70,0,0
1,57,58,0
1,65,69,0
1,69,82,0
1,69,0,240
1,65,0,0
1,57,0,0
1,65,82,0
1,58,75,0
1,70,90,0
1,65,0,480
1,63,73,0
1,67,88,0
1,67,0,480
1,63,0,0
1,65,83,0
1,62,70,0
1,62,0,480
1,58,0,0
1,70,0,0
1,65,0,0
1,74,89,0
1,65,75,0
1,62,64,0
1,62,0,480
1,65,0,0
1,74,0,0
1,67,75,0
1,74,89,0
1,62,64,0
1,62,0,1440
1,74,0,0
1,67,0,0
1,72,84,0
1,60,59,0
1,67,71,0
1,67,0,240
1,60,0,0
1,72,0,0
1,71,79,0
1,59,56,0
1,67,67,0
1,67,0,240
1,59,0,0
1,71,0,0
1,75,94,0
1,63,67,0
1,67,79,0
1,67,0,480
1,63,0,0
1,75,0,0
1,74,91,0
1,62,65,0
1,67,76,0
1,67,0,480
1,62,0,0
1,74,0,0
1,60,63,0
1,67,74,0
1,72,88,0
1,72,0,480
1,67,0,0
1,60,0,0
1,60,60,0
1,69,72,0
1,72,86,0
1,72,0,480
1,69,0,0
1,60,0,0
1,65,76,0
1,72,89,0
1,60,65,0
1,69,78,0
1,69,0,1440
1,65,0,0
1,72,0,0
1,60,0,0
1,70,88,0
1,58,63,0
1,65,74,0
1,65,0,240
1,58,0,0
1,70,0,0
1,57,57,0
1,65,68,0
1,69,80,0
1,69,0,240
1,65,0,0
1,57,0,0
1,62,65,0
1,65,77,0
1,74,92,0
1,74,0,480
1,65,0,0
1,62,0,0
1,57,61,0
1,65,73,0
1,69,87,0
1,69,0,480
1,65,0,0
1,57,0,0
1,58,65,0
1,70,92,0
1,65,77,0
1,65,0,480
1,70,0,0
1,58,0,0
1,60,59,0
1,72,82,0
1,69,70,0
1,65,70,0
1,65,0,480
1,60,0,0
1,72,0,0
1,69,0,0
1,65,75,0
1,72,89,0
1,60,64,0
1,69,75,0
1,69,0,1920
1,60,0,0
1,72,0,0
1,71,73,0
1,59,61,0
1,68,61,0
1,65,0,960
1,71,0,480
1,59,0,0
1,68,0,0
1,68,55,0
1,71,66,0
1,62,55,0
1,65,55,0
1,65,0,480
1,68,0,0
1,71,0,0
1,62,0,0
1,68,55,0
1,62,55,0
1,65,55,0
1,71,66,0
1,71,0,1440
1,68,0,0
1,62,0,0
1,65,0,0
1,68,66,0
1,74,78,0
1,71,66,0
1,65,66,0
1,65,0,480
1,68,0,0
1,74,0,0
1,71,0,0
1,65,72,0
1,74,86,0
1,68,72,0
1,71,72,0
1,74,0,960
1,73,86,0
1,73,0,240
1,71,0,0
1,68,0,0
1,65,0,0
1,73,80,240
1,68,80,0
1,71,80,0
1,77,96,0
1,77,0,240
1,73,0,0
1,68,0,0
1,71,0,0
1,73,77,240
1,69,77,0
1,78,92,0
1,78,0,160
1,69,0,0
1,73,0,0
1,73,34,0
1,69,28,0
1,69,0,152
1,73,0,0
1,73,36,8
1,69,30,0
1,69,0,152
1,73,0,0
