track,note,velocity,time
1,83,40,4
1,87,34,116
1,83,0,4
1,87,0,116
1,83,40,0
1,83,0,120
1,80,34,0
1,80,0,90
1,80,40,30
1,80,0,120
1,83,34,0
1,83,0,120
1,80,40,0
1,80,0,120
1,75,34,0
1,75,0,90
1,75,40,30
1,75,0,120
1,80,34,0
1,80,0,120
1,75,40,0
1,75,0,120
1,71,34,0
1,71,0,90
1,71,40,30
1,71,0,120
1,75,34,0
1,75,0,120
1,71,40,0
1,71,0,120
1,68,34,0
1,68,0,90
1,68,40,30
1,68,0,120
1,71,34,0
1,71,0,120
1,68,40,0
1,68,0,120
1,63,34,0
1,63,0,120
1,67,30,0
1,70,36,0
1,70,0,240
1,67,0,0
1,83,40,240
1,83,0,120
1,87,34,0
1,87,0,120
1,83,40,0
1,83,0,120
1,80,34,0
1,80,0,90
1,80,40,30
1,80,0,120
1,83,34,0
1,83,0,120
1,80,40,0
1,80,0,120
1,75,34,0
1,75,0,90
1,75,40,30
1,75,0,120
1,80,34,0
1,80,0,120
1,75,40,0
1,75,0,120
1,71,34,0
1,71,0,90
1,71,40,30
1,71,0,120
1,75,34,0
1,75,0,120
1,71,40,0
1,71,0,120
1,68,34,0
1,68,0,90
1,68,40,30
1,68,0,120
1,71,34,0
1,71,0,120
1,68,40,0
1,68,0,120
1,63,34,0
1,63,0,120
1,67,30,0
1,70,36,0
1,70,0,240
1,67,0,0
1,68,31,240
1,71,31,0
1,71,0,456
1,68,0,0
1,67,31,24
1,70,31,0
1,76,31,0
1,76,0,456
1,70,0,0
1,67,0,0
1,67,36,24
1,70,36,0
1,76,36,0
1,76,0,456
1,70,0,0
1,67,0,0
1,67,37,24
1,70,37,0
1,76,37,0
1,76,0,456
1,70,0,0
1,67,0,0
1,67,31,24
1,70,31,0
1,75,31,0
1,75,0,456
1,70,0,0
1,67,0,0
1,67,31,24
1,70,31,0
1,73,31,0
1,73,0,456
1,70,0,0
1,67,0,0
1,83,40,24
1,83,0,120
1,87,34,0
1,87,0,120
1,83,40,0
1,83,0,120
1,80,34,0
1,80,0,90
1,80,40,30
1,80,0,120
1,83,34,0
1,83,0,120
1,80,40,0
1,80,0,120
1,75,34,0
1,75,0,90
1,75,40,30
1,75,0,120
1,80,34,0
1,80,0,120
1,75,40,0
1,75,0,120
1,71,34,0
1,71,0,90
1,71,40,30
1,71,0,120
1,75,34,0
1,75,0,120
1,71,40,0
1,71,0,120
1,68,34,0
1,68,0,90
1,68,40,30
1,68,0,120
1,71,34,0
1,71,0,120
1,68,40,0
1,68,0,120
1,63,34,0
1,63,0,120
1,67,30,0
1,70,36,0
1,70,0,240
1,67,0,0
1,83,40,240
1,83,0,120
1,87,34,0
1,87,0,120
1,83,40,0
1,83,0,120
1,80,34,0
1,80,0,90
1,80,40,30
1,80,0,120
1,83,34,0
1,83,0,120
1,80,40,0
1,80,0,120
1,75,34,0
1,75,0,90
1,75,40,30
1,75,0,120
1,80,34,0
1,80,0,120
1,75,40,0
1,75,0,120
1,71,34,0
1,71,0,90
1,71,40,30
1,71,0,120
1,75,34,0
1,75,0,120
1,71,40,0
1,71,0,120
1,68,34,0
1,68,0,90
1,68,40,30
1,68,0,120
1,71,34,0
1,71,0,120
1,68,40,0
1,68,0,120
1,63,34,0
1,63,0,120
1,70,36,0
1,67,30,0
1,67,0,240
1,70,0,0
1,68,31,240
1,71,31,0
1,71,0,456
1,68,0,0
1,76,31,24
1,70,31,0
1,66,31,0
1,66,0,456
1,70,0,0
1,76,0,0
1,66,36,24
1,70,36,0
1,76,36,0
1,76,0,456
1,70,0,0
1,66,0,0
1,66,37,24
1,70,37,0
1,76,37,0
1,76,0,456
1,70,0,0
1,66,0,0
1,75,31,24
1,70,31,0
1,66,31,0
1,66,0,456
1,70,0,0
1,75,0,0
1,70,31,24
1,66,31,0
1,74,31,0
1,74,0,456
1,66,0,0
1,70,0,0
1,87,50,24
1,87,0,120
1,90,42,0
1,90,0,120
1,87,50,0
1,87,0,120
1,83,42,0
1,83,0,90
1,83,50,30
1,83,0,120
1,87,42,0
1,87,0,120
1,83,50,0
1,83,0,120
1,78,42,0
1,78,0,90
1,78,50,30
1,78,0,120
1,83,42,0
1,83,0,120
1,78,50,0
1,78,0,120
1,75,42,0
1,75,0,90
1,75,50,30
1,75,0,120
1,78,42,0
1,78,0,120
1,75,50,0
1,75,0,120
1,71,42,0
1,71,0,90
1,71,50,30
1,71,0,120
1,75,42,0
1,75,0,120
1,71,50,0
1,71,0,120
1,66,42,0
1,66,0,120
1,70,37,0
1,73,45,0
1,73,0,240
1,70,0,0
1,87,50,240
1,87,0,120
1,90,42,0
1,90,0,120
1,87,50,0
1,87,0,120
1,83,42,0
1,83,0,90
1,83,50,30
1,83,0,120
1,87,42,0
1,87,0,120
1,83,50,0
1,83,0,120
1,78,42,0
1,78,0,90
1,78,50,30
1,78,0,120
1,83,42,0
1,83,0,120
1,78,50,0
1,78,0,120
1,75,42,0
1,75,0,90
1,75,50,30
1,75,0,120
1,78,42,0
1,78,0,120
1,75,50,0
1,75,0,120
1,71,42,0
1,71,0,90
1,71,50,30
1,71,0,120
1,75,42,0
1,75,0,120
1,71,50,0
1,71,0,120
1,66,42,0
1,66,0,120
1,70,37,0
1,73,45,0
1,73,0,240
1,70,0,0
1,71,41,240
1,75,41,0
1,75,0,456
1,71,0,0
1,70,47,24
1,80,47,0
1,73,47,0
1,73,0,456
1,80,0,0
1,70,0,0
1,80,48,24
1,73,48,0
1,70,48,0
1,70,0,456
1,73,0,0
1,80,0,0
1,80,49,24
1,73,49,0
1,70,49,0
1,70,0,456
1,73,0,0
1,80,0,0
1,78,39,24
1,70,39,0
1,75,39,0
1,75,0,456
1,70,0,0
1,78,0,0
1,76,39,24
1,70,39,0
1,70,0,456
1,76,0,0
1,86,50,24
1,86,0,120
1,90,42,0
1,90,0,120
1,86,50,0
1,86,0,120
1,83,42,0
1,83,0,90
1,83,50,30
1,83,0,120
1,86,42,0
1,86,0,120
1,83,50,0
1,83,0,120
1,78,42,0
1,78,0,90
1,78,50,30
1,78,0,120
1,83,42,0
1,83,0,120
1,78,50,0
1,78,0,120
1,74,42,0
1,74,0,90
1,74,50,30
1,74,0,120
1,78,42,0
1,78,0,120
1,74,50,0
1,74,0,120
1,71,42,0
1,71,0,90
1,71,50,30
1,71,0,120
1,74,42,0
1,74,0,120
1,71,50,0
1,71,0,120
1,66,42,0
1,66,0,120
1,73,45,0
1,70,37,0
1,70,0,240
1,73,0,0
1,86,50,240
1,86,0,120
1,90,42,0
1,90,0,120
1,86,50,0
1,86,0,120
1,83,42,0
1,83,0,90
1,83,50,30
1,83,0,120
1,86,42,0
1,86,0,120
1,83,50,0
1,83,0,120
1,78,42,0
1,78,0,90
1,78,50,30
1,78,0,120
1,83,43,0
1,83,0,120
1,78,50,0
1,78,0,120
1,74,42,0
1,74,0,90
1,74,50,30
1,74,0,120
1,78,42,0
1,78,0,120
1,74,50,0
1,74,0,120
1,71,42,0
1,71,0,90
1,71,50,30
1,71,0,120
1,74,42,0
1,74,0,120
1,71,50,0
1,71,0,120
1,66,42,0
1,66,0,120
1,70,45,0
1,73,45,0
1,73,0,240
1,70,0,0
1,74,41,240
1,66,41,0
1,71,41,0
1,71,0,456
1,66,0,0
1,74,0,0
1,73,50,24
1,76,50,0
1,83,50,0
1,83,0,456
1,76,0,0
1,73,0,0
1,83,48,24
1,76,48,0
1,73,48,0
1,73,0,456
1,76,0,0
1,83,0,0
1,83,46,24
1,73,46,0
1,76,46,0
1,76,0,456
1,73,0,0
1,83,0,0
1,73,44,24
1,78,44,0
1,81,44,0
1,81,0,456
1,78,0,0
1,73,0,0
1,73,42,24
1,79,42,0
1,79,0,456
1,73,0,0
1,74,38,24
1,78,38,0
1,78,0,456
1,74,0,0
1,79,46,24
1,73,46,0
1,70,46,0
1,70,0,456
1,73,0,0
1,79,0,0
1,79,46,24
1,73,46,0
1,70,46,0
1,70,0,456
1,73,0,0
1,79,0,0
1,73,46,24
1,70,46,0
1,79,46,0
1,79,0,456
1,70,0,0
1,73,0,0
1,70,44,24
1,73,44,0
1,78,44,0
1,78,0,456
1,73,0,0
1,70,0,0
1,76,42,24
1,73,42,0
1,73,0,456
1,76,0,0
1,75,41,24
1,71,41,0
1,71,0,456
1,75,0,0
1,76,49,24
1,64,49,0
1,68,49,0
1,68,0,456
1,64,0,0
1,76,0,0
1,76,49,24
1,68,49,0
1,64,49,0
1,64,0,456
1,68,0,0
1,76,0,0
1,68,49,24
1,64,49,0
1,76,49,0
1,76,0,456
1,64,0,0
1,68,0,0
1,63,49,24
1,75,49,0
1,68,49,0
1,68,0,456
1,75,0,0
1,63,0,0
1,68,47,24
1,73,47,0
1,61,47,0
1,61,0,456
1,73,0,0
1,68,0,0
1,71,48,24
1,68,48,0
1,63,48,0
1,63,0,456
1,68,0,0
1,71,0,0
1,63,48,24
1,68,48,0
1,71,48,0
1,71,0,456
1,68,0,0
1,63,0,0
1,63,48,24
1,68,48,0
1,71,48,0
1,71,0,456
1,68,0,0
1,63,0,0
1,70,33,24
1,67,33,0
1,63,33,0
1,63,0,456
1,67,0,0
1,70,0,0
1,70,34,24
1,63,34,0
1,67,34,0
1,67,0,456
1,63,0,0
1,70,0,0
1,63,34,24
1,67,34,0
1,70,34,0
1,70,0,456
1,67,0,0
1,63,0,0
1,84,40,24
1,84,0,120
1,87,34,0
1,87,0,120
1,84,40,0
1,84,0,120
1,80,34,0
1,80,0,90
1,80,40,30
1,80,0,120
1,84,34,0
1,84,0,120
1,80,40,0
1,80,0,120
1,75,34,0
1,75,0,90
1,75,40,30
1,75,0,120
1,80,34,0
1,80,0,120
1,75,40,0
1,75,0,120
1,72,34,0
1,72,0,90
1,72,40,30
1,72,0,120
1,75,34,0
1,75,0,120
1,72,40,0
1,72,0,120
1,68,34,0
1,68,0,90
1,68,40,30
1,68,0,120
1,72,34,0
1,72,0,120
1,68,40,0
1,68,0,120
1,63,34,0
1,63,0,120
1,67,30,0
1,70,36,0
1,70,0,240
1,67,0,0
1,84,40,240
1,84,0,120
1,87,34,0
1,87,0,120
1,84,40,0
1,84,0,120
1,80,34,0
1,80,0,90
1,80,40,30
1,80,0,120
1,84,34,0
1,84,0,120
1,80,40,0
1,80,0,120
1,75,34,0
1,75,0,90
1,75,40,30
1,75,0,120
1,80,34,0
1,80,0,120
1,75,40,0
1,75,0,120
1,72,34,0
1,72,0,90
1,72,40,30
1,72,0,120
1,75,34,0
1,75,0,120
1,72,40,0
1,72,0,120
1,68,34,0
1,68,0,90
1,68,40,30
1,68,0,120
1,72,34,0
1,72,0,120
1,68,40,0
1,68,0,120
1,63,34,0
1,63,0,120
1,67,36,0
1,70,36,0
1,70,0,240
1,67,0,0
1,87,45,0
1,87,0,120
1,92,38,0
1,92,0,120
1,87,45,0
1,87,0,120
1,84,38,0
1,84,0,90
1,84,45,30
1,84,0,120
1,87,38,0
1,87,0,120
1,84,45,0
1,84,0,120
1,80,38,0
1,80,0,90
1,80,45,30
1,80,0,120
1,84,38,0
1,84,0,120
1,80,45,0
1,80,0,120
1,75,38,0
1,75,0,90
1,75,45,30
1,75,0,120
1,80,38,0
1,80,0,120
1,75,45,0
1,75,0,120
1,72,38,0
1,72,0,90
1,72,45,30
1,72,0,120
1,75,38,0
1,75,0,120
1,72,45,0
1,72,0,120
1,68,38,0
1,68,0,120
1,67,40,0
1,70,40,0
1,70,0,240
1,67,0,0
1,87,50,240
1,87,0,120
1,92,42,0
1,92,0,120
1,87,50,0
1,87,0,120
1,84,42,0
1,84,0,90
1,84,50,30
1,84,0,120
1,87,42,0
1,87,0,120
1,84,50,0
1,84,0,120
1,80,42,0
1,80,0,90
1,80,50,30
1,80,0,120
1,84,42,0
1,84,0,120
1,80,50,0
1,80,0,120
1,75,42,0
1,75,0,90
1,75,50,30
1,75,0,120
1,80,42,0
1,80,0,120
1,75,50,0
1,75,0,120
1,72,42,0
1,72,0,90
1,72,50,30
1,72,0,120
1,75,42,0
1,75,0,120
1,72,50,0
1,72,0,120
1,68,42,0
1,68,0,120
1,67,45,0
1,70,45,0
1,70,0,240
1,67,0,0
1,72,40,240
1,72,0,120
1,75,34,0
1,75,0,120
1,72,40,0
1,72,0,120
1,68,34,0
1,68,0,90
1,68,40,30
1,68,0,120
1,72,34,0
1,72,0,120
1,68,40,0
1,68,0,120
1,63,34,0
1,63,0,120
1,68,40,0
1,68,0,120
1,73,40,360
1,73,0,120
1,77,34,0
1,77,0,120
1,73,40,0
1,73,0,120
1,68,34,0
1,68,0,90
1,68,40,30
1,68,0,120
1,73,34,0
1,73,0,120
1,68,40,0
1,68,0,120
1,65,34,0
1,65,0,120
1,68,40,0
1,68,0,120
1,75,40,360
1,75,0,120
1,79,34,0
1,79,0,120
1,75,40,0
1,75,0,120
1,70,34,0
1,70,0,90
1,70,40,30
1,70,0,120
1,75,34,0
1,75,0,120
1,70,40,0
1,70,0,120
1,67,34,0
1,67,0,120
1,70,40,0
1,70,0,120
1,75,40,360
1,75,0,120
1,80,34,0
1,80,0,120
1,75,40,0
1,75,0,120
1,72,34,0
1,72,0,90
1,72,40,30
1,72,0,120
1,75,34,0
1,75,0,120
1,72,40,0
1,72,0,120
1,68,34,0
1,68,0,120
1,72,40,0
1,72,0,120
1,84,52,360
1,84,0,120
1,87,44,0
1,87,0,120
1,84,52,0
1,84,0,120
1,80,44,0
1,80,0,90
1,80,52,30
1,80,0,120
1,84,44,0
1,84,0,120
1,80,52,0
1,80,0,120
1,75,44,0
1,75,0,120
1,80,52,0
1,80,0,120
1,85,60,360
1,85,0,120
1,89,51,0
1,89,0,120
1,85,60,0
1,85,0,120
1,80,51,0
1,80,0,90
1,80,60,30
1,80,0,120
1,85,51,0
1,85,0,120
1,80,60,0
1,80,0,120
1,77,51,0
1,77,0,120
1,80,60,0
1,80,0,120
1,87,70,360
1,87,0,120
1,91,59,0
1,91,0,120
1,87,70,0
1,87,0,120
1,82,59,0
1,82,0,90
1,82,70,30
1,82,0,120
1,87,59,0
1,87,0,120
1,82,70,0
1,82,0,120
1,79,59,0
1,79,0,120
1,82,70,0
1,82,0,240
1,87,80,240
1,87,0,120
1,92,68,0
1,92,0,120
1,87,80,0
1,87,0,120
1,84,68,0
1,84,0,90
1,84,80,30
1,84,0,120
1,87,68,0
1,87,0,120
1,84,80,0
1,84,0,120
1,80,68,0
1,80,0,120
1,84,80,0
1,84,0,240
1,72,40,240
1,72,0,120
1,75,34,0
1,75,0,120
1,72,40,0
1,72,0,120
1,68,34,0
1,68,0,90
1,68,40,30
1,68,0,120
1,72,34,0
1,72,0,120
1,68,40,0
1,68,0,120
1,63,34,0
1,63,0,120
1,68,40,0
1,68,0,240
1,73,40,240
1,73,0,120
1,77,34,0
1,77,0,120
1,73,40,0
1,73,0,120
1,68,34,0
1,68,0,90
1,68,40,30
1,68,0,120
1,73,34,0
1,73,0,120
1,68,40,0
1,68,0,120
1,65,34,0
1,65,0,120
1,68,40,0
1,68,0,240
1,75,40,240
1,75,0,120
1,79,34,0
1,79,0,120
1,75,40,0
1,75,0,120
1,70,34,0
1,70,0,90
1,70,40,30
1,70,0,120
1,75,34,0
1,75,0,120
1,70,40,0
1,70,0,120
1,67,34,0
1,67,0,120
1,70,40,0
1,70,0,240
1,75,40,240
1,75,0,120
1,80,34,0
1,80,0,120
1,75,40,0
1,75,0,120
1,72,34,0
1,72,0,90
1,72,40,30
1,72,0,120
1,75,34,0
1,75,0,120
1,72,40,0
1,72,0,120
1,68,34,0
1,68,0,120
1,72,40,0
1,72,0,240
1,84,52,240
1,84,0,120
1,87,44,0
1,87,0,120
1,84,52,0
1,84,0,120
1,80,44,0
1,80,0,90
1,80,52,30
1,80,0,120
1,84,44,0
1,84,0,120
1,80,52,0
1,80,0,120
1,75,44,0
1,75,0,120
1,80,52,0
1,80,0,240
1,85,55,240
1,85,0,120
