track,note,velocity,time
1,86,92,0
1,81,78,0
1,78,78,0
1,74,78,0
1,74,0,960
1,86,0,0
1,81,0,0
1,78,0,0
1,57,56,0
1,62,66,0
1,62,0,120
1,57,0,0
1,57,51,120
1,62,61,0
1,62,0,120
1,57,0,0
1,57,56,120
1,62,66,0
1,62,0,120
1,57,0,0
1,57,51,120
1,62,60,0
1,62,0,120
1,57,0,0
1,57,62,120
1,62,73,0
1,57,0,480
1,59,53,0
1,64,63,0
1,64,0,240
1,59,0,0
1,62,0,0
1,60,56,240
1,62,56,0
1,66,66,0
1,66,0,120
1,62,0,0
1,60,0,0
1,60,51,120
1,62,51,0
1,66,61,0
1,66,0,120
1,62,0,0
1,60,0,0
1,60,56,120
1,62,56,0
1,66,66,0
1,66,0,120
1,62,0,0
1,60,0,0
1,60,51,120
1,62,51,0
1,66,60,0
1,66,0,120
1,62,0,0
1,60,0,0
1,60,62,120
1,62,62,0
1,66,73,0
1,66,0,480
1,60,0,0
1,59,53,0
1,67,63,0
1,67,0,240
1,59,0,0
1,62,0,0
1,64,57,0
1,64,0,240
1,67,63,0
1,67,0,160
1,66,57,0
1,66,0,160
1,64,57,0
1,64,0,160
1,70,63,0
1,70,0,160
1,69,58,0
1,69,0,160
1,67,58,0
1,67,0,160
1,69,63,0
1,69,0,240
1,78,56,240
1,78,0,160
1,76,46,0
1,76,0,160
1,74,46,0
1,74,0,160
1,81,57,0
1,81,0,160
1,79,47,0
1,79,0,160
1,78,47,0
1,78,0,160
1,76,58,0
1,76,0,160
1,74,50,0
1,74,0,160
1,73,50,0
1,73,0,160
1,86,92,0
1,81,78,0
1,77,78,0
1,74,78,0
1,74,0,960
1,86,0,0
1,81,0,0
1,77,0,0
1,57,56,0
1,62,66,0
1,62,0,120
1,57,0,0
1,57,51,120
1,62,61,0
1,62,0,120
1,57,0,0
1,57,56,120
1,62,66,0
1,62,0,120
1,57,0,0
1,57,51,120
1,62,60,0
1,62,0,120
1,57,0,0
1,57,62,120
1,62,73,0
1,57,0,480
1,58,53,0
1,64,63,0
1,64,0,240
1,58,0,0
1,62,0,0
1,60,56,240
1,62,56,0
1,66,66,0
1,66,0,120
1,62,0,0
1,60,0,0
1,60,51,120
1,62,51,0
1,66,61,0
1,66,0,120
1,62,0,0
1,60,0,0
1,60,56,120
1,62,56,0
1,66,66,0
1,66,0,120
1,62,0,0
1,60,0,0
1,60,51,120
1,62,51,0
1,66,60,0
1,66,0,120
1,62,0,0
1,60,0,0
1,60,62,120
1,62,62,0
1,66,73,0
1,66,0,480
1,60,0,0
1,58,53,0
1,67,63,0
1,67,0,240
1,58,0,0
1,62,0,0
1,65,56,240
1,62,56,0
1,68,66,0
1,68,0,120
1,62,0,0
1,65,0,0
1,65,51,120
1,62,51,0
1,68,61,0
1,68,0,120
1,62,0,0
1,65,0,0
1,65,56,120
1,62,56,0
1,68,66,0
1,68,0,120
1,62,0,0
1,65,0,0
1,65,51,120
1,62,51,0
1,68,60,0
1,68,0,120
1,62,0,0
1,65,0,0
1,60,62,120
1,65,62,0
1,69,73,0
1,69,0,480
1,65,0,0
1,60,0,0
1,72,56,0
1,72,0,160
1,70,46,0
1,70,0,160
1,69,46,0
1,69,0,160
1,67,57,0
1,67,0,160
1,65,47,0
1,65,0,160
1,64,47,0
1,64,0,160
1,62,55,0
1,62,0,160
1,60,47,0
1,60,0,160
1,58,47,0
1,58,0,160
1,57,53,0
1,57,0,160
1,58,46,0
1,58,0,160
1,60,46,0
1,60,0,160
1,72,56,0
1,72,0,160
1,70,46,0
1,70,0,160
1,69,46,0
1,69,0,160
1,67,57,0
1,67,0,160
1,65,47,0
1,65,0,160
1,64,47,0
1,64,0,160
1,62,55,0
1,62,0,160
1,60,47,0
1,60,0,160
1,58,47,0
1,58,0,160
1,57,53,0
1,57,0,160
1,58,46,0
1,58,0,160
1,60,40,0
1,60,0,160
1,57,45,0
1,57,0,160
1,58,39,0
1,58,0,160
1,60,36,0
1,60,0,160
1,57,47,0
1,58,42,160
1,57,0,16
1,60,43,144
1,58,0,16
1,60,0,144
1,57,50,0
1,58,45,160
1,57,0,16
1,60,41,144
1,58,0,16
1,60,0,144
1,57,54,0
1,58,47,160
1,57,0,16
1,60,43,144
1,58,0,16
1,60,0,144
1,57,56,0
1,58,50,160
1,57,0,16
1,60,46,144
1,58,0,16
1,60,0,144
1,57,59,0
1,58,52,160
1,57,0,16
1,60,46,144
1,58,0,16
1,60,0,144
1,57,63,0
1,58,55,160
1,57,0,16
1,60,47,144
1,58,0,16
1,60,0,144
1,53,54,0
1,56,54,0
1,61,70,0
1,61,0,960
1,56,0,0
1,53,0,0
1,56,37,0
1,61,37,0
1,65,44,0
1,65,0,120
1,61,0,0
1,56,0,0
1,56,33,120
1,61,33,0
1,65,39,0
1,65,0,120
1,61,0,0
1,56,0,0
1,56,33,120
1,61,33,0
1,65,39,0
1,65,0,120
1,61,0,0
1,56,0,0
1,56,33,120
1,61,33,0
1,65,39,0
1,65,0,120
1,61,0,0
1,56,0,0
1,61,38,120
1,65,38,0
1,68,45,0
1,68,0,960
1,65,0,0
1,61,0,0
1,68,46,0
1,65,44,0
1,73,52,0
1,73,0,120
1,65,0,0
1,68,0,0
1,65,39,120
1,68,39,0
1,73,46,0
1,73,0,120
1,68,0,0
1,65,0,0
1,65,39,120
1,68,39,0
1,73,46,0
1,73,0,120
1,68,0,0
1,65,0,0
1,65,39,120
1,68,39,0
1,73,46,0
1,73,0,120
1,68,0,0
1,65,0,0
1,64,52,120
1,67,52,0
1,69,52,0
1,73,62,0
1,73,0,960
1,64,0,0
1,67,0,0
1,69,0,0
1,67,55,0
1,73,58,0
1,69,55,0
1,76,66,0
1,76,0,120
1,67,0,0
1,73,0,0
1,69,0,0
1,67,49,120
1,69,49,0
1,73,49,0
1,76,58,0
1,76,0,120
1,67,0,0
1,69,0,0
1,73,0,0
1,67,50,120
1,69,50,0
1,73,50,0
1,76,58,0
1,76,0,120
1,67,0,0
1,69,0,0
1,73,0,0
1,67,50,120
1,69,50,0
1,73,50,0
1,76,59,0
1,76,0,120
1,67,0,0
1,69,0,0
1,73,0,0
1,69,67,120
1,73,67,0
1,76,67,0
1,79,67,0
1,81,79,0
1,81,0,960
1,76,0,0
1,69,0,0
1,73,0,0
1,79,0,0
1,76,75,0
1,81,79,0
1,79,75,0
1,85,90,0
1,85,0,120
1,76,0,0
1,81,0,0
1,79,0,0
1,76,69,120
1,79,69,0
1,81,69,0
1,85,81,0
1,85,0,120
1,76,0,0
1,79,0,0
1,81,0,0
1,76,72,120
1,79,72,0
1,81,72,0
1,85,84,0
1,85,0,120
1,76,0,0
1,79,0,0
1,81,0,0
1,76,75,120
1,79,75,0
1,81,75,0
1,85,87,0
1,85,0,120
1,76,0,0
1,79,0,0
1,81,0,0
1,86,105,120
1,81,89,0
1,78,89,0
1,74,89,0
1,74,0,960
1,86,0,0
1,81,0,0
1,78,0,0
1,57,54,0
1,62,63,0
1,62,0,120
1,57,0,0
1,57,49,120
1,62,59,0
1,62,0,120
1,57,0,0
1,57,54,120
1,62,63,0
1,62,0,120
1,57,0,0
1,57,49,120
1,62,58,0
1,62,0,120
1,57,0,0
1,57,60,120
1,62,70,0
1,57,0,480
1,59,51,0
1,64,61,0
1,64,0,240
1,59,0,0
1,62,0,0
1,57,61,240
1,57,0,160
1,59,55,0
1,59,0,160
1,60,55,0
1,60,0,160
1,62,61,0
1,62,0,160
1,64,56,0
1,64,0,160
1,66,56,0
1,66,0,160
1,58,61,0
1,58,0,240
1,66,52,0
1,66,0,240
1,59,61,0
1,59,0,240
1,67,55,0
1,67,0,240
1,64,54,0
1,67,54,0
1,69,63,0
1,69,0,120
1,67,0,0
1,64,0,0
1,64,49,120
1,67,49,0
1,69,59,0
1,69,0,120
1,67,0,0
1,64,0,0
1,64,54,120
1,67,54,0
1,69,63,0
1,69,0,120
1,67,0,0
1,64,0,0
1,64,49,120
1,67,49,0
1,69,58,0
1,69,0,120
1,67,0,0
1,64,0,0
1,67,60,120
1,64,60,0
1,69,70,0
1,69,0,480
1,64,0,0
1,62,51,0
1,71,61,0
1,71,0,240
1,62,0,0
1,67,0,0
1,62,61,240
1,62,0,160
1,64,55,0
1,64,0,160
1,66,55,0
1,66,0,160
1,67,61,0
1,67,0,160
1,69,56,0
1,69,0,160
1,71,56,0
1,71,0,160
1,63,61,0
1,63,0,240
1,71,52,0
1,71,0,240
1,64,61,0
1,64,0,240
1,72,55,0
1,72,0,240
1,67,54,0
1,70,54,0
1,73,63,0
1,73,0,120
1,70,0,0
1,67,0,0
1,67,49,120
1,70,49,0
1,73,59,0
1,73,0,120
1,70,0,0
1,67,0,0
1,67,54,120
1,70,54,0
1,73,63,0
1,73,0,120
1,70,0,0
1,67,0,0
1,67,49,120
1,70,49,0
1,73,58,0
1,73,0,120
1,70,0,0
1,67,0,0
1,70,60,120
1,67,60,0
1,73,70,0
1,73,0,480
1,67,0,0
1,65,51,0
1,74,61,0
1,74,0,240
1,65,0,0
1,70,0,0
1,65,61,240
1,65,0,160
1,67,55,0
1,67,0,160
1,69,55,0
1,69,0,160
1,71,61,0
1,71,0,160
1,72,56,0
1,72,0,160
1,74,56,0
1,74,0,160
1,75,61,0
1,75,0,240
1,67,50,0
1,67,0,240
1,74,61,0
1,74,0,240
1,65,51,0
1,65,0,240
1,64,45,0
1,67,45,0
1,70,45,0
1,73,53,0
1,73,0,120
1,64,0,0
1,67,0,0
1,70,0,0
1,64,41,120
1,67,41,0
1,70,41,0
1,73,50,0
1,73,0,120
1,64,0,0
1,67,0,0
1,70,0,0
1,64,45,120
1,67,45,0
1,70,45,0
1,73,53,0
1,73,0,120
1,64,0,0
1,67,0,0
1,70,0,0
1,64,41,120
1,67,41,0
1,70,41,0
1,73,49,0
1,73,0,120
1,64,0,0
1,67,0,0
1,70,0,0
1,64,51,120
1,70,51,0
1,67,51,0
1,73,59,0
1,73,0,480
1,67,0,0
1,64,0,0
1,65,43,0
1,74,51,0
1,74,0,240
1,65,0,0
1,70,0,0
1,65,51,240
1,65,0,160
1,67,46,0
1,67,0,160
1,69,46,0
1,69,0,160
1,70,51,0
1,70,0,160
1,72,47,0
1,72,0,160
1,74,47,0
1,74,0,160
1,79,51,0
1,75,43,0
1,75,0,240
1,79,0,0
1,67,44,0
1,67,0,240
1,77,51,0
1,74,43,0
1,74,0,240
1,77,0,0
1,65,46,0
1,65,0,240
1,64,40,0
1,67,40,0
1,70,40,0
1,73,53,0
1,73,0,120
1,64,0,0
1,67,0,0
1,70,0,0
1,64,37,120
1,67,37,0
1,70,37,0
1,73,50,0
1,73,0,120
1,64,0,0
1,67,0,0
1,70,0,0
1,64,40,120
1,67,40,0
1,70,40,0
1,73,53,0
1,73,0,120
1,64,0,0
1,67,0,0
1,70,0,0
1,64,37,120
1,67,37,0
1,70,37,0
1,73,49,0
1,73,0,120
1,64,0,0
1,67,0,0
1,70,0,0
1,64,51,120
1,70,51,0
1,67,51,0
1,73,59,0
1,73,0,480
1,67,0,0
1,64,0,0
1,65,43,0
1,74,51,0
1,74,0,240
1,65,0,0
1,70,0,0
1,65,50,240
1,65,0,160
1,67,51,0
1,67,0,160
1,69,52,0
1,69,0,160
1,70,53,0
1,70,0,160
1,72,54,0
1,72,0,160
1,74,55,0
1,74,0,160
1,75,61,0
1,75,0,160
1,77,52,0
1,77,0,160
1,79,52,0
1,79,0,160
1,77,61,0
1,77,0,160
1,75,53,0
1,75,0,160
1,74,53,0
1,74,0,160
1,73,57,0
1,73,0,160
1,70,47,0
1,70,0,160
1,67,47,0
1,67,0,160
1,64,49,0
1,64,0,160
1,61,47,0
1,61,0,160
1,64,48,0
1,64,0,160
1,65,50,0
1,65,0,160
1,62,45,0
1,62,0,160
1,65,45,0
1,65,0,160
1,62,50,0
1,62,0,160
1,58,45,0
1,58,0,160
1,62,45,0
1,62,0,160
1,65,45,0
1,65,0,160
1,67,47,0
1,67,0,160
1,69,49,0
1,69,0,160
1,70,51,0
1,70,0,160
1,72,53,0
1,72,0,160
1,74,55,0
1,74,0,160
1,75,57,0
1,75,0,160
1,77,59,0
1,77,0,160
1,79,61,0
1,79,0,160
1,77,63,0
1,77,0,160
1,75,58,0
1,75,0,160
1,74,61,0
1,74,0,160
1,73,57,0
1,73,0,160
1,70,55,0
1,70,0,160
1,67,53,0
1,67,0,160
1,64,51,0
1,64,0,160
1,61,47,0
1,61,0,160
1,64,43,0
1,64,0,160
1,67,59,0
1,67,0,160
1,64,43,0
1,64,0,160
1,67,43,0
1,67,0,160
1,64,44,0
1,64,0,160
1,61,45,0
1,61,0,160
1,64,45,0
1,64,0,160
1,68,62,0
1,68,0,160
1,64,46,0
1,64,0,160
1,68,47,0
1,68,0,160
1,64,47,0
1,64,0,160
1,61,48,0
1,61,0,160
1,64,48,0
1,64,0,160
1,69,65,0
1,69,0,160
1,64,49,0
1,64,0,160
1,69,50,0
1,69,0,160
1,64,50,0
1,64,0,160
1,61,51,0
1,61,0,160
1,64,52,0
1,64,0,160
1,69,68,0
1,69,0,160
1,64,52,0
1,64,0,160
1,69,53,0
1,69,0,160
1,64,54,0
1,64,0,160
1,60,54,0
1,60,0,160
1,64,55,0
1,64,0,160
1,74,74,0
1,74,0,160
1,69,59,0
1,69,0,160
1,74,60,0
1,74,0,160
1,69,61,0
1,69,0,160
1,62,62,0
1,62,0,160
1,69,63,0
1,69,0,160
1,80,82,0
1,80,0,160
1,74,67,0
1,74,0,160
1,80,69,0
1,80,0,160
1,74,70,0
1,74,0,160
1,68,72,0
1,68,0,160
1,74,74,0
1,74,0,160
1,81,105,0
1,76,89,0
1,73,89,0
1,69,89,0
1,69,0,960
1,81,0,0
1,76,0,0
1,73,0,0
1,72,54,0
1,75,63,0
1,75,0,180
1,72,0,0
1,72,49,60
1,75,59,0
1,75,0,180
1,72,0,0
1,72,54,60
1,75,63,0
1,75,0,180
1,72,0,0
1,72,49,60
1,75,58,0
1,75,0,180
1,72,0,0
1,73,60,60
1,76,70,0
1,76,0,480
1,73,0,0
1,85,49,0
1,85,0,240
1,49,64,0
1,49,0,240
1,50,66,0
1,50,0,160
1,49,62,0
1,49,0,160
1,47,64,0
1,47,0,160
1,53,65,0
1,53,0,160
1,52,60,0
1,52,0,160
1,50,49,0
1,50,0,160
1,73,56,480
1,76,56,0
1,76,0,360
1,73,0,0
1,73,49,0
1,76,49,0
1,76,0,120
1,73,0,0
1,71,55,0
1,74,55,0
1,59,55,0
1,59,0,160
1,61,56,0
1,74,0,80
1,71,0,0
1,61,0,80
1,62,54,0
1,62,0,160
1,64,57,0
1,64,0,160
1,66,60,0
1,66,0,160
1,68,62,0
1,68,0,160
1,81,94,0
1,76,80,0
1,73,80,0
1,69,80,0
1,69,0,960
1,81,0,0
1,76,0,0
1,73,0,0
1,72,54,0
1,75,63,0
1,75,0,330
1,72,0,0
1,72,49,30
1,75,59,0
1,75,0,90
1,72,0,0
1,72,54,30
1,75,63,0
1,75,0,330
1,72,0,0
1,72,49,30
1,75,58,0
1,75,0,90
1,72,0,0
1,73,60,30
1,76,70,0
1,76,0,480
1,73,0,0
1,85,49,0
1,85,0,240
1,49,64,0
1,49,0,240
1,50,66,0
1,50,0,160
1,49,62,0
1,49,0,160
1,47,64,0
1,47,0,160
1,53,65,0
1,53,0,160
1,52,60,0
1,52,0,160
1,50,49,0
1,50,0,160
1,73,56,480
1,76,56,0
1,76,0,360
1,73,0,0
1,73,49,0
1,76,49,0
1,76,0,120
1,73,0,0
1,71,55,0
1,74,55,0
1,59,55,0
1,59,0,160
1,61,56,0
1,74,0,80
1,71,0,0
1,61,0,80
1,62,54,0
1,62,0,160
1,64,57,0
1,64,0,160
1,66,60,0
1,66,0,160
1,68,62,0
1,68,0,160
1,69,57,0
1,69,0,160
1,71,61,0
1,71,0,160
1,73,62,0
1,73,0,160
1,74,63,0
1,74,0,160
