track,note,velocity,time
1,60,55,0
1,60,0,40
1,65,60,0
1,65,0,40
1,68,66,0
1,68,0,40
1,72,75,0
1,72,0,720
1,70,57,0
1,70,0,120
1,68,67,0
1,68,0,360
1,70,58,0
1,70,0,120
1,67,68,0
1,67,0,360
1,68,51,0
1,68,0,120
1,65,60,0
1,65,0,360
1,66,51,0
1,66,0,120
1,63,62,0
1,63,0,360
1,65,52,0
1,65,0,120
1,61,60,0
1,61,0,360
1,63,51,0
1,63,0,120
1,60,60,0
1,60,0,360
1,61,51,0
1,61,0,120
1,58,60,0
1,58,0,360
1,60,53,0
1,60,0,120
1,56,63,0
1,56,0,360
1,58,60,0
1,58,0,120
1,54,68,0
1,54,0,360
1,56,63,0
1,56,0,120
1,53,72,0
1,53,0,360
1,55,67,0
1,55,0,120
1,52,78,0
1,52,0,240
1,73,79,240
1,67,66,0
1,70,66,0
1,70,0,240
1,67,0,0
1,73,0,0
1,72,41,720
1,72,0,40
1,73,41,0
1,73,0,40
1,75,41,0
1,75,0,40
1,73,47,0
1,73,0,240
1,72,41,0
1,72,0,120
1,72,47,0
1,72,0,480
1,77,53,0
1,77,0,640
1,67,39,0
1,67,0,160
1,70,39,0
1,70,0,160
1,73,44,0
1,73,0,160
1,70,38,0
1,70,0,160
1,67,37,0
1,67,0,160
1,65,46,0
1,65,0,960
1,64,41,0
1,64,0,240
1,78,51,0
1,78,0,120
1,79,53,0
1,79,0,120
1,80,56,0
1,80,0,120
1,81,58,0
1,81,0,120
1,82,61,0
1,82,0,120
1,83,63,0
1,83,0,120
1,72,55,0
1,72,0,40
1,77,60,0
1,77,0,40
1,80,66,0
1,80,0,40
1,84,76,0
1,84,0,720
1,82,47,0
1,82,0,120
1,80,60,0
1,80,0,120
1,82,50,0
1,82,0,60
1,80,50,0
1,80,0,60
1,79,46,0
1,79,0,60
1,80,46,0
1,80,0,60
1,82,54,0
1,82,0,120
1,79,60,0
1,79,0,120
1,80,49,0
1,80,0,60
1,79,49,0
1,79,0,60
1,77,45,0
1,77,0,60
1,79,45,0
1,79,0,60
1,80,51,0
1,80,0,120
1,77,60,0
1,77,0,120
1,79,48,0
1,79,0,60
1,77,48,0
1,77,0,60
1,76,43,0
1,76,0,60
1,77,43,0
1,77,0,60
1,78,49,0
1,78,0,120
1,75,62,0
1,75,0,120
1,77,49,0
1,77,0,60
1,75,49,0
1,75,0,60
1,74,44,0
1,74,0,60
1,75,44,0
1,75,0,60
1,77,52,0
1,77,0,120
1,73,60,0
1,73,0,120
1,75,49,0
1,75,0,60
1,73,49,0
1,73,0,60
1,72,47,0
1,72,0,60
1,73,47,0
1,73,0,60
1,75,51,0
1,75,0,120
1,72,60,0
1,72,0,120
1,73,50,0
1,73,0,60
1,72,50,0
1,72,0,60
1,71,44,0
1,71,0,60
1,72,44,0
1,72,0,60
1,73,51,0
1,73,0,120
1,70,60,0
1,70,0,120
1,73,52,0
1,73,0,120
1,70,52,0
1,70,0,120
1,73,48,0
1,73,0,120
1,68,63,0
1,68,0,120
1,73,56,0
1,73,0,120
1,68,57,0
1,68,0,120
1,73,55,0
1,73,0,120
1,66,68,0
1,66,0,120
1,73,62,0
1,73,0,120
1,66,63,0
1,66,0,120
1,73,59,0
1,73,0,120
1,65,72,0
1,65,0,120
1,73,65,0
1,73,0,120
1,65,67,0
1,65,0,120
1,73,67,0
1,73,0,120
1,64,90,0
1,64,0,240
1,82,75,240
1,85,90,0
1,79,75,0
1,79,0,240
1,85,0,0
1,82,0,0
1,72,41,720
1,72,0,40
1,73,41,0
1,73,0,40
1,75,41,0
1,75,0,40
1,73,47,0
1,73,0,240
1,72,41,0
1,72,0,120
1,72,46,0
1,72,0,160
1,80,53,0
1,80,0,160
1,79,47,0
1,79,0,160
1,77,47,0
1,77,0,160
1,72,43,0
1,72,0,160
1,68,38,0
1,68,0,160
1,67,47,0
1,67,0,160
1,75,52,0
1,75,0,160
1,72,39,0
1,72,0,160
1,73,44,0
1,73,0,160
1,70,38,0
1,70,0,160
1,67,34,0
1,67,0,160
1,65,53,0
1,65,0,160
1,60,48,0
1,60,0,160
1,65,49,0
1,65,0,160
1,68,58,0
1,68,0,160
1,65,50,0
1,65,0,160
1,73,51,0
1,73,0,160
1,72,66,0
1,72,0,240
1,76,78,240
1,67,66,0
1,72,66,0
1,72,0,180
1,67,0,0
1,76,0,0
1,77,78,300
1,68,66,0
1,72,66,0
1,72,0,180
1,68,0,0
1,77,0,0
1,68,45,60
1,68,0,120
1,72,28,0
1,72,0,120
1,68,39,0
1,68,0,120
1,72,28,0
1,72,0,120
1,68,38,0
1,68,0,120
1,72,31,0
1,72,0,120
1,67,45,0
1,67,0,120
1,71,30,0
1,71,0,120
1,68,45,0
1,68,0,120
1,72,32,0
1,72,0,120
1,68,39,0
1,68,0,120
1,72,27,0
1,72,0,120
1,68,40,0
1,68,0,120
1,72,30,0
1,72,0,120
1,69,45,0
1,69,0,120
1,75,31,0
1,75,0,120
1,70,38,0
1,70,0,120
1,73,30,0
1,73,0,120
1,70,38,0
1,70,0,120
1,73,32,0
1,73,0,120
1,70,40,0
1,70,0,120
1,73,28,0
1,73,0,120
1,73,47,0
1,73,0,120
1,77,38,0
1,77,0,120
1,70,45,0
1,70,0,120
1,73,32,0
1,73,0,120
1,68,40,0
1,68,0,120
1,73,31,0
1,73,0,120
1,67,37,0
1,67,0,120
1,73,31,0
1,73,0,120
1,68,45,0
1,68,0,120
1,73,30,0
1,73,0,120
1,68,36,0
1,68,0,120
1,72,27,0
1,72,0,120
1,68,38,0
1,68,0,120
1,72,31,0
1,72,0,120
1,68,33,0
1,68,0,120
1,72,28,0
1,72,0,120
1,68,47,0
1,68,0,120
1,72,30,0
1,72,0,120
1,66,35,0
1,66,0,120
1,70,31,0
1,70,0,120
1,66,40,0
1,66,0,120
1,70,28,0
1,70,0,120
1,66,36,0
1,66,0,120
1,70,29,0
1,70,0,120
1,66,45,0
1,66,0,120
1,70,27,0
1,70,0,120
1,65,34,0
1,65,0,120
1,68,27,0
1,68,0,120
1,65,36,0
1,65,0,120
1,68,27,0
1,68,0,120
1,65,32,0
1,65,0,120
1,68,28,0
1,68,0,120
1,65,45,0
1,65,0,120
1,68,27,0
1,68,0,120
1,64,33,0
1,64,0,120
1,67,27,0
1,67,0,120
1,64,39,0
1,64,0,120
1,67,28,0
1,67,0,120
1,64,36,0
1,64,0,120
1,67,29,0
1,67,0,120
1,65,60,0
1,65,0,240
1,68,45,0
1,68,0,120
1,72,28,0
1,72,0,120
1,68,39,0
1,68,0,120
1,72,28,0
1,72,0,120
1,68,38,0
1,68,0,120
1,72,31,0
1,72,0,120
1,67,45,0
1,67,0,120
1,71,30,0
1,71,0,120
1,68,45,0
1,68,0,120
1,72,32,0
1,72,0,120
1,68,39,0
1,68,0,120
1,72,27,0
1,72,0,120
1,68,40,0
1,68,0,120
1,72,30,0
1,72,0,120
1,69,45,0
1,69,0,120
1,75,31,0
1,75,0,120
1,70,38,0
1,70,0,120
1,73,30,0
1,73,0,120
1,70,38,0
1,70,0,120
1,73,31,0
1,73,0,120
1,70,33,0
1,70,0,120
1,73,28,0
1,73,0,120
1,73,47,0
1,73,0,120
1,77,38,0
1,77,0,120
1,70,45,0
1,70,0,120
1,73,32,0
1,73,0,120
1,68,40,0
1,68,0,120
1,73,31,0
1,73,0,120
1,67,37,0
1,67,0,120
1,73,31,0
1,73,0,120
1,68,45,0
1,68,0,120
1,73,30,0
1,73,0,120
1,68,36,0
1,68,0,120
1,72,27,0
1,72,0,120
1,68,38,0
1,68,0,120
1,72,31,0
1,72,0,120
1,68,33,0
1,68,0,120
1,72,28,0
1,72,0,120
1,72,47,0
1,72,0,120
1,75,30,0
1,75,0,120
1,65,35,0
1,65,0,120
1,70,31,0
1,70,0,120
1,73,50,0
1,73,0,120
1,77,34,0
1,77,0,120
1,75,43,0
1,75,0,120
1,73,35,0
1,73,0,120
1,70,45,0
1,70,0,120
1,73,27,0
1,73,0,120
1,63,34,0
1,63,0,120
1,68,27,0
1,68,0,120
1,72,47,0
1,72,0,120
1,75,35,0
1,75,0,120
1,73,41,0
1,73,0,120
1,72,36,0
1,72,0,120
1,69,45,0
1,69,0,120
1,72,27,0
1,72,0,120
1,63,33,0
1,63,0,120
1,67,27,0
1,67,0,120
1,70,46,0
1,70,0,120
1,73,36,0
1,73,0,120
1,72,40,0
1,72,0,120
1,70,34,0
1,70,0,120
1,68,50,0
1,68,0,240
1,68,45,0
1,68,0,120
1,72,28,0
1,72,0,120
1,68,39,0
1,68,0,120
1,72,28,0
1,72,0,120
1,68,38,0
1,68,0,120
1,72,31,0
1,72,0,120
1,71,45,0
1,71,0,120
1,74,30,0
1,74,0,120
1,72,45,0
1,72,0,120
1,75,32,0
1,75,0,120
1,72,39,0
1,72,0,120
1,75,27,0
1,75,0,120
1,72,40,0
1,72,0,120
1,75,30,0
1,75,0,120
1,72,45,0
1,72,0,120
1,75,37,0
1,75,0,120
1,73,44,0
1,73,0,120
1,76,39,0
1,76,0,120
1,79,52,0
1,79,0,120
1,82,46,0
1,82,0,120
1,72,44,0
1,72,0,120
1,75,36,0
1,75,0,120
1,73,48,0
1,73,0,120
1,76,51,0
1,76,0,120
1,79,55,0
1,79,0,120
1,82,58,0
1,82,0,120
1,80,61,0
1,80,0,120
1,79,59,0
1,79,0,120
1,77,57,0
1,77,0,120
1,79,62,0
1,79,0,120
1,80,72,0
1,80,0,240
1,68,51,0
1,68,0,120
1,72,32,0
1,72,0,120
1,68,44,0
1,68,0,120
1,72,32,0
1,72,0,120
1,68,43,0
1,68,0,120
1,72,35,0
1,72,0,120
1,71,51,0
1,71,0,120
1,74,34,0
1,74,0,120
1,72,51,0
1,72,0,120
1,75,36,0
1,75,0,120
1,72,44,0
1,72,0,120
1,75,31,0
1,75,0,120
1,72,46,0
1,72,0,120
1,75,34,0
1,75,0,120
1,74,51,0
1,74,0,120
1,77,42,0
1,77,0,120
1,75,50,0
1,75,0,120
1,78,44,0
1,78,0,120
1,81,59,0
1,81,0,120
1,84,52,0
1,84,0,120
1,74,50,0
1,74,0,120
1,77,41,0
1,77,0,120
1,75,55,0
1,75,0,120
1,78,58,0
1,78,0,120
1,81,63,0
1,81,0,120
1,84,66,0
1,84,0,120
1,82,70,0
1,82,0,120
1,81,67,0
1,81,0,120
1,79,65,0
1,79,0,120
1,81,71,0
1,81,0,120
1,82,77,0
1,82,0,240
1,73,51,0
1,73,0,120
1,77,32,0
1,77,0,120
1,73,44,0
1,73,0,120
1,77,32,0
1,77,0,120
1,73,43,0
1,73,0,120
1,77,35,0
1,77,0,120
1,72,51,0
1,72,0,120
1,76,34,0
1,76,0,120
1,73,51,0
1,73,0,120
1,77,36,0
1,77,0,120
1,73,44,0
1,73,0,120
1,77,31,0
1,77,0,120
1,73,46,0
1,73,0,120
1,77,34,0
1,77,0,120
1,82,72,0
1,82,0,120
1,73,35,0
1,73,0,120
1,76,46,0
1,76,0,120
1,73,32,0
1,73,0,120
1,75,44,0
1,75,0,120
1,73,32,0
1,73,0,120
1,76,43,0
1,76,0,120
1,73,35,0
1,73,0,120
1,80,67,0
1,80,0,120
1,72,34,0
1,72,0,120
1,77,45,0
1,77,0,120
1,72,36,0
1,72,0,120
1,75,44,0
1,75,0,120
1,72,31,0
1,72,0,120
1,80,63,0
1,80,0,120
1,72,34,0
1,72,0,120
1,85,72,0
1,82,61,0
1,82,0,120
1,85,0,0
1,73,35,0
1,73,0,120
1,76,46,0
1,76,0,120
1,73,32,0
1,73,0,120
1,75,44,0
1,75,0,120
1,73,32,0
1,73,0,120
1,76,43,0
1,76,0,120
1,73,35,0
1,73,0,120
1,84,67,0
1,80,56,0
1,80,0,120
1,84,0,0
1,72,34,0
1,72,0,120
1,77,45,0
1,77,0,120
1,72,36,0
1,72,0,120
1,75,44,0
1,75,0,120
1,72,31,0
1,72,0,120
1,80,63,0
1,80,0,120
1,72,34,0
1,72,0,120
1,84,70,0
1,84,0,120
1,87,52,0
1,87,0,120
1,77,57,0
1,77,0,120
1,82,53,0
1,82,0,120
1,85,62,0
1,85,0,120
1,89,69,0
1,89,0,120
1,87,57,0
1,87,0,120
1,85,57,0
1,85,0,120
1,82,63,0
1,82,0,120
1,85,53,0
1,85,0,120
1,75,53,0
1,75,0,120
1,80,48,0
1,80,0,120
1,84,62,0
1,84,0,120
1,87,67,0
1,87,0,120
1,85,53,0
1,85,0,120
1,84,53,0
1,84,0,120
1,81,66,0
1,81,0,120
1,84,47,0
1,84,0,120
1,75,53,0
1,75,0,120
1,79,50,0
1,79,0,120
1,82,61,0
1,82,0,120
1,85,58,0
1,85,0,120
1,84,53,0
1,84,0,120
1,82,53,0
1,82,0,120
1,80,67,0
1,80,0,120
1,79,57,0
1,79,0,120
1,77,64,0
1,77,0,120
1,76,65,0
1,76,0,120
1,75,67,0
1,75,0,120
1,73,68,0
1,73,0,120
1,72,69,0
1,72,0,120
1,70,71,0
1,70,0,120
1,68,75,0
1,68,0,240
1,56,72,0
1,56,0,120
1,56,72,120
1,56,0,120
1,56,72,120
1,56,0,120
1,55,78,120
1,55,0,240
1,56,69,0
1,56,0,120
1,56,69,120
1,56,0,120
1,56,69,120
1,56,0,120
1,57,72,120
1,57,0,360
1,58,64,0
1,58,0,60
1,60,59,0
1,60,0,60
1,58,72,0
1,58,0,360
1,60,65,0
1,60,0,60
1,61,61,0
1,61,0,60
1,63,72,0
1,63,0,120
1,67,70,120
1,67,0,120
1,70,70,0
1,70,0,120
1,75,67,0
1,75,0,120
1,79,70,0
1,79,0,120
1,82,73,0
1,82,0,120
1,87,75,0
1,87,0,120
1,80,78,0
1,80,0,240
1,56,72,0
1,56,0,120
1,56,72,120
1,56,0,120
1,56,72,120
1,56,0,120
1,55,78,120
1,55,0,240
1,56,69,0
1,56,0,120
1,56,69,120
1,56,0,120
1,56,69,120
1,56,0,120
1,57,72,120
1,57,0,360
1,58,64,0
1,58,0,60
1,60,59,0
1,60,0,60
1,58,72,0
1,58,0,360
1,60,65,0
1,60,0,60
1,61,59,0
1,61,0,60
1,63,72,0
1,63,0,120
1,64,70,120
1,64,0,120
1,67,70,0
1,67,0,120
1,72,67,0
1,72,0,120
1,76,70,0
1,76,0,120
1,79,73,0
1,79,0,120
1,84,75,0
1,84,0,120
1,77,78,0
1,77,0,240
1,65,72,0
1,56,61,0
1,56,0,120
1,65,0,0
1,56,61,120
1,65,72,0
1,65,0,120
1,56,0,0
1,56,61,120
1,65,72,0
1,65,0,120
1,56,0,0
1,56,61,120
1,64,78,0
1,64,0,240
1,65,69,0
1,65,0,120
1,56,0,0
1,56,58,120
1,65,69,0
1,65,0,120
1,56,0,0
1,56,58,120
1,65,69,0
1,65,0,120
1,56,0,0
1,65,72,120
1,59,61,0
1,65,0,360
1,66,64,0
1,66,0,60
1,68,62,0
1,68,0,60
1,59,0,0
1,66,72,0
1,58,61,0
1,58,0,240
1,66,0,120
1,68,65,0
1,68,0,60
1,69,62,0
1,69,0,60
1,68,72,0
1,66,61,0
1,60,61,0
1,60,0,120
1,66,0,0
1,68,0,0
1,72,70,120
1,72,0,120
1,75,70,0
1,75,0,120
1,80,67,0
1,80,0,120
1,84,70,0
1,84,0,120
1,87,73,0
1,87,0,120
1,92,75,0
1,92,0,120
1,85,78,0
1,85,0,240
1,65,72,0
1,56,61,0
1,56,0,120
1,65,0,0
1,56,61,120
1,65,72,0
1,65,0,120
1,56,0,0
1,56,61,120
1,65,72,0
1,65,0,120
1,56,0,0
1,64,78,120
1,56,61,0
1,64,0,240
1,65,69,0
1,65,0,120
1,56,0,0
1,56,58,120
1,65,69,0
1,65,0,120
1,56,0,0
1,65,69,120
1,56,58,0
1,56,0,120
1,65,0,0
1,62,61,120
1,65,61,0
1,71,78,0
1,71,0,240
1,65,0,0
1,62,0,0
1,65,58,0
1,62,58,0
1,70,69,0
1,70,0,120
