track,note,velocity,time
3,70,127,132
3,70,0,4
3,70,127,44
3,70,0,192
3,70,127,52
3,70,0,192
3,67,99,44
3,67,0,192
3,70,127,52
3,70,0,192
3,70,127,44
3,70,0,192
3,70,127,52
3,70,0,192
3,70,127,44
3,70,0,192
3,70,127,52
3,70,0,192
3,70,127,44
3,70,0,192
3,70,127,52
3,70,0,192
3,70,127,44
3,70,0,192
3,70,127,52
3,70,0,192
3,70,127,44
3,70,0,192
3,70,127,52
3,70,0,192
3,67,88,44
3,67,0,192
3,70,127,52
3,70,0,192
3,67,87,44
3,67,0,192
3,70,127,52
3,70,0,192
3,67,87,44
3,67,0,192
3,70,127,52
3,70,0,192
3,67,87,44
3,67,0,192
3,69,99,52
3,69,0,192
3,67,83,44
3,70,127,244
3,67,0,44
3,70,0,148
3,67,86,44
3,67,0,192
3,70,127,52
3,70,0,192
3,67,87,44
3,67,0,192
3,70,127,52
3,70,0,192
3,67,81,44
3,67,0,192
3,70,127,52
3,70,0,192
3,67,82,44
3,67,0,192
3,72,121,52
3,72,0,192
3,72,127,44
3,72,0,192
3,72,127,52
3,72,0,192
3,70,93,44
3,70,0,192
3,72,127,52
3,72,0,192
3,70,89,44
3,70,0,192
3,72,127,52
3,72,0,192
3,70,127,44
3,70,0,192
3,74,127,52
3,74,0,192
3,74,127,44
3,74,0,192
3,74,127,52
3,74,0,192
3,74,127,44
3,74,0,192
3,74,127,52
3,74,0,192
3,74,127,44
3,74,0,192
3,74,127,52
3,74,0,480
3,70,127,0
3,70,0,192
3,70,127,44
3,70,0,192
3,70,127,52
3,70,0,192
3,67,98,44
3,67,0,192
3,70,127,52
3,70,0,192
3,70,127,44
3,70,0,192
3,70,127,52
3,70,0,192
3,70,127,44
3,70,0,192
3,70,127,52
3,70,0,192
3,70,127,44
3,70,0,192
3,70,127,52
3,70,0,192
3,70,127,44
3,70,0,192
3,70,127,52
3,70,0,192
3,70,127,44
3,70,0,192
3,70,127,52
3,70,0,192
3,67,77,44
3,67,0,192
3,69,127,52
3,69,0,192
3,69,127,44
3,69,0,192
3,69,127,52
3,69,0,192
3,67,75,44
3,67,0,192
3,70,127,52
3,70,0,384
3,70,127,96
3,70,0,384
3,70,127,96
3,70,0,192
3,70,127,44
3,70,0,192
3,70,127,52
3,70,0,192
3,70,127,44
3,70,0,192
3,70,127,52
3,70,0,192
3,70,127,44
3,70,0,192
3,70,127,52
3,70,0,192
3,70,127,44
3,70,0,192
3,70,127,52
3,70,0,192
3,70,127,44
3,70,0,192
3,70,127,52
3,70,0,192
3,67,88,44
3,67,0,192
3,70,127,52
3,70,0,384
3,70,127,96
3,70,0,384
3,70,127,96
3,70,0,192
3,70,127,44
3,70,0,192
3,70,127,52
3,70,0,192
3,67,84,44
3,67,0,192
3,70,114,52
3,70,0,192
3,70,127,44
3,70,0,192
3,69,101,52
3,69,0,192
3,67,122,44
3,67,0,1236
3,70,127,6688
3,70,0,192
3,70,127,44
3,70,0,192
3,70,127,52
3,70,0,192
3,67,85,44
3,67,0,192
3,70,127,52
3,70,0,192
3,70,127,44
3,70,0,192
3,70,127,52
3,70,0,192
3,70,127,44
3,70,0,192
3,70,127,52
3,70,0,192
3,70,127,44
3,70,0,192
3,70,127,52
3,70,0,192
3,70,127,44
3,70,0,192
3,70,127,52
3,70,0,192
3,70,127,44
3,70,0,192
3,70,127,52
3,70,0,192
3,67,86,44
3,67,0,192
3,70,127,52
3,70,0,192
3,67,87,44
3,67,0,192
3,70,127,52
3,70,0,192
3,67,93,44
3,67,0,192
3,70,127,52
3,70,0,192
3,67,93,44
3,67,0,192
3,69,113,52
3,69,0,192
3,67,89,44
3,67,0,208
3,70,127,36
3,70,0,192
3,67,86,44
3,67,0,192
3,70,127,52
3,70,0,192
3,67,84,44
3,67,0,192
3,70,127,52
3,70,0,192
3,67,86,44
3,67,0,192
3,70,127,52
3,70,0,192
3,67,84,44
3,67,0,192
3,72,127,52
3,72,0,192
3,72,127,44
3,72,0,192
3,72,127,52
3,72,0,192
3,70,91,44
3,70,0,192
3,72,127,52
3,72,0,192
3,70,103,44
3,70,0,192
3,72,127,52
3,72,0,192
3,70,90,44
3,70,0,192
3,74,121,52
3,74,0,192
3,74,127,44
3,74,0,192
3,74,127,52
3,74,0,192
3,74,127,44
3,74,0,192
3,74,127,52
3,74,0,192
3,74,127,44
3,74,0,192
3,74,127,52
3,74,0,480
3,70,127,0
3,70,0,192
3,70,127,44
3,70,0,192
3,70,127,52
3,70,0,192
3,67,104,44
3,67,0,192
3,70,127,52
3,70,0,192
3,70,127,44
3,70,0,192
3,70,127,52
3,70,0,192
3,70,127,44
3,70,0,192
3,70,127,52
3,70,0,192
3,70,127,44
3,70,0,192
3,70,127,52
3,70,0,192
3,70,127,44
3,70,0,192
3,70,127,52
3,70,0,192
3,70,127,44
3,70,0,192
3,70,127,52
3,70,0,192
3,67,98,44
3,67,0,192
3,69,127,52
3,69,0,192
3,69,127,44
3,69,0,192
3,69,127,52
3,69,0,192
3,67,97,44
3,67,0,192
3,70,127,52
3,70,0,384
3,70,127,96
3,70,0,384
3,70,116,96
3,70,0,192
3,70,117,44
3,70,0,192
3,70,114,52
3,70,0,192
3,70,115,44
3,70,0,192
3,70,115,52
3,70,0,192
3,70,116,44
3,70,0,192
3,70,117,52
3,70,0,192
3,71,122,44
3,71,0,192
3,70,127,52
3,70,0,192
3,70,127,44
3,70,0,192
3,70,127,52
3,70,0,192
3,67,100,44
3,67,0,192
3,70,127,52
3,70,0,384
3,70,127,96
3,70,0,384
3,70,127,96
3,70,0,192
3,70,127,44
3,70,0,192
3,70,127,52
3,70,0,192
3,67,100,44
3,67,0,192
3,70,127,52
3,70,0,192
3,70,112,44
3,70,0,192
3,69,112,52
3,69,0,192
3,67,125,44
3,67,0,1728
3,70,114,145
3,70,0,200
3,72,127,52
3,72,0,384
3,72,127,96
3,72,0,192
3,70,111,44
3,70,0,192
3,72,127,52
3,72,0,384
3,72,127,96
3,72,0,192
3,70,111,44
3,70,0,192
3,72,127,52
3,72,0,253
3,72,127,96
3,72,0,192
3,70,104,44
3,70,0,192
3,74,127,52
3,74,0,576
3,74,127,140
3,74,0,576
3,70,127,148
3,70,0,192
3,70,127,44
3,70,0,192
3,70,127,52
3,70,0,384
3,67,97,96
3,67,0,192
3,65,78,44
3,65,0,192
3,67,97,52
3,67,0,192
3,67,96,44
3,67,0,192
3,70,120,52
3,70,0,460
3,70,103,980
3,70,0,192
3,72,127,44
3,72,0,192
3,72,127,52
3,72,0,192
3,70,105,44
3,70,0,192
3,72,127,52
3,72,0,192
3,72,127,288
3,72,0,192
3,70,102,44
3,70,0,192
3,72,127,52
3,72,0,768
3,72,127,192
3,72,0,768
3,72,127,192
3,72,0,192
3,70,100,52
3,70,0,192
3,74,127,28
3,74,0,1536
3,74,127,880
3,74,0,384
3,70,121,96
3,70,0,192
3,71,119,44
3,71,0,192
3,67,97,52
3,67,0,384
3,64,127,96
3,64,0,192
3,62,127,44
3,62,0,192
3,67,127,52
3,67,0,384
3,67,127,96
3,67,0,384
3,67,127,96
3,67,0,460
3,70,127,12491
3,70,0,192
3,70,127,44
3,70,0,192
3,70,127,52
3,70,0,192
3,67,93,44
3,67,0,192
3,70,122,52
3,70,0,192
3,70,127,44
3,70,0,192
3,70,127,52
3,70,0,192
3,70,127,44
3,70,0,192
3,70,127,52
3,70,0,192
3,70,127,44
3,70,0,192
3,70,127,52
3,70,0,192
3,67,90,44
3,67,0,192
3,70,119,52
3,70,0,192
3,70,119,44
3,70,0,192
3,70,119,52
3,70,0,192
3,70,119,44
3,70,0,192
3,70,119,52
3,70,0,192
3,70,120,44
3,70,0,192
3,70,120,52
3,70,0,192
3,70,120,44
3,70,0,192
3,70,120,52
3,70,0,192
3,70,120,44
3,70,0,192
3,70,120,52
3,70,0,192
3,70,120,44
3,70,0,192
3,70,120,52
3,70,0,192
3,70,120,44
3,70,0,192
3,70,120,52
3,70,0,192
3,70,120,44
3,70,0,192
3,70,120,52
3,70,0,192
3,70,120,44
3,70,0,172
3,70,120,52
3,70,0,192
3,70,120,44
3,70,0,192
3,70,120,52
3,70,0,192
3,70,121,44
3,70,0,192
3,70,122,52
3,70,0,192
3,70,122,44
3,70,0,192
3,70,122,52
3,70,0,192
3,70,127,44
3,70,0,192
3,70,127,52
3,70,0,192
3,70,127,44
3,70,0,192
3,70,127,52
3,70,0,192
3,70,127,44
3,70,0,192
3,70,127,52
3,70,0,192
3,70,127,44
3,70,0,192
3,70,127,52
3,70,0,192
3,70,127,44
3,70,0,192
3,70,127,52
3,70,0,192
3,70,127,44
3,70,0,192
3,70,127,52
3,70,0,192
3,70,127,44
3,70,0,192
3,70,127,52
3,70,0,192
3,70,127,44
3,70,0,192
3,70,127,52
3,70,0,192
3,70,127,44
3,70,0,22
3,70,127,52
3,70,0,192
3,70,127,44
3,70,0,23
3,70,127,3
3,70,0,192
3,70,127,44
3,70,0,76
3,70,127,0
3,70,0,93
3,70,127,44
3,70,0,188
3,70,127,32
3,70,0,164
3,70,127,44
3,70,0,72
3,70,127,32
3,70,0,107
3,70,127,36
3,70,0,35
3,71,127,48
3,71,0,76
3,71,127,4
3,71,0,16
3,71,127,44
3,71,0,60
3,71,127,0
3,71,0,60
3,72,127,0
3,72,0,60
3,72,127,0
3,72,0,60
3,72,127,0
3,72,0,60
3,72,127,0
3,72,0,60
3,73,127,0
3,73,0,60
3,73,127,0
3,73,0,40
3,73,127,0
3,73,0,60
3,73,127,0
3,73,0,60
3,74,127,0
3,74,0,60
3,74,127,0
3,74,0,60
3,74,127,0
3,74,0,60
3,74,127,0
3,74,0,60
3,75,127,0
3,75,0,60
3,75,127,0
3,75,0,60
3,75,127,0
3,75,0,60
3,75,127,0
3,75,0,60
3,76,127,0
3,76,0,60
3,76,127,0
3,76,0,60
3,76,127,0
3,76,0,60
3,76,127,0
3,76,0,60
3,77,127,0
3,77,0,60
3,77,127,0
3,77,0,60
3,77,127,0
3,77,0,60
3,77,127,0
3,77,0,60
3,78,127,0
3,78,0,60
3,78,127,0
3,78,0,60
3,78,127,0
3,78,0,60
3,78,127,0
3,78,0,36
3,79,127,0
3,79,0,2880
3,79,127,480
3,79,0,96
3,78,127,24
3,78,0,96
3,78,127,24
3,78,0,192
3,72,97,48
3,72,0,96
3,70,97,24
3,70,0,340
3,72,127,11125
3,72,0,384
3,72,127,96
3,72,0,192
3,70,97,44
3,70,0,192
3,72,127,52
3,72,0,384
3,72,127,96
3,72,0,192
3,70,100,44
3,70,0,192
3,72,127,52
3,72,0,384
3,72,127,96
3,72,0,192
3,70,95,44
3,70,0,192
3,74,127,52
3,74,0,576
3,74,127,140
3,74,0,576
3,70,94,148
3,70,0,192
3,70,94,44
3,70,0,192
3,70,94,52
3,70,0,384
3,67,127,96
3,67,0,192
3,65,90,44
3,65,0,192
3,67,127,52
3,67,0,192
3,67,127,44
3,67,0,192
3,70,127,52
3,70,0,460
3,70,105,980
3,70,0,192
3,72,127,44
3,72,0,192
3,72,127,52
3,72,0,192
3,70,104,44
3,70,0,192
3,72,127,52
3,72,0,192
3,72,127,288
3,72,0,192
3,70,101,44
3,70,0,192
3,72,127,52
3,72,0,768
3,72,127,192
3,72,0,768
3,72,127,192
3,72,0,768
3,72,127,192
3,72,0,192
3,70,93,44
3,70,0,192
3,74,127,52
3,74,0,1536
3,74,127,864
3,74,0,384
3,70,127,96
3,70,0,192
3,71,127,44
3,71,0,192
3,67,127,52
3,67,0,384
3,64,127,96
3,64,0,192
3,62,127,44
3,62,0,192
3,67,127,52
3,67,0,384
3,67,127,96
3,67,0,384
3,67,127,96
3,67,0,460
3,70,127,2274
3,70,0,192
3,70,127,44
3,70,0,27
3,70,127,52
3,70,0,192
3,67,90,44
3,67,0,192
3,70,127,52
3,70,0,192
3,70,127,44
3,70,0,192
3,70,127,52
3,70,0,192
3,70,127,44
3,70,0,192
3,70,127,52
3,70,0,192
3,70,127,44
3,70,0,192
3,70,127,52
3,70,0,192
3,67,92,44
3,67,0,192
3,70,127,52
3,70,0,192
3,70,127,44
3,70,0,192
3,70,127,52
3,70,0,192
3,70,127,44
3,70,0,192
3,70,127,52
3,70,0,192
3,70,127,44
3,70,0,192
3,70,127,52
3,70,0,192
3,70,127,44
3,70,0,192
3,70,127,52
3,70,0,192
3,70,127,44
3,70,0,192
3,70,127,52
3,70,0,192
3,70,127,44
3,70,0,192
3,70,127,52
3,70,0,192
3,70,127,44
3,70,0,192
3,70,127,52
3,70,0,192
3,70,127,44
3,70,0,192
3,70,127,52
3,70,0,192
3,70,127,44
3,70,0,192
3,70,127,52
3,70,0,192
3,70,127,44
3,70,0,192
3,70,127,52
3,70,0,192
3,70,127,44
3,70,0,192
3,70,127,52
3,70,0,192
3,70,127,44
3,70,0,192
3,70,127,52
3,70,0,192
3,70,127,44
3,70,0,132
3,70,127,52
3,70,0,192
3,70,127,44
3,70,0,192
3,70,127,52
3,70,0,192
3,70,127,44
3,70,0,192
3,70,127,52
3,70,0,192
3,70,127,44
3,70,0,192
3,70,127,52
3,70,0,192
3,70,127,44
3,70,0,192
3,70,127,52
3,70,0,192
3,70,127,44
3,70,0,192
3,70,127,52
3,70,0,192
3,70,127,44
3,70,0,192
3,70,127,52
3,70,0,192
3,70,127,44
3,70,0,192
3,70,127,52
3,70,0,192
3,70,127,44
3,70,0,192
3,70,127,52
3,70,0,192
3,70,127,44
3,70,0,192
3,70,127,52
3,70,0,192
3,70,127,44
3,70,0,192
3,70,127,52
3,70,0,192
3,70,127,0
3,70,0,33
3,70,127,52
3,70,0,19
3,70,127,44
3,70,0,132
3,70,127,52
3,70,0,41
3,70,127,36
3,70,0,192
3,71,127,40
3,71,0,20
3,71,127,61
3,71,0,10
3,71,127,20
3,71,0,60
3,71,127,0
3,71,0,60
3,72,127,0
3,72,0,60
3,72,127,0
3,72,0,60
3,72,127,0
3,72,0,60
3,72,127,0
3,72,0,60
3,73,127,0
3,73,0,60
3,73,127,0
3,73,0,60
3,73,127,0
3,73,0,39
3,73,127,0
3,73,0,60
3,74,127,0
3,74,0,60
3,74,127,0
3,74,0,60
3,74,127,0
3,74,0,60
3,74,127,0
3,74,0,40
3,75,127,0
3,75,0,60
3,75,127,0
3,75,0,60
3,75,127,0
3,75,0,60
3,75,127,0
3,75,0,60
3,76,127,0
3,76,0,60
3,76,127,0
3,76,0,60
3,76,127,0
3,76,0,60
3,76,127,0
3,76,0,60
3,77,127,0
3,77,0,60
3,77,127,0
3,77,0,60
3,77,127,0
3,77,0,60
3,77,127,0
3,77,0,60
3,78,127,0
3,78,0,60
3,78,127,0
3,78,0,60
3,78,127,0
3,78,0,60
3,78,127,0
3,78,0,36
3,79,127,0
3,79,0,2880
3,79,127,480
3,79,0,96
3,78,127,24
3,78,0,96
3,78,127,24
3,78,0,192
3,72,98,48
3,72,0,96
3,70,83,24
3,70,0,340
3,72,127,11019
3,72,0,384
3,72,127,96
3,72,0,192
3,70,83,44
3,70,0,192
3,72,127,52
3,72,0,384
3,72,127,96
3,72,0,192
3,70,83,44
3,70,0,192
3,72,127,52
3,72,0,384
3,72,127,96
3,72,0,192
3,70,93,44
3,70,0,192
3,74,127,52
3,74,0,576
3,74,127,140
3,74,0,576
3,70,97,148
3,70,0,192
3,70,97,44
3,70,0,192
3,70,127,52
3,70,0,384
3,67,127,96
3,67,0,192
3,65,127,44
3,65,0,192
3,67,127,52
3,67,0,192
3,67,127,44
3,67,0,192
3,70,127,52
3,70,0,460
3,70,101,980
3,70,0,192
3,72,113,44
3,72,0,192
3,72,113,52
3,72,0,192
3,70,102,44
3,70,0,192
3,72,113,52
3,72,0,192
3,72,113,288
3,72,0,192
3,70,96,44
3,70,0,192
3,72,127,52
3,72,0,768
3,72,127,192
3,72,0,192
3,70,84,44
3,70,0,192
3,74,127,52
3,74,0,1536
3,74,127,1824
3,74,0,384
3,70,127,96
3,70,0,192
