track,note,velocity,time
1,74,50,0
1,74,0,480
1,74,45,0
1,74,0,216
1,74,45,24
1,74,0,216
1,70,50,24
1,70,0,480
1,70,45,0
1,70,0,480
1,69,50,0
1,69,0,480
1,69,47,0
1,69,0,240
1,69,47,0
1,69,0,180
1,69,40,0
1,69,0,60
1,75,50,0
1,75,0,960
1,74,50,0
1,74,0,480
1,74,45,0
1,74,0,216
1,74,45,24
1,74,0,216
1,74,50,24
1,74,0,240
1,67,50,0
1,67,0,120
1,67,45,120
1,67,0,480
1,72,50,0
1,72,0,240
1,71,44,0
1,71,0,120
1,72,44,0
1,72,0,120
1,71,44,0
1,71,0,120
1,72,47,0
1,72,0,120
1,74,49,0
1,74,0,120
1,72,44,0
1,72,0,120
1,65,50,0
1,60,32,246
1,62,31,234
1,60,0,6
1,62,0,234
1,63,29,0
1,63,0,240
1,65,0,0
1,86,50,0
1,74,42,0
1,74,0,480
1,86,0,0
1,86,45,0
1,74,38,0
1,74,0,216
1,86,0,0
1,86,45,24
1,74,38,0
1,74,0,216
1,86,0,0
1,82,50,24
1,70,42,0
1,70,0,480
1,82,0,0
1,82,45,0
1,70,38,0
1,70,0,480
1,82,0,0
1,69,42,0
1,81,50,0
1,81,0,480
1,69,0,0
1,81,47,0
1,69,39,0
1,69,0,240
1,81,0,0
1,81,47,0
1,69,39,0
1,69,0,180
1,81,0,0
1,81,40,0
1,81,0,60
1,75,42,0
1,87,50,0
1,87,0,960
1,75,0,0
1,74,42,0
1,86,50,0
1,86,0,480
1,74,0,0
1,86,48,0
1,74,40,0
1,74,0,216
1,86,0,0
1,86,52,24
1,74,44,0
1,74,0,216
1,86,0,0
1,91,57,24
1,79,48,0
1,79,0,480
1,91,0,0
1,79,38,0
1,91,45,0
1,79,0,240
1,82,43,0
1,82,0,240
1,91,0,0
1,84,39,0
1,82,47,0
1,82,0,240
1,81,38,0
1,81,0,120
1,79,38,0
1,79,0,120
1,81,43,0
1,81,0,240
1,84,0,0
1,75,37,0
1,81,37,0
1,89,44,0
1,89,0,240
1,81,0,0
1,75,0,0
1,82,44,0
1,74,37,0
1,74,0,960
1,82,0,0
1,74,50,0
1,74,0,480
1,74,45,0
1,74,0,216
1,74,45,24
1,74,0,216
1,70,50,24
1,70,0,480
1,70,45,0
1,70,0,480
1,69,50,0
1,69,0,480
1,69,47,0
1,69,0,240
1,69,47,0
1,69,0,180
1,69,40,0
1,69,0,60
1,75,50,0
1,75,0,960
1,74,50,0
1,74,0,480
1,74,45,0
1,74,0,216
1,74,45,24
1,74,0,216
1,74,50,24
1,74,0,240
1,67,50,0
1,67,0,120
1,67,45,120
1,67,0,480
1,72,50,0
1,72,0,240
1,71,44,0
1,71,0,120
1,72,44,0
1,72,0,120
1,71,44,0
1,71,0,120
1,72,47,0
1,72,0,120
1,74,49,0
1,74,0,120
1,72,44,0
1,72,0,120
1,65,50,0
1,60,32,246
1,62,31,234
1,60,0,6
1,62,0,234
1,63,29,0
1,63,0,240
1,65,0,0
1,74,42,0
1,86,50,0
1,86,0,480
1,74,0,0
1,86,45,0
1,74,38,0
1,74,0,216
1,86,0,0
1,86,45,24
1,74,38,0
1,74,0,216
1,86,0,0
1,82,50,24
1,70,42,0
1,70,0,480
1,82,0,0
1,70,38,0
1,82,45,0
1,82,0,480
1,70,0,0
1,69,42,0
1,81,50,0
1,81,0,480
1,69,0,0
1,81,47,0
1,69,39,0
1,69,0,240
1,81,0,0
1,69,39,0
1,81,47,0
1,81,0,180
1,69,0,0
1,81,40,0
1,81,0,60
1,75,42,0
1,87,50,0
1,87,0,960
1,75,0,0
1,74,42,0
1,86,50,0
1,86,0,480
1,74,0,0
1,74,40,0
1,86,48,0
1,86,0,216
1,74,0,0
1,86,52,24
1,74,44,0
1,74,0,216
1,86,0,0
1,79,48,24
1,91,57,0
1,91,0,480
1,79,0,0
1,79,38,0
1,91,45,0
1,79,0,240
1,82,44,0
1,82,0,240
1,91,0,0
1,84,39,0
1,82,47,0
1,82,0,240
1,81,38,0
1,81,0,120
1,79,38,0
1,79,0,120
1,81,43,0
1,81,0,240
1,84,0,0
1,89,44,0
1,75,37,0
1,81,37,0
1,81,0,240
1,75,0,0
1,89,0,0
1,82,44,0
1,74,37,0
1,74,0,960
1,82,0,0
1,69,50,0
1,74,60,0
1,66,50,0
1,66,0,480
1,74,0,0
1,69,0,0
1,74,54,0
1,69,45,0
1,66,45,0
1,66,0,216
1,69,0,0
1,74,0,0
1,69,45,24
1,66,45,0
1,74,54,0
1,74,0,216
1,66,0,0
1,69,0,0
1,62,50,24
1,67,50,0
1,70,60,0
1,70,0,480
1,67,0,0
1,62,0,0
1,62,45,0
1,67,45,0
1,70,54,0
1,70,0,480
1,67,0,0
1,62,0,0
1,67,50,0
1,62,50,0
1,70,60,0
1,70,0,360
1,72,60,0
1,72,0,60
1,70,60,0
1,70,0,60
1,62,0,0
1,67,0,0
1,62,46,0
1,69,56,0
1,69,0,240
1,62,0,0
1,67,56,0
1,62,46,0
1,62,0,240
1,67,0,0
1,64,50,0
1,67,50,0
1,72,60,0
1,72,0,720
1,70,60,0
1,70,0,240
1,67,0,0
1,64,0,0
1,65,50,0
1,69,60,0
1,60,50,0
1,60,0,480
1,69,0,0
1,65,0,0
1,65,43,0
1,60,43,0
1,69,51,0
1,69,0,216
1,60,0,0
1,65,0,0
1,60,42,24
1,65,42,0
1,69,50,0
1,69,0,216
1,65,0,0
1,60,0,0
1,67,55,24
1,62,46,0
1,65,46,0
1,65,0,480
1,62,0,0
1,67,0,0
1,65,39,0
1,62,39,0
1,67,47,0
1,67,0,480
1,62,0,0
1,65,0,0
1,67,50,0
1,60,42,0
1,64,42,0
1,67,0,240
1,69,44,0
1,69,0,120
1,70,44,0
1,70,0,120
1,64,0,0
1,65,37,0
1,69,44,0
1,69,0,240
1,65,0,0
1,67,49,0
1,64,41,0
1,64,0,240
1,67,0,0
1,60,0,0
1,65,50,0
1,60,32,240
1,60,0,240
1,62,31,0
1,62,0,240
1,63,29,0
1,63,0,240
1,65,0,0
1,74,42,0
1,86,50,0
1,86,0,480
1,74,0,0
1,74,38,0
1,86,45,0
1,86,0,216
1,74,0,0
1,74,38,24
1,86,45,0
1,86,0,216
1,74,0,0
1,82,50,24
1,70,42,0
1,70,0,480
1,82,0,0
1,82,45,0
1,70,38,0
1,70,0,480
1,82,0,0
1,82,50,0
1,82,0,360
1,84,41,0
1,84,0,60
1,82,40,0
1,82,0,60
1,81,47,0
1,81,0,120
1,82,47,0
1,82,0,60
1,84,40,0
1,84,0,30
1,86,40,0
1,86,0,30
1,84,47,0
1,84,0,120
1,82,47,0
1,82,0,120
1,79,42,0
1,91,50,0
1,91,0,960
1,79,0,0
1,72,50,0
1,64,42,0
1,70,42,0
1,70,0,480
1,64,0,0
1,72,0,0
1,70,40,0
1,64,40,0
1,72,48,0
1,72,0,216
1,64,0,0
1,70,0,0
1,70,44,24
1,72,52,0
1,64,44,0
1,64,0,216
1,72,0,0
1,70,0,0
1,70,48,24
1,77,57,0
1,74,48,0
1,65,48,0
1,65,0,480
1,70,0,0
1,77,0,0
1,74,0,0
1,65,40,0
1,70,40,0
1,74,40,0
1,77,45,0
1,77,0,480
1,65,0,0
1,70,0,0
1,74,0,0
1,72,39,0
1,70,47,0
1,70,0,240
1,69,38,0
1,69,0,120
1,67,38,0
1,67,0,120
1,69,43,0
1,69,0,240
1,72,0,0
1,63,37,0
1,69,37,0
1,77,44,0
1,77,0,240
1,69,0,0
1,63,0,0
1,70,44,0
1,62,37,0
1,62,0,960
1,70,0,0
1,69,50,0
1,74,60,0
1,66,50,0
1,66,0,480
1,74,0,0
1,69,0,0
1,74,54,0
1,66,45,0
1,69,45,0
1,69,0,216
1,66,0,0
1,74,0,0
1,74,54,24
1,66,45,0
1,69,45,0
1,69,0,216
1,66,0,0
1,74,0,0
1,70,60,24
1,67,50,0
1,62,50,0
1,62,0,480
1,67,0,0
1,70,0,0
1,67,45,0
1,70,54,0
1,62,45,0
1,62,0,480
1,70,0,0
1,67,0,0
1,70,60,0
1,67,50,0
1,62,50,0
1,70,0,360
1,72,60,0
1,72,0,60
1,70,60,0
1,70,0,60
1,62,0,0
1,67,0,0
1,69,56,0
1,62,46,0
1,62,0,240
1,69,0,0
1,67,56,0
1,62,46,0
1,62,0,240
1,67,0,0
1,64,50,0
1,72,60,0
1,67,50,0
1,72,0,720
1,70,60,0
1,70,0,240
1,67,0,0
1,64,0,0
1,65,50,0
1,60,50,0
1,69,60,0
1,69,0,480
1,60,0,0
1,65,0,0
1,60,43,0
1,65,43,0
1,69,51,0
1,69,0,216
1,65,0,0
1,60,0,0
1,69,50,24
1,60,42,0
1,65,42,0
1,65,0,216
1,60,0,0
1,69,0,0
1,67,55,24
1,62,46,0
1,65,46,0
1,65,0,480
1,62,0,0
1,67,0,0
1,65,39,0
1,67,47,0
1,62,39,0
1,62,0,480
1,67,0,0
1,65,0,0
1,60,42,0
1,64,42,0
1,67,50,0
1,67,0,240
1,69,44,0
1,69,0,120
1,70,44,0
1,70,0,120
1,64,0,0
1,69,44,0
1,65,37,0
1,65,0,240
1,69,0,0
1,67,49,0
1,64,41,0
1,64,0,240
1,67,0,0
1,60,0,0
1,65,50,0
1,60,32,240
1,60,0,240
1,62,31,0
1,62,0,240
1,63,29,0
1,63,0,240
1,65,0,0
1,74,42,0
1,86,50,0
1,86,0,480
1,74,0,0
1,86,45,0
1,74,38,0
1,74,0,216
1,86,0,0
1,74,38,24
1,86,45,0
1,86,0,216
1,74,0,0
1,70,42,24
1,82,50,0
1,82,0,480
1,70,0,0
1,82,45,0
1,70,38,0
1,70,0,480
1,82,0,0
1,82,50,0
1,82,0,360
1,84,41,0
1,84,0,60
1,82,40,0
1,82,0,60
1,81,47,0
1,81,0,120
1,82,47,0
1,82,0,60
1,84,40,0
1,84,0,30
1,86,40,0
1,86,0,30
1,84,47,0
1,84,0,120
1,82,47,0
1,82,0,120
1,79,42,0
1,91,50,0
1,91,0,960
1,79,0,0
1,64,42,0
1,70,42,0
1,72,50,0
1,72,0,480
1,70,0,0
1,64,0,0
1,70,40,0
1,72,48,0
1,64,40,0
1,64,0,216
1,72,0,0
1,70,0,0
1,64,44,24
1,70,44,0
1,72,52,0
1,72,0,216
1,70,0,0
1,64,0,0
1,70,48,24
1,65,48,0
1,74,48,0
1,77,57,0
1,77,0,480
1,70,0,0
1,65,0,0
1,74,0,0
1,70,40,0
1,65,40,0
1,77,45,0
1,74,40,0
1,74,0,480
1,70,0,0
1,65,0,0
1,77,0,0
1,70,47,0
1,72,39,0
1,70,0,240
1,69,38,0
1,69,0,120
1,67,38,0
1,67,0,120
1,69,43,0
1,69,0,240
1,72,0,0
1,69,37,0
1,77,44,0
1,63,37,0
1,63,0,240
1,77,0,0
1,69,0,0
1,70,44,0
1,62,37,0
1,62,0,960
1,70,0,0
1,72,31,0
1,70,37,0
1,70,0,240
1,69,30,0
1,69,0,120
1,67,30,0
1,67,0,120
1,69,34,0
1,69,0,240
1,72,0,0
1,63,29,0
1,77,35,0
1,69,29,0
1,69,0,240
1,77,0,0
1,63,0,0
1,62,29,0
1,70,35,0
1,70,0,720
1,62,0,0
1,58,29,0
1,58,0,240
1,60,26,0
1,58,31,0
1,58,0,240
1,57,25,0
1,57,0,120
1,55,25,0
1,55,0,120
1,57,28,0
1,57,0,240
1,60,0,0
1,51,24,0
1,65,29,0
1,57,24,0
1,57,0,240
1,65,0,0
1,51,0,0
1,50,24,0
1,58,29,0
1,58,0,720
1,50,0,0
1,74,50,240
1,62,26,120
1,62,0,120
1,65,26,0
1,65,0,120
1,74,0,0
1,74,45,0
1,74,0,120
1,74,50,0
1,62,26,120
1,62,0,120
1,65,26,0
1,65,0,120
1,74,0,0
1,74,47,0
1,74,0,120
1,72,50,0
1,62,26,120
1,62,0,120
1,65,26,0
1,65,0,120
1,72,0,0
1,70,45,0
1,70,0,120
1,70,50,0
1,62,26,120
1,62,0,120
1,65,26,0
1,65,0,120
1,70,0,0
1,72,46,0
1,72,0,120
1,70,50,0
1,63,28,120
1,63,0,120
1,65,28,0
1,65,0,120
1,70,0,0
1,69,48,0
1,69,0,120
1,72,52,0
1,65,28,120
1,65,0,120
1,69,29,0
1,69,0,120
1,72,0,0
1,74,50,0
1,74,0,120
1,75,55,0
1,69,32,120
1,69,0,120
1,72,32,0
1,72,0,120
1,75,0,0
1,78,52,0
1,78,0,120
1,79,57,0
1,69,34,120
1,69,0,120
1,72,34,0
1,72,0,120
1,79,0,0
1,75,50,0
1,75,0,120
1,74,50,0
1,66,26,120
1,66,0,120
1,69,26,0
1,69,0,120
1,74,0,0
1,75,45,0
1,75,0,120
1,74,50,0
1,66,26,120
1,66,0,120
1,69,26,0
1,69,0,120
1,74,0,0
1,72,47,0
1,72,0,120
1,72,50,0
1,65,26,120
1,65,0,120
1,68,26,0
1,68,0,120
1,72,0,0
1,72,45,0
1,72,0,120
1,71,50,0
1,65,26,120
1,65,0,120
1,68,26,0
1,68,0,120
1,71,0,0
1,71,46,0
1,71,0,120
1,71,50,0
1,63,28,120
1,63,0,120
1,67,28,0
1,67,0,120
1,71,0,0
1,72,48,0
1,72,0,120
1,75,52,0
1,63,28,120
1,63,0,120
1,66,29,0
1,66,0,120
1,75,0,0
1,72,45,0
1,72,0,120
1,70,51,0
1,62,29,120
1,62,0,120
1,65,26,0
1,65,0,120
1,70,0,0
1,70,35,0
1,70,0,120
1,69,40,0
1,60,24,120
1,60,0,120
1,65,24,0
1,65,0,120
1,69,0,0
1,69,42,0
1,69,0,120
1,74,50,0
1,62,26,120
1,62,0,120
1,65,26,0
1,65,0,120
1,74,0,0
1,74,45,0
1,74,0,120
1,74,50,0
1,62,26,120
1,62,0,120
1,65,26,0
1,65,0,120
1,74,0,0
1,74,47,0
1,74,0,120
1,72,50,0
1,62,26,120
1,62,0,120
1,65,26,0
1,65,0,120
1,72,0,0
1,70,45,0
1,70,0,120
1,70,50,0
1,62,26,120
1,62,0,120
1,65,26,0
1,65,0,120
1,70,0,0
1,72,46,0
1,72,0,120
1,70,50,0
1,63,28,120
1,63,0,120
1,65,28,0
1,65,0,120
1,70,0,0
1,69,48,0
1,69,0,120
1,72,52,0
1,65,28,120
1,65,0,120
1,69,29,0
1,69,0,120
1,72,0,0
1,74,50,0
1,74,0,120
1,75,55,0
1,69,32,120
1,69,0,120
1,72,32,0
1,72,0,120
1,75,0,0
1,78,52,0
1,78,0,120
1,79,57,0
1,69,34,120
1,69,0,120
1,72,34,0
1,72,0,120
1,79,0,0
1,75,50,0
1,75,0,120
1,74,50,0
1,62,26,120
1,62,0,120
1,65,26,0
1,65,0,120
1,74,0,0
1,69,45,0
1,69,0,120
1,70,50,0
1,62,26,120
1,62,0,120
1,65,26,0
1,65,0,120
1,70,0,0
1,72,53,0
1,72,0,120
1,73,58,0
1,67,38,115
1,67,0,120
1,70,38,5
1,79,45,115
1,70,0,5
1,73,0,0
1,79,0,115
1,81,55,5
1,70,35,120
1,70,0,120
1,73,35,0
1,82,46,115
1,73,0,5
1,81,0,0
1,82,0,115
1,72,50,5
1,65,28,120
1,65,0,120
1,70,28,0
1,70,0,120
1,72,0,0
1,74,43,0
1,74,0,120
1,75,49,0
1,65,28,120
1,65,0,120
1,69,29,0
1,69,0,120
1,75,0,0
1,77,43,0
1,77,0,120
1,70,50,0
1,62,29,120
1,62,0,120
1,65,26,0
1,65,0,120
1,70,0,0
1,69,32,0
1,70,38,115
1,69,0,5
1,62,24,120
1,62,0,120
1,65,24,0
1,70,0,115
1,65,0,5
1,72,39,0
1,72,0,120
1,74,50,0
1,62,26,120
1,62,0,120
1,65,26,0
1,65,0,120
1,74,0,0
1,74,45,0
1,74,0,120
1,74,50,0
1,62,26,120
1,62,0,120
1,65,26,0
1,65,0,120
1,74,0,0
1,74,47,0
1,74,0,120
1,72,50,0
1,62,26,120
