track,note,velocity,time
1,90,99,1
1,94,76,79
1,90,0,1
1,94,0,79
1,85,69,0
1,85,0,80
1,90,93,0
1,90,0,80
1,87,79,0
1,87,0,80
1,90,73,0
1,90,0,80
1,85,92,0
1,85,0,80
1,90,78,0
1,90,0,80
1,82,71,0
1,82,0,80
1,85,84,0
1,85,0,80
1,78,72,0
1,78,0,80
1,82,68,0
1,82,0,80
1,78,74,0
1,78,0,80
1,82,64,0
1,82,0,80
1,73,58,0
1,73,0,80
1,78,71,0
1,78,0,80
1,75,63,0
1,75,0,80
1,78,57,0
1,78,0,80
1,73,69,0
1,73,0,80
1,78,56,0
1,78,0,80
1,70,56,0
1,70,0,80
1,73,67,0
1,73,0,80
1,66,55,0
1,66,0,80
1,70,53,0
1,70,0,80
1,61,74,0
1,61,0,80
1,73,69,0
1,73,0,80
1,68,63,0
1,68,0,80
1,73,75,0
1,73,0,80
1,68,67,0
1,68,0,80
1,80,61,0
1,80,0,80
1,68,75,0
1,68,0,80
1,80,68,0
1,80,0,80
1,75,61,0
1,75,0,80
1,80,81,0
1,80,0,80
1,75,74,0
1,75,0,80
1,87,70,0
1,87,0,80
1,75,82,0
1,75,0,80
1,87,73,0
1,87,0,80
1,80,68,0
1,80,0,80
1,87,86,0
1,87,0,80
1,80,69,0
1,80,0,80
1,92,67,0
1,92,0,80
1,80,89,0
1,80,0,80
1,92,77,0
1,92,0,80
1,85,75,0
1,85,0,80
1,92,92,0
1,92,0,80
1,85,83,0
1,85,0,80
1,97,78,0
1,97,0,80
1,90,96,0
1,90,0,80
1,94,78,0
1,94,0,80
1,85,75,0
1,85,0,80
1,90,95,0
1,90,0,80
1,87,77,0
1,87,0,80
1,90,74,0
1,90,0,80
1,85,95,0
1,85,0,80
1,90,76,0
1,90,0,80
1,82,74,0
1,82,0,80
1,85,85,0
1,85,0,80
1,78,75,0
1,78,0,80
1,82,70,0
1,82,0,80
1,78,74,0
1,78,0,80
1,82,69,0
1,82,0,80
1,73,65,0
1,73,0,80
1,78,74,0
1,78,0,80
1,75,69,0
1,75,0,80
1,78,66,0
1,78,0,80
1,73,74,0
1,73,0,80
1,78,67,0
1,78,0,80
1,70,70,0
1,70,0,80
1,73,74,0
1,73,0,80
1,66,65,0
1,66,0,80
1,70,68,0
1,70,0,80
1,63,77,0
1,63,0,80
1,75,69,0
1,75,0,80
1,68,66,0
1,68,0,80
1,75,77,0
1,75,0,80
1,68,67,0
1,68,0,80
1,80,71,0
1,80,0,80
1,75,77,0
1,75,0,80
1,80,74,0
1,80,0,80
1,75,70,0
1,75,0,80
1,75,82,0
1,75,0,80
1,80,73,0
1,80,0,80
1,92,75,0
1,92,0,80
1,82,88,0
1,82,0,80
1,94,78,0
1,94,0,80
1,82,70,0
1,82,0,80
1,94,81,0
1,94,0,80
1,82,75,0
1,82,0,80
1,94,70,0
1,94,0,80
1,82,68,0
1,82,0,80
1,94,62,0
1,94,0,80
1,82,53,0
1,82,0,80
1,94,59,0
1,94,0,80
1,82,53,0
1,82,0,80
1,94,45,0
1,94,0,80
1,90,96,1
1,94,73,79
1,90,0,1
1,94,0,79
1,85,67,0
1,85,0,80
1,90,90,0
1,90,0,80
1,87,67,0
1,87,0,80
1,90,59,0
1,90,0,80
1,85,93,0
1,85,0,80
1,90,68,0
1,90,0,80
1,82,66,0
1,82,0,80
1,85,84,0
1,85,0,80
1,78,66,0
1,78,0,80
1,82,63,0
1,82,0,80
1,78,74,0
1,78,0,80
1,82,66,0
1,82,0,80
1,73,63,0
1,73,0,80
1,78,68,0
1,78,0,80
1,75,65,0
1,75,0,80
1,78,62,0
1,78,0,80
1,73,74,0
1,73,0,80
1,78,65,0
1,78,0,80
1,70,61,0
1,70,0,80
1,73,74,0
1,73,0,80
1,66,67,0
1,66,0,80
1,70,65,0
1,70,0,80
1,61,74,0
1,61,0,80
1,73,71,0
1,73,0,80
1,68,67,0
1,68,0,80
1,73,75,0
1,73,0,80
1,68,70,0
1,68,0,80
1,80,65,0
1,80,0,80
1,68,72,0
1,68,0,80
1,80,70,0
1,80,0,80
1,75,67,0
1,75,0,80
1,80,78,0
1,80,0,80
1,75,74,0
1,75,0,80
1,87,72,0
1,87,0,80
1,75,82,0
1,75,0,80
1,87,78,0
1,87,0,80
1,80,78,0
1,80,0,80
1,87,80,0
1,87,0,80
1,80,77,0
1,80,0,80
1,92,73,0
1,92,0,80
1,80,88,0
1,80,0,80
1,92,81,0
1,92,0,80
1,85,73,0
1,85,0,80
1,92,92,0
1,92,0,80
1,85,83,0
1,85,0,80
1,97,83,0
1,97,0,80
1,90,98,0
1,90,0,80
1,94,74,0
1,94,0,80
1,85,70,0
1,85,0,80
1,90,93,0
1,90,0,80
1,87,72,0
1,87,0,80
1,90,73,0
1,90,0,80
1,85,96,0
1,85,0,80
1,90,75,0
1,90,0,80
1,82,68,0
1,82,0,80
1,85,84,0
1,85,0,80
1,78,69,0
1,78,0,80
1,82,64,0
1,82,0,80
1,78,74,0
1,78,0,80
1,82,68,0
1,82,0,80
1,73,62,0
1,73,0,80
1,78,71,0
1,78,0,80
1,75,65,0
1,75,0,80
1,78,67,0
1,78,0,80
1,73,74,0
1,73,0,80
1,78,65,0
1,78,0,80
1,70,59,0
1,70,0,80
1,73,74,0
1,73,0,80
1,66,65,0
1,66,0,80
1,70,59,0
1,70,0,80
1,63,77,0
1,63,0,80
1,75,74,0
1,75,0,80
1,68,67,0
1,68,0,80
1,75,77,0
1,75,0,80
1,68,67,0
1,68,0,80
1,80,70,0
1,80,0,80
1,75,75,0
1,75,0,80
1,80,71,0
1,80,0,80
1,75,67,0
1,75,0,80
1,87,82,0
1,87,0,80
1,80,79,0
1,80,0,80
1,92,74,0
1,92,0,80
1,75,85,0
1,75,0,80
1,87,74,0
1,87,0,80
1,80,71,0
1,80,0,80
1,87,88,0
1,87,0,80
1,73,76,0
1,73,0,80
1,85,72,0
1,85,0,80
1,80,81,0
1,80,0,80
1,85,73,0
1,85,0,80
1,80,67,0
1,80,0,80
1,92,70,0
1,92,0,80
1,85,66,0
1,85,0,80
1,97,64,0
1,97,0,80
1,92,72,0
1,92,0,80
1,94,67,0
1,94,0,80
1,92,61,0
1,92,0,80
1,87,72,0
1,87,0,80
1,99,67,0
1,99,0,80
1,87,58,0
1,87,0,80
1,85,78,0
1,85,0,80
1,87,74,0
1,87,0,80
1,85,68,0
1,85,0,80
1,80,75,0
1,80,0,80
1,92,71,0
1,92,0,80
1,80,66,0
1,80,0,80
1,80,72,0
1,80,0,80
1,82,67,0
1,82,0,80
1,80,65,0
1,80,0,80
1,75,72,0
1,75,0,80
1,87,67,0
1,87,0,80
1,75,67,0
1,75,0,80
1,73,75,0
1,73,0,80
1,75,68,0
1,75,0,80
1,73,67,0
1,73,0,80
1,68,72,0
1,68,0,320
1,75,70,0
1,75,0,80
1,80,67,0
1,80,0,80
1,82,74,0
1,82,0,80
1,80,70,0
1,80,0,80
1,75,67,0
1,75,0,80
1,73,71,0
1,73,0,80
1,80,73,0
1,80,0,80
1,85,72,0
1,85,0,80
1,87,74,0
1,87,0,80
1,85,69,0
1,85,0,80
1,82,67,0
1,82,0,80
1,80,72,0
1,80,0,80
1,87,69,0
1,87,0,80
1,92,67,0
1,92,0,80
1,94,72,0
1,94,0,80
1,92,64,0
1,92,0,80
1,87,59,0
1,87,0,80
1,85,77,0
1,85,0,80
1,92,73,0
1,92,0,80
1,97,68,0
1,97,0,80
1,99,72,0
1,99,0,80
1,97,68,0
1,97,0,80
1,94,68,0
1,94,0,80
1,92,72,0
1,92,0,80
1,94,69,0
1,94,0,80
1,92,63,0
1,92,0,80
1,87,72,0
1,87,0,80
1,99,67,0
1,99,0,80
1,87,72,0
1,87,0,80
1,85,81,0
1,85,0,80
1,87,73,0
1,87,0,80
1,85,67,0
1,85,0,80
1,80,77,0
1,80,0,80
1,92,75,0
1,92,0,80
1,80,67,0
1,80,0,80
1,80,79,0
1,80,0,80
1,82,70,0
1,82,0,80
1,80,65,0
1,80,0,80
1,75,73,0
1,75,0,80
1,87,68,0
1,87,0,80
1,75,65,0
1,75,0,80
1,73,75,0
1,73,0,80
1,75,69,0
1,75,0,80
1,73,63,0
1,73,0,80
1,68,75,0
1,68,0,320
1,80,67,0
1,80,0,80
1,78,64,0
1,78,0,80
1,80,75,0
1,80,0,80
1,78,68,0
1,78,0,80
1,80,65,0
1,80,0,80
1,90,82,0
1,90,0,80
1,80,71,0
1,80,0,80
1,78,65,0
1,78,0,80
1,80,74,0
1,80,0,80
1,78,67,0
1,78,0,80
1,80,64,0
1,80,0,80
1,68,64,0
1,68,0,80
1,80,68,0
1,80,0,80
1,78,63,0
1,78,0,80
1,80,71,0
1,80,0,80
1,78,65,0
1,78,0,80
1,80,62,0
1,80,0,80
1,90,81,0
1,90,0,80
1,80,67,0
1,80,0,80
1,78,63,0
1,78,0,80
1,80,69,0
1,80,0,80
1,78,67,0
1,78,0,80
1,80,64,0
1,80,0,80
1,70,70,0
1,70,0,80
1,82,74,0
1,82,0,80
1,78,66,0
1,78,0,80
1,82,74,0
1,82,0,80
1,78,70,0
1,78,0,80
1,82,66,0
1,82,0,80
1,90,83,0
1,90,0,80
1,82,71,0
1,82,0,80
1,78,68,0
1,78,0,80
1,82,77,0
1,82,0,80
1,78,72,0
1,78,0,80
1,82,67,0
1,82,0,80
1,70,73,0
1,70,0,80
1,82,75,0
1,82,0,80
1,78,72,0
1,78,0,80
1,82,78,0
1,82,0,80
1,78,72,0
1,78,0,80
1,82,67,0
1,82,0,80
1,90,85,0
1,90,0,80
1,82,74,0
1,82,0,80
1,78,71,0
1,78,0,80
1,82,80,0
1,82,0,80
1,78,77,0
1,78,0,80
1,82,74,0
1,82,0,80
1,78,80,0
1,78,0,80
1,82,77,0
1,82,0,80
1,78,78,0
1,78,0,80
1,94,87,0
1,94,0,80
1,82,76,0
1,82,0,80
1,78,70,0
1,78,0,80
1,92,89,0
1,92,0,80
1,82,70,0
1,82,0,80
1,78,73,0
1,78,0,80
1,90,89,0
1,90,0,80
1,82,78,0
1,82,0,80
1,78,73,0
1,78,0,80
1,85,80,0
1,85,0,80
1,82,73,0
1,82,0,80
1,78,76,0
1,78,0,80
1,94,90,0
1,94,0,80
1,82,76,0
1,82,0,80
1,78,79,0
1,78,0,80
1,92,94,0
1,92,0,80
1,82,77,0
1,82,0,80
1,78,76,0
1,78,0,80
1,90,95,0
1,90,0,80
1,82,76,0
1,82,0,80
1,78,79,0
1,78,0,80
1,73,87,0
1,73,0,80
1,85,78,0
1,85,0,80
1,82,75,0
1,82,0,80
1,85,88,0
1,85,0,80
1,85,75,0
1,85,0,80
1,97,80,0
1,97,0,80
1,94,94,0
1,94,0,80
1,97,77,0
1,97,0,80
1,85,76,0
1,85,0,80
1,85,89,0
1,85,0,80
1,82,77,0
1,82,0,80
1,85,82,0
1,85,0,80
1,73,89,0
1,73,0,80
1,85,85,0
1,85,0,80
1,82,81,0
1,82,0,80
1,85,90,0
1,85,0,80
1,85,85,0
1,85,0,80
1,97,85,0
1,97,0,80
1,94,101,0
1,94,0,80
1,97,86,0
1,97,0,80
1,85,84,0
1,85,0,80
1,85,93,0
1,85,0,80
1,82,85,0
1,82,0,80
1,85,80,0
1,85,0,80
1,73,94,0
1,73,0,80
1,85,85,0
1,85,0,80
1,82,81,0
1,82,0,80
1,85,94,0
1,85,0,80
1,85,84,0
1,85,0,80
1,97,80,0
1,97,0,80
1,92,95,0
1,92,0,80
1,97,85,0
1,97,0,80
1,85,83,0
1,85,0,80
1,85,95,0
1,85,0,80
1,80,90,0
1,80,0,80
1,85,86,0
1,85,0,80
1,73,97,0
1,73,0,80
1,85,90,0
1,85,0,80
1,78,85,0
1,78,0,80
1,85,93,0
1,85,0,80
1,73,87,0
1,73,0,80
1,73,84,0
1,73,0,80
1,66,95,0
1,66,0,80
1,73,90,0
1,73,0,80
1,61,85,0
1,61,0,80
1,61,100,0
1,61,0,80
1,54,89,0
1,54,0,80
1,61,85,0
1,61,0,80
1,51,74,0
1,51,0,80
1,54,71,0
1,54,0,80
1,61,72,0
1,61,0,80
1,63,77,0
1,63,0,80
1,54,70,0
1,54,0,80
1,61,72,0
1,61,0,80
1,63,81,0
1,63,0,80
1,66,78,0
1,66,0,80
1,61,75,0
1,61,0,80
1,63,83,0
1,63,0,80
1,66,77,0
1,66,0,80
1,73,73,0
1,73,0,80
1,63,87,0
1,63,0,80
1,66,80,0
1,66,0,80
1,73,77,0
1,73,0,80
1,75,89,0
1,75,0,80
1,66,78,0
1,66,0,80
1,73,75,0
1,73,0,80
1,75,89,0
1,75,0,80
1,78,78,0
1,78,0,80
1,73,76,0
1,73,0,80
1,75,89,0
1,75,0,80
1,85,78,0
1,85,0,80
1,78,75,0
1,78,0,80
1,75,89,0
1,75,0,80
1,78,81,0
1,78,0,80
1,87,86,0
1,87,0,80
1,85,85,0
1,85,0,80
1,78,78,0
1,78,0,80
1,75,84,0
1,75,0,80
1,85,81,0
1,85,0,80
1,78,76,0
1,78,0,80
1,75,71,0
1,75,0,80
1,73,78,0
1,73,0,80
1,78,71,0
1,78,0,80
1,75,75,0
1,75,0,80
1,73,74,0
1,73,0,80
1,66,69,0
1,66,0,80
1,75,72,0
1,75,0,80
1,73,71,0
1,73,0,80
1,66,66,0
1,66,0,80
1,63,69,0
1,63,0,80
1,73,67,0
1,73,0,80
1,66,61,0
1,66,0,80
1,63,65,0
1,63,0,80
1,61,64,0
1,61,0,80
1,66,59,0
1,66,0,80
1,63,62,0
1,63,0,80
1,56,52,0
1,56,0,80
1,63,54,0
1,63,0,80
1,66,54,0
1,66,0,80
1,68,56,0
1,68,0,80
1,63,56,0
1,63,0,80
1,66,54,0
1,66,0,80
1,68,58,0
1,68,0,80
1,75,58,0
1,75,0,80
1,66,56,0
1,66,0,80
1,68,60,0
1,68,0,80
1,75,60,0
1,75,0,80
1,78,58,0
1,78,0,80
1,68,62,0
1,68,0,80
1,75,58,0
1,75,0,80
1,78,62,0
1,78,0,80
1,80,62,0
1,80,0,80
1,75,54,0
1,75,0,80
1,78,58,0
1,78,0,80
1,80,62,0
1,80,0,80
1,87,65,0
1,87,0,80
1,78,60,0
1,78,0,80
1,80,62,0
1,80,0,80
1,90,58,0
1,90,0,80
1,87,59,0
1,87,0,80
1,80,59,0
1,80,0,80
1,78,59,0
1,78,0,80
1,87,58,0
1,87,0,80
1,80,58,0
1,80,0,80
1,78,57,0
1,78,0,80
1,75,56,0
1,75,0,80
1,80,56,0
1,80,0,80
1,78,56,0
1,78,0,80
1,75,54,0
1,75,0,80
1,68,54,0
1,68,0,80
1,78,52,0
1,78,0,80
1,75,52,0
1,75,0,80
1,68,52,0
1,68,0,80
1,66,51,0
1,66,0,80
1,75,51,0
1,75,0,80
1,68,50,0
1,68,0,80
1,66,49,0
1,66,0,80
1,63,49,0
1,63,0,80
1,68,48,0
1,68,0,80
1,66,48,0
1,66,0,80
1,63,48,0
1,63,0,80
1,56,46,0
1,56,0,80
1,66,46,0
1,66,0,80
1,63,44,0
1,63,0,80
1,61,65,0
1,61,0,80
1,73,59,0
1,73,0,80
1,68,55,0
1,68,0,80
1,73,65,0
1,73,0,80
1,65,59,0
1,65,0,80
1,80,58,0
1,80,0,80
1,73,70,0
1,73,0,80
1,80,66,0
1,80,0,80
1,68,66,0
1,68,0,80
1,73,70,0
1,73,0,80
1,68,66,0
1,68,0,80
1,73,62,0
1,73,0,80
1,61,65,0
1,61,0,80
1,73,63,0
1,73,0,80
1,68,58,0
1,68,0,80
1,73,65,0
1,73,0,80
1,68,63,0
1,68,0,80
1,80,57,0
1,80,0,80
1,73,65,0
1,73,0,80
1,80,59,0
1,80,0,80
1,68,55,0
1,68,0,80
1,73,65,0
1,73,0,80
1,68,63,0
1,68,0,80
1,73,58,0
1,73,0,80
1,61,65,0
1,61,0,80
1,73,58,0
1,73,0,80
