track,note,velocity,time
1,58,38,0
1,67,49,0
1,63,41,0
1,58,0,240
1,57,37,0
1,57,0,240
1,58,38,0
1,58,0,240
1,63,0,0
1,67,0,0
1,55,45,0
1,55,0,240
1,67,50,0
1,63,50,0
1,55,47,0
1,55,0,240
1,58,42,0
1,58,0,240
1,63,0,0
1,67,0,0
1,57,38,0
1,62,41,0
1,68,49,0
1,57,0,240
1,58,38,0
1,58,0,240
1,60,42,0
1,60,0,240
1,68,0,0
1,62,0,0
1,61,39,0
1,61,0,240
1,62,38,0
1,68,48,0
1,62,0,240
1,58,40,0
1,58,0,240
1,68,0,0
1,67,46,0
1,58,36,0
1,63,38,0
1,58,0,240
1,57,38,0
1,57,0,240
1,58,42,0
1,58,0,240
1,63,0,0
1,67,0,0
1,55,45,0
1,55,0,240
1,67,50,0
1,63,50,0
1,55,47,0
1,55,0,240
1,58,41,0
1,58,0,240
1,63,0,0
1,67,0,0
1,62,38,0
1,57,36,0
1,68,46,0
1,57,0,240
1,58,37,0
1,58,0,240
1,60,42,0
1,60,0,240
1,68,0,0
1,62,0,0
1,61,42,0
1,61,0,240
1,62,38,0
1,68,48,0
1,62,0,240
1,58,40,0
1,58,0,240
1,68,0,0
1,63,47,0
1,75,47,0
1,75,0,240
1,63,0,0
1,65,41,0
1,77,41,0
1,77,0,240
1,65,0,0
1,79,49,0
1,79,0,240
1,70,52,0
1,82,52,0
1,82,0,360
1,70,0,0
1,70,43,0
1,82,43,0
1,82,0,360
1,70,0,0
1,70,52,240
1,82,52,0
1,82,0,240
1,70,0,0
1,72,50,0
1,84,50,0
1,84,0,240
1,72,0,0
1,74,55,0
1,86,55,0
1,86,0,240
1,74,0,0
1,89,54,0
1,77,54,0
1,77,0,240
1,89,0,0
1,86,53,0
1,74,53,0
1,74,0,240
1,86,0,0
1,84,55,0
1,72,55,0
1,72,0,240
1,84,0,0
1,74,53,0
1,86,53,0
1,86,0,240
1,74,0,0
1,72,46,0
1,84,46,0
1,84,0,240
1,72,0,0
1,67,51,0
1,79,51,0
1,79,0,360
1,67,0,0
1,67,43,0
1,79,43,0
1,79,0,360
1,67,0,0
1,65,52,240
1,77,52,0
1,77,0,240
1,65,0,0
1,67,50,0
1,79,50,0
1,79,0,240
1,67,0,0
1,68,55,0
1,80,55,0
1,80,0,240
1,68,0,0
1,82,53,0
1,70,53,0
1,70,0,240
1,82,0,0
1,80,53,0
1,68,53,0
1,68,0,240
1,80,0,0
1,79,55,0
1,67,55,0
1,67,0,238
1,79,0,2
1,65,50,0
1,77,50,0
1,77,0,240
1,65,0,0
1,63,46,0
1,75,46,0
1,75,0,240
1,63,0,0
1,58,46,0
1,70,46,0
1,70,0,360
1,58,0,0
1,58,43,0
1,70,43,0
1,70,0,360
1,58,0,0
1,62,46,240
1,65,52,0
1,65,0,240
1,67,49,0
1,67,0,240
1,68,55,0
1,68,0,240
1,70,53,0
1,70,0,240
1,68,53,0
1,68,0,120
1,67,49,0
1,67,0,60
1,68,50,0
1,68,0,60
1,62,0,0
1,63,48,0
1,67,55,0
1,67,0,240
1,65,50,0
1,65,0,240
1,63,0,0
1,63,46,0
1,63,0,240
1,58,51,0
1,58,0,238
1,60,50,2
1,60,0,240
1,63,50,0
1,63,0,240
1,56,48,0
1,62,55,0
1,56,0,238
1,62,0,2
1,65,50,0
1,65,0,240
1,62,46,0
1,62,0,120
1,60,41,0
1,60,0,60
1,62,41,0
1,62,0,60
1,60,50,0
1,60,0,360
1,58,45,0
1,56,45,0
1,56,0,360
1,58,0,0
1,58,38,0
1,67,49,0
1,63,41,0
1,58,0,240
1,57,41,0
1,57,0,240
1,58,41,0
1,58,0,240
1,63,0,0
1,67,0,0
1,55,47,0
1,55,0,240
1,67,50,0
1,63,50,0
1,55,47,0
1,55,0,240
1,58,42,0
1,58,0,240
1,63,0,0
1,67,0,0
1,57,38,0
1,62,41,0
1,68,49,0
1,57,0,240
1,58,38,0
1,58,0,240
1,60,42,0
1,60,0,240
1,68,0,0
1,62,0,0
1,61,39,0
1,61,0,240
1,62,38,0
1,68,48,0
1,62,0,240
1,58,40,0
1,58,0,240
1,68,0,0
1,58,36,0
1,67,46,0
1,63,38,0
1,58,0,240
1,57,44,0
1,57,0,240
1,58,44,0
1,58,0,240
1,63,0,0
1,67,0,0
1,55,47,0
1,55,0,240
1,67,50,0
1,63,50,0
1,55,47,0
1,55,0,240
1,58,41,0
1,58,0,240
1,63,0,0
1,67,0,0
1,57,36,0
1,62,38,0
1,68,46,0
1,57,0,240
1,58,39,0
1,58,0,240
1,60,42,0
1,60,0,240
1,68,0,0
1,62,0,0
1,61,39,0
1,61,0,240
1,62,38,0
1,68,48,0
1,62,0,240
1,58,40,0
1,58,0,240
1,68,0,0
1,63,47,0
1,75,47,0
1,75,0,240
1,63,0,0
1,65,41,0
1,77,41,0
1,77,0,240
1,65,0,0
1,79,42,0
1,79,0,240
1,70,54,0
1,82,54,0
1,82,0,360
1,70,0,0
1,70,43,0
1,82,43,0
1,82,0,360
1,70,0,0
1,70,52,240
1,82,52,0
1,82,0,240
1,70,0,0
1,72,48,0
1,84,48,0
1,84,0,240
1,72,0,0
1,74,55,0
1,86,55,0
1,86,0,240
1,74,0,0
1,89,50,0
1,77,50,0
1,77,0,240
1,89,0,0
1,86,53,0
1,74,53,0
1,74,0,240
1,86,0,0
1,84,55,0
1,72,55,0
1,72,0,240
1,84,0,0
1,74,53,0
1,86,53,0
1,86,0,240
1,74,0,0
1,72,46,0
1,84,46,0
1,84,0,240
1,72,0,0
1,67,51,0
1,79,51,0
1,79,0,360
1,67,0,0
1,67,43,0
1,79,43,0
1,79,0,360
1,67,0,0
1,65,52,240
1,77,52,0
1,77,0,240
1,65,0,0
1,67,53,0
1,79,53,0
1,79,0,240
1,67,0,0
1,68,53,0
1,80,53,0
1,80,0,240
1,68,0,0
1,82,53,0
1,70,53,0
1,70,0,240
1,82,0,0
1,80,53,0
1,68,53,0
1,68,0,240
1,80,0,0
1,79,55,0
1,67,55,0
1,67,0,238
1,79,0,2
1,65,48,0
1,77,48,0
1,77,0,240
1,65,0,0
1,63,46,0
1,75,46,0
1,75,0,240
1,63,0,0
1,58,49,0
1,70,49,0
1,70,0,360
1,58,0,0
1,58,43,0
1,70,43,0
1,70,0,360
1,58,0,0
1,62,46,240
1,65,52,0
1,65,0,240
1,67,53,0
1,67,0,240
1,68,55,0
1,68,0,240
1,70,53,0
1,70,0,240
1,68,53,0
1,68,0,120
1,67,49,0
1,67,0,60
1,68,50,0
1,68,0,60
1,62,0,0
1,63,48,0
1,67,55,0
1,67,0,240
1,65,50,0
1,65,0,240
1,63,0,0
1,63,46,0
1,63,0,240
1,58,51,0
1,58,0,238
1,60,50,2
1,60,0,240
1,63,50,0
1,63,0,240
1,56,48,0
1,62,55,0
1,56,0,238
1,62,0,2
1,65,50,0
1,65,0,240
1,62,46,0
1,62,0,120
1,60,41,0
1,60,0,60
1,62,41,0
1,62,0,60
1,60,50,0
1,60,0,360
1,58,45,0
1,56,45,0
1,56,0,360
1,58,0,0
1,58,38,0
1,67,49,0
1,63,41,0
1,58,0,240
1,57,44,0
1,57,0,240
1,58,44,0
1,58,0,240
1,63,0,0
1,67,0,0
1,55,47,0
1,55,0,240
1,67,50,0
1,63,50,0
1,55,47,0
1,55,0,240
1,58,42,0
1,58,0,240
1,63,0,0
1,67,0,0
1,57,38,0
1,62,41,0
1,68,49,0
1,57,0,240
1,58,42,0
1,58,0,240
1,60,42,0
1,60,0,240
1,68,0,0
1,62,0,0
1,61,42,0
1,61,0,240
1,62,38,0
1,68,48,0
1,62,0,240
1,58,40,0
1,58,0,240
1,68,0,0
1,58,36,0
1,67,46,0
1,63,38,0
1,58,0,240
1,57,44,0
1,57,0,240
1,58,44,0
1,58,0,240
1,63,0,0
1,67,0,0
1,55,47,0
1,55,0,240
1,67,50,0
1,63,50,0
1,55,47,0
1,55,0,240
1,58,41,0
1,58,0,240
1,63,0,0
1,67,0,0
1,57,36,0
1,62,38,0
1,68,46,0
1,57,0,240
1,58,42,0
1,58,0,240
1,60,42,0
1,60,0,240
1,68,0,0
1,62,0,0
1,61,38,0
1,61,0,240
1,62,38,0
1,68,48,0
1,62,0,240
1,58,40,0
1,58,0,240
1,68,0,0
1,63,47,0
1,75,47,0
1,75,0,240
1,63,0,0
1,65,46,0
1,77,46,0
1,77,0,240
1,65,0,0
1,79,42,0
1,79,0,240
1,70,53,0
1,82,53,0
1,82,0,720
1,70,0,0
1,70,52,240
1,82,52,0
1,82,0,240
1,70,0,0
1,72,50,0
1,84,50,0
1,84,0,240
1,72,0,0
1,73,55,0
1,85,55,0
1,85,0,240
1,73,0,0
1,89,47,0
1,77,38,0
1,77,0,240
1,89,0,0
1,85,53,0
1,73,53,0
1,73,0,240
1,85,0,0
1,84,55,0
1,72,55,0
1,72,0,240
1,84,0,0
1,70,52,0
1,82,52,0
1,82,0,240
1,70,0,0
1,63,46,0
1,75,46,0
1,75,0,240
1,63,0,0
1,63,51,0
1,75,51,0
1,75,0,240
1,63,0,0
1,65,49,0
1,77,51,0
1,77,0,480
1,65,0,0
1,67,52,240
1,79,52,0
1,79,0,240
1,67,0,0
1,68,49,0
1,80,49,0
1,80,0,240
1,68,0,0
1,70,55,0
1,82,55,0
1,82,0,240
1,70,0,0
1,87,55,0
1,75,55,0
1,75,0,240
1,87,0,0
1,84,49,0
1,72,49,0
1,72,0,240
1,84,0,0
1,82,55,0
1,70,55,0
1,70,0,240
1,82,0,0
1,68,50,0
1,80,50,0
1,80,0,240
1,68,0,0
1,63,46,0
1,75,46,0
1,75,0,240
1,63,0,0
1,63,51,0
1,75,51,0
1,75,0,240
1,63,0,0
1,68,55,0
1,80,55,0
1,80,0,720
1,68,0,0
1,72,52,0
1,75,52,0
1,84,61,0
1,80,61,0
1,80,0,720
1,72,0,0
1,75,0,0
1,84,0,0
1,87,67,0
1,84,67,0
1,80,55,0
1,75,55,0
1,75,0,480
1,87,0,0
1,84,0,0
1,80,0,0
1,63,57,240
1,75,57,0
1,75,0,720
1,63,0,0
1,68,63,0
1,80,64,0
1,80,0,720
1,68,0,0
1,71,56,0
1,75,56,0
1,83,67,0
1,80,67,0
1,80,0,720
1,71,0,0
1,75,0,0
1,83,0,0
1,87,71,0
1,83,71,0
1,80,59,0
1,75,59,0
1,75,0,480
1,87,0,0
1,83,0,0
1,80,0,0
1,63,46,0
1,75,60,0
1,75,0,240
1,63,0,0
1,65,56,0
1,77,56,0
1,77,0,240
1,65,0,0
1,79,55,0
1,79,0,240
1,70,54,0
1,82,66,0
1,82,0,360
1,70,0,0
1,70,43,0
1,82,53,0
1,82,0,360
1,70,0,0
1,70,52,240
1,82,65,0
1,82,0,240
1,70,0,0
1,72,60,0
1,84,60,0
1,84,0,240
1,72,0,0
1,74,66,0
1,86,66,0
1,86,0,240
1,74,0,0
1,89,61,0
1,77,54,0
1,77,0,240
1,89,0,0
1,86,66,0
1,74,53,0
1,74,0,240
1,86,0,0
1,84,68,0
1,72,68,0
1,72,0,240
1,84,0,0
1,74,53,0
1,86,66,0
1,86,0,240
1,74,0,0
1,72,45,0
1,84,57,0
1,84,0,240
1,72,0,0
1,67,51,0
1,79,63,0
1,79,0,360
1,67,0,0
1,67,43,0
1,79,53,0
1,79,0,360
1,67,0,0
1,70,52,240
1,82,62,0
1,82,0,240
1,70,0,0
1,72,51,0
1,84,51,0
1,84,0,240
1,72,0,0
1,70,55,0
1,82,65,0
1,82,0,240
1,70,0,0
1,80,60,0
1,68,51,0
1,68,0,240
1,80,0,0
1,79,58,0
1,67,49,0
1,67,0,240
1,79,0,0
1,77,62,0
1,65,52,0
1,65,0,240
1,77,0,0
1,67,49,0
1,79,58,0
1,79,0,240
1,67,0,0
1,68,47,0
1,80,56,0
1,80,0,240
1,68,0,0
1,75,62,0
1,87,66,0
1,87,0,360
1,75,0,0
1,72,51,0
1,84,55,0
1,84,0,360
1,72,0,0
1,72,52,240
1,84,62,0
1,84,0,240
1,72,0,0
1,75,49,0
1,87,58,0
1,87,0,240
1,75,0,0
1,72,54,0
1,84,60,0
1,84,0,240
1,72,0,0
1,80,57,0
1,68,52,0
1,68,0,240
1,80,0,0
1,79,58,0
1,67,49,0
1,67,0,240
1,79,0,0
1,77,58,0
1,65,49,0
1,65,0,240
1,77,0,0
1,67,49,0
1,79,58,0
1,79,0,240
1,67,0,0
1,68,47,0
1,80,56,0
1,80,0,240
1,68,0,0
1,74,57,0
1,86,68,0
1,86,0,360
1,74,0,0
1,72,48,0
1,84,57,0
1,84,0,600
1,72,0,0
1,64,44,0
1,76,52,0
1,76,0,240
1,64,0,0
1,65,40,0
1,77,48,0
1,77,0,240
1,65,0,0
1,68,47,0
1,80,57,0
1,80,0,360
1,68,0,0
1,67,43,0
1,79,51,0
1,79,0,360
1,67,0,0
1,58,38,0
1,67,49,0
1,63,41,0
1,58,0,240
1,57,44,0
1,57,0,240
1,58,44,0
1,58,0,240
1,63,0,0
1,67,0,0
1,55,47,0
1,55,0,240
1,67,50,0
1,63,50,0
1,55,47,0
1,55,0,240
1,58,42,0
1,58,0,240
1,63,0,0
1,67,0,0
1,57,38,0
1,62,41,0
1,68,49,0
1,57,0,240
1,58,37,0
1,58,0,240
1,60,42,0
1,60,0,240
1,68,0,0
1,62,0,0
1,61,38,0
1,61,0,240
1,62,38,0
1,68,48,0
1,62,0,240
1,58,40,0
1,58,0,240
1,68,0,0
1,58,36,0
1,67,46,0
1,63,38,0
1,58,0,240
1,57,40,0
1,57,0,240
1,58,44,0
1,58,0,240
1,63,0,0
1,67,0,0
1,55,47,0
1,55,0,240
1,67,50,0
1,63,50,0
1,55,47,0
1,55,0,240
1,58,41,0
1,58,0,240
1,63,0,0
1,67,0,0
1,57,36,0
1,62,38,0
1,68,46,0
1,57,0,240
1,58,38,0
1,58,0,240
1,60,42,0
1,60,0,240
1,68,0,0
1,62,0,0
1,61,38,0
1,61,0,240
1,62,38,0
1,68,48,0
1,62,0,240
1,58,40,0
1,58,0,240
1,68,0,0
1,63,31,0
1,75,31,0
1,75,0,240
1,63,0,0
1,65,32,0
1,77,32,0
1,77,0,240
1,65,0,0
1,79,32,0
1,79,0,240
1,70,36,0
1,82,36,0
1,82,0,360
1,70,0,0
1,70,28,0
1,82,28,0
1,82,0,360
1,70,0,0
1,70,35,240
1,82,35,0
1,82,0,240
1,70,0,0
1,72,29,0
1,84,29,0
1,84,0,240
1,72,0,0
1,74,36,0
1,86,36,0
1,86,0,240
1,74,0,0
1,89,37,0
1,77,35,0
1,77,0,240
1,89,0,0
1,86,36,0
1,74,36,0
1,74,0,240
1,86,0,0
1,84,36,0
1,72,36,0
1,72,0,240
1,84,0,0
1,74,36,0
1,86,36,0
1,86,0,240
1,74,0,0
1,72,31,0
1,84,31,0
1,84,0,240
1,72,0,0
1,67,34,0
1,79,34,0
1,79,0,360
1,67,0,0
1,67,28,0
1,79,28,0
1,79,0,360
1,67,0,0
1,65,35,240
1,77,35,0
1,77,0,240
1,65,0,0
1,67,36,0
1,79,36,0
1,79,0,240
1,67,0,0
1,68,36,0
1,80,36,0
1,80,0,240
1,68,0,0
1,82,36,0
1,70,36,0
1,70,0,240
1,82,0,0
1,80,32,0
1,68,32,0
1,68,0,240
1,80,0,0
1,79,36,0
1,67,36,0
1,67,0,238
1,79,0,2
1,65,33,0
1,77,33,0
1,77,0,240
1,65,0,0
1,63,31,0
1,75,31,0
1,75,0,240
1,63,0,0
1,58,34,0
1,70,34,0
1,70,0,360
1,58,0,0
1,58,28,0
1,70,28,0
1,70,0,360
1,58,0,0
1,62,31,240
1,65,35,0
1,65,0,240
1,67,36,0
1,67,0,240
1,68,36,0
1,68,0,240
1,70,36,0
1,70,0,240
1,68,36,0
1,68,0,120
1,67,32,0
1,67,0,60
1,68,33,0
1,68,0,60
1,62,0,0
1,63,32,0
1,67,36,0
