track,note,velocity,time
1,62,31,120
1,62,0,60
1,62,35,180
1,62,0,60
1,62,39,180
1,62,0,60
1,62,37,180
1,62,0,60
1,62,34,180
1,62,0,60
1,62,32,180
1,62,0,60
1,62,31,180
1,62,0,60
1,62,35,180
1,62,0,60
1,62,39,180
1,62,0,60
1,62,37,180
1,62,0,60
1,62,34,180
1,62,0,60
1,62,32,180
1,62,0,60
1,62,31,180
1,62,0,60
1,62,35,180
1,62,0,60
1,62,39,180
1,62,0,60
1,62,37,180
1,62,0,60
1,62,40,180
1,62,0,60
1,62,37,180
1,62,0,60
1,62,41,180
1,62,0,60
1,62,35,180
1,62,0,60
1,62,39,180
1,62,0,60
1,62,34,180
1,62,0,60
1,62,38,180
1,62,0,60
1,62,37,180
1,62,0,60
1,62,30,180
1,62,0,60
1,62,35,180
1,62,0,60
1,62,36,180
1,62,0,60
1,62,31,180
1,62,0,60
1,62,36,180
1,62,0,60
1,62,33,180
1,62,0,60
1,62,37,180
1,62,0,60
1,62,35,180
1,62,0,60
1,62,39,180
1,62,0,60
1,62,37,180
1,62,0,60
1,62,34,180
1,62,0,60
1,62,32,180
1,62,0,60
1,62,31,180
1,62,0,60
1,62,35,180
1,62,0,60
1,62,39,180
1,62,0,60
1,62,37,180
1,62,0,60
1,62,40,180
1,62,0,60
1,62,37,180
1,62,0,60
1,62,41,180
1,62,0,60
1,62,35,180
1,62,0,60
1,62,43,180
1,62,0,60
1,62,37,180
1,62,0,60
1,62,44,180
1,62,0,60
1,62,39,180
1,62,0,60
1,62,31,180
1,62,0,60
1,62,35,180
1,62,0,60
1,62,39,180
1,62,0,60
1,62,37,180
1,62,0,60
1,62,34,180
1,62,0,60
1,62,32,180
1,62,0,60
1,62,31,180
1,62,0,60
1,62,35,180
1,62,0,60
1,62,39,180
1,62,0,60
1,62,37,180
1,62,0,60
1,62,34,180
1,62,0,60
1,62,32,180
1,62,0,60
1,62,31,180
1,62,0,60
1,62,35,180
1,62,0,60
1,62,39,180
1,62,0,60
1,62,37,180
1,62,0,60
1,62,44,180
1,62,0,60
1,62,41,180
1,62,0,60
1,62,48,180
1,62,0,60
1,62,42,180
1,62,0,60
1,62,47,180
1,62,0,60
1,62,41,180
1,62,0,60
1,62,43,180
1,62,0,60
1,62,37,180
1,62,0,60
1,62,31,180
1,62,0,60
1,62,35,180
1,62,0,60
1,62,39,180
1,62,0,60
1,62,37,180
1,62,0,60
1,62,34,180
1,62,0,60
1,62,32,180
1,62,0,60
1,62,31,180
1,62,0,60
1,62,35,180
1,62,0,60
1,62,39,180
1,62,0,60
1,62,37,180
1,62,0,60
1,62,34,180
1,62,0,60
1,62,32,180
1,62,0,60
1,62,31,180
1,62,0,60
1,62,35,180
1,62,0,60
1,62,39,180
1,62,0,60
1,62,37,180
1,62,0,60
1,62,44,180
1,62,0,60
1,62,41,180
1,62,0,60
1,62,48,180
1,62,0,60
1,62,42,180
1,62,0,60
1,62,47,180
1,62,0,60
1,62,41,180
1,62,0,60
1,62,43,180
1,62,0,60
1,62,37,180
1,62,0,60
1,74,44,180
1,62,34,0
1,62,0,60
1,74,0,0
1,74,49,180
1,62,38,0
1,62,0,60
1,74,0,0
1,74,54,180
1,62,42,0
1,62,0,60
1,74,0,0
1,74,52,180
1,62,40,0
1,62,0,60
1,74,0,0
1,74,48,180
1,62,37,0
1,62,0,60
1,74,0,0
1,74,45,180
1,62,35,0
1,62,0,60
1,74,0,0
1,62,34,180
1,74,44,0
1,74,0,60
1,62,0,0
1,74,49,180
1,62,38,0
1,62,0,60
1,74,0,0
1,74,54,180
1,62,42,0
1,62,0,60
1,74,0,0
1,74,52,180
1,62,40,0
1,62,0,60
1,74,0,0
1,62,37,180
1,74,48,0
1,74,0,60
1,62,0,0
1,74,45,180
1,62,35,0
1,62,0,60
1,74,0,0
1,74,44,180
1,62,34,0
1,62,0,60
1,74,0,0
1,74,49,180
1,62,38,0
1,62,0,60
1,74,0,0
1,74,54,180
1,62,42,0
1,62,0,60
1,74,0,0
1,74,52,180
1,62,40,0
1,62,0,60
1,74,0,0
1,62,44,180
1,74,57,0
1,74,0,60
1,62,0,0
1,74,52,180
1,62,40,0
1,62,0,60
1,74,0,0
1,74,58,180
1,62,45,0
1,62,0,60
1,74,0,0
1,74,49,180
1,62,38,0
1,62,0,60
1,74,0,0
1,62,42,180
1,74,54,0
1,74,0,60
1,62,0,0
1,62,37,180
1,74,48,0
1,74,0,60
1,62,0,0
1,74,53,180
1,62,41,0
1,62,0,60
1,74,0,0
1,74,52,180
1,62,40,0
1,62,0,60
1,74,0,0
1,74,44,180
1,62,34,0
1,62,0,60
1,74,0,0
1,62,38,180
1,74,49,0
1,74,0,60
1,62,0,0
1,74,54,180
1,62,42,0
1,62,0,60
1,74,0,0
1,74,52,180
1,62,40,0
1,62,0,60
1,74,0,0
1,74,48,180
1,62,37,0
1,62,0,60
1,74,0,0
1,74,45,180
1,62,35,0
1,62,0,60
1,74,0,0
1,74,44,180
1,62,34,0
1,62,0,60
1,74,0,0
1,74,49,180
1,62,38,0
1,62,0,60
1,74,0,0
1,74,54,180
1,62,42,0
1,62,0,60
1,74,0,0
1,74,52,180
1,62,40,0
1,62,0,60
1,74,0,0
1,74,48,180
1,62,37,0
1,62,0,60
1,74,0,0
1,74,45,180
1,62,35,0
1,62,0,60
1,74,0,0
1,62,34,180
1,74,44,0
1,74,0,60
1,62,0,0
1,74,49,180
1,62,38,0
1,62,0,60
1,74,0,0
1,74,54,180
1,62,42,0
1,62,0,60
1,74,0,0
1,74,52,180
1,62,40,0
1,62,0,60
1,74,0,0
1,62,44,180
1,74,57,0
1,74,0,60
1,62,0,0
1,62,40,180
1,74,52,0
1,74,0,60
1,62,0,0
1,74,58,180
1,62,45,0
1,62,0,60
1,74,0,0
1,74,49,180
1,62,38,0
1,62,0,60
1,74,0,0
1,74,62,180
1,62,48,0
1,62,0,60
1,74,0,0
1,62,42,180
1,74,54,0
1,74,0,60
1,62,0,0
1,74,66,180
1,62,51,0
1,62,0,60
1,74,0,0
1,74,58,180
1,62,45,0
1,62,0,60
1,74,0,0
1,78,70,180
1,81,83,0
1,86,83,0
1,74,70,0
1,74,0,60
1,78,0,0
1,81,0,0
1,86,0,0
1,74,54,180
1,62,42,0
1,62,0,60
1,74,0,0
1,62,46,180
1,74,59,0
1,74,0,60
1,62,0,0
1,74,57,180
1,62,44,0
1,62,0,60
1,74,0,0
1,74,52,180
1,62,40,0
1,62,0,60
1,74,0,0
1,74,49,180
1,62,38,0
1,62,0,60
1,74,0,0
1,78,72,180
1,74,72,0
1,81,85,0
1,86,85,0
1,86,0,60
1,78,0,0
1,74,0,0
1,81,0,0
1,74,54,180
1,62,42,0
1,62,0,60
1,74,0,0
1,74,59,180
1,62,46,0
1,62,0,60
1,74,0,0
1,74,57,180
1,62,44,0
1,62,0,60
1,74,0,0
1,74,52,180
1,62,40,0
1,62,0,60
1,74,0,0
1,74,49,180
1,62,38,0
1,62,0,60
1,74,0,0
1,86,83,180
1,74,70,0
1,78,70,0
1,81,83,0
1,81,0,60
1,86,0,0
1,74,0,0
1,78,0,0
1,74,54,180
1,62,42,0
1,62,0,60
1,74,0,0
1,62,46,180
1,74,59,0
1,74,0,60
1,62,0,0
1,74,57,180
1,62,44,0
1,62,0,60
1,74,0,0
1,74,67,180
1,62,52,0
1,62,0,60
1,74,0,0
1,74,63,180
1,62,49,0
1,62,0,60
1,74,0,0
1,62,54,180
1,74,70,0
1,74,0,60
1,62,0,0
1,74,65,180
1,62,50,0
1,62,0,60
1,74,0,0
1,74,69,180
1,62,54,0
1,62,0,60
1,74,0,0
1,74,63,180
1,62,49,0
1,62,0,60
1,74,0,0
1,74,66,180
1,62,51,0
1,62,0,60
1,74,0,0
1,74,57,180
1,62,44,0
1,62,0,60
1,74,0,0
1,81,83,180
1,74,70,0
1,78,70,0
1,86,83,0
1,86,0,60
1,81,0,0
1,74,0,0
1,78,0,0
1,74,54,180
1,62,42,0
1,62,0,60
1,74,0,0
1,74,59,180
1,62,46,0
1,62,0,60
1,74,0,0
1,62,44,180
1,74,57,0
1,74,0,60
1,62,0,0
1,62,40,180
1,74,52,0
1,74,0,60
1,62,0,0
1,74,49,180
1,62,38,0
1,62,0,60
1,74,0,0
1,78,72,180
1,74,72,0
1,86,85,0
1,81,85,0
1,81,0,60
1,78,0,0
1,74,0,0
1,86,0,0
1,62,42,180
1,74,54,0
1,74,0,60
1,62,0,0
1,74,59,180
1,62,46,0
1,62,0,60
1,74,0,0
1,74,57,180
1,62,44,0
1,62,0,60
1,74,0,0
1,74,52,180
1,62,40,0
1,62,0,60
1,74,0,0
1,74,49,180
1,62,38,0
1,62,0,60
1,74,0,0
1,78,70,180
1,74,70,0
1,81,83,0
1,86,83,0
1,86,0,60
1,78,0,0
1,74,0,0
1,81,0,0
1,74,54,180
1,62,42,0
1,62,0,60
1,74,0,0
1,74,59,180
1,62,46,0
1,62,0,60
1,74,0,0
1,74,57,180
1,62,44,0
1,62,0,60
1,74,0,0
1,62,50,180
1,74,64,0
1,74,0,60
1,62,0,0
1,74,63,180
1,62,49,0
1,62,0,60
1,74,0,0
1,74,70,180
1,62,54,0
1,62,0,60
1,74,0,0
1,74,65,180
1,62,50,0
1,62,0,60
1,74,0,0
1,74,72,180
1,62,56,0
1,62,0,60
1,74,0,0
1,74,67,180
1,62,52,0
1,62,0,60
1,74,0,0
1,74,77,180
1,62,60,0
1,62,0,60
1,74,0,0
1,74,76,180
1,62,59,0
1,62,0,60
1,74,0,0
1,82,76,180
1,86,76,0
1,91,91,0
1,79,76,0
1,79,0,60
1,82,0,0
1,86,0,0
1,91,0,0
1,62,52,180
1,74,68,0
1,74,0,60
1,62,0,0
1,74,74,180
1,62,57,0
1,62,0,60
1,74,0,0
1,74,70,180
1,62,54,0
1,62,0,60
1,74,0,0
1,74,65,180
1,62,50,0
1,62,0,60
1,74,0,0
1,62,47,180
1,74,60,0
1,74,0,60
1,62,0,0
1,82,79,180
1,79,79,0
1,86,79,0
1,91,93,0
1,91,0,60
1,82,0,0
1,79,0,0
1,86,0,0
1,74,68,180
1,62,52,0
1,62,0,60
1,74,0,0
1,74,74,180
1,62,57,0
1,62,0,60
1,74,0,0
1,74,70,180
1,62,54,0
1,62,0,60
1,74,0,0
1,62,50,180
1,74,65,0
1,74,0,60
1,62,0,0
1,74,60,180
1,62,47,0
1,62,0,60
1,74,0,0
1,91,91,180
1,79,76,0
1,82,76,0
1,86,76,0
1,86,0,60
1,91,0,0
1,79,0,0
1,82,0,0
1,74,65,180
1,62,50,0
1,62,0,60
1,74,0,0
1,74,71,180
1,62,55,0
1,62,0,60
1,74,0,0
1,74,67,180
1,62,52,0
1,62,0,60
1,74,0,0
1,74,72,180
1,62,55,0
1,62,0,60
1,74,0,0
1,74,75,180
1,62,58,0
1,62,0,60
1,74,0,0
1,74,79,180
1,62,61,0
1,62,0,60
1,74,0,0
1,62,54,180
1,74,70,0
1,74,0,60
1,62,0,0
1,74,75,180
1,62,58,0
1,62,0,60
1,74,0,0
1,74,67,180
1,62,52,0
1,62,0,60
1,74,0,0
1,74,71,180
1,62,54,0
1,62,0,60
1,74,0,0
1,62,52,180
1,74,67,0
1,74,0,60
1,62,0,0
1,82,79,180
1,79,79,0
1,91,93,0
1,87,93,0
1,87,0,60
1,82,0,0
1,79,0,0
1,91,0,0
1,75,68,180
1,63,52,0
1,63,0,60
1,75,0,0
1,75,74,180
1,63,57,0
1,63,0,60
1,75,0,0
1,75,70,180
1,63,54,0
1,63,0,60
1,75,0,0
1,63,50,180
1,75,65,0
1,75,0,60
1,63,0,0
1,75,60,180
1,63,47,0
1,63,0,60
1,75,0,0
1,82,79,180
1,79,79,0
1,91,93,0
1,87,93,0
1,87,0,60
1,82,0,0
1,79,0,0
1,91,0,0
1,63,52,180
1,75,68,0
1,75,0,60
1,63,0,0
1,63,57,180
1,75,74,0
1,75,0,60
1,63,0,0
1,75,70,180
1,63,54,0
1,63,0,60
1,75,0,0
1,75,65,180
1,63,50,0
1,63,0,60
1,75,0,0
1,75,60,180
1,63,47,0
1,63,0,60
1,75,0,0
1,82,79,180
1,79,79,0
1,87,93,0
1,91,93,0
1,91,0,60
1,82,0,0
1,79,0,0
1,87,0,0
1,75,65,180
1,63,50,0
1,63,0,60
1,75,0,0
1,75,71,180
1,63,55,0
1,63,0,60
1,75,0,0
1,75,67,180
1,63,52,0
1,63,0,60
1,75,0,0
1,75,62,180
1,63,48,0
1,63,0,60
1,75,0,0
1,63,45,180
1,75,58,0
1,75,0,60
1,63,0,0
1,75,70,180
1,63,54,0
1,63,0,60
1,75,0,0
1,75,71,180
1,63,55,0
1,63,0,60
1,75,0,0
1,75,71,180
1,63,55,0
1,63,0,60
1,75,0,0
1,63,52,180
1,75,67,0
1,75,0,60
1,63,0,0
1,75,72,180
1,63,56,0
1,63,0,60
1,75,0,0
1,75,67,180
1,63,52,0
1,63,0,60
1,75,0,0
1,90,86,180
1,93,86,0
1,98,102,0
1,86,86,0
1,86,0,60
1,90,0,0
1,93,0,0
1,98,0,0
1,74,71,180
1,62,55,0
1,62,0,60
1,74,0,0
1,74,75,180
1,62,58,0
1,62,0,60
1,74,0,0
1,74,73,180
1,62,57,0
1,62,0,60
1,74,0,0
1,74,68,180
1,62,52,0
1,62,0,60
1,74,0,0
1,74,63,180
1,62,49,0
1,62,0,60
1,74,0,0
1,94,86,180
1,87,86,0
1,91,86,0
1,99,102,0
1,99,0,60
1,94,0,0
1,87,0,0
1,91,0,0
1,75,71,180
1,63,55,0
1,63,0,60
1,75,0,0
1,75,78,180
1,63,60,0
1,63,0,60
1,75,0,0
1,63,57,180
1,75,73,0
1,75,0,60
1,63,0,0
1,75,68,180
1,63,52,0
1,63,0,60
1,75,0,0
1,75,63,180
1,63,49,0
1,63,0,60
1,75,0,0
1,98,103,180
1,86,87,0
1,90,87,0
1,93,87,0
1,93,0,60
1,98,0,0
1,86,0,0
1,90,0,0
1,74,71,180
1,62,55,0
1,62,0,60
1,74,0,0
1,62,57,180
1,74,74,0
1,74,0,60
1,62,0,0
1,74,73,180
1,62,57,0
1,62,0,60
1,74,0,0
1,74,68,180
1,62,52,0
1,62,0,60
1,74,0,0
1,74,63,180
1,62,49,0
1,62,0,60
1,74,0,0
1,91,86,180
1,87,86,0
1,99,102,0
1,94,86,0
1,94,0,60
1,91,0,0
1,87,0,0
1,99,0,0
1,75,71,180
1,63,55,0
1,63,0,60
1,75,0,0
1,75,78,180
1,63,60,0
1,63,0,60
1,75,0,0
1,75,73,180
1,63,57,0
1,63,0,60
1,75,0,0
1,63,52,180
1,75,68,0
1,75,0,60
1,63,0,0
1,75,63,180
1,63,49,0
1,63,0,60
1,75,0,0
1,98,102,180
1,86,86,0
1,90,86,0
1,93,86,0
1,93,0,60
1,98,0,0
1,86,0,0
1,90,0,0
1,74,71,180
1,62,55,0
1,62,0,60
1,74,0,0
1,74,78,180
1,62,60,0
1,62,0,60
1,74,0,0
1,74,73,180
1,62,57,0
1,62,0,60
1,74,0,0
1,74,68,180
1,62,52,0
1,62,0,60
1,74,0,0
1,74,63,180
1,62,49,0
1,62,0,60
1,74,0,0
1,74,68,180
1,62,53,0
1,62,0,60
1,74,0,0
1,74,65,180
1,62,50,0
1,62,0,60
1,74,0,0
1,62,51,180
1,74,66,0
1,74,0,60
1,62,0,0
1,74,63,180
1,62,49,0
1,62,0,60
1,74,0,0
1,74,65,180
1,62,50,0
1,62,0,60
1,74,0,0
1,74,58,180
1,62,45,0
1,62,0,60
1,74,0,0
1,62,53,180
1,74,68,0
1,74,0,60
1,62,0,0
1,62,49,180
1,74,63,0
1,74,0,60
1,62,0,0
1,74,63,180
1,62,49,0
1,62,0,60
1,74,0,0
1,74,62,180
1,62,48,0
1,62,0,60
1,74,0,0
1,74,62,180
1,62,48,0
1,62,0,60
1,74,0,0
