track,note,velocity,time
1,69,46,0
1,77,56,0
1,77,0,240
1,69,0,0
1,69,46,0
1,76,50,0
1,76,0,80
1,77,47,0
1,77,0,80
1,76,47,0
1,76,0,80
1,69,0,0
1,74,50,0
1,69,33,0
1,74,0,120
1,76,47,0
1,76,0,120
1,69,0,0
1,69,34,0
1,77,53,0
1,77,0,120
1,74,49,0
1,74,0,120
1,69,0,0
1,69,43,0
1,76,51,0
1,76,0,90
1,69,0,0
1,69,38,150
1,72,44,0
1,72,0,90
1,69,0,0
1,77,56,150
1,69,46,0
1,69,0,240
1,77,0,0
1,69,46,0
1,76,50,0
1,76,0,80
1,77,47,0
1,77,0,80
1,76,47,0
1,76,0,80
1,69,0,0
1,69,32,0
1,74,50,0
1,74,0,120
1,76,47,0
1,76,0,120
1,69,0,0
1,77,53,0
1,69,33,0
1,77,0,120
1,74,49,0
1,74,0,120
1,69,0,0
1,69,43,0
1,76,51,0
1,76,0,90
1,69,0,0
1,72,44,150
1,69,38,0
1,69,0,90
1,72,0,0
1,69,43,150
1,74,58,0
1,74,0,120
1,76,52,0
1,76,0,120
1,69,0,0
1,72,54,0
1,69,38,0
1,69,0,210
1,72,0,0
1,69,43,30
1,74,58,0
1,74,0,120
1,76,60,0
1,76,0,120
1,69,0,0
1,77,64,0
1,69,45,0
1,69,0,210
1,77,0,0
1,69,43,30
1,74,58,0
1,74,0,120
1,76,52,0
1,76,0,120
1,69,0,0
1,72,48,0
1,69,34,0
1,69,0,210
1,72,0,0
1,69,41,30
1,74,56,0
1,74,0,120
1,76,51,0
1,76,0,120
1,69,0,0
1,72,47,0
1,69,32,0
1,69,0,210
1,72,0,0
1,69,46,30
1,74,52,0
1,74,0,120
1,76,54,0
1,76,0,120
1,69,0,0
1,79,57,0
1,69,43,0
1,79,0,120
1,77,51,0
1,77,0,120
1,69,0,0
1,69,43,0
1,74,55,0
1,74,0,120
1,76,54,0
1,76,0,120
1,69,0,0
1,72,49,0
1,69,40,0
1,69,0,240
1,72,0,0
1,73,43,0
1,81,52,0
1,81,0,240
1,73,0,0
1,80,47,0
1,73,43,0
1,80,0,80
1,81,44,0
1,81,0,80
1,80,44,0
1,80,0,80
1,73,0,0
1,73,37,0
1,78,47,0
1,78,0,120
1,80,44,0
1,80,0,120
1,73,0,0
1,73,36,0
1,81,49,0
1,81,0,120
1,78,46,0
1,78,0,120
1,73,0,0
1,80,47,0
1,73,39,0
1,73,0,90
1,80,0,0
1,73,39,150
1,76,46,0
1,76,0,90
1,73,0,0
1,73,43,150
1,81,52,0
1,81,0,240
1,73,0,0
1,73,43,0
1,80,47,0
1,80,0,80
1,81,44,0
1,81,0,80
1,80,44,0
1,80,0,80
1,73,0,0
1,73,37,0
1,78,47,0
1,78,0,120
1,80,44,0
1,80,0,120
1,73,0,0
1,73,36,0
1,81,49,0
1,81,0,120
1,78,46,0
1,78,0,120
1,73,0,0
1,80,47,0
1,73,39,0
1,73,0,90
1,80,0,0
1,73,39,150
1,76,46,0
1,76,0,90
1,73,0,0
1,73,45,150
1,78,54,0
1,78,0,120
1,80,48,0
1,80,0,120
1,73,0,0
1,73,40,0
1,76,50,0
1,76,0,210
1,73,0,0
1,73,45,30
1,78,54,0
1,78,0,120
1,80,56,0
1,80,0,120
1,73,0,0
1,73,47,0
1,81,59,0
1,81,0,210
1,73,0,0
1,73,45,30
1,78,54,0
1,78,0,120
1,80,48,0
1,80,0,120
1,73,0,0
1,73,36,0
1,76,45,0
1,76,0,210
1,73,0,0
1,73,43,30
1,78,52,0
1,78,0,120
1,80,47,0
1,80,0,120
1,73,0,0
1,73,34,0
1,76,44,0
1,76,0,210
1,73,0,0
1,73,48,30
1,78,48,0
1,78,0,120
1,80,50,0
1,80,0,120
1,73,0,0
1,73,45,0
1,83,53,0
1,83,0,120
1,81,47,0
1,81,0,120
1,73,0,0
1,78,51,0
1,73,45,0
1,78,0,120
1,80,50,0
1,80,0,120
1,73,0,0
1,73,42,0
1,76,46,0
1,76,0,240
1,73,0,0
1,84,84,0
1,76,56,0
1,76,0,240
1,84,0,0
1,76,56,0
1,83,76,0
1,83,0,80
1,84,66,0
1,84,0,80
1,83,66,0
1,83,0,80
1,76,0,0
1,81,72,0
1,76,41,0
1,81,0,120
1,83,66,0
1,83,0,120
1,76,0,0
1,77,42,0
1,84,76,0
1,84,0,120
1,81,67,0
1,81,0,120
1,77,0,0
1,77,51,0
1,83,77,0
1,83,0,90
1,77,0,0
1,77,51,150
1,79,73,0
1,79,0,90
1,77,0,0
1,84,84,150
1,76,56,0
1,76,0,240
1,84,0,0
1,76,56,0
1,83,76,0
1,83,0,80
1,84,67,0
1,84,0,80
1,83,67,0
1,83,0,80
1,76,0,0
1,76,41,0
1,81,73,0
1,81,0,120
1,83,68,0
1,83,0,120
1,76,0,0
1,84,77,0
1,77,40,0
1,84,0,120
1,81,67,0
1,81,0,120
1,77,0,0
1,77,51,0
1,83,77,0
1,83,0,90
1,77,0,0
1,79,73,150
1,77,51,0
1,77,0,90
1,79,0,0
1,60,54,150
1,64,61,0
1,64,0,120
1,60,0,0
1,62,51,0
1,65,57,0
1,65,0,120
1,62,0,0
1,64,55,0
1,67,62,0
1,67,0,240
1,64,0,0
1,64,51,0
1,67,57,0
1,67,0,120
1,64,0,0
1,62,51,0
1,65,57,0
1,65,0,120
1,62,0,0
1,64,54,0
1,60,48,0
1,60,0,120
1,64,0,0
1,62,48,0
1,65,54,0
1,65,0,120
1,62,0,0
1,67,55,0
1,64,49,0
1,64,0,120
1,67,0,0
1,65,51,0
1,68,57,0
1,68,0,120
1,65,0,0
1,67,52,0
1,70,58,0
1,70,0,120
1,67,0,0
1,72,60,0
1,68,54,0
1,68,0,120
1,72,0,0
1,67,53,0
1,70,59,0
1,70,0,120
1,67,0,0
1,73,62,0
1,70,55,0
1,70,0,120
1,73,0,0
1,68,55,0
1,72,62,0
1,72,0,120
1,68,0,0
1,65,51,0
1,68,57,0
1,68,0,120
1,65,0,0
1,70,60,0
1,67,54,0
1,67,0,120
1,70,0,0
1,64,51,0
1,67,57,0
1,67,0,120
1,64,0,0
1,65,57,0
1,60,51,0
1,60,0,120
1,65,0,0
1,61,45,0
1,67,51,0
1,67,0,120
1,61,0,0
1,58,49,0
1,64,55,0
1,64,0,120
1,58,0,0
1,65,50,0
1,60,45,0
1,60,0,120
1,65,0,0
1,56,47,0
1,61,53,0
1,61,0,120
1,56,0,0
1,63,50,0
1,58,45,0
1,58,0,120
1,63,0,0
1,76,56,0
1,84,84,0
1,84,0,240
1,76,0,0
1,76,56,0
1,83,76,0
1,83,0,80
1,84,66,0
1,84,0,80
1,83,66,0
1,83,0,80
1,76,0,0
1,76,42,0
1,81,73,0
1,81,0,120
1,83,69,0
1,83,0,120
1,76,0,0
1,84,75,0
1,77,41,0
1,84,0,120
1,81,66,0
1,81,0,120
1,77,0,0
1,77,51,0
1,83,77,0
1,83,0,90
1,77,0,0
1,79,73,150
1,77,51,0
1,77,0,90
1,79,0,0
1,76,56,150
1,84,84,0
1,84,0,240
1,76,0,0
1,83,76,0
1,76,56,0
1,83,0,80
1,84,67,0
1,84,0,80
1,83,67,0
1,83,0,80
1,76,0,0
1,76,39,0
1,81,72,0
1,81,0,120
1,83,68,0
1,83,0,120
1,76,0,0
1,77,41,0
1,84,75,0
1,84,0,120
1,81,65,0
1,81,0,120
1,77,0,0
1,83,77,0
1,77,51,0
1,77,0,90
1,83,0,0
1,77,51,150
1,79,73,0
1,79,0,90
1,77,0,0
1,72,48,150
1,76,54,0
1,76,0,120
1,72,0,0
1,77,51,0
1,74,45,0
1,74,0,120
1,77,0,0
1,76,49,0
1,79,55,0
1,79,0,240
1,76,0,0
1,79,51,0
1,76,45,0
1,76,0,120
1,79,0,0
1,77,51,0
1,74,45,0
1,74,0,120
1,77,0,0
1,72,43,0
1,76,48,0
1,76,0,120
1,72,0,0
1,77,48,0
1,74,43,0
1,74,0,120
1,77,0,0
1,76,44,0
1,79,49,0
1,79,0,120
1,76,0,0
1,77,45,0
1,80,51,0
1,80,0,120
1,77,0,0
1,82,52,0
1,79,46,0
1,79,0,120
1,82,0,0
1,80,48,0
1,84,53,0
1,84,0,120
1,80,0,0
1,82,52,0
1,79,47,0
1,79,0,120
1,82,0,0
1,82,49,0
1,85,55,0
1,85,0,120
1,82,0,0
1,80,49,0
1,84,55,0
1,84,0,120
1,80,0,0
1,80,51,0
1,77,45,0
1,77,0,120
1,80,0,0
1,79,48,0
1,82,53,0
1,82,0,120
1,79,0,0
1,79,51,0
1,76,45,0
1,76,0,120
1,79,0,0
1,72,45,0
1,77,51,0
1,77,0,120
1,72,0,0
1,73,40,0
1,79,45,0
1,79,0,120
1,73,0,0
1,76,49,0
1,70,44,0
1,70,0,120
1,76,0,0
1,72,40,0
1,77,44,0
1,77,0,120
1,72,0,0
1,73,47,0
1,68,42,0
1,68,0,120
1,73,0,0
1,70,40,0
1,75,44,0
1,75,0,120
1,70,0,0
1,64,45,0
1,72,67,0
1,72,0,240
1,64,0,0
1,71,60,0
1,64,45,0
1,71,0,80
1,72,54,0
1,72,0,80
1,71,54,0
1,71,0,80
1,64,0,0
1,69,60,0
1,64,33,0
1,69,0,120
1,71,56,0
1,71,0,120
1,64,0,0
1,65,33,0
1,72,59,0
1,72,0,120
1,69,58,0
1,69,0,120
1,65,0,0
1,71,61,0
1,65,41,0
1,65,0,90
1,71,0,0
1,65,41,150
1,67,58,0
1,67,0,90
1,65,0,0
1,72,67,150
1,64,45,0
1,64,0,240
1,72,0,0
1,64,45,0
1,71,60,0
1,71,0,80
1,72,56,0
1,72,0,80
1,71,52,0
1,71,0,80
1,64,0,0
1,69,60,0
1,64,30,0
1,69,0,120
1,71,56,0
1,71,0,120
1,64,0,0
1,65,32,0
1,72,59,0
1,72,0,120
1,69,58,0
1,69,0,120
1,65,0,0
1,65,41,0
1,71,61,0
1,71,0,90
1,65,0,0
1,65,41,150
1,67,58,0
1,67,0,90
1,65,0,0
1,72,67,150
1,67,45,0
1,67,0,90
1,72,0,0
1,67,43,150
1,70,45,0
1,74,60,0
1,74,0,80
1,76,53,0
1,76,0,80
1,74,53,0
1,74,0,80
1,70,0,0
1,67,0,0
1,67,57,0
1,72,57,0
1,72,0,90
1,67,0,0
1,86,66,150
1,82,49,0
1,79,47,0
1,86,0,80
1,88,58,0
1,88,0,80
1,86,58,0
1,86,0,80
1,79,0,0
1,82,0,0
1,79,62,0
1,84,62,0
1,84,0,90
1,79,0,0
1,98,66,150
1,91,47,0
1,94,49,0
1,98,0,80
1,100,58,0
1,100,0,80
1,98,58,0
1,98,0,80
1,94,0,0
1,91,0,0
1,96,65,0
1,91,65,0
1,91,0,90
1,96,0,0
1,79,53,150
1,82,55,0
1,86,75,0
1,86,0,80
1,88,66,0
1,88,0,80
1,86,66,0
1,86,0,80
1,82,0,0
1,79,0,0
1,79,71,0
1,84,71,0
1,84,0,90
1,79,0,0
1,67,60,150
1,74,85,0
1,70,62,0
1,74,0,80
1,76,73,0
1,76,0,80
1,74,69,0
1,74,0,80
1,70,0,0
1,67,0,0
1,67,81,0
1,72,81,0
1,72,0,90
1,67,0,0
1,76,88,150
1,82,88,0
1,84,88,0
1,72,88,0
1,72,0,240
1,76,0,0
1,82,0,0
1,84,0,0
1,77,87,0
1,69,71,0
1,69,0,240
1,77,0,0
1,69,71,0
1,76,78,0
1,76,0,80
1,77,69,0
1,77,0,80
1,76,69,0
1,76,0,80
1,69,0,0
1,74,74,0
1,69,54,0
1,74,0,120
1,76,71,0
1,76,0,120
1,69,0,0
1,69,55,0
1,77,76,0
1,77,0,120
1,74,72,0
1,74,0,120
1,69,0,0
1,69,67,0
1,76,79,0
1,76,0,90
1,69,0,0
1,69,60,150
1,72,68,0
1,72,0,90
1,69,0,0
1,77,83,150
1,69,68,0
1,69,0,240
1,77,0,0
1,69,68,0
1,76,75,0
1,76,0,80
1,77,69,0
1,77,0,80
1,76,69,0
1,76,0,80
1,69,0,0
1,69,54,0
1,74,75,0
1,74,0,120
1,76,69,0
1,76,0,120
1,69,0,0
1,77,77,0
1,69,51,0
1,77,0,120
1,74,70,0
1,74,0,120
1,69,0,0
1,69,64,0
1,76,76,0
1,76,0,90
1,69,0,0
1,72,64,150
1,69,57,0
1,69,0,90
1,72,0,0
1,69,53,150
1,74,78,0
1,74,0,120
1,76,72,0
1,76,0,120
1,69,0,0
1,72,76,0
1,69,43,0
1,69,0,210
1,72,0,0
1,69,51,30
1,74,72,0
1,74,0,120
1,76,73,0
1,76,0,120
1,69,0,0
1,77,77,0
1,69,53,0
1,69,0,210
1,77,0,0
1,69,53,30
1,74,78,0
1,74,0,120
1,76,72,0
1,76,0,120
1,69,0,0
1,72,73,0
1,69,43,0
1,69,0,210
1,72,0,0
1,69,45,30
1,74,79,0
1,74,0,120
1,76,71,0
1,76,0,120
1,69,0,0
1,72,72,0
1,69,40,0
1,69,0,210
1,72,0,0
1,74,71,30
1,69,50,0
1,74,0,120
1,76,73,0
1,76,0,120
1,69,0,0
1,69,53,0
1,79,78,0
1,79,0,120
1,77,71,0
1,77,0,120
1,74,77,0
1,74,0,120
1,76,72,0
1,76,0,120
1,69,0,0
1,72,68,0
1,72,0,240
1,80,83,0
1,72,68,0
1,72,0,240
1,80,0,0
1,72,68,0
1,79,75,0
1,79,0,80
1,80,67,0
1,80,0,80
1,79,67,0
1,79,0,80
1,72,0,0
1,77,75,0
1,72,57,0
1,77,0,120
1,79,69,0
1,79,0,120
1,72,0,0
1,72,54,0
1,80,79,0
1,80,0,120
1,77,72,0
1,77,0,120
1,72,0,0
1,73,64,0
1,79,76,0
1,79,0,90
1,73,0,0
1,73,64,150
1,75,72,0
1,75,0,90
1,73,0,0
1,80,83,150
1,72,68,0
1,72,0,240
1,80,0,0
1,72,68,0
1,79,75,0
1,79,0,80
1,80,67,0
1,80,0,80
1,79,69,0
1,79,0,80
1,72,0,0
1,72,58,0
1,77,75,0
1,77,0,120
1,79,69,0
1,79,0,120
1,72,0,0
1,80,79,0
1,72,53,0
1,80,0,120
1,77,72,0
1,77,0,120
1,72,0,0
1,73,64,0
1,79,76,0
1,79,0,90
1,73,0,0
1,75,72,150
1,73,64,0
1,73,0,90
1,75,0,0
1,72,53,150
1,77,78,0
1,77,0,120
1,79,72,0
1,79,0,120
1,72,0,0
1,75,76,0
1,72,43,0
1,72,0,210
1,75,0,0
1,72,51,30
1,77,72,0
1,77,0,120
1,79,73,0
1,79,0,120
1,72,0,0
1,80,77,0
1,72,53,0
1,72,0,210
1,80,0,0
1,72,53,30
1,77,78,0
1,77,0,120
1,79,72,0
1,79,0,120
1,72,0,0
1,75,72,0
1,72,40,0
1,72,0,210
1,75,0,0
1,72,45,30
1,77,79,0
1,77,0,120
1,79,71,0
1,79,0,120
1,72,0,0
1,75,71,0
1,72,37,0
1,72,0,210
1,75,0,0
1,72,50,30
1,77,71,0
1,77,0,120
1,79,73,0
1,79,0,120
1,72,0,0
1,82,78,0
1,72,53,0
1,82,0,120
1,80,71,0
1,80,0,120
1,72,0,0
1,72,49,0
1,77,77,0
1,77,0,120
1,79,72,0
1,79,0,120
1,72,0,0
1,75,68,0
1,72,44,0
1,72,0,240
1,75,0,0
1,58,53,240
1,61,60,0
1,65,68,0
1,65,0,120
1,61,0,0
1,58,0,0
1,53,58,0
1,53,0,120
1,70,60,240
1,73,60,0
1,77,68,0
1,77,0,120
1,73,0,0
1,70,0,0
1,65,57,0
1,65,0,120
1,79,60,240
1,82,60,0
1,85,68,0
1,85,0,120
1,82,0,0
1,79,0,0
1,77,61,0
1,77,0,120
1,82,75,240
1,77,67,0
1,77,0,60
1,82,0,0
1,77,67,60
1,82,75,0
1,82,0,60
1,77,0,0
1,89,80,60
1,82,72,0
1,82,0,120
1,89,0,0
1,77,69,120
1,82,77,0
1,82,0,120
1,77,0,0
1,89,81,120
1,82,72,0
