track,note,velocity,time
1,38,75,2688
1,42,53,8
1,43,75,2
1,38,75,90
1,37,71,12
1,35,65,16
1,33,59,16
1,28,35,192
1,33,53,13
1,43,75,27
1,42,47,21
1,35,75,31
1,33,38,12
1,31,71,3
1,30,47,10
1,28,56,29
1,30,65,15
1,31,75,33
1,33,71,60
1,40,50,0
1,45,56,12
1,38,75,55
1,42,53,8
1,43,75,2
1,38,75,90
1,37,71,12
1,35,65,16
1,33,59,16
1,28,35,192
1,33,53,13
1,43,75,27
1,42,47,21
1,35,75,31
1,33,38,12
1,31,71,3
1,30,47,10
1,28,56,29
1,30,65,15
1,33,75,33
1,33,75,49
1,33,75,24
1,33,75,17
1,33,75,20
1,45,75,6
1,40,75,7
1,45,75,3
1,33,75,0
1,38,75,56
1,38,75,28
1,40,47,0
1,42,75,8
1,42,75,19
1,31,75,12
1,31,75,24
1,33,75,26
1,33,75,25
1,38,75,16
1,37,75,18
1,35,75,4
1,33,75,22
1,28,75,9
1,40,75,192
1,33,75,179
1,33,75,16
1,38,75,64
1,38,75,88
1,38,75,66
1,38,75,72
1,38,75,32
1,31,75,9
1,43,75,5
1,28,75,4
1,28,75,22
1,28,75,32
1,38,75,60
1,35,75,384
1,35,75,31
1,28,75,96
1,40,75,2
1,33,75,6
1,38,75,53
1,45,75,96
1,50,75,92
1,49,75,0
1,42,75,0
1,42,75,11
1,31,75,49
1,31,75,69
1,33,75,64
1,33,75,63
1,33,75,63
1,38,75,40
1,42,53,8
1,43,75,2
1,38,75,90
1,37,71,12
1,35,65,16
1,33,59,16
1,28,35,192
1,33,53,13
1,43,75,27
1,42,47,21
1,35,75,31
1,33,38,12
1,31,71,3
1,30,47,10
1,28,56,29
1,30,65,15
1,33,75,33
1,33,75,49
1,33,75,24
1,33,75,17
1,33,75,20
1,45,75,6
1,40,75,7
1,45,75,3
1,33,75,0
1,43,75,56
1,30,75,12
1,35,75,26
1,35,75,20
1,28,75,37
1,28,75,56
1,30,75,8
1,30,75,36
1,31,75,6
1,43,75,1
1,31,75,96
1,33,75,20
1,33,75,44
1,33,75,51
1,33,75,53
1,33,75,25
1,40,75,1
1,45,75,48
1,33,75,44
1,33,75,85
1,33,75,70
1,33,75,71
1,38,75,41
1,38,75,81
1,40,75,48
1,42,75,8
1,30,75,192
1,31,75,36
1,31,75,24
1,33,75,26
1,33,75,25
1,38,75,16
1,37,75,18
1,35,75,4
1,33,75,22
1,28,75,9
1,40,75,192
1,33,75,179
1,33,75,16
1,38,75,64
1,38,75,88
1,38,75,66
1,38,75,72
1,38,75,32
1,31,75,9
1,43,75,5
1,28,75,4
1,28,75,22
1,28,75,32
1,38,75,60
1,35,75,384
1,35,75,31
1,28,75,96
1,40,75,2
1,33,75,6
1,38,75,53
1,35,75,384
1,35,75,31
1,28,75,96
1,40,75,2
1,33,75,6
1,38,75,53
1,35,75,384
1,35,75,31
1,28,75,96
1,40,75,2
1,33,75,6
1,38,75,53
1,45,75,96
1,50,75,92
1,49,75,0
1,42,75,0
1,42,75,11
1,43,75,49
1,43,75,22
1,33,75,0
1,33,75,22
1,38,75,5
2,62,77,452
2,50,77,0
2,66,77,19
2,69,77,26
2,66,77,27
2,62,77,40
2,42,77,0
2,66,77,28
2,69,77,48
2,66,77,36
2,43,77,46
2,62,77,0
2,67,77,20
2,69,77,34
2,67,77,24
2,57,77,12
2,62,77,0
2,64,77,23
2,69,77,3
2,64,77,10
2,61,77,1
2,69,77,0
2,64,77,0
2,57,77,0
2,38,77,48
2,66,77,0
2,62,77,0
2,57,77,0
2,66,77,4
2,42,77,0
2,62,77,0
2,57,77,0
2,62,77,10
2,59,77,0
2,55,77,0
2,43,77,0
2,50,77,99
2,57,77,0
2,49,77,32
2,57,77,0
2,55,77,24
2,47,77,0
2,45,77,5
2,54,77,0
2,40,77,60
2,52,77,30
2,55,77,96
2,57,68,125
2,52,77,0
2,45,77,0
2,62,77,68
2,61,77,65
2,62,77,27
2,55,77,0
2,43,77,0
2,59,77,0
2,54,77,132
2,61,77,0
2,64,77,0
2,57,77,0
2,47,77,60
2,66,77,0
2,62,77,0
2,59,77,0
2,57,77,57
2,45,77,0
2,43,77,8
2,55,77,0
2,42,77,4
2,54,77,0
2,40,77,2
2,59,77,0
2,52,77,0
2,55,77,0
2,55,77,0
2,64,77,27
2,67,77,72
2,66,77,7
2,62,77,96
2,55,77,105
2,62,77,96
2,67,77,6
2,45,77,9
2,52,77,96
2,62,77,96
2,61,74,0
2,52,77,0
2,45,77,0
2,38,77,50
2,66,77,0
2,62,77,0
2,57,77,0
2,66,77,4
2,42,77,0
2,62,77,0
2,57,77,0
2,62,77,10
2,59,77,0
2,55,77,0
2,43,77,0
2,50,77,99
2,57,77,0
2,49,77,32
2,57,77,0
2,55,77,24
2,47,77,0
2,45,77,5
2,54,77,0
2,40,77,60
2,52,77,30
2,55,77,96
2,57,68,125
2,52,77,0
2,45,77,0
2,62,77,68
2,61,77,65
2,62,77,27
2,55,77,0
2,43,77,0
2,59,77,0
2,54,77,132
2,61,77,0
2,64,77,0
2,57,77,0
2,47,77,60
2,66,77,0
2,62,77,0
2,59,77,0
2,57,77,57
2,45,77,0
2,43,77,8
2,55,77,0
2,42,77,4
2,54,77,0
2,40,77,2
2,59,77,0
2,52,77,0
2,55,77,0
2,55,77,0
2,64,77,27
2,67,77,72
2,66,77,7
2,62,77,96
2,64,55,9
2,57,71,0
2,62,76,0
2,52,77,0
2,64,77,67
2,45,77,0
2,57,76,0
2,62,77,0
2,52,77,0
2,64,77,49
2,45,77,0
2,57,77,0
2,62,77,0
2,52,77,0
2,45,77,38
2,52,77,0
2,62,77,0
2,64,77,0
2,57,77,0
2,62,77,43
2,57,77,0
2,64,77,0
2,45,77,0
2,52,77,0
2,45,77,44
2,52,77,0
2,64,77,0
2,62,77,0
2,57,77,0
2,52,77,30
2,45,77,0
2,64,77,0
2,62,77,0
2,57,77,0
2,52,77,28
2,45,77,0
2,57,77,0
2,64,77,0
2,62,77,0
2,52,77,20
2,57,77,0
2,64,77,0
2,45,77,0
2,61,77,0
2,50,77,82
2,57,77,0
2,69,77,0
2,62,77,0
2,66,77,0
2,62,77,6
2,64,77,29
2,69,77,0
2,50,77,53
2,57,77,0
2,66,77,0
2,69,77,0
2,62,77,0
2,66,77,34
2,62,77,0
2,69,77,0
2,62,77,156
2,69,77,0
2,59,77,0
2,55,77,0
2,45,77,188
2,62,77,0
2,59,77,0
2,52,77,0
2,61,77,76
2,45,77,0
2,57,77,0
2,62,77,10
2,66,77,0
2,61,77,9
2,64,77,0
2,62,77,12
2,59,77,0
2,57,77,11
2,61,77,0
2,52,77,1
2,62,77,0
2,55,77,0
2,59,77,0
2,52,77,0
2,67,77,8
2,52,77,73
2,45,77,4
2,52,77,0
2,57,77,0
2,64,77,0
2,61,77,0
2,57,77,31
2,62,77,48
2,57,77,0
2,64,77,0
2,57,77,140
2,69,77,0
2,62,77,0
2,50,77,0
2,66,77,0
2,62,77,33
2,64,77,45
2,66,77,52
2,60,77,4
2,66,77,0
2,69,77,0
2,57,77,0
2,50,77,0
2,66,77,16
2,60,77,0
2,69,77,0
2,43,77,141
2,55,77,0
2,59,77,0
2,62,77,0
2,50,77,4
2,67,77,20
2,64,77,170
2,62,77,0
2,68,77,0
2,71,77,0
2,59,77,0
2,52,77,0
2,62,77,24
2,68,77,0
2,52,77,0
2,59,77,0
2,62,77,4
2,69,77,0
2,66,77,0
2,66,77,161
2,62,77,0
2,59,77,0
2,52,61,108
2,55,75,0
2,64,77,8
2,59,77,0
2,62,77,172
2,45,77,0
2,52,77,0
2,45,77,2
2,61,77,0
2,57,77,0
2,52,77,0
2,62,77,54
2,50,77,0
2,66,77,0
2,69,77,0
2,62,77,27
2,64,77,1
2,50,77,0
2,66,77,26
2,62,77,20
2,55,77,0
2,59,77,0
2,67,77,0
2,45,77,156
2,59,77,0
2,62,77,0
2,52,77,0
2,45,77,275
2,52,77,0
2,61,77,0
2,57,77,0
2,38,77,90
2,66,77,0
2,62,77,0
2,57,77,0
2,66,77,4
2,42,77,0
2,62,77,0
2,57,77,0
2,62,77,10
2,59,77,0
2,55,77,0
2,43,77,0
2,50,77,99
2,57,77,0
2,49,77,32
2,57,77,0
2,55,77,24
2,47,77,0
2,45,77,5
2,54,77,0
2,40,77,60
2,52,77,30
2,55,77,96
2,57,68,125
2,52,77,0
2,45,77,0
2,62,77,68
2,61,77,65
2,62,77,27
2,55,77,0
2,43,77,0
2,59,77,0
2,54,77,132
2,61,77,0
2,64,77,0
2,57,77,0
2,47,77,60
2,66,77,0
2,62,77,0
2,59,77,0
2,57,77,57
2,45,77,0
2,43,77,8
2,55,77,0
2,42,77,4
2,54,77,0
2,40,77,2
2,59,77,0
2,52,77,0
2,55,77,0
2,55,77,0
2,64,77,27
2,67,77,72
2,66,77,7
2,62,77,96
2,64,55,9
2,57,71,0
2,62,76,0
2,52,77,0
2,64,77,67
2,45,77,0
2,57,76,0
2,62,77,0
2,52,77,0
2,64,77,49
2,45,77,0
2,57,77,0
2,62,77,0
2,52,77,0
2,45,77,38
2,52,77,0
2,62,77,0
2,64,77,0
2,57,77,0
2,62,77,43
2,57,77,0
2,64,77,0
2,45,77,0
2,52,77,0
2,45,77,44
2,52,77,0
2,64,77,0
2,62,77,0
2,57,77,0
2,52,77,30
2,45,77,0
2,64,77,0
2,62,77,0
2,57,77,0
2,52,77,28
2,45,77,0
2,57,77,0
2,64,77,0
2,62,77,0
2,52,77,20
2,57,77,0
2,64,77,0
2,45,77,0
2,61,77,0
2,64,77,0
2,62,77,0
2,59,77,0
2,57,77,0
2,61,77,0
2,64,77,0
2,62,77,82
2,59,77,0
2,55,77,0
2,71,77,0
2,67,77,0
2,54,77,189
2,61,77,0
2,57,77,0
2,64,77,0
2,66,77,14
2,62,77,0
2,59,77,0
2,62,77,5
2,59,77,0
2,55,77,0
2,52,77,0
2,54,77,4
2,49,77,0
2,57,77,0
2,66,77,0
2,61,77,0
2,59,77,2
2,62,77,0
2,55,77,0
2,43,77,0
2,52,77,11
2,45,77,0
2,62,77,0
2,59,77,0
2,45,77,12
2,52,77,0
2,59,77,0
2,62,77,0
2,62,77,50
2,59,77,0
2,52,77,0
2,45,77,0
2,62,66,55
2,45,77,0
2,52,77,0
2,69,77,38
2,52,77,0
2,45,77,0
2,62,77,0
2,59,77,0
2,45,77,46
2,52,77,0
2,69,77,0
2,62,77,0
2,59,77,0
2,52,77,34
2,45,77,0
2,62,77,0
2,59,77,0
2,69,77,0
2,52,77,37
2,45,77,0
2,69,77,0
2,59,77,0
2,62,77,0
2,52,77,32
2,45,77,0
2,69,77,0
2,61,77,0
2,64,77,0
2,52,77,68
2,45,77,0
2,69,77,0
2,64,77,0
2,61,77,0
2,52,77,84
2,45,77,0
2,64,77,0
2,69,77,0
2,61,77,0
2,52,77,84
2,45,77,0
2,64,77,0
2,69,77,0
2,61,77,0
2,50,77,48
2,69,77,0
2,66,77,0
2,62,77,0
2,74,77,198
2,69,77,0
2,66,77,0
2,62,77,130
2,69,77,0
2,59,77,0
2,55,77,0
2,45,77,188
2,62,77,0
2,59,77,0
2,52,77,0
2,61,77,76
2,45,77,0
2,57,77,0
2,62,77,10
2,66,77,0
2,61,77,9
2,64,77,0
2,62,77,12
2,59,77,0
2,57,77,11
2,61,77,0
2,52,77,1
2,62,77,0
2,55,77,0
2,59,77,0
2,52,77,0
2,67,77,8
2,52,77,73
2,45,77,4
2,52,77,0
2,57,77,0
2,64,77,0
2,61,77,0
2,57,77,31
2,62,77,48
2,57,77,0
2,64,77,0
2,57,77,140
2,69,77,0
2,62,77,0
2,50,77,0
2,66,77,0
2,62,77,33
2,64,77,45
2,66,77,52
2,60,77,4
2,66,77,0
2,69,77,0
2,57,77,0
2,50,77,0
2,66,77,16
2,60,77,0
2,69,77,0
2,43,77,141
2,55,77,0
2,59,77,0
2,62,77,0
2,50,77,4
2,67,77,20
2,64,77,170
2,62,77,0
2,68,77,0
2,71,77,0
2,59,77,0
2,52,77,0
2,62,77,24
2,68,77,0
2,52,77,0
2,59,77,0
2,62,77,4
2,69,77,0
2,66,77,0
2,66,77,161
2,62,77,0
2,59,77,0
2,55,75,108
2,52,61,0
2,64,77,8
2,59,77,0
2,62,77,172
2,45,77,0
2,52,77,0
2,45,77,2
2,61,77,0
2,57,77,0
2,52,77,0
2,62,77,54
2,69,77,0
2,66,77,0
2,66,77,161
2,62,77,0
2,59,77,0
2,55,75,108
2,52,61,0
2,64,77,8
2,59,77,0
2,62,77,172
2,45,77,0
2,52,77,0
2,45,77,2
2,61,77,0
2,57,77,0
2,52,77,0
2,62,77,54
2,69,77,0
2,66,77,0
2,66,77,161
2,62,77,0
2,59,77,0
2,55,75,108
2,52,61,0
2,64,77,8
2,59,77,0
2,62,77,172
2,45,77,0
2,52,77,0
2,45,77,2
2,61,77,0
2,57,77,0
2,52,77,0
2,62,77,54
2,50,77,0
2,66,77,0
2,69,77,0
2,62,77,27
2,64,77,1
2,50,77,0
2,66,77,26
2,67,77,20
2,62,77,0
2,59,77,0
2,55,77,0
2,62,77,52
2,59,77,0
2,45,77,2
2,52,77,0
2,61,77,0
2,57,77,0
2,50,77,7
2,62,77,0
2,54,77,0
2,57,77,0
3,86,70,15639
3,78,62,0
3,79,70,149
3,86,70,0
3,86,70,84
3,81,70,0
3,81,70,4
3,85,70,0
3,78,70,4
3,76,70,2
3,74,70,5
3,73,70,60
3,74,70,1
3,74,70,18
3,73,60,20
3,71,70,7
3,69,70,3
3,74,70,9
3,78,67,0
3,81,70,6
3,78,70,113
3,72,70,0
3,81,70,44
3,79,70,149
3,74,70,4
3,81,70,52
3,79,70,56
3,76,70,1
3,80,65,62
3,83,70,1
3,88,65,66
3,92,70,75
3,81,70,3036
3,85,70,14
3,86,65,48
3,88,70,39
3,86,70,16
3,90,70,0
3,81,70,0
3,71,70,6192
3,79,70,0
3,67,70,0
3,83,70,0
3,76,70,222
3,81,50,0
3,73,60,0
3,71,67,5
3,78,70,0
3,74,70,0
3,74,50,1293
3,81,48,0
3,81,70,52
3,74,70,0
3,81,70,33
3,74,70,0
3,81,70,35
3,74,70,0
3,81,70,34
3,74,70,0
3,81,70,39
3,74,70,0
3,81,70,37
3,74,70,0
3,73,70,31
3,81,70,0
3,76,70,0
3,81,70,16
3,88,70,0
3,85,70,0
3,81,70,81
3,88,70,0
3,85,70,0
3,88,70,62
3,81,70,0
3,85,70,0
3,79,70,805
3,86,70,0
3,86,70,84
3,81,70,0
3,81,70,4
3,85,70,0
3,78,70,4
3,76,70,2
3,74,70,5
3,73,70,60
3,74,70,1
3,74,70,18
3,73,60,20
3,71,70,7
3,69,70,3
3,74,70,9
3,78,67,0
3,81,70,6
3,78,70,113
3,72,70,0
3,81,70,44
3,79,70,149
3,74,70,4
3,81,70,52
3,79,70,56
3,76,70,1
3,80,65,62
3,83,70,1
3,88,65,66
3,92,70,75
3,90,70,3324
3,86,70,0
3,85,67,18
3,88,70,0
3,90,60,0
3,86,70,0
3,86,70,15
3,85,45,96
3,83,48,93
3,81,48,91
3,79,50,94
3,78,43,0
3,76,41,96
3,73,37,81
3,62,70,28
3,69,70,96
3,74,70,92
3,73,70,0
3,66,70,0
3,66,70,11
3,83,70,4
3,79,70,0
3,83,70,20
3,79,70,0
3,86,70,23
3,91,70,64
3,86,45,1
3,81,60,0
3,78,44,0
3,102,33,96
3,98,38,96
3,93,20,96
4,62,76,317
4,50,76,0
4,66,68,19
4,69,76,26
4,66,71,27
4,62,76,40
4,42,76,0
4,66,45,28
4,69,71,48
4,66,73,36
4,43,76,46
4,62,76,0
4,67,61,20
4,69,76,34
4,67,76,24
4,57,76,12
4,62,76,0
4,64,59,23
4,69,73,3
4,64,51,10
4,61,51,1
4,69,50,0
4,64,59,0
4,57,73,0
4,62,76,48
4,50,73,0
4,66,40,18
4,69,76,16
4,66,45,24
