track,note,velocity,time
1,75,52,1920
1,79,52,0
1,79,0,720
1,75,0,0
1,77,50,0
1,74,50,0
1,74,0,240
1,77,0,0
1,80,52,0
1,77,52,0
1,77,0,480
1,80,0,0
1,77,52,0
1,74,52,0
1,74,0,240
1,77,0,0
1,75,50,0
1,79,50,0
1,79,0,240
1,75,0,0
1,72,52,0
1,75,52,0
1,75,0,480
1,72,0,0
1,72,49,0
1,68,49,0
1,68,0,480
1,72,0,0
1,67,47,0
1,70,47,0
1,70,0,960
1,67,0,0
1,72,51,0
1,68,51,0
1,72,0,480
1,74,56,0
1,74,0,240
1,77,55,0
1,77,0,240
1,68,0,0
1,68,55,0
1,74,55,0
1,74,0,480
1,70,51,0
1,70,0,480
1,68,0,0
1,67,51,0
1,72,51,0
1,72,0,240
1,74,49,0
1,74,0,240
1,79,52,0
1,79,0,240
1,72,50,0
1,72,0,240
1,67,0,0
1,67,47,0
1,70,47,0
1,70,0,960
1,67,0,0
1,74,64,0
1,70,64,0
1,70,0,720
1,74,0,0
1,70,55,0
1,67,55,0
1,67,0,240
1,70,0,0
1,72,51,0
1,69,60,0
1,72,0,480
1,78,65,0
1,78,0,240
1,81,60,0
1,81,0,240
1,69,0,0
1,70,57,0
1,79,64,0
1,79,0,240
1,74,56,0
1,74,0,240
1,70,0,0
1,72,58,0
1,69,51,0
1,72,0,240
1,74,53,0
1,74,0,240
1,69,0,0
1,67,47,0
1,70,47,0
1,70,0,960
1,67,0,0
1,70,51,0
1,77,60,0
1,77,0,720
1,70,0,0
1,79,58,0
1,69,49,0
1,79,0,240
1,75,57,0
1,75,0,240
1,77,60,0
1,77,0,240
1,79,64,0
1,79,0,240
1,81,61,0
1,81,0,240
1,69,0,0
1,70,58,0
1,77,69,0
1,77,0,240
1,70,0,0
1,68,48,0
1,74,57,0
1,74,0,240
1,68,0,0
1,75,61,0
1,69,52,0
1,69,0,240
1,75,0,0
1,65,46,0
1,73,54,0
1,73,0,240
1,74,59,0
1,74,0,240
1,72,52,0
1,68,38,0
1,72,0,240
1,71,46,0
1,71,0,240
1,68,0,0
1,70,43,0
1,70,0,240
1,65,0,0
1,75,52,0
1,79,52,0
1,79,0,720
1,75,0,0
1,74,50,0
1,77,50,0
1,77,0,240
1,74,0,0
1,80,52,0
1,77,52,0
1,77,0,480
1,80,0,0
1,77,52,0
1,74,52,0
1,74,0,240
1,77,0,0
1,75,50,0
1,79,50,0
1,79,0,240
1,75,0,0
1,75,52,0
1,72,52,0
1,72,0,480
1,75,0,0
1,68,49,0
1,72,49,0
1,72,0,480
1,68,0,0
1,67,47,0
1,70,47,0
1,70,0,960
1,67,0,0
1,72,51,0
1,68,51,0
1,72,0,480
1,74,56,0
1,74,0,240
1,77,55,0
1,77,0,240
1,68,0,0
1,68,55,0
1,74,55,0
1,74,0,480
1,70,51,0
1,70,0,480
1,68,0,0
1,72,51,0
1,67,51,0
1,72,0,240
1,74,49,0
1,74,0,240
1,79,52,0
1,79,0,240
1,72,50,0
1,72,0,240
1,67,0,0
1,70,47,0
1,67,47,0
1,67,0,960
1,70,0,0
1,74,64,0
1,70,64,0
1,70,0,720
1,74,0,0
1,70,55,0
1,67,55,0
1,67,0,240
1,70,0,0
1,72,51,0
1,69,60,0
1,72,0,480
1,78,65,0
1,78,0,240
1,81,60,0
1,81,0,240
1,69,0,0
1,79,64,0
1,70,57,0
1,79,0,240
1,74,56,0
1,74,0,240
1,70,0,0
1,69,51,0
1,72,58,0
1,72,0,240
1,74,53,0
1,74,0,240
1,69,0,0
1,67,47,0
1,70,47,0
1,70,0,960
1,67,0,0
1,65,52,0
1,70,58,0
1,70,0,480
1,65,0,0
1,72,57,0
1,66,51,0
1,66,0,240
1,72,0,0
1,70,55,0
1,75,55,0
1,75,0,240
1,70,0,0
1,72,60,0
1,66,54,0
1,66,0,240
1,72,0,0
1,70,47,0
1,75,53,0
1,75,0,240
1,70,0,0
1,78,60,0
1,72,54,0
1,72,0,240
1,78,0,0
1,75,54,0
1,70,48,0
1,70,0,240
1,75,0,0
1,69,54,0
1,74,54,0
1,74,0,480
1,72,53,0
1,72,0,240
1,74,49,0
1,74,0,240
1,69,0,0
1,70,47,0
1,65,47,0
1,65,0,960
1,70,0,0
1,77,52,0
1,74,52,0
1,74,0,720
1,77,0,0
1,72,50,0
1,68,50,0
1,68,0,240
1,72,0,0
1,75,52,0
1,72,52,0
1,72,0,480
1,75,0,0
1,70,52,0
1,74,52,0
1,74,0,240
1,70,0,0
1,70,50,0
1,67,50,0
1,67,0,240
1,70,0,0
1,70,52,0
1,74,52,0
1,74,0,480
1,70,0,0
1,72,49,0
1,68,49,0
1,68,0,480
1,72,0,0
1,65,47,0
1,68,47,0
1,68,0,960
1,65,0,0
1,80,72,0
1,77,72,0
1,77,0,720
1,80,0,0
1,79,57,0
1,76,57,0
1,76,0,240
1,79,0,0
1,76,63,0
1,73,63,0
1,73,0,240
1,76,0,0
1,79,56,0
1,76,56,0
1,76,0,240
1,79,0,0
1,74,61,0
1,77,61,0
1,77,0,240
1,74,0,0
1,71,56,0
1,74,56,0
1,74,0,240
1,71,0,0
1,77,60,0
1,74,60,0
1,74,0,240
1,77,0,0
1,75,53,0
1,72,53,0
1,72,0,240
1,75,0,0
1,68,53,0
1,72,53,0
1,72,0,240
1,68,0,0
1,68,50,0
1,65,50,0
1,65,0,240
1,68,0,0
1,62,48,0
1,65,48,0
1,65,0,960
1,62,0,0
1,69,51,0
1,78,57,0
1,69,0,240
1,70,47,0
1,70,0,240
1,71,52,0
1,71,0,240
1,78,0,0
1,72,40,0
1,80,52,0
1,80,0,240
1,78,60,0
1,78,0,80
1,80,49,0
1,80,0,80
1,78,49,0
1,78,0,80
1,77,55,0
1,77,0,240
1,76,56,0
1,76,0,240
1,77,49,0
1,77,0,240
1,72,0,0
1,73,57,0
1,64,51,0
1,64,0,240
1,65,47,0
1,65,0,180
1,68,46,0
1,68,0,60
1,66,52,0
1,66,0,240
1,73,0,0
1,73,52,0
1,65,40,0
1,65,0,240
1,73,0,0
1,64,39,0
1,70,40,0
1,73,60,0
1,73,0,240
1,72,55,0
1,72,0,240
1,71,56,0
1,71,0,240
1,72,49,0
1,72,0,240
1,70,0,0
1,64,0,0
1,68,51,0
1,72,51,0
1,72,0,480
1,68,0,0
1,73,56,0
1,70,56,0
1,70,0,240
1,73,0,0
1,73,52,0
1,77,52,0
1,77,0,240
1,73,0,0
1,73,55,0
1,70,55,0
1,70,0,480
1,73,0,0
1,67,51,0
1,70,51,0
1,70,0,480
1,67,0,0
1,67,51,0
1,64,51,0
1,64,0,240
1,67,0,0
1,68,52,0
1,65,52,0
1,65,0,240
1,68,0,0
1,67,57,0
1,70,57,0
1,70,0,240
1,67,0,0
1,70,52,0
1,73,52,0
1,73,0,240
1,70,0,0
1,72,47,0
1,68,47,0
1,68,0,960
1,72,0,0
1,68,69,0
1,72,69,0
1,72,0,480
1,68,0,0
1,75,65,0
1,72,65,0
1,72,0,240
1,75,0,0
1,77,59,0
1,80,59,0
1,80,0,240
1,77,0,0
1,73,63,0
1,77,63,0
1,77,0,480
1,73,0,0
1,73,60,0
1,70,60,0
1,70,0,480
1,73,0,0
1,67,65,0
1,70,65,0
1,70,0,240
1,67,0,0
1,72,60,0
1,68,60,0
1,68,0,240
1,72,0,0
1,70,70,0
1,73,70,0
1,73,0,240
1,70,0,0
1,73,59,0
1,76,59,0
1,76,0,240
1,73,0,0
1,75,53,0
1,72,53,0
1,72,0,960
1,75,0,0
1,68,39,0
1,72,39,0
1,75,47,0
1,75,0,240
1,72,0,0
1,68,0,0
1,72,35,0
1,68,35,0
1,75,42,0
1,75,0,480
1,68,0,0
1,72,0,0
1,68,31,0
1,75,37,0
1,72,31,0
1,72,0,240
1,75,0,0
1,68,0,0
1,68,39,0
1,75,47,0
1,72,39,0
1,72,0,240
1,75,0,0
1,68,0,0
1,75,42,0
1,72,35,0
1,68,35,0
1,68,0,480
1,72,0,0
1,75,0,0
1,72,31,0
1,68,31,0
1,75,37,0
1,75,0,240
1,68,0,0
1,72,0,0
1,68,35,240
1,75,43,0
1,72,35,0
1,72,0,240
1,75,0,0
1,68,0,0
1,68,36,240
1,72,36,0
1,75,44,0
1,75,0,240
1,72,0,0
1,68,0,0
1,72,36,240
1,75,44,0
1,68,36,0
1,68,0,240
1,75,0,0
1,72,0,0
1,68,34,240
1,72,34,0
1,75,40,0
1,75,0,240
1,72,0,0
1,68,0,0
1,72,35,0
1,68,35,0
1,75,42,0
1,75,0,240
1,68,0,0
1,72,0,0
1,68,35,0
1,75,42,0
1,72,35,0
1,72,0,480
1,75,0,0
1,68,0,0
1,68,31,0
1,72,31,0
1,75,37,0
1,75,0,240
1,72,0,0
1,68,0,0
1,72,39,0
1,75,47,0
1,68,39,0
1,68,0,240
1,75,0,0
1,72,0,0
1,68,35,0
1,72,35,0
1,75,42,0
1,75,0,480
1,72,0,0
1,68,0,0
1,72,31,0
1,68,31,0
1,75,37,0
1,75,0,240
1,68,0,0
1,72,0,0
1,68,35,240
1,75,43,0
1,72,35,0
1,68,0,238
1,72,0,2
1,75,0,0
1,68,36,240
1,75,44,0
1,72,36,0
1,72,0,240
1,75,0,0
1,68,0,0
1,72,36,240
1,75,44,0
1,68,36,0
1,68,0,240
1,75,0,0
1,72,0,0
1,68,34,240
1,72,34,0
1,75,40,0
1,75,0,240
1,72,0,0
1,68,0,0
1,80,72,0
1,84,72,0
1,84,0,720
1,80,0,0
1,76,57,0
1,79,57,0
1,79,0,240
1,76,0,0
1,82,63,0
1,79,63,0
1,79,0,480
1,82,0,0
1,80,61,0
1,77,61,0
1,77,0,240
1,80,0,0
1,74,56,0
1,77,56,0
1,77,0,240
1,74,0,0
1,74,63,0
1,70,63,0
1,70,0,480
1,74,0,0
1,67,54,0
1,70,54,0
1,70,0,480
1,67,0,0
1,64,56,0
1,67,56,0
1,67,0,480
1,64,0,0
1,68,52,0
1,65,52,0
1,65,0,480
1,68,0,0
1,66,50,0
1,71,56,0
1,71,0,720
1,73,51,0
1,73,0,240
1,66,0,0
1,71,54,0
1,64,46,0
1,64,0,240
1,71,0,0
1,76,55,0
1,76,0,240
1,78,57,0
1,78,0,240
1,80,59,0
1,80,0,240
1,83,59,0
1,83,0,240
1,80,57,0
1,80,0,240
1,78,55,0
1,78,0,240
1,76,53,0
1,76,0,240
1,75,51,0
1,68,42,0
1,75,0,480
1,74,50,0
1,74,0,480
1,68,0,0
1,79,52,0
1,75,52,0
1,75,0,720
1,79,0,0
1,74,50,0
1,77,50,0
1,77,0,240
1,74,0,0
1,80,52,0
1,77,52,0
1,77,0,480
1,80,0,0
1,74,52,0
1,77,52,0
1,77,0,240
1,74,0,0
1,75,50,0
1,79,50,0
1,79,0,240
1,75,0,0
1,72,52,0
1,75,52,0
1,75,0,480
1,72,0,0
1,68,49,0
1,72,49,0
1,72,0,480
1,68,0,0
1,67,47,0
1,70,47,0
1,70,0,960
1,67,0,0
1,68,51,0
1,72,51,0
1,72,0,480
1,74,56,0
1,74,0,240
1,77,55,0
1,77,0,240
1,68,0,0
1,68,55,0
1,74,55,0
1,74,0,480
1,70,51,0
1,70,0,480
1,68,0,0
1,67,51,0
1,72,51,0
1,72,0,240
1,74,49,0
1,74,0,240
1,79,52,0
1,79,0,240
1,72,50,0
1,72,0,240
1,67,0,0
1,67,47,0
1,70,47,0
1,70,0,960
1,67,0,0
1,74,64,0
1,70,64,0
1,70,0,720
1,74,0,0
1,67,55,0
1,70,55,0
1,70,0,240
1,67,0,0
1,72,51,0
1,69,60,0
1,72,0,480
1,78,65,0
1,78,0,240
1,81,60,0
1,81,0,240
1,69,0,0
1,70,57,0
1,79,64,0
1,79,0,240
1,74,56,0
1,74,0,240
1,70,0,0
1,69,51,0
1,72,58,0
1,72,0,240
1,74,53,0
1,74,0,240
1,69,0,0
1,67,47,0
1,70,47,0
1,70,0,960
1,67,0,0
1,70,51,0
1,77,60,0
1,77,0,720
1,70,0,0
1,69,49,0
1,79,58,0
1,79,0,240
1,75,57,0
1,75,0,240
1,77,60,0
1,77,0,240
1,79,64,0
1,79,0,240
1,81,61,0
1,81,0,240
1,69,0,0
1,70,58,0
1,77,69,0
1,77,0,240
1,70,0,0
1,68,48,0
1,74,57,0
1,74,0,240
1,68,0,0
1,69,52,0
1,75,61,0
1,75,0,240
1,69,0,0
1,65,46,0
1,73,54,0
1,73,0,240
1,74,59,0
1,74,0,240
1,68,38,0
1,72,52,0
1,72,0,240
1,71,46,0
1,71,0,240
1,68,0,0
1,70,43,0
1,70,0,240
1,65,0,0
1,79,52,0
1,75,52,0
1,75,0,720
1,79,0,0
1,74,50,0
1,77,50,0
1,77,0,240
1,74,0,0
1,80,52,0
1,77,52,0
1,77,0,480
1,80,0,0
1,74,52,0
1,77,52,0
1,77,0,240
1,74,0,0
1,75,50,0
1,79,50,0
1,79,0,240
1,75,0,0
1,72,52,0
1,75,52,0
1,75,0,480
1,72,0,0
1,68,49,0
1,72,49,0
1,72,0,480
1,68,0,0
1,67,47,0
1,70,47,0
1,70,0,960
1,67,0,0
1,68,51,0
1,72,51,0
1,72,0,480
1,74,56,0
1,74,0,240
1,77,55,0
1,77,0,240
1,68,0,0
1,68,55,0
1,74,55,0
1,74,0,480
1,70,51,0
1,70,0,480
1,68,0,0
1,67,51,0
1,72,51,0
1,72,0,240
1,74,49,0
1,74,0,240
1,79,52,0
1,79,0,240
1,72,50,0
1,72,0,240
1,67,0,0
1,67,47,0
1,70,47,0
1,70,0,960
1,67,0,0
1,67,47,0
1,73,55,0
1,73,0,720
1,67,0,0
1,67,45,0
1,72,53,0
1,72,0,240
1,67,0,0
1,67,47,0
1,72,56,0
1,72,0,720
1,70,52,0
1,70,0,240
1,67,0,0
1,63,45,0
1,67,53,0
1,67,0,240
1,68,55,0
1,68,0,240
1,63,0,0
1,71,56,0
1,71,0,240
1,72,57,0
1,72,0,240
1,74,59,0
1,74,0,240
1,75,56,0
1,75,0,240
1,72,47,0
1,75,47,0
1,80,61,0
1,80,0,240
1,75,0,0
1,72,0,0
1,63,38,0
1,68,38,0
1,72,55,0
1,72,0,240
1,68,0,0
1,63,0,0
1,63,44,0
1,72,52,0
1,68,44,0
1,68,0,720
1,72,0,0
1,63,0,0
1,65,42,0
1,68,42,0
1,74,50,0
1,74,0,240
1,68,0,0
1,65,0,0
1,63,44,0
1,72,52,0
1,68,44,0
1,68,0,480
1,72,0,0
1,63,0,0
1,62,40,0
1,68,40,0
1,70,49,0
1,70,0,480
1,68,0,0
1,62,0,0
1,67,52,0
1,63,44,0
1,63,0,720
1,67,0,0
1,63,42,0
1,70,50,0
1,70,0,240
1,63,0,0
1,63,44,0
1,68,52,0
1,68,0,480
1,63,0,0
1,63,40,0
1,67,49,0
1,67,0,480
1,63,0,0
1,60,47,0
1,65,47,0
1,65,0,240
1,60,0,0
1,63,38,0
1,68,38,0
1,68,0,240
1,63,0,0
1,60,46,0
1,65,46,0
1,65,0,240
1,60,0,0
1,62,37,0
1,67,37,0
1,67,0,240
1,62,0,0
1,60,42,0
1,65,42,0
1,65,0,480
1,60,0,0
1,62,37,0
1,67,37,0
1,70,37,0
1,70,0,480
1,67,0,0
1,62,0,0
1,79,42,1920
1,75,42,0
1,75,0,720
1,79,0,0
1,74,38,0
1,77,38,0
1,77,0,240
1,74,0,0
1,80,39,0
1,77,39,0
1,77,0,480
1,80,0,0
1,74,38,0
1,77,38,0
1,77,0,240
1,74,0,0
1,75,35,0
1,79,35,0
1,79,0,240
1,75,0,0
1,72,35,0
1,75,35,0
1,75,0,480
1,72,0,0
1,68,31,0
1,72,31,0
1,72,0,480
1,68,0,0
1,67,29,0
1,70,29,0
1,70,0,960
1,67,0,0
1,54,25,0
1,57,25,0
1,63,29,0
1,63,0,1920
1,57,0,0
1,54,0,0
1,87,39,0
1,79,39,0
1,79,0,1440
1,87,0,0
