track,note,velocity,time
1,72,29,660
1,77,29,20
1,81,29,20
1,84,36,20
1,84,0,240
1,72,0,0
1,77,0,0
1,81,0,0
1,81,27,0
1,84,34,0
1,77,27,0
1,72,27,0
1,72,0,240
1,81,0,0
1,84,0,0
1,77,0,0
1,84,34,0
1,72,27,0
1,81,27,0
1,77,27,0
1,77,0,180
1,84,0,0
1,72,0,0
1,81,0,0
1,72,29,0
1,77,29,20
1,81,29,20
1,84,36,20
1,84,0,240
1,72,0,0
1,77,0,0
1,81,0,0
1,77,27,0
1,72,27,0
1,84,34,0
1,81,27,0
1,81,0,240
1,77,0,0
1,72,0,0
1,84,0,0
1,77,27,0
1,84,34,0
1,81,27,0
1,72,27,0
1,72,0,180
1,77,0,0
1,84,0,0
1,81,0,0
1,72,29,0
1,77,29,20
1,81,29,20
1,84,36,20
1,84,0,240
1,72,0,0
1,77,0,0
1,81,0,0
1,81,27,0
1,84,34,0
1,72,27,0
1,77,27,0
1,77,0,240
1,81,0,0
1,84,0,0
1,72,0,0
1,81,27,0
1,77,27,0
1,84,34,0
1,72,27,0
1,72,0,180
1,81,0,0
1,77,0,0
1,84,0,0
1,72,29,0
1,77,29,20
1,81,29,20
1,84,36,20
1,84,0,240
1,72,0,0
1,77,0,0
1,81,0,0
1,81,27,0
1,84,34,0
1,77,27,0
1,72,27,0
1,72,0,240
1,81,0,0
1,84,0,0
1,77,0,0
1,84,34,0
1,72,27,0
1,81,27,0
1,77,27,0
1,77,0,180
1,84,0,0
1,72,0,0
1,81,0,0
1,72,29,0
1,77,29,20
1,81,29,20
1,84,36,20
1,84,0,240
1,72,0,0
1,77,0,0
1,81,0,0
1,77,27,0
1,72,27,0
1,84,34,0
1,81,27,0
1,81,0,240
1,77,0,0
1,72,0,0
1,84,0,0
1,77,27,0
1,84,34,0
1,81,27,0
1,72,27,0
1,72,0,180
1,77,0,0
1,84,0,0
1,81,0,0
1,72,29,0
1,77,29,20
1,81,29,20
1,84,36,20
1,84,0,240
1,72,0,0
1,77,0,0
1,81,0,0
1,84,34,0
1,72,27,0
1,81,27,0
1,77,27,0
1,77,0,240
1,84,0,0
1,72,0,0
1,81,0,0
1,77,27,0
1,72,27,0
1,84,34,0
1,81,27,0
1,81,0,180
1,77,0,0
1,72,0,0
1,84,0,0
1,72,29,0
1,77,29,20
1,81,29,20
1,84,36,20
1,84,0,240
1,72,0,0
1,77,0,0
1,81,0,0
1,81,27,0
1,77,27,0
1,84,34,0
1,72,27,0
1,72,0,240
1,81,0,0
1,77,0,0
1,84,0,0
1,81,27,0
1,84,34,0
1,72,27,0
1,77,27,0
1,77,0,180
1,81,0,0
1,84,0,0
1,72,0,0
1,72,29,0
1,77,29,20
1,81,29,20
1,84,36,20
1,84,0,240
1,72,0,0
1,77,0,0
1,81,0,0
1,84,34,0
1,72,27,0
1,77,27,0
1,81,27,0
1,81,0,240
1,84,0,0
1,72,0,0
1,77,0,0
1,81,27,0
1,84,34,0
1,77,27,0
1,72,27,0
1,72,0,180
1,81,0,0
1,84,0,0
1,77,0,0
1,76,29,0
1,72,29,0
1,84,36,60
1,82,29,0
1,76,0,220
1,72,0,20
1,84,0,0
1,84,34,0
1,72,27,0
1,82,27,0
1,76,27,0
1,82,0,20
1,82,0,220
1,84,0,0
1,72,0,0
1,76,0,0
1,76,27,0
1,72,27,0
1,84,34,0
1,82,27,0
1,82,0,180
1,76,0,0
1,72,0,0
1,84,0,0
1,76,29,0
1,72,29,0
1,82,29,60
1,84,36,0
1,76,0,220
1,72,0,20
1,84,0,0
1,82,27,0
1,76,27,0
1,84,34,0
1,72,27,0
1,82,0,20
1,84,0,220
1,82,0,0
1,76,0,0
1,72,0,0
1,82,27,0
1,84,34,0
1,72,27,0
1,76,27,0
1,76,0,180
1,82,0,0
1,84,0,0
1,72,0,0
1,76,29,0
1,72,29,0
1,84,36,60
1,82,29,0
1,76,0,220
1,72,0,20
1,84,0,0
1,84,34,0
1,72,27,0
1,82,27,0
1,76,27,0
1,82,0,20
1,82,0,220
1,84,0,0
1,72,0,0
1,76,0,0
1,76,27,0
1,72,27,0
1,84,34,0
1,82,27,0
1,82,0,180
1,76,0,0
1,72,0,0
1,84,0,0
1,76,29,0
1,72,29,0
1,82,29,60
1,84,36,0
1,76,0,220
1,72,0,20
1,84,0,0
1,82,27,0
1,76,27,0
1,84,34,0
1,72,27,0
1,82,0,20
1,84,0,220
1,82,0,0
1,76,0,0
1,72,0,0
1,82,27,0
1,84,34,0
1,72,27,0
1,76,27,0
1,76,0,180
1,82,0,0
1,84,0,0
1,72,0,0
1,72,29,0
1,76,29,0
1,82,29,60
1,84,36,0
1,76,0,220
1,72,0,20
1,84,0,0
1,84,34,0
1,72,27,0
1,76,27,0
1,82,27,0
1,82,0,20
1,76,0,220
1,84,0,0
1,72,0,0
1,82,0,0
1,82,28,0
1,84,36,0
1,76,28,0
1,72,28,0
1,72,0,180
1,82,0,0
1,84,0,0
1,76,0,0
1,76,31,0
1,72,31,0
1,84,39,60
1,82,31,0
1,76,0,220
1,72,0,20
1,84,0,0
1,84,37,0
1,72,29,0
1,82,29,0
1,76,29,0
1,82,0,20
1,82,0,220
1,84,0,0
1,72,0,0
1,76,0,0
1,76,29,0
1,72,29,0
1,84,37,0
1,82,29,0
1,82,0,180
1,76,0,0
1,72,0,0
1,84,0,0
1,76,31,0
1,72,31,0
1,82,29,60
1,84,36,0
1,76,0,220
1,72,0,20
1,84,0,0
1,82,27,0
1,76,27,0
1,84,34,0
1,72,27,0
1,82,0,20
1,84,0,220
1,82,0,0
1,76,0,0
1,72,0,0
1,82,27,0
1,84,34,0
1,72,27,0
1,76,27,0
1,76,0,180
1,82,0,0
1,84,0,0
1,72,0,0
1,76,29,0
1,72,29,0
1,84,36,60
1,82,29,0
1,76,0,220
1,72,0,20
1,84,0,0
1,76,27,0
1,84,34,0
1,82,27,0
1,72,27,0
1,82,0,20
1,82,0,220
1,76,0,0
1,84,0,0
1,72,0,0
1,82,27,0
1,76,27,0
1,84,34,0
1,72,27,0
1,72,0,180
1,82,0,0
1,76,0,0
1,84,0,0
1,72,29,0
1,77,29,20
1,81,29,20
1,84,36,20
1,84,0,240
1,72,0,0
1,77,0,0
1,81,0,0
1,81,27,0
1,84,34,0
1,77,27,0
1,72,27,0
1,72,0,240
1,81,0,0
1,84,0,0
1,77,0,0
1,84,34,0
1,72,27,0
1,81,27,0
1,77,27,0
1,77,0,180
1,84,0,0
1,72,0,0
1,81,0,0
1,72,29,0
1,77,29,20
1,81,29,20
1,84,36,20
1,84,0,240
1,72,0,0
1,77,0,0
1,81,0,0
1,77,27,0
1,72,27,0
1,84,34,0
1,81,27,0
1,81,0,240
1,77,0,0
1,72,0,0
1,84,0,0
1,84,34,0
1,72,27,0
1,81,27,0
1,77,27,0
1,77,0,180
1,84,0,0
1,72,0,0
1,81,0,0
1,72,29,0
1,77,29,20
1,81,29,20
1,84,36,20
1,84,0,240
1,72,0,0
1,77,0,0
1,81,0,0
1,77,27,0
1,84,34,0
1,81,27,0
1,72,27,0
1,72,0,240
1,77,0,0
1,84,0,0
1,81,0,0
1,81,27,0
1,77,27,0
1,84,34,0
1,72,27,0
1,72,0,180
1,81,0,0
1,77,0,0
1,84,0,0
1,72,29,0
1,77,29,20
1,81,29,20
1,84,36,20
1,84,0,240
1,72,0,0
1,77,0,0
1,81,0,0
1,81,27,0
1,84,34,0
1,77,27,0
1,72,27,0
1,72,0,240
1,81,0,0
1,84,0,0
1,77,0,0
1,84,34,0
1,72,27,0
1,77,27,0
1,81,27,0
1,81,0,180
1,84,0,0
1,72,0,0
1,77,0,0
1,72,29,0
1,75,29,20
1,80,29,20
1,84,36,20
1,84,0,240
1,72,0,0
1,75,0,0
1,80,0,0
1,75,27,0
1,84,33,0
1,80,27,0
1,72,27,0
1,72,0,240
1,75,0,0
1,84,0,0
1,80,0,0
1,80,27,0
1,75,27,0
1,84,33,0
1,72,27,0
1,72,0,180
1,80,0,0
1,75,0,0
1,84,0,0
1,72,29,0
1,75,29,20
1,80,29,20
1,84,36,20
1,84,0,240
1,72,0,0
1,75,0,0
1,80,0,0
1,80,27,0
1,84,33,0
1,75,27,0
1,72,27,0
1,72,0,240
1,80,0,0
1,84,0,0
1,75,0,0
1,84,33,0
1,72,27,0
1,80,27,0
1,75,27,0
1,75,0,180
1,84,0,0
1,72,0,0
1,80,0,0
1,72,29,0
1,75,29,20
1,80,29,20
1,84,36,20
1,84,0,240
1,72,0,0
1,75,0,0
1,80,0,0
1,75,27,0
1,72,27,0
1,84,33,0
1,80,27,0
1,80,0,240
1,75,0,0
1,72,0,0
1,84,0,0
1,84,33,0
1,72,27,0
1,80,27,0
1,75,27,0
1,75,0,180
1,84,0,0
1,72,0,0
1,80,0,0
1,72,29,0
1,75,29,20
1,80,29,20
1,84,36,20
1,84,0,240
1,72,0,0
1,75,0,0
1,80,0,0
1,75,27,0
1,84,33,0
1,80,27,0
1,72,27,0
1,72,0,240
1,75,0,0
1,84,0,0
1,80,0,0
1,80,27,0
1,75,27,0
1,84,33,0
1,72,27,0
1,72,0,240
1,80,0,0
1,75,0,0
1,84,0,0
1,76,29,0
1,72,29,0
1,84,36,0
1,82,29,0
1,82,0,240
1,76,0,0
1,72,0,0
1,84,0,0
1,82,27,0
1,84,34,0
1,76,27,0
1,72,27,0
1,72,0,240
1,82,0,0
1,84,0,0
1,76,0,0
1,84,34,0
1,72,27,0
1,76,27,0
1,82,27,0
1,82,0,240
1,84,0,0
1,72,0,0
1,76,0,0
1,76,29,0
1,82,29,0
1,72,29,0
1,84,36,0
1,84,0,240
1,76,0,0
1,82,0,0
1,72,0,0
1,82,28,0
1,84,35,0
1,72,28,0
1,76,28,0
1,76,0,240
1,82,0,0
1,84,0,0
1,72,0,0
1,82,30,0
1,84,37,0
1,76,30,0
1,72,30,0
1,72,0,240
1,82,0,0
1,84,0,0
1,76,0,0
1,72,34,0
1,84,40,0
1,77,34,0
1,81,34,0
1,81,0,240
1,72,0,0
1,84,0,0
1,77,0,0
1,84,38,0
1,72,30,0
1,81,30,0
1,77,30,0
1,77,0,240
1,84,0,0
1,72,0,0
1,81,0,0
1,77,30,0
1,72,30,0
1,84,38,0
1,81,30,0
1,81,0,240
1,77,0,0
1,72,0,0
1,84,0,0
1,78,34,0
1,72,34,0
1,74,34,0
1,86,40,0
1,81,34,0
1,81,0,240
1,74,0,0
1,78,0,0
1,72,0,0
1,86,0,0
1,86,38,0
1,81,30,0
1,74,30,0
1,78,30,0
1,72,30,0
1,72,0,240
1,74,0,0
1,86,0,0
1,81,0,0
1,78,0,0
1,72,30,0
1,78,30,0
1,74,30,0
1,86,38,0
1,81,30,0
1,81,0,240
1,74,0,0
1,72,0,0
1,78,0,0
1,86,0,0
1,79,34,0
1,70,34,0
1,74,34,0
1,82,40,0
1,82,0,240
1,79,0,0
1,70,0,0
1,74,0,0
1,79,30,0
1,74,30,0
1,82,38,0
1,70,30,0
1,70,0,240
1,79,0,0
1,74,0,0
1,82,0,0
1,79,30,0
1,82,38,0
1,70,30,0
1,74,30,0
1,74,0,240
1,79,0,0
1,82,0,0
1,70,0,0
1,72,34,0
1,70,34,0
1,76,34,0
1,82,40,0
1,82,0,240
1,72,0,0
1,70,0,0
1,76,0,0
1,82,38,0
1,70,30,0
1,72,30,0
1,76,30,0
1,76,0,240
1,82,0,0
1,70,0,0
1,72,0,0
1,72,30,0
1,70,30,0
1,76,30,0
1,82,38,0
1,82,0,240
1,72,0,0
1,70,0,0
1,76,0,0
1,77,34,0
1,69,28,0
1,72,28,0
1,81,40,0
1,81,0,240
1,77,0,0
1,69,0,0
1,72,0,0
1,77,27,0
1,72,23,0
1,81,34,0
1,69,23,0
1,69,0,240
1,77,0,0
1,72,0,0
1,81,0,0
1,77,27,0
1,81,34,0
1,69,23,0
1,72,23,0
1,72,0,240
1,77,0,0
1,81,0,0
1,69,0,0
1,72,26,0
1,69,26,0
1,77,31,0
1,81,31,0
1,81,0,240
1,72,0,0
1,69,0,0
1,77,0,0
1,81,29,0
1,69,24,0
1,77,29,0
1,72,24,0
1,72,0,240
1,81,0,0
1,69,0,0
1,77,0,0
1,81,29,0
1,69,24,0
1,77,29,0
1,72,24,0
1,72,0,240
1,81,0,0
1,69,0,0
1,77,0,0
1,77,29,0
1,81,36,0
1,69,25,0
1,73,25,0
1,73,0,240
1,77,0,0
1,81,0,0
1,69,0,0
1,81,29,0
1,69,19,0
1,77,24,0
1,73,19,0
1,73,0,240
1,81,0,0
1,69,0,0
1,77,0,0
1,73,19,0
1,69,19,0
1,81,29,0
1,77,24,0
1,77,0,240
1,73,0,0
1,69,0,0
1,81,0,0
1,77,28,0
1,69,23,0
1,73,23,0
1,81,28,0
1,81,0,240
1,77,0,0
1,69,0,0
1,73,0,0
1,77,26,0
1,73,20,0
1,81,26,0
1,69,20,0
1,69,0,240
1,77,0,0
1,73,0,0
1,81,0,0
1,77,26,0
1,81,26,0
1,69,20,0
1,73,20,0
1,73,0,240
1,77,0,0
1,81,0,0
1,69,0,0
1,72,27,0
1,69,27,0
1,77,33,0
1,81,38,0
1,81,0,240
1,72,0,0
1,69,0,0
1,77,0,0
1,81,33,0
1,69,22,0
1,72,22,0
1,77,26,0
1,77,0,240
1,81,0,0
1,69,0,0
1,72,0,0
1,77,26,0
1,72,22,0
1,81,33,0
1,69,22,0
1,69,0,240
1,77,0,0
1,72,0,0
1,81,0,0
1,72,26,0
1,69,26,0
1,81,31,0
1,77,31,0
1,77,0,240
1,72,0,0
1,69,0,0
1,81,0,0
1,77,29,0
1,81,29,0
1,72,24,0
1,69,24,0
1,69,0,240
1,77,0,0
1,81,0,0
1,72,0,0
1,81,29,0
1,69,24,0
1,77,29,0
1,72,24,0
1,72,0,240
1,81,0,0
1,69,0,0
1,77,0,0
1,69,25,0
1,81,36,0
1,73,25,0
1,77,29,0
1,77,0,240
1,69,0,0
1,81,0,0
1,73,0,0
1,73,19,0
1,69,19,0
1,81,29,0
1,77,24,0
1,77,0,240
1,73,0,0
1,69,0,0
1,81,0,0
1,73,19,0
1,81,29,0
1,77,24,0
1,69,19,0
1,69,0,240
1,73,0,0
1,81,0,0
1,77,0,0
1,77,28,0
1,81,28,0
1,73,23,0
1,69,23,0
1,69,0,240
1,77,0,0
1,81,0,0
1,73,0,0
1,73,20,0
1,81,26,0
1,77,26,0
1,69,20,0
1,69,0,240
1,73,0,0
1,81,0,0
1,77,0,0
1,77,26,0
1,73,20,0
1,81,26,0
1,69,20,0
1,69,0,240
1,77,0,0
1,73,0,0
1,81,0,0
1,72,29,0
1,69,29,0
1,81,29,0
1,77,29,0
1,77,0,240
1,72,0,0
1,69,0,0
1,81,0,0
1,77,27,0
1,81,27,0
1,72,27,0
1,69,27,0
1,69,0,240
1,77,0,0
1,81,0,0
1,72,0,0
1,81,27,0
1,69,27,0
1,77,27,0
1,72,27,0
1,72,0,240
1,81,0,0
1,69,0,0
1,77,0,0
1,69,26,0
1,81,26,0
1,72,26,0
1,77,26,0
1,77,0,240
1,69,0,0
1,81,0,0
1,72,0,0
1,77,57,3360
1,77,0,720
1,76,55,0
1,76,0,480
1,72,52,0
1,72,0,240
1,84,58,5
1,84,0,715
1,79,53,120
1,79,0,120
1,80,56,0
1,80,0,120
1,82,50,0
1,82,0,60
1,80,41,0
1,80,0,30
1,82,41,0
1,82,0,30
1,80,49,0
1,80,0,120
1,79,50,0
1,79,0,120
1,84,53,0
1,84,0,120
1,77,53,0
1,77,0,120
1,79,56,0
1,79,0,120
1,80,50,0
1,80,0,60
1,79,44,0
1,79,0,30
1,80,41,0
1,80,0,30
1,79,52,0
1,79,0,120
1,77,50,0
1,77,0,120
1,76,53,0
1,76,0,120
1,72,53,0
1,72,0,120
1,71,56,0
1,71,0,120
1,72,50,0
1,72,0,120
1,75,52,0
1,75,0,120
1,73,50,0
1,73,0,120
