track,note,velocity,time
1,64,70,720
1,64,0,960
1,61,69,0
1,61,0,120
1,64,72,0
1,64,0,120
1,69,75,0
1,69,0,120
1,73,77,0
1,73,0,120
1,76,85,0
1,76,0,960
1,73,73,0
1,73,0,120
1,76,77,0
1,76,0,120
1,81,80,0
1,81,0,120
1,85,81,0
1,85,0,120
1,88,87,0
1,83,79,240
1,76,67,0
1,76,0,60
1,83,0,0
1,83,70,180
1,76,59,0
1,76,0,60
1,83,0,0
1,88,0,180
1,88,81,0
1,85,81,0
1,81,68,0
1,81,0,240
1,85,0,0
1,76,59,0
1,83,70,0
1,83,0,60
1,76,0,0
1,76,59,180
1,83,70,0
1,83,0,60
1,76,0,0
1,88,0,180
1,88,76,0
1,85,76,0
1,81,64,0
1,81,0,240
1,85,0,0
1,76,59,0
1,83,70,0
1,83,0,60
1,76,0,0
1,76,59,180
1,83,70,0
1,83,0,60
1,76,0,0
1,88,0,180
1,88,83,0
1,81,71,0
1,81,0,480
1,88,0,0
1,64,59,600
1,69,70,0
1,69,0,108
1,64,0,0
1,69,68,12
1,64,57,0
1,64,0,180
1,69,0,0
1,64,59,60
1,69,70,0
1,69,0,240
1,64,0,0
1,71,69,0
1,68,58,0
1,68,0,240
1,71,0,0
1,73,69,0
1,69,69,0
1,64,58,0
1,64,0,120
1,69,0,0
1,73,0,0
1,73,73,120
1,69,73,0
1,64,62,0
1,64,0,480
1,69,0,0
1,73,0,0
1,73,65,0
1,69,55,0
1,69,0,180
1,73,0,0
1,69,59,60
1,73,70,0
1,73,0,240
1,69,0,0
1,74,66,0
1,71,56,0
1,71,0,240
1,74,0,0
1,76,64,0
1,73,54,0
1,69,54,0
1,69,0,120
1,73,0,0
1,76,0,0
1,76,78,120
1,73,66,0
1,69,66,0
1,69,0,360
1,73,0,0
1,76,0,0
1,74,59,0
1,78,70,0
1,78,0,108
1,74,0,0
1,74,62,12
1,78,73,0
1,78,0,180
1,74,0,0
1,81,80,60
1,78,68,0
1,69,68,0
1,69,0,360
1,78,0,0
1,81,0,0
1,78,61,0
1,81,72,0
1,81,0,108
1,78,0,0
1,81,72,12
1,78,61,0
1,78,0,180
1,81,0,0
1,69,66,60
1,78,66,0
1,81,78,0
1,81,0,240
1,78,0,0
1,69,0,0
1,80,66,0
1,76,56,0
1,76,0,240
1,80,0,0
1,78,66,0
1,74,56,0
1,74,0,120
1,78,0,0
1,78,76,120
1,74,64,0
1,69,64,0
1,69,0,720
1,74,0,0
1,78,0,0
1,76,66,0
1,73,56,0
1,73,0,240
1,76,0,0
1,64,59,120
1,69,70,0
1,69,0,108
1,64,0,0
1,69,68,12
1,64,57,0
1,64,0,180
1,69,0,0
1,64,59,60
1,69,70,0
1,69,0,240
1,64,0,0
1,71,69,0
1,68,58,0
1,68,0,240
1,71,0,0
1,73,69,0
1,69,69,0
1,64,58,0
1,64,0,120
1,69,0,0
1,73,0,0
1,73,73,120
1,69,73,0
1,64,62,0
1,64,0,480
1,69,0,0
1,73,0,0
1,73,65,0
1,69,55,0
1,69,0,180
1,73,0,0
1,69,59,60
1,73,70,0
1,73,0,240
1,69,0,0
1,74,66,0
1,71,56,0
1,71,0,240
1,74,0,0
1,76,64,0
1,73,54,0
1,69,54,0
1,69,0,120
1,73,0,0
1,76,0,0
1,76,78,120
1,73,66,0
1,69,66,0
1,69,0,360
1,73,0,0
1,76,0,0
1,73,44,0
1,78,52,0
1,78,0,108
1,73,0,0
1,73,46,12
1,78,54,0
1,78,0,180
1,73,0,0
1,81,60,60
1,73,51,0
1,73,0,360
1,81,0,0
1,73,45,0
1,81,54,0
1,81,0,108
1,73,0,0
1,81,54,12
1,73,45,0
1,73,0,180
1,81,0,0
1,73,51,60
1,81,60,0
1,81,0,240
1,80,60,0
1,80,0,240
1,78,60,0
1,78,0,240
1,85,60,0
1,85,0,240
1,81,60,0
1,81,0,240
1,80,55,0
1,80,0,240
1,78,55,0
1,78,0,360
1,73,0,0
1,73,45,0
1,78,54,0
1,78,0,108
1,73,0,0
1,78,54,12
1,73,45,0
1,73,0,180
1,78,0,0
1,73,51,60
1,81,60,0
1,81,0,360
1,81,54,0
1,81,0,108
1,81,54,12
1,81,0,180
1,81,60,60
1,81,0,240
1,80,60,0
1,80,0,240
1,78,60,0
1,78,0,240
1,85,60,0
1,85,0,240
1,81,60,0
1,81,0,240
1,80,55,0
1,80,0,240
1,78,55,0
1,78,0,240
1,73,0,0
1,83,83,0
1,71,70,0
1,71,0,120
1,83,0,0
1,71,66,120
1,83,78,0
1,83,0,120
1,71,0,0
1,71,74,120
1,83,88,0
1,83,0,720
1,71,0,0
1,71,71,0
1,83,84,0
1,83,0,720
1,71,0,0
1,71,86,0
1,83,86,0
1,71,0,360
1,71,71,0
1,71,0,108
1,71,71,12
1,71,0,120
1,71,85,120
1,71,0,240
1,83,0,0
1,76,58,0
1,71,49,0
1,71,0,120
1,76,0,0
1,71,45,120
1,76,53,0
1,76,0,120
1,71,0,0
1,76,62,120
1,71,52,0
1,71,0,240
1,76,0,0
1,75,45,0
1,78,53,0
1,78,0,240
1,75,0,0
1,80,49,0
1,76,41,0
1,76,0,120
1,80,0,0
1,80,53,120
1,76,45,0
1,76,0,480
1,80,0,0
1,80,55,0
1,76,46,0
1,76,0,120
1,80,0,0
1,80,78,120
1,76,66,0
1,76,0,240
1,80,0,0
1,85,68,0
1,85,0,240
1,88,71,0
1,88,0,120
1,88,79,120
1,88,0,360
1,76,72,0
1,73,61,0
1,73,0,108
1,76,0,0
1,76,75,12
1,73,63,0
1,73,0,120
1,76,0,0
1,76,81,120
1,71,69,0
1,71,0,240
1,76,0,0
1,75,59,0
1,78,70,0
1,78,0,240
1,75,0,0
1,80,66,0
1,76,55,0
1,76,0,120
1,80,0,0
1,80,72,120
1,76,61,0
1,76,0,480
1,80,0,0
1,80,77,0
1,76,63,0
1,76,0,120
1,80,0,0
1,80,96,120
1,76,82,0
1,76,0,240
1,80,0,0
1,85,85,0
1,85,0,240
1,88,91,0
1,88,0,120
1,88,102,120
1,88,0,360
1,76,83,0
1,73,70,0
1,73,0,108
1,76,0,0
1,76,86,12
1,73,73,0
1,73,0,120
1,76,0,0
1,76,83,120
1,71,70,0
1,71,0,360
1,76,0,0
1,78,88,0
1,78,0,120
1,80,81,0
1,80,0,120
1,80,97,120
1,76,82,0
1,76,0,240
1,80,0,0
1,83,85,0
1,83,0,240
1,88,90,0
1,88,0,120
1,81,95,120
1,76,95,0
1,88,112,0
1,88,0,960
1,76,0,0
1,81,0,0
1,87,78,0
1,87,0,120
1,85,72,120
1,85,0,120
1,83,80,120
1,83,0,120
1,81,68,120
1,81,0,120
1,80,61,120
1,80,0,120
1,81,72,120
1,81,0,120
1,78,62,120
1,78,0,120
1,75,62,120
1,75,0,120
1,95,81,120
1,83,68,0
1,83,0,960
1,95,0,0
1,81,59,0
1,93,70,0
1,93,0,120
1,81,0,0
1,80,59,120
1,92,70,0
1,92,0,120
1,80,0,0
1,90,79,120
1,78,67,0
1,78,0,120
1,90,0,0
1,76,59,120
1,88,70,0
1,88,0,120
1,76,0,0
1,75,59,120
1,87,70,0
1,87,0,120
1,75,0,0
1,85,76,120
1,73,64,0
1,73,0,120
1,85,0,0
1,71,59,120
1,83,70,0
1,83,0,120
1,71,0,0
1,70,59,120
1,82,70,0
1,82,0,120
1,70,0,0
1,80,78,120
1,68,66,0
1,68,0,120
1,80,0,0
1,78,64,120
1,66,54,0
1,66,0,120
1,78,0,0
1,76,64,120
1,64,54,0
1,64,0,120
1,76,0,0
1,75,70,120
1,63,59,0
1,63,0,120
1,75,0,0
1,76,61,120
1,64,51,0
1,64,0,120
1,76,0,0
1,73,61,120
1,61,51,0
1,61,0,120
1,73,0,0
1,71,69,120
1,59,58,0
1,59,0,120
1,71,0,0
1,76,53,120
1,64,45,0
1,64,0,120
1,76,0,0
1,68,53,120
1,64,45,0
1,64,0,120
1,68,0,0
1,71,62,120
1,63,52,0
1,63,0,120
1,71,0,0
1,69,45,120
1,63,38,0
1,63,0,120
1,69,0,0
1,66,45,120
1,63,38,0
1,63,0,120
1,66,0,0
1,64,57,120
1,64,0,240
1,64,59,840
1,69,70,0
1,69,0,108
1,64,0,0
1,69,68,12
1,64,57,0
1,64,0,180
1,69,0,0
1,64,59,60
1,69,70,0
1,69,0,240
1,64,0,0
1,71,69,0
1,68,58,0
1,68,0,240
1,71,0,0
1,73,69,0
1,69,69,0
1,64,58,0
1,64,0,120
1,69,0,0
1,73,0,0
1,73,73,120
1,69,73,0
1,64,62,0
1,64,0,480
1,69,0,0
1,73,0,0
1,73,65,0
1,69,55,0
1,69,0,180
1,73,0,0
1,69,59,60
1,73,70,0
1,73,0,240
1,69,0,0
1,74,66,0
1,71,56,0
1,71,0,240
1,74,0,0
1,76,64,0
1,73,54,0
1,69,54,0
1,69,0,120
1,73,0,0
1,76,0,0
1,76,78,120
1,73,66,0
1,69,66,0
1,69,0,360
1,73,0,0
1,76,0,0
1,74,59,0
1,78,70,0
1,78,0,108
1,74,0,0
1,74,62,12
1,78,73,0
1,78,0,180
1,74,0,0
1,81,80,60
1,78,68,0
1,69,68,0
1,69,0,360
1,78,0,0
1,81,0,0
1,78,61,0
1,81,72,0
1,81,0,108
1,78,0,0
1,81,72,12
1,78,61,0
1,78,0,180
1,81,0,0
1,69,66,60
1,78,66,0
1,81,78,0
1,81,0,240
1,78,0,0
1,69,0,0
1,80,66,0
1,76,56,0
1,76,0,240
1,80,0,0
1,78,66,0
1,74,56,0
1,74,0,120
1,78,0,0
1,78,76,120
1,74,64,0
1,69,64,0
1,69,0,720
1,74,0,0
1,78,0,0
1,76,66,0
1,73,56,0
1,73,0,240
1,76,0,0
1,64,59,120
1,69,70,0
1,69,0,108
1,64,0,0
1,69,68,12
1,64,57,0
1,64,0,180
1,69,0,0
1,64,59,60
1,69,70,0
1,69,0,240
1,64,0,0
1,71,69,0
1,68,58,0
1,68,0,240
1,71,0,0
1,73,69,0
1,69,69,0
1,64,58,0
1,64,0,120
1,69,0,0
1,73,0,0
1,73,73,120
1,69,73,0
1,64,62,0
1,64,0,480
1,69,0,0
1,73,0,0
1,73,65,0
1,69,55,0
1,69,0,180
1,73,0,0
1,69,59,60
1,73,70,0
1,73,0,240
1,69,0,0
1,74,66,0
1,71,56,0
1,71,0,240
1,74,0,0
1,76,64,0
1,73,54,0
1,69,54,0
1,69,0,120
1,73,0,0
1,76,0,0
1,76,78,120
1,73,66,0
1,69,66,0
1,69,0,360
1,73,0,0
1,76,0,0
1,73,44,0
1,78,52,0
1,78,0,108
1,73,0,0
1,73,46,12
1,78,54,0
1,78,0,180
1,73,0,0
1,81,60,60
1,73,51,0
1,73,0,360
1,81,0,0
1,73,45,0
1,81,54,0
1,81,0,108
1,73,0,0
1,81,54,12
1,73,45,0
1,73,0,180
1,81,0,0
1,73,51,60
1,81,60,0
1,81,0,240
1,80,60,0
1,80,0,240
1,78,60,0
1,78,0,240
1,85,60,0
1,85,0,240
1,81,60,0
1,81,0,240
1,80,55,0
1,80,0,240
1,78,55,0
1,78,0,360
1,73,0,0
1,73,45,0
1,78,54,0
1,78,0,108
1,73,0,0
1,78,54,12
1,73,45,0
1,73,0,180
1,78,0,0
1,73,51,60
1,81,60,0
1,81,0,360
1,81,54,0
1,81,0,108
1,81,54,12
1,81,0,180
1,81,60,60
1,81,0,240
1,80,60,0
1,80,0,240
1,78,60,0
1,78,0,240
1,85,60,0
1,85,0,240
1,81,60,0
1,81,0,240
1,80,55,0
1,80,0,240
1,78,55,0
1,78,0,240
1,73,0,0
1,83,83,0
1,71,70,0
1,71,0,120
1,83,0,0
1,71,66,120
1,83,78,0
1,83,0,120
1,71,0,0
1,71,74,120
1,83,88,0
1,83,0,720
1,71,0,0
1,71,71,0
1,83,84,0
1,83,0,720
1,71,0,0
1,71,86,0
1,83,86,0
1,71,0,360
1,71,71,0
1,71,0,108
1,71,71,12
1,71,0,120
1,71,85,120
1,71,0,240
1,83,0,0
1,76,58,0
1,71,49,0
1,71,0,120
1,76,0,0
1,71,45,120
1,76,53,0
1,76,0,120
1,71,0,0
1,76,62,120
1,71,52,0
1,71,0,240
1,76,0,0
1,75,45,0
1,78,53,0
1,78,0,240
1,75,0,0
1,80,49,0
1,76,41,0
1,76,0,120
1,80,0,0
1,80,53,120
1,76,45,0
1,76,0,480
1,80,0,0
1,80,55,0
1,76,46,0
1,76,0,120
1,80,0,0
1,80,78,120
1,76,66,0
1,76,0,240
1,80,0,0
1,85,68,0
1,85,0,240
1,88,71,0
1,88,0,120
1,88,79,120
1,88,0,360
1,76,72,0
1,73,61,0
1,73,0,108
1,76,0,0
1,76,75,12
1,73,63,0
1,73,0,120
1,76,0,0
1,76,81,120
1,71,69,0
1,71,0,240
1,76,0,0
1,75,59,0
1,78,70,0
1,78,0,240
1,75,0,0
1,80,66,0
1,76,55,0
1,76,0,120
1,80,0,0
1,80,72,120
1,76,61,0
1,76,0,480
1,80,0,0
1,80,77,0
1,76,63,0
1,76,0,120
1,80,0,0
1,80,96,120
1,76,82,0
1,76,0,240
1,80,0,0
1,85,85,0
1,85,0,240
1,88,91,0
1,88,0,120
1,88,102,120
1,88,0,360
1,76,83,0
1,73,70,0
1,73,0,108
1,76,0,0
1,76,86,12
1,73,73,0
1,73,0,120
1,76,0,0
1,76,83,120
1,71,70,0
1,71,0,360
1,76,0,0
1,78,88,0
1,78,0,120
1,80,81,0
1,80,0,120
1,80,97,120
1,76,82,0
1,76,0,240
1,80,0,0
1,83,85,0
1,83,0,240
1,88,90,0
1,88,0,120
1,81,95,120
1,76,95,0
1,88,112,0
1,88,0,960
1,76,0,0
1,81,0,0
1,87,78,0
1,87,0,120
1,85,72,120
1,85,0,120
1,83,80,120
1,83,0,120
1,81,68,120
1,81,0,120
1,80,61,120
1,80,0,120
1,81,72,120
1,81,0,120
1,78,62,120
1,78,0,120
1,75,62,120
1,75,0,120
1,95,81,120
1,83,68,0
1,83,0,960
1,95,0,0
1,81,59,0
1,93,70,0
1,93,0,120
1,81,0,0
1,80,59,120
1,92,70,0
1,92,0,120
1,80,0,0
1,90,79,120
1,78,67,0
1,78,0,120
1,90,0,0
1,76,59,120
1,88,70,0
1,88,0,120
1,76,0,0
1,75,59,120
1,87,70,0
1,87,0,120
1,75,0,0
1,85,76,120
1,73,64,0
1,73,0,120
1,85,0,0
1,71,59,120
1,83,70,0
1,83,0,120
1,71,0,0
1,70,59,120
1,82,70,0
1,82,0,120
1,70,0,0
1,80,78,120
1,68,66,0
1,68,0,120
1,80,0,0
1,78,64,120
1,66,54,0
1,66,0,120
1,78,0,0
1,76,64,120
1,64,54,0
1,64,0,120
1,76,0,0
1,75,70,120
1,63,59,0
1,63,0,120
1,75,0,0
1,76,61,120
1,64,51,0
1,64,0,120
1,76,0,0
1,73,61,120
1,61,51,0
1,61,0,120
1,73,0,0
1,71,69,120
1,59,58,0
1,59,0,120
1,71,0,0
1,76,53,120
1,64,45,0
1,64,0,120
1,76,0,0
1,68,53,120
1,64,45,0
1,64,0,120
1,68,0,0
1,71,62,120
1,63,52,0
1,63,0,120
1,71,0,0
1,69,45,120
1,63,38,0
1,63,0,120
1,69,0,0
1,66,45,120
1,63,38,0
1,63,0,120
1,66,0,0
1,64,57,120
1,64,0,240
1,68,70,480
1,80,83,0
1,80,0,713
1,68,0,0
1,68,74,7
1,80,88,0
1,80,0,713
1,68,0,0
1,68,71,7
1,80,84,0
1,68,0,230
1,80,0,483
1,80,78,7
1,68,66,0
1,68,0,240
1,80,0,0
1,69,63,0
1,81,75,0
1,81,0,240
1,69,0,0
1,68,61,0
1,80,72,0
1,80,0,120
1,68,0,0
1,68,66,120
1,80,78,0
1,80,0,120
1,68,0,0
1,68,59,120
1,80,70,0
1,80,0,120
1,68,0,0
1,68,59,120
1,80,70,0
1,80,0,120
1,68,0,0
1,68,74,120
1,80,88,0
