track,note,velocity,time
0,62,115,0
0,74,61,0
0,67,115,72
0,69,115,32
0,55,67,0
0,59,79,40
0,62,79,24
0,36,91,8
0,42,96,0
0,49,90,0
0,43,101,0
0,67,55,0
0,59,55,0
0,62,55,0
0,55,106,0
0,62,88,0
0,59,88,0
0,67,88,0
0,67,106,8
0,67,55,8
0,62,55,0
0,59,55,0
0,42,80,0
0,67,55,0
0,59,55,0
0,62,55,0
0,67,55,0
0,59,55,0
0,62,55,0
0,40,117,0
0,42,96,0
0,59,100,0
0,62,100,0
0,67,100,0
0,42,80,40
0,62,55,0
0,59,55,0
0,67,55,0
0,40,68,0
0,38,105,0
0,62,55,0
0,59,55,0
0,67,55,0
0,42,95,16
0,43,100,0
0,72,115,0
0,36,91,32
0,38,105,0
0,62,55,0
0,59,55,0
0,67,55,0
0,69,115,0
0,36,91,0
0,42,80,0
0,43,106,0
0,59,55,0
0,62,55,0
0,67,55,0
0,59,55,0
0,62,55,0
0,67,55,0
0,67,115,0
0,40,117,0
0,42,95,0
0,67,100,0
0,62,100,0
0,59,100,0
0,69,115,0
0,72,95,0
0,84,61,0
0,42,80,8
0,38,100,0
0,62,79,0
0,59,71,0
0,67,79,0
0,55,97,4
0,59,88,0
0,62,79,8
0,67,88,0
0,43,100,0
0,59,59,0
0,67,71,0
0,62,79,0
0,54,67,8
0,57,79,24
0,62,88,0
0,66,88,0
0,36,91,8
0,42,96,0
0,42,105,0
0,66,55,0
0,62,55,0
0,57,55,0
0,64,95,0
0,62,88,4
0,57,97,0
0,66,106,0
0,62,55,0
0,66,55,0
0,57,95,0
0,42,80,0
0,66,55,0
0,62,55,0
0,57,95,0
0,66,55,0
0,62,55,0
0,57,55,0
0,40,117,0
0,42,96,0
0,66,100,0
0,62,100,0
0,57,100,0
0,42,80,0
0,62,55,0
0,66,55,0
0,57,55,0
0,40,68,8
0,38,100,0
0,66,55,0
0,62,55,0
0,57,55,0
0,42,95,0
0,42,105,0
0,71,95,0
0,68,115,0
0,83,61,0
0,36,91,32
0,38,100,0
0,66,55,0
0,62,55,0
0,57,55,0
0,36,91,8
0,42,80,0
0,42,101,0
0,66,55,0
0,62,55,0
0,57,55,0
0,40,117,40
0,42,95,0
0,66,100,0
0,62,100,0
0,57,100,0
0,74,124,4
0,62,124,0
0,76,97,72
0,64,97,0
0,42,80,0
0,38,100,0
0,66,55,0
0,62,55,0
0,57,55,0
0,79,88,4
0,67,88,0
0,42,105,0
0,81,88,0
0,69,88,0
0,62,55,0
0,57,55,0
0,66,55,0
0,52,63,16
0,55,79,0
0,59,79,0
0,36,91,0
0,42,96,0
0,40,101,0
0,52,88,0
0,79,95,0
0,55,45,0
0,59,45,0
0,64,45,0
0,64,115,0
0,76,61,0
0,64,106,0
0,67,106,0
0,59,106,0
0,64,106,0
0,59,45,0
0,55,45,0
0,64,45,0
0,42,80,0
0,64,45,0
0,59,45,0
0,55,45,0
0,64,45,0
0,59,45,0
0,55,45,0
0,40,117,0
0,42,96,0
0,64,100,0
0,59,100,0
0,55,100,0
0,66,115,0
0,35,101,48
0,42,80,16
0,31,105,0
0,59,88,0
0,55,75,0
0,64,75,0
0,40,68,32
0,28,100,0
0,55,88,0
0,59,97,0
0,64,88,0
0,42,95,16
0,40,101,0
0,67,115,0
0,36,91,40
0,64,45,0
0,59,45,0
0,55,45,0
0,36,91,0
0,42,80,0
0,64,45,0
0,59,45,0
0,55,45,0
0,66,115,0
0,59,45,0
0,55,45,0
0,64,45,0
0,40,117,0
0,42,95,0
0,55,97,0
0,59,106,0
0,64,97,0
0,64,115,0
0,79,115,0
0,67,115,0
0,81,106,0
0,69,106,0
0,42,80,8
0,64,79,0
0,59,88,0
0,55,88,0
0,62,95,0
0,79,97,4
0,67,97,0
0,78,106,0
0,66,106,0
0,55,67,0
0,59,75,0
0,64,67,0
0,55,75,16
0,60,97,24
0,36,91,0
0,42,96,0
0,36,105,0
0,48,88,0
0,64,88,0
0,60,97,0
0,79,106,0
0,60,115,0
0,55,88,0
0,64,106,0
0,60,95,0
0,64,115,0
0,67,106,0
0,64,106,0
0,60,79,8
0,64,67,0
0,55,71,0
0,42,80,8
0,64,71,0
0,60,79,0
0,55,79,0
0,36,55,0
0,64,47,0
0,60,71,0
0,55,63,0
0,36,100,0
0,40,117,0
0,42,96,0
0,43,100,0
0,64,97,0
0,60,106,0
0,55,97,0
0,60,97,0
0,55,88,0
0,64,106,0
0,72,115,0
0,62,95,0
0,67,95,0
0,79,61,0
0,67,106,8
0,64,97,0
0,60,106,0
0,72,106,8
0,60,71,0
0,55,71,0
0,64,51,0
0,36,100,8
0,42,80,0
0,49,90,0
0,24,100,0
0,36,100,0
0,58,97,0
0,62,97,0
0,62,97,0
0,58,97,0
0,53,88,0
0,70,106,0
0,65,88,0
0,62,88,0
0,58,97,0
0,53,88,0
0,46,96,32
0,40,117,16
0,42,95,0
0,74,124,0
0,62,75,0
0,58,75,0
0,62,124,4
0,53,75,0
0,36,100,0
0,76,115,0
0,64,115,0
0,62,75,0
0,58,75,0
0,53,75,0
0,79,106,0
0,67,106,0
0,42,85,0
0,62,75,0
0,58,75,0
0,53,75,0
0,81,115,8
0,69,115,0
0,55,63,8
0,59,71,8
0,62,79,0
0,36,91,0
0,42,96,0
0,43,110,0
0,83,95,0
0,55,79,0
0,67,55,0
0,59,55,0
0,62,55,0
0,67,97,0
0,69,95,0
0,65,95,0
0,81,61,0
0,62,106,0
0,67,115,0
0,71,106,0
0,67,55,0
0,62,55,0
0,59,55,0
0,42,80,0
0,67,55,0
0,59,55,0
0,62,55,0
0,67,55,0
0,59,55,0
0,62,55,0
0,40,117,0
0,42,96,0
0,59,100,0
0,62,100,0
0,67,100,0
0,42,80,16
0,62,55,0
0,59,55,0
0,67,55,0
0,40,68,0
0,38,105,0
0,62,55,0
0,59,55,0
0,67,55,0
0,42,95,0
0,43,101,0
0,79,115,0
0,36,91,32
0,45,100,0
0,62,55,0
0,59,55,0
0,67,55,0
0,78,115,0
0,36,91,0
0,42,80,0
0,43,105,0
0,59,55,0
0,62,55,0
0,67,55,0
0,76,115,24
0,59,55,0
0,62,55,0
0,67,55,0
0,40,117,0
0,42,95,0
0,67,100,0
0,62,100,0
0,59,100,0
0,74,115,0
0,62,115,0
0,71,115,8
0,69,106,0
0,42,80,8
0,45,100,0
0,62,79,0
0,59,71,0
0,67,79,0
0,72,115,0
0,67,124,12
0,43,100,0
0,67,71,0
0,59,59,0
0,62,79,0
0,54,71,16
0,57,88,0
0,62,88,0
0,36,91,0
0,42,96,0
0,42,105,0
0,54,106,0
0,66,55,0
0,62,55,0
0,57,55,0
0,66,79,0
0,69,95,0
0,64,95,0
0,74,115,0
0,81,61,0
0,62,106,0
0,66,115,0
0,69,97,0
0,62,55,0
0,66,55,0
0,57,95,0
0,42,80,0
0,66,55,0
0,62,55,0
0,57,95,0
0,66,55,0
0,62,55,0
0,57,55,0
0,40,117,0
0,42,96,0
0,66,100,0
0,62,100,0
0,57,100,0
0,42,80,24
0,62,55,0
0,66,55,0
0,57,55,0
0,40,68,0
0,38,105,0
0,66,55,0
0,62,55,0
0,57,55,0
0,42,95,0
0,42,101,0
0,66,85,0
0,80,61,0
0,36,91,32
0,45,100,0
0,66,55,0
0,62,55,0
0,57,55,0
0,36,91,0
0,42,80,0
0,42,101,0
0,66,55,0
0,62,55,0
0,57,55,0
0,40,117,24
0,42,95,0
0,66,100,0
0,62,100,0
0,57,100,0
0,74,124,4
0,62,124,0
0,64,88,40
0,76,88,0
0,42,80,24
0,46,105,0
0,43,105,0
0,66,55,0
0,62,55,0
0,57,55,0
0,79,124,0
0,67,124,0
0,42,105,0
0,62,55,0
0,57,55,0
0,66,55,0
0,76,105,16
0,64,105,0
0,52,63,24
0,55,75,0
0,59,88,8
0,36,91,0
0,42,96,0
0,40,100,0
0,52,97,0
0,79,95,0
0,55,45,0
0,59,45,0
0,64,45,0
0,78,61,0
0,67,106,0
0,59,106,0
0,64,115,0
0,64,106,0
0,59,45,0
0,55,45,0
0,64,45,0
0,42,80,0
0,64,45,0
0,59,45,0
0,55,45,0
0,64,45,8
0,59,45,0
0,55,45,0
0,40,117,0
0,42,96,0
0,49,81,0
0,64,100,0
0,59,100,0
0,55,100,0
0,35,105,40
0,42,80,16
0,31,105,0
0,59,88,0
0,55,75,0
0,64,75,0
0,71,115,0
0,40,68,8
0,28,100,0
0,55,88,0
0,59,97,0
0,64,88,0
0,42,95,16
0,40,100,0
0,69,115,0
0,36,91,8
0,64,45,0
0,59,45,0
0,55,45,0
0,36,91,0
0,42,80,0
0,64,45,0
0,59,45,0
0,55,45,0
0,59,45,0
0,55,45,0
0,64,45,0
0,40,117,8
0,42,95,0
0,49,81,0
0,38,110,0
0,55,97,0
0,59,106,0
0,64,97,0
0,67,115,0
0,66,88,0
0,64,97,0
0,59,97,0
0,59,88,16
0,67,79,16
0,42,80,8
0,64,79,0
0,59,88,0
0,55,88,0
0,66,115,0
0,66,115,20
0,59,97,0
0,55,67,8
0,59,75,0
0,64,67,0
0,55,67,40
0,60,88,0
0,64,88,8
0,36,91,0
0,42,96,0
0,36,105,0
0,48,88,0
0,64,88,0
0,60,97,0
0,55,88,0
0,60,106,4
0,67,106,0
0,64,106,0
0,62,95,0
0,58,95,0
0,67,115,0
0,74,61,0
0,60,79,0
0,64,67,0
0,55,71,0
0,42,80,0
0,64,71,0
0,60,79,0
0,55,79,0
0,36,55,0
0,64,47,0
0,60,71,0
0,55,63,0
0,40,117,0
0,43,105,0
0,64,97,0
0,60,106,0
0,55,97,0
0,67,95,0
0,72,115,0
0,79,61,0
0,55,106,0
0,60,97,0
0,64,106,0
0,62,95,0
0,60,71,0
0,55,71,0
0,64,51,0
0,36,100,0
0,49,81,0
0,24,100,0
0,36,101,0
0,62,97,0
0,58,97,0
0,62,97,0
0,58,97,0
0,53,97,0
0,70,106,0
0,65,79,8
0,62,88,0
0,58,115,0
0,53,88,0
0,42,95,128
0,42,95,4
0,47,101,0
0,47,101,4
0,43,101,4
0,55,112,0
0,43,110,0
0,36,91,0
0,42,96,0
0,43,101,0
0,67,55,0
0,59,55,0
0,62,55,0
0,58,94,0
0,59,85,0
0,67,55,4
0,62,55,0
0,59,55,0
0,42,80,0
0,67,55,0
0,59,55,0
0,62,55,0
0,62,112,0
0,67,55,8
0,59,55,0
0,62,55,0
0,37,101,0
0,42,96,0
0,67,100,0
0,62,100,0
0,59,100,0
0,42,80,12
0,62,55,0
0,59,55,0
0,67,55,0
0,37,101,4
0,62,55,0
0,59,55,0
0,67,55,0
0,42,95,4
0,36,91,8
0,62,55,0
0,59,55,0
0,67,55,0
0,36,91,8
0,42,80,0
0,59,55,0
0,62,55,0
0,67,55,0
0,59,55,0
0,62,55,0
0,67,55,0
0,37,101,0
0,42,95,0
0,67,100,0
0,62,100,0
0,59,100,0
0,59,85,0
0,62,94,0
0,42,80,16
0,62,79,0
0,59,71,0
0,67,79,0
0,62,94,4
0,67,71,0
0,59,59,0
0,62,79,0
0,59,94,0
0,36,91,0
0,42,96,0
0,42,110,0
0,66,55,0
0,62,55,0
0,57,55,0
0,64,112,0
0,62,55,0
0,66,55,0
0,57,95,0
0,42,80,4
0,66,55,0
0,62,55,0
0,57,95,0
0,62,103,0
0,66,55,0
0,62,55,0
0,57,55,0
0,59,83,4
0,37,101,0
0,42,96,0
0,66,100,0
0,62,100,0
0,57,100,0
0,57,94,0
0,42,80,24
0,62,55,0
0,66,55,0
0,57,55,0
0,37,101,8
0,66,55,0
0,62,55,0
0,57,55,0
0,42,95,4
0,36,91,4
0,66,55,0
0,62,55,0
0,57,55,0
0,36,91,0
0,42,80,0
0,66,55,0
0,62,55,0
0,57,55,0
0,50,94,0
0,52,76,4
0,37,101,8
0,42,95,0
0,66,100,0
0,62,100,0
0,57,100,0
0,55,103,0
0,55,94,0
0,42,80,12
0,66,55,0
0,62,55,0
0,57,55,0
0,55,85,0
0,62,55,0
0,57,55,0
0,66,55,0
0,52,76,0
0,36,91,0
0,42,96,0
0,40,110,0
0,55,45,0
0,59,45,0
0,64,45,0
0,59,103,0
0,59,45,0
0,55,45,0
0,64,45,0
0,59,85,0
0,42,80,8
0,64,45,0
0,59,45,0
0,55,45,0
0,59,103,4
0,64,45,0
0,59,45,0
0,55,45,0
0,37,101,0
0,42,96,0
0,64,100,0
0,59,100,0
0,55,100,0
0,42,80,24
0,59,88,0
0,55,75,0
0,64,75,0
0,37,101,8
0,64,88,0
0,59,97,0
0,55,88,0
0,42,95,4
0,36,91,8
0,64,45,0
0,59,45,0
0,55,45,0
0,36,91,8
0,42,80,0
0,64,45,0
0,59,45,0
0,55,45,0
0,52,103,0
0,59,45,4
0,55,45,0
0,64,45,0
0,55,85,0
0,37,101,4
0,42,95,0
0,55,97,0
0,59,106,0
0,64,97,0
0,59,112,0
0,57,85,0
0,42,80,0
0,64,79,0
0,59,88,0
0,55,88,0
0,55,103,0
0,59,75,0
0,64,67,0
0,55,67,0
0,52,94,0
0,36,91,0
0,42,96,0
0,36,110,0
0,64,88,0
0,60,97,0
0,55,88,0
0,55,112,0
0,60,79,4
0,64,67,0
0,55,71,0
0,42,80,8
0,64,71,0
0,60,79,0
0,55,79,0
0,64,47,0
0,60,71,0
0,55,63,8
0,52,103,4
0,37,101,8
0,42,96,0
0,64,97,0
0,60,106,0
0,55,97,0
0,64,124,0
0,67,115,0
0,79,81,0
0,72,106,8
0,60,71,0
0,55,71,0
0,64,51,0
0,36,100,0
0,46,96,0
0,42,80,0
0,36,101,0
0,58,105,0
0,62,105,0
0,53,105,0
0,42,95,24
0,37,101,4
0,42,80,8
0,62,55,0
0,58,55,0
0,53,55,0
0,62,55,0
0,58,55,0
0,53,55,0
0,37,101,0
0,42,95,0
0,58,75,0
0,62,75,0
0,53,75,4
0,58,75,0
0,62,75,0
0,53,75,0
0,42,80,8
0,62,75,0
0,53,75,0
0,58,95,0
0,55,112,0
0,62,55,0
0,58,55,0
0,53,55,0
0,36,91,0
0,42,96,0
0,43,101,0
0,67,55,0
0,59,55,0
0,62,55,0
0,58,94,0
0,61,63,0
0,69,115,0
0,64,67,0
0,76,33,0
0,59,85,24
0,67,55,0
0,62,55,0
0,59,55,0
0,42,80,8
0,67,55,0
0,59,55,0
0,62,55,0
0,62,112,0
0,67,55,0
0,59,55,0
0,62,55,0
0,37,101,0
0,42,96,0
0,67,100,0
0,62,100,0
0,59,100,0
0,62,55,8
0,42,80,8
0,59,55,0
0,67,55,0
0,69,106,4
0,72,97,0
0,37,101,0
0,62,55,0
0,59,55,0
0,67,55,0
0,71,59,0
0,67,79,0
0,42,95,8
0,72,79,0
0,69,97,0
0,36,91,0
0,62,55,0
0,59,55,0
0,67,55,0
0,71,88,0
0,74,97,4
0,36,91,0
0,42,80,0
0,59,55,0
0,62,55,0
0,67,55,0
0,59,55,4
0,62,55,0
0,67,55,0
0,37,101,0
0,42,95,0
0,67,100,0
0,62,100,0
0,59,100,0
0,59,85,0
0,62,94,0
0,42,80,8
0,62,79,0
0,59,71,0
0,67,79,0
0,62,94,4
0,59,59,0
0,62,79,0
0,67,71,0
0,59,94,0
0,36,91,0
0,42,96,0
0,42,110,0
0,66,55,0
0,62,55,0
0,57,55,0
0,64,112,0
0,66,55,0
0,57,95,0
0,42,80,0
0,66,55,0
0,62,55,0
0,57,95,0
0,62,103,0
0,66,55,0
0,62,55,0
0,57,55,0
0,59,83,0
0,37,101,0
0,42,96,0
0,66,100,0
0,62,100,0
0,57,100,0
0,57,94,0
0,42,80,16
0,62,55,0
0,66,55,0
0,57,55,0
0,67,115,0
0,37,101,0
0,66,55,0
0,62,55,0
0,57,55,0
0,42,95,8
0,76,106,0
0,67,115,0
0,36,91,8
0,66,55,0
0,62,55,0
0,57,55,0
0,76,115,0
0,36,91,8
0,42,80,0
0,66,55,0
0,62,55,0
0,57,55,0
0,50,94,4
