track,note,velocity,time
1,61,42,0
1,69,50,0
1,69,0,120
1,61,0,0
1,64,36,0
1,64,0,120
1,61,36,0
1,61,0,120
1,64,36,0
1,64,0,120
1,69,50,0
1,69,0,120
1,64,34,0
1,64,0,120
1,71,45,0
1,68,38,0
1,68,0,120
1,71,0,0
1,64,33,0
1,64,0,120
1,69,42,0
1,73,50,0
1,73,0,120
1,69,0,0
1,64,36,0
1,64,0,120
1,61,36,0
1,61,0,120
1,64,36,0
1,64,0,120
1,73,50,0
1,73,0,120
1,69,33,0
1,69,0,120
1,71,42,0
1,74,50,0
1,74,0,120
1,71,0,0
1,69,33,0
1,69,0,120
1,73,43,0
1,76,51,0
1,76,0,120
1,73,0,0
1,69,40,0
1,69,0,120
1,73,49,0
1,76,58,0
1,76,0,120
1,73,0,0
1,69,43,0
1,69,0,120
1,74,53,0
1,78,63,0
1,78,0,120
1,74,0,0
1,69,41,0
1,69,0,120
1,76,56,0
1,80,67,0
1,80,0,120
1,76,0,0
1,69,48,0
1,69,0,120
1,80,47,0
1,83,56,0
1,80,0,120
1,69,33,0
1,69,0,120
1,83,0,0
1,81,52,0
1,78,44,0
1,78,0,120
1,69,29,0
1,69,0,120
1,81,0,0
1,80,48,0
1,76,40,0
1,76,0,120
1,69,29,0
1,69,0,120
1,80,0,0
1,78,49,0
1,74,41,0
1,74,0,120
1,69,36,0
1,69,0,120
1,78,0,0
1,76,49,0
1,73,41,0
1,73,0,120
1,66,29,0
1,66,0,120
1,76,0,0
1,74,48,0
1,71,40,0
1,71,0,120
1,66,24,0
1,66,0,120
1,74,0,0
1,73,47,0
1,64,39,0
1,64,0,120
1,66,34,0
1,66,0,120
1,73,0,0
1,71,45,0
1,62,38,0
1,62,0,120
1,66,33,0
1,66,0,120
1,71,0,0
1,69,45,0
1,61,38,0
1,61,0,120
1,64,33,0
1,64,0,120
1,69,0,0
1,73,47,0
1,64,33,120
1,64,0,120
1,73,0,0
1,62,35,0
1,71,42,0
1,62,0,120
1,64,32,0
1,64,0,120
1,71,0,0
1,68,42,0
1,64,29,120
1,64,0,120
1,68,0,0
1,61,37,0
1,69,45,0
1,69,0,120
1,61,0,0
1,64,32,0
1,64,0,120
1,61,31,0
1,61,0,120
1,64,30,0
1,64,0,120
1,69,39,0
1,69,0,120
1,73,32,0
1,73,0,120
1,76,37,0
1,76,0,120
1,73,33,0
1,73,0,120
1,61,31,0
1,69,37,0
1,69,0,240
1,61,0,0
1,69,34,240
1,61,29,0
1,61,0,240
1,69,0,0
1,61,37,240
1,69,37,0
1,69,0,240
1,61,0,0
1,64,52,480
1,64,0,240
1,69,60,0
1,64,51,0
1,64,0,456
1,69,0,0
1,71,69,24
1,68,58,0
1,64,58,0
1,64,0,456
1,68,0,0
1,71,0,0
1,73,73,24
1,69,60,0
1,64,60,0
1,64,0,713
1,69,0,0
1,73,0,0
1,73,59,7
1,73,0,234
1,73,68,6
1,69,57,0
1,66,57,0
1,73,0,234
1,66,0,6
1,69,0,0
1,73,59,0
1,73,0,240
1,76,72,0
1,76,0,360
1,74,59,0
1,74,0,120
1,73,69,0
1,66,58,0
1,66,0,480
1,73,0,0
1,71,52,0
1,71,0,228
1,71,47,12
1,71,0,228
1,74,57,12
1,66,48,0
1,66,0,456
1,74,0,0
1,73,53,24
1,65,45,0
1,65,0,480
1,73,0,0
1,61,42,0
1,66,42,0
1,69,50,0
1,69,0,718
1,66,0,2
1,61,0,0
1,69,37,0
1,69,0,240
1,71,42,0
1,69,42,0
1,62,42,0
1,69,0,480
1,68,38,0
1,71,0,240
1,73,34,0
1,73,0,240
1,68,0,0
1,62,0,0
1,61,32,0
1,69,38,0
1,69,0,480
1,61,0,0
1,64,68,240
1,64,0,240
1,69,69,0
1,64,58,0
1,64,0,456
1,69,0,0
1,71,78,24
1,68,67,0
1,64,67,0
1,64,0,456
1,68,0,0
1,71,0,0
1,73,84,24
1,69,69,0
1,64,69,0
1,64,0,713
1,69,0,0
1,73,0,0
1,73,68,7
1,73,0,228
1,73,77,12
1,69,66,0
1,66,66,0
1,73,0,228
1,73,68,12
1,73,0,170
1,73,65,10
1,73,0,60
1,76,82,0
1,76,0,360
1,74,68,0
1,74,0,120
1,66,0,0
1,69,0,0
1,73,78,0
1,66,67,0
1,66,0,480
1,73,0,0
1,71,55,0
1,71,0,228
1,71,48,12
1,71,0,228
1,74,57,12
1,66,48,0
1,66,0,480
1,74,0,0
1,73,53,0
1,65,45,0
1,65,0,480
1,73,0,0
1,61,42,0
1,66,42,0
1,69,50,0
1,69,0,718
1,66,0,2
1,61,0,0
1,69,37,0
1,69,0,240
1,71,42,0
1,69,42,0
1,62,42,0
1,69,0,480
1,68,38,0
1,71,0,240
1,73,34,0
1,73,0,240
1,68,0,0
1,62,0,0
1,61,32,0
1,69,38,0
1,69,0,480
1,61,0,0
1,64,58,480
1,69,58,0
1,76,69,0
1,76,0,480
1,69,0,0
1,64,0,0
1,71,53,0
1,74,65,0
1,74,0,240
1,71,0,0
1,73,53,0
1,69,45,0
1,69,0,216
1,73,0,0
1,64,58,24
1,68,58,0
1,73,69,0
1,73,0,480
1,68,0,0
1,64,0,0
1,71,63,0
1,71,0,240
1,64,45,240
1,69,53,0
1,69,0,216
1,64,0,0
1,64,39,24
1,69,46,0
1,69,0,216
1,64,0,0
1,62,45,24
1,68,54,0
1,68,0,216
1,62,0,0
1,61,39,24
1,66,46,0
1,66,0,216
1,61,0,0
1,59,46,24
1,62,46,0
1,66,55,0
1,66,0,480
1,64,52,0
1,62,0,480
1,59,0,0
1,61,44,0
1,61,0,240
1,64,0,0
1,63,45,0
1,66,53,0
1,66,0,240
1,63,0,0
1,64,45,0
1,68,54,0
1,68,0,240
1,64,0,0
1,66,46,0
1,69,55,0
1,69,0,240
1,66,0,0
1,71,65,0
1,64,55,0
1,71,0,240
1,76,66,0
1,76,0,240
1,71,58,0
1,71,0,360
1,68,56,0
1,68,0,120
1,71,66,0
1,71,0,480
1,64,0,0
1,69,56,0
1,63,47,0
1,69,0,240
1,66,43,0
1,66,0,230
1,63,0,5
1,59,32,5
1,57,32,0
1,63,32,0
1,66,38,0
1,66,0,480
1,59,0,0
1,57,0,0
1,63,0,0
1,56,32,0
1,64,38,0
1,64,0,240
1,56,0,0
1,61,41,240
1,64,41,0
1,73,49,0
1,73,0,480
1,64,0,0
1,61,0,0
1,64,43,0
1,73,48,0
1,73,0,240
1,64,0,0
1,69,43,0
1,69,0,240
1,62,42,0
1,68,50,0
1,68,0,480
1,62,0,0
1,66,45,0
1,66,0,240
1,61,28,240
1,64,28,0
1,73,35,0
1,73,0,480
1,64,0,0
1,61,0,0
1,64,30,0
1,73,34,0
1,73,0,240
1,64,0,0
1,69,30,0
1,69,0,240
1,62,26,0
1,68,32,0
1,68,0,480
1,62,0,0
1,66,28,0
1,66,0,240
1,66,64,240
1,78,73,0
1,78,0,480
1,73,69,0
1,73,0,720
1,66,0,0
1,66,22,0
1,71,45,0
1,71,0,180
1,66,0,0
1,66,22,60
1,73,45,0
1,73,0,180
1,66,0,0
1,66,22,60
1,74,45,0
1,74,0,180
1,66,0,0
1,64,33,60
1,73,39,0
1,73,0,480
1,71,40,0
1,71,0,216
1,76,34,24
1,76,0,216
1,64,0,24
1,64,34,0
1,68,34,0
1,74,41,0
1,74,0,480
1,68,0,0
1,64,0,0
1,69,35,0
1,73,39,0
1,73,0,240
1,69,0,0
1,64,68,0
1,64,0,240
1,69,69,0
1,64,46,240
1,69,0,216
1,64,0,24
1,71,78,0
1,64,53,240
1,68,53,0
1,71,0,216
1,68,0,24
1,64,0,0
1,73,84,0
1,64,46,240
1,69,46,0
1,69,0,216
1,64,0,0
1,64,46,24
1,69,46,0
1,69,0,216
1,64,0,0
1,73,0,17
1,64,46,7
1,69,46,0
1,73,74,0
1,69,0,216
1,64,0,0
1,73,0,12
1,73,85,12
1,73,0,228
1,73,74,12
1,69,46,0
1,64,46,0
1,73,0,170
1,73,71,10
1,64,0,36
1,69,0,0
1,73,0,24
1,76,90,0
1,69,46,0
1,64,46,0
1,64,0,216
1,69,0,0
1,69,46,24
1,64,46,0
1,76,0,120
1,74,74,0
1,64,0,96
1,69,0,0
1,74,0,24
1,73,82,0
1,69,58,240
1,69,0,240
1,73,0,0
1,69,72,0
1,71,72,0
1,71,0,228
1,69,0,0
1,69,67,12
1,71,67,0
1,71,0,228
1,69,0,0
1,81,92,12
1,81,0,480
1,81,85,0
1,81,0,480
1,81,75,0
1,81,0,240
1,76,63,0
1,76,0,240
1,73,68,0
1,73,0,240
1,78,63,0
1,78,0,240
1,76,68,0
1,76,0,240
1,73,58,0
1,73,0,240
1,69,57,0
1,69,0,240
1,66,56,0
1,66,0,240
1,64,63,0
1,57,31,480
1,61,40,0
1,61,0,480
1,57,0,0
1,56,31,0
1,59,35,0
1,64,0,240
1,63,45,0
1,63,0,240
1,62,42,0
1,59,0,350
1,62,0,10
1,59,31,0
1,59,0,120
1,56,0,0
1,57,38,0
1,57,0,120
1,64,30,0
1,64,0,120
1,61,30,0
1,61,0,120
1,64,30,0
1,64,0,120
1,69,42,0
1,69,0,120
1,64,28,0
1,64,0,120
1,71,38,0
1,68,32,0
1,68,0,120
1,71,0,0
1,64,28,0
1,64,0,120
1,69,35,0
1,73,42,0
1,73,0,120
1,69,0,0
1,64,30,0
1,64,0,120
1,61,30,0
1,61,0,120
1,64,30,0
1,64,0,120
1,73,42,0
1,73,0,120
1,69,28,0
1,69,0,120
1,71,35,0
1,74,42,0
1,74,0,120
1,71,0,0
1,69,28,0
1,69,0,120
1,73,36,0
1,76,43,0
1,76,0,120
1,73,0,0
1,69,34,0
1,69,0,120
1,73,41,0
1,76,49,0
1,76,0,120
1,73,0,0
1,69,36,0
1,69,0,120
1,74,45,0
1,78,53,0
1,78,0,120
1,74,0,0
1,69,34,0
1,69,0,120
1,76,47,0
1,80,56,0
1,80,0,120
1,76,0,0
1,69,40,0
1,69,0,120
1,80,39,0
1,83,47,0
1,80,0,120
1,69,28,0
1,69,0,120
1,83,0,0
1,81,44,0
1,78,37,0
1,78,0,120
1,69,24,0
1,69,0,120
1,81,0,0
1,80,40,0
1,76,34,0
1,76,0,120
1,69,24,0
1,69,0,120
1,80,0,0
1,78,41,0
1,74,34,0
1,74,0,120
1,69,30,0
1,69,0,120
1,78,0,0
1,76,41,0
1,73,34,0
1,73,0,120
1,66,24,0
1,66,0,120
1,76,0,0
1,74,40,0
1,71,34,0
1,71,0,120
1,66,20,0
1,66,0,120
1,74,0,0
1,73,39,0
1,64,33,0
1,64,0,120
1,66,28,0
1,66,0,120
1,73,0,0
1,71,38,0
1,62,32,0
1,62,0,120
1,66,28,0
1,66,0,120
1,71,0,0
1,69,38,0
1,61,32,0
1,61,0,120
1,64,28,0
1,64,0,120
1,69,0,0
1,73,39,0
1,64,28,120
1,64,0,120
1,73,0,0
1,62,29,0
1,71,35,0
1,62,0,120
1,64,27,0
1,64,0,120
1,71,0,0
1,68,35,0
1,64,24,120
1,64,0,120
1,68,0,0
1,61,31,0
1,69,38,0
1,69,0,120
1,61,0,0
1,64,27,0
1,64,0,120
1,61,26,0
1,61,0,120
1,64,25,0
1,64,0,120
1,69,33,0
1,69,0,120
1,73,27,0
1,73,0,120
1,76,31,0
1,76,0,120
1,73,28,0
1,73,0,120
1,76,26,0
1,69,26,0
1,81,31,0
1,81,0,240
1,69,0,0
1,76,0,0
1,76,24,240
1,81,28,0
1,69,24,0
1,69,0,240
1,81,0,0
1,76,0,0
1,76,31,240
1,69,31,0
1,81,31,0
1,81,0,240
1,69,0,0
1,76,0,0
2,45,34,0
2,57,40,0
2,57,0,1920
2,45,0,0
2,33,34,0
2,45,40,0
2,45,0,720
2,33,0,0
2,32,34,0
2,44,40,0
2,44,0,240
2,32,0,0
2,42,45,0
2,30,38,0
2,30,0,1440
2,42,0,0
2,50,46,0
2,38,39,0
2,38,0,480
2,50,0,0
2,52,43,0
2,40,36,0
2,40,0,960
2,52,0,0
2,52,43,0
2,45,36,0
2,45,0,480
2,52,0,0
2,45,25,480
2,52,30,0
2,52,0,240
2,45,0,0
2,52,27,240
2,45,23,0
2,45,0,240
2,52,0,0
2,45,30,240
2,52,30,0
2,52,0,240
2,45,0,0
2,52,42,480
2,52,0,240
2,57,53,0
2,49,45,0
2,49,0,456
2,57,0,0
2,59,54,24
2,52,46,0
2,52,0,456
2,59,0,0
2,57,49,24
2,61,58,0
2,61,0,951
2,57,0,0
2,61,56,9
2,57,46,0
2,54,46,0
2,54,0,951
2,57,0,0
2,61,0,0
2,54,57,9
2,50,48,0
2,50,0,960
2,54,0,0
2,56,45,0
2,47,38,0
2,47,0,456
2,56,0,0
2,49,34,24
2,56,40,0
2,56,0,480
2,49,0,0
2,54,34,0
2,57,40,0
2,57,0,960
2,54,0,0
2,52,31,0
2,40,26,0
2,40,0,960
2,52,0,0
2,52,32,0
2,45,27,0
2,45,0,480
2,52,0,0
2,52,54,240
2,52,0,240
2,57,60,0
2,49,51,0
2,49,0,456
2,57,0,0
2,59,61,24
2,52,52,0
2,52,0,456
2,59,0,0
2,57,56,24
2,61,67,0
2,61,0,713
2,61,56,7
2,61,0,228
2,57,0,12
2,61,65,0
2,57,52,0
2,54,52,0
2,61,0,228
2,61,58,12
2,61,0,228
2,64,65,12
2,64,0,360
2,62,57,0
2,62,0,120
2,54,0,0
2,57,0,0
2,50,66,0
2,61,54,0
2,61,0,480
2,50,0,0
2,59,40,0
2,59,0,240
2,47,45,240
2,47,0,480
2,49,34,0
2,56,40,0
2,56,0,480
2,49,0,0
2,54,34,0
2,57,40,0
2,57,0,960
2,54,0,0
2,52,31,0
2,40,26,0
2,40,0,960
2,52,0,0
2,45,27,0
2,52,38,240
2,52,0,216
2,52,41,24
2,52,0,216
2,52,47,24
2,52,0,216
2,45,0,24
2,49,34,0
2,52,40,0
2,52,0,216
2,52,30,24
2,52,0,216
2,52,33,24
2,52,0,216
2,52,33,24
2,52,0,216
2,49,0,24
2,50,34,0
2,52,31,240
2,52,0,216
2,52,33,24
2,52,0,216
2,52,32,24
2,52,0,216
2,50,0,24
2,49,32,0
2,52,38,0
2,52,0,216
2,49,0,0
2,49,26,24
2,52,31,0
2,52,0,216
2,49,0,0
2,47,27,24
2,52,32,0
2,52,0,216
2,47,0,0
2,45,25,24
2,52,30,0
2,52,0,216
2,45,0,0
2,44,33,24
2,52,29,240
2,52,0,216
2,52,32,24
2,52,0,216
2,52,27,24
2,52,0,216
2,44,0,24
2,52,32,0
2,52,0,240
2,45,30,0
2,45,0,240
2,44,32,0
2,59,45,0
2,59,0,240
2,44,0,0
2,42,32,0
2,57,46,0
2,57,0,240
2,42,0,0
2,47,33,0
2,56,33,0
2,56,0,960
2,54,33,0
2,54,0,720
2,57,33,0
2,57,0,230
2,47,0,10
2,40,33,0
2,40,0,960
2,45,28,0
2,57,33,0
2,57,0,216
2,57,24,24
2,57,0,216
2,45,0,24
2,49,28,0
2,57,27,0
2,57,0,216
2,57,27,24
2,57,0,216
2,49,0,24
2,57,33,0
2,50,28,0
2,57,0,216
2,57,25,24
2,57,0,216
2,57,27,24
2,57,0,216
2,57,27,24
2,57,0,216
2,50,0,24
2,45,20,0
2,57,23,0
2,57,0,216
2,57,16,24
2,57,0,216
2,45,0,24
2,49,20,0
2,57,19,0
2,57,0,216
2,57,19,24
2,57,0,216
2,49,0,24
2,57,20,0
2,50,17,0
2,57,0,216
2,57,15,24
2,57,0,216
2,57,16,24
2,57,0,216
2,57,19,24
2,57,0,216
2,50,0,24
2,57,54,0
2,49,48,0
2,57,0,216
2,57,42,24
2,57,0,216
2,57,44,24
2,57,0,216
2,57,44,24
2,57,0,216
2,57,40,24
2,57,0,216
2,49,0,24
2,50,22,0
2,57,22,0
2,57,0,180
2,50,0,0
2,49,22,60
2,57,24,0
2,57,0,180
2,49,0,0
2,47,22,60
2,57,24,0
