track,note,velocity,time
1,69,77,2880
1,69,0,720
1,64,68,0
1,64,0,480
1,57,76,960
1,57,0,716
1,52,70,4
1,52,0,480
1,76,44,240
1,72,35,0
1,72,0,480
1,76,0,0
1,69,33,0
1,72,40,0
1,72,0,240
1,69,0,0
1,64,33,0
1,69,40,0
1,69,0,480
1,64,0,0
1,68,34,0
1,71,42,0
1,71,0,240
1,68,0,0
1,69,32,0
1,72,39,0
1,72,0,240
1,69,0,0
1,71,35,0
1,74,44,0
1,74,0,240
1,71,0,0
1,72,36,0
1,76,46,0
1,76,0,240
1,72,0,0
1,76,39,0
1,79,49,0
1,79,0,480
1,76,0,0
1,74,38,0
1,77,48,0
1,77,0,480
1,74,0,0
1,72,33,0
1,76,40,0
1,76,0,240
1,72,0,0
1,71,35,0
1,74,44,0
1,74,0,240
1,71,0,0
1,72,39,0
1,76,49,0
1,76,0,480
1,72,0,0
1,69,38,0
1,72,46,0
1,72,0,120
1,69,0,0
1,63,31,0
1,66,32,30
1,68,33,30
1,68,0,30
1,71,34,0
1,71,0,30
1,69,44,0
1,69,0,240
1,66,0,0
1,64,33,0
1,68,40,0
1,68,0,240
1,64,0,0
1,66,35,0
1,69,44,0
1,69,0,240
1,66,0,0
1,63,0,0
1,68,36,0
1,71,43,0
1,71,0,720
1,68,0,0
1,76,44,0
1,68,35,0
1,76,0,480
1,72,40,0
1,72,0,240
1,68,0,0
1,64,33,0
1,69,40,0
1,69,0,480
1,64,0,0
1,68,34,0
1,71,42,0
1,71,0,240
1,68,0,0
1,69,32,0
1,72,39,0
1,72,0,240
1,69,0,0
1,71,35,0
1,74,44,0
1,74,0,240
1,71,0,0
1,72,36,0
1,76,46,0
1,76,0,240
1,72,0,0
1,74,41,0
1,79,49,0
1,74,0,240
1,76,43,0
1,76,0,240
1,77,40,0
1,77,0,240
1,76,43,0
1,76,0,240
1,79,0,0
1,74,33,0
1,77,40,0
1,77,0,360
1,74,0,0
1,72,35,0
1,76,44,0
1,76,0,114
1,72,0,0
1,72,37,6
1,76,46,0
1,76,0,240
1,72,0,0
1,71,39,0
1,74,47,0
1,74,0,360
1,71,0,0
1,69,38,0
1,72,48,0
1,72,0,114
1,69,0,0
1,69,35,6
1,72,39,0
1,72,0,240
1,69,0,0
1,68,33,0
1,71,40,0
1,71,0,360
1,68,0,0
1,69,37,0
1,69,0,114
1,69,34,6
1,69,0,720
1,57,76,0
1,57,0,720
1,52,70,0
1,52,0,480
1,76,36,240
1,88,48,0
1,84,36,0
1,84,0,480
1,88,0,0
1,76,0,0
1,72,34,0
1,81,34,0
1,84,44,0
1,84,0,240
1,81,0,0
1,72,0,0
1,69,34,0
1,76,34,0
1,81,44,0
1,81,0,480
1,76,0,0
1,69,0,0
1,71,35,0
1,80,35,0
1,83,46,0
1,83,0,240
1,80,0,0
1,71,0,0
1,72,33,0
1,81,33,0
1,84,42,0
1,84,0,240
1,81,0,0
1,72,0,0
1,74,36,0
1,83,36,0
1,86,48,0
1,86,0,240
1,83,0,0
1,74,0,0
1,76,37,0
1,84,37,0
1,88,50,0
1,88,0,240
1,84,0,0
1,76,0,0
1,79,40,0
1,88,40,0
1,91,53,0
1,91,0,480
1,88,0,0
1,79,0,0
1,77,39,0
1,86,39,0
1,89,52,0
1,89,0,480
1,86,0,0
1,77,0,0
1,76,34,0
1,84,34,0
1,88,44,0
1,88,0,240
1,84,0,0
1,76,0,0
1,74,36,0
1,83,36,0
1,86,48,0
1,86,0,240
1,83,0,0
1,74,0,0
1,76,40,0
1,84,40,0
1,88,53,0
1,88,0,480
1,84,0,0
1,76,0,0
1,72,39,0
1,81,39,0
1,84,52,0
1,84,0,120
1,81,0,0
1,72,0,0
1,69,33,0
1,75,35,30
1,78,36,30
1,83,38,30
1,83,0,30
1,81,48,0
1,81,0,240
1,78,0,0
1,75,0,0
1,68,34,0
1,80,44,0
1,80,0,240
1,68,0,0
1,69,36,0
1,81,48,0
1,81,0,240
1,69,0,0
1,69,0,0
1,71,37,0
1,80,37,0
1,83,47,0
1,83,0,720
1,80,0,0
1,71,0,0
1,76,39,0
1,88,52,0
1,80,39,0
1,80,0,480
1,88,0,0
1,72,44,0
1,84,48,0
1,84,0,240
1,72,0,0
1,76,0,0
1,69,37,0
1,76,37,0
1,81,48,0
1,81,0,480
1,76,0,0
1,69,0,0
1,71,38,0
1,80,38,0
1,83,50,0
1,83,0,240
1,80,0,0
1,71,0,0
1,72,36,0
1,81,36,0
1,84,46,0
1,84,0,240
1,81,0,0
1,72,0,0
1,74,39,0
1,83,39,0
1,86,52,0
1,86,0,240
1,83,0,0
1,74,0,0
1,76,40,0
1,84,40,0
1,88,55,0
1,88,0,240
1,84,0,0
1,76,0,0
1,79,47,0
1,86,47,0
1,91,58,0
1,86,0,240
1,79,0,0
1,77,51,0
1,77,0,360
1,76,48,0
1,76,0,120
1,76,51,0
1,91,0,240
1,86,40,0
1,89,52,0
1,89,0,360
1,86,0,0
1,84,39,0
1,88,52,0
1,88,0,114
1,84,0,0
1,84,44,6
1,88,58,0
1,88,0,240
1,84,0,0
1,76,0,0
1,74,40,0
1,83,40,0
1,86,53,0
1,86,0,360
1,83,0,0
1,74,0,0
1,72,39,0
1,81,39,0
1,84,52,0
1,84,0,114
1,81,0,0
1,72,0,0
1,72,36,6
1,81,36,0
1,84,42,0
1,84,0,240
1,81,0,0
1,72,0,0
1,71,34,0
1,80,34,0
1,83,44,0
1,83,0,360
1,80,0,0
1,71,0,0
1,69,34,0
1,81,41,0
1,81,0,114
1,69,0,0
1,69,32,6
1,81,37,0
1,81,0,720
1,69,0,0
1,63,39,0
1,66,46,0
1,66,0,240
1,63,0,0
1,64,40,0
1,68,48,0
1,68,0,240
1,64,0,0
1,66,42,0
1,69,50,0
1,69,0,240
1,66,0,0
1,68,44,0
1,71,52,0
1,71,0,240
1,68,0,0
1,76,50,0
1,76,0,240
1,68,42,0
1,71,50,0
1,71,0,180
1,68,0,0
1,68,35,0
1,71,42,0
1,71,0,60
1,68,0,0
1,66,43,0
1,69,51,0
1,69,0,240
1,66,0,0
1,64,40,0
1,68,48,0
1,68,0,240
1,64,0,0
1,63,40,0
1,66,48,0
1,66,0,240
1,63,0,0
1,68,44,0
1,71,52,0
1,71,0,480
1,68,0,0
1,64,41,0
1,68,49,0
1,68,0,240
1,64,0,0
1,63,39,0
1,66,46,0
1,66,0,240
1,63,0,0
1,64,40,0
1,68,48,0
1,68,0,240
1,64,0,0
1,66,42,0
1,69,50,0
1,69,0,240
1,66,0,0
1,68,44,0
1,71,52,0
1,71,0,240
1,68,0,0
1,76,50,0
1,76,0,240
1,68,42,0
1,71,50,0
1,71,0,180
1,68,0,0
1,68,35,0
1,71,42,0
1,71,0,60
1,68,0,0
1,66,43,0
1,69,51,0
1,69,0,240
1,66,0,0
1,64,40,0
1,68,48,0
1,68,0,240
1,64,0,0
1,63,40,0
1,66,48,0
1,66,0,240
1,63,0,0
1,68,44,0
1,71,52,0
1,71,0,1440
1,68,0,0
1,67,54,0
1,73,64,0
1,73,0,720
1,67,0,0
1,66,57,0
1,74,68,0
1,74,0,720
1,66,0,0
1,69,62,0
1,75,73,0
1,75,0,720
1,69,0,0
1,69,65,0
1,72,65,0
1,76,77,0
1,76,0,720
1,72,0,0
1,69,0,0
1,70,69,0
1,76,69,0
1,79,82,0
1,79,0,720
1,76,0,0
1,70,0,0
1,70,73,0
1,74,73,0
1,77,86,0
1,77,0,720
1,74,0,0
1,70,0,0
1,69,71,0
1,72,71,0
1,75,77,0
1,78,81,0
1,81,91,0
1,81,0,1440
1,75,0,0
1,69,0,0
1,72,0,0
1,78,0,0
1,45,88,0
1,45,0,720
1,39,78,0
1,39,0,480
1,76,44,960
1,72,35,0
1,72,0,480
1,76,0,0
1,69,33,0
1,72,40,0
1,72,0,240
1,69,0,0
1,64,31,0
1,69,38,0
1,69,0,480
1,64,0,0
1,68,34,0
1,71,42,0
1,71,0,240
1,68,0,0
1,69,32,0
1,72,39,0
1,72,0,240
1,69,0,0
1,71,35,0
1,74,44,0
1,74,0,240
1,71,0,0
1,72,36,0
1,76,46,0
1,76,0,240
1,72,0,0
1,64,31,0
1,69,38,0
1,69,0,480
1,64,0,0
1,68,34,0
1,71,42,0
1,71,0,240
1,68,0,0
1,69,32,0
1,72,39,0
1,72,0,240
1,69,0,0
1,71,35,0
1,74,44,0
1,74,0,240
1,71,0,0
1,72,36,0
1,76,46,0
1,76,0,480
1,72,0,0
1,71,39,0
1,74,49,0
1,74,0,360
1,71,0,0
1,69,38,0
1,72,48,0
1,72,0,120
1,69,0,0
1,69,35,0
1,72,39,0
1,72,0,240
1,69,0,0
1,68,33,0
1,71,40,0
1,71,0,360
1,68,0,0
1,69,37,0
1,69,0,120
1,69,37,0
1,69,0,720
1,63,35,0
1,66,41,0
1,64,27,120
1,66,0,120
1,63,0,0
1,68,43,0
1,64,0,120
1,64,27,0
1,68,0,120
1,66,37,0
1,69,45,0
1,64,0,120
1,64,27,0
1,69,0,120
1,66,0,0
1,68,39,0
1,71,46,0
1,64,0,120
1,64,31,0
1,71,0,120
1,68,0,0
1,76,45,0
1,64,0,120
1,64,31,0
1,76,0,120
1,68,37,0
1,71,45,0
1,64,0,120
1,64,31,0
1,71,0,60
1,68,0,0
1,68,31,0
1,71,37,0
1,71,0,60
1,68,0,0
1,66,38,0
1,69,45,0
1,64,0,120
1,64,28,0
1,69,0,120
1,66,0,0
1,68,43,0
1,64,0,120
1,64,28,0
1,68,0,120
1,63,36,0
1,66,43,0
1,64,0,120
1,64,28,0
1,66,0,120
1,63,0,0
1,68,39,0
1,71,46,0
1,64,0,120
1,64,28,0
1,64,0,240
1,64,29,0
1,71,0,120
1,68,0,0
1,68,44,0
1,64,0,120
1,64,28,0
1,68,0,120
1,63,35,0
1,66,41,0
1,64,0,120
1,64,28,0
1,66,0,120
1,63,0,0
1,68,43,0
1,64,0,120
1,64,27,0
1,68,0,120
1,66,37,0
1,69,45,0
1,64,0,120
1,64,27,0
1,69,0,120
1,66,0,0
1,68,39,0
1,71,46,0
1,64,0,120
1,64,27,0
1,71,0,120
1,68,0,0
1,76,45,0
1,64,0,120
1,64,27,0
1,76,0,120
1,68,37,0
1,71,45,0
1,64,0,120
1,64,31,0
1,71,0,60
1,68,0,0
1,68,31,0
1,71,37,0
1,71,0,60
1,68,0,0
1,66,38,0
1,69,45,0
1,64,0,120
1,64,30,0
1,69,0,120
1,66,0,0
1,68,43,0
1,64,0,120
1,64,29,0
1,68,0,120
1,63,36,0
1,66,43,0
1,64,0,120
1,64,29,0
1,66,0,120
1,63,0,0
1,68,44,0
1,71,52,0
1,64,0,120
1,64,35,0
1,64,0,240
1,64,36,0
1,64,0,240
1,64,38,0
1,64,0,240
1,64,39,0
1,64,0,240
1,64,41,0
1,64,0,240
1,64,42,0
1,71,0,120
1,68,0,0
1,67,54,0
1,73,64,0
1,64,0,120
1,64,46,0
1,64,0,240
1,64,47,0
1,64,0,240
1,64,48,0
1,64,0,120
1,73,0,0
1,67,0,0
1,69,57,0
1,74,68,0
1,66,48,120
1,66,0,240
1,66,49,0
1,66,0,240
1,66,50,0
1,74,0,120
1,69,0,0
1,69,62,0
1,75,73,0
1,66,0,120
1,66,50,0
1,66,0,240
1,66,52,0
1,66,0,240
1,66,54,0
1,66,0,120
1,75,0,0
1,69,0,0
1,72,65,0
1,76,77,0
1,69,54,120
1,69,0,240
1,69,56,0
1,69,0,240
1,69,57,0
1,69,0,120
1,76,0,0
1,72,0,0
1,76,69,0
1,79,82,0
1,70,59,120
1,70,0,240
1,70,60,0
1,70,0,240
1,70,61,0
1,79,0,120
1,76,0,0
1,74,73,0
1,77,86,0
1,70,0,120
1,70,61,0
1,70,0,240
1,70,63,0
1,70,0,240
1,70,64,0
1,70,0,120
1,77,0,0
1,74,0,0
1,69,71,0
1,72,71,0
1,75,77,0
1,78,78,0
1,81,91,0
1,81,0,1440
1,75,0,0
1,69,0,0
1,72,0,0
1,78,0,0
1,45,88,0
1,45,0,720
1,39,76,0
1,39,0,480
1,76,46,960
1,72,38,0
1,64,30,120
1,64,0,240
1,64,30,0
1,72,0,120
1,76,0,0
1,69,36,0
1,72,42,0
1,64,0,120
1,64,29,0
1,72,0,120
1,69,0,0
1,69,42,0
1,64,0,120
1,64,30,0
1,64,0,240
1,64,30,0
1,69,0,120
1,68,37,0
1,71,44,0
1,64,0,120
1,64,29,0
1,71,0,120
1,68,0,0
1,69,35,0
1,72,41,0
1,64,0,120
1,64,30,0
1,72,0,120
1,69,0,0
1,71,38,0
1,74,46,0
1,64,0,120
1,64,31,0
1,74,0,120
1,71,0,0
1,72,39,0
1,76,48,0
1,64,0,120
1,64,30,0
1,76,0,120
1,72,0,0
1,69,42,0
1,64,0,120
1,64,31,0
1,64,0,240
1,64,29,0
1,69,0,120
1,68,37,0
1,71,44,0
1,64,0,120
1,64,29,0
1,71,0,120
1,68,0,0
1,69,35,0
1,72,41,0
1,64,0,120
1,64,30,0
1,72,0,120
1,69,0,0
1,71,38,0
1,74,46,0
1,64,0,120
1,64,31,0
1,74,0,120
1,71,0,0
1,72,39,0
1,76,48,0
1,64,0,120
1,64,33,0
1,64,0,240
1,64,34,0
1,76,0,120
1,72,0,0
1,71,42,0
1,74,51,0
1,64,0,120
1,64,31,0
1,64,0,240
1,74,0,0
1,71,0,0
1,69,41,0
1,72,50,0
1,72,0,114
1,69,0,0
1,69,35,6
1,72,38,0
1,72,0,240
1,69,0,0
1,68,33,0
1,71,39,0
1,71,0,360
1,68,0,0
1,69,37,0
1,69,0,114
1,69,34,6
1,69,0,720
1,68,37,0
1,71,46,0
1,71,0,240
1,68,0,0
1,69,38,0
1,73,48,0
1,73,0,240
1,69,0,0
1,71,39,0
1,74,50,0
1,74,0,240
1,71,0,0
1,73,41,0
1,76,52,0
1,76,0,240
1,73,0,0
1,81,50,0
1,81,0,240
1,73,39,0
1,76,50,0
1,76,0,180
1,73,0,0
1,73,33,0
1,76,42,0
1,76,0,60
1,73,0,0
1,71,40,0
1,74,51,0
1,74,0,240
1,71,0,0
1,69,38,0
1,73,48,0
1,73,0,240
1,69,0,0
1,68,36,0
1,71,46,0
1,71,0,240
1,68,0,0
1,73,41,0
1,76,52,0
1,76,0,480
1,73,0,0
1,69,38,0
1,73,49,0
1,73,0,240
1,69,0,0
1,68,37,0
1,71,46,0
1,71,0,240
1,68,0,0
1,69,38,0
1,73,48,0
1,73,0,240
1,69,0,0
1,71,39,0
1,74,50,0
1,74,0,240
1,71,0,0
1,73,41,0
1,76,52,0
1,76,0,240
1,73,0,0
1,81,50,0
1,81,0,240
1,73,39,0
1,76,50,0
1,76,0,180
1,73,0,0
1,73,33,0
1,76,42,0
1,76,0,60
1,73,0,0
1,71,40,0
1,74,51,0
1,74,0,240
1,71,0,0
1,69,38,0
1,73,48,0
1,73,0,240
1,69,0,0
1,68,36,0
1,71,46,0
1,71,0,240
1,68,0,0
1,73,41,0
1,76,47,0
1,76,0,840
1,73,0,0
1,64,47,0
1,64,0,120
1,69,51,0
1,69,0,120
1,71,43,0
1,71,0,120
1,69,50,0
1,69,0,120
1,71,43,0
1,71,0,120
1,73,48,0
1,73,0,120
1,76,43,0
1,76,0,120
1,73,48,0
1,73,0,120
1,76,42,0
1,76,0,120
1,73,47,0
1,73,0,120
1,74,41,0
1,74,0,120
1,76,46,0
1,76,0,120
1,81,41,0
1,81,0,120
1,76,45,0
1,76,0,120
1,80,39,0
1,80,0,120
1,76,45,0
1,76,0,120
1,80,39,0
1,80,0,120
1,81,44,0
1,81,0,120
1,85,38,0
1,85,0,120
1,81,43,0
1,81,0,120
1,83,38,0
1,83,0,120
1,81,42,0
1,81,0,120
1,83,38,0
1,83,0,120
1,85,39,0
1,85,0,120
1,88,38,0
1,88,0,120
1,93,38,0
1,93,0,120
1,97,38,0
1,97,0,120
1,100,38,0
1,100,0,120
