track,note,velocity,time
1,63,51,1440
1,63,0,480
1,67,56,0
1,67,0,720
1,68,50,0
1,68,0,240
1,70,62,0
1,70,0,480
1,63,52,0
1,63,0,480
1,68,56,0
1,68,0,480
1,62,40,0
1,62,0,480
1,63,62,0
1,63,0,720
1,62,58,0
1,62,0,240
1,60,64,0
1,60,0,720
1,65,59,0
1,65,0,240
1,68,63,0
1,68,0,720
1,65,66,0
1,65,0,240
1,75,76,0
1,75,0,480
1,74,70,0
1,74,0,720
1,72,53,0
1,72,0,240
1,70,51,0
1,70,0,240
1,68,46,0
1,68,0,240
1,67,52,0
1,67,0,720
1,68,51,0
1,68,0,240
1,70,56,0
1,70,0,480
1,63,52,0
1,63,0,480
1,68,56,0
1,68,0,480
1,62,42,0
1,62,0,480
1,63,62,0
1,63,0,720
1,63,58,0
1,63,0,240
1,65,64,0
1,65,0,640
1,63,60,0
1,63,0,160
1,62,58,0
1,62,0,160
1,60,63,0
1,60,0,240
1,63,60,0
1,63,0,240
1,67,66,0
1,67,0,240
1,72,71,0
1,72,0,240
1,77,76,0
1,77,0,640
1,75,65,0
1,75,0,160
1,74,62,0
1,74,0,160
1,72,63,0
1,72,0,240
1,67,54,0
1,67,0,240
1,69,57,0
1,69,0,240
1,70,54,0
1,70,0,240
1,70,56,0
1,70,0,480
1,65,49,0
1,65,0,480
1,65,56,0
1,65,0,480
1,65,54,0
1,65,0,480
1,72,59,0
1,72,0,960
1,70,56,0
1,70,0,960
1,58,36,1440
1,58,0,480
1,67,56,0
1,67,0,720
1,68,50,0
1,68,0,240
1,70,62,0
1,70,0,480
1,63,52,0
1,63,0,480
1,68,56,0
1,68,0,480
1,62,40,0
1,62,0,480
1,63,62,0
1,63,0,720
1,62,58,0
1,62,0,240
1,60,64,0
1,60,0,720
1,65,59,0
1,65,0,240
1,68,63,0
1,68,0,720
1,65,66,0
1,65,0,240
1,75,77,0
1,75,0,480
1,74,70,0
1,74,0,720
1,72,53,0
1,72,0,240
1,70,51,0
1,70,0,240
1,68,49,0
1,68,0,240
1,67,52,0
1,67,0,720
1,68,51,0
1,68,0,240
1,70,62,0
1,70,0,480
1,63,52,0
1,63,0,480
1,68,56,0
1,68,0,480
1,62,42,0
1,62,0,480
1,63,62,0
1,63,0,720
1,63,58,0
1,63,0,240
1,65,64,0
1,65,0,640
1,63,60,0
1,63,0,160
1,62,58,0
1,62,0,160
1,60,63,0
1,60,0,240
1,63,60,0
1,63,0,240
1,67,66,0
1,67,0,240
1,72,72,0
1,72,0,240
1,77,77,0
1,77,0,640
1,75,65,0
1,75,0,160
1,74,62,0
1,74,0,160
1,72,63,0
1,72,0,240
1,67,53,0
1,67,0,240
1,69,58,0
1,69,0,240
1,70,52,0
1,70,0,240
1,70,56,0
1,70,0,480
1,65,49,0
1,65,0,480
1,65,56,0
1,65,0,480
1,65,54,0
1,65,0,480
1,72,59,0
1,72,0,960
1,70,56,0
1,70,0,960
1,66,46,1600
1,66,0,160
1,68,50,0
1,68,0,160
1,70,57,0
1,70,0,480
1,71,69,0
1,71,0,360
1,68,54,0
1,68,0,120
1,65,52,0
1,65,0,640
1,66,54,0
1,66,0,120
1,68,59,40
1,68,0,120
1,70,70,40
1,70,0,480
1,75,77,0
1,75,0,360
1,71,59,0
1,71,0,120
1,68,57,0
1,68,0,640
1,66,49,0
1,66,0,120
1,68,50,40
1,68,0,120
1,70,57,40
1,70,0,480
1,71,69,0
1,71,0,360
1,68,54,0
1,68,0,120
1,65,52,0
1,65,0,640
1,66,59,0
1,66,0,120
1,68,65,40
1,68,0,120
1,70,74,40
1,70,0,480
1,75,82,0
1,75,0,360
1,71,59,0
1,71,0,120
1,68,70,0
1,68,0,640
1,66,70,0
1,70,78,0
1,70,0,120
1,66,0,0
1,68,72,40
1,71,81,0
1,71,0,120
1,68,0,0
1,70,77,40
1,73,86,0
1,73,0,480
1,70,0,0
1,66,75,0
1,70,82,0
1,70,0,360
1,66,0,0
1,78,82,0
1,78,0,120
1,71,71,0
1,66,71,0
1,78,82,0
1,78,0,480
1,66,0,0
1,65,70,0
1,77,80,0
1,77,0,480
1,65,0,0
1,71,0,0
1,70,77,0
1,73,86,0
1,73,0,480
1,70,0,0
1,66,75,0
1,70,82,0
1,70,0,360
1,66,0,0
1,78,62,0
1,78,0,120
1,71,55,0
1,66,55,0
1,78,63,0
1,78,0,480
1,66,0,0
1,65,49,0
1,77,55,0
1,77,0,480
1,65,0,0
1,71,0,0
1,66,53,0
1,70,59,0
1,70,0,480
1,66,0,0
1,63,55,0
1,66,55,0
1,66,0,360
1,63,0,0
1,71,63,0
1,75,63,0
1,75,0,114
1,71,0,0
1,71,70,6
1,68,62,0
1,63,62,0
1,75,70,0
1,63,0,480
1,68,0,0
1,71,0,160
1,75,0,0
1,70,55,0
1,73,55,0
1,73,0,160
1,70,0,0
1,68,55,0
1,71,55,0
1,71,0,160
1,68,0,0
1,66,53,0
1,70,59,0
1,70,0,480
1,66,0,0
1,63,55,0
1,66,55,0
1,66,0,360
1,63,0,0
1,71,63,0
1,75,63,0
1,75,0,114
1,71,0,0
1,71,68,6
1,68,68,0
1,63,68,0
1,75,76,0
1,63,0,480
1,68,0,0
1,71,0,160
1,75,0,0
1,70,73,0
1,73,73,0
1,73,0,160
1,70,0,0
1,68,71,0
1,71,71,0
1,71,0,152
1,68,0,0
1,71,74,8
1,68,68,0
1,63,68,0
1,75,77,0
1,63,0,480
1,68,0,0
1,71,0,160
1,75,0,0
1,70,73,0
1,73,73,0
1,73,0,160
1,70,0,0
1,68,71,0
1,71,71,0
1,71,0,152
1,68,0,0
1,71,74,8
1,68,74,0
1,63,74,0
1,75,77,0
1,75,0,1680
1,71,0,0
1,68,0,0
1,63,0,0
1,74,52,0
1,74,0,240
1,77,57,0
1,77,0,240
1,75,52,0
1,75,0,240
1,71,44,0
1,71,0,240
1,68,42,0
1,68,0,240
1,67,46,0
1,67,0,720
1,68,50,0
1,68,0,240
1,70,62,0
1,70,0,480
1,63,52,0
1,63,0,480
1,68,56,0
1,68,0,480
1,62,40,0
1,62,0,480
1,63,62,0
1,63,0,720
1,62,58,0
1,62,0,240
1,60,67,0
1,60,0,720
1,65,64,0
1,65,0,240
1,68,75,0
1,72,73,229
1,68,0,11
1,72,0,229
1,79,78,11
1,79,0,360
1,77,73,0
1,77,0,120
1,75,77,0
1,75,0,480
1,74,70,0
1,74,0,960
1,74,55,0
1,74,0,160
1,72,51,0
1,72,0,160
1,70,48,0
1,70,0,160
1,67,44,0
1,70,51,0
1,70,0,480
1,67,0,0
1,63,48,0
1,67,67,0
1,67,0,360
1,63,0,0
1,75,72,0
1,75,0,114
1,68,64,6
1,63,64,0
1,75,72,0
1,75,0,480
1,63,0,0
1,62,55,0
1,74,60,0
1,74,0,480
1,62,0,0
1,68,0,0
1,67,58,0
1,70,66,0
1,70,0,480
1,67,0,0
1,63,57,0
1,67,64,0
1,67,0,360
1,63,0,0
1,75,64,0
1,75,0,114
1,68,56,6
1,63,56,0
1,75,63,0
1,75,0,480
1,63,0,0
1,62,44,0
1,74,49,0
1,74,0,480
1,62,0,0
1,68,0,0
1,63,52,0
1,67,52,0
1,67,0,480
1,63,0,0
1,60,51,0
1,63,51,0
1,63,0,360
1,60,0,0
1,67,52,0
1,70,52,0
1,70,0,114
1,67,0,0
1,60,46,6
1,67,52,0
1,70,52,0
1,70,0,240
1,67,0,0
1,65,46,0
1,68,46,0
1,68,0,240
1,65,0,0
1,60,0,0
1,63,49,0
1,67,49,0
1,67,0,240
1,63,0,0
1,62,43,0
1,65,43,0
1,65,0,240
1,62,0,0
1,56,38,0
1,58,38,0
1,65,43,0
1,65,0,960
1,58,0,0
1,56,0,0
1,55,33,0
1,58,33,0
1,63,38,0
1,63,0,480
1,58,0,0
1,55,0,0
1,66,46,160
1,63,46,0
1,63,0,160
1,66,0,0
1,68,50,0
1,65,50,0
1,65,0,160
1,68,0,0
1,70,57,0
1,70,0,480
1,71,69,0
1,71,0,360
1,68,54,0
1,68,0,120
1,65,52,0
1,65,0,640
1,66,54,0
1,66,0,120
1,68,59,40
1,68,0,120
1,70,68,40
1,70,0,480
1,75,82,0
1,75,0,360
1,71,59,0
1,71,0,120
1,68,57,0
1,68,0,640
1,66,49,0
1,66,0,120
1,68,50,40
1,68,0,120
1,70,57,40
1,70,0,480
1,71,69,0
1,71,0,360
1,68,54,0
1,68,0,120
1,65,52,0
1,65,0,640
1,66,59,0
1,66,0,120
1,68,65,40
1,68,0,120
1,70,74,40
1,70,0,480
1,75,82,0
1,75,0,360
1,71,59,0
1,71,0,120
1,68,70,0
1,68,0,640
1,66,70,0
1,70,78,0
1,70,0,120
1,66,0,0
1,68,72,40
1,71,81,0
1,71,0,120
1,68,0,0
1,70,77,40
1,73,86,0
1,73,0,480
1,70,0,0
1,66,75,0
1,70,82,0
1,70,0,360
1,66,0,0
1,78,82,0
1,78,0,114
1,71,71,6
1,66,70,0
1,78,82,0
1,78,0,480
1,66,0,0
1,65,70,0
1,77,80,0
1,77,0,480
1,65,0,0
1,71,0,0
1,70,77,0
1,73,86,0
1,73,0,480
1,70,0,0
1,66,75,0
1,70,82,0
1,70,0,360
1,66,0,0
1,78,62,0
1,78,0,114
1,71,55,6
1,66,55,0
1,78,63,0
1,78,0,480
1,66,0,0
1,65,49,0
1,77,55,0
1,77,0,480
1,65,0,0
1,71,0,0
1,66,53,0
1,70,59,0
1,70,0,480
1,66,0,0
1,63,55,0
1,66,55,0
1,66,0,360
1,63,0,0
1,71,63,0
1,75,63,0
1,75,0,114
1,71,0,0
1,71,70,6
1,68,62,0
1,63,62,0
1,75,70,0
1,63,0,480
1,68,0,0
1,71,0,160
1,75,0,0
1,70,55,0
1,73,55,0
1,73,0,160
1,70,0,0
1,68,55,0
1,71,55,0
1,71,0,160
1,68,0,0
1,66,53,0
1,70,59,0
1,70,0,480
1,66,0,0
1,63,55,0
1,66,55,0
1,66,0,360
1,63,0,0
1,71,63,0
1,75,63,0
1,75,0,114
1,71,0,0
1,71,68,6
1,68,68,0
1,63,68,0
1,75,76,0
1,63,0,480
1,68,0,0
1,71,0,160
1,75,0,0
1,70,73,0
1,73,73,0
1,73,0,160
1,70,0,0
1,68,71,0
1,71,71,0
1,71,0,160
1,68,0,0
1,71,74,0
1,68,68,0
1,63,68,0
1,75,76,0
1,63,0,480
1,68,0,0
1,71,0,160
1,75,0,0
1,70,73,0
1,73,73,0
1,73,0,160
1,70,0,0
1,68,71,0
1,71,71,0
1,71,0,152
1,68,0,0
1,71,74,8
1,68,74,0
1,63,74,0
1,75,76,0
1,75,0,1680
1,71,0,0
1,68,0,0
1,63,0,0
1,74,55,0
1,74,0,240
1,77,58,0
1,77,0,240
1,75,54,0
1,75,0,240
1,71,44,0
1,71,0,240
1,68,42,0
1,68,0,240
1,67,50,0
1,67,0,720
1,68,50,0
1,68,0,240
1,70,62,0
1,70,0,480
1,63,52,0
1,63,0,480
1,68,56,0
1,68,0,480
1,62,40,0
1,62,0,480
1,63,62,0
1,63,0,720
1,62,58,0
1,62,0,240
1,60,67,0
1,60,0,720
1,65,64,0
1,65,0,240
1,68,75,0
1,72,71,229
1,68,0,11
1,72,0,229
1,79,77,11
1,79,0,360
1,77,73,0
1,77,0,120
1,75,77,0
1,75,0,480
1,74,70,0
1,74,0,960
1,74,55,0
1,74,0,160
1,72,51,0
1,72,0,160
1,70,48,0
1,70,0,160
1,67,46,0
1,70,50,0
1,70,0,480
1,67,0,0
1,63,54,0
1,67,58,0
1,67,0,360
1,63,0,0
1,75,72,0
1,75,0,114
1,68,64,6
1,63,64,0
1,75,72,0
1,75,0,480
1,63,0,0
1,62,55,0
1,74,60,0
1,74,0,480
1,62,0,0
1,68,0,0
1,67,58,0
1,70,66,0
1,70,0,480
1,67,0,0
1,63,57,0
1,67,64,0
1,67,0,360
1,63,0,0
1,75,64,0
1,75,0,114
1,68,56,6
1,63,56,0
1,75,63,0
1,75,0,480
1,63,0,0
1,62,44,0
1,74,49,0
1,74,0,480
1,62,0,0
1,68,0,0
1,63,52,0
1,67,52,0
1,67,0,480
1,63,0,0
1,60,51,0
1,63,51,0
1,63,0,360
1,60,0,0
1,67,52,0
1,70,52,0
1,70,0,120
1,67,0,0
1,60,46,0
1,67,52,0
1,70,52,0
1,70,0,240
1,67,0,0
1,65,46,0
1,68,46,0
1,68,0,240
1,65,0,0
1,60,0,0
1,63,49,0
1,67,49,0
1,67,0,240
1,63,0,0
1,62,43,0
1,65,43,0
1,65,0,240
1,62,0,0
1,65,54,0
1,65,0,960
1,63,52,0
1,63,0,960
1,75,66,480
1,75,0,960
1,67,58,0
1,67,0,480
1,70,66,0
1,70,0,480
1,68,62,0
1,68,0,480
1,68,58,240
1,68,0,240
1,68,60,0
1,68,0,240
1,65,57,0
1,65,0,240
1,63,69,0
1,63,0,960
1,62,66,0
1,62,0,240
1,58,71,240
1,58,0,480
1,67,76,0
1,67,0,720
1,68,69,0
1,68,0,240
1,70,76,0
1,70,0,480
1,63,72,0
1,63,0,480
1,68,79,0
1,68,0,1920
1,68,48,480
1,68,0,240
1,67,43,0
1,67,0,240
1,67,46,0
1,67,0,240
1,65,44,0
1,65,0,240
1,63,41,0
1,63,0,220
1,62,39,20
1,62,0,220
1,65,48,20
1,65,0,1440
1,63,48,0
1,63,0,480
1,63,48,0
1,63,0,3840
2,55,32,160
2,55,0,160
2,58,31,0
2,58,0,160
2,63,33,0
2,63,0,160
2,58,31,0
2,58,0,160
2,55,31,0
2,55,0,160
2,55,31,160
2,55,0,160
2,58,31,0
2,58,0,160
2,58,30,160
2,58,0,160
2,55,30,0
2,55,0,160
2,55,32,160
2,55,0,160
2,58,31,0
2,58,0,160
2,63,37,0
2,63,0,160
2,58,31,0
2,58,0,160
2,55,31,0
2,55,0,160
2,55,31,160
2,55,0,160
2,58,31,0
2,58,0,160
2,58,30,160
2,58,0,160
2,55,30,0
2,55,0,160
2,56,32,160
2,56,0,160
2,58,31,0
2,58,0,160
2,58,31,160
2,58,0,160
2,56,31,0
2,56,0,160
2,68,36,3360
2,68,0,160
2,65,36,0
2,65,0,160
2,62,31,0
2,62,0,160
2,68,33,0
2,68,0,160
2,65,29,0
2,65,0,160
2,62,29,0
2,62,0,160
2,68,27,0
2,68,0,160
2,65,27,0
2,65,0,160
2,62,23,0
2,62,0,160
2,55,30,160
2,55,0,160
2,58,30,0
2,58,0,160
2,63,38,0
2,63,0,160
2,58,31,0
2,58,0,160
2,55,31,0
2,55,0,160
2,55,31,160
2,55,0,160
2,58,31,0
2,58,0,160
2,58,30,160
2,58,0,160
2,55,30,0
2,55,0,160
2,56,32,160
2,56,0,160
2,58,31,0
2,58,0,160
2,58,31,160
2,58,0,160
2,56,31,0
2,56,0,160
2,65,45,3040
2,65,0,160
2,67,45,0
2,67,0,160
2,71,36,0
2,71,0,160
2,67,45,0
2,67,0,160
2,65,44,0
2,65,0,160
2,58,32,1120
2,58,0,160
2,62,31,0
2,62,0,160
2,62,31,160
2,62,0,160
2,58,31,0
2,58,0,160
2,57,32,160
2,57,0,160
2,60,31,0
2,60,0,160
2,60,32,160
2,60,0,160
2,57,31,0
2,57,0,160
2,62,32,160
2,62,0,160
2,63,31,0
2,63,0,160
2,65,33,0
2,65,0,160
2,62,31,0
2,62,0,160
2,63,31,0
2,63,0,160
2,65,37,0
2,65,0,160
2,62,32,0
2,62,0,160
2,63,31,0
2,63,0,160
2,65,36,0
2,65,0,160
2,68,37,0
2,68,0,160
2,67,31,0
2,67,0,160
2,65,36,0
2,65,0,160
2,68,35,0
2,68,0,160
2,67,35,0
2,67,0,160
2,65,36,0
2,65,0,160
2,63,33,0
2,63,0,160
2,62,33,0
2,62,0,160
2,60,36,0
2,60,0,160
2,58,35,0
2,58,0,160
2,57,33,0
2,57,0,160
2,56,38,0
2,56,0,160
2,55,31,0
2,55,0,160
2,56,30,0
2,56,0,160
