track,note,velocity,time
1,66,55,3840
1,66,0,360
1,73,55,120
1,73,0,240
1,71,56,240
1,71,0,1440
1,69,54,0
1,69,0,180
1,68,54,60
1,68,0,180
1,66,56,60
1,66,0,400
1,64,54,80
1,64,0,180
1,62,53,60
1,62,0,180
1,61,56,60
1,61,0,470
1,62,53,10
1,62,0,240
1,64,53,0
1,64,0,240
1,66,57,0
1,66,0,480
1,69,55,0
1,69,0,480
1,68,57,0
1,68,0,2140
1,66,50,20
1,66,0,180
1,68,50,60
1,68,0,180
1,69,50,60
1,69,0,180
1,66,55,60
1,71,55,0
1,66,0,480
1,65,50,0
1,65,0,480
1,61,50,0
1,71,0,220
1,69,52,20
1,69,0,240
1,61,0,0
1,71,52,0
1,71,0,240
1,73,52,0
1,73,0,240
1,74,56,0
1,69,56,0
1,69,0,480
1,68,50,0
1,68,0,480
1,64,50,0
1,74,0,220
1,73,54,20
1,73,0,240
1,64,0,0
1,74,58,0
1,74,0,240
1,76,63,0
1,76,0,240
1,74,64,0
1,78,71,0
1,74,0,1440
1,78,0,480
1,66,56,0
1,66,0,1320
1,73,53,120
1,73,0,120
1,71,56,360
1,71,0,1440
1,69,54,0
1,69,0,180
1,68,54,60
1,68,0,180
1,66,56,60
1,66,0,400
1,64,54,80
1,64,0,180
1,62,53,60
1,62,0,180
1,61,56,300
1,61,0,240
1,62,53,0
1,62,0,240
1,64,53,0
1,64,0,240
1,66,57,0
1,66,0,480
1,69,55,0
1,69,0,480
1,66,57,0
1,68,57,0
1,68,0,2880
1,66,0,0
1,66,60,0
1,69,60,0
1,69,0,480
1,66,0,0
1,76,59,0
1,80,59,0
1,80,0,120
1,76,0,0
1,66,58,360
1,68,58,0
1,68,0,960
1,66,0,0
1,66,56,0
1,62,56,0
1,62,0,480
1,66,0,0
1,76,59,0
1,73,59,0
1,73,0,120
1,76,0,0
1,61,57,360
1,64,57,0
1,64,0,960
1,61,0,0
1,59,66,0
1,63,66,0
1,63,0,480
1,59,0,0
1,69,69,0
1,73,69,0
1,73,0,150
1,69,0,0
1,61,69,330
1,56,69,0
1,56,0,2860
1,61,0,0
1,59,42,20
1,62,42,0
1,62,0,480
1,59,0,0
1,69,43,0
1,66,43,0
1,66,0,480
1,69,0,0
1,68,43,0
1,64,43,0
1,64,0,1200
1,68,0,0
1,69,39,0
1,66,39,0
1,66,0,240
1,69,0,0
1,71,44,0
1,68,44,0
1,68,0,960
1,71,0,0
1,73,41,0
1,69,41,0
1,69,0,460
1,73,0,0
1,59,42,20
1,62,42,0
1,62,0,480
1,59,0,0
1,69,44,0
1,66,44,0
1,66,0,480
1,69,0,0
1,68,43,0
1,64,43,0
1,64,0,1200
1,68,0,0
1,69,42,0
1,66,42,0
1,66,0,240
1,69,0,0
1,71,46,0
1,68,46,0
1,68,0,940
1,71,0,0
1,68,51,20
1,64,51,0
1,64,0,480
1,68,0,0
1,69,55,0
1,66,55,0
1,66,0,480
1,69,0,0
1,71,59,0
1,68,59,0
1,68,0,480
1,71,0,0
1,71,37,0
1,73,59,0
1,67,37,0
1,73,0,320
1,73,59,0
1,73,0,320
1,76,56,0
1,76,0,320
1,67,0,0
1,71,0,0
1,66,37,0
1,73,59,0
1,69,37,0
1,73,0,320
1,71,59,0
1,71,0,320
1,73,56,0
1,73,0,320
1,69,0,0
1,66,0,0
1,69,56,0
1,64,37,0
1,66,37,0
1,69,0,480
1,73,52,0
1,73,0,480
1,66,0,0
1,64,0,0
1,71,55,0
1,62,45,0
1,69,45,0
1,69,0,960
1,67,41,0
1,71,0,480
1,73,46,0
1,73,0,480
1,62,0,0
1,69,44,0
1,62,37,0
1,62,0,480
1,59,34,0
1,59,0,480
1,69,0,0
1,67,0,0
1,69,40,0
1,61,50,0
1,66,40,0
1,61,0,320
1,62,49,0
1,62,0,320
1,59,49,0
1,59,0,320
1,61,52,0
1,61,0,320
1,62,49,0
1,62,0,320
1,64,49,0
1,64,0,320
1,66,0,0
1,66,52,0
1,66,0,320
1,69,0,0
1,68,49,0
1,68,0,320
1,64,49,0
1,64,0,320
1,66,51,0
1,66,0,320
1,68,48,0
1,68,0,320
1,69,47,0
1,69,0,320
1,71,47,0
1,71,0,320
1,73,44,0
1,73,0,320
1,69,44,0
1,69,0,320
1,71,44,0
1,71,0,320
1,73,41,0
1,73,0,320
1,74,41,0
1,74,0,320
1,74,48,0
1,78,48,0
1,66,48,0
1,66,0,360
1,78,0,0
1,85,48,120
1,73,48,0
1,73,0,240
1,85,0,0
1,74,0,240
1,71,51,0
1,77,51,0
1,83,51,0
1,77,0,960
1,83,0,480
1,71,0,0
1,69,50,0
1,69,0,180
1,68,50,60
1,68,0,180
1,66,52,60
1,66,0,400
1,64,50,80
1,64,0,180
1,62,49,60
1,62,0,180
1,61,52,60
1,61,0,470
1,62,49,10
1,62,0,240
1,64,49,0
1,64,0,240
1,66,53,0
1,66,0,360
1,69,51,120
1,69,0,360
1,66,53,120
1,68,53,0
1,68,0,2140
1,66,51,20
1,66,0,240
1,68,54,0
1,68,0,240
1,69,56,0
1,69,0,240
1,71,57,0
1,71,0,1180
1,69,55,20
1,69,0,240
1,71,57,0
1,71,0,240
1,69,55,0
1,69,0,240
1,68,56,0
1,66,0,960
1,68,0,220
1,66,54,20
1,66,0,240
1,64,56,0
1,64,0,240
1,62,58,0
1,62,0,240
1,61,60,0
1,61,0,956
1,61,41,1924
1,61,0,240
1,59,41,0
1,59,0,240
1,73,37,480
1,73,0,240
1,71,37,0
1,71,0,240
1,78,48,480
1,78,0,480
1,85,48,0
1,85,0,480
1,78,40,0
1,81,40,0
1,84,50,0
1,84,0,960
1,81,0,0
1,78,0,0
1,85,55,0
1,85,0,480
1,78,40,0
1,81,40,0
1,88,55,0
1,88,0,480
1,81,0,0
1,78,0,0
1,87,57,0
1,87,0,320
1,83,52,0
1,78,40,0
1,78,0,320
1,83,0,0
1,81,51,0
1,81,0,320
1,78,48,0
1,78,0,480
1,85,48,0
1,85,0,480
1,84,50,0
1,81,40,0
1,78,40,0
1,78,0,960
1,81,0,0
1,84,0,0
1,85,55,0
1,85,0,480
1,88,55,0
1,81,35,0
1,78,35,0
1,78,0,480
1,81,0,0
1,88,0,0
1,87,57,0
1,87,0,320
1,78,40,0
1,83,52,0
1,83,0,320
1,78,0,0
1,87,51,0
1,87,0,320
1,73,46,0
1,73,0,480
1,69,25,0
1,76,46,0
1,66,25,0
1,66,0,480
1,76,0,0
1,69,0,0
1,75,49,0
1,75,0,320
1,66,25,0
1,69,25,0
1,71,45,0
1,71,0,320
1,69,0,0
1,66,0,0
1,75,44,0
1,75,0,320
1,66,46,0
1,63,46,0
1,73,46,0
1,73,0,960
1,63,0,0
1,66,0,0
1,64,46,0
1,71,46,0
1,68,46,0
1,68,0,480
1,71,0,0
1,64,0,0
1,64,45,0
1,59,45,0
1,68,45,0
1,68,0,480
1,59,0,0
1,64,0,0
1,61,45,0
1,64,45,0
1,57,45,0
1,64,0,320
1,66,44,0
1,66,0,320
1,68,44,0
1,68,0,320
1,57,0,0
1,61,0,0
1,57,44,0
1,64,44,0
1,66,44,0
1,64,0,480
1,63,43,0
1,63,0,480
1,66,0,0
1,57,0,0
1,64,44,0
1,61,44,0
1,68,44,0
1,61,0,480
1,59,40,0
1,59,0,480
1,68,39,480
1,68,0,240
1,71,40,0
1,71,0,240
1,68,0,0
1,64,0,0
1,73,46,0
1,70,32,0
1,67,32,0
1,73,0,480
1,76,46,0
1,76,0,480
1,67,0,0
1,70,0,0
1,68,34,0
1,75,49,0
1,71,34,0
1,75,0,320
1,71,45,0
1,71,0,320
1,75,44,0
1,75,0,320
1,71,0,0
1,68,0,0
1,68,47,0
1,64,47,0
1,73,47,0
1,73,0,960
1,64,0,0
1,68,0,0
1,63,47,0
1,71,47,0
1,68,47,0
1,68,0,480
1,71,0,0
1,63,0,0
1,63,45,0
1,59,45,0
1,68,45,0
1,68,0,480
1,59,0,0
1,63,0,0
1,61,45,0
1,64,45,0
1,58,45,0
1,64,0,320
1,66,44,0
1,66,0,320
1,68,45,0
1,68,0,320
1,58,0,0
1,61,0,0
1,66,46,0
1,63,46,0
1,70,46,0
1,63,0,480
1,61,43,0
1,61,0,960
1,70,0,0
1,66,0,0
1,66,47,0
1,71,47,0
1,59,47,0
1,59,0,480
1,71,0,0
1,66,0,0
1,66,50,0
1,75,50,0
1,71,50,0
1,71,0,480
1,75,0,0
1,66,0,0
1,71,54,0
1,75,54,0
1,78,54,0
1,78,0,480
1,75,0,0
1,71,0,0
1,76,47,0
1,80,47,0
1,75,51,0
1,75,0,480
1,73,36,0
1,73,0,480
1,75,42,0
1,75,0,480
1,73,37,0
1,73,0,480
1,75,48,0
1,75,0,480
1,73,41,0
1,73,0,480
1,80,0,0
1,76,0,0
1,80,34,0
1,76,34,0
1,83,57,0
1,83,0,320
1,87,53,0
1,87,0,320
1,83,53,0
1,83,0,320
1,76,0,0
1,80,0,0
1,80,45,0
1,75,49,0
1,76,45,0
1,75,0,480
1,73,36,0
1,73,0,480
1,75,42,0
1,75,0,480
1,73,37,0
1,73,0,480
1,75,48,0
1,75,0,480
1,80,43,0
1,85,47,0
1,76,43,0
1,76,0,480
1,80,0,0
1,80,0,0
1,76,0,0
1,85,0,0
1,73,40,0
1,82,44,0
1,78,40,0
1,78,0,480
1,82,0,0
1,73,0,0
1,76,39,0
1,70,39,0
1,80,42,0
1,80,0,480
1,70,0,0
1,76,0,0
1,78,47,0
1,73,46,0
1,74,47,0
1,73,0,480
1,71,36,0
1,71,0,480
1,73,42,0
1,73,0,480
1,71,37,0
1,71,0,480
1,73,48,0
1,73,0,480
1,71,41,0
1,71,0,480
1,74,0,0
1,78,0,0
1,78,40,0
1,74,40,0
1,81,53,0
1,81,0,320
1,85,51,0
1,85,0,320
1,81,50,0
1,81,0,320
1,74,0,0
1,78,0,0
1,78,45,0
1,73,46,0
1,74,45,0
1,73,0,480
1,71,36,0
1,71,0,480
1,73,42,0
1,73,0,480
1,71,37,0
1,71,0,480
1,73,48,0
1,73,0,480
1,78,51,0
1,83,56,0
1,74,51,0
1,74,0,480
1,78,0,0
1,78,0,0
1,74,0,0
1,83,0,0
1,71,48,0
1,80,52,0
1,76,48,0
1,76,0,480
1,80,0,0
1,71,0,0
1,74,46,0
1,68,46,0
1,78,50,0
1,78,0,480
1,68,0,0
1,74,0,0
1,76,63,0
1,69,58,0
1,73,58,0
1,73,0,480
1,69,0,0
1,76,0,0
1,69,56,0
1,64,56,0
1,73,56,0
1,73,0,90
1,64,0,0
1,69,0,0
1,64,56,150
1,69,56,0
1,73,56,0
1,73,0,90
1,69,0,0
1,64,0,0
1,69,56,150
1,73,56,0
1,64,56,0
1,64,0,360
1,73,0,0
1,69,0,0
1,73,58,120
1,69,58,0
1,76,58,0
1,76,0,480
1,69,0,0
1,73,0,0
1,69,58,0
1,78,58,0
1,73,58,0
1,73,0,480
1,78,0,0
1,69,0,0
1,73,54,0
1,69,54,0
1,78,54,0
1,78,0,180
1,69,0,0
1,73,0,0
1,80,54,60
1,71,54,0
1,73,54,0
1,73,0,180
1,71,0,0
1,80,0,0
1,73,54,60
1,69,54,0
1,78,54,0
1,78,0,180
1,69,0,0
1,73,0,0
1,71,54,60
1,80,54,0
1,73,54,0
1,73,0,180
1,80,0,0
1,71,0,0
1,73,57,60
1,69,57,0
1,78,57,0
1,78,0,480
1,69,0,0
1,73,0,0
1,76,62,0
1,69,62,0
1,73,62,0
1,73,0,480
1,69,0,0
1,76,0,0
1,69,56,0
1,68,56,0
1,73,56,0
1,73,0,90
1,68,0,0
1,69,0,0
1,68,56,150
1,69,56,0
1,73,56,0
1,73,0,90
1,69,0,0
1,68,0,0
1,69,56,150
1,73,56,0
1,66,56,0
1,66,0,360
1,73,0,0
1,69,0,0
1,66,61,120
1,64,61,0
1,69,61,0
1,69,0,480
1,64,0,0
1,66,0,0
1,73,64,0
1,66,64,0
1,69,64,0
1,62,64,0
1,62,0,1920
1,73,0,0
1,66,0,0
1,69,0,0
1,62,30,0
1,71,30,0
1,67,30,0
1,67,0,480
1,71,0,0
1,62,0,0
1,67,29,0
1,59,29,0
1,62,29,0
1,62,0,90
1,59,0,0
1,67,0,0
1,67,29,150
1,59,29,0
1,62,29,0
1,62,0,90
1,59,0,0
1,67,0,0
1,62,29,150
1,59,29,0
1,67,29,0
1,67,0,240
1,59,0,0
1,62,0,0
1,62,30,240
1,71,30,0
1,67,30,0
1,67,0,360
1,71,0,0
1,62,0,0
1,65,30,120
1,60,30,0
1,69,30,0
1,69,0,480
1,60,0,0
1,65,0,0
1,69,28,0
1,60,28,0
1,65,28,0
1,65,0,120
1,60,0,0
1,69,0,0
1,71,28,120
1,62,28,0
1,65,28,0
1,65,0,120
1,62,0,0
1,71,0,0
1,65,28,120
1,69,28,0
1,60,28,0
1,60,0,120
1,69,0,0
1,65,0,0
1,65,28,120
1,62,28,0
1,71,28,0
1,71,0,120
1,62,0,0
1,65,0,0
1,64,30,120
1,72,30,0
1,65,30,0
1,65,0,240
1,72,0,0
1,64,0,0
1,67,31,240
1,62,31,0
1,71,31,0
1,71,0,480
1,62,0,0
1,67,0,0
1,67,28,0
1,59,28,0
1,62,28,0
1,62,0,90
1,59,0,0
1,67,0,0
1,62,28,150
1,59,28,0
1,67,28,0
1,67,0,90
1,59,0,0
1,62,0,0
1,59,29,150
1,67,29,0
1,62,29,0
1,62,0,360
1,67,0,0
1,59,0,0
1,67,32,120
1,62,32,0
1,71,32,0
1,71,0,480
1,62,0,0
1,67,0,0
1,64,35,0
1,71,35,0
1,68,35,0
1,68,0,960
1,71,0,0
1,64,0,0
1,64,48,0
1,64,0,718
1,76,63,242
1,69,63,0
1,73,63,0
1,73,0,480
1,69,0,0
1,76,0,0
1,69,61,0
1,73,61,0
1,73,0,90
1,69,0,0
1,73,61,150
1,69,61,0
1,69,0,90
1,73,0,0
1,69,61,150
1,73,61,0
1,73,0,360
1,69,0,0
1,76,63,120
1,69,63,0
1,73,63,0
1,73,0,480
1,69,0,0
1,76,0,0
1,73,63,0
1,69,63,0
1,78,63,0
1,78,0,480
1,69,0,0
1,73,0,0
1,69,56,0
1,78,56,0
1,73,56,0
1,73,0,180
1,78,0,0
1,69,0,0
1,73,56,60
1,71,56,0
1,80,56,0
1,80,0,180
1,71,0,0
1,73,0,0
1,78,58,60
1,69,58,0
1,74,58,0
1,74,0,180
1,69,0,0
1,78,0,0
1,74,57,60
1,69,57,0
1,80,57,0
1,80,0,180
1,69,0,0
1,74,0,0
1,69,61,60
1,78,61,0
1,74,61,0
1,74,0,480
1,78,0,0
1,69,0,0
1,73,68,0
1,69,68,0
1,76,68,0
1,76,0,480
1,69,0,0
1,73,0,0
1,73,61,0
1,68,61,0
1,69,61,0
1,69,0,90
1,68,0,0
1,73,0,0
1,73,61,150
1,69,61,0
1,68,61,0
1,68,0,90
1,69,0,0
1,73,0,0
1,69,61,150
1,66,61,0
1,73,61,0
1,73,0,360
1,66,0,0
1,69,0,0
1,69,63,120
1,64,63,0
1,66,63,0
1,66,0,480
1,64,0,0
1,69,0,0
1,63,67,0
1,73,67,0
1,69,67,0
1,66,67,0
1,66,0,2400
1,63,0,0
1,73,0,0
1,69,0,0
1,69,51,0
1,61,51,0
1,66,51,0
1,66,0,120
1,61,0,0
1,69,0,0
1,61,51,120
1,69,51,0
1,66,51,0
1,66,0,120
1,69,0,0
1,61,0,0
1,63,51,120
1,59,51,0
1,66,51,0
1,66,0,360
1,59,0,0
1,63,0,0
1,69,54,120
1,64,54,0
1,66,54,0
1,66,0,360
1,64,0,0
1,69,0,0
1,69,56,120
1,63,56,0
1,73,56,0
1,73,0,480
1,63,0,0
1,69,0,0
1,61,54,0
1,69,54,0
1,66,54,0
1,66,0,120
1,69,0,0
1,61,0,0
1,66,54,120
1,61,54,0
1,69,54,0
1,69,0,120
1,61,0,0
1,66,0,0
1,59,56,120
1,66,56,0
