track,note,velocity,time
1,42,94,31022
1,42,94,38
1,44,98,10
1,38,94,34
1,38,94,38
1,45,94,10
1,42,96,60
1,42,92,50
1,44,92,2
1,38,89,48
1,38,85,64
1,40,91,2
1,40,87,2
1,33,96,18
1,45,89,152
1,33,96,26
1,45,89,152
1,33,96,12
1,45,89,152
1,33,96,26
1,45,89,152
1,33,88,12
1,33,83,76
1,38,88,122
1,38,83,76
1,33,88,122
1,33,83,76
1,30,88,122
1,30,83,76
1,38,88,122
1,38,83,76
1,35,88,122
1,35,83,76
1,40,85,122
1,40,81,38
1,38,83,10
1,37,85,34
1,37,81,38
1,35,83,10
1,28,81,20
1,33,90,20
1,33,85,76
1,38,90,122
1,38,85,76
1,33,90,122
1,33,85,76
1,30,90,122
1,30,85,76
1,38,90,122
1,38,85,76
1,35,90,122
1,35,85,76
1,40,87,122
1,40,83,38
1,38,85,10
1,37,87,34
1,37,83,38
1,35,85,10
1,28,83,20
1,42,100,20
1,42,100,38
1,44,104,10
1,38,100,34
1,38,100,38
1,45,100,10
1,42,102,60
1,42,98,50
1,44,98,2
1,38,95,48
1,38,91,64
1,40,97,2
1,28,93,24
1,33,104,24
1,33,98,124
1,33,104,70
1,33,89,94
1,33,107,36
1,28,100,80
1,30,97,2
1,33,98,8
1,33,98,156
1,33,102,70
1,33,89,108
1,33,107,36
1,38,95,80
1,38,91,64
1,40,97,2
1,28,93,24
1,33,98,24
1,33,98,156
1,33,102,70
1,33,89,108
1,33,107,36
1,38,95,80
1,38,91,64
1,40,97,2
1,28,93,24
1,33,98,24
1,33,98,156
1,33,102,70
1,33,89,108
1,33,107,36
1,30,100,80
1,30,100,38
1,32,100,10
1,33,102,60
1,35,98,28
1,37,98,10
1,38,95,2
1,37,95,20
1,35,95,20
1,35,91,64
1,40,97,2
1,28,93,24
1,33,104,24
1,33,98,124
1,33,104,70
1,33,89,94
1,33,107,36
1,28,100,80
1,30,97,2
1,33,98,8
1,33,98,156
1,33,102,70
1,33,89,108
1,33,107,36
1,50,93,80
1,49,88,24
1,57,77,16
1,47,93,6
1,45,93,24
1,49,88,46
1,49,77,48
1,45,77,4
1,38,93,364
1,37,93,32
1,35,90,32
1,35,86,38
1,37,88,10
1,38,90,34
1,38,86,38
1,40,95,10
1,40,82,104
1,40,99,104
1,40,90,104
1,40,103,104
1,40,97,104
1,40,106,104
1,40,98,104
1,38,97,15464
1,38,93,64
1,40,99,2
1,28,95,24
1,33,100,24
1,33,100,156
1,33,104,70
1,33,91,108
1,33,109,36
1,38,97,80
1,38,93,64
1,40,99,2
1,28,95,24
1,33,100,24
1,33,100,156
1,33,104,70
1,33,91,108
1,33,109,36
1,30,102,80
1,30,102,38
1,32,102,10
1,33,104,60
1,35,100,28
1,37,100,10
1,38,97,2
1,37,97,20
1,35,97,20
1,35,93,64
1,40,99,2
1,28,95,24
1,33,106,24
1,33,100,124
1,33,106,70
1,33,91,94
1,33,109,36
1,28,102,80
1,30,99,2
1,38,98,8
1,38,94,64
1,40,100,2
1,28,96,24
1,33,101,24
1,33,101,156
1,33,105,70
1,33,92,108
1,33,110,36
1,38,98,80
1,38,94,64
1,40,100,2
1,28,96,24
1,33,101,24
1,33,101,156
1,33,105,70
1,33,92,108
1,33,110,36
1,30,103,80
1,30,103,38
1,32,103,10
1,33,105,60
1,35,101,28
1,37,101,10
1,38,98,2
1,37,98,20
1,35,98,20
1,35,94,64
1,40,100,2
1,28,96,24
1,33,107,24
1,33,101,124
1,33,107,70
1,33,92,94
1,33,110,36
1,28,103,80
1,30,100,2
1,38,99,8
1,38,95,64
1,40,101,2
1,28,97,24
1,33,102,24
1,33,102,156
1,33,106,70
1,33,93,108
1,33,111,36
1,38,99,80
1,38,95,64
1,40,101,2
1,28,97,24
1,33,102,24
1,33,102,156
1,33,106,70
1,33,93,108
1,33,111,36
1,30,104,80
1,30,104,38
1,32,104,10
1,33,106,60
1,35,102,28
1,37,102,10
1,38,99,2
1,37,99,20
1,35,99,20
1,35,95,64
1,40,101,2
1,28,97,24
1,33,108,24
1,33,102,124
1,33,108,70
1,33,93,94
1,33,111,36
1,28,104,80
1,30,101,2
1,33,99,8
2,52,86,248
2,57,93,10
2,61,93,14
2,52,45,12
2,57,58,0
2,52,29,72
2,57,45,0
2,52,40,16
2,57,58,0
2,52,78,160
2,57,86,10
2,61,88,14
2,52,45,16
2,57,58,0
2,52,29,72
2,57,45,0
2,52,40,16
2,57,58,0
2,52,72,160
2,57,83,10
2,61,85,14
2,52,53,12
2,57,58,0
2,52,35,72
2,57,45,0
2,54,85,4
2,57,85,12
2,62,76,12
2,50,45,12
2,57,58,0
2,50,29,72
2,57,45,0
2,50,40,16
2,57,58,0
2,54,65,160
2,57,71,10
2,62,73,14
2,57,90,120
2,62,94,10
2,54,81,12
2,54,65,100
2,57,75,0
2,54,77,2
2,57,83,2
2,62,88,14
2,52,85,204
2,57,85,12
2,61,76,12
2,52,45,12
2,57,58,0
2,52,29,72
2,57,45,0
2,52,40,16
2,57,58,0
2,52,65,160
2,57,71,10
2,61,73,14
2,57,90,120
2,61,94,10
2,52,81,12
2,52,77,188
2,57,83,10
2,61,88,14
2,52,57,116
2,57,67,0
2,54,85,4
2,57,85,12
2,62,76,12
2,50,45,12
2,57,58,0
2,50,29,72
2,57,45,0
2,50,40,16
2,57,58,0
2,54,65,160
2,57,71,10
2,62,73,14
2,57,90,120
2,62,94,10
2,54,81,12
2,54,65,100
2,57,75,0
2,54,77,2
2,57,83,2
2,62,88,14
2,52,86,204
2,57,93,10
2,61,93,14
2,52,45,12
2,57,58,0
2,52,29,72
2,57,45,0
2,52,40,16
2,57,58,0
2,52,78,160
2,57,86,10
2,61,88,14
2,52,45,16
2,57,58,0
2,52,29,72
2,57,45,0
2,52,40,16
2,57,58,0
2,52,72,160
2,57,83,10
2,61,85,14
2,52,53,12
2,57,58,0
2,52,35,72
2,57,45,0
2,54,85,4
2,57,85,12
2,62,76,12
2,50,45,12
2,57,58,0
2,50,29,72
2,57,45,0
2,50,40,16
2,57,58,0
2,54,65,160
2,57,71,10
2,62,73,14
2,57,90,120
2,62,94,10
2,54,81,12
2,54,65,100
2,57,75,0
2,54,77,2
2,57,83,2
2,62,88,14
2,52,85,204
2,57,85,12
2,61,76,12
2,52,45,12
2,57,58,0
2,52,29,72
2,57,45,0
2,52,40,16
2,57,58,0
2,52,65,160
2,57,71,10
2,61,73,14
2,57,90,120
2,61,94,10
2,52,81,12
2,52,77,188
2,57,83,10
2,61,88,14
2,52,57,116
2,57,67,0
2,54,85,4
2,57,85,12
2,61,76,12
2,54,45,12
2,57,58,0
2,54,29,72
2,57,45,0
2,54,40,16
2,57,58,0
2,54,65,160
2,57,71,10
2,61,73,14
2,57,90,120
2,61,94,10
2,54,81,12
2,54,65,100
2,57,75,0
2,54,77,2
2,57,83,2
2,61,88,14
2,54,86,204
2,57,93,10
2,62,93,14
2,54,45,12
2,57,58,0
2,54,29,72
2,57,45,0
2,54,40,16
2,57,58,0
2,54,78,160
2,57,86,10
2,62,88,14
2,54,45,16
2,57,58,0
2,54,29,72
2,57,45,0
2,54,40,16
2,57,58,0
2,54,72,160
2,57,83,10
2,62,85,14
2,54,53,12
2,57,58,0
2,54,35,72
2,57,45,0
2,54,85,4
2,59,85,12
2,62,76,12
2,50,45,12
2,59,58,0
2,50,29,72
2,59,45,0
2,50,40,16
2,59,58,0
2,54,65,160
2,59,71,10
2,62,73,14
2,59,90,120
2,62,94,10
2,54,81,12
2,54,65,100
2,59,75,0
2,54,77,2
2,59,83,2
2,62,88,14
2,66,91,14
2,56,63,200
2,59,73,10
2,64,82,14
2,56,42,0
2,59,56,0
2,64,78,96
2,59,70,0
2,56,64,0
2,56,43,0
2,59,57,0
2,56,61,0
2,59,69,0
2,64,75,14
2,56,60,20
2,59,78,10
2,64,87,14
2,56,39,14
2,59,53,0
2,64,75,104
2,59,67,0
2,56,61,0
2,56,40,0
2,59,54,0
2,56,58,0
2,59,66,0
2,64,72,14
2,56,70,14
2,59,79,10
2,64,90,14
2,56,43,14
2,59,57,0
2,64,79,104
2,59,71,0
2,56,65,0
2,56,44,0
2,59,58,0
2,56,62,0
2,59,70,0
2,64,76,14
2,56,69,20
2,59,81,10
2,64,90,14
2,56,48,14
2,59,62,0
2,64,84,104
2,59,76,0
2,56,70,0
2,56,49,0
2,59,63,0
2,56,67,0
2,59,75,0
2,64,81,14
2,52,86,20
2,57,93,10
2,61,93,14
2,52,45,12
2,57,58,0
2,52,29,72
2,57,45,0
2,52,40,16
2,57,58,0
2,52,78,160
2,57,86,10
2,61,88,14
2,52,45,16
2,57,58,0
2,52,29,72
2,57,45,0
2,52,40,16
2,57,58,0
2,52,72,160
2,57,83,10
2,61,85,14
2,52,53,12
2,57,58,0
2,52,35,72
2,57,45,0
2,54,85,4
2,57,85,12
2,62,76,12
2,50,45,12
2,57,58,0
2,50,29,72
2,57,45,0
2,50,40,16
2,57,58,0
2,54,65,160
2,57,71,10
2,62,73,14
2,57,90,120
2,62,94,10
2,54,81,12
2,54,65,100
2,57,75,0
2,54,77,2
2,57,83,2
2,62,88,14
2,52,85,204
2,57,85,12
2,61,76,12
2,52,45,12
2,57,58,0
2,52,29,72
2,57,45,0
2,52,40,16
2,57,58,0
2,52,65,160
2,57,71,10
2,61,73,14
2,57,90,120
2,61,94,10
2,52,81,12
2,52,77,188
2,57,83,10
2,61,88,14
2,52,57,116
2,57,67,0
2,54,85,4
2,57,85,12
2,61,76,12
2,54,45,12
2,57,58,0
2,54,29,72
2,57,45,0
2,54,40,16
2,57,58,0
2,54,65,160
2,57,71,10
2,61,73,14
2,57,90,120
2,61,94,10
2,54,81,12
2,54,65,100
2,57,75,0
2,54,77,2
2,57,83,2
2,61,88,14
2,54,86,204
2,57,93,10
2,62,93,14
2,54,45,12
2,57,58,0
2,54,29,72
2,57,45,0
2,54,40,16
2,57,58,0
2,54,78,160
2,57,86,10
2,62,88,14
2,54,45,16
2,57,58,0
2,54,29,72
2,57,45,0
2,54,40,16
2,57,58,0
2,54,72,160
2,57,83,10
2,62,85,14
2,54,53,12
2,57,58,0
2,54,35,72
2,57,45,0
2,54,85,4
2,59,85,12
2,62,76,12
2,50,45,12
2,59,58,0
2,50,29,72
2,59,45,0
2,50,40,16
2,59,58,0
2,54,65,160
2,59,71,10
2,62,73,14
2,59,90,120
2,62,94,10
2,54,81,12
2,54,65,100
2,59,75,0
2,54,77,2
2,59,83,2
2,62,88,14
2,66,91,14
2,56,63,200
2,59,73,10
2,64,82,14
2,56,42,0
2,59,56,0
2,64,78,96
2,59,70,0
2,56,64,0
2,56,43,0
2,59,57,0
2,56,61,0
2,59,69,0
2,64,75,14
2,56,60,20
2,59,78,10
2,64,87,14
2,56,39,14
2,59,53,0
2,64,75,104
2,59,67,0
2,56,61,0
2,56,40,0
2,59,54,0
2,56,58,0
2,59,66,0
2,64,72,14
2,56,70,14
2,59,79,10
2,64,90,14
2,56,43,14
2,59,57,0
2,64,79,104
2,59,71,0
2,56,65,0
2,56,44,0
2,59,58,0
2,56,62,0
2,59,70,0
2,64,76,14
2,56,69,20
2,59,81,10
2,64,90,14
2,56,48,14
2,59,62,0
2,64,84,104
2,59,76,0
2,56,70,0
2,56,49,0
2,59,63,0
2,56,67,0
2,59,75,0
2,64,81,14
2,54,69,20
2,57,79,10
2,61,88,14
2,54,48,0
2,57,62,0
2,61,84,96
2,57,76,0
2,54,70,0
2,54,49,0
2,57,63,0
2,54,67,0
2,57,75,0
2,61,81,14
2,56,66,20
2,59,84,10
2,64,93,14
2,56,45,14
2,59,59,0
2,64,81,104
2,59,73,0
2,56,67,0
2,56,46,0
2,59,60,0
2,56,64,0
2,59,72,0
2,64,78,14
2,57,76,14
2,62,85,10
2,66,96,14
2,57,49,14
2,62,63,0
2,66,85,104
2,62,77,0
2,57,71,0
2,57,50,0
2,62,64,0
2,57,68,0
2,62,76,0
2,66,82,14
2,57,75,20
2,61,87,10
2,64,96,14
2,57,54,14
2,61,68,0
2,64,90,104
2,61,82,0
2,57,76,0
2,57,55,0
2,61,69,0
2,57,73,0
2,61,81,0
2,64,87,14
2,54,69,20
2,57,79,10
2,61,88,14
2,54,48,0
2,57,62,0
2,61,84,96
2,57,76,0
2,54,70,0
2,54,49,0
2,57,63,0
2,54,67,0
2,57,75,0
2,61,81,14
2,56,66,20
2,59,84,10
2,64,93,14
2,56,45,14
2,59,59,0
2,64,81,104
2,59,73,0
2,56,67,0
2,56,46,0
2,59,60,0
2,56,64,0
2,59,72,0
2,64,78,14
2,57,76,14
2,62,85,10
2,66,96,14
2,57,49,14
2,62,63,0
2,66,85,104
2,62,77,0
2,57,71,0
2,57,50,0
2,62,64,0
2,57,68,0
2,62,76,0
2,66,82,14
2,56,75,20
2,59,87,10
2,64,96,14
2,56,54,14
2,59,68,0
2,64,90,104
2,59,82,0
2,56,76,0
2,56,55,0
2,59,69,0
2,56,73,0
2,59,81,0
2,64,87,14
2,52,92,20
2,57,96,10
2,61,96,14
2,52,45,20
2,57,55,0
2,52,62,2
2,57,72,0
2,52,88,2
2,57,92,2
2,61,96,14
2,52,44,24
2,57,61,0
2,52,59,2
2,57,72,0
2,52,85,2
2,57,91,2
2,61,92,14
2,52,66,12
2,57,73,0
2,52,55,2
2,57,66,0
2,54,92,4
2,57,96,10
2,62,96,14
2,54,45,20
2,57,55,0
2,54,62,2
2,57,72,0
2,54,88,2
2,57,92,2
2,62,96,14
2,54,44,24
2,57,61,0
2,54,59,2
2,57,72,0
2,54,85,2
2,57,91,2
2,62,92,14
2,54,66,12
2,57,73,0
2,54,55,2
2,57,66,0
2,52,92,4
2,57,96,10
2,61,96,14
2,52,45,20
2,57,55,0
2,52,62,2
2,57,72,0
2,52,88,2
2,57,92,2
2,61,96,14
2,52,44,24
2,57,61,0
2,52,59,2
2,57,72,0
2,52,85,2
2,57,91,2
2,61,92,14
2,52,66,12
2,57,73,0
2,52,55,2
2,57,66,0
2,54,92,4
2,57,96,10
2,62,96,14
2,54,45,20
2,57,55,0
2,54,62,2
2,57,72,0
2,54,88,2
2,57,92,2
2,62,96,14
2,54,44,24
2,57,61,0
2,54,59,2
2,57,72,0
2,54,85,2
2,57,91,2
2,62,92,14
2,54,66,12
2,57,73,0
2,54,55,2
2,57,66,0
2,52,92,4
2,57,99,10
2,61,99,14
2,52,51,12
2,57,64,0
2,52,35,72
2,57,51,0
2,52,46,16
2,57,64,0
2,52,84,160
2,57,92,10
2,61,94,14
2,52,51,16
2,57,64,0
2,52,35,72
2,57,51,0
2,52,46,16
2,57,64,0
2,52,78,160
2,57,89,10
2,61,91,14
2,52,59,12
2,57,64,0
2,52,41,72
2,57,51,0
2,54,91,4
2,57,91,12
2,62,82,12
2,50,51,12
2,57,64,0
2,50,35,72
2,57,51,0
2,50,46,16
2,57,64,0
2,54,71,160
2,57,77,10
2,62,79,14
2,57,96,120
2,62,100,10
2,54,87,12
2,54,71,100
2,57,81,0
2,54,83,2
2,57,89,2
2,62,94,14
2,52,91,204
2,57,91,12
2,61,82,12
2,52,51,12
2,57,64,0
2,52,35,72
2,57,51,0
2,52,46,16
2,57,64,0
2,52,71,160
2,57,77,10
2,61,79,14
2,57,96,120
2,61,100,10
2,52,87,12
2,52,83,188
2,57,89,10
2,61,94,14
2,52,63,116
2,57,73,0
2,54,91,4
2,57,91,12
2,61,82,12
2,54,51,12
2,57,64,0
2,54,35,72
2,57,51,0
2,54,46,16
2,57,64,0
2,54,71,160
2,57,77,10
2,61,79,14
2,57,96,120
2,61,100,10
2,54,87,12
2,54,71,100
2,57,81,0
2,54,83,2
2,57,89,2
2,61,94,14
2,54,92,204
2,57,99,10
2,62,99,14
2,54,51,12
2,57,64,0
2,54,35,72
2,57,51,0
2,54,46,16
2,57,64,0
2,54,84,160
2,57,92,10
2,62,94,14
2,54,51,16
2,57,64,0
2,54,35,72
