track,note,velocity,time
1,51,57,960
1,51,0,1440
1,54,59,0
1,54,0,240
1,52,55,0
1,52,0,240
1,51,59,0
1,51,0,480
1,52,56,0
1,52,0,480
1,51,59,0
1,51,0,480
1,56,69,0
1,56,0,480
1,58,70,0
1,58,0,480
1,59,70,0
1,59,0,480
1,58,73,0
1,58,0,960
1,56,67,0
1,56,0,480
1,61,73,480
1,61,0,960
1,68,69,0
1,68,0,480
1,61,74,480
1,61,0,960
1,68,69,0
1,68,0,480
1,68,67,0
1,68,0,480
1,63,70,0
1,63,0,960
1,61,68,0
1,61,0,960
1,59,66,0
1,59,0,480
1,63,62,0
1,63,0,480
1,58,66,0
1,58,0,480
1,56,69,480
1,56,0,960
1,54,57,0
1,54,0,480
1,52,53,0
1,52,0,480
1,51,55,0
1,51,0,480
1,51,67,480
1,51,0,1440
1,54,64,0
1,54,0,240
1,52,60,0
1,52,0,240
1,51,64,0
1,51,0,480
1,52,61,0
1,52,0,480
1,51,64,0
1,51,0,480
1,56,75,0
1,56,0,480
1,58,77,0
1,58,0,480
1,59,77,0
1,59,0,480
1,58,80,0
1,58,0,960
1,56,77,0
1,56,0,480
1,61,80,480
1,61,0,960
1,64,75,0
1,64,0,480
1,64,81,480
1,64,0,960
1,64,78,0
1,64,0,960
1,62,80,0
1,62,0,2880
1,60,75,0
1,60,0,480
1,61,86,480
1,61,0,960
1,68,76,0
1,68,0,480
1,68,71,0
1,68,0,480
1,63,77,0
1,63,0,480
1,59,68,0
1,59,0,480
1,58,73,0
1,58,0,960
1,56,70,0
1,56,0,1440
1,88,70,480
1,85,70,0
1,76,64,0
1,81,64,0
1,81,0,480
1,88,0,0
1,85,0,0
1,76,0,0
1,85,72,0
1,73,66,0
1,73,0,480
1,85,0,0
1,87,72,0
1,75,66,0
1,78,66,0
1,83,72,0
1,83,0,480
1,87,0,0
1,75,0,0
1,78,0,0
1,71,60,0
1,83,66,0
1,83,0,480
1,71,0,0
1,76,66,0
1,81,72,0
1,85,72,0
1,73,66,0
1,73,0,480
1,76,0,0
1,81,0,0
1,85,0,0
1,69,63,0
1,81,69,0
1,81,0,480
1,69,0,0
1,78,69,0
1,66,63,0
1,69,63,0
1,74,69,0
1,74,0,960
1,78,0,0
1,66,0,0
1,69,0,0
1,81,70,0
1,85,77,0
1,88,77,0
1,76,70,0
1,76,0,480
1,81,0,0
1,85,0,0
1,88,0,0
1,85,79,0
1,73,72,0
1,73,0,480
1,85,0,0
1,87,80,0
1,75,73,0
1,78,73,0
1,83,80,0
1,83,0,480
1,87,0,0
1,75,0,0
1,78,0,0
1,71,66,0
1,83,72,0
1,83,0,480
1,71,0,0
1,76,73,0
1,81,80,0
1,85,80,0
1,73,73,0
1,73,0,960
1,76,0,0
1,81,0,0
1,85,0,0
1,74,77,0
1,66,70,0
1,69,70,0
1,78,77,0
1,78,0,960
1,74,0,0
1,66,0,0
1,69,0,0
1,81,77,0
1,76,77,0
1,88,84,0
1,85,84,0
1,85,0,480
1,81,0,0
1,76,0,0
1,88,0,0
1,85,86,0
1,73,79,0
1,73,0,480
1,85,0,0
1,87,86,0
1,83,86,0
1,78,79,0
1,75,79,0
1,75,0,480
1,87,0,0
1,83,0,0
1,78,0,0
1,71,72,0
1,83,79,0
1,83,0,480
1,71,0,0
1,76,79,0
1,73,79,0
1,85,86,0
1,81,86,0
1,81,0,480
1,76,0,0
1,73,0,0
1,85,0,0
1,69,75,0
1,81,82,0
1,81,0,480
1,69,0,0
1,69,75,0
1,66,75,0
1,78,82,0
1,74,82,0
1,74,0,960
1,69,0,0
1,66,0,0
1,78,0,0
1,78,81,0
1,73,81,0
1,85,89,0
1,81,89,0
1,81,0,960
1,78,0,0
1,73,0,0
1,85,0,0
1,74,85,0
1,69,78,0
1,66,78,0
1,78,85,0
1,78,0,960
1,74,0,0
1,69,0,0
1,66,0,0
1,78,82,0
1,73,82,0
1,81,90,0
1,85,90,0
1,85,0,960
1,78,0,0
1,73,0,0
1,81,0,0
1,74,74,0
1,80,81,0
1,68,74,0
1,71,74,0
1,71,0,480
1,74,0,0
1,80,0,0
1,68,0,0
1,66,75,0
1,78,82,0
1,78,0,480
1,66,0,0
1,81,88,0
1,85,88,0
1,73,80,0
1,76,80,0
1,76,0,960
1,81,0,0
1,85,0,0
1,73,0,0
1,69,77,0
1,74,84,0
1,78,84,0
1,66,77,0
1,66,0,960
1,69,0,0
1,74,0,0
1,78,0,0
1,78,80,0
1,73,80,0
1,85,88,0
1,81,88,0
1,81,0,960
1,78,0,0
1,73,0,0
1,85,0,0
1,75,79,0
1,78,79,0
1,87,86,0
1,84,86,0
1,84,0,960
1,75,0,0
1,78,0,0
1,87,0,0
1,88,77,0
1,80,70,0
1,85,77,0
1,76,70,0
1,76,0,480
1,88,0,0
1,80,0,0
1,85,0,0
1,80,68,0
1,92,75,0
1,92,0,480
1,80,0,0
1,74,71,0
1,78,71,0
1,81,71,0
1,86,78,0
1,86,0,960
1,74,0,0
1,78,0,0
1,81,0,0
1,72,61,0
1,78,61,0
1,84,61,0
1,80,61,0
1,80,0,960
1,72,0,0
1,78,0,0
1,84,0,0
1,76,55,0
1,73,55,0
1,80,55,0
1,85,55,0
1,85,0,480
1,76,0,0
1,73,0,0
1,80,0,0
1,68,44,0
1,80,44,0
1,80,0,480
1,68,0,0
1,75,44,0
1,81,44,0
1,73,44,0
1,69,44,0
1,69,0,960
1,75,0,0
1,81,0,0
1,73,0,0
1,76,38,0
1,80,38,0
1,68,38,0
1,73,38,0
1,73,0,960
1,76,0,0
1,80,0,0
1,68,0,0
1,66,47,0
1,73,47,0
1,75,47,0
1,78,47,0
1,78,0,960
1,66,0,0
1,73,0,0
1,75,0,0
1,73,52,0
1,85,52,0
1,85,0,240
1,73,0,0
1,73,84,720
1,79,84,0
1,82,84,0
1,70,84,0
1,70,0,1920
1,73,0,0
1,79,0,0
1,82,0,0
1,75,96,0
1,80,96,0
1,83,96,0
1,71,96,0
1,71,0,480
1,75,0,0
1,80,0,0
1,83,0,0
1,92,104,480
1,80,104,0
1,80,0,480
1,92,0,0
1,88,99,480
1,76,99,0
1,85,99,0
1,80,99,0
1,80,0,480
1,88,0,0
1,76,0,0
1,85,0,0
1,87,95,480
1,83,95,0
1,79,95,0
1,75,95,0
1,75,0,480
1,87,0,0
1,83,0,0
1,79,0,0
1,71,94,0
1,83,94,0
1,83,0,480
1,71,0,0
1,68,90,0
1,80,100,0
1,80,0,480
1,68,0,0
1,75,102,480
1,63,86,0
1,63,0,1440
1,75,0,0
1,78,100,0
1,66,90,0
1,66,0,240
1,78,0,0
1,76,92,0
1,64,82,0
1,64,0,240
1,76,0,0
1,63,88,0
1,75,98,0
1,75,0,480
1,63,0,0
1,64,82,0
1,76,92,0
1,76,0,480
1,64,0,0
1,75,96,0
1,63,86,0
1,63,0,480
1,75,0,0
1,80,106,0
1,68,95,0
1,68,0,480
1,80,0,0
1,82,110,0
1,70,99,0
1,70,0,480
1,82,0,0
1,83,110,0
1,71,99,0
1,71,0,480
1,83,0,0
1,82,113,0
1,70,101,0
1,70,0,960
1,82,0,0
1,80,110,0
1,68,99,0
1,68,0,480
1,80,0,0
1,85,113,480
1,73,101,0
1,73,0,960
1,85,0,0
1,80,95,0
1,92,106,0
1,92,0,480
1,80,0,0
1,85,115,480
1,73,103,0
1,73,0,960
1,85,0,0
1,92,106,0
1,80,95,0
1,80,0,480
1,92,0,0
1,92,104,0
1,80,93,0
1,80,0,480
1,92,0,0
1,87,110,0
1,75,99,0
1,75,0,960
1,87,0,0
1,85,105,0
1,73,94,0
1,73,0,960
1,85,0,0
1,83,102,0
1,71,91,0
1,71,0,480
1,83,0,0
1,87,96,0
1,75,86,0
1,75,0,480
1,87,0,0
1,82,102,0
1,70,91,0
1,70,0,480
1,82,0,0
1,80,96,480
1,68,86,0
1,68,0,960
1,80,0,0
1,78,89,0
1,66,80,0
1,66,0,480
1,78,0,0
1,76,81,0
1,64,72,0
1,64,0,480
1,76,0,0
1,75,85,0
1,63,76,0
1,63,0,480
1,75,0,0
1,51,57,480
1,51,0,1440
1,54,59,0
1,54,0,240
1,52,56,0
1,52,0,240
1,51,59,0
1,51,0,480
1,52,56,0
1,52,0,480
1,51,59,0
1,51,0,480
1,56,58,0
1,56,0,480
1,58,59,0
1,58,0,480
1,59,59,0
1,59,0,480
1,58,62,0
1,58,0,960
1,56,59,0
1,56,0,480
1,61,68,480
1,61,0,960
1,64,63,0
1,64,0,480
1,64,68,480
1,64,0,960
1,64,66,0
1,64,0,960
1,68,64,960
1,68,0,960
1,63,65,0
1,63,0,480
1,59,57,0
1,59,0,480
1,58,62,0
1,58,0,960
1,56,54,0
1,56,0,480
1,51,35,4320
1,51,0,1440
1,54,33,0
1,54,0,240
1,52,30,0
1,52,0,240
1,51,34,0
1,51,0,480
1,52,32,0
1,52,0,480
1,51,29,3840
1,51,0,1440
2,32,32,0
2,39,32,0
2,44,38,0
2,44,0,480
2,39,0,0
2,32,0,0
2,39,29,0
2,35,29,0
2,47,35,0
2,47,0,480
2,35,0,0
2,39,0,0
2,32,32,0
2,44,38,0
2,39,32,0
2,39,0,480
2,44,0,0
2,32,0,0
2,39,29,0
2,47,35,0
2,35,29,0
2,35,0,480
2,47,0,0
2,39,0,0
2,32,32,0
2,44,38,0
2,39,32,0
2,39,0,480
2,44,0,0
2,32,0,0
2,35,29,0
2,47,35,0
2,39,29,0
2,39,0,480
2,47,0,0
2,35,0,0
2,39,32,0
2,32,32,0
2,44,38,0
2,44,0,480
2,32,0,0
2,39,0,0
2,39,29,0
2,35,29,0
2,47,35,0
2,47,0,480
2,35,0,0
2,39,0,0
2,39,32,0
2,32,32,0
2,44,38,0
2,44,0,480
2,32,0,0
2,39,0,0
2,39,29,0
2,47,35,0
2,35,29,0
2,35,0,480
2,47,0,0
2,39,0,0
2,39,35,0
2,44,42,0
2,32,35,0
2,32,0,480
2,44,0,0
2,39,0,0
2,39,31,0
2,35,31,0
2,47,37,0
2,47,0,480
2,35,0,0
2,39,0,0
2,39,36,0
2,32,36,0
2,44,43,0
2,44,0,480
2,32,0,0
2,39,0,0
2,39,32,0
2,35,32,0
2,47,38,0
2,47,0,480
2,35,0,0
2,39,0,0
2,39,32,0
2,44,38,0
2,32,32,0
2,32,0,480
2,44,0,0
2,39,0,0
2,39,29,0
2,47,35,0
2,35,29,0
2,35,0,480
2,47,0,0
2,39,0,0
2,33,38,0
2,37,38,0
2,45,45,0
2,45,0,480
2,37,0,0
2,33,0,0
2,37,34,0
2,49,41,0
2,40,34,0
2,40,0,480
2,49,0,0
2,37,0,0
2,32,37,0
2,40,44,0
2,28,37,0
2,28,0,480
2,40,0,0
2,32,0,0
2,35,33,0
2,44,39,0
2,32,33,0
2,32,0,480
2,44,0,0
2,35,0,0
2,37,38,0
2,33,38,0
2,45,45,0
2,45,0,480
2,33,0,0
2,37,0,0
2,37,33,0
2,40,33,0
2,49,39,0
2,49,0,480
2,40,0,0
2,37,0,0
2,28,38,0
2,32,38,0
2,40,45,0
2,40,0,480
2,32,0,0
2,28,0,0
2,32,34,0
2,35,34,0
2,44,40,0
2,44,0,480
2,35,0,0
2,32,0,0
2,34,38,0
2,31,38,0
2,43,45,0
2,43,0,480
2,31,0,0
2,34,0,0
2,34,29,0
2,39,29,0
2,46,35,0
2,46,0,480
2,39,0,0
2,34,0,0
2,31,32,0
2,34,32,0
2,43,38,0
2,43,0,480
2,34,0,0
2,31,0,0
2,34,29,0
2,39,29,0
2,46,35,0
2,46,0,480
2,39,0,0
2,34,0,0
2,32,35,0
2,39,35,0
2,44,42,0
2,44,0,480
2,39,0,0
2,32,0,0
2,35,29,0
2,39,29,0
2,47,35,0
2,47,0,480
2,39,0,0
2,35,0,0
2,31,32,0
2,34,32,0
2,43,38,0
2,43,0,480
2,34,0,0
2,31,0,0
2,34,29,0
2,39,29,0
2,46,35,0
2,46,0,480
2,39,0,0
2,34,0,0
2,32,34,0
2,35,34,0
2,44,40,0
2,44,0,480
2,35,0,0
2,32,0,0
2,35,29,0
2,39,29,0
2,47,35,0
2,47,0,480
2,39,0,0
2,35,0,0
2,33,32,0
2,37,32,0
2,45,38,0
2,45,0,480
2,37,0,0
2,33,0,0
2,37,28,0
2,40,28,0
2,49,33,0
2,49,0,480
2,40,0,0
2,37,0,0
2,32,30,0
2,39,30,0
2,44,36,0
2,44,0,480
2,39,0,0
2,32,0,0
2,35,26,0
2,39,26,0
2,47,31,0
2,47,0,480
2,39,0,0
2,35,0,0
2,32,38,0
2,39,38,0
2,44,45,0
2,44,0,480
2,39,0,0
2,32,0,0
2,35,32,0
2,39,32,0
2,47,38,0
2,47,0,480
2,39,0,0
2,35,0,0
2,32,34,0
2,39,34,0
2,44,41,0
2,44,0,480
2,39,0,0
2,32,0,0
2,35,32,0
2,39,32,0
2,47,38,0
2,47,0,480
2,39,0,0
2,35,0,0
2,32,34,0
2,39,34,0
2,44,41,0
2,44,0,480
2,39,0,0
2,32,0,0
2,35,32,0
2,39,32,0
2,47,38,0
2,47,0,480
2,39,0,0
2,35,0,0
2,32,34,0
2,39,34,0
2,44,41,0
2,44,0,480
2,39,0,0
2,32,0,0
2,35,32,0
2,39,32,0
2,47,38,0
2,47,0,480
2,39,0,0
2,35,0,0
2,32,39,0
2,39,39,0
2,44,46,0
2,44,0,480
2,39,0,0
2,32,0,0
2,35,34,0
2,39,34,0
2,47,40,0
2,47,0,480
2,39,0,0
2,35,0,0
2,32,39,0
2,39,39,0
2,44,47,0
2,44,0,480
2,39,0,0
2,32,0,0
2,35,34,0
2,39,34,0
2,47,41,0
2,47,0,480
2,39,0,0
2,35,0,0
2,32,34,0
2,39,34,0
2,44,41,0
2,44,0,480
2,39,0,0
2,32,0,0
2,35,32,0
2,39,32,0
2,47,38,0
2,47,0,480
2,39,0,0
2,35,0,0
2,37,46,0
2,33,46,0
2,45,55,0
2,45,0,480
2,33,0,0
2,37,0,0
2,37,41,0
2,40,41,0
2,49,49,0
2,49,0,480
2,40,0,0
2,37,0,0
2,28,45,0
2,32,45,0
2,40,53,0
2,40,0,480
2,32,0,0
2,28,0,0
2,32,41,0
2,35,41,0
2,44,49,0
2,44,0,480
2,35,0,0
2,32,0,0
2,37,48,0
2,33,48,0
2,45,57,0
2,45,0,480
2,33,0,0
2,37,0,0
2,37,43,0
2,40,43,0
2,49,51,0
2,49,0,480
2,40,0,0
2,37,0,0
2,28,49,0
2,32,49,0
2,40,58,0
2,40,0,480
2,32,0,0
2,28,0,0
2,32,44,0
2,35,44,0
2,44,52,0
2,44,0,480
2,35,0,0
2,32,0,0
2,30,48,0
2,33,48,0
2,42,57,0
2,42,0,480
2,33,0,0
2,30,0,0
2,33,44,0
2,38,44,0
2,45,52,0
2,45,0,480
2,38,0,0
2,33,0,0
2,30,49,0
2,38,49,0
2,42,58,0
2,42,0,480
2,38,0,0
2,30,0,0
2,33,45,0
2,38,45,0
2,45,53,0
2,45,0,480
2,38,0,0
2,33,0,0
2,30,50,0
2,38,50,0
2,42,59,0
2,42,0,480
2,38,0,0
2,30,0,0
2,33,42,0
2,38,42,0
2,45,50,0
2,45,0,480
2,38,0,0
2,33,0,0
2,32,50,0
2,39,50,0
2,44,59,0
2,44,0,480
2,39,0,0
2,32,0,0
2,36,44,0
2,39,44,0
2,48,52,0
2,48,0,480
2,39,0,0
2,36,0,0
2,37,49,0
2,33,49,0
2,45,58,0
2,45,0,480
2,33,0,0
2,37,0,0
2,37,43,0
2,40,43,0
2,49,51,0
2,49,0,480
2,40,0,0
2,37,0,0
2,28,46,0
2,32,46,0
2,40,55,0
2,40,0,480
2,32,0,0
2,28,0,0
2,32,42,0
2,35,42,0
2,44,50,0
2,44,0,480
2,35,0,0
2,32,0,0
2,42,45,0
2,35,45,0
2,47,54,0
2,47,0,480
2,35,0,0
2,42,0,0
2,39,32,0
2,42,32,0
2,51,38,0
2,51,0,480
