track,note,velocity,time
1,77,45,479
1,81,45,0
1,86,54,0
1,86,0,480
1,81,0,0
1,77,0,0
1,81,45,0
1,84,45,0
1,88,54,0
1,88,0,240
1,93,48,0
1,93,0,240
1,84,0,0
1,81,0,0
1,81,45,0
1,86,45,0
1,89,54,0
1,89,0,480
1,86,0,0
1,81,0,0
1,81,44,0
1,84,44,0
1,88,52,0
1,88,0,240
1,93,46,0
1,93,0,240
1,84,0,0
1,81,0,0
1,82,42,0
1,86,42,0
1,89,50,0
1,89,0,480
1,86,0,0
1,82,0,0
1,79,47,0
1,82,47,0
1,86,56,0
1,86,0,480
1,82,0,0
1,79,0,0
1,100,53,0
1,91,53,0
1,88,45,0
1,88,0,480
1,91,0,0
1,100,0,0
1,94,49,0
1,91,41,0
1,88,41,0
1,88,0,480
1,91,0,0
1,94,0,0
1,93,44,0
1,91,37,0
1,88,37,0
1,88,0,480
1,91,0,0
1,93,0,0
1,67,45,960
1,70,54,0
1,70,0,480
1,67,0,0
1,64,45,0
1,69,54,0
1,69,0,480
1,64,0,0
1,65,45,0
1,69,45,0
1,74,54,0
1,74,0,480
1,69,0,0
1,65,0,0
1,69,49,0
1,73,49,0
1,76,58,0
1,76,0,240
1,81,53,0
1,81,0,240
1,73,0,0
1,69,0,0
1,69,48,0
1,74,48,0
1,77,57,0
1,77,0,480
1,74,0,0
1,69,0,0
1,69,50,0
1,72,59,0
1,76,59,0
1,76,0,240
1,81,55,0
1,81,0,240
1,72,0,0
1,69,0,0
1,65,51,0
1,74,51,0
1,77,60,0
1,77,0,450
1,74,0,0
1,65,0,0
1,62,53,30
1,70,53,0
1,74,63,0
1,74,0,480
1,70,0,0
1,62,0,0
1,64,50,0
1,67,50,0
1,76,59,0
1,76,0,480
1,67,0,0
1,64,0,0
1,65,54,0
1,70,54,0
1,58,45,0
1,58,0,480
1,70,0,0
1,65,0,0
1,57,44,0
1,69,52,0
1,64,44,0
1,64,0,450
1,69,0,0
1,57,0,0
1,61,66,990
1,49,56,0
1,49,0,960
1,61,0,0
1,67,72,0
1,55,61,0
1,55,0,480
1,67,0,0
1,64,67,0
1,52,56,0
1,52,0,480
1,64,0,0
1,69,73,0
1,57,62,0
1,57,0,720
1,69,0,0
1,81,75,240
1,69,63,0
1,69,0,480
1,81,0,0
1,70,66,0
1,82,78,0
1,82,0,480
1,70,0,0
1,81,74,0
1,69,62,0
1,69,0,480
1,81,0,0
1,67,63,0
1,79,75,0
1,79,0,240
1,67,0,0
1,65,61,0
1,77,72,0
1,77,0,240
1,65,0,0
1,69,61,0
1,81,72,0
1,81,0,480
1,69,0,0
1,70,66,0
1,82,78,0
1,82,0,480
1,70,0,0
1,64,61,0
1,76,72,0
1,76,0,480
1,64,0,0
1,69,61,0
1,81,72,0
1,81,0,240
1,69,0,0
1,70,56,0
1,82,67,0
1,82,0,240
1,70,0,0
1,64,58,0
1,76,69,0
1,76,0,480
1,64,0,0
1,70,72,0
1,82,72,0
1,82,0,240
1,70,0,0
1,72,66,0
1,84,66,0
1,84,0,240
1,72,0,0
1,69,68,0
1,81,68,0
1,81,0,450
1,69,0,0
1,81,81,30
1,93,81,0
1,93,0,480
1,81,0,0
1,77,84,0
1,89,84,0
1,89,0,480
1,77,0,0
1,76,76,0
1,88,76,0
1,88,0,240
1,76,0,0
1,86,71,0
1,74,71,0
1,74,0,240
1,86,0,0
1,69,63,0
1,81,63,0
1,81,0,480
1,69,0,0
1,57,50,480
1,57,0,480
1,69,50,0
1,69,0,420
1,86,47,0
1,86,0,60
1,84,68,0
1,81,57,0
1,77,57,0
1,77,0,60
1,81,0,0
1,84,0,0
1,73,50,180
1,80,59,0
1,77,50,0
1,77,0,60
1,80,0,0
1,73,0,0
1,69,45,660
1,69,0,480
1,81,36,480
1,81,0,240
1,86,45,180
1,86,0,60
1,84,45,0
1,81,38,0
1,77,38,0
1,77,0,120
1,81,0,0
1,84,0,0
1,84,33,300
1,84,0,60
1,83,40,0
1,80,34,0
1,77,34,0
1,77,0,120
1,80,0,0
1,83,0,0
1,86,40,300
1,86,0,60
1,84,45,0
1,81,38,0
1,77,38,0
1,77,0,120
1,81,0,0
1,84,0,0
1,80,45,360
1,77,38,0
1,73,38,0
1,73,0,120
1,77,0,0
1,80,0,0
1,86,31,60
1,86,0,60
1,84,37,0
1,81,31,0
1,77,31,0
1,77,0,120
1,81,0,0
1,84,0,0
1,86,45,60
1,86,0,60
1,84,45,0
1,81,38,0
1,77,38,0
1,77,0,120
1,81,0,0
1,84,0,0
1,84,33,300
1,84,0,60
1,83,40,0
1,80,34,0
1,77,34,0
1,77,0,120
1,80,0,0
1,83,0,0
1,86,40,300
1,86,0,60
1,84,45,0
1,81,38,0
1,77,38,0
1,77,0,120
1,81,0,0
1,84,0,0
1,80,45,360
1,77,38,0
1,73,38,0
1,73,0,120
1,77,0,0
1,80,0,0
1,66,32,540
1,66,0,60
1,67,32,0
1,64,27,0
1,64,0,120
1,67,0,0
1,69,32,300
1,69,0,60
1,70,33,0
1,67,28,0
1,67,0,120
1,70,0,0
1,71,32,300
1,71,0,60
1,68,29,0
1,72,35,0
1,72,0,120
1,68,0,0
1,74,32,300
1,74,0,60
1,75,37,0
1,72,31,0
1,72,0,120
1,75,0,0
1,77,32,300
1,77,0,60
1,78,39,0
1,75,33,0
1,75,0,120
1,78,0,0
1,81,32,300
1,81,0,60
1,82,40,0
1,78,34,0
1,78,0,120
1,82,0,0
1,86,32,300
1,86,0,60
1,87,39,0
1,82,33,0
1,79,33,0
1,79,0,120
1,82,0,0
1,87,0,0
1,93,32,300
1,93,0,60
1,91,39,0
1,88,33,0
1,84,33,0
1,84,0,120
1,88,0,0
1,91,0,0
1,86,45,60
1,86,0,60
1,84,45,0
1,81,38,0
1,77,38,0
1,77,0,120
1,81,0,0
1,84,0,0
1,84,33,300
1,84,0,60
1,83,40,0
1,80,34,0
1,77,34,0
1,77,0,120
1,80,0,0
1,83,0,0
1,86,40,300
1,86,0,60
1,84,45,0
1,81,38,0
1,77,38,0
1,77,0,120
1,81,0,0
1,84,0,0
1,84,33,300
1,84,0,60
1,80,38,0
1,77,38,0
1,83,45,0
1,83,0,120
1,77,0,0
1,80,0,0
1,86,31,60
1,86,0,60
1,84,37,0
1,81,31,0
1,77,31,0
1,77,0,120
1,81,0,0
1,84,0,0
1,86,45,60
1,86,0,60
1,84,45,0
1,81,38,0
1,77,38,0
1,77,0,120
1,81,0,0
1,84,0,0
1,84,33,300
1,84,0,60
1,83,40,0
1,80,34,0
1,77,34,0
1,77,0,120
1,80,0,0
1,83,0,0
1,86,40,300
1,86,0,60
1,84,45,0
1,81,38,0
1,77,38,0
1,77,0,120
1,81,0,0
1,84,0,0
1,80,45,360
1,77,38,0
1,73,38,0
1,73,0,120
1,77,0,0
1,80,0,0
1,70,32,540
1,70,0,60
1,71,32,0
1,68,27,0
1,68,0,120
1,71,0,0
1,72,32,300
1,72,0,60
1,73,33,0
1,69,28,0
1,69,0,120
1,73,0,0
1,75,32,300
1,75,0,60
1,73,29,0
1,76,35,0
1,76,0,120
1,73,0,0
1,77,32,300
1,77,0,60
1,78,37,0
1,74,31,0
1,74,0,120
1,78,0,0
1,72,32,300
1,72,0,60
1,73,32,0
1,70,27,0
1,70,0,120
1,73,0,0
1,74,32,300
1,74,0,60
1,75,33,0
1,71,31,0
1,71,0,120
1,75,0,0
1,76,32,300
1,76,0,60
1,73,29,0
1,77,35,0
1,77,0,120
1,73,0,0
1,79,32,300
1,79,0,60
1,80,37,0
1,76,31,0
1,76,0,120
1,80,0,0
1,93,55,60
1,93,0,60
1,94,63,0
1,90,53,0
1,90,0,120
1,94,0,0
1,92,51,300
1,92,0,60
1,93,56,0
1,89,47,0
1,89,0,120
1,93,0,0
1,82,50,300
1,82,0,60
1,83,55,0
1,81,46,0
1,81,0,120
1,83,0,0
1,82,47,300
1,82,0,60
1,84,52,0
1,79,44,0
1,79,0,120
1,84,0,0
1,88,53,300
1,88,0,60
1,89,57,0
1,85,48,0
1,85,0,120
1,89,0,0
1,85,51,300
1,85,0,60
1,82,45,0
1,86,54,0
1,86,0,120
1,82,0,0
1,76,55,300
1,76,0,60
1,73,51,0
1,77,60,0
1,77,0,120
1,73,0,0
1,78,53,300
1,78,0,60
1,79,57,0
1,76,48,0
1,76,0,120
1,79,0,0
1,85,79,360
1,85,0,1200
1,84,59,180
1,84,0,60
1,72,75,0
1,72,0,120
1,86,45,300
1,86,0,60
1,84,45,0
1,81,38,0
1,77,38,0
1,77,0,120
1,81,0,0
1,84,0,0
1,84,33,300
1,84,0,60
1,83,40,0
1,80,34,0
1,77,34,0
1,77,0,120
1,80,0,0
1,83,0,0
1,86,40,300
1,86,0,60
1,84,45,0
1,81,38,0
1,77,38,0
1,77,0,120
1,81,0,0
1,84,0,0
1,80,45,360
1,77,38,0
1,73,38,0
1,73,0,120
1,77,0,0
1,80,0,0
1,86,31,60
1,86,0,60
1,84,37,0
1,81,31,0
1,77,31,0
1,77,0,120
1,81,0,0
1,84,0,0
1,86,45,60
1,86,0,60
1,84,45,0
1,81,38,0
1,77,38,0
1,77,0,120
1,81,0,0
1,84,0,0
1,84,33,300
1,84,0,60
1,83,40,0
1,80,34,0
1,77,34,0
1,77,0,120
1,80,0,0
1,83,0,0
1,86,40,300
1,86,0,60
1,84,45,0
1,81,38,0
1,77,38,0
1,77,0,120
1,81,0,0
1,84,0,0
1,80,45,360
1,77,38,0
1,73,38,0
1,73,0,120
1,77,0,0
1,80,0,0
1,66,32,540
1,66,0,60
1,67,32,0
1,64,27,0
1,64,0,120
1,67,0,0
1,69,32,300
1,69,0,60
1,70,33,0
1,67,28,0
1,67,0,120
1,70,0,0
1,71,32,300
1,71,0,60
1,68,29,0
1,72,35,0
1,72,0,120
1,68,0,0
1,74,32,300
1,74,0,60
1,75,37,0
1,72,32,0
1,72,0,120
1,75,0,0
1,77,32,300
1,77,0,60
1,78,39,0
1,75,33,0
1,75,0,120
1,78,0,0
1,81,32,300
1,81,0,60
1,82,40,0
1,78,34,0
1,78,0,120
1,82,0,0
1,86,32,300
1,86,0,60
1,87,39,0
1,82,33,0
1,79,33,0
1,79,0,120
1,82,0,0
1,87,0,0
1,93,32,300
1,93,0,60
1,91,39,0
1,88,33,0
1,84,33,0
1,84,0,120
1,88,0,0
1,91,0,0
1,86,45,60
1,86,0,60
1,84,45,0
1,81,38,0
1,77,38,0
1,77,0,120
1,81,0,0
1,84,0,0
1,84,33,300
1,84,0,60
1,83,40,0
1,80,34,0
1,77,34,0
1,77,0,120
1,80,0,0
1,83,0,0
1,86,40,300
1,86,0,60
1,84,45,0
1,81,38,0
1,77,38,0
1,77,0,120
1,81,0,0
1,84,0,0
1,84,33,300
1,84,0,60
1,80,38,0
1,77,38,0
1,83,45,0
1,83,0,120
1,77,0,0
1,80,0,0
1,86,31,60
1,86,0,60
1,84,37,0
1,81,31,0
1,77,31,0
1,77,0,120
1,81,0,0
1,84,0,0
1,86,45,60
1,86,0,60
1,84,45,0
1,81,38,0
1,77,38,0
1,77,0,120
1,81,0,0
1,84,0,0
1,84,33,300
1,84,0,60
1,83,40,0
1,80,34,0
1,77,34,0
1,77,0,120
1,80,0,0
1,83,0,0
1,86,40,300
1,86,0,60
1,84,45,0
1,81,38,0
1,77,38,0
1,77,0,120
1,81,0,0
1,84,0,0
1,80,45,360
1,77,38,0
1,73,38,0
1,73,0,120
1,77,0,0
1,80,0,0
1,70,32,540
1,70,0,60
1,71,32,0
1,68,27,0
1,68,0,120
1,71,0,0
1,72,32,300
1,72,0,60
1,73,33,0
1,69,28,0
1,69,0,120
1,73,0,0
1,75,32,300
1,75,0,60
1,73,29,0
1,76,35,0
1,76,0,120
1,73,0,0
1,77,32,300
1,77,0,60
1,78,37,0
1,74,31,0
1,74,0,120
1,78,0,0
1,72,32,300
1,72,0,60
1,73,32,0
1,70,27,0
1,70,0,120
1,73,0,0
1,74,32,300
1,74,0,60
1,75,33,0
1,71,28,0
1,71,0,120
1,75,0,0
1,76,32,300
1,76,0,60
1,73,29,0
1,77,35,0
1,77,0,120
1,73,0,0
1,79,32,300
1,79,0,60
1,80,37,0
1,76,31,0
1,76,0,120
1,80,0,0
1,93,55,60
1,93,0,60
1,94,65,0
1,90,55,0
1,90,0,120
1,94,0,0
1,92,51,300
1,92,0,60
1,93,59,0
1,89,50,0
1,89,0,120
1,93,0,0
1,82,50,300
1,82,0,60
1,83,57,0
1,81,48,0
1,81,0,120
1,83,0,0
1,82,47,300
1,82,0,60
1,84,55,0
1,79,46,0
1,79,0,120
1,84,0,0
1,88,53,300
1,88,0,60
1,89,59,0
1,85,50,0
1,85,0,120
1,89,0,0
1,85,51,300
1,85,0,60
1,82,47,0
1,86,56,0
1,86,0,120
1,82,0,0
1,76,55,300
1,76,0,60
1,73,51,0
1,77,60,0
1,77,0,120
1,73,0,0
1,78,53,300
1,78,0,60
1,79,57,0
1,76,48,0
1,76,0,120
1,79,0,0
1,85,79,360
1,85,0,1200
1,84,59,180
1,84,0,60
1,72,75,0
1,72,0,120
1,91,38,280
1,91,0,80
1,86,41,0
1,89,41,0
1,89,0,80
1,91,33,0
1,91,0,80
1,89,41,0
1,89,0,80
1,91,33,0
1,91,0,80
1,89,41,0
1,89,0,80
1,91,33,0
1,91,0,80
1,89,41,0
1,89,0,80
1,91,33,0
1,91,0,80
1,89,41,0
1,89,0,80
1,91,33,0
1,91,0,80
1,89,41,0
1,89,0,80
1,88,35,0
1,88,0,60
1,86,0,20
1,83,37,0
1,86,37,0
1,86,0,80
1,88,30,0
1,88,0,80
1,86,37,0
1,86,0,80
1,88,31,0
1,88,0,80
1,86,37,0
1,86,0,80
1,88,36,0
1,88,0,80
1,86,37,0
1,86,0,80
1,88,32,0
1,88,0,80
1,86,37,0
1,86,0,80
1,88,31,0
1,88,0,80
1,86,37,0
1,86,0,80
1,86,38,0
1,86,0,80
1,83,0,0
1,81,41,0
1,84,41,0
1,84,0,80
1,86,32,0
1,86,0,80
1,84,37,0
1,84,0,80
1,86,31,0
1,86,0,80
1,84,37,0
1,84,0,80
1,88,38,0
1,88,0,80
1,81,0,0
1,83,37,0
1,86,37,0
1,86,0,80
1,88,32,0
1,88,0,80
1,86,37,0
1,86,0,80
1,88,33,0
1,88,0,80
1,86,36,0
1,86,0,80
1,86,38,0
1,86,0,80
1,83,0,0
1,81,39,0
1,84,39,0
1,84,0,80
1,86,34,0
1,86,0,80
1,84,39,0
1,84,0,80
1,86,33,0
1,86,0,80
1,84,39,0
1,84,0,80
1,85,38,0
1,85,0,80
1,81,0,0
1,77,36,0
1,83,36,0
1,83,0,80
1,85,31,0
1,85,0,80
1,83,36,0
1,83,0,80
1,85,31,0
1,85,0,80
1,83,37,0
1,83,0,80
1,86,36,0
1,86,0,80
1,77,0,0
1,81,37,0
1,84,37,0
1,84,0,80
1,86,30,0
1,86,0,80
1,84,37,0
1,84,0,80
1,86,31,0
1,86,0,80
1,84,36,0
1,84,0,80
1,86,31,0
1,86,0,80
1,84,36,0
1,84,0,80
1,86,31,0
1,86,0,80
1,84,36,0
1,84,0,80
1,86,30,0
1,86,0,80
1,84,35,0
1,84,0,80
1,85,35,0
1,85,0,80
1,81,0,0
1,77,35,0
1,83,35,0
1,83,0,80
1,85,28,0
1,85,0,80
1,83,35,0
1,83,0,80
1,85,29,0
1,85,0,80
1,83,35,0
1,83,0,80
1,85,30,0
1,85,0,80
1,83,35,0
1,83,0,80
1,85,30,0
1,85,0,80
1,83,34,0
1,83,0,80
1,85,29,0
1,85,0,80
1,83,34,0
1,83,0,80
1,83,33,0
1,83,0,80
1,77,0,0
1,74,34,0
1,81,34,0
1,81,0,80
1,83,27,0
1,83,0,80
1,81,32,0
1,81,0,80
1,83,28,0
1,83,0,80
1,81,32,0
1,81,0,80
1,83,29,0
1,83,0,80
1,81,31,0
1,81,0,80
1,83,29,0
