track,note,velocity,time
1,55,34,2880
1,60,40,0
1,60,0,456
1,55,0,0
1,60,31,24
1,67,37,0
1,67,0,456
1,60,0,0
1,60,34,24
1,63,40,0
1,63,0,240
1,60,0,0
1,59,31,0
1,62,37,0
1,62,0,180
1,59,0,0
1,63,34,0
1,63,0,60
1,55,34,0
1,60,40,0
1,60,0,220
1,55,0,0
1,55,34,2180
1,60,40,0
1,60,0,456
1,55,0,0
1,60,31,24
1,67,37,0
1,67,0,456
1,60,0,0
1,60,34,24
1,63,40,0
1,63,0,240
1,60,0,0
1,59,31,0
1,62,37,0
1,62,0,180
1,59,0,0
1,63,34,0
1,63,0,60
1,55,34,0
1,60,40,0
1,60,0,470
1,55,0,0
1,55,34,10
1,60,40,0
1,60,0,220
1,55,0,0
1,55,31,20
1,59,37,0
1,59,0,110
1,55,0,0
1,55,34,10
1,60,34,0
1,60,0,110
1,55,0,0
1,55,34,10
1,62,40,0
1,62,0,470
1,55,0,0
1,55,34,10
1,60,40,0
1,60,0,220
1,55,0,0
1,55,31,20
1,59,37,0
1,59,0,110
1,55,0,0
1,55,34,10
1,60,34,0
1,60,0,110
1,55,0,0
1,59,34,10
1,62,40,0
1,62,0,470
1,59,0,0
1,55,34,10
1,60,40,0
1,60,0,465
1,55,0,0
1,58,35,15
1,67,42,0
1,67,0,228
1,58,0,0
1,58,37,12
1,67,44,0
1,67,0,228
1,58,0,0
1,60,37,12
1,63,44,0
1,63,0,240
1,60,0,0
1,59,31,0
1,62,37,0
1,62,0,180
1,59,0,0
1,63,34,0
1,63,0,60
1,55,34,0
1,60,40,0
1,55,31,240
1,55,0,64
1,55,31,16
1,55,0,64
1,55,26,16
1,55,0,64
1,60,0,6
1,55,0,0
1,55,37,10
1,60,37,120
1,60,0,120
1,62,37,120
1,62,0,120
1,63,37,120
1,63,0,120
1,60,39,120
1,60,0,120
1,59,33,120
1,59,0,120
1,60,32,120
1,60,0,120
1,62,28,120
1,62,0,360
1,55,0,0
1,55,34,0
1,60,40,0
1,60,0,456
1,55,0,0
1,60,31,24
1,67,37,0
1,67,0,456
1,60,0,0
1,60,34,24
1,63,40,0
1,63,0,240
1,60,0,0
1,59,31,0
1,62,37,0
1,62,0,180
1,59,0,0
1,63,34,0
1,63,0,60
1,60,40,0
1,60,0,1200
1,67,31,0
1,67,0,64
1,67,31,16
1,67,0,64
1,67,26,16
1,67,0,64
1,67,37,16
1,60,28,80
1,72,33,0
1,72,0,64
1,60,0,0
1,60,28,16
1,72,33,0
1,72,0,64
1,60,0,0
1,62,27,96
1,74,32,0
1,74,0,64
1,62,0,0
1,62,27,16
1,74,32,0
1,74,0,64
1,62,0,0
1,63,28,96
1,75,34,0
1,75,0,64
1,63,0,0
1,63,28,16
1,75,34,0
1,75,0,64
1,63,0,0
1,60,28,96
1,72,33,0
1,72,0,64
1,60,0,0
1,60,28,16
1,72,33,0
1,72,0,64
1,60,0,0
1,59,31,96
1,71,37,0
1,71,0,64
1,59,0,0
1,59,32,16
1,71,38,0
1,71,0,64
1,59,0,0
1,62,42,96
1,74,49,0
1,74,0,64
1,62,0,0
1,62,42,16
1,74,50,0
1,74,0,64
1,62,0,0
1,67,0,16
1,68,56,120
1,80,65,0
1,80,0,360
1,68,0,0
1,68,38,0
1,73,45,0
1,73,0,451
1,68,0,0
1,68,39,29
1,72,39,0
1,75,39,0
1,80,47,0
1,80,0,451
1,75,0,0
1,72,0,24
1,68,0,0
1,68,28,5
1,73,28,0
1,80,40,0
1,80,0,240
1,73,0,0
1,68,0,0
1,65,26,0
1,71,26,0
1,74,37,0
1,75,34,173
1,74,0,7
1,65,0,0
1,71,0,0
1,75,0,53
1,63,34,7
1,72,40,0
1,72,0,480
1,63,0,0
1,55,30,120
1,60,30,0
1,60,0,60
1,55,0,0
1,55,34,60
1,59,34,0
1,59,0,60
1,55,0,0
1,55,30,60
1,60,30,0
1,60,0,60
1,55,0,0
1,55,33,180
1,59,33,0
1,62,33,0
1,62,0,60
1,59,0,0
1,55,0,0
1,67,60,60
1,60,31,320
1,72,37,0
1,72,0,64
1,60,0,0
1,60,32,16
1,72,38,0
1,72,0,64
1,60,0,0
1,59,45,96
1,71,53,0
1,71,0,64
1,59,0,0
1,60,47,16
1,72,56,0
1,72,0,64
1,60,0,0
1,62,57,136
1,74,65,0
1,74,0,60
1,62,0,0
1,67,0,60
1,68,56,0
1,80,65,0
1,73,48,240
1,73,0,460
1,80,0,20
1,68,0,0
1,69,51,0
1,72,51,0
1,75,51,0
1,81,61,0
1,81,0,340
1,69,0,0
1,72,0,0
1,75,0,0
1,69,35,20
1,72,35,0
1,75,35,0
1,81,42,0
1,81,0,100
1,69,0,0
1,72,0,0
1,75,0,0
1,72,30,20
1,75,30,0
1,79,36,0
1,79,0,120
1,75,0,0
1,72,0,0
1,59,31,120
1,62,37,0
1,62,0,180
1,59,0,0
1,63,34,0
1,63,0,60
1,60,40,0
1,60,0,1200
1,79,40,0
1,79,0,80
1,91,49,0
1,91,0,80
1,89,43,0
1,89,0,50
1,87,51,30
1,87,0,80
1,86,43,0
1,86,0,80
1,84,43,0
1,84,0,80
1,83,50,0
1,83,0,80
1,84,40,0
1,84,0,80
1,86,40,0
1,86,0,80
1,84,49,0
1,84,0,20
1,86,45,0
1,86,0,20
1,84,51,0
1,84,0,40
1,79,42,0
1,79,0,80
1,77,42,0
1,77,0,80
1,75,47,0
1,75,0,80
1,74,40,0
1,74,0,80
1,72,40,0
1,72,0,80
1,74,46,0
1,74,0,80
1,79,38,0
1,79,0,80
1,67,38,0
1,67,0,80
1,66,42,0
1,66,0,80
1,69,37,0
1,69,0,80
1,72,37,0
1,72,0,80
1,70,49,0
1,70,0,20
1,72,45,0
1,72,0,20
1,70,51,0
1,70,0,40
1,69,36,0
1,69,0,80
1,67,38,0
1,67,0,320
1,69,46,0
1,69,0,80
1,62,38,0
1,62,0,80
1,74,38,0
1,74,0,80
1,73,46,0
1,73,0,80
1,76,37,0
1,76,0,80
1,79,39,0
1,79,0,80
1,77,49,0
1,77,0,20
1,79,45,0
1,79,0,20
1,77,51,0
1,77,0,40
1,76,36,0
1,76,0,80
1,74,38,0
1,74,0,290
1,74,44,30
1,70,51,0
1,70,0,80
1,69,43,0
1,69,0,80
1,67,43,0
1,67,0,80
1,66,50,0
1,66,0,80
1,67,40,0
1,67,0,80
1,69,40,0
1,69,0,80
1,74,0,0
1,79,42,0
1,70,51,0
1,70,0,80
1,69,42,0
1,69,0,80
1,70,42,0
1,70,0,80
1,75,47,0
1,75,0,80
1,70,40,0
1,70,0,80
1,67,40,0
1,67,0,50
1,79,0,30
1,77,44,0
1,74,51,0
1,74,0,80
1,72,43,0
1,72,0,80
1,70,43,0
1,70,0,80
1,77,0,0
1,75,42,0
1,69,50,0
1,69,0,80
1,70,40,0
1,70,0,80
1,69,40,0
1,69,0,80
1,75,0,0
1,74,47,0
1,70,49,0
1,70,0,20
1,72,45,0
1,72,0,20
1,70,51,0
1,70,0,40
1,69,42,0
1,69,0,80
1,67,42,0
1,67,0,320
1,74,0,0
1,74,47,0
1,70,49,0
1,70,0,20
1,72,45,0
1,72,0,20
1,70,51,0
1,70,0,40
1,69,42,0
1,69,0,80
1,67,42,0
1,67,0,80
1,66,47,0
1,66,0,80
1,67,42,0
1,67,0,80
1,69,45,0
1,69,0,80
1,74,0,0
1,79,51,0
1,70,49,0
1,70,0,80
1,69,43,0
1,69,0,80
1,70,43,0
1,70,0,80
1,79,0,0
1,77,50,0
1,74,47,0
1,74,0,80
1,75,41,0
1,75,0,80
1,74,39,0
1,74,0,80
1,77,0,0
1,75,51,0
1,72,49,0
1,72,0,20
1,74,45,0
1,74,0,20
1,72,51,0
1,72,0,40
1,71,42,0
1,71,0,80
1,70,42,0
1,70,0,80
1,75,0,0
1,68,47,0
1,74,50,0
1,68,0,80
1,67,42,0
1,67,0,80
1,65,45,0
1,65,0,80
1,74,0,0
1,72,47,0
1,63,49,0
1,63,0,20
1,65,45,0
1,65,0,20
1,63,51,0
1,63,0,40
1,62,42,0
1,62,0,80
1,60,42,0
1,72,0,320
1,60,0,720
1,71,39,0
1,74,39,0
1,79,47,0
1,77,39,0
1,77,0,240
1,71,0,0
1,74,0,0
1,79,0,0
1,84,48,0
1,79,40,0
1,75,40,0
1,72,40,0
1,72,0,228
1,84,0,0
1,79,0,0
1,75,0,0
1,86,52,12
1,79,44,0
1,77,44,0
1,74,44,0
1,74,0,228
1,86,0,0
1,79,0,0
1,77,0,0
1,87,53,12
1,79,45,0
1,75,45,0
1,75,0,228
1,79,0,0
1,87,0,0
1,84,52,12
1,79,44,0
1,72,44,0
1,72,0,228
1,79,0,0
1,84,0,0
1,83,55,12
1,79,46,0
1,74,46,0
1,71,46,0
1,71,0,228
1,83,0,0
1,79,0,0
1,74,0,0
1,86,50,12
1,84,42,0
1,81,42,0
1,74,42,0
1,74,0,228
1,86,0,0
1,84,0,0
1,81,0,0
1,91,55,12
1,86,46,0
1,82,46,0
1,79,46,0
1,79,0,480
1,91,0,0
1,86,0,0
1,82,0,0
1,90,61,0
1,86,51,0
1,81,51,0
1,78,51,0
1,78,0,228
1,90,0,0
1,86,0,0
1,81,0,0
1,93,54,12
1,91,45,0
1,88,45,0
1,81,45,0
1,81,0,228
1,93,0,0
1,91,0,0
1,88,0,0
1,98,63,12
1,93,53,0
1,89,53,0
1,86,53,0
1,86,0,480
1,98,0,0
1,93,0,0
1,89,0,0
1,65,48,0
1,74,57,0
1,74,0,480
1,65,0,0
1,67,50,0
1,70,50,0
1,79,59,0
1,79,0,480
1,70,0,0
1,67,0,0
1,77,44,0
1,74,49,0
1,74,0,20
1,75,45,0
1,75,0,20
1,74,51,0
1,74,0,40
1,72,43,0
1,72,0,80
1,70,43,0
1,70,0,80
1,77,0,0
1,75,42,0
1,69,50,0
1,69,0,80
1,70,40,0
1,70,0,80
1,72,40,0
1,72,0,80
1,75,0,0
1,74,47,0
1,70,49,0
1,70,0,20
1,72,45,0
1,72,0,20
1,70,51,0
1,70,0,40
1,69,42,0
1,69,0,80
1,67,42,0
1,67,0,320
1,74,0,0
1,65,39,0
1,74,47,0
1,74,0,480
1,65,0,0
1,79,51,0
1,67,41,0
1,67,0,240
1,79,0,0
1,77,50,0
1,70,49,0
1,70,0,20
1,72,45,0
1,72,0,20
1,70,51,0
1,70,0,40
1,69,41,0
1,69,0,80
1,70,39,0
1,70,0,80
1,77,0,0
1,72,49,0
1,75,51,0
1,72,0,20
1,74,45,0
1,74,0,20
1,72,51,0
1,72,0,40
1,71,42,0
1,71,0,80
1,70,42,0
1,70,0,80
1,75,0,0
1,74,50,0
1,68,49,0
1,68,0,20
1,70,45,0
1,70,0,20
1,68,51,0
1,68,0,40
1,67,42,0
1,67,0,80
1,65,45,0
1,65,0,80
1,74,0,0
1,63,49,0
1,72,47,0
1,63,0,20
1,65,45,0
1,65,0,20
1,63,51,0
1,63,0,40
1,62,42,0
1,62,0,80
1,60,42,0
1,60,0,320
1,72,0,0
1,56,34,0
1,60,40,0
1,60,0,220
1,56,0,0
1,55,31,20
1,58,37,0
1,58,0,110
1,55,0,0
1,56,34,10
1,60,34,0
1,60,0,110
1,56,0,0
1,56,34,10
1,61,40,0
1,61,0,470
1,56,0,0
1,56,28,10
1,60,40,0
1,60,0,220
1,56,0,0
1,55,39,20
1,58,47,0
1,58,0,110
1,55,0,0
1,56,36,10
1,60,43,0
1,60,0,110
1,56,0,0
1,58,49,10
1,63,58,0
1,63,0,470
1,58,0,0
1,56,38,10
1,60,45,0
1,60,0,465
1,56,0,0
1,61,42,15
1,68,50,0
1,68,0,228
1,61,0,0
1,62,47,12
1,68,56,0
1,68,0,228
1,62,0,0
1,63,46,12
1,67,55,0
1,67,0,240
1,63,0,0
1,59,31,0
1,62,37,0
1,62,0,180
1,59,0,0
1,63,34,0
1,63,0,60
1,55,34,0
1,60,40,0
1,60,0,470
1,55,0,0
1,56,34,10
1,60,40,0
1,60,0,220
1,56,0,0
1,55,31,20
1,58,37,0
1,58,0,110
1,55,0,0
1,56,34,10
1,60,34,0
1,60,0,110
1,56,0,0
1,56,34,17
1,61,40,0
1,80,28,173
1,85,28,0
1,92,34,0
1,92,0,45
1,80,0,0
1,85,0,0
1,82,24,15
1,85,24,0
1,91,29,0
1,91,0,45
1,82,0,0
1,85,0,0
1,80,23,15
1,85,23,0
1,89,28,0
1,89,0,45
1,80,0,0
1,85,0,0
1,80,28,15
1,85,28,0
1,89,34,0
1,61,0,7
1,56,0,0
1,85,0,38
1,80,0,0
1,89,0,0
1,79,28,15
1,87,30,0
1,87,0,45
1,79,0,0
1,79,25,15
1,85,25,0
1,87,30,0
1,87,0,45
1,85,0,0
1,79,0,0
1,80,28,15
1,85,28,0
1,92,34,0
1,92,0,45
1,85,0,0
1,80,0,0
1,82,22,15
1,85,22,0
1,91,27,0
1,91,0,45
1,85,0,0
1,82,0,0
1,80,22,15
1,85,22,0
1,89,27,0
1,89,0,45
1,85,0,0
1,80,0,0
1,80,28,15
1,85,28,0
1,89,34,0
1,89,0,45
1,85,0,0
1,80,0,0
1,79,30,15
1,87,34,0
1,87,0,45
1,79,0,0
1,79,25,15
1,85,25,0
1,87,30,0
1,87,0,45
1,85,0,0
1,79,0,0
1,56,34,195
1,60,40,0
1,60,0,220
1,56,0,0
1,55,31,20
1,58,37,0
1,58,0,110
1,55,0,0
1,56,34,10
1,60,34,0
1,60,0,110
1,56,0,0
1,58,34,10
1,63,40,0
1,82,28,180
1,87,28,0
1,94,34,0
1,94,0,45
1,82,0,0
1,87,0,0
1,84,24,15
1,87,24,0
1,93,29,0
1,93,0,45
1,84,0,0
1,87,0,0
1,82,23,15
1,87,23,0
1,91,28,0
1,91,0,45
1,82,0,0
1,87,0,0
1,63,0,15
1,58,0,0
1,82,28,0
1,87,28,0
1,91,34,0
1,91,0,45
1,87,0,0
1,82,0,0
1,81,28,15
1,89,30,0
1,89,0,45
1,81,0,0
1,81,25,15
1,87,25,0
1,89,30,0
1,89,0,45
1,87,0,0
1,81,0,0
1,82,28,15
1,87,28,0
1,94,34,0
1,94,0,45
1,87,0,0
1,82,0,0
1,84,22,15
1,87,22,0
1,93,27,0
1,93,0,45
1,87,0,0
1,84,0,0
1,82,22,15
1,87,22,0
1,91,27,0
1,91,0,45
1,87,0,0
1,82,0,0
1,82,28,15
1,87,28,0
1,91,34,0
1,91,0,45
1,87,0,0
1,82,0,0
1,81,30,15
1,89,34,0
1,89,0,45
1,81,0,0
1,81,25,15
1,87,25,0
1,89,30,0
1,89,0,45
1,87,0,0
1,81,0,0
1,65,39,195
1,74,47,0
1,74,0,480
1,65,0,0
1,79,51,0
1,67,41,0
1,67,0,240
1,79,0,0
1,77,50,0
1,70,49,0
1,70,0,20
1,72,45,0
1,72,0,20
1,70,51,0
1,70,0,40
1,69,41,0
1,69,0,80
1,70,39,0
1,70,0,80
1,77,0,0
1,72,49,0
1,75,51,0
1,72,0,20
1,74,45,0
1,74,0,20
1,72,51,0
1,72,0,40
1,71,42,0
1,71,0,80
1,70,42,0
1,70,0,80
1,75,0,0
1,74,50,0
1,68,49,0
1,68,0,20
1,70,45,0
1,70,0,20
1,68,51,0
1,68,0,40
1,67,42,0
1,67,0,80
1,65,45,0
1,65,0,80
1,74,0,0
1,63,49,0
1,72,47,0
1,63,0,20
1,65,45,0
1,65,0,20
1,63,51,0
1,63,0,40
1,62,42,0
1,62,0,80
1,60,42,0
1,60,0,1040
1,72,0,0
1,79,81,0
1,65,60,80
1,71,60,0
1,71,0,80
1,65,0,0
1,79,0,0
1,77,63,0
1,77,0,80
1,76,75,0
1,67,50,80
1,72,50,0
1,72,0,80
1,67,0,0
1,64,50,0
1,64,0,80
1,76,0,0
1,74,71,0
1,67,50,80
1,71,50,0
1,71,0,80
1,67,0,0
1,65,50,0
1,65,0,80
1,74,0,0
1,72,77,0
1,67,50,80
