track,note,velocity,time
1,76,67,90
1,79,67,0
1,72,67,0
1,84,80,0
1,84,0,630
1,76,0,0
1,79,0,0
1,72,0,0
1,64,70,0
1,60,59,0
1,52,59,0
1,52,0,220
1,60,0,0
1,64,0,0
1,64,74,20
1,52,62,0
1,60,62,0
1,60,0,480
1,52,0,0
1,64,0,0
1,60,60,0
1,53,60,0
1,65,71,0
1,65,0,120
1,53,0,0
1,60,0,0
1,55,63,120
1,60,63,0
1,67,75,0
1,67,0,120
1,60,0,0
1,55,0,0
1,57,66,120
1,60,66,0
1,69,78,0
1,69,0,120
1,60,0,0
1,57,0,0
1,55,62,360
1,67,74,0
1,60,62,0
1,60,0,120
1,67,0,0
1,55,0,0
1,52,59,1080
1,60,59,0
1,64,70,0
1,64,0,216
1,60,0,0
1,52,0,0
1,64,77,24
1,60,65,0
1,52,65,0
1,52,0,480
1,60,0,0
1,64,0,0
1,53,65,0
1,60,65,0
1,65,77,0
1,65,0,120
1,60,0,0
1,53,0,0
1,55,68,120
1,67,80,0
1,60,68,0
1,60,0,120
1,67,0,0
1,55,0,0
1,60,70,120
1,69,83,0
1,57,70,0
1,57,0,480
1,69,0,0
1,60,0,0
1,67,81,0
1,55,68,0
1,60,68,0
1,60,0,120
1,55,0,0
1,67,0,0
1,57,70,120
1,69,83,0
1,60,70,0
1,60,0,120
1,69,0,0
1,57,0,0
1,58,72,120
1,60,72,0
1,70,85,0
1,70,0,120
1,60,0,0
1,58,0,0
1,69,81,360
1,57,68,0
1,60,68,0
1,60,0,120
1,57,0,0
1,69,0,0
1,55,60,840
1,60,60,0
1,67,71,0
1,67,0,120
1,60,0,0
1,55,0,0
1,60,63,120
1,57,63,0
1,69,75,0
1,69,0,120
1,57,0,0
1,60,0,0
1,65,66,120
1,71,78,0
1,59,66,0
1,59,0,120
1,71,0,0
1,65,0,0
1,64,68,360
1,72,80,0
1,60,68,0
1,60,0,120
1,72,0,0
1,64,0,0
1,67,69,360
1,74,82,0
1,62,69,0
1,62,0,120
1,74,0,0
1,67,0,0
1,64,71,360
1,67,71,0
1,76,84,0
1,76,0,120
1,67,0,0
1,64,0,0
1,72,72,360
1,74,72,0
1,78,78,0
1,78,0,80
1,79,73,0
1,79,0,80
1,78,80,0
1,78,0,80
1,79,75,0
1,79,0,80
1,78,82,0
1,78,0,80
1,79,78,0
1,79,0,80
1,78,84,0
1,78,0,80
1,79,81,0
1,79,0,80
1,78,86,0
1,78,0,80
1,79,84,0
1,79,0,60
1,78,89,0
1,78,0,60
1,76,84,0
1,76,0,60
1,78,85,0
1,78,0,60
1,74,0,0
1,72,0,0
1,71,79,0
1,79,93,0
1,79,0,480
1,71,0,0
1,74,83,0
1,74,0,120
1,78,75,120
1,78,0,120
1,79,83,120
1,79,0,120
1,62,66,360
1,62,0,120
1,66,60,120
1,66,0,120
1,67,66,120
1,67,0,120
1,50,69,360
1,50,0,120
1,54,61,120
1,54,0,120
1,55,64,120
1,55,0,160
1,59,57,0
1,59,0,160
1,60,57,0
1,60,0,160
1,62,66,0
1,62,0,160
1,64,59,0
1,64,0,160
1,66,59,0
1,66,0,160
1,67,67,0
1,67,0,120
1,70,69,0
1,70,0,120
1,72,71,0
1,72,0,120
1,74,73,0
1,74,0,120
1,76,75,0
1,76,0,120
1,78,77,0
1,78,0,120
1,79,79,0
1,79,0,120
1,81,84,0
1,81,0,120
1,82,80,90
1,70,67,0
1,77,67,0
1,74,67,0
1,74,0,630
1,82,0,0
1,70,0,0
1,77,0,0
1,70,67,0
1,62,67,0
1,74,80,0
1,74,0,216
1,62,0,0
1,70,0,0
1,70,71,24
1,62,71,0
1,74,85,0
1,74,0,480
1,62,0,0
1,70,0,0
1,63,69,0
1,75,81,0
1,70,69,0
1,70,0,120
1,75,0,0
1,63,0,0
1,65,72,120
1,70,72,0
1,77,86,0
1,77,0,120
1,70,0,0
1,65,0,0
1,70,75,120
1,67,75,0
1,79,89,0
1,79,0,120
1,67,0,0
1,70,0,0
1,65,71,360
1,77,85,0
1,70,71,0
1,70,0,120
1,77,0,0
1,65,0,0
1,70,67,1080
1,62,67,0
1,74,80,0
1,74,0,216
1,62,0,0
1,70,0,0
1,62,74,24
1,74,88,0
1,70,74,0
1,70,0,480
1,74,0,0
1,62,0,0
1,70,74,0
1,63,74,0
1,75,88,0
1,75,0,120
1,63,0,0
1,70,0,0
1,70,78,120
1,77,92,0
1,65,78,0
1,65,0,120
1,77,0,0
1,70,0,0
1,67,80,120
1,79,95,0
1,70,80,0
1,70,0,480
1,79,0,0
1,67,0,0
1,70,78,0
1,77,93,0
1,65,78,0
1,65,0,120
1,77,0,0
1,70,0,0
1,67,80,120
1,79,95,0
1,70,80,0
1,70,0,120
1,79,0,0
1,67,0,0
1,70,82,120
1,80,97,0
1,68,82,0
1,68,0,120
1,80,0,0
1,70,0,0
1,79,93,360
1,67,78,0
1,70,78,0
1,70,0,120
1,67,0,0
1,79,0,0
1,77,81,840
1,70,69,0
1,65,69,0
1,65,0,120
1,70,0,0
1,77,0,0
1,67,72,120
1,79,86,0
1,70,72,0
1,70,0,120
1,79,0,0
1,67,0,0
1,79,75,120
1,83,89,0
1,71,75,0
1,71,0,120
1,83,0,0
1,79,0,0
1,72,78,360
1,84,92,0
1,79,78,0
1,79,0,120
1,84,0,0
1,72,0,0
1,86,94,360
1,79,79,0
1,74,79,0
1,74,0,120
1,79,0,0
1,86,0,0
1,75,81,360
1,79,81,0
1,87,96,0
1,87,0,120
1,79,0,0
1,75,0,0
1,77,81,360
1,84,81,0
1,89,96,0
1,89,0,120
1,84,0,0
1,77,0,0
1,78,89,360
1,90,105,0
1,86,89,0
1,84,89,0
1,84,0,960
1,78,0,0
1,90,0,0
1,86,0,0
1,84,89,0
1,79,89,0
1,91,105,0
1,86,89,0
1,86,0,960
1,84,0,0
1,79,0,0
1,91,0,0
1,81,89,0
1,86,89,0
1,93,105,0
1,84,89,0
1,84,0,940
1,81,0,0
1,86,0,0
1,93,0,0
1,81,89,20
1,93,105,0
1,84,89,0
1,86,89,0
1,86,0,720
1,81,0,0
1,93,0,0
1,84,0,0
1,91,83,0
1,79,70,0
1,83,70,0
1,83,0,120
1,79,0,0
1,91,0,0
1,77,74,120
1,89,88,0
1,89,0,120
1,77,0,0
1,74,63,120
1,86,75,0
1,86,0,120
1,74,0,0
1,83,87,120
1,71,73,0
1,71,0,120
1,83,0,0
1,79,70,120
1,67,59,0
1,67,0,120
1,79,0,0
1,77,83,120
1,65,70,0
1,65,0,120
1,77,0,0
1,74,68,120
1,62,57,0
1,62,0,120
1,74,0,0
1,60,68,120
1,72,80,0
1,64,68,0
1,64,0,720
1,72,0,0
1,60,0,0
1,60,40,960
1,60,0,216
1,60,48,24
1,60,0,480
1,62,41,0
1,62,0,120
1,64,46,120
1,64,0,120
1,65,51,120
1,65,0,460
1,65,45,20
1,65,0,216
1,65,37,24
1,67,46,0
1,67,0,216
1,65,0,0
1,67,49,24
1,67,0,480
1,69,45,0
1,69,0,120
1,71,45,120
1,79,51,0
1,71,0,120
1,79,0,96
1,79,55,24
1,72,49,0
1,72,0,480
1,74,47,0
1,74,0,120
1,79,0,120
1,76,55,0
1,79,55,0
1,76,0,120
1,79,0,96
1,79,62,24
1,77,53,0
1,79,0,240
1,78,53,0
1,78,0,240
1,81,63,0
1,81,0,120
1,77,0,120
1,76,45,0
1,79,54,0
1,79,0,120
1,76,0,120
1,79,59,0
1,76,50,0
1,79,0,240
1,78,50,0
1,78,0,240
1,81,59,0
1,81,0,120
1,76,0,120
1,72,42,0
1,79,50,0
1,79,0,120
1,72,0,120
1,73,55,0
1,82,65,0
1,82,0,480
1,73,0,0
1,81,59,0
1,74,50,0
1,74,0,120
1,81,0,0
1,62,40,1080
1,62,0,216
1,62,48,24
1,62,0,480
1,64,41,0
1,64,0,120
1,65,46,120
1,65,0,120
1,67,51,120
1,67,0,480
1,67,45,0
1,67,0,240
1,69,46,0
1,67,37,0
1,67,0,216
1,69,0,0
1,69,49,24
1,69,0,480
1,71,45,0
1,71,0,120
1,73,45,120
1,81,51,0
1,73,0,120
1,81,0,96
1,74,49,24
1,81,55,0
1,74,0,480
1,76,47,0
1,76,0,120
1,81,0,120
1,81,55,0
1,77,55,0
1,77,0,120
1,81,0,96
1,79,53,24
1,81,62,0
1,81,0,240
1,80,53,0
1,80,0,240
1,82,63,0
1,82,0,120
1,79,0,120
1,77,45,0
1,81,54,0
1,81,0,120
1,77,0,120
1,81,59,0
1,77,50,0
1,81,0,240
1,80,50,0
1,80,0,240
1,82,59,0
1,82,0,120
1,77,0,120
1,81,50,0
1,74,42,0
1,81,0,120
1,74,0,120
1,75,55,0
1,84,69,0
1,84,0,480
1,75,0,0
1,76,50,0
1,83,59,0
1,83,0,120
1,76,0,0
1,88,78,1320
1,78,66,0
1,88,0,480
1,87,69,0
1,87,0,120
1,78,0,120
1,81,68,1200
1,91,81,0
1,91,0,480
1,90,72,0
1,90,0,120
1,81,0,120
1,93,80,240
1,82,68,0
1,82,0,480
1,93,0,0
1,91,74,0
1,91,0,120
1,76,63,2280
1,64,53,0
1,64,0,480
1,76,0,0
1,75,61,0
1,75,0,120
1,73,61,120
1,73,0,120
1,71,58,120
1,81,69,0
1,81,0,480
1,71,0,0
1,80,61,0
1,80,0,120
1,78,61,120
1,78,0,120
1,76,61,120
1,83,72,0
1,83,0,480
1,81,65,0
1,81,0,120
1,80,61,120
1,80,0,120
1,76,0,120
1,76,59,0
1,78,70,0
1,78,0,240
1,79,61,0
1,79,0,216
1,76,0,24
1,79,63,0
1,76,53,0
1,79,0,720
1,78,67,0
1,78,0,240
1,76,0,0
1,76,59,0
1,78,70,0
1,78,0,240
1,79,64,0
1,79,0,216
1,76,0,24
1,79,64,0
1,76,54,0
1,79,0,240
1,80,61,0
1,80,0,216
1,76,0,24
1,76,59,0
1,80,70,0
1,80,0,720
1,79,60,0
1,79,0,240
1,76,0,0
1,79,62,0
1,76,52,0
1,79,0,240
1,80,64,0
1,80,0,216
1,76,0,24
1,80,66,0
1,76,56,0
1,80,0,240
1,81,68,0
1,81,0,216
1,76,0,24
1,76,62,0
1,81,74,0
1,81,0,700
1,76,0,0
1,82,69,20
1,76,58,0
1,76,0,216
1,82,0,0
1,76,65,24
1,82,77,0
1,82,0,240
1,76,0,0
1,79,57,0
1,85,68,0
1,85,0,216
1,79,0,0
1,79,59,24
1,85,70,0
1,85,0,240
1,79,0,0
1,82,70,0
1,88,70,0
1,88,0,216
1,82,0,0
1,88,75,24
1,82,75,0
1,82,0,240
1,88,0,0
1,91,73,0
1,85,62,0
1,85,0,240
1,91,0,0
1,90,80,0
1,87,68,0
1,87,0,120
1,90,0,0
1,66,80,600
1,78,85,240
1,69,72,0
1,78,0,720
1,76,80,0
1,76,0,240
1,75,84,0
1,75,0,240
1,69,0,0
1,66,0,0
1,78,83,480
1,81,76,240
1,90,90,0
1,90,0,720
1,88,85,0
1,88,0,240
1,87,95,0
1,87,0,240
1,81,0,0
1,78,0,0
1,93,99,240
1,87,84,0
1,90,84,0
1,81,84,0
1,81,0,120
1,93,0,0
1,87,0,0
1,90,0,0
1,66,77,840
1,66,0,480
1,69,83,0
1,69,0,1200
1,66,46,240
1,66,0,480
1,69,49,0
1,69,0,1200
1,66,46,240
1,66,0,480
1,69,49,0
1,69,0,960
1,71,48,0
1,71,0,720
1,72,46,0
1,72,0,216
1,72,53,24
1,72,0,960
1,71,46,0
1,71,0,480
1,74,49,240
1,74,0,240
1,77,54,0
1,77,0,960
1,76,50,0
1,76,0,720
1,71,50,0
1,71,0,240
1,74,57,0
1,74,0,960
1,72,52,0
1,72,0,480
1,72,49,480
1,72,0,940
1,72,50,20
1,74,56,720
1,74,0,240
1,76,65,0
1,76,0,480
1,72,0,0
1,76,63,480
1,79,75,0
1,79,0,1440
1,76,0,0
1,79,62,480
1,83,73,0
1,83,0,1440
1,79,0,0
1,74,69,420
1,79,73,30
1,86,76,30
1,86,0,1680
1,79,0,0
1,74,0,0
1,83,66,0
1,83,0,240
1,78,62,0
1,84,73,0
1,84,0,720
1,81,61,0
1,81,0,240
1,78,0,0
1,79,69,0
1,79,0,960
1,81,63,0
1,72,53,0
1,81,0,720
1,77,52,0
1,77,0,240
1,76,63,0
1,76,0,960
1,72,0,0
1,71,54,0
1,77,64,0
1,71,0,960
1,72,64,0
1,77,0,720
1,76,52,0
1,76,0,240
1,72,0,0
1,78,50,0
1,69,42,0
1,78,0,720
1,75,37,0
1,75,0,240
1,69,0,0
1,84,40,0
1,88,40,0
1,76,34,0
1,88,0,960
1,84,0,0
1,86,35,0
1,83,35,0
1,83,0,480
1,86,0,0
1,84,41,0
1,88,41,0
1,76,0,460
1,88,0,20
1,84,0,0
1,89,46,0
1,86,46,0
1,76,25,0
1,86,0,720
1,89,0,0
1,86,39,0
1,83,39,0
1,83,0,240
1,86,0,0
1,83,46,0
1,80,46,0
1,80,0,480
1,83,0,0
1,81,40,0
1,84,40,0
1,76,0,460
1,84,0,20
1,81,0,0
1,83,40,0
1,76,34,0
1,86,40,0
1,86,0,480
1,83,0,0
1,84,35,0
1,81,35,0
1,81,0,480
1,84,0,0
1,79,35,0
1,83,35,0
1,83,0,480
1,79,0,0
1,81,41,0
1,77,41,0
1,76,0,460
1,77,0,20
1,81,0,0
1,80,46,0
1,76,25,0
1,80,0,720
1,81,39,0
1,78,39,0
1,78,0,240
1,81,0,0
1,80,46,0
1,83,46,0
1,76,0,460
1,83,0,20
1,80,0,0
1,76,40,0
1,84,40,480
1,88,40,0
1,88,0,960
1,84,0,0
1,83,35,0
1,86,35,0
1,86,0,480
1,83,0,0
1,88,43,0
1,84,43,0
1,76,0,460
1,84,0,20
1,88,0,0
1,76,25,0
1,91,55,0
1,88,55,0
1,88,0,720
1,91,0,0
1,86,42,0
1,89,42,0
1,89,0,240
1,86,0,0
1,83,50,0
1,86,50,0
1,86,0,480
1,83,0,0
1,89,44,0
1,86,44,0
1,76,0,460
1,86,0,20
1,89,0,0
1,84,44,0
1,88,44,0
1,76,37,0
1,88,0,480
1,84,0,0
1,81,37,0
1,84,37,0
1,84,0,480
1,81,0,0
1,86,36,0
1,83,36,0
1,83,0,480
1,86,0,0
1,80,42,0
1,83,42,0
1,76,0,460
1,83,0,20
1,80,0,0
1,76,25,0
1,84,46,0
1,81,40,0
1,81,0,480
1,84,0,0
1,81,39,0
1,78,39,0
1,78,0,480
1,81,0,0
1,83,46,0
1,80,46,0
1,80,0,480
1,83,0,0
1,76,40,0
1,76,0,480
1,76,0,0
1,64,24,240
1,64,0,240
1,69,34,0
1,69,0,240
1,76,24,0
1,76,0,240
1,64,27,240
1,64,0,240
1,71,33,0
1,71,0,240
1,76,24,0
1,76,0,240
1,69,27,240
1,69,0,240
1,72,34,0
1,72,0,240
1,77,24,0
1,77,0,240
1,65,29,240
1,65,0,240
1,71,33,0
1,77,24,226
1,71,0,14
1,77,0,226
1,69,32,254
1,69,0,240
1,77,38,0
1,77,0,240
1,83,32,0
1,83,0,240
1,68,32,240
1,68,0,240
1,76,41,0
1,76,0,240
1,83,34,0
1,83,0,240
1,74,35,240
1,74,0,240
1,83,44,0
1,83,0,240
1,88,38,0
1,88,0,240
1,72,38,240
1,72,0,240
1,81,48,0
1,81,0,240
1,88,36,0
1,88,0,240
1,69,39,480
1,71,47,0
1,65,39,0
1,65,0,600
1,71,0,0
1,69,0,0
1,72,45,0
1,72,0,120
1,71,45,0
1,71,0,120
1,69,45,0
1,69,0,120
1,71,46,0
1,71,0,120
1,72,49,0
1,72,0,120
1,74,52,0
1,74,0,120
1,76,55,0
1,76,0,120
1,79,68,0
1,79,0,480
1,77,64,0
1,77,0,240
1,68,39,1680
1,65,39,0
1,71,47,0
1,71,0,600
1,65,0,0
1,68,0,0
1,72,45,0
1,72,0,120
1,71,45,0
1,71,0,120
1,70,45,0
1,70,0,120
1,71,46,0
1,71,0,120
