track,note,velocity,time
0,42,22,262
0,45,75,0
0,42,0,4
0,42,13,92
0,52,65,2
0,42,0,2
0,42,46,92
0,42,0,4
0,57,65,0
0,42,13,92
0,42,0,4
0,61,70,3
0,42,23,89
0,42,0,4
0,42,13,92
0,42,0,4
0,42,46,92
0,42,0,4
0,42,13,92
0,42,0,4
0,61,0,60
0,52,0,5
0,57,0,6
0,45,0,4
0,42,22,17
0,46,70,2
0,42,0,2
0,42,13,92
0,55,65,1
0,42,0,3
0,42,46,92
0,61,68,2
0,42,0,2
0,42,13,92
0,42,0,4
0,64,77,1
0,42,23,91
0,42,0,4
0,42,13,92
0,42,0,4
0,42,46,92
0,42,0,4
0,42,13,92
0,42,0,4
0,61,0,65
0,64,0,5
0,46,0,4
0,55,0,2
0,47,73,13
0,42,22,3
0,42,0,4
0,42,13,92
0,54,72,0
0,42,0,4
0,57,58,90
0,42,46,2
0,42,0,4
0,42,13,92
0,62,52,0
0,42,0,4
0,42,23,92
0,42,0,4
0,57,0,86
0,57,40,4
0,42,13,2
0,42,0,4
0,42,46,92
0,69,83,0
0,42,0,4
0,42,13,92
0,42,0,4
0,57,0,76
0,47,0,1
0,54,0,0
0,62,0,8
0,52,73,4
0,42,22,3
0,42,0,4
0,69,0,2
0,42,13,90
0,59,72,0
0,42,0,4
0,64,71,90
0,42,46,2
0,42,0,4
0,42,13,92
0,66,78,0
0,42,0,4
0,66,0,88
0,42,23,4
0,68,48,0
0,42,0,4
0,42,13,92
0,42,0,4
0,42,46,92
0,42,0,4
0,42,13,92
0,71,85,3
0,42,0,1
0,71,0,20
0,71,83,27
0,71,0,28
0,52,0,10
0,64,0,0
0,68,0,1
0,59,0,2
0,42,22,4
0,45,75,0
0,42,0,4
0,73,92,10
0,73,0,53
0,73,87,26
0,42,13,3
0,52,65,2
0,42,0,2
0,73,0,56
0,73,88,29
0,42,46,7
0,42,0,4
0,57,65,0
0,73,0,43
0,73,90,44
0,42,13,5
0,42,0,4
0,61,70,3
0,57,0,85
0,42,23,4
0,57,41,0
0,42,0,4
0,73,0,48
0,71,73,3
0,42,13,41
0,69,67,0
0,71,0,2
0,69,70,1
0,42,0,1
0,42,46,92
0,57,0,0
0,42,0,4
0,57,44,0
0,69,0,26
0,52,0,64
0,42,13,2
0,52,30,2
0,42,0,2
0,73,88,1
0,61,0,59
0,45,0,15
0,73,0,5
0,52,0,5
0,57,0,1
0,69,0,0
0,42,22,6
0,46,70,2
0,42,0,2
0,73,93,4
0,73,0,84
0,74,90,1
0,42,13,3
0,55,65,1
0,42,0,3
0,74,0,84
0,73,86,2
0,42,46,6
0,61,68,2
0,42,0,2
0,73,0,90
0,76,86,1
0,42,13,1
0,42,0,4
0,64,77,1
0,61,0,87
0,42,23,4
0,61,41,0
0,42,0,4
0,42,13,92
0,70,70,2
0,42,0,2
0,76,0,52
0,42,46,40
0,61,0,0
0,42,0,4
0,61,44,0
0,55,0,76
0,66,80,10
0,42,13,6
0,55,30,2
0,42,0,2
0,61,0,65
0,64,0,5
0,46,0,4
0,66,0,8
0,55,0,3
0,47,73,4
0,71,93,1
0,42,22,2
0,42,0,4
0,71,0,61
0,71,86,22
0,42,13,9
0,50,32,0
0,42,0,4
0,54,36,1
0,59,42,4
0,71,0,51
0,71,88,23
0,42,46,13
0,42,0,4
0,71,0,58
0,71,85,25
0,42,13,9
0,62,66,0
0,42,0,4
0,42,23,92
0,42,0,4
0,71,0,49
0,70,0,25
0,62,0,12
0,73,88,0
0,62,44,4
0,42,13,2
0,42,0,4
0,59,0,88
0,42,46,4
0,59,45,0
0,42,0,4
0,54,0,88
0,59,0,0
0,42,13,4
0,54,37,0
0,73,0,1
0,42,0,3
0,66,86,2
0,47,0,83
0,62,0,0
0,50,0,2
0,54,0,1
0,47,45,1
0,42,22,3
0,42,0,4
0,42,13,92
0,61,90,0
0,42,0,4
0,66,0,24
0,61,0,64
0,62,54,2
0,42,46,2
0,42,0,4
0,42,13,92
0,69,82,0
0,42,0,4
0,62,0,88
0,42,23,4
0,62,59,0
0,42,0,4
0,59,37,90
0,42,13,2
0,42,0,4
0,42,46,92
0,54,48,0
0,42,0,4
0,66,85,85
0,42,13,7
0,50,37,0
0,42,0,4
0,47,0,77
0,66,0,2
0,71,91,1
0,59,0,5
0,69,0,0
0,50,0,3
0,54,0,0
0,62,0,0
0,42,22,4
0,52,62,0
0,42,0,4
0,71,0,52
0,71,85,26
0,42,13,14
0,59,66,0
0,42,0,4
0,71,0,56
0,71,87,22
0,64,62,12
0,42,46,2
0,42,0,4
0,71,0,64
0,71,85,23
0,42,13,5
0,68,66,0
0,42,0,4
0,52,0,88
0,42,23,4
0,52,36,0
0,42,0,4
0,71,0,87
0,59,0,1
0,73,74,1
0,42,13,3
0,59,40,0
0,42,0,4
0,73,0,40
0,64,0,46
0,66,82,4
0,42,46,2
0,42,0,4
0,68,0,86
0,66,87,4
0,42,13,2
0,64,70,0
0,42,0,4
0,66,0,37
0,66,0,37
0,71,88,12
0,59,0,1
0,52,0,1
0,64,0,0
0,42,22,4
0,52,62,0
0,42,0,4
0,71,0,49
0,71,87,35
0,42,13,8
0,59,66,0
0,42,0,4
0,71,0,50
0,71,85,38
0,64,62,2
0,42,46,2
0,42,0,4
0,71,0,52
0,74,87,38
0,42,13,2
0,68,66,0
0,42,0,4
0,52,0,88
0,42,23,4
0,52,36,0
0,42,0,4
0,74,0,40
0,74,88,41
0,59,0,7
0,42,13,4
0,59,40,0
0,42,0,4
0,74,0,55
0,74,85,30
0,64,0,1
0,62,61,4
0,42,46,2
0,42,0,4
0,74,0,63
0,74,83,21
0,68,0,2
0,59,0,1
0,42,13,5
0,59,46,0
0,42,0,4
0,74,0,30
0,74,80,18
0,62,0,37
0,52,0,3
0,59,0,0
0,42,22,4
0,45,75,0
0,42,0,4
0,74,0,52
0,73,82,7
0,42,13,33
0,52,65,2
0,42,0,2
0,42,46,92
0,42,0,4
0,57,65,0
0,73,0,81
0,73,85,1
0,42,13,10
0,42,0,4
0,61,70,3
0,73,0,67
0,57,0,18
0,42,23,4
0,57,41,0
0,42,0,4
0,73,91,4
0,42,13,88
0,69,67,0
0,42,0,4
0,73,0,25
0,74,87,19
0,42,46,48
0,57,0,0
0,42,0,4
0,57,44,0
0,74,0,64
0,73,89,1
0,52,0,25
0,42,13,2
0,52,30,2
0,42,0,2
0,61,0,60
0,73,0,13
0,45,0,2
0,71,84,8
0,52,0,2
0,57,0,1
0,69,0,0
0,42,22,6
0,45,75,0
0,42,0,4
0,71,0,78
0,69,76,1
0,42,13,13
0,52,65,2
0,42,0,2
0,42,46,92
0,42,0,4
0,57,53,0
0,42,13,2
0,61,57,0
0,69,0,2
0,64,61,1
0,42,0,1
0,64,57,5
0,57,0,83
0,69,66,1
0,42,23,3
0,69,84,0
0,42,0,4
0,64,0,6
0,64,0,39
0,64,54,1
0,76,61,2
0,42,40,3
0,42,0,4
0,69,0,2
0,42,22,24
0,42,0,4
0,42,40,26
0,42,0,4
0,40,68,24
0,46,46,0
0,76,0,1
0,71,72,2
0,46,0,1
0,57,47,0
0,64,85,51
0,69,0,12
0,52,0,2
0,64,0,2
0,64,0,0
0,52,37,2
0,71,85,2
0,61,0,0
0,45,0,7
0,71,0,8
0,52,0,1
0,57,0,1
0,40,0,2
0,33,84,3
0,35,90,0
0,42,34,0
0,45,77,0
0,57,64,0
0,35,0,4
0,42,0,0
0,73,92,12
0,73,0,15
0,42,25,8
0,52,72,2
0,42,0,2
0,73,92,7
0,73,0,20
0,42,58,15
0,42,0,4
0,57,72,0
0,73,91,0
0,73,0,9
0,73,92,24
0,35,88,2
0,42,25,0
0,35,0,1
0,42,0,0
0,61,75,3
0,57,0,9
0,42,35,4
0,57,60,0
0,42,0,4
0,73,0,54
0,42,25,34
0,69,73,0
0,42,0,4
0,37,81,92
0,42,58,0
0,57,0,0
0,37,0,4
0,42,0,0
0,57,62,0
0,64,89,86
0,52,0,4
0,42,25,2
0,52,55,2
0,42,0,2
0,64,0,16
0,64,88,23
0,61,0,21
0,64,0,11
0,45,0,4
0,71,0,9
0,52,0,1
0,57,0,1
0,69,0,0
0,33,0,1
0,57,0,1
0,34,77,2
0,35,90,0
0,42,34,0
0,58,64,0
0,46,75,2
0,35,0,2
0,42,0,0
0,67,62,2
0,70,82,0
0,73,94,1
0,73,0,86
0,74,84,1
0,42,25,2
0,55,72,1
0,42,0,3
0,74,0,12
0,42,58,2
0,61,74,2
0,42,0,2
0,73,88,6
0,73,0,1
0,35,88,1
0,42,25,0
0,76,93,0
0,35,0,4
0,42,0,0
0,64,78,1
0,61,0,86
0,67,0,3
0,70,0,0
0,42,35,1
0,61,60,0
0,42,0,0
0,64,38,1
0,67,54,0
0,42,25,91
0,76,0,0
0,70,75,2
0,42,0,2
0,37,81,92
0,42,58,0
0,61,0,0
0,37,0,4
0,42,0,0
0,61,62,0
0,55,0,76
0,42,25,16
0,55,55,2
0,42,0,2
0,64,0,45
0,67,0,0
0,66,85,8
0,61,0,12
0,34,0,3
0,64,0,2
0,46,0,4
0,55,0,11
0,58,0,3
0,47,76,1
0,35,87,3
0,35,90,0
0,42,34,0
0,59,64,0
0,66,0,3
0,35,0,1
0,42,0,0
0,71,94,0
0,71,0,68
0,71,93,18
0,42,25,6
0,50,51,0
0,42,0,4
0,54,52,1
0,59,67,4
0,71,0,51
0,71,89,23
0,42,58,13
0,42,0,4
0,71,0,48
0,71,88,33
0,35,88,11
0,42,25,0
0,62,73,0
0,35,0,4
0,42,0,0
0,42,35,92
0,42,0,4
0,71,0,47
0,70,0,27
0,73,92,5
0,66,84,11
0,42,25,2
0,42,0,4
0,73,0,71
0,71,91,9
0,59,0,8
0,62,0,0
0,37,81,4
0,42,58,0
0,62,66,0
0,37,0,4
0,42,0,0
0,71,0,58
0,74,93,19
0,54,0,11
0,62,0,0
0,42,25,4
0,54,64,0
0,42,0,4
0,47,0,85
0,50,0,0
0,66,0,0
0,35,0,2
0,54,0,1
0,59,0,0
0,50,77,1
0,35,90,3
0,38,66,0
0,42,34,0
0,62,64,0
0,35,0,4
0,42,0,0
0,42,25,92
0,57,74,0
0,42,0,4
0,74,0,0
0,42,58,0
0,65,81,0
0,42,0,4
0,69,84,2
0,74,108,0
0,53,51,46
0,35,88,0
0,42,25,0
0,35,0,4
0,42,0,0
0,42,35,0
0,64,79,0
0,42,0,4
0,57,0,42
0,57,49,4
0,46,42,0
0,46,0,4
0,53,0,13
0,37,81,2
0,42,58,0
0,62,77,0
0,37,0,4
0,42,0,0
0,65,0,10
0,50,0,3
0,42,25,2
0,50,48,0
0,42,0,4
0,64,83,43
0,38,0,16
0,50,0,16
0,57,0,8
0,62,0,3
0,62,0,0
0,64,0,0
0,64,0,2
0,64,94,1
0,69,0,0
0,74,0,0
0,35,90,1
0,40,76,0
0,42,34,0
0,52,71,0
0,64,64,0
0,35,0,0
0,42,0,0
0,64,38,1
0,71,54,0
0,64,0,62
0,64,90,20
0,42,25,9
0,59,73,0
0,42,0,4
0,64,0,55
0,64,90,22
0,64,71,13
0,42,58,2
0,42,0,4
0,64,0,68
0,40,0,1
0,68,92,17
0,35,72,6
0,40,70,0
0,42,25,0
0,68,81,0
0,35,0,4
0,42,0,0
0,64,0,45
0,71,0,0
0,40,0,24
0,52,0,19
0,35,75,4
0,35,90,0
0,42,35,0
0,52,59,0
0,35,0,4
0,42,0,0
0,68,0,73
0,59,0,15
0,42,25,4
0,59,67,0
0,68,90,1
0,42,0,3
0,68,0,72
0,64,0,14
0,64,75,4
0,37,81,2
0,42,58,0
0,68,90,1
0,37,0,3
0,42,0,0
0,68,0,60
0,68,0,28
0,68,91,2
0,42,25,2
0,68,79,0
0,42,0,4
0,64,0,37
0,35,0,1
0,68,0,39
0,59,0,10
0,52,0,1
0,68,0,0
0,71,92,1
0,35,90,3
0,40,76,0
0,42,34,0
0,52,73,0
0,59,64,0
0,35,0,4
0,42,0,0
0,71,0,73
0,42,25,19
0,59,76,0
0,71,92,2
0,42,0,2
0,71,0,65
0,64,74,25
0,42,58,2
0,71,90,0
0,42,0,4
0,40,0,69
0,71,0,4
0,35,72,19
0,40,70,0
0,42,25,0
0,68,83,0
0,35,0,4
0,42,0,0
0,74,92,0
0,40,0,69
0,52,0,19
0,35,75,4
0,35,90,0
0,42,35,0
0,52,62,0
0,68,66,0
0,71,85,0
0,35,0,4
0,42,0,0
0,59,0,88
0,42,25,4
0,59,70,0
0,74,0,1
0,42,0,3
0,64,0,86
0,62,75,4
0,37,81,2
0,42,58,0
0,37,0,4
0,42,0,0
0,68,0,11
0,42,25,4
0,68,84,0
0,42,0,4
0,62,0,12
0,35,0,1
0,71,86,3
0,68,0,34
0,71,0,0
0,59,0,3
0,52,0,1
0,68,0,0
0,71,47,1
0,35,90,1
0,40,76,0
0,42,34,0
0,52,64,0
0,52,76,0
0,74,68,0
0,35,0,4
0,42,0,0
0,71,0,1
0,71,87,1
0,71,0,65
0,42,25,25
0,59,78,0
0,42,0,4
0,71,90,0
0,71,0,67
0,64,76,23
0,42,58,2
0,42,0,4
0,71,90,1
0,71,0,53
0,40,0,15
0,71,91,20
0,35,72,3
0,40,70,0
0,42,25,0
0,68,86,0
0,35,0,4
0,42,0,0
0,40,0,69
0,52,0,19
0,35,75,4
0,35,90,0
0,42,35,0
0,52,64,0
0,35,0,4
0,42,0,0
0,71,0,49
0,74,0,5
0,71,0,17
0,73,87,13
0,59,0,4
0,42,25,4
0,59,73,0
0,42,0,4
0,73,0,83
0,71,92,1
0,64,0,2
0,62,81,4
0,38,84,2
0,46,58,0
0,38,0,4
0,46,0,0
0,71,0,83
0,59,0,4
0,68,0,1
0,76,92,2
0,35,30,2
0,59,85,0
0,35,0,4
0,68,89,0
0,35,0,38
0,62,0,3
0,68,0,45
0,59,0,1
0,64,0,1
0,52,53,3
0,28,93,1
0,35,90,0
0,52,0,0
0,59,61,0
0,64,64,0
0,68,39,0
0,71,41,0
0,35,0,4
0,64,82,1
0,71,0,44
0,68,0,2
0,59,0,11
0,28,0,3
0,52,0,10
0,64,0,1
0,52,56,19
0,28,92,1
0,35,55,0
0,59,54,0
0,68,41,0
0,71,48,0
0,35,0,4
0,64,75,1
0,71,0,44
0,68,0,2
0,28,0,14
0,52,0,6
0,59,0,0
0,64,0,17
0,52,56,2
0,28,90,6
0,35,67,0
0,44,39,0
0,59,54,0
0,68,34,0
0,71,59,0
0,35,0,4
0,44,0,0
0,64,86,2
0,28,0,54
0,68,0,1
0,71,0,0
0,59,0,8
0,52,0,5
0,64,0,5
0,52,57,13
0,28,90,4
0,35,55,0
0,38,31,0
0,59,65,0
0,68,45,0
0,71,66,0
0,35,0,4
0,38,0,0
0,64,86,3
0,71,0,58
0,68,0,2
0,52,0,4
0,28,0,5
0,59,0,0
0,54,67,12
0,64,0,3
0,30,92,5
0,35,79,0
0,38,44,0
0,44,53,0
0,59,72,0
0,68,59,0
0,71,59,0
0,35,0,4
0,38,0,0
0,44,0,0
0,64,86,2
0,68,0,55
0,71,0,0
0,30,0,3
0,59,0,1
0,54,0,1
0,64,0,13
0,54,68,8
0,30,92,9
0,38,60,0
0,59,68,0
0,68,62,0
0,71,62,0
0,38,0,4
0,64,86,3
0,59,0,55
0,68,0,6
0,71,0,0
0,54,0,7
0,30,0,2
0,64,0,0
0,56,67,11
0,32,93,8
0,35,88,0
0,38,72,0
0,44,53,0
0,59,65,0
0,68,62,0
0,71,69,0
0,35,0,4
0,38,0,0
0,44,0,0
0,64,93,3
0,76,0,50
0,59,0,4
0,68,0,0
0,71,0,0
0,56,0,1
0,32,0,2
0,64,0,11
0,56,67,7
0,73,95,12
0,32,93,2
0,38,86,0
0,59,72,0
0,68,66,0
0,71,69,0
0,38,0,4
0,64,93,3
0,68,0,60
0,56,0,7
0,59,0,0
0,71,0,2
0,32,0,2
0,64,0,6
0,73,0,2
0,52,0,6
