track,note,velocity,time
3,46,110,1920
3,46,0,140
3,41,112,99
3,41,0,117
3,44,111,2
3,44,0,107
3,46,103,10
3,46,0,159
3,41,94,82
3,44,91,117
3,41,0,7
3,44,0,101
3,46,121,19
3,46,0,166
3,41,121,73
3,44,103,119
3,41,0,8
3,44,0,85
3,46,106,24
3,46,0,205
3,41,121,41
3,46,118,117
3,41,0,4
3,46,0,97
3,44,114,21
3,44,0,191
3,39,118,49
3,39,0,92
3,39,118,29
3,39,0,94
3,44,114,23
3,44,0,194
3,39,121,49
3,39,0,113
3,44,121,4
3,44,0,97
3,42,121,24
3,42,0,183
3,37,114,58
3,37,0,83
3,37,114,34
3,37,0,79
3,42,114,43
3,42,0,219
3,37,121,26
3,37,0,101
3,42,121,15
3,42,0,63
3,41,121,55
3,41,0,69
3,41,121,53
3,41,0,69
3,45,121,49
3,45,0,55
3,48,121,9
3,48,0,56
3,45,112,57
3,45,0,51
3,41,121,11
3,41,0,34
3,41,121,25
3,41,0,29
3,41,121,31
3,41,0,36
3,41,121,27
3,41,0,63
3,41,121,59
3,41,0,53
3,43,121,9
3,45,102,55
3,43,0,7
3,45,0,41
3,46,121,14
3,46,0,166
3,41,121,73
3,44,103,119
3,41,0,8
3,44,0,85
3,46,106,24
3,46,0,205
3,41,121,41
3,46,118,117
3,41,0,4
3,46,0,97
3,44,114,21
3,44,0,191
3,39,118,49
3,39,0,92
3,39,118,29
3,39,0,94
3,44,114,23
3,44,0,194
3,39,121,49
3,39,0,113
3,44,121,4
3,44,0,97
3,42,121,24
3,42,0,183
3,37,114,58
3,37,0,83
3,37,114,34
3,37,0,79
3,42,114,43
3,42,0,219
3,37,121,26
3,37,0,101
3,42,121,15
3,42,0,63
3,41,121,55
3,41,0,69
3,41,121,53
3,41,0,69
3,45,121,49
3,45,0,55
3,48,121,9
3,48,0,56
3,45,112,57
3,45,0,51
3,41,121,11
3,41,0,34
3,41,121,25
3,41,0,29
3,41,121,31
3,41,0,36
3,41,121,27
3,41,0,63
3,41,121,59
3,41,0,53
3,43,121,9
3,45,102,55
3,43,0,7
3,45,0,41
3,46,121,14
3,46,0,119
3,50,97,1
3,50,0,116
3,53,97,2
3,50,95,119
3,53,0,0
3,50,0,103
3,46,121,15
3,50,97,122
3,46,0,3
3,50,0,116
3,53,97,2
3,53,0,121
3,46,121,2
3,45,105,58
3,46,0,7
3,45,0,42
3,43,116,9
3,46,121,122
3,43,0,10
3,46,0,104
3,50,99,5
3,46,110,120
3,50,0,9
3,43,121,113
3,46,0,7
3,46,103,111
3,43,0,8
3,50,105,114
3,46,0,2
3,46,110,118
3,50,0,12
3,43,121,46
3,46,0,1
3,46,114,62
3,43,0,13
3,50,99,104
3,46,0,1
3,53,92,117
3,50,0,0
3,50,102,120
3,53,0,12
3,46,95,109
3,50,0,10
3,50,97,109
3,46,0,9
3,53,110,112
3,50,0,0
3,50,112,120
3,53,0,9
3,46,99,52
3,50,0,8
3,43,121,52
3,46,0,8
3,46,114,111
3,43,0,9
3,50,110,112
3,46,0,7
3,46,103,113
3,50,0,7
3,43,121,112
3,46,0,5
3,46,110,116
3,43,0,13
3,50,102,104
3,46,0,1
3,46,121,120
3,50,0,10
3,46,0,76
3,46,121,156
3,46,0,28
3,46,121,31
3,46,0,53
3,46,121,133
3,46,0,54
3,46,121,181
3,46,0,31
3,46,121,31
3,46,0,44
3,46,121,141
3,46,0,54
3,43,121,182
3,43,0,32
3,43,121,29
3,43,0,43
3,43,121,138
3,43,0,54
3,43,121,186
3,43,0,34
3,43,121,26
3,43,0,45
3,43,121,136
3,43,0,69
3,46,121,165
3,46,0,33
3,46,121,29
3,46,0,58
3,46,121,123
3,46,0,68
3,46,121,168
3,46,0,36
3,46,121,30
3,46,0,48
3,46,121,125
3,46,0,74
3,43,121,166
3,43,0,31
3,43,121,30
3,43,0,58
3,43,121,128
3,43,0,63
3,43,121,177
3,43,0,32
3,43,121,28
3,43,0,59
3,43,121,119
3,43,0,48
3,39,121,75
3,43,121,120
3,39,0,7
3,46,118,111
3,43,0,6
3,43,119,115
3,46,0,5
3,39,114,110
3,43,0,0
3,43,121,121
3,39,0,4
3,46,110,117
3,43,0,6
3,43,112,115
3,46,0,10
3,43,0,99
3,41,112,10
3,45,116,121
3,41,0,3
3,48,119,114
3,45,0,1
3,48,0,117
3,45,107,1
3,45,0,116
3,41,119,7
3,45,105,120
3,41,0,6
3,48,116,115
3,45,0,6
3,45,110,112
3,48,0,5
3,46,121,117
3,45,0,1
3,50,112,117
3,46,0,6
3,53,116,113
3,50,0,7
3,50,99,116
3,53,0,15
3,50,0,79
3,39,121,26
3,43,121,122
3,39,0,7
3,46,99,111
3,43,0,6
3,43,107,116
3,46,0,4
3,46,121,109
3,43,0,2
3,46,0,122
3,50,110,1
3,53,102,120
3,50,0,9
3,50,102,108
3,53,0,8
3,50,0,108
3,41,121,6
3,41,0,25
3,41,107,30
3,41,0,29
3,41,110,33
3,41,0,31
3,41,107,30
3,41,0,28
3,41,116,33
3,41,0,31
3,41,110,30
3,41,0,30
3,41,116,33
3,41,0,28
3,41,121,30
3,41,0,28
3,46,121,32
3,46,0,118
3,49,121,2
3,49,0,121
3,53,121,1
3,49,118,117
3,53,0,4
3,46,121,117
3,49,0,2
3,46,0,111
3,49,121,8
3,49,0,120
3,53,119,1
3,49,110,117
3,53,0,1
3,44,121,120
3,49,0,0
3,48,121,121
3,44,0,8
3,48,0,107
3,51,103,4
3,51,0,119
3,48,112,1
3,48,0,113
3,44,114,5
3,48,116,122
3,44,0,4
3,48,0,105
3,51,114,11
3,51,0,117
3,48,107,1
3,48,0,113
3,42,121,9
3,46,103,119
3,42,0,5
3,46,0,111
3,49,103,2
3,46,110,123
3,49,0,10
3,46,0,103
3,42,121,6
3,46,121,119
3,42,0,4
3,46,0,115
3,49,97,3
3,46,114,119
3,49,0,0
3,46,0,111
3,41,121,8
3,41,0,82
3,41,121,39
3,41,0,107
3,45,121,12
3,45,0,51
3,48,121,11
3,48,0,103
3,45,121,14
3,45,0,40
3,41,121,20
3,41,0,34
3,41,119,27
3,41,0,32
3,41,121,27
3,41,0,35
3,41,121,27
3,41,0,84
3,41,121,37
3,41,0,54
3,43,121,5
3,45,121,59
3,43,0,7
3,45,0,49
3,46,121,6
3,46,0,111
3,49,118,9
3,49,0,100
3,53,121,16
3,49,121,124
3,53,0,19
3,49,0,96
3,46,114,4
3,49,110,119
3,46,0,4
3,53,112,117
3,49,0,10
3,49,121,111
3,53,0,13
3,49,0,97
3,44,121,10
3,48,116,120
3,44,0,9
3,48,0,106
3,51,103,4
3,48,119,121
3,51,0,3
3,48,0,115
3,44,121,2
3,48,116,119
3,44,0,0
3,51,99,120
3,48,0,3
3,48,107,118
3,51,0,7
3,48,0,101
3,42,121,11
3,46,118,120
3,42,0,8
3,49,110,111
3,46,0,3
3,46,118,119
3,49,0,9
3,46,0,105
3,42,121,4
3,46,103,121
3,42,0,10
3,46,0,106
3,49,103,2
3,46,106,123
3,49,0,14
3,46,0,96
3,41,121,7
3,41,0,83
3,41,121,40
3,41,0,79
3,45,121,39
3,45,0,41
3,48,121,21
3,48,0,71
3,45,121,46
3,45,0,41
3,41,121,20
3,41,0,31
3,41,121,28
3,41,0,31
3,41,121,29
3,41,0,36
3,41,121,24
3,41,0,61
3,41,121,61
3,41,0,56
3,43,112,3
3,45,121,59
3,43,0,6
3,45,0,45
3,46,121,11
3,46,0,119
3,50,97,1
3,50,0,116
3,53,97,2
3,50,95,119
3,53,0,0
3,50,0,103
3,46,121,15
3,50,97,122
3,46,0,3
3,50,0,116
3,53,97,2
3,53,0,121
3,46,121,2
3,45,105,58
3,46,0,7
3,45,0,42
3,43,116,9
3,46,121,122
3,43,0,10
3,46,0,104
3,50,99,5
3,46,110,120
3,50,0,9
3,43,121,113
3,46,0,7
3,46,103,111
3,43,0,8
3,50,105,114
3,46,0,2
3,46,110,118
3,50,0,12
3,43,121,46
3,46,0,1
3,46,114,62
3,43,0,13
3,50,99,104
3,46,0,1
3,53,92,117
3,50,0,0
3,50,102,120
3,53,0,12
3,46,95,109
3,50,0,10
3,50,97,109
3,46,0,9
3,53,110,112
3,50,0,0
3,50,112,120
3,53,0,9
3,46,99,52
3,50,0,8
3,43,121,52
3,46,0,8
3,46,114,111
3,43,0,9
3,50,110,112
3,46,0,7
3,46,103,113
3,50,0,7
3,43,121,112
3,46,0,5
3,46,110,116
3,43,0,13
3,50,102,104
3,46,0,1
3,46,121,120
3,50,0,10
3,46,0,76
3,46,121,156
3,46,0,28
3,46,121,31
3,46,0,53
3,46,121,133
3,46,0,54
3,46,121,181
3,46,0,31
3,46,121,31
3,46,0,44
3,46,121,141
3,46,0,54
3,43,121,182
3,43,0,32
3,43,121,29
3,43,0,43
3,43,121,138
3,43,0,54
3,43,121,186
3,43,0,34
3,43,121,26
3,43,0,45
3,43,121,136
3,43,0,69
3,46,121,165
3,46,0,33
3,46,121,29
3,46,0,58
3,46,121,123
3,46,0,68
3,46,121,168
3,46,0,36
3,46,121,30
3,46,0,48
3,46,121,125
3,46,0,74
3,43,121,166
3,43,0,31
3,43,121,30
3,43,0,58
3,43,121,128
3,43,0,63
3,43,121,177
3,43,0,32
3,43,121,28
3,43,0,59
3,43,121,119
3,43,0,48
3,39,121,75
3,43,121,120
3,39,0,7
3,46,118,111
3,43,0,6
3,43,119,115
3,46,0,5
3,39,114,110
3,43,0,0
3,43,121,121
3,39,0,4
3,46,110,117
3,43,0,6
3,43,112,115
3,46,0,10
3,43,0,99
3,41,112,10
3,45,116,121
3,41,0,3
3,48,119,114
3,45,0,1
3,48,0,117
3,45,107,1
3,45,0,116
3,41,119,7
3,45,105,120
3,41,0,6
3,48,116,115
3,45,0,6
3,45,110,112
3,48,0,5
3,46,121,117
3,45,0,1
3,50,112,117
3,46,0,6
3,53,116,113
3,50,0,7
3,50,99,116
3,53,0,15
3,50,0,79
3,39,121,26
3,43,121,122
3,39,0,7
3,46,99,111
3,43,0,6
3,43,107,116
3,46,0,4
3,46,121,109
3,43,0,2
3,46,0,122
3,50,110,1
3,53,102,120
3,50,0,9
3,50,102,108
3,53,0,8
3,50,0,108
3,39,121,7
3,43,119,117
3,39,0,2
3,46,121,120
3,43,0,5
3,46,0,115
3,43,107,5
3,43,0,103
3,46,118,15
3,50,116,118
3,46,0,8
3,53,112,109
3,50,0,10
3,50,105,113
3,53,0,19
3,50,0,90
3,39,121,13
3,43,121,117
3,39,0,5
3,46,99,111
3,43,0,7
3,43,110,115
3,46,0,6
3,43,0,103
3,46,121,9
3,46,0,123
3,50,115,1
3,53,118,120
3,50,0,0
3,50,118,120
3,53,0,0
3,46,118,120
3,50,0,0
3,46,0,60
4,82,100,1925
4,85,89,74
4,89,98,19
4,82,0,6
4,94,93,6
4,85,0,5
4,89,0,17
4,94,0,17
4,89,98,34
4,89,0,31
4,85,100,29
4,85,0,27
4,82,97,37
4,82,0,27
4,85,100,26
4,85,0,30
4,89,99,30
4,89,0,28
4,82,100,37
4,85,81,75
4,89,98,17
4,82,0,9
4,94,85,10
4,85,0,2
4,89,0,15
4,94,0,19
4,89,100,36
4,89,0,23
4,85,100,34
4,85,0,23
4,82,89,39
4,82,0,28
4,85,100,31
4,85,0,27
4,89,95,25
4,89,0,28
4,82,100,39
4,85,89,74
4,89,98,19
4,82,0,6
4,94,93,6
4,85,0,5
4,89,0,17
4,94,0,17
4,89,98,34
4,89,0,31
4,85,100,29
4,85,0,27
4,82,97,37
4,82,0,27
4,85,100,26
4,85,0,30
4,89,99,30
4,89,0,28
4,82,100,37
4,85,81,75
4,89,98,17
4,82,0,9
4,94,85,10
4,85,0,2
4,89,0,15
4,94,0,19
4,89,100,36
4,89,0,23
4,85,100,34
4,85,0,23
4,82,89,39
4,82,0,28
4,85,100,31
4,85,0,27
4,89,95,25
4,89,0,28
4,80,100,34
4,84,71,88
4,87,89,7
4,80,0,16
4,92,93,4
4,84,0,7
4,87,0,13
4,92,0,17
4,87,89,29
4,87,0,43
4,84,91,17
4,84,0,43
4,80,97,14
4,80,0,39
4,84,98,26
4,84,0,31
4,87,78,29
4,87,0,27
4,80,100,33
4,80,0,79
4,80,82,13
4,84,95,8
4,87,85,4
4,80,0,16
4,92,93,5
4,84,0,6
4,87,0,17
4,92,0,16
4,87,78,22
4,87,0,34
4,84,98,27
4,84,0,29
4,80,89,25
4,80,0,36
4,84,95,21
4,84,0,33
4,87,67,22
4,87,0,29
4,78,100,39
4,78,0,81
4,82,78,13
4,85,97,13
4,82,0,9
4,90,97,13
4,85,0,11
4,90,0,19
4,85,97,20
4,85,0,29
4,82,100,31
4,82,0,28
4,78,97,29
4,78,0,34
4,82,97,27
4,82,0,29
4,85,100,34
4,85,0,28
4,78,100,36
4,82,78,88
4,85,93,14
4,78,0,3
4,82,0,14
4,90,100,1
4,85,0,12
4,90,0,17
4,85,100,28
4,85,0,25
4,82,100,36
4,82,0,29
4,78,100,27
4,78,0,45
4,82,100,13
4,82,0,43
4,85,98,17
4,85,0,29
4,84,100,31
4,89,100,0
4,93,100,0
4,89,0,16
4,84,0,2
4,93,0,5
4,89,100,98
4,93,100,0
4,84,100,0
4,89,0,28
4,84,0,3
4,93,0,1
4,93,98,90
4,89,100,1
4,84,98,1
4,89,0,23
4,93,0,1
4,84,0,1
4,84,95,36
4,89,100,0
4,93,98,0
4,89,0,26
4,93,0,5
4,84,0,2
4,84,100,87
4,89,100,1
4,93,100,0
4,89,0,18
4,93,0,2
4,84,0,3
4,84,98,37
4,89,100,1
4,93,100,0
4,89,0,20
4,93,0,4
4,84,0,1
4,89,100,28
4,84,78,0
4,93,78,1
4,89,0,20
4,93,0,2
4,84,0,1
4,84,91,33
4,89,100,0
4,93,98,0
4,89,0,24
4,93,0,5
4,84,0,1
4,84,100,33
4,93,100,0
4,89,100,1
4,84,0,26
4,89,0,3
4,93,0,1
4,84,91,28
4,89,91,0
4,93,91,0
4,93,0,30
4,89,0,0
4,84,0,0
4,84,100,27
4,89,100,1
4,93,100,0
4,89,0,20
4,84,0,3
4,93,0,3
4,93,100,31
4,84,100,1
4,89,100,0
4,89,0,24
4,84,0,4
4,93,0,3
4,84,100,31
4,93,100,1
4,89,100,1
4,89,0,19
4,84,0,3
4,93,0,4
4,82,100,39
4,85,89,74
4,89,98,19
4,82,0,6
4,94,93,6
4,85,0,5
4,89,0,17
4,94,0,17
4,89,98,34
4,89,0,31
4,85,100,29
4,85,0,27
4,82,97,37
4,82,0,27
4,85,100,26
4,85,0,30
4,89,99,30
4,89,0,28
4,82,100,37
4,85,81,75
4,89,98,17
4,82,0,9
4,94,85,10
4,85,0,2
4,89,0,15
4,94,0,19
4,89,100,36
4,89,0,23
4,85,100,34
4,85,0,23
4,82,89,39
4,82,0,28
4,85,100,31
4,85,0,27
4,89,95,25
4,89,0,28
4,80,100,34
4,84,71,88
4,87,89,7
4,80,0,16
4,92,93,4
4,84,0,7
4,87,0,13
4,92,0,17
4,87,89,29
4,87,0,43
4,84,91,17
4,84,0,43
4,80,97,14
4,80,0,39
4,84,98,26
4,84,0,31
4,87,78,29
4,87,0,27
4,80,100,33
4,80,0,79
4,80,82,13
4,84,95,8
4,87,85,4
4,80,0,16
4,92,93,5
4,84,0,6
4,87,0,17
4,92,0,16
4,87,78,22
4,87,0,34
4,84,98,27
4,84,0,29
4,80,89,25
4,80,0,36
4,84,95,21
4,84,0,33
4,87,67,22
4,87,0,29
4,78,100,39
4,78,0,81
4,82,78,13
4,85,97,13
4,82,0,9
4,90,97,13
4,85,0,11
4,90,0,19
4,85,97,20
4,85,0,29
4,82,100,31
4,82,0,28
4,78,97,29
4,78,0,34
4,82,97,27
4,82,0,29
4,85,100,34
4,85,0,28
4,78,100,36
4,82,78,88
4,85,93,14
4,78,0,3
4,82,0,14
4,90,100,1
4,85,0,12
4,90,0,17
4,85,100,28
4,85,0,25
