track,note,velocity,time
1,44,118,1536
1,44,123,168
1,39,106,6
1,44,110,92
1,44,123,192
1,39,110,56
1,44,123,44
1,39,114,192
1,44,123,14
1,39,114,192
1,41,118,28
1,41,108,186
1,36,104,8
1,41,115,96
1,41,121,222
1,36,118,48
1,41,121,40
1,39,110,8
1,41,124,30
1,43,108,50
1,44,118,78
1,44,110,214
1,39,100,2
1,44,118,76
1,44,114,206
1,44,118,176
1,39,110,192
1,44,127,30
1,41,106,100
1,41,118,176
1,36,106,16
1,41,118,58
1,41,124,184
1,36,111,56
1,41,121,38
1,36,121,192
1,41,127,174
1,36,97,0
1,37,118,40
1,37,118,192
1,32,110,16
1,37,118,88
1,37,123,220
1,32,114,52
1,37,127,28
1,32,114,2
1,37,114,192
1,38,108,40
1,39,118,56
1,39,123,170
1,34,103,14
1,39,123,120
1,39,123,212
1,34,118,20
1,39,123,24
1,39,114,112
1,34,127,80
1,44,118,144
1,44,110,214
1,39,100,2
1,44,118,76
1,44,114,206
1,44,118,176
1,39,110,192
1,44,127,30
1,41,106,100
1,41,118,176
1,36,106,16
1,41,118,58
1,41,124,184
1,36,111,56
1,41,121,38
1,36,121,192
1,41,127,174
1,36,97,0
1,37,118,40
1,37,118,192
1,32,110,16
1,37,118,88
1,37,123,220
1,32,114,52
1,37,127,28
1,32,114,2
1,37,114,192
1,38,108,40
1,39,118,56
1,39,123,170
1,34,103,14
1,39,123,120
1,39,123,212
1,34,118,20
1,39,123,24
1,39,114,112
1,34,127,80
1,37,123,144
1,37,127,164
1,32,106,16
1,37,127,158
1,37,127,240
1,32,123,36
1,37,123,30
1,32,118,4
1,37,118,16
1,32,114,192
1,41,111,44
1,41,104,160
1,36,121,24
1,41,115,118
1,41,121,224
1,36,124,24
1,41,113,44
1,36,127,192
1,39,123,26
1,37,127,102
1,37,127,176
1,32,114,32
1,37,127,110
1,37,127,252
1,32,123,128
1,37,127,46
1,32,123,36
1,37,123,72
1,38,106,60
1,39,127,48
1,39,127,166
1,34,106,14
1,39,123,92
1,39,118,214
1,39,118,226
1,39,127,234
1,41,127,76
1,43,118,192
1,44,118,46
1,44,110,214
1,39,100,2
1,44,118,76
1,44,114,206
1,44,118,176
1,39,110,192
1,44,127,30
1,41,106,100
1,41,118,176
1,36,106,16
1,41,118,58
1,41,124,184
1,36,111,56
1,41,121,38
1,36,121,192
1,41,127,174
1,36,97,0
1,37,118,40
1,37,118,192
1,32,110,16
1,37,118,88
1,37,123,220
1,32,114,52
1,37,127,28
1,32,114,2
1,37,114,192
1,38,108,40
1,39,118,56
1,39,123,170
1,34,103,14
1,39,123,120
1,39,123,212
1,34,118,20
1,39,123,24
1,39,114,112
1,34,127,80
1,37,123,144
1,37,127,164
1,32,106,16
1,37,127,158
1,37,127,240
1,32,123,36
1,37,123,30
1,32,118,4
1,37,118,16
1,32,114,192
1,41,111,44
1,41,104,160
1,36,121,24
1,41,115,118
1,41,121,224
1,36,124,24
1,41,113,44
1,36,127,192
1,39,123,26
1,37,127,102
1,37,127,176
1,32,114,32
1,37,127,110
1,39,127,60
1,44,123,1324
1,44,123,188
1,39,110,8
1,44,118,106
1,44,123,156
1,44,123,184
1,39,110,4
1,43,118,28
1,44,118,168
1,44,123,160
1,39,114,16
1,44,127,134
1,44,127,192
1,39,118,50
1,44,123,52
1,39,114,0
1,44,123,8
1,43,108,32
1,41,115,54
1,41,115,184
1,36,115,8
1,41,118,128
1,41,121,202
1,36,115,74
1,41,121,40
1,36,124,2
1,41,124,12
1,43,100,32
1,44,114,106
1,44,127,206
1,39,110,10
1,44,114,80
1,44,118,222
1,44,123,224
1,39,106,0
1,44,118,24
1,39,118,192
1,44,114,2
1,41,104,60
1,41,118,152
1,36,113,14
1,41,118,108
1,41,118,206
1,36,115,64
1,41,118,40
1,36,121,0
1,41,121,12
1,36,127,4
1,37,110,58
1,37,114,182
1,37,114,104
1,37,103,136
1,39,118,84
1,39,100,184
1,39,118,98
1,44,127,400
1,44,118,200
1,39,103,38
1,44,127,108
1,44,127,218
1,44,123,230
1,39,118,36
1,39,127,102
1,41,118,62
1,43,124,64
1,44,118,56
1,44,110,214
1,39,100,2
1,44,118,76
1,44,114,206
1,44,118,176
1,39,110,192
1,44,127,30
1,41,106,100
1,41,118,176
1,36,106,16
1,41,118,58
1,41,124,184
1,36,111,56
1,41,121,38
1,36,121,192
1,41,127,174
1,36,97,0
1,37,118,40
1,37,118,192
1,32,110,16
1,37,118,88
1,37,123,220
1,32,114,52
1,37,127,28
1,32,114,2
1,37,114,192
1,38,108,40
1,39,118,56
1,39,123,170
1,34,103,14
1,39,123,120
1,39,123,212
1,34,118,20
1,39,123,24
1,39,114,112
1,34,127,80
1,37,123,144
1,37,127,164
1,32,106,16
1,37,127,158
1,37,127,240
1,32,123,36
1,37,123,30
1,32,118,4
1,37,118,16
1,32,114,192
1,41,111,44
1,41,104,160
1,36,121,24
1,41,115,118
1,41,121,224
1,36,124,24
1,41,113,44
1,36,127,192
1,39,123,26
1,37,127,102
1,37,127,176
1,32,114,32
1,37,127,110
1,39,127,60
1,44,127,1360
1,44,114,156
1,39,106,16
1,44,118,38
1,44,100,110
1,44,123,186
1,39,110,46
1,39,89,88
1,41,99,44
1,43,104,32
1,44,110,80
1,44,123,232
1,39,110,48
1,44,114,58
1,44,118,230
1,44,123,226
1,39,106,14
1,41,104,40
1,39,114,192
1,41,102,20
1,44,118,8
1,44,114,154
1,39,110,22
1,44,110,80
1,44,114,216
1,44,114,182
1,39,106,42
1,39,106,94
1,41,102,68
1,43,102,52
1,44,95,78
1,44,127,156
1,39,103,32
1,44,118,66
1,44,118,210
1,39,114,74
1,41,100,48
1,39,114,4
1,41,104,32
1,43,111,22
1,44,114,80
1,44,114,136
1,39,114,48
1,44,114,92
1,44,123,240
1,44,118,212
1,39,110,38
1,39,103,72
1,41,99,60
1,43,96,48
1,44,106,88
1,44,118,182
1,39,110,44
1,44,123,98
1,44,123,216
1,39,118,104
1,41,111,36
1,39,118,192
1,41,115,34
1,43,115,48
1,32,114,84
2,92,116,1536
2,92,111,88
2,91,108,0
2,92,93,86
2,90,93,0
2,92,96,80
2,89,92,0
2,92,86,86
2,88,83,0
2,92,86,84
2,87,96,0
2,92,86,72
2,86,99,0
2,92,91,90
2,87,107,0
2,92,96,88
2,86,101,0
2,92,107,80
2,87,116,0
2,89,101,100
2,89,108,100
2,88,80,0
2,89,93,104
2,87,91,0
2,89,92,92
2,86,97,0
2,89,95,104
2,85,93,0
2,89,93,122
2,84,99,0
2,89,90,92
2,83,99,0
2,89,90,86
2,84,101,0
2,89,93,88
2,83,108,0
2,89,101,72
2,84,111,0
2,60,81,102
2,68,96,0
2,63,96,0
2,63,88,490
2,60,82,0
2,68,88,0
2,60,71,154
2,63,91,0
2,68,99,0
2,60,72,130
2,68,99,0
2,63,88,0
2,60,79,314
2,63,93,0
2,68,96,0
2,68,91,312
2,60,67,0
2,63,82,0
2,60,73,104
2,63,86,0
2,68,96,0
2,60,65,266
2,68,67,0
2,65,77,0
2,68,78,464
2,65,87,0
2,60,77,0
2,60,65,88
2,68,70,0
2,65,85,0
2,60,73,122
2,68,80,0
2,65,90,0
2,60,59,304
2,68,80,0
2,65,82,0
2,68,91,306
2,65,92,0
2,60,73,0
2,60,65,96
2,68,82,0
2,65,92,0
2,68,78,288
2,65,87,0
2,61,73,0
2,61,71,442
2,65,89,0
2,68,82,0
2,65,86,86
2,61,64,0
2,68,73,0
2,61,66,122
2,65,87,0
2,68,80,0
2,61,66,312
2,68,82,0
2,65,92,0
2,65,89,314
2,68,80,0
2,61,63,0
2,61,69,68
2,65,95,0
2,68,88,0
2,61,51,114
2,65,80,0
2,68,67,0
2,67,70,92
2,70,91,0
2,63,80,0
2,70,75,476
2,63,66,0
2,67,89,0
2,67,89,144
2,70,76,0
2,63,69,0
2,67,86,112
2,70,73,0
2,63,61,0
2,67,95,290
2,63,71,0
2,70,84,0
2,67,99,274
2,70,82,0
2,63,80,0
2,67,97,130
2,63,78,0
2,70,96,0
2,63,82,288
2,60,73,0
2,68,80,0
2,60,69,472
2,63,82,0
2,68,78,0
2,60,67,140
2,63,78,0
2,68,88,0
2,60,69,116
2,68,93,0
2,63,91,0
2,60,71,308
2,68,93,0
2,63,88,0
2,63,91,314
2,60,77,0
2,68,88,0
2,60,53,64
2,68,88,0
2,63,75,0
2,60,67,120
2,63,88,0
2,68,86,0
2,60,66,120
2,63,84,0
2,68,88,0
2,65,95,120
2,68,80,0
2,60,74,0
2,68,88,464
2,65,92,0
2,60,74,0
2,68,69,116
2,60,65,0
2,65,83,0
2,65,93,110
2,68,86,0
2,60,72,0
2,65,95,298
2,68,88,0
2,60,77,0
2,60,67,60
2,65,89,0
2,68,88,0
2,65,87,116
2,60,76,0
2,68,76,0
2,60,75,120
2,65,93,0
2,68,80,0
2,60,73,126
2,65,95,0
2,68,86,0
2,61,76,290
2,65,92,0
2,68,78,0
2,61,63,488
2,65,87,0
2,68,76,0
2,65,87,122
2,61,65,0
2,68,78,0
2,61,65,122
2,68,84,0
2,65,93,0
2,65,92,316
2,61,71,0
2,68,84,0
2,65,87,312
2,61,67,0
2,68,78,0
2,65,99,166
2,68,88,0
2,61,78,0
2,67,89,256
2,63,65,0
2,70,88,0
2,63,69,458
2,70,82,0
2,67,93,0
2,67,85,138
2,63,61,0
2,70,76,0
2,67,95,116
2,70,86,0
2,63,73,0
2,67,106,316
2,63,82,0
2,70,96,0
2,67,104,316
2,63,82,0
2,70,93,0
2,67,101,316
2,63,76,0
2,70,93,0
2,63,73,112
2,67,95,0
2,70,91,0
2,65,99,296
2,68,88,0
2,61,80,0
2,61,73,496
2,65,92,0
2,68,84,0
2,68,86,112
2,65,92,0
2,61,69,0
2,61,76,310
2,65,93,0
2,68,82,0
2,68,82,310
2,65,97,0
2,61,76,0
2,65,86,94
2,68,75,0
2,61,66,0
2,68,75,120
2,61,65,0
2,65,90,0
2,61,51,124
2,65,78,0
2,68,65,0
2,65,89,112
2,68,78,0
2,60,82,0
2,65,89,460
2,68,86,0
2,60,70,0
2,60,62,56
2,65,83,0
2,68,78,0
2,60,74,126
2,65,93,0
2,68,82,0
2,65,90,304
2,68,88,0
2,60,74,0
2,65,93,290
2,68,86,0
2,60,74,0
2,60,74,74
2,65,93,0
2,68,84,0
2,65,89,108
2,68,80,0
2,68,69,116
2,65,85,0
2,61,64,0
2,61,66,458
2,68,76,0
2,65,90,0
2,65,90,154
2,61,65,0
2,68,80,0
2,65,89,116
2,61,66,0
2,68,76,0
2,68,84,312
2,61,73,0
2,65,93,0
2,65,95,310
2,61,78,0
2,68,88,0
2,65,95,296
2,61,76,0
2,68,84,0
2,61,64,122
2,65,89,0
2,68,82,0
2,67,93,288
2,70,82,0
2,63,73,0
2,67,104,480
2,70,93,0
2,63,78,0
2,67,86,192
2,63,59,0
2,70,78,0
2,67,92,116
2,70,82,0
2,63,69,0
2,67,97,296
2,70,88,0
2,63,82,0
2,67,95,238
2,70,86,0
2,63,78,0
2,63,61,112
2,67,90,0
2,70,88,0
2,67,87,118
2,70,84,0
2,63,65,0
2,68,93,282
2,63,88,0
2,60,67,0
2,63,82,484
2,68,78,0
2,60,69,0
2,63,91,188
2,68,88,0
2,60,64,0
2,60,73,280
2,68,88,0
2,63,88,0
2,60,73,298
2,63,93,0
2,68,86,0
2,60,59,70
2,68,84,0
2,63,76,0
2,60,65,128
2,68,76,0
2,63,75,0
2,60,58,122
2,63,63,0
2,68,63,0
2,65,83,132
2,60,68,0
2,68,80,0
2,68,76,450
2,60,71,0
2,65,87,0
2,68,69,128
2,65,82,0
2,60,67,0
2,68,73,106
2,65,87,0
2,60,73,0
2,65,87,272
2,68,80,0
2,60,72,0
2,65,90,240
2,68,80,0
2,60,73,0
2,68,73,64
2,60,62,0
2,65,83,0
2,68,78,112
2,60,71,0
2,65,89,0
2,68,73,296
2,65,90,0
2,61,75,0
2,61,58,452
2,68,73,0
2,65,80,0
2,61,61,158
2,65,89,0
2,68,76,0
2,68,84,120
2,61,63,0
2,65,90,0
2,61,78,316
2,65,99,0
2,68,91,0
2,65,89,314
2,61,65,0
2,68,78,0
2,61,75,270
2,65,99,0
2,68,88,0
2,61,64,132
2,68,80,0
2,65,89,0
2,61,60,126
2,65,86,0
2,68,80,0
2,67,87,120
2,63,70,0
2,70,82,0
2,67,104,498
2,63,80,0
2,70,91,0
2,63,60,154
2,67,89,0
2,70,78,0
2,63,66,112
2,67,95,0
2,70,84,0
2,67,99,292
2,70,86,0
2,63,76,0
2,67,95,280
2,70,82,0
2,63,75,0
2,67,97,120
2,63,70,0
2,70,86,0
2,63,67,110
2,67,92,0
2,70,82,0
2,63,69,124
2,67,89,0
2,70,84,0
2,65,90,300
2,61,70,0
2,68,75,0
2,61,62,96
2,68,75,0
2,65,87,0
2,68,80,126
2,61,67,0
2,65,89,0
2,68,86,284
2,65,99,0
2,61,80,0
2,68,76,84
2,65,89,0
2,61,69,0
2,65,87,120
2,68,75,0
2,61,67,0
2,68,71,112
2,65,85,0
2,61,56,0
2,60,81,136
2,68,76,0
2,65,93,0
2,68,75,272
2,65,87,0
2,60,73,0
2,60,73,74
2,65,90,0
2,68,84,0
2,65,87,292
2,68,86,0
2,60,68,0
2,60,67,38
2,68,75,0
2,65,83,0
2,68,75,290
2,65,90,0
2,60,79,0
2,65,90,104
2,68,75,0
2,60,77,0
2,68,78,102
2,65,89,0
2,60,72,0
2,65,92,112
2,68,82,0
2,60,78,0
2,65,82,106
2,60,64,0
2,68,73,0
2,65,86,120
2,68,71,0
2,61,75,0
2,65,99,422
2,61,82,0
2,68,84,0
2,65,90,106
2,68,84,0
2,61,66,0
2,70,99,224
2,67,108,0
2,63,88,0
2,92,116,1358
2,92,96,78
2,91,99,0
2,92,82,80
2,90,96,0
2,92,84,92
2,89,82,0
2,92,80,104
2,88,76,0
2,92,82,96
2,87,91,0
2,92,76,84
2,86,93,0
2,92,78,82
2,87,107,0
2,92,76,92
2,86,101,0
2,92,91,76
2,87,111,0
2,92,80,84
2,89,90,0
2,88,87,84
2,92,70,0
2,87,76,96
2,92,67,0
2,86,92,96
2,92,70,0
2,92,67,80
2,85,78,0
2,84,92,114
2,92,62,0
2,92,86,108
2,83,81,0
2,84,97,86
2,92,73,0
2,83,90,94
2,92,78,0
2,84,104,76
2,92,73,0
2,89,93,84
2,88,92,86
2,89,82,0
2,87,86,126
2,89,85,0
2,86,95,106
2,89,81,0
2,85,91,110
2,89,83,0
2,84,90,104
2,89,78,0
2,83,87,68
2,89,73,0
2,84,87,64
2,89,74,0
2,83,89,76
2,89,75,0
2,84,97,72
2,89,78,0
2,89,90,456
2,84,89,72
2,87,88,0
2,87,86,102
2,84,81,0
2,87,88,130
2,84,82,0
2,89,87,56
2,87,99,20
2,89,95,64
2,84,106,52
2,87,96,0
2,87,91,62
2,84,97,0
2,87,99,88
2,84,99,0
2,84,99,534
2,89,86,0
2,82,61,192
2,84,104,92
2,89,85,0
2,89,86,88
2,84,99,0
2,82,73,384
2,84,93,60
2,89,80,0
2,82,75,192
2,89,78,64
2,84,93,0
2,89,90,72
2,84,99,0
2,82,76,384
2,84,89,58
2,89,81,0
2,82,75,192
2,89,86,80
2,85,73,192
2,80,76,100
2,85,73,138
2,89,73,82
2,85,61,152
2,80,75,192
2,87,96,120
2,82,86,292
2,87,86,168
2,91,72,164
2,87,78,176
2,82,78,4
2,87,88,192
2,91,74,170
2,92,86,60
2,91,85,94
2,92,73,0
2,92,82,84
2,90,91,0
2,92,67,106
2,89,75,0
2,92,65,80
2,88,83,0
2,92,70,120
2,87,80,0
2,86,93,100
2,92,62,0
2,87,99,80
2,92,80,0
2,86,101,104
2,92,84,0
2,87,93,92
2,92,75,0
2,68,93,78
2,63,88,0
2,60,67,0
2,63,82,484
2,68,78,0
2,60,69,0
2,63,91,188
2,68,88,0
2,60,64,0
