track,note,velocity,time
2,32,124,17280
2,40,124,0
2,42,124,0
2,35,124,0
2,34,124,0
2,32,124,0
2,40,124,0
2,42,124,0
2,35,124,0
2,34,124,0
2,32,124,0
2,40,124,0
2,42,124,0
2,35,124,0
2,34,124,0
2,32,124,0
2,32,124,0
2,40,124,0
2,40,124,0
2,41,124,0
2,41,124,0
2,40,124,0
2,35,124,0
2,34,124,0
2,32,124,0
2,40,124,0
2,42,124,0
2,35,124,0
2,34,124,0
2,32,124,0
2,40,124,0
2,42,124,0
2,35,124,0
2,34,124,0
2,32,124,0
2,40,124,0
2,42,124,0
2,35,124,0
2,34,124,0
2,32,124,0
2,32,124,0
2,40,124,0
2,40,124,0
2,41,124,0
2,41,124,0
2,40,124,0
2,35,124,0
2,34,124,0
2,32,124,0
2,40,124,0
2,42,124,0
2,35,124,0
2,34,124,0
2,32,124,0
2,40,124,0
2,42,124,0
2,35,124,0
2,34,124,0
2,32,124,0
2,40,124,0
2,42,124,0
2,35,124,0
2,34,124,0
2,32,124,0
2,32,124,0
2,40,124,0
2,40,124,0
2,41,124,0
2,41,124,0
2,40,124,0
2,35,124,0
2,34,124,0
2,32,124,0
2,40,124,0
2,42,124,0
2,35,124,0
2,34,124,0
2,32,124,0
2,40,124,0
2,42,124,0
2,35,124,0
2,34,124,0
2,32,124,0
2,40,124,0
2,42,124,0
2,35,124,0
2,34,124,0
2,32,124,0
2,32,124,0
2,40,124,0
2,40,124,0
2,41,124,0
2,41,124,0
2,40,124,0
2,35,124,0
2,34,124,0
2,32,124,0
2,40,124,0
2,42,124,0
2,35,124,0
2,34,124,0
2,32,124,0
2,40,124,0
2,42,124,0
2,35,124,0
2,34,124,0
2,32,124,0
2,40,124,0
2,42,124,0
2,35,124,0
2,34,124,0
2,32,124,0
2,32,124,0
2,40,124,0
2,40,124,0
2,41,124,0
2,41,124,0
2,40,124,0
2,35,124,0
2,34,124,0
2,32,124,0
2,40,124,0
2,42,124,0
2,35,124,0
2,34,124,0
2,32,124,0
2,40,124,0
2,42,124,0
2,35,124,0
2,34,124,0
2,32,124,0
2,40,124,0
2,42,124,0
2,35,124,0
2,34,124,0
2,32,124,0
2,32,124,0
2,40,124,0
2,40,124,0
2,41,124,0
2,41,124,0
2,40,124,0
2,35,124,0
2,34,124,0
2,32,124,0
2,40,124,0
2,42,124,0
2,35,124,0
2,34,124,0
2,32,124,0
2,40,124,0
2,42,124,0
2,35,124,0
2,34,124,0
2,32,124,0
2,40,124,0
2,42,124,0
2,35,124,0
2,34,124,0
2,32,124,0
2,32,124,0
2,40,124,0
2,40,124,0
2,41,124,0
2,41,124,0
2,40,124,0
2,35,124,0
2,34,124,0
2,32,124,0
2,40,124,0
2,42,124,0
2,35,124,0
2,34,124,0
2,32,124,0
2,40,124,0
2,42,124,0
2,35,124,0
2,34,124,0
2,32,124,0
2,40,124,0
2,42,124,0
2,35,124,0
2,34,124,0
2,32,124,0
2,32,124,0
2,40,124,0
2,40,124,0
2,41,124,0
2,41,124,0
2,40,124,0
2,35,124,0
2,34,124,0
2,32,124,0
2,40,124,0
2,42,124,0
2,35,124,0
2,34,124,0
2,32,124,0
2,40,124,0
2,42,124,0
2,35,124,0
2,34,124,0
2,32,124,0
2,40,124,0
2,42,124,0
2,35,124,0
2,34,124,0
2,32,124,0
2,32,124,0
2,40,124,0
2,40,124,0
2,41,124,0
2,41,124,0
2,40,124,0
2,35,124,0
2,34,124,0
2,32,124,0
2,40,124,0
2,42,124,0
2,35,124,0
2,34,124,0
2,32,124,0
2,40,124,0
2,42,124,0
2,35,124,0
2,34,124,0
2,32,124,0
2,40,124,0
2,42,124,0
2,35,124,0
2,34,124,0
2,32,124,0
2,32,124,0
2,40,124,0
2,40,124,0
2,41,124,0
2,41,124,0
2,40,124,0
2,35,124,0
2,34,124,0
2,32,124,0
2,40,124,0
2,42,124,0
2,35,124,0
2,34,124,0
2,32,124,0
2,40,124,0
2,42,124,0
2,35,124,0
2,34,124,0
2,32,124,0
2,40,124,0
2,42,124,0
2,35,124,0
2,34,124,0
2,32,124,0
2,32,124,0
2,40,124,0
2,40,124,0
2,41,124,0
2,41,124,0
2,40,124,0
2,35,124,0
2,34,124,0
2,32,124,0
2,32,124,0
2,40,124,0
2,40,124,0
2,41,124,0
2,41,124,0
2,40,124,0
2,35,124,0
2,34,124,0
2,32,124,0
2,32,124,0
2,40,124,0
2,40,124,0
2,41,124,0
2,41,124,0
2,40,124,0
2,35,124,0
2,34,124,0
2,32,124,0
2,32,124,0
2,40,124,0
2,40,124,0
2,41,124,0
2,41,124,0
2,40,124,0
2,35,124,0
2,34,124,0
2,32,124,0
2,40,124,0
2,42,124,0
2,35,124,0
2,34,124,0
2,32,124,0
2,40,124,0
2,42,124,0
2,35,124,0
2,34,124,0
2,32,124,0
2,40,124,0
2,42,124,0
2,35,124,0
2,34,124,0
2,32,124,0
2,32,124,0
2,40,124,0
2,40,124,0
2,41,124,0
2,41,124,0
2,40,124,0
2,35,124,0
2,34,124,0
2,32,124,0
2,40,124,0
2,42,124,0
2,35,124,0
2,34,124,0
2,32,124,0
2,40,124,0
2,42,124,0
2,35,124,0
2,34,124,0
2,32,124,0
2,40,124,0
2,42,124,0
2,35,124,0
2,34,124,0
2,32,124,0
2,32,124,0
2,40,124,0
2,40,124,0
2,41,124,0
2,41,124,0
2,40,124,0
2,35,124,0
2,34,124,0
2,32,124,0
2,40,124,0
2,42,124,0
2,35,124,0
2,34,124,0
2,32,124,0
2,40,124,0
2,42,124,0
2,35,124,0
2,34,124,0
2,32,124,0
2,40,124,0
2,42,124,0
2,35,124,0
2,34,124,0
2,32,124,0
2,32,124,0
2,40,124,0
2,40,124,0
2,41,124,0
2,41,124,0
2,40,124,0
2,35,124,0
2,34,124,0
2,32,124,0
3,56,96,2280
3,63,96,0
3,63,96,0
3,63,96,0
3,64,96,0
3,61,96,0
3,59,96,0
3,63,96,0
3,59,96,0
3,61,96,0
3,58,96,0
3,59,96,0
3,63,96,0
3,58,96,0
3,63,96,0
3,56,96,0
3,56,96,120
3,63,96,0
3,63,96,0
3,63,96,0
3,64,96,0
3,61,96,0
3,59,96,0
3,63,96,0
3,61,96,0
3,59,96,120
3,66,96,0
3,68,96,0
3,63,96,0
3,61,96,0
3,63,96,0
3,66,96,240
3,66,96,0
3,66,96,0
3,66,96,0
3,68,96,0
3,61,96,0
3,61,96,0
3,59,96,0
3,63,96,0
3,61,96,0
3,61,96,0
3,59,96,120
3,61,96,0
3,63,96,0
3,64,96,0
3,63,96,0
3,63,96,0
3,61,96,0
3,63,96,0
3,56,96,240
3,63,96,0
3,61,96,0
3,63,96,0
3,59,96,0
3,56,96,0
3,59,96,0
3,63,96,0
3,59,96,0
3,61,96,0
3,56,96,0
3,63,96,0
3,59,96,0
3,61,96,0
3,59,96,0
3,56,96,360
3,63,96,0
3,63,96,0
3,63,96,0
3,64,96,0
3,61,96,0
3,59,96,0
3,63,96,0
3,59,96,0
3,61,96,0
3,58,96,0
3,59,96,0
3,63,96,0
3,58,96,0
3,63,96,0
3,56,96,0
3,56,96,120
3,63,96,0
3,63,96,0
3,63,96,0
3,64,96,0
3,61,96,0
3,59,96,0
3,63,96,0
3,61,96,0
3,59,96,120
3,66,96,0
3,68,96,0
3,63,96,0
3,61,96,0
3,63,96,0
3,66,96,240
3,66,96,0
3,66,96,0
3,66,96,0
3,68,96,0
3,61,96,0
3,61,96,0
3,59,96,0
3,63,96,0
3,61,96,0
3,61,96,0
3,59,96,120
3,61,96,0
3,63,96,0
3,64,96,0
3,63,96,0
3,63,96,0
3,61,96,0
3,63,96,0
3,56,96,240
3,63,96,0
3,61,96,0
3,63,96,0
3,59,96,0
3,56,96,0
3,59,96,0
3,63,96,0
3,59,96,0
3,61,96,0
3,56,96,0
3,63,96,0
3,59,96,0
3,61,96,0
3,59,96,0
3,56,96,31080
3,63,96,0
3,63,96,0
3,63,96,0
3,64,96,0
3,61,96,0
3,59,96,0
3,63,96,0
3,59,96,0
3,61,96,0
3,58,96,0
3,59,96,0
3,63,96,0
3,58,96,0
3,63,96,0
3,56,96,0
3,56,96,120
3,63,96,0
3,63,96,0
3,63,96,0
3,64,96,0
3,61,96,0
3,59,96,0
3,63,96,0
3,61,96,0
3,59,96,120
3,66,96,0
3,68,96,0
3,63,96,0
3,61,96,0
3,63,96,0
3,66,96,240
3,66,96,0
3,66,96,0
3,66,96,0
3,68,96,0
3,61,96,0
3,61,96,0
3,59,96,0
3,63,96,0
3,61,96,0
3,61,96,0
3,59,96,120
3,61,96,0
3,63,96,0
3,64,96,0
3,63,96,0
3,63,96,0
3,61,96,0
3,63,96,0
3,56,96,240
3,63,96,0
3,61,96,0
3,63,96,0
3,59,96,0
3,56,96,0
3,59,96,0
3,63,96,0
3,59,96,0
3,61,96,0
3,56,96,0
3,63,96,0
3,59,96,0
3,61,96,0
3,59,96,0
3,56,96,31080
3,63,96,0
3,63,96,0
3,63,96,0
3,64,96,0
3,61,96,0
3,59,96,0
3,63,96,0
3,59,96,0
3,61,96,0
3,58,96,0
3,59,96,0
3,63,96,0
3,58,96,0
3,63,96,0
3,56,96,0
3,56,96,120
3,63,96,0
3,63,96,0
3,63,96,0
3,64,96,0
3,61,96,0
3,59,96,0
3,63,96,0
3,61,96,0
3,59,96,120
3,66,96,0
3,68,96,0
3,63,96,0
3,61,96,0
3,63,96,0
3,66,96,240
3,66,96,0
3,66,96,0
3,66,96,0
3,68,96,0
3,61,96,0
3,61,96,0
3,59,96,0
3,63,96,0
3,61,96,0
3,61,96,0
3,59,96,120
3,61,96,0
3,63,96,0
3,64,96,0
3,63,96,0
3,63,96,0
3,61,96,0
3,63,96,0
3,56,96,240
3,63,96,0
3,61,96,0
3,63,96,0
3,59,96,0
3,56,96,0
3,59,96,0
3,63,96,0
3,59,96,0
3,61,96,0
3,56,96,0
3,63,96,0
3,59,96,0
3,61,96,0
3,59,96,0
3,56,96,73320
3,63,96,0
3,63,96,0
3,63,96,0
3,64,96,0
3,61,96,0
3,59,96,0
3,63,96,0
3,59,96,0
3,61,96,0
3,58,96,0
3,59,96,0
3,63,96,0
3,58,96,0
3,63,96,0
3,56,96,0
3,56,96,120
3,63,96,0
3,63,96,0
3,63,96,0
3,64,96,0
3,61,96,0
3,59,96,0
3,63,96,0
3,61,96,0
3,59,96,120
3,66,96,0
3,68,96,0
3,63,96,0
3,61,96,0
3,63,96,0
3,66,96,240
3,66,96,0
3,66,96,0
3,66,96,0
3,68,96,0
3,61,96,0
3,61,96,0
3,59,96,0
3,63,96,0
3,61,96,0
3,61,96,0
3,59,96,120
3,61,96,0
3,63,96,0
3,64,96,0
3,63,96,0
3,63,96,0
3,61,96,0
3,63,96,0
3,56,96,240
3,63,96,0
3,61,96,0
3,63,96,0
3,59,96,0
3,56,96,0
3,59,96,0
3,63,96,0
3,59,96,0
3,61,96,0
3,56,96,0
3,63,96,0
3,59,96,0
3,61,96,0
3,59,96,0
4,44,96,1920
4,51,96,0
4,56,96,0
4,59,96,0
4,63,96,0
4,56,96,0
4,59,96,0
4,51,96,0
4,59,96,0
4,63,96,0
4,40,96,0
4,47,96,0
4,52,96,0
4,56,96,0
4,52,96,0
4,56,96,0
4,40,96,0
4,52,96,0
4,56,96,0
4,59,96,0
4,42,96,0
4,49,96,0
4,54,96,0
4,58,96,0
4,54,96,0
4,58,96,0
4,42,96,0
4,49,96,0
4,58,96,0
4,61,96,0
4,47,96,0
4,54,96,0
4,59,96,0
4,66,96,0
4,54,96,0
4,59,96,0
4,63,96,0
4,46,96,0
4,54,96,0
4,54,96,0
4,59,96,0
4,63,96,0
4,44,96,0
4,51,96,0
4,56,96,0
4,59,96,0
4,63,96,0
4,56,96,0
4,59,96,0
4,51,96,0
4,59,96,0
4,63,96,0
4,40,96,0
4,47,96,0
4,52,96,0
4,56,96,0
4,52,96,0
4,56,96,0
4,40,96,0
4,52,96,0
4,56,96,0
4,59,96,0
4,42,96,0
4,49,96,0
4,54,96,0
4,58,96,0
4,54,96,0
4,58,96,0
4,42,96,0
4,49,96,0
4,58,96,0
4,61,96,0
4,47,96,0
4,54,96,0
4,59,96,0
4,66,96,0
4,54,96,0
4,59,96,0
4,63,96,0
4,46,96,0
4,54,96,0
4,54,96,0
4,59,96,0
4,63,96,0
4,44,96,0
4,51,96,0
4,56,96,0
4,59,96,0
4,63,96,0
4,56,96,0
4,59,96,0
4,51,96,0
4,59,96,0
4,63,96,0
4,40,96,0
4,47,96,0
4,52,96,0
4,56,96,0
4,52,96,0
4,56,96,0
4,40,96,0
4,52,96,0
4,56,96,0
4,59,96,0
4,42,96,0
4,49,96,0
4,54,96,0
4,58,96,0
4,54,96,0
4,58,96,0
4,42,96,0
4,49,96,0
4,58,96,0
4,61,96,0
4,47,96,0
4,54,96,0
4,59,96,0
4,66,96,0
4,54,96,0
4,59,96,0
4,63,96,0
4,46,96,0
4,54,96,0
4,54,96,0
4,59,96,0
4,63,96,0
4,44,96,0
4,51,96,0
4,56,96,0
4,59,96,0
4,63,96,0
4,56,96,0
4,59,96,0
4,51,96,0
4,59,96,0
4,63,96,0
4,40,96,0
4,47,96,0
4,52,96,0
4,56,96,0
4,52,96,0
4,56,96,0
4,40,96,0
4,52,96,0
4,56,96,0
4,59,96,0
4,41,96,0
4,48,96,0
4,53,96,0
4,65,96,0
4,41,96,0
4,48,96,0
4,53,96,0
4,65,96,0
4,40,96,0
4,47,96,0
4,52,96,0
4,56,96,0
4,52,96,0
4,56,96,0
4,40,96,0
4,52,96,0
4,56,96,0
4,59,96,0
4,47,96,0
4,52,96,0
4,56,96,0
4,44,96,0
4,51,96,0
4,56,96,0
4,59,96,0
4,63,96,0
4,56,96,0
4,59,96,0
4,51,96,0
4,59,96,0
4,63,96,0
4,40,96,0
4,47,96,0
4,52,96,0
4,56,96,0
4,52,96,0
4,56,96,0
4,40,96,0
4,52,96,0
4,56,96,0
4,59,96,0
4,42,96,0
4,49,96,0
4,54,96,0
4,58,96,0
4,54,96,0
4,58,96,0
4,42,96,0
4,49,96,0
4,58,96,0
4,61,96,0
4,47,96,0
4,54,96,0
4,59,96,0
4,66,96,0
4,54,96,0
4,59,96,0
4,63,96,0
4,46,96,0
4,54,96,0
4,54,96,0
4,59,96,0
4,63,96,0
4,44,96,0
4,51,96,0
4,56,96,0
4,59,96,0
4,63,96,0
4,56,96,0
4,59,96,0
4,51,96,0
4,59,96,0
4,63,96,0
4,40,96,0
4,47,96,0
4,52,96,0
4,56,96,0
4,52,96,0
4,56,96,0
4,40,96,0
4,52,96,0
4,56,96,0
4,59,96,0
4,42,96,0
4,49,96,0
4,54,96,0
4,58,96,0
4,54,96,0
4,58,96,0
4,42,96,0
4,49,96,0
4,58,96,0
4,61,96,0
4,47,96,0
4,54,96,0
4,59,96,0
4,66,96,0
4,54,96,0
4,59,96,0
4,63,96,0
4,46,96,0
4,54,96,0
4,54,96,0
4,59,96,0
4,63,96,0
4,44,96,0
4,51,96,0
4,56,96,0
4,59,96,0
4,63,96,0
4,56,96,0
4,59,96,0
4,51,96,0
4,59,96,0
4,63,96,0
4,40,96,0
4,47,96,0
4,52,96,0
4,56,96,0
4,52,96,0
4,56,96,0
4,40,96,0
4,52,96,0
4,56,96,0
4,59,96,0
4,42,96,0
4,49,96,0
4,54,96,0
4,58,96,0
4,54,96,0
4,58,96,0
4,42,96,0
4,49,96,0
4,58,96,0
4,61,96,0
4,47,96,0
4,54,96,0
4,59,96,0
4,66,96,0
4,54,96,0
4,59,96,0
4,63,96,0
4,46,96,0
4,54,96,0
4,54,96,0
4,59,96,0
4,63,96,0
4,44,96,0
4,51,96,0
4,56,96,0
4,59,96,0
4,63,96,0
4,56,96,0
4,59,96,0
4,51,96,0
4,59,96,0
4,63,96,0
4,40,96,0
4,47,96,0
4,52,96,0
4,56,96,0
4,52,96,0
4,56,96,0
4,40,96,0
4,52,96,0
