track,note,velocity,time
1,72,127,0
1,75,127,96
1,67,127,96
1,68,127,96
1,72,127,96
1,68,127,480
1,67,127,96
1,68,127,480
1,67,127,96
1,68,127,0
1,67,127,0
1,66,127,96
1,67,127,96
1,72,127,0
1,75,127,96
1,67,127,96
1,68,127,96
1,72,127,96
1,68,127,480
1,67,127,96
1,68,127,480
1,67,127,96
1,68,127,0
1,67,127,0
1,66,127,96
1,67,127,96
1,72,127,0
1,75,127,96
1,67,127,96
1,68,127,96
1,72,127,96
1,68,127,480
1,67,127,96
1,68,127,480
1,67,127,96
1,68,127,0
1,67,127,0
1,66,127,96
1,67,127,96
1,72,127,0
1,75,127,96
1,67,127,96
1,68,127,96
1,72,127,96
1,68,127,480
1,67,127,96
1,68,127,480
1,67,127,96
1,68,127,0
1,67,127,0
1,66,127,96
1,67,127,96
1,72,127,0
1,75,127,96
1,67,127,96
1,68,127,96
1,72,127,96
1,68,127,480
1,67,127,96
1,68,127,480
1,67,127,96
1,68,127,0
1,67,127,0
1,66,127,96
1,67,127,96
1,72,127,0
1,75,127,96
1,67,127,96
1,68,127,96
1,72,127,96
1,68,127,480
1,67,127,96
1,68,127,480
1,67,127,96
1,68,127,0
1,67,127,0
1,66,127,96
1,67,127,96
1,72,127,0
1,75,127,96
1,67,127,96
1,68,127,96
1,72,127,96
1,68,127,480
1,67,127,96
1,68,127,480
1,67,127,96
1,68,127,0
1,67,127,0
1,66,127,96
1,67,127,96
1,72,127,0
1,75,127,96
1,67,127,96
1,68,127,96
1,72,127,96
1,68,127,480
1,67,127,96
1,68,127,480
1,67,127,96
1,68,127,0
1,67,127,0
1,66,127,96
1,67,127,96
1,72,127,0
1,75,127,96
1,67,127,96
1,68,127,96
1,72,127,96
1,68,127,480
1,67,127,96
1,68,127,480
1,67,127,96
1,68,127,0
1,67,127,0
1,66,127,96
1,67,127,96
1,72,127,0
1,75,127,96
1,67,127,96
1,68,127,96
1,72,127,96
1,68,127,480
1,67,127,96
1,68,127,480
1,67,127,96
1,68,127,0
1,67,127,0
1,66,127,96
1,67,127,96
1,72,127,0
1,75,127,96
1,67,127,96
1,68,127,96
1,72,127,96
1,68,127,480
1,67,127,96
1,68,127,480
1,67,127,96
1,68,127,0
1,67,127,0
1,66,127,96
1,67,127,96
1,72,127,0
1,75,127,96
1,67,127,96
1,68,127,96
1,72,127,96
1,68,127,480
1,67,127,96
1,68,127,480
1,67,127,96
1,68,127,0
1,67,127,0
1,66,127,96
1,67,127,96
1,72,127,0
1,75,127,96
1,67,127,96
1,68,127,96
1,72,127,96
1,68,127,480
1,67,127,96
1,68,127,480
1,67,127,96
1,68,127,0
1,67,127,0
1,66,127,96
1,67,127,96
1,72,127,0
1,75,127,96
1,67,127,96
1,68,127,96
1,72,127,96
1,68,127,480
1,67,127,96
1,68,127,480
1,67,127,96
1,68,127,0
1,67,127,0
1,66,127,96
1,67,127,96
1,72,127,0
1,75,127,96
1,67,127,96
1,68,127,96
1,72,127,96
1,68,127,480
1,67,127,96
1,68,127,480
1,67,127,96
1,68,127,0
1,67,127,0
1,66,127,96
1,67,127,96
1,72,127,0
1,75,127,96
1,67,127,96
1,68,127,96
1,72,127,96
1,68,127,480
1,67,127,96
1,68,127,480
1,67,127,96
1,68,127,0
1,67,127,0
1,66,127,96
1,67,127,96
1,72,127,0
1,75,127,96
1,67,127,96
1,68,127,96
1,72,127,96
1,68,127,480
1,67,127,96
1,68,127,480
1,67,127,96
1,68,127,0
1,67,127,0
1,66,127,96
1,67,127,96
1,72,127,0
1,75,127,96
1,67,127,96
1,68,127,96
1,72,127,96
1,68,127,480
1,67,127,96
1,68,127,480
1,67,127,96
1,68,127,0
1,67,127,0
1,66,127,96
1,67,127,96
1,72,127,0
1,75,127,96
1,67,127,96
1,68,127,96
1,72,127,96
1,68,127,480
1,67,127,96
1,68,127,480
1,67,127,96
1,68,127,0
1,67,127,0
1,66,127,96
1,67,127,96
1,72,127,0
1,75,127,96
1,67,127,96
1,68,127,96
1,72,127,96
1,68,127,480
1,67,127,96
1,68,127,480
1,67,127,96
1,68,127,0
1,67,127,0
1,66,127,96
1,67,127,96
1,72,127,0
1,75,127,96
1,67,127,96
1,68,127,96
1,72,127,96
1,68,127,480
1,67,127,96
1,68,127,480
1,67,127,96
1,68,127,0
1,67,127,0
1,66,127,96
1,67,127,96
1,72,127,0
1,75,127,96
1,67,127,96
1,68,127,96
1,72,127,96
1,68,127,480
1,67,127,96
1,68,127,480
1,67,127,96
1,68,127,0
1,67,127,0
1,66,127,96
1,67,127,96
1,72,127,0
1,75,127,96
1,67,127,96
1,68,127,96
1,72,127,96
1,68,127,480
1,67,127,96
1,68,127,480
1,67,127,96
1,68,127,0
1,67,127,0
1,66,127,96
1,67,127,96
1,72,127,0
1,75,127,96
1,67,127,96
1,68,127,96
1,72,127,96
1,68,127,480
1,67,127,96
1,68,127,480
1,67,127,96
1,68,127,0
1,67,127,0
1,66,127,96
1,67,127,96
1,72,127,0
1,75,127,96
1,67,127,96
1,68,127,96
1,72,127,96
1,68,127,480
1,67,127,96
1,68,127,480
1,67,127,96
1,68,127,0
1,67,127,0
1,66,127,96
1,67,127,96
1,72,127,0
1,75,127,96
1,67,127,96
1,68,127,96
1,72,127,96
1,68,127,480
1,67,127,96
1,68,127,480
1,67,127,96
1,68,127,0
1,67,127,0
1,66,127,96
1,67,127,96
1,72,127,0
1,75,127,96
1,67,127,96
1,68,127,96
1,72,127,96
1,68,127,480
1,67,127,96
1,68,127,480
1,67,127,96
1,68,127,0
1,67,127,0
1,66,127,96
1,67,127,96
1,72,127,0
1,75,127,96
1,67,127,96
1,68,127,96
1,72,127,96
1,68,127,480
1,67,127,96
1,68,127,480
1,67,127,96
1,68,127,0
1,67,127,0
1,66,127,96
1,67,127,96
1,72,127,0
1,75,127,96
1,67,127,96
1,68,127,96
1,72,127,96
1,68,127,480
1,67,127,96
1,68,127,480
1,67,127,96
1,68,127,0
1,67,127,0
1,66,127,96
1,67,127,96
1,72,127,0
1,75,127,96
1,67,127,96
1,68,127,96
1,72,127,96
1,68,127,480
1,67,127,96
1,68,127,480
1,67,127,96
1,68,127,0
1,67,127,0
1,66,127,96
1,67,127,96
1,72,127,0
1,75,127,96
1,67,127,96
1,68,127,96
1,72,127,96
1,68,127,480
1,67,127,96
1,68,127,480
1,67,127,96
1,68,127,0
1,67,127,0
1,66,127,96
1,67,127,96
1,72,127,0
1,75,127,96
1,67,127,96
1,68,127,96
1,72,127,96
1,68,127,480
1,67,127,96
1,68,127,480
1,67,127,96
1,68,127,0
1,67,127,0
1,66,127,96
1,67,127,96
1,72,127,0
1,75,127,96
1,67,127,96
1,68,127,96
1,72,127,96
1,68,127,480
1,67,127,96
1,68,127,480
1,67,127,96
1,68,127,0
1,67,127,0
1,66,127,96
1,67,127,96
1,72,127,0
1,75,127,96
1,67,127,96
1,68,127,96
1,72,127,96
1,68,127,480
1,67,127,96
1,68,127,480
1,67,127,96
1,68,127,0
1,67,127,0
1,66,127,96
1,67,127,96
1,72,127,0
1,75,127,96
1,67,127,96
1,68,127,96
1,72,127,96
1,68,127,480
1,67,127,96
1,68,127,480
1,67,127,96
1,68,127,0
1,67,127,0
1,66,127,96
1,67,127,96
1,72,127,0
1,75,127,96
1,67,127,96
1,68,127,96
1,72,127,96
1,68,127,480
1,67,127,96
1,68,127,480
1,67,127,96
1,68,127,0
1,67,127,0
1,66,127,96
1,67,127,96
1,72,127,0
1,75,127,96
1,67,127,96
1,68,127,96
1,72,127,96
1,68,127,480
1,67,127,96
1,68,127,480
1,67,127,96
1,68,127,0
1,67,127,0
1,66,127,96
1,67,127,96
1,72,127,0
1,75,127,96
1,67,127,96
1,68,127,96
1,72,127,96
1,68,127,480
1,67,127,96
1,68,127,480
1,67,127,96
1,68,127,0
1,67,127,0
1,66,127,96
1,67,127,96
1,72,127,0
1,75,127,96
1,67,127,96
1,68,127,96
1,72,127,96
1,68,127,480
1,67,127,96
1,68,127,480
1,67,127,96
1,68,127,0
1,67,127,0
1,66,127,96
1,67,127,96
1,72,127,0
1,75,127,96
1,67,127,96
1,68,127,96
1,72,127,96
1,68,127,480
1,67,127,96
1,68,127,480
1,67,127,96
1,68,127,0
1,67,127,0
1,66,127,96
1,67,127,96
1,72,127,0
1,75,127,96
1,67,127,96
1,68,127,96
1,72,127,96
1,68,127,480
1,67,127,96
1,68,127,480
1,67,127,96
1,68,127,0
1,67,127,0
1,66,127,96
1,67,127,96
1,72,127,0
1,75,127,96
1,67,127,96
1,68,127,96
1,72,127,96
1,68,127,480
1,67,127,96
1,68,127,480
1,67,127,96
1,68,127,0
1,67,127,0
1,66,127,96
1,67,127,96
1,72,127,0
1,75,127,96
1,67,127,96
1,68,127,96
1,72,127,96
1,68,127,480
1,67,127,96
1,68,127,480
1,67,127,96
1,68,127,0
1,67,127,0
1,66,127,96
1,67,127,96
1,72,127,0
1,75,127,96
1,67,127,96
1,68,127,96
1,72,127,96
1,68,127,480
1,67,127,96
1,68,127,480
1,67,127,96
1,68,127,0
1,67,127,0
1,66,127,96
1,67,127,96
1,72,127,0
1,75,127,96
1,67,127,96
1,68,127,96
1,72,127,96
1,68,127,480
1,67,127,96
1,68,127,480
1,67,127,96
1,68,127,0
1,67,127,0
1,66,127,96
1,67,127,96
1,72,127,0
1,75,127,96
1,67,127,96
1,68,127,96
1,72,127,96
1,68,127,480
1,67,127,96
1,68,127,480
1,67,127,96
1,68,127,0
1,67,127,0
1,66,127,96
1,67,127,96
1,72,127,0
1,75,127,96
1,67,127,96
1,68,127,96
1,72,127,96
1,68,127,480
1,67,127,96
1,68,127,480
1,67,127,96
1,68,127,0
1,67,127,0
1,66,127,96
1,67,127,96
1,72,127,0
1,75,127,96
1,67,127,96
1,68,127,96
1,72,127,96
1,68,127,480
1,67,127,96
1,68,127,480
1,67,127,96
1,68,127,0
1,67,127,0
1,66,127,96
1,67,127,96
1,72,127,0
1,75,127,96
1,67,127,96
1,68,127,96
1,72,127,96
1,68,127,480
1,67,127,96
1,68,127,480
1,67,127,96
1,68,127,0
1,67,127,0
1,66,127,96
1,67,127,96
1,72,127,0
1,75,127,96
1,67,127,96
1,68,127,96
1,72,127,96
1,68,127,480
1,67,127,96
1,68,127,480
1,67,127,96
1,68,127,0
1,67,127,0
1,66,127,96
1,67,127,96
1,72,127,0
1,75,127,96
1,67,127,96
1,68,127,96
1,72,127,96
1,68,127,480
1,67,127,96
1,68,127,480
1,67,127,96
1,68,127,0
1,67,127,0
1,66,127,96
1,67,127,96
1,72,127,0
1,75,127,96
1,67,127,96
1,68,127,96
1,72,127,96
1,68,127,480
1,67,127,96
1,68,127,480
1,67,127,96
1,68,127,0
1,67,127,0
1,66,127,96
1,67,127,96
1,72,127,0
1,75,127,96
1,67,127,96
1,68,127,96
1,72,127,96
1,68,127,480
1,67,127,96
1,68,127,480
1,67,127,96
1,68,127,0
1,67,127,0
1,66,127,96
1,67,127,96
1,72,127,0
1,75,127,96
1,67,127,96
1,68,127,96
1,72,127,96
1,68,127,480
1,67,127,96
1,68,127,480
1,67,127,96
1,68,127,0
1,67,127,0
1,66,127,96
1,67,127,96
1,72,127,0
1,75,127,96
1,67,127,96
1,68,127,96
1,72,127,96
1,68,127,480
1,67,127,96
1,68,127,480
1,67,127,96
1,68,127,0
1,67,127,0
1,66,127,96
1,67,127,96
1,72,127,0
1,75,127,96
1,67,127,96
1,68,127,96
1,72,127,96
1,68,127,480
1,67,127,96
1,68,127,480
1,67,127,96
1,68,127,0
1,67,127,0
1,66,127,96
1,67,127,96
1,72,107,0
1,75,103,96
1,67,100,96
1,68,97,96
1,72,94,96
1,68,84,480
1,67,81,96
1,68,71,480
1,67,68,96
1,68,66,0
1,67,64,0
1,66,61,96
1,67,58,96
1,72,55,0
1,75,51,96
1,67,48,96
1,68,44,96
1,72,40,96
1,68,30,480
1,67,26,96
1,68,15,480
1,67,12,96
1,68,10,0
1,67,8,0
1,66,5,96
1,67,1,96
2,36,127,0
2,38,127,192
2,39,127,0
2,41,127,0
2,41,127,384
2,39,127,0
2,39,127,384
2,38,127,0
2,43,127,384
2,36,127,0
2,38,127,192
2,39,127,0
2,41,127,0
2,41,127,384
2,39,127,0
2,39,127,384
2,38,127,0
2,43,127,384
2,36,127,0
2,38,127,192
2,39,127,0
2,41,127,0
2,41,127,384
2,39,127,0
2,39,127,384
2,38,127,0
2,43,127,384
2,36,127,0
2,38,127,192
2,39,127,0
2,41,127,0
2,41,127,384
2,39,127,0
2,39,127,384
2,38,127,0
2,43,127,384
2,36,127,0
2,38,127,192
2,39,127,0
2,41,127,0
2,41,127,384
2,39,127,0
2,39,127,384
2,38,127,0
2,43,127,384
2,36,127,0
2,38,127,192
2,39,127,0
2,41,127,0
2,41,127,384
2,39,127,0
2,39,127,384
2,38,127,0
2,43,127,384
2,36,127,0
2,38,127,192
2,39,127,0
2,41,127,0
2,41,127,384
2,39,127,0
2,39,127,384
2,38,127,0
2,43,127,384
2,36,127,0
2,38,127,192
2,39,127,0
2,41,127,0
2,41,127,384
2,39,127,0
2,39,127,384
2,38,127,0
2,43,127,384
2,36,127,0
2,38,127,192
2,39,127,0
2,41,127,0
2,41,127,384
2,39,127,0
2,39,127,384
2,38,127,0
2,43,127,384
2,36,127,0
2,38,127,192
2,39,127,0
2,41,127,0
2,41,127,384
2,39,127,0
2,39,127,384
2,38,127,0
2,43,127,384
2,36,127,0
2,38,127,192
2,39,127,0
2,41,127,0
2,41,127,384
2,39,127,0
2,39,127,384
2,38,127,0
2,43,127,384
2,36,127,0
2,38,127,192
2,39,127,0
2,41,127,0
2,41,127,384
2,39,127,0
2,39,127,384
2,38,127,0
2,43,127,384
2,36,127,0
2,38,127,192
2,39,127,0
2,41,127,0
2,41,127,384
2,39,127,0
2,39,127,384
2,38,127,0
2,43,127,384
2,36,127,0
2,38,127,192
2,39,127,0
2,41,127,0
2,41,127,384
2,39,127,0
2,39,127,384
2,38,127,0
2,43,127,384
2,36,127,0
2,38,127,192
2,39,127,0
2,41,127,0
2,41,127,384
2,39,127,0
2,39,127,384
2,38,127,0
2,43,127,384
2,36,127,0
2,38,127,192
2,39,127,0
2,41,127,0
2,41,127,384
2,39,127,0
2,39,127,384
2,38,127,0
2,43,127,384
2,36,127,0
2,38,127,192
2,39,127,0
2,41,127,0
2,41,127,384
2,39,127,0
2,39,127,384
2,38,127,0
2,43,127,384
2,36,127,0
2,38,127,192
2,39,127,0
2,41,127,0
2,41,127,384
2,39,127,0
2,39,127,384
2,38,127,0
2,43,127,384
2,36,127,0
2,38,127,192
2,39,127,0
2,41,127,0
2,41,127,384
2,39,127,0
2,39,127,384
2,38,127,0
2,43,127,384
2,36,127,0
2,38,127,192
2,39,127,0
2,41,127,0
2,41,127,384
2,39,127,0
2,39,127,384
2,38,127,0
2,43,127,384
2,36,127,0
2,38,127,192
2,39,127,0
2,41,127,0
2,41,127,384
2,39,127,0
2,39,127,384
2,38,127,0
2,43,127,384
2,36,127,0
2,38,127,192
2,39,127,0
2,41,127,0
2,41,127,384
2,39,127,0
2,39,127,384
2,38,127,0
2,43,127,384
2,36,127,0
2,38,127,192
2,39,127,0
2,41,127,0
2,41,127,384
2,39,127,0
2,39,127,384
2,38,127,0
2,43,127,384
2,36,127,0
2,38,127,192
2,39,127,0
2,41,127,0
2,41,127,384
2,39,127,0
2,39,127,384
2,38,127,0
2,43,127,384
2,36,127,0
2,38,127,192
2,39,127,0
2,41,127,0
2,41,127,384
2,39,127,0
2,39,127,384
2,38,127,0
2,43,127,384
2,36,127,0
2,38,127,192
2,39,127,0
2,41,127,0
2,41,127,384
2,39,127,0
2,39,127,384
2,38,127,0
2,43,127,384
2,36,127,0
2,38,127,192
2,39,127,0
2,41,127,0
2,41,127,384
2,39,127,0
2,39,127,384
2,38,127,0
2,43,127,384
2,36,127,0
2,38,127,192
2,39,127,0
