track,note,velocity,time
1,52,87,2976
1,57,87,0
1,59,97,192
1,60,81,177
1,62,87,80
1,64,108,276
1,62,84,756
1,60,82,176
1,59,84,173
1,60,79,93
1,62,86,276
1,52,79,663
1,57,86,77
1,59,83,165
1,60,83,158
1,62,83,177
1,64,87,0
1,64,86,35
1,64,84,46
1,62,76,185
1,60,66,73
1,62,78,93
1,64,82,0
1,64,80,54
1,64,79,38
1,62,71,108
1,60,76,57
1,62,86,192
1,64,87,185
1,52,81,46
1,57,80,92
1,57,87,4
1,59,87,169
1,60,81,157
1,62,87,80
1,64,88,276
1,62,84,756
1,60,82,176
1,59,84,173
1,60,79,93
1,62,86,276
1,52,79,663
1,57,86,77
1,59,83,165
1,60,83,158
1,62,83,177
1,64,87,0
1,64,86,35
1,64,84,46
1,62,76,185
1,60,66,73
1,62,78,93
1,64,82,0
1,64,80,54
1,64,79,38
1,62,71,108
1,60,76,57
1,64,87,200
1,69,100,0
1,69,100,0
1,67,100,0
1,64,81,0
1,69,100,73
1,64,94,48
1,69,105,91
1,64,100,91
1,64,88,189
1,67,92,43
1,69,93,53
1,67,86,55
1,64,93,60
1,69,106,140
1,64,100,118
1,69,103,127
1,64,97,119
1,64,94,291
1,67,93,48
1,69,70,41
1,67,96,48
1,64,101,50
1,62,85,145
1,62,83,45
1,62,86,61
1,62,83,61
1,62,86,63
1,62,83,58
1,62,81,59
1,64,94,48
1,64,100,48
1,64,100,48
1,62,100,0
1,60,100,0
1,57,100,0
1,57,100,48
1,69,100,192
1,67,100,0
1,64,100,96
1,62,100,0
1,60,100,0
1,57,100,0
1,57,100,48
1,69,100,192
1,67,93,5
1,64,88,182
1,64,87,55
1,64,89,64
1,62,76,81
1,60,86,0
1,60,86,38
1,64,83,55
1,64,79,60
1,64,86,54
1,64,93,95
1,62,75,96
1,60,87,76
1,72,96,184
1,71,83,382
1,69,83,371
1,64,83,214
1,64,85,50
1,64,84,54
1,62,80,96
1,60,88,1
1,60,80,38
1,64,79,18
1,64,81,52
1,64,86,55
1,64,87,108
1,62,74,90
1,60,86,3
1,71,97,13
1,72,80,0
1,69,100,192
1,69,100,0
1,67,100,0
1,64,100,0
1,69,100,0
1,64,94,48
1,69,105,91
1,64,100,91
1,64,88,189
1,67,92,43
1,69,93,53
1,67,86,55
1,64,93,60
1,69,106,140
1,64,100,118
1,69,103,127
1,64,97,119
1,64,94,291
1,67,93,48
1,69,70,41
1,67,96,48
1,64,101,50
1,62,85,145
1,62,83,45
1,62,86,61
1,62,83,61
1,62,86,63
1,62,83,58
1,62,81,59
1,64,94,48
1,64,100,48
1,64,100,48
1,62,100,0
1,60,100,0
1,57,100,0
1,57,100,48
1,69,100,192
1,67,100,0
1,64,100,96
1,62,100,0
1,60,100,0
1,57,100,0
1,57,100,48
1,69,100,192
1,67,100,0
1,64,87,5760
1,69,100,0
1,69,100,0
1,67,100,0
1,64,81,0
1,69,100,0
1,64,94,0
1,69,105,91
1,64,100,91
1,64,88,189
1,67,92,43
1,69,93,53
1,67,86,55
1,64,93,60
1,69,106,140
1,64,100,118
1,69,103,127
1,64,97,119
1,64,94,291
1,67,93,48
1,69,70,41
1,67,96,48
1,64,101,50
1,62,85,145
1,62,83,45
1,62,86,61
1,62,83,61
1,62,86,63
1,62,83,58
1,62,81,59
1,64,94,48
1,64,100,48
1,64,100,48
1,62,100,0
1,60,100,0
1,57,100,0
1,57,100,48
1,69,100,192
1,67,100,0
1,64,100,96
1,62,100,0
1,60,100,0
1,57,100,0
1,57,100,48
1,69,100,192
1,67,100,0
1,67,94,15
1,67,98,36
1,67,97,41
1,69,106,46
1,69,100,32
1,76,94,395
1,74,95,164
1,69,98,364
1,69,93,32
1,69,96,36
1,69,105,55
1,69,106,63
1,76,96,378
1,74,96,173
1,74,96,31
1,74,95,27
1,74,90,45
1,76,103,59
1,76,97,31
1,76,98,45
1,76,102,41
1,74,96,109
1,72,96,154
1,74,98,91
1,76,102,159
1,76,98,32
1,76,96,45
1,76,101,37
1,74,93,118
1,72,93,155
1,81,110,91
1,81,97,27
1,81,96,18
1,81,95,27
1,79,89,119
1,76,80,159
1,79,95,77
1,81,93,159
1,81,98,28
1,81,92,27
1,81,95,32
1,81,92,27
1,81,94,45
1,88,106,5
1,88,96,32
1,88,90,19
1,88,92,18
1,86,92,109
1,84,84,168
2,60,68,0
2,64,72,0
2,69,78,0
2,60,70,0
2,64,80,0
2,69,81,0
2,60,70,0
2,64,76,0
2,69,77,0
2,60,58,0
2,64,75,0
2,69,70,0
2,60,55,0
2,64,67,0
2,69,70,0
2,60,46,0
2,64,58,0
2,69,60,0
2,60,56,0
2,64,68,0
2,69,68,0
2,60,70,0
2,64,80,0
2,69,81,0
2,60,70,0
2,64,76,0
2,69,77,0
2,60,58,0
2,64,75,0
2,69,70,0
2,60,55,0
2,64,67,0
2,69,70,0
2,60,46,0
2,64,58,0
2,69,60,0
2,60,56,0
2,64,68,0
2,69,68,0
2,60,70,0
2,64,80,0
2,69,81,0
2,60,70,0
2,64,76,0
2,69,77,0
2,60,58,0
2,64,75,0
2,69,70,0
2,60,55,0
2,64,67,0
2,69,70,0
2,60,46,0
2,64,58,0
2,69,60,0
2,60,56,0
2,64,68,0
2,69,68,0
2,60,70,0
2,64,80,0
2,69,81,0
2,60,70,0
2,64,76,0
2,69,77,0
2,60,58,0
2,64,75,0
2,69,70,0
2,60,55,0
2,64,67,0
2,69,70,0
2,60,46,0
2,64,58,0
2,69,60,0
2,60,56,0
2,69,68,0
2,64,68,4
2,60,56,0
2,64,68,0
2,69,68,0
2,60,70,0
2,64,80,0
2,69,81,0
2,60,70,0
2,64,76,0
2,69,77,0
2,60,58,0
2,64,75,0
2,69,70,0
2,60,55,0
2,64,67,0
2,69,70,0
2,60,46,0
2,64,58,0
2,69,60,0
2,60,56,0
2,69,68,0
2,64,68,4
2,60,56,0
2,64,68,0
2,69,68,0
2,60,70,0
2,64,80,0
2,69,81,0
2,60,70,0
2,64,76,0
2,69,77,0
2,60,58,0
2,64,75,0
2,69,70,0
2,60,55,0
2,64,67,0
2,69,70,0
2,60,46,0
2,64,58,0
2,69,60,0
2,60,56,0
2,69,68,0
2,64,68,4
2,59,56,0
2,62,68,0
2,67,68,0
2,59,70,0
2,62,80,0
2,67,81,0
2,59,70,0
2,62,76,0
2,67,77,0
2,59,58,0
2,62,75,0
2,67,70,0
2,59,55,0
2,62,67,0
2,67,70,0
2,59,46,0
2,62,58,0
2,67,60,0
2,59,56,48
2,62,68,0
2,67,68,0
2,59,70,0
2,62,80,0
2,67,81,0
2,59,70,0
2,62,76,0
2,67,77,0
2,59,58,0
2,62,75,0
2,67,70,0
2,59,55,0
2,62,67,0
2,67,70,0
2,59,46,0
2,62,58,0
2,67,60,0
2,60,77,224
2,64,79,4
2,69,78,8
2,60,70,150
2,64,76,3
2,69,65,4
2,60,56,54
2,69,53,4
2,64,59,4
2,60,42,62
2,64,46,0
2,69,50,11
2,60,45,57
2,64,42,4
2,69,41,4
2,64,73,69
2,60,72,4
2,69,78,0
2,60,62,158
2,64,58,4
2,69,45,3
2,60,62,162
2,64,71,0
2,69,65,3
2,64,65,50
2,69,64,0
2,60,60,4
2,64,65,54
2,60,63,4
2,69,68,3
2,64,62,54
2,69,65,0
2,60,57,8
2,60,70,66
2,64,72,157
2,72,42,0
2,64,54,157
2,72,52,0
2,67,76,4
2,67,54,46
2,64,42,4
2,72,45,0
2,72,47,65
2,64,54,139
2,72,59,3
2,69,65,16
2,69,51,349
2,72,45,0
2,60,56,354
2,64,68,0
2,69,68,0
2,60,70,0
2,64,80,0
2,69,81,0
2,60,70,0
2,64,76,0
2,69,77,0
2,60,58,0
2,64,75,0
2,69,70,0
2,60,55,0
2,64,67,0
2,69,70,0
2,60,46,0
2,64,58,0
2,69,60,0
2,60,56,0
2,69,68,0
2,64,68,4
2,60,56,0
2,64,68,0
2,69,68,0
2,60,70,0
2,64,80,0
2,69,81,0
2,60,70,0
2,64,76,0
2,69,77,0
2,60,58,0
2,64,75,0
2,69,70,0
2,60,55,0
2,64,67,0
2,69,70,0
2,60,46,0
2,64,58,0
2,69,60,0
2,60,56,0
2,69,68,0
2,64,68,4
2,59,56,0
2,62,68,0
2,67,68,0
2,59,70,0
2,62,80,0
2,67,81,0
2,59,70,0
2,62,76,0
2,67,77,0
2,59,58,0
2,62,75,0
2,67,70,0
2,59,55,0
2,62,67,0
2,67,70,0
2,59,46,0
2,62,58,0
2,67,60,0
2,59,56,48
2,62,68,0
2,67,68,0
2,59,70,0
2,62,80,0
2,67,81,0
2,59,70,0
2,62,76,0
2,67,77,0
2,59,58,0
2,62,75,0
2,67,70,0
2,59,55,0
2,62,67,0
2,67,70,0
2,59,46,0
2,62,58,0
2,67,60,0
2,60,77,224
2,64,79,4
2,69,78,8
2,60,70,150
2,64,76,3
2,69,65,4
2,60,56,54
2,69,53,4
2,64,59,4
2,60,42,62
2,64,46,0
2,69,50,11
2,60,45,57
2,64,42,4
2,69,41,4
2,64,73,69
2,60,72,4
2,69,78,0
2,60,62,158
2,64,58,4
2,69,45,3
2,60,62,162
2,64,71,0
2,69,65,3
2,64,65,50
2,69,64,0
2,60,60,4
2,64,65,54
2,60,63,4
2,69,68,3
2,64,62,54
2,69,65,0
2,60,57,8
2,60,70,66
2,64,72,157
2,72,42,0
2,64,54,157
2,72,52,0
2,67,76,4
2,67,54,46
2,64,42,4
2,72,45,0
2,72,47,65
2,64,54,139
2,72,59,3
2,69,65,16
2,69,51,349
2,72,45,0
2,69,87,356
2,60,75,159
2,64,83,0
2,64,86,49
2,60,65,8
2,60,90,67
2,69,98,2
2,64,98,1
2,64,96,150
2,60,83,3
2,64,86,56
2,60,77,4
2,60,87,72
2,69,96,1
2,64,93,3
2,60,82,148
2,64,92,2
2,60,76,53
2,64,88,0
2,69,98,67
2,60,86,5
2,64,94,0
2,64,92,150
2,60,82,2
2,64,92,42
2,60,81,6
2,69,98,63
2,60,88,7
2,64,95,0
2,64,90,149
2,60,75,8
2,64,87,53
2,60,72,3
2,69,97,69
2,64,94,3
2,60,86,3
2,64,94,156
2,60,80,1
2,60,75,53
2,64,86,0
2,69,97,74
2,60,88,4
2,64,94,1
2,64,92,158
2,60,79,5
2,60,75,53
2,64,87,0
2,69,96,61
2,60,86,2
2,64,86,1
2,64,95,123
2,60,84,6
2,62,89,137
2,67,89,2
2,59,86,1
2,67,93,147
2,59,92,6
2,62,94,0
2,62,92,152
2,67,87,0
2,59,87,1
2,67,89,59
2,59,88,5
2,62,93,0
2,62,94,72
2,67,94,0
2,59,93,1
2,64,86,914
2,69,87,1
2,64,94,112
2,69,98,4
2,60,86,4
2,69,95,136
2,60,84,3
2,64,89,0
2,69,87,44
2,60,76,12
2,64,78,2
2,69,86,53
2,60,80,5
2,64,84,0
2,67,93,130
2,64,86,3
2,60,70,4
2,64,78,141
2,60,65,2
2,67,72,0
2,67,86,136
2,64,78,5
2,60,59,3
2,67,80,55
2,60,68,3
2,64,79,0
2,67,82,58
2,64,79,3
2,60,66,4
2,67,80,52
2,60,66,7
2,64,74,0
2,64,87,53
2,60,76,2
2,69,84,3
2,69,81,153
2,60,73,3
2,64,79,3
2,60,79,152
2,64,88,1
2,69,83,0
2,69,86,56
2,60,77,3
2,64,82,0
2,69,88,54
2,64,83,5
2,60,77,2
2,60,81,140
2,64,79,0
2,67,79,0
2,60,45,130
2,64,55,0
2,67,49,0
2,60,70,146
2,64,81,0
2,67,77,0
2,60,54,42
2,64,64,0
2,67,58,0
2,60,59,64
2,64,66,0
2,67,77,0
2,60,65,53
2,64,70,0
2,67,73,0
2,60,81,59
2,64,86,0
2,69,87,0
2,60,63,137
2,64,80,0
2,69,65,0
2,60,78,150
2,64,83,0
2,69,81,0
2,60,73,45
2,64,83,0
2,69,79,0
2,60,66,49
2,64,78,0
2,69,78,0
2,60,81,146
2,64,84,0
2,69,86,0
2,60,79,142
2,64,83,0
2,69,81,0
2,60,83,156
2,64,89,0
2,69,88,0
2,60,66,64
2,64,80,0
2,69,85,0
2,60,78,53
2,64,84,0
2,69,82,0
2,64,84,336
2,67,87,0
2,72,80,0
2,64,76,50
2,67,78,0
2,72,77,0
2,62,92,61
2,67,100,0
2,71,95,0
2,62,86,143
2,67,94,0
2,71,92,0
2,62,79,58
2,67,86,0
2,71,85,0
2,60,92,65
2,64,94,0
2,69,86,0
2,60,81,153
2,64,86,0
2,69,87,0
2,60,76,67
2,64,81,0
2,69,80,0
2,60,79,64
2,64,81,0
2,69,84,0
2,60,64,58
2,64,73,0
2,69,69,0
2,60,62,61
2,64,74,0
2,69,77,0
2,60,74,53
2,64,75,0
2,69,80,0
2,60,85,60
2,64,89,0
2,69,87,0
2,60,87,160
2,64,90,0
2,69,88,0
2,60,65,67
2,64,70,0
2,69,79,0
2,60,80,64
2,64,84,0
2,69,86,0
2,60,55,58
2,64,62,0
2,69,43,0
2,60,77,63
2,64,77,0
2,69,79,0
2,60,93,158
2,64,96,0
2,69,94,0
2,60,88,164
2,64,93,0
2,69,92,0
2,60,90,163
2,64,89,0
2,69,86,0
2,60,70,64
2,64,64,0
2,69,72,0
2,60,82,61
2,64,83,0
2,69,86,0
2,62,80,148
2,67,94,0
2,71,94,0
2,62,83,157
2,67,86,0
2,71,86,0
2,62,86,152
2,67,85,0
2,71,87,0
2,62,80,67
2,67,82,0
2,71,86,0
2,62,83,58
2,67,88,0
2,71,86,0
2,62,80,60
2,67,78,0
2,71,80,0
2,64,92,61
2,69,96,0
2,72,86,0
2,64,94,160
2,69,97,0
2,72,92,0
2,64,93,157
2,69,98,0
2,72,94,0
2,64,84,63
2,69,92,0
2,72,88,0
2,64,87,61
2,69,93,0
2,72,90,0
2,69,87,161
2,60,75,159
2,64,83,0
2,64,86,49
2,60,65,8
2,60,90,67
2,69,98,2
2,64,98,1
2,64,96,150
2,60,83,3
2,64,86,56
2,60,77,4
2,60,87,72
2,69,96,1
2,64,93,3
2,60,82,148
2,64,92,2
2,60,76,53
2,64,88,0
2,69,98,67
2,60,86,5
2,64,94,0
2,64,92,150
2,60,82,2
2,64,92,42
2,60,81,6
2,69,98,63
2,60,88,7
2,64,95,0
2,64,90,149
2,60,75,8
2,64,87,53
2,60,72,3
2,69,97,69
2,64,94,3
2,60,86,3
2,64,94,156
2,60,80,1
2,60,75,53
2,64,86,0
2,69,97,74
2,60,88,4
2,64,94,1
2,64,92,158
2,60,79,5
2,60,75,53
2,64,87,0
2,69,96,61
2,60,86,2
2,64,86,1
2,64,95,123
2,60,84,6
2,62,89,137
2,67,89,2
2,59,86,1
2,67,93,147
2,59,92,6
2,62,94,0
2,62,92,152
2,67,87,0
2,59,87,1
2,67,89,59
2,59,88,5
2,62,93,0
2,62,94,72
2,67,94,0
2,59,93,1
2,64,86,914
2,69,87,1
2,64,94,112
2,69,98,4
2,60,86,4
2,69,95,136
2,60,84,3
2,64,89,0
2,69,87,44
2,60,76,12
2,64,78,2
2,69,86,53
2,60,80,5
2,64,84,0
2,67,93,130
2,64,86,3
2,60,70,4
2,64,78,141
2,60,65,2
2,67,72,0
2,67,86,136
2,64,78,5
2,60,59,3
2,67,80,55
2,60,68,3
2,64,79,0
2,67,82,58
2,64,79,3
2,60,66,4
2,67,80,52
2,60,66,7
2,64,74,0
2,64,87,53
2,60,76,2
2,69,84,3
2,69,81,153
2,60,73,3
2,64,79,3
2,60,79,152
2,64,88,1
2,69,83,0
2,69,86,56
2,60,77,3
2,64,82,0
2,69,88,54
2,64,83,5
2,60,77,2
2,60,100,140
2,64,100,0
2,67,100,0
2,60,100,0
2,64,100,0
2,67,100,0
2,60,100,0
2,64,100,0
2,67,100,0
2,60,100,0
2,64,100,0
2,67,100,0
2,60,100,0
2,64,100,0
2,67,100,0
2,60,100,0
2,64,100,0
2,67,100,0
2,60,56,0
2,64,68,0
2,69,68,0
2,60,70,0
2,64,80,0
