track,note,velocity,time
1,34,127,2784
1,34,127,96
1,34,127,0
1,34,127,1056
1,34,127,96
1,34,127,0
1,34,127,1056
1,34,127,96
1,34,127,0
1,34,127,1056
1,34,127,96
1,34,127,0
1,35,127,192
1,34,127,480
1,34,127,96
1,34,127,0
1,34,127,1056
1,34,127,96
1,34,127,0
1,34,127,1056
1,34,127,96
1,34,127,0
1,34,127,1056
1,34,127,96
1,34,127,0
1,35,127,192
1,34,127,480
1,34,127,96
1,34,127,0
1,34,127,1056
1,34,127,96
1,34,127,0
1,34,127,1056
1,34,127,96
1,34,127,0
1,34,127,1056
1,34,127,96
1,34,127,0
1,35,127,192
1,34,127,480
1,34,127,96
1,34,127,0
1,34,127,1056
1,34,127,96
1,34,127,0
1,34,127,1056
1,34,127,96
1,34,127,0
1,34,127,1056
1,34,127,96
1,34,127,0
1,35,127,192
1,34,127,480
1,34,127,96
1,34,127,0
1,34,127,1056
1,34,127,96
1,34,127,0
1,34,127,1056
1,34,127,96
1,34,127,0
1,34,127,1056
1,34,127,96
1,34,127,0
1,35,127,192
1,34,127,480
1,34,127,96
1,34,127,0
1,34,127,1056
1,34,127,96
1,34,127,0
1,34,127,1056
1,34,127,96
1,34,127,0
1,34,127,1056
1,34,127,96
1,34,127,0
1,35,127,192
1,34,127,480
1,34,127,96
1,34,127,0
1,34,127,1056
1,34,127,96
1,34,127,0
1,34,127,1056
1,34,127,96
1,34,127,0
1,34,127,1056
1,34,127,96
1,34,127,0
1,35,127,192
1,34,127,480
1,34,127,96
1,34,127,0
1,34,127,1056
1,34,127,96
1,34,127,0
1,34,127,1056
1,34,127,96
1,34,127,0
1,34,127,1056
1,34,127,96
1,34,127,0
1,35,127,192
1,34,127,480
1,34,127,96
1,34,127,0
1,34,127,1056
1,34,127,96
1,34,127,0
1,34,127,1056
1,34,127,96
1,34,127,0
1,34,127,1056
1,34,127,96
1,34,127,0
1,35,127,192
1,34,127,480
1,34,127,96
1,34,127,0
1,34,127,1056
1,34,127,96
1,34,127,0
1,34,127,1056
1,34,127,96
1,34,127,0
1,34,127,1056
1,34,127,96
1,34,127,0
1,35,127,192
1,34,127,480
1,34,127,96
1,34,127,0
1,34,127,1056
1,34,127,96
1,34,127,0
1,34,127,1056
1,34,127,96
1,34,127,0
1,34,127,1056
1,34,127,96
1,34,127,0
1,35,127,192
1,34,127,480
1,34,127,96
1,34,127,0
1,34,127,1056
1,34,127,96
1,34,127,0
1,34,127,1056
1,34,127,96
1,34,127,0
1,34,127,1056
1,34,127,96
1,34,127,0
1,35,127,192
1,34,127,480
1,34,127,96
1,34,127,0
1,34,127,1056
1,34,127,96
1,34,127,0
1,34,127,1056
1,34,127,96
1,34,127,0
1,34,127,1056
1,34,127,96
1,34,127,0
1,35,127,192
1,34,127,480
1,34,127,96
1,34,127,0
1,34,127,1056
1,34,127,96
1,34,127,0
1,34,127,1056
1,34,127,96
1,34,127,0
1,34,127,1056
1,34,127,96
1,34,127,0
1,35,127,192
1,34,127,480
1,34,127,96
1,34,127,0
1,34,127,1056
1,34,127,96
1,34,127,0
1,34,127,1056
1,34,127,96
1,34,127,0
1,34,127,1056
1,34,127,96
1,34,127,0
1,35,127,192
1,34,127,480
1,34,127,96
1,34,127,0
1,34,127,1056
1,34,127,96
1,34,127,0
1,34,127,1056
1,34,127,96
1,34,127,0
1,34,127,1056
1,34,127,96
1,34,127,0
1,35,127,192
1,34,127,480
1,34,127,96
1,34,127,0
1,34,127,1056
1,34,127,96
1,34,127,0
1,34,127,1056
1,34,127,96
1,34,127,0
1,34,127,1056
1,34,127,96
1,34,127,0
1,35,127,192
1,34,127,480
1,34,127,96
1,34,127,0
1,34,127,1056
1,34,127,96
1,34,127,0
1,34,127,1056
1,34,127,96
1,34,127,0
1,34,127,1056
1,34,127,96
1,34,127,0
1,35,127,192
1,34,127,480
1,34,127,96
1,34,69,0
1,34,29,1056
1,34,27,96
1,34,26,0
1,34,15,1056
1,34,14,96
1,34,13,0
1,34,2,1056
1,34,1,96
2,34,127,2784
2,34,127,96
2,34,127,0
2,34,127,1056
2,34,127,96
2,34,127,0
2,34,127,1056
2,34,127,96
2,34,127,0
2,34,127,1056
2,34,127,96
2,34,127,0
2,35,127,192
2,34,127,480
2,34,127,96
2,34,127,0
2,34,127,1056
2,34,127,96
2,34,127,0
2,34,127,1056
2,34,127,96
2,34,127,0
2,34,127,1056
2,34,127,96
2,34,127,0
2,35,127,192
2,34,127,480
2,34,127,96
2,34,127,0
2,34,127,1056
2,34,127,96
2,34,127,0
2,34,127,1056
2,34,127,96
2,34,127,0
2,34,127,1056
2,34,127,96
2,34,127,0
2,35,127,192
2,34,127,480
2,34,127,96
2,34,127,0
2,34,127,1056
2,34,127,96
2,34,127,0
2,34,127,1056
2,34,127,96
2,34,127,0
2,34,127,1056
2,34,127,96
2,34,127,0
2,35,127,192
2,34,127,480
2,34,127,96
2,34,127,0
2,34,127,1056
2,34,127,96
2,34,127,0
2,34,127,1056
2,34,127,96
2,34,127,0
2,34,127,1056
2,34,127,96
2,34,127,0
2,35,127,192
2,34,127,480
2,34,127,96
2,34,127,0
2,34,127,1056
2,34,127,96
2,34,127,0
2,34,127,1056
2,34,127,96
2,34,127,0
2,34,127,1056
2,34,127,96
2,34,127,0
2,35,127,192
2,34,127,480
2,34,127,96
2,34,127,0
2,34,127,1056
2,34,127,96
2,34,127,0
2,34,127,1056
2,34,127,96
2,34,127,0
2,34,127,1056
2,34,127,96
2,34,127,0
2,35,127,192
2,34,127,480
2,34,127,96
2,34,127,0
2,34,127,1056
2,34,127,96
2,34,127,0
2,34,127,1056
2,34,127,96
2,34,127,0
2,34,127,1056
2,34,127,96
2,34,127,0
2,35,127,192
2,34,127,480
2,34,127,96
2,34,127,0
2,34,127,1056
2,34,127,96
2,34,127,0
2,34,127,1056
2,34,127,96
2,34,127,0
2,34,127,1056
2,34,127,96
2,34,127,0
2,35,127,192
2,34,127,480
2,34,127,96
2,34,127,0
2,34,127,1056
2,34,127,96
2,34,127,0
2,34,127,1056
2,34,127,96
2,34,127,0
2,34,127,1056
2,34,127,96
2,34,127,0
2,35,127,192
2,34,127,480
2,34,127,96
2,34,127,0
2,34,127,1056
2,34,127,96
2,34,127,0
2,34,127,1056
2,34,127,96
2,34,127,0
2,34,127,1056
2,34,127,96
2,34,127,0
2,35,127,192
2,34,127,480
2,34,127,96
2,34,127,0
2,34,127,1056
2,34,127,96
2,34,127,0
2,34,127,1056
2,34,127,96
2,34,127,0
2,34,127,1056
2,34,127,96
2,34,127,0
2,35,127,192
2,34,127,480
2,34,127,96
2,34,127,0
2,34,127,1056
2,34,127,96
2,34,127,0
2,34,127,1056
2,34,127,96
2,34,127,0
2,34,127,1056
2,34,127,96
2,34,127,0
2,35,127,192
2,34,127,480
2,34,127,96
2,34,127,0
2,34,127,1056
2,34,127,96
2,34,127,0
2,34,127,1056
2,34,127,96
2,34,127,0
2,34,127,1056
2,34,127,96
2,34,127,0
2,35,127,192
2,34,127,480
2,34,127,96
2,34,127,0
2,34,127,1056
2,34,127,96
2,34,127,0
2,34,127,1056
2,34,127,96
2,34,127,0
2,34,127,1056
2,34,127,96
2,34,127,0
2,35,127,192
2,34,127,480
2,34,127,96
2,34,127,0
2,34,127,1056
2,34,127,96
2,34,127,0
2,34,127,1056
2,34,127,96
2,34,127,0
2,34,127,1056
2,34,127,96
2,34,127,0
2,35,127,192
2,34,127,480
2,34,127,96
2,34,127,0
2,34,127,1056
2,34,127,96
2,34,127,0
2,34,127,1056
2,34,127,96
2,34,127,0
2,34,127,1056
2,34,127,96
2,34,127,0
2,35,127,192
2,34,127,480
2,34,127,96
2,34,127,0
2,34,127,1056
2,34,127,96
2,34,127,0
2,34,127,1056
2,34,127,96
2,34,127,0
2,34,127,1056
2,34,127,96
2,34,127,0
2,35,127,192
2,34,127,480
2,34,127,96
2,34,69,0
2,34,44,1056
2,34,42,96
2,34,41,0
2,34,28,1056
2,34,26,96
2,34,25,0
2,34,12,1056
2,34,10,96
3,66,61,1536
3,65,61,0
3,66,61,0
3,65,61,0
3,61,61,0
3,58,61,0
3,53,61,192
3,58,61,0
3,61,61,0
3,65,61,0
3,66,61,288
3,65,61,0
3,66,61,0
3,65,61,0
3,61,61,0
3,58,61,0
3,53,61,192
3,58,61,0
3,61,61,0
3,65,61,0
3,66,61,288
3,65,61,0
3,66,61,0
3,65,61,0
3,61,61,0
3,58,61,0
3,53,61,192
3,58,61,0
3,61,61,0
3,65,61,0
3,66,61,288
3,65,61,0
3,66,61,0
3,65,61,0
3,61,61,0
3,58,61,0
3,53,61,192
3,58,61,0
3,61,61,0
3,65,61,0
3,66,61,288
3,65,61,0
3,66,61,0
3,65,61,0
3,61,61,0
3,58,61,0
3,53,61,192
3,58,61,0
3,61,61,0
3,65,61,0
3,66,61,288
3,65,61,0
3,66,61,0
3,65,61,0
3,61,61,0
3,58,61,0
3,53,61,192
3,58,61,0
3,61,61,0
3,65,61,0
3,66,61,288
3,65,61,0
3,66,61,0
3,65,61,0
3,61,61,0
3,58,61,0
3,53,61,192
3,58,61,0
3,61,61,0
3,65,61,0
3,66,61,288
3,65,61,0
3,66,61,0
3,65,61,0
3,61,61,0
3,58,61,0
3,53,61,192
3,58,61,0
3,61,61,0
3,65,61,0
3,66,61,288
3,65,61,0
3,66,61,0
3,65,61,0
3,61,61,0
3,58,61,0
3,53,61,192
3,58,61,0
3,61,61,0
3,65,61,0
3,66,61,288
3,65,61,0
3,66,61,0
3,65,61,0
3,61,61,0
3,58,61,0
3,53,61,192
3,58,61,0
3,61,61,0
3,65,61,0
3,66,61,288
3,65,61,0
3,66,61,0
3,65,61,0
3,61,61,0
3,58,61,0
3,53,61,192
3,58,61,0
3,61,61,0
3,65,61,0
3,66,61,288
3,65,61,0
3,66,61,0
3,65,61,0
3,61,61,0
3,58,61,0
3,53,61,192
3,58,61,0
3,61,61,0
3,65,61,0
3,66,61,288
3,65,61,0
3,66,61,0
3,65,61,0
3,61,61,0
3,58,61,0
3,53,61,192
3,58,61,0
3,61,61,0
3,65,61,0
3,66,61,288
3,65,61,0
3,66,61,0
3,65,61,0
3,61,61,0
3,58,61,0
3,53,61,192
3,58,61,0
3,61,61,0
3,65,61,0
3,66,61,288
3,65,61,0
3,66,61,0
3,65,61,0
3,61,61,0
3,58,61,0
3,53,61,192
3,58,61,0
3,61,61,0
3,65,61,0
3,66,61,288
3,65,61,0
3,66,61,0
3,65,61,0
3,61,61,0
3,58,61,0
3,53,61,192
3,58,61,0
3,61,61,0
3,65,61,0
3,66,61,288
3,65,61,0
3,66,61,0
3,65,61,0
3,61,61,0
3,58,61,0
3,53,61,192
3,58,61,0
3,61,61,0
3,65,61,0
3,66,61,288
3,65,61,0
3,66,61,0
3,65,61,0
3,61,61,0
3,58,61,0
3,53,61,192
3,58,61,0
3,61,61,0
3,65,61,0
3,66,61,288
3,65,61,0
3,66,61,0
3,65,61,0
3,61,61,0
3,58,61,0
3,53,61,192
3,58,61,0
3,61,61,0
3,65,61,0
3,66,61,288
3,65,61,0
3,66,61,0
3,65,61,0
3,61,61,0
3,58,61,0
3,53,61,192
3,58,61,0
3,61,61,0
3,65,61,0
3,66,61,288
3,65,61,0
3,66,61,0
3,65,61,0
3,61,61,0
3,58,61,0
3,53,61,192
3,58,61,0
3,61,61,0
3,65,61,0
3,66,61,288
3,65,61,0
3,66,61,0
3,65,61,0
3,61,61,0
3,58,61,0
3,53,61,192
3,58,61,0
3,61,61,0
3,65,61,0
3,66,61,288
3,65,61,0
3,66,61,0
3,65,61,0
3,61,61,0
3,58,61,0
3,53,61,192
3,58,61,0
3,61,61,0
3,65,61,0
3,66,61,288
3,65,61,0
3,66,61,0
3,65,61,0
3,61,61,0
3,58,61,0
3,53,61,192
3,58,61,0
3,61,61,0
3,65,61,0
3,66,61,288
3,65,61,0
3,66,61,0
3,65,61,0
3,61,61,0
3,58,61,0
3,53,61,192
3,58,61,0
3,61,61,0
3,65,61,0
3,66,61,288
3,65,61,0
3,66,61,0
3,65,61,0
3,61,61,0
3,58,61,0
3,53,61,192
3,58,61,0
3,61,61,0
3,65,61,0
3,66,61,288
3,65,61,0
3,66,61,0
3,65,61,0
3,61,61,0
3,58,61,0
3,53,61,192
3,58,61,0
3,61,61,0
3,65,61,0
3,66,61,288
3,65,61,0
3,66,61,0
3,65,61,0
3,61,61,0
3,58,61,0
3,53,61,192
3,58,61,0
3,61,61,0
3,65,61,0
3,66,61,288
3,65,61,0
3,66,61,0
3,65,61,0
3,61,61,0
3,58,61,0
3,53,61,192
3,58,61,0
3,61,61,0
3,65,61,0
3,66,61,288
3,65,61,0
3,66,61,0
3,65,61,0
3,61,61,0
3,58,61,0
3,53,61,192
3,58,61,0
3,61,61,0
3,65,61,0
3,66,61,288
3,65,61,0
3,66,61,0
3,65,61,0
3,61,61,0
3,58,61,0
3,53,61,192
3,58,61,0
3,61,61,0
3,65,61,0
3,66,61,288
3,65,61,0
3,66,61,0
3,65,61,0
3,61,61,0
3,58,61,0
3,53,61,192
3,58,61,0
3,61,61,0
3,65,61,0
3,66,61,288
3,65,61,0
3,66,61,0
3,65,61,0
3,61,61,0
3,58,61,0
3,53,61,192
3,58,61,0
3,61,61,0
3,65,61,0
3,66,61,288
3,65,61,0
3,66,61,0
3,65,61,0
3,61,61,0
3,58,61,0
3,53,61,192
3,58,61,0
3,61,61,0
3,65,61,0
3,66,61,288
3,65,61,0
3,66,61,0
3,65,61,0
3,61,61,0
3,58,61,0
3,53,61,192
3,58,61,0
3,61,61,0
3,65,61,0
3,66,61,288
3,65,61,0
3,66,61,0
3,65,61,0
3,61,61,0
3,58,61,0
3,53,61,192
3,58,61,0
3,61,61,0
3,65,61,0
3,66,60,288
3,65,58,0
3,66,58,0
3,65,57,0
3,61,55,0
3,58,54,0
3,53,50,192
3,58,48,0
3,61,45,0
3,65,42,0
3,66,46,288
3,65,43,0
3,66,41,0
3,65,40,0
3,61,37,0
3,58,34,0
3,53,25,192
3,58,22,0
3,61,16,0
3,65,10,0
4,66,41,1632
4,65,41,0
4,66,41,0
4,65,41,0
4,61,41,0
4,58,41,0
4,53,41,192
4,58,41,0
4,61,41,0
4,65,41,0
4,66,41,288
4,65,41,0
4,66,41,0
4,65,41,0
4,61,41,0
4,58,41,0
4,53,41,192
4,58,41,0
4,61,41,0
4,65,41,0
4,66,41,288
4,65,41,0
4,66,41,0
4,65,41,0
4,61,41,0
4,58,41,0
4,53,41,192
4,58,41,0
4,61,41,0
4,65,41,0
4,66,41,288
4,65,41,0
4,66,41,0
4,65,41,0
4,61,41,0
4,58,41,0
4,53,41,192
4,58,41,0
4,61,41,0
4,65,41,0
4,66,41,288
4,65,41,0
4,66,41,0
4,65,41,0
4,61,41,0
4,58,41,0
4,53,41,192
4,58,41,0
4,61,41,0
4,65,41,0
4,66,41,288
4,65,41,0
4,66,41,0
4,65,41,0
4,61,41,0
4,58,41,0
4,53,41,192
4,58,41,0
4,61,41,0
4,65,41,0
4,66,41,288
4,65,41,0
4,66,41,0
4,65,41,0
4,61,41,0
4,58,41,0
4,53,41,192
4,58,41,0
4,61,41,0
4,65,41,0
4,66,41,288
4,65,41,0
4,66,41,0
4,65,41,0
4,61,41,0
4,58,41,0
4,53,41,192
4,58,41,0
4,61,41,0
4,65,41,0
4,66,41,288
4,65,41,0
4,66,41,0
4,65,41,0
4,61,41,0
4,58,41,0
4,53,41,192
4,58,41,0
4,61,41,0
4,65,41,0
4,66,41,288
4,65,41,0
4,66,41,0
4,65,41,0
4,61,41,0
4,58,41,0
4,53,41,192
4,58,41,0
4,61,41,0
4,65,41,0
4,66,41,288
4,65,41,0
4,66,41,0
4,65,41,0
4,61,41,0
4,58,41,0
4,53,41,192
4,58,41,0
4,61,41,0
4,65,41,0
4,66,41,288
4,65,41,0
4,66,41,0
4,65,41,0
4,61,41,0
4,58,41,0
4,53,41,192
4,58,41,0
4,61,41,0
4,65,41,0
4,66,41,288
4,65,41,0
4,66,41,0
4,65,41,0
4,61,41,0
4,58,41,0
4,53,41,192
4,58,41,0
4,61,41,0
4,65,41,0
